,start,end,pitch,velocity
0,1.2238800666666667,2.0279841958333336,55.0,73.0
1,1.2238800666666667,2.0279841958333336,62.0,86.0
2,2.119402066666667,2.8955211333333333,55.0,67.0
3,2.119402066666667,2.8955211333333333,62.0,79.0
4,2.5671630666666667,3.249998591666667,51.0,51.0
5,3.0149240666666666,3.749998375,55.0,65.0
6,3.0149240666666666,3.7611924,62.0,85.0
7,3.9104460666666667,4.6287293375,55.0,81.0
8,3.9104460666666667,4.682833791666667,62.0,86.0
9,3.462685066666667,4.736938245833334,51.0,51.0
10,1.6716410666666668,4.744400929166667,46.0,56.0
11,1.2238800666666667,4.822759104166667,39.0,77.0
12,4.805968066666667,5.617534879166667,63.0,73.0
13,4.805968066666667,5.623131891666667,56.0,72.0
14,5.701490066666667,6.513056879166667,63.0,75.0
15,5.701490066666667,6.5205195625000005,56.0,63.0
16,6.597012066666667,7.3488774125,56.0,74.0
17,6.597012066666667,7.352608754166667,63.0,70.0
18,7.492534066666667,8.046638304166667,56.0,85.0
19,6.597012066666667,8.227608375,51.0,60.0
20,7.492534066666667,8.274250145833333,63.0,81.0
21,4.805968066666667,8.3451456375,44.0,65.0
22,8.388056066666667,9.204451483333335,62.0,85.0
23,8.388056066666667,9.215480883333335,55.0,83.0
24,9.277980816666668,9.994891816666668,62.0,85.0
25,9.277980816666668,9.99673005,55.0,72.0
26,9.277980816666668,10.395626683333335,51.0,58.0
27,10.160332816666667,10.94525845,62.0,85.0
28,10.160332816666667,10.948934916666667,55.0,73.0
29,11.042684816666668,11.697095883333334,55.0,71.0
30,11.042684816666668,11.739375250000002,62.0,81.0
31,10.601508816666668,11.836801616666667,51.0,52.0
32,8.835817066666667,11.879080983333335,46.0,59.0
33,8.388056066666667,11.993051450000001,39.0,93.0
34,11.925036816666667,12.774300616666668,56.0,77.0
35,11.925036816666667,12.792682950000001,63.0,7.0
36,12.807388816666668,13.553711550000001,63.0,74.0
37,12.807388816666668,13.557388016666668,56.0,65.0
38,13.689740816666667,15.388268416666667,56.0,67.0
39,13.689740816666667,15.397459583333333,63.0,73.0
40,11.925036816666667,15.459959516666668,44.0,67.0
41,15.454444816666669,16.201700504166666,55.0,72.0
42,15.454444816666669,16.2147602,62.0,81.0
43,16.341625816666667,17.100953845833335,62.0,77.0
44,16.341625816666667,17.102819516666667,55.0,64.0
45,16.789386816666667,17.3733417875,51.0,50.0
46,17.237147816666667,17.975953466666667,55.0,69.0
47,17.237147816666667,17.979684808333335,62.0,83.0
48,17.684908816666667,18.177445916666667,51.0,51.0
49,15.454444816666669,18.582296487500003,39.0,87.0
50,18.132669816666667,18.602818866666667,55.0,81.0
51,18.132669816666667,18.608415879166667,62.0,81.0
52,15.895620816666668,18.852818758333335,46.0,60.0
53,18.580430816666667,19.002072425,51.0,48.0
54,19.475952816666666,20.121474925,56.0,57.0
55,19.923713816666666,20.421847929166667,63.0,79.0
56,19.923713816666666,20.459161345833333,58.0,75.0
57,20.37147481666667,20.90319100416667,56.0,60.0
58,20.81923581666667,21.599086225,63.0,74.0
59,20.81923581666667,21.602817566666666,58.0,74.0
60,21.26699681666667,21.744608550000002,56.0,57.0
61,19.028191816666666,22.360279925,44.0,67.0
62,21.71475781666667,22.574832070833335,63.0,86.0
63,22.16251881666667,22.6009514625,56.0,61.0
64,21.71475781666667,22.61027981666667,58.0,83.0
65,23.50580181666667,24.048712029166666,55.0,79.0
66,23.50580181666667,24.059906054166667,62.0,87.0
67,23.95356281666667,24.451696929166665,51.0,50.0
68,24.401323816666668,25.175577212500002,55.0,83.0
69,24.401323816666668,25.175577212500002,62.0,85.0
70,24.849084816666668,25.3210995375,51.0,55.0
71,25.296845816666668,25.770726208333336,62.0,85.0
72,25.296845816666668,25.77445755,55.0,79.0
73,22.61027981666667,25.778188891666666,39.0,90.0
74,23.05804081666667,25.80990529583333,46.0,64.0
75,25.744606816666668,26.108412629166665,51.0,49.0
76,26.640128816666667,27.34960465,56.0,52.0
77,27.083060816666666,27.776074783333335,63.0,74.0
78,27.083060816666666,27.80548651666667,58.0,67.0
79,26.192367816666668,29.11430865,44.0,66.0
80,27.52423681666667,29.209896783333335,56.0,71.0
81,27.965412816666667,29.333058416666667,63.0,86.0
82,27.965412816666667,29.345926050000003,58.0,72.0
83,29.73011681666667,30.50952775,51.0,73.0
84,29.73011681666667,30.533424783333334,55.0,77.0
85,30.171292816666668,31.040777183333333,43.0,65.0
86,29.73011681666667,31.060997750000002,36.0,75.0
87,30.612468816666667,31.060997750000002,60.0,74.0
88,30.612468816666667,31.062835983333336,51.0,71.0
89,30.612468816666667,31.070188916666666,55.0,85.0
90,31.494820816666667,31.989305583333334,56.0,73.0
91,31.494820816666667,31.991143816666668,60.0,77.0
92,32.156584816666665,32.22276121666667,62.0,56.0
93,32.377172816666665,32.84040761666667,58.0,86.0
94,32.377172816666665,32.849598783333334,62.0,93.0
95,31.494820816666667,32.893716383333334,43.0,73.0
96,32.81834881666667,33.12349555,55.0,42.0
97,31.935996816666666,33.20805428333333,50.0,73.0
98,33.25952481666667,33.842244783333335,63.0,76.0
99,33.92128881666667,34.00952401666667,63.0,14.0
100,33.25952481666667,34.03709751666667,60.0,72.0
101,34.14187681666667,34.61062631666667,60.0,72.0
102,34.14187681666667,34.84959665,63.0,75.0
103,34.583052816666665,35.11797871666667,56.0,54.0
104,35.024228816666664,35.79812505,60.0,74.0
105,35.024228816666664,35.80180151666667,63.0,76.0
106,35.46540481666667,35.95253665,56.0,58.0
107,33.70070081666667,36.11246295,51.0,65.0
108,33.25952481666667,36.28893335,44.0,74.0
109,35.90658081666667,36.33672741666667,60.0,83.0
110,35.90658081666667,36.33672741666667,63.0,83.0
111,36.788932816666666,37.577534916666664,51.0,81.0
112,36.788932816666666,37.58488785,55.0,79.0
113,37.67128481666667,38.11797551666667,51.0,81.0
114,37.67128481666667,38.11797551666667,55.0,77.0
115,36.788932816666666,38.130843150000004,36.0,75.0
116,37.23010881666667,38.14922548333334,43.0,71.0
117,38.11246081666667,38.522386850000004,48.0,54.0
118,38.55363681666667,39.39187121666667,58.0,87.0
119,38.55363681666667,39.397385916666664,62.0,90.0
120,39.435988816666665,39.92128241666667,58.0,77.0
121,39.435988816666665,39.93415005,62.0,87.0
122,38.55363681666667,39.97459118333333,43.0,69.0
123,39.87716481666667,40.24481164166667,55.0,60.0
124,38.994812816666666,40.31570713333334,50.0,66.0
125,40.32316981666667,41.14406498333334,63.0,90.0
126,40.32316981666667,41.149661995833334,60.0,72.0
127,41.21869181666667,41.95190045416667,63.0,76.0
128,41.21869181666667,41.992945212500004,60.0,68.0
129,41.66645281666667,42.18510930833334,56.0,54.0
130,42.11421381666667,42.31010925416667,63.0,74.0
131,42.33809431666667,42.61421360000001,55.0,59.0
132,42.56197481666667,42.703765800000006,56.0,85.0
133,42.11421381666667,42.923914958333334,60.0,70.0
134,40.77093081666667,43.2802580875,51.0,67.0
135,40.32316981666667,43.45189980416667,44.0,72.0
136,42.78585531666667,43.57316840833334,63.0,77.0
137,43.00973581666667,43.57316840833334,63.0,93.0
138,43.00973581666667,43.610481825,60.0,74.0
139,44.35301881666667,45.06383940416667,53.0,66.0
140,44.80077981666667,45.36048106666667,58.0,72.0
141,44.80077981666667,45.36048106666667,58.0,81.0
142,45.47242131666667,45.5638391875,58.0,40.0
143,44.80077981666667,45.57876455416667,63.0,77.0
144,44.80077981666667,45.603018275000004,50.0,66.0
145,45.24854081666667,45.603018275000004,53.0,65.0
146,45.47242131666667,45.603018275000004,53.0,43.0
147,43.90525781666667,45.729883891666674,46.0,68.0
148,45.24854081666667,45.729883891666674,46.0,55.0
149,45.69630181666667,46.427644783333335,58.0,76.0
150,45.69630181666667,46.427644783333335,58.0,87.0
151,45.69630181666667,46.45189850416667,53.0,83.0
152,46.14406281666667,46.45936118750001,46.0,59.0
153,45.69630181666667,46.47428655416667,50.0,65.0
154,45.69630181666667,46.481749237500004,62.0,85.0
155,44.35301881666667,46.606749183333335,41.0,70.0
156,43.90525781666667,46.625405891666674,34.0,83.0
157,47.48734581666667,48.30264397083334,60.0,60.0
158,47.48734581666667,48.31570366666667,63.0,74.0
159,48.382867816666675,48.84182284166667,60.0,64.0
160,48.382867816666675,48.86047955000001,63.0,75.0
161,47.48734581666667,48.95003175000001,44.0,75.0
162,48.830628816666675,49.231748045833335,56.0,52.0
163,47.93510681666667,49.241076400000004,51.0,66.0
164,49.278389816666675,50.08452408333334,62.0,72.0
165,49.278389816666675,50.08452408333334,65.0,75.0
166,49.726150816666674,50.37128848333334,53.0,72.0
167,49.278389816666675,50.45033251666668,46.0,77.0
168,50.16908281666667,50.56981768333334,70.0,76.0
169,50.16908281666667,50.57533238333334,62.0,68.0
170,50.16908281666667,50.595552950000005,65.0,75.0
171,51.05143481666668,51.90069861666667,58.0,66.0
172,51.05143481666668,51.90437508333334,62.0,75.0
173,51.933786816666675,52.376801050000005,67.0,68.0
174,51.933786816666675,52.38599221666667,62.0,71.0
175,51.933786816666675,52.39150691666667,58.0,60.0
176,51.05143481666668,52.409889250000006,43.0,76.0
177,51.49261081666668,52.415403950000005,50.0,70.0
178,52.374962816666674,52.799594716666675,55.0,59.0
179,52.81613881666667,53.582682116666675,67.0,77.0
180,52.81613881666667,53.59187328333334,63.0,74.0
181,52.81613881666667,54.13231388333334,48.0,68.0
182,53.25731481666668,54.17826971666668,55.0,58.0
183,53.69849081666668,54.20584321666667,63.0,68.0
184,53.69849081666668,54.20951968333334,67.0,77.0
185,54.139666816666676,54.58819575000001,60.0,58.0
186,54.580842816666674,55.397018416666675,68.0,81.0
187,54.580842816666674,55.408047816666674,72.0,74.0
188,55.02201881666667,55.64334168333334,60.0,60.0
189,54.580842816666674,55.794076816666674,53.0,81.0
190,55.46319481666667,55.84370911666667,68.0,74.0
191,55.46319481666667,55.85290028333334,72.0,75.0
192,56.345546816666676,57.15069301666667,65.0,76.0
193,56.345546816666676,57.16356065000001,62.0,74.0
194,56.786722816666675,57.696648316666675,53.0,74.0
195,56.345546816666676,57.702163016666674,46.0,76.0
196,57.227898816666674,57.702163016666674,70.0,71.0
197,57.227898816666674,57.70767771666667,65.0,74.0
198,57.227898816666674,57.71135418333334,62.0,68.0
199,57.66907481666667,58.07900085000001,58.0,52.0
200,58.11025081666668,58.27936828333334,75.0,70.0
201,58.11025081666668,58.90981425000001,67.0,67.0
202,58.11025081666668,58.91536980000001,70.0,70.0
203,58.99499935000001,59.74499860000001,75.0,75.0
204,58.99499935000001,59.77277635000001,70.0,83.0
205,58.99499935000001,59.77833190000001,67.0,73.0
206,59.88388735000001,60.59870145000001,75.0,71.0
207,59.88388735000001,60.63203475000001,70.0,79.0
208,59.88388735000001,60.63759030000001,67.0,67.0
209,59.43944335000001,60.99684920000001,63.0,50.0
210,60.77277535000001,61.05981210000001,75.0,54.0
211,58.55142681666668,61.08758985000001,58.0,67.0
212,58.11025081666668,61.17462680000001,51.0,93.0
213,60.77277535000001,61.18944160000001,73.0,74.0
214,60.77277535000001,61.20240455000001,70.0,81.0
215,60.77277535000001,61.20610825000001,67.0,70.0
216,61.66166335000001,62.43018110000001,60.0,76.0
217,61.66166335000001,62.43944035000001,63.0,79.0
218,62.32832935000001,62.72277340000001,56.0,9.0
219,62.550551350000006,63.04684715000001,60.0,79.0
220,62.550551350000006,63.06721750000001,63.0,85.0
221,61.66166335000001,63.26721730000001,44.0,73.0
222,63.21721735000001,63.28203210000001,62.0,35.0
223,62.99499535000001,63.35425425000001,56.0,58.0
224,62.10610735000001,63.41721715000001,51.0,77.0
225,63.43943935000001,64.25425335000001,65.0,74.0
226,63.43943935000001,64.25610520000001,62.0,75.0
227,64.32832735000001,64.77647505000002,65.0,90.0
228,64.32832735000001,64.78203060000001,62.0,90.0
229,63.88388335000001,64.82462315000001,53.0,69.0
230,64.77277135000001,64.8894379,58.0,58.0
231,63.43943935000001,64.93573415000002,46.0,75.0
232,65.21721535,65.77091850000001,58.0,77.0
233,65.21721535,65.7857333,62.0,77.0
234,65.66165935000001,66.17276995,55.0,60.0
235,65.21721535,66.5857325,43.0,76.0
236,66.10610335000001,66.58943620000001,62.0,62.0
237,66.10610335000001,66.59684360000001,58.0,62.0
238,65.66165935000001,66.61351025,50.0,64.0
239,66.55054735000002,66.93943585000001,55.0,61.0
240,66.99499135,67.73573135000001,63.0,79.0
241,66.99499135,67.75054615,67.0,77.0
242,66.99499135,68.33202705000001,48.0,75.0
243,67.43943535000001,68.3375826,55.0,59.0
244,67.88387935000002,68.37461960000002,67.0,81.0
245,67.88387935000002,68.39313810000002,63.0,87.0
246,68.32832335,68.74684145,60.0,58.0
247,68.77276735000001,69.57647025000001,68.0,77.0
248,68.77276735000001,69.58017395000002,72.0,74.0
249,69.66165535,70.12461785,72.0,79.0
250,69.66165535,70.14313635,68.0,87.0
251,69.21721135000001,70.17646965,60.0,62.0
252,70.10609935000001,70.20054370000001,65.0,50.0
253,68.77276735000001,70.25795105,53.0,81.0
254,70.55054335000001,71.36165365000001,60.0,65.0
255,70.55054335000001,71.36535735000001,63.0,74.0
256,70.55054335000001,71.36535735000001,68.0,81.0
257,71.43943135,71.93202345,63.0,90.0
258,71.43943135,71.93202345,68.0,95.0
259,71.43943135,71.93943085000001,60.0,69.0
260,70.55054335000001,71.94313455000001,44.0,74.0
261,70.99498735,72.21881156666667,51.0,67.0
262,71.88387535000001,72.22813992083334,56.0,60.0
263,72.33075181666668,73.1441843,70.0,75.0
264,72.33075181666668,73.15910966666668,62.0,67.0
265,72.33075181666668,73.15910966666668,65.0,77.0
266,73.22627381666668,73.70575122083335,70.0,93.0
267,73.22627381666668,73.72440792916667,65.0,85.0
268,73.22627381666668,73.75985567500001,62.0,67.0
269,73.89791531666668,73.94828842916668,70.0,13.0
270,73.89791531666668,74.01358690833334,65.0,40.0
271,73.89791531666668,74.05836300833334,62.0,47.0
272,73.67403481666668,74.1292585,58.0,60.0
273,74.12179581666668,74.67030304166667,70.0,95.0
274,74.12179581666668,74.69269109166667,65.0,90.0
275,74.12179581666668,74.70388511666668,62.0,74.0
276,74.56955681666668,74.879258175,58.0,54.0
277,75.24119831666668,75.38858631250001,58.0,54.0
278,72.77851281666668,75.43709375416668,53.0,74.0
279,75.01731781666668,75.47813851250001,65.0,81.0
280,75.01731781666668,75.48560119583334,70.0,85.0
281,75.01731781666668,75.49866089166667,62.0,71.0
282,74.12179581666668,75.52291461250002,50.0,65.0
283,72.33075181666668,75.5620937,46.0,81.0
284,75.91283981666668,76.74492900833334,60.0,77.0
285,75.91283981666668,76.74492900833334,68.0,95.0
286,75.91283981666668,76.74679467916668,63.0,85.0
287,76.80836181666668,77.27851086666668,68.0,90.0
288,76.80836181666668,77.29157056250001,63.0,87.0
289,76.80836181666668,77.31395861250002,60.0,81.0
290,75.91283981666668,77.33821233333335,44.0,90.0
291,77.25612281666668,77.58261521250002,56.0,53.0
292,76.36060081666668,77.655376375,51.0,72.0
293,77.70388381666667,78.48559989583335,62.0,73.0
294,77.70388381666667,78.48746556666667,65.0,85.0
295,77.70388381666667,78.48933123750001,70.0,93.0
296,78.59940581666667,79.10500261250002,70.0,100.0
297,78.59940581666667,79.110599625,65.0,86.0
298,78.15164481666667,79.11619663750001,53.0,79.0
299,78.59940581666667,79.13112200416668,62.0,77.0
300,79.04716681666667,79.17759915,58.0,54.0
301,77.70388381666667,79.24745201666667,46.0,77.0
302,79.49009881666667,80.28605385,67.0,90.0
303,79.49009881666667,80.30627441666667,58.0,77.0
304,79.49009881666667,80.30627441666667,62.0,86.0
305,80.37245081666667,80.83017091666667,62.0,86.0
306,80.37245081666667,80.83017091666667,67.0,93.0
307,80.37245081666667,80.83568561666668,58.0,74.0
308,79.49009881666667,80.85039148333334,43.0,75.0
309,79.93127481666667,80.89083261666667,50.0,79.0
310,80.81362681666667,81.21252345,55.0,58.0
311,81.69597881666668,81.98090498333335,60.0,72.0
312,81.25480281666667,81.99744908333334,63.0,79.0
313,81.25480281666667,82.03789021666668,67.0,81.0
314,82.13715481666668,82.18862535000001,63.0,62.0
315,82.13715481666668,82.37980161666667,67.0,83.0
316,81.91656681666667,82.61509548333333,51.0,86.0
317,81.25480281666667,82.62796311666668,48.0,79.0
318,82.13715481666668,82.67759541666668,72.0,87.0
319,81.47539081666667,82.72906595,55.0,64.0
320,82.35774281666667,82.83568348333334,60.0,64.0
321,82.57833081666668,83.01583035,63.0,85.0
322,82.79891881666667,83.04891855000001,67.0,76.0
323,83.46068281666668,84.35774068333335,60.0,71.0
324,83.90185881666667,84.40185828333334,72.0,76.0
325,83.90185881666667,84.43494648333333,68.0,87.0
326,83.01950681666668,84.47722585000001,53.0,95.0
327,84.34303481666667,84.48825525000001,65.0,60.0
328,84.78421081666667,85.31913671666668,65.0,74.0
329,84.78421081666667,85.31913671666668,70.0,81.0
330,84.78421081666667,85.33016611666667,62.0,67.0
331,85.44597481666668,85.58200408333335,65.0,40.0
332,85.44597481666668,85.60222465000001,62.0,40.0
333,85.44597481666668,85.60773935,70.0,51.0
334,84.78421081666667,86.12060645000001,46.0,85.0
335,85.66656281666667,86.13715055,65.0,83.0
336,85.66656281666667,86.14266525000001,62.0,74.0
337,85.66656281666667,86.14450348333334,70.0,93.0
338,85.22538681666667,86.16840051666668,53.0,72.0
339,86.10773881666668,86.48844533750001,58.0,57.0
340,86.55374381666668,87.37837032500002,67.0,74.0
341,86.55374381666668,87.38023599583335,75.0,74.0
342,86.55374381666668,87.38769867916668,70.0,83.0
343,87.44926581666668,88.20299683333334,75.0,76.0
344,87.44926581666668,88.21792220000002,67.0,70.0
345,87.44926581666668,88.21792220000002,70.0,77.0
346,88.34478781666668,89.00523529166668,75.0,77.0
347,88.34478781666668,89.13023523750002,73.0,98.0
348,88.34478781666668,89.13769792083335,67.0,81.0
349,88.34478781666668,89.13956359166669,70.0,95.0
350,87.89702681666668,89.79254838333335,63.0,58.0
351,87.00150481666668,89.83545881250002,58.0,62.0
352,89.24030981666668,89.91195131666669,70.0,98.0
353,89.24030981666668,89.91754832916668,73.0,104.0
354,89.24030981666668,89.93620503750002,67.0,90.0
355,86.55374381666668,89.94739906250001,51.0,93.0
356,90.13583181666668,90.86344344166667,68.0,72.0
357,90.13583181666668,90.87650313750001,60.0,65.0
358,90.13583181666668,90.88023447916669,63.0,70.0
359,91.03135381666668,91.52015957500001,68.0,93.0
360,91.03135381666668,91.52948792916668,63.0,86.0
361,90.13583181666668,91.53695061250002,44.0,75.0
362,91.03135381666668,91.55001030833336,60.0,81.0
363,91.47911481666668,91.83197338333335,56.0,59.0
364,90.58359281666668,91.86689981666667,51.0,75.0
365,91.92204681666668,92.74373711666668,62.0,72.0
366,91.92204681666668,92.74373711666668,70.0,86.0
367,91.92204681666668,92.74741358333334,65.0,81.0
368,92.36322281666668,93.22719248333334,51.0,79.0
369,92.80439881666668,93.26395715000001,65.0,74.0
370,92.80439881666668,93.26763361666669,62.0,67.0
371,92.80439881666668,93.27682478333335,70.0,85.0
372,91.92204681666668,93.29153065000001,44.0,79.0
373,93.68675081666667,94.49005878333335,67.0,86.0
374,93.68675081666667,94.49189701666668,62.0,83.0
375,93.68675081666667,94.49373525000001,58.0,67.0
376,94.56910281666669,95.04520525000001,62.0,81.0
377,94.56910281666669,95.04704348333334,67.0,81.0
378,94.56910281666669,95.05807288333335,58.0,70.0
379,93.68675081666667,95.07277875000001,43.0,73.0
380,94.12792681666669,95.11689635000002,50.0,70.0
381,95.01027881666668,95.34483728333335,55.0,55.0
382,95.45145481666668,96.23086575000002,72.0,79.0
383,95.45145481666668,96.23454221666668,67.0,81.0
384,95.45145481666668,96.23638045000001,63.0,73.0
385,96.33380681666668,96.80071808333335,67.0,86.0
386,96.33380681666668,96.82829158333335,63.0,83.0
387,96.33380681666668,96.85218861666668,72.0,85.0
388,95.45145481666668,96.93123265000001,48.0,74.0
389,96.77498281666668,97.05439428333335,60.0,52.0
390,95.89263081666668,97.18490885000001,55.0,63.0
391,97.21615881666668,98.02314325000002,56.0,63.0
392,97.21615881666668,98.02314325000002,65.0,76.0
393,97.21615881666668,98.04520205000001,60.0,67.0
394,97.65733481666668,98.56358385000001,48.0,61.0
395,97.21615881666668,98.56909855,41.0,59.0
396,98.09851081666667,98.71248075000001,65.0,74.0
397,98.09851081666667,98.72351015000001,56.0,69.0
398,98.09851081666667,98.72351015000001,60.0,73.0
399,98.53968681666669,99.00659808333334,53.0,58.0
400,98.98086281666669,99.81174428333335,70.0,75.0
401,98.98086281666669,99.82277368333335,62.0,66.0
402,98.98086281666669,99.82461191666668,65.0,70.0
403,98.98086281666669,100.37608191666668,46.0,68.0
404,99.86321481666668,100.37608191666668,62.0,67.0
405,99.86321481666668,100.37792015000001,65.0,74.0
406,99.86321481666668,100.38711131666668,70.0,76.0
407,99.42203881666669,100.41100835000002,53.0,70.0
408,100.30439081666668,100.72350801666668,58.0,52.0
409,100.74556681666668,101.25291921666668,67.0,66.0
410,100.74556681666668,101.31954126666668,51.0,81.0
411,100.74556681666668,101.51461704375001,70.0,79.0
412,100.74556681666668,101.51840492291667,75.0,71.0
413,101.63772311666668,102.11499589166668,50.0,85.0
414,101.63772311666668,102.15666256250002,65.0,60.0
415,101.63772311666668,102.15666256250002,75.0,63.0
416,101.63772311666668,102.18507165625002,70.0,73.0
417,102.54681411666668,104.29681429166668,75.0,68.0
418,102.54681411666668,104.30439005000001,70.0,76.0
419,102.54681411666668,104.30817792916667,67.0,68.0
420,102.54681411666668,104.35552641875002,51.0,90.0
421,104.36499611666667,105.08413595000002,51.0,57.0
422,104.36499611666667,105.09884181666668,62.0,65.0
423,105.26428281666668,105.89479685000002,51.0,58.0
424,105.26428281666668,105.97751735000001,62.0,68.0
425,104.36499611666667,106.23487001666668,44.0,69.0
426,106.14663481666668,106.87709946666668,55.0,69.0
427,106.14663481666668,106.88083080833334,62.0,83.0
428,106.58781081666667,107.07859191666668,51.0,51.0
429,107.03381581666667,107.50396486666668,55.0,81.0
430,107.03381581666667,107.50956187916667,62.0,81.0
431,107.48157681666667,107.903218425,51.0,48.0
432,108.37709881666667,109.02262092500001,56.0,57.0
433,108.82485981666667,109.32299392916667,63.0,79.0
434,108.82485981666667,109.36030734583335,58.0,75.0
435,109.27262081666667,109.80433700416667,56.0,60.0
436,109.72038181666667,110.500232225,63.0,74.0
437,109.72038181666667,110.50396356666667,58.0,74.0
438,110.16814281666667,110.64575455,56.0,57.0
439,110.61590381666667,111.15321701666667,63.0,86.0
440,111.06366481666667,111.17933640833334,56.0,61.0
441,110.61590381666667,111.18679909166667,58.0,83.0
442,107.92933781666667,111.26142592500001,44.0,67.0
443,112.40694781666667,112.94985802916668,55.0,79.0
444,112.40694781666667,112.96105205416667,62.0,87.0
445,112.85470881666667,113.35284292916667,51.0,50.0
446,113.30246981666667,114.07672321250001,55.0,83.0
447,113.30246981666667,114.07672321250001,62.0,85.0
448,113.75023081666667,114.22224553750002,51.0,55.0
449,114.19799181666667,114.67187220833334,62.0,85.0
450,114.19799181666667,114.67560355,55.0,79.0
451,111.51142581666667,114.67933489166667,39.0,90.0
452,111.95918681666667,114.71105129583334,46.0,64.0
453,114.64575281666667,115.00955862916668,51.0,49.0
454,115.54127481666667,116.25075065,56.0,52.0
455,115.98420681666667,116.67722078333334,63.0,74.0
456,115.98420681666667,116.70663251666667,58.0,67.0
457,115.09351381666667,118.01545465000001,44.0,66.0
458,116.42538281666667,118.11104278333333,56.0,71.0
459,116.86655881666667,118.23420441666667,63.0,86.0
460,116.86655881666667,118.24707205,58.0,72.0
461,118.63126281666668,119.41067375,51.0,73.0
462,118.63126281666668,119.43457078333334,55.0,77.0
463,119.07243881666668,119.94192318333334,43.0,65.0
464,118.63126281666668,119.96214375000001,36.0,75.0
465,119.51361481666667,119.96214375000001,60.0,74.0
466,119.51361481666667,119.96398198333334,51.0,71.0
467,119.51361481666667,119.97133491666668,55.0,85.0
468,120.39596681666667,120.89045158333334,56.0,73.0
469,120.39596681666667,120.89228981666668,60.0,77.0
470,121.05773081666668,121.12390721666667,62.0,56.0
471,121.27831881666667,121.74155361666668,58.0,86.0
472,121.27831881666667,121.75074478333335,62.0,93.0
473,120.39596681666667,121.79486238333334,43.0,73.0
474,121.71949481666667,122.02464155000001,55.0,42.0
475,120.83714281666667,122.10920028333334,50.0,73.0
476,122.16067081666667,122.74339078333334,63.0,76.0
477,122.82243481666667,122.91067001666667,63.0,14.0
478,122.16067081666667,122.93824351666667,60.0,72.0
479,123.04302281666668,123.51177231666668,60.0,72.0
480,123.04302281666668,123.75074265,63.0,75.0
481,123.48419881666668,124.01912471666667,56.0,54.0
482,123.92537481666668,124.69927105000001,60.0,74.0
483,123.92537481666668,124.70294751666667,63.0,76.0
484,124.36655081666667,124.85368265000001,56.0,58.0
485,122.60184681666667,125.01360895,51.0,65.0
486,122.16067081666667,125.19007935,44.0,74.0
487,124.80772681666667,125.23787341666667,60.0,83.0
488,124.80772681666667,125.23787341666667,63.0,83.0
489,125.69007881666667,126.47868091666668,51.0,81.0
490,125.69007881666667,126.48603385000001,55.0,79.0
491,126.57243081666667,127.01912151666667,51.0,81.0
492,126.57243081666667,127.01912151666667,55.0,77.0
493,125.69007881666667,127.03198915,36.0,75.0
494,126.13125481666667,127.05037148333334,43.0,71.0
495,127.01360681666668,127.42353285,48.0,54.0
496,127.45478281666666,128.29301721666667,58.0,87.0
497,127.45478281666666,128.29853191666666,62.0,90.0
498,128.33713481666666,128.82242841666667,58.0,77.0
499,128.33713481666666,128.83529605,62.0,87.0
500,127.45478281666666,128.87573718333334,43.0,69.0
501,128.77831081666668,129.14595764166668,55.0,60.0
502,127.89595881666668,129.21685313333333,50.0,66.0
503,129.2243158166667,130.04521098333333,63.0,90.0
504,129.2243158166667,130.05080799583334,60.0,72.0
505,130.1198378166667,130.85304645416667,63.0,76.0
506,130.1198378166667,130.8940912125,60.0,68.0
507,130.56759881666667,131.08625530833334,56.0,54.0
508,131.0153598166667,131.21125525416667,63.0,74.0
509,131.23924031666667,131.5153596,55.0,59.0
510,131.46312081666667,131.6049118,56.0,85.0
511,131.0153598166667,131.82506095833335,60.0,70.0
512,129.67207681666667,132.1814040875,51.0,67.0
513,129.2243158166667,132.35304580416667,44.0,72.0
514,131.68700131666668,132.47431440833333,63.0,77.0
515,131.9108818166667,132.47431440833333,63.0,93.0
516,131.9108818166667,132.511627825,60.0,74.0
517,133.25416481666667,133.96498540416667,53.0,66.0
518,133.7019258166667,134.26162706666668,58.0,72.0
519,133.7019258166667,134.26162706666668,58.0,81.0
520,134.37356731666668,134.46498518750002,58.0,40.0
521,133.7019258166667,134.47991055416668,63.0,77.0
522,133.7019258166667,134.504164275,50.0,66.0
523,134.14968681666667,134.504164275,53.0,65.0
524,134.37356731666668,134.504164275,53.0,43.0
525,132.8064038166667,134.63102989166669,46.0,68.0
526,134.14968681666667,134.63102989166669,46.0,55.0
527,134.5974478166667,135.32879078333335,58.0,76.0
528,134.5974478166667,135.32879078333335,58.0,87.0
529,134.5974478166667,135.3530445041667,53.0,83.0
530,135.04520881666667,135.36050718750002,46.0,59.0
531,134.5974478166667,135.37543255416668,50.0,65.0
532,134.5974478166667,135.3828952375,62.0,85.0
533,133.25416481666667,135.50789518333335,41.0,70.0
534,132.8064038166667,135.52655189166668,34.0,83.0
535,136.3884918166667,137.20378997083333,60.0,60.0
536,136.3884918166667,137.2168496666667,63.0,74.0
537,137.2840138166667,137.74296884166668,60.0,64.0
538,137.2840138166667,137.76162555000002,63.0,75.0
539,136.3884918166667,137.85117775,44.0,75.0
540,137.73177481666667,138.13289404583335,56.0,52.0
541,136.83625281666667,138.1422224,51.0,66.0
542,138.1795358166667,138.98567008333333,62.0,72.0
543,138.1795358166667,138.98567008333333,65.0,75.0
544,138.62729681666667,139.27243448333334,53.0,72.0
545,138.1795358166667,139.35147851666667,46.0,77.0
546,139.07022881666668,139.47096368333334,70.0,76.0
547,139.07022881666668,139.47647838333333,62.0,68.0
548,139.07022881666668,139.49669895,65.0,75.0
549,139.95258081666668,140.80184461666667,58.0,66.0
550,139.95258081666668,140.80552108333333,62.0,75.0
551,140.83493281666668,141.27794705,67.0,68.0
552,140.83493281666668,141.28713821666668,62.0,71.0
553,140.83493281666668,141.29265291666667,58.0,60.0
554,139.95258081666668,141.31103525,43.0,76.0
555,140.39375681666667,141.31654995,50.0,70.0
556,141.27610881666666,141.70074071666667,55.0,59.0
557,141.71728481666668,142.48382811666667,67.0,77.0
558,141.71728481666668,142.49301928333333,63.0,74.0
559,141.71728481666668,143.03345988333334,48.0,68.0
560,142.15846081666666,143.07941571666666,55.0,58.0
561,142.59963681666667,143.10698921666668,63.0,68.0
562,142.59963681666667,143.11066568333334,67.0,77.0
563,143.04081281666666,143.48934175,60.0,58.0
564,143.48198881666667,144.29816441666668,68.0,81.0
565,143.48198881666667,144.30919381666666,72.0,74.0
566,143.92316481666668,144.54448768333333,60.0,60.0
567,143.48198881666667,144.69522281666667,53.0,81.0
568,144.36434081666667,144.74485511666668,68.0,74.0
569,144.36434081666667,144.75404628333334,72.0,75.0
570,145.24669281666667,146.05183901666666,65.0,76.0
571,145.24669281666667,146.06470665,62.0,74.0
572,145.68786881666668,146.59779431666666,53.0,74.0
573,145.24669281666667,146.60330901666669,46.0,76.0
574,146.12904481666666,146.60330901666669,70.0,71.0
575,146.12904481666666,146.60882371666668,65.0,74.0
576,146.12904481666666,146.61250018333334,62.0,68.0
577,146.57022081666668,146.98014685,58.0,52.0
578,147.01139681666666,147.18051428333334,75.0,70.0
579,147.01139681666666,147.81096025,67.0,67.0
580,147.01139681666666,147.81651580000002,70.0,70.0
581,147.89614535,148.6461446,75.0,75.0
582,147.89614535,148.67392235,70.0,83.0
583,147.89614535,148.6794779,67.0,73.0
584,148.78503335000002,149.49984745,75.0,71.0
585,148.78503335000002,149.53318075,70.0,79.0
586,148.78503335000002,149.5387363,67.0,67.0
587,148.34058935000002,149.8979952,63.0,50.0
588,149.67392135,149.9609581,75.0,54.0
589,147.45257281666667,149.98873585,58.0,67.0
590,147.01139681666666,150.0757728,51.0,93.0
591,149.67392135,150.09058760000002,73.0,74.0
592,149.67392135,150.10355055,70.0,81.0
593,149.67392135,150.10725425,67.0,70.0
594,150.56280935,151.3313271,60.0,76.0
595,150.56280935,151.34058635,63.0,79.0
596,151.22947535,151.6239194,56.0,9.0
597,151.45169735000002,151.94799315,60.0,79.0
598,151.45169735000002,151.9683635,63.0,85.0
599,150.56280935,152.1683633,44.0,73.0
600,152.11836335,152.18317810000002,62.0,35.0
601,151.89614135,152.25540025,56.0,58.0
602,151.00725335,152.31836315,51.0,77.0
603,152.34058535,153.15539935,65.0,74.0
604,152.34058535,153.15725120000002,62.0,75.0
605,153.22947335,153.67762105,65.0,90.0
606,153.22947335,153.6831766,62.0,90.0
607,152.78502935,153.72576915000002,53.0,69.0
608,153.67391735,153.7905839,58.0,58.0
609,152.34058535,153.83688015,46.0,75.0
610,154.11836135000001,154.6720645,58.0,77.0
611,154.11836135000001,154.68687930000002,62.0,77.0
612,154.56280535000002,155.07391595,55.0,60.0
613,154.11836135000001,155.48687850000002,43.0,76.0
614,155.00724935,155.4905822,62.0,62.0
615,155.00724935,155.4979896,58.0,62.0
616,154.56280535000002,155.51465625,50.0,64.0
617,155.45169335,155.84058185,55.0,61.0
618,155.89613735,156.63687735000002,63.0,79.0
619,155.89613735,156.65169215,67.0,77.0
620,155.89613735,157.23317305,48.0,75.0
621,156.34058135,157.2387286,55.0,59.0
622,156.78502535,157.2757656,67.0,81.0
623,156.78502535,157.2942841,63.0,87.0
624,157.22946935000002,157.64798745000002,60.0,58.0
625,157.67391335000002,158.47761625,68.0,77.0
626,157.67391335000002,158.48131995,72.0,74.0
627,158.56280135,159.02576385,72.0,79.0
628,158.56280135,159.04428235,68.0,87.0
629,158.11835735,159.07761565,60.0,62.0
630,159.00724535,159.1016897,65.0,50.0
631,157.67391335000002,159.15909705,53.0,81.0
632,159.45168935,160.26279965,60.0,65.0
633,159.45168935,160.26650335,63.0,74.0
634,159.45168935,160.26650335,68.0,81.0
635,160.34057735000002,160.83316945,63.0,90.0
636,160.34057735000002,160.83316945,68.0,95.0
637,160.34057735000002,160.84057685000002,60.0,69.0
638,159.45168935,160.84428055,44.0,74.0
639,161.00801731666667,161.08264415,65.0,42.0
640,161.00801731666667,161.11436055416667,62.0,57.0
641,159.89613335,161.11995756666667,51.0,67.0
642,160.78502135,161.12928592083333,56.0,60.0
643,161.23189781666667,162.0453303,70.0,75.0
644,161.23189781666667,162.06025566666665,62.0,67.0
645,161.23189781666667,162.06025566666665,65.0,77.0
646,162.12741981666667,162.60689722083333,70.0,93.0
647,162.12741981666667,162.62555392916667,65.0,85.0
648,162.12741981666667,162.661001675,62.0,67.0
649,162.79906131666667,162.84943442916665,70.0,13.0
650,162.79906131666667,162.91473290833332,65.0,40.0
651,162.79906131666667,162.95950900833333,62.0,47.0
652,162.57518081666666,163.0304045,58.0,60.0
653,163.02294181666667,163.57144904166665,70.0,95.0
654,163.02294181666667,163.59383709166667,65.0,90.0
655,163.02294181666667,163.60503111666665,62.0,74.0
656,163.69458331666667,163.75428478333333,62.0,49.0
657,163.69458331666667,163.76921015,65.0,55.0
658,163.47070281666666,163.780404175,58.0,54.0
659,163.69458331666667,163.78226984583333,70.0,63.0
660,164.14234431666665,164.2897323125,58.0,54.0
661,161.67965881666666,164.33823975416666,53.0,74.0
662,163.91846381666667,164.3792845125,65.0,81.0
663,163.91846381666667,164.38674719583332,70.0,85.0
664,163.91846381666667,164.39980689166666,62.0,71.0
665,163.02294181666667,164.4240606125,50.0,65.0
666,161.23189781666667,164.4632397,46.0,81.0
667,164.81398581666667,165.64607500833333,60.0,77.0
668,164.81398581666667,165.64607500833333,68.0,95.0
669,164.81398581666667,165.64794067916665,63.0,85.0
670,165.70950781666667,166.17965686666665,68.0,90.0
671,165.70950781666667,166.19271656249998,63.0,87.0
672,165.70950781666667,166.2151046125,60.0,81.0
673,164.81398581666667,166.2393583333333,44.0,90.0
674,166.15726881666666,166.48376121249999,56.0,53.0
675,165.26174681666666,166.556522375,51.0,72.0
676,166.60502981666667,167.38674589583331,62.0,73.0
677,166.60502981666667,167.38861156666667,65.0,85.0
678,166.60502981666667,167.3904772375,70.0,93.0
679,167.50055181666667,168.0061486125,70.0,100.0
680,167.50055181666667,168.011745625,65.0,86.0
681,167.05279081666666,168.0173426375,53.0,79.0
682,167.50055181666667,168.03226800416667,62.0,77.0
683,167.94831281666666,168.07874515,58.0,54.0
684,166.60502981666667,168.14859801666665,46.0,77.0
685,168.39124481666667,169.18719984999998,67.0,90.0
686,168.39124481666667,169.20742041666665,58.0,77.0
687,168.39124481666667,169.20742041666665,62.0,86.0
688,169.27359681666667,169.73131691666666,62.0,86.0
689,169.27359681666667,169.73131691666666,67.0,93.0
690,169.27359681666667,169.73683161666665,58.0,74.0
691,168.39124481666667,169.75153748333332,43.0,75.0
692,168.83242081666666,169.79197861666665,50.0,79.0
693,169.71477281666665,170.11366945,55.0,58.0
694,170.59712481666665,170.88205098333333,60.0,72.0
695,170.15594881666667,170.89859508333333,63.0,79.0
696,170.15594881666667,170.93903621666666,67.0,81.0
697,171.03830081666666,171.08977134999998,63.0,62.0
698,171.03830081666666,171.28094761666665,67.0,83.0
699,170.81771281666667,171.51624148333332,51.0,86.0
700,170.15594881666667,171.52910911666666,48.0,79.0
701,171.03830081666666,171.57874141666665,72.0,87.0
702,170.37653681666666,171.63021195,55.0,64.0
703,171.25888881666665,171.73682948333334,60.0,64.0
704,171.47947681666665,171.91697635,63.0,85.0
705,171.70006481666667,171.95006454999998,67.0,76.0
706,172.36182881666664,173.25888668333332,60.0,71.0
707,172.80300481666666,173.30300428333334,72.0,76.0
708,172.80300481666666,173.33609248333332,68.0,87.0
709,171.92065281666666,173.37837184999998,53.0,95.0
710,173.24418081666667,173.38940125,65.0,60.0
711,173.68535681666665,174.22028271666665,65.0,74.0
712,173.68535681666665,174.22028271666665,70.0,81.0
713,173.68535681666665,174.23131211666666,62.0,67.0
714,174.34712081666666,174.48315008333333,65.0,40.0
715,174.34712081666666,174.50337065,62.0,40.0
716,174.34712081666666,174.50888534999999,70.0,51.0
717,173.68535681666665,175.02175244999998,46.0,85.0
718,174.56770881666665,175.03829654999998,65.0,83.0
719,174.56770881666665,175.04381125,62.0,74.0
720,174.56770881666665,175.04564948333334,70.0,93.0
721,174.12653281666667,175.06954651666666,53.0,72.0
722,175.00888481666667,175.3895913375,58.0,57.0
723,175.45488981666668,176.279516325,67.0,74.0
724,175.45488981666668,176.28138199583333,75.0,74.0
725,175.45488981666668,176.28884467916666,70.0,83.0
726,176.35041181666668,177.10414283333333,75.0,76.0
727,176.35041181666668,177.1190682,67.0,70.0
728,176.35041181666668,177.1190682,70.0,77.0
729,177.24593381666668,177.90638129166666,75.0,77.0
730,177.24593381666668,178.0313812375,73.0,98.0
731,177.24593381666668,178.03884392083333,67.0,81.0
732,177.24593381666668,178.04070959166665,70.0,95.0
733,176.79817281666666,178.39891839166665,63.0,58.0
734,175.90265081666666,178.44182882083334,58.0,62.0
735,178.14145581666668,178.518321325,70.0,98.0
736,178.14145581666668,178.5239183375,73.0,104.0
737,178.14145581666668,178.54257504583333,67.0,90.0
738,175.45488981666668,178.55376907083334,51.0,93.0
739,179.03697781666668,179.76458944166666,68.0,72.0
740,179.03697781666668,179.7776491375,60.0,65.0
741,179.03697781666668,179.78138047916667,63.0,70.0
742,179.93249981666668,180.421305575,68.0,93.0
743,179.93249981666668,180.43063392916667,63.0,86.0
744,179.03697781666668,180.4380966125,44.0,75.0
745,179.93249981666668,180.45115630833334,60.0,81.0
746,180.38026081666666,180.73311938333333,56.0,59.0
747,179.48473881666666,180.76804581666667,51.0,75.0
748,180.82319281666668,181.64488311666668,62.0,72.0
749,180.82319281666668,181.64488311666668,70.0,86.0
750,180.82319281666668,181.64855958333334,65.0,81.0
751,181.26436881666666,182.12833848333332,51.0,79.0
752,181.70554481666667,182.16510315,65.0,74.0
753,181.70554481666667,182.16877961666665,62.0,67.0
754,181.70554481666667,182.17797078333334,70.0,85.0
755,180.82319281666668,182.19267665,44.0,79.0
756,182.58789681666667,183.39120478333334,67.0,86.0
757,182.58789681666667,183.39304301666667,62.0,83.0
758,182.58789681666667,183.39488125,58.0,67.0
759,183.47024881666667,183.94635125,62.0,81.0
760,183.47024881666667,183.94818948333332,67.0,81.0
761,183.47024881666667,183.95921888333334,58.0,70.0
762,182.58789681666667,183.97392475,43.0,73.0
763,183.02907281666666,184.01804235,50.0,70.0
764,183.91142481666665,184.24598328333332,55.0,55.0
765,184.35260081666667,184.90958551666665,39.0,79.0
766,184.35260081666667,184.97024721666665,51.0,93.0
767,185.01436481666667,185.57318775,41.0,86.0
768,185.01436481666667,185.59157008333332,53.0,86.0
769,185.67612881666668,186.05664311666666,43.0,108.0
770,185.67612881666668,186.06951075,55.0,104.0
771,186.11730481666666,186.92428925,56.0,63.0
772,186.11730481666666,186.92428925,65.0,76.0
773,186.11730481666666,186.94634804999998,60.0,67.0
774,186.99965681666666,187.42612695,65.0,74.0
775,186.99965681666666,187.43715635,56.0,69.0
776,186.99965681666666,187.43715635,60.0,73.0
777,186.55848081666667,187.46472985,48.0,61.0
778,186.11730481666666,187.47024455,41.0,59.0
779,187.44083281666667,187.72024428333333,53.0,58.0
780,187.88200881666666,188.71289028333334,70.0,75.0
781,187.88200881666666,188.72391968333332,62.0,66.0
782,187.88200881666666,188.72575791666665,65.0,70.0
783,187.88200881666666,189.27722791666667,46.0,68.0
784,188.76436081666665,189.27722791666667,62.0,67.0
785,188.76436081666665,189.27906615,65.0,74.0
786,188.76436081666665,189.28825731666666,70.0,76.0
787,188.32318481666667,189.31215435,53.0,70.0
788,189.20553681666667,189.62465401666665,58.0,52.0
789,189.64671281666665,190.39492970833334,67.0,85.0
790,189.64671281666665,190.40061152708333,63.0,85.0
791,189.64671281666665,190.40629334583332,72.0,77.0
792,189.64671281666665,190.90061157708334,48.0,76.0
793,190.53886911666666,190.95932370416665,72.0,85.0
794,190.53886911666666,190.96500552291667,67.0,87.0
795,190.53886911666666,190.9782631,63.0,76.0
796,190.08788881666666,191.05780856249999,55.0,60.0
797,191.44796011666665,192.23583898333334,62.0,83.0
798,191.44796011666665,192.23773292291665,65.0,98.0
799,191.44796011666665,192.24530868125,70.0,93.0
800,192.35705111666667,192.73015721458333,65.0,90.0
801,192.35705111666667,192.73205115416667,62.0,95.0
802,191.44796011666665,192.74720267083333,46.0,83.0
803,192.35705111666667,192.76046024791665,70.0,100.0
804,191.90250561666667,192.773717825,53.0,73.0
805,192.81159661666666,193.05597038333332,58.0,54.0
806,193.25633781666667,194.05596931666665,69.0,85.0
807,193.25633781666667,194.06516048333333,72.0,95.0
808,194.13868981666667,194.71038038333333,72.0,95.0
809,194.80045381666665,194.90890958333333,72.0,46.0
810,194.13868981666667,194.93832131666665,69.0,87.0
811,194.57986581666665,195.10192408333333,65.0,57.0
812,193.69751381666666,195.39787965,60.0,53.0
813,195.02104181666667,195.81515861666665,69.0,76.0
814,195.02104181666667,195.81883508333334,72.0,93.0
815,195.46221781666665,195.86662915,65.0,60.0
816,193.69751381666666,196.23243758333334,57.0,14.0
817,195.90339381666666,196.30229045,72.0,90.0
818,195.46221781666665,196.30964338333334,60.0,35.0
819,195.90339381666666,196.35008451666667,69.0,104.0
820,196.12398181666666,196.35376098333333,65.0,61.0
821,193.25633781666667,196.43831971666665,53.0,81.0
822,196.79057481666666,197.61509141666664,63.0,69.0
823,196.79057481666666,197.61509141666664,72.0,73.0
824,196.79057481666666,197.61692964999997,67.0,75.0
825,197.68126781666666,198.16288494999998,72.0,93.0
826,197.68126781666666,198.17759081666665,67.0,95.0
827,197.68126781666666,198.19045845,63.0,81.0
828,198.12244381666665,198.25295838333332,60.0,49.0
829,197.23833581666665,198.27317895,55.0,72.0
830,196.79057481666666,198.33935534999998,48.0,71.0
831,198.56361981666666,199.3614130833333,62.0,73.0
832,198.56361981666666,199.37244248333332,65.0,83.0
833,198.56361981666666,199.37244248333332,70.0,83.0
834,198.56361981666666,199.8687654833333,46.0,74.0
835,199.00479581666664,199.87428018333333,53.0,64.0
836,199.44597181666666,199.87795665,62.0,86.0
837,199.44597181666666,199.88898604999997,65.0,90.0
838,199.44597181666666,199.9239124833333,70.0,93.0
839,200.33315281666665,200.40031696666665,63.0,74.0
840,200.78091381666664,201.07195846666664,72.0,56.0
841,200.33315281666665,201.12419724999998,65.0,74.0
842,200.33315281666665,201.12979426249998,69.0,98.0
843,201.22867481666665,201.98427150416663,65.0,90.0
844,201.22867481666665,201.9935998583333,69.0,90.0
845,201.22867481666665,202.00852522499997,72.0,90.0
846,202.12419681666665,202.9394949708333,65.0,81.0
847,202.12419681666665,202.94322631249997,69.0,83.0
848,202.12419681666665,202.9506889958333,72.0,83.0
849,203.01971881666665,203.7118826958333,72.0,85.0
850,203.01971881666665,203.7286737333333,60.0,67.0
851,203.01971881666665,203.7286737333333,65.0,95.0
852,203.01971881666665,203.73053940416665,69.0,93.0
853,200.33315281666665,203.73240507499997,53.0,86.0
854,203.91524081666665,204.70666921666663,68.0,93.0
855,203.91524081666665,204.71034568333332,60.0,79.0
856,203.91524081666665,204.71218391666665,63.0,86.0
857,204.80593381666665,205.29858034999998,63.0,90.0
858,204.80593381666665,205.30777151666663,60.0,90.0
859,204.80593381666665,205.30777151666663,68.0,100.0
860,203.91524081666665,205.32983031666663,44.0,93.0
861,205.24710981666664,205.59637414999997,56.0,53.0
862,204.36300181666664,205.61843294999997,51.0,74.0
863,205.68828581666665,206.4750496833333,62.0,77.0
864,205.68828581666665,206.4750496833333,65.0,87.0
865,205.68828581666665,206.48424084999996,70.0,95.0
866,206.57063781666665,207.01732851666665,70.0,108.0
867,206.57063781666665,207.02284321666664,65.0,98.0
868,206.57063781666665,207.04122554999998,62.0,95.0
869,206.12946181666663,207.07247551666663,53.0,79.0
870,207.01181381666663,207.11475488333332,58.0,53.0
871,205.68828581666665,207.1974753833333,46.0,79.0
872,207.45298981666664,208.26365071666663,67.0,86.0
873,207.45298981666664,208.2673271833333,62.0,86.0
874,207.45298981666664,208.27100364999998,58.0,74.0
875,208.33534181666664,208.83350304999996,67.0,98.0
876,208.33534181666664,208.8353412833333,62.0,98.0
877,208.33534181666664,208.84269421666664,58.0,79.0
878,207.45298981666664,208.86107654999998,43.0,74.0
879,208.77651781666663,208.90519414999997,47.0,87.0
880,207.89416581666663,208.94195881666664,50.0,66.0
881,208.33534181666664,209.10739981666663,55.0,10.0
882,209.21769381666664,209.9989429833333,67.0,93.0
883,209.21769381666664,210.00629591666663,63.0,90.0
884,209.21769381666664,210.01181061666665,72.0,85.0
885,209.21769381666664,210.10004581666664,48.0,77.0
886,210.10004581666664,210.66438344999997,65.0,98.0
887,210.10004581666664,210.6717363833333,70.0,100.0
888,210.10004581666664,210.69011871666663,46.0,83.0
889,210.10004581666664,210.69011871666663,62.0,85.0
890,210.98239781666663,211.7801910833333,68.0,93.0
891,210.98239781666663,211.78386754999997,72.0,81.0
892,211.42357381666665,212.23974941666663,60.0,63.0
893,211.86474981666663,212.31327874999997,72.0,95.0
894,211.86474981666663,212.31695521666663,68.0,104.0
895,210.98239781666663,212.32982284999997,53.0,90.0
896,212.74710181666663,213.52980524999998,63.0,100.0
897,212.74710181666663,213.5372679333333,68.0,98.0
898,212.74710181666663,213.54099927499996,60.0,90.0
899,213.63428281666665,214.13801394166663,63.0,95.0
900,213.63428281666665,214.13987961249998,68.0,104.0
901,213.63428281666665,214.1473422958333,60.0,86.0
902,212.74710181666663,214.15480497916664,44.0,83.0
903,214.08204381666664,214.43652127499996,56.0,59.0
904,213.18827781666664,214.47756603333332,51.0,73.0
905,214.52980481666665,214.97570014583331,58.0,56.0
906,214.52980481666665,214.99995386666663,53.0,83.0
907,214.52980481666665,215.00741655,62.0,83.0
908,214.52980481666665,215.01301356249996,70.0,86.0
909,214.52980481666665,215.01487923333332,46.0,69.0
910,214.52980481666665,215.01487923333332,65.0,90.0
911,215.20144631666665,216.2406249708333,65.0,95.0
912,215.20144631666665,216.24808765416665,70.0,108.0
913,215.20144631666665,216.2574160083333,62.0,85.0
914,215.20144631666665,216.32084881666665,58.0,70.0
915,215.20144631666665,216.35069954999997,46.0,73.0
916,215.20144631666665,216.35443089166665,53.0,104.0
917,216.32084881666665,216.59696809999997,63.0,68.0
918,216.32084881666665,216.60629645416665,59.0,68.0
919,216.32084881666665,216.61935615,66.0,67.0
920,216.32084881666665,216.62495316249996,71.0,59.0
921,216.76860981666664,217.0409977583333,63.0,63.0
922,216.76860981666664,217.05405745416664,59.0,62.0
923,216.76860981666664,217.09883355416665,66.0,72.0
924,216.76860981666664,217.11189324999998,71.0,70.0
925,217.21637081666665,217.4943557708333,59.0,69.0
926,216.32084881666665,217.50181845416665,47.0,58.0
927,217.21637081666665,217.5111468083333,66.0,68.0
928,217.21637081666665,217.51301247916663,63.0,74.0
929,217.21637081666665,217.52234083333332,71.0,68.0
930,217.66413181666664,217.91972872083332,59.0,70.0
931,217.66413181666664,217.9365197583333,47.0,68.0
932,217.66413181666664,217.9477137833333,66.0,79.0
933,217.66413181666664,217.95517646666664,63.0,70.0
934,217.66413181666664,217.95517646666664,71.0,67.0
935,218.11189281666665,218.37122106249998,59.0,71.0
936,218.11189281666665,218.3730867333333,66.0,100.0
937,218.11189281666665,218.38054941666664,63.0,90.0
938,218.11189281666665,218.38241508749996,71.0,93.0
939,218.11189281666665,218.41599716249996,47.0,79.0
940,219.23129531666663,219.3786833125,59.0,54.0
941,219.00741481666665,219.46823551249997,66.0,81.0
942,219.00741481666665,219.4756981958333,71.0,85.0
943,219.00741481666665,219.48875789166664,63.0,71.0
944,219.90293681666665,220.7350260083333,61.0,77.0
945,219.90293681666665,220.7350260083333,69.0,95.0
946,219.90293681666665,220.73689167916663,64.0,85.0
947,220.79845881666665,221.26860786666663,69.0,90.0
948,220.79845881666665,221.28166756249996,64.0,87.0
949,220.79845881666665,221.30405561249998,61.0,81.0
950,219.90293681666665,221.32830933333332,45.0,90.0
951,221.24621981666664,221.57271221249997,57.0,53.0
952,220.35069781666664,221.64547337499997,52.0,72.0
953,221.69398081666665,222.4725415833333,63.0,73.0
954,221.69398081666665,222.47437981666664,66.0,85.0
955,221.69398081666665,222.47621804999997,71.0,93.0
956,222.58467381666665,223.08283504999997,71.0,100.0
957,222.58467381666665,223.08834974999996,66.0,86.0
958,222.14174181666664,223.09386444999998,54.0,79.0
959,222.58467381666665,223.10857031666663,63.0,77.0
960,223.02584981666664,223.15452614999998,59.0,54.0
961,221.69398081666665,223.22437901666663,47.0,77.0
962,223.46702581666665,224.26298084999996,68.0,90.0
963,223.46702581666665,224.28320141666663,59.0,77.0
964,223.46702581666665,224.28320141666663,63.0,86.0
965,224.34937781666665,224.80709791666663,63.0,86.0
966,224.34937781666665,224.80709791666663,68.0,93.0
967,224.34937781666665,224.81261261666663,59.0,74.0
968,223.46702581666665,224.8273184833333,44.0,75.0
969,223.90820181666663,224.86775961666663,51.0,79.0
970,224.79055381666663,225.18945044999998,56.0,58.0
971,225.67290581666663,225.9578319833333,61.0,72.0
972,225.23172981666664,225.9743760833333,64.0,79.0
973,225.23172981666664,226.01481721666664,68.0,81.0
974,226.11408181666664,226.16555234999998,64.0,62.0
975,226.11408181666664,226.35672861666663,68.0,83.0
976,225.89349381666665,226.5920224833333,52.0,86.0
977,225.23172981666664,226.60489011666664,49.0,79.0
978,226.11408181666664,226.65452241666665,73.0,87.0
979,225.45231781666664,226.70599294999997,56.0,64.0
980,226.33466981666663,226.81261048333332,61.0,64.0
981,226.55525781666663,226.99275734999998,64.0,85.0
982,226.77584581666665,227.02584554999999,68.0,76.0
983,227.43760981666665,228.3346676833333,61.0,71.0
984,227.87878581666664,228.37878528333331,73.0,76.0
985,227.87878581666664,228.4118734833333,69.0,87.0
986,226.99643381666664,228.45415284999996,54.0,95.0
987,228.31996181666665,228.46518224999997,66.0,60.0
988,228.76113781666663,228.7813583833333,45.0,86.0
989,228.76113781666663,229.29606371666665,66.0,74.0
990,228.76113781666663,229.29606371666665,71.0,81.0
991,228.76113781666663,229.30709311666664,63.0,67.0
992,229.42290181666664,229.5589310833333,66.0,40.0
993,229.42290181666664,229.57915164999997,63.0,40.0
994,229.42290181666664,229.58466634999996,71.0,51.0
995,228.76113781666663,230.09753344999996,47.0,85.0
996,229.64348981666663,230.11407754999996,66.0,83.0
997,229.64348981666663,230.11959224999998,63.0,74.0
998,229.64348981666663,230.1214304833333,71.0,93.0
999,229.20231381666665,230.14532751666664,54.0,72.0
1000,230.08466581666664,230.46150364999997,59.0,57.0
1001,230.52584181666663,231.34022004999997,68.0,74.0
1002,230.52584181666663,231.34207189999998,76.0,74.0
1003,230.52584181666663,231.34947929999998,71.0,83.0
1004,231.41059034999998,232.15873774999997,76.0,76.0
1005,231.41059034999998,232.17355254999998,68.0,70.0
1006,231.41059034999998,232.17355254999998,71.0,77.0
1007,232.29947835,232.95503324999999,76.0,77.0
1008,232.29947835,233.07910719999998,74.0,98.0
1009,232.29947835,233.0865146,68.0,81.0
1010,232.29947835,233.08836644999997,71.0,95.0
1011,231.85503434999998,233.44392164999996,64.0,58.0
1012,230.96701781666664,233.48651419999996,59.0,62.0
1013,233.18836634999997,233.56244004999996,71.0,98.0
1014,233.18836634999997,233.56799559999996,74.0,104.0
1015,233.18836634999997,233.58651409999996,68.0,90.0
1016,230.52584181666663,233.59762519999998,52.0,93.0
1017,234.07725434999998,234.79947584999996,69.0,72.0
1018,234.07725434999998,234.81243879999997,61.0,65.0
1019,234.07725434999998,234.81614249999998,64.0,70.0
1020,234.96614234999998,235.45132704999997,69.0,93.0
1021,234.96614234999998,235.46058629999996,64.0,86.0
1022,234.07725434999998,235.46799369999997,45.0,75.0
1023,234.96614234999998,235.48095664999997,61.0,81.0
1024,235.41058634999996,235.76428969999998,57.0,59.0
1025,234.52169834999998,235.79947484999997,52.0,75.0
1026,235.85503034999996,236.68280729999998,63.0,72.0
1027,235.85503034999996,236.68280729999998,71.0,86.0
1028,235.85503034999996,236.68651099999997,66.0,81.0
1029,236.29947434999997,237.16984384999998,52.0,79.0
1030,236.74391834999997,237.20688084999998,66.0,74.0
1031,236.74391834999997,237.21058454999996,63.0,67.0
1032,236.74391834999997,237.21984379999998,71.0,85.0
1033,235.85503034999996,237.23465859999996,45.0,79.0
1034,237.63280634999998,238.44206479999997,68.0,86.0
1035,237.63280634999998,238.44391664999998,63.0,83.0
1036,237.63280634999998,238.44576849999999,59.0,67.0
1037,238.52169434999996,239.00132349999998,63.0,81.0
1038,238.52169434999996,239.00317534999996,68.0,81.0
1039,238.52169434999996,239.01428645,59.0,70.0
1040,237.63280634999998,239.02910124999997,44.0,73.0
1041,238.07725034999999,239.07354564999997,51.0,70.0
1042,238.96613834999997,239.30317504999996,56.0,55.0
1043,239.41058234999997,240.19576674999996,73.0,79.0
1044,239.41058234999997,240.19947044999998,68.0,81.0
1045,239.41058234999997,240.20132229999996,64.0,73.0
1046,240.29947034999998,240.76984024999996,68.0,86.0
1047,240.29947034999998,240.79761799999997,64.0,83.0
1048,240.29947034999998,240.82169204999997,73.0,85.0
1049,239.41058234999997,240.90132159999996,49.0,74.0
1050,240.74391434999998,241.02539554999998,61.0,52.0
1051,239.85502634999997,241.1568769,56.0,63.0
1052,241.18835835,242.00132049999996,57.0,63.0
1053,241.18835835,242.00132049999996,66.0,76.0
1054,241.18835835,242.02354269999998,61.0,67.0
1055,242.07724634999997,242.50687554999996,66.0,74.0
1056,242.07724634999997,242.51798664999998,57.0,69.0
1057,242.07724634999997,242.51798664999998,61.0,73.0
1058,241.63280234999996,242.54576439999997,49.0,61.0
1059,241.18835835,242.55131994999996,42.0,59.0
1060,242.52169034999997,242.80317154999997,54.0,58.0
1061,242.96613434999998,243.80317054999998,71.0,75.0
1062,242.96613434999998,243.81428164999997,63.0,66.0
1063,242.96613434999998,243.81613349999998,66.0,70.0
1064,242.96613434999998,244.37168849999998,47.0,68.0
1065,243.85502234999998,244.37168849999998,63.0,67.0
1066,243.85502234999998,244.37354034999998,66.0,74.0
1067,243.85502234999998,244.38279959999997,71.0,76.0
1068,243.41057834999998,244.40687364999997,54.0,70.0
1069,244.29946634999996,244.72395476666662,59.0,52.0
1070,244.74634281666664,245.5000738333333,68.0,85.0
1071,244.74634281666664,245.5056708458333,64.0,85.0
1072,244.74634281666664,245.5112678583333,73.0,77.0
1073,244.74634281666664,245.9982079458333,49.0,76.0
1074,245.64186481666664,246.05604374166663,73.0,85.0
1075,245.64186481666664,246.07470044999997,64.0,76.0
1076,245.19410381666663,246.15305862499997,56.0,60.0
1077,246.53738681666664,247.3135058833333,63.0,83.0
1078,246.53738681666664,247.31537155416663,66.0,98.0
1079,246.53738681666664,247.32283423749996,71.0,93.0
1080,246.53738681666664,247.81723700833328,47.0,83.0
1081,246.98514781666663,247.84335639999995,54.0,73.0
1082,247.88066981666663,248.12414669999995,59.0,54.0
1083,247.43477448749996,248.20933179999997,63.0,83.0
1084,247.43477448749996,248.21118364999995,66.0,98.0
1085,247.43477448749996,248.21859104999996,71.0,93.0
1086,248.32599834999996,249.04821984999995,69.0,72.0
1087,248.32599834999996,249.06118279999995,61.0,65.0
1088,248.32599834999996,249.06488649999997,64.0,70.0
1089,249.21488634999997,249.70007104999996,69.0,93.0
1090,249.21488634999997,249.70933029999995,64.0,86.0
1091,248.32599834999996,249.71673769999995,45.0,75.0
1092,249.21488634999997,249.72970064999996,61.0,81.0
1093,249.65933034999995,250.01303369999997,57.0,59.0
1094,248.77044234999997,250.04821884999996,52.0,75.0
1095,250.10377434999995,250.93155129999997,63.0,72.0
1096,250.10377434999995,250.93155129999997,71.0,86.0
1097,250.10377434999995,250.93525499999996,66.0,81.0
1098,250.54821834999996,251.41858784999997,52.0,79.0
1099,250.99266234999996,251.45562484999996,66.0,74.0
1100,250.99266234999996,251.45932854999995,63.0,67.0
1101,250.99266234999996,251.46858779999997,71.0,85.0
1102,250.10377434999995,251.48340259999995,45.0,79.0
1103,251.88155034999997,252.69080879999996,68.0,86.0
1104,251.88155034999997,252.69266064999997,63.0,83.0
1105,251.88155034999997,252.69451249999995,59.0,67.0
1106,252.77043834999995,253.25006749999997,63.0,81.0
1107,252.77043834999995,253.25191934999995,68.0,81.0
1108,252.77043834999995,253.26303044999995,59.0,70.0
1109,251.88155034999997,253.27784524999996,44.0,73.0
1110,252.32599434999995,253.32228964999996,51.0,70.0
1111,253.21488234999995,253.55191904999995,56.0,55.0
1112,253.65932634999996,254.44451074999995,73.0,79.0
1113,253.65932634999996,254.44821444999997,68.0,81.0
1114,253.65932634999996,254.45006629999995,64.0,73.0
1115,254.54821434999997,255.01858424999995,68.0,86.0
1116,254.54821434999997,255.04636199999996,64.0,83.0
1117,254.54821434999997,255.07043604999996,73.0,85.0
1118,253.65932634999996,255.15006559999995,49.0,74.0
1119,254.99265834999997,255.27413954999997,61.0,52.0
1120,254.10377034999996,255.40562089999995,56.0,63.0
1121,255.43710234999995,256.25006449999995,57.0,63.0
1122,255.43710234999995,256.25006449999995,66.0,76.0
1123,255.43710234999995,256.27228669999994,61.0,67.0
1124,256.32599035,256.75561954999995,66.0,74.0
1125,256.32599035,256.76673064999994,57.0,69.0
1126,256.32599035,256.76673064999994,61.0,73.0
1127,255.88154634999995,256.7945084,49.0,61.0
1128,255.43710234999995,256.80006395,42.0,59.0
1129,256.77043434999996,257.05191554999993,54.0,58.0
1130,257.21487834999994,258.05191454999994,71.0,75.0
1131,257.21487834999994,258.06302565,63.0,66.0
1132,257.21487834999994,258.06487749999997,66.0,70.0
1133,257.21487834999994,258.62043249999994,47.0,68.0
1134,258.10376634999994,258.62043249999994,63.0,67.0
1135,258.10376634999994,258.62228435,66.0,74.0
1136,258.10376634999994,258.6315436,71.0,76.0
1137,257.65932234999997,258.65561764999995,54.0,70.0
1138,258.54821035,258.9726987666666,59.0,52.0
1139,259.01934053749994,261.9223243541666,66.0,85.0
1140,259.01934053749994,261.9297870374999,63.0,85.0
1141,259.01934053749994,261.9353840499999,71.0,77.0
1142,259.01934053749994,262.42232413749997,47.0,76.0
1143,258.9950868166666,262.5771748166666,54.0,60.0
1144,262.5771748166666,263.3812789458333,56.0,73.0
1145,262.5771748166666,263.3812789458333,63.0,86.0
1146,263.4726968166666,264.2488158833333,56.0,67.0
1147,263.4726968166666,264.2488158833333,63.0,79.0
1148,263.9204578166666,264.6032933416666,52.0,51.0
1149,264.3682188166666,265.10329312499994,56.0,65.0
1150,264.3682188166666,265.11448714999995,63.0,85.0
1151,265.2637408166666,265.98202408749995,56.0,81.0
1152,265.2637408166666,266.03612854166664,63.0,86.0
1153,264.81597981666664,266.0902329958333,52.0,51.0
1154,263.02493581666664,266.09769567916663,47.0,56.0
1155,262.5771748166666,266.17605385416664,40.0,77.0
1156,266.1592628166666,266.9708296291666,64.0,73.0
1157,266.1592628166666,266.9764266416666,57.0,72.0
1158,267.0547848166666,267.8663516291666,64.0,75.0
1159,267.0547848166666,267.8738143125,57.0,63.0
1160,267.9503068166666,268.70217216249995,57.0,74.0
1161,267.9503068166666,268.7059035041666,64.0,70.0
1162,268.8458288166666,269.39993305416664,57.0,85.0
1163,267.9503068166666,269.58090312499996,52.0,60.0
1164,268.8458288166666,269.6275448958333,64.0,81.0
1165,266.1592628166666,269.69844038749994,45.0,65.0
1166,269.7413508166666,270.5577462333333,63.0,85.0
1167,269.7413508166666,270.5687756333333,56.0,83.0
1168,270.63127556666666,271.34818656666664,63.0,85.0
1169,270.63127556666666,271.35002479999997,56.0,72.0
1170,270.63127556666666,271.7489214333333,52.0,58.0
1171,271.5136275666666,272.29855319999996,63.0,85.0
1172,271.5136275666666,272.3022296666666,56.0,73.0
1173,272.39597956666665,273.0503906333333,56.0,71.0
1174,272.39597956666665,273.09266999999994,63.0,81.0
1175,271.9548035666666,273.19009636666664,52.0,52.0
1176,270.18911181666664,273.2323757333333,47.0,59.0
1177,269.7413508166666,273.34634619999997,40.0,93.0
1178,273.2783315666666,274.12759536666664,57.0,77.0
1179,273.2783315666666,274.14597769999995,64.0,7.0
1180,274.16068356666665,274.9070063,64.0,74.0
1181,274.16068356666665,274.91068276666664,57.0,65.0
1182,275.0430355666666,276.74156316666665,57.0,67.0
1183,275.0430355666666,276.7507543333333,64.0,73.0
1184,273.2783315666666,276.81325426666666,45.0,67.0
1185,276.8077395666666,277.55499525416667,56.0,72.0
1186,276.8077395666666,277.56805495,63.0,81.0
1187,277.24891556666665,283.41506734166666,47.0,60.0
1188,278.36656206666663,283.8385746208333,59.0,56.0
1189,278.59044256666664,283.8385746208333,68.0,62.0
1190,276.8077395666666,283.96357456666664,40.0,87.0
1191,278.59044256666664,283.9952909708333,64.0,45.0
