,start,end,pitch,velocity
0,18.534275429166666,18.68548511666667,63.0,103.0
1,18.776210929166666,18.99193675,66.0,103.0
2,19.018146429166666,19.169356116666666,71.0,103.0
3,19.260081929166667,19.419356133333334,70.0,103.0
4,19.502017429166667,19.836694870833334,68.0,103.0
5,20.227823929166668,20.407259425,66.0,103.0
6,20.46975942916667,20.743952995833336,68.0,103.0
7,20.71169492916667,20.963711075000003,66.0,103.0
8,20.95363042916667,21.11693689166667,63.0,104.0
9,21.19556592916667,21.31451755,61.0,104.0
10,21.43750142916667,21.911291783333333,63.0,104.0
11,22.405243429166667,22.661291833333333,63.0,104.0
12,22.647178929166667,22.76814667916667,66.0,104.0
13,22.889114429166668,23.0383079875,71.0,104.0
14,23.131049929166668,23.268146712500002,70.0,104.0
15,23.37298542916667,23.891130625000002,68.0,104.0
16,24.09879192916667,24.264114520833335,66.0,104.0
17,24.34072742916667,24.52822744166667,68.0,104.0
18,24.582662929166666,24.697582291666667,70.0,104.0
19,24.824598429166667,24.9133081125,71.0,104.0
20,25.066533929166667,25.1673403875,73.0,104.0
21,25.308469429166667,25.879033983333336,75.0,104.0
22,26.27621142916667,26.427421116666668,75.0,104.0
23,26.51814692916667,26.629034033333333,73.0,104.0
24,26.76008242916667,26.925405020833335,73.0,104.0
25,27.00201792916667,27.112905033333334,71.0,104.0
26,27.24395342916667,27.745969591666668,73.0,104.0
27,27.969759929166667,28.243953495833335,75.0,104.0
28,28.211695429166667,28.487905125,73.0,104.0
29,28.453630929166668,28.582663195833334,71.0,104.0
30,28.695566429166668,28.8447599875,68.0,104.0
31,28.937501929166668,29.046372904166667,68.0,104.0
32,29.17943742916667,29.7399213375,66.0,104.0
33,30.14717942916667,30.37096976666667,66.0,104.0
34,30.389114929166666,30.58871171666667,63.0,104.0
35,30.631050429166667,30.762098825000002,66.0,104.0
36,30.872985929166667,30.983873033333335,68.0,104.0
37,31.114921429166667,31.568550491666667,70.0,104.0
38,31.84072792916667,32.02217955416667,71.0,103.0
39,32.082663429166665,32.290324733333335,70.0,103.0
40,32.32459892916667,32.59677636666667,66.0,103.0
41,32.566534429166666,32.83266347916667,63.0,102.0
42,32.80846992916667,32.97984090833334,66.0,102.0
43,33.050405429166666,33.53427642916667,68.0,102.0
44,34.01814742916667,34.16935711666667,63.0,101.0
45,34.26008292916667,34.47580875,66.0,101.0
46,34.50201842916667,34.65322811666667,71.0,101.0
47,34.743953929166665,34.903228133333336,70.0,101.0
48,34.98588942916667,35.32056687083333,68.0,101.0
49,35.711695929166666,35.891131425000005,66.0,101.0
50,35.95363142916667,36.22782499583334,68.0,101.0
51,36.19556692916667,36.447583075000004,66.0,101.0
52,36.43750242916667,36.60080889166667,63.0,101.0
53,36.67943792916667,36.79838955,61.0,101.0
54,36.92137342916667,37.39516378333334,63.0,101.0
55,37.889115429166665,38.145163833333335,63.0,100.0
56,38.13105092916667,38.25201867916667,66.0,100.0
57,38.372986429166666,38.5221799875,71.0,100.0
58,38.61492192916667,38.7520187125,70.0,99.0
59,38.856857429166666,39.375002625,68.0,99.0
60,39.58266392916667,39.74798652083334,66.0,99.0
61,39.82459942916667,40.01209944166667,68.0,99.0
62,40.06653492916667,40.18145429166667,70.0,99.0
63,40.30847042916667,40.3971801125,71.0,99.0
64,40.55040592916667,40.6512123875,73.0,99.0
65,40.79234142916667,41.362905983333334,75.0,99.0
66,41.76008342916667,41.91129311666667,75.0,99.0
67,42.00201892916667,42.11290603333334,73.0,99.0
68,42.24395442916667,42.409277020833336,73.0,99.0
69,42.48588992916667,42.59677703333333,71.0,98.0
70,42.72782542916667,43.22984159166667,73.0,98.0
71,43.45363192916667,43.727825495833336,75.0,97.0
72,43.695567429166665,43.971777125,73.0,97.0
73,43.93750292916667,44.06653519583334,71.0,97.0
74,44.179438429166666,44.3286319875,68.0,97.0
75,44.42137392916667,44.53024490416667,68.0,96.0
76,44.66330942916667,45.223793337500005,66.0,96.0
77,45.63105142916667,45.85484176666667,66.0,96.0
78,45.87298692916667,46.07258371666667,63.0,96.0
79,46.11492242916667,46.245970825,66.0,96.0
80,46.35685792916667,46.46774503333334,68.0,96.0
81,46.59879342916667,47.05242249166667,70.0,96.0
82,47.324599929166666,47.50605155416667,71.0,95.0
83,47.56653542916667,47.77419673333333,70.0,95.0
84,47.80847092916667,48.08064836666667,66.0,95.0
85,48.05040642916667,48.31653547916667,63.0,95.0
86,48.29234192916667,48.463712908333335,66.0,95.0
87,48.53427742916667,50.46976142916667,68.0,95.0
88,52.40524542916667,52.67137447916667,73.0,94.0
89,52.647180929166666,52.83468094166667,71.0,94.0
90,52.88911642916667,53.159277737500005,73.0,94.0
91,53.13105192916667,53.28831000416667,71.0,94.0
92,53.37298742916667,53.65322938333333,73.0,94.0
93,53.85685842916667,54.018148762500005,71.0,94.0
94,54.09879392916667,54.28226168333334,73.0,94.0
95,54.58266492916667,54.78427784583334,71.0,94.0
96,54.82460042916667,55.058471412500005,73.0,94.0
97,55.06653592916667,55.245971425,71.0,94.0
98,55.30847142916667,55.584681125,73.0,94.0
99,55.792342429166666,55.97581018333334,71.0,94.0
100,56.03427792916667,56.147181162500004,73.0,94.0
101,56.27621342916667,56.606858612500005,75.0,94.0
102,56.76008442916667,56.883068308333335,78.0,94.0
103,57.00201992916667,57.50000383333334,80.0,94.0
104,57.72782642916667,57.83669740416667,78.0,94.0
105,57.96976192916667,59.493955579166666,75.0,94.0
106,60.14718142916667,60.403229833333334,73.0,94.0
107,60.38911692916667,60.532262100000004,71.0,94.0
108,60.63105242916667,60.917342770833336,73.0,94.0
109,60.87298792916667,61.02621374583334,71.0,94.0
110,61.11492342916667,61.41734280416667,73.0,94.0
111,61.59879442916667,61.72581056666667,71.0,94.0
112,61.84072992916667,62.116939625,73.0,94.0
113,62.32460092916667,62.510084812500004,71.0,94.0
114,62.56653642916667,62.73589127916667,73.0,94.0
115,62.80847192916667,62.95968161666667,71.0,94.0
116,63.05040742916667,63.30443970416667,73.0,94.0
117,63.53427842916667,63.66935908333333,71.0,94.0
118,63.77621392916667,63.875004258333334,73.0,94.0
119,64.01814942916667,64.26008492916667,75.0,94.0
120,64.50202042916666,64.6149236625,78.0,94.0
121,64.74395592916667,65.34476242083333,73.0,94.0
122,65.46976242916666,65.89718181250001,78.0,94.0
123,65.95363342916667,66.95161736666667,75.0,94.0
124,67.88911742916667,68.15524647916666,76.0,94.0
125,68.13105292916667,68.31452068333334,75.0,94.0
126,68.37298842916667,68.63508522083333,76.0,94.0
127,68.61492392916666,68.74798845416667,75.0,94.0
128,68.85685942916668,69.19153687083333,76.0,94.0
129,69.34073042916667,69.471778825,78.0,94.0
130,69.58266592916667,69.97581111666668,75.0,95.0
131,70.06653692916667,70.56250470416667,73.0,96.0
132,71.03427892916667,71.24597249166666,71.0,96.0
133,71.27621442916667,71.45968218333334,73.0,96.0
134,71.51814992916667,71.62298864583333,75.0,96.0
135,71.76008542916666,72.11694029166667,80.0,101.0
136,72.24395642916667,72.4536338625,78.0,101.0
137,72.72782742916667,73.09677906666667,75.0,101.0
138,73.21169842916667,73.33468230833334,78.0,101.0
139,73.45363392916667,73.802424275,73.0,101.0
140,73.93750492916666,75.15524694583334,71.0,101.0
141,76.11492442916666,76.22379540416667,71.0,101.0
142,76.35685992916667,76.46774703333334,71.0,101.0
143,76.59879542916667,76.96169867916667,71.0,101.0
144,77.32460192916668,77.4496019375,71.0,101.0
145,77.56653742916667,77.96976326250001,75.0,101.0
146,78.05040842916667,78.37500522500001,70.0,100.0
147,78.53427942916667,78.85686009583334,70.0,100.0
148,79.01815042916667,79.13306979166667,73.0,100.0
149,79.26008592916666,80.01210210833334,73.0,100.0
150,80.22782792916666,81.53427962916668,71.0,99.0
151,82.40524742916666,82.55645711666666,63.0,99.0
152,82.64718292916668,82.86290875,66.0,99.0
153,82.88911842916667,83.04032811666667,71.0,99.0
154,83.13105392916667,83.29032813333333,70.0,99.0
155,83.37298942916667,83.70766687083334,68.0,99.0
156,84.09879592916667,84.278231425,66.0,99.0
157,84.34073142916667,84.61492499583333,68.0,99.0
158,84.58266692916668,84.834683075,66.0,99.0
159,84.82460242916667,84.98790889166668,63.0,99.0
160,85.06653792916667,85.18548955,61.0,99.0
161,85.30847342916667,85.78226378333333,63.0,99.0
162,86.27621542916667,86.53226383333333,63.0,99.0
163,86.51815092916667,86.63911867916667,66.0,99.0
164,86.76008642916668,86.9092799875,71.0,99.0
165,87.00202192916667,87.13911871250001,70.0,98.0
166,87.24395742916667,87.762102625,68.0,97.0
167,87.96976392916667,88.13508652083334,66.0,97.0
168,88.21169942916667,88.39919944166667,68.0,97.0
169,88.45363492916667,88.56855429166667,70.0,97.0
170,88.69557042916666,88.7842801125,71.0,97.0
171,88.93750592916668,89.0383123875,73.0,97.0
172,89.17944142916667,89.75000598333334,75.0,97.0
173,90.14718342916667,90.29839311666667,75.0,97.0
174,90.38911892916667,90.50000603333334,73.0,97.0
175,90.63105442916667,90.79637702083333,73.0,97.0
176,90.87298992916666,90.98387703333334,71.0,97.0
177,91.11492542916668,91.61694159166667,73.0,97.0
178,91.84073192916667,92.11492549583333,75.0,97.0
179,92.08266742916668,92.358877125,73.0,97.0
180,92.32460292916667,92.45363519583334,71.0,97.0
181,92.56653842916667,92.7157319875,68.0,97.0
182,92.80847392916667,92.91734490416667,68.0,97.0
183,93.05040942916668,93.6108933375,66.0,97.0
184,94.01815142916666,94.24194176666667,66.0,96.0
185,94.26008692916668,94.45968371666667,63.0,96.0
186,94.50202242916667,94.633070825,66.0,96.0
187,94.74395792916667,94.85484503333333,68.0,96.0
188,94.98589342916667,95.43952249166666,70.0,96.0
189,95.71169992916667,95.89315155416668,71.0,96.0
190,95.95363542916667,96.16129673333334,70.0,96.0
191,96.19557092916668,96.46774836666667,66.0,95.0
192,96.43750642916667,96.70363547916668,63.0,95.0
193,96.67944192916667,96.85081290833334,66.0,95.0
194,96.92137742916667,99.01815176250001,68.0,95.0
195,115.30847542916668,115.45968511666668,63.0,96.0
196,115.55041092916667,115.76613675,66.0,96.0
197,115.79234642916667,115.94355611666667,71.0,96.0
198,116.03428192916667,116.19355613333335,70.0,96.0
199,116.27621742916668,116.61089487083333,68.0,96.0
200,117.00202392916667,117.181459425,66.0,96.0
201,117.24395942916668,117.51815299583333,68.0,96.0
202,117.48589492916668,117.737911075,66.0,96.0
203,117.72783042916667,117.89113689166668,63.0,96.0
204,117.96976592916667,118.08871755000001,61.0,96.0
205,118.21170142916667,118.68549178333333,63.0,96.0
206,119.17944342916667,119.43549183333334,63.0,96.0
207,119.42137892916668,119.54234667916667,66.0,96.0
208,119.66331442916668,119.81250798750001,71.0,96.0
209,119.90524992916667,120.0423467125,70.0,96.0
210,120.14718542916667,120.66533062500001,68.0,96.0
211,120.87299192916667,121.03831452083334,66.0,96.0
212,121.11492742916667,121.30242744166667,68.0,96.0
213,121.35686292916667,121.47178229166667,70.0,96.0
214,121.59879842916668,121.68750811250001,71.0,96.0
215,121.84073392916667,121.94154038750001,73.0,96.0
216,122.08266942916667,122.65323398333334,75.0,96.0
217,123.05041142916667,123.20162111666667,75.0,96.0
218,123.29234692916667,123.40323403333333,73.0,96.0
219,123.53428242916667,123.69960502083335,73.0,96.0
220,123.77621792916668,123.88710503333334,71.0,96.0
221,124.01815342916667,124.52016959166667,73.0,96.0
222,124.74395992916668,125.01815349583335,75.0,96.0
223,124.98589542916667,125.262105125,73.0,96.0
224,125.22783092916667,125.35686319583334,71.0,96.0
225,125.46976642916667,125.6189599875,68.0,96.0
226,125.71170192916668,125.82057290416667,68.0,96.0
227,125.95363742916668,126.5141213375,66.0,96.0
228,126.92137942916668,127.14516976666667,66.0,95.0
229,127.16331492916667,127.36291171666667,63.0,95.0
230,127.40525042916667,127.536298825,66.0,95.0
231,127.64718592916667,127.75807303333335,68.0,95.0
232,127.88912142916668,128.34275049166666,70.0,95.0
233,128.61492792916667,128.79637955416666,71.0,95.0
234,128.85686342916668,129.06452473333334,70.0,94.0
235,129.09879892916666,129.37097636666667,66.0,95.0
236,129.34073442916667,129.60686347916666,63.0,95.0
237,129.58266992916668,129.75404090833334,66.0,95.0
238,129.82460542916667,130.30847642916666,68.0,94.0
239,130.79234742916668,130.94355711666668,63.0,95.0
240,131.03428292916666,131.25000875,66.0,94.0
241,131.27621842916668,131.42742811666668,71.0,94.0
242,131.5181539291667,131.67742813333334,70.0,94.0
243,131.76008942916667,132.09476687083335,68.0,94.0
244,132.48589592916667,132.665331425,66.0,94.0
245,132.72783142916668,133.00202499583335,68.0,94.0
246,132.96976692916667,133.22178307500002,66.0,93.0
247,133.21170242916668,133.37500889166668,63.0,93.0
248,133.45363792916666,133.57258955,61.0,93.0
249,133.69557342916667,134.16936378333335,63.0,93.0
250,134.6633154291667,134.91936383333334,63.0,93.0
251,134.90525092916667,135.02621867916667,66.0,93.0
252,135.14718642916668,135.29637998750002,71.0,93.0
253,135.38912192916666,135.5262187125,70.0,93.0
254,135.63105742916667,136.14920262500002,68.0,93.0
255,136.35686392916668,136.52218652083334,66.0,93.0
256,136.59879942916666,136.78629944166667,68.0,92.0
257,136.84073492916667,136.95565429166666,70.0,91.0
258,137.08267042916668,137.1713801125,71.0,91.0
259,137.32460592916667,137.42541238750002,73.0,91.0
260,137.56654142916668,138.13710598333333,75.0,91.0
261,138.53428342916666,138.68549311666666,75.0,91.0
262,138.77621892916667,138.88710603333334,73.0,91.0
263,139.01815442916669,139.18347702083335,73.0,91.0
264,139.26008992916667,139.37097703333333,71.0,91.0
265,139.50202542916668,140.00404159166666,73.0,91.0
266,140.22783192916668,140.50202549583335,75.0,91.0
267,140.46976742916667,140.745977125,73.0,91.0
268,140.71170292916668,140.84073519583333,71.0,91.0
269,140.95363842916666,141.1028319875,68.0,91.0
270,141.19557392916667,141.30444490416667,68.0,91.0
271,141.43750942916668,141.99799333750002,66.0,91.0
272,142.40525142916667,142.62904176666666,66.0,91.0
273,142.64718692916668,142.84678371666666,63.0,91.0
274,142.88912242916666,143.020170825,66.0,91.0
275,143.13105792916667,143.24194503333334,68.0,91.0
276,143.37299342916668,143.82662249166668,70.0,91.0
277,144.09879992916666,144.28025155416668,71.0,91.0
278,144.34073542916667,144.54839673333333,70.0,91.0
279,144.58267092916668,144.8548483666667,66.0,91.0
280,144.82460642916666,145.09073547916668,63.0,91.0
281,145.06654192916668,145.23791290833333,66.0,92.0
282,145.3084774291667,147.24396142916666,68.0,92.0
283,149.17944542916666,149.44557447916668,73.0,92.0
284,149.42138092916667,149.60888094166668,71.0,92.0
285,149.66331642916668,149.9334777375,73.0,92.0
286,149.90525192916667,150.06251000416668,71.0,92.0
287,150.14718742916668,150.42742938333333,73.0,92.0
288,150.63105842916667,150.7923487625,71.0,92.0
289,150.87299392916668,151.05646168333334,73.0,92.0
290,151.35686492916668,151.55847784583335,71.0,92.0
291,151.5988004291667,151.83267141250002,73.0,92.0
292,151.84073592916667,152.020171425,71.0,92.0
293,152.08267142916668,152.358881125,73.0,92.0
294,152.56654242916667,152.75001018333333,71.0,92.0
295,152.80847792916668,152.9213811625,73.0,92.0
296,153.05041342916667,153.3810586125,75.0,92.0
297,153.53428442916666,153.65726830833333,78.0,92.0
298,153.77621992916667,154.27420383333333,80.0,92.0
299,154.50202642916668,154.61089740416668,78.0,93.0
300,154.7439619291667,156.2681555791667,75.0,93.0
301,156.92138142916667,157.17742983333335,73.0,93.0
302,157.16331692916668,157.3064621,71.0,93.0
303,157.40525242916667,157.69154277083334,73.0,93.0
304,157.64718792916668,157.80041374583334,71.0,93.0
305,157.8891234291667,158.1915428041667,73.0,93.0
306,158.37299442916668,158.50001056666667,71.0,93.0
307,158.61492992916666,158.891139625,73.0,93.0
308,159.09880092916669,159.2842848125,71.0,93.0
309,159.34073642916667,159.5100912791667,73.0,93.0
310,159.58267192916668,159.73388161666668,71.0,93.0
311,159.82460742916666,160.07863970416668,73.0,93.0
312,160.30847842916668,160.44355908333335,71.0,93.0
313,160.55041392916667,160.64920425833333,73.0,93.0
314,160.79234942916668,161.0342849291667,75.0,93.0
315,161.27622042916667,161.3891236625,78.0,93.0
316,161.51815592916668,162.11896242083333,73.0,93.0
317,162.2439624291667,162.67138181250002,78.0,93.0
318,162.72783342916668,163.72581736666666,75.0,93.0
319,164.66331742916668,164.92944647916667,76.0,93.0
320,164.90525292916666,165.08872068333335,75.0,93.0
321,165.14718842916668,165.40928522083334,76.0,93.0
322,165.3891239291667,165.52218845416667,75.0,93.0
323,165.63105942916667,165.96573687083335,76.0,93.0
324,166.11493042916666,166.245978825,78.0,93.0
325,166.35686592916667,166.75001111666668,75.0,93.0
326,166.84073692916667,167.33670470416666,73.0,93.0
327,167.80847892916668,168.02017249166667,71.0,93.0
328,168.05041442916666,168.23388218333335,73.0,92.0
329,168.29234992916668,168.39718864583335,75.0,93.0
330,168.5342854291667,168.8911402916667,80.0,92.0
331,169.01815642916668,169.2278338625,78.0,93.0
332,169.50202742916667,169.87097906666668,75.0,92.0
333,169.98589842916667,170.10888230833334,78.0,92.0
334,170.22783392916668,170.576624275,73.0,92.0
335,170.71170492916667,171.92944694583335,71.0,92.0
336,172.88912442916669,172.9979954041667,71.0,92.0
337,173.13105992916667,173.24194703333333,71.0,92.0
338,173.37299542916668,173.73589867916667,71.0,92.0
339,174.09880192916668,174.2238019375,71.0,92.0
340,174.34073742916667,174.74396326250002,75.0,92.0
341,174.8246084291667,175.149205225,70.0,92.0
342,175.30847942916668,175.63106009583333,70.0,92.0
343,175.79235042916667,175.90726979166666,73.0,92.0
344,176.03428592916669,176.78630210833333,73.0,92.0
345,177.00202792916667,178.30847962916667,71.0,92.0
346,180.14718942916667,180.4052539625,73.0,92.0
347,180.38912492916668,180.544366875,71.0,92.0
348,180.63106042916667,180.86089915416667,73.0,92.0
349,180.87299592916668,181.05444755416667,71.0,92.0
350,181.1149314291667,181.53025403750001,73.0,92.0
351,181.59880242916668,181.7238024375,71.0,92.0
352,181.84073792916666,182.09275407500002,73.0,92.0
353,182.3246089291667,182.45364119583334,71.0,92.0
354,182.56654442916667,182.69557669583335,73.0,92.0
355,182.80847992916668,182.94759284166668,71.0,92.0
356,183.05041542916666,183.3205767375,73.0,92.0
357,183.53428642916668,183.67541547083334,71.0,92.0
358,183.77622192916667,183.88509290416667,73.0,92.0
359,184.01815742916668,184.34477035416668,75.0,92.0
360,184.50202842916667,184.7358994125,78.0,92.0
361,184.98589942916666,185.3185607416667,80.0,92.0
362,185.4697704291667,185.71573818750002,78.0,93.0
363,185.95364142916668,186.2842866125,75.0,94.0
364,187.88912542916668,188.15525447916667,73.0,94.0
365,188.13106092916667,188.32057707083334,71.0,94.0
366,188.37299642916668,188.64517386666668,73.0,94.0
367,188.6149319291667,188.79436742500002,71.0,94.0
368,188.85686742916667,189.16735132083335,73.0,94.0
369,189.34073842916666,189.4899319875,71.0,94.0
370,189.58267392916667,189.71573845416668,73.0,94.0
371,190.06654492916667,190.18952880833334,71.0,94.0
372,190.30848042916668,190.4334804375,73.0,94.0
373,190.5504159291667,190.66533529166668,71.0,94.0
374,190.79235142916667,190.97985144166668,73.0,94.0
375,191.27622242916667,191.5100934125,71.0,94.0
376,191.51815792916668,191.68751277916667,73.0,94.0
377,191.7600934291667,191.99598054166668,75.0,94.0
378,192.24396442916668,192.3649321791667,78.0,94.0
379,192.48589992916666,193.05646448333334,73.0,94.0
380,193.21170642916667,193.36694837500002,78.0,94.0
381,193.6955774291667,194.2681581125,75.0,95.0
382,195.63106142916666,195.90323886666667,76.0,95.0
383,195.87299692916667,196.0826743625,75.0,95.0
384,196.11493242916669,196.3850937375,76.0,95.0
385,196.35686792916667,196.53428729583334,75.0,95.0
386,196.59880342916668,196.95565829166668,76.0,95.0
387,197.08267442916667,197.21372282500002,78.0,95.0
388,197.32460992916668,197.8004164125,75.0,95.0
389,197.80848092916668,198.72581970000002,73.0,95.0
390,198.77622292916666,198.99396487916667,71.0,95.0
391,199.01815842916668,199.27823909166668,73.0,95.0
392,199.2600939291667,199.3689649041667,75.0,95.0
393,199.50202942916667,199.8770294541667,80.0,95.0
394,199.98590042916666,200.35888432500002,78.0,96.0
395,200.46977142916668,200.85081984166666,75.0,97.0
396,200.95364242916668,201.13106179583335,78.0,97.0
397,201.1955779291667,201.4536424625,73.0,97.0
398,201.67944892916668,202.34073929583334,71.0,97.0
399,203.85686842916667,203.9516265,71.0,98.0
400,204.09880392916668,204.19759425833334,71.0,98.0
401,204.3407394291667,204.80041687916668,71.0,98.0
402,205.06654592916667,205.18146529166668,71.0,98.0
403,205.30848142916668,205.58670725416667,75.0,98.0
404,205.79235242916667,206.10082019166668,70.0,98.0
405,206.27622342916666,206.63509442083335,70.0,98.0
406,206.8729976625,206.90122347083334,73.0,98.0
407,207.24396542916668,207.78428804583334,73.0,98.0
408,207.96977192916668,209.75203011250002,71.0,98.0
409,210.14719142916667,210.29840111666667,63.0,98.0
410,210.38912692916668,210.60485275000002,66.0,98.0
411,210.6310624291667,210.7822721166667,71.0,98.0
412,210.87299792916667,211.03227213333335,70.0,98.0
413,211.11493342916668,211.44961087083334,68.0,98.0
414,211.8407399291667,212.02017542500002,66.0,98.0
415,212.08267542916667,212.35686899583334,68.0,98.0
416,212.32461092916668,212.576627075,66.0,98.0
417,212.56654642916666,212.72985289166667,63.0,98.0
418,212.80848192916667,212.92743355000002,61.0,98.0
419,213.05041742916669,213.52420778333334,63.0,98.0
420,214.01815942916667,214.27420783333335,63.0,98.0
421,214.26009492916668,214.3810626791667,66.0,98.0
422,214.50203042916667,214.6512239875,71.0,98.0
423,214.74396592916668,214.8810627125,70.0,98.0
424,214.9859014291667,215.504046625,68.0,98.0
425,215.71170792916666,215.87703052083333,66.0,98.0
426,215.95364342916668,216.14114344166669,68.0,98.0
427,216.1955789291667,216.31049829166668,70.0,98.0
428,216.43751442916667,216.52622411250002,71.0,98.0
429,216.67944992916668,216.7802563875,73.0,98.0
430,216.9213854291667,217.49194998333334,75.0,98.0
431,217.88912742916668,218.04033711666668,75.0,98.0
432,218.1310629291667,218.24195003333335,73.0,98.0
433,218.37299842916667,218.53832102083334,73.0,98.0
434,218.61493392916668,218.72582103333335,71.0,98.0
435,218.85686942916666,219.35888559166668,73.0,98.0
436,219.58267592916667,219.85686949583334,75.0,98.0
437,219.82461142916668,220.100821125,73.0,98.0
438,220.0665469291667,220.19557919583335,71.0,98.0
439,220.30848242916667,220.4576759875,68.0,98.0
440,220.55041792916668,220.6592889041667,68.0,98.0
441,220.79235342916667,221.3528373375,66.0,98.0
442,221.76009542916668,221.98388576666667,66.0,98.0
443,222.00203092916666,222.20162771666668,63.0,98.0
444,222.24396642916668,222.37501482500002,66.0,98.0
445,222.4859019291667,222.59678903333335,68.0,98.0
446,222.72783742916667,223.18146649166667,70.0,98.0
447,223.45364392916667,223.63509555416667,71.0,98.0
448,223.69557942916668,223.90324073333335,70.0,97.0
449,223.93751492916667,224.20969236666667,66.0,96.0
450,224.17945042916668,224.44557947916667,63.0,96.0
451,224.4213859291667,224.59275690833334,66.0,96.0
452,224.66332142916667,226.59880542916667,68.0,96.0
