,start,end,pitch,velocity
0,4.018145429166667,4.870968066666667,59.0,84.0
1,4.018145429166667,4.883064841666667,63.0,84.0
2,4.018145429166667,4.911290650000001,68.0,84.0
3,4.502016429166667,5.4616939125,51.0,84.0
4,4.985887429166667,5.463710041666667,68.0,84.0
5,4.985887429166667,5.465726170833333,63.0,84.0
6,4.985887429166667,5.4737906875,59.0,84.0
7,4.018145429166667,5.524193916666667,44.0,84.0
8,5.953629429166667,6.810484325,58.0,84.0
9,5.953629429166667,6.818548841666667,66.0,84.0
10,5.953629429166667,6.822581100000001,61.0,84.0
11,6.437500429166667,7.3064521000000004,49.0,84.0
12,6.921371429166667,7.389113395833333,66.0,84.0
13,6.921371429166667,7.407258558333334,61.0,84.0
14,6.921371429166667,7.419355333333334,58.0,84.0
15,5.953629429166667,7.421371462500001,42.0,84.0
16,7.889113429166667,8.4495973375,63.0,84.0
17,7.889113429166667,8.536290891666667,47.0,84.0
18,7.889113429166667,8.6310489625,71.0,84.0
19,7.889113429166667,8.780242520833333,66.0,84.0
20,8.856855429166668,9.433468370833333,61.0,84.0
21,8.856855429166668,9.435484500000001,46.0,84.0
22,8.856855429166668,9.435484500000001,66.0,84.0
23,9.824597429166667,10.661291033333335,59.0,84.0
24,9.824597429166667,10.6875007125,68.0,84.0
25,9.824597429166667,10.697581358333334,63.0,84.0
26,10.308468429166668,11.264113654166668,51.0,84.0
27,10.792339429166667,11.278226558333333,68.0,84.0
28,10.792339429166667,11.290323333333333,63.0,84.0
29,10.792339429166667,11.300403979166667,59.0,84.0
30,9.824597429166667,11.3407265625,44.0,84.0
31,11.760081429166668,12.612904066666667,52.0,84.0
32,11.760081429166668,12.622984712500001,61.0,84.0
33,11.760081429166668,12.637097616666667,56.0,84.0
34,11.760081429166668,13.2278234625,37.0,84.0
35,12.243952429166667,13.262097658333333,44.0,84.0
36,12.727823429166667,13.290323466666667,56.0,84.0
37,12.727823429166667,13.292339595833335,52.0,84.0
38,12.727823429166667,13.296371854166667,61.0,84.0
39,13.695565429166667,14.594759037500001,54.0,84.0
40,13.695565429166667,14.598791295833333,63.0,84.0
41,13.695565429166667,14.602823554166667,58.0,84.0
42,14.179436429166667,15.084678425,46.0,84.0
43,14.663307429166668,15.139113912500001,63.0,84.0
44,14.663307429166668,15.143146170833335,58.0,84.0
45,14.663307429166668,15.147178429166667,54.0,84.0
46,13.695565429166667,15.2116945625,39.0,84.0
47,15.631049429166668,16.07258171666667,64.0,84.0
48,15.631049429166668,16.082662362500002,59.0,84.0
49,15.631049429166668,16.094759137500002,56.0,84.0
50,15.631049429166668,16.09677526666667,40.0,84.0
51,16.598791429166667,17.159275337500002,42.0,84.0
52,16.598791429166667,17.159275337500002,61.0,84.0
53,16.598791429166667,17.163307595833334,58.0,84.0
54,16.598791429166667,17.175404370833334,66.0,84.0
55,18.05040442916667,19.358872258333335,51.0,83.0
56,17.566533429166668,19.3971787125,68.0,83.0
57,17.566533429166668,19.4092754875,63.0,83.0
58,17.566533429166668,19.419356133333334,44.0,83.0
59,17.566533429166668,19.419356133333334,59.0,83.0
60,19.502017429166667,20.034275529166667,56.0,81.0
61,19.502017429166667,20.042340045833335,64.0,81.0
62,19.502017429166667,20.048388433333333,59.0,81.0
63,19.502017429166667,20.076614241666668,40.0,81.0
64,20.46975942916667,21.0060497875,58.0,81.0
65,20.46975942916667,21.008065916666666,61.0,81.0
66,20.46975942916667,21.010082045833336,66.0,81.0
67,20.46975942916667,21.050404629166668,42.0,81.0
68,21.43750142916667,22.923388625,68.0,81.0
69,21.43750142916667,22.93145314166667,44.0,81.0
70,21.43750142916667,22.94354991666667,63.0,81.0
71,21.43750142916667,22.953630562500003,59.0,81.0
72,23.37298542916667,23.985888695833335,64.0,79.0
73,23.37298542916667,23.987904825,56.0,79.0
74,23.37298542916667,23.99596934166667,59.0,79.0
75,23.37298542916667,24.088711283333335,40.0,79.0
76,23.85685642916667,24.370969366666667,47.0,79.0
77,24.34072742916667,24.891130691666667,42.0,78.0
78,24.34072742916667,24.90927585416667,58.0,78.0
79,24.34072742916667,24.90927585416667,61.0,78.0
80,24.34072742916667,24.911291983333335,66.0,78.0
81,24.824598429166667,24.991937150000002,49.0,78.0
82,25.308469429166667,26.159275937500002,63.0,78.0
83,25.308469429166667,26.163308195833334,71.0,78.0
84,25.308469429166667,26.169356583333336,66.0,78.0
85,25.308469429166667,26.782259850000003,47.0,78.0
86,26.27621142916667,26.80846952916667,71.0,76.0
87,26.27621142916667,26.822582433333334,66.0,76.0
88,26.27621142916667,26.830646950000002,63.0,76.0
89,26.76008242916667,26.89919534166667,54.0,76.0
90,27.24395342916667,28.10282445416667,73.0,75.0
91,27.24395342916667,28.108872841666667,64.0,75.0
92,27.24395342916667,28.120969616666667,68.0,75.0
93,27.727824429166667,28.485888995833335,56.0,75.0
94,27.24395342916667,28.71774385,49.0,75.0
95,28.211695429166667,28.747985787500003,73.0,75.0
96,28.211695429166667,28.770163208333333,68.0,75.0
97,28.211695429166667,28.784276112500002,64.0,75.0
98,29.17943742916667,29.997985870833336,54.0,75.0
99,29.17943742916667,29.997985870833336,63.0,75.0
100,29.17943742916667,30.004034258333334,58.0,75.0
101,29.17943742916667,30.606856879166667,39.0,75.0
102,29.66330842916667,30.657260108333336,46.0,75.0
103,30.14717942916667,30.681453658333336,63.0,75.0
104,30.14717942916667,30.69153430416667,54.0,75.0
105,30.14717942916667,30.693550433333336,58.0,75.0
106,30.631050429166667,31.135082720833335,51.0,75.0
107,31.114921429166667,31.963711808333336,58.0,75.0
108,31.114921429166667,31.965727937500002,66.0,75.0
109,31.114921429166667,31.973792454166666,61.0,75.0
110,32.082663429166665,32.60887314166667,66.0,75.0
111,31.114921429166667,32.6129054,42.0,75.0
112,32.082663429166665,32.62096991666667,58.0,75.0
113,32.082663429166665,32.62096991666667,61.0,75.0
114,31.598792429166668,32.6552441125,49.0,75.0
115,32.566534429166666,32.939518325,54.0,75.0
116,33.050405429166666,33.941534520833336,68.0,75.0
117,33.050405429166666,33.94758290833334,59.0,75.0
118,33.050405429166666,33.95766355416667,63.0,75.0
119,33.53427642916667,34.4032281,51.0,75.0
120,34.01814742916667,34.6270184375,68.0,75.0
121,34.01814742916667,34.649195858333336,59.0,75.0
122,34.01814742916667,34.65322811666667,63.0,75.0
123,33.050405429166666,34.66129263333333,44.0,75.0
124,34.98588942916667,35.54032495,64.0,75.0
125,34.98588942916667,35.55040559583333,56.0,75.0
126,34.98588942916667,35.556453983333334,59.0,75.0
127,34.98588942916667,35.6189539875,40.0,75.0
128,35.46976042916667,35.94959917083334,47.0,75.0
129,35.95363142916667,36.50403469166667,66.0,75.0
130,35.95363142916667,36.51209920833333,58.0,75.0
131,35.95363142916667,36.51613146666667,61.0,75.0
132,35.95363142916667,36.54032501666667,42.0,75.0
133,36.43750242916667,36.9254056875,49.0,75.0
134,36.92137342916667,37.7237928375,68.0,75.0
135,36.92137342916667,37.73387348333333,59.0,75.0
136,36.92137342916667,37.75605090416667,63.0,75.0
137,37.40524442916667,38.18750254583333,56.0,75.0
138,37.40524442916667,38.2802444875,51.0,75.0
139,37.889115429166665,38.30847029583334,68.0,75.0
140,37.889115429166665,38.326615458333336,63.0,75.0
141,37.889115429166665,38.33266384583334,59.0,75.0
142,36.92137342916667,38.3407283625,44.0,75.0
143,38.856857429166666,39.40322843333333,40.0,75.0
144,38.856857429166666,39.4052445625,56.0,75.0
145,38.856857429166666,39.4052445625,64.0,75.0
146,38.856857429166666,39.417341337500005,59.0,75.0
147,39.82459942916667,40.26814784583333,42.0,75.0
148,39.82459942916667,40.31451881666667,58.0,75.0
149,39.82459942916667,40.31653494583333,66.0,75.0
150,39.82459942916667,40.318551075,61.0,75.0
151,40.55040592916667,40.625002708333334,66.0,75.0
152,40.79234142916667,41.6068576125,71.0,75.0
153,40.79234142916667,41.60887374166667,63.0,75.0
154,40.79234142916667,41.612906,66.0,75.0
155,40.79234142916667,42.29234152916667,47.0,75.0
156,41.76008342916667,42.352825404166666,71.0,75.0
157,41.76008342916667,42.36088992083334,63.0,75.0
158,41.76008342916667,42.36088992083334,66.0,75.0
159,41.27621242916667,42.689518975,54.0,75.0
160,42.24395442916667,42.69153510416667,59.0,75.0
161,42.72782542916667,43.560486775,64.0,75.0
162,42.72782542916667,43.56250290416667,73.0,75.0
163,42.72782542916667,43.572583550000004,68.0,75.0
164,43.21169642916667,44.127019070833335,56.0,75.0
165,42.72782542916667,44.19959972083333,49.0,75.0
166,43.695567429166665,44.21774488333334,73.0,75.0
167,43.695567429166665,44.22379327083333,68.0,75.0
168,43.695567429166665,44.23589004583334,64.0,75.0
169,44.66330942916667,45.48790625833333,54.0,75.0
170,44.66330942916667,45.497986904166666,63.0,75.0
171,44.66330942916667,45.502019162500005,58.0,75.0
172,44.66330942916667,46.1129063,39.0,75.0
173,45.14718042916667,46.131051462500004,46.0,75.0
174,45.63105142916667,46.16935791666667,63.0,75.0
175,45.63105142916667,46.177422433333334,58.0,75.0
176,45.63105142916667,46.185486950000005,54.0,75.0
177,46.11492242916667,46.614922462500004,51.0,75.0
178,46.59879342916667,47.41532574166667,58.0,75.0
179,46.59879342916667,47.419358,66.0,75.0
180,46.59879342916667,47.43548703333334,61.0,75.0
181,46.59879342916667,48.106858045833334,42.0,75.0
182,47.56653542916667,48.131051595833334,66.0,75.0
183,47.56653542916667,48.135083854166666,61.0,75.0
184,47.56653542916667,48.137099983333336,58.0,75.0
185,47.08266442916667,48.368954837500006,49.0,75.0
186,48.05040642916667,48.4354871,54.0,75.0
187,48.53427742916667,49.401212970833335,68.0,75.0
188,48.53427742916667,49.4092774875,59.0,75.0
189,48.53427742916667,49.41734200416667,63.0,75.0
190,49.502019429166666,50.0322614,68.0,75.0
191,49.01814842916667,50.038309787500005,51.0,75.0
192,49.502019429166666,50.068551725,63.0,75.0
193,49.502019429166666,50.07056785416667,59.0,75.0
194,48.53427742916667,50.116938825000005,44.0,75.0
195,50.46976142916667,50.54839046666667,68.0,75.0
196,50.46976142916667,50.5584711125,63.0,75.0
197,50.46976142916667,50.570567887500005,59.0,75.0
198,50.46976142916667,50.594761437500004,44.0,75.0
199,50.71169692916667,50.85282597083334,44.0,75.0
200,50.71169692916667,50.85685822916667,68.0,75.0
201,50.71169692916667,50.85887435833334,63.0,75.0
202,50.71169692916667,50.87500339166667,59.0,75.0
203,52.40524542916667,53.280245487500004,52.0,75.0
204,52.40524542916667,53.282261616666666,61.0,75.0
205,52.40524542916667,53.29032613333334,56.0,75.0
206,53.37298742916667,54.223793937500005,61.0,75.0
207,53.37298742916667,54.245971358333335,52.0,75.0
208,53.37298742916667,54.254035875,56.0,75.0
209,53.85685842916667,54.37903588333334,49.0,75.0
210,52.40524542916667,54.49193911666667,37.0,75.0
211,52.88911642916667,54.51814879583333,44.0,75.0
212,54.34072942916667,55.207664970833335,66.0,75.0
213,54.34072942916667,55.21169722916667,58.0,75.0
214,54.34072942916667,55.21976174583334,61.0,75.0
215,54.34072942916667,55.844761787500005,42.0,75.0
216,55.30847142916667,55.86492307916667,61.0,75.0
217,55.30847142916667,55.866939208333335,66.0,75.0
218,55.30847142916667,55.868955337500005,58.0,75.0
219,54.82460042916667,55.87903598333334,49.0,75.0
220,55.792342429166666,56.2439553625,54.0,75.0
221,56.76008442916667,57.058471545833335,54.0,75.0
222,56.27621342916667,57.1028263875,71.0,75.0
223,56.27621342916667,57.108874775000004,63.0,75.0
224,56.27621342916667,57.11693929166667,66.0,75.0
225,56.27621342916667,57.24395542916667,47.0,75.0
226,57.24395542916667,57.741939333333335,71.0,75.0
227,57.24395542916667,57.75403610833334,66.0,75.0
228,57.24395542916667,57.75403610833334,66.0,75.0
229,57.24395542916667,57.786294175,61.0,75.0
230,57.24395542916667,57.82460062916667,46.0,75.0
231,58.21169742916667,59.0806491,68.0,75.0
232,58.21169742916667,59.086697487500004,59.0,75.0
233,58.21169742916667,59.09476200416667,63.0,75.0
234,58.69556842916667,59.568552358333335,51.0,75.0
235,59.17943942916667,59.6310523625,68.0,75.0
236,59.17943942916667,59.645165266666666,63.0,75.0
237,59.17943942916667,59.65726204166667,59.0,75.0
238,58.21169742916667,59.697584625000005,44.0,75.0
239,60.14718142916667,60.97782664583334,52.0,75.0
240,60.14718142916667,61.004036325,61.0,75.0
241,60.14718142916667,61.01814922916667,56.0,75.0
242,60.63105242916667,61.61693959166667,44.0,75.0
243,60.14718142916667,61.673391208333335,37.0,75.0
244,61.11492342916667,61.67742346666667,61.0,75.0
245,61.11492342916667,61.68347185416667,52.0,75.0
246,61.11492342916667,61.68952024166667,56.0,75.0
247,62.08266542916667,62.88710096666667,58.0,75.0
248,62.08266542916667,62.89919774166667,66.0,75.0
249,62.08266542916667,62.90524612916667,61.0,75.0
250,62.08266542916667,63.629036500000005,42.0,75.0
251,63.05040742916667,63.64516553333333,66.0,75.0
252,63.05040742916667,63.64919779166667,61.0,75.0
253,63.05040742916667,63.651213920833335,58.0,75.0
254,62.56653642916667,63.67339134166667,49.0,75.0
255,63.53427842916667,63.82460102916667,54.0,75.0
256,64.01814942916667,64.85887529166666,71.0,76.0
257,64.01814942916667,64.86693980833334,63.0,76.0
258,64.01814942916667,64.875004325,66.0,76.0
259,64.01814942916667,64.98589142916667,47.0,76.0
260,64.50202042916666,64.98589142916667,54.0,76.0
261,64.98589142916667,65.50000436666667,66.0,76.0
262,64.98589142916667,65.504036625,58.0,76.0
263,64.98589142916667,65.50806888333334,61.0,76.0
264,64.98589142916667,65.51411727083334,46.0,76.0
265,65.95363342916667,66.81452058333333,68.0,77.0
266,65.95363342916667,66.82056897083334,59.0,77.0
267,65.95363342916667,66.82661735833334,63.0,77.0
268,66.43750442916667,67.26814964583333,51.0,77.0
269,66.92137542916667,67.35282707083334,68.0,77.0
270,65.95363342916667,67.35887545833333,44.0,77.0
271,66.92137542916667,67.36290771666667,63.0,77.0
272,66.92137542916667,67.38105287916667,59.0,77.0
273,67.88911742916667,68.72581103333334,56.0,77.0
274,67.88911742916667,68.72984329166667,64.0,77.0
275,67.88911742916667,68.74798845416667,59.0,77.0
276,68.85685942916668,69.423391725,64.0,78.0
277,68.85685942916668,69.43145624166667,59.0,78.0
278,68.85685942916668,69.43750462916667,56.0,78.0
279,67.88911742916667,69.45968205,40.0,77.0
280,69.34073042916667,69.7318594875,52.0,78.0
281,68.37298842916667,69.81855304166668,47.0,77.0
282,69.82460142916668,70.67742406666667,58.0,78.0
283,69.82460142916668,70.681456325,66.0,78.0
284,69.82460142916668,70.69153697083334,61.0,78.0
285,70.30847242916667,71.19758539166666,49.0,78.0
286,70.79234342916666,71.24194023333334,66.0,78.0
287,70.79234342916666,71.2560531375,61.0,78.0
288,70.79234342916666,71.26411765416667,58.0,78.0
289,69.82460142916668,71.286295075,42.0,78.0
290,71.76008542916666,72.12298867916667,58.0,78.0
291,71.76008542916666,72.28427901250001,63.0,78.0
292,71.76008542916666,72.29234352916667,51.0,120.0
293,71.76008542916666,72.31452095,54.0,78.0
294,72.72782742916667,73.1612952,39.0,78.0
295,72.72782742916667,73.1612952,39.0,117.0
296,72.72782742916667,73.1794403625,58.0,78.0
297,72.72782742916667,73.1794403625,63.0,78.0
298,72.72782742916667,73.18952100833334,54.0,78.0
299,73.69556942916667,74.58065013333334,68.0,78.0
300,73.69556942916667,74.59274690833334,59.0,78.0
301,73.69556942916667,74.600811425,63.0,78.0
302,74.66331142916667,75.1996017875,68.0,78.0
303,74.66331142916667,75.21976307916667,63.0,78.0
304,74.66331142916667,75.22581146666667,59.0,78.0
305,73.69556942916667,75.2358921125,44.0,78.0
306,75.63105342916667,76.49395671250001,64.0,78.0
307,75.63105342916667,76.49597284166667,56.0,78.0
308,75.63105342916667,76.51411800416668,59.0,78.0
309,76.59879542916667,77.13105352916666,64.0,78.0
310,76.59879542916667,77.13710191666667,59.0,78.0
311,76.59879542916667,77.13911804583334,56.0,78.0
312,75.63105342916667,77.141134175,40.0,78.0
313,76.11492442916666,77.53024710416668,47.0,78.0
314,77.08266642916666,77.53024710416668,52.0,78.0
315,77.56653742916667,78.3931503875,58.0,78.0
316,77.56653742916667,78.4052471625,66.0,78.0
317,77.56653742916667,78.41532780833333,61.0,78.0
318,77.56653742916667,78.86089235416667,42.0,78.0
319,78.05040842916667,78.90323106666668,49.0,78.0
320,78.53427942916667,78.99597300833334,58.0,78.0
321,78.53427942916667,78.9979891375,61.0,78.0
322,78.53427942916667,79.00000526666668,66.0,78.0
323,79.26008592916666,79.31452141666666,66.0,78.0
324,79.50202142916667,80.39113439166667,71.0,78.0
325,79.50202142916667,80.39718277916667,63.0,78.0
326,79.50202142916667,80.40323116666667,66.0,78.0
327,80.46976342916668,81.350811875,71.0,78.0
328,80.46976342916668,81.37097316666667,63.0,78.0
329,80.46976342916668,81.37097316666667,66.0,78.0
330,80.95363442916667,82.60081195833334,59.0,77.0
331,81.43750542916668,82.64718292916668,71.0,76.0
332,81.43750542916668,82.65524744583334,66.0,76.0
333,81.43750542916668,82.65927970416666,63.0,76.0
334,79.50202142916667,82.71573132083334,47.0,78.0
335,79.98589242916667,82.71774745,54.0,78.0
336,83.37298942916667,83.97782817916666,64.0,75.0
337,83.37298942916667,83.98387656666667,56.0,75.0
338,83.37298942916667,83.98387656666667,59.0,75.0
339,83.37298942916667,84.03226366666667,40.0,75.0
340,83.85686042916667,84.35081207500001,47.0,75.0
341,84.34073142916667,84.90524759583333,66.0,75.0
342,84.34073142916667,84.90927985416667,61.0,75.0
343,84.34073142916667,84.91734437083333,58.0,75.0
344,84.34073142916667,84.97177985833333,42.0,75.0
345,84.82460242916667,85.36694117500001,49.0,75.0
346,85.30847342916667,86.15323155,68.0,75.0
347,85.30847342916667,86.16331219583334,59.0,75.0
348,85.30847342916667,86.17540897083333,63.0,75.0
349,85.79234442916668,86.58065093333333,56.0,75.0
350,86.27621542916667,86.697586425,68.0,75.0
351,85.79234442916668,86.69960255416667,51.0,75.0
352,86.27621542916667,86.71169932916668,63.0,75.0
353,85.30847342916667,86.72984449166667,44.0,75.0
354,86.27621542916667,86.72984449166667,59.0,75.0
355,87.24395742916667,87.834683275,64.0,75.0
356,87.24395742916667,87.85081230833333,59.0,75.0
357,87.24395742916667,87.85484456666667,56.0,75.0
358,87.24395742916667,87.88105424583334,40.0,75.0
359,87.72782842916668,88.16331232916667,52.0,75.0
360,87.72782842916668,88.21774781666667,47.0,75.0
361,88.21169942916667,88.73992527083334,42.0,75.0
362,88.21169942916667,88.73992527083334,66.0,75.0
363,88.21169942916667,88.74395752916666,61.0,75.0
364,88.21169942916667,88.75000591666667,58.0,75.0
365,88.69557042916666,88.82661882500001,49.0,75.0
366,89.17944142916667,90.01008664583334,71.0,75.0
367,89.17944142916667,90.03024793750001,66.0,75.0
368,89.17944142916667,90.03428019583333,63.0,75.0
369,90.14718342916667,90.57057055416666,59.0,75.0
370,90.14718342916667,90.73589314583334,71.0,75.0
371,90.14718342916667,90.762102825,66.0,75.0
372,89.17944142916667,90.7802479875,47.0,75.0
373,90.14718342916667,90.78428024583334,63.0,75.0
374,89.66331242916667,90.80645766666667,54.0,75.0
375,90.63105442916667,91.03226413333334,59.0,75.0
376,91.11492542916668,91.96169967916667,64.0,74.0
377,91.11492542916668,91.96976419583333,73.0,74.0
378,91.11492542916668,91.971780325,68.0,74.0
379,92.08266742916668,92.44153842083334,73.0,73.0
380,92.08266742916668,92.44355455,68.0,73.0
381,91.59879642916667,92.44758680833334,56.0,74.0
382,91.11492542916668,92.45363519583334,49.0,74.0
383,92.08266742916668,92.46371584166667,64.0,73.0
384,93.05040942916668,93.88307077500001,63.0,73.0
385,93.05040942916668,93.89113529166667,54.0,73.0
386,93.05040942916668,93.89113529166667,58.0,73.0
387,93.05040942916668,94.57258695,39.0,73.0
388,94.01815142916666,94.57258695,63.0,73.0
389,94.01815142916666,94.584683725,58.0,73.0
390,94.01815142916666,94.59476437083333,54.0,73.0
391,93.53428042916667,94.59678050000001,46.0,73.0
392,94.50202242916667,94.98186117083334,51.0,73.0
393,94.98589342916667,95.83871606666668,66.0,73.0
394,94.98589342916667,95.84678058333334,58.0,73.0
395,94.98589342916667,95.85282897083334,61.0,73.0
396,94.98589342916667,96.52621611250001,42.0,73.0
397,95.95363542916667,96.53226450000001,66.0,73.0
398,95.95363542916667,96.54839353333334,61.0,73.0
399,95.95363542916667,96.57258708333333,58.0,73.0
400,95.46976442916667,96.92339355833334,49.0,73.0
401,96.43750642916667,96.93145807500001,54.0,73.0
402,96.92137742916667,97.76613555,68.0,73.0
403,96.92137742916667,97.78629684166667,59.0,73.0
404,96.92137742916667,97.79032910000001,63.0,73.0
405,97.88911942916667,98.7278291625,68.0,73.0
406,97.88911942916667,98.73589367916667,59.0,73.0
407,97.88911942916667,98.73790980833334,63.0,73.0
408,96.92137742916667,98.85686142916667,44.0,73.0
409,97.40524842916668,98.85686142916667,51.0,73.0
410,98.37299042916668,98.85686142916667,56.0,73.0
411,98.85686142916667,98.99597434166667,44.0,85.0
412,98.85686142916667,98.99597434166667,56.0,90.0
413,98.85686142916667,98.99597434166667,63.0,64.0
414,98.85686142916667,99.00403885833333,59.0,93.0
415,99.09879692916667,99.36290985000001,63.0,79.0
416,99.09879692916667,99.36895823750001,59.0,95.0
417,99.09879692916667,99.38307114166668,56.0,111.0
418,99.09879692916667,99.39516791666667,44.0,86.0
419,100.79234542916667,100.8568615625,64.0,73.0
420,100.79234542916667,100.86290995,47.0,73.0
421,100.79234542916667,100.875006725,52.0,73.0
422,100.79234542916667,100.88710350000001,59.0,73.0
423,100.79234542916667,100.90121640416668,56.0,73.0
424,100.79234542916667,100.91532930833334,40.0,73.0
425,101.03428092916667,101.10484545,47.0,73.0
426,101.03428092916667,101.11290996666668,64.0,73.0
427,101.03428092916667,101.116942225,52.0,73.0
428,101.03428092916667,101.11895835416667,59.0,73.0
429,101.03428092916667,101.13105512916667,56.0,73.0
430,101.03428092916667,101.15121642083334,40.0,73.0
431,101.27621642916667,101.46371644166668,47.0,73.0
432,101.27621642916667,101.49799063750001,64.0,73.0
433,101.27621642916667,101.50403902500001,52.0,73.0
434,101.27621642916667,101.52016805833334,59.0,73.0
435,101.27621642916667,101.5221841875,56.0,73.0
436,101.27621642916667,101.52621644583334,40.0,73.0
437,102.00202292916667,102.0907326125,64.0,73.0
438,102.00202292916667,102.09476487083334,59.0,73.0
439,102.00202292916667,102.10686164583333,56.0,73.0
440,102.00202292916667,102.1391197125,47.0,73.0
441,102.00202292916667,102.14718422916667,40.0,73.0
442,102.00202292916667,102.15121648750001,52.0,73.0
443,102.48589392916668,103.58266819583334,66.0,73.0
444,102.48589392916668,103.6028294875,58.0,73.0
445,102.48589392916668,103.60484561666667,61.0,73.0
446,103.21170042916667,104.05444242083334,49.0,73.0
447,103.69557142916668,104.06653919583334,66.0,73.0
448,103.69557142916668,104.09678113333334,61.0,73.0
449,102.48589392916668,104.10081339166668,42.0,73.0
450,103.69557142916668,104.10484565,58.0,73.0
451,104.66331342916668,104.77218440416667,66.0,73.0
452,104.66331342916668,104.77420053333334,58.0,73.0
453,104.66331342916668,104.7762166625,61.0,73.0
454,104.66331342916668,104.78226505,54.0,73.0
455,104.66331342916668,104.78428117916667,49.0,73.0
456,104.66331342916668,104.8246037625,42.0,73.0
457,104.90524892916667,105.00000700000001,49.0,73.0
458,104.90524892916667,105.0060553875,58.0,73.0
459,104.90524892916667,105.00807151666667,61.0,73.0
460,104.90524892916667,105.01008764583334,66.0,73.0
461,104.90524892916667,105.0181521625,54.0,73.0
462,104.90524892916667,105.04032958333333,42.0,73.0
463,105.14718442916667,105.35081347500001,66.0,73.0
464,105.14718442916667,105.35887799166667,49.0,73.0
465,105.14718442916667,105.36492637916668,61.0,73.0
466,105.14718442916667,105.37903928333334,54.0,73.0
467,105.14718442916667,105.38508767083334,58.0,73.0
468,105.14718442916667,105.39516831666667,42.0,73.0
469,105.87299092916668,105.93347480416668,68.0,73.0
470,105.87299092916668,105.99395867916667,66.0,73.0
471,105.87299092916668,105.99597480833334,49.0,73.0
472,105.87299092916668,106.00807158333333,42.0,73.0
473,105.87299092916668,106.01008771250001,54.0,73.0
474,105.87299092916668,106.01210384166667,61.0,73.0
475,105.87299092916668,106.02016835833334,58.0,73.0
476,106.35686192916667,107.39113619166667,68.0,73.0
477,106.35686192916667,107.4012168375,59.0,73.0
478,106.35686192916667,107.40928135416667,63.0,73.0
479,107.08266842916667,107.99799107083334,56.0,73.0
480,106.35686192916667,108.02016849166667,44.0,73.0
481,106.84073292916668,108.04234591250001,51.0,73.0
482,107.56653942916667,108.04637817083334,68.0,73.0
483,107.56653942916667,108.06250720416668,63.0,73.0
484,107.56653942916667,108.0665394625,59.0,73.0
485,108.53428142916667,108.6229911125,64.0,73.0
486,108.53428142916667,108.6350878875,56.0,73.0
487,108.53428142916667,108.64315240416667,59.0,73.0
488,108.77621692916667,108.86291048333334,64.0,73.0
489,108.77621692916667,108.86895887083334,56.0,73.0
490,108.77621692916667,108.88105564583334,59.0,73.0
491,108.77621692916667,108.8891201625,47.0,73.0
492,108.53428142916667,108.92742661666666,40.0,73.0
493,109.01815242916668,109.19355566666667,64.0,73.0
494,109.01815242916668,109.23186212083334,59.0,73.0
495,109.01815242916668,109.23791050833334,47.0,73.0
496,109.01815242916668,109.24194276666667,56.0,73.0
497,109.01815242916668,109.25000728333333,40.0,73.0
498,109.74395892916667,109.84274925833334,64.0,73.0
499,109.74395892916667,109.85282990416667,59.0,73.0
500,109.74395892916667,109.86089442083333,56.0,73.0
501,109.74395892916667,109.87299119583334,47.0,73.0
502,109.74395892916667,109.8810557125,40.0,73.0
503,109.74395892916667,109.88912022916668,52.0,73.0
504,110.22782992916667,111.29839451666668,66.0,73.0
505,110.22782992916667,111.31250742083334,58.0,73.0
506,110.22782992916667,111.31250742083334,61.0,73.0
507,110.46976542916667,111.76412035416668,49.0,73.0
508,111.43750742916667,111.88307197500001,66.0,73.0
509,111.43750742916667,111.89920100833334,61.0,73.0
510,110.22782992916667,111.907265525,42.0,73.0
511,111.43750742916667,111.91734617083334,58.0,73.0
512,110.95363642916668,111.98186230416667,54.0,73.0
513,112.40524942916667,112.46573330416668,61.0,73.0
514,112.40524942916667,112.49799137083333,41.0,73.0
515,112.40524942916667,112.50403975833333,56.0,73.0
516,112.40524942916667,112.51613653333334,49.0,73.0
517,112.40524942916667,112.51613653333334,53.0,73.0
518,112.40524942916667,112.52218492083334,44.0,73.0
519,112.40524942916667,112.536297825,37.0,73.0
520,112.64718492916667,112.72581396666668,56.0,73.0
521,112.64718492916667,112.7358946125,37.0,73.0
522,112.64718492916667,112.7358946125,41.0,73.0
523,112.64718492916667,112.74597525833335,44.0,73.0
524,112.64718492916667,112.75000751666667,49.0,73.0
525,112.64718492916667,112.75403977500001,53.0,73.0
526,112.88912042916667,112.96371720833334,61.0,73.0
527,112.88912042916667,113.01210430833333,56.0,73.0
528,112.88912042916667,113.03024947083334,41.0,73.0
529,112.88912042916667,113.05041076250001,44.0,73.0
530,112.88912042916667,113.05444302083333,53.0,73.0
531,112.88912042916667,113.05645915000001,49.0,73.0
532,112.88912042916667,113.07258818333334,37.0,73.0
533,113.61492692916667,113.72984629166668,61.0,74.0
534,113.61492692916667,113.74395919583334,56.0,74.0
535,113.61492692916667,113.75000758333334,44.0,74.0
536,113.61492692916667,113.75403984166667,37.0,74.0
537,113.61492692916667,113.75605597083334,41.0,74.0
538,113.61492692916667,113.76412048750001,53.0,74.0
539,113.61492692916667,113.7883140375,49.0,74.0
540,114.09879792916668,115.75000771666667,63.0,74.0
541,114.09879792916668,115.77016900833334,43.0,74.0
542,114.09879792916668,115.77420126666667,58.0,74.0
543,114.09879792916668,115.78629804166667,46.0,74.0
544,114.09879792916668,115.79033030000001,51.0,74.0
545,114.09879792916668,115.80645933333334,39.0,74.0
546,114.09879792916668,115.81250772083334,55.0,74.0
547,116.27621742916668,116.80847552916667,56.0,74.0
548,116.27621742916668,116.81654004583334,64.0,74.0
549,116.27621742916668,116.82258843333334,59.0,74.0
550,116.27621742916668,116.85081424166667,40.0,74.0
551,117.24395942916668,117.78024978750001,58.0,74.0
552,117.24395942916668,117.78226591666667,61.0,74.0
553,117.24395942916668,117.78428204583334,66.0,74.0
554,117.24395942916668,117.82460462916667,42.0,74.0
555,118.21170142916667,119.69758862500001,68.0,74.0
556,118.21170142916667,119.70565314166667,44.0,74.0
557,118.21170142916667,119.71774991666668,63.0,74.0
558,118.21170142916667,119.7278305625,59.0,74.0
559,120.14718542916667,120.76008869583335,64.0,74.0
560,120.14718542916667,120.76210482500001,56.0,74.0
561,120.14718542916667,120.77016934166667,59.0,74.0
562,120.14718542916667,120.86291128333333,40.0,74.0
563,120.63105642916668,121.14516936666668,47.0,74.0
564,121.11492742916667,121.66533069166667,42.0,74.0
565,121.11492742916667,121.68347585416667,58.0,74.0
566,121.11492742916667,121.68347585416667,61.0,74.0
567,121.11492742916667,121.68549198333334,66.0,74.0
568,121.59879842916668,121.76613715,49.0,74.0
569,122.08266942916667,122.9334759375,63.0,74.0
570,122.08266942916667,122.93750819583335,71.0,74.0
571,122.08266942916667,122.94355658333333,66.0,74.0
572,122.08266942916667,123.55645985000001,47.0,74.0
573,123.05041142916667,123.58266952916668,71.0,74.0
574,123.05041142916667,123.59678243333335,66.0,74.0
575,123.05041142916667,123.60484695000001,63.0,74.0
576,123.53428242916667,123.67339534166668,54.0,74.0
577,124.01815342916667,124.87702445416667,73.0,74.0
578,124.01815342916667,124.88307284166667,64.0,74.0
579,124.01815342916667,124.89516961666668,68.0,74.0
580,124.50202442916667,125.26008899583334,56.0,74.0
581,124.01815342916667,125.49194385000001,49.0,74.0
582,124.98589542916667,125.5221857875,73.0,74.0
583,124.98589542916667,125.54436320833334,68.0,74.0
584,124.98589542916667,125.5584761125,64.0,74.0
585,125.95363742916668,126.77218587083334,54.0,75.0
586,125.95363742916668,126.77218587083334,63.0,75.0
587,125.95363742916668,126.77823425833334,58.0,75.0
588,125.95363742916668,127.38105687916668,39.0,75.0
589,126.43750842916667,127.43146010833334,46.0,75.0
590,126.92137942916668,127.45565365833333,63.0,75.0
591,126.92137942916668,127.46573430416667,54.0,75.0
592,126.92137942916668,127.46775043333334,58.0,75.0
593,127.40525042916667,127.90928272083335,51.0,75.0
594,127.88912142916668,128.73791180833334,58.0,75.0
595,127.88912142916668,128.7399279375,66.0,75.0
596,127.88912142916668,128.74799245416668,61.0,75.0
597,128.85686342916668,129.38307314166667,66.0,76.0
598,127.88912142916668,129.3871054,42.0,75.0
599,128.85686342916668,129.39516991666667,58.0,76.0
600,128.85686342916668,129.39516991666667,61.0,76.0
601,128.3729924291667,129.4294441125,49.0,75.0
602,129.34073442916667,129.713718325,54.0,76.0
603,129.82460542916667,130.71573452083334,68.0,76.0
604,129.82460542916667,130.72178290833335,59.0,76.0
605,129.82460542916667,130.73186355416667,63.0,76.0
606,130.30847642916666,131.17742810000001,51.0,77.0
607,130.79234742916668,131.4012184375,68.0,77.0
608,130.79234742916668,131.42339585833335,59.0,77.0
609,130.79234742916668,131.42742811666668,63.0,77.0
610,129.82460542916667,131.43549263333335,44.0,76.0
611,131.76008942916667,132.31452495000002,64.0,77.0
612,131.76008942916667,132.32460559583333,56.0,77.0
613,131.76008942916667,132.33065398333335,59.0,77.0
614,131.76008942916667,132.3931539875,40.0,77.0
615,132.24396042916666,132.72379917083333,47.0,77.0
616,132.72783142916668,133.27823469166668,66.0,77.0
617,132.72783142916668,133.28629920833333,58.0,77.0
618,132.72783142916668,133.2903314666667,61.0,77.0
619,132.72783142916668,133.31452501666666,42.0,77.0
620,133.21170242916668,133.6996056875,49.0,77.0
621,133.69557342916667,134.4979928375,68.0,77.0
622,133.69557342916667,134.50807348333333,59.0,77.0
623,133.69557342916667,134.53025090416668,63.0,77.0
624,134.17944442916667,134.96170254583333,56.0,77.0
625,134.17944442916667,135.0544444875,51.0,77.0
626,134.6633154291667,135.08267029583334,68.0,77.0
627,134.6633154291667,135.10081545833333,63.0,77.0
628,134.6633154291667,135.10686384583335,59.0,77.0
629,133.69557342916667,135.1149283625,44.0,77.0
630,135.63105742916667,136.17742843333335,40.0,77.0
631,135.63105742916667,136.1794445625,56.0,77.0
632,135.63105742916667,136.1794445625,64.0,77.0
633,135.63105742916667,136.1915413375,59.0,77.0
634,136.59879942916666,137.04234784583335,42.0,78.0
635,136.59879942916666,137.08871881666667,58.0,78.0
636,136.59879942916666,137.09073494583333,66.0,78.0
637,136.59879942916666,137.092751075,61.0,78.0
638,137.32460592916667,137.39920270833335,66.0,78.0
639,137.56654142916668,138.3810576125,71.0,78.0
640,137.56654142916668,138.38307374166666,63.0,78.0
641,137.56654142916668,138.38710600000002,66.0,78.0
642,137.56654142916668,139.06654152916667,47.0,78.0
643,138.53428342916666,139.1270254041667,71.0,78.0
644,138.53428342916666,139.13508992083334,63.0,78.0
645,138.53428342916666,139.13508992083334,66.0,78.0
646,138.05041242916667,139.463718975,54.0,78.0
647,139.01815442916669,139.46573510416667,59.0,78.0
648,139.50202542916668,140.334686775,64.0,78.0
649,139.50202542916668,140.33670290416669,73.0,78.0
650,139.50202542916668,140.34678355,68.0,78.0
651,139.98589642916667,140.90121907083335,56.0,78.0
652,139.50202542916668,140.97379972083334,49.0,78.0
653,140.46976742916667,140.99194488333333,73.0,78.0
654,140.46976742916667,140.99799327083335,68.0,78.0
655,140.46976742916667,141.01009004583335,64.0,78.0
656,141.43750942916668,142.26210625833335,54.0,78.0
657,141.43750942916668,142.27218690416666,63.0,78.0
658,141.43750942916668,142.2762191625,58.0,78.0
659,141.43750942916668,142.8871063,39.0,78.0
660,141.92138042916667,142.90525146250002,46.0,78.0
661,142.40525142916667,142.94355791666666,63.0,78.0
662,142.40525142916667,142.95162243333334,58.0,78.0
663,142.40525142916667,142.95968695000002,54.0,78.0
664,142.88912242916666,143.3891224625,51.0,78.0
665,143.37299342916668,144.18952574166667,58.0,78.0
666,143.37299342916668,144.193558,66.0,78.0
667,143.37299342916668,144.20968703333335,61.0,78.0
668,143.37299342916668,144.88105804583333,42.0,78.0
669,144.34073542916667,144.90525159583333,66.0,78.0
670,144.34073542916667,144.90928385416666,61.0,78.0
671,144.34073542916667,144.91129998333335,58.0,78.0
672,143.85686442916668,145.14315483750002,49.0,78.0
673,144.82460642916666,145.2096871,54.0,78.0
674,145.3084774291667,146.17541297083335,68.0,78.0
675,145.3084774291667,146.1834774875,59.0,78.0
676,145.3084774291667,146.19154200416668,63.0,78.0
677,146.27621942916667,146.80646140000002,68.0,78.0
678,145.79234842916668,146.8125097875,51.0,78.0
679,146.27621942916667,146.842751725,63.0,78.0
680,146.27621942916667,146.84476785416666,59.0,78.0
681,145.3084774291667,146.891138825,44.0,78.0
682,147.24396142916666,147.32259046666667,68.0,78.0
683,147.24396142916666,147.3326711125,63.0,78.0
684,147.24396142916666,147.3447678875,59.0,78.0
685,147.24396142916666,147.36896143750002,44.0,78.0
686,147.48589692916667,147.62702597083333,44.0,78.0
687,147.48589692916667,147.63105822916668,68.0,78.0
688,147.48589692916667,147.63307435833335,63.0,78.0
689,147.48589692916667,147.64920339166667,59.0,78.0
690,149.17944542916666,150.0544454875,52.0,76.0
691,149.17944542916666,150.05646161666667,61.0,76.0
692,149.17944542916666,150.06452613333335,56.0,76.0
693,150.14718742916668,150.9979939375,61.0,76.0
694,150.14718742916668,151.02017135833333,52.0,76.0
695,150.14718742916668,151.028235875,56.0,76.0
696,150.63105842916667,151.15323588333334,49.0,76.0
697,149.17944542916666,151.26613911666666,37.0,76.0
698,149.66331642916668,151.29234879583333,44.0,76.0
699,151.11492942916666,151.98186497083333,66.0,76.0
700,151.11492942916666,151.98589722916668,58.0,76.0
701,151.11492942916666,151.99396174583333,61.0,76.0
702,151.11492942916666,152.6189617875,42.0,76.0
703,152.08267142916668,152.63912307916667,61.0,76.0
704,152.08267142916668,152.64113920833333,66.0,76.0
705,152.08267142916668,152.64315533750002,58.0,76.0
706,151.5988004291667,152.65323598333333,49.0,76.0
707,152.56654242916667,153.0181553625,54.0,76.0
708,153.53428442916666,153.83267154583334,54.0,76.0
709,153.05041342916667,153.8770263875,71.0,76.0
710,153.05041342916667,153.883074775,63.0,76.0
711,153.05041342916667,153.89113929166666,66.0,76.0
712,153.05041342916667,154.01815542916668,47.0,76.0
713,154.01815542916668,154.51613933333334,71.0,76.0
714,154.01815542916668,154.52823610833335,66.0,76.0
715,154.01815542916668,154.52823610833335,66.0,76.0
716,154.01815542916668,154.560494175,61.0,76.0
717,154.01815542916668,154.59880062916667,46.0,76.0
718,154.98589742916667,155.8548491,68.0,76.0
719,154.98589742916667,155.8608974875,59.0,76.0
720,154.98589742916667,155.86896200416666,63.0,76.0
721,155.46976842916666,156.34275235833334,51.0,76.0
722,155.95363942916669,156.4052523625,68.0,76.0
723,155.95363942916669,156.4193652666667,63.0,76.0
724,155.95363942916669,156.43146204166666,59.0,76.0
725,154.98589742916667,156.471784625,44.0,76.0
726,156.92138142916667,157.75202664583335,52.0,75.0
727,156.92138142916667,157.778236325,61.0,75.0
728,156.92138142916667,157.79234922916666,56.0,75.0
729,157.40525242916667,158.39113959166667,44.0,75.0
730,156.92138142916667,158.44759120833334,37.0,75.0
731,157.8891234291667,158.45162346666666,61.0,75.0
732,157.8891234291667,158.45767185416668,52.0,75.0
733,157.8891234291667,158.46372024166666,56.0,75.0
734,158.85686542916667,159.6613009666667,58.0,75.0
735,158.85686542916667,159.67339774166666,66.0,75.0
736,158.85686542916667,159.67944612916668,61.0,75.0
737,158.85686542916667,160.40323650000002,42.0,75.0
738,159.82460742916666,160.41936553333335,66.0,75.0
739,159.82460742916666,160.42339779166667,61.0,75.0
740,159.82460742916666,160.42541392083334,58.0,75.0
741,159.34073642916667,160.44759134166668,49.0,75.0
742,160.30847842916668,160.59880102916668,54.0,75.0
743,160.79234942916668,161.63307529166667,71.0,75.0
744,160.79234942916668,161.64113980833335,63.0,75.0
745,160.79234942916668,161.649204325,66.0,75.0
746,160.79234942916668,161.76009142916666,47.0,75.0
747,161.27622042916667,161.76009142916666,54.0,75.0
748,161.76009142916666,162.27420436666668,66.0,75.0
749,161.76009142916666,162.278236625,58.0,75.0
750,161.76009142916666,162.28226888333333,61.0,75.0
751,161.76009142916666,162.28831727083335,46.0,75.0
752,162.72783342916668,163.58872058333336,68.0,75.0
753,162.72783342916668,163.59476897083334,59.0,75.0
754,162.72783342916668,163.60081735833333,63.0,75.0
755,163.21170442916667,164.04234964583335,51.0,75.0
756,163.69557542916667,164.12702707083335,68.0,75.0
757,162.72783342916668,164.13307545833334,44.0,75.0
758,163.69557542916667,164.13710771666666,63.0,75.0
759,163.69557542916667,164.15525287916668,59.0,75.0
760,164.66331742916668,165.50001103333335,56.0,75.0
761,164.66331742916668,165.50404329166668,64.0,75.0
762,164.66331742916668,165.52218845416667,59.0,75.0
763,165.63105942916667,166.197591725,64.0,75.0
764,165.63105942916667,166.20565624166667,59.0,75.0
765,165.63105942916667,166.21170462916666,56.0,75.0
766,164.66331742916668,166.23388205,40.0,75.0
767,166.11493042916666,166.5060594875,52.0,75.0
768,165.14718842916668,166.59275304166667,47.0,75.0
769,166.59880142916668,167.45162406666668,58.0,75.0
770,166.59880142916668,167.455656325,66.0,75.0
771,166.59880142916668,167.46573697083335,61.0,75.0
772,167.08267242916668,167.97178539166669,49.0,75.0
773,167.56654342916667,168.01614023333335,66.0,75.0
774,167.56654342916667,168.0302531375,61.0,75.0
775,167.56654342916667,168.03831765416666,58.0,75.0
776,166.59880142916668,168.060495075,42.0,75.0
777,168.5342854291667,169.05847901250002,63.0,75.0
778,168.5342854291667,169.08065643333333,58.0,75.0
779,168.5342854291667,169.08872095,54.0,75.0
780,168.5342854291667,169.42339839166667,51.0,121.0
781,169.50202742916667,169.9536403625,58.0,75.0
782,169.50202742916667,169.9536403625,63.0,75.0
783,169.50202742916667,169.96372100833335,54.0,75.0
784,169.50202742916667,170.32057587083335,39.0,108.0
785,170.46976942916666,171.35485013333334,68.0,75.0
786,170.46976942916666,171.36694690833335,59.0,75.0
787,170.46976942916666,171.375011425,63.0,75.0
788,171.43751142916668,171.9738017875,68.0,75.0
789,171.43751142916668,171.99396307916666,63.0,75.0
790,171.43751142916668,172.00001146666668,59.0,75.0
791,170.46976942916666,172.01009211250002,44.0,75.0
792,172.40525342916666,173.2681567125,64.0,75.0
793,172.40525342916666,173.27017284166666,56.0,75.0
794,172.40525342916666,173.28831800416668,59.0,75.0
795,173.37299542916668,173.90525352916669,64.0,75.0
796,173.37299542916668,173.91130191666667,59.0,75.0
797,173.37299542916668,173.91331804583334,56.0,75.0
798,172.40525342916666,173.915334175,40.0,75.0
799,172.88912442916669,174.30444710416668,47.0,75.0
800,173.85686642916667,174.30444710416668,52.0,75.0
801,174.34073742916667,175.16735038750002,58.0,75.0
802,174.34073742916667,175.1794471625,66.0,75.0
803,174.34073742916667,175.18952780833334,61.0,75.0
804,174.34073742916667,175.6350923541667,42.0,75.0
805,174.8246084291667,175.67743106666668,49.0,75.0
806,175.30847942916668,175.77017300833333,58.0,75.0
807,175.30847942916668,175.77218913750002,61.0,75.0
808,175.30847942916668,175.77420526666668,66.0,75.0
809,176.03428592916669,176.0887214166667,66.0,77.0
810,176.27622142916667,177.16533439166668,71.0,77.0
811,176.27622142916667,177.17138277916666,63.0,77.0
812,176.27622142916667,177.17743116666668,66.0,77.0
813,176.27622142916667,178.0342860625,47.0,77.0
814,177.24396342916668,178.125011875,71.0,78.0
815,177.24396342916668,178.14517316666667,63.0,78.0
816,177.24396342916668,178.14517316666667,66.0,78.0
817,176.76009242916666,178.21170542916667,54.0,77.0
818,178.21170542916667,178.8689635375,64.0,79.0
819,178.21170542916667,178.8770280541667,61.0,87.0
820,178.21170542916667,178.89114095833335,57.0,63.0
821,178.21170542916667,178.90726999166668,45.0,83.0
822,179.1794474291667,179.73791520833333,66.0,79.0
823,179.1794474291667,179.75001198333334,61.0,79.0
824,179.1794474291667,179.7520281125,58.0,79.0
825,179.1794474291667,179.77218940416668,42.0,79.0
826,180.14718942916667,180.967754,56.0,79.0
827,180.14718942916667,180.98388303333334,64.0,79.0
828,180.14718942916667,180.9858991625,59.0,79.0
829,181.1149314291667,181.6875121125,56.0,79.0
830,181.1149314291667,181.68952824166666,64.0,79.0
831,181.1149314291667,181.69557662916668,59.0,79.0
832,180.14718942916667,181.6996088875,40.0,79.0
833,181.59880242916668,182.00807665000002,52.0,79.0
834,180.63106042916667,182.05243149166668,47.0,79.0
835,182.08267342916668,182.94356058333335,58.0,79.0
836,182.08267342916668,182.95364122916666,66.0,79.0
837,182.08267342916668,182.95767348750002,61.0,79.0
838,182.56654442916667,183.30041544583335,49.0,79.0
839,182.08267342916668,183.45968965,42.0,79.0
840,183.05041542916666,183.48791545833333,66.0,79.0
841,183.05041542916666,183.4899315875,61.0,79.0
842,183.05041542916666,183.50001223333334,58.0,79.0
843,184.01815742916668,184.91331877916667,59.0,79.0
844,184.01815742916668,184.923399425,51.0,79.0
845,184.01815742916668,184.93549620000002,54.0,79.0
846,184.01815742916668,184.98589942916666,35.0,79.0
847,184.50202842916667,184.98589942916666,42.0,79.0
848,184.98589942916666,185.504044625,54.0,79.0
849,184.98589942916666,185.50606075416667,66.0,79.0
850,184.98589942916666,185.50807688333333,61.0,79.0
851,184.98589942916666,185.51815752916667,46.0,79.0
852,185.95364142916668,186.80041567916666,59.0,79.0
853,185.95364142916668,186.80848019583334,68.0,79.0
854,185.95364142916668,186.82057697083334,63.0,79.0
855,186.92138342916667,187.46775443333334,68.0,79.0
856,185.95364142916668,187.47581895000002,44.0,79.0
857,186.43751242916667,187.47783507916668,51.0,79.0
858,186.92138342916667,187.49194798333335,63.0,79.0
859,186.92138342916667,187.5060608875,59.0,79.0
860,187.88912542916668,188.71170612916669,61.0,79.0
861,187.88912542916668,188.7157383875,52.0,79.0
862,187.88912542916668,188.73791580833336,56.0,79.0
863,187.88912542916668,189.31452875000002,37.0,79.0
864,188.85686742916667,189.3387223,61.0,79.0
865,188.85686742916667,189.34275455833335,52.0,79.0
866,188.85686742916667,189.34477068750002,56.0,79.0
867,188.37299642916668,189.34880294583334,44.0,79.0
868,189.82460942916669,190.66130303333335,66.0,79.0
869,189.82460942916669,190.67339980833333,58.0,79.0
870,189.82460942916669,190.67944819583334,61.0,79.0
871,190.79235142916667,191.3608998541667,66.0,79.0
872,190.79235142916667,191.37501275833336,61.0,79.0
873,190.30848042916668,191.383077275,49.0,79.0
874,190.79235142916667,191.39315792083335,58.0,79.0
875,189.82460942916669,191.42944824583336,42.0,79.0
876,191.7600934291667,192.2137224916667,71.0,79.0
877,191.7600934291667,192.23388378333334,66.0,79.0
878,191.7600934291667,192.24194830000002,63.0,79.0
879,191.7600934291667,192.28831927083334,47.0,79.0
880,192.72783542916667,193.22581933333333,66.0,79.0
881,192.72783542916667,193.2842870791667,46.0,79.0
882,192.72783542916667,193.2883193375,61.0,79.0
883,193.6955774291667,194.50202909583334,68.0,79.0
884,193.6955774291667,194.5060613541667,59.0,79.0
885,193.6955774291667,194.53025490416667,63.0,79.0
886,194.66331942916668,195.23186785416667,68.0,79.0
887,194.17944842916668,195.23791624166668,51.0,79.0
888,194.66331942916668,195.25807753333333,63.0,79.0
889,194.66331942916668,195.2600936625,59.0,79.0
890,193.6955774291667,195.30041624583333,44.0,79.0
891,195.63106142916666,196.44960987083334,64.0,79.0
892,195.63106142916666,196.4717872916667,56.0,79.0
893,195.63106142916666,196.47783567916667,59.0,79.0
894,196.59880342916668,197.12702927083333,64.0,79.0
895,196.59880342916668,197.15122282083334,59.0,79.0
896,196.59880342916668,197.15928733750002,56.0,79.0
897,195.63106142916666,197.16130346666668,40.0,79.0
898,197.08267442916667,197.46977122916667,52.0,79.0
899,196.11493242916669,197.5645293,47.0,79.0
900,197.56654542916667,198.44557774583333,66.0,80.0
901,197.56654542916667,198.4496100041667,58.0,80.0
902,197.56654542916667,198.45767452083334,61.0,80.0
903,198.0504164291667,198.89517455,49.0,80.0
904,198.53428742916668,198.92944874583335,66.0,80.0
905,198.53428742916668,198.93952939166667,61.0,80.0
906,197.56654542916667,198.9496100375,42.0,80.0
907,198.53428742916668,198.95162616666667,58.0,80.0
908,199.50202942916667,200.16936818333335,71.0,80.0
909,199.50202942916667,200.26412625416668,63.0,80.0
910,199.50202942916667,200.27823915833335,66.0,80.0
911,199.50202942916667,200.310497225,47.0,80.0
912,200.46977142916668,201.14920695833334,61.0,80.0
913,200.46977142916668,201.1512230875,46.0,80.0
914,201.43751342916667,202.13307799166668,68.0,82.0
915,201.43751342916667,202.3004167125,59.0,82.0
916,201.43751342916667,202.37501349166666,63.0,82.0
917,202.4052554291667,203.27219097083335,68.0,82.0
918,202.4052554291667,203.2923522625,59.0,82.0
919,202.4052554291667,203.29436839166667,63.0,82.0
920,201.43751342916667,203.43751356250002,44.0,82.0
921,201.92138442916666,203.47783614583335,51.0,82.0
922,203.37299742916667,204.22582006666667,64.0,82.0
923,203.37299742916667,204.2439652291667,56.0,82.0
924,203.37299742916667,204.254045875,59.0,82.0
925,204.3407394291667,204.84477172083334,64.0,82.0
926,204.3407394291667,204.86896527083334,59.0,82.0
927,204.3407394291667,204.8709814,56.0,82.0
928,203.37299742916667,204.94356205,40.0,82.0
929,204.82461042916668,205.26009432916666,52.0,82.0
930,203.85686842916667,205.27823949166668,47.0,82.0
931,205.30848142916668,206.13106212916668,66.0,82.0
932,205.30848142916668,206.13912664583333,58.0,82.0
933,205.30848142916668,206.1471911625,61.0,82.0
934,205.30848142916668,206.68146539166668,42.0,82.0
935,206.27622342916666,206.74799765416668,58.0,82.0
936,206.27622342916666,206.75404604166667,66.0,82.0
937,206.27622342916666,206.75807830000002,61.0,82.0
938,205.79235242916667,206.76009442916668,49.0,82.0
939,206.27622342916666,207.14315897083335,54.0,82.0
940,207.24396542916668,208.13711065,63.0,82.0
941,207.24396542916668,208.13711065,71.0,82.0
942,207.24396542916668,208.15323968333334,66.0,82.0
943,208.21170742916667,208.42541712083334,59.0,82.0
944,208.21170742916667,209.05444942083335,71.0,82.0
945,208.21170742916667,209.06856232500002,63.0,82.0
946,208.21170742916667,209.07864297083336,66.0,82.0
947,208.6955784291667,209.98791722500002,59.0,82.0
948,209.17944942916668,209.9939656125,71.0,82.0
949,209.17944942916668,210.00807851666667,63.0,82.0
950,209.17944942916668,210.012110775,66.0,82.0
951,207.72783642916667,210.05646561666669,54.0,82.0
952,207.24396542916668,210.08670755416668,47.0,82.0
953,210.14719142916667,210.75606243750002,68.0,82.0
954,210.14719142916667,210.77823985833334,59.0,82.0
955,210.14719142916667,210.7822721166667,63.0,82.0
956,211.11493342916668,211.66936895,64.0,82.0
957,211.11493342916668,211.67944959583335,56.0,82.0
958,211.11493342916668,211.68549798333333,59.0,82.0
959,211.11493342916668,211.7479979875,40.0,82.0
960,211.59880442916668,212.07864317083335,47.0,82.0
961,212.08267542916667,212.63307869166667,66.0,82.0
962,212.08267542916667,212.64114320833335,58.0,82.0
963,212.08267542916667,212.64517546666667,61.0,82.0
964,212.08267542916667,212.66936901666668,42.0,82.0
965,212.56654642916666,213.0544496875,49.0,82.0
966,213.05041742916669,213.8528368375,68.0,82.0
967,213.05041742916669,213.86291748333335,59.0,82.0
968,213.05041742916669,213.88509490416666,63.0,82.0
969,213.53428842916668,214.31654654583335,56.0,82.0
970,213.53428842916668,214.40928848750002,51.0,82.0
971,214.01815942916667,214.43751429583335,68.0,82.0
972,214.01815942916667,214.45565945833334,63.0,82.0
973,214.01815942916667,214.46170784583333,59.0,82.0
974,213.05041742916669,214.4697723625,44.0,82.0
975,214.9859014291667,215.53227243333333,40.0,82.0
976,214.9859014291667,215.53428856250002,56.0,82.0
977,214.9859014291667,215.53428856250002,64.0,82.0
978,214.9859014291667,215.5463853375,59.0,82.0
979,215.95364342916668,216.39719184583333,42.0,82.0
980,215.95364342916668,216.44356281666668,58.0,82.0
981,215.95364342916668,216.44557894583335,66.0,82.0
982,215.95364342916668,216.447595075,61.0,82.0
983,216.9213854291667,217.73590161250002,71.0,82.0
984,216.9213854291667,217.73791774166668,63.0,82.0
985,216.9213854291667,217.74195,66.0,82.0
986,216.9213854291667,218.42138552916668,47.0,82.0
987,217.88912742916668,218.48186940416667,71.0,82.0
988,217.88912742916668,218.48993392083335,63.0,82.0
989,217.88912742916668,218.48993392083335,66.0,82.0
990,217.40525642916668,218.81856297500002,54.0,82.0
991,218.37299842916667,218.82057910416668,59.0,83.0
992,218.85686942916666,219.689530775,64.0,83.0
993,218.85686942916666,219.69154690416667,73.0,83.0
994,218.85686942916666,219.70162755,68.0,83.0
995,219.3407404291667,220.25606307083333,56.0,83.0
996,218.85686942916666,220.32864372083336,49.0,83.0
997,219.82461142916668,220.34678888333335,73.0,83.0
998,219.82461142916668,220.35283727083333,68.0,83.0
999,219.82461142916668,220.36493404583334,64.0,83.0
1000,220.79235342916667,221.61695025833333,54.0,84.0
1001,220.79235342916667,221.62703090416667,63.0,84.0
1002,220.79235342916667,221.6310631625,58.0,84.0
1003,220.79235342916667,222.2419503,39.0,84.0
1004,221.2762244291667,222.2600954625,46.0,84.0
1005,221.76009542916668,222.29840191666668,63.0,84.0
1006,221.76009542916668,222.30646643333336,58.0,84.0
1007,221.76009542916668,222.31453095,54.0,84.0
1008,222.24396642916668,222.7439664625,51.0,84.0
1009,222.72783742916667,223.54436974166669,58.0,84.0
1010,222.72783742916667,223.548402,66.0,84.0
1011,222.72783742916667,223.56453103333334,61.0,84.0
1012,222.72783742916667,224.23590204583334,42.0,84.0
1013,223.69557942916668,224.26009559583335,66.0,84.0
1014,223.69557942916668,224.26412785416667,61.0,84.0
1015,223.69557942916668,224.26614398333334,58.0,84.0
1016,223.2117084291667,224.4979988375,49.0,84.0
1017,224.17945042916668,224.5645311,54.0,84.0
1018,224.66332142916667,225.53025697083334,68.0,84.0
1019,224.66332142916667,225.5383214875,59.0,84.0
1020,224.66332142916667,225.54638600416666,63.0,84.0
1021,225.6310634291667,226.1613054,68.0,84.0
1022,225.14719242916667,226.16735378750002,51.0,84.0
1023,225.6310634291667,226.197595725,63.0,84.0
1024,225.6310634291667,226.19961185416668,59.0,84.0
1025,224.66332142916667,226.245982825,44.0,84.0
1026,226.59880542916667,226.67743446666668,68.0,85.0
1027,226.59880542916667,226.68751511250002,63.0,85.0
1028,226.59880542916667,226.6996118875,59.0,85.0
1029,226.59880542916667,226.7238054375,44.0,85.0
1030,226.84074092916669,226.98186997083334,44.0,85.0
1031,226.84074092916669,226.98590222916667,68.0,85.0
1032,226.84074092916669,226.98791835833333,63.0,85.0
1033,226.84074092916669,227.0040473916667,59.0,85.0
1034,228.53428942916668,228.8770313875,64.0,86.0
1035,228.53428942916668,228.88106364583334,56.0,86.0
1036,228.53428942916668,228.88711203333335,59.0,86.0
1037,229.01816042916667,229.89114435833335,64.0,79.0
1038,229.01816042916667,229.91937016666668,56.0,79.0
1039,229.01816042916667,229.923402425,59.0,79.0
1040,229.50203142916666,230.12501534166668,52.0,81.0
1041,229.98590242916669,230.2036443791667,64.0,81.0
1042,229.98590242916669,230.21574115416666,56.0,81.0
1043,229.98590242916669,230.237918575,59.0,81.0
1044,228.53428942916668,230.28832180416669,40.0,86.0
1045,229.50203142916666,230.55646698333334,47.0,81.0
1046,230.46977342916668,231.30243477500002,58.0,81.0
1047,230.46977342916668,231.30243477500002,66.0,81.0
1048,230.46977342916668,231.31049929166667,61.0,81.0
1049,230.95364442916667,231.71372512500002,49.0,81.0
1050,230.46977342916668,231.83267674583334,42.0,81.0
1051,231.43751542916667,231.88509610416668,66.0,81.0
1052,231.43751542916667,231.9012251375,61.0,81.0
1053,231.43751542916667,231.90727352500002,58.0,81.0
1054,232.40525742916668,233.25001555,63.0,81.0
1055,232.40525742916668,233.28832200416667,54.0,81.0
1056,232.40525742916668,233.2923542625,58.0,81.0
1057,232.40525742916668,233.84678978333335,39.0,81.0
1058,233.37299942916667,233.88509623750002,54.0,81.0
1059,233.37299942916667,233.88509623750002,63.0,81.0
1060,233.37299942916667,233.88912849583335,58.0,81.0
1061,232.88912842916668,233.91937043333334,46.0,81.0
1062,233.8568704291667,234.3528382041667,51.0,81.0
1063,234.34074142916668,234.3528382041667,51.0,81.0
1064,234.34074142916668,234.4173543375,68.0,81.0
1065,234.34074142916668,234.43146724166667,63.0,81.0
1066,234.34074142916668,234.4496124041667,56.0,81.0
1067,234.34074142916668,234.45162853333335,59.0,81.0
1068,234.34074142916668,234.45566079166667,44.0,81.0
1069,234.58267692916667,234.66130596666667,68.0,81.0
1070,234.58267692916667,234.67541887083334,63.0,81.0
1071,234.58267692916667,234.69356403333333,59.0,81.0
1072,234.58267692916667,234.69558016250002,44.0,81.0
1073,234.58267692916667,234.70767693750003,56.0,81.0
1074,234.58267692916667,234.72380597083335,51.0,81.0
1075,235.0665479291667,235.12703180416668,68.0,81.0
1076,235.0665479291667,235.14920922500002,63.0,81.0
1077,235.0665479291667,235.15122535416668,51.0,81.0
1078,235.0665479291667,235.15122535416668,59.0,81.0
1079,235.0665479291667,235.15324148333335,44.0,81.0
1080,235.0665479291667,235.16130600000002,56.0,81.0
1081,235.30848342916667,235.39316085416667,68.0,81.0
1082,235.30848342916667,235.40122537083334,63.0,81.0
1083,235.30848342916667,235.41130601666669,59.0,81.0
1084,235.30848342916667,235.42541892083335,44.0,81.0
1085,235.30848342916667,235.42743505,56.0,81.0
1086,235.30848342916667,235.4334834375,51.0,81.0
1087,235.79235442916666,235.8689673375,68.0,81.0
1088,235.79235442916666,235.8810641125,59.0,81.0
1089,235.79235442916666,235.8810641125,63.0,81.0
1090,235.79235442916666,235.91130605,44.0,81.0
1091,235.79235442916666,235.91533830833333,51.0,81.0
1092,235.79235442916666,235.9193705666667,56.0,81.0
1093,236.03428992916668,236.18146735833335,68.0,81.0
1094,236.03428992916668,236.19356413333335,63.0,81.0
1095,236.03428992916668,236.20162865,56.0,81.0
1096,236.03428992916668,236.20364477916667,51.0,81.0
1097,236.03428992916668,236.20969316666668,59.0,81.0
1098,236.03428992916668,236.213725425,44.0,81.0
1099,238.59880622916668,242.20162905,56.0,80.0
1100,238.0826771625,242.21574195416667,63.0,80.0
1101,238.10888684166667,242.21775808333334,59.0,80.0
1102,238.3084836291667,242.2197742125,51.0,80.0
1103,238.15122555416667,242.2217903416667,68.0,80.0
1104,238.10082232500002,242.23791937500002,44.0,80.0
