,start,end,pitch,velocity
0,47.53333333333333,47.88333333333333,75.0,112.0
1,48.03333333333333,48.8125,75.0,115.0
2,49.03333333333333,49.38333333333333,70.0,109.0
3,49.53333333333333,50.020833333333336,68.0,109.0
4,50.03333333333333,50.33958333333333,66.0,96.0
5,50.53333333333333,51.239583333333336,63.0,109.0
6,51.53333333333333,52.197916666666664,73.0,104.0
7,52.28333333333333,52.420833333333334,70.0,115.0
8,52.53333333333333,52.6625,73.0,112.0
9,52.78333333333333,52.90833333333333,75.0,118.0
10,53.03333333333333,53.43125,77.0,112.0
11,53.53333333333333,55.24583333333333,75.0,115.0
12,55.53333333333333,55.86666666666667,78.0,118.0
13,56.03333333333333,56.9,78.0,115.0
14,57.03333333333333,57.422916666666666,77.0,109.0
15,57.53333333333333,57.91041666666666,75.0,115.0
16,58.03333333333333,58.1625,77.0,106.0
17,58.28333333333333,58.4,75.0,109.0
18,58.53333333333333,59.175,73.0,104.0
19,59.53333333333333,59.67916666666667,70.0,112.0
20,59.78333333333333,60.0875,70.0,115.0
21,60.28333333333333,60.425,75.0,109.0
22,60.53333333333333,60.84791666666666,75.0,112.0
23,61.03333333333333,61.395833333333336,68.0,112.0
24,61.53333333333333,63.2875,70.0,112.0
25,63.53333333333333,64.1625,70.0,115.0
26,64.28333333333333,64.41041666666666,75.0,101.0
27,64.53333333333333,65.12708333333333,75.0,112.0
28,65.28333333333333,65.38958333333333,75.0,106.0
29,65.53333333333333,65.90625,75.0,112.0
30,66.03333333333333,66.36875,70.0,104.0
31,66.53333333333333,67.28541666666666,68.0,115.0
32,67.53333333333333,67.65,70.0,115.0
33,67.78333333333333,68.36666666666666,70.0,115.0
34,68.53333333333333,68.89583333333333,75.0,112.0
35,69.03333333333333,69.20208333333333,75.0,115.0
36,69.28333333333333,69.4,75.0,106.0
37,69.53333333333333,69.81875,70.0,112.0
38,69.78333333333333,69.92083333333333,71.0,101.0
39,70.03333333333333,70.33333333333333,70.0,112.0
40,70.53333333333333,71.23541666666667,68.0,106.0
41,71.53333333333333,72.24791666666667,65.0,115.0
42,72.28333333333333,72.45416666666667,68.0,106.0
43,72.53333333333333,72.85,70.0,109.0
44,73.03333333333333,73.35833333333333,70.0,109.0
45,73.53333333333333,73.84375,73.0,109.0
46,74.03333333333333,74.35625,65.0,112.0
47,74.53333333333333,75.34583333333333,63.0,109.0
48,75.53333333333333,75.65,68.0,115.0
49,75.78333333333333,76.12708333333333,68.0,112.0
50,76.28333333333333,76.43125,70.0,106.0
51,76.53333333333333,76.8625,66.0,112.0
52,77.03333333333333,77.34166666666667,65.0,112.0
53,77.53333333333333,80.3125,63.0,115.0
54,81.53333333333333,81.88333333333333,75.0,112.0
55,82.03333333333333,82.8125,75.0,115.0
56,83.03333333333333,83.38333333333333,70.0,109.0
57,83.53333333333333,84.02083333333333,68.0,109.0
58,84.03333333333333,84.33958333333334,66.0,96.0
59,84.53333333333333,85.23958333333333,63.0,109.0
60,85.53333333333333,86.19791666666667,73.0,104.0
61,86.28333333333333,86.42083333333333,70.0,115.0
62,86.53333333333333,86.6625,73.0,112.0
63,86.78333333333333,86.90833333333333,75.0,118.0
64,87.03333333333333,87.43125,77.0,112.0
65,87.53333333333333,89.24583333333334,75.0,115.0
66,89.53333333333333,89.86666666666666,75.0,118.0
67,90.03333333333333,90.9,78.0,115.0
68,91.03333333333333,91.42291666666667,77.0,109.0
69,91.53333333333333,91.91041666666666,75.0,115.0
70,92.03333333333333,92.1625,77.0,106.0
71,92.28333333333333,92.4,75.0,109.0
72,92.53333333333333,93.175,73.0,104.0
73,93.53333333333333,93.67916666666666,70.0,112.0
74,93.78333333333333,94.0875,70.0,115.0
75,94.28333333333333,94.425,75.0,109.0
76,94.53333333333333,94.84791666666666,75.0,112.0
77,95.03333333333333,95.39583333333333,68.0,112.0
78,95.53333333333333,97.2875,70.0,112.0
79,97.53333333333333,98.1625,70.0,115.0
80,98.28333333333333,98.41041666666666,75.0,101.0
81,98.53333333333333,99.12708333333333,75.0,112.0
82,99.28333333333333,99.38958333333333,75.0,106.0
83,99.53333333333333,99.90625,75.0,112.0
84,100.03333333333333,100.36875,70.0,104.0
85,100.53333333333333,101.28541666666666,68.0,115.0
86,101.53333333333333,101.65,70.0,115.0
87,101.78333333333333,102.36666666666666,70.0,115.0
88,102.53333333333333,102.89583333333333,75.0,112.0
89,103.03333333333333,103.20208333333333,75.0,115.0
90,103.28333333333333,103.39999999999999,75.0,106.0
91,103.53333333333333,103.81875,70.0,112.0
92,103.78333333333333,103.92083333333333,71.0,101.0
93,104.03333333333333,104.33333333333333,70.0,112.0
94,104.53333333333333,105.23541666666667,68.0,106.0
95,105.53333333333333,106.24791666666667,65.0,115.0
96,106.28333333333333,106.45416666666667,68.0,106.0
97,106.53333333333333,106.85,70.0,109.0
98,107.03333333333333,107.35833333333333,70.0,109.0
99,107.53333333333333,107.84375,73.0,109.0
100,108.03333333333333,108.35625,65.0,112.0
101,108.53333333333333,109.34583333333333,63.0,109.0
102,109.53333333333333,109.64999999999999,68.0,115.0
103,109.78333333333333,110.12708333333333,68.0,112.0
104,110.28333333333333,110.43124999999999,70.0,106.0
105,110.53333333333333,110.8625,66.0,112.0
106,111.03333333333333,111.34166666666667,65.0,112.0
107,111.53333333333333,114.77916666666667,63.0,115.0
108,145.53333333333333,145.69583333333333,75.0,106.0
109,145.78333333333333,145.9,75.0,115.0
110,146.03333333333333,146.1625,75.0,118.0
111,146.28333333333333,146.46458333333334,75.0,118.0
112,146.53333333333333,146.875,80.0,112.0
113,147.03333333333333,147.19583333333333,82.0,115.0
114,147.28333333333333,147.42708333333334,80.0,112.0
115,147.53333333333333,147.85833333333332,78.0,118.0
116,148.03333333333333,148.7125,78.0,118.0
117,149.03333333333333,149.18333333333334,77.0,112.0
118,149.28333333333333,149.40416666666667,75.0,112.0
119,149.53333333333333,149.84166666666667,73.0,112.0
120,150.03333333333333,150.34375,70.0,115.0
121,150.53333333333333,150.66875,73.0,112.0
122,150.78333333333333,150.90833333333333,75.0,115.0
123,151.03333333333333,151.42083333333332,77.0,112.0
124,151.53333333333333,153.06041666666667,75.0,115.0
125,153.53333333333333,153.7375,75.0,115.0
126,153.78333333333333,153.91875,80.0,115.0
127,154.03333333333333,154.88333333333333,78.0,115.0
128,155.03333333333333,155.38125,77.0,112.0
129,155.53333333333333,155.89583333333334,75.0,115.0
130,156.03333333333333,156.17083333333332,77.0,109.0
131,156.28333333333333,156.39791666666667,75.0,112.0
132,156.53333333333333,157.06041666666667,73.0,115.0
133,157.53333333333333,157.64791666666667,70.0,115.0
134,157.78333333333333,158.075,70.0,115.0
135,158.28333333333333,158.40833333333333,75.0,115.0
136,158.53333333333333,158.8375,75.0,115.0
137,159.03333333333333,159.31875,68.0,115.0
138,159.53333333333333,161.42708333333334,70.0,112.0
139,161.53333333333333,162.1625,70.0,115.0
140,162.28333333333333,162.41041666666666,75.0,101.0
141,162.53333333333333,163.12708333333333,75.0,112.0
142,163.28333333333333,163.38958333333332,75.0,106.0
143,163.53333333333333,163.90625,75.0,112.0
144,164.03333333333333,164.36875,70.0,104.0
145,164.53333333333333,165.28541666666666,68.0,115.0
146,165.53333333333333,165.65,70.0,115.0
147,165.78333333333333,166.27916666666667,70.0,115.0
148,166.28333333333333,166.52916666666667,70.0,114.0
149,166.53333333333333,166.89583333333334,75.0,112.0
150,167.03333333333333,167.20208333333332,75.0,115.0
151,167.28333333333333,167.4,75.0,106.0
152,167.53333333333333,167.81875,70.0,112.0
153,167.78333333333333,167.92083333333332,71.0,101.0
154,168.03333333333333,168.33333333333334,70.0,112.0
155,168.53333333333333,169.23541666666665,68.0,106.0
156,169.53333333333333,170.24791666666667,65.0,115.0
157,170.28333333333333,170.45416666666665,68.0,106.0
158,170.53333333333333,170.85,70.0,109.0
159,171.03333333333333,171.35833333333332,70.0,109.0
160,171.53333333333333,171.84375,73.0,109.0
161,172.03333333333333,172.35625,65.0,112.0
162,172.53333333333333,173.34583333333333,63.0,109.0
163,173.53333333333333,173.65,68.0,115.0
164,173.78333333333333,174.12708333333333,68.0,112.0
165,174.28333333333333,174.43125,70.0,106.0
166,174.53333333333333,174.8625,66.0,112.0
167,175.03333333333333,175.34166666666667,65.0,112.0
168,175.53333333333333,178.77916666666667,63.0,115.0
169,179.53333333333333,179.69583333333333,75.0,106.0
170,179.78333333333333,179.9,75.0,115.0
171,180.03333333333333,180.1625,75.0,118.0
172,180.28333333333333,180.46458333333334,75.0,118.0
173,180.53333333333333,180.875,80.0,112.0
174,181.03333333333333,181.19583333333333,82.0,115.0
175,181.28333333333333,181.42708333333334,80.0,112.0
176,181.53333333333333,181.85833333333332,78.0,118.0
177,182.03333333333333,182.7125,78.0,118.0
178,183.03333333333333,183.18333333333334,77.0,112.0
179,183.28333333333333,183.40416666666667,75.0,112.0
180,183.53333333333333,183.84166666666667,73.0,112.0
181,184.03333333333333,184.34375,70.0,115.0
182,184.53333333333333,184.66875,73.0,112.0
183,184.78333333333333,184.90833333333333,75.0,115.0
184,185.03333333333333,185.42083333333332,77.0,112.0
185,185.53333333333333,187.06041666666667,75.0,115.0
186,187.53333333333333,187.7375,75.0,115.0
187,187.78333333333333,187.91875,80.0,115.0
188,188.03333333333333,188.88333333333333,78.0,115.0
189,189.03333333333333,189.38125,77.0,112.0
190,189.53333333333333,189.89583333333334,75.0,115.0
191,190.03333333333333,190.17083333333332,77.0,109.0
192,190.28333333333333,190.39791666666667,75.0,112.0
193,190.53333333333333,191.06041666666667,73.0,115.0
194,191.53333333333333,191.64791666666667,70.0,115.0
195,191.78333333333333,192.075,70.0,115.0
196,192.28333333333333,192.40833333333333,75.0,115.0
197,192.53333333333333,192.8375,75.0,115.0
198,193.03333333333333,193.31875,68.0,115.0
199,193.53333333333333,195.42708333333334,70.0,112.0
200,195.53333333333333,196.1625,70.0,115.0
201,196.28333333333333,196.41041666666666,75.0,101.0
202,196.53333333333333,197.12708333333333,75.0,112.0
203,197.28333333333333,197.38958333333332,75.0,106.0
204,197.53333333333333,197.90625,75.0,112.0
205,198.03333333333333,198.36875,70.0,104.0
206,198.53333333333333,199.28541666666666,68.0,115.0
207,199.53333333333333,199.65,70.0,115.0
208,199.78333333333333,200.27916666666667,70.0,115.0
209,200.28333333333333,200.52916666666667,70.0,114.0
210,200.53333333333333,200.89583333333334,75.0,112.0
211,201.03333333333333,201.20208333333332,75.0,115.0
212,201.28333333333333,201.4,75.0,106.0
213,201.53333333333333,201.81875,70.0,112.0
214,201.78333333333333,201.92083333333332,71.0,101.0
215,202.03333333333333,202.33333333333334,70.0,112.0
216,202.53333333333333,203.23541666666665,68.0,106.0
217,203.53333333333333,204.24791666666667,65.0,115.0
218,204.28333333333333,204.45416666666665,68.0,106.0
219,204.53333333333333,204.85,70.0,109.0
220,205.03333333333333,205.35833333333332,70.0,109.0
221,205.53333333333333,205.84375,73.0,109.0
222,206.03333333333333,206.35625,65.0,112.0
223,206.53333333333333,207.34583333333333,63.0,109.0
224,207.53333333333333,207.65,68.0,115.0
225,207.78333333333333,208.12708333333333,68.0,112.0
226,208.28333333333333,208.43125,70.0,106.0
227,208.53333333333333,208.86249999999998,66.0,112.0
228,209.03333333333333,209.34166666666667,65.0,112.0
229,209.53333333333333,212.77916666666667,63.0,115.0
230,213.53333333333333,213.69583333333333,75.0,106.0
231,213.78333333333333,213.9,75.0,115.0
232,214.03333333333333,214.1625,75.0,118.0
233,214.28333333333333,214.46458333333334,75.0,118.0
234,214.53333333333333,214.875,80.0,112.0
235,215.03333333333333,215.19583333333333,82.0,115.0
236,215.28333333333333,215.42708333333334,80.0,112.0
237,215.53333333333333,215.85833333333332,78.0,118.0
238,216.03333333333333,216.7125,78.0,118.0
239,217.03333333333333,217.18333333333334,77.0,112.0
240,217.28333333333333,217.40416666666667,75.0,112.0
241,217.53333333333333,217.84166666666667,73.0,112.0
242,218.03333333333333,218.34375,70.0,115.0
243,218.53333333333333,218.66875,73.0,112.0
244,218.78333333333333,218.90833333333333,75.0,115.0
245,219.03333333333333,219.42083333333332,77.0,112.0
246,219.53333333333333,221.06041666666667,75.0,115.0
247,221.53333333333333,221.73749999999998,75.0,115.0
248,221.78333333333333,221.91875,80.0,115.0
249,222.03333333333333,222.88333333333333,78.0,115.0
250,223.03333333333333,223.38125,77.0,112.0
251,223.53333333333333,223.89583333333334,75.0,115.0
252,224.03333333333333,224.17083333333332,77.0,109.0
253,224.28333333333333,224.39791666666667,75.0,112.0
254,224.53333333333333,225.06041666666667,73.0,115.0
255,225.53333333333333,225.64791666666667,70.0,115.0
256,225.78333333333333,226.075,70.0,115.0
257,226.28333333333333,226.40833333333333,75.0,115.0
258,226.53333333333333,226.8375,73.0,115.0
259,227.03333333333333,227.31875,68.0,115.0
260,227.53333333333333,229.42708333333334,70.0,112.0
261,229.53333333333333,230.1375,75.0,112.0
262,230.28333333333333,230.42499999999998,75.0,115.0
263,230.53333333333333,230.91875,75.0,112.0
264,231.03333333333333,231.38958333333332,78.0,115.0
265,231.53333333333333,231.90208333333334,77.0,112.0
266,232.03333333333333,232.36875,75.0,118.0
267,232.53333333333333,233.23958333333334,73.0,112.0
268,233.53333333333333,234.25833333333333,70.0,112.0
269,234.53333333333333,234.99166666666667,70.0,112.0
270,235.03333333333333,235.30208333333334,75.0,112.0
271,235.53333333333333,235.8875,75.0,115.0
272,236.03333333333333,236.27916666666667,70.0,107.0
273,236.28333333333333,236.52916666666667,68.0,106.0
274,236.53333333333333,237.38541666666666,66.0,112.0
275,237.53333333333333,238.16041666666666,65.0,115.0
276,238.28333333333333,238.41458333333333,65.0,112.0
277,238.53333333333333,238.875,65.0,115.0
278,239.03333333333333,239.34166666666667,68.0,112.0
279,239.53333333333333,240.52916666666667,70.0,112.0
280,240.53333333333333,240.81458333333333,73.0,109.0
281,241.03333333333333,241.3375,75.0,115.0
282,241.53333333333333,241.82708333333332,78.0,115.0
283,242.03333333333333,244.02916666666667,78.0,115.0
284,244.1625,244.91041666666666,75.0,115.0
285,245.21666666666667,245.9375,80.0,118.0
286,246.0875,247.08333333333334,80.0,118.0
287,247.08541666666667,247.99166666666667,82.0,118.0
288,248.08958333333334,248.86458333333334,78.0,118.0
289,248.84583333333333,249.575,80.0,115.0
290,249.53125,250.48541666666665,78.0,121.0
291,250.4625,252.00416666666666,77.0,115.0
292,252.53333333333333,256.24791666666664,75.0,118.0
