,start,end,pitch,velocity
0,9.510416666666666,10.38125,51.0,100.0
1,10.525,11.114583333333334,51.0,111.0
2,10.520833333333334,11.11875,54.0,114.0
3,9.5,11.177083333333334,39.0,105.0
4,10.520833333333334,11.29375,58.0,108.0
5,10.010416666666666,11.38125,46.0,89.0
6,11.291666666666666,11.547916666666666,37.0,105.0
7,11.302083333333334,11.589583333333334,49.0,108.0
8,11.55,11.727083333333333,51.0,114.0
9,11.5375,11.766666666666666,39.0,102.0
10,12.002083333333333,12.470833333333333,54.0,100.0
11,12.0125,13.11875,51.0,100.0
12,11.997916666666667,13.38125,39.0,100.0
13,12.460416666666667,13.385416666666666,42.0,87.0
14,13.035416666666666,13.433333333333334,54.0,105.0
15,12.002083333333333,13.439583333333333,46.0,87.0
16,13.0375,13.49375,58.0,89.0
17,13.5375,14.322916666666666,51.0,120.0
18,14.533333333333333,15.0375,51.0,108.0
19,14.527083333333334,15.0375,54.0,117.0
20,13.525,15.143749999999999,39.0,111.0
21,14.527083333333334,15.377083333333333,58.0,114.0
22,15.299999999999999,15.466666666666667,37.0,102.0
23,15.29375,15.597916666666666,49.0,105.0
24,14.010416666666666,15.610416666666666,46.0,66.0
25,15.577083333333333,15.672916666666666,40.0,102.0
26,15.547916666666666,15.729166666666666,51.0,105.0
27,15.572916666666666,15.745833333333334,39.0,105.0
28,16.014583333333334,17.15833333333333,46.0,73.0
29,16.010416666666668,17.166666666666668,39.0,102.0
30,16.027083333333334,17.185416666666665,51.0,94.0
31,16.03125,17.1875,58.0,105.0
32,16.025,17.18958333333333,54.0,102.0
33,17.53333333333333,17.625,39.0,109.0
34,17.53333333333333,17.827083333333334,58.0,109.0
35,17.53333333333333,17.835416666666667,63.0,106.0
36,17.53333333333333,17.9,66.0,106.0
37,18.53333333333333,18.852083333333333,51.0,106.0
38,18.53333333333333,18.94375,58.0,112.0
39,18.53333333333333,19.052083333333332,63.0,109.0
40,18.53333333333333,19.05625,66.0,112.0
41,18.53333333333333,19.066666666666666,70.0,106.0
42,19.53333333333333,19.891666666666666,63.0,115.0
43,19.53333333333333,19.91875,59.0,113.0
44,20.28333333333333,20.43125,59.0,88.0
45,20.03333333333333,20.566666666666666,54.0,67.0
46,19.53333333333333,20.64375,47.0,120.0
47,20.53333333333333,20.84375,59.0,117.0
48,20.53333333333333,20.86875,63.0,115.0
49,20.78333333333333,20.902083333333334,47.0,46.0
50,20.53333333333333,20.93125,66.0,112.0
51,20.78333333333333,21.06458333333333,54.0,91.0
52,21.03333333333333,21.260416666666668,59.0,120.0
53,21.53333333333333,22.052083333333332,61.0,109.0
54,21.53333333333333,22.054166666666667,58.0,109.0
55,22.28333333333333,22.414583333333333,58.0,87.0
56,22.28333333333333,22.41875,61.0,80.0
57,22.03333333333333,22.60625,53.0,71.0
58,22.53333333333333,22.83125,58.0,118.0
59,22.53333333333333,22.841666666666665,61.0,115.0
60,21.53333333333333,22.879166666666666,46.0,109.0
61,22.78333333333333,22.914583333333333,53.0,101.0
62,23.03333333333333,23.4,58.0,118.0
63,23.53333333333333,23.610416666666666,39.0,109.0
64,23.53333333333333,23.7375,58.0,109.0
65,23.53333333333333,23.777083333333334,63.0,109.0
66,24.28333333333333,24.383333333333333,63.0,101.0
67,24.28333333333333,24.389583333333334,66.0,104.0
68,24.53333333333333,24.791666666666668,66.0,115.0
69,24.53333333333333,24.8375,63.0,112.0
70,24.78333333333333,25.058333333333334,58.0,112.0
71,24.03333333333333,25.089583333333334,51.0,96.0
72,25.03333333333333,25.19375,65.0,118.0
73,25.53333333333333,26.25,59.0,46.0
74,25.53333333333333,26.258333333333333,63.0,80.0
75,26.03333333333333,26.660416666666666,54.0,76.0
76,26.53333333333333,26.78125,59.0,120.0
77,26.53333333333333,27.097916666666666,63.0,115.0
78,25.53333333333333,27.102083333333333,47.0,117.0
79,26.78333333333333,27.37708333333333,54.0,104.0
80,27.03333333333333,27.379166666666666,59.0,120.0
81,27.28333333333333,27.452083333333334,63.0,104.0
82,27.53333333333333,28.358333333333334,59.0,107.0
83,27.53333333333333,28.422916666666666,63.0,106.0
84,28.03333333333333,28.575,54.0,87.0
85,27.53333333333333,28.697916666666668,47.0,113.0
86,28.53333333333333,28.797916666666666,59.0,120.0
87,28.53333333333333,28.910416666666666,63.0,115.0
88,28.78333333333333,28.991666666666667,54.0,106.0
89,28.53333333333333,29.05,66.0,106.0
90,29.03333333333333,29.070833333333333,63.0,64.0
91,29.03333333333333,29.3,59.0,123.0
92,29.28333333333333,29.416666666666668,63.0,99.0
93,29.53333333333333,29.818749999999998,56.0,101.0
94,29.53333333333333,29.820833333333333,44.0,112.0
95,29.53333333333333,29.829166666666666,63.0,101.0
96,30.03333333333333,30.597916666666666,56.0,109.0
97,30.03333333333333,30.614583333333332,63.0,115.0
98,30.78333333333333,30.875,56.0,104.0
99,30.53333333333333,30.90833333333333,51.0,96.0
100,30.78333333333333,31.083333333333332,60.0,115.0
101,30.78333333333333,31.129166666666666,63.0,112.0
102,31.03333333333333,31.239583333333332,44.0,101.0
103,31.28333333333333,31.35625,56.0,101.0
104,31.53333333333333,31.795833333333334,58.0,109.0
105,31.53333333333333,32.045833333333334,65.0,106.0
106,31.78333333333333,32.3125,53.0,99.0
107,32.03333333333333,32.53125,58.0,109.0
108,31.53333333333333,32.8375,46.0,112.0
109,32.53333333333333,32.93541666666667,53.0,115.0
110,32.28333333333333,33.079166666666666,65.0,118.0
111,33.03333333333333,33.34166666666667,62.0,113.0
112,32.78333333333333,33.36666666666667,58.0,118.0
113,33.28333333333333,33.42916666666667,70.0,78.0
114,33.55,36.53541666666666,75.0,82.0
115,33.516666666666666,36.55625,70.0,55.0
116,33.43125,36.56875,66.0,96.0
117,33.4625,36.572916666666664,39.0,80.0
118,33.375,36.5875,63.0,89.0
119,37.552083333333336,41.05,70.0,87.0
120,37.37291666666667,41.05625,58.0,82.0
121,37.4375,41.06875,61.0,85.0
122,37.525,41.077083333333334,65.0,64.0
123,37.46458333333333,41.0875,46.0,78.0
124,41.3625,41.60625,58.0,91.0
125,41.425,41.7875,61.0,101.0
126,41.47708333333333,41.78958333333333,65.0,106.0
127,41.5375,41.82083333333333,70.0,109.0
128,42.03333333333333,42.36666666666667,58.0,109.0
129,42.28333333333333,42.4,61.0,104.0
130,41.74375,42.55833333333333,53.0,64.0
131,42.53333333333333,42.81875,58.0,112.0
132,41.49375,42.87708333333333,46.0,109.0
133,42.78333333333333,42.90625,53.0,82.0
134,42.53333333333333,43.00833333333333,61.0,115.0
135,42.53333333333333,43.110416666666666,65.0,115.0
136,43.03333333333333,43.38125,58.0,109.0
137,43.53333333333333,43.610416666666666,39.0,109.0
138,43.53333333333333,43.791666666666664,58.0,106.0
139,43.53333333333333,43.895833333333336,63.0,109.0
140,44.28333333333333,44.81666666666666,58.0,101.0
141,44.53333333333333,44.854166666666664,63.0,112.0
142,44.78333333333333,44.979166666666664,66.0,115.0
143,45.03333333333333,45.266666666666666,58.0,64.0
144,45.28333333333333,45.40833333333333,63.0,99.0
145,44.28333333333333,45.420833333333334,51.0,1.0
146,45.53125,46.93958333333333,58.0,106.0
147,45.52916666666667,46.94166666666666,51.0,104.0
148,45.525,47.025,63.0,104.0
149,45.53333333333333,47.04375,75.0,80.0
150,47.53333333333333,48.22291666666666,63.0,89.0
151,47.53333333333333,48.2625,58.0,80.0
152,47.53333333333333,48.81458333333333,51.0,96.0
153,48.53333333333333,48.99583333333333,66.0,101.0
154,48.53333333333333,49.016666666666666,63.0,99.0
155,48.53333333333333,49.02708333333333,58.0,96.0
156,49.53333333333333,49.91875,63.0,94.0
157,49.53333333333333,49.92916666666667,66.0,96.0
158,50.53333333333333,50.75833333333333,58.0,104.0
159,50.53333333333333,51.08125,63.0,109.0
160,50.53333333333333,51.14375,66.0,101.0
161,51.03333333333333,51.329166666666666,58.0,91.0
162,51.53333333333333,51.9875,61.0,91.0
163,51.53333333333333,52.10208333333333,58.0,99.0
164,52.53333333333333,52.83541666666667,65.0,101.0
165,52.53333333333333,52.856249999999996,61.0,106.0
166,52.53333333333333,52.858333333333334,58.0,104.0
167,51.53333333333333,52.9875,46.0,104.0
168,53.53333333333333,54.05,63.0,99.0
169,53.53333333333333,54.06875,66.0,94.0
170,53.53333333333333,54.15,58.0,94.0
171,53.53333333333333,54.62083333333333,51.0,99.0
172,54.53333333333333,55.05416666666667,63.0,109.0
173,54.53333333333333,55.1,66.0,101.0
174,55.03333333333333,55.12083333333333,58.0,96.0
175,55.53333333333333,56.13333333333333,66.0,89.0
176,55.53333333333333,56.239583333333336,63.0,104.0
177,55.53333333333333,56.35,59.0,88.0
178,56.53333333333333,57.34583333333333,66.0,104.0
179,56.53333333333333,57.40416666666667,63.0,106.0
180,57.53333333333333,58.24166666666667,66.0,109.0
181,57.53333333333333,58.275,63.0,106.0
182,58.53333333333333,58.75416666666666,59.0,107.0
183,58.53333333333333,58.90416666666667,63.0,106.0
184,55.53333333333333,58.9375,47.0,68.0
185,58.53333333333333,59.108333333333334,66.0,104.0
186,59.03333333333333,59.18541666666667,59.0,107.0
187,59.53333333333333,60.270833333333336,58.0,91.0
188,59.53333333333333,60.27291666666667,65.0,99.0
189,59.53333333333333,60.275,61.0,82.0
190,60.53333333333333,61.15416666666667,61.0,85.0
191,60.53333333333333,61.1625,65.0,99.0
192,60.53333333333333,61.327083333333334,58.0,94.0
193,61.53333333333333,62.00625,65.0,101.0
194,61.53333333333333,62.020833333333336,58.0,104.0
195,62.53333333333333,62.86875,58.0,99.0
196,62.53333333333333,62.93125,61.0,101.0
197,62.53333333333333,63.072916666666664,65.0,99.0
198,62.53333333333333,63.16041666666666,53.0,85.0
199,59.53333333333333,63.27291666666667,46.0,106.0
200,63.03333333333333,63.39791666666667,58.0,109.0
201,63.53333333333333,64.2,63.0,104.0
202,63.53333333333333,64.20833333333333,66.0,104.0
203,63.53333333333333,64.2125,58.0,85.0
204,64.53333333333333,65.21666666666667,66.0,104.0
205,64.53333333333333,65.21875,63.0,109.0
206,64.53333333333333,65.275,58.0,106.0
207,65.53333333333333,66.05208333333333,63.0,109.0
208,65.53333333333333,66.15625,58.0,101.0
209,63.53333333333333,66.24166666666666,51.0,99.0
210,65.53333333333333,66.40208333333334,66.0,106.0
211,66.53333333333333,67.21041666666666,56.0,101.0
212,66.53333333333333,67.3,63.0,106.0
213,66.53333333333333,67.32291666666667,44.0,104.0
214,67.53333333333333,68.2,63.0,104.0
215,67.53333333333333,68.20833333333333,66.0,104.0
216,67.53333333333333,68.2125,58.0,85.0
217,68.53333333333333,69.21666666666667,66.0,104.0
218,68.53333333333333,69.21875,63.0,109.0
219,68.53333333333333,69.275,58.0,106.0
220,69.53333333333333,70.05208333333333,63.0,109.0
221,69.53333333333333,70.15625,58.0,101.0
222,67.53333333333333,70.24166666666666,51.0,99.0
223,69.53333333333333,70.40208333333334,66.0,106.0
224,70.53333333333333,71.21041666666666,56.0,101.0
225,70.53333333333333,71.3,63.0,106.0
226,70.53333333333333,71.32291666666667,44.0,104.0
227,71.53333333333333,71.99583333333334,61.0,99.0
228,71.53333333333333,72.07916666666667,65.0,101.0
229,71.53333333333333,72.23541666666667,58.0,99.0
230,72.03333333333333,72.67083333333333,53.0,61.0
231,72.53333333333333,73.31458333333333,61.0,112.0
232,72.53333333333333,73.37083333333334,65.0,106.0
233,71.53333333333333,73.47916666666667,46.0,104.0
234,73.03333333333333,73.54791666666667,53.0,73.0
235,73.53333333333333,74.25625,70.0,106.0
236,73.53333333333333,74.26041666666667,61.0,101.0
237,73.53333333333333,74.3125,65.0,96.0
238,74.03333333333333,74.40416666666667,58.0,109.0
239,73.53333333333333,74.49583333333334,46.0,99.0
240,74.53333333333333,74.56875,65.0,94.0
241,74.53333333333333,74.81875,58.0,104.0
242,74.53333333333333,75.37083333333334,63.0,101.0
243,75.03333333333333,75.41666666666667,58.0,112.0
244,74.53333333333333,75.4625,51.0,104.0
245,75.53333333333333,76.02083333333333,58.0,96.0
246,75.53333333333333,76.04583333333333,65.0,101.0
247,75.53333333333333,76.0625,61.0,89.0
248,76.03333333333333,76.85416666666667,53.0,80.0
249,76.53333333333333,77.0375,70.0,109.0
250,76.53333333333333,77.05625,61.0,109.0
251,75.53333333333333,77.06458333333333,46.0,106.0
252,76.53333333333333,77.36041666666667,65.0,112.0
253,77.03333333333333,77.39166666666667,58.0,109.0
254,77.53333333333333,77.79375,58.0,106.0
255,77.53333333333333,78.17291666666667,63.0,106.0
256,78.03333333333333,78.34375,58.0,82.0
257,78.53333333333333,79.04791666666667,63.0,101.0
258,78.53333333333333,79.125,66.0,101.0
259,79.53333333333333,80.37708333333333,63.0,106.0
260,79.53333333333333,80.37708333333333,66.0,104.0
261,79.53333333333333,80.38958333333333,58.0,104.0
262,80.53333333333333,80.675,58.0,101.0
263,81.03333333333333,81.39166666666667,58.0,101.0
264,80.53333333333333,81.4,63.0,112.0
265,80.53333333333333,81.40833333333333,66.0,106.0
266,77.53333333333333,81.43333333333334,51.0,101.0
267,81.53333333333333,82.22291666666666,63.0,89.0
268,81.53333333333333,82.2625,58.0,80.0
269,81.53333333333333,82.81458333333333,51.0,96.0
270,82.53333333333333,82.99583333333334,66.0,101.0
271,82.53333333333333,83.01666666666667,63.0,99.0
272,82.53333333333333,83.02708333333334,58.0,96.0
273,83.53333333333333,83.91875,63.0,94.0
274,83.53333333333333,83.92916666666666,66.0,96.0
275,84.53333333333333,84.75833333333333,58.0,104.0
276,84.53333333333333,85.08125,63.0,109.0
277,84.53333333333333,85.14375,66.0,101.0
278,85.03333333333333,85.32916666666667,58.0,91.0
279,85.53333333333333,85.9875,61.0,91.0
280,85.53333333333333,86.10208333333333,58.0,99.0
281,86.53333333333333,86.83541666666666,65.0,101.0
282,86.53333333333333,86.85625,61.0,106.0
283,86.53333333333333,86.85833333333333,58.0,104.0
284,85.53333333333333,86.9875,46.0,104.0
285,87.53333333333333,88.05,63.0,99.0
286,87.53333333333333,88.06875,66.0,94.0
287,87.53333333333333,88.15,58.0,94.0
288,87.53333333333333,88.62083333333334,51.0,99.0
289,88.53333333333333,89.05416666666666,63.0,109.0
290,88.53333333333333,89.1,66.0,101.0
291,89.03333333333333,89.12083333333334,58.0,96.0
292,89.53333333333333,90.13333333333333,66.0,89.0
293,89.53333333333333,90.23958333333333,63.0,104.0
294,89.53333333333333,90.35,59.0,88.0
295,90.53333333333333,91.34583333333333,66.0,104.0
296,90.53333333333333,91.40416666666667,63.0,106.0
297,91.53333333333333,92.24166666666666,66.0,109.0
298,91.53333333333333,92.275,63.0,106.0
299,92.53333333333333,92.75416666666666,59.0,107.0
300,92.53333333333333,92.90416666666667,63.0,106.0
301,89.53333333333333,92.9375,47.0,68.0
302,92.53333333333333,93.10833333333333,66.0,104.0
303,93.03333333333333,93.18541666666667,59.0,107.0
304,93.53333333333333,94.27083333333333,58.0,91.0
305,93.53333333333333,94.27291666666666,65.0,99.0
306,93.53333333333333,94.275,61.0,82.0
307,94.53333333333333,95.15416666666667,61.0,85.0
308,94.53333333333333,95.1625,65.0,99.0
309,94.53333333333333,95.32708333333333,58.0,94.0
310,95.53333333333333,96.00625,65.0,101.0
311,95.53333333333333,96.02083333333333,58.0,104.0
312,96.53333333333333,96.86875,58.0,99.0
313,96.53333333333333,96.93125,61.0,101.0
314,96.53333333333333,97.07291666666667,65.0,99.0
315,96.53333333333333,97.16041666666666,53.0,85.0
316,93.53333333333333,97.27291666666666,46.0,106.0
317,97.03333333333333,97.39791666666666,58.0,109.0
318,97.53333333333333,98.2,63.0,104.0
319,97.53333333333333,98.20833333333333,66.0,104.0
320,97.53333333333333,98.2125,58.0,85.0
321,98.53333333333333,99.21666666666667,66.0,104.0
322,98.53333333333333,99.21875,63.0,109.0
323,98.53333333333333,99.275,58.0,106.0
324,99.53333333333333,100.05208333333333,63.0,109.0
325,99.53333333333333,100.15625,58.0,101.0
326,97.53333333333333,100.24166666666666,51.0,99.0
327,99.53333333333333,100.40208333333334,66.0,106.0
328,100.53333333333333,101.21041666666666,56.0,101.0
329,100.53333333333333,101.3,63.0,106.0
330,100.53333333333333,101.32291666666667,44.0,104.0
331,101.53333333333333,102.2,63.0,104.0
332,101.53333333333333,102.20833333333333,66.0,104.0
333,101.53333333333333,102.2125,58.0,85.0
334,102.53333333333333,103.21666666666667,66.0,104.0
335,102.53333333333333,103.21875,63.0,109.0
336,102.53333333333333,103.27499999999999,58.0,106.0
337,103.53333333333333,104.05208333333333,63.0,109.0
338,103.53333333333333,104.15625,58.0,101.0
339,101.53333333333333,104.24166666666666,51.0,99.0
340,103.53333333333333,104.40208333333334,66.0,106.0
341,104.53333333333333,105.21041666666666,56.0,101.0
342,104.53333333333333,105.3,63.0,106.0
343,104.53333333333333,105.32291666666667,44.0,104.0
344,105.53333333333333,105.99583333333334,61.0,99.0
345,105.53333333333333,106.07916666666667,65.0,101.0
346,105.53333333333333,106.23541666666667,58.0,99.0
347,106.03333333333333,106.67083333333333,53.0,61.0
348,106.53333333333333,107.31458333333333,61.0,112.0
349,106.53333333333333,107.37083333333334,65.0,106.0
350,105.53333333333333,107.47916666666667,46.0,104.0
351,107.03333333333333,107.54791666666667,53.0,73.0
352,107.53333333333333,108.25625,70.0,106.0
353,107.53333333333333,108.26041666666667,61.0,101.0
354,107.53333333333333,108.3125,65.0,96.0
355,108.03333333333333,108.40416666666667,58.0,109.0
356,107.53333333333333,108.49583333333334,46.0,99.0
357,108.53333333333333,108.56875,65.0,94.0
358,108.53333333333333,108.81875,58.0,104.0
359,108.53333333333333,109.37083333333334,63.0,101.0
360,109.03333333333333,109.41666666666667,58.0,112.0
361,108.53333333333333,109.46249999999999,51.0,104.0
362,109.53333333333333,110.02083333333333,58.0,96.0
363,109.53333333333333,110.04583333333333,65.0,101.0
364,109.53333333333333,110.0625,61.0,89.0
365,110.03333333333333,110.85416666666667,53.0,80.0
366,110.53333333333333,111.0375,70.0,109.0
367,110.53333333333333,111.05624999999999,61.0,109.0
368,109.53333333333333,111.06458333333333,46.0,106.0
369,110.53333333333333,111.36041666666667,65.0,112.0
370,111.03333333333333,111.39166666666667,58.0,109.0
371,111.53333333333333,111.64791666666666,39.0,109.0
372,111.53333333333333,112.26458333333333,63.0,101.0
373,111.53333333333333,112.32708333333333,66.0,104.0
374,111.53333333333333,112.33541666666666,70.0,104.0
375,112.28333333333333,112.68958333333333,58.0,96.0
376,112.53333333333333,113.06666666666666,63.0,118.0
377,112.78333333333333,113.17291666666667,58.0,104.0
378,112.03333333333333,113.29791666666667,51.0,6.0
379,113.03333333333333,113.34375,66.0,115.0
380,113.53333333333333,113.88958333333333,51.0,109.0
381,113.53333333333333,113.89583333333333,58.0,112.0
382,113.53333333333333,113.89791666666666,70.0,106.0
383,113.53333333333333,113.89999999999999,66.0,109.0
384,113.28333333333333,113.9125,63.0,96.0
385,114.03333333333333,114.2875,75.0,80.0
386,114.03333333333333,114.29375,51.0,101.0
387,114.03333333333333,114.31458333333333,58.0,104.0
388,114.03333333333333,114.34375,70.0,104.0
389,114.03333333333333,114.35208333333333,66.0,109.0
390,114.03333333333333,114.35625,63.0,101.0
391,114.53333333333333,114.8625,51.0,115.0
392,114.53333333333333,114.8625,58.0,112.0
393,114.53333333333333,115.35625,63.0,112.0
394,114.53333333333333,115.3625,70.0,112.0
395,114.53333333333333,115.3625,75.0,106.0
396,114.53333333333333,115.36666666666666,66.0,115.0
397,115.03333333333333,115.375,51.0,112.0
398,115.03333333333333,115.38333333333333,58.0,112.0
399,115.53333333333333,115.625,39.0,109.0
400,115.53333333333333,115.82708333333333,58.0,109.0
401,115.53333333333333,115.83541666666666,63.0,106.0
402,115.53333333333333,115.89999999999999,66.0,106.0
403,116.53333333333333,116.85208333333333,51.0,106.0
404,116.53333333333333,116.94375,58.0,112.0
405,116.53333333333333,117.05208333333333,63.0,109.0
406,116.53333333333333,117.05624999999999,66.0,112.0
407,116.53333333333333,117.06666666666666,70.0,106.0
408,117.53333333333333,117.89166666666667,63.0,115.0
409,117.53333333333333,117.91875,59.0,113.0
410,118.28333333333333,118.43124999999999,59.0,88.0
411,118.03333333333333,118.56666666666666,54.0,67.0
412,117.53333333333333,118.64375,47.0,120.0
413,118.53333333333333,118.84375,59.0,117.0
414,118.53333333333333,118.86874999999999,63.0,115.0
415,118.78333333333333,118.90208333333334,47.0,46.0
416,118.53333333333333,118.93124999999999,66.0,112.0
417,118.78333333333333,119.06458333333333,54.0,91.0
418,119.03333333333333,119.26041666666667,59.0,120.0
419,119.53333333333333,120.05208333333333,61.0,109.0
420,119.53333333333333,120.05416666666666,58.0,109.0
421,120.28333333333333,120.41458333333333,58.0,87.0
422,120.28333333333333,120.41875,61.0,80.0
423,120.03333333333333,120.60625,53.0,71.0
424,120.53333333333333,120.83125,58.0,118.0
425,120.53333333333333,120.84166666666667,61.0,115.0
426,119.53333333333333,120.87916666666666,46.0,109.0
427,120.78333333333333,120.91458333333333,53.0,101.0
428,121.03333333333333,121.39999999999999,58.0,118.0
429,121.53333333333333,121.61041666666667,39.0,109.0
430,121.53333333333333,121.7375,58.0,109.0
431,121.53333333333333,121.77708333333334,63.0,109.0
432,122.28333333333333,122.38333333333333,63.0,101.0
433,122.28333333333333,122.38958333333333,66.0,104.0
434,122.53333333333333,122.79166666666667,66.0,115.0
435,122.53333333333333,122.83749999999999,63.0,112.0
436,122.78333333333333,123.05833333333334,58.0,112.0
437,122.03333333333333,123.08958333333334,51.0,96.0
438,123.03333333333333,123.19375,65.0,118.0
439,123.53333333333333,124.25,59.0,46.0
440,123.53333333333333,124.25833333333333,63.0,80.0
441,124.03333333333333,124.66041666666666,54.0,76.0
442,124.53333333333333,124.78125,59.0,120.0
443,124.53333333333333,125.09791666666666,63.0,115.0
444,123.53333333333333,125.10208333333333,47.0,117.0
445,124.78333333333333,125.37708333333333,54.0,104.0
446,125.03333333333333,125.37916666666666,59.0,120.0
447,125.28333333333333,125.45208333333333,63.0,104.0
448,125.53333333333333,126.35833333333333,59.0,107.0
449,125.53333333333333,126.42291666666667,63.0,106.0
450,126.03333333333333,126.575,54.0,87.0
451,125.53333333333333,126.69791666666667,47.0,113.0
452,126.53333333333333,126.79791666666667,59.0,120.0
453,126.53333333333333,126.91041666666666,63.0,115.0
454,126.78333333333333,126.99166666666666,54.0,106.0
455,126.53333333333333,127.05,66.0,106.0
456,127.03333333333333,127.07083333333333,63.0,64.0
457,127.03333333333333,127.3,59.0,123.0
458,127.28333333333333,127.41666666666667,63.0,99.0
459,127.53333333333333,127.81875,56.0,101.0
460,127.53333333333333,127.82083333333333,44.0,112.0
461,127.53333333333333,127.82916666666667,63.0,101.0
462,128.03333333333333,128.59791666666666,56.0,109.0
463,128.03333333333333,128.61458333333334,63.0,115.0
464,128.78333333333333,128.875,56.0,104.0
465,128.53333333333333,128.90833333333333,51.0,96.0
466,128.78333333333333,129.08333333333334,60.0,115.0
467,128.78333333333333,129.12916666666666,63.0,112.0
468,129.03333333333333,129.23958333333334,44.0,101.0
469,129.28333333333333,129.35625,56.0,101.0
470,129.53333333333333,129.79583333333332,58.0,109.0
471,129.53333333333333,130.04583333333332,65.0,106.0
472,129.78333333333333,130.3125,53.0,99.0
473,130.03333333333333,130.53125,58.0,109.0
474,129.53333333333333,130.8375,46.0,112.0
475,130.53333333333333,130.93541666666667,53.0,115.0
476,130.28333333333333,131.07916666666665,65.0,118.0
477,131.03333333333333,131.34166666666667,62.0,113.0
478,130.78333333333333,131.36666666666667,58.0,118.0
479,131.28333333333333,131.42916666666667,70.0,78.0
480,131.55,134.53541666666666,75.0,82.0
481,131.51666666666665,134.55625,70.0,55.0
482,131.43125,134.56875,66.0,96.0
483,131.4625,134.57291666666666,39.0,80.0
484,131.375,134.5875,63.0,89.0
485,135.55208333333334,139.05,70.0,87.0
486,135.37291666666667,139.05625,58.0,82.0
487,135.4375,139.06875,61.0,85.0
488,135.525,139.07708333333332,65.0,64.0
489,135.46458333333334,139.0875,46.0,78.0
490,139.3625,139.60625,58.0,91.0
491,139.425,139.7875,61.0,101.0
492,139.47708333333333,139.78958333333333,65.0,106.0
493,139.5375,139.82083333333333,70.0,109.0
494,140.03333333333333,140.36666666666667,58.0,109.0
495,140.28333333333333,140.4,61.0,104.0
496,139.74375,140.55833333333334,53.0,64.0
497,140.53333333333333,140.81875,58.0,112.0
498,139.49375,140.87708333333333,46.0,109.0
499,140.78333333333333,140.90625,53.0,82.0
500,140.53333333333333,141.00833333333333,61.0,115.0
501,140.53333333333333,141.11041666666665,65.0,115.0
502,141.03333333333333,141.38125,58.0,109.0
503,141.53333333333333,141.64791666666667,39.0,109.0
504,141.53333333333333,142.26458333333332,63.0,101.0
505,141.53333333333333,142.32708333333332,66.0,104.0
506,141.53333333333333,142.33541666666667,70.0,104.0
507,142.28333333333333,142.68958333333333,58.0,96.0
508,142.53333333333333,143.06666666666666,63.0,118.0
509,142.78333333333333,143.17291666666665,58.0,104.0
510,142.03333333333333,143.29791666666665,51.0,6.0
511,143.03333333333333,143.34375,66.0,115.0
512,143.53333333333333,143.88958333333332,51.0,109.0
513,143.53333333333333,143.89583333333334,58.0,112.0
514,143.53333333333333,143.89791666666667,70.0,106.0
515,143.53333333333333,143.9,66.0,109.0
516,143.28333333333333,143.9125,63.0,96.0
517,144.03333333333333,144.2875,75.0,80.0
518,144.03333333333333,144.29375,51.0,101.0
519,144.03333333333333,144.31458333333333,58.0,104.0
520,144.03333333333333,144.34375,70.0,104.0
521,144.03333333333333,144.35208333333333,66.0,109.0
522,144.03333333333333,144.35625,63.0,101.0
523,144.53333333333333,144.8625,51.0,115.0
524,144.53333333333333,144.8625,58.0,112.0
525,144.53333333333333,145.35625,63.0,112.0
526,144.53333333333333,145.3625,70.0,112.0
527,144.53333333333333,145.3625,75.0,106.0
528,144.53333333333333,145.36666666666667,66.0,115.0
529,145.03333333333333,145.375,51.0,112.0
530,145.03333333333333,145.38333333333333,58.0,112.0
531,145.53333333333333,145.82708333333332,59.0,110.0
532,145.53333333333333,146.03958333333333,63.0,109.0
533,146.03333333333333,146.15416666666667,59.0,113.0
534,146.28333333333333,146.33958333333334,66.0,85.0
535,146.28333333333333,146.35208333333333,63.0,106.0
536,146.28333333333333,146.36458333333334,59.0,107.0
537,145.78333333333333,146.62708333333333,54.0,91.0
538,146.53333333333333,146.83333333333334,59.0,120.0
539,146.53333333333333,146.8875,63.0,121.0
540,146.53333333333333,146.93125,66.0,112.0
541,145.53333333333333,147.19583333333333,47.0,117.0
542,146.78333333333333,147.21458333333334,54.0,106.0
543,147.28333333333333,147.51666666666665,63.0,112.0
544,147.03333333333333,147.51875,59.0,117.0
545,147.28333333333333,147.65833333333333,66.0,104.0
546,148.03333333333333,148.125,56.0,87.0
547,148.28333333333333,148.32708333333332,63.0,74.0
548,148.28333333333333,148.33125,60.0,67.0
549,147.78333333333333,148.68333333333334,51.0,89.0
550,148.53333333333333,148.87291666666667,56.0,112.0
551,148.53333333333333,148.94583333333333,60.0,115.0
552,149.03333333333333,149.0875,60.0,85.0
553,148.53333333333333,149.12708333333333,63.0,115.0
554,147.53333333333333,149.18125,44.0,109.0
555,149.03333333333333,149.2,56.0,118.0
556,148.78333333333333,149.20416666666665,51.0,101.0
557,149.53333333333333,149.80416666666667,58.0,112.0
558,149.53333333333333,150.025,61.0,104.0
559,150.03333333333333,150.12083333333334,58.0,91.0
560,150.28333333333333,150.32916666666665,61.0,76.0
561,150.28333333333333,150.33541666666667,58.0,91.0
562,150.28333333333333,150.34791666666666,65.0,87.0
563,149.78333333333333,150.63125,53.0,67.0
564,150.53333333333333,150.86041666666665,58.0,115.0
565,149.53333333333333,150.87083333333334,46.0,112.0
566,150.53333333333333,150.925,61.0,115.0
567,150.78333333333333,150.97708333333333,53.0,71.0
568,150.53333333333333,150.98333333333332,65.0,112.0
569,151.03333333333333,151.25,46.0,106.0
570,151.28333333333333,151.41458333333333,58.0,115.0
571,151.53333333333333,151.60833333333332,39.0,112.0
572,151.53333333333333,151.75208333333333,58.0,109.0
573,151.53333333333333,151.79375,63.0,109.0
574,151.78333333333333,151.82708333333332,51.0,91.0
575,152.28333333333333,152.38958333333332,63.0,104.0
576,152.28333333333333,152.39583333333334,66.0,101.0
577,152.03333333333333,152.63125,58.0,94.0
578,152.03333333333333,152.65833333333333,51.0,82.0
579,152.53333333333333,152.86666666666667,63.0,118.0
580,152.78333333333333,152.89375,58.0,109.0
581,152.78333333333333,152.89583333333334,51.0,96.0
582,152.53333333333333,152.91041666666666,66.0,118.0
583,153.03333333333333,153.17083333333332,63.0,118.0
584,154.03333333333333,154.13541666666666,59.0,74.0
585,154.28333333333333,154.36875,59.0,107.0
586,154.28333333333333,154.37708333333333,63.0,101.0
587,153.78333333333333,154.60416666666666,54.0,85.0
588,153.53333333333333,154.61666666666667,47.0,120.0
589,154.53333333333333,154.8875,59.0,120.0
590,154.78333333333333,154.92916666666667,47.0,41.0
591,154.53333333333333,154.93125,63.0,115.0
592,154.78333333333333,155.3125,54.0,91.0
593,155.03333333333333,155.56666666666666,59.0,120.0
594,155.03333333333333,155.64375,63.0,112.0
595,156.03333333333333,156.15625,56.0,101.0
596,155.78333333333333,156.39375,51.0,87.0
597,155.53333333333333,156.43333333333334,44.0,109.0
598,156.28333333333333,156.62916666666666,56.0,115.0
599,156.28333333333333,156.65416666666667,63.0,109.0
600,156.53333333333333,156.87291666666667,51.0,101.0
601,156.53333333333333,156.89375,44.0,74.0
602,156.78333333333333,157.11875,56.0,112.0
603,156.78333333333333,157.27916666666667,63.0,112.0
604,157.03333333333333,157.28541666666666,44.0,101.0
605,157.53333333333333,157.82083333333333,58.0,104.0
606,157.53333333333333,158.0375,61.0,104.0
607,158.03333333333333,158.1375,58.0,80.0
608,158.28333333333333,158.35,61.0,94.0
609,158.28333333333333,158.35833333333332,58.0,101.0
610,157.78333333333333,158.6375,53.0,71.0
611,158.53333333333333,158.84583333333333,58.0,115.0
612,158.78333333333333,158.87708333333333,53.0,66.0
613,158.53333333333333,158.94583333333333,61.0,115.0
614,159.03333333333333,159.13958333333332,58.0,96.0
615,157.53333333333333,159.3875,46.0,106.0
616,159.53333333333333,159.97708333333333,70.0,99.0
617,159.53333333333333,160.04583333333332,58.0,99.0
618,160.28333333333333,160.40833333333333,65.0,74.0
619,160.28333333333333,160.41041666666666,58.0,89.0
620,160.03333333333333,160.57291666666666,53.0,54.0
621,159.53333333333333,160.67083333333332,46.0,104.0
622,160.53333333333333,160.82083333333333,58.0,118.0
623,160.53333333333333,160.85833333333332,65.0,112.0
624,160.78333333333333,160.9625,46.0,74.0
625,160.78333333333333,161.15,53.0,109.0
626,161.03333333333333,161.53958333333333,58.0,112.0
627,161.53333333333333,161.53958333333333,58.0,85.0
628,161.03333333333333,161.5625,65.0,101.0
629,161.53333333333333,162.2,63.0,104.0
630,161.53333333333333,162.20833333333334,66.0,104.0
631,162.53333333333333,163.21666666666667,66.0,104.0
632,162.53333333333333,163.21875,63.0,109.0
633,162.53333333333333,163.275,58.0,106.0
634,163.53333333333333,164.05208333333334,63.0,109.0
635,163.53333333333333,164.15625,58.0,101.0
636,161.53333333333333,164.24166666666667,51.0,99.0
637,163.53333333333333,164.40208333333334,66.0,106.0
638,164.53333333333333,165.21041666666667,56.0,101.0
639,164.53333333333333,165.3,63.0,106.0
640,164.53333333333333,165.32291666666666,44.0,104.0
641,165.53333333333333,166.2,63.0,104.0
642,165.53333333333333,166.20833333333334,66.0,104.0
643,165.53333333333333,166.2125,58.0,85.0
644,166.53333333333333,167.21666666666667,66.0,104.0
645,166.53333333333333,167.21875,63.0,109.0
646,166.53333333333333,167.275,58.0,106.0
647,167.53333333333333,168.05208333333334,63.0,109.0
648,167.53333333333333,168.15625,58.0,101.0
649,165.53333333333333,168.24166666666667,51.0,99.0
650,167.53333333333333,168.40208333333334,66.0,106.0
651,168.53333333333333,169.21041666666667,56.0,101.0
652,168.53333333333333,169.3,63.0,106.0
653,168.53333333333333,169.32291666666666,44.0,104.0
654,169.53333333333333,169.99583333333334,61.0,99.0
655,169.53333333333333,170.07916666666665,65.0,101.0
656,169.53333333333333,170.23541666666665,58.0,99.0
657,170.03333333333333,170.67083333333332,53.0,61.0
658,170.53333333333333,171.31458333333333,61.0,112.0
659,170.53333333333333,171.37083333333334,65.0,106.0
660,169.53333333333333,171.47916666666666,46.0,104.0
661,171.03333333333333,171.54791666666665,53.0,73.0
662,171.53333333333333,172.25625,70.0,106.0
663,171.53333333333333,172.26041666666666,61.0,101.0
664,171.53333333333333,172.3125,65.0,96.0
665,172.03333333333333,172.40416666666667,58.0,109.0
666,171.53333333333333,172.49583333333334,46.0,99.0
667,172.53333333333333,172.56875,65.0,94.0
668,172.53333333333333,172.81875,58.0,104.0
669,172.53333333333333,173.37083333333334,63.0,101.0
670,173.03333333333333,173.41666666666666,58.0,112.0
671,172.53333333333333,173.4625,51.0,104.0
672,173.53333333333333,174.02083333333334,58.0,96.0
673,173.53333333333333,174.04583333333332,65.0,101.0
674,173.53333333333333,174.0625,61.0,89.0
675,174.03333333333333,174.85416666666666,53.0,80.0
676,174.53333333333333,175.0375,70.0,109.0
677,174.53333333333333,175.05625,61.0,109.0
678,173.53333333333333,175.06458333333333,46.0,106.0
679,174.53333333333333,175.36041666666665,65.0,112.0
680,175.03333333333333,175.39166666666665,58.0,109.0
681,175.53333333333333,175.64791666666667,39.0,109.0
682,175.53333333333333,176.26458333333332,63.0,101.0
683,175.53333333333333,176.32708333333332,66.0,104.0
684,175.53333333333333,176.33541666666667,70.0,104.0
685,176.28333333333333,176.68958333333333,58.0,96.0
686,176.53333333333333,177.06666666666666,63.0,118.0
687,176.78333333333333,177.17291666666665,58.0,104.0
688,176.03333333333333,177.29791666666665,51.0,6.0
689,177.03333333333333,177.34375,66.0,115.0
690,177.53333333333333,177.88958333333332,51.0,109.0
691,177.53333333333333,177.89583333333334,58.0,112.0
692,177.53333333333333,177.89791666666667,70.0,106.0
693,177.53333333333333,177.9,66.0,109.0
694,177.28333333333333,177.9125,63.0,96.0
695,178.03333333333333,178.2875,75.0,80.0
696,178.03333333333333,178.29375,51.0,101.0
697,178.03333333333333,178.31458333333333,58.0,104.0
698,178.03333333333333,178.34375,70.0,104.0
699,178.03333333333333,178.35208333333333,66.0,109.0
700,178.03333333333333,178.35625,63.0,101.0
701,178.53333333333333,178.8625,51.0,115.0
702,178.53333333333333,178.8625,58.0,112.0
703,178.53333333333333,179.35625,63.0,112.0
704,178.53333333333333,179.3625,70.0,112.0
705,178.53333333333333,179.3625,75.0,106.0
706,178.53333333333333,179.36666666666667,66.0,115.0
707,179.03333333333333,179.375,51.0,112.0
708,179.03333333333333,179.38333333333333,58.0,112.0
709,179.53333333333333,179.82708333333332,59.0,110.0
710,179.53333333333333,180.03958333333333,63.0,109.0
711,180.03333333333333,180.15416666666667,59.0,113.0
712,180.28333333333333,180.33958333333334,66.0,85.0
713,180.28333333333333,180.35208333333333,63.0,106.0
714,180.28333333333333,180.36458333333334,59.0,107.0
715,179.78333333333333,180.62708333333333,54.0,91.0
716,180.53333333333333,180.83333333333334,59.0,120.0
717,180.53333333333333,180.8875,63.0,121.0
718,180.53333333333333,180.93125,66.0,112.0
719,179.53333333333333,181.19583333333333,47.0,117.0
720,180.78333333333333,181.21458333333334,54.0,106.0
721,181.28333333333333,181.51666666666665,63.0,112.0
722,181.03333333333333,181.51875,59.0,117.0
723,181.28333333333333,181.65833333333333,66.0,104.0
724,182.03333333333333,182.125,56.0,87.0
725,182.28333333333333,182.32708333333332,63.0,74.0
726,182.28333333333333,182.33125,60.0,67.0
727,181.78333333333333,182.68333333333334,51.0,89.0
728,182.53333333333333,182.87291666666667,56.0,112.0
729,182.53333333333333,182.94583333333333,60.0,115.0
730,183.03333333333333,183.0875,60.0,85.0
731,182.53333333333333,183.12708333333333,63.0,115.0
732,181.53333333333333,183.18125,44.0,109.0
733,183.03333333333333,183.2,56.0,118.0
734,182.78333333333333,183.20416666666665,51.0,101.0
735,183.53333333333333,183.80416666666667,58.0,112.0
736,183.53333333333333,184.025,61.0,104.0
737,184.03333333333333,184.12083333333334,58.0,91.0
738,184.28333333333333,184.32916666666665,61.0,76.0
739,184.28333333333333,184.33541666666667,58.0,91.0
740,184.28333333333333,184.34791666666666,65.0,87.0
741,183.78333333333333,184.63125,53.0,67.0
742,184.53333333333333,184.86041666666665,58.0,115.0
743,183.53333333333333,184.87083333333334,46.0,112.0
744,184.53333333333333,184.925,61.0,115.0
745,184.78333333333333,184.97708333333333,53.0,71.0
746,184.53333333333333,184.98333333333332,65.0,112.0
747,185.03333333333333,185.25,46.0,106.0
748,185.28333333333333,185.41458333333333,58.0,115.0
749,185.53333333333333,185.60833333333332,39.0,112.0
750,185.53333333333333,185.75208333333333,58.0,109.0
751,185.53333333333333,185.79375,63.0,109.0
752,185.78333333333333,185.82708333333332,51.0,91.0
753,186.28333333333333,186.38958333333332,63.0,104.0
754,186.28333333333333,186.39583333333334,66.0,101.0
755,186.03333333333333,186.63125,58.0,94.0
756,186.03333333333333,186.65833333333333,51.0,82.0
757,186.53333333333333,186.86666666666667,63.0,118.0
758,186.78333333333333,186.89375,58.0,109.0
759,186.78333333333333,186.89583333333334,51.0,96.0
760,186.53333333333333,186.91041666666666,66.0,118.0
761,187.03333333333333,187.17083333333332,63.0,118.0
762,188.03333333333333,188.13541666666666,59.0,74.0
763,188.28333333333333,188.36875,59.0,107.0
764,188.28333333333333,188.37708333333333,63.0,101.0
765,187.78333333333333,188.60416666666666,54.0,85.0
766,187.53333333333333,188.61666666666667,47.0,120.0
767,188.53333333333333,188.8875,59.0,120.0
768,188.78333333333333,188.92916666666667,47.0,41.0
769,188.53333333333333,188.93125,63.0,115.0
770,188.78333333333333,189.3125,54.0,91.0
771,189.03333333333333,189.56666666666666,59.0,120.0
772,189.03333333333333,189.64375,63.0,112.0
773,190.03333333333333,190.15625,56.0,101.0
774,189.78333333333333,190.39375,51.0,87.0
775,189.53333333333333,190.43333333333334,44.0,109.0
776,190.28333333333333,190.62916666666666,56.0,115.0
777,190.28333333333333,190.65416666666667,63.0,109.0
778,190.53333333333333,190.87291666666667,51.0,101.0
779,190.53333333333333,190.89375,44.0,74.0
780,190.78333333333333,191.11875,56.0,112.0
781,190.78333333333333,191.27916666666667,63.0,112.0
782,191.03333333333333,191.28541666666666,44.0,101.0
783,191.53333333333333,191.82083333333333,58.0,104.0
784,191.53333333333333,192.0375,61.0,104.0
785,192.03333333333333,192.1375,58.0,80.0
786,192.28333333333333,192.35,61.0,94.0
787,192.28333333333333,192.35833333333332,58.0,101.0
788,191.78333333333333,192.6375,53.0,71.0
789,192.53333333333333,192.84583333333333,58.0,115.0
790,192.78333333333333,192.87708333333333,53.0,66.0
791,192.53333333333333,192.94583333333333,61.0,115.0
792,193.03333333333333,193.13958333333332,58.0,96.0
793,191.53333333333333,193.3875,46.0,106.0
794,193.53333333333333,193.97708333333333,70.0,99.0
795,193.53333333333333,194.04583333333332,58.0,99.0
796,194.28333333333333,194.40833333333333,65.0,74.0
797,194.28333333333333,194.41041666666666,58.0,89.0
798,194.03333333333333,194.57291666666666,53.0,54.0
799,193.53333333333333,194.67083333333332,46.0,104.0
800,194.53333333333333,194.82083333333333,58.0,118.0
801,194.53333333333333,194.85833333333332,65.0,112.0
802,194.78333333333333,194.9625,46.0,74.0
803,194.78333333333333,195.15,53.0,109.0
804,195.03333333333333,195.53958333333333,58.0,112.0
805,195.53333333333333,195.53958333333333,58.0,85.0
806,195.03333333333333,195.5625,65.0,101.0
807,195.53333333333333,196.2,63.0,104.0
808,195.53333333333333,196.20833333333334,66.0,104.0
809,196.53333333333333,197.21666666666667,66.0,104.0
810,196.53333333333333,197.21875,63.0,109.0
811,196.53333333333333,197.275,58.0,106.0
812,197.53333333333333,198.05208333333334,63.0,109.0
813,197.53333333333333,198.15625,58.0,101.0
814,195.53333333333333,198.24166666666667,51.0,99.0
815,197.53333333333333,198.40208333333334,66.0,106.0
816,198.53333333333333,199.21041666666667,56.0,101.0
817,198.53333333333333,199.3,63.0,106.0
818,198.53333333333333,199.32291666666666,44.0,104.0
819,199.53333333333333,200.2,63.0,104.0
820,199.53333333333333,200.20833333333334,66.0,104.0
821,199.53333333333333,200.2125,58.0,85.0
822,200.53333333333333,201.21666666666667,66.0,104.0
823,200.53333333333333,201.21875,63.0,109.0
824,200.53333333333333,201.275,58.0,106.0
825,201.53333333333333,202.05208333333334,63.0,109.0
826,201.53333333333333,202.15625,58.0,101.0
827,199.53333333333333,202.24166666666667,51.0,99.0
828,201.53333333333333,202.40208333333334,66.0,106.0
829,202.53333333333333,203.21041666666667,56.0,101.0
830,202.53333333333333,203.3,63.0,106.0
831,202.53333333333333,203.32291666666666,44.0,104.0
832,203.53333333333333,203.99583333333334,61.0,99.0
833,203.53333333333333,204.07916666666665,65.0,101.0
834,203.53333333333333,204.23541666666665,58.0,99.0
835,204.03333333333333,204.67083333333332,53.0,61.0
836,204.53333333333333,205.31458333333333,61.0,112.0
837,204.53333333333333,205.37083333333334,65.0,106.0
838,203.53333333333333,205.47916666666666,46.0,104.0
839,205.03333333333333,205.54791666666665,53.0,73.0
840,205.53333333333333,206.25625,70.0,106.0
841,205.53333333333333,206.26041666666666,61.0,101.0
842,205.53333333333333,206.3125,65.0,96.0
843,206.03333333333333,206.40416666666667,58.0,109.0
844,205.53333333333333,206.49583333333334,46.0,99.0
845,206.53333333333333,206.56875,65.0,94.0
846,206.53333333333333,206.81875,58.0,104.0
847,206.53333333333333,207.37083333333334,63.0,101.0
848,207.03333333333333,207.41666666666666,58.0,112.0
849,206.53333333333333,207.4625,51.0,104.0
850,207.53333333333333,208.02083333333334,58.0,96.0
851,207.53333333333333,208.04583333333332,65.0,101.0
852,207.53333333333333,208.0625,61.0,89.0
853,208.03333333333333,208.85416666666666,53.0,80.0
854,208.53333333333333,209.0375,70.0,109.0
855,208.53333333333333,209.05625,61.0,109.0
856,207.53333333333333,209.06458333333333,46.0,106.0
857,208.53333333333333,209.36041666666665,65.0,112.0
858,209.03333333333333,209.39166666666665,58.0,109.0
859,209.53333333333333,209.64791666666667,39.0,109.0
860,209.53333333333333,210.26458333333332,63.0,101.0
861,209.53333333333333,210.32708333333332,66.0,104.0
862,209.53333333333333,210.33541666666667,70.0,104.0
863,210.28333333333333,210.68958333333333,58.0,96.0
864,210.53333333333333,211.06666666666666,63.0,118.0
865,210.78333333333333,211.17291666666665,58.0,104.0
866,210.03333333333333,211.29791666666665,51.0,6.0
867,211.03333333333333,211.34375,66.0,115.0
868,211.53333333333333,211.88958333333332,51.0,109.0
869,211.53333333333333,211.89583333333334,58.0,112.0
870,211.53333333333333,211.89791666666667,70.0,106.0
871,211.53333333333333,211.9,66.0,109.0
872,211.28333333333333,211.9125,63.0,96.0
873,212.03333333333333,212.2875,75.0,80.0
874,212.03333333333333,212.29375,51.0,101.0
875,212.03333333333333,212.31458333333333,58.0,104.0
876,212.03333333333333,212.34375,70.0,104.0
877,212.03333333333333,212.35208333333333,66.0,109.0
878,212.03333333333333,212.35625,63.0,101.0
879,212.53333333333333,212.86249999999998,51.0,115.0
880,212.53333333333333,212.86249999999998,58.0,112.0
881,212.53333333333333,213.35625,63.0,112.0
882,212.53333333333333,213.36249999999998,70.0,112.0
883,212.53333333333333,213.36249999999998,75.0,106.0
884,212.53333333333333,213.36666666666667,66.0,115.0
885,213.03333333333333,213.375,51.0,112.0
886,213.03333333333333,213.38333333333333,58.0,112.0
887,213.53333333333333,213.82708333333332,59.0,110.0
888,213.53333333333333,214.03958333333333,63.0,109.0
889,214.03333333333333,214.15416666666667,59.0,113.0
890,214.28333333333333,214.33958333333334,66.0,85.0
891,214.28333333333333,214.35208333333333,63.0,106.0
892,214.28333333333333,214.36458333333334,59.0,107.0
893,213.78333333333333,214.62708333333333,54.0,91.0
894,214.53333333333333,214.83333333333334,59.0,120.0
895,214.53333333333333,214.8875,63.0,121.0
896,214.53333333333333,214.93125,66.0,112.0
897,213.53333333333333,215.19583333333333,47.0,117.0
898,214.78333333333333,215.21458333333334,54.0,106.0
899,215.28333333333333,215.51666666666665,63.0,112.0
900,215.03333333333333,215.51874999999998,59.0,117.0
901,215.28333333333333,215.65833333333333,66.0,104.0
902,216.03333333333333,216.125,56.0,87.0
903,216.28333333333333,216.32708333333332,63.0,74.0
904,216.28333333333333,216.33124999999998,60.0,67.0
905,215.78333333333333,216.68333333333334,51.0,89.0
906,216.53333333333333,216.87291666666667,56.0,112.0
907,216.53333333333333,216.94583333333333,60.0,115.0
908,217.03333333333333,217.0875,60.0,85.0
909,216.53333333333333,217.12708333333333,63.0,115.0
910,215.53333333333333,217.18125,44.0,109.0
911,217.03333333333333,217.2,56.0,118.0
912,216.78333333333333,217.20416666666665,51.0,101.0
913,217.53333333333333,217.80416666666667,58.0,112.0
914,217.53333333333333,218.025,61.0,104.0
915,218.03333333333333,218.12083333333334,58.0,91.0
916,218.28333333333333,218.32916666666665,61.0,76.0
917,218.28333333333333,218.33541666666667,58.0,91.0
918,218.28333333333333,218.34791666666666,65.0,87.0
919,217.78333333333333,218.63125,53.0,67.0
920,218.53333333333333,218.86041666666665,58.0,115.0
921,217.53333333333333,218.87083333333334,46.0,112.0
922,218.53333333333333,218.92499999999998,61.0,115.0
923,218.78333333333333,218.97708333333333,53.0,71.0
924,218.53333333333333,218.98333333333332,65.0,112.0
925,219.03333333333333,219.25,46.0,106.0
926,219.28333333333333,219.41458333333333,58.0,115.0
927,219.53333333333333,219.60833333333332,39.0,112.0
928,219.53333333333333,219.75208333333333,58.0,109.0
929,219.53333333333333,219.79375,63.0,109.0
930,219.78333333333333,219.82708333333332,51.0,91.0
931,220.28333333333333,220.38958333333332,63.0,104.0
932,220.28333333333333,220.39583333333334,66.0,101.0
933,220.03333333333333,220.63125,58.0,94.0
934,220.03333333333333,220.65833333333333,51.0,82.0
935,220.53333333333333,220.86666666666667,63.0,118.0
936,220.78333333333333,220.89374999999998,58.0,109.0
937,220.78333333333333,220.89583333333334,51.0,96.0
938,220.53333333333333,220.91041666666666,66.0,118.0
939,221.03333333333333,221.17083333333332,63.0,118.0
940,222.03333333333333,222.13541666666666,59.0,74.0
941,222.28333333333333,222.36875,59.0,107.0
942,222.28333333333333,222.37708333333333,63.0,101.0
943,221.78333333333333,222.60416666666666,54.0,85.0
944,221.53333333333333,222.61666666666667,47.0,120.0
945,222.53333333333333,222.8875,59.0,120.0
946,222.78333333333333,222.92916666666667,47.0,41.0
947,222.53333333333333,222.93125,63.0,115.0
948,222.78333333333333,223.3125,54.0,91.0
949,223.03333333333333,223.56666666666666,59.0,120.0
950,223.03333333333333,223.64374999999998,63.0,112.0
951,224.03333333333333,224.15625,56.0,101.0
952,223.78333333333333,224.39374999999998,51.0,87.0
953,223.53333333333333,224.43333333333334,44.0,109.0
954,224.28333333333333,224.62916666666666,56.0,115.0
955,224.28333333333333,224.65416666666667,63.0,109.0
956,224.53333333333333,224.87291666666667,51.0,101.0
957,224.53333333333333,224.89374999999998,44.0,74.0
958,224.78333333333333,225.11875,56.0,112.0
959,224.78333333333333,225.27916666666667,63.0,112.0
960,225.03333333333333,225.28541666666666,44.0,101.0
961,225.53333333333333,225.82083333333333,58.0,104.0
962,225.53333333333333,226.0375,61.0,104.0
963,226.03333333333333,226.1375,58.0,80.0
964,226.28333333333333,226.35,61.0,94.0
965,226.28333333333333,226.35833333333332,58.0,101.0
966,225.78333333333333,226.6375,53.0,71.0
967,226.53333333333333,226.84583333333333,58.0,115.0
968,226.78333333333333,226.87708333333333,53.0,66.0
969,226.53333333333333,226.94583333333333,61.0,115.0
970,227.03333333333333,227.13958333333332,58.0,96.0
971,225.53333333333333,227.3875,46.0,106.0
972,227.53333333333333,227.97708333333333,70.0,99.0
973,227.53333333333333,228.04583333333332,58.0,99.0
974,228.28333333333333,228.40833333333333,65.0,74.0
975,228.28333333333333,228.41041666666666,58.0,89.0
976,228.03333333333333,228.57291666666666,53.0,54.0
977,227.53333333333333,228.67083333333332,46.0,104.0
978,228.53333333333333,228.82083333333333,58.0,118.0
979,228.53333333333333,228.85833333333332,65.0,112.0
980,228.78333333333333,228.9625,46.0,74.0
981,228.78333333333333,229.15,53.0,109.0
982,229.03333333333333,229.53958333333333,58.0,112.0
983,229.03333333333333,229.5625,65.0,101.0
984,229.53333333333333,229.64374999999998,39.0,109.0
985,229.53333333333333,230.08958333333334,75.0,101.0
986,229.53333333333333,230.11041666666665,70.0,104.0
987,229.53333333333333,230.14791666666667,63.0,109.0
988,229.53333333333333,230.15833333333333,66.0,109.0
989,230.53333333333333,231.37708333333333,70.0,109.0
990,230.53333333333333,231.38333333333333,66.0,115.0
991,230.53333333333333,231.3875,63.0,112.0
992,230.53333333333333,231.68333333333334,58.0,104.0
993,231.53333333333333,232.13958333333332,70.0,106.0
994,231.53333333333333,232.24791666666667,66.0,109.0
995,231.53333333333333,232.34166666666667,63.0,106.0
996,232.03333333333333,232.6625,58.0,74.0
997,230.03333333333333,232.7125,51.0,94.0
998,232.53333333333333,232.77083333333334,63.0,109.0
999,232.53333333333333,232.90416666666667,70.0,109.0
1000,232.53333333333333,232.91875,66.0,109.0
1001,233.53333333333333,233.95208333333332,63.0,109.0
1002,233.53333333333333,234.16458333333333,56.0,101.0
1003,234.03333333333333,234.62291666666667,51.0,74.0
1004,234.53333333333333,235.09375,68.0,104.0
1005,234.53333333333333,235.09791666666666,63.0,112.0
1006,233.53333333333333,235.27083333333334,44.0,106.0
1007,235.03333333333333,235.55625,51.0,67.0
1008,235.53333333333333,236.16041666666666,59.0,96.0
1009,235.53333333333333,236.1625,63.0,106.0
1010,235.53333333333333,236.17916666666667,68.0,101.0
1011,234.53333333333333,236.25833333333333,56.0,109.0
1012,236.03333333333333,236.6625,51.0,59.0
1013,235.53333333333333,236.68541666666667,44.0,101.0
1014,236.53333333333333,236.81875,56.0,106.0
1015,236.53333333333333,236.85833333333332,59.0,113.0
1016,236.53333333333333,236.88541666666666,68.0,101.0
1017,236.53333333333333,236.89166666666665,63.0,109.0
1018,237.03333333333333,237.18541666666667,44.0,104.0
1019,237.53333333333333,237.81458333333333,58.0,106.0
1020,237.53333333333333,238.01458333333332,61.0,104.0
1021,238.03333333333333,238.37708333333333,58.0,99.0
1022,237.78333333333333,238.59791666666666,53.0,91.0
1023,238.53333333333333,238.77916666666667,58.0,115.0
1024,238.53333333333333,238.81875,61.0,115.0
1025,238.53333333333333,238.84375,65.0,112.0
1026,237.53333333333333,239.20208333333332,46.0,109.0
1027,238.78333333333333,239.225,53.0,96.0
1028,239.03333333333333,239.39166666666665,58.0,109.0
1029,239.53333333333333,240.32916666666665,58.0,106.0
1030,239.53333333333333,240.36458333333334,65.0,104.0
1031,239.53333333333333,240.36875,46.0,109.0
1032,240.03333333333333,240.39583333333334,53.0,89.0
1033,240.53333333333333,241.31458333333333,46.0,104.0
1034,240.53333333333333,241.35416666666666,53.0,99.0
1035,240.53333333333333,241.47083333333333,58.0,112.0
1036,240.53333333333333,241.48125,65.0,104.0
1037,241.50208333333333,241.825,63.0,112.0
1038,241.49583333333334,241.83124999999998,59.0,101.0
1039,241.48333333333332,241.85625,47.0,120.0
1040,241.49375,241.85833333333332,66.0,106.0
1041,241.99791666666667,242.28333333333333,59.0,113.0
1042,242.0,242.35833333333332,66.0,109.0
1043,242.00208333333333,242.39166666666665,63.0,112.0
1044,243.05416666666667,251.80625,63.0,99.0
1045,242.76874999999998,251.80833333333334,59.0,68.0
1046,243.31875,251.81041666666667,71.0,107.0
1047,241.98958333333334,251.84583333333333,47.0,120.0
1048,252.86458333333334,253.22916666666666,75.0,106.0
1049,252.85833333333332,253.23333333333332,67.0,120.0
1050,252.86249999999998,253.23749999999998,70.0,112.0
1051,252.8875,253.24375,39.0,112.0
1052,252.87083333333334,253.25208333333333,63.0,101.0
1053,253.38333333333333,253.42083333333332,49.0,94.0
1054,253.43333333333334,253.67916666666667,63.0,109.0
1055,253.42916666666667,253.92499999999998,67.0,123.0
1056,253.43125,253.94583333333333,70.0,109.0
1057,253.42499999999998,253.95833333333334,75.0,104.0
1058,253.89791666666667,254.11666666666667,63.0,96.0
1059,254.11249999999998,254.20416666666665,67.0,66.0
1060,254.31875,254.49375,70.0,101.0
1061,254.51458333333332,254.65208333333334,75.0,112.0
1062,254.73333333333332,254.81458333333333,79.0,120.0
1063,254.9625,255.06666666666666,82.0,112.0
1064,255.24166666666667,255.35833333333332,87.0,104.0
1065,255.53958333333333,255.65625,91.0,117.0
1066,253.43333333333334,255.825,39.0,115.0
1067,255.88958333333332,256.0208333333333,94.0,104.0
1068,253.37708333333333,256.025,51.0,106.0
1069,253.68333333333334,256.02708333333334,58.0,76.0
1070,256.75,258.6020833333333,63.0,85.0
1071,256.78125,258.61875,70.0,94.0
1072,256.8333333333333,259.03541666666666,79.0,81.0
1073,256.9916666666667,259.04583333333335,87.0,58.0
1074,256.76458333333335,259.0520833333333,75.0,87.0
1075,256.93333333333334,259.0520833333333,82.0,80.0
