,start,end,pitch,velocity
0,13.948616420833332,14.208890137499997,62.0,93.0
1,14.154095670833332,14.347588631249998,64.0,61.0
2,14.359574920833332,14.467451527083332,67.0,72.0
3,14.565054170833331,14.657519833333332,69.0,87.0
4,14.770533420833331,15.160943995833332,74.0,108.0
5,15.18149192083333,15.539368281249997,69.0,87.0
6,15.592450420833332,15.878409043749999,62.0,74.0
7,15.797929670833332,16.082175966666664,64.0,67.0
8,16.00340892083333,16.128408797916663,67.0,61.0
9,16.20888817083333,16.3047784875,69.0,64.0
10,16.41436742083333,16.72087396875,74.0,74.0
11,16.825325920833333,17.05135309583333,69.0,69.0
12,17.030805170833332,17.152380393749997,74.0,86.0
13,17.236284420833332,17.48799650208333,62.0,65.0
14,17.441763670833332,17.691763424999998,64.0,58.0
15,17.64724292083333,17.92463990833333,67.0,71.0
16,17.85272217083333,17.972585066666664,69.0,64.0
17,18.05820142083333,18.39724218333333,74.0,114.0
18,18.88011842083333,19.140392137499997,62.0,93.0
19,19.08559767083333,19.279090631249996,64.0,61.0
20,19.29107692083333,19.398953527083332,67.0,72.0
21,19.49655617083333,19.58902183333333,69.0,87.0
22,19.70203542083333,20.09244599583333,74.0,108.0
23,20.11299392083333,20.470870281249997,69.0,87.0
24,20.523952420833332,20.80991104375,62.0,74.0
25,20.729431670833332,21.013677966666663,64.0,67.0
26,20.93491092083333,21.059910797916665,67.0,61.0
27,21.14039017083333,21.236280487499997,69.0,64.0
28,21.34586942083333,21.652375968749997,74.0,74.0
29,21.75682792083333,21.98285509583333,69.0,69.0
30,21.96230717083333,22.08388239375,74.0,86.0
31,22.16778642083333,22.41949850208333,62.0,65.0
32,22.37326567083333,22.623265424999996,64.0,58.0
33,22.57874492083333,22.85614190833333,67.0,71.0
34,22.78422417083333,22.904087066666662,69.0,64.0
35,22.98970342083333,23.32874418333333,74.0,114.0
36,23.81162042083333,24.03764759583333,62.0,72.0
37,24.01709967083333,24.256825462499997,64.0,65.0
38,24.22257892083333,24.316756910416665,67.0,63.0
39,24.42805817083333,24.51538685208333,69.0,75.0
40,24.63353742083333,24.89552346458333,74.0,100.0
41,25.04449592083333,25.232851899999996,69.0,62.0
42,25.24997517083333,25.35271479583333,74.0,93.0
43,25.45545442083333,25.688330904166662,62.0,73.0
44,25.66093367083333,25.878399210416664,64.0,71.0
45,25.86641292083333,25.940042985416664,67.0,67.0
46,26.07189217083333,26.15922085208333,69.0,70.0
47,26.27737142083333,26.715727154166665,74.0,95.0
48,26.68832992083333,27.09928842083333,69.0,77.0
49,27.09928842083333,27.359562137499996,62.0,70.0
50,27.30476767083333,27.450315472916664,66.0,71.0
51,27.51024692083333,27.804767179166664,67.0,63.0
52,27.715726170833328,27.928054729166664,69.0,67.0
53,27.92120542083333,28.205451716666662,74.0,79.0
54,28.33216392083333,28.679766318749998,74.0,79.0
55,28.74312242083333,29.011957772916663,62.0,65.0
56,28.94860167083333,29.27223148958333,64.0,66.0
57,29.15408092083333,29.38524507708333,66.0,65.0
58,29.35956017083333,29.475998412499997,67.0,81.0
59,29.56503942083333,29.89380622083333,74.0,98.0
60,30.38695642083333,30.635243847916662,62.0,73.0
61,30.59243567083333,30.71058623958333,64.0,71.0
62,30.79791492083333,30.910928508333328,67.0,77.0
63,31.003394170833328,31.089010524999996,69.0,77.0
64,31.208873420833328,31.638667518749997,72.0,81.0
65,31.619831920833327,31.78079066666666,69.0,70.0
66,31.82531117083333,32.011954822916664,72.0,74.0
67,32.03079042083333,32.29962577291666,62.0,74.0
68,32.23626967083333,32.51024200416666,64.0,64.0
69,32.44174892083333,32.67462540416666,67.0,60.0
70,32.64722817083333,32.765378739583326,69.0,74.0
71,32.852707420833326,33.03763874583333,72.0,74.0
72,33.05818667083333,33.246542649999995,67.0,70.0
73,33.263665920833326,33.67291209374999,69.0,83.0
74,33.67462442083333,33.955446062499995,62.0,83.0
75,33.88010367083333,34.13524040625,64.0,63.0
76,34.08558292083333,34.297911479166665,67.0,70.0
77,34.29106217083333,34.3869524875,69.0,72.0
78,34.49654142083333,34.857842435416664,74.0,98.0
79,34.90749992083333,35.077020302083326,69.0,71.0
80,35.31845842083333,35.66092383749999,62.0,76.0
81,35.52393767083333,35.70373201458333,64.0,65.0
82,35.72941692083333,35.83386887291666,67.0,70.0
83,35.934896170833326,36.02736183333333,69.0,81.0
84,36.14037542083333,36.53763530416666,74.0,100.0
85,36.96229242083333,37.229415445833325,62.0,79.0
86,37.167771670833325,37.325305762499994,64.0,64.0
87,37.37325092083333,37.474278218749994,67.0,67.0
88,37.57873017083333,37.66434652499999,69.0,86.0
89,37.78420942083333,38.070168043749995,74.0,81.0
90,38.60612642083333,38.90064667916666,62.0,85.0
91,38.81160567083333,38.99140001458333,64.0,60.0
92,39.01708492083333,39.10098894791666,67.0,69.0
93,39.22256417083333,39.32016681458333,69.0,74.0
94,39.428043420833326,40.30817954166666,74.0,86.0
95,40.249960420833325,40.51023413749999,62.0,93.0
96,40.45543967083333,40.64893263124999,64.0,61.0
97,40.660918920833325,40.76879552708333,67.0,72.0
98,40.86639817083333,40.958863833333325,69.0,87.0
99,41.071877420833324,41.46228799583333,74.0,108.0
100,41.48283592083333,41.84071228124999,69.0,87.0
101,41.89379442083333,42.17975304375,62.0,74.0
102,42.09927367083333,42.38351996666666,64.0,67.0
103,42.30475292083333,42.42975279791666,67.0,61.0
104,42.510232170833326,42.606122487499995,69.0,64.0
105,42.71571142083333,43.02221796874999,74.0,74.0
106,43.12666992083333,43.35269709583333,69.0,69.0
107,43.332149170833326,43.453724393749994,74.0,86.0
108,43.53762842083333,43.78934050208333,62.0,65.0
109,43.743107670833325,43.99310742499999,64.0,58.0
110,43.94858692083333,44.225983908333326,67.0,71.0
111,44.154066170833325,44.27392906666666,69.0,64.0
112,44.35954542083333,44.698586183333326,74.0,114.0
113,45.18146242083333,45.441736137499994,62.0,93.0
114,45.38694167083333,45.58043463124999,64.0,61.0
115,45.59242092083333,45.70029752708333,67.0,72.0
116,45.79790017083333,45.89036583333333,69.0,87.0
117,46.003379420833326,46.39378999583333,74.0,108.0
118,46.414337920833326,46.772214281249994,69.0,87.0
119,46.825296420833325,47.11125504374999,62.0,74.0
120,47.03077567083333,47.31502196666666,64.0,67.0
121,47.236254920833325,47.36125479791666,67.0,61.0
122,47.44173417083333,47.5376244875,69.0,64.0
123,47.647213420833324,47.95371996874999,74.0,74.0
124,48.058171920833324,48.28419909583333,69.0,69.0
125,48.26365117083333,48.385226393749996,74.0,86.0
126,48.469130420833324,48.72084250208333,62.0,65.0
127,48.67460967083333,48.92460942499999,64.0,58.0
128,48.88008892083333,49.15748590833333,67.0,71.0
129,49.08556817083333,49.20543106666666,69.0,64.0
130,49.29104742083333,49.63008818333333,74.0,114.0
131,50.11296442083333,50.33899159583333,62.0,72.0
132,50.318443670833325,50.55816946249999,64.0,65.0
133,50.52392292083333,50.61810091041666,67.0,63.0
134,50.729402170833325,50.816730852083325,69.0,75.0
135,50.93488142083333,51.19686746458333,74.0,100.0
136,51.34583992083333,51.53419589999999,69.0,62.0
137,51.551319170833324,51.65405879583333,74.0,93.0
138,51.75679842083333,51.98967490416666,62.0,73.0
139,51.96227767083332,52.17974321041666,64.0,71.0
140,52.16775692083333,52.24138698541666,67.0,67.0
141,52.37323617083332,52.46056485208333,69.0,70.0
142,52.578715420833326,53.01707115416666,74.0,95.0
143,52.989673920833326,53.400632420833325,69.0,77.0
144,53.400632420833325,53.66090613749999,62.0,70.0
145,53.60611167083333,53.75165947291666,66.0,71.0
146,53.811590920833325,54.10611117916666,67.0,63.0
147,54.01707017083333,54.22939872916666,69.0,67.0
148,54.222549420833325,54.50679571666666,74.0,79.0
149,54.633507920833324,54.98111031874999,74.0,79.0
150,55.044466420833324,55.31330177291666,62.0,65.0
151,55.24994567083333,55.57357548958333,64.0,66.0
152,55.45542492083332,55.686589077083326,66.0,65.0
153,55.66090417083333,55.77734241249999,67.0,81.0
154,55.86638342083332,56.19515022083333,74.0,98.0
155,56.68830042083333,56.93658784791666,62.0,73.0
156,56.893779670833325,57.01193023958333,64.0,71.0
157,57.09925892083333,57.21227250833333,67.0,77.0
158,57.304738170833325,57.39035452499999,69.0,77.0
159,57.51021742083333,57.94001151874999,72.0,81.0
160,57.92117592083333,58.08213466666666,69.0,70.0
161,58.126655170833324,58.31329882291666,72.0,74.0
162,58.33213442083333,58.600969772916656,62.0,74.0
163,58.53761367083332,58.81158600416666,64.0,64.0
164,58.74309292083333,58.97596940416666,67.0,60.0
165,58.94857217083332,59.06672273958333,69.0,74.0
166,59.154051420833326,59.33898274583333,72.0,74.0
167,59.35953067083332,59.547886649999995,67.0,70.0
168,59.565009920833326,59.97425609374999,69.0,83.0
169,59.975968420833325,60.256790062499995,62.0,83.0
170,60.18144767083333,60.43658440624999,64.0,63.0
171,60.386926920833325,60.59925547916666,67.0,70.0
172,60.59240617083333,60.68829648749999,69.0,72.0
173,60.797885420833325,61.15918643541666,74.0,98.0
174,61.208843920833324,61.37836430208333,69.0,71.0
175,61.619802420833324,61.962267837499994,62.0,76.0
176,61.82528167083333,62.005076014583324,64.0,65.0
177,62.03076092083332,62.13521287291666,67.0,70.0
178,62.23624017083333,62.32870583333332,69.0,81.0
179,62.44171942083332,62.83897930416666,74.0,100.0
180,63.26363642083332,63.530759445833326,62.0,79.0
181,63.469115670833325,63.626649762499994,64.0,64.0
182,63.67459492083332,63.775622218749994,67.0,67.0
183,63.880074170833325,63.96569052499999,69.0,86.0
184,64.08555342083332,64.37151204374999,74.0,81.0
185,64.90747042083332,65.20199067916666,62.0,85.0
186,65.11294967083333,65.29274401458332,64.0,60.0
187,65.31842892083333,65.40233294791666,67.0,69.0
188,65.52390817083332,65.62151081458333,69.0,74.0
189,65.72938742083332,66.55130442083332,74.0,86.0
190,66.55130442083332,66.75849599791665,76.0,93.0
191,66.75678367083333,66.93657801458332,71.0,65.0
192,66.96226292083333,67.12150933958333,74.0,85.0
193,67.16774217083332,67.35609815,69.0,77.0
194,67.37322142083332,67.58041299791665,71.0,71.0
195,67.57870067083333,67.73109778124999,67.0,87.0
196,67.78417992083332,67.98623451666666,69.0,70.0
197,67.98965917083332,68.17972747708332,64.0,77.0
198,68.19513842083333,68.445138175,62.0,90.0
199,68.40061767083333,68.57356270624999,64.0,69.0
200,68.60609692083332,68.70198723749999,67.0,87.0
201,68.81157617083332,68.90232950624998,69.0,98.0
202,69.01705542083333,69.10609642916666,71.0,90.0
203,69.22253467083333,69.30472637083332,74.0,87.0
204,69.42801392083332,69.62321920833332,76.0,112.0
205,69.63349317083332,69.75678072083332,79.0,117.0
206,70.04445167083333,70.11979406249999,64.0,43.0
207,69.83897242083333,70.14205431458332,62.0,74.0
208,70.24993092083332,70.37493079791666,67.0,74.0
209,70.45541017083332,70.65575243958332,69.0,62.0
210,70.66088942083333,70.94342338958333,62.0,72.0
211,70.86636867083332,71.17629987291666,64.0,66.0
212,71.07184792083332,71.29273811458333,67.0,60.0
213,71.27732717083332,71.51705296249999,69.0,64.0
214,71.48280642083333,71.75164177291666,62.0,72.0
215,71.68828567083332,72.00849083541665,64.0,60.0
216,71.89376492083332,72.12835373124999,67.0,59.0
217,72.09924417083333,72.328696,69.0,74.0
218,72.30472342083333,72.46396983958333,62.0,60.0
219,72.51020267083332,72.8218462,64.0,63.0
220,72.71568192083332,72.94513375,67.0,64.0
221,72.92116117083333,73.16088696249999,69.0,67.0
222,73.12664042083333,73.38520181041666,62.0,81.0
223,73.33211967083332,73.63691389166665,64.0,60.0
224,73.53759892083332,73.76191376874999,67.0,60.0
225,73.74307817083333,73.97766698125,69.0,71.0
226,73.94855742083332,74.24650233333332,62.0,71.0
227,74.15403667083332,74.47424183541666,64.0,60.0
228,74.35951592083332,74.58725542291666,67.0,59.0
229,74.56499517083333,74.80814561666665,69.0,63.0
230,74.77047442083332,75.01191253958332,64.0,70.0
231,74.97595367083332,75.16259732291665,67.0,59.0
232,75.18143292083332,75.35266562916665,69.0,64.0
233,75.38691217083333,75.55300789791666,64.0,72.0
234,75.59239142083332,75.75506249374999,67.0,63.0
235,75.79787067083332,76.006774575,64.0,72.0
236,76.00334992083333,76.19513055416665,67.0,72.0
237,76.20882917083333,76.36465093541666,69.0,104.0
238,76.41430842083332,76.71054100624998,62.0,76.0
239,76.61978767083332,76.86122578958333,64.0,60.0
240,76.82526692083333,77.04444478749998,67.0,71.0
241,77.03074617083332,77.27389661666666,69.0,64.0
242,77.23622542083332,77.54101964166665,62.0,64.0
243,77.44170467083332,77.74478656458332,64.0,61.0
244,77.64718392083333,77.86807411458332,67.0,67.0
245,77.85266317083332,78.11122456041666,69.0,63.0
246,78.05814242083332,78.34581337083333,62.0,67.0
247,78.26362167083332,78.57526519999999,64.0,63.0
248,78.46910092083333,78.65745689999999,67.0,61.0
249,78.67458017083332,78.88177174791666,69.0,65.0
250,78.88005942083332,79.14547011874998,62.0,72.0
251,79.08553867083333,79.39033289166666,64.0,65.0
252,79.29101792083333,79.50334647916665,67.0,62.0
253,79.49649717083332,79.71396271041665,69.0,71.0
254,79.70197642083332,79.96396246458332,62.0,79.0
255,79.90745567083333,80.23451014374999,64.0,64.0
256,80.11293492083333,80.35437303958332,67.0,60.0
257,80.31841417083332,80.52218109374999,69.0,61.0
258,80.52389342083332,80.78416713749999,62.0,75.0
259,80.72937267083333,81.02218060208332,64.0,65.0
260,80.93485192083332,81.18656400208332,67.0,59.0
261,81.14033117083332,81.36807067291666,69.0,69.0
262,81.34581042083332,81.61635809999999,74.0,66.0
263,81.55128967083333,81.81498804166665,64.0,69.0
264,81.75676892083332,81.89717974166666,67.0,67.0
265,81.96224817083332,82.08896037499998,69.0,104.0
266,82.16772742083332,82.40402855833332,64.0,66.0
267,82.37320667083333,82.5718366125,67.0,64.0
268,82.57868592083332,82.71909674166666,69.0,83.0
269,82.78416517083332,82.92115133749999,67.0,69.0
270,82.98964442083333,83.21738392291665,59.0,74.0
271,83.19512367083333,83.39204128541665,64.0,69.0
272,83.40060292083332,83.63690405833333,66.0,85.0
273,83.81156142083333,84.05299953958333,64.0,85.0
274,84.01704067083332,84.23279388333333,67.0,61.0
275,84.22251992083332,84.49306759999999,69.0,77.0
276,87.09922942083332,87.38176338958333,62.0,73.0
277,87.30470867083332,87.61292754583332,64.0,62.0
278,87.51018792083332,87.66087270416665,67.0,63.0
279,87.71566717083333,87.94340667291665,69.0,67.0
280,87.92114642083332,88.212242025,62.0,74.0
281,88.12662567083332,88.41943360208332,64.0,67.0
282,88.33210492083332,88.53073486249998,67.0,60.0
283,88.53758417083333,88.77046065416665,69.0,63.0
284,88.74306342083332,89.02730971666665,62.0,63.0
285,88.94854267083332,89.24819991041666,64.0,65.0
286,89.15402192083332,89.39032305833332,67.0,60.0
287,89.35950117083333,89.54956947708332,69.0,74.0
288,89.56498042083332,89.84580206249998,62.0,75.0
289,89.77045967083332,90.04443200416665,64.0,73.0
290,89.97593892083331,90.17456886249998,67.0,63.0
291,90.18141817083333,90.39032207499999,69.0,72.0
292,90.38689742083332,90.68997931458333,62.0,68.0
293,90.59237667083332,90.91600648958332,64.0,72.0
294,90.79785592083333,91.00847215208331,67.0,60.0
295,91.00333517083332,91.21566372916665,69.0,60.0
296,91.20881442083332,91.48621140833332,62.0,66.0
297,91.41429367083332,91.76360839583332,64.0,65.0
298,91.61977292083333,91.82353984374998,67.0,65.0
299,91.82525217083332,92.05984098124999,69.0,72.0
300,92.03073142083332,92.28586815624999,62.0,61.0
301,92.23621067083332,92.59066237708332,64.0,67.0
302,92.44168992083333,92.59922401249999,67.0,60.0
303,92.64716917083332,92.81840187916666,69.0,65.0
304,92.85264842083332,93.05299068958332,76.0,75.0
305,93.05812767083331,93.29785346249999,71.0,68.0
306,93.26360692083333,93.37319585416665,74.0,86.0
307,93.46908617083332,93.62662026249998,76.0,79.0
308,93.67456542083332,93.86977070833332,71.0,74.0
309,93.88004467083331,93.98620894999999,74.0,67.0
310,94.08552392083332,94.19682518124999,76.0,79.0
311,94.29100317083332,94.49648242083332,74.0,95.0
312,94.49648242083332,94.76874242708332,64.0,81.0
313,94.70196167083333,94.93997513541666,67.0,61.0
314,94.90744092083332,95.12661878749999,69.0,74.0
315,95.11292017083332,95.24476935624999,62.0,73.0
316,95.31839942083332,95.52387867083333,64.0,86.0
317,95.52387867083333,95.78072773333332,67.0,76.0
318,95.72935792083332,95.95709742291666,69.0,74.0
319,95.93483717083332,96.09065893541666,67.0,75.0
320,96.34579567083333,96.42113806249999,64.0,43.0
321,96.14031642083332,96.44339831458332,62.0,74.0
322,96.55127492083332,96.67627479791665,67.0,74.0
323,96.75675417083332,96.95709643958332,69.0,62.0
324,96.96223342083331,97.24476738958332,62.0,72.0
325,97.16771267083332,97.47764387291666,64.0,66.0
326,97.37319192083332,97.59408211458332,67.0,60.0
327,97.57867117083332,97.81839696249999,69.0,64.0
328,97.78415042083331,98.05298577291666,62.0,72.0
329,97.98962967083332,98.30983483541665,64.0,60.0
330,98.19510892083332,98.42969773124999,67.0,59.0
331,98.40058817083332,98.63004,69.0,74.0
332,98.60606742083333,98.76531383958331,62.0,60.0
333,98.81154667083332,99.12319019999998,64.0,63.0
334,99.01702592083332,99.24647774999998,67.0,64.0
335,99.22250517083332,99.46223096249999,69.0,67.0
336,99.42798442083333,99.68654581041665,62.0,81.0
337,99.63346367083332,99.93825789166665,64.0,60.0
338,99.83894292083332,100.06325776874999,67.0,60.0
339,100.04442217083331,100.27901098124998,69.0,71.0
340,100.24990142083333,100.54784633333333,62.0,71.0
341,100.45538067083332,100.77558583541665,64.0,60.0
342,100.66085992083332,100.88859942291666,67.0,59.0
343,100.86633917083331,101.10948961666665,69.0,63.0
344,101.07181842083332,101.31325653958332,64.0,70.0
345,101.27729767083332,101.46394132291665,67.0,59.0
346,101.48277692083332,101.65400962916665,69.0,64.0
347,101.68825617083331,101.85435189791666,64.0,72.0
348,101.89373542083332,102.05640649374999,67.0,63.0
349,102.09921467083332,102.30811857499998,64.0,72.0
350,102.30469392083332,102.49647455416665,67.0,72.0
351,102.51017317083333,102.66599493541665,69.0,104.0
352,102.71565242083332,103.01188500624998,62.0,76.0
353,102.92113167083332,103.16256978958332,64.0,60.0
354,103.12661092083331,103.34578878749998,67.0,71.0
355,103.33209017083333,103.57524061666665,69.0,64.0
356,103.53756942083332,103.84236364166665,62.0,64.0
357,103.74304867083332,104.04613056458332,64.0,61.0
358,103.94852792083331,104.16941811458332,67.0,67.0
359,104.15400717083332,104.41256856041666,69.0,63.0
360,104.35948642083332,104.64715737083331,62.0,67.0
361,104.56496567083332,104.87660919999999,64.0,63.0
362,104.77044492083331,104.95880089999999,67.0,61.0
363,104.97592417083332,105.18311574791666,69.0,65.0
364,105.18140342083332,105.44681411874998,62.0,72.0
365,105.38688267083332,105.69167689166665,64.0,65.0
366,105.59236192083333,105.80469047916665,67.0,62.0
367,105.79784117083332,106.01530671041665,69.0,71.0
368,106.00332042083332,106.26530646458332,62.0,79.0
369,106.20879967083332,106.53585414374999,64.0,64.0
370,106.41427892083333,106.65571703958332,67.0,60.0
371,106.61975817083332,106.82352509374999,69.0,61.0
372,106.82523742083332,107.08551113749999,62.0,75.0
373,107.03071667083331,107.32352460208332,64.0,65.0
374,107.23619592083332,107.48790800208332,67.0,59.0
375,107.44167517083332,107.66941467291666,69.0,69.0
376,107.64715442083332,107.91770209999999,74.0,66.0
377,107.85263367083331,108.11633204166665,64.0,69.0
378,108.05811292083332,108.19852374166665,67.0,67.0
379,108.26359217083332,108.39030437499999,69.0,104.0
380,108.46907142083332,108.70537255833332,64.0,66.0
381,108.67455067083331,108.87318061249998,67.0,64.0
382,108.88002992083332,109.02044074166665,69.0,83.0
383,109.08550917083332,109.22249533749998,67.0,69.0
384,109.29098842083332,109.51872792291665,59.0,74.0
385,109.49646767083333,109.69338528541665,64.0,69.0
386,109.70194692083332,109.93824805833331,66.0,85.0
387,110.11290542083331,110.35434353958333,64.0,85.0
388,110.31838467083332,110.53413788333332,67.0,61.0
389,110.52386392083332,110.79441159999999,69.0,77.0
390,110.93482242083331,111.21050708124999,62.0,86.0
391,111.14030167083332,111.28413714583331,64.0,64.0
392,111.34578092083332,111.49817803124999,69.0,81.0
393,111.55126017083332,111.68653401041665,67.0,60.0
394,111.75673942083331,112.01016382916666,62.0,83.0
395,111.96221867083332,112.10776647291665,64.0,74.0
396,112.16769792083332,112.28756081666666,69.0,86.0
397,112.37317717083332,112.49988937499998,67.0,70.0
398,112.57865642083331,112.80810824999999,69.0,87.0
399,112.78413567083332,113.06495731249998,67.0,67.0
400,112.98961492083332,113.12831341458332,69.0,73.0
401,113.19509417083331,113.40057342083333,71.0,95.0
402,113.40057342083333,113.68310738958331,62.0,73.0
403,113.60605267083332,113.91427154583332,64.0,62.0
404,113.81153192083332,113.96221670416665,67.0,63.0
405,114.01701117083331,114.24475067291665,69.0,67.0
406,114.22249042083332,114.51358602499998,62.0,74.0
407,114.42796967083332,114.72077760208332,64.0,67.0
408,114.63344892083332,114.83207886249998,67.0,60.0
409,114.83892817083331,115.07180465416666,69.0,63.0
410,115.04440742083332,115.32865371666665,62.0,63.0
411,115.24988667083332,115.54954391041665,64.0,65.0
412,115.45536592083332,115.69166705833332,67.0,60.0
413,115.66084517083331,115.85091347708332,69.0,74.0
414,115.86632442083332,116.14714606249998,62.0,75.0
415,116.07180367083332,116.34577600416665,64.0,73.0
416,116.27728292083331,116.47591286249998,67.0,63.0
417,116.48276217083331,116.69166607499999,69.0,72.0
418,116.68824142083332,116.99132331458331,62.0,68.0
419,116.89372067083332,117.21735048958332,64.0,72.0
420,117.09919992083331,117.30981615208331,67.0,60.0
421,117.30467917083332,117.51700772916665,69.0,60.0
422,117.51015842083332,117.78755540833332,62.0,66.0
423,117.71563767083332,118.06495239583332,64.0,65.0
424,117.92111692083331,118.12488384374998,67.0,65.0
425,118.12659617083332,118.36118498124999,69.0,72.0
426,118.33207542083332,118.58721215624999,62.0,61.0
427,118.53755467083332,118.89200637708332,64.0,67.0
428,118.74303392083331,118.90056801249999,67.0,60.0
429,118.94851317083332,119.11974587916666,69.0,65.0
430,119.15399242083332,119.35433468958331,76.0,75.0
431,119.35947167083332,119.59919746249999,71.0,68.0
432,119.56495092083331,119.67453985416665,74.0,86.0
433,119.77043017083332,119.92796426249998,76.0,79.0
434,119.97590942083332,120.17111470833332,71.0,74.0
435,120.18138867083331,120.28755294999998,74.0,67.0
436,120.38686792083331,120.49816918124998,76.0,79.0
437,120.59234717083332,120.79782642083332,74.0,95.0
438,120.79782642083332,121.07008642708331,64.0,81.0
439,121.00330567083331,121.24131913541665,67.0,61.0
440,121.20878492083332,121.42796278749998,69.0,74.0
441,121.41426417083332,121.54611335624999,62.0,73.0
442,121.61974342083332,121.82522267083331,64.0,86.0
443,121.82522267083331,122.08207173333332,67.0,76.0
444,122.03070192083332,122.25844142291665,69.0,74.0
445,122.23618117083332,122.39200293541666,67.0,75.0
446,122.44166042083332,124.12659027083332,83.0,111.0
447,124.49645292083332,124.71391846041665,81.0,93.0
448,124.90741142083331,125.22076727708331,83.0,100.0
449,125.31836992083332,125.64884904791666,76.0,93.0
450,125.72932842083331,126.42282088958332,79.0,100.0
451,126.96220392083332,127.14713524583331,81.0,83.0
452,127.16768317083331,127.27727210416666,83.0,75.0
453,127.37316242083331,129.03925667291665,86.0,114.0
454,129.01699642083332,130.78069331666666,83.0,90.0
455,131.0717889208333,131.24473395624997,88.0,79.0
456,131.2772681708333,131.4245283,86.0,69.0
457,131.4827474208333,132.05466466666664,83.0,74.0
458,132.09918517083332,132.35945888749998,81.0,79.0
459,132.30466442083332,132.6437051833333,83.0,85.0
460,132.7156229208333,133.1265814208333,86.0,74.0
461,133.1265814208333,134.8680180645833,83.0,69.0
462,135.38685317083332,135.57178449583333,83.0,85.0
463,135.59233242083332,137.4005498208333,88.0,114.0
464,137.6471249208333,137.9690424125,83.0,98.0
465,138.05808342083333,138.51869940625,81.0,86.0
466,138.67452117083332,138.7926717395833,83.0,95.0
467,138.8800004208333,139.24301376249997,81.0,79.0
468,139.2909589208333,139.43821905,79.0,86.0
469,139.4964381708333,140.7755465020833,76.0,76.0
470,141.75670992083332,141.91766866666666,81.0,77.0
471,141.9621891708333,142.11458628124998,83.0,85.0
472,142.1676684208333,143.99472141874998,81.0,87.0
473,144.22246092083333,144.46561136666665,79.0,74.0
474,144.42794017083332,144.54609073958332,76.0,76.0
475,144.63341942083332,145.2909530208333,74.0,93.0
476,145.2498571708333,145.47417201874998,76.0,65.0
477,145.4553364208333,147.0991704208333,79.0,98.0
478,148.7430044208333,149.0032781375,62.0,93.0
479,148.94848367083333,149.14197663124997,64.0,61.0
480,149.15396292083332,149.2618395270833,67.0,72.0
481,149.35944217083332,149.4519078333333,69.0,87.0
482,149.56492142083331,149.95533199583332,74.0,108.0
483,149.9758799208333,150.33375628124998,69.0,87.0
484,150.3868384208333,150.67279704374997,62.0,74.0
485,150.59231767083332,150.87656396666665,64.0,67.0
486,150.79779692083332,150.92279679791665,67.0,61.0
487,151.00327617083332,151.09916648749999,69.0,64.0
488,151.2087554208333,151.51526196874997,74.0,74.0
489,151.6197139208333,151.84574109583332,69.0,69.0
490,151.8251931708333,151.94676839374998,74.0,86.0
491,152.03067242083333,152.28238450208332,62.0,65.0
492,152.23615167083332,152.48615142499997,64.0,58.0
493,152.44163092083332,152.71902790833332,67.0,71.0
494,152.64711017083332,152.76697306666665,69.0,64.0
495,152.8525894208333,153.1916301833333,74.0,114.0
496,153.67450642083332,153.93478013749998,62.0,93.0
497,153.87998567083332,154.07347863124997,64.0,61.0
498,154.08546492083332,154.1933415270833,67.0,72.0
499,154.2909441708333,154.3834098333333,69.0,87.0
500,154.4964234208333,154.8868339958333,74.0,108.0
501,154.9073819208333,155.26525828124997,69.0,87.0
502,155.31834042083332,155.60429904375,62.0,74.0
503,155.52381967083332,155.80806596666665,64.0,67.0
504,155.72929892083332,155.85429879791664,67.0,61.0
505,155.9347781708333,156.03066848749998,69.0,64.0
506,156.1402574208333,156.44676396875,74.0,74.0
507,156.5512159208333,156.7772430958333,69.0,69.0
508,156.75669517083332,156.87827039374997,74.0,86.0
509,156.96217442083332,157.2138865020833,62.0,65.0
510,157.16765367083332,157.41765342499997,64.0,58.0
511,157.3731329208333,157.6505299083333,67.0,71.0
512,157.5786121708333,157.69847506666665,69.0,64.0
513,157.7840914208333,158.12313218333333,74.0,114.0
514,158.60600842083332,158.8320355958333,62.0,72.0
515,158.81148767083332,159.0512134625,64.0,65.0
516,159.0169669208333,159.11114491041664,67.0,63.0
517,159.2224461708333,159.3097748520833,69.0,75.0
518,159.4279254208333,159.6899114645833,74.0,100.0
519,159.83888392083333,160.02723989999998,69.0,62.0
520,160.04436317083332,160.14710279583332,74.0,93.0
521,160.24984242083332,160.48271890416663,62.0,73.0
522,160.4553216708333,160.67278721041666,64.0,71.0
523,160.6608009208333,160.73443098541665,67.0,67.0
524,160.8662801708333,160.9536088520833,69.0,70.0
525,161.0717594208333,161.51011515416664,74.0,95.0
526,161.48271792083332,161.89367642083332,69.0,77.0
527,161.89367642083332,162.15395013749998,62.0,70.0
528,162.0991556708333,162.24470347291665,66.0,71.0
529,162.3046349208333,162.59915517916664,67.0,63.0
530,162.5101141708333,162.72244272916666,69.0,67.0
531,162.7155934208333,162.99983971666666,74.0,79.0
532,163.12655192083332,163.47415431874998,74.0,79.0
533,163.5375104208333,163.80634577291664,62.0,65.0
534,163.7429896708333,164.0666194895833,64.0,66.0
535,163.9484689208333,164.1796330770833,66.0,65.0
536,164.1539481708333,164.2703864125,67.0,81.0
537,164.3594274208333,164.6881942208333,74.0,98.0
538,165.1813444208333,165.42963184791665,62.0,73.0
539,165.3868236708333,165.5049742395833,64.0,71.0
540,165.5923029208333,165.7053165083333,67.0,77.0
541,165.7977821708333,165.883398525,69.0,77.0
542,166.0032614208333,166.43305551874997,72.0,81.0
543,166.41421992083332,166.57517866666663,69.0,70.0
544,166.61969917083331,166.80634282291663,72.0,74.0
545,166.8251784208333,167.09401377291664,62.0,74.0
546,167.0306576708333,167.30463000416665,64.0,64.0
547,167.2361369208333,167.46901340416665,67.0,60.0
548,167.4416161708333,167.55976673958332,69.0,74.0
549,167.64709542083332,167.8320267458333,72.0,74.0
550,167.85257467083332,168.04093064999998,67.0,70.0
551,168.05805392083332,168.46730009374997,69.0,83.0
552,168.4690124208333,168.74983406249999,62.0,83.0
553,168.6744916708333,168.92962840624998,64.0,63.0
554,168.8799709208333,169.09229947916666,67.0,70.0
555,169.0854501708333,169.18134048749997,69.0,72.0
556,169.29092942083332,169.65223043541664,74.0,98.0
557,169.70188792083331,169.87140830208332,69.0,71.0
558,170.1128464208333,170.45531183749998,62.0,76.0
559,170.3183256708333,170.49812001458332,64.0,65.0
560,170.5238049208333,170.62825687291664,67.0,70.0
561,170.72928417083332,170.8217498333333,69.0,81.0
562,170.93476342083332,171.33202330416665,74.0,100.0
563,171.7566804208333,172.02380344583332,62.0,79.0
564,171.9621596708333,172.11969376249996,64.0,64.0
565,172.1676389208333,172.26866621874998,67.0,67.0
566,172.37311817083332,172.45873452499998,69.0,86.0
567,172.57859742083332,172.86455604374999,74.0,81.0
568,173.4005144208333,173.69503467916664,62.0,85.0
569,173.6059936708333,173.78578801458332,64.0,60.0
570,173.8114729208333,173.89537694791665,67.0,69.0
571,174.01695217083332,174.1145548145833,69.0,74.0
572,174.22243142083332,175.0443484208333,74.0,86.0
573,175.0443484208333,175.25153999791664,76.0,93.0
574,175.2498276708333,175.42962201458332,71.0,65.0
575,175.45530692083332,175.61455333958332,74.0,85.0
576,175.66078617083332,175.84914214999998,69.0,77.0
577,175.86626542083332,176.07345699791665,71.0,71.0
578,176.0717446708333,176.22414178124998,67.0,87.0
579,176.2772239208333,176.47927851666665,69.0,70.0
580,176.4827031708333,176.6727714770833,64.0,77.0
581,176.6881824208333,176.93818217499998,62.0,90.0
582,176.8936616708333,177.06660670624998,64.0,69.0
583,177.09914092083332,177.1950312375,67.0,87.0
584,177.30462017083332,177.39537350624997,69.0,98.0
585,177.5100994208333,177.59914042916665,71.0,90.0
586,177.7155786708333,177.79777037083332,74.0,87.0
587,177.9210579208333,178.11626320833332,76.0,112.0
588,178.1265371708333,178.24982472083332,79.0,117.0
589,178.53749567083332,178.61283806249997,64.0,43.0
590,178.3320164208333,178.6350983145833,62.0,74.0
591,178.74297492083332,178.86797479791665,67.0,74.0
592,178.94845417083332,179.14879643958332,69.0,62.0
593,179.1539334208333,179.4364673895833,62.0,72.0
594,179.3594126708333,179.66934387291664,64.0,66.0
595,179.5648919208333,179.7857821145833,67.0,60.0
596,179.7703711708333,180.01009696249997,69.0,64.0
597,179.9758504208333,180.24468577291665,62.0,72.0
598,180.18132967083332,180.50153483541663,64.0,60.0
599,180.38680892083332,180.62139773124997,67.0,59.0
600,180.5922881708333,180.82173999999998,69.0,74.0
601,180.7977674208333,180.9570138395833,62.0,60.0
602,181.0032466708333,181.31489019999998,64.0,63.0
603,181.2087259208333,181.43817774999997,67.0,64.0
604,181.4142051708333,181.65393096249997,69.0,67.0
605,181.61968442083332,181.87824581041664,62.0,81.0
606,181.82516367083332,182.12995789166663,64.0,60.0
607,182.03064292083332,182.25495776875,67.0,60.0
608,182.2361221708333,182.47071098124997,69.0,71.0
609,182.4416014208333,182.73954633333332,62.0,71.0
610,182.6470806708333,182.96728583541665,64.0,60.0
611,182.8525599208333,183.08029942291665,67.0,59.0
612,183.0580391708333,183.30118961666665,69.0,63.0
613,183.26351842083332,183.5049565395833,64.0,70.0
614,183.46899767083332,183.65564132291664,67.0,59.0
615,183.6744769208333,183.84570962916663,69.0,64.0
616,183.8799561708333,184.04605189791664,64.0,72.0
617,184.0854354208333,184.24810649375,67.0,63.0
618,184.2909146708333,184.49981857499998,64.0,72.0
619,184.4963939208333,184.68817455416664,67.0,72.0
620,184.7018731708333,184.85769493541665,69.0,104.0
621,184.90735242083332,185.20358500624997,62.0,76.0
622,185.11283167083332,185.3542697895833,64.0,60.0
623,185.3183109208333,185.53748878749997,67.0,71.0
624,185.5237901708333,185.76694061666663,69.0,64.0
625,185.7292694208333,186.03406364166665,62.0,64.0
626,185.9347486708333,186.2378305645833,64.0,61.0
627,186.1402279208333,186.36111811458332,67.0,67.0
628,186.34570717083332,186.60426856041664,69.0,63.0
629,186.55118642083332,186.8388573708333,62.0,67.0
630,186.7566656708333,187.0683092,64.0,63.0
631,186.9621449208333,187.15050089999997,67.0,61.0
632,187.1676241708333,187.37481574791664,69.0,65.0
633,187.3731034208333,187.63851411874998,62.0,72.0
634,187.5785826708333,187.88337689166664,64.0,65.0
635,187.7840619208333,187.99639047916665,67.0,62.0
636,187.98954117083332,188.20700671041664,69.0,71.0
637,188.19502042083332,188.45700646458332,62.0,79.0
638,188.4004996708333,188.72755414374998,64.0,64.0
639,188.6059789208333,188.84741703958332,67.0,60.0
640,188.8114581708333,189.01522509374996,69.0,61.0
641,189.0169374208333,189.27721113749996,62.0,75.0
642,189.2224166708333,189.51522460208332,64.0,65.0
643,189.42789592083332,189.6796080020833,67.0,59.0
644,189.63337517083332,189.86111467291664,69.0,69.0
645,189.83885442083331,190.10940209999998,74.0,66.0
646,190.0443336708333,190.30803204166665,64.0,69.0
647,190.2498129208333,190.39022374166663,67.0,67.0
648,190.4552921708333,190.58200437499997,69.0,104.0
649,190.6607714208333,190.89707255833332,64.0,66.0
650,190.8662506708333,191.06488061249996,67.0,64.0
651,191.07172992083332,191.21214074166664,69.0,83.0
652,191.27720917083332,191.41419533749996,67.0,69.0
653,191.4826884208333,191.71042792291664,59.0,74.0
654,191.6881676708333,191.88508528541664,64.0,69.0
655,191.8936469208333,192.1299480583333,66.0,85.0
656,192.3046054208333,192.5460435395833,64.0,85.0
657,192.5100846708333,192.7258378833333,67.0,61.0
658,192.71556392083332,192.9861116,69.0,77.0
659,195.5922734208333,195.8748073895833,62.0,73.0
660,195.79775267083332,196.1059715458333,64.0,62.0
661,196.00323192083331,196.15391670416665,67.0,63.0
662,196.2087111708333,196.43645067291664,69.0,67.0
663,196.4141904208333,196.70528602499996,62.0,74.0
664,196.6196696708333,196.9124776020833,64.0,67.0
665,196.8251489208333,197.02377886249997,67.0,60.0
666,197.0306281708333,197.26350465416664,69.0,63.0
667,197.23610742083332,197.52035371666665,62.0,63.0
668,197.44158667083332,197.74124391041664,64.0,65.0
669,197.6470659208333,197.8833670583333,67.0,60.0
670,197.8525451708333,198.0426134770833,69.0,74.0
671,198.0580244208333,198.33884606249998,62.0,75.0
672,198.2635036708333,198.53747600416665,64.0,73.0
673,198.4689829208333,198.66761286249996,67.0,63.0
674,198.6744621708333,198.88336607499997,69.0,72.0
675,198.87994142083332,199.1830233145833,62.0,68.0
676,199.08542067083332,199.4090504895833,64.0,72.0
677,199.2908999208333,199.5015161520833,67.0,60.0
678,199.4963791708333,199.70870772916663,69.0,60.0
679,199.7018584208333,199.9792554083333,62.0,66.0
680,199.9073376708333,200.2566523958333,64.0,65.0
681,200.1128169208333,200.31658384374998,67.0,65.0
682,200.3182961708333,200.55288498124997,69.0,72.0
683,200.52377542083332,200.77891215625,62.0,61.0
684,200.7292546708333,201.0837063770833,64.0,67.0
685,200.9347339208333,201.09226801249997,67.0,60.0
686,201.1402131708333,201.31144587916663,69.0,65.0
687,201.3456924208333,201.5460346895833,76.0,75.0
688,201.5511716708333,201.79089746249997,71.0,68.0
689,201.7566509208333,201.86623985416665,74.0,86.0
690,201.96213017083332,202.11966426249998,76.0,79.0
691,202.16760942083332,202.3628147083333,71.0,74.0
692,202.3730886708333,202.47925294999996,74.0,67.0
693,202.5785679208333,202.68986918124997,76.0,79.0
694,202.7840471708333,202.9895264208333,74.0,95.0
695,202.9895264208333,203.2617864270833,64.0,81.0
696,203.1950056708333,203.43301913541663,67.0,61.0
697,203.4004849208333,203.61966278749998,69.0,74.0
698,203.60596417083332,203.73781335624997,62.0,73.0
699,203.8114434208333,204.0169226708333,64.0,86.0
700,204.0169226708333,204.27377173333332,67.0,76.0
701,204.2224019208333,204.45014142291663,69.0,74.0
702,204.4278811708333,204.58370293541665,67.0,75.0
703,204.8388396708333,204.91418206249998,64.0,43.0
704,204.6333604208333,204.9364423145833,62.0,74.0
705,205.04431892083332,205.16931879791665,67.0,74.0
706,205.24979817083332,205.4501404395833,69.0,62.0
707,205.4552774208333,205.7378113895833,62.0,72.0
708,205.6607566708333,205.97068787291664,64.0,66.0
709,205.8662359208333,206.0871261145833,67.0,60.0
710,206.0717151708333,206.31144096249997,69.0,64.0
711,206.2771944208333,206.54602977291663,62.0,72.0
712,206.4826736708333,206.80287883541664,64.0,60.0
713,206.68815292083332,206.92274173124997,67.0,59.0
714,206.8936321708333,207.12308399999998,69.0,74.0
715,207.0991114208333,207.2583578395833,62.0,60.0
716,207.3045906708333,207.61623419999998,64.0,63.0
717,207.5100699208333,207.73952174999997,67.0,64.0
718,207.7155491708333,207.95527496249997,69.0,67.0
719,207.9210284208333,208.17958981041664,62.0,81.0
720,208.12650767083332,208.43130189166664,64.0,60.0
721,208.33198692083332,208.55630176874996,67.0,60.0
722,208.5374661708333,208.77205498124997,69.0,71.0
723,208.7429454208333,209.0408903333333,62.0,71.0
724,208.9484246708333,209.26862983541665,64.0,60.0
725,209.1539039208333,209.38164342291662,67.0,59.0
726,209.3593831708333,209.60253361666665,69.0,63.0
727,209.5648624208333,209.8063005395833,64.0,70.0
728,209.77034167083332,209.95698532291664,67.0,59.0
729,209.9758209208333,210.14705362916663,69.0,64.0
730,210.1813001708333,210.34739589791664,64.0,72.0
731,210.3867794208333,210.54945049374996,67.0,63.0
732,210.5922586708333,210.80116257499998,64.0,72.0
733,210.7977379208333,210.98951855416664,67.0,72.0
734,211.0032171708333,211.15903893541665,69.0,104.0
735,211.2086964208333,211.50492900624997,62.0,76.0
736,211.41417567083332,211.6556137895833,64.0,60.0
737,211.6196549208333,211.83883278749997,67.0,71.0
738,211.8251341708333,212.06828461666663,69.0,64.0
739,212.0306134208333,212.33540764166665,62.0,64.0
740,212.2360926708333,212.5391745645833,64.0,61.0
741,212.4415719208333,212.6624621145833,67.0,67.0
742,212.6470511708333,212.90561256041664,69.0,63.0
743,212.85253042083332,213.1402013708333,62.0,67.0
744,213.05800967083331,213.36965319999996,64.0,63.0
745,213.2634889208333,213.45184489999997,67.0,61.0
746,213.4689681708333,213.67615974791664,69.0,65.0
747,213.6744474208333,213.93985811874998,62.0,72.0
748,213.8799266708333,214.18472089166664,64.0,65.0
749,214.0854059208333,214.29773447916665,67.0,62.0
750,214.2908851708333,214.50835071041664,69.0,71.0
751,214.49636442083332,214.75835046458332,62.0,79.0
752,214.7018436708333,215.02889814374998,64.0,64.0
753,214.9073229208333,215.1487610395833,67.0,60.0
754,215.1128021708333,215.31656909374996,69.0,61.0
755,215.3182814208333,215.57855513749996,62.0,75.0
756,215.5237606708333,215.8165686020833,64.0,65.0
757,215.7292399208333,215.9809520020833,67.0,59.0
758,215.93471917083332,216.16245867291664,69.0,69.0
759,216.14019842083331,216.41074609999998,74.0,66.0
760,216.3456776708333,216.60937604166665,64.0,69.0
761,216.5511569208333,216.69156774166663,67.0,67.0
762,216.7566361708333,216.88334837499997,69.0,104.0
763,216.9621154208333,217.1984165583333,64.0,66.0
764,217.1675946708333,217.36622461249996,67.0,64.0
765,217.3730739208333,217.51348474166664,69.0,83.0
766,217.57855317083332,217.71553933749996,67.0,69.0
767,217.7840324208333,218.01177192291664,59.0,74.0
768,217.9895116708333,218.18642928541664,64.0,69.0
769,218.1949909208333,218.4312920583333,66.0,85.0
770,218.6059494208333,218.8473875395833,64.0,85.0
771,218.8114286708333,219.0271818833333,67.0,61.0
772,219.0169079208333,219.28745559999996,69.0,77.0
773,219.4278664208333,219.70355108124997,62.0,86.0
774,219.6333456708333,219.7771811458333,64.0,64.0
775,219.8388249208333,219.99122203124998,69.0,81.0
776,220.0443041708333,220.17957801041663,67.0,60.0
777,220.2497834208333,220.50320782916663,62.0,83.0
778,220.4552626708333,220.60081047291663,64.0,74.0
779,220.66074192083332,220.78060481666662,69.0,86.0
780,220.8662211708333,220.99293337499998,67.0,70.0
781,221.0717004208333,221.30115224999997,69.0,87.0
782,221.2771796708333,221.55800131249998,67.0,67.0
783,221.4826589208333,221.62135741458331,69.0,73.0
784,221.6881381708333,221.8936174208333,71.0,95.0
785,221.8936174208333,222.1761513895833,62.0,73.0
786,222.0990966708333,222.4073155458333,64.0,62.0
787,222.30457592083332,222.45526070416665,67.0,63.0
788,222.5100551708333,222.73779467291664,69.0,67.0
789,222.7155344208333,223.00663002499996,62.0,74.0
790,222.9210136708333,223.2138216020833,64.0,67.0
791,223.1264929208333,223.32512286249997,67.0,60.0
792,223.3319721708333,223.56484865416664,69.0,63.0
793,223.5374514208333,223.82169771666665,62.0,63.0
794,223.74293067083332,224.04258791041664,64.0,65.0
795,223.9484099208333,224.1847110583333,67.0,60.0
796,224.1538891708333,224.3439574770833,69.0,74.0
797,224.3593684208333,224.64019006249998,62.0,75.0
798,224.5648476708333,224.83882000416665,64.0,73.0
799,224.7703269208333,224.96895686249997,67.0,63.0
800,224.9758061708333,225.18471007499997,69.0,72.0
801,225.1812854208333,225.4843673145833,62.0,68.0
802,225.38676467083332,225.7103944895833,64.0,72.0
803,225.5922439208333,225.8028601520833,67.0,60.0
804,225.7977231708333,226.01005172916663,69.0,60.0
805,226.0032024208333,226.2805994083333,62.0,66.0
806,226.2086816708333,226.5579963958333,64.0,65.0
807,226.4141609208333,226.61792784374998,67.0,65.0
808,226.6196401708333,226.85422898124997,69.0,72.0
809,226.8251194208333,227.08025615624996,62.0,61.0
810,227.0305986708333,227.3850503770833,64.0,67.0
811,227.2360779208333,227.39361201249997,67.0,60.0
812,227.4415571708333,227.61278987916663,69.0,65.0
813,227.6470364208333,227.8473786895833,76.0,75.0
814,227.8525156708333,228.09224146249997,71.0,68.0
815,228.0579949208333,228.16758385416662,74.0,86.0
816,228.2634741708333,228.42100826249998,76.0,79.0
817,228.46895342083332,228.6641587083333,71.0,74.0
818,228.6744326708333,228.78059694999996,74.0,67.0
819,228.8799119208333,228.99121318124998,76.0,79.0
820,229.0853911708333,229.2908704208333,74.0,95.0
821,229.2908704208333,229.5631304270833,64.0,81.0
822,229.4963496708333,229.73436313541663,67.0,61.0
823,229.7018289208333,229.92100678749998,69.0,74.0
824,229.9073081708333,230.03915735624997,62.0,73.0
825,230.5237459208333,230.66073208749998,72.0,90.0
826,230.5237459208333,230.66073208749998,84.0,90.0
827,230.7292251708333,230.8268278145833,75.0,83.0
828,230.7292251708333,230.8268278145833,87.0,83.0
829,230.9347044208333,231.04258102708332,77.0,114.0
830,230.9347044208333,231.04258102708332,89.0,114.0
831,231.1401836708333,231.26175889374997,72.0,83.0
832,231.1401836708333,231.26175889374997,84.0,83.0
833,231.3456629208333,231.62990921666665,75.0,111.0
834,231.3456629208333,231.62990921666665,87.0,111.0
835,231.9621006708333,232.27203187291664,65.0,66.0
836,232.1675799208333,232.3884701145833,68.0,60.0
837,232.3730591708333,232.61278496249997,70.0,64.0
838,232.5785384208333,232.84737377291663,63.0,72.0
839,232.7840176708333,233.10422283541664,65.0,60.0
840,232.9894969208333,233.22408573124997,68.0,59.0
841,233.1949761708333,233.42442799999998,70.0,74.0
842,233.4004554208333,233.5597018395833,63.0,60.0
843,233.6059346708333,233.91757819999998,65.0,63.0
844,233.8114139208333,234.04086574999997,68.0,64.0
845,234.0168931708333,234.25661896249997,70.0,67.0
846,234.2223724208333,234.48093381041664,63.0,81.0
847,234.4278516708333,234.73264589166664,65.0,60.0
848,234.63333092083332,234.85764576874996,68.0,60.0
849,234.8388101708333,235.07339898124997,70.0,71.0
850,235.0442894208333,235.3422343333333,63.0,71.0
851,235.2497686708333,235.56997383541665,65.0,60.0
852,235.4552479208333,235.68298742291663,68.0,59.0
853,235.6607271708333,235.90387761666665,70.0,63.0
854,235.8662064208333,236.1076445395833,65.0,70.0
855,236.0716856708333,236.25832932291664,68.0,59.0
856,236.27716492083331,236.44839762916664,70.0,64.0
857,236.4826441708333,236.64873989791664,65.0,72.0
858,236.6881234208333,236.85079449374996,68.0,63.0
859,236.8936026708333,237.10250657499998,65.0,72.0
860,237.0990819208333,237.29086255416664,68.0,72.0
861,237.3045611708333,237.46038293541665,70.0,104.0
862,237.5100404208333,237.80627300624997,63.0,76.0
863,237.7155196708333,237.9569577895833,65.0,60.0
864,237.9209989208333,238.14017678749997,68.0,71.0
865,238.1264781708333,238.36962861666663,70.0,64.0
866,238.3319574208333,238.63675164166665,63.0,64.0
867,238.5374366708333,238.8405185645833,65.0,61.0
868,238.7429159208333,238.9638061145833,68.0,67.0
869,238.9483951708333,239.20695656041664,70.0,63.0
870,239.1538744208333,239.4415453708333,63.0,67.0
871,239.35935367083331,239.67099719999996,65.0,63.0
872,239.5648329208333,239.75318889999997,68.0,61.0
873,239.7703121708333,239.97750374791664,70.0,65.0
874,239.9757914208333,240.24120211874998,63.0,72.0
875,240.1812706708333,240.48606489166664,65.0,65.0
876,240.3867499208333,240.59907847916662,68.0,62.0
877,240.5922291708333,240.80969471041664,70.0,71.0
878,240.7977084208333,241.0596944645833,63.0,79.0
879,241.0031876708333,241.33024214374996,65.0,64.0
880,241.2086669208333,241.4501050395833,68.0,60.0
881,241.4141461708333,241.61791309374996,70.0,61.0
882,241.6196254208333,241.87989913749996,63.0,75.0
883,241.8251046708333,242.1179126020833,65.0,65.0
884,242.0305839208333,242.2822960020833,68.0,59.0
885,242.2360631708333,242.46380267291664,70.0,69.0
886,242.44154242083331,242.71209009999995,75.0,66.0
887,242.6470216708333,242.91072004166662,65.0,69.0
888,242.8525009208333,242.99291174166663,68.0,67.0
889,243.0579801708333,243.18469237499997,70.0,104.0
890,243.2634594208333,243.4997605583333,65.0,66.0
891,243.4689386708333,243.66756861249996,68.0,64.0
892,243.6744179208333,243.81482874166664,70.0,83.0
893,243.8798971708333,244.01688333749996,68.0,69.0
894,244.0853764208333,244.31311592291664,60.0,74.0
895,244.2908556708333,244.48777328541664,65.0,69.0
896,244.4963349208333,244.7326360583333,67.0,85.0
897,244.9072934208333,245.1487315395833,65.0,85.0
898,245.1127726708333,245.3285258833333,68.0,61.0
899,245.3182519208333,245.58879959999996,70.0,77.0
900,248.1949614208333,248.4774953895833,63.0,73.0
901,248.4004406708333,248.7086595458333,65.0,62.0
902,248.6059199208333,248.75660470416662,68.0,63.0
903,248.8113991708333,249.03913867291664,70.0,67.0
904,249.0168784208333,249.30797402499996,63.0,74.0
905,249.2223576708333,249.5151656020833,65.0,67.0
906,249.4278369208333,249.62646686249997,68.0,60.0
907,249.6333161708333,249.86619265416664,70.0,63.0
908,249.8387954208333,250.12304171666662,63.0,63.0
909,250.0442746708333,250.34393191041664,65.0,65.0
910,250.2497539208333,250.4860550583333,68.0,60.0
911,250.4552331708333,250.6453014770833,70.0,74.0
912,250.6607124208333,250.94153406249995,63.0,75.0
913,250.8661916708333,251.14016400416662,65.0,73.0
914,251.0716709208333,251.27030086249997,68.0,63.0
915,251.2771501708333,251.48605407499997,70.0,72.0
916,251.4826294208333,251.7857113145833,63.0,68.0
917,251.6881086708333,252.0117384895833,65.0,72.0
918,251.8935879208333,252.1042041520833,68.0,60.0
919,252.0990671708333,252.31139572916663,70.0,60.0
920,252.3045464208333,252.5819434083333,63.0,66.0
921,252.5100256708333,252.8593403958333,65.0,65.0
922,252.7155049208333,252.91927184374995,68.0,65.0
923,252.9209841708333,253.15557298124997,70.0,72.0
924,253.1264634208333,253.38160015624996,63.0,61.0
925,253.33194267083329,253.6863943770833,65.0,67.0
926,253.5374219208333,253.69495601249997,68.0,60.0
927,253.7429011708333,253.91413387916663,70.0,65.0
928,253.9483804208333,254.1487226895833,77.0,75.0
929,254.1538596708333,254.39358546249997,72.0,68.0
930,254.3593389208333,254.46892785416662,75.0,86.0
931,254.5648181708333,254.72235226249995,77.0,79.0
932,254.7702974208333,254.9655027083333,72.0,74.0
933,254.9757766708333,255.08194094999996,75.0,67.0
934,255.1812559208333,255.29255718124998,77.0,79.0
935,255.3867351708333,255.5922144208333,75.0,95.0
936,255.5922144208333,255.8644744270833,65.0,81.0
937,255.7976936708333,256.03570713541666,68.0,61.0
938,256.0031729208333,256.2223507875,70.0,74.0
939,256.2086521708333,256.34050135624994,63.0,73.0
940,256.8250899208333,256.97063772291665,72.0,79.0
941,256.8250899208333,256.97063772291665,84.0,79.0
942,257.0305691708333,257.1333087958333,75.0,70.0
943,257.0305691708333,257.1333087958333,87.0,70.0
944,257.2360484208333,257.33707571875,77.0,75.0
945,257.2360484208333,257.33707571875,89.0,75.0
946,257.4415276708333,257.63844528541665,72.0,65.0
947,257.4415276708333,257.63844528541665,84.0,65.0
948,257.6470069208333,257.7651574895833,75.0,90.0
949,257.6470069208333,257.7651574895833,87.0,90.0
950,257.8524861708333,257.93639019791664,70.0,93.0
951,257.8524861708333,257.93639019791664,82.0,93.0
952,258.0579654208333,258.19323926041665,72.0,98.0
953,258.0579654208333,258.19323926041665,84.0,98.0
954,258.2634446708333,258.3867322208333,68.0,81.0
955,258.2634446708333,258.3867322208333,80.0,81.0
956,258.4689239208333,258.69323876874995,70.0,100.0
957,258.4689239208333,258.69323876874995,82.0,100.0
958,258.6744031708333,258.7976907208333,65.0,85.0
959,258.6744031708333,258.7976907208333,77.0,85.0
960,258.8798824208333,259.1538547541666,68.0,98.0
961,258.8798824208333,259.1538547541666,80.0,98.0
962,259.0853616708333,259.2428957625,72.0,71.0
963,259.2908409208333,259.5939228145833,75.0,86.0
964,259.7017994208333,259.8610458395833,63.0,60.0
965,259.9072786708333,260.21892219999995,65.0,63.0
966,260.1127579208333,260.34220974999994,68.0,64.0
967,260.3182371708333,260.55796296249997,70.0,67.0
968,260.5237164208333,260.78227781041664,63.0,81.0
969,260.7291956708333,261.03398989166664,65.0,60.0
970,260.9346749208333,261.15898976874996,68.0,60.0
971,261.1401541708333,261.37474298124994,70.0,71.0
972,261.3456334208333,261.6435783333333,63.0,71.0
973,261.5511126708333,261.8713178354166,65.0,60.0
974,261.7565919208333,261.9843314229166,68.0,59.0
975,261.9620711708333,262.2052216166666,70.0,63.0
976,262.1675504208333,262.4089885395833,65.0,70.0
977,262.3730296708333,262.55967332291664,68.0,59.0
978,262.5785089208333,262.74974162916664,70.0,64.0
979,262.7839881708333,262.9500838979166,65.0,72.0
980,262.9894674208333,263.15213849375,68.0,63.0
981,263.1949466708333,263.403850575,65.0,72.0
982,263.4004259208333,263.59220655416664,68.0,72.0
983,263.6059051708333,263.7617269354166,70.0,104.0
984,263.8113844208333,264.10761700624994,63.0,76.0
985,264.0168636708333,264.2583017895833,65.0,60.0
986,264.2223429208333,264.44152078749994,68.0,71.0
987,264.4278221708333,264.67097261666663,70.0,64.0
988,264.6333014208333,264.9380956416666,63.0,64.0
989,264.8387806708333,265.1418625645833,65.0,61.0
990,265.0442599208333,265.2651501145833,68.0,67.0
991,265.2497391708333,265.5083005604166,70.0,63.0
992,265.4552184208333,265.7428893708333,63.0,67.0
993,265.6606976708333,265.97234119999996,65.0,63.0
994,265.8661769208333,266.05453289999997,68.0,61.0
995,266.0716561708333,266.27884774791664,70.0,65.0
996,266.2771354208333,266.54254611874995,63.0,72.0
997,266.4826146708333,266.78740889166664,65.0,65.0
998,266.6880939208333,266.90042247916665,68.0,62.0
999,266.8935731708333,267.1110387104166,70.0,71.0
1000,267.0990524208333,267.3610384645833,63.0,79.0
1001,267.3045316708333,267.63158614375,65.0,64.0
1002,267.5100109208333,267.7514490395833,68.0,60.0
1003,267.7154901708333,267.91925709375,70.0,61.0
1004,267.9209694208333,268.18124313749996,63.0,75.0
1005,268.12644867083327,268.4192566020833,65.0,65.0
1006,268.3319279208333,268.5836400020833,68.0,59.0
1007,268.5374071708333,268.7651466729166,70.0,69.0
1008,268.7428864208333,269.0134341,75.0,66.0
1009,268.9483656708333,269.2120640416666,65.0,69.0
1010,269.1538449208333,269.29425574166663,68.0,67.0
1011,269.3593241708333,269.48603637499997,70.0,104.0
1012,269.5648034208333,269.8011045583333,65.0,66.0
1013,269.7702826708333,269.9689126125,68.0,64.0
1014,269.9757619208333,270.1161727416666,70.0,83.0
1015,270.1812411708333,270.3182273375,68.0,69.0
1016,270.3867204208333,270.61445992291664,60.0,74.0
1017,270.5921996708333,270.78911728541664,65.0,69.0
1018,270.7976789208333,271.03398005833327,67.0,85.0
1019,271.20863742083327,271.4500755395833,65.0,85.0
1020,271.4141166708333,271.6298698833333,68.0,61.0
1021,271.6195959208333,271.8901436,70.0,77.0
1022,272.0305544208333,272.30623908124994,63.0,86.0
1023,272.2360336708333,272.3798691458333,65.0,64.0
1024,272.4415129208333,272.59391003124995,70.0,81.0
1025,272.6469921708333,272.7822660104166,68.0,60.0
1026,272.8524714208333,273.1058958291666,63.0,83.0
1027,273.0579506708333,273.20349847291664,65.0,74.0
1028,273.2634299208333,273.38329281666665,70.0,86.0
1029,273.4689091708333,273.59562137499995,68.0,70.0
1030,273.6743884208333,273.90384025,70.0,87.0
1031,273.8798676708333,274.1606893125,68.0,67.0
1032,274.0853469208333,274.2240454145833,70.0,73.0
1033,274.29082617083327,274.4963054208333,72.0,95.0
1034,274.4963054208333,274.7788393895833,63.0,73.0
1035,274.7017846708333,275.0100035458333,65.0,62.0
1036,274.9072639208333,275.0579487041666,68.0,63.0
1037,275.1127431708333,275.3404826729166,70.0,67.0
1038,275.3182224208333,275.60931802499994,63.0,74.0
1039,275.5237016708333,275.8165096020833,65.0,67.0
1040,275.7291809208333,275.92781086249994,68.0,60.0
1041,275.9346601708333,276.1675366541666,70.0,63.0
1042,276.1401394208333,276.4243857166666,63.0,63.0
1043,276.3456186708333,276.6452759104166,65.0,65.0
1044,276.5510979208333,276.7873990583333,68.0,60.0
1045,276.7565771708333,276.9466454770833,70.0,74.0
1046,276.9620564208333,277.2428780625,63.0,75.0
1047,277.1675356708333,277.4415080041666,65.0,73.0
1048,277.37301492083327,277.57164486249997,68.0,63.0
1049,277.5784941708333,277.78739807499994,70.0,72.0
1050,277.7839734208333,278.0870553145833,63.0,68.0
1051,277.9894526708333,278.3130824895833,65.0,72.0
1052,278.1949319208333,278.40554815208327,68.0,60.0
1053,278.4004111708333,278.6127397291666,70.0,60.0
1054,278.6058904208333,278.8832874083333,63.0,66.0
1055,278.8113696708333,279.1606843958333,65.0,65.0
1056,279.0168489208333,279.22061584374995,68.0,65.0
1057,279.2223281708333,279.45691698124995,70.0,72.0
1058,279.4278074208333,279.68294415624996,63.0,61.0
1059,279.6332866708333,279.9877383770833,65.0,67.0
1060,279.8387659208333,279.99630001249994,68.0,60.0
1061,280.0442451708333,280.21547787916666,70.0,65.0
1062,280.2497244208333,280.4500666895833,77.0,75.0
1063,280.45520367083327,280.69492946249994,72.0,68.0
1064,280.6606829208333,280.77027185416665,75.0,86.0
1065,280.8661621708333,281.0236962625,77.0,79.0
1066,281.0716414208333,281.2668467083333,72.0,74.0
1067,281.2771206708333,281.38328494999996,75.0,67.0
1068,281.4825999208333,281.59390118125,77.0,79.0
1069,281.6880791708333,281.8935584208333,75.0,95.0
1070,281.8935584208333,282.1658184270833,65.0,81.0
1071,282.0990376708333,282.33705113541663,68.0,61.0
1072,282.3045169208333,282.52369478749995,70.0,74.0
1073,282.5099961708333,282.64184535625,63.0,73.0
1074,282.7154754208333,282.9209546708333,65.0,86.0
1075,282.9209546708333,283.1778037333333,68.0,76.0
1076,283.1264339208333,283.35417342291663,70.0,74.0
1077,283.3319131708333,283.48773493541665,68.0,75.0
1078,283.53739242083327,285.2223222708333,84.0,111.0
1079,285.5921849208333,285.8096504604166,82.0,93.0
1080,286.0031434208333,286.31649927708327,84.0,100.0
1081,286.4141019208333,286.74458104791665,77.0,93.0
1082,286.82506042083327,287.5185528895833,80.0,100.0
1083,288.0579359208333,288.2428672458333,82.0,83.0
1084,288.2634151708333,288.3730041041666,84.0,75.0
1085,288.4688944208333,290.1349886729166,87.0,114.0
1086,290.1127284208333,291.87642531666665,84.0,90.0
1087,292.1675209208333,292.34046595624994,89.0,79.0
1088,292.3730001708333,292.52026029999996,87.0,69.0
1089,292.5784794208333,293.1503966666666,84.0,74.0
1090,293.1949171708333,293.45519088749995,82.0,79.0
1091,293.4003964208333,293.7394371833333,84.0,85.0
1092,293.8113549208333,294.2223134208333,87.0,74.0
1093,294.2223134208333,295.9637500645833,84.0,69.0
1094,296.4825851708333,296.6675164958333,84.0,85.0
1095,296.6880644208333,298.4962818208333,89.0,114.0
1096,298.7428569208333,299.06477441249996,84.0,98.0
1097,299.15381542083327,299.61443140624993,82.0,86.0
1098,299.7702531708333,299.8884037395833,84.0,95.0
1099,299.9757324208333,300.33874576249997,82.0,79.0
1100,300.3866909208333,300.53395105,80.0,86.0
1101,300.5921701708333,301.87127850208327,77.0,76.0
1102,302.8524419208333,303.0134006666666,82.0,77.0
1103,303.0579211708333,303.21031828124995,84.0,85.0
1104,303.2634004208333,305.09045341875,82.0,87.0
1105,305.31819292083327,305.5613433666666,80.0,74.0
1106,305.52367217083327,305.6418227395833,77.0,76.0
1107,305.7291514208333,306.3866850208333,75.0,93.0
1108,306.3455891708333,306.56990401875,77.0,65.0
1109,306.5510684208333,308.1949024208333,80.0,98.0
