,start,end,pitch,velocity
0,14.359574920833332,14.779095056249998,69.0,112.0
1,14.770533420833331,15.219163116666664,67.0,75.0
2,15.18149192083333,15.503409412499998,69.0,90.0
3,15.592450420833332,16.16265533958333,71.0,86.0
4,16.41436742083333,16.83559988333333,69.0,98.0
5,16.825325920833333,17.188339262499998,67.0,65.0
6,17.236284420833332,17.54964027708333,69.0,77.0
7,17.64724292083333,17.854434497916664,67.0,70.0
8,18.05820142083333,18.41779010833333,67.0,74.0
9,18.46915992083333,18.82361162708333,64.0,76.0
10,18.88011842083333,20.14381580833333,69.0,87.0
11,20.93491092083333,21.21744488958333,69.0,72.0
12,21.34586942083333,21.56675961458333,67.0,87.0
13,21.75682792083333,21.972581133333332,69.0,98.0
14,22.16778642083333,22.76881322708333,71.0,85.0
15,22.98970342083333,23.253401791666665,69.0,95.0
16,23.40066192083333,23.681483562499995,67.0,79.0
17,23.81162042083333,24.104428352083332,69.0,77.0
18,24.22257892083333,24.39723628333333,67.0,73.0
19,24.63353742083333,24.98798912708333,67.0,87.0
20,25.04449592083333,25.44518045833333,64.0,81.0
21,25.45545442083333,25.756823987499995,62.0,83.0
22,27.51024692083333,27.746548058333328,74.0,86.0
23,27.92120542083333,28.102712091666664,74.0,112.0
24,28.33216392083333,28.580451347916664,74.0,114.0
25,28.74312242083333,28.97428657708333,71.0,87.0
26,29.15408092083333,29.383532749999997,71.0,83.0
27,29.56503942083333,29.751683072916663,71.0,86.0
28,29.97599792083333,30.178052516666664,72.0,83.0
29,30.38695642083333,30.969147629166663,74.0,112.0
30,31.208873420833328,31.366407512499997,72.0,100.0
31,31.619831920833327,33.75339146666666,72.0,100.0
32,34.08558292083333,34.26880191874999,69.0,87.0
33,34.49654142083333,34.70202067083333,69.0,76.0
34,34.90749992083333,35.15236269374999,71.0,86.0
35,35.31845842083333,35.65236220208333,69.0,85.0
36,35.72941692083333,35.890375666666664,67.0,74.0
37,36.14037542083333,36.3390053625,64.0,66.0
38,36.55133392083333,36.748251535416664,67.0,81.0
39,36.96229242083333,37.2431140625,76.0,117.0
40,37.37325092083333,37.648935581249994,76.0,112.0
41,37.78420942083333,38.06674338958333,76.0,120.0
42,38.19516792083333,38.35783899374999,74.0,93.0
43,38.60612642083333,40.207152243749995,74.0,112.0
44,40.660918920833325,41.08043905624999,69.0,112.0
45,41.071877420833324,41.520507116666664,67.0,75.0
46,41.48283592083333,41.80475341249999,69.0,90.0
47,41.89379442083333,42.463999339583324,71.0,86.0
48,42.71571142083333,43.13694388333333,69.0,98.0
49,43.12666992083333,43.489683262499994,67.0,65.0
50,43.53762842083333,43.85098427708333,69.0,77.0
51,43.94858692083333,44.155778497916664,67.0,70.0
52,44.35954542083333,44.71913410833333,67.0,74.0
53,44.77050392083333,45.124955627083324,64.0,76.0
54,45.18146242083333,46.44515980833333,69.0,87.0
55,47.236254920833325,47.51878888958333,69.0,72.0
56,47.647213420833324,47.868103614583326,67.0,87.0
57,48.058171920833324,48.27392513333333,69.0,98.0
58,48.469130420833324,49.07015722708333,71.0,85.0
59,49.29104742083333,49.55474579166666,69.0,95.0
60,49.70200592083333,49.98282756249999,67.0,79.0
61,50.11296442083333,50.405772352083325,71.0,77.0
62,50.52392292083333,50.71056657291666,72.0,83.0
63,50.93488142083333,51.195155137499995,74.0,104.0
64,51.34583992083333,51.59241502083333,71.0,83.0
65,51.75679842083333,52.29275679791666,74.0,117.0
66,53.811590920833325,54.047892058333325,74.0,86.0
67,54.222549420833325,54.40405609166666,74.0,112.0
68,54.633507920833324,54.88179534791666,74.0,114.0
69,55.044466420833324,55.68145209583333,76.0,112.0
70,55.86638342083332,56.27562959374999,71.0,86.0
71,56.27734192083332,56.66946482291666,72.0,90.0
72,56.68830042083333,57.04446445416666,74.0,111.0
73,57.51021742083333,57.64206660624999,72.0,95.0
74,57.92117592083333,60.082132699999995,72.0,104.0
75,60.386926920833325,60.53932403124999,69.0,86.0
76,60.797885420833325,60.97767976458333,69.0,86.0
77,61.208843920833324,61.45028203958333,67.0,75.0
78,61.619802420833324,62.11637727499999,71.0,104.0
79,62.03076092083332,62.321856524999994,69.0,76.0
80,62.44171942083332,62.85781490208333,67.0,72.0
81,62.85267792083332,63.328704849999994,64.0,65.0
82,63.26363642083332,63.44685541874999,69.0,77.0
83,63.67459492083332,63.79959479791666,67.0,75.0
84,64.08555342083332,64.2430875125,69.0,76.0
85,64.49651192083333,69.07869919583332,67.0,66.0
86,70.24993092083332,70.44684853541666,74.0,112.0
87,70.66088942083333,70.83040980208332,74.0,108.0
88,71.07184792083332,71.23109433958332,74.0,95.0
89,71.48280642083333,71.83554579999999,76.0,111.0
90,72.09924417083333,72.21397008541666,78.0,90.0
91,72.30472342083333,72.49992870833333,76.0,100.0
92,72.71568192083332,72.95369538541665,74.0,104.0
93,73.12664042083333,73.43999627708332,71.0,93.0
94,73.53759892083332,73.71396861041666,71.0,85.0
95,73.94855742083332,74.13862572708332,71.0,90.0
96,74.35951592083332,74.56157051666666,69.0,79.0
97,74.77047442083332,76.35951395416666,69.0,87.0
98,76.82526692083333,76.99992428333333,74.0,120.0
99,77.23622542083332,77.42971838124998,74.0,114.0
100,77.64718392083333,77.81841662916666,74.0,112.0
101,78.05814242083332,78.42458041666666,71.0,100.0
102,78.46910092083333,78.61807337708332,69.0,83.0
103,78.88005942083332,79.09581263333332,69.0,95.0
104,79.29101792083333,79.54957931041666,67.0,86.0
105,79.70197642083332,80.03245554791665,69.0,100.0
106,80.11293492083333,80.30129089999998,67.0,69.0
107,80.52389342083332,80.73450965208332,69.0,79.0
108,80.93485192083332,81.15745444166666,71.0,81.0
109,81.34581042083332,82.98108278541666,71.0,95.0
110,83.40060292083332,83.70882179583332,66.0,95.0
111,83.81156142083333,84.00676670833332,67.0,85.0
112,84.22251992083332,84.39032797499999,69.0,90.0
113,84.63347842083333,85.08039578958332,71.0,93.0
114,85.04443692083332,85.26703944166665,69.0,81.0
115,85.45539542083333,85.69340888541666,71.0,83.0
116,85.86635392083332,86.18655908541666,74.0,75.0
117,86.27731242083333,86.69683255624999,71.0,77.0
118,86.68827092083332,86.88518853541666,69.0,76.0
119,87.09922942083332,87.40916062291666,67.0,71.0
120,87.51018792083332,87.87833824375,69.0,76.0
121,87.92114642083332,88.44683083541665,64.0,64.0
122,89.97593892083331,90.14888395624999,67.0,100.0
123,90.38689742083332,90.60607528749999,67.0,90.0
124,90.79785592083333,91.07011592708332,69.0,87.0
125,91.20881442083332,91.52901958541665,71.0,111.0
126,91.61977292083333,91.80641657291666,69.0,77.0
127,92.03073142083332,92.24990928749999,71.0,98.0
128,92.44168992083333,92.72764854374999,74.0,111.0
129,92.85264842083332,93.16257962291665,76.0,86.0
130,93.26360692083333,93.50504503958332,74.0,86.0
131,93.67456542083332,94.04271574375,74.0,104.0
132,94.08552392083332,94.31155109583332,71.0,83.0
133,94.49648242083332,94.69168770833332,71.0,104.0
134,94.90744092083332,95.12148180624999,71.0,100.0
135,95.31839942083332,95.47079653124999,71.0,111.0
136,95.72935792083332,96.24305604583333,69.0,95.0
137,96.55127492083332,96.74819253541665,74.0,112.0
138,96.96223342083331,97.13175380208332,74.0,108.0
139,97.37319192083332,97.53243833958332,74.0,95.0
140,97.78415042083331,98.13688979999999,76.0,111.0
141,98.40058817083332,98.51531408541665,78.0,90.0
142,98.60606742083333,98.80127270833331,76.0,100.0
143,99.01702592083332,99.25503938541665,74.0,104.0
144,99.42798442083333,99.74134027708332,71.0,93.0
145,99.83894292083332,100.01531261041666,71.0,85.0
146,100.24990142083333,100.43996972708332,71.0,90.0
147,100.66085992083332,100.86291451666665,69.0,79.0
148,101.07181842083332,102.66085795416666,69.0,87.0
149,103.12661092083331,103.30126828333331,74.0,120.0
150,103.53756942083332,103.73106238124998,74.0,114.0
151,103.94852792083331,104.11976062916665,74.0,112.0
152,104.35948642083332,104.72592441666666,71.0,100.0
153,104.77044492083331,104.91941737708332,69.0,83.0
154,105.18140342083332,105.39715663333332,69.0,95.0
155,105.59236192083333,105.85092331041665,67.0,86.0
156,106.00332042083332,106.33379954791666,69.0,100.0
157,106.41427892083333,106.60263489999998,67.0,69.0
158,106.82523742083332,107.03585365208332,69.0,79.0
159,107.23619592083332,107.45879844166666,71.0,81.0
160,107.64715442083332,109.28242678541665,71.0,95.0
161,109.70194692083332,110.01016579583332,66.0,95.0
162,110.11290542083331,110.30811070833332,67.0,85.0
163,110.52386392083332,110.69167197499999,69.0,90.0
164,110.93482242083331,111.38173978958332,71.0,93.0
165,111.34578092083332,111.56838344166665,69.0,81.0
166,111.75673942083331,111.99475288541664,71.0,83.0
167,112.16769792083332,112.48790308541665,74.0,75.0
168,112.57865642083331,112.87488900624999,76.0,98.0
169,112.98961492083332,113.22077907708332,74.0,83.0
170,113.40057342083333,113.61975128749998,74.0,111.0
171,113.81153192083332,114.02043582499998,71.0,77.0
172,114.22249042083332,115.88687234583332,74.0,104.0
173,116.27728292083331,116.51700871249999,76.0,87.0
174,116.68824142083332,116.91940557708332,76.0,90.0
175,117.09919992083331,117.33721338541665,74.0,111.0
176,117.51015842083332,117.87659641666666,71.0,85.0
177,118.12659617083332,118.27728095416666,74.0,108.0
178,118.33207542083332,118.53413001666665,71.0,86.0
179,118.74303392083331,119.22248550416666,69.0,93.0
180,119.56495092083331,119.76015620833331,69.0,104.0
181,119.97590942083332,120.22419684791664,69.0,104.0
182,120.38686792083331,120.54268968541665,67.0,81.0
183,120.79782642083332,121.02556592291666,71.0,93.0
184,121.20878492083332,121.41940115208332,69.0,104.0
185,121.61974342083332,121.84063361458331,67.0,86.0
186,122.03070192083332,122.23275651666665,64.0,79.0
187,122.44166042083332,126.09234176249998,67.0,93.0
188,149.15396292083332,149.31663399374997,71.0,95.0
189,149.56492142083331,149.72416783958332,71.0,95.0
190,149.9758799208333,150.11286608749998,71.0,93.0
191,150.3868384208333,150.95704333958332,71.0,86.0
192,151.2087554208333,151.6299878833333,69.0,98.0
193,151.6197139208333,151.9827272625,67.0,65.0
194,152.03067242083333,152.3440282770833,69.0,77.0
195,152.44163092083332,152.84574011249998,71.0,100.0
196,152.8525894208333,153.21217810833332,69.0,74.0
197,153.2635479208333,153.61799962708332,67.0,76.0
198,153.67450642083332,154.9382038083333,69.0,87.0
199,155.72929892083332,156.0118328895833,69.0,72.0
200,156.1402574208333,156.3611476145833,67.0,87.0
201,156.5512159208333,156.7669691333333,69.0,98.0
202,156.96217442083332,157.5632012270833,71.0,85.0
203,157.7840914208333,158.06491306249998,67.0,79.0
204,158.1950499208333,158.45874829166664,69.0,95.0
205,158.60600842083332,158.89881635208332,71.0,77.0
206,159.0169669208333,159.20361057291666,72.0,83.0
207,159.4279254208333,159.6881991375,74.0,104.0
208,159.83888392083333,160.0854590208333,71.0,83.0
209,160.24984242083332,160.78580079791664,74.0,117.0
210,162.3046349208333,162.5409360583333,74.0,86.0
211,162.7155934208333,162.89710009166666,74.0,112.0
212,163.12655192083332,163.37483934791663,74.0,114.0
213,163.5375104208333,164.17449609583332,76.0,112.0
214,164.3594274208333,164.76867359374998,71.0,86.0
215,164.77038592083332,165.16250882291664,72.0,90.0
216,165.1813444208333,165.53750845416664,74.0,111.0
217,166.0032614208333,166.13511060624998,76.0,95.0
218,166.41421992083332,168.5751767,72.0,104.0
219,168.8799709208333,169.03236803124997,69.0,86.0
220,169.29092942083332,169.4707237645833,69.0,86.0
221,169.70188792083331,169.9433260395833,67.0,75.0
222,170.1128464208333,170.609421275,71.0,104.0
223,170.5238049208333,170.81490052499998,69.0,76.0
224,170.93476342083332,171.3508589020833,67.0,72.0
225,171.3457219208333,171.82174884999998,64.0,65.0
226,171.7566804208333,171.93989941874997,69.0,77.0
227,172.1676389208333,172.29263879791665,67.0,75.0
228,172.57859742083332,172.73613151249998,69.0,76.0
229,172.9895559208333,177.5717431958333,67.0,66.0
230,178.74297492083332,178.93989253541665,74.0,112.0
231,179.1539334208333,179.32345380208332,74.0,108.0
232,179.5648919208333,179.7241383395833,74.0,95.0
233,179.9758504208333,180.32858979999997,76.0,111.0
234,180.5922881708333,180.70701408541663,78.0,90.0
235,180.7977674208333,180.9929727083333,76.0,100.0
236,181.2087259208333,181.44673938541663,74.0,104.0
237,181.61968442083332,181.9330402770833,71.0,93.0
238,182.03064292083332,182.20701261041665,71.0,85.0
239,182.4416014208333,182.6316697270833,71.0,90.0
240,182.8525599208333,183.05461451666665,69.0,79.0
241,183.26351842083332,184.85255795416666,69.0,87.0
242,185.3183109208333,185.4929682833333,74.0,120.0
243,185.7292694208333,185.92276238124998,74.0,114.0
244,186.1402279208333,186.31146062916665,74.0,112.0
245,186.55118642083332,186.91762441666665,71.0,100.0
246,186.9621449208333,187.1111173770833,69.0,83.0
247,187.3731034208333,187.5888566333333,69.0,95.0
248,187.7840619208333,188.04262331041664,67.0,86.0
249,188.19502042083332,188.52549954791664,69.0,100.0
250,188.6059789208333,188.79433489999997,67.0,69.0
251,189.0169374208333,189.22755365208332,69.0,79.0
252,189.42789592083332,189.65049844166663,71.0,81.0
253,189.83885442083331,191.47412678541664,71.0,95.0
254,191.8936469208333,192.2018657958333,66.0,95.0
255,192.3046054208333,192.4998107083333,67.0,85.0
256,192.71556392083332,192.88337197499996,69.0,90.0
257,193.1265224208333,193.57343978958332,71.0,93.0
258,193.5374809208333,193.76008344166664,69.0,81.0
259,193.9484394208333,194.18645288541663,71.0,83.0
260,194.35939792083332,194.67960308541663,74.0,75.0
261,194.7703564208333,195.18987655624997,71.0,77.0
262,195.1813149208333,195.37823253541663,69.0,76.0
263,195.5922734208333,195.90220462291663,67.0,71.0
264,196.00323192083331,196.37138224374996,69.0,76.0
265,196.4141904208333,196.93987483541665,64.0,64.0
266,198.4689829208333,198.64192795625,67.0,100.0
267,198.87994142083332,199.09911928749997,67.0,90.0
268,199.2908999208333,199.56315992708332,69.0,87.0
269,199.7018584208333,200.02206358541665,71.0,111.0
270,200.1128169208333,200.29946057291664,69.0,77.0
271,200.52377542083332,200.74295328749997,71.0,98.0
272,200.9347339208333,201.22069254374998,74.0,111.0
273,201.3456924208333,201.65562362291664,76.0,86.0
274,201.7566509208333,201.9980890395833,74.0,86.0
275,202.16760942083332,202.53575974374996,74.0,104.0
276,202.5785679208333,202.8045950958333,71.0,83.0
277,202.9895264208333,203.18473170833332,71.0,104.0
278,203.4004849208333,203.61452580625,71.0,100.0
279,203.8114434208333,203.96384053124999,71.0,111.0
280,204.2224019208333,204.7361000458333,69.0,95.0
281,205.04431892083332,205.24123653541665,74.0,112.0
282,205.4552774208333,205.6247978020833,74.0,108.0
283,205.8662359208333,206.0254823395833,74.0,95.0
284,206.2771944208333,206.62993379999998,76.0,111.0
285,206.8936321708333,207.00835808541663,78.0,90.0
286,207.0991114208333,207.2943167083333,76.0,100.0
287,207.5100699208333,207.74808338541663,74.0,104.0
288,207.9210284208333,208.2343842770833,71.0,93.0
289,208.33198692083332,208.50835661041663,71.0,85.0
290,208.7429454208333,208.9330137270833,71.0,90.0
291,209.1539039208333,209.35595851666665,69.0,79.0
292,209.5648624208333,211.15390195416663,69.0,87.0
293,211.6196549208333,211.7943122833333,74.0,120.0
294,212.0306134208333,212.22410638124998,74.0,114.0
295,212.4415719208333,212.61280462916665,74.0,112.0
296,212.85253042083332,213.21896841666663,71.0,100.0
297,213.2634889208333,213.4124613770833,69.0,83.0
298,213.6744474208333,213.8902006333333,69.0,95.0
299,214.0854059208333,214.34396731041664,67.0,86.0
300,214.49636442083332,214.82684354791664,69.0,100.0
301,214.9073229208333,215.09567889999997,67.0,69.0
302,215.3182814208333,215.52889765208332,69.0,79.0
303,215.7292399208333,215.95184244166663,71.0,81.0
304,216.14019842083331,217.77547078541664,71.0,95.0
305,218.1949909208333,218.5032097958333,66.0,95.0
306,218.6059494208333,218.8011547083333,67.0,85.0
307,219.0169079208333,219.18471597499996,69.0,90.0
308,219.4278664208333,219.8747837895833,71.0,93.0
309,219.8388249208333,220.06142744166664,69.0,81.0
310,220.2497834208333,220.48779688541663,71.0,83.0
311,220.66074192083332,220.98094708541663,74.0,75.0
312,221.0717004208333,221.36793300624998,76.0,98.0
313,221.4826589208333,221.7138230770833,74.0,83.0
314,221.8936174208333,222.11279528749998,74.0,111.0
315,222.30457592083332,222.51347982499996,71.0,77.0
316,222.7155344208333,224.3799163458333,74.0,104.0
317,224.7703269208333,225.01005271249997,76.0,87.0
318,225.1812854208333,225.4124495770833,76.0,90.0
319,225.5922439208333,225.83025738541664,74.0,111.0
320,226.0032024208333,226.36964041666664,71.0,85.0
321,226.6196401708333,226.77032495416663,74.0,108.0
322,226.8251194208333,227.02717401666663,71.0,86.0
323,227.2360779208333,227.71552950416662,69.0,93.0
324,228.0579949208333,228.2532002083333,69.0,104.0
325,228.46895342083332,228.71724084791663,69.0,104.0
326,228.8799119208333,229.03573368541663,67.0,81.0
327,229.2908704208333,229.51860992291662,71.0,93.0
328,229.7018289208333,229.9124451520833,69.0,104.0
329,230.1127874208333,230.3336776145833,67.0,86.0
330,230.5237459208333,230.72580051666662,64.0,79.0
331,231.3456629208333,231.54258053541665,75.0,112.0
332,231.7566214208333,231.9261418020833,75.0,108.0
333,232.1675799208333,232.3268263395833,75.0,95.0
334,232.5785384208333,232.93127779999998,77.0,111.0
335,233.1949761708333,233.30970208541663,79.0,90.0
336,233.4004554208333,233.5956607083333,77.0,100.0
337,233.8114139208333,234.04942738541664,75.0,104.0
338,234.2223724208333,234.5357282770833,72.0,93.0
339,234.63333092083332,234.80970061041663,72.0,85.0
340,235.0442894208333,235.2343577270833,72.0,90.0
341,235.4552479208333,235.65730251666665,70.0,79.0
342,235.8662064208333,237.45524595416663,70.0,87.0
343,237.9209989208333,238.0956562833333,75.0,120.0
344,238.3319574208333,238.52545038124998,75.0,114.0
345,238.7429159208333,238.91414862916665,75.0,112.0
346,239.1538744208333,239.52031241666663,72.0,100.0
347,239.5648329208333,239.7138053770833,70.0,83.0
348,239.9757914208333,240.1915446333333,70.0,95.0
349,240.3867499208333,240.64531131041664,68.0,86.0
350,240.7977084208333,241.12818754791664,70.0,100.0
351,241.2086669208333,241.39702289999997,68.0,69.0
352,241.6196254208333,241.8302416520833,70.0,79.0
353,242.0305839208333,242.25318644166663,72.0,81.0
354,242.44154242083331,244.07681478541664,72.0,95.0
355,244.4963349208333,244.8045537958333,67.0,95.0
356,244.9072934208333,245.10249870833331,68.0,85.0
357,245.3182519208333,245.48605997499996,70.0,90.0
358,245.7292104208333,246.1761277895833,72.0,93.0
359,246.1401689208333,246.36277144166664,70.0,81.0
360,246.5511274208333,246.78914088541663,72.0,83.0
361,246.9620859208333,247.28229108541663,75.0,75.0
362,247.3730444208333,247.79256455624997,72.0,77.0
363,247.7840029208333,247.98092053541663,70.0,76.0
364,248.1949614208333,248.50489262291663,68.0,71.0
365,248.6059199208333,248.97407024374996,70.0,76.0
366,249.0168784208333,249.54256283541665,65.0,64.0
367,251.0716709208333,251.24461595624996,68.0,100.0
368,251.4826294208333,251.70180728749997,68.0,90.0
369,251.8935879208333,252.1658479270833,70.0,87.0
370,252.3045464208333,252.62475158541665,72.0,111.0
371,252.7155049208333,252.90214857291664,70.0,77.0
372,253.1264634208333,253.34564128749997,72.0,98.0
373,253.5374219208333,253.82338054374998,75.0,111.0
374,253.9483804208333,254.25831162291664,77.0,86.0
375,254.3593389208333,254.6007770395833,75.0,86.0
376,254.7702974208333,255.13844774374996,75.0,104.0
377,255.1812559208333,255.4072830958333,72.0,83.0
378,255.5922144208333,255.7874197083333,72.0,104.0
379,256.0031729208333,256.21721380624996,72.0,100.0
380,256.4141314208333,256.56652853124996,72.0,111.0
381,256.8250899208333,257.3387880458333,70.0,95.0
382,257.6470069208333,257.84392453541665,75.0,112.0
383,258.0579654208333,258.2274858020833,75.0,108.0
384,258.4689239208333,258.6281703395833,75.0,95.0
385,258.8798824208333,259.23262179999995,77.0,111.0
386,259.4963201708333,259.61104608541666,79.0,90.0
387,259.7017994208333,259.8970047083333,77.0,100.0
388,260.1127579208333,260.35077138541664,75.0,104.0
389,260.5237164208333,260.8370722770833,72.0,93.0
390,260.9346749208333,261.1110446104166,72.0,85.0
391,261.3456334208333,261.5357017270833,72.0,90.0
392,261.7565919208333,261.95864651666665,70.0,79.0
393,262.1675504208333,263.75658995416666,70.0,87.0
394,264.2223429208333,264.3970002833333,75.0,120.0
395,264.6333014208333,264.82679438124995,75.0,114.0
396,265.0442599208333,265.21549262916665,75.0,112.0
397,265.4552184208333,265.82165641666666,72.0,100.0
398,265.8661769208333,266.0151493770833,70.0,83.0
399,266.2771354208333,266.4928886333333,70.0,95.0
400,266.6880939208333,266.94665531041665,68.0,86.0
401,267.0990524208333,267.4295315479166,70.0,100.0
402,267.5100109208333,267.69836689999994,68.0,69.0
403,267.9209694208333,268.1315856520833,70.0,79.0
404,268.3319279208333,268.55453044166666,72.0,81.0
405,268.7428864208333,270.37815878541664,72.0,95.0
406,270.7976789208333,271.1058977958333,67.0,95.0
407,271.20863742083327,271.4038427083333,68.0,85.0
408,271.6195959208333,271.78740397499996,70.0,90.0
409,272.0305544208333,272.4774717895833,72.0,93.0
410,272.4415129208333,272.66411544166664,70.0,81.0
411,272.8524714208333,273.09048488541663,72.0,83.0
412,273.2634299208333,273.58363508541663,75.0,75.0
413,273.6743884208333,273.97062100625,77.0,98.0
414,274.0853469208333,274.3165110770833,75.0,83.0
415,274.4963054208333,274.7154832875,75.0,111.0
416,274.9072639208333,275.116167825,72.0,77.0
417,275.3182224208333,276.9826043458333,75.0,104.0
418,277.37301492083327,277.61274071249994,77.0,87.0
419,277.7839734208333,278.0151375770833,77.0,90.0
420,278.1949319208333,278.43294538541664,75.0,111.0
421,278.6058904208333,278.97232841666664,72.0,85.0
422,279.2223281708333,279.37301295416665,75.0,108.0
423,279.4278074208333,279.6298620166666,72.0,86.0
424,279.8387659208333,280.3182175041666,70.0,93.0
425,280.6606829208333,280.8558882083333,70.0,104.0
426,281.0716414208333,281.31992884791663,70.0,104.0
427,281.4825999208333,281.63842168541663,68.0,81.0
428,281.8935584208333,282.12129792291665,72.0,93.0
429,282.3045169208333,282.5151331520833,70.0,104.0
430,282.7154754208333,282.9363656145833,68.0,86.0
431,283.1264339208333,283.32848851666665,65.0,79.0
432,283.53739242083327,287.1880737625,68.0,93.0
