,start,end,pitch,velocity
0,0.7979444208333333,1.0085606520833332,62.0,74.0
1,1.0034236708333333,1.1780810333333331,69.0,73.0
2,1.2089029208333333,1.4315054416666664,71.0,61.0
3,1.414382170833333,1.6746558874999997,64.0,59.0
4,1.2089029208333333,1.686642177083333,50.0,60.0
5,1.619861420833333,1.8321899791666665,69.0,59.0
6,1.825340670833333,2.020545958333333,71.0,67.0
7,2.030819920833333,2.2551347687499996,62.0,59.0
8,2.236299170833333,2.421230495833333,69.0,64.0
9,2.441778420833333,2.6506823249999996,71.0,65.0
10,2.647257670833333,2.919517677083333,64.0,64.0
11,2.852736920833333,3.0736271145833327,69.0,69.0
12,1.414382170833333,3.284243345833333,55.0,35.0
13,3.058216170833333,3.679790902083333,71.0,70.0
14,0.7979444208333333,3.8921194604166662,43.0,77.0
15,4.291091670833333,4.443488781249999,69.0,81.0
16,4.496570920833332,4.683214572916666,71.0,64.0
17,4.496570920833332,4.892118477083333,50.0,68.0
18,4.702050170833333,4.910954074999999,64.0,62.0
19,4.907529420833333,5.085611437499999,69.0,74.0
20,4.907529420833333,5.263693454166666,55.0,59.0
21,5.113008670833333,5.282529052083333,71.0,68.0
22,5.318487920833332,5.494857610416666,62.0,55.0
23,5.523967170833332,5.7037615145833325,69.0,69.0
24,5.729446420833333,5.916090072916666,71.0,66.0
25,5.729446420833333,6.0445146041666655,64.0,70.0
26,6.1404049208333324,6.344171843749999,69.0,63.0
27,5.318487920833332,6.546226439583332,50.0,63.0
28,6.345884170833332,6.761979652083332,71.0,72.0
29,6.551363420833333,6.9109521083333325,66.0,69.0
30,6.756842670833333,6.943486322916666,69.0,64.0
31,4.085612420833333,7.101020414583332,43.0,87.0
32,6.9623219208333325,7.232869599999999,71.0,65.0
33,7.167801170833332,7.416088597916666,69.0,70.0
34,7.373280420833332,7.628417156249999,62.0,79.0
35,7.578759670833333,7.782526593749999,69.0,72.0
36,7.7842389208333325,8.025677039583332,71.0,71.0
37,7.7842389208333325,8.190060439583332,50.0,65.0
38,7.989718170833332,8.253416541666665,64.0,71.0
39,8.195197420833333,8.386978054166665,69.0,68.0
40,8.195197420833333,8.498279314583332,55.0,56.0
41,8.400676670833333,8.669512022916665,71.0,72.0
42,8.606155920833332,8.828758441666665,62.0,63.0
43,8.811635170833332,9.017114420833332,69.0,71.0
44,9.017114420833332,9.244853922916665,71.0,70.0
45,9.222593670833332,9.489716695833332,64.0,74.0
46,9.428072920833332,9.636976824999998,69.0,62.0
47,8.606155920833332,10.184921491666666,50.0,59.0
48,9.839031420833331,10.378414452083332,62.0,65.0
49,9.633552170833331,10.386976087499999,71.0,71.0
50,7.373280420833332,10.405811685416666,43.0,95.0
51,10.660948420833332,10.806496222916666,62.0,73.0
52,10.866427670833332,11.099304154166665,69.0,74.0
53,11.071906920833332,11.253413591666666,71.0,63.0
54,11.071906920833332,11.503413345833332,50.0,63.0
55,11.277386170833331,11.546221522916666,64.0,60.0
56,11.482865420833331,11.666084418749998,69.0,60.0
57,11.688344670833331,11.857865052083332,71.0,64.0
58,11.482865420833331,11.910947191666665,55.0,52.0
59,11.893823920833333,12.133549712499999,64.0,61.0
60,12.099303170833332,12.270535879166665,69.0,60.0
61,12.304782420833332,12.498275381249998,71.0,60.0
62,11.893823920833333,12.652384818749999,50.0,59.0
63,12.510261670833332,12.722590229166665,64.0,60.0
64,12.715740920833332,12.933206460416665,69.0,60.0
65,12.921220170833331,13.554781191666665,71.0,62.0
66,10.660948420833332,13.835602833333331,43.0,85.0
67,13.126699420833331,14.015397177083331,66.0,75.0
68,13.948616420833332,15.114711164583332,43.0,74.0
69,14.359574920833332,15.508546393749999,50.0,42.0
70,14.770533420833331,15.602724383333332,55.0,54.0
71,15.592450420833332,16.59416176458333,47.0,61.0
72,16.00340892083333,17.003407937499997,54.0,37.0
73,16.41436742083333,17.20032555208333,59.0,60.0
74,17.64724292083333,18.64381728333333,55.0,59.0
75,17.236284420833332,18.6472419375,48.0,77.0
76,18.05820142083333,18.667789862499998,60.0,58.0
77,19.70203542083333,20.27224033958333,47.0,72.0
78,19.70203542083333,20.299637572916662,59.0,60.0
79,20.523952420833332,22.042786543749997,45.0,77.0
80,20.93491092083333,22.299635606249996,52.0,60.0
81,21.34586942083333,22.328745166666664,57.0,61.0
82,22.57874492083333,23.388675631249995,62.0,64.0
83,22.98970342083333,23.517100162499997,57.0,60.0
84,22.16778642083333,23.62668909583333,50.0,71.0
85,23.81162042083333,25.37326272083333,43.0,90.0
86,24.63353742083333,25.42463253333333,55.0,54.0
87,24.22257892083333,25.513673541666662,50.0,62.0
88,26.27737142083333,27.020521374999998,55.0,53.0
89,25.45545442083333,27.02737068333333,43.0,72.0
90,25.86641292083333,27.06846653333333,50.0,63.0
91,27.51024692083333,28.643807449999997,45.0,71.0
92,27.92120542083333,28.669492356249997,50.0,53.0
93,27.09928842083333,28.691752608333328,41.0,72.0
94,28.74312242083333,30.205449749999996,40.0,59.0
95,29.15408092083333,30.24312094583333,47.0,58.0
96,29.56503942083333,30.24825792708333,52.0,60.0
97,30.79791492083333,31.43490059583333,52.0,60.0
98,30.38695642083333,31.52736625833333,45.0,74.0
99,31.208873420833328,31.69346198541666,57.0,59.0
100,31.619831920833327,32.03763972916666,52.0,73.0
101,32.03079042083333,32.94346075625,45.0,60.0
102,32.44174892083333,33.06332365208333,52.0,65.0
103,32.852707420833326,33.3184603875,57.0,63.0
104,33.263665920833326,33.69174769166666,47.0,72.0
105,33.67462442083333,35.05304772291666,48.0,83.0
106,34.49654142083333,35.14037640416666,60.0,60.0
107,34.08558292083333,35.31845842083333,55.0,51.0
108,35.72941692083333,36.47427920208333,55.0,63.0
109,36.14037542083333,36.65578587291666,60.0,60.0
110,36.55133392083333,36.71742964791666,55.0,69.0
111,35.31845842083333,36.81503229166666,48.0,74.0
112,38.19516792083333,39.08900265833333,62.0,60.0
113,39.428043420833326,39.796193743749996,62.0,60.0
114,37.78420942083333,39.87838544374999,57.0,59.0
115,37.37325092083333,39.917768966666664,54.0,61.0
116,36.96229242083333,39.96400179791666,50.0,67.0
117,40.249960420833325,41.33386346458333,59.0,65.0
118,41.071877420833324,41.86810951458333,55.0,59.0
119,40.249960420833325,41.89550674791666,43.0,73.0
120,40.660918920833325,41.931465616666664,50.0,59.0
121,41.48283592083333,41.94173957916666,59.0,62.0
122,42.30475292083333,42.61125946874999,62.0,52.0
123,42.71571142083333,43.01536866041666,60.0,57.0
124,43.12666992083333,43.39208061874999,62.0,53.0
125,41.89379442083333,43.619820120833324,47.0,70.0
126,43.53762842083333,44.11981962916666,62.0,71.0
127,44.77050392083333,45.04276392708333,67.0,60.0
128,44.77050392083333,45.066736506249995,64.0,59.0
129,44.565024670833324,45.24481852291666,60.0,59.0
130,44.154066170833325,45.41091424999999,55.0,64.0
131,45.18146242083333,45.66091400416666,64.0,71.0
132,43.53762842083333,45.82872205833333,48.0,86.0
133,46.003379420833326,46.50509125624999,62.0,90.0
134,46.003379420833326,46.54447477916666,47.0,76.0
135,46.825296420833325,47.54618612291666,60.0,77.0
136,47.236254920833325,47.98796651041666,52.0,62.0
137,47.647213420833324,48.015363743749994,64.0,70.0
138,47.647213420833324,48.04789795833333,60.0,75.0
139,46.825296420833325,48.06330890208333,45.0,71.0
140,48.469130420833324,48.87837659374999,55.0,72.0
141,48.469130420833324,48.90234917291666,52.0,71.0
142,48.469130420833324,49.65234843541666,38.0,67.0
143,48.88008892083333,49.660910070833324,45.0,64.0
144,49.29104742083333,49.71399221041666,54.0,64.0
145,49.29104742083333,49.71399221041666,57.0,77.0
146,49.70200592083333,50.136936999999996,50.0,67.0
147,50.11296442083333,51.20371677291666,62.0,74.0
148,50.11296442083333,51.20885375416666,59.0,71.0
149,50.93488142083333,51.32186734166666,55.0,54.0
150,51.551319170833324,52.45200321666666,62.0,43.0
151,51.75679842083333,52.472551141666656,67.0,68.0
152,51.34583992083333,52.48796208541666,59.0,58.0
153,52.16775692083333,52.67289341041666,55.0,54.0
154,50.52392292083333,52.97426297708333,50.0,63.0
155,52.578715420833326,53.01364649999999,67.0,74.0
156,52.578715420833326,53.03248209791666,62.0,83.0
157,52.578715420833326,53.049605368749994,59.0,65.0
158,50.11296442083333,53.10611216249999,43.0,81.0
159,53.400632420833325,54.08213859999999,57.0,73.0
160,53.400632420833325,54.13350841249999,53.0,50.0
161,53.400632420833325,54.77905572291666,50.0,43.0
162,54.222549420833325,54.897206291666656,57.0,90.0
163,53.400632420833325,54.92289119791666,45.0,60.0
164,54.222549420833325,54.950288431249994,53.0,65.0
165,53.400632420833325,54.96912402916666,41.0,53.0
166,55.044466420833324,55.74309587083333,56.0,86.0
167,55.044466420833324,55.755082160416656,59.0,85.0
168,55.86638342083332,56.24138305208333,59.0,79.0
169,55.86638342083332,56.27562959374999,56.0,79.0
170,55.044466420833324,56.28761588333332,40.0,67.0
171,55.45542492083332,56.33898569583332,47.0,56.0
172,56.27734192083332,56.66261551458332,52.0,58.0
173,56.68830042083333,57.42288873958333,60.0,74.0
174,56.68830042083333,57.43487502916666,64.0,70.0
175,57.51021742083333,58.26706599166666,60.0,65.0
176,57.51021742083333,58.268778318749995,64.0,71.0
177,57.92117592083333,58.671175183333325,57.0,49.0
178,58.33213442083333,59.082133683333325,60.0,74.0
179,58.33213442083333,59.100969281249995,64.0,74.0
180,58.74309292083333,59.107818589583324,57.0,66.0
181,56.68830042083333,59.397201866666656,45.0,65.0
182,57.09925892083333,59.73281797499999,52.0,59.0
183,59.565009920833326,59.79959873124999,45.0,79.0
184,59.77048917083332,59.862954833333326,47.0,74.0
185,59.154051420833326,59.95370816874999,64.0,79.0
186,59.154051420833326,59.975968420833325,60.0,79.0
187,59.975968420833325,60.693433468749994,55.0,72.0
188,59.975968420833325,60.74822793541666,51.0,71.0
189,60.797885420833325,61.534186066666656,55.0,68.0
190,60.797885420833325,61.587268206249995,51.0,74.0
191,59.975968420833325,61.65062430833333,36.0,54.0
192,61.619802420833324,62.347541431249994,54.0,73.0
193,61.619802420833324,62.36124004791666,57.0,79.0
194,61.619802420833324,62.84240395833333,38.0,74.0
195,62.03076092083332,62.87665049999999,45.0,67.0
196,62.44171942083332,62.87836282708332,54.0,65.0
197,62.44171942083332,62.883499808333326,57.0,72.0
198,62.85267792083332,63.29103365416666,50.0,54.0
199,63.880074170833325,63.950279581249994,62.0,56.0
200,63.26363642083332,64.01877266458332,59.0,83.0
201,64.08555342083332,64.82527872083332,62.0,74.0
202,64.08555342083332,64.82870337499999,59.0,74.0
203,64.49651192083333,65.11466199791666,55.0,56.0
204,64.90747042083332,65.62836012291666,59.0,72.0
205,64.90747042083332,65.63178477708333,62.0,81.0
206,65.31842892083333,65.79274352291665,55.0,56.0
207,66.14034592083333,66.42972919791666,55.0,54.0
208,63.26363642083332,66.45883875833333,43.0,86.0
209,65.72938742083332,66.46397573958332,62.0,83.0
210,65.72938742083332,66.47082504791666,59.0,75.0
211,63.67459492083332,66.52219486041666,50.0,63.0
212,66.55130442083332,67.30301601041666,59.0,81.0
213,66.55130442083332,67.31157764583332,62.0,81.0
214,67.37322142083332,68.11637137499999,59.0,73.0
215,67.37322142083332,68.12493301041665,62.0,83.0
216,68.19513842083333,68.92287743124999,59.0,72.0
217,68.19513842083333,68.92287743124999,62.0,81.0
218,67.78417992083332,69.06500057916666,55.0,59.0
219,69.01705542083333,69.48965769583333,62.0,81.0
220,69.01705542083333,69.50678096666665,59.0,77.0
221,66.96226292083333,69.51020562083332,50.0,69.0
222,66.55130442083332,69.53417819999999,43.0,81.0
223,69.42801392083332,69.60952059166665,55.0,59.0
224,69.83897242083333,70.53760187083333,59.0,85.0
225,69.83897242083333,70.55472514166665,62.0,81.0
226,69.83897242083333,71.10780678958332,43.0,73.0
227,70.66088942083333,71.12835471458332,62.0,86.0
228,70.66088942083333,71.13520402291665,59.0,85.0
229,70.24993092083332,71.17801219999998,50.0,67.0
230,71.07184792083332,71.42629962708332,55.0,54.0
231,71.48280642083333,72.23451801041665,62.0,79.0
232,71.48280642083333,72.23451801041665,66.0,77.0
233,72.30472342083333,72.75849009791666,66.0,85.0
234,72.30472342083333,72.77218871458332,62.0,83.0
235,71.48280642083333,72.78075034999999,47.0,77.0
236,72.71568192083332,73.08554457083332,59.0,58.0
237,71.89376492083332,73.09068155208332,54.0,71.0
238,73.12664042083333,73.87663968333332,67.0,72.0
239,73.12664042083333,73.88520131874999,64.0,72.0
240,73.94855742083332,74.66773479583333,64.0,72.0
241,73.94855742083332,74.67287177708333,67.0,79.0
242,74.35951592083332,74.95198109166665,60.0,59.0
243,75.18143292083332,75.40403544166665,60.0,53.0
244,73.53759892083332,75.40917242291665,55.0,61.0
245,74.77047442083332,75.47595317916665,67.0,74.0
246,74.77047442083332,75.48109016041666,64.0,73.0
247,73.12664042083333,75.4828024875,48.0,75.0
248,75.59239142083332,76.10780187291665,62.0,83.0
249,75.59239142083332,76.11978816249999,66.0,98.0
250,75.59239142083332,76.17629495624999,47.0,76.0
251,76.41430842083332,77.13177346874998,60.0,85.0
252,76.41430842083332,77.16602001041666,64.0,76.0
253,76.82526692083333,77.60266341666666,52.0,52.0
254,77.23622542083332,77.62321134166666,64.0,83.0
255,77.23622542083332,77.63862228541666,60.0,85.0
256,76.41430842083332,77.68827977083332,45.0,79.0
257,78.05814242083332,78.45540230416665,52.0,59.0
258,78.05814242083332,78.51019677083332,57.0,79.0
259,78.67458017083332,78.73279929166665,54.0,10.0
260,78.67458017083332,78.87663476666665,57.0,48.0
261,78.05814242083332,79.24136043541665,38.0,73.0
262,78.88005942083332,79.27903163124999,57.0,85.0
263,78.88005942083332,79.28416861249998,54.0,76.0
264,78.46910092083333,79.28759326666666,45.0,71.0
265,79.29101792083333,79.68827780416666,50.0,60.0
266,79.70197642083332,80.42971543124999,59.0,85.0
267,79.70197642083332,80.43314008541665,62.0,86.0
268,80.52389342083332,81.26190639375,59.0,76.0
269,80.52389342083332,81.26875570208333,62.0,87.0
270,80.93485192083332,81.31327620625,55.0,52.0
271,81.34581042083332,82.06841244999998,59.0,73.0
272,81.34581042083332,82.07697408541665,62.0,81.0
273,81.75676892083332,82.20368628958332,55.0,58.0
274,80.11293492083333,82.67971321875,50.0,63.0
275,82.57868592083332,82.69169950833333,55.0,58.0
276,79.70197642083332,82.81327473124999,43.0,86.0
277,82.16772742083332,82.89032945,62.0,85.0
278,82.16772742083332,82.90916504791666,59.0,74.0
279,82.98964442083333,83.1677264375,62.0,65.0
280,82.98964442083333,83.67115059999999,57.0,79.0
281,82.98964442083333,83.68484921666665,53.0,64.0
282,83.81156142083333,84.22765690208333,57.0,90.0
283,83.81156142083333,84.26704042499999,53.0,87.0
284,82.98964442083333,84.27731438749998,45.0,75.0
285,82.98964442083333,84.34238281666666,41.0,65.0
286,82.98964442083333,84.40573891874999,50.0,59.0
287,84.63347842083333,85.34580648749998,56.0,97.0
288,84.63347842083333,85.34923114166665,59.0,97.0
289,85.45539542083333,85.86292926666665,59.0,96.0
290,84.63347842083333,85.88347719166666,40.0,67.0
291,85.45539542083333,85.90231278958332,56.0,96.0
292,85.04443692083332,85.91601140624999,47.0,61.0
293,85.86635392083332,86.22594260833333,52.0,58.0
294,86.27731242083333,86.99991444999999,60.0,67.0
295,86.27731242083333,87.00676375833332,64.0,73.0
296,87.09922942083332,87.77902327291666,60.0,74.0
297,87.09922942083332,87.78758490833332,64.0,74.0
298,87.51018792083332,88.05128327916665,57.0,53.0
299,86.68827092083332,88.29785837916666,52.0,60.0
300,87.92114642083332,88.50504995624999,64.0,74.0
301,87.92114642083332,88.59237863749999,60.0,75.0
302,88.74306342083332,89.32354230208333,60.0,81.0
303,88.74306342083332,89.32867928333332,64.0,71.0
304,88.33210492083332,89.33552859166666,52.0,54.0
305,86.27731242083333,89.56498042083332,45.0,69.0
306,89.56498042083332,90.28929477708333,60.0,74.0
307,89.56498042083332,90.29100710416665,52.0,64.0
308,89.56498042083332,90.30813037499999,55.0,68.0
309,90.38689742083332,91.11292410416665,60.0,72.0
310,90.38689742083332,91.14888297291665,52.0,65.0
311,90.38689742083332,91.15230762708332,55.0,74.0
312,90.79785592083333,91.36977316666666,48.0,53.0
313,91.20881442083332,91.85093707708332,60.0,90.0
314,91.20881442083332,91.87319732916666,52.0,65.0
315,91.20881442083332,91.87833431041665,55.0,75.0
316,91.61977292083333,92.08038890625,48.0,59.0
317,89.56498042083332,92.48792275208332,36.0,64.0
318,92.03073142083332,92.48792275208332,60.0,85.0
319,92.03073142083332,92.49990904166665,55.0,85.0
320,92.03073142083332,92.50504602291666,52.0,85.0
321,89.97593892083331,92.67456640416665,43.0,73.0
322,92.44168992083333,92.72422388958331,48.0,61.0
323,92.85264842083332,93.61634629999999,54.0,68.0
324,92.85264842083332,93.61634629999999,62.0,93.0
325,92.85264842083332,93.62490793541666,57.0,86.0
326,93.67456542083332,94.16942794791666,62.0,87.0
327,94.29100317083332,94.37490719791666,62.0,48.0
328,93.67456542083332,94.39031814166665,54.0,72.0
329,93.67456542083332,94.39374279583332,57.0,83.0
330,94.08552392083332,94.53586594374998,50.0,63.0
331,94.49648242083332,94.72250959583332,54.0,67.0
332,94.49648242083332,94.76360544583332,57.0,75.0
333,94.49648242083332,94.80298896874999,62.0,87.0
334,94.90744092083332,95.30641313124998,50.0,62.0
335,95.31839942083332,95.80983729375,66.0,87.0
336,95.31839942083332,96.03415214166665,62.0,86.0
337,95.72935792083332,96.09408358958332,50.0,66.0
338,93.26360692083333,96.15572736458331,45.0,79.0
339,92.85264842083332,96.17113830833333,38.0,75.0
340,96.14031642083332,96.83038423541666,59.0,81.0
341,96.14031642083332,96.86291844999998,62.0,83.0
342,96.14031642083332,97.39716449999999,43.0,83.0
343,96.96223342083331,97.51873972291665,59.0,85.0
344,96.96223342083331,97.66942450624998,62.0,86.0
345,96.55127492083332,97.76189016874999,50.0,63.0
346,97.37319192083332,97.78415042083331,55.0,51.0
347,97.78415042083331,98.08038300624999,60.0,73.0
348,97.78415042083331,98.09921860416665,62.0,68.0
349,98.40058817083332,98.49305383333332,62.0,51.0
350,97.78415042083331,98.52216339374999,66.0,75.0
351,98.60606742083333,99.06154642499999,66.0,90.0
352,97.78415042083331,99.17456001249998,47.0,72.0
353,98.60606742083333,99.19339561041666,62.0,85.0
354,99.22250517083332,99.31839548749998,67.0,53.0
355,99.01702592083332,99.36462831875,59.0,57.0
356,98.19510892083332,99.38517624374998,54.0,70.0
357,99.42798442083333,100.17798368333332,67.0,74.0
358,99.42798442083333,100.18312066458331,64.0,74.0
359,99.83894292083332,100.73106533124998,55.0,70.0
360,100.66085992083332,100.77558583541665,60.0,60.0
361,99.42798442083333,100.84236659166665,48.0,83.0
362,100.24990142083333,101.13859917708332,67.0,83.0
363,101.07181842083332,101.13859917708332,67.0,69.0
364,100.24990142083333,101.15572244791666,64.0,74.0
365,101.07181842083332,101.15572244791666,64.0,76.0
366,101.07181842083332,101.76531088958332,48.0,74.0
367,101.89373542083332,102.38346096666665,66.0,86.0
368,101.89373542083332,102.38517329374999,62.0,90.0
369,101.89373542083332,102.47078964791665,47.0,76.0
370,102.51017317083333,102.55811832916665,64.0,53.0
371,103.33209017083333,103.40400790833331,69.0,11.0
372,102.71565242083332,103.44339143124999,64.0,77.0
373,102.71565242083332,103.45366539374999,60.0,75.0
374,103.53756942083332,103.92797999583333,69.0,63.0
375,103.12661092083331,103.95708955624998,52.0,67.0
376,103.53756942083332,103.95880188333332,64.0,83.0
377,103.53756942083332,103.97250049999998,60.0,74.0
378,103.94852792083331,103.99476075208332,57.0,36.0
379,102.71565242083332,104.03243194791665,45.0,81.0
380,104.35948642083332,105.10092404791665,54.0,65.0
381,104.35948642083332,105.10948568333332,62.0,72.0
382,104.35948642083332,105.11291033749998,57.0,66.0
383,104.77044492083331,105.55469072499999,45.0,76.0
384,104.35948642083332,105.60434821041665,38.0,67.0
385,105.18140342083332,105.61462217291665,54.0,74.0
386,105.18140342083332,105.61633449999998,57.0,86.0
387,105.18140342083332,105.61975915416666,62.0,87.0
388,105.59236192083333,105.97592318749999,50.0,60.0
389,106.00332042083332,106.71564848749999,67.0,83.0
390,106.00332042083332,106.72421012291666,59.0,83.0
391,106.00332042083332,106.73105943124999,62.0,83.0
392,106.82523742083332,107.53071617916665,67.0,76.0
393,106.82523742083332,107.55811341249999,59.0,77.0
394,106.82523742083332,107.55982573958332,62.0,90.0
395,107.23619592083332,107.76701731666665,55.0,53.0
396,107.64715442083332,108.35434550624998,67.0,77.0
397,107.64715442083332,108.36975644999998,62.0,85.0
398,107.64715442083332,108.37146877708332,59.0,75.0
399,108.05811292083332,108.53413984999999,55.0,57.0
400,108.46907142083332,108.82352312708332,59.0,83.0
401,108.46907142083332,108.82352312708332,67.0,83.0
402,108.46907142083332,108.83037243541665,62.0,87.0
403,106.41427892083333,108.89544086458332,50.0,69.0
404,106.00332042083332,108.98105721874998,43.0,83.0
405,109.29098842083332,110.00331648749999,57.0,85.0
406,109.29098842083332,110.02386441249999,53.0,73.0
407,110.11290542083331,110.41085033333331,57.0,85.0
408,110.11290542083331,110.41941196874998,53.0,77.0
409,109.29098842083332,110.43824756666665,41.0,64.0
410,109.29098842083332,110.48619272499998,45.0,76.0
411,109.29098842083332,110.63174052708332,50.0,59.0
412,110.93482242083331,111.64886281458332,56.0,94.0
413,110.93482242083331,111.67112306666665,59.0,94.0
414,111.75673942083331,112.07180760416665,59.0,93.0
415,110.93482242083331,112.11290345416666,40.0,94.0
416,111.75673942083331,112.11632810833332,56.0,93.0
417,112.57865642083331,113.33208033749999,60.0,76.0
418,112.57865642083331,113.34577895416665,64.0,74.0
419,112.57865642083331,114.02557280624998,45.0,83.0
420,113.81153192083332,114.04098374999998,57.0,58.0
421,113.40057342083333,114.15057268333332,60.0,81.0
422,113.40057342083333,114.15742199166665,64.0,76.0
423,114.22249042083332,114.96735270208332,60.0,85.0
424,114.22249042083332,114.97933899166665,64.0,86.0
425,112.98961492083332,115.68481774999998,52.0,62.0
426,115.04440742083332,115.74988617916665,64.0,85.0
427,115.04440742083332,115.76358479583332,60.0,90.0
428,114.22249042083332,115.79269435624998,43.0,86.0
429,115.86632442083332,116.59063877708331,60.0,52.0
430,115.86632442083332,116.63344695416666,52.0,66.0
431,115.86632442083332,116.64714557083332,55.0,74.0
432,116.68824142083332,117.36974759999998,52.0,71.0
433,116.68824142083332,117.37317225416665,60.0,90.0
434,116.68824142083332,117.38002156249999,55.0,83.0
435,117.09919992083331,117.64200760624999,48.0,59.0
436,117.51015842083332,118.23960975833332,60.0,87.0
437,117.51015842083332,118.24817139374998,52.0,76.0
438,117.51015842083332,118.24988372083332,55.0,85.0
439,117.92111692083331,118.47591089583332,48.0,52.0
440,118.33207542083332,118.81323933124999,60.0,95.0
441,118.33207542083332,118.82351329374998,52.0,74.0
442,118.33207542083332,118.83207492916665,55.0,85.0
443,115.86632442083332,118.90228033958331,36.0,67.0
444,116.27728292083331,119.10091028124998,43.0,69.0
445,118.74303392083331,119.13173216874998,48.0,59.0
446,119.15399242083332,119.87488212291665,62.0,83.0
447,119.15399242083332,119.87659444999998,54.0,62.0
448,119.15399242083332,119.89714237499999,57.0,77.0
449,119.97590942083332,120.67453887083332,62.0,95.0
450,119.97590942083332,120.68823748749999,54.0,67.0
451,119.97590942083332,120.69166214166665,57.0,83.0
452,120.38686792083331,120.97419611041666,50.0,54.0
453,120.79782642083332,121.45364769374999,54.0,72.0
454,120.79782642083332,121.46734631041664,62.0,98.0
455,120.79782642083332,121.46905863749998,57.0,86.0
456,121.20878492083332,121.62830505624999,50.0,58.0
457,119.15399242083332,121.99131839791666,38.0,76.0
458,119.56495092083331,122.05124984583331,45.0,67.0
459,121.61974342083332,122.07008544374999,57.0,93.0
460,121.61974342083332,122.07351009791665,62.0,93.0
461,121.61974342083332,122.07522242499998,54.0,93.0
462,122.03070192083332,122.41940016874999,50.0,60.0
463,122.44166042083332,122.64200268958332,83.0,58.0
464,122.64713967083331,122.85090659374998,81.0,62.0
465,122.85261892083332,123.05809817083332,83.0,66.0
466,122.44166042083332,123.14885150624998,59.0,81.0
467,122.44166042083332,123.15912546874998,62.0,87.0
468,123.05809817083332,123.28241301874998,81.0,66.0
469,123.26357742083331,123.43994711041665,86.0,66.0
470,123.46905667083331,123.62487843541665,81.0,65.0
471,123.26357742083331,123.73446736874999,59.0,83.0
472,122.44166042083332,123.77898787291664,43.0,87.0
473,123.26357742083331,123.77898787291664,62.0,87.0
474,123.67453592083332,123.86289189999998,83.0,65.0
475,123.67453592083332,123.89371378749999,55.0,56.0
476,123.88001517083332,123.95878221666665,62.0,51.0
477,123.88001517083332,124.09405605624998,81.0,65.0
478,124.08549442083331,124.29268599791665,83.0,64.0
479,124.29097367083331,124.46563103333332,81.0,62.0
480,124.49645292083332,124.71049380624999,83.0,60.0
481,124.49645292083332,124.75843896458332,54.0,57.0
482,124.08549442083331,124.82521972083332,57.0,72.0
483,124.08549442083331,124.83206902916665,62.0,85.0
484,124.70193217083332,124.95021959791664,81.0,59.0
485,124.90741142083331,125.26015079999998,86.0,59.0
486,125.11289067083332,125.29782199583332,81.0,59.0
487,122.85261892083332,125.31836992083332,50.0,65.0
488,124.90741142083331,125.34234249999999,62.0,93.0
489,124.90741142083331,125.34747948124998,57.0,76.0
490,124.08549442083331,125.35604111666665,42.0,59.0
491,125.31836992083332,125.51871218958331,83.0,59.0
492,125.72932842083331,125.94165697916665,83.0,59.0
493,125.93480767083332,126.14713622916665,81.0,61.0
494,126.14028692083332,126.35261547916664,83.0,62.0
495,125.72932842083331,126.50501258958332,55.0,67.0
496,125.72932842083331,126.51528655208331,59.0,74.0
497,126.34576617083331,126.57179334583331,81.0,62.0
498,126.55124542083331,126.75158768958332,86.0,62.0
499,126.75672467083332,126.95021763124998,81.0,60.0
500,126.96220392083332,127.16083386249998,83.0,59.0
501,126.55124542083331,127.23617625416665,64.0,72.0
502,126.55124542083331,127.26014883333332,55.0,69.0
503,126.55124542083331,127.27384744999998,59.0,68.0
504,125.72932842083331,127.28412141249999,40.0,76.0
505,126.14028692083332,127.37316242083331,47.0,61.0
506,127.16768317083331,127.39884732708332,81.0,57.0
507,126.96220392083332,127.46049110208331,52.0,58.0
508,127.37316242083331,127.60090192291665,83.0,55.0
509,127.57864167083332,127.75329903333332,81.0,54.0
510,127.78412092083332,128.01014809583333,83.0,54.0
511,127.37316242083331,128.06151790833331,62.0,73.0
512,127.37316242083331,128.0666548895833,54.0,60.0
513,127.37316242083331,128.07179187083332,57.0,66.0
514,127.98960017083331,128.239599925,81.0,57.0
515,128.1950794208333,128.39542168958332,86.0,59.0
516,128.4005586708333,128.60775024791664,81.0,62.0
517,128.1950794208333,128.63343515416665,62.0,85.0
518,128.1950794208333,128.65569540624998,57.0,81.0
519,128.1950794208333,128.66939402291666,54.0,68.0
520,128.60603792083333,128.7498733958333,50.0,59.0
521,128.60603792083333,128.8046678625,83.0,62.0
522,127.78412092083332,128.81151717083333,45.0,60.0
523,127.37316242083331,128.84062673124998,38.0,62.0
524,129.01699642083332,129.22590032499997,83.0,62.0
525,129.22247567083332,129.41596863125,81.0,62.0
526,129.01699642083332,129.52384523749998,60.0,77.0
527,129.42795492083332,129.64370813333332,83.0,62.0
528,129.01699642083332,129.71733819791666,52.0,64.0
529,129.01699642083332,129.7207628520833,55.0,74.0
530,129.6334341708333,129.72418750625,60.0,39.0
531,129.6334341708333,129.85603669166665,81.0,64.0
532,129.8389134208333,129.99302285833332,86.0,64.0
533,130.0443926708333,130.25329657499998,81.0,64.0
534,129.8389134208333,130.2738445,60.0,85.0
535,129.8389134208333,130.29439242499998,55.0,85.0
536,129.8389134208333,130.3012417333333,52.0,75.0
537,129.01699642083332,130.37315947083331,36.0,69.0
538,130.24987192083333,130.45706349791664,83.0,64.0
539,130.24987192083333,130.55809079583332,48.0,65.0
540,129.42795492083332,130.63000853333332,43.0,75.0
541,130.45535117083332,130.69165230833332,81.0,64.0
542,130.66083042083332,130.86459734374998,83.0,63.0
543,130.86630967083332,131.075213575,81.0,60.0
544,131.0717889208333,131.280692825,83.0,59.0
545,130.66083042083332,131.40398037499997,62.0,83.0
546,130.66083042083332,131.40911735625,57.0,74.0
547,130.66083042083332,131.41254201041664,54.0,65.0
548,131.2772681708333,131.54781584999998,81.0,58.0
549,131.4827474208333,131.6728157270833,86.0,57.0
550,131.4827474208333,131.85603472499997,54.0,74.0
551,131.4827474208333,131.8577470520833,62.0,87.0
552,131.4827474208333,131.85945937916665,57.0,86.0
553,131.6882266708333,131.8731579958333,81.0,55.0
554,131.0717889208333,131.89713057499998,45.0,74.0
555,130.66083042083332,131.9039798833333,38.0,74.0
556,131.89370592083333,132.07692491875,83.0,55.0
557,132.09918517083332,132.25843158958332,81.0,56.0
558,131.89370592083333,132.28069184166665,50.0,61.0
559,132.30466442083332,132.5306915958333,83.0,57.0
560,132.51014367083332,132.69849964999997,81.0,64.0
561,132.7156229208333,132.97075965624998,83.0,64.0
562,132.30466442083332,133.02212946875,67.0,83.0
563,132.30466442083332,133.0392527395833,59.0,71.0
564,132.30466442083332,133.04438972083332,62.0,86.0
565,132.9211021708333,133.16425261666666,81.0,60.0
566,133.1265814208333,133.3166497270833,86.0,67.0
567,133.1265814208333,133.54952621041664,67.0,73.0
568,133.33206067083333,133.5580878458333,81.0,67.0
569,133.53753992083332,133.73445753541665,83.0,67.0
570,133.1265814208333,133.84747112291666,59.0,63.0
571,133.1265814208333,133.8508957770833,62.0,77.0
572,133.74301917083332,133.94849842083332,81.0,68.0
573,133.53753992083332,134.04610106458333,55.0,52.0
574,133.94849842083332,134.19507352083332,83.0,70.0
575,134.1539776708333,134.32692270624997,81.0,71.0
576,133.94849842083332,134.59918271249998,60.0,86.0
577,134.3594569208333,134.61630598333332,83.0,73.0
578,133.94849842083332,134.68479906666664,62.0,83.0
579,134.3594569208333,134.74815516874997,55.0,58.0
580,134.5649361708333,134.81664825208333,81.0,73.0
581,134.7704154208333,134.97931932499998,86.0,73.0
582,132.7156229208333,135.1608259958333,50.0,63.0
583,134.7704154208333,135.18479857499997,67.0,61.0
584,134.97589467083333,135.21390813541666,81.0,73.0
585,132.30466442083332,135.2635656208333,43.0,85.0
586,134.7704154208333,135.26870260208332,62.0,75.0
587,134.7704154208333,135.3800038625,59.0,79.0
588,135.18137392083332,135.44335996458332,83.0,73.0
589,135.59233242083332,135.67281179375,57.0,58.0
590,135.59233242083332,135.78925003541664,83.0,72.0
591,135.7978116708333,135.99130463125,81.0,70.0
592,136.0032909208333,136.20192086249997,83.0,69.0
593,136.2087701708333,136.40397545833332,81.0,68.0
594,136.0032909208333,136.49815344791665,57.0,63.0
595,136.41424942083333,136.5717835125,86.0,68.0
596,136.61972867083333,136.80637232291664,81.0,68.0
597,136.41424942083333,136.8919886770833,60.0,76.0
598,136.82520792083332,137.02726251666664,83.0,67.0
599,135.59233242083332,137.19678289791665,42.0,90.0
600,137.03068717083332,137.23445409374997,81.0,67.0
601,136.82520792083332,137.32520742916665,57.0,62.0
602,137.2361664208333,137.43479636249998,83.0,65.0
603,137.4416456708333,137.62486466874998,81.0,65.0
604,137.2361664208333,137.6625358645833,66.0,62.0
605,137.6471249208333,137.86459046041665,83.0,65.0
606,137.2361664208333,137.94164517916664,63.0,68.0
607,137.8526041708333,138.09061763541663,81.0,63.0
608,138.05808342083333,138.24815172708333,86.0,59.0
609,137.6471249208333,138.47246657499997,51.0,67.0
610,138.26356267083332,138.48445286458332,81.0,58.0
611,138.05808342083333,138.51527475208331,54.0,61.0
612,137.2361664208333,138.53411035,47.0,77.0
613,138.46904192083332,138.68650746041664,83.0,57.0
614,138.46904192083332,138.8543155145833,63.0,70.0
615,138.67452117083332,138.91253463541665,81.0,57.0
616,138.8800004208333,139.07863036249998,83.0,57.0
617,139.0854796708333,139.2755479770833,81.0,57.0
618,139.2909589208333,139.51527376874998,83.0,57.0
619,139.4964381708333,139.72931465416664,81.0,57.0
620,139.70191742083333,139.90397201666664,86.0,57.0
621,139.90739667083332,140.12314988333333,81.0,57.0
622,140.11287592083332,140.28753328333332,83.0,59.0
623,138.8800004208333,140.5238344208333,40.0,71.0
624,139.2909589208333,140.5238344208333,47.0,60.0
625,140.3183551708333,140.52897140208333,86.0,59.0
626,139.70191742083333,140.58890284999998,55.0,66.0
627,140.5238344208333,140.7447246145833,83.0,59.0
628,140.7293136708333,140.94164222916666,81.0,59.0
629,140.9347929208333,141.1762310395833,79.0,59.0
630,140.5238344208333,141.2943816083333,54.0,65.0
631,141.14027217083333,141.34575142083332,81.0,59.0
632,140.9347929208333,141.57006626874997,45.0,74.0
633,141.34575142083332,141.67794287499999,86.0,59.0
634,141.34575142083332,141.72246337916664,54.0,57.0
635,141.34575142083332,141.73787432291664,57.0,67.0
636,141.55123067083332,141.75670992083332,83.0,61.0
637,140.5238344208333,141.7875318083333,38.0,71.0
638,141.75670992083332,141.93821659166665,81.0,62.0
639,142.1676684208333,142.33033949375,86.0,64.0
640,142.3731476708333,142.58376390208332,81.0,67.0
641,142.5786269208333,142.74472264791666,83.0,69.0
642,142.1676684208333,142.869722525,52.0,64.0
643,142.1676684208333,142.8799964875,55.0,69.0
644,142.78410617083333,143.0101333458333,81.0,72.0
645,142.98958542083332,143.18307838124997,86.0,73.0
646,143.19506467083332,143.38855763125,81.0,75.0
647,142.98958542083332,143.42965348124997,55.0,67.0
648,142.98958542083332,143.4347904625,52.0,65.0
649,142.1676684208333,143.44163977083332,36.0,69.0
650,143.40054392083331,143.58889989999997,83.0,75.0
651,142.5786269208333,143.79437914999997,43.0,76.0
652,143.40054392083331,143.80979009374997,48.0,41.0
653,143.6060231708333,143.84403663541664,81.0,77.0
654,143.8115024208333,144.00328305416664,86.0,77.0
655,144.0169816708333,144.21903626666665,81.0,77.0
656,144.22246092083333,144.42965249791663,83.0,77.0
657,143.8115024208333,144.58718658958333,54.0,66.0
658,144.42794017083332,144.6693782895833,81.0,78.0
659,144.63341942083332,144.81492609166665,86.0,74.0
660,143.8115024208333,145.0341039583333,38.0,64.0
661,144.22246092083333,145.05122722916664,45.0,68.0
662,144.83889867083332,145.0597888645833,81.0,69.0
663,144.63341942083332,145.1779394333333,54.0,58.0
664,145.0443779208333,145.23615855416665,83.0,67.0
665,145.2498571708333,145.4142405708333,81.0,65.0
666,145.0443779208333,145.48273365416665,50.0,58.0
667,145.4553364208333,145.67965126874998,83.0,64.0
668,145.6608156708333,145.87828121041665,81.0,63.0
669,145.86629492083333,146.05636322708332,83.0,63.0
670,146.07177417083332,146.29266436458332,81.0,62.0
671,146.27725342083332,146.43821216666666,86.0,62.0
672,145.4553364208333,146.67108864999997,59.0,74.0
673,146.48273267083331,146.70019821041666,81.0,63.0
674,146.6882119208333,146.86115695624997,83.0,63.0
675,146.27725342083332,146.92280073125,55.0,48.0
676,146.8936911708333,147.1094443833333,81.0,64.0
677,146.6882119208333,147.1248553270833,57.0,65.0
678,147.0991704208333,147.31663596041665,86.0,64.0
679,145.86629492083333,147.70362188124997,50.0,65.0
680,147.0991704208333,147.71560817083332,59.0,77.0
681,145.4553364208333,147.7258821333333,43.0,68.0
682,147.92108742083332,148.5512237875,66.0,62.0
683,147.92108742083332,148.5512237875,69.0,71.0
684,147.92108742083332,148.59745661875,50.0,66.0
685,148.7430044208333,149.82690746458331,59.0,65.0
686,149.56492142083331,150.36115351458332,55.0,59.0
687,148.7430044208333,150.38855074791664,43.0,73.0
688,149.15396292083332,150.42450961666665,50.0,59.0
689,149.9758799208333,150.43478357916663,59.0,62.0
690,150.79779692083332,151.10430346874998,62.0,52.0
691,151.2087554208333,151.50841266041664,60.0,57.0
692,151.6197139208333,151.88512461874998,62.0,53.0
693,150.3868384208333,152.1128641208333,47.0,70.0
694,152.03067242083333,152.61286362916664,62.0,71.0
695,153.2635479208333,153.5358079270833,67.0,60.0
696,153.2635479208333,153.55978050624998,64.0,59.0
697,153.0580686708333,153.73786252291666,60.0,59.0
698,152.64711017083332,153.90395825,55.0,64.0
699,153.67450642083332,154.15395800416664,64.0,71.0
700,152.03067242083333,154.3217660583333,48.0,86.0
701,154.4964234208333,154.99813525624998,62.0,90.0
702,154.4964234208333,155.03751877916665,47.0,76.0
703,155.31834042083332,156.03923012291665,60.0,77.0
704,155.72929892083332,156.48101051041664,52.0,62.0
705,156.1402574208333,156.50840774374998,64.0,70.0
706,156.1402574208333,156.54094195833332,60.0,75.0
707,155.31834042083332,156.55635290208332,45.0,71.0
708,156.96217442083332,157.37142059374997,55.0,72.0
709,156.96217442083332,157.39539317291664,52.0,71.0
710,156.96217442083332,158.14539243541665,38.0,67.0
711,157.3731329208333,158.15395407083332,45.0,64.0
712,157.7840914208333,158.20703621041665,54.0,64.0
713,157.7840914208333,158.20703621041665,57.0,77.0
714,158.1950499208333,158.629981,50.0,67.0
715,158.60600842083332,159.69676077291663,62.0,74.0
716,158.60600842083332,159.70189775416665,59.0,71.0
717,159.4279254208333,159.81491134166666,55.0,54.0
718,160.04436317083332,160.94504721666664,62.0,43.0
719,160.24984242083332,160.96559514166665,67.0,68.0
720,159.83888392083333,160.98100608541665,59.0,58.0
721,160.6608009208333,161.16593741041663,55.0,54.0
722,159.0169669208333,161.46730697708333,50.0,63.0
723,161.0717594208333,161.5066905,67.0,74.0
724,161.0717594208333,161.52552609791664,62.0,83.0
725,161.0717594208333,161.54264936874998,59.0,65.0
726,158.60600842083332,161.59915616249998,43.0,81.0
727,161.89367642083332,162.57518259999998,57.0,73.0
728,161.89367642083332,162.6265524125,53.0,50.0
729,161.89367642083332,163.27209972291664,50.0,43.0
730,162.7155934208333,163.39025029166663,57.0,90.0
731,161.89367642083332,163.41593519791664,45.0,60.0
732,162.7155934208333,163.44333243124998,53.0,65.0
733,161.89367642083332,163.46216802916663,41.0,53.0
734,163.5375104208333,164.2361398708333,56.0,86.0
735,163.5375104208333,164.24812616041663,59.0,85.0
736,164.3594274208333,164.7344270520833,59.0,79.0
737,164.3594274208333,164.76867359374998,56.0,79.0
738,163.5375104208333,164.7806598833333,40.0,67.0
739,163.9484689208333,164.8320296958333,47.0,56.0
740,164.77038592083332,165.1556595145833,52.0,58.0
741,165.1813444208333,165.9159327395833,60.0,74.0
742,165.1813444208333,165.92791902916665,64.0,70.0
743,166.0032614208333,166.76010999166664,60.0,65.0
744,166.0032614208333,166.76182231874998,64.0,71.0
745,166.41421992083332,167.1642191833333,57.0,49.0
746,166.8251784208333,167.57517768333332,60.0,74.0
747,166.8251784208333,167.59401328124997,64.0,74.0
748,167.2361369208333,167.6008625895833,57.0,66.0
749,165.1813444208333,167.89024586666665,45.0,65.0
750,165.5923029208333,168.225861975,52.0,59.0
751,168.05805392083332,168.29264273124997,45.0,79.0
752,168.2635331708333,168.3559988333333,47.0,74.0
753,167.64709542083332,168.44675216874998,64.0,79.0
754,167.64709542083332,168.4690124208333,60.0,79.0
755,168.4690124208333,169.18647746874998,55.0,72.0
756,168.4690124208333,169.24127193541665,51.0,71.0
757,169.29092942083332,170.02723006666665,55.0,68.0
758,169.29092942083332,170.08031220624997,51.0,74.0
759,168.4690124208333,170.1436683083333,36.0,54.0
760,170.1128464208333,170.84058543125,54.0,73.0
761,170.1128464208333,170.85428404791665,57.0,79.0
762,170.1128464208333,171.3354479583333,38.0,74.0
763,170.5238049208333,171.36969449999998,45.0,67.0
764,170.93476342083332,171.37140682708332,54.0,65.0
765,170.93476342083332,171.3765438083333,57.0,72.0
766,171.3457219208333,171.78407765416665,50.0,54.0
767,172.37311817083332,172.44332358124998,62.0,56.0
768,171.7566804208333,172.5118166645833,59.0,83.0
769,172.57859742083332,173.31832272083332,62.0,74.0
770,172.57859742083332,173.32174737499997,59.0,74.0
771,172.9895559208333,173.60770599791664,55.0,56.0
772,173.4005144208333,174.12140412291663,59.0,72.0
773,173.4005144208333,174.1248287770833,62.0,81.0
774,173.8114729208333,174.28578752291665,55.0,56.0
775,174.6333899208333,174.92277319791665,55.0,54.0
776,171.7566804208333,174.9518827583333,43.0,86.0
777,174.22243142083332,174.9570197395833,62.0,83.0
778,174.22243142083332,174.96386904791663,59.0,75.0
779,172.1676389208333,175.01523886041664,50.0,63.0
780,175.0443484208333,175.79606001041665,59.0,81.0
781,175.0443484208333,175.80462164583332,62.0,81.0
782,175.86626542083332,176.60941537499997,59.0,73.0
783,175.86626542083332,176.61797701041664,62.0,83.0
784,176.6881824208333,177.41592143124998,59.0,72.0
785,176.6881824208333,177.41592143124998,62.0,81.0
786,176.2772239208333,177.55804457916665,55.0,59.0
787,177.5100994208333,177.9827016958333,62.0,81.0
788,177.5100994208333,177.99982496666664,59.0,77.0
789,175.45530692083332,178.00324962083332,50.0,69.0
790,175.0443484208333,178.02722219999998,43.0,81.0
791,177.9210579208333,178.10256459166663,55.0,59.0
792,178.3320164208333,179.0306458708333,59.0,85.0
793,178.3320164208333,179.04776914166663,62.0,81.0
794,178.3320164208333,179.60085078958332,43.0,73.0
795,179.1539334208333,179.6213987145833,62.0,86.0
796,179.1539334208333,179.62824802291664,59.0,85.0
797,178.74297492083332,179.67105619999998,50.0,67.0
798,179.5648919208333,179.91934362708332,55.0,54.0
799,179.9758504208333,180.72756201041665,62.0,79.0
800,179.9758504208333,180.72756201041665,66.0,77.0
801,180.7977674208333,181.25153409791665,66.0,85.0
802,180.7977674208333,181.2652327145833,62.0,83.0
803,179.9758504208333,181.27379434999997,47.0,77.0
804,181.2087259208333,181.57858857083332,59.0,58.0
805,180.38680892083332,181.5837255520833,54.0,71.0
806,181.61968442083332,182.3696836833333,67.0,72.0
807,181.61968442083332,182.37824531874998,64.0,72.0
808,182.4416014208333,183.1607787958333,64.0,72.0
809,182.4416014208333,183.1659157770833,67.0,79.0
810,182.8525599208333,183.44502509166665,60.0,59.0
811,183.6744769208333,183.89707944166665,60.0,53.0
812,182.03064292083332,183.90221642291664,55.0,61.0
813,183.26351842083332,183.96899717916665,67.0,74.0
814,183.26351842083332,183.97413416041664,64.0,73.0
815,181.61968442083332,183.97584648749998,48.0,75.0
816,184.0854354208333,184.60084587291664,62.0,83.0
817,184.0854354208333,184.61283216249998,66.0,98.0
818,184.0854354208333,184.66933895625,47.0,76.0
819,184.90735242083332,185.62481746874997,60.0,85.0
820,184.90735242083332,185.65906401041664,64.0,76.0
821,185.3183109208333,186.09570741666664,52.0,52.0
822,185.7292694208333,186.11625534166663,64.0,83.0
823,185.7292694208333,186.13166628541663,60.0,85.0
824,184.90735242083332,186.1813237708333,45.0,79.0
825,186.55118642083332,186.94844630416665,52.0,59.0
826,186.55118642083332,187.00324077083332,57.0,79.0
827,187.1676241708333,187.22584329166665,54.0,10.0
828,187.1676241708333,187.36967876666665,57.0,48.0
829,186.55118642083332,187.73440443541665,38.0,73.0
830,187.3731034208333,187.77207563124998,57.0,85.0
831,187.3731034208333,187.77721261249997,54.0,76.0
832,186.9621449208333,187.78063726666664,45.0,71.0
833,187.7840619208333,188.18132180416663,50.0,60.0
834,188.19502042083332,188.92275943124997,59.0,85.0
835,188.19502042083332,188.92618408541665,62.0,86.0
836,189.0169374208333,189.75495039374997,59.0,76.0
837,189.0169374208333,189.7617997020833,62.0,87.0
838,189.42789592083332,189.80632020624998,55.0,52.0
839,189.83885442083331,190.56145644999998,59.0,73.0
840,189.83885442083331,190.57001808541665,62.0,81.0
841,190.2498129208333,190.69673028958331,55.0,58.0
842,188.6059789208333,191.17275721874998,50.0,63.0
843,191.07172992083332,191.1847435083333,55.0,58.0
844,188.19502042083332,191.30631873124997,43.0,86.0
845,190.6607714208333,191.38337344999997,62.0,85.0
846,190.6607714208333,191.40220904791664,59.0,74.0
847,191.4826884208333,191.66077043749996,62.0,65.0
848,191.4826884208333,192.16419459999997,57.0,79.0
849,191.4826884208333,192.17789321666663,53.0,64.0
850,192.3046054208333,192.7207009020833,57.0,90.0
851,192.3046054208333,192.76008442499997,53.0,87.0
852,191.4826884208333,192.77035838749998,45.0,75.0
853,191.4826884208333,192.83542681666665,41.0,65.0
854,191.4826884208333,192.89878291875,50.0,59.0
855,193.1265224208333,193.83885048749997,56.0,97.0
856,193.1265224208333,193.84227514166665,59.0,97.0
857,193.9484394208333,194.35597326666664,59.0,96.0
858,193.1265224208333,194.37652119166665,40.0,67.0
859,193.9484394208333,194.3953567895833,56.0,96.0
860,193.5374809208333,194.40905540624996,47.0,61.0
861,194.35939792083332,194.7189866083333,52.0,58.0
862,194.7703564208333,195.49295844999997,60.0,67.0
863,194.7703564208333,195.4998077583333,64.0,73.0
864,195.5922734208333,196.27206727291664,60.0,74.0
865,195.5922734208333,196.2806289083333,64.0,74.0
866,196.00323192083331,196.54432727916665,57.0,53.0
867,195.1813149208333,196.79090237916665,52.0,60.0
868,196.4141904208333,196.99809395624996,64.0,74.0
869,196.4141904208333,197.08542263749996,60.0,75.0
870,197.23610742083332,197.8165863020833,60.0,81.0
871,197.23610742083332,197.8217232833333,64.0,71.0
872,196.8251489208333,197.82857259166664,52.0,54.0
873,194.7703564208333,198.0580244208333,45.0,69.0
874,198.0580244208333,198.7823387770833,60.0,74.0
875,198.0580244208333,198.78405110416665,52.0,64.0
876,198.0580244208333,198.80117437499996,55.0,68.0
877,198.87994142083332,199.60596810416664,60.0,72.0
878,198.87994142083332,199.64192697291665,52.0,65.0
879,198.87994142083332,199.6453516270833,55.0,74.0
880,199.2908999208333,199.86281716666664,48.0,53.0
881,199.7018584208333,200.3439810770833,60.0,90.0
882,199.7018584208333,200.36624132916663,52.0,65.0
883,199.7018584208333,200.37137831041665,55.0,75.0
884,200.1128169208333,200.57343290624996,48.0,59.0
885,198.0580244208333,200.9809667520833,36.0,64.0
886,200.52377542083332,200.9809667520833,60.0,85.0
887,200.52377542083332,200.99295304166665,55.0,85.0
888,200.52377542083332,200.99809002291664,52.0,85.0
889,198.4689829208333,201.16761040416665,43.0,73.0
890,200.9347339208333,201.2172678895833,48.0,61.0
891,201.3456924208333,202.10939029999997,54.0,68.0
892,201.3456924208333,202.10939029999997,62.0,93.0
893,201.3456924208333,202.11795193541664,57.0,86.0
894,202.16760942083332,202.66247194791663,62.0,87.0
895,202.7840471708333,202.86795119791665,62.0,48.0
896,202.16760942083332,202.88336214166665,54.0,72.0
897,202.16760942083332,202.8867867958333,57.0,83.0
898,202.5785679208333,203.02890994374997,50.0,63.0
899,202.9895264208333,203.2155535958333,54.0,67.0
900,202.9895264208333,203.25664944583332,57.0,75.0
901,202.9895264208333,203.29603296874998,62.0,87.0
902,203.4004849208333,203.79945713124997,50.0,62.0
903,203.8114434208333,204.30288129374998,66.0,87.0
904,203.8114434208333,204.52719614166665,62.0,86.0
905,204.2224019208333,204.5871275895833,50.0,66.0
906,201.7566509208333,204.6487713645833,45.0,79.0
907,201.3456924208333,204.6641823083333,38.0,75.0
908,204.6333604208333,205.32342823541663,59.0,81.0
909,204.6333604208333,205.35596244999996,62.0,83.0
910,204.6333604208333,205.89020849999997,43.0,83.0
911,205.4552774208333,206.01178372291665,59.0,85.0
912,205.4552774208333,206.16246850624998,62.0,86.0
913,205.04431892083332,206.25493416874997,50.0,63.0
914,205.8662359208333,206.2771944208333,55.0,51.0
915,206.2771944208333,206.57342700624997,60.0,73.0
916,206.2771944208333,206.59226260416665,62.0,68.0
917,206.8936321708333,206.9860978333333,62.0,51.0
918,206.2771944208333,207.01520739374996,66.0,75.0
919,207.0991114208333,207.554590425,66.0,90.0
920,206.2771944208333,207.66760401249996,47.0,72.0
921,207.0991114208333,207.68643961041664,62.0,85.0
922,207.7155491708333,207.81143948749997,67.0,53.0
923,207.5100699208333,207.85767231874996,59.0,57.0
924,206.68815292083332,207.87822024374998,54.0,70.0
925,207.9210284208333,208.6710276833333,67.0,74.0
926,207.9210284208333,208.6761646645833,64.0,74.0
927,208.33198692083332,209.22410933124996,55.0,70.0
928,209.1539039208333,209.26862983541665,60.0,60.0
929,207.9210284208333,209.33541059166663,48.0,83.0
930,208.7429454208333,209.6316431770833,67.0,83.0
931,209.5648624208333,209.6316431770833,67.0,69.0
932,208.7429454208333,209.64876644791664,64.0,74.0
933,209.5648624208333,209.64876644791664,64.0,76.0
934,209.5648624208333,210.2583548895833,48.0,74.0
935,210.3867794208333,210.87650496666663,66.0,86.0
936,210.3867794208333,210.87821729374997,62.0,90.0
937,210.3867794208333,210.96383364791663,47.0,76.0
938,211.0032171708333,211.05116232916663,64.0,53.0
939,211.8251341708333,211.8970519083333,69.0,11.0
940,211.2086964208333,211.93643543124998,64.0,77.0
941,211.2086964208333,211.94670939374998,60.0,75.0
942,212.0306134208333,212.4210239958333,69.0,63.0
943,211.6196549208333,212.45013355624997,52.0,67.0
944,212.0306134208333,212.4518458833333,64.0,83.0
945,212.0306134208333,212.46554449999996,60.0,74.0
946,212.4415719208333,212.4878047520833,57.0,36.0
947,211.2086964208333,212.52547594791665,45.0,81.0
948,212.85253042083332,213.59396804791663,54.0,65.0
949,212.85253042083332,213.6025296833333,62.0,72.0
950,212.85253042083332,213.60595433749998,57.0,66.0
951,213.2634889208333,214.04773472499997,45.0,76.0
952,212.85253042083332,214.09739221041664,38.0,67.0
953,213.6744474208333,214.10766617291665,54.0,74.0
954,213.6744474208333,214.10937849999996,57.0,86.0
955,213.6744474208333,214.11280315416664,62.0,87.0
956,214.0854059208333,214.46896718749997,50.0,60.0
957,214.49636442083332,215.20869248749997,67.0,83.0
958,214.49636442083332,215.21725412291664,59.0,83.0
959,214.49636442083332,215.22410343124997,62.0,83.0
960,215.3182814208333,216.02376017916663,67.0,76.0
961,215.3182814208333,216.05115741249998,59.0,77.0
962,215.3182814208333,216.05286973958331,62.0,90.0
963,215.7292399208333,216.26006131666665,55.0,53.0
964,216.14019842083331,216.84738950624998,67.0,77.0
965,216.14019842083331,216.86280044999998,62.0,85.0
966,216.14019842083331,216.8645127770833,59.0,75.0
967,216.5511569208333,217.02718384999997,55.0,57.0
968,216.9621154208333,217.31656712708332,59.0,83.0
969,216.9621154208333,217.31656712708332,67.0,83.0
970,216.9621154208333,217.32341643541665,62.0,87.0
971,214.9073229208333,217.3884848645833,50.0,69.0
972,214.49636442083332,217.47410121874998,43.0,83.0
973,217.7840324208333,218.49636048749997,57.0,85.0
974,217.7840324208333,218.51690841249996,53.0,73.0
975,218.6059494208333,218.9038943333333,57.0,85.0
976,218.6059494208333,218.91245596874998,53.0,77.0
977,217.7840324208333,218.93129156666663,41.0,64.0
978,217.7840324208333,218.97923672499996,45.0,76.0
979,217.7840324208333,219.1247845270833,50.0,59.0
980,219.4278664208333,220.1419068145833,56.0,94.0
981,219.4278664208333,220.16416706666664,59.0,94.0
982,220.2497834208333,220.56485160416665,59.0,93.0
983,219.4278664208333,220.60594745416662,40.0,94.0
984,220.2497834208333,220.6093721083333,56.0,93.0
985,221.0717004208333,221.82512433749997,60.0,76.0
986,221.0717004208333,221.83882295416663,64.0,74.0
987,221.0717004208333,222.51861680624998,45.0,83.0
988,222.30457592083332,222.53402774999998,57.0,58.0
989,221.8936174208333,222.6436166833333,60.0,81.0
990,221.8936174208333,222.65046599166664,64.0,76.0
991,222.7155344208333,223.4603967020833,60.0,85.0
992,222.7155344208333,223.47238299166665,64.0,86.0
993,221.4826589208333,224.17786174999998,52.0,62.0
994,223.5374514208333,224.24293017916665,64.0,85.0
995,223.5374514208333,224.2566287958333,60.0,90.0
996,222.7155344208333,224.28573835624996,43.0,86.0
997,224.3593684208333,225.0836827770833,60.0,52.0
998,224.3593684208333,225.12649095416663,52.0,66.0
999,224.3593684208333,225.14018957083331,55.0,74.0
1000,225.1812854208333,225.86279159999998,52.0,71.0
1001,225.1812854208333,225.86621625416663,60.0,90.0
1002,225.1812854208333,225.87306556249996,55.0,83.0
1003,225.5922439208333,226.13505160624996,48.0,59.0
1004,226.0032024208333,226.7326537583333,60.0,87.0
1005,226.0032024208333,226.74121539374997,52.0,76.0
1006,226.0032024208333,226.7429277208333,55.0,85.0
1007,226.4141609208333,226.9689548958333,48.0,52.0
1008,226.8251194208333,227.30628333124997,60.0,95.0
1009,226.8251194208333,227.31655729374998,52.0,74.0
1010,226.8251194208333,227.32511892916665,55.0,85.0
1011,224.3593684208333,227.3953243395833,36.0,67.0
1012,224.7703269208333,227.59395428124998,43.0,69.0
1013,227.2360779208333,227.62477616874997,48.0,59.0
1014,227.6470364208333,228.36792612291663,62.0,83.0
1015,227.6470364208333,228.36963844999997,54.0,62.0
1016,227.6470364208333,228.39018637499996,57.0,77.0
1017,228.46895342083332,229.16758287083331,62.0,95.0
1018,228.46895342083332,229.18128148749997,54.0,67.0
1019,228.46895342083332,229.18470614166662,57.0,83.0
1020,228.8799119208333,229.46724011041664,50.0,54.0
1021,229.2908704208333,229.94669169374998,54.0,72.0
1022,229.2908704208333,229.96039031041664,62.0,98.0
1023,229.2908704208333,229.96210263749998,57.0,86.0
1024,229.7018289208333,230.12134905624998,50.0,58.0
1025,227.6470364208333,230.48436239791664,38.0,76.0
1026,228.0579949208333,230.5442938458333,45.0,67.0
1027,230.1127874208333,230.56312944374997,57.0,93.0
1028,230.1127874208333,230.56655409791662,62.0,93.0
1029,230.1127874208333,230.56826642499996,54.0,93.0
1030,230.9347044208333,231.6333338708333,60.0,85.0
1031,230.9347044208333,231.65045714166664,63.0,81.0
1032,230.9347044208333,232.2035387895833,44.0,73.0
1033,231.7566214208333,232.2240867145833,63.0,86.0
1034,231.7566214208333,232.23093602291664,60.0,85.0
1035,231.3456629208333,232.27374419999998,51.0,67.0
1036,232.1675799208333,232.5220316270833,56.0,54.0
1037,232.5785384208333,233.33025001041665,63.0,79.0
1038,232.5785384208333,233.33025001041665,67.0,77.0
1039,233.4004554208333,233.85422209791665,67.0,85.0
1040,233.4004554208333,233.8679207145833,63.0,83.0
1041,232.5785384208333,233.87648234999997,48.0,77.0
1042,233.8114139208333,234.1812765708333,60.0,58.0
1043,232.9894969208333,234.1864135520833,55.0,71.0
1044,234.2223724208333,234.9723716833333,68.0,72.0
1045,234.2223724208333,234.98093331874998,65.0,72.0
1046,235.0442894208333,235.7634667958333,65.0,72.0
1047,235.0442894208333,235.7686037770833,68.0,79.0
1048,235.4552479208333,236.04771309166662,61.0,59.0
1049,236.27716492083331,236.49976744166665,61.0,53.0
1050,234.63333092083332,236.50490442291664,56.0,61.0
1051,235.8662064208333,236.57168517916662,68.0,74.0
1052,235.8662064208333,236.57682216041664,65.0,73.0
1053,234.2223724208333,236.57853448749998,49.0,75.0
1054,236.6881234208333,237.20353387291664,63.0,83.0
1055,236.6881234208333,237.21552016249996,67.0,98.0
1056,236.6881234208333,237.27202695624996,48.0,76.0
1057,237.5100404208333,238.22750546874997,61.0,85.0
1058,237.5100404208333,238.26175201041664,65.0,76.0
1059,237.9209989208333,238.69839541666664,53.0,52.0
1060,238.3319574208333,238.71894334166663,65.0,83.0
1061,238.3319574208333,238.73435428541663,61.0,85.0
1062,237.5100404208333,238.7840117708333,46.0,79.0
1063,239.1538744208333,239.55113430416662,53.0,59.0
1064,239.1538744208333,239.6059287708333,58.0,79.0
1065,239.7703121708333,239.82853129166662,55.0,10.0
1066,239.7703121708333,239.97236676666662,58.0,48.0
1067,239.1538744208333,240.33709243541662,39.0,73.0
1068,239.9757914208333,240.37476363124998,58.0,85.0
1069,239.9757914208333,240.37990061249997,55.0,76.0
1070,239.5648329208333,240.38332526666665,46.0,71.0
1071,240.3867499208333,240.78400980416663,51.0,60.0
1072,240.7977084208333,241.52544743124997,60.0,85.0
1073,240.7977084208333,241.52887208541662,63.0,86.0
1074,241.6196254208333,242.35763839374997,60.0,76.0
1075,241.6196254208333,242.3644877020833,63.0,87.0
1076,242.0305839208333,242.40900820624998,56.0,52.0
1077,242.44154242083331,243.16414444999998,60.0,73.0
1078,242.44154242083331,243.17270608541662,63.0,81.0
1079,242.8525009208333,243.29941828958331,56.0,58.0
1080,241.2086669208333,243.77544521874998,51.0,63.0
1081,243.6744179208333,243.7874315083333,56.0,58.0
1082,240.7977084208333,243.90900673124997,44.0,86.0
1083,243.2634594208333,243.98606144999997,63.0,85.0
1084,243.2634594208333,244.00489704791664,60.0,74.0
1085,244.0853764208333,244.26345843749996,63.0,65.0
1086,244.0853764208333,244.76688259999997,58.0,79.0
1087,244.0853764208333,244.78058121666663,54.0,64.0
1088,244.9072934208333,245.3233889020833,58.0,90.0
1089,244.9072934208333,245.36277242499997,54.0,87.0
1090,244.0853764208333,245.37304638749995,46.0,75.0
1091,244.0853764208333,245.43811481666663,42.0,65.0
1092,244.0853764208333,245.50147091874996,51.0,59.0
1093,245.7292104208333,246.44153848749997,57.0,97.0
1094,245.7292104208333,246.44496314166665,60.0,97.0
1095,246.5511274208333,246.95866126666664,60.0,96.0
1096,245.7292104208333,246.97920919166663,41.0,67.0
1097,246.5511274208333,246.9980447895833,57.0,96.0
1098,246.1401689208333,247.01174340624996,48.0,61.0
1099,246.9620859208333,247.3216746083333,53.0,58.0
1100,247.3730444208333,248.09564644999998,61.0,67.0
1101,247.3730444208333,248.1024957583333,65.0,73.0
1102,248.1949614208333,248.87475527291664,61.0,74.0
1103,248.1949614208333,248.8833169083333,65.0,74.0
1104,248.6059199208333,249.14701527916662,58.0,53.0
1105,247.7840029208333,249.39359037916662,53.0,60.0
1106,249.0168784208333,249.60078195624996,65.0,74.0
1107,249.0168784208333,249.68811063749996,61.0,75.0
1108,249.8387954208333,250.4192743020833,61.0,81.0
1109,249.8387954208333,250.4244112833333,65.0,71.0
1110,249.4278369208333,250.43126059166664,53.0,54.0
1111,247.3730444208333,250.6607124208333,46.0,69.0
1112,250.6607124208333,251.3850267770833,61.0,74.0
1113,250.6607124208333,251.38673910416662,53.0,64.0
1114,250.6607124208333,251.40386237499996,56.0,68.0
1115,251.4826294208333,252.20865610416664,61.0,72.0
1116,251.4826294208333,252.24461497291662,53.0,65.0
1117,251.4826294208333,252.2480396270833,56.0,74.0
1118,251.8935879208333,252.46550516666665,49.0,53.0
1119,252.3045464208333,252.9466690770833,61.0,90.0
1120,252.3045464208333,252.96892932916663,53.0,65.0
1121,252.3045464208333,252.97406631041665,56.0,75.0
1122,252.7155049208333,253.17612090624996,49.0,59.0
1123,250.6607124208333,253.5836547520833,37.0,64.0
1124,253.1264634208333,253.5836547520833,61.0,85.0
1125,253.1264634208333,253.59564104166662,56.0,85.0
1126,253.1264634208333,253.60077802291664,53.0,85.0
1127,251.0716709208333,253.77029840416662,44.0,73.0
1128,253.5374219208333,253.8199558895833,49.0,61.0
1129,253.9483804208333,254.71207829999997,55.0,68.0
1130,253.9483804208333,254.71207829999997,63.0,93.0
1131,253.9483804208333,254.72063993541664,58.0,86.0
1132,254.7702974208333,255.26515994791663,63.0,87.0
1133,255.3867351708333,255.47063919791663,63.0,48.0
1134,254.7702974208333,255.48605014166662,55.0,72.0
1135,254.7702974208333,255.4894747958333,58.0,83.0
1136,255.1812559208333,255.63159794374997,51.0,63.0
1137,255.5922144208333,255.81824159583329,55.0,67.0
1138,255.5922144208333,255.8593374458333,58.0,75.0
1139,255.5922144208333,255.89872096874996,63.0,87.0
1140,256.0031729208333,256.40214513124994,51.0,62.0
1141,256.4141314208333,256.90556929375,67.0,87.0
1142,256.4141314208333,257.12988414166665,63.0,86.0
1143,256.8250899208333,257.1898155895833,51.0,66.0
1144,254.3593389208333,257.2514593645833,46.0,79.0
1145,253.9483804208333,257.2668703083333,39.0,75.0
1146,257.2360484208333,257.92611623541666,60.0,81.0
1147,257.2360484208333,257.95865045,63.0,83.0
1148,257.2360484208333,258.4928965,44.0,83.0
1149,258.0579654208333,258.6144717229166,60.0,85.0
1150,258.0579654208333,258.76515650625,63.0,86.0
1151,257.6470069208333,258.85762216874997,51.0,63.0
1152,258.4689239208333,258.8798824208333,56.0,51.0
1153,258.8798824208333,259.17611500625,61.0,73.0
1154,258.8798824208333,259.19495060416665,63.0,68.0
1155,259.4963201708333,259.5887858333333,63.0,51.0
1156,258.8798824208333,259.61789539374996,67.0,75.0
1157,259.7017994208333,260.15727842499996,67.0,90.0
1158,258.8798824208333,260.27029201249997,48.0,72.0
1159,259.7017994208333,260.28912761041664,63.0,85.0
1160,260.3182371708333,260.41412748749997,68.0,53.0
1161,260.1127579208333,260.46036031874996,60.0,57.0
1162,259.2908409208333,260.48090824375,55.0,70.0
1163,260.5237164208333,261.2737156833333,68.0,74.0
1164,260.5237164208333,261.2788526645833,65.0,74.0
1165,260.9346749208333,261.82679733124996,56.0,70.0
1166,261.7565919208333,261.8713178354166,61.0,60.0
1167,260.5237164208333,261.93809859166663,49.0,83.0
1168,261.3456334208333,262.2343311770833,68.0,83.0
1169,262.1675504208333,262.2343311770833,68.0,69.0
1170,261.3456334208333,262.2514544479166,65.0,74.0
1171,262.1675504208333,262.2514544479166,65.0,76.0
1172,262.1675504208333,262.8610428895833,49.0,74.0
1173,262.9894674208333,263.47919296666663,67.0,86.0
1174,262.9894674208333,263.48090529374997,63.0,90.0
1175,262.9894674208333,263.56652164791666,48.0,76.0
1176,263.6059051708333,263.65385032916663,65.0,53.0
1177,264.4278221708333,264.4997399083333,70.0,11.0
1178,263.8113844208333,264.53912343124995,65.0,77.0
1179,263.8113844208333,264.54939739375,61.0,75.0
1180,264.6333014208333,265.0237119958333,70.0,63.0
1181,264.2223429208333,265.05282155624997,53.0,67.0
1182,264.6333014208333,265.0545338833333,65.0,83.0
1183,264.6333014208333,265.06823249999997,61.0,74.0
1184,265.0442599208333,265.0904927520833,58.0,36.0
1185,263.8113844208333,265.1281639479166,46.0,81.0
1186,265.4552184208333,266.19665604791663,55.0,65.0
1187,265.4552184208333,266.2052176833333,63.0,72.0
1188,265.4552184208333,266.20864233749995,58.0,66.0
1189,265.8661769208333,266.65042272499994,46.0,76.0
1190,265.4552184208333,266.7000802104166,39.0,67.0
1191,266.2771354208333,266.71035417291665,55.0,74.0
1192,266.2771354208333,266.7120665,58.0,86.0
1193,266.2771354208333,266.7154911541666,63.0,87.0
1194,266.6880939208333,267.07165518749997,51.0,60.0
1195,267.0990524208333,267.81138048749995,68.0,83.0
1196,267.0990524208333,267.81994212291664,60.0,83.0
1197,267.0990524208333,267.82679143124994,63.0,83.0
1198,267.9209694208333,268.62644817916663,68.0,76.0
1199,267.9209694208333,268.65384541249995,60.0,77.0
1200,267.9209694208333,268.6555577395833,63.0,90.0
1201,268.3319279208333,268.8627493166666,56.0,53.0
1202,268.7428864208333,269.45007750624995,68.0,77.0
1203,268.7428864208333,269.46548844999995,63.0,85.0
1204,268.7428864208333,269.4672007770833,60.0,75.0
1205,269.1538449208333,269.62987185,56.0,57.0
1206,269.5648034208333,269.9192551270833,60.0,83.0
1207,269.5648034208333,269.9192551270833,68.0,83.0
1208,269.5648034208333,269.9261044354166,63.0,87.0
1209,267.5100109208333,269.9911728645833,51.0,69.0
1210,267.0990524208333,270.07678921875,44.0,83.0
1211,270.3867204208333,271.09904848749994,58.0,85.0
1212,270.3867204208333,271.11959641249996,54.0,73.0
1213,271.20863742083327,271.5065823333333,58.0,85.0
1214,271.20863742083327,271.51514396874995,54.0,77.0
1215,270.3867204208333,271.53397956666663,42.0,64.0
1216,270.3867204208333,271.58192472499996,46.0,76.0
1217,270.3867204208333,271.7274725270833,51.0,59.0
1218,272.0305544208333,272.7445948145833,57.0,94.0
1219,272.0305544208333,272.7668550666666,60.0,94.0
1220,272.8524714208333,273.1675396041666,60.0,93.0
1221,272.0305544208333,273.20863545416665,41.0,94.0
1222,272.8524714208333,273.2120601083333,57.0,93.0
1223,273.6743884208333,274.4278123375,61.0,76.0
1224,273.6743884208333,274.44151095416663,65.0,74.0
1225,273.6743884208333,275.12130480624995,46.0,83.0
1226,274.9072639208333,275.13671574999995,58.0,58.0
1227,274.4963054208333,275.2463046833333,61.0,81.0
1228,274.4963054208333,275.25315399166664,65.0,76.0
1229,275.3182224208333,276.0630847020833,61.0,85.0
1230,275.3182224208333,276.0750709916666,65.0,86.0
1231,274.0853469208333,276.78054975,53.0,62.0
1232,276.1401394208333,276.84561817916665,65.0,85.0
1233,276.1401394208333,276.8593167958333,61.0,90.0
1234,275.3182224208333,276.88842635624997,44.0,86.0
1235,276.9620564208333,277.6863707770833,61.0,52.0
1236,276.9620564208333,277.7291789541666,53.0,66.0
1237,276.9620564208333,277.7428775708333,56.0,74.0
1238,277.7839734208333,278.4654796,53.0,71.0
1239,277.7839734208333,278.4689042541666,61.0,90.0
1240,277.7839734208333,278.47575356249996,56.0,83.0
1241,278.1949319208333,278.73773960625,49.0,59.0
1242,278.6058904208333,279.3353417583333,61.0,87.0
1243,278.6058904208333,279.34390339374994,53.0,76.0
1244,278.6058904208333,279.3456157208333,56.0,85.0
1245,279.0168489208333,279.5716428958333,49.0,52.0
1246,279.4278074208333,279.90897133125,61.0,95.0
1247,279.4278074208333,279.91924529374995,53.0,74.0
1248,279.4278074208333,279.92780692916665,56.0,85.0
1249,276.9620564208333,279.9980123395833,37.0,67.0
1250,277.37301492083327,280.19664228125,44.0,69.0
1251,279.8387659208333,280.22746416875,49.0,59.0
1252,280.2497244208333,280.97061412291663,63.0,83.0
1253,280.2497244208333,280.97232644999997,55.0,62.0
1254,280.2497244208333,280.992874375,58.0,77.0
1255,281.0716414208333,281.7702708708333,63.0,95.0
1256,281.0716414208333,281.7839694875,55.0,67.0
1257,281.0716414208333,281.78739414166665,58.0,83.0
1258,281.4825999208333,282.06992811041664,51.0,54.0
1259,281.8935584208333,282.54937969375,55.0,72.0
1260,281.8935584208333,282.56307831041664,63.0,98.0
1261,281.8935584208333,282.5647906375,58.0,86.0
1262,282.3045169208333,282.72403705625,51.0,58.0
1263,280.2497244208333,283.08705039791664,39.0,76.0
1264,280.6606829208333,283.1469818458333,46.0,67.0
1265,282.7154754208333,283.16581744375,58.0,93.0
1266,282.7154754208333,283.16924209791665,63.0,93.0
1267,282.7154754208333,283.17095442499993,55.0,93.0
1268,283.1264339208333,283.51513216875,51.0,60.0
1269,283.53739242083327,283.7377346895833,84.0,74.0
1270,283.74287167083327,283.94663859375,82.0,67.0
1271,283.9483509208333,284.1538301708333,84.0,70.0
1272,283.53739242083327,284.24458350624997,60.0,81.0
1273,283.53739242083327,284.25485746874995,63.0,87.0
1274,284.1538301708333,284.37814501875,82.0,67.0
1275,284.3593094208333,284.53567911041665,87.0,98.0
1276,284.5647886708333,284.72061043541663,82.0,72.0
1277,284.3593094208333,284.83019936874996,60.0,83.0
1278,283.53739242083327,284.8747198729166,44.0,87.0
1279,284.3593094208333,284.8747198729166,63.0,87.0
1280,284.7702679208333,284.95862389999996,84.0,67.0
1281,284.7702679208333,284.98944578749996,56.0,56.0
1282,284.9757471708333,285.05451421666663,63.0,51.0
1283,284.9757471708333,285.18978805624994,82.0,67.0
1284,285.1812264208333,285.38841799791663,84.0,63.0
1285,285.3867056708333,285.5613630333333,82.0,60.0
1286,285.5921849208333,285.80622580625,84.0,60.0
1287,285.5921849208333,285.8541709645833,55.0,57.0
1288,285.1812264208333,285.9209517208333,58.0,72.0
1289,285.1812264208333,285.92780102916663,63.0,85.0
1290,285.7976641708333,286.04595159791666,82.0,67.0
1291,286.0031434208333,286.35588279999996,87.0,93.0
1292,286.2086226708333,286.3935539958333,82.0,73.0
1293,283.9483509208333,286.4141019208333,51.0,65.0
1294,286.0031434208333,286.43807449999997,63.0,93.0
1295,286.0031434208333,286.44321148125,58.0,76.0
1296,285.1812264208333,286.45177311666663,43.0,59.0
1297,286.4141019208333,286.6144441895833,84.0,81.0
1298,286.82506042083327,287.0373889791666,84.0,75.0
1299,287.0305396708333,287.2428682291666,82.0,67.0
1300,287.2360189208333,287.4483474791666,84.0,63.0
1301,286.82506042083327,287.6007445895833,56.0,67.0
1302,286.82506042083327,287.6110185520833,60.0,74.0
1303,287.4414981708333,287.66752534583327,82.0,67.0
1304,287.6469774208333,287.8473196895833,87.0,77.0
1305,287.8524566708333,288.04594963125,82.0,67.0
1306,288.0579359208333,288.25656586249994,84.0,65.0
1307,287.6469774208333,288.33190825416665,65.0,72.0
1308,287.6469774208333,288.3558808333333,56.0,69.0
1309,287.6469774208333,288.36957944999995,60.0,68.0
1310,286.82506042083327,288.3798534125,41.0,76.0
1311,287.2360189208333,288.4688944208333,48.0,61.0
1312,288.2634151708333,288.4945793270833,82.0,67.0
1313,288.0579359208333,288.5562231020833,53.0,58.0
1314,288.4688944208333,288.69663392291665,84.0,68.0
1315,288.6743736708333,288.8490310333333,82.0,61.0
1316,288.8798529208333,289.1058800958333,84.0,72.0
1317,288.4688944208333,289.1572499083333,63.0,73.0
1318,288.4688944208333,289.1623868895833,55.0,60.0
1319,288.4688944208333,289.1675238708333,58.0,66.0
1320,289.0853321708333,289.33533192499993,82.0,66.0
1321,289.2908114208333,289.4911536895833,87.0,87.0
1322,289.4962906708333,289.7034822479166,82.0,67.0
1323,289.2908114208333,289.72916715416665,63.0,85.0
1324,289.2908114208333,289.75142740624995,58.0,81.0
1325,289.2908114208333,289.7651260229166,55.0,68.0
1326,289.70176992083327,289.8456053958333,51.0,59.0
1327,289.70176992083327,289.90039986249997,84.0,69.0
1328,288.8798529208333,289.90724917083327,46.0,60.0
1329,288.4688944208333,289.93635873125,39.0,62.0
1330,290.1127284208333,290.32163232499994,84.0,68.0
1331,290.3182076708333,290.51170063124994,82.0,64.0
1332,290.1127284208333,290.6195772375,61.0,77.0
1333,290.5236869208333,290.7394401333333,84.0,77.0
1334,290.1127284208333,290.8130701979166,53.0,64.0
1335,290.1127284208333,290.8164948520833,56.0,74.0
1336,290.7291661708333,290.81991950624996,61.0,39.0
1337,290.7291661708333,290.95176869166664,82.0,65.0
1338,290.9346454208333,291.0887548583333,87.0,79.0
1339,291.1401246708333,291.349028575,82.0,70.0
1340,290.9346454208333,291.36957649999994,61.0,85.0
1341,290.9346454208333,291.39012442499995,56.0,85.0
1342,290.9346454208333,291.3969737333333,53.0,75.0
1343,290.1127284208333,291.4688914708333,37.0,69.0
1344,291.3456039208333,291.55279549791663,84.0,65.0
1345,291.3456039208333,291.6538227958333,49.0,65.0
1346,290.5236869208333,291.7257405333333,44.0,75.0
1347,291.5510831708333,291.7873843083333,82.0,64.0
1348,291.7565624208333,291.96032934374995,84.0,69.0
1349,291.9620416708333,292.17094557499996,82.0,70.0
1350,292.1675209208333,292.37642482499996,84.0,61.0
1351,291.7565624208333,292.49971237499994,63.0,83.0
1352,291.7565624208333,292.50484935624996,58.0,74.0
1353,291.7565624208333,292.50827401041664,55.0,65.0
1354,292.3730001708333,292.64354784999995,82.0,73.0
1355,292.5784794208333,292.7685477270833,87.0,73.0
1356,292.5784794208333,292.95176672499997,55.0,74.0
1357,292.5784794208333,292.9534790520833,63.0,87.0
1358,292.5784794208333,292.95519137916665,58.0,86.0
1359,292.7839586708333,292.9688899958333,82.0,71.0
1360,292.1675209208333,292.99286257499995,46.0,74.0
1361,291.7565624208333,292.9997118833333,39.0,74.0
1362,292.98943792083327,293.17265691874996,84.0,68.0
1363,293.1949171708333,293.3541635895833,82.0,69.0
1364,292.98943792083327,293.3764238416666,51.0,61.0
1365,293.4003964208333,293.6264235958333,84.0,69.0
1366,293.6058756708333,293.79423165,82.0,64.0
1367,293.8113549208333,294.06649165625,84.0,64.0
1368,293.4003964208333,294.11786146874994,68.0,83.0
1369,293.4003964208333,294.1349847395833,60.0,71.0
1370,293.4003964208333,294.1401217208333,63.0,86.0
1371,294.0168341708333,294.2599846166666,82.0,60.0
1372,294.2223134208333,294.4123817270833,87.0,74.0
1373,294.2223134208333,294.6452582104166,68.0,73.0
1374,294.4277926708333,294.6538198458333,82.0,69.0
1375,294.6332719208333,294.83018953541665,84.0,65.0
1376,294.2223134208333,294.9432031229166,60.0,63.0
1377,294.2223134208333,294.9466277770833,63.0,77.0
1378,294.8387511708333,295.0442304208333,82.0,73.0
1379,294.6332719208333,295.1418330645833,56.0,52.0
1380,295.0442304208333,295.2908055208333,84.0,71.0
1381,295.2497096708333,295.42265470624994,82.0,67.0
1382,295.0442304208333,295.69491471249995,61.0,86.0
1383,295.4551889208333,295.7120379833333,84.0,74.0
1384,295.0442304208333,295.78053106666664,63.0,83.0
1385,295.4551889208333,295.84388716875,56.0,58.0
1386,295.6606681708333,295.91238025208327,82.0,68.0
1387,295.8661474208333,296.07505132499995,87.0,83.0
1388,293.8113549208333,296.2565579958333,51.0,63.0
1389,295.8661474208333,296.28053057499994,68.0,61.0
1390,296.07162667083327,296.3096401354166,82.0,74.0
1391,293.4003964208333,296.3592976208333,44.0,85.0
1392,295.8661474208333,296.3644346020833,63.0,75.0
1393,295.8661474208333,296.47573586249996,60.0,79.0
1394,296.2771059208333,296.5390919645833,84.0,81.0
1395,296.6880644208333,296.76854379375,58.0,58.0
1396,296.6880644208333,296.8849820354166,84.0,70.0
1397,296.8935436708333,297.08703663125,82.0,68.0
1398,297.0990229208333,297.29765286249994,84.0,66.0
1399,297.3045021708333,297.4997074583333,82.0,68.0
1400,297.0990229208333,297.59388544791665,58.0,63.0
1401,297.5099814208333,297.66751551249996,87.0,74.0
1402,297.7154606708333,297.9021043229166,82.0,62.0
1403,297.5099814208333,297.9877206770833,61.0,76.0
1404,297.9209399208333,298.1229945166666,84.0,67.0
1405,296.6880644208333,298.29251489791665,43.0,90.0
1406,298.1264191708333,298.33018609374994,82.0,63.0
1407,297.9209399208333,298.42093942916665,58.0,62.0
1408,298.3318984208333,298.5305283625,84.0,61.0
1409,298.5373776708333,298.72059666875,82.0,63.0
1410,298.3318984208333,298.7582678645833,67.0,62.0
1411,298.7428569208333,298.96032246041665,84.0,67.0
1412,298.3318984208333,299.03737717916664,64.0,68.0
1413,298.9483361708333,299.1863496354166,82.0,65.0
1414,299.15381542083327,299.34388372708327,87.0,68.0
1415,298.7428569208333,299.56819857499994,52.0,67.0
1416,299.3592946708333,299.5801848645833,82.0,64.0
1417,299.15381542083327,299.6110067520833,55.0,61.0
1418,298.3318984208333,299.62984234999993,48.0,77.0
1419,299.5647739208333,299.78223946041663,84.0,69.0
1420,299.5647739208333,299.9500475145833,64.0,70.0
1421,299.7702531708333,300.00826663541665,82.0,63.0
1422,299.9757324208333,300.17436236249995,84.0,68.0
1423,300.1812116708333,300.3712799770833,82.0,67.0
1424,300.3866909208333,300.61100576875,84.0,72.0
1425,300.5921701708333,300.8250466541666,82.0,62.0
1426,300.7976494208333,300.9997040166666,87.0,77.0
1427,301.0031286708333,301.21888188333327,82.0,68.0
1428,301.2086079208333,301.3832652833333,84.0,74.0
1429,299.9757324208333,301.6195664208333,41.0,71.0
1430,300.3866909208333,301.6195664208333,48.0,60.0
1431,301.4140871708333,301.6247034020833,87.0,85.0
1432,300.7976494208333,301.68463484999995,56.0,66.0
1433,301.6195664208333,301.8404566145833,84.0,64.0
1434,301.8250456708333,302.03737422916663,82.0,71.0
1435,302.0305249208333,302.2719630395833,80.0,65.0
1436,301.6195664208333,302.3901136083333,55.0,65.0
1437,302.23600417083327,302.44148342083326,82.0,67.0
1438,302.0305249208333,302.66579826874994,46.0,74.0
1439,302.44148342083326,302.773674875,87.0,79.0
1440,302.44148342083326,302.81819537916664,55.0,57.0
1441,302.44148342083326,302.83360632291664,58.0,67.0
1442,302.6469626708333,302.8524419208333,84.0,59.0
1443,301.6195664208333,302.8832638083333,39.0,71.0
1444,302.8524419208333,303.0339485916666,82.0,71.0
1445,303.2634004208333,303.42607149375,87.0,79.0
1446,303.4688796708333,303.6794959020833,82.0,62.0
1447,303.6743589208333,303.8404546479166,84.0,63.0
1448,303.2634004208333,303.965454525,53.0,64.0
1449,303.2634004208333,303.97572848749996,56.0,69.0
1450,303.8798381708333,304.1058653458333,82.0,60.0
1451,304.0853174208333,304.27881038124997,87.0,81.0
1452,304.2907966708333,304.48428963124996,82.0,65.0
1453,304.0853174208333,304.52538548124994,56.0,67.0
1454,304.0853174208333,304.53052246249996,53.0,65.0
1455,303.2634004208333,304.5373717708333,37.0,69.0
1456,304.4962759208333,304.68463189999994,84.0,61.0
1457,303.6743589208333,304.89011114999994,44.0,76.0
1458,304.4962759208333,304.90552209374994,49.0,41.0
1459,304.7017551708333,304.9397686354166,82.0,63.0
1460,304.9072344208333,305.0990150541666,87.0,76.0
1461,305.1127136708333,305.31476826666665,82.0,68.0
1462,305.31819292083327,305.5253844979166,84.0,63.0
1463,304.9072344208333,305.68291858958327,55.0,66.0
1464,305.52367217083327,305.7651102895833,82.0,64.0
1465,305.7291514208333,305.9106580916666,87.0,74.0
1466,304.9072344208333,306.1298359583333,39.0,64.0
1467,305.31819292083327,306.1469592291666,46.0,68.0
1468,305.9346306708333,306.1555208645833,82.0,70.0
1469,305.7291514208333,306.2736714333333,55.0,58.0
1470,306.1401099208333,306.33189055416665,84.0,63.0
1471,306.3455891708333,306.50997257083327,82.0,59.0
1472,306.1401099208333,306.5784656541666,51.0,58.0
1473,306.5510684208333,306.77538326875,84.0,71.0
1474,306.7565476708333,306.9740132104166,82.0,67.0
1475,306.9620269208333,307.1520952270833,84.0,69.0
1476,307.1675061708333,307.3883963645833,82.0,70.0
1477,307.3729854208333,307.53394416666663,87.0,93.0
1478,306.5510684208333,307.76682064999994,60.0,74.0
1479,307.5784646708333,307.7959302104166,82.0,74.0
1480,307.7839439208333,307.95688895624994,84.0,65.0
1481,307.3729854208333,308.01853273124993,56.0,48.0
1482,307.9894231708333,308.2051763833333,82.0,64.0
1483,307.7839439208333,308.2205873270833,58.0,65.0
1484,308.1949024208333,308.41236796041665,87.0,81.0
1485,306.9620269208333,308.79935388124994,51.0,65.0
1486,308.1949024208333,308.8113401708333,60.0,77.0
1487,306.5510684208333,308.8216141333333,44.0,68.0
