,start,end,pitch,velocity
0,16.94921875,17.587890625,69.0,85.0
1,17.88671875,18.189453125,69.0,83.0
2,18.19921875,18.50390625,65.0,82.0
3,18.51171875,18.8203125,69.0,83.0
4,18.82421875,20.130859375,67.0,78.0
5,20.69921875,20.927734375,65.0,78.0
6,21.01171875,21.24609375,65.0,72.0
7,21.32421875,21.5390625,65.0,83.0
8,21.63671875,21.904296875,65.0,85.0
9,21.94921875,22.212890625,62.0,83.0
10,22.26171875,22.5546875,65.0,82.0
11,22.57421875,23.826171875,64.0,83.0
12,24.44921875,25.3359375,65.0,80.0
13,25.38671875,25.662109375,65.0,80.0
14,25.69921875,25.939453125,64.0,82.0
15,26.01171875,26.283203125,65.0,79.0
16,26.32421875,27.189453125,65.0,82.0
17,27.26171875,28.056640625,69.0,84.0
18,28.19921875,28.4296875,67.0,82.0
19,28.51171875,28.705078125,67.0,75.0
20,28.82421875,29.04296875,67.0,82.0
21,29.13671875,29.384765625,67.0,82.0
22,29.44921875,29.69921875,65.0,84.0
23,29.76171875,30.0703125,64.0,86.0
24,30.07421875,31.376953125,69.0,83.0
25,31.94921875,32.88671875,69.0,84.0
26,32.88671875,33.173828125,69.0,84.0
27,33.19921875,33.486328125,74.0,83.0
28,33.51171875,33.845703125,65.0,84.0
29,33.82421875,35.3046875,67.0,80.0
30,35.69921875,35.8359375,69.0,83.0
31,35.85546875,35.98046875,67.0,78.0
32,36.01171875,36.1640625,69.0,73.0
33,36.16796875,36.31640625,67.0,72.0
34,36.32421875,36.494140625,69.0,78.0
35,36.48046875,36.65234375,67.0,79.0
36,36.63671875,36.98828125,69.0,81.0
37,36.94921875,37.3359375,74.0,87.0
38,37.26171875,37.5859375,65.0,77.0
39,37.57421875,38.767578125,67.0,78.0
40,39.44921875,40.29296875,65.0,76.0
41,40.38671875,40.673828125,65.0,80.0
42,40.69921875,41.029296875,64.0,81.0
43,41.01171875,41.26171875,65.0,84.0
44,41.32421875,42.265625,65.0,83.0
45,42.26171875,43.03125,69.0,79.0
46,43.19921875,43.3515625,67.0,77.0
47,43.35546875,43.52734375,65.0,76.0
48,43.51171875,43.66796875,67.0,77.0
49,43.66796875,43.833984375,65.0,75.0
50,43.82421875,43.9921875,67.0,81.0
51,43.98046875,44.126953125,65.0,82.0
52,44.13671875,44.431640625,67.0,82.0
53,44.44921875,44.708984375,65.0,82.0
54,44.76171875,44.998046875,64.0,81.0
55,45.07421875,46.33984375,69.0,76.0
56,46.94921875,47.77734375,62.0,82.0
57,47.88671875,48.634765625,65.0,77.0
58,48.82421875,49.1953125,65.0,82.0
59,49.13671875,49.43359375,64.0,83.0
60,49.44921875,49.830078125,62.0,80.0
61,49.76171875,50.416015625,67.0,76.0
62,50.69921875,50.921875,69.0,77.0
63,51.01171875,51.263671875,69.0,75.0
64,51.32421875,51.537109375,69.0,75.0
65,51.63671875,51.9140625,69.0,77.0
66,51.94921875,52.21484375,67.0,76.0
67,52.26171875,52.576171875,65.0,81.0
68,52.57421875,52.92578125,69.0,76.0
69,52.88671875,53.177734375,67.0,78.0
70,53.19921875,53.53125,65.0,75.0
71,53.51171875,54.1953125,67.0,82.0
72,54.44921875,55.390625,62.0,86.0
73,55.38671875,56.1484375,65.0,82.0
74,56.32421875,56.720703125,65.0,82.0
75,56.63671875,56.919921875,64.0,79.0
76,56.94921875,57.283203125,62.0,79.0
77,57.26171875,57.94921875,67.0,76.0
78,58.19921875,58.3984375,69.0,83.0
79,58.51171875,58.732421875,69.0,80.0
80,58.82421875,59.052734375,69.0,86.0
81,59.13671875,59.3515625,69.0,83.0
82,59.44921875,59.6953125,72.0,86.0
83,59.76171875,59.98046875,74.0,87.0
84,60.07421875,60.96875,74.0,88.0
85,61.01171875,61.671875,72.0,83.0
86,61.94921875,62.37109375,72.0,86.0
87,62.57421875,62.80859375,72.0,83.0
88,62.88671875,63.119140625,72.0,82.0
89,63.19921875,63.40234375,70.0,86.0
90,63.51171875,63.767578125,69.0,83.0
91,63.82421875,64.31640625,76.0,83.0
92,64.44921875,64.65234375,76.0,80.0
93,64.76171875,64.982421875,74.0,83.0
94,65.07421875,65.2578125,74.0,82.0
95,65.38671875,65.625,76.0,75.0
96,65.69921875,66.125,77.0,74.0
97,66.32421875,66.548828125,65.0,82.0
98,66.63671875,66.861328125,65.0,82.0
99,66.94921875,67.1328125,67.0,83.0
100,67.26171875,67.478515625,69.0,76.0
101,67.57421875,68.38671875,69.0,80.0
102,68.51171875,68.744140625,69.0,83.0
103,68.82421875,69.1015625,72.0,78.0
104,69.13671875,69.41015625,69.0,82.0
105,69.44921875,69.76171875,67.0,79.0
106,69.76171875,70.3203125,65.0,83.0
107,70.69921875,71.08203125,74.0,88.0
108,71.16796875,71.310546875,69.0,84.0
109,71.32421875,71.63671875,67.0,75.0
110,71.63671875,72.314453125,65.0,80.0
111,73.19921875,73.400390625,67.0,73.0
112,73.51171875,73.701171875,67.0,77.0
113,73.82421875,74.01953125,67.0,78.0
114,74.13671875,74.3359375,67.0,75.0
115,74.44921875,74.6953125,65.0,83.0
116,74.76171875,75.017578125,62.0,82.0
117,75.07421875,76.01171875,69.0,81.0
118,76.01171875,76.818359375,67.0,75.0
119,76.94921875,77.37109375,72.0,86.0
120,77.57421875,77.80859375,72.0,83.0
121,77.88671875,78.119140625,72.0,82.0
122,78.19921875,78.40234375,70.0,86.0
123,78.51171875,78.767578125,69.0,83.0
124,78.82421875,79.31640625,76.0,83.0
125,79.44921875,79.65234375,76.0,80.0
126,79.76171875,79.982421875,74.0,83.0
127,80.07421875,80.2578125,74.0,82.0
128,80.38671875,80.625,76.0,75.0
129,80.69921875,81.125,77.0,74.0
130,81.32421875,81.548828125,65.0,82.0
131,81.63671875,81.861328125,65.0,82.0
132,81.94921875,82.1328125,67.0,83.0
133,82.26171875,82.478515625,69.0,76.0
134,82.57421875,83.38671875,69.0,80.0
135,83.51171875,83.744140625,69.0,83.0
136,83.82421875,84.1015625,72.0,78.0
137,84.13671875,84.41015625,69.0,82.0
138,84.44921875,84.76171875,67.0,79.0
139,84.76171875,85.3203125,65.0,83.0
140,85.69921875,86.08203125,74.0,88.0
141,86.01171875,86.310546875,69.0,84.0
142,86.32421875,86.79296875,67.0,75.0
143,86.94921875,87.2578125,69.0,80.0
144,87.26171875,87.845703125,67.0,75.0
145,87.88671875,88.2109375,65.0,82.0
146,88.19921875,89.990234375,62.0,81.0
147,95.69921875,96.337890625,69.0,85.0
148,96.63671875,96.939453125,69.0,83.0
149,96.94921875,97.25390625,65.0,82.0
150,97.26171875,97.5703125,69.0,83.0
151,97.57421875,98.880859375,67.0,78.0
152,99.44921875,99.677734375,65.0,78.0
153,99.76171875,99.99609375,65.0,72.0
154,100.07421875,100.2890625,65.0,83.0
155,100.38671875,100.654296875,65.0,85.0
156,100.69921875,100.962890625,62.0,83.0
157,101.01171875,101.3046875,65.0,82.0
158,101.32421875,102.576171875,64.0,83.0
159,103.19921875,104.0859375,65.0,80.0
160,104.13671875,104.412109375,65.0,80.0
161,104.44921875,104.689453125,64.0,82.0
162,104.76171875,105.033203125,65.0,79.0
163,105.07421875,105.939453125,65.0,82.0
164,106.01171875,106.806640625,69.0,84.0
165,106.94921875,107.1796875,67.0,82.0
166,107.26171875,107.455078125,67.0,75.0
167,107.57421875,107.79296875,67.0,82.0
168,107.88671875,108.134765625,67.0,82.0
169,108.19921875,108.44921875,65.0,84.0
170,108.51171875,108.8203125,64.0,86.0
171,108.82421875,110.126953125,69.0,83.0
172,110.69921875,111.63671875,69.0,84.0
173,111.63671875,111.923828125,69.0,84.0
174,111.94921875,112.236328125,74.0,83.0
175,112.26171875,112.595703125,65.0,84.0
176,112.57421875,114.0546875,67.0,80.0
177,114.44921875,114.5859375,69.0,83.0
178,114.60546875,114.73046875,67.0,78.0
179,114.76171875,114.9140625,69.0,73.0
180,114.91796875,115.06640625,67.0,72.0
181,115.07421875,115.244140625,69.0,78.0
182,115.23046875,115.40234375,67.0,79.0
183,115.38671875,115.73828125,69.0,81.0
184,115.69921875,116.0859375,74.0,87.0
185,116.01171875,116.3359375,65.0,77.0
186,116.32421875,117.517578125,67.0,78.0
187,118.19921875,119.04296875,65.0,76.0
188,119.13671875,119.423828125,65.0,80.0
189,119.44921875,119.779296875,64.0,81.0
190,119.76171875,120.01171875,65.0,84.0
191,120.07421875,121.015625,65.0,83.0
192,121.01171875,121.78125,69.0,79.0
193,121.94921875,122.1015625,67.0,77.0
194,122.10546875,122.27734375,65.0,76.0
195,122.26171875,122.41796875,67.0,77.0
196,122.41796875,122.583984375,65.0,75.0
197,122.57421875,122.7421875,67.0,81.0
198,122.73046875,122.876953125,65.0,82.0
199,122.88671875,123.181640625,67.0,82.0
200,123.19921875,123.458984375,65.0,82.0
201,123.51171875,123.748046875,64.0,81.0
202,123.82421875,125.08984375,69.0,76.0
203,125.69921875,126.52734375,62.0,82.0
204,126.63671875,127.384765625,65.0,77.0
205,127.57421875,127.9453125,65.0,82.0
206,127.88671875,128.18359375,64.0,83.0
207,128.19921875,128.580078125,62.0,80.0
208,128.51171875,129.166015625,67.0,76.0
209,129.44921875,129.671875,69.0,77.0
210,129.76171875,130.013671875,69.0,75.0
211,130.07421875,130.287109375,69.0,75.0
212,130.38671875,130.6640625,69.0,77.0
213,130.69921875,130.96484375,67.0,76.0
214,131.01171875,131.326171875,65.0,81.0
215,131.32421875,131.67578125,69.0,76.0
216,131.63671875,131.927734375,67.0,78.0
217,131.94921875,132.28125,65.0,75.0
218,132.26171875,132.9453125,67.0,82.0
219,133.19921875,134.140625,62.0,86.0
220,134.13671875,134.8984375,65.0,82.0
221,135.07421875,135.470703125,65.0,82.0
222,135.38671875,135.669921875,64.0,79.0
223,135.69921875,136.033203125,62.0,79.0
224,136.01171875,136.69921875,67.0,76.0
225,136.94921875,137.1484375,69.0,83.0
226,137.26171875,137.482421875,69.0,80.0
227,137.57421875,137.802734375,69.0,86.0
228,137.88671875,138.1015625,69.0,83.0
229,138.19921875,138.4453125,72.0,86.0
230,138.51171875,138.73046875,74.0,87.0
231,138.82421875,139.71875,74.0,88.0
232,139.76171875,140.421875,72.0,83.0
233,140.69921875,141.12109375,72.0,86.0
234,141.32421875,141.55859375,72.0,83.0
235,141.63671875,141.869140625,72.0,82.0
236,141.94921875,142.15234375,70.0,86.0
237,142.26171875,142.517578125,69.0,83.0
238,142.57421875,143.06640625,76.0,83.0
239,143.19921875,143.40234375,76.0,80.0
240,143.51171875,143.732421875,74.0,83.0
241,143.82421875,144.0078125,74.0,82.0
242,144.13671875,144.375,76.0,75.0
243,144.44921875,144.875,77.0,74.0
244,145.07421875,145.298828125,65.0,82.0
245,145.38671875,145.611328125,65.0,82.0
246,145.69921875,145.8828125,67.0,83.0
247,146.01171875,146.228515625,69.0,76.0
248,146.32421875,147.13671875,69.0,80.0
249,147.26171875,147.494140625,69.0,83.0
250,147.57421875,147.8515625,72.0,78.0
251,147.88671875,148.16015625,69.0,82.0
252,148.19921875,148.51171875,67.0,79.0
253,148.51171875,149.0703125,65.0,83.0
254,149.44921875,149.83203125,74.0,88.0
255,149.91796875,150.060546875,69.0,84.0
256,150.07421875,150.38671875,67.0,75.0
257,150.38671875,151.064453125,65.0,80.0
258,151.94921875,152.150390625,67.0,73.0
259,152.26171875,152.451171875,67.0,77.0
260,152.57421875,152.76953125,67.0,78.0
261,152.88671875,153.0859375,67.0,75.0
262,153.19921875,153.4453125,65.0,83.0
263,153.51171875,153.767578125,62.0,82.0
264,153.82421875,154.76171875,69.0,81.0
265,154.76171875,155.568359375,67.0,75.0
266,155.69921875,156.12109375,72.0,86.0
267,156.32421875,156.55859375,72.0,83.0
268,156.63671875,156.869140625,72.0,82.0
269,156.94921875,157.15234375,70.0,86.0
270,157.26171875,157.517578125,69.0,83.0
271,157.57421875,158.06640625,76.0,83.0
272,158.19921875,158.40234375,76.0,80.0
273,158.51171875,158.732421875,74.0,83.0
274,158.82421875,159.0078125,74.0,82.0
275,159.13671875,159.375,76.0,75.0
276,159.44921875,159.875,77.0,74.0
277,160.07421875,160.298828125,65.0,82.0
278,160.38671875,160.611328125,65.0,82.0
279,160.69921875,160.8828125,67.0,83.0
280,161.01171875,161.228515625,69.0,76.0
281,161.32421875,162.13671875,69.0,80.0
282,162.26171875,162.494140625,69.0,83.0
283,162.57421875,162.8515625,72.0,78.0
284,162.88671875,163.16015625,69.0,82.0
285,163.19921875,163.51171875,67.0,79.0
286,163.51171875,164.0703125,65.0,83.0
287,164.44921875,164.83203125,74.0,88.0
288,164.76171875,165.060546875,69.0,84.0
289,165.07421875,165.54296875,67.0,75.0
290,165.69921875,166.0078125,69.0,80.0
291,166.01171875,166.595703125,67.0,75.0
292,166.63671875,166.9609375,65.0,82.0
293,166.94921875,168.740234375,62.0,81.0
294,196.94921875,197.203125,74.0,85.0
295,197.26171875,197.458984375,74.0,84.0
296,197.57421875,197.779296875,74.0,88.0
297,197.88671875,198.111328125,74.0,89.0
298,198.19921875,198.46484375,72.0,86.0
299,198.51171875,198.80859375,69.0,84.0
300,198.82421875,200.51171875,67.0,82.0
301,200.69921875,200.908203125,76.0,84.0
302,201.01171875,201.205078125,76.0,82.0
303,201.32421875,201.54296875,76.0,83.0
304,201.63671875,201.880859375,76.0,83.0
305,201.94921875,202.1953125,74.0,87.0
306,202.26171875,202.490234375,72.0,84.0
307,202.57421875,203.51171875,69.0,83.0
308,204.44921875,204.681640625,67.0,80.0
309,204.76171875,204.9765625,67.0,78.0
310,205.07421875,205.298828125,67.0,81.0
311,205.38671875,205.66796875,67.0,82.0
312,205.69921875,205.97265625,65.0,85.0
313,206.01171875,206.283203125,64.0,85.0
314,206.32421875,206.5390625,67.0,83.0
315,206.63671875,206.833984375,67.0,81.0
316,206.94921875,207.189453125,67.0,82.0
317,207.26171875,207.45703125,67.0,83.0
318,207.57421875,207.75390625,70.0,88.0
319,207.88671875,208.109375,74.0,83.0
320,208.19921875,208.51171875,76.0,89.0
321,208.51171875,208.705078125,76.0,80.0
322,208.82421875,209.00390625,76.0,83.0
323,209.13671875,209.416015625,76.0,87.0
324,209.44921875,209.62890625,76.0,93.0
325,209.76171875,209.96875,74.0,86.0
326,210.07421875,210.955078125,74.0,83.0
327,211.01171875,211.8046875,72.0,82.0
328,211.94921875,212.37109375,72.0,86.0
329,212.57421875,212.80859375,72.0,83.0
330,212.88671875,213.119140625,72.0,82.0
331,213.19921875,213.40234375,70.0,86.0
332,213.51171875,213.767578125,69.0,83.0
333,213.82421875,214.31640625,76.0,83.0
334,214.44921875,214.65234375,76.0,80.0
335,214.76171875,214.982421875,74.0,83.0
336,215.07421875,215.2578125,74.0,82.0
337,215.38671875,215.625,76.0,75.0
338,215.69921875,216.125,77.0,74.0
339,216.32421875,216.548828125,65.0,82.0
340,216.63671875,216.861328125,65.0,82.0
341,216.94921875,217.1328125,67.0,83.0
342,217.26171875,217.478515625,69.0,76.0
343,217.57421875,218.38671875,69.0,80.0
344,218.51171875,218.744140625,69.0,83.0
345,218.82421875,219.1015625,72.0,78.0
346,219.13671875,219.41015625,69.0,82.0
347,219.44921875,219.76171875,67.0,79.0
348,219.76171875,220.3203125,65.0,83.0
349,220.69921875,221.08203125,74.0,88.0
350,221.16796875,221.310546875,69.0,84.0
351,221.32421875,221.63671875,67.0,75.0
352,221.63671875,222.314453125,65.0,80.0
353,223.19921875,223.400390625,67.0,73.0
354,223.51171875,223.701171875,67.0,77.0
355,223.82421875,224.01953125,67.0,78.0
356,224.13671875,224.3359375,67.0,75.0
357,224.44921875,224.6953125,65.0,83.0
358,224.76171875,225.017578125,62.0,82.0
359,225.07421875,226.01171875,69.0,81.0
360,226.01171875,226.818359375,67.0,75.0
361,226.94921875,227.37109375,72.0,86.0
362,227.57421875,227.80859375,72.0,83.0
363,227.88671875,228.119140625,72.0,82.0
364,228.19921875,228.40234375,70.0,86.0
365,228.51171875,228.767578125,69.0,83.0
366,228.82421875,229.31640625,76.0,83.0
367,229.44921875,229.65234375,76.0,80.0
368,229.76171875,229.982421875,74.0,83.0
369,230.07421875,230.2578125,74.0,82.0
370,230.38671875,230.625,76.0,75.0
371,230.69921875,231.125,77.0,74.0
372,231.32421875,231.548828125,65.0,82.0
373,231.63671875,231.861328125,65.0,82.0
374,231.94921875,232.1328125,67.0,83.0
375,232.26171875,232.478515625,69.0,76.0
376,232.57421875,233.38671875,69.0,80.0
377,233.51171875,233.744140625,69.0,83.0
378,233.82421875,234.1015625,72.0,78.0
379,234.13671875,234.41015625,69.0,82.0
380,234.44921875,234.76171875,67.0,79.0
381,234.76171875,235.3203125,65.0,83.0
382,235.69921875,236.08203125,74.0,88.0
383,236.01171875,236.310546875,69.0,84.0
384,236.32421875,236.79296875,67.0,75.0
385,236.94921875,237.2578125,69.0,80.0
386,237.26171875,237.845703125,67.0,75.0
387,237.88671875,238.2109375,65.0,82.0
388,238.19921875,238.2109375,65.0,81.0
