,start,end,pitch,velocity
0,0.4084505,0.88028125,63.0,86.0
1,0.8309854999999999,1.228872625,65.0,89.0
2,1.2535205,1.6778160625,68.0,80.0
3,1.6760555,2.179576375,70.0,76.0
4,2.0985905,3.7764065625,72.0,78.0
5,3.7887305,4.21830775,73.0,82.0
6,4.2112655,4.676054,72.0,86.0
7,4.6338004999999995,5.0281665,70.0,89.0
8,5.0563355,5.524645125,68.0,78.0
9,5.4788705,7.045771125,72.0,86.0
10,7.1690105,7.633799,77.0,79.0
11,7.5915455,8.0334466875,75.0,86.0
12,8.0140805,8.457742249999999,72.0,82.0
13,8.4366155,8.88027725,75.0,84.0
14,8.8591505,10.968304375,68.0,75.0
15,10.9718255,11.48590975,63.0,82.0
16,11.3943605,11.8186560625,65.0,89.0
17,11.8168955,12.1989375625,75.0,86.0
18,12.2394305,12.656683812499999,73.0,80.0
19,12.661965499999999,13.1408385,72.0,77.0
20,13.084500499999999,13.47182425,70.0,80.0
21,13.5070355,13.93661275,68.0,78.0
22,13.9295705,14.728865875,70.0,80.0
23,14.7746405,15.2130205625,75.0,92.0
24,15.1971755,16.883794375,84.0,82.0
25,16.8873155,17.0933013125,82.0,75.0
26,17.098583,18.996469375,80.0,77.0
27,19.211258,19.41548325,72.0,81.0
28,19.4225255,19.644356375,80.0,82.0
29,19.633793,19.8450605,79.0,86.0
30,19.8450605,20.080975875,80.0,79.0
31,20.056328,20.299285625,79.0,82.0
32,20.2675955,20.48590525,77.0,86.0
33,20.478863,20.6742854375,75.0,84.0
34,20.6901305,21.068651437499998,77.0,84.0
35,21.1126655,21.510552625,75.0,89.0
36,21.5352005,21.9859045,72.0,82.0
37,21.9577355,22.3785099375,70.0,84.0
38,22.380270499999998,23.644354375,68.0,77.0
39,23.6478755,24.114424562499998,63.0,81.0
40,24.0704105,24.447170875,65.0,92.0
41,24.4929455,24.929565,68.0,81.0
42,24.9154805,25.3256915625,75.0,92.0
43,25.3380155,26.1883671875,73.0,82.0
44,26.1830855,26.64083175,72.0,81.0
45,26.6056205,26.808085187499998,73.0,79.0
46,26.816888,27.0087893125,72.0,79.0
47,27.0281555,27.869704375,70.0,77.0
48,27.8732255,28.309845,68.0,77.0
49,28.2957605,28.7341405625,72.0,82.0
50,28.7182955,28.9454080625,70.0,76.0
51,28.929562999999998,29.154915,68.0,69.0
52,29.1408305,31.8925896875,70.0,79.0
53,32.9436455,33.383786125,72.0,66.0
54,33.3661805,33.8327295625,75.0,75.0
55,33.7887155,35.848573625,80.0,70.0
56,36.3239255,37.1883616875,72.0,58.0
57,36.7464605,37.2130095625,75.0,77.0
58,37.1689955,39.4841351875,79.0,66.0
59,39.7042055,40.2411770625,68.0,46.0
60,40.1267405,40.9630076875,77.0,71.0
61,40.5492755,42.4066689375,73.0,60.0
62,43.931620325000004,44.406124375000005,82.0,55.0
63,43.0844855,44.478716412500006,70.0,69.0
64,43.507020499999996,44.478716412500006,77.0,72.0
65,44.781478325,46.070429625,70.0,64.0
66,45.206407325,47.1663923375,75.0,78.0
67,48.180910325,48.696136737500005,72.0,70.0
68,48.605839325000005,49.0679496125,75.0,76.0
69,49.030768325000004,50.5716695375,80.0,75.0
70,51.569908475000005,52.03293641250001,75.0,75.0
71,51.992443475,52.818147287500004,72.0,75.0
72,52.414978475000005,54.895611037500004,79.0,71.0
73,54.950188475000004,55.80934297500001,73.0,67.0
74,55.372723475,55.916737287500005,68.0,69.0
75,55.795258475000004,57.661454725000006,77.0,74.0
76,58.330468475,58.858637225,73.0,68.0
77,59.175538475,59.668495975,73.0,66.0
78,58.753003475,59.8251860375,70.0,63.0
79,60.020608475,60.583988475000005,70.0,59.0
80,60.443143475,61.89032585,75.0,76.0
81,60.865678475,62.332227037500004,70.0,62.0
82,62.133283475,62.881522537500004,79.0,67.0
83,62.555818475,63.076944975,70.0,66.0
84,63.82482086458333,66.16415529166666,73.0,67.0
85,63.401092364583334,66.25772866875,70.0,59.0
86,66.79092036458333,67.9261596375,68.0,65.0
87,67.21464886458334,68.03915390416667,73.0,68.0
88,68.48583436458333,69.42509920625,68.0,67.0
89,68.06210586458333,69.61224596041667,72.0,69.0
90,68.90956286458334,69.62460470833334,75.0,69.0
91,69.75701986458333,70.58152490416667,73.0,69.0
92,69.75701986458333,70.65744292708334,70.0,68.0
93,70.60447686458333,71.48901010833333,72.0,79.0
94,71.45193386458334,73.18922071458333,70.0,67.0
95,71.45193386458334,73.61648028541667,73.0,73.0
96,73.99369379375001,74.44024696041667,72.0,73.0
97,74.41563379375,74.86570312708334,70.0,69.0
98,74.83757379375001,76.31260571041668,68.0,71.0
99,76.52533379375001,78.19551296041668,70.0,68.0
100,76.52533379375001,78.20078721041668,75.0,76.0
101,78.21309379375,78.38714404375,63.0,69.0
102,78.21309379375,78.39769254375001,67.0,71.0
103,79.02357021041666,79.27497612708333,63.0,73.0
104,79.33826712708334,79.55451137708334,65.0,77.0
105,79.60901196041667,79.84459512708334,67.0,69.0
106,79.90085379375,82.64966514375001,68.0,75.0
107,79.90085379375,82.65143067916668,63.0,74.0
108,82.4536907125,83.20404326458335,80.0,76.0
109,83.29055450000001,84.86011548541667,79.0,76.0
110,84.98370296458334,85.88765709791667,75.0,82.0
111,85.83115996458335,86.58151251666668,72.0,75.0
112,86.67861696458334,88.21992938333334,73.0,75.0
113,88.37353096458334,89.98369926458335,68.0,60.0
114,88.37353096458334,90.03313425625001,72.0,70.0
115,90.06844496458335,92.45544884791667,70.0,71.0
116,92.61081596458334,93.22345675416668,75.0,76.0
117,93.45827296458334,94.67296133125001,68.0,67.0
118,93.45827296458334,94.81067309375001,72.0,70.0
119,94.72945846458335,95.18496660208334,73.0,73.0
120,95.15318696458334,96.07126538125002,75.0,76.0
121,96.00064396458335,96.81455579166668,80.0,71.0
122,96.84810096458334,98.53771835833334,79.0,74.0
123,98.54301496458334,99.40989285416669,75.0,74.0
124,99.39047196458334,100.15847987083335,72.0,71.0
125,100.23792896458335,102.02328822708334,73.0,70.0
126,102.77680897708335,103.47047060208334,68.0,71.0
127,102.77680897708335,103.65532966458335,72.0,73.0
128,103.62187897708334,105.23983591458334,70.0,75.0
129,106.15708897708335,106.88068016458334,72.0,75.0
130,107.00215897708334,108.33842591458334,68.0,77.0
131,107.00215897708334,108.57434128958334,73.0,70.0
132,108.69229897708334,110.36659391458335,75.0,77.0
133,110.38243897708334,112.74863497708334,68.0,61.0
134,110.38243897708334,112.76448003958335,72.0,69.0
135,113.76271897708334,115.27680272708335,61.0,76.0
136,113.76271897708334,115.44933785208335,66.0,72.0
137,115.45285897708334,115.92645028958334,70.0,81.0
138,115.87539397708335,116.32785853958335,73.0,81.0
139,116.29792897708334,116.75743578958334,75.0,78.0
140,116.72046397708334,117.12539335208334,73.0,80.0
141,117.14299897708334,118.39651947708334,75.0,81.0
142,118.41060397708334,118.61130810208334,72.0,78.0
143,118.62187147708335,118.85954741458335,73.0,77.0
144,118.83313897708334,120.43525085208334,72.0,82.0
145,120.94581397708335,121.17292653958334,80.0,77.0
146,121.15708147708334,121.39475741458334,78.0,70.0
147,121.36834897708334,121.61130660208335,77.0,79.0
148,121.57961647708333,121.84194028958333,78.0,77.0
149,121.79088397708334,121.97574303958334,77.0,78.0
150,122.00215147708334,122.20813728958333,75.0,78.0
151,122.21341897708334,122.44757378958334,77.0,77.0
152,122.42468647708334,122.65179903958334,75.0,81.0
153,122.63595397708335,122.84370035208335,73.0,80.0
154,122.84722147708334,123.05496785208334,70.0,76.0
155,123.05848897708334,123.90003785208334,73.0,76.0
156,123.92116460208334,124.46693897708334,77.0,77.0
157,124.50919247708335,124.62010791458334,75.0,77.0
158,124.63419241458334,124.73102335208334,73.0,75.0
159,124.74862897708334,125.59193841458334,75.0,82.0
160,126.22750147708334,126.47045910208334,75.0,92.0
161,126.43876897708334,126.85602228958334,80.0,80.0
162,126.86130397708334,127.08841653958333,82.0,79.0
163,127.07257147708334,127.29440235208334,84.0,84.0
164,127.28383897708335,128.97045785208334,82.0,91.0
165,128.97397897708333,129.43876747708333,77.0,80.0
166,129.39651397708334,129.68172510208333,80.0,78.0
167,129.81904897708336,130.20989385208335,80.0,80.0
168,130.24158397708334,130.41764022708335,75.0,86.0
169,130.45285147708336,130.67820347708334,77.0,79.0
170,130.66411897708335,131.92820285208333,75.0,89.0
171,131.93172397708335,132.15355485208335,72.0,69.0
172,132.14299147708334,132.34545616458334,70.0,77.0
173,132.35425897708333,134.04087785208333,72.0,78.0
174,134.46693397708333,134.88242672708333,77.0,82.0
175,134.88946897708334,135.12714491458334,75.0,82.0
176,135.10073647708333,135.31552510208334,77.0,77.0
177,135.31200397708335,135.45460953958334,80.0,80.0
178,135.52327147708334,135.73629953958334,82.0,76.0
179,135.73453897708333,135.95636985208336,80.0,76.0
180,135.94580647708335,136.14298947708335,77.0,72.0
181,136.15707397708334,136.38594710208335,75.0,75.0
182,136.36834147708333,136.57256672708334,77.0,61.0
183,136.57960897708335,136.78031310208334,75.0,80.0
184,136.79087647708334,137.03383410208335,72.0,76.0
185,137.00214397708334,137.22925653958333,70.0,78.0
186,137.21341147708335,137.42115785208335,68.0,73.0
187,137.42467897708335,140.80143785208332,75.0,76.0
188,141.22749397708333,141.66763460208335,72.0,66.0
189,141.65002897708334,142.11657803958335,75.0,75.0
190,142.07256397708335,144.13242210208335,80.0,70.0
191,144.60777397708335,145.47221016458334,72.0,58.0
192,145.03030897708334,145.49685803958334,75.0,77.0
193,145.45284397708335,147.76798366458334,79.0,66.0
194,147.98805397708333,148.52502553958334,68.0,46.0
195,148.41058897708334,149.24685616458333,77.0,71.0
196,148.83312397708335,150.69051741458333,73.0,60.0
197,152.21340397708335,152.68523472708335,82.0,55.0
198,151.36833397708335,152.75741778958334,70.0,69.0
199,151.79086897708333,152.75741778958334,77.0,72.0
200,153.05847397708334,154.34016347708334,70.0,64.0
201,153.48100897708335,155.42995166458334,75.0,78.0
202,156.43875397708334,156.95107766458335,72.0,70.0
203,156.86128897708335,157.32079578958334,75.0,76.0
204,157.28382397708333,158.82079503958334,80.0,75.0
205,159.81903397708334,160.28206191458335,75.0,75.0
206,160.24156897708335,161.06727278958334,72.0,75.0
207,160.66410397708336,163.14473653958333,79.0,71.0
208,163.19931397708334,164.05846847708335,73.0,67.0
209,163.62184897708335,164.16586278958334,68.0,69.0
210,164.04438397708333,165.91528957916665,77.0,74.0
211,166.5861930375,167.1158536625,73.0,68.0
212,167.4336500375,167.92799995416667,73.0,66.0
213,167.0099215375,168.08513260625,70.0,63.0
214,168.2811070375,168.84607837083334,70.0,59.0
215,168.7048355375,170.15610565,75.0,76.0
216,169.1285640375,170.59925503958334,70.0,62.0
217,170.39974953749999,171.15010208958333,79.0,67.0
218,170.8234780375,171.34607652083332,70.0,66.0
219,172.0946635375,174.43399796458334,73.0,67.0
220,171.6709350375,174.52757134166666,70.0,59.0
221,175.0607630375,176.19600231041667,68.0,65.0
222,175.4844915375,176.30899657708332,73.0,68.0
223,176.7556770375,177.69494187916666,68.0,67.0
224,176.3319485375,177.88208863333332,72.0,69.0
225,177.1794055375,177.89444738125,75.0,69.0
226,178.0268625375,178.85136757708332,73.0,69.0
227,178.0268625375,178.9272856,70.0,68.0
228,178.8743195375,179.75885278125,72.0,79.0
229,179.7217765375,181.4590633875,70.0,67.0
230,179.7217765375,181.88632295833332,73.0,73.0
231,182.2641475375,182.71259353333335,72.0,73.0
232,182.6878760375,183.13985310416666,70.0,69.0
233,183.1116045375,184.59288875208333,68.0,71.0
234,184.8065185375,186.48377718333333,70.0,68.0
235,184.8065185375,186.48907378958333,75.0,76.0
236,186.5014325375,186.67622054375,63.0,69.0
237,186.5014325375,186.68681375625,67.0,71.0
238,187.31534436458332,187.56781592916667,63.0,73.0
239,187.63137520416666,187.84853606041668,65.0,77.0
240,187.90326765833333,188.13984940416665,67.0,69.0
241,188.1963465375,190.94705071666667,68.0,75.0
242,188.1963465375,190.94881625208333,63.0,74.0
243,190.75107628541667,191.5014288375,80.0,76.0
244,191.58794007291667,193.15750105833334,79.0,76.0
245,193.2810885375,194.18504267083333,75.0,82.0
246,194.1285455375,194.87889808958334,72.0,75.0
247,194.9760025375,196.51731495625,73.0,75.0
248,196.6709165375,198.2809507,68.0,60.0
249,196.6709165375,198.33017703333334,72.0,70.0
250,198.3653387,200.74226736666668,70.0,71.0
251,200.8969787,201.5070336166667,75.0,76.0
252,201.74085870000002,202.95042003333333,68.0,67.0
253,201.74085870000002,203.08755053333334,72.0,70.0
254,203.0066787,203.4602642,73.0,73.0
255,203.42861870000002,204.34282203333333,75.0,76.0
256,204.2724987,205.0829751166667,80.0,71.0
257,205.1163787,206.79886445,79.0,74.0
258,206.8041387,207.66735761666666,75.0,74.0
259,207.64801870000002,208.41278495,72.0,71.0
260,208.4918987,210.27107903333334,73.0,70.0
261,211.02353870000002,211.71622353333333,68.0,71.0
262,211.02353870000002,211.9008693875,72.0,73.0
263,211.8674187,213.4853756375,70.0,75.0
264,214.4026287,215.12754268333333,72.0,75.0
265,215.24936462708334,216.58940600833333,68.0,77.0
266,215.24936462708334,216.82598775416668,73.0,70.0
267,216.94427862708332,217.78820455625,75.0,77.0
268,218.21546412708332,218.47676336875,63.0,86.0
269,218.42732837708334,219.90684705625,68.0,81.0
270,219.8697708125,220.09575934583333,71.0,91.0
271,220.06751077916667,220.21051914791667,73.0,82.0
272,220.29703038333332,220.89025028333333,75.0,82.0
273,220.86729832291667,221.02089990416667,73.0,76.0
274,220.99971347916667,221.13742524166668,71.0,86.0
275,221.15861166666667,221.4799391125,70.0,86.0
276,221.45522161666668,221.75712817291665,68.0,75.0
277,221.75889370833332,221.98664777708333,71.0,92.0
278,222.01666187916666,222.43685930833334,70.0,86.0
279,222.68403426666666,222.81821495833333,71.0,76.0
280,222.78290425,222.90472619375,70.0,76.0
281,222.9100228,223.14837008125,66.0,75.0
282,223.12012151458333,223.96404744375,61.0,91.0
283,223.94462655416666,224.18650490625,59.0,75.0
284,224.15295973333332,224.36835505416667,58.0,76.0
285,224.35952737708334,225.41531755625,54.0,78.0
286,225.6112919875,225.86376355208333,80.0,79.0
287,225.83551498541667,226.04384816458332,87.0,84.0
288,226.01559959791666,226.28042991041667,88.0,86.0
289,226.25218134375,226.43579702708334,87.0,91.0
290,226.43403149166667,226.61411610416667,85.0,78.0
291,226.62294378125,226.8401046375,83.0,79.0
292,226.83833910208332,227.02372032083332,82.0,77.0
293,227.08198298958334,227.73170002291667,83.0,92.0
294,227.68756163749998,227.78819715625,82.0,76.0
295,227.79702483333332,227.91178463541667,80.0,75.0
296,227.91178463541667,228.74864842291666,82.0,82.0
297,229.00288552291667,229.19709441875,75.0,84.0
298,229.20768763125,229.41778634583332,79.0,74.0
299,229.41072420416666,229.668492375,80.0,76.0
300,229.63494720208334,229.95980571875,82.0,86.0
301,229.93155715208331,230.2934919125,84.0,76.0
302,230.24935352708331,230.50005955625,86.0,70.0
303,230.47004545416667,231.9127455125,87.0,86.0
304,233.37849193958334,236.24248575624998,63.0,74.0
305,233.37849193958334,236.24248575624998,68.0,75.0
306,236.04651132499998,236.79686387708333,80.0,76.0
307,236.88337511249998,238.45293609791665,79.0,76.0
308,238.57652357708332,239.48047771041666,75.0,82.0
309,239.4239805770833,240.17433312916665,72.0,75.0
310,240.27143757708333,241.81274999583331,73.0,75.0
311,241.96635157708332,243.5765198770833,68.0,60.0
312,241.96635157708332,243.62595486875,72.0,70.0
313,243.66126557708333,246.04826946041666,70.0,71.0
314,246.20363657708333,246.81627736666667,75.0,76.0
315,247.05109357708332,248.26578194375,68.0,67.0
316,247.05109357708332,248.40349370625,72.0,70.0
317,248.32227907708332,248.77778721458333,73.0,73.0
318,248.74600757708333,249.66408599374998,75.0,76.0
319,249.59346457708332,250.40737640416665,80.0,71.0
320,250.44092157708332,252.13053897083333,79.0,74.0
321,252.13583557708333,253.00271346666665,75.0,74.0
322,252.98329257708332,253.75130048333332,72.0,71.0
323,253.83074957708334,255.61747141875,73.0,70.0
324,256.37312057708334,257.06874153125,68.0,71.0
325,256.37312057708334,257.25412274999996,72.0,73.0
326,257.2205775770833,258.84310462499997,70.0,75.0
327,259.7629485770833,260.48858363333335,72.0,75.0
328,260.6104055770833,261.9504469583333,68.0,77.0
329,260.6104055770833,262.18702870416666,73.0,70.0
330,262.3053195770833,263.14924550625,75.0,77.0
331,263.97198501041663,266.87275969999996,68.0,65.0
332,263.98257822291663,266.90983594375,72.0,66.0
333,267.37593729375,268.27106375,73.0,69.0
334,267.37593729375,268.2816569625,70.0,65.0
335,268.24281518333333,269.0373061208333,72.0,70.0
336,269.0443682625,273.24987362499996,70.0,65.0
337,273.7989551395833,274.1856073958333,72.0,74.0
338,273.7989551395833,274.1909040020833,75.0,78.0
339,274.2685875604167,274.58285286458334,75.0,81.0
340,274.27035309583334,274.5952116125,72.0,75.0
341,274.71350248541665,275.0383610020833,72.0,73.0
342,274.70290927291666,275.2113834729167,75.0,82.0
343,275.18313490624996,275.6527673270833,72.0,80.0
344,275.58920805208334,275.6951401770833,76.0,78.0
345,275.65100179166666,276.0553094020833,77.0,74.0
346,276.0288263708333,276.49669325625,75.0,80.0
347,276.48080343749996,276.61321859375,70.0,73.0
348,276.4719757604166,276.82508284375,72.0,75.0
349,276.7685857104167,277.10050636874996,70.0,76.0
350,277.0934442270833,278.38758168749996,68.0,76.0
351,278.35227097916663,282.3282567375,72.0,49.0
