,start,end,pitch,velocity
0,30.8309705,31.1883646875,63.0,82.0
1,31.2535055,31.665477125,65.0,81.0
2,31.6760405,32.0545614375,68.0,76.0
3,32.0985755,32.540476687499996,70.0,70.0
4,32.5211105,33.7834338125,72.0,78.0
5,34.2112505,34.5756869375,73.0,77.0
6,34.6337855,35.0580810625,72.0,77.0
7,35.0563205,35.5070245,70.0,75.0
8,35.4788555,35.9172355625,68.0,76.0
9,35.9013905,37.2904743125,72.0,75.0
10,37.5915305,38.02110775,73.0,80.0
11,38.0140655,38.473572312499996,72.0,79.0
12,38.4366005,38.918994624999996,73.0,79.0
13,38.8591355,39.2130085625,75.0,84.0
14,39.2816705,39.5158253125,72.0,81.0
15,39.492938,39.71124775,70.0,77.0
16,39.7042055,40.0158250625,68.0,73.0
17,40.1267405,41.9277959375,68.0,74.0
18,42.2394155,42.366175999999996,65.0,82.0
19,42.450683,42.582725187499996,68.0,77.0
20,42.661950499999996,43.418992375,73.0,78.0
21,43.507020499999996,43.8129943125,73.0,77.0
22,43.931620325000004,44.243234925,72.0,71.0
23,44.356549325,45.741109650000006,70.0,76.0
24,46.056265325000005,46.415684437500005,63.0,82.0
25,46.481194325000004,46.8955001,65.0,81.0
26,46.906123325,47.2867888875,68.0,76.0
27,47.331052325,47.7754572375,70.0,70.0
28,47.755981325,49.0254567125,72.0,78.0
29,49.455697325,49.821669912500006,73.0,77.0
30,49.879768475000006,50.304064037500005,72.0,77.0
31,50.302303475,50.753007475000004,70.0,75.0
32,50.724838475000006,51.1632185375,68.0,76.0
33,51.147373475,52.536457287500006,72.0,75.0
34,52.837513475,53.267090725,73.0,80.0
35,53.260048475000005,53.7195552875,72.0,79.0
36,53.682583475,54.1649776,73.0,79.0
37,54.105118475000005,54.458991537500005,75.0,84.0
38,54.527653475,54.7618082875,72.0,81.0
39,54.738920975000006,54.957230725,70.0,77.0
40,54.950188475000004,55.2618080375,68.0,73.0
41,55.372723475,57.173778912500005,68.0,74.0
42,57.485398475000004,57.612158975,65.0,82.0
43,57.696665975,57.82870816250001,68.0,77.0
44,57.90793347500001,58.664975350000006,73.0,78.0
45,58.753003475,59.0575807875,73.0,77.0
46,59.175538475,59.485397475,72.0,71.0
47,59.59807347500001,60.974833350000004,70.0,76.0
48,62.133283475,62.4748326,70.0,77.0
49,62.555818475,62.881522537500004,68.0,76.0
50,62.978353475000006,64.12496188541667,70.0,76.0
51,64.24854936458334,64.3668402375,70.0,77.0
52,64.46041361458333,64.5787044875,72.0,76.0
53,64.67227786458334,65.05716458541667,73.0,79.0
54,65.09600636458333,65.47736201458333,72.0,79.0
55,65.51973486458333,65.90285605,70.0,76.0
56,65.94346336458334,66.37425400625,68.0,76.0
57,66.36719186458333,66.75914072708333,65.0,84.0
58,66.79092036458333,67.2164144,68.0,76.0
59,67.21464886458334,67.6931089625,70.0,76.0
60,67.63837736458333,68.09388550208334,68.0,75.0
61,68.06210586458333,68.53173828541667,70.0,76.0
62,68.48583436458333,68.69416754375,72.0,75.0
63,68.69769861458333,69.8435311,72.0,77.0
64,70.60447686458333,71.04586071874999,70.0,77.0
65,71.02820536458333,71.25595943333333,68.0,68.0
66,71.24006961458333,72.5659867125,70.0,76.0
67,72.72311936458334,72.86612773333333,70.0,75.0
68,72.93498361458333,73.05857109375,72.0,76.0
69,73.14684786458334,73.5617486875,73.0,79.0
70,73.57057636458333,73.98666146041667,72.0,74.0
71,73.99369379375001,74.43497271041667,70.0,77.0
72,74.41563379375,74.88504204375,68.0,77.0
73,74.83757379375001,75.26830421041667,65.0,82.0
74,75.25951379375,75.68672804375001,68.0,76.0
75,75.68145379375001,76.09284529375,70.0,77.0
76,76.10339379375,76.94375762708334,77.0,75.0
77,76.94727379375,77.84389629375,75.0,77.0
78,79.05697379375,79.37694496041667,75.0,77.0
79,79.34705754375001,79.65296404375,73.0,84.0
80,79.63889937708333,79.91316037708334,72.0,84.0
81,79.92195079375,82.01054132291668,75.0,91.0
82,82.44133196458334,82.76265941041667,75.0,77.0
83,82.73264530833335,83.03984847083335,73.0,84.0
84,83.0257241875,83.30114771250001,72.0,84.0
85,83.30997538958334,84.57762981875001,75.0,91.0
86,84.55997446458335,84.98017189375001,77.0,76.0
87,84.98370296458334,85.82762889375002,75.0,76.0
88,85.83115996458335,86.15248741041668,75.0,77.0
89,86.12247330833334,86.42967647083334,73.0,84.0
90,86.41555218750001,86.6909757125,72.0,84.0
91,86.67861696458334,87.10411100000002,73.0,79.0
92,87.10234546458335,87.34598935208334,75.0,82.0
93,87.31420971458334,88.21816384791667,77.0,78.0
94,88.37353096458334,88.71604483541668,75.0,86.0
95,88.79725946458335,88.97734407708334,73.0,81.0
96,89.00912371458334,89.47699060000001,72.0,82.0
97,89.65177860625,89.84069089583335,72.0,81.0
98,89.86893946250001,90.00841676041668,75.0,91.0
99,90.11081781458334,90.36152384375,72.0,84.0
100,90.38624133958334,90.56632595208335,70.0,78.0
101,90.66343040000001,90.80643876875001,70.0,81.0
102,90.90001214583334,91.21780852083334,70.0,77.0
103,91.31491296875001,91.47381115625001,75.0,82.0
104,91.55149471458334,91.75982789375001,77.0,81.0
105,91.76335896458335,92.04937570208334,75.0,77.0
106,92.18708746458334,92.60728489375,70.0,79.0
107,92.61081596458334,92.93214341041667,75.0,77.0
108,92.90212930833334,93.20933247083335,73.0,84.0
109,93.19520818750001,93.47063171250001,72.0,84.0
110,93.47945938958334,95.5680877875,75.0,91.0
111,96.00064396458335,96.32197141041668,75.0,77.0
112,96.29195730833334,96.59916047083334,73.0,84.0
113,96.58503618750001,96.86045971250002,72.0,84.0
114,96.86928738958335,98.13694181875002,75.0,91.0
115,98.11928646458334,98.53948389375,77.0,76.0
116,98.54301496458334,99.38694089375001,75.0,76.0
117,99.60233621458335,99.81066939375,73.0,77.0
118,99.81420046458334,100.02253364375001,73.0,84.0
119,100.02606471458334,100.25028771250001,72.0,84.0
120,100.23792896458335,100.66342300000001,73.0,79.0
121,100.66165746458334,100.90530135208334,75.0,82.0
122,100.87352171458335,101.77680947708335,77.0,78.0
123,101.93173897708334,102.27328810208334,75.0,86.0
124,102.35427397708334,102.53385135208335,73.0,81.0
125,102.56554147708334,103.03209053958334,72.0,82.0
126,103.20638622708334,103.39476641458334,72.0,81.0
127,103.42293541458334,103.56201985208334,75.0,91.0
128,103.66413247708334,103.91413235208334,72.0,84.0
129,103.93878022708334,104.11835760208334,70.0,78.0
130,104.21518853958334,104.35779410208335,70.0,81.0
131,104.45110391458334,105.29265278958334,70.0,77.0
132,106.54441272708334,106.66765210208334,70.0,81.0
133,106.74863797708335,106.85603228958334,72.0,77.0
134,106.97398997708335,107.32258135208335,73.0,79.0
135,107.39652497708335,107.82434166458334,72.0,80.0
136,107.84370785208334,108.20638372708335,70.0,77.0
137,108.23455272708334,108.67293278958334,68.0,75.0
138,108.69229897708334,108.99335516458335,67.0,80.0
139,109.10427060208335,109.45462253958334,65.0,81.0
140,109.53736897708335,109.80145335208334,63.0,69.0
141,109.95990397708334,110.37891785208335,70.0,79.0
142,110.35074885208334,111.99335366458334,68.0,82.0
143,139.11481897708336,139.47221316458334,63.0,82.0
144,139.53735397708334,139.94932560208335,65.0,81.0
145,139.95988897708335,140.33840991458334,68.0,76.0
146,140.38242397708333,140.82432516458334,70.0,70.0
147,140.80495897708334,142.06728228958335,72.0,78.0
148,142.49509897708333,142.85953541458335,73.0,77.0
149,142.91763397708334,143.34192953958333,72.0,77.0
150,143.34016897708335,143.79087297708332,70.0,75.0
151,143.76270397708333,144.20108403958335,68.0,76.0
152,144.18523897708334,145.57432278958333,72.0,75.0
153,145.87537897708336,146.30495622708335,73.0,80.0
154,146.29791397708334,146.75742078958334,72.0,79.0
155,146.72044897708335,147.20284310208334,73.0,79.0
156,147.14298397708333,147.49685703958335,75.0,84.0
157,147.56551897708334,147.79967378958335,72.0,81.0
158,147.77678647708333,147.99509622708334,70.0,77.0
159,147.98805397708333,148.29967353958335,68.0,73.0
160,148.41058897708334,150.21164441458333,68.0,74.0
161,150.52326397708333,150.65002447708335,65.0,82.0
162,150.73453147708335,150.86657366458334,68.0,77.0
163,150.94579897708334,151.70284085208334,73.0,78.0
164,151.79086897708333,152.09544628958335,73.0,77.0
165,152.21340397708335,152.52326297708333,72.0,71.0
166,152.63593897708336,154.01269885208333,70.0,76.0
167,154.32607897708334,154.68347316458335,63.0,82.0
168,154.74861397708335,155.16058560208336,65.0,81.0
169,155.17114897708333,155.54966991458335,68.0,76.0
170,155.59368397708334,156.03558516458332,70.0,70.0
171,156.01621897708333,157.27854228958336,72.0,78.0
172,157.70635897708334,158.07079541458336,73.0,77.0
173,158.12889397708335,158.55318953958334,72.0,77.0
174,158.55142897708333,159.00213297708333,70.0,75.0
175,158.97396397708334,159.41234403958333,68.0,76.0
176,159.39649897708335,160.78558278958334,72.0,75.0
177,161.08663897708334,161.51621622708333,73.0,80.0
178,161.50917397708335,161.96868078958335,72.0,79.0
179,161.93170897708333,162.41410310208335,73.0,79.0
180,162.35424397708334,162.70811703958333,75.0,84.0
181,162.77677897708332,163.01093378958333,72.0,81.0
182,162.98804647708334,163.20635622708335,70.0,77.0
183,163.19931397708334,163.51093353958333,68.0,73.0
184,163.62184897708335,165.42623626875,68.0,74.0
185,165.7387360375,165.8658545875,65.0,82.0
186,165.9506002875,166.08301544375,68.0,77.0
187,166.1624645375,166.92164476666667,73.0,78.0
188,167.0099215375,167.31535916458333,73.0,77.0
189,167.4336500375,167.74438427083334,72.0,71.0
190,167.8573785375,169.23802723333333,70.0,76.0
191,170.39974953749999,170.74226340833334,70.0,77.0
192,170.8234780375,171.15010208958333,68.0,76.0
193,171.2472065375,172.39480455833333,70.0,76.0
194,172.5183920375,172.63668291041665,70.0,77.0
195,172.7302562875,172.84854716041667,72.0,76.0
196,172.9421205375,173.32700725833334,73.0,79.0
197,173.3658490375,173.7472046875,72.0,79.0
198,173.7895775375,174.17269872291666,70.0,76.0
199,174.2133060375,174.64409667916667,68.0,76.0
200,174.6370345375,175.0289834,65.0,84.0
201,175.0607630375,175.48625707291666,68.0,76.0
202,175.4844915375,175.96295163541666,70.0,76.0
203,175.9082200375,176.363728175,68.0,75.0
204,176.3319485375,176.80158095833332,70.0,76.0
205,176.7556770375,176.96401021666668,72.0,75.0
206,176.9675412875,178.11337377291667,72.0,77.0
207,178.8743195375,179.31570339166666,70.0,77.0
208,179.2980480375,179.52580210625,68.0,68.0
209,179.5099122875,180.83582938541667,70.0,76.0
210,180.9929620375,181.13597040625,70.0,75.0
211,181.2048262875,181.32841376666667,72.0,76.0
212,181.4166905375,181.83159136041667,73.0,79.0
213,181.8404190375,182.25708539583334,72.0,74.0
214,182.2641475375,182.70729692708335,70.0,77.0
215,182.6878760375,183.15927399375,68.0,77.0
216,183.1116045375,183.54416071458334,65.0,82.0
217,183.5353330375,183.96435814375,68.0,76.0
218,183.9590615375,184.372196825,70.0,77.0
219,184.3827900375,185.22671596666666,77.0,75.0
220,185.2302470375,186.1306701,75.0,77.0
221,187.34888953749999,187.67021698333332,75.0,77.0
222,187.64020288125,187.94740604375,73.0,84.0
223,187.93328176041666,188.20870528541667,72.0,84.0
224,188.2175329625,190.30616136041667,75.0,91.0
225,190.7387175375,191.06004498333334,75.0,77.0
226,191.03003088125,191.33723404375,73.0,84.0
227,191.32310976041666,191.59853328541666,72.0,84.0
228,191.6073609625,192.87501539166666,75.0,91.0
229,192.8573600375,193.27755746666668,77.0,76.0
230,193.2810885375,194.12501446666667,75.0,76.0
231,194.1285455375,194.44987298333334,75.0,77.0
232,194.41985888125,194.72706204375,73.0,84.0
233,194.71293776041665,194.98836128541666,72.0,84.0
234,194.9760025375,195.40149657291667,73.0,79.0
235,195.3997310375,195.643374925,75.0,82.0
236,195.6115952875,196.51554942083334,77.0,78.0
237,196.6709165375,197.01343040833333,75.0,86.0
238,197.09464503750002,197.27472964999998,73.0,81.0
239,197.3065092875,197.77437617291667,72.0,82.0
240,197.94916417916667,198.13807646875,72.0,81.0
241,198.16632503541666,198.3055638666667,75.0,91.0
242,198.40753270000002,198.65718053333333,72.0,84.0
243,198.68179370000001,198.86111820000002,70.0,78.0
244,198.95781278333334,199.10021753333334,70.0,81.0
245,199.19339595,199.50985095000001,70.0,77.0
246,199.60654553333333,199.76477303333334,75.0,82.0
247,199.84212870000002,200.04958253333334,77.0,81.0
248,200.05309870000002,200.33790820000002,75.0,77.0
249,200.4750387,200.89346253333335,70.0,79.0
250,200.8969787,201.21694986666668,75.0,77.0
251,201.18706245,201.49296895,73.0,84.0
252,201.47890428333335,201.75316528333335,72.0,84.0
253,201.76195570000002,203.84176828333335,75.0,91.0
254,204.2724987,204.59246986666668,75.0,77.0
255,204.56258245,204.86848895,73.0,84.0
256,204.85442428333334,205.12868528333334,72.0,84.0
257,205.1374757,206.39977953333334,75.0,91.0
258,206.3821987,206.80062253333335,77.0,76.0
259,206.8041387,207.64450253333334,75.0,76.0
260,207.8589887,208.06644253333334,73.0,77.0
261,208.0699587,208.27741253333335,73.0,84.0
262,208.2809287,208.50420528333333,72.0,84.0
263,208.4918987,208.91559678333334,73.0,79.0
264,208.9138387,209.1564542,75.0,82.0
265,209.12480870000002,210.02494736666668,77.0,78.0
266,210.1796587,210.52072686666668,75.0,86.0
267,210.6015987,210.78092320000002,73.0,81.0
268,210.8125687,211.27846078333334,72.0,82.0
269,211.45251103333334,211.64062595000001,72.0,81.0
270,211.66875528333335,211.80764386666667,75.0,91.0
271,211.9096722,212.159672075,72.0,84.0
272,212.18431995,212.363897325,70.0,78.0
273,212.4607282625,212.603333825,70.0,81.0
274,212.6966436375,213.5381925125,70.0,77.0
275,214.79032541875,214.91391289791667,70.0,81.0
276,214.99512752708333,215.1028251875,72.0,77.0
277,215.22111606041668,215.57069207291667,73.0,79.0
278,215.64484456041666,216.07386966666667,72.0,80.0
279,216.09329055625,216.45699085208332,70.0,77.0
280,216.48523941874998,216.9248577375,68.0,75.0
281,216.94427862708332,217.24618518333332,67.0,80.0
282,217.35741391458333,217.7087554625,65.0,81.0
283,217.79173562708334,218.05656593958332,63.0,69.0
284,218.21546412708332,218.63566155625,70.0,79.0
285,218.60741298958334,220.25465753333333,68.0,82.0
286,231.38282726458334,231.96835046041667,75.0,89.0
287,232.16852827291666,232.55553871041667,75.0,82.0
288,232.60224686666666,233.36292255416666,80.0,77.0
289,233.40518231458333,235.60159639999998,75.0,91.0
290,236.03415257708332,236.35548002291665,75.0,77.0
291,236.32546592083332,236.63266908333333,73.0,84.0
292,236.6185448,236.893968325,72.0,84.0
293,236.90279600208333,238.17045043125,75.0,91.0
294,238.1527950770833,238.57299250625,77.0,76.0
295,238.57652357708332,239.42044950624998,75.0,76.0
296,239.4239805770833,239.74530802291665,75.0,77.0
297,239.71529392083332,240.02249708333332,73.0,84.0
298,240.0083728,240.283796325,72.0,84.0
299,240.27143757708333,240.69693161249998,73.0,79.0
300,240.69516607708331,240.93880996458333,75.0,82.0
301,240.90703032708333,241.81098446041665,77.0,78.0
302,241.96635157708332,242.30886544791665,75.0,86.0
303,242.39008007708333,242.57016468958332,73.0,81.0
304,242.60194432708332,243.06981121249999,72.0,82.0
305,243.24459921874998,243.4335115083333,72.0,81.0
306,243.461760075,243.60123737291667,75.0,91.0
307,243.70363842708332,243.95434445625,72.0,84.0
308,243.97906195208333,244.15914656458332,70.0,78.0
309,244.2562510125,244.39925938124998,70.0,81.0
310,244.49283275833332,244.81062913333332,70.0,77.0
311,244.90773358125,245.06663176875,75.0,82.0
312,245.14431532708332,245.35264850624998,77.0,81.0
313,245.3561795770833,245.64219631458332,75.0,77.0
314,245.77990807708332,246.20010550625,70.0,79.0
315,246.20363657708333,246.52496402291666,75.0,77.0
316,246.49494992083333,246.80215308333334,73.0,84.0
317,246.78802879999998,247.063452325,72.0,84.0
318,247.07228000208332,249.16090839999998,75.0,91.0
319,249.59346457708332,249.91479202291666,75.0,77.0
320,249.88477792083333,250.19198108333333,73.0,84.0
321,250.1778568,250.45328032499998,72.0,84.0
322,250.4621080020833,251.72976243124998,75.0,91.0
323,251.71210707708332,252.13230450625,77.0,76.0
324,252.13583557708333,252.97976150625,75.0,76.0
325,253.19515682708334,253.40349000625,73.0,77.0
326,253.40702107708333,253.61535425625,73.0,84.0
327,253.61888532708332,253.843108325,72.0,84.0
328,253.83074957708334,254.2562436125,73.0,79.0
329,254.25447807708332,254.49812196458333,75.0,82.0
330,254.4663423270833,255.37029646041665,77.0,78.0
331,255.52566357708332,255.86817744791665,75.0,86.0
332,255.94939207708333,256.1294766895833,73.0,81.0
333,256.1612563270833,256.62912321249996,72.0,82.0
334,256.80391121875,256.99282350833334,72.0,81.0
335,257.021072075,257.16054937291665,75.0,91.0
336,257.2629504270833,257.51365645625,72.0,84.0
337,257.5383739520833,257.71845856458333,70.0,78.0
338,257.8155630125,257.95857138125,70.0,81.0
339,258.0521447583333,258.8960706875,70.0,77.0
340,260.15136636875,260.27495384791666,70.0,81.0
341,260.3561684770833,260.46386613749996,72.0,77.0
342,260.58215701041667,260.93173302291666,73.0,79.0
343,261.00588551041665,261.4349106166667,72.0,80.0
344,261.45433150625,261.81803180208334,70.0,77.0
345,261.84628036875,262.2858986875,68.0,75.0
346,262.3053195770833,262.6072261333333,67.0,80.0
347,262.71845486458335,263.0697964125,65.0,81.0
348,263.15277657708333,263.41760688958334,63.0,69.0
349,263.5765050770833,263.99670250625,70.0,79.0
350,263.9684539395833,265.61569848333335,68.0,82.0
351,266.93102236875,267.05460984791665,70.0,81.0
352,267.1358244770833,267.2435221375,72.0,77.0
353,267.36181301041665,267.71138902291665,73.0,79.0
354,267.78554151041664,268.2145666166667,72.0,80.0
355,268.23398750625,268.5976878020833,70.0,77.0
356,268.62593636875,269.06555468749997,68.0,75.0
357,269.06732022291663,269.6570090520833,67.0,76.0
358,269.6252294145833,270.18666967708333,65.0,81.0
359,270.1884352125,270.84168331666666,63.0,76.0
360,270.8028415375,272.6442949770833,70.0,76.0
361,273.51117286666664,275.33143988125,68.0,64.0
