,start,end,pitch,velocity
0,2.0985905,2.57042125,63.0,71.0
1,2.0985905,2.672533875,56.0,70.0
2,2.5211255,3.0985899999999997,51.0,67.0
3,2.9436605,3.5616179375,56.0,77.0
4,2.9436605,3.5933080625,60.0,80.0
5,3.3661955,3.855631875,51.0,64.0
6,2.0985905,3.9102093125,44.0,76.0
7,3.7887305,4.3010541875,56.0,70.0
8,3.7887305,4.309857,60.0,70.0
9,4.2112655,4.8961243125,44.0,62.0
10,4.6338004999999995,4.8961243125,56.0,76.0
11,4.6338004999999995,4.947180625,60.0,80.0
12,4.6338004999999995,4.9806313125,63.0,76.0
13,5.0563355,5.211265,44.0,75.0
14,5.4788705,5.5545746875,60.0,62.0
15,5.4788705,5.5915465,58.0,61.0
16,5.4788705,6.2112644999999995,63.0,70.0
17,5.9014055,6.4137291874999995,55.0,61.0
18,6.3239405,6.6602079375,58.0,72.0
19,6.3239405,6.8274613749999995,67.0,71.0
20,6.3239405,6.862672625,63.0,76.0
21,5.4788705,6.9999965,48.0,76.0
22,6.7464755,7.257038625,55.0,54.0
23,7.1690105,7.7024609375,60.0,70.0
24,7.1690105,7.718306,63.0,70.0
25,7.5915455,8.1179536875,55.0,59.0
26,8.0140805,8.16196775,60.0,76.0
27,7.1690105,8.315136687499999,48.0,70.0
28,8.0140805,8.369714125,67.0,76.0
29,8.0140805,8.3749958125,63.0,77.0
30,8.4366155,8.538728125,60.0,77.0
31,8.8591505,9.0897841875,56.0,70.0
32,8.8591505,9.3538685625,61.0,68.0
33,9.2816855,9.7482345625,56.0,68.0
34,9.7042205,9.848586625,61.0,75.0
35,9.7042205,9.848586625,65.0,80.0
36,8.8591505,10.088023125,49.0,75.0
37,10.1267555,10.6179524375,56.0,73.0
38,10.5492905,11.073938125,61.0,74.0
39,10.9718255,11.4735858125,56.0,74.0
40,11.3943605,11.5756984375,61.0,79.0
41,11.3943605,11.778163124999999,65.0,80.0
42,10.5492905,11.9348531875,49.0,71.0
43,11.8168955,11.96478275,61.0,76.0
44,12.2394305,12.79576825,58.0,76.0
45,12.2394305,12.806331625,54.0,70.0
46,12.661965499999999,13.2253455,49.0,61.0
47,13.084500499999999,13.510556625,54.0,75.0
48,13.084500499999999,13.7799226875,61.0,77.0
49,13.5070355,13.799288875,49.0,66.0
50,12.2394305,13.806331125,42.0,75.0
51,13.718303,14.028162,54.0,75.0
52,13.9295705,14.3925984375,58.0,74.0
53,13.9295705,14.5299223125,63.0,75.0
54,14.563373,14.728865875,58.0,75.0
55,14.7746405,15.0334431875,67.0,84.0
56,14.3521055,15.102105125,46.0,67.0
57,13.9295705,15.1355558125,39.0,80.0
58,14.985908,15.2130205625,63.0,71.0
59,15.1971755,15.380274,58.0,77.0
60,15.6197105,16.1566820625,60.0,70.0
61,15.6197105,16.1602031875,56.0,72.0
62,16.0422455,16.616188875,51.0,67.0
63,16.4647805,16.873231,56.0,77.0
64,15.6197105,17.1126675,44.0,76.0
65,16.8873155,17.1531604375,51.0,68.0
66,17.098583,17.566892625,56.0,76.0
67,16.4647805,17.8045685625,63.0,76.0
68,17.7323855,17.99294875,56.0,77.0
69,17.943653,18.052807875,60.0,76.0
70,17.521118,18.2482303125,51.0,67.0
71,17.3098505,18.4876668125,44.0,75.0
72,18.1549205,18.489427374999998,56.0,77.0
73,18.1549205,18.4947090625,60.0,79.0
74,18.1549205,18.559849875,63.0,76.0
75,18.5774555,18.7587934375,44.0,74.0
76,18.9999905,19.57041275,63.0,75.0
77,18.9999905,19.5756944375,60.0,71.0
78,19.4225255,19.996468875,55.0,68.0
79,19.8450605,20.320412375,60.0,76.0
80,18.9999905,20.507032,48.0,76.0
81,19.8450605,20.54224325,63.0,75.0
82,20.2675955,20.595060125,55.0,59.0
83,19.8450605,20.6707643125,67.0,72.0
84,20.6901305,21.3503414375,63.0,75.0
85,21.1126655,21.749989125,55.0,68.0
86,20.478863,21.8609045625,60.0,74.0
87,21.5352005,21.8714679375,63.0,78.0
88,21.5352005,21.878510187499998,67.0,77.0
89,20.6901305,21.8996369375,48.0,79.0
90,22.380270499999998,22.5932985625,56.0,64.0
91,22.380270499999998,22.848580124999998,65.0,76.0
92,22.380270499999998,22.883791375,61.0,68.0
93,22.802805499999998,23.0299180625,56.0,71.0
94,23.225340499999998,23.419002374999998,56.0,77.0
95,22.380270499999998,23.8327345625,49.0,75.0
96,23.225340499999998,23.920762687499998,65.0,77.0
97,23.6478755,24.221818875,56.0,71.0
98,24.0704105,24.5580863125,61.0,71.0
99,24.4929455,24.6813256875,56.0,65.0
100,24.0704105,25.0475226875,49.0,76.0
101,24.9154805,25.144353625,61.0,80.0
102,24.9154805,25.1496353125,56.0,78.0
103,24.9154805,25.151395875,65.0,82.0
104,25.126748,25.40139575,49.0,77.0
105,25.3380155,25.586254812499998,56.0,81.0
106,25.549283,26.0017475625,61.0,73.0
107,26.1830855,26.4929445,54.0,77.0
108,26.394353,26.6425923125,58.0,76.0
109,25.971818,26.75350775,49.0,76.0
110,26.6056205,27.11970475,61.0,84.0
111,26.816888,27.23238075,49.0,75.0
112,25.7605505,27.242944125,42.0,74.0
113,27.0281555,27.489422875,54.0,75.0
114,27.239423,27.8679438125,58.0,75.0
115,27.661958,28.2306196875,49.0,62.0
116,28.084493,28.40139425,58.0,82.0
117,27.8732255,28.4101970625,54.0,74.0
118,28.2957605,28.559844875,49.0,70.0
119,28.507028,28.667239187499998,58.0,82.0
120,28.507028,28.66899975,54.0,77.0
121,27.4506905,28.704211,42.0,75.0
122,28.507028,28.704211,61.0,81.0
123,29.1408305,29.9242808125,63.0,72.0
124,29.1408305,29.9524498125,58.0,72.0
125,29.9859005,30.1549145,63.0,71.0
126,29.9859005,30.2376609375,67.0,71.0
127,30.8309705,31.6778010625,63.0,64.0
128,30.8309705,31.7235756875,58.0,63.0
129,29.5633655,31.7799136875,46.0,56.0
130,29.1408305,31.862660124999998,39.0,79.0
131,33.3661805,33.630264875,63.0,71.0
132,32.9436455,34.140828,51.0,47.0
133,33.7887155,34.6918840625,56.0,62.0
134,33.7887155,34.7182925,68.0,82.0
135,33.7887155,35.0580810625,63.0,71.0
136,32.5211105,35.21829225,44.0,100.0
137,35.0563205,35.2517429375,56.0,64.0
138,34.6337855,35.376742875,51.0,20.0
139,35.9013905,36.40139025,60.0,76.0
140,35.9013905,36.4366015,63.0,82.0
141,36.7464605,36.876742125,60.0,102.0
142,36.3239255,37.3644179375,55.0,48.0
143,37.1689955,37.830967,60.0,82.0
144,37.1689955,38.0193471875,67.0,79.0
145,38.0140655,38.496459625,63.0,50.0
146,37.5915305,38.552797625,55.0,27.0
147,35.9013905,38.676037,48.0,82.0
148,38.4366005,38.9137129375,60.0,100.0
149,38.8591355,39.267586,63.0,64.0
150,39.2816705,39.69716325,65.0,82.0
151,39.7042055,40.26054325,56.0,66.0
152,40.1267405,40.3256840625,61.0,47.0
153,40.5492755,40.8608950625,56.0,52.0
154,40.5492755,41.271106125,61.0,78.0
155,40.5492755,41.8538523125,68.0,64.0
156,41.3943455,41.874979062499996,56.0,29.0
157,42.2394155,42.44364075,56.0,52.0
158,39.2816705,42.5052604375,49.0,80.0
159,41.816880499999996,42.788711,65.0,89.0
160,42.661950499999996,43.489414875,61.0,80.0
161,43.507020499999996,44.0396231125,58.0,94.0
162,43.0844855,44.1458553625,53.0,80.0
163,42.661950499999996,44.229070625000006,46.0,84.0
164,43.931620325000004,44.356549325,61.0,87.0
165,44.356549325,44.7513791875,63.0,64.0
166,44.781478325,45.25952345,58.0,89.0
167,44.356549325,45.7340275,51.0,78.0
168,45.206407325,45.84025975,67.0,96.0
169,45.631336325,46.1731208,58.0,94.0
170,46.056265325000005,46.637001625,63.0,82.0
171,46.906123325,47.132752125,63.0,73.0
172,46.056265325000005,47.136293200000004,51.0,76.0
173,46.906123325,47.184097712500005,67.0,42.0
174,46.481194325000004,47.196491475,58.0,58.0
175,47.755981325,48.377439987500004,63.0,76.0
176,48.180910325,49.31051325,51.0,69.0
177,49.243232825,49.31051325,51.0,48.0
178,48.605839325000005,49.932585350000004,63.0,73.0
179,49.030768325000004,49.941388162500004,68.0,97.0
180,49.879768475000006,50.48188085,56.0,48.0
181,47.755981325,50.7723736625,44.0,92.0
182,50.724838475000006,50.807584912500005,56.0,52.0
183,50.302303475,50.807584912500005,63.0,73.0
184,51.147373475,51.69138728750001,60.0,52.0
185,51.147373475,51.9308237875,63.0,67.0
186,51.992443475,52.5593446,60.0,97.0
187,51.569908475000005,52.60864035,55.0,74.0
188,52.414978475000005,53.31286535,67.0,87.0
189,52.837513475,53.543499037500005,55.0,34.0
190,53.682583475,53.885048162500006,55.0,46.0
191,51.147373475,53.978357975,48.0,73.0
192,53.260048475000005,54.1280057875,63.0,64.0
193,54.105118475000005,54.4906816625,60.0,87.0
194,54.527653475,54.971315225000005,61.0,78.0
195,54.950188475000004,55.4889206,56.0,64.0
196,55.372723475,55.5434980375,61.0,60.0
197,55.795258475000004,56.686103100000004,56.0,78.0
198,55.795258475000004,56.712511537500006,65.0,82.0
199,56.640328475000004,57.106877537500004,61.0,67.0
200,54.527653475,57.4413844125,49.0,82.0
201,57.062863475,57.490680162500006,56.0,80.0
202,57.485398475000004,57.65089135,61.0,69.0
203,57.90793347500001,58.767087975,58.0,71.0
204,57.90793347500001,58.805820350000005,54.0,58.0
205,58.753003475,59.2494821,61.0,82.0
206,57.90793347500001,59.260045475000005,42.0,89.0
207,58.330468475,59.3533552875,49.0,55.0
208,59.175538475,59.4484256625,58.0,84.0
209,59.59807347500001,59.865678975,58.0,55.0
210,59.59807347500001,60.050538037500004,63.0,73.0
211,60.020608475,60.554058912500004,58.0,73.0
212,59.59807347500001,61.004762912500006,51.0,66.0
213,60.443143475,61.25124166250001,67.0,99.0
214,60.865678475,61.40969228750001,58.0,66.0
215,61.288213475000006,61.7934949125,63.0,60.0
216,61.710748475,62.207227100000004,58.0,55.0
217,61.288213475000006,62.3146214125,51.0,73.0
218,62.133283475,62.344550975000004,63.0,69.0
219,62.133283475,62.4184946,67.0,77.0
220,62.978353475000006,63.718888739583335,58.0,66.0
221,62.978353475000006,63.82482086458333,61.0,78.0
222,63.401092364583334,64.49925539375,53.0,67.0
223,63.82482086458333,64.69346428958333,58.0,80.0
224,64.24854936458334,65.161331175,65.0,67.0
225,65.09600636458333,65.35377453541666,58.0,89.0
226,64.67227786458334,65.68392965833333,53.0,50.0
227,62.978353475000006,65.73689572083333,46.0,80.0
228,65.51973486458333,65.94169782916667,61.0,76.0
229,65.51973486458333,65.98407067916666,65.0,76.0
230,65.94346336458334,66.19416939375,58.0,73.0
231,66.36719186458333,66.54727647708333,56.0,80.0
232,66.36719186458333,66.81916893125,61.0,71.0
233,66.79092036458333,67.63837736458333,56.0,57.0
234,67.21464886458334,67.82905518958333,61.0,71.0
235,67.63837736458333,68.0638714,65.0,73.0
236,66.36719186458333,68.06563693541666,49.0,76.0
237,68.06210586458333,68.73300932291667,63.0,73.0
238,68.90956286458334,69.08964747708333,56.0,80.0
239,68.90956286458334,69.37213314375,60.0,97.0
240,69.33329136458333,69.64932220416667,56.0,66.0
241,69.75701986458333,69.91415251666666,56.0,73.0
242,69.75701986458333,70.26902513541667,60.0,71.0
243,70.18074836458334,70.585055975,56.0,55.0
244,70.60447686458333,71.08646803333333,60.0,89.0
245,68.06210586458333,71.18357248125,44.0,82.0
246,71.02820536458333,71.18710355208333,56.0,84.0
247,68.48583436458333,71.347767275,51.0,69.0
248,70.60447686458333,71.40602994375,63.0,89.0
249,71.45193386458334,71.93569056875,58.0,71.0
250,71.45193386458334,72.19169320416667,61.0,78.0
251,72.29939086458333,72.76019560833333,58.0,108.0
252,72.72311936458334,73.58116957708333,61.0,76.0
253,72.72311936458334,73.61118367916667,65.0,92.0
254,73.57057636458333,73.96380637708334,58.0,89.0
255,73.99369379375001,74.45079546041667,61.0,71.0
256,73.99369379375001,74.47716671041667,65.0,84.0
257,74.41563379375,74.64770079375,58.0,92.0
258,71.87566236458333,74.67583012708334,53.0,64.0
259,71.45193386458334,74.72681454375001,46.0,78.0
260,74.83757379375001,75.02920487708334,56.0,89.0
261,74.83757379375001,75.34917604375,61.0,84.0
262,75.25951379375,75.75177712708334,56.0,73.0
263,76.10339379375,76.45676854375,56.0,71.0
264,75.68145379375001,76.45676854375,65.0,89.0
265,75.68145379375001,76.46028471041667,61.0,89.0
266,74.83757379375001,76.47259129375,49.0,84.0
267,76.52533379375001,76.83651454375,58.0,70.0
268,76.52533379375001,76.88222471041666,63.0,71.0
269,76.94727379375,77.41316587708334,46.0,63.0
270,77.36921379375,77.55205446041667,58.0,79.0
271,77.36921379375,77.58545804375001,63.0,81.0
272,77.36921379375,77.60479696041668,67.0,80.0
273,77.58018379375001,77.82279929375001,46.0,75.0
274,76.52533379375001,77.86499329375,39.0,80.0
275,77.79115379375,77.88960646041667,58.0,77.0
276,78.00212379375,78.13046387708334,63.0,77.0
277,78.00212379375,78.13925429375,58.0,75.0
278,78.21309379375,78.53658112708334,39.0,84.0
279,78.21309379375,78.56998471041668,58.0,77.0
280,78.21309379375,78.57701704375,63.0,79.0
281,79.02532829375001,79.27849229375,39.0,80.0
282,79.02708637708334,79.31717012708334,51.0,78.0
283,79.29783121041667,79.56330179375,41.0,77.0
284,79.30486354375,79.59670537708334,53.0,89.0
285,79.58264071041667,79.83580471041667,43.0,89.0
286,79.59318921041667,79.84986937708334,55.0,77.0
287,79.90085379375,80.34564887708333,63.0,74.0
288,79.90085379375,80.41096623541668,56.0,76.0
289,80.32279379375001,80.81880491666668,51.0,66.0
290,80.74641796458334,81.171912,56.0,79.0
291,80.74641796458334,81.2566577,60.0,82.0
292,80.74641796458334,81.30609269166668,63.0,78.0
293,79.90085379375,81.40143160416667,44.0,78.0
294,81.17014646458334,81.46322534375001,51.0,66.0
295,81.38201071458334,81.51442587083335,56.0,79.0
296,81.59387496458335,82.12353558958334,56.0,76.0
297,81.59387496458335,82.13059773125,60.0,78.0
298,82.01760346458335,82.49782909791668,51.0,66.0
299,82.44133196458334,82.67614817500001,56.0,79.0
300,82.44133196458334,82.73617637916668,60.0,89.0
301,82.44133196458334,82.74323852083334,63.0,79.0
302,81.59387496458335,82.74853512708334,44.0,77.0
303,82.65319621458335,82.78737690625002,51.0,77.0
304,82.86506046458334,83.11929756458335,56.0,86.0
305,83.07692471458334,83.20404326458335,60.0,79.0
306,83.28878896458335,83.6613169375,63.0,70.0
307,83.28878896458335,83.70722085833334,60.0,75.0
308,83.71251746458334,84.27395772708334,55.0,65.0
309,84.13624596458334,84.51407054375001,60.0,76.0
310,84.13624596458334,84.57233321250001,63.0,78.0
311,84.13624596458334,84.6147060625,67.0,77.0
312,83.28878896458335,84.79302513958335,48.0,76.0
313,84.77183871458334,84.91131601250001,60.0,78.0
314,84.55997446458335,84.91661261875001,55.0,63.0
315,84.98370296458334,85.46922520416668,60.0,77.0
316,84.98370296458334,85.48688055833334,63.0,76.0
317,85.40743146458334,85.91767120000002,55.0,62.0
318,84.98370296458334,86.04655528541667,48.0,76.0
319,85.83115996458335,86.1401286625,63.0,80.0
320,85.83115996458335,86.14189419791667,60.0,78.0
321,85.83115996458335,86.14895633958335,67.0,78.0
322,86.25488846458335,86.38200701458334,48.0,77.0
323,86.67861696458334,86.91166763958334,56.0,76.0
324,86.67861696458334,87.02642744166667,65.0,76.0
325,87.10234546458335,87.58963323958335,56.0,75.0
326,87.52607396458335,87.75206249791668,61.0,77.0
327,86.67861696458334,87.77148338750001,49.0,80.0
328,87.52607396458335,87.77854552916668,65.0,84.0
329,87.52607396458335,87.83680819791668,68.0,77.0
330,87.73793821458334,87.84916694583335,56.0,76.0
331,87.94980246458334,88.22522598958335,61.0,81.0
332,88.16166671458335,88.24288134375001,65.0,76.0
333,88.37353096458334,88.75665215000001,60.0,73.0
334,88.37353096458334,88.78490071666667,63.0,71.0
335,88.79725946458335,89.27571956250002,51.0,65.0
336,89.22098796458334,89.46992845833334,56.0,76.0
337,88.37353096458334,89.47875613541667,44.0,76.0
338,89.22098796458334,89.52289452083335,60.0,82.0
339,89.22098796458334,89.55114308750001,63.0,78.0
340,89.43285221458335,89.58468826041667,51.0,73.0
341,89.64471646458334,89.77713162083334,44.0,75.0
342,90.06844496458335,90.36505491458334,58.0,71.0
343,90.06844496458335,90.54513952708334,63.0,75.0
344,90.49217346458335,91.05184819166668,46.0,64.0
345,90.91590196458334,91.26900904791668,58.0,79.0
346,90.91590196458334,91.320209575,63.0,80.0
347,90.91590196458334,91.33256832291667,67.0,86.0
348,90.06844496458335,91.39436206250001,39.0,78.0
349,91.33963046458334,91.55502578541667,46.0,69.0
350,91.55149471458334,91.659192375,58.0,81.0
351,91.76335896458335,92.19061853541668,58.0,80.0
352,91.76335896458335,92.25947441666668,63.0,80.0
353,92.39895171458335,92.49075955625001,58.0,77.0
354,92.18708746458334,92.73616897916668,46.0,76.0
355,91.76335896458335,92.84916324583334,39.0,86.0
356,92.61081596458334,93.07162070833334,63.0,86.0
357,92.61081596458334,93.07515177916667,67.0,82.0
358,92.61081596458334,93.10163481041667,58.0,82.0
359,93.03454446458335,93.14577319583334,39.0,80.0
360,93.45827296458334,93.89789128333334,60.0,69.0
361,93.45827296458334,93.91378110208335,63.0,75.0
362,93.45827296458334,93.91731217291668,56.0,71.0
363,93.88200146458334,94.38517905833334,51.0,63.0
364,93.45827296458334,94.62529187500002,44.0,76.0
365,94.30572996458335,94.66943026041668,60.0,80.0
366,94.30572996458335,94.67472686666667,56.0,78.0
367,94.30572996458335,94.6782579375,63.0,80.0
368,94.72945846458335,94.90071540000001,51.0,74.0
369,95.15318696458334,95.48687315833334,68.0,75.0
370,95.15318696458334,95.557494575,60.0,81.0
371,94.94132271458335,95.5680877875,56.0,81.0
372,95.15318696458334,95.5680877875,63.0,78.0
373,95.57691546458335,96.07303091666668,51.0,70.0
374,96.00064396458335,96.19661839583334,56.0,77.0
375,96.00064396458335,96.21074267916667,60.0,86.0
376,96.00064396458335,96.23899124583335,63.0,79.0
377,95.15318696458334,96.30078498541667,44.0,76.0
378,96.21250821458334,96.34492337083334,51.0,75.0
379,96.42437246458334,96.65742313958334,44.0,76.0
380,96.84810096458334,97.28948481875001,60.0,76.0
381,96.84810096458334,97.31596785,63.0,75.0
382,97.27182946458335,97.84033186875001,55.0,67.0
383,97.69555796458334,98.13164521250002,60.0,77.0
384,97.69555796458334,98.17401806250001,63.0,78.0
385,97.69555796458334,98.226984125,67.0,79.0
386,96.84810096458334,98.33644732083334,48.0,79.0
387,98.33115071458334,98.44767605208334,60.0,75.0
388,98.11928646458334,98.46886247708335,55.0,65.0
389,98.54301496458334,98.99852310208334,60.0,80.0
390,98.54301496458334,99.02677166875,63.0,76.0
391,99.17860771458334,99.28100876875001,60.0,77.0
392,98.96674346458335,99.48227980625,55.0,63.0
393,98.54301496458334,99.66942656041668,48.0,76.0
394,99.39047196458334,99.71886155208334,67.0,79.0
395,99.39047196458334,99.75240672500001,63.0,81.0
396,99.39047196458334,99.794779575,60.0,80.0
397,99.81420046458334,99.97309865208334,48.0,81.0
398,100.23792896458335,100.54160105625002,56.0,70.0
399,100.23792896458335,100.64223657500001,61.0,71.0
400,100.66165746458334,101.2460496875,44.0,55.0
401,101.08538596458334,101.29725021458334,56.0,77.0
402,100.23792896458335,101.42436876458333,37.0,74.0
403,101.08538596458334,101.58490816458334,61.0,82.0
404,101.08538596458334,101.58666872708335,65.0,80.0
405,101.50911446458335,101.66237291458334,56.0,86.0
406,101.93173897708334,102.40533028958335,60.0,71.0
407,101.93173897708334,102.43702041458334,56.0,75.0
408,102.35427397708334,102.90885116458334,51.0,69.0
409,101.93173897708334,102.95814691458334,44.0,77.0
410,102.77680897708335,103.04969616458334,56.0,79.0
411,102.77680897708335,103.07258347708334,60.0,82.0
412,102.77680897708335,103.12892147708334,63.0,77.0
413,103.19934397708334,103.46518891458334,44.0,76.0
414,103.62187897708334,104.17293503958334,58.0,75.0
415,103.62187897708334,104.23631528958335,61.0,77.0
416,104.04441397708334,104.56906160208334,53.0,59.0
417,104.46694897708335,105.03032897708334,58.0,77.0
418,104.46694897708335,105.09370922708334,61.0,80.0
419,103.62187897708334,105.14476553958335,46.0,77.0
420,104.88948397708334,105.31201897708334,53.0,64.0
421,105.31201897708334,105.52504703958334,58.0,69.0
422,105.31201897708334,105.73983566458334,46.0,65.0
423,105.31201897708334,105.78384972708334,61.0,71.0
424,105.73455397708334,106.03384960208334,58.0,78.0
425,106.15708897708335,106.54265216458334,39.0,81.0
426,106.15708897708335,106.56201835208334,58.0,76.0
427,106.15708897708335,106.64124366458334,63.0,76.0
428,107.00215897708334,107.23631378958335,56.0,72.0
429,107.00215897708334,107.49687703958334,65.0,75.0
430,107.00215897708334,107.53032772708335,61.0,70.0
431,107.42469397708334,107.70462341458334,56.0,63.0
432,107.00215897708334,108.00391903958334,49.0,78.0
433,108.26976397708334,108.52152441458334,56.0,76.0
434,107.84722897708335,108.59898916458334,65.0,78.0
435,107.84722897708335,108.63420041458335,61.0,76.0
436,108.69229897708334,108.97927066458334,58.0,68.0
437,108.69229897708334,109.02328472708334,63.0,68.0
438,109.11483397708334,109.61131260208334,46.0,67.0
439,108.69229897708334,109.64476328958334,39.0,77.0
440,109.53736897708335,109.92469272708334,67.0,79.0
441,109.53736897708335,109.95286172708335,63.0,77.0
442,109.95990397708334,110.13419966458335,58.0,79.0
443,110.38243897708334,110.78208666458335,60.0,63.0
444,110.38243897708334,110.79793172708334,63.0,70.0
445,110.38243897708334,110.82962185208333,56.0,67.0
446,110.80497397708334,111.38595960208335,51.0,60.0
447,111.22750897708335,111.64124116458333,63.0,70.0
448,111.22750897708335,111.75215660208335,60.0,69.0
449,111.65004397708334,112.11659303958334,51.0,60.0
450,112.07257897708334,112.32081828958334,56.0,65.0
451,112.07257897708334,112.53032522708334,63.0,71.0
452,112.07257897708334,112.57609985208335,60.0,72.0
453,112.49511397708335,112.99335316458334,51.0,63.0
454,112.91764897708335,113.12539535208334,56.0,77.0
455,112.91764897708335,113.19757841458335,60.0,82.0
456,112.91764897708335,113.19933897708334,63.0,77.0
457,110.38243897708334,113.20109953958334,44.0,75.0
458,113.12891647708334,113.24159247708334,51.0,79.0
459,113.34018397708334,113.57962047708334,56.0,77.0
460,113.55145147708335,113.65884578958334,60.0,71.0
461,113.76271897708334,114.16412722708334,58.0,80.0
462,113.76271897708334,114.18525397708333,54.0,76.0
463,114.18525397708333,114.67469035208335,49.0,60.0
464,114.60778897708335,114.75567622708334,58.0,77.0
465,114.60778897708335,114.75919735208335,54.0,76.0
466,114.60778897708335,114.78560578958334,61.0,80.0
467,114.81905647708334,115.30145060208335,49.0,74.0
468,113.76271897708334,115.30497172708334,42.0,77.0
469,115.03032397708334,115.53384485208335,54.0,77.0
470,115.24159147708335,115.57257722708334,58.0,77.0
471,115.45285897708334,115.85426722708334,66.0,79.0
472,115.66412647708334,116.15884453958334,49.0,66.0
473,116.08666147708334,116.33490078958334,58.0,86.0
474,115.87539397708335,116.36130922708334,54.0,77.0
475,116.50919647708335,116.55849222708335,54.0,66.0
476,116.29792897708334,116.56201335208334,49.0,75.0
477,115.45285897708334,116.77328085208335,42.0,76.0
478,116.50919647708335,116.78560478958335,58.0,81.0
479,116.50919647708335,116.80321041458335,61.0,79.0
480,116.72046397708334,116.90532303958334,49.0,73.0
481,116.93173147708335,117.06553422708335,54.0,80.0
482,117.14299897708334,117.63243535208335,60.0,76.0
483,117.14299897708334,117.70461841458334,56.0,75.0
484,117.56553397708333,118.06025203958335,51.0,68.0
485,117.98806897708334,118.26271672708334,60.0,81.0
486,117.98806897708334,118.28384347708334,63.0,78.0
487,118.41060397708334,118.50743491458334,56.0,72.0
488,118.19933647708334,118.63771653958334,51.0,71.0
489,117.14299897708334,118.65532216458334,44.0,76.0
490,118.62187147708335,118.75391366458334,60.0,77.0
491,118.62187147708335,118.75391366458334,63.0,75.0
492,118.62187147708335,118.76447703958334,68.0,73.0
493,118.83313897708334,119.09018110208333,68.0,75.0
494,118.83313897708334,119.10426560208334,63.0,76.0
495,118.83313897708334,119.11130785208334,60.0,78.0
496,119.25567397708335,119.32257535208333,56.0,75.0
497,119.04440647708334,119.50743441458334,51.0,68.0
498,119.46694147708334,119.67292728958334,63.0,77.0
499,119.46694147708334,119.69581460208335,56.0,86.0
500,119.67820897708334,119.95989897708334,51.0,80.0
501,118.83313897708334,119.98102572708333,44.0,76.0
502,119.88947647708335,120.07081441458334,56.0,84.0
503,119.88947647708335,120.11834960208334,60.0,84.0
504,120.10074397708334,120.33489878958335,44.0,75.0
505,120.52327897708335,120.74334928958334,54.0,75.0
506,120.52327897708335,120.79616616458334,58.0,71.0
507,121.15708147708334,121.19581385208335,61.0,66.0
508,121.15708147708334,121.22222228958334,66.0,70.0
509,121.15708147708334,121.23278566458335,58.0,67.0
510,120.94581397708335,121.42292641458334,49.0,65.0
511,121.36834897708334,121.56553197708334,58.0,76.0
512,121.36834897708334,121.58489816458334,61.0,84.0
513,121.36834897708334,121.60426435208333,66.0,77.0
514,121.79088397708334,121.87186985208334,58.0,71.0
515,120.52327897708335,122.07609510208334,42.0,76.0
516,121.57961647708333,122.11658803958335,49.0,75.0
517,122.00215147708334,122.39651747708334,58.0,78.0
518,122.00215147708334,122.52327797708334,61.0,84.0
519,122.63595397708335,122.72222153958334,58.0,64.0
520,122.42468647708334,122.91940453958334,49.0,63.0
521,122.84722147708334,123.11482697708334,58.0,81.0
522,122.84722147708334,123.20109453958334,66.0,76.0
523,122.84722147708334,123.20813678958334,61.0,89.0
524,123.26975647708335,123.42292541458335,58.0,81.0
525,123.05848897708334,123.53208028958335,49.0,72.0
526,122.21341897708334,123.56024928958334,42.0,76.0
527,123.48102397708334,123.58665772708335,61.0,78.0
528,123.90355897708335,124.10602366458335,56.0,73.0
529,123.90355897708335,124.16764335208335,60.0,75.0
530,124.32609397708335,124.92292466458335,51.0,61.0
531,124.74862897708334,125.17116397708334,63.0,81.0
532,124.74862897708334,125.19405128958334,68.0,84.0
533,123.90355897708335,125.42996666458335,44.0,76.0
534,125.17116397708334,125.45109341458334,51.0,71.0
535,125.38243147708334,125.69405103958334,63.0,82.0
536,125.38243147708334,125.73982566458335,72.0,81.0
537,125.38243147708334,125.75038903958334,68.0,84.0
538,126.01623397708335,126.07785366458334,63.0,70.0
539,126.22750147708334,126.32081128958335,63.0,77.0
540,126.22750147708334,126.32785353958334,68.0,76.0
541,126.22750147708334,126.32961410208334,72.0,76.0
542,125.80496647708334,126.51799428958334,51.0,71.0
543,126.43876897708334,126.66059985208335,63.0,80.0
544,126.43876897708334,126.69405053958334,68.0,82.0
545,126.43876897708334,126.77327585208334,72.0,84.0
546,126.65003647708335,126.82081103958335,51.0,77.0
547,125.59369897708333,126.82257160208334,44.0,77.0
548,126.86130397708334,127.07961372708334,70.0,76.0
549,126.86130397708334,127.09897991458334,63.0,76.0
550,127.07257147708334,127.20989535208335,68.0,75.0
551,127.28383897708335,127.66059935208334,70.0,79.0
552,127.70637397708335,127.79264153958334,65.0,72.0
553,127.49510647708334,128.01095128958335,53.0,63.0
554,127.91764147708335,128.43348628958336,65.0,84.0
555,127.91764147708335,128.47926091458334,70.0,84.0
556,128.12890897708334,128.79616216458334,53.0,75.0
557,128.55144397708335,128.81552835208333,73.0,76.0
558,127.28383897708335,128.82081003958334,46.0,76.0
559,128.76271147708334,128.88419028958333,65.0,84.0
560,128.97397897708333,129.20285210208334,65.0,78.0
561,128.97397897708333,129.25566897708333,70.0,77.0
562,129.39651397708334,129.46165478958335,65.0,77.0
563,129.18524647708335,129.66588003958333,53.0,70.0
564,129.60778147708334,129.88771091458335,65.0,86.0
565,129.60778147708334,129.97045735208334,73.0,77.0
566,130.03031647708335,130.11130235208333,65.0,78.0
567,128.97397897708333,130.11306291458334,46.0,77.0
568,129.81904897708336,130.13595022708336,53.0,78.0
569,130.03031647708335,130.26799241458335,70.0,80.0
570,130.24158397708334,130.35425997708333,65.0,75.0
571,130.66411897708335,130.94228785208335,67.0,67.0
572,130.66411897708335,130.96869628958333,60.0,73.0
573,130.66411897708335,131.04263991458333,63.0,76.0
574,131.29792147708335,131.40531578958334,60.0,73.0
575,131.29792147708335,131.41587916458334,72.0,75.0
576,131.08665397708333,131.59017485208335,55.0,63.0
577,131.50918897708334,131.67996353958335,60.0,84.0
578,131.50918897708334,131.78383672708335,72.0,81.0
579,131.72045647708333,131.85249866458335,55.0,73.0
580,130.66411897708335,132.15531541458336,48.0,76.0
581,132.14299147708334,132.23806185208335,72.0,75.0
582,132.14299147708334,132.24158297708334,75.0,79.0
583,132.35425897708333,132.59721660208334,75.0,84.0
584,132.35425897708333,132.60249828958334,72.0,76.0
585,132.77679397708334,132.86834322708336,72.0,75.0
586,132.56552647708335,133.04439947708335,55.0,70.0
587,132.98806147708333,133.25566697708334,72.0,80.0
588,132.98806147708333,133.30144160208334,79.0,84.0
589,133.19932897708335,133.40531478958334,55.0,75.0
590,133.41059647708335,133.50390628958334,72.0,78.0
591,132.35425897708333,133.50742741458333,48.0,79.0
592,133.41059647708335,133.61834285208334,75.0,86.0
593,133.62186397708334,133.69756816458334,72.0,75.0
594,134.04439897708335,134.29263828958335,56.0,76.0
595,134.04439897708335,134.45637060208333,61.0,75.0
596,134.46693397708333,134.83841266458336,56.0,84.0
597,134.88946897708334,134.92820135208333,56.0,49.0
598,134.88946897708334,135.00390553958334,61.0,89.0
599,134.88946897708334,135.03207453958333,65.0,86.0
600,134.04439897708335,135.45989122708335,49.0,81.0
601,135.52327147708334,135.66235591458334,61.0,76.0
602,135.73453897708333,136.01798953958334,37.0,67.0
603,135.73453897708333,136.02855291458334,61.0,64.0
604,135.73453897708333,136.22925703958333,65.0,76.0
605,135.73453897708333,136.24510210208334,73.0,75.0
606,136.15707397708334,136.42291891458333,61.0,81.0
607,136.57960897708335,136.74158072708335,61.0,76.0
608,136.57960897708335,136.96517216458335,65.0,78.0
609,136.57960897708335,136.98453835208335,68.0,76.0
610,137.00214397708334,137.11834110208335,61.0,79.0
611,137.42467897708335,137.97573503958336,58.0,72.0
612,137.42467897708335,138.12890397708333,63.0,75.0
613,138.26974897708334,138.67467835208333,58.0,75.0
614,137.84721397708336,138.94404441458335,46.0,64.0
615,137.42467897708335,138.98453735208335,39.0,80.0
616,138.48101647708336,139.05143872708334,63.0,73.0
617,138.69228397708335,139.05319928958335,67.0,76.0
618,139.11481897708336,139.75390316458333,67.0,57.0
619,139.11481897708336,139.78207216458333,63.0,54.0
620,139.11481897708336,139.80319891458333,70.0,61.0
621,139.11481897708336,139.81024116458335,58.0,63.0
622,139.11481897708336,140.09721285208335,39.0,76.0
623,139.95988897708335,140.69404353958333,67.0,65.0
624,139.95988897708335,140.70108578958335,63.0,70.0
625,140.38242397708333,140.71517028958334,58.0,73.0
626,141.65002897708334,141.91411335208335,63.0,71.0
627,141.22749397708333,142.42467647708335,51.0,47.0
628,142.07256397708335,142.97573253958333,56.0,62.0
629,142.07256397708335,143.00214097708334,68.0,82.0
630,142.07256397708335,143.34192953958333,63.0,71.0
631,140.80495897708334,143.50214072708334,44.0,100.0
632,143.34016897708335,143.53559141458334,56.0,64.0
633,142.91763397708334,143.66059135208334,51.0,20.0
634,144.18523897708334,144.68523872708334,60.0,76.0
635,144.18523897708334,144.72044997708335,63.0,82.0
636,145.03030897708334,145.16059060208335,60.0,102.0
637,144.60777397708335,145.64826641458333,55.0,48.0
638,145.45284397708335,146.11481547708334,60.0,82.0
639,145.45284397708335,146.30319566458334,67.0,79.0
640,146.29791397708334,146.78030810208332,63.0,50.0
641,145.87537897708336,146.83664610208334,55.0,27.0
642,144.18523897708334,146.95988547708333,48.0,82.0
643,146.72044897708335,147.19756141458333,60.0,100.0
644,147.14298397708333,147.55143447708335,63.0,64.0
645,147.56551897708334,147.98101172708334,65.0,82.0
646,147.98805397708333,148.54439172708334,56.0,66.0
647,148.41058897708334,148.60953253958334,61.0,47.0
648,148.83312397708335,149.14474353958335,56.0,52.0
649,148.83312397708335,149.55495460208334,61.0,78.0
650,148.83312397708335,150.13770078958333,68.0,64.0
651,149.67819397708334,150.15882753958334,56.0,29.0
652,150.52326397708333,150.72748922708334,56.0,52.0
653,147.56551897708334,150.78910891458335,49.0,80.0
654,150.10072897708335,151.07255947708333,65.0,89.0
655,150.94579897708334,151.77326335208335,61.0,80.0
656,151.79086897708333,152.32079828958334,58.0,94.0
657,151.36833397708335,152.42643203958335,53.0,80.0
658,150.94579897708334,152.50741791458336,46.0,84.0
659,152.21340397708335,152.63593897708336,61.0,87.0
660,152.63593897708336,153.02854441458334,63.0,64.0
661,153.05847397708334,153.53382585208334,58.0,89.0
662,152.63593897708336,154.00565660208335,51.0,78.0
663,153.48100897708335,154.11129035208336,67.0,96.0
664,153.90354397708336,154.44227610208333,58.0,94.0
665,154.32607897708334,154.90354347708333,63.0,82.0
666,155.17114897708333,155.39650097708335,63.0,73.0
667,154.32607897708334,155.40002210208334,51.0,76.0
668,155.17114897708333,155.44755728958336,67.0,42.0
669,154.74861397708335,155.45988122708334,58.0,58.0
670,156.01621897708333,156.63417641458335,63.0,76.0
671,156.43875397708334,157.56199285208334,51.0,69.0
672,157.49509147708335,157.56199285208334,51.0,48.0
673,156.86128897708335,158.18171085208334,63.0,73.0
674,157.28382397708333,158.19051366458334,68.0,97.0
675,158.12889397708335,158.73100635208334,56.0,48.0
676,156.01621897708333,159.02149916458333,44.0,92.0
677,158.97396397708334,159.05671041458334,56.0,52.0
678,158.55142897708333,159.05671041458334,63.0,73.0
679,159.39649897708335,159.94051278958335,60.0,52.0
680,159.39649897708335,160.17994928958333,63.0,67.0
681,160.24156897708335,160.80847010208333,60.0,97.0
682,159.81903397708334,160.85776585208333,55.0,74.0
683,160.66410397708336,161.56199085208334,67.0,87.0
684,161.08663897708334,161.79262453958336,55.0,34.0
685,161.93170897708333,162.13417366458333,55.0,46.0
686,159.39649897708335,162.22748347708335,48.0,73.0
687,161.50917397708335,162.37713128958333,63.0,64.0
688,162.35424397708334,162.73980716458334,60.0,87.0
689,162.77677897708332,163.22044072708334,61.0,78.0
690,163.19931397708334,163.73804610208333,56.0,64.0
691,163.62184897708335,163.79262353958333,61.0,60.0
692,164.04438397708333,164.93718295833332,56.0,78.0
693,164.04438397708333,164.96366598958335,65.0,82.0
694,164.8912790375,165.35914592291667,61.0,67.0
695,162.77677897708332,165.69459765208333,49.0,82.0
696,165.3150075375,165.74403264375,56.0,80.0
697,165.7387360375,165.90469636666666,61.0,69.0
698,166.1624645375,167.02404582083332,58.0,71.0
699,166.1624645375,167.0628876,54.0,58.0
700,167.0099215375,167.507802525,61.0,82.0
701,166.1624645375,167.5183957375,42.0,89.0
702,166.5861930375,167.61196911458333,49.0,55.0
703,167.4336500375,167.70730802708334,58.0,84.0
704,167.8573785375,168.12573992083333,58.0,55.0
705,167.8573785375,168.31112113958332,63.0,73.0
706,168.2811070375,168.81606426875,58.0,73.0
707,167.8573785375,169.26804133541665,51.0,66.0
708,168.7048355375,169.51521629375,67.0,99.0
709,169.1285640375,169.67411448125,58.0,66.0
710,169.5522925375,170.05900120208332,63.0,60.0
711,169.9760210375,170.473902025,58.0,55.0
712,169.5522925375,170.58159968541668,51.0,73.0
713,170.39974953749999,170.6116137875,63.0,69.0
714,170.39974953749999,170.685766275,67.0,77.0
715,171.2472065375,171.9887314125,58.0,66.0
716,171.2472065375,172.0946635375,61.0,78.0
717,171.6709350375,172.76909806666666,53.0,67.0
718,172.0946635375,172.96330696249998,58.0,80.0
719,172.5183920375,173.43117384791665,65.0,67.0
720,173.3658490375,173.62361720833334,58.0,89.0
721,172.9421205375,173.95377233125,53.0,50.0
722,171.2472065375,174.00673839375,46.0,80.0
723,173.7895775375,174.21154050208332,61.0,76.0
724,173.7895775375,174.25391335208334,65.0,76.0
725,174.2133060375,174.46401206666667,58.0,73.0
726,174.6370345375,174.81711915,56.0,80.0
727,174.6370345375,175.08901160416667,61.0,71.0
728,175.0607630375,175.9082200375,56.0,57.0
729,175.4844915375,176.0988978625,61.0,71.0
730,175.9082200375,176.33371407291668,65.0,73.0
731,174.6370345375,176.33547960833334,49.0,76.0
732,176.3319485375,177.00285199583334,63.0,73.0
733,177.1794055375,177.35949015,56.0,80.0
734,177.1794055375,177.64197581666667,60.0,97.0
735,177.6031340375,177.91916487708335,56.0,66.0
736,178.0268625375,178.18399518958333,56.0,73.0
737,178.0268625375,178.53886780833332,60.0,71.0
738,178.4505910375,178.85489864791666,56.0,55.0
739,178.8743195375,179.35631070624999,60.0,89.0
740,176.3319485375,179.45341515416666,44.0,82.0
741,179.2980480375,179.456946225,56.0,84.0
742,176.7556770375,179.61760994791666,51.0,69.0
743,178.8743195375,179.67587261666665,63.0,89.0
744,179.7217765375,180.20553324166667,58.0,71.0
745,179.7217765375,180.46153587708332,61.0,78.0
746,180.5692335375,181.03003828125,58.0,108.0
747,180.9929620375,181.85101225,61.0,76.0
748,180.9929620375,181.88102635208332,65.0,92.0
749,181.8404190375,182.23413343541665,58.0,89.0
750,182.2641475375,182.72318674583335,61.0,71.0
751,182.2641475375,182.74966977708334,65.0,84.0
752,182.6878760375,182.9209267125,58.0,92.0
753,180.1455050375,182.94917527916667,53.0,64.0
754,179.7217765375,183.00037580625,46.0,78.0
755,183.1116045375,183.30404789791666,56.0,89.0
756,183.1116045375,183.62537534375,61.0,84.0
757,183.5353330375,184.02968295416667,56.0,73.0
758,184.3827900375,184.73766265625,56.0,71.0
759,183.9590615375,184.73766265625,65.0,89.0
760,183.9590615375,184.74119372708333,61.0,89.0
761,183.1116045375,184.753552475,49.0,84.0
762,184.8065185375,185.11901830624998,58.0,70.0
763,184.8065185375,185.16492222708334,63.0,71.0
764,185.2302470375,185.69811392291666,46.0,63.0
765,185.6539755375,185.83759122083333,58.0,79.0
766,185.6539755375,185.87113639375,63.0,81.0
767,185.6539755375,185.89055728333332,67.0,80.0
768,185.8658397875,186.109483675,46.0,75.0
769,184.8065185375,186.151856525,39.0,80.0
770,186.07770403749998,186.17657402083333,58.0,77.0
771,186.2895682875,186.41845237291668,63.0,77.0
772,186.2895682875,186.42728005,58.0,75.0
773,186.5014325375,186.82629105416666,39.0,84.0
774,186.5014325375,186.85983622708332,58.0,77.0
775,186.5014325375,186.86689836875001,63.0,79.0
776,187.3171099,187.571347,39.0,80.0
777,187.31887543541666,187.61018877916666,51.0,78.0
778,187.59076788958333,187.8573637375,41.0,77.0
779,187.59783003125,187.89090891041667,53.0,89.0
780,187.87678462708334,188.13102172708332,43.0,89.0
781,187.88737783958334,188.14514601041668,55.0,77.0
782,188.1963465375,188.64302699791668,63.0,74.0
783,188.1963465375,188.70835180833333,56.0,76.0
784,188.6200750375,189.11619048958335,51.0,66.0
785,189.0438035375,189.46929757291667,56.0,79.0
786,189.0438035375,189.55404327291666,60.0,82.0
787,189.0438035375,189.60347826458334,63.0,78.0
788,188.1963465375,189.69881717708333,44.0,78.0
789,189.4675320375,189.76061091666668,51.0,66.0
790,189.6793962875,189.81181144375,56.0,79.0
791,189.8912605375,190.4209211625,56.0,76.0
792,189.8912605375,190.42798330416667,60.0,78.0
793,190.3149890375,190.79521467083333,51.0,66.0
794,190.7387175375,190.97353374791666,56.0,79.0
795,190.7387175375,191.03356195208335,60.0,89.0
796,190.7387175375,191.04062409375,63.0,79.0
797,189.8912605375,191.0459207,44.0,77.0
798,190.9505817875,191.08476247916667,51.0,77.0
799,191.1624460375,191.4166831375,56.0,86.0
800,191.3743102875,191.5014288375,60.0,79.0
801,191.5861745375,191.95870251041666,63.0,70.0
802,191.5861745375,192.00460643125,60.0,75.0
803,192.0099030375,192.5713433,55.0,65.0
804,192.4336315375,192.81145611666668,60.0,76.0
805,192.4336315375,192.86971878541667,63.0,78.0
806,192.4336315375,192.91209163541666,67.0,77.0
807,191.5861745375,193.0904107125,48.0,76.0
808,193.0692242875,193.20870158541666,60.0,78.0
809,192.8573600375,193.21399819166666,55.0,63.0
810,193.2810885375,193.76661077708334,60.0,77.0
811,193.2810885375,193.78426613125,63.0,76.0
812,193.7048170375,194.21505677291665,55.0,62.0
813,193.2810885375,194.34394085833333,48.0,76.0
814,194.1285455375,194.43751423541667,63.0,80.0
815,194.1285455375,194.43927977083334,60.0,78.0
816,194.1285455375,194.4463419125,67.0,78.0
817,194.5522740375,194.6793925875,48.0,77.0
818,194.9760025375,195.2090532125,56.0,76.0
819,194.9760025375,195.32381301458332,65.0,76.0
820,195.3997310375,195.8870188125,56.0,75.0
821,195.8234595375,196.04944807083334,61.0,77.0
822,194.9760025375,196.06886896041667,49.0,80.0
823,195.8234595375,196.07593110208333,65.0,84.0
824,195.8234595375,196.13419377083332,68.0,77.0
825,196.0353237875,196.14655251875,56.0,76.0
826,196.2471880375,196.5226115625,61.0,81.0
827,196.45905228750001,196.54026691666667,65.0,76.0
828,196.6709165375,197.05403772291666,60.0,73.0
829,196.6709165375,197.08228628958332,63.0,71.0
830,197.09464503750002,197.57310513541665,51.0,65.0
831,197.5183735375,197.76731403125,56.0,76.0
832,196.6709165375,197.77614170833334,44.0,76.0
833,197.5183735375,197.82028009375,60.0,82.0
834,197.5183735375,197.84852866041666,63.0,78.0
835,197.73023778750002,197.88207383333332,51.0,73.0
836,197.9421020375,198.07451719375,44.0,75.0
837,198.3653387,198.66069670000002,58.0,71.0
838,198.3653387,198.8400212,63.0,75.0
839,198.7872787,199.34459111666666,46.0,64.0
840,199.2092187,199.56083536666668,58.0,79.0
841,199.2092187,199.61181978333335,63.0,80.0
842,199.2092187,199.62412636666667,67.0,86.0
843,198.3653387,199.68565928333334,39.0,78.0
844,199.63115870000001,199.84564486666667,46.0,69.0
845,199.84212870000002,199.94937178333333,58.0,81.0
846,200.05309870000002,200.47855486666668,58.0,80.0
847,200.05309870000002,200.5471201166667,63.0,80.0
848,200.6860087,200.77742903333333,58.0,77.0
849,200.4750387,201.02180261666666,46.0,76.0
850,200.05309870000002,201.13431995000002,39.0,86.0
851,200.8969787,201.35583845000002,63.0,86.0
852,200.8969787,201.35935461666668,67.0,82.0
853,200.8969787,201.3857258666667,58.0,82.0
854,201.3189187,201.42967795,39.0,80.0
855,201.74085870000002,202.17862145,60.0,69.0
856,201.74085870000002,202.19444420000002,63.0,75.0
857,201.74085870000002,202.19796036666668,56.0,71.0
858,202.1627987,202.66385245,51.0,63.0
859,201.74085870000002,202.90295178333335,44.0,76.0
860,202.5847387,202.94690386666667,60.0,80.0
861,202.5847387,202.9521781166667,56.0,78.0
862,202.5847387,202.95569428333334,63.0,80.0
863,203.0066787,203.17721278333335,51.0,74.0
864,203.42861870000002,203.76089645000002,68.0,75.0
865,203.42861870000002,203.83121978333335,60.0,81.0
866,203.2176487,203.84176828333335,56.0,81.0
867,203.42861870000002,203.84176828333335,63.0,78.0
868,203.85055870000002,204.34458011666666,51.0,70.0
869,204.2724987,204.46764595000002,56.0,77.0
870,204.2724987,204.48171061666667,60.0,86.0
871,204.2724987,204.50983995,63.0,79.0
872,203.42861870000002,204.57137286666668,44.0,76.0
873,204.4834687,204.61532495,51.0,75.0
874,204.6944387,204.9265057,44.0,76.0
875,205.1163787,205.55589953333333,60.0,76.0
876,205.1163787,205.58227078333334,63.0,75.0
877,205.53831870000002,206.10442153333335,55.0,67.0
878,205.9602587,206.39450528333333,60.0,77.0
879,205.9602587,206.43669928333335,63.0,78.0
880,205.9602587,206.48944178333335,67.0,79.0
881,205.1163787,206.59844295000002,48.0,79.0
882,206.5931687,206.70920220000002,60.0,75.0
883,206.3821987,206.73029920000002,55.0,65.0
884,206.8041387,207.2577242,60.0,80.0
885,206.8041387,207.28585353333335,63.0,76.0
886,207.43704870000002,207.53901753333335,60.0,77.0
887,207.22607870000002,207.73943903333335,55.0,63.0
888,206.8041387,207.92579586666668,48.0,76.0
889,207.64801870000002,207.9750222,67.0,79.0
890,207.64801870000002,208.00842578333334,63.0,81.0
891,207.64801870000002,208.05061978333333,60.0,80.0
892,208.0699587,208.2281862,48.0,81.0
893,208.4918987,208.79428903333334,56.0,70.0
894,208.4918987,208.89449978333334,61.0,71.0
895,208.9138387,209.49576428333333,44.0,55.0
896,209.33577870000002,209.54674870000002,56.0,77.0
897,208.4918987,209.6733307,37.0,74.0
898,209.33577870000002,209.83331628333335,61.0,82.0
899,209.33577870000002,209.83507436666667,65.0,80.0
900,209.7577187,209.91067195,56.0,86.0
901,210.1796587,210.65258311666668,60.0,71.0
902,210.1796587,210.68422861666667,56.0,75.0
903,210.6015987,211.15539495000002,51.0,69.0
904,210.1796587,211.20462128333335,44.0,77.0
905,211.02353870000002,211.29604161666668,56.0,79.0
906,211.02353870000002,211.3188967,60.0,82.0
907,211.02353870000002,211.37515536666666,63.0,77.0
908,211.44547870000002,211.71094928333335,44.0,76.0
909,211.8674187,212.4184747625,58.0,75.0
910,211.8674187,212.4818550125,61.0,77.0
911,212.2899537,212.814601325,53.0,59.0
912,212.7124887,213.2758687,58.0,77.0
913,212.7124887,213.33924895,61.0,80.0
914,211.8674187,213.3903052625,46.0,77.0
915,213.1350237,213.55755870000002,53.0,64.0
916,213.55755870000002,213.7705867625,58.0,69.0
917,213.55755870000002,213.9853753875,46.0,65.0
918,213.55755870000002,214.02938945,61.0,71.0
919,213.9800937,214.279389325,58.0,78.0
920,214.4026287,214.78855988333333,39.0,81.0
921,214.4026287,214.80798077291666,58.0,76.0
922,214.4026287,214.88742986666665,63.0,76.0
923,215.24936462708334,215.4841808375,56.0,72.0
924,215.24936462708334,215.74548007916667,65.0,75.0
925,215.24936462708334,215.77902525208333,61.0,70.0
926,215.67309312708332,215.95381325833333,56.0,63.0
927,215.24936462708334,216.25395427916666,49.0,78.0
928,216.52055012708334,216.77302169166666,56.0,76.0
929,216.09682162708333,216.85070525,65.0,78.0
930,216.09682162708333,216.88601595833333,61.0,76.0
931,216.94427862708332,217.2320609,58.0,68.0
932,216.94427862708332,217.27619928541665,63.0,68.0
933,217.36800712708333,217.86588811458333,46.0,67.0
934,216.94427862708332,217.8994332875,39.0,77.0
935,217.79173562708334,218.18015341875,67.0,79.0
936,217.79173562708334,218.20840198541666,63.0,77.0
937,218.21546412708332,218.39025213333332,58.0,79.0
938,218.63919262708333,219.04173470208332,64.0,75.0
939,218.63919262708333,219.07881094583334,59.0,75.0
940,219.27478537708333,219.53961568958334,56.0,77.0
941,219.48664962708332,219.62083031875,59.0,81.0
942,219.69851387708334,219.753245475,59.0,47.0
943,219.69851387708334,219.97217186666666,64.0,82.0
944,218.63919262708333,220.12753898333332,40.0,86.0
945,219.91037812708333,220.21051914791667,56.0,79.0
946,220.12224237708332,220.25289199791666,59.0,63.0
947,219.06292112708334,220.25642306875,47.0,59.0
948,220.33410662708332,220.81962886666668,56.0,76.0
949,220.33410662708332,220.87259492916667,59.0,70.0
950,220.96969937708332,221.10211453333332,56.0,71.0
951,220.75783512708333,221.30338557083334,47.0,67.0
952,220.33410662708332,221.3528205625,40.0,76.0
953,221.18156362708334,221.45522161666668,56.0,76.0
954,221.18156362708334,221.47287697083334,59.0,80.0
955,221.18156362708334,221.51171875,64.0,78.0
956,221.39342787708333,221.532905175,47.0,75.0
957,221.60529212708332,221.6918033625,40.0,82.0
958,222.02902062708333,222.44392145,58.0,74.0
959,222.02902062708333,222.52866715,61.0,75.0
960,222.66461337708333,222.77054550208334,66.0,69.0
961,222.66461337708333,222.78466978541667,58.0,70.0
962,222.45274912708334,223.02301706666665,49.0,67.0
963,222.87647762708332,223.07245205833334,58.0,80.0
964,222.87647762708332,223.18368078958332,66.0,79.0
965,223.30020612708333,223.4290902125,58.0,74.0
966,222.02902062708333,223.566801975,42.0,76.0
967,223.08834187708334,223.5773951875,49.0,69.0
968,223.51207037708332,223.95345423125,58.0,77.0
969,223.51207037708332,224.03113778958334,61.0,82.0
970,224.14766312708332,224.244767575,58.0,71.0
971,223.93579887708333,224.56079841458333,49.0,66.0
972,224.35952737708334,224.69851017708334,58.0,75.0
973,224.35952737708334,224.70910338958333,61.0,79.0
974,224.57139162708333,224.76030391666666,49.0,70.0
975,224.78325587708332,224.99158905625,58.0,79.0
976,224.78325587708332,225.01983762291667,61.0,80.0
977,224.78325587708332,225.06574154375,66.0,81.0
978,223.72393462708334,225.12223867708332,42.0,75.0
979,224.99512012708334,225.13989403125,49.0,75.0
980,225.41884862708332,225.87082569375,56.0,74.0
981,225.41884862708332,225.88141890625,59.0,70.0
982,226.05444137708332,226.34752025625,56.0,77.0
983,226.05444137708332,226.35458239791666,64.0,76.0
984,226.47816987708333,226.64766127708333,59.0,80.0
985,225.41884862708332,226.73240697708331,40.0,86.0
986,225.84257712708333,226.93014694375,47.0,49.0
987,226.69003412708332,227.00606496666666,56.0,77.0
988,226.90189837708334,227.59751933125,64.0,81.0
989,227.53749112708334,227.68579610208332,59.0,72.0
990,227.32562687708332,227.81644572291665,47.0,70.0
991,227.11376262708333,227.888832675,40.0,80.0
992,227.74935537708333,228.04419979166667,56.0,78.0
993,227.96121962708332,228.14130423958332,47.0,77.0
994,228.17308387708334,228.25076743541666,56.0,76.0
995,228.17308387708334,228.4290865125,59.0,78.0
996,228.17308387708334,228.48028703958332,64.0,75.0
997,228.38494812708333,228.53678417291667,56.0,76.0
998,228.80867662708334,229.42308295208332,70.0,75.0
999,228.80867662708334,229.43897277083332,46.0,76.0
1000,229.23240512708333,229.44956598333334,53.0,75.0
1001,228.80867662708334,229.46192473125,58.0,60.0
1002,229.65613362708334,229.91390179791665,58.0,76.0
1003,229.65613362708334,230.15754568541666,70.0,76.0
1004,229.65613362708334,230.30585066041667,53.0,91.0
1005,229.65613362708334,230.32527155,46.0,80.0
1006,230.07986212708332,230.34292690416666,58.0,82.0
1007,230.50359062708333,230.63777131875,63.0,76.0
1008,230.50359062708333,230.63953685416666,58.0,74.0
1009,230.50359062708333,230.64483346041666,39.0,81.0
1010,230.50359062708333,230.6536611375,67.0,73.0
1011,230.71545487708332,231.10740373958333,63.0,80.0
1012,230.71545487708332,231.109169275,58.0,77.0
1013,230.71545487708332,231.12152802291666,67.0,77.0
1014,230.71545487708332,231.21686693541665,39.0,86.0
1015,231.33868887916665,232.51105475208334,39.0,80.0
1016,231.19568051041665,233.22502228333332,58.0,50.0
1017,231.33692334375,233.24059166875,67.0,66.0
1018,231.26983299791667,233.24504006458332,63.0,66.0
1019,233.37849193958334,233.93669650208332,63.0,74.0
1020,233.37849193958334,234.00202131249998,56.0,76.0
1021,233.91229943958334,234.40985999375,51.0,66.0
1022,234.33923857708334,234.76473261249998,56.0,79.0
1023,234.33923857708334,234.8494783125,60.0,82.0
1024,234.33923857708334,234.89891330416665,63.0,78.0
1025,233.37849193958334,234.99425221666667,44.0,78.0
1026,234.76296707708332,235.05604595625,51.0,66.0
1027,234.97483132708334,235.1072464833333,56.0,79.0
1028,235.18669557708333,235.71635620208332,56.0,76.0
1029,235.18669557708333,235.72341834374998,60.0,78.0
1030,235.61042407708334,236.09064971041667,51.0,66.0
1031,236.03415257708332,236.2689687875,56.0,79.0
1032,236.03415257708332,236.32899699166666,60.0,89.0
1033,236.03415257708332,236.33605913333332,63.0,79.0
1034,235.18669557708333,236.34135573958332,44.0,77.0
1035,236.24601682708334,236.38019751874998,51.0,77.0
1036,236.45788107708333,236.7121181770833,56.0,86.0
1037,236.66974532708332,236.79686387708333,60.0,79.0
1038,236.8816095770833,237.25413755,63.0,70.0
1039,236.8816095770833,237.30004147083332,60.0,75.0
1040,237.30533807708332,237.86677833958333,55.0,65.0
1041,237.72906657708333,238.10689115625,60.0,76.0
1042,237.72906657708333,238.165153825,63.0,78.0
1043,237.72906657708333,238.207526675,67.0,77.0
1044,236.8816095770833,238.38584575208333,48.0,76.0
1045,238.36465932708333,238.504136625,60.0,78.0
1046,238.1527950770833,238.50943323125,55.0,63.0
1047,238.57652357708332,239.06204581666665,60.0,77.0
1048,238.57652357708332,239.07970117083332,63.0,76.0
1049,239.00025207708333,239.5104918125,55.0,62.0
1050,238.57652357708332,239.63937589791666,48.0,76.0
1051,239.4239805770833,239.73294927499998,63.0,80.0
1052,239.4239805770833,239.73471481041665,60.0,78.0
1053,239.4239805770833,239.7417769520833,67.0,78.0
1054,239.84770907708332,239.97482762708333,48.0,77.0
1055,240.27143757708333,240.50448825208332,56.0,76.0
1056,240.27143757708333,240.61924805416666,65.0,76.0
1057,240.69516607708331,241.1824538520833,56.0,75.0
1058,241.11889457708332,241.34488311041665,61.0,77.0
1059,240.27143757708333,241.364304,49.0,80.0
1060,241.11889457708332,241.37136614166667,65.0,84.0
1061,241.11889457708332,241.42962881041666,68.0,77.0
1062,241.33075882708332,241.44198755833332,56.0,76.0
1063,241.54262307708333,241.8180466020833,61.0,81.0
1064,241.75448732708332,241.83570195624998,65.0,76.0
1065,241.96635157708332,242.3494727625,60.0,73.0
1066,241.96635157708332,242.37772132916666,63.0,71.0
1067,242.39008007708333,242.868540175,51.0,65.0
1068,242.81380857708334,243.06274907083332,56.0,76.0
1069,241.96635157708332,243.07157674791665,44.0,76.0
1070,242.81380857708334,243.1157151333333,60.0,82.0
1071,242.81380857708334,243.1439637,63.0,78.0
1072,243.02567282708333,243.17750887291666,51.0,73.0
1073,243.23753707708332,243.36995223333332,44.0,75.0
1074,243.66126557708333,243.95787552708333,58.0,71.0
1075,243.66126557708333,244.13796013958333,63.0,75.0
1076,244.0849940770833,244.64466880416666,46.0,64.0
1077,244.50872257708332,244.86182966041665,58.0,79.0
1078,244.50872257708332,244.9130301875,63.0,80.0
1079,244.50872257708332,244.92538893541666,67.0,86.0
1080,243.66126557708333,244.98718267499999,39.0,78.0
1081,244.93245107708333,245.14784639791665,46.0,69.0
1082,245.14431532708332,245.2520129875,58.0,81.0
1083,245.3561795770833,245.78343914791665,58.0,80.0
1084,245.3561795770833,245.85229502916667,63.0,80.0
1085,245.9917723270833,246.08358016875,58.0,77.0
1086,245.77990807708332,246.32898959166667,46.0,76.0
1087,245.3561795770833,246.44198385833332,39.0,86.0
1088,246.20363657708333,246.66444132083333,63.0,86.0
1089,246.20363657708333,246.66797239166667,67.0,82.0
1090,246.20363657708333,246.69445542291666,58.0,82.0
1091,246.6273650770833,246.73859380833332,39.0,80.0
1092,247.05109357708332,247.49071189583333,60.0,69.0
1093,247.05109357708332,247.50660171458333,63.0,75.0
1094,247.05109357708332,247.51013278541666,56.0,71.0
1095,247.47482207708333,247.97799967083333,51.0,63.0
1096,247.05109357708332,248.21811248749998,44.0,76.0
1097,247.8985505770833,248.26225087291667,60.0,80.0
1098,247.8985505770833,248.26754747916667,56.0,78.0
1099,247.8985505770833,248.27107855,63.0,80.0
1100,248.32227907708332,248.4935360125,51.0,74.0
1101,248.74600757708333,249.07969377083333,68.0,75.0
1102,248.74600757708333,249.15031518749998,60.0,81.0
1103,248.5341433270833,249.16090839999998,56.0,81.0
1104,248.74600757708333,249.16090839999998,63.0,78.0
1105,249.16973607708331,249.66585152916664,51.0,70.0
1106,249.59346457708332,249.78943900833332,56.0,77.0
1107,249.59346457708332,249.80356329166665,60.0,86.0
1108,249.59346457708332,249.8318118583333,63.0,79.0
1109,248.74600757708333,249.89360559791666,44.0,76.0
1110,249.80532882708331,249.93774398333332,51.0,75.0
1111,250.01719307708333,250.25024375208332,44.0,76.0
1112,250.44092157708332,250.88230543125,60.0,76.0
1113,250.44092157708332,250.90878846249998,63.0,75.0
1114,250.86465007708333,251.43315248124998,55.0,67.0
1115,251.28837857708334,251.72446582499998,60.0,77.0
1116,251.28837857708334,251.76683867499997,63.0,78.0
1117,251.28837857708334,251.8198047375,67.0,79.0
1118,250.44092157708332,251.92926793333334,48.0,79.0
1119,251.92397132708334,252.04049666458332,60.0,75.0
1120,251.71210707708332,252.0616830895833,55.0,65.0
1121,252.13583557708333,252.59134371458333,60.0,80.0
1122,252.13583557708333,252.61959228125,63.0,76.0
1123,252.77142832708333,252.87382938125,60.0,77.0
1124,252.55956407708334,253.07510041875,55.0,63.0
1125,252.13583557708333,253.26224717291666,48.0,76.0
1126,252.98329257708332,253.31168216458332,67.0,79.0
1127,252.98329257708332,253.34522733749998,63.0,81.0
1128,252.98329257708332,253.3876001875,60.0,80.0
1129,253.40702107708333,253.56591926458333,48.0,81.0
1130,253.83074957708334,254.13442166874998,56.0,70.0
1131,253.83074957708334,254.2350571875,61.0,71.0
1132,254.25447807708332,254.8388703,44.0,55.0
1133,254.67820657708333,254.89007082708332,56.0,77.0
1134,253.83074957708334,255.01718937708333,37.0,74.0
1135,254.67820657708333,255.1778531,61.0,82.0
1136,254.67820657708333,255.17961863541666,65.0,80.0
1137,255.1019350770833,255.2555366583333,56.0,86.0
1138,255.52566357708332,256.0005926041666,60.0,71.0
1139,255.52566357708332,256.0323722416667,56.0,75.0
1140,255.94939207708333,256.5055357333333,51.0,69.0
1141,255.52566357708332,256.554970725,44.0,77.0
1142,256.37312057708334,256.6467785666666,56.0,79.0
1143,256.37312057708334,256.66973052708335,60.0,82.0
1144,256.37312057708334,256.72622766041667,63.0,77.0
1145,256.7968490770833,257.063444925,44.0,76.0
1146,257.2205775770833,257.7731901625,58.0,75.0
1147,257.2205775770833,257.8367494375,61.0,77.0
1148,257.64430607708334,258.17043563125,53.0,59.0
1149,258.0680345770833,258.63300591041667,58.0,77.0
1150,258.0680345770833,258.69656518541666,61.0,80.0
1151,257.2205775770833,258.7477657125,46.0,77.0
1152,258.4917630770833,258.91549157708334,53.0,64.0
1153,258.91549157708334,259.1291213625,58.0,69.0
1154,258.91549157708334,259.3445166833333,46.0,65.0
1155,258.91549157708334,259.38865506875,61.0,71.0
1156,259.3392200770833,259.63936109791666,58.0,78.0
1157,259.7629485770833,260.14960083333335,39.0,81.0
1158,259.7629485770833,260.1690217229167,58.0,76.0
1159,259.7629485770833,260.24847081666667,63.0,76.0
1160,260.6104055770833,260.8452217875,56.0,72.0
1161,260.6104055770833,261.10652102916663,65.0,75.0
1162,260.6104055770833,261.14006620208335,61.0,70.0
1163,261.0341340770833,261.3148542083333,56.0,63.0
1164,260.6104055770833,261.61499522916665,49.0,78.0
1165,261.8815910770833,262.1340626416667,56.0,76.0
1166,261.45786257708335,262.2117462,65.0,78.0
1167,261.45786257708335,262.2470569083333,61.0,76.0
1168,262.3053195770833,262.59310185,58.0,68.0
1169,262.3053195770833,262.63724023541664,63.0,68.0
1170,262.72904807708335,263.2269290645833,46.0,67.0
1171,262.3053195770833,263.2604742375,39.0,77.0
1172,263.15277657708333,263.54119436875,67.0,79.0
1173,263.15277657708333,263.56944293541665,63.0,77.0
1174,263.5765050770833,263.75129308333334,58.0,79.0
1175,264.00023357708335,264.40101011666667,60.0,63.0
1176,264.00023357708335,264.41689993541667,63.0,70.0
1177,264.00023357708335,264.44867957291666,56.0,67.0
1178,264.42396207708333,265.00658876458334,51.0,60.0
1179,264.8476905770833,265.26259139999996,63.0,70.0
1180,264.8476905770833,265.37382013125,60.0,69.0
1181,265.27141907708335,265.7392859625,51.0,60.0
1182,265.69514757708333,265.94408807083335,56.0,65.0
1183,265.69514757708333,266.15418678541664,63.0,71.0
1184,265.69514757708333,266.20009070624997,60.0,72.0
1185,266.1188760770833,266.6185226,51.0,63.0
1186,266.54260457708335,266.75093775625,56.0,77.0
1187,266.54260457708335,266.8233247083333,60.0,82.0
1188,266.54260457708335,266.82509024374997,63.0,77.0
1189,264.00023357708335,266.82685577916664,44.0,75.0
1190,266.7544688270833,266.86746309374996,51.0,79.0
1191,266.96633307708333,267.20644589375,56.0,77.0
1192,267.17819732708335,267.2858949875,60.0,71.0
1193,267.34415765625,267.92854987916667,61.0,70.0
1194,267.3529853333333,267.9638605875,58.0,60.0
1195,268.17925590833335,268.3169676708333,58.0,75.0
1196,267.77494829791664,268.50764549583334,53.0,67.0
1197,267.36710961666665,268.55354941666667,46.0,77.0
1198,268.17395930208335,268.6630126125,65.0,76.0
1199,269.03554058541664,269.14500378125,39.0,78.0
1200,268.588860125,269.1714868125,58.0,75.0
1201,269.03377505,271.0111747166667,63.0,74.0
1202,270.58744621666665,271.13652773125,67.0,79.0
1203,271.31308127291663,271.44726196458333,67.0,76.0
1204,271.2142112895833,271.45079303541667,63.0,65.0
1205,271.4084201854167,271.554959625,70.0,64.0
1206,271.512586775,271.69620245833335,75.0,76.0
1207,271.06237524375,272.55248713541664,55.0,53.0
1208,270.05602005624996,272.61428087499996,58.0,75.0
1209,269.50340747083334,272.71315085833334,51.0,69.0
1210,274.43278235416665,274.80177925625,58.0,61.0
1211,274.74881319375,275.08956152916664,60.0,70.0
1212,275.06660956875,275.3137845270833,63.0,73.0
1213,275.35439184166665,275.8310864041666,56.0,63.0
1214,276.11004099999997,276.2830634708333,56.0,51.0
1215,275.74634070416664,276.9875121020833,68.0,63.0
1216,276.56201806666667,277.19937635208333,63.0,46.0
1217,274.07084759375,277.4094750666667,51.0,58.0
1218,273.70185069166666,277.60898056875,44.0,81.0
1219,277.0404781645833,277.81907928333334,56.0,52.0
1220,278.2692908145833,278.5288245208333,56.0,50.0
1221,278.37345740416663,279.34979848958335,58.0,56.0
1222,278.16335868958333,280.156648175,51.0,72.0
1223,277.9938672895833,280.2237385208333,44.0,75.0
1224,278.461734175,280.3031876145833,63.0,58.0
