,start,end,pitch,velocity
0,13.582756687500002,13.886810437500001,76.0,86.0
1,13.988161687500002,14.266877625000001,76.0,89.0
2,14.393566687500002,14.667215062500002,76.0,89.0
3,14.798971687500002,15.101336250000001,76.0,87.0
4,15.204376687500002,15.4543764375,76.0,85.0
5,15.609781687500002,15.874984125000001,76.0,84.0
6,16.0151866875,16.292213437500003,76.0,88.0
7,16.4205916875,16.7381589375,75.0,91.0
8,16.8259966875,17.1486315,71.0,90.0
9,17.2314016875,17.565860812500002,71.0,84.0
10,17.636806687500002,18.374981625,76.0,93.0
11,18.8530216875,19.2482915625,71.0,91.0
12,19.258426687500002,20.0928853125,76.0,91.0
13,20.4746416875,20.773627875000003,76.0,89.0
14,20.880046687500002,21.168897750000003,76.0,89.0
15,21.2854516875,21.591194625000004,76.0,91.0
16,21.690856687500002,22.010113125000004,75.0,93.0
17,22.096261687500004,22.434099187500003,73.0,91.0
18,22.501666687500002,24.528691687500004,71.0,88.0
19,25.339501687500004,25.685785125000002,75.0,91.0
20,25.744906687500002,26.413824937500003,76.0,89.0
21,26.555716687500002,26.820919125000003,76.0,83.0
22,26.961121687500004,27.226324125,76.0,90.0
23,27.366526687500002,27.631729125000003,76.0,88.0
24,27.771931687500004,28.08780975,76.0,91.0
25,28.177336687500002,28.559093062500004,78.0,90.0
26,28.582741687500004,28.969565625,76.0,90.0
27,28.988146687500002,29.798956687500002,80.0,90.0
28,29.798956687500002,30.043888875000004,78.0,89.0
29,30.204361687500004,30.7043611875,80.0,91.0
30,30.812469187500003,31.932400500000004,73.0,90.0
31,32.231386687500006,32.366521687500004,73.0,96.0
32,32.4340891875,32.552332312500006,75.0,93.0
33,32.6367916875,32.92564275,76.0,87.0
34,33.0421966875,33.312466687500006,76.0,86.0
35,33.447601687500004,33.7161825,76.0,85.0
36,33.853006687500006,34.4678709375,76.0,85.0
37,34.6638166875,34.9644920625,76.0,91.0
38,35.069221687500004,35.4475996875,78.0,91.0
39,35.474626687500006,35.765166937500005,76.0,89.0
40,35.8800316875,38.751650437500004,78.0,90.0
41,39.5286766875,39.832730437500004,76.0,86.0
42,39.934081687500004,40.212797625,76.0,89.0
43,40.339486687500006,40.61313506250001,76.0,89.0
44,40.7448916875,41.047256250000004,76.0,87.0
45,41.1502966875,41.4002964375,76.0,85.0
46,41.555701687500004,41.820904125000006,76.0,84.0
47,41.961106687500006,42.238133437500004,76.0,88.0
48,42.3665116875,42.684078937500004,75.0,91.0
49,42.7719166875,43.0945515,71.0,90.0
50,43.177321687500005,43.51178081250001,71.0,84.0
51,43.582726687500006,44.320901625000005,76.0,93.0
52,44.798941687500005,45.1942115625,71.0,91.0
53,45.204346687500006,46.0388053125,76.0,91.0
54,46.420561687500005,46.719547875,76.0,89.0
55,46.82596668750001,47.11481775000001,76.0,89.0
56,47.2313716875,47.537114625,76.0,91.0
57,47.6367766875,47.956033125000005,75.0,93.0
58,48.042181687500005,48.380019187500004,73.0,91.0
59,48.44758668750001,50.4746116875,71.0,88.0
60,51.285421687500005,52.0962316875,75.0,91.0
61,52.5016366875,52.766839125000004,76.0,83.0
62,52.907041687500005,53.172244125000006,76.0,90.0
63,53.31244668750001,53.57764912500001,76.0,88.0
64,53.7178516875,54.033729750000006,76.0,91.0
65,54.1232566875,54.505013062500005,78.0,90.0
66,54.528661687500005,54.915485625,76.0,90.0
67,54.93406668750001,55.7448766875,80.0,90.0
68,55.7448766875,55.98980887500001,78.0,89.0
69,56.150281687500005,56.650281187500006,80.0,91.0
70,56.75838918750001,57.87832050000001,73.0,90.0
71,58.17730668750001,58.312441687500005,73.0,96.0
72,58.38000918750001,58.49825231250001,75.0,93.0
73,58.58271168750001,58.87156275,76.0,87.0
74,58.9881166875,59.25838668750001,76.0,86.0
75,59.393521687500005,59.6621025,76.0,85.0
76,59.79892668750001,60.4137909375,80.0,85.0
77,60.6097366875,60.961087687500005,81.0,92.0
78,61.015141687500005,61.280344125000006,80.0,89.0
79,61.42054668750001,62.24149181250001,80.0,90.0
80,62.2313566875,63.38626096875,78.0,91.0
81,63.464385937500005,63.74668725208334,68.0,96.0
82,63.885771689583336,64.19969689375,69.0,100.0
83,64.31001711041667,64.57692086041666,71.0,95.0
84,64.73706311041667,66.64555275833334,80.0,95.0
85,66.82291744583334,67.18271438333335,80.0,92.0
86,67.22832244583334,67.63203825833334,78.0,95.0
87,67.63372744583334,68.03237569583334,76.0,90.0
88,68.03913244583335,68.88203700833334,80.0,93.0
89,68.84994244583335,69.90568463333334,78.0,91.0
90,70.06615744583334,70.32629232083335,68.0,91.0
91,70.47156244583334,70.75365675833335,69.0,91.0
92,70.87696744583334,71.20298063333334,71.0,87.0
93,71.28237244583335,73.06953282083334,76.0,90.0
94,73.30939744583334,73.63709982083334,76.0,89.0
95,73.71480244583334,74.06784263333334,75.0,91.0
96,74.12020744583334,74.39723419583335,73.0,95.0
97,74.52561244583335,75.98000288333334,75.0,90.0
98,76.55263744583334,76.89047494583335,68.0,93.0
99,76.95804244583334,77.24858269583335,69.0,95.0
100,77.36344744583334,77.66581200833335,71.0,92.0
101,77.76885244583335,79.60331007083334,80.0,91.0
102,79.79587744583334,80.09486363333335,80.0,90.0
103,80.20128244583334,80.59655232083334,78.0,90.0
104,80.60668744583334,80.95634925833335,76.0,90.0
105,81.01209244583335,82.63371244583334,76.0,95.0
106,83.03911744583334,83.31276582083335,68.0,89.0
107,83.44452244583334,83.73506269583334,69.0,92.0
108,83.84992744583334,84.15735957083334,71.0,89.0
109,84.25533244583335,85.06614244583335,80.0,93.0
110,85.06614244583335,85.45127719583334,78.0,90.0
111,85.47154744583335,85.88370919583335,76.0,90.0
112,85.87695244583334,86.55093825833335,80.0,90.0
113,86.68776244583334,87.05262694583334,78.0,90.0
114,87.09316744583334,87.53742375833335,76.0,84.0
115,87.49857244583335,88.31107163333334,80.0,90.0
116,88.30938244583334,88.74350363333335,81.0,91.0
117,88.71478744583334,89.11174650833334,80.0,91.0
118,89.12019244583334,89.84992144583335,78.0,90.0
119,89.93100244583334,90.28573182083335,76.0,89.0
120,90.33640744583334,90.73843407083335,78.0,91.0
121,90.74181244583335,90.97492032083335,76.0,90.0
122,90.94451494583335,92.56613494583334,80.0,90.0
123,92.76883744583334,93.20633700833335,80.0,90.0
124,93.17424244583334,93.61343119583334,78.0,89.0
125,93.57964744583334,94.01207944583334,76.0,90.0
126,93.98505244583335,94.79248407083335,80.0,91.0
127,94.79586244583334,95.77896957083334,78.0,89.0
128,96.01207744583334,96.36680682083335,68.0,90.0
129,96.41748244583334,96.82964419583334,69.0,90.0
130,96.82288744583335,97.23504919583334,71.0,87.0
131,97.22829244583335,99.02896632083335,76.0,90.0
132,99.25531744583336,99.61680357083335,76.0,91.0
133,99.66072244583334,100.11849225833335,75.0,93.0
134,100.06612744583335,100.46646488333334,73.0,93.0
135,100.47153244583335,101.71646363333335,75.0,91.0
136,102.49855744583334,102.81443550833335,68.0,90.0
137,102.90396244583334,103.23504319583336,69.0,92.0
138,103.30936744583335,103.64720494583335,71.0,88.0
139,103.71477244583335,105.47321663333335,80.0,90.0
140,105.74179744583336,106.14382407083335,80.0,90.0
141,106.14720244583334,106.55936419583335,78.0,91.0
142,106.55260744583335,106.84821525833334,76.0,89.0
143,106.95801244583335,108.41747044583335,76.0,92.0
144,108.98503744583334,109.33469925833334,68.0,89.0
145,109.39044244583334,109.71138807083335,69.0,93.0
146,109.79584744583335,110.12861738333335,71.0,91.0
147,110.20125244583335,113.07793875833335,76.0,90.0
148,113.44449244583335,114.07455938333334,75.0,92.0
149,114.05259994583335,114.20969438333336,73.0,90.0
150,114.25530244583334,116.18773294583335,71.0,89.0
151,116.28232744583335,116.62185413333334,75.0,90.0
152,116.68773244583335,118.43773069583335,76.0,90.0
153,130.47150244583335,130.77555619583336,76.0,86.0
154,130.87690744583335,131.15562338333336,76.0,89.0
155,131.28231244583333,131.55596082083335,76.0,89.0
156,131.68771744583336,131.99008200833333,76.0,87.0
157,132.09312244583333,132.34312219583336,76.0,85.0
158,132.49852744583336,132.76372988333335,76.0,84.0
159,132.90393244583333,133.18095919583334,76.0,88.0
160,133.30933744583336,133.62690469583333,75.0,91.0
161,133.71474244583334,134.03737725833335,71.0,90.0
162,134.12014744583337,134.45460657083333,71.0,84.0
163,134.52555244583334,135.26372738333333,76.0,93.0
164,135.74176744583335,136.13703732083334,71.0,91.0
165,136.14717244583335,136.98163107083334,76.0,91.0
166,137.36338744583335,137.66237363333335,76.0,89.0
167,137.76879244583336,138.05764350833334,76.0,89.0
168,138.17419744583333,138.47994038333334,76.0,91.0
169,138.57960244583336,138.89885888333333,75.0,93.0
170,138.98500744583333,139.32284494583337,73.0,91.0
171,139.39041244583336,141.41743744583334,71.0,88.0
172,142.22824744583335,143.03905744583335,75.0,91.0
173,143.44446244583335,143.70966488333335,76.0,83.0
174,143.84986744583335,144.11506988333335,76.0,90.0
175,144.25527244583336,144.52047488333335,76.0,88.0
176,144.66067744583336,144.97655550833335,76.0,91.0
177,145.06608244583333,145.44783882083334,78.0,90.0
178,145.47148744583336,145.85831138333333,76.0,90.0
179,145.87689244583333,146.68770244583334,80.0,90.0
180,146.68770244583334,146.93263463333335,78.0,89.0
181,147.09310744583337,147.59310694583337,80.0,91.0
182,147.70121494583333,148.82114625833333,73.0,90.0
183,149.12013244583335,149.25526744583334,73.0,96.0
184,149.32283494583334,149.44107807083336,75.0,93.0
185,149.52553744583335,149.81438850833337,76.0,87.0
186,149.93094244583335,150.20121244583333,76.0,86.0
187,150.33634744583335,150.60492825833336,76.0,85.0
188,150.74175244583336,151.35661669583334,80.0,85.0
189,151.55256244583336,151.90391344583335,81.0,92.0
190,151.95796744583333,152.22316988333336,80.0,89.0
191,152.36337244583336,153.18431757083334,80.0,90.0
192,153.17418244583337,154.33549729375002,78.0,91.0
193,154.41472260625002,154.69817316875,68.0,96.0
194,154.83725760625,155.15347590208336,69.0,100.0
195,155.26379611875004,155.53160240208337,71.0,95.0
196,155.69464565208335,157.58842109583335,80.0,95.0
197,157.76578578333334,158.12558272083336,80.0,92.0
198,158.17119078333334,158.57490659583334,78.0,95.0
199,158.57659578333335,158.97524403333335,76.0,90.0
200,158.98200078333335,159.82490534583334,80.0,93.0
201,159.79281078333335,160.84855297083334,78.0,91.0
202,161.00902578333336,161.26916065833336,68.0,91.0
203,161.41443078333336,161.69652509583335,69.0,91.0
204,161.81983578333336,162.14584897083336,71.0,87.0
205,162.22524078333336,164.01240115833335,76.0,90.0
206,164.25226578333334,164.57996815833334,76.0,89.0
207,164.65767078333334,165.01071097083334,75.0,91.0
208,165.06307578333335,165.34010253333335,73.0,95.0
209,165.46848078333335,166.92287122083334,75.0,90.0
210,167.49550578333336,167.83334328333336,68.0,93.0
211,167.90091078333336,168.19145103333335,69.0,95.0
212,168.30631578333336,168.60868034583336,71.0,92.0
213,168.71172078333336,170.54617840833336,80.0,91.0
214,170.73874578333334,171.03773197083336,80.0,90.0
215,171.14415078333334,171.53942065833334,78.0,90.0
216,171.54955578333335,171.89921759583336,76.0,90.0
217,171.95496078333335,173.57658078333336,76.0,95.0
218,173.98198578333336,174.25563415833335,68.0,89.0
219,174.38739078333336,174.67793103333335,69.0,92.0
220,174.79279578333336,175.10022790833335,71.0,89.0
221,175.19820078333336,176.00901078333337,80.0,93.0
222,176.00901078333337,176.39414553333336,78.0,90.0
223,176.41441578333337,176.82657753333336,76.0,90.0
224,176.81982078333334,177.49380659583335,80.0,90.0
225,177.63063078333334,177.99549528333336,78.0,90.0
226,178.03603578333335,178.48029209583336,76.0,84.0
227,178.44144078333335,179.25393997083336,80.0,90.0
228,179.25225078333335,179.68637197083336,81.0,91.0
229,179.65765578333335,180.05461484583336,80.0,91.0
230,180.06306078333336,180.79278978333335,78.0,90.0
231,180.87387078333336,181.22860015833336,76.0,89.0
232,181.27927578333336,181.68130240833335,78.0,91.0
233,181.68468078333336,181.91778865833336,76.0,90.0
234,181.88738328333335,183.50900328333336,80.0,90.0
235,183.71170578333334,184.14920534583337,80.0,90.0
236,184.11711078333335,184.55629953333334,78.0,89.0
237,184.52251578333335,184.95494778333335,76.0,90.0
238,184.92792078333335,185.73535240833337,80.0,91.0
239,185.73873078333335,186.72183790833336,78.0,89.0
240,186.95494578333336,187.30967515833336,68.0,90.0
241,187.36035078333336,187.77251253333336,69.0,90.0
242,187.76575578333336,188.17791753333336,71.0,87.0
243,188.17116078333336,189.97183465833336,76.0,90.0
244,190.19818578333337,190.55967190833337,76.0,91.0
245,190.60359078333335,191.06136059583335,75.0,93.0
246,191.00899578333335,191.40933322083336,73.0,93.0
247,191.41440078333335,192.65933197083336,75.0,91.0
248,193.44142578333336,193.75730384583335,68.0,90.0
249,193.84683078333336,194.17791153333337,69.0,92.0
250,194.25223578333336,194.59007328333337,71.0,88.0
251,194.65764078333336,196.41608497083337,80.0,90.0
252,196.68466578333334,197.08669240833336,80.0,90.0
253,197.09007078333335,197.50223253333337,78.0,91.0
254,197.49547578333335,197.79108359583336,76.0,89.0
255,197.90088078333335,199.36033878333336,76.0,92.0
256,199.92790578333336,200.27756759583335,68.0,89.0
257,200.33331078333336,200.65425640833337,69.0,93.0
258,200.73871578333336,201.07148572083335,71.0,91.0
259,201.14412078333336,204.02080709583336,76.0,90.0
260,204.38736078333335,205.01742772083335,75.0,92.0
261,204.99546828333337,205.15256272083337,73.0,90.0
262,205.19817078333335,207.13060128333336,71.0,89.0
263,207.22519578333336,207.56472247083337,75.0,90.0
264,207.63060078333336,209.38059903333334,76.0,90.0
265,213.35690579583334,213.73252377083335,77.0,89.0
266,213.78658480416667,214.21618769583336,79.0,91.0
267,214.2197978041667,214.46881762916667,77.0,90.0
268,214.43640430416667,216.09705706666662,81.0,90.0
269,216.29975956666664,216.73725912916663,81.0,90.0
270,216.70516456666664,217.14435331666664,79.0,89.0
271,217.11056956666664,217.54300156666662,77.0,90.0
272,217.51597456666664,218.32340619166663,81.0,91.0
273,218.32678456666662,219.30989169166662,79.0,89.0
274,219.54299956666662,219.89772894166663,69.0,90.0
275,219.94840456666662,220.36056631666662,70.0,90.0
276,220.35380956666663,220.76597131666662,72.0,87.0
277,220.75921456666663,222.55988844166663,77.0,90.0
278,222.78623956666664,223.14772569166664,77.0,91.0
279,223.19164456666664,223.64941437916664,76.0,93.0
280,223.59704956666664,223.99738700416663,74.0,93.0
281,224.00245456666664,225.24738575416663,76.0,91.0
282,226.02947956666662,226.34535762916664,69.0,90.0
283,226.43488456666663,226.76596531666664,70.0,92.0
284,226.84028956666663,227.17812706666663,72.0,88.0
285,227.24569456666663,229.00413875416663,81.0,90.0
286,229.27271956666664,229.67474619166663,81.0,90.0
287,229.67812456666664,230.09028631666664,79.0,91.0
288,230.08352956666664,230.37913737916662,77.0,89.0
289,230.48893456666664,231.94839256666663,77.0,92.0
290,232.51595956666662,232.86562137916664,69.0,89.0
291,232.92136456666663,233.24231019166663,70.0,93.0
292,233.32676956666663,233.65953950416662,72.0,91.0
293,233.73217456666663,236.60886087916663,77.0,90.0
294,236.97541456666664,237.60548150416662,76.0,92.0
295,237.58352206666663,237.74061650416664,74.0,90.0
296,237.78622456666665,239.71865506666663,72.0,89.0
297,239.81324956666663,240.15277625416664,76.0,90.0
298,240.21865456666663,241.96865281666663,77.0,90.0
