,start,end,pitch,velocity
0,0.20439168750000003,0.8631748125,64.0,88.0
1,0.6097966875,1.1233096875000002,59.0,84.0
2,1.0152016875,1.5337822500000002,66.0,79.0
3,1.4206066875,1.9121602500000001,59.0,72.0
4,1.8260116875,2.3462814375,64.0,85.0
5,1.8260116875,2.3783760000000003,68.0,83.0
6,2.2314166875000003,2.6908756875,59.0,75.0
7,0.20439168750000003,3.0287131875,52.0,83.0
8,2.6368216875000003,3.2668886250000004,66.0,80.0
9,3.0422266875000004,3.374996625,59.0,76.0
10,3.4476316875000004,3.4898613750000003,59.0,62.0
11,3.4476316875000004,4.3141848750000005,64.0,85.0
12,3.8530366875000004,4.341211875000001,59.0,78.0
13,4.2584416875,4.7381709375000005,66.0,81.0
14,4.6638466875,4.915535625,59.0,74.0
15,5.0692516875,5.238170437500001,59.0,83.0
16,5.0692516875,5.692561875000001,64.0,84.0
17,5.4746566875000005,5.6942510625,59.0,76.0
18,5.0692516875,5.770264500000001,68.0,84.0
19,5.8800616875000005,6.4087773750000006,66.0,85.0
20,5.8800616875000005,6.643574437500001,59.0,90.0
21,3.4476316875000004,6.7398581250000005,48.0,83.0
22,6.6908716875000005,6.891885,59.0,84.0
23,6.6908716875000005,7.23647925,64.0,84.0
24,7.0962766875000005,7.5557356875,59.0,84.0
25,7.5016816875000005,7.9915460625,66.0,80.0
26,7.9070866875000005,8.1199243125,59.0,83.0
27,8.312491687500001,8.518572562500001,59.0,82.0
28,8.312491687500001,8.847964125,64.0,86.0
29,8.717896687500001,8.908774875,59.0,75.0
30,8.312491687500001,8.9712748125,68.0,85.0
31,9.123301687500001,9.594585,66.0,86.0
32,6.6908716875000005,9.7077605625,47.0,87.0
33,9.123301687500001,9.883436062500001,59.0,90.0
34,9.528706687500001,9.991544062500001,64.0,87.0
35,9.773638875000001,10.827691875000001,54.0,70.0
36,9.962827875,11.14188075,66.0,83.0
37,9.856409062500001,11.1537050625,58.0,85.0
38,9.893571187500001,11.173975312500001,61.0,74.0
39,11.1165429375,11.243232,54.0,83.0
40,10.717894687500001,11.268569812500001,49.0,87.0
41,9.920598187500001,11.310799500000002,42.0,87.0
42,11.503366875000001,12.363163312500001,42.0,74.0
43,11.383434562500002,13.099649062500001,54.0,73.0
44,11.466204750000001,13.099649062500001,58.0,82.0
45,11.5253263125,13.099649062500001,61.0,74.0
46,11.592893812500002,13.099649062500001,66.0,69.0
47,13.177351687500002,13.608094500000002,54.0,64.0
48,13.177351687500002,13.949310375000001,57.0,74.0
49,13.177351687500002,13.972959000000001,61.0,75.0
50,13.988161687500002,14.523634125000001,54.0,89.0
51,14.393566687500002,14.609782687500001,61.0,83.0
52,14.798971687500002,15.043903875000002,54.0,83.0
53,14.798971687500002,15.1604578125,66.0,83.0
54,13.582756687500002,15.728024812500001,49.0,81.0
55,13.177351687500002,15.773632875,42.0,90.0
56,15.609781687500002,15.825997687500001,54.0,87.0
57,15.609781687500002,15.864849000000001,57.0,84.0
58,15.609781687500002,15.966200250000002,61.0,90.0
59,16.0151866875,16.214510812500002,42.0,89.0
60,16.4205916875,16.9442398125,59.0,85.0
61,16.4205916875,16.9645100625,56.0,79.0
62,17.2314016875,17.4881581875,56.0,84.0
63,17.2314016875,17.5084284375,63.0,89.0
64,16.8259966875,17.624982375000002,51.0,73.0
65,16.4205916875,17.692549875,44.0,89.0
66,18.0422116875,18.371603250000003,61.0,86.0
67,18.0422116875,18.422278875,56.0,84.0
68,18.0422116875,18.842886562500002,49.0,89.0
69,18.0422116875,18.9138324375,64.0,84.0
70,18.8530216875,19.23646725,47.0,85.0
71,18.8530216875,19.239845625,54.0,78.0
72,18.8530216875,19.6739668125,63.0,89.0
73,19.6638316875,19.97970975,57.0,77.0
74,19.6638316875,20.2618040625,61.0,87.0
75,20.4746416875,20.633425312500002,57.0,85.0
76,20.069236687500002,20.864844,52.0,53.0
77,20.4746416875,20.903695312500002,61.0,90.0
78,19.6638316875,20.961127687500003,45.0,80.0
79,20.880046687500002,21.0185600625,57.0,84.0
80,21.2854516875,21.4577488125,54.0,80.0
81,21.2854516875,21.788829562500002,59.0,79.0
82,21.690856687500002,22.172275125000002,54.0,83.0
83,21.2854516875,22.175653500000003,47.0,88.0
84,22.096261687500004,22.195923750000002,59.0,85.0
85,22.096261687500004,22.231396687500002,63.0,90.0
86,22.907071687500004,23.410449562500002,56.0,77.0
87,22.907071687500004,23.464503562500003,64.0,82.0
88,23.717881687500004,24.179029875,59.0,85.0
89,23.717881687500004,24.199300125,64.0,84.0
90,24.123286687500002,24.347948625,56.0,73.0
91,24.528691687500004,24.673961812500004,56.0,87.0
92,24.528691687500004,24.949299375000002,59.0,90.0
93,23.312476687500002,24.979704750000003,47.0,79.0
94,22.907071687500004,25.0489614375,40.0,88.0
95,24.528691687500004,25.35808275,64.0,87.0
96,25.339501687500004,25.979703750000002,71.0,84.0
97,25.339501687500004,25.979703750000002,75.0,88.0
98,25.339501687500004,25.991528062500002,39.0,88.0
99,25.339501687500004,26.172271125,63.0,91.0
100,26.150311687500004,26.3496358125,61.0,83.0
101,26.150311687500004,26.594568000000002,64.0,83.0
102,26.150311687500004,26.616527437500004,68.0,84.0
103,26.150311687500004,26.699297625000003,37.0,90.0
104,26.555716687500002,26.7482840625,61.0,72.0
105,26.961121687500004,27.189162000000003,64.0,87.0
106,26.961121687500004,27.192540375000004,61.0,87.0
107,26.961121687500004,27.395242875,68.0,88.0
108,27.771931687500004,27.983080125,60.0,78.0
109,27.771931687500004,28.251660937500002,68.0,75.0
110,27.771931687500004,28.263485250000002,64.0,81.0
111,28.177336687500002,28.371593250000004,60.0,78.0
112,27.771931687500004,28.788822562500002,48.0,81.0
113,28.582741687500004,29.0286871875,60.0,90.0
114,28.988146687500002,29.217876187500003,48.0,83.0
115,28.582741687500004,29.229700500000003,64.0,85.0
116,28.582741687500004,29.258416687500002,68.0,84.0
117,29.393551687500004,29.626659562500002,59.0,81.0
118,29.393551687500004,29.895240375000004,68.0,84.0
119,29.393551687500004,30.001659187500003,64.0,85.0
120,29.798956687500002,30.048956437500003,59.0,76.0
121,30.204361687500004,30.368212875,59.0,89.0
122,30.204361687500004,30.7280098125,64.0,89.0
123,30.204361687500004,30.780374625000004,68.0,89.0
124,30.609766687500002,30.839496187500004,59.0,89.0
125,29.393551687500004,30.871590750000003,47.0,90.0
126,31.015171687500004,31.491522562500002,61.0,83.0
127,31.015171687500004,31.672265625,58.0,83.0
128,31.420576687500002,32.1401705625,52.0,75.0
129,31.015171687500004,32.2381434375,46.0,89.0
130,31.825981687500004,32.356386562500006,61.0,78.0
131,31.825981687500004,33.503344875,64.0,82.0
132,33.447601687500004,33.935776875,57.0,93.0
133,33.853006687500006,34.354695375000006,61.0,89.0
134,34.2584116875,34.69591125,66.0,86.0
135,34.6638166875,34.837803,54.0,74.0
136,33.0421966875,35.202667500000004,49.0,79.0
137,32.6367916875,35.2212485625,42.0,88.0
138,35.069221687500004,35.2753025625,57.0,89.0
139,35.069221687500004,35.304018750000004,54.0,90.0
140,35.069221687500004,35.5050320625,61.0,90.0
141,35.8800316875,35.972937,35.0,87.0
142,35.8800316875,36.20266650000001,54.0,84.0
143,35.8800316875,36.3394906875,59.0,87.0
144,37.096246687500006,37.3192194375,61.0,83.0
145,36.690841687500004,37.636786687500006,54.0,89.0
146,37.5016516875,37.8513135,59.0,85.0
147,37.5016516875,37.905367500000004,63.0,91.0
148,37.9070566875,38.412123750000006,54.0,79.0
149,36.2854366875,38.5590830625,47.0,81.0
150,38.312461687500004,38.780366625000006,63.0,90.0
151,38.312461687500004,38.81921793750001,59.0,84.0
152,38.312461687500004,38.836109812500005,66.0,88.0
153,38.717866687500006,38.864826,54.0,80.0
154,39.1232716875,39.5540145,54.0,64.0
155,39.1232716875,39.895230375000004,57.0,74.0
156,39.1232716875,39.918879000000004,61.0,75.0
157,39.934081687500004,40.469554125,54.0,89.0
158,40.339486687500006,40.5557026875,61.0,83.0
159,40.7448916875,40.989823875000006,54.0,83.0
160,40.7448916875,41.10637781250001,66.0,83.0
161,39.5286766875,41.673944812500004,49.0,81.0
162,39.1232716875,41.719552875000005,42.0,90.0
163,41.555701687500004,41.7719176875,54.0,87.0
164,41.555701687500004,41.810769,57.0,84.0
165,41.555701687500004,41.91212025,61.0,90.0
166,41.961106687500006,42.1604308125,42.0,89.0
167,42.3665116875,42.8901598125,59.0,85.0
168,42.3665116875,42.910430062500005,56.0,79.0
169,43.177321687500005,43.434078187500006,56.0,84.0
170,43.177321687500005,43.4543484375,63.0,89.0
171,42.7719166875,43.570902375,51.0,73.0
172,42.3665116875,43.638469875000006,44.0,89.0
173,43.9881316875,44.31752325,61.0,86.0
174,43.9881316875,44.368198875000004,56.0,84.0
175,43.9881316875,44.78880656250001,49.0,89.0
176,43.9881316875,44.859752437500006,64.0,84.0
177,44.798941687500005,45.182387250000005,47.0,85.0
178,44.798941687500005,45.185765625,54.0,78.0
179,44.798941687500005,45.619886812500006,63.0,89.0
180,45.6097516875,45.925629750000006,57.0,77.0
181,45.6097516875,46.207724062500006,61.0,87.0
182,46.420561687500005,46.5793453125,57.0,85.0
183,46.0151566875,46.810764000000006,52.0,53.0
184,46.420561687500005,46.849615312500006,61.0,90.0
185,45.6097516875,46.907047687500004,45.0,80.0
186,46.82596668750001,46.9644800625,57.0,84.0
187,47.2313716875,47.4036688125,54.0,80.0
188,47.2313716875,47.73474956250001,59.0,79.0
189,47.6367766875,48.11819512500001,54.0,83.0
190,47.2313716875,48.121573500000004,47.0,88.0
191,48.042181687500005,48.14184375000001,59.0,85.0
192,48.042181687500005,48.1773166875,63.0,90.0
193,48.8529916875,49.35636956250001,56.0,77.0
194,48.8529916875,49.41042356250001,64.0,82.0
195,49.663801687500005,50.124949875000006,59.0,85.0
196,49.663801687500005,50.145220125,64.0,84.0
197,50.06920668750001,50.293868625,56.0,73.0
198,50.4746116875,50.619881812500005,56.0,87.0
199,50.4746116875,50.895219375,59.0,90.0
200,49.2583966875,50.925624750000004,47.0,79.0
201,48.8529916875,50.994881437500005,40.0,88.0
202,50.4746116875,51.30400275,64.0,87.0
203,51.285421687500005,51.92562375000001,71.0,84.0
204,51.285421687500005,51.92562375000001,75.0,88.0
205,51.285421687500005,51.9374480625,39.0,88.0
206,51.285421687500005,52.118191125,63.0,91.0
207,52.0962316875,52.295555812500005,61.0,83.0
208,52.0962316875,52.540488,64.0,83.0
209,52.0962316875,52.562447437500005,68.0,84.0
210,52.0962316875,52.64521762500001,37.0,90.0
211,52.5016366875,52.694204062500006,61.0,72.0
212,52.907041687500005,53.135082000000004,64.0,87.0
213,52.907041687500005,53.13846037500001,61.0,87.0
214,52.907041687500005,53.341162875,68.0,88.0
215,53.7178516875,53.929000125,60.0,78.0
216,53.7178516875,54.19758093750001,68.0,75.0
217,53.7178516875,54.20940525,64.0,81.0
218,54.1232566875,54.317513250000005,60.0,78.0
219,53.7178516875,54.7347425625,48.0,81.0
220,54.528661687500005,54.974607187500006,60.0,90.0
221,54.93406668750001,55.163796187500004,48.0,83.0
222,54.528661687500005,55.17562050000001,64.0,85.0
223,54.528661687500005,55.2043366875,68.0,84.0
224,55.3394716875,55.5725795625,59.0,81.0
225,55.3394716875,55.84116037500001,68.0,84.0
226,55.3394716875,55.947579187500004,64.0,85.0
227,55.7448766875,55.994876437500004,59.0,76.0
228,56.150281687500005,56.314132875000006,59.0,89.0
229,56.150281687500005,56.673929812500006,64.0,89.0
230,56.150281687500005,56.72629462500001,68.0,89.0
231,56.55568668750001,56.785416187500005,59.0,89.0
232,55.3394716875,56.817510750000004,47.0,90.0
233,56.96109168750001,57.4374425625,61.0,83.0
234,56.96109168750001,57.618185625,58.0,83.0
235,57.3664966875,58.086090562500004,52.0,75.0
236,56.96109168750001,58.18406343750001,46.0,89.0
237,57.771901687500005,58.30230656250001,61.0,78.0
238,57.771901687500005,59.449264875000004,64.0,82.0
239,59.393521687500005,59.881696875,57.0,93.0
240,59.79892668750001,60.30061537500001,61.0,89.0
241,60.20433168750001,60.64183125,66.0,86.0
242,60.6097366875,60.783723,54.0,74.0
243,58.9881166875,61.148587500000005,49.0,79.0
244,58.58271168750001,61.1671685625,42.0,88.0
245,61.015141687500005,61.2212225625,57.0,89.0
246,61.015141687500005,61.249938750000005,54.0,90.0
247,61.015141687500005,61.45095206250001,61.0,90.0
248,61.82595168750001,61.918857,35.0,87.0
249,61.82595168750001,62.14858650000001,54.0,84.0
250,61.82595168750001,62.285410687500004,59.0,87.0
251,63.050311820833336,63.2768860125,61.0,83.0
252,62.63935332083334,63.60408168958334,54.0,89.0
253,63.464385937500005,63.82767312708334,59.0,85.0
254,63.464385937500005,63.88401112708334,63.0,91.0
255,63.885771689583336,64.41499925208333,54.0,79.0
256,62.2313566875,64.56980342708334,47.0,81.0
257,64.31001711041667,64.80399530208334,63.0,90.0
258,64.31001711041667,64.84566191041667,59.0,84.0
259,64.31001711041667,64.86377782708334,66.0,88.0
260,64.73706311041667,64.89457488541667,54.0,80.0
261,65.17174841041667,65.72698217916667,56.0,81.0
262,65.17174841041667,65.73584741875,59.0,84.0
263,66.01210744583334,66.37359357083334,64.0,90.0
264,66.01210744583334,66.48339075833334,59.0,89.0
265,66.41751244583334,66.60670144583334,56.0,80.0
266,66.82291744583334,66.95298488333334,56.0,77.0
267,66.82291744583334,67.02899832083334,59.0,81.0
268,67.22832244583334,67.40568713333334,56.0,67.0
269,65.59932272916667,67.78575432083335,47.0,78.0
270,65.17174841041667,67.78913269583335,40.0,89.0
271,67.63372744583334,67.99014600833334,56.0,90.0
272,67.63372744583334,68.08136213333334,59.0,94.0
273,68.03913244583335,68.20636200833334,40.0,90.0
274,67.63372744583334,68.38034832083335,64.0,90.0
275,68.44453744583335,68.65906425833334,54.0,88.0
276,68.44453744583335,68.98169907083334,63.0,90.0
277,68.44453744583335,68.98507744583334,59.0,84.0
278,68.84994244583335,69.33305007083334,54.0,81.0
279,69.25534744583334,69.39386082083334,59.0,90.0
280,69.25534744583334,69.56446875833335,63.0,93.0
281,69.66075244583334,69.86683332083334,54.0,77.0
282,68.44453744583335,70.11345469583334,39.0,89.0
283,70.06615744583334,70.21480594583335,54.0,84.0
284,70.06615744583334,70.26885994583334,59.0,89.0
285,70.06615744583334,70.54757588333334,63.0,89.0
286,70.47156244583334,70.67088657083335,54.0,76.0
287,70.87696744583334,71.16750769583334,54.0,90.0
288,70.87696744583334,71.18439957083334,59.0,93.0
289,70.87696744583334,71.27054813333334,63.0,92.0
290,71.28237244583335,71.50365600833334,35.0,96.0
291,71.68777744583335,71.86176375833334,56.0,82.0
292,71.68777744583335,72.18777694583335,64.0,83.0
293,71.68777744583335,72.19791207083334,61.0,85.0
294,71.68777744583335,72.41750644583334,37.0,91.0
295,72.09318244583335,72.59824950833334,56.0,77.0
296,72.49858744583334,72.65061432083334,61.0,90.0
297,72.49858744583334,72.83811413333335,64.0,90.0
298,72.90399244583334,73.14892463333334,56.0,82.0
299,73.30939744583334,73.49858644583334,61.0,91.0
300,73.30939744583334,73.77899157083334,64.0,88.0
301,73.71480244583334,74.01885619583334,56.0,81.0
302,74.12020744583334,74.38540988333334,61.0,90.0
303,74.12020744583334,74.40905850833335,64.0,85.0
304,74.52561244583335,74.70973388333334,61.0,89.0
305,74.52561244583335,74.72831494583335,56.0,81.0
306,74.52561244583335,74.74013925833334,64.0,87.0
307,74.52561244583335,74.75872032083335,37.0,93.0
308,74.93101744583335,75.13034157083334,54.0,86.0
309,74.93101744583335,75.39892238333334,63.0,91.0
310,74.93101744583335,75.40567913333334,59.0,87.0
311,75.33642244583334,75.60838163333334,54.0,79.0
312,75.74182744583334,75.87020569583335,59.0,85.0
313,75.74182744583334,75.90398944583335,63.0,89.0
314,74.93101744583335,76.22155669583334,35.0,90.0
315,76.14723244583334,76.31784038333335,54.0,75.0
316,76.55263744583334,76.67594813333335,54.0,84.0
317,76.55263744583334,76.73844807083334,59.0,85.0
318,76.55263744583334,77.04081263333335,63.0,90.0
319,76.95804244583334,77.12020444583334,54.0,82.0
320,77.36344744583334,77.65398769583334,59.0,93.0
321,77.36344744583334,77.65736607083335,54.0,90.0
322,77.36344744583334,77.73000113333335,63.0,92.0
323,77.76885244583335,77.84655507083335,35.0,90.0
324,78.17425744583335,78.35837888333334,52.0,86.0
325,78.17425744583335,78.63878400833335,61.0,89.0
326,78.17425744583335,78.64891913333335,57.0,80.0
327,78.57966244583335,78.90398644583334,52.0,87.0
328,78.98506744583334,79.12527000833335,57.0,90.0
329,78.98506744583334,79.13202675833334,61.0,90.0
330,78.17425744583335,79.64553975833334,45.0,98.0
331,79.39047244583334,79.87864763333334,52.0,89.0
332,79.79587744583334,80.26209319583334,57.0,85.0
333,79.79587744583334,80.39553900833334,64.0,89.0
334,80.20128244583334,80.54925507083334,52.0,89.0
335,79.79587744583334,80.78405213333335,45.0,83.0
336,80.60668744583334,80.99520057083335,57.0,89.0
337,80.60668744583334,81.15060582083335,61.0,89.0
338,81.01209244583335,81.29080838333334,45.0,95.0
339,81.41749744583335,81.69283500833335,56.0,85.0
340,81.41749744583335,81.91580775833334,64.0,90.0
341,81.41749744583335,81.95128069583335,59.0,90.0
342,81.82290244583334,82.12695619583334,56.0,81.0
343,82.22830744583334,82.33810463333334,56.0,87.0
344,82.22830744583334,82.44114507083334,59.0,94.0
345,82.22830744583334,82.48168557083335,64.0,89.0
346,82.63371244583334,82.82121225833335,56.0,74.0
347,83.03911744583334,83.19790107083334,56.0,82.0
348,83.03911744583334,83.27729288333335,59.0,87.0
349,83.24181994583334,83.27729288333335,59.0,60.0
350,83.03911744583334,83.53067100833334,64.0,83.0
351,83.44452244583334,83.63540063333335,56.0,75.0
352,81.41749744583335,84.04249482083334,44.0,90.0
353,83.84992744583334,84.25195407083334,59.0,96.0
354,83.84992744583334,84.26715675833334,56.0,89.0
355,84.25533244583335,84.42256200833334,44.0,92.0
356,83.84992744583334,84.50702138333335,64.0,89.0
357,84.66073744583335,84.95634525833334,54.0,82.0
358,84.66073744583335,85.06952082083335,57.0,78.0
359,84.66073744583335,85.14891263333334,61.0,86.0
360,85.06614244583335,85.58472300833334,49.0,78.0
361,85.47154744583335,85.60161488333334,54.0,80.0
362,84.66073744583335,85.69958775833334,42.0,90.0
363,85.47154744583335,85.76039850833334,57.0,90.0
364,85.47154744583335,85.77053363333334,61.0,89.0
365,86.28235744583334,86.46478969583335,54.0,89.0
366,86.28235744583334,86.64891113333334,66.0,87.0
367,86.28235744583334,86.74350563333334,61.0,91.0
368,86.28235744583334,86.76208669583335,57.0,90.0
369,86.68776244583334,86.90397844583335,54.0,78.0
370,85.87695244583334,87.24688350833334,49.0,77.0
371,87.09316744583334,87.41580225833334,54.0,89.0
372,87.09316744583334,87.44451844583335,57.0,92.0
373,87.09316744583334,87.53066700833335,61.0,91.0
374,87.49857244583335,87.80262619583334,42.0,93.0
375,87.90397744583335,88.09992319583334,54.0,85.0
376,87.90397744583335,88.40397694583335,59.0,90.0
377,88.30938244583334,88.49350388333335,54.0,81.0
378,87.90397744583335,88.74688200833334,47.0,98.0
379,88.71478744583334,88.83978732083335,54.0,89.0
380,88.71478744583334,89.17762482083334,63.0,92.0
381,88.71478744583334,89.19789507083334,59.0,92.0
382,89.12019244583334,89.40904350833334,54.0,90.0
383,89.52559744583334,89.70296213333334,54.0,91.0
384,89.52559744583334,90.01884019583335,59.0,90.0
385,89.93100244583334,90.11343469583335,54.0,83.0
386,89.52559744583334,90.37694794583334,35.0,90.0
387,89.52559744583334,90.37694794583334,35.0,91.0
388,90.33640744583334,90.48505594583335,54.0,87.0
389,90.33640744583334,90.98336625833335,63.0,93.0
390,90.33640744583334,91.01377163333335,59.0,93.0
391,90.74181244583335,91.03235269583334,54.0,91.0
392,91.14721744583335,91.67424394583334,56.0,81.0
393,91.14721744583335,91.68268988333335,59.0,84.0
394,91.95802744583335,92.31951357083335,64.0,90.0
395,91.95802744583335,92.42931075833334,59.0,89.0
396,92.36343244583334,92.55262144583335,56.0,80.0
397,92.76883744583334,92.89890488333334,56.0,77.0
398,92.76883744583334,92.97491832083335,59.0,81.0
399,93.17424244583334,93.35160713333335,56.0,67.0
400,91.55262244583335,93.73167432083335,47.0,78.0
401,91.14721744583335,93.73505269583335,40.0,89.0
402,93.57964744583334,93.93606600833334,56.0,90.0
403,93.57964744583334,94.02728213333334,59.0,94.0
404,93.98505244583335,94.15228200833334,40.0,90.0
405,93.57964744583334,94.32626832083335,64.0,90.0
406,94.39045744583335,94.60498425833335,54.0,88.0
407,94.39045744583335,94.92761907083334,63.0,90.0
408,94.39045744583335,94.93099744583334,59.0,84.0
409,94.79586244583334,95.27897007083334,54.0,81.0
410,95.20126744583334,95.33978082083334,59.0,90.0
411,95.20126744583334,95.51038875833335,63.0,93.0
412,95.60667244583334,95.81275332083334,54.0,77.0
413,94.39045744583335,96.05937469583334,39.0,89.0
414,96.01207744583334,96.16072594583335,54.0,84.0
415,96.01207744583334,96.21477994583334,59.0,89.0
416,96.01207744583334,96.49349588333334,63.0,89.0
417,96.41748244583334,96.61680657083335,54.0,76.0
418,96.82288744583335,97.11342769583334,54.0,90.0
419,96.82288744583335,97.13031957083334,59.0,93.0
420,96.82288744583335,97.21646813333334,63.0,92.0
421,97.22829244583335,97.44957600833334,35.0,96.0
422,97.63369744583335,97.80768375833335,56.0,82.0
423,97.63369744583335,98.13369694583335,64.0,83.0
424,97.63369744583335,98.14383207083335,61.0,85.0
425,97.63369744583335,98.36342644583334,37.0,91.0
426,98.03910244583335,98.54416950833334,56.0,77.0
427,98.44450744583335,98.59653432083334,61.0,90.0
428,98.44450744583335,98.78403413333334,64.0,90.0
429,98.84991244583335,99.09484463333334,56.0,82.0
430,99.25531744583336,99.44450644583335,61.0,91.0
431,99.25531744583336,99.72491157083334,64.0,88.0
432,99.66072244583334,99.96477619583334,56.0,81.0
433,100.06612744583335,100.33132988333335,61.0,90.0
434,100.06612744583335,100.35497850833335,64.0,85.0
435,100.47153244583335,100.65565388333334,61.0,89.0
436,100.47153244583335,100.67423494583335,56.0,81.0
437,100.47153244583335,100.68605925833334,64.0,87.0
438,100.47153244583335,100.70464032083335,37.0,93.0
439,100.87693744583335,101.07626157083334,54.0,86.0
440,100.87693744583335,101.34484238333334,63.0,91.0
441,100.87693744583335,101.35159913333334,59.0,87.0
442,101.28234244583334,101.55430163333335,54.0,79.0
443,101.68774744583334,101.81612569583334,59.0,85.0
444,101.68774744583334,101.84990944583335,63.0,89.0
445,100.87693744583335,102.16747669583334,35.0,90.0
446,102.09315244583334,102.26376038333335,54.0,75.0
447,102.49855744583334,102.62186813333335,54.0,84.0
448,102.49855744583334,102.68436807083334,59.0,85.0
449,102.49855744583334,102.98673263333335,63.0,90.0
450,102.90396244583334,103.06612444583334,54.0,82.0
451,103.30936744583335,103.59990769583334,59.0,93.0
452,103.30936744583335,103.60328607083335,54.0,90.0
453,103.30936744583335,103.67592113333335,63.0,92.0
454,103.71477244583335,103.79247507083335,35.0,90.0
455,104.12017744583335,104.30429888333335,52.0,86.0
456,104.12017744583335,104.58470400833335,61.0,89.0
457,104.12017744583335,104.59483913333335,57.0,80.0
458,104.52558244583335,104.84990644583334,52.0,87.0
459,104.93098744583335,105.07119000833335,57.0,90.0
460,104.93098744583335,105.07794675833335,61.0,90.0
461,104.12017744583335,105.59145975833334,45.0,98.0
462,105.33639244583335,105.82456763333334,52.0,89.0
463,105.74179744583336,106.20801319583335,57.0,85.0
464,105.74179744583336,106.34145900833335,64.0,89.0
465,106.14720244583334,106.49517507083334,52.0,89.0
466,105.74179744583336,106.72997213333335,45.0,83.0
467,106.55260744583335,106.94112057083335,57.0,89.0
468,106.55260744583335,107.09652582083335,61.0,89.0
469,106.95801244583335,107.23672838333334,45.0,95.0
470,107.36341744583335,107.63875500833335,56.0,85.0
471,107.36341744583335,107.86172775833334,64.0,90.0
472,107.36341744583335,107.89720069583335,59.0,90.0
473,107.76882244583334,108.07287619583335,56.0,81.0
474,108.17422744583334,108.28402463333335,56.0,87.0
475,108.17422744583334,108.38706507083334,59.0,94.0
476,108.17422744583334,108.42760557083335,64.0,89.0
477,108.57963244583334,108.76713225833335,56.0,74.0
478,108.98503744583334,109.14382107083335,56.0,82.0
479,108.98503744583334,109.22321288333335,59.0,87.0
480,109.18773994583334,109.22321288333335,59.0,60.0
481,108.98503744583334,109.47659100833334,64.0,83.0
482,109.39044244583334,109.58132063333335,56.0,75.0
483,107.36341744583335,109.98841482083336,44.0,90.0
484,109.79584744583335,110.19787407083334,59.0,96.0
485,109.79584744583335,110.21307675833334,56.0,89.0
486,110.20125244583335,110.36848200833334,44.0,92.0
487,109.79584744583335,110.45294138333335,64.0,89.0
488,110.60665744583335,110.90226525833334,54.0,82.0
489,110.60665744583335,111.01544082083335,57.0,78.0
490,110.60665744583335,111.09483263333334,61.0,86.0
491,111.01206244583335,111.53064300833336,49.0,78.0
492,111.41746744583335,111.54753488333336,54.0,80.0
493,110.60665744583335,111.64550775833334,42.0,90.0
494,111.41746744583335,111.70631850833334,57.0,90.0
495,111.41746744583335,111.71645363333334,61.0,89.0
496,112.22827744583336,112.41070969583335,54.0,89.0
497,112.22827744583336,112.59483113333334,66.0,87.0
498,112.22827744583336,112.68942563333334,61.0,91.0
499,112.22827744583336,112.70800669583335,57.0,90.0
500,112.63368244583334,112.84989844583335,54.0,78.0
501,111.82287244583335,113.19280350833336,49.0,77.0
502,113.03908744583335,113.36172225833334,54.0,89.0
503,113.03908744583335,113.39043844583335,57.0,92.0
504,113.03908744583335,113.47658700833335,61.0,91.0
505,113.44449244583335,113.74854619583334,42.0,93.0
506,113.84989744583335,114.04584319583336,54.0,85.0
507,113.84989744583335,114.34989694583334,59.0,90.0
508,114.25530244583334,114.43942388333335,54.0,81.0
509,113.84989744583335,114.69280200833335,47.0,98.0
510,114.66070744583334,114.78570732083335,54.0,89.0
511,114.66070744583334,115.12354482083335,63.0,92.0
512,114.66070744583334,115.14381507083334,59.0,92.0
513,115.06611244583334,115.35496350833336,54.0,90.0
514,115.47151744583334,115.64888213333334,54.0,91.0
515,115.47151744583334,115.96476019583335,59.0,90.0
516,115.87692244583334,116.05935469583335,54.0,83.0
517,115.47151744583334,116.32286794583334,35.0,90.0
518,115.47151744583334,116.32286794583334,35.0,91.0
519,116.28232744583335,116.43097594583335,54.0,87.0
520,116.28232744583335,116.92928625833335,63.0,93.0
521,116.28232744583335,116.95969163333335,59.0,93.0
522,116.68773244583335,116.97827269583334,54.0,91.0
523,117.09313744583335,117.75192057083335,64.0,88.0
524,117.49854244583335,118.01205544583334,59.0,84.0
525,117.90394744583335,118.42252800833334,66.0,79.0
526,118.30935244583335,118.80090600833336,59.0,72.0
527,118.71475744583336,119.23502719583334,64.0,85.0
528,118.71475744583336,119.26712175833335,68.0,83.0
529,119.12016244583334,119.57962144583334,59.0,75.0
530,117.09313744583335,119.91745894583335,52.0,83.0
531,119.52556744583335,120.15563438333335,66.0,80.0
532,119.93097244583335,120.26374238333335,59.0,76.0
533,120.33637744583335,120.37860713333335,59.0,62.0
534,120.33637744583335,121.20293063333335,64.0,85.0
535,120.74178244583334,121.22995763333336,59.0,78.0
536,121.14718744583334,121.62691669583334,66.0,81.0
537,121.55259244583334,121.80428138333335,59.0,74.0
538,121.95799744583334,122.12691619583335,59.0,83.0
539,121.95799744583334,122.58130763333335,64.0,84.0
540,122.36340244583334,122.58299682083334,59.0,76.0
541,121.95799744583334,122.65901025833335,68.0,84.0
542,122.76880744583335,123.29752313333336,66.0,85.0
543,122.76880744583335,123.53232019583335,59.0,90.0
544,120.33637744583335,123.62860388333334,48.0,83.0
545,123.57961744583335,123.78063075833334,59.0,84.0
546,123.57961744583335,124.12522500833335,64.0,84.0
547,123.98502244583335,124.44448144583335,59.0,84.0
548,124.39042744583335,124.88029182083335,66.0,80.0
549,124.79583244583335,125.00867007083335,59.0,83.0
550,125.20123744583336,125.40731832083335,59.0,82.0
551,125.20123744583336,125.73670988333335,64.0,86.0
552,125.60664244583334,125.79752063333335,59.0,75.0
553,125.20123744583336,125.86002057083334,68.0,85.0
554,126.01204744583335,126.48333075833335,66.0,86.0
555,123.57961744583335,126.59650632083336,47.0,87.0
556,126.01204744583335,126.77218182083334,59.0,90.0
557,126.41745244583335,126.88028982083335,64.0,87.0
558,126.66238463333335,127.71643763333336,54.0,70.0
559,126.85157363333335,128.03062650833334,66.0,83.0
560,126.74515482083335,128.04245082083335,58.0,85.0
561,126.78231694583334,128.06272107083333,61.0,74.0
562,128.00528869583334,128.13197775833333,54.0,83.0
563,127.60664044583335,128.15731557083336,49.0,87.0
564,126.80934394583335,128.19954525833333,42.0,87.0
565,128.39211263333334,129.25190907083334,42.0,74.0
566,128.27218032083334,129.98839482083335,54.0,73.0
567,128.35495050833333,129.98839482083335,58.0,82.0
568,128.41407207083336,129.98839482083335,61.0,74.0
569,128.48163957083335,129.98839482083335,66.0,69.0
570,130.06609744583335,130.49684025833335,54.0,64.0
571,130.06609744583335,130.83805613333334,57.0,74.0
572,130.06609744583335,130.86170475833336,61.0,75.0
573,130.87690744583335,131.41237988333336,54.0,89.0
574,131.28231244583333,131.49852844583336,61.0,83.0
575,131.68771744583336,131.93264963333337,54.0,83.0
576,131.68771744583336,132.04920357083336,66.0,83.0
577,130.47150244583335,132.61677057083335,49.0,81.0
578,130.06609744583335,132.66237863333333,42.0,90.0
579,132.49852744583336,132.71474344583334,54.0,87.0
580,132.49852744583336,132.75359475833335,57.0,84.0
581,132.49852744583336,132.85494600833334,61.0,90.0
582,132.90393244583333,133.10325657083337,42.0,89.0
583,133.30933744583336,133.83298557083333,59.0,85.0
584,133.30933744583336,133.85325582083334,56.0,79.0
585,134.12014744583337,134.37690394583336,56.0,84.0
586,134.12014744583337,134.39717419583334,63.0,89.0
587,133.71474244583334,134.51372813333336,51.0,73.0
588,133.30933744583336,134.58129563333335,44.0,89.0
589,134.93095744583334,135.26034900833335,61.0,86.0
590,134.93095744583334,135.31102463333335,56.0,84.0
591,134.93095744583334,135.73163232083334,49.0,89.0
592,134.93095744583334,135.80257819583335,64.0,84.0
593,135.74176744583335,136.12521300833333,47.0,85.0
594,135.74176744583335,136.12859138333334,54.0,78.0
595,135.74176744583335,136.56271257083336,63.0,89.0
596,136.55257744583335,136.86845550833334,57.0,77.0
597,136.55257744583335,137.15054982083336,61.0,87.0
598,137.36338744583335,137.52217107083334,57.0,85.0
599,136.95798244583335,137.75358975833336,52.0,53.0
600,137.36338744583335,137.79244107083335,61.0,90.0
601,136.55257744583335,137.84987344583334,45.0,80.0
602,137.76879244583336,137.90730582083336,57.0,84.0
603,138.17419744583333,138.34649457083333,54.0,80.0
604,138.17419744583333,138.67757532083334,59.0,79.0
605,138.57960244583336,139.06102088333336,54.0,83.0
606,138.17419744583333,139.06439925833337,47.0,88.0
607,138.98500744583333,139.08466950833335,59.0,85.0
608,138.98500744583333,139.12014244583335,63.0,90.0
609,139.79581744583334,140.29919532083335,56.0,77.0
610,139.79581744583334,140.35324932083336,64.0,82.0
611,140.60662744583334,141.06777563333335,59.0,85.0
612,140.60662744583334,141.08804588333334,64.0,84.0
613,141.01203244583337,141.23669438333334,56.0,73.0
614,141.41743744583334,141.56270757083337,56.0,87.0
615,141.41743744583334,141.83804513333337,59.0,90.0
616,140.20122244583337,141.86845050833335,47.0,79.0
617,139.79581744583334,141.93770719583335,40.0,88.0
618,141.41743744583334,142.24682850833335,64.0,87.0
619,142.22824744583335,142.86844950833336,71.0,84.0
620,142.22824744583335,142.86844950833336,75.0,88.0
621,142.22824744583335,142.88027382083334,39.0,88.0
622,142.22824744583335,143.06101688333337,63.0,91.0
623,143.03905744583335,143.23838157083335,61.0,83.0
624,143.03905744583335,143.48331375833334,64.0,83.0
625,143.03905744583335,143.50527319583335,68.0,84.0
626,143.03905744583335,143.58804338333334,37.0,90.0
627,143.44446244583335,143.63702982083333,61.0,72.0
628,143.84986744583335,144.07790775833337,64.0,87.0
629,143.84986744583335,144.08128613333335,61.0,87.0
630,143.84986744583335,144.28398863333337,68.0,88.0
631,144.66067744583336,144.87182588333334,60.0,78.0
632,144.66067744583336,145.14040669583335,68.0,75.0
633,144.66067744583336,145.15223100833333,64.0,81.0
634,145.06608244583333,145.26033900833335,60.0,78.0
635,144.66067744583336,145.67756832083336,48.0,81.0
636,145.47148744583336,145.91743294583335,60.0,90.0
637,145.87689244583333,146.10662194583335,48.0,83.0
638,145.47148744583336,146.11844625833334,64.0,85.0
639,145.47148744583336,146.14716244583335,68.0,84.0
640,146.28229744583336,146.51540532083334,59.0,81.0
641,146.28229744583336,146.78398613333334,68.0,84.0
642,146.28229744583336,146.89040494583335,64.0,85.0
643,146.68770244583334,146.93770219583337,59.0,76.0
644,147.09310744583337,147.25695863333334,59.0,89.0
645,147.09310744583337,147.61675557083333,64.0,89.0
646,147.09310744583337,147.66912038333334,68.0,89.0
647,147.49851244583334,147.72824194583336,59.0,89.0
648,146.28229744583336,147.76033650833335,47.0,90.0
649,147.90391744583334,148.38026832083335,61.0,83.0
650,147.90391744583334,148.56101138333335,58.0,83.0
651,148.30932244583335,149.02891632083333,52.0,75.0
652,147.90391744583334,149.12688919583334,46.0,89.0
653,148.71472744583335,149.24513232083336,61.0,78.0
654,148.71472744583335,150.39209063333334,64.0,82.0
655,150.33634744583335,150.82452263333334,57.0,93.0
656,150.74175244583336,151.24344113333336,61.0,89.0
657,151.14715744583333,151.58465700833335,66.0,86.0
658,151.55256244583336,151.72654875833337,54.0,74.0
659,149.93094244583335,152.09141325833335,49.0,79.0
660,149.52553744583335,152.10999432083335,42.0,88.0
661,151.95796744583333,152.16404832083333,57.0,89.0
662,151.95796744583333,152.19276450833337,54.0,90.0
663,151.95796744583333,152.39377782083335,61.0,90.0
664,152.76877744583334,152.86168275833336,35.0,87.0
665,152.76877744583334,153.09141225833335,54.0,84.0
666,152.76877744583334,153.2288149354167,59.0,87.0
667,153.99624665208336,154.22541322708335,61.0,83.0
668,153.58497896875002,154.55556760625,54.0,89.0
669,154.41472260625002,154.77915904375,59.0,85.0
670,154.41472260625002,154.83549704375002,63.0,91.0
671,154.83725760625,155.3687782604167,54.0,79.0
672,153.17418244583337,155.5243560354167,47.0,81.0
673,155.26379611875004,155.76167454375002,63.0,90.0
674,155.26379611875004,155.80334115208336,59.0,84.0
675,155.26379611875004,155.82145706875002,66.0,88.0
676,155.69464565208335,155.85225412708337,54.0,80.0
677,156.12680667708335,156.67119228333334,56.0,81.0
678,156.12680667708335,156.67963822083334,59.0,84.0
679,156.95497578333334,157.31646190833337,64.0,90.0
680,156.95497578333334,157.42625909583336,59.0,89.0
681,157.36038078333334,157.54956978333334,56.0,80.0
682,157.76578578333334,157.89585322083335,56.0,77.0
683,157.76578578333334,157.97186665833334,59.0,81.0
684,158.17119078333334,158.34855547083336,56.0,67.0
685,156.54957078333337,158.72862265833336,47.0,78.0
686,156.12680667708335,158.73200103333335,40.0,89.0
687,158.57659578333335,158.93301434583336,56.0,90.0
688,158.57659578333335,159.02423047083334,59.0,94.0
689,158.98200078333335,159.14923034583336,40.0,90.0
690,158.57659578333335,159.32321665833337,64.0,90.0
691,159.38740578333335,159.60193259583335,54.0,88.0
692,159.38740578333335,159.92456740833336,63.0,90.0
693,159.38740578333335,159.92794578333334,59.0,84.0
694,159.79281078333335,160.27591840833335,54.0,81.0
695,160.19821578333335,160.33672915833336,59.0,90.0
696,160.19821578333335,160.50733709583335,63.0,93.0
697,160.60362078333335,160.80970165833335,54.0,77.0
698,159.38740578333335,161.05632303333334,39.0,89.0
699,161.00902578333336,161.15767428333336,54.0,84.0
700,161.00902578333336,161.21172828333334,59.0,89.0
701,161.00902578333336,161.49044422083335,63.0,89.0
702,161.41443078333336,161.61375490833336,54.0,76.0
703,161.81983578333336,162.11037603333335,54.0,90.0
704,161.81983578333336,162.12726790833335,59.0,93.0
705,161.81983578333336,162.21341647083335,63.0,92.0
706,162.22524078333336,162.44652434583335,35.0,96.0
707,162.63064578333336,162.80463209583334,56.0,82.0
708,162.63064578333336,163.13064528333337,64.0,83.0
709,162.63064578333336,163.14078040833334,61.0,85.0
710,162.63064578333336,163.36037478333336,37.0,91.0
711,163.03605078333337,163.54111784583336,56.0,77.0
712,163.44145578333334,163.59348265833336,61.0,90.0
713,163.44145578333334,163.78098247083335,64.0,90.0
714,163.84686078333334,164.09179297083335,56.0,82.0
715,164.25226578333334,164.44145478333334,61.0,91.0
716,164.25226578333334,164.72185990833336,64.0,88.0
717,164.65767078333334,164.96172453333335,56.0,81.0
718,165.06307578333335,165.32827822083334,61.0,90.0
719,165.06307578333335,165.35192684583336,64.0,85.0
720,165.46848078333335,165.65260222083336,61.0,89.0
721,165.46848078333335,165.67118328333336,56.0,81.0
722,165.46848078333335,165.68300759583335,64.0,87.0
723,165.46848078333335,165.70158865833335,37.0,93.0
724,165.87388578333335,166.07320990833335,54.0,86.0
725,165.87388578333335,166.34179072083336,63.0,91.0
726,165.87388578333335,166.34854747083335,59.0,87.0
727,166.27929078333335,166.55124997083334,54.0,79.0
728,166.68469578333335,166.81307403333335,59.0,85.0
729,166.68469578333335,166.84685778333335,63.0,89.0
730,165.87388578333335,167.16442503333334,35.0,90.0
731,167.09010078333336,167.26070872083335,54.0,75.0
732,167.49550578333336,167.61881647083337,54.0,84.0
733,167.49550578333336,167.68131640833334,59.0,85.0
734,167.49550578333336,167.98368097083335,63.0,90.0
735,167.90091078333336,168.06307278333335,54.0,82.0
736,168.30631578333336,168.59685603333335,59.0,93.0
737,168.30631578333336,168.60023440833336,54.0,90.0
738,168.30631578333336,168.67286947083335,63.0,92.0
739,168.71172078333336,168.78942340833336,35.0,90.0
740,169.11712578333336,169.30124722083335,52.0,86.0
741,169.11712578333336,169.58165234583336,61.0,89.0
742,169.11712578333336,169.59178747083337,57.0,80.0
743,169.52253078333337,169.84685478333336,52.0,87.0
744,169.92793578333334,170.06813834583335,57.0,90.0
745,169.92793578333334,170.07489509583334,61.0,90.0
746,169.11712578333336,170.58840809583336,45.0,98.0
747,170.33334078333334,170.82151597083336,52.0,89.0
748,170.73874578333334,171.20496153333335,57.0,85.0
749,170.73874578333334,171.33840734583336,64.0,89.0
750,171.14415078333334,171.49212340833336,52.0,89.0
751,170.73874578333334,171.72692047083336,45.0,83.0
752,171.54955578333335,171.93806890833335,57.0,89.0
753,171.54955578333335,172.09347415833335,61.0,89.0
754,171.95496078333335,172.23367672083336,45.0,95.0
755,172.36036578333335,172.63570334583335,56.0,85.0
756,172.36036578333335,172.85867609583335,64.0,90.0
757,172.36036578333335,172.89414903333335,59.0,90.0
758,172.76577078333335,173.06982453333336,56.0,81.0
759,173.17117578333335,173.28097297083335,56.0,87.0
760,173.17117578333335,173.38401340833335,59.0,94.0
761,173.17117578333335,173.42455390833337,64.0,89.0
762,173.57658078333336,173.76408059583335,56.0,74.0
763,173.98198578333336,174.14076940833337,56.0,82.0
764,173.98198578333336,174.22016122083335,59.0,87.0
765,174.18468828333334,174.22016122083335,59.0,60.0
766,173.98198578333336,174.47353934583336,64.0,83.0
767,174.38739078333336,174.57826897083336,56.0,75.0
768,172.36036578333335,174.98536315833334,44.0,90.0
769,174.79279578333336,175.19482240833335,59.0,96.0
770,174.79279578333336,175.21002509583334,56.0,89.0
771,175.19820078333336,175.36543034583335,44.0,92.0
772,174.79279578333336,175.44988972083337,64.0,89.0
773,175.60360578333336,175.89921359583334,54.0,82.0
774,175.60360578333336,176.01238915833335,57.0,78.0
775,175.60360578333336,176.09178097083336,61.0,86.0
776,176.00901078333337,176.52759134583334,49.0,78.0
777,176.41441578333337,176.54448322083334,54.0,80.0
778,175.60360578333336,176.64245609583335,42.0,90.0
779,176.41441578333337,176.70326684583335,57.0,90.0
780,176.41441578333337,176.71340197083336,61.0,89.0
781,177.22522578333334,177.40765803333335,54.0,89.0
782,177.22522578333334,177.59177947083336,66.0,87.0
783,177.22522578333334,177.68637397083336,61.0,91.0
784,177.22522578333334,177.70495503333336,57.0,90.0
785,177.63063078333334,177.84684678333335,54.0,78.0
786,176.81982078333334,178.18975184583334,49.0,77.0
787,178.03603578333335,178.35867059583336,54.0,89.0
788,178.03603578333335,178.38738678333334,57.0,92.0
789,178.03603578333335,178.47353534583334,61.0,91.0
790,178.44144078333335,178.74549453333336,42.0,93.0
791,178.84684578333335,179.04279153333334,54.0,85.0
792,178.84684578333335,179.34684528333335,59.0,90.0
793,179.25225078333335,179.43637222083336,54.0,81.0
794,178.84684578333335,179.68975034583335,47.0,98.0
795,179.65765578333335,179.78265565833334,54.0,89.0
796,179.65765578333335,180.12049315833335,63.0,92.0
797,179.65765578333335,180.14076340833336,59.0,92.0
798,180.06306078333336,180.35191184583334,54.0,90.0
799,180.46846578333336,180.64583047083335,54.0,91.0
800,180.46846578333336,180.96170853333336,59.0,90.0
801,180.87387078333336,181.05630303333336,54.0,83.0
802,180.46846578333336,181.31981628333335,35.0,90.0
803,180.46846578333336,181.31981628333335,35.0,91.0
804,181.27927578333336,181.42792428333337,54.0,87.0
805,181.27927578333336,181.92623459583336,63.0,93.0
806,181.27927578333336,181.95663997083335,59.0,93.0
807,181.68468078333336,181.97522103333336,54.0,91.0
808,182.09008578333336,182.61711228333337,56.0,81.0
809,182.09008578333336,182.62555822083334,59.0,84.0
810,182.90089578333334,183.26238190833334,64.0,90.0
811,182.90089578333334,183.37217909583336,59.0,89.0
812,183.30630078333337,183.49548978333337,56.0,80.0
813,183.71170578333334,183.84177322083335,56.0,77.0
814,183.71170578333334,183.91778665833334,59.0,81.0
815,184.11711078333335,184.29447547083336,56.0,67.0
816,182.49549078333337,184.67454265833337,47.0,78.0
817,182.09008578333336,184.67792103333335,40.0,89.0
818,184.52251578333335,184.87893434583336,56.0,90.0
819,184.52251578333335,184.97015047083335,59.0,94.0
820,184.92792078333335,185.09515034583336,40.0,90.0
821,184.52251578333335,185.26913665833337,64.0,90.0
822,185.33332578333335,185.54785259583335,54.0,88.0
823,185.33332578333335,185.87048740833336,63.0,90.0
824,185.33332578333335,185.87386578333334,59.0,84.0
825,185.73873078333335,186.22183840833335,54.0,81.0
826,186.14413578333335,186.28264915833336,59.0,90.0
827,186.14413578333335,186.45325709583335,63.0,93.0
828,186.54954078333336,186.75562165833335,54.0,77.0
829,185.33332578333335,187.00224303333334,39.0,89.0
830,186.95494578333336,187.10359428333336,54.0,84.0
831,186.95494578333336,187.15764828333334,59.0,89.0
832,186.95494578333336,187.43636422083335,63.0,89.0
833,187.36035078333336,187.55967490833336,54.0,76.0
834,187.76575578333336,188.05629603333335,54.0,90.0
835,187.76575578333336,188.07318790833335,59.0,93.0
836,187.76575578333336,188.15933647083335,63.0,92.0
837,188.17116078333336,188.39244434583335,35.0,96.0
838,188.57656578333336,188.75055209583337,56.0,82.0
839,188.57656578333336,189.07656528333337,64.0,83.0
840,188.57656578333336,189.08670040833334,61.0,85.0
841,188.57656578333336,189.30629478333336,37.0,91.0
842,188.98197078333334,189.48703784583336,56.0,77.0
843,189.38737578333337,189.53940265833336,61.0,90.0
844,189.38737578333337,189.72690247083335,64.0,90.0
845,189.79278078333334,190.03771297083335,56.0,82.0
846,190.19818578333337,190.38737478333337,61.0,91.0
847,190.19818578333337,190.66777990833336,64.0,88.0
848,190.60359078333335,190.90764453333335,56.0,81.0
849,191.00899578333335,191.27419822083334,61.0,90.0
850,191.00899578333335,191.29784684583336,64.0,85.0
851,191.41440078333335,191.59852222083336,61.0,89.0
852,191.41440078333335,191.61710328333336,56.0,81.0
853,191.41440078333335,191.62892759583335,64.0,87.0
854,191.41440078333335,191.64750865833335,37.0,93.0
855,191.81980578333335,192.01912990833335,54.0,86.0
856,191.81980578333335,192.28771072083336,63.0,91.0
857,191.81980578333335,192.29446747083335,59.0,87.0
858,192.22521078333335,192.49716997083334,54.0,79.0
859,192.63061578333335,192.75899403333335,59.0,85.0
860,192.63061578333335,192.79277778333335,63.0,89.0
861,191.81980578333335,193.11034503333335,35.0,90.0
862,193.03602078333336,193.20662872083335,54.0,75.0
863,193.44142578333336,193.56473647083334,54.0,84.0
864,193.44142578333336,193.62723640833335,59.0,85.0
865,193.44142578333336,193.92960097083335,63.0,90.0
866,193.84683078333336,194.00899278333335,54.0,82.0
867,194.25223578333336,194.54277603333335,59.0,93.0
868,194.25223578333336,194.54615440833336,54.0,90.0
869,194.25223578333336,194.61878947083335,63.0,92.0
870,194.65764078333336,194.73534340833336,35.0,90.0
871,195.06304578333337,195.24716722083335,52.0,86.0
872,195.06304578333337,195.52757234583336,61.0,89.0
873,195.06304578333337,195.53770747083337,57.0,80.0
874,195.46845078333337,195.79277478333336,52.0,87.0
875,195.87385578333334,196.01405834583335,57.0,90.0
876,195.87385578333334,196.02081509583337,61.0,90.0
877,195.06304578333337,196.53432809583336,45.0,98.0
878,196.27926078333337,196.76743597083336,52.0,89.0
879,196.68466578333334,197.15088153333335,57.0,85.0
880,196.68466578333334,197.28432734583336,64.0,89.0
881,197.09007078333335,197.43804340833336,52.0,89.0
882,196.68466578333334,197.67284047083336,45.0,83.0
883,197.49547578333335,197.88398890833335,57.0,89.0
884,197.49547578333335,198.03939415833335,61.0,89.0
885,197.90088078333335,198.17959672083336,45.0,95.0
886,198.30628578333335,198.58162334583335,56.0,85.0
887,198.30628578333335,198.80459609583335,64.0,90.0
888,198.30628578333335,198.84006903333335,59.0,90.0
889,198.71169078333335,199.01574453333336,56.0,81.0
890,199.11709578333335,199.22689297083335,56.0,87.0
891,199.11709578333335,199.32993340833335,59.0,94.0
892,199.11709578333335,199.37047390833337,64.0,89.0
893,199.52250078333336,199.71000059583335,56.0,74.0
894,199.92790578333336,200.08668940833337,56.0,82.0
895,199.92790578333336,200.16608122083335,59.0,87.0
896,200.13060828333334,200.16608122083335,59.0,60.0
897,199.92790578333336,200.41945934583336,64.0,83.0
898,200.33331078333336,200.52418897083336,56.0,75.0
899,198.30628578333335,200.93128315833337,44.0,90.0
900,200.73871578333336,201.14074240833335,59.0,96.0
901,200.73871578333336,201.15594509583335,56.0,89.0
902,201.14412078333336,201.31135034583335,44.0,92.0
903,200.73871578333336,201.39580972083337,64.0,89.0
904,201.54952578333337,201.84513359583335,54.0,82.0
905,201.54952578333337,201.95830915833335,57.0,78.0
906,201.54952578333337,202.03770097083336,61.0,86.0
907,201.95493078333334,202.47351134583334,49.0,78.0
908,202.36033578333337,202.49040322083334,54.0,80.0
909,201.54952578333337,202.58837609583335,42.0,90.0
910,202.36033578333337,202.64918684583336,57.0,90.0
911,202.36033578333337,202.65932197083336,61.0,89.0
912,203.17114578333337,203.35357803333335,54.0,89.0
913,203.17114578333337,203.53769947083336,66.0,87.0
914,203.17114578333337,203.63229397083336,61.0,91.0
915,203.17114578333337,203.65087503333336,57.0,90.0
916,203.57655078333335,203.79276678333335,54.0,78.0
917,202.76574078333334,204.13567184583337,49.0,77.0
918,203.98195578333335,204.30459059583336,54.0,89.0
919,203.98195578333335,204.33330678333334,57.0,92.0
920,203.98195578333335,204.41945534583334,61.0,91.0
921,204.38736078333335,204.69141453333336,42.0,93.0
922,204.79276578333335,204.98871153333334,54.0,85.0
923,204.79276578333335,205.29276528333335,59.0,90.0
924,205.19817078333335,205.38229222083336,54.0,81.0
925,204.79276578333335,205.63567034583335,47.0,98.0
926,205.60357578333335,205.72857565833334,54.0,89.0
927,205.60357578333335,206.06641315833335,63.0,92.0
928,205.60357578333335,206.08668340833336,59.0,92.0
929,206.00898078333336,206.29783184583334,54.0,90.0
930,206.41438578333336,206.59175047083335,54.0,91.0
931,206.41438578333336,206.90762853333337,59.0,90.0
932,206.81979078333336,207.00222303333337,54.0,83.0
933,206.41438578333336,207.26573628333335,35.0,90.0
934,206.41438578333336,207.26573628333335,35.0,91.0
935,207.22519578333336,207.37384428333337,54.0,87.0
936,207.22519578333336,207.87215459583336,63.0,93.0
937,207.22519578333336,207.90255997083335,59.0,93.0
938,207.63060078333336,207.92114103333336,54.0,91.0
939,208.03600578333337,208.47688372083337,52.0,89.0
940,208.03600578333337,208.53431609583336,56.0,90.0
941,208.84681578333334,209.35019365833335,56.0,89.0
942,208.84681578333334,209.36708553333335,59.0,89.0
943,209.25222078333337,209.69816628333336,52.0,84.0
944,209.65762578333334,210.11032803333336,56.0,86.0
945,209.65762578333334,210.13904422083334,64.0,85.0
946,209.65762578333334,210.17282797083337,59.0,89.0
947,210.06303078333337,210.32316565833335,52.0,79.0
948,210.46843578333335,210.57485459583336,56.0,94.0
949,210.46843578333335,210.58498972083336,52.0,94.0
950,210.46843578333335,210.59343565833336,59.0,91.0
951,208.44141078333337,210.63397615833335,47.0,80.0
952,210.46843578333335,210.64580047083336,64.0,89.0
953,208.03600578333337,210.66269234583336,40.0,90.0
954,210.87384078333335,210.97181365833336,40.0,89.0
955,211.27924578333335,211.52755634583335,60.0,90.0
956,211.27924578333335,211.64739610208335,72.0,81.0
957,211.686779625,211.92334738750003,60.0,73.0
958,212.09981780000004,212.30916015208336,60.0,91.0
959,212.09981780000004,212.36452341875003,64.0,90.0
960,212.09981780000004,212.4406479104167,72.0,83.0
961,212.09981780000004,212.47871015625003,67.0,89.0
962,211.27924578333335,212.70345404583335,36.0,98.0
963,211.686779625,212.72443304583334,43.0,90.0
964,212.51504230000003,212.80135604583336,60.0,95.0
965,212.93437079583336,213.45116210833334,64.0,90.0
966,212.93437079583336,213.48700435833334,72.0,86.0
967,212.93437079583336,213.49775703333336,67.0,88.0
968,212.93437079583336,213.58915477083335,60.0,90.0
969,213.78658480416667,214.61218662916667,64.0,94.0
970,213.78658480416667,214.61577085416667,60.0,90.0
971,213.78658480416667,214.6301077541667,67.0,92.0
972,212.93437079583336,214.63189986666669,36.0,96.0
973,213.78658480416667,214.64265254166668,72.0,89.0
974,214.65161310416667,215.20278237916662,57.0,81.0
975,214.65161310416667,215.2114931708333,60.0,84.0
976,215.48894956666663,215.85043569166663,65.0,90.0
977,215.48894956666663,215.96023287916663,60.0,89.0
978,215.89435456666664,216.08354356666663,57.0,80.0
979,216.29975956666664,216.42982700416664,57.0,77.0
980,216.29975956666664,216.50584044166663,60.0,81.0
981,216.70516456666664,216.88252925416663,57.0,67.0
982,215.07691903125,217.26259644166663,48.0,78.0
983,214.65161310416667,217.26597481666664,41.0,89.0
984,217.11056956666664,217.46698812916662,57.0,90.0
985,217.11056956666664,217.55820425416664,60.0,94.0
986,217.51597456666664,217.68320412916663,41.0,90.0
987,217.11056956666664,217.85719044166663,65.0,90.0
988,217.92137956666664,218.13590637916664,55.0,88.0
989,217.92137956666664,218.45854119166663,64.0,90.0
990,217.92137956666664,218.46191956666664,60.0,84.0
991,218.32678456666662,218.80989219166662,55.0,81.0
992,218.73218956666662,218.87070294166662,60.0,90.0
993,218.73218956666662,219.04131087916664,64.0,93.0
994,219.13759456666662,219.34367544166662,55.0,77.0
995,217.92137956666664,219.59029681666664,40.0,89.0
996,219.54299956666662,219.69164806666663,55.0,84.0
997,219.54299956666662,219.74570206666664,60.0,89.0
998,219.54299956666662,220.02441800416662,64.0,89.0
999,219.94840456666662,220.14772869166663,55.0,76.0
1000,220.35380956666663,220.64434981666662,55.0,90.0
1001,220.35380956666663,220.66124169166662,60.0,93.0
1002,220.35380956666663,220.74739025416662,64.0,92.0
1003,220.75921456666663,220.98049812916662,36.0,96.0
1004,221.16461956666663,221.33860587916664,57.0,82.0
1005,221.16461956666663,221.66461906666663,65.0,83.0
1006,221.16461956666663,221.67475419166664,62.0,85.0
1007,221.16461956666663,221.89434856666662,38.0,91.0
1008,221.57002456666663,222.07509162916662,57.0,77.0
1009,221.97542956666663,222.12745644166662,62.0,90.0
1010,221.97542956666663,222.31495625416662,65.0,90.0
1011,222.38083456666664,222.62576675416662,57.0,82.0
1012,222.78623956666664,222.97542856666664,62.0,91.0
1013,222.78623956666664,223.25583369166662,65.0,88.0
1014,223.19164456666664,223.49569831666662,57.0,81.0
1015,223.59704956666664,223.86225200416663,62.0,90.0
1016,223.59704956666664,223.88590062916663,65.0,85.0
1017,224.00245456666664,224.18657600416662,62.0,89.0
1018,224.00245456666664,224.20515706666663,57.0,81.0
1019,224.00245456666664,224.21698137916664,65.0,87.0
1020,224.00245456666664,224.23556244166662,38.0,93.0
1021,224.40785956666662,224.60718369166662,55.0,86.0
1022,224.40785956666662,224.87576450416663,64.0,91.0
1023,224.40785956666662,224.88252125416662,60.0,87.0
1024,224.81326456666662,225.08522375416663,55.0,79.0
1025,225.21866956666662,225.34704781666665,60.0,85.0
1026,225.21866956666662,225.38083156666664,64.0,89.0
1027,224.40785956666662,225.69839881666664,36.0,90.0
1028,225.62407456666662,225.79468250416664,55.0,75.0
1029,226.02947956666662,226.15279025416663,55.0,84.0
1030,226.02947956666662,226.21529019166664,60.0,85.0
1031,226.02947956666662,226.51765475416664,64.0,90.0
1032,226.43488456666663,226.59704656666662,55.0,82.0
1033,226.84028956666663,227.13082981666662,60.0,93.0
1034,226.84028956666663,227.13420819166663,55.0,90.0
1035,226.84028956666663,227.20684325416664,64.0,92.0
1036,227.24569456666663,227.32339719166663,36.0,90.0
1037,227.65109956666663,227.83522100416664,53.0,86.0
1038,227.65109956666663,228.11562612916663,62.0,89.0
1039,227.65109956666663,228.12576125416663,58.0,80.0
1040,228.05650456666663,228.38082856666662,53.0,87.0
1041,228.46190956666663,228.60211212916664,58.0,90.0
1042,228.46190956666663,228.60886887916664,62.0,90.0
1043,227.65109956666663,229.12238187916662,46.0,98.0
1044,228.86731456666664,229.35548975416663,53.0,89.0
1045,229.27271956666664,229.73893531666664,58.0,85.0
1046,229.27271956666664,229.87238112916663,65.0,89.0
1047,229.67812456666664,230.02609719166662,53.0,89.0
1048,229.27271956666664,230.26089425416663,46.0,83.0
1049,230.08352956666664,230.47204269166664,58.0,89.0
1050,230.08352956666664,230.62744794166662,62.0,89.0
1051,230.48893456666664,230.76765050416662,46.0,95.0
1052,230.89433956666664,231.16967712916664,57.0,85.0
1053,230.89433956666664,231.39264987916664,65.0,90.0
1054,230.89433956666664,231.42812281666664,60.0,90.0
1055,231.29974456666662,231.60379831666663,57.0,81.0
1056,231.70514956666662,231.81494675416664,57.0,87.0
1057,231.70514956666662,231.91798719166664,60.0,94.0
1058,231.70514956666662,231.95852769166663,65.0,89.0
1059,232.11055456666662,232.29805437916664,57.0,74.0
1060,232.51595956666662,232.67474319166664,57.0,82.0
1061,232.51595956666662,232.75413500416664,60.0,87.0
1062,232.71866206666664,232.75413500416664,60.0,60.0
1063,232.51595956666662,233.00751312916663,65.0,83.0
1064,232.92136456666663,233.11224275416663,57.0,75.0
1065,230.89433956666664,233.51933694166664,45.0,90.0
1066,233.32676956666663,233.72879619166662,60.0,96.0
1067,233.32676956666663,233.74399887916664,57.0,89.0
1068,233.73217456666663,233.89940412916664,45.0,92.0
1069,233.32676956666663,233.98386350416664,65.0,89.0
1070,234.13757956666663,234.43318737916664,55.0,82.0
1071,234.13757956666663,234.54636294166664,58.0,78.0
1072,234.13757956666663,234.62575475416662,62.0,86.0
1073,234.54298456666663,235.06156512916664,50.0,78.0
1074,234.94838956666663,235.07845700416664,55.0,80.0
1075,234.13757956666663,235.17642987916662,43.0,90.0
1076,234.94838956666663,235.23724062916662,58.0,90.0
1077,234.94838956666663,235.24737575416663,62.0,89.0
1078,235.75919956666664,235.94163181666664,55.0,89.0
1079,235.75919956666664,236.12575325416663,67.0,87.0
1080,235.75919956666664,236.22034775416662,62.0,91.0
1081,235.75919956666664,236.23892881666663,58.0,90.0
1082,236.16460456666664,236.38082056666664,55.0,78.0
1083,235.35379456666664,236.72372562916664,50.0,77.0
1084,236.57000956666664,236.89264437916663,55.0,89.0
1085,236.57000956666664,236.92136056666664,58.0,92.0
1086,236.57000956666664,237.00750912916664,62.0,91.0
1087,236.97541456666664,237.27946831666662,43.0,93.0
1088,237.38081956666662,237.57676531666664,55.0,85.0
1089,237.38081956666662,237.88081906666662,60.0,90.0
1090,237.78622456666665,237.97034600416663,55.0,81.0
1091,237.38081956666662,238.22372412916664,48.0,98.0
1092,238.19162956666662,238.31662944166663,55.0,89.0
1093,238.19162956666662,238.65446694166664,64.0,92.0
1094,238.19162956666662,238.67473719166662,60.0,92.0
1095,238.59703456666662,238.88588562916664,55.0,90.0
1096,239.00243956666662,239.17980425416664,55.0,91.0
1097,239.00243956666662,239.49568231666663,60.0,90.0
1098,239.40784456666663,239.59027681666663,55.0,83.0
1099,239.00243956666662,239.85379006666665,36.0,90.0
1100,239.00243956666662,239.85379006666665,36.0,91.0
1101,239.81324956666663,239.96189806666663,55.0,87.0
1102,239.81324956666663,240.46020837916663,64.0,93.0
1103,239.81324956666663,240.49061375416665,60.0,93.0
1104,240.21865456666663,240.50919481666662,55.0,91.0
1105,240.57507312916664,241.13081581666663,58.0,77.0
1106,240.58182987916663,241.43486956666663,62.0,83.0
1107,241.76932869166663,242.23385525416663,62.0,85.0
1108,241.36223450416662,242.23554444166663,58.0,76.0
1109,242.16122019166664,242.68486831666664,65.0,87.0
1110,242.98385450416663,243.11730031666664,58.0,77.0
1111,242.98216531666662,243.15277325416662,62.0,78.0
1112,242.98723287916664,243.17473269166663,65.0,74.0
1113,240.57000556666662,243.18148944166663,46.0,76.0
1114,240.95851869166663,243.18993537916663,53.0,63.0
1115,243.83182662916664,244.41966387916662,60.0,79.0
1116,243.83351581666665,244.42473144166664,55.0,77.0
1117,244.22033975416664,245.27608194166663,52.0,72.0
1118,243.83858337916664,245.33182512916665,45.0,89.0
1119,245.06324431666664,245.39939262916664,55.0,74.0
1120,244.61729881666662,245.48554119166664,60.0,83.0
1121,244.62236637916664,245.56831137916663,64.0,86.0
1122,245.83351381666662,246.35378356666664,57.0,79.0
1123,245.44668987916663,246.37405381666662,50.0,86.0
1124,246.28452687916663,246.41628350416664,62.0,84.0
1125,246.28452687916663,246.52945906666662,65.0,85.0
1126,247.02439100416663,247.18148544166664,55.0,73.0
1127,247.04635044166662,247.61053906666663,58.0,77.0
1128,247.50243106666665,247.97202519166663,50.0,79.0
1129,247.09364769166663,248.08857912916665,43.0,85.0
1130,247.91797119166662,248.50749762916664,55.0,90.0
1131,248.30817350416663,248.53283544166663,58.0,75.0
1132,247.11898550416663,248.78114600416663,62.0,78.0
1133,248.70513256666663,248.95175394166662,55.0,76.0
1134,248.75411900416663,249.30986169166664,60.0,83.0
1135,249.15952400416663,249.45851019166662,55.0,90.0
1136,248.71188931666663,249.82506387916663,36.0,85.0
1137,249.62911812916664,249.86560437916663,55.0,89.0
1138,249.63080731666662,250.31492825416663,60.0,89.0
1139,250.12573925416663,250.44161731666662,55.0,84.0
1140,251.15107606666663,251.38587312916664,53.0,81.0
1141,251.32337319166663,251.49567031666663,55.0,84.0
1142,251.53283244166664,251.70175119166663,57.0,82.0
1143,251.74060250416665,251.99398062916663,60.0,80.0
1144,251.97202119166664,252.14431831666664,65.0,78.0
1145,252.22202094166664,252.33857487916663,67.0,52.0
1146,252.46357475416664,252.81323656666663,69.0,74.0
1147,252.73046637916664,252.94161481666663,72.0,77.0
1148,253.03620931666663,253.13080381666663,72.0,77.0
1149,253.05647956666664,253.21526319166662,77.0,83.0
1150,253.39769544166663,253.62404656666664,79.0,74.0
1151,254.14600550416662,254.32674856666662,77.0,36.0
1152,254.19330275416664,254.87742369166665,81.0,65.0
1153,250.97033300416663,254.94499119166665,48.0,75.0
1154,254.23553244166663,254.98046412916665,84.0,74.0
1155,250.72371162916664,255.00073437916663,41.0,88.0
