,start,end,pitch,velocity
0,3.0880673583333333,3.8110785291666667,53.0,56.0
1,3.4289763583333333,3.8153398916666665,58.0,62.0
2,3.769885358333333,4.82386235,60.0,84.0
3,4.451703358333333,5.221589516666667,53.0,58.0
4,4.792612358333333,5.2528395083333335,58.0,84.0
5,2.7471583583333334,5.2627826875,46.0,79.0
6,5.133521358333333,6.028407483333333,62.0,83.0
7,6.156248358333333,6.539770983333333,58.0,79.0
8,5.8153393583333335,6.588066425,53.0,69.0
9,6.497157358333333,7.249998066666667,62.0,84.0
10,5.474430358333333,7.588066158333333,46.0,79.0
11,7.178975358333333,7.6022707,53.0,62.0
12,7.519884358333333,7.9005660749999995,58.0,83.0
13,7.860793358333333,8.251418254166666,62.0,84.0
14,8.201702358333334,8.91477035,63.0,84.0
15,8.542611358333334,9.271304345833332,54.0,74.0
16,8.883520358333334,9.288349795833334,58.0,83.0
17,9.224429358333333,10.234372270833333,60.0,84.0
18,8.201702358333334,10.542610824999999,46.0,83.0
19,9.906247358333333,10.7727244,51.0,55.0
20,10.247156358333333,11.33522425,54.0,79.0
21,10.588065358333333,11.946019541666667,63.0,83.0
22,11.610792358333333,12.002837708333333,54.0,63.0
23,11.269883358333333,12.3536898875,51.0,79.0
24,11.951701358333333,13.024144254166666,60.0,80.0
25,12.974428358333332,13.366473708333332,58.0,82.0
26,10.928974358333333,13.387780520833333,46.0,80.0
27,13.315337358333332,13.694598620833332,60.0,83.0
28,13.656246358333332,14.022723533333332,53.0,71.0
29,13.656246358333332,14.042609891666666,58.0,71.0
30,13.656246358333332,14.171871220833333,62.0,82.0
31,13.997155358333332,14.828121045833333,51.0,76.0
32,14.338064358333332,15.508518591666666,58.0,83.0
33,14.678973358333332,15.535507220833333,65.0,78.0
34,13.656246358333332,15.887779854166666,46.0,71.0
35,15.701700358333333,16.019882091666666,60.0,78.0
36,15.360791358333334,16.18749568333333,53.0,57.0
37,16.042609358333333,16.832381875,58.0,71.0
38,16.042609358333333,16.910506854166666,62.0,71.0
39,17.065336358333333,17.223006770833333,58.0,60.0
40,17.406245358333333,17.600847579166665,65.0,62.0
41,17.406245358333333,17.623574845833332,58.0,73.0
42,16.724427358333333,17.815336158333334,53.0,68.0
43,17.747154358333333,18.110790625,58.0,56.0
44,17.747154358333333,18.117892895833332,65.0,69.0
45,16.383518358333333,18.6945972875,46.0,78.0
46,18.088063358333333,18.707381375,53.0,61.0
47,18.428972358333333,18.76704045,60.0,79.0
48,18.769881358333333,19.002835841666666,65.0,59.0
49,19.110790358333333,19.718744741666665,58.0,84.0
50,19.792608358333332,20.2542559625,55.0,61.0
51,20.133517358333332,20.502835441666665,70.0,79.0
52,20.133517358333332,20.553971791666665,62.0,73.0
53,20.644880858333334,20.850846712499997,55.0,38.0
54,20.815335358333332,21.086642104166664,69.0,86.0
55,20.815335358333332,21.142039816666667,60.0,71.0
56,21.156244358333332,21.534085166666667,55.0,36.0
57,19.110790358333333,21.539766983333333,43.0,82.0
58,19.451699358333332,21.776982829166666,50.0,72.0
59,21.497153358333332,22.592323520833332,58.0,76.0
60,21.497153358333332,22.62641442083333,65.0,83.0
61,22.86078935833333,23.281243791666665,57.0,75.0
62,22.51988035833333,23.967323154166667,55.0,60.0
63,22.17897135833333,24.0298231375,50.0,80.0
64,21.83806235833333,24.03692540833333,43.0,72.0
65,23.88351635833333,24.139198108333332,65.0,78.0
66,23.88351635833333,24.196016274999998,57.0,71.0
67,23.20169835833333,24.19885718333333,58.0,79.0
68,24.56533435833333,25.00851605833333,58.0,84.0
69,24.56533435833333,25.014197875,55.0,73.0
70,24.56533435833333,25.024141054166666,63.0,80.0
71,25.24715235833333,25.4659023,55.0,51.0
72,25.58806135833333,26.083799862499998,58.0,86.0
73,25.58806135833333,26.090902133333334,55.0,72.0
74,25.58806135833333,26.1519816625,62.0,84.0
75,24.90624335833333,26.312492983333332,51.0,68.0
76,26.26987935833333,26.715901966666667,63.0,82.0
77,26.26987935833333,26.73436787083333,58.0,81.0
78,26.26987935833333,26.747151958333333,55.0,73.0
79,24.56533435833333,26.999992799999998,39.0,84.0
80,26.610788358333334,27.1661859375,51.0,61.0
81,26.951697358333334,27.1917541125,55.0,60.0
82,27.292606358333334,27.659083533333334,65.0,75.0
83,27.292606358333334,27.708799429166664,58.0,82.0
84,27.974424358333334,28.14914022083333,55.0,61.0
85,27.974424358333334,28.184651575,63.0,80.0
86,27.633515358333334,28.396299245833333,51.0,59.0
87,28.315333358333334,28.808230954166664,53.0,71.0
88,28.315333358333334,28.917605925,62.0,80.0
89,28.656242358333333,29.073855883333334,51.0,46.0
90,27.292606358333334,29.40624215833333,39.0,74.0
91,28.997151358333333,29.48294668333333,58.0,83.0
92,28.997151358333333,29.4928898625,55.0,71.0
93,28.997151358333333,29.535503487499998,63.0,83.0
94,29.678969358333333,29.821014775,55.0,38.0
95,29.338060358333333,29.92612838333333,51.0,72.0
96,30.019878358333333,30.544025945833333,55.0,78.0
97,30.019878358333333,30.785503154166665,63.0,86.0
98,30.019878358333333,30.803969058333333,58.0,84.0
99,30.701696358333333,31.870730137499997,53.0,80.0
100,31.042605358333333,32.073855083333335,58.0,82.0
101,32.06533235833333,32.164764149999996,60.0,83.0
102,30.360787358333333,32.27413912083333,48.0,78.0
103,32.40624135833333,32.491468608333335,53.0,19.0
104,30.019878358333333,32.49430951666667,41.0,76.0
105,32.40624135833333,32.754252629166665,48.0,82.0
106,32.74715035833333,33.46163880416667,70.0,84.0
107,32.74715035833333,33.49715015833333,65.0,76.0
108,32.74715035833333,33.49999106666667,77.0,79.0
109,33.76987735833333,34.22868405416666,65.0,75.0
110,33.76987735833333,34.35794538333333,75.0,75.0
111,33.76987735833333,34.45169535833333,70.0,75.0
112,34.45169535833333,34.78408163333333,65.0,71.0
113,34.45169535833333,34.883513425,74.0,81.0
114,34.792604358333335,35.106524729166665,53.0,56.0
115,32.74715035833333,35.12499063333333,41.0,79.0
116,35.13351335833333,35.453115545833334,65.0,63.0
117,35.13351335833333,35.4843655375,70.0,78.0
118,35.474422358333335,35.4843655375,70.0,76.0
119,35.474422358333335,36.156240358333335,65.0,72.0
120,35.474422358333335,36.18038807916667,62.0,69.0
121,36.156240358333335,36.96589923333333,58.0,69.0
122,36.49714935833333,37.53550135416666,62.0,59.0
123,36.49714935833333,37.538342262499995,60.0,58.0
124,36.49714935833333,37.5468649875,65.0,70.0
125,36.49714935833333,37.55680816666666,70.0,59.0
126,37.519876358333335,37.724421758333335,58.0,59.0
127,35.81533135833333,37.855103541666665,53.0,59.0
128,37.69033085833333,37.94885351666667,60.0,69.0
129,35.474422358333335,37.955955787499995,46.0,80.0
130,37.86078535833333,38.06106939583333,65.0,67.0
131,38.201694358333334,38.62214879166667,58.0,63.0
132,38.201694358333334,38.6462965125,63.0,77.0
133,38.201694358333334,40.10936430416667,67.0,56.0
134,38.03123985833333,40.318171066666665,70.0,82.0
135,39.22442135833333,40.379250595833334,65.0,73.0
136,38.54260335833333,40.42612558333333,55.0,53.0
137,38.201694358333334,40.430386945833334,51.0,73.0
138,38.883512358333334,40.57811417916667,58.0,57.0
139,40.58805735833333,41.031239058333334,67.0,62.0
140,40.928966358333334,41.48294348333333,62.0,49.0
141,40.928966358333334,41.51561392916666,65.0,69.0
142,41.95169335833333,42.8181704,60.0,61.0
143,41.95169335833333,42.84657948333333,65.0,61.0
144,41.61078435833333,42.9587953625,58.0,59.0
145,40.928966358333334,42.965897633333334,46.0,73.0
146,41.26987535833333,43.02555670833333,53.0,58.0
147,43.31532935833333,43.697431529166664,65.0,63.0
148,43.65623835833333,44.106522329166665,63.0,70.0
149,44.33805635833333,44.910499387499996,63.0,53.0
150,44.67896535833333,45.56390830416667,75.0,76.0
151,43.99714735833333,45.809646875,58.0,45.0
152,43.65623835833333,45.907658212499996,51.0,71.0
153,45.70169235833333,46.356521729166666,74.0,71.0
154,46.38351035833333,46.997146558333334,63.0,59.0
155,46.38351035833333,47.139191974999996,70.0,73.0
156,46.72441935833333,47.802544070833335,55.0,57.0
157,47.06532835833333,47.821009974999996,60.0,56.0
158,47.40623735833333,48.20311214583333,63.0,70.0
159,47.40623735833333,48.28407803333333,67.0,69.0
160,46.38351035833333,48.51703251666667,48.0,71.0
161,48.76987335833333,49.13208917083333,60.0,51.0
162,48.42896435833333,49.16191870833333,55.0,51.0
163,49.11078235833333,49.71873674166667,65.0,77.0
164,49.79260035833333,50.812486449999994,62.0,62.0
165,50.133509358333335,50.86078189166666,69.0,71.0
166,50.815327358333334,51.201690891666665,72.0,82.0
167,49.451691358333335,51.242884062499996,57.0,54.0
168,49.11078235833333,51.302543137499995,50.0,74.0
169,51.83805435833333,52.27697469583333,58.0,57.0
170,51.83805435833333,52.4872019125,63.0,74.0
171,51.83805435833333,52.76703138333333,70.0,62.0
172,52.860781358333334,53.02271313333333,67.0,53.0
173,52.178963358333334,53.083792662499995,55.0,32.0
174,52.51987235833333,53.66901977916667,60.0,55.0
175,53.542599358333334,53.8593606375,67.0,57.0
176,51.83805435833333,54.022712866666666,48.0,71.0
177,53.542599358333334,54.07811057916666,75.0,74.0
178,53.88350835833333,54.133508291666665,55.0,54.0
179,54.22441735833333,54.428962758333334,65.0,49.0
180,54.22441735833333,54.428962758333334,74.0,52.0
181,54.56532635833333,55.03407623333333,65.0,62.0
182,54.56532635833333,55.184644375,41.0,62.0
183,54.90623535833333,55.2059511875,48.0,55.0
184,54.56532635833333,55.25850799166666,74.0,72.0
185,55.24714435833333,55.6661783375,53.0,53.0
186,55.58805335833333,55.8366328375,70.0,75.0
187,55.58805335833333,55.8792464625,63.0,59.0
188,55.58805335833333,56.669018979166665,55.0,60.0
189,56.26987135833333,56.701689425,63.0,72.0
190,56.26987135833333,56.78833712916666,58.0,60.0
191,56.26987135833333,56.97725753333333,67.0,69.0
192,56.95168935833333,57.17185975416666,65.0,72.0
193,57.29259835833333,57.971575449999996,65.0,63.0
194,57.29259835833333,57.99430271666667,60.0,55.0
195,57.29259835833333,58.10083677916666,62.0,73.0
196,57.97441635833333,58.80112068333333,58.0,41.0
197,58.31532535833333,59.173279674999996,60.0,62.0
198,58.31532535833333,59.35509780833333,62.0,72.0
199,58.31532535833333,59.360779625,65.0,75.0
200,59.33805235833333,59.55538184583333,58.0,59.0
201,57.63350735833333,59.63208637083333,53.0,54.0
202,57.29259835833333,59.64345000416667,46.0,76.0
203,59.508506858333334,59.73009770833333,60.0,60.0
204,59.67896135833333,59.88776812083333,62.0,76.0
205,59.84941585833333,59.99856354583333,65.0,71.0
206,60.01987035833333,60.41901797916666,67.0,75.0
207,60.01987035833333,60.444586154166664,58.0,74.0
208,60.01987035833333,60.457370241666666,63.0,79.0
209,61.04259735833333,61.43890407083333,62.0,69.0
210,60.70168835833333,61.4999836,58.0,52.0
211,61.38350635833333,61.7087903625,63.0,73.0
212,62.06532435833333,62.33521065,70.0,72.0
213,60.36077935833333,62.399131087499995,55.0,56.0
214,60.01987035833333,62.4161765375,51.0,76.0
215,62.40623335833333,62.67043783333333,74.0,61.0
216,62.74714235833333,63.42896035833333,70.0,55.0
217,63.42896035833333,64.2570851375,58.0,61.0
218,63.76986935833333,64.77413045416667,65.0,71.0
219,63.76986935833333,64.78265317916666,60.0,51.0
220,63.76986935833333,64.78265317916666,62.0,55.0
221,63.76986935833333,64.82526680416666,70.0,62.0
222,63.08805135833333,65.0070849375,53.0,57.0
223,64.79259635833333,65.04117583749999,58.0,71.0
224,62.74714235833333,65.0923121875,46.0,71.0
225,65.13350535833334,65.44032345833332,65.0,71.0
226,65.47441435833333,65.8423119875,63.0,72.0
227,65.47441435833333,65.85651652916667,58.0,59.0
228,65.47441435833333,65.87498243333333,67.0,68.0
229,66.15623235833333,66.36077775833333,58.0,54.0
230,66.49714135833334,66.96020941666666,58.0,61.0
231,66.49714135833334,67.02128894583333,67.0,75.0
232,66.49714135833334,67.20310707916667,62.0,74.0
233,65.81532335833333,67.21162980416666,55.0,51.0
234,67.17895935833333,67.491459275,58.0,63.0
235,67.17895935833333,67.508504725,65.0,74.0
236,65.47441435833333,67.76276602083333,51.0,63.0
237,67.51986835833333,67.84373190833333,55.0,50.0
238,68.20168635833333,68.633504425,58.0,58.0
239,68.20168635833333,68.67895895833333,63.0,72.0
240,68.20168635833333,68.855095275,67.0,72.0
241,69.22441335833334,69.32668605833334,63.0,77.0
242,68.54259535833333,69.3621974125,55.0,54.0
243,69.22441335833334,69.37640195416667,70.0,78.0
244,68.88350435833333,69.88634499999999,60.0,42.0
245,69.90623135833333,70.21304945833333,70.0,75.0
246,69.90623135833333,70.31816306666667,67.0,71.0
247,69.90623135833333,70.32668579166666,75.0,80.0
248,68.20168635833333,70.33094715416667,48.0,75.0
249,70.24714035833333,70.4019698625,60.0,67.0
250,70.92895835833333,71.2371969125,70.0,69.0
251,70.92895835833333,71.32810597916666,65.0,61.0
252,70.92895835833333,71.46446957916666,74.0,61.0
253,70.92895835833333,71.50566275,50.0,76.0
254,71.26986735833333,71.5525377375,57.0,56.0
255,71.61077635833333,71.83946947916667,65.0,61.0
256,71.61077635833333,71.872139925,72.0,75.0
257,71.61077635833333,72.04259442499999,62.0,54.0
258,71.95168535833334,72.1150375875,70.0,78.0
259,71.95168535833334,72.20878756249999,77.0,69.0
260,71.95168535833334,72.85083284583332,65.0,28.0
261,72.97441235833332,73.20736684166667,81.0,59.0
262,73.65645893749999,74.07025193749999,75.0,68.0
263,73.65645893749999,74.07312549999999,70.0,54.0
264,73.31532135833334,74.07312549999999,82.0,69.0
265,74.0012864375,74.86191840625,55.0,57.0
266,74.3461139375,75.12915971874999,60.0,58.0
267,74.6909414375,75.23835509374999,63.0,75.0
268,75.38059643749999,75.75559634375,67.0,71.0
269,73.65645893749999,75.76134346875,48.0,69.0
270,75.7254239375,75.88634343749999,55.0,52.0
271,76.07025143749999,76.26421690625,70.0,68.0
272,76.41769124999999,76.77158699999998,58.0,73.0
273,76.41769124999999,76.81866487499998,63.0,69.0
274,76.41769124999999,76.862496,67.0,73.0
275,77.19691124999999,77.42743049999999,69.0,75.0
276,77.19691124999999,77.48911874999999,60.0,69.0
277,77.19691124999999,77.48911874999999,65.0,72.0
278,77.19691124999999,77.67743024999999,53.0,57.0
279,77.97613124999998,78.10275449999999,63.0,80.0
280,77.97613124999998,78.11087137499999,58.0,81.0
281,77.97613124999998,78.15794924999999,70.0,74.0
282,77.97613124999998,78.24398812499999,53.0,55.0
283,76.41769124999999,78.578403375,41.0,74.0
284,78.75659657916665,79.492897225,45.0,77.0
285,79.57442735833332,80.07868858749998,65.0,75.0
286,79.57442735833332,80.29885898333332,60.0,73.0
287,79.57442735833332,80.32584761249998,62.0,72.0
288,79.57442735833332,80.38124532499998,70.0,80.0
289,80.25624535833332,80.65113161666665,58.0,71.0
290,80.59715435833331,80.91107472916666,60.0,77.0
291,80.59715435833331,81.14829057499999,65.0,79.0
292,80.93806335833332,81.33152916249999,58.0,33.0
293,81.27897235833332,81.47073367083333,62.0,68.0
294,81.27897235833332,81.62130181249998,70.0,79.0
295,81.61988135833332,81.82584721249998,58.0,56.0
296,81.61988135833332,81.84999493333332,60.0,73.0
297,81.61988135833332,81.91249491666666,69.0,79.0
298,79.91533635833332,82.02471079583331,53.0,72.0
299,79.57442735833332,82.12414258749999,46.0,83.0
300,81.96079035833331,82.26902891249999,70.0,79.0
301,82.30169935833332,82.60851745833332,69.0,84.0
302,82.30169935833332,82.80454013333332,62.0,76.0
303,82.30169935833332,82.86419920833332,43.0,79.0
304,82.64260835833332,82.90965374166666,70.0,80.0
305,82.64260835833332,82.96505145416666,50.0,68.0
306,82.98351735833332,83.14544913333332,62.0,57.0
307,82.98351735833332,83.37414225416666,69.0,77.0
308,82.98351735833332,83.37840361666666,53.0,48.0
309,83.32442635833331,83.67243762916665,65.0,79.0
310,83.32442635833331,83.70936943749999,62.0,71.0
311,83.66533535833332,84.27328974166666,58.0,72.0
312,84.00624435833332,84.27328974166666,65.0,79.0
313,83.32442635833331,84.41391470416666,55.0,75.0
314,84.34715335833332,84.64118737083332,67.0,77.0
315,84.68806235833333,84.95936910416665,70.0,79.0
316,85.02897135833332,85.34857354583332,39.0,79.0
317,85.36988035833332,85.76760752499999,51.0,68.0
318,85.02897135833332,85.87556204166665,58.0,62.0
319,85.02897135833332,85.87556204166665,63.0,76.0
320,85.02897135833332,86.08152789583332,67.0,75.0
321,86.05169835833333,86.81732315416666,55.0,76.0
322,86.39260735833332,86.83010724166665,58.0,78.0
323,87.07442535833331,87.19374350833331,55.0,80.0
324,86.73351635833332,87.20368668749998,63.0,84.0
325,85.71078935833332,87.21078895833332,53.0,72.0
326,87.41533435833333,87.63550475416665,58.0,75.0
327,87.75624335833332,88.27612958333332,58.0,81.0
328,87.75624335833332,88.35567501666665,63.0,80.0
329,87.75624335833332,88.38550455416666,67.0,79.0
330,87.75624335833332,88.53323178749999,41.0,82.0
331,88.09715235833332,88.61135676666666,48.0,75.0
332,88.43806135833331,88.63266357916666,53.0,69.0
333,88.77897035833332,88.93095895416666,58.0,75.0
334,89.11987935833332,89.36419747499998,69.0,82.0
335,89.11987935833332,89.43948154583332,60.0,78.0
336,89.11987935833332,89.45510654166665,65.0,75.0
337,89.11987935833332,89.62698149583332,41.0,78.0
338,89.46078835833332,89.75766327916665,48.0,71.0
339,89.80169735833331,89.94090186666665,62.0,76.0
340,89.80169735833331,89.97073140416666,70.0,79.0
341,89.80169735833331,90.19232225416665,53.0,54.0
342,90.14260635833332,90.24629951249999,55.0,63.0
343,90.14260635833332,90.26618587083331,63.0,63.0
344,90.14260635833332,90.26618587083331,72.0,79.0
345,90.48351535833332,90.92527660416665,74.0,82.0
346,90.48351535833332,90.93806069166665,46.0,83.0
347,90.48351535833332,90.95936750416665,65.0,72.0
348,90.82442435833332,91.08862883333332,53.0,71.0
349,91.16533335833331,91.54033325833332,58.0,68.0
350,91.50624235833332,91.64402641249998,75.0,78.0
351,91.50624235833332,91.68948094583332,67.0,68.0
352,91.50624235833332,91.89970816249999,60.0,75.0
353,91.84715135833332,92.02044676666665,75.0,80.0
354,91.84715135833332,92.13266264583332,67.0,75.0
355,91.84715135833332,92.17811717916665,62.0,60.0
356,92.18806035833332,92.45936710416666,60.0,54.0
357,92.35851485833332,92.68237840833332,65.0,71.0
358,92.35851485833332,92.74629884583332,74.0,79.0
359,92.52896935833331,92.79885564999998,58.0,17.0
360,92.86987835833332,92.95226469999999,55.0,72.0
361,92.86987835833332,92.99203741666665,65.0,33.0
362,92.86987835833332,93.06874194166664,72.0,81.0
363,93.21078735833332,93.8173212875,65.0,52.0
364,93.21078735833332,93.8173212875,70.0,77.0
365,93.21078735833332,93.86135536666666,43.0,80.0
366,93.55169635833332,93.91533262499999,50.0,75.0
367,93.89260535833331,94.31448024583332,53.0,69.0
368,94.91533235833332,95.11703684999999,62.0,73.0
369,95.08578685833332,95.21930954999999,69.0,82.0
370,94.57442335833332,95.36987769166666,58.0,82.0
371,95.25624135833331,95.41249131666666,70.0,79.0
372,94.23351435833332,95.45794584999999,55.0,73.0
373,95.42669585833332,95.57016172916666,69.0,79.0
374,95.59715035833332,95.71362759999998,65.0,61.0
375,95.76760485833331,95.90965027499999,62.0,72.0
376,95.93805935833332,96.62840008333332,58.0,80.0
377,96.27896835833332,97.11419540833332,63.0,80.0
378,96.61987735833333,97.13976358333332,55.0,59.0
379,96.61987735833333,97.22783174166665,62.0,80.0
380,96.96078635833332,97.68521798333332,51.0,62.0
381,97.30169535833332,98.08010424166665,55.0,61.0
382,97.30169535833332,98.09146787499998,58.0,78.0
383,97.30169535833332,98.10425196249999,63.0,77.0
384,95.93805935833332,98.31874054166666,39.0,82.0
385,97.98351335833331,98.35993371249998,51.0,58.0
386,96.27896835833332,98.37697916249999,46.0,78.0
387,98.32442235833332,98.50055867499998,55.0,70.0
388,98.66533135833332,99.02186535416665,58.0,82.0
389,98.66533135833332,99.05737670833332,63.0,80.0
390,98.66533135833332,99.10141078749999,55.0,71.0
391,98.66533135833332,99.10567214999999,36.0,82.0
392,99.00624035833332,99.26760392499999,48.0,61.0
393,99.00624035833332,99.31305845833332,62.0,82.0
394,99.34714935833333,99.66675154583332,60.0,82.0
395,99.68805835833332,100.18663777083331,58.0,80.0
396,99.68805835833332,100.25766047916665,55.0,71.0
397,99.68805835833332,100.26050138749999,39.0,79.0
398,99.68805835833332,100.27754683749998,51.0,63.0
399,99.68805835833332,100.30879682916665,63.0,79.0
400,101.39260335833332,102.06021681666665,65.0,72.0
401,101.39260335833332,102.08010317499998,62.0,59.0
402,101.39260335833332,102.14686452083332,60.0,60.0
403,102.07442135833332,102.56305759166665,58.0,55.0
404,102.41533035833332,103.20084151249998,63.0,70.0
405,101.39260335833332,103.26334149583332,70.0,59.0
406,102.41533035833332,103.27470512916665,67.0,62.0
407,101.73351235833331,103.55311414583332,53.0,60.0
408,103.09714835833331,103.66106866249999,58.0,36.0
409,103.43805735833331,103.77470499583332,60.0,59.0
410,101.39260335833332,103.82442089166665,46.0,79.0
411,103.43805735833331,103.98351175833332,65.0,72.0
412,103.77896635833332,104.15822762083332,53.0,53.0
413,104.11987535833332,105.55027270416664,62.0,55.0
414,104.11987535833332,105.55595452083332,65.0,18.0
415,104.11987535833332,105.56021588333331,70.0,71.0
416,105.82442035833331,106.04174984583332,62.0,67.0
417,105.14260235833332,106.19799980416666,53.0,61.0
418,105.48351135833332,106.20510207499999,58.0,52.0
419,104.11987535833332,106.38692020833332,46.0,62.0
420,106.16532935833332,106.47214745833332,65.0,73.0
421,106.50623835833332,106.88692007499998,70.0,52.0
422,106.84714735833332,107.80595392083332,75.0,78.0
423,106.84714735833332,107.81447664583332,66.0,67.0
424,107.52896535833332,108.02470386249999,63.0,63.0
425,108.21078335833332,108.52896509166665,63.0,31.0
426,107.86987435833332,108.55027190416665,72.0,83.0
427,107.18805635833331,108.56021508333332,58.0,63.0
428,108.55169235833333,108.85851045833331,70.0,83.0
429,108.55169235833333,108.95368088749998,66.0,43.0
430,106.84714735833332,109.02612404999999,51.0,80.0
431,108.89260135833332,109.22072627083332,58.0,63.0
432,109.23351035833332,109.43663530416666,63.0,75.0
433,109.40396485833332,109.62271479999998,65.0,72.0
434,109.57441935833332,110.27896462499999,66.0,77.0
435,109.91532835833331,110.54885091666665,65.0,69.0
436,110.25623735833332,110.67811224583332,58.0,61.0
437,109.91532835833331,110.74913495416665,53.0,57.0
438,110.59714635833332,111.36561206249999,63.0,76.0
439,109.57441935833332,111.73493014583332,46.0,67.0
440,111.27896435833333,111.84430511666665,58.0,69.0
441,111.96078235833332,112.23635046666665,63.0,75.0
442,111.61987335833331,112.28606636249998,53.0,71.0
443,112.30169135833331,112.47498676666666,60.0,69.0
444,112.41532769166665,113.08010024166666,62.0,76.0
445,112.98350935833332,113.57015692916664,58.0,59.0
446,113.32441835833332,113.96788409583331,60.0,69.0
447,113.32441835833332,113.98208863749998,65.0,78.0
448,113.32441835833332,114.01475908333332,62.0,62.0
449,112.30169135833331,114.26617947083332,46.0,79.0
450,114.00623635833333,114.30027037083332,58.0,45.0
451,112.64260035833331,114.66674754583332,53.0,62.0
452,114.34714535833332,114.84714522499999,60.0,57.0
453,114.34714535833332,114.92100884166665,70.0,72.0
454,115.02896335833333,115.74345180416665,60.0,29.0
455,115.02896335833333,115.77328134166666,70.0,45.0
456,115.02896335833333,115.77754270416665,62.0,54.0
457,114.68805435833332,115.80453133333332,65.0,68.0
458,115.71078135833332,116.21362213333332,58.0,63.0
459,116.05169035833332,116.69941745833331,60.0,61.0
460,116.05169035833332,116.70936063749998,70.0,69.0
461,116.05169035833332,116.72924699583332,62.0,60.0
462,116.05169035833332,116.74487199166666,65.0,71.0
463,115.36987235833331,117.04316736666665,53.0,68.0
464,116.73350835833332,117.08294008333331,58.0,69.0
465,117.07441735833332,117.22214459166665,62.0,58.0
466,115.02896335833333,117.26191730833332,46.0,73.0
467,117.07441735833332,117.30026957083331,70.0,69.0
468,117.07441735833332,117.32015592916665,65.0,76.0
469,117.07441735833332,117.36276955416665,60.0,69.0
470,117.41532635833332,117.77612171666665,53.0,68.0
471,117.75623535833333,118.50623515833331,60.0,58.0
472,117.75623535833333,118.54458742083332,63.0,72.0
473,117.75623535833333,118.59572377083332,66.0,62.0
474,118.43805335833332,119.36845083749998,58.0,57.0
475,117.75623535833333,119.858507525,46.0,63.0
476,118.77896235833332,119.88833706249999,60.0,62.0
477,119.46078035833332,119.92810977916665,63.0,67.0
478,118.77896235833332,120.01049612083332,66.0,60.0
479,119.80168935833332,120.08578019166666,58.0,58.0
480,118.09714435833331,120.11987109166665,54.0,68.0
481,120.48350735833333,121.05310947916665,58.0,36.0
482,120.48350735833333,121.44231392083333,63.0,75.0
483,120.14259835833332,121.44799573749998,60.0,58.0
484,121.84714335833331,122.15538191249999,65.0,78.0
485,120.48350735833333,122.31873414166665,54.0,69.0
486,121.50623435833332,122.46788182916666,58.0,49.0
487,122.18805235833332,122.53180226666666,66.0,74.0
488,120.48350735833333,122.78322265416665,46.0,56.0
489,122.52896135833332,122.86844990416665,63.0,40.0
490,122.86987035833332,123.11844983749998,60.0,59.0
491,123.21077935833333,123.36987022499999,60.0,69.0
492,123.21077935833333,124.01475641666664,58.0,63.0
493,124.23350635833332,125.08009704166665,53.0,68.0
494,124.23350635833332,125.08861976666665,58.0,70.0
495,123.32441569166664,125.16958565416665,62.0,76.0
496,123.21077935833333,125.34998333333331,46.0,55.0
497,125.25623335833332,125.62981280416665,58.0,62.0
498,125.25623335833332,125.67810824583331,53.0,55.0
499,125.25623335833332,125.72640368749998,63.0,73.0
500,125.59714235833331,125.81873320833333,46.0,57.0
501,125.93805135833333,126.6809488875,55.0,62.0
502,125.93805135833333,126.72214205833332,58.0,79.0
503,125.93805135833333,126.75339204999997,63.0,72.0
504,126.96077835833331,127.24913055416664,55.0,59.0
505,126.96077835833331,127.35140325416666,58.0,31.0
506,126.96077835833331,127.37839188333331,62.0,71.0
507,125.93805135833333,127.83435767083333,51.0,78.0
508,127.98350535833332,128.11560759583332,67.0,56.0
509,127.98350535833332,128.14969849583332,75.0,80.0
510,128.3244143583333,128.49770976666665,65.0,55.0
511,128.3244143583333,128.66816426666665,74.0,73.0
512,128.66532335833332,129.36702771666666,46.0,69.0
513,129.0062323583333,129.38265271249998,53.0,50.0
514,128.66532335833332,129.40537997916664,65.0,60.0
515,128.66532335833332,129.46219814583333,72.0,75.0
516,129.34714135833332,129.75623215833332,58.0,58.0
517,129.68805035833333,130.12839114999997,65.0,63.0
518,129.68805035833333,130.29316383333332,70.0,76.0
519,130.36986835833332,130.72356144583333,62.0,54.0
520,129.68805035833333,130.7249819,60.0,68.0
521,130.7107773583333,130.89117503749998,65.0,63.0
522,130.8812318583333,131.10282270833332,70.0,73.0
523,131.0516863583333,131.17384541666667,72.0,50.0
524,131.39259535833332,132.0871974458333,67.0,55.0
525,131.39259535833332,132.0871974458333,75.0,86.0
526,132.41532235833333,132.8684472375,65.0,60.0
527,131.73350435833333,133.0431631,58.0,54.0
528,132.07441335833332,133.0886176333333,63.0,63.0
529,132.7562313583333,133.0886176333333,70.0,73.0
530,133.09714035833332,133.5019697958333,69.0,73.0
531,133.43804935833333,133.65821975416665,58.0,75.0
532,131.39259535833332,133.66532202499997,51.0,73.0
533,133.7789583583333,134.52327634166664,58.0,63.0
534,133.43804935833333,134.73208310416663,65.0,67.0
535,134.11986735833332,134.8570830708333,63.0,63.0
536,134.11986735833332,135.2235602458333,67.0,71.0
537,134.4607763583333,135.29884431666665,55.0,50.0
538,135.14259435833333,135.62838968333332,63.0,71.0
539,134.80168535833332,135.75054874166665,60.0,56.0
540,135.14259435833333,135.85424189583333,70.0,78.0
541,134.11986735833332,135.88265097916664,48.0,40.0
542,136.1653213583333,136.51049172083333,58.0,77.0
543,135.82441235833332,136.76333256249998,55.0,55.0
544,136.5062303583333,136.9153211583333,67.0,63.0
545,136.84713935833332,137.25623015833332,60.0,59.0
546,136.84713935833332,137.41248011666664,65.0,74.0
547,137.86986635833333,138.32583214583332,65.0,60.0
548,137.18804835833333,138.41816166666666,57.0,56.0
549,138.2107753583333,138.5218548208333,72.0,75.0
550,137.52895735833332,138.60566161666665,62.0,67.0
551,138.55168435833332,138.9565137958333,69.0,72.0
552,138.89259335833333,139.1695819208333,57.0,69.0
553,136.84713935833332,139.18662737083332,50.0,72.0
554,138.89259335833333,139.20651372916666,65.0,49.0
555,139.2335023583333,139.62838861666665,60.0,56.0
556,139.57441135833332,140.22071800416666,48.0,70.0
557,139.57441135833332,140.22213845833332,63.0,74.0
558,139.9153203583333,140.23634299999998,55.0,54.0
559,139.57441135833332,140.29174071249997,67.0,70.0
560,140.25622935833331,140.64543379999998,58.0,62.0
561,140.9380473583333,141.5090699333333,62.0,75.0
562,140.59713835833332,141.52753583749998,60.0,75.0
563,141.27895635833332,141.89827437499997,67.0,58.0
564,141.6198653583333,142.02611524999998,70.0,76.0
565,142.30168335833332,142.63833099583331,65.0,54.0
566,142.30168335833332,142.8769672958333,41.0,57.0
567,142.30168335833332,142.903955925,74.0,75.0
568,142.64259235833333,142.95225136666664,48.0,56.0
569,142.9835013583333,143.16247858333332,75.0,63.0
570,142.9835013583333,143.17384221666666,67.0,50.0
571,142.9835013583333,143.4522512333333,53.0,38.0
572,143.32441035833332,143.78463750833333,55.0,52.0
573,143.6653193583333,143.8357738583333,69.0,68.0
574,143.6653193583333,143.85992157916667,77.0,71.0
575,143.6653193583333,144.49344413749998,57.0,68.0
576,144.68804635833334,144.81446677916665,75.0,78.0
577,144.68804635833334,144.85565995,67.0,68.0
578,145.02895535833332,145.4479893375,74.0,74.0
579,145.02895535833332,145.50906886666667,65.0,57.0
580,145.7107733583333,146.3599209125,58.0,61.0
581,146.05168235833332,146.70367082083334,65.0,61.0
582,146.05168235833332,146.71787536249997,60.0,56.0
583,146.05168235833332,146.75622762499998,62.0,61.0
584,146.73350035833332,147.21077295833334,58.0,51.0
585,145.02895535833332,147.30452293333332,46.0,68.0
586,145.3698643583333,147.34003428749998,53.0,58.0
587,147.0744093583333,147.39259109166665,60.0,75.0
588,147.4153183583333,147.73065918333333,65.0,73.0
589,147.75622735833332,148.1752613375,63.0,75.0
590,147.75622735833332,148.2036704208333,58.0,59.0
591,147.75622735833332,148.2477045,67.0,68.0
592,148.4380453583333,149.26617013749998,58.0,63.0
593,148.09713635833333,149.3158860333333,55.0,59.0
594,148.77895435833332,149.75764727916663,65.0,68.0
595,147.75622735833332,150.07156764999996,51.0,72.0
596,150.14259035833334,150.24770396666665,58.0,60.0
597,150.14259035833334,150.44798800416663,63.0,77.0
598,150.48349935833332,150.99912422083332,62.0,56.0
599,150.48349935833332,151.0246923958333,60.0,53.0
600,150.48349935833332,151.11844237083332,65.0,72.0
601,151.1653173583333,151.66957858749998,58.0,57.0
602,151.50622635833332,151.92241942916667,65.0,72.0
603,151.50622635833332,151.97639668749997,60.0,59.0
604,151.50622635833332,152.11702164999997,62.0,69.0
605,152.18804435833331,152.55452153333331,58.0,52.0
606,150.8244083583333,152.64685105416663,53.0,62.0
607,152.5289533583333,152.76332829583333,62.0,75.0
608,152.6994078583333,152.82298737083332,58.0,52.0
609,152.5289533583333,152.82298737083332,60.0,75.0
610,152.5289533583333,152.8272487333333,65.0,78.0
611,150.48349935833332,152.92241916249998,46.0,68.0
612,152.8698623583333,153.09997593333333,63.0,71.0
613,153.0403168583333,153.17241909583333,65.0,76.0
614,153.21077135833332,153.55025990416664,58.0,72.0
615,153.21077135833332,153.60139625416664,63.0,71.0
616,153.21077135833332,153.64116897083332,67.0,76.0
617,153.8925893583333,154.1795211,58.0,63.0
618,153.55168035833333,154.5744073583333,55.0,53.0
619,154.23349835833332,154.69940732499998,65.0,68.0
620,154.23349835833332,154.73065731666665,58.0,45.0
621,153.21077135833332,154.76900957916666,51.0,75.0
622,154.9153163583333,155.29741852916663,51.0,73.0
623,155.25622535833332,155.49770256666665,70.0,50.0
624,155.25622535833332,155.69088433333332,65.0,75.0
625,155.25622535833332,155.69798660416666,58.0,72.0
626,155.25622535833332,155.7477025,50.0,75.0
627,155.59713435833334,155.81872520833332,70.0,18.0
628,155.93804335833332,156.31872507499997,63.0,71.0
629,155.93804335833332,156.34713415833332,58.0,62.0
630,155.93804335833332,156.38406596666664,67.0,70.0
631,155.93804335833332,156.761906775,70.0,36.0
632,156.2789523583333,157.256224825,55.0,56.0
633,156.6198613583333,157.68094062083333,58.0,75.0
634,156.96077035833332,157.6894633458333,63.0,80.0
635,157.6425883583333,158.02469052916666,55.0,59.0
636,157.9834973583333,158.3499745333333,58.0,74.0
637,155.93804335833332,158.35565635,48.0,72.0
638,157.9834973583333,158.4650313208333,63.0,72.0
639,157.9834973583333,158.4792358625,67.0,75.0
640,158.3244063583333,158.7164517083333,55.0,58.0
641,158.66531535833332,159.02611071666666,60.0,69.0
642,158.66531535833332,159.03463344166664,65.0,76.0
643,159.00622435833333,159.91105366249997,57.0,72.0
644,159.68804235833332,160.33434900416665,72.0,75.0
645,159.68804235833332,160.3883262625,65.0,74.0
646,159.34713335833334,160.4082126208333,60.0,60.0
647,158.66531535833332,160.81446251249997,50.0,77.0
648,160.3698603583333,160.81446251249997,57.0,72.0
649,160.71076935833332,161.02042836666664,65.0,73.0
650,161.39258735833332,161.68804182499997,58.0,70.0
651,161.39258735833332,161.97355311249999,67.0,63.0
652,161.39258735833332,162.01332582916666,63.0,72.0
653,161.05167835833333,162.10565534999998,70.0,73.0
654,162.41531435833332,162.57582567916666,63.0,51.0
655,162.0744053583333,163.09997326666667,60.0,57.0
656,163.0971323583333,163.23917777499997,75.0,75.0
657,163.0971323583333,163.2604845875,67.0,58.0
658,163.43804135833332,163.55877996249998,74.0,73.0
659,163.43804135833332,163.57156404999998,65.0,57.0
660,163.43804135833332,163.65679129999998,60.0,59.0
661,161.39258735833332,163.70508674166666,48.0,62.0
662,161.7334963583333,163.73917764166663,55.0,56.0
663,163.7789503583333,163.8272458,69.0,38.0
664,164.48716742499997,164.99326407499998,53.0,48.0
665,164.85302042499998,165.11216629999998,58.0,73.0
666,164.85302042499998,165.12588578749998,63.0,73.0
667,164.85302042499998,165.14722721249998,67.0,75.0
668,165.21887342499997,165.54966551249998,53.0,48.0
669,164.12131442499998,165.60454346249998,41.0,79.0
670,165.58472642499999,165.7219213,43.0,79.0
671,165.58472642499999,165.749360275,69.0,84.0
672,165.58472642499999,165.76307976249998,60.0,80.0
673,165.58472642499999,165.79966506249997,65.0,76.0
674,166.316432425,166.49021259999998,58.0,76.0
675,166.316432425,166.51002963749997,63.0,75.0
676,166.316432425,166.59844411249998,67.0,75.0
677,167.04668335833333,167.15747878333332,34.0,73.0
678,167.04668335833333,167.50975141666666,62.0,79.0
679,167.04668335833333,167.53816049999998,65.0,78.0
680,167.04668335833333,167.563728675,70.0,83.0
681,167.72850135833332,168.02537627916666,62.0,72.0
682,167.72850135833332,168.02537627916666,70.0,20.0
683,167.72850135833332,168.049524,60.0,73.0
684,167.72850135833332,168.06230808749999,65.0,75.0
685,168.06941035833333,168.47566024999998,58.0,56.0
686,168.4103193583333,168.60066021666665,62.0,61.0
687,168.4103193583333,168.60918294166666,60.0,62.0
688,168.4103193583333,168.65889883749998,65.0,75.0
689,167.72850135833332,168.97708057083332,53.0,68.0
690,168.75122835833332,169.21429641666666,58.0,53.0
691,169.09213735833333,169.27537594583333,67.0,75.0
692,169.09213735833333,169.285319125,75.0,83.0
693,167.3875923583333,169.35776228749998,46.0,59.0
694,169.4330463583333,169.55520541666667,53.0,72.0
695,169.4330463583333,169.62764857916665,65.0,68.0
696,169.4330463583333,169.72423946249998,74.0,76.0
697,169.77395535833332,170.04810301249998,72.0,84.0
698,169.77395535833332,170.27253477083332,65.0,73.0
699,169.77395535833332,170.35350065833333,43.0,77.0
700,170.1148643583333,170.4259438208333,74.0,73.0
701,170.1148643583333,170.42878472916667,50.0,74.0
702,170.45577335833332,170.87196642916666,53.0,54.0
703,170.45577335833332,170.95293231666665,70.0,80.0
704,170.45577335833332,171.13190954166666,65.0,70.0
705,171.47850035833332,171.77111391666665,62.0,73.0
706,171.64895485833333,171.80236390833332,65.0,69.0
707,171.1375913583333,171.82509117499998,58.0,75.0
708,170.79668235833333,171.90463660833333,55.0,68.0
709,171.81940935833333,172.01827294166665,69.0,73.0
710,171.9898638583333,172.1517956333333,70.0,77.0
711,172.33077285833332,172.57935233749998,70.0,69.0
712,172.1603183583333,172.58929551666665,72.0,80.0
713,172.50122735833332,173.05378402916665,67.0,78.0
714,172.84213635833333,173.26827260833332,58.0,78.0
715,173.18304535833332,173.52679526666665,63.0,73.0
716,173.52395435833333,173.9287837958333,65.0,72.0
717,173.8648633583333,174.34213595833333,63.0,69.0
718,173.8648633583333,174.53673817916666,67.0,80.0
719,172.50122735833332,174.57935180416666,51.0,80.0
720,173.52395435833333,174.59639725416665,58.0,70.0
721,174.8875903583333,175.08077212499998,58.0,72.0
722,174.54668135833333,175.1688402833333,46.0,79.0
723,175.22849935833332,175.6177038,58.0,76.0
724,175.22849935833332,175.62480607083333,63.0,80.0
725,175.22849935833332,175.6759424208333,70.0,60.0
726,175.22849935833332,175.68730605416664,67.0,78.0
727,175.22849935833332,176.10065821666666,36.0,78.0
728,175.56940835833333,176.27679453333332,48.0,60.0
729,175.91031735833332,176.3321922458333,58.0,79.0
730,176.25122635833333,176.44298767083333,70.0,83.0
731,176.5921353583333,176.85918074166665,65.0,73.0
732,176.5921353583333,176.86486255833333,60.0,76.0
733,176.5921353583333,176.88332846249997,69.0,84.0
734,176.5921353583333,177.11912385416665,41.0,76.0
735,176.93304435833332,177.2270783708333,48.0,75.0
736,177.27395335833333,177.36344197083332,62.0,79.0
737,177.27395335833333,177.39185105416666,70.0,86.0
738,177.27395335833333,177.65889643749998,53.0,55.0
739,177.6148623583333,177.66883961666665,65.0,55.0
740,177.6148623583333,177.671680525,63.0,58.0
741,177.6148623583333,177.70008960833331,55.0,72.0
742,177.6148623583333,177.71571460416666,72.0,83.0
743,177.95577135833332,178.46571440416665,74.0,81.0
744,177.95577135833332,178.48702121666665,65.0,42.0
745,178.29668035833333,178.56656665,53.0,68.0
746,178.63758935833332,178.98275972083331,58.0,56.0
747,178.97849835833333,179.11060059583332,63.0,62.0
748,178.97849835833333,179.120543775,72.0,82.0
749,178.97849835833333,179.32650962916665,60.0,71.0
750,177.95577135833332,179.546680025,46.0,79.0
751,179.3194073583333,179.55804365833333,70.0,86.0
752,179.3194073583333,179.73560042916665,62.0,75.0
753,180.00122535833333,180.27537301249998,62.0,72.0
754,180.00122535833333,180.28673664583332,46.0,71.0
755,180.00122535833333,180.29667982499998,70.0,84.0
756,180.3421343583333,180.66883881666666,69.0,72.0
757,180.3421343583333,180.74554334166666,45.0,83.0
758,181.02395235833333,181.38616817083332,50.0,56.0
759,180.68304335833332,181.38758862499998,43.0,75.0
760,181.36486135833331,181.75690670833333,53.0,63.0
761,180.68304335833332,181.98986119166665,65.0,77.0
762,180.68304335833332,182.10491797916666,62.0,69.0
763,180.68304335833332,182.11486115833333,70.0,78.0
764,182.38758835833332,182.62054284166666,62.0,69.0
765,182.0466793583333,182.72565644999997,58.0,82.0
766,182.55804285833332,182.76116780416666,65.0,71.0
767,181.70577035833333,182.77111098333333,55.0,71.0
768,182.72849735833333,182.89327004166665,69.0,80.0
769,182.89895185833333,183.17025860416666,70.0,81.0
770,183.0694063583333,183.25974721666665,65.0,43.0
771,183.41031535833332,183.842133425,67.0,79.0
772,183.23986085833332,183.8634402375,58.0,76.0
773,183.41031535833332,183.89184932083333,63.0,79.0
774,183.41031535833332,183.97423566249998,39.0,77.0
775,183.75122435833333,184.03673564583332,46.0,76.0
776,184.0921333583333,184.31656511666665,58.0,71.0
777,184.0921333583333,184.41741736249998,65.0,74.0
778,184.0921333583333,184.4927014333333,51.0,59.0
779,184.43304235833332,184.81230362083332,63.0,79.0
780,184.43304235833332,184.83929224999997,67.0,78.0
781,184.43304235833332,184.84781497499998,58.0,77.0
782,184.43304235833332,184.96003085416666,53.0,79.0
783,184.7739513583333,185.25548532083332,55.0,76.0
784,185.11486035833332,185.34923529583332,58.0,69.0
785,185.11486035833332,185.39611028333331,53.0,61.0
786,185.45576935833333,185.56088296666667,58.0,20.0
787,185.45576935833333,185.78815563333333,51.0,56.0
788,185.45576935833333,185.9429851375,63.0,80.0
789,185.7966783583333,186.15321235416667,46.0,75.0
790,186.13758735833332,186.54099634166664,63.0,81.0
791,186.13758735833332,186.56798497083332,67.0,79.0
792,186.13758735833332,186.60491677916664,58.0,79.0
793,186.13758735833332,187.15889390416666,39.0,83.0
794,186.8194053583333,187.16031435833332,58.0,75.0
795,186.47849635833333,187.25264387916667,51.0,60.0
796,187.50122335833333,188.29667769166664,69.0,81.0
797,187.50122335833333,188.3037799625,65.0,72.0
798,187.50122335833333,188.32366632083333,60.0,73.0
799,187.84213235833332,188.43730265416664,48.0,72.0
800,187.50122335833333,188.46002992083334,41.0,76.0
801,188.18304135833333,188.56940489166666,53.0,68.0
802,188.86485935833332,189.5736659875,65.0,76.0
803,188.86485935833332,189.5949728,62.0,77.0
804,188.86485935833332,189.67309777916665,70.0,82.0
805,189.5466773583333,189.9486658875,58.0,73.0
806,189.88758635833332,190.2796317083333,60.0,73.0
807,189.88758635833332,190.4259384875,63.0,79.0
808,189.88758635833332,190.44440439166667,67.0,76.0
809,190.56940435833332,190.99412015416667,65.0,78.0
810,190.56940435833332,191.0054837875,62.0,78.0
811,190.56940435833332,191.01400651249998,70.0,79.0
812,190.91031335833333,191.10491557916666,58.0,63.0
813,188.86485935833332,191.2015064625,46.0,84.0
814,189.20576835833333,191.3208246125,53.0,73.0
815,191.2512223583333,191.3790632333333,62.0,53.0
816,191.59307831249998,191.95468509375,65.0,83.0
817,191.59307831249998,192.01123265624997,60.0,80.0
818,191.59307831249998,192.09158971875,72.0,86.0
819,191.59307831249998,192.477006,53.0,80.0
820,192.30736331249997,192.68533912499998,65.0,82.0
821,192.30736331249997,192.69129149999998,60.0,79.0
822,192.30736331249997,192.7002200625,69.0,86.0
823,191.59307831249998,192.77908903124998,41.0,84.0
824,192.66450581249998,192.85051753124998,53.0,67.0
825,193.0216483125,193.07819587499998,65.0,69.0
826,193.0216483125,193.16748149999998,67.0,82.0
827,193.0216483125,193.17194578124997,60.0,82.0
828,193.0216483125,193.87283793749998,53.0,82.0
829,193.0216483125,193.91896884374998,41.0,83.0
830,193.73593331249998,194.07819487499998,58.0,80.0
831,193.73593331249998,194.08414724999997,63.0,84.0
832,193.73593331249998,194.12134959374998,67.0,78.0
833,194.0930758125,194.19128999999998,41.0,84.0
834,194.44973382499998,194.56310584999997,34.0,101.0
835,194.44973382499998,194.92357074999998,62.0,79.0
836,194.44973382499998,194.95264049999997,65.0,78.0
837,194.44973382499998,194.97880327499996,70.0,83.0
838,195.14740782499996,195.45118671249998,62.0,72.0
839,195.14740782499996,195.45118671249998,70.0,20.0
840,195.14740782499996,195.47589599999998,60.0,73.0
841,195.14740782499996,195.48897738749997,65.0,75.0
842,195.49624482499996,195.90996024999998,58.0,56.0
843,195.84461935833332,196.03496021666666,62.0,61.0
844,195.84461935833332,196.04348294166664,60.0,62.0
845,195.84461935833332,196.09319883749998,65.0,75.0
846,195.14740782499996,196.4113805708333,53.0,68.0
847,196.1855283583333,196.64859641666663,58.0,53.0
848,196.5264373583333,196.7096759458333,67.0,75.0
849,196.5264373583333,196.71961912499998,75.0,83.0
850,194.79857082499996,196.7920622875,46.0,59.0
851,196.86734635833332,196.98950541666665,53.0,72.0
852,196.86734635833332,197.06194857916665,65.0,68.0
853,196.86734635833332,197.1585394625,74.0,76.0
854,197.2082553583333,197.4824030125,72.0,84.0
855,197.2082553583333,197.70683477083332,65.0,73.0
856,197.2082553583333,197.7878006583333,43.0,77.0
857,197.54916435833331,197.86024382083332,74.0,73.0
858,197.54916435833331,197.86308472916664,50.0,74.0
859,197.89007335833332,198.30626642916664,53.0,54.0
860,197.89007335833332,198.38723231666665,70.0,80.0
861,197.89007335833332,198.56620954166664,65.0,70.0
862,198.9128003583333,199.20541391666666,62.0,73.0
863,199.0832548583333,199.23666390833333,65.0,69.0
864,198.57189135833332,199.259391175,58.0,75.0
865,198.2309823583333,199.3389366083333,55.0,68.0
866,199.2537093583333,199.45257294166666,69.0,73.0
867,199.42416385833332,199.58609563333331,70.0,77.0
868,199.76507285833333,200.0136523375,70.0,69.0
869,199.59461835833332,200.02359551666666,72.0,80.0
870,199.9355273583333,200.48808402916666,67.0,78.0
871,200.2764363583333,200.70257260833333,58.0,78.0
872,200.61734535833332,200.96109526666666,63.0,73.0
873,200.9582543583333,201.36308379583332,65.0,72.0
874,201.29916335833332,201.7764359583333,63.0,69.0
875,201.29916335833332,201.97103817916664,67.0,80.0
876,199.9355273583333,202.01365180416664,51.0,80.0
877,200.9582543583333,202.03069725416665,58.0,70.0
878,202.32189035833332,202.515072125,58.0,72.0
879,201.9809813583333,202.60314028333332,46.0,79.0
880,202.6627993583333,203.05200379999997,58.0,76.0
881,202.6627993583333,203.0591060708333,63.0,80.0
882,202.6627993583333,203.11024242083332,70.0,60.0
883,202.6627993583333,203.12160605416665,67.0,78.0
884,202.6627993583333,203.53495821666664,36.0,78.0
885,203.0037083583333,203.71109453333332,48.0,60.0
886,203.34461735833332,203.76649224583332,58.0,79.0
887,203.6855263583333,203.8772876708333,70.0,83.0
888,204.02643535833332,204.29348074166666,65.0,73.0
889,204.02643535833332,204.2991625583333,60.0,76.0
890,204.02643535833332,204.31762846249998,69.0,84.0
891,204.02643535833332,204.55342385416665,41.0,76.0
892,204.36734435833333,204.66137837083332,48.0,75.0
893,204.7082533583333,204.79774197083333,62.0,79.0
894,204.7082533583333,204.82615105416664,70.0,86.0
895,204.7082533583333,205.09319643749998,53.0,55.0
896,205.04916235833332,205.10313961666665,65.0,55.0
897,205.04916235833332,205.10598052499998,63.0,58.0
898,205.04916235833332,205.13438960833332,55.0,72.0
899,205.04916235833332,205.15001460416664,72.0,83.0
900,205.3900713583333,205.82757124166665,46.0,79.0
901,205.3900713583333,205.90001440416665,74.0,81.0
902,205.3900713583333,205.92132121666666,65.0,42.0
903,205.7309803583333,206.00086664999998,53.0,68.0
904,206.07188935833332,206.41705972083332,58.0,56.0
905,206.4127983583333,206.54490059583333,63.0,62.0
906,206.4127983583333,206.554843775,72.0,82.0
907,206.4127983583333,206.76080962916666,60.0,71.0
908,206.75370735833332,206.9923436583333,70.0,86.0
909,206.75370735833332,207.16990042916666,62.0,75.0
910,207.4355253583333,207.7096730125,62.0,72.0
911,207.4355253583333,207.72103664583332,46.0,71.0
912,207.4355253583333,207.730979825,70.0,84.0
913,207.77643435833332,208.10313881666664,69.0,72.0
914,207.77643435833332,208.17984334166664,45.0,83.0
915,208.4582523583333,208.82046817083332,50.0,56.0
916,208.1173433583333,208.82188862499999,43.0,75.0
917,208.79916135833332,209.1912067083333,53.0,63.0
918,208.1173433583333,209.42416119166666,65.0,77.0
919,208.1173433583333,209.53921797916664,62.0,69.0
920,208.1173433583333,209.5491611583333,70.0,78.0
921,209.82188835833333,210.05484284166664,62.0,69.0
922,209.48097935833331,210.15995644999998,58.0,82.0
923,209.9923428583333,210.19546780416664,65.0,71.0
924,209.1400703583333,210.2054109833333,55.0,71.0
925,210.1627973583333,210.32757004166666,69.0,80.0
926,210.3332518583333,210.60455860416664,70.0,81.0
927,210.50370635833332,210.69404721666666,65.0,43.0
928,210.8446153583333,211.276433425,67.0,79.0
929,210.67416085833332,211.29774023749997,58.0,76.0
930,210.8446153583333,211.3261493208333,63.0,79.0
931,210.8446153583333,211.4085356625,39.0,77.0
932,211.1855243583333,211.47103564583333,46.0,76.0
933,211.52643335833332,211.75086511666666,58.0,71.0
934,211.52643335833332,211.85171736249998,65.0,74.0
935,211.52643335833332,211.92700143333332,51.0,59.0
936,211.8673423583333,212.2466036208333,63.0,79.0
937,211.8673423583333,212.27359224999998,67.0,78.0
938,211.8673423583333,212.28211497499998,58.0,77.0
939,211.8673423583333,212.39433085416664,53.0,79.0
940,212.2082513583333,212.68978532083332,55.0,76.0
941,212.54916035833332,212.7835352958333,58.0,69.0
942,212.54916035833332,212.83041028333332,53.0,61.0
943,212.8900693583333,212.99518296666665,58.0,20.0
944,212.8900693583333,213.2224556333333,51.0,56.0
945,212.8900693583333,213.37728513749997,63.0,80.0
946,213.23097835833332,213.58751235416665,46.0,75.0
947,213.5718873583333,213.97529634166665,63.0,81.0
948,213.5718873583333,214.0022849708333,67.0,79.0
949,213.5718873583333,214.03921677916665,58.0,79.0
950,213.5718873583333,214.59319390416664,39.0,83.0
951,214.25370535833332,214.5946143583333,58.0,75.0
952,213.9127963583333,214.68694387916665,51.0,60.0
953,214.9355233583333,215.73097769166665,69.0,81.0
954,214.9355233583333,215.73807996249997,65.0,72.0
955,214.9355233583333,215.7579663208333,60.0,73.0
956,215.27643235833332,215.87160265416665,48.0,72.0
957,214.9355233583333,215.89432992083331,41.0,76.0
958,215.6173413583333,216.00370489166664,53.0,68.0
959,216.29915935833333,217.11876141249996,70.0,90.0
960,216.29915935833333,217.12018186666666,62.0,59.0
961,216.98097735833332,217.2451818333333,55.0,68.0
962,216.29915935833333,217.2806931875,43.0,80.0
963,216.6400683583333,217.29915909166664,50.0,72.0
964,217.3218863583333,217.47387495416666,62.0,72.0
965,217.3218863583333,217.64432945416664,70.0,82.0
966,217.6627953583333,218.1187611458333,60.0,71.0
967,217.6627953583333,218.27359065,69.0,84.0
968,217.6627953583333,218.34319290416664,41.0,73.0
969,218.00370435833332,218.4170565208333,50.0,62.0
970,218.3446133583333,218.52359058333332,53.0,69.0
971,218.3446133583333,218.52927239999997,60.0,61.0
972,218.3446133583333,218.554840575,65.0,75.0
973,219.0264313583333,219.4369426125,63.0,75.0
974,219.0264313583333,219.458249425,58.0,73.0
975,219.0264313583333,219.51932895416664,67.0,78.0
976,219.70824935833332,220.08893107499998,58.0,62.0
977,219.0264313583333,220.23807876249998,51.0,41.0
978,219.3673403583333,220.2409196708333,55.0,73.0
979,220.0491583583333,220.310521925,67.0,73.0
980,220.3900673583333,220.78921497916664,58.0,76.0
981,220.3900673583333,220.82330587916664,65.0,79.0
982,220.73097635833332,221.1997262333333,53.0,69.0
983,220.3900673583333,221.2252944083333,50.0,67.0
984,221.0718853583333,221.28637393749997,58.0,72.0
985,221.41279435833331,221.62728293749998,65.0,76.0
986,221.75370335833333,222.18836233333332,58.0,70.0
987,221.75370335833333,222.20540778333333,63.0,79.0
988,221.75370335833333,222.54773723749997,70.0,67.0
989,222.0946123583333,222.73097582499997,55.0,54.0
990,221.75370335833333,222.73239627916664,48.0,72.0
991,222.43552135833332,222.88580532916666,58.0,73.0
992,222.7764303583333,223.38154383333332,70.0,79.0
993,223.45824835833332,223.7437596458333,67.0,80.0
994,223.7991573583333,224.01364593749997,63.0,79.0
995,224.1400663583333,224.2167708833333,58.0,76.0
996,224.48296399999998,224.92671399999998,55.0,71.0
997,224.48296399999998,224.939214,58.0,81.0
998,224.48296399999998,224.94233899999998,63.0,76.0
999,225.23296399999998,225.673589,55.0,76.0
1000,224.85796399999998,225.77046399999998,53.0,40.0
1001,225.60796399999998,226.14463338333331,58.0,77.0
1002,225.98324090833333,226.25064608749997,75.0,90.0
1003,225.98324090833333,226.27279799583332,67.0,76.0
1004,226.3629879083333,226.59400066666666,74.0,83.0
1005,226.3629879083333,226.616152575,65.0,78.0
1006,224.48296399999998,226.89915424999998,41.0,74.0
1007,226.74558297499996,226.99379701249998,72.0,86.0
1008,226.74558297499996,227.0116541375,63.0,82.0
1009,227.17415397499997,227.577725,62.0,81.0
1010,227.567010725,227.577725,62.0,76.0
1011,227.17415397499997,227.59736783749997,70.0,90.0
1012,227.55808216249997,227.7116534375,34.0,86.0
1013,227.567010725,227.93129607499998,53.0,60.0
1014,227.58486784999997,228.09022448749997,60.0,75.0
1015,227.5616535875,228.10272447499997,58.0,72.0
1016,228.61879538749997,228.81522376249998,60.0,73.0
1017,228.79200949999998,228.96700932499996,62.0,76.0
1018,228.92772365,229.11879488749997,65.0,75.0
1019,229.18486624999997,229.238437625,70.0,78.0
1020,229.32772324999996,229.5491516,72.0,76.0
1021,229.41343744999998,229.62236581249996,74.0,71.0
1022,229.5937944125,229.78307993749996,77.0,73.0
1023,229.75629424999997,229.82236561249996,82.0,62.0
1024,229.9491512,230.19557952499997,84.0,73.0
1025,228.46879553749997,230.22772234999996,58.0,76.0
1026,228.29022428749997,230.27057944999999,53.0,75.0
1027,228.117010175,230.31165083749997,46.0,71.0
1028,230.17236526249997,230.42772214999997,86.0,54.0
1029,230.38486504999997,230.66700762499997,89.0,71.0
1030,230.67236476249997,230.73486469999997,94.0,77.0
