,start,end,pitch,velocity
0,7.918467175000001,8.059771325000002,73.0,90.0
1,8.135858175000001,8.244553675,73.0,89.0
2,8.353249175000002,8.659408166666667,73.0,93.0
3,8.788031175000002,8.927523733333334,73.0,93.0
4,9.005422175000001,9.320639125000001,72.0,94.0
5,9.440204175000002,9.797087733333335,73.0,91.0
6,9.874986175000002,10.233681325000001,75.0,91.0
7,10.309768175000002,10.666651733333335,72.0,89.0
8,10.744550175000002,11.115926466666668,72.0,91.0
9,11.179332175000003,13.157590275000002,73.0,89.0
10,14.874979175000002,14.992732633333336,73.0,89.0
11,15.092370175000003,15.211935225000003,73.0,89.0
12,15.309761175000002,16.025339883333334,73.0,94.0
13,16.179325175000002,16.572440566666668,72.0,91.0
14,16.614107175,16.777150425000002,73.0,92.0
15,16.831498175000004,17.331497475000003,75.0,93.0
16,17.266280175000002,17.57243916666667,72.0,92.0
17,17.701062175000004,19.50178429166667,73.0,93.0
18,20.961927175000003,21.288013675000002,73.0,96.0
19,21.396709175,22.510838050000004,82.0,89.0
20,22.701055175000004,23.67025671666667,80.0,93.0
21,24.005401175000003,24.326052900000004,77.0,93.0
22,24.440183175000005,24.61047279166667,77.0,89.0
23,24.657574175000004,25.014457733333337,75.0,91.0
24,25.092356175000003,26.150325708333337,77.0,98.0
25,26.179311175000006,26.29706463333334,75.0,93.0
26,26.396702175000005,27.32242551666667,77.0,94.0
27,27.918439175000003,28.07242446666667,80.0,93.0
28,28.135830175000006,28.336916850000005,82.0,89.0
29,28.353221175000005,29.630393300000005,75.0,92.0
30,29.874958175000003,29.970972533333338,75.0,94.0
31,30.092349175000006,30.271696750000004,75.0,91.0
32,30.309740175000005,30.657565775000005,73.0,87.0
33,30.744522175000004,30.86046404166667,73.0,87.0
34,30.961913175000007,31.282564900000004,73.0,89.0
35,31.396695175000005,31.688361433333338,73.0,83.0
36,31.831477175000003,32.239085300000006,70.0,89.0
37,32.266259175,34.06698129166667,68.0,87.0
38,35.744515175000004,35.88581932500001,73.0,90.0
39,35.961906175,36.070601675000006,73.0,89.0
40,36.179297175,36.48545616666667,73.0,93.0
41,36.61407917500001,36.75357173333334,73.0,93.0
42,36.83147017500001,37.14668712500001,72.0,94.0
43,37.266252175000005,37.62313573333334,73.0,91.0
44,37.701034175000004,38.059729325000006,75.0,91.0
45,38.13581617500001,38.49269973333334,72.0,89.0
46,38.57059817500001,40.958275991666675,73.0,91.0
47,42.70102717500001,42.81878063333334,73.0,89.0
48,42.918418175000006,43.037983225000005,73.0,89.0
49,43.135809175000006,43.85138788333334,73.0,94.0
50,44.00537317500001,44.39848856666667,72.0,91.0
51,44.44015517500001,44.60319842500001,73.0,92.0
52,44.65754617500001,45.157545475000006,75.0,93.0
53,45.092328175000006,45.398487166666676,72.0,92.0
54,45.527110175000004,47.327832291666674,73.0,93.0
55,48.78797517500001,49.11406167500001,73.0,96.0
56,49.222757175000005,50.08869799166668,82.0,89.0
57,50.30971217500001,51.48000039166668,80.0,95.0
58,51.83144917500001,52.15210090000001,77.0,93.0
59,52.26623117500001,52.43652079166667,77.0,89.0
60,52.48362217500001,52.70463635833334,75.0,91.0
61,52.710071133333344,53.97637370833334,77.0,98.0
62,54.00535917500001,54.12311263333334,80.0,93.0
63,54.445575950000006,55.14847351666668,77.0,94.0
64,55.74448717500001,55.898472466666675,73.0,93.0
65,55.96187817500001,56.16296485000001,75.0,89.0
66,56.17926917500001,57.45644130000001,75.0,92.0
67,57.91839717500001,58.23723730833334,75.0,94.0
68,58.35317917500001,58.68107726666668,73.0,91.0
69,58.78796117500001,58.94013487500001,75.0,94.0
70,59.005352175000006,59.34230822500001,75.0,101.0
71,59.65752517500001,61.46187047500001,75.0,94.0
72,62.26621717500001,62.61223118333334,85.0,98.0
73,62.70099917500001,63.01621612500001,84.0,98.0
74,63.13578117500001,63.69375140833334,82.0,98.0
75,63.78795417500001,63.958243791666675,80.0,91.0
76,64.00534517500002,64.21548980833334,77.0,98.0
77,64.22273617500001,64.60135883333335,80.0,91.0
78,64.657518175,65.53614013333335,77.0,101.0
79,65.74447317500001,66.04882057500001,77.0,98.0
80,66.17925517500001,66.49990690000001,80.0,94.0
81,66.614037175,66.92744253333335,82.0,93.0
82,67.048819175,67.38577522500002,82.0,94.0
83,67.483601175,67.69736899166668,80.0,91.0
84,67.70099217500001,67.92381795000001,78.0,87.0
85,67.91838317500002,68.08323801666668,80.0,88.0
86,68.13577417500001,69.02164250000001,77.0,92.0
87,69.65751117500001,69.8042501,75.0,94.0
88,69.87490217500002,70.01801791666668,73.0,89.0
89,70.09229317500001,71.19374090833334,75.0,94.0
90,71.83142117500002,72.14120335000001,80.0,93.0
91,72.26620317500002,72.57417375833334,82.0,89.0
92,72.70098517500001,73.00895575833334,80.0,94.0
93,73.13576717500001,73.27888291666667,75.0,90.0
94,73.353158175,75.35315537500001,77.0,88.0
95,76.17924117500002,76.49808130833334,85.0,93.0
96,76.61402317500001,76.90568943333335,84.0,93.0
97,77.04880517500001,77.56873198333335,82.0,94.0
98,77.70097817500002,77.89844166666668,80.0,85.0
99,77.91836917500001,78.07778924166668,77.0,94.0
100,78.13576017500002,78.47452781666668,80.0,89.0
101,78.57054217500001,79.43467140000001,77.0,101.0
102,79.65749717500002,79.96727935000001,77.0,98.0
103,80.09227917500002,80.40749612500001,80.0,92.0
104,80.52706117500001,80.81872743333335,82.0,89.0
105,80.96184317500001,81.29155285833335,82.0,90.0
106,81.39662517500001,81.57234956666667,80.0,93.0
107,81.61401617500002,81.76256669166668,78.0,86.0
108,81.83140717500001,82.01437793333335,80.0,89.0
109,82.04879817500002,82.85676805833334,77.0,94.0
110,83.57053517500002,83.74444797500001,75.0,92.0
111,83.78792617500001,83.90567963333335,73.0,93.0
112,84.00531717500002,85.34046023333335,75.0,103.0
113,85.74444517500001,86.02161870000002,77.0,91.0
114,86.17922717500001,86.53248755000001,77.0,98.0
115,86.614009175,86.95277681666668,75.0,93.0
116,87.04879117500002,87.25893580833335,75.0,94.0
117,87.26618217500001,89.41835307500001,73.0,90.0
118,119.22265917500002,119.36396332500001,73.0,90.0
119,119.44005017500002,119.54874567500002,73.0,89.0
120,119.65744117500002,119.96360016666668,73.0,93.0
121,120.09222317500002,120.23171573333335,73.0,93.0
122,120.30961417500002,120.62483112500001,72.0,94.0
123,120.74439617500002,121.10127973333336,73.0,91.0
124,121.17917817500002,121.53787332500002,75.0,91.0
125,121.61396017500002,121.97084373333335,72.0,89.0
126,122.04874217500002,124.43641999166668,73.0,91.0
127,126.17917117500002,126.29692463333335,73.0,89.0
128,126.39656217500001,126.51612722500002,73.0,89.0
129,126.61395317500002,127.32953188333336,73.0,94.0
130,127.48351717500002,127.87663256666669,72.0,91.0
131,127.91829917500002,128.08134242500003,73.0,92.0
132,128.135690175,128.63568947500002,75.0,93.0
133,128.57047217500002,128.8766311666667,72.0,92.0
134,129.00525417500003,130.8059762916667,73.0,93.0
135,132.26611917500003,132.59220567500003,73.0,96.0
136,132.700901175,133.81503005000002,82.0,89.0
137,134.00524717500002,134.9744487166667,80.0,93.0
138,135.30959317500003,135.6302449,77.0,93.0
139,135.74437517500002,135.9146647916667,77.0,89.0
140,135.961766175,136.31864973333336,75.0,91.0
141,136.39654817500002,137.45451770833336,77.0,98.0
142,137.483503175,137.60125663333335,75.0,93.0
143,137.70089417500003,138.6266175166667,77.0,94.0
144,139.22263117500003,139.3766164666667,73.0,93.0
145,139.44002217500002,139.64110885000002,75.0,89.0
146,139.65741317500002,140.9345853,75.0,92.0
147,141.396541175,141.71538130833335,75.0,94.0
148,141.83132317500002,142.1592212666667,73.0,91.0
149,142.26610517500004,142.41827887500003,75.0,94.0
150,142.48349617500003,142.82045222500003,75.0,101.0
151,143.13566917500003,144.94001447500003,75.0,94.0
152,145.74436117500002,146.09037518333335,85.0,98.0
153,146.17914317500004,146.49436012500001,84.0,98.0
154,146.61392517500002,147.17189540833337,82.0,98.0
155,147.26609817500002,147.4363877916667,80.0,91.0
156,147.48348917500002,147.69363380833335,77.0,98.0
157,147.700880175,148.07950283333335,80.0,91.0
158,148.13566217500002,149.01428413333335,77.0,101.0
159,149.222617175,149.52696457500002,77.0,98.0
160,149.65739917500002,149.97805090000003,80.0,94.0
161,150.09218117500004,150.40558653333335,82.0,93.0
162,150.52696317500002,150.86391922500002,82.0,94.0
163,150.96174517500003,151.1755129916667,80.0,91.0
164,151.17913617500002,151.40196195000001,78.0,87.0
165,151.39652717500002,151.5613820166667,80.0,88.0
166,151.61391817500004,152.49978650000003,77.0,92.0
167,153.135655175,153.28239410000003,75.0,94.0
168,153.35304617500003,153.4961619166667,73.0,89.0
169,153.57043717500002,154.67188490833337,75.0,94.0
170,155.30956517500002,155.61934735000003,80.0,93.0
171,155.74434717500003,156.05231775833334,82.0,89.0
172,156.179129175,156.48709975833336,80.0,94.0
173,156.61391117500003,156.7570269166667,75.0,90.0
174,156.83130217500002,158.83129937500001,77.0,88.0
175,159.65738517500003,159.97622530833337,85.0,93.0
176,160.09216717500001,160.38383343333336,84.0,93.0
177,160.52694917500003,161.04687598333336,82.0,94.0
178,161.17912217500003,161.3765856666667,80.0,85.0
179,161.39651317500002,161.55593324166668,77.0,94.0
180,161.61390417500002,161.95267181666668,80.0,89.0
181,162.04868617500003,162.91281540000003,77.0,101.0
182,163.13564117500002,163.44542335000003,77.0,98.0
183,163.57042317500003,163.88564012500004,80.0,92.0
184,164.00520517500001,164.29687143333337,82.0,89.0
185,164.43998717500003,164.76969685833336,82.0,90.0
186,164.874769175,165.0504935666667,80.0,93.0
187,165.09216017500003,165.2407106916667,78.0,86.0
188,165.30955117500002,165.49252193333336,80.0,89.0
189,165.52694217500002,166.33491205833337,77.0,94.0
190,167.04867917500002,167.22259197500003,75.0,92.0
191,167.26607017500004,167.38382363333335,73.0,93.0
192,167.48346117500003,168.81860423333336,75.0,103.0
193,169.22258917500002,169.49976270000002,77.0,91.0
194,169.65737117500004,170.01063155000003,77.0,98.0
195,170.09215317500002,170.43092081666668,75.0,93.0
196,170.52693517500003,170.73707980833336,75.0,94.0
197,170.74432617500003,172.896497075,73.0,90.0
198,173.57040917500004,173.91642318333336,85.0,98.0
199,174.00519117500002,174.32040812500003,84.0,98.0
200,174.43997317500003,174.99794340833336,82.0,98.0
201,175.09214617500004,175.2624357916667,80.0,91.0
202,175.30953717500003,175.51968180833336,77.0,98.0
203,175.52692817500002,175.90555083333336,80.0,91.0
204,175.96171017500004,176.84033213333336,77.0,101.0
205,177.04866517500002,177.35301257500004,77.0,98.0
206,177.48344717500004,177.8040989,80.0,94.0
207,177.91822917500002,178.23163453333336,82.0,93.0
208,178.35301117500003,178.68996722500003,82.0,94.0
209,178.78779317500002,179.0015609916667,80.0,91.0
210,179.00518417500004,179.22800995000003,78.0,87.0
211,179.22257517500003,179.38743001666668,80.0,88.0
212,179.43996617500002,180.32583450000004,77.0,92.0
213,180.96170317500003,181.10844210000002,75.0,94.0
214,181.17909417500002,181.3222099166667,73.0,89.0
215,181.39648517500004,182.49793290833335,75.0,94.0
216,183.13561317500003,183.44539535000004,80.0,93.0
217,183.57039517500002,183.87836575833336,82.0,89.0
218,184.00517717500003,184.31314775833337,80.0,94.0
219,184.43995917500004,184.5830749166667,75.0,90.0
220,184.65735017500003,186.65734737500003,77.0,88.0
221,187.48343317500002,187.80227330833335,85.0,93.0
222,187.91821517500003,188.20988143333335,84.0,93.0
223,188.35299717500004,188.87292398333335,82.0,94.0
224,189.00517017500002,189.20263366666669,80.0,85.0
225,189.22256117500004,189.3819812416667,77.0,94.0
226,189.43995217500003,189.7787198166667,80.0,89.0
227,189.87473417500004,190.73886340000004,77.0,101.0
228,190.96168917500003,191.27147135000004,77.0,98.0
229,191.39647117500002,191.71168812500002,80.0,92.0
230,191.83125317500003,192.12291943333335,82.0,89.0
231,192.26603517500004,192.59574485833338,82.0,90.0
232,192.70081717500003,192.8765415666667,80.0,93.0
233,192.91820817500002,193.0667586916667,78.0,86.0
234,193.13559917500004,193.31856993333335,80.0,89.0
235,193.35299017500003,194.16096005833336,77.0,94.0
236,194.87472717500003,195.04863997500004,75.0,92.0
237,195.09211817500002,195.20987163333336,73.0,93.0
238,195.30950917500002,196.64465223333337,75.0,103.0
239,197.04863717500004,197.32581070000003,77.0,91.0
240,197.48341917500002,197.83667955000004,77.0,98.0
241,197.91820117500004,198.2569688166667,75.0,93.0
242,198.35298317500002,198.56312780833338,75.0,94.0
243,198.57037417500004,200.72254507500003,73.0,90.0
244,202.70080317500003,202.84210732500003,73.0,90.0
245,202.91819417500002,203.02688967500004,73.0,89.0
246,203.13558517500005,203.4417441666667,73.0,93.0
247,203.57036717500003,203.70985973333336,73.0,93.0
248,203.78775817500002,204.10297512500003,72.0,94.0
249,204.22254017500003,204.57942373333336,73.0,91.0
250,204.65732217500002,205.01601732500004,75.0,91.0
251,205.09210417500003,205.44898773333335,72.0,89.0
252,205.52688617500004,207.9145639916667,73.0,91.0
253,209.65731517500004,209.77506863333338,73.0,89.0
254,209.87470617500003,209.99427122500003,73.0,89.0
255,210.09209717500002,210.80767588333336,73.0,94.0
256,210.96166117500005,211.3547765666667,72.0,91.0
257,211.39644317500003,211.55948642500005,73.0,92.0
258,211.61383417500002,212.11383347500004,75.0,93.0
259,212.04861617500003,212.3547751666667,72.0,92.0
260,212.48339817500002,214.2841202916667,73.0,93.0
261,215.74426317500004,216.07034967500005,73.0,96.0
262,216.17904517500003,217.29317405000003,82.0,89.0
263,217.48339117500004,218.45259271666671,80.0,93.0
264,218.78773717500005,219.10838890000002,77.0,93.0
265,219.22251917500003,219.3928087916667,77.0,89.0
266,219.43991017500002,219.79679373333337,75.0,91.0
267,219.87469217500004,220.93266170833337,77.0,98.0
268,220.96164717500002,221.07940063333336,75.0,93.0
269,221.17903817500004,222.1047615166667,77.0,94.0
270,222.70077517500005,222.8547604666667,80.0,93.0
271,222.91816617500004,223.11925285000004,82.0,89.0
272,223.13555717500003,224.41272930000002,75.0,92.0
273,224.65729417500003,225.0884529916667,75.0,94.0
274,225.09207617500005,225.5232349916667,73.0,91.0
275,225.52685817500003,225.7406259916667,73.0,95.0
276,225.74424917500002,226.1754079916667,73.0,94.0
277,226.17903117500003,226.51598722500003,75.0,101.0
278,226.61381317500005,227.0449719916667,77.0,95.0
279,227.04859517500003,228.41815847500004,77.0,94.0
