,start,end,pitch,velocity
0,0.7445641750000002,1.827895991666667,56.0,76.0
1,0.527173175,1.8967364750000002,49.0,91.0
2,1.1793461750000003,2.376808266666667,73.0,84.0
3,0.9619551750000002,2.501808091666667,61.0,86.0
4,1.1793461750000003,2.5271703750000003,68.0,76.0
5,1.1793461750000003,2.539851516666667,65.0,85.0
6,2.266301175,3.6576035750000004,49.0,89.0
7,2.4836921750000003,3.688400633333334,56.0,75.0
8,2.9184741750000005,4.0670232916666675,72.0,87.0
9,2.7010831750000004,4.163037650000001,61.0,81.0
10,2.9184741750000005,4.269921558333334,65.0,86.0
11,4.222820175000001,5.280789708333334,56.0,77.0
12,4.005429175000001,5.458325691666667,49.0,88.0
13,4.657602175000001,5.934774300000001,70.0,80.0
14,4.657602175000001,5.956513400000001,65.0,81.0
15,4.440211175000001,5.965571358333334,61.0,81.0
16,6.179339175000001,6.306150591666667,61.0,83.0
17,6.396730175000001,6.688396433333335,61.0,89.0
18,6.396730175000001,6.722816675000001,68.0,83.0
19,6.831512175000001,6.976439508333335,61.0,82.0
20,5.961948175000001,7.110497291666668,56.0,78.0
21,5.744557175000001,7.135859575000001,49.0,88.0
22,7.048903175000001,7.711945725000001,61.0,83.0
23,6.831512175000001,7.719192091666668,65.0,87.0
24,7.918467175000001,8.422089658333334,61.0,87.0
25,8.135858175000001,8.4347708,65.0,88.0
26,8.135858175000001,8.505422875,73.0,88.0
27,7.4836851750000015,9.016291725000002,49.0,88.0
28,7.701076175000002,9.032596050000002,56.0,81.0
29,8.570640175000001,9.400349158333334,61.0,79.0
30,8.570640175000001,9.505421475000002,65.0,87.0
31,8.570640175000001,9.561580816666668,68.0,78.0
32,9.657595175,9.827884791666667,61.0,90.0
33,9.874986175000002,10.233681325000001,61.0,73.0
34,9.874986175000002,10.264478383333335,68.0,86.0
35,9.440204175000002,10.478246200000001,56.0,76.0
36,9.222813175,10.487304158333336,49.0,88.0
37,10.309768175000002,10.534405541666668,68.0,81.0
38,10.309768175000002,10.561579416666667,65.0,89.0
39,10.309768175000002,10.583318516666669,61.0,86.0
40,11.396723175000002,11.561578016666669,56.0,87.0
41,11.179332175000003,12.470997033333335,53.0,77.0
42,10.961941175000002,12.498170908333336,46.0,82.0
43,11.614114175000001,12.913025400000002,56.0,86.0
44,11.614114175000001,12.945634050000002,61.0,82.0
45,13.135851175000003,13.309763975000003,56.0,89.0
46,13.353242175000002,13.597807050000002,61.0,88.0
47,13.353242175000002,13.601430233333335,56.0,87.0
48,13.353242175000002,13.673893900000001,65.0,91.0
49,13.788024175000002,13.894908083333336,56.0,88.0
50,12.918460175000002,13.967371750000002,53.0,79.0
51,12.701069175000002,14.007226766666669,46.0,87.0
52,14.005415175000001,14.367733508333336,56.0,86.0
53,13.788024175000002,14.411211708333335,61.0,87.0
54,14.874979175000002,15.00179059166667,61.0,81.0
55,14.657588175000003,15.87135459166667,56.0,77.0
56,14.440197175000002,15.907586425000002,49.0,89.0
57,15.092370175000003,16.298890225,68.0,83.0
58,15.092370175000003,16.329687283333335,61.0,88.0
59,16.396716175,17.536207333333337,56.0,79.0
60,16.179325175000002,17.612294183333336,49.0,91.0
61,16.831498175000004,17.954685008333335,65.0,85.0
62,16.614107175,17.987293658333336,61.0,87.0
63,16.831498175000004,17.98910525,68.0,88.0
64,18.353235175000002,18.505408875000004,56.0,82.0
65,17.918453175000003,19.48547996666667,46.0,87.0
66,18.135844175000003,19.499972700000004,53.0,80.0
67,18.570626175000005,19.66482754166667,56.0,89.0
68,18.570626175000005,19.938377883333338,61.0,88.0
69,20.092363175000003,20.21373981666667,58.0,80.0
70,19.874972175000003,20.432942408333336,53.0,77.0
71,20.309754175000002,20.907579425,58.0,83.0
72,19.657581175000004,21.06156471666667,46.0,88.0
73,20.961927175000003,21.141274750000004,53.0,78.0
74,20.309754175000002,21.405767133333338,61.0,88.0
75,20.309754175000002,21.483665575000003,65.0,89.0
76,21.179318175000002,21.498158308333338,58.0,79.0
77,21.614100175000004,22.913011400000002,49.0,78.0
78,21.396709175,22.918446175000003,42.0,88.0
79,21.831491175000004,23.353228175000005,54.0,82.0
80,22.048882175000003,23.628590108333338,58.0,88.0
81,22.048882175000003,23.661198758333338,61.0,88.0
82,23.570619175000004,23.755401525000003,54.0,83.0
83,23.135837175000002,24.40938611666667,42.0,88.0
84,23.353228175000005,24.40938611666667,49.0,78.0
85,23.788010175000004,24.53076275833334,54.0,87.0
86,23.788010175000004,24.657574175000004,58.0,89.0
87,23.788010175000004,24.777139225000003,61.0,88.0
88,25.309747175000005,25.48003679166667,61.0,90.0
89,25.527138175000005,26.070615675000003,65.0,88.0
90,24.874965175000003,26.422064458333338,49.0,91.0
91,25.527138175000005,26.445615150000005,72.0,88.0
92,25.092356175000003,26.472789025000004,56.0,77.0
93,25.527138175000005,26.51264404166667,61.0,73.0
94,26.614093175000004,27.115904066666673,65.0,89.0
95,26.614093175000004,27.130396800000003,68.0,82.0
96,27.048875175000003,27.19923728333334,61.0,82.0
97,27.266266175000005,27.509019458333338,61.0,77.0
98,27.266266175000005,27.53075855833334,68.0,81.0
99,27.266266175000005,27.532570150000005,65.0,88.0
100,27.266266175000005,27.54525129166667,72.0,87.0
101,27.701048175000004,27.824236408333338,61.0,86.0
102,26.831484175000003,27.84959869166667,56.0,80.0
103,26.614093175000004,27.923873950000004,49.0,91.0
104,27.701048175000004,28.336916850000005,65.0,88.0
105,27.701048175000004,28.33872844166667,68.0,84.0
106,27.918439175000003,28.364090725000004,61.0,84.0
107,28.570612175000004,28.85503206666667,58.0,87.0
108,28.788003175000004,28.88764071666667,63.0,85.0
109,28.353221175000005,29.40575593333334,51.0,91.0
110,29.005394175000003,30.260827200000005,58.0,85.0
111,29.005394175000003,30.474595016666672,66.0,87.0
112,29.005394175000003,30.53075435833334,63.0,87.0
113,30.309740175000005,31.19198531666667,46.0,75.0
114,30.092349175000006,31.248144658333338,39.0,92.0
115,30.744522175000004,31.719158491666672,63.0,89.0
116,30.527131175000005,31.771694650000004,58.0,84.0
117,30.744522175000004,32.13582457500001,66.0,88.0
118,32.266259175,32.75901210833334,56.0,87.0
119,32.48365017500001,32.75901210833334,63.0,89.0
120,32.91843217500001,33.12314203333334,56.0,88.0
121,32.91843217500001,33.21915639166667,63.0,87.0
122,32.91843217500001,33.28075050833334,68.0,87.0
123,32.048868175,33.30611279166667,51.0,77.0
124,31.831477175000003,33.407561925,44.0,83.0
125,33.570605175000004,34.519879208333336,56.0,88.0
126,33.570605175000004,34.668429725,68.0,68.0
127,33.570605175000004,34.71553110833334,63.0,87.0
128,34.65756017500001,35.12676241666667,56.0,91.0
129,34.87495117500001,35.18835653333334,63.0,79.0
130,35.092342175000006,35.21371881666667,68.0,68.0
131,34.44016917500001,35.22277677500001,51.0,90.0
132,33.570605175000004,35.266254975,44.0,88.0
133,35.744515175000004,36.24813765833334,61.0,87.0
134,35.961906175,36.2608188,65.0,88.0
135,35.961906175,36.33147087500001,73.0,88.0
136,35.309733175000005,36.842339725,49.0,88.0
137,35.527124175000004,36.85864405,56.0,81.0
138,36.39668817500001,37.22639715833334,61.0,79.0
139,36.39668817500001,37.331469475000006,65.0,87.0
140,36.39668817500001,37.38762881666667,68.0,78.0
141,37.483643175000005,37.65393279166667,61.0,90.0
142,37.701034175000004,38.059729325000006,61.0,73.0
143,37.701034175000004,38.09052638333334,68.0,86.0
144,37.266252175000005,38.30429420000001,56.0,76.0
145,37.048861175000006,38.31335215833334,49.0,88.0
146,38.13581617500001,38.36045354166667,68.0,81.0
147,38.13581617500001,38.387627416666675,65.0,89.0
148,38.13581617500001,38.40936651666667,61.0,86.0
149,39.222771175000005,39.38762601666667,56.0,87.0
150,39.005380175000006,40.29704503333334,53.0,77.0
151,38.78798917500001,40.32421890833334,46.0,82.0
152,39.440162175000005,40.73907340000001,56.0,86.0
153,39.440162175000005,40.77168205000001,61.0,82.0
154,40.961899175000006,41.135811975,56.0,89.0
155,41.179290175000006,41.42385505000001,61.0,88.0
156,41.179290175000006,41.42747823333334,56.0,87.0
157,41.179290175000006,41.4999419,65.0,91.0
158,41.614072175000004,41.72095608333334,56.0,88.0
159,40.74450817500001,41.793419750000005,53.0,79.0
160,40.52711717500001,41.833274766666676,46.0,87.0
161,41.831463175,42.19378150833334,56.0,86.0
162,41.614072175000004,42.23725970833334,61.0,87.0
163,42.70102717500001,42.827838591666676,61.0,81.0
164,42.48363617500001,43.69740259166667,56.0,77.0
165,42.26624517500001,43.733634425000005,49.0,89.0
166,42.918418175000006,44.12493822500001,68.0,83.0
167,42.918418175000006,44.15573528333334,61.0,88.0
168,44.22276417500001,45.36225533333334,56.0,79.0
169,44.00537317500001,45.43834218333334,49.0,91.0
170,44.65754617500001,45.78073300833334,65.0,85.0
171,44.44015517500001,45.81334165833334,61.0,87.0
172,44.65754617500001,45.81515325000001,68.0,88.0
173,46.17928317500001,46.33145687500001,56.0,82.0
174,45.74450117500001,47.311527966666674,46.0,87.0
175,45.96189217500001,47.32602070000001,53.0,80.0
176,46.39667417500001,47.490875541666675,56.0,89.0
177,46.39667417500001,47.76442588333334,61.0,88.0
178,47.91841117500001,48.039787816666674,58.0,80.0
179,47.70102017500001,48.25899040833334,53.0,77.0
180,48.13580217500001,48.73362742500001,58.0,83.0
181,47.483629175000004,48.88761271666667,46.0,88.0
182,48.78797517500001,48.96732275000001,53.0,78.0
183,48.13580217500001,49.23181513333334,61.0,88.0
184,48.13580217500001,49.30971357500001,65.0,89.0
185,49.005366175000006,49.32420630833334,58.0,79.0
186,49.440148175000004,50.73905940000001,49.0,78.0
187,49.222757175000005,50.74449417500001,42.0,88.0
188,49.65753917500001,51.179276175000005,54.0,82.0
189,49.87493017500001,51.45463810833334,58.0,88.0
190,49.87493017500001,51.48724675833334,61.0,88.0
191,51.396667175000005,51.58144952500001,54.0,83.0
192,50.961885175000006,52.235434116666674,42.0,88.0
193,51.179276175000005,52.235434116666674,49.0,78.0
194,51.61405817500001,52.35681075833334,54.0,87.0
195,51.61405817500001,52.48362217500001,58.0,89.0
196,51.61405817500001,52.603187225000006,61.0,88.0
197,53.135795175000005,53.30608479166668,61.0,90.0
198,53.35318617500001,53.896663675000006,65.0,88.0
199,52.70101317500001,54.24811245833334,49.0,91.0
200,53.35318617500001,54.27166315000001,72.0,88.0
201,52.918404175000006,54.29883702500001,56.0,77.0
202,53.35318617500001,54.338692041666675,61.0,73.0
203,54.44014117500001,54.94195206666667,65.0,89.0
204,54.44014117500001,54.95644480000001,68.0,82.0
205,54.874923175000006,55.02528528333334,61.0,82.0
206,55.092314175000006,55.33506745833334,61.0,77.0
207,55.092314175000006,55.35680655833334,68.0,81.0
208,55.092314175000006,55.358618150000005,65.0,88.0
209,55.092314175000006,55.37129929166667,72.0,87.0
210,55.52709617500001,55.65028440833334,61.0,86.0
211,54.65753217500001,55.67564669166668,56.0,80.0
212,54.44014117500001,55.74992195000001,49.0,91.0
213,55.52709617500001,56.16296485000001,65.0,88.0
214,55.52709617500001,56.164776441666675,68.0,84.0
215,55.74448717500001,56.19013872500001,61.0,84.0
216,56.39666017500001,56.681080066666674,58.0,87.0
217,56.61405117500001,56.713688716666674,63.0,85.0
218,56.17926917500001,57.23180393333334,51.0,91.0
219,56.83144217500001,58.08687520000001,58.0,85.0
220,56.83144217500001,58.300643016666676,66.0,87.0
221,56.83144217500001,58.35680235833334,63.0,87.0
222,58.13578817500001,59.018033316666674,46.0,75.0
223,57.91839717500001,59.074192658333345,39.0,92.0
224,58.57057017500001,59.545206491666676,63.0,89.0
225,58.35317917500001,59.59774265000001,58.0,84.0
226,58.57057017500001,59.96187257500001,66.0,88.0
227,60.09230717500001,60.585060108333344,56.0,87.0
228,60.30969817500001,60.585060108333344,63.0,89.0
229,60.74448017500001,60.949190033333345,56.0,88.0
230,60.74448017500001,61.04520439166668,63.0,87.0
231,60.74448017500001,61.10679850833334,68.0,87.0
232,59.87491617500001,61.13216079166668,51.0,77.0
233,59.65752517500001,61.23360992500001,44.0,83.0
234,61.39665317500001,62.34592720833334,56.0,88.0
235,61.39665317500001,62.49447772500001,68.0,68.0
236,61.39665317500001,62.541579108333345,63.0,87.0
237,62.48360817500001,62.95281041666668,56.0,91.0
238,62.70099917500001,63.01440453333334,63.0,79.0
239,62.91839017500001,63.03976681666668,68.0,68.0
240,62.26621717500001,63.04882477500001,51.0,90.0
241,61.39665317500001,63.09230297500001,44.0,88.0
242,63.57056317500001,63.67744708333334,58.0,93.0
243,63.35317217500001,63.87309898333334,53.0,84.0
244,63.78795417500001,64.15208410000001,61.0,88.0
245,63.78795417500001,64.16114205833334,58.0,88.0
246,63.78795417500001,64.24628686666668,65.0,91.0
247,64.22273617500001,64.461866275,58.0,84.0
248,64.22273617500001,64.52527198333334,61.0,87.0
249,63.13578117500001,64.66114135833334,46.0,88.0
250,64.657518175,64.70461955833335,61.0,46.0
251,64.657518175,64.78070640833334,58.0,86.0
252,64.44012717500001,64.81150346666668,53.0,86.0
253,64.87490917500001,65.10860450000001,56.0,90.0
254,64.87490917500001,65.37128529166668,60.0,86.0
255,65.092300175,65.98903805,53.0,88.0
256,65.527082175,66.16113925833335,60.0,90.0
257,65.30969117500001,66.17019721666668,56.0,89.0
258,64.87490917500001,66.23722610833335,44.0,85.0
259,66.17925517500001,66.33505205833335,53.0,84.0
260,65.527082175,66.49447212500002,65.0,94.0
261,66.39664617500001,66.548819875,54.0,81.0
262,66.614037175,66.84229772500001,54.0,92.0
263,66.614037175,66.94737004166667,58.0,87.0
264,67.048819175,67.20823924166667,54.0,86.0
265,66.83142817500001,67.37309408333334,49.0,88.0
266,67.26621017500001,67.88577452500002,54.0,77.0
267,67.26621017500001,67.93468750000001,58.0,88.0
268,66.614037175,67.99447002500001,42.0,88.0
269,67.26621017500001,68.05606414166668,61.0,88.0
270,67.91838317500002,68.06512210000001,49.0,87.0
271,68.13577417500001,68.22273057500001,54.0,88.0
272,67.26621017500001,68.26439718333334,66.0,87.0
273,68.35316517500002,68.81512105000002,56.0,88.0
274,68.35316517500002,68.84591810833335,61.0,87.0
275,68.78794717500001,69.07599025,53.0,79.0
276,69.005338175,69.51983020833335,56.0,90.0
277,69.005338175,69.72997484166667,61.0,91.0
278,69.005338175,69.80968487500002,65.0,92.0
279,68.35316517500002,69.83504715833334,49.0,88.0
280,69.65751117500001,69.84229352500002,53.0,90.0
281,69.87490217500002,70.02888746666667,56.0,94.0
282,70.30968417500002,70.60316202500002,58.0,90.0
283,70.52707517500001,70.65207500000001,63.0,87.0
284,70.09229317500001,70.98721945833334,51.0,103.0
285,70.74446617500001,71.02888606666667,63.0,88.0
286,70.74446617500001,71.04156720833335,58.0,89.0
287,70.74446617500001,71.07417585833335,66.0,88.0
288,71.17924817500001,71.29700163333334,58.0,81.0
289,71.17924817500001,71.41837827500001,63.0,83.0
290,71.396639175,71.52345059166667,58.0,80.0
291,71.83142117500002,72.32417410833334,60.0,86.0
292,71.83142117500002,72.34591320833334,56.0,85.0
293,72.26620317500002,72.40931891666668,63.0,82.0
294,72.04881217500001,72.56873898333335,51.0,79.0
295,72.48359417500001,72.78975316666669,56.0,88.0
296,72.48359417500001,72.80424590000001,60.0,88.0
297,72.48359417500001,72.80786908333334,63.0,88.0
298,72.48359417500001,72.82598500000002,68.0,85.0
299,72.918376175,73.06873828333335,56.0,78.0
300,72.918376175,73.1520715,60.0,88.0
301,71.83142117500002,73.22091198333335,44.0,88.0
302,73.13576717500001,73.29337565000002,51.0,76.0
303,72.918376175,73.40388274166668,63.0,86.0
304,73.57054917500001,73.87670816666667,56.0,88.0
305,73.57054917500001,74.03250505000001,61.0,85.0
306,74.00533117500001,74.29156265833335,53.0,86.0
307,74.22272217500002,74.51620002500002,61.0,96.0
308,74.22272217500002,74.52525798333335,65.0,96.0
309,74.22272217500002,74.52888116666668,56.0,93.0
310,74.44011317500001,74.53069275833334,53.0,76.0
311,73.57054917500001,74.57235936666667,49.0,92.0
312,74.65750417500001,74.87308358333334,56.0,96.0
313,74.65750417500001,74.99627181666668,61.0,94.0
314,75.09228617500001,75.18830053333335,56.0,87.0
315,75.30967717500002,75.52706817500001,56.0,89.0
316,75.30967717500002,75.78250260000002,65.0,89.0
317,75.74445917500002,76.09953114166667,56.0,88.0
318,76.17924117500002,76.46909584166667,61.0,94.0
319,76.17924117500002,76.49808130833334,65.0,103.0
320,75.30967717500002,76.81148666666668,49.0,98.0
321,76.61402317500001,76.82054462500001,60.0,93.0
322,76.61402317500001,76.97271832500002,63.0,89.0
323,77.04880517500001,77.29518164166667,58.0,85.0
324,77.04880517500001,77.39119600000001,65.0,88.0
325,77.48358717500001,77.59771745000002,58.0,89.0
326,77.26619617500002,77.80967367500001,53.0,80.0
327,77.70097817500002,78.01257194166668,58.0,91.0
328,77.70097817500002,78.01257194166668,61.0,96.0
329,77.70097817500002,78.01800671666668,65.0,91.0
330,78.13576017500002,78.32960048333335,58.0,89.0
331,77.04880517500001,78.55061466666668,46.0,88.0
332,78.35315117500001,78.57235376666668,53.0,74.0
333,78.13576017500002,78.69554200000002,65.0,91.0
334,78.13576017500002,78.73720860833335,61.0,91.0
335,78.57054217500001,78.88213594166668,58.0,86.0
336,79.22271517500002,79.35133818333334,53.0,93.0
337,79.00532417500001,79.52343939166668,48.0,83.0
338,79.44010617500001,79.74083039166668,56.0,96.0
339,79.44010617500001,79.74264198333334,53.0,89.0
340,79.44010617500001,79.75351153333335,60.0,92.0
341,79.87488817500001,79.90025045833335,53.0,71.0
342,78.787933175,79.93648229166668,41.0,92.0
343,79.65749717500002,79.94735184166667,48.0,85.0
344,79.87488817500001,80.18648194166668,56.0,87.0
345,79.87488817500001,80.26438038333335,60.0,88.0
346,80.52706117500001,80.72995944166668,54.0,85.0
347,80.52706117500001,80.86945200000001,58.0,85.0
348,80.96184317500001,81.11945165000002,54.0,88.0
349,81.17923417500002,81.22633555833335,61.0,87.0
350,80.744452175,81.27162535000001,49.0,85.0
351,81.17923417500002,81.65024800833335,54.0,83.0
352,81.17923417500002,81.89118970000001,66.0,89.0
353,81.61401617500002,81.97089973333334,61.0,88.0
354,80.52706117500001,82.06510250000001,42.0,89.0
355,81.83140717500001,82.13213139166668,58.0,77.0
356,82.04879817500002,82.34771080000002,54.0,83.0
357,82.700971175,82.87669556666668,54.0,88.0
358,82.48358017500001,83.04517359166668,49.0,79.0
359,82.91836217500001,83.61039019166668,54.0,82.0
360,82.26618917500001,83.63212929166669,42.0,88.0
361,82.91836217500001,83.66292635,58.0,98.0
362,83.57053517500002,83.72089728333334,49.0,96.0
363,83.78792617500001,83.90930281666668,58.0,65.0
364,82.91836217500001,83.92017236666668,61.0,96.0
365,83.78792617500001,83.97814330000001,54.0,92.0
366,84.44009917500001,84.54154830833335,58.0,90.0
367,84.657490175,84.88937390833334,58.0,92.0
368,84.657490175,84.98901145,66.0,87.0
369,85.09227217500002,85.21546040833334,58.0,89.0
370,84.22270817500001,85.33683705000001,54.0,89.0
371,84.00531717500002,85.34951819166668,51.0,101.0
372,85.09227217500002,85.39843116666668,63.0,89.0
373,85.30966317500001,85.57777874166668,58.0,87.0
374,85.52705417500002,85.70277856666668,63.0,84.0
375,86.17922717500001,86.29154585833335,53.0,89.0
376,85.96183617500002,86.49082094166668,48.0,83.0
377,86.39661817500001,86.69734239166668,53.0,93.0
378,86.39661817500001,86.71364671666667,60.0,88.0
379,86.614009175,86.86763200833335,48.0,79.0
380,86.83140017500001,87.09226937500001,53.0,103.0
381,85.74444517500001,87.17379100000001,41.0,92.0
382,87.04879117500002,87.23357352500001,48.0,87.0
383,87.26618217500001,87.48176158333335,53.0,93.0
384,86.83140017500001,87.49806590833334,60.0,91.0
385,87.91835517500002,88.05784773333335,58.0,90.0
386,88.13574617500001,88.41473129166668,60.0,91.0
387,87.70096417500001,88.64661502500002,53.0,86.0
388,88.570528175,88.74987575000002,58.0,89.0
389,88.570528175,88.77886121666668,61.0,89.0
390,87.48357317500002,89.06690429166667,46.0,89.0
391,88.78791917500001,89.08139702500002,53.0,87.0
392,89.00531017500002,89.11762885833335,58.0,84.0
393,89.22270117500001,89.45820809166668,58.0,88.0
394,89.22270117500001,89.52523698333334,65.0,90.0
395,89.65748317500001,89.72994684166667,58.0,83.0
396,89.22270117500001,89.77885981666668,53.0,87.0
397,89.87487417500002,90.38393143333334,58.0,91.0
398,89.87487417500002,90.40204735000002,61.0,98.0
399,89.87487417500002,90.42740963333334,65.0,90.0
400,90.30965617500001,90.50530807500002,53.0,86.0
401,89.22270117500001,90.57233696666668,46.0,90.0
402,90.52704717500002,90.61943835000001,58.0,79.0
403,90.96182917500002,91.18103176666668,58.0,90.0
404,90.96182917500002,91.29153885833335,66.0,88.0
405,91.39661117500002,91.47813280000001,58.0,87.0
406,91.17922017500001,91.76074110000002,54.0,78.0
407,91.61400217500001,91.79697293333335,63.0,89.0
408,91.61400217500001,91.80784248333335,58.0,90.0
409,90.96182917500002,92.20639265000001,51.0,93.0
410,92.26617517500001,92.50892845833334,54.0,83.0
411,92.48356617500002,92.75711651666668,58.0,94.0
412,93.13573917500001,93.24805785833335,56.0,88.0
413,92.91834817500002,93.45820249166668,51.0,79.0
414,93.35313017500002,93.51436183333335,60.0,88.0
415,93.35313017500002,93.52160820000002,63.0,89.0
416,93.35313017500002,93.52341979166668,56.0,83.0
417,93.57052117500001,93.83320196666668,51.0,76.0
418,93.78791217500002,94.03610023333334,56.0,88.0
419,93.78791217500002,94.09044798333335,60.0,94.0
420,93.78791217500002,94.24443327500002,63.0,89.0
421,92.70095717500001,94.24624486666669,44.0,89.0
422,94.00530317500001,94.26617237500001,51.0,82.0
423,94.22269417500002,94.30421580000001,56.0,77.0
424,94.44008517500002,94.90747582500002,61.0,87.0
425,94.44008517500002,94.90928741666669,56.0,87.0
426,95.09225817500001,95.23175073333334,56.0,90.0
427,95.09225817500001,95.23356232500001,65.0,91.0
428,94.87486717500002,95.80240210833335,53.0,72.0
429,95.74443117500002,95.86761940833335,56.0,89.0
430,94.44008517500002,96.08863359166668,49.0,82.0
431,95.96182217500001,96.25167684166668,56.0,90.0
432,95.74443117500002,96.33138687500002,61.0,91.0
433,96.61399517500001,96.72993704166669,56.0,88.0
434,96.39660417500002,96.86761800833335,53.0,74.0
435,96.17921317500002,97.03790762500002,49.0,91.0
436,96.83138617500002,97.28609568333334,65.0,89.0
437,96.83138617500002,97.29877682500002,56.0,89.0
438,96.83138617500002,97.30602319166668,61.0,89.0
439,97.26616817500002,97.42921142500002,53.0,88.0
440,97.48355917500001,97.72631245833335,56.0,89.0
441,97.70095017500002,97.86037024166669,61.0,81.0
442,97.91834117500001,98.12848580833335,58.0,84.0
443,97.91834117500001,98.22993494166668,63.0,83.0
444,98.35312317500002,98.46544185833335,58.0,77.0
445,98.57051417500001,98.76435448333335,63.0,88.0
446,98.57051417500001,98.76978925833335,58.0,87.0
447,98.57051417500001,98.78790517500002,66.0,87.0
448,98.13573217500002,99.07594825000001,46.0,76.0
449,99.00529617500001,99.18102056666669,58.0,88.0
450,99.00529617500001,99.23355672500001,61.0,92.0
451,97.91834117500001,99.39478838333335,39.0,91.0
452,99.22268717500002,99.39841156666668,46.0,78.0
453,99.44007817500001,99.60674460833334,58.0,78.0
454,100.09225117500002,100.19913508333335,56.0,88.0
455,99.87486017500001,100.42739563333335,51.0,75.0
456,100.30964217500002,100.51254044166669,63.0,88.0
457,100.30964217500002,100.55239545833335,56.0,93.0
458,100.52703317500001,100.86942400000001,51.0,83.0
459,100.74442417500002,101.03246725000001,60.0,88.0
460,100.74442417500002,101.03427884166668,56.0,89.0
461,100.74442417500002,101.06326430833334,63.0,88.0
462,99.65746917500002,101.11580046666668,44.0,89.0
463,101.39659717500001,101.84406031666668,56.0,87.0
464,101.39659717500001,101.86761100833336,61.0,87.0
465,102.04877017500002,102.22630615833334,56.0,101.0
466,102.04877017500002,102.22630615833334,65.0,93.0
467,102.48355217500001,102.59043608333334,61.0,87.0
468,102.48355217500001,102.59768245000002,56.0,88.0
469,101.83137917500001,102.73536341666669,53.0,77.0
470,101.39659717500001,102.79152275833334,49.0,88.0
471,102.91833417500001,103.25529022500001,56.0,90.0
472,102.91833417500001,103.35855095000002,61.0,91.0
473,103.57050717500002,103.65746357500002,56.0,86.0
474,103.35311617500001,103.86217343333335,53.0,75.0
475,103.78789817500001,104.02521668333335,56.0,93.0
476,103.78789817500001,104.04152100833335,65.0,93.0
477,103.13572517500002,104.32231771666669,49.0,93.0
478,104.00528917500002,104.38934660833335,53.0,87.0
479,104.22268017500002,104.39296979166669,56.0,96.0
480,104.22268017500002,104.46543345833335,61.0,98.0
481,104.65746217500002,104.75891130833335,56.0,89.0
482,104.87485317500001,105.08680940000002,58.0,87.0
483,104.87485317500001,105.15746147500002,61.0,87.0
484,105.30963517500001,105.41289590000001,58.0,93.0
485,105.09224417500002,105.64115645000001,53.0,74.0
486,105.52702617500002,105.80782288333334,61.0,93.0
487,105.52702617500002,105.80963447500001,65.0,91.0
488,105.52702617500002,105.82050402500002,58.0,87.0
489,105.96180817500002,106.13753256666668,61.0,98.0
490,105.96180817500002,106.13753256666668,65.0,98.0
491,105.96180817500002,106.14659052500002,58.0,90.0
492,105.96180817500002,106.15021370833335,70.0,90.0
493,104.87485317500001,106.20093827500001,46.0,82.0
494,106.61398117500002,106.83137217500001,58.0,83.0
495,106.61398117500002,106.91832857500002,61.0,87.0
496,106.61398117500002,106.93644449166668,65.0,88.0
497,107.04876317500002,107.14477753333335,58.0,80.0
498,106.83137217500001,107.36035694166668,53.0,77.0
499,107.26615417500001,107.51615382500002,65.0,92.0
500,107.26615417500001,107.51977700833335,61.0,94.0
501,107.26615417500001,107.54332770000002,58.0,89.0
502,106.61398117500002,107.79695053333334,46.0,88.0
503,107.48354517500002,107.84948669166668,53.0,87.0
504,107.70093617500002,107.92919672500001,58.0,89.0
505,107.70093617500002,107.94006627500002,61.0,92.0
506,108.35310917500001,108.56506540000002,60.0,87.0
507,108.35310917500001,108.65926816666668,65.0,87.0
508,108.78789117500001,108.85854325000001,60.0,77.0
509,109.00528217500002,109.19006452500001,60.0,92.0
510,109.00528217500002,109.19006452500001,68.0,86.0
511,109.44006417500002,109.59948424166669,60.0,94.0
512,109.44006417500002,109.61578856666668,68.0,85.0
513,108.57050017500002,109.84223752500002,48.0,67.0
514,108.35310917500001,109.88209254166668,41.0,92.0
515,109.87484617500002,110.39658457500002,65.0,91.0
516,109.87484617500002,110.39839616666669,60.0,91.0
517,110.52701917500002,110.59585965833335,65.0,88.0
518,110.52701917500002,110.59948284166668,72.0,81.0
519,110.52701917500002,110.60310602500002,60.0,87.0
520,110.30962817500001,110.75527972500002,48.0,79.0
521,110.74441017500001,111.03426484166668,60.0,98.0
522,110.74441017500001,111.03969961666668,65.0,104.0
523,110.74441017500001,111.04694598333334,72.0,91.0
524,110.96180117500002,111.20998923333335,48.0,89.0
525,111.17919217500001,111.34223542500001,60.0,92.0
526,110.09223717500002,111.39114840000002,41.0,89.0
527,111.17919217500001,111.40926431666668,65.0,92.0
528,111.17919217500001,111.45093092500002,68.0,88.0
529,111.39658317500002,111.50165549166668,48.0,87.0
530,111.61397417500002,111.76433628333335,60.0,89.0
531,112.04875617500002,112.31687174166669,58.0,84.0
532,112.26614717500001,112.35853835000002,63.0,83.0
533,112.48353817500002,112.67737848333336,63.0,90.0
534,112.48353817500002,112.68462485000002,66.0,91.0
535,112.48353817500002,112.70092917500001,58.0,89.0
536,112.91832017500002,113.04150840833336,58.0,90.0
537,112.91832017500002,113.08498660833335,63.0,93.0
538,112.91832017500002,113.09766775000001,66.0,91.0
539,113.35310217500002,113.44005857500002,58.0,85.0
540,111.83136517500002,113.46542085833335,51.0,96.0
541,113.35310217500002,113.46904404166668,66.0,31.0
542,113.57049317500002,113.69730459166668,58.0,88.0
543,113.57049317500002,113.82049282500002,61.0,96.0
544,113.78788417500002,114.04513019166669,58.0,80.0
545,114.00527517500002,114.09404316666668,61.0,87.0
546,114.22266617500001,114.50708606666669,58.0,92.0
547,114.22266617500001,114.51252084166669,66.0,89.0
548,114.22266617500001,114.51433243333335,61.0,101.0
549,113.57049317500002,114.71723070000002,51.0,93.0
550,114.65744817500001,114.81143346666668,58.0,90.0
551,114.65744817500001,114.85310007500001,61.0,93.0
552,115.30962117500002,115.56686719166669,56.0,86.0
553,115.30962117500002,115.78606978333335,60.0,83.0
554,115.74440317500002,115.87664936666668,63.0,86.0
555,115.96179417500002,116.14114175000002,68.0,87.0
556,115.96179417500002,116.15201130000001,56.0,89.0
557,116.39657617500002,116.57048897500002,56.0,90.0
558,116.39657617500002,116.57773534166668,63.0,89.0
559,115.52701217500002,116.78787997500002,51.0,79.0
560,115.30962117500002,116.90563343333335,44.0,89.0
561,117.04874917500001,118.67012371666668,56.0,88.0
562,117.04874917500001,118.68461645000002,60.0,89.0
563,117.04874917500001,118.69729759166668,63.0,88.0
564,117.04874917500001,118.73534101666668,44.0,89.0
565,118.78787717500002,119.03244205000001,61.0,86.0
566,118.78787717500002,119.06686229166668,68.0,83.0
567,119.22265917500002,119.30780398333336,61.0,80.0
568,119.44005017500002,119.55236885833335,65.0,89.0
569,119.44005017500002,119.55418045000002,61.0,89.0
570,119.00526817500001,119.99258563333335,56.0,71.0
571,120.09222317500002,120.30055621666669,56.0,71.0
572,118.78787717500002,120.38207784166669,49.0,91.0
573,120.30961417500002,120.72084548333335,61.0,98.0
574,120.30961417500002,120.78062800833335,68.0,88.0
575,120.96178717500001,121.04330880000002,61.0,82.0
576,120.74439617500002,121.26975775833336,56.0,75.0
577,121.17917817500002,121.33316346666669,65.0,94.0
578,121.17917817500002,121.35309097500001,61.0,91.0
579,120.52700517500001,122.05780013333336,49.0,91.0
580,121.83135117500002,122.06323490833336,56.0,81.0
581,122.04874217500002,122.33497365833335,61.0,90.0
582,122.04874217500002,122.36214753333336,65.0,92.0
583,122.70091517500002,122.79149475833336,58.0,77.0
584,122.48352417500001,122.97808870000001,53.0,68.0
585,122.91830617500001,123.12663921666669,61.0,87.0
586,122.91830617500001,123.18279855833335,58.0,88.0
587,122.26613317500002,123.84040633333335,46.0,86.0
588,123.57047917500002,123.88026135000003,53.0,77.0
589,123.78787017500002,124.10127553333335,58.0,89.0
590,123.78787017500002,124.23352172500002,61.0,89.0
591,124.44004317500001,124.53243435000002,58.0,87.0
592,124.22265217500002,124.72446306666669,53.0,82.0
593,124.65743417500002,124.92192655833335,61.0,94.0
594,124.65743417500002,124.93823088333335,58.0,92.0
595,124.87482517500003,125.15924506666668,53.0,83.0
596,124.00526117500002,125.23714350833335,46.0,89.0
597,125.09221617500002,125.32591150000002,58.0,88.0
598,125.09221617500002,125.36395492500002,65.0,90.0
599,125.09221617500002,125.37844765833336,61.0,91.0
600,125.74438917500002,125.94185266666669,56.0,88.0
601,125.74438917500002,126.21359141666669,61.0,87.0
602,126.17917117500002,126.25525802500002,56.0,79.0
603,126.39656217500001,126.59040248333335,56.0,93.0
604,126.39656217500001,126.60670680833336,65.0,93.0
605,126.83134417500003,126.98532946666668,56.0,89.0
606,126.83134417500003,127.12301043333335,61.0,88.0
607,125.74438917500002,127.18822773333335,49.0,92.0
608,127.26612617500003,127.38387963333335,56.0,80.0
609,127.48351717500002,127.67192270833335,56.0,82.0
610,127.48351717500002,127.94909623333335,61.0,82.0
611,127.91829917500002,127.99982080000002,56.0,69.0
612,128.135690175,128.32228411666668,56.0,87.0
613,128.135690175,128.60670400833337,61.0,88.0
614,128.135690175,128.6320662916667,65.0,89.0
615,128.57047217500002,128.67735608333336,56.0,80.0
616,128.787863175,128.90018185833335,56.0,87.0
617,129.00525417500003,129.05597874166668,56.0,71.0
618,128.787863175,129.0650367,60.0,88.0
619,127.48351717500002,129.0777178416667,49.0,90.0
620,129.22264517500003,129.57409395833335,61.0,82.0
621,129.22264517500003,129.6157605666667,58.0,80.0
622,129.87481817500003,130.30054221666668,58.0,88.0
623,129.657427175,130.3385856416667,53.0,73.0
624,129.87481817500003,130.35670155833336,65.0,91.0
625,129.22264517500003,130.77880241666668,46.0,87.0
626,130.526991175,130.83496175833335,53.0,86.0
627,130.74438217500003,131.12300483333334,58.0,88.0
628,130.74438217500003,131.17554099166668,61.0,93.0
629,131.39655517500003,131.47626520833336,58.0,78.0
630,131.179164175,131.70271416666668,53.0,64.0
631,131.61394617500002,132.05416295000003,58.0,87.0
632,131.61394617500002,132.05959772500003,65.0,88.0
633,130.96177317500002,132.1374961666667,46.0,88.0
634,132.048728175,132.233510525,53.0,88.0
635,132.26611917500003,132.3693799,58.0,88.0
636,132.26611917500003,132.66285775000003,61.0,88.0
637,132.48351017500002,132.72626345833336,58.0,83.0
638,133.13568317500003,133.22263957500002,54.0,83.0
639,132.91829217500003,133.4635812666667,49.0,66.0
640,133.35307417500002,133.56684199166668,61.0,89.0
641,133.35307417500002,133.57589995,54.0,92.0
642,133.570465175,133.86213143333336,49.0,78.0
643,133.78785617500003,133.9907544416667,54.0,89.0
644,133.78785617500003,134.02879786666668,58.0,89.0
645,133.78785617500003,134.08133402500002,61.0,89.0
646,132.700901175,134.3331452666667,42.0,87.0
647,134.87481117500002,135.01249214166668,54.0,87.0
648,134.65742017500003,135.22988314166668,49.0,76.0
649,135.092202175,135.3929263916667,61.0,88.0
650,135.092202175,135.39654957500002,54.0,91.0
651,135.52698417500002,135.70452015833337,54.0,89.0
652,135.52698417500002,135.72807085000002,61.0,87.0
653,134.44002917500003,135.79147655833336,42.0,88.0
654,135.74437517500002,135.88386773333335,49.0,79.0
655,136.17915717500003,136.4128525,56.0,82.0
656,136.17915717500003,136.69364920833334,61.0,81.0
657,136.613939175,136.69908398333337,56.0,75.0
658,136.83133017500003,137.0450979916667,56.0,89.0
659,136.83133017500003,137.07951823333335,60.0,89.0
660,137.26611217500002,137.40016995833335,61.0,86.0
661,137.26611217500002,137.40922791666668,56.0,87.0
662,136.17915717500003,137.75886510833337,49.0,88.0
663,137.91828517500002,138.04147340833336,56.0,86.0
664,137.91828517500002,138.22082098333337,65.0,88.0
665,138.13567617500001,138.44908153333336,56.0,81.0
666,138.57045817500003,138.87118239166668,56.0,90.0
667,138.57045817500003,138.89110990000003,61.0,93.0
668,137.91828517500002,139.11212408333336,49.0,92.0
669,139.005240175,139.19002252500002,56.0,88.0
670,139.005240175,139.20995003333334,61.0,94.0
671,139.65741317500002,139.83676075000002,58.0,82.0
672,139.65741317500002,139.93096351666668,63.0,85.0
673,140.09219517500003,140.17371680000002,58.0,81.0
674,140.30958617500002,140.47081783333334,58.0,92.0
675,140.30958617500002,140.4744410166667,66.0,89.0
676,139.874804175,140.59944084166668,46.0,74.0
677,139.65741317500002,140.62299153333336,39.0,89.0
678,140.74436817500003,140.863933225,63.0,91.0
679,140.74436817500003,140.8766143666667,58.0,91.0
680,141.17915017500002,141.29146885833336,58.0,62.0
681,141.396541175,141.52335259166668,58.0,87.0
682,141.396541175,141.85487386666668,66.0,87.0
683,141.61393217500003,141.86574341666667,58.0,76.0
684,141.83132317500002,141.93277230833337,63.0,82.0
685,142.04871417500001,142.2353081166667,58.0,98.0
686,142.04871417500001,142.25885880833334,63.0,90.0
687,142.48349617500003,142.68277125833336,58.0,90.0
688,141.396541175,142.75885810833336,51.0,89.0
689,142.48349617500003,142.7824088,61.0,98.0
690,143.13566917500003,143.3331326666667,56.0,86.0
691,143.13566917500003,143.4255238416667,60.0,87.0
692,143.57045117500002,143.66646553333337,56.0,87.0
693,143.787842175,144.0016099916667,56.0,94.0
694,143.787842175,144.00523317500003,63.0,89.0
695,144.22262417500002,144.28784147500002,63.0,87.0
696,144.22262417500002,144.4037833416667,56.0,89.0
697,144.22262417500002,144.40740652500003,68.0,80.0
698,143.13566917500003,144.74798575833336,44.0,87.0
699,143.35306017500002,144.75342053333335,51.0,75.0
700,144.87479717500003,145.1374779666667,56.0,87.0
701,144.87479717500003,145.23349232500001,63.0,86.0
702,145.309579175,145.4146514916667,56.0,81.0
703,145.09218817500002,145.57225996666668,51.0,77.0
704,145.52697017500003,145.78602778333337,56.0,88.0
705,145.52697017500003,145.81863643333335,63.0,88.0
706,145.52697017500003,145.8494334916667,66.0,87.0
707,145.74436117500002,146.02153470000002,51.0,88.0
708,144.87479717500003,146.49073694166668,44.0,88.0
709,145.96175217500002,146.51066445000004,56.0,90.0
710,146.17914317500004,146.53059195833336,51.0,84.0
711,145.96175217500002,146.54870787500002,65.0,89.0
712,147.04870717500003,147.15559108333335,58.0,93.0
713,146.831316175,147.35124298333335,53.0,84.0
714,147.26609817500002,147.6302281,61.0,88.0
715,147.26609817500002,147.63928605833337,58.0,88.0
716,147.26609817500002,147.7244308666667,65.0,91.0
717,147.700880175,147.94001027500002,58.0,84.0
718,147.700880175,148.00341598333335,61.0,87.0
719,146.61392517500002,148.13928535833335,46.0,88.0
720,148.13566217500002,148.18276355833336,61.0,46.0
721,148.13566217500002,148.25885040833336,58.0,86.0
722,147.91827117500003,148.28964746666668,53.0,86.0
723,148.353053175,148.58674850000003,56.0,90.0
724,148.353053175,148.8494292916667,60.0,86.0
725,148.57044417500003,149.46718205000002,53.0,88.0
726,149.00522617500002,149.63928325833336,60.0,90.0
727,148.78783517500003,149.6483412166667,56.0,89.0
728,148.353053175,149.71537010833336,44.0,85.0
729,149.65739917500002,149.81319605833335,53.0,84.0
730,149.00522617500002,149.97261612500003,65.0,94.0
731,149.87479017500002,150.02696387500004,54.0,81.0
732,150.09218117500004,150.32044172500002,54.0,92.0
733,150.09218117500004,150.4255140416667,58.0,87.0
734,150.52696317500002,150.6863832416667,54.0,86.0
735,150.30957217500003,150.85123808333336,49.0,88.0
736,150.744354175,151.36391852500003,54.0,77.0
737,150.744354175,151.4128315,58.0,88.0
738,150.09218117500004,151.472614025,42.0,88.0
739,150.744354175,151.53420814166668,61.0,88.0
740,151.39652717500002,151.5432661,49.0,87.0
741,151.61391817500004,151.70087457500003,54.0,88.0
742,150.744354175,151.74254118333334,66.0,87.0
743,151.83130917500003,152.29326505000003,56.0,88.0
744,151.83130917500003,152.32406210833335,61.0,87.0
745,152.266091175,152.55413425000003,53.0,79.0
746,152.48348217500003,152.99797420833335,56.0,90.0
747,152.48348217500003,153.2081188416667,61.0,91.0
748,152.48348217500003,153.28782887500003,65.0,92.0
749,151.83130917500003,153.31319115833335,49.0,88.0
750,153.135655175,153.32043752500002,53.0,90.0
751,153.35304617500003,153.5070314666667,56.0,94.0
752,153.78782817500002,154.08130602500003,58.0,90.0
753,154.00521917500004,154.130219,63.0,87.0
754,153.57043717500002,154.46536345833337,51.0,103.0
755,154.22261017500003,154.5070300666667,63.0,88.0
756,154.22261017500003,154.51971120833335,58.0,89.0
757,154.22261017500003,154.55231985833336,66.0,88.0
758,154.657392175,154.77514563333335,58.0,81.0
759,154.657392175,154.89652227500002,63.0,83.0
760,154.87478317500003,155.0015945916667,58.0,80.0
761,155.30956517500002,155.80231810833337,60.0,86.0
762,155.30956517500002,155.82405720833336,56.0,85.0
763,155.74434717500003,155.8874629166667,63.0,82.0
764,155.52695617500004,156.04688298333335,51.0,79.0
765,155.96173817500002,156.2678971666667,56.0,88.0
766,155.96173817500002,156.28238990000003,60.0,88.0
767,155.96173817500002,156.28601308333336,63.0,88.0
768,155.96173817500002,156.30412900000002,68.0,85.0
769,156.39652017500003,156.54688228333336,56.0,78.0
770,156.39652017500003,156.63021550000002,60.0,88.0
771,155.30956517500002,156.69905598333335,44.0,88.0
772,156.61391117500003,156.77151965000002,51.0,76.0
773,156.39652017500003,156.8820267416667,63.0,86.0
774,157.048693175,157.3548521666667,56.0,88.0
775,157.048693175,157.51064905,61.0,85.0
776,157.48347517500002,157.76970665833335,53.0,86.0
777,157.70086617500002,157.99434402500003,61.0,96.0
778,157.70086617500002,158.00340198333336,65.0,96.0
779,157.70086617500002,158.0070251666667,56.0,93.0
780,157.91825717500004,158.00883675833336,53.0,76.0
781,157.048693175,158.0505033666667,49.0,92.0
782,158.13564817500003,158.35122758333335,56.0,96.0
783,158.13564817500003,158.4744158166667,61.0,94.0
784,158.570430175,158.66644453333336,56.0,87.0
785,158.78782117500003,159.00521217500003,56.0,89.0
786,158.78782117500003,159.26064660000003,65.0,89.0
787,159.22260317500002,159.5776751416667,56.0,88.0
788,159.65738517500003,159.9472398416667,61.0,94.0
789,159.65738517500003,159.97622530833337,65.0,103.0
790,158.78782117500003,160.28963066666668,49.0,98.0
791,160.09216717500001,160.298688625,60.0,93.0
792,160.09216717500001,160.45086232500003,63.0,89.0
793,160.52694917500003,160.7733256416667,58.0,85.0
794,160.52694917500003,160.86934000000002,65.0,88.0
795,160.961731175,161.07586145000002,58.0,89.0
796,160.74434017500002,161.287817675,53.0,80.0
797,161.17912217500003,161.49071594166668,58.0,91.0
798,161.17912217500003,161.49071594166668,61.0,96.0
799,161.17912217500003,161.4961507166667,65.0,91.0
800,161.61390417500002,161.80774448333335,58.0,89.0
801,160.52694917500003,162.0287586666667,46.0,88.0
802,161.83129517500004,162.0504977666667,53.0,74.0
803,161.61390417500002,162.17368600000003,65.0,91.0
804,161.61390417500002,162.21535260833335,61.0,91.0
805,162.04868617500003,162.3602799416667,58.0,86.0
806,162.70085917500003,162.82948218333337,53.0,93.0
807,162.483468175,163.00158339166668,48.0,83.0
808,162.91825017500003,163.2189743916667,56.0,96.0
809,162.91825017500003,163.22078598333337,53.0,89.0
810,162.91825017500003,163.23165553333337,60.0,92.0
811,163.35303217500004,163.37839445833336,53.0,71.0
812,162.26607717500002,163.41462629166668,41.0,92.0
813,163.13564117500002,163.4254958416667,48.0,85.0
814,163.35303217500004,163.66462594166669,56.0,87.0
815,163.35303217500004,163.74252438333335,60.0,88.0
816,164.00520517500001,164.20810344166668,54.0,85.0
817,164.00520517500001,164.34759600000004,58.0,85.0
818,164.43998717500003,164.59759565000002,54.0,88.0
819,164.65737817500002,164.70447955833336,61.0,87.0
820,164.22259617500004,164.74976935000004,49.0,85.0
821,164.65737817500002,165.12839200833335,54.0,83.0
822,164.65737817500002,165.36933370000003,66.0,89.0
823,165.09216017500003,165.44904373333335,61.0,88.0
824,164.00520517500001,165.54324650000004,42.0,89.0
825,165.30955117500002,165.6102753916667,58.0,77.0
826,165.52694217500002,165.82585480000003,54.0,83.0
827,166.17911517500002,166.3548395666667,54.0,88.0
828,165.96172417500003,166.52331759166668,49.0,79.0
829,166.396506175,167.0885341916667,54.0,82.0
830,165.74433317500004,167.1102732916667,42.0,88.0
831,166.396506175,167.14107035000004,58.0,98.0
832,167.04867917500002,167.19904128333337,49.0,96.0
833,167.26607017500004,167.38744681666668,58.0,65.0
834,166.396506175,167.3983163666667,61.0,96.0
835,167.26607017500004,167.4562873,54.0,92.0
836,167.91824317500001,168.01969230833336,58.0,90.0
837,168.13563417500004,168.36751790833335,58.0,92.0
838,168.13563417500004,168.46715545000004,66.0,87.0
839,168.57041617500002,168.69360440833336,58.0,89.0
840,167.70085217500002,168.81498105000003,54.0,89.0
841,167.48346117500003,168.8276621916667,51.0,101.0
842,168.57041617500002,168.8765751666667,63.0,89.0
843,168.78780717500004,169.0559227416667,58.0,87.0
844,169.00519817500003,169.18092256666668,63.0,84.0
845,169.65737117500004,169.76968985833335,53.0,89.0
846,169.43998017500002,169.96896494166668,48.0,83.0
847,169.87476217500003,170.17548639166668,53.0,93.0
848,169.87476217500003,170.1917907166667,60.0,88.0
849,170.09215317500002,170.34577600833336,48.0,79.0
850,170.309544175,170.57041337500002,53.0,103.0
851,169.22258917500002,170.65193500000004,41.0,92.0
852,170.52693517500003,170.71171752500004,48.0,87.0
853,170.74432617500003,170.95990558333335,53.0,93.0
854,170.309544175,170.97620990833337,60.0,91.0
855,170.96171717500002,171.40193395000003,54.0,80.0
856,170.96171717500002,171.4472237416667,58.0,83.0
857,171.39649917500003,171.7515711416667,49.0,87.0
858,171.61389017500002,171.89287529166668,54.0,101.0
859,171.83128117500002,172.11932425000003,49.0,87.0
860,172.04867217500004,172.20990383333336,54.0,90.0
861,172.04867217500004,172.21171542500002,58.0,89.0
862,172.04867217500004,172.21171542500002,61.0,96.0
863,172.26606317500003,172.41099050833336,49.0,87.0
864,170.96171717500002,172.47620780833336,42.0,88.0
865,172.48345417500002,172.91823617500003,54.0,88.0
866,172.48345417500002,172.9689607416667,58.0,89.0
867,172.48345417500002,172.9689607416667,66.0,88.0
868,172.48345417500002,172.97258392500004,61.0,92.0
869,173.13562717500002,173.15917786666668,61.0,65.0
870,173.13562717500002,173.22801835,54.0,88.0
871,173.35301817500002,173.4580904916667,58.0,89.0
872,173.35301817500002,173.46533685833336,54.0,83.0
873,173.35301817500002,173.46533685833336,61.0,91.0
874,173.35301817500002,173.47801800000002,66.0,86.0
875,172.91823617500003,173.59033668333336,49.0,81.0
876,173.57040917500004,173.84758270000003,54.0,98.0
877,173.57040917500004,173.9091768166667,58.0,98.0
878,173.57040917500004,173.93816228333336,61.0,101.0
879,174.00519117500002,174.0559157416667,58.0,61.0
880,174.00519117500002,174.1102634916667,61.0,49.0
881,173.57040917500004,174.1374373666667,66.0,90.0
882,174.00519117500002,174.3765674666667,54.0,92.0
883,174.222582175,174.38562542500003,58.0,88.0
884,172.70084517500004,174.4363499916667,42.0,89.0
885,173.78780017500003,174.4363499916667,49.0,103.0
886,174.43997317500003,174.7026539666667,61.0,91.0
887,174.43997317500003,174.72076988333336,58.0,88.0
888,174.65736417500003,174.9580883916667,53.0,77.0
889,174.43997317500003,175.09214617500004,46.0,88.0
890,174.87475517500002,175.29323285000004,65.0,94.0
891,174.87475517500002,175.37294288333337,58.0,89.0
892,175.52692817500002,175.62294253333337,58.0,92.0
893,175.30953717500003,175.68453665000004,53.0,85.0
894,175.74431917500002,175.83127557500003,58.0,91.0
895,175.74431917500002,176.18453595000003,61.0,101.0
896,175.96171017500004,176.22076778333337,58.0,87.0
897,175.74431917500002,176.3167821416667,65.0,93.0
898,176.39649217500002,176.72620185833335,48.0,80.0
899,176.61388317500004,176.9091726166667,53.0,96.0
900,176.61388317500004,176.97620150833336,60.0,88.0
901,177.04866517500002,177.11931725000002,60.0,59.0
902,177.04866517500002,177.3548241666667,53.0,98.0
903,177.26605617500002,177.3819980416667,56.0,88.0
904,176.83127417500003,177.58670790000002,48.0,91.0
905,177.48344717500004,177.61931655000004,53.0,89.0
906,176.17910117500003,177.6374324666667,41.0,93.0
907,177.48344717500004,177.89105530000003,56.0,93.0
908,177.70083817500003,177.8928668916667,53.0,96.0
909,177.48344717500004,177.9580841916667,60.0,92.0
910,177.91822917500002,177.9906928416667,44.0,88.0
911,177.48344717500004,178.09757675000003,65.0,98.0
912,178.135620175,178.45446030833335,49.0,88.0
913,177.91822917500002,178.63018470000003,42.0,83.0
914,178.35301117500003,178.73888020000004,54.0,88.0
915,178.35301117500003,178.798662725,58.0,90.0
916,178.35301117500003,178.82945978333336,61.0,92.0
917,178.78779317500002,179.12112604166668,49.0,88.0
918,179.00518417500004,179.20989403333337,54.0,88.0
919,179.00518417500004,179.25699541666668,58.0,94.0
920,179.00518417500004,179.28054610833337,61.0,98.0
921,179.22257517500003,179.44358935833336,42.0,87.0
922,179.43996617500002,179.50518347500002,58.0,69.0
923,179.43996617500002,179.61206738333337,54.0,94.0
924,179.87474817500004,180.0232986916667,56.0,82.0
925,180.09213917500003,180.14105215000004,56.0,78.0
926,179.65735717500002,180.5015588916667,49.0,93.0
927,180.30953017500002,180.5613414166667,56.0,96.0
928,180.09213917500003,180.58851529166668,61.0,96.0
929,180.09213917500003,180.6048196166667,65.0,96.0
930,180.74431217500003,180.91822497500002,56.0,90.0
931,180.52692117500004,181.2135144166667,44.0,87.0
932,180.96170317500003,181.2135144166667,61.0,94.0
933,180.96170317500003,181.3059055916667,65.0,94.0
934,181.17909417500002,181.31858673333335,56.0,89.0
935,181.83126717500002,181.99249883333337,58.0,89.0
936,182.04865817500004,182.14467253333336,58.0,74.0
937,181.39648517500004,182.2080782416667,51.0,88.0
938,181.83126717500002,182.30952737500002,63.0,92.0
939,181.83126717500002,182.32039692500004,66.0,90.0
940,182.48344017500003,182.77329484166668,58.0,88.0
941,182.48344017500003,182.81314985833336,63.0,93.0
942,182.48344017500003,182.8222078166667,66.0,90.0
943,182.26604917500003,182.86206283333337,46.0,88.0
944,182.91822217500004,183.00336698333336,63.0,76.0
945,182.91822217500004,183.0776422416667,66.0,76.0
946,182.91822217500004,183.10662770833335,58.0,88.0
947,183.13561317500003,183.8276411916667,44.0,87.0
948,183.57039517500002,183.90372804166668,60.0,88.0
949,183.57039517500002,183.9200323666667,63.0,90.0
950,183.57039517500002,183.92184395833337,56.0,89.0
951,184.00517717500003,184.31495935000004,51.0,82.0
952,184.22256817500002,184.4091621166667,56.0,87.0
953,184.22256817500002,184.47619100833336,60.0,94.0
954,184.22256817500002,184.49430692500002,63.0,94.0
955,184.22256817500002,184.50879965833337,68.0,87.0
956,184.43995917500004,184.75517612500002,44.0,87.0
957,184.65735017500003,184.76242249166668,56.0,88.0
958,184.87474117500003,185.15010310833335,61.0,88.0
959,184.87474117500003,185.15916106666668,56.0,91.0
960,185.30952317500004,185.4743780166667,56.0,91.0
961,184.87474117500003,185.56133441666668,49.0,89.0
962,185.30952317500004,185.77691382500004,65.0,98.0
963,185.30952317500004,185.7950297416667,61.0,96.0
964,185.96169617500004,186.17184080833337,56.0,98.0
965,185.96169617500004,186.22618855833338,65.0,101.0
966,185.96169617500004,186.2352465166667,61.0,104.0
967,185.74430517500002,186.4254636416667,44.0,86.0
968,186.39647817500003,186.49249253333338,56.0,87.0
969,186.61386917500002,186.79865152500003,56.0,88.0
970,186.61386917500002,186.9037238416667,61.0,88.0
971,187.04865117500003,187.15553508333338,56.0,96.0
972,186.61386917500002,187.35118698333335,49.0,89.0
973,187.26604217500002,187.45082452500003,56.0,91.0
974,187.04865117500003,187.4580708916667,65.0,93.0
975,187.04865117500003,187.46531725833336,61.0,96.0
976,187.70082417500004,187.9743745166667,56.0,94.0
977,187.70082417500004,188.00879475833335,61.0,93.0
978,187.70082417500004,188.00879475833335,65.0,98.0
979,187.48343317500002,188.13017140000002,44.0,87.0
980,188.13560617500002,188.23886690000003,56.0,88.0
981,188.13560617500002,188.26604077500002,61.0,87.0
982,188.13560617500002,188.26604077500002,65.0,88.0
983,188.35299717500004,188.62292433333337,61.0,88.0
984,188.35299717500004,188.6319822916667,58.0,88.0
985,188.35299717500004,188.97074993333337,46.0,89.0
986,188.78777917500003,189.2950248416667,65.0,94.0
987,188.78777917500003,189.30227120833337,58.0,92.0
988,188.78777917500003,189.30227120833337,61.0,94.0
989,189.22256117500004,189.61205338333338,53.0,83.0
990,189.43995217500003,189.64466203333336,58.0,90.0
991,189.43995217500003,189.70082137500003,65.0,101.0
992,189.43995217500003,189.7080677416667,61.0,101.0
993,189.87473417500004,189.91821237500002,61.0,74.0
994,189.87473417500004,190.09574835833337,58.0,94.0
995,190.30951617500003,190.62292153333337,48.0,88.0
996,190.09212517500004,190.76603727500003,41.0,89.0
997,190.52690717500002,190.81313865833337,60.0,90.0
998,190.52690717500002,190.86024004166669,56.0,93.0
999,190.52690717500002,190.9200225666667,53.0,92.0
1000,190.96168917500003,191.2950220416667,48.0,80.0
1001,191.17908017500002,191.41821027500004,53.0,96.0
1002,191.17908017500002,191.45806529166668,56.0,101.0
1003,191.17908017500002,191.47255802500004,60.0,93.0
1004,191.17908017500002,191.48342757500004,65.0,90.0
1005,191.39647117500002,191.66820992500004,41.0,87.0
1006,191.61386217500004,191.69357220833336,65.0,58.0
1007,191.61386217500004,191.70081857500003,56.0,80.0
1008,191.61386217500004,191.7352388166667,60.0,72.0
1009,191.61386217500004,191.82581840000003,53.0,101.0
1010,191.83125317500003,192.42364365000003,42.0,90.0
1011,192.26603517500004,192.74248378333337,66.0,87.0
1012,192.26603517500004,192.75878810833336,58.0,93.0
1013,192.26603517500004,192.77146925000002,61.0,101.0
1014,192.26603517500004,192.79864312500004,54.0,91.0
1015,192.70081717500003,193.0395848166667,49.0,87.0
1016,192.91820817500002,193.18270055833335,54.0,90.0
1017,192.91820817500002,193.18270055833335,58.0,96.0
1018,192.91820817500002,193.18994692500004,61.0,93.0
1019,192.91820817500002,193.20443965833337,66.0,91.0
1020,193.13559917500004,193.3656713166667,42.0,81.0
1021,193.35299017500003,193.70081577500002,66.0,88.0
1022,193.35299017500003,193.7189316916667,54.0,93.0
1023,193.35299017500003,193.73342442500004,58.0,94.0
1024,193.35299017500003,193.74791715833337,61.0,96.0
1025,193.78777217500004,194.09755435000002,49.0,82.0
1026,193.57038117500002,194.2080614416667,42.0,89.0
1027,194.00516317500004,194.50335088333335,58.0,90.0
1028,194.00516317500004,194.51603202500004,61.0,90.0
1029,194.00516317500004,194.52146680000004,66.0,88.0
1030,194.00516317500004,194.5232783916667,54.0,90.0
1031,194.43994517500002,194.7569737166667,49.0,88.0
1032,194.65733617500004,194.90552423333335,54.0,89.0
1033,194.65733617500004,194.9200169666667,58.0,103.0
1034,194.65733617500004,194.93450970000004,61.0,96.0
1035,194.65733617500004,194.9363212916667,66.0,89.0
1036,194.87472717500003,195.00335018333337,42.0,87.0
1037,195.09211817500002,195.16639343333335,54.0,96.0
1038,195.30950917500002,195.5993638416667,58.0,83.0
1039,195.30950917500002,195.60298702500003,63.0,91.0
1040,195.30950917500002,196.05226175833337,51.0,93.0
1041,195.74429117500003,196.24429047500004,58.0,91.0
1042,195.74429117500003,196.2895802666667,63.0,91.0
1043,195.74429117500003,196.29139185833336,66.0,89.0
1044,196.39646417500003,196.65008700833337,58.0,93.0
1045,196.39646417500003,196.67907247500003,66.0,94.0
1046,196.39646417500003,196.68813043333336,63.0,94.0
1047,196.61385517500003,196.7080579416667,51.0,40.0
1048,196.83124617500002,196.90733302500004,63.0,85.0
1049,196.83124617500002,197.07943423333336,58.0,96.0
1050,197.04863717500004,197.6537087916667,41.0,90.0
1051,197.48341917500002,197.88015775000002,65.0,90.0
1052,197.48341917500002,197.92182435833337,53.0,98.0
1053,197.91820117500004,198.1971862916667,48.0,79.0
1054,198.13559217500003,198.40733092500002,57.0,96.0
1055,198.13559217500003,198.41276570000002,65.0,91.0
1056,198.13559217500003,198.42544684166668,53.0,96.0
1057,198.13559217500003,198.43993957500004,60.0,94.0
1058,198.35298317500002,198.46530185833336,41.0,88.0
1059,198.57037417500004,198.7189246916667,57.0,76.0
1060,198.57037417500004,198.7624028916667,53.0,92.0
1061,198.57037417500004,198.7787072166667,60.0,87.0
1062,198.57037417500004,198.88377953333335,65.0,89.0
1063,199.00515617500002,199.3221847166667,53.0,81.0
1064,199.22254717500005,199.6374016666667,58.0,92.0
1065,199.22254717500005,199.63921325833337,61.0,98.0
1066,199.22254717500005,199.67906827500002,65.0,94.0
1067,198.78776517500003,199.93812588333336,46.0,92.0
1068,199.65732917500003,199.9417490666667,53.0,87.0
1069,199.87472017500002,199.94537225000002,61.0,91.0
1070,199.87472017500002,199.9689229416667,65.0,90.0
1071,199.87472017500002,199.97073453333337,58.0,87.0
1072,200.52689317500003,200.84211012500003,70.0,87.0
1073,200.52689317500003,200.97254472500003,58.0,87.0
1074,200.96167517500004,201.2569646166667,53.0,81.0
1075,201.17906617500003,201.53776132500002,60.0,94.0
1076,201.61384817500004,202.2895718666667,58.0,89.0
1077,201.61384817500004,202.29319505000004,61.0,92.0
1078,201.39645717500002,202.30406460000003,53.0,82.0
1079,200.52689317500003,202.36203553333337,46.0,88.0
1080,202.70080317500003,203.20442565833338,61.0,87.0
1081,202.91819417500002,203.21710680000004,65.0,88.0
1082,202.91819417500002,203.28775887500004,73.0,88.0
1083,202.26602117500002,203.79862772500005,49.0,88.0
1084,202.48341217500004,203.81493205000004,56.0,81.0
1085,203.35297617500004,204.18268515833336,61.0,79.0
1086,203.35297617500004,204.28775747500003,65.0,87.0
1087,203.35297617500004,204.3439168166667,68.0,78.0
1088,204.43993117500003,204.6102207916667,61.0,90.0
1089,204.65732217500002,205.01601732500004,61.0,73.0
1090,204.65732217500002,205.04681438333336,68.0,86.0
1091,204.22254017500003,205.26058220000004,56.0,76.0
1092,204.00514917500004,205.26964015833337,49.0,88.0
1093,205.09210417500003,205.3167415416667,68.0,81.0
1094,205.09210417500003,205.3439154166667,65.0,89.0
1095,205.09210417500003,205.3656545166667,61.0,86.0
1096,206.17905917500002,206.3439140166667,56.0,87.0
1097,205.96166817500003,207.25333303333338,53.0,77.0
1098,205.74427717500004,207.28050690833336,46.0,82.0
1099,206.39645017500004,207.69536140000002,56.0,86.0
1100,206.39645017500004,207.72797005000004,61.0,82.0
1101,207.91818717500004,208.09209997500002,56.0,89.0
1102,208.13557817500003,208.38014305000004,61.0,88.0
1103,208.13557817500003,208.38376623333338,56.0,87.0
1104,208.13557817500003,208.45622990000004,65.0,91.0
1105,208.57036017500002,208.67724408333336,56.0,88.0
1106,207.70079617500002,208.74970775000003,53.0,79.0
1107,207.48340517500003,208.7895627666667,46.0,87.0
1108,208.78775117500004,209.15006950833336,56.0,86.0
1109,208.57036017500002,209.19354770833337,61.0,87.0
1110,209.65731517500004,209.7841265916667,61.0,81.0
1111,209.43992417500004,210.6536905916667,56.0,77.0
1112,209.22253317500002,210.68992242500002,49.0,89.0
1113,209.87470617500003,211.08122622500002,68.0,83.0
1114,209.87470617500003,211.11202328333337,61.0,88.0
1115,211.17905217500004,212.31854333333337,56.0,79.0
1116,210.96166117500005,212.39463018333336,49.0,91.0
1117,211.61383417500002,212.73702100833336,65.0,85.0
1118,211.39644317500003,212.76962965833337,61.0,87.0
1119,211.61383417500002,212.77144125000004,68.0,88.0
1120,213.13557117500002,213.28774487500004,56.0,82.0
1121,212.70078917500004,214.2678159666667,46.0,87.0
1122,212.91818017500003,214.28230870000004,53.0,80.0
1123,213.35296217500004,214.4471635416667,56.0,89.0
1124,213.35296217500004,214.72071388333336,61.0,88.0
1125,214.87469917500005,214.9960758166667,58.0,80.0
1126,214.65730817500003,215.21527840833338,53.0,77.0
1127,215.09209017500004,215.68991542500004,58.0,83.0
1128,214.43991717500003,215.8439007166667,46.0,88.0
1129,215.74426317500004,215.92361075000002,53.0,78.0
1130,215.09209017500004,216.18810313333336,61.0,88.0
1131,215.09209017500004,216.26600157500005,65.0,89.0
1132,215.96165417500004,216.28049430833337,58.0,79.0
1133,216.39643617500005,217.69534740000003,49.0,78.0
1134,216.17904517500003,217.70078217500003,42.0,88.0
1135,216.61382717500004,218.13556417500004,54.0,82.0
1136,216.83121817500003,218.41092610833337,58.0,88.0
1137,216.83121817500003,218.44353475833336,61.0,88.0
1138,218.35295517500003,218.53773752500004,54.0,83.0
1139,217.91817317500002,219.1917221166667,42.0,88.0
1140,218.13556417500004,219.1917221166667,49.0,78.0
1141,218.57034617500003,219.31309875833335,54.0,87.0
1142,218.57034617500003,219.43991017500002,58.0,89.0
1143,218.57034617500003,219.55947522500003,61.0,88.0
1144,220.09208317500003,220.2623727916667,61.0,90.0
1145,220.30947417500005,220.85295167500004,65.0,88.0
1146,219.65730117500004,221.20440045833337,49.0,91.0
1147,220.30947417500005,221.22795115000002,72.0,88.0
1148,219.87469217500004,221.25512502500004,56.0,77.0
1149,220.30947417500005,221.2949800416667,61.0,73.0
1150,221.39642917500004,221.8982400666667,65.0,89.0
1151,221.39642917500004,221.91273280000004,68.0,82.0
1152,221.83121117500002,221.98157328333338,61.0,82.0
1153,222.04860217500004,222.29135545833336,61.0,77.0
1154,222.04860217500004,222.31309455833338,68.0,81.0
1155,222.04860217500004,222.31490615000004,65.0,88.0
1156,222.04860217500004,222.3275872916667,72.0,87.0
1157,222.48338417500003,222.60657240833336,61.0,86.0
1158,221.61382017500003,222.63193469166671,56.0,80.0
1159,221.39642917500004,222.70620995000004,49.0,91.0
1160,222.48338417500003,223.11925285000004,65.0,88.0
1161,222.48338417500003,223.1210644416667,68.0,84.0
1162,222.70077517500005,223.14642672500003,61.0,84.0
1163,223.35294817500002,223.6373680666667,58.0,87.0
1164,223.57033917500004,223.6699767166667,63.0,85.0
1165,223.13555717500003,224.18809193333337,51.0,91.0
1166,223.78773017500004,225.04316320000004,58.0,85.0
1167,223.78773017500004,225.2569310166667,66.0,87.0
1168,223.78773017500004,225.31309035833337,63.0,87.0
1169,225.09207617500005,225.9743213166667,46.0,75.0
1170,224.87468517500002,226.03048065833337,39.0,92.0
1171,225.52685817500003,226.5014944916667,63.0,89.0
1172,225.30946717500004,226.55403065000004,58.0,84.0
1173,226.61381317500005,226.72069708333336,37.0,83.0
1174,225.52685817500003,226.91816057500003,66.0,88.0
1175,226.61381317500005,227.06489950000002,73.0,83.0
1176,226.39642217500003,227.07033427500002,61.0,82.0
1177,226.61381317500005,227.14098635000005,68.0,77.0
1178,226.61381317500005,227.2134500166667,65.0,80.0
1179,227.04859517500003,227.40185555000002,49.0,83.0
1180,227.26598617500002,227.41091350833338,56.0,77.0
1181,227.48337717500004,227.69352180833337,61.0,74.0
1182,227.70076817500004,227.9036664416667,63.0,73.0
1183,227.91815917500003,228.00873875833338,65.0,83.0
1184,228.57033217500003,229.75330153333337,68.0,63.0
1185,230.52685117500005,230.6427930416667,89.0,80.0
1186,230.52685117500005,230.67177850833338,80.0,53.0
1187,230.52685117500005,230.6808364666667,84.0,79.0
1188,230.30946017500003,231.80402330000004,68.0,44.0
1189,228.13555017500005,231.9960520166667,61.0,78.0
