,start,end,pitch,velocity
0,13.807699441666665,14.547586233333332,60.0,96.0
1,14.801645766666665,15.137170041666666,60.0,81.0
2,15.133027766666665,15.817883899999998,65.0,88.0
3,15.795791766666666,16.145123625,63.0,73.0
4,16.127173766666665,16.462698041666666,65.0,79.0
5,16.458555766666667,17.313245175,67.0,89.0
6,18.446847766666664,18.66086530833333,67.0,89.0
7,18.778229766666666,18.985343516666667,70.0,90.0
8,19.109611766666667,19.590115666666666,63.0,95.0
9,19.772375766666666,20.056811983333333,62.0,99.0
10,20.103757766666668,20.411666875,60.0,70.0
11,20.435139766666666,20.8880285,58.0,71.0
12,20.766521766666667,21.016439025,60.0,83.0
13,21.09790376666667,21.4016706,55.0,82.0
14,21.429285766666666,21.773094591666666,58.0,56.0
15,21.760667766666668,23.026823158333332,60.0,73.0
16,25.737251766666667,26.604368,58.0,69.0
17,27.062779766666665,27.5819449,60.0,82.0
18,27.725543766666668,28.02792984166667,65.0,88.0
19,28.056925766666666,28.39659231666667,63.0,93.0
20,28.388307766666667,28.856384841666667,60.0,74.0
21,28.71968976666667,29.481868366666667,63.0,73.0
22,29.71383576666667,30.391788108333333,60.0,83.0
23,30.707981766666666,31.028317700000002,63.0,93.0
24,31.039363766666668,31.539198283333334,60.0,72.0
25,31.702127766666667,32.043175075,70.0,97.0
26,32.03350976666667,32.36074949166667,67.0,78.0
27,32.364891766666666,33.74288858333334,65.0,90.0
28,35.01594776666667,35.69804238333333,67.0,95.0
29,36.01009376666667,36.22963434166667,67.0,95.0
30,36.34147576666667,36.94486715833334,70.0,127.0
31,37.00423976666667,37.651815425,67.0,100.0
32,37.66700376666667,38.314579425000005,72.0,117.0
33,39.65529576666667,39.936970466666665,72.0,112.0
34,39.98667776666667,40.287683083333334,70.0,97.0
35,40.318059766666664,40.896597508333336,67.0,92.0
36,41.312205766666665,41.560742266666665,67.0,95.0
37,41.64358776666667,42.001204175,65.0,95.0
38,41.97496976666667,42.2953057,67.0,56.0
39,42.306351766666666,42.98292335000001,60.0,89.0
40,42.96911576666667,43.890081575,63.0,88.0
41,44.95740776666667,45.2777437,60.0,93.0
42,45.28878976666667,45.62707555833334,63.0,77.0
43,45.62017176666667,46.5701335,65.0,88.0
44,47.608463766666674,47.93570349166667,67.0,88.0
45,47.939845766666664,48.44382255833334,70.0,65.0
46,48.76830076666667,49.78591965833334,63.0,64.0
47,50.25951976666667,50.55224053333333,62.0,85.0
48,50.590901766666676,50.87948025833333,60.0,69.0
49,50.922283766666666,51.601616866666674,58.0,70.0
50,51.91642976666667,52.083501525,60.0,72.0
51,52.24781176666667,52.59023983333334,60.0,74.0
52,52.57919376666668,53.14254316666667,55.0,82.0
53,53.24195776666667,53.588528108333335,58.0,82.0
54,53.57333976666668,55.0535127,60.0,78.0
55,56.224395766666674,56.59167748333334,70.0,117.0
56,56.88715976666667,57.29172195833334,70.0,117.0
57,57.549923766666666,58.074611933333344,70.0,127.0
58,58.212687766666676,58.52888142500001,67.0,97.0
59,58.54406976666667,59.60034989166667,72.0,100.0
60,60.86374376666667,61.14679922500001,70.0,122.0
61,61.19512576666668,61.38705117500001,72.0,89.0
62,61.52650776666667,61.995965600000005,74.0,112.0
63,62.18927176666668,62.509607700000004,74.0,107.0
64,62.52065376666667,62.82718211666668,72.0,82.0
65,62.852035766666674,63.300782225000006,70.0,102.0
66,63.51479976666667,64.07262613333334,72.0,100.0
67,64.17756376666668,65.189659625,67.0,96.0
68,66.16585576666667,66.45443425833334,65.0,86.0
69,66.49723776666667,66.71263606666668,63.0,95.0
70,66.82861976666668,67.62393656666667,65.0,90.0
71,68.81691176666668,69.15657831666667,65.0,92.0
72,69.14829376666667,69.63570145833334,67.0,61.0
73,69.81105776666668,70.79553845833334,60.0,90.0
74,71.46796776666667,71.82972645000001,60.0,81.0
75,71.79934976666668,72.065836125,63.0,68.0
76,72.13073176666667,73.02546316666667,65.0,78.0
77,73.12487776666667,73.46040204166667,60.0,58.0
78,73.45625976666668,74.05136660833334,63.0,71.0
79,74.11902376666667,74.41726756666668,70.0,127.0
80,74.45040576666668,74.86049099166668,67.0,96.0
81,75.11316976666667,76.20396885000001,65.0,100.0
82,77.43284376666668,77.89125553333334,70.0,112.0
83,78.09560776666667,78.55540029166667,70.0,102.0
84,78.75837176666667,79.190549125,70.0,102.0
85,79.42113576666667,79.70004895000001,67.0,96.0
86,79.75251776666667,80.94411220833334,72.0,112.0
87,82.07219176666668,82.34282040000001,70.0,100.0
88,82.40357376666667,82.60240296666667,72.0,76.0
89,82.73495576666667,83.175417675,74.0,100.0
90,83.39771976666667,83.69044053333334,74.0,100.0
91,83.72910176666667,84.09776424166667,72.0,93.0
92,84.39186576666667,84.81852009166667,70.0,95.0
93,85.05462976666668,85.45090740833334,72.0,95.0
94,85.71739376666667,86.93522261666668,67.0,97.0
95,87.37430376666667,87.68359363333334,60.0,83.0
96,87.70568576666668,87.94317620000001,63.0,75.0
97,88.03706776666667,89.28803481666667,65.0,82.0
98,90.02535976666667,90.28080005833334,67.0,95.0
99,90.35674176666667,90.63289343333334,70.0,107.0
100,91.01950576666667,92.089593475,63.0,97.0
101,92.67641576666668,92.95532895000001,62.0,100.0
102,93.00779776666667,93.224576825,60.0,69.0
103,93.33917976666667,94.09583533333334,58.0,77.0
104,94.33332576666668,95.10793119166668,60.0,93.0
105,95.32747176666668,95.99023576666667,58.0,74.0
106,95.99023576666667,96.57567730000001,60.0,78.0
107,98.64129176666667,99.38137823333334,60.0,96.0
108,99.63543776666667,99.97096204166668,60.0,81.0
109,99.96681976666667,100.6516759,65.0,88.0
110,100.62958376666667,100.97891562500001,63.0,73.0
111,100.96096576666667,101.29649004166667,65.0,79.0
112,101.29234776666668,102.14703717500001,67.0,89.0
113,103.28063976666668,103.49465730833334,67.0,89.0
114,103.61202176666667,103.81913551666668,70.0,90.0
115,103.94340376666668,104.42390766666668,63.0,95.0
116,104.60616776666667,104.89060398333334,62.0,99.0
117,104.93754976666668,105.24545887500001,60.0,70.0
118,105.26893176666667,105.7218205,58.0,71.0
119,105.60031376666667,105.85023102500001,60.0,83.0
120,105.93169576666668,106.2354626,55.0,82.0
121,106.26307776666667,106.60688659166668,58.0,56.0
122,106.59445976666667,107.86061515833335,60.0,73.0
123,110.57104376666668,111.43816000000001,58.0,69.0
124,111.89657176666668,112.41573690000001,60.0,82.0
125,112.55933576666668,112.86172184166668,65.0,88.0
126,112.89071776666668,113.23038431666667,63.0,93.0
127,113.22209976666667,113.69017684166667,60.0,74.0
128,113.55348176666668,114.31566036666668,63.0,73.0
129,114.54762776666668,115.22558010833335,60.0,83.0
130,115.54177376666668,115.8621097,63.0,93.0
131,115.87315576666667,116.37299028333334,60.0,72.0
132,116.53591976666668,116.87696707500001,70.0,97.0
133,116.86730176666667,117.19454149166668,67.0,78.0
134,117.19868376666668,118.57668058333334,65.0,90.0
135,119.84973976666667,120.53183438333335,67.0,95.0
136,120.84388576666667,121.06342634166668,67.0,95.0
137,121.17526776666668,121.77865915833334,70.0,127.0
138,121.83803176666667,122.48560742500001,67.0,100.0
139,122.50079576666668,123.14837142500001,72.0,117.0
140,124.48908776666667,124.77076246666668,72.0,112.0
141,124.82046976666668,125.12147508333335,70.0,97.0
142,125.15185176666668,125.73038950833335,67.0,92.0
143,126.14599776666668,126.39453426666668,67.0,95.0
144,126.47737976666667,126.83499617500001,65.0,95.0
145,126.80876176666668,127.12909770000002,67.0,56.0
146,127.14014376666668,127.81671535000001,60.0,89.0
147,127.80290776666668,128.72387357500003,63.0,88.0
148,129.7911997666667,130.11153570000002,60.0,93.0
149,130.12258176666668,130.46086755833335,63.0,77.0
150,130.45396376666667,131.4039255,65.0,88.0
151,132.44225576666668,132.76949549166667,67.0,88.0
152,132.7736377666667,133.27761455833334,70.0,65.0
153,133.6020927666667,134.61971165833336,63.0,64.0
154,135.0933117666667,135.38603253333335,62.0,85.0
155,135.42469376666668,135.71327225833335,60.0,69.0
156,135.7560757666667,136.43540886666668,58.0,70.0
157,136.7502217666667,136.91729352500002,60.0,72.0
158,137.0816037666667,137.80926340833335,60.0,74.0
159,138.0757497666667,138.42232010833337,58.0,82.0
160,138.40713176666668,139.88730470000002,60.0,78.0
161,141.0581877666667,141.42546948333336,70.0,117.0
162,141.7209517666667,142.12551395833336,70.0,117.0
163,142.38371576666668,143.16936725833335,70.0,127.0
164,143.37786176666668,143.69405542500002,67.0,97.0
165,143.70924376666667,144.76552389166667,72.0,100.0
166,145.69753576666668,145.980591225,70.0,122.0
167,146.0289177666667,146.22084317500003,72.0,89.0
168,146.36029976666669,146.82975760000002,74.0,112.0
169,147.0230637666667,147.34339970000002,74.0,107.0
170,147.3544457666667,147.6609741166667,72.0,82.0
171,147.68582776666668,148.13457422500002,70.0,102.0
172,148.3485917666667,148.90641813333335,72.0,100.0
173,149.01135576666667,150.023451625,67.0,96.0
174,150.99964776666667,151.28822625833334,65.0,86.0
175,151.3310297666667,151.5464280666667,63.0,95.0
176,151.66241176666668,152.45772856666667,65.0,90.0
177,153.65070376666668,153.99037031666668,65.0,92.0
178,153.98208576666667,154.46949345833335,67.0,61.0
179,154.64484976666668,155.62933045833336,60.0,90.0
180,156.3017597666667,156.66351845000003,60.0,81.0
181,156.63314176666668,156.89962812500002,63.0,68.0
182,156.96452376666667,157.85925516666668,65.0,78.0
183,157.95866976666667,158.29419404166669,60.0,58.0
184,158.2900517666667,158.88515860833334,63.0,71.0
185,158.95281576666667,159.25105956666667,70.0,127.0
186,159.2841977666667,159.69428299166668,67.0,96.0
187,159.94696176666667,161.03776085,65.0,100.0
188,162.2666357666667,162.72504753333334,70.0,112.0
189,162.92939976666668,163.3891922916667,70.0,102.0
190,163.5921637666667,164.024341125,70.0,102.0
191,164.2549277666667,164.53384095,67.0,96.0
192,164.5863097666667,165.77790420833335,72.0,112.0
193,166.90598376666668,167.1766124,70.0,100.0
194,167.23736576666667,167.43619496666668,72.0,76.0
195,167.5687477666667,168.00920967500002,74.0,100.0
196,168.23151176666667,168.52423253333336,74.0,100.0
197,168.5628937666667,168.9315562416667,72.0,93.0
198,169.22565776666667,169.6523120916667,70.0,95.0
199,169.88842176666668,170.28469940833335,72.0,95.0
200,170.5511857666667,171.76901461666668,67.0,97.0
201,172.20809576666667,172.51738563333336,60.0,83.0
202,172.5394777666667,172.77696820000003,63.0,75.0
203,172.87085976666668,174.1218268166667,65.0,82.0
204,174.85915176666668,175.11459205833336,67.0,95.0
205,175.19053376666668,175.46668543333334,70.0,107.0
206,175.85329776666669,176.92338547500003,63.0,97.0
207,177.5102077666667,177.78912095,62.0,100.0
208,177.8415897666667,178.05836882500003,60.0,69.0
209,178.17297176666668,178.92962733333334,58.0,77.0
210,179.16711776666668,179.94172319166668,60.0,93.0
211,180.16126376666668,180.8240277666667,58.0,74.0
212,180.8240277666667,181.4094693,60.0,78.0
213,183.4750837666667,184.2579737416667,60.0,99.0
214,184.4692297666667,184.6901511,60.0,92.0
215,184.8006117666667,185.2521197416667,65.0,112.0
216,185.46337576666667,185.76990411666668,63.0,97.0
217,185.7947577666667,185.99082545000002,65.0,79.0
218,186.12613976666668,187.44614473333334,67.0,95.0
219,188.11443176666668,188.3422568916667,67.0,93.0
220,188.44581376666667,188.59355490833335,70.0,96.0
221,188.7771957666667,189.33778365000003,63.0,99.0
222,189.43995976666668,189.7257767416667,62.0,86.0
223,189.7713417666667,189.99916689166668,60.0,72.0
224,190.10272376666668,190.63569648333336,58.0,81.0
225,190.7654877666667,191.07477763333335,55.0,78.0
226,191.09686976666669,191.45724769166668,58.0,68.0
227,191.42825176666668,192.630892275,60.0,83.0
228,194.0793077666667,195.18391443333334,55.0,86.0
229,195.40483576666668,196.50115788333335,58.0,93.0
230,196.7303637666667,197.3889854916667,60.0,93.0
231,197.39312776666668,197.71484445833335,65.0,82.0
232,197.7245097666667,198.06417631666667,60.0,75.0
233,198.0558917666667,199.13288326666668,63.0,83.0
234,199.38141976666668,200.2015902166667,60.0,90.0
235,200.37556576666668,200.64343288333336,63.0,88.0
236,200.7069477666667,201.24406275833334,60.0,82.0
237,201.36971176666668,201.74113575833334,70.0,127.0
238,201.7010937666667,202.18021690833336,67.0,90.0
239,202.36385776666668,203.86198055833336,65.0,95.0
240,204.68353176666668,205.3711494166667,67.0,95.0
241,205.67767776666668,206.1167589166667,67.0,69.0
242,206.0090597666667,206.6593969416667,70.0,112.0
243,207.0032057666667,207.33734928333337,67.0,90.0
244,207.3345877666667,209.11438525833336,72.0,97.0
245,209.3228797666667,209.6128390166667,72.0,102.0
246,209.65426176666668,209.79786063333336,70.0,96.0
247,209.9856437666667,210.82514483333335,67.0,86.0
248,210.9797897666667,211.26836825833337,67.0,112.0
249,211.3111717666667,211.65912286666668,65.0,92.0
250,211.64255376666668,211.89109026666668,67.0,63.0
251,211.9739357666667,212.70573768333335,60.0,81.0
252,212.63669976666668,213.7758253916667,63.0,88.0
253,214.62499176666668,214.92185480833336,60.0,90.0
254,214.9563737666667,215.15244145000003,63.0,79.0
255,215.2877557666667,216.61190300833337,65.0,90.0
256,217.2760477666667,217.56876853333335,67.0,95.0
257,217.60742976666668,218.06998380833335,70.0,97.0
258,218.2701937666667,219.51978005833337,63.0,97.0
259,219.9271037666667,220.20463619166668,62.0,99.0
260,220.2584857666667,220.56363335833336,60.0,85.0
261,220.58986776666669,221.17530930000004,58.0,71.0
262,221.5840137666667,221.76765462500003,60.0,82.0
263,221.9153957666667,222.56573294166668,60.0,78.0
264,222.5781597666667,223.2367814916667,58.0,65.0
265,223.2409237666667,224.90887983333337,60.0,77.0
266,225.2292157666667,225.6393009916667,60.0,85.0
267,225.5605977666667,225.8836952166667,63.0,67.0
268,225.89197976666668,227.28102265000004,65.0,93.0
269,227.88027176666668,228.2157960416667,67.0,90.0
270,228.2116537666667,228.7252958666667,70.0,97.0
271,228.87441776666668,229.9058442416667,63.0,93.0
272,230.5313277666667,230.85166370000002,62.0,96.0
273,230.86270976666668,231.15543053333337,60.0,74.0
274,231.1940917666667,232.28212933333336,58.0,71.0
275,232.35392876666668,232.68254925000002,60.0,60.0
276,232.85100176666668,233.4971966666667,60.0,73.0
277,233.5137657666667,234.27870588333337,55.0,59.0
278,234.1765297666667,235.50481928333335,58.0,62.0
279,235.8334397666667,238.87248885833336,60.0,99.0
