,start,end,pitch,velocity
0,1.6098909416666665,1.9560449666666664,56.0,58.0
1,1.2802204416666665,2.13049560625,53.0,56.0
2,2.1043966916666665,2.13049560625,53.0,42.0
3,0.4560441916666666,2.478023258333333,41.0,74.0
4,0.9505499416666665,2.531594714583333,48.0,53.0
5,2.4340671916666663,3.125001614583333,56.0,46.0
6,2.7637376916666665,3.153847783333333,53.0,37.0
7,1.9395614416666664,3.260990695833333,60.0,86.0
8,3.917584441666666,4.682694727083333,48.0,56.0
9,3.5879139416666663,5.023354243749999,43.0,50.0
10,3.258243441666666,5.094782852083333,36.0,65.0
11,4.247254941666666,5.311815931249999,55.0,65.0
12,4.906595941666666,5.346156608333333,48.0,37.0
13,4.576925441666666,5.648354566666666,63.0,86.0
14,5.236266441666666,5.892860187499999,60.0,70.0
15,5.565936941666666,5.9230799833333325,55.0,58.0
16,6.5549484416666655,7.130498189583332,58.0,56.0
17,6.225277941666666,7.348904895833332,50.0,48.0
18,6.884618941666666,7.637366583333333,55.0,48.0
19,5.730772191666666,7.664839124999999,43.0,64.0
20,7.543959941666666,7.726652343749999,50.0,56.0
21,8.038465691666666,8.461542833333333,55.0,61.0
22,7.708795191666666,8.490389002083333,58.0,67.0
23,7.214289441666666,8.586542897916665,62.0,89.0
24,9.521982941666666,9.848906187499999,51.0,51.0
25,9.192312441666665,9.953301845833332,48.0,49.0
26,8.368136191666666,10.857148466666665,36.0,67.0
27,10.510994441666666,10.876379245833332,60.0,69.0
28,10.181323941666665,10.975280395833332,48.0,47.0
29,8.862641941666666,11.016489208333333,43.0,44.0
30,11.170335441666666,13.364017893749999,48.0,41.0
31,11.170335441666666,13.443688264583331,36.0,45.0
32,11.170335441666666,13.657974089583332,60.0,46.0
33,9.851653441666665,13.685446631249999,55.0,63.0
34,10.840664941666665,13.722534562499998,63.0,65.0
35,13.807699441666665,14.543443958333333,36.0,71.0
36,14.138881766666666,14.975621316666665,48.0,66.0
37,14.801645766666665,15.073655158333333,63.0,88.0
38,14.470263766666665,15.163404449999998,55.0,72.0
39,15.133027766666665,15.808218591666666,41.0,63.0
40,15.464409766666666,15.893825608333332,48.0,58.0
41,16.127173766666665,16.466840316666666,56.0,53.0
42,15.795791766666666,16.493074725,60.0,72.0
43,17.452701766666667,17.840694858333332,58.0,59.0
44,17.121319766666666,17.920778841666667,55.0,42.0
45,16.789937766666664,17.951155524999997,50.0,48.0
46,18.115465766666667,18.39437895,50.0,60.0
47,16.458555766666667,18.450990041666664,43.0,56.0
48,18.446847766666664,19.117896316666666,58.0,73.0
49,17.784083766666665,19.145511483333333,62.0,95.0
50,19.109611766666667,19.928401458333333,36.0,78.0
51,19.440993766666665,19.93530525,43.0,41.0
52,19.772375766666666,20.344009716666665,48.0,77.0
53,18.778229766666666,20.488989341666667,55.0,61.0
54,20.103757766666668,20.535935125,63.0,81.0
55,20.766521766666667,21.197318366666664,50.0,64.0
56,20.435139766666666,21.24426415,43.0,68.0
57,21.09790376666667,21.828324925,62.0,78.0
58,21.429285766666666,21.839370991666666,55.0,52.0
59,22.754813766666665,22.961927516666666,67.0,58.0
60,22.754813766666665,22.986781166666667,63.0,57.0
61,22.423431766666667,23.180087333333333,48.0,62.0
62,21.760667766666668,23.731009908333334,36.0,58.0
63,22.09204976666667,23.769671141666667,43.0,53.0
64,23.086195766666666,23.842851333333336,63.0,89.0
65,23.417577766666668,23.943646691666665,48.0,74.0
66,23.748959766666665,24.487665475,62.0,82.0
67,24.080341766666667,24.523565191666666,63.0,78.0
68,23.086195766666666,24.545657325,67.0,92.0
69,25.074487766666667,25.5770838,55.0,62.0
70,24.743105766666666,25.923654141666667,50.0,63.0
71,26.068633766666665,26.3889697,50.0,47.0
72,24.411723766666668,26.44005775833333,43.0,63.0
73,25.737251766666667,27.147006025000003,62.0,83.0
74,25.40586976666667,27.15943285,58.0,58.0
75,26.40001576666667,27.8304814,55.0,33.0
76,27.725543766666668,28.511195258333334,48.0,52.0
77,27.394161766666667,28.855004083333334,43.0,48.0
78,27.062779766666665,28.888142283333334,36.0,61.0
79,28.71968976666667,28.970987783333335,48.0,73.0
80,28.056925766666666,29.004125983333335,55.0,53.0
81,29.051071766666666,29.701408941666667,60.0,45.0
82,29.382453766666668,29.72764335,55.0,59.0
83,28.388307766666667,29.781492925000002,63.0,99.0
84,30.37659976666667,31.1940087,56.0,71.0
85,31.37074576666667,31.548863591666667,56.0,68.0
86,30.045217766666667,31.602713166666668,51.0,39.0
87,30.707981766666666,31.617901508333336,60.0,59.0
88,29.71383576666667,31.69936625,44.0,77.0
89,31.039363766666668,32.432548925000006,68.0,107.0
90,31.702127766666667,32.43531044166667,63.0,77.0
91,32.03350976666667,32.45878333333333,60.0,54.0
92,33.02765576666667,33.597908958333335,53.0,43.0
93,33.35903776666667,33.724938725,56.0,64.0
94,32.696273766666664,33.83125711666666,48.0,42.0
95,32.364891766666666,34.507828700000005,41.0,63.0
96,34.02180176666667,34.52715931666667,48.0,56.0
97,34.684565766666665,35.06013203333333,53.0,79.0
98,34.35318376666667,35.07255885833334,56.0,99.0
99,33.690419766666665,35.079462649999996,60.0,83.0
100,35.678711766666666,36.450555675000004,55.0,86.0
101,36.01009376666667,36.46160174166667,62.0,83.0
102,36.67285776666667,36.87444848333334,55.0,69.0
103,35.34732976666667,36.8937791,50.0,40.0
104,35.01594776666667,36.939344125000005,43.0,77.0
105,36.34147576666667,37.163026975,67.0,85.0
106,37.33562176666667,37.719472583333335,67.0,73.0
107,36.34147576666667,37.72499561666667,70.0,95.0
108,37.00423976666667,37.75813381666667,62.0,86.0
109,37.99838576666667,38.05223534166667,61.0,37.0
110,38.66114976666667,39.101611675,55.0,75.0
111,38.32976776666667,39.11403850000001,48.0,67.0
112,38.99253176666667,39.82512904166667,60.0,96.0
113,37.66700376666667,39.992200800000006,36.0,72.0
114,37.99838576666667,40.09851919166667,43.0,62.0
115,39.32391376666667,40.26835246666667,48.0,95.0
116,39.65529576666667,40.318059766666664,55.0,99.0
117,39.98667776666667,40.318059766666664,60.0,93.0
118,38.99253176666667,40.318059766666664,63.0,112.0
119,40.64944176666667,41.002915900000005,50.0,46.0
120,40.318059766666664,41.07471533333334,43.0,73.0
121,40.980823766666674,41.58973819166667,62.0,79.0
122,41.312205766666665,41.65739535,55.0,71.0
123,41.97496976666667,42.40990864166667,48.0,63.0
124,41.64358776666667,42.45271215,41.0,71.0
125,42.306351766666666,43.01744230833334,56.0,66.0
126,42.306351766666666,43.051961266666666,60.0,69.0
127,43.63187976666667,44.471380833333335,48.0,55.0
128,42.96911576666667,44.84142406666667,36.0,69.0
129,43.96326176666667,44.880085300000005,55.0,31.0
130,43.300497766666666,44.910461983333335,43.0,55.0
131,44.62602576666667,45.0789145,48.0,61.0
132,44.29464376666667,45.61879100833333,63.0,96.0
133,45.28878976666667,45.62293328333334,55.0,62.0
134,44.95740776666667,45.63950238333334,60.0,59.0
135,46.28293576666667,46.86147350833333,53.0,59.0
136,46.61431776666667,47.05201815833334,56.0,59.0
137,45.95155376666666,47.063064225000005,48.0,54.0
138,47.27708176666667,47.506287650000004,48.0,49.0
139,45.62017176666667,47.54909115833334,41.0,68.0
140,46.945699766666664,48.2933199,60.0,88.0
141,47.608463766666674,48.34302720000001,56.0,70.0
142,47.939845766666664,48.35131175000001,53.0,52.0
143,48.933991766666665,49.73345084166667,48.0,60.0
144,48.602609766666674,50.14077455,43.0,47.0
145,48.27122776666667,50.17943578333333,36.0,58.0
146,49.26537376666667,50.317511616666664,55.0,53.0
147,49.928137766666666,50.40864166666667,48.0,56.0
148,49.596755766666675,50.846342058333335,63.0,99.0
149,50.25951976666667,50.92642604166667,60.0,72.0
150,50.590901766666676,50.962325758333336,55.0,57.0
151,51.91642976666667,52.20224674166667,58.0,45.0
152,51.585047766666676,52.340322575,55.0,54.0
153,51.25366576666667,52.42869110833334,50.0,59.0
154,52.57919376666668,52.97409065000001,50.0,59.0
155,50.922283766666666,53.008609608333344,43.0,66.0
156,53.24195776666667,53.52225170833334,55.0,53.0
157,52.91057576666667,53.54710535833334,58.0,86.0
158,52.24781176666667,53.55953218333333,62.0,95.0
159,53.54020156666667,54.382464150000004,55.0,82.0
160,53.536059291666675,54.39351021666667,60.0,79.0
161,53.53882080833334,54.405937041666675,63.0,81.0
162,54.5398706,54.81602226666668,55.0,70.0
163,54.54125135833334,54.818783783333345,60.0,70.0
164,54.54401287500001,54.82154530000001,63.0,67.0
165,54.220915425,55.012089950000004,48.0,71.0
166,54.89472549166668,55.366944841666665,60.0,97.0
167,54.89886776666667,55.38351394166668,55.0,88.0
168,54.89610625,55.39179849166668,63.0,99.0
169,55.55887025,55.81845281666668,55.0,92.0
170,55.563012525000005,55.836402675,60.0,102.0
171,55.56025100833334,55.83778343333334,63.0,102.0
172,53.91438707500001,56.18987680833334,43.0,36.0
173,55.220584458333335,56.209207425,48.0,93.0
174,55.931675,56.22163425000001,60.0,90.0
175,53.5457246,56.224395766666674,36.0,71.0
176,55.92891348333333,56.225776525,55.0,83.0
177,56.224395766666674,56.225776525,55.0,72.0
178,55.93305575833334,56.22991880000001,63.0,99.0
179,56.224395766666674,56.22991880000001,63.0,72.0
180,56.224395766666674,57.102558066666674,58.0,90.0
181,56.88715976666667,57.67004974166667,51.0,72.0
182,57.218541766666675,57.67971505,55.0,83.0
183,56.555777766666665,57.908920933333334,46.0,29.0
184,56.224395766666674,57.99176643333334,39.0,78.0
185,57.88130576666667,58.157457433333335,51.0,73.0
186,57.549923766666666,58.18783411666668,58.0,97.0
187,57.549923766666666,58.20854549166667,63.0,95.0
188,58.212687766666676,58.283106441666675,55.0,72.0
189,58.87545176666667,59.650057191666676,60.0,72.0
190,58.87545176666667,59.66110325833334,68.0,69.0
191,58.87545176666667,59.690099183333345,63.0,77.0
192,59.86959776666667,60.31282119166667,60.0,69.0
193,59.53821576666667,60.31558270833334,56.0,89.0
194,59.206833766666676,60.825082533333344,51.0,45.0
195,60.53236176666667,60.847174666666675,56.0,76.0
196,60.20097976666668,60.855459216666674,68.0,86.0
197,60.20097976666668,60.870647558333346,63.0,92.0
198,58.87545176666667,60.899643483333335,44.0,74.0
199,60.86374376666667,60.92725865,60.0,73.0
200,61.52650776666667,62.37429338333334,65.0,69.0
201,61.52650776666667,62.378435658333345,58.0,93.0
202,61.52650776666667,62.393624,62.0,74.0
203,62.52065376666667,62.697390833333344,65.0,58.0
204,62.52065376666667,62.709817658333336,58.0,69.0
205,62.52065376666667,62.712579175,62.0,66.0
206,62.18927176666668,62.91140837500001,53.0,73.0
207,62.852035766666674,63.13647198333334,58.0,102.0
208,62.852035766666674,63.23312506666667,65.0,79.0
209,61.85788976666667,63.37534317500001,50.0,36.0
210,63.18341776666668,63.39881606666667,53.0,55.0
211,61.52650776666667,63.42919275000001,46.0,74.0
212,62.852035766666674,63.60869133333334,62.0,92.0
213,63.51479976666667,63.71639048333334,58.0,77.0
214,64.17756376666668,64.84585080000001,55.0,72.0
215,64.17756376666668,64.95907298333334,58.0,88.0
216,64.17756376666668,64.95907298333334,63.0,81.0
217,65.17170976666667,65.41886550833334,55.0,60.0
218,64.84032776666668,65.61631395,51.0,86.0
219,64.17756376666668,65.92974609166667,39.0,72.0
220,64.50894576666667,65.98635718333334,46.0,33.0
221,65.83447376666668,66.02501841666667,51.0,59.0
222,65.50309176666667,66.13547908333334,63.0,95.0
223,65.50309176666667,66.17275955833334,58.0,99.0
224,66.16585576666667,66.28460098333333,55.0,65.0
225,66.82861976666668,66.93631891666668,53.0,63.0
226,66.82861976666668,66.94874574166667,56.0,64.0
227,66.82861976666668,66.954268775,60.0,71.0
228,67.49138376666667,68.346073175,53.0,76.0
229,67.82276576666668,68.37230758333334,60.0,70.0
230,68.48552976666667,68.66364759166667,53.0,59.0
231,67.16000176666667,68.702308825,48.0,40.0
232,66.82861976666668,68.7727275,41.0,59.0
233,68.15414776666667,68.81276949166667,68.0,89.0
234,68.15414776666667,68.81967328333334,65.0,89.0
235,68.81691176666668,68.8887112,60.0,76.0
236,69.47967576666667,70.27775408333333,55.0,72.0
237,69.47967576666667,70.34541124166667,60.0,72.0
238,69.47967576666667,70.62018215,63.0,67.0
239,70.47382176666667,70.90047609166668,55.0,58.0
240,70.14243976666667,71.01922130833334,48.0,70.0
241,69.47967576666667,71.35474558333334,36.0,61.0
242,69.81105776666668,71.40445288333333,43.0,38.0
243,70.80520376666668,71.49696369166668,60.0,75.0
244,70.80520376666668,71.51491355,63.0,75.0
245,71.13658576666667,71.53700568333333,48.0,46.0
246,71.46796776666667,71.54805175000001,55.0,69.0
247,72.13073176666667,72.94261766666668,60.0,71.0
248,72.13073176666667,72.97299435000001,65.0,66.0
249,72.13073176666667,72.99094420833335,68.0,66.0
250,72.79349576666668,73.57638574166667,53.0,69.0
251,73.12487776666667,73.59571635833333,60.0,65.0
252,73.78764176666668,74.09417011666667,53.0,62.0
253,72.46211376666668,74.15630424166667,48.0,38.0
254,73.45625976666668,74.18806168333334,68.0,90.0
255,72.13073176666667,74.19220395833334,41.0,58.0
256,73.45625976666668,74.19634623333334,65.0,85.0
257,74.11902376666667,74.55534340000001,60.0,63.0
258,74.78178776666667,75.70551509166667,65.0,81.0
259,74.78178776666667,75.70827660833334,69.0,77.0
260,74.78178776666667,75.70965736666668,60.0,89.0
261,75.77593376666667,75.98995130833335,69.0,59.0
262,75.77593376666667,76.00099737500001,60.0,63.0
263,75.77593376666667,76.00652040833334,65.0,63.0
264,75.44455176666668,76.25091463333334,53.0,89.0
265,76.10731576666667,76.580915875,60.0,88.0
266,76.43869776666668,76.63062317500001,53.0,97.0
267,75.11316976666667,76.63614620833334,48.0,48.0
268,74.78178776666667,76.64305,41.0,69.0
269,76.10731576666667,76.8750174,69.0,95.0
270,76.10731576666667,76.87915967500001,65.0,97.0
271,76.77007976666667,77.01999702500001,60.0,112.0
272,77.10146176666667,77.15254982500001,65.0,69.0
273,77.10146176666667,77.17464195833334,60.0,53.0
274,77.43284376666668,78.20744919166667,58.0,112.0
275,77.43284376666668,78.26406028333334,62.0,90.0
276,78.42698976666667,78.61201138333334,58.0,90.0
277,78.42698976666667,78.61201138333334,62.0,82.0
278,78.42698976666667,78.6147729,65.0,79.0
279,78.09560776666667,78.81222134166667,53.0,90.0
280,78.75837176666667,79.15326865,58.0,117.0
281,77.76422576666667,79.16431471666667,50.0,40.0
282,77.43284376666668,79.23059111666667,46.0,95.0
283,78.75837176666667,79.25130249166668,65.0,92.0
284,79.08975376666668,79.25544476666667,53.0,81.0
285,79.42113576666667,79.64758013333334,58.0,96.0
286,78.75837176666667,79.828459475,62.0,96.0
287,80.08389976666668,80.6693413,60.0,86.0
288,80.08389976666668,80.91649704166667,55.0,79.0
289,80.08389976666668,80.92478159166667,64.0,81.0
290,81.07804576666668,81.32243999166667,64.0,69.0
291,81.07804576666668,81.32520150833334,60.0,75.0
292,81.07804576666668,81.32658226666668,55.0,73.0
293,81.40942776666667,81.52955374166667,55.0,82.0
294,80.74666376666667,81.55854966666668,48.0,78.0
295,80.41528176666667,81.82641678333334,43.0,32.0
296,80.08389976666668,81.83884360833333,36.0,63.0
297,81.74080976666667,82.0280075,48.0,70.0
298,81.40942776666667,82.08461859166667,64.0,93.0
299,81.40942776666667,82.090141625,60.0,102.0
300,82.07219176666668,82.15917954166667,55.0,89.0
301,82.73495576666667,83.5357956,65.0,76.0
302,82.73495576666667,83.54684166666667,58.0,112.0
303,82.73495576666667,83.564791525,62.0,90.0
304,83.72910176666667,83.89617352500001,65.0,60.0
305,83.72910176666667,83.90307731666667,62.0,66.0
306,83.72910176666667,83.92240793333333,58.0,92.0
307,83.39771976666667,84.15437533333333,53.0,82.0
308,84.06048376666668,84.40291183333333,58.0,99.0
309,83.06633776666668,84.43743079166667,50.0,56.0
310,84.39186576666667,84.46228444166667,53.0,76.0
311,82.73495576666667,84.467807475,46.0,93.0
312,84.06048376666668,84.49404188333334,65.0,90.0
313,84.06048376666668,84.84475450000001,62.0,93.0
314,84.72324776666667,84.98283033333334,58.0,93.0
315,85.38601176666667,86.15785567500001,55.0,72.0
316,85.38601176666667,86.16337870833334,58.0,89.0
317,85.38601176666667,86.199278425,63.0,85.0
318,86.38015776666667,86.56932165833334,55.0,55.0
319,86.38015776666667,86.58727151666668,63.0,58.0
320,86.38015776666667,86.59279455000001,58.0,70.0
321,86.04877576666667,86.83304650000001,51.0,79.0
322,85.71739376666667,87.22794338333334,46.0,39.0
323,85.38601176666667,87.23622793333334,39.0,81.0
324,87.04292176666667,87.29974281666668,51.0,72.0
325,86.71153976666668,87.35221163333334,63.0,99.0
326,86.71153976666668,87.37292300833334,58.0,107.0
327,87.37430376666667,87.45162623333334,55.0,73.0
328,88.03706776666667,88.11991326666667,53.0,72.0
329,88.03706776666667,88.12957857500001,56.0,76.0
330,88.03706776666667,88.13510160833334,60.0,72.0
331,88.69983176666668,89.546236625,53.0,85.0
332,89.03121376666667,89.64565122500001,60.0,64.0
333,89.69397776666668,89.87485710833334,53.0,56.0
334,88.36844976666667,89.89833,48.0,59.0
335,88.03706776666667,89.93975275000001,41.0,65.0
336,89.36259576666667,90.04192886666667,68.0,85.0
337,89.36259576666667,90.04883265833334,65.0,86.0
338,90.02535976666667,90.09439768333334,60.0,85.0
339,90.68812376666668,91.51795952500001,55.0,64.0
340,90.68812376666668,91.53038635,60.0,60.0
341,90.68812376666668,91.53729014166667,63.0,58.0
342,91.68226976666668,91.89904882500001,55.0,59.0
343,91.68226976666668,91.90042958333333,63.0,53.0
344,91.68226976666668,91.91285640833334,60.0,56.0
345,91.35088776666667,92.189008075,48.0,75.0
346,92.01365176666667,92.45963670833333,55.0,81.0
347,90.68812376666668,92.49553642500001,36.0,59.0
348,91.01950576666667,92.5162478,43.0,56.0
349,92.01365176666667,92.6653697,63.0,93.0
350,92.01365176666667,92.67365425000001,60.0,95.0
351,92.34503376666667,92.694365625,48.0,55.0
352,92.67641576666668,92.76892657500001,55.0,66.0
353,93.33917976666667,93.78378395,55.0,69.0
354,93.33917976666667,93.90390992500001,62.0,63.0
355,93.33917976666667,94.05027030833334,58.0,71.0
356,94.00194376666667,94.566673925,55.0,56.0
357,94.33332576666668,94.574958475,62.0,67.0
358,94.33332576666668,94.59705060833333,58.0,72.0
359,93.67056176666668,94.66470776666668,50.0,56.0
360,94.66470776666668,94.76550312500001,55.0,55.0
361,93.33917976666667,95.14106939166668,43.0,64.0
362,94.99608976666667,95.16454228333335,50.0,46.0
363,94.66470776666668,95.37855982500001,62.0,90.0
364,94.66470776666668,95.81487945833334,58.0,107.0
365,95.32747176666668,95.88529813333334,55.0,67.0
366,95.99023576666667,96.81592925000001,55.0,63.0
367,95.99023576666667,97.16664186666668,63.0,58.0
368,95.99023576666667,97.18321096666668,60.0,62.0
369,96.98438176666667,97.44279353333334,55.0,68.0
370,96.65299976666667,97.45107808333334,48.0,78.0
371,96.32161776666668,98.667526175,43.0,37.0
372,97.31576376666668,98.667526175,60.0,86.0
373,97.64714576666667,98.67719148333335,48.0,56.0
374,97.31576376666668,98.67995300000001,63.0,86.0
375,97.97852776666667,98.692379825,55.0,65.0
376,95.99023576666667,98.73242181666667,36.0,57.0
377,98.64129176666667,98.73242181666667,36.0,77.0
378,98.97267376666667,99.80941331666668,48.0,66.0
379,99.63543776666667,99.90744715833334,63.0,88.0
380,99.30405576666668,99.99719645,55.0,72.0
381,99.96681976666667,100.64201059166668,41.0,63.0
382,100.29820176666668,100.72761760833335,48.0,58.0
383,100.96096576666667,101.30063231666668,56.0,53.0
384,100.62958376666667,101.326866725,60.0,72.0
385,102.28649376666668,102.67448685833334,58.0,59.0
386,101.95511176666668,102.75457084166668,55.0,42.0
387,101.62372976666667,102.784947525,50.0,48.0
388,102.94925776666668,103.22817095,50.0,60.0
389,101.29234776666668,103.28478204166667,43.0,56.0
390,103.28063976666668,103.95168831666668,58.0,73.0
391,102.61787576666667,103.97930348333334,62.0,95.0
392,103.94340376666668,104.76219345833334,36.0,78.0
393,104.27478576666668,104.76909725,43.0,41.0
394,104.60616776666667,105.17780171666668,48.0,77.0
395,103.61202176666667,105.32278134166667,55.0,61.0
396,104.93754976666668,105.36972712500001,63.0,81.0
397,105.60031376666667,106.03111036666668,50.0,64.0
398,105.26893176666667,106.07805615000001,43.0,68.0
399,105.93169576666668,106.662116925,62.0,78.0
400,106.26307776666667,106.67316299166667,55.0,52.0
401,107.58860576666667,107.79571951666668,67.0,58.0
402,107.58860576666667,107.82057316666668,63.0,57.0
403,107.25722376666667,108.01387933333334,48.0,62.0
404,106.59445976666667,108.56480190833334,36.0,58.0
405,106.92584176666668,108.60346314166668,43.0,53.0
406,107.91998776666668,108.67664333333335,63.0,89.0
407,108.25136976666667,108.77743869166667,48.0,74.0
408,108.58275176666668,109.321457475,62.0,82.0
409,108.91413376666668,109.35735719166668,63.0,78.0
410,107.91998776666668,109.37944932500001,67.0,92.0
411,109.90827976666668,110.41087580000001,55.0,62.0
412,109.57689776666668,110.75744614166668,50.0,63.0
413,110.90242576666668,111.2227617,50.0,47.0
414,109.24551576666667,111.27384975833334,43.0,63.0
415,110.57104376666668,111.98079802500001,62.0,83.0
416,110.23966176666667,111.99322485,58.0,58.0
417,111.23380776666667,112.66427340000001,55.0,33.0
418,112.55933576666668,113.34498725833335,48.0,52.0
419,112.22795376666667,113.68879608333334,43.0,48.0
420,111.89657176666668,113.72193428333334,36.0,61.0
421,113.55348176666668,113.80477978333334,48.0,73.0
422,112.89071776666668,113.83791798333334,55.0,53.0
423,113.88486376666668,114.53520094166667,60.0,45.0
424,114.21624576666667,114.56143535000001,55.0,59.0
425,113.22209976666667,114.61528492500001,63.0,99.0
426,115.21039176666667,116.02780070000001,56.0,71.0
427,116.20453776666668,116.38265559166668,56.0,68.0
428,114.87900976666667,116.43650516666668,51.0,39.0
429,115.54177376666668,116.45169350833335,60.0,59.0
430,114.54762776666668,116.53315825000001,44.0,77.0
431,115.87315576666667,117.26634092500001,68.0,107.0
432,116.53591976666668,117.26910244166667,63.0,77.0
433,116.86730176666667,117.29257533333335,60.0,54.0
434,117.86144776666667,118.43170095833334,53.0,43.0
435,118.19282976666668,118.558730725,56.0,64.0
436,117.53006576666668,118.66504911666668,48.0,42.0
437,117.19868376666668,119.3416207,41.0,63.0
438,118.85559376666667,119.36095131666667,48.0,56.0
439,119.51835776666668,119.89392403333335,53.0,79.0
440,119.18697576666668,119.90635085833334,56.0,99.0
441,118.52421176666668,119.91325465000001,60.0,83.0
442,120.51250376666668,121.284347675,55.0,86.0
443,120.84388576666667,121.29539374166667,62.0,83.0
444,121.50664976666668,121.70824048333334,55.0,69.0
445,120.18112176666668,121.7275711,50.0,40.0
446,119.84973976666667,121.77313612500001,43.0,77.0
447,121.17526776666668,121.99681897500001,67.0,85.0
448,122.16941376666668,122.55326458333334,67.0,73.0
449,121.17526776666668,122.55878761666668,70.0,95.0
450,121.83803176666667,122.59192581666667,62.0,86.0
451,122.83217776666667,122.88602734166668,61.0,37.0
452,123.49494176666668,123.93540367500002,55.0,75.0
453,123.16355976666668,123.94783050000001,48.0,67.0
454,123.82632376666668,124.65892104166667,60.0,96.0
455,122.50079576666668,124.82599280000001,36.0,72.0
456,122.83217776666667,124.93231119166668,43.0,62.0
457,124.15770576666668,125.10214446666667,48.0,95.0
458,124.48908776666667,125.15185176666668,55.0,99.0
459,124.82046976666668,125.15185176666668,60.0,93.0
460,123.82632376666668,125.15185176666668,63.0,112.0
461,125.48323376666667,125.83670790000001,50.0,46.0
462,125.15185176666668,125.90850733333335,43.0,73.0
463,125.81461576666668,126.42353019166667,62.0,79.0
464,126.14599776666668,126.49118735000002,55.0,71.0
465,126.80876176666668,127.24370064166668,48.0,63.0
466,126.47737976666667,127.28650415000001,41.0,71.0
467,127.14014376666668,127.85123430833335,56.0,66.0
468,127.14014376666668,127.88575326666668,60.0,69.0
469,128.46567176666667,129.30517283333336,48.0,55.0
470,127.80290776666668,129.67521606666668,36.0,69.0
471,128.7970537666667,129.7138773,55.0,31.0
472,128.13428976666668,129.74425398333335,43.0,55.0
473,129.45981776666667,129.9127065,48.0,61.0
474,129.12843576666668,130.45258300833336,63.0,96.0
475,130.12258176666668,130.45672528333336,55.0,62.0
476,129.7911997666667,130.47329438333335,60.0,59.0
477,131.11672776666668,131.69526550833336,53.0,59.0
478,131.44810976666668,131.88581015833336,56.0,59.0
479,130.7853457666667,131.89685622500002,48.0,54.0
480,132.11087376666669,132.34007965,48.0,49.0
481,130.45396376666667,132.38288315833336,41.0,68.0
482,131.7794917666667,133.12711190000002,60.0,88.0
483,132.44225576666668,133.1768192,56.0,70.0
484,132.7736377666667,133.18510375000002,53.0,52.0
485,133.7677837666667,134.56724284166668,48.0,60.0
486,133.43640176666668,134.97456655000002,43.0,47.0
487,133.1050197666667,135.01322778333335,36.0,58.0
488,134.0991657666667,135.1513036166667,55.0,53.0
489,134.7619297666667,135.2424336666667,48.0,56.0
490,134.43054776666668,135.68013405833335,63.0,99.0
491,135.0933117666667,135.7602180416667,60.0,72.0
492,135.42469376666668,135.79611775833337,55.0,57.0
493,136.7502217666667,137.0360387416667,58.0,45.0
494,136.41883976666668,137.17411457500003,55.0,54.0
495,136.0874577666667,137.26248310833336,50.0,59.0
496,137.41298576666668,137.80788265,50.0,59.0
497,135.7560757666667,137.84240160833335,43.0,66.0
498,138.0757497666667,138.35604370833335,55.0,53.0
499,137.7443677666667,138.38089735833336,58.0,86.0
500,137.0816037666667,138.39332418333336,62.0,95.0
501,139.0698957666667,139.35295122500003,60.0,76.0
502,139.40127776666668,139.64981426666668,67.0,66.0
503,139.40127776666668,139.6705256416667,63.0,88.0
504,138.7385137666667,139.8610702916667,55.0,59.0
505,140.0640417666667,140.39542376666668,55.0,95.0
506,138.40713176666668,140.4492733416667,48.0,74.0
507,139.7326597666667,140.47550775000002,63.0,100.0
508,140.39542376666668,140.97396150833336,60.0,112.0
509,140.7268057666667,140.993292125,63.0,127.0
510,139.7326597666667,141.00157667500002,67.0,93.0
511,141.0706145916667,141.91701945000003,55.0,72.0
512,141.0706145916667,141.94049234166667,63.0,72.0
513,141.0706145916667,141.94877689166668,58.0,90.0
514,141.73337859166668,142.51626856666667,51.0,72.0
515,142.06476059166667,142.52731463333333,55.0,83.0
516,141.4019965916667,142.75513975833334,46.0,29.0
517,141.0706145916667,142.83936601666667,39.0,78.0
518,142.72752459166668,143.00367625833334,51.0,73.0
519,142.3961425916667,143.0340529416667,58.0,97.0
520,142.3961425916667,143.05614507500002,63.0,95.0
521,143.05890659166667,143.12932526666668,55.0,72.0
522,143.72167059166668,144.49627601666668,60.0,72.0
523,143.72167059166668,144.50732208333335,68.0,69.0
524,143.72167059166668,144.5376987666667,63.0,77.0
525,144.71581659166668,145.160420775,60.0,69.0
526,144.3844345916667,145.16180153333335,56.0,89.0
527,144.05305259166667,145.6726821166667,51.0,45.0
528,145.3785805916667,145.69339349166668,56.0,76.0
529,145.04719859166667,145.7030588,68.0,86.0
530,145.04719859166667,145.7182471416667,63.0,92.0
531,143.72167059166668,145.74586230833336,44.0,74.0
532,145.70996259166668,145.77347747500002,60.0,73.0
533,146.3727265916667,147.22051220833336,65.0,69.0
534,146.3727265916667,147.22465448333335,58.0,93.0
535,146.3727265916667,147.24122358333335,62.0,74.0
536,147.3668725916667,147.54499041666668,65.0,58.0
537,147.3668725916667,147.55603648333334,58.0,69.0
538,147.3668725916667,147.55879800000002,62.0,66.0
539,147.03549059166667,147.7576272,53.0,73.0
540,147.69825459166668,147.98407156666667,58.0,102.0
541,147.69825459166668,148.07934389166667,65.0,79.0
542,146.70410859166668,148.22294275833335,50.0,36.0
543,148.02963659166667,148.24503489166668,53.0,55.0
544,146.3727265916667,148.27679233333336,46.0,74.0
545,147.69825459166668,148.4562909166667,62.0,92.0
546,148.3610185916667,148.5639900666667,58.0,77.0
547,149.02378259166667,149.69206962500002,55.0,72.0
548,149.02378259166667,149.80529180833335,58.0,88.0
549,149.02378259166667,149.80529180833335,63.0,81.0
550,150.01792859166667,150.26646509166667,55.0,60.0
551,149.68654659166668,150.46391353333334,51.0,86.0
552,149.02378259166667,150.77596491666668,39.0,72.0
553,149.3551645916667,150.83257600833335,46.0,33.0
554,150.68069259166668,150.87261800000002,51.0,59.0
555,150.3493105916667,150.98169790833336,63.0,95.0
556,150.3493105916667,151.0203591416667,58.0,99.0
557,151.01207459166667,151.13220056666668,55.0,65.0
558,151.67483859166668,151.7825377416667,53.0,63.0
559,151.67483859166668,151.796345325,56.0,64.0
560,151.67483859166668,151.80048760000003,60.0,71.0
561,152.3376025916667,153.192292,53.0,76.0
562,152.66898459166669,153.21852640833336,60.0,70.0
563,153.3317485916667,153.50986641666668,53.0,59.0
564,152.00622059166668,153.54852765,48.0,40.0
565,151.67483859166668,153.61894632500002,41.0,59.0
566,153.00036659166668,153.6589883166667,68.0,89.0
567,153.00036659166668,153.66589210833334,65.0,89.0
568,153.6631305916667,153.73631078333335,60.0,76.0
569,154.3258945916667,155.12535366666668,55.0,72.0
570,154.3258945916667,155.19301082500002,60.0,72.0
571,154.3258945916667,155.46778173333334,63.0,67.0
572,155.32004059166667,155.74669491666668,55.0,58.0
573,154.98865859166668,155.86544013333335,48.0,70.0
574,154.3258945916667,156.20096440833336,36.0,61.0
575,154.6572765916667,156.25205246666667,43.0,38.0
576,155.6514225916667,156.344563275,60.0,75.0
577,155.6514225916667,156.36251313333335,63.0,75.0
578,155.98280459166668,156.38460526666668,48.0,46.0
579,156.31418659166667,156.39565133333335,55.0,69.0
580,156.97695059166668,157.78883649166667,60.0,71.0
581,156.97695059166668,157.82059393333336,65.0,66.0
582,156.97695059166668,157.8385437916667,68.0,66.0
583,157.6397145916667,158.42398532500002,53.0,69.0
584,157.97109659166668,158.4433159416667,60.0,65.0
585,158.6338605916667,158.9417697,53.0,62.0
586,157.30833259166667,159.00252306666667,48.0,38.0
587,158.30247859166667,159.0356612666667,68.0,90.0
588,156.97695059166668,159.03842278333335,41.0,58.0
589,158.30247859166667,159.04256505833334,65.0,85.0
590,158.96524259166668,159.40294298333336,60.0,63.0
591,159.6280065916667,160.55311467500002,65.0,81.0
592,159.6280065916667,160.55449543333336,69.0,77.0
593,159.6280065916667,160.55587619166667,60.0,89.0
594,160.6221525916667,160.8375508916667,69.0,59.0
595,160.6221525916667,160.84859695833336,60.0,63.0
596,160.6221525916667,160.8541199916667,65.0,63.0
597,160.29077059166667,161.09713345833336,53.0,89.0
598,160.95353459166668,161.42851545833335,60.0,88.0
599,161.28491659166667,161.47822275833335,53.0,97.0
600,159.95938859166668,161.48236503333334,48.0,48.0
601,159.6280065916667,161.489268825,41.0,69.0
602,160.95353459166668,161.721236225,69.0,95.0
603,160.95353459166668,161.7253785,65.0,97.0
604,161.6162985916667,161.86621585,60.0,112.0
605,161.94768059166668,162.00014940833336,65.0,69.0
606,161.94768059166668,162.02086078333335,60.0,53.0
607,162.27906259166667,163.05504877500002,58.0,112.0
608,162.27906259166667,163.11165986666668,62.0,90.0
609,163.27320859166667,163.45823020833336,58.0,90.0
610,163.27320859166667,163.45823020833336,62.0,82.0
611,163.27320859166667,163.460991725,65.0,79.0
612,162.94182659166668,163.65844016666668,53.0,90.0
613,163.6045905916667,164.00086823333336,58.0,117.0
614,162.6104445916667,164.0105335416667,50.0,40.0
615,162.27906259166667,164.07819070000002,46.0,95.0
616,163.6045905916667,164.098902075,65.0,92.0
617,163.93597259166668,164.10304435,53.0,81.0
618,164.26735459166667,164.49379895833334,58.0,96.0
619,163.6045905916667,164.6746783,62.0,96.0
620,164.93011859166668,165.51694088333335,60.0,86.0
621,164.93011859166668,165.7627158666667,55.0,79.0
622,164.93011859166668,165.77238117500002,64.0,81.0
623,165.92426459166668,166.1686588166667,64.0,69.0
624,165.92426459166668,166.17142033333334,60.0,75.0
625,165.92426459166668,166.17280109166668,55.0,73.0
626,166.25564659166668,166.37577256666668,55.0,82.0
627,165.5928825916667,166.40614925000003,48.0,78.0
628,165.26150059166667,166.67263560833334,43.0,32.0
629,164.93011859166668,166.68644319166668,36.0,63.0
630,166.5870285916667,166.87422632500002,48.0,70.0
631,166.25564659166668,166.93221817500003,64.0,93.0
632,166.25564659166668,166.93636045000002,60.0,102.0
633,166.91841059166669,167.0053983666667,55.0,89.0
634,167.5811745916667,168.38339518333336,65.0,76.0
635,167.5811745916667,168.3930604916667,58.0,112.0
636,167.5811745916667,168.41239110833334,62.0,90.0
637,168.5753205916667,168.74377310833336,65.0,60.0
638,168.5753205916667,168.7492961416667,62.0,66.0
639,168.5753205916667,168.76862675833334,58.0,92.0
640,168.24393859166668,169.00059415833334,53.0,82.0
641,168.9067025916667,169.25051141666668,58.0,99.0
642,167.9125565916667,169.28503037500002,50.0,56.0
643,169.23808459166668,169.3085032666667,53.0,76.0
644,167.5811745916667,169.31540705833336,46.0,93.0
645,168.9067025916667,169.34026070833335,65.0,90.0
646,168.9067025916667,169.69097332500002,62.0,93.0
647,169.5694665916667,169.83042991666667,58.0,93.0
648,170.23223059166668,171.00545525833334,55.0,72.0
649,170.23223059166668,171.01097829166667,58.0,89.0
650,170.23223059166668,171.04549725,63.0,85.0
651,171.22637659166668,171.41554048333336,55.0,55.0
652,171.22637659166668,171.4348711,63.0,58.0
653,171.22637659166668,171.43901337500003,58.0,70.0
654,170.8949945916667,171.67926532500002,51.0,79.0
655,170.5636125916667,172.07416220833335,46.0,39.0
656,170.23223059166668,172.08382751666667,39.0,81.0
657,171.8891405916667,172.14596164166667,51.0,72.0
658,171.5577585916667,172.1998112166667,63.0,99.0
659,171.5577585916667,172.21914183333334,58.0,107.0
660,172.22052259166668,172.29922581666668,55.0,73.0
661,172.8832865916667,172.96613209166668,53.0,72.0
662,172.8832865916667,172.97717815833334,56.0,76.0
663,172.8832865916667,172.98270119166668,60.0,72.0
664,173.5460505916667,174.39383620833334,53.0,85.0
665,173.8774325916667,174.49187005000002,60.0,64.0
666,174.54019659166667,174.72107593333334,53.0,56.0
667,173.21466859166668,174.744548825,48.0,59.0
668,172.8832865916667,174.78735233333336,41.0,65.0
669,174.20881459166668,174.88952845000003,68.0,85.0
670,174.20881459166668,174.89505148333336,65.0,86.0
671,174.8715785916667,174.94061650833336,60.0,85.0
672,175.53434259166667,176.36555910833334,55.0,64.0
673,175.53434259166667,176.376605175,60.0,60.0
674,175.53434259166667,176.38350896666668,63.0,58.0
675,176.52848859166667,176.74664840833336,55.0,59.0
676,176.52848859166667,176.7480291666667,63.0,53.0
677,176.52848859166667,176.75907523333336,60.0,56.0
678,176.19710659166668,177.03660765833334,48.0,75.0
679,176.8598705916667,177.30585553333336,55.0,81.0
680,175.53434259166667,177.34175525,36.0,59.0
681,175.8657245916667,177.36246662500002,43.0,56.0
682,176.8598705916667,177.51296928333335,63.0,93.0
683,176.8598705916667,177.51987307500002,60.0,95.0
684,177.19125259166668,177.54196520833335,48.0,55.0
685,177.52263459166667,177.61652615833336,55.0,66.0
686,178.18539859166668,178.63138353333335,55.0,69.0
687,178.18539859166668,178.75012875000002,62.0,63.0
688,178.18539859166668,178.8978698916667,58.0,71.0
689,178.8481625916667,179.41289275000003,55.0,56.0
690,179.17954459166668,179.4211773,62.0,67.0
691,179.17954459166668,179.44465019166668,58.0,72.0
692,178.51678059166667,179.51230735000001,50.0,56.0
693,179.51092659166667,179.61310270833334,55.0,55.0
694,178.18539859166668,179.98728821666668,43.0,64.0
695,179.8423085916667,180.01076110833336,50.0,46.0
696,179.51092659166667,180.22477865000002,62.0,90.0
697,179.51092659166667,180.66109828333336,58.0,107.0
698,180.17369059166668,180.73151695833334,55.0,67.0
699,180.8364545916667,181.66352883333334,55.0,63.0
700,180.8364545916667,182.01424145000001,63.0,58.0
701,180.8364545916667,182.03081055,60.0,62.0
702,181.8306005916667,182.28901235833337,55.0,68.0
703,181.49921859166668,182.2986776666667,48.0,78.0
704,180.8364545916667,183.4750837666667,36.0,57.0
705,181.16783659166668,183.4750837666667,43.0,37.0
706,182.49336459166668,183.4750837666667,48.0,56.0
707,182.8247465916667,183.4750837666667,55.0,65.0
708,182.16198259166669,183.4750837666667,60.0,86.0
709,182.16198259166669,183.4750837666667,63.0,86.0
710,183.4750837666667,184.21102795833335,36.0,71.0
711,183.8064657666667,184.6432053166667,48.0,66.0
712,184.4692297666667,184.74123915833334,63.0,88.0
713,184.13784776666668,184.83098845,55.0,72.0
714,184.8006117666667,185.47580259166668,41.0,63.0
715,185.13199376666668,185.56140960833335,48.0,58.0
716,185.7947577666667,186.1344243166667,56.0,53.0
717,185.46337576666667,186.16065872500002,60.0,72.0
718,187.12028576666668,187.50827885833334,58.0,59.0
719,186.7889037666667,187.58836284166668,55.0,42.0
720,186.45752176666667,187.61873952500002,50.0,48.0
721,187.7830497666667,188.06196295,50.0,60.0
722,186.12613976666668,188.11857404166668,43.0,56.0
723,188.11443176666668,188.78548031666668,58.0,73.0
724,187.45166776666667,188.81309548333334,62.0,95.0
725,188.7771957666667,189.59598545833336,36.0,78.0
726,189.10857776666668,189.60288925000003,43.0,41.0
727,189.43995976666668,190.01159371666668,48.0,77.0
728,188.44581376666667,190.1565733416667,55.0,61.0
729,189.7713417666667,190.203519125,63.0,81.0
730,190.43410576666668,190.86490236666668,50.0,64.0
731,190.10272376666668,190.91184815000003,43.0,68.0
732,190.7654877666667,191.495908925,62.0,78.0
733,191.09686976666669,191.50695499166667,55.0,52.0
734,192.42239776666668,192.6295115166667,67.0,58.0
735,192.42239776666668,192.65436516666668,63.0,57.0
736,192.0910157666667,192.84767133333335,48.0,62.0
737,191.42825176666668,193.39859390833337,36.0,58.0
738,191.7596337666667,193.4372551416667,43.0,53.0
739,192.7537797666667,193.51043533333336,63.0,89.0
740,193.0851617666667,193.6112306916667,48.0,74.0
741,193.41654376666668,194.15524947500003,62.0,82.0
742,193.7479257666667,194.19114919166668,63.0,78.0
743,192.7537797666667,194.213241325,67.0,92.0
744,194.7420717666667,195.24466780000003,55.0,62.0
745,194.41068976666668,195.59123814166668,50.0,63.0
746,195.7362177666667,196.05655370000002,50.0,47.0
747,194.0793077666667,196.10764175833336,43.0,63.0
748,195.40483576666668,196.81459002500003,62.0,83.0
749,195.0734537666667,196.82701685000004,58.0,58.0
750,196.0675997666667,197.49806540000003,55.0,33.0
751,197.39312776666668,198.17877925833335,48.0,52.0
752,197.0617457666667,198.52258808333335,43.0,48.0
753,196.7303637666667,198.55572628333334,36.0,61.0
754,198.38727376666668,198.63857178333336,48.0,73.0
755,197.7245097666667,198.67170998333336,55.0,53.0
756,198.7186557666667,199.36899294166668,60.0,45.0
757,199.0500377666667,199.39522735000003,55.0,59.0
758,198.0558917666667,199.449076925,63.0,99.0
759,200.0441837666667,200.86159270000002,56.0,71.0
760,201.0383297666667,201.21644759166668,56.0,68.0
761,199.7128017666667,201.2702971666667,51.0,39.0
762,200.37556576666668,201.28548550833335,60.0,59.0
763,199.38141976666668,201.36695025000003,44.0,77.0
764,200.7069477666667,202.10013292500003,68.0,107.0
765,201.36971176666668,202.10289444166668,63.0,77.0
766,201.7010937666667,202.12636733333335,60.0,54.0
767,202.6952397666667,203.26549295833337,53.0,43.0
768,203.0266217666667,203.39252272500002,56.0,64.0
769,202.36385776666668,203.49884111666668,48.0,42.0
770,202.0324757666667,204.1754127,41.0,63.0
771,203.6893857666667,204.1947433166667,48.0,56.0
772,204.35214976666668,204.72771603333337,53.0,79.0
773,204.0207677666667,204.74014285833334,56.0,99.0
774,203.35800376666668,204.74704665000002,60.0,83.0
775,205.34629576666669,206.118139675,55.0,86.0
776,205.67767776666668,206.1291857416667,62.0,83.0
777,206.3404417666667,206.54203248333334,55.0,69.0
778,205.0149137666667,206.56136310000002,50.0,40.0
779,204.68353176666668,206.60692812500002,43.0,77.0
780,206.0090597666667,206.830610975,67.0,85.0
781,207.0032057666667,207.38705658333336,67.0,73.0
782,206.0090597666667,207.3925796166667,70.0,95.0
783,206.67182376666668,207.4257178166667,62.0,86.0
784,207.66596976666668,207.7198193416667,61.0,37.0
785,208.3287337666667,208.76919567500002,55.0,75.0
786,207.9973517666667,208.78162250000003,48.0,67.0
787,208.66011576666668,209.4927130416667,60.0,96.0
788,207.3345877666667,209.6597848,36.0,72.0
789,207.66596976666668,209.7661031916667,43.0,62.0
790,208.9914977666667,209.9359364666667,48.0,95.0
791,209.3228797666667,209.9856437666667,55.0,99.0
792,209.65426176666668,209.9856437666667,60.0,93.0
793,208.66011576666668,209.9856437666667,63.0,112.0
794,210.3170257666667,210.6704999,50.0,46.0
795,209.9856437666667,210.74229933333336,43.0,73.0
796,210.64840776666668,211.2573221916667,62.0,79.0
797,210.9797897666667,211.32497935000004,55.0,71.0
798,211.64255376666668,212.07749264166668,48.0,63.0
799,211.3111717666667,212.12029615000003,41.0,71.0
800,211.9739357666667,212.68502630833336,56.0,66.0
801,211.9739357666667,212.7195452666667,60.0,69.0
802,213.2994637666667,214.13896483333335,48.0,55.0
803,212.63669976666668,214.5090080666667,36.0,69.0
804,213.63084576666668,214.54766930000002,55.0,31.0
805,212.9680817666667,214.57804598333337,43.0,55.0
806,214.2936097666667,214.74649850000003,48.0,61.0
807,213.9622277666667,215.28637500833335,63.0,96.0
808,214.9563737666667,215.29051728333334,55.0,62.0
809,214.62499176666668,215.30708638333337,60.0,59.0
810,215.9505197666667,216.52905750833335,53.0,59.0
811,216.2819017666667,216.71960215833334,56.0,59.0
812,215.61913776666668,216.73064822500004,48.0,54.0
813,216.9446657666667,217.17387165000002,48.0,49.0
814,215.2877557666667,217.21667515833335,41.0,68.0
815,216.61328376666668,217.96090390000003,60.0,88.0
816,217.2760477666667,218.01061120000003,56.0,70.0
817,217.60742976666668,218.01889575,53.0,52.0
818,218.60157576666668,219.4010348416667,48.0,60.0
819,218.2701937666667,219.80835855000004,43.0,47.0
820,217.9388117666667,219.84701978333337,36.0,58.0
821,218.9329577666667,219.98509561666668,55.0,53.0
822,219.59572176666668,220.0762256666667,48.0,56.0
823,219.2643397666667,220.51392605833337,63.0,99.0
824,219.9271037666667,220.59401004166668,60.0,72.0
825,220.2584857666667,220.62990975833335,55.0,57.0
826,221.5840137666667,221.8698307416667,58.0,45.0
827,221.2526317666667,222.00790657500002,55.0,54.0
828,220.9212497666667,222.09627510833334,50.0,59.0
829,222.2467777666667,222.64167465000003,50.0,59.0
830,220.58986776666669,222.67619360833336,43.0,66.0
831,222.9095417666667,223.18983570833336,55.0,53.0
832,222.5781597666667,223.21468935833335,58.0,86.0
833,221.9153957666667,223.22711618333335,62.0,95.0
834,223.90368776666668,224.18674322500001,60.0,76.0
835,224.2350697666667,224.4836062666667,67.0,66.0
836,224.2350697666667,224.5043176416667,63.0,88.0
837,223.5723057666667,224.69486229166668,55.0,59.0
838,224.89783376666668,225.2292157666667,55.0,95.0
839,223.2409237666667,225.28306534166668,48.0,74.0
840,224.5664517666667,225.30929975000004,63.0,100.0
841,225.2292157666667,225.80775350833335,60.0,112.0
842,225.5605977666667,225.82708412500003,63.0,127.0
843,224.5664517666667,225.835368675,67.0,93.0
844,226.5547437666667,227.36939118333336,53.0,72.0
845,226.88612576666668,227.66763498333336,60.0,67.0
846,226.2233617666667,227.7974262666667,48.0,57.0
847,227.5488897666667,227.80847233333336,53.0,67.0
848,225.89197976666668,227.83332598333337,41.0,88.0
849,227.88027176666668,228.54717804166668,65.0,83.0
850,227.2175077666667,228.55408183333336,68.0,122.0
851,228.2116537666667,228.6134544416667,60.0,71.0
852,229.2057997666667,229.95831305833335,48.0,58.0
853,229.5371817666667,230.10329268333336,55.0,62.0
854,228.87441776666668,230.40429800000004,43.0,40.0
855,228.5430357666667,230.43053240833336,36.0,69.0
856,229.86856376666668,230.56860824166668,63.0,102.0
857,230.1999457666667,230.6348846416667,48.0,66.0
858,230.5313277666667,230.94141299166668,60.0,99.0
859,230.86270976666668,231.1029617166667,55.0,55.0
860,231.1940917666667,233.46129695000002,50.0,63.0
861,231.1940917666667,233.48753135833337,43.0,54.0
862,231.1940917666667,233.6877413166667,62.0,67.0
863,231.1940917666667,233.72226027500002,55.0,64.0
864,231.1940917666667,233.74849468333335,58.0,65.0
865,237.3246587666667,237.8672967916667,72.0,59.0
866,237.6560407666667,237.96118835833337,75.0,57.0
867,237.9874227666667,238.04817613333336,79.0,68.0
868,235.8334397666667,239.91910367500003,63.0,62.0
869,236.8275857666667,239.91910367500003,63.0,42.0
870,235.8334397666667,240.0751293666667,43.0,52.0
871,237.1589677666667,240.07789088333337,67.0,44.0
872,235.8334397666667,240.09722150000002,48.0,48.0
873,235.8334397666667,240.1165521166667,36.0,57.0
874,235.8334397666667,240.2822431166667,55.0,59.0
875,235.8334397666667,240.29605070000002,60.0,62.0
876,236.6618947666667,240.29605070000002,60.0,66.0
877,238.9815687666667,242.63367455833335,91.0,58.0
878,238.6501867666667,242.63781683333337,87.0,44.0
879,239.4786417666667,242.72342385000002,96.0,62.0
880,238.3188047666667,242.72894688333335,84.0,73.0
