,start,end,pitch,velocity
0,8.374993858333333,8.885769345833333,68.0,61.0
1,8.374993858333333,8.887924516666667,58.0,61.0
2,8.374993858333333,8.905165883333334,60.0,66.0
3,8.374993858333333,8.911631395833334,63.0,69.0
4,9.409475858333334,9.918096175,68.0,58.0
5,9.409475858333334,9.935337541666668,60.0,66.0
6,9.409475858333334,9.935337541666668,63.0,70.0
7,9.409475858333334,9.959044420833333,58.0,63.0
8,8.374993858333333,9.974130616666667,44.0,63.0
9,9.926716858333334,10.0280098875,56.0,57.0
10,10.443957858333334,11.1400780375,58.0,64.0
11,10.443957858333334,11.163784916666668,63.0,66.0
12,10.443957858333334,11.174560770833335,67.0,64.0
13,10.443957858333334,11.7866292875,55.0,60.0
14,11.478439858333333,11.9418015875,67.0,70.0
15,11.478439858333333,12.004301541666667,63.0,69.0
16,11.478439858333333,12.008611883333334,58.0,69.0
17,10.443957858333334,12.103439400000001,43.0,66.0
18,12.512921858333334,12.894387095833334,53.0,59.0
19,12.512921858333334,13.096973154166667,56.0,60.0
20,12.512921858333334,13.096973154166667,60.0,67.0
21,12.512921858333334,13.120680033333334,65.0,61.0
22,13.288783358333333,13.7586106,53.0,30.0
23,13.547403858333334,14.047403491666667,63.0,61.0
24,13.547403858333334,14.161627545833333,60.0,69.0
25,13.547403858333334,14.193955108333334,56.0,64.0
26,13.547403858333334,14.247834379166667,65.0,61.0
27,12.512921858333334,14.290937795833333,41.0,61.0
28,14.323265358333334,14.607747908333334,48.0,63.0
29,14.581885858333333,15.346971504166667,60.0,75.0
30,14.581885858333333,15.353437016666668,56.0,69.0
31,14.581885858333333,15.362057700000001,65.0,64.0
32,15.357747358333334,15.799557379166668,51.0,31.0
33,15.616367858333334,16.1573157375,56.0,75.0
34,15.616367858333334,16.224126033333334,65.0,70.0
35,15.616367858333334,16.226281204166668,60.0,78.0
36,16.133608858333336,16.24567774166667,51.0,63.0
37,14.581885858333333,16.288781158333332,39.0,70.0
38,16.650849858333334,17.411625162500002,56.0,78.0
39,16.650849858333334,17.461194091666666,53.0,70.0
40,16.650849858333334,17.4633492625,61.0,78.0
41,16.650849858333334,17.969814408333335,49.0,58.0
42,17.685331858333335,18.278003837500002,61.0,75.0
43,16.650849858333334,18.293090033333335,37.0,62.0
44,17.685331858333335,18.293090033333335,53.0,66.0
45,17.685331858333335,18.293090033333335,56.0,78.0
46,18.202572858333333,18.364210670833334,49.0,60.0
47,18.719813858333335,19.5323132625,63.0,69.0
48,18.719813858333335,19.553864970833335,55.0,72.0
49,18.719813858333335,19.560330483333335,58.0,76.0
50,18.719813858333335,19.9848991375,51.0,61.0
51,19.754295858333332,20.29955407916667,55.0,76.0
52,19.754295858333332,20.321105787500002,63.0,76.0
53,19.754295858333332,20.336191983333332,58.0,85.0
54,20.271536858333334,20.342657495833333,51.0,59.0
55,18.719813858333335,20.396536766666667,39.0,70.0
56,20.788777858333333,21.267225783333334,44.0,50.0
57,20.788777858333333,21.48274286666667,58.0,66.0
58,20.788777858333333,21.506449745833333,51.0,66.0
59,20.788777858333333,21.521535941666667,60.0,75.0
60,20.788777858333333,21.579725554166668,56.0,70.0
61,21.564639358333334,22.18101821666667,44.0,39.0
62,21.823259858333333,22.372828420833333,51.0,61.0
63,21.823259858333333,22.394380129166667,56.0,62.0
64,20.788777858333333,22.439638716666668,32.0,58.0
65,21.823259858333333,22.443949058333335,60.0,64.0
66,22.340500858333336,22.592655845833335,44.0,44.0
67,22.857741858333334,23.002138304166667,65.0,58.0
68,22.857741858333334,23.144379579166667,68.0,70.0
69,22.857741858333334,23.19610367916667,73.0,76.0
70,23.116362358333333,23.36420700416667,49.0,35.0
71,22.857741858333334,23.418086275,37.0,72.0
72,23.116362358333333,23.495672425000002,65.0,59.0
73,23.374982858333333,23.685327458333333,68.0,64.0
74,23.633603358333335,23.758603266666668,73.0,70.0
75,23.892223858333335,24.219809825000002,51.0,62.0
76,23.892223858333335,24.282309779166667,75.0,75.0
77,23.892223858333335,24.293085633333334,70.0,72.0
78,23.892223858333335,24.4590337875,67.0,64.0
79,24.409464858333333,24.469809641666668,70.0,46.0
80,23.892223858333335,24.487051008333335,39.0,63.0
81,24.409464858333333,24.52153374166667,51.0,60.0
82,24.409464858333333,24.534464766666666,73.0,66.0
83,24.926705858333335,25.2736883625,72.0,67.0
84,24.926705858333335,25.280153875,70.0,59.0
85,24.926705858333335,25.2866193875,68.0,69.0
86,24.926705858333335,25.308171095833334,63.0,57.0
87,25.961187858333336,26.549549495833336,60.0,69.0
88,25.961187858333336,26.553859837500003,63.0,69.0
89,25.961187858333336,26.558170179166666,68.0,57.0
90,25.961187858333336,26.564635691666666,58.0,63.0
91,26.478428858333334,26.640066670833335,56.0,49.0
92,24.926705858333335,26.700411454166666,44.0,72.0
93,26.995669858333333,27.4654971,55.0,60.0
94,26.995669858333333,27.69610037916667,58.0,67.0
95,26.995669858333333,27.706876233333336,67.0,59.0
96,26.995669858333333,27.7564451625,63.0,67.0
97,27.771531358333334,28.159462108333333,55.0,48.0
98,28.030151858333333,28.3642033375,67.0,64.0
99,28.030151858333333,28.504289441666668,58.0,60.0
100,28.030151858333333,28.54308251666667,63.0,69.0
101,28.547392858333335,28.646530716666668,55.0,49.0
102,26.995669858333333,28.6551514,43.0,66.0
103,29.064633858333334,29.698254083333335,56.0,70.0
104,29.064633858333334,29.704719595833335,60.0,75.0
105,29.064633858333334,29.704719595833335,65.0,66.0
106,29.064633858333334,30.312477770833336,53.0,61.0
107,30.099115858333334,30.676701641666668,60.0,70.0
108,30.099115858333334,30.676701641666668,65.0,56.0
109,29.064633858333334,30.711184375000002,41.0,64.0
110,30.616356858333333,30.713339545833335,53.0,54.0
111,30.099115858333334,30.713339545833335,56.0,63.0
112,31.133597858333335,31.840493891666668,60.0,69.0
113,31.133597858333335,31.851269745833335,56.0,69.0
114,31.133597858333335,31.8555800875,65.0,64.0
115,31.133597858333335,32.31032113333333,51.0,62.0
116,32.168079858333336,32.73920012916667,60.0,72.0
117,32.168079858333336,32.7478208125,56.0,67.0
118,32.168079858333336,32.762907008333336,65.0,70.0
119,32.685320858333334,32.799544912500004,51.0,62.0
120,31.133597858333335,32.82756213333334,39.0,66.0
121,33.20256185833333,33.70902700416667,49.0,69.0
122,33.20256185833333,33.94825096666667,56.0,69.0
123,33.20256185833333,33.98057852916667,65.0,69.0
124,33.20256185833333,34.002130237500005,61.0,75.0
125,33.97842335833334,34.6034229,49.0,40.0
126,34.23704385833334,34.83833652083334,65.0,66.0
127,34.23704385833334,34.86635374166667,61.0,76.0
128,34.23704385833334,34.868508912500005,56.0,73.0
129,33.20256185833333,34.8943709625,37.0,73.0
130,34.754284858333335,34.90945715833333,49.0,53.0
131,35.271525858333334,35.961180525,58.0,70.0
132,35.271525858333334,35.987042575000004,55.0,67.0
133,35.271525858333334,36.081870091666666,63.0,70.0
134,35.271525858333334,36.87497295833334,39.0,73.0
135,36.30600785833334,36.879283300000004,58.0,62.0
136,36.30600785833334,36.91376603333333,55.0,60.0
137,36.30600785833334,36.922386716666665,63.0,60.0
138,36.04738735833333,36.943938425,51.0,36.0
139,37.340489858333335,40.435315175,41.0,61.0
140,37.340489858333335,40.435315175,53.0,61.0
141,37.340489858333335,40.435315175,56.0,61.0
142,37.340489858333335,40.435315175,60.0,67.0
143,37.340489858333335,40.435315175,65.0,57.0
144,40.44393585833333,41.47841785833334,39.0,64.0
145,40.44393585833333,41.47841785833334,51.0,60.0
146,40.44393585833333,41.47841785833334,55.0,67.0
147,40.44393585833333,41.47841785833334,58.0,69.0
148,40.44393585833333,41.47841785833334,63.0,66.0
149,41.47841785833334,42.06246915416667,72.0,72.0
150,41.47841785833334,42.07971052083334,68.0,70.0
151,41.47841785833334,42.10126222916667,63.0,69.0
152,42.512899858333334,43.09048564166667,72.0,61.0
153,42.512899858333334,43.1960890125,63.0,56.0
154,42.512899858333334,43.24996828333334,68.0,61.0
155,41.47841785833334,43.76936445416667,56.0,54.0
156,43.54738185833334,44.12281247083334,63.0,58.0
157,43.54738185833334,44.14867452083333,68.0,58.0
158,43.54738185833334,44.1659158875,72.0,54.0
159,44.06462285833334,44.758587866666666,56.0,51.0
160,41.47841785833334,44.86850157916667,44.0,58.0
161,44.581863858333335,45.13358759166667,72.0,54.0
162,44.581863858333335,45.144363445833335,68.0,52.0
163,44.581863858333335,45.150828958333335,63.0,53.0
164,45.099104858333334,45.6723803,56.0,66.0
165,45.61634585833333,46.254276425,67.0,70.0
166,45.61634585833333,46.2607419375,63.0,64.0
167,45.61634585833333,46.2930695,70.0,70.0
168,45.61634585833333,47.02798275416667,55.0,66.0
169,46.65082785833334,47.28660325416667,70.0,54.0
170,46.65082785833334,47.31893081666667,63.0,54.0
171,46.65082785833334,47.325396329166665,67.0,51.0
172,47.68530985833333,48.471947212500005,67.0,44.0
173,47.68530985833333,48.4848782375,63.0,45.0
174,47.68530985833333,48.4978092625,70.0,51.0
175,47.168068858333335,48.81677454583333,55.0,53.0
176,48.71979185833334,49.02367094583334,63.0,67.0
177,48.71979185833334,49.03229162916667,70.0,72.0
178,48.71979185833334,49.04522265416667,67.0,69.0
179,48.97841235833334,49.4029810125,55.0,66.0
180,49.237032858333336,49.47194647916667,63.0,60.0
181,49.237032858333336,49.495653358333335,67.0,48.0
182,49.495653358333335,49.7262566375,70.0,62.0
183,49.754273858333335,50.47194574583334,65.0,67.0
184,49.754273858333335,50.48056642916667,63.0,66.0
185,49.754273858333335,50.502118137500005,68.0,72.0
186,50.78875585833334,51.303841687500004,65.0,64.0
187,50.78875585833334,51.316772712500004,63.0,60.0
188,50.78875585833334,51.33832442083334,68.0,63.0
189,49.754273858333335,51.35125544583334,49.0,76.0
190,51.30599685833334,51.418065741666666,61.0,33.0
191,51.823237858333336,52.56030628333333,70.0,67.0
192,51.823237858333336,52.57323730833333,67.0,70.0
193,51.823237858333336,52.59478901666667,63.0,66.0
194,51.823237858333336,53.17452997083333,58.0,66.0
195,52.85771985833333,53.372805687500005,70.0,60.0
196,52.85771985833333,53.37496085833334,63.0,57.0
197,52.85771985833333,53.37496085833334,67.0,61.0
198,53.37496085833334,53.4633228625,58.0,64.0
199,51.823237858333336,53.50642627916667,51.0,63.0
200,53.89220185833334,54.6141840875,72.0,69.0
201,53.89220185833334,54.61633925833333,68.0,70.0
202,53.89220185833334,54.63142545416667,63.0,67.0
203,53.89220185833334,55.15944230833333,56.0,66.0
204,54.926683858333334,55.452545541666666,72.0,66.0
205,54.926683858333334,55.502114470833334,68.0,70.0
206,54.926683858333334,55.51720066666667,63.0,64.0
207,53.89220185833334,55.527976520833334,44.0,64.0
208,55.44392485833333,55.599097158333336,56.0,66.0
209,55.96116585833334,56.4633206625,73.0,69.0
210,55.96116585833334,56.49995856666667,65.0,67.0
211,55.96116585833334,56.50426890833334,41.0,58.0
212,55.96116585833334,56.50642407916667,53.0,54.0
213,55.96116585833334,56.52366544583334,70.0,69.0
214,56.995647858333335,57.6400439375,67.0,69.0
215,56.995647858333335,57.65081979166667,70.0,64.0
216,56.995647858333335,57.685302525000004,63.0,61.0
217,56.995647858333335,57.70038872083334,43.0,72.0
218,56.995647858333335,57.73271628333334,55.0,61.0
219,56.995647858333335,57.747802479166666,75.0,58.0
220,58.03012985833334,58.64435354583333,68.0,58.0
221,58.03012985833334,58.6745259375,72.0,60.0
222,58.03012985833334,58.67883627916667,63.0,58.0
223,58.03012985833334,58.741336233333335,70.0,59.0
224,59.064611858333336,59.6702148625,68.0,60.0
225,59.064611858333336,59.70038725416667,72.0,57.0
226,59.064611858333336,59.71116310833334,63.0,52.0
227,59.064611858333336,59.73055964583334,70.0,58.0
228,58.03012985833334,60.52150734166667,56.0,59.0
229,60.09909385833333,60.56030041666667,63.0,53.0
230,58.03012985833334,60.60340383333334,44.0,60.0
231,60.62495554166667,60.85124847916667,63.0,51.0
232,60.09909385833333,60.88142087083334,72.0,50.0
233,60.09909385833333,60.89435189583334,70.0,48.0
234,60.09909385833333,60.90081740833334,68.0,56.0
235,60.859869162500004,61.11633449166667,65.0,48.0
236,61.11202415,61.415903237500004,73.0,67.0
237,61.12926551666667,61.474092850000005,63.0,56.0
238,61.39219635833334,61.6034031,56.0,61.0
239,60.87495535833334,61.6098686125,44.0,58.0
240,61.34909294166667,61.637885833333335,72.0,58.0
241,61.618489295833335,61.8943511625,68.0,62.0
242,61.8620236,62.1206441,72.0,53.0
243,62.168057858333334,62.97624692083333,63.0,67.0
244,62.168057858333334,62.99133311666667,67.0,70.0
245,62.168057858333334,62.99133311666667,70.0,62.0
246,63.20253985833334,63.8727979875,63.0,51.0
247,63.20253985833334,63.926677258333335,70.0,58.0
248,63.20253985833334,63.93529794166667,67.0,57.0
249,63.20253985833334,63.96115999166667,75.0,52.0
250,62.168057858333334,64.65296982916666,55.0,75.0
251,64.23702185833334,64.99564199166667,63.0,46.0
252,64.23702185833334,65.05814194583334,67.0,51.0
253,64.23702185833334,65.07969365416668,70.0,50.0
254,64.23702185833334,65.07969365416668,75.0,42.0
255,65.01288335833334,65.34477966666667,55.0,45.0
256,65.27150385833333,65.53874504166667,63.0,60.0
257,65.27150385833333,65.57753811666667,67.0,63.0
258,65.27150385833333,65.57753811666667,70.0,62.0
259,65.27150385833333,65.57753811666667,75.0,56.0
260,65.53012435833334,65.7865896875,55.0,61.0
261,65.78874485833333,65.85986549583333,67.0,39.0
262,62.168057858333334,65.9158999375,43.0,80.0
263,65.78874485833333,66.05598604166667,63.0,55.0
264,66.04736535833334,66.19822731666667,75.0,62.0
265,66.30598585833333,66.94822676666666,65.0,63.0
266,66.30598585833333,66.9633129625,68.0,69.0
267,66.30598585833333,66.969778475,73.0,61.0
268,67.08184735833333,67.71546758333334,61.0,21.0
269,67.34046785833334,67.849088175,73.0,55.0
270,67.34046785833334,67.87063988333334,68.0,64.0
271,67.34046785833334,67.87926056666667,65.0,62.0
272,66.30598585833333,67.95684671666667,49.0,67.0
273,67.85770885833334,67.96762257083334,61.0,46.0
274,68.37494985833334,69.02796662083334,67.0,66.0
275,68.37494985833334,69.08615623333334,70.0,56.0
276,68.37494985833334,69.09262174583334,63.0,55.0
277,68.37494985833334,69.69391440833334,51.0,52.0
278,69.40943185833333,69.95684525,67.0,70.0
279,69.40943185833333,69.9762417875,70.0,64.0
280,69.40943185833333,69.9827073,63.0,66.0
281,68.37494985833334,69.99348315416667,39.0,61.0
282,69.92667285833333,70.0667589625,51.0,56.0
283,70.44391385833333,71.25856843333334,65.0,70.0
284,70.44391385833333,71.2822753125,72.0,70.0
285,70.44391385833333,71.28443048333334,70.0,70.0
286,70.44391385833333,71.6314129875,53.0,72.0
287,71.47839585833334,72.02580925000001,70.0,69.0
288,70.44391385833333,72.03442993333334,41.0,72.0
289,71.47839585833334,72.04305061666668,72.0,69.0
290,71.47839585833334,72.05382647083334,65.0,66.0
291,71.99563685833334,72.116326425,53.0,70.0
292,72.51287785833334,73.01072232083334,53.0,50.0
293,72.51287785833334,73.21546355000001,65.0,67.0
294,72.51287785833334,73.228394575,75.0,66.0
295,72.51287785833334,73.23701525833333,69.0,70.0
296,72.51287785833334,73.23701525833333,72.0,64.0
297,73.54735985833334,73.81891138333333,75.0,70.0
298,73.54735985833334,73.83399757916666,65.0,67.0
299,73.28873935833333,73.926669925,53.0,36.0
300,73.54735985833334,73.95037680416667,72.0,67.0
301,73.54735985833334,73.96115265833333,69.0,72.0
302,72.51287785833334,74.21977315833334,41.0,64.0
303,74.06460085833334,74.23916969583334,53.0,61.0
304,74.06460085833334,74.24563520833334,65.0,66.0
305,74.06460085833334,74.26072140416667,69.0,67.0
306,74.06460085833334,74.28873862500001,77.0,72.0
307,74.58184185833333,75.43097916666667,63.0,69.0
308,74.58184185833333,75.44606536250001,68.0,70.0
309,74.58184185833333,75.44606536250001,72.0,72.0
310,74.58184185833333,75.87494435833334,56.0,63.0
311,74.58184185833333,76.20684066666666,44.0,66.0
312,75.61632385833333,76.22408203333333,72.0,73.0
313,75.61632385833333,76.22623720416667,68.0,75.0
314,75.61632385833333,76.23916822916667,63.0,69.0
315,76.13356485833333,76.254254425,56.0,69.0
316,76.65080585833334,77.32321915833333,67.0,72.0
317,76.65080585833334,77.3727880875,63.0,67.0
318,76.65080585833334,77.418046675,70.0,69.0
319,76.65080585833334,77.95899455416667,55.0,70.0
320,76.65080585833334,78.01718416666667,43.0,75.0
321,77.68528785833334,78.27364949583334,63.0,63.0
322,77.68528785833334,78.28442535,67.0,72.0
323,77.68528785833334,78.32106325416667,70.0,63.0
324,78.20252885833334,78.32537359583334,55.0,59.0
325,78.20252885833334,78.36632184166668,43.0,70.0
326,78.71976985833334,79.45252794166667,63.0,67.0
327,78.71976985833334,79.461148625,72.0,73.0
328,78.71976985833334,79.47838999166667,68.0,73.0
329,78.71976985833334,80.0107171875,53.0,66.0
330,78.71976985833334,80.05166543333334,41.0,67.0
331,80.27149285833333,80.38356174166667,53.0,58.0
332,79.75425185833333,80.38356174166667,63.0,62.0
333,79.75425185833333,80.4115789625,72.0,63.0
334,79.75425185833333,80.41588930416667,68.0,67.0
335,80.27149285833333,80.44606169583334,41.0,58.0
336,80.78873385833333,81.4201989125,72.0,73.0
337,80.78873385833333,81.478388525,63.0,72.0
338,80.78873385833333,81.52149194166667,68.0,73.0
339,80.78873385833333,81.80597449166667,51.0,32.0
340,80.78873385833333,81.89649166666668,39.0,46.0
341,81.82321585833334,82.31890515,72.0,73.0
342,81.82321585833334,82.35554305416667,68.0,75.0
343,81.82321585833334,82.37062925000001,63.0,70.0
344,82.34045685833334,82.42235335000001,51.0,60.0
345,82.34045685833334,82.47407745000001,39.0,73.0
346,82.85769785833334,83.47407671666667,49.0,69.0
347,82.85769785833334,83.6701972625,68.0,70.0
348,82.85769785833334,83.71330067916666,65.0,70.0
349,82.85769785833334,83.7413179,73.0,72.0
350,83.63355935833334,84.0581280125,49.0,55.0
351,83.89217985833334,84.4460587625,73.0,75.0
352,83.89217985833334,84.46330012916667,68.0,76.0
353,83.89217985833334,84.46976564166667,65.0,75.0
354,82.85769785833334,84.52148974166667,37.0,70.0
355,84.40942085833333,84.56674832916667,49.0,52.0
356,84.92666185833333,85.40510978333333,49.0,66.0
357,84.92666185833333,85.65079925833334,37.0,69.0
358,84.92666185833333,85.67666130833334,67.0,69.0
359,84.92666185833333,85.68097165,63.0,61.0
360,84.92666185833333,85.68097165,70.0,67.0
361,84.92666185833333,85.70252335833334,75.0,59.0
362,85.70252335833334,85.84907497500001,49.0,58.0
363,85.96114385833333,86.32967807083334,51.0,67.0
364,85.96114385833333,86.50424690833334,67.0,72.0
365,85.96114385833333,86.50424690833334,75.0,57.0
366,85.96114385833333,86.5538158375,39.0,64.0
367,85.96114385833333,86.55812617916666,70.0,73.0
368,85.96114385833333,86.56890203333333,63.0,64.0
369,86.47838485833334,86.59045374166666,51.0,70.0
370,86.99562585833334,87.63140125416668,72.0,64.0
371,86.99562585833334,87.68959086666668,68.0,67.0
372,86.99562585833334,87.79950457916667,63.0,63.0
373,86.99562585833334,87.82536662916667,70.0,58.0
374,88.03010785833334,88.27795250416666,70.0,47.0
375,86.99562585833334,88.29088352916666,56.0,59.0
376,88.03010785833334,88.64648671666667,72.0,67.0
377,88.03010785833334,88.65079705833334,68.0,64.0
378,88.03010785833334,88.6615729125,63.0,61.0
379,86.99562585833334,88.926658925,44.0,72.0
380,88.80596935833334,88.94174512083333,63.0,48.0
381,88.54734885833334,88.9848485375,56.0,55.0
382,89.06458985833333,89.59045154166667,51.0,61.0
383,89.06458985833333,89.8447617,63.0,62.0
384,89.06458985833333,89.8447617,73.0,67.0
385,89.06458985833333,89.84907204166667,70.0,67.0
386,89.06458985833333,89.85338238333334,67.0,69.0
387,89.84045135833334,90.297347575,51.0,43.0
388,89.06458985833333,90.6723473,39.0,61.0
389,90.09907185833333,90.6917438375,70.0,70.0
390,90.09907185833333,90.7046748625,63.0,62.0
391,90.09907185833333,90.71329554583333,67.0,69.0
392,90.09907185833333,90.73269208333333,73.0,69.0
393,90.61631285833333,90.74562310833333,51.0,85.0
394,91.13355385833334,91.849070575,72.0,67.0
395,91.13355385833334,91.87924296666667,68.0,67.0
396,91.13355385833334,91.8943291625,63.0,62.0
397,91.13355385833334,91.90294984583333,70.0,62.0
398,91.13355385833334,92.38139777083333,56.0,60.0
399,91.13355385833334,92.72622510416667,44.0,70.0
400,92.16803585833334,92.75855266666667,72.0,67.0
401,92.16803585833334,92.76286300833334,68.0,69.0
402,92.16803585833334,92.78441471666667,70.0,66.0
403,92.16803585833334,92.78872505833334,63.0,66.0
404,92.68527685833334,93.02579385,56.0,62.0
405,93.20251785833334,93.73268988333334,63.0,64.0
406,93.20251785833334,93.79087949583334,67.0,70.0
407,93.20251785833334,93.81889671666667,70.0,70.0
408,93.97837935833334,94.099068925,63.0,38.0
409,93.71975885833334,94.62277543750001,55.0,29.0
410,94.23699985833333,95.04518892083334,63.0,67.0
411,94.23699985833333,95.0624302875,70.0,70.0
412,94.23699985833333,95.06674062916667,67.0,73.0
413,95.01286135833334,95.08398199583334,55.0,70.0
414,93.20251785833334,95.17234400000001,43.0,67.0
415,95.27148185833333,95.78872285833334,53.0,51.0
416,95.27148185833333,95.99130891666667,72.0,69.0
417,95.27148185833333,96.012860625,68.0,72.0
418,95.27148185833333,96.038722675,63.0,64.0
419,96.04734335833334,96.54087747916667,53.0,42.0
420,96.30596385833334,96.90079100833334,72.0,69.0
421,96.30596385833334,96.91372203333334,63.0,67.0
422,96.30596385833334,96.91372203333334,68.0,73.0
423,95.27148185833333,96.9762219875,41.0,59.0
424,96.82320485833334,96.9826875,53.0,58.0
425,97.08182535833333,97.20035975416667,63.0,42.0
426,97.34044585833334,97.83613515,51.0,61.0
427,97.34044585833334,98.03872120833334,72.0,66.0
428,97.34044585833334,98.10122116250001,63.0,69.0
429,97.34044585833334,98.11199701666668,68.0,69.0
430,98.11630735833334,98.4632898625,51.0,49.0
431,98.37492785833334,98.6960483125,72.0,70.0
432,98.37492785833334,98.71760002083333,63.0,70.0
433,98.37492785833334,98.7219103625,68.0,73.0
434,97.34044585833334,98.805962025,39.0,76.0
435,98.63354835833334,98.88570334583333,51.0,57.0
436,98.89216885833333,99.0969100875,63.0,58.0
437,99.15078935833334,99.297340975,68.0,64.0
438,99.15078935833334,99.310272,72.0,57.0
439,99.40940985833333,100.30811609583334,73.0,67.0
440,99.40940985833333,100.35337468333334,65.0,69.0
441,99.40940985833333,100.38570224583334,68.0,66.0
442,99.40940985833333,100.7585468,61.0,72.0
443,99.40940985833333,100.82535709583334,49.0,60.0
444,100.44389185833333,101.01285695833333,73.0,73.0
445,100.96113285833334,101.030098325,61.0,49.0
446,100.44389185833333,101.03871900833333,68.0,73.0
447,100.44389185833333,101.05165003333333,65.0,75.0
448,100.96113285833334,101.0753569125,49.0,70.0
449,101.47837385833334,102.3167353125,67.0,72.0
450,101.47837385833334,102.36630424166667,70.0,70.0
451,101.47837385833334,102.37276975416667,63.0,67.0
452,101.47837385833334,102.73483845416668,51.0,67.0
453,101.47837385833334,103.02363134583334,39.0,72.0
454,102.51285585833334,103.04949339583334,67.0,66.0
455,102.51285585833334,103.05811407916667,70.0,72.0
456,102.51285585833334,103.07535544583334,63.0,67.0
457,103.03009685833334,103.14216574166667,51.0,47.0
458,103.54733785833334,104.23268218333334,68.0,67.0
459,103.54733785833334,104.236992525,72.0,60.0
460,103.54733785833334,104.35552692083334,63.0,63.0
461,104.84044035833334,105.16371598333333,63.0,33.0
462,105.61630185833334,106.228370375,68.0,37.0
463,105.61630185833334,106.228370375,72.0,39.0
464,105.61630185833334,106.28440481666667,63.0,35.0
465,103.54733785833334,106.39216335833333,53.0,70.0
466,103.54733785833334,106.4158702375,41.0,72.0
467,107.68526585833334,108.30811022916667,75.0,59.0
468,107.68526585833334,108.37276535416667,72.0,40.0
469,108.71974785833333,109.09474758333334,68.0,43.0
470,107.68526585833334,109.25638539583333,56.0,56.0
471,108.71974785833333,109.25854056666667,72.0,42.0
472,108.71974785833333,109.27147159166667,75.0,54.0
473,108.20250685833334,109.280092275,63.0,28.0
474,107.68526585833334,109.30164398333334,80.0,54.0
475,109.75422985833333,110.3598328625,70.0,51.0
476,109.75422985833333,110.36414320416667,75.0,57.0
477,110.27147085833334,111.14431504583334,63.0,36.0
478,110.78871185833334,111.18310812083334,67.0,43.0
479,109.75422985833333,111.31672871250001,55.0,62.0
480,110.78871185833334,111.32750456666668,75.0,56.0
481,110.78871185833334,111.33612525000001,70.0,40.0
482,111.82319385833334,112.46112442500001,75.0,62.0
483,111.82319385833334,112.47190027916668,72.0,53.0
484,111.82319385833334,112.53440023333334,80.0,58.0
485,112.34043485833334,113.18957216666666,60.0,34.0
486,112.85767585833334,113.35552032083334,65.0,46.0
487,112.85767585833334,113.3856927125,75.0,58.0
488,112.85767585833334,113.443882325,72.0,44.0
489,112.85767585833334,113.45465817916667,80.0,41.0
490,111.82319385833334,113.4826754,53.0,58.0
491,113.89215785833333,114.4718988125,70.0,49.0
492,113.89215785833333,114.52577808333334,75.0,59.0
493,114.92663985833333,115.13569142916667,75.0,31.0
494,114.92663985833333,115.2736223625,80.0,54.0
495,114.92663985833333,115.38569124583334,72.0,48.0
496,114.92663985833333,115.39000158750001,63.0,43.0
497,114.40939885833333,115.39862227083334,60.0,39.0
498,113.89215785833333,115.42663949166668,51.0,59.0
499,115.44388085833334,115.55379457083333,77.0,62.0
500,115.96112185833334,116.288707825,77.0,60.0
501,115.96112185833334,116.31241470416667,73.0,61.0
502,115.96112185833334,116.3727594875,68.0,53.0
503,116.99560385833334,117.4201725125,73.0,61.0
504,116.99560385833334,117.478362125,65.0,59.0
505,115.96112185833334,117.49129315,49.0,64.0
506,116.99560385833334,117.49344832083334,61.0,55.0
507,116.99560385833334,117.49344832083334,68.0,63.0
508,116.47836285833334,117.51284485833334,56.0,39.0
509,118.03008585833334,118.56025788333334,63.0,54.0
510,118.03008585833334,118.56025788333334,70.0,53.0
511,118.03008585833334,118.57749925,67.0,59.0
512,118.03008585833334,119.51499856250001,51.0,63.0
513,119.06456785833333,119.53008475833335,67.0,51.0
514,119.06456785833333,119.56025715,70.0,59.0
515,119.06456785833333,119.56887783333333,63.0,52.0
516,118.54732685833334,119.57749851666667,58.0,40.0
517,120.09904985833334,120.43094616666667,68.0,58.0
518,120.09904985833334,120.47404958333334,72.0,58.0
519,120.61629085833334,121.3382730875,63.0,37.0
520,121.13353185833334,121.60551427083334,75.0,60.0
521,121.13353185833334,121.616290125,70.0,57.0
522,121.13353185833334,121.63784183333334,68.0,38.0
523,120.09904985833334,121.6550832,56.0,63.0
524,121.65077285833334,121.73051417916668,72.0,60.0
525,122.16801385833334,122.85551335416667,39.0,72.0
526,122.16801385833334,122.90077194166668,51.0,60.0
527,122.16801385833334,122.90723745416668,67.0,85.0
528,122.16801385833334,122.90723745416668,70.0,75.0
529,122.16801385833334,122.95680638333334,63.0,75.0
530,123.20249585833334,123.814564375,63.0,66.0
531,123.20249585833334,123.81887471666667,67.0,73.0
532,123.20249585833334,123.8210298875,55.0,62.0
533,123.20249585833334,123.8210298875,70.0,73.0
534,123.20249585833334,123.8339609125,43.0,64.0
535,123.20249585833334,124.05378833750001,75.0,66.0
536,124.23697785833333,124.70464992916668,44.0,75.0
537,124.49559835833334,124.76283954166666,51.0,61.0
538,124.75421885833333,125.07964965416667,56.0,59.0
539,124.23697785833333,125.31887361666668,68.0,73.0
540,124.23697785833333,125.32102878750001,63.0,69.0
541,124.23697785833333,125.3274943,72.0,70.0
542,125.27145985833334,125.5667182625,60.0,67.0
543,125.01283935833334,125.59473548333334,58.0,56.0
544,125.53008035833334,125.71111470833334,63.0,88.0
545,125.78870085833334,125.86844217916668,63.0,42.0
546,125.78870085833334,125.98482140416667,68.0,66.0
547,126.04732135833333,126.33180390833334,72.0,63.0
548,126.30594185833334,126.75421739166667,63.0,67.0
549,126.30594185833334,126.79085529583334,67.0,91.0
550,126.30594185833334,126.84473456666667,70.0,70.0
551,127.08180335833333,127.241286,63.0,53.0
552,127.34042385833334,127.48697547500001,67.0,46.0
553,126.82318285833334,127.67232016666667,55.0,75.0
554,126.56456235833333,127.9589578875,51.0,47.0
555,127.59904435833334,127.96326822916667,63.0,91.0
556,127.85766485833334,127.98266476666667,55.0,69.0
557,127.59904435833334,128.0171475,67.0,75.0
558,127.59904435833334,128.0365440375,75.0,76.0
559,126.30594185833334,128.04300955,43.0,78.0
560,128.11628535833333,128.23266458333333,63.0,48.0
561,128.37490585833334,128.61197465,41.0,75.0
562,128.63352635833334,128.92878476250002,53.0,70.0
563,128.37490585833334,129.1615432125,68.0,73.0
564,128.37490585833334,129.1744742375,72.0,70.0
565,128.37490585833334,129.25637072916666,63.0,75.0
566,129.40938785833333,129.61197391666667,63.0,72.0
567,129.66800835833334,129.72835314166667,63.0,37.0
568,129.15076735833333,129.8080944625,56.0,73.0
569,129.66800835833334,129.83826685416668,68.0,70.0
570,128.89214685833335,129.8792151,55.0,52.0
571,129.92662885833334,130.20033555416668,70.0,63.0
572,130.18524935833335,130.35335268333333,72.0,63.0
573,130.44386985833333,130.771455825,51.0,62.0
574,130.44386985833333,130.89861090416667,63.0,67.0
575,130.44386985833333,130.9072315875,70.0,73.0
576,130.44386985833333,130.91800744166667,67.0,70.0
577,130.44386985833333,130.94171432083334,39.0,66.0
578,130.96111085833334,131.06455905833334,51.0,64.0
579,131.49990356666666,132.44817873333335,72.0,71.0
580,131.49990356666666,132.45248907500002,63.0,63.0
581,131.51283459166666,132.46326492916668,56.0,63.0
582,131.49990356666666,132.46757527083335,44.0,59.0
583,131.49128288333333,132.49559249166668,66.0,67.0
584,132.51283385833335,132.76067850416666,37.0,73.0
585,132.77145435833333,133.0796437875,49.0,57.0
586,132.51283385833335,133.26929882083334,73.0,28.0
587,132.51283385833335,133.305936725,61.0,67.0
588,132.51283385833335,133.36197116666668,65.0,73.0
589,132.51283385833335,133.3770573625,68.0,73.0
590,133.54731585833335,133.69602264583335,61.0,66.0
591,133.28869535833334,133.88352250833333,56.0,53.0
592,133.80593635833333,134.09041890833333,61.0,76.0
593,133.80593635833333,134.133522325,65.0,80.0
594,133.80593635833333,134.15076369166667,68.0,85.0
595,133.03007485833334,134.16369471666667,53.0,64.0
596,134.06455685833333,134.18740159583334,56.0,67.0
597,134.32317735833334,134.4309359,61.0,63.0
598,134.58179785833335,135.01498719583333,63.0,76.0
599,134.58179785833335,135.05593544166666,70.0,72.0
600,134.58179785833335,135.12705607916666,67.0,76.0
601,135.35765935833334,135.517142,63.0,48.0
602,135.09903885833333,136.02145197500002,58.0,59.0
603,134.58179785833335,136.1895553,51.0,80.0
604,135.87490035833335,136.1895553,70.0,72.0
605,135.87490035833335,136.20679666666666,63.0,70.0
606,136.13352085833333,136.24558974166666,58.0,64.0
607,136.65076185833334,137.48481297083333,68.0,73.0
608,136.65076185833334,137.48696814166667,63.0,69.0
609,136.65076185833334,137.53007155833333,72.0,69.0
610,137.68524385833334,138.04300221666668,63.0,45.0
611,137.94386435833334,138.11412285416668,68.0,57.0
612,138.20248485833335,138.39860540416666,70.0,63.0
613,136.65076185833334,138.55162253333333,60.0,72.0
614,138.46110535833333,138.6270535125,72.0,52.0
615,138.71972585833333,139.39860467083335,68.0,42.0
616,138.71972585833333,139.47188047916669,63.0,36.0
617,138.71972585833333,139.84041469166667,75.0,48.0
618,138.71972585833333,140.02575938333334,60.0,50.0
619,136.65076185833334,140.08394899583334,53.0,69.0
620,139.75420785833333,140.2951557375,68.0,67.0
621,140.27144885833334,140.77144849166666,79.0,62.0
622,140.78868985833333,141.37920666666668,80.0,66.0
623,141.82317185833332,142.46541276666667,73.0,61.0
624,141.82317185833332,142.56670579583334,68.0,44.0
625,141.82317185833332,142.616274725,61.0,51.0
626,140.78868985833333,142.62705057916668,49.0,61.0
627,141.30593085833334,142.68955053333335,56.0,42.0
628,142.59903335833334,142.81024010000002,77.0,70.0
629,143.11627435833333,143.68739462916668,70.0,54.0
630,143.11627435833333,143.71541185,75.0,69.0
631,144.40937685833333,144.7757559,70.0,48.0
632,144.40937685833333,145.44601402916666,67.0,63.0
633,144.40937685833333,145.45894505416666,73.0,64.0
634,144.40937685833333,145.67661730833333,63.0,51.0
635,143.63351535833334,145.8942895625,58.0,41.0
636,143.11627435833333,145.9072205875,51.0,63.0
637,145.44385885833333,146.57532354583333,70.0,64.0
638,148.54730485833335,148.93954595,72.0,59.0
639,148.54730485833335,148.94816663333333,68.0,47.0
640,148.54730485833335,149.06454585833333,63.0,38.0
641,149.32316635833334,149.51928690416668,61.0,57.0
642,149.58178685833334,149.6572178375,63.0,51.0
643,149.84040735833335,149.99126931666666,68.0,50.0
644,150.09902785833333,150.27359669583333,73.0,55.0
645,150.35764835833334,150.452475875,75.0,60.0
646,150.61626885833334,150.75851013333335,80.0,50.0
647,151.13350985833333,151.26282010833333,85.0,47.0
648,151.39213035833333,151.5063544125,87.0,53.0
649,152.16799185833335,152.3598020625,92.0,52.0
650,149.06454585833333,153.37057718333335,56.0,61.0
651,152.94385335833334,153.37057718333335,56.0,46.0
652,148.80592535833333,153.4136806,51.0,44.0
653,152.94385335833334,153.4136806,51.0,63.0
654,148.54730485833335,153.59040460833333,44.0,50.0
655,152.68523285833334,153.59040460833333,44.0,67.0
656,152.68523285833334,154.64643831666666,48.0,62.0
