,start,end,pitch,velocity
0,2.8107593916666667,3.0104118499999997,58.0,122.0
1,3.0190923916666663,3.1961754416666666,60.0,85.0
2,3.2274253916666664,3.470480558333333,63.0,100.0
3,3.4357583916666665,3.61457755,60.0,100.0
4,3.6440913916666666,5.772560208333333,63.0,127.0
5,6.144087391666666,6.335059308333333,58.0,117.0
6,6.352420391666667,6.605892208333333,60.0,90.0
7,6.560753391666666,6.743044766666666,63.0,107.0
8,6.769086391666666,7.019085991666667,60.0,97.0
9,6.9774193916666665,9.076374366666666,67.0,112.0
10,9.060749391666667,9.336790616666667,72.0,107.0
11,9.269082391666666,9.550331941666666,70.0,112.0
12,9.685748391666666,10.105886608333332,65.0,100.0
13,10.102414391666667,10.30206685,63.0,112.0
14,11.977411391666665,12.121508383333333,67.0,112.0
15,10.310747391666666,12.350674683333333,65.0,95.0
16,12.185744391666667,12.406230149999999,70.0,127.0
17,12.602410391666666,12.824632258333333,70.0,127.0
18,13.019076391666665,13.310742591666665,65.0,99.0
19,13.435742391666667,13.645811499999999,63.0,99.0
20,14.685740391666666,15.081573091666666,53.0,81.0
21,13.644075391666666,15.276017224999999,60.0,97.0
22,15.102406391666666,15.354142099999999,51.0,75.0
23,15.310739391666665,16.850667483333332,48.0,82.0
24,47.39402139166666,47.775965225,70.0,58.0
25,47.81068739166666,48.2082562,74.0,75.0
26,48.22735339166667,48.70131096666667,70.0,67.0
27,48.64401939166667,49.76728148333333,77.0,75.0
28,51.56068139166666,51.826305966666666,70.0,86.0
29,51.769014391666666,52.001652908333334,72.0,74.0
30,51.97734739166666,52.821096041666664,75.0,93.0
31,54.060677391666665,54.492968366666666,67.0,90.0
32,54.477343391666665,54.87838441666666,70.0,100.0
33,54.894009391666664,55.32456425833333,72.0,72.0
34,55.31067539166666,56.166576799999994,67.0,54.0
35,61.56066539166667,62.00163690833333,70.0,89.0
36,61.97733139166667,62.393997391666666,74.0,93.0
37,62.393997391666666,63.25337101666666,70.0,64.0
38,64.89399339166667,65.150937425,70.0,77.0
39,65.10232639166667,65.3332288,72.0,72.0
40,65.31065939166666,66.73774044166666,75.0,95.0
41,67.39398939166666,67.81412760833334,79.0,96.0
42,67.81065539166666,68.25162690833334,75.0,79.0
43,68.22732139166666,69.31586131666667,72.0,75.0
44,93.64394739166666,93.848808175,74.0,70.0
45,93.64394739166666,93.86269704166666,77.0,68.0
46,93.64394739166666,93.87137758333333,70.0,97.0
47,94.06061339166666,94.32450185833333,77.0,58.0
48,94.06061339166666,94.37137678333333,70.0,81.0
49,94.06061339166666,94.37137678333333,74.0,65.0
50,94.47727939166666,94.73075120833333,77.0,72.0
51,94.47727939166666,94.74290396666666,74.0,60.0
52,94.47727939166666,94.75852894166667,70.0,74.0
53,94.89394539166666,95.130056125,74.0,61.0
54,94.89394539166666,95.14047277499999,77.0,70.0
55,94.89394539166666,95.14915331666666,70.0,75.0
56,95.31061139166667,95.609222025,74.0,90.0
57,95.31061139166667,95.61443034999999,70.0,117.0
58,95.31061139166667,95.63526365,77.0,92.0
59,122.39390139166666,122.84702566666667,65.0,102.0
60,122.81056739166667,123.34008043333333,67.0,100.0
61,123.22723339166666,123.60570500833333,70.0,122.0
62,123.64389939166666,124.69771714999999,75.0,127.0
63,124.89389739166666,125.08486930833332,74.0,97.0
64,125.10223039166667,125.463340925,75.0,112.0
65,125.51889639166666,125.73243771666667,74.0,93.0
66,125.72722939166665,126.692505625,70.0,107.0
67,126.97722739166666,128.15951716666666,71.0,122.0
68,128.22722539166665,128.34354464999998,67.0,107.0
69,128.43555839166666,129.70638969166666,67.0,107.0
70,130.51888839166665,130.87131838333332,67.0,107.0
71,130.93555439166667,131.07444305833332,72.0,112.0
72,131.14388739166665,132.02409431666666,72.0,127.0
73,132.18555239166665,132.49457967499998,67.0,96.0
74,132.60221839166667,132.72374597499999,72.0,97.0
75,132.81055139166665,133.057078775,72.0,107.0
76,133.22721739166667,133.34180054166666,72.0,102.0
77,133.43555039166665,133.61784176666666,72.0,100.0
78,133.64388339166666,133.97721619166666,65.0,99.0
79,134.06054939166665,134.244576875,67.0,93.0
80,134.26888239166666,134.56922913333332,65.0,99.0
81,134.68554839166666,134.8747842,67.0,95.0
82,134.89388139166667,135.15256153333334,65.0,85.0
83,135.10221439166665,135.30881128333334,67.0,97.0
84,135.31054739166666,135.65603295,65.0,93.0
85,135.72721339166665,135.96506023333333,67.0,95.0
86,135.93554639166666,136.932072575,70.0,127.0
87,136.97721139166666,137.15776665833332,77.0,127.0
88,137.39387739166665,137.52755773333334,77.0,102.0
89,137.60221039166666,137.70464078333333,77.0,100.0
90,137.81054339166667,138.46852844999998,77.0,122.0
91,138.64387539166665,139.53797118333333,79.0,127.0
92,139.47720739166667,139.53797118333333,79.0,112.0
93,139.68554039166665,140.213317325,70.0,112.0
94,140.31053939166665,140.66296938333332,82.0,127.0
95,140.72720539166667,140.91470509166666,82.0,127.0
96,140.93553839166665,141.10741311666666,81.0,102.0
97,141.14387139166666,142.00845334166667,80.0,127.0
98,141.97720339166665,142.12824481666667,82.0,127.0
99,142.39386939166667,142.588313525,82.0,127.0
100,142.60220239166665,142.74629938333334,81.0,122.0
101,142.81053539166666,143.48588153333333,80.0,127.0
102,143.64386739166665,144.786226675,82.0,127.0
103,144.89386539166665,146.94594544166665,77.0,117.0
104,146.97719539166667,150.21677354166667,72.0,117.0
105,154.06051739166665,154.442461225,70.0,58.0
106,154.47718339166667,154.8747522,74.0,75.0
107,154.89384939166666,155.36780696666665,70.0,67.0
108,155.31051539166666,156.43377748333333,77.0,75.0
109,158.22717739166666,158.49280196666666,70.0,86.0
110,158.43551039166667,158.66814890833334,72.0,74.0
111,158.64384339166665,159.48759204166666,75.0,93.0
112,160.72717339166667,161.15946436666667,67.0,90.0
113,161.14383939166666,161.54488041666667,70.0,100.0
114,161.56050539166665,161.99106025833333,72.0,72.0
115,161.97717139166667,162.8330728,67.0,54.0
116,168.22716139166667,168.66813290833332,70.0,89.0
117,168.64382739166666,169.06049339166665,74.0,93.0
118,169.06049339166665,169.91986701666667,70.0,64.0
119,171.56048939166666,171.817433425,70.0,77.0
120,171.76882239166665,171.9997248,72.0,72.0
121,171.97715539166666,173.40423644166665,75.0,95.0
122,174.06048539166665,174.48062360833333,79.0,96.0
123,174.47715139166667,174.91812290833332,75.0,79.0
124,174.89381739166666,175.98235731666665,72.0,75.0
125,200.31044339166667,200.51530417499998,74.0,70.0
126,200.31044339166667,200.52919304166664,77.0,68.0
127,200.31044339166667,200.53787358333332,70.0,97.0
128,200.72710939166666,200.99099785833332,77.0,58.0
129,200.72710939166666,201.0378727833333,70.0,81.0
130,200.72710939166666,201.0378727833333,74.0,65.0
131,201.14377539166665,201.3972472083333,77.0,72.0
132,201.14377539166665,201.40939996666665,74.0,60.0
133,201.14377539166665,201.42502494166666,70.0,74.0
134,201.56044139166667,201.79655212499998,74.0,61.0
135,201.56044139166667,201.806968775,77.0,70.0
136,201.56044139166667,201.81564931666665,70.0,75.0
137,201.97710739166666,202.275718025,74.0,90.0
138,201.97710739166666,202.28092635,70.0,117.0
139,201.97710739166666,202.30175964999998,77.0,92.0
140,231.14372739166666,231.8121291,68.0,127.0
141,231.97705939166664,233.661084475,67.0,127.0
142,272.8190079333333,273.108938025,60.0,92.0
143,273.05511866666666,273.84331184999996,72.0,97.0
144,273.86935347499997,274.18532519166666,65.0,81.0
145,274.1453947,274.4283803583333,63.0,102.0
146,274.40581095,274.7877547833333,65.0,88.0
147,274.73740764166666,275.0012961083333,63.0,81.0
148,274.98740724166663,281.2009389666666,60.0,95.0
