,start,end,pitch,velocity
0,3.6440913916666666,4.0156185749999995,67.0,93.0
1,3.6440913916666666,4.0295074416666665,70.0,78.0
2,3.6440913916666666,4.065965716666667,63.0,90.0
3,4.477423391666666,4.534714966666667,67.0,102.0
4,4.477423391666666,4.545131616666667,70.0,97.0
5,4.477423391666666,4.55207605,63.0,99.0
6,4.060757391666667,4.6041593,51.0,64.0
7,5.102422391666666,5.1701306166666665,67.0,75.0
8,5.102422391666666,5.189227808333333,63.0,77.0
9,5.102422391666666,5.194436133333333,70.0,73.0
10,5.519088391666666,5.618046566666666,67.0,100.0
11,5.519088391666666,5.6301993249999995,70.0,95.0
12,4.894089391666666,5.657977058333333,51.0,55.0
13,3.6440913916666666,6.1180457666666666,39.0,77.0
14,6.144087391666666,6.256934433333333,67.0,102.0
15,5.935754391666666,6.265614975,51.0,48.0
16,6.144087391666666,6.342003741666667,70.0,97.0
17,6.144087391666666,6.347212066666667,63.0,95.0
18,6.560753391666666,6.621517183333333,70.0,72.0
19,6.560753391666666,6.678808758333333,63.0,102.0
20,6.9774193916666665,7.388877066666666,63.0,85.0
21,6.9774193916666665,7.40623815,60.0,81.0
22,6.9774193916666665,7.409710366666666,67.0,73.0
23,7.810751391666666,7.892348483333333,63.0,117.0
24,7.810751391666666,7.8958207,60.0,89.0
25,7.394085391666667,7.897556808333333,55.0,56.0
26,7.810751391666666,7.901029025,67.0,83.0
27,8.435750391666666,8.508666941666666,60.0,75.0
28,8.435750391666666,8.513875266666666,63.0,93.0
29,8.435750391666666,8.517347483333333,67.0,71.0
30,8.852416391666667,8.909707966666666,60.0,66.0
31,8.852416391666667,8.918388508333333,63.0,88.0
32,8.852416391666667,8.923596833333333,67.0,67.0
33,8.227417391666666,8.961791216666667,55.0,56.0
34,9.269082391666666,9.387137758333333,55.0,79.0
35,6.9774193916666665,9.434012683333332,48.0,70.0
36,9.477415391666666,9.552068049999999,60.0,70.0
37,9.477415391666666,9.612831841666667,63.0,107.0
38,9.477415391666666,9.618040166666667,67.0,83.0
39,9.894081391666667,9.987831241666667,63.0,112.0
40,9.894081391666667,10.015608975,67.0,86.0
41,10.727413391666666,11.085051708333333,62.0,73.0
42,11.144079391666667,11.211787616666665,65.0,89.0
43,11.144079391666667,11.220468158333333,62.0,77.0
44,11.144079391666667,11.236093133333332,70.0,97.0
45,10.310747391666666,11.260398649999999,58.0,92.0
46,11.769078391666666,11.840258833333333,65.0,88.0
47,11.769078391666666,11.845467158333333,62.0,79.0
48,11.769078391666666,11.848939374999999,70.0,95.0
49,12.185744391666667,12.258660941666665,65.0,86.0
50,12.185744391666667,12.288174783333332,70.0,100.0
51,11.560745391666666,12.392341283333332,58.0,67.0
52,10.310747391666666,12.810743391666666,53.0,78.0
53,12.602410391666666,12.828104475,58.0,76.0
54,10.310747391666666,12.880187724999999,46.0,77.0
55,12.810743391666666,13.147548408333332,65.0,96.0
56,13.227409391666667,13.284700966666666,65.0,39.0
57,12.810743391666666,13.466992341666666,70.0,102.0
58,13.227409391666667,13.512131158333332,62.0,90.0
59,13.435742391666667,13.579839383333333,65.0,75.0
60,14.477407391666667,14.565948916666667,63.0,97.0
61,14.477407391666667,14.578101675,60.0,89.0
62,14.477407391666667,14.581573891666666,67.0,77.0
63,15.102406391666666,15.178795158333333,63.0,100.0
64,15.102406391666666,15.182267374999999,60.0,86.0
65,15.102406391666666,15.185739591666666,67.0,79.0
66,13.644075391666666,16.284696166666667,36.0,82.0
67,14.894073391666666,16.293376708333334,48.0,61.0
68,14.060741391666665,16.303793358333333,43.0,51.0
69,17.810735391666665,17.899276916666665,63.0,97.0
70,17.810735391666665,17.902749133333334,60.0,85.0
71,17.810735391666665,17.907957458333332,67.0,79.0
72,17.394069391666665,17.973929575,55.0,56.0
73,18.227401391666668,18.739553349999998,55.0,59.0
74,18.435734391666667,19.017330683333334,63.0,96.0
75,18.435734391666667,19.019066791666667,60.0,77.0
76,18.435734391666667,19.050316741666666,67.0,73.0
77,19.060733391666666,19.545107616666666,55.0,70.0
78,16.977403391666666,19.706565691666665,48.0,71.0
79,19.685732391666665,19.795107216666665,55.0,62.0
80,19.477399391666665,19.939204208333333,63.0,100.0
81,19.477399391666665,20.262120358333334,67.0,72.0
82,20.102398391666664,20.263856466666667,63.0,86.0
83,19.894065391666665,20.274273116666667,60.0,93.0
84,21.144063391666666,21.208299399999998,65.0,82.0
85,21.144063391666666,21.213507725,62.0,78.0
86,21.144063391666666,21.232604916666666,70.0,82.0
87,21.144063391666666,21.388854666666667,58.0,69.0
88,21.769062391666665,21.847187266666666,65.0,82.0
89,21.769062391666665,21.855867808333333,62.0,75.0
90,21.769062391666665,21.887117758333332,70.0,89.0
91,22.185728391666665,22.253436616666665,65.0,79.0
92,22.185728391666665,22.258644941666667,70.0,92.0
93,21.560729391666666,22.295103216666664,58.0,52.0
94,20.727397391666667,22.703088675,53.0,67.0
95,22.602394391666664,22.751699708333334,58.0,82.0
96,20.310731391666664,22.786421875,46.0,85.0
97,22.810727391666667,23.47044855833333,65.0,82.0
98,22.810727391666667,23.578087274999998,70.0,92.0
99,23.227393391666666,23.609337224999997,62.0,83.0
100,24.477391391666664,24.52773853333333,67.0,92.0
101,24.477391391666664,24.52773853333333,70.0,88.0
102,24.477391391666664,24.5624607,63.0,97.0
103,24.060725391666665,24.56419680833333,46.0,27.0
104,25.102390391666667,25.175306941666665,67.0,82.0
105,25.102390391666667,25.175306941666665,70.0,72.0
106,25.102390391666667,25.190931916666667,63.0,85.0
107,24.477391391666664,25.24648738333333,51.0,71.0
108,25.310723391666667,25.473917574999998,51.0,26.0
109,25.519056391666666,25.588500725,67.0,83.0
110,25.519056391666666,25.602389591666665,70.0,67.0
111,25.519056391666666,25.605861808333334,63.0,78.0
112,25.935722391666665,26.203083075,51.0,74.0
113,26.144055391666665,26.203083075,51.0,66.0
114,26.144055391666665,26.23954135,70.0,88.0
115,26.144055391666665,26.253430216666665,67.0,99.0
116,24.894057391666667,26.255166324999998,46.0,36.0
117,23.644059391666666,26.343707849999998,39.0,79.0
118,26.560721391666664,26.694401733333333,67.0,100.0
119,26.560721391666664,26.873220891666666,70.0,93.0
120,26.769054391666664,26.904470841666665,63.0,86.0
121,27.810719391666666,27.890580375,63.0,93.0
122,27.810719391666666,27.900997025,60.0,81.0
123,27.810719391666666,27.904469241666664,67.0,73.0
124,27.394053391666667,27.975649683333334,55.0,52.0
125,28.435718391666665,28.50689883333333,63.0,92.0
126,28.435718391666665,28.513843266666665,67.0,69.0
127,28.435718391666665,28.525996024999998,60.0,75.0
128,28.852384391666664,28.935717591666666,63.0,88.0
129,28.852384391666664,28.944398133333333,60.0,74.0
130,28.852384391666664,28.94787035,67.0,69.0
131,28.227385391666665,29.05203685,55.0,63.0
132,29.269050391666664,29.54335550833333,55.0,77.0
133,26.977387391666664,29.880160524999997,48.0,78.0
134,29.685716391666666,29.883632741666666,55.0,86.0
135,29.477383391666667,29.925299341666665,63.0,117.0
136,29.477383391666667,29.982590916666666,67.0,90.0
137,29.894049391666666,30.289882091666666,60.0,90.0
138,31.144047391666664,31.21870005,63.0,97.0
139,31.144047391666664,31.225644483333333,60.0,82.0
140,31.144047391666664,31.227380591666666,67.0,74.0
141,30.727381391666665,31.281199949999998,55.0,73.0
142,31.769046391666667,31.843699049999998,63.0,85.0
143,31.769046391666667,31.84543515833333,67.0,65.0
144,31.769046391666667,31.852379591666665,60.0,69.0
145,32.18571239166666,32.28119835,63.0,85.0
146,32.18571239166666,32.286406675,67.0,65.0
147,31.560713391666667,32.38883706666667,55.0,58.0
148,32.60237839166666,32.859322425,55.0,74.0
149,30.310715391666665,32.88362794166667,48.0,89.0
150,32.810711391666665,33.09022483333333,63.0,100.0
151,32.810711391666665,33.09196094166666,67.0,72.0
152,33.227377391666664,33.369738274999996,63.0,100.0
153,33.227377391666664,33.50862694166666,67.0,69.0
154,33.227377391666664,33.67876555833333,60.0,68.0
155,34.47737539166666,34.56070859166667,65.0,89.0
156,34.47737539166666,34.579805783333335,62.0,86.0
157,34.47737539166666,34.586750216666665,70.0,93.0
158,35.102374391666665,35.17529094166667,65.0,88.0
159,35.102374391666665,35.18570759166666,62.0,77.0
160,35.102374391666665,35.18917980833333,70.0,81.0
161,34.89404139166667,35.279457441666665,58.0,79.0
162,35.519040391666664,35.59369305,65.0,77.0
163,35.519040391666664,35.598901375,62.0,70.0
164,35.519040391666664,35.604109699999995,70.0,77.0
165,34.06070939166666,36.04508121666667,53.0,48.0
166,35.93570639166666,36.050289541666665,58.0,72.0
167,33.64404339166666,36.12667830833333,46.0,97.0
168,36.14403939166667,36.241261458333334,65.0,85.0
169,36.14403939166667,36.249942,62.0,79.0
170,36.14403939166667,36.269039191666664,70.0,85.0
171,36.560705391666666,36.68917740833333,65.0,78.0
172,36.560705391666666,36.772510608333334,70.0,83.0
173,36.560705391666666,36.78292725833333,62.0,77.0
174,37.810703391666664,37.89403659166666,67.0,90.0
175,37.810703391666664,37.909661566666664,70.0,79.0
176,37.810703391666664,37.91486989166666,63.0,88.0
177,37.394037391666664,37.994730874999995,46.0,53.0
178,38.435702391666666,38.50167450833333,67.0,97.0
179,38.435702391666666,38.50167450833333,70.0,83.0
180,38.435702391666666,38.51035505,63.0,88.0
181,38.852368391666666,38.93396548333333,67.0,83.0
182,38.852368391666666,38.94090991666666,63.0,74.0
183,38.852368391666666,38.942646024999995,70.0,59.0
184,37.810703391666664,38.97042375833333,51.0,57.0
185,39.269034391666665,39.546811725,51.0,65.0
186,39.47736739166667,39.56938113333333,67.0,96.0
187,39.47736739166667,39.581533891666666,70.0,90.0
188,39.47736739166667,39.58327,63.0,89.0
189,38.22736939166666,39.715214233333334,46.0,36.0
190,36.977371391666665,39.791602999999995,39.0,73.0
191,39.685700391666664,39.79854743333333,51.0,79.0
192,39.89403339166667,40.00688043333333,67.0,93.0
193,39.89403339166667,40.01382486666667,70.0,77.0
194,40.10236639166666,40.237782841666665,63.0,90.0
195,41.144031391666665,41.24125345833333,63.0,95.0
196,41.144031391666665,41.24819789166666,60.0,79.0
197,41.144031391666665,41.25167010833333,67.0,72.0
198,41.76903039166667,41.86104413333333,67.0,75.0
199,41.76903039166667,41.86798856666667,63.0,96.0
200,41.76903039166667,41.869724675,60.0,77.0
201,42.18569639166667,42.27771013333333,63.0,86.0
202,42.18569639166667,42.27771013333333,67.0,69.0
203,42.18569639166667,42.282918458333334,60.0,72.0
204,40.727365391666666,42.43569599166666,48.0,58.0
205,42.81069539166666,42.899236916666666,67.0,76.0
206,42.81069539166666,42.90270913333333,63.0,99.0
207,42.81069539166666,42.911389674999995,60.0,79.0
208,43.22736139166666,43.295069616666666,63.0,88.0
209,43.22736139166666,43.30201405,67.0,63.0
210,43.22736139166666,43.30375015833333,60.0,72.0
211,42.60236239166667,43.36798616666667,48.0,48.0
212,41.560697391666665,43.369722275,43.0,43.0
213,40.31069939166667,43.48777764166667,36.0,67.0
214,44.47735939166667,44.56590091666666,63.0,97.0
215,44.47735939166667,44.56937313333333,60.0,85.0
216,44.47735939166667,44.574581458333334,67.0,79.0
217,44.06069339166667,44.640553575,55.0,56.0
218,44.894025391666666,45.40617735,55.0,59.0
219,45.10235839166666,45.68395468333333,63.0,96.0
220,45.10235839166666,45.685690791666666,60.0,77.0
221,45.10235839166666,45.71694074166666,67.0,73.0
222,45.727357391666665,46.21173161666666,55.0,70.0
223,43.64402739166666,46.37318969166667,48.0,71.0
224,46.35235639166667,46.461731216666664,55.0,62.0
225,46.144023391666664,46.60582820833333,63.0,100.0
226,46.144023391666664,46.92874435833333,67.0,72.0
227,46.76902239166667,46.930480466666666,63.0,86.0
228,46.56068939166666,46.94089711666666,60.0,93.0
229,47.81068739166666,47.8749234,65.0,82.0
230,47.81068739166666,47.880131725,62.0,78.0
231,47.81068739166666,47.899228916666665,70.0,82.0
232,47.81068739166666,48.055478666666666,58.0,69.0
233,48.435686391666664,48.513811266666664,65.0,82.0
234,48.435686391666664,48.52249180833333,62.0,75.0
235,48.435686391666664,48.55374175833333,70.0,89.0
236,48.85235239166666,48.92006061666667,65.0,79.0
237,48.85235239166666,48.925268941666666,70.0,92.0
238,48.22735339166667,48.96172721666667,58.0,52.0
239,47.39402139166666,49.369712674999995,53.0,67.0
240,49.26901839166666,49.41832370833333,58.0,82.0
241,46.97735539166666,49.453045875,46.0,85.0
242,49.477351391666666,50.13707255833333,65.0,82.0
243,49.477351391666666,50.244711275,70.0,92.0
244,49.894017391666665,50.275961224999996,62.0,83.0
245,51.14401539166666,51.19436253333333,67.0,92.0
246,51.14401539166666,51.19436253333333,70.0,88.0
247,51.14401539166666,51.229084699999994,63.0,97.0
248,50.727349391666664,51.230820808333334,46.0,27.0
249,51.769014391666666,51.84193094166667,67.0,82.0
250,51.769014391666666,51.84193094166667,70.0,72.0
251,51.769014391666666,51.85755591666666,63.0,85.0
252,51.14401539166666,51.91311138333333,51.0,71.0
253,51.97734739166666,52.140541575,51.0,26.0
254,52.185680391666665,52.255124724999995,67.0,83.0
255,52.185680391666665,52.26901359166666,70.0,67.0
256,52.185680391666665,52.27248580833333,63.0,78.0
257,52.602346391666664,52.869707075,51.0,74.0
258,52.81067939166667,52.869707075,51.0,66.0
259,52.81067939166667,52.906165349999995,70.0,88.0
260,52.81067939166667,52.920054216666664,67.0,99.0
261,51.56068139166666,52.921790324999996,46.0,36.0
262,50.310683391666664,53.01033185,39.0,79.0
263,53.22734539166667,53.36102573333333,67.0,100.0
264,53.22734539166667,53.53984489166666,70.0,93.0
265,53.43567839166666,53.571094841666664,63.0,86.0
266,54.477343391666665,54.557204375,63.0,93.0
267,54.477343391666665,54.567621024999994,60.0,81.0
268,54.477343391666665,54.57109324166667,67.0,73.0
269,54.060677391666665,54.64227368333333,55.0,52.0
270,55.10234239166667,55.17352283333333,63.0,92.0
271,55.10234239166667,55.18046726666667,67.0,69.0
272,55.10234239166667,55.192620025,60.0,75.0
273,55.51900839166667,55.602341591666665,63.0,88.0
274,55.51900839166667,55.61102213333333,60.0,74.0
275,55.51900839166667,55.614494349999994,67.0,69.0
276,54.894009391666664,55.71866085,55.0,63.0
277,55.935674391666666,56.20997950833333,55.0,77.0
278,53.644011391666666,56.546784525,48.0,78.0
279,56.352340391666665,56.550256741666665,55.0,86.0
280,56.14400739166666,56.591923341666664,63.0,117.0
281,56.14400739166666,56.649214916666665,67.0,90.0
282,56.56067339166666,56.95650609166666,60.0,90.0
283,57.810671391666666,57.885324049999994,63.0,97.0
284,57.810671391666666,57.89226848333333,60.0,82.0
285,57.810671391666666,57.894004591666665,67.0,74.0
286,57.39400539166667,57.94782395,55.0,73.0
287,58.43567039166666,58.51032305,63.0,85.0
288,58.43567039166666,58.51205915833333,67.0,65.0
289,58.43567039166666,58.51900359166667,60.0,69.0
290,58.85233639166666,58.947822349999996,63.0,85.0
291,58.85233639166666,58.953030675,67.0,65.0
292,58.227337391666666,59.055461066666666,55.0,58.0
293,59.26900239166666,59.525946425,55.0,74.0
294,56.97733939166666,59.550251941666666,48.0,89.0
295,59.477335391666664,59.75684883333333,63.0,100.0
296,59.477335391666664,59.75858494166666,67.0,72.0
297,59.89400139166666,60.036362274999995,63.0,100.0
298,59.89400139166666,60.17525094166666,67.0,69.0
299,59.89400139166666,60.34538955833333,60.0,68.0
300,61.14399939166666,61.227332591666666,65.0,89.0
301,61.14399939166666,61.24642978333333,62.0,86.0
302,61.14399939166666,61.253374216666664,70.0,93.0
303,61.76899839166666,61.841914941666666,65.0,88.0
304,61.76899839166666,61.85233159166666,62.0,77.0
305,61.76899839166666,61.85580380833333,70.0,81.0
306,61.56066539166667,61.946081441666664,58.0,79.0
307,62.18566439166666,62.26031705,65.0,77.0
308,62.18566439166666,62.265525374999996,62.0,70.0
309,62.18566439166666,62.270733699999994,70.0,77.0
310,60.72733339166666,62.711705216666665,53.0,48.0
311,62.60233039166666,62.71691354166666,58.0,72.0
312,60.31066739166666,62.79330230833333,46.0,97.0
313,62.810663391666665,62.90788545833333,65.0,85.0
314,62.810663391666665,62.916565999999996,62.0,79.0
315,62.810663391666665,62.93566319166666,70.0,85.0
316,63.227329391666665,63.35580140833333,65.0,78.0
317,63.227329391666665,63.43913460833333,70.0,83.0
318,63.227329391666665,63.44955125833333,62.0,77.0
319,64.47732739166666,64.56066059166666,67.0,90.0
320,64.47732739166666,64.57628556666667,70.0,79.0
321,64.47732739166666,64.58149389166667,63.0,88.0
322,64.06066139166667,64.661354875,46.0,53.0
323,65.10232639166667,65.16829850833334,67.0,97.0
324,65.10232639166667,65.16829850833334,70.0,83.0
325,65.10232639166667,65.17697905,63.0,88.0
326,65.51899239166666,65.60058948333334,67.0,83.0
327,65.51899239166666,65.60753391666667,63.0,74.0
328,65.51899239166666,65.609270025,70.0,59.0
329,64.47732739166666,65.63704775833332,51.0,57.0
330,65.93565839166666,66.213435725,51.0,65.0
331,66.14399139166666,66.23600513333334,67.0,96.0
332,66.14399139166666,66.24815789166666,70.0,90.0
333,66.14399139166666,66.249894,63.0,89.0
334,64.89399339166667,66.38183823333333,46.0,36.0
335,63.643995391666664,66.458227,39.0,73.0
336,66.35232439166667,66.46517143333332,51.0,79.0
337,66.56065739166667,66.67350443333333,67.0,93.0
338,66.56065739166667,66.68044886666667,70.0,77.0
339,66.76899039166666,66.90440684166667,63.0,90.0
340,67.81065539166666,67.90787745833333,63.0,95.0
341,67.81065539166666,67.91482189166666,60.0,79.0
342,67.81065539166666,67.91829410833333,67.0,72.0
343,68.43565439166666,68.52766813333334,67.0,75.0
344,68.43565439166666,68.53461256666667,63.0,96.0
345,68.43565439166666,68.536348675,60.0,77.0
346,68.85232039166667,68.94433413333333,63.0,86.0
347,68.85232039166667,68.94433413333333,67.0,69.0
348,68.85232039166667,68.94954245833333,60.0,72.0
349,67.39398939166666,69.10231999166666,48.0,58.0
350,69.47731939166667,69.56586091666667,67.0,76.0
351,69.47731939166667,69.56933313333333,63.0,99.0
352,69.47731939166667,69.578013675,60.0,79.0
353,69.89398539166666,69.96169361666666,63.0,88.0
354,69.89398539166666,69.96863805,67.0,63.0
355,69.89398539166666,69.97037415833333,60.0,72.0
356,69.26898639166666,70.03461016666667,48.0,48.0
357,68.22732139166666,70.036346275,43.0,43.0
358,66.97732339166666,70.15440164166667,36.0,67.0
359,70.93565039166667,71.578010475,60.0,76.0
360,71.14398339166667,71.61794096666667,68.0,122.0
361,71.56064939166666,71.67870475833332,63.0,83.0
362,71.76898239166667,71.91828770833332,63.0,102.0
363,71.76898239166667,71.95995430833332,60.0,90.0
364,71.76898239166667,71.98773204166666,68.0,92.0
365,70.72731739166666,72.37662030833333,56.0,96.0
366,72.18564839166666,72.50856454166666,63.0,102.0
367,72.18564839166666,72.62661990833332,68.0,89.0
368,72.39398139166666,72.63182823333332,60.0,45.0
369,70.51898439166666,72.88182783333333,51.0,50.0
370,72.60231439166667,72.92696665,56.0,72.0
371,70.31065139166667,72.97210546666666,44.0,89.0
372,72.81064739166666,73.16481349166666,63.0,117.0
373,72.81064739166666,73.18391068333332,68.0,102.0
374,73.22731339166667,73.49467407499999,68.0,54.0
375,73.22731339166667,73.50856294166667,63.0,86.0
376,73.22731339166667,73.56064619166666,60.0,86.0
377,74.68564439166666,74.713422125,55.0,37.0
378,74.06064539166667,74.81064419166667,50.0,56.0
379,73.64397939166666,74.85578300833333,43.0,78.0
380,74.47731139166666,74.91481069166666,70.0,102.0
381,74.47731139166666,74.92696345,67.0,97.0
382,74.89397739166667,75.15265753333333,62.0,89.0
383,75.31064339166666,75.82105924166666,60.0,93.0
384,75.31064339166666,75.838420325,63.0,85.0
385,75.31064339166666,75.90265633333333,67.0,72.0
386,75.72730939166667,76.36619725833333,43.0,61.0
387,75.31064339166666,76.37314169166666,36.0,73.0
388,76.35230839166667,76.47036375833333,48.0,86.0
389,76.14397539166666,76.56064139166666,63.0,102.0
390,76.14397539166666,76.76202995833333,67.0,85.0
391,76.56064139166666,76.92869635833333,60.0,93.0
392,76.76897439166666,76.9582102,63.0,92.0
393,77.39397339166666,77.92175032499999,51.0,54.0
394,77.81063939166667,78.07800007499999,56.0,85.0
395,76.97730739166666,78.15612494999999,44.0,75.0
396,77.81063939166667,78.26897199166666,63.0,112.0
397,77.81063939166667,78.55369375833332,68.0,112.0
398,78.43563839166666,78.6248742,63.0,97.0
399,78.22730539166666,78.65438804166666,60.0,89.0
400,79.06063739166666,79.588414325,48.0,48.0
401,78.64397139166667,79.6040393,41.0,77.0
402,79.47730339166667,79.61619205833333,53.0,75.0
403,79.47730339166667,79.96862205,65.0,102.0
404,80.10230239166667,80.23251051666666,65.0,42.0
405,79.47730339166667,80.2707049,68.0,122.0
406,79.89396939166666,80.30889928333333,60.0,86.0
407,80.93563439166667,81.15438404166666,62.0,68.0
408,80.72730139166666,81.17348123333333,58.0,95.0
409,81.14396739166666,81.59188334166666,65.0,77.0
410,80.31063539166666,81.79674412499999,46.0,72.0
411,80.51896839166666,81.98945214999999,53.0,54.0
412,81.56063339166667,82.37660430833333,62.0,82.0
413,81.76896639166667,82.41306258333333,65.0,73.0
414,81.14396739166666,82.43042366666667,70.0,95.0
415,82.39396539166667,82.79847863333333,53.0,31.0
416,81.97729939166666,82.81063139166666,46.0,99.0
417,81.35230039166666,82.81063139166666,58.0,95.0
418,82.81063139166666,83.01722828333332,67.0,92.0
419,82.81063139166666,83.06410320833334,63.0,122.0
420,82.81063139166666,83.2082002,51.0,117.0
421,83.22729739166667,83.50854694166667,46.0,93.0
422,83.22729739166667,83.546741325,58.0,117.0
423,83.22729739166667,83.59361625,62.0,76.0
424,84.06062939166667,84.67000341666666,51.0,41.0
425,84.47729539166666,84.91826690833332,63.0,117.0
426,84.47729539166666,85.140488775,60.0,82.0
427,84.47729539166666,85.50507152499999,56.0,83.0
428,85.10229439166666,85.80194605,63.0,78.0
429,85.10229439166666,85.86444594999999,68.0,92.0
430,85.72729339166666,85.95472358333333,60.0,58.0
431,85.51896039166667,86.0831956,56.0,58.0
432,84.89396139166666,86.77763893333334,51.0,41.0
433,86.14395939166667,86.86791656666666,63.0,102.0
434,86.56062539166666,86.88874986666666,60.0,88.0
435,86.14395939166667,86.89395819166667,68.0,102.0
436,83.64396339166666,86.93041646666666,44.0,93.0
437,87.39395739166666,87.90263713333333,50.0,43.0
438,87.81062339166667,87.92867875833333,55.0,78.0
439,86.97729139166667,87.94430373333333,43.0,99.0
440,87.81062339166667,88.223817175,67.0,102.0
441,87.81062339166667,88.24638658333333,71.0,99.0
442,88.22728939166666,88.58666381666666,62.0,83.0
443,89.06062139166666,89.73943975,43.0,58.0
444,88.64395539166667,89.74812029166667,36.0,78.0
445,89.68562039166666,89.81062019166666,48.0,86.0
446,89.47728739166666,89.93909220833334,63.0,122.0
447,89.47728739166666,90.32798047499999,67.0,93.0
448,89.89395339166666,90.38353594166666,60.0,93.0
449,90.72728539166667,91.30540946666666,51.0,55.0
450,91.14395139166666,91.54672852499999,56.0,83.0
451,90.31061939166666,91.62138118333333,44.0,79.0
452,91.14395139166666,91.63700615833334,63.0,96.0
453,91.76895039166666,91.96165841666667,63.0,56.0
454,91.56061739166667,91.98596393333332,60.0,86.0
455,91.14395139166666,91.99638058333333,68.0,102.0
456,92.39394939166667,93.05193444999999,48.0,36.0
457,91.97728339166666,93.08665661666666,41.0,75.0
458,92.81061539166666,93.20644809166666,53.0,88.0
459,92.81061539166666,93.59880857499999,65.0,122.0
460,92.81061539166666,93.61790576666667,68.0,127.0
461,93.22728139166666,93.62658630833333,60.0,89.0
462,93.64394739166666,93.92693305,46.0,71.0
463,93.64394739166666,93.92866915833334,58.0,95.0
464,93.64394739166666,93.96165521666666,62.0,99.0
465,93.64394739166666,93.97033575833333,65.0,92.0
466,94.06061339166666,94.32971018333333,58.0,93.0
467,94.06061339166666,94.33665461666666,46.0,86.0
468,94.06061339166666,94.35227959166666,70.0,92.0
469,94.06061339166666,94.36790456666667,62.0,90.0
470,94.06061339166666,94.38700175833333,65.0,81.0
471,94.47727939166666,94.702973475,58.0,99.0
472,94.47727939166666,94.723806775,46.0,99.0
473,94.47727939166666,94.74984839999999,70.0,95.0
474,94.47727939166666,94.75679283333334,62.0,97.0
475,94.47727939166666,94.78109835,65.0,88.0
476,94.89394539166666,95.18734769999999,58.0,95.0
477,94.89394539166666,95.19776435,62.0,107.0
478,94.89394539166666,95.20123656666667,46.0,88.0
479,94.89394539166666,95.202972675,70.0,100.0
480,94.89394539166666,95.22901429999999,65.0,90.0
481,95.31061139166667,95.484222225,58.0,97.0
482,95.31061139166667,95.49811109166666,46.0,100.0
483,95.31061139166667,95.51720828333333,62.0,107.0
484,95.31061139166667,95.53109715,70.0,107.0
485,95.31061139166667,95.54151379999999,65.0,96.0
486,97.39394139166666,97.66998261666666,63.0,88.0
487,97.39394139166666,97.81581571666666,51.0,97.0
488,97.81060739166666,97.87484339999999,67.0,112.0
489,97.81060739166666,97.98769044166666,63.0,117.0
490,97.81060739166666,98.10053748333333,70.0,127.0
491,98.22727339166666,98.34012043333333,63.0,99.0
492,96.97727539166667,98.515467375,39.0,100.0
493,98.43560639166667,98.53282845833333,67.0,117.0
494,97.18560839166666,98.63873106666667,46.0,127.0
495,98.64393939166666,98.77935584166666,39.0,40.0
496,98.43560639166667,98.90088342499999,63.0,122.0
497,98.64393939166666,98.90782785833333,67.0,31.0
498,98.43560639166667,98.94081391666666,70.0,122.0
499,98.01894039166666,99.13352194166666,51.0,122.0
500,99.06060539166666,99.265466175,70.0,85.0
501,99.06060539166666,99.36268824166666,63.0,117.0
502,99.26893839166667,99.54845183333333,51.0,112.0
503,99.47727139166666,99.73768764166667,67.0,122.0
504,98.85227239166666,99.75157650833333,46.0,66.0
505,99.47727139166666,99.76372926666666,70.0,127.0
506,99.68560439166666,99.78803478333333,51.0,100.0
507,98.85227239166666,99.90956236666666,39.0,70.0
508,99.89393739166667,100.23421462499999,70.0,35.0
509,99.89393739166667,100.25852014166666,63.0,102.0
510,100.10227039166666,100.26199235833333,67.0,93.0
511,100.93560239166666,101.077963275,60.0,77.0
512,100.72726939166667,101.14914371666666,48.0,95.0
513,101.35226839166666,101.54150419999999,48.0,97.0
514,101.14393539166666,101.58664301666666,63.0,127.0
515,101.14393539166666,101.60226799166666,67.0,107.0
516,101.56060139166667,101.827962075,60.0,96.0
517,101.76893439166666,102.02761453333333,67.0,100.0
518,101.76893439166666,102.03108675,63.0,127.0
519,102.18560039166667,102.29150299999999,67.0,100.0
520,102.18560039166667,102.29497521666666,63.0,127.0
521,102.39393339166666,102.44080831666666,60.0,76.0
522,102.39393339166666,102.50678043333333,63.0,127.0
523,102.39393339166666,102.52761373333333,67.0,97.0
524,102.60226639166666,102.84879377499999,48.0,107.0
525,100.31060339166666,103.04323790833332,36.0,83.0
526,100.51893639166666,103.057126775,43.0,60.0
527,102.81059939166666,103.08664061666666,63.0,127.0
528,102.81059939166666,103.09532115833333,67.0,97.0
529,103.01893239166667,103.20295987499999,48.0,99.0
530,103.22726539166666,103.51372326666666,67.0,89.0
531,103.22726539166666,103.54497321666666,63.0,127.0
532,103.43559839166666,103.65261193333333,60.0,100.0
533,104.26893039166666,104.44080511666667,60.0,97.0
534,104.06059739166666,104.53455496666666,53.0,112.0
535,103.64393139166665,104.83490170833333,41.0,85.0
536,104.47726339166667,104.85747111666666,65.0,107.0
537,103.85226439166667,104.86788776666666,48.0,93.0
538,104.68559639166666,104.92865155833333,53.0,100.0
539,104.47726339166667,104.94080431666666,68.0,127.0
540,105.10226239166666,105.27760933333333,65.0,97.0
541,105.10226239166666,105.30017874166666,68.0,112.0
542,104.89392939166666,105.32448425833333,60.0,96.0
543,105.72726139166666,106.17517734166667,56.0,117.0
544,105.93559439166665,106.24809389166666,60.0,93.0
545,106.14392739166667,106.36962147499999,63.0,117.0
546,106.14392739166667,106.421704725,68.0,117.0
547,106.35226039166666,106.69600984166667,56.0,117.0
548,106.56059339166666,106.78455136666666,63.0,122.0
549,106.56059339166666,106.79323190833333,68.0,122.0
550,105.51892839166666,106.80538466666667,51.0,96.0
551,105.31059539166667,106.81927353333333,44.0,82.0
552,106.76892639166667,106.86267624166666,60.0,99.0
553,107.60225839166667,107.65260553333333,65.0,56.0
554,107.60225839166667,107.723785975,60.0,96.0
555,107.81059139166666,107.8748274,60.0,86.0
556,107.39392539166666,107.89739680833333,53.0,100.0
557,107.81059139166666,108.10572980833332,65.0,102.0
558,108.01892439166666,108.20642409166666,60.0,52.0
559,107.81059139166666,108.24809069166666,68.0,107.0
560,107.18559239166666,108.49461807499999,48.0,90.0
561,108.22725739166667,108.50329861666665,53.0,102.0
562,108.43559039166666,108.50677083333333,60.0,93.0
563,106.97725939166666,108.51197915833333,41.0,92.0
564,108.43559039166666,108.5206597,65.0,112.0
565,108.43559039166666,108.53975689166666,68.0,107.0
566,109.26892239166666,109.36267224166666,62.0,89.0
567,109.26892239166666,109.37308889166667,65.0,95.0
568,109.26892239166666,109.390449975,70.0,96.0
569,109.06058939166667,109.53107475,58.0,102.0
570,109.47725539166666,109.65781065833333,62.0,99.0
571,109.47725539166666,109.72031055833332,65.0,117.0
572,109.47725539166666,109.73940775,70.0,117.0
573,109.68558839166666,109.84010203333332,58.0,112.0
574,108.85225639166666,109.84183814166666,53.0,58.0
575,108.64392339166666,109.90260193333333,46.0,100.0
576,109.89392139166667,110.00156010833332,65.0,112.0
577,109.89392139166667,110.0206573,70.0,127.0
578,110.10225439166666,110.23246251666666,62.0,107.0
579,110.10225439166666,110.24808749166667,65.0,92.0
580,110.10225439166666,110.286281875,70.0,107.0
581,110.93558639166666,111.08141949166667,55.0,70.0
582,110.72725339166666,111.171697125,51.0,102.0
583,111.14391939166666,111.26544697499999,58.0,127.0
584,111.14391939166666,111.27412751666667,63.0,127.0
585,111.56058539166666,111.62134918333332,63.0,50.0
586,111.56058539166666,111.69252962499999,55.0,61.0
587,111.76891839166666,111.827946075,58.0,127.0
588,111.35225239166667,111.85745991666666,51.0,100.0
589,111.76891839166666,111.86093213333332,63.0,117.0
590,112.18558439166667,112.23940375,70.0,78.0
591,112.18558439166667,112.26718148333333,67.0,92.0
592,112.18558439166667,112.27238980833333,63.0,93.0
593,111.97725139166666,112.45120896666666,51.0,85.0
594,112.39391739166666,112.45641729166667,67.0,122.0
595,112.39391739166666,112.48245891666666,63.0,112.0
596,112.39391739166666,112.48245891666666,70.0,117.0
597,112.60225039166666,112.87481939999999,51.0,85.0
598,112.81058339166667,112.90780545833333,67.0,112.0
599,110.51892039166667,113.057110775,46.0,92.0
600,112.81058339166667,113.09704126666666,70.0,117.0
601,110.31058739166666,113.11961067499999,39.0,96.0
602,113.01891639166666,113.12655510833333,51.0,97.0
603,113.22724939166666,113.29842983333333,70.0,40.0
604,113.22724939166666,113.38349914166666,63.0,107.0
605,113.43558239166666,113.52933224166667,63.0,58.0
606,113.43558239166666,113.5623183,70.0,102.0
607,114.26891439166666,114.42863635833332,60.0,93.0
608,114.06058139166666,114.54495561666666,48.0,93.0
609,114.47724739166667,114.57273335,63.0,127.0
610,114.47724739166667,114.57967778333332,67.0,117.0
611,114.47724739166667,114.588358325,60.0,71.0
612,115.10224639166667,115.16648239999999,63.0,117.0
613,115.10224639166667,115.16821850833333,60.0,102.0
614,115.10224639166667,115.18384348333333,55.0,99.0
615,114.89391339166666,115.23245451666666,48.0,88.0
616,115.31057939166666,115.63696775833333,48.0,61.0
617,115.72724539166666,115.952939475,55.0,82.0
618,115.51891239166666,115.95814779999999,63.0,122.0
619,115.51891239166666,115.96682834166666,60.0,117.0
620,115.93557839166667,116.19078631666666,48.0,89.0
621,113.64391539166667,116.39043877499999,36.0,82.0
622,113.85224839166666,116.39738320833332,43.0,85.0
623,116.14391139166666,116.43036926666666,63.0,127.0
624,116.14391139166666,116.43557759166666,60.0,122.0
625,116.35224439166666,116.51543857499999,48.0,88.0
626,116.56057739166665,116.86960467499999,60.0,112.0
627,116.76891039166667,116.88175743333333,55.0,100.0
628,116.56057739166665,116.88175743333333,63.0,117.0
629,117.60224239166666,117.74633938333332,60.0,85.0
630,117.39390939166667,117.84703366666666,53.0,93.0
631,117.18557639166666,118.09008883333333,48.0,77.0
632,116.97724339166666,118.09529715833332,41.0,88.0
633,118.01890839166666,118.15953316666666,53.0,97.0
634,117.81057539166666,118.27758853333333,68.0,127.0
635,117.81057539166666,118.28453296666666,65.0,117.0
636,118.43557439166666,118.598768575,65.0,107.0
637,118.43557439166666,118.61439354999999,68.0,127.0
638,118.22724139166667,118.62133798333333,60.0,102.0
639,119.26890639166666,119.36439234999999,68.0,52.0
640,119.26890639166666,119.369600675,63.0,78.0
641,119.26890639166666,119.380017325,60.0,69.0
642,119.06057339166667,119.52758653333333,56.0,99.0
643,119.47723939166666,119.73244731666666,63.0,122.0
644,119.47723939166666,119.73765564166666,68.0,127.0
645,119.68557239166667,119.91994701666665,56.0,102.0
646,118.85224039166665,120.06404400833333,51.0,66.0
647,118.64390739166666,120.09529395833333,44.0,88.0
648,119.89390539166666,120.16473829166667,63.0,127.0
649,119.89390539166666,120.23418262499999,68.0,122.0
650,120.10223839166666,120.24807149166666,60.0,107.0
651,120.93557039166666,121.02584802499999,70.0,61.0
652,120.93557039166666,121.03105635,65.0,68.0
653,120.93557039166666,121.04841743333333,62.0,72.0
654,120.72723739166666,121.22550048333333,58.0,99.0
655,121.14390339166665,121.348764175,65.0,99.0
656,121.14390339166665,121.39216688333333,62.0,95.0
657,121.14390339166665,121.40952796666666,70.0,117.0
658,120.31057139166666,121.827930075,46.0,90.0
659,120.51890439166667,121.827930075,53.0,55.0
660,121.76890239166666,121.86438835,70.0,58.0
661,121.76890239166666,121.86612445833333,65.0,79.0
662,121.56056939166666,121.87654110833333,58.0,102.0
663,121.76890239166666,121.89216608333332,62.0,92.0
664,121.97723539166667,122.7289703,58.0,99.0
665,121.97723539166667,122.73591473333333,53.0,68.0
666,121.97723539166667,122.73591473333333,65.0,99.0
667,121.97723539166667,122.74806749166666,62.0,97.0
668,121.97723539166667,122.75848414166666,70.0,117.0
669,121.97723539166667,122.79147019999999,46.0,81.0
670,124.26889839166667,124.41820370833332,55.0,69.0
671,124.47723139166666,124.50848134166667,55.0,52.0
672,124.47723139166666,124.53625907499999,58.0,127.0
673,124.47723139166666,124.57098124166666,63.0,127.0
674,124.06056539166666,124.62827281666667,51.0,93.0
675,125.10223039166667,125.18382748333333,67.0,107.0
676,125.10223039166667,125.20466078333332,63.0,112.0
677,125.10223039166667,125.20986910833332,70.0,97.0
678,125.51889639166666,125.67514614166666,67.0,117.0
679,124.89389739166666,125.68903500833333,51.0,82.0
680,125.72722939166665,125.91472909166666,63.0,76.0
681,125.51889639166666,125.94077071666666,70.0,102.0
682,125.93556239166666,126.18035366666666,51.0,83.0
683,126.14389539166666,126.21160361666666,67.0,127.0
684,123.85223239166666,126.327922875,46.0,50.0
685,123.64389939166666,126.3747978,39.0,95.0
686,126.14389539166666,126.380006125,70.0,112.0
687,126.14389539166666,126.39042277499999,63.0,112.0
688,126.35222839166666,126.458131,51.0,93.0
689,126.56056139166667,126.61264464166666,63.0,86.0
690,126.56056139166667,126.66472789166666,67.0,117.0
691,126.56056139166667,126.692505625,70.0,117.0
692,126.76889439166666,126.84354705,67.0,51.0
693,126.76889439166666,126.890421975,70.0,66.0
694,126.76889439166666,126.91819970833333,63.0,117.0
695,127.60222639166666,127.69250402499999,67.0,89.0
696,127.60222639166666,127.69597624166666,62.0,86.0
697,127.60222639166666,127.69944845833332,71.0,78.0
698,127.81055939166666,127.88173983333333,67.0,100.0
699,127.81055939166666,127.89042037499999,71.0,92.0
700,127.81055939166666,127.89215648333332,62.0,102.0
701,127.39389339166667,127.95465638333333,55.0,97.0
702,128.43555839166666,128.52236380833332,62.0,100.0
703,128.43555839166666,128.52409991666667,67.0,96.0
704,128.43555839166666,128.55014154166665,71.0,89.0
705,128.22722539166665,128.94597424166665,55.0,86.0
706,129.06055739166666,129.307084775,62.0,81.0
707,128.85222439166665,129.317501425,67.0,97.0
708,128.85222439166665,129.32965418333333,71.0,93.0
709,126.97722739166666,129.36611245833333,43.0,82.0
710,127.18556039166666,129.3817374333333,50.0,75.0
711,129.26889039166667,129.40257073333333,55.0,88.0
712,129.47722339166666,129.73243131666666,67.0,102.0
713,129.47722339166666,129.73416742499998,71.0,99.0
714,129.89388939166665,130.05534746666666,67.0,99.0
715,130.10222239166666,130.213333325,67.0,41.0
716,129.89388939166665,130.23069440833333,71.0,97.0
717,130.10222239166666,130.24979159999998,62.0,107.0
718,130.93555439166667,131.0622903,60.0,76.0
719,130.72722139166666,131.296664925,56.0,102.0
720,131.14388739166665,131.30534546666667,63.0,127.0
721,131.14388739166665,131.327914875,68.0,117.0
722,131.14388739166665,131.33138709166667,60.0,82.0
723,131.76888639166665,132.01714988333333,60.0,83.0
724,131.76888639166665,132.02756653333333,63.0,117.0
725,131.76888639166665,132.0414554,68.0,96.0
726,131.56055339166667,132.40256593333334,56.0,99.0
727,132.39388539166666,132.59701006666666,60.0,89.0
728,132.18555239166665,132.609162825,63.0,122.0
729,132.18555239166665,132.63173223333334,68.0,107.0
730,132.60221839166667,132.88173183333333,56.0,92.0
731,132.81055139166665,133.03450936666667,63.0,127.0
732,130.72722139166666,133.05534266666666,51.0,8.0
733,132.81055139166665,133.06055099166667,68.0,112.0
734,133.01888439166666,133.124787,56.0,93.0
735,130.31055539166667,133.12825921666666,44.0,79.0
736,133.22721739166667,133.46159201666666,63.0,117.0
737,133.22721739166667,133.52235580833332,68.0,117.0
738,133.43555039166665,133.6039529,60.0,100.0
739,134.26888239166666,134.46506263333333,60.0,83.0
740,134.06054939166665,134.494576475,53.0,96.0
741,133.85221639166667,134.57270135,48.0,85.0
742,133.64388339166666,134.65256233333332,41.0,97.0
743,134.47721539166665,134.82270094999998,65.0,102.0
744,134.68554839166666,134.838325925,53.0,107.0
745,134.47721539166665,134.95464518333333,68.0,122.0
746,134.89388139166667,135.22895029999998,60.0,107.0
747,135.10221439166665,135.24110305833332,65.0,100.0
748,135.10221439166665,135.26193635833332,68.0,122.0
749,135.93554639166666,136.03276845833332,65.0,96.0
750,135.93554639166666,136.03971289166665,70.0,97.0
751,135.93554639166666,136.04318510833332,62.0,89.0
752,135.72721339166665,136.18554599166666,58.0,99.0
753,136.14387939166667,136.36436515,62.0,90.0
754,136.14387939166667,136.39214288333332,65.0,100.0
755,136.14387939166667,136.411240075,70.0,117.0
756,135.51888039166667,136.421656725,53.0,40.0
757,135.31054739166666,136.49110105833333,46.0,88.0
758,136.35221239166665,136.50325381666667,58.0,112.0
759,136.56054539166666,136.72200346666665,65.0,107.0
760,136.76887839166665,136.85221159166667,65.0,47.0
761,136.56054539166666,136.86610045833334,70.0,127.0
762,136.76887839166665,136.890405975,62.0,117.0
763,137.60221039166666,137.692488025,70.0,90.0
764,137.60221039166666,137.69943245833332,62.0,79.0
765,137.60221039166666,137.69943245833332,67.0,93.0
766,137.39387739166665,137.87651550833334,55.0,102.0
767,137.81054339166667,137.88866826666666,62.0,97.0
768,137.81054339166667,137.921654325,67.0,107.0
769,137.81054339166667,137.92512654166666,70.0,127.0
770,138.43554239166667,138.525820025,67.0,112.0
771,138.43554239166667,138.536236675,70.0,117.0
772,138.43554239166667,138.57095884166665,62.0,93.0
773,138.22720939166666,139.01019424999998,55.0,92.0
774,139.06054139166665,139.27929104166665,62.0,89.0
775,138.85220839166666,139.317485425,67.0,112.0
776,138.85220839166666,139.32616596666665,70.0,127.0
777,136.97721139166666,139.40949916666665,43.0,76.0
778,139.26887439166666,139.40949916666665,55.0,112.0
779,137.18554439166667,139.41817970833333,50.0,79.0
780,139.47720739166667,139.76713748333333,70.0,117.0
781,139.47720739166667,139.76887359166665,67.0,100.0
782,139.68554039166665,139.91817890833332,62.0,83.0
783,139.89387339166666,140.19942845833333,67.0,95.0
784,139.89387339166666,140.21678954166666,70.0,107.0
785,140.10220639166667,140.2497756,62.0,100.0
786,140.93553839166665,141.03102435,63.0,86.0
787,140.93553839166665,141.03102435,68.0,61.0
788,140.93553839166665,141.06053819166667,60.0,88.0
789,140.72720539166667,141.28796838333332,56.0,95.0
790,141.14387139166666,141.29317670833333,63.0,127.0
791,141.14387139166666,141.327898875,68.0,117.0
792,141.14387139166666,141.33137109166665,60.0,90.0
793,141.76887039166667,141.8956063,63.0,117.0
794,141.76887039166667,141.911231275,68.0,112.0
795,141.76887039166667,141.92685625,60.0,86.0
796,142.18553639166666,142.36609165833332,63.0,107.0
797,141.56053739166666,142.421647125,56.0,89.0
798,142.39386939166667,142.52928584166665,63.0,34.0
799,142.39386939166667,142.60220239166665,60.0,86.0
800,142.18553639166666,142.60914682499998,68.0,112.0
801,140.51887239166666,142.71678554166667,51.0,31.0
802,140.31053939166665,142.84178534166665,44.0,92.0
803,142.60220239166665,142.8921324833333,56.0,93.0
804,142.81053539166666,143.08136829166665,63.0,127.0
805,142.81053539166666,143.08136829166665,68.0,127.0
806,143.22720139166665,143.4789371,63.0,127.0
807,143.22720139166665,143.50845094166667,68.0,122.0
808,143.43553439166666,143.58136749166667,60.0,100.0
809,143.64386739166665,143.72546448333333,53.0,74.0
810,143.64386739166665,143.7289367,46.0,122.0
811,143.64386739166665,143.73240891666666,58.0,89.0
812,143.64386739166665,143.73588113333332,62.0,78.0
813,143.85220039166666,143.90601974999998,53.0,43.0
814,143.85220039166666,143.93032526666667,58.0,75.0
815,143.85220039166666,143.93032526666667,62.0,72.0
816,143.85220039166666,143.94247802499999,46.0,100.0
817,144.06053339166667,144.13692215833333,53.0,72.0
818,144.06053339166667,144.13865826666665,62.0,76.0
819,144.06053339166667,144.140394375,58.0,90.0
820,144.06053339166667,144.15428324166666,46.0,100.0
821,144.26886639166665,144.34699126666666,53.0,69.0
822,144.26886639166665,144.35219959166665,62.0,78.0
823,144.26886639166665,144.35567180833334,58.0,92.0
824,144.26886639166665,144.359144025,46.0,77.0
825,144.47719939166666,144.52928264166667,53.0,78.0
826,144.47719939166666,144.536227075,58.0,90.0
827,144.47719939166666,144.54143539999998,62.0,75.0
828,144.47719939166666,144.567477025,46.0,127.0
829,144.89386539166665,145.00844854166667,67.0,95.0
830,144.89386539166665,145.01365686666665,63.0,127.0
831,144.89386539166665,145.03449016666667,51.0,112.0
832,145.31053139166667,145.494558875,58.0,127.0
833,145.31053139166667,145.515392175,62.0,99.0
834,145.31053139166667,145.51712828333334,46.0,107.0
835,146.97719539166667,148.348720975,36.0,62.0
836,146.97719539166667,148.35219319166666,43.0,82.0
837,146.97719539166667,148.44594304166665,48.0,85.0
838,146.97719539166667,148.56052619166667,55.0,102.0
839,146.97719539166667,148.60913722499998,60.0,107.0
840,146.97719539166667,148.744553675,63.0,102.0
841,151.14385539166665,151.23239691666666,63.0,97.0
842,151.14385539166665,151.23586913333332,60.0,85.0
843,151.14385539166665,151.24107745833334,67.0,79.0
844,150.72718939166666,151.30704957499998,55.0,56.0
845,151.56052139166667,152.07267335,55.0,59.0
846,151.76885439166665,152.35045068333332,63.0,96.0
847,151.76885439166665,152.35218679166667,60.0,77.0
848,151.76885439166665,152.38343674166666,67.0,73.0
849,152.39385339166665,152.87822761666666,55.0,70.0
850,150.31052339166666,153.03968569166665,48.0,71.0
851,153.01885239166666,153.12822721666666,55.0,62.0
852,152.81051939166667,153.27232420833332,63.0,100.0
853,152.81051939166667,153.5952403583333,67.0,72.0
854,153.43551839166665,153.59697646666666,63.0,86.0
855,153.22718539166667,153.60739311666666,60.0,93.0
856,154.47718339166667,154.5414194,65.0,82.0
857,154.47718339166667,154.54662772499998,62.0,78.0
858,154.47718339166667,154.56572491666665,70.0,82.0
859,154.47718339166667,154.72197466666665,58.0,69.0
860,155.10218239166667,155.18030726666666,65.0,82.0
861,155.10218239166667,155.18898780833334,62.0,75.0
862,155.10218239166667,155.22023775833333,70.0,89.0
863,155.51884839166667,155.58655661666666,65.0,79.0
864,155.51884839166667,155.59176494166667,70.0,92.0
865,154.89384939166666,155.62822321666667,58.0,52.0
866,154.06051739166665,156.03620867499998,53.0,67.0
867,155.93551439166666,156.08481970833333,58.0,82.0
868,153.64385139166666,156.11954187499998,46.0,85.0
869,156.14384739166667,156.80356855833332,65.0,82.0
870,156.14384739166667,156.91120727499998,70.0,92.0
871,156.56051339166666,156.942457225,62.0,83.0
872,157.81051139166667,157.86085853333333,67.0,92.0
873,157.81051139166667,157.86085853333333,70.0,88.0
874,157.81051139166667,157.89558069999998,63.0,97.0
875,157.39384539166667,157.89731680833333,46.0,27.0
876,158.43551039166667,158.50842694166667,67.0,82.0
877,158.43551039166667,158.50842694166667,70.0,72.0
878,158.43551039166667,158.52405191666665,63.0,85.0
879,157.81051139166667,158.57960738333333,51.0,71.0
880,158.64384339166665,158.80703757499998,51.0,26.0
881,158.85217639166666,158.921620725,67.0,83.0
882,158.85217639166666,158.93550959166666,70.0,67.0
883,158.85217639166666,158.93898180833332,63.0,78.0
884,159.26884239166665,159.536203075,51.0,74.0
885,159.47717539166666,159.536203075,51.0,66.0
886,159.47717539166666,159.57266135,70.0,88.0
887,159.47717539166666,159.58655021666667,67.0,99.0
888,158.22717739166666,159.58828632499998,46.0,36.0
889,156.97717939166665,159.67682785,39.0,79.0
890,159.89384139166665,160.02752173333332,67.0,100.0
891,159.89384139166665,160.20634089166666,70.0,93.0
892,160.10217439166667,160.23759084166667,63.0,86.0
893,161.14383939166666,161.223700375,63.0,93.0
894,161.14383939166666,161.234117025,60.0,81.0
895,161.14383939166666,161.23758924166665,67.0,73.0
896,160.72717339166667,161.30876968333334,55.0,52.0
897,161.76883839166666,161.84001883333332,63.0,92.0
898,161.76883839166666,161.84696326666665,67.0,69.0
899,161.76883839166666,161.859116025,60.0,75.0
900,162.18550439166665,162.26883759166665,63.0,88.0
901,162.18550439166665,162.27751813333333,60.0,74.0
902,162.18550439166665,162.28099035,67.0,69.0
903,161.56050539166665,162.38515685,55.0,63.0
904,162.60217039166665,162.87647550833333,55.0,77.0
905,160.31050739166665,163.213280525,48.0,78.0
906,163.01883639166667,163.21675274166665,55.0,86.0
907,162.81050339166666,163.25841934166667,63.0,117.0
908,162.81050339166666,163.31571091666666,67.0,90.0
909,163.22716939166665,163.62300209166665,60.0,90.0
910,164.47716739166665,164.55182005,63.0,97.0
911,164.47716739166665,164.55876448333333,60.0,82.0
912,164.47716739166665,164.56050059166665,67.0,74.0
913,164.06050139166666,164.61431994999998,55.0,73.0
914,165.10216639166666,165.17681905,63.0,85.0
915,165.10216639166666,165.17855515833332,67.0,65.0
916,165.10216639166666,165.18549959166666,60.0,69.0
917,165.51883239166665,165.61431835,63.0,85.0
918,165.51883239166665,165.619526675,67.0,65.0
919,164.89383339166665,165.72195706666665,55.0,58.0
920,165.93549839166667,166.192442425,55.0,74.0
921,163.64383539166667,166.21674794166665,48.0,89.0
922,166.14383139166665,166.42334483333332,63.0,100.0
923,166.14383139166665,166.42508094166666,67.0,72.0
924,166.56049739166667,166.70285827499998,63.0,100.0
925,166.56049739166667,166.84174694166666,67.0,69.0
926,166.56049739166667,167.01188555833332,60.0,68.0
927,167.81049539166665,167.89382859166665,65.0,89.0
928,167.81049539166665,167.91292578333332,62.0,86.0
929,167.81049539166665,167.91987021666665,70.0,93.0
930,168.43549439166665,168.50841094166665,65.0,88.0
931,168.43549439166665,168.51882759166665,62.0,77.0
932,168.43549439166665,168.52229980833332,70.0,81.0
933,168.22716139166667,168.61257744166667,58.0,79.0
934,168.85216039166667,168.92681305,65.0,77.0
935,168.85216039166667,168.932021375,62.0,70.0
936,168.85216039166667,168.9372297,70.0,77.0
937,167.39382939166666,169.37820121666667,53.0,48.0
938,169.26882639166666,169.38340954166665,58.0,72.0
939,166.97716339166666,169.45979830833332,46.0,97.0
940,169.47715939166665,169.57438145833333,65.0,85.0
941,169.47715939166665,169.58306199999998,62.0,79.0
942,169.47715939166665,169.60215919166666,70.0,85.0
943,169.89382539166667,170.02229740833332,65.0,78.0
944,169.89382539166667,170.1056306083333,70.0,83.0
945,169.89382539166667,170.11604725833334,62.0,77.0
946,171.14382339166667,171.22715659166667,67.0,90.0
947,171.14382339166667,171.24278156666665,70.0,79.0
948,171.14382339166667,171.24798989166666,63.0,88.0
949,170.72715739166665,171.327850875,46.0,53.0
950,171.76882239166665,171.83479450833332,67.0,97.0
951,171.76882239166665,171.83479450833332,70.0,83.0
952,171.76882239166665,171.84347505,63.0,88.0
953,172.18548839166667,172.26708548333332,67.0,83.0
954,172.18548839166667,172.27402991666665,63.0,74.0
955,172.18548839166667,172.275766025,70.0,59.0
956,171.14382339166667,172.30354375833332,51.0,57.0
957,172.60215439166666,172.879931725,51.0,65.0
958,172.81048739166667,172.90250113333332,67.0,96.0
959,172.81048739166667,172.91465389166666,70.0,90.0
960,172.81048739166667,172.91638999999998,63.0,89.0
961,171.56048939166666,173.04833423333332,46.0,36.0
962,170.31049139166666,173.124723,39.0,73.0
963,173.01882039166665,173.13166743333332,51.0,79.0
964,173.22715339166666,173.34000043333333,67.0,93.0
965,173.22715339166666,173.34694486666666,70.0,77.0
966,173.43548639166667,173.57090284166665,63.0,90.0
967,174.47715139166667,174.57437345833333,63.0,95.0
968,174.47715139166667,174.58131789166666,60.0,79.0
969,174.47715139166667,174.58479010833332,67.0,72.0
970,175.10215039166667,175.19416413333332,67.0,75.0
971,175.10215039166667,175.20110856666665,63.0,96.0
972,175.10215039166667,175.202844675,60.0,77.0
973,175.51881639166666,175.61083013333334,63.0,86.0
974,175.51881639166666,175.61083013333334,67.0,69.0
975,175.51881639166666,175.61603845833332,60.0,72.0
976,174.06048539166665,175.76881599166666,48.0,58.0
977,176.14381539166666,176.23235691666665,67.0,76.0
978,176.14381539166666,176.2358291333333,63.0,99.0
979,176.14381539166666,176.244509675,60.0,79.0
980,176.56048139166666,176.62818961666665,63.0,88.0
981,176.56048139166666,176.63513405,67.0,63.0
982,176.56048139166666,176.63687015833332,60.0,72.0
983,175.93548239166665,176.70110616666665,48.0,48.0
984,174.89381739166666,176.702842275,43.0,43.0
985,173.64381939166665,176.82089764166665,36.0,67.0
986,177.60214639166665,178.24450647499998,60.0,76.0
987,177.81047939166666,178.28443696666665,68.0,122.0
988,178.22714539166665,178.34520075833333,63.0,83.0
989,178.43547839166666,178.58478370833333,63.0,102.0
990,178.43547839166666,178.62645030833332,60.0,90.0
991,178.43547839166666,178.65422804166667,68.0,92.0
992,177.39381339166667,179.04311630833334,56.0,96.0
993,178.85214439166666,179.17506054166665,63.0,102.0
994,178.85214439166666,179.29311590833333,68.0,89.0
995,179.06047739166667,179.29832423333332,60.0,45.0
996,177.18548039166666,179.5483238333333,51.0,50.0
997,179.26881039166665,179.59346265,56.0,72.0
998,176.97714739166665,179.63860146666667,44.0,89.0
999,179.47714339166666,179.83130949166664,63.0,117.0
1000,179.47714339166666,179.85040668333332,68.0,102.0
1001,179.89380939166665,180.161170075,68.0,54.0
1002,179.89380939166665,180.17505894166666,63.0,86.0
1003,179.89380939166665,180.22714219166667,60.0,86.0
1004,181.35214039166667,181.379918125,55.0,37.0
1005,180.72714139166666,181.47714019166665,50.0,56.0
1006,180.31047539166667,181.52227900833333,43.0,78.0
1007,181.14380739166666,181.58130669166667,70.0,102.0
1008,181.14380739166666,181.59345944999998,67.0,97.0
1009,181.56047339166665,181.81915353333332,62.0,89.0
1010,181.97713939166667,182.48755524166666,60.0,93.0
1011,181.97713939166667,182.50491632499998,63.0,85.0
1012,181.97713939166667,182.56915233333334,67.0,72.0
1013,182.39380539166666,183.03269325833332,43.0,61.0
1014,181.97713939166667,183.03963769166666,36.0,73.0
1015,183.01880439166666,183.13685975833332,48.0,86.0
1016,182.81047139166665,183.22713739166664,63.0,102.0
1017,182.81047139166665,183.42852595833332,67.0,85.0
1018,183.22713739166664,183.59519235833332,60.0,93.0
1019,183.43547039166666,183.6247062,63.0,92.0
1020,184.06046939166666,184.588246325,51.0,54.0
1021,184.47713539166665,184.744496075,56.0,85.0
1022,183.64380339166667,184.82262095,44.0,75.0
1023,184.47713539166665,184.93546799166666,63.0,112.0
1024,184.47713539166665,185.22018975833333,68.0,112.0
1025,185.10213439166665,185.2913702,63.0,97.0
1026,184.89380139166667,185.32088404166666,60.0,89.0
1027,185.72713339166665,186.254910325,48.0,48.0
1028,185.31046739166666,186.27053529999998,41.0,77.0
1029,186.14379939166665,186.28268805833332,53.0,75.0
1030,186.14379939166665,186.63511805,65.0,102.0
1031,186.76879839166665,186.89900651666665,65.0,42.0
1032,186.14379939166665,186.9372009,68.0,122.0
1033,186.56046539166667,186.9753952833333,60.0,86.0
1034,187.60213039166666,187.82088004166667,62.0,68.0
1035,187.39379739166665,187.83997723333331,58.0,95.0
1036,187.81046339166664,188.25837934166665,65.0,77.0
1037,186.97713139166666,188.463240125,46.0,72.0
1038,187.18546439166667,188.65594815,53.0,54.0
1039,188.22712939166667,189.04310030833332,62.0,82.0
1040,188.43546239166665,189.07955858333332,65.0,73.0
1041,187.81046339166664,189.09691966666665,70.0,95.0
1042,189.06046139166665,189.46497463333333,53.0,31.0
1043,188.64379539166666,189.47712739166667,46.0,99.0
1044,188.01879639166665,189.47712739166667,58.0,95.0
1045,189.47712739166667,189.68372428333333,67.0,92.0
1046,189.47712739166667,189.73059920833333,63.0,122.0
1047,189.47712739166667,189.8746962,51.0,117.0
1048,189.89379339166666,190.17504294166665,46.0,93.0
1049,189.89379339166666,190.213237325,58.0,117.0
1050,189.89379339166666,190.26011225,62.0,76.0
1051,190.72712539166665,191.33649941666667,51.0,41.0
1052,191.14379139166667,191.58476290833332,63.0,117.0
1053,191.14379139166667,191.806984775,60.0,82.0
1054,191.14379139166667,192.171567525,56.0,83.0
1055,191.76879039166667,192.46844205,63.0,78.0
1056,191.76879039166667,192.53094195,68.0,92.0
1057,192.39378939166664,192.62121958333333,60.0,58.0
1058,192.18545639166666,192.74969159999998,56.0,58.0
1059,191.56045739166666,193.44413493333332,51.0,41.0
1060,192.81045539166666,193.53441256666665,63.0,102.0
1061,193.22712139166666,193.55524586666667,60.0,88.0
1062,192.81045539166666,193.56045419166665,68.0,102.0
1063,190.31045939166665,193.59691246666665,44.0,93.0
1064,194.06045339166667,194.56913313333334,50.0,43.0
1065,194.47711939166666,194.59517475833331,55.0,78.0
1066,193.64378739166665,194.61079973333332,43.0,99.0
1067,194.47711939166666,194.890313175,67.0,102.0
1068,194.47711939166666,194.91288258333333,71.0,99.0
1069,194.89378539166665,195.25315981666665,62.0,83.0
1070,195.72711739166667,196.40593575,43.0,58.0
1071,195.31045139166665,196.41461629166665,36.0,78.0
1072,196.35211639166667,196.47711619166665,48.0,86.0
1073,196.14378339166666,196.60558820833333,63.0,122.0
1074,196.14378339166666,196.994476475,67.0,93.0
1075,196.56044939166665,197.05003194166665,60.0,93.0
1076,197.39378139166666,197.97190546666667,51.0,55.0
1077,197.81044739166666,198.213224525,56.0,83.0
1078,196.97711539166664,198.28787718333334,44.0,79.0
1079,197.81044739166666,198.30350215833332,63.0,96.0
1080,198.43544639166666,198.62815441666666,63.0,56.0
1081,198.22711339166665,198.65245993333332,60.0,86.0
1082,197.81044739166666,198.66287658333331,68.0,102.0
1083,199.06044539166666,199.71843045,48.0,36.0
1084,198.64377939166667,199.75315261666665,41.0,75.0
1085,199.47711139166665,199.87294409166665,53.0,88.0
1086,199.47711139166665,200.265304575,65.0,122.0
1087,199.47711139166665,200.28440176666666,68.0,127.0
1088,199.89377739166665,200.2930823083333,60.0,89.0
1089,200.31044339166667,200.59342905,46.0,71.0
1090,200.31044339166667,200.59516515833332,58.0,95.0
1091,200.31044339166667,200.62815121666665,62.0,99.0
1092,200.31044339166667,200.63683175833333,65.0,92.0
1093,200.72710939166666,200.99620618333333,58.0,93.0
1094,200.72710939166666,201.00315061666666,46.0,86.0
1095,200.72710939166666,201.01877559166667,70.0,92.0
1096,200.72710939166666,201.03440056666665,62.0,90.0
1097,200.72710939166666,201.05349775833332,65.0,81.0
1098,201.14377539166665,201.369469475,58.0,99.0
1099,201.14377539166665,201.39030277499998,46.0,99.0
1100,201.14377539166665,201.41634439999999,70.0,95.0
1101,201.14377539166665,201.42328883333332,62.0,97.0
1102,201.14377539166665,201.44759435,65.0,88.0
1103,201.56044139166667,201.8538437,58.0,95.0
1104,201.56044139166667,201.86426035,62.0,107.0
1105,201.56044139166667,201.86773256666666,46.0,88.0
1106,201.56044139166667,201.86946867499998,70.0,100.0
1107,201.56044139166667,201.89551029999998,65.0,90.0
1108,201.97710739166666,202.150718225,58.0,97.0
1109,201.97710739166666,202.16460709166665,46.0,100.0
1110,201.97710739166666,202.18370428333333,62.0,107.0
1111,201.97710739166666,202.19759315,70.0,107.0
1112,201.97710739166666,202.20800979999999,65.0,96.0
1113,204.06043739166665,204.33647861666665,63.0,88.0
1114,204.06043739166665,204.48231171666666,51.0,97.0
1115,204.47710339166665,204.5413394,67.0,112.0
1116,204.47710339166665,204.65418644166667,63.0,117.0
1117,204.47710339166665,204.76703348333334,70.0,127.0
1118,204.89376939166667,205.00661643333333,63.0,99.0
1119,203.64377139166666,205.18196337499998,39.0,100.0
1120,205.10210239166665,205.19932445833334,67.0,117.0
1121,203.85210439166667,205.30522706666665,46.0,127.0
1122,205.31043539166666,205.44585184166667,39.0,40.0
1123,205.10210239166665,205.56737942499998,63.0,122.0
1124,205.31043539166666,205.57432385833332,67.0,31.0
1125,205.10210239166665,205.60730991666665,70.0,122.0
1126,204.68543639166666,205.80001794166665,51.0,122.0
1127,205.72710139166665,205.931962175,70.0,85.0
1128,205.72710139166665,206.02918424166666,63.0,117.0
1129,205.93543439166666,206.21494783333333,51.0,112.0
1130,206.14376739166667,206.40418364166666,67.0,122.0
1131,205.51876839166667,206.41807250833332,46.0,66.0
1132,206.14376739166667,206.43022526666667,70.0,127.0
1133,206.35210039166665,206.45453078333333,51.0,100.0
1134,205.51876839166667,206.57605836666664,39.0,70.0
1135,206.56043339166666,206.900710625,70.0,35.0
1136,206.56043339166666,206.92501614166665,63.0,102.0
1137,206.76876639166665,206.9284883583333,67.0,93.0
1138,207.60209839166666,207.744459275,60.0,77.0
1139,207.39376539166665,207.81563971666665,48.0,95.0
1140,208.01876439166665,208.2080002,48.0,97.0
1141,207.81043139166667,208.25313901666667,63.0,127.0
1142,207.81043139166667,208.26876399166665,67.0,107.0
1143,208.22709739166666,208.49445807499998,60.0,96.0
1144,208.43543039166667,208.69411053333332,67.0,100.0
1145,208.43543039166667,208.69758274999998,63.0,127.0
1146,208.85209639166666,208.957999,67.0,100.0
1147,208.85209639166666,208.96147121666667,63.0,127.0
1148,209.06042939166664,209.10730431666667,60.0,76.0
1149,209.06042939166664,209.1732764333333,63.0,127.0
1150,209.06042939166664,209.19410973333333,67.0,97.0
1151,209.26876239166666,209.51528977499999,48.0,107.0
1152,206.97709939166666,209.70973390833333,36.0,83.0
1153,207.18543239166667,209.723622775,43.0,60.0
1154,209.47709539166667,209.75313661666667,63.0,127.0
1155,209.47709539166667,209.76181715833332,67.0,97.0
1156,209.68542839166665,209.869455875,48.0,99.0
1157,209.89376139166666,210.18021926666665,67.0,89.0
1158,209.89376139166666,210.21146921666664,63.0,127.0
1159,210.10209439166667,210.31910793333333,60.0,100.0
1160,210.93542639166665,211.10730111666666,60.0,97.0
1161,210.72709339166667,211.20105096666666,53.0,112.0
1162,210.31042739166665,211.50139770833331,41.0,85.0
1163,211.14375939166666,211.52396711666665,65.0,107.0
1164,210.51876039166666,211.53438376666665,48.0,93.0
1165,211.35209239166664,211.59514755833334,53.0,100.0
1166,211.14375939166666,211.60730031666665,68.0,127.0
1167,211.76875839166667,211.9441053333333,65.0,97.0
1168,211.76875839166667,211.96667474166665,68.0,112.0
1169,211.56042539166666,211.99098025833334,60.0,96.0
1170,212.39375739166667,212.84167334166665,56.0,117.0
1171,212.60209039166665,212.91458989166665,60.0,93.0
1172,212.81042339166666,213.036117475,63.0,117.0
1173,212.81042339166666,213.08820072499998,68.0,117.0
1174,213.01875639166667,213.36250584166666,56.0,117.0
1175,213.22708939166665,213.45104736666664,63.0,122.0
1176,213.22708939166665,213.45972790833332,68.0,122.0
1177,212.18542439166666,213.47188066666666,51.0,96.0
1178,211.97709139166665,213.48576953333333,44.0,82.0
1179,213.43542239166666,213.52917224166666,60.0,99.0
1180,214.26875439166665,214.3191015333333,65.0,56.0
1181,214.26875439166665,214.390281975,60.0,96.0
1182,214.47708739166666,214.54132339999998,60.0,86.0
1183,214.06042139166667,214.56389280833332,53.0,100.0
1184,214.47708739166666,214.77222580833333,65.0,102.0
1185,214.68542039166667,214.87292009166666,60.0,52.0
1186,214.47708739166666,214.91458669166667,68.0,107.0
1187,213.85208839166665,215.161114075,48.0,90.0
1188,214.89375339166665,215.16979461666665,53.0,102.0
1189,215.10208639166666,215.17326683333332,60.0,93.0
1190,213.64375539166664,215.17847515833333,41.0,92.0
1191,215.10208639166666,215.18715569999998,65.0,112.0
1192,215.10208639166666,215.20625289166665,68.0,107.0
1193,215.93541839166664,216.02916824166667,62.0,89.0
1194,215.93541839166664,216.03958489166666,65.0,95.0
1195,215.93541839166664,216.056945975,70.0,96.0
1196,215.72708539166666,216.19757074999998,58.0,102.0
1197,216.14375139166665,216.3243066583333,62.0,99.0
1198,216.14375139166665,216.38680655833332,65.0,117.0
1199,216.14375139166665,216.40590375,70.0,117.0
1200,216.35208439166666,216.50659803333332,58.0,112.0
1201,215.51875239166665,216.50833414166667,53.0,58.0
1202,215.31041939166667,216.56909793333332,46.0,100.0
1203,216.56041739166665,216.66805610833333,65.0,112.0
1204,216.56041739166665,216.68715329999998,70.0,127.0
1205,216.76875039166666,216.89895851666665,62.0,107.0
1206,216.76875039166666,216.91458349166666,65.0,92.0
1207,216.76875039166666,216.95277787499998,70.0,107.0
1208,217.60208239166667,217.74791549166665,55.0,70.0
1209,217.39374939166666,217.838193125,51.0,102.0
1210,217.81041539166665,217.931942975,58.0,127.0
1211,217.81041539166665,217.94062351666665,63.0,127.0
1212,218.22708139166664,218.28784518333333,63.0,50.0
1213,218.22708139166664,218.359025625,55.0,61.0
1214,218.43541439166665,218.494442075,58.0,127.0
1215,218.01874839166666,218.52395591666667,51.0,100.0
1216,218.43541439166665,218.52742813333333,63.0,117.0
1217,218.85208039166665,218.90589975,70.0,78.0
1218,218.85208039166665,218.93367748333333,67.0,92.0
1219,218.85208039166665,218.9388858083333,63.0,93.0
1220,218.64374739166666,219.11770496666665,51.0,85.0
1221,219.06041339166666,219.12291329166666,67.0,122.0
1222,219.06041339166666,219.14895491666667,63.0,112.0
1223,219.06041339166666,219.14895491666667,70.0,117.0
1224,219.26874639166667,219.5413154,51.0,85.0
1225,219.47707939166665,219.5743014583333,67.0,112.0
1226,217.18541639166665,219.72360677499998,46.0,92.0
1227,219.47707939166665,219.76353726666665,70.0,117.0
1228,216.97708339166667,219.78610667499998,39.0,96.0
1229,219.68541239166666,219.79305110833332,51.0,97.0
1230,219.89374539166667,219.96492583333333,70.0,40.0
1231,219.89374539166667,220.04999514166667,63.0,107.0
1232,220.10207839166665,220.19582824166665,63.0,58.0
1233,220.10207839166665,220.22881429999998,70.0,102.0
1234,220.93541039166666,221.09513235833333,60.0,93.0
1235,220.72707739166665,221.21145161666666,48.0,93.0
1236,221.14374339166665,221.23922935,63.0,127.0
1237,221.14374339166665,221.24617378333332,67.0,117.0
1238,221.14374339166665,221.254854325,60.0,71.0
1239,221.76874239166665,221.8329784,63.0,117.0
1240,221.76874239166665,221.83471450833332,60.0,102.0
1241,221.76874239166665,221.85033948333333,55.0,99.0
1242,221.56040939166667,221.89895051666664,48.0,88.0
1243,221.97707539166666,222.30346375833332,48.0,61.0
1244,222.39374139166665,222.619435475,55.0,82.0
1245,222.18540839166667,222.6246438,63.0,122.0
1246,222.18540839166667,222.63332434166665,60.0,117.0
1247,222.60207439166666,222.85728231666667,48.0,89.0
1248,220.31041139166666,223.056934775,36.0,82.0
1249,220.51874439166664,223.06387920833333,43.0,85.0
1250,222.81040739166664,223.09686526666667,63.0,127.0
1251,222.81040739166664,223.10207359166665,60.0,122.0
1252,223.01874039166665,223.18193457499999,48.0,88.0
1253,223.22707339166666,223.536100675,60.0,112.0
1254,223.43540639166665,223.54825343333331,55.0,100.0
1255,223.22707339166666,223.54825343333331,63.0,117.0
1256,224.26873839166666,224.41283538333332,60.0,85.0
1257,224.06040539166665,224.51352966666667,53.0,93.0
1258,223.85207239166667,224.75658483333333,48.0,77.0
1259,223.64373939166666,224.76179315833332,41.0,88.0
1260,224.68540439166665,224.82602916666664,53.0,97.0
1261,224.47707139166667,224.94408453333332,68.0,127.0
1262,224.47707139166667,224.95102896666666,65.0,117.0
1263,225.10207039166664,225.265264575,65.0,107.0
1264,225.10207039166664,225.28088954999998,68.0,127.0
1265,224.89373739166666,225.28783398333331,60.0,102.0
1266,225.93540239166666,226.03088835,68.0,52.0
1267,225.93540239166666,226.03609667499998,63.0,78.0
1268,225.93540239166666,226.04651332499998,60.0,69.0
1269,225.72706939166665,226.19408253333333,56.0,99.0
1270,226.14373539166667,226.39894331666665,63.0,122.0
1271,226.14373539166667,226.40415164166666,68.0,127.0
1272,226.35206839166665,226.58644301666666,56.0,102.0
1273,225.51873639166666,226.73054000833332,51.0,66.0
1274,225.31040339166665,226.7617899583333,44.0,88.0
1275,226.56040139166666,226.83123429166665,63.0,127.0
1276,226.56040139166666,226.90067862499998,68.0,122.0
1277,226.76873439166667,226.91456749166665,60.0,107.0
1278,227.60206639166665,227.69234402499998,70.0,61.0
1279,227.60206639166665,227.69755235,65.0,68.0
1280,227.60206639166665,227.71491343333332,62.0,72.0
1281,227.39373339166664,227.89199648333332,58.0,99.0
1282,227.81039939166666,228.01526017499998,65.0,99.0
1283,227.81039939166666,228.0586628833333,62.0,95.0
1284,227.81039939166666,228.07602396666667,70.0,117.0
1285,226.97706739166665,228.49442607499998,46.0,90.0
1286,227.18540039166666,228.49442607499998,53.0,55.0
1287,228.43539839166667,228.53088434999998,70.0,58.0
1288,228.43539839166667,228.53262045833333,65.0,79.0
1289,228.22706539166666,228.54303710833332,58.0,102.0
1290,228.43539839166667,228.55866208333333,62.0,92.0
1291,228.64373139166665,229.39546629999998,58.0,99.0
1292,228.64373139166665,229.4024107333333,53.0,68.0
1293,228.64373139166665,229.4024107333333,65.0,99.0
1294,228.64373139166665,229.41456349166666,62.0,97.0
1295,228.64373139166665,229.42498014166665,70.0,117.0
1296,228.64373139166665,229.4579662,46.0,81.0
1297,231.14372739166666,231.44581024166666,44.0,122.0
1298,231.14372739166666,231.54997674166665,60.0,127.0
1299,231.14372739166666,231.57254615,63.0,127.0
1300,231.14372739166666,231.5846989083333,56.0,117.0
1301,231.97705939166664,232.66803050833332,58.0,127.0
1302,231.97705939166664,232.67497494166665,55.0,102.0
1303,231.97705939166664,232.6888638083333,63.0,102.0
1304,231.97705939166664,232.92323843333332,51.0,97.0
1305,233.01872439166667,233.16455749166664,51.0,89.0
1306,232.81039139166666,233.20101576666664,55.0,100.0
1307,231.97705939166664,233.22358517499998,39.0,90.0
1308,232.81039139166666,233.567334625,58.0,127.0
1309,232.81039139166666,233.59337624999998,63.0,127.0
1310,233.43539039166666,233.71316772499998,55.0,96.0
1311,234.06038939166666,234.52913864166666,48.0,107.0
1312,234.26872239166664,234.56038859166665,55.0,93.0
1313,234.47705539166665,234.99615178333332,63.0,127.0
1314,234.47705539166665,235.00136010833333,60.0,117.0
1315,235.10205439166666,235.41628999999998,60.0,99.0
1316,235.10205439166666,235.41628999999998,63.0,112.0
1317,235.31038739166667,235.42670665,55.0,32.0
1318,234.89372139166665,235.75309501666666,48.0,92.0
1319,235.72705339166666,235.98226131666667,55.0,74.0
1320,235.51872039166665,235.98399742499998,60.0,117.0
1321,235.51872039166665,235.98920575,63.0,117.0
1322,235.93538639166667,236.17670545,48.0,88.0
1323,233.64372339166667,236.41455229166667,36.0,69.0
1324,236.14371939166665,236.41976061666665,60.0,117.0
1325,236.14371939166665,236.44059391666664,63.0,127.0
1326,233.85205639166665,236.46489943333333,43.0,69.0
1327,236.35205239166666,236.57601036666665,48.0,89.0
1328,236.56038539166664,236.89545429999998,60.0,122.0
1329,236.76871839166665,236.9128153833333,55.0,102.0
1330,236.56038539166664,236.921495925,63.0,100.0
1331,237.60205039166667,237.68538359166666,68.0,86.0
1332,237.60205039166667,237.6940641333333,65.0,88.0
1333,237.60205039166667,237.7044807833333,60.0,95.0
1334,237.39371739166666,237.87809161666667,53.0,95.0
1335,236.97705139166666,238.16802170833333,41.0,92.0
1336,237.18538439166664,238.17496614166666,48.0,88.0
1337,237.81038339166665,238.18538279166665,65.0,117.0
1338,238.01871639166666,238.20447998333333,53.0,107.0
1339,238.22704939166667,238.29822983333332,65.0,38.0
1340,237.81038339166665,238.31385480833333,68.0,127.0
1341,238.43538239166665,238.62809041666665,65.0,99.0
1342,238.22704939166667,238.629826525,60.0,112.0
1343,238.43538239166665,238.64371539166666,68.0,112.0
1344,239.26871439166666,239.41801970833333,60.0,90.0
1345,239.06038139166665,239.52218620833332,56.0,102.0
1346,238.85204839166664,239.7461441833333,51.0,34.0
1347,239.68538039166665,239.80343575833334,56.0,122.0
1348,238.64371539166666,239.82253294999998,44.0,90.0
1349,239.47704739166664,239.93364388333333,68.0,127.0
1350,239.47704739166664,239.9492688583333,63.0,127.0
1351,240.10204639166665,240.28954609166667,63.0,117.0
1352,240.10204639166665,240.29996274166666,68.0,122.0
1353,239.89371339166667,240.31905993333334,60.0,112.0
1354,240.93537839166666,241.07426705833333,60.0,82.0
1355,240.72704539166665,241.19058631666667,53.0,100.0
1356,240.51871239166667,241.30516946666665,48.0,75.0
1357,240.31037939166666,241.37982212499998,41.0,76.0
1358,241.35204439166665,241.50829414166665,53.0,100.0
1359,241.14371139166664,241.59683566666666,68.0,122.0
1360,241.14371139166664,241.60204399166665,65.0,117.0
1361,241.76871039166664,241.91801570833331,65.0,107.0
1362,241.76871039166664,241.93016846666666,68.0,127.0
1363,241.56037739166666,241.9371129,60.0,122.0
1364,242.60204239166666,242.692320025,65.0,83.0
1365,242.60204239166666,242.71141721666666,62.0,72.0
1366,242.60204239166666,242.71315332499998,70.0,90.0
1367,242.39370939166665,242.89197248333332,58.0,117.0
1368,242.81037539166667,243.09683326666666,65.0,112.0
1369,242.81037539166667,243.10204159166665,70.0,127.0
1370,243.01870839166665,243.24787469166665,58.0,117.0
1371,242.18537639166667,243.306902375,53.0,42.0
1372,241.97704339166665,243.400652225,46.0,88.0
1373,243.43537439166664,243.483985425,60.0,96.0
1374,243.22704139166666,243.536068675,70.0,127.0
1375,243.22704139166666,243.54127699999998,65.0,117.0
1376,243.43537439166664,243.5829436,62.0,102.0
1377,244.26870639166665,244.53606707499998,55.0,96.0
1378,244.06037339166664,244.55342815833333,51.0,97.0
1379,244.47703939166666,244.94578864166667,58.0,127.0
1380,244.47703939166666,244.94926085833333,63.0,122.0
1381,243.64370739166665,245.15238553333333,39.0,100.0
1382,244.89370539166666,245.17669105,55.0,83.0
1383,245.10203839166667,245.19578824166666,58.0,107.0
1384,245.10203839166667,245.23051040833332,63.0,127.0
1385,244.68537239166665,245.29474641666667,51.0,102.0
1386,245.93537039166665,246.01175915833332,67.0,77.0
1387,245.72703739166664,246.0204397,63.0,86.0
1388,245.93537039166665,246.03780078333332,70.0,96.0
1389,245.51870439166666,246.18016166666666,51.0,112.0
1390,246.14370339166666,246.35724471666666,63.0,112.0
1391,246.14370339166666,246.38502244999998,67.0,122.0
1392,246.14370339166666,246.41974461666666,70.0,122.0
1393,246.35203639166664,246.45446678333332,51.0,100.0
1394,245.31037139166665,246.4787723,39.0,102.0
1395,246.56036939166665,246.67148032499998,67.0,107.0
1396,246.56036939166665,246.79127179999998,70.0,122.0
1397,246.76870239166666,246.91106327499998,63.0,122.0
1398,246.97703539166665,247.04474361666666,68.0,31.0
1399,247.39370139166667,247.84856177499998,48.0,89.0
1400,247.60203439166665,247.89890891666664,60.0,97.0
1401,247.81036739166666,248.07599196666666,63.0,127.0
1402,247.81036739166666,248.27738053333331,67.0,112.0
1403,248.01870039166664,248.56731062499998,48.0,78.0
1404,248.43536639166666,248.69578264166665,67.0,97.0
1405,248.43536639166666,248.69751875,63.0,112.0
1406,248.22703339166665,248.73050480833334,60.0,96.0
1407,248.64369939166664,249.09855977499998,48.0,54.0
1408,249.06036539166666,249.286059475,60.0,89.0
1409,248.85203239166665,249.29474001666665,63.0,127.0
1410,248.85203239166665,249.306892775,67.0,99.0
1411,249.26869839166665,249.51348966666666,48.0,81.0
1412,246.97703539166665,249.70619769166666,36.0,64.0
1413,247.18536839166666,249.70619769166666,43.0,63.0
1414,249.47703139166666,249.70619769166666,60.0,85.0
1415,249.47703139166666,249.713142125,63.0,122.0
1416,249.47703139166666,249.713142125,67.0,96.0
1417,249.68536439166667,249.9075862583333,48.0,76.0
1418,249.89369739166665,250.21661354166665,67.0,99.0
1419,249.89369739166665,250.25307181666665,63.0,127.0
1420,250.10203039166666,250.27911344166665,60.0,99.0
1421,250.93536239166664,251.08987603333333,60.0,82.0
1422,250.72702939166666,251.18362588333332,53.0,90.0
1423,251.14369539166665,251.46834765,65.0,117.0
1424,250.31036339166664,251.48918095,41.0,90.0
1425,250.51869639166665,251.4909170583333,48.0,82.0
1426,251.35202839166666,251.49612538333332,53.0,95.0
1427,251.14369539166665,251.50654203333332,68.0,127.0
1428,251.56036139166665,251.59681966666665,68.0,41.0
1429,251.76869439166666,251.92494414166666,65.0,102.0
1430,251.76869439166666,251.93536079166665,68.0,112.0
1431,251.56036139166665,251.97008295833334,60.0,97.0
1432,252.60202639166664,252.70619289166666,63.0,99.0
1433,252.60202639166664,252.71140121666664,60.0,77.0
1434,252.60202639166664,252.71660954166666,68.0,78.0
1435,252.39369339166666,252.86417874999998,56.0,99.0
1436,252.81035939166665,253.06035899166665,63.0,127.0
1437,252.81035939166665,253.06730342499998,68.0,122.0
1438,253.01869239166666,253.327719675,56.0,97.0
1439,252.18536039166665,253.3954279,51.0,73.0
1440,251.97702739166667,253.40410844166666,44.0,85.0
1441,253.22702539166664,253.52563602499998,63.0,127.0
1442,253.22702539166664,253.54646932499998,68.0,127.0
1443,253.43535839166665,253.56903873333331,60.0,107.0
1444,254.26869039166667,254.3346625083333,70.0,44.0
1445,254.26869039166667,254.36244024166666,65.0,63.0
1446,254.26869039166667,254.38500965,62.0,81.0
1447,254.06035739166666,254.504801125,58.0,99.0
1448,254.47702339166665,254.6002870833333,65.0,127.0
1449,254.47702339166665,254.6454259,62.0,107.0
1450,254.47702339166665,254.68882860833332,70.0,127.0
1451,254.89368939166667,255.00306421666664,65.0,96.0
1452,254.89368939166667,255.03431416666666,70.0,112.0
1453,253.64369139166666,255.15410564166666,46.0,95.0
1454,254.68535639166666,255.16452229166666,58.0,95.0
1455,255.10202239166665,255.17493894166665,70.0,51.0
1456,255.10202239166665,255.18188337499998,65.0,55.0
1457,253.85202439166665,255.18535559166665,53.0,56.0
1458,255.10202239166665,255.22181386666665,62.0,99.0
1459,255.31035539166666,255.64716040833332,62.0,100.0
1460,255.31035539166666,255.66104927499998,65.0,100.0
1461,255.31035539166666,255.69056311666665,58.0,100.0
1462,255.31035539166666,255.69577144166666,70.0,112.0
1463,255.31035539166666,255.73917415,53.0,69.0
1464,255.31035539166666,255.806882375,46.0,82.0
1465,257.81035139166664,257.89368459166667,63.0,90.0
1466,257.81035139166664,257.8971568083333,60.0,90.0
1467,257.81035139166664,257.9023651333333,55.0,88.0
1468,258.43535039166665,258.5238919166666,60.0,82.0
1469,258.43535039166665,258.5273641333333,63.0,82.0
1470,258.43535039166665,258.541253,55.0,76.0
1471,258.85201639166667,258.92493294166667,63.0,54.0
1472,258.85201639166667,258.92666905,60.0,63.0
1473,258.85201639166667,258.94403013333334,55.0,70.0
1474,258.22701739166666,259.0013217083333,48.0,60.0
1475,256.97701939166666,259.3624322416667,36.0,96.0
1476,257.3936853916667,259.39368219166664,43.0,64.0
1477,259.26868239166663,259.48743204166664,48.0,45.0
1478,259.47701539166667,259.577709675,55.0,77.0
1479,259.47701539166667,259.58986243333334,60.0,89.0
1480,259.47701539166667,259.6037513,63.0,90.0
1481,259.89368139166663,259.9804868083333,60.0,82.0
1482,259.89368139166663,259.98916735,63.0,85.0
1483,259.89368139166663,260.004792325,55.0,72.0
1484,261.14367939166664,261.22701259166666,65.0,75.0
1485,261.14367939166664,261.24437367499996,62.0,69.0
1486,261.14367939166664,261.24437367499996,70.0,74.0
1487,261.76867839166664,261.8572199166667,65.0,72.0
1488,261.76867839166664,261.8606921333333,62.0,68.0
1489,261.76867839166664,261.874581,70.0,76.0
1490,262.18534439166666,262.25652483333334,65.0,76.0
1491,262.18534439166666,262.27388591666664,62.0,69.0
1492,262.18534439166666,262.27562202499996,70.0,76.0
1493,261.56034539166666,262.35201079166666,58.0,58.0
1494,260.7270133916667,262.6940241333333,53.0,38.0
1495,262.6020103916667,262.7669406833333,58.0,76.0
1496,260.31034739166665,262.80513506666665,46.0,79.0
1497,262.81034339166666,263.0325652583333,65.0,64.0
1498,262.81034339166666,263.04819023333334,70.0,86.0
1499,263.2270093916666,263.3190231333333,65.0,88.0
1500,263.2270093916666,263.32596756666663,62.0,70.0
1501,263.2270093916666,263.34332865,70.0,92.0
1502,263.66450869166664,264.33985483333333,70.0,79.0
1503,263.67145312499997,264.36589645833334,67.0,88.0
1504,263.6627725833333,264.369368675,63.0,100.0
1505,264.4995768,265.20096456666664,70.0,83.0
1506,263.66971701666665,265.22179786666663,39.0,56.0
1507,264.5013129083333,265.223533975,67.0,86.0
1508,263.67492534166666,265.2426311666666,51.0,89.0
1509,264.494368475,265.244367275,63.0,100.0
1510,264.16971621666664,265.25999225,46.0,34.0
1511,265.42492254166666,267.5481830333333,46.0,66.0
1512,265.42665865,267.55165525,51.0,69.0
1513,265.411033675,267.55859968333334,63.0,102.0
1514,265.42318643333334,267.57248855,39.0,52.0
1515,265.4127697833333,267.5742246583333,67.0,88.0
1516,265.4092975666667,267.58116909166665,70.0,96.0
1517,271.82942618333334,272.36067533333335,63.0,71.0
1518,271.7669262833333,272.3658836583333,67.0,58.0
1519,271.9179677083333,272.3971336083333,60.0,66.0
1520,272.75998025,272.9457438416666,51.0,59.0
1521,272.9387994083333,272.97699379166664,55.0,64.0
1522,273.1037297,273.4075486583333,60.0,86.0
1523,273.28081275,273.45095136666663,63.0,60.0
1524,273.4492152583333,273.4908818583333,67.0,71.0
1525,272.5846333083333,277.796430525,48.0,55.0
1526,274.296436125,277.806847175,84.0,42.0
1527,272.3919252833333,277.80858328333335,43.0,51.0
1528,273.8311590916667,277.817263825,75.0,69.0
1529,274.0499087416666,277.8450415583333,79.0,66.0
1530,271.88498165,277.8606665333333,36.0,74.0
1531,273.64365939166663,277.8624026416667,72.0,46.0
