,start,end,pitch,velocity
0,0.38552573749999997,0.7749988374999999,68.0,90.0
1,0.7013147375,1.1302614624999998,61.0,92.0
2,1.0171037374999998,1.413155775,68.0,88.0
3,1.3328927375,1.7328921374999997,61.0,89.0
4,1.6486817374999998,2.0381548374999996,68.0,79.0
5,1.9644707374999997,2.3828911624999995,61.0,91.0
6,2.2802597374999998,2.6631538999999997,68.0,87.0
7,2.5960487375,2.8999956499999997,61.0,91.0
8,2.9118377374999995,3.2592056374999996,64.0,95.0
9,3.2276267374999996,3.59473145,61.0,84.0
10,3.5434157374999997,3.8736783999999997,64.0,92.0
11,3.8592047374999994,4.271046224999999,61.0,90.0
12,4.1749937374999995,4.5355195125,66.0,91.0
13,4.490782737499999,4.863150599999999,61.0,87.0
14,4.8065717375,5.147360699999999,66.0,86.0
15,5.122360737499999,5.431570799999999,61.0,92.0
16,5.438149737499999,5.827622837499999,68.0,90.0
17,5.7539387374999995,6.182885462499999,61.0,92.0
18,6.069727737499999,6.465779775,68.0,88.0
19,6.3855167375,6.785516137499999,61.0,89.0
20,6.701305737499999,7.090778837499999,68.0,79.0
21,7.017094737499999,7.435515162499999,61.0,91.0
22,7.3328837374999996,7.715777899999999,68.0,87.0
23,7.648672737499999,7.952619649999999,61.0,91.0
24,7.964461737499999,8.311829637499999,64.0,95.0
25,8.2802507375,8.64735545,61.0,84.0
26,8.5960397375,8.926302399999999,64.0,92.0
27,8.911828737499999,9.323670224999999,61.0,90.0
28,9.2276177375,9.588143512499999,66.0,91.0
29,9.5434067375,9.915774599999999,61.0,87.0
30,9.859195737499999,10.199984699999998,66.0,86.0
31,10.174984737499999,10.4841948,61.0,92.0
32,13.017085737499999,13.402611474999999,68.0,84.0
33,13.3328747375,13.765768824999999,59.0,91.0
34,13.648663737499998,14.056557862499998,68.0,82.0
35,13.964452737499998,14.407873124999998,59.0,86.0
36,14.280241737499999,14.697346374999999,68.0,82.0
37,14.596030737499998,15.021030099999999,59.0,85.0
38,14.911819737499998,15.382871662499998,68.0,92.0
39,15.227608737499999,15.557871399999998,59.0,86.0
40,15.859186737499998,16.189449399999997,64.0,89.0
41,16.1749757375,16.57365935,69.0,91.0
42,16.490764737499997,16.852606299999998,64.0,90.0
43,16.8065537375,17.185500537499998,69.0,91.0
44,17.1223427375,17.481552724999997,64.0,85.0
45,17.438131737499997,17.888131062499998,69.0,86.0
46,17.7539207375,18.0104993,64.0,86.0
47,18.385498737499997,18.751287662499998,64.0,83.0
48,18.7012877375,19.1460239125,68.0,84.0
49,19.0170767375,19.428918224999997,64.0,80.0
50,19.332865737499997,19.7039178125,68.0,81.0
51,19.6486547375,20.055233074999997,64.0,86.0
52,19.964443737499998,20.602600674999998,68.0,87.0
53,20.280232737499997,20.655232175,64.0,86.0
54,20.5960217375,20.95260015,66.0,80.0
55,20.911810737499998,21.317073287499998,59.0,92.0
56,21.227599737499997,21.573651849999997,66.0,84.0
57,21.5433887375,21.942072349999997,59.0,89.0
58,21.859177737499998,22.219703512499997,66.0,86.0
59,22.174966737499997,22.571018775,59.0,92.0
60,22.4907557375,22.8644393875,66.0,87.0
61,22.806544737499998,23.067070662499997,59.0,90.0
62,23.122333737499996,23.489438449999998,68.0,85.0
63,23.4381227375,23.838122137499997,61.0,88.0
64,23.753911737499998,24.1486479875,68.0,83.0
65,24.069700737499996,24.472331712499997,61.0,87.0
66,24.3854897375,24.755226025,68.0,80.0
67,24.701278737499997,25.076278175,61.0,91.0
68,25.017067737499996,25.430225012499996,68.0,84.0
69,25.3328567375,25.588119512499997,61.0,92.0
70,25.648645737499997,25.994697849999998,66.0,83.0
71,25.964434737499996,26.364434137499998,59.0,78.0
72,26.2802237375,26.664433687499997,66.0,84.0
73,26.596012737499997,27.009170012499997,59.0,91.0
74,26.911801737499996,27.286801174999997,66.0,85.0
75,27.227590737499998,27.644695374999998,59.0,92.0
76,27.543379737499997,27.918379175,66.0,86.0
77,27.859168737499996,28.168378799999996,59.0,92.0
78,28.174957737499998,28.538115087499996,68.0,92.0
79,28.490746737499997,28.799956799999997,61.0,78.0
80,28.806535737499996,29.169693087499997,68.0,91.0
81,29.122324737499998,29.521008349999995,61.0,87.0
82,29.438113737499997,29.797323725,68.0,83.0
83,29.753902737499995,30.119691662499996,61.0,86.0
84,30.069691737499998,30.440743812499996,68.0,86.0
85,30.385480737499996,30.578901499999997,61.0,85.0
86,33.227581737499996,33.613107475,68.0,84.0
87,33.701265237499996,33.869686037499996,78.0,86.0
88,33.5433707375,33.976264824999994,59.0,91.0
89,33.85915973749999,34.21968551249999,80.0,93.0
90,33.85915973749999,34.2670538625,68.0,82.0
91,34.174948737499996,34.535474512499995,83.0,94.0
92,34.174948737499996,34.618369124999994,59.0,86.0
93,34.4907377375,34.807842525,80.0,97.0
94,34.4907377375,34.907842374999994,68.0,82.0
95,34.80652673749999,35.231526099999996,59.0,85.0
96,35.122315737499996,35.59336766249999,68.0,92.0
97,34.80652673749999,35.634157075,76.0,96.0
98,35.4381047375,35.768367399999995,59.0,86.0
99,36.069682737499996,36.39994539999999,64.0,89.0
100,36.3854717375,36.78415535,69.0,91.0
101,36.70126073749999,37.0631023,64.0,90.0
102,37.017049737499995,37.3959965375,69.0,91.0
103,37.3328387375,37.692048725,64.0,85.0
104,37.64862773749999,38.09862706249999,69.0,86.0
105,37.964416737499995,38.2209953,64.0,86.0
106,38.59599473749999,38.9617836625,64.0,83.0
107,38.59599473749999,38.963099449999994,71.0,93.0
108,38.911783737499995,39.256520062499995,80.0,96.0
109,38.911783737499995,39.3565199125,68.0,84.0
110,39.2275727375,39.586782725,78.0,96.0
111,39.2275727375,39.639414224999996,64.0,80.0
112,39.54336173749999,39.914413812499994,68.0,81.0
113,39.54336173749999,40.2407291125,80.0,100.0
114,39.859150737499995,40.265729074999996,64.0,86.0
115,40.1749397375,40.505202399999995,78.0,98.0
116,40.49072873749999,40.79993879999999,76.0,93.0
117,40.1749397375,40.813096675,68.0,87.0
118,40.49072873749999,40.865728174999994,64.0,86.0
119,40.806517737499995,41.163096149999994,66.0,80.0
120,41.1223067375,41.52756928749999,59.0,92.0
121,41.43809573749999,41.78414785,66.0,84.0
122,40.806517737499995,42.082831612499994,78.0,92.0
123,41.753884737499995,42.152568349999996,59.0,89.0
124,42.0696737375,42.430199512499996,66.0,86.0
125,42.38546273749999,42.781514775,59.0,92.0
126,42.701251737499994,43.0749353875,66.0,87.0
127,43.0170407375,43.27756666249999,59.0,90.0
128,43.33282973749999,43.69993444999999,68.0,85.0
129,43.648618737499994,44.04861813749999,61.0,88.0
130,43.9644077375,44.3591439875,68.0,83.0
131,44.28019673749999,44.68282771249999,61.0,87.0
132,44.595985737499994,44.965722025,68.0,80.0
133,44.9117747375,45.286774175,61.0,91.0
134,45.22756373749999,45.640721012499995,68.0,84.0
135,45.543352737499994,45.79861551249999,61.0,92.0
136,45.859141737499996,46.20519384999999,66.0,83.0
137,46.17493073749999,46.5749301375,59.0,78.0
138,46.490719737499994,46.87492968749999,66.0,84.0
139,46.806508737499996,47.21966601249999,59.0,91.0
140,47.12229773749999,47.49729717499999,66.0,85.0
141,47.438086737499994,47.855191375,59.0,92.0
142,47.753875737499996,48.128875175,66.0,86.0
143,48.06966473749999,48.37887479999999,59.0,92.0
144,48.385453737499994,48.748611087499995,68.0,92.0
145,48.701242737499996,49.010452799999996,61.0,78.0
146,49.0170317375,49.38018908749999,68.0,91.0
147,49.33282073749999,49.731504349999994,61.0,87.0
148,49.648609737499996,50.007819725,68.0,83.0
149,49.9643987375,50.330187662499995,61.0,86.0
150,50.28018773749999,50.651239812499995,68.0,86.0
151,50.595976737499996,50.78939749999999,61.0,85.0
152,50.9117657375,51.7301855625,75.0,89.0
153,50.9117657375,51.731501349999995,71.0,87.0
154,53.438077737499995,53.78018248749999,61.0,90.0
155,53.7538667375,54.10912936249999,57.0,86.0
156,54.06965573749999,54.424918362499994,61.0,91.0
157,54.385444737499995,54.781496774999994,57.0,86.0
158,54.7012337375,55.089391049999996,61.0,91.0
159,55.01702273749999,55.414390562499996,57.0,87.0
160,55.332811737499995,55.707811174999996,61.0,92.0
161,55.6486007375,56.00781072499999,57.0,77.0
162,55.96438973749999,56.30912606249999,63.0,96.0
163,56.280178737499995,56.67228341249999,59.0,88.0
164,56.5959677375,56.96307244999999,63.0,92.0
165,56.91175673749999,57.29596668749999,59.0,88.0
166,57.227545737499995,57.61965041249999,63.0,86.0
167,57.5433347375,57.94596571249999,59.0,90.0
168,57.85912373749999,58.167018012499994,63.0,94.0
169,58.174912737499994,58.56043847499999,59.0,92.0
170,58.4907017375,58.81570125,64.0,91.0
171,58.80649073749999,59.188069112499996,59.0,92.0
172,59.122279737499994,59.46438448749999,64.0,90.0
173,59.4380687375,59.80912081249999,59.0,89.0
174,59.75385773749999,60.088067762499996,64.0,93.0
175,60.069646737499994,60.47754086249999,59.0,91.0
176,60.385435737499996,60.719645762499994,64.0,93.0
177,60.70122473749999,61.039382124999996,59.0,92.0
178,61.017013737499994,61.35780269999999,64.0,92.0
179,61.332802737499996,61.71569689999999,61.0,86.0
180,61.64859173749999,61.994643849999996,64.0,91.0
181,61.964380737499994,62.335432812499995,61.0,82.0
182,62.59595873749999,62.95122136249999,61.0,82.0
183,62.911747737499994,63.26174721249999,64.0,84.0
184,63.227536737499996,63.61832562499999,61.0,86.0
185,63.54332573749999,63.88674627499999,66.0,86.0
186,63.85911473749999,64.22621944999999,61.0,91.0
187,64.17490373749999,64.57227156249999,66.0,87.0
188,64.4906927375,64.84990272499999,61.0,79.0
189,64.8064817375,65.16306014999999,66.0,90.0
190,65.12227073749999,65.50253332499999,61.0,79.0
191,65.4380597375,65.80911181249999,66.0,93.0
192,65.7538487375,66.09858506249999,61.0,87.0
193,66.06963773749999,66.43937402499999,63.0,86.0
194,66.3854267375,66.781478775,59.0,92.0
195,66.7012157375,67.0512152125,63.0,93.0
196,67.01700473749999,67.41042519999999,59.0,88.0
197,67.3327937375,67.69858266249999,63.0,91.0
198,67.64858273749999,68.05779265,59.0,92.0
199,67.96437173749999,68.33147645,63.0,95.0
200,68.2801607375,68.63542336249999,59.0,87.0
201,68.59594973749999,68.63542336249999,59.0,90.0
202,68.59594973749999,68.7117390375,64.0,92.0
203,68.91173873749999,69.05779114999999,59.0,87.0
204,68.91173873749999,69.0643700875,64.0,92.0
205,69.06963323749999,69.1564752125,64.0,89.0
206,69.2275277375,69.30515919999999,59.0,83.0
207,69.3854222375,69.45121161249999,59.0,80.0
208,69.3854222375,69.460422125,64.0,91.0
209,69.54331673749999,69.61305347499999,59.0,86.0
210,69.54331673749999,69.62489556249999,64.0,92.0
211,69.70121123749999,69.89068463749999,59.0,91.0
212,69.70121123749999,69.93147404999999,64.0,93.0
213,70.01700023749999,70.0906843375,64.0,93.0
214,70.01700023749999,70.0959474875,59.0,88.0
215,70.1748947375,70.24857883749999,64.0,92.0
216,70.1748947375,70.2538419875,59.0,89.0
217,70.3327892375,70.40252597499999,59.0,87.0
218,70.3327892375,70.41042069999999,64.0,93.0
219,70.49068373749999,70.57620992499999,64.0,92.0
220,70.49068373749999,70.5788415,59.0,86.0
221,70.64857823749999,70.72752548749999,59.0,84.0
222,70.64857823749999,70.7380517875,64.0,91.0
223,70.80647273749999,71.10515649999999,59.0,91.0
224,70.80647273749999,71.11568279999999,64.0,93.0
225,71.1222617375,71.439366525,63.0,91.0
226,71.43805073749999,71.80910281249999,59.0,95.0
227,71.75383973749999,72.08015503749999,63.0,91.0
228,72.0696287375,72.4696281375,59.0,94.0
229,72.38541773749999,72.69725937499999,63.0,87.0
230,72.70120673749999,73.09857456249999,59.0,94.0
231,73.64857373749999,73.99067848749999,61.0,90.0
232,73.9643627375,74.31962536249999,57.0,86.0
233,74.28015173749999,74.63541436249999,61.0,91.0
234,74.59594073749999,74.99199277499999,57.0,86.0
235,74.9117297375,75.29988705,61.0,91.0
236,75.22751873749999,75.6248865625,57.0,87.0
237,75.54330773749999,75.918307175,61.0,92.0
238,75.8590967375,76.21830672499999,57.0,77.0
239,76.17488573749999,76.51962206249999,63.0,96.0
240,76.49067473749999,76.88277941249999,59.0,88.0
241,76.8064637375,77.17356844999999,63.0,92.0
242,77.12225273749999,77.50646268749999,59.0,88.0
243,77.43804173749999,77.83014641249999,63.0,86.0
244,77.7538307375,78.15646171249999,59.0,90.0
245,78.06961973749999,78.37751401249999,63.0,94.0
246,78.38540873749999,78.77093447499999,59.0,92.0
247,78.7011977375,79.02619725,64.0,91.0
248,79.01698673749999,79.3985651125,59.0,92.0
249,79.33277573749999,79.67488048749999,64.0,90.0
250,79.6485647375,80.01961681249999,59.0,89.0
251,79.96435373749999,80.2985637625,64.0,93.0
252,80.28014273749999,80.68803686249998,59.0,91.0
253,80.5959317375,80.93014176249999,64.0,93.0
254,80.91172073749999,81.249878125,59.0,92.0
255,81.22750973749999,81.56829869999999,64.0,92.0
256,81.5432987375,81.92619289999999,61.0,86.0
257,81.85908773749999,82.20513985,64.0,91.0
258,82.17487673749999,82.5459288125,61.0,82.0
259,82.80645473749999,83.16171736249999,61.0,82.0
260,83.12224373749999,83.47224321249999,64.0,84.0
261,83.4380327375,83.82882162499999,61.0,86.0
262,83.75382173749999,84.09724227499999,66.0,86.0
263,84.06961073749999,84.43671545,61.0,91.0
264,84.3853997375,84.78276756249998,66.0,87.0
265,84.70118873749999,85.06039872499998,61.0,79.0
266,85.01697773749999,85.37355614999998,66.0,90.0
267,85.3327667375,85.713029325,61.0,79.0
268,85.64855573749999,86.01960781249998,66.0,93.0
269,85.96434473749999,86.30908106249998,61.0,87.0
270,86.2801337375,86.64987002499998,64.0,86.0
271,86.59592273749999,86.99197477499999,59.0,92.0
272,86.91171173749999,87.26171121249999,64.0,93.0
273,87.2275007375,87.62092119999998,59.0,88.0
274,87.54328973749999,87.9090786625,64.0,91.0
275,87.85907873749998,88.1748677375,59.0,92.0
276,88.1748677375,88.80644573749998,63.0,95.0
277,88.80644573749998,91.16170536249999,59.0,90.0
278,88.80644573749998,91.16170536249999,63.0,88.0
279,91.64854673749998,92.14196704999999,76.0,89.0
280,92.28012473749999,92.47354549999999,76.0,93.0
281,92.59591373749998,93.04986042499999,76.0,93.0
282,93.06959723749999,93.470912425,75.0,94.0
283,93.54328073749998,93.84064871249998,73.0,91.0
284,93.8590697375,96.20380306249999,71.0,94.0
285,96.7011707375,96.94853878749998,76.0,91.0
286,97.01695973749999,97.25774884999998,76.0,95.0
287,97.33274873749998,97.56827469999999,76.0,98.0
288,97.64853773749999,97.88406369999998,78.0,92.0
289,97.96432673749999,98.1959053375,76.0,97.0
290,98.28011573749998,98.5051154,75.0,97.0
291,98.59590473749999,98.78537813749999,73.0,96.0
292,98.91169373749999,101.31826907499999,68.0,96.0
293,101.75379473749999,102.00511015,78.0,98.0
294,102.06958373749998,102.29984654999998,78.0,95.0
295,102.38537273749999,102.64195129999999,78.0,97.0
296,102.70116173749999,103.03405597499999,80.0,97.0
297,103.01695073749998,103.36300284999999,81.0,93.0
298,103.33273973749999,103.67352869999999,80.0,90.0
299,103.64852873749999,103.98273876249999,78.0,94.0
300,103.96431773749998,106.33668259999999,80.0,91.0
301,106.80641873749998,106.96957638749998,78.0,91.0
302,107.12220773749999,107.31957586249999,78.0,95.0
303,107.43799673749999,107.68010163749999,78.0,98.0
304,107.75378573749998,107.97878539999999,81.0,97.0
305,108.06957473749999,108.34589011249999,80.0,98.0
306,108.38536373749999,108.67088962499999,78.0,98.0
307,108.70115273749998,111.43009601249999,85.0,102.0
308,114.06956573749999,114.45509147499999,68.0,84.0
309,114.54324923749999,114.71167003749999,78.0,86.0
310,114.38535473749998,114.81824882499998,59.0,91.0
311,114.70114373749999,115.06166951249999,80.0,93.0
312,114.70114373749999,115.10903786249999,68.0,82.0
313,115.01693273749999,115.37745851249998,83.0,94.0
314,115.01693273749999,115.46035312499998,59.0,86.0
315,115.33272173749998,115.64982652499998,80.0,97.0
316,115.33272173749998,115.74982637499998,68.0,82.0
317,115.64851073749999,116.0735101,59.0,85.0
318,115.96429973749999,116.43535166249998,68.0,92.0
319,115.64851073749999,116.47614107499999,76.0,96.0
320,116.28008873749998,116.61035139999998,59.0,86.0
321,116.91166673749998,117.24192939999999,64.0,89.0
322,117.22745573749998,117.62613934999999,69.0,91.0
323,117.54324473749999,117.9050863,64.0,90.0
324,117.85903373749998,118.2379805375,69.0,91.0
325,118.17482273749998,118.53403272499999,64.0,85.0
326,118.49061173749999,118.94061106249998,69.0,86.0
327,118.80640073749998,119.06297929999998,64.0,86.0
328,119.43797873749999,119.8037676625,64.0,83.0
329,119.43797873749999,119.80508344999998,71.0,93.0
330,119.75376773749998,120.09850406249998,80.0,96.0
331,119.75376773749998,120.19850391249999,68.0,84.0
332,120.0695567375,120.42876672499999,78.0,96.0
333,120.0695567375,120.48139822499999,64.0,80.0
334,120.38534573749999,120.75639781249998,68.0,81.0
335,120.38534573749999,121.08271311249999,80.0,100.0
336,120.70113473749998,121.10771307499999,64.0,86.0
337,121.0169237375,121.34718639999998,78.0,98.0
338,121.33271273749999,121.64192279999999,76.0,93.0
339,121.0169237375,121.655080675,68.0,87.0
340,121.33271273749999,121.70771217499998,64.0,86.0
341,121.64850173749998,122.00508014999998,66.0,80.0
342,121.9642907375,122.36955328749998,59.0,92.0
343,122.28007973749999,122.62613185,66.0,84.0
344,121.64850173749998,122.92481561249998,78.0,92.0
345,122.59586873749998,122.99455234999999,59.0,89.0
346,122.9116577375,123.27218351249999,66.0,86.0
347,123.22744673749999,123.62349877499999,59.0,92.0
348,123.54323573749998,123.91691938749999,66.0,87.0
349,123.8590247375,124.11955066249999,59.0,90.0
350,124.17481373749999,124.54191844999998,68.0,85.0
351,124.49060273749998,124.89060213749998,61.0,88.0
352,124.8063917375,125.20112798749999,68.0,83.0
353,125.12218073749999,125.52481171249998,61.0,87.0
354,125.43796973749998,125.80770602499999,68.0,80.0
355,125.7537587375,126.12875817499999,61.0,91.0
356,126.06954773749999,126.48270501249999,68.0,84.0
357,126.38533673749998,126.64059951249999,61.0,92.0
358,126.70112573749999,127.04717784999998,66.0,83.0
359,127.01691473749999,127.41691413749999,59.0,78.0
360,127.33270373749998,127.71691368749998,66.0,84.0
361,127.64849273749999,128.0616500125,59.0,91.0
362,127.96428173749999,128.339281175,66.0,85.0
363,128.28007073749998,128.69717537499997,59.0,92.0
364,128.59585973749998,128.970859175,66.0,86.0
365,128.91164873749997,129.22085879999997,59.0,92.0
366,129.2274377375,129.5905950875,68.0,92.0
367,129.5432267375,129.8524368,61.0,78.0
368,129.8590157375,130.22217308749998,68.0,91.0
369,130.17480473749998,130.57348835,61.0,87.0
370,130.49059373749998,130.849803725,68.0,83.0
371,130.80638273749997,131.17217166249998,61.0,86.0
372,131.1221717375,131.4932238125,68.0,86.0
373,131.4379607375,131.63138149999997,61.0,85.0
374,131.7537497375,132.5721695625,75.0,89.0
375,131.7537497375,132.57348535,71.0,87.0
376,134.28006173749998,134.62216648749998,61.0,90.0
377,134.59585073749997,134.9511133625,57.0,86.0
378,134.9116397375,135.2669023625,61.0,91.0
379,134.9116397375,135.51032304999998,64.0,98.0
380,135.2274287375,135.623480775,57.0,86.0
381,135.5432177375,135.93137504999999,61.0,91.0
382,135.5432177375,136.20637463749998,68.0,93.0
383,135.85900673749998,136.25637456249999,57.0,87.0
384,136.17479573749998,136.37479543749998,64.0,95.0
385,136.17479573749998,136.54979517499999,61.0,92.0
386,136.49058473749997,136.84979472499998,57.0,77.0
387,136.8063737375,137.15111006249998,63.0,96.0
388,136.49058473749997,137.2511099125,66.0,93.0
389,137.1221627375,137.51426741249998,59.0,88.0
390,137.4379517375,137.80505645,63.0,92.0
391,137.75374073749998,138.1379506875,59.0,88.0
392,138.06952973749998,138.4616344125,63.0,86.0
393,138.38531873749997,138.7879497125,59.0,90.0
394,138.7011077375,139.0090020125,63.0,94.0
395,139.0168967375,139.40242247499998,59.0,92.0
396,139.3326857375,139.65768525,64.0,91.0
397,139.64847473749998,140.03005311249998,59.0,92.0
398,139.96426373749998,140.30636848749998,64.0,90.0
399,140.28005273749997,140.6511048125,59.0,89.0
400,140.5958417375,140.93005176249997,64.0,93.0
401,140.5958417375,141.09847256249998,68.0,98.0
402,140.9116307375,141.31952486249997,59.0,91.0
403,141.22741973749999,141.40636683749997,68.0,93.0
404,141.38531423749998,141.54847188749997,69.0,86.0
405,141.22741973749999,141.5616297625,64.0,93.0
406,141.54320873749998,141.72084005,68.0,89.0
407,141.70110323749998,141.86952403749999,66.0,93.0
408,141.54320873749998,141.88136612499997,59.0,92.0
409,141.85899773749998,142.19978669999998,64.0,92.0
410,142.17478673749997,142.55768089999998,61.0,86.0
411,142.4905757375,142.83662784999999,64.0,91.0
412,142.8063647375,143.17741681249998,61.0,82.0
413,141.85899773749998,143.23925882499998,68.0,97.0
414,143.12215373749999,143.481363725,64.0,91.0
415,143.43794273749998,143.79320536249998,61.0,82.0
416,143.75373173749998,144.10373121249998,64.0,84.0
417,144.06952073749997,144.46030962499998,61.0,86.0
418,144.3853097375,144.72873027499998,66.0,86.0
419,144.7010987375,145.06820344999997,61.0,91.0
420,145.01688773749999,145.4142555625,66.0,87.0
421,145.33267673749998,145.68925514999998,69.0,95.0
422,145.33267673749998,145.691886725,61.0,79.0
423,145.64846573749998,146.00504414999997,66.0,90.0
424,145.64846573749998,146.18925439999998,73.0,98.0
425,145.96425473749997,146.344517325,61.0,79.0
426,146.2800437375,146.60635903749997,73.0,92.0
427,146.2800437375,146.6510958125,66.0,93.0
428,146.5958327375,146.94056906249997,61.0,87.0
429,146.91162173749998,147.28135802499997,63.0,86.0
430,147.22741073749998,147.62346277499998,59.0,92.0
431,147.54319973749998,147.89319921249998,63.0,93.0
432,147.85898873749997,148.2524092,59.0,88.0
433,148.1747777375,148.54056666249997,63.0,91.0
434,148.4905667375,148.89977664999998,59.0,92.0
435,148.80635573749998,149.17346045,63.0,95.0
436,146.5958327375,149.31161813749998,71.0,93.0
437,149.12214473749998,149.47740736249997,59.0,87.0
438,149.43793373749997,149.47740736249997,59.0,90.0
439,149.43793373749997,149.5537230375,64.0,92.0
440,149.75372273749997,149.89977514999998,59.0,87.0
441,149.75372273749997,149.90635408749998,64.0,92.0
442,149.9116172375,149.9984592125,64.0,89.0
443,150.0695117375,150.1471432,59.0,83.0
444,150.2274062375,150.29319561249997,59.0,80.0
445,150.2274062375,150.30240612499998,64.0,91.0
446,150.3853007375,150.45503747499998,59.0,86.0
447,150.3853007375,150.4668795625,64.0,92.0
448,150.5431952375,150.73266863749998,59.0,91.0
449,150.5431952375,150.77345805,64.0,93.0
450,150.85898423749998,150.9326683375,64.0,93.0
451,150.85898423749998,150.93793148749998,59.0,88.0
452,151.01687873749998,151.0905628375,64.0,92.0
453,151.01687873749998,151.09582598749998,59.0,89.0
454,151.17477323749998,151.24450997499997,59.0,87.0
455,151.17477323749998,151.25240469999997,64.0,93.0
456,151.33266773749997,151.418193925,64.0,92.0
457,151.33266773749997,151.42082549999998,59.0,86.0
458,151.49056223749997,151.56950948749997,59.0,84.0
459,151.49056223749997,151.58003578749998,64.0,91.0
460,151.64845673749997,151.9471405,59.0,91.0
461,151.64845673749997,151.95766679999997,64.0,93.0
462,151.9642457375,152.281350525,63.0,91.0
463,152.2800347375,152.65108681249998,59.0,95.0
464,152.59582373749998,152.9221390375,63.0,91.0
465,152.91161273749998,153.3116121375,59.0,94.0
466,153.22740173749997,153.53924337499998,63.0,87.0
467,153.54319073749997,153.94055856249997,59.0,94.0
468,154.49055773749998,154.8326624875,61.0,90.0
469,154.80634673749998,155.16160936249997,57.0,86.0
470,155.12213573749997,155.4773983625,61.0,91.0
471,155.43792473749997,155.833976775,57.0,86.0
472,155.7537137375,156.14187105,61.0,91.0
473,156.0695027375,156.4668705625,57.0,87.0
474,156.38529173749998,156.760291175,61.0,92.0
475,156.70108073749998,157.060290725,57.0,77.0
476,157.01686973749997,157.3616060625,63.0,96.0
477,157.33265873749997,157.72476341249998,59.0,88.0
478,157.6484477375,158.01555244999997,63.0,92.0
479,157.9642367375,158.34844668749997,59.0,88.0
480,158.28002573749998,158.6721304125,63.0,86.0
481,158.59581473749998,158.99844571249997,59.0,90.0
482,158.91160373749997,159.21949801249997,63.0,94.0
483,159.22739273749997,159.612918475,59.0,92.0
484,159.5431817375,159.86818125,64.0,91.0
485,159.8589707375,160.2405491125,59.0,92.0
486,160.17475973749998,160.5168644875,64.0,90.0
487,160.49054873749998,160.86160081249997,59.0,89.0
488,160.80633773749997,161.14054776249998,64.0,93.0
489,161.12212673749997,161.53002086249998,59.0,91.0
490,161.4379157375,161.7721257625,64.0,93.0
491,161.7537047375,162.09186212499998,59.0,92.0
492,162.06949373749998,162.41028269999998,64.0,92.0
493,162.38528273749998,162.7681769,61.0,86.0
494,162.70107173749997,163.04712385,64.0,91.0
495,163.01686073749997,163.3879128125,61.0,82.0
496,163.3326497375,163.69185972499997,64.0,91.0
497,163.6484387375,164.00370136249998,61.0,82.0
498,163.96422773749998,164.3142272125,64.0,84.0
499,164.28001673749998,164.67080562499999,61.0,86.0
500,164.59580573749997,164.93922627499998,66.0,86.0
501,164.9115947375,165.27869944999998,61.0,91.0
502,165.2273837375,165.6247515625,66.0,87.0
503,165.5431727375,165.902382725,61.0,79.0
504,165.85896173749998,166.21554014999998,66.0,90.0
505,166.17475073749998,166.55501332499998,61.0,79.0
506,166.49053973749997,166.8615918125,66.0,93.0
507,166.8063287375,167.15106506249998,61.0,87.0
508,167.1221177375,167.49185402499998,63.0,86.0
509,167.4379067375,167.83395877499999,59.0,92.0
510,167.75369573749998,168.10369521249999,63.0,93.0
511,168.06948473749998,168.4629052,59.0,88.0
512,168.38527373749997,168.75106266249998,63.0,91.0
513,168.7010627375,169.0168517375,59.0,92.0
514,169.0168517375,169.64842973749998,63.0,95.0
515,169.64842973749998,172.00368936249998,59.0,90.0
516,169.64842973749998,172.00368936249998,63.0,88.0
517,174.7010537375,175.08657947499998,68.0,84.0
518,175.17473723749998,175.3431580375,78.0,86.0
519,175.01684273749999,175.44973682499997,59.0,91.0
520,175.33263173749998,175.6931575125,80.0,93.0
521,175.33263173749998,175.7405258625,68.0,82.0
522,175.64842073749998,176.0089465125,83.0,94.0
523,175.64842073749998,176.09184112499997,59.0,86.0
524,175.96420973749997,176.28131452499997,80.0,97.0
525,175.96420973749997,176.381314375,68.0,82.0
526,176.2799987375,176.70499809999998,59.0,85.0
527,176.5957877375,177.06683966249997,68.0,92.0
528,176.2799987375,177.10762907499998,76.0,96.0
529,176.91157673749998,177.24183939999998,59.0,86.0
530,177.54315473749998,177.8734174,64.0,89.0
531,177.85894373749997,178.25762734999998,69.0,91.0
532,178.1747327375,178.53657429999998,64.0,90.0
533,178.4905217375,178.86946853749998,69.0,91.0
534,178.80631073749998,179.165520725,64.0,85.0
535,179.12209973749998,179.57209906249997,69.0,86.0
536,179.43788873749997,179.69446729999999,64.0,86.0
537,180.0694667375,180.43525566249997,64.0,83.0
538,180.0694667375,180.43657144999997,71.0,93.0
539,180.3852557375,180.72999206249997,80.0,96.0
540,180.3852557375,180.8299919125,68.0,84.0
541,180.70104473749998,181.060254725,78.0,96.0
542,180.70104473749998,181.11288622499998,64.0,80.0
543,181.01683373749998,181.38788581249997,68.0,81.0
544,181.01683373749998,181.71420111249998,80.0,100.0
545,181.33262273749997,181.73920107499998,64.0,86.0
546,181.64841173749997,181.9786744,78.0,98.0
547,181.9642007375,182.2734108,76.0,93.0
548,181.64841173749997,182.28656867499998,68.0,87.0
549,181.9642007375,182.33920017499997,64.0,86.0
550,182.2799897375,182.63656815,66.0,80.0
551,182.59577873749998,183.0010412875,59.0,92.0
552,182.91156773749998,183.25761984999997,66.0,84.0
553,182.2799897375,183.5563036125,78.0,92.0
554,183.22735673749997,183.62604034999998,59.0,89.0
555,183.54314573749997,183.90367151249998,66.0,86.0
556,183.8589347375,184.254986775,59.0,92.0
557,184.1747237375,184.5484073875,66.0,87.0
558,184.49051273749998,184.75103866249998,59.0,90.0
559,184.80630173749998,185.17340645,68.0,85.0
560,185.12209073749997,185.5220901375,61.0,88.0
561,185.43787973749997,185.8326159875,68.0,83.0
562,185.7536687375,186.1562997125,61.0,87.0
563,186.0694577375,186.43919402499998,68.0,80.0
564,186.38524673749998,186.760246175,61.0,91.0
565,186.70103573749998,187.11419301249998,68.0,84.0
566,187.01682473749997,187.27208751249998,61.0,92.0
567,187.33261373749997,187.67866585,66.0,83.0
568,187.6484027375,188.04840213749998,59.0,78.0
569,187.9641917375,188.34840168749997,66.0,84.0
570,188.27998073749998,188.6931380125,59.0,91.0
571,188.59576973749998,188.970769175,66.0,85.0
572,188.91155873749997,189.328663375,59.0,92.0
573,189.22734773749997,189.60234717499998,66.0,86.0
574,189.5431367375,189.8523468,59.0,92.0
575,189.8589257375,190.22208308749998,68.0,92.0
576,190.17471473749998,190.48392479999998,61.0,78.0
577,190.49050373749998,190.85366108749997,68.0,91.0
578,190.80629273749997,191.20497634999998,61.0,87.0
579,191.12208173749997,191.48129172499998,68.0,83.0
580,191.4378707375,191.80365966249997,61.0,86.0
581,191.7536597375,192.12471181249998,68.0,86.0
582,192.06944873749998,192.26286949999997,61.0,85.0
583,192.38523773749998,192.7681319,69.0,88.0
584,192.70102673749997,193.08786826249997,64.0,88.0
585,193.01681573749997,193.38128887499997,69.0,90.0
586,193.3326047375,193.69181472499997,64.0,93.0
587,193.6483937375,194.01944581249998,69.0,88.0
588,193.96418273749998,194.35102426249998,64.0,91.0
589,194.27997173749998,194.64312908749997,69.0,89.0
590,194.59576073749997,194.84839193749997,64.0,91.0
591,194.91154973749997,195.29707547499999,68.0,84.0
592,195.3852332375,195.55365403749997,78.0,86.0
593,195.2273387375,195.66023282499998,59.0,91.0
594,195.5431277375,195.90365351249997,80.0,93.0
595,195.5431277375,195.95102186249997,68.0,82.0
596,195.85891673749998,196.21944251249997,83.0,94.0
597,195.85891673749998,196.30233712499998,59.0,86.0
598,196.17470573749998,196.49181052499998,80.0,97.0
599,196.17470573749998,196.59181037499997,68.0,82.0
600,196.49049473749997,196.9154941,59.0,85.0
601,196.80628373749997,197.27733566249998,68.0,92.0
602,196.49049473749997,197.31812507499998,76.0,96.0
603,197.1220727375,197.45233539999998,59.0,86.0
604,197.75365073749998,198.08391339999997,64.0,89.0
605,198.06943973749998,198.46812334999998,69.0,91.0
606,198.38522873749997,198.7470703,64.0,90.0
607,198.70101773749997,199.0799645375,69.0,91.0
608,199.0168067375,199.37601672499997,64.0,85.0
609,199.3325957375,199.78259506249998,69.0,86.0
610,199.64838473749998,199.9049633,64.0,86.0
611,200.27996273749997,200.64575166249998,64.0,83.0
612,200.27996273749997,200.64706744999998,71.0,93.0
613,200.59575173749997,200.94048806249998,80.0,96.0
614,200.59575173749997,201.04048791249997,68.0,84.0
615,200.9115407375,201.27075072499997,78.0,96.0
616,200.9115407375,201.323382225,64.0,80.0
617,201.22732973749999,201.59838181249998,68.0,81.0
618,201.22732973749999,201.92469711249998,80.0,100.0
619,201.54311873749998,201.949697075,64.0,86.0
620,201.85890773749998,202.18917039999997,78.0,98.0
621,202.17469673749997,202.48390679999997,76.0,93.0
622,201.85890773749998,202.497064675,68.0,87.0
623,202.17469673749997,202.54969617499998,64.0,86.0
624,202.49048573749997,202.84706414999997,66.0,80.0
625,202.8062747375,203.21153728749997,59.0,92.0
626,203.12206373749999,203.46811584999998,66.0,84.0
627,202.49048573749997,203.76679961249997,78.0,92.0
628,203.43785273749998,203.83653635,59.0,89.0
629,203.75364173749998,204.1141675125,66.0,86.0
630,204.06943073749997,204.46548277499997,59.0,92.0
631,204.38521973749997,204.75890338749997,66.0,87.0
632,204.7010087375,204.9615346625,59.0,90.0
633,205.01679773749999,205.38390244999997,68.0,85.0
634,205.33258673749998,205.73258613749996,61.0,88.0
635,205.64837573749998,206.04311198749997,68.0,83.0
636,205.96416473749997,206.36679571249996,61.0,87.0
637,206.27995373749997,206.64969002499998,68.0,80.0
638,206.5957427375,206.97074217499997,61.0,91.0
639,206.91153173749998,207.3246890125,68.0,84.0
640,207.22732073749998,207.48258351249999,61.0,92.0
641,207.54310973749998,207.88916184999997,66.0,83.0
642,207.85889873749997,208.25889813749998,59.0,78.0
643,208.17468773749997,208.55889768749998,66.0,84.0
644,208.4904767375,208.90363401249996,59.0,91.0
645,208.80626573749998,209.18126517499996,66.0,85.0
646,209.12205473749998,209.53915937499997,59.0,92.0
647,209.43784373749997,209.81284317499998,66.0,86.0
648,209.75363273749997,210.06284279999997,59.0,92.0
649,210.06942173749997,210.4325790875,68.0,92.0
650,210.3852107375,210.6944208,61.0,78.0
651,210.70099973749998,211.06415708749998,68.0,91.0
652,211.01678873749998,211.41547235,61.0,87.0
653,211.33257773749997,211.69178772499998,68.0,83.0
654,211.64836673749997,212.01415566249997,61.0,86.0
655,211.96415573749996,212.3352078125,68.0,86.0
656,212.2799447375,212.47336549999997,61.0,85.0
657,212.59573373749998,213.4141535625,75.0,89.0
658,212.59573373749998,213.41546934999997,71.0,87.0
659,215.12204573749997,215.25888763749998,68.0,92.0
660,215.12204573749997,215.25888763749998,71.0,92.0
661,215.43783473749997,215.56415033749997,68.0,91.0
662,215.43783473749997,215.56415033749997,71.0,91.0
663,215.75362373749996,215.839149925,68.0,91.0
664,215.75362373749996,215.839149925,71.0,91.0
665,215.9115182375,216.02862332499998,68.0,91.0
666,215.9115182375,216.02862332499998,71.0,91.0
667,216.22730723749999,216.36283335,68.0,93.0
668,216.22730723749999,216.36283335,71.0,93.0
669,216.54309623749998,216.62730663749997,68.0,90.0
670,216.54309623749998,216.62730663749997,71.0,90.0
671,216.70099073749998,216.7746748375,68.0,91.0
672,216.70099073749998,216.7746748375,71.0,91.0
673,216.85888523749998,216.93651669999997,68.0,91.0
674,216.85888523749998,216.93651669999997,71.0,91.0
675,217.01677973749997,217.16283214999999,68.0,93.0
676,217.01677973749997,217.16283214999999,71.0,93.0
677,217.33256873749997,217.43520016249997,68.0,90.0
678,217.33256873749997,217.43520016249997,71.0,90.0
679,217.49046323749997,217.59441044999997,68.0,91.0
680,217.49046323749997,217.59441044999997,71.0,91.0
681,217.64835773749996,218.92730318749997,64.0,91.0
682,217.64835773749996,218.94967157499997,69.0,86.0
683,220.17466973749998,220.3115116375,68.0,92.0
684,220.17466973749998,220.3115116375,71.0,92.0
685,220.49045873749998,220.61677433749998,68.0,91.0
686,220.49045873749998,220.61677433749998,71.0,91.0
687,220.80624773749997,220.89177392499997,68.0,91.0
688,220.80624773749997,220.89177392499997,71.0,91.0
689,220.96414223749997,221.08124732499996,68.0,91.0
690,220.96414223749997,221.08124732499996,71.0,91.0
691,221.27993123749997,221.41545734999997,68.0,93.0
692,221.27993123749997,221.41545734999997,71.0,93.0
693,221.5957202375,221.67993063749998,68.0,90.0
694,221.5957202375,221.67993063749998,71.0,90.0
695,221.7536147375,221.82729883749997,68.0,91.0
696,221.7536147375,221.82729883749997,71.0,91.0
697,221.91150923749998,221.98914069999998,68.0,91.0
698,221.91150923749998,221.98914069999998,71.0,91.0
699,222.06940373749998,222.21545614999997,68.0,93.0
700,222.06940373749998,222.21545614999997,71.0,93.0
701,222.38519273749998,222.48782416249998,68.0,90.0
702,222.38519273749998,222.48782416249998,71.0,90.0
703,222.54308723749998,222.64703444999998,68.0,91.0
704,222.54308723749998,222.64703444999998,71.0,91.0
705,222.70098173749997,223.97992718749998,66.0,91.0
706,222.70098173749997,224.00229557499998,71.0,86.0
707,225.22729373749996,225.44571446249998,73.0,89.0
708,225.5430827375,225.78518763749997,73.0,93.0
709,225.85887173749998,225.98518733749998,71.0,93.0
710,226.01676623749998,226.08650297499997,73.0,90.0
711,226.17466073749998,226.27334479999996,73.0,87.0
712,226.33255523749997,226.44308138749997,71.0,94.0
713,226.49044973749997,226.72860727499997,73.0,91.0
714,226.80623873749997,227.09439619999998,73.0,92.0
715,227.12202773749996,227.24308018749997,71.0,93.0
716,227.2799222375,227.36939578749997,73.0,93.0
717,227.4378167375,227.54834288749998,73.0,87.0
718,227.59571123749998,227.70097423749996,71.0,96.0
719,227.75360573749998,228.85886723749996,71.0,97.0
720,230.27991773749997,230.52070684999998,73.0,93.0
721,230.59570673749997,230.84702215,73.0,93.0
722,230.91149573749996,231.04833763749997,71.0,97.0
723,231.0693902375,231.33386352499997,73.0,95.0
724,231.38517923749998,231.85491537499996,76.0,93.0
725,231.85886273749998,232.15754649999997,73.0,96.0
726,232.17465173749997,232.3220199375,71.0,92.0
727,232.33254623749997,232.83122969999997,73.0,95.0
728,232.80622973749996,233.04175569999998,69.0,88.0
729,232.80622973749996,233.04438727499996,64.0,91.0
730,233.12201873749999,233.25886063749996,64.0,87.0
731,233.12201873749999,233.26149221249997,69.0,90.0
732,233.43780773749998,233.55359703749997,64.0,84.0
733,233.43780773749998,233.56017597499996,69.0,87.0
734,233.75359673749998,233.82728083749998,69.0,88.0
735,233.75359673749998,233.83254398749997,64.0,89.0
736,233.91149123749997,233.97596482499998,64.0,87.0
737,233.91149123749997,233.98122797499997,69.0,92.0
738,234.06938573749997,234.16543822499997,64.0,89.0
739,234.06938573749997,234.17596452499998,69.0,92.0
740,234.38517473749997,234.56280604999998,69.0,87.0
741,234.38517473749997,234.57596392499997,64.0,89.0
742,234.70096373749996,235.12727888749998,64.0,91.0
743,234.70096373749996,235.14306833749998,69.0,91.0
744,235.33254173749998,235.4693836375,68.0,92.0
745,235.33254173749998,235.4693836375,71.0,92.0
746,235.64833073749998,235.77464633749997,68.0,91.0
747,235.64833073749998,235.77464633749997,71.0,91.0
748,235.96411973749997,236.04964592499996,68.0,91.0
749,235.96411973749997,236.04964592499996,71.0,91.0
750,236.12201423749997,236.23911932499996,68.0,91.0
751,236.12201423749997,236.23911932499996,71.0,91.0
752,236.43780323749996,236.57332934999997,68.0,93.0
753,236.43780323749996,236.57332934999997,71.0,93.0
754,236.7535922375,236.83780263749998,68.0,90.0
755,236.7535922375,236.83780263749998,71.0,90.0
756,236.91148673749998,236.98517083749996,68.0,91.0
757,236.91148673749998,236.98517083749996,71.0,91.0
758,237.06938123749998,237.14701269999998,68.0,91.0
759,237.06938123749998,237.14701269999998,71.0,91.0
760,237.22727573749998,237.37332814999996,68.0,93.0
761,237.22727573749998,237.37332814999996,71.0,93.0
762,237.54306473749998,237.64569616249997,68.0,90.0
763,237.54306473749998,237.64569616249997,71.0,90.0
764,237.70095923749997,237.80490644999998,68.0,91.0
765,237.70095923749997,237.80490644999998,71.0,91.0
766,237.85885373749997,239.13779918749998,64.0,91.0
767,237.85885373749997,239.16016757499997,69.0,86.0
768,240.38516573749996,240.52200763749997,68.0,92.0
769,240.38516573749996,240.52200763749997,71.0,92.0
770,240.70095473749998,240.82727033749998,68.0,91.0
771,240.70095473749998,240.82727033749998,71.0,91.0
772,241.01674373749998,241.10226992499997,68.0,91.0
773,241.01674373749998,241.10226992499997,71.0,91.0
774,241.17463823749998,241.29174332499997,68.0,91.0
775,241.17463823749998,241.29174332499997,71.0,91.0
776,241.49042723749997,241.62595334999997,68.0,93.0
777,241.49042723749997,241.62595334999997,71.0,93.0
778,241.80621623749997,241.89042663749998,68.0,90.0
779,241.80621623749997,241.89042663749998,71.0,90.0
780,241.96411073749996,242.03779483749997,68.0,91.0
781,241.96411073749996,242.03779483749997,71.0,91.0
782,242.12200523749996,242.19963669999999,68.0,91.0
783,242.12200523749996,242.19963669999999,71.0,91.0
784,242.27989973749996,242.42595214999997,68.0,93.0
785,242.27989973749996,242.42595214999997,71.0,93.0
786,242.59568873749998,242.69832016249998,68.0,90.0
787,242.59568873749998,242.69832016249998,71.0,90.0
788,242.75358323749998,242.85753044999998,68.0,91.0
789,242.75358323749998,242.85753044999998,71.0,91.0
790,242.91147773749998,244.19042318749996,66.0,91.0
791,242.91147773749998,244.21279157499998,71.0,86.0
792,245.43778973749997,245.65621046249998,73.0,89.0
793,245.75357873749996,245.99568363749998,73.0,93.0
794,246.06936773749996,246.1956833375,71.0,93.0
795,246.22726223749999,246.29699897499998,73.0,90.0
796,246.38515673749998,246.48384079999997,73.0,87.0
797,246.54305123749998,246.65357738749998,71.0,94.0
798,246.70094573749998,246.93910327499998,73.0,91.0
799,247.01673473749997,247.30489219999998,73.0,92.0
800,247.33252373749997,247.45357618749998,71.0,93.0
801,247.49041823749997,247.57989178749997,73.0,93.0
802,247.64831273749996,247.75883888749996,73.0,87.0
803,247.80620723749996,247.91147023749997,71.0,96.0
804,247.96410173749996,249.06936323749997,71.0,97.0
805,250.49041373749998,250.73120284999996,73.0,93.0
806,250.80620273749997,251.05751814999996,73.0,93.0
807,251.12199173749997,251.25883363749998,71.0,97.0
808,251.27988623749997,251.54435952499998,73.0,95.0
809,251.59567523749996,252.06541137499997,76.0,93.0
810,252.06935873749998,252.36804249999997,73.0,96.0
811,252.38514773749998,252.53251593749997,71.0,92.0
812,252.54304223749998,253.04172569999997,73.0,95.0
813,253.01672573749997,253.83514556249997,75.0,89.0
814,253.01672573749997,253.83646134999998,71.0,87.0
