,start,end,pitch,velocity
0,10.806562737499998,11.052615,73.0,85.0
1,11.122351737499999,11.3999829,73.0,91.0
2,11.4381407375,11.735508712499998,71.0,90.0
3,11.753929737499998,11.981560974999999,73.0,93.0
4,12.069718737499999,12.32103415,73.0,92.0
5,12.3855077375,12.631559999999999,71.0,93.0
6,12.701296737499998,12.993401562499999,73.0,92.0
7,13.017085737499999,14.899977649999999,71.0,93.0
8,15.859186737499998,15.964449737499999,73.0,96.0
9,16.1749757375,16.3802385875,73.0,96.0
10,16.490764737499997,16.696027587499998,73.0,85.0
11,16.8065537375,17.0302376125,76.0,91.0
12,17.1223427375,17.392079175,75.0,90.0
13,17.438131737499997,17.6854997875,73.0,97.0
14,17.7539207375,17.968394099999998,71.0,93.0
15,18.0591834375,20.081548825,68.0,91.0
16,20.911810737499998,21.14207355,78.0,87.0
17,21.227599737499997,21.6275991375,78.0,93.0
18,21.701283237499997,21.859177737499998,71.0,92.0
19,21.859177737499998,22.03680905,78.0,92.0
20,22.174966737499997,22.419703212499996,78.0,93.0
21,22.484176799999997,22.694702799999998,71.0,91.0
22,22.7999658,22.981544474999996,73.0,93.0
23,23.122333737499996,23.3775965125,76.0,93.0
24,23.4381227375,24.76312075,73.0,94.0
25,25.964434737499996,26.207855424999998,78.0,91.0
26,26.2802237375,26.511802337499997,78.0,93.0
27,26.596012737499997,26.799959799999996,71.0,98.0
28,26.911801737499996,27.151275062499998,71.0,91.0
29,27.227590737499998,27.446011462499996,68.0,92.0
30,27.543379737499997,27.74206365,71.0,92.0
31,27.859168737499996,29.55258725,73.0,90.0
32,31.017058737499998,31.184163749999996,73.0,84.0
33,31.332847737499996,31.709162962499995,73.0,92.0
34,31.806531237499996,31.901267937499995,71.0,91.0
35,31.964425737499997,32.1578465,73.0,93.0
36,32.280214737499996,32.5144249125,73.0,87.0
37,32.5960037375,32.80652973749999,71.0,93.0
38,32.911792737499994,33.1960028375,73.0,91.0
39,33.227581737499996,34.597316525,71.0,92.0
40,36.069682737499996,36.31047185,73.0,93.0
41,36.3854717375,36.5999451,73.0,92.0
42,36.70126073749999,36.9486287875,73.0,93.0
43,37.017049737499995,37.2275757375,76.0,93.0
44,37.3328387375,37.5683647,75.0,91.0
45,37.64862773749999,37.83678534999999,73.0,96.0
46,37.964416737499995,38.165732225,71.0,97.0
47,38.2802057375,40.37362365,68.0,93.0
48,41.1223067375,41.342043249999996,78.0,92.0
49,41.43809573749999,41.651253312499996,78.0,95.0
50,41.753884737499995,41.968358099999996,71.0,95.0
51,42.0696737375,42.270989224999994,78.0,92.0
52,42.38546273749999,42.56309405,78.0,92.0
53,42.701251737499994,42.8828304125,71.0,96.0
54,43.0170407375,43.2433561875,73.0,93.0
55,43.33282973749999,43.573618849999995,80.0,92.0
56,43.648618737499994,43.840723712499994,76.0,76.0
57,43.9644077375,44.149933774999994,73.0,96.0
58,44.28019673749999,44.477564862499996,76.0,96.0
59,44.595985737499994,45.793352362499995,73.0,97.0
60,46.17493073749999,46.380193587499996,78.0,92.0
61,46.490719737499994,46.705193099999995,78.0,92.0
62,46.806508737499996,46.990718987499996,71.0,93.0
63,47.12229773749999,47.334139525,71.0,91.0
64,47.438086737499994,47.64729695,68.0,94.0
65,47.753875737499996,47.9367702,71.0,92.0
66,48.06966473749999,50.11703008749999,73.0,86.0
67,51.22755473749999,51.44729124999999,76.0,97.0
68,51.543343737499995,51.759132887499995,78.0,95.0
69,51.8591327375,52.00650093749999,76.0,93.0
70,52.17492173749999,52.298605762499996,75.0,93.0
71,52.326237299999995,52.45781604999999,76.0,97.0
72,52.490710737499995,52.61702633749999,75.0,95.0
73,52.64860523749999,52.732815637499996,73.0,93.0
74,52.8064997375,53.03676254999999,71.0,97.0
75,53.12228873749999,55.76833739999999,73.0,95.0
76,56.280178737499995,56.499915249999994,76.0,97.0
77,56.5959677375,56.811756887499996,78.0,95.0
78,56.91175673749999,57.059124937499995,76.0,93.0
79,57.22491416249999,57.35122976249999,75.0,97.0
80,57.3670192125,57.46833484999999,76.0,93.0
81,57.5433347375,57.669650337499995,75.0,95.0
82,57.701229237499994,57.78543963749999,73.0,93.0
83,57.85912373749999,58.08938654999999,71.0,97.0
84,58.174912737499994,60.820961399999995,68.0,95.0
85,61.332802737499996,61.4617499125,68.0,91.0
86,61.490697237499994,61.701223237499995,69.0,86.0
87,61.64859173749999,61.920959749999994,71.0,98.0
88,61.964380737499994,62.06043322499999,73.0,95.0
89,62.280169737499996,62.50516939999999,75.0,87.0
90,62.438064237499994,62.61043239999999,76.0,93.0
91,62.59595873749999,62.757800599999996,75.0,93.0
92,62.753853237499996,62.910431949999996,73.0,91.0
93,62.911747737499994,63.142010549999995,71.0,98.0
94,63.227536737499996,64.081482825,69.0,100.0
95,65.4380597375,65.68542778749999,73.0,87.0
96,65.7538487375,66.0091115125,76.0,93.0
97,66.06963773749999,66.3170057875,75.0,95.0
98,66.3854267375,66.913057525,71.0,92.0
99,67.01700473749999,67.53279343749999,69.0,91.0
100,67.64858273749999,67.87884555,68.0,97.0
101,67.96437173749999,68.1854240375,66.0,93.0
102,68.2801607375,68.49594988749999,69.0,89.0
103,68.59594973749999,70.58147307499999,68.0,92.0
104,71.43805073749999,71.65778725,76.0,97.0
105,71.75383973749999,71.9696288875,78.0,95.0
106,72.0696287375,72.21699693749999,76.0,93.0
107,72.38541773749999,72.62620684999999,76.0,93.0
108,72.70120673749999,72.82752233749999,75.0,95.0
109,72.8591012375,72.94331163749999,73.0,93.0
110,73.0169957375,73.24725855,71.0,97.0
111,73.33278473749999,75.97883339999998,73.0,95.0
112,76.49067473749999,76.71041124999999,76.0,97.0
113,76.8064637375,77.02225288749999,78.0,95.0
114,77.12225273749999,77.2696209375,76.0,93.0
115,77.43804173749999,77.67883085,76.0,93.0
116,77.7538307375,77.8801463375,75.0,95.0
117,77.9117252375,77.9959356375,73.0,93.0
118,78.06961973749999,78.29988254999999,71.0,97.0
119,78.38540873749999,81.0314574,68.0,95.0
120,81.5432987375,81.67224591249999,68.0,91.0
121,81.7011932375,81.9117192375,69.0,86.0
122,81.85908773749999,82.13145574999999,71.0,98.0
123,82.17487673749999,82.27092922499999,73.0,95.0
124,82.4906657375,82.71566539999999,75.0,87.0
125,82.64856023749999,82.82092839999999,76.0,93.0
126,82.80645473749999,82.96829659999999,75.0,93.0
127,82.96434923749999,83.12092795,73.0,91.0
128,83.12224373749999,83.35250654999999,71.0,98.0
129,83.4380327375,84.29197882499999,69.0,100.0
130,85.3327667375,85.5985558125,61.0,102.0
131,85.64855573749999,85.84987122499999,73.0,91.0
132,85.96434473749999,86.08539718749999,71.0,86.0
133,86.1222392375,86.23144959999999,69.0,91.0
134,86.2801337375,88.2143413625,68.0,93.0
135,88.49065673749999,88.70776167499999,69.0,93.0
136,88.80644573749998,91.28538938749999,66.0,102.0
137,111.85904273749999,112.02614774999999,76.0,84.0
138,112.17483173749999,112.49062073749998,76.0,92.0
139,112.49062073749998,112.80640973749999,76.0,92.0
140,112.80640973749999,112.99983049999999,76.0,93.0
141,113.12219873749999,113.35640891249999,76.0,87.0
142,113.43798773749998,113.64851373749998,75.0,93.0
143,113.75377673749999,114.03798683749999,73.0,91.0
144,114.06956573749999,115.439300525,71.0,92.0
145,116.91166673749998,117.15245584999998,76.0,93.0
146,117.22745573749998,117.44192909999998,76.0,92.0
147,117.54324473749999,117.79061278749998,76.0,93.0
148,117.85903373749998,118.06955973749999,78.0,93.0
149,118.17482273749998,118.41034869999999,76.0,91.0
150,118.49061173749999,118.67876934999998,75.0,96.0
151,118.80640073749998,119.00771622499998,71.0,97.0
152,119.1221897375,121.21560764999998,68.0,93.0
153,121.9642907375,122.18402724999999,78.0,92.0
154,122.28007973749999,122.49323731249999,78.0,95.0
155,122.59586873749998,122.81034209999999,71.0,95.0
156,122.9116577375,123.11297322499999,78.0,92.0
157,123.22744673749999,123.40507804999999,78.0,92.0
158,123.54323573749998,123.72481441249998,71.0,96.0
159,123.8590247375,124.08534018749998,73.0,93.0
160,124.17481373749999,124.41560284999998,80.0,92.0
161,124.49060273749998,124.68270771249999,76.0,76.0
162,124.8063917375,124.99191777499999,73.0,96.0
163,125.12218073749999,125.31954886249999,76.0,96.0
164,125.43796973749998,126.63533636249998,73.0,97.0
165,127.01691473749999,127.22217758749998,78.0,92.0
166,127.33270373749998,127.54717709999998,78.0,92.0
167,127.64849273749999,127.83270298749999,71.0,93.0
168,127.96428173749999,128.17612352499998,71.0,91.0
169,128.28007073749998,128.48928095,68.0,94.0
170,128.59585973749998,128.77875419999998,71.0,92.0
171,128.91164873749997,130.95901408749998,73.0,86.0
172,132.06953873749998,132.28927524999997,76.0,97.0
173,132.38532773749998,132.60111688749998,78.0,95.0
174,132.70111673749997,132.8484849375,76.0,93.0
175,133.0169057375,133.25769484999998,76.0,93.0
176,133.3326947375,133.4590103375,75.0,95.0
177,133.4905892375,133.57479963749998,73.0,93.0
178,133.6484837375,133.87874655,71.0,97.0
179,133.96427273749998,136.61032139999998,73.0,95.0
180,137.1221627375,137.34189924999998,76.0,97.0
181,137.4379517375,137.6537408875,78.0,95.0
182,137.75374073749998,137.9011089375,76.0,93.0
183,138.06952973749998,138.31031885,76.0,93.0
184,138.38531873749997,138.5116343375,75.0,95.0
185,138.5432132375,138.6274236375,73.0,93.0
186,138.7011077375,138.93137055,71.0,97.0
187,139.0168967375,141.66294539999998,68.0,95.0
188,142.17478673749997,142.30373391249998,68.0,91.0
189,142.3326812375,142.54320723749998,69.0,86.0
190,142.4905757375,142.76294374999998,71.0,98.0
191,142.8063647375,142.902417225,73.0,95.0
192,143.12215373749999,143.3471534,75.0,87.0
193,143.28004823749998,143.45241639999998,76.0,93.0
194,143.43794273749998,143.5997846,75.0,93.0
195,143.59583723749998,143.75241594999997,73.0,91.0
196,143.75373173749998,143.98399454999998,71.0,98.0
197,144.06952073749997,144.923466825,69.0,100.0
198,146.2800437375,146.52741178749997,73.0,87.0
199,146.5958327375,146.8510955125,76.0,93.0
200,146.91162173749998,147.1589897875,75.0,95.0
201,147.22741073749998,147.755041525,71.0,92.0
202,147.85898873749997,148.37477743749997,69.0,91.0
203,148.4905667375,148.72082955,68.0,97.0
204,148.80635573749998,149.02740803749998,66.0,93.0
205,149.12214473749998,149.3379338875,69.0,89.0
206,149.43793373749997,151.423457075,68.0,92.0
207,152.2800347375,152.49977124999998,76.0,97.0
208,152.59582373749998,152.8116128875,78.0,95.0
209,152.91161273749998,153.0589809375,76.0,93.0
210,153.22740173749997,153.46819084999998,76.0,93.0
211,153.54319073749997,153.6695063375,75.0,95.0
212,153.7010852375,153.78529563749998,73.0,93.0
213,153.8589797375,154.08924255,71.0,97.0
214,154.1747687375,156.82081739999998,73.0,95.0
215,157.33265873749997,157.55239525,76.0,97.0
216,157.6484477375,157.86423688749997,78.0,95.0
217,157.9642367375,158.11160493749998,76.0,93.0
218,158.28002573749998,158.52081485,76.0,93.0
219,158.59581473749998,158.72213033749998,75.0,95.0
220,158.75370923749998,158.8379196375,73.0,93.0
221,158.91160373749997,159.14186654999997,71.0,97.0
222,159.22739273749997,161.8734414,68.0,95.0
223,162.38528273749998,162.51422991249999,68.0,91.0
224,162.54317723749998,162.7537032375,69.0,86.0
225,162.70107173749997,162.97343974999998,71.0,98.0
226,163.01686073749997,163.11291322499997,73.0,95.0
227,163.3326497375,163.55764939999997,75.0,87.0
228,163.4905442375,163.66291239999998,76.0,93.0
229,163.6484387375,163.81028059999997,75.0,93.0
230,163.80633323749998,163.96291194999998,73.0,91.0
231,163.96422773749998,164.19449054999998,71.0,98.0
232,164.28001673749998,165.13396282499997,69.0,100.0
233,166.17475073749998,166.4405398125,61.0,102.0
234,166.49053973749997,166.69185522499998,73.0,91.0
235,166.8063287375,166.92738118749998,71.0,86.0
236,166.9642232375,167.0734336,69.0,91.0
237,167.1221177375,169.0563253625,68.0,93.0
238,169.3326407375,169.54974567499997,69.0,93.0
239,169.64842973749998,172.12737338749997,66.0,102.0
240,172.4905307375,172.65763574999997,76.0,84.0
241,172.8063197375,173.12210873749999,76.0,92.0
242,173.12210873749999,173.43789773749998,76.0,92.0
243,173.43789773749998,173.6313185,76.0,93.0
244,173.75368673749998,173.9878969125,76.0,87.0
245,174.06947573749997,174.2800017375,75.0,93.0
246,174.3852647375,174.6694748375,73.0,91.0
247,174.7010537375,176.07078852499998,71.0,92.0
248,177.54315473749998,177.78394384999999,76.0,93.0
249,177.85894373749997,178.07341709999997,76.0,92.0
250,178.1747327375,178.42210078749997,76.0,93.0
251,178.4905217375,178.70104773749998,78.0,93.0
252,178.80631073749998,179.04183669999998,76.0,91.0
253,179.12209973749998,179.31025734999997,75.0,96.0
254,179.43788873749997,179.639204225,71.0,97.0
255,179.75367773749997,181.84709564999997,68.0,93.0
256,182.59577873749998,182.81551524999998,78.0,92.0
257,182.91156773749998,183.12472531249998,78.0,95.0
258,183.22735673749997,183.44183009999998,71.0,95.0
259,183.54314573749997,183.74446122499998,78.0,92.0
260,183.8589347375,184.03656604999998,78.0,92.0
261,184.1747237375,184.35630241249999,71.0,96.0
262,184.49051273749998,184.71682818749997,73.0,93.0
263,184.80630173749998,185.04709085,80.0,92.0
264,185.12209073749997,185.31419571249998,76.0,76.0
265,185.43787973749997,185.62340577499998,73.0,96.0
266,185.7536687375,185.9510368625,76.0,96.0
267,186.0694577375,187.2668243625,73.0,97.0
268,187.6484027375,187.8536655875,78.0,92.0
269,187.9641917375,188.1786651,78.0,92.0
270,188.27998073749998,188.4641909875,71.0,93.0
271,188.59576973749998,188.80761152499997,71.0,91.0
272,188.91155873749997,189.12076894999998,68.0,94.0
273,189.22734773749997,189.41024219999997,71.0,92.0
274,189.5431367375,191.59050208749997,73.0,86.0
275,192.70102673749997,192.86813174999997,76.0,84.0
276,193.01681573749997,193.3326047375,76.0,92.0
277,193.3326047375,193.6483937375,76.0,92.0
278,193.6483937375,193.84181449999997,76.0,93.0
279,193.96418273749998,194.19839291249997,76.0,87.0
280,194.27997173749998,194.49049773749996,75.0,93.0
281,194.59576073749997,194.87997083749997,73.0,91.0
282,194.91154973749997,196.281284525,71.0,92.0
283,197.75365073749998,197.99443985,76.0,93.0
284,198.06943973749998,198.28391309999998,76.0,92.0
285,198.38522873749997,198.63259678749998,76.0,93.0
286,198.70101773749997,198.91154373749998,78.0,93.0
287,199.0168067375,199.25233269999998,76.0,91.0
288,199.3325957375,199.52075334999998,75.0,96.0
289,199.64838473749998,199.849700225,71.0,97.0
290,199.96417373749998,202.05759164999998,68.0,93.0
291,202.8062747375,203.02601124999998,78.0,92.0
292,203.12206373749999,203.33522131249998,78.0,95.0
293,203.43785273749998,203.65232609999998,71.0,95.0
294,203.75364173749998,203.954957225,78.0,92.0
295,204.06943073749997,204.24706204999998,78.0,92.0
296,204.38521973749997,204.5667984125,71.0,96.0
297,204.7010087375,204.92732418749998,73.0,93.0
298,205.01679773749999,205.25758684999997,80.0,92.0
299,205.33258673749998,205.5246917125,76.0,76.0
300,205.64837573749998,205.833901775,73.0,96.0
301,205.96416473749997,206.16153286249997,76.0,96.0
302,206.27995373749997,207.47732036249997,73.0,97.0
303,207.85889873749997,208.06416158749997,78.0,92.0
304,208.17468773749997,208.38916109999997,78.0,92.0
305,208.4904767375,208.67468698749997,71.0,93.0
306,208.80626573749998,209.01810752499998,71.0,91.0
307,209.12205473749998,209.33126495,68.0,94.0
308,209.43784373749997,209.62073819999998,71.0,92.0
309,209.75363273749997,211.80099808749998,73.0,86.0
310,212.91152273749998,213.07862774999998,76.0,84.0
311,213.22731173749997,213.54310073749997,76.0,92.0
312,213.54310073749997,213.85888973749996,76.0,92.0
313,213.85888973749996,214.05231049999998,76.0,93.0
314,214.1746787375,214.40888891249998,76.0,87.0
315,214.49046773749998,214.70099373749997,75.0,93.0
316,214.80625673749998,215.09046683749997,73.0,91.0
317,215.12204573749997,216.49178052499997,71.0,92.0
318,217.9641467375,218.20493584999997,76.0,93.0
319,218.27993573749998,218.49440909999998,76.0,92.0
320,218.59572473749998,218.84309278749998,76.0,93.0
321,218.91151373749997,219.1220397375,78.0,93.0
322,219.22730273749997,219.4628287,76.0,91.0
323,219.54309173749996,219.73124934999998,75.0,96.0
324,219.8588807375,220.06019622499997,71.0,97.0
325,220.17466973749998,222.26808764999998,68.0,93.0
326,223.01677073749997,223.23650725,78.0,92.0
327,223.33255973749996,223.5457173125,78.0,95.0
328,223.6483487375,223.8628221,71.0,95.0
329,223.96413773749998,224.16545322499996,78.0,92.0
330,224.27992673749998,224.45755805,78.0,92.0
331,224.59571573749997,224.77729441249997,71.0,96.0
332,224.91150473749997,225.13782018749998,73.0,93.0
333,225.22729373749996,225.46808284999997,80.0,92.0
334,225.5430827375,225.73518771249996,76.0,76.0
335,225.85887173749998,226.04439777499996,73.0,96.0
336,226.17466073749998,226.37202886249997,76.0,96.0
337,226.49044973749997,227.68781636249997,73.0,97.0
338,228.06939473749998,228.27465758749997,78.0,92.0
339,228.38518373749997,228.59965709999997,78.0,92.0
340,228.70097273749997,228.88518298749997,71.0,93.0
341,229.01676173749996,229.22860352499998,71.0,91.0
342,229.3325507375,229.54176094999997,68.0,94.0
343,229.64833973749998,229.83123419999998,71.0,92.0
344,229.96412873749998,232.01149408749998,73.0,86.0
345,233.12201873749999,233.28912375,76.0,84.0
346,233.43780773749998,233.75359673749998,76.0,92.0
347,233.75359673749998,234.06938573749997,76.0,92.0
348,234.06938573749997,234.26280649999998,76.0,93.0
349,234.38517473749997,234.61938491249998,76.0,87.0
350,234.70096373749996,234.91148973749998,75.0,93.0
351,235.01675273749998,235.30096283749998,73.0,91.0
352,235.33254173749998,236.70227652499997,71.0,92.0
353,238.17464273749997,238.41543184999998,76.0,93.0
354,238.49043173749996,238.70490509999996,76.0,92.0
355,238.80622073749998,239.05358878749996,76.0,93.0
356,239.12200973749998,239.33253573749997,78.0,93.0
357,239.43779873749997,239.67332469999997,76.0,91.0
358,239.75358773749997,239.94174534999996,75.0,96.0
359,240.06937673749997,240.27069222499998,71.0,97.0
360,240.38516573749996,242.47858364999996,68.0,93.0
361,243.22726673749997,243.44700324999997,78.0,92.0
362,243.54305573749997,243.75621331249997,78.0,95.0
363,243.85884473749996,244.07331809999997,71.0,95.0
364,244.17463373749996,244.37594922499997,78.0,92.0
365,244.49042273749998,244.66805404999997,78.0,92.0
366,244.80621173749998,244.98779041249998,71.0,96.0
367,245.12200073749997,245.34831618749996,73.0,93.0
368,245.43778973749997,245.67857884999998,80.0,92.0
369,245.75357873749996,245.94568371249997,76.0,76.0
370,246.06936773749996,246.25489377499997,73.0,96.0
371,246.38515673749998,246.58252486249998,76.0,96.0
372,246.70094573749998,247.89831236249998,73.0,97.0
373,248.27989073749998,248.48515358749998,78.0,92.0
374,248.59567973749998,248.81015309999998,78.0,92.0
375,248.91146873749997,249.09567898749998,71.0,93.0
376,249.22725773749997,249.43909952499996,71.0,91.0
377,249.54304673749996,249.75225694999997,68.0,94.0
378,249.85883573749996,250.04173019999996,71.0,92.0
379,250.17462473749998,252.22199008749996,73.0,86.0
