,start,end,pitch,velocity
0,0.38552573749999997,2.3355228125,64.0,82.0
1,0.38552573749999997,2.3697332875,61.0,78.0
2,0.38552573749999997,2.3894700999999996,37.0,76.0
3,2.9118377374999995,5.214465862499999,45.0,76.0
4,2.9118377374999995,5.393412962499999,61.0,79.0
5,2.9118377374999995,5.397360324999999,57.0,75.0
6,5.438149737499999,7.3881468125,64.0,82.0
7,5.438149737499999,7.422357287499999,61.0,78.0
8,5.438149737499999,7.442094099999999,37.0,76.0
9,7.964461737499999,10.267089862499999,45.0,76.0
10,7.964461737499999,10.4460369625,61.0,79.0
11,10.3999844,10.4460369625,61.0,80.0
12,7.964461737499999,10.449984324999999,57.0,75.0
13,10.335510812499999,10.449984324999999,57.0,86.0
14,10.409194912499999,12.440770812499998,45.0,92.0
15,10.482879012499998,12.823664974999998,64.0,89.0
16,10.5328789375,12.839454424999998,69.0,77.0
17,13.017085737499999,13.427611437499998,64.0,90.0
18,13.017085737499999,13.428927224999999,68.0,84.0
19,13.3328747375,13.7907687875,59.0,80.0
20,13.648663737499998,13.903926512499998,68.0,93.0
21,13.648663737499998,13.92103175,71.0,93.0
22,13.648663737499998,13.932873837499999,64.0,95.0
23,13.964452737499998,14.213136574999998,59.0,70.0
24,14.122347237499998,14.301294337499998,64.0,92.0
25,14.122347237499998,14.326294299999999,68.0,92.0
26,14.596030737499998,14.777609412499999,64.0,86.0
27,14.280241737499999,15.035503762499998,59.0,82.0
28,14.911819737499998,15.073661599999998,64.0,102.0
29,13.017085737499999,15.128924674999999,52.0,92.0
30,14.911819737499998,15.142082549999998,68.0,92.0
31,15.227608737499999,15.374976937499998,64.0,92.0
32,15.543397737499998,15.749976374999997,69.0,89.0
33,15.543397737499998,15.776292124999998,64.0,90.0
34,15.859186737499998,16.249975624999998,52.0,70.0
35,16.1749757375,16.3486596875,64.0,93.0
36,16.1749757375,16.367080712499998,61.0,91.0
37,16.1749757375,16.374975437499998,57.0,91.0
38,16.490764737499997,16.694711799999997,52.0,70.0
39,16.6486592375,16.802606375,61.0,87.0
40,16.6486592375,16.815764249999997,57.0,87.0
41,16.6486592375,16.851290512499997,64.0,91.0
42,17.1223427375,17.357868699999997,57.0,84.0
43,17.438131737499997,17.497342174999996,57.0,81.0
44,16.8065537375,17.555236824999998,52.0,88.0
45,15.543397737499998,17.7052366,45.0,92.0
46,17.438131737499997,18.0104993,61.0,92.0
47,17.7539207375,18.031551899999997,57.0,91.0
48,17.438131737499997,18.047341349999996,64.0,94.0
49,17.438131737499997,18.213130574999997,69.0,91.0
50,18.385498737499997,18.826287549999996,59.0,79.0
51,18.7012877375,18.897340075,64.0,92.0
52,18.7012877375,18.903919012499998,68.0,92.0
53,18.7012877375,18.9368137,71.0,91.0
54,19.0170767375,19.235497462499996,59.0,80.0
55,19.1749712375,19.323655225,64.0,97.0
56,19.6486547375,19.827601837499998,64.0,95.0
57,19.332865737499997,20.072338312499998,59.0,84.0
58,19.964443737499998,20.099969849999997,64.0,95.0
59,18.0697097375,20.1539171375,52.0,94.0
60,19.964443737499998,20.2749695875,68.0,95.0
61,19.964443737499998,20.288127462499997,71.0,93.0
62,20.280232737499997,20.3591799875,64.0,92.0
63,20.5960217375,21.149968275,59.0,91.0
64,21.227599737499997,21.468388849999997,59.0,95.0
65,21.227599737499997,21.471020425,63.0,92.0
66,21.227599737499997,21.496020387499996,66.0,91.0
67,20.5960217375,21.710493749999998,47.0,94.0
68,21.701283237499997,21.8407567125,63.0,85.0
69,21.701283237499997,21.8407567125,66.0,79.0
70,21.701283237499997,21.869704037499996,59.0,87.0
71,21.859177737499998,22.344703324999998,54.0,75.0
72,22.174966737499997,22.549966174999998,59.0,93.0
73,22.174966737499997,22.599966099999996,63.0,89.0
74,22.174966737499997,22.621018699999997,66.0,85.0
75,22.174966737499997,22.624966062499997,71.0,88.0
76,22.4907557375,22.742071149999997,51.0,71.0
77,22.806544737499998,22.8841762,59.0,92.0
78,23.122333737499996,23.488122662499997,68.0,86.0
79,23.122333737499996,23.51049105,64.0,86.0
80,23.122333737499996,23.559175187499996,61.0,86.0
81,23.4381227375,23.9118062375,56.0,75.0
82,23.753911737499998,23.9157536,64.0,100.0
83,23.753911737499998,23.940753562499996,61.0,94.0
84,23.753911737499998,23.951279862499998,68.0,94.0
85,24.069700737499996,24.239437324999997,56.0,45.0
86,23.122333737499996,24.28943725,49.0,97.0
87,24.227595237499997,24.327595087499997,61.0,93.0
88,24.3854897375,24.563121049999996,61.0,94.0
89,24.3854897375,24.571015774999996,68.0,93.0
90,24.3854897375,24.577594712499998,64.0,100.0
91,24.8591732375,25.057857149999997,56.0,91.0
92,24.701278737499997,25.113120224999996,61.0,86.0
93,25.3328567375,25.422330287499996,61.0,95.0
94,25.648645737499997,25.865750674999997,59.0,89.0
95,25.648645737499997,26.0196978125,63.0,83.0
96,25.648645737499997,26.034171474999997,66.0,83.0
97,25.964434737499996,26.124960812499996,59.0,85.0
98,25.648645737499997,26.461802412499996,47.0,93.0
99,26.2802237375,26.515749699999997,59.0,94.0
100,26.2802237375,26.518381274999996,63.0,93.0
101,26.2802237375,26.534170724999996,66.0,93.0
102,26.753907237499998,26.852591299999997,59.0,91.0
103,26.911801737499996,27.232853887499996,59.0,91.0
104,26.911801737499996,27.234169674999997,71.0,92.0
105,26.911801737499996,27.243380187499998,63.0,87.0
106,26.911801737499996,27.246011762499997,66.0,81.0
107,27.543379737499997,27.674958487499996,59.0,102.0
108,27.227590737499998,27.693379512499998,54.0,82.0
109,27.543379737499997,27.696011087499997,63.0,89.0
110,27.543379737499997,27.706537387499996,66.0,84.0
111,28.174957737499998,28.289431249999996,37.0,91.0
112,28.174957737499998,28.365746924999996,61.0,91.0
113,28.174957737499998,28.538115087499996,64.0,98.0
114,28.174957737499998,28.544694025,68.0,87.0
115,28.490746737499997,28.638114937499996,61.0,85.0
116,28.806535737499996,29.065745874999998,64.0,97.0
117,28.806535737499996,29.073640599999997,68.0,92.0
118,28.806535737499996,29.076272174999996,61.0,93.0
119,29.122324737499998,29.352587549999996,56.0,58.0
120,29.280219237499995,29.378903299999998,61.0,91.0
121,29.438113737499997,29.838113137499995,61.0,87.0
122,29.438113737499997,29.907849874999997,64.0,95.0
123,29.438113737499997,29.932849837499997,68.0,92.0
124,29.753902737499995,30.435480662499998,49.0,87.0
125,30.069691737499998,30.6525856,61.0,96.0
126,30.069691737499998,30.660480324999998,64.0,96.0
127,30.069691737499998,30.680217137499998,68.0,93.0
128,30.385480737499996,30.694690799999996,56.0,93.0
129,30.701269737499995,31.163111149999995,64.0,91.0
130,30.701269737499995,31.188111112499996,57.0,85.0
131,31.017058737499998,31.457847549999997,52.0,83.0
132,31.332847737499996,31.656531462499995,57.0,91.0
133,31.332847737499996,31.671005124999997,64.0,93.0
134,31.332847737499996,31.6723209125,61.0,86.0
135,31.490742237499997,31.763110249999997,52.0,78.0
136,31.806531237499996,31.918373174999996,57.0,93.0
137,31.964425737499997,32.2986357625,57.0,91.0
138,31.964425737499997,32.3683725,64.0,93.0
139,31.964425737499997,32.37363565,61.0,92.0
140,32.280214737499996,32.686793075,52.0,83.0
141,32.5960037375,33.186792325,57.0,92.0
142,30.701269737499995,33.207844924999996,45.0,91.0
143,32.5960037375,33.2144238625,61.0,92.0
144,32.911792737499994,33.218371225,52.0,92.0
145,32.5960037375,33.219687012499996,64.0,93.0
146,33.227581737499996,33.6381074375,64.0,90.0
147,33.227581737499996,33.639423224999994,68.0,84.0
148,33.5433707375,34.0012647875,59.0,80.0
149,33.85915973749999,34.1144225125,68.0,93.0
150,33.85915973749999,34.13152775,71.0,93.0
151,33.85915973749999,34.143369837499996,64.0,95.0
152,34.174948737499996,34.423632575,59.0,70.0
153,34.33284323749999,34.511790337499995,64.0,92.0
154,34.33284323749999,34.53679029999999,68.0,92.0
155,34.80652673749999,34.9881054125,64.0,86.0
156,34.4907377375,35.2459997625,59.0,82.0
157,33.227581737499996,35.265736575,40.0,93.0
158,35.122315737499996,35.28415759999999,64.0,102.0
159,33.227581737499996,35.339420675,52.0,92.0
160,35.122315737499996,35.35257855,68.0,92.0
161,35.4381047375,35.58547293749999,64.0,92.0
162,35.75389373749999,35.960472374999995,69.0,89.0
163,35.75389373749999,35.986788125,64.0,90.0
164,36.069682737499996,36.460471625,52.0,70.0
165,36.3854717375,36.559155687499995,64.0,93.0
166,36.3854717375,36.5775767125,61.0,91.0
167,36.3854717375,36.5854714375,57.0,91.0
168,36.70126073749999,36.9052078,52.0,70.0
169,36.8591552375,37.013102374999995,61.0,87.0
170,36.8591552375,37.02626024999999,57.0,87.0
171,36.8591552375,37.0617865125,64.0,91.0
172,37.3328387375,37.5683647,57.0,84.0
173,37.64862773749999,37.707838175,57.0,81.0
174,37.017049737499995,37.76573282499999,52.0,88.0
175,35.75389373749999,37.9157326,45.0,92.0
176,37.64862773749999,38.2209953,61.0,92.0
177,37.964416737499995,38.242047899999996,57.0,91.0
178,37.64862773749999,38.257837349999996,64.0,94.0
179,37.64862773749999,38.42362657499999,69.0,91.0
180,38.59599473749999,39.036783549999996,59.0,79.0
181,38.911783737499995,39.107836074999994,64.0,92.0
182,38.911783737499995,39.1144150125,68.0,92.0
183,38.911783737499995,39.147309699999994,71.0,91.0
184,39.2275727375,39.4459934625,59.0,80.0
185,39.385467237499995,39.534151224999995,64.0,97.0
186,39.859150737499995,40.0380978375,64.0,95.0
187,39.54336173749999,40.28283431249999,59.0,84.0
188,40.1749397375,40.31046584999999,64.0,95.0
189,38.2802057375,40.364413137499994,52.0,94.0
190,40.1749397375,40.485465587499995,68.0,95.0
191,40.1749397375,40.49862346249999,71.0,93.0
192,40.49072873749999,40.5696759875,64.0,92.0
193,40.806517737499995,41.360464275,59.0,91.0
194,41.43809573749999,41.678884849999996,59.0,95.0
195,41.43809573749999,41.681516425,63.0,92.0
196,41.43809573749999,41.706516387499995,66.0,91.0
197,41.91177923749999,42.051252712499995,63.0,85.0
198,41.91177923749999,42.051252712499995,66.0,79.0
199,40.806517737499995,42.0696737375,47.0,84.0
200,41.91177923749999,42.08020003749999,59.0,87.0
201,42.0696737375,42.555199325,54.0,75.0
202,42.38546273749999,42.760462174999994,59.0,93.0
203,42.38546273749999,42.810462099999995,63.0,89.0
204,42.38546273749999,42.83151469999999,66.0,85.0
205,42.38546273749999,42.83546206249999,71.0,88.0
206,42.701251737499994,42.95256714999999,51.0,71.0
207,43.0170407375,43.0946722,59.0,92.0
208,43.33282973749999,43.698618662499996,68.0,86.0
209,43.33282973749999,43.72098705,64.0,86.0
210,43.33282973749999,43.769671187499995,61.0,86.0
211,43.648618737499994,44.122302237499994,56.0,75.0
212,43.9644077375,44.126249599999994,64.0,100.0
213,43.9644077375,44.1512495625,61.0,94.0
214,43.9644077375,44.161775862499994,68.0,94.0
215,44.28019673749999,44.449933324999996,56.0,45.0
216,43.33282973749999,44.49993325,49.0,97.0
217,44.4380912375,44.53809108749999,61.0,93.0
218,44.595985737499994,44.77361705,61.0,94.0
219,44.595985737499994,44.781511775,68.0,93.0
220,44.595985737499994,44.788090712499994,64.0,100.0
221,45.069669237499994,45.268353149999996,56.0,91.0
222,43.33282973749999,45.311774137499995,37.0,78.0
223,44.9117747375,45.323616224999995,61.0,86.0
224,45.543352737499994,45.632826287499995,61.0,95.0
225,45.859141737499996,46.07624667499999,59.0,89.0
226,45.859141737499996,46.2301938125,63.0,83.0
227,45.859141737499996,46.24466747499999,66.0,83.0
228,46.17493073749999,46.33545681249999,59.0,85.0
229,45.859141737499996,46.6722984125,47.0,93.0
230,46.490719737499994,46.72624569999999,59.0,94.0
231,46.490719737499994,46.728877274999995,63.0,93.0
232,46.490719737499994,46.744666724999995,66.0,93.0
233,46.964403237499994,47.06308729999999,59.0,91.0
234,47.12229773749999,47.4433498875,59.0,91.0
235,47.12229773749999,47.444665674999996,71.0,92.0
236,47.12229773749999,47.45387618749999,63.0,87.0
237,47.12229773749999,47.456507762499996,66.0,81.0
238,47.753875737499996,47.88545448749999,59.0,102.0
239,47.438086737499994,47.903875512499994,54.0,82.0
240,47.753875737499996,47.906507087499996,63.0,89.0
241,47.753875737499996,47.9170333875,66.0,84.0
242,48.385453737499994,48.49992724999999,37.0,91.0
243,48.385453737499994,48.576242924999995,61.0,91.0
244,48.385453737499994,48.748611087499995,64.0,98.0
245,48.385453737499994,48.755190025,68.0,87.0
246,48.701242737499996,48.84861093749999,61.0,85.0
247,49.0170317375,49.276241875,64.0,97.0
248,49.0170317375,49.2841366,68.0,92.0
249,49.0170317375,49.28676817499999,61.0,93.0
250,49.33282073749999,49.563083549999995,56.0,58.0
251,49.4907152375,49.5893993,61.0,91.0
252,48.385453737499994,49.660451824999996,49.0,84.0
253,49.648609737499996,50.048609137499994,61.0,87.0
254,49.648609737499996,50.118345874999996,64.0,95.0
255,49.648609737499996,50.14334583749999,68.0,92.0
256,49.9643987375,50.6459766625,49.0,87.0
257,50.28018773749999,50.863081599999994,61.0,96.0
258,50.28018773749999,50.870976324999994,64.0,96.0
259,50.28018773749999,50.89071313749999,68.0,93.0
260,50.595976737499996,50.905186799999996,56.0,93.0
261,50.9117657375,53.17755181249999,47.0,93.0
262,50.9117657375,53.186762325,63.0,92.0
263,50.9117657375,53.18939389999999,66.0,86.0
264,50.9117657375,53.195972837499994,59.0,89.0
265,50.9117657375,53.222288587499996,71.0,91.0
266,53.438077737499995,53.751235162499995,61.0,92.0
267,53.438077737499995,53.767024612499995,64.0,93.0
268,53.438077737499995,53.778866699999995,57.0,91.0
269,54.06965573749999,54.272287012499994,57.0,92.0
270,54.06965573749999,54.452549899999994,61.0,98.0
271,54.06965573749999,54.46965513749999,64.0,98.0
272,54.385444737499995,54.607812824999996,57.0,92.0
273,53.7538667375,54.773602049999994,52.0,91.0
274,54.7012337375,55.059127937499994,69.0,91.0
275,54.7012337375,55.065706875,61.0,94.0
276,54.7012337375,55.08807526249999,64.0,96.0
277,55.01702273749999,55.2064961375,57.0,72.0
278,55.332811737499995,55.46439048749999,57.0,97.0
279,55.01702273749999,55.505179899999995,52.0,85.0
280,53.438077737499995,55.520969349999994,45.0,93.0
281,55.332811737499995,55.56570612499999,61.0,102.0
282,55.332811737499995,55.63675865,64.0,102.0
283,55.6486007375,55.8012320875,57.0,97.0
284,55.6486007375,55.8328109875,45.0,93.0
285,55.332811737499995,55.87096882499999,69.0,91.0
286,55.96438973749999,56.18017888749999,59.0,93.0
287,55.96438973749999,56.35649441249999,63.0,92.0
288,56.280178737499995,56.506494187499996,59.0,91.0
289,56.5959677375,56.93149354999999,63.0,95.0
290,56.5959677375,57.023598674999995,66.0,91.0
291,56.91175673749999,57.11570379999999,59.0,80.0
292,57.227545737499995,57.395966537499994,59.0,94.0
293,56.91175673749999,57.422282287499996,54.0,76.0
294,57.227545737499995,57.61175568749999,63.0,108.0
295,55.96438973749999,57.67096612499999,47.0,93.0
296,57.227545737499995,57.697281874999994,66.0,97.0
297,57.5433347375,57.778860699999996,59.0,88.0
298,57.85912373749999,57.982807762499995,59.0,92.0
299,57.85912373749999,58.0209656,47.0,94.0
300,57.85912373749999,58.28543888749999,66.0,97.0
301,57.85912373749999,58.29728097499999,63.0,107.0
302,58.174912737499994,58.58807001249999,59.0,95.0
303,58.80649073749999,59.027543037499996,52.0,94.0
304,59.122279737499994,59.4143845625,56.0,97.0
305,59.122279737499994,59.46043712499999,59.0,93.0
306,59.419647712499994,59.68280521249999,52.0,86.0
307,59.75385773749999,60.0564888625,56.0,86.0
308,59.75385773749999,60.107804574999996,59.0,89.0
309,59.75385773749999,60.13017296249999,64.0,92.0
310,60.385435737499996,60.495961887499995,52.0,95.0
311,60.385435737499996,60.50254082499999,59.0,93.0
312,60.385435737499996,60.507803974999995,56.0,94.0
313,60.069646737499994,60.526225,47.0,75.0
314,58.4907017375,60.535435512499994,40.0,100.0
315,60.385435737499996,60.57490913749999,64.0,93.0
316,60.70122473749999,60.8275403375,40.0,93.0
317,61.017013737499994,61.39464474999999,68.0,86.0
318,61.017013737499994,61.474907787499994,61.0,91.0
319,61.64859173749999,61.88674927499999,61.0,93.0
320,61.64859173749999,61.94595971249999,64.0,98.0
321,61.64859173749999,61.972275462499994,68.0,95.0
322,62.12227523749999,62.21174878749999,61.0,92.0
323,61.332802737499996,62.51043254999999,44.0,78.0
324,62.280169737499996,62.511748337499995,61.0,97.0
325,62.280169737499996,62.64201129999999,64.0,107.0
326,62.280169737499996,62.688063862499995,68.0,95.0
327,62.59595873749999,62.94332663749999,44.0,86.0
328,61.017013737499994,62.973589749999995,37.0,94.0
329,62.911747737499994,63.01043179999999,61.0,92.0
330,62.911747737499994,63.28937874999999,64.0,100.0
331,62.911747737499994,63.338062887499994,68.0,96.0
332,63.227536737499996,63.51569419999999,61.0,89.0
333,63.85911473749999,64.05253549999999,54.0,87.0
334,64.17490373749999,64.38148237499999,54.0,96.0
335,64.17490373749999,64.4104297,57.0,96.0
336,64.17490373749999,64.418324425,61.0,93.0
337,64.6485872375,64.739376575,54.0,92.0
338,64.8064817375,64.95253414999999,54.0,96.0
339,64.8064817375,65.15779699999999,57.0,100.0
340,64.8064817375,65.192007475,61.0,96.0
341,65.12227073749999,65.2946389,54.0,87.0
342,63.54332573749999,65.45779655,42.0,102.0
343,64.4906927375,65.48937545,49.0,78.0
344,65.4380597375,65.54200694999999,54.0,91.0
345,65.4380597375,65.707796175,57.0,93.0
346,65.4380597375,65.770953975,61.0,92.0
347,65.7538487375,65.82358547499999,54.0,92.0
348,66.06963773749999,66.3249005125,59.0,91.0
349,66.06963773749999,66.43147929999999,63.0,91.0
350,66.3854267375,66.5643738375,59.0,91.0
351,66.7012157375,66.84726814999999,59.0,91.0
352,66.7012157375,66.8485839375,66.0,91.0
353,66.06963773749999,66.9406890625,47.0,95.0
354,66.7012157375,67.023583675,63.0,95.0
355,67.17489923749999,67.281478025,59.0,94.0
356,67.3327937375,67.43279358749999,59.0,92.0
357,67.3327937375,67.72226683749999,63.0,97.0
358,67.3327937375,67.72621419999999,66.0,93.0
359,67.64858273749999,67.83016141249999,59.0,88.0
360,67.96437173749999,68.09989784999999,54.0,86.0
361,67.96437173749999,68.09989784999999,59.0,97.0
362,67.96437173749999,68.14200305,63.0,98.0
363,67.96437173749999,68.23805553749999,66.0,94.0
364,68.2801607375,68.45779205,59.0,92.0
365,68.59594973749999,68.7722652625,59.0,92.0
366,68.59594973749999,68.97358075,64.0,93.0
367,68.91173873749999,69.060422725,59.0,83.0
368,69.2275277375,69.48936945,59.0,93.0
369,69.2275277375,69.56568512499999,64.0,100.0
370,69.2275277375,69.6196324125,68.0,93.0
371,69.70121123749999,69.79594793749999,59.0,93.0
372,69.85910573749999,69.96568452499999,59.0,89.0
373,69.85910573749999,70.2301578125,64.0,95.0
374,69.85910573749999,70.25515777499999,68.0,95.0
375,70.1748947375,70.31042084999999,59.0,94.0
376,70.49068373749999,70.58147307499999,59.0,93.0
377,68.59594973749999,70.69594658749999,40.0,94.0
378,70.49068373749999,70.87357789999999,64.0,100.0
379,70.49068373749999,70.90252522499999,68.0,100.0
380,70.80647273749999,70.94857778749999,59.0,97.0
381,71.1222617375,71.3643666375,59.0,90.0
382,71.1222617375,71.49331381249999,63.0,91.0
383,71.1222617375,71.53936637499999,66.0,87.0
384,71.43805073749999,71.63673465,59.0,88.0
385,71.75383973749999,71.80910281249999,59.0,78.0
386,71.75383973749999,72.191996975,63.0,92.0
387,71.75383973749999,72.244628475,66.0,90.0
388,72.2275232375,72.3117336375,59.0,90.0
389,71.1222617375,72.33673359999999,47.0,93.0
390,72.38541773749999,72.76041717499999,59.0,93.0
391,72.38541773749999,72.81699603749999,63.0,94.0
392,72.38541773749999,72.82094339999999,66.0,89.0
393,73.0169957375,73.17752181249999,59.0,94.0
394,72.70120673749999,73.207784925,54.0,83.0
395,73.0169957375,73.6591000375,63.0,97.0
396,73.0169957375,73.67225791249999,66.0,93.0
397,73.33278473749999,73.67357369999999,59.0,102.0
398,73.64857373749999,73.96173116249999,61.0,92.0
399,73.64857373749999,73.97752061249999,64.0,93.0
400,73.64857373749999,73.98936269999999,57.0,91.0
401,74.28015173749999,74.4827830125,57.0,92.0
402,74.28015173749999,74.66304589999999,61.0,98.0
403,74.28015173749999,74.68015113749999,64.0,98.0
404,74.59594073749999,74.81830882499999,57.0,92.0
405,73.9643627375,74.98409804999999,52.0,91.0
406,74.9117297375,75.26962393749999,69.0,91.0
407,74.9117297375,75.276202875,61.0,94.0
408,74.9117297375,75.29857126249999,64.0,96.0
409,75.22751873749999,75.41699213749999,57.0,72.0
410,75.54330773749999,75.67488648749999,57.0,97.0
411,75.22751873749999,75.7156759,52.0,85.0
412,73.64857373749999,75.73146535,45.0,93.0
413,75.54330773749999,75.776202125,61.0,102.0
414,75.54330773749999,75.84725465,64.0,102.0
415,75.8590967375,76.01172808749999,57.0,97.0
416,75.8590967375,76.04330698749999,45.0,93.0
417,75.54330773749999,76.081464825,69.0,91.0
418,76.17488573749999,76.3906748875,59.0,93.0
419,76.17488573749999,76.56699041249999,63.0,92.0
420,76.49067473749999,76.71699018749999,59.0,91.0
421,76.8064637375,77.14198954999999,63.0,95.0
422,76.8064637375,77.234094675,66.0,91.0
423,77.12225273749999,77.3261998,59.0,80.0
424,77.43804173749999,77.6064625375,59.0,94.0
425,77.12225273749999,77.63277828749999,54.0,76.0
426,77.43804173749999,77.82225168749999,63.0,108.0
427,76.17488573749999,77.88146212499998,47.0,93.0
428,77.43804173749999,77.907777875,66.0,97.0
429,77.7538307375,77.98935669999999,59.0,88.0
430,78.06961973749999,78.1933037625,59.0,92.0
431,78.06961973749999,78.23146159999999,47.0,94.0
432,78.06961973749999,78.49593488749998,66.0,97.0
433,78.06961973749999,78.50777697499998,63.0,107.0
434,78.38540873749999,78.79856601249999,59.0,95.0
435,79.01698673749999,79.23803903749999,52.0,94.0
436,79.33277573749999,79.355144125,52.0,72.0
437,79.33277573749999,79.6248805625,56.0,97.0
438,79.33277573749999,79.67093312499999,59.0,93.0
439,79.62356477499999,79.89330121249999,52.0,86.0
440,79.96435373749999,80.2669848625,56.0,86.0
441,79.96435373749999,80.318300575,59.0,89.0
442,79.96435373749999,80.34066896249999,64.0,92.0
443,80.5959317375,80.7064578875,52.0,95.0
444,80.5959317375,80.71303682499999,59.0,93.0
445,80.5959317375,80.718299975,56.0,94.0
446,80.28014273749999,80.73672099999999,47.0,75.0
447,78.7011977375,80.7459315125,40.0,100.0
448,80.5959317375,80.78540513749999,64.0,93.0
449,80.91172073749999,81.03803633749999,40.0,93.0
450,81.22750973749999,81.60514074999999,68.0,86.0
451,81.22750973749999,81.6854037875,61.0,91.0
452,81.85908773749999,82.09724527499999,61.0,93.0
453,81.85908773749999,82.15645571249999,64.0,98.0
454,81.85908773749999,82.18277146249999,68.0,95.0
455,82.3327712375,82.42224478749999,61.0,92.0
456,81.5432987375,82.72092855,44.0,78.0
457,82.4906657375,82.72224433749999,61.0,97.0
458,82.4906657375,82.85250729999998,64.0,107.0
459,82.4906657375,82.8985598625,68.0,95.0
460,82.80645473749999,83.15382263749999,44.0,86.0
461,81.22750973749999,83.18408575,37.0,94.0
462,83.12224373749999,83.22092779999998,61.0,92.0
463,83.12224373749999,83.49987474999999,64.0,100.0
464,83.12224373749999,83.5485588875,68.0,96.0
465,83.4380327375,83.72619019999999,61.0,89.0
466,84.06961073749999,84.2630315,54.0,87.0
467,84.3853997375,84.591978375,54.0,96.0
468,84.3853997375,84.62092569999999,57.0,96.0
469,84.3853997375,84.62882042499999,61.0,93.0
470,84.85908323749999,84.94987257499999,54.0,92.0
471,85.01697773749999,85.16303015,54.0,96.0
472,85.01697773749999,85.368293,57.0,100.0
473,85.01697773749999,85.40250347499999,61.0,96.0
474,85.3327667375,85.50513489999999,54.0,87.0
475,83.75382173749999,85.66829254999999,42.0,102.0
476,84.70118873749999,85.69987144999999,49.0,78.0
477,85.64855573749999,85.75250295,54.0,91.0
478,85.64855573749999,85.91829217499999,57.0,93.0
479,85.64855573749999,85.98144997499999,61.0,92.0
480,85.96434473749999,86.034081475,54.0,92.0
481,86.2801337375,86.53539651249999,52.0,91.0
482,86.2801337375,86.64197529999998,64.0,91.0
483,86.59592273749999,86.77486983749999,52.0,91.0
484,86.91171173749999,87.05776415,52.0,91.0
485,86.91171173749999,87.05907993749999,68.0,91.0
486,86.2801337375,87.15118506249999,40.0,95.0
487,86.91171173749999,87.23407967499999,64.0,95.0
488,87.26171121249999,87.36828999999999,52.0,94.0
489,87.54328973749999,87.64328958749999,52.0,92.0
490,87.54328973749999,87.9327628375,64.0,97.0
491,87.54328973749999,87.9327628375,71.0,93.0
492,87.54328973749999,87.9367102,68.0,93.0
493,87.85907873749998,88.0406574125,52.0,88.0
494,88.1748677375,88.31039385,52.0,97.0
495,88.1748677375,88.31039385,56.0,86.0
496,88.1748677375,88.35249904999999,64.0,98.0
497,88.1748677375,88.4485515375,68.0,94.0
498,88.49065673749999,88.66828804999999,59.0,92.0
499,88.80644573749998,90.38144337499999,59.0,92.0
500,88.81828782499998,90.54460102499999,54.0,97.0
501,88.80644573749998,90.9064425875,42.0,94.0
502,88.80644573749998,90.95117936249999,66.0,93.0
503,88.81828782499998,91.00249507499998,63.0,97.0
504,91.0169687375,91.15907378749999,59.0,97.0
505,91.33275773749999,91.63012571249999,45.0,92.0
506,91.17486323749999,92.83801863749999,61.0,85.0
507,91.17486323749999,92.9117027375,57.0,86.0
508,91.33275773749999,92.9432816375,69.0,92.0
509,91.33275773749999,92.95907108749999,64.0,94.0
510,93.8590697375,94.26696386249999,64.0,92.0
511,93.8590697375,94.28143752499999,68.0,88.0
512,94.17485873749999,94.53933187499999,59.0,92.0
513,94.49064773749998,94.886699775,68.0,97.0
514,94.49064773749998,94.8906471375,64.0,94.0
515,94.8064367375,94.95906808749999,59.0,86.0
516,95.12222573749999,95.3064359875,59.0,91.0
517,95.12222573749999,95.58406715,64.0,97.0
518,95.12222573749999,95.60117238749999,68.0,94.0
519,95.43801473749998,95.62222498749999,59.0,90.0
520,93.8590697375,95.85906673749999,40.0,93.0
521,95.7538037375,95.86432988749999,59.0,95.0
522,95.7538037375,96.05248749999998,64.0,97.0
523,95.7538037375,96.08011903749998,68.0,94.0
524,96.06959273749999,96.18143467499999,59.0,93.0
525,96.38538173749998,96.71432861249998,57.0,81.0
526,96.38538173749998,96.81432846249999,61.0,82.0
527,96.38538173749998,96.86301259999999,64.0,82.0
528,97.01695973749999,97.22222258749999,64.0,93.0
529,97.01695973749999,97.2880119625,61.0,92.0
530,97.33274873749998,97.5261695,57.0,87.0
531,96.7011707375,97.82090589999999,52.0,87.0
532,97.64853773749999,98.0419582,57.0,88.0
533,97.64853773749999,98.09064233749999,64.0,95.0
534,97.64853773749999,98.09195812499999,61.0,93.0
535,97.96432673749999,98.4222207875,52.0,89.0
536,98.28011573749998,98.43143129999999,57.0,92.0
537,98.28011573749998,98.434062875,61.0,102.0
538,98.28011573749998,98.49064173749998,64.0,100.0
539,96.38538173749998,98.49853646249998,45.0,94.0
540,98.59590473749999,98.71695718749999,45.0,93.0
541,98.91169373749999,99.09064083749999,59.0,87.0
542,98.91169373749999,99.3301141625,64.0,91.0
543,98.91169373749999,99.33274573749999,68.0,86.0
544,99.22748273749998,99.46827185,59.0,84.0
545,99.54327173749999,99.89853436249999,68.0,92.0
546,99.54327173749999,99.91300802499998,64.0,91.0
547,99.85906073749999,100.023534175,59.0,91.0
548,100.17484973749998,100.49590188749998,68.0,93.0
549,100.17484973749998,100.57616492499999,64.0,92.0
550,100.49063873749999,100.66827004999999,59.0,92.0
551,98.91169373749999,101.03669054999999,40.0,92.0
552,100.80642773749999,101.15379563749998,64.0,100.0
553,100.80642773749999,101.16432193749999,68.0,95.0
554,101.12221673749998,101.28274281249999,59.0,93.0
555,101.43800573749999,101.64326858749999,59.0,91.0
556,101.43800573749999,101.823531475,63.0,88.0
557,101.75379473749999,101.95247864999999,59.0,90.0
558,102.06958373749998,102.2314256,59.0,94.0
559,102.06958373749998,102.40642533749998,66.0,91.0
560,102.06958373749998,102.42879372499999,63.0,96.0
561,102.38537273749999,102.56695141249999,59.0,88.0
562,102.70116173749999,103.0801085375,63.0,90.0
563,102.70116173749999,103.11300322499999,66.0,82.0
564,103.01695073749998,103.26431878749999,59.0,91.0
565,101.43800573749999,103.40247647499999,47.0,95.0
566,103.33273973749999,103.570897275,63.0,94.0
567,103.33273973749999,103.63142349999998,66.0,93.0
568,103.64852873749999,103.7853706375,47.0,95.0
569,103.96431773749998,104.12747538749998,61.0,84.0
570,103.96431773749998,104.31958036249999,64.0,96.0
571,103.96431773749998,104.34326453749999,68.0,84.0
572,104.28010673749999,104.4985274625,61.0,87.0
573,104.59589573749999,104.77484283749999,61.0,93.0
574,104.59589573749999,104.89457949999999,64.0,100.0
575,104.59589573749999,104.90642158749999,68.0,91.0
576,105.22747373749999,105.36826299999998,61.0,92.0
577,104.91168473749998,105.47221021249999,56.0,72.0
578,105.22747373749999,105.59852581249999,64.0,98.0
579,105.22747373749999,105.61168368749999,68.0,92.0
580,103.96431773749998,105.73273613749998,49.0,93.0
581,105.54326273749999,105.74194664999999,61.0,91.0
582,105.85905173749998,106.09984084999999,61.0,96.0
583,105.85905173749998,106.10641978749999,64.0,107.0
584,105.85905173749998,106.12352502499999,68.0,100.0
585,106.17484073749999,106.30115633749999,49.0,100.0
586,106.49062973749999,106.6511558125,59.0,92.0
587,106.49062973749999,106.83799763749998,63.0,91.0
588,106.49062973749999,106.86694496249999,66.0,89.0
589,106.80641873749998,107.00641843749999,59.0,91.0
590,107.12220773749999,107.28273381249998,59.0,86.0
591,107.12220773749999,107.35115476249999,66.0,91.0
592,107.12220773749999,107.47483878749999,63.0,92.0
593,107.75378573749998,107.79457514999999,59.0,74.0
594,107.43799673749999,107.95641701249998,54.0,87.0
595,107.75378573749998,108.12483781249999,63.0,89.0
596,107.75378573749998,108.16825879999999,66.0,86.0
597,107.75378573749998,108.23931132499999,71.0,92.0
598,108.06957473749999,108.28931124999998,59.0,94.0
599,108.38536373749999,108.52088984999999,59.0,92.0
600,106.49062973749999,108.52352142499998,47.0,95.0
601,108.38536373749999,108.5379950875,63.0,98.0
602,108.38536373749999,108.54062666249999,66.0,94.0
603,108.38536373749999,108.549837175,71.0,91.0
604,108.70115273749998,108.807731525,47.0,97.0
605,109.01694173749999,109.57483563749999,68.0,80.0
606,109.01694173749999,109.59325666249998,61.0,88.0
607,109.01694173749999,110.97746511249998,37.0,107.0
608,111.54325373749998,112.00509514999999,64.0,91.0
609,111.54325373749998,112.03009511249999,57.0,85.0
610,111.85904273749999,112.29983155,52.0,83.0
611,112.17483173749999,112.49851546249998,57.0,91.0
612,112.17483173749999,112.51298912499999,64.0,93.0
613,112.17483173749999,112.5143049125,61.0,86.0
614,112.33272623749998,112.60509425,52.0,78.0
615,112.64851523749999,112.76035717499998,57.0,93.0
616,112.80640973749999,113.1406197625,57.0,91.0
617,112.80640973749999,113.21035649999999,64.0,93.0
618,112.80640973749999,113.21561965,61.0,92.0
619,113.12219873749999,113.528777075,52.0,83.0
620,113.43798773749998,114.02877632499998,57.0,92.0
621,111.54325373749998,114.04982892499999,45.0,91.0
622,113.43798773749998,114.05640786249998,61.0,92.0
623,113.75377673749999,114.06035522499998,52.0,92.0
624,113.43798773749998,114.06167101249999,64.0,93.0
625,114.06956573749999,114.4800914375,64.0,90.0
626,114.06956573749999,114.48140722499998,68.0,84.0
627,114.38535473749998,114.84324878749999,59.0,80.0
628,114.70114373749999,114.95640651249998,68.0,93.0
629,114.70114373749999,114.97351174999999,71.0,93.0
630,114.70114373749999,114.98535383749999,64.0,95.0
631,115.01693273749999,115.26561657499998,59.0,70.0
632,115.17482723749998,115.35377433749998,64.0,92.0
633,115.17482723749998,115.37877429999999,68.0,92.0
634,115.64851073749999,115.83008941249999,64.0,86.0
635,115.33272173749998,116.08798376249999,59.0,82.0
636,114.06956573749999,116.10772057499999,40.0,93.0
637,115.96429973749999,116.12614159999998,64.0,102.0
638,114.06956573749999,116.18140467499998,52.0,92.0
639,115.96429973749999,116.19456254999999,68.0,92.0
640,116.28008873749998,116.42745693749998,64.0,92.0
641,116.59587773749999,116.80245637499999,69.0,89.0
642,116.59587773749999,116.82877212499999,64.0,90.0
643,116.91166673749998,117.302455625,52.0,70.0
644,117.22745573749998,117.40113968749999,64.0,93.0
645,117.22745573749998,117.41956071249999,61.0,91.0
646,117.22745573749998,117.42745543749999,57.0,91.0
647,117.54324473749999,117.74719179999998,52.0,70.0
648,117.70113923749999,117.85508637499998,61.0,87.0
649,117.70113923749999,117.86824424999999,57.0,87.0
650,117.70113923749999,117.90377051249999,64.0,91.0
651,118.17482273749998,118.41034869999999,57.0,84.0
652,118.49061173749999,118.54982217499999,57.0,81.0
653,117.85903373749998,118.60771682499998,52.0,88.0
654,116.59587773749999,118.75771659999998,45.0,92.0
655,118.49061173749999,119.06297929999998,61.0,92.0
656,118.80640073749998,119.08403189999999,57.0,91.0
657,118.49061173749999,119.09982134999998,64.0,94.0
658,118.49061173749999,119.26561057499998,69.0,91.0
659,119.43797873749999,119.87876754999999,59.0,79.0
660,119.75376773749998,119.94982007499999,64.0,92.0
661,119.75376773749998,119.95639901249999,68.0,92.0
662,119.75376773749998,119.98929369999999,71.0,91.0
663,120.0695567375,120.28797746249998,59.0,80.0
664,120.22745123749999,120.37613522499998,64.0,97.0
665,120.70113473749998,120.88008183749999,64.0,95.0
666,120.38534573749999,121.12481831249998,59.0,84.0
667,121.0169237375,121.15244984999998,64.0,95.0
668,119.1221897375,121.20639713749999,52.0,94.0
669,121.0169237375,121.32744958749998,68.0,95.0
670,121.0169237375,121.34060746249999,71.0,93.0
671,121.33271273749999,121.41165998749999,64.0,92.0
672,121.64850173749998,122.20244827499998,59.0,91.0
673,122.28007973749999,122.52086884999999,59.0,95.0
674,122.28007973749999,122.52350042499998,63.0,92.0
675,122.28007973749999,122.54850038749998,66.0,91.0
676,122.75376323749998,122.89323671249998,63.0,85.0
677,122.75376323749998,122.89323671249998,66.0,79.0
678,121.64850173749998,122.9116577375,47.0,84.0
679,122.75376323749998,122.92218403749999,59.0,87.0
680,122.9116577375,123.39718332499999,54.0,75.0
681,123.22744673749999,123.60244617499998,59.0,93.0
682,123.22744673749999,123.65244609999999,63.0,89.0
683,123.22744673749999,123.67349869999998,66.0,85.0
684,123.22744673749999,123.67744606249998,71.0,88.0
685,123.54323573749998,123.79455114999999,51.0,71.0
686,123.8590247375,123.93665619999999,59.0,92.0
687,124.17481373749999,124.54060266249999,68.0,86.0
688,124.17481373749999,124.56297104999999,64.0,86.0
689,124.17481373749999,124.61165518749999,61.0,86.0
690,124.49060273749998,124.96428623749999,56.0,75.0
691,124.8063917375,124.96823359999999,64.0,100.0
692,124.8063917375,124.99323356249998,61.0,94.0
693,124.8063917375,125.00375986249999,68.0,94.0
694,125.12218073749999,125.29191732499999,56.0,45.0
695,124.17481373749999,125.34191724999998,49.0,97.0
696,125.28007523749999,125.38007508749999,61.0,93.0
697,125.43796973749998,125.61560104999998,61.0,94.0
698,125.43796973749998,125.62349577499998,68.0,93.0
699,125.43796973749998,125.63007471249999,64.0,100.0
700,125.91165323749999,126.11033714999999,56.0,91.0
701,124.17481373749999,126.15375813749999,37.0,78.0
702,125.7537587375,126.16560022499999,61.0,86.0
703,126.38533673749998,126.47481028749999,61.0,95.0
704,126.70112573749999,126.91823067499999,59.0,89.0
705,126.70112573749999,127.07217781249999,63.0,83.0
706,126.70112573749999,127.08665147499998,66.0,83.0
707,127.01691473749999,127.17744081249998,59.0,85.0
708,126.70112573749999,127.51428241249998,47.0,93.0
709,127.33270373749998,127.56822969999999,59.0,94.0
710,127.33270373749998,127.57086127499998,63.0,93.0
711,127.33270373749998,127.58665072499998,66.0,93.0
712,127.80638723749999,127.90507129999999,59.0,91.0
713,127.96428173749999,128.28533388749997,59.0,91.0
714,127.96428173749999,128.28664967499998,71.0,92.0
715,127.96428173749999,128.29586018749998,63.0,87.0
716,127.96428173749999,128.2984917625,66.0,81.0
717,128.59585973749998,128.7274384875,59.0,102.0
718,128.28007073749998,128.74585951249998,54.0,82.0
719,128.59585973749998,128.74849108749999,63.0,89.0
720,128.59585973749998,128.7590173875,66.0,84.0
721,129.2274377375,129.34191124999998,37.0,91.0
722,129.2274377375,129.418226925,61.0,91.0
723,129.2274377375,129.5905950875,64.0,98.0
724,129.2274377375,129.597174025,68.0,87.0
725,129.5432267375,129.69059493749998,61.0,85.0
726,129.8590157375,130.11822587499998,64.0,97.0
727,129.8590157375,130.12612059999998,68.0,92.0
728,129.8590157375,130.128752175,61.0,93.0
729,130.17480473749998,130.40506754999998,56.0,58.0
730,130.33269923749998,130.4313833,61.0,91.0
731,129.2274377375,130.502435825,49.0,84.0
732,130.49059373749998,130.8905931375,61.0,87.0
733,130.49059373749998,130.96032987499999,64.0,95.0
734,130.49059373749998,130.9853298375,68.0,92.0
735,130.80638273749997,131.48796066249997,49.0,87.0
736,131.1221717375,131.70506559999998,61.0,96.0
737,131.1221717375,131.71296032499998,64.0,96.0
738,131.1221717375,131.7326971375,68.0,93.0
739,131.4379607375,131.7471708,56.0,93.0
740,131.7537497375,134.01953581249998,47.0,93.0
741,131.7537497375,134.028746325,63.0,92.0
742,131.7537497375,134.0313779,66.0,86.0
743,131.7537497375,134.0379568375,59.0,89.0
744,131.7537497375,134.06427258749997,71.0,91.0
745,134.28006173749998,134.5932191625,61.0,92.0
746,134.28006173749998,134.6090086125,64.0,93.0
747,134.28006173749998,134.62085069999998,57.0,91.0
748,134.9116397375,135.11427101249998,57.0,92.0
749,134.9116397375,135.29453389999998,61.0,98.0
750,134.9116397375,135.31163913749998,64.0,98.0
751,135.2274287375,135.449796825,57.0,92.0
752,134.59585073749997,135.61558605,52.0,91.0
753,135.5432177375,135.9011119375,69.0,91.0
754,135.5432177375,135.907690875,61.0,94.0
755,135.5432177375,135.93005926249998,64.0,96.0
756,135.85900673749998,136.04848013749998,57.0,72.0
757,136.17479573749998,136.3063744875,57.0,97.0
758,135.85900673749998,136.3471639,52.0,85.0
759,134.28006173749998,136.36295335,45.0,93.0
760,136.17479573749998,136.407690125,61.0,102.0
761,136.17479573749998,136.47874265,64.0,102.0
762,136.49058473749997,136.64321608749998,57.0,97.0
763,136.49058473749997,136.67479498749998,45.0,93.0
764,136.17479573749998,136.71295282499997,69.0,91.0
765,136.8063737375,137.02216288749997,59.0,93.0
766,136.8063737375,137.19847841249998,63.0,92.0
767,137.1221627375,137.34847818749998,59.0,91.0
768,137.4379517375,137.77347755,63.0,95.0
769,137.4379517375,137.86558267499998,66.0,91.0
770,137.75374073749998,137.95768779999997,59.0,80.0
771,138.06952973749998,138.23795053749998,59.0,94.0
772,137.75374073749998,138.2642662875,54.0,76.0
773,138.06952973749998,138.4537396875,63.0,108.0
774,136.8063737375,138.51295012499997,47.0,93.0
775,138.06952973749998,138.53926587499998,66.0,97.0
776,138.38531873749997,138.6208447,59.0,88.0
777,138.7011077375,138.82479176249998,59.0,92.0
778,138.7011077375,138.86294959999998,47.0,94.0
779,138.7011077375,139.1274228875,66.0,97.0
780,138.7011077375,139.13926497499997,63.0,107.0
781,139.0168967375,139.4300540125,59.0,95.0
782,139.64847473749998,139.86952703749998,52.0,94.0
783,139.96426373749998,139.98663212499997,52.0,72.0
784,139.96426373749998,140.25636856249997,56.0,97.0
785,139.96426373749998,140.302421125,59.0,93.0
786,140.28268431249998,140.5247892125,52.0,86.0
787,140.5958417375,140.89847286249997,56.0,86.0
788,140.5958417375,140.94978857499999,59.0,89.0
789,140.5958417375,140.97215696249998,64.0,92.0
790,141.22741973749999,141.33794588749998,52.0,95.0
791,141.22741973749999,141.34452482499998,59.0,93.0
792,141.22741973749999,141.349787975,56.0,94.0
793,140.9116307375,141.36820899999998,47.0,75.0
794,139.3326857375,141.37741951249998,40.0,100.0
795,141.22741973749999,141.41689313749998,64.0,93.0
796,141.54320873749998,141.66952433749998,40.0,93.0
797,141.85899773749998,142.23662875,68.0,86.0
798,141.85899773749998,142.3168917875,61.0,91.0
799,142.4905757375,142.728733275,61.0,93.0
800,142.4905757375,142.78794371249998,64.0,98.0
801,142.4905757375,142.8142594625,68.0,95.0
802,142.9642592375,143.0537327875,61.0,92.0
803,142.17478673749997,143.35241655,44.0,78.0
804,143.12215373749999,143.3537323375,61.0,97.0
805,143.12215373749999,143.48399529999998,64.0,107.0
806,143.12215373749999,143.5300478625,68.0,95.0
807,143.43794273749998,143.78531063749998,44.0,86.0
808,141.85899773749998,143.81557374999997,37.0,94.0
809,143.75373173749998,143.8524158,61.0,92.0
810,143.75373173749998,144.13136275,64.0,100.0
811,143.75373173749998,144.1800468875,68.0,96.0
812,144.06952073749997,144.35767819999998,61.0,89.0
813,144.7010987375,144.89451949999997,54.0,87.0
814,145.01688773749999,145.223466375,54.0,96.0
815,145.01688773749999,145.25241369999998,57.0,96.0
816,145.01688773749999,145.26030842499998,61.0,93.0
817,145.49057123749998,145.581360575,54.0,92.0
818,145.64846573749998,145.79451815,54.0,96.0
819,145.64846573749998,145.99978099999998,57.0,100.0
820,145.64846573749998,146.033991475,61.0,96.0
821,145.96425473749997,146.1366229,54.0,87.0
822,144.3853097375,146.29978054999998,42.0,102.0
823,145.33267673749998,146.33135944999998,49.0,78.0
824,146.2800437375,146.38399095,54.0,91.0
825,146.2800437375,146.549780175,57.0,93.0
826,146.2800437375,146.612937975,61.0,92.0
827,146.5958327375,146.66556947499998,54.0,92.0
828,146.91162173749998,147.1668845125,59.0,91.0
829,146.91162173749998,147.27346329999997,63.0,91.0
830,147.22741073749998,147.4063578375,59.0,91.0
831,147.54319973749998,147.68925215,59.0,91.0
832,147.54319973749998,147.6905679375,66.0,91.0
833,146.91162173749998,147.78267306249998,47.0,95.0
834,147.54319973749998,147.865567675,63.0,95.0
835,148.0168832375,148.12346202499998,59.0,94.0
836,148.1747777375,148.27477758749998,59.0,92.0
837,148.1747777375,148.5642508375,63.0,97.0
838,148.1747777375,148.5642508375,71.0,93.0
839,148.1747777375,148.56819819999998,66.0,93.0
840,148.4905667375,148.6721454125,59.0,88.0
841,148.80635573749998,148.94188185,54.0,86.0
842,148.80635573749998,148.94188185,59.0,97.0
843,148.80635573749998,148.98398705,63.0,98.0
844,148.80635573749998,149.08003953749997,66.0,94.0
845,149.12214473749998,149.29977605,59.0,92.0
846,149.43793373749997,149.61424926249998,59.0,92.0
847,149.43793373749997,149.81556475,64.0,93.0
848,149.75372273749997,149.902406725,59.0,83.0
849,150.0695117375,150.33135345,59.0,93.0
850,150.0695117375,150.40766912499998,64.0,100.0
851,150.0695117375,150.46161641249998,68.0,93.0
852,150.5431952375,150.63793193749999,59.0,93.0
853,150.70108973749998,150.807668525,59.0,89.0
854,150.70108973749998,151.07214181249998,64.0,95.0
855,150.70108973749998,151.09714177499998,68.0,95.0
856,151.01687873749998,151.15240484999998,59.0,94.0
857,151.33266773749997,151.423457075,59.0,93.0
858,149.43793373749997,151.53793058749997,40.0,94.0
859,151.33266773749997,151.71556189999998,64.0,100.0
860,151.33266773749997,151.74450922499997,68.0,100.0
861,151.64845673749997,151.7905617875,59.0,97.0
862,151.9642457375,152.20635063749998,59.0,90.0
863,151.9642457375,152.3352978125,63.0,91.0
864,151.9642457375,152.38135037499998,66.0,87.0
865,152.2800347375,152.47871865,59.0,88.0
866,152.59582373749998,152.65108681249998,59.0,78.0
867,152.59582373749998,153.0168757375,71.0,92.0
868,152.59582373749998,153.033980975,63.0,92.0
869,152.59582373749998,153.08661247499998,66.0,90.0
870,153.06950723749998,153.1537176375,59.0,90.0
871,151.9642457375,153.17871759999997,47.0,93.0
872,153.22740173749997,153.60240117499998,59.0,93.0
873,153.22740173749997,153.6589800375,63.0,94.0
874,153.22740173749997,153.66292739999997,66.0,89.0
875,153.8589797375,154.01950581249997,59.0,94.0
876,153.54319073749997,154.049768925,54.0,83.0
877,153.8589797375,154.5010840375,63.0,97.0
878,153.8589797375,154.51424191249998,66.0,93.0
879,154.1747687375,154.5155577,59.0,102.0
880,153.8589797375,154.5484523875,71.0,91.0
881,154.49055773749998,154.80371516249997,61.0,92.0
882,154.49055773749998,154.81950461249997,64.0,93.0
883,154.49055773749998,154.83134669999998,57.0,91.0
884,155.12213573749997,155.3247670125,57.0,92.0
885,155.12213573749997,155.50502989999998,61.0,98.0
886,155.12213573749997,155.5221351375,64.0,98.0
887,155.43792473749997,155.66029282499997,57.0,92.0
888,154.80634673749998,155.82608205,52.0,91.0
889,155.7537137375,156.1116079375,69.0,91.0
890,155.7537137375,156.118186875,61.0,94.0
891,155.7537137375,156.1405552625,64.0,96.0
892,156.0695027375,156.25897613749999,57.0,72.0
893,156.38529173749998,156.51687048749997,57.0,97.0
894,156.0695027375,156.55765989999998,52.0,85.0
895,154.49055773749998,156.57344934999998,45.0,93.0
896,156.38529173749998,156.618186125,61.0,102.0
897,156.38529173749998,156.68923865,64.0,102.0
898,156.70108073749998,156.85371208749999,57.0,97.0
899,156.70108073749998,156.88529098749999,45.0,93.0
900,156.38529173749998,156.92344882499998,69.0,91.0
901,157.01686973749997,157.23265888749998,59.0,93.0
902,157.01686973749997,157.4089744125,63.0,92.0
903,157.33265873749997,157.55897418749998,59.0,91.0
904,157.6484477375,157.98397354999997,63.0,95.0
905,157.6484477375,158.076078675,66.0,91.0
906,157.9642367375,158.16818379999998,59.0,80.0
907,158.28002573749998,158.4484465375,59.0,94.0
908,157.9642367375,158.47476228749997,54.0,76.0
909,158.28002573749998,158.6642356875,63.0,108.0
910,157.01686973749997,158.72344612499998,47.0,93.0
911,158.28002573749998,158.73791978749998,71.0,94.0
912,158.28002573749998,158.749761875,66.0,97.0
913,158.59581473749998,158.83134069999997,59.0,88.0
914,158.91160373749997,159.0352877625,59.0,92.0
915,158.91160373749997,159.07344559999999,47.0,94.0
916,158.91160373749997,159.3379188875,66.0,97.0
917,158.91160373749997,159.34976097499998,63.0,107.0
918,158.91160373749997,159.38133987499998,71.0,94.0
919,159.22739273749997,159.64055001249997,59.0,95.0
920,159.8589707375,160.08002303749998,52.0,94.0
921,160.17475973749998,160.19712812499998,52.0,72.0
922,160.17475973749998,160.46686456249998,56.0,97.0
923,160.17475973749998,160.51291712499997,59.0,93.0
924,160.4773908625,160.73528521249997,52.0,86.0
925,160.80633773749997,161.10896886249998,56.0,86.0
926,160.80633773749997,161.160284575,59.0,89.0
927,160.80633773749997,161.1826529625,64.0,92.0
928,161.4379157375,161.5484418875,52.0,95.0
929,161.4379157375,161.55502082499999,59.0,93.0
930,161.4379157375,161.56028397499998,56.0,94.0
931,161.12212673749997,161.57870499999999,47.0,75.0
932,159.5431817375,161.5879155125,40.0,100.0
933,161.4379157375,161.6273891375,64.0,93.0
934,161.7537047375,161.88002033749999,40.0,93.0
935,162.06949373749998,162.44712474999997,68.0,86.0
936,162.06949373749998,162.52738778749998,61.0,91.0
937,162.70107173749997,162.93922927499997,61.0,93.0
938,162.70107173749997,162.9984397125,64.0,98.0
939,162.70107173749997,163.0247554625,68.0,95.0
940,163.1747552375,163.26422878749997,61.0,92.0
941,162.38528273749998,163.56291255,44.0,78.0
942,163.3326497375,163.56422833749997,61.0,97.0
943,163.3326497375,163.69449129999998,64.0,107.0
944,163.3326497375,163.74054386249998,68.0,95.0
945,163.6484387375,163.99580663749998,44.0,86.0
946,162.06949373749998,164.02606974999998,37.0,94.0
947,163.96422773749998,164.0629118,61.0,92.0
948,163.96422773749998,164.34185874999997,64.0,100.0
949,163.96422773749998,164.39054288749998,68.0,96.0
950,164.28001673749998,164.5681742,61.0,89.0
951,164.9115947375,165.10501549999998,54.0,87.0
952,165.2273837375,165.433962375,54.0,96.0
953,165.2273837375,165.46290969999998,57.0,96.0
954,165.2273837375,165.47080442499998,61.0,93.0
955,165.70106723749998,165.79185657499997,54.0,92.0
956,165.85896173749998,166.00501415,54.0,96.0
957,165.85896173749998,166.210277,57.0,100.0
958,165.85896173749998,166.24448747499997,61.0,96.0
959,166.17475073749998,166.34711889999997,54.0,87.0
960,164.59580573749997,166.51027655,42.0,102.0
961,165.5431727375,166.54185544999999,49.0,78.0
962,166.49053973749997,166.59448694999998,54.0,91.0
963,166.49053973749997,166.76027617499997,57.0,93.0
964,166.49053973749997,166.82343397499997,61.0,92.0
965,166.8063287375,166.876065475,54.0,92.0
966,167.1221177375,167.29317011249998,59.0,87.0
967,167.1221177375,167.51290662499997,64.0,91.0
968,167.1221177375,167.5352750125,68.0,84.0
969,167.4405383125,167.6063275375,59.0,90.0
970,167.1221177375,167.64185379999998,40.0,94.0
971,167.74448522499998,167.90895866249997,59.0,97.0
972,167.74316943749997,168.04580056249998,64.0,102.0
973,167.74448522499998,168.0747478875,68.0,96.0
974,168.22737923749997,168.32211593749997,59.0,93.0
975,168.38527373749997,168.5721155625,59.0,93.0
976,168.38527373749997,168.60764182499997,64.0,98.0
977,168.38527373749997,168.66158911249997,68.0,94.0
978,168.7010627375,169.0734306,59.0,100.0
979,168.38527373749997,169.10632528749997,52.0,96.0
980,169.0168517375,169.14843048749998,64.0,98.0
981,169.0168517375,169.37211436249999,68.0,93.0
982,169.3326407375,169.63790343749997,64.0,92.0
983,169.64842973749998,170.24711304999997,59.0,92.0
984,169.64842973749998,170.66816504999997,63.0,92.0
985,169.64842973749998,170.67869134999998,66.0,91.0
986,170.5957967375,170.98790141249998,59.0,94.0
987,170.9115857375,171.3155325,63.0,87.0
988,170.9115857375,171.34579561249998,66.0,87.0
989,171.22737473749999,171.50763747499997,59.0,73.0
990,171.54316373749998,171.9589525875,63.0,79.0
991,171.54316373749998,171.99316306249997,66.0,82.0
992,171.85895273749998,172.26158371249997,59.0,74.0
993,172.17474173749997,172.52079385,63.0,80.0
994,172.17474173749997,172.5536885375,66.0,81.0
995,172.17474173749997,172.5681622,71.0,91.0
996,172.8063197375,173.1642139375,63.0,81.0
997,172.8063197375,173.1800033875,66.0,75.0
998,173.12210873749999,173.50895026249998,59.0,75.0
999,173.43789773749998,173.88263391249998,71.0,88.0
1000,173.43789773749998,173.9155286,63.0,85.0
1001,173.43789773749998,173.92079174999998,66.0,81.0
1002,174.06947573749997,174.281317525,59.0,92.0
1003,174.06947573749997,174.66421168749997,63.0,93.0
1004,174.3852647375,174.66684326249998,59.0,92.0
1005,174.06947573749997,174.67473798749998,71.0,92.0
1006,174.06947573749997,174.68000113749997,66.0,87.0
1007,170.28000773749997,174.72342212499998,54.0,85.0
1008,169.64842973749998,174.76815889999997,47.0,95.0
1009,174.7010537375,175.11157943749998,64.0,90.0
1010,174.7010537375,175.112895225,68.0,84.0
1011,175.01684273749999,175.47473678749998,59.0,80.0
1012,175.33263173749998,175.5878945125,68.0,93.0
1013,175.33263173749998,175.60499975,71.0,93.0
1014,175.33263173749998,175.61684183749998,64.0,95.0
1015,175.64842073749998,175.897104575,59.0,70.0
1016,175.80631523749997,175.9852623375,64.0,92.0
1017,175.80631523749997,176.0102623,68.0,92.0
1018,176.2799987375,176.4615774125,64.0,86.0
1019,175.96420973749997,176.71947176249998,59.0,82.0
1020,174.7010537375,176.739208575,40.0,93.0
1021,176.5957877375,176.75762959999997,64.0,102.0
1022,174.7010537375,176.81289267499997,52.0,92.0
1023,176.5957877375,176.82605055,68.0,92.0
1024,176.91157673749998,177.05894493749997,64.0,92.0
1025,177.22736573749998,177.43394437499998,69.0,89.0
1026,177.22736573749998,177.460260125,64.0,90.0
1027,177.54315473749998,177.93394362499998,52.0,70.0
1028,177.85894373749997,178.03262768749997,64.0,93.0
1029,177.85894373749997,178.05104871249998,61.0,91.0
1030,177.85894373749997,178.05894343749998,57.0,91.0
1031,178.1747327375,178.3786798,52.0,70.0
1032,178.3326272375,178.48657437499998,61.0,87.0
1033,178.3326272375,178.49973225,57.0,87.0
1034,178.3326272375,178.53525851249998,64.0,91.0
1035,178.80631073749998,179.04183669999998,57.0,84.0
1036,179.12209973749998,179.181310175,57.0,81.0
1037,178.4905217375,179.23920482499997,52.0,88.0
1038,177.22736573749998,179.38920459999997,45.0,92.0
1039,179.12209973749998,179.69446729999999,61.0,92.0
1040,179.43788873749997,179.71551989999998,57.0,91.0
1041,179.12209973749998,179.73130934999998,64.0,94.0
1042,179.12209973749998,179.89709857499997,69.0,91.0
1043,180.0694667375,180.51025554999998,59.0,79.0
1044,180.3852557375,180.58130807499998,64.0,92.0
1045,180.3852557375,180.58788701249998,68.0,92.0
1046,180.3852557375,180.62078169999998,71.0,91.0
1047,180.70104473749998,180.91946546249997,59.0,80.0
1048,180.85893923749998,181.00762322499997,64.0,97.0
1049,181.33262273749997,181.5115698375,64.0,95.0
1050,181.01683373749998,181.7563063125,59.0,84.0
1051,181.64841173749997,181.78393784999997,64.0,95.0
1052,179.75367773749997,181.83788513749997,52.0,94.0
1053,181.64841173749997,181.95893758749997,68.0,95.0
1054,181.64841173749997,181.9720954625,71.0,93.0
1055,181.9642007375,182.0431479875,64.0,92.0
1056,182.2799897375,182.83393627499999,59.0,91.0
1057,182.91156773749998,183.15235685,59.0,95.0
1058,182.91156773749998,183.15498842499997,63.0,92.0
1059,182.91156773749998,183.17998838749998,66.0,91.0
1060,183.38525123749997,183.5247247125,63.0,85.0
1061,183.38525123749997,183.5247247125,66.0,79.0
1062,182.2799897375,183.54314573749997,47.0,84.0
1063,183.38525123749997,183.55367203749998,59.0,87.0
1064,183.54314573749997,184.02867132499998,54.0,75.0
1065,183.8589347375,184.23393417499997,59.0,93.0
1066,183.8589347375,184.28393409999998,63.0,89.0
1067,183.8589347375,184.30498669999997,66.0,85.0
1068,183.8589347375,184.3089340625,71.0,88.0
1069,184.1747237375,184.42603914999998,51.0,71.0
1070,184.49051273749998,184.56814419999998,59.0,92.0
1071,184.80630173749998,185.17209066249998,68.0,86.0
1072,184.80630173749998,185.19445904999998,64.0,86.0
1073,184.80630173749998,185.24314318749998,61.0,86.0
1074,185.12209073749997,185.59577423749997,56.0,75.0
1075,185.43787973749997,185.59972159999998,64.0,100.0
1076,185.43787973749997,185.62472156249999,61.0,94.0
1077,185.43787973749997,185.63524786249997,68.0,94.0
1078,185.7536687375,185.92340532499998,56.0,45.0
1079,184.80630173749998,185.97340524999998,49.0,97.0
1080,185.9115632375,186.01156308749998,61.0,93.0
1081,186.0694577375,186.24708904999997,61.0,94.0
1082,186.0694577375,186.25498377499997,68.0,93.0
1083,186.0694577375,186.26156271249997,64.0,100.0
1084,186.54314123749998,186.74182514999998,56.0,91.0
1085,184.80630173749998,186.78524613749997,37.0,78.0
1086,186.38524673749998,186.79708822499998,61.0,86.0
1087,187.01682473749997,187.10629828749998,61.0,95.0
1088,187.33261373749997,187.54971867499998,59.0,89.0
1089,187.33261373749997,187.7036658125,63.0,83.0
1090,187.33261373749997,187.718139475,66.0,83.0
1091,187.6484027375,187.80892881249997,59.0,85.0
1092,187.33261373749997,188.14577041249999,47.0,93.0
1093,187.9641917375,188.19971769999998,59.0,94.0
1094,187.9641917375,188.202349275,63.0,93.0
1095,187.9641917375,188.218138725,66.0,93.0
1096,188.43787523749998,188.5365593,59.0,91.0
1097,188.59576973749998,188.9168218875,59.0,91.0
1098,188.59576973749998,188.91813767499997,71.0,92.0
1099,188.59576973749998,188.92734818749997,63.0,87.0
1100,188.59576973749998,188.92997976249998,66.0,81.0
1101,189.22734773749997,189.35892648749999,59.0,102.0
1102,188.91155873749997,189.37734751249997,54.0,82.0
1103,189.22734773749997,189.37997908749998,63.0,89.0
1104,189.22734773749997,189.39050538749999,66.0,84.0
1105,189.8589257375,189.97339924999997,37.0,91.0
1106,189.8589257375,190.049714925,61.0,91.0
1107,189.8589257375,190.22208308749998,64.0,98.0
1108,189.8589257375,190.22866202499998,68.0,87.0
1109,190.17471473749998,190.32208293749997,61.0,85.0
1110,190.49050373749998,190.74971387499997,64.0,97.0
1111,190.49050373749998,190.75760859999997,68.0,92.0
1112,190.49050373749998,190.76024017499998,61.0,93.0
1113,190.80629273749997,191.03655554999997,56.0,58.0
1114,190.96418723749997,191.06287129999998,61.0,91.0
1115,189.8589257375,191.13392382499998,49.0,84.0
1116,191.12208173749997,191.52208113749998,61.0,87.0
1117,191.12208173749997,191.59181787499998,64.0,95.0
1118,191.12208173749997,191.61681783749998,68.0,92.0
1119,191.4378707375,192.1194486625,49.0,87.0
1120,191.7536597375,192.33655359999997,61.0,96.0
1121,191.7536597375,192.34444832499997,64.0,96.0
1122,191.7536597375,192.3641851375,68.0,93.0
1123,192.06944873749998,192.37865879999998,56.0,93.0
1124,192.38523773749998,192.84707914999998,64.0,91.0
1125,192.38523773749998,192.8720791125,57.0,85.0
1126,192.70102673749997,193.14181555,52.0,83.0
1127,193.01681573749997,193.3404994625,57.0,91.0
1128,193.01681573749997,193.354973125,64.0,93.0
1129,193.01681573749997,193.3562889125,61.0,86.0
1130,193.17471023749997,193.44707824999998,52.0,78.0
1131,193.4904992375,193.602341175,57.0,93.0
1132,193.6483937375,193.9826037625,57.0,91.0
1133,193.6483937375,194.05234049999999,64.0,93.0
1134,193.6483937375,194.05760364999998,61.0,92.0
1135,193.96418273749998,194.370761075,52.0,83.0
1136,194.27997173749998,194.870760325,57.0,92.0
1137,192.38523773749998,194.89181292499998,45.0,91.0
1138,194.27997173749998,194.89839186249998,61.0,92.0
1139,194.59576073749997,194.902339225,52.0,92.0
1140,194.27997173749998,194.90365501249997,64.0,93.0
1141,194.91154973749997,195.3220754375,64.0,90.0
1142,194.91154973749997,195.32339122499997,68.0,84.0
1143,195.2273387375,195.68523278749998,59.0,80.0
1144,195.5431277375,195.7983905125,68.0,93.0
1145,195.5431277375,195.81549574999997,71.0,93.0
1146,195.5431277375,195.82733783749998,64.0,95.0
1147,195.85891673749998,196.107600575,59.0,70.0
1148,196.01681123749998,196.19575833749997,64.0,92.0
1149,196.01681123749998,196.22075829999997,68.0,92.0
1150,196.49049473749997,196.67207341249997,64.0,86.0
1151,196.17470573749998,196.92996776249998,59.0,82.0
1152,194.91154973749997,196.94970457499997,40.0,93.0
1153,196.80628373749997,196.96812559999998,64.0,102.0
1154,194.91154973749997,197.02338867499998,52.0,92.0
1155,196.80628373749997,197.03654654999997,68.0,92.0
1156,197.1220727375,197.26944093749998,64.0,92.0
1157,197.4378617375,197.644440375,69.0,89.0
1158,197.4378617375,197.67075612499997,64.0,90.0
1159,197.75365073749998,198.144439625,52.0,70.0
1160,198.06943973749998,198.24312368749997,64.0,93.0
1161,198.06943973749998,198.26154471249998,61.0,91.0
1162,198.06943973749998,198.26943943749998,57.0,91.0
1163,198.38522873749997,198.5891758,52.0,70.0
1164,198.54312323749997,198.69707037499998,61.0,87.0
1165,198.54312323749997,198.71022824999997,57.0,87.0
1166,198.54312323749997,198.74575451249999,64.0,91.0
1167,199.0168067375,199.25233269999998,57.0,84.0
1168,199.3325957375,199.39180617499997,57.0,81.0
1169,198.70101773749997,199.44970082499998,52.0,88.0
1170,197.4378617375,199.59970059999998,45.0,92.0
1171,199.3325957375,199.9049633,61.0,92.0
1172,199.64838473749998,199.92601589999998,57.0,91.0
1173,199.3325957375,199.94180534999998,64.0,94.0
1174,199.3325957375,200.10759457499998,69.0,91.0
1175,200.27996273749997,200.72075155,59.0,79.0
1176,200.59575173749997,200.791804075,64.0,92.0
1177,200.59575173749997,200.79838301249998,68.0,92.0
1178,200.59575173749997,200.8312777,71.0,91.0
1179,200.9115407375,201.12996146249998,59.0,80.0
1180,201.0694352375,201.21811922499998,64.0,97.0
1181,201.54311873749998,201.72206583749997,64.0,95.0
1182,201.22732973749999,201.96680231249996,59.0,84.0
1183,201.85890773749998,201.99443384999998,64.0,95.0
1184,199.96417373749998,202.04838113749997,52.0,94.0
1185,201.85890773749998,202.16943358749998,68.0,95.0
1186,201.85890773749998,202.18259146249997,71.0,93.0
1187,202.17469673749997,202.25364398749997,64.0,92.0
1188,202.49048573749997,203.044432275,59.0,91.0
1189,203.12206373749999,203.36285284999997,59.0,95.0
1190,203.12206373749999,203.36548442499998,63.0,92.0
1191,203.12206373749999,203.39048438749998,66.0,91.0
1192,203.59574723749998,203.73522071249997,63.0,85.0
1193,203.59574723749998,203.73522071249997,66.0,79.0
1194,202.49048573749997,203.75364173749998,47.0,84.0
1195,203.59574723749998,203.76416803749999,59.0,87.0
1196,203.75364173749998,204.23916732499998,54.0,75.0
1197,204.06943073749997,204.44443017499998,59.0,93.0
1198,204.06943073749997,204.4944301,63.0,89.0
1199,204.06943073749997,204.51548269999998,66.0,85.0
1200,204.06943073749997,204.51943006249996,71.0,88.0
1201,204.38521973749997,204.63653515,51.0,71.0
1202,204.7010087375,204.77864019999998,59.0,92.0
1203,205.01679773749999,205.3825866625,68.0,86.0
1204,205.01679773749999,205.40495504999998,64.0,86.0
1205,205.01679773749999,205.4536391875,61.0,86.0
1206,205.33258673749998,205.80627023749997,56.0,75.0
1207,205.64837573749998,205.8102176,64.0,100.0
1208,205.64837573749998,205.8352175625,61.0,94.0
1209,205.64837573749998,205.84574386249997,68.0,94.0
1210,205.96416473749997,206.13390132499998,56.0,45.0
1211,205.01679773749999,206.18390125,49.0,97.0
1212,206.12205923749997,206.22205908749999,61.0,93.0
1213,206.27995373749997,206.45758504999998,61.0,94.0
1214,206.27995373749997,206.46547977499998,68.0,93.0
1215,206.27995373749997,206.47205871249997,64.0,100.0
1216,206.7536372375,206.95232115,56.0,91.0
1217,205.01679773749999,206.99574213749997,37.0,78.0
1218,206.5957427375,207.007584225,61.0,86.0
1219,207.22732073749998,207.3167942875,61.0,95.0
1220,207.54310973749998,207.760214675,59.0,89.0
1221,207.54310973749998,207.91416181249997,63.0,83.0
1222,207.54310973749998,207.92863547499996,66.0,83.0
1223,207.85889873749997,208.01942481249998,59.0,85.0
1224,207.54310973749998,208.3562664125,47.0,93.0
1225,208.17468773749997,208.41021369999999,59.0,94.0
1226,208.17468773749997,208.41284527499997,63.0,93.0
1227,208.17468773749997,208.42863472499997,66.0,93.0
1228,208.6483712375,208.74705529999997,59.0,91.0
1229,208.80626573749998,209.12731788749997,59.0,91.0
1230,208.80626573749998,209.12863367499997,71.0,92.0
1231,208.80626573749998,209.13784418749998,63.0,87.0
1232,208.80626573749998,209.1404757625,66.0,81.0
1233,209.43784373749997,209.56942248749996,59.0,102.0
1234,209.12205473749998,209.58784351249997,54.0,82.0
1235,209.43784373749997,209.59047508749998,63.0,89.0
1236,209.43784373749997,209.6010013875,66.0,84.0
1237,210.06942173749997,210.18389524999998,37.0,91.0
1238,210.06942173749997,210.26021092499997,61.0,91.0
1239,210.06942173749997,210.4325790875,64.0,98.0
1240,210.06942173749997,210.43915802499998,68.0,87.0
1241,210.3852107375,210.53257893749998,61.0,85.0
1242,210.70099973749998,210.96020987499998,64.0,97.0
1243,210.70099973749998,210.96810459999998,68.0,92.0
1244,210.70099973749998,210.97073617499998,61.0,93.0
1245,211.01678873749998,211.24705154999998,56.0,58.0
1246,211.17468323749998,211.2733673,61.0,91.0
1247,210.06942173749997,211.344419825,49.0,84.0
1248,211.33257773749997,211.7325771375,61.0,87.0
1249,211.33257773749997,211.80231387499998,64.0,95.0
1250,211.33257773749997,211.8273138375,68.0,92.0
1251,211.64836673749997,212.32994466249997,49.0,87.0
1252,211.96415573749996,212.54704959999998,61.0,96.0
1253,211.96415573749996,212.55494432499998,64.0,96.0
1254,211.96415573749996,212.57468113749997,68.0,93.0
1255,212.2799447375,212.5891548,56.0,93.0
1256,212.59573373749998,213.05757514999996,64.0,91.0
1257,212.59573373749998,213.08257511249997,57.0,85.0
1258,212.91152273749998,213.35231154999997,52.0,83.0
1259,213.22731173749997,213.55099546249997,57.0,91.0
1260,213.22731173749997,213.56546912499996,64.0,93.0
1261,213.22731173749997,213.56678491249997,61.0,86.0
1262,213.38520623749997,213.65757424999998,52.0,78.0
1263,213.70099523749997,213.81283717499997,57.0,93.0
1264,213.85888973749996,214.19309976249997,57.0,91.0
1265,213.85888973749996,214.26283649999996,64.0,93.0
1266,213.85888973749996,214.26809964999998,61.0,92.0
1267,214.1746787375,214.58125707499997,52.0,83.0
1268,214.49046773749998,215.08125632499997,57.0,92.0
1269,212.59573373749998,215.102308925,45.0,91.0
1270,214.49046773749998,215.10888786249998,61.0,92.0
1271,214.80625673749998,215.11283522499997,52.0,92.0
1272,214.49046773749998,215.11415101249997,64.0,93.0
1273,215.12204573749997,215.53257143749997,64.0,90.0
1274,215.12204573749997,215.53388722499997,68.0,84.0
1275,215.43783473749997,215.8957287875,59.0,80.0
1276,215.75362373749996,216.00888651249997,68.0,93.0
1277,215.75362373749996,216.02599174999997,71.0,93.0
1278,215.75362373749996,216.0378338375,64.0,95.0
1279,216.0694127375,216.31809657499997,59.0,70.0
1280,216.22730723749999,216.40625433749997,64.0,92.0
1281,216.22730723749999,216.43125429999998,68.0,92.0
1282,216.70099073749998,216.88256941249998,64.0,86.0
1283,216.38520173749998,217.14046376249996,59.0,82.0
1284,215.12204573749997,217.16020057499998,40.0,93.0
1285,217.01677973749997,217.17862159999999,64.0,102.0
1286,215.12204573749997,217.23388467499998,52.0,92.0
1287,217.01677973749997,217.24704254999997,68.0,92.0
1288,217.33256873749997,217.47993693749999,64.0,92.0
1289,217.64835773749996,217.85493637499997,69.0,89.0
1290,217.64835773749996,217.88125212499997,64.0,90.0
1291,217.9641467375,218.35493562499997,52.0,70.0
1292,218.27993573749998,218.45361968749998,64.0,93.0
1293,218.27993573749998,218.4720407125,61.0,91.0
1294,218.27993573749998,218.4799354375,57.0,91.0
1295,218.59572473749998,218.79967179999997,52.0,70.0
1296,218.75361923749998,218.907566375,61.0,87.0
1297,218.75361923749998,218.92072424999998,57.0,87.0
1298,218.75361923749998,218.95625051249996,64.0,91.0
1299,219.22730273749997,219.4628287,57.0,84.0
1300,219.54309173749996,219.60230217499998,57.0,81.0
1301,218.91151373749997,219.66019682499999,52.0,88.0
1302,217.64835773749996,219.81019659999998,45.0,92.0
1303,219.54309173749996,220.11545929999997,61.0,92.0
1304,219.8588807375,220.1365119,57.0,91.0
1305,219.54309173749996,220.15230135,64.0,94.0
1306,219.54309173749996,220.31809057499999,69.0,91.0
1307,220.49045873749998,220.93124754999997,59.0,79.0
1308,220.80624773749997,221.00230007499997,64.0,92.0
1309,220.80624773749997,221.0088790125,68.0,92.0
1310,220.80624773749997,221.04177369999996,71.0,91.0
1311,221.12203673749997,221.34045746249998,59.0,80.0
1312,221.27993123749997,221.428615225,64.0,97.0
1313,221.7536147375,221.93256183749997,64.0,95.0
1314,221.43782573749996,222.17729831249997,59.0,84.0
1315,222.06940373749998,222.20492984999998,64.0,95.0
1316,220.17466973749998,222.25887713749998,52.0,94.0
1317,222.06940373749998,222.3799295875,68.0,95.0
1318,222.06940373749998,222.39308746249998,71.0,93.0
1319,222.38519273749998,222.46413998749998,64.0,92.0
1320,222.70098173749997,223.25492827499997,59.0,91.0
1321,223.33255973749996,223.57334884999997,59.0,95.0
1322,223.33255973749996,223.57598042499998,63.0,92.0
1323,223.33255973749996,223.6009803875,66.0,91.0
1324,223.80624323749998,223.94571671249997,63.0,85.0
1325,223.80624323749998,223.94571671249997,66.0,79.0
1326,222.70098173749997,223.96413773749998,47.0,84.0
1327,223.80624323749998,223.97466403749996,59.0,87.0
1328,223.96413773749998,224.449663325,54.0,75.0
1329,224.27992673749998,224.65492617499999,59.0,93.0
1330,224.27992673749998,224.70492609999997,63.0,89.0
1331,224.27992673749998,224.72597869999998,66.0,85.0
1332,224.27992673749998,224.72992606249997,71.0,88.0
1333,224.59571573749997,224.84703114999996,51.0,71.0
1334,224.91150473749997,224.98913619999996,59.0,92.0
1335,225.22729373749996,225.59308266249997,68.0,86.0
1336,225.22729373749996,225.61545104999996,64.0,86.0
1337,225.22729373749996,225.66413518749997,61.0,86.0
1338,225.5430827375,226.01676623749998,56.0,75.0
1339,225.85887173749998,226.02071359999997,64.0,100.0
1340,225.85887173749998,226.04571356249997,61.0,94.0
1341,225.85887173749998,226.05623986249998,68.0,94.0
1342,226.17466073749998,226.344397325,56.0,45.0
1343,225.22729373749996,226.39439724999997,49.0,97.0
1344,226.33255523749997,226.43255508749996,61.0,93.0
1345,226.49044973749997,226.66808104999998,61.0,94.0
1346,226.49044973749997,226.67597577499998,68.0,93.0
1347,226.49044973749997,226.68255471249998,64.0,100.0
1348,226.96413323749996,227.16281714999997,56.0,91.0
1349,225.22729373749996,227.20623813749998,37.0,78.0
1350,226.80623873749997,227.21808022499997,61.0,86.0
1351,227.4378167375,227.52729028749997,61.0,95.0
1352,227.75360573749998,227.97071067499996,59.0,89.0
1353,227.75360573749998,228.12465781249998,63.0,83.0
1354,227.75360573749998,228.13913147499997,66.0,83.0
1355,228.06939473749998,228.22992081249998,59.0,85.0
1356,227.75360573749998,228.56676241249997,47.0,93.0
1357,228.38518373749997,228.62070969999996,59.0,94.0
1358,228.38518373749997,228.62334127499997,63.0,93.0
1359,228.38518373749997,228.63913072499997,66.0,93.0
1360,228.85886723749996,228.95755129999998,59.0,91.0
1361,229.01676173749996,229.33781388749998,59.0,91.0
1362,229.01676173749996,229.33912967499998,71.0,92.0
1363,229.01676173749996,229.34834018749999,63.0,87.0
1364,229.01676173749996,229.35097176249997,66.0,81.0
1365,229.64833973749998,229.77991848749997,59.0,102.0
1366,229.3325507375,229.79833951249998,54.0,82.0
1367,229.64833973749998,229.8009710875,63.0,89.0
1368,229.64833973749998,229.81149738749997,66.0,84.0
1369,230.27991773749997,230.39439124999998,37.0,91.0
1370,230.27991773749997,230.47070692499997,61.0,91.0
1371,230.27991773749997,230.64307508749997,64.0,98.0
1372,230.27991773749997,230.64965402499996,68.0,87.0
1373,230.59570673749997,230.74307493749998,61.0,85.0
1374,230.91149573749996,231.17070587499998,64.0,97.0
1375,230.91149573749996,231.17860059999998,68.0,92.0
1376,230.91149573749996,231.18123217499996,61.0,93.0
1377,231.22728473749999,231.45754755,56.0,58.0
1378,231.38517923749998,231.48386329999997,61.0,91.0
1379,230.27991773749997,231.55491582499997,49.0,84.0
1380,231.54307373749998,231.94307313749997,61.0,87.0
1381,231.54307373749998,232.012809875,64.0,95.0
1382,231.54307373749998,232.03780983749996,68.0,92.0
1383,231.85886273749998,232.54044066249998,49.0,87.0
1384,232.17465173749997,232.7575456,61.0,96.0
1385,232.17465173749997,232.765440325,64.0,96.0
1386,232.17465173749997,232.78517713749997,68.0,93.0
1387,232.49044073749997,232.79965079999997,56.0,93.0
1388,232.80622973749996,233.26807114999997,64.0,91.0
1389,232.80622973749996,233.29307111249997,57.0,85.0
1390,233.12201873749999,233.56280754999997,52.0,83.0
1391,233.43780773749998,233.76149146249998,57.0,91.0
1392,233.43780773749998,233.77596512499997,64.0,93.0
1393,233.43780773749998,233.77728091249998,61.0,86.0
1394,233.59570223749998,233.86807025,52.0,78.0
1395,233.91149123749997,234.02333317499998,57.0,93.0
1396,234.06938573749997,234.40359576249998,57.0,91.0
1397,234.06938573749997,234.47333249999997,64.0,93.0
1398,234.06938573749997,234.47859565,61.0,92.0
1399,234.38517473749997,234.79175307499997,52.0,83.0
1400,234.70096373749996,235.29175232499998,57.0,92.0
1401,232.80622973749996,235.31280492499997,45.0,91.0
1402,234.70096373749996,235.31938386249996,61.0,92.0
1403,235.01675273749998,235.32333122499998,52.0,92.0
1404,234.70096373749996,235.32464701249998,64.0,93.0
1405,235.33254173749998,235.74306743749997,64.0,90.0
1406,235.33254173749998,235.74438322499998,68.0,84.0
1407,235.64833073749998,236.10622478749997,59.0,80.0
1408,235.96411973749997,236.21938251249998,68.0,93.0
1409,235.96411973749997,236.23648774999998,71.0,93.0
1410,235.96411973749997,236.24832983749997,64.0,95.0
1411,236.27990873749997,236.52859257499998,59.0,70.0
1412,236.43780323749996,236.61675033749998,64.0,92.0
1413,236.43780323749996,236.64175029999998,68.0,92.0
1414,236.91148673749998,237.09306541249998,64.0,86.0
1415,236.59569773749996,237.35095976249997,59.0,82.0
1416,235.33254173749998,237.37069657499998,40.0,93.0
1417,237.22727573749998,237.38911759999996,64.0,102.0
1418,235.33254173749998,237.44438067499996,52.0,92.0
1419,237.22727573749998,237.45753854999998,68.0,92.0
1420,237.54306473749998,237.69043293749996,64.0,92.0
1421,237.85885373749997,238.06543237499997,69.0,89.0
1422,237.85885373749997,238.09174812499998,64.0,90.0
1423,238.17464273749997,238.56543162499997,52.0,70.0
1424,238.49043173749996,238.6641156875,64.0,93.0
1425,238.49043173749996,238.68253671249997,61.0,91.0
1426,238.49043173749996,238.69043143749997,57.0,91.0
1427,238.80622073749998,239.01016779999998,52.0,70.0
1428,238.96411523749998,239.11806237499997,61.0,87.0
1429,238.96411523749998,239.13122024999998,57.0,87.0
1430,238.96411523749998,239.16674651249997,64.0,91.0
1431,239.43779873749997,239.67332469999997,57.0,84.0
1432,239.75358773749997,239.81279817499998,57.0,81.0
1433,239.12200973749998,239.87069282499996,52.0,88.0
1434,237.85885373749997,240.02069259999996,45.0,92.0
1435,239.75358773749997,240.32595529999998,61.0,92.0
1436,240.06937673749997,240.34700789999997,57.0,91.0
1437,239.75358773749997,240.36279734999997,64.0,94.0
1438,239.75358773749997,240.52858657499996,69.0,91.0
1439,240.70095473749998,241.14174354999997,59.0,79.0
1440,241.01674373749998,241.21279607499997,64.0,92.0
1441,241.01674373749998,241.21937501249997,68.0,92.0
1442,241.01674373749998,241.25226969999997,71.0,91.0
1443,241.33253273749997,241.55095346249996,59.0,80.0
1444,241.49042723749997,241.63911122499997,64.0,97.0
1445,241.96411073749996,242.14305783749998,64.0,95.0
1446,241.64832173749997,242.38779431249998,59.0,84.0
1447,242.27989973749996,242.41542584999996,64.0,95.0
1448,240.38516573749996,242.46937313749999,52.0,94.0
1449,242.27989973749996,242.59042558749996,68.0,95.0
1450,242.27989973749996,242.60358346249998,71.0,93.0
1451,242.59568873749998,242.67463598749998,64.0,92.0
1452,242.91147773749998,243.46542427499998,59.0,91.0
1453,243.54305573749997,243.78384484999998,59.0,95.0
1454,243.54305573749997,243.78647642499996,63.0,92.0
1455,243.54305573749997,243.81147638749997,66.0,91.0
1456,244.01673923749996,244.15621271249998,63.0,85.0
1457,244.01673923749996,244.15621271249998,66.0,79.0
1458,242.91147773749998,244.17463373749996,47.0,84.0
1459,244.01673923749996,244.18516003749997,59.0,87.0
1460,244.17463373749996,244.66015932499997,54.0,75.0
1461,244.49042273749998,244.86542217499996,59.0,93.0
1462,244.49042273749998,244.91542209999997,63.0,89.0
1463,244.49042273749998,244.93647469999996,66.0,85.0
1464,244.49042273749998,244.94042206249998,71.0,88.0
1465,244.80621173749998,245.05752714999997,51.0,71.0
1466,245.12200073749997,245.19963219999997,59.0,92.0
1467,245.43778973749997,245.80357866249997,68.0,86.0
1468,245.43778973749997,245.82594704999997,64.0,86.0
1469,245.43778973749997,245.87463118749997,61.0,86.0
1470,245.75357873749996,246.22726223749999,56.0,75.0
1471,246.06936773749996,246.23120959999997,64.0,100.0
1472,246.06936773749996,246.25620956249998,61.0,94.0
1473,246.06936773749996,246.26673586249998,68.0,94.0
1474,246.38515673749998,246.55489332499997,56.0,45.0
1475,245.43778973749997,246.60489324999998,49.0,97.0
1476,246.54305123749998,246.64305108749997,61.0,93.0
1477,246.70094573749998,246.87857704999996,61.0,94.0
1478,246.70094573749998,246.88647177499996,68.0,93.0
1479,246.70094573749998,246.89305071249998,64.0,100.0
1480,247.17462923749997,247.37331314999997,56.0,91.0
1481,245.43778973749997,247.4167341375,37.0,78.0
1482,247.01673473749997,247.42857622499997,61.0,86.0
1483,247.64831273749996,247.73778628749997,61.0,95.0
1484,247.96410173749996,248.18120667499997,59.0,89.0
1485,247.96410173749996,248.33515381249998,63.0,83.0
1486,247.96410173749996,248.34962747499998,66.0,83.0
1487,248.27989073749998,248.44041681249996,59.0,85.0
1488,247.96410173749996,248.77725841249998,47.0,93.0
1489,248.59567973749998,248.83120569999997,59.0,94.0
1490,248.59567973749998,248.83383727499998,63.0,93.0
1491,248.59567973749998,248.84962672499998,66.0,93.0
1492,249.06936323749997,249.16804729999998,59.0,91.0
1493,249.22725773749997,249.54830988749998,59.0,91.0
1494,249.22725773749997,249.54962567499996,71.0,92.0
1495,249.22725773749997,249.55883618749996,63.0,87.0
1496,249.22725773749997,249.56146776249997,66.0,81.0
1497,249.85883573749996,249.99041448749998,59.0,102.0
1498,249.54304673749996,250.00883551249999,54.0,82.0
1499,249.85883573749996,250.01146708749997,63.0,89.0
1500,249.85883573749996,250.02199338749998,66.0,84.0
1501,250.49041373749998,250.60488724999996,37.0,91.0
1502,250.49041373749998,250.68120292499998,61.0,91.0
1503,250.49041373749998,250.85357108749997,64.0,98.0
1504,250.49041373749998,250.86015002499997,68.0,87.0
1505,250.80620273749997,250.95357093749996,61.0,85.0
1506,251.12199173749997,251.38120187499996,64.0,97.0
1507,251.12199173749997,251.38909659999996,68.0,92.0
1508,251.12199173749997,251.39172817499997,61.0,93.0
1509,251.43778073749996,251.66804354999996,56.0,58.0
1510,251.59567523749996,251.69435929999997,61.0,91.0
1511,250.49041373749998,251.76541182499997,49.0,84.0
1512,251.75356973749996,252.15356913749997,61.0,87.0
1513,251.75356973749996,252.22330587499997,64.0,95.0
1514,251.75356973749996,252.24830583749997,68.0,92.0
1515,252.06935873749998,252.75093666249998,49.0,87.0
1516,252.38514773749998,252.96804159999996,61.0,96.0
1517,252.38514773749998,252.97593632499996,64.0,96.0
1518,252.38514773749998,252.99567313749998,68.0,93.0
1519,252.70093673749997,253.01014679999997,56.0,93.0
1520,253.01672573749997,255.52330092499997,45.0,91.0
1521,253.01672573749997,255.54303773749996,52.0,83.0
1522,253.01672573749997,255.56277454999997,64.0,91.0
1523,253.01672573749997,255.58909029999998,57.0,85.0
