,start,end,pitch,velocity
0,20.810256758333335,21.109363741666666,67.0,87.0
1,21.109363741666666,21.638381316666667,76.0,105.0
2,21.638381316666667,21.89730975,74.0,94.0
3,21.89730975,22.174095316666666,76.0,84.0
4,22.174095316666666,22.71650574166667,74.0,100.0
5,22.718737883333333,23.256684025000002,74.0,76.0
6,23.25891616666667,23.848201566666667,74.0,82.0
7,23.779005175,24.046862175,71.0,100.0
8,24.049094316666668,24.553558333333335,71.0,102.0
9,24.553558333333335,27.879449416666667,72.0,92.0
10,29.412930741666667,29.669627033333335,67.0,111.0
11,29.669627033333335,30.203108891666666,76.0,105.0
12,30.203108891666666,30.453108758333336,74.0,94.0
13,30.453108758333336,30.732126466666667,76.0,102.0
14,30.732126466666667,31.283465458333335,74.0,105.0
15,31.285697600000002,31.848197300000002,74.0,100.0
16,31.850429441666666,32.37051845,74.0,102.0
17,32.348197033333335,32.631679025000004,71.0,117.0
18,32.63391116666667,33.158464458333334,71.0,117.0
19,33.158464458333334,35.430784675,69.0,117.0
20,36.91962316666667,37.18301588333333,67.0,117.0
21,37.18301588333333,37.71203345833334,81.0,114.0
22,37.71203345833334,38.50667589166667,79.0,108.0
23,38.50667589166667,39.017836333333335,72.0,117.0
24,39.017836333333335,39.31917545833333,74.0,111.0
25,39.31917545833333,40.9553353,76.0,97.0
26,40.9553353,41.2231923,74.0,114.0
27,41.2231923,41.4910493,72.0,111.0
28,41.4910493,42.0267633,76.0,111.0
29,42.0267633,42.29238815833333,74.0,105.0
30,42.2946203,43.0981913,74.0,97.0
31,43.0981913,43.3660483,71.0,105.0
32,43.3660483,45.453100758333335,72.0,108.0
33,46.5803323,46.8481893,67.0,105.0
34,46.8481893,47.3839033,76.0,114.0
35,47.3839033,47.6517603,74.0,97.0
36,47.6517603,47.9196173,76.0,100.0
37,47.9196173,48.45309915833334,74.0,97.0
38,48.455331300000005,48.988813158333336,74.0,100.0
39,48.9910453,49.5267593,74.0,102.0
40,49.5267593,49.7946163,71.0,102.0
41,49.7946163,53.4798029,72.0,102.0
42,55.05820010833334,55.35730709166667,67.0,87.0
43,55.35730709166667,55.886324666666674,76.0,105.0
44,55.886324666666674,56.145253100000005,74.0,94.0
45,56.145253100000005,56.42203866666667,76.0,84.0
46,56.42203866666667,56.96444909166667,74.0,100.0
47,56.96668123333334,57.504627375000005,74.0,76.0
48,57.50685951666667,58.096144916666674,74.0,82.0
49,58.026948525,58.29703766666667,71.0,100.0
50,58.29703766666667,58.801501683333335,72.0,102.0
51,58.801501683333335,62.00016069166667,69.0,92.0
52,63.66087409166667,63.91757038333334,67.0,111.0
53,63.91757038333334,64.45105224166667,76.0,105.0
54,64.45105224166667,64.70105210833334,74.0,94.0
55,64.70105210833334,64.98006981666667,76.0,102.0
56,64.98006981666667,65.53140880833334,74.0,105.0
57,65.53364095,66.09614065000001,74.0,100.0
58,66.09837279166668,66.6184618,74.0,102.0
59,66.59614038333333,66.879622375,79.0,117.0
60,66.88185451666666,67.40640780833334,79.0,117.0
61,67.40640780833334,69.69435301666667,76.0,117.0
62,70.91756665,71.18542365,72.0,114.0
63,71.18542365,71.45328065000001,72.0,114.0
64,71.43095923333334,71.95997680833334,81.0,114.0
65,71.95997680833334,72.22783380833334,79.0,108.0
66,72.22783380833334,72.76354780833334,79.0,108.0
67,72.75461924166667,73.26577968333334,72.0,117.0
68,73.26577968333334,73.56711880833333,74.0,111.0
69,73.56711880833333,75.20327865,76.0,97.0
70,75.20327865,75.47113565000001,74.0,114.0
71,75.47113565000001,75.73899265,72.0,111.0
72,75.73899265,76.27470665000001,76.0,111.0
73,76.27470665000001,76.54033150833334,74.0,105.0
74,76.54256365,77.34613465000001,74.0,97.0
75,77.34613465000001,77.61399165,71.0,105.0
76,77.61399165,79.75461550833333,72.0,108.0
77,79.75684765,80.02470465,72.0,92.0
78,80.02470465,80.29032950833334,76.0,108.0
79,80.29256165000001,81.09613265,76.0,108.0
80,81.09613265,81.63184665,74.0,105.0
81,81.63184665,81.89970365,72.0,114.0
82,81.89970365,82.43318550833334,74.0,105.0
83,82.43541765,83.23675650833334,74.0,105.0
84,83.23898865000001,83.77470265000001,74.0,105.0
85,83.77470265000001,84.04032750833333,72.0,117.0
86,84.04255965,86.49121905833334,72.0,114.0
87,88.06041465000001,88.32827165,81.0,108.0
88,88.32827165,88.59612865,83.0,117.0
89,88.59612865,88.86398565,84.0,111.0
90,88.86398565,89.13184265000001,83.0,114.0
91,89.13184265000001,89.39969965,79.0,114.0
92,89.39969965,89.93541365000002,84.0,117.0
93,89.93541365000002,90.47112765,83.0,117.0
94,90.47112765,91.00684165000001,84.0,108.0
95,91.00684165000001,91.27469865,83.0,111.0
96,91.27469865,91.54255565,79.0,114.0
97,91.54255565,92.07826965000001,84.0,117.0
98,92.07826965000001,92.61398365000001,83.0,120.0
99,92.61398365000001,93.14969765000001,79.0,114.0
100,93.14969765000001,93.68541165,76.0,108.0
101,93.68541165,96.63183865,79.0,102.0
102,96.63183865,96.89746350833335,72.0,105.0
103,96.89969565000001,97.16755265,72.0,111.0
104,97.16755265,97.43540965,81.0,111.0
105,97.43540965,97.70326665,79.0,108.0
106,97.70326665,97.97112365000001,72.0,117.0
107,97.97112365000001,98.50683765000001,81.0,111.0
108,98.50683765000001,99.04255165000001,79.0,111.0
109,99.04255165000001,99.57826565,81.0,111.0
110,99.57826565,99.84612265000001,79.0,100.0
111,99.84612265000001,100.11397965,72.0,117.0
112,100.11397965,100.64969365,81.0,111.0
113,100.64969365,100.91755065000001,79.0,102.0
114,100.91755065000001,101.18317550833333,72.0,111.0
115,101.18540765,101.72335379166668,72.0,114.0
116,101.72112165000001,102.25683565,79.0,108.0
117,102.25683565,105.73674450833335,76.0,114.0
118,105.73897665000001,106.00683365,76.0,114.0
119,106.00683365,107.07826165,79.0,111.0
120,107.07826165,107.61397565000001,72.0,114.0
121,107.61397565000001,107.87960050833334,74.0,102.0
122,107.88183265,109.48897465,74.0,105.0
123,109.48897465,109.75683165000001,72.0,111.0
124,109.75683165000001,110.02468865,74.0,102.0
125,110.02468865,110.56040265000001,76.0,111.0
126,110.56040265000001,111.09611665,79.0,114.0
127,111.09611665,111.63183065000001,83.0,120.0
128,111.63183065000001,111.89968765,79.0,105.0
129,111.89968765,114.30816850833334,84.0,111.0
130,114.31040065,114.57825765000001,84.0,111.0
131,114.57825765000001,114.84611465,83.0,114.0
132,114.84611465,115.11173950833333,79.0,117.0
133,115.11397165,115.64968565000001,79.0,108.0
134,115.64968565000001,116.18539965000001,76.0,108.0
135,116.18539965000001,116.72111365,74.0,111.0
136,116.72111365,117.25682765,71.0,102.0
137,117.25682765,118.59611265000001,76.0,117.0
138,118.59611265000001,118.86396965,71.0,117.0
139,118.86396965,124.95548425833334,69.0,92.0
140,140.77244010833334,141.07154709166667,67.0,87.0
141,141.07154709166667,141.60056466666668,76.0,105.0
142,141.60056466666668,141.8594931,74.0,94.0
143,141.8594931,142.13627866666667,76.0,84.0
144,142.13627866666667,142.67868909166668,74.0,100.0
145,142.68092123333332,143.218867375,74.0,76.0
146,143.22109951666667,143.8103849166667,74.0,82.0
147,143.741188525,144.01127766666667,71.0,100.0
148,144.01127766666667,144.51574168333335,72.0,102.0
149,144.51574168333335,149.37511409166666,69.0,92.0
150,149.37511409166666,149.63181038333335,67.0,111.0
151,149.63181038333335,150.1652922416667,76.0,105.0
152,150.1652922416667,150.41529210833335,74.0,94.0
153,150.41529210833335,150.69430981666667,76.0,102.0
154,150.69430981666667,151.24564880833333,74.0,105.0
155,151.24788095000002,151.81038065,74.0,100.0
156,151.81261279166668,152.3327018,74.0,102.0
157,152.31038038333332,152.59386237500001,79.0,117.0
158,152.59609451666665,153.12064780833333,79.0,117.0
159,153.12064780833333,156.63180665,76.0,117.0
160,156.63180665,156.89966365,72.0,114.0
161,156.89966365,157.16752065000003,72.0,114.0
162,157.14519923333336,157.67421680833334,81.0,114.0
163,157.67421680833334,157.94207380833336,79.0,108.0
164,157.94207380833336,158.47778780833335,79.0,108.0
165,158.46885924166668,158.98001968333335,72.0,117.0
166,158.98001968333335,159.28135880833332,74.0,111.0
167,159.28135880833332,160.91751865,76.0,97.0
168,160.91751865,161.18537565000003,74.0,114.0
169,161.18537565000003,161.45323265000002,72.0,111.0
170,161.45323265000002,161.98894665,76.0,111.0
171,161.98894665,162.25457150833336,74.0,105.0
172,162.25680365,163.06037465000003,74.0,97.0
173,163.06037465000003,163.32823165000002,71.0,105.0
174,163.32823165000002,165.46885550833332,72.0,108.0
175,165.47108765000002,165.73894465,72.0,92.0
176,165.73894465,166.00456950833336,76.0,108.0
177,166.00680165,166.81037265,76.0,108.0
178,166.81037265,167.34608665000002,74.0,105.0
179,167.34608665000002,167.61394365,72.0,114.0
180,167.61394365,168.14742550833336,74.0,105.0
181,168.14965765,168.95099650833333,74.0,105.0
182,168.95322865000003,169.48894265,74.0,105.0
183,169.48894265,169.75456750833334,72.0,117.0
184,169.75679965,172.31483400000002,72.0,114.0
185,173.77465465,174.04251165,81.0,108.0
186,174.04251165,174.31036865,83.0,117.0
187,174.31036865,174.57822565,84.0,111.0
188,174.57822565,174.84608265000003,83.0,114.0
189,174.84608265000003,175.11393965000002,79.0,114.0
190,175.11393965000002,175.64965365,84.0,117.0
191,175.64965365,176.18536765,83.0,117.0
192,176.18536765,176.72108165,84.0,108.0
193,176.72108165,176.98893865000002,83.0,111.0
194,176.98893865000002,177.25679565000002,79.0,114.0
195,177.25679565000002,177.79250965,84.0,117.0
196,177.79250965,178.32822365,83.0,120.0
197,178.32822365,178.86393765000003,79.0,114.0
198,178.86393765000003,179.39965165,76.0,108.0
199,179.39965165,182.34607865,79.0,102.0
200,182.34607865,182.61170350833333,72.0,105.0
201,182.61393565000003,182.88179265000002,72.0,111.0
202,182.88179265000002,183.14964965000001,81.0,111.0
203,183.14964965000001,183.41750665,79.0,108.0
204,183.41750665,183.68536365,72.0,117.0
205,183.68536365,184.22107764999998,81.0,111.0
206,184.22107764999998,184.75679165000003,79.0,111.0
207,184.75679165000003,185.29250565,81.0,111.0
208,185.29250565,185.56036265,79.0,100.0
209,185.56036265,185.82821965,72.0,117.0
210,185.82821965,186.36393365000004,81.0,111.0
211,186.36393365000004,186.63179065000003,79.0,102.0
212,186.63179065000003,186.89741550833332,72.0,111.0
213,186.89964765000002,187.4375937916667,72.0,114.0
214,187.43536165,187.97107565,79.0,108.0
215,187.97107565,191.45098450833336,76.0,114.0
216,191.45321665,191.72107365,76.0,114.0
217,191.72107365,192.79250165000002,79.0,111.0
218,192.79250165000002,193.32821565,72.0,114.0
219,193.32821565,193.59384050833336,74.0,102.0
220,193.59607265,195.20321465,74.0,105.0
221,195.20321465,195.47107165,72.0,111.0
222,195.47107165,195.73892865,74.0,102.0
223,195.73892865,196.27464265000003,76.0,111.0
224,196.27464265000003,196.81035665000002,79.0,114.0
225,196.81035665000002,197.34607065,83.0,120.0
226,197.34607065,197.61392765,79.0,105.0
227,197.61392765,200.02240850833334,84.0,111.0
228,200.02464064999998,200.29249765000003,84.0,111.0
229,200.29249765000003,200.56035465000002,83.0,114.0
230,200.56035465000002,200.82597950833332,79.0,117.0
231,200.82821165000001,201.36392565,79.0,108.0
232,201.36392565,201.89963964999998,76.0,108.0
233,201.89963964999998,202.43535365000002,74.0,111.0
234,202.43535365000002,202.97106765,71.0,102.0
235,202.97106765,204.31035265000003,76.0,117.0
236,204.31035265000003,204.57820965000002,71.0,117.0
237,204.57820965000002,207.52463665,69.0,92.0
238,207.52463665,208.06035065000003,81.0,120.0
239,208.06035065000003,208.32820765000002,83.0,114.0
240,208.32820765000002,208.86392165,84.0,114.0
241,208.86392165,211.81034865000004,83.0,117.0
242,211.81034865000004,212.34606265000002,81.0,117.0
243,212.34606265000002,212.61391965,83.0,114.0
244,212.61391965,215.43757885833332,84.0,111.0
245,216.63177465,216.89963165,84.0,114.0
246,216.89963165,218.68534498333332,83.0,111.0
247,220.91748665,221.18534365,81.0,117.0
248,221.18534365,221.45320064999999,83.0,108.0
249,221.45320064999999,221.72105765000003,84.0,114.0
250,221.72105765000003,221.98891465000003,83.0,114.0
251,221.98891465000003,222.25677165000002,79.0,114.0
252,222.25677165000002,222.79248565,84.0,114.0
253,222.79248565,223.32819965,83.0,114.0
254,223.32819965,223.86391365000003,84.0,108.0
255,223.86391365000003,224.13177065000002,83.0,108.0
256,224.13177065000002,224.39962765,79.0,114.0
257,224.39962765,224.93534165,84.0,111.0
258,224.93534165,225.73891265000003,83.0,111.0
259,225.73891265000003,226.27462665000002,79.0,111.0
260,226.27462665000002,226.54248365,76.0,102.0
261,226.54248365,229.48891065000004,79.0,108.0
262,229.48891065000004,229.75453550833333,72.0,111.0
263,229.75676765000003,230.02462465000002,72.0,111.0
264,230.02462465000002,230.29248165,81.0,114.0
265,230.29248165,230.56033865,79.0,100.0
266,230.56033865,230.82819565,72.0,111.0
267,230.82819565,231.36390964999998,81.0,108.0
268,231.36390964999998,231.89962365000002,79.0,108.0
269,231.89962365000002,232.43533765,81.0,111.0
270,232.43533765,232.70319465,79.0,120.0
271,232.70319465,232.97105165,72.0,117.0
272,232.97105165,233.50676565000003,81.0,108.0
273,233.50676565000003,234.04247965000002,79.0,111.0
274,234.04247965000002,234.57819365,72.0,108.0
275,234.57819365,235.11390765,79.0,97.0
276,235.11390765,238.59381650833336,76.0,108.0
277,238.59604865,238.86390565,76.0,117.0
278,238.86390565,239.66747665000003,79.0,114.0
279,239.66747665000003,240.47104765,72.0,94.0
280,240.47104765,241.00452950833335,74.0,102.0
281,241.00676165,242.34604665,74.0,100.0
282,242.34604665,242.61390365,72.0,108.0
283,242.61390365,242.88176065,74.0,105.0
284,242.88176065,243.41747465000003,76.0,111.0
285,243.41747465000003,243.95318865000002,79.0,111.0
286,243.95318865000002,244.48890265,83.0,117.0
287,244.48890265,244.75675965,79.0,108.0
288,244.75675965,247.16524050833334,84.0,117.0
289,247.16747265000004,247.43532965000003,84.0,114.0
290,247.43532965000003,247.70318665000002,83.0,102.0
291,247.70318665000002,247.96881150833332,79.0,108.0
292,247.97104365,248.50675765,79.0,108.0
293,248.50675765,249.04247164999998,76.0,114.0
294,249.04247164999998,249.57818565000002,74.0,100.0
295,249.57818565000002,250.11389965,71.0,114.0
296,250.11389965,251.45318465000003,76.0,105.0
297,251.45318465000003,251.98889865,71.0,114.0
298,251.98889865,252.55139835,72.0,105.0
299,252.52461265,256.03353935,69.0,108.0
