,start,end,pitch,velocity
0,2.9196413,3.33481965,60.0,87.0
1,2.9196413,3.3370517916666667,55.0,87.0
2,3.4553553,3.6830337500000003,55.0,53.0
3,3.4553553,3.685265891666667,60.0,67.0
4,3.9910693,4.3124977,60.0,100.0
5,3.9910693,4.404015508333334,55.0,94.0
6,2.9196413,4.825890283333334,48.0,105.0
7,4.5267833,5.0089259,59.0,97.0
8,5.0624973,5.439729241666667,57.0,78.0
9,5.0624973,5.4508899500000005,60.0,92.0
10,5.5982113,5.82588975,60.0,66.0
11,5.5982113,5.8348183166666665,57.0,76.0
12,6.1339253000000005,6.4687465500000005,60.0,108.0
13,6.1339253000000005,6.499996533333333,57.0,108.0
14,5.0624973,6.9062463166666666,45.0,100.0
15,6.6696393,7.214281866666667,62.0,94.0
16,7.2053533000000005,7.493299575,57.0,87.0
17,7.2053533000000005,7.560263825,60.0,82.0
18,7.7410673,7.9598171833333335,57.0,52.0
19,7.7410673,7.975442175,53.0,50.0
20,7.7410673,8.002227875,60.0,84.0
21,8.2767813,8.66517395,57.0,105.0
22,8.2767813,8.671870375000001,53.0,97.0
23,8.2767813,8.674102516666666,60.0,100.0
24,8.8124953,9.314727175,53.0,97.0
25,8.8124953,9.323655741666666,57.0,102.0
26,8.8124953,9.337048591666667,60.0,97.0
27,7.2053533000000005,9.4017807,41.0,94.0
28,9.3482093,9.6964234,60.0,97.0
29,9.3482093,9.705351966666667,57.0,92.0
30,9.883923300000001,10.165173150000001,60.0,82.0
31,9.883923300000001,10.19195885,57.0,67.0
32,10.4196373,10.709815716666666,60.0,94.0
33,10.4196373,10.723208566666667,57.0,97.0
34,9.3482093,11.183029750000001,45.0,100.0
35,10.9553513,11.321422533333333,57.0,87.0
36,10.9553513,11.323654675,60.0,92.0
37,11.4910653,11.874993666666667,57.0,94.0
38,11.4910653,11.874993666666667,60.0,100.0
39,12.026779300000001,12.404011241666668,57.0,80.0
40,12.026779300000001,12.408475525,60.0,69.0
41,12.5624933,12.941957383333333,60.0,100.0
42,12.5624933,12.946421666666668,57.0,102.0
43,12.5624933,12.955350233333334,53.0,89.0
44,13.0982073,13.537939208333334,53.0,82.0
45,13.0982073,13.542403491666667,57.0,92.0
46,13.0982073,13.5535642,60.0,92.0
47,11.4910653,13.631689158333334,41.0,94.0
48,13.6339213,13.999992533333334,57.0,89.0
49,13.6339213,14.002224675,60.0,92.0
50,14.169635300000001,14.381688758333334,60.0,66.0
51,14.169635300000001,14.415170883333333,57.0,64.0
52,14.7053493,15.062491966666666,57.0,97.0
53,14.7053493,15.091509808333333,60.0,108.0
54,13.6339213,15.571420266666667,45.0,97.0
55,15.2410633,15.582580975,57.0,89.0
56,15.2410633,15.618295241666667,60.0,94.0
57,15.776777300000001,16.169634233333333,60.0,82.0
58,15.776777300000001,16.174098516666668,53.0,94.0
59,16.3124913,16.680794675,60.0,89.0
60,16.3124913,16.698651808333334,53.0,78.0
61,16.8482053,17.234365808333333,60.0,97.0
62,16.8482053,17.2499908,53.0,97.0
63,17.383919300000002,17.79909765,53.0,87.0
64,17.383919300000002,17.814722641666666,60.0,92.0
65,15.776777300000001,17.823651208333334,41.0,94.0
66,17.9196333,19.703114491666668,60.0,84.0
67,17.9196333,19.866060833333336,57.0,82.0
68,17.9196333,19.895078675,45.0,97.0
69,20.0624893,20.473203366666667,55.0,80.0
70,20.0624893,20.87945315,60.0,84.0
71,20.5982033,20.982131666666668,55.0,82.0
72,21.1339173,21.504452816666667,64.0,97.0
73,21.1339173,21.520077808333333,60.0,102.0
74,21.1339173,21.53123851666667,55.0,100.0
75,20.0624893,21.986595416666667,48.0,105.0
76,22.2053453,22.56695225,59.0,92.0
77,22.2053453,22.573648675,55.0,84.0
78,22.7410593,22.953112758333333,55.0,50.0
79,22.7410593,22.993291308333333,59.0,80.0
80,23.276773300000002,23.5982017,55.0,97.0
81,23.276773300000002,23.633915966666667,59.0,108.0
82,23.276773300000002,23.63838025,62.0,105.0
83,23.8124873,24.082576441666667,55.0,46.0
84,22.2053453,24.10713,43.0,102.0
85,23.8124873,24.180790675,59.0,53.0
86,24.3482013,24.69195111666667,60.0,89.0
87,24.3482013,24.718736816666667,57.0,44.0
88,24.8839153,25.113825891666668,60.0,76.0
89,24.8839153,25.187486566666667,57.0,71.0
90,25.4196293,25.703111291666666,64.0,97.0
91,25.4196293,25.743289841666666,60.0,92.0
92,25.4196293,25.749986266666667,57.0,89.0
93,25.9553433,26.285700266666666,60.0,69.0
94,25.9553433,26.29909311666667,57.0,66.0
95,25.4196293,26.352664516666668,52.0,87.0
96,24.3482013,26.377218075000002,45.0,92.0
97,26.4910573,26.848199966666666,57.0,76.0
98,26.4910573,26.85266425,60.0,73.0
99,27.0267713,27.430788941666666,60.0,57.0
100,27.0267713,27.448646075,57.0,53.0
101,27.562485300000002,27.92409225,60.0,100.0
102,27.562485300000002,27.957574375,57.0,97.0
103,27.562485300000002,28.080342166666668,64.0,105.0
104,27.562485300000002,28.16069926666667,52.0,48.0
105,26.4910573,28.21873495,45.0,89.0
106,28.0981993,28.587038325,62.0,80.0
107,28.6339133,29.069180925,55.0,87.0
108,28.6339133,29.0892702,60.0,94.0
109,29.169627300000002,29.34596649166667,60.0,58.0
110,29.169627300000002,29.3571272,55.0,51.0
111,29.7053413,30.008912566666666,55.0,102.0
112,29.7053413,30.011144708333333,64.0,105.0
113,30.2410553,30.457573041666667,60.0,87.0
114,30.2410553,30.580340833333334,55.0,80.0
115,28.6339133,30.741055033333335,48.0,89.0
116,30.7767693,31.111590550000003,59.0,84.0
117,30.7767693,31.133911966666666,55.0,78.0
118,31.3124833,31.546858175,62.0,67.0
119,31.3124833,31.558018883333336,59.0,58.0
120,31.848197300000002,32.26337565,59.0,105.0
121,31.848197300000002,32.267839933333335,62.0,102.0
122,31.848197300000002,32.28123278333334,55.0,97.0
123,32.3839113,32.64953615833333,55.0,64.0
124,32.3839113,32.680786141666665,59.0,66.0
125,30.7767693,32.76337538333333,43.0,94.0
126,32.3839113,32.810250358333334,62.0,78.0
127,32.9196253,33.296857241666665,60.0,76.0
128,32.9196253,33.30578580833333,57.0,78.0
129,33.4553393,33.7767677,60.0,76.0
130,33.4553393,33.821410533333335,57.0,69.0
131,33.991053300000004,34.28123171666667,64.0,92.0
132,33.991053300000004,34.332570975,60.0,94.0
133,33.991053300000004,34.35042810833333,57.0,87.0
134,34.5267673,34.924088516666664,57.0,57.0
135,34.5267673,34.924088516666664,60.0,66.0
136,32.9196253,34.9553385,45.0,92.0
137,33.991053300000004,34.9553385,52.0,49.0
138,35.0624813,35.482123933333334,60.0,78.0
139,35.0624813,35.484356075,57.0,73.0
140,35.5981953,36.01114150833333,57.0,69.0
141,35.5981953,36.0267665,60.0,73.0
142,36.1339093,36.47319483333334,57.0,97.0
143,36.1339093,36.517837666666665,60.0,108.0
144,36.1339093,36.591498341666664,64.0,108.0
145,36.6696233,36.73658755,60.0,52.0
146,35.0624813,37.04908738333334,45.0,89.0
147,36.6696233,37.05801595,57.0,108.0
148,37.205337300000004,37.537926408333334,57.0,94.0
149,37.205337300000004,37.54015855,60.0,92.0
150,37.7410513,38.04462256666667,60.0,71.0
151,37.7410513,38.06024755833334,57.0,67.0
152,38.2767653,38.629443683333335,53.0,100.0
153,38.2767653,38.629443683333335,57.0,111.0
154,38.2767653,38.629443683333335,60.0,102.0
155,37.205337300000004,38.68078294166667,41.0,102.0
156,38.8124793,39.024532758333336,57.0,73.0
157,38.8124793,39.04015775,53.0,80.0
158,38.8124793,39.11828270833333,60.0,84.0
159,39.3481933,39.6964074,55.0,87.0
160,39.3481933,39.754443083333335,60.0,97.0
161,39.883907300000004,40.18747856666667,55.0,69.0
162,39.883907300000004,40.207567841666666,60.0,58.0
163,40.4196213,40.84372821666667,55.0,94.0
164,40.4196213,40.85265678333334,60.0,102.0
165,39.3481933,41.296852975,48.0,105.0
166,40.9553353,41.3839065,55.0,92.0
167,40.9553353,41.390602925,60.0,102.0
168,41.4910493,41.845959825,55.0,87.0
169,41.4910493,41.8660491,60.0,94.0
170,42.0267633,42.3749774,55.0,53.0
171,42.0267633,42.377209541666666,60.0,71.0
172,42.562477300000005,42.953102091666665,60.0,111.0
173,42.562477300000005,42.95533423333333,55.0,105.0
174,43.0981913,43.40176256666667,55.0,80.0
175,41.4910493,43.437476833333335,43.0,100.0
176,43.0981913,43.51336965,60.0,67.0
177,43.6339053,43.99328010833334,57.0,84.0
178,43.6339053,44.044619366666666,60.0,92.0
179,44.1696193,44.5178334,60.0,87.0
180,44.1696193,44.54908338333333,57.0,71.0
181,44.7053333,45.080333100000004,60.0,105.0
182,44.7053333,45.145065208333335,64.0,108.0
183,44.7053333,45.234350875000004,52.0,89.0
184,43.6339053,45.33702939166667,45.0,100.0
185,45.2410473,45.468725750000004,62.0,69.0
186,45.2410473,45.486582883333334,57.0,62.0
187,45.776761300000004,46.064707575,57.0,87.0
188,45.776761300000004,46.10265398333333,60.0,87.0
189,46.3124753,46.43524309166667,53.0,24.0
190,46.3124753,46.573635875,57.0,67.0
191,46.3124753,46.587028725,60.0,67.0
192,46.8481893,47.209796250000004,57.0,105.0
193,46.8481893,47.209796250000004,60.0,97.0
194,46.8481893,47.22765338333333,53.0,100.0
195,45.776761300000004,47.42408185,41.0,97.0
196,47.3839033,47.62051031666667,53.0,82.0
197,47.3839033,47.66515315,60.0,92.0
198,47.3839033,47.678546000000004,57.0,94.0
199,47.9196173,48.285688533333335,55.0,87.0
200,47.9196173,48.285688533333335,60.0,89.0
201,48.455331300000005,48.834795383333336,55.0,71.0
202,48.455331300000005,48.84149180833334,60.0,69.0
203,48.9910453,49.3660451,55.0,87.0
204,48.9910453,49.370509383333335,59.0,102.0
205,49.5267593,49.85041984166667,55.0,89.0
206,47.9196173,49.868276975,43.0,100.0
207,49.5267593,49.93077694166667,59.0,89.0
208,48.9910453,49.93970550833333,50.0,73.0
209,50.0624733,50.43300881666667,57.0,89.0
210,50.0624733,50.457562375,60.0,97.0
211,50.5981873,50.90622285,60.0,66.0
212,50.5981873,50.95086568333333,57.0,55.0
213,51.133901300000005,51.43970470833334,57.0,100.0
214,51.133901300000005,51.45309755833333,60.0,111.0
215,51.133901300000005,51.499972533333334,64.0,105.0
216,50.0624733,52.026757966666665,45.0,100.0
217,51.669615300000004,52.037918675,57.0,73.0
218,51.669615300000004,52.098186500000004,62.0,66.0
219,52.2053293,54.20129304583334,45.0,97.0
220,52.2053293,54.20129304583334,57.0,89.0
221,52.2053293,54.2100649625,60.0,80.0
222,54.3153279625,54.721146716666674,55.0,80.0
223,54.3153279625,55.1273965,60.0,84.0
224,54.84614665,55.23007501666667,55.0,82.0
225,55.38186065000001,55.75239616666667,64.0,97.0
226,55.38186065000001,55.76802115833334,60.0,102.0
227,55.38186065000001,55.77918186666667,55.0,100.0
228,54.3153279625,56.234538766666674,48.0,105.0
229,56.453288650000005,56.81489560000001,59.0,92.0
230,56.453288650000005,56.821592025,55.0,84.0
231,56.98900265,57.20105610833334,55.0,50.0
232,56.98900265,57.24123465833334,59.0,80.0
233,57.52471665,57.846145050000004,55.0,97.0
234,57.52471665,57.88185931666667,59.0,108.0
235,57.52471665,57.886323600000004,62.0,105.0
236,58.06043065,58.330519791666674,55.0,46.0
237,56.453288650000005,58.355073350000005,43.0,102.0
238,58.06043065,58.428734025000004,59.0,53.0
239,58.59614465000001,58.93989446666667,60.0,89.0
240,58.59614465000001,58.96668016666667,57.0,44.0
241,59.131858650000005,59.36176924166667,60.0,76.0
242,59.131858650000005,59.43542991666667,57.0,71.0
243,59.667572650000004,59.95105464166667,64.0,97.0
244,59.667572650000004,59.99123319166667,60.0,92.0
245,59.667572650000004,59.99792961666667,57.0,89.0
246,60.20328665,60.53364361666667,60.0,69.0
247,60.20328665,60.54703646666667,57.0,66.0
248,59.667572650000004,60.60060786666667,52.0,87.0
249,58.59614465000001,60.625161425,45.0,92.0
250,60.73900065,61.09614331666667,57.0,76.0
251,60.73900065,61.100607600000004,60.0,73.0
252,61.27471465000001,61.67873229166667,60.0,57.0
253,61.27471465000001,61.696589425000006,57.0,53.0
254,61.810428650000006,62.1720356,60.0,100.0
255,61.810428650000006,62.20551772500001,57.0,97.0
256,61.810428650000006,62.32828551666667,64.0,105.0
257,61.810428650000006,62.40864261666667,52.0,48.0
258,60.73900065,62.466678300000005,45.0,89.0
259,62.346142650000004,62.83498167500001,62.0,80.0
260,62.88185665,63.317124275000005,55.0,87.0
261,62.88185665,63.33721355,60.0,94.0
262,63.41757065,63.59390984166667,60.0,58.0
263,63.41757065,63.60507055000001,55.0,51.0
264,63.95328465,64.25685591666667,55.0,102.0
265,63.95328465,64.25908805833333,64.0,105.0
266,64.48899865,64.70551639166668,60.0,87.0
267,64.48899865,64.82828418333334,55.0,80.0
268,62.88185665,64.98899838333334,48.0,89.0
269,65.02471265,65.3595339,59.0,84.0
270,65.02471265,65.38185531666667,55.0,78.0
271,65.56042665000001,65.794801525,62.0,67.0
272,65.56042665000001,65.80596223333333,59.0,58.0
273,66.09614065000001,66.511319,59.0,105.0
274,66.09614065000001,66.51578328333333,62.0,102.0
275,66.09614065000001,66.52917613333334,55.0,97.0
276,66.63185465000001,66.89747950833333,55.0,64.0
277,66.63185465000001,66.92872949166667,59.0,66.0
278,65.02471265,67.01131873333334,43.0,94.0
279,66.63185465000001,67.05819370833333,62.0,78.0
280,67.16756865,67.54480059166667,60.0,76.0
281,67.16756865,67.55372915833334,57.0,78.0
282,67.70328265,68.02471105000001,60.0,76.0
283,67.70328265,68.06935388333333,57.0,69.0
284,68.23899665,68.52917506666667,64.0,92.0
285,68.23899665,68.58051432500001,60.0,94.0
286,68.23899665,68.59837145833333,57.0,87.0
287,68.77471065,69.17203186666667,57.0,57.0
288,68.77471065,69.17203186666667,60.0,66.0
289,67.16756865,69.20328185000001,45.0,92.0
290,68.23899665,69.20328185000001,52.0,49.0
291,69.31042465,69.73006728333334,60.0,78.0
292,69.31042465,69.73229942500001,57.0,73.0
293,69.84613865,70.25908485833334,57.0,69.0
294,69.84613865,70.27470985000001,60.0,73.0
295,70.38185265,70.72113818333334,57.0,97.0
296,70.38185265,70.76578101666666,60.0,108.0
297,70.38185265,70.83944169166668,64.0,108.0
298,70.91756665,70.98453090000001,60.0,52.0
299,69.31042465,71.29703073333334,45.0,89.0
300,70.91756665,71.30595930000001,57.0,108.0
301,71.45328065000001,71.78586975833333,57.0,94.0
302,71.45328065000001,71.7881019,60.0,92.0
303,71.98899465000001,72.29256591666667,60.0,71.0
304,71.98899465000001,72.30819090833333,57.0,67.0
305,72.52470865000001,72.87738703333333,53.0,100.0
306,72.52470865000001,72.87738703333333,57.0,111.0
307,72.52470865000001,72.87738703333333,60.0,102.0
308,71.45328065000001,72.92872629166666,41.0,102.0
309,73.06042265,73.27247610833334,57.0,73.0
310,73.06042265,73.2881011,53.0,80.0
311,73.06042265,73.36622605833334,60.0,84.0
312,73.59613665,73.94435075000001,55.0,87.0
313,73.59613665,74.00238643333334,60.0,97.0
314,74.13185065,74.43542191666667,55.0,69.0
315,74.13185065,74.45551119166667,60.0,58.0
316,74.66756465,75.09167156666668,55.0,94.0
317,74.66756465,75.10060013333333,60.0,102.0
318,73.59613665,75.54479632500001,48.0,105.0
319,75.20327865,75.63184985000001,55.0,92.0
320,75.20327865,75.63854627500001,60.0,102.0
321,75.73899265,76.09390317500001,55.0,87.0
322,75.73899265,76.11399245000001,60.0,94.0
323,76.27470665000001,76.62292075,55.0,53.0
324,76.27470665000001,76.62515289166667,60.0,71.0
325,76.81042065,77.20104544166668,60.0,111.0
326,76.81042065,77.20327758333335,55.0,105.0
327,77.34613465000001,77.64970591666668,55.0,80.0
328,75.73899265,77.68542018333333,43.0,100.0
329,77.34613465000001,77.761313,60.0,67.0
330,77.88184865000001,78.24122345833334,57.0,84.0
331,77.88184865000001,78.29256271666668,60.0,92.0
332,78.41756265000001,78.76577675,60.0,87.0
333,78.41756265000001,78.79702673333334,57.0,71.0
334,78.95327665,79.32827645,60.0,105.0
335,78.95327665,79.39300855833334,64.0,108.0
336,78.95327665,79.482294225,52.0,89.0
337,77.88184865000001,79.58497274166668,45.0,100.0
338,79.48899065,79.7166691,62.0,69.0
339,79.48899065,79.73452623333334,57.0,62.0
340,80.02470465,80.312650925,57.0,87.0
341,80.02470465,80.35059733333334,60.0,87.0
342,80.56041865,80.68318644166666,53.0,24.0
343,80.56041865,80.82157922500001,57.0,67.0
344,80.56041865,80.83497207500001,60.0,67.0
345,81.09613265,81.4577396,57.0,105.0
346,81.09613265,81.4577396,60.0,97.0
347,81.09613265,81.47559673333333,53.0,100.0
348,80.02470465,81.67202520000001,41.0,97.0
349,81.63184665,81.86845366666667,53.0,82.0
350,81.63184665,81.91309650000001,60.0,92.0
351,81.63184665,81.92648935,57.0,94.0
352,82.16756065000001,82.53363188333334,55.0,87.0
353,82.16756065000001,82.53363188333334,60.0,89.0
354,82.70327465,83.08273873333334,55.0,71.0
355,82.70327465,83.08943515833334,60.0,69.0
356,83.23898865000001,83.61398845000001,55.0,87.0
357,83.23898865000001,83.61845273333334,59.0,102.0
358,83.77470265000001,84.09836319166666,55.0,89.0
359,82.16756065000001,84.116220325,43.0,100.0
360,83.77470265000001,84.17872029166668,59.0,89.0
361,83.23898865000001,84.18764885833335,50.0,73.0
362,84.31041665000001,84.68095216666667,57.0,89.0
363,84.31041665000001,84.70550572500001,60.0,97.0
364,84.84613065,85.1541662,60.0,66.0
365,84.84613065,85.19880903333333,57.0,55.0
366,85.38184465,85.68764805833334,57.0,100.0
367,85.38184465,85.70104090833334,60.0,111.0
368,85.38184465,85.74791588333333,64.0,105.0
369,84.31041665000001,86.27470131666666,45.0,100.0
370,85.91755865,86.285862025,57.0,73.0
371,85.91755865,86.34612985000001,62.0,66.0
372,86.45327265,86.75684391666667,55.0,97.0
373,86.45327265,86.80371889166668,62.0,84.0
374,87.25684365000001,87.36398645,67.0,60.0
375,87.25684365000001,87.3773793,59.0,67.0
376,86.98898665000002,87.65639700833333,50.0,45.0
377,87.52470065,87.80371835833334,59.0,108.0
378,87.52470065,87.839432625,67.0,111.0
379,86.45327265,88.25907525833334,43.0,102.0
380,87.79255765,88.26353954166667,50.0,71.0
381,88.06041465000001,88.27916453333333,59.0,94.0
382,88.06041465000001,88.29925380833333,62.0,111.0
383,88.59612865,88.8773785,57.0,97.0
384,88.59612865,89.27023543333334,60.0,97.0
385,89.13184265000001,89.57827098333334,57.0,66.0
386,88.59612865,89.73675304166667,41.0,100.0
387,89.66755665000001,90.38407412500001,65.0,102.0
388,89.66755665000001,90.43318124166667,60.0,105.0
389,90.20327065000001,90.81710960833334,57.0,87.0
390,90.73898465,91.28585935833334,60.0,102.0
391,90.73898465,91.3416629,65.0,102.0
392,91.27469865,91.39746644166667,57.0,89.0
393,91.81041265,92.02246610833333,60.0,97.0
394,91.81041265,92.339430225,53.0,108.0
395,91.81041265,92.37737663333334,65.0,97.0
396,91.81041265,92.38184091666668,69.0,97.0
397,92.34612665,92.53139440833334,60.0,100.0
398,92.88184065000002,93.54925100833333,64.0,97.0
399,92.88184065000002,93.73451876666667,60.0,102.0
400,93.95326865000001,94.26130420000001,67.0,108.0
401,93.95326865000001,94.26800062500001,64.0,108.0
402,93.95326865000001,94.2880899,60.0,102.0
403,92.88184065000002,94.95550025833333,48.0,102.0
404,93.41755465,95.04032164166668,55.0,71.0
405,95.02469665000001,95.64746417500001,72.0,100.0
406,95.02469665000001,95.64969631666668,64.0,105.0
407,95.02469665000001,95.69210700833334,67.0,102.0
408,94.48898265,95.81710694166668,60.0,87.0
409,95.56041065000001,96.30594596666667,55.0,44.0
410,96.09612465000001,96.397463775,60.0,105.0
411,96.09612465000001,96.62291008333334,67.0,114.0
412,96.09612465000001,96.625142225,64.0,117.0
413,95.02469665000001,96.65416006666666,48.0,92.0
414,96.63183865,96.75683858333335,60.0,108.0
415,97.16755265,97.50237390000001,57.0,94.0
416,97.16755265,98.017998625,60.0,105.0
417,97.70326665,98.10951643333334,57.0,69.0
418,98.23898065,98.46442695833335,57.0,102.0
419,98.23898065,98.794783925,60.0,108.0
420,97.16755265,98.80594463333334,41.0,100.0
421,98.77469465000001,98.9488017,57.0,94.0
422,98.23898065,99.102819475,65.0,94.0
423,99.31040865,99.98451543333334,62.0,87.0
424,99.31040865,99.99567614166668,59.0,89.0
425,99.31040865,100.1005868,55.0,84.0
426,100.38183665,100.656390075,55.0,108.0
427,99.84612265000001,100.76130073333334,50.0,60.0
428,99.31040865,100.79031857500001,43.0,102.0
429,100.38183665,100.95549705833334,59.0,120.0
430,100.38183665,100.96219348333334,62.0,111.0
431,100.91755065000001,101.09835412500001,55.0,108.0
432,101.45326465000001,102.11174644166667,60.0,92.0
433,101.45326465000001,102.357282025,57.0,102.0
434,101.98897865,102.672014,52.0,58.0
435,102.52469265,102.68540685,60.0,114.0
436,102.52469265,102.73451396666667,64.0,108.0
437,101.45326465000001,103.43317430833335,45.0,100.0
438,103.06040665,103.44433501666667,52.0,60.0
439,103.32826365,103.48451356666666,64.0,78.0
440,103.59612065,104.21665603333334,64.0,108.0
441,103.59612065,104.39745950833334,72.0,105.0
442,104.39969165000001,104.540316575,64.0,84.0
443,104.13183465,104.75683431666667,52.0,64.0
444,104.66754865000001,105.05370915833333,64.0,114.0
445,104.66754865000001,105.12290555000001,71.0,114.0
446,104.93540565,105.51353034166667,52.0,73.0
447,103.59612065,105.59611958333335,45.0,92.0
448,105.20326265,105.60951243333334,69.0,89.0
449,105.73897665000001,106.16754785,65.0,97.0
450,105.73897665000001,106.267994225,69.0,108.0
451,106.27469065,106.66977972500001,65.0,33.0
452,106.81040465000001,107.05594023333333,65.0,102.0
453,105.73897665000001,107.218886575,41.0,100.0
454,106.81040465000001,107.36844006666666,69.0,111.0
455,107.88183265,108.48004661666667,67.0,100.0
456,107.88183265,108.51352874166668,62.0,84.0
457,108.95326065,109.15415340000001,62.0,97.0
458,108.41754665,109.20772480000001,50.0,62.0
459,107.88183265,109.29701046666668,43.0,100.0
460,108.95326065,109.415313975,67.0,117.0
461,108.95326065,109.52468891666666,71.0,108.0
462,109.48897465,109.59388530833334,62.0,80.0
463,110.02468865,110.34611705,60.0,102.0
464,110.02468865,110.55147408333335,64.0,111.0
465,110.02468865,110.64522403333334,72.0,100.0
466,110.02468865,110.90638460833334,48.0,105.0
467,111.09611665,111.51575928333334,71.0,97.0
468,111.09611665,111.558169975,59.0,102.0
469,111.09611665,111.64075921666668,47.0,105.0
470,112.16754465,112.82602644166667,60.0,100.0
471,112.16754465,112.85727642500001,64.0,94.0
472,112.16754465,113.02468705000001,57.0,97.0
473,112.70325865000001,113.37066900833334,52.0,60.0
474,113.23897265000001,113.56486533333333,60.0,120.0
475,113.23897265000001,113.5737939,57.0,117.0
476,113.23897265000001,113.6005796,64.0,111.0
477,112.16754465,113.66531170833335,45.0,100.0
478,113.50682965000001,113.74343666666667,52.0,67.0
479,113.77468665,113.97334725833335,45.0,89.0
480,114.31040065,115.267989425,60.0,89.0
481,114.31040065,115.27691799166666,57.0,80.0
482,114.31040065,115.281382275,65.0,94.0
483,115.38182865,115.64522136666668,57.0,105.0
484,115.38182865,116.004596175,60.0,108.0
485,115.91754265,116.178703225,57.0,78.0
486,114.31040065,116.30816744166668,41.0,105.0
487,115.38182865,116.352810275,65.0,105.0
488,116.45325665000001,117.23673837500002,62.0,82.0
489,116.45325665000001,117.25459550833334,59.0,92.0
490,116.45325665000001,117.30816690833333,55.0,82.0
491,116.45325665000001,117.75682738333333,43.0,102.0
492,116.98897065,117.7791488,50.0,53.0
493,117.52468465000001,117.95102370833334,59.0,111.0
494,117.52468465000001,117.95325585,62.0,100.0
495,117.52468465000001,117.95548799166667,55.0,97.0
496,118.06039865,118.42646988333334,43.0,100.0
497,118.59611265000001,119.30370155833334,60.0,84.0
498,118.59611265000001,119.48450503333333,57.0,82.0
499,119.13182665000001,119.955486925,52.0,44.0
500,119.66754065,120.15637967500001,64.0,100.0
501,119.66754065,120.21441535833334,60.0,111.0
502,118.59611265000001,120.558165175,45.0,100.0
503,120.20325465,120.61396871666668,52.0,62.0
504,120.73896865,121.40861115000001,60.0,73.0
505,120.73896865,121.67870029166667,57.0,62.0
506,121.81039665,122.08495007500001,57.0,92.0
507,121.81039665,122.39968205000001,60.0,108.0
508,121.81039665,122.40191419166668,64.0,102.0
509,122.07825365000001,122.48227129166668,52.0,49.0
510,120.73896865,122.62736050000001,45.0,87.0
511,122.34611065,122.6809319,57.0,89.0
512,122.88182465000001,123.21441375833334,55.0,87.0
513,122.88182465000001,123.50682431666667,60.0,89.0
514,123.41753865000001,124.06485973333334,55.0,50.0
515,123.95325265000001,124.48896665000001,64.0,102.0
516,123.95325265000001,124.59387730833333,60.0,100.0
517,124.48896665000001,124.80593076666668,55.0,42.0
518,125.02468065000001,125.38405545833334,55.0,62.0
519,125.02468065000001,125.69209100833334,60.0,58.0
520,125.56039465,125.834948075,55.0,55.0
521,126.09610865,126.58048339166668,64.0,102.0
522,122.88182465000001,126.67200120000001,48.0,97.0
523,126.09610865,126.73003688333334,55.0,105.0
524,126.63182265,126.75459044166668,60.0,84.0
525,127.16753665,127.85280414166667,57.0,67.0
526,127.16753665,128.18316110833334,53.0,73.0
527,128.23896465,128.3327146,57.0,100.0
528,128.23896465,128.36842886666668,60.0,76.0
529,129.31039265,129.81039238333335,65.0,97.0
530,129.31039265,129.89521376666667,60.0,92.0
531,129.84610665000002,130.19432075,57.0,84.0
532,127.70325065,130.49789201666667,48.0,26.0
533,130.38182065,130.7657490166667,60.0,89.0
534,130.38182065,130.803695425,57.0,94.0
535,130.38182065,130.94432035,65.0,82.0
536,127.16753665,131.04923100833332,41.0,92.0
537,130.91753465,131.04923100833332,64.0,102.0
538,131.45324865,132.12289115,59.0,92.0
539,131.45324865,132.29253391666668,55.0,76.0
540,131.98896265000002,132.7523551,50.0,49.0
541,132.52467665,132.80369435833336,62.0,92.0
542,132.52467665,133.64744390833334,55.0,102.0
543,133.06039065,133.92199733333334,59.0,97.0
544,134.13181865,134.50681845000003,55.0,53.0
545,134.66753265,134.91530037500002,55.0,97.0
546,133.59610465,135.18762165833334,67.0,97.0
547,134.66753265,135.39297869166666,62.0,89.0
548,135.20324665,135.39521083333335,55.0,105.0
549,131.45324865,135.44878223333336,43.0,102.0
550,134.66753265,135.638514275,50.0,69.0
551,135.73896065000002,136.02244264166666,57.0,92.0
552,136.27467465,136.89074575,57.0,73.0
553,135.73896065000002,137.0112814,60.0,89.0
554,136.81038865,137.45770973333333,65.0,105.0
555,137.34610265,137.5202097,60.0,15.0
556,135.73896065000002,137.61619179166667,41.0,94.0
557,137.34610265,137.69431675,57.0,69.0
558,137.88181665000002,138.80145901666668,57.0,92.0
559,137.88181665000002,138.80369115833332,60.0,82.0
560,137.88181665000002,139.62958357500003,41.0,94.0
561,138.95324465,139.89074415,60.0,84.0
562,138.95324465,139.9063691416667,65.0,89.0
563,140.02467265,140.43538671666667,55.0,80.0
564,140.02467265,140.8416365,60.0,84.0
565,140.56038665,140.94431501666668,55.0,82.0
566,141.09610065,141.46663616666666,64.0,97.0
567,141.09610065,141.48226115833336,60.0,102.0
568,141.09610065,141.49342186666667,55.0,100.0
569,140.02467265,141.9487787666667,48.0,105.0
570,142.16752865,142.52913560000002,59.0,92.0
571,142.16752865,142.535832025,55.0,84.0
572,142.70324265,142.91529610833334,55.0,50.0
573,142.70324265,142.95547465833334,59.0,80.0
574,143.23895665,143.56038505,55.0,97.0
575,143.23895665,143.59609931666665,59.0,108.0
576,143.23895665,143.6005636,62.0,105.0
577,143.77467065000002,144.04475979166668,55.0,46.0
578,142.16752865,144.06931335000002,43.0,102.0
579,143.77467065000002,144.142974025,59.0,53.0
580,144.31038465,144.65413446666668,60.0,89.0
581,144.31038465,144.68092016666668,57.0,44.0
582,144.84609865,145.07600924166667,60.0,76.0
583,144.84609865,145.14966991666665,57.0,71.0
584,145.38181265,145.66529464166666,64.0,97.0
585,145.38181265,145.70547319166667,60.0,92.0
586,145.38181265,145.71216961666667,57.0,89.0
587,145.91752665,146.24788361666668,60.0,69.0
588,145.91752665,146.2612764666667,57.0,66.0
589,145.38181265,146.31484786666667,52.0,87.0
590,144.31038465,146.339401425,45.0,92.0
591,146.45324065,146.81038331666667,57.0,76.0
592,146.45324065,146.8148476,60.0,73.0
593,146.98895465,147.3929722916667,60.0,57.0
594,146.98895465,147.410829425,57.0,53.0
595,147.52466865000002,147.8862756,60.0,100.0
596,147.52466865000002,147.919757725,57.0,97.0
597,147.52466865000002,148.04252551666667,64.0,105.0
598,147.52466865000002,148.1228826166667,52.0,48.0
599,146.45324065,148.1809183,45.0,89.0
600,148.06038265,148.549221675,62.0,80.0
601,148.59609665,149.031364275,55.0,87.0
602,148.59609665,149.05145355000002,60.0,94.0
603,149.13181065,149.30814984166668,60.0,58.0
604,149.13181065,149.31931055,55.0,51.0
605,149.66752465000002,149.97109591666668,55.0,102.0
606,149.66752465000002,149.97332805833332,64.0,105.0
607,150.20323865,150.41975639166668,60.0,87.0
608,150.20323865,150.54252418333334,55.0,80.0
609,148.59609665,150.70323838333334,48.0,89.0
610,150.73895265,151.0737739,59.0,84.0
611,150.73895265,151.09609531666666,55.0,78.0
612,151.27466665,151.509041525,62.0,67.0
613,151.27466665,151.52020223333335,59.0,58.0
614,151.81038065,152.225559,59.0,105.0
615,151.81038065,152.23002328333334,62.0,102.0
616,151.81038065,152.24341613333334,55.0,97.0
617,152.34609465,152.61171950833335,55.0,64.0
618,152.34609465,152.6429694916667,59.0,66.0
619,150.73895265,152.72555873333334,43.0,94.0
620,152.34609465,152.77243370833332,62.0,78.0
621,152.88180865,153.2590405916667,60.0,76.0
622,152.88180865,153.26796915833336,57.0,78.0
623,153.41752265000002,153.73895105000003,60.0,76.0
624,153.41752265000002,153.78359388333334,57.0,69.0
625,153.95323665,154.24341506666667,64.0,92.0
626,153.95323665,154.294754325,60.0,94.0
627,153.95323665,154.31261145833332,57.0,87.0
628,154.48895065,154.88627186666668,57.0,57.0
629,154.48895065,154.88627186666668,60.0,66.0
630,152.88180865,154.91752185,45.0,92.0
631,153.95323665,154.91752185,52.0,49.0
632,155.02466465,155.44430728333333,60.0,78.0
633,155.02466465,155.44653942500003,57.0,73.0
634,155.56037865000002,155.97332485833334,57.0,69.0
635,155.56037865000002,155.98894985,60.0,73.0
636,156.09609265,156.43537818333334,57.0,97.0
637,156.09609265,156.48002101666668,60.0,108.0
638,156.09609265,156.55368169166667,64.0,108.0
639,156.63180665,156.6987709,60.0,52.0
640,155.02466465,157.01127073333333,45.0,89.0
641,156.63180665,157.0201993,57.0,108.0
642,157.16752065000003,157.50010975833334,57.0,94.0
643,157.16752065000003,157.5023419,60.0,92.0
644,157.70323465,158.00680591666668,60.0,71.0
645,157.70323465,158.02243090833332,57.0,67.0
646,158.23894865,158.59162703333334,53.0,100.0
647,158.23894865,158.59162703333334,57.0,111.0
648,158.23894865,158.59162703333334,60.0,102.0
649,157.16752065000003,158.64296629166665,41.0,102.0
650,158.77466265,158.98671610833333,57.0,73.0
651,158.77466265,159.00234110000002,53.0,80.0
652,158.77466265,159.08046605833334,60.0,84.0
653,159.31037665000002,159.65859075,55.0,87.0
654,159.31037665000002,159.71662643333335,60.0,97.0
655,159.84609065,160.14966191666667,55.0,69.0
656,159.84609065,160.16975119166668,60.0,58.0
657,160.38180465,160.80591156666668,55.0,94.0
658,160.38180465,160.81484013333335,60.0,102.0
659,159.31037665000002,161.259036325,48.0,105.0
660,160.91751865,161.34608985,55.0,92.0
661,160.91751865,161.35278627500003,60.0,102.0
662,161.45323265000002,161.808143175,55.0,87.0
663,161.45323265000002,161.82823245,60.0,94.0
664,161.98894665,162.33716075,55.0,53.0
665,161.98894665,162.33939289166668,60.0,71.0
666,162.52466065,162.91528544166667,60.0,111.0
667,162.52466065,162.91751758333334,55.0,105.0
668,163.06037465000003,163.3639459166667,55.0,80.0
669,161.45323265000002,163.39966018333334,43.0,100.0
670,163.06037465000003,163.475553,60.0,67.0
671,163.59608865,163.95546345833333,57.0,84.0
672,163.59608865,164.00680271666667,60.0,92.0
673,164.13180265,164.48001675,60.0,87.0
674,164.13180265,164.51126673333334,57.0,71.0
675,164.66751665,165.04251645,60.0,105.0
676,164.66751665,165.10724855833334,64.0,108.0
677,164.66751665,165.196534225,52.0,89.0
678,163.59608865,165.29921274166668,45.0,100.0
679,165.20323065000002,165.4309091,62.0,69.0
680,165.20323065000002,165.44876623333334,57.0,62.0
681,165.73894465,166.026890925,57.0,87.0
682,165.73894465,166.06483733333334,60.0,87.0
683,166.27465865,166.39742644166668,53.0,24.0
684,166.27465865,166.535819225,57.0,67.0
685,166.27465865,166.549212075,60.0,67.0
686,166.81037265,167.17197960000001,57.0,105.0
687,166.81037265,167.17197960000001,60.0,97.0
688,166.81037265,167.18983673333332,53.0,100.0
689,165.73894465,167.38626520000003,41.0,97.0
690,167.34608665000002,167.58269366666667,53.0,82.0
691,167.34608665000002,167.6273365,60.0,92.0
692,167.34608665000002,167.64072935000002,57.0,94.0
693,167.88180065,168.24787188333335,55.0,87.0
694,167.88180065,168.24787188333335,60.0,89.0
695,168.41751465,168.79697873333333,55.0,71.0
696,168.41751465,168.80367515833333,60.0,69.0
697,168.95322865000003,169.32822845,55.0,87.0
698,168.95322865000003,169.33269273333335,59.0,102.0
699,169.48894265,169.81260319166665,55.0,89.0
700,167.88180065,169.830460325,43.0,100.0
701,169.48894265,169.89296029166667,59.0,89.0
702,168.95322865000003,169.90188885833334,50.0,73.0
703,170.02465665,170.39519216666667,57.0,89.0
704,170.02465665,170.419745725,60.0,97.0
705,170.56037065,170.8684062,60.0,66.0
706,170.56037065,170.91304903333332,57.0,55.0
707,171.09608465000002,171.40188805833333,57.0,100.0
708,171.09608465000002,171.41528090833333,60.0,111.0
709,171.09608465000002,171.46215588333334,64.0,105.0
710,170.02465665,171.98894131666668,45.0,100.0
711,171.63179865,172.000102025,57.0,73.0
712,171.63179865,172.06036985,62.0,66.0
713,172.16751265,172.47108391666666,55.0,97.0
714,172.16751265,172.5179588916667,62.0,84.0
715,172.97108365000003,173.07822645,67.0,60.0
716,172.97108365000003,173.0916193,59.0,67.0
717,172.70322665,173.37063700833335,50.0,45.0
718,173.23894065000002,173.51795835833335,59.0,108.0
719,173.23894065000002,173.553672625,67.0,111.0
720,172.16751265,173.97331525833334,43.0,102.0
721,173.50679765,173.97777954166668,50.0,71.0
722,173.77465465,173.99340453333335,59.0,94.0
723,173.77465465,174.01349380833335,62.0,111.0
724,174.31036865,174.5916185,57.0,97.0
725,174.31036865,174.98447543333333,60.0,97.0
726,174.84608265000003,175.29251098333333,57.0,66.0
727,174.31036865,175.45099304166666,41.0,100.0
728,175.38179665,176.098314125,65.0,102.0
729,175.38179665,176.14742124166668,60.0,105.0
730,175.91751065,176.53134960833336,57.0,87.0
731,176.45322465,177.00009935833333,60.0,102.0
732,176.45322465,177.0559029,65.0,102.0
733,176.98893865000002,177.11170644166668,57.0,89.0
734,177.52465265,177.73670610833335,60.0,97.0
735,177.52465265,178.05367022500002,53.0,108.0
736,177.52465265,178.09161663333333,65.0,97.0
737,177.52465265,178.09608091666666,69.0,97.0
738,178.06036665,178.24563440833333,60.0,100.0
739,178.59608065,179.26349100833335,64.0,97.0
740,178.59608065,179.44875876666669,60.0,102.0
741,179.66750865,179.9755442,67.0,108.0
742,179.66750865,179.982240625,64.0,108.0
743,179.66750865,180.0023299,60.0,102.0
744,178.59608065,180.66974025833332,48.0,102.0
745,179.13179465000002,180.75456164166667,55.0,71.0
746,180.73893665000003,181.361704175,72.0,100.0
747,180.73893665000003,181.3639363166667,64.0,105.0
748,180.73893665000003,181.40634700833334,67.0,102.0
749,180.20322265000001,181.53134694166667,60.0,87.0
750,181.27465065,182.02018596666667,55.0,44.0
751,181.81036465,182.11170377500002,60.0,105.0
752,181.81036465,182.33715008333334,67.0,114.0
753,181.81036465,182.339382225,64.0,117.0
754,180.73893665000003,182.36840006666668,48.0,92.0
755,182.34607865,182.47107858333334,60.0,108.0
756,182.88179265000002,183.21661390000003,57.0,94.0
757,182.88179265000002,183.73223862500004,60.0,105.0
758,183.41750665,183.82375643333336,57.0,69.0
759,183.95322065,184.17866695833334,57.0,102.0
760,183.95322065,184.509023925,60.0,108.0
761,182.88179265000002,184.52018463333332,41.0,100.0
762,184.48893465000003,184.6630417,57.0,94.0
763,183.95322065,184.817059475,65.0,94.0
764,185.02464865000002,185.69875543333336,62.0,87.0
765,185.02464865000002,185.70991614166667,59.0,89.0
766,185.02464865000002,185.8148268,55.0,84.0
767,186.09607665,186.370630075,55.0,108.0
768,185.56036265,186.47554073333333,50.0,60.0
769,185.02464865000002,186.50455857500003,43.0,102.0
770,186.09607665,186.66973705833334,59.0,120.0
771,186.09607665,186.67643348333337,62.0,111.0
772,186.63179065000003,186.81259412500003,55.0,108.0
773,187.16750465,187.82598644166666,60.0,92.0
774,187.16750465,188.07152202500004,57.0,102.0
775,187.70321865,188.386254,52.0,58.0
776,188.23893264999998,188.39964685,60.0,114.0
777,188.23893264999998,188.4487539666667,64.0,108.0
778,187.16750465,189.14741430833334,45.0,100.0
779,188.77464665000002,189.1585750166667,52.0,60.0
780,189.04250365000001,189.19875356666665,64.0,78.0
781,189.31036065,189.93089603333334,64.0,108.0
782,189.31036065,190.11169950833334,72.0,105.0
783,190.11393164999998,190.25455657499998,64.0,84.0
784,189.84607465,190.47107431666666,52.0,64.0
785,190.38178865000003,190.76794915833335,64.0,114.0
786,190.38178865000003,190.83714555,71.0,114.0
787,190.64964565000002,191.22777034166666,52.0,73.0
788,189.31036065,191.31035958333337,45.0,92.0
789,190.91750265000002,191.32375243333337,69.0,89.0
790,191.45321665,191.88178785000002,65.0,97.0
791,191.45321665,191.982234225,69.0,108.0
792,191.98893065,192.38401972500003,65.0,33.0
793,192.52464465000003,192.77018023333335,65.0,102.0
794,191.45321665,192.93312657500002,41.0,100.0
795,192.52464465000003,193.08268006666668,69.0,111.0
796,193.59607265,194.19428661666666,67.0,100.0
797,193.59607265,194.2277687416667,62.0,84.0
798,194.66750065000002,194.8683934,62.0,97.0
799,194.13178664999998,194.9219648,50.0,62.0
800,193.59607265,195.0112504666667,43.0,100.0
801,194.66750065000002,195.12955397500002,67.0,117.0
802,194.66750065000002,195.23892891666668,71.0,108.0
803,195.20321465,195.30812530833333,62.0,80.0
804,195.73892865,196.06035705,60.0,102.0
805,195.73892865,196.26571408333336,64.0,111.0
806,195.73892865,196.35946403333332,72.0,100.0
807,195.73892865,196.62062460833334,48.0,105.0
808,196.81035665000002,197.2299992833333,71.0,97.0
809,196.81035665000002,197.27240997500002,59.0,102.0
810,196.81035665000002,197.35499921666667,47.0,105.0
811,197.88178465,198.5402664416667,60.0,100.0
812,197.88178465,198.57151642500003,64.0,94.0
813,197.88178465,198.73892705000003,57.0,97.0
814,198.41749865000003,199.08490900833334,52.0,60.0
815,198.95321265,199.27910533333335,60.0,120.0
816,198.95321265,199.28803390000002,57.0,117.0
817,198.95321265,199.31481960000002,64.0,111.0
818,197.88178465,199.37955170833334,45.0,100.0
819,199.22106965,199.45767666666666,52.0,67.0
820,199.48892665,199.68758725833334,45.0,89.0
821,200.02464064999998,200.982229425,60.0,89.0
822,200.02464064999998,200.99115799166668,57.0,80.0
823,200.02464064999998,200.99562227500002,65.0,94.0
824,201.09606865,201.35946136666666,57.0,105.0
825,201.09606865,201.71883617500004,60.0,108.0
826,201.63178265,201.892943225,57.0,78.0
827,200.02464064999998,202.0224074416667,41.0,105.0
828,201.09606865,202.06705027499999,65.0,105.0
829,202.16749665000003,202.95097837500003,62.0,82.0
830,202.16749665000003,202.96883550833337,59.0,92.0
831,202.16749665000003,203.02240690833332,55.0,82.0
832,202.16749665000003,203.47106738333332,43.0,102.0
833,202.70321065000002,203.4933888,50.0,53.0
834,203.23892465,203.66526370833333,59.0,111.0
835,203.23892465,203.66749585000002,62.0,100.0
836,203.23892465,203.66972799166666,55.0,97.0
837,203.77463864999999,204.14070988333333,43.0,100.0
838,204.31035265000003,205.01794155833335,60.0,84.0
839,204.31035265000003,205.19874503333335,57.0,82.0
840,204.84606665,205.66972692500002,52.0,44.0
841,205.38178065,205.870619675,64.0,100.0
842,205.38178065,205.92865535833334,60.0,111.0
843,204.31035265000003,206.27240517500002,45.0,100.0
844,205.91749464999998,206.32820871666667,52.0,62.0
845,206.45320865000002,207.12285115000003,60.0,73.0
846,206.45320865000002,207.39294029166666,57.0,62.0
847,207.52463665,207.799190075,57.0,92.0
848,207.52463665,208.11392204999999,60.0,108.0
849,207.52463665,208.11615419166668,64.0,102.0
850,207.79249364999998,208.1965112916667,52.0,49.0
851,206.45320865000002,208.34160050000003,45.0,87.0
852,208.06035065000003,208.39517190000004,57.0,89.0
853,208.59606465000002,208.94651089166666,62.0,92.0
854,208.59606465000002,208.95543945833333,67.0,100.0
855,209.13177865,209.34383210833334,67.0,84.0
856,209.13177865,209.35722495833335,62.0,69.0
857,209.66749264999999,209.99784961666666,71.0,114.0
858,209.66749264999999,210.04249245,67.0,108.0
859,209.66749264999999,210.05142101666667,62.0,97.0
860,208.59606465000002,210.62954570833335,43.0,102.0
861,210.20320665000003,210.63847427500002,67.0,69.0
862,210.20320665000003,210.6474028416667,62.0,60.0
863,210.73892065,211.08936689166666,67.0,100.0
864,210.73892065,211.09829545833333,62.0,84.0
865,211.27463465,211.68758085833332,67.0,108.0
866,211.27463465,211.70097370833332,62.0,100.0
867,211.81034865000004,212.14963418333332,71.0,105.0
868,211.81034865000004,212.15856275,67.0,108.0
869,211.81034865000004,212.16972345833335,62.0,100.0
870,212.34606265000002,212.52909826666667,62.0,97.0
871,212.34606265000002,212.53133040833336,67.0,100.0
872,210.73892065,212.55365182500003,43.0,105.0
873,212.34606265000002,212.61838393333335,71.0,97.0
874,211.81034865000004,212.64293749166666,50.0,69.0
875,212.88177665,213.23891931666668,69.0,100.0
876,212.88177665,213.24784788333335,64.0,97.0
877,213.41749065,213.6005262666667,64.0,62.0
878,213.41749065,213.60722269166666,69.0,64.0
879,213.41749065,213.60945483333336,72.0,80.0
880,213.95320465000003,214.174186675,72.0,111.0
881,213.95320465000003,214.18981166666669,64.0,108.0
882,213.95320465000003,214.19204380833332,69.0,111.0
883,214.48891865000002,214.58266860000003,64.0,94.0
884,214.48891865000002,214.62061500833335,69.0,105.0
885,214.48891865000002,214.64516856666665,72.0,92.0
886,214.75677565,214.80811490833332,69.0,50.0
887,212.88177665,214.83936489166666,45.0,100.0
888,214.75677565,214.90409700000004,64.0,89.0
889,215.02463265,215.39293602499998,72.0,94.0
890,215.02463265,215.39516816666668,69.0,100.0
891,215.02463265,215.40856101666668,64.0,94.0
892,215.56034664999999,215.64740017500003,64.0,82.0
893,215.56034664999999,215.71882870833332,72.0,87.0
894,215.56034664999999,215.72329299166665,69.0,92.0
895,215.82820365000003,215.88177505,69.0,12.0
896,215.02463265,215.98222142500003,45.0,102.0
897,215.82820365000003,215.9911499916667,64.0,78.0
898,216.09606065000003,216.42864975833334,69.0,102.0
899,216.09606065000003,216.43088190000003,72.0,105.0
900,216.09606065000003,216.44650689166667,64.0,108.0
901,216.09606065000003,216.692042475,52.0,111.0
902,216.09606065000003,216.73668530833334,45.0,100.0
903,216.63177465,216.75454244166667,64.0,100.0
904,216.63177465,216.8326674,72.0,105.0
905,216.63177465,216.8348995416667,69.0,105.0
906,216.89963165,216.96436375833332,64.0,34.0
907,217.16748865,217.589363425,67.0,92.0
908,217.16748865,217.602756275,71.0,97.0
909,217.16748865,217.60722055833332,62.0,100.0
910,217.70320265000004,217.87061327499998,71.0,78.0
911,217.70320265000004,217.88177398333335,67.0,87.0
912,217.97105965000003,218.11168457500003,62.0,67.0
913,218.23891665000002,218.56257719166666,71.0,100.0
914,218.23891665000002,218.57150575833333,67.0,111.0
915,218.23891665000002,218.607220025,62.0,108.0
916,218.77463065,218.9040948666667,71.0,76.0
917,218.77463065,218.91079129166667,67.0,80.0
918,217.16748865,219.07373763333334,43.0,105.0
919,219.04248765,219.21436255833333,62.0,92.0
920,219.31034465,219.70543372500003,62.0,105.0
921,219.31034465,219.70766586666667,67.0,100.0
922,219.84605865000003,219.89963004999998,62.0,60.0
923,219.84605865000003,220.19427274999998,67.0,92.0
924,220.11391565000002,220.27909413333333,62.0,89.0
925,220.38177265000002,220.696504625,71.0,108.0
926,220.38177265000002,220.7121296166667,62.0,108.0
927,220.38177265000002,220.71436175833333,67.0,111.0
928,220.91748665,220.99784375000002,71.0,82.0
929,220.91748665,221.01346874166666,67.0,92.0
930,220.38177265000002,221.05587943333336,50.0,92.0
931,220.91748665,221.058111575,62.0,94.0
932,219.31034465,221.11614725833334,43.0,102.0
933,221.45320064999999,221.55587916666667,41.0,105.0
934,221.45320064999999,222.08489674166668,60.0,102.0
935,221.45320064999999,222.3192716166667,65.0,100.0
936,221.45320064999999,222.98221769166668,69.0,97.0
937,223.32819965,223.45096744166665,65.0,92.0
938,223.06034265,224.78802030000003,60.0,102.0
939,222.79248565,224.81703814166667,53.0,18.0
940,223.59605665000004,224.84159170000004,65.0,58.0
941,223.59605665000004,224.87507382500002,69.0,76.0
942,225.82596617500002,226.39516229999998,67.0,82.0
943,225.75676978333337,226.45766226666666,64.0,78.0
944,225.68757339166666,226.589358625,60.0,55.0
945,226.28355521666668,226.94426915000003,55.0,24.0
946,226.83042992500003,227.272393975,64.0,105.0
947,226.83042992500003,227.30364395833334,60.0,100.0
948,226.83042992500003,227.36391178333332,67.0,97.0
949,227.607215225,227.761233,60.0,69.0
950,227.36391178333332,228.2389113166667,55.0,34.0
951,225.79248404999998,228.32150055833336,48.0,102.0
952,227.8906972166667,228.32819698333333,64.0,114.0
953,227.888465075,228.34828625833336,67.0,108.0
954,227.8906972166667,228.36391125,60.0,105.0
955,228.91525024166668,229.14292869166667,72.0,102.0
956,228.91078595833335,229.15185725833334,64.0,108.0
957,228.91971452500002,229.1630179666667,60.0,89.0
958,228.91748238333332,229.174178675,48.0,108.0
959,229.28578575833336,229.47774994166667,71.0,102.0
960,229.28578575833336,229.4844463666667,62.0,97.0
961,229.29248218333333,229.49783921666665,59.0,100.0
962,229.29471432500003,229.50453564166668,47.0,108.0
963,229.6384641416667,229.93757112500003,55.0,102.0
964,229.6384641416667,229.95096397500004,67.0,84.0
965,229.6384641416667,229.98667824166665,43.0,111.0
966,230.02462465000002,230.35944590000003,57.0,94.0
967,230.02462465000002,230.87507062500003,60.0,105.0
968,230.56033865,230.96658843333336,57.0,69.0
969,231.09605265,231.32149895833334,57.0,102.0
970,231.09605265,231.651855925,60.0,108.0
971,230.02462465000002,231.66301663333337,41.0,100.0
972,231.63176665000003,231.8058737,57.0,94.0
973,231.09605265,231.959891475,65.0,94.0
974,232.16748065000002,232.84158743333336,62.0,87.0
975,232.16748065000002,232.85274814166667,59.0,89.0
976,232.16748065000002,232.9576588,55.0,84.0
977,233.23890864999998,233.513462075,55.0,108.0
978,232.70319465,233.61837273333333,50.0,60.0
979,232.16748065000002,233.64739057500003,43.0,102.0
980,233.23890864999998,233.81256905833334,59.0,120.0
981,233.23890864999998,233.81926548333337,62.0,111.0
982,233.77462265000003,233.95542612500003,55.0,108.0
983,234.31033665,234.96881844166666,60.0,92.0
984,234.31033665,235.21435402500003,57.0,102.0
985,234.84605065,235.529086,52.0,58.0
986,235.38176465000004,235.54247885,60.0,114.0
987,235.38176465000004,235.59158596666668,64.0,108.0
988,234.31033665,236.29024630833334,45.0,100.0
989,235.91747865000002,236.3014070166667,52.0,60.0
990,236.18533565,236.34158556666665,64.0,78.0
991,236.45319265,237.07372803333334,64.0,108.0
992,236.45319265,237.25453150833334,72.0,105.0
993,237.25676364999998,237.39738857500004,64.0,84.0
994,236.98890665,237.61390631666666,52.0,64.0
995,237.52462065000003,237.91078115833335,64.0,114.0
996,237.52462065000003,237.97997755,71.0,114.0
997,237.79247765000002,238.37060234166665,52.0,73.0
998,236.45319265,238.45319158333336,45.0,92.0
999,238.06033465000002,238.46658443333337,69.0,89.0
1000,238.59604865,239.02461985000002,65.0,97.0
1001,238.59604865,239.125066225,69.0,108.0
1002,239.13176264999998,239.52685172500003,65.0,33.0
1003,239.66747665000003,239.91301223333335,65.0,102.0
1004,238.59604865,240.07595857500002,41.0,100.0
1005,239.66747665000003,240.22551206666668,69.0,111.0
1006,240.73890465,241.33711861666666,67.0,100.0
1007,240.73890465,241.3706007416667,62.0,84.0
1008,241.81033265000002,242.0112254,62.0,97.0
1009,241.27461865000004,242.0647968,50.0,62.0
1010,240.73890465,242.1540824666667,43.0,100.0
1011,241.81033265000002,242.27238597500002,67.0,117.0
1012,241.81033265000002,242.38176091666668,71.0,108.0
1013,242.34604665,242.45095730833333,62.0,80.0
1014,242.88176065,243.20318905,60.0,102.0
1015,242.88176065,243.40854608333336,64.0,111.0
1016,242.88176065,243.50229603333332,72.0,100.0
1017,242.88176065,243.76345660833334,48.0,105.0
1018,243.95318865000002,244.37283128333337,71.0,97.0
1019,243.95318865000002,244.41524197500001,59.0,102.0
1020,243.95318865000002,244.49783121666667,47.0,105.0
1021,245.02461664999998,245.6830984416667,60.0,100.0
1022,245.02461664999998,245.71434842500003,64.0,94.0
1023,245.02461664999998,245.88175905000003,57.0,97.0
1024,245.56033065000003,246.22774100833334,52.0,60.0
1025,246.09604465,246.42193733333335,60.0,120.0
1026,246.09604465,246.43086590000001,57.0,117.0
1027,246.09604465,246.45765160000002,64.0,111.0
1028,245.02461664999998,246.52238370833334,45.0,100.0
1029,246.36390165,246.60050866666666,52.0,67.0
1030,246.63175865,246.83041925833334,45.0,89.0
1031,247.16747265000004,248.125061425,60.0,89.0
1032,247.16747265000004,248.13398999166668,57.0,80.0
1033,247.16747265000004,248.13845427500002,65.0,94.0
1034,248.23890065,248.50229336666666,57.0,105.0
1035,248.23890065,248.86166817500003,60.0,108.0
1036,248.77461465,249.035775225,57.0,78.0
1037,247.16747265000004,249.1652394416667,41.0,105.0
1038,248.23890065,249.20988227499998,65.0,105.0
1039,249.31032865000003,250.09381037500003,62.0,82.0
1040,249.31032865000003,250.11166750833337,59.0,92.0
1041,249.31032865000003,250.16523890833332,55.0,82.0
1042,249.31032865000003,250.61389938333332,43.0,102.0
1043,249.84604265000002,250.6362208,50.0,53.0
1044,250.38175665,250.80809570833333,59.0,111.0
1045,250.38175665,250.81032785000002,62.0,100.0
1046,250.38175665,250.81255999166666,55.0,97.0
1047,250.91747064999998,251.28354188333333,43.0,100.0
1048,251.45318465000003,252.16077355833335,60.0,84.0
1049,251.45318465000003,252.34157703333335,57.0,82.0
1050,251.98889865,252.81255892500002,52.0,44.0
1051,252.52461265,253.013451675,64.0,100.0
1052,252.52461265,253.07148735833334,60.0,111.0
1053,251.45318465000003,253.41523717500002,45.0,100.0
1054,253.06032665000004,253.47104071666666,52.0,62.0
1055,253.59604065000002,254.26568315000003,60.0,73.0
1056,253.59604065000002,254.53577229166666,57.0,62.0
1057,254.66746865,254.942022075,57.0,92.0
1058,254.66746865,255.25675404999998,60.0,108.0
1059,254.66746865,255.25898619166668,64.0,102.0
1060,254.93532565000004,255.3393432916667,52.0,49.0
1061,253.59604065000002,255.48443250000003,45.0,87.0
1062,255.20318265000003,255.53800390000004,57.0,89.0
1063,255.73889665000002,256.15407500000003,60.0,87.0
1064,255.73889665000002,256.1563071416667,55.0,87.0
1065,256.27461065,256.5022891,55.0,53.0
1066,256.27461065,256.5045212416667,60.0,67.0
1067,256.81032465,257.13175305,60.0,100.0
1068,256.81032465,257.22327085833336,55.0,94.0
1069,255.73889665000002,257.64514563333336,48.0,105.0
1070,257.34603865,257.82818125,59.0,97.0
1071,257.88175265,258.25898459166666,57.0,78.0
1072,257.88175265,258.2701453,60.0,92.0
1073,258.41746665,258.64514510000004,60.0,66.0
1074,258.41746665,258.6540736666667,57.0,76.0
1075,258.95318065000004,259.2880019,60.0,108.0
1076,258.95318065000004,259.3192518833333,57.0,108.0
1077,257.88175265,259.7255016666667,45.0,100.0
1078,259.48889465,260.0335372166667,62.0,94.0
1079,260.02460865,260.31255492500003,57.0,87.0
1080,260.02460865,260.379519175,60.0,82.0
1081,260.56032265,260.77907253333336,57.0,52.0
1082,260.56032265,260.794697525,53.0,50.0
1083,260.56032265,260.821483225,60.0,84.0
1084,261.09603665000003,261.4844293,57.0,105.0
1085,261.09603665000003,261.491125725,53.0,97.0
1086,261.09603665000003,261.49335786666666,60.0,100.0
1087,261.63175065,262.133982525,53.0,97.0
1088,261.63175065,262.1429110916667,57.0,102.0
1089,261.63175065,262.1563039416667,60.0,97.0
1090,260.02460865,262.22103605,41.0,94.0
1091,262.16746465,262.51567875,60.0,97.0
1092,262.16746465,262.5246073166667,57.0,92.0
1093,262.70317865,262.98442850000004,60.0,82.0
1094,262.70317865,263.0112142,57.0,67.0
1095,263.23889265,263.5290710666667,60.0,94.0
1096,263.23889265,263.5424639166667,57.0,97.0
1097,262.16746465,264.0022851,45.0,100.0
1098,263.77460665,264.14067788333335,57.0,87.0
1099,263.77460665,264.142910025,60.0,92.0
1100,264.31032065,264.6942490166667,57.0,94.0
1101,264.31032065,264.6942490166667,60.0,100.0
1102,264.84603465000004,265.2232665916667,57.0,80.0
1103,264.84603465000004,265.227730875,60.0,69.0
1104,265.38174865,265.76121273333337,60.0,100.0
1105,265.38174865,265.7656770166667,57.0,102.0
1106,265.38174865,265.77460558333337,53.0,89.0
1107,265.91746265,266.35719455833333,53.0,82.0
1108,265.91746265,266.36165884166667,57.0,92.0
1109,265.91746265,266.37281955000003,60.0,92.0
1110,264.31032065,266.45094450833335,41.0,94.0
1111,266.45317665,266.81924788333333,57.0,89.0
1112,266.45317665,266.821480025,60.0,92.0
1113,266.98889065000003,267.2009441083333,60.0,66.0
1114,266.98889065000003,267.23442623333335,57.0,64.0
1115,267.52460465,267.8817473166667,57.0,97.0
1116,267.52460465,267.91076515833333,60.0,108.0
1117,266.45317665,268.39067561666667,45.0,97.0
1118,268.06031865,268.40183632500003,57.0,89.0
1119,268.06031865,268.43755059166665,60.0,94.0
1120,268.59603265,268.98888958333333,60.0,82.0
1121,268.59603265,268.99335386666667,53.0,94.0
1122,269.13174665,269.500050025,60.0,89.0
1123,269.13174665,269.51790715833334,53.0,78.0
1124,269.66746065,270.0536211583333,60.0,97.0
1125,269.66746065,270.06924615,53.0,97.0
1126,270.20317465,270.618353,53.0,87.0
1127,270.20317465,270.63397799166665,60.0,92.0
1128,268.59603265,270.6429065583333,41.0,94.0
1129,270.73888865000004,272.52236984166666,60.0,84.0
1130,270.73888865000004,272.6853161833333,57.0,82.0
1131,270.73888865000004,272.714334025,45.0,97.0
