,start,end,pitch,velocity
0,28.614554718749996,28.915836468749998,69.0,102.0
1,28.999169718749997,29.146605468749996,70.0,100.0
2,29.383784718749997,29.764393312499998,70.0,107.0
3,29.768399718749997,30.022405874999997,69.0,99.0
4,30.153014718749997,30.387790124999995,67.0,96.0
5,30.537629718749997,30.726732093749998,65.0,90.0
6,30.922244718749997,31.270802062499996,67.0,95.0
7,31.306859718749998,31.488750562499998,65.0,96.0
8,31.691474718749998,31.957500093749996,67.0,97.0
9,32.07608971875,32.29724334375,65.0,86.0
10,32.460704718749994,33.54483825,62.0,88.0
11,34.768394718749995,34.98474065625,70.0,102.0
12,35.15300971875,35.330092875,70.0,112.0
13,35.537624718749996,35.718714281249994,70.0,102.0
14,35.92223971875,36.072079312499994,67.0,92.0
15,36.306854718749996,36.693873562499995,65.0,90.0
16,37.076084718749996,37.42544334375,67.0,92.0
17,37.84531471875,38.703486937499996,62.0,89.0
18,39.768389718749994,40.055248406249994,65.0,89.0
19,40.15300471875,40.433453156249996,67.0,93.0
20,40.537619718749994,40.70749134374999,74.0,97.0
21,40.92223471875,41.213901093749996,74.0,97.0
22,41.306849718749994,41.548035375,72.0,95.0
23,41.69146471875,42.01918875,72.0,117.0
24,42.845309718749995,43.073674874999995,65.0,92.0
25,43.22992471875,43.5207898125,65.0,85.0
26,43.614539718749995,43.88216765625,72.0,88.0
27,43.99915471874999,44.259571124999994,72.0,93.0
28,44.383769718749996,44.60332078125,70.0,90.0
29,44.76838471874999,45.39739049999999,67.0,88.0
30,45.922229718749996,46.23312684374999,67.0,88.0
31,46.30684471874999,46.548831656249995,70.0,96.0
32,46.69145971875,46.93665178124999,70.0,97.0
33,47.07607471874999,47.277196312499996,70.0,100.0
34,47.46068971875,47.716298437499994,67.0,88.0
35,47.84530471874999,48.4983489375,70.0,117.0
36,48.614534718749994,48.93985490624999,72.0,100.0
37,48.99914971875,49.34450193749999,70.0,83.0
38,49.383764718749994,51.08248096874999,69.0,92.0
39,52.93744706249999,53.23872881249999,70.0,102.0
40,53.322062062499995,53.469497812499995,70.0,100.0
41,53.70667706249999,54.087285656249996,70.0,107.0
42,54.091292062499996,54.345298218749996,69.0,99.0
43,54.47590706249999,54.710682468749994,67.0,96.0
44,54.860522062499996,55.04962443749999,65.0,90.0
45,55.24513706249999,55.593694406249995,67.0,95.0
46,55.629752062499996,55.81164290624999,65.0,96.0
47,56.01436706249999,56.28039243749999,67.0,97.0
48,56.3989820625,56.620135687499996,65.0,86.0
49,56.78359706249999,57.86773059375,62.0,88.0
50,59.091287062499994,59.307632999999996,70.0,102.0
51,59.47590206249999,59.65298521874999,70.0,112.0
52,59.860517062499994,60.04160662499999,70.0,102.0
53,60.24513206249999,60.39497165624999,67.0,92.0
54,60.629747062499995,60.931028812499996,65.0,90.0
55,61.01436206249999,61.16099653124999,67.0,97.0
56,61.398977062499995,61.748335687499996,65.0,92.0
57,62.040002062499994,62.89817428124999,62.0,89.0
58,64.0912820625,64.37814074999999,65.0,89.0
59,64.4758970625,64.7563455,67.0,93.0
60,64.86051206249999,65.03038368749999,74.0,97.0
61,65.24512706249999,65.5367934375,74.0,97.0
62,65.62974206249999,65.87092771875,72.0,95.0
63,66.0143570625,66.34208109375,72.0,117.0
64,67.16820206249999,67.39656721875,65.0,92.0
65,67.5528170625,67.84368215625,65.0,85.0
66,67.9374320625,68.20505999999999,72.0,88.0
67,68.32204706249999,68.58246346874999,72.0,93.0
68,68.70666206249999,68.92621312499999,70.0,90.0
69,69.0912770625,69.72028284375,67.0,88.0
70,70.24512206249999,70.5560191875,67.0,88.0
71,70.6297370625,70.87172399999999,70.0,96.0
72,71.0143520625,71.25954412499999,70.0,97.0
73,71.39896706249999,71.60008865625,70.0,100.0
74,71.78358206249999,72.04399846874999,70.0,102.0
75,72.16819706249998,72.374927625,70.0,127.0
76,72.5528120625,72.80521565625,67.0,100.0
77,72.93742706249999,73.22428574999999,70.0,122.0
78,73.32204206249999,73.58886871874999,74.0,112.0
79,73.70665706249999,75.52556549999998,74.0,127.0
80,76.78357706249999,77.10809596874999,82.0,127.0
81,77.1681920625,77.46065971875,81.0,97.0
82,77.5528070625,77.79799912499999,82.0,127.0
83,77.93742206249999,78.26113968749999,74.0,112.0
84,78.32203706249999,79.36450396874999,81.0,122.0
85,79.47588206249999,79.75232409374999,77.0,107.0
86,79.86049706249999,80.14174678124999,79.0,127.0
87,80.24511206249998,80.49350924999999,77.0,117.0
88,80.6297270625,80.87652168749999,79.0,112.0
89,81.01434206249999,81.23549568749999,77.0,112.0
90,81.39895706249999,81.96065521874999,74.0,117.0
91,82.1681870625,82.42860346875,77.0,127.0
92,82.55280206249999,82.78837874999999,74.0,112.0
93,82.93741706249999,83.22267318749999,72.0,96.0
94,83.32203206249999,83.60087793749999,70.0,100.0
95,83.7066470625,83.94462759374998,72.0,107.0
96,84.0912620625,84.31481953125,70.0,117.0
97,84.47587706249999,84.7819665,67.0,102.0
98,84.86049206249999,85.12972256249999,70.0,127.0
99,85.2451070625,85.55680546874999,72.0,112.0
100,85.6297220625,85.8861320625,77.0,127.0
101,86.39895206249999,87.041579625,74.0,127.0
102,88.32202706249998,88.57202681249998,77.0,112.0
103,88.7066420625,88.9566418125,74.0,107.0
104,89.09125706249999,89.34446193749999,72.0,100.0
105,89.47587206249999,89.74109615625,70.0,95.0
106,89.86048706249998,90.06962146874999,72.0,95.0
107,90.2451020625,90.50792231249999,70.0,100.0
108,90.62971706249999,91.13532553124999,72.0,100.0
109,91.39894706249999,91.65455578125,74.0,102.0
110,91.7835620625,92.02474771874999,77.0,117.0
111,92.16817706249999,92.42298449999998,79.0,112.0
112,92.55279206249999,92.79878540624999,77.0,102.0
113,92.93740706249999,93.20263115624999,74.0,100.0
114,93.32202206249998,93.50070778124999,77.0,102.0
115,93.7066370625,94.09205334375,74.0,122.0
116,94.47586706249999,94.78756546874999,67.0,97.0
117,94.86048206249998,95.12490487499998,74.0,102.0
118,95.2450970625,95.73708374999998,72.0,107.0
119,96.01432706249999,96.22426275,72.0,102.0
120,96.39894206249998,96.6297110625,70.0,102.0
121,96.7835570625,97.02874912499999,72.0,112.0
122,97.16817206249999,97.41096028124998,74.0,107.0
123,97.55278706249999,97.78195349999999,77.0,112.0
124,97.93740206249998,98.34926062499999,79.0,122.0
125,98.70663206249999,99.26672765624998,74.0,112.0
126,101.39893706249998,101.72345596874999,82.0,127.0
127,101.7835520625,102.07601971874999,81.0,97.0
128,102.16816706249999,102.41335912499999,82.0,127.0
129,102.55278206249999,102.87649968749999,74.0,112.0
130,102.93739706249998,103.97986396874998,81.0,122.0
131,104.09124206249999,104.36768409374999,77.0,107.0
132,104.47585706249998,104.75710678124999,79.0,127.0
133,104.8604720625,105.10886924999998,77.0,117.0
134,105.24508706249999,105.49188168749998,79.0,112.0
135,105.62970206249999,105.85085568749999,77.0,112.0
136,106.01431706249998,106.57601521874999,74.0,117.0
137,106.78354706249999,107.04396346875,77.0,127.0
138,107.16816206249999,107.40373874999999,74.0,112.0
139,107.55277706249998,107.83803318749999,72.0,96.0
140,107.93739206249998,108.21623793749998,70.0,100.0
141,108.32200706249999,108.55998759375,72.0,107.0
142,108.70662206249999,108.93017953124999,70.0,117.0
143,109.09123706249999,109.39732649999999,67.0,102.0
144,109.47585206249998,109.74508256249999,70.0,127.0
145,109.86046706249999,110.17216546874998,72.0,112.0
146,110.24508206249999,110.50149206249999,77.0,127.0
147,111.01431206249998,111.65693962499999,74.0,127.0
148,112.9373870625,113.18738681249998,77.0,112.0
149,113.32200206249999,113.57200181249999,74.0,107.0
150,113.70661706249999,113.95982193749998,72.0,100.0
151,114.09123206249998,114.35645615624999,70.0,95.0
152,114.47584706249998,114.68498146874998,72.0,95.0
153,114.86046206249999,115.12328231249998,70.0,100.0
154,115.24507706249999,115.75068553124999,72.0,100.0
155,116.01430706249998,116.26991578124999,74.0,102.0
156,116.39892206249999,116.64010771874999,77.0,117.0
157,116.78353706249999,117.0383445,79.0,112.0
158,117.16815206249998,117.41414540624999,77.0,102.0
159,117.55276706249998,117.81799115624999,74.0,100.0
160,117.93738206249999,118.11606778124998,77.0,102.0
161,118.32199706249999,118.70741334374999,74.0,122.0
162,119.09122706249998,119.40292546874998,67.0,97.0
163,119.47584206249999,119.74026487499998,74.0,102.0
164,119.86045706249999,120.09683503124998,72.0,102.0
165,120.24507206249999,120.49507181249999,70.0,95.0
166,120.62968706249998,120.97423799999999,72.0,102.0
167,121.0143020625,121.22824415624999,74.0,112.0
168,121.39891706249999,121.85644865624998,74.0,122.0
169,121.78353206249999,121.99667287499999,72.0,99.0
170,122.16814706249998,122.36926865624999,72.0,95.0
171,122.55276206249998,123.08080640624999,65.0,100.0
172,123.32199206249999,124.76830471874999,67.0,100.0
173,151.69135471874998,151.99263646875,70.0,102.0
174,152.07596971874997,152.22340546874997,70.0,100.0
175,152.46058471874997,152.8411933125,70.0,107.0
176,152.84519971875,153.099205875,69.0,99.0
177,153.22981471875,153.46459012499997,67.0,96.0
178,153.61442971875,153.80353209375,65.0,90.0
179,153.99904471874999,154.3476020625,67.0,95.0
180,154.38365971874998,154.5655505625,65.0,96.0
181,154.76827471874998,155.03430009374998,67.0,97.0
182,155.15288971874998,155.37404334374997,65.0,86.0
183,155.53750471874997,156.62163825,62.0,88.0
184,157.84519471874998,158.06154065624997,70.0,102.0
185,158.22980971874998,158.40689287499998,70.0,112.0
186,158.61442471874997,158.79551428124998,70.0,102.0
187,158.99903971874997,159.1488793125,67.0,92.0
188,159.38365471875,159.68493646874998,65.0,90.0
189,159.76826971875,159.91490418749999,67.0,97.0
190,160.15288471875,160.50224334375,65.0,92.0
191,160.79390971874997,161.6520819375,62.0,89.0
192,162.84518971875,163.13204840625,65.0,89.0
193,163.22980471875,163.51025315624997,67.0,93.0
194,163.61441971874999,163.78429134374997,74.0,97.0
195,163.99903471874998,164.29070109375,74.0,97.0
196,164.38364971874998,164.62483537499998,72.0,95.0
197,164.76826471874998,165.09598874999998,72.0,117.0
198,165.92210971875,166.150474875,65.0,92.0
199,166.30672471875,166.5975898125,65.0,85.0
200,166.69133971875,166.95896765624997,72.0,88.0
201,167.07595471874998,167.33637112499997,72.0,93.0
202,167.46056971874998,167.68012078124997,70.0,90.0
203,167.84518471874998,168.4741905,67.0,88.0
204,168.99902971875,169.30992684375,67.0,88.0
205,169.38364471875,169.62563165625,70.0,96.0
206,169.76825971875,170.01345178124998,70.0,97.0
207,170.15287471874998,170.3539963125,70.0,100.0
208,170.53748971874998,170.79790612499997,70.0,102.0
209,170.92210471874998,171.12883528125,70.0,127.0
210,171.30671971874997,171.5591233125,67.0,100.0
211,171.69133471874997,171.97819340624997,70.0,122.0
212,172.07594971874997,172.34277637499997,74.0,112.0
213,172.46056471875,174.27947315625,74.0,127.0
214,175.53748471875,175.86200362499997,82.0,127.0
215,175.92209971875,176.21456737499997,81.0,97.0
216,176.30671471875,176.55190678124998,82.0,127.0
217,176.69132971874998,177.01504734374998,74.0,112.0
218,177.07594471874998,178.118411625,81.0,122.0
219,178.22978971874997,178.50623174999998,77.0,107.0
220,178.61440471874997,178.89565443749999,79.0,127.0
221,178.99901971875,179.24741690624998,77.0,117.0
222,179.38363471875,179.63042934374997,79.0,112.0
223,179.76824971874998,179.98940334374998,77.0,112.0
224,180.15286471874998,180.71456287499998,74.0,117.0
225,180.92209471874997,181.182511125,77.0,127.0
226,181.30670971874997,181.54228640624999,74.0,112.0
227,181.69132471874997,181.97658084374999,72.0,96.0
228,182.07593971875,182.35478559374997,70.0,100.0
229,182.46055471875,182.69853525,72.0,107.0
230,182.84516971875,183.06872718749997,70.0,117.0
231,183.22978471874998,183.53587415624997,67.0,102.0
232,183.61439971874998,183.88363021874997,70.0,127.0
233,183.99901471874998,184.31071312499998,72.0,112.0
234,184.38362971874997,184.64003971875,77.0,127.0
235,185.15285971874997,185.79548728125,74.0,127.0
236,187.07593471874998,187.32593446874998,77.0,112.0
237,187.46054971874997,187.71054946874997,74.0,107.0
238,187.84516471874997,188.09836959375,72.0,100.0
239,188.22977971874997,188.4950038125,70.0,95.0
240,188.61439471875,188.82352912499996,72.0,95.0
241,188.99900971875,189.26182996875,70.0,100.0
242,189.38362471874999,189.88923318749997,72.0,100.0
243,190.15285471874998,190.4084634375,74.0,102.0
244,190.53746971874997,190.77865537499997,77.0,117.0
245,190.92208471874997,191.17689215624998,79.0,112.0
246,191.30669971874997,191.55269306249997,77.0,102.0
247,191.69131471874996,191.95653881249999,74.0,100.0
248,192.07592971875,192.25461543749998,77.0,102.0
249,192.46054471875,192.845961,74.0,122.0
250,193.22977471874998,193.54147312499998,67.0,97.0
251,193.61438971874998,193.87881253125,74.0,102.0
252,193.99900471874997,194.49099140624998,72.0,107.0
253,194.76823471874997,194.97817040624997,72.0,102.0
254,195.15284971875,195.38361871874997,70.0,102.0
255,195.53746471875,195.78265678124998,72.0,112.0
256,195.92207971874998,196.1648679375,74.0,107.0
257,196.30669471874998,196.53586115624998,77.0,112.0
258,196.69130971874998,197.10316828124996,79.0,122.0
259,197.46053971874997,198.0206353125,74.0,112.0
260,200.15284471874998,200.47736362499998,82.0,127.0
261,200.53745971874997,200.82992737499998,81.0,97.0
262,200.92207471874997,201.16726678124996,82.0,127.0
263,201.30668971874996,201.63040734374997,74.0,112.0
264,201.69130471875,202.73377162499997,81.0,122.0
265,202.84514971874998,203.12159174999996,77.0,107.0
266,203.22976471874998,203.51101443749997,79.0,127.0
267,203.61437971874997,203.86277690625,77.0,117.0
268,203.99899471874997,204.24578934374998,79.0,112.0
269,204.38360971874997,204.60476334374997,77.0,112.0
270,204.76822471875,205.32992287499997,74.0,117.0
271,205.53745471874998,205.79787112499997,77.0,127.0
272,205.92206971874998,206.15764640624997,74.0,112.0
273,206.30668471874998,206.59194084374997,72.0,96.0
274,206.69129971874997,206.97014559374998,70.0,100.0
275,207.07591471874997,207.31389524999997,72.0,107.0
276,207.46052971874997,207.68408718749998,70.0,117.0
277,207.84514471874996,208.15123415624998,67.0,102.0
278,208.22975971875,208.49899021874998,70.0,127.0
279,208.61437471874999,208.926073125,72.0,112.0
280,208.99898971874998,209.25539971874997,77.0,127.0
281,209.76821971874998,210.41084728124997,74.0,127.0
282,211.69129471875,211.94129446875,77.0,112.0
283,212.07590971874998,212.32590946874998,74.0,107.0
284,212.46052471874998,212.71372959374997,72.0,100.0
285,212.84513971874998,213.11036381249997,70.0,95.0
286,213.22975471874997,213.43888912499997,72.0,95.0
287,213.61436971874997,213.87718996874997,70.0,100.0
288,213.99898471874997,214.50459318749998,72.0,100.0
289,214.76821471875,215.02382343749997,74.0,102.0
290,215.15282971874998,215.39401537499998,77.0,117.0
291,215.53744471874998,215.79225215625,79.0,112.0
292,215.92205971874998,216.16805306249998,77.0,102.0
293,216.30667471874997,216.57189881249997,74.0,100.0
294,216.69128971874997,216.8699754375,77.0,102.0
295,217.07590471874997,217.46132099999997,74.0,122.0
296,217.84513471875,218.15683312499996,67.0,97.0
297,218.22974971874999,218.49417253124997,74.0,102.0
298,218.61436471874998,218.85074268749997,72.0,102.0
299,218.99897971874998,219.24897946874998,70.0,95.0
300,219.38359471874998,219.72814565624998,72.0,102.0
301,219.76820971874997,219.98215181249998,74.0,112.0
302,220.15282471874997,220.6103563125,74.0,122.0
303,220.53743971874997,220.75058053124997,72.0,99.0
304,220.92205471874996,221.12317631249996,72.0,95.0
305,221.30666971875,221.83471406249998,65.0,100.0
306,222.07589971874998,223.52221237499998,67.0,100.0
307,230.92204471875,231.24656362499996,82.0,127.0
308,231.30665971874998,231.59912737499997,81.0,97.0
309,231.69127471874998,231.93646678124998,82.0,127.0
310,232.07588971874998,232.39960734374998,74.0,112.0
311,232.46050471874997,233.502971625,81.0,122.0
312,233.61434971874996,233.89079174999998,77.0,107.0
313,233.99896471874996,234.28021443749998,79.0,127.0
314,234.38357971874998,234.63197690624997,77.0,117.0
315,234.76819471874998,235.01498934374996,79.0,112.0
316,235.15280971874998,235.37396334374998,77.0,112.0
317,235.53742471874997,236.09912287499998,74.0,117.0
318,236.30665471874997,236.56707112499998,77.0,127.0
319,236.69126971874996,236.92684640624998,74.0,112.0
320,237.07588471874996,237.36114084374998,72.0,96.0
321,237.46049971875,237.73934559374996,70.0,100.0
322,237.84511471874998,238.08309524999999,72.0,107.0
323,238.22972971874998,238.45328718749997,70.0,117.0
324,238.61434471874998,238.92043415624997,67.0,102.0
325,238.99895971874997,239.26819021874996,70.0,127.0
326,239.38357471874997,239.69527312499997,72.0,112.0
327,239.76818971874997,240.02459971874998,77.0,127.0
328,240.53741971874996,241.18004728124998,74.0,127.0
329,242.46049471874997,242.71049446874997,77.0,112.0
330,242.84510971874997,243.09510946874997,74.0,107.0
331,243.22972471874996,243.48292959375,72.0,100.0
332,243.61433971874996,243.87956381249998,70.0,95.0
333,243.99895471874999,244.208089125,72.0,95.0
334,244.38356971874998,244.64638996875,70.0,100.0
335,244.76818471874998,245.27379318749996,72.0,100.0
336,245.53741471874997,245.79302343749998,74.0,102.0
337,245.92202971874997,246.16321537499996,77.0,117.0
338,246.30664471874996,246.56145215624997,79.0,112.0
339,246.69125971874996,246.93725306249996,77.0,102.0
340,247.07587471875,247.34109881249998,74.0,100.0
341,247.46048971874998,247.63917543749997,77.0,102.0
342,247.84510471874998,248.23052099999998,74.0,122.0
343,248.61433471874997,248.92603312499998,67.0,97.0
344,248.99894971874997,249.26337253124998,74.0,102.0
345,249.38356471874997,249.87555140624997,72.0,107.0
346,250.15279471874996,250.36273040624997,72.0,102.0
347,250.53740971874998,250.76817871874997,70.0,102.0
348,250.92202471874998,251.16721678124998,72.0,112.0
349,251.30663971874998,251.54942793749998,74.0,107.0
350,251.69125471874997,251.92042115624997,77.0,112.0
351,252.07586971874997,252.48772828124999,79.0,122.0
352,252.84509971874996,253.40519531249998,74.0,112.0
353,255.53740471874997,255.86192362499997,82.0,127.0
354,255.92201971874997,256.214487375,81.0,97.0
355,256.30663471875,256.55182678125,82.0,127.0
356,256.69124971875,257.01496734374996,74.0,112.0
357,257.07586471875,258.118331625,81.0,122.0
358,258.22970971875,258.50615174999996,77.0,107.0
359,258.61432471874997,258.8955744375,79.0,127.0
360,258.99893971874997,259.24733690625,77.0,117.0
361,259.38355471874996,259.63034934374997,79.0,112.0
362,259.76816971874996,259.98932334374996,77.0,112.0
363,260.15278471874996,260.714482875,74.0,117.0
364,260.92201471874995,261.182431125,77.0,127.0
365,261.30662971874995,261.54220640625,74.0,112.0
366,261.69124471874994,261.97650084375,72.0,96.0
367,262.07585971875,262.35470559375,70.0,100.0
368,262.46047471875,262.69845525,72.0,107.0
369,262.84508971875,263.06864718749995,70.0,117.0
370,263.22970471875,263.53579415624995,67.0,102.0
371,263.61431971875,263.88355021875,70.0,127.0
372,263.99893471875,264.310633125,72.0,112.0
373,264.38354971875,264.63995971875,77.0,127.0
374,265.15277971874997,265.79540728125,74.0,127.0
375,267.07585471874995,267.32585446875,77.0,112.0
376,267.46046971874995,267.71046946875,74.0,107.0
377,267.84508471874994,268.09828959375,72.0,100.0
378,268.22969971875,268.49492381249996,70.0,95.0
379,268.61431471875,268.82344912499997,72.0,95.0
380,268.99892971875,269.26174996875,70.0,100.0
381,269.38354471875,269.88915318749997,72.0,100.0
382,270.15277471875,270.4083834375,74.0,102.0
383,270.53738971875,270.77857537499995,77.0,117.0
384,270.92200471875,271.17681215625,79.0,112.0
385,271.30661971874997,271.5526130625,77.0,102.0
386,271.69123471874997,271.9564588125,74.0,100.0
387,272.07584971874996,272.25453543749995,77.0,102.0
388,272.46046471874996,272.84588099999996,74.0,122.0
389,273.22969471874995,273.54139312499996,67.0,97.0
390,273.61430971874995,273.87873253124997,74.0,102.0
391,273.99892471874995,274.2353026875,72.0,102.0
392,274.38353971874994,274.63353946875,70.0,95.0
393,274.76815471875,275.11270565624994,72.0,102.0
394,275.15276971875,275.36671181249994,74.0,112.0
395,275.53738471875,275.9949163125,74.0,122.0
396,275.92199971875,276.13514053125,72.0,99.0
397,276.30661471875,276.50773631249996,72.0,95.0
398,276.69122971875,277.21927406249995,65.0,100.0
399,277.46045971875,278.90677237499995,67.0,100.0
400,279.38353471874996,279.63673959374995,67.0,96.0
401,279.76814971874995,279.970873875,74.0,99.0
402,280.15276471874995,280.58305275,72.0,112.0
403,280.53737971874995,280.80340509375,70.0,100.0
404,280.92199471874994,281.22487903124994,72.0,112.0
405,281.30660971875,281.55580818749996,74.0,117.0
406,281.69122471875,282.01494234374996,74.0,117.0
407,282.07583971875,282.30660871874994,72.0,97.0
408,282.46045471875,282.64154428125,72.0,107.0
409,282.84506971875,283.3026013125,65.0,100.0
410,284.38352971874997,286.5013160625,67.0,99.0
