,start,end,pitch,velocity
0,4.383809718749999,5.3205075,62.0,42.0
1,3.9991947187499997,5.42227021875,55.0,38.0
2,3.6145797187499995,5.61778284375,50.0,33.0
3,3.22996471875,5.705122499999999,43.0,58.0
4,4.7684247187499995,6.3790000312499995,67.0,37.0
5,4.7684247187499995,6.383807718749999,70.0,46.0
6,7.460729718749999,7.958325374999999,60.0,49.0
7,7.0761147187499995,8.29406221875,53.0,48.0
8,6.691499718749999,8.580119624999998,48.0,40.0
9,6.306884718749999,8.586529874999998,41.0,64.0
10,7.845344718749999,9.378997031249998,69.0,53.0
11,7.845344718749999,9.384606,65.0,50.0
12,9.76841971875,10.358162718749998,46.0,35.0
13,9.38380471875,10.387810125,39.0,60.0
14,10.153034718749998,11.014412062499998,58.0,53.0
15,10.153034718749998,11.036046656249999,63.0,58.0
16,10.537649718749998,11.052873562499999,55.0,34.0
17,10.922264718749998,11.834924062499999,41.0,64.0
18,11.306879718749999,11.888609906249998,48.0,53.0
19,11.691494718749999,12.43668628125,57.0,56.0
20,11.691494718749999,12.447904218749999,60.0,61.0
21,12.076109718749999,12.471141374999998,53.0,51.0
22,12.460724718749999,13.453512187499998,46.0,66.0
23,12.84533971875,13.597742812499998,58.0,45.0
24,13.614569718749998,14.483158593749998,65.0,61.0
25,13.22995471875,14.544055968749998,62.0,63.0
26,14.383799718749998,15.021619593749998,56.0,85.0
27,13.999184718749998,15.198702749999999,44.0,81.0
28,14.768414718749998,15.56488828125,65.0,77.0
29,15.153029718749998,15.572099812499998,62.0,67.0
30,15.922259718749999,16.397419499999998,51.0,93.0
31,16.114567218749997,16.50398990625,55.0,72.0
32,16.499182218749997,16.68027178125,51.0,68.0
33,15.537644718749998,16.692290999999997,39.0,102.0
34,16.69148971875,17.027226562499997,58.0,85.0
35,16.30687471875,17.058476531249998,63.0,100.0
36,16.883797218749997,17.13860465625,55.0,85.0
37,17.46071971875,17.931071812499997,53.0,79.0
38,17.653027218749997,18.04084734375,57.0,93.0
39,17.07610471875,18.137001093749998,41.0,59.0
40,17.268412218749997,18.16023825,48.0,58.0
41,18.037642218749998,18.213122812499996,53.0,92.0
42,18.22994971875,18.566487843749997,60.0,99.0
43,18.422257218749998,18.584917312499996,57.0,93.0
44,17.84533471875,18.586519874999997,65.0,99.0
45,18.999179718749996,19.473538218749997,58.0,83.0
46,18.806872218749998,19.656230343749996,53.0,55.0
47,19.191487218749998,19.68587775,62.0,74.0
48,19.57610221875,19.72834565625,58.0,93.0
49,18.61456471875,19.753185374999997,46.0,67.0
50,19.383794718749996,20.041646625,70.0,112.0
51,19.768409718749997,20.0656850625,65.0,100.0
52,19.96071721875,20.138601656249996,62.0,93.0
53,20.537639718749997,20.761998468749997,55.0,79.0
54,20.72994721875,20.969530312499998,58.0,86.0
55,20.34533221875,21.04084434375,50.0,58.0
56,21.11456221875,21.21392109375,50.0,65.0
57,20.153024718749997,21.255587718749997,43.0,77.0
58,20.922254718749997,21.577702781249997,62.0,95.0
59,21.306869718749997,21.62257453125,58.0,96.0
60,21.49917721875,21.691484718749997,55.0,88.0
61,22.076099718749997,22.553663343749996,51.0,82.0
62,22.268407218749996,22.658631187499996,55.0,79.0
63,21.691484718749997,23.116162781249997,39.0,85.0
64,21.88379221875,23.163438375,46.0,35.0
65,22.460714718749998,23.189079375,63.0,96.0
66,22.653022218749996,23.305265156249998,51.0,90.0
67,22.845329718749998,23.500777781249997,58.0,75.0
68,23.037637218749996,23.51680340625,55.0,88.0
69,23.614559718749998,24.051257999999997,51.0,93.0
70,23.806867218749996,24.0945271875,55.0,69.0
71,23.422252218749996,24.274815468749996,46.0,45.0
72,24.191482218749996,24.351738468749996,51.0,95.0
73,23.229944718749998,24.356546156249998,39.0,67.0
74,23.999174718749998,24.666641999999996,63.0,97.0
75,24.38378971875,24.689077875,58.0,86.0
76,24.576097218749997,24.847731562499998,55.0,89.0
77,25.15301971875,25.625775656249996,50.0,90.0
78,25.345327218749997,25.963916343749997,57.0,69.0
79,24.960712218749997,27.163434374999998,45.0,45.0
80,25.729942218749997,27.194684343749998,50.0,68.0
81,24.76840471875,27.238754812499998,38.0,65.0
82,26.114557218749997,27.850933687499996,57.0,71.0
83,25.922249718749995,27.896606718749997,62.0,72.0
84,25.53763471875,27.906222093749996,66.0,100.0
85,28.614554718749996,28.957503093749995,55.0,47.0
86,28.229939718749996,28.99275946875,50.0,42.0
87,27.845324718749996,29.100932437499996,43.0,68.0
88,28.999169718749997,29.442278249999998,70.0,50.0
89,29.383784718749997,30.149008312499998,41.0,63.0
90,29.768399718749997,30.214713374999995,48.0,55.0
91,30.537629718749997,30.927853687499997,65.0,59.0
92,30.153014718749997,30.960706218749998,69.0,67.0
93,31.306859718749998,31.783622062499997,46.0,28.0
94,30.922244718749997,31.854134812499996,39.0,52.0
95,31.691474718749998,32.45429446875,63.0,73.0
96,32.07608971875,32.552050781249996,55.0,40.0
97,32.84531971875,33.791632875,46.0,48.0
98,32.460704718749994,33.80525465624999,34.0,42.0
99,33.229934718749995,33.99355575,50.0,72.0
100,33.61454971875,33.999164718749995,58.0,63.0
101,34.38377971875,34.91102278125,50.0,69.0
102,33.999164718749995,34.931054812499994,43.0,69.0
103,35.15300971875,35.60653490625,55.0,65.0
104,34.768394718749995,35.633778468749995,62.0,76.0
105,36.306854718749996,36.532014749999995,53.0,53.0
106,35.537624718749996,36.5784890625,41.0,67.0
107,35.92223971875,36.58810443749999,48.0,57.0
108,36.69146971874999,37.076084718749996,57.0,59.0
109,36.306854718749996,37.076084718749996,60.0,69.0
110,37.46069971874999,38.7387433125,41.0,38.0
111,38.22992971874999,38.75637149999999,50.0,56.0
112,37.076084718749996,38.877364968749994,34.0,73.0
113,37.84531471875,39.108133968749996,46.0,56.0
114,38.99915971874999,39.381370874999995,50.0,63.0
115,38.61454471875,39.4791271875,58.0,92.0
116,39.38377471875,40.137780375,44.0,62.0
117,40.15300471875,41.225920312499994,39.0,69.0
118,40.537619718749994,41.298035625,46.0,53.0
119,40.92223471875,41.32207406249999,51.0,65.0
120,41.306849718749994,41.79723384374999,55.0,70.0
121,41.69146471875,42.589701,41.0,55.0
122,42.46069471875,43.22591831249999,60.0,77.0
123,42.845309718749995,43.3220720625,53.0,69.0
124,43.614539718749995,44.29082109375,46.0,41.0
125,43.22992471875,44.36293640624999,34.0,79.0
126,43.99915471874999,44.745147562499994,50.0,71.0
127,44.383769718749996,44.77239112499999,53.0,68.0
128,44.76838471874999,45.661012031249996,43.0,72.0
129,45.152999718749996,45.665819718749994,50.0,67.0
130,45.53761471874999,46.27799859374999,62.0,85.0
131,42.076079718749995,46.30684471874999,48.0,57.0
132,45.922229718749996,46.30684471874999,55.0,73.0
133,47.07607471874999,47.984727656249994,51.0,63.0
134,48.22991971875,48.517579687499996,51.0,52.0
135,46.69145971875,48.540015562499995,46.0,48.0
136,47.46068971875,48.57447065624999,55.0,60.0
137,46.30684471874999,48.632964187499994,39.0,72.0
138,47.84530471874999,49.48472615624999,63.0,88.0
139,48.614534718749994,49.51677740624999,58.0,72.0
140,48.99914971875,49.578476062499995,55.0,68.0
141,50.152994718749994,51.08248096874999,50.0,78.0
142,50.53760971874999,51.371743499999994,54.0,73.0
143,51.30683971874999,51.824467406249994,50.0,59.0
144,49.383764718749994,52.34850534374999,38.0,81.0
145,49.76837971875,52.35651815625,45.0,58.0
146,50.922224718749995,52.4743065,62.0,72.0
147,51.691454718749995,52.48392187499999,57.0,72.0
148,52.07606971874999,52.52558849999999,54.0,56.0
149,52.84529971874999,53.344497937499995,50.0,60.0
150,52.460684718749995,53.36372868749999,43.0,95.0
151,53.229914718749995,54.058439531249995,62.0,100.0
152,53.61452971874999,54.109721531249996,55.0,82.0
153,53.999144718749996,54.76757343749999,41.0,83.0
154,54.38375971874999,54.775586249999996,48.0,66.0
155,54.768374718749996,55.54722009374999,60.0,90.0
156,55.15298971874999,55.57686749999999,53.0,86.0
157,55.537604718749996,56.39818078124999,39.0,73.0
158,55.92221971874999,56.510360156249995,51.0,86.0
159,56.30683471875,56.734718906249995,55.0,93.0
160,56.69144971874999,57.147378749999994,58.0,99.0
161,57.07606471875,58.031191968749994,34.0,83.0
162,57.460679718749994,58.085679093749995,46.0,77.0
163,58.229909718749994,58.626543937499996,53.0,81.0
164,57.84529471874999,58.65859518749999,58.0,97.0
165,58.61452471874999,59.44625465624999,43.0,83.0
166,58.999139718749994,59.451863624999994,50.0,64.0
167,59.38375471874999,60.17221546875,62.0,96.0
168,59.768369718749994,60.19705518749999,55.0,89.0
169,60.537599718749995,60.963881343749996,48.0,71.0
170,60.15298471874999,60.97670184374999,41.0,76.0
171,61.306829718749995,61.830066374999994,53.0,79.0
172,60.92221471874999,61.86051506249999,60.0,93.0
173,62.076059718749995,63.181026562499994,41.0,49.0
174,61.69144471874999,63.31083412499999,34.0,92.0
175,62.46067471874999,63.51836596874999,46.0,83.0
176,62.845289718749996,63.640961999999995,50.0,77.0
177,63.22990471874999,63.931025812499996,58.0,100.0
178,63.614519718749996,63.993525749999996,53.0,81.0
179,64.38374971875,64.77798009374999,53.0,70.0
180,63.99913471874999,64.81644159375,44.0,102.0
181,64.76836471875,65.94544687499999,39.0,89.0
182,65.15297971874999,65.95986993749999,46.0,50.0
183,65.53759471874999,66.00634425,51.0,88.0
184,65.92220971875,66.33246571874999,63.0,99.0
185,66.30682471875,67.21066996875,41.0,65.0
186,66.69143971874999,67.27637503125,48.0,66.0
187,67.07605471874999,67.80201553124999,57.0,71.0
188,67.07605471874999,67.83647062499999,60.0,70.0
189,67.46066971875,68.03759221874999,53.0,76.0
190,67.84528471875,68.62493137499999,46.0,82.0
191,68.22989971874999,68.67781593749999,53.0,89.0
192,68.61451471874999,69.394161375,45.0,67.0
193,68.99912971875,69.445443375,57.0,79.0
194,69.38374471875,70.18582724999999,43.0,68.0
195,69.76835971874999,70.21146825,50.0,66.0
196,70.15297471874999,70.90297396874999,62.0,82.0
197,70.15297471874999,71.04480075,58.0,93.0
198,70.53758971875,71.16419165625,55.0,72.0
199,70.92220471875,72.36130584374999,39.0,79.0
200,71.30681971874999,72.52316465624999,46.0,70.0
201,71.69143471874999,72.54479925,51.0,75.0
202,72.07604971874999,72.98390137499999,55.0,90.0
203,71.69143471874999,73.06643334374999,58.0,95.0
204,71.69143471874999,73.08726665625,63.0,92.0
205,73.22989471874999,73.45425346875,51.0,54.0
206,72.84527971874999,73.46226628125,46.0,62.0
207,72.46066471875,73.5464008125,39.0,95.0
208,73.22989471874999,73.95665681249999,58.0,102.0
209,73.22989471874999,74.05200928125,63.0,107.0
210,73.61450971874999,74.35248974999999,55.0,88.0
211,74.76835471874999,75.04880315624999,66.0,90.0
212,73.99912471875,75.06162365624999,38.0,75.0
213,74.76835471874999,75.06482878124999,57.0,86.0
214,74.76835471874999,75.06803390625,62.0,85.0
215,74.76835471874999,75.07043775,50.0,92.0
216,74.38373971875,75.092873625,45.0,57.0
217,75.15296971874999,75.37011693749999,38.0,60.0
218,75.15296971874999,75.3797323125,50.0,75.0
219,75.15296971874999,75.39896306249999,66.0,95.0
220,75.15296971874999,75.40537331249999,57.0,89.0
221,75.15296971874999,75.40617459375,45.0,67.0
222,75.15296971874999,75.40617459375,62.0,96.0
223,75.53758471875,75.89495615624999,66.0,122.0
224,75.53758471875,75.90857793749998,62.0,122.0
225,75.92219971875,76.09607774999999,62.0,75.0
226,75.92219971875,76.10489184375,66.0,76.0
227,75.53758471875,76.1681930625,57.0,99.0
228,75.53758471875,76.18421868749999,38.0,78.0
229,75.53758471875,76.20985968749999,50.0,112.0
230,75.53758471875,76.22668659374999,45.0,90.0
231,77.46065971875,77.77476196874998,55.0,89.0
232,77.65296721874999,77.84847984374998,58.0,96.0
233,77.26835221875,77.89575543749999,50.0,73.0
234,77.07604471875,78.46787024999999,43.0,97.0
235,78.03758221874999,78.49992149999999,50.0,72.0
236,78.22988971874999,78.59447268749999,58.0,97.0
237,77.84527471874999,78.605690625,62.0,100.0
238,78.42219721874999,78.63373546874999,55.0,86.0
239,78.99911971875,79.4085744375,53.0,86.0
240,79.57604221874999,79.66899084375,53.0,96.0
241,78.61450471874998,79.67059340624999,41.0,77.0
242,79.19142721875,79.67860621874999,60.0,92.0
243,78.80681221875,79.68181134374998,48.0,73.0
244,79.76834971874999,80.06722762499999,65.0,96.0
245,79.38373471874999,80.08325324999998,69.0,100.0
246,79.96065721874999,80.17059290625,60.0,96.0
247,80.72988721875,80.78116921875,53.0,30.0
248,80.72988721875,80.89655371874998,55.0,27.0
249,80.53757971875,80.97748312499999,51.0,92.0
250,80.34527221875,81.24430978125,46.0,46.0
251,80.15296471874998,81.27956615624998,39.0,81.0
252,80.92219471874999,81.33725840624999,58.0,99.0
253,81.11450221874999,81.37732246875,51.0,89.0
254,81.30680971874999,81.58886071874998,55.0,86.0
255,81.49911721874999,81.733892625,58.0,96.0
256,82.26834721875,82.43341115624999,58.0,107.0
257,82.07603971875,82.50873159374999,53.0,83.0
258,81.88373221875,82.794789,50.0,55.0
259,82.65296221874999,82.82203256249998,53.0,85.0
260,81.69142471874999,82.87171199999999,46.0,97.0
261,82.46065471874999,82.96385934374999,65.0,93.0
262,83.03757721874999,83.07603871874998,65.0,36.0
263,82.84526971874999,83.13052584375,58.0,112.0
264,83.03757721874999,83.2643398125,62.0,81.0
265,83.61449971875,84.07123003125,48.0,86.0
266,83.80680721875,84.14014021874999,55.0,88.0
267,83.22988471874999,84.2675439375,36.0,78.0
268,83.42219221874998,84.29078109374998,43.0,55.0
269,84.19142221874999,84.45584503124999,48.0,72.0
270,83.99911471875,84.69302428124999,63.0,107.0
271,84.38372971874999,84.71786399999999,60.0,107.0
272,84.57603721874999,84.78837674999998,55.0,95.0
273,85.15295971875,85.57523493749999,53.0,82.0
274,85.34526721875,85.70824762499998,57.0,86.0
275,84.76834471874999,85.84446543749999,41.0,65.0
276,84.96065221874998,85.8636961875,48.0,52.0
277,85.72988221874999,85.98709349999999,53.0,93.0
278,85.53757471875,86.1585676875,65.0,95.0
279,85.92218971874999,86.27635603124999,60.0,95.0
280,86.11449721874999,86.285170125,57.0,93.0
281,86.69141971874998,87.12010518749999,46.0,93.0
282,86.88372721875,87.22347046875,50.0,89.0
283,87.26834221874999,87.51754068749999,46.0,95.0
284,86.30680471874999,87.7354891875,34.0,89.0
285,86.49911221874999,87.75872634374998,41.0,64.0
286,87.07603471875,87.90696337499999,58.0,112.0
287,87.65295721874999,87.93020053125,53.0,88.0
288,87.46064971874999,87.95584153124999,50.0,82.0
289,88.03757221874999,88.31401424999999,50.0,96.0
290,88.22987971874998,88.43821284375,56.0,71.0
291,88.42218721875,88.55039221874999,52.0,77.0
292,88.42218721875,88.66737928124999,50.0,83.0
293,87.84526471874999,88.97186615624999,44.0,112.0
294,88.80680221875,89.07202631249999,50.0,72.0
295,88.61449471875,89.0816416875,58.0,122.0
296,88.99910971874999,89.34846834374999,56.0,127.0
297,89.19141721874999,89.362090125,50.0,99.0
298,89.76833971874998,90.19301878124999,51.0,92.0
299,89.96064721874998,90.34365965624998,55.0,85.0
300,89.57603221874999,90.40375574999999,46.0,48.0
301,89.38372471874999,90.44942878124999,39.0,92.0
302,90.34526221875,90.51673640624999,51.0,102.0
303,90.15295471875,90.83244121874999,63.0,112.0
304,90.53756971874999,90.85327453125,58.0,100.0
305,90.72987721874999,90.92699240625,55.0,95.0
306,91.30679971874999,91.52234437499999,53.0,90.0
307,91.11449221874999,91.740292875,48.0,55.0
308,91.49910721874998,91.7547159375,57.0,97.0
309,90.92218471874999,92.06080537499999,41.0,69.0
310,91.88372221875,92.14093349999999,48.0,79.0
311,91.69141471875,92.30199103124998,60.0,96.0
312,92.07602971875,92.31481153124999,57.0,99.0
313,92.26833721874999,92.38532428124999,53.0,90.0
314,93.03756721874998,93.20904140625,58.0,89.0
315,92.84525971874999,93.26673365624998,53.0,90.0
316,93.22987471874998,93.57843206249999,65.0,92.0
317,93.42218221875,93.86769459374999,53.0,82.0
318,92.46064471874999,93.8893291875,46.0,88.0
319,93.61448971875,93.93660478124998,62.0,107.0
320,92.65295221874999,93.94461759375,50.0,66.0
321,93.80679721874999,94.02714956249999,58.0,99.0
322,94.38371971874999,94.58884771874999,55.0,95.0
323,94.57602721874999,94.75631549999999,58.0,102.0
324,94.19141221874999,94.78596290624999,50.0,78.0
325,93.99910471874999,94.80439237499999,43.0,69.0
326,94.96064221875,95.22586631249999,58.0,92.0
327,94.76833471874998,95.35086618749999,62.0,95.0
328,95.15294971875,95.48147503124999,55.0,93.0
329,95.34525721874999,95.54958393749999,58.0,107.0
330,95.92217971874999,96.3124036875,51.0,99.0
331,96.11448721874999,96.40455103125,55.0,90.0
332,95.72987221874999,96.52394193749998,46.0,44.0
333,95.53756471874999,96.56721112499999,39.0,90.0
334,96.49910221874998,96.64653796875,51.0,99.0
335,96.30679471874998,96.89493515624999,63.0,127.0
336,96.69140971875,97.00791581249999,58.0,100.0
337,96.88371721875,97.04717859374999,55.0,89.0
338,97.46063971874999,97.7034279375,53.0,86.0
339,97.65294721874999,97.86047906249999,57.0,92.0
340,97.26833221874999,97.92858796875,48.0,67.0
341,98.03756221874998,98.17378003124999,48.0,75.0
342,97.07602471874999,98.21063896874999,41.0,67.0
343,97.84525471874998,98.50791431249999,60.0,97.0
344,98.22986971875,98.52634378124999,57.0,102.0
345,98.42217721875,98.62329881249998,53.0,95.0
346,98.99909971874999,99.45983643749999,50.0,92.0
347,99.19140721874999,99.76832971874998,57.0,92.0
348,99.57602221874998,99.77794509374999,50.0,95.0
349,99.38371471874999,100.02554099999999,66.0,117.0
350,99.76832971874998,100.03435509375,62.0,102.0
351,98.61448471874999,100.03515637499999,38.0,77.0
352,99.96063721875,100.112079375,57.0,100.0
353,98.80679221874999,100.17618187499998,45.0,75.0
354,100.15294471874999,100.59525196874999,57.0,77.0
355,100.15294471874999,100.62890578124998,62.0,100.0
356,100.15294471874999,100.63932243749998,66.0,112.0
357,100.72986721874999,100.82842481249999,57.0,96.0
358,100.72986721874999,100.84445043749999,66.0,69.0
359,100.72986721874999,100.85246324999999,62.0,73.0
360,100.53755971874999,101.01512334374999,50.0,100.0
361,100.92217471874999,101.11768734374999,57.0,72.0
362,100.92217471874999,101.38932168749999,62.0,85.0
363,101.11448221874998,101.48627671874999,50.0,99.0
364,100.34525221874999,101.50230234374999,45.0,100.0
365,100.15294471874999,101.51912924999999,38.0,88.0
366,101.30678971874998,101.72025084375,57.0,96.0
367,101.49909721875,101.72666109374998,62.0,100.0
368,100.92217471874999,101.78835974999998,66.0,97.0
369,102.07601971874999,102.54236540624998,51.0,92.0
370,101.88371221874999,102.66896784374998,46.0,35.0
371,102.26832721874999,102.71624343749998,55.0,78.0
372,101.69140471875,102.7258588125,39.0,82.0
373,102.65294221874998,102.80358309374999,51.0,82.0
374,102.46063471874999,103.11047381249999,63.0,112.0
375,102.84524971874998,103.1665635,58.0,100.0
376,103.03755721875,103.24188393749999,55.0,90.0
377,103.61447971874999,103.83403078125,53.0,89.0
378,103.80678721874999,104.04236390624999,57.0,95.0
379,103.42217221874999,104.11608178124999,48.0,62.0
380,104.19140221874999,104.31479953124999,48.0,74.0
381,103.22986471875,104.3380366875,41.0,61.0
382,103.99909471874999,104.63531203125,60.0,107.0
383,104.38370971874998,104.76592087499999,57.0,96.0
384,104.57601721874998,104.80838878124999,53.0,90.0
385,105.15293971874999,105.59684953124999,50.0,88.0
386,105.34524721874999,105.62569565624999,53.0,86.0
387,104.76832471875,105.81880443749999,38.0,76.0
388,104.96063221874999,105.83723390624999,45.0,82.0
389,105.72986221874999,105.95101584374999,50.0,89.0
390,105.92216971874998,106.25550271875,57.0,83.0
391,106.11447721874998,106.30598343749999,53.0,92.0
392,105.53755471874999,106.33563084374998,62.0,102.0
393,106.69139971874999,106.91655974999999,55.0,90.0
394,106.88370721874999,107.11527749999999,58.0,93.0
395,106.49909221875,107.17697615624999,50.0,63.0
396,107.26832221874999,107.3861105625,50.0,67.0
397,106.30678471875,107.43659128124999,43.0,73.0
398,107.07601471874999,107.73707174999998,62.0,90.0
399,107.46062971874998,107.78835374999998,58.0,96.0
400,107.65293721874998,107.92537284374998,55.0,85.0
401,108.22985971874999,108.70822462499999,48.0,77.0
402,108.42216721874999,108.74187843749999,55.0,79.0
403,107.84524471874998,108.88290393749999,36.0,79.0
404,108.03755221875,108.91976287499999,43.0,56.0
405,108.80678221874999,108.99989099999999,48.0,83.0
406,108.61447471874999,109.24508306249999,63.0,100.0
407,108.99908971874999,109.31399324999998,60.0,86.0
408,109.19139721874998,109.3957239375,55.0,90.0
409,109.76831971874999,109.9918771875,53.0,85.0
410,109.57601221875,110.10325528124999,48.0,66.0
411,109.38370471874998,110.11847962499999,41.0,65.0
412,109.96062721874999,110.17056290624998,57.0,90.0
413,110.34524221874999,110.55437662499999,57.0,83.0
414,110.53754971874999,110.82761353125,53.0,86.0
415,110.15293471874999,110.84844684374998,60.0,96.0
416,110.72985721874998,110.88450449999999,57.0,90.0
417,111.30677971875,111.73386262499999,46.0,82.0
418,111.49908721874999,111.80758049999999,50.0,88.0
419,111.11447221874998,111.90453553124999,41.0,59.0
420,110.92216471874998,112.03674693749998,34.0,85.0
421,111.88370221874999,112.18578524999998,46.0,107.0
422,112.26831721874998,112.29876590624998,44.0,28.0
423,111.69139471874999,112.49107340624998,58.0,107.0
424,112.07600971874999,112.503092625,53.0,99.0
425,112.26831721874998,112.51911824999999,50.0,102.0
426,112.65293221874998,112.90533581249998,50.0,93.0
427,112.84523971875,113.15132915624999,53.0,88.0
428,113.03754721874999,113.2835405625,50.0,97.0
429,113.42216221874999,113.62568765625,50.0,89.0
430,112.46062471874998,113.64171328124999,44.0,96.0
431,113.22985471874999,113.91655275,58.0,127.0
432,113.61446971874999,113.92136043749998,56.0,117.0
433,113.80677721874999,113.990270625,50.0,89.0
434,114.57600721875,114.7562955,55.0,86.0
435,114.38369971874998,114.82760953124999,51.0,93.0
436,113.99908471874998,115.07119903124999,39.0,90.0
437,114.96062221874999,115.14251306249999,51.0,89.0
438,114.19139221874998,115.15212843749998,46.0,86.0
439,114.76831471874999,115.18818609374999,58.0,107.0
440,115.34523721874999,115.54956393749998,58.0,107.0
441,115.15292971874999,115.55998059374998,55.0,88.0
442,115.92215971874998,116.15533256249999,53.0,85.0
443,116.11446721875,116.35725543749999,57.0,93.0
444,115.72985221874998,116.37969131249999,48.0,69.0
445,115.53754471874998,116.58802443749998,41.0,68.0
446,116.49908221874999,116.59443468749998,48.0,72.0
447,116.30677471874999,116.92776768749998,60.0,99.0
448,116.69138971874999,116.96783174999999,57.0,96.0
449,116.88369721874999,117.07600471874999,53.0,78.0
450,117.46061971874998,117.95100384374999,46.0,92.0
451,117.65292721874998,117.96702946874998,50.0,79.0
452,117.26831221874998,118.07199731249999,41.0,58.0
453,117.07600471874999,118.12728571874999,34.0,86.0
454,118.03754221874999,118.22183690624999,46.0,95.0
455,117.84523471874999,118.30276631249998,58.0,97.0
456,118.22984971874999,118.47904818749998,53.0,95.0
457,118.42215721874999,118.599240375,58.0,96.0
458,118.99907971874998,119.29795762499998,55.0,77.0
459,119.19138721874998,119.38289343749999,58.0,88.0
460,118.80677221874998,119.43177159374999,50.0,72.0
461,119.57600221874999,119.65693162499998,50.0,69.0
462,118.61446471874999,119.66814956249999,43.0,72.0
463,119.38369471875,120.07119403124999,62.0,93.0
464,119.76830971874999,120.10324528124998,58.0,97.0
465,119.96061721874999,120.17616187499999,55.0,82.0
466,120.53753971874998,120.96221878124999,51.0,92.0
467,120.72984721874998,121.03513537499998,55.0,72.0
468,120.34523221874998,121.16654549999998,46.0,38.0
469,120.15292471874999,121.19939803124998,39.0,75.0
470,121.11446221874999,121.27632103124999,51.0,90.0
471,120.92215471874998,121.57279509374999,63.0,107.0
472,121.30676971874999,121.61366043749999,58.0,88.0
473,121.49907721874999,121.66173731249998,55.0,89.0
474,122.07599971874998,122.32680074999999,53.0,93.0
475,122.26830721874998,122.47984546874999,57.0,89.0
476,121.88369221874999,122.55436462499999,48.0,67.0
477,121.69138471874999,122.79555028124999,41.0,64.0
478,122.46061471874998,123.17215246874999,60.0,95.0
479,122.84522971874999,123.17295374999999,57.0,90.0
480,122.65292221874999,123.18657553124999,48.0,81.0
481,123.03753721874999,123.20019731249998,53.0,76.0
482,123.61445971874998,123.94218374999998,55.0,92.0
483,123.80676721874998,124.03433109374998,58.0,86.0
484,123.42215221874999,124.08160668749998,50.0,79.0
485,123.22984471874999,124.69138171874998,43.0,79.0
486,124.19138221875,124.79715084374999,50.0,74.0
487,124.76830471874999,126.19859174999999,43.0,79.0
488,123.99907471874998,126.25067503124998,62.0,93.0
489,124.57599721874999,126.29554678124998,55.0,75.0
490,124.38368971874999,126.31557881249998,58.0,97.0
491,126.30676471874999,127.18496896874998,43.0,69.0
492,126.69137971874999,127.19378306249999,50.0,62.0
493,127.07599471874998,127.86445546874998,62.0,90.0
494,127.46060971874999,127.87006443749999,55.0,82.0
495,128.22983971875,128.95740309374997,48.0,61.0
496,128.61445471874998,129.4229475,60.0,79.0
497,128.99906971874998,129.42374878125,57.0,69.0
498,130.15291471875,131.90852193749998,55.0,83.0
499,129.38368471874998,132.36445096875,43.0,73.0
500,130.53752971875,132.37166249999999,57.0,61.0
501,129.76829971874997,132.47983546875,50.0,52.0
502,130.92214471875,132.87887353124998,62.0,71.0
503,131.69137471874998,133.21220653125,58.0,53.0
504,132.84521971874997,133.40291146874998,50.0,59.0
505,132.46060471874998,133.44938578125,43.0,77.0
506,133.61444971875,134.11525049999997,58.0,76.0
507,133.22983471875,134.1665325,62.0,93.0
508,133.99906471875,134.87807024999998,41.0,75.0
509,134.38367971875,134.87807024999998,48.0,69.0
510,134.76829471874998,135.50627475,60.0,93.0
511,135.15290971874998,135.55835803124998,57.0,83.0
512,136.30675471874997,136.95098484374998,51.0,92.0
513,136.69136971875,136.96220278124997,55.0,73.0
514,136.69136971875,136.99104890624997,58.0,95.0
515,135.53752471874998,136.99505531249997,39.0,93.0
516,136.69136971875,136.99665787499998,63.0,82.0
517,135.92213971874997,137.0142860625,46.0,66.0
518,137.07598471875,137.30515115625,55.0,85.0
519,137.07598471875,137.3347985625,51.0,73.0
520,137.07598471875,137.34201009375,58.0,99.0
521,137.07598471875,137.3460165,63.0,95.0
522,137.07598471875,137.42854846875,46.0,55.0
523,137.46059971875,137.72502253124998,55.0,92.0
524,137.46059971875,137.74184943749998,58.0,122.0
525,137.46059971875,137.74585584374998,63.0,122.0
526,137.46059971875,137.77870837499998,51.0,102.0
527,137.84521471875,138.11925290624998,63.0,112.0
528,137.84521471875,138.12245803124998,58.0,122.0
529,137.07598471875,138.14409262499998,39.0,59.0
530,137.46059971875,138.16252209374997,46.0,61.0
531,137.84521471875,138.1665285,51.0,92.0
532,138.22982971874998,138.48223331249997,63.0,127.0
533,138.22982971874998,138.49585509374998,58.0,127.0
534,138.42213721874998,138.57838706249998,55.0,96.0
535,138.99905971874998,139.22021334374998,55.0,97.0
536,139.19136721874997,139.3572324375,58.0,117.0
537,138.80675221874998,139.4597964375,50.0,85.0
538,139.57598221874997,139.75226409374997,50.0,95.0
539,138.61444471874998,139.76027690624997,43.0,93.0
540,139.76828971875,140.09521246875,58.0,122.0
541,139.38367471874997,140.124859875,62.0,100.0
542,139.96059721875,140.13447524999998,55.0,100.0
543,140.53751971875,140.97822440624998,53.0,93.0
544,141.11444221874999,141.1969741875,53.0,89.0
545,140.72982721875,141.23223056249998,60.0,97.0
546,140.34521221875,141.233833125,48.0,42.0
547,140.15290471875,141.24745490624997,41.0,75.0
548,141.30674971874998,141.6280635,65.0,107.0
549,140.92213471875,141.63046734374998,69.0,99.0
550,141.49905721874998,141.71620443749998,60.0,96.0
551,142.07597971874998,142.47341521874998,51.0,97.0
552,142.26828721874998,142.68014578125,55.0,79.0
553,141.69136471874998,143.10963253124999,39.0,76.0
554,141.88367221874998,143.27710031249998,46.0,72.0
555,142.65290221874997,143.29312593749998,51.0,100.0
556,142.46059471874997,143.66492043749997,63.0,112.0
557,143.03751721875,143.66892684374997,55.0,92.0
558,142.84520971874997,143.69536912499998,58.0,99.0
559,143.61443971875,144.04472775,51.0,99.0
560,143.80674721875,144.13286868749998,55.0,93.0
561,143.22982471875,144.24825318749998,39.0,79.0
562,143.42213221875,144.25386215625,46.0,72.0
563,144.19136221875,144.35963128125,51.0,96.0
564,143.99905471875,144.68254762499998,63.0,117.0
565,144.38366971874999,144.80674621875,58.0,99.0
566,144.57597721874998,144.81155390625,57.0,97.0
567,145.15289971874998,145.38687384374998,55.0,99.0
568,145.34520721874998,145.57437365624997,58.0,100.0
569,144.96059221874998,145.66491843749998,50.0,83.0
570,145.72982221874997,145.887674625,50.0,79.0
571,144.76828471874998,145.95177712499998,43.0,74.0
572,145.53751471874997,146.24664862499998,62.0,107.0
573,145.92212971874997,146.25546271874998,58.0,117.0
574,146.11443721874997,146.29392421875,55.0,97.0
575,146.69135971875,146.92373128124999,53.0,90.0
576,146.88366721875,147.14007721874998,57.0,99.0
577,146.49905221875,147.1424810625,48.0,86.0
578,147.26828221875,147.36443596874997,48.0,79.0
579,146.30674471875,147.40690387499998,41.0,73.0
580,147.07597471875,147.74504456249997,60.0,100.0
581,147.46058971875,147.76187146874997,57.0,99.0
582,147.65289721874998,147.8379931875,53.0,88.0
583,148.22981971874998,148.6328641875,51.0,93.0
584,148.42212721874998,148.83719090625,55.0,79.0
585,148.61443471874998,149.15449828124997,63.0,99.0
586,148.99904971874997,149.20978668749999,58.0,70.0
587,147.84520471874998,150.92212471874998,39.0,88.0
588,148.03751221874998,150.92212471874998,46.0,95.0
589,148.80674221874997,150.92212471874998,51.0,93.0
590,149.19135721874997,150.92212471874998,55.0,74.0
591,149.38366471874997,150.92212471874998,58.0,72.0
592,149.38366471874997,150.92212471874998,63.0,83.0
593,151.30673971874998,152.05273256249998,50.0,63.0
594,150.92212471874998,152.09279662499998,43.0,62.0
595,151.69135471874998,152.57757178125,70.0,77.0
596,152.07596971874997,152.60000765624997,62.0,66.0
597,152.46058471874997,153.28430184374997,41.0,56.0
598,152.84519971875,153.3283723125,48.0,48.0
599,153.22981471875,153.99343574999997,69.0,77.0
600,153.61442971875,154.02628828124998,65.0,62.0
601,153.99904471874999,154.77228112499998,39.0,60.0
602,154.38365971874998,154.85801821874998,46.0,55.0
603,154.76827471874998,155.4998445,63.0,64.0
604,155.15288971874998,155.6264469375,55.0,61.0
605,155.53750471874997,156.96298406249997,46.0,58.0
606,156.30673471875,156.97259943749998,53.0,59.0
607,155.92211971874997,156.98141353124998,50.0,58.0
608,156.69134971875,157.07596471875,58.0,54.0
609,157.07596471875,158.44295053124998,43.0,76.0
610,157.46057971874998,158.47900818749997,50.0,53.0
611,157.84519471874998,158.64887981249998,58.0,83.0
612,158.22980971874998,158.73782203124998,55.0,72.0
613,158.61442471874997,159.43814184374997,41.0,59.0
614,158.99903971874997,159.71778899999998,53.0,64.0
615,159.38365471875,160.1200321875,60.0,78.0
616,159.76826971875,160.17612187499998,57.0,53.0
617,161.30672971874998,161.74182543749998,65.0,58.0
618,160.92211471874998,161.85079968749997,62.0,65.0
619,161.69134471874997,162.33156843749998,70.0,70.0
620,162.07595971874997,162.56954896874998,62.0,75.0
621,160.53749971874998,162.65047837499998,58.0,72.0
622,160.15288471875,162.8732345625,46.0,60.0
623,162.46057471875,163.20095859375,65.0,78.0
624,162.84518971875,163.25304187499998,62.0,71.0
625,163.22980471875,164.18573324999997,39.0,93.0
626,163.61441971874999,164.22499603125,51.0,79.0
627,163.99903471874998,164.50624574999998,55.0,107.0
628,164.38364971874998,164.8155403125,58.0,107.0
629,164.76826471874998,165.73220606249998,41.0,83.0
630,165.15287971874997,165.79069959375,48.0,81.0
631,165.53749471874997,166.12002618749997,57.0,79.0
632,165.53749471874997,166.15688512499997,60.0,83.0
633,165.92210971875,166.45416046875,53.0,70.0
634,166.69133971875,167.14726875,53.0,77.0
635,166.30672471875,167.82835781249997,46.0,99.0
636,167.07595471874998,168.15207543749997,62.0,100.0
637,167.46056971874998,168.2690625,58.0,82.0
638,168.22979971874997,168.72178640624998,50.0,88.0
639,167.84518471874998,168.76265174999997,43.0,78.0
640,168.61441471874997,169.20495899999997,62.0,93.0
641,168.99902971875,169.56072787499997,55.0,82.0
642,168.61441471874997,169.5879714375,58.0,83.0
643,169.38364471875,170.83636762499998,39.0,74.0
644,169.76825971875,170.932521375,46.0,64.0
645,170.15287471874998,171.01905974999997,51.0,54.0
646,170.53748971874998,171.39646321874997,55.0,90.0
647,170.15287471874998,171.52787334374997,63.0,96.0
648,170.15287471874998,171.54389896874997,58.0,79.0
649,171.69133471874997,171.92851396874997,51.0,83.0
650,171.30671971874997,171.9565588125,46.0,70.0
651,170.92210471874998,172.0751484375,39.0,73.0
652,171.69133471874997,172.22979571874998,63.0,112.0
653,172.07594971874997,172.30591743749997,55.0,92.0
654,171.69133471874997,172.30751999999998,58.0,107.0
655,172.46056471875,172.67691065625,57.0,88.0
656,172.46056471875,172.68492346875,66.0,99.0
657,172.46056471875,172.68973115625,62.0,96.0
658,172.84517971875,173.0046346875,45.0,53.0
659,172.84517971875,173.01905774999997,50.0,75.0
660,172.84517971875,173.03428209375,57.0,86.0
661,172.46056471875,173.04309618749997,38.0,93.0
662,172.84517971875,173.04950643749999,62.0,93.0
663,172.84517971875,173.05110899999997,66.0,96.0
664,173.22979471875,173.3700189375,38.0,63.0
665,173.22979471875,173.40287146875,50.0,89.0
666,173.22979471875,173.41328812499998,45.0,76.0
667,173.22979471875,173.44133296874998,57.0,89.0
668,173.22979471875,173.45575603125,62.0,99.0
669,173.22979471875,173.4597624375,66.0,96.0
670,173.61440971874998,173.75303137499998,38.0,55.0
671,173.61440971874998,173.78107621874997,57.0,90.0
672,173.61440971874998,173.78107621874997,62.0,99.0
673,173.61440971874998,173.78428134374997,50.0,85.0
674,173.61440971874998,173.80591593749998,45.0,82.0
675,173.61440971874998,173.80912106249997,66.0,97.0
676,173.99902471874998,174.19934503124998,38.0,72.0
677,173.99902471874998,174.20415271874998,50.0,117.0
678,173.99902471874998,174.21136424999997,45.0,95.0
679,173.99902471874998,174.21857578124997,57.0,117.0
680,173.99902471874998,174.22819115624998,62.0,122.0
681,173.99902471874998,174.23460140625,66.0,122.0
682,174.38363971874998,174.51825496874997,38.0,70.0
683,174.38363971874998,174.53988956249998,50.0,102.0
684,174.38363971874998,174.54629981249997,45.0,99.0
685,174.38363971874998,174.5655305625,57.0,95.0
686,174.38363971874998,174.57434465625,62.0,100.0
687,174.38363971874998,174.58556259374998,66.0,100.0
688,174.76825471874997,174.91168406249997,38.0,78.0
689,174.76825471874997,174.91729303124998,45.0,99.0
690,174.76825471874997,174.92049815624998,50.0,102.0
691,174.76825471874997,174.92931224999998,62.0,107.0
692,174.76825471874997,174.93652378124997,57.0,99.0
693,174.76825471874997,174.9469404375,66.0,112.0
694,175.15286971874997,175.39645921874998,50.0,112.0
695,175.15286971874997,175.410081,57.0,107.0
696,175.15286971874997,175.41969637499997,62.0,112.0
697,175.15286971874997,175.42690790625,66.0,122.0
698,175.15286971874997,175.43171559374997,45.0,97.0
699,175.15286971874997,175.46376684375,38.0,83.0
700,175.92209971875,176.23620196874998,55.0,89.0
701,176.11440721875,176.30991984374998,58.0,96.0
702,175.72979221875,176.35719543749997,50.0,73.0
703,175.53748471875,176.92931025,43.0,97.0
704,176.49902221874999,176.96136149999998,50.0,72.0
705,176.69132971874998,177.05591268749998,58.0,97.0
706,176.30671471875,177.06713062499998,62.0,100.0
707,176.88363721874998,177.09517546874997,55.0,86.0
708,177.46055971874998,177.87001443749998,53.0,86.0
709,178.03748221874997,178.13043084375,53.0,96.0
710,177.07594471874998,178.13203340624997,41.0,77.0
711,177.65286721874998,178.14004621874997,60.0,92.0
712,177.26825221874998,178.14325134374997,48.0,73.0
713,178.22978971874997,178.52866762499997,65.0,96.0
714,177.84517471874997,178.54469324999997,69.0,100.0
715,178.42209721874997,178.63203290624998,60.0,96.0
716,179.19132721875,179.24260921874998,53.0,30.0
717,179.19132721875,179.35799371874998,55.0,27.0
718,178.99901971875,179.43892312499997,51.0,92.0
719,178.80671221875,179.70574978124998,46.0,46.0
720,178.61440471874997,179.74100615624997,39.0,81.0
721,179.38363471875,179.79869840624997,58.0,99.0
722,179.57594221875,179.83876246875,51.0,89.0
723,179.76824971874998,180.05030071874998,55.0,86.0
724,179.96055721874998,180.195332625,58.0,96.0
725,180.72978721874998,180.89485115624998,58.0,107.0
726,180.53747971874998,180.97017159374997,53.0,83.0
727,180.34517221874998,181.256229,50.0,55.0
728,181.11440221874997,181.28347256249998,53.0,85.0
729,180.15286471874998,181.33315199999998,46.0,97.0
730,180.92209471874997,181.42529934374997,65.0,93.0
731,181.49901721874997,181.53747871874998,65.0,36.0
732,181.30670971874997,181.59196584375,58.0,112.0
733,181.49901721874997,181.72577981249998,62.0,81.0
734,182.07593971875,182.53267003124998,48.0,86.0
735,182.26824721875,182.60158021874997,55.0,88.0
736,181.69132471874997,182.72898393749998,36.0,78.0
737,181.88363221874997,182.75222109374997,43.0,55.0
738,182.65286221875,182.91728503124997,48.0,72.0
739,182.46055471875,183.15446428124997,63.0,107.0
740,182.84516971875,183.17930399999997,60.0,107.0
741,183.03747721874998,183.24981674999998,55.0,95.0
742,183.61439971874998,184.03667493749998,53.0,82.0
743,183.80670721874998,184.16968762499997,57.0,86.0
744,183.22978471874998,184.30590543749997,41.0,65.0
745,183.42209221874998,184.3251361875,48.0,52.0
746,184.19132221874997,184.44853349999997,53.0,93.0
747,183.99901471874998,184.6200076875,65.0,95.0
748,184.38362971874997,184.73779603124999,60.0,95.0
749,184.57593721874997,184.746610125,57.0,93.0
750,185.15285971874997,185.58154518749998,46.0,93.0
751,185.34516721875,185.68491046875,50.0,89.0
752,185.72978221875,185.97898068749998,46.0,95.0
753,184.76824471874997,186.1969291875,34.0,89.0
754,184.96055221874997,186.22016634374998,41.0,64.0
755,185.53747471875,186.36840337499999,58.0,112.0
756,186.11439721874999,186.39164053124998,53.0,88.0
757,185.92208971875,186.41728153124998,50.0,82.0
758,186.49901221874998,186.77545424999997,50.0,96.0
759,186.69131971874998,186.89965284374998,56.0,71.0
760,186.88362721874998,187.01183221875,52.0,77.0
761,186.88362721874998,187.12881928124997,50.0,83.0
762,186.30670471874998,187.43330615624998,44.0,112.0
763,187.26824221874998,187.53346631249997,50.0,72.0
764,187.07593471874998,187.54308168749998,58.0,122.0
765,187.46054971874997,187.80990834374998,56.0,127.0
766,187.65285721874997,187.823530125,50.0,99.0
767,188.22977971874997,188.65445878124999,51.0,92.0
768,188.42208721874997,188.80509965624998,55.0,85.0
769,188.03747221874997,188.86519574999997,46.0,48.0
770,187.84516471874997,188.91086878124997,39.0,92.0
771,188.80670221875,188.97817640625,51.0,102.0
772,188.61439471875,189.29388121875,63.0,112.0
773,188.99900971875,189.31471453125,58.0,100.0
774,189.19131721875,189.38843240625,55.0,95.0
775,189.76823971874998,189.98378437499997,53.0,90.0
776,189.57593221874998,190.20173287499998,48.0,55.0
777,189.96054721874998,190.2161559375,57.0,97.0
778,189.38362471874999,190.52224537499998,41.0,69.0
779,190.34516221874998,190.60237349999997,48.0,79.0
780,190.15285471874998,190.76343103124998,60.0,96.0
781,190.53746971874997,190.77625153124998,57.0,99.0
782,190.72977721874997,190.84676428125,53.0,90.0
783,191.49900721874997,191.67048140625,58.0,89.0
784,191.30669971874997,191.72817365624996,53.0,90.0
785,191.69131471874996,192.03987206249997,65.0,92.0
786,191.88362221875,192.32913459374998,53.0,82.0
787,190.92208471874997,192.3507691875,46.0,88.0
788,192.07592971875,192.39804478124998,62.0,107.0
789,191.11439221874997,192.40605759374998,50.0,66.0
790,192.26823721875,192.48858956249998,58.0,99.0
791,192.84515971874998,193.05028771874998,55.0,95.0
792,193.03746721874998,193.21775549999998,58.0,102.0
793,192.65285221874998,193.24740290625,50.0,78.0
794,192.46054471875,193.26583237499997,43.0,69.0
795,193.42208221874998,193.68730631249997,58.0,92.0
796,193.22977471874998,193.81230618749998,62.0,95.0
797,193.61438971874998,193.94291503124998,55.0,93.0
798,193.80669721874997,194.01102393749997,58.0,107.0
799,194.38361971874997,194.77384368749998,51.0,99.0
800,194.57592721874997,194.86599103125,55.0,90.0
801,194.19131221874997,194.98538193749997,46.0,44.0
802,193.99900471874997,195.02865112499998,39.0,90.0
803,194.96054221874996,195.10797796875,51.0,99.0
804,194.76823471874997,195.35637515624998,63.0,127.0
805,195.15284971875,195.46935581249997,58.0,100.0
806,195.34515721875,195.50861859375,55.0,89.0
807,195.92207971874998,196.1648679375,53.0,86.0
808,196.11438721874998,196.32191906249997,57.0,92.0
809,195.72977221874999,196.39002796875,48.0,67.0
810,196.49900221874998,196.63522003125,48.0,75.0
811,195.53746471875,196.67207896875,41.0,67.0
812,196.30669471874998,196.96935431249997,60.0,97.0
813,196.69130971874998,196.98778378125,57.0,102.0
814,196.88361721874998,197.08473881249998,53.0,95.0
815,197.46053971874997,197.92127643749998,50.0,92.0
816,197.65284721874997,198.22976971874996,57.0,92.0
817,198.03746221874997,198.23938509374997,50.0,95.0
818,197.84515471874997,198.486981,66.0,117.0
819,198.22976971874996,198.49579509375,62.0,102.0
820,197.07592471874997,198.49659637499997,38.0,77.0
821,198.42207721875,198.573519375,57.0,100.0
822,197.26823221874997,198.63762187499998,45.0,75.0
823,198.61438471875,199.05669196875,57.0,77.0
824,198.61438471875,199.09034578124997,62.0,100.0
825,198.61438471875,199.10076243749998,66.0,112.0
826,199.19130721874998,199.28986481249999,57.0,96.0
827,199.19130721874998,199.30589043749998,66.0,69.0
828,199.19130721874998,199.31390324999998,62.0,73.0
829,198.99899971874999,199.47656334374997,50.0,100.0
830,199.38361471874998,199.57912734374997,57.0,72.0
831,199.38361471874998,199.85076168749998,62.0,85.0
832,199.57592221874998,199.94771671874997,50.0,99.0
833,198.80669221875,199.96374234374997,45.0,100.0
834,198.61438471875,199.98056924999997,38.0,88.0
835,199.76822971874998,200.18169084374998,57.0,96.0
836,199.96053721874998,200.18810109374996,62.0,100.0
837,199.38361471874998,200.24979974999997,66.0,97.0
838,200.53745971874997,201.00380540624997,51.0,92.0
839,200.34515221874997,201.13040784374996,46.0,35.0
840,200.72976721874997,201.17768343749998,55.0,78.0
841,200.15284471874998,201.1872988125,39.0,82.0
842,201.11438221874997,201.26502309375,51.0,82.0
843,200.92207471874997,201.5719138125,63.0,112.0
844,201.30668971874996,201.62800349999998,58.0,100.0
845,201.49899721875,201.7033239375,55.0,90.0
846,202.07591971875,202.29547078124997,53.0,89.0
847,202.26822721874998,202.50380390624997,57.0,95.0
848,201.88361221875,202.57752178124997,48.0,62.0
849,202.65284221874998,202.77623953124998,48.0,74.0
850,201.69130471875,202.79947668749998,41.0,61.0
851,202.46053471874998,203.09675203125,60.0,107.0
852,202.84514971874998,203.227360875,57.0,96.0
853,203.03745721874998,203.26982878124997,53.0,90.0
854,203.61437971874997,204.05828953124998,50.0,88.0
855,203.80668721874997,204.08713565624998,53.0,86.0
856,203.22976471874998,204.2802444375,38.0,76.0
857,203.42207221874997,204.29867390624997,45.0,82.0
858,204.19130221874997,204.41245584374997,50.0,89.0
859,204.38360971874997,204.71694271874998,57.0,83.0
860,204.57591721874996,204.76742343749999,53.0,92.0
861,203.99899471874997,204.79707084374996,62.0,102.0
862,205.15283971875,205.37799975,55.0,90.0
863,205.34514721875,205.57671749999997,58.0,93.0
864,204.96053221875,205.63841615624997,50.0,63.0
865,205.72976221874998,205.84755056249998,50.0,67.0
866,204.76822471875,205.89803128124998,43.0,73.0
867,205.53745471874998,206.19851174999997,62.0,90.0
868,205.92206971874998,206.24979374999998,58.0,96.0
869,206.11437721874998,206.38681284374996,55.0,85.0
870,206.69129971874997,207.16966462499997,48.0,77.0
871,206.88360721874997,207.20331843749997,55.0,79.0
872,206.30668471874998,207.34434393749999,36.0,79.0
873,206.49899221874998,207.38120287499999,43.0,56.0
874,207.26822221874997,207.46133099999997,48.0,83.0
875,207.07591471874997,207.70652306249997,63.0,100.0
876,207.46052971874997,207.77543324999996,60.0,86.0
877,207.65283721874997,207.8571639375,55.0,90.0
878,208.22975971875,208.45331718749998,53.0,85.0
879,208.03745221875,208.56469528124998,48.0,66.0
880,207.84514471874996,208.57991962499997,41.0,65.0
881,208.42206721875,208.63200290624997,57.0,90.0
882,208.80668221874998,209.01581662499999,57.0,83.0
883,208.99898971874998,209.28905353124998,53.0,86.0
884,208.61437471874999,209.30988684374998,60.0,96.0
885,209.19129721874998,209.34594449999997,57.0,90.0
886,209.76821971874998,210.19530262499998,46.0,82.0
887,209.96052721874997,210.26902049999998,50.0,88.0
888,209.57591221874998,210.36597553124997,41.0,59.0
889,209.38360471874998,210.49818693749998,34.0,85.0
890,210.34514221874997,210.64722524999996,46.0,107.0
891,210.72975721874997,210.76020590624998,44.0,28.0
892,210.15283471874997,210.95251340624998,58.0,107.0
893,210.53744971874997,210.96453262499998,53.0,99.0
894,210.72975721874997,210.98055824999997,50.0,102.0
895,211.11437221874996,211.36677581249998,50.0,93.0
896,211.30667971875,211.61276915624998,53.0,88.0
897,211.49898721875,211.7449805625,50.0,97.0
898,211.88360221874999,212.08712765624998,50.0,89.0
899,210.92206471874997,212.10315328124997,44.0,96.0
900,211.69129471875,212.37799274999998,58.0,127.0
901,212.07590971874998,212.38280043749998,56.0,117.0
902,212.26821721874998,212.45171062499998,50.0,89.0
903,213.03744721874997,213.21773549999997,55.0,86.0
904,212.84513971874998,213.28904953125,51.0,93.0
905,212.46052471874998,213.53263903124997,39.0,90.0
906,213.42206221874997,213.60395306249998,51.0,89.0
907,212.65283221874998,213.61356843749996,46.0,86.0
908,213.22975471874997,213.64962609375,58.0,107.0
909,213.80667721874997,214.01100393749996,58.0,107.0
910,213.61436971874997,214.02142059374998,55.0,88.0
911,214.38359971874996,214.6167725625,53.0,85.0
912,214.57590721875,214.81869543749997,57.0,93.0
913,214.19129221874996,214.84113131249998,48.0,69.0
914,213.99898471874997,215.04946443749998,41.0,68.0
915,214.96052221875,215.05587468749997,48.0,72.0
916,214.76821471875,215.38920768749998,60.0,99.0
917,215.15282971874998,215.42927174999997,57.0,96.0
918,215.34513721874998,215.53744471874998,53.0,78.0
919,215.92205971874998,216.41244384374997,46.0,92.0
920,216.11436721874998,216.42846946874997,50.0,79.0
921,215.72975221874998,216.53343731249998,41.0,58.0
922,215.53744471874998,216.58872571874997,34.0,86.0
923,216.49898221874997,216.68327690624997,46.0,95.0
924,216.30667471874997,216.76420631249997,58.0,97.0
925,216.69128971874997,216.94048818749997,53.0,95.0
926,216.88359721874997,217.06068037499998,58.0,96.0
927,217.46051971874996,217.75939762499996,55.0,77.0
928,217.65282721874996,217.84433343749998,58.0,88.0
929,217.26821221874997,217.89321159374998,50.0,72.0
930,218.03744221875,218.11837162499998,50.0,69.0
931,217.07590471874997,218.12958956249997,43.0,72.0
932,217.84513471875,218.53263403124998,62.0,93.0
933,218.22974971874999,218.56468528124998,58.0,97.0
934,218.42205721874998,218.63760187499997,55.0,82.0
935,218.99897971874998,219.42365878124997,51.0,92.0
936,219.19128721874998,219.49657537499996,55.0,72.0
937,218.80667221874998,219.62798549999997,46.0,38.0
938,218.61436471874998,219.66083803124997,39.0,75.0
939,219.57590221874997,219.73776103125,51.0,90.0
940,219.38359471874998,220.03423509374997,63.0,107.0
941,219.76820971874997,220.07510043749997,58.0,88.0
942,219.96051721874997,220.12317731249996,55.0,89.0
943,220.53743971874997,220.78824074999997,53.0,93.0
944,220.72974721874996,220.94128546874998,57.0,89.0
945,220.34513221874997,221.015804625,48.0,67.0
946,220.15282471874997,221.25699028124998,41.0,64.0
947,220.92205471874996,221.63359246874998,60.0,95.0
948,221.30666971875,221.63439375,57.0,90.0
949,221.11436221875,221.64801553124997,48.0,81.0
950,221.49897721874999,221.66163731249998,53.0,76.0
951,222.46051471874998,223.1584306875,55.0,89.0
952,222.84512971874997,223.17846271874998,62.0,89.0
953,223.22974471874997,223.30105874999998,55.0,38.0
954,222.07589971874998,223.37878303124998,50.0,67.0
955,223.22974471874997,223.85554537499996,62.0,83.0
956,223.22974471874997,223.86756459374996,58.0,89.0
957,223.61435971874997,224.08070540624996,50.0,97.0
958,224.19128221874996,224.28583340624996,50.0,67.0
959,221.69128471874998,224.29224365624998,43.0,83.0
960,223.99897471874996,224.33711540624998,62.0,99.0
961,223.99897471874996,224.41724353124997,58.0,112.0
962,224.38358971875,224.68006378124997,55.0,96.0
963,224.76820471874998,225.17205046874997,58.0,86.0
964,224.76820471874998,225.19288378124998,63.0,93.0
965,225.15281971874998,225.71692171874997,51.0,95.0
966,224.76820471874998,225.92605612499997,39.0,117.0
967,225.53743471874998,226.19368406249998,63.0,117.0
968,225.53743471874998,226.30586343749997,58.0,117.0
969,225.92204971874997,226.35233774999998,55.0,85.0
970,226.69127971874997,227.16403565624998,48.0,99.0
971,226.30666471874997,227.22172790624998,41.0,76.0
972,227.07589471874996,227.52300965624997,60.0,99.0
973,227.07589471874996,227.56387499999997,57.0,100.0
974,227.46050971874996,227.68166334374996,53.0,96.0
975,227.65281721875,227.69288128124998,66.0,62.0
976,227.65281721875,227.74897096874997,45.0,27.0
977,227.84512471875,227.90201568749998,45.0,50.0
978,227.84512471875,228.05105399999997,50.0,92.0
979,227.84512471875,228.06948346874998,66.0,72.0
980,227.84512471875,228.07348987499998,38.0,62.0
981,227.84512471875,228.08150268749998,62.0,78.0
982,227.84512471875,228.08711165625,57.0,99.0
983,228.22973971874998,228.44528437499997,57.0,82.0
984,228.22973971874998,228.451694625,50.0,82.0
985,228.22973971874998,228.46531640624997,62.0,83.0
986,228.22973971874998,228.46531640624997,66.0,82.0
987,228.22973971874998,228.49095740624998,38.0,63.0
988,228.61435471874998,228.76980328124998,50.0,92.0
989,228.61435471874998,228.77701481249997,45.0,82.0
990,228.61435471874998,228.80345709374998,38.0,62.0
991,228.61435471874998,228.82429040625,57.0,100.0
992,228.61435471874998,228.82749553124998,62.0,102.0
993,228.61435471874998,228.82989937499997,66.0,100.0
994,228.99896971874998,229.15521956249998,57.0,93.0
995,228.99896971874998,229.16643749999997,50.0,90.0
996,228.99896971874998,229.18246312499997,62.0,100.0
997,228.99896971874998,229.18646953124997,38.0,66.0
998,228.99896971874998,229.188873375,66.0,100.0
999,229.38358471874997,229.60874474999997,57.0,107.0
1000,229.38358471874997,229.61836012499998,62.0,117.0
1001,229.38358471874997,229.62236653124998,50.0,97.0
1002,229.38358471874997,229.63518703124998,66.0,122.0
1003,229.38358471874997,229.66884084374996,38.0,76.0
1004,231.30665971874998,232.05185128124998,50.0,67.0
1005,230.92204471875,232.18406268749996,43.0,74.0
1006,231.69127471874998,232.46451112499997,62.0,73.0
1007,232.07588971874998,232.48534443749998,55.0,79.0
1008,232.84511971874997,233.28582440625,48.0,63.0
1009,232.46050471874997,233.32588846874998,41.0,63.0
1010,233.61434971874996,234.02220187499998,53.0,50.0
1011,233.22973471874997,234.07027874999997,60.0,82.0
1012,234.38357971874998,234.90361124999998,46.0,49.0
1013,233.99896471874996,234.91482918749998,39.0,68.0
1014,234.76819471874998,235.08950849999997,51.0,39.0
1015,235.15280971874998,235.58870671874996,55.0,77.0
1016,234.76819471874998,235.73774503124997,62.0,74.0
1017,235.92203971874997,236.46610968749997,50.0,53.0
1018,235.53742471874997,236.51338528124998,46.0,54.0
1019,236.30665471874997,237.07508343749998,62.0,72.0
1020,236.69126971874996,237.25537171874998,58.0,72.0
1021,237.07588471874996,238.17604387499998,36.0,67.0
1022,237.46049971875,238.23453740624998,43.0,67.0
1023,237.84511471874998,238.51418456249996,63.0,96.0
1024,237.84511471874998,238.56466528124997,48.0,79.0
1025,238.22972971874998,238.58870371874997,60.0,96.0
1026,238.99895971874997,240.10072143749997,48.0,96.0
1027,238.61434471874998,240.10232399999998,41.0,81.0
1028,239.76818971874997,240.16322137499998,53.0,97.0
1029,239.38357471874997,240.16963162499997,57.0,97.0
1030,239.38357471874997,240.18806109374998,60.0,97.0
1031,240.53741971874996,240.96610518749998,46.0,93.0
1032,240.72972721874999,241.06947046874998,50.0,89.0
1033,241.11434221874998,241.36354068749998,46.0,95.0
1034,240.15280471874996,241.58148918749998,34.0,89.0
1035,240.34511221874996,241.60472634374997,41.0,64.0
1036,240.92203471874998,241.75296337499998,58.0,112.0
1037,241.49895721874998,241.77620053124997,53.0,88.0
1038,241.30664971874998,241.80184153124998,50.0,82.0
1039,241.88357221874998,242.16001424999996,50.0,96.0
1040,242.07587971874997,242.28421284374997,56.0,71.0
1041,242.26818721874997,242.39639221874998,52.0,77.0
1042,242.26818721874997,242.51337928124997,50.0,83.0
1043,241.69126471874998,242.81786615624998,44.0,112.0
1044,242.65280221874997,242.91802631249996,50.0,72.0
1045,242.46049471874997,242.92764168749997,58.0,122.0
1046,242.84510971874997,243.19446834374997,56.0,127.0
1047,243.03741721874997,243.20809012499998,50.0,99.0
1048,243.61433971874996,244.03901878124998,51.0,92.0
1049,243.80664721874996,244.18965965624997,55.0,85.0
1050,243.42203221874996,244.24975574999996,46.0,48.0
1051,243.22972471874996,244.29542878124997,39.0,92.0
1052,244.19126221874998,244.36273640624998,51.0,102.0
1053,243.99895471874999,244.67844121874998,63.0,112.0
1054,244.38356971874998,244.69927453124998,58.0,100.0
1055,244.57587721874998,244.77299240624998,55.0,95.0
1056,245.15279971874997,245.36834437499996,53.0,90.0
1057,244.96049221874998,245.58629287499997,48.0,55.0
1058,245.34510721874997,245.60071593749998,57.0,97.0
1059,244.76818471874998,245.90680537499998,41.0,69.0
1060,245.72972221874997,245.98693349999996,48.0,79.0
1061,245.53741471874997,246.14799103124997,60.0,96.0
1062,245.92202971874997,246.16081153124998,57.0,99.0
1063,246.11433721874997,246.23132428124998,53.0,90.0
1064,246.88356721874996,247.05504140624998,58.0,89.0
1065,246.69125971874996,247.11273365625,53.0,90.0
1066,247.07587471875,247.42443206249996,65.0,92.0
1067,247.26818221874998,247.71369459374998,53.0,82.0
1068,246.30664471874996,247.73532918749999,46.0,88.0
1069,247.46048971874998,247.78260478124997,62.0,107.0
1070,246.49895221874996,247.79061759374997,50.0,66.0
1071,247.65279721874998,247.87314956249998,58.0,99.0
1072,248.22971971874998,248.43484771874998,55.0,95.0
1073,248.42202721874997,248.60231549999997,58.0,102.0
1074,248.03741221874998,248.63196290624998,50.0,78.0
1075,247.84510471874998,248.65039237499997,43.0,69.0
1076,248.80664221874997,249.07186631249996,58.0,92.0
1077,248.61433471874997,249.19686618749998,62.0,95.0
1078,248.99894971874997,249.32747503124997,55.0,93.0
1079,249.19125721874997,249.39558393749996,58.0,107.0
1080,249.76817971874996,250.15840368749997,51.0,99.0
1081,249.96048721874996,250.25055103124998,55.0,90.0
1082,249.57587221874996,250.36994193749996,46.0,44.0
1083,249.38356471874997,250.41321112499998,39.0,90.0
1084,250.34510221875,250.49253796874999,51.0,99.0
1085,250.15279471874996,250.74093515624998,63.0,127.0
1086,250.53740971874998,250.85391581249996,58.0,100.0
1087,250.72971721874998,250.89317859374998,55.0,89.0
1088,251.30663971874998,251.54942793749998,53.0,86.0
1089,251.49894721874998,251.70647906249997,57.0,92.0
1090,251.11433221874998,251.77458796874998,48.0,67.0
1091,251.88356221874997,252.01978003124998,48.0,75.0
1092,250.92202471874998,252.05663896874998,41.0,67.0
1093,251.69125471874997,252.35391431249997,60.0,97.0
1094,252.07586971874997,252.37234378124998,57.0,102.0
1095,252.26817721874997,252.46929881249997,53.0,95.0
1096,252.84509971874996,253.30583643749998,50.0,92.0
1097,253.03740721874996,253.61432971874999,57.0,92.0
1098,253.42202221874996,253.62394509374997,50.0,95.0
1099,253.22971471874996,253.87154099999998,66.0,117.0
1100,253.61432971874999,253.88035509374998,62.0,102.0
1101,252.46048471874997,253.88115637499996,38.0,77.0
1102,253.80663721874998,253.95807937499998,57.0,100.0
1103,252.65279221874997,254.02218187499997,45.0,75.0
1104,253.99894471874998,254.44125196874998,57.0,77.0
1105,253.99894471874998,254.47490578124996,62.0,100.0
1106,253.99894471874998,254.48532243749997,66.0,112.0
1107,254.57586721874998,254.67442481249998,57.0,96.0
1108,254.57586721874998,254.69045043749998,66.0,69.0
1109,254.57586721874998,254.69846324999997,62.0,73.0
1110,254.38355971874998,254.86112334374997,50.0,100.0
1111,254.76817471874998,254.96368734374997,57.0,72.0
1112,254.76817471874998,255.23532168749998,62.0,85.0
1113,254.96048221874997,255.33227671874997,50.0,99.0
1114,254.19125221874998,255.34830234374996,45.0,100.0
1115,253.99894471874998,255.36512924999997,38.0,88.0
1116,255.15278971874997,255.56625084374997,57.0,96.0
1117,255.34509721874997,255.57266109374996,62.0,100.0
1118,254.76817471874998,255.63435974999996,66.0,97.0
1119,255.92201971874997,256.38836540625,51.0,92.0
1120,255.72971221874997,256.51496784374996,46.0,35.0
1121,256.11432721874996,256.56224343749994,55.0,78.0
1122,255.53740471874997,256.57185881249995,39.0,82.0
1123,256.49894221874996,256.64958309375,51.0,82.0
1124,256.30663471875,256.95647381249995,63.0,112.0
1125,256.69124971875,257.0125635,58.0,100.0
1126,256.88355721874996,257.08788393749995,55.0,90.0
1127,257.46047971875,257.68003078124997,53.0,89.0
1128,257.65278721874995,257.88836390625,57.0,95.0
1129,257.26817221874995,257.96208178125,48.0,62.0
1130,258.03740221874995,258.16079953124995,48.0,74.0
1131,257.07586471875,258.1840366875,41.0,61.0
1132,257.84509471875,258.48131203124996,60.0,107.0
1133,258.22970971875,258.61192087499995,57.0,96.0
1134,258.42201721874994,258.65438878124996,53.0,90.0
1135,258.99893971874997,259.44284953125,50.0,88.0
1136,259.19124721875,259.47169565624995,53.0,86.0
1137,258.61432471874997,259.6648044375,38.0,76.0
1138,258.80663221875,259.68323390625,45.0,82.0
1139,259.57586221875,259.79701584375,50.0,89.0
1140,259.76816971874996,260.10150271875,57.0,83.0
1141,259.96047721875,260.15198343749995,53.0,92.0
1142,259.38355471874996,260.18163084375,62.0,102.0
1143,260.53739971874995,260.76255975,55.0,90.0
1144,260.72970721875,260.9612775,58.0,93.0
1145,260.34509221875,261.02297615624997,50.0,63.0
1146,261.11432221875,261.2321105625,50.0,67.0
1147,260.15278471874996,261.28259128124995,43.0,73.0
1148,260.92201471874995,261.58307175,62.0,90.0
1149,261.30662971874995,261.63435374999995,58.0,96.0
1150,261.49893721875,261.77137284375,55.0,85.0
1151,262.07585971875,262.55422462499996,48.0,77.0
1152,262.26816721874997,262.58787843749997,55.0,79.0
1153,261.69124471874994,262.7289039375,36.0,79.0
1154,261.88355221874997,262.76576287499995,43.0,56.0
1155,262.65278221874996,262.845891,48.0,83.0
1156,262.46047471875,263.0910830625,63.0,100.0
1157,262.84508971875,263.15999324999996,60.0,86.0
1158,263.03739721874996,263.24172393749996,55.0,90.0
1159,263.61431971875,263.8378771875,53.0,85.0
1160,263.42201221874996,263.94925528125,48.0,66.0
1161,263.22970471875,263.96447962499997,41.0,65.0
1162,263.80662721874995,264.01656290625,57.0,90.0
1163,264.19124221874995,264.400376625,57.0,83.0
1164,264.38354971875,264.67361353125,53.0,86.0
1165,263.99893471875,264.69444684375,60.0,96.0
1166,264.57585721874995,264.7305045,57.0,90.0
1167,265.15277971874997,265.579862625,46.0,82.0
1168,265.34508721875,265.6535805,50.0,88.0
1169,264.96047221874994,265.75053553124997,41.0,59.0
1170,264.76816471875,265.8827469375,34.0,85.0
1171,265.72970221875,266.03178525,46.0,107.0
1172,266.11431721875,266.14476590625,44.0,28.0
1173,265.53739471874997,266.33707340624994,58.0,107.0
1174,265.92200971874996,266.34909262499997,53.0,99.0
1175,266.11431721875,266.36511824999997,50.0,102.0
1176,266.49893221875,266.7513358125,50.0,93.0
1177,266.69123971874996,266.99732915625,53.0,88.0
1178,266.88354721875,267.1295405625,50.0,97.0
1179,267.26816221875,267.47168765624997,50.0,89.0
1180,266.30662471874996,267.48771328124997,44.0,96.0
1181,267.07585471874995,267.76255275,58.0,127.0
1182,267.46046971874995,267.7673604375,56.0,117.0
1183,267.65277721875,267.836270625,50.0,89.0
1184,268.42200721874997,268.60229549999997,55.0,86.0
1185,268.22969971875,268.67360953124995,51.0,93.0
1186,267.84508471874994,268.91719903125,39.0,90.0
1187,268.80662221874996,268.9885130625,51.0,89.0
1188,268.03739221874997,268.9981284375,46.0,86.0
1189,268.61431471875,269.03418609374995,58.0,107.0
1190,269.19123721874996,269.39556393749996,58.0,107.0
1191,268.99892971875,269.40598059375,55.0,88.0
1192,269.76815971875,270.00133256249995,53.0,85.0
1193,269.96046721874995,270.2032554375,57.0,93.0
1194,269.57585221874996,270.2256913125,48.0,69.0
1195,269.38354471875,270.43402443749994,41.0,68.0
1196,270.34508221874995,270.4404346875,48.0,72.0
1197,270.15277471875,270.77376768749997,60.0,99.0
1198,270.53738971875,270.81383174999996,57.0,96.0
1199,270.72969721874995,270.92200471875,53.0,78.0
1200,271.30661971874997,271.79700384374996,46.0,92.0
1201,271.49892721875,271.81302946874996,50.0,79.0
1202,271.11431221874994,271.91799731249995,41.0,58.0
1203,270.92200471875,271.97328571875,34.0,86.0
1204,271.88354221875,272.06783690624997,46.0,95.0
1205,271.69123471874997,272.14876631249996,58.0,97.0
1206,272.07584971874996,272.3250481875,53.0,95.0
1207,272.26815721875,272.44524037499997,58.0,96.0
1208,272.84507971874996,273.143957625,55.0,77.0
1209,273.03738721875,273.22889343749995,58.0,88.0
1210,272.65277221875,273.27777159374995,50.0,72.0
1211,273.42200221875,273.502931625,50.0,69.0
1212,272.46046471874996,273.5141495625,43.0,72.0
1213,273.22969471874995,273.91719403124995,62.0,93.0
1214,273.61430971874995,273.94924528124994,58.0,97.0
1215,273.80661721875,274.022161875,55.0,82.0
1216,274.38353971874994,274.80821878125,51.0,92.0
1217,274.57584721874997,274.881135375,55.0,72.0
1218,274.19123221875,275.0125455,46.0,38.0
1219,273.99892471874995,275.04539803125,39.0,75.0
1220,274.96046221874997,275.12232103124995,51.0,90.0
1221,274.76815471875,275.41879509374996,63.0,107.0
1222,275.15276971875,275.45966043749996,58.0,88.0
1223,275.34507721874996,275.50773731249996,55.0,89.0
1224,275.92199971875,276.17280074999996,53.0,93.0
1225,276.11430721874996,276.32584546874995,57.0,89.0
1226,275.72969221874996,276.40036462499995,48.0,67.0
1227,275.53738471875,276.64155028125,41.0,64.0
1228,276.30661471875,277.01815246875,60.0,95.0
1229,276.69122971875,277.01895375,57.0,90.0
1230,276.49892221874995,277.03257553124996,48.0,81.0
1231,276.88353721874995,277.04619731249994,53.0,76.0
1232,277.82744653124996,279.04699659374995,55.0,61.0
1233,277.42520334374996,279.11190037499995,50.0,54.0
1234,277.05340884375,279.20965668749994,43.0,74.0
1235,278.5846573125,280.22488003125,62.0,78.0
1236,278.20484999999996,280.57423865625,58.0,59.0
1237,280.17359803125,281.04539203124995,39.0,61.0
1238,280.55420662499995,281.08946249999997,51.0,32.0
1239,280.93080881249995,281.72888493749997,63.0,59.0
1240,280.9356165,281.78898103125,58.0,56.0
1241,282.10789096875,283.46045371875,48.0,50.0
1242,281.68401318749994,283.50292162499994,41.0,69.0
1243,282.4532431875,283.7128573125,60.0,55.0
1244,282.4596534375,283.74090215624994,57.0,58.0
1245,284.89715099999995,289.43320415625,50.0,35.0
1246,284.92439456249997,289.483684875,55.0,47.0
1247,284.69843325,289.50692203125,43.0,50.0
1248,284.9275996875,289.51012715624995,70.0,57.0
1249,284.82503568749996,289.53737071874997,74.0,52.0
1250,285.05660596875,289.5397745625,67.0,67.0
