,start,end,pitch,velocity
0,20.39360976041667,20.633740979166667,68.0,92.0
1,20.656767260416668,20.923214229166668,66.0,90.0
2,20.91992476041667,21.332204843750002,65.0,96.0
3,21.446239760416667,21.671020125000002,63.0,90.0
4,21.70939726041667,22.351940156250002,61.0,93.0
5,22.498869760416667,22.68965894791667,70.0,91.0
6,22.76202726041667,23.76202576041667,68.0,91.0
7,23.81465726041667,24.036148156250004,61.0,92.0
8,24.07781476041667,24.32781438541667,63.0,90.0
9,24.34097226041667,24.565752625000002,61.0,91.0
10,24.60412976041667,24.82452416666667,60.0,89.0
11,24.86728726041667,25.053690489583335,61.0,93.0
12,25.13044476041667,25.5328564375,63.0,88.0
13,25.65675976041667,25.813557770833334,63.0,88.0
14,25.919917260416668,26.06903984375,63.0,87.0
15,26.18307476041667,26.373863947916668,63.0,88.0
16,26.446232260416668,26.847547447916668,66.0,89.0
17,26.97254726041667,27.907852875000003,65.0,93.0
18,28.02517726041667,28.145791114583336,65.0,89.0
19,28.28833476041667,28.547106302083336,65.0,94.0
20,28.55149226041667,28.897982968750004,70.0,89.0
21,29.07780726041667,29.50872766666667,70.0,90.0
22,29.60412226041667,29.792718468750003,68.0,85.0
23,29.867279760416668,30.088770656250002,70.0,90.0
24,30.13043726041667,30.315744000000002,66.0,91.0
25,30.39359476041667,30.91990976041667,66.0,90.0
26,30.91990976041667,31.12714629166667,68.0,91.0
27,31.18306726041667,31.760917270833335,65.0,95.0
28,31.70938226041667,31.980215187500004,68.0,89.0
29,31.97253976041667,32.25982003125,63.0,90.0
30,32.23569726041667,32.76201226041667,61.0,91.0
31,33.02516976041667,33.18635372916667,56.0,91.0
32,33.28832726041667,33.508721666666666,56.0,90.0
33,33.55148476041667,33.931966645833334,65.0,91.0
34,34.07779976041667,34.22911532291667,61.0,91.0
35,34.34095726041667,34.501044739583335,61.0,90.0
36,34.60411476041667,34.83374083541667,61.0,90.0
37,34.866491897916674,35.15033443958334,58.0,90.0
38,35.652356143750005,36.07338483958334,70.0,89.0
39,36.175915143750004,36.395155475,68.0,83.0
40,36.43769464375001,36.76052444166667,65.0,95.0
41,36.69856793541667,37.79530679166667,63.0,89.0
42,39.307262935416674,39.54530635416667,68.0,92.0
43,39.56813243541667,39.83226280416667,66.0,90.0
44,39.82900193541667,40.240090352083335,65.0,96.0
45,40.35412526875,40.57890563333334,65.0,90.0
46,40.61728276875001,41.058071581250005,65.0,93.0
47,41.143597768750006,41.357413237500005,63.0,89.0
48,41.406755268750004,41.666623300000005,61.0,90.0
49,41.66991276875,42.22144702916667,63.0,91.0
50,42.196227768750006,42.81135842500001,68.0,86.0
51,43.512015268750005,43.71705882083334,65.0,96.0
52,43.775172768750004,43.95499706041667,68.0,91.0
53,44.03833026875,44.549294414583336,70.0,92.0
54,44.564645268750006,44.70060997708334,65.0,94.0
55,44.827802768750004,44.968153435416674,65.0,91.0
56,45.09096026875001,45.291617862500004,65.0,93.0
57,45.35411776875001,45.79929253958334,63.0,93.0
58,45.880432768750005,46.91113297708334,65.0,91.0
59,47.72253526875001,47.915517435416675,65.0,93.0
60,47.985692768750006,48.199508237500005,68.0,90.0
61,48.248850268750004,48.752138987500004,70.0,90.0
62,48.77516526875001,48.91770891458334,68.0,92.0
63,49.03832276875001,49.650163956250005,70.0,92.0
64,49.82779526875001,49.995558175000006,70.0,91.0
65,50.09095276875001,50.243364820833335,73.0,90.0
66,50.354110268750006,50.781741206250004,68.0,90.0
67,50.88042526875,51.086565310416674,68.0,91.0
68,51.14358276875001,51.60739786250001,70.0,90.0
69,51.669897768750005,52.28283544583334,65.0,94.0
70,52.45937026875001,52.71923830000001,66.0,87.0
71,52.722527768750005,52.97910633125001,65.0,83.0
72,52.985685268750004,53.17537796666667,63.0,90.0
73,53.24884276875001,53.889192685416674,63.0,90.0
74,54.038315268750004,54.20607817500001,70.0,89.0
75,54.30147276875,54.69730550833334,70.0,93.0
76,54.82778776875001,56.84861807083334,68.0,89.0
77,57.45936276875001,57.61616077916668,68.0,89.0
78,57.72252026875,57.90673051875001,68.0,90.0
79,57.98567776875001,58.41769466458334,70.0,96.0
80,58.511992768750005,58.74335207083334,68.0,95.0
81,58.77515026875001,58.94291317500001,77.0,96.0
82,59.03830776875,59.18852684166667,77.0,93.0
83,59.30146526875001,59.44839487291667,77.0,93.0
84,59.564622768750006,59.827780268750004,77.0,96.0
85,59.827780268750004,60.25979716458334,77.0,96.0
86,60.35409526875001,60.56791073750001,75.0,100.0
87,60.61725276875001,60.80804195625001,73.0,91.0
88,60.88041026875001,61.52514614375001,75.0,96.0
89,61.66988276875001,61.86176844583334,68.0,89.0
90,61.933040268750005,62.29488183125001,75.0,95.0
91,62.45935526875,62.61176732083334,75.0,96.0
92,62.72251276875001,62.930845789583344,77.0,89.0
93,62.985670268750006,63.17865243541667,75.0,94.0
94,63.248827768750004,63.389178435416675,73.0,88.0
95,63.51198526875001,63.657818383333336,73.0,91.0
96,63.77514276875001,63.94619514375,73.0,91.0
97,64.03830026875,64.47031716458335,72.0,93.0
98,64.56461526875,64.75759743541667,73.0,90.0
99,64.82777276875001,65.00540408125,65.0,96.0
100,65.09093026875001,65.65891187291668,68.0,88.0
101,65.88040276875,66.03610428958334,68.0,90.0
102,66.14356026875001,66.37053361250001,70.0,93.0
103,66.40671776875001,66.56899822708334,68.0,89.0
104,66.66987526875,66.85847147708334,70.0,91.0
105,66.93303276875001,67.72798771666668,73.0,92.0
106,67.98566276875,68.12272396666668,73.0,100.0
107,68.24882026875001,68.62381970625,73.0,93.0
108,68.77513526875,68.9889507375,70.0,91.0
109,69.03829276875001,69.71921280000001,65.0,93.0
110,69.95934401875002,70.15451916458335,68.0,89.0
111,70.35408026875001,70.78171120625001,68.0,92.0
112,70.88039526875001,71.06789498750001,70.0,95.0
113,71.14355276875001,71.31570163333333,68.0,95.0
114,71.40671026875,71.76416587291668,77.0,94.0
115,71.93302526875001,72.10517413333335,73.0,93.0
116,72.19618276875,72.45934026875001,73.0,95.0
117,72.45934026875001,72.86504141458335,73.0,95.0
118,72.98565526875001,73.16767253958335,77.0,92.0
119,73.24881276875001,74.10297815416668,75.0,93.0
120,74.30144276875001,74.43960045625,68.0,100.0
121,74.56460026875001,74.74113509166668,73.0,89.0
122,74.82775776875002,74.94179268541667,75.0,105.0
123,75.09091526875001,75.27293253958334,75.0,90.0
124,75.35407276875,75.51196726875,73.0,91.0
125,75.61723026875,75.77512476875,77.0,90.0
126,75.88038776875001,76.01635247708334,77.0,89.0
127,76.14354526875002,76.30582572708335,77.0,91.0
128,76.40670276875001,76.5678867375,77.0,91.0
129,76.66986026875,76.86942137291668,77.0,92.0
130,77.06459651875001,77.22906995625002,75.0,94.0
131,77.45933276875002,77.71481484166668,73.0,89.0
132,77.72249026875001,78.37161210208333,75.0,98.0
133,78.51196276875001,78.75319047708334,68.0,90.0
134,78.77512026875002,79.17643545625,75.0,100.0
135,79.30143526875001,79.47029466458335,75.0,93.0
136,79.56459276875,79.74880301875001,77.0,89.0
137,79.82775026875001,80.01634647708335,75.0,93.0
138,80.09090776875001,80.22029353958334,73.0,89.0
139,80.35406526875,80.54704743541667,73.0,91.0
140,80.61722276875001,80.82884525833335,70.0,90.0
141,80.88038026875,81.22467799791667,73.0,98.0
142,81.40669526875001,81.63586159166667,65.0,93.0
143,81.66985276875002,82.57774614375,68.0,91.0
144,82.72248276875001,82.88257024791668,68.0,93.0
145,82.98564026875002,83.24112234166668,70.0,93.0
146,83.24879776875001,83.40559577916667,68.0,89.0
147,83.51195526875,83.69068307083334,70.0,93.0
148,83.77511276875,84.6862956125,73.0,91.0
149,84.82774276875,84.98015482083335,73.0,92.0
150,85.09090026875,85.47138215416668,73.0,93.0
151,85.61721526875002,85.81239041458335,70.0,89.0
152,85.88037276875001,86.69506452916667,68.0,87.0
153,86.93300276875001,87.127081425,68.0,91.0
154,87.19616026875,87.37379158125,70.0,93.0
155,87.45931776875001,87.6994489875,68.0,91.0
156,87.72247526875,87.90120307083333,70.0,96.0
157,87.98563276875001,88.39791285208335,77.0,96.0
158,88.51194776875002,88.67861418541668,73.0,89.0
159,88.77510526875001,88.96589445625001,73.0,90.0
160,89.03826276875,89.26742909166668,70.0,93.0
161,89.30142026875001,89.50427084166668,73.0,96.0
162,89.56457776875001,89.97795434166667,77.0,96.0
163,90.09089276875001,92.21588958125001,75.0,92.0
164,93.24878276875,93.45601930000001,68.0,93.0
165,93.51194026875001,93.81318325416667,75.0,95.0
166,93.774873275,94.01020600416668,73.0,92.0
167,94.03757027500001,94.28713242500001,72.0,90.0
168,94.30026727500001,95.03034602083335,75.0,95.0
169,95.088358275,97.10236860833335,73.0,91.0
170,110.843778525,111.08327966250002,68.0,92.0
171,111.106245525,111.3719933625,66.0,90.0
172,111.368712525,111.78062146458335,65.0,96.0
173,111.89465638125002,112.11943674583335,65.0,90.0
174,112.15781388125002,112.59860269375001,65.0,93.0
175,112.68412888125002,112.89794435000002,63.0,89.0
176,112.94728638125001,113.20715441250002,61.0,90.0
177,113.21044388125001,113.76197814166669,63.0,91.0
178,113.73675888125001,114.35188953750001,68.0,86.0
179,115.05254638125001,115.25758993333335,65.0,96.0
180,115.31570388125002,115.49552817291668,68.0,91.0
181,115.57886138125002,116.08982552708335,70.0,92.0
182,116.10517638125002,116.24114108958335,65.0,94.0
183,116.36833388125001,116.50868454791669,65.0,91.0
184,116.63149138125002,116.83214897500001,65.0,93.0
185,116.89464888125002,117.33982365208335,63.0,93.0
186,117.42096388125002,118.45166408958335,65.0,91.0
187,119.26306638125001,119.45604854791668,65.0,93.0
188,119.52622388125002,119.74003935000002,68.0,90.0
189,119.78938138125001,120.29267010000001,70.0,90.0
190,120.31569638125002,120.45824002708335,68.0,92.0
191,120.57885388125001,121.19069506875002,70.0,92.0
192,121.36832638125001,121.53608928750002,70.0,91.0
193,121.63148388125002,121.78389593333335,73.0,90.0
194,121.89464138125001,122.32227231875001,68.0,90.0
195,122.42095638125002,122.62709642291668,68.0,91.0
196,122.68411388125001,123.14792897500001,70.0,90.0
197,123.21042888125001,123.82336655833335,65.0,94.0
198,123.99990138125001,124.25976941250002,66.0,87.0
199,124.26305888125002,124.51963744375001,65.0,83.0
200,124.52621638125001,124.71590907916668,63.0,90.0
201,124.78937388125001,125.42972379791668,63.0,90.0
202,125.57884638125002,125.74660928750002,70.0,89.0
203,125.84200388125001,126.23783662083335,70.0,93.0
204,126.36831888125002,128.38914918333336,68.0,89.0
205,128.99989388125002,129.1566918916667,68.0,89.0
206,129.26305138125002,129.44726163125,68.0,90.0
207,129.52620888125003,129.95822577708336,70.0,96.0
208,130.05252388125,130.28388318333336,68.0,95.0
209,130.31568138125002,130.48344428750002,77.0,96.0
210,130.57883888125002,130.72905795416668,77.0,93.0
211,130.84199638125003,130.98892598541667,77.0,93.0
212,131.10515388125,131.36831138125,77.0,96.0
213,131.36831138125,131.80032827708334,77.0,96.0
214,131.89462638125002,132.10844185000002,75.0,100.0
215,132.15778388125003,132.34857306875003,73.0,91.0
216,132.42094138125003,133.06567725625,75.0,96.0
217,133.21041388125002,133.40229955833334,68.0,89.0
218,133.47357138125003,133.83541294375001,75.0,95.0
219,133.99988638125,134.15229843333336,75.0,96.0
220,134.26304388125,134.47137690208336,77.0,89.0
221,134.52620138125002,134.71918354791669,75.0,94.0
222,134.78935888125002,134.92970954791667,73.0,88.0
223,135.05251638125003,135.19834949583336,73.0,91.0
224,135.31567388125,135.48672625625002,73.0,91.0
225,135.57883138125,136.01084827708334,72.0,93.0
226,136.10514638125002,136.2981285479167,73.0,90.0
227,136.36830388125003,136.54593519375,65.0,96.0
228,136.63146138125,137.19944298541668,68.0,88.0
229,137.42093388125002,137.57663540208335,68.0,90.0
230,137.68409138125003,137.91106472500002,70.0,93.0
231,137.94724888125,138.10952933958336,68.0,89.0
232,138.21040638125,138.39900258958335,70.0,91.0
233,138.47356388125002,139.26851882916668,73.0,92.0
234,139.52619388125,139.66325507916667,73.0,100.0
235,139.78935138125001,140.16435081875002,73.0,93.0
236,140.31566638125003,140.52948185000002,70.0,91.0
237,140.57882388125,141.25974391250003,65.0,93.0
238,141.49987513125,141.69505027708334,68.0,89.0
239,141.89461138125,142.32224231875003,68.0,92.0
240,142.42092638125,142.60842610000003,70.0,95.0
241,142.68408388125002,142.85623274583335,68.0,95.0
242,142.94724138125002,143.30469698541668,77.0,94.0
243,143.47355638125,143.64570524583334,73.0,93.0
244,143.73671388125,143.99987138125002,73.0,95.0
245,143.99987138125002,144.40557252708334,73.0,95.0
246,144.52618638125003,144.70820365208334,77.0,92.0
247,144.78934388125003,145.64350926666668,75.0,93.0
248,145.84197388125003,145.98013156875,68.0,100.0
249,146.10513138125003,146.2816662041667,73.0,89.0
250,146.36828888125,146.48232379791668,75.0,105.0
251,146.63144638125002,146.81346365208336,75.0,90.0
252,146.89460388125002,147.05249838125002,73.0,91.0
253,147.15776138125003,147.31565588125002,77.0,90.0
254,147.42091888125003,147.55688358958335,77.0,89.0
255,147.68407638125,147.84635683958334,77.0,91.0
256,147.94723388125,148.10841785000002,77.0,91.0
257,148.21039138125002,148.40995248541668,77.0,92.0
258,148.60512763125,148.76960106875003,75.0,94.0
259,148.99986388125,149.25534595416667,73.0,89.0
260,149.26302138125,149.91214321458335,75.0,98.0
261,150.05249388125003,150.29372158958336,68.0,90.0
262,150.31565138125,150.71696656875002,75.0,100.0
263,150.84196638125002,151.01082577708337,75.0,93.0
264,151.10512388125002,151.28933413125003,77.0,89.0
265,151.36828138125003,151.55687758958334,75.0,93.0
266,151.63143888125,151.76082465208336,73.0,89.0
267,151.89459638125,152.08757854791668,73.0,91.0
268,152.15775388125002,152.36937637083335,70.0,90.0
269,152.42091138125002,152.7652091104167,73.0,98.0
270,152.94722638125,153.1763927041667,65.0,93.0
271,153.21038388125,154.11827725625002,68.0,91.0
272,154.26301388125,154.4231013604167,68.0,93.0
273,154.52617138125,154.7816534541667,70.0,93.0
274,154.78932888125001,154.9461268916667,68.0,89.0
275,155.05248638125002,155.23121418333335,70.0,93.0
276,155.31564388125003,156.22682672500002,73.0,91.0
277,156.36827388125002,156.52068593333337,73.0,92.0
278,156.63143138125002,157.01191326666668,73.0,93.0
279,157.15774638125004,157.35292152708337,70.0,89.0
280,157.42090388125,158.2355956416667,68.0,87.0
281,158.47353388125003,158.66761253750002,68.0,91.0
282,158.73669138125,158.91432269375002,70.0,93.0
283,158.99984888125002,159.23998010000003,68.0,91.0
284,159.26300638125002,159.44173418333335,70.0,96.0
285,159.52616388125003,159.93844396458334,77.0,96.0
286,160.05247888125,160.21914529791667,73.0,89.0
287,160.31563638125002,160.50642556875002,73.0,90.0
288,160.57879388125002,160.80796020416668,70.0,93.0
289,160.84195138125003,161.0448019541667,73.0,96.0
290,161.10510888125003,161.5184854541667,77.0,96.0
291,161.63142388125002,162.42089638125003,75.0,92.0
292,162.68405388125,162.8408518916667,68.0,89.0
293,162.94721138125,163.13142163125002,68.0,90.0
294,163.21036888125002,163.64238577708335,70.0,96.0
295,163.73668388125003,163.96804318333335,68.0,95.0
296,163.99984138125,164.1676042875,77.0,96.0
297,164.26299888125,164.41321795416667,77.0,93.0
298,164.52615638125002,164.6730859854167,77.0,93.0
299,164.78931388125002,165.05247138125003,77.0,96.0
300,165.05247138125003,165.48448827708336,77.0,96.0
301,165.57878638125,165.79260185,75.0,100.0
302,165.84194388125002,166.03273306875002,73.0,91.0
303,166.10510138125002,166.74983725625003,75.0,96.0
304,167.42088888125002,167.61277455833334,68.0,89.0
305,167.68404638125003,167.83645843333335,77.0,96.0
306,167.94720388125,168.15553690208336,75.0,89.0
307,168.21036138125,168.40334354791668,75.0,94.0
308,168.47351888125002,168.6138695479167,73.0,88.0
309,168.73667638125002,168.88250949583335,73.0,91.0
310,168.99983388125003,169.17088625625001,73.0,91.0
311,169.26299138125,169.69500827708336,75.0,93.0
312,169.78930638125001,169.98228854791668,73.0,90.0
313,170.05246388125002,170.23009519375,65.0,96.0
314,170.31562138125003,170.8836029854167,68.0,88.0
315,171.63140888125002,171.79368933958335,68.0,89.0
316,171.89456638125003,172.08316258958337,70.0,91.0
317,172.15772388125004,172.9526788291667,73.0,92.0
318,173.21035388125003,173.3474150791667,73.0,100.0
319,173.47351138125003,173.84851081875001,73.0,93.0
320,173.99982638125002,174.21364185000002,70.0,91.0
321,174.26298388125002,174.94390391250002,65.0,93.0
322,175.31561388125002,175.51078902708335,68.0,89.0
323,175.57877138125002,176.00640231875002,68.0,92.0
324,176.10508638125003,176.29258610000002,70.0,95.0
325,176.36824388125,176.54039274583334,68.0,95.0
326,176.63140138125001,176.9888569854167,77.0,94.0
327,177.15771638125003,177.32986524583336,73.0,93.0
328,177.42087388125003,177.68403138125,73.0,95.0
329,177.68403138125,178.08973252708336,73.0,95.0
330,178.21034638125002,178.39236365208336,77.0,92.0
331,178.47350388125002,179.3276692666667,75.0,93.0
332,179.52613388125002,179.66429156875,68.0,100.0
333,179.78929138125002,179.9658262041667,73.0,89.0
334,180.05244888125003,180.16648379791667,75.0,105.0
335,180.31560638125,180.49762365208335,75.0,90.0
336,180.57876388125004,180.73665838125004,73.0,91.0
337,180.84192138125002,180.99981588125002,77.0,90.0
338,181.10507888125002,181.24104358958334,77.0,89.0
339,181.36823638125003,181.53051683958336,77.0,91.0
340,181.63139388125,181.79257785000001,77.0,91.0
341,181.89455138125004,182.0941124854167,77.0,92.0
342,182.28928763125003,182.45376106875003,75.0,94.0
343,182.68402388125003,182.9395059541667,73.0,89.0
344,182.94718138125,183.59630321458337,75.0,98.0
345,183.73665388125002,183.97788158958335,68.0,90.0
346,184.26296888125,184.52612638125004,77.0,100.0
347,184.52612638125004,184.69498577708336,77.0,93.0
348,184.78928388125001,184.97349413125002,75.0,89.0
349,185.05244138125002,185.24103758958336,75.0,93.0
350,185.31559888125003,185.57875638125,73.0,89.0
351,185.84191388125004,186.05353637083334,73.0,90.0
352,186.10507138125,186.44936911041668,73.0,98.0
353,186.63138638125002,186.8605527041667,65.0,93.0
354,186.89454388125,187.80243725625002,68.0,91.0
355,187.94717388125002,188.1072613604167,68.0,93.0
356,188.21033138125,188.4658134541667,70.0,93.0
357,188.47348888125003,188.63028689166669,68.0,89.0
358,188.73664638125,188.91537418333337,70.0,93.0
359,188.99980388125002,189.91098672500001,73.0,91.0
360,190.05243388125,190.20484593333336,73.0,92.0
361,190.31559138125002,190.6960732666667,73.0,93.0
362,190.84190638125003,191.03708152708336,70.0,89.0
363,191.10506388125003,191.91975564166668,68.0,87.0
364,192.15769388125003,192.35177253750004,68.0,91.0
365,192.42085138125003,192.59848269375004,70.0,93.0
366,192.68400888125,192.92414010000002,68.0,91.0
367,192.94716638125004,193.12589418333334,70.0,96.0
368,193.21032388125002,193.62260396458336,77.0,96.0
369,193.73663888125003,193.9033052979167,73.0,89.0
370,193.99979638125,194.19058556875,73.0,90.0
371,194.26295388125004,194.49212020416667,70.0,93.0
372,194.52611138125002,194.7289619541667,73.0,96.0
373,194.78926888125002,195.20264545416669,77.0,96.0
374,195.31558388125,197.44058069375,75.0,92.0
375,198.73663138125002,199.83531394375,73.0,90.0
376,200.0019803604167,200.80899669375003,72.0,95.0
377,200.9756631104167,202.98662500625002,73.0,91.0
