,start,end,pitch,velocity
0,2.762057260416667,3.5295999687500004,65.0,89.0
1,2.4988997604166667,3.6458278645833335,61.0,90.0
2,1.9725847604166669,3.706134791666667,49.0,91.0
3,2.235742260416667,4.129379770833333,56.0,78.0
4,2.762057260416667,4.651308812500001,68.0,80.0
5,4.341002260416667,5.606351239583334,56.0,77.0
6,4.077844760416667,5.650210822916667,48.0,91.0
7,4.867317260416667,5.874991187500001,63.0,89.0
8,4.604159760416667,6.025210260416667,60.0,92.0
9,4.867317260416667,7.3574451041666675,68.0,87.0
10,6.446262260416667,7.578936000000001,53.0,81.0
11,6.709419760416667,7.840997010416667,58.0,91.0
12,7.762049760416668,7.991216083333334,53.0,84.0
13,6.183104760416668,7.995602041666667,46.0,89.0
14,8.025207260416668,8.404592656250001,58.0,86.0
15,6.972577260416667,8.406785635416668,65.0,89.0
16,6.972577260416667,8.41775053125,61.0,82.0
17,8.551522260416668,9.627178541666668,48.0,80.0
18,8.814679760416668,9.837704541666668,53.0,92.0
19,9.077837260416667,9.842090500000001,56.0,86.0
20,8.288364760416668,9.860730822916668,41.0,91.0
21,9.077837260416667,9.923230729166667,60.0,90.0
22,10.919939760416668,11.286167281250002,61.0,89.0
23,10.393624760416667,11.615114156250002,58.0,83.0
24,11.709412260416668,11.767526208333335,58.0,61.0
25,10.393624760416667,11.773008656250001,54.0,83.0
26,11.183097260416668,12.183095760416668,66.0,90.0
27,11.709412260416668,12.210508,61.0,90.0
28,11.972569760416668,12.237920239583335,58.0,90.0
29,10.393624760416667,12.254367583333334,42.0,90.0
30,10.656782260416668,12.590989885416668,49.0,84.0
31,13.025199760416667,13.628269031250001,56.0,92.0
32,13.288357260416667,13.652391802083335,61.0,91.0
33,12.498884760416669,14.119496364583334,41.0,93.0
34,12.762042260416667,14.152391052083335,49.0,90.0
35,13.814672260416668,14.169934885416668,56.0,80.0
36,14.077829760416668,14.249978625,61.0,79.0
37,13.551514760416667,14.340987260416668,65.0,90.0
38,14.604144760416668,14.787258520833335,58.0,81.0
39,14.604144760416668,14.956117916666669,63.0,85.0
40,15.130459760416668,15.449538229166668,63.0,85.0
41,14.867302260416668,15.474757489583334,58.0,84.0
42,14.604144760416668,16.083309208333336,51.0,92.0
43,15.919932260416669,16.17431784375,63.0,82.0
44,15.393617260416669,16.39361576041667,66.0,89.0
45,16.709404760416668,16.987913114583336,56.0,83.0
46,16.709404760416668,17.13374622916667,63.0,85.0
47,17.235719760416668,18.037253645833335,56.0,92.0
48,17.49887726041667,18.135937708333334,63.0,89.0
49,18.025192260416667,18.467077562500002,68.0,78.0
50,16.97256226041667,18.703919312500002,51.0,84.0
51,16.709404760416668,18.74010346875,44.0,89.0
52,18.28834976041667,18.756550812500002,56.0,90.0
53,18.81466476041667,20.179794291666667,44.0,88.0
54,18.81466476041667,20.353039645833334,56.0,86.0
55,18.81466476041667,20.362908052083334,63.0,88.0
56,21.446239760416667,21.76312525,63.0,80.0
57,20.91992476041667,22.805886843750002,49.0,91.0
58,21.70939726041667,23.135930208333335,61.0,85.0
59,21.18308226041667,23.178693302083335,56.0,83.0
60,21.70939726041667,23.639218927083334,65.0,85.0
61,23.28834226041667,24.658954239583334,56.0,82.0
62,23.551499760416668,24.69623488541667,63.0,83.0
63,23.81465726041667,24.736805000000004,60.0,85.0
64,23.025184760416668,24.81136629166667,48.0,90.0
65,23.81465726041667,25.220356906250004,68.0,89.0
66,25.13044476041667,25.411146093750002,58.0,74.0
67,25.13044476041667,25.697329875,61.0,78.0
68,25.393602260416667,26.611802187500004,53.0,82.0
69,25.13044476041667,26.61399516666667,46.0,88.0
70,25.919917260416668,26.672109114583336,61.0,85.0
71,25.65675976041667,26.695135395833336,58.0,88.0
72,25.919917260416668,27.992282572916668,65.0,87.0
73,27.76201976041667,28.624957062500002,56.0,90.0
74,28.02517726041667,28.652369302083336,60.0,85.0
75,28.02517726041667,28.736799,63.0,83.0
76,27.23570476041667,28.787237520833337,44.0,90.0
77,27.49886226041667,29.086579177083337,51.0,84.0
78,29.340964760416668,29.619473114583336,58.0,79.0
79,29.340964760416668,29.98570063541667,61.0,83.0
80,29.60412226041667,30.950611468750004,49.0,80.0
81,30.13043726041667,30.986795625000003,61.0,86.0
82,29.867279760416668,31.037234145833335,58.0,89.0
83,29.340964760416668,31.093155114583336,42.0,89.0
84,30.13043726041667,31.133725229166668,66.0,89.0
85,31.44622476041667,31.762013760416668,60.0,86.0
86,31.44622476041667,31.970346781250004,65.0,90.0
87,31.44622476041667,32.09973255208334,68.0,84.0
88,31.44622476041667,32.10082904166667,41.0,91.0
89,31.70938226041667,32.105215,48.0,78.0
90,31.97253976041667,32.306969083333335,60.0,90.0
91,32.23569726041667,32.366179520833334,65.0,82.0
92,32.49885476041667,32.86069632291667,58.0,82.0
93,32.49885476041667,33.13262573958334,61.0,89.0
94,33.02516976041667,33.195125645833336,58.0,83.0
95,32.76201226041667,33.40236217708333,53.0,81.0
96,32.49885476041667,33.478019958333334,46.0,89.0
97,33.55148476041667,33.882624614583335,58.0,79.0
98,33.55148476041667,34.11946636458334,63.0,83.0
99,34.07779976041667,35.077190400000006,58.0,81.0
100,34.34095726041667,35.089199122916675,63.0,88.0
101,33.81464226041667,35.16125146041667,54.0,77.0
102,33.55148476041667,35.21583656458334,51.0,90.0
103,36.43769464375001,36.79748095416667,63.0,86.0
104,36.175915143750004,36.83443746666667,56.0,89.0
105,36.95943743541667,37.30291561041667,63.0,85.0
106,35.91413564375001,37.392046022916674,51.0,79.0
107,36.69856793541667,37.39748080416667,68.0,83.0
108,37.22030693541667,37.44421992291667,56.0,84.0
109,35.652356143750005,37.46269817916667,44.0,89.0
110,37.74204593541667,38.89965434166667,60.0,81.0
111,37.74204593541667,38.96269780416667,56.0,78.0
112,37.74204593541667,39.00508909791667,44.0,86.0
113,37.74204593541667,39.05182821666667,63.0,80.0
114,39.82900193541667,40.00873105000001,56.0,87.0
115,39.82900193541667,40.34644984166667,65.0,89.0
116,40.35412526875,40.68087916458334,61.0,82.0
117,40.090967768750005,40.695133529166675,56.0,88.0
118,39.82900193541667,41.263115133333336,49.0,90.0
119,41.143597768750006,41.32013259166667,61.0,79.0
120,40.61728276875001,41.39579037291667,65.0,91.0
121,41.93307026875001,42.155657654166674,60.0,80.0
122,41.93307026875001,42.474736122916674,63.0,84.0
123,42.459385268750005,43.16004211250001,60.0,92.0
124,42.72254276875,43.16113860208334,63.0,91.0
125,43.24885776875001,43.37385758125001,60.0,84.0
126,42.196227768750006,43.49118196666667,56.0,69.0
127,41.93307026875001,43.54490995625,48.0,90.0
128,43.24885776875001,43.57232219583334,63.0,91.0
129,43.512015268750005,43.66881327916667,60.0,84.0
130,43.24885776875001,44.01859345625,68.0,86.0
131,44.03833026875,44.36837363333334,58.0,79.0
132,44.03833026875,44.62824166458334,61.0,85.0
133,44.564645268750006,45.27407402916667,58.0,86.0
134,44.827802768750004,45.287231904166674,61.0,84.0
135,45.35411776875001,45.40126682083334,61.0,72.0
136,44.30148776875001,45.496661414583336,53.0,82.0
137,44.03833026875,45.566836747916675,46.0,89.0
138,45.35411776875001,45.61508228958334,65.0,84.0
139,46.14359026875,46.41661617500001,56.0,81.0
140,46.14359026875,46.74446656041667,60.0,81.0
141,46.933062768750005,46.99117671666667,60.0,75.0
142,46.933062768750005,47.33437795625001,63.0,90.0
143,46.66990526875001,47.34863232083334,56.0,90.0
144,46.40674776875001,47.67319323750001,51.0,79.0
145,47.45937776875,47.755429956250005,63.0,84.0
146,47.45937776875,47.75871942500001,60.0,87.0
147,47.45937776875,47.78284219583334,68.0,87.0
148,46.14359026875,47.78393868541667,44.0,89.0
149,47.72253526875001,47.87275434166667,56.0,89.0
150,48.248850268750004,48.89358614375001,54.0,79.0
151,48.77516526875001,49.09643671666667,61.0,82.0
152,48.248850268750004,49.10520863333334,58.0,84.0
153,48.51200776875001,49.83218122708334,49.0,84.0
154,49.56463776875,49.86946187291667,61.0,84.0
155,49.03832276875001,49.87165485208334,66.0,88.0
156,48.248850268750004,49.93634773750001,42.0,89.0
157,50.354110268750006,50.64906596666667,60.0,82.0
158,50.354110268750006,50.84095164375,65.0,87.0
159,50.354110268750006,50.933056768750006,41.0,91.0
160,50.617267768750004,50.952793581250006,48.0,83.0
161,50.88042526875,51.201696716666675,60.0,92.0
162,51.14358276875001,51.23239842500001,65.0,89.0
163,51.406740268750006,51.77187130000001,58.0,85.0
164,51.406740268750006,51.97143240416668,61.0,92.0
165,51.93305526875001,52.059151570833336,58.0,80.0
166,51.669897768750005,52.20827415416667,53.0,78.0
167,51.406740268750006,52.274063529166675,46.0,90.0
168,52.45937026875001,52.77406277916667,58.0,84.0
169,52.45937026875001,52.99884314375001,63.0,85.0
170,52.722527768750005,53.380421518750005,54.0,73.0
171,52.45937026875001,53.39686886250001,51.0,92.0
172,52.985685268750004,53.859587466666675,58.0,82.0
173,53.24884276875001,54.06572750833334,63.0,90.0
174,54.038315268750004,54.462656737500005,58.0,90.0
175,54.30147276875,54.86397192500001,63.0,81.0
176,55.090945268750005,55.84861957083334,56.0,90.0
177,55.35410276875001,55.97690885208334,63.0,89.0
178,54.82778776875001,56.30146976875001,51.0,79.0
179,56.143575268750006,56.43962745625001,56.0,90.0
180,54.56463026875001,56.48458352916667,44.0,90.0
181,55.88041776875001,56.537215029166674,68.0,88.0
182,56.66989026875001,56.98238980000001,56.0,90.0
183,56.66989026875001,57.140284300000005,63.0,89.0
184,57.196205268750006,57.26857358125001,56.0,83.0
185,56.93304776875001,57.55037140416667,51.0,86.0
186,57.45936276875001,57.80585347708334,56.0,92.0
187,57.45936276875001,58.018572456250006,60.0,96.0
188,57.45936276875001,58.07558991458334,63.0,94.0
189,57.98567776875001,58.15782663333334,56.0,93.0
190,58.24883526875001,58.40015083125,60.0,90.0
191,56.66989026875001,58.522957664583345,44.0,92.0
192,57.72252026875,58.52953660208334,51.0,90.0
193,58.77515026875001,59.08874628958334,56.0,90.0
194,58.77515026875001,59.34861432083334,61.0,90.0
195,59.30146526875001,59.92427135208334,56.0,91.0
196,59.564622768750006,59.94071869583334,61.0,103.0
197,59.03830776875,60.24663928958334,53.0,85.0
198,58.77515026875001,60.24992875833334,49.0,103.0
199,60.09093776875001,60.257604185416675,56.0,92.0
200,60.09093776875001,60.291595362500004,61.0,95.0
201,60.09093776875001,60.31462164375001,65.0,94.0
202,60.88041026875001,61.12931340416667,60.0,89.0
203,60.88041026875001,61.46264623750001,63.0,90.0
204,61.40672526875001,61.575584664583346,60.0,90.0
205,61.66988276875001,62.12053998750001,60.0,91.0
206,61.66988276875001,62.13479435208334,63.0,91.0
207,62.19619776875001,62.25979416458334,60.0,78.0
208,61.14356776875,62.333258966666676,51.0,78.0
209,62.19619776875001,62.49005697708334,63.0,91.0
210,60.88041026875001,62.72689872708334,44.0,90.0
211,62.45935526875,62.77733724791668,60.0,91.0
212,61.66988276875001,62.790495122916674,68.0,89.0
213,62.985670268750006,63.276240008333346,58.0,89.0
214,62.985670268750006,63.54049399791667,61.0,90.0
215,63.51198526875001,63.872730341666674,58.0,86.0
216,63.77514276875001,63.88479172708334,61.0,74.0
217,63.248827768750004,64.14356326875,53.0,85.0
218,64.30145776875001,64.35847522708335,53.0,64.0
219,62.985670268750006,64.41768566458335,46.0,91.0
220,64.03830026875,64.47470312291668,58.0,90.0
221,64.56461526875,64.706062425,53.0,93.0
222,64.03830026875,64.78391318541668,61.0,94.0
223,64.03830026875,64.92536034166667,65.0,103.0
224,64.82777276875001,65.06900047708334,58.0,85.0
225,65.09093026875001,65.57448217500001,61.0,83.0
226,65.61724526875001,65.74772752916667,56.0,85.0
227,65.35408776875,66.00101662291667,48.0,81.0
228,65.88040276875,66.17426197708335,56.0,90.0
229,65.88040276875,66.28829689375002,60.0,92.0
230,66.14356026875001,66.41987564375,48.0,84.0
231,65.09093026875001,66.69290155000002,41.0,93.0
232,66.40671776875001,66.76307688333334,56.0,103.0
233,66.66987526875,66.80145401875001,48.0,91.0
234,67.19619026875,67.47469862291668,54.0,89.0
235,67.19619026875,67.74662803958334,58.0,90.0
236,67.72250526875001,67.88039976875001,54.0,85.0
237,67.45934776875,68.05693459166667,49.0,85.0
238,67.98566276875,68.3705306125,54.0,93.0
239,67.98566276875,68.40232881041668,61.0,90.0
240,68.51197776875,68.66987226875001,54.0,89.0
241,68.24882026875001,68.69728450833334,49.0,84.0
242,67.19619026875,68.70386344583335,42.0,90.0
243,68.51197776875,68.70386344583335,58.0,89.0
244,69.30145026875,69.48456402916668,56.0,90.0
245,69.30145026875,69.75978291458334,65.0,91.0
246,69.56460776875001,69.92973880000001,56.0,85.0
247,69.82776526875,69.98565976875001,61.0,90.0
248,70.09092276875,70.47469412291667,61.0,96.0
249,70.09092276875,70.51307125833334,56.0,90.0
250,70.09092276875,70.53500105,65.0,93.0
251,69.30145026875,70.73785162291668,49.0,95.0
252,70.61723776875002,70.75210598750002,56.0,85.0
253,70.61723776875002,70.92206187291667,61.0,91.0
254,70.88039526875001,71.02293891458334,56.0,85.0
255,71.40671026875,71.70714841458334,58.0,87.0
256,71.40671026875,71.74113959166667,63.0,89.0
257,71.93302526875001,72.08214785208334,58.0,89.0
258,72.19618276875,72.56131380000001,58.0,91.0
259,72.19618276875,72.63368211250001,66.0,89.0
260,71.66986776875001,72.71701532083334,46.0,76.0
261,71.40671026875,72.77183980000001,39.0,91.0
262,72.72249776875,72.99333069583335,58.0,90.0
263,72.72249776875,73.12929540416667,63.0,91.0
264,73.24881276875001,73.3573652375,58.0,90.0
265,73.51197026875,73.8310487375,56.0,91.0
266,74.03828526875,74.14464475833334,56.0,100.0
267,73.77512776875001,74.38587246666668,51.0,89.0
268,74.30144276875001,74.54815292500001,63.0,91.0
269,74.30144276875001,74.58104761250002,60.0,91.0
270,74.30144276875001,74.75648594583333,56.0,90.0
271,74.82775776875002,75.12490644583335,60.0,90.0
272,74.82775776875002,75.14245027916667,63.0,91.0
273,74.82775776875002,75.24003785208333,68.0,90.0
274,75.09091526875001,75.28280094583334,56.0,91.0
275,74.56460026875001,75.30034477916668,51.0,91.0
276,73.51197026875,75.34310787291668,44.0,90.0
277,75.61723026875,75.89902809166668,56.0,91.0
278,75.61723026875,76.17424697708334,61.0,89.0
279,76.40670276875001,76.79924603958335,61.0,90.0
280,76.14354526875002,76.82665827916668,56.0,88.0
281,75.88038776875001,77.07994737291668,53.0,88.0
282,76.93301776875,77.08433333125001,56.0,91.0
283,75.61723026875,77.08652631041667,49.0,103.0
284,76.93301776875,77.14464025833334,61.0,90.0
285,76.93301776875,77.19617526875001,65.0,92.0
286,77.72249026875001,77.91108647708334,60.0,89.0
287,77.72249026875001,78.23564739375001,63.0,91.0
288,78.24880526875,78.62490119583335,60.0,95.0
289,78.51196276875001,78.89573412291668,63.0,95.0
290,79.03827776875,79.20713716458334,60.0,90.0
291,79.03827776875,79.40998773750002,63.0,95.0
292,77.72249026875001,79.42204912291668,44.0,91.0
293,77.98564776875,79.42862806041668,51.0,84.0
294,79.03827776875,79.51854020625001,68.0,88.0
295,79.82775026875001,80.09529372708334,58.0,82.0
296,79.82775026875001,80.41437219583335,61.0,85.0
297,80.35406526875,80.48564401875001,58.0,86.0
298,80.09090776875001,80.74880151875001,53.0,85.0
299,80.61722276875001,80.99551167500002,58.0,88.0
300,80.61722276875001,81.02950285208334,61.0,90.0
301,80.61722276875001,81.04923966458334,65.0,91.0
302,80.88038026875,81.41985314375,53.0,76.0
303,81.14353776875001,81.49222145625001,58.0,96.0
304,81.40669526875001,81.51195826875,61.0,90.0
305,79.82775026875001,81.54046699791667,46.0,88.0
306,81.93301026875001,82.21480809166667,53.0,84.0
307,81.93301026875001,82.41656217500001,56.0,85.0
308,82.45932526875,82.82884225833334,53.0,85.0
309,82.72248276875001,83.08761380000001,56.0,91.0
310,82.19616776875,83.34638534166668,48.0,81.0
311,83.24879776875001,83.53278857083333,53.0,90.0
312,81.93301026875001,83.56568325833334,41.0,91.0
313,83.24879776875001,83.59528847708334,60.0,89.0
314,83.51195526875,83.71590233125,48.0,90.0
315,84.03827026875001,84.62708517500002,58.0,83.0
316,84.03827026875001,84.71809381041668,54.0,85.0
317,84.56458526875001,84.87489182083334,61.0,89.0
318,84.30142776875002,85.01304950833335,49.0,88.0
319,84.03827026875001,85.57993462291668,42.0,90.0
320,84.82774276875,85.63037314375,66.0,94.0
321,85.09090026875,85.64353101875001,49.0,90.0
322,85.35405776875001,85.68300464375001,61.0,93.0
323,85.61721526875002,85.811293925,58.0,90.0
324,85.88037276875001,85.97357438333334,54.0,90.0
325,86.14353026875001,86.390240425,56.0,85.0
326,86.14353026875001,86.72686272708334,61.0,89.0
327,86.66984526875001,86.90010808125001,56.0,93.0
328,86.93300276875001,87.25098474791668,56.0,75.0
329,86.93300276875001,87.48344053958334,65.0,93.0
330,86.40668776875,87.55361587291668,53.0,89.0
331,86.14353026875001,87.60076492500001,49.0,90.0
332,87.45931776875001,87.73124718541668,61.0,91.0
333,87.72247526875,87.80909794583334,56.0,84.0
334,88.24879026875001,88.51852670625001,58.0,90.0
335,88.24879026875001,89.08870128958334,66.0,90.0
336,88.77510526875001,89.36172719583334,58.0,89.0
337,88.51194776875002,89.5941829875,46.0,84.0
338,88.24879026875001,89.64681448750001,39.0,92.0
339,89.03826276875,89.66764778958334,63.0,92.0
340,90.35405026875,90.67203224791668,56.0,85.0
341,90.35405026875,90.78826014375001,63.0,88.0
342,90.88036526875001,91.60624137291668,56.0,91.0
343,91.14352276875002,91.70163596666669,63.0,91.0
344,90.61720776875,91.81128492500001,51.0,86.0
345,91.66983776875,91.83540769583334,68.0,89.0
346,90.35405026875,92.08540732083334,44.0,90.0
347,92.45931026875002,93.70372617083335,44.0,90.0
348,92.45931026875002,94.32434783333335,68.0,77.0
349,92.45931026875002,94.35499581666667,80.0,78.0
350,95.088358275,95.27115160416668,63.0,80.0
351,94.56296427500001,96.17636168333334,49.0,89.0
352,95.35105527500001,96.41607269583335,61.0,79.0
353,94.82566127500002,96.71707967500001,56.0,77.0
354,95.35105527500001,97.29610764583335,68.0,83.0
355,97.18993427500001,97.59820919583335,63.0,83.0
356,96.92723727500001,98.31515309166667,56.0,78.0
357,96.66454027500001,98.3556522125,48.0,84.0
358,97.45263127500002,99.68555577500001,68.0,84.0
359,98.76611627500002,100.486781625,46.0,87.0
360,99.028813275,100.65862924583334,53.0,77.0
361,99.55420727500001,100.91256967916668,61.0,79.0
362,99.29151027500001,100.92132624583334,58.0,74.0
363,101.39308627500002,102.12207045000001,53.0,85.0
364,101.655783275,102.14943472083334,56.0,87.0
365,100.86769227500001,102.21620354166667,41.0,90.0
366,101.13038927500001,102.25232437916668,48.0,81.0
367,102.969268275,103.26699154166667,58.0,78.0
368,102.969268275,103.58984681250001,61.0,85.0
369,103.49466227500001,104.24710792500001,58.0,79.0
370,103.23196527500001,104.30944383750001,49.0,74.0
371,103.75716952500001,104.31491190000001,61.0,85.0
372,102.969268275,104.39583922500002,42.0,87.0
373,104.28210352500001,104.59925115000001,66.0,89.0
374,105.06950452500001,105.26854200000001,56.0,82.0
375,105.06950452500001,105.61193632500002,65.0,86.0
376,105.33197152500001,106.42777125,56.0,87.0
377,105.59443852500002,106.47042213750001,61.0,83.0
378,105.85690552500002,106.52400915000001,65.0,84.0
379,105.06950452500001,106.58306422500002,49.0,87.0
380,107.169240525,107.68433201250001,66.0,87.0
381,107.69417452500001,108.04959858750001,63.0,83.0
382,107.43170752500001,108.07803251250002,58.0,83.0
383,107.169240525,108.28472527500001,51.0,85.0
384,107.95664152500001,108.51766473750001,66.0,80.0
385,109.26897652500001,109.51503933750001,56.0,79.0
386,109.26897652500001,109.6069027875,63.0,84.0
387,109.79391052500002,110.6348985375,56.0,85.0
388,110.05637752500002,110.72020031250001,63.0,86.0
389,110.58131152500002,110.96188867500001,68.0,87.0
390,109.53144352500001,110.98157370000001,51.0,83.0
391,109.26897652500001,111.14124112500001,44.0,87.0
392,111.368712525,111.54926216250001,56.0,87.0
393,111.368712525,111.88698095416669,65.0,89.0
394,111.89465638125002,112.22141027708335,61.0,82.0
395,111.63149888125001,112.23566464166669,56.0,88.0
396,111.368712525,112.80364624583335,49.0,90.0
397,112.68412888125002,112.86066370416668,61.0,79.0
398,112.15781388125002,112.93632148541668,65.0,91.0
399,113.47360138125002,113.69618876666668,60.0,80.0
400,113.47360138125002,114.01526723541669,63.0,84.0
401,113.99991638125002,114.70057322500001,60.0,92.0
402,114.26307388125001,114.70166971458335,63.0,91.0
403,114.78938888125002,114.91438869375001,60.0,84.0
404,113.73675888125001,115.03171307916668,56.0,69.0
405,113.47360138125002,115.08544106875001,48.0,90.0
406,114.78938888125002,115.11285330833334,63.0,91.0
407,115.05254638125001,115.20934439166668,60.0,84.0
408,114.78938888125002,115.55912456875001,68.0,86.0
409,115.57886138125002,115.90890474583335,58.0,79.0
410,115.57886138125002,116.16877277708335,61.0,85.0
411,116.10517638125002,116.81460514166668,58.0,86.0
412,116.36833388125001,116.82776301666668,61.0,84.0
413,116.89464888125002,116.94179793333335,61.0,72.0
414,115.84201888125001,117.03719252708335,53.0,82.0
415,115.57886138125002,117.10736786041669,46.0,89.0
416,116.89464888125002,117.15561340208335,65.0,84.0
417,117.68412138125001,117.95714728750002,56.0,81.0
418,117.68412138125001,118.28499767291669,60.0,81.0
419,118.47359388125001,118.53170782916668,60.0,75.0
420,118.47359388125001,118.87490906875001,63.0,90.0
421,118.21043638125002,118.88916343333335,56.0,90.0
422,117.94727888125001,119.21372435000002,51.0,79.0
423,118.99990888125002,119.29596106875002,63.0,84.0
424,118.99990888125002,119.29925053750001,60.0,87.0
425,118.99990888125002,119.32337330833334,68.0,87.0
426,117.68412138125001,119.32446979791668,44.0,89.0
427,119.26306638125001,119.41328545416668,56.0,89.0
428,119.78938138125001,120.43411725625002,54.0,79.0
429,120.31569638125002,120.63696782916668,61.0,82.0
430,119.78938138125001,120.64573974583335,58.0,84.0
431,120.05253888125002,121.37271233958334,49.0,84.0
432,121.10516888125002,121.40999298541668,61.0,84.0
433,120.57885388125001,121.41218596458334,66.0,88.0
434,119.78938138125001,121.47687885000002,42.0,89.0
435,121.89464138125001,122.18959707916669,60.0,82.0
436,121.89464138125001,122.38148275625002,65.0,87.0
437,121.89464138125001,122.47358788125001,41.0,91.0
438,122.15779888125002,122.49332469375001,48.0,83.0
439,122.42095638125002,122.74222782916668,60.0,92.0
440,122.68411388125001,122.77292953750002,65.0,89.0
441,122.94727138125002,123.31240241250002,58.0,85.0
442,122.94727138125002,123.51196351666668,61.0,92.0
443,123.47358638125002,123.59968268333336,58.0,80.0
444,123.21042888125001,123.74880526666668,53.0,78.0
445,122.94727138125002,123.81459464166669,46.0,90.0
446,123.99990138125001,124.31459389166668,58.0,84.0
447,123.99990138125001,124.53937425625001,63.0,85.0
448,124.26305888125002,124.92095263125002,54.0,73.0
449,123.99990138125001,124.93739997500002,51.0,92.0
450,124.52621638125001,125.40011857916669,58.0,82.0
451,124.78937388125001,125.60625862083334,63.0,90.0
452,125.57884638125002,126.00318785000002,58.0,90.0
453,125.84200388125001,126.40450303750002,63.0,81.0
454,126.63147638125001,127.38915068333336,56.0,90.0
455,126.89463388125002,127.51743996458335,63.0,89.0
456,126.36831888125002,127.84200088125002,51.0,79.0
457,127.68410638125002,127.98015856875001,56.0,90.0
458,126.10516138125001,128.02511464166668,44.0,90.0
459,127.42094888125001,128.0777461416667,68.0,88.0
460,128.21042138125,128.5229209125,56.0,90.0
461,128.21042138125,128.6808154125,63.0,89.0
462,128.73673638125,128.80910469375002,56.0,83.0
463,128.47357888125,129.0909025166667,51.0,86.0
464,128.99989388125002,129.34638458958335,56.0,92.0
465,128.99989388125002,129.55910356875,60.0,96.0
466,128.99989388125002,129.61612102708335,63.0,94.0
467,129.52620888125003,129.69835774583333,56.0,93.0
468,129.78936638125,129.94068194375,60.0,90.0
469,128.21042138125,130.06348877708336,44.0,92.0
470,129.26305138125002,130.07006771458336,51.0,90.0
471,130.31568138125002,130.62927740208335,56.0,90.0
472,130.31568138125002,130.88914543333334,61.0,90.0
473,130.84199638125003,131.46480246458336,56.0,91.0
474,131.10515388125,131.48124980833336,61.0,103.0
475,130.57883888125002,131.78717040208335,53.0,85.0
476,130.31568138125002,131.79045987083336,49.0,103.0
477,131.63146888125002,131.79813529791667,56.0,92.0
478,131.63146888125002,131.83212647500002,61.0,95.0
479,131.63146888125002,131.85515275625002,65.0,94.0
480,132.42094138125003,132.66984451666667,60.0,89.0
481,132.42094138125003,133.00317735000002,63.0,90.0
482,132.94725638125,133.11611577708334,60.0,90.0
483,133.21041388125002,133.66107110000002,60.0,91.0
484,133.21041388125002,133.67532546458335,63.0,91.0
485,133.73672888125003,133.80032527708335,60.0,78.0
486,132.68409888125,133.87379007916667,51.0,78.0
487,133.73672888125003,134.03058808958335,63.0,91.0
488,132.42094138125003,134.26742983958334,44.0,90.0
489,133.99988638125,134.3178683604167,60.0,91.0
490,133.21041388125002,134.3310262354167,68.0,89.0
491,134.52620138125002,134.81677112083335,58.0,89.0
492,134.52620138125002,135.08102511041668,61.0,90.0
493,135.05251638125003,135.41326145416667,58.0,86.0
494,135.31567388125,135.42532283958334,61.0,74.0
495,134.78935888125002,135.68409438125002,53.0,85.0
496,135.84198888125002,135.89900633958337,53.0,64.0
497,134.52620138125002,135.95821677708335,46.0,91.0
498,135.57883138125,136.0152342354167,58.0,90.0
499,136.10514638125002,136.24659353750002,53.0,93.0
500,135.57883138125,136.32444429791667,61.0,94.0
501,135.57883138125,136.4658914541667,65.0,103.0
502,136.36830388125003,136.60953158958336,58.0,85.0
503,136.63146138125,137.1150132875,61.0,83.0
504,137.15777638125002,137.2882586416667,56.0,85.0
505,136.89461888125,137.54154773541669,48.0,81.0
506,137.42093388125002,137.71479308958334,56.0,90.0
507,137.42093388125002,137.82882800625,60.0,92.0
508,137.68409138125003,137.96040675625002,48.0,84.0
509,136.63146138125,138.2334326625,41.0,93.0
510,137.94724888125,138.30360799583335,56.0,103.0
511,138.21040638125,138.34198513125003,48.0,91.0
512,138.73672138125002,139.01522973541668,54.0,89.0
513,138.73672138125002,139.28715915208335,58.0,90.0
514,139.26303638125,139.42093088125,54.0,85.0
515,138.99987888125003,139.5974657041667,49.0,85.0
516,139.52619388125,139.91106172500002,54.0,93.0
517,139.52619388125,139.94285992291668,61.0,90.0
518,140.05250888125002,140.21040338125002,54.0,89.0
519,139.78935138125001,140.23781562083335,49.0,84.0
520,138.73672138125002,140.24439455833334,42.0,90.0
521,140.05250888125002,140.24439455833334,58.0,89.0
522,140.84198138125,141.02509514166667,56.0,90.0
523,140.84198138125,141.30031402708335,65.0,91.0
524,141.10513888125,141.47026991250002,56.0,85.0
525,141.36829638125002,141.52619088125002,61.0,90.0
526,141.63145388125002,142.0152252354167,61.0,96.0
527,141.63145388125002,142.05360237083335,56.0,90.0
528,141.63145388125002,142.07553216250002,65.0,93.0
529,140.84198138125,142.2783827354167,49.0,95.0
530,142.15776888125,142.2926371,56.0,85.0
531,142.15776888125,142.46259298541668,61.0,91.0
532,142.42092638125,142.56347002708335,56.0,85.0
533,142.94724138125002,143.24767952708333,58.0,87.0
534,142.94724138125002,143.2816707041667,63.0,89.0
535,143.47355638125,143.62267896458334,58.0,89.0
536,143.73671388125,144.1018449125,58.0,91.0
537,143.73671388125,144.17421322500002,66.0,89.0
538,143.21039888125003,144.25754643333335,46.0,76.0
539,142.94724138125002,144.3123709125,39.0,91.0
540,144.26302888125002,144.53386180833334,58.0,90.0
541,144.26302888125002,144.6698265166667,63.0,91.0
542,144.78934388125003,144.89789635000002,58.0,90.0
543,145.05250138125,145.37157985000002,56.0,91.0
544,145.57881638125002,145.68517587083335,56.0,100.0
545,145.31565888125002,145.92640357916667,51.0,89.0
546,145.84197388125003,146.0886840375,63.0,91.0
547,145.84197388125003,146.121578725,60.0,91.0
548,145.84197388125003,146.29701705833335,56.0,90.0
549,146.36828888125,146.66543755833334,60.0,90.0
550,146.36828888125,146.6829813916667,63.0,91.0
551,146.36828888125,146.78056896458335,68.0,90.0
552,146.63144638125002,146.82333205833334,56.0,91.0
553,146.10513138125003,146.84087589166668,51.0,91.0
554,145.05250138125,146.88363898541667,44.0,90.0
555,147.15776138125003,147.4395592041667,56.0,91.0
556,147.15776138125003,147.71477808958335,61.0,89.0
557,147.94723388125,148.33977715208334,61.0,90.0
558,147.68407638125,148.36718939166667,56.0,88.0
559,147.42091888125003,148.6204784854167,53.0,88.0
560,148.47354888125003,148.62486444375003,56.0,91.0
561,147.15776138125003,148.6270574229167,49.0,103.0
562,148.47354888125003,148.68517137083336,61.0,90.0
563,148.47354888125003,148.73670638125003,65.0,92.0
564,149.26302138125,149.45161758958335,60.0,89.0
565,149.26302138125,149.77617850625,63.0,91.0
566,149.78933638125002,150.16543230833335,60.0,95.0
567,150.05249388125003,150.43626523541667,63.0,95.0
568,150.57880888125,150.74766827708333,60.0,90.0
569,150.57880888125,150.95051885,63.0,95.0
570,149.26302138125,150.96258023541668,44.0,91.0
571,149.52617888125002,150.96915917291668,51.0,84.0
572,150.57880888125,151.05907131875003,68.0,88.0
573,151.36828138125003,151.63582483958334,58.0,82.0
574,151.36828138125003,151.95490330833334,61.0,85.0
575,151.89459638125,152.02617513125003,58.0,86.0
576,151.63143888125,152.28933263125003,53.0,85.0
577,152.15775388125002,152.5360427875,58.0,88.0
578,152.15775388125002,152.57003396458336,61.0,90.0
579,152.15775388125002,152.58977077708334,65.0,91.0
580,152.42091138125002,152.96038425625002,53.0,76.0
581,152.68406888125003,153.03275256875003,58.0,96.0
582,152.94722638125,153.05248938125,61.0,90.0
583,151.36828138125003,153.0809981104167,46.0,88.0
584,153.47354138125002,153.7553392041667,53.0,84.0
585,153.47354138125002,153.95709328750002,56.0,85.0
586,153.99985638125003,154.36937337083336,53.0,85.0
587,154.26301388125,154.62814491250003,56.0,91.0
588,153.73669888125002,154.88691645416668,48.0,81.0
589,154.78932888125001,155.07331968333335,53.0,90.0
590,153.47354138125002,155.10621437083336,41.0,91.0
591,154.78932888125001,155.13581958958335,60.0,89.0
592,155.05248638125002,155.25643344375,48.0,90.0
593,155.57880138125,156.1676162875,58.0,83.0
594,155.57880138125,156.25862492291668,54.0,85.0
595,156.10511638125,156.41542293333336,61.0,89.0
596,155.84195888125,156.55358062083334,49.0,88.0
597,155.57880138125,157.1204657354167,42.0,90.0
598,156.36827388125002,157.17090425625003,66.0,94.0
599,156.63143138125002,157.18406213125002,49.0,90.0
600,156.89458888125,157.22353575625002,61.0,93.0
601,157.15774638125004,157.35182503750002,58.0,90.0
602,157.42090388125,157.51410549583335,54.0,90.0
603,157.68406138125002,157.93077153750002,56.0,85.0
604,157.68406138125002,158.26739383958335,61.0,89.0
605,158.21037638125003,158.44063919375003,56.0,93.0
606,158.47353388125003,158.7915158604167,56.0,75.0
607,158.47353388125003,159.02397165208336,65.0,93.0
608,157.94721888125002,159.09414698541667,53.0,89.0
609,157.68406138125002,159.1412960375,49.0,90.0
610,158.99984888125002,159.27177829791668,61.0,91.0
611,159.26300638125002,159.34962905833333,56.0,84.0
612,159.78932138125003,160.05905781875003,58.0,90.0
613,159.78932138125003,160.62923240208335,66.0,90.0
614,160.31563638125002,160.90225830833336,58.0,89.0
615,160.05247888125,161.13471410000002,46.0,84.0
616,159.78932138125003,161.18734560000001,39.0,92.0
617,160.57879388125002,161.20817890208335,63.0,92.0
618,161.89458138125002,162.21256336041668,56.0,85.0
619,161.89458138125002,162.32879125625,63.0,88.0
620,162.42089638125003,163.14677248541668,56.0,91.0
621,162.68405388125,163.24216707916668,63.0,91.0
622,162.15773888125003,163.35181603750001,51.0,86.0
623,163.21036888125002,163.37593880833336,68.0,89.0
624,161.89458138125002,163.62593843333335,44.0,90.0
625,163.99984138125,164.31343740208337,56.0,90.0
626,163.99984138125,164.57330543333336,61.0,90.0
627,164.52615638125002,165.14896246458335,56.0,91.0
628,164.78931388125002,165.16540980833335,61.0,103.0
629,164.26299888125,165.47133040208337,53.0,85.0
630,163.99984138125,165.47461987083335,49.0,103.0
631,165.31562888125,165.4822952979167,56.0,92.0
632,165.31562888125,165.51628647500002,61.0,95.0
633,165.31562888125,165.53931275625,65.0,94.0
634,166.10510138125002,166.3540045166667,60.0,89.0
635,166.10510138125002,166.68733735,63.0,90.0
636,166.63141638125,166.80027577708336,60.0,90.0
637,166.89457388125,167.34523110000003,60.0,91.0
638,166.89457388125,167.35948546458334,63.0,91.0
639,167.42088888125002,167.48448527708337,60.0,78.0
640,166.36825888125003,167.5579500791667,51.0,78.0
641,167.42088888125002,167.71474808958334,63.0,91.0
642,166.10510138125002,167.95158983958336,44.0,90.0
643,167.68404638125003,168.0020283604167,60.0,91.0
644,166.89457388125,168.01518623541668,68.0,89.0
645,168.21036138125,168.50093112083334,58.0,89.0
646,168.21036138125,168.7651851104167,61.0,90.0
647,168.73667638125002,169.0974214541667,58.0,86.0
648,168.99983388125003,169.10948283958334,61.0,74.0
649,168.47351888125002,169.36825438125,53.0,85.0
650,169.52614888125004,169.58316633958336,53.0,64.0
651,168.21036138125,169.64237677708337,46.0,91.0
652,169.26299138125,169.6993942354167,58.0,90.0
653,169.78930638125001,169.9307535375,53.0,93.0
654,169.26299138125,170.0086042979167,61.0,94.0
655,169.26299138125,170.1500514541667,65.0,103.0
656,170.05246388125002,170.29369158958335,58.0,85.0
657,170.31562138125003,170.79917328750003,61.0,83.0
658,170.84193638125004,170.97241864166668,56.0,85.0
659,170.57877888125,171.22570773541668,48.0,81.0
660,171.10509388125,171.39895308958336,56.0,90.0
661,171.10509388125,171.51298800625003,60.0,92.0
662,171.36825138125002,171.64456675625001,48.0,84.0
663,170.31562138125003,171.91759266250003,41.0,93.0
664,171.63140888125002,171.98776799583334,56.0,103.0
665,171.89456638125003,172.02614513125002,48.0,91.0
666,172.42088138125,172.69938973541667,54.0,89.0
667,172.42088138125,172.97131915208337,58.0,90.0
668,172.94719638125002,173.10509088125002,54.0,85.0
669,172.68403888125002,173.2816257041667,49.0,85.0
670,173.21035388125003,173.59522172500002,54.0,93.0
671,173.21035388125003,173.6270199229167,61.0,90.0
672,173.73666888125,173.89456338125,54.0,89.0
673,173.47351138125003,173.92197562083334,49.0,84.0
674,172.42088138125,173.92855455833336,42.0,90.0
675,173.73666888125,173.92855455833336,58.0,89.0
676,174.52614138125003,174.7092551416667,56.0,90.0
677,174.52614138125003,174.98447402708337,65.0,91.0
678,174.78929888125003,175.1544299125,56.0,85.0
679,175.05245638125,175.21035088125,61.0,90.0
680,175.31561388125002,175.69938523541668,61.0,96.0
681,175.31561388125002,175.73776237083337,56.0,90.0
682,175.31561388125002,175.75969216250002,65.0,93.0
683,174.52614138125003,175.9625427354167,49.0,95.0
684,175.84192888125003,175.97679710000003,56.0,85.0
685,175.84192888125003,176.1467529854167,61.0,91.0
686,176.10508638125003,176.24763002708335,56.0,85.0
687,176.63140138125001,176.93183952708335,58.0,87.0
688,176.63140138125001,176.9658307041667,63.0,89.0
689,177.15771638125003,177.30683896458333,58.0,89.0
690,177.42087388125003,177.7860049125,58.0,91.0
691,177.42087388125003,177.85837322500004,66.0,89.0
692,176.89455888125002,177.94170643333337,46.0,76.0
693,176.63140138125001,177.99653091250002,39.0,91.0
694,177.94718888125,178.21802180833333,58.0,90.0
695,177.94718888125,178.35398651666668,63.0,91.0
696,178.47350388125002,178.58205635000002,58.0,90.0
697,178.73666138125003,179.05573985,56.0,91.0
698,179.26297638125004,179.36933587083337,56.0,100.0
699,178.99981888125,179.6105635791667,51.0,89.0
700,179.52613388125002,179.77284403750002,63.0,91.0
701,179.52613388125002,179.80573872500003,60.0,91.0
702,179.52613388125002,179.98117705833334,56.0,90.0
703,180.05244888125003,180.34959755833336,60.0,90.0
704,180.05244888125003,180.36714139166668,63.0,91.0
705,180.05244888125003,180.46472896458334,68.0,90.0
706,180.31560638125,180.50749205833336,56.0,91.0
707,179.78929138125002,180.52503589166668,51.0,91.0
708,178.73666138125003,180.5677989854167,44.0,90.0
709,180.84192138125002,181.1237192041667,56.0,91.0
710,180.84192138125002,181.39893808958334,61.0,89.0
711,181.63139388125,182.02393715208336,61.0,90.0
712,181.36823638125003,182.0513493916667,56.0,88.0
713,181.10507888125002,182.3046384854167,53.0,88.0
714,182.15770888125002,182.30902444375002,56.0,91.0
715,180.84192138125002,182.31121742291668,49.0,103.0
716,182.15770888125002,182.36933137083335,61.0,90.0
717,182.15770888125002,182.42086638125002,65.0,92.0
718,182.94718138125,183.13577758958337,60.0,89.0
719,182.94718138125,183.46033850625003,63.0,91.0
720,183.47349638125002,183.84959230833334,60.0,95.0
721,183.73665388125002,184.1204252354167,63.0,95.0
722,184.26296888125,184.43182827708335,60.0,90.0
723,184.26296888125,184.63467885,63.0,95.0
724,182.94718138125,184.6467402354167,44.0,91.0
725,183.21033888125004,184.65331917291667,51.0,84.0
726,184.26296888125,184.74323131875002,68.0,88.0
727,185.05244138125002,185.31998483958336,58.0,82.0
728,185.05244138125002,185.63906330833333,61.0,85.0
729,185.57875638125,185.71033513125002,58.0,86.0
730,185.31559888125003,185.97349263125002,53.0,85.0
731,185.84191388125004,186.22020278750003,58.0,88.0
732,185.84191388125004,186.25419396458335,61.0,90.0
733,185.84191388125004,186.27393077708336,65.0,91.0
734,186.10507138125,186.64454425625001,53.0,76.0
735,186.36822888125002,186.71691256875002,58.0,96.0
736,186.63138638125002,186.73664938125,61.0,90.0
737,185.05244138125002,186.76515811041668,46.0,88.0
738,187.15770138125004,187.43949920416668,53.0,84.0
739,187.15770138125004,187.64125328750004,56.0,85.0
740,187.68401638125002,188.05353337083335,53.0,85.0
741,187.94717388125002,188.31230491250003,56.0,91.0
742,187.42085888125,188.5710764541667,48.0,81.0
743,188.47348888125003,188.75747968333337,53.0,90.0
744,187.15770138125004,188.79037437083335,41.0,91.0
745,188.47348888125003,188.81997958958334,60.0,89.0
746,188.73664638125,188.94059344375,48.0,90.0
747,189.26296138125002,189.8517762875,58.0,83.0
748,189.26296138125002,189.9427849229167,54.0,85.0
749,189.78927638125003,190.09958293333335,61.0,89.0
750,189.52611888125003,190.23774062083334,49.0,88.0
751,189.26296138125002,190.8046257354167,42.0,90.0
752,190.05243388125,190.85506425625002,66.0,94.0
753,190.31559138125002,190.86822213125004,49.0,90.0
754,190.57874888125002,190.90769575625,61.0,93.0
755,190.84190638125003,191.03598503750004,58.0,90.0
756,191.10506388125003,191.19826549583337,54.0,90.0
757,191.36822138125,191.6149315375,56.0,85.0
758,191.36822138125,191.95155383958337,61.0,89.0
759,191.89453638125002,192.12479919375002,56.0,93.0
760,192.15769388125003,192.4756758604167,56.0,75.0
761,192.15769388125003,192.70813165208335,65.0,93.0
762,191.63137888125001,192.7783069854167,53.0,89.0
763,191.36822138125,192.82545603750003,49.0,90.0
764,192.68400888125,192.9559382979167,61.0,91.0
765,192.94716638125004,193.03378905833335,56.0,84.0
766,193.47348138125002,193.74321781875003,58.0,90.0
767,193.47348138125002,194.31339240208337,66.0,90.0
768,193.99979638125,194.58641830833335,58.0,89.0
769,193.73663888125003,194.81887410000002,46.0,84.0
770,193.47348138125002,194.87150560000003,39.0,92.0
771,194.26295388125004,194.89233890208334,63.0,92.0
772,195.57874138125004,195.89672336041667,56.0,85.0
773,195.57874138125004,196.01295125625,63.0,88.0
774,196.10505638125002,196.8309324854167,56.0,91.0
775,196.36821388125003,196.9263270791667,63.0,91.0
776,195.84189888125002,197.0359760375,51.0,86.0
777,196.89452888125004,197.06009880833335,68.0,89.0
778,195.57874138125004,197.31009843333334,44.0,90.0
779,197.61272955833334,201.1500049541667,44.0,89.0
780,197.50088762083334,201.8375039229167,56.0,76.0
781,197.57983487083334,201.85943371458336,60.0,84.0
782,197.65001020416668,201.86491616250004,63.0,78.0
783,197.69058031875002,201.90110031875003,68.0,84.0
784,202.42083638125,202.73772187083335,63.0,80.0
785,201.89452138125,203.78048346458337,49.0,91.0
786,202.68399388125002,204.1105268291667,61.0,85.0
787,202.15767888125004,204.15328992291668,56.0,83.0
788,202.68399388125002,204.6138155479167,65.0,85.0
789,204.26293888125002,205.63355086041668,56.0,82.0
790,204.52609638125003,205.67083150625,63.0,83.0
791,204.78925388125003,205.71140162083336,60.0,85.0
792,203.99978138125002,205.78596291250003,48.0,90.0
793,204.78925388125003,206.19495352708336,68.0,89.0
794,206.10504138125003,206.38574271458336,58.0,74.0
795,206.10504138125003,206.67192649583336,61.0,78.0
796,206.36819888125,207.58639880833334,53.0,82.0
797,206.10504138125003,207.58859178750004,46.0,88.0
798,206.89451388125002,207.64670573541667,61.0,85.0
799,206.63135638125004,207.66973201666667,58.0,88.0
800,206.89451388125002,208.96687919375,65.0,87.0
801,208.73661638125003,209.59955368333334,56.0,90.0
802,208.99977388125,209.6269659229167,60.0,85.0
803,208.99977388125,209.71139562083334,63.0,83.0
804,208.21030138125002,209.7618341416667,44.0,90.0
805,208.47345888125002,210.0611757979167,51.0,84.0
806,210.31556138125,210.5940697354167,58.0,79.0
807,210.31556138125,210.96029725625004,61.0,83.0
808,210.57871888125004,211.92520808958335,49.0,80.0
809,211.10503388125002,211.96139224583334,61.0,86.0
810,210.84187638125002,212.0118307666667,58.0,89.0
811,210.31556138125,212.0677517354167,42.0,89.0
812,211.10503388125002,212.10832185000004,66.0,89.0
813,212.42082138125002,212.73661038125002,60.0,86.0
814,212.42082138125002,212.94494340208337,65.0,90.0
815,212.42082138125002,213.0743291729167,68.0,84.0
816,212.42082138125002,213.07542566250004,41.0,91.0
817,212.68397888125003,213.07981162083337,48.0,78.0
818,212.94713638125,213.2815657041667,60.0,90.0
819,213.21029388125004,213.3407761416667,65.0,82.0
820,213.47345138125002,213.83529294375,58.0,82.0
821,213.47345138125002,214.1072223604167,61.0,89.0
822,213.99976638125003,214.1697222666667,58.0,83.0
823,213.73660888125002,214.3769587979167,53.0,81.0
824,213.47345138125002,214.4526165791667,46.0,89.0
825,214.52608138125004,214.8572212354167,58.0,79.0
826,214.52608138125004,215.09406298541668,63.0,83.0
827,215.05239638125002,216.05349137083334,58.0,81.0
828,215.31555388125003,216.06555275625004,63.0,88.0
829,214.78923888125001,216.13792106875002,54.0,77.0
830,214.52608138125004,216.19274554791667,51.0,90.0
831,217.42081388125,217.78375193333335,63.0,86.0
832,217.15765638125004,217.82103257916668,56.0,89.0
833,217.94712888125002,218.29361958958336,63.0,85.0
834,216.89449888125003,218.38353173541668,51.0,79.0
835,217.68397138125002,218.38901418333336,68.0,83.0
836,218.21028638125003,218.4361632354167,56.0,84.0
837,216.63134138125002,218.45480355833337,44.0,89.0
838,218.73660138125,222.85611274583334,60.0,81.0
839,218.6806804125,222.86598115208335,56.0,78.0
840,218.73660138125,222.96356872500002,44.0,86.0
841,218.7980047979167,223.07212119375004,68.0,80.0
842,223.63681332916667,223.93396200625003,51.0,89.0
843,223.89119891250004,224.12255821458336,53.0,83.0
844,224.11159331875,224.2519439854167,56.0,85.0
845,224.39448763125003,224.6664170479167,61.0,86.0
846,224.753039725,224.90545177708336,63.0,83.0
847,225.11926724583336,225.24646003750001,65.0,82.0
848,225.53264381875005,225.69492427708337,65.0,80.0
849,225.52606488125002,225.71027513125003,68.0,76.0
850,225.89229240208334,226.0118097666667,65.0,72.0
851,225.9493098604167,226.77058055833336,68.0,75.0
852,226.01838870416668,226.80566822500003,73.0,80.0
853,223.37804178750002,226.8572032354167,44.0,84.0
854,223.02606863125004,226.90544877708336,37.0,90.0
