,start,end,pitch,velocity
0,32.73677448125,32.9350917625,66.0,94.0
1,33.02523598125,33.20792826458333,71.0,96.0
2,33.313697481249996,33.47235130625,73.0,94.0
3,33.60215898125,33.794466647916664,73.0,97.0
4,33.89062048125,34.07090891875,75.0,92.0
5,34.17908198125,34.64062038125,75.0,91.0
6,34.75600498125,34.960331877083334,73.0,95.0
7,35.04446648125,35.1850914625,75.0,91.0
8,35.33292798125,35.74518754166667,75.0,97.0
9,35.909850981249996,36.09735095625,73.0,96.0
10,36.19831248125,36.391822070833335,75.0,97.0
11,36.486773981249996,36.677879725,78.0,94.0
12,36.77523548125,36.94831238125,75.0,96.0
13,37.06369698125,37.481966156249996,71.0,94.0
14,37.64061998125,37.89061994791667,71.0,94.0
15,37.92908148125,38.14302376041667,66.0,90.0
16,38.21754298125,38.896629429166666,68.0,93.0
17,39.082927481249996,39.31369668125,75.0,92.0
18,39.37138898125,39.88581198958333,73.0,97.0
19,39.94831198125,40.18869656458333,71.0,92.0
20,40.23677348125,40.41585999583333,73.0,92.0
21,40.52523498125,41.80648481041666,75.0,94.0
22,41.96754248125,42.164657839583334,66.0,90.0
23,42.25600398125,42.42908088125,71.0,94.0
24,42.54446548125,42.70191738333333,73.0,92.0
25,42.83292698125,43.03725387708333,73.0,95.0
26,43.12138848125,43.28965768958333,75.0,91.0
27,43.40984998125,43.877397995833334,75.0,93.0
28,43.98677298125,44.1850902625,73.0,94.0
29,44.275234481249996,44.43148446041666,75.0,94.0
30,44.56369598125,44.963936312499996,75.0,101.0
31,45.14061898125,45.307686266666664,73.0,96.0
32,45.42908048125,45.6129746875,75.0,96.0
33,45.71754198125,45.884609266666665,78.0,94.0
34,46.00600348125,46.15624384583333,75.0,97.0
35,46.29446498125,46.7379745375,71.0,94.0
36,46.871387981249995,47.045666804166665,71.0,91.0
37,47.15984948125,47.344945610416666,70.0,89.0
38,47.448310981249996,47.87379169375,68.0,94.0
39,48.31369548125,48.54446468125,75.0,92.0
40,48.60215698125,49.06850307291666,73.0,94.0
41,49.17907998125,49.3773972625,71.0,90.0
42,49.467541481249995,49.675474145833334,73.0,93.0
43,49.75600298125,51.230762399999996,71.0,92.0
44,51.48677198125,51.70191618333333,71.0,91.0
45,51.77523348125,52.0168199875,70.0,92.0
46,52.06369498125,52.54806991666666,68.0,91.0
47,52.640617981249996,53.11657945625,71.0,95.0
48,53.217540981249996,53.635810156249995,73.0,97.0
49,53.79446398125,53.992781262499996,71.0,94.0
50,54.08292548125,54.274031225,73.0,97.0
51,54.37138698125,54.60456002708333,75.0,92.0
52,54.65984848125,54.84494461041667,78.0,90.0
53,54.94830998125,55.137011879166664,73.0,96.0
54,55.236771481249995,55.419463764583334,75.0,91.0
55,55.52523298125,55.86537716666667,71.0,91.0
56,56.10215598125,56.331723258333334,71.0,69.0
57,56.39061748125,56.62018475833333,70.0,91.0
58,56.67907898125,57.17907891458333,68.0,90.0
59,57.25600198125,57.762011529166664,71.0,91.0
60,57.832924981249995,58.00840572708333,73.0,94.0
61,58.12138648125,58.23677108125,75.0,92.0
62,58.26561723125,58.3629729875,73.0,92.0
63,58.409847981249996,58.612972954166665,71.0,92.0
64,58.69830948125,58.866578689583335,73.0,94.0
65,58.98677098125,60.35215541458333,75.0,92.0
66,60.71753998125,60.92186687708333,71.0,72.0
67,61.006001481249996,61.20672260833333,70.0,94.0
68,61.29446298125,61.79085714583333,68.0,91.0
69,61.87138598125,62.36056860833333,71.0,91.0
70,62.44830898125,62.62258780416666,73.0,96.0
71,62.73677048125,62.85816469583333,75.0,92.0
72,62.881001231249996,62.985568525,73.0,94.0
73,63.025231981249995,63.195905035416665,71.0,91.0
74,63.31369348125,63.465135768749995,73.0,96.0
75,63.602154981249996,63.89422225,75.0,94.0
76,63.89061648125,64.06850107291666,78.0,91.0
77,64.17907798125,64.39061641458333,78.0,90.0
78,64.46753948125,64.69109714375,75.0,92.0
79,64.75600098125,65.0841259375,80.0,92.0
80,65.33292398125,65.54205856875,75.0,92.0
81,65.62138548125,65.86657775625,73.0,99.0
82,65.90984698125,66.63220265416666,71.0,87.0
83,66.77523148125,66.95672184166666,75.0,94.0
84,67.06369298125,67.24037565,73.0,97.0
85,67.35215448125,67.45311600625,75.0,91.0
86,67.49638523125,67.64301982708334,73.0,85.0
87,67.64061598125,67.86176979791666,71.0,93.0
88,67.92907748125,68.11537553333334,73.0,90.0
89,68.21753898125,69.49878881041667,71.0,92.0
90,69.65984648125,69.85455799374999,71.0,91.0
91,69.94830798125,70.12138488125,75.0,92.0
92,70.23676948125,70.43388483958333,76.0,91.0
93,70.52523098125,70.68508672916667,78.0,92.0
94,70.81369248125,70.96393284583333,71.0,94.0
95,71.10215398125,71.25359626875,75.0,97.0
96,71.39061548125,71.581721225,76.0,91.0
97,71.67907698124999,72.10455769375,78.0,92.0
98,72.25599998125,72.42306726666666,80.0,94.0
99,72.54446148125,72.706721075,82.0,92.0
100,72.83292298125,73.01441334166667,83.0,94.0
101,73.12138448125,73.29446138125,75.0,94.0
102,73.40984598125,73.5937401875,75.0,96.0
103,73.69830748125,73.87739399583333,76.0,91.0
104,73.98676898125,74.38099969791666,78.0,91.0
105,75.14061498125,75.5841245375,80.0,91.0
106,75.71753798125,75.90984564791667,78.0,90.0
107,76.00599948125,76.17426868958333,76.0,90.0
108,76.29446098125,76.4422975,78.0,91.0
109,76.58292248125,76.76080707291666,83.0,87.0
110,76.87138398124999,77.14301856041666,83.0,97.0
111,77.44830698125,77.92306653333333,80.0,92.0
112,78.02522998124999,78.187489575,80.0,94.0
113,78.31369148125,78.48196068958333,82.0,92.0
114,78.60215298125,79.09854714583334,83.0,92.0
115,79.17907598125,79.56849900625,82.0,96.0
116,79.75599898125,80.25239314583334,78.0,90.0
117,80.33292198125,80.52282580208333,75.0,94.0
118,80.62138348124999,80.85455652708333,76.0,93.0
119,80.90984498125,81.37378722708333,78.0,91.0
120,81.48676798125,81.70071026041667,80.0,90.0
121,81.77522948125,81.94830638124999,82.0,91.0
122,82.06369098124999,82.43268131666666,83.0,94.0
123,82.64061398125,82.81970049583333,82.0,91.0
124,82.92907548125,83.091335075,80.0,90.0
125,83.21753698124999,84.12018109166667,78.0,94.0
126,84.37138298125,84.55888295625,76.0,91.0
127,84.65984448124999,84.85095022499999,78.0,87.0
128,84.94830598125,85.13580595625,80.0,91.0
129,85.23676748125,85.45191168333334,76.0,91.0
130,85.52522898125,85.81369048124999,78.0,91.0
131,85.81369048124999,85.98676738125,83.0,95.0
132,86.10215198125,86.42546924583333,83.0,94.0
133,86.67907498125,86.87378649375,83.0,95.0
134,86.96753648125,87.11777684583333,82.0,96.0
135,87.25599798125,87.42306526666667,78.0,93.0
136,87.54445948125,87.73676714791667,71.0,94.0
137,87.83292098125,88.35455552708333,75.0,92.0
138,88.40984398124999,88.64421895,73.0,96.0
139,88.98676698125,90.73195905624999,71.0,92.0
140,106.58291848124999,106.7812357625,66.0,94.0
141,106.87137998125,107.05407226458333,71.0,96.0
142,107.15984148125,107.31849530625,73.0,94.0
143,107.44830298125,107.64061064791666,73.0,97.0
144,107.73676448124999,107.91705291875,75.0,92.0
145,108.02522598125,108.48676438125,75.0,91.0
146,108.60214898125,108.80647587708333,73.0,95.0
147,108.89061048125,109.03123546249999,75.0,91.0
148,109.17907198124999,109.59133154166666,75.0,97.0
149,109.75599498125,109.94349495624999,73.0,96.0
150,110.04445648125,110.23796607083332,75.0,97.0
151,110.33291798124999,110.52402372499999,78.0,94.0
152,110.62137948125,110.79445638125,75.0,96.0
153,110.90984098125,111.32811015624999,71.0,94.0
154,111.48676398125,111.73676394791666,71.0,94.0
155,111.77522548124999,111.98916776041666,66.0,90.0
156,112.06368698125,112.74277342916666,68.0,93.0
157,112.92907148124999,113.15984068125,75.0,92.0
158,113.21753298125,113.73195598958333,73.0,97.0
159,113.79445598125,114.03484056458333,71.0,92.0
160,114.08291748124999,114.26200399583333,73.0,92.0
161,114.37137898125,115.65262881041666,75.0,94.0
162,115.81368648125,116.01080183958334,66.0,90.0
163,116.10214798125,116.27522488125,71.0,94.0
164,116.39060948125,116.54806138333333,73.0,92.0
165,116.67907098124999,116.88339787708333,73.0,95.0
166,116.96753248125,117.13580168958333,75.0,91.0
167,117.25599398125,117.72354199583333,75.0,93.0
168,117.83291698125,118.03123426249999,73.0,94.0
169,118.12137848124999,118.27762846041666,75.0,94.0
170,118.40983998125,118.81008031249999,75.0,101.0
171,118.98676298125,119.15383026666666,73.0,96.0
172,119.27522448124999,119.4591186875,75.0,96.0
173,119.56368598125,119.73075326666667,78.0,94.0
174,119.85214748125,120.00238784583333,75.0,97.0
175,120.14060898125,120.5841185375,71.0,94.0
176,120.71753198124999,120.89181080416667,71.0,91.0
177,121.00599348125,121.19108961041667,70.0,89.0
178,121.29445498125,121.71993569375,68.0,94.0
179,122.15983948125,122.39060868125,75.0,92.0
180,122.44830098125,122.91464707291667,73.0,94.0
181,123.02522398125,123.22354126249999,71.0,90.0
182,123.31368548124999,123.52161814583333,73.0,93.0
183,123.60214698125,125.0769064,71.0,92.0
184,125.33291598125,125.54806018333333,71.0,91.0
185,125.62137748125,125.8629639875,70.0,92.0
186,125.90983898124999,126.39421391666666,68.0,91.0
187,126.48676198125,126.96272345625,71.0,95.0
188,127.06368498124999,127.48195415625,73.0,97.0
189,127.64060798125,127.8389252625,71.0,94.0
190,127.92906948125,128.120175225,73.0,97.0
191,128.21753098125,128.45070402708333,75.0,92.0
192,128.50599248125,128.69108861041667,78.0,90.0
193,128.79445398125,128.98315587916667,73.0,96.0
194,129.08291548124998,129.26560776458334,75.0,91.0
195,129.37137698125,129.71152116666667,71.0,91.0
196,129.94829998125,130.17786725833332,71.0,69.0
197,130.23676148125,130.46632875833333,70.0,91.0
198,130.52522298125,131.02522291458334,68.0,90.0
199,131.10214598125,131.60815552916665,71.0,91.0
200,131.67906898125,131.85454972708334,73.0,94.0
201,131.96753048125,132.08291508125,75.0,92.0
202,132.11176123125,132.2091169875,73.0,92.0
203,132.25599198125,132.45911695416666,71.0,92.0
204,132.54445348125,132.71272268958333,73.0,94.0
205,132.83291498124998,134.19829941458332,75.0,92.0
206,134.56368398125,134.76801087708333,71.0,72.0
207,134.85214548125,135.05286660833332,70.0,94.0
208,135.14060698125,135.63700114583332,68.0,91.0
209,135.71752998125,136.20671260833333,71.0,91.0
210,136.29445298125,136.46873180416665,73.0,96.0
211,136.58291448125,136.70430869583333,75.0,92.0
212,136.72714523125,136.831712525,73.0,94.0
213,136.87137598125,137.04204903541665,71.0,91.0
214,137.15983748125,137.31127976874998,73.0,96.0
215,137.44829898125,137.74036625,75.0,94.0
216,137.73676048125,137.91464507291667,78.0,91.0
217,138.02522198124998,138.23676041458333,78.0,90.0
218,138.31368348125,138.53724114375,75.0,92.0
219,138.60214498125,138.9302699375,80.0,92.0
220,139.17906798125,139.38820256875,75.0,92.0
221,139.46752948124998,139.71272175625,73.0,99.0
222,139.75599098125,140.47834665416667,71.0,87.0
223,140.62137548125,140.80286584166666,75.0,94.0
224,140.90983698125,141.08651964999999,73.0,97.0
225,141.19829848125,141.29926000625,75.0,91.0
226,141.34252923124998,141.48916382708333,73.0,85.0
227,141.48675998125,141.70791379791666,71.0,93.0
228,141.77522148125,141.96151953333333,73.0,90.0
229,142.06368298125,143.34493281041665,71.0,92.0
230,143.50599048125,143.70070199375,71.0,91.0
231,143.79445198125,143.96752888125,75.0,92.0
232,144.08291348125,144.28002883958334,76.0,91.0
233,144.37137498125,144.53123072916665,78.0,92.0
234,144.65983648124998,144.81007684583332,71.0,94.0
235,144.94829798125,145.09974026875,75.0,97.0
236,145.23675948125,145.427865225,76.0,91.0
237,145.52522098125,145.95070169375,78.0,92.0
238,146.10214398125,146.26921126666667,80.0,94.0
239,146.39060548125,146.552865075,82.0,92.0
240,146.67906698125,146.86055734166666,83.0,94.0
241,146.96752848124999,147.14060538125,75.0,94.0
242,147.25598998125,147.43988418749998,75.0,96.0
243,147.54445148125,147.72353799583334,76.0,91.0
244,147.83291298125,148.22714369791666,78.0,91.0
245,148.98675898125,149.43026853749998,80.0,91.0
246,149.56368198125,149.75598964791666,78.0,90.0
247,149.85214348124998,150.02041268958334,76.0,90.0
248,150.14060498125,150.2884415,78.0,91.0
249,150.42906648125,150.60695107291667,83.0,87.0
250,150.71752798125,150.98916256041667,83.0,97.0
251,151.29445098125,151.76921053333334,80.0,92.0
252,151.87137398125,152.03363357499998,80.0,94.0
253,152.15983548124998,152.32810468958334,82.0,92.0
254,152.44829698125,152.94469114583333,83.0,92.0
255,153.02521998125,153.41464300625,82.0,96.0
256,153.60214298124998,154.09853714583332,78.0,90.0
257,154.17906598125,154.36896980208334,75.0,94.0
258,154.46752748125,154.70070052708334,76.0,93.0
259,154.75598898125,155.21993122708332,78.0,91.0
260,155.33291198125,155.54685426041667,80.0,90.0
261,155.62137348125,155.79445038125,82.0,91.0
262,155.90983498125,156.27882531666665,83.0,94.0
263,156.48675798125,156.66584449583334,82.0,91.0
264,156.77521948125,156.937479075,80.0,90.0
265,157.06368098125,157.96632509166668,78.0,94.0
266,158.21752698125,158.40502695625,76.0,91.0
267,158.50598848125,158.697094225,78.0,87.0
268,158.79444998124998,158.98194995625,80.0,91.0
269,159.08291148125,159.29805568333333,76.0,91.0
270,159.37137298125,159.65983448125,78.0,91.0
271,159.65983448125,159.83291138125,83.0,95.0
272,159.94829598125,160.27161324583332,83.0,94.0
273,160.52521898125,160.71993049374998,83.0,95.0
274,160.81368048125,160.96392084583334,82.0,96.0
275,161.10214198124999,161.26920926666665,78.0,93.0
276,161.39060348125,161.58291114791666,71.0,94.0
277,161.67906498125,162.20069952708332,75.0,92.0
278,162.25598798125,162.49036295,73.0,96.0
279,162.83291098125,164.57810305625,71.0,92.0
280,166.58291048125,166.77762199375,72.0,91.0
281,166.87137198125,167.04444888125,76.0,92.0
282,167.15983348125,167.35694883958334,77.0,91.0
283,167.44829498125,167.60815072916665,79.0,92.0
284,167.73675648124998,167.88699684583332,72.0,94.0
285,168.02521798125,168.17666026875,76.0,97.0
286,168.31367948125,168.504785225,77.0,91.0
287,168.60214098125,169.02762169375,79.0,92.0
288,169.17906398124998,169.34613126666667,81.0,94.0
289,169.46752548125,169.629785075,83.0,92.0
290,169.75598698125,169.93747734166666,84.0,94.0
291,170.04444848125,170.21752538125,76.0,94.0
292,170.33290998125,170.5168041875,76.0,96.0
293,170.62137148125,170.80045799583334,77.0,91.0
294,170.90983298125,171.30406369791666,79.0,91.0
295,172.06367898125,172.50718853749999,81.0,91.0
296,172.64060198125,172.83290964791667,79.0,90.0
297,172.92906348124998,173.09733268958334,77.0,90.0
298,173.21752498125,173.3653615,79.0,91.0
299,173.50598648125,173.68387107291667,84.0,87.0
300,173.79444798125,174.06608256041667,84.0,97.0
301,174.37137098124998,174.84613053333334,81.0,92.0
302,174.94829398125,175.11055357499998,81.0,94.0
303,175.23675548125,175.40502468958334,83.0,92.0
304,175.52521698125,176.02161114583333,84.0,92.0
305,176.10213998125,176.49156300625,83.0,96.0
306,176.67906298124998,177.17545714583332,79.0,90.0
307,177.25598598125,177.44588980208331,76.0,94.0
308,177.54444748125,177.77762052708331,77.0,93.0
309,177.83290898125,178.29685122708332,79.0,91.0
310,178.40983198125,178.62377426041667,81.0,90.0
311,178.69829348125,178.87137038125,83.0,91.0
312,178.98675498125,179.35574531666666,84.0,94.0
313,179.56367798124998,179.74276449583334,83.0,91.0
314,179.85213948125,180.014399075,81.0,90.0
315,180.14060098125,181.04324509166665,79.0,94.0
316,181.29444698125,181.48194695625,77.0,91.0
317,181.58290848125,181.774014225,79.0,87.0
318,181.87136998124998,182.05886995625,81.0,91.0
319,182.15983148125,182.37497568333333,77.0,91.0
320,182.44829298125,182.73675448125,79.0,91.0
321,182.73675448125,182.90983138125,84.0,95.0
322,183.02521598125,183.34853324583332,84.0,94.0
323,183.60213898125,183.79685049375,84.0,95.0
324,183.89060048125,184.04084084583332,83.0,96.0
325,184.17906198125,184.34612926666665,79.0,93.0
326,184.46752348125,184.65983114791666,72.0,94.0
327,184.75598498125,185.27761952708332,76.0,92.0
328,185.33290798125,185.76560023125,74.0,96.0
329,185.90983098125,186.06968672916665,79.0,92.0
330,186.19829248125,186.34853284583332,72.0,94.0
331,186.48675398125,186.63819626875,76.0,97.0
332,186.77521548125,186.966321225,77.0,91.0
333,187.06367698124998,187.48915769375,79.0,92.0
334,187.64059998125,187.80766726666667,81.0,94.0
335,187.92906148125,188.091321075,83.0,92.0
336,188.21752298125,188.39901334166666,84.0,94.0
337,188.50598448124998,188.67906138125,76.0,94.0
338,188.79444598125,188.97834018749998,76.0,96.0
339,189.08290748125,189.26199399583334,77.0,91.0
340,189.37136898125,189.76559969791666,79.0,91.0
341,190.52521498125,190.9687245375,81.0,91.0
342,191.10213798125,191.29444564791666,79.0,90.0
343,191.39059948125,191.55886868958333,77.0,90.0
344,191.67906098125,191.8268975,79.0,91.0
345,191.96752248125,192.14540707291667,84.0,87.0
346,192.25598398124998,192.52761856041667,84.0,97.0
347,192.83290698125,193.30766653333333,81.0,92.0
348,193.40982998125,193.572089575,81.0,94.0
349,193.69829148124998,193.86656068958334,83.0,92.0
350,193.98675298125,194.48314714583333,84.0,92.0
351,194.56367598125,194.95309900625,83.0,96.0
352,195.14059898125,195.63699314583332,79.0,90.0
353,195.71752198125,195.90742580208334,76.0,94.0
354,196.00598348124998,196.23915652708334,77.0,93.0
355,196.29444498125,196.75838722708332,79.0,91.0
356,196.87136798125,197.08531026041666,81.0,90.0
357,197.15982948125,197.33290638124998,83.0,91.0
358,197.44829098124998,197.81728131666665,84.0,94.0
359,198.02521398125,198.20430049583334,83.0,91.0
360,198.31367548125,198.475935075,81.0,90.0
361,198.60213698125,199.50478109166667,79.0,94.0
362,199.75598298124999,199.94348295625,77.0,91.0
363,200.04444448125,200.235550225,79.0,87.0
364,200.33290598125,200.52040595625,81.0,91.0
365,200.62136748125,200.83651168333333,77.0,91.0
366,200.90982898125,201.19829048124998,79.0,91.0
367,201.19829048124998,201.37136738125,84.0,95.0
368,201.48675198125,201.81006924583332,84.0,94.0
369,204.37136698125,204.56607849374998,84.0,95.0
370,204.65982848125,204.8100688458333,83.0,96.0
371,204.94828998124999,205.11535726666665,79.0,93.0
372,205.23675148125,205.42905914791666,72.0,94.0
373,205.52521298125,206.04684752708332,76.0,92.0
374,206.10213598125,206.33651095,74.0,96.0
375,206.67905898125,208.42425105625,72.0,92.0
376,208.98675098125,209.18146249375,84.0,95.0
377,209.27521248125,209.42545284583332,83.0,96.0
378,209.56367398125,209.73074126666666,79.0,93.0
379,209.85213548125,210.04444314791667,72.0,94.0
380,210.14059698124998,210.66223152708332,76.0,92.0
381,210.71751998125,210.95189495,74.0,96.0
382,211.29444298125,213.03963505625,72.0,92.0
