,start,end,pitch,velocity
0,4.08533599375,4.58293208125,59.0,89.0
1,4.356970572916667,4.620191691666666,66.0,82.0
2,4.572114775,4.881008964583333,63.0,85.0
3,4.807691666666667,5.078124322916667,66.0,79.0
4,5.072114708333333,5.5745184875,59.0,84.0
5,5.3149031375,5.608172329166666,66.0,79.0
6,5.564903104166667,5.905047289583333,63.0,83.0
7,5.831729991666666,6.114181877083333,66.0,77.0
8,6.0865376499999995,6.65985488125,59.0,79.0
9,6.3413453083333335,6.6850952625,66.0,79.0
10,6.622595270833333,6.9939894520833334,63.0,88.0
11,6.889422158333333,7.159854814583333,66.0,78.0
12,7.123797127083333,7.71273935625,59.0,80.0
13,7.396633629166667,7.717547047916667,66.0,73.0
14,7.6658643625,8.014422008333334,63.0,88.0
15,7.917066252083333,8.129806608333332,66.0,80.0
16,8.161056604166667,8.700719993749999,54.0,79.0
17,8.407450802083334,8.725960375,61.0,75.0
18,8.674277689583333,9.076921866666666,58.0,79.0
19,8.950719960416667,9.259614149999999,61.0,74.0
20,9.481969889583333,9.792066002083333,61.0,78.0
21,9.206729541666666,9.9591332875,54.0,76.0
22,9.72475831875,10.137017879166667,58.0,81.0
23,9.981969822916666,10.22235440625,61.0,82.0
24,10.509613983333333,12.37499835,66.0,77.0
25,10.8677870125,13.962738522916666,71.0,78.0
26,11.587738839583333,14.557690366666666,75.0,86.0
27,11.850959958333332,14.56730575,78.0,83.0
28,10.253604402083333,14.61418074375,59.0,83.0
29,12.026440704166667,14.651440354166667,87.0,77.0
30,15.140622981249999,16.11418054375,47.0,92.0
31,15.71754598125,16.17908438125,63.0,81.0
32,16.00600748125,16.342545897916665,59.0,89.0
33,15.42908448125,16.39543050625,54.0,82.0
34,15.71754598125,16.652642010416667,66.0,84.0
35,16.58293048125,16.960334277083334,54.0,81.0
36,16.29446898125,16.97956504375,46.0,91.0
37,16.87139198125,17.115382333333333,61.0,88.0
38,16.87139198125,17.691103410416666,66.0,90.0
39,18.02523798125,18.200718727083334,56.0,84.0
40,17.73677648125,18.352161014583334,51.0,82.0
41,17.44831498125,18.37860331875,44.0,91.0
42,18.02523798125,18.5841321375,59.0,82.0
43,18.313699481249998,18.657449435416666,56.0,84.0
44,18.02523798125,19.007209004166665,63.0,91.0
45,18.89062248125,19.296872427083333,49.0,81.0
46,19.17908398125,19.332930114583334,58.0,89.0
47,18.602160981249998,19.336535883333333,42.0,90.0
48,19.17908398125,19.342545497916667,54.0,90.0
49,19.17908398125,19.354564727083332,61.0,88.0
50,19.75600698125,20.028843483333333,56.0,83.0
51,19.75600698125,20.243987685416666,59.0,88.0
52,20.04446848125,20.549276106249998,47.0,81.0
53,19.75600698125,20.586535716666667,40.0,86.0
54,20.33292998125,20.69350685625,59.0,90.0
55,20.62139148125,20.789660689583332,56.0,79.0
56,20.33292998125,21.002401045833334,64.0,90.0
57,20.90985298125,21.275237547916667,54.0,76.0
58,20.90985298125,21.381006764583333,58.0,84.0
59,21.48677598125,21.62259327083333,54.0,86.0
60,21.48677598125,21.74639133125,58.0,87.0
61,21.48677598125,21.75961248333333,61.0,87.0
62,21.198314481249998,21.77523748125,49.0,86.0
63,20.90985298125,21.87619900625,42.0,89.0
64,22.06369898125,22.4495162375,54.0,84.0
65,22.06369898125,22.675477745833334,59.0,85.0
66,22.64062198125,23.01562193125,61.0,90.0
67,22.92908348125,23.149035375,54.0,79.0
68,23.21754498125,23.334131504166667,54.0,60.0
69,23.21754498125,23.947112191666665,59.0,88.0
70,23.21754498125,23.966342958333332,63.0,92.0
71,22.35216048125,23.969948727083334,51.0,79.0
72,22.06369898125,24.01802564375,47.0,90.0
73,24.37139098125,25.34494854375,47.0,92.0
74,24.94831398125,25.409852381249998,63.0,81.0
75,25.23677548125,25.573313897916666,59.0,89.0
76,24.65985248125,25.62619850625,54.0,82.0
77,24.94831398125,25.883410010416664,66.0,84.0
78,25.81369848125,26.19110227708333,54.0,81.0
79,25.52523698125,26.210333043749998,46.0,91.0
80,26.10215998125,26.346150333333334,61.0,88.0
81,26.10215998125,26.921871410416667,66.0,90.0
82,27.25600598125,27.431486727083332,56.0,84.0
83,26.96754448125,27.582929014583332,51.0,82.0
84,26.679082981249998,27.60937131875,44.0,91.0
85,27.25600598125,27.8149001375,59.0,82.0
86,27.54446748125,27.888217435416667,56.0,84.0
87,27.25600598125,28.237977004166666,63.0,91.0
88,28.12139048125,28.527640427083334,49.0,81.0
89,28.40985198125,28.56369811458333,58.0,89.0
90,27.83292898125,28.56730388333333,42.0,90.0
91,28.40985198125,28.573313497916665,54.0,90.0
92,28.40985198125,28.585332727083333,61.0,88.0
93,28.98677498125,29.259611483333334,56.0,83.0
94,28.98677498125,29.474755685416667,59.0,88.0
95,29.275236481249998,29.78004410625,47.0,81.0
96,28.98677498125,29.817303716666665,40.0,86.0
97,29.563697981249998,29.924274856249998,59.0,90.0
98,29.85215948125,30.020428689583333,56.0,79.0
99,29.563697981249998,30.233169045833332,64.0,90.0
100,30.14062098125,30.506005547916665,54.0,76.0
101,30.14062098125,30.611774764583334,58.0,84.0
102,30.71754398125,30.853361270833332,54.0,86.0
103,30.71754398125,30.97715933125,58.0,87.0
104,30.71754398125,30.990380483333333,61.0,87.0
105,30.42908248125,31.00600548125,49.0,86.0
106,30.14062098125,31.10696700625,42.0,89.0
107,31.29446698125,31.6802842375,54.0,84.0
108,31.29446698125,31.90624574583333,59.0,85.0
109,31.871389981249997,32.24638993125,61.0,90.0
110,32.15985148125,32.379803375,54.0,79.0
111,32.44831298125,32.56489950416667,54.0,60.0
112,32.44831298125,33.17788019166667,59.0,88.0
113,32.44831298125,33.19711095833333,63.0,92.0
114,31.58292848125,33.20071672708333,51.0,79.0
115,31.29446698125,33.24879364375,47.0,90.0
116,34.17908198125,34.35336080416666,59.0,87.0
117,33.60215898125,34.58893769583333,47.0,92.0
118,34.17908198125,34.69110114375,63.0,92.0
119,34.46754348125,34.79326459166666,59.0,85.0
120,33.89062048125,34.906245345833334,54.0,78.0
121,35.04446648125,35.53004333958333,54.0,80.0
122,34.75600498125,35.552879875,46.0,91.0
123,35.33292798125,35.74518754166667,61.0,87.0
124,35.33292798125,35.918264441666665,66.0,85.0
125,35.909850981249996,36.906245079166666,44.0,87.0
126,36.19831248125,36.96153353333333,51.0,75.0
127,36.77523548125,37.06489890416667,56.0,76.0
128,36.486773981249996,37.072110441666666,59.0,84.0
129,36.486773981249996,37.60336037083333,63.0,90.0
130,37.35215848125,37.9831680125,51.0,86.0
131,37.06369698125,37.992783395833335,42.0,85.0
132,37.64061998125,38.17547567916667,58.0,83.0
133,37.64061998125,38.211533366666664,54.0,82.0
134,38.50600448125,39.16826400833333,47.0,75.0
135,38.21754298125,39.177879391666664,40.0,89.0
136,39.082927481249996,39.41345628333333,52.0,77.0
137,38.79446598125,39.447110125,56.0,81.0
138,38.79446598125,39.49278319583333,59.0,86.0
139,39.65985048125,40.326917699999996,49.0,75.0
140,39.94831198125,40.3485523125,54.0,81.0
141,39.37138898125,40.40143692083333,42.0,90.0
142,40.23677348125,40.563696514583334,58.0,85.0
143,40.52523498125,41.20071566041666,59.0,85.0
144,41.10215798125,41.50840792708333,54.0,89.0
145,41.39061948125,41.778840583333334,61.0,83.0
146,41.679080981249996,42.3461482,63.0,96.0
147,40.81369648125,42.408648191666664,51.0,80.0
148,40.52523498125,42.47835972083333,47.0,85.0
149,43.12138848125,43.483167279166665,54.0,88.0
150,42.83292698125,43.699513404166666,47.0,92.0
151,43.69831148125,43.943503756249996,54.0,86.0
152,43.40984998125,43.9543210625,59.0,90.0
153,43.40984998125,44.150234497916664,63.0,92.0
154,44.275234481249996,44.72475365208333,58.0,84.0
155,43.98677298125,44.94109977708333,46.0,91.0
156,44.56369598125,45.35696510625,61.0,86.0
157,45.42908048125,45.72956121041666,56.0,82.0
158,45.71754198125,45.72956121041666,56.0,75.0
159,45.14061898125,46.1177823125,44.0,90.0
160,45.71754198125,46.28725344375,59.0,85.0
161,46.00600348125,46.34614766666667,56.0,84.0
162,46.58292648125,46.938695664583335,54.0,85.0
163,46.29446498125,47.26321485208333,42.0,88.0
164,46.871387981249995,47.379801375,58.0,84.0
165,47.15984948125,47.48316674583333,54.0,85.0
166,46.871387981249995,47.86537823333333,61.0,86.0
167,47.448310981249996,48.3389358625,40.0,89.0
168,47.73677248125,48.35095509166666,47.0,79.0
169,48.02523398125,48.592541597916664,56.0,84.0
170,48.02523398125,48.6418204375,59.0,85.0
171,49.17907998125,49.32090688541667,54.0,80.0
172,48.89061848125,49.52763762708333,49.0,79.0
173,48.60215698125,49.56850300625,42.0,90.0
174,49.17907998125,49.724752985416664,58.0,81.0
175,49.17907998125,49.8100895125,61.0,88.0
176,49.467541481249995,49.82331066458333,54.0,87.0
177,50.044464481249996,50.38340674375,54.0,89.0
178,50.33292598125,50.725954775,61.0,85.0
179,50.62138748125,50.98436820208333,54.0,90.0
180,50.90984898125,51.259608549999996,59.0,86.0
181,50.90984898125,51.2956662375,63.0,91.0
182,51.19831048125,51.37258930416667,54.0,82.0
183,49.75600298125,51.870185391666666,47.0,90.0
184,51.48677198125,52.051675752083334,59.0,88.0
185,51.77523348125,52.139416125,54.0,86.0
186,52.06369498125,53.013214085416664,40.0,89.0
187,52.640617981249996,53.018021777083334,59.0,89.0
188,52.35215648125,53.0192237,47.0,87.0
189,52.92907948125,53.312492891666665,52.0,91.0
190,53.217540981249996,54.19831008125,42.0,92.0
191,53.50600248125,54.22595430833333,49.0,85.0
192,53.79446398125,54.32090621875,58.0,92.0
193,54.08292548125,54.33412737083333,54.0,91.0
194,53.79446398125,54.40624274583333,61.0,91.0
195,54.94830998125,55.42186761041666,59.0,91.0
196,54.94830998125,55.43749260833333,63.0,90.0
197,55.236771481249995,55.59254066458333,56.0,88.0
198,55.52523298125,55.859367552083334,59.0,85.0
199,55.813694481249996,56.1129732875,56.0,90.0
200,54.65984848125,56.28965595625,51.0,82.0
201,54.37138698125,56.33052133541666,44.0,94.0
202,56.10215598125,56.4879732375,59.0,91.0
203,56.10215598125,56.49157900625,63.0,95.0
204,56.39061748125,56.67787705833333,56.0,90.0
205,56.96754048125,57.6562423125,47.0,90.0
206,56.67907898125,57.65744423541666,40.0,83.0
207,57.25600198125,57.84854997916666,56.0,88.0
208,57.54446348125,57.88100189791667,52.0,85.0
209,57.25600198125,57.929078814583335,59.0,91.0
210,58.12138648125,58.80648254375,49.0,80.0
211,58.409847981249996,58.811290235416664,58.0,90.0
212,57.832924981249995,58.85936715208333,42.0,91.0
213,58.409847981249996,58.889415225,61.0,88.0
214,58.69830948125,59.09614596666667,54.0,92.0
215,59.27523248125,59.61537666666666,54.0,95.0
216,59.56369398125,59.88821316875,59.0,92.0
217,59.85215548125,60.20792466458333,54.0,91.0
218,60.14061698125,60.4615304,63.0,95.0
219,60.14061698125,60.471145783333334,59.0,93.0
220,60.429078481249995,60.790857279166666,54.0,91.0
221,58.98677098125,60.956722641666666,47.0,99.0
222,61.006001481249996,61.209126454166665,42.0,85.0
223,60.71753998125,61.42186681041667,59.0,93.0
224,61.29446298125,62.26080900625,40.0,91.0
225,61.58292448125,62.29085707916666,47.0,86.0
226,62.15984748125,62.427876291666664,52.0,90.0
227,61.87138598125,62.43148206041666,56.0,90.0
228,61.87138598125,62.4879724375,59.0,91.0
229,63.025231981249995,63.353356937499996,58.0,90.0
230,63.025231981249995,63.395424239583335,61.0,90.0
231,62.73677048125,63.453116539583334,49.0,82.0
232,62.44830898125,63.478356920833335,42.0,92.0
233,63.31369348125,63.48076076666666,54.0,95.0
234,63.602154981249996,63.93628955208333,59.0,92.0
235,63.602154981249996,64.2331645125,47.0,95.0
236,63.89061648125,64.24157797291666,54.0,93.0
237,64.46753948125,64.64181830416666,54.0,90.0
238,64.17907798125,64.66826060833333,58.0,92.0
239,64.17907798125,64.6730683,46.0,95.0
240,64.75600098125,65.1706643875,59.0,87.0
241,64.75600098125,65.17547207916667,56.0,84.0
242,65.04446248125,65.59494317708334,51.0,86.0
243,64.75600098125,65.639414325,44.0,92.0
244,65.33292398125,65.90503928958333,59.0,91.0
245,65.62138548125,65.91826044166666,56.0,84.0
246,65.33292398125,66.54806805,63.0,93.0
247,66.48676998124999,66.85335647083333,52.0,91.0
248,65.90984698125,66.95551991875,40.0,91.0
249,66.19830848125,66.98316414583333,47.0,86.0
250,66.77523148125,67.07691413333333,56.0,92.0
251,67.06369298125,67.47955831041666,54.0,86.0
252,67.06369298125,67.64301982708334,58.0,87.0
253,67.35215448125,68.04205823541666,49.0,85.0
254,67.06369298125,68.0552793875,42.0,91.0
255,67.64061598125,68.06729861666666,54.0,92.0
256,68.21753898125,68.58773123958333,54.0,90.0
257,68.21753898125,68.87138504791666,59.0,87.0
258,68.79446198125,69.33172152499999,54.0,99.0
259,69.37138498125,69.475952275,54.0,81.0
260,69.37138498125,69.84975030208334,63.0,90.0
261,69.37138498125,69.86176953125,59.0,91.0
262,68.50600048125,70.42426945625,51.0,79.0
263,69.94830798125,70.44470214583333,59.0,90.0
264,68.21753898125,70.44590406875,47.0,94.0
265,70.23676948125,70.49878867708333,54.0,95.0
266,70.52523098125,70.80047132916667,71.0,88.0
267,70.52523098125,70.83773093958334,63.0,90.0
268,70.52523098125,70.84253863125,66.0,88.0
269,70.81369248125,71.01441360833333,59.0,78.0
270,70.81369248125,71.19830781458333,54.0,84.0
271,70.52523098125,71.24398088541666,47.0,92.0
272,71.10215398125,71.35575971666667,66.0,92.0
273,71.10215398125,71.37018279166666,63.0,95.0
274,71.39061548125,71.495182775,59.0,90.0
275,71.67907698124999,71.9639327125,58.0,81.0
276,71.67907698124999,72.04446154791667,61.0,86.0
277,71.96753848125,72.0576827,58.0,51.0
278,71.67907698124999,72.56008647916667,42.0,90.0
279,72.25599998125,72.61176916458334,61.0,90.0
280,72.25599998125,72.61657685624999,66.0,91.0
281,71.96753848125,72.61898070208333,49.0,88.0
282,72.54446148125,72.6706633875,58.0,90.0
283,72.83292298125,73.18749024166667,59.0,84.0
284,72.83292298125,73.2764325375,56.0,78.0
285,73.40984598125,73.73676901458333,59.0,92.0
286,73.40984598125,73.75119208958333,63.0,95.0
287,73.40984598125,73.76561516458334,68.0,90.0
288,73.12138448125,73.80047092916666,51.0,85.0
289,73.69830748125,73.81849977291667,56.0,92.0
290,72.83292298125,73.84013438541666,44.0,90.0
291,73.98676898125,74.16946126458333,58.0,88.0
292,73.98676898125,74.35575931666666,63.0,92.0
293,74.27523048124999,74.62018235833334,58.0,94.0
294,73.98676898125,74.71994196041666,51.0,91.0
295,74.56369198125,74.8052784875,66.0,92.0
296,74.56369198125,74.82931694583333,63.0,95.0
297,74.85215348125,74.96273038958333,58.0,92.0
298,75.14061498125,75.43628801874999,52.0,86.0
299,75.14061498125,75.52883608333333,56.0,81.0
300,75.14061498125,75.95551871875,40.0,92.0
301,75.42907648125,75.96032641041667,47.0,86.0
302,75.71753798125,76.04446101458333,56.0,84.0
303,75.71753798125,76.06609562708333,59.0,94.0
304,76.00599948125,76.14181677083333,52.0,89.0
305,75.71753798125,76.20311483958334,64.0,91.0
306,76.29446098125,76.46152826666666,54.0,90.0
307,76.29446098125,76.66224939375,59.0,89.0
308,76.58292248125,76.92907628125,54.0,91.0
309,76.29446098125,77.19470124583333,47.0,91.0
310,76.87138398124999,77.22715316458333,63.0,95.0
311,76.87138398124999,77.23196085625,59.0,92.0
312,77.15984548125,77.322105075,54.0,91.0
313,77.44830698125,77.81369154791666,61.0,90.0
314,77.44830698125,77.81609539375,65.0,91.0
315,77.73676848125,77.90744153541667,56.0,85.0
316,78.02522998124999,78.129797275,56.0,87.0
317,77.44830698125,78.22114341666666,37.0,92.0
318,78.02522998124999,78.68628758541666,65.0,90.0
319,78.02522998124999,78.71272988958333,61.0,91.0
320,78.31369148125,78.73797027083333,56.0,89.0
321,79.17907598125,79.32691249999999,54.0,91.0
322,79.17907598125,79.41345095,58.0,92.0
323,79.46753748124999,79.52883555,58.0,68.0
324,79.17907598125,79.53484516458333,61.0,93.0
325,78.89061448125,79.572104775,49.0,87.0
326,78.60215298125,79.59854707916666,42.0,91.0
327,79.46753748124999,79.76922013333333,54.0,96.0
328,79.75599898125,80.10816239583333,63.0,90.0
329,79.75599898125,80.11657585625,66.0,88.0
330,80.04446048125,80.21753738125,59.0,84.0
331,80.04446048125,80.3653739,54.0,80.0
332,79.75599898125,80.43388350625,47.0,92.0
333,80.33292198125,80.71032577708333,63.0,92.0
334,80.33292198125,80.725950775,66.0,90.0
335,80.62138348124999,80.89061421458334,59.0,85.0
336,80.90984498125,81.26441224166666,66.0,91.0
337,80.90984498125,81.26801801041667,63.0,90.0
338,81.19830648125,81.54686412708332,58.0,92.0
339,80.90984498125,81.56849873958333,51.0,97.0
340,81.48676798125,81.65984488125,63.0,92.0
341,81.48676798125,81.73196025624999,66.0,94.0
342,81.77522948125,81.91825830833334,58.0,94.0
343,82.06369098124999,82.24277749583334,56.0,85.0
344,82.06369098124999,82.38941209166667,59.0,90.0
345,82.06369098124999,82.42546977916666,63.0,90.0
346,82.35215248125,82.66705628541666,56.0,88.0
347,82.64061398125,82.94590240208333,63.0,95.0
348,82.64061398125,82.95671970833332,59.0,90.0
349,82.06369098124999,83.033642775,44.0,90.0
350,82.92907548125,83.09614276666666,56.0,92.0
351,83.21753698124999,83.57691193333334,58.0,81.0
352,83.21753698124999,83.58532539375,61.0,81.0
353,83.21753698124999,83.59013308541667,54.0,86.0
354,83.79445998125,84.10936378541666,58.0,92.0
355,83.79445998125,84.11417147708333,61.0,86.0
356,83.50599848125,84.20551761875,49.0,80.0
357,84.08292148125,84.23436376875,54.0,91.0
358,83.21753698124999,84.23556569166666,42.0,90.0
359,84.37138298125,84.72955601041666,56.0,86.0
360,84.37138298125,84.91465213958332,52.0,89.0
361,84.65984448124999,85.34494054375,47.0,82.0
362,84.94830598125,85.3629693875,56.0,88.0
363,84.37138298125,85.3773924625,40.0,91.0
364,85.23676748125,85.40503668958333,52.0,92.0
365,84.94830598125,85.41345015,59.0,90.0
366,84.94830598125,85.46873860416666,64.0,89.0
367,85.52522898125,85.55647897708333,59.0,73.0
368,85.52522898125,85.86176739791667,63.0,91.0
369,85.52522898125,85.87138278124999,66.0,88.0
370,85.81369048124999,86.20792119791666,54.0,83.0
371,85.52522898125,86.23075773333333,47.0,94.0
372,86.10215198125,86.4014307875,63.0,94.0
373,86.10215198125,86.44109424375,66.0,91.0
374,86.39061348125,86.75960381666667,59.0,91.0
375,86.67907498125,87.03484416458333,64.0,85.0
376,86.67907498125,87.05407493125,68.0,85.0
377,86.96753648125,87.12498838333333,59.0,89.0
378,86.67907498125,87.54325755833334,40.0,90.0
379,87.25599798125,87.61777677916666,64.0,93.0
380,87.25599798125,87.620180625,68.0,96.0
381,87.54445948125,87.6706613875,59.0,92.0
382,87.83292098125,88.0384498,61.0,88.0
383,87.83292098125,88.19349785624999,70.0,90.0
384,87.83292098125,88.21994016041667,66.0,86.0
385,88.12138248125,88.3196997625,61.0,89.0
386,88.40984398124999,88.53003627291666,61.0,91.0
387,87.83292098125,88.67546894583333,42.0,90.0
388,88.12138248125,88.67546894583333,49.0,83.0
389,88.40984398124999,88.7307574,66.0,91.0
390,88.69830548125,88.84013238541667,61.0,90.0
391,88.98676698125,89.3653727,63.0,90.0
392,88.98676698125,89.61897843541666,59.0,85.0
393,89.56368998125,89.88340147708332,61.0,88.0
394,89.85215148125,90.03123799583334,63.0,90.0
395,89.27522848125,90.59373792083333,54.0,83.0
396,90.14061298125,90.81368981458333,59.0,85.0
397,90.14061298125,90.90623787916667,66.0,89.0
398,90.14061298125,91.14061284791667,63.0,90.0
399,91.00599748124999,91.25840129375,59.0,79.0
400,90.71753598125,91.29686282708333,54.0,86.0
401,88.98676698125,91.31729551666666,47.0,92.0
402,91.29445898125,91.31729551666666,47.0,91.0
403,91.29445898125,91.69109354375,59.0,91.0
404,91.29445898125,91.74397815208333,63.0,95.0
405,91.58292048125,92.03243965208333,54.0,79.0
406,91.87138198125,92.31609346041667,59.0,97.0
407,92.15984348125,92.62378572708333,54.0,91.0
408,92.44830498125,92.80767993333333,63.0,93.0
409,93.02522798125,93.12138181458333,59.0,87.0
410,92.73676648125,93.19349718958333,54.0,66.0
411,93.02522798125,93.3821990875,63.0,94.0
412,93.02522798125,93.39421831666667,66.0,90.0
413,93.31368948125,93.45912215416666,59.0,92.0
414,93.60215098124999,94.08412207083333,61.0,85.0
415,93.60215098124999,94.26561243124999,58.0,87.0
416,94.17907398125,94.52282393541667,61.0,89.0
417,94.46753548125,94.83532389375,58.0,92.0
418,94.75599698125,95.0769104,66.0,86.0
419,94.75599698125,95.13340077708332,61.0,91.0
420,95.04445848125,95.206718075,58.0,84.0
421,95.33291998125,95.47114111666666,58.0,90.0
422,95.33291998125,95.70671800833333,61.0,91.0
423,93.89061248125,95.81368914791666,49.0,81.0
424,93.60215098124999,95.81489107083333,42.0,91.0
425,95.62138148125,96.01561219791667,58.0,90.0
426,95.90984298125,96.25960255,66.0,87.0
427,95.90984298125,96.28243908541667,61.0,86.0
428,96.19830448124999,96.56008327916666,58.0,84.0
429,96.48676598125,96.78364094166666,61.0,88.0
430,96.77522748125,97.12017935833333,58.0,90.0
431,97.06368898125,97.33652548333333,70.0,92.0
432,97.06368898125,97.4206600875,61.0,90.0
433,97.35215048124999,97.64782351875,58.0,94.0
434,96.19830448124999,97.90864079166667,49.0,73.0
435,95.90984298125,97.95791963125,42.0,91.0
436,97.92907348125,98.23075613333333,58.0,92.0
437,97.64061198125,98.23676574791666,61.0,84.0
438,97.64061198125,98.26681382083333,66.0,90.0
439,98.50599648125,98.97955411041666,54.0,84.0
440,98.79445798124999,98.98195795625,59.0,85.0
441,98.79445798124999,99.10575601666666,66.0,85.0
442,98.79445798124999,99.10695793958332,63.0,90.0
443,99.08291948125,99.24157330625,59.0,73.0
444,99.37138098125,99.66224632708332,63.0,93.0
445,99.37138098125,99.66465017291667,66.0,94.0
446,99.65984248125,100.00840012708333,59.0,94.0
447,99.94830398124999,100.26801547708332,63.0,92.0
448,99.94830398124999,100.28123662916667,66.0,92.0
449,98.21753498125,100.38219815416666,47.0,92.0
450,99.08291948125,100.40864045833334,54.0,86.0
451,100.23676548125,100.72835195416667,59.0,91.0
452,100.52522698125,101.1562365125,71.0,91.0
453,100.81368848125,101.65022683125,59.0,96.0
454,101.10214998125,101.69229413333333,63.0,97.0
455,101.39061148124999,101.71032297708334,66.0,83.0
456,101.67907298125,102.07450562083334,71.0,95.0
457,101.96753448125,102.12498638333334,59.0,93.0
458,102.25599598125,102.37498635,59.0,94.0
459,100.81368848125,102.42666903541667,54.0,69.0
460,100.52522698125,102.49277479583333,47.0,92.0
461,102.25599598125,102.52763056041667,71.0,90.0
462,102.25599598125,102.56969786249999,66.0,92.0
463,102.25599598125,102.58171709166666,63.0,99.0
464,102.54445748124999,102.65022669791666,59.0,92.0
465,102.83291898125,103.25239007916666,58.0,85.0
466,102.83291898125,103.28604392083334,54.0,90.0
467,103.40984198125,103.74998616666666,61.0,90.0
468,103.40984198125,103.76561116458333,58.0,85.0
469,103.69830348125,104.04205343541666,54.0,86.0
470,103.98676498124999,104.1418130375,58.0,90.0
471,103.98676498124999,104.23075533333333,66.0,90.0
472,103.98676498124999,104.28964955625,61.0,91.0
473,104.27522648125,104.47234183958334,54.0,88.0
474,104.56368798125,104.91705331874999,58.0,95.0
475,104.56368798125,104.9422937,61.0,93.0
476,102.83291898125,105.01561099791667,42.0,85.0
477,103.12138048125,105.0216206125,49.0,89.0
478,104.85214948125,105.05527445416666,54.0,90.0
479,105.14061098124999,105.23195712291667,54.0,78.0
480,105.14061098124999,105.48676478125,58.0,90.0
481,105.14061098124999,105.49638016458333,61.0,90.0
482,105.42907248125,105.74157243958334,54.0,86.0
483,105.71753398125,106.08532239374999,58.0,76.0
484,105.71753398125,106.0889281625,61.0,89.0
485,106.00599548125,106.33171659166666,54.0,92.0
486,106.29445698125,106.33652428333333,61.0,84.0
487,106.29445698125,106.38820696875,58.0,91.0
488,106.29445698125,106.63219732083333,66.0,91.0
489,106.58291848124999,106.687485775,58.0,74.0
490,106.58291848124999,106.90262997708334,54.0,91.0
491,106.87137998125,107.20912032083334,58.0,84.0
492,106.87137998125,107.28844723333333,64.0,96.0
493,105.14061098124999,107.31128376875,42.0,94.0
494,107.15984148125,107.52522604791666,54.0,86.0
495,108.02522598125,108.19950480416666,59.0,87.0
496,107.44830298125,108.43508169583333,47.0,92.0
497,108.02522598125,108.53724514375,63.0,92.0
498,108.31368748125,108.63940859166667,59.0,85.0
499,107.73676448124999,108.75238934583334,54.0,78.0
500,108.89061048125,109.37618733958332,54.0,80.0
501,108.60214898125,109.399023875,46.0,91.0
502,109.17907198124999,109.59133154166666,61.0,87.0
503,109.17907198124999,109.76440844166666,66.0,85.0
504,109.75599498125,110.75238907916666,44.0,87.0
505,110.04445648125,110.80767753333333,51.0,75.0
506,110.62137948125,110.91104290416666,56.0,76.0
507,110.33291798124999,110.91825444166666,59.0,84.0
508,110.33291798124999,111.44950437083332,63.0,90.0
509,111.19830248125,111.8293120125,51.0,86.0
510,110.90984098125,111.83892739583332,42.0,85.0
511,111.48676398125,112.02161967916666,58.0,83.0
512,111.48676398125,112.05767736666667,54.0,82.0
513,112.35214848125,113.01440800833333,47.0,75.0
514,112.06368698125,113.02402339166666,40.0,89.0
515,112.92907148124999,113.25960028333333,52.0,77.0
516,112.64060998125,113.29325412499999,56.0,81.0
517,112.64060998125,113.33892719583334,59.0,86.0
518,113.50599448125,114.17306169999999,49.0,75.0
519,113.79445598125,114.1946963125,54.0,81.0
520,113.21753298125,114.24758092083333,42.0,90.0
521,114.08291748124999,114.40984051458334,58.0,85.0
522,114.37137898125,115.04685966041666,59.0,85.0
523,114.94830198125,115.35455192708334,54.0,89.0
524,115.23676348125,115.62498458333333,61.0,83.0
525,115.52522498124999,116.1922922,63.0,96.0
526,114.65984048125,116.25479219166667,51.0,80.0
527,114.37137898125,116.32450372083333,47.0,85.0
528,116.96753248125,117.32931127916666,54.0,88.0
529,116.67907098124999,117.54565740416666,47.0,92.0
530,117.54445548125,117.78964775624999,54.0,86.0
531,117.25599398125,117.8004650625,59.0,90.0
532,117.25599398125,117.99637849791667,63.0,92.0
533,118.12137848124999,118.57089765208333,58.0,84.0
534,117.83291698125,118.78724377708333,46.0,91.0
535,118.40983998125,119.20310910625,61.0,86.0
536,119.27522448124999,119.57570521041666,56.0,82.0
537,119.56368598125,119.57570521041666,56.0,75.0
538,118.98676298125,119.96392631249999,44.0,90.0
539,119.56368598125,120.13339744375,59.0,85.0
540,119.85214748125,120.19229166666666,56.0,84.0
541,120.42907048125,120.78483966458333,54.0,85.0
542,120.14060898125,121.10935885208333,42.0,88.0
543,120.71753198124999,121.225945375,58.0,84.0
544,121.00599348125,121.32931074583333,54.0,85.0
545,120.71753198124999,121.71152223333333,61.0,86.0
546,121.29445498125,122.18507986249999,40.0,89.0
547,121.58291648125,122.19709909166666,47.0,79.0
548,121.87137798124999,122.43868559791666,56.0,84.0
549,121.87137798124999,122.4879644375,59.0,85.0
550,123.02522398125,123.16705088541666,54.0,80.0
551,122.73676248125,123.37378162708333,49.0,79.0
552,122.44830098125,123.41464700625,42.0,90.0
553,123.02522398125,123.57089698541667,58.0,81.0
554,123.02522398125,123.6562335125,61.0,88.0
555,123.31368548124999,123.66945466458333,54.0,87.0
556,123.89060848125,124.22955074375,54.0,89.0
557,124.17906998125,124.572098775,61.0,85.0
558,124.46753148124999,124.83051220208333,54.0,90.0
559,124.75599298125,125.10575254999999,59.0,86.0
560,124.75599298125,125.1418102375,63.0,91.0
561,125.04445448125,125.21873330416666,54.0,82.0
562,123.60214698125,125.71632939166666,47.0,90.0
563,125.33291598125,125.89781975208334,59.0,88.0
564,125.62137748125,125.98556012499999,54.0,86.0
565,125.90983898124999,126.85935808541666,40.0,89.0
566,126.48676198125,126.86416577708333,59.0,89.0
567,126.19830048125,126.8653677,47.0,87.0
568,126.77522348125,127.15863689166666,52.0,91.0
569,127.06368498124999,128.04445408125,42.0,92.0
570,127.35214648125,128.07209830833332,49.0,85.0
571,127.64060798125,128.16705021875,58.0,92.0
572,127.92906948125,128.18027137083334,54.0,91.0
573,127.64060798125,128.25238674583332,61.0,91.0
574,128.79445398125,129.26801161041666,59.0,91.0
575,128.79445398125,129.28363660833332,63.0,90.0
576,129.08291548124998,129.43868466458332,56.0,88.0
577,129.37137698125,129.70551155208332,59.0,85.0
578,129.65983848125,129.9591172875,56.0,90.0
579,128.50599248125,130.13579995625,51.0,82.0
580,128.21753098125,130.17666533541666,44.0,94.0
581,129.94829998125,130.3341172375,59.0,91.0
582,129.94829998125,130.33772300625,63.0,95.0
583,130.23676148125,130.52402105833332,56.0,90.0
584,130.81368448125,131.5023863125,47.0,90.0
585,130.52522298125,131.50358823541666,40.0,83.0
586,131.10214598125,131.69469397916666,56.0,88.0
587,131.39060748125,131.72714589791667,52.0,85.0
588,131.10214598125,131.77522281458332,59.0,91.0
589,131.96753048125,132.65262654375,49.0,80.0
590,132.25599198125,132.65743423541667,58.0,90.0
591,131.67906898125,132.70551115208332,42.0,91.0
592,132.25599198125,132.735559225,61.0,88.0
593,132.54445348125,132.94228996666666,54.0,92.0
594,133.12137648125,133.46152066666667,54.0,95.0
595,133.40983798125,133.73435716875,59.0,92.0
596,133.69829948125,134.05406866458333,54.0,91.0
597,133.98676098125,134.3076744,63.0,95.0
598,133.98676098125,134.31728978333334,59.0,93.0
599,134.27522248124998,134.63700127916667,54.0,91.0
600,132.83291498124998,134.80286664166667,47.0,99.0
601,134.85214548125,135.05527045416667,42.0,85.0
602,134.56368398125,135.26801081041665,59.0,93.0
603,135.14060698125,136.10695300625,40.0,91.0
604,135.42906848125,136.13700107916665,47.0,86.0
605,136.00599148125,136.27402029166666,52.0,90.0
606,135.71752998125,136.27762606041665,56.0,90.0
607,135.71752998125,136.3341164375,59.0,91.0
608,136.87137598125,137.1995009375,58.0,90.0
609,136.87137598125,137.24156823958333,61.0,90.0
610,136.58291448125,137.29926053958334,49.0,82.0
611,136.29445298125,137.32450092083332,42.0,92.0
612,137.15983748125,137.32690476666667,54.0,95.0
613,137.44829898125,137.78243355208332,59.0,92.0
614,137.44829898125,138.0793085125,47.0,95.0
615,137.73676048125,138.08772197291665,54.0,93.0
616,138.31368348125,138.48796230416667,54.0,90.0
617,138.02522198124998,138.51440460833334,58.0,92.0
618,138.02522198124998,138.5192123,46.0,95.0
619,138.60214498125,139.0168083875,59.0,87.0
620,138.60214498125,139.02161607916668,56.0,84.0
621,138.89060648125,139.44108717708332,51.0,86.0
622,138.60214498125,139.485558325,44.0,92.0
623,139.17906798125,139.75118328958334,59.0,91.0
624,139.46752948124998,139.76440444166667,56.0,84.0
625,139.17906798125,140.39421205,63.0,93.0
626,140.33291398125,140.69950047083333,52.0,91.0
627,139.75599098125,140.80166391875,40.0,91.0
628,140.04445248125,140.82930814583332,47.0,86.0
629,140.62137548125,140.92305813333334,56.0,92.0
630,140.90983698125,141.32570231041666,54.0,86.0
631,140.90983698125,141.48916382708333,58.0,87.0
632,141.19829848125,141.88820223541666,49.0,85.0
633,140.90983698125,141.9014233875,42.0,91.0
634,141.48675998125,141.91344261666666,54.0,92.0
635,142.06368298125,142.43387523958333,54.0,90.0
636,142.06368298125,142.71752904791666,59.0,87.0
637,142.64060598125,143.177865525,54.0,99.0
638,143.21752898124998,143.322096275,54.0,81.0
639,143.21752898124998,143.69589430208333,63.0,90.0
640,143.21752898124998,143.70791353125,59.0,91.0
641,142.35214448125,144.27041345625,51.0,79.0
642,143.79445198125,144.29084614583334,59.0,90.0
643,142.06368298125,144.29204806875,47.0,94.0
644,144.08291348125,144.34493267708334,54.0,95.0
645,144.37137498125,144.64661532916665,71.0,88.0
646,144.37137498125,144.68387493958332,63.0,90.0
647,144.37137498125,144.68868263125,66.0,88.0
648,144.65983648124998,144.86055760833332,59.0,78.0
649,144.65983648124998,145.04445181458334,54.0,84.0
650,144.37137498125,145.09012488541666,47.0,92.0
651,144.94829798125,145.20190371666666,66.0,92.0
652,144.94829798125,145.21632679166666,63.0,95.0
653,145.23675948125,145.341326775,59.0,90.0
654,145.52522098125,145.8100767125,58.0,81.0
655,145.52522098125,145.89060554791666,61.0,86.0
656,145.81368248125,145.9038267,58.0,51.0
657,145.52522098125,146.40623047916665,42.0,90.0
658,146.10214398125,146.45791316458332,61.0,90.0
659,146.10214398125,146.46272085625,66.0,91.0
660,145.81368248125,146.46512470208333,49.0,88.0
661,146.39060548125,146.5168073875,58.0,90.0
662,146.67906698125,147.03363424166668,59.0,84.0
663,146.67906698125,147.1225765375,56.0,78.0
664,147.25598998125,147.58291301458334,59.0,92.0
665,147.25598998125,147.59733608958334,63.0,95.0
666,147.25598998125,147.61175916458333,68.0,90.0
667,146.96752848124999,147.64661492916667,51.0,85.0
668,147.54445148125,147.66464377291666,56.0,92.0
669,146.67906698125,147.68627838541667,44.0,90.0
670,147.83291298125,148.01560526458334,58.0,88.0
671,147.83291298125,148.20190331666666,63.0,92.0
672,148.12137448125,148.46632635833333,58.0,94.0
673,147.83291298125,148.56608596041667,51.0,91.0
674,148.40983598124998,148.65142248749999,66.0,92.0
675,148.40983598124998,148.67546094583332,63.0,95.0
676,148.69829748125,148.80887438958334,58.0,92.0
677,148.98675898125,149.28243201875,52.0,86.0
678,148.98675898125,149.37498008333333,56.0,81.0
679,148.98675898125,149.80166271875,40.0,92.0
680,149.27522048125,149.80647041041667,47.0,86.0
681,149.56368198125,149.89060501458334,56.0,84.0
682,149.56368198125,149.91223962708332,59.0,94.0
683,149.85214348124998,149.98796077083333,52.0,89.0
684,149.56368198125,150.04925883958333,64.0,91.0
685,150.14060498125,150.30767226666666,54.0,90.0
686,150.14060498125,150.50839339375,59.0,89.0
687,150.42906648125,150.77522028125,54.0,91.0
688,150.14060498125,151.04084524583334,47.0,91.0
689,150.71752798125,151.07329716458332,63.0,95.0
690,150.71752798125,151.07810485625,59.0,92.0
691,151.00598948125,151.168249075,54.0,91.0
692,151.29445098125,151.65983554791666,61.0,90.0
693,151.29445098125,151.66223939374999,65.0,91.0
694,151.58291248125,151.75358553541668,56.0,85.0
695,151.87137398125,151.975941275,56.0,87.0
696,151.29445098125,152.06728741666666,37.0,92.0
697,151.87137398125,152.53243158541667,65.0,90.0
698,151.87137398125,152.55887388958334,61.0,91.0
699,152.15983548124998,152.58411427083334,56.0,89.0
700,153.02521998125,153.1730565,54.0,91.0
701,153.02521998125,153.25959495,58.0,92.0
702,153.31368148125,153.37497955,58.0,68.0
703,153.02521998125,153.38098916458333,61.0,93.0
704,152.73675848125,153.418248775,49.0,87.0
705,152.44829698125,153.44469107916666,42.0,91.0
706,153.31368148125,153.61536413333332,54.0,96.0
707,153.60214298124998,153.95430639583333,63.0,90.0
708,153.60214298124998,153.96271985625,66.0,88.0
709,153.89060448125,154.06368138125,59.0,84.0
710,153.89060448125,154.2115179,54.0,80.0
711,153.60214298124998,154.28002750625,47.0,92.0
712,154.17906598125,154.55646977708332,63.0,92.0
713,154.17906598125,154.57209477499998,66.0,90.0
714,154.46752748125,154.73675821458332,59.0,85.0
715,154.75598898125,155.11055624166667,66.0,91.0
716,154.75598898125,155.11416201041666,63.0,90.0
717,155.04445048125,155.39300812708333,58.0,92.0
718,154.75598898125,155.41464273958334,51.0,97.0
719,155.33291198125,155.50598888125,63.0,92.0
720,155.33291198125,155.57810425625,66.0,94.0
721,155.62137348125,155.76440230833333,58.0,94.0
722,155.90983498125,156.08892149583332,56.0,85.0
723,155.90983498125,156.23555609166667,59.0,90.0
724,155.90983498125,156.27161377916667,63.0,90.0
725,156.19829648125,156.51320028541667,56.0,88.0
726,156.48675798125,156.79204640208332,63.0,95.0
727,156.48675798125,156.80286370833332,59.0,90.0
728,155.90983498125,156.87978677499999,44.0,90.0
729,156.77521948125,156.94228676666665,56.0,92.0
730,157.06368098125,157.42305593333333,58.0,81.0
731,157.06368098125,157.43146939375,61.0,81.0
732,157.06368098125,157.43627708541666,54.0,86.0
733,157.64060398125,157.95550778541667,58.0,92.0
734,157.64060398125,157.96031547708333,61.0,86.0
735,157.35214248124998,158.05166161875,49.0,80.0
736,157.92906548125,158.08050776874998,54.0,91.0
737,157.06368098125,158.08170969166667,42.0,90.0
738,158.21752698125,158.57570001041665,56.0,86.0
739,158.21752698125,158.76079613958333,52.0,89.0
740,158.50598848125,159.19108454375,47.0,82.0
741,158.79444998124998,159.2091133875,56.0,88.0
742,158.21752698125,159.2235364625,40.0,91.0
743,159.08291148125,159.25118068958332,52.0,92.0
744,158.79444998124998,159.25959415,59.0,90.0
745,158.79444998124998,159.31488260416666,64.0,89.0
746,159.37137298125,159.40262297708333,59.0,73.0
747,159.37137298125,159.70791139791666,63.0,91.0
748,159.37137298125,159.71752678125,66.0,88.0
749,159.65983448125,160.05406519791666,54.0,83.0
750,159.37137298125,160.07690173333333,47.0,94.0
751,159.94829598125,160.24757478749999,63.0,94.0
752,159.94829598125,160.28723824374998,66.0,91.0
753,160.23675748125,160.60574781666665,59.0,91.0
754,160.52521898125,160.88098816458333,64.0,85.0
755,160.52521898125,160.90021893125,68.0,85.0
756,160.81368048125,160.97113238333333,59.0,89.0
757,160.52521898125,161.38940155833333,40.0,90.0
758,161.10214198124999,161.46392077916667,64.0,93.0
759,161.10214198124999,161.466324625,68.0,96.0
760,161.39060348125,161.5168053875,59.0,92.0
761,161.67906498125,161.8845938,61.0,88.0
762,161.67906498125,162.03964185625,70.0,90.0
763,161.67906498125,162.06608416041666,66.0,86.0
764,161.96752648125,162.1658437625,61.0,89.0
765,162.25598798125,162.37618027291666,61.0,91.0
766,161.67906498125,162.52161294583334,42.0,90.0
767,161.96752648125,162.52161294583334,49.0,83.0
768,162.25598798125,162.5769014,66.0,91.0
769,162.54444948124998,162.68627638541668,61.0,90.0
770,162.83291098125,163.02521864791666,59.0,90.0
771,162.83291098125,163.19829554791667,63.0,92.0
772,162.83291098125,163.22353592916667,66.0,86.0
773,163.12137248125,163.24396861875,59.0,65.0
774,163.12137248125,163.51920896666667,54.0,90.0
775,162.83291098125,163.53483396458333,47.0,94.0
776,163.40983398125,163.68387240625,63.0,96.0
777,163.40983398125,163.69228586666665,66.0,93.0
778,163.69829548125,163.8100743125,59.0,92.0
779,163.98675698124998,164.38579538958334,56.0,90.0
780,163.98675698124998,164.39901654166667,59.0,92.0
781,163.98675698124998,164.41824730833332,52.0,90.0
782,164.27521848125,165.07329529791667,47.0,87.0
783,164.56367998125,165.09012221875,56.0,97.0
784,164.56367998125,165.09973760208334,59.0,94.0
785,163.98675698124998,165.10574721666666,40.0,90.0
786,164.85214148125,165.11295875416667,52.0,94.0
787,165.14060298125,165.43988178749998,64.0,90.0
788,165.14060298125,165.45550678541667,52.0,89.0
789,165.14060298125,165.47473755208333,40.0,92.0
790,165.42906448125,165.54444908125,47.0,90.0
791,165.71752598125,166.03242978541667,53.0,93.0
792,165.71752598125,166.06848747291667,41.0,101.0
793,165.71752598125,166.07569901041666,65.0,85.0
794,166.00598748125,166.13579515625,48.0,79.0
795,166.29444898124999,166.5576701,67.0,90.0
796,166.29444898124999,166.71271815625,55.0,91.0
797,166.58291048125,166.9687277375,50.0,92.0
798,166.29444898124999,167.07089118541666,43.0,106.0
799,166.87137198125,167.08651618333332,55.0,93.0
800,166.87137198125,167.21271808958332,59.0,97.0
801,166.87137198125,167.34012191875,62.0,95.0
802,166.87137198125,167.35334307083332,67.0,94.0
803,167.15983348125,167.466323825,50.0,97.0
804,167.44829498125,167.72353532916665,72.0,88.0
805,167.44829498125,167.76079493958332,64.0,90.0
806,167.44829498125,167.76560263125,67.0,88.0
807,167.73675648124998,167.93747760833332,60.0,78.0
808,167.73675648124998,168.12137181458334,55.0,84.0
809,167.44829498125,168.16704488541666,48.0,92.0
810,168.02521798125,168.27882371666666,67.0,92.0
811,168.02521798125,168.29324679166666,64.0,95.0
812,168.31367948125,168.418246775,60.0,90.0
813,168.60214098125,168.8869967125,59.0,81.0
814,168.60214098125,168.96752554791667,62.0,86.0
815,168.89060248125,168.9807467,59.0,51.0
816,168.60214098125,169.48315047916665,43.0,90.0
817,169.17906398124998,169.53483316458332,62.0,90.0
818,169.17906398124998,169.53964085625,67.0,91.0
819,168.89060248125,169.54204470208333,50.0,88.0
820,169.46752548125,169.5937273875,59.0,90.0
821,169.75598698125,170.11055424166665,60.0,84.0
822,169.75598698125,170.19949653749998,57.0,78.0
823,170.33290998125,170.65983301458334,60.0,92.0
824,170.33290998125,170.67425608958334,64.0,95.0
825,170.33290998125,170.68867916458333,69.0,90.0
826,170.04444848125,170.72353492916668,52.0,85.0
827,170.62137148125,170.74156377291666,57.0,92.0
828,169.75598698125,170.76319838541667,45.0,90.0
829,170.90983298125,171.09252526458332,59.0,88.0
830,170.90983298125,171.27882331666666,64.0,92.0
831,171.19829448125,171.54324635833333,59.0,94.0
832,170.90983298125,171.64300596041667,52.0,91.0
833,171.48675598124998,171.7283424875,67.0,92.0
834,171.48675598124998,171.75238094583332,64.0,95.0
835,171.77521748125,171.88579438958334,59.0,92.0
836,172.06367898125,172.35935201875,53.0,86.0
837,172.06367898125,172.45190008333333,57.0,81.0
838,172.06367898125,172.87858271874998,41.0,92.0
839,172.35214048125,172.88339041041667,48.0,86.0
840,172.64060198125,172.96752501458332,57.0,84.0
841,172.64060198125,172.98915962708332,60.0,94.0
842,172.92906348124998,173.06488077083333,53.0,89.0
843,172.64060198125,173.12617883958333,65.0,91.0
844,173.21752498125,173.38459226666666,55.0,90.0
845,173.21752498125,173.58531339375,60.0,89.0
846,173.50598648125,173.85214028125,55.0,91.0
847,173.21752498125,174.11776524583334,48.0,91.0
848,173.79444798125,174.15021716458332,64.0,95.0
849,173.79444798125,174.15502485625,60.0,92.0
850,174.08290948125,174.245169075,55.0,91.0
851,174.37137098124998,174.73675554791666,62.0,90.0
852,174.37137098124998,174.73915939375,66.0,91.0
853,174.65983248125,174.83050553541665,57.0,85.0
854,174.94829398125,175.052861275,57.0,87.0
855,174.37137098124998,175.14420741666666,38.0,92.0
856,174.94829398125,175.60935158541668,66.0,90.0
857,174.94829398125,175.63579388958334,62.0,91.0
858,175.23675548125,175.66103427083334,57.0,89.0
859,176.10213998125,176.2499765,55.0,91.0
860,176.10213998125,176.33651495,59.0,92.0
861,176.39060148125,176.45189955,59.0,68.0
862,176.10213998125,176.45790916458333,62.0,93.0
863,175.81367848125,176.495168775,50.0,87.0
864,175.52521698125,176.52161107916666,43.0,91.0
865,176.39060148125,176.69228413333332,55.0,96.0
866,176.67906298124998,177.03122639583333,64.0,90.0
867,176.67906298124998,177.03963985625,67.0,88.0
868,176.96752448125,177.14060138125,60.0,84.0
869,176.96752448125,177.2884379,55.0,80.0
870,176.67906298124998,177.35694750625,48.0,92.0
871,177.25598598125,177.63338977708332,64.0,92.0
872,177.25598598125,177.64901477499998,67.0,90.0
873,177.54444748125,177.81367821458332,60.0,85.0
874,177.83290898125,178.18747624166667,67.0,91.0
875,177.83290898125,178.19108201041666,64.0,90.0
876,178.12137048124998,178.46992812708334,59.0,92.0
877,177.83290898125,178.49156273958332,52.0,97.0
878,178.40983198125,178.58290888125,64.0,92.0
879,178.40983198125,178.65502425625,67.0,94.0
880,178.69829348125,178.84132230833333,59.0,94.0
881,178.98675498125,179.16584149583332,57.0,85.0
882,178.98675498125,179.31247609166667,60.0,90.0
883,178.98675498125,179.34853377916667,64.0,90.0
884,179.27521648125,179.59012028541667,57.0,88.0
885,179.56367798124998,179.86896640208332,64.0,95.0
886,179.56367798124998,179.87978370833332,60.0,90.0
887,178.98675498125,179.956706775,45.0,90.0
888,179.85213948125,180.01920676666666,57.0,92.0
889,180.14060098125,180.49997593333333,59.0,81.0
890,180.14060098125,180.50838939375,62.0,81.0
891,180.14060098125,180.51319708541666,55.0,86.0
892,180.71752398125,181.03242778541667,59.0,92.0
893,180.71752398125,181.03723547708333,62.0,86.0
894,180.42906248124999,181.12858161875,50.0,80.0
895,181.00598548125,181.15742776874998,55.0,91.0
896,180.14060098125,181.15862969166668,43.0,90.0
897,181.29444698125,181.65262001041665,57.0,86.0
898,181.29444698125,181.83771613958334,53.0,89.0
899,181.58290848125,182.26800454374998,48.0,82.0
900,181.87136998124998,182.2860333875,57.0,88.0
901,181.29444698125,182.3004564625,41.0,91.0
902,182.15983148125,182.32810068958332,53.0,92.0
903,181.87136998124998,182.33651415,60.0,90.0
904,181.87136998124998,182.39180260416666,65.0,89.0
905,182.44829298125,182.47954297708333,60.0,73.0
906,182.44829298125,182.78483139791666,64.0,91.0
907,182.44829298125,182.79444678125,67.0,88.0
908,182.73675448125,183.13098519791666,55.0,83.0
909,182.44829298125,183.15382173333333,48.0,94.0
910,183.02521598125,183.3244947875,64.0,94.0
911,183.02521598125,183.36415824374998,67.0,91.0
912,183.31367748124998,183.68266781666665,60.0,91.0
913,183.60213898125,183.95790816458333,65.0,85.0
914,183.60213898125,183.97713893124998,69.0,85.0
915,183.89060048125,184.04805238333333,60.0,89.0
916,183.60213898125,184.46632155833333,41.0,90.0
917,184.17906198125,184.54084077916667,65.0,93.0
918,184.17906198125,184.543244625,69.0,96.0
919,184.46752348125,184.5937253875,60.0,92.0
920,184.75598498125,184.9615138,62.0,88.0
921,184.75598498125,185.11656185625,71.0,90.0
922,184.75598498125,185.14300416041667,67.0,86.0
923,185.04444648125,185.2427637625,62.0,89.0
924,185.33290798125,185.45310027291666,62.0,91.0
925,184.75598498125,185.59853294583334,43.0,90.0
926,185.04444648125,185.59853294583334,50.0,83.0
927,185.33290798125,185.6538214,67.0,91.0
928,185.62136948124999,185.76319638541665,62.0,90.0
929,185.90983098125,186.18507132916668,72.0,88.0
930,185.90983098125,186.22233093958332,64.0,90.0
931,185.90983098125,186.22713863125,67.0,88.0
932,186.19829248125,186.39901360833332,60.0,78.0
933,186.19829248125,186.58290781458334,55.0,84.0
934,185.90983098125,186.62858088541665,48.0,92.0
935,186.48675398125,186.74035971666666,67.0,92.0
936,186.48675398125,186.75478279166666,64.0,95.0
937,186.77521548125,186.879782775,60.0,90.0
938,187.06367698124998,187.3485327125,59.0,81.0
939,187.06367698124998,187.42906154791666,62.0,86.0
940,187.35213848125,187.4422827,59.0,51.0
941,187.06367698124998,187.94468647916665,43.0,90.0
942,187.64059998125,187.99636916458334,62.0,90.0
943,187.64059998125,188.00117685625,67.0,91.0
944,187.35213848125,188.00358070208333,50.0,88.0
945,187.92906148125,188.0552633875,59.0,90.0
946,188.21752298125,188.57209024166667,60.0,84.0
947,188.21752298125,188.6610325375,57.0,78.0
948,188.79444598125,189.12136901458334,60.0,92.0
949,188.79444598125,189.13579208958333,64.0,95.0
950,188.79444598125,189.15021516458333,69.0,90.0
951,188.50598448124998,189.18507092916667,52.0,85.0
952,189.08290748125,189.20309977291666,57.0,92.0
953,188.21752298125,189.22473438541667,45.0,90.0
954,189.37136898125,189.55406126458334,59.0,88.0
955,189.37136898125,189.74035931666666,64.0,92.0
956,189.65983048125,190.00478235833333,59.0,94.0
957,189.37136898125,190.10454196041667,52.0,91.0
958,189.94829198125,190.18987848749998,67.0,92.0
959,189.94829198125,190.21391694583332,64.0,95.0
960,190.23675348125,190.34733038958333,59.0,92.0
961,190.52521498125,190.82088801875,53.0,86.0
962,190.52521498125,190.91343608333332,57.0,81.0
963,190.52521498125,191.34011871875,41.0,92.0
964,190.81367648124998,191.34492641041666,48.0,86.0
965,191.10213798125,191.42906101458334,57.0,84.0
966,191.10213798125,191.45069562708332,60.0,94.0
967,191.39059948125,191.52641677083332,53.0,89.0
968,191.10213798125,191.58771483958333,65.0,91.0
969,191.67906098125,191.84612826666665,55.0,90.0
970,191.67906098125,192.04684939375,60.0,89.0
971,191.96752248125,192.31367628125,55.0,91.0
972,191.67906098125,192.57930124583334,48.0,91.0
973,192.25598398124998,192.61175316458332,64.0,95.0
974,192.25598398124998,192.61656085625,60.0,92.0
975,192.54444548125,192.706705075,55.0,91.0
976,192.83290698125,193.19829154791665,62.0,90.0
977,192.83290698125,193.20069539374998,66.0,91.0
978,193.12136848125,193.29204153541667,57.0,85.0
979,193.40982998125,193.514397275,57.0,87.0
980,192.83290698125,193.60574341666666,38.0,92.0
981,193.40982998125,194.07088758541667,66.0,90.0
982,193.40982998125,194.09732988958334,62.0,91.0
983,193.69829148124998,194.12257027083334,57.0,89.0
984,194.56367598125,194.7115125,55.0,91.0
985,194.56367598125,194.79805095,59.0,92.0
986,194.85213748125,194.91343555,59.0,68.0
987,194.56367598125,194.91944516458332,62.0,93.0
988,194.27521448125,194.956704775,50.0,87.0
989,193.98675298125,194.98314707916666,43.0,91.0
990,194.85213748125,195.15382013333334,55.0,96.0
991,195.14059898125,195.49276239583332,64.0,90.0
992,195.14059898125,195.50117585625,67.0,88.0
993,195.42906048125,195.60213738125,60.0,84.0
994,195.42906048125,195.7499739,55.0,80.0
995,195.14059898125,195.81848350625,48.0,92.0
996,195.71752198125,196.09492577708332,64.0,92.0
997,195.71752198125,196.110550775,67.0,90.0
998,196.00598348124998,196.27521421458331,60.0,85.0
999,196.29444498125,196.64901224166667,67.0,91.0
1000,196.29444498125,196.65261801041666,64.0,90.0
1001,196.58290648125,196.93146412708333,59.0,92.0
1002,196.29444498125,196.95309873958334,52.0,97.0
1003,196.87136798125,197.04444488125,64.0,92.0
1004,196.87136798125,197.11656025624998,67.0,94.0
1005,197.15982948125,197.30285830833333,59.0,94.0
1006,197.44829098124998,197.62737749583331,57.0,85.0
1007,197.44829098124998,197.77401209166666,60.0,90.0
1008,197.44829098124998,197.81006977916667,64.0,90.0
1009,197.73675248125,198.05165628541667,57.0,88.0
1010,198.02521398125,198.33050240208334,64.0,95.0
1011,198.02521398125,198.34131970833332,60.0,90.0
1012,197.44829098124998,198.41824277499998,45.0,90.0
1013,198.31367548125,198.48074276666665,57.0,92.0
1014,198.60213698125,198.96151193333333,59.0,81.0
1015,198.60213698125,198.96992539375,62.0,81.0
1016,198.60213698125,198.97473308541666,55.0,86.0
1017,199.17905998125,199.49396378541667,59.0,92.0
1018,199.17905998125,199.49877147708332,62.0,86.0
1019,198.89059848124998,199.59011761874999,50.0,80.0
1020,199.46752148125,199.61896376875,55.0,91.0
1021,198.60213698125,199.62016569166667,43.0,90.0
1022,199.75598298124999,200.11415601041665,57.0,86.0
1023,199.75598298124999,200.29925213958333,53.0,89.0
1024,200.04444448125,200.72954054375,48.0,82.0
1025,200.33290598125,200.7475693875,57.0,88.0
1026,199.75598298124999,200.7619924625,41.0,91.0
1027,200.62136748125,200.78963668958332,53.0,92.0
1028,200.33290598125,200.79805015,60.0,90.0
1029,200.33290598125,200.85333860416665,65.0,89.0
1030,200.90982898125,200.94107897708332,60.0,73.0
1031,200.90982898125,201.24636739791666,64.0,91.0
1032,200.90982898125,201.25598278125,67.0,88.0
1033,201.19829048124998,201.59252119791665,55.0,83.0
1034,200.90982898125,201.61535773333333,48.0,94.0
1035,201.48675198125,201.78603078749998,64.0,94.0
1036,201.48675198125,201.82569424375,67.0,91.0
1037,201.77521348125,202.14420381666667,60.0,91.0
1038,202.06367498125,202.14420381666667,60.0,73.0
1039,202.06367498125,202.1610307375,36.0,90.0
1040,202.06367498125,202.65982874791666,64.0,85.0
1041,202.06367498125,202.71872297083334,67.0,76.0
1042,202.92905948125,203.322088275,60.0,97.0
1043,203.21752098125,203.51920363333332,64.0,77.0
1044,203.21752098125,203.57929977916666,67.0,83.0
1045,203.21752098125,203.58290554791665,72.0,90.0
1046,202.35213648125,203.60093439166667,48.0,87.0
1047,202.64059798124998,203.85934781875,55.0,85.0
1048,203.50598248125,204.00237664583332,60.0,95.0
1049,203.79444398125,204.31367468125,64.0,88.0
1050,204.08290548124998,204.31968429583333,60.0,91.0
1051,203.79444398125,204.32929967916667,67.0,86.0
1052,204.37136698125,205.18146302708334,41.0,92.0
1053,204.37136698125,205.18146302708334,53.0,80.0
1054,204.37136698125,205.283626475,57.0,78.0
1055,204.65982848125,205.30526108749999,48.0,83.0
1056,204.94828998124999,205.41703991875,60.0,90.0
1057,205.23675148125,205.69708795833333,65.0,90.0
1058,205.52521298125,206.10093405833334,43.0,99.0
1059,205.81367448125,206.13458789999999,50.0,83.0
1060,206.10213598125,206.14420328333333,55.0,63.0
1061,206.10213598125,206.58050130208332,59.0,86.0
1062,206.39059748124998,206.62377052708334,55.0,91.0
1063,206.10213598125,206.639395525,62.0,86.0
1064,207.25598198125,207.37256850416665,60.0,82.0
1065,207.25598198125,207.62737616249998,64.0,85.0
1066,207.54444348125,207.879779975,60.0,81.0
1067,207.83290498124998,207.97713573125,64.0,85.0
1068,207.83290498124998,208.197087625,67.0,78.0
1069,208.12136648125,208.48434720208334,60.0,77.0
1070,208.40982798125,208.91703945208332,64.0,79.0
1071,208.40982798125,208.95550098541665,67.0,79.0
1072,208.69828948125,208.96631829166665,60.0,93.0
1073,208.40982798125,208.9831452125,72.0,81.0
1074,206.96752048125,209.0408375125,55.0,75.0
1075,206.67905898125,209.04925097291667,48.0,94.0
1076,208.98675098125,209.34252016458333,65.0,69.0
1077,208.98675098125,209.57569321041666,69.0,74.0
1078,208.98675098125,209.61295282083333,41.0,94.0
1079,209.27521248125,209.70189511666666,48.0,78.0
1080,209.56367398125,209.91343355,65.0,91.0
1081,209.85213548125,210.01439507499998,69.0,95.0
1082,210.14059698124998,210.74155843958332,43.0,97.0
1083,210.42905848125,210.79203920208332,50.0,86.0
1084,210.71751998125,211.07929877916666,67.0,91.0
1085,211.00598148125,211.27280836875,74.0,81.0
1086,211.87136598125,211.90862559166666,67.0,71.0
1087,211.58290448124998,212.00357750208332,55.0,66.0
1088,211.87136598125,212.36776014583333,60.0,96.0
1089,212.44828898125,212.59492357708334,60.0,85.0
1090,212.44828898125,212.76920239999998,64.0,87.0
1091,212.73675048125,213.06367351458331,60.0,81.0
1092,211.29444298125,213.5264138375,48.0,84.0
1093,212.15982748125,213.5264138375,55.0,74.0
1094,213.02521198124998,213.58650998333331,64.0,91.0
1095,213.02521198124998,213.59492344375,67.0,92.0
1096,213.31367348125,213.60333690416667,60.0,80.0
1097,213.60213498125,213.60333690416667,60.0,85.0
1098,213.60213498125,213.98074069999998,64.0,90.0
1099,214.17905798125,214.49876947708333,62.0,88.0
1100,214.46751948125,214.64660599583334,64.0,90.0
1101,213.89059648125,215.20910592083334,55.0,83.0
1102,214.75598098125,215.42905781458333,60.0,85.0
1103,214.75598098125,215.52160587916666,67.0,89.0
1104,214.75598098125,215.75598084791667,64.0,90.0
1105,215.62136548125,215.87376929375,60.0,79.0
1106,215.33290398124998,215.91223082708333,55.0,86.0
1107,213.60213498125,215.93266351666665,48.0,92.0
1108,215.90982698125,215.93266351666665,48.0,91.0
1109,215.90982698125,216.30646154375,60.0,91.0
1110,215.90982698125,216.35934615208333,64.0,95.0
1111,216.19828848125,216.64780765208332,55.0,79.0
1112,216.48674998125,216.93146146041667,60.0,97.0
1113,216.77521148124998,217.23915372708333,55.0,91.0
1114,217.06367298125,217.42304793333332,64.0,93.0
1115,217.64059598125,217.73674981458333,60.0,87.0
1116,217.35213448125,217.80886518958332,55.0,66.0
1117,217.64059598125,217.9975670875,64.0,94.0
1118,217.64059598125,218.00958631666666,67.0,90.0
1119,217.92905748125,218.07449015416665,60.0,92.0
1120,218.21751898124998,218.69949007083332,62.0,85.0
1121,218.21751898124998,218.88098043124998,59.0,87.0
1122,218.79444198125,219.13819193541667,62.0,89.0
1123,219.08290348124999,219.45069189375,59.0,92.0
1124,219.37136498125,219.6922784,67.0,86.0
1125,219.37136498125,219.7487687770833,62.0,91.0
1126,219.65982648125,219.822086075,59.0,84.0
1127,219.94828798125,220.08650911666666,59.0,90.0
1128,219.94828798125,220.32208600833332,62.0,91.0
1129,218.50598048125,220.42905714791667,50.0,81.0
1130,218.21751898124998,220.43025907083333,43.0,91.0
1131,220.23674948125,220.63098019791667,59.0,90.0
1132,220.52521098124998,220.87497055,67.0,87.0
1133,220.52521098124998,220.89780708541667,62.0,86.0
1134,220.81367248125,221.17545127916665,59.0,84.0
1135,221.10213398125,221.39900894166666,62.0,88.0
1136,221.39059548125,221.73554735833332,59.0,90.0
1137,221.67905698125,221.95189348333332,71.0,92.0
1138,221.67905698125,222.0360280875,62.0,90.0
1139,221.96751848124998,222.26319151875,59.0,94.0
1140,220.81367248125,222.52400879166666,50.0,73.0
1141,220.52521098124998,222.57328763125,43.0,91.0
1142,222.54444148125,222.84612413333332,59.0,92.0
1143,222.25597998125,222.85213374791667,62.0,84.0
1144,222.25597998125,222.88218182083332,67.0,90.0
1145,223.12136448125,223.59492211041666,55.0,84.0
1146,223.40982598124998,223.59732595625,60.0,85.0
1147,223.40982598124998,223.72112401666666,67.0,85.0
1148,223.40982598124998,223.72232593958333,64.0,90.0
1149,223.69828748125,223.85694130625,60.0,73.0
1150,223.98674898125,224.2776143270833,64.0,93.0
1151,223.98674898125,224.28001817291667,67.0,94.0
1152,224.27521048124999,224.62376812708334,60.0,94.0
1153,224.56367198125,224.88338347708333,64.0,92.0
1154,224.56367198125,224.89660462916666,67.0,92.0
1155,222.83290298125,224.99756615416666,48.0,92.0
1156,223.69828748125,225.02400845833333,55.0,86.0
1157,224.85213348125,225.34371995416666,60.0,91.0
1158,225.14059498125,225.7716045125,72.0,91.0
1159,225.42905648125,226.26559483124998,60.0,96.0
1160,225.71751798124998,226.30766213333334,64.0,97.0
1161,226.00597948125,226.32569097708333,67.0,83.0
1162,226.29444098125,226.68987362083334,72.0,95.0
1163,226.58290248125,226.74035438333334,60.0,93.0
1164,226.87136398125,226.99035435,60.0,94.0
1165,225.42905648125,227.04203703541666,55.0,69.0
1166,225.14059498125,227.10814279583332,48.0,92.0
1167,226.87136398125,227.14299856041666,72.0,90.0
1168,226.87136398125,227.18506586249998,67.0,92.0
1169,226.87136398125,227.19708509166665,64.0,99.0
1170,227.15982548124998,227.26559469791667,60.0,92.0
1171,227.44828698125,227.86775807916666,59.0,85.0
1172,227.44828698125,227.90141192083334,55.0,90.0
1173,228.02520998125,228.36535416666666,62.0,90.0
1174,228.02520998125,228.38097916458332,59.0,85.0
1175,228.31367148125,228.65742143541667,55.0,86.0
1176,228.60213298124998,228.7571810375,59.0,90.0
1177,228.60213298124998,228.84612333333334,67.0,90.0
1178,228.60213298124998,228.90501755625,62.0,91.0
1179,228.89059448125,229.08770983958334,55.0,88.0
1180,229.17905598125,229.53242131874998,59.0,95.0
1181,229.17905598125,229.55766169999998,62.0,93.0
1182,227.44828698125,229.63097899791666,43.0,85.0
1183,227.73674848125,229.6369886125,50.0,89.0
1184,229.46751748124998,229.67064245416665,55.0,90.0
1185,229.75597898125,229.84732512291666,55.0,78.0
1186,229.75597898125,230.10213278125,59.0,90.0
1187,229.75597898125,230.11174816458333,62.0,90.0
1188,230.04444048125,230.35694043958333,55.0,86.0
1189,230.33290198125,230.70069039375,59.0,76.0
1190,230.33290198125,230.7042961625,62.0,89.0
1191,230.62136348125,230.94708459166665,55.0,92.0
1192,230.90982498124998,230.95189228333334,62.0,84.0
1193,230.90982498124998,231.00357496875,59.0,91.0
1194,230.90982498124998,231.24756532083333,67.0,91.0
1195,231.19828648125,231.302853775,59.0,74.0
1196,231.19828648125,231.51799797708333,55.0,91.0
1197,231.48674798125,231.82448832083332,59.0,84.0
1198,231.48674798125,231.90381523333332,65.0,96.0
1199,229.75597898125,231.92665176875,43.0,94.0
1200,231.77520948125,232.14059404791666,55.0,86.0
1201,232.02520944791667,232.39660362916666,67.0,77.0
1202,232.01439214166666,232.41583439583331,60.0,78.0
1203,232.89299779375,233.3437188875,64.0,82.0
1204,232.61775744583332,233.74155537291665,60.0,91.0
1205,233.18746890833333,233.75597844791665,72.0,77.0
1206,233.45429579583333,233.95910342083332,67.0,79.0
1207,231.99876714375,234.1153534,48.0,79.0
1208,233.76078613958333,234.11655532291667,64.0,71.0
1209,232.29684402708332,234.12496878333332,55.0,74.0
1210,234.02160341249999,234.19948800416665,60.0,78.0
1211,234.34732452291667,234.620161025,60.0,75.0
1212,234.3244879875,234.76198792916665,67.0,82.0
1213,234.34852644583333,234.96030521041666,64.0,80.0
1214,234.9302571375,235.48073783333334,60.0,85.0
1215,235.30285324166667,235.50117052291665,64.0,87.0
1216,235.90862239166665,236.15020889791666,60.0,74.0
1217,236.02280506875,236.21631465833332,64.0,81.0
1218,236.0648723708333,236.23314157916667,67.0,77.0
1219,236.20068966041666,236.54443961458333,72.0,67.0
1220,234.30766106666667,237.01919916666665,48.0,82.0
1221,234.61054564166665,237.04443954791665,55.0,75.0
