,start,end,pitch,velocity
0,23.62513439166667,23.86541192916667,67.0,95.0
1,23.95846739166667,24.23902266666667,67.0,95.0
2,24.29180039166667,24.59874452916667,66.0,94.0
3,24.62513339166667,24.89874422916667,64.0,99.0
4,24.95846639166667,25.21402169166667,66.0,95.0
5,25.291799391666668,25.57235466666667,67.0,97.0
6,25.625132391666668,25.91679876666667,64.0,102.0
7,25.95846539166667,26.29179839166667,71.0,101.0
8,26.29179839166667,26.51818705416667,69.0,97.0
9,26.62513139166667,26.85707560416667,69.0,95.0
10,26.95846439166667,27.17790861666667,67.0,96.0
11,27.29179739166667,27.922352316666668,67.0,96.0
12,27.95846339166667,28.71262930416667,64.0,97.0
13,28.95846239166667,29.18901771666667,66.0,92.0
14,29.291795391666668,29.51540627916667,66.0,97.0
15,29.62512839166667,29.85429482916667,67.0,98.0
16,29.95846139166667,30.19179449166667,69.0,97.0
17,30.29179439166667,30.50012751666667,62.0,96.0
18,30.62512739166667,30.86957159166667,62.0,96.0
19,30.95846039166667,31.19318237916667,72.0,99.0
20,31.29179339166667,31.564015341666668,72.0,98.0
21,31.62512639166667,31.82929285416667,71.0,95.0
22,31.958459391666672,32.19179249166667,71.0,96.0
23,32.29179239166667,32.52512549166667,69.0,96.0
24,32.62512539166667,33.44179124166667,71.0,95.0
25,33.625124391666674,33.88206857916667,71.0,101.0
26,33.95845739166667,34.14595720416667,76.0,97.0
27,34.291790391666666,34.48345686666667,76.0,95.0
28,34.62512339166667,34.86401204166667,76.0,102.0
29,34.95845639166667,35.19178949166667,74.0,98.0
30,35.29178939166667,36.100121916666666,72.0,99.0
31,36.29178839166667,36.58901031666667,69.0,97.0
32,36.62512139166667,36.85151005416667,71.0,97.0
33,36.95845439166667,37.22095412916667,72.0,90.0
34,37.291787391666674,37.55706490416667,71.0,97.0
35,37.62512039166667,37.90428677916667,67.0,94.0
36,37.958453391666666,38.49317507916667,64.0,101.0
37,38.62511939166667,38.88900801666667,64.0,100.0
38,38.95845239166667,39.21956324166667,71.0,97.0
39,39.29178539166667,39.800118216666675,69.0,100.0
40,39.95845139166667,40.24178444166667,64.0,100.0
41,40.29178439166667,40.579284104166675,71.0,99.0
42,40.62511739166667,40.83483940416667,69.0,99.0
43,40.95845039166667,41.27095007916667,69.0,97.0
44,41.29178339166667,41.61817195416667,67.0,99.0
45,41.625116391666666,42.202893591666665,64.0,99.0
46,42.29178239166667,44.372335866666674,66.0,96.0
47,44.95844639166667,45.198723929166675,67.0,95.0
48,45.291779391666665,45.57233466666667,67.0,95.0
49,45.625112391666676,45.93205652916667,66.0,94.0
50,45.95844539166667,46.23205622916667,64.0,99.0
51,46.29177839166667,46.547333691666665,66.0,95.0
52,46.62511139166667,46.905666666666676,67.0,97.0
53,46.958444391666674,47.250110766666666,64.0,102.0
54,47.29177739166667,47.62511039166667,71.0,101.0
55,47.62511039166667,47.851499054166666,69.0,97.0
56,47.95844339166667,48.19038760416667,69.0,95.0
57,48.29177639166667,48.51122061666667,67.0,96.0
58,48.62510939166667,49.25566431666667,67.0,96.0
59,49.291775391666675,50.045941304166675,64.0,97.0
60,50.29177439166667,50.522329716666675,66.0,92.0
61,50.625107391666674,50.848718279166675,66.0,97.0
62,50.95844039166667,51.18760682916667,67.0,98.0
63,51.291773391666666,51.52510649166667,69.0,97.0
64,51.62510639166667,51.83343951666667,62.0,96.0
65,51.95843939166667,52.20288359166667,62.0,96.0
66,52.29177239166667,52.52649437916667,72.0,99.0
67,52.62510539166667,52.89732734166667,72.0,98.0
68,52.958438391666675,53.16260485416667,71.0,95.0
69,53.29177139166667,53.52510449166667,71.0,96.0
70,53.62510439166667,53.85843749166667,69.0,96.0
71,53.95843739166667,54.77510324166667,71.0,95.0
72,54.958436391666666,55.21538057916667,71.0,101.0
73,55.29176939166667,55.47926920416667,76.0,97.0
74,55.62510239166667,55.81676886666667,76.0,95.0
75,55.95843539166667,56.19732404166667,76.0,102.0
76,56.29176839166667,56.52510149166667,74.0,98.0
77,56.62510139166667,57.43343391666667,72.0,99.0
78,57.62510039166667,57.92232231666667,69.0,97.0
79,57.958433391666674,58.18482205416667,71.0,97.0
80,58.29176639166667,58.55426612916667,72.0,90.0
81,58.62509939166667,58.89037690416667,71.0,97.0
82,58.95843239166667,59.237598779166674,67.0,94.0
83,59.29176539166667,59.82648707916667,64.0,101.0
84,59.95843139166667,60.22232001666667,64.0,100.0
85,60.29176439166667,60.55287524166667,71.0,97.0
86,60.62509739166667,60.958430391666674,69.0,100.0
87,60.958430391666674,61.29176339166667,69.0,100.0
88,61.29176339166667,61.57509644166667,64.0,100.0
89,61.62509639166667,61.912596104166674,67.0,99.0
90,61.95842939166667,62.16815140416667,66.0,99.0
91,62.29176239166667,62.60426207916667,66.0,97.0
92,62.62509539166667,62.95148395416667,67.0,99.0
93,62.95842839166667,63.53620559166667,62.0,99.0
94,63.62509439166667,65.70564786666668,64.0,96.0
95,66.29175839166666,66.50009151666667,67.0,96.0
96,66.62509139166667,66.85009116666667,67.0,96.0
97,66.95842439166667,67.21397969166668,69.0,101.0
98,67.29175739166666,67.58759042916668,71.0,99.0
99,67.62509039166667,67.86536792916667,67.0,97.0
100,67.95842339166667,68.17647872916667,71.0,102.0
101,68.29175639166667,68.55703390416667,76.0,106.0
102,68.62508939166668,68.84453361666667,74.0,102.0
103,68.95842239166667,69.51675516666667,74.0,106.0
104,69.62508839166668,69.86536592916667,72.0,99.0
105,69.95842139166666,70.56119856666666,71.0,100.0
106,70.62508739166668,71.36675331666667,69.0,100.0
107,71.62508639166667,71.85008616666667,71.0,96.0
108,71.95841939166667,72.17091917916667,71.0,99.0
109,72.29175239166668,72.50980772916668,71.0,99.0
110,72.62508539166667,73.14175154166668,71.0,104.0
111,73.29175139166668,73.51119561666667,76.0,101.0
112,73.62508439166666,74.19175049166668,78.0,99.0
113,74.29175039166668,75.70286009166668,74.0,102.0
114,76.29174839166667,76.55285924166668,78.0,102.0
115,76.62508139166667,76.81952564166667,76.0,99.0
116,76.95841439166668,77.17785861666667,76.0,104.0
117,77.29174739166668,77.51119161666668,76.0,106.0
118,77.62508039166667,77.86535792916666,74.0,109.0
119,77.95841339166668,78.69730154166666,76.0,109.0
120,78.95841239166667,79.22368990416666,74.0,100.0
121,79.29174539166667,79.51106502291667,71.0,101.0
122,79.62457540208332,79.858517525,71.0,97.0
123,79.95680090208333,80.18659020625,71.0,96.0
124,80.28902640208332,80.52712134375,69.0,99.0
125,80.62125190208333,81.21787352916667,71.0,98.0
126,81.28570290208333,81.52933493541666,64.0,99.0
127,81.61792840208332,81.85740761666666,71.0,99.0
128,81.95015390208333,82.16333193125,69.0,96.0
129,82.28237940208334,82.49971024999999,69.0,96.0
130,82.61460490208333,82.848547025,69.0,98.0
131,82.94683040208332,83.20153661875,67.0,99.0
132,83.27905590208333,83.77462560625,64.0,104.0
133,83.94350690208333,84.79898756458333,74.0,106.0
134,84.93976631875,86.08214929374999,69.0,97.0
135,87.58967171458332,87.79800483958333,67.0,96.0
136,87.92300471458333,88.14800448958333,67.0,96.0
137,88.25633771458332,88.51189301458332,69.0,101.0
138,88.58967071458332,88.88550375208332,71.0,99.0
139,88.92300371458333,89.16328125208332,67.0,97.0
140,89.25633671458333,89.47439205208332,71.0,102.0
141,89.58966971458332,89.85494722708333,76.0,106.0
142,89.92300271458332,90.14244693958332,74.0,102.0
143,90.25633571458333,90.81466848958333,74.0,106.0
144,90.92300171458332,91.16327925208333,72.0,99.0
145,91.25633471458332,91.85911188958332,71.0,100.0
146,91.92300071458332,92.66466663958333,69.0,100.0
147,92.92299971458333,93.14799948958333,71.0,96.0
148,93.25633271458332,93.46883250208333,71.0,99.0
149,93.58966571458332,93.80772105208332,71.0,99.0
150,93.92299871458333,94.43966486458332,71.0,104.0
151,94.58966471458332,94.80910893958333,76.0,101.0
152,94.92299771458332,95.48931350208332,78.0,99.0
153,95.58887090208333,96.91630290208333,74.0,102.0
154,96.91630290208333,97.17625833541666,79.0,102.0
155,97.24816090208333,97.50811633541666,79.0,102.0
156,97.58001890208332,97.83997433541666,78.0,102.0
157,97.91187690208332,98.10546073541666,76.0,99.0
158,98.24373490208333,98.46220808541666,76.0,104.0
159,98.57559290208333,98.79406608541666,76.0,106.0
160,98.90745090208333,99.14666521041666,74.0,109.0
161,99.23930890208332,99.97492746875,76.0,109.0
162,100.23488290208333,100.49898656041665,74.0,100.0
163,100.56674090208332,100.78521408541665,71.0,101.0
164,100.89859890208332,101.13228224375,71.0,97.0
165,101.23045690208333,101.45999201875,71.0,96.0
166,101.56231490208333,101.80014646875,69.0,99.0
167,101.89417290208333,102.49013456041666,71.0,98.0
168,102.55788890208332,102.80125143541666,64.0,99.0
169,102.88974690208333,103.12896121041666,71.0,99.0
170,103.22160490208333,103.43454711874999,69.0,96.0
171,103.55346290208333,103.77055334375,69.0,96.0
172,103.88532090208332,104.11900424375,69.0,98.0
173,104.21717890208333,104.47160336875,64.0,99.0
174,104.54903690208333,105.04405841875,66.0,104.0
175,105.21275290208332,106.06728725208333,62.0,106.0
176,106.20832690208333,107.35323700208333,64.0,97.0
177,130.1394860375,130.379763575,68.0,95.0
178,130.4728190375,130.7533743125,68.0,95.0
179,130.8061520375,131.113096175,67.0,94.0
180,131.1394850375,131.413095875,65.0,99.0
181,131.4728180375,131.7283733375,67.0,95.0
182,131.8061510375,132.0867063125,68.0,97.0
183,132.1394840375,132.4311504125,65.0,102.0
184,132.4728170375,132.8061500375,72.0,101.0
185,132.8061500375,133.0325387,70.0,97.0
186,133.1394830375,133.37142725,70.0,95.0
187,133.4728160375,133.6922602625,68.0,96.0
188,133.8061490375,134.4367039625,68.0,96.0
189,134.4728150375,135.22698095,65.0,97.0
190,135.4728140375,135.7033693625,67.0,92.0
191,135.8061470375,136.029757925,67.0,97.0
192,136.1394800375,136.368646475,68.0,98.0
193,136.4728130375,136.7061461375,70.0,97.0
194,136.8061460375,137.0144791625,63.0,96.0
195,137.1394790375,137.3839232375,63.0,96.0
196,137.4728120375,137.707534025,73.0,99.0
197,137.8061450375,138.0783669875,73.0,98.0
198,138.1394780375,138.3436445,72.0,95.0
199,138.4728110375,138.7061441375,72.0,96.0
200,138.8061440375,139.0394771375,70.0,96.0
201,139.1394770375,139.9561428875,72.0,95.0
202,140.1394760375,140.39642022499999,72.0,101.0
203,140.4728090375,140.66030885,77.0,97.0
204,140.8061420375,140.9978085125,77.0,95.0
205,141.1394750375,141.3783636875,77.0,102.0
206,141.4728080375,141.7061411375,75.0,98.0
207,141.8061410375,142.6144735625,73.0,99.0
208,142.8061400375,143.1033619625,70.0,97.0
209,143.1394730375,143.3658617,72.0,97.0
210,143.4728060375,143.735305775,73.0,90.0
211,143.8061390375,144.07141655,72.0,97.0
212,144.1394720375,144.418638425,68.0,94.0
213,144.4728050375,145.007526725,65.0,101.0
214,145.13947103750002,145.4033596625,65.0,100.0
215,145.4728040375,145.7339148875,72.0,97.0
216,145.8061370375,146.1394700375,70.0,100.0
217,146.1394700375,146.4728030375,70.0,100.0
218,146.4728030375,146.7561360875,65.0,100.0
219,146.8061360375,147.09363575,68.0,99.0
220,147.1394690375,147.34919105,67.0,99.0
221,147.4728020375,147.785301725,67.0,97.0
222,147.8061350375,148.1325236,68.0,99.0
223,148.1394680375,148.7172452375,63.0,99.0
224,148.8061340375,150.8866875125,65.0,96.0
225,151.47225720416665,151.67966845416666,68.0,96.0
226,151.80411520416666,152.02811935416668,68.0,96.0
227,152.13597320416667,152.39039767083332,70.0,101.0
228,152.46783120416666,152.76235517916666,72.0,99.0
229,152.79968920416667,153.03890351249999,68.0,97.0
230,153.13154720416665,153.34863764583332,72.0,102.0
231,153.46340520416666,153.7275088625,77.0,106.0
232,153.79526320416667,154.0137363875,75.0,102.0
233,154.12712120416666,154.68298335416665,75.0,106.0
234,154.79083720416668,155.0300515125,73.0,99.0
235,155.12269520416666,155.7228050875,72.0,100.0
236,155.78641120416665,156.52479525416666,70.0,100.0
237,156.78198520416666,157.00598935416667,72.0,96.0
238,157.11384320416667,157.32540267916667,72.0,99.0
239,157.44570120416665,157.66279164583332,72.0,99.0
240,157.77755920416666,158.29193910416666,72.0,104.0
241,158.44127520416666,158.6597483875,77.0,101.0
242,158.77313320416667,159.33729180416665,79.0,99.0
243,159.43684920416666,160.8417147375,75.0,102.0
244,161.42799720416667,161.6879526375,79.0,102.0
245,161.75985520416666,161.9534390375,77.0,99.0
246,162.09171320416667,162.3101863875,77.0,104.0
247,162.42357120416668,162.6420443875,77.0,106.0
248,162.75542920416666,162.9946435125,75.0,109.0
249,163.08728720416667,163.82290577083333,77.0,109.0
250,164.08286120416668,164.3469648625,75.0,100.0
251,164.41471920416666,164.6331923875,72.0,101.0
252,164.74657720416667,164.98026054583335,72.0,97.0
253,165.07843520416665,165.30797032083333,72.0,96.0
254,165.41029320416666,165.64812477083333,70.0,99.0
255,165.74215120416667,166.3381128625,72.0,98.0
256,166.40586720416667,166.6492297375,65.0,99.0
257,166.73772520416668,166.9769395125,72.0,99.0
258,167.06958320416666,167.28252542083334,70.0,96.0
259,167.40144120416667,167.61853164583334,70.0,96.0
260,167.73329920416666,167.96698254583333,70.0,98.0
261,168.06515720416667,168.31958167083334,68.0,99.0
262,168.39701520416668,168.89203672083335,65.0,104.0
263,169.06073120416667,169.91526555416667,75.0,106.0
264,170.05630520416668,171.20121530416668,70.0,97.0
265,172.711744725,172.9198466,68.0,96.0
266,173.044707725,173.26945775,68.0,96.0
267,173.377670725,173.63294235833334,70.0,101.0
268,173.710633725,174.0061383875,72.0,99.0
269,174.043596725,174.28360755416668,68.0,97.0
270,174.376559725,174.59437302083333,72.0,102.0
271,174.709522725,174.97450577916666,77.0,106.0
272,175.042485725,175.26168636666665,75.0,102.0
273,175.375448725,175.93316175,75.0,106.0
274,176.041374725,176.28138555416666,73.0,99.0
275,176.374337725,176.97644581666665,72.0,100.0
276,177.040263725,177.7811064,70.0,100.0
277,178.039152725,178.26390275,72.0,96.0
278,178.372115725,178.5843796375,72.0,99.0
279,178.705078725,178.92289202083333,72.0,99.0
280,179.038041725,179.554134375,72.0,104.0
281,179.70396772499998,179.92316836666666,77.0,101.0
282,180.036930725,180.602967825,79.0,99.0
283,180.702856725,182.034708725,75.0,102.0
284,182.034708725,182.29552974166666,80.0,102.0
285,182.367671725,182.62849274166666,80.0,102.0
286,182.700634725,182.96145574166667,79.0,102.0
287,183.033597725,183.22782614166667,77.0,99.0
288,183.366560725,183.58576136666667,77.0,104.0
289,183.699523725,183.91872436666665,77.0,106.0
290,184.032486725,184.27249755416668,75.0,109.0
291,184.365449725,185.10351770833333,77.0,109.0
292,185.364338725,185.62932177916667,75.0,100.0
293,185.697301725,185.91650236666666,72.0,101.0
294,186.030264725,186.26472617083334,72.0,97.0
295,186.363227725,186.59352713333334,72.0,96.0
296,186.696190725,186.93481420833334,70.0,99.0
297,187.029153725,187.62709977916666,72.0,98.0
298,187.695079725,187.93925259166667,65.0,99.0
299,188.028042725,188.26805355416667,72.0,99.0
300,188.361005725,188.57465698333334,70.0,96.0
301,189.026931725,189.26139317083334,70.0,98.0
302,189.359894725,189.61516635833334,65.0,99.0
303,189.692857725,190.18952753333332,67.0,104.0
304,190.358783725,190.56549825416667,67.0,100.0
305,190.691746725,191.24664213958334,63.0,99.0
306,191.35713930625,192.68034287708335,65.0,101.0
307,196.68991737916664,196.89918050416665,69.0,96.0
308,197.02473837916665,197.25074255416666,69.0,96.0
309,197.35955937916665,197.61625547916665,71.0,101.0
310,197.69438037916666,197.99153401666666,73.0,99.0
311,198.02920137916666,198.27055151666664,69.0,97.0
312,198.36402237916664,198.58305111666667,73.0,102.0
313,198.69884337916665,198.96530509166666,78.0,106.0
314,199.03366437916665,199.25408820416666,76.0,102.0
315,199.36848537916666,199.92931055416665,76.0,106.0
316,200.03812737916667,200.27947751666665,74.0,99.0
317,200.37294837916664,200.97841635416665,73.0,100.0
318,201.04259037916665,201.78756710416664,71.0,100.0
319,202.04705337916664,202.27305755416666,73.0,96.0
320,202.38187437916665,202.59532276666664,73.0,99.0
321,202.71669537916665,202.93572411666665,73.0,99.0
322,203.05151637916666,203.57048892916666,73.0,104.0
323,203.72115837916667,203.94158220416665,78.0,101.0
324,204.05597937916664,204.62517507916667,80.0,99.0
325,204.72562137916665,206.14303027916665,76.0,102.0
326,206.73454737916666,206.99682382916666,80.0,102.0
327,207.06936837916666,207.26468062916666,78.0,99.0
328,207.40418937916667,207.62461320416665,78.0,104.0
329,207.7388829375,207.95906120416666,78.0,106.0
330,208.07333093749997,208.31441220416664,76.0,109.0
331,208.40777893749998,209.14773098333333,78.0,109.0
332,209.40884183333333,209.67411934583333,76.0,100.0
333,209.74217483333334,209.96161905833333,73.0,101.0
334,210.07550783333332,210.31022982083334,73.0,97.0
335,210.40884083333333,210.63939615833334,73.0,96.0
336,210.74217383333334,210.98106248333332,71.0,99.0
337,211.07550683333332,211.67411734583334,73.0,98.0
338,211.74217283333334,211.98661703333332,66.0,99.0
339,212.07550583333332,212.31578337083332,73.0,99.0
340,212.40883883333333,212.62272750833333,71.0,96.0
341,212.74217183333332,212.96022717083332,71.0,96.0
342,213.07550483333333,213.31022682083332,71.0,98.0
343,213.40883783333334,213.66439313333333,69.0,99.0
344,213.74217083333332,214.23939255833332,66.0,104.0
345,214.40883683333334,215.26716930833334,76.0,106.0
346,215.40870633333333,216.555449725,71.0,97.0
347,218.06707575,218.2747166875,69.0,96.0
348,218.39930125,218.62355346249998,69.0,96.0
349,218.73152675,218.98623296666668,71.0,101.0
350,219.06375225,219.35860238125,73.0,99.0
351,219.39597775,219.63545696458334,69.0,97.0
352,219.72820325,219.94553409791666,73.0,102.0
353,220.06042875,220.32482487708333,78.0,106.0
354,220.39265425,220.61136937083333,76.0,102.0
355,220.72487974999999,221.2813574625,76.0,106.0
356,221.38933075,221.62880996458333,74.0,99.0
357,221.72155625,222.32233069583333,73.0,100.0
358,222.38600725,223.1252089875,71.0,100.0
359,223.38268374999998,223.6069359625,73.0,96.0
360,223.71490925,223.92670300625,73.0,99.0
361,224.04713475,224.26446559791665,73.0,99.0
362,224.37936025,224.894309775,73.0,104.0
363,225.04381125,225.26252637083334,78.0,101.0
364,225.37603675,225.9408201,80.0,99.0
365,226.04048775,227.36938974999998,76.0,102.0
366,227.36938974999998,227.62963305833333,81.0,102.0
367,227.70161525,227.96185855833332,81.0,102.0
368,228.03384075,228.29408405833334,80.0,102.0
369,228.36606625,228.55986445833332,78.0,99.0
370,228.69829175,228.91700687083332,78.0,104.0
371,229.03051725,229.24923237083334,78.0,106.0
372,229.36274275,229.60222196458332,76.0,109.0
373,229.69496825,230.43140144166665,78.0,109.0
374,230.69164475,230.95604087708332,76.0,100.0
375,231.02387025,231.24258537083332,73.0,101.0
376,231.35609575,231.59003787291667,73.0,97.0
377,231.68832125,231.91811055416667,73.0,96.0
378,232.02054675,232.25864169166667,71.0,99.0
379,232.35277225,232.94939387708334,73.0,98.0
380,233.01722325,233.26085528333334,66.0,99.0
381,233.34944875,233.58892796458332,73.0,99.0
382,233.68167425,233.89485227916666,71.0,96.0
383,234.34612525,234.58006737291666,71.0,98.0
384,234.67835075,234.93305696666667,66.0,99.0
385,235.01057624999999,235.50614595416667,68.0,104.0
386,235.67502725,235.88128391458332,68.0,100.0
387,236.00725275,236.56096191666666,64.0,99.0
388,236.67170375,237.33615475,66.0,101.0
389,238.00060575,238.26084905833332,81.0,102.0
390,238.33283125,238.59307455833334,81.0,102.0
391,238.66505675,238.92530005833333,80.0,102.0
392,238.99728225,239.19108045833332,78.0,99.0
393,239.32950775,239.54822287083334,78.0,104.0
394,239.66173325,239.88044837083334,78.0,106.0
395,239.99395875,240.23343796458335,76.0,109.0
396,240.32618424999998,241.06261744166667,78.0,109.0
397,241.32286075,241.58725687708332,76.0,100.0
398,241.65508625,241.87380137083332,73.0,101.0
399,241.98731175,242.22125387291666,73.0,97.0
400,242.31953725,242.54932655416667,73.0,96.0
401,242.65176275,242.88985769166666,71.0,99.0
402,242.98398824999998,243.58060987708333,73.0,98.0
403,243.64843925,243.89207128333334,66.0,99.0
404,243.98066475,244.22014396458331,73.0,99.0
405,244.31289025,244.52606827916665,71.0,96.0
406,244.97734125,245.21128337291665,71.0,98.0
407,245.30956675,245.56427296666666,66.0,99.0
408,245.64179224999998,246.13736195416666,68.0,104.0
409,246.30624325,246.51249991458332,68.0,100.0
410,246.63846875,247.19217791666665,64.0,99.0
411,247.30291975,248.62905320416667,66.0,101.0
