,start,end,pitch,velocity
0,1.5833317500000001,2.1069423375,52.0,87.0
1,1.7194427250000002,2.180553375,59.0,85.0
2,1.741664925,2.1944422500000003,64.0,98.0
3,1.6527761250000002,2.2541644125,55.0,91.0
4,2.4055531500000003,2.6097196125,52.0,91.0
5,2.7374972625000003,2.9305526250000002,54.0,83.0
6,3.091663575,3.502774275,55.0,91.0
7,3.4291632375,3.591663075,59.0,98.0
8,3.7652740125000004,3.9208294125000003,55.0,95.0
9,2.0541646125,3.9319405125,47.0,86.0
10,1.7527760250000002,3.9736071375,40.0,99.0
11,3.7638851250000003,4.08332925,59.0,100.0
12,4.06110705,4.1208292125,55.0,85.0
13,3.7680517875,4.233329100000001,64.0,97.0
14,4.3236067875,4.81666185,57.0,83.0
15,4.419440025,4.8333285,60.0,88.0
16,4.4888844,4.8736062375,64.0,94.0
17,5.0986060125,5.59443885,57.0,69.0
18,5.4111057,5.6152721625,60.0,90.0
19,4.7486063625,6.3194381250000005,52.0,88.0
20,5.68332765,6.37221585,57.0,85.0
21,5.819438625,6.37221585,69.0,86.0
22,5.730549825000001,6.374993625,60.0,90.0
23,5.7763831125000005,6.3777714,64.0,94.0
24,4.4374955625000005,6.419438025000001,45.0,97.0
25,7.041659625,7.486103625,50.0,89.0
26,6.9722152500000005,7.552770225000001,54.0,84.0
27,6.852770925000001,7.774992225,62.0,91.0
28,6.919437525,7.9611031500000005,57.0,83.0
29,8.0444364,8.1458251875,57.0,56.0
30,8.06110305,8.23888065,54.0,104.0
31,7.7152700625,8.280547275,50.0,95.0
32,8.4097138125,8.5902691875,50.0,95.0
33,8.4013804875,8.791657875,54.0,96.0
34,7.4013814875,8.936102175,45.0,85.0
35,7.058326275000001,8.9930465625,38.0,100.0
36,8.71665795,9.04999095,50.0,92.0
37,8.408324925,9.1374908625,57.0,95.0
38,8.3958249375,9.2819351625,62.0,95.0
39,9.0763798125,9.3541573125,54.0,94.0
40,9.408323925000001,9.502768275000001,62.0,55.0
41,9.6013792875,10.236100875,55.0,87.0
42,9.7652680125,10.402767375,67.0,89.0
43,9.6652681125,10.466656200000001,59.0,91.0
44,9.72776805,10.4958228375,62.0,90.0
45,10.424989575,10.9347112875,55.0,96.0
46,10.7666559,10.940266837500001,59.0,96.0
47,10.124989875,11.298599812500001,50.0,90.0
48,11.086100025,11.5958217375,55.0,83.0
49,11.1152666625,11.784710437500001,67.0,95.0
50,11.0902666875,11.8180437375,59.0,96.0
51,11.108322225,11.819432625000001,62.0,95.0
52,11.444433,11.8235992875,50.0,86.0
53,9.7486013625,11.8985992125,43.0,97.0
54,11.763877125,11.9013769875,55.0,96.0
55,12.3263765625,12.836098275000001,48.0,81.0
56,12.3985987125,13.1735979375,52.0,93.0
57,12.447209775000001,13.2110979,55.0,88.0
58,12.484709737500001,13.351375537500001,60.0,89.0
59,13.0930424625,14.06109705,48.0,97.0
60,13.408319925,14.1097081125,52.0,100.0
61,12.777765,14.245819087500001,43.0,85.0
62,12.444432,14.3291523375,36.0,95.0
63,14.0680414875,14.541652125,55.0,96.0
64,14.433318900000002,14.779151887500001,52.0,98.0
65,14.7402630375,14.824985175,48.0,89.0
66,13.758319575,14.8569295875,60.0,100.0
67,15.0374849625,15.597206625,57.0,95.0
68,15.108318225000001,15.8347063875,60.0,90.0
69,15.213873675,16.118039437500002,69.0,90.0
70,15.174984825000001,16.1208172125,64.0,93.0
71,15.43887345,16.7430388125,52.0,95.0
72,16.068039487500002,16.763872125000002,60.0,95.0
73,15.7513731375,16.8124831875,57.0,95.0
74,15.118040437500001,16.81664985,45.0,96.0
75,16.7222055,17.2652605125,64.0,96.0
76,16.394428050000002,17.2652605125,69.0,99.0
77,17.0513718375,17.363871525,60.0,91.0
78,17.411093700000002,17.474982525,69.0,60.0
79,17.741648925,18.3958149375,59.0,87.0
80,17.7902599875,18.8208145125,63.0,96.0
81,18.076370812500002,18.9208144125,51.0,70.0
82,18.7263701625,19.212480787500002,59.0,92.0
83,18.4180371375,19.8069246375,54.0,89.0
84,19.42775835,19.99998,59.0,96.0
85,19.81664685,20.004146662500002,51.0,100.0
86,17.794426650000002,20.047202175000002,47.0,97.0
87,19.086092025,20.0624799375,66.0,91.0
88,20.1819242625,21.8183186125,59.0,97.0
89,20.5513683375,22.016149300000002,63.0,86.0
90,20.612479387500002,22.260513908333333,66.0,90.0
91,21.462223375,23.113991270833335,51.0,78.0
92,21.7597021125,23.115465325000002,54.0,70.0
93,20.581923862500002,23.224545333333335,47.0,95.0
94,22.228084716666668,23.366054533333333,63.0,84.0
95,20.691645975,23.394061562500003,71.0,97.0
96,21.994168112500002,23.398483725000002,59.0,83.0
97,23.95846739166667,24.997355241666668,52.0,96.0
98,24.29180039166667,25.022355216666668,55.0,80.0
99,23.62513439166667,25.33902156666667,47.0,82.0
100,23.280559391666667,25.38068819166667,40.0,96.0
101,25.291799391666668,25.50846584166667,52.0,87.0
102,24.95846639166667,25.51541027916667,59.0,86.0
103,24.62513339166667,25.57096577916667,64.0,97.0
104,25.95846539166667,27.35013066666667,60.0,94.0
105,25.95846539166667,27.36957509166667,57.0,82.0
106,26.62513139166667,27.36957509166667,64.0,89.0
107,26.29179839166667,27.71540807916667,52.0,88.0
108,25.95846539166667,27.82929685416667,45.0,95.0
109,27.62513039166667,28.12512989166667,64.0,90.0
110,27.95846339166667,28.16957429166667,57.0,78.0
111,26.95846439166667,28.63346271666667,69.0,97.0
112,28.62512939166667,29.02512899166667,57.0,80.0
113,28.62512939166667,29.34735089166667,62.0,85.0
114,29.291795391666668,29.83207262916667,57.0,85.0
115,29.62512839166667,30.04318352916667,62.0,88.0
116,28.95846239166667,30.12373900416667,45.0,80.0
117,28.62512939166667,30.21123891666667,38.0,95.0
118,29.95846139166667,30.29179439166667,66.0,100.0
119,31.29179339166667,31.64873747916667,55.0,87.0
120,31.29179339166667,31.94318162916667,62.0,86.0
121,31.29179339166667,31.98068159166667,59.0,88.0
122,32.29179239166667,32.70568086666667,62.0,91.0
123,31.958459391666672,32.96679171666667,55.0,89.0
124,31.62512639166667,33.27512474166667,50.0,79.0
125,32.62512539166667,33.298735829166674,67.0,96.0
126,31.29179339166667,33.337624679166666,43.0,97.0
127,33.29179139166667,33.44734679166667,55.0,75.0
128,32.95845839166667,33.45290234166667,62.0,87.0
129,33.95845739166667,34.36123476666667,55.0,90.0
130,33.95845739166667,34.69734554166667,64.0,95.0
131,34.95845639166667,35.35012266666667,60.0,98.0
132,34.62512339166667,35.40151150416667,55.0,91.0
133,34.291790391666666,36.04873307916667,43.0,72.0
134,33.95845739166667,36.08762192916667,36.0,91.0
135,35.29178939166667,36.50428817916667,64.0,102.0
136,36.62512139166667,37.31123181666667,52.0,94.0
137,36.62512139166667,37.31400959166667,59.0,84.0
138,36.62512139166667,37.32512069166667,40.0,96.0
139,36.95845439166667,37.32512069166667,47.0,87.0
140,37.291787391666674,37.391787291666674,55.0,89.0
141,37.958453391666666,38.445952904166674,61.0,86.0
142,37.958453391666666,38.49734174166667,64.0,90.0
143,37.958453391666666,38.94178574166667,37.0,87.0
144,38.29178639166667,38.95289684166667,43.0,57.0
145,38.62511939166667,39.264007641666666,61.0,88.0
146,38.62511939166667,39.275118741666674,67.0,82.0
147,38.62511939166667,39.28067429166667,64.0,95.0
148,39.29178539166667,41.532060929166676,45.0,89.0
149,39.625118391666675,41.725116291666666,52.0,87.0
150,39.95845139166667,41.88761612916667,57.0,97.0
151,40.29178439166667,42.00706045416667,60.0,99.0
152,40.62511739166667,42.077893716666665,64.0,86.0
153,42.62511539166667,43.032059429166665,64.0,91.0
154,42.95844839166667,43.366781316666675,66.0,88.0
155,42.29178239166667,43.482058979166666,54.0,87.0
156,43.291781391666674,43.88761412916667,63.0,96.0
157,43.62511439166667,44.05428062916667,54.0,77.0
158,43.95844739166667,44.12928055416667,63.0,89.0
159,43.95844739166667,44.12928055416667,66.0,83.0
160,41.95844939166667,44.44872467916667,47.0,98.0
161,44.29178039166667,44.46400244166667,51.0,87.0
162,43.95844739166667,44.70566886666667,59.0,100.0
163,45.291779391666665,45.63205682916667,52.0,97.0
164,45.625112391666676,45.74594560416667,54.0,98.0
165,45.95844539166667,46.39455606666667,55.0,104.0
166,46.29177839166667,46.44455601666667,59.0,89.0
167,44.95844639166667,46.747333491666666,47.0,84.0
168,46.62511139166667,46.880666691666676,55.0,95.0
169,46.62511139166667,46.92788886666667,59.0,99.0
170,44.62511339166667,46.99177769166667,40.0,98.0
171,46.958444391666674,47.09455536666667,47.0,97.0
172,46.62511139166667,47.17649972916667,64.0,97.0
173,47.29177739166667,47.99177669166667,60.0,89.0
174,47.29177739166667,48.40844294166667,57.0,88.0
175,47.95844339166667,48.437609579166676,64.0,90.0
176,48.29177639166667,48.454276229166666,60.0,78.0
177,47.62511039166667,48.788998116666676,52.0,87.0
178,48.62510939166667,49.02788676666667,57.0,95.0
179,48.62510939166667,49.22094212916667,69.0,95.0
180,48.95844239166667,49.23483100416667,52.0,84.0
181,48.62510939166667,49.26538652916667,60.0,102.0
182,48.62510939166667,49.27649762916667,64.0,104.0
183,47.29177739166667,49.293164279166675,45.0,96.0
184,49.291775391666675,49.695941654166674,57.0,74.0
185,49.62510839166667,50.01399689166667,60.0,79.0
186,49.95844139166667,50.31677436666667,57.0,88.0
187,49.95844139166667,50.35010766666667,62.0,87.0
188,50.625107391666674,51.08205137916667,57.0,90.0
189,50.95844039166667,51.18899571666667,62.0,87.0
190,50.29177439166667,51.443162129166666,45.0,82.0
191,51.291773391666666,51.65982857916667,62.0,95.0
192,51.291773391666666,51.67510634166667,57.0,94.0
193,49.95844139166667,51.95982827916667,38.0,99.0
194,51.62510639166667,51.980661591666674,45.0,81.0
195,51.291773391666666,52.002883791666676,66.0,98.0
196,51.95843939166667,52.145939204166666,57.0,86.0
197,52.62510539166667,53.226493679166666,62.0,94.0
198,52.62510539166667,53.312604704166674,55.0,94.0
199,53.29177139166667,53.64177104166667,59.0,89.0
200,53.62510439166667,53.84871527916667,55.0,88.0
201,52.958438391666675,54.08482615416667,50.0,90.0
202,53.95843739166667,54.35843699166667,55.0,94.0
203,53.95843739166667,54.44315912916667,59.0,100.0
204,54.291770391666674,54.63760337916667,50.0,86.0
205,53.95843739166667,54.65010336666667,67.0,90.0
206,52.62510539166667,54.66260335416667,43.0,96.0
207,54.62510339166667,54.83760317916667,55.0,95.0
208,55.29176939166667,55.38760262916667,36.0,92.0
209,55.29176939166667,55.59593575416667,55.0,95.0
210,55.29176939166667,55.80426887916667,64.0,96.0
211,56.29176839166667,56.53760147916667,60.0,97.0
212,55.95843539166667,56.76954569166667,55.0,90.0
213,56.62510139166667,57.03065654166667,60.0,89.0
214,56.95843439166667,57.291767391666674,55.0,85.0
215,56.62510139166667,57.30982292916667,64.0,96.0
216,55.62510239166667,57.31260070416667,48.0,86.0
217,56.62510139166667,57.35843399166667,67.0,91.0
218,57.291767391666674,57.45148945416667,60.0,91.0
219,57.958433391666674,58.36537742916667,52.0,93.0
220,57.958433391666674,58.43065514166667,55.0,89.0
221,57.958433391666674,58.66815490416667,59.0,91.0
222,58.29176639166667,58.79176589166667,47.0,87.0
223,57.958433391666674,58.83204362916667,40.0,96.0
224,58.62509939166667,58.89454356666667,52.0,97.0
225,59.29176539166667,59.73065384166667,49.0,85.0
226,59.29176539166667,59.979264704166674,55.0,83.0
227,59.29176539166667,59.99037580416667,52.0,95.0
228,59.29176539166667,60.05009796666667,37.0,83.0
229,59.95843139166667,60.06954239166667,49.0,87.0
230,59.62509839166667,60.10843124166667,43.0,88.0
231,60.62509739166667,61.070930279166674,57.0,84.0
232,60.62509739166667,61.28898561666667,60.0,85.0
233,60.62509739166667,61.52231871666667,45.0,96.0
234,61.29176339166667,61.70842964166667,57.0,95.0
235,60.958430391666674,61.73898516666667,52.0,89.0
236,61.62509639166667,61.97092937916667,60.0,98.0
237,61.95842939166667,62.45565111666667,59.0,89.0
238,61.95842939166667,62.67231756666667,63.0,85.0
239,62.29176239166667,62.76398414166667,54.0,89.0
240,61.95842939166667,62.87648402916667,47.0,96.0
241,62.62509539166667,63.38342796666667,59.0,97.0
242,63.958427391666675,64.31259370416667,54.0,90.0
243,64.29176039166667,64.44731579166667,55.0,97.0
244,63.62509439166667,64.72370440416667,47.0,86.0
245,64.62509339166667,64.99870412916667,55.0,104.0
246,64.62509339166667,65.00287079166668,52.0,100.0
247,64.62509339166667,65.07231516666667,59.0,101.0
248,63.29176139166667,65.38203707916668,40.0,98.0
249,64.95842639166668,65.40009261666667,47.0,102.0
250,65.29175939166667,65.54731469166667,52.0,116.0
251,65.62509239166667,65.74314782916667,40.0,100.0
252,65.95842539166668,66.68759132916668,59.0,96.0
253,66.62509139166667,67.08481315416668,62.0,91.0
254,65.95842539166668,67.09175759166666,55.0,95.0
255,66.95842439166667,67.09314647916668,59.0,85.0
256,66.29175839166666,67.45009056666667,50.0,90.0
257,67.29175739166666,67.77370135416666,55.0,98.0
258,67.29175739166666,67.81120131666667,59.0,106.0
259,67.29175739166666,67.81953464166668,62.0,109.0
260,67.29175739166666,67.83759017916668,67.0,97.0
261,67.62509039166667,68.08897881666667,50.0,85.0
262,67.95842339166667,68.13064544166667,55.0,95.0
263,67.95842339166667,68.13758987916667,59.0,98.0
264,65.95842539166668,68.14314542916668,43.0,100.0
265,67.95842339166667,68.16953429166668,62.0,97.0
266,68.62508939166668,68.96536682916667,57.0,90.0
267,68.62508939166668,69.35147755416668,62.0,93.0
268,69.29175539166667,69.75703270416668,57.0,97.0
269,69.62508839166668,69.80147710416668,62.0,97.0
270,68.95842239166667,70.10703235416668,50.0,85.0
271,69.95842139166666,70.35564321666666,57.0,99.0
272,68.62508939166668,70.53064304166668,42.0,98.0
273,69.95842139166666,70.61675406666667,62.0,102.0
274,69.95842139166666,70.65008736666667,66.0,109.0
275,70.29175439166667,70.70147620416668,50.0,84.0
276,70.62508739166668,70.76536502916667,57.0,96.0
277,71.29175339166667,71.70286409166667,59.0,95.0
278,71.29175339166667,72.03897486666668,67.0,91.0
279,71.95841939166667,72.39730784166667,59.0,95.0
280,72.29175239166668,72.42230781666667,64.0,95.0
281,71.62508639166667,72.84036295416666,47.0,81.0
282,72.62508539166667,73.02369610416667,59.0,98.0
283,72.62508539166667,73.16814040416668,67.0,96.0
284,72.95841839166667,73.47230676666666,47.0,73.0
285,73.29175139166668,73.50425117916667,59.0,100.0
286,71.29175339166667,73.60563996666667,40.0,97.0
287,73.29175139166668,73.69452876666668,64.0,100.0
288,73.29175139166668,73.74869537916666,67.0,93.0
289,73.62508439166666,73.83063974166667,59.0,95.0
290,73.95841739166667,74.38202807916667,59.0,91.0
291,74.29175039166668,74.69174999166667,54.0,91.0
292,73.95841739166667,74.71119441666667,62.0,89.0
293,74.62508339166666,75.12647177916668,59.0,96.0
294,74.95841639166667,75.36674931666667,54.0,95.0
295,75.29174939166667,75.75563781666668,59.0,98.0
296,75.29174939166667,75.76258225416667,62.0,100.0
297,75.29174939166667,75.89035990416667,66.0,99.0
298,75.62508239166667,75.95008206666668,54.0,97.0
299,73.95841739166667,76.03897086666667,47.0,99.0
300,75.95841539166668,76.25147065416667,62.0,97.0
301,76.29174839166667,76.35008166666668,59.0,87.0
302,76.62508139166667,77.00146990416667,55.0,96.0
303,76.62508139166667,77.36952509166667,64.0,97.0
304,77.29174739166668,77.70285809166667,55.0,95.0
305,77.62508039166667,77.75424692916667,60.0,94.0
306,76.95841439166668,78.07230216666667,52.0,91.0
307,76.62508139166667,78.08341326666667,48.0,102.0
308,77.95841339166668,78.37924630416667,60.0,102.0
309,77.95841339166668,78.39313517916668,55.0,101.0
310,77.95841339166668,78.44591290416668,64.0,106.0
311,78.29174639166666,78.73480150416667,52.0,89.0
312,78.62507939166667,78.78757922916668,55.0,102.0
313,78.62507939166667,78.92646797916667,60.0,100.0
314,78.95841239166667,79.03619009166667,55.0,91.0
315,79.29174539166667,79.991407725,55.0,95.0
316,79.29174539166667,80.00940327291666,52.0,96.0
317,80.28902640208332,80.41361096458333,55.0,95.0
318,79.95680090208333,80.41637951041666,59.0,94.0
319,79.62457540208332,80.72507237083333,47.0,82.0
320,80.62125190208333,80.77213764999999,60.0,92.0
321,80.62125190208333,81.03653377708333,52.0,97.0
322,80.62125190208333,81.06837205416666,55.0,109.0
323,80.62125190208333,81.11405306041667,59.0,93.0
324,80.62125190208333,81.19710943541666,64.0,97.0
325,81.28570290208333,81.34522663749999,64.0,70.0
326,79.29174539166667,81.35076372916666,40.0,101.0
327,80.95347740208332,81.47119547291666,47.0,91.0
328,81.61792840208332,81.84218061458333,43.0,99.0
329,81.28570290208333,81.97368654166667,55.0,92.0
330,81.28570290208333,82.01244618333332,59.0,94.0
331,81.95015390208333,82.07196991875,64.0,38.0
332,82.61460490208333,83.10048469583333,57.0,100.0
333,82.94683040208332,83.12955442708333,60.0,93.0
334,82.28237940208334,83.40225619166667,52.0,88.0
335,83.27905590208333,83.73863451041666,60.0,97.0
336,83.27905590208333,83.75109296666666,57.0,95.0
337,83.27905590208333,83.7538615125,64.0,99.0
338,83.61128140208334,83.94904399375,52.0,83.0
339,83.94350690208333,84.02241045833333,57.0,90.0
340,81.95015390208333,84.02933182291666,45.0,98.0
341,83.94350690208333,84.23974130625,60.0,99.0
342,83.94350690208333,84.27434812916667,69.0,95.0
343,83.94350690208333,84.28680658541666,64.0,99.0
344,84.27573240208334,84.3269505,57.0,72.0
345,84.60795790208333,84.83904897916666,57.0,97.0
346,84.60795790208333,85.10670875833333,62.0,99.0
347,84.93976631875,85.45163115416666,45.0,88.0
348,85.27089181875,85.76758006875,66.0,91.0
349,85.60201731875,85.82276765208333,57.0,98.0
350,85.27089181875,85.82414734166666,62.0,97.0
351,85.93314281875,86.22563701041666,57.0,99.0
352,85.93314281875,86.30014024791666,62.0,101.0
353,85.93314281875,86.31117776458333,66.0,102.0
354,86.26426831875,86.50985306458333,67.0,104.0
355,84.60795790208333,86.93341776666666,38.0,100.0
356,86.59539381875,86.94859435208333,45.0,96.0
357,86.92651931875,87.18728064999999,62.0,94.0
358,86.59539381875,87.20659630416667,69.0,98.0
359,87.25764481875,87.98550465208332,59.0,96.0
360,87.92300471458333,88.38272647708332,62.0,91.0
361,87.25764481875,88.38967091458332,55.0,95.0
362,88.25633771458332,88.39105980208332,59.0,85.0
363,87.58967171458332,88.74800388958333,50.0,90.0
364,88.58967071458332,89.07161467708332,55.0,98.0
365,88.58967071458332,89.10911463958332,59.0,106.0
366,88.58967071458332,89.11744796458332,62.0,109.0
367,88.58967071458332,89.13550350208332,67.0,97.0
368,88.92300371458333,89.38689213958332,50.0,85.0
369,89.25633671458333,89.42855876458333,55.0,95.0
370,89.25633671458333,89.43550320208332,59.0,98.0
371,87.25764481875,89.44105875208332,43.0,100.0
372,89.25633671458333,89.46744761458332,62.0,97.0
373,89.92300271458332,90.26328015208333,57.0,90.0
374,89.92300271458332,90.64939087708332,62.0,93.0
375,90.58966871458333,91.05494602708332,57.0,97.0
376,90.92300171458332,91.09939042708332,62.0,97.0
377,90.25633571458333,91.40494567708332,50.0,85.0
378,91.25633471458332,91.65355653958332,57.0,99.0
379,89.92300271458332,91.82855636458332,42.0,98.0
380,91.25633471458332,91.91466738958333,62.0,102.0
381,91.25633471458332,91.94800068958332,66.0,109.0
382,91.58966771458333,91.99938952708332,50.0,84.0
383,91.92300071458332,92.06327835208333,57.0,96.0
384,92.58966671458333,93.00077741458333,59.0,95.0
385,92.58966671458333,93.33688818958332,67.0,91.0
386,93.25633271458332,93.69522116458333,59.0,95.0
387,93.58966571458332,93.72022113958333,64.0,95.0
388,92.92299971458333,94.13827627708332,47.0,81.0
389,93.92299871458333,94.32160942708333,59.0,98.0
390,93.92299871458333,94.46605372708332,67.0,96.0
391,94.25633171458333,94.77022008958332,47.0,73.0
392,94.58966471458332,94.80216450208333,59.0,100.0
393,92.58966671458333,94.90355328958333,40.0,97.0
394,94.58966471458332,94.99244208958332,64.0,100.0
395,94.58966471458332,95.04660870208332,67.0,93.0
396,94.92299771458332,95.12855306458333,59.0,95.0
397,95.25633071458333,95.67874911041666,59.0,91.0
398,95.58887090208333,95.98710050208332,54.0,91.0
399,95.25633071458333,96.00645888541666,62.0,89.0
400,95.92072890208333,96.41989864374999,59.0,96.0
401,96.25258690208332,96.65911295208332,54.0,95.0
402,96.58444490208332,97.04628061874999,59.0,98.0
403,96.58444490208332,97.05319432708333,62.0,100.0
404,96.58444490208332,97.18040656041666,66.0,99.0
405,96.91630290208333,97.23986445208332,54.0,97.0
406,95.25633071458333,97.32835991875,47.0,99.0
407,97.24816090208333,97.53991939375,62.0,97.0
408,97.58001890208332,97.63809405208333,59.0,87.0
409,97.91187690208332,98.28659989375,55.0,96.0
410,97.91187690208332,98.65302643541666,64.0,97.0
411,98.57559290208333,98.98488443541666,55.0,95.0
412,98.90745090208333,99.03604587708332,60.0,94.0
413,98.24373490208333,99.35269371874999,52.0,91.0
414,97.91187690208332,99.36375565208333,48.0,102.0
415,99.23930890208332,99.65827962708333,60.0,102.0
416,99.23930890208332,99.67210704374999,55.0,101.0
417,99.23930890208332,99.72465122708333,64.0,106.0
418,99.57116690208332,100.01226149374999,52.0,89.0
419,99.90302490208333,100.06480567708333,55.0,102.0
420,99.90302490208333,100.20307984374999,60.0,100.0
421,100.23488290208333,100.31231643541666,55.0,91.0
422,100.56674090208332,101.26502544374999,55.0,95.0
423,100.56674090208332,101.28300108541666,52.0,96.0
424,101.56231490208333,101.68676165208333,55.0,95.0
425,101.23045690208333,101.68952713541665,59.0,94.0
426,100.89859890208332,101.99787852708333,47.0,82.0
427,101.89417290208333,102.04489174374999,60.0,92.0
428,101.89417290208333,102.30899540208333,52.0,97.0
429,101.89417290208333,102.34079846041666,55.0,109.0
430,101.89417290208333,102.38642893541666,59.0,93.0
431,101.89417290208333,102.46939343541666,64.0,97.0
432,102.55788890208332,102.61734679374999,64.0,70.0
433,100.56674090208332,102.62287776041666,40.0,101.0
434,102.22603090208332,102.74317628541667,47.0,91.0
435,102.88974690208333,103.11375105208333,43.0,99.0
436,102.55788890208332,103.24511151041666,55.0,92.0
437,102.55788890208332,103.28382827708333,59.0,94.0
438,103.22160490208333,103.64057562708332,57.0,89.0
439,103.22160490208333,103.77608431041666,60.0,92.0
440,103.22160490208333,103.94201331041666,64.0,96.0
441,103.22160490208333,104.25174744374999,45.0,96.0
442,103.88532090208332,104.30152614375,57.0,100.0
443,103.55346290208333,104.44394853541667,52.0,91.0
444,104.21717890208333,104.48681352708333,60.0,102.0
445,104.54903690208333,104.81728878541666,62.0,97.0
446,104.54903690208333,105.06894776875,59.0,96.0
447,104.88089490208333,105.20860467708333,54.0,96.0
448,104.54903690208333,105.26529708541666,47.0,98.0
449,105.21275290208332,105.47409107708333,59.0,95.0
450,105.21275290208332,105.48791849374999,62.0,95.0
451,105.21275290208332,105.51695606874999,66.0,95.0
452,105.54461090208332,105.68841603541667,59.0,71.0
453,105.87646890208333,106.26501931041666,59.0,95.0
454,105.87646890208333,106.44339298541666,64.0,98.0
455,106.54018490208333,107.00063787708332,59.0,97.0
456,106.87204290208332,107.02414448541666,64.0,97.0
457,106.20832690208333,107.31728571874999,47.0,90.0
458,107.20390090208332,107.64637823541666,59.0,100.0
459,107.20390090208332,107.72795999374999,64.0,112.0
460,105.87646890208333,107.87867883541666,40.0,98.0
461,107.53575890208333,107.90633366875,47.0,99.0
462,107.20390090208332,107.92016108541667,67.0,100.0
463,107.86761690208333,108.04322509375,59.0,106.0
464,108.53133290208332,108.56313596041666,40.0,96.0
465,108.53133290208332,109.22738942916666,53.0,91.0
466,108.53133290208332,109.26061197916667,60.0,94.0
467,109.19555115208333,109.53331374375,56.0,101.0
468,109.52777665208333,109.77417723125,53.0,86.0
469,108.86332565208333,109.9693597125,48.0,94.0
470,109.86000215208333,110.32511785208332,53.0,93.0
471,109.86000215208333,110.35280331041666,56.0,100.0
472,109.86000215208333,110.37079885833333,60.0,101.0
473,109.86000215208333,110.44278105,65.0,97.0
474,110.52445315208332,110.58674543333333,65.0,76.0
475,108.53133290208332,110.70025581249999,41.0,95.0
476,110.19222765208333,110.70440863124999,48.0,89.0
477,110.52445315208332,110.84837301458333,60.0,96.0
478,110.52445315208332,110.86083147083333,56.0,96.0
479,110.85667865208333,111.16398723958334,53.0,95.0
480,111.18890415208332,111.38270236041666,53.0,85.0
481,111.18890415208332,111.62633439375,58.0,88.0
482,111.52112965208333,112.32677648958332,53.0,95.0
483,112.18558065208333,112.35446194791666,58.0,83.0
484,111.85335515208332,112.36830467708333,61.0,94.0
485,111.18890415208332,112.67838181041667,46.0,104.0
486,112.51780615208332,112.78773937083332,53.0,96.0
487,112.51780615208332,113.03829276875,58.0,96.0
488,112.85003165208333,113.1255019625,46.0,82.0
489,112.51780615208332,113.26116070833334,61.0,95.0
490,112.51780615208332,113.26808207291666,65.0,96.0
491,113.18225715208332,113.54493665625,53.0,104.0
492,113.51448265208333,113.6072289375,58.0,97.0
493,113.84670815208332,114.23015174999999,51.0,95.0
494,113.84670815208332,114.2550686625,58.0,91.0
495,113.84670815208332,114.40041731875,55.0,89.0
496,114.51115915208332,114.91121402499999,51.0,94.0
497,114.84338465208333,114.94028375625,55.0,77.0
498,114.84338465208333,115.04548849791666,58.0,80.0
499,114.17893365208333,115.30850035208333,46.0,90.0
500,115.17561015208332,115.61857748541667,51.0,97.0
501,115.17561015208332,115.63103594166667,58.0,92.0
502,115.17561015208332,115.66564276458332,55.0,97.0
503,113.84670815208332,115.69332822291666,39.0,104.0
504,115.17561015208332,115.70717095208333,63.0,96.0
505,115.50783565208333,115.84144542499999,46.0,88.0
506,115.84006115208332,115.94526589374999,51.0,111.0
507,116.50451215208332,116.90041420624999,56.0,91.0
508,116.50451215208332,117.11082368958333,63.0,88.0
509,116.50451215208332,117.13850914791666,60.0,95.0
510,117.16896315208334,117.59531921041666,56.0,91.0
511,117.50118865208333,117.66176431041666,60.0,87.0
512,116.83673765208333,117.93031325625,51.0,87.0
513,116.50451215208332,117.97460998958333,44.0,104.0
514,117.83341415208332,118.2749972125,56.0,97.0
515,117.83341415208332,118.33452094791666,68.0,92.0
516,117.83341415208332,118.33867376666666,63.0,95.0
517,117.83341415208332,118.34005803958333,60.0,99.0
518,118.16563965208333,118.60168562083332,51.0,97.0
519,118.49786515208334,118.63075535208333,60.0,101.0
520,118.49786515208334,118.63075535208333,63.0,98.0
521,118.49786515208334,118.6570565375,68.0,95.0
522,118.49786515208334,118.66951499375,56.0,100.0
523,118.83009065208333,118.91176275416666,44.0,104.0
524,119.16231615208332,119.87383243125,49.0,96.0
525,119.82676715208333,120.06347782083333,56.0,86.0
526,119.82676715208333,120.19498374791667,53.0,95.0
527,119.16231615208332,120.22682202499999,61.0,95.0
528,120.15899265208333,120.40400895833332,49.0,95.0
529,119.49454165208333,120.65733090208333,44.0,85.0
530,119.16231615208332,120.74315582291666,37.0,111.0
531,120.49121815208333,120.84282347291666,49.0,97.0
532,120.49121815208333,120.85389765625,56.0,96.0
533,120.49121815208333,121.06984423124999,53.0,99.0
534,120.82344365208333,121.09891396249999,44.0,88.0
535,121.15566915208333,121.25948962083334,49.0,109.0
536,120.49121815208333,121.30240208125,61.0,96.0
537,121.82012015208333,122.18556820208333,58.0,92.0
538,121.82012015208333,122.1952581125,61.0,93.0
539,122.15234565208333,122.55378479791666,53.0,97.0
540,122.48457115208333,122.99259931249999,58.0,97.0
541,122.81679665208333,123.05627586666667,61.0,100.0
542,123.14902215208333,123.33036190416666,53.0,93.0
543,123.14902215208333,123.53108147708333,58.0,93.0
544,123.14902215208333,123.53246575,61.0,93.0
545,123.14902215208333,123.59198948541666,65.0,96.0
546,123.48124765208333,123.69996277291666,53.0,93.0
547,123.81347315208333,123.91729362083333,53.0,96.0
548,121.82012015208333,123.96297462708333,46.0,106.0
549,123.81347315208333,124.09586482708333,65.0,95.0
550,123.81347315208333,124.10832328333333,58.0,101.0
551,123.81347315208333,124.10832328333333,61.0,97.0
552,124.47792415208333,124.65095826666666,36.0,96.0
553,124.47792415208333,125.21712588958333,55.0,99.0
554,124.47792415208333,125.409539825,64.0,99.0
555,125.47460065208332,125.63517631041665,55.0,101.0
556,125.80682615208333,126.2214344,55.0,98.0
557,125.80682615208333,126.34921205,60.0,96.0
558,125.14237515208333,126.4006008875,48.0,75.0
559,126.1394900375,126.7617116375,52.0,83.0
560,126.8061560375,127.0422669125,60.0,96.0
561,126.4728230375,127.0533780125,55.0,106.0
562,127.1394890375,127.23810005,36.0,96.0
563,127.1394890375,127.6339329875,55.0,95.0
564,127.1394890375,127.8311550125,60.0,95.0
565,127.1394890375,127.8867105125,64.0,99.0
566,128.1394880375,128.59365425,55.0,96.0
567,128.4728210375,128.8950428375,60.0,97.0
568,128.4728210375,128.9422650125,64.0,106.0
569,128.4728210375,129.1172648375,67.0,95.0
570,128.8061540375,129.3061535375,55.0,106.0
571,127.8061550375,129.71587535,48.0,92.0
572,129.47282003750001,129.7811530625,55.0,96.0
573,129.1394870375,129.78254195,60.0,109.0
574,130.4728190375,130.813096475,53.0,97.0
575,130.8061520375,130.92698525,55.0,98.0
576,131.1394850375,131.5755957125,56.0,104.0
577,131.4728180375,131.6255956625,60.0,89.0
578,130.1394860375,131.9283731375,48.0,84.0
579,131.8061510375,132.0617063375,56.0,95.0
580,131.8061510375,132.1089285125,60.0,99.0
581,129.8061530375,132.1728173375,41.0,98.0
582,132.1394840375,132.2755950125,48.0,97.0
583,131.8061510375,132.357539375,65.0,97.0
584,132.4728170375,133.1728163375,61.0,89.0
585,132.4728170375,133.5894825875,58.0,88.0
586,133.1394830375,133.618649225,65.0,90.0
587,133.4728160375,133.635315875,61.0,78.0
588,132.8061500375,133.9700377625,53.0,87.0
589,133.8061490375,134.2089264125,58.0,95.0
590,133.8061490375,134.401981775,70.0,95.0
591,134.1394820375,134.41587065,53.0,84.0
592,133.8061490375,134.446426175,61.0,102.0
593,133.8061490375,134.457537275,65.0,104.0
594,132.4728170375,134.474203925,46.0,96.0
595,134.4728150375,134.8769813,58.0,74.0
596,134.8061480375,135.1950365375,61.0,79.0
597,135.1394810375,135.4978140125,58.0,88.0
598,135.1394810375,135.5311473125,63.0,87.0
599,135.8061470375,136.263091025,58.0,90.0
600,136.1394800375,136.3700353625,63.0,87.0
601,135.4728140375,136.624201775,46.0,82.0
602,136.4728130375,136.840868225,63.0,95.0
603,136.4728130375,136.85614598749999,58.0,94.0
604,135.1394810375,137.140867925,39.0,99.0
605,136.8061460375,137.1617012375,46.0,81.0
606,136.4728130375,137.1839234375,67.0,98.0
607,137.1394790375,137.32697885,58.0,86.0
608,137.8061450375,138.407533325,63.0,94.0
609,137.8061450375,138.49364435,56.0,94.0
610,138.4728110375,138.8228106875,60.0,89.0
611,138.8061440375,139.029754925,56.0,88.0
612,138.1394780375,139.2658658,51.0,90.0
613,139.1394770375,139.5394766375,56.0,94.0
614,139.1394770375,139.624198775,60.0,100.0
615,139.4728100375,139.818643025,51.0,86.0
616,139.1394770375,139.8311430125,68.0,90.0
617,137.8061450375,139.843643,44.0,96.0
618,139.8061430375,140.018642825,56.0,95.0
619,140.4728090375,140.568642275,37.0,92.0
620,140.4728090375,140.7769754,56.0,95.0
621,140.4728090375,140.985308525,65.0,96.0
622,141.4728080375,141.718641125,61.0,97.0
623,141.1394750375,141.9505853375,56.0,90.0
624,141.8061410375,142.2116961875,61.0,89.0
625,142.1394740375,142.4728070375,56.0,85.0
626,141.8061410375,142.490862575,65.0,96.0
627,140.8061420375,142.49364035,49.0,86.0
628,141.8061410375,142.5394736375,68.0,91.0
629,142.4728070375,142.6325291,61.0,91.0
630,143.1394730375,143.546417075,53.0,93.0
631,143.1394730375,143.6116947875,56.0,89.0
632,143.1394730375,143.84919455,60.0,91.0
633,143.4728060375,143.9728055375,48.0,87.0
634,143.1394730375,144.01308327499999,41.0,96.0
635,143.8061390375,144.0755832125,53.0,97.0
636,144.4728050375,144.9116934875,50.0,85.0
637,144.4728050375,145.16030435,56.0,83.0
638,144.4728050375,145.17141545,53.0,95.0
639,144.4728050375,145.2311376125,38.0,83.0
640,145.13947103750002,145.2505820375,50.0,87.0
641,144.8061380375,145.2894708875,44.0,88.0
642,145.8061370375,146.251969925,58.0,84.0
643,145.8061370375,146.4700252625,61.0,85.0
644,145.8061370375,146.7033583625,46.0,96.0
645,146.4728030375,146.8894692875,58.0,95.0
646,146.1394700375,146.9200248125,53.0,89.0
647,146.8061360375,147.151969025,61.0,98.0
648,147.1394690375,147.6366907625,60.0,89.0
649,147.1394690375,147.8533572125,64.0,85.0
650,147.4728020375,147.9450237875,55.0,89.0
651,147.1394690375,148.057523675,48.0,96.0
652,147.8061350375,148.5644676125,60.0,97.0
653,149.1394670375,149.49363335,55.0,90.0
654,149.4728000375,149.6283554375,56.0,97.0
655,148.8061340375,149.90474405,48.0,86.0
656,149.8061330375,150.179743775,56.0,104.0
657,149.8061330375,150.1839104375,53.0,100.0
658,149.8061330375,150.2533548125,60.0,101.0
659,148.4728010375,150.563076725,41.0,98.0
660,150.1394660375,150.5811322625,48.0,102.0
661,150.4727990375,150.7283543375,53.0,116.0
662,150.8061320375,150.924187475,41.0,100.0
663,151.1394650375,151.86633857916667,60.0,96.0
664,151.80411520416666,152.26180269583332,63.0,91.0
665,151.1394650375,152.26871640416667,56.0,95.0
666,152.13597320416667,152.27009914583334,60.0,85.0
667,151.47225720416665,152.62546375416667,51.0,90.0
668,152.46783120416666,152.9476425625,56.0,98.0
669,152.46783120416666,152.9849765875,60.0,106.0
670,152.46783120416666,152.9932730375,63.0,109.0
671,152.46783120416666,153.01124867916667,68.0,97.0
672,152.79968920416667,153.26152492083332,51.0,85.0
673,153.13154720416665,153.30300717083333,56.0,95.0
674,153.13154720416665,153.30992087916667,60.0,98.0
675,151.1394650375,153.31545184583334,44.0,100.0
676,153.13154720416665,153.3417239375,63.0,97.0
677,153.79526320416667,154.1340349125,58.0,90.0
678,153.79526320416667,154.51843709583332,63.0,93.0
679,154.45897920416667,154.9221976625,58.0,97.0
680,154.79083720416668,154.96644539583332,63.0,97.0
681,154.12712120416666,155.27064856249999,51.0,85.0
682,155.12269520416666,155.51815932083332,58.0,99.0
683,153.79526320416667,155.69238477083334,43.0,98.0
684,155.12269520416666,155.77811475416667,63.0,102.0
685,155.12269520416666,155.81130055416668,67.0,109.0
686,155.45455320416667,155.86246199583334,51.0,84.0
687,155.78641120416665,155.9260681125,58.0,96.0
688,156.45012720416668,156.8594187375,60.0,95.0
689,156.45012720416668,157.19404222083332,68.0,91.0
690,157.11384320416667,157.55078957083333,60.0,95.0
691,157.44570120416665,157.57567892083333,65.0,95.0
692,156.78198520416666,157.99188416249999,48.0,81.0
693,157.77755920416666,158.1744060625,60.0,98.0
694,157.77755920416666,158.31821119583333,68.0,96.0
695,158.10941720416668,158.62103162083332,48.0,73.0
696,158.44127520416666,158.65283467916666,60.0,100.0
697,156.45012720416668,158.75377482083334,41.0,97.0
698,158.44127520416666,158.84227028749999,65.0,100.0
699,158.44127520416666,158.8961972125,68.0,93.0
700,158.77313320416667,158.97777897083333,60.0,95.0
701,159.10499120416665,159.5267274125,60.0,91.0
702,159.43684920416666,159.83507880416667,55.0,91.0
703,159.10499120416665,159.8544371875,63.0,89.0
704,159.76870720416667,160.26787694583334,60.0,96.0
705,160.10056520416666,160.50709125416665,55.0,95.0
706,160.43242320416667,160.89425892083332,60.0,98.0
707,160.43242320416667,160.90117262916667,63.0,100.0
708,160.43242320416667,161.0283848625,67.0,99.0
709,160.76428120416665,161.08784275416667,55.0,97.0
710,159.10499120416665,161.17633822083334,48.0,99.0
711,161.09613920416666,161.38789769583332,63.0,97.0
712,161.42799720416667,161.48607235416665,60.0,87.0
713,161.75985520416666,162.13457819583334,56.0,96.0
714,161.75985520416666,162.5010047375,65.0,97.0
715,162.42357120416668,162.8328627375,56.0,95.0
716,162.75542920416666,162.88402417916666,61.0,94.0
717,162.09171320416667,163.20067202083334,53.0,91.0
718,161.75985520416666,163.21173395416668,49.0,102.0
719,163.08728720416667,163.50625792916668,61.0,102.0
720,163.08728720416667,163.52008534583334,56.0,101.0
721,163.08728720416667,163.57262952916668,65.0,106.0
722,163.41914520416665,163.86023979583334,53.0,89.0
723,163.75100320416666,163.91278397916668,56.0,102.0
724,163.75100320416666,164.05105814583334,61.0,100.0
725,164.08286120416668,164.1602947375,56.0,91.0
726,164.41471920416666,165.11300374583334,56.0,95.0
727,164.41471920416666,165.1309793875,53.0,96.0
728,165.41029320416666,165.53473995416667,56.0,95.0
729,165.07843520416665,165.5375054375,60.0,94.0
730,164.74657720416667,165.84585682916668,48.0,82.0
731,165.74215120416667,165.89287004583332,61.0,92.0
732,165.74215120416667,166.15697370416666,53.0,97.0
733,165.74215120416667,166.1887767625,56.0,109.0
734,165.74215120416667,166.2344072375,60.0,93.0
735,165.74215120416667,166.3173717375,65.0,97.0
736,166.40586720416667,166.46532509583332,65.0,70.0
737,164.41471920416666,166.4708560625,41.0,101.0
738,166.07400920416666,166.5911545875,48.0,91.0
739,166.73772520416668,166.96172935416666,44.0,99.0
740,166.40586720416667,167.0930898125,56.0,92.0
741,166.40586720416667,167.13180657916666,60.0,94.0
742,167.06958320416666,167.19126447083335,65.0,38.0
743,167.73329920416666,168.21864152916666,58.0,100.0
744,168.06515720416667,168.24767910416665,61.0,93.0
745,167.40144120416667,168.5200792125,53.0,88.0
746,168.39701520416668,168.85608543749998,61.0,97.0
747,168.39701520416668,168.8685301125,58.0,95.0
748,168.39701520416668,168.87129559583332,65.0,99.0
749,168.72887320416666,169.06626217083334,53.0,83.0
750,169.06073120416667,169.13954747916665,58.0,90.0
751,167.06958320416666,169.1464611875,46.0,98.0
752,169.06073120416667,169.35663792083332,61.0,99.0
753,169.06073120416667,169.3912064625,70.0,95.0
754,169.06073120416667,169.4036511375,65.0,99.0
755,169.39258920416665,169.44375064583335,58.0,72.0
756,169.72444720416667,169.9553650625,58.0,97.0
757,169.72444720416667,170.22361694583333,63.0,99.0
758,170.05630520416668,170.5693023625,46.0,88.0
759,170.38816320416666,170.88595020416668,67.0,91.0
760,170.72002120416667,170.94125987083333,58.0,98.0
761,170.38816320416666,170.9426426125,63.0,97.0
762,171.05187920416665,171.3450204375,58.0,99.0
763,171.05187920416665,171.4196884875,63.0,101.0
764,171.05187920416665,171.43075042083333,67.0,102.0
765,171.38373720416666,171.62986522083332,68.0,104.0
766,169.72444720416667,172.0543669125,39.0,100.0
767,171.71559520416668,172.06957707083333,46.0,96.0
768,172.04745320416666,172.30879137916668,63.0,94.0
769,171.71559520416668,172.3281497625,70.0,98.0
770,172.37931120416667,173.1071382875,60.0,96.0
771,173.044707725,173.50391919583333,63.0,91.0
772,172.37931120416667,173.510855925,56.0,95.0
773,173.377670725,173.51224327083332,60.0,85.0
774,172.711744725,173.86879115,51.0,90.0
775,173.710633725,174.19204272916667,56.0,98.0
776,173.710633725,174.22950106666667,60.0,106.0
777,173.710633725,174.23782514166666,63.0,109.0
778,173.710633725,174.2558606375,68.0,97.0
779,174.043596725,174.50697023333333,51.0,85.0
780,174.376559725,174.54859060833334,56.0,95.0
781,174.376559725,174.5555273375,60.0,98.0
782,172.37931120416667,174.56107672083334,44.0,100.0
783,174.376559725,174.58743629166668,63.0,97.0
784,175.042485725,175.38238545416667,58.0,90.0
785,175.042485725,175.76806759583334,63.0,93.0
786,175.708411725,176.17317257916667,58.0,97.0
787,176.041374725,176.21756764583333,63.0,97.0
788,175.375448725,176.52278372916666,51.0,85.0
789,176.374337725,176.77111863333334,58.0,99.0
790,175.042485725,176.94592420833334,43.0,98.0
791,176.374337725,177.03193965,63.0,102.0
792,176.374337725,177.06523595,67.0,109.0
793,176.707300725,177.11656774583332,51.0,84.0
794,177.040263725,177.18038565416666,58.0,96.0
795,177.706189725,178.11684409166668,60.0,95.0
796,177.706189725,178.45258178333333,68.0,91.0
797,178.372115725,178.81051700833333,60.0,95.0
798,178.705078725,178.83548923333333,65.0,95.0
799,178.039152725,179.25308032916666,48.0,81.0
800,179.038041725,179.43620997916668,60.0,98.0
801,179.038041725,179.58049394583333,68.0,96.0
802,179.371004725,179.88432268333332,48.0,73.0
803,179.70396772499998,179.9162316375,60.0,100.0
804,177.706189725,180.01750788333334,41.0,97.0
805,179.70396772499998,180.10629801666667,65.0,100.0
806,179.70396772499998,180.16040450416668,68.0,93.0
807,180.036930725,180.24225790833333,60.0,95.0
808,180.369893725,180.79303420416667,60.0,91.0
809,180.702856725,181.102412325,55.0,91.0
810,180.369893725,181.12183516666667,63.0,89.0
811,181.035819725,181.53665157083333,60.0,96.0
812,181.368782725,181.7766624,55.0,95.0
813,181.701745725,182.16511923333334,60.0,98.0
814,181.701745725,182.1720559625,63.0,100.0
815,181.701745725,182.29969177916666,67.0,99.0
816,182.034708725,182.35934765,55.0,97.0
817,180.369893725,182.44813778333332,48.0,99.0
818,182.367671725,182.66040169583334,63.0,97.0
819,182.700634725,182.75890325,60.0,87.0
820,183.033597725,183.40956844583334,56.0,96.0
821,183.033597725,183.77721509166668,65.0,97.0
822,183.699523725,184.11017809166665,56.0,95.0
823,184.032486725,184.1615098875,61.0,94.0
824,183.366560725,184.47921208333332,53.0,91.0
825,183.033597725,184.49031085,49.0,102.0
826,184.365449725,184.7858155125,61.0,102.0
827,184.365449725,184.79968897083333,56.0,101.0
828,184.365449725,184.8524081125,65.0,106.0
829,184.698412725,185.14097604583333,53.0,89.0
830,185.031375725,185.1936951875,56.0,102.0
831,185.031375725,185.33242977083333,61.0,100.0
832,185.364338725,185.44203009166665,56.0,91.0
833,185.697301725,186.39791137083333,56.0,95.0
834,185.697301725,186.41594686666667,53.0,96.0
835,186.696190725,186.82105185,56.0,95.0
836,186.363227725,186.82382654166668,60.0,94.0
837,186.030264725,187.1332046625,48.0,82.0
838,187.029153725,187.18037442083335,61.0,92.0
839,187.029153725,187.445357475,53.0,97.0
840,187.029153725,187.47726642916666,56.0,109.0
841,187.029153725,187.52304884166668,60.0,93.0
842,187.029153725,187.60628959166667,65.0,97.0
843,187.695079725,187.75473559583332,65.0,70.0
844,185.697301725,187.76028497916667,41.0,101.0
845,187.362116725,187.88098406666666,48.0,91.0
846,188.028042725,188.25279275,44.0,99.0
847,187.695079725,188.38459060416668,56.0,92.0
848,187.695079725,188.4234362875,60.0,94.0
849,188.361005725,188.7813715125,58.0,89.0
850,188.361005725,188.91733140416667,61.0,92.0
851,188.361005725,189.08381290416668,65.0,96.0
852,188.361005725,189.39457837083333,46.0,96.0
853,189.026931725,189.44452282083333,58.0,100.0
854,188.693968725,189.58741944166667,53.0,91.0
855,189.359894725,189.63042716249998,61.0,102.0
856,189.692857725,189.96200281666665,63.0,97.0
857,189.692857725,190.21449975833332,60.0,96.0
858,190.025820725,190.3546216875,55.0,96.0
859,189.692857725,190.41150286666667,48.0,98.0
860,190.358783725,190.62099208749999,60.0,95.0
861,190.358783725,190.63486554583332,63.0,95.0
862,190.358783725,190.66399980833333,67.0,95.0
863,190.691746725,190.83603069166668,60.0,71.0
864,191.024709725,191.41376910416668,60.0,95.0
865,191.024709725,191.59194578541667,65.0,98.0
866,191.68863080625,192.1485752625,60.0,97.0
867,192.02012230625,192.17205591041667,65.0,97.0
868,191.35713930625,192.46487340208333,48.0,90.0
869,192.35161380625,192.79360247291666,60.0,100.0
870,192.35161380625,192.87509413333333,65.0,112.0
871,191.024709725,193.02564652291667,41.0,98.0
872,192.68310530625,193.05327081458333,48.0,99.0
873,192.35161380625,193.06708296041666,68.0,100.0
874,193.01459680625,193.19001105833334,60.0,106.0
875,193.67757980625,193.70934774166668,41.0,96.0
876,193.67757980625,194.3773429875,54.0,91.0
877,193.67757980625,194.41086253749998,61.0,94.0
878,194.34522008541666,194.6860021770833,57.0,101.0
879,194.68041558541665,194.9290189145833,54.0,86.0
880,194.01002458541666,195.1259462708333,49.0,94.0
881,195.01561108541665,195.48456177916665,54.0,93.0
882,195.01561108541665,195.51246352916667,57.0,100.0
883,195.01561108541665,195.53059966666666,61.0,101.0
884,195.01561108541665,195.60314421666666,66.0,97.0
885,195.68545437916666,195.74823331666664,66.0,76.0
886,193.67757980625,195.86263049166666,42.0,95.0
887,195.35063337916665,195.86681575416665,49.0,89.0
888,195.68545437916666,196.01190485416666,61.0,96.0
889,195.68545437916666,196.02446064166665,57.0,96.0
890,196.02027537916666,196.32998480416666,54.0,95.0
891,196.35509637916667,197.08751731666666,61.0,96.0
892,197.02473837916665,197.48651234166667,64.0,91.0
893,196.35509637916667,197.49348777916666,57.0,95.0
894,197.35955937916665,197.49488286666664,61.0,85.0
895,196.68991737916664,197.85342035416664,52.0,90.0
896,197.69438037916666,198.17847574166666,57.0,98.0
897,197.69438037916666,198.21614310416666,61.0,106.0
898,197.69438037916666,198.22451362916667,64.0,109.0
899,197.69438037916666,198.24264976666666,69.0,97.0
900,198.02920137916666,198.49516060416664,52.0,85.0
901,198.36402237916664,198.53701322916666,57.0,95.0
902,198.36402237916664,198.54398866666665,61.0,98.0
903,196.35509637916667,198.54956901666665,45.0,100.0
904,198.36402237916664,198.57607567916665,64.0,97.0
905,199.03366437916665,199.37546081666665,59.0,90.0
906,199.03366437916665,199.76329514166665,64.0,93.0
907,199.70330637916666,200.17066069166665,59.0,97.0
908,200.03812737916667,200.21530349166665,64.0,97.0
909,199.36848537916666,200.52222274166667,52.0,85.0
910,200.37294837916664,200.77194340416665,59.0,99.0
911,199.03366437916665,200.94772442916664,44.0,98.0
912,200.37294837916664,201.03421985416665,64.0,102.0
913,200.37294837916664,201.06770195416667,68.0,109.0
914,200.70776937916665,201.11932019166665,52.0,84.0
915,201.04259037916665,201.18349421666665,59.0,96.0
916,201.71223237916666,202.12517827916665,61.0,95.0
917,201.71223237916666,202.46278945416665,69.0,91.0
918,202.38187437916665,202.82272202916664,61.0,95.0
919,202.71669537916665,202.84783360416665,66.0,95.0
920,202.04705337916664,203.26775494166665,49.0,81.0
921,203.05151637916666,203.45190649166665,61.0,98.0
922,203.05151637916666,203.59699559166665,69.0,96.0
923,203.38633737916666,203.90251975416666,49.0,73.0
924,203.72115837916667,203.93460676666666,61.0,100.0
925,201.71223237916666,204.03644815416666,42.0,97.0
926,203.72115837916667,204.12573375416665,66.0,100.0
927,203.72115837916667,204.18014216666666,69.0,93.0
928,204.05597937916664,204.26245232916665,61.0,95.0
929,204.39080037916665,204.81630206666665,61.0,91.0
930,204.72562137916665,205.12740657916666,56.0,91.0
931,204.39080037916665,205.14693780416667,64.0,89.0
932,205.06044237916666,205.56406896666667,61.0,96.0
933,205.39526337916666,205.80541910416665,56.0,95.0
934,205.73008437916664,206.19604360416665,61.0,98.0
935,205.73008437916664,206.20301904166666,64.0,100.0
936,205.73008437916664,206.33136709166666,68.0,99.0
937,206.06490537916665,206.39135585416665,56.0,97.0
938,204.39080037916665,206.48064145416666,49.0,99.0
939,206.39972637916665,206.69408984166665,64.0,97.0
940,206.73454737916666,206.79314105416665,61.0,87.0
941,207.06936837916666,207.44743709166664,57.0,96.0
942,207.06936837916666,207.81692080416664,66.0,97.0
943,207.7388829375,208.15136880416665,57.0,95.0
944,208.07333093749997,208.20292953749998,62.0,94.0
945,207.40418937916667,208.52204867083333,54.0,91.0
946,207.06936837916666,208.53319693749998,50.0,102.0
947,208.40777893749998,208.82967574583333,62.0,102.0
948,208.40777893749998,208.84356462083332,57.0,101.0
949,208.40777893749998,208.89634234583332,66.0,106.0
950,208.74217583333333,209.18523094583333,54.0,89.0
951,209.07550883333332,209.23800867083332,57.0,102.0
952,209.07550883333332,209.37689742083333,62.0,100.0
953,209.40884183333333,209.48661953333334,57.0,91.0
954,209.74217483333334,210.44356302083332,57.0,95.0
955,209.74217483333334,210.46161855833333,54.0,96.0
956,210.74217383333334,210.86717370833333,57.0,95.0
957,210.40884083333333,210.86995148333332,61.0,94.0
958,210.07550783333332,211.17967339583333,49.0,82.0
959,211.07550683333332,211.22689557083334,62.0,92.0
960,211.07550683333332,211.49217308333334,54.0,97.0
961,211.07550683333332,211.52411749583334,57.0,109.0
962,211.07550683333332,211.56995078333333,61.0,93.0
963,211.07550683333332,211.65328403333334,66.0,97.0
964,211.74217283333334,211.80189499583332,66.0,70.0
965,209.74217483333334,211.80745054583332,42.0,101.0
966,211.40883983333333,211.92828375833332,49.0,91.0
967,212.07550583333332,212.30050560833334,45.0,99.0
968,211.74217283333334,212.43244992083333,57.0,92.0
969,211.74217283333334,212.47133877083334,61.0,94.0
970,212.40883883333333,212.53106093333332,66.0,38.0
971,213.07550483333333,213.56300434583332,59.0,100.0
972,213.40883783333334,213.59217098333332,62.0,93.0
973,212.74217183333332,213.86578182083332,54.0,88.0
974,213.74217083333332,214.20328148333334,62.0,97.0
975,213.74217083333332,214.21578147083332,59.0,95.0
976,213.74217083333332,214.21855924583332,66.0,99.0
977,214.07550383333333,214.41439238333334,54.0,83.0
978,214.40883683333334,214.48800342083334,59.0,90.0
979,212.40883883333333,214.49494785833332,47.0,98.0
980,214.40883683333334,214.70605875833334,62.0,99.0
981,214.40883683333334,214.74078094583334,71.0,95.0
982,214.40883683333334,214.75328093333331,66.0,99.0
983,214.74216983333332,214.79355867083333,59.0,72.0
984,215.07550283333333,215.3074300875,59.0,97.0
985,215.07550283333333,215.57657517916667,64.0,99.0
986,215.40870633333333,215.92283700208333,47.0,88.0
987,215.74149725,216.2398355,68.0,91.0
988,216.07372275,216.29520641666667,59.0,98.0
989,215.74149725,216.29659068958333,64.0,97.0
990,216.40594825,216.69941410833334,59.0,99.0
991,216.40594825,216.77416484583333,64.0,101.0
992,216.40594825,216.78523902916666,68.0,102.0
993,216.73817375,216.98457432916666,69.0,104.0
994,215.07550283333333,217.40954611458332,40.0,100.0
995,217.07039925,217.42477311666667,47.0,96.0
996,217.40262475,217.66425233125,64.0,94.0
997,217.07039925,217.68363215208333,71.0,98.0
998,217.73485025,218.46159353125,61.0,96.0
999,218.39930125,218.85749558541667,64.0,91.0
1000,217.73485025,218.86441695,57.0,95.0
1001,218.73152675,218.86580122291667,61.0,85.0
1002,218.06707575,219.2215593625,52.0,90.0
1003,219.06375225,219.54409495208333,57.0,98.0
1004,219.06375225,219.58147032083332,61.0,106.0
1005,219.06375225,219.58977595833332,64.0,109.0
1006,219.06375225,219.60777150625,69.0,97.0
1007,219.39597775,219.85832490416666,52.0,85.0
1008,219.72820325,219.89985309166667,57.0,95.0
1009,219.72820325,219.90677445625,61.0,98.0
1010,217.73485025,219.91231154791666,45.0,100.0
1011,219.72820325,219.93861273333334,64.0,97.0
1012,220.39265425,220.73180111458333,59.0,90.0
1013,220.39265425,221.11662898541667,64.0,93.0
1014,221.05710525,221.52083667708334,59.0,97.0
1015,221.38933075,221.56513341041665,64.0,97.0
1016,220.72487974999999,221.86967345208333,52.0,85.0
1017,221.72155625,222.11745830416666,59.0,99.0
1018,220.39265425,222.29187669166666,44.0,98.0
1019,221.72155625,222.3777016125,64.0,102.0
1020,221.72155625,222.4109241625,68.0,109.0
1021,222.05378174999998,222.46214226041667,52.0,84.0
1022,222.38600725,222.52581881458332,59.0,96.0
1023,223.05045825,223.46020303333333,61.0,95.0
1024,223.05045825,223.79519707916666,69.0,91.0
1025,223.71490925,224.15233949166665,61.0,95.0
1026,224.04713475,224.17725640416666,66.0,95.0
1027,223.38268374999998,224.59392255208334,49.0,81.0
1028,224.37936025,224.77664657708334,61.0,98.0
1029,224.37936025,224.92061096041667,69.0,96.0
1030,224.71158574999998,225.22376672916667,49.0,73.0
1031,225.04381125,225.25560500625,61.0,100.0
1032,223.05045825,225.35665692916666,42.0,97.0
1033,225.04381125,225.44525039583334,66.0,100.0
1034,225.04381125,225.49923703958333,69.0,93.0
1035,225.37603675,225.58090914166667,61.0,95.0
1036,225.70826225,226.13046548958334,61.0,91.0
1037,226.04048775,226.43915834999999,56.0,91.0
1038,225.70826225,226.45853817083332,64.0,89.0
1039,226.37271325,226.87243577291667,61.0,96.0
1040,226.70493875,227.1119149875,56.0,95.0
1041,227.03716425,227.49951140416667,61.0,98.0
1042,227.03716425,227.50643276875,64.0,100.0
1043,227.03716425,227.63378587708334,68.0,99.0
1044,227.36938974999998,227.6933096125,56.0,97.0
1045,225.70826225,227.78190307916665,49.0,99.0
1046,227.70161525,227.99369683541667,64.0,97.0
1047,228.03384075,228.0919802125,61.0,87.0
1048,228.36606625,228.74120421041667,57.0,96.0
1049,228.36606625,229.10803653333332,66.0,97.0
1050,229.03051725,229.44026203333334,57.0,95.0
1051,229.36274275,229.49148013125,62.0,94.0
1052,228.69829175,229.80847862916667,54.0,91.0
1053,228.36606625,229.8195528125,50.0,102.0
1054,229.69496825,230.11440294375,62.0,102.0
1055,229.69496825,230.12824567291665,57.0,101.0
1056,229.69496825,230.18084804375,66.0,106.0
1057,230.02719375,230.46877681041667,54.0,89.0
1058,230.35941925,230.52137918124998,57.0,102.0
1059,230.35941925,230.65980647291667,62.0,100.0
1060,230.69164475,230.76916403333334,57.0,91.0
1061,231.02387025,231.72292807291666,57.0,95.0
1062,231.02387025,231.7409236208333,54.0,96.0
1063,232.02054675,232.14513131249998,57.0,95.0
1064,231.68832125,232.14789985833332,61.0,94.0
1065,231.35609575,232.45659271875,49.0,82.0
1066,232.35277225,232.50365799791666,62.0,92.0
1067,232.35277225,232.768054125,54.0,97.0
1068,232.35277225,232.79989240208334,57.0,109.0
1069,232.35277225,232.84557340833334,61.0,93.0
1070,232.35277225,232.92862978333332,66.0,97.0
1071,233.01722325,233.07674698541666,66.0,70.0
1072,231.02387025,233.08228407708333,42.0,101.0
1073,232.68499775,233.20271582083333,49.0,91.0
1074,233.34944875,233.5737009625,45.0,99.0
1075,233.01722325,233.70520688958334,57.0,92.0
1076,233.01722325,233.74396653125,61.0,94.0
1077,233.68167425,234.10110894375,59.0,89.0
1078,233.68167425,234.23676768958333,62.0,92.0
1079,233.68167425,234.40288043958333,66.0,96.0
1080,233.68167425,234.71295757291665,47.0,96.0
1081,234.34612525,234.76279139791666,59.0,100.0
1082,234.01389975,234.90537150833333,54.0,91.0
1083,234.67835075,234.94828396875,62.0,102.0
1084,235.01057624999999,235.27912519583333,64.0,97.0
1085,235.01057624999999,235.53106286666667,61.0,96.0
1086,235.34280175,235.67087443124998,56.0,96.0
1087,235.01057624999999,235.72762962083334,49.0,98.0
1088,235.67502725,235.93665483125,61.0,95.0
1089,235.67502725,235.95049756041666,64.0,95.0
1090,235.67502725,235.97956729166665,68.0,95.0
1091,236.00725275,236.15121713333332,61.0,71.0
1092,236.33947824999998,236.72845893958333,61.0,95.0
1093,236.33947824999998,236.90703014583332,66.0,98.0
1094,237.00392925,237.46489213125,61.0,97.0
1095,237.33615475,237.48842477083332,66.0,97.0
1096,236.67170375,237.78189062916667,49.0,90.0
1097,237.66838024999998,238.11134758333333,61.0,100.0
1098,237.66838024999998,238.19301968541666,66.0,112.0
1099,236.33947824999998,238.34390543333333,42.0,98.0
1100,238.00060575,238.37159089166667,49.0,99.0
1101,237.66838024999998,238.38543362083334,69.0,100.0
1102,238.33283125,238.50863391041668,61.0,106.0
1103,238.99728225,239.37242021041666,57.0,96.0
1104,238.99728225,239.73925253333334,66.0,97.0
1105,239.66173325,240.07147803333334,57.0,95.0
1106,239.99395875,240.12269613125,62.0,94.0
1107,239.32950775,240.43969462916667,54.0,91.0
1108,238.99728225,240.4507688125,50.0,102.0
1109,240.32618424999998,240.74561894375,62.0,102.0
1110,240.32618424999998,240.75946167291667,57.0,101.0
1111,240.32618424999998,240.81206404374998,66.0,106.0
1112,240.65840975,241.09999281041667,54.0,89.0
1113,240.99063525,241.15259518125,57.0,102.0
1114,240.99063525,241.29102247291667,62.0,100.0
1115,241.32286075,241.40038003333333,57.0,91.0
1116,241.65508625,242.35414407291665,57.0,95.0
1117,241.65508625,242.37213962083334,54.0,96.0
1118,242.65176275,242.7763473125,57.0,95.0
1119,242.31953725,242.77911585833334,61.0,94.0
1120,241.98731175,243.08780871875,49.0,82.0
1121,242.98398824999998,243.13487399791666,62.0,92.0
1122,242.98398824999998,243.399270125,54.0,97.0
1123,242.98398824999998,243.43110840208334,57.0,109.0
1124,242.98398824999998,243.47678940833333,61.0,93.0
1125,242.98398824999998,243.55984578333334,66.0,97.0
1126,243.64843925,243.70796298541666,66.0,70.0
1127,241.65508625,243.71350007708332,42.0,101.0
1128,243.31621375,243.83393182083333,49.0,91.0
1129,243.98066475,244.2049169625,45.0,99.0
1130,243.64843925,244.33642288958333,57.0,92.0
1131,243.64843925,244.37518253125,61.0,94.0
1132,244.31289025,244.73232494375,59.0,89.0
1133,244.31289025,244.86798368958333,62.0,92.0
1134,244.31289025,245.03409643958332,66.0,96.0
1135,244.31289025,245.34417357291667,47.0,96.0
1136,244.97734125,245.39400739791665,59.0,100.0
1137,244.64511575,245.53658750833333,54.0,91.0
1138,245.30956675,245.57949996874999,62.0,102.0
1139,245.64179224999998,245.91034119583333,64.0,97.0
1140,245.64179224999998,246.16227886666667,61.0,96.0
1141,245.97401775,246.30209043125,56.0,96.0
1142,245.64179224999998,246.35884562083334,49.0,98.0
1143,246.30624325,246.56787083125,61.0,95.0
1144,246.30624325,246.58171356041666,64.0,95.0
1145,246.30624325,246.61078329166668,68.0,95.0
1146,246.63846875,246.7824331333333,61.0,71.0
1147,246.97069425,247.35967493958333,61.0,95.0
1148,246.97069425,247.53824614583334,66.0,98.0
1149,247.63514525,248.09610813125,61.0,97.0
1150,247.96737075,248.1196407708333,66.0,97.0
1151,247.30291975,248.41310662916666,49.0,90.0
1152,248.29959624999998,248.74256358333332,61.0,100.0
1153,248.29959624999998,248.82423568541665,66.0,112.0
1154,246.97069425,248.97512143333333,42.0,98.0
1155,248.63182175,249.00280689166667,49.0,99.0
1156,248.29959624999998,249.01664962083333,69.0,100.0
1157,248.96404725,249.13984991041667,61.0,106.0
1158,249.63265106875,249.75861990416666,38.0,100.0
1159,249.62849825,250.34970443958332,62.0,93.0
1160,249.62296115833334,250.47013618333332,66.0,88.0
1161,249.96072375,250.55872965,50.0,95.0
1162,250.34555162083333,250.58503083541666,57.0,101.0
1163,249.6312667958333,250.59472074583334,69.0,93.0
1164,250.6833142125,250.76221776875,62.0,90.0
1165,251.05153080833333,251.53325778333334,61.0,85.0
1166,251.06122071875,251.78934827291667,49.0,109.0
1167,251.0653735375,251.81703373124998,64.0,95.0
1168,251.41974740416666,251.837797825,56.0,91.0
1169,251.0639892645833,251.85717764583333,68.0,93.0
1170,252.09804113333334,252.18525032708334,64.0,99.0
1171,251.77412127083332,252.19632451041667,61.0,101.0
1172,253.04349953541666,253.48646686875,59.0,98.0
1173,253.39787340208332,253.56813897083333,62.0,96.0
1174,253.764705725,253.92112856458334,59.0,78.0
1175,252.74034376666665,253.96265675208332,54.0,82.0
1176,253.74255735833333,254.49006473333333,62.0,90.0
1177,254.096931225,254.70739558125,54.0,82.0
1178,252.41642390416666,254.95518043333334,47.0,99.0
1179,253.75363154166666,255.19465964791667,66.0,88.0
1180,254.43330954375,255.20019673958333,59.0,95.0
1181,254.84028578125,255.27356320416666,62.0,90.0
1182,255.54903351458333,255.92001865625,56.0,81.0
1183,255.20434955833332,255.96985248125,49.0,95.0
1184,255.90894447291666,256.47649636875,61.0,91.0
1185,256.6384563,257.20877674166667,37.0,85.0
1186,256.64122484583334,257.80401409583334,68.0,88.0
1187,256.26193406666664,257.84969510208333,64.0,88.0
1188,256.56508983541664,257.8759962875,61.0,60.0
1189,256.7658094083333,257.90645029166666,73.0,91.0
1190,258.7577781354167,258.9778775291667,54.0,82.0
1191,258.9418864333333,259.10799918333333,56.0,80.0
1192,259.1564487354167,259.51359114791666,57.0,83.0
1193,259.38346949375,259.67139826041665,61.0,83.0
1194,259.63817571041665,259.7849086395833,66.0,84.0
1195,259.95794275416665,260.1503566895833,68.0,94.0
1196,260.30677952916665,260.75528395416666,69.0,89.0
1197,260.65700057708335,260.80096496041665,73.0,95.0
1198,260.9684619833333,261.11104209375,69.0,85.0
1199,261.06812963333334,261.16779728333336,73.0,84.0
1200,261.1982512875,261.28822902708333,80.0,98.0
1201,261.6993580833333,261.78933582291666,78.0,91.0
1202,262.34027644375,262.40810581666665,85.0,85.0
1203,258.26220843125,263.5002971479167,42.0,101.0
1204,258.54460010625,263.50168142083334,49.0,83.0
