,start,end,pitch,velocity
0,0.13461510416666667,1.0153825,71.0,80.0
1,1.0576901041666666,1.97884203125,66.0,93.0
2,1.9807651041666667,3.7365306770833335,73.0,95.0
3,3.826915104166667,4.8057592187500004,71.0,88.0
4,4.749990104166667,5.674988177083334,69.0,91.0
5,5.673065104166667,7.057677604166667,66.0,98.0
6,7.057677604166667,7.515368958333333,78.0,95.0
7,7.519215104166666,8.951904427083333,86.0,91.0
8,8.903827604166667,9.1269040625,88.0,101.0
9,7.492292083333333,9.251903802083334,74.0,85.0
10,9.134596354166666,9.3807496875,86.0,93.0
11,9.365365104166667,10.6038240625,85.0,101.0
12,9.321134427083333,10.95574640625,73.0,75.0
13,10.730746875,11.211515104166667,81.0,95.0
14,11.1692075,11.87882140625,83.0,98.0
15,11.888436770833334,12.030744166666667,85.0,73.0
16,11.992282708333333,12.123051666666667,83.0,89.0
17,11.18651515625,12.13266703125,71.0,84.0
18,12.14420546875,12.62881984375,81.0,93.0
19,12.096128645833334,12.986511406250001,69.0,84.0
20,12.59997375,13.051895885416666,78.0,98.0
21,13.053818958333334,16.484581041666665,71.0,84.0
22,13.063434322916667,16.55188859375,83.0,98.0
23,31.463395989583333,33.31723828125,78.0,84.0
24,33.299930625,34.72877380208333,73.0,73.0
25,34.7191584375,35.196080520833334,69.0,72.0
26,35.17877286458334,36.584539166666666,71.0,78.0
27,37.46915270833333,37.99222854166667,69.0,69.0
28,37.913382552083334,38.71530395833334,74.0,85.0
29,38.88261130208333,40.430685,76.0,78.0
30,38.88838052083334,40.492223333333335,71.0,75.0
31,41.64799015625,42.119143020833334,74.0,88.0
32,42.094143072916665,42.58068052083333,71.0,77.0
33,42.565295937500004,43.38067885416667,74.0,82.0
34,43.47875557291667,43.98260067708333,73.0,77.0
35,43.93644692708333,44.17106182291667,74.0,86.0
36,44.14990802083334,44.426830520833335,73.0,68.0
37,44.39606135416667,46.0268271875,71.0,84.0
38,46.2460575,46.74028723958333,83.0,89.0
39,46.71336421875,47.18644015625,86.0,84.0
40,47.16528635416667,47.59413161458333,85.0,93.0
41,47.63067,48.00374614583333,88.0,91.0
42,48.13451510416667,49.824896197916665,71.0,80.0
43,48.1037459375,49.84412692708333,90.0,88.0
44,49.98066510416667,50.940278489583335,73.0,80.0
45,50.903740104166666,51.49027734375,69.0,80.0
46,51.82681510416667,52.67489026041667,67.0,76.0
47,51.82681510416667,52.70181328125,71.0,82.0
48,53.672965104166664,55.246038750000004,69.0,73.0
49,53.672965104166664,55.32488473958333,74.0,82.0
50,55.519115104166666,57.26141916666667,76.0,83.0
51,57.36526510416667,58.807569791666666,71.0,72.0
52,57.36526510416667,58.81333901041667,74.0,83.0
53,58.74987760416667,59.238338125,78.0,82.0
54,59.21141510416667,60.62871984375,74.0,86.0
55,60.596027604166665,60.96141145833333,76.0,83.0
56,61.05756510416667,61.93640942708333,78.0,88.0
57,61.98064010416667,62.49602364583333,71.0,91.0
58,62.442177604166666,62.8267921875,73.0,89.0
59,62.903715104166665,64.63063458333333,71.0,80.0
60,62.903715104166665,64.73640359375,74.0,90.0
61,64.74986510416667,65.98447791666666,69.0,72.0
62,64.74986510416667,66.48639994791667,73.0,84.0
63,66.59601510416667,67.54985927083334,71.0,84.0
64,67.51909010416666,68.48254963541666,69.0,78.0
65,69.36524010416667,69.807546875,78.0,91.0
66,68.44216510416666,69.83639296875,74.0,85.0
67,69.82677760416667,70.31331505208334,81.0,89.0
68,70.28831510416667,71.67292760416667,83.0,89.0
69,71.67292760416667,72.13831125,85.0,85.0
70,72.13446510416667,73.98061510416667,86.0,87.0
71,73.98061510416667,74.53446010416667,74.0,83.0
72,74.44215260416667,74.93253619791666,78.0,80.0
73,74.90369010416667,75.38638140625,73.0,72.0
74,75.36522760416666,75.82484203125,74.0,83.0
75,75.82676510416667,76.74984010416667,71.0,79.0
76,77.21137760416667,77.72676114583334,66.0,89.0
77,77.67291510416666,79.09983520833333,74.0,91.0
78,79.05752760416667,79.56329578125,76.0,100.0
79,79.51906510416667,81.345984375,73.0,91.0
80,81.36521510416667,82.34021307291667,71.0,85.0
81,82.28829010416666,83.29790338541666,69.0,87.0
82,83.21136510416667,83.65174880208333,74.0,88.0
83,83.67290260416667,84.16905541666667,76.0,89.0
84,84.13444010416667,84.5882853125,78.0,86.0
85,83.21136510416667,84.59020838541667,66.0,89.0
86,84.59597760416666,85.08059197916667,81.0,85.0
87,85.05751510416667,86.49020442708333,86.0,91.0
88,86.44212760416667,86.6652040625,88.0,101.0
89,85.03059208333333,86.79020380208334,74.0,85.0
90,86.67289635416667,86.9190496875,86.0,93.0
91,86.90366510416666,88.1421240625,85.0,81.0
92,86.90366510416666,88.1421240625,85.0,101.0
93,86.85943442708333,88.49404640625,73.0,75.0
94,88.269046875,88.74981510416667,81.0,95.0
95,88.7075075,89.41712140625,83.0,98.0
96,89.42673677083333,89.56904416666667,85.0,73.0
97,89.53058270833333,89.66135166666666,83.0,89.0
98,88.72481515625,89.67096703125,71.0,84.0
99,89.68250546875,90.16711984375,81.0,93.0
100,89.63442864583334,90.52481140625,69.0,84.0
101,90.13827375,90.59019588541666,78.0,98.0
102,90.59211895833333,92.43826895833334,71.0,84.0
103,90.60173432291667,92.50557651041667,83.0,98.0
104,92.38634598958333,94.24018828125,78.0,84.0
105,94.222880625,95.65172380208334,73.0,73.0
106,95.6421084375,96.11903052083333,69.0,72.0
107,96.10172286458334,97.50748916666667,71.0,78.0
108,98.39210270833334,98.91517854166666,69.0,69.0
109,98.83633255208333,99.63825395833334,74.0,85.0
110,99.80556130208333,101.353635,76.0,78.0
111,99.81133052083334,101.41517333333333,71.0,75.0
112,102.57094015625,103.04209302083333,74.0,88.0
113,103.01709307291667,103.50363052083334,71.0,77.0
114,103.4882459375,104.30362885416666,74.0,82.0
115,104.40170557291667,104.90555067708334,73.0,77.0
116,104.85939692708334,105.09401182291667,74.0,86.0
117,105.07285802083334,105.34978052083333,73.0,68.0
118,105.31901135416666,105.82285645833333,71.0,84.0
119,105.36516510416666,105.82285645833333,71.0,93.0
120,105.82670260416667,106.29593239583333,73.0,91.0
121,106.28824010416666,106.80362364583334,74.0,101.0
122,106.74977760416667,107.16708442708334,76.0,101.0
123,107.21131510416667,108.90169619791666,71.0,80.0
124,107.21131510416667,109.05938817708333,78.0,95.0
125,109.05746510416667,110.01707848958334,73.0,80.0
126,109.98054010416666,110.56707734375,69.0,80.0
127,110.90361510416666,111.75169026041667,67.0,76.0
128,110.90361510416666,111.77861328125,71.0,82.0
129,112.74976510416667,114.32283875,69.0,73.0
130,112.74976510416667,114.40168473958333,74.0,82.0
131,114.59591510416666,116.33821916666666,76.0,83.0
132,116.44206510416667,117.88436979166667,71.0,72.0
133,116.44206510416667,117.89013901041666,74.0,83.0
134,117.82667760416666,118.315138125,78.0,82.0
135,118.28821510416667,119.70551984375,74.0,86.0
136,119.67282760416667,120.03821145833334,76.0,83.0
137,120.13436510416666,121.01320942708334,78.0,88.0
138,121.05744010416667,121.57282364583334,71.0,91.0
139,121.51897760416666,121.9035921875,73.0,89.0
140,121.98051510416667,123.70743458333334,71.0,80.0
141,121.98051510416667,123.81320359375,74.0,90.0
142,123.82666510416666,125.06127791666667,69.0,72.0
143,123.82666510416666,125.56319994791667,73.0,84.0
144,125.67281510416667,126.62665927083333,71.0,84.0
145,126.59589010416667,127.55934963541667,69.0,78.0
146,128.44204010416667,128.884346875,78.0,91.0
147,127.51896510416667,128.91319296875,74.0,85.0
148,128.90357760416666,129.39011505208333,81.0,89.0
149,129.36511510416668,130.74972760416668,83.0,89.0
150,130.74972760416668,131.21511125,85.0,85.0
151,131.21126510416667,133.05741510416667,86.0,87.0
152,133.05741510416667,133.61126010416666,74.0,83.0
153,133.51895260416666,134.00933619791667,78.0,80.0
154,133.98049010416668,134.46318140625,73.0,72.0
155,134.44202760416667,134.90164203125,74.0,83.0
156,134.90356510416666,135.82664010416667,71.0,79.0
157,136.28817760416666,136.80356114583333,66.0,89.0
158,136.74971510416665,138.17663520833332,74.0,91.0
159,138.13432760416666,138.64009578125,76.0,100.0
160,138.59586510416668,140.422784375,73.0,91.0
161,140.44201510416667,141.41701307291666,71.0,85.0
162,141.36509010416665,142.37470338541667,69.0,87.0
163,142.28816510416667,142.72854880208334,74.0,88.0
164,142.74970260416666,143.24585541666667,76.0,89.0
165,143.21124010416668,143.6650853125,78.0,86.0
166,142.28816510416667,143.66700838541666,66.0,89.0
167,143.67277760416667,144.15739197916668,81.0,85.0
168,144.13431510416666,145.95161901041666,83.0,91.0
169,145.98046510416665,147.47469276041667,78.0,93.0
170,147.36507760416666,147.72853838541667,90.0,90.0
171,146.90354010416667,147.87084578125,74.0,86.0
172,147.82661510416668,148.82468994791668,88.0,91.0
173,147.82661510416668,149.10161244791666,71.0,85.0
174,148.74969010416666,149.15545848958334,86.0,90.0
175,149.21122760416668,149.66891895833334,71.0,84.0
176,149.21122760416668,149.68045739583334,83.0,91.0
177,149.67276510416667,150.11122572916668,70.0,88.0
178,150.13430260416666,150.61891697916667,71.0,87.0
179,150.59584010416665,150.81507041666666,73.0,89.0
180,150.82660885416666,151.10930057291668,74.0,91.0
181,151.05737760416667,151.31699244791668,76.0,87.0
182,149.67276510416667,151.39776151041667,85.0,98.0
183,151.28814635416666,151.49391515625,78.0,91.0
184,151.51891510416667,153.20929619791667,71.0,80.0
185,151.51891510416667,153.36698817708333,78.0,95.0
186,153.36506510416666,154.32467848958333,73.0,80.0
187,154.28814010416667,154.87467734375,69.0,80.0
188,155.21121510416666,156.05929026041667,67.0,76.0
189,155.21121510416666,156.08621328125,71.0,82.0
190,157.05736510416668,158.63043875,69.0,73.0
191,157.05736510416668,158.70928473958332,74.0,82.0
192,158.90351510416667,160.64581916666666,76.0,83.0
193,160.74966510416667,162.19196979166668,71.0,72.0
194,160.74966510416667,162.19773901041665,74.0,83.0
195,162.13427760416667,162.622738125,78.0,82.0
196,162.59581510416666,164.01311984375,74.0,86.0
197,163.98042760416666,164.34581145833334,76.0,83.0
198,164.44196510416666,165.32080942708333,78.0,88.0
199,165.36504010416667,165.88042364583333,71.0,91.0
200,165.82657760416666,166.2111921875,73.0,89.0
201,166.28811510416668,168.01503458333335,71.0,80.0
202,166.28811510416668,168.12080359375,74.0,90.0
203,168.13426510416667,169.36887791666666,69.0,72.0
204,168.13426510416667,169.87079994791668,73.0,84.0
205,169.98041510416667,170.93425927083334,71.0,84.0
206,170.90349010416668,171.86694963541666,69.0,78.0
207,172.74964010416667,173.191946875,78.0,91.0
208,171.82656510416666,173.22079296875,74.0,85.0
209,173.21117760416666,173.69771505208334,81.0,89.0
210,173.67271510416666,175.05732760416666,83.0,89.0
211,175.05732760416666,175.52271125000001,85.0,85.0
212,175.51886510416668,177.36501510416667,86.0,87.0
213,177.36501510416667,177.91886010416667,74.0,83.0
214,177.82655260416666,178.31693619791668,78.0,80.0
215,178.28809010416666,178.77078140625,73.0,72.0
216,178.74962760416668,179.20924203125,74.0,83.0
217,179.21116510416667,180.13424010416668,71.0,79.0
218,182.91115739583333,184.35923130208334,79.0,88.0
219,184.29576989583333,184.77846119791667,81.0,91.0
220,184.75153817708335,186.37076557291667,78.0,93.0
221,186.63038041666667,187.68037822916668,74.0,93.0
222,187.64768598958332,191.95152317708335,73.0,88.0
223,192.19190729166667,197.00343572916668,71.0,85.0
224,196.28420645833333,197.92074151041666,74.0,73.0
225,196.89382057291667,198.00920286458333,76.0,66.0
226,197.93612609375,200.03419864583333,78.0,70.0
