,start,end,pitch,velocity
0,16.749965104166666,17.528809635416668,74.0,90.0
1,17.673040104166667,18.036500885416668,74.0,93.0
2,18.134577604166665,18.471115364583333,74.0,89.0
3,18.596115104166667,18.919191354166667,73.0,90.0
4,19.057652604166666,19.3961134375,73.0,81.0
5,19.519190104166668,20.240342447916667,78.0,95.0
6,20.442265104166665,21.290340260416666,71.0,86.0
7,21.365340104166666,21.7499546875,69.0,86.0
8,21.82687760416667,22.23649213541667,69.0,80.0
9,22.288415104166667,23.746104375,66.0,83.0
10,24.13456510416667,24.923025,67.0,79.0
11,25.057640104166666,25.411485520833335,67.0,83.0
12,25.519177604166668,25.853792291666668,67.0,84.0
13,25.980715104166666,26.315329791666667,66.0,75.0
14,26.44225260416667,26.78648265625,66.0,90.0
15,26.903790104166667,27.705711510416666,71.0,86.0
16,27.826865104166668,28.357633229166666,74.0,88.0
17,28.519171354166666,29.074939427083333,74.0,90.0
18,29.211477604166667,29.592246041666666,76.0,90.0
19,29.673015104166666,31.301857864583333,73.0,80.0
20,31.519165104166667,32.351855677083336,74.0,90.0
21,32.442240104166665,32.811470104166666,74.0,91.0
22,32.90377760416667,33.25569994791667,74.0,88.0
23,33.36531510416667,33.6806990625,73.0,85.0
24,33.82685260416667,34.16146729166667,73.0,88.0
25,34.288390104166666,35.057619270833335,78.0,85.0
26,35.21146510416667,35.951848177083335,71.0,91.0
27,36.13454010416667,36.48838552083333,69.0,86.0
28,36.596077604166666,36.98838447916667,71.0,85.0
29,37.057615104166665,38.47876598958334,66.0,84.0
30,38.903765104166666,39.69414807291667,67.0,80.0
31,39.82684010416666,40.18260859375,67.0,85.0
32,40.28837760416667,40.64029994791667,67.0,85.0
33,40.74991510416667,41.08260671875,66.0,82.0
34,41.211452604166666,41.538375,66.0,85.0
35,41.672990104166665,42.488373020833336,71.0,85.0
36,42.59606510416667,42.913372135416665,74.0,87.0
37,43.05760260416667,43.384525000000004,78.0,86.0
38,43.51914010416667,43.88452395833333,73.0,85.0
39,43.980677604166665,44.1114465625,74.0,86.0
40,44.21144635416667,44.367215260416664,73.0,86.0
41,44.442215104166664,46.70182578125,71.0,86.0
42,47.67297760416667,48.02682302083333,76.0,98.0
43,48.13451510416667,48.46720671875,78.0,91.0
44,48.596052604166665,48.757590729166665,78.0,88.0
45,48.82682135416667,48.955667239583335,76.0,90.0
46,49.057590104166664,49.361435625,78.0,90.0
47,49.51912760416667,49.81720390625,86.0,86.0
48,49.98066510416667,50.344125885416666,85.0,89.0
49,50.44220260416667,50.79604802083333,83.0,84.0
50,50.903740104166666,51.45758510416667,81.0,86.0
51,51.82681510416667,52.12681447916667,83.0,86.0
52,52.28835260416667,52.43835229166667,83.0,87.0
53,52.519121354166664,52.640274947916666,81.0,85.0
54,52.74989010416667,53.10373552083333,78.0,86.0
55,53.211427604166666,53.55181151041667,76.0,91.0
56,53.672965104166664,54.72103984375,78.0,86.0
57,55.519115104166666,55.867191302083334,79.0,84.0
58,55.980652604166664,56.146036875,79.0,85.0
59,56.21142135416667,56.33642109375,78.0,85.0
60,56.44219010416667,56.79411244791667,79.0,87.0
61,56.90372760416667,57.0344965625,79.0,85.0
62,57.134496354166664,57.24603458333333,81.0,85.0
63,57.36526510416667,57.70949515625,78.0,88.0
64,57.826802604166666,58.15180192708333,76.0,90.0
65,58.288340104166664,58.919108020833335,74.0,85.0
66,59.21141510416667,59.55564515625,74.0,89.0
67,59.67295260416667,59.82295229166667,74.0,91.0
68,59.90372135416667,60.07872098958333,71.0,90.0
69,60.134490104166666,60.442181770833336,74.0,101.0
70,60.596027604166665,60.91333463541667,76.0,88.0
71,61.05756510416667,62.26333182291667,78.0,87.0
72,62.442177604166666,62.8037153125,76.0,95.0
73,62.903715104166665,63.199868333333335,78.0,89.0
74,63.36525260416667,63.49409848958334,78.0,90.0
75,63.596021354166666,63.715251875,76.0,91.0
76,63.82679010416667,64.12678947916666,78.0,91.0
77,64.28832760416667,64.61717307291667,86.0,88.0
78,64.74986510416667,65.09409515625,85.0,93.0
79,65.21140260416666,65.51717119791667,83.0,86.0
80,65.67294010416667,66.276785,81.0,90.0
81,66.59601510416667,66.89024526041666,83.0,86.0
82,67.05755260416667,67.176783125,83.0,88.0
83,67.28832135416667,67.42101338541667,81.0,86.0
84,67.51909010416666,67.84216635416666,78.0,86.0
85,67.98062760416667,68.34024223958333,76.0,90.0
86,68.44216510416666,69.52293208333333,78.0,88.0
87,70.28831510416667,70.64408359375,79.0,85.0
88,70.74985260416666,70.87869848958333,79.0,85.0
89,70.98062135416667,71.10754416666667,78.0,86.0
90,71.21139010416667,71.49408182291667,79.0,87.0
91,71.67292760416667,71.95946546875,81.0,87.0
92,72.13446510416667,72.48638744791667,78.0,88.0
93,72.59600260416667,72.93830958333334,76.0,88.0
94,73.05754010416666,73.74984635416666,74.0,93.0
95,73.98061510416667,74.31715286458333,74.0,93.0
96,74.44215260416667,74.83253640625,78.0,88.0
97,74.90369010416667,75.27676625,73.0,89.0
98,75.36522760416666,75.761380625,74.0,90.0
99,75.82676510416667,77.67291510416666,71.0,88.0
100,92.44211510416666,93.27480567708334,74.0,90.0
101,93.36519010416667,93.73442010416667,74.0,91.0
102,93.82672760416666,94.17864994791667,74.0,88.0
103,94.28826510416667,94.6036490625,73.0,85.0
104,94.74980260416666,95.08441729166667,73.0,88.0
105,95.21134010416667,95.98056927083333,78.0,85.0
106,96.13441510416666,96.87479817708333,71.0,91.0
107,97.05749010416666,97.41133552083333,69.0,86.0
108,97.51902760416667,97.91133447916667,71.0,85.0
109,97.98056510416667,99.40171598958334,66.0,84.0
110,99.82671510416667,100.61709807291666,67.0,80.0
111,100.74979010416666,101.10555859375,67.0,85.0
112,101.21132760416667,101.56324994791667,67.0,85.0
113,101.67286510416666,102.00555671875,66.0,82.0
114,102.13440260416667,102.461325,66.0,85.0
115,102.59594010416667,103.41132302083334,71.0,85.0
116,103.51901510416667,103.83632213541667,74.0,87.0
117,103.98055260416666,104.307475,78.0,86.0
118,104.44209010416667,104.80747395833333,73.0,85.0
119,104.90362760416667,105.0343965625,74.0,86.0
120,105.13439635416667,105.29016526041667,73.0,86.0
121,105.36516510416666,106.28824010416666,71.0,86.0
122,106.74977760416667,107.10362302083334,76.0,98.0
123,107.21131510416667,107.54400671875,78.0,91.0
124,107.67285260416666,107.83439072916667,78.0,88.0
125,107.90362135416667,108.03246723958334,76.0,90.0
126,108.13439010416667,108.438235625,78.0,90.0
127,108.59592760416666,108.89400390625,86.0,86.0
128,109.05746510416667,109.42092588541666,85.0,89.0
129,109.51900260416667,109.87284802083333,83.0,84.0
130,109.98054010416666,110.53438510416667,81.0,86.0
131,110.90361510416666,111.20361447916667,83.0,86.0
132,111.36515260416667,111.51515229166667,83.0,87.0
133,111.59592135416666,111.71707494791667,81.0,85.0
134,111.82669010416667,112.18053552083333,78.0,86.0
135,112.28822760416666,112.62861151041666,76.0,91.0
136,112.74976510416667,113.79783984375,78.0,86.0
137,114.59591510416666,114.94399130208333,79.0,84.0
138,115.05745260416667,115.222836875,79.0,85.0
139,115.28822135416667,115.41322109375,78.0,85.0
140,115.51899010416666,115.87091244791667,79.0,87.0
141,115.98052760416667,116.1112965625,79.0,85.0
142,116.21129635416666,116.32283458333333,81.0,85.0
143,116.44206510416667,116.78629515625,78.0,88.0
144,116.90360260416666,117.22860192708333,76.0,90.0
145,117.36514010416667,117.99590802083334,74.0,85.0
146,118.28821510416667,118.63244515625,74.0,89.0
147,118.74975260416667,118.89975229166667,74.0,91.0
148,118.98052135416667,119.15552098958334,71.0,90.0
149,119.21129010416666,119.51898177083334,74.0,101.0
150,119.67282760416667,119.99013463541667,76.0,88.0
151,120.13436510416666,121.34013182291666,78.0,87.0
152,121.51897760416666,121.8805153125,76.0,95.0
153,121.98051510416667,122.27666833333333,78.0,89.0
154,122.44205260416666,122.57089848958333,78.0,90.0
155,122.67282135416667,122.792051875,76.0,91.0
156,122.90359010416667,123.20358947916667,78.0,91.0
157,123.36512760416667,123.69397307291666,86.0,88.0
158,123.82666510416666,124.17089515625,85.0,93.0
159,124.28820260416667,124.59397119791667,83.0,86.0
160,124.74974010416666,125.353585,81.0,90.0
161,125.67281510416667,125.96704526041667,83.0,86.0
162,126.13435260416666,126.253583125,83.0,88.0
163,126.36512135416666,126.49781338541666,81.0,86.0
164,126.59589010416667,126.91896635416667,78.0,86.0
165,127.05742760416666,127.41704223958334,76.0,90.0
166,127.51896510416667,128.59973208333332,78.0,88.0
167,129.36511510416668,129.72088359375,79.0,85.0
168,129.82665260416667,129.95549848958333,79.0,85.0
169,130.05742135416668,130.18434416666668,78.0,86.0
170,130.28819010416666,130.57088182291668,79.0,87.0
171,130.74972760416668,131.03626546875,81.0,87.0
172,131.21126510416667,131.56318744791668,78.0,88.0
173,131.67280260416666,132.01510958333333,76.0,88.0
174,132.13434010416665,132.82664635416666,74.0,93.0
175,133.05741510416667,133.39395286458333,74.0,93.0
176,133.51895260416666,133.90933640625,78.0,88.0
177,133.98049010416668,134.35356625,73.0,89.0
178,134.44202760416667,134.838180625,74.0,90.0
179,134.90356510416666,136.74971510416665,71.0,88.0
180,151.05737760416667,151.41122302083335,76.0,98.0
181,151.51891510416667,151.85160671875,78.0,91.0
182,151.98045260416666,152.14199072916668,78.0,88.0
183,152.21122135416667,152.34006723958333,76.0,90.0
184,152.44199010416668,152.745835625,78.0,90.0
185,152.90352760416667,153.20160390625,86.0,86.0
186,153.36506510416666,153.72852588541667,85.0,89.0
187,153.82660260416668,154.18044802083332,83.0,84.0
188,154.28814010416667,154.84198510416667,81.0,86.0
189,155.21121510416666,155.51121447916665,83.0,86.0
190,155.67275260416667,155.82275229166666,83.0,87.0
191,155.90352135416666,156.02467494791668,81.0,85.0
192,156.13429010416667,156.48813552083334,78.0,86.0
193,156.59582760416666,156.93621151041665,76.0,91.0
194,157.05736510416668,158.10543984375,78.0,86.0
195,158.90351510416667,159.25159130208334,79.0,84.0
196,159.36505260416666,159.530436875,79.0,85.0
197,159.59582135416667,159.72082109375,78.0,85.0
198,159.82659010416666,160.17851244791666,79.0,87.0
199,160.28812760416668,160.4188965625,79.0,85.0
200,160.51889635416666,160.63043458333334,81.0,85.0
201,160.74966510416667,161.09389515625,78.0,88.0
202,161.21120260416666,161.53620192708334,76.0,90.0
203,161.67274010416668,162.30350802083333,74.0,85.0
204,162.59581510416666,162.94004515625,74.0,89.0
205,163.05735260416668,163.20735229166667,74.0,91.0
206,163.28812135416666,163.46312098958333,71.0,90.0
207,163.51889010416667,163.82658177083334,74.0,101.0
208,163.98042760416666,164.29773463541667,76.0,88.0
209,164.44196510416666,165.64773182291665,78.0,87.0
210,165.82657760416666,166.1881153125,76.0,95.0
211,166.28811510416668,166.58426833333334,78.0,89.0
212,166.74965260416667,166.87849848958334,78.0,90.0
213,166.98042135416668,167.099651875,76.0,91.0
214,167.21119010416666,167.51118947916666,78.0,91.0
215,167.67272760416668,168.00157307291667,86.0,88.0
216,168.13426510416667,168.47849515625,85.0,93.0
217,168.59580260416666,168.90157119791667,83.0,86.0
218,169.05734010416666,169.661185,81.0,90.0
219,169.98041510416667,170.27464526041666,83.0,86.0
220,170.44195260416666,170.561183125,83.0,88.0
221,170.67272135416667,170.80541338541667,81.0,86.0
222,170.90349010416668,171.22656635416666,78.0,86.0
223,171.36502760416667,171.72464223958335,76.0,90.0
224,171.82656510416666,172.90733208333333,78.0,88.0
225,173.67271510416666,174.02848359375,79.0,85.0
226,174.13425260416668,174.26309848958334,79.0,85.0
227,174.36502135416666,174.49194416666666,78.0,86.0
228,174.59579010416667,174.87848182291665,79.0,87.0
229,175.05732760416666,175.34386546875,81.0,87.0
230,175.51886510416668,175.87078744791665,78.0,88.0
231,175.98040260416667,176.32270958333334,76.0,88.0
232,176.44194010416666,177.13424635416666,74.0,93.0
233,177.36501510416667,177.70155286458333,74.0,93.0
234,177.82655260416666,178.21693640625,78.0,88.0
235,178.28809010416666,178.66116625,73.0,89.0
236,178.74962760416668,179.14578062500001,74.0,90.0
237,179.21116510416667,181.05731510416666,71.0,88.0
