,start,end,pitch,velocity
0,0.5961526041666667,1.2826896354166666,54.0,75.0
1,0.13461510416666667,1.5538429166666667,47.0,85.0
2,1.0576901041666666,1.6423042708333333,62.0,80.0
3,1.5192276041666666,1.7230733333333332,59.0,81.0
4,1.0576901041666666,2.0211496354166667,66.0,73.0
5,1.9807651041666667,2.565379270833333,61.0,73.0
6,1.9807651041666667,2.93653234375,57.0,68.0
7,2.4423026041666667,3.038455208333333,52.0,72.0
8,2.9038401041666666,3.049993645833333,61.0,73.0
9,1.9807651041666667,3.07499359375,45.0,73.0
10,2.9038401041666666,3.0826858854166668,64.0,84.0
11,3.826915104166667,4.255760364583334,55.0,74.0
12,3.826915104166667,4.37883703125,43.0,72.0
13,3.826915104166667,4.79999,59.0,76.0
14,4.749990104166667,5.1807584375,57.0,74.0
15,4.749990104166667,5.18652765625,61.0,77.0
16,4.749990104166667,5.311527395833333,45.0,85.0
17,5.211527604166666,5.32498890625,52.0,79.0
18,5.673065104166667,6.00575671875,57.0,72.0
19,5.673065104166667,6.332679114583334,62.0,73.0
20,5.673065104166667,6.615370833333333,38.0,75.0
21,6.134602604166667,6.649986145833333,57.0,72.0
22,6.5961401041666665,7.082677552083333,62.0,85.0
23,6.5961401041666665,7.186523489583333,66.0,77.0
24,8.211521354166667,8.49229,59.0,85.0
25,7.980752604166667,8.507674583333333,54.0,75.0
26,8.673058854166667,8.923058333333334,54.0,78.0
27,7.519215104166666,8.932673697916666,47.0,86.0
28,8.442290104166666,8.990365885416667,66.0,87.0
29,8.903827604166667,9.049981145833334,59.0,79.0
30,9.365365104166667,9.878825572916666,57.0,77.0
31,9.365365104166667,10.094209739583333,61.0,74.0
32,10.057671354166667,10.3038246875,57.0,86.0
33,9.826902604166667,10.392286041666667,52.0,78.0
34,10.288440104166666,10.769208333333333,64.0,88.0
35,9.365365104166667,10.832669739583334,45.0,85.0
36,10.519208854166667,10.832669739583334,52.0,80.0
37,10.749977604166666,10.888438854166667,57.0,85.0
38,11.211515104166667,11.55574515625,55.0,79.0
39,11.211515104166667,11.623052708333333,59.0,80.0
40,11.211515104166667,11.692283333333334,43.0,85.0
41,12.134590104166668,12.57112765625,57.0,77.0
42,12.134590104166668,12.59420453125,61.0,77.0
43,12.134590104166668,12.751896510416667,45.0,84.0
44,13.057665104166666,13.630740833333334,59.0,77.0
45,13.057665104166666,13.738432916666667,62.0,78.0
46,13.519202604166667,14.08266296875,54.0,79.0
47,14.442277604166668,14.634584895833333,59.0,76.0
48,13.980740104166667,14.655738697916666,66.0,88.0
49,14.211508854166667,14.703815520833334,54.0,70.0
50,13.057665104166666,14.755738489583333,47.0,85.0
51,14.903815104166666,15.9576590625,62.0,72.0
52,14.903815104166666,15.96342828125,59.0,68.0
53,14.903815104166666,16.284581458333335,47.0,74.0
54,16.749965104166666,17.709578489583333,62.0,79.0
55,17.211502604166668,17.7807321875,54.0,68.0
56,16.749965104166666,17.980731770833334,47.0,82.0
57,17.673040104166667,18.148039114583334,66.0,86.0
58,18.134577604166665,18.244192760416666,59.0,80.0
59,18.596115104166667,19.417267239583335,61.0,72.0
60,18.596115104166667,19.56919,57.0,72.0
61,19.519190104166668,19.653805208333335,64.0,84.0
62,18.596115104166667,19.776881875,45.0,79.0
63,19.057652604166666,19.776881875,52.0,66.0
64,20.442265104166665,20.703803020833334,55.0,74.0
65,20.442265104166665,20.957648645833334,43.0,80.0
66,20.903802604166668,21.18457125,55.0,84.0
67,20.442265104166665,21.4038015625,62.0,79.0
68,21.365340104166666,21.815339166666668,61.0,88.0
69,21.365340104166666,21.949954270833334,45.0,79.0
70,21.82687760416667,22.369184166666667,57.0,85.0
71,22.288415104166667,22.703798854166667,62.0,80.0
72,22.749952604166666,23.28841302083333,57.0,84.0
73,22.288415104166667,23.37110515625,38.0,79.0
74,23.211490104166668,23.378797447916668,66.0,85.0
75,24.13456510416667,24.423026041666667,59.0,75.0
76,24.13456510416667,24.7268715625,64.0,82.0
77,24.596102604166667,25.130716875,59.0,78.0
78,24.13456510416667,25.24033203125,40.0,84.0
79,25.057640104166666,25.515331458333332,67.0,85.0
80,25.980715104166666,26.569175416666667,59.0,76.0
81,25.980715104166666,26.828790260416667,66.0,70.0
82,26.903790104166667,27.055712864583334,59.0,84.0
83,26.44225260416667,27.105712760416665,54.0,72.0
84,25.980715104166666,27.2422509375,47.0,78.0
85,26.903790104166667,27.24802015625,62.0,86.0
86,27.826865104166668,28.41340234375,62.0,77.0
87,27.826865104166668,28.440325364583334,55.0,76.0
88,28.749940104166665,28.946093541666666,55.0,83.0
89,27.826865104166668,28.982631927083332,43.0,83.0
90,28.288402604166667,28.982631927083332,50.0,70.0
91,28.749940104166665,29.009554947916666,59.0,85.0
92,29.211477604166667,29.37109265625,43.0,85.0
93,29.673015104166666,30.165321770833334,58.0,78.0
94,29.673015104166666,30.361475208333335,54.0,75.0
95,29.673015104166666,30.62878234375,42.0,86.0
96,30.134552604166668,30.690320677083335,49.0,72.0
97,30.596090104166667,30.728782135416665,54.0,80.0
98,30.596090104166667,30.740320572916666,58.0,84.0
99,30.596090104166667,30.794166614583332,61.0,76.0
100,31.519165104166667,32.476855416666666,59.0,74.0
101,31.519165104166667,32.5268553125,62.0,78.0
102,31.980702604166666,32.713393385416666,54.0,77.0
103,31.519165104166667,32.86916229166667,47.0,85.0
104,32.442240104166665,32.973008229166666,66.0,88.0
105,32.90377760416667,33.023008125,59.0,82.0
106,33.36531510416667,33.955698489583334,61.0,71.0
107,33.36531510416667,34.32300541666667,57.0,75.0
108,33.82685260416667,34.734543020833335,52.0,74.0
109,33.36531510416667,34.746081458333336,45.0,80.0
110,34.288390104166666,34.75377375,61.0,86.0
111,34.288390104166666,34.83069666666667,64.0,88.0
112,34.749927604166665,34.869158125,57.0,86.0
113,35.21146510416667,35.80761770833333,55.0,77.0
114,35.21146510416667,35.83069458333333,59.0,78.0
115,35.67300260416667,35.98454041666667,50.0,72.0
116,35.21146510416667,35.986463489583336,43.0,80.0
117,36.13454010416667,36.41723182291667,61.0,79.0
118,36.13454010416667,36.47684708333333,57.0,75.0
119,36.13454010416667,36.90376927083334,45.0,85.0
120,37.057615104166665,37.253768541666666,57.0,76.0
121,37.51915260416666,38.01530541666666,57.0,81.0
122,37.057615104166665,38.02876692708333,62.0,80.0
123,37.057615104166665,38.049920729166665,50.0,84.0
124,37.98069010416667,38.494150572916666,66.0,85.0
125,38.44222760416667,38.54030432291667,57.0,77.0
126,38.903765104166666,39.872993854166666,59.0,77.0
127,38.903765104166666,39.909532239583335,64.0,84.0
128,39.365302604166665,40.03645505208333,47.0,72.0
129,38.903765104166666,40.086454947916664,40.0,85.0
130,39.82684010416666,40.36337744791667,67.0,86.0
131,40.28837760416667,40.63260765625,59.0,83.0
132,40.74991510416667,41.44222135416667,62.0,80.0
133,40.74991510416667,41.484528958333335,66.0,76.0
134,41.211452604166666,41.82491286458333,54.0,70.0
135,41.672990104166665,41.857605104166666,62.0,85.0
136,41.672990104166665,41.882605052083335,66.0,81.0
137,41.672990104166665,41.8960665625,59.0,85.0
138,40.74991510416667,41.90183578125,47.0,84.0
139,42.59606510416667,42.78260317708333,59.0,81.0
140,42.59606510416667,42.811449270833336,55.0,79.0
141,42.59606510416667,42.8652953125,43.0,84.0
142,42.59606510416667,42.88260296875,62.0,82.0
143,43.51914010416667,43.72490890625,54.0,80.0
144,43.51914010416667,43.74798578125,42.0,84.0
145,43.51914010416667,43.776831875,61.0,77.0
146,44.442215104166664,45.034521562500004,62.0,82.0
147,44.442215104166664,45.29413640625,59.0,75.0
148,45.36529010416667,45.52682822916667,62.0,85.0
149,44.90375260416667,45.76721234375,54.0,75.0
150,44.442215104166664,45.87490442708334,47.0,85.0
151,45.36529010416667,45.89798130208333,66.0,86.0
152,45.82682760416667,45.94798119791667,59.0,85.0
153,46.288365104166665,46.4191340625,61.0,72.0
154,46.288365104166665,46.62105671875,49.0,85.0
155,46.288365104166665,46.707595,64.0,83.0
156,46.749902604166664,46.822979375,61.0,90.0
157,47.21144010416667,47.655669947916664,61.0,78.0
158,47.21144010416667,47.86143875,66.0,81.0
159,47.21144010416667,48.01913072916667,42.0,88.0
160,48.13451510416667,48.68451395833333,59.0,83.0
161,48.13451510416667,48.79028296875,66.0,84.0
162,48.596052604166665,49.132589947916664,54.0,78.0
163,49.057590104166664,49.292205,59.0,87.0
164,49.057590104166664,49.30951265625,62.0,89.0
165,49.28835885416667,49.55566598958333,54.0,80.0
166,48.13451510416667,49.57874286458333,47.0,85.0
167,49.51912760416667,49.76912708333333,59.0,89.0
168,49.749896354166665,50.05181880208333,62.0,83.0
169,49.98066510416667,50.680663645833334,61.0,82.0
170,49.98066510416667,51.05566286458333,42.0,88.0
171,50.44220260416667,51.14412421875,49.0,71.0
172,50.903740104166666,51.324893072916666,61.0,93.0
173,50.903740104166666,51.34220072916667,57.0,86.0
174,51.365277604166664,51.474892760416665,42.0,84.0
175,51.82681510416667,52.130660625,55.0,82.0
176,51.82681510416667,52.34027557291667,59.0,82.0
177,51.82681510416667,52.4191215625,43.0,85.0
178,52.28835260416667,52.45758302083333,55.0,88.0
179,52.74989010416667,53.08450479166667,57.0,84.0
180,52.74989010416667,53.21911989583333,61.0,85.0
181,52.74989010416667,53.238350625,45.0,84.0
182,53.211427604166666,53.447965572916665,57.0,89.0
183,53.672965104166664,54.06527197916667,57.0,83.0
184,53.672965104166664,54.39796359375,62.0,81.0
185,54.365271354166666,54.4960403125,57.0,84.0
186,54.13450260416667,54.672963020833336,45.0,73.0
187,54.59604010416667,54.9229625,57.0,85.0
188,53.672965104166664,54.94027015625,38.0,85.0
189,54.59604010416667,55.024885364583334,62.0,88.0
190,54.59604010416667,55.07680833333333,66.0,85.0
191,55.05757760416667,55.330653958333336,38.0,89.0
192,55.519115104166666,55.84796057291667,59.0,80.0
193,55.519115104166666,56.04988322916667,64.0,85.0
194,55.980652604166664,56.49795921875,59.0,85.0
195,55.519115104166666,56.7691125,40.0,85.0
196,56.44219010416667,56.84411234375,67.0,88.0
197,56.44219010416667,56.91334296875,64.0,86.0
198,56.90372760416667,57.046035,59.0,85.0
199,57.36526510416667,57.926802395833334,62.0,84.0
200,57.36526510416667,57.97103307291667,66.0,82.0
201,57.826802604166666,58.3498784375,54.0,75.0
202,58.288340104166664,58.484493541666666,62.0,91.0
203,58.288340104166664,58.50372427083333,59.0,91.0
204,58.51910885416667,58.684493125,54.0,84.0
205,57.36526510416667,58.68833927083333,47.0,85.0
206,58.74987760416667,58.95180026041667,61.0,86.0
207,58.980646354166666,59.22103046875,62.0,84.0
208,59.21141510416667,59.65949109375,59.0,86.0
209,59.67295260416667,60.18833614583333,50.0,72.0
210,60.134490104166666,60.39025880208333,55.0,86.0
211,59.21141510416667,60.471027864583334,43.0,84.0
212,60.134490104166666,60.51333546875,59.0,86.0
213,60.36525885416667,60.569104583333335,50.0,75.0
214,60.134490104166666,60.57102765625,62.0,86.0
215,60.596027604166665,60.74025807291667,43.0,84.0
216,61.05756510416667,61.28256463541667,54.0,79.0
217,61.05756510416667,61.30756458333333,61.0,77.0
218,61.51910260416667,61.90179411458333,54.0,87.0
219,61.749871354166665,62.07871682291667,58.0,78.0
220,61.288333854166666,62.080639895833336,49.0,83.0
221,61.05756510416667,62.234485729166664,42.0,88.0
222,62.21140885416667,62.330639375,49.0,87.0
223,62.442177604166666,62.70179244791667,54.0,90.0
224,62.67294635416667,62.78640765625,58.0,70.0
225,61.98064010416667,62.98063802083333,66.0,85.0
226,63.36525260416667,63.64025203125,59.0,84.0
227,63.13448385416667,64.02871276041667,54.0,74.0
228,62.903715104166665,64.06717421875,47.0,86.0
229,63.82679010416667,64.23832770833333,59.0,86.0
230,63.82679010416667,64.27294302083334,62.0,85.0
231,64.28832760416667,64.51717328125,54.0,83.0
232,63.82679010416667,64.6037115625,66.0,81.0
233,64.51909635416666,64.6498653125,59.0,83.0
234,64.74986510416667,65.18832572916666,57.0,79.0
235,64.74986510416667,65.24217177083334,61.0,76.0
236,65.44217135416666,65.54601729166667,57.0,80.0
237,65.21140260416666,65.8152475,52.0,77.0
238,65.67294010416667,66.18640057291667,61.0,90.0
239,65.67294010416667,66.20563130208333,57.0,84.0
240,64.74986510416667,66.22101588541666,45.0,84.0
241,66.13447760416666,66.52678447916666,52.0,85.0
242,65.67294010416667,66.5652459375,64.0,87.0
243,66.59601510416667,67.10947557291666,55.0,79.0
244,66.59601510416667,67.13447552083333,59.0,80.0
245,66.59601510416667,67.3037059375,43.0,84.0
246,67.05755260416667,67.3960134375,50.0,74.0
247,67.51909010416666,67.80178182291667,57.0,82.0
248,67.51909010416666,67.97101223958333,61.0,77.0
249,67.51909010416666,68.00370447916667,45.0,86.0
250,67.98062760416667,68.34601145833334,57.0,89.0
251,68.44216510416666,68.5498571875,38.0,85.0
252,68.44216510416666,68.8729334375,62.0,80.0
253,68.44216510416666,68.92101026041667,66.0,77.0
254,69.36524010416667,69.78639307291667,57.0,91.0
255,68.90370260416667,69.79408536458334,50.0,85.0
256,69.59600885416667,69.8767775,62.0,85.0
257,69.82677760416667,70.13254619791667,64.0,89.0
258,70.05754635416666,70.32293041666667,66.0,85.0
259,70.28831510416667,70.74985260416666,67.0,73.0
260,70.74985260416666,71.40754354166667,47.0,78.0
261,70.28831510416667,71.69600447916666,40.0,86.0
262,71.21139010416667,71.74408130208333,64.0,85.0
263,71.67292760416667,71.85561953125,47.0,81.0
264,71.21139010416667,72.06331140625,67.0,88.0
265,72.13446510416667,72.47869515625,62.0,80.0
266,72.13446510416667,72.55561807291667,66.0,84.0
267,72.59600260416667,73.10561692708333,54.0,77.0
268,73.05754010416666,73.30946265625,59.0,85.0
269,72.13446510416667,73.36330869791666,47.0,85.0
270,73.05754010416666,73.407539375,62.0,85.0
271,73.28830885416667,73.44407776041666,54.0,86.0
272,73.05754010416666,73.5344621875,66.0,85.0
273,73.51907760416667,73.6498465625,59.0,88.0
274,73.98061510416667,74.40176807291667,55.0,81.0
275,73.98061510416667,74.4344603125,59.0,79.0
276,73.98061510416667,74.48446020833333,43.0,84.0
277,74.90369010416667,75.20945869791667,45.0,84.0
278,74.90369010416667,75.23638171875,57.0,83.0
279,74.90369010416667,75.30753541666667,61.0,81.0
280,75.82676510416667,76.43061,62.0,81.0
281,75.82676510416667,76.44599458333333,59.0,76.0
282,76.28830260416667,76.97099348958334,54.0,74.0
283,76.74984010416667,77.28830052083333,59.0,81.0
284,75.82676510416667,77.44214635416667,47.0,84.0
285,76.74984010416667,77.61137677083333,66.0,73.0
286,77.21137760416667,77.77483796875,54.0,63.0
287,77.67291510416666,78.61714390625,59.0,75.0
288,78.13445260416667,78.61906697916666,54.0,72.0
289,77.67291510416666,78.63637463541667,62.0,83.0
290,77.67291510416666,78.75752822916667,47.0,80.0
291,78.59599010416667,79.54021890625,66.0,85.0
292,79.05752760416667,79.6036803125,59.0,71.0
293,79.51906510416667,80.48252463541667,61.0,73.0
294,80.44214010416667,80.63444739583333,57.0,80.0
295,79.98060260416666,80.65175505208333,52.0,75.0
296,79.51906510416667,80.71906260416667,45.0,73.0
297,81.36521510416667,81.88444479166667,59.0,80.0
298,81.36521510416667,81.94790619791667,43.0,80.0
299,81.82675260416667,82.29021317708333,55.0,85.0
300,82.28829010416666,82.62482786458334,61.0,80.0
301,82.28829010416666,82.71136614583334,45.0,80.0
302,83.21136510416667,83.4113646875,57.0,68.0
303,83.21136510416667,83.80174848958333,62.0,75.0
304,83.67290260416667,84.24020911458334,57.0,81.0
305,84.13444010416667,84.39405494791667,66.0,87.0
306,84.59597760416666,84.84597708333334,61.0,89.0
307,83.21136510416667,84.84982322916667,38.0,76.0
308,84.82674635416667,85.0498228125,62.0,84.0
309,85.74982135416667,86.03059,59.0,85.0
310,85.51905260416667,86.04597458333333,54.0,75.0
311,86.21135885416666,86.46135833333334,54.0,78.0
312,85.05751510416667,86.47097369791666,47.0,86.0
313,85.98059010416667,86.52866588541667,66.0,87.0
314,86.44212760416667,86.58828114583334,59.0,79.0
315,86.90366510416666,87.41712557291666,57.0,77.0
316,86.90366510416666,87.63250973958334,61.0,74.0
317,87.59597135416666,87.8421246875,57.0,86.0
318,87.36520260416667,87.93058604166667,52.0,78.0
319,87.82674010416666,88.30750833333333,64.0,88.0
320,86.90366510416666,88.37096973958333,45.0,85.0
321,88.05750885416667,88.37096973958333,52.0,80.0
322,88.28827760416667,88.42673885416667,57.0,85.0
323,88.74981510416667,89.09404515625,55.0,79.0
324,88.74981510416667,89.16135270833334,59.0,80.0
325,88.74981510416667,89.23058333333333,43.0,85.0
326,89.67289010416667,90.10942765625,57.0,77.0
327,89.67289010416667,90.13250453125,61.0,77.0
328,89.67289010416667,90.29019651041666,45.0,84.0
329,90.59596510416667,91.16904083333334,59.0,77.0
330,90.59596510416667,91.27673291666667,62.0,78.0
331,91.05750260416667,91.62096296875,54.0,79.0
332,91.98057760416667,92.17288489583333,59.0,76.0
333,91.51904010416666,92.19403869791667,66.0,88.0
334,91.74980885416667,92.24211552083334,54.0,70.0
335,90.59596510416667,92.29403848958333,47.0,85.0
336,92.44211510416666,93.39980541666667,59.0,74.0
337,92.44211510416666,93.4498053125,62.0,78.0
338,92.90365260416667,93.63634338541667,54.0,77.0
339,92.44211510416666,93.79211229166667,47.0,85.0
340,93.36519010416667,93.89595822916667,66.0,88.0
341,93.82672760416666,93.945958125,59.0,82.0
342,94.28826510416667,94.87864848958334,61.0,71.0
343,94.28826510416667,95.24595541666666,57.0,75.0
344,94.74980260416666,95.65749302083333,52.0,74.0
345,94.28826510416667,95.66903145833334,45.0,80.0
346,95.21134010416667,95.67672375,61.0,86.0
347,95.21134010416667,95.75364666666667,64.0,88.0
348,95.67287760416667,95.792108125,57.0,86.0
349,96.13441510416666,96.73056770833334,55.0,77.0
350,96.13441510416666,96.75364458333334,59.0,78.0
351,96.59595260416667,96.90749041666666,50.0,72.0
352,96.13441510416666,96.90941348958333,43.0,80.0
353,97.05749010416666,97.34018182291666,61.0,79.0
354,97.05749010416666,97.39979708333334,57.0,75.0
355,97.05749010416666,97.82671927083334,45.0,85.0
356,97.98056510416667,98.17671854166667,57.0,76.0
357,98.44210260416666,98.93825541666666,57.0,81.0
358,97.98056510416667,98.95171692708334,62.0,80.0
359,97.98056510416667,98.97287072916667,50.0,84.0
360,98.90364010416667,99.41710057291667,66.0,85.0
361,99.36517760416666,99.46325432291667,57.0,77.0
362,99.82671510416667,100.79594385416667,59.0,77.0
363,99.82671510416667,100.83248223958333,64.0,84.0
364,100.28825260416667,100.95940505208334,47.0,72.0
365,99.82671510416667,101.00940494791666,40.0,85.0
366,100.74979010416666,101.28632744791666,67.0,86.0
367,101.21132760416667,101.55555765625,59.0,83.0
368,101.67286510416666,102.36517135416666,62.0,80.0
369,101.67286510416666,102.40747895833333,66.0,76.0
370,102.13440260416667,102.74786286458334,54.0,70.0
371,102.59594010416667,102.78055510416667,62.0,85.0
372,102.59594010416667,102.80555505208333,66.0,81.0
373,102.59594010416667,102.8190165625,59.0,85.0
374,101.67286510416666,102.82478578125,47.0,84.0
375,103.51901510416667,103.70555317708333,59.0,81.0
376,103.51901510416667,103.73439927083334,55.0,79.0
377,103.51901510416667,103.7882453125,43.0,84.0
378,103.51901510416667,103.80555296875,62.0,82.0
379,104.44209010416667,104.64785890625001,54.0,80.0
380,104.44209010416667,104.67093578125,42.0,84.0
381,104.44209010416667,104.699781875,61.0,77.0
382,105.36516510416666,105.9574715625,62.0,82.0
383,105.36516510416666,106.21708640625,59.0,75.0
384,106.28824010416666,106.44977822916667,62.0,85.0
385,105.82670260416667,106.69016234375,54.0,75.0
386,105.36516510416666,106.79785442708334,47.0,85.0
387,106.28824010416666,106.82093130208334,66.0,86.0
388,106.74977760416667,106.87093119791666,59.0,85.0
389,107.21131510416667,107.76131395833333,59.0,83.0
390,107.21131510416667,107.86708296875,66.0,84.0
391,107.67285260416666,108.20938994791666,54.0,78.0
392,108.13439010416667,108.369005,59.0,87.0
393,108.13439010416667,108.38631265625,62.0,89.0
394,108.36515885416667,108.63246598958334,54.0,80.0
395,107.21131510416667,108.65554286458334,47.0,85.0
396,108.59592760416666,108.84592708333334,59.0,89.0
397,108.82669635416667,109.12861880208334,62.0,83.0
398,109.05746510416667,109.75746364583334,61.0,82.0
399,109.05746510416667,110.13246286458333,42.0,88.0
400,109.51900260416667,110.22092421875,49.0,71.0
401,109.98054010416666,110.40169307291667,61.0,93.0
402,109.98054010416666,110.41900072916667,57.0,86.0
403,110.44207760416667,110.55169276041667,42.0,84.0
404,110.90361510416666,111.207460625,55.0,82.0
405,110.90361510416666,111.41707557291667,59.0,82.0
406,110.90361510416666,111.4959215625,43.0,85.0
407,111.36515260416667,111.53438302083333,55.0,88.0
408,111.82669010416667,112.16130479166667,57.0,84.0
409,111.82669010416667,112.29591989583334,61.0,85.0
410,111.82669010416667,112.315150625,45.0,84.0
411,112.28822760416666,112.52476557291666,57.0,89.0
412,112.74976510416667,113.14207197916667,57.0,83.0
413,112.74976510416667,113.47476359375,62.0,81.0
414,113.44207135416667,113.5728403125,57.0,84.0
415,113.21130260416666,113.74976302083333,45.0,73.0
416,113.67284010416667,113.9997625,57.0,85.0
417,112.74976510416667,114.01707015625,38.0,85.0
418,113.67284010416667,114.10168536458333,62.0,88.0
419,113.67284010416667,114.15360833333334,66.0,85.0
420,114.13437760416667,114.40745395833333,38.0,89.0
421,114.59591510416666,114.92476057291667,59.0,80.0
422,114.59591510416666,115.12668322916667,64.0,85.0
423,115.05745260416667,115.57475921875,59.0,85.0
424,114.59591510416666,115.8459125,40.0,85.0
425,115.51899010416666,115.92091234375,67.0,88.0
426,115.51899010416666,115.99014296875,64.0,86.0
427,115.98052760416667,116.122835,59.0,85.0
428,116.44206510416667,117.00360239583334,62.0,84.0
429,116.44206510416667,117.04783307291667,66.0,82.0
430,116.90360260416666,117.4266784375,54.0,75.0
431,117.36514010416667,117.56129354166667,62.0,91.0
432,117.36514010416667,117.58052427083334,59.0,91.0
433,117.59590885416667,117.761293125,54.0,84.0
434,116.44206510416667,117.76513927083333,47.0,85.0
435,117.82667760416666,118.02860026041667,61.0,86.0
436,118.05744635416667,118.29783046875,62.0,84.0
437,118.28821510416667,118.73629109375,59.0,86.0
438,118.74975260416667,119.26513614583334,50.0,72.0
439,119.21129010416666,119.46705880208333,55.0,86.0
440,118.28821510416667,119.54782786458334,43.0,84.0
441,119.21129010416666,119.59013546875,59.0,86.0
442,119.44205885416667,119.64590458333333,50.0,75.0
443,119.21129010416666,119.64782765625,62.0,86.0
444,119.67282760416667,119.81705807291667,43.0,84.0
445,120.13436510416666,120.35936463541667,54.0,79.0
446,120.13436510416666,120.38436458333334,61.0,77.0
447,120.59590260416667,120.97859411458333,54.0,87.0
448,120.82667135416666,121.15551682291667,58.0,78.0
449,120.36513385416667,121.15743989583333,49.0,83.0
450,120.13436510416666,121.31128572916667,42.0,88.0
451,121.28820885416667,121.407439375,49.0,87.0
452,121.51897760416666,121.77859244791667,54.0,90.0
453,121.74974635416666,121.86320765625,58.0,70.0
454,121.05744010416667,122.05743802083333,66.0,85.0
455,122.44205260416666,122.71705203125,59.0,84.0
456,122.21128385416667,123.10551276041667,54.0,74.0
457,121.98051510416667,123.14397421875,47.0,86.0
458,122.90359010416667,123.31512770833334,59.0,86.0
459,122.90359010416667,123.34974302083333,62.0,85.0
460,123.36512760416667,123.59397328125,54.0,83.0
461,122.90359010416667,123.6805115625,66.0,81.0
462,123.59589635416667,123.7266653125,59.0,83.0
463,123.82666510416666,124.26512572916667,57.0,79.0
464,123.82666510416666,124.31897177083333,61.0,76.0
465,124.51897135416667,124.62281729166666,57.0,80.0
466,124.28820260416667,124.8920475,52.0,77.0
467,124.74974010416666,125.26320057291667,61.0,90.0
468,124.74974010416666,125.28243130208334,57.0,84.0
469,123.82666510416666,125.29781588541667,45.0,84.0
470,125.21127760416667,125.60358447916667,52.0,85.0
471,124.74974010416666,125.6420459375,64.0,87.0
472,125.67281510416667,126.18627557291667,55.0,79.0
473,125.67281510416667,126.21127552083334,59.0,80.0
474,125.67281510416667,126.3805059375,43.0,84.0
475,126.13435260416666,126.4728134375,50.0,74.0
476,126.59589010416667,126.87858182291667,57.0,82.0
477,126.59589010416667,127.04781223958334,61.0,77.0
478,126.59589010416667,127.08050447916666,45.0,86.0
479,127.05742760416666,127.42281145833333,57.0,89.0
480,127.51896510416667,127.6266571875,38.0,85.0
481,127.51896510416667,127.9497334375,62.0,80.0
482,127.51896510416667,127.99781026041667,66.0,77.0
483,128.44204010416667,128.86319307291666,57.0,91.0
484,127.98050260416667,128.87088536458333,50.0,85.0
485,128.67280885416668,128.9535775,62.0,85.0
486,128.90357760416666,129.20934619791666,64.0,89.0
487,129.13434635416667,129.39973041666667,66.0,85.0
488,129.36511510416668,129.82665260416667,67.0,73.0
489,129.82665260416667,130.48434354166668,47.0,78.0
490,129.36511510416668,130.77280447916667,40.0,86.0
491,130.28819010416666,130.82088130208334,64.0,85.0
492,130.74972760416668,130.93241953125,47.0,81.0
493,130.28819010416666,131.14011140625,67.0,88.0
494,131.21126510416667,131.55549515625,62.0,80.0
495,131.21126510416667,131.63241807291666,66.0,84.0
496,131.67280260416666,132.18241692708332,54.0,77.0
497,132.13434010416665,132.38626265625,59.0,85.0
498,131.21126510416667,132.44010869791666,47.0,85.0
499,132.13434010416665,132.484339375,62.0,85.0
500,132.36510885416666,132.52087776041668,54.0,86.0
501,132.13434010416665,132.6112621875,66.0,85.0
502,132.59587760416667,132.7266465625,59.0,88.0
503,133.05741510416667,133.47856807291666,55.0,81.0
504,133.05741510416667,133.5112603125,59.0,79.0
505,133.05741510416667,133.56126020833332,43.0,84.0
506,133.98049010416668,134.28625869791668,45.0,84.0
507,133.98049010416668,134.31318171875,57.0,83.0
508,133.98049010416668,134.38433541666666,61.0,81.0
509,134.90356510416666,135.50741,62.0,81.0
510,134.90356510416666,135.52279458333334,59.0,76.0
511,135.36510260416668,136.04779348958334,54.0,74.0
512,135.82664010416667,136.36510052083332,59.0,81.0
513,134.90356510416666,136.51894635416667,47.0,84.0
514,135.82664010416667,136.68817677083334,66.0,73.0
515,136.28817760416666,136.85163796875,54.0,63.0
516,136.74971510416665,137.69394390625,59.0,75.0
517,137.21125260416667,137.69586697916668,54.0,72.0
518,136.74971510416665,137.71317463541666,62.0,83.0
519,136.74971510416665,137.83432822916666,47.0,80.0
520,137.67279010416667,138.61701890625,66.0,85.0
521,138.13432760416666,138.6804803125,59.0,71.0
522,138.59586510416668,139.55932463541666,61.0,73.0
523,139.51894010416666,139.71124739583334,57.0,80.0
524,139.05740260416667,139.72855505208332,52.0,75.0
525,138.59586510416668,139.79586260416667,45.0,73.0
526,140.44201510416667,140.96124479166667,59.0,80.0
527,140.44201510416667,141.02470619791666,43.0,80.0
528,140.90355260416666,141.36701317708332,55.0,85.0
529,141.36509010416665,141.70162786458334,61.0,80.0
530,141.36509010416665,141.78816614583334,45.0,80.0
531,142.28816510416667,142.4881646875,57.0,68.0
532,142.28816510416667,142.87854848958332,62.0,75.0
533,142.74970260416666,143.31700911458333,57.0,81.0
534,143.21124010416668,143.47085494791668,66.0,87.0
535,143.67277760416667,143.92277708333333,61.0,89.0
536,142.28816510416667,143.92662322916667,38.0,76.0
537,143.90354635416668,144.1266228125,62.0,84.0
538,144.13431510416666,144.80931369791668,67.0,84.0
539,145.05739010416667,145.42854317708333,64.0,100.0
540,144.59585260416668,145.54008140625,47.0,78.0
541,144.13431510416666,145.54777369791665,40.0,85.0
542,145.51892760416666,145.59969666666666,67.0,90.0
543,145.98046510416665,146.52854088541667,66.0,77.0
544,146.90354010416667,147.09969354166668,59.0,85.0
545,146.44200260416667,147.11892427083333,54.0,84.0
546,145.98046510416665,147.28623161458333,47.0,85.0
547,146.90354010416667,147.42469286458333,62.0,89.0
548,147.36507760416666,147.72469223958333,59.0,93.0
549,146.90354010416667,147.72853838541667,66.0,86.0
550,147.82661510416668,148.32276791666666,62.0,81.0
551,147.82661510416668,148.36315244791666,55.0,84.0
552,148.74969010416666,148.94776661458334,59.0,91.0
553,148.74969010416666,148.96699734375,55.0,90.0
554,148.74969010416666,148.98815114583334,62.0,86.0
555,147.82661510416668,149.01315109375,43.0,85.0
556,148.28815260416667,149.053535625,50.0,74.0
557,149.21122760416668,149.31507354166666,43.0,84.0
558,149.67276510416667,150.1035334375,54.0,84.0
559,149.67276510416667,150.18045635416667,58.0,75.0
560,149.67276510416667,150.29776380208332,61.0,84.0
561,150.36507135416667,150.48814802083334,54.0,87.0
562,150.13430260416666,150.67276302083334,49.0,84.0
563,150.59584010416665,150.83237807291667,54.0,88.0
564,149.67276510416667,150.84583958333334,42.0,93.0
565,150.59584010416665,150.96314703125,58.0,93.0
566,150.59584010416665,150.98237776041665,61.0,91.0
567,150.59584010416665,150.98814697916666,66.0,82.0
568,151.05737760416667,151.41699223958332,54.0,91.0
569,151.28814635416666,151.453530625,58.0,84.0
570,150.82660885416666,151.51506895833333,49.0,85.0
571,151.51891510416667,152.06891395833333,59.0,83.0
572,151.51891510416667,152.17468296875,66.0,84.0
573,151.98045260416666,152.51698994791667,54.0,78.0
574,152.44199010416668,152.676605,59.0,87.0
575,152.44199010416668,152.69391265625,62.0,89.0
576,152.67275885416666,152.94006598958333,54.0,80.0
577,151.51891510416667,152.96314286458335,47.0,85.0
578,152.90352760416667,153.15352708333333,59.0,89.0
579,153.13429635416668,153.43621880208335,62.0,83.0
580,153.36506510416666,154.06506364583333,61.0,82.0
581,153.36506510416666,154.44006286458333,42.0,88.0
582,153.82660260416668,154.52852421875,49.0,71.0
583,154.28814010416667,154.70929307291667,61.0,93.0
584,154.28814010416667,154.72660072916668,57.0,86.0
585,154.74967760416666,154.85929276041668,42.0,84.0
586,155.21121510416666,155.515060625,55.0,82.0
587,155.21121510416666,155.72467557291668,59.0,82.0
588,155.21121510416666,155.8035215625,43.0,85.0
589,155.67275260416667,155.84198302083334,55.0,88.0
590,156.13429010416667,156.46890479166666,57.0,84.0
591,156.13429010416667,156.60351989583333,61.0,85.0
592,156.13429010416667,156.622750625,45.0,84.0
593,156.59582760416666,156.83236557291667,57.0,89.0
594,157.05736510416668,157.44967197916668,57.0,83.0
595,157.05736510416668,157.78236359375,62.0,81.0
596,157.74967135416668,157.8804403125,57.0,84.0
597,157.51890260416667,158.05736302083332,45.0,73.0
598,157.98044010416666,158.3073625,57.0,85.0
599,157.05736510416668,158.32467015625,38.0,85.0
600,157.98044010416666,158.40928536458333,62.0,88.0
601,157.98044010416666,158.46120833333333,66.0,85.0
602,158.44197760416668,158.71505395833333,38.0,89.0
603,158.90351510416667,159.23236057291666,59.0,80.0
604,158.90351510416667,159.43428322916668,64.0,85.0
605,159.36505260416666,159.88235921875,59.0,85.0
606,158.90351510416667,160.1535125,40.0,85.0
607,159.82659010416666,160.22851234375,67.0,88.0
608,159.82659010416666,160.29774296875001,64.0,86.0
609,160.28812760416668,160.430435,59.0,85.0
610,160.74966510416667,161.31120239583333,62.0,84.0
611,160.74966510416667,161.35543307291667,66.0,82.0
612,161.21120260416666,161.7342784375,54.0,75.0
613,161.67274010416668,161.86889354166667,62.0,91.0
614,161.67274010416668,161.88812427083334,59.0,91.0
615,161.90350885416666,162.068893125,54.0,84.0
616,160.74966510416667,162.07273927083332,47.0,85.0
617,162.13427760416667,162.33620026041666,61.0,86.0
618,162.36504635416668,162.60543046875,62.0,84.0
619,162.59581510416666,163.04389109375,59.0,86.0
620,163.05735260416668,163.57273614583335,50.0,72.0
621,163.51889010416667,163.77465880208334,55.0,86.0
622,162.59581510416666,163.85542786458333,43.0,84.0
623,163.51889010416667,163.89773546875,59.0,86.0
624,163.74965885416665,163.95350458333334,50.0,75.0
625,163.51889010416667,163.95542765625,62.0,86.0
626,163.98042760416666,164.12465807291667,43.0,84.0
627,164.44196510416666,164.66696463541666,54.0,79.0
628,164.44196510416666,164.69196458333334,61.0,77.0
629,164.90350260416668,165.28619411458334,54.0,87.0
630,165.13427135416666,165.46311682291667,58.0,78.0
631,164.67273385416667,165.46503989583334,49.0,83.0
632,164.44196510416666,165.61888572916666,42.0,88.0
633,165.59580885416668,165.715039375,49.0,87.0
634,165.82657760416666,166.08619244791666,54.0,90.0
635,166.05734635416667,166.17080765625,58.0,70.0
636,165.36504010416667,166.36503802083334,66.0,85.0
637,166.74965260416667,167.02465203125,59.0,84.0
638,166.51888385416666,167.41311276041668,54.0,74.0
639,166.28811510416668,167.45157421875,47.0,86.0
640,167.21119010416666,167.62272770833334,59.0,86.0
641,167.21119010416666,167.65734302083334,62.0,85.0
642,167.67272760416668,167.90157328125,54.0,83.0
643,167.21119010416666,167.9881115625,66.0,81.0
644,167.90349635416666,168.0342653125,59.0,83.0
645,168.13426510416667,168.57272572916668,57.0,79.0
646,168.13426510416667,168.62657177083332,61.0,76.0
647,168.82657135416667,168.93041729166666,57.0,80.0
648,168.59580260416666,169.1996475,52.0,77.0
649,169.05734010416666,169.57080057291668,61.0,90.0
650,169.05734010416666,169.59003130208333,57.0,84.0
651,168.13426510416667,169.60541588541668,45.0,84.0
652,169.51887760416668,169.91118447916668,52.0,85.0
653,169.05734010416666,169.9496459375,64.0,87.0
654,169.98041510416667,170.49387557291666,55.0,79.0
655,169.98041510416667,170.51887552083335,59.0,80.0
656,169.98041510416667,170.6881059375,43.0,84.0
657,170.44195260416666,170.7804134375,50.0,74.0
658,170.90349010416668,171.18618182291667,57.0,82.0
659,170.90349010416668,171.35541223958333,61.0,77.0
660,170.90349010416668,171.38810447916666,45.0,86.0
661,171.36502760416667,171.73041145833332,57.0,89.0
662,171.82656510416666,171.9342571875,38.0,85.0
663,171.82656510416666,172.2573334375,62.0,80.0
664,171.82656510416666,172.30541026041666,66.0,77.0
665,172.74964010416667,173.17079307291667,57.0,91.0
666,172.28810260416668,173.17848536458334,50.0,85.0
667,172.98040885416665,173.2611775,62.0,85.0
668,173.21117760416666,173.51694619791667,64.0,89.0
669,173.44194635416667,173.70733041666668,66.0,85.0
670,173.67271510416666,174.13425260416668,67.0,73.0
671,174.13425260416668,174.79194354166665,47.0,78.0
672,173.67271510416666,175.08040447916667,40.0,86.0
673,174.59579010416667,175.12848130208334,64.0,85.0
674,175.05732760416666,175.24001953125,47.0,81.0
675,174.59579010416667,175.44771140625,67.0,88.0
676,175.51886510416668,175.86309515625,62.0,80.0
677,175.51886510416668,175.94001807291667,66.0,84.0
678,175.98040260416667,176.49001692708333,54.0,77.0
679,176.44194010416666,176.69386265625,59.0,85.0
680,175.51886510416668,176.74770869791666,47.0,85.0
681,176.44194010416666,176.791939375,62.0,85.0
682,176.67270885416667,176.82847776041666,54.0,86.0
683,176.44194010416666,176.9188621875,66.0,85.0
684,176.90347760416668,177.0342465625,59.0,88.0
685,177.36501510416667,177.78616807291667,55.0,81.0
686,177.36501510416667,177.8188603125,59.0,79.0
687,177.36501510416667,177.86886020833333,43.0,84.0
688,178.28809010416666,178.59385869791666,45.0,84.0
689,178.28809010416666,178.62078171875,57.0,83.0
690,178.28809010416666,178.69193541666667,61.0,81.0
691,179.21116510416667,179.81501,62.0,81.0
692,179.21116510416667,179.83039458333334,59.0,76.0
693,179.67270260416666,180.35539348958332,54.0,74.0
694,180.13424010416668,180.67270052083333,59.0,81.0
695,179.21116510416667,180.82654635416668,47.0,84.0
696,180.13424010416668,180.99577677083334,66.0,73.0
697,180.59577760416667,181.15923796875,54.0,63.0
698,183.33231036458332,184.15153942708332,47.0,78.0
699,182.8611575,184.176539375,40.0,85.0
700,183.63038666666668,184.49576947916665,52.0,51.0
701,183.82846317708334,184.55346166666666,59.0,69.0
702,183.75154026041668,184.56307703125,55.0,76.0
703,183.89384765625,184.85153796875,64.0,74.0
704,185.21692182291667,185.95730489583335,54.0,71.0
705,184.72076901041666,186.11307380208333,47.0,85.0
706,185.69192083333334,186.56114979166668,62.0,76.0
707,185.81115135416667,186.58230359375,66.0,72.0
708,185.61307484375,186.59768817708334,59.0,65.0
709,186.6342265625,187.130379375,43.0,86.0
710,187.05537953125,187.176533125,55.0,85.0
711,187.62268604166667,188.284223125,42.0,87.0
712,187.7880703125,188.30345385416666,49.0,77.0
713,187.68807052083332,190.34575729166667,54.0,70.0
714,187.81883947916666,190.36114187500002,57.0,65.0
715,187.89383932291668,190.43421864583334,61.0,78.0
716,192.89767505208334,193.04382859375,59.0,79.0
717,193.1188284375,193.26690505208333,61.0,76.0
718,193.40344322916667,193.68036572916668,62.0,74.0
719,193.70151953125,193.96690359375,64.0,79.0
720,194.04574958333333,194.29767213541666,66.0,79.0
721,194.38036427083333,194.55921005208333,69.0,78.0
722,194.75344041666668,195.08805510416667,73.0,85.0
723,195.11882427083333,195.51690036458334,71.0,74.0
724,195.5419003125,195.68997692708334,76.0,85.0
725,195.95343791666667,196.09574531250001,73.0,76.0
726,196.39189854166668,196.57459046875,78.0,72.0
727,196.87266677083335,197.34958885416665,76.0,72.0
728,197.41305026041667,197.57651145833333,81.0,76.0
729,198.76689359375,198.83612421875,78.0,74.0
730,198.85727802083335,198.93612401041668,85.0,81.0
731,192.63036791666667,199.76304536458335,54.0,78.0
732,192.34383005208335,199.8111221875,47.0,86.0
