,start,end,pitch,velocity
0,23.136881624999997,23.333309999999997,72.0,116.0
1,23.494024124999996,23.709797718749996,72.0,116.0
2,23.851166624999998,24.072892593749998,72.0,114.0
3,24.208309124999996,24.501463593749996,72.0,113.0
4,24.565451624999998,24.895808437499998,70.0,119.0
5,24.922594124999996,25.150272468749996,67.0,114.0
6,25.279736624999998,25.584795843749998,67.0,113.0
7,25.636879124999997,25.886878874999997,70.0,116.0
8,25.994021625,26.117533406249997,70.0,100.0
9,26.172592874999996,26.51187825,72.0,117.0
10,28.851161624999996,29.056518562499996,72.0,114.0
11,29.208304124999998,29.401756312499998,72.0,108.0
12,29.565446624999996,29.666636999999998,74.0,100.0
13,29.656220343749997,29.870505843749996,72.0,114.0
14,29.922589125,30.154731749999996,70.0,109.0
15,30.279731624999997,30.552052781249998,72.0,114.0
16,30.636874124999995,30.944909531249998,75.0,119.0
17,30.994016624999997,31.299075843749996,72.0,104.0
18,31.351159124999995,31.694908781249996,70.0,113.0
19,31.708301624999997,31.873480031249997,67.0,113.0
20,31.886872874999998,32.10562265625,70.0,100.0
21,32.065444125,32.92705040625,67.0,100.0
22,34.565441625,34.7946080625,72.0,100.0
23,34.92258412499999,35.113060125,72.0,102.0
24,35.279726624999995,35.58329774999999,72.0,108.0
25,35.636869125,35.860083187499995,67.0,108.0
26,35.994011625,36.26633278124999,67.0,104.0
27,36.351154124999994,36.63240384375,70.0,109.0
28,36.708296624999996,36.934486875,72.0,110.0
29,37.065439125,37.30204603124999,75.0,109.0
30,37.42258162499999,37.641331406249996,77.0,107.0
31,37.779724124999994,38.005914374999996,77.0,108.0
32,38.136866624999996,38.461271062499996,77.0,107.0
33,38.494009125,38.82287784374999,75.0,113.0
34,38.85115162499999,39.157698937499994,77.0,102.0
35,40.27972162499999,40.44043575,74.0,116.0
36,40.636864124999995,40.813947281249995,74.0,113.0
37,40.994006625,41.263351593749995,74.0,108.0
38,41.35114912499999,41.66364881249999,72.0,107.0
39,41.708291624999994,41.986565156249995,70.0,106.0
40,42.065434124999996,42.4047195,67.0,107.0
41,42.422576625,42.70680253125,70.0,116.0
42,42.77971912499999,43.0029331875,72.0,114.0
43,43.136861624999995,43.5386469375,72.0,116.0
44,45.994001624999996,46.19042999999999,72.0,116.0
45,46.351144125,46.56691771875,72.0,116.0
46,46.70828662499999,46.93001259374999,72.0,114.0
47,47.065429124999994,47.35858359375,72.0,113.0
48,47.422571624999996,47.752928437499996,70.0,119.0
49,47.779714125,48.00739246874999,67.0,114.0
50,48.13685662499999,48.441915843749996,67.0,113.0
51,48.493999124999995,48.743998874999996,70.0,116.0
52,48.851141625,48.99697481249999,72.0,117.0
53,49.029712874999994,49.13387943749999,70.0,100.0
54,49.20828412499999,49.4999505,72.0,100.0
55,51.70828162499999,51.9136385625,72.0,114.0
56,52.06542412499999,52.25887631249999,72.0,108.0
57,52.422566624999995,52.72762584375,72.0,114.0
58,52.779709125,53.01185174999999,70.0,109.0
59,53.13685162499999,53.40917278124999,72.0,114.0
60,53.49399412499999,53.80202953124999,75.0,119.0
61,53.851136624999995,54.15619584374999,72.0,104.0
62,54.208279125,54.552028781249994,70.0,113.0
63,54.56542162499999,54.66661199999999,70.0,100.0
64,54.70976671875,55.211254312499996,67.0,113.0
65,57.42256162499999,57.65172806249999,72.0,100.0
66,57.779704124999995,57.97018012499999,72.0,102.0
67,58.136846625,58.440417749999995,72.0,108.0
68,58.49398912499999,58.71720318749999,67.0,108.0
69,58.851131624999994,59.123452781249995,72.0,104.0
70,59.208274124999996,59.48952384374999,72.0,109.0
71,59.56541662499999,59.79160687499999,72.0,110.0
72,59.92255912499999,60.159166031249995,75.0,109.0
73,60.279701624999994,60.49845140624999,77.0,107.0
74,60.636844124999996,60.86303437499999,77.0,108.0
75,60.99398662499999,61.31839106249999,77.0,107.0
76,61.35112912499999,61.679997843749995,75.0,113.0
77,61.70975971874999,61.861545281249995,75.0,100.0
78,61.88684287499999,62.385354281249995,77.0,102.0
79,62.95827037499999,63.118984499999996,67.0,116.0
80,63.136841624999995,63.297555749999994,74.0,116.0
81,63.49398412499999,63.67106728124999,74.0,113.0
82,63.672555374999995,63.849638531249994,74.0,113.0
83,63.85112662499999,64.12047159375,74.0,108.0
84,64.20826912499999,64.5207688125,72.0,107.0
85,64.565411625,64.84368515624999,70.0,106.0
86,64.92255412499999,65.2618395,67.0,107.0
87,65.279696625,65.56392253124999,70.0,116.0
88,65.636839125,65.86005318749999,72.0,114.0
89,65.99398162499999,66.3957669375,72.0,116.0
90,68.493979125,68.59665759375,72.0,113.0
91,68.67255037499999,68.79308596874999,72.0,100.0
92,68.85112162499999,69.06838331249999,79.0,120.0
93,69.20826412499999,69.28713309374999,79.0,117.0
94,69.38683537499999,69.46272815625,79.0,108.0
95,69.565406625,69.70231125,79.0,117.0
96,69.92254912499999,70.13981081249999,72.0,116.0
97,70.279691625,70.52373899999999,79.0,119.0
98,70.636834125,70.827310125,77.0,113.0
99,70.99397662499999,71.20677403124999,77.0,120.0
100,71.351119125,71.44189284375,70.0,110.0
101,71.52969037499999,71.64129740624999,70.0,110.0
102,71.70826162499999,71.89278524999999,77.0,117.0
103,72.06540412499999,72.25588012499999,77.0,116.0
104,72.24397537499999,72.25588012499999,77.0,116.0
105,72.422546625,72.434451375,77.0,119.0
106,72.77968912499999,72.95677228125,70.0,116.0
107,73.13683162499999,73.35855759374999,75.0,123.0
108,73.493974125,73.69189059374999,75.0,114.0
109,73.85111662499999,74.0981401875,75.0,110.0
110,74.208259125,74.30647331249999,72.0,107.0
111,74.38683037499999,74.49992549999999,72.0,98.0
112,74.56540162499999,74.71272290625,75.0,119.0
113,74.92254412499999,75.10706774999998,75.0,119.0
114,75.279686625,75.45379359374999,75.0,123.0
115,75.63682912499999,75.72165046874998,75.0,116.0
116,75.815400375,75.92403121874999,79.0,108.0
117,75.99397162499999,76.23653090625,77.0,110.0
118,76.351114125,76.51480443749999,77.0,114.0
119,76.70825662499999,76.93444687499999,77.0,119.0
120,77.422541625,77.61748190624999,77.0,117.0
121,77.77968412499999,78.04605290625,77.0,117.0
122,78.136826625,78.3421835625,75.0,113.0
123,78.49396912499999,78.68593321875,77.0,116.0
124,78.85111162499999,79.172539875,79.0,119.0
125,79.92253912499999,80.02521759374999,72.0,113.0
126,80.10111037499999,80.22164596875,72.0,100.0
127,80.279681625,80.4969433125,79.0,120.0
128,80.63682412499999,80.71569309374999,79.0,117.0
129,80.815395375,80.89128815624998,79.0,108.0
130,80.99396662499998,81.13087124999998,79.0,117.0
131,81.351109125,81.56837081249999,72.0,116.0
132,81.70825162499999,81.952299,79.0,119.0
133,82.065394125,82.25587012499999,77.0,113.0
134,82.42253662499999,82.63533403125,77.0,120.0
135,82.77967912499999,82.87045284374999,70.0,110.0
136,82.95825037499999,83.06985740625,70.0,110.0
137,83.136821625,83.32134525,77.0,117.0
138,83.49396412499999,83.684440125,77.0,116.0
139,83.672535375,83.684440125,77.0,116.0
140,83.85110662499999,83.86301137499999,77.0,119.0
141,84.208249125,84.38533228124999,70.0,116.0
142,84.56539162499999,84.78711759375,75.0,123.0
143,84.92253412499998,85.12045059375,75.0,114.0
144,85.279676625,85.52670018749998,75.0,110.0
145,85.63681912499999,85.7350333125,72.0,107.0
146,85.81539037499999,85.9284855,72.0,98.0
147,85.993961625,86.14128290624998,75.0,119.0
148,86.35110412499999,86.53562774999999,75.0,119.0
149,86.70824662499999,86.88235359375,75.0,123.0
150,87.065389125,87.15021046874999,75.0,116.0
151,87.24396037499999,87.35259121874999,79.0,108.0
152,87.42253162499999,87.66509090624999,77.0,110.0
153,87.77967412499999,87.9433644375,77.0,114.0
154,88.136816625,88.363006875,77.0,119.0
155,88.85110162499998,89.05794665625,74.0,116.0
156,89.208244125,89.44485103125,74.0,113.0
157,89.56538662499999,89.77967212499999,70.0,119.0
158,89.922529125,90.1189575,72.0,113.0
159,90.27967162499999,90.66806409374999,72.0,116.0
160,114.565361625,114.76178999999999,72.0,116.0
161,114.92250412499999,115.13827771874999,72.0,116.0
162,115.27964662499998,115.50137259374999,72.0,114.0
163,115.63678912499999,115.92994359374998,72.0,113.0
164,115.99393162499999,116.32428843749999,70.0,119.0
165,116.35107412499998,116.57875246874998,67.0,114.0
166,116.70821662499999,117.01327584374998,67.0,113.0
167,117.06535912499999,117.31535887499999,70.0,116.0
168,117.42250162499998,117.56238243749999,70.0,100.0
169,117.59214431249998,117.92101303124998,72.0,117.0
170,120.27964162499998,120.48499856249998,72.0,114.0
171,120.63678412499999,120.83023631249999,72.0,108.0
172,120.99392662499999,121.29898584374999,72.0,114.0
173,121.35106912499998,121.58321174999999,70.0,109.0
174,121.70821162499999,121.98053278124999,72.0,114.0
175,122.06535412499998,122.37338953124998,75.0,119.0
176,122.42249662499998,122.72755584374998,72.0,104.0
177,122.77963912499999,123.12338878124999,70.0,113.0
178,123.13678162499998,123.31684096874999,67.0,113.0
179,123.32279334374999,123.48945984374998,65.0,100.0
180,123.49838840624999,123.84213806249998,67.0,100.0
181,125.99392162499998,126.22308806249998,72.0,100.0
182,126.35106412499998,126.54154012499998,72.0,102.0
183,126.70820662499999,127.01177774999998,72.0,108.0
184,127.06534912499998,127.28856318749999,67.0,108.0
185,127.42249162499999,127.69481278124998,67.0,104.0
186,127.77963412499999,128.06088384375,70.0,109.0
187,128.13677662499998,128.36296687499998,72.0,110.0
188,128.493919125,128.73052603124998,75.0,109.0
189,128.85106162499997,129.06981140624998,77.0,107.0
190,129.20820412499998,129.43439437499998,77.0,108.0
191,129.565346625,129.88975106249998,77.0,107.0
192,129.922489125,130.25135784375,75.0,113.0
193,130.27963162499998,130.470107625,77.0,102.0
194,130.44481003124997,130.59659559374998,75.0,100.0
195,130.63826221875,131.34510674999999,77.0,100.0
196,131.708201625,131.86891574999999,74.0,116.0
197,132.065344125,132.24242728124997,74.0,113.0
198,132.42248662499998,132.69183159374998,74.0,108.0
199,132.77962912499999,133.0921288125,72.0,107.0
200,133.136771625,133.41504515625,70.0,106.0
201,133.49391412499998,133.83319949999998,67.0,107.0
202,133.85105662499998,134.13528253125,70.0,116.0
203,134.208199125,134.4314131875,72.0,114.0
204,134.56534162499997,134.96712693749998,72.0,116.0
205,137.422481625,137.61890999999997,72.0,116.0
206,137.779624125,137.99539771874998,72.0,116.0
207,138.13676662499998,138.35849259375,72.0,114.0
208,138.493909125,138.78706359375,72.0,113.0
209,138.851051625,139.18140843749998,70.0,119.0
210,139.20819412499998,139.43587246874998,67.0,114.0
211,139.565336625,139.87039584374998,67.0,113.0
212,139.922479125,140.172478875,70.0,116.0
213,140.27962162499998,140.422478625,72.0,117.0
214,140.45819287499998,140.63081175,70.0,100.0
215,140.63676412499998,141.196287375,72.0,100.0
216,143.136761625,143.3421185625,72.0,114.0
217,143.49390412499997,143.6873563125,72.0,108.0
218,143.85104662499998,144.15610584375,72.0,114.0
219,144.208189125,144.44033174999998,70.0,109.0
220,144.56533162499997,144.83765278124997,72.0,114.0
221,144.92247412499998,145.23050953125,75.0,119.0
222,145.279616625,145.58467584374998,72.0,104.0
223,145.636759125,145.98050878125,70.0,113.0
224,145.99092543749998,146.1635443125,70.0,100.0
225,146.17247287499998,146.64122240625,67.0,113.0
226,148.851041625,149.0802080625,72.0,100.0
227,149.20818412499997,149.398660125,72.0,102.0
228,149.56532662499998,149.86889774999997,72.0,108.0
229,149.922469125,150.14568318749997,67.0,108.0
230,150.27961162499997,150.55193278124997,72.0,104.0
231,150.63675412499998,150.91800384374997,72.0,109.0
232,150.993896625,151.220086875,72.0,110.0
233,151.35103912499997,151.58764603125,75.0,109.0
234,151.70818162499998,151.92693140625,77.0,107.0
235,152.065324125,152.291514375,77.0,108.0
236,152.42246662499997,152.7468710625,77.0,107.0
237,152.77960912499998,153.10847784375,75.0,113.0
238,153.136751625,153.2468705625,77.0,102.0
239,153.315322875,153.45371559375,75.0,100.0
240,153.49389412499997,153.71264390624998,77.0,100.0
241,154.386750375,154.5474645,67.0,116.0
242,154.565321625,154.72603575,74.0,116.0
243,154.92246412499998,155.09954728124998,74.0,113.0
244,155.10103537499998,155.27811853125,74.0,113.0
245,155.27960662499999,155.54895159375,74.0,108.0
246,155.636749125,155.94924881249997,72.0,107.0
247,155.99389162499997,156.27216515624997,70.0,106.0
248,156.35103412499998,156.6903195,67.0,107.0
249,156.708176625,156.99240253124998,70.0,116.0
250,157.06531912499997,157.28853318749998,72.0,114.0
251,157.42246162499998,157.8242469375,72.0,116.0
252,159.922459125,160.02513759374997,72.0,113.0
253,160.101030375,160.22156596874999,72.0,100.0
254,160.27960162499997,160.49686331249998,79.0,120.0
255,160.63674412499998,160.71561309375,79.0,117.0
256,160.81531537499998,160.89120815624997,79.0,108.0
257,160.993886625,161.13079125,79.0,117.0
258,161.35102912499997,161.56829081249998,72.0,116.0
259,161.70817162499998,161.95221899999999,79.0,119.0
260,162.065314125,162.25579012499998,77.0,113.0
261,162.422456625,162.63525403124999,77.0,120.0
262,162.77959912499998,162.87037284374998,70.0,110.0
263,162.95817037499998,163.06977740624998,70.0,110.0
264,163.13674162499998,163.32126524999998,77.0,117.0
265,163.493884125,163.68436012499998,77.0,116.0
266,163.67245537499997,163.68436012499998,77.0,116.0
267,163.85102662499997,163.862931375,77.0,119.0
268,164.20816912499998,164.38525228125,70.0,116.0
269,164.565311625,164.78703759374997,75.0,123.0
270,164.92245412499997,165.12037059374998,75.0,114.0
271,165.27959662499998,165.5266201875,75.0,110.0
272,165.636739125,165.73495331249998,72.0,107.0
273,165.81531037499997,165.92840549999997,72.0,98.0
274,165.99388162499997,166.14120290625,75.0,119.0
275,166.35102412499998,166.53554774999998,75.0,119.0
276,166.708166625,166.88227359374997,75.0,123.0
277,167.06530912499997,167.15013046874998,75.0,116.0
278,167.24388037499997,167.35251121874998,79.0,108.0
279,167.42245162499998,167.66501090625,77.0,110.0
280,167.779594125,167.94328443749998,77.0,114.0
281,168.13673662499997,168.36292687499997,77.0,119.0
282,168.851021625,169.04596190624997,77.0,117.0
283,169.20816412499997,169.47453290624998,77.0,117.0
284,169.56530662499998,169.77066356249998,75.0,113.0
285,169.92244912499999,170.11441321874997,77.0,116.0
286,170.279591625,170.601019875,79.0,119.0
287,171.351019125,171.45369759374998,72.0,113.0
288,171.52959037499997,171.65012596875,72.0,100.0
289,171.70816162499997,171.9254233125,79.0,120.0
290,172.06530412499998,172.14417309374997,79.0,117.0
291,172.243875375,172.31976815624998,79.0,108.0
292,172.422446625,172.55935125,79.0,117.0
293,172.77958912499997,172.99685081249999,72.0,116.0
294,173.13673162499998,173.380779,79.0,119.0
295,173.493874125,173.68435012499998,77.0,113.0
296,173.85101662499997,174.06381403125,77.0,120.0
297,174.20815912499998,174.29893284374998,70.0,110.0
298,174.38673037499998,174.49833740625,70.0,110.0
299,174.565301625,174.74982525,77.0,117.0
300,174.92244412499997,175.112920125,77.0,116.0
301,175.10101537499997,175.112920125,77.0,116.0
302,175.27958662499998,175.291491375,77.0,119.0
303,175.636729125,175.81381228125,70.0,116.0
304,175.99387162499997,176.21559759374998,75.0,123.0
305,176.35101412499998,176.54893059375,75.0,114.0
306,176.708156625,176.9551801875,75.0,110.0
307,177.06529912499997,177.1635133125,72.0,107.0
308,177.24387037499997,177.35696549999997,72.0,98.0
309,177.42244162499998,177.56976290625,75.0,119.0
310,177.77958412499999,177.96410774999998,75.0,119.0
311,178.13672662499997,178.31083359374998,75.0,123.0
312,178.49386912499997,178.57869046874998,75.0,116.0
313,178.67244037499998,178.78107121875,79.0,108.0
314,178.85101162499998,179.09357090625,77.0,110.0
315,179.208154125,179.3718444375,77.0,114.0
316,179.56529662499997,179.79148687499998,77.0,119.0
317,180.279581625,180.48642665625,74.0,116.0
318,180.63672412499997,180.87333103125,74.0,113.0
319,180.99386662499998,181.20815212499997,70.0,119.0
320,181.351009125,181.54743749999997,72.0,113.0
321,181.70815162499997,182.09654409374997,72.0,116.0
322,184.20814912499998,184.31082759375,72.0,113.0
323,184.38672037499998,184.50725596874997,72.0,100.0
324,184.565291625,184.78255331249997,79.0,120.0
325,184.92243412499997,185.00130309374998,79.0,117.0
326,185.10100537499997,185.17689815625,79.0,108.0
327,185.27957662499998,185.41648124999998,79.0,117.0
328,185.63671912499998,185.85398081249997,72.0,116.0
329,185.99386162499997,186.23790899999997,79.0,119.0
330,186.35100412499997,186.541480125,77.0,113.0
331,186.70814662499998,186.92094403124997,77.0,120.0
332,187.065289125,187.15606284375,70.0,110.0
333,187.24386037499997,187.35546740624997,70.0,110.0
334,187.42243162499997,187.60695524999997,77.0,117.0
335,187.77957412499998,187.97005012499997,77.0,116.0
336,187.958145375,187.97005012499997,77.0,116.0
337,188.136716625,188.14862137499998,77.0,119.0
338,188.49385912499997,188.67094228124998,70.0,116.0
339,188.85100162499998,189.07272759375,75.0,123.0
340,189.208144125,189.40606059374997,75.0,114.0
341,189.56528662499997,189.81231018749997,75.0,110.0
342,189.92242912499998,190.02064331249997,72.0,107.0
343,190.10100037499998,190.21409549999998,72.0,98.0
344,190.279571625,190.42689290624998,75.0,119.0
345,190.63671412499997,190.82123774999997,75.0,119.0
346,190.99385662499998,191.16796359375,75.0,123.0
347,191.350999125,191.43582046874997,75.0,116.0
348,191.529570375,191.63820121874997,79.0,108.0
349,191.70814162499997,191.95070090624998,77.0,110.0
350,192.06528412499998,192.22897443749997,77.0,114.0
351,192.42242662499999,192.648616875,77.0,119.0
352,193.13671162499998,193.33165190625,77.0,117.0
353,193.49385412499998,193.76022290624996,77.0,117.0
354,193.85099662499996,194.05635356249996,75.0,113.0
355,194.20813912499997,194.40010321875,77.0,116.0
356,194.56528162499998,194.88670987499998,79.0,119.0
357,195.63670912499998,195.73938759374997,72.0,113.0
358,195.815280375,195.93581596874998,72.0,100.0
359,195.993851625,196.21111331249998,79.0,120.0
360,196.35099412499997,196.42986309375,79.0,117.0
361,196.52956537499998,196.60545815624997,79.0,108.0
362,196.70813662499998,196.84504124999998,79.0,117.0
363,197.065279125,197.28254081249997,72.0,116.0
364,197.42242162499997,197.66646899999998,79.0,119.0
365,197.77956412499998,197.97004012499997,77.0,113.0
366,198.136706625,198.34950403124998,77.0,120.0
367,198.49384912499997,198.58462284374997,70.0,110.0
368,198.67242037499997,198.78402740624998,70.0,110.0
369,198.85099162499998,199.03551524999997,77.0,117.0
370,199.208134125,199.39861012499998,77.0,116.0
371,199.386705375,199.39861012499998,77.0,116.0
372,199.56527662499997,199.57718137499998,77.0,119.0
373,199.92241912499998,200.09950228124998,82.0,116.0
374,200.27956162499999,200.50128759374996,77.0,123.0
375,200.63670412499997,200.83462059374997,75.0,114.0
376,200.99384662499997,201.24087018749998,75.0,110.0
377,201.35098912499998,201.44920331249998,72.0,107.0
378,201.529560375,201.6426555,72.0,98.0
379,201.70813162499996,201.85545290624998,75.0,119.0
380,202.06527412499997,202.24979774999997,75.0,119.0
381,202.42241662499998,202.59652359374996,75.0,123.0
382,202.77955912499996,202.86438046874997,75.0,116.0
383,202.95813037499997,203.06676121874997,79.0,108.0
384,203.13670162499997,203.37926090624998,77.0,110.0
385,203.49384412499998,203.65753443749998,77.0,114.0
386,203.850986625,204.07717687499996,77.0,119.0
387,204.56527162499998,204.77211665624998,74.0,116.0
388,204.922414125,205.15902103124998,74.0,113.0
389,205.27955662499997,205.493842125,70.0,119.0
390,205.63669912499998,205.8331275,72.0,113.0
391,205.993841625,206.38223409375,72.0,116.0
392,208.49383912499997,208.74383887499997,75.0,113.0
393,208.85098162499997,209.12181468749998,79.0,116.0
394,209.20812412499998,210.39859912499998,77.0,119.0
395,211.708121625,212.14413309374999,70.0,123.0
396,212.42240662499998,212.79443006249997,72.0,119.0
397,213.13669162499997,213.58163165624998,72.0,116.0
