,start,end,pitch,velocity
0,0.27976162499999996,5.752970437499999,72.0,87.0
1,0.27976162499999996,5.766363281249999,67.0,89.0
2,0.27976162499999996,5.782732312499999,63.0,84.0
3,0.27976162499999996,5.824398937499999,48.0,86.0
4,5.9940416249999995,11.467250437499999,72.0,87.0
5,5.9940416249999995,11.480643281249998,67.0,89.0
6,5.9940416249999995,11.497012312499999,63.0,84.0
7,5.9940416249999995,11.538678937499999,48.0,86.0
8,11.708321624999998,12.122011687499999,72.0,88.0
9,11.708321624999998,12.197904468749998,67.0,91.0
10,11.708321624999998,12.206833031249998,63.0,86.0
11,12.065464124999998,12.76635628125,55.0,70.0
12,11.708321624999998,12.772308656249999,48.0,87.0
13,12.422606624999998,12.791653874999998,63.0,95.0
14,12.422606624999998,12.979153687499998,72.0,93.0
15,12.779749124999999,13.132427343749999,60.0,84.0
16,13.136891624999999,13.691950593749999,72.0,88.0
17,13.136891624999999,13.71576009375,68.0,95.0
18,13.136891624999999,13.718736281249999,65.0,87.0
19,13.136891624999999,14.266354781249998,53.0,88.0
20,13.851176624999999,14.270819062499998,68.0,95.0
21,13.851176624999999,14.27230715625,72.0,88.0
22,13.851176624999999,14.284211906249999,65.0,91.0
23,14.565461624999998,14.965758843749999,70.0,82.0
24,14.565461624999998,15.001473093749999,62.0,86.0
25,14.565461624999998,15.019330218749998,65.0,89.0
26,14.922604124999998,15.342246562499998,58.0,77.0
27,14.565461624999998,15.614567718749997,46.0,85.0
28,15.279746624999998,15.623496281249999,70.0,86.0
29,15.279746624999998,15.647305781249997,65.0,96.0
30,15.279746624999998,15.659210531249999,62.0,91.0
31,15.636889124999998,15.766353281249998,58.0,84.0
32,16.351174124999996,16.79016178125,63.0,86.0
33,15.994031624999998,17.12647096875,51.0,103.0
34,17.065459124999997,17.1517685625,63.0,97.0
35,16.708316625,17.39432784375,70.0,116.0
36,16.708316625,17.409208781249998,67.0,107.0
37,17.422601625,17.867541656249998,60.0,91.0
38,17.422601625,17.867541656249998,63.0,100.0
39,17.779744124999997,18.17111278125,56.0,81.0
40,17.422601625,18.480636281249996,44.0,93.0
41,18.136886625,18.645814687499996,60.0,94.0
42,18.136886625,18.653255156249998,63.0,113.0
43,18.494029124999997,18.718731281249998,56.0,82.0
44,18.851171625,19.288671187499997,65.0,104.0
45,18.851171625,19.310992593749997,62.0,107.0
46,19.208314124999998,19.60265896875,58.0,84.0
47,18.851171625,19.9612895625,46.0,90.0
48,19.565456625,20.028253781249997,65.0,110.0
49,19.922599124999998,20.056527562499998,58.0,85.0
50,19.565456625,20.2231940625,62.0,114.0
51,20.279741624999996,20.694919781249997,60.0,88.0
52,20.279741624999996,20.860098187499997,63.0,97.0
53,20.279741624999996,20.9612885625,67.0,96.0
54,21.351169125,21.757418718749996,62.0,93.0
55,20.994026624999996,22.575870281249998,60.0,87.0
56,20.279741624999996,22.602655968749996,48.0,88.0
57,20.636884124999998,22.608608343749996,55.0,77.0
58,21.708311624999997,22.610096437499998,67.0,88.0
59,21.708311624999997,22.622001187499997,63.0,88.0
60,23.136881624999997,23.501464593749997,60.0,78.0
61,23.851166624999998,24.12348778125,60.0,83.0
62,23.136881624999997,24.19194009375,48.0,84.0
63,23.494024124999996,24.199380562499996,55.0,75.0
64,23.136881624999997,24.473189812499996,67.0,81.0
65,23.136881624999997,24.489558843749997,63.0,76.0
66,24.922594124999996,25.583307749999996,58.0,74.0
67,24.565451624999998,25.586283937499996,46.0,81.0
68,24.565451624999998,25.877950312499998,65.0,78.0
69,24.565451624999998,26.023783499999997,62.0,87.0
70,25.994021625,26.305033218749998,60.0,80.0
71,25.994021625,26.959794468749998,67.0,83.0
72,26.708306625,28.203840843749997,60.0,76.0
73,26.351164124999997,28.281221718749997,55.0,66.0
74,25.994021625,28.310983593749995,48.0,80.0
75,27.065449124999997,28.505923874999997,67.0,78.0
76,27.065449124999997,28.662173718749997,62.0,80.0
77,28.851161624999996,29.974672406249997,44.0,89.0
78,29.208304124999998,30.007410468749995,56.0,83.0
79,29.565446624999996,30.261874499999998,67.0,86.0
80,29.565446624999996,30.343719656249995,60.0,81.0
81,29.565446624999996,30.415148156249998,63.0,84.0
82,30.636874124999995,31.282706812499995,58.0,83.0
83,30.279731624999997,31.330325812499996,46.0,86.0
84,30.994016624999997,31.812468187499995,65.0,88.0
85,30.994016624999997,31.886872874999998,62.0,88.0
86,31.708301624999997,33.8779423125,39.0,95.0
87,32.065444125,33.91216846875,51.0,79.0
88,32.422586624999994,34.244013374999994,55.0,73.0
89,32.779729124999996,34.318418062499994,63.0,87.0
90,33.851156624999994,34.322882343749995,58.0,85.0
91,34.565441625,34.904726999999994,60.0,83.0
92,34.565441625,35.069905406249994,63.0,84.0
93,34.565441625,35.220202875,67.0,76.0
94,34.565441625,36.8779393125,48.0,84.0
95,35.279726624999995,36.89430834375,60.0,80.0
96,34.92258412499999,36.925558312499994,55.0,74.0
97,35.994011625,37.022284406249995,67.0,76.0
98,35.994011625,37.08329625,63.0,84.0
99,37.42258162499999,38.206807031249994,62.0,84.0
100,37.42258162499999,38.48656865624999,65.0,86.0
101,37.779724124999994,39.74549596874999,53.0,65.0
102,38.136866624999996,39.7469840625,58.0,74.0
103,37.42258162499999,39.8541268125,46.0,83.0
104,38.494009125,40.300554937499996,70.0,83.0
105,38.494009125,40.31692396875,62.0,82.0
106,40.27972162499999,41.182994531249996,67.0,87.0
107,40.27972162499999,41.59073221875,58.0,85.0
108,41.708291624999994,42.516326531249995,67.0,75.0
109,41.708291624999994,42.54013603124999,58.0,71.0
110,40.27972162499999,42.784183406249994,43.0,83.0
111,40.636864124999995,42.827338125,50.0,73.0
112,40.994006625,42.886861874999994,55.0,81.0
113,41.35114912499999,42.98507606249999,62.0,83.0
114,44.20828912499999,45.624954374999994,67.0,82.0
115,43.136861624999995,45.65025196875,48.0,86.0
116,43.494004125,45.681501937499995,55.0,78.0
117,43.851146625,45.708287625,60.0,81.0
118,44.20828912499999,45.72912093749999,63.0,75.0
119,45.994001624999996,46.473167812499995,67.0,89.0
120,45.994001624999996,46.52822728125,60.0,86.0
121,45.994001624999996,46.53715584374999,63.0,87.0
122,46.351144125,46.7380485,55.0,70.0
123,45.994001624999996,47.098167187499996,48.0,86.0
124,46.70828662499999,47.28864318749999,67.0,89.0
125,46.70828662499999,47.31394078125,60.0,88.0
126,46.70828662499999,47.32286934374999,63.0,88.0
127,47.422571624999996,47.891321156249994,65.0,88.0
128,47.422571624999996,47.958285374999996,62.0,91.0
129,47.422571624999996,48.477630093749994,46.0,83.0
130,47.779714125,48.54757049999999,58.0,73.0
131,48.13685662499999,48.663641812499996,65.0,90.0
132,48.13685662499999,48.863046374999996,62.0,92.0
133,48.851141625,49.171081781249995,60.0,84.0
134,48.851141625,49.654712249999996,63.0,86.0
135,48.851141625,49.76483118749999,67.0,88.0
136,49.56542662499999,50.32435443749999,60.0,82.0
137,49.922569124999995,50.691913593749995,65.0,89.0
138,49.922569124999995,50.72762784374999,62.0,91.0
139,50.63685412499999,51.13834171874999,60.0,84.0
140,48.851141625,51.23060353125,48.0,86.0
141,49.20828412499999,51.23953209374999,55.0,69.0
142,50.993996624999994,51.55947224999999,65.0,102.0
143,50.993996624999994,51.61601981249999,62.0,104.0
144,52.06542412499999,52.54012603125,56.0,93.0
145,51.70828162499999,52.825840031249996,44.0,95.0
146,52.779709125,53.15470875,56.0,83.0
147,52.422566624999995,53.35857759374999,60.0,91.0
148,52.422566624999995,53.50589887499999,63.0,106.0
149,53.49399412499999,54.01780312499999,58.0,87.0
150,53.13685162499999,54.2142315,46.0,86.0
151,54.208279125,54.586254937499994,58.0,86.0
152,53.851136624999995,54.65173106249999,62.0,100.0
153,53.851136624999995,54.659171531249996,65.0,104.0
154,55.279706624999996,55.66512290624999,70.0,97.0
155,54.922564124999994,55.88089649999999,63.0,87.0
156,55.63684912499999,56.42851499999999,67.0,91.0
157,56.351134124999994,56.80351462499999,63.0,86.0
158,54.56542162499999,56.86006218749999,51.0,86.0
159,56.708276624999996,57.05500246875,67.0,114.0
160,56.708276624999996,57.05797865624999,70.0,116.0
161,57.06541912499999,57.20827612499999,51.0,90.0
162,57.42256162499999,57.83922787499999,67.0,91.0
163,57.42256162499999,57.876430218749995,60.0,89.0
164,57.42256162499999,57.8808945,63.0,97.0
165,57.779704124999995,58.492501031249994,55.0,73.0
166,57.42256162499999,58.51035815624999,48.0,88.0
167,58.136846625,58.616012812499996,60.0,89.0
168,58.136846625,58.62047709374999,63.0,100.0
169,58.136846625,58.63238184375,67.0,100.0
170,58.851131624999994,59.31392878124999,67.0,89.0
171,58.851131624999994,59.379404906249995,60.0,86.0
172,58.851131624999994,59.38684537499999,63.0,86.0
173,58.851131624999994,59.95827337499999,48.0,82.0
174,59.56541662499999,60.10708275,60.0,89.0
175,59.56541662499999,60.11005893749999,67.0,94.0
176,59.56541662499999,60.12196368749999,63.0,93.0
177,60.279701624999994,60.69636787499999,65.0,104.0
178,60.279701624999994,60.71571309374999,62.0,94.0
179,60.636844124999996,61.168093593749994,58.0,82.0
180,60.99398662499999,62.05350937499999,70.0,90.0
181,60.99398662499999,62.077318874999996,62.0,87.0
182,60.99398662499999,62.09368790624999,65.0,102.0
183,62.06541412499999,62.584758843749995,58.0,86.0
184,60.279701624999994,62.647258781249995,46.0,87.0
185,62.42255662499999,63.092198812499994,62.0,96.0
186,62.42255662499999,63.098151187499994,65.0,110.0
187,62.42255662499999,63.10707974999999,70.0,91.0
188,63.136841624999995,63.876424218749996,67.0,100.0
189,63.136841624999995,64.00142409374999,58.0,95.0
190,63.85112662499999,64.6457686875,55.0,82.0
191,64.20826912499999,64.91660175,67.0,107.0
192,64.20826912499999,65.041601625,62.0,102.0
193,64.92255412499999,65.31689896875,55.0,86.0
194,63.136841624999995,65.57285109374999,43.0,90.0
195,63.49398412499999,65.64279149999999,50.0,82.0
196,65.279696625,65.70826762499999,58.0,100.0
197,65.279696625,65.81392228124999,67.0,107.0
198,65.636839125,66.01035065625,55.0,88.0
199,65.99398162499999,66.37344553125,67.0,90.0
200,65.99398162499999,66.46124306249999,60.0,89.0
201,65.99398162499999,66.51630253124999,63.0,90.0
202,66.708266625,66.88386168749999,60.0,93.0
203,66.708266625,66.970171125,63.0,109.0
204,66.708266625,66.9790996875,67.0,96.0
205,67.06540912499999,67.54457531249999,60.0,86.0
206,67.422551625,67.87493212499999,72.0,100.0
207,67.422551625,68.03713434375,63.0,95.0
208,67.77969412499999,68.1517175625,60.0,86.0
209,68.13683662499999,68.38534828124999,63.0,84.0
210,68.13683662499999,68.40766968749999,72.0,94.0
211,68.13683662499999,68.41808634374999,67.0,100.0
212,68.493979125,68.60260996874999,60.0,84.0
213,65.99398162499999,68.61749090625,48.0,90.0
214,66.351124125,68.69784796875,55.0,79.0
215,68.85112162499999,69.22612124999999,67.0,102.0
216,68.85112162499999,69.26332359374999,60.0,92.0
217,68.85112162499999,69.26927596875,63.0,106.0
218,69.20826412499999,69.64129940625,55.0,83.0
219,68.85112162499999,69.64725178124999,48.0,96.0
220,69.92254912499999,70.03713234374999,48.0,91.0
221,69.565406625,70.065406125,67.0,104.0
222,69.565406625,70.1219536875,60.0,96.0
223,69.565406625,70.12790606249999,63.0,106.0
224,70.279691625,70.70677453124999,65.0,94.0
225,70.279691625,70.74248878124999,62.0,100.0
226,70.636834125,71.0445718125,58.0,83.0
227,70.99397662499999,71.31986915625,65.0,107.0
228,70.99397662499999,71.32135724999999,62.0,110.0
229,70.279691625,71.339214375,46.0,87.0
230,71.351119125,71.7171901875,58.0,87.0
231,71.70826162499999,71.7171901875,58.0,87.0
232,71.70826162499999,72.0921898125,67.0,92.0
233,72.06540412499999,72.51927271874999,55.0,78.0
234,72.422546625,72.76629628124999,58.0,84.0
235,71.70826162499999,72.80201053124999,43.0,89.0
236,72.422546625,72.80796290625,67.0,92.0
237,72.422546625,72.84962953124999,62.0,98.0
238,72.77968912499999,73.1279030625,55.0,85.0
239,73.13683162499999,73.54010503125,67.0,88.0
240,73.13683162499999,73.59962878124999,60.0,86.0
241,73.13683162499999,73.62939065625,63.0,88.0
242,73.493974125,74.19189009374999,55.0,77.0
243,73.13683162499999,74.20528293749999,48.0,88.0
244,73.85111662499999,74.553496875,67.0,98.0
245,73.85111662499999,74.58474684375,60.0,92.0
246,73.85111662499999,74.61748490625,63.0,106.0
247,74.92254412499999,75.33772228125,56.0,85.0
248,74.56540162499999,75.66212671874999,44.0,103.0
249,75.63682912499999,76.00736446875,56.0,87.0
250,75.279686625,76.04754299999999,60.0,94.0
251,75.279686625,76.12045959374998,63.0,109.0
252,75.279686625,76.12938815624999,68.0,106.0
253,76.351114125,76.80349462499998,58.0,89.0
254,75.99397162499999,77.13236334374999,46.0,95.0
255,77.06539912499998,77.17105378125,58.0,91.0
256,76.70825662499999,77.42998209374998,62.0,93.0
257,76.70825662499999,77.44039874999999,65.0,108.0
258,77.422541625,77.88385068749999,68.0,97.0
259,77.422541625,77.90914828125,63.0,106.0
260,77.77968412499999,78.16510040624999,51.0,75.0
261,78.136826625,78.46271915624999,68.0,93.0
262,78.136826625,78.48801674999999,63.0,109.0
263,77.422541625,78.49248103125,39.0,91.0
264,78.49396912499999,78.60706425,51.0,85.0
265,78.85111162499999,79.30498021874999,67.0,87.0
266,78.85111162499999,79.40021821874998,59.0,88.0
267,78.85111162499999,79.40021821874998,62.0,96.0
268,79.38682537499999,79.61003943749999,55.0,77.0
269,78.85111162499999,79.8481344375,43.0,88.0
270,79.56539662499999,79.95378909374999,59.0,94.0
271,79.56539662499999,79.98057478124998,67.0,104.0
272,79.56539662499999,80.10706275,62.0,108.0
273,79.92253912499999,80.26182449999999,55.0,91.0
274,80.279681625,80.70527643749999,67.0,98.0
275,80.279681625,80.74545496875,60.0,93.0
276,80.279681625,80.755871625,63.0,106.0
277,80.63682412499999,81.03563324999999,55.0,71.0
278,81.351109125,81.45973996874999,55.0,86.0
279,80.279681625,81.51479943749999,48.0,88.0
280,80.99396662499998,81.70081115625,67.0,108.0
281,80.99396662499998,81.72164446874999,60.0,98.0
282,80.99396662499998,81.75587062499999,63.0,116.0
283,82.065394125,82.53116746874998,58.0,90.0
284,81.70825162499999,82.5564650625,46.0,91.0
285,82.77967912499999,82.86896474999999,46.0,74.0
286,82.77967912499999,82.898726625,58.0,95.0
287,82.42253662499999,83.16955968749998,65.0,104.0
288,82.42253662499999,83.18295253125,62.0,104.0
289,83.136821625,83.50438078124999,67.0,89.0
290,83.136821625,83.71420199999999,58.0,93.0
291,83.85110662499999,84.172534875,58.0,81.0
292,83.136821625,84.17699915624999,43.0,92.0
293,83.49396412499999,84.22759434374998,50.0,77.0
294,83.85110662499999,84.25735621874999,67.0,94.0
295,83.85110662499999,84.5028916875,62.0,102.0
296,84.208249125,84.571344,55.0,88.0
297,84.56539162499999,85.00289118749998,67.0,92.0
298,84.56539162499999,85.02223640624999,60.0,88.0
299,84.56539162499999,85.07283159375,63.0,89.0
300,84.92253412499998,85.41211696874998,55.0,81.0
301,84.56539162499999,85.70080715625,48.0,89.0
302,85.63681912499999,85.7231285625,55.0,86.0
303,85.279676625,85.98949734374999,60.0,91.0
304,85.279676625,86.005866375,67.0,92.0
305,85.279676625,86.03265206249999,63.0,103.0
306,86.35110412499999,86.77818703124998,56.0,85.0
307,85.993961625,87.07878196875,44.0,103.0
308,87.065389125,87.44038875,56.0,86.0
309,86.70824662499999,87.56985290624999,60.0,96.0
310,86.70824662499999,87.62640046874999,63.0,109.0
311,87.77967412499999,88.21568559375,58.0,91.0
312,88.136816625,88.56687571874998,62.0,100.0
313,88.49395912499999,88.58324474999999,58.0,85.0
314,87.42253162499999,88.60110187499998,46.0,87.0
315,88.85110162499998,89.22610124999999,67.0,90.0
316,88.85110162499998,89.31538687499999,58.0,85.0
317,88.85110162499998,89.35705349999999,62.0,89.0
318,89.208244125,89.65318415624999,50.0,75.0
319,89.56538662499999,89.95229099999999,58.0,91.0
320,88.85110162499998,89.96866003125,43.0,88.0
321,89.56538662499999,90.15615984374999,67.0,100.0
322,89.56538662499999,90.21270740624999,62.0,102.0
323,90.27967162499999,90.70675453124998,67.0,87.0
324,90.27967162499999,90.79306396874999,60.0,86.0
325,90.27967162499999,90.80943299999998,63.0,90.0
326,90.63681412499999,91.05496846874999,55.0,74.0
327,90.993956625,91.41657525,67.0,89.0
328,90.993956625,91.46568234374999,60.0,87.0
329,90.993956625,91.541575125,63.0,88.0
330,90.27967162499999,91.59365840624999,48.0,81.0
331,91.35109912499999,91.68294403124999,55.0,68.0
332,91.70824162499999,94.410619875,60.0,82.0
333,91.70824162499999,94.4552626875,67.0,87.0
334,91.70824162499999,94.46567934374998,63.0,83.0
335,91.70824162499999,94.48948884375,48.0,85.0
336,100.27966162499999,101.49245803125,44.0,78.0
337,100.27966162499999,101.56537462499999,60.0,80.0
338,100.27966162499999,101.57727937499999,56.0,81.0
339,100.27966162499999,101.59811268749999,68.0,82.0
340,100.27966162499999,101.77668393749998,63.0,84.0
341,101.70823162499998,102.7231115625,46.0,83.0
342,101.70823162499998,102.78412340624999,70.0,83.0
343,101.70823162499998,102.80495671874999,58.0,85.0
344,101.70823162499998,102.80942099999999,62.0,80.0
345,101.70823162499998,102.95525418749999,65.0,85.0
346,103.13680162499999,103.52965837499998,60.0,83.0
347,103.13680162499999,103.60555115624999,67.0,87.0
348,103.13680162499999,103.63233684374998,63.0,86.0
349,103.13680162499999,103.96864603124999,48.0,86.0
350,103.49394412499998,104.01031265625,55.0,77.0
351,103.851086625,104.30049093749999,60.0,87.0
352,104.20822912499999,104.31090759374999,48.0,88.0
353,103.851086625,104.45525268749999,67.0,89.0
354,103.851086625,104.53858593749999,63.0,90.0
355,104.56537162499998,105.02816878124999,70.0,90.0
356,104.56537162499998,105.07429968749999,65.0,86.0
357,104.56537162499998,105.08769253124998,62.0,84.0
358,104.92251412499999,105.33322799999999,58.0,77.0
359,104.56537162499998,105.684418125,46.0,83.0
360,105.63679912499998,105.73650140624999,58.0,84.0
361,105.27965662499999,105.88828696875,70.0,85.0
362,105.27965662499999,106.00584637499999,65.0,90.0
363,105.27965662499999,106.11745340625,62.0,88.0
364,106.35108412499999,106.79007178124999,58.0,85.0
365,105.99394162499999,106.83471459375,46.0,87.0
366,106.708226625,107.46715443749999,70.0,93.0
367,106.708226625,107.48649965624999,65.0,100.0
368,106.708226625,107.50435678124998,62.0,88.0
369,107.779654125,108.22459415624999,51.0,85.0
370,107.42251162499998,108.50435578124998,39.0,100.0
371,108.49393912499998,108.64423659375,51.0,87.0
372,108.13679662499999,108.8957244375,67.0,104.0
373,108.13679662499999,108.92102203124999,63.0,86.0
374,108.85108162499999,108.92102203124999,63.0,93.0
375,108.85108162499999,109.21864078124999,68.0,87.0
376,108.85108162499999,109.28411690624999,60.0,88.0
377,109.20822412499999,109.63679512499999,56.0,85.0
378,108.85108162499999,109.87340203124998,44.0,88.0
379,109.56536662499998,109.99989,60.0,89.0
380,109.56536662499998,110.02816378124999,68.0,86.0
381,109.56536662499998,110.17994934374998,63.0,97.0
382,109.92250912499999,110.28262781249998,56.0,85.0
383,110.27965162499999,110.75435353124999,65.0,102.0
384,110.27965162499999,110.80346062499999,62.0,88.0
385,110.636794125,111.06238893749999,58.0,82.0
386,110.27965162499999,111.36447196874998,46.0,82.0
387,110.99393662499999,111.39721003124998,62.0,88.0
388,111.35107912499998,111.52518609375,58.0,83.0
389,110.99393662499999,111.68143593749998,65.0,98.0
390,111.708221625,112.13084024999999,60.0,85.0
391,111.708221625,112.27369724999998,63.0,88.0
392,111.708221625,112.52667318749998,67.0,88.0
393,112.77964912499999,113.65167206249998,67.0,83.0
394,112.77964912499999,113.67696965624998,62.0,86.0
395,112.42250662499998,114.23351671874998,60.0,82.0
396,112.06536412499999,114.29899284374999,55.0,71.0
397,111.708221625,114.32429043749998,48.0,88.0
398,113.85107662499999,114.32429043749998,63.0,87.0
399,113.85107662499999,114.37488562499999,67.0,87.0
400,114.565361625,114.92994459375,60.0,78.0
401,115.27964662499998,115.55196778124999,60.0,83.0
402,114.565361625,115.62042009374998,48.0,84.0
403,114.92250412499999,115.62786056249999,55.0,75.0
404,114.565361625,115.90166981249999,67.0,81.0
405,114.565361625,115.91803884374998,63.0,76.0
406,116.35107412499998,117.01178774999998,58.0,74.0
407,115.99393162499999,117.01476393749999,46.0,81.0
408,115.99393162499999,117.30643031249998,65.0,78.0
409,115.99393162499999,117.45226349999999,62.0,87.0
410,117.42250162499998,117.73351321874999,60.0,80.0
411,117.42250162499998,118.38827446874998,67.0,83.0
412,118.13678662499998,119.63232084374998,60.0,76.0
413,117.77964412499999,119.70970171874998,55.0,66.0
414,117.42250162499998,119.73946359374999,48.0,80.0
415,118.49392912499998,119.93440387499999,67.0,78.0
416,118.49392912499998,120.09065371874999,62.0,80.0
417,120.27964162499998,121.40315240624999,44.0,89.0
418,120.63678412499999,121.43589046874999,56.0,83.0
419,120.99392662499999,121.69035449999998,67.0,86.0
420,120.99392662499999,121.77219965624998,60.0,81.0
421,120.99392662499999,121.84362815624999,63.0,84.0
422,122.06535412499998,122.71118681249999,58.0,83.0
423,121.70821162499999,122.75880581249999,46.0,86.0
424,122.42249662499998,123.24094818749998,65.0,88.0
425,122.42249662499998,123.31535287499999,62.0,88.0
426,123.13678162499998,125.30642231249999,39.0,95.0
427,123.49392412499999,125.34064846874999,51.0,79.0
428,123.85106662499999,125.67249337499999,55.0,73.0
429,124.20820912499998,125.74689806249998,63.0,87.0
430,125.27963662499998,125.75136234374999,58.0,85.0
431,125.99392162499998,126.33320699999999,60.0,83.0
432,125.99392162499998,126.49838540624998,63.0,84.0
433,125.99392162499998,126.64868287499999,67.0,76.0
434,125.99392162499998,128.3064193125,48.0,84.0
435,126.70820662499999,128.32278834374998,60.0,80.0
436,126.35106412499998,128.3540383125,55.0,74.0
437,127.42249162499999,128.45076440625,67.0,76.0
438,127.42249162499999,128.51177625,63.0,84.0
439,128.85106162499997,129.63528703125,62.0,84.0
440,128.85106162499997,129.91504865624998,65.0,86.0
441,129.20820412499998,131.17397596874997,53.0,65.0
442,129.565346625,131.1754640625,58.0,74.0
443,128.85106162499997,131.28260681249998,46.0,83.0
444,129.922489125,131.7290349375,70.0,83.0
445,129.922489125,131.74540396875,62.0,82.0
446,131.708201625,132.61147453125,67.0,87.0
447,131.708201625,133.01921221875,58.0,85.0
448,133.136771625,133.94480653124998,67.0,75.0
449,133.136771625,133.96861603124998,58.0,71.0
450,131.708201625,134.21266340625,43.0,83.0
451,132.065344125,134.255818125,50.0,73.0
452,132.42248662499998,134.31534187499997,55.0,81.0
453,132.77962912499999,134.4135560625,62.0,83.0
454,135.63676912499997,137.053434375,67.0,82.0
455,134.56534162499997,137.07873196875,48.0,86.0
456,134.92248412499998,137.10998193749998,55.0,78.0
457,135.279626625,137.13676762499998,60.0,81.0
458,135.63676912499997,137.15760093749998,63.0,75.0
459,137.422481625,137.9016478125,67.0,89.0
460,137.422481625,137.95670728124998,60.0,86.0
461,137.422481625,137.96563584375,63.0,87.0
462,137.779624125,138.1665285,55.0,70.0
463,137.422481625,138.52664718749998,48.0,86.0
464,138.13676662499998,138.7171231875,67.0,89.0
465,138.13676662499998,138.74242078125,60.0,88.0
466,138.13676662499998,138.75134934374998,63.0,88.0
467,138.851051625,139.31980115624998,65.0,88.0
468,138.851051625,139.38676537499998,62.0,91.0
469,138.851051625,139.90611009375,46.0,83.0
470,139.20819412499998,139.97605049999999,58.0,73.0
471,139.565336625,140.09212181249998,65.0,90.0
472,139.565336625,140.291526375,62.0,92.0
473,140.27962162499998,140.59956178124997,60.0,84.0
474,140.27962162499998,141.08319225,63.0,86.0
475,140.27962162499998,141.19331118749997,67.0,88.0
476,140.993906625,141.75283443749998,60.0,82.0
477,141.35104912499997,142.12039359374998,65.0,89.0
478,141.35104912499997,142.15610784375,62.0,91.0
479,142.065334125,142.56682171875,60.0,84.0
480,140.27962162499998,142.65908353125,48.0,86.0
481,140.63676412499998,142.66801209374998,55.0,69.0
482,142.42247662499997,142.98795224999998,65.0,102.0
483,142.42247662499997,143.0444998125,62.0,104.0
484,143.49390412499997,143.96860603124998,56.0,93.0
485,143.136761625,144.25432003125,44.0,95.0
486,144.208189125,144.58318874999998,56.0,83.0
487,143.85104662499998,144.78705759374998,60.0,91.0
488,143.85104662499998,144.934378875,63.0,106.0
489,144.92247412499998,145.44628312499998,58.0,87.0
490,144.56533162499997,145.6427115,46.0,86.0
491,145.636759125,146.01473493749998,58.0,86.0
492,145.279616625,146.08021106249998,62.0,100.0
493,145.279616625,146.08765153124997,65.0,104.0
494,146.708186625,147.09360290624997,70.0,97.0
495,146.351044125,147.30937649999998,63.0,87.0
496,147.06532912499998,147.85699499999998,67.0,91.0
497,147.779614125,148.23199462499997,63.0,86.0
498,145.99390162499998,148.28854218749998,51.0,86.0
499,148.13675662499998,148.48348246875,67.0,114.0
500,148.13675662499998,148.48645865625,70.0,116.0
501,148.49389912499998,148.63675612499998,51.0,90.0
502,148.851041625,149.26770787499999,67.0,91.0
503,148.851041625,149.30491021875,60.0,89.0
504,148.851041625,149.3093745,63.0,97.0
505,149.20818412499997,149.92098103125,55.0,73.0
506,148.851041625,149.93883815624997,48.0,88.0
507,149.56532662499998,150.04449281249998,60.0,89.0
508,149.56532662499998,150.04895709374998,63.0,100.0
509,149.56532662499998,150.06086184375,67.0,100.0
510,150.27961162499997,150.74240878125,67.0,89.0
511,150.27961162499997,150.80788490625,60.0,86.0
512,150.27961162499997,150.815325375,63.0,86.0
513,150.27961162499997,151.38675337499998,48.0,82.0
514,150.993896625,151.53556275,60.0,89.0
515,150.993896625,151.5385389375,67.0,94.0
516,150.993896625,151.55044368749998,63.0,93.0
517,151.70818162499998,152.12484787499997,65.0,104.0
518,151.70818162499998,152.14419309374998,62.0,94.0
519,152.065324125,152.59657359374998,58.0,82.0
520,152.42246662499997,153.48198937499998,70.0,90.0
521,152.42246662499997,153.50579887499998,62.0,87.0
522,152.42246662499997,153.52216790625,65.0,102.0
523,153.49389412499997,154.01323884374997,58.0,86.0
524,151.70818162499998,154.07573878124998,46.0,87.0
525,153.85103662499998,154.5206788125,62.0,96.0
526,153.85103662499998,154.5266311875,65.0,110.0
527,153.85103662499998,154.53555974999998,70.0,91.0
528,154.565321625,155.30490421874998,67.0,100.0
529,154.565321625,155.42990409375,58.0,95.0
530,155.27960662499999,156.0742486875,55.0,82.0
531,155.636749125,156.34508175,67.0,107.0
532,155.636749125,156.47008162499998,62.0,102.0
533,156.35103412499998,156.74537896874998,55.0,86.0
534,154.565321625,157.00133109374997,43.0,90.0
535,154.92246412499998,157.0712715,50.0,82.0
536,156.708176625,157.13674762499997,58.0,100.0
537,156.708176625,157.24240228124998,67.0,107.0
538,157.06531912499997,157.43883065625,55.0,88.0
539,157.42246162499998,157.80192553125,67.0,90.0
540,157.42246162499998,157.8897230625,60.0,89.0
541,157.42246162499998,157.94478253124998,63.0,90.0
542,158.13674662499997,158.31234168749998,60.0,93.0
543,158.13674662499997,158.398651125,63.0,109.0
544,158.13674662499997,158.40757968749998,67.0,96.0
545,158.49388912499998,158.97305531249998,60.0,86.0
546,158.851031625,159.303412125,72.0,100.0
547,158.851031625,159.46561434375,63.0,95.0
548,159.20817412499997,159.5801975625,60.0,86.0
549,159.56531662499998,159.81382828124998,63.0,84.0
550,159.56531662499998,159.83614968749998,72.0,94.0
551,159.56531662499998,159.84656634374997,67.0,100.0
552,159.922459125,160.03108996875,60.0,84.0
553,157.42246162499998,160.04597090624998,48.0,90.0
554,157.779604125,160.12632796875,55.0,79.0
555,160.27960162499997,160.65460124999998,67.0,102.0
556,160.27960162499997,160.69180359375,60.0,92.0
557,160.27960162499997,160.69775596875,63.0,106.0
558,160.63674412499998,161.06977940624998,55.0,83.0
559,160.27960162499997,161.07573178124997,48.0,96.0
560,161.35102912499997,161.46561234375,48.0,91.0
561,160.993886625,161.493886125,67.0,104.0
562,160.993886625,161.55043368749998,60.0,96.0
563,160.993886625,161.55638606249997,63.0,106.0
564,161.70817162499998,162.13525453124998,65.0,94.0
565,161.70817162499998,162.17096878124997,62.0,100.0
566,162.065314125,162.4730518125,58.0,83.0
567,162.422456625,162.74834915625,65.0,107.0
568,162.422456625,162.74983724999998,62.0,110.0
569,161.70817162499998,162.767694375,46.0,87.0
570,162.77959912499998,163.14567018749997,58.0,87.0
571,163.13674162499998,163.14567018749997,58.0,87.0
572,163.13674162499998,163.5206698125,67.0,92.0
573,163.493884125,163.94775271874997,55.0,78.0
574,163.85102662499997,164.19477628124997,58.0,84.0
575,163.13674162499998,164.23049053124998,43.0,89.0
576,163.85102662499997,164.23644290624998,67.0,92.0
577,163.85102662499997,164.27810953124998,62.0,98.0
578,164.20816912499998,164.55638306249998,55.0,85.0
579,164.565311625,164.96858503124997,67.0,88.0
580,164.565311625,165.02810878124998,60.0,86.0
581,164.565311625,165.05787065624997,63.0,88.0
582,164.92245412499997,165.62037009374998,55.0,77.0
583,164.565311625,165.6337629375,48.0,88.0
584,165.27959662499998,165.981976875,67.0,98.0
585,165.27959662499998,166.01322684374998,60.0,92.0
586,165.27959662499998,166.04596490625,63.0,106.0
587,166.35102412499998,166.76620228124997,56.0,85.0
588,165.99388162499997,167.09060671874997,44.0,103.0
589,167.06530912499997,167.43584446875,56.0,87.0
590,166.708166625,167.47602299999997,60.0,94.0
591,166.708166625,167.54893959375,63.0,109.0
592,166.708166625,167.55786815624998,68.0,106.0
593,167.779594125,168.231974625,58.0,89.0
594,167.42245162499998,168.56084334374998,46.0,95.0
595,168.49387912499998,168.59953378125,58.0,91.0
596,168.13673662499997,168.85846209374998,62.0,93.0
597,168.13673662499997,168.86887875,65.0,108.0
598,168.851021625,169.31233068749998,68.0,97.0
599,168.851021625,169.33762828124998,63.0,106.0
600,169.20816412499997,169.59358040624997,51.0,75.0
601,169.56530662499998,169.89119915624997,68.0,93.0
602,169.56530662499998,169.91649675,63.0,109.0
603,168.851021625,169.92096103125,39.0,91.0
604,169.92244912499999,170.03554425,51.0,85.0
605,170.279591625,170.73346021874997,67.0,87.0
606,170.279591625,170.82869821875,59.0,88.0
607,170.279591625,170.82869821875,62.0,96.0
608,170.81530537499998,171.03851943749999,55.0,77.0
609,170.279591625,171.27661443749997,43.0,88.0
610,170.99387662499998,171.38226909374998,59.0,94.0
611,170.99387662499998,171.40905478124998,67.0,104.0
612,170.99387662499998,171.53554275,62.0,108.0
613,171.351019125,171.69030449999997,55.0,91.0
614,171.70816162499997,172.13375643749998,67.0,98.0
615,171.70816162499997,172.17393496875,60.0,93.0
616,171.70816162499997,172.18435162499998,63.0,106.0
617,172.06530412499998,172.46411324999997,55.0,71.0
618,172.77958912499997,172.88821996874998,55.0,86.0
619,171.70816162499997,172.94327943749997,48.0,88.0
620,172.422446625,173.12929115625,67.0,108.0
621,172.422446625,173.15012446875,60.0,98.0
622,172.422446625,173.18435062499998,63.0,116.0
623,173.493874125,173.95964746874998,58.0,90.0
624,173.13673162499998,173.98494506249997,46.0,91.0
625,174.20815912499998,174.29744474999998,46.0,74.0
626,174.20815912499998,174.32720662499997,58.0,95.0
627,173.85101662499997,174.59803968749998,65.0,104.0
628,173.85101662499997,174.61143253125,62.0,104.0
629,174.565301625,174.93286078124999,67.0,89.0
630,174.565301625,175.14268199999998,58.0,93.0
631,175.27958662499998,175.60101487499998,58.0,81.0
632,174.565301625,175.60547915624997,43.0,92.0
633,174.92244412499997,175.65607434375,50.0,77.0
634,175.27958662499998,175.68583621874998,67.0,94.0
635,175.27958662499998,175.9313716875,62.0,102.0
636,175.636729125,175.999824,55.0,88.0
637,175.99387162499997,176.4313711875,67.0,92.0
638,175.99387162499997,176.45071640624997,60.0,88.0
639,175.99387162499997,176.50131159375,63.0,89.0
640,176.35101412499998,176.84059696875,55.0,81.0
641,175.99387162499997,177.12928715624997,48.0,89.0
642,177.06529912499997,177.15160856249997,55.0,86.0
643,176.708156625,177.41797734374998,60.0,91.0
644,176.708156625,177.434346375,67.0,92.0
645,176.708156625,177.46113206249998,63.0,103.0
646,177.77958412499999,178.20666703125,56.0,85.0
647,177.42244162499998,178.50726196875,44.0,103.0
648,178.49386912499997,178.86886875,56.0,86.0
649,178.13672662499997,178.99833290624997,60.0,96.0
650,178.13672662499997,179.05488046874999,63.0,109.0
651,179.208154125,179.64416559375,58.0,91.0
652,179.56529662499997,179.99535571874998,62.0,100.0
653,179.92243912499998,180.01172474999998,58.0,85.0
654,178.85101162499998,180.029581875,46.0,87.0
655,180.279581625,180.65458124999998,67.0,90.0
656,180.279581625,180.74386687499998,58.0,85.0
657,180.279581625,180.78553349999999,62.0,89.0
658,180.63672412499997,181.08166415624999,50.0,75.0
659,180.99386662499998,181.38077099999998,58.0,91.0
660,180.279581625,181.39714003125,43.0,88.0
661,180.99386662499998,181.58463984374998,67.0,100.0
662,180.99386662499998,181.64118740624997,62.0,102.0
663,181.70815162499997,182.13523453124998,67.0,87.0
664,181.70815162499997,182.22154396874998,60.0,86.0
665,181.70815162499997,182.237913,63.0,90.0
666,182.06529412499998,182.48344846874997,55.0,74.0
667,182.422436625,182.84505524999997,67.0,89.0
668,182.422436625,182.89416234374997,60.0,87.0
669,182.422436625,182.970055125,63.0,88.0
670,181.70815162499997,183.02213840624998,48.0,81.0
671,182.77957912499997,183.11142403124998,55.0,68.0
672,183.13672162499998,183.54297121874998,67.0,89.0
673,183.13672162499998,183.63374493749998,60.0,86.0
674,183.13672162499998,183.63374493749998,63.0,87.0
675,183.85100662499997,184.196244375,67.0,89.0
676,183.13672162499998,184.33463709375,48.0,84.0
677,183.85100662499997,184.34207756249998,63.0,89.0
678,183.85100662499997,184.35249421874997,60.0,87.0
679,183.493864125,184.3569585,55.0,78.0
680,184.565291625,184.84058896874998,67.0,110.0
681,184.565291625,184.84505324999998,60.0,104.0
682,184.565291625,184.84802943749997,48.0,110.0
683,184.565291625,184.84951753124997,63.0,116.0
684,185.99386162499997,186.39564693749998,46.0,97.0
685,185.99386162499997,186.40159931249997,58.0,109.0
686,185.99386162499997,186.41052787499999,65.0,116.0
687,185.99386162499997,186.41201596874998,70.0,113.0
688,185.99386162499997,186.41945643749997,62.0,108.0
689,187.42243162499997,187.88820496875,67.0,114.0
690,187.42243162499997,187.91796684374998,62.0,113.0
691,187.42243162499997,187.92838349999997,43.0,94.0
692,187.42243162499997,187.92838349999997,55.0,94.0
693,187.42243162499997,187.92987159374997,58.0,106.0
694,189.208144125,189.38820346875,67.0,110.0
695,189.208144125,189.40754868749997,48.0,96.0
696,189.208144125,189.41647724999999,60.0,104.0
697,189.208144125,189.42242962499998,63.0,113.0
698,189.56528662499997,189.76320309374998,48.0,120.0
699,189.56528662499997,189.76469118749998,67.0,116.0
700,189.56528662499997,189.76915546874997,60.0,104.0
701,189.56528662499997,189.80635781249998,63.0,119.0
702,190.279571625,190.84207106249997,60.0,104.0
703,190.279571625,190.84207106249997,63.0,113.0
704,190.279571625,191.13968981249997,44.0,109.0
705,190.279571625,191.142666,56.0,109.0
706,191.350999125,191.43433237499997,44.0,93.0
707,191.350999125,191.45218949999997,56.0,103.0
708,190.99385662499998,191.45516568749997,60.0,110.0
709,190.99385662499998,191.49534421874998,63.0,116.0
710,191.70814162499997,192.2349268125,65.0,114.0
711,191.70814162499997,192.24683156249998,62.0,114.0
712,191.70814162499997,192.49534321874998,46.0,97.0
713,191.70814162499997,192.51171225,58.0,103.0
714,192.42242662499999,192.75724771874997,65.0,116.0
715,192.42242662499999,192.8063548125,62.0,117.0
716,192.77956912499997,192.83760478124998,46.0,93.0
717,192.77956912499997,192.85992618749998,58.0,100.0
718,193.13671162499998,193.66647299999997,70.0,97.0
719,193.13671162499998,193.67837774999998,67.0,114.0
720,193.13671162499998,193.68581821874997,63.0,97.0
721,193.13671162499998,193.88373468749998,39.0,90.0
722,193.13671162499998,193.898615625,51.0,95.0
723,193.85099662499996,194.10992493749998,67.0,113.0
724,193.85099662499996,194.11736540624997,70.0,95.0
725,193.85099662499996,194.13373443749998,63.0,95.0
726,194.20813912499997,194.25427003124997,39.0,85.0
727,194.20813912499997,194.29444856249998,51.0,95.0
728,194.56528162499998,194.88224559374999,55.0,90.0
729,194.56528162499998,194.90903128124998,43.0,88.0
730,194.56528162499998,195.0623049375,67.0,107.0
731,194.56528162499998,195.1277810625,62.0,119.0
732,194.56528162499998,195.13670962499998,59.0,110.0
733,195.10099537499997,195.33909037499998,55.0,114.0
734,195.10099537499997,195.34206656249998,43.0,104.0
735,195.63670912499998,195.72748284374998,43.0,94.0
736,195.27956662499997,195.73045903124998,59.0,117.0
737,195.27956662499997,195.73492331249997,67.0,116.0
738,195.63670912499998,195.76170899999997,55.0,113.0
739,195.27956662499997,195.77212565624998,62.0,123.0
740,195.993851625,196.12926815625,67.0,114.0
741,195.993851625,196.14712528124997,48.0,113.0
742,195.993851625,196.15010146874997,63.0,119.0
743,195.993851625,196.15456575,60.0,110.0
744,196.35099412499997,196.82271984374998,67.0,113.0
745,196.35099412499997,196.84950553124997,60.0,114.0
746,196.35099412499997,196.85545790624997,63.0,123.0
747,196.70813662499998,196.94474353124997,55.0,87.0
748,196.35099412499997,197.041469625,48.0,116.0
749,197.065279125,197.22748134375,67.0,110.0
750,197.065279125,197.24385037499997,60.0,107.0
751,197.065279125,197.26468368749997,63.0,116.0
752,197.42242162499997,197.49236203124997,58.0,93.0
753,197.77956412499998,198.26468268749997,58.0,103.0
754,197.42242162499997,198.30337312499998,46.0,100.0
755,198.136706625,198.83908687499996,70.0,116.0
756,198.136706625,198.84057496875,65.0,117.0
757,198.136706625,198.84950353124998,62.0,113.0
758,199.208134125,199.65605034374997,55.0,86.0
759,198.85099162499998,199.94920481249997,43.0,100.0
760,199.56527662499997,199.97152621874997,58.0,103.0
761,199.56527662499997,200.15158556249997,67.0,104.0
762,199.92241912499998,200.29890684375,55.0,90.0
763,200.27956162499999,200.83610868749997,60.0,87.0
764,200.27956162499999,200.85396581249998,67.0,89.0
765,200.27956162499999,200.88521578124997,63.0,91.0
766,200.81527537499997,201.08015606249998,55.0,89.0
767,200.27956162499999,201.41051287499997,48.0,91.0
768,201.35098912499998,201.44325093749998,55.0,88.0
769,200.99384662499997,201.71408399999999,62.0,107.0
770,202.06527412499997,202.51914271874998,56.0,91.0
771,201.70813162499996,202.79146387499998,44.0,109.0
772,202.77955912499996,203.11438021874997,56.0,89.0
773,202.42241662499998,203.11586831249997,60.0,96.0
774,202.42241662499998,203.15753493749997,63.0,109.0
775,202.42241662499998,203.16497540624997,68.0,100.0
776,203.49384412499998,203.93878415624997,58.0,93.0
777,203.13670162499997,204.31378378124998,46.0,106.0
778,204.20812912499997,204.32568853124997,58.0,89.0
779,203.850986625,204.60247396875,70.0,97.0
780,203.850986625,204.66497390624997,62.0,102.0
781,204.922414125,205.36586606249998,55.0,87.0
782,204.56527162499998,205.61437771874998,43.0,102.0
783,205.27955662499997,205.69771096875,58.0,88.0
784,205.27955662499997,205.83163940625,67.0,88.0
785,205.63669912499998,206.0146749375,55.0,88.0
786,205.993841625,206.37330553124997,67.0,85.0
787,205.993841625,206.37330553124997,67.0,87.0
788,205.993841625,206.44771021875,60.0,84.0
789,205.993841625,206.51169824999997,63.0,87.0
790,206.35098412499997,206.81080509374996,55.0,82.0
791,205.993841625,206.91794784374997,48.0,82.0
792,206.70812662499998,207.15157856249996,67.0,92.0
793,206.70812662499998,207.35395931249997,62.0,104.0
794,207.42241162499997,207.83312549999997,68.0,90.0
795,207.42241162499997,207.91050637499998,60.0,86.0
796,207.42241162499997,208.05336337499998,63.0,83.0
797,207.42241162499997,208.06229193749996,67.0,88.0
798,207.77955412499998,208.20068465625,56.0,82.0
799,208.13669662499998,208.43580346874998,60.0,88.0
800,208.13669662499998,208.47895818749998,63.0,90.0
801,207.42241162499997,208.49532721874996,44.0,87.0
802,208.13669662499998,208.49532721874996,68.0,87.0
803,208.49383912499997,208.84651734374998,56.0,82.0
804,208.85098162499997,209.17985034375,65.0,94.0
805,208.85098162499997,209.19324318749997,62.0,87.0
806,209.20812412499998,209.82121874999999,58.0,86.0
807,209.56526662499996,209.83312349999997,68.0,90.0
808,208.85098162499997,209.87479012499998,46.0,83.0
809,209.56526662499996,210.09949228124998,62.0,90.0
810,210.27955162499998,212.52657318749996,58.0,88.0
811,210.27955162499998,212.53996603124997,43.0,80.0
812,210.27955162499998,212.54591840624997,67.0,92.0
813,213.13669162499997,213.46258415625,60.0,73.0
814,213.13669162499997,213.86436946874997,67.0,78.0
815,213.13669162499997,214.03550024999998,63.0,77.0
816,213.850976625,214.25127384374997,60.0,78.0
817,213.49383412499998,214.29294046874998,55.0,71.0
818,213.13669162499997,214.30335712499996,48.0,81.0
819,214.92240412499999,215.62478437499996,58.0,79.0
820,214.56526162499998,215.66645099999997,46.0,81.0
821,215.27954662499997,216.03996253124998,70.0,82.0
822,215.27954662499997,216.06674821874998,62.0,81.0
823,215.99383162499998,217.02508059374998,44.0,93.0
824,216.35097412499996,217.10543765625,56.0,81.0
825,216.70811662499997,217.47746109374998,60.0,81.0
826,217.06525912499998,217.47746109374998,63.0,84.0
827,217.42240162499996,218.41496015624998,48.0,85.0
828,217.77954412499997,218.43132918749998,55.0,83.0
829,218.13668662499998,218.51019815624997,63.0,82.0
830,218.49382912499996,218.94918581249996,62.0,87.0
831,218.85097162499997,219.92537531249997,44.0,87.0
832,219.20811412499998,219.98787524999997,56.0,83.0
833,219.565256625,220.15156556249997,60.0,81.0
834,219.92239912499997,220.34799393749998,63.0,84.0
835,220.636684125,221.04144562499997,58.0,82.0
836,220.27954162499998,221.08608843749997,46.0,85.0
837,220.99382662499997,221.34650484374998,62.0,83.0
838,221.35096912499998,221.89858762499998,43.0,80.0
839,221.708111625,222.18727781249999,67.0,76.0
840,221.708111625,222.29293246874997,60.0,79.0
841,221.708111625,222.70215824999997,63.0,76.0
842,223.49382412499997,223.88072849999998,67.0,72.0
843,224.029537875,224.24233528124998,72.0,38.0
844,222.60096787499998,225.47745309374997,55.0,70.0
845,224.56525162499997,225.51763162499998,75.0,78.0
846,223.13668162499997,225.58757203124998,60.0,79.0
847,224.38668037499997,225.63370293749998,79.0,79.0
848,221.88668287499996,225.74828615624997,48.0,80.0
