,start,end,pitch,velocity
0,26.131510416666664,26.451822916666664,57.0,61.0
1,26.444010416666664,26.755208333333332,66.0,62.0
2,26.756510416666664,27.067708333333332,66.0,60.0
3,27.069010416666664,27.380208333333332,66.0,65.0
4,27.381510416666664,27.692708333333332,66.0,71.0
5,27.694010416666664,28.006510416666664,66.0,72.0
6,28.006510416666664,28.317708333333332,64.0,61.0
7,28.319010416666664,28.630208333333332,64.0,61.0
8,28.631510416666664,28.942708333333332,64.0,63.0
9,28.944010416666664,29.569010416666664,64.0,67.0
10,29.569010416666664,29.881510416666664,62.0,55.0
11,29.881510416666664,36.131510416666664,66.0,58.0
12,36.131510416666664,36.486979166666664,57.0,58.0
13,36.444010416666664,36.75520833333333,66.0,62.0
14,36.756510416666664,37.06770833333333,66.0,60.0
15,37.069010416666664,37.38020833333333,66.0,66.0
16,37.381510416666664,37.69270833333333,66.0,60.0
17,37.694010416666664,38.006510416666664,66.0,83.0
18,38.006510416666664,38.31770833333333,64.0,63.0
19,38.319010416666664,38.63020833333333,64.0,61.0
20,38.631510416666664,38.94270833333333,64.0,61.0
21,38.944010416666664,39.569010416666664,64.0,66.0
22,39.569010416666664,39.881510416666664,57.0,67.0
23,39.881510416666664,43.944010416666664,66.0,58.0
24,43.944010416666664,44.256510416666664,59.0,61.0
25,44.256510416666664,44.625,61.0,60.0
26,44.569010416666664,44.904947916666664,62.0,60.0
27,44.881510416666664,45.55989583333333,59.0,60.0
28,45.506510416666664,46.756510416666664,71.0,71.0
29,46.756510416666664,47.115885416666664,59.0,58.0
30,47.069010416666664,47.4453125,62.0,59.0
31,47.381510416666664,48.63020833333333,61.0,58.0
32,48.631510416666664,48.94270833333333,61.0,57.0
33,48.944010416666664,49.256510416666664,61.0,59.0
34,49.256510416666664,49.596354166666664,62.0,64.0
35,49.569010416666664,49.881510416666664,64.0,65.0
36,49.881510416666664,50.506510416666664,73.0,64.0
37,50.506510416666664,51.13020833333333,69.0,76.0
38,51.131510416666664,51.44270833333333,69.0,73.0
39,51.444010416666664,52.069010416666664,69.0,72.0
40,52.069010416666664,52.424479166666664,61.0,58.0
41,52.381510416666664,53.006510416666664,64.0,66.0
42,53.006510416666664,54.569010416666664,62.0,63.0
43,54.569010416666664,54.88020833333333,66.0,68.0
44,54.881510416666664,55.194010416666664,66.0,69.0
45,55.194010416666664,55.81770833333333,67.0,69.0
46,55.819010416666664,56.13020833333333,67.0,74.0
47,56.131510416666664,56.756510416666664,67.0,67.0
48,56.756510416666664,57.381510416666664,66.0,74.0
49,57.381510416666664,58.717447916666664,64.0,71.0
50,58.631510416666664,59.09375,57.0,60.0
51,58.944010416666664,59.494791666666664,64.0,59.0
52,59.412760416666664,59.9609375,66.0,62.0
53,59.881510416666664,60.506510416666664,67.0,76.0
54,60.506510416666664,66.13151041666666,66.0,67.0
55,66.13151041666666,66.45182291666666,57.0,61.0
56,66.44401041666666,66.75520833333333,66.0,62.0
57,66.75651041666666,67.06770833333333,66.0,60.0
58,67.06901041666666,67.38020833333333,66.0,65.0
59,67.38151041666666,67.69270833333333,66.0,71.0
60,67.69401041666666,68.00651041666666,66.0,72.0
61,68.00651041666666,68.31770833333333,64.0,61.0
62,68.31901041666666,68.63020833333333,64.0,61.0
63,68.63151041666666,68.94270833333333,64.0,63.0
64,68.94401041666666,69.56901041666666,64.0,67.0
65,69.56901041666666,69.88151041666666,62.0,55.0
66,69.88151041666666,76.13151041666666,66.0,58.0
67,76.13151041666666,76.48697916666666,57.0,58.0
68,76.44401041666666,76.75520833333333,66.0,62.0
69,76.75651041666666,77.06770833333333,66.0,60.0
70,77.06901041666666,77.38020833333333,66.0,66.0
71,77.38151041666666,77.69270833333333,66.0,60.0
72,77.69401041666666,78.00651041666666,66.0,83.0
73,78.00651041666666,78.31770833333333,64.0,63.0
74,78.31901041666666,78.63020833333333,64.0,61.0
75,78.63151041666666,78.94270833333333,64.0,61.0
76,78.94401041666666,79.56901041666666,64.0,66.0
77,79.56901041666666,79.88151041666666,57.0,67.0
78,79.88151041666666,83.94401041666666,66.0,58.0
79,83.94401041666666,84.25651041666666,59.0,61.0
80,84.25651041666666,84.625,61.0,60.0
81,84.56901041666666,84.90494791666666,62.0,60.0
82,84.88151041666666,85.55989583333333,59.0,60.0
83,85.50651041666666,86.75651041666666,71.0,71.0
84,86.75651041666666,87.11588541666666,59.0,58.0
85,87.06901041666666,87.4453125,62.0,59.0
86,87.38151041666666,88.63020833333333,61.0,58.0
87,88.63151041666666,88.94270833333333,61.0,57.0
88,88.94401041666666,89.25651041666666,61.0,59.0
89,89.25651041666666,89.59635416666666,62.0,64.0
90,89.56901041666666,89.88151041666666,64.0,65.0
91,89.88151041666666,90.50651041666666,73.0,64.0
92,90.50651041666666,91.13020833333333,69.0,76.0
93,91.13151041666666,91.44270833333333,69.0,73.0
94,91.44401041666666,92.06901041666666,69.0,72.0
95,92.06901041666666,92.42447916666666,61.0,58.0
96,92.38151041666666,93.00651041666666,64.0,66.0
97,93.00651041666666,94.56901041666666,62.0,63.0
98,94.56901041666666,94.88020833333333,66.0,68.0
99,94.88151041666666,95.19401041666666,66.0,69.0
100,95.19401041666666,95.81770833333333,67.0,69.0
101,95.81901041666666,96.13151041666666,67.0,74.0
102,96.13151041666666,97.06901041666666,59.0,62.0
103,97.06901041666666,97.39713541666666,62.0,67.0
104,97.38151041666666,98.65755208333333,61.0,81.0
105,98.63151041666666,98.98307291666666,57.0,54.0
106,98.94401041666666,99.30338541666666,66.0,63.0
107,99.25651041666666,99.64973958333333,64.0,62.0
108,99.56901041666666,99.953125,66.0,66.0
109,99.88151041666666,100.50651041666666,64.0,59.0
110,100.50651041666666,103.63151041666666,62.0,66.0
111,103.63151041666666,104.0078125,62.0,65.0
112,103.94401041666666,104.30729166666666,74.0,65.0
113,104.25651041666666,104.68098958333333,76.0,63.0
114,104.56901041666666,104.94921875,78.0,75.0
115,104.88151041666666,105.50651041666666,71.0,53.0
116,105.50651041666666,106.75651041666666,76.0,69.0
117,106.75651041666666,107.38151041666666,78.0,75.0
118,107.38151041666666,108.07161458333333,71.0,65.0
119,108.00651041666666,108.63020833333333,76.0,74.0
120,108.63151041666666,108.94270833333333,76.0,73.0
121,108.94401041666666,109.25651041666666,76.0,76.0
122,109.25651041666666,109.56901041666666,74.0,65.0
123,109.56901041666666,109.88151041666666,73.0,73.0
124,109.88151041666666,110.19401041666666,74.0,73.0
125,110.19401041666666,110.81770833333333,76.0,79.0
126,110.81901041666666,111.13020833333333,76.0,72.0
127,111.13151041666666,111.44270833333333,76.0,69.0
128,111.44401041666666,112.06901041666666,76.0,70.0
129,112.06901041666666,112.38151041666666,69.0,66.0
130,112.38151041666666,113.00651041666666,76.0,67.0
131,113.00651041666666,113.63020833333333,74.0,72.0
132,113.63151041666666,113.94270833333333,74.0,70.0
133,113.94401041666666,114.41276041666666,74.0,81.0
134,114.41276041666666,114.72526041666666,73.0,74.0
135,114.72526041666666,115.19401041666666,71.0,68.0
136,115.19401041666666,115.66276041666666,67.0,74.0
137,115.66276041666666,116.13020833333333,74.0,75.0
138,116.13151041666666,116.44270833333333,74.0,74.0
139,116.44401041666666,116.91276041666666,74.0,95.0
140,116.91276041666666,117.38020833333333,73.0,73.0
141,117.38151041666666,117.69401041666666,73.0,77.0
142,117.69401041666666,118.16276041666666,71.0,69.0
143,118.16276041666666,118.94270833333333,69.0,77.0
144,118.94401041666666,119.25520833333333,69.0,83.0
145,119.25651041666666,120.19401041666666,69.0,85.0
146,120.19401041666666,120.68229166666666,76.0,86.0
147,120.66276041666666,121.13151041666666,69.0,85.0
148,121.13151041666666,121.7734375,76.0,90.0
149,121.75651041666666,122.38151041666666,79.0,100.0
150,122.38151041666666,123.94401041666666,78.0,90.0
151,123.94401041666666,124.34765625,74.0,83.0
152,124.25651041666666,124.57682291666666,76.0,71.0
153,124.56901041666666,124.91536458333333,78.0,74.0
154,124.88151041666666,125.55208333333333,71.0,98.0
155,125.50651041666666,126.75651041666666,76.0,93.0
156,126.75651041666666,127.38151041666666,78.0,104.0
157,127.38151041666666,127.97786458333333,71.0,93.0
158,127.96875,128.63020833333331,76.0,83.0
159,128.63151041666666,128.94270833333331,76.0,100.0
160,128.94401041666666,129.25651041666666,76.0,95.0
161,129.25651041666666,129.56901041666666,74.0,68.0
162,129.56901041666666,129.91536458333331,73.0,90.0
163,129.88151041666666,130.19401041666666,74.0,77.0
164,130.19401041666666,130.81770833333331,76.0,90.0
165,130.81901041666666,131.13020833333331,76.0,86.0
166,131.13151041666666,131.44270833333331,76.0,85.0
167,131.44401041666666,132.06901041666666,76.0,87.0
168,132.06901041666666,132.38151041666666,69.0,70.0
169,132.38151041666666,133.00651041666666,76.0,95.0
170,133.00651041666666,133.63020833333331,74.0,79.0
171,133.63151041666666,133.94270833333331,74.0,74.0
172,133.94401041666666,134.41276041666666,74.0,74.0
173,134.41276041666666,134.88151041666666,73.0,70.0
174,134.88151041666666,135.19401041666666,74.0,70.0
175,135.19401041666666,135.66276041666666,69.0,69.0
176,135.66276041666666,138.15755208333331,67.0,59.0
177,137.69401041666666,138.37890625,74.0,79.0
178,138.31901041666666,138.68880208333331,73.0,65.0
179,138.63151041666666,139.33854166666666,71.0,68.0
180,139.25651041666666,140.03776041666666,76.0,79.0
181,139.84375,145.625,74.0,90.0
182,166.13151041666666,166.45182291666666,57.0,61.0
183,166.44401041666666,166.75520833333331,66.0,62.0
184,166.75651041666666,167.06770833333331,66.0,60.0
185,167.06901041666666,167.38020833333331,66.0,65.0
186,167.38151041666666,167.69270833333331,66.0,71.0
187,167.69401041666666,168.00651041666666,66.0,72.0
188,168.00651041666666,168.31770833333331,64.0,61.0
189,168.31901041666666,168.63020833333331,64.0,61.0
190,168.63151041666666,168.94270833333331,64.0,63.0
191,168.94401041666666,169.56901041666666,64.0,67.0
192,169.56901041666666,169.88151041666666,62.0,55.0
193,169.88151041666666,176.13151041666666,66.0,58.0
194,176.13151041666666,176.48697916666666,57.0,58.0
195,176.44401041666666,176.75520833333331,66.0,62.0
196,176.75651041666666,177.06770833333331,66.0,60.0
197,177.06901041666666,177.38020833333331,66.0,66.0
198,177.38151041666666,177.69270833333331,66.0,60.0
199,177.69401041666666,178.00651041666666,66.0,83.0
200,178.00651041666666,178.31770833333331,64.0,63.0
201,178.63151041666666,178.94270833333331,64.0,61.0
202,178.94401041666666,179.21875,57.0,66.0
203,179.296875,179.921875,67.0,67.0
204,179.88151041666666,183.94401041666666,66.0,58.0
205,183.94401041666666,184.25651041666666,61.0,61.0
206,184.25651041666666,184.625,62.0,60.0
207,184.56901041666666,184.625,62.0,60.0
208,184.88151041666666,185.55989583333331,59.0,60.0
209,185.50651041666666,186.40625,71.0,71.0
210,186.45833333333331,186.86979166666666,59.0,58.0
211,187.06901041666666,187.375,62.0,59.0
212,187.39583333333331,187.99479166666666,62.0,59.0
213,188.02083333333331,188.63020833333331,61.0,58.0
214,188.94401041666666,189.25651041666666,61.0,59.0
215,189.25651041666666,189.59635416666666,62.0,64.0
216,189.56901041666666,189.88151041666666,64.0,65.0
217,189.88151041666666,190.50651041666666,73.0,64.0
218,190.50651041666666,191.13020833333331,69.0,76.0
219,191.13151041666666,191.44270833333331,69.0,73.0
220,191.44401041666666,192.06901041666666,69.0,72.0
221,192.06901041666666,192.42447916666666,61.0,58.0
222,192.38151041666666,193.00651041666666,64.0,66.0
223,193.00651041666666,194.56901041666666,62.0,63.0
224,194.88151041666666,195.19401041666666,66.0,69.0
225,195.19401041666666,195.81770833333331,67.0,69.0
226,195.81901041666666,196.13151041666666,67.0,74.0
227,195.81901041666666,196.13151041666666,67.0,86.0
228,196.13151041666666,196.75651041666666,69.0,95.0
229,196.75651041666666,197.38151041666666,67.0,90.0
230,197.38151041666666,197.69270833333331,66.0,70.0
231,197.69401041666666,198.31901041666666,66.0,100.0
232,198.31901041666666,198.63151041666666,64.0,73.0
233,198.63151041666666,199.25651041666666,57.0,76.0
234,199.25651041666666,199.9921875,66.0,72.0
235,199.81770833333331,200.19791666666666,64.0,72.0
236,200.078125,203.63151041666666,62.0,66.0
237,203.63151041666666,204.0078125,66.0,65.0
238,203.94401041666666,204.30729166666666,74.0,65.0
239,204.25651041666666,204.68098958333331,76.0,63.0
240,204.56901041666666,204.94921875,78.0,75.0
241,204.88151041666666,205.50651041666666,71.0,53.0
242,205.50651041666666,206.75651041666666,76.0,69.0
243,206.75651041666666,207.38151041666666,78.0,75.0
244,207.38151041666666,208.07161458333331,71.0,65.0
245,208.00651041666666,208.63020833333331,76.0,74.0
246,208.63151041666666,208.94270833333331,76.0,73.0
247,208.94401041666666,209.25651041666666,76.0,76.0
248,209.25651041666666,209.56901041666666,74.0,65.0
249,209.56901041666666,209.88151041666666,73.0,73.0
250,209.88151041666666,210.19401041666666,74.0,73.0
251,210.19401041666666,210.81770833333331,76.0,79.0
252,210.81901041666666,211.13020833333331,76.0,72.0
253,211.13151041666666,211.44270833333331,76.0,69.0
254,211.44401041666666,212.06901041666666,76.0,70.0
255,212.06901041666666,212.38151041666666,69.0,66.0
256,212.38151041666666,213.00651041666666,76.0,67.0
257,213.00651041666666,213.63020833333331,74.0,72.0
258,213.63151041666666,213.94270833333331,74.0,70.0
259,213.94401041666666,214.41276041666666,74.0,81.0
260,214.41276041666666,214.89583333333331,73.0,74.0
261,214.89583333333331,215.19401041666666,71.0,68.0
262,215.20833333333331,215.46875,69.0,74.0
263,215.51041666666666,215.77083333333331,67.0,74.0
264,215.81901041666666,217.38151041666666,74.0,95.0
265,217.38151041666666,217.69270833333331,69.0,67.0
266,217.69401041666666,218.046875,69.0,75.0
267,218.00651041666666,218.36588541666666,67.0,75.0
268,218.31901041666666,219.25520833333331,76.0,83.0
269,219.25651041666666,220.19270833333331,76.0,111.0
270,220.19401041666666,220.88541666666666,76.0,86.0
271,220.82291666666666,221.30208333333331,69.0,85.0
272,221.13151041666666,221.7734375,76.0,90.0
273,221.75651041666666,222.38151041666666,79.0,100.0
274,222.38151041666666,223.63151041666666,78.0,90.0
275,223.63151041666666,223.94401041666666,69.0,75.0
276,223.94401041666666,224.34765625,74.0,83.0
277,224.25651041666666,224.57682291666666,76.0,71.0
278,224.56901041666666,224.91536458333331,78.0,74.0
279,224.88151041666666,225.55208333333331,71.0,98.0
280,225.50651041666666,226.75651041666666,76.0,93.0
281,226.75651041666666,227.38151041666666,78.0,104.0
282,227.38151041666666,227.97786458333331,71.0,93.0
283,228.02083333333331,228.38541666666666,78.0,93.0
284,228.33333333333331,228.63020833333331,76.0,83.0
285,228.63151041666666,228.94270833333331,76.0,100.0
286,228.94401041666666,229.25651041666666,76.0,95.0
287,229.25651041666666,229.56901041666666,74.0,68.0
288,229.56901041666666,229.91536458333331,73.0,90.0
289,229.88151041666666,230.19401041666666,74.0,77.0
290,230.19401041666666,230.81770833333331,76.0,90.0
291,230.81901041666666,231.13020833333331,76.0,86.0
292,231.13151041666666,231.82291666666666,76.0,85.0
293,231.77083333333331,232.5,69.0,87.0
294,232.38151041666666,233.00651041666666,76.0,95.0
295,233.00651041666666,234.08072916666666,74.0,100.0
296,233.94401041666666,234.08072916666666,74.0,98.0
297,234.41276041666666,234.83203125,73.0,77.0
298,234.80208333333331,234.83203125,73.0,74.0
299,235.19401041666666,235.44270833333331,71.0,93.0
300,235.44270833333331,235.69140625,69.0,73.0
301,235.66276041666666,237.38151041666666,67.0,87.0
302,237.38151041666666,237.69270833333331,74.0,67.0
303,237.69401041666666,238.31901041666666,74.0,77.0
304,238.31901041666666,238.734375,76.0,74.0
305,238.63151041666666,239.56901041666666,78.0,86.0
306,239.89583333333331,241.19791666666666,73.0,73.0
307,241.14583333333331,245.625,74.0,93.0
308,245.81901041666666,246.13020833333331,66.0,79.0
309,246.13151041666666,246.44270833333331,66.0,71.0
310,246.44401041666666,247.06770833333331,66.0,76.0
311,247.06901041666666,247.38020833333331,66.0,74.0
312,247.38151041666666,248.00651041666666,66.0,73.0
313,248.00651041666666,248.63020833333331,64.0,81.0
314,248.63151041666666,249.03776041666666,64.0,63.0
315,248.94401041666666,249.69791666666666,57.0,67.0
316,249.56901041666666,249.96354166666666,67.0,70.0
317,249.88151041666666,256.1302083333333,66.0,64.0
318,256.13151041666663,256.4427083333333,66.0,60.0
319,256.44401041666663,256.7552083333333,66.0,64.0
320,256.75651041666663,257.0677083333333,66.0,65.0
321,257.06901041666663,257.3802083333333,66.0,65.0
322,257.38151041666663,257.6927083333333,66.0,65.0
323,257.69401041666663,258.33984375,66.0,74.0
324,258.31901041666663,258.6653645833333,64.0,67.0
325,258.63151041666663,259.3177083333333,57.0,54.0
326,259.25651041666663,260.03776041666663,67.0,63.0
327,260.03776041666663,264.0638020833333,66.0,67.0
328,263.94401041666663,264.35807291666663,59.0,69.0
329,264.25651041666663,264.5911458333333,61.0,75.0
330,264.56901041666663,264.9348958333333,62.0,73.0
331,264.88151041666663,265.55859375,59.0,62.0
332,265.50651041666663,266.75651041666663,71.0,81.0
333,266.75651041666663,267.1067708333333,59.0,60.0
334,267.06901041666663,267.4583333333333,62.0,63.0
335,267.38151041666663,268.9427083333333,61.0,60.0
336,268.94401041666663,269.4075520833333,61.0,70.0
337,269.25651041666663,269.6263020833333,62.0,66.0
338,269.56901041666663,269.88151041666663,64.0,67.0
339,269.88151041666663,270.50651041666663,73.0,79.0
340,270.50651041666663,271.09375,69.0,76.0
341,271.1171875,271.21354166666663,69.0,76.0
342,271.44010416666663,272.0078125,69.0,81.0
343,272.06901041666663,272.53776041666663,61.0,60.0
344,272.53776041666663,273.01041666666663,64.0,72.0
345,273.00651041666663,275.0,62.0,62.0
346,275.03776041666663,275.3606770833333,57.0,59.0
347,275.35026041666663,275.9140625,67.0,74.0
348,275.81901041666663,276.3098958333333,66.0,58.0
349,276.28776041666663,277.26432291666663,67.0,69.0
350,277.06901041666663,277.77734375,66.0,66.0
351,277.69401041666663,278.94401041666663,64.0,67.0
352,278.63151041666663,279.10026041666663,57.0,59.0
353,279.10026041666663,279.61197916666663,66.0,67.0
354,279.56901041666663,279.99609375,64.0,61.0
355,279.88151041666663,280.5130208333333,66.0,59.0
356,280.50651041666663,281.4348958333333,64.0,59.0
357,284.88151041666663,285.2122395833333,57.0,59.0
358,281.28776041666663,285.27734375,62.0,58.0
359,285.19401041666663,286.1302083333333,67.0,69.0
360,286.13151041666663,287.06901041666663,67.0,73.0
361,287.06901041666663,288.05859375,57.0,62.0
362,288.05859375,289.3372395833333,64.0,71.0
363,289.25651041666663,289.7239583333333,57.0,48.0
364,289.72526041666663,290.63671875,57.0,52.0
365,290.50651041666663,291.13151041666663,66.0,58.0
366,291.13151041666663,291.85807291666663,64.0,57.0
367,291.75651041666663,292.86328125,66.0,58.0
368,292.85026041666663,294.56901041666663,64.0,59.0
369,294.56901041666663,303.75,62.0,47.0
