,start,end,pitch,velocity
0,36.50734666666666,36.67901333333333,74.0,83.0
1,36.844013333333336,37.00734666666666,74.0,83.0
2,37.219013333333336,37.35234666666667,74.0,83.0
3,37.589298462500004,37.748838,74.0,83.0
4,38.005417050000005,38.140285525,74.0,83.0
5,38.40177725,38.760543125,79.0,83.0
6,38.809244375,39.09658175,77.0,82.0
7,39.228075125000004,39.517035875,79.0,82.0
8,39.638789,40.000801625,77.0,82.0
9,40.0608665,41.26541075,74.0,82.0
10,41.945604875,42.4634615,74.0,81.0
11,42.323851250000004,42.711837875,77.0,81.0
12,42.711837875,43.085214125,82.0,81.0
13,43.081967375,43.331967125,81.0,81.0
14,43.526772125,43.84982375,81.0,80.0
15,43.932615875,44.143654625,79.0,80.0
16,44.27190125,44.638784,77.0,80.0
17,44.692355375,45.156640625,72.0,80.0
18,45.103069250000004,45.505666250000004,74.0,79.0
19,45.478068875,45.825471125,75.0,79.0
20,45.79787375,45.825471125,75.0,79.0
21,46.35631475,47.67449525,74.0,79.0
22,49.210208,49.481311625000004,79.0,79.0
23,49.6192985,49.809233375000005,79.0,79.0
24,50.000791625000005,50.2296875,79.0,78.0
25,50.396895125,50.71994675,77.0,78.0
26,50.79137525,51.20046575,75.0,78.0
27,51.177738500000004,51.539751125,74.0,78.0
28,51.542997875,52.081958375,77.0,78.0
29,52.340075,52.68098375,77.0,77.0
30,52.744295375,53.104684625000004,77.0,76.0
31,53.0998145,53.539749125,74.0,76.0
32,53.53163225,53.952086375,72.0,76.0
33,53.9309825,55.094942375,70.0,76.0
34,55.38227975,55.542993875,75.0,75.0
35,55.77188975,56.0608505,75.0,75.0
36,56.133902375000005,56.344941125000005,74.0,74.0
37,56.51864225,56.73942125,75.0,74.0
38,56.906628875,57.05760275,74.0,74.0
39,57.280005125,57.419615375,75.0,74.0
40,57.685848875000005,58.16149775,77.0,74.0
41,58.495913,58.655003750000006,79.0,73.0
42,58.890393125,59.03162675,79.0,73.0
43,59.241042125,59.377405625,79.0,73.0
44,59.612795000000006,59.750781875,79.0,73.0
45,60.002404999999996,60.130651625,76.0,73.0
46,60.3725345,60.520261625,78.0,73.0
47,60.767014625,60.952079375,79.0,73.0
48,61.195585625,61.906623875,78.0,73.0
49,62.101428874999996,62.619285500000004,79.0,73.0
50,62.947207250000005,66.82632425,81.0,73.0
51,68.010699,68.276324,71.0,73.0
52,68.385699,68.529449,76.0,73.0
53,68.7608191875,68.9311316875,83.0,73.0
54,69.1358191875,70.5998816875,83.0,73.0
55,71.0142645625,71.2738796875,71.0,73.0
56,71.4405461875,71.5911870625,76.0,73.0
57,71.7834945625,71.9116995625,83.0,73.0
58,72.16810956249999,72.7578525625,83.0,73.0
59,72.9373395625,73.0366984375,81.0,73.0
60,73.3219545625,73.833172,81.0,73.0
61,74.0911845625,74.39086375,79.0,73.0
62,74.4757995625,74.70817112499999,78.0,73.0
63,74.8604145625,75.047914375,79.0,73.0
64,75.2450295625,76.9052843125,81.0,73.0
65,77.16810456249999,77.4597709375,83.0,73.0
66,77.5527195625,77.7706680625,81.0,73.0
67,77.9373345625,78.131244625,83.0,73.0
68,78.3219495625,78.71137225,81.0,73.0
69,78.8988720625,79.6520764375,79.0,73.0
70,79.8604095625,80.24502456249999,79.0,73.0
71,80.24502456249999,80.4020756875,76.0,73.0
72,80.6296395625,80.785088125,76.0,73.0
73,81.0142545625,81.1777159375,78.0,73.0
74,81.3988695625,83.11681656249999,79.0,73.0
75,83.3219445625,83.60239299999999,76.0,73.0
76,83.70655956249999,84.0719438125,83.0,73.0
77,84.2834820625,85.2770708125,81.0,73.0
78,85.6296345625,86.0527110625,79.0,73.0
79,86.0142495625,86.23860831249999,78.0,74.0
80,86.3988645625,86.5943771875,79.0,74.0
81,86.78347956249999,86.9277101875,81.0,74.0
82,87.1680945625,87.34437643749999,84.0,74.0
83,87.5527095625,88.035080875,84.0,74.0
84,88.32193956249999,88.73700325,83.0,74.0
85,89.4757845625,89.7962970625,83.0,74.0
86,89.86039956249999,90.01584812499999,81.0,74.0
87,90.24501456249999,90.67129618749999,84.0,74.0
88,91.0142445625,91.78828225,83.0,74.0
89,91.7834745625,92.05591018749999,71.0,74.0
90,92.1680895625,92.6200121875,76.0,74.0
91,92.9373195625,93.49020362499999,83.0,74.0
92,93.7065495625,95.2562275,83.0,75.0
93,95.6296245625,95.9485345,71.0,75.0
94,96.0142395625,96.1744958125,76.0,75.0
95,96.39885456249999,96.5110339375,83.0,75.0
96,96.78346956249999,97.297892125,83.0,75.0
97,97.5526995625,97.7289814375,84.0,75.0
98,97.93731456249999,98.28827575,81.0,75.0
99,98.7065445625,99.08635187499999,79.0,75.0
100,99.0911595625,99.3091080625,78.0,75.0
101,99.47577456249999,99.6776974375,79.0,75.0
102,99.86038956249999,101.394041875,81.0,75.0
103,101.7834645625,102.08955399999999,74.0,75.0
104,102.1680795625,102.34275887499999,78.0,75.0
105,102.5526945625,102.7289764375,81.0,75.0
106,103.32192456249999,103.43250137499999,83.0,75.0
107,102.93730956249999,103.45173212499999,84.0,75.0
108,103.7065395625,103.8764111875,83.0,75.0
109,104.0911545625,104.2257698125,81.0,75.0
110,104.4757695625,104.6424360625,81.0,75.0
111,104.8603845625,105.01262799999999,79.0,75.0
112,105.2449995625,105.41166606249999,78.0,75.0
113,105.6296145625,105.86198612499999,76.0,75.0
114,106.01422956249999,107.028651625,79.0,75.0
115,107.9373045625,108.1007659375,76.0,75.0
116,108.3219195625,108.515829625,81.0,75.0
117,108.7065345625,108.8475600625,79.0,75.0
118,109.0911495625,110.39082775,78.0,75.0
119,110.6296095625,111.1873013125,79.0,75.0
120,111.3988395625,111.94050568749999,78.0,75.0
121,112.36037706249999,115.37479712499999,79.0,75.0
122,133.7065095625,133.8699709375,74.0,79.0
123,134.0911245625,134.233752625,74.0,79.0
124,134.4757395625,134.6199701875,74.0,79.0
125,134.8603545625,134.99016212499998,74.0,79.0
126,135.2449695625,135.4276616875,74.0,79.0
127,135.62958456249999,135.82509718749998,79.0,79.0
128,136.01419956249998,136.176058375,77.0,79.0
129,136.39881456249998,136.5526605625,79.0,79.0
130,136.78342956249998,136.93887812499997,77.0,79.0
131,137.16804456249997,137.567082625,74.0,79.0
132,139.0911195625,139.5302216875,74.0,79.0
133,139.4757345625,139.650413875,77.0,79.0
134,139.8603495625,140.022208375,82.0,79.0
135,140.2449645625,140.387592625,81.0,79.0
136,140.6295795625,140.78342556249999,81.0,79.0
137,141.0141945625,141.17605337499998,79.0,79.0
138,141.3988095625,141.55265556249998,77.0,79.0
139,141.7834245625,142.041437125,72.0,79.0
140,142.16803956249998,142.3379111875,74.0,79.0
141,142.55265456249998,142.6776544375,75.0,79.0
142,142.93726956249998,143.3571409375,75.0,79.0
143,143.5141920625,144.45810137499998,74.0,79.0
144,146.3988045625,146.5526505625,79.0,79.0
145,146.7834195625,146.9148296875,79.0,79.0
146,147.1680345625,147.32829081249997,79.0,79.0
147,147.5526495625,147.9148286875,77.0,79.0
148,147.9372645625,148.40361024999999,72.0,79.0
149,148.70649456249998,149.21450687499998,77.0,79.0
150,149.2834170625,149.4613015,77.0,78.0
151,149.86033956249997,150.02380093749997,77.0,78.0
152,150.24495456249997,150.4116210625,74.0,78.0
153,150.6295695625,150.823479625,72.0,78.0
154,151.0141845625,152.13758087499997,70.0,78.0
155,152.5526445625,152.7064905625,75.0,78.0
156,152.9372595625,153.1199516875,75.0,78.0
157,153.3218745625,153.4885410625,74.0,78.0
158,153.7064895625,153.86674581249997,75.0,78.0
159,154.0911045625,154.22892493749998,74.0,78.0
160,154.4757195625,154.59591174999997,75.0,78.0
161,154.8603345625,155.48212881249998,77.0,78.0
162,155.62956456249998,155.81866693749998,79.0,78.0
163,156.01417956249998,156.16161531249998,79.0,78.0
164,156.39879456249997,156.5494354375,79.0,78.0
165,156.78340956249997,156.94847349999998,79.0,78.0
166,157.1680245625,157.33949875,76.0,78.0
167,157.5526395625,157.72411375,78.0,78.0
168,157.9372545625,158.10872874999998,79.0,78.0
169,158.32186956249998,158.804240875,78.0,78.0
170,159.0910995625,159.6295605625,79.0,78.0
171,159.8603295625,163.60725804999998,81.0,78.0
172,165.04763350416664,165.34277192083331,71.0,78.0
173,165.46429950416663,165.6240214708333,76.0,78.0
174,165.88096550416662,166.07020131249996,83.0,78.0
175,166.29763150416665,167.78842968749996,83.0,78.0
176,168.20281256249996,168.46242768749997,71.0,78.0
177,168.39512006249996,168.54736349999996,76.0,78.0
178,168.97204256249998,169.10024756249996,83.0,78.0
179,169.35665756249998,169.94640056249997,83.0,78.0
180,170.12588756249997,170.22524643749998,81.0,78.0
181,170.51050256249997,171.02171999999996,81.0,78.0
182,171.27973256249996,171.57941174999996,79.0,78.0
183,171.66434756249996,171.89671912499998,78.0,78.0
184,172.04896256249998,172.23646237499997,79.0,78.0
185,172.43357756249998,174.09383231249996,81.0,79.0
186,174.35665256249996,174.64831893749997,83.0,79.0
187,174.74126756249996,174.95921606249996,81.0,79.0
188,175.12588256249995,175.31979262499996,83.0,79.0
189,175.51049756249998,175.89992024999998,81.0,80.0
190,176.08742006249997,176.84062443749997,79.0,80.0
191,177.04895756249996,177.43357256249996,79.0,80.0
192,177.43357256249996,177.59062368749997,76.0,80.0
193,177.81818756249996,177.97363612499996,76.0,80.0
194,178.20280256249995,178.36626393749998,78.0,80.0
195,178.58741756249998,180.30536456249996,79.0,80.0
196,180.51049256249996,180.79094099999998,76.0,80.0
197,180.89510756249996,181.26049181249996,83.0,80.0
198,181.47203006249995,182.46561881249997,81.0,80.0
199,182.81818256249997,183.24125906249998,79.0,80.0
200,183.20279756249997,183.42715631249996,78.0,80.0
201,183.58741256249996,183.78292518749996,79.0,80.0
202,183.97202756249996,184.11625818749997,81.0,80.0
203,184.35664256249996,184.53292443749996,84.0,80.0
204,184.74125756249998,185.22362887499997,84.0,81.0
205,185.51048756249997,185.92555124999996,83.0,81.0
206,186.66433256249996,186.98484506249997,83.0,82.0
207,187.04894756249996,187.20439612499996,81.0,83.0
208,187.43356256249996,187.85984418749996,84.0,83.0
209,188.20279256249995,188.97683024999998,83.0,83.0
210,188.97202256249997,189.24445818749996,71.0,83.0
211,189.35663756249997,189.80856018749995,76.0,83.0
212,190.12586756249996,190.67875162499996,83.0,83.0
213,190.89509756249996,192.44477549999996,83.0,83.0
214,192.81817256249997,193.13708249999996,71.0,83.0
215,193.20278756249996,193.36304381249997,76.0,83.0
216,193.58740256249996,193.69958193749997,83.0,83.0
217,193.97201756249996,194.48644012499997,83.0,83.0
218,194.74124756249995,194.91752943749998,84.0,84.0
219,195.12586256249998,195.47682374999997,81.0,84.0
220,195.89509256249997,196.27489987499996,79.0,84.0
221,196.27970756249996,196.49765606249997,78.0,84.0
222,196.66432256249996,196.86624543749997,79.0,84.0
223,197.04893756249996,198.58258987499997,81.0,84.0
224,198.97201256249997,199.27810199999996,74.0,84.0
225,199.35662756249997,199.53130687499996,78.0,84.0
226,199.74124256249996,199.91752443749996,81.0,84.0
227,200.51047256249996,200.62104937499996,83.0,84.0
228,200.12585756249996,200.64028012499995,84.0,84.0
229,200.89508756249995,201.06495918749997,83.0,84.0
230,201.27970256249995,201.41431781249997,81.0,84.0
231,201.66431756249997,201.83098406249997,81.0,84.0
232,202.04893256249997,202.20117599999998,79.0,84.0
233,202.43354756249997,202.60021406249996,78.0,84.0
234,202.81816256249996,203.05053412499996,76.0,84.0
235,203.20277756249996,204.21719962499998,79.0,84.0
236,205.12585256249997,205.28931393749997,76.0,84.0
237,205.51046756249997,205.70437762499995,81.0,85.0
238,205.89508256249997,206.03610806249998,79.0,85.0
239,206.27969756249996,207.57937574999997,78.0,85.0
240,207.81815756249995,208.37584931249995,79.0,85.0
241,208.58738756249997,209.12905368749995,78.0,85.0
242,209.35661756249996,212.56334512499996,79.0,86.0
243,228.97198256249996,229.24441818749995,71.0,88.0
244,229.35659756249996,229.80852018749997,76.0,88.0
245,230.12582756249998,230.67871162499995,83.0,88.0
246,230.89505756249997,232.44473549999998,83.0,88.0
247,232.81813256249995,233.13704249999995,71.0,89.0
248,233.20274756249995,233.36300381249995,76.0,89.0
249,233.58736256249995,233.69954193749996,83.0,89.0
250,233.97197756249994,234.48640012499996,83.0,89.0
251,234.74120756249997,234.91748943749997,84.0,89.0
252,235.12582256249996,235.47678374999998,81.0,89.0
253,235.89505256249996,236.27485987499995,79.0,89.0
254,236.27966756249998,236.49761606249996,78.0,90.0
255,236.66428256249998,236.86620543749996,79.0,89.0
256,237.04889756249997,238.58254987499996,81.0,90.0
257,238.97197256249996,239.27806199999998,74.0,90.0
258,239.35658756249995,239.53126687499997,78.0,91.0
259,239.74120256249995,239.91748443749998,81.0,90.0
260,240.51043256249994,240.62100937499997,83.0,90.0
261,240.12581756249995,240.64024012499996,84.0,90.0
262,240.89504756249994,241.06491918749995,83.0,91.0
263,241.27966256249996,241.41427781249996,81.0,91.0
264,241.66427756249996,241.83094406249995,81.0,91.0
265,242.04889256249996,242.20113599999996,79.0,91.0
266,242.43350756249995,242.60017406249995,78.0,91.0
267,242.81812256249998,243.05049412499994,76.0,91.0
268,243.20273756249998,244.21715962499997,79.0,91.0
269,245.12581256249996,245.28927393749996,76.0,92.0
270,245.51042756249996,245.70433762499997,81.0,92.0
271,245.89504256249995,246.03606806249996,79.0,92.0
272,246.27965756249995,247.57933574999996,78.0,92.0
273,247.81811756249996,248.49600149999998,79.0,92.0
274,248.58734756249996,249.01202662499998,81.0,92.0
275,249.35657756249998,252.55368974999996,83.0,92.0
276,253.97195756249994,254.86778999999996,79.0,92.0
277,255.12580256249996,255.59054568749997,78.0,91.0
278,255.89503256249998,261.57130893749996,76.0,91.0
