,start,end,pitch,velocity
0,3.696424875,4.7548653750000005,55.0,69.0
1,4.15259325,4.8766185,57.0,56.0
2,4.595774625,5.1363585,58.0,63.0
3,4.988631375,5.63960475,62.0,58.0
4,5.4220725000000005,5.9837602500000004,57.0,59.0
5,5.8246695,6.3814871250000005,58.0,60.0
6,6.248370375,7.650966375,62.0,60.0
7,7.10713575,8.017849125,53.0,64.0
8,7.563304125,8.066550375,57.0,56.0
9,7.961031,8.511355125,58.0,63.0
10,8.363628,9.03570525,62.0,65.0
11,8.793822375,9.10064025,57.0,60.0
12,9.222393375,9.76297725,58.0,61.0
13,9.63310725,10.573041375,62.0,63.0
14,11.3441445,11.751611625,58.0,70.0
15,10.910703375,11.771092125000001,55.0,58.0
16,10.45778175,11.987001000000001,51.0,65.0
17,11.7597285,12.235377375,62.0,60.0
18,12.569792625,13.019467500000001,58.0,69.0
19,12.147715125,13.03570125,55.0,58.0
20,12.999987,13.76946675,62.0,71.0
21,14.306803875,14.839270875,57.0,56.0
22,14.732128125000001,15.124984875,58.0,61.0
23,15.124984875,15.543815625,62.0,62.0
24,15.558426,16.017841125,57.0,60.0
25,15.972386625,16.39284075,58.0,62.0
26,13.850635500000001,16.443165375,50.0,65.0
27,16.40582775,16.826281875,62.0,75.0
28,17.644462875000002,18.09413775,60.0,50.0
29,18.090891,18.491864625,63.0,64.0
30,18.498358125,19.029201750000002,60.0,59.0
31,18.96426675,19.3830975,62.0,66.0
32,17.232125625000002,20.235369375,48.0,73.0
33,19.3701105,20.25972,63.0,68.0
34,21.467511000000002,21.839263875,58.0,62.0
35,20.636343,22.128224625,43.0,64.0
36,21.889588500000002,22.300302375,55.0,53.0
37,21.0454335,22.34738025,50.0,60.0
38,22.332769875,22.654198125,57.0,60.0
39,22.714263,23.34088575,58.0,60.0
40,24.50322225,25.267831875,51.0,51.0
41,24.894455625,25.285689,55.0,63.0
42,24.073027875,25.79542875,45.0,60.0
43,25.634714625,26.134714125000002,63.0,72.0
44,25.254844875,26.149324500000002,60.0,68.0
45,26.098999875,26.89932375,67.0,65.0
46,27.329518125,27.896076,62.0,52.0
47,27.415557,28.496724750000002,66.0,60.0
48,28.69152975,28.970750250000002,66.0,60.0
49,27.417180375,29.36036025,38.0,53.0
50,27.831141000000002,29.36036025,45.0,56.0
51,28.235361375,29.36036025,50.0,58.0
52,29.077893,30.404190375,70.0,56.0
53,29.025945,30.4090605,67.0,51.0
54,29.051919,30.410683875,63.0,43.0
55,29.060035875,30.423670875,51.0,46.0
56,30.71100825,31.098994875,54.0,68.0
57,30.6688005,31.235358375,50.0,44.0
58,30.693151125,31.303540125,74.0,42.0
59,30.706138125,31.66555275,81.0,62.0
60,30.797047125000002,32.206136625,86.0,59.0
61,30.790553625,32.62009725,57.0,54.0
62,36.44901333333333,37.44401333333333,67.0,41.0
63,36.51068,37.44401333333333,74.0,62.0
64,36.43734666666666,37.452346666666664,70.0,60.0
65,36.44734666666667,37.47234666666667,55.0,61.0
66,37.9971933625,39.002426,69.0,58.0
67,38.059693387500005,39.013789625,72.0,58.0
68,38.01857495,39.015413,53.0,59.0
69,38.008706525,39.023529875,65.0,37.0
70,39.572230625,40.94722925,77.0,67.0
71,39.599828,41.211839375000004,51.0,54.0
72,39.525152750000004,41.21346275,63.0,47.0
73,39.6712565,41.260540625,70.0,59.0
74,39.513789125,41.262164,67.0,55.0
75,42.677747000000004,43.341707375,70.0,36.0
76,42.754045625,43.367681375000004,77.0,43.0
77,42.7232015,43.432616375,51.0,61.0
78,42.643656125,43.48618775,67.0,45.0
79,44.27190125,45.10956275,53.0,59.0
80,44.27190125,45.1257965,65.0,60.0
81,44.267031125,45.130666625,69.0,63.0
82,45.830341250000004,48.471572375,67.0,69.0
83,45.828717875,48.495923000000005,55.0,58.0
84,45.8530685,48.520273625,62.0,41.0
85,49.659882875,50.004038375,63.0,51.0
86,48.911507,50.237804375,51.0,65.0
87,49.27838975,50.29137575,58.0,61.0
88,50.033259125,50.387154875,74.0,66.0
89,50.49267425,50.870920625,72.0,67.0
90,50.812479125,51.2426735,70.0,62.0
91,51.171245,51.573842,65.0,51.0
92,51.27189425,51.627413375,69.0,58.0
93,50.80436225,51.658257500000005,60.0,58.0
94,50.435856125,51.698841875,53.0,76.0
95,51.585205625,52.38228275,70.0,75.0
96,51.968322125,53.062476875,50.0,71.0
97,52.318971125000004,53.120918375,57.0,60.0
98,52.755659,53.23293125,65.0,63.0
99,53.124165125000005,53.456957,69.0,61.0
100,53.547866,54.747540125,62.0,36.0
101,53.542995875,54.926111375000005,70.0,60.0
102,53.6192945,55.046241125,55.0,61.0
103,56.1387725,56.57059025,63.0,58.0
104,54.952085374999996,56.976434,48.0,69.0
105,56.5413695,56.9829275,67.0,72.0
106,55.768643,57.236174000000005,60.0,55.0
107,55.393643374999996,57.366044,55.0,53.0
108,56.935849625,57.89526425,63.0,51.0
109,58.026757625,58.179354875,60.0,65.0
110,58.075458875,58.215069125,57.0,36.0
111,58.106303,58.275134,63.0,69.0
112,58.039744625,58.552731125,45.0,72.0
113,58.46669225,59.17448375,51.0,68.0
114,58.867665875,59.299483625,57.0,69.0
115,59.241042125,59.63552225,60.0,61.0
116,59.62253525,60.370911125000006,63.0,93.0
117,59.981301125,60.585196625,57.0,58.0
118,60.40824875,60.812469125,60.0,63.0
119,60.789741875000004,61.2556505,63.0,64.0
120,61.184222000000005,61.663117625,50.0,76.0
121,61.176105125,61.664741,62.0,67.0
122,61.17448175,61.66798775,69.0,83.0
123,62.05759775,62.4374675,63.0,67.0
124,62.05110425,62.456948,67.0,79.0
125,62.05759775,62.458571375000005,48.0,81.0
126,63.50564825,63.783245375,67.0,61.0
127,63.3595445,64.015388,66.0,65.0
128,64.153374875,64.755647,71.0,64.0
129,63.158246000000005,64.7830570625,63.0,60.0
130,63.637141625,64.9849799375,69.0,55.0
131,64.379024,65.137223375,75.0,65.0
132,64.62902375,65.2125438125,78.0,61.0
133,64.9609415,65.66446643750001,81.0,64.0
134,65.37119750000001,66.6788885,83.0,75.0
135,62.9959085,66.7301705,59.0,97.0
136,62.9829215,66.90324725,47.0,74.0
137,66.03305581250001,67.836324,90.0,70.0
138,69.1358191875,69.5014441875,83.0,99.0
139,69.5108191875,69.6248816875,81.0,99.0
140,69.6983191875,69.8326941875,83.0,99.0
141,69.8858191875,70.1139441875,78.0,99.0
142,70.2608191875,70.4233191875,76.0,99.0
143,70.4483191875,70.5576941875,78.0,99.0
144,69.8858191875,71.413302625,67.0,99.0
145,69.1358191875,71.4277256875,60.0,99.0
146,69.5108191875,71.4341359375,64.0,99.0
147,70.6358191875,71.7322125625,71.0,99.0
148,72.16810956249999,72.345994,83.0,99.0
149,72.5527245625,72.6681090625,81.0,99.0
150,72.7450320625,72.86041656249999,83.0,99.0
151,72.9373395625,73.2049675,78.0,99.0
152,73.336377625,73.503044125,76.0,99.0
153,73.5142620625,73.7001593125,78.0,99.0
154,72.3604170625,74.42131243749999,66.0,99.0
155,73.7065695625,74.547914875,71.0,99.0
156,72.16810956249999,74.6264404375,62.0,99.0
157,75.2450295625,75.5655420625,78.0,99.0
158,75.6296445625,75.7514393125,76.0,99.0
159,75.8219520625,75.94214425,78.0,99.0
160,75.6777214375,76.09599025,62.0,99.0
161,75.2450295625,76.1168235625,59.0,99.0
162,76.0142595625,76.4565668125,74.0,99.0
163,76.3988745625,76.5719513125,69.0,99.0
164,76.5911820625,76.7354126875,71.0,99.0
165,76.0142595625,76.80752799999999,66.0,99.0
166,76.7834895625,76.80752799999999,66.0,99.0
167,78.3219495625,78.656885125,81.0,99.0
168,78.70656456249999,78.833167,76.0,100.0
169,78.8988720625,79.0751539375,78.0,100.0
170,79.4757945625,79.71137125,69.0,100.0
171,79.0911795625,79.7322045625,74.0,100.0
172,78.70656456249999,79.7354096875,59.0,100.0
173,79.6681020625,79.7963070625,71.0,100.0
174,78.3219495625,79.82675575,52.0,99.0
175,79.0911795625,79.8315634375,64.0,100.0
176,79.8604095625,80.83476756249999,67.0,100.0
177,80.24502456249999,80.9757930625,57.0,100.0
178,79.8604095625,80.977395625,50.0,100.0
179,80.6296395625,81.12963906249999,62.0,100.0
180,81.78348456249999,82.2001508125,71.0,100.0
181,82.1680995625,82.551112,76.0,100.0
182,82.5527145625,82.9501500625,59.0,100.0
183,82.5527145625,82.996624375,78.0,100.0
184,82.1680995625,83.746623625,57.0,100.0
185,81.78348456249999,83.7706620625,52.0,100.0
186,81.3988695625,83.7995081875,45.0,100.0
187,82.9373295625,83.9020721875,60.0,100.0
188,82.9373295625,84.144059125,79.0,100.0
189,84.8604045625,85.26264775,74.0,100.0
190,85.2450195625,85.36200662499999,76.0,100.0
191,85.2450195625,86.6552745625,62.0,100.0
192,85.6296345625,86.8459795,66.0,100.0
193,84.4757895625,86.85238975,50.0,100.0
194,84.8604045625,86.8764281875,57.0,100.0
195,86.3988645625,86.8828384375,54.0,100.0
196,85.6296345625,87.1039920625,78.0,100.0
197,86.78347956249999,87.503030125,69.0,100.0
198,88.32193956249999,89.067131125,55.0,100.0
199,89.4757845625,89.9469379375,55.0,101.0
200,88.7065545625,89.95815587499999,59.0,101.0
201,87.5527095625,90.188924875,43.0,100.0
202,87.9373245625,90.2097581875,50.0,100.0
203,89.86039956249999,90.2866811875,62.0,101.0
204,90.24501456249999,91.0559111875,59.0,101.0
205,90.6296295625,91.0559111875,59.0,101.0
206,90.6296295625,91.28828275,63.0,101.0
207,90.6296295625,91.3251416875,66.0,101.0
208,90.6296295625,91.631231125,51.0,101.0
209,90.6296295625,91.7434105,54.0,101.0
210,90.6296295625,91.9982179375,47.0,101.0
211,91.3988595625,92.03988456249999,63.0,101.0
212,91.3988595625,92.06392299999999,66.0,101.0
213,92.1680895625,92.861999125,63.0,101.0
214,92.1680895625,92.87802475,66.0,101.0
215,92.3603970625,93.503024125,51.0,101.0
216,92.1680895625,93.509434375,59.0,101.0
217,92.1680895625,93.528665125,54.0,101.0
218,92.1680895625,93.6296265625,47.0,101.0
219,92.9373195625,93.65206243749999,63.0,101.0
220,92.9373195625,93.65366499999999,66.0,101.0
221,93.7065495625,94.0815491875,83.0,101.0
222,94.0911645625,94.208151625,81.0,101.0
223,94.2834720625,94.4212924375,83.0,101.0
224,94.4757795625,94.7097536875,78.0,101.0
225,94.4757795625,94.77545875,60.0,101.0
226,94.0911645625,94.858792,55.0,101.0
227,94.86039456249999,95.0270610625,76.0,101.0
228,95.0527020625,95.1648814375,78.0,101.0
229,94.86039456249999,95.8123166875,52.0,101.0
230,95.6296245625,96.10398306249999,60.0,102.0
231,93.7065495625,96.33955974999999,48.0,101.0
232,95.2450095625,96.34757256249999,71.0,101.0
233,96.0142395625,96.4341109375,52.0,102.0
234,95.2450095625,96.50622625,55.0,101.0
235,96.78346956249999,96.961354,83.0,103.0
236,97.1680845625,97.28346906249999,81.0,103.0
237,97.3603920625,97.47577656249999,83.0,103.0
238,97.5526995625,97.82032749999999,76.0,103.0
239,97.93731456249999,98.1039810625,78.0,103.0
240,98.1296220625,98.3155193125,76.0,103.0
241,98.3219295625,99.163274875,71.0,103.0
242,97.5526995625,99.59596675,54.0,103.0
243,98.3219295625,99.61680006249999,62.0,103.0
244,96.78346956249999,99.628018,50.0,103.0
245,97.93731456249999,99.688915375,57.0,103.0
246,99.86038956249999,100.1809020625,78.0,103.0
247,99.86038956249999,100.3539788125,66.0,103.0
248,100.2450045625,100.36679931249999,76.0,103.0
249,99.86038956249999,100.4020556875,59.0,103.0
250,100.4373120625,100.55750425,78.0,103.0
251,100.6296195625,101.0719268125,74.0,103.0
252,100.6296195625,101.12641393749999,66.0,103.0
253,100.6296195625,101.1536575,59.0,103.0
254,101.0142345625,101.1873113125,69.0,103.0
255,101.20654206249999,101.3507726875,71.0,103.0
256,101.3988495625,101.85557987499999,66.0,69.0
257,100.2450045625,101.8732080625,50.0,103.0
258,101.0142345625,101.90045162499999,54.0,103.0
259,101.3988495625,101.90045162499999,59.0,81.0
260,99.86038956249999,101.96615668749999,47.0,103.0
261,102.1680795625,102.336348625,40.0,49.0
262,102.93730956249999,103.935706,55.0,64.0
263,102.93730956249999,103.94051368749999,59.0,90.0
264,103.32192456249999,104.01423156249999,47.0,14.0
265,102.93730956249999,104.04468025,40.0,71.0
266,103.7065395625,104.067116125,52.0,63.0
267,104.0911545625,104.59596174999999,55.0,63.0
268,104.4757695625,105.73057599999999,38.0,77.0
269,105.6296145625,105.8026913125,50.0,56.0
270,104.8603845625,105.83794768749999,45.0,60.0
271,105.2449995625,106.0815371875,54.0,60.0
272,106.01422956249999,107.970958375,59.0,75.0
273,106.01422956249999,108.0142275625,55.0,72.0
274,106.01422956249999,108.079932625,64.0,59.0
275,106.01422956249999,108.09595825,49.0,59.0
276,109.0911495625,110.49339175,64.0,62.0
277,109.0911495625,110.6296095625,45.0,46.0
278,109.0911495625,110.6296095625,48.0,64.0
279,109.0911495625,110.6296095625,52.0,63.0
280,109.0911495625,110.6296095625,60.0,46.0
281,110.6296095625,111.5943521875,52.0,59.0
282,110.6296095625,111.611980375,64.0,39.0
283,110.6296095625,111.65524956249999,55.0,43.0
284,110.6296095625,111.6648649375,60.0,58.0
285,112.93729956249999,113.36518375,64.0,60.0
286,113.32191456249998,113.83473456249999,66.0,62.0
287,113.7065295625,113.92447806249999,67.0,59.0
288,112.55268456249999,114.0366574375,59.0,65.0
289,114.09114456249999,114.29467,69.0,72.0
290,112.1680695625,114.3988365625,52.0,65.0
291,114.4757595625,114.82672074999999,66.0,64.0
292,114.8603745625,115.2578100625,67.0,59.0
293,116.01421956249999,116.4629370625,64.0,60.0
294,116.39883456249999,116.9212699375,66.0,64.0
295,117.16806456249999,117.30107724999999,62.0,65.0
296,117.16806456249999,117.3074875,74.0,70.0
297,116.7834495625,117.355564375,67.0,83.0
298,117.16806456249999,117.57351287499999,69.0,58.0
299,117.5526795625,117.7289614375,79.0,68.0
300,115.62960456249999,117.7449870625,59.0,67.0
301,117.5526795625,117.74979474999999,67.0,65.0
302,115.2449895625,117.7690255,52.0,63.0
303,117.9372945625,118.04626881249999,86.0,72.0
304,117.9372945625,118.05267906249999,74.0,69.0
305,118.3219095625,118.961332,67.0,80.0
306,118.3219095625,118.970947375,58.0,80.0
307,118.3219095625,118.98376787499998,62.0,80.0
308,118.3219095625,119.10876775,74.0,80.0
309,118.3219095625,119.13601131249999,86.0,80.0
310,119.09113956249999,119.990177125,67.0,80.0
311,119.09113956249999,120.00620275,58.0,80.0
312,119.09113956249999,120.00620275,62.0,80.0
313,120.2449845625,120.6776764375,62.0,74.0
314,120.2449845625,120.6776764375,62.0,74.0
315,120.2449845625,120.6776764375,74.0,74.0
316,120.2449845625,120.72094562499998,67.0,74.0
317,120.62959956249999,120.72094562499998,67.0,74.0
318,118.3219095625,120.7385738125,43.0,80.0
319,118.7065245625,120.74177893749999,50.0,80.0
320,120.2449845625,120.7642148125,58.0,74.0
321,120.62959956249999,120.80107375,79.0,74.0
322,121.0142145625,121.18088106249999,74.0,73.0
323,121.0142145625,121.18088106249999,86.0,73.0
324,121.3988295625,121.89241881249998,74.0,68.0
325,121.3988295625,121.89241881249998,86.0,68.0
326,121.3988295625,122.111969875,65.0,68.0
327,121.3988295625,122.156841625,60.0,68.0
328,121.3988295625,122.1584441875,57.0,68.0
329,122.16805956249999,122.6488283125,53.0,73.0
330,122.16805956249999,123.21132775,72.0,73.0
331,122.16805956249999,123.21132775,84.0,73.0
332,122.55267456249999,123.51581462499999,65.0,77.0
333,122.55267456249999,123.53184024999999,57.0,77.0
334,122.55267456249999,123.535045375,60.0,77.0
335,123.3219045625,123.653635,53.0,79.0
336,121.3988295625,123.7545964375,41.0,68.0
337,121.7834445625,123.76100668749999,48.0,68.0
338,123.3219045625,123.81068612499999,62.0,79.0
339,123.3219045625,123.81068612499999,74.0,79.0
340,123.70651956249999,123.90523731249999,67.0,82.0
341,123.70651956249999,123.90523731249999,79.0,82.0
342,123.70651956249999,123.96613468749999,65.0,82.0
343,123.70651956249999,123.99337824999999,60.0,82.0
344,123.70651956249999,124.0142115625,57.0,82.0
345,124.0911345625,124.24017287499998,74.0,79.0
346,124.0911345625,124.24017287499998,86.0,79.0
347,124.4757495625,124.76100568749999,74.0,76.0
348,124.4757495625,124.76100568749999,86.0,76.0
349,124.8603645625,125.02703106249999,72.0,75.0
350,124.8603645625,125.02703106249999,84.0,75.0
351,124.4757495625,125.515812625,63.0,76.0
352,124.4757495625,125.52222287499998,55.0,76.0
353,125.24497956249999,125.52703056249999,77.0,79.0
354,125.24497956249999,125.52703056249999,89.0,79.0
355,124.4757495625,125.54305618749999,58.0,76.0
356,125.62959456249999,125.80427387499999,75.0,80.0
357,125.62959456249999,125.80427387499999,87.0,80.0
358,125.24497956249999,125.8603635625,51.0,79.0
359,125.62959456249999,126.62478587499999,63.0,80.0
360,125.62959456249999,126.64081149999998,55.0,80.0
361,125.62959456249999,126.65363199999999,58.0,80.0
362,126.01420956249999,126.74337549999998,74.0,78.0
363,126.01420956249999,126.74337549999998,86.0,78.0
364,126.01420956249999,126.7610036875,51.0,78.0
365,124.8603645625,126.86677281249999,46.0,75.0
366,124.4757495625,126.96933681249999,39.0,76.0
367,126.78343956249999,127.00619574999999,63.0,72.0
368,126.78343956249999,127.0254265,58.0,72.0
369,126.78343956249999,127.03504187499999,55.0,72.0
370,126.78343956249999,127.35875949999999,72.0,72.0
371,126.78343956249999,127.35875949999999,84.0,72.0
372,129.0911295625,129.5174111875,57.0,74.0
373,128.7065145625,129.554270125,54.0,61.0
374,129.47574456249998,129.7097186875,60.0,67.0
375,128.3218995625,129.87638518749998,50.0,59.0
376,129.47574456249998,129.90362875,66.0,62.0
377,127.9372845625,129.9228595,45.0,74.0
378,127.5526695625,129.9308723125,38.0,81.0
379,129.86035956249998,130.2642053125,69.0,64.0
380,127.5526695625,130.6408075,74.0,81.0
381,127.5526695625,130.6408075,86.0,81.0
382,130.3956154375,130.6648459375,78.0,56.0
383,130.5638845,130.797858625,81.0,73.0
384,130.653628,132.644010625,86.0,81.0
385,132.1680495625,133.35875349999998,81.0,81.0
386,134.4757395625,134.8411238125,55.0,55.0
387,134.0911245625,134.8475340625,50.0,63.0
388,133.7065095625,134.92445706249998,43.0,72.0
389,134.8603545625,135.336315625,58.0,67.0
390,135.62958456249999,136.36676331249998,48.0,77.0
391,135.2449695625,136.41644275,41.0,77.0
392,136.01419956249998,136.4356735,57.0,61.0
393,136.39881456249998,136.8218910625,60.0,67.0
394,137.5526595625,138.34112031249998,55.0,55.0
395,137.9372745625,139.047850375,58.0,65.0
396,136.78342956249998,139.522208875,39.0,72.0
397,138.7065045625,139.54464474999997,51.0,53.0
398,137.16804456249997,139.59111906249998,46.0,62.0
399,139.0911195625,139.7962470625,55.0,65.0
400,139.4757345625,139.8459265,58.0,67.0
401,139.8603495625,141.07669449999997,39.0,72.0
402,140.2449645625,141.38919418749998,46.0,63.0
403,140.6295795625,141.40201468749999,55.0,67.0
404,141.0141945625,141.4404761875,58.0,64.0
405,141.3988095625,142.43727006249998,41.0,58.0
406,141.7834245625,142.541436625,48.0,62.0
407,142.16803956249998,142.62476987499997,53.0,60.0
408,142.55265456249998,142.96291056249999,57.0,63.0
409,143.70649956249997,144.96130599999998,57.0,63.0
410,144.0911145625,144.9821393125,60.0,66.0
411,144.4757295625,145.278613375,55.0,59.0
412,144.8603445625,145.62156174999998,63.0,65.0
413,142.93726956249998,145.74015137499998,43.0,65.0
414,143.32188456249997,145.91162556249998,50.0,60.0
415,145.6295745625,145.9148306875,55.0,60.0
416,146.0141895625,147.201688375,39.0,74.0
417,146.3988045625,147.36194462499998,46.0,74.0
418,146.97572706249997,147.4148291875,58.0,64.0
419,146.7834195625,147.57027775,55.0,67.0
420,147.9372645625,148.5686741875,48.0,67.0
421,147.5526495625,148.6664305,41.0,66.0
422,148.3218795625,148.83630212499997,57.0,63.0
423,148.70649456249998,149.0975198125,60.0,61.0
424,149.09110956249998,150.04142912499998,38.0,79.0
425,149.47572456249998,150.09751881249997,45.0,62.0
426,149.6680320625,150.169634125,50.0,58.0
427,150.24495456249997,150.58950549999997,55.0,58.0
428,150.6295695625,152.1680295625,43.0,61.0
429,151.3987995625,152.19847825,58.0,64.0
430,151.78341456249998,152.413221625,55.0,82.0
431,151.0141845625,152.50617025,50.0,60.0
432,152.1680295625,152.6039265625,62.0,79.0
433,152.9372595625,153.31866943749998,60.0,79.0
434,152.1680295625,153.43245137499997,48.0,79.0
435,152.5526445625,153.5526435625,55.0,79.0
436,153.3218745625,154.66001425,63.0,87.0
437,154.0911045625,154.67283475,53.0,61.0
438,153.7064895625,154.7673859375,46.0,82.0
439,154.4757195625,154.9468729375,67.0,67.0
440,154.8603345625,155.09751381249998,63.0,59.0
441,156.01417956249998,156.9949478125,55.0,63.0
442,156.39879456249997,157.53180625,62.0,85.0
443,155.62956456249998,157.9628955625,51.0,64.0
444,155.24494956249998,157.97251093749998,45.0,87.0
445,157.5526395625,158.17763893749998,55.0,74.0
446,157.9372545625,158.26738243749998,62.0,81.0
447,158.32186956249998,158.76417681249998,62.0,97.0
448,158.32186956249998,158.79142037499997,66.0,97.0
449,158.32186956249998,158.8186639375,50.0,97.0
450,159.0910995625,159.46449662499998,60.0,97.0
451,159.0910995625,159.490137625,63.0,97.0
452,159.0910995625,159.52859912499997,48.0,97.0
453,159.8603295625,161.9116095625,47.0,97.0
454,159.84911162499998,162.16801956249998,63.0,81.0
455,159.858727,162.16801956249998,66.0,74.0
456,166.29763150416665,166.68999218749997,83.0,92.0
457,166.69936718749997,166.81342968749996,81.0,92.0
458,166.88686718749997,167.02124218749998,83.0,92.0
459,167.07436718749997,167.30249218749998,78.0,92.0
460,167.44936718749997,167.61186718749997,76.0,91.0
461,167.63686718749997,167.74624218749997,78.0,91.0
462,167.07436718749997,168.60185062499997,67.0,92.0
463,166.29763150416665,168.61627368749996,60.0,92.0
464,166.69936718749997,168.62268393749997,64.0,92.0
465,167.82436718749997,168.92076056249996,71.0,91.0
466,169.35665756249998,169.53454199999996,83.0,90.0
467,169.74127256249997,169.85665706249998,81.0,90.0
468,169.93358006249997,170.04896456249998,83.0,90.0
469,170.12588756249997,170.39351549999998,78.0,90.0
470,170.52492562499998,170.69159212499997,76.0,90.0
471,170.70281006249996,170.88870731249997,78.0,90.0
472,169.70922131249998,171.60986043749998,66.0,90.0
473,170.89511756249996,171.73646287499997,71.0,90.0
474,169.35665756249998,171.81498843749998,62.0,90.0
475,172.43357756249998,172.75409006249996,78.0,90.0
476,172.81819256249997,172.93998731249997,76.0,90.0
477,173.01050006249997,173.13069224999998,78.0,90.0
478,172.86626943749997,173.28453824999997,62.0,90.0
479,172.43357756249998,173.30537156249997,59.0,90.0
480,173.20280756249997,173.64511481249997,74.0,90.0
481,173.58742256249997,173.76049931249997,69.0,90.0
482,173.77973006249997,173.92396068749997,71.0,90.0
483,173.20280756249997,173.99607599999996,66.0,90.0
484,173.97203756249996,173.99607599999996,66.0,90.0
485,175.51049756249998,175.84543312499997,81.0,89.0
486,175.89511256249997,176.02171499999997,76.0,89.0
487,176.08742006249997,176.26370193749997,78.0,89.0
488,176.66434256249997,176.89991924999995,69.0,89.0
489,176.27972756249997,176.92075256249996,74.0,89.0
490,175.89511256249997,176.92395768749998,59.0,89.0
491,176.85665006249997,176.98485506249997,71.0,89.0
492,175.51049756249998,177.01530374999996,52.0,89.0
493,176.27972756249997,177.02011143749996,64.0,89.0
494,177.04895756249996,178.02331556249996,67.0,89.0
495,177.43357256249996,178.16434106249997,57.0,89.0
496,177.04895756249996,178.16594362499995,50.0,89.0
497,177.81818756249996,178.31818706249996,62.0,89.0
498,178.58741756249998,178.94639156249997,79.0,89.0
499,178.77972506249998,179.00408381249997,71.0,89.0
500,178.97203256249998,179.21882718749995,76.0,89.0
501,179.16434006249997,179.36946806249998,78.0,89.0
502,179.35664756249997,179.73965999999996,79.0,89.0
503,179.54895506249997,179.84222399999996,71.0,89.0
504,179.74126256249997,180.05696737499997,76.0,89.0
505,179.74126256249997,180.13869806249997,59.0,89.0
506,179.93357006249997,180.21882618749996,78.0,89.0
507,180.12587756249997,180.42235162499998,79.0,89.0
508,180.31818506249996,180.62106937499996,71.0,89.0
509,180.51049256249996,180.83260762499998,76.0,89.0
510,179.35664756249997,180.93517162499995,57.0,89.0
511,178.97203256249998,180.95921006249998,52.0,89.0
512,178.58741756249998,180.98805618749998,45.0,89.0
513,180.70280006249996,180.98965874999996,78.0,89.0
514,180.12587756249997,181.09062018749998,60.0,89.0
515,180.89510756249996,181.14350474999998,79.0,89.0
516,181.66433756249995,181.90792706249997,81.0,89.0
517,181.85664506249998,182.08260637499995,74.0,89.0
518,182.04895256249998,182.29895231249998,76.0,89.0
519,182.24126006249998,182.39510606249996,78.0,89.0
520,182.43356756249997,182.60023406249996,81.0,89.0
521,182.62587506249997,182.86786199999997,74.0,89.0
522,182.81818256249997,183.06337462499997,76.0,89.0
523,183.01049006249997,183.14350274999995,78.0,89.0
524,183.20279756249997,183.57619462499997,81.0,90.0
525,183.39510506249997,183.58580999999998,74.0,90.0
526,182.43356756249997,183.84382256249995,62.0,89.0
527,183.58741256249996,183.88228406249996,76.0,90.0
528,183.77972006249996,183.93356606249998,78.0,90.0
529,182.81818256249997,184.03452749999997,66.0,89.0
530,181.66433756249995,184.04093774999996,50.0,89.0
531,182.04895256249998,184.06497618749995,57.0,89.0
532,183.58741256249996,184.07138643749997,54.0,90.0
533,183.97202756249996,184.40151431249996,81.0,90.0
534,183.97202756249996,184.69157812499998,69.0,90.0
535,184.93356506249995,185.15311612499997,74.0,90.0
536,185.12587256249998,185.36625693749997,76.0,90.0
537,185.31818006249998,185.50728243749995,78.0,90.0
538,185.51048756249997,185.79253856249997,83.0,63.0
539,185.70279506249997,185.96721787499996,74.0,52.0
540,185.89510256249997,186.13869206249996,76.0,61.0
541,186.08741006249997,186.25247399999998,78.0,65.0
542,185.51048756249997,186.25567912499997,55.0,55.0
543,186.27971756249997,186.56978137499996,83.0,63.0
544,186.47202506249997,186.72202481249997,74.0,58.0
545,186.66433256249996,186.92394768749998,76.0,58.0
546,186.85664006249996,187.06337062499998,78.0,60.0
547,186.66433256249996,187.13548593749996,55.0,56.0
548,185.89510256249997,187.14670387499996,59.0,68.0
549,187.04894756249996,187.28933193749998,83.0,71.0
550,184.74125756249998,187.37747287499997,43.0,90.0
551,185.12587256249998,187.39830618749997,50.0,90.0
552,187.04894756249996,187.47522918749996,62.0,77.0
553,187.24125506249996,187.51849837499998,74.0,58.0
554,187.43356256249996,187.65952387499996,76.0,59.0
555,187.61785724999996,187.86945956249997,78.0,63.0
556,187.81817756249995,188.02651068749998,83.0,70.0
557,188.01048506249998,188.24285662499997,71.0,76.0
558,187.43356256249996,188.24445918749996,59.0,60.0
559,187.81817756249995,188.24445918749996,59.0,62.0
560,188.20279256249995,188.43035643749997,76.0,64.0
561,187.81817756249995,188.47683074999998,63.0,74.0
562,187.81817756249995,188.51368968749998,66.0,71.0
563,188.39510006249998,188.60824087499998,78.0,72.0
564,187.81817756249995,188.81977912499997,51.0,71.0
565,187.81817756249995,188.93195849999995,54.0,72.0
566,188.58740756249998,188.96561231249996,83.0,75.0
567,188.77971506249997,188.97843281249996,71.0,90.0
568,188.97202256249997,189.17394543749998,76.0,72.0
569,187.81817756249995,189.18676593749996,47.0,48.0
570,188.58740756249998,189.22843256249996,63.0,69.0
571,188.58740756249998,189.25247099999996,66.0,76.0
572,189.16433006249997,189.28932993749996,78.0,73.0
573,189.35663756249997,189.73804743749997,83.0,63.0
574,189.54894506249997,189.77170124999998,71.0,98.0
575,189.74125256249997,189.93836774999997,76.0,69.0
576,189.93356006249996,190.03612406249997,78.0,79.0
577,189.35663756249997,190.05054712499998,63.0,67.0
578,189.35663756249997,190.06657274999998,66.0,73.0
579,190.12586756249996,190.51048256249996,83.0,75.0
580,190.31817506249996,190.54093124999997,71.0,93.0
581,189.54894506249997,190.69157212499996,51.0,10.0
582,189.35663756249997,190.69798237499998,59.0,64.0
583,190.51048256249996,190.71400799999998,76.0,74.0
584,189.35663756249997,190.71721312499997,54.0,11.0
585,190.70279006249996,190.81496943749997,78.0,79.0
586,189.35663756249997,190.81817456249996,47.0,59.0
587,190.12586756249996,190.84061043749998,63.0,77.0
588,190.12586756249996,190.84221299999996,66.0,86.0
589,190.89509756249996,191.27009718749997,83.0,100.0
590,191.27971256249998,191.39669962499997,81.0,66.0
591,191.47202006249995,191.60984043749997,83.0,70.0
592,191.66432756249998,191.89830168749995,78.0,74.0
593,191.66432756249998,191.96400674999995,60.0,53.0
594,191.27971256249998,192.04733999999996,55.0,56.0
595,192.04894256249997,192.21560906249996,76.0,64.0
596,192.24125006249997,192.35342943749995,78.0,64.0
597,192.04894256249997,193.00086468749996,52.0,60.0
598,192.81817256249997,193.29253106249996,60.0,51.0
599,190.89509756249996,193.52810774999998,48.0,85.0
600,192.43355756249997,193.53612056249997,71.0,88.0
601,193.20278756249996,193.62265893749998,52.0,65.0
602,192.43355756249997,193.69477424999997,55.0,60.0
603,193.97201756249996,194.14990199999997,83.0,98.0
604,194.35663256249995,194.47201706249996,81.0,70.0
605,194.54894006249998,194.66432456249996,83.0,85.0
606,194.74124756249995,195.00887549999996,76.0,72.0
607,195.12586256249998,195.29252906249997,78.0,85.0
608,195.31817006249997,195.50406731249996,76.0,62.0
609,195.51047756249997,196.35182287499995,71.0,89.0
610,194.74124756249995,196.78451474999997,54.0,62.0
611,195.51047756249997,196.80534806249997,62.0,67.0
612,193.97201756249996,196.81656599999997,50.0,83.0
613,195.12586256249998,196.87746337499996,57.0,68.0
614,197.04893756249996,197.36945006249996,78.0,95.0
615,197.04893756249996,197.54252681249997,66.0,60.0
616,197.43355256249995,197.55534731249998,76.0,65.0
617,197.04893756249996,197.59060368749996,59.0,71.0
618,197.62586006249995,197.74605224999996,78.0,90.0
619,197.81816756249998,198.26047481249998,74.0,79.0
620,197.81816756249998,198.31496193749996,66.0,66.0
621,197.81816756249998,198.34220549999998,59.0,83.0
622,198.20278256249998,198.37585931249995,69.0,74.0
623,198.39509006249997,198.53932068749995,71.0,70.0
624,198.58739756249997,199.04412787499996,66.0,69.0
625,197.43355256249995,199.06175606249997,50.0,62.0
626,198.20278256249998,199.08899962499996,54.0,60.0
627,198.58739756249997,199.08899962499996,59.0,81.0
628,197.04893756249996,199.15470468749996,47.0,53.0
629,200.12585756249996,200.41592137499995,81.0,90.0
630,200.51047256249996,200.70919031249997,76.0,67.0
631,200.70278006249995,200.89989524999996,78.0,74.0
632,200.12585756249996,201.12425399999995,55.0,64.0
633,200.12585756249996,201.12906168749996,59.0,90.0
634,200.51047256249996,201.20277956249996,47.0,14.0
635,200.12585756249996,201.23322824999997,40.0,71.0
636,200.89508756249995,201.25566412499995,52.0,63.0
637,200.89508756249995,201.29092049999997,74.0,95.0
638,201.27970256249995,201.53771512499998,69.0,72.0
639,201.47201006249998,201.66431756249997,71.0,74.0
640,201.27970256249995,201.78450974999996,55.0,63.0
641,201.66431756249997,202.48482956249995,67.0,65.0
642,201.66431756249997,202.91912399999995,38.0,77.0
643,202.81816256249996,202.99123931249997,50.0,56.0
644,202.04893256249997,203.02649568749996,45.0,60.0
645,202.43354756249997,203.27008518749997,54.0,60.0
646,203.20277756249996,203.67553349999997,67.0,76.0
647,203.20277756249996,203.72841806249997,64.0,60.0
648,203.20277756249996,203.73643087499997,60.0,67.0
649,203.97200756249995,204.51848137499996,67.0,67.0
650,203.97200756249995,204.57136593749996,60.0,67.0
651,203.97200756249995,204.65149406249998,64.0,65.0
652,204.74123756249998,205.43674968749997,67.0,74.0
653,204.74123756249998,205.45437787499998,60.0,65.0
654,204.74123756249998,205.46239068749998,64.0,69.0
655,205.51046756249997,206.13546693749996,67.0,79.0
656,205.51046756249997,206.15149256249995,64.0,87.0
657,205.51046756249997,206.15469768749995,60.0,76.0
658,203.58739256249996,206.18674893749997,52.0,60.0
659,203.20277756249996,206.19796687499996,45.0,65.0
660,203.20277756249996,206.19956943749997,48.0,77.0
661,206.27969756249996,206.62264593749995,59.0,79.0
662,206.27969756249996,206.78450474999997,63.0,79.0
663,206.27969756249996,206.84379956249995,66.0,79.0
664,206.27969756249996,206.85181237499995,64.0,79.0
665,206.66431256249996,206.99123531249995,76.0,79.0
666,206.66431256249996,207.02649168749997,59.0,79.0
667,207.04892756249996,207.45117074999996,79.0,79.0
668,207.04892756249996,207.52328606249995,66.0,79.0
669,207.04892756249996,207.57617062499997,63.0,79.0
670,207.04892756249996,207.60181162499995,64.0,79.0
671,207.43354256249995,207.65790131249997,76.0,82.0
672,207.43354256249995,207.97040099999995,59.0,82.0
673,207.81815756249995,208.32136218749997,64.0,82.0
674,207.81815756249995,208.32456731249997,63.0,82.0
675,207.81815756249995,208.74283612499997,78.0,82.0
676,208.20277256249997,209.01046406249998,59.0,82.0
677,206.47200506249996,209.08898962499995,54.0,79.0
678,208.58738756249997,209.09539987499997,63.0,80.0
679,206.27969756249996,209.12584856249995,47.0,79.0
680,209.35661756249996,209.68514287499997,71.0,79.0
681,209.74123256249996,209.93033493749996,76.0,79.0
682,209.35661756249996,209.98482206249997,67.0,79.0
683,209.35661756249996,209.99924512499996,60.0,79.0
684,209.35661756249996,210.01847587499998,64.0,79.0
685,210.12584756249996,210.48001387499997,76.0,87.0
686,210.12584756249996,210.73321874999996,67.0,87.0
687,210.51046256249995,210.73642387499996,71.0,90.0
688,210.12584756249996,210.73962899999998,60.0,87.0
689,210.12584756249996,210.76206487499996,64.0,87.0
690,210.89507756249998,211.51526924999996,67.0,90.0
691,210.89507756249998,211.53610256249996,60.0,90.0
692,210.89507756249998,211.55212818749996,64.0,90.0
693,211.66430756249997,212.02808924999997,67.0,90.0
694,209.35661756249996,212.04892256249997,48.0,79.0
695,211.66430756249997,212.07456356249997,60.0,90.0
696,211.66430756249997,212.09219174999996,64.0,90.0
697,210.89507756249998,212.23321724999997,76.0,90.0
698,212.43353756249996,212.77808849999997,71.0,90.0
699,212.81815256249996,213.04090874999997,76.0,88.0
700,212.43353756249996,213.09699843749996,67.0,90.0
701,212.43353756249996,213.10340868749995,60.0,90.0
702,212.43353756249996,213.11783174999997,64.0,90.0
703,213.20276756249996,213.53770312499995,76.0,86.0
704,213.58738256249995,213.76847212499996,71.0,78.0
705,213.20276756249996,213.80212593749997,67.0,86.0
706,213.20276756249996,213.81975412499997,60.0,86.0
707,213.20276756249996,213.82456181249995,64.0,86.0
708,213.97199756249995,214.58097131249997,67.0,75.0
709,213.97199756249995,214.58898412499997,60.0,75.0
710,213.97199756249995,214.60020206249996,64.0,75.0
711,212.43353756249996,215.04731699999996,48.0,90.0
712,214.74122756249997,215.10661181249998,60.0,78.0
713,214.74122756249997,215.11302206249997,67.0,78.0
714,214.74122756249997,215.14827843749995,64.0,78.0
715,213.97199756249995,215.33097056249997,76.0,75.0
716,215.51045756249997,215.91109818749996,71.0,81.0
717,215.51045756249997,216.00244424999997,66.0,81.0
718,215.51045756249997,216.14186718749997,59.0,81.0
719,215.89507256249996,216.14987999999997,76.0,84.0
720,215.51045756249997,216.15629024999996,62.0,81.0
721,216.27968756249996,216.61462312499995,76.0,84.0
722,216.66430256249996,216.88385362499997,71.0,87.0
723,216.27968756249996,216.92391768749997,59.0,84.0
724,216.27968756249996,216.92391768749997,66.0,84.0
725,216.27968756249996,216.92872537499997,62.0,84.0
726,217.04891756249995,217.60180162499995,66.0,89.0
727,215.51045756249997,217.60340418749996,47.0,81.0
728,217.04891756249995,217.61141699999996,62.0,89.0
729,217.04891756249995,217.61942981249996,59.0,89.0
730,217.04891756249995,218.34218549999997,76.0,89.0
731,217.81814756249997,218.44795462499997,66.0,90.0
732,217.81814756249997,218.53449299999997,62.0,90.0
733,217.81814756249997,218.56013399999995,59.0,90.0
734,218.58737756249997,218.89186443749998,71.0,90.0
735,218.97199256249996,219.12103087499997,76.0,79.0
736,218.58737756249997,219.16430006249996,62.0,90.0
737,218.58737756249997,219.17071031249998,59.0,90.0
738,218.58737756249997,219.18994106249997,66.0,90.0
739,219.35660756249996,219.69955593749995,76.0,79.0
740,219.74122256249996,219.96558131249998,71.0,79.0
741,219.35660756249996,219.97359412499998,66.0,79.0
742,219.35660756249996,219.97840181249995,59.0,79.0
743,219.35660756249996,219.98160693749998,62.0,79.0
744,220.12583756249995,220.65468318749996,76.0,79.0
745,220.12583756249995,220.72519593749996,59.0,79.0
746,220.12583756249995,220.72840106249996,62.0,79.0
747,220.12583756249995,220.73961899999995,66.0,79.0
748,220.89506756249995,221.10660581249996,71.0,100.0
749,221.27968256249997,221.52968231249997,76.0,100.0
750,220.89506756249995,221.60820787499995,62.0,100.0
751,220.89506756249995,221.60981043749996,66.0,100.0
752,220.89506756249995,221.64186168749995,59.0,100.0
753,218.58737756249997,221.69634881249996,47.0,90.0
754,221.66429756249997,221.85820762499998,71.0,82.0
755,222.04891256249996,222.17391243749995,76.0,83.0
756,221.66429756249997,222.19154062499996,57.0,82.0
757,221.66429756249997,222.19154062499996,60.0,82.0
758,221.66429756249997,222.20275856249995,64.0,82.0
759,222.43352756249996,222.76686056249997,76.0,78.0
760,222.43352756249996,223.01205262499997,57.0,78.0
761,222.43352756249996,223.01846287499995,60.0,78.0
762,222.81814256249996,223.02647568749995,71.0,78.0
763,222.43352756249996,223.03128337499996,64.0,78.0
764,223.20275756249995,223.75884674999998,76.0,83.0
765,223.20275756249995,223.79730824999996,60.0,83.0
766,223.20275756249995,223.79891081249997,57.0,83.0
767,223.20275756249995,223.81012874999996,64.0,83.0
768,223.97198756249998,224.27967956249995,71.0,84.0
769,223.97198756249998,224.58897412499996,57.0,84.0
770,221.66429756249997,224.59217924999996,45.0,82.0
771,223.97198756249998,224.59698693749996,60.0,84.0
772,223.97198756249998,224.60179462499997,64.0,84.0
773,224.35660256249997,224.70916631249997,76.0,84.0
774,224.74121756249997,224.86781999999997,71.0,84.0
775,225.12583256249997,225.25884524999998,76.0,84.0
776,224.74121756249997,225.34057593749998,57.0,84.0
777,224.74121756249997,225.34858874999998,60.0,84.0
778,224.74121756249997,225.36140924999995,64.0,84.0
779,225.51044756249996,225.84378056249994,76.0,84.0
780,225.51044756249996,226.07935724999996,57.0,84.0
781,225.51044756249996,226.08095981249997,60.0,84.0
782,225.51044756249996,226.08897262499997,64.0,84.0
783,225.89506256249996,226.09378031249997,71.0,84.0
784,226.27967756249996,226.86461287499998,60.0,85.0
785,226.27967756249996,226.86781799999997,57.0,85.0
786,226.27967756249996,226.88865131249997,64.0,85.0
787,226.27967756249996,227.11781774999997,76.0,85.0
788,227.04890756249995,227.65948387499998,60.0,91.0
789,227.04890756249995,227.66429156249995,57.0,91.0
790,224.74121756249997,227.68191974999996,45.0,84.0
791,227.04890756249995,227.68191974999996,64.0,91.0
792,227.81813756249997,227.91108618749996,66.0,96.0
793,227.81813756249997,227.93191949999996,64.0,96.0
794,227.81813756249997,227.93352206249995,71.0,96.0
795,227.81813756249997,227.97839381249997,47.0,96.0
796,227.81813756249997,228.01044506249997,59.0,96.0
797,228.20275256249997,228.33576524999995,59.0,98.0
798,228.20275256249997,228.34057293749996,66.0,98.0
799,228.20275256249997,228.47358562499997,64.0,98.0
800,228.20275256249997,228.48800868749996,71.0,98.0
801,228.20275256249997,228.49121381249995,47.0,98.0
802,230.89505756249997,231.27005718749996,83.0,79.0
803,231.27967256249997,231.39665962499996,81.0,77.0
804,231.47198006249997,231.60980043749996,83.0,76.0
805,231.66428756249996,231.89826168749997,78.0,76.0
806,232.04890256249996,232.21556906249998,76.0,76.0
807,232.24121006249996,232.35338943749997,78.0,76.0
808,231.66428756249996,233.21717062499997,67.0,76.0
809,230.89505756249997,233.23159368749998,60.0,79.0
810,231.27967256249997,233.23800393749997,64.0,77.0
811,232.43351756249996,233.53608056249996,71.0,76.0
812,233.97197756249994,234.14986199999996,83.0,80.0
813,234.35659256249994,234.47197706249995,81.0,82.0
814,234.54890006249997,234.66428456249997,83.0,81.0
815,234.74120756249997,235.00883549999998,78.0,79.0
816,235.14024562499998,235.30691212499994,76.0,79.0
817,235.31813006249996,235.50402731249994,78.0,79.0
818,234.35659256249994,236.22518043749994,66.0,82.0
819,235.51043756249996,236.35178287499997,71.0,79.0
820,233.97197756249994,236.43030843749995,62.0,80.0
821,237.04889756249997,237.36941006249998,78.0,80.0
822,237.43351256249997,237.55530731249996,76.0,79.0
823,237.62582006249994,237.74601224999998,78.0,79.0
824,237.48158943749996,237.89985824999997,62.0,79.0
825,237.04889756249997,237.92069156249994,59.0,80.0
826,237.81812756249997,238.26043481249997,74.0,79.0
827,238.20274256249996,238.37581931249997,69.0,82.0
828,238.39505006249996,238.53928068749997,71.0,84.0
829,237.81812756249997,238.61139599999996,66.0,79.0
830,238.58735756249996,238.61139599999996,66.0,87.0
831,240.12581756249995,240.46075312499994,81.0,68.0
832,240.51043256249994,240.63703499999997,76.0,64.0
833,240.70274006249997,240.87902193749994,78.0,64.0
834,241.27966256249996,241.51523924999998,69.0,63.0
835,240.89504756249994,241.53607256249995,74.0,63.0
836,240.51043256249994,241.53927768749998,59.0,64.0
837,241.47197006249996,241.60017506249994,71.0,64.0
838,240.12581756249995,241.63062374999996,52.0,68.0
839,240.89504756249994,241.63543143749996,64.0,63.0
840,241.66427756249996,242.63863556249996,67.0,67.0
841,242.04889256249996,242.77966106249994,57.0,72.0
842,241.66427756249996,242.78126362499995,50.0,67.0
843,242.43350756249995,242.93350706249996,62.0,75.0
844,243.20273756249998,243.56171156249997,79.0,80.0
845,243.39504506249995,243.61940381249997,71.0,82.0
846,243.58735256249997,243.83414718749998,76.0,70.0
847,243.77966006249994,243.98478806249994,78.0,79.0
848,243.97196756249997,244.35497999999995,79.0,80.0
849,244.16427506249994,244.45754399999996,71.0,80.0
850,244.35658256249997,244.67228737499994,76.0,80.0
851,244.35658256249997,244.75401806249994,59.0,80.0
852,244.54889006249996,244.83414618749995,78.0,80.0
853,244.74119756249996,245.03767162499997,79.0,80.0
854,244.93350506249996,245.23638937499996,71.0,79.0
855,245.12581256249996,245.44792762499998,76.0,77.0
856,243.97196756249997,245.55049162499995,57.0,80.0
857,243.58735256249997,245.57453006249995,52.0,70.0
858,243.20273756249998,245.60337618749998,45.0,80.0
859,245.31812006249996,245.60497874999996,78.0,77.0
860,244.74119756249996,245.70594018749995,60.0,80.0
861,245.51042756249996,245.75882474999997,79.0,77.0
862,246.27965756249995,246.52324706249996,81.0,76.0
863,246.47196506249998,246.69792637499995,74.0,76.0
864,246.66427256249995,246.91427231249997,76.0,77.0
865,246.85658006249997,247.01042606249996,78.0,78.0
866,247.04888756249994,247.21555406249996,81.0,78.0
867,247.24119506249997,247.48318199999994,74.0,79.0
868,247.43350256249994,247.67869462499996,76.0,79.0
869,247.62581006249997,247.75882274999998,78.0,80.0
870,247.81811756249996,248.19151462499997,81.0,80.0
871,248.01042506249996,248.20112999999998,74.0,81.0
872,247.04888756249994,248.45914256249995,62.0,78.0
873,248.20273256249996,248.49760406249996,76.0,81.0
874,248.39504006249996,248.54888606249995,78.0,66.0
875,247.43350256249994,248.64984749999996,66.0,79.0
876,246.27965756249995,248.65625774999995,50.0,76.0
877,246.66427256249995,248.68029618749995,57.0,77.0
878,248.20273256249996,248.68670643749996,54.0,81.0
879,248.58734756249996,249.01683431249995,81.0,66.0
880,248.58734756249996,249.30689812499998,69.0,66.0
881,249.35657756249998,249.78125662499997,71.0,66.0
882,249.35657756249998,249.99439743749997,60.0,66.0
883,249.35657756249998,249.99439743749997,67.0,66.0
884,249.35657756249998,250.02484612499995,64.0,66.0
885,249.74119256249998,250.02965381249996,76.0,67.0
886,250.12580756249997,250.49920462499995,83.0,67.0
887,250.12580756249997,250.83414018749994,60.0,67.0
888,250.12580756249997,250.83734531249996,67.0,67.0
889,250.12580756249997,250.86138374999996,64.0,67.0
890,250.51042256249997,250.93830674999995,71.0,67.0
891,250.89503756249997,251.24599874999996,76.0,67.0
892,250.89503756249997,251.52003693749995,67.0,67.0
893,250.89503756249997,251.53766512499996,60.0,67.0
894,250.89503756249997,251.55689587499995,64.0,67.0
895,251.27965256249996,251.63061374999995,83.0,69.0
896,251.66426756249996,252.06971587499996,71.0,71.0
897,251.66426756249996,252.29086949999996,60.0,71.0
898,251.66426756249996,252.31330537499997,64.0,71.0
899,251.66426756249996,252.31330537499997,67.0,71.0
900,252.04888256249995,252.40945912499996,76.0,71.0
901,252.43349756249995,252.90144581249996,71.0,69.0
902,252.43349756249995,253.06811231249998,60.0,69.0
903,252.43349756249995,253.06971487499996,67.0,69.0
904,252.43349756249995,253.07772768749996,64.0,69.0
905,252.81811256249995,253.18670193749995,76.0,67.0
906,249.35657756249998,253.41907349999997,48.0,66.0
907,253.20272756249994,253.66747068749996,83.0,67.0
908,253.20272756249994,253.77644493749995,60.0,67.0
909,253.20272756249994,253.79407312499995,67.0,67.0
910,253.20272756249994,253.80208593749995,64.0,67.0
911,253.58734256249994,254.05529081249995,71.0,68.0
912,253.97195756249994,254.35977768749996,76.0,68.0
913,254.35657256249996,254.73157218749998,83.0,68.0
914,253.97195756249994,254.98157193749995,62.0,68.0
915,253.97195756249994,254.98317449999996,69.0,68.0
916,253.97195756249994,255.03605906249996,66.0,68.0
917,253.97195756249994,255.14503331249995,50.0,68.0
918,254.74118756249996,255.14823843749997,71.0,67.0
919,255.12580256249996,255.47195606249994,76.0,62.0
920,255.51041756249995,256.0104170625,71.0,75.0
921,255.51041756249995,256.0104170625,71.0,100.0
922,255.51041756249995,256.18830149999997,67.0,81.0
923,255.51041756249995,256.19310918749994,64.0,79.0
924,255.89503256249998,256.28445524999995,76.0,61.0
925,256.2796475625,256.71874968749995,83.0,87.0
926,256.2796475625,257.00721093749996,67.0,79.0
927,256.2796475625,257.02483912499997,71.0,66.0
928,256.66426256249997,257.02483912499997,71.0,77.0
929,256.2796475625,257.03124937499996,64.0,68.0
930,257.04887756249997,257.1738774375,71.0,72.0
931,257.04887756249997,257.40945412499997,76.0,65.0
932,257.04887756249997,257.7059281875,67.0,71.0
933,257.04887756249997,257.73477431249995,64.0,74.0
934,257.43349256249996,257.8373383124999,83.0,86.0
935,255.51041756249995,258.09214575,52.0,72.0
936,257.81810756249996,258.12740212499995,71.0,64.0
937,257.81810756249996,258.12740212499995,71.0,100.0
938,257.81810756249996,258.1818892499999,67.0,74.0
939,257.81810756249996,258.27804299999997,64.0,68.0
940,258.20272256249996,258.58092731249997,76.0,64.0
941,258.58733756249995,259.22675999999996,71.0,79.0
942,258.58733756249995,259.24438818749996,62.0,79.0
943,258.58733756249995,259.287657375,66.0,79.0
944,258.58733756249995,259.29086249999995,69.0,79.0
945,258.94791412499995,259.32291374999994,78.0,78.0
946,259.35656756249995,259.79246456249996,83.0,78.0
947,259.35656756249995,259.96874643749993,62.0,78.0
948,259.35656756249995,259.98797718749995,69.0,78.0
949,259.35656756249995,259.99598999999995,66.0,78.0
950,259.74118256249994,260.30047687499996,71.0,80.0
951,260.12579756249994,260.49438693749994,78.0,83.0
952,260.12579756249994,260.70752774999994,62.0,83.0
953,260.12579756249994,260.7123354375,69.0,83.0
954,260.12579756249994,260.73316874999995,66.0,83.0
955,260.51041256249994,260.85656606249995,83.0,83.0
956,260.8950275625,261.2219503125,69.0,83.0
957,260.8950275625,261.23637337499997,62.0,83.0
958,260.8950275625,261.25239899999997,66.0,83.0
959,258.58733756249995,261.28124512499994,50.0,79.0
960,260.8950275625,261.31009124999997,71.0,83.0
961,261.27964256249993,261.65944987499995,76.0,85.0
962,261.6642575625,262.12098787499997,71.0,85.0
963,261.6642575625,262.27643643749997,60.0,85.0
964,261.6642575625,262.29887231249995,67.0,85.0
965,261.6642575625,262.3020774375,64.0,85.0
966,262.0488725624999,262.43028243749995,76.0,85.0
967,262.4334875625,262.8597691875,83.0,85.0
968,262.4334875625,263.10816637499994,60.0,85.0
969,262.4334875625,263.13540993749996,64.0,85.0
970,262.4334875625,263.13540993749996,67.0,85.0
971,262.8181025625,263.31649949999996,71.0,80.0
972,263.20271756249997,263.59214024999994,76.0,75.0
973,263.20271756249997,263.85816562499997,60.0,75.0
974,263.20271756249997,263.86617843749997,67.0,75.0
975,263.20271756249997,263.877396375,64.0,75.0
976,263.58733256249997,263.9991911249999,83.0,73.0
977,263.97194756249996,264.33252412499996,60.0,73.0
978,263.97194756249996,264.3501523125,67.0,73.0
979,263.97194756249996,264.35495999999995,64.0,73.0
980,263.97194756249996,264.40303687499994,71.0,73.0
981,264.35656256249996,264.74278012499997,76.0,73.0
982,261.6642575625,264.7443826875,48.0,85.0
983,264.74117756249996,265.24598474999993,71.0,79.0
984,264.74117756249996,265.36457437499996,62.0,79.0
985,264.74117756249996,265.38059999999996,69.0,79.0
986,264.74117756249996,265.39502306249994,66.0,79.0
987,265.12579256249995,265.50239474999995,78.0,82.0
988,265.51040756249995,265.97194556249997,83.0,82.0
989,265.51040756249995,266.11617618749995,62.0,82.0
990,265.51040756249995,266.1386120625,69.0,82.0
991,265.51040756249995,266.14021462499994,66.0,82.0
992,265.89502256249995,266.38540668749994,71.0,80.0
993,266.27963756249994,266.637009,78.0,74.0
994,266.27963756249994,266.84854724999997,62.0,74.0
995,266.27963756249994,266.86457287499996,66.0,74.0
996,266.27963756249994,266.8838036249999,69.0,74.0
997,266.66425256249994,266.99918812499993,83.0,73.0
998,267.04886756249994,267.2764314374999,62.0,71.0
999,267.04886756249994,267.30527756249995,69.0,79.0
1000,267.04886756249994,267.3501493125,66.0,75.0
1001,264.74117756249996,267.37418775,50.0,79.0
1002,267.04886756249994,267.45431587499996,83.0,63.0
1003,267.81809756249993,268.1370075,71.0,79.0
1004,267.81809756249993,268.14982799999996,83.0,81.0
1005,267.81809756249993,268.14982799999996,83.0,104.0
1006,267.81809756249993,268.16585362499995,59.0,75.0
1007,271.44950418749994,271.710721875,54.0,59.0
1008,271.65463218749994,272.07290099999994,55.0,71.0
1009,271.85495249999997,272.30206743749994,57.0,58.0
1010,272.19629831249995,272.627387625,59.0,79.0
1011,272.36296481249997,272.67225937499995,66.0,59.0
1012,271.268414625,272.73636187499994,52.0,62.0
1013,270.73155618749996,272.76040031249994,40.0,38.0
1014,271.02803025,272.774823375,47.0,74.0
1015,272.63379787499997,273.06809231249997,67.0,73.0
1016,272.896618125,273.44950218749995,69.0,58.0
1017,273.24277162499993,273.68187374999997,71.0,66.0
1018,273.72033524999995,274.249180875,76.0,63.0
1019,274.24277062499993,274.91905199999997,78.0,74.0
1020,274.74277012499994,275.35174387499995,81.0,59.0
1021,275.281231125,275.90302537499997,83.0,58.0
