,start,end,pitch,velocity
0,18.917418281249997,19.15402551875,69.0,117.0
1,19.18527553125,19.479918506249998,67.0,89.0
2,19.453132781249998,19.77902576875,69.0,117.0
3,19.720990031249997,19.89063295625,72.0,107.0
4,19.98884728125,20.13616876875,72.0,97.0
5,20.256704531249998,20.752240443749997,72.0,102.0
6,21.060276281249998,21.294651374999997,67.0,112.0
7,21.32813353125,21.52009789375,65.0,75.0
8,21.59599078125,21.9062587625,67.0,95.0
9,21.863848031249997,22.03349095625,72.0,99.0
10,22.13170528125,22.258937475,72.0,100.0
11,22.399562531249998,23.1473306875,72.0,102.0
12,23.203134281249998,23.279027168749998,69.0,112.0
13,23.470991531249997,23.7142952,67.0,81.0
14,23.73884878125,23.979920306249998,69.0,74.0
15,24.006706031249998,24.14509894375,77.0,96.0
16,24.27456328125,24.395099043749997,77.0,96.0
17,24.54242053125,24.888402812499997,77.0,117.0
18,25.34599228125,25.64956383125,76.0,127.0
19,25.613849531249997,25.819206756249997,77.0,96.0
20,25.88170678125,26.16742118125,76.0,112.0
21,26.149564031249998,26.42188556875,72.0,100.0
22,26.417421281249997,26.703135681249996,69.0,92.0
23,26.68527853125,27.629475337499997,72.0,112.0
24,27.48885028125,27.680814643749997,74.0,107.0
25,27.756707531249997,27.906261162499998,76.0,117.0
26,28.02456478125,28.3928685,77.0,122.0
27,28.560279281249997,28.67188646875,70.0,107.0
28,28.82813653125,29.540190387499997,70.0,112.0
29,29.63170828125,29.750011899999997,72.0,107.0
30,29.899565531249998,30.031262012499997,74.0,102.0
31,30.167422781249996,30.64063725625,76.0,112.0
32,30.703137281249997,30.830369474999998,69.0,93.0
33,30.970994531249996,31.642869799999996,69.0,93.0
34,31.77456628125,31.93081634375,70.0,127.0
35,32.042423531249995,32.1651914375,72.0,107.0
36,32.31028078125,32.756709531249996,74.0,127.0
37,32.84599528125,32.95760246875,77.0,122.0
38,33.11385253125,33.227691862499995,77.0,107.0
39,33.381709781249995,33.705370625,77.0,127.0
40,33.91742428125,34.2500137,65.0,97.0
41,34.18528153125,35.22992480625,67.0,102.0
42,36.06028228125,36.16296089375,69.0,127.0
43,36.328139531249995,36.426353856249996,67.0,93.0
44,36.595996781249994,36.85938974375,69.0,127.0
45,36.86385403125,37.004479087499995,72.0,117.0
46,37.13171128125,37.27010419375,72.0,112.0
47,37.39956853125,37.627247193749994,72.0,127.0
48,38.20314028125,38.301354606249994,67.0,117.0
49,38.47099753125,38.63617616875,65.0,97.0
50,38.73885478125,39.0044798875,67.0,117.0
51,39.00671203125,39.18528353125,72.0,95.0
52,39.274569281249995,39.433051487499995,72.0,112.0
53,39.542426531249994,40.004480287499995,72.0,112.0
54,40.34599828125,40.42635545625,69.0,127.0
55,40.613855531249996,40.848230625,67.0,102.0
56,40.881712781249995,41.14957003125,69.0,122.0
57,41.14957003125,41.345998681249995,77.0,92.0
58,41.41742728125,41.59153449375,77.0,90.0
59,41.68528453125,42.321445499999996,77.0,112.0
60,42.488856281249994,42.70090993749999,76.0,127.0
61,42.75671353125,42.957606468749994,77.0,100.0
62,43.02457078125,43.314749468749994,76.0,112.0
63,43.29242803125,43.526803124999994,72.0,99.0
64,43.560285281249996,43.8437675375,69.0,92.0
65,43.828142531249995,44.604928556249995,72.0,127.0
66,44.63171428125,44.814750068749994,74.0,100.0
67,44.89957153125,45.133946625,76.0,122.0
68,45.167428781249995,45.57367894375,77.0,117.0
69,45.70314328125,45.897339787499995,70.0,100.0
70,45.97100053125,46.687518675,70.0,127.0
71,46.774572281249995,46.924125912499996,72.0,100.0
72,47.042429531249994,47.1741260125,74.0,107.0
73,47.31028678125,47.87055486249999,76.0,112.0
74,47.84600128125,47.98216205,69.0,89.0
75,48.113858531249996,48.691983762499994,69.0,102.0
76,48.91743028125,49.1205553625,70.0,127.0
77,49.18528753125,49.37278760624999,72.0,102.0
78,49.453144781249996,50.01564500625,74.0,122.0
79,49.988859281249994,50.116091475,77.0,127.0
80,50.25671653125,50.386180868749996,77.0,117.0
81,50.52457378125,50.99778825625,77.0,112.0
82,51.060288281249996,51.171895468749995,79.0,107.0
83,51.328145531249994,53.383949924999996,79.0,122.0
84,54.54243253124999,54.685289731249995,72.0,102.0
85,54.81028978125,55.133950625,72.0,117.0
86,55.07814703125,55.29243283125,79.0,112.0
87,55.346004281249996,55.622790106249994,84.0,122.0
88,55.613861531249995,55.83707590624999,79.0,127.0
89,55.881718781249994,56.290201087499995,81.0,127.0
90,56.41743328125,56.53350475625,81.0,127.0
91,56.68529053125,56.812522724999994,81.0,112.0
92,56.953147781249996,57.212076456249996,81.0,127.0
93,57.221005031249994,57.417433681249996,82.0,127.0
94,57.48886228124999,57.691987362499994,84.0,127.0
95,57.75671953125,58.9062735625,79.0,127.0
96,58.828148531249994,58.9062735625,79.0,107.0
97,59.09600578124999,59.26118441875,79.0,112.0
98,59.36386303125,59.51564880625,81.0,127.0
99,59.63172028125,59.83261321875,82.0,127.0
100,59.899577531249996,60.116095474999995,81.0,122.0
101,60.167434781249995,60.575917087499995,77.0,117.0
102,60.70314928125,60.8169886125,77.0,127.0
103,60.97100653125,61.091542293749995,77.0,112.0
104,61.23886378125,61.618328218749994,79.0,127.0
105,61.774578281249994,61.88395332499999,81.0,117.0
106,62.04243553124999,63.265650306249995,76.0,112.0
107,63.38172178124999,63.58707900624999,76.0,127.0
108,63.64957903124999,63.95538272499999,77.0,107.0
109,63.91743628125,64.1562756625,76.0,127.0
110,64.18529353125,64.47324007499999,72.0,102.0
111,64.45315078125,64.81252592499999,74.0,127.0
112,64.98886528125,65.09600818125,74.0,127.0
113,65.25672253124999,65.43529403125,74.0,122.0
114,65.52457978125,66.1116335875,76.0,127.0
115,66.06029428125,66.2857408,77.0,127.0
116,66.32815153125,67.20315188125,72.0,112.0
117,67.66743778125,67.90627716249999,72.0,127.0
118,67.93529503124999,68.2544915875,69.0,102.0
119,68.20315228125,68.437527375,72.0,122.0
120,68.47100953124999,68.6741346125,76.0,127.0
121,68.73886678125,69.26565270625,77.0,127.0
122,69.27458128125,69.43975991875,77.0,127.0
123,69.54243853125,69.77681362499999,74.0,99.0
124,69.81029578124999,70.25226024375,77.0,127.0
125,70.34601028124999,70.46654604375,79.0,117.0
126,70.61386753125,71.6027072125,79.0,127.0
127,71.68529653124999,71.83931444999999,72.0,112.0
128,71.95315378125,72.24556461249999,72.0,112.0
129,72.22101103125,72.43976111875,79.0,117.0
130,72.48886828124999,72.77011839375,84.0,117.0
131,72.75672553125,72.97993990625,79.0,127.0
132,73.02458278124999,73.37279720625,81.0,127.0
133,73.56029728125,73.66074375,81.0,127.0
134,73.82815453125,73.91520813749999,81.0,127.0
135,74.09601178125,74.34601188124999,81.0,127.0
136,74.36386903124999,74.66074415,82.0,112.0
137,74.63172628125,74.87279780624999,84.0,112.0
138,74.89958353124999,75.89958393124999,79.0,122.0
139,75.97101253125,76.07592328749999,79.0,117.0
140,76.23886978124999,76.37503054999999,79.0,112.0
141,76.50672703125,76.63172708124999,81.0,112.0
142,76.77458428125,77.01342366249999,82.0,127.0
143,77.04244153124999,77.24333446874999,81.0,127.0
144,77.31029878125,77.69645965,77.0,117.0
145,77.84601328125,77.95092403749999,77.0,122.0
146,78.11387053125,78.26565630625,77.0,102.0
147,78.38172778124999,78.82815653124999,79.0,127.0
148,78.91744228124999,79.0402101875,81.0,122.0
149,79.18529953125,80.08931774999999,76.0,122.0
150,80.52458578125,80.72324657499999,76.0,127.0
151,80.79244303124999,80.96208595625,77.0,112.0
152,81.06030028125,81.2812825125,76.0,127.0
153,81.32815753125,81.60047906874999,72.0,99.0
154,81.59601478124999,81.92190776874999,74.0,127.0
155,82.13172928124999,82.24333646874999,74.0,127.0
156,82.39958653125,82.55360445,74.0,102.0
157,82.66744378125,83.2366404375,76.0,127.0
158,83.20315828125,83.40851550625,77.0,117.0
159,83.47101553124999,84.401819475,72.0,112.0
160,84.81030178124999,84.90405181874999,72.0,127.0
161,85.07815903125,85.27905196875,69.0,100.0
162,85.34601628124999,85.6116413875,72.0,117.0
163,85.61387353125,85.79021288749999,76.0,112.0
164,85.88173078125,86.2366416375,77.0,122.0
165,86.41744528125,86.60940964375,77.0,127.0
166,86.68530253124999,86.91744548125,74.0,122.0
167,86.95315978125,87.42860639999999,77.0,127.0
168,87.48887428124999,87.63842791249999,79.0,127.0
169,87.75673153125,88.80583909375,79.0,127.0
170,89.09601778125,89.51789294999999,77.0,127.0
171,89.63173228125,89.84155379375,76.0,127.0
172,89.89958953124999,92.383965525,77.0,127.0
173,106.77459628125,106.87727489375,69.0,127.0
174,107.04245353124999,107.14066785624999,67.0,93.0
175,107.31031078125,107.57370374374999,69.0,127.0
176,107.57816803124999,107.71879308749999,72.0,117.0
177,107.84602528125,107.98441819374999,72.0,112.0
178,108.11388253125,108.34156119375,72.0,127.0
179,108.91745428124999,109.01566860624999,67.0,117.0
180,109.18531153125,109.35049016874999,65.0,97.0
181,109.45316878124999,109.7187938875,67.0,117.0
182,109.72102603124999,109.89959753125,72.0,95.0
183,109.98888328125,110.1473654875,72.0,112.0
184,110.25674053124999,110.71879428749999,72.0,112.0
185,111.06031228124999,111.14066945625,69.0,127.0
186,111.32816953125,111.56254462499999,67.0,102.0
187,111.59602678124999,111.86388403125,69.0,122.0
188,111.86388403125,112.06031268125,77.0,92.0
189,112.13174128124999,112.30584849374999,77.0,90.0
190,112.39959853124999,113.0357595,77.0,112.0
191,113.20317028125,113.41522393749999,76.0,127.0
192,113.47102753124999,113.67192046874999,77.0,100.0
193,113.73888478125,114.02906346875,76.0,112.0
194,114.00674203124998,114.24111712499999,72.0,99.0
195,114.27459928124999,114.55808153749999,69.0,92.0
196,114.54245653125,115.31924255624999,72.0,127.0
197,115.34602828124999,115.52906406874999,74.0,100.0
198,115.61388553124999,115.848260625,76.0,122.0
199,115.88174278125,116.28799294375,77.0,117.0
200,116.41745728125,116.61165378749999,70.0,100.0
201,116.68531453124999,117.401832675,70.0,127.0
202,117.48888628124999,117.63843991249999,72.0,100.0
203,117.75674353125,117.8884400125,74.0,107.0
204,118.02460078124999,118.58486886249999,76.0,112.0
205,118.56031528125,118.69647604999999,69.0,89.0
206,118.82817253124999,119.40629776249999,69.0,102.0
207,119.63174428125,119.83486936249999,70.0,127.0
208,119.89960153124998,120.08710160624999,72.0,102.0
209,120.16745878124999,120.72995900624998,74.0,122.0
210,120.70317328124999,120.83040547499999,77.0,127.0
211,120.97103053125,121.10049486874999,77.0,117.0
212,121.23888778124999,121.71210225624999,77.0,112.0
213,121.77460228125,121.88620946875,79.0,107.0
214,122.04245953124999,124.098263925,79.0,122.0
215,125.25674653124999,125.39960373125,72.0,102.0
216,125.52460378125,125.84826462499998,72.0,117.0
217,125.79246103124999,126.00674683124998,79.0,112.0
218,126.06031828124999,126.33710410625,84.0,122.0
219,126.32817553125,126.55138990625,79.0,127.0
220,126.59603278124999,127.0045150875,81.0,127.0
221,127.13174728124999,127.24781875624998,81.0,127.0
222,127.39960453124999,127.526836725,81.0,112.0
223,127.66746178125,127.92639045624999,81.0,127.0
224,127.93531903124999,128.13174768125,82.0,127.0
225,128.20317628125,128.4063013625,84.0,127.0
226,128.47103353125,129.6205875625,79.0,127.0
227,129.54246253124998,129.6205875625,79.0,107.0
228,129.81031978125,129.97549841875,79.0,112.0
229,130.07817703125,130.22996280625,81.0,127.0
230,130.34603428124998,130.54692721875,82.0,127.0
231,130.61389153125,130.83040947499998,81.0,122.0
232,130.88174878125,131.2902310875,77.0,117.0
233,131.41746328124998,131.53130261249999,77.0,127.0
234,131.68532053125,131.80585629375,77.0,112.0
235,131.95317778125,132.33264221874998,79.0,127.0
236,132.48889228125,132.598267325,81.0,117.0
237,132.75674953125,133.97996430625,76.0,112.0
238,134.09603578124998,134.30139300624998,76.0,127.0
239,134.36389303125,134.669696725,77.0,107.0
240,134.63175028125,134.87058966249998,76.0,127.0
241,134.89960753124998,135.18755407499998,72.0,102.0
242,135.16746478125,135.526839925,74.0,127.0
243,135.70317928125,135.81032218125,74.0,127.0
244,135.97103653124998,136.14960803124998,74.0,122.0
245,136.23889378125,136.8259475875,76.0,127.0
246,136.77460828124998,137.0000548,77.0,127.0
247,137.04246553125,137.91746588125,72.0,112.0
248,138.38175178125,138.62059116249998,72.0,127.0
249,138.64960903124998,138.9688055875,69.0,102.0
250,138.91746628125,139.151841375,72.0,122.0
251,139.18532353125,139.38844861249999,76.0,127.0
252,139.45318078124998,139.97996670625,77.0,127.0
253,139.98889528125,140.15407391875,77.0,127.0
254,140.25675253125,140.491127625,74.0,99.0
255,140.52460978124998,140.96657424375,77.0,127.0
256,141.06032428125,141.18086004375,79.0,117.0
257,141.32818153124998,142.31702121249998,79.0,127.0
258,142.39961053124998,142.55362845,72.0,112.0
259,142.66746778125,142.95987861249998,72.0,112.0
260,142.93532503125,143.15407511875,79.0,117.0
261,143.20318228124998,143.48443239374998,84.0,117.0
262,143.47103953125,143.69425390625,79.0,127.0
263,143.73889678125,144.08711120625,81.0,127.0
264,144.27461128125,144.37505775,81.0,127.0
265,144.54246853125,144.62952213749998,81.0,127.0
266,144.81032578125,145.06032588124998,81.0,127.0
267,145.07818303124998,145.37505815,82.0,112.0
268,145.34604028125,145.58711180625,84.0,112.0
269,145.61389753125,146.61389793125,79.0,122.0
270,146.68532653124998,146.7902372875,79.0,117.0
271,146.95318378124998,147.08934455,79.0,112.0
272,147.22104103125,147.34604108124998,81.0,112.0
273,147.48889828125,147.72773766249998,82.0,127.0
274,147.75675553124998,147.95764846875,81.0,127.0
275,148.02461278125,148.41077364999998,77.0,117.0
276,148.56032728124998,148.6652380375,77.0,122.0
277,148.82818453125,148.97997030624998,77.0,102.0
278,149.09604178125,149.54247053125,79.0,127.0
279,149.63175628124998,149.75452418749998,81.0,122.0
280,149.89961353125,150.80363175,76.0,122.0
281,151.23889978124998,151.437560575,76.0,127.0
282,151.50675703124998,151.67639995624998,77.0,112.0
283,151.77461428125,151.9955965125,76.0,127.0
284,152.04247153125,152.31479306875,72.0,99.0
285,152.31032878124998,152.63622176874998,74.0,127.0
286,152.84604328125,152.95765046875,74.0,127.0
287,153.11390053124998,153.26791845,74.0,102.0
288,153.38175778125,153.9509544375,76.0,127.0
289,153.91747228124999,154.12282950624999,77.0,117.0
290,154.18532953124998,155.116133475,72.0,112.0
291,155.52461578125,155.61836581875,72.0,127.0
292,155.79247303124998,155.99336596875,69.0,100.0
293,156.06033028124997,156.3259553875,72.0,117.0
294,156.32818753125,156.5045268875,76.0,112.0
295,156.59604478125,156.9509556375,77.0,122.0
296,157.13175928125,157.32372364375,77.0,127.0
297,157.39961653125,157.63175948125,74.0,122.0
298,157.66747378124998,158.14292039999998,77.0,127.0
299,158.20318828125,158.3527419125,79.0,127.0
300,158.47104553124998,158.73890278124998,79.0,127.0
301,159.54247453124998,159.68533173125,72.0,102.0
302,159.81033178125,160.133992625,72.0,117.0
303,160.07818903125,160.29247483125,79.0,112.0
304,160.34604628124998,160.62283210625,84.0,122.0
305,160.61390353124997,160.83711790625,79.0,127.0
306,160.88176078125,161.2902430875,81.0,127.0
307,161.41747528124998,161.53354675625,81.0,127.0
308,161.68533253125,161.812564725,81.0,112.0
309,161.95318978125,162.21211845624998,81.0,127.0
310,162.22104703124998,162.41747568124998,82.0,127.0
311,162.48890428125,162.6920293625,84.0,127.0
312,162.75676153125,163.9063155625,79.0,127.0
313,163.82819053125,163.9063155625,79.0,107.0
314,164.09604778124998,164.26122641875,79.0,112.0
315,164.36390503125,164.51569080624998,81.0,127.0
316,164.63176228125,164.83265521874998,82.0,127.0
317,164.89961953124998,165.116137475,81.0,122.0
318,165.16747678125,165.5759590875,77.0,117.0
319,165.70319128124999,165.8170306125,77.0,127.0
320,165.97104853124998,166.09158429374997,77.0,112.0
321,166.23890578125,166.61837021875,79.0,127.0
322,166.77462028124998,166.883995325,81.0,117.0
323,167.04247753125,168.26569230624997,76.0,112.0
324,168.38176378125,168.58712100625,76.0,127.0
325,168.64962103124998,168.955424725,77.0,107.0
326,168.91747828125,169.1563176625,76.0,127.0
327,169.18533553125,169.473282075,72.0,102.0
328,169.45319278124998,169.812567925,74.0,127.0
329,169.98890728125,170.09605018124998,74.0,127.0
330,170.25676453124998,170.43533603125,74.0,122.0
331,170.52462178124998,171.11167558749997,76.0,127.0
332,171.06033628125,171.2857828,77.0,127.0
333,171.32819353124998,172.20319388125,72.0,112.0
334,172.66747978125,172.90631916249998,72.0,127.0
335,172.93533703125,173.2545335875,69.0,102.0
336,173.20319428124998,173.43756937499998,72.0,122.0
337,173.47105153125,173.6741766125,76.0,127.0
338,173.73890878125,174.26569470624997,77.0,127.0
339,174.27462328125,174.43980191875,77.0,127.0
340,174.54248053125,174.776855625,74.0,99.0
341,174.81033778124998,175.25230224375,77.0,127.0
342,175.34605228125,175.46658804375,79.0,117.0
343,175.61390953125,176.6027492125,79.0,127.0
344,176.68533853124998,176.83935645,72.0,112.0
345,176.95319578124997,177.24560661249998,72.0,112.0
346,177.22105303125,177.43980311874998,79.0,117.0
347,177.48891028124999,177.77016039375,84.0,117.0
348,177.75676753124998,177.97998190624998,79.0,127.0
349,178.02462478125,178.37283920624998,81.0,127.0
350,178.56033928124998,178.66078574999997,81.0,127.0
351,178.82819653125,178.91525013749998,81.0,127.0
352,179.09605378125,179.34605388125,81.0,127.0
353,179.36391103124998,179.66078614999998,82.0,112.0
354,179.63176828124998,179.87283980625,84.0,112.0
355,179.89962553125,180.89962593125,79.0,122.0
356,180.97105453125,181.0759652875,79.0,117.0
357,181.23891178124998,181.37507255,79.0,112.0
358,181.50676903124997,181.63176908124998,81.0,112.0
359,181.77462628125,182.01346566249998,82.0,127.0
360,182.04248353124999,182.24337646875,81.0,127.0
361,182.31034078124998,182.69650165,77.0,117.0
362,182.84605528125,182.9509660375,77.0,122.0
363,183.11391253124998,183.26569830625,77.0,102.0
364,183.38176978125,183.82819853125,79.0,127.0
365,183.91748428124998,184.0402521875,81.0,122.0
366,184.18534153124997,185.08935975,76.0,122.0
367,185.52462778125,185.723288575,76.0,127.0
368,185.79248503124998,185.96212795625,77.0,112.0
369,186.06034228124997,186.2813245125,76.0,127.0
370,186.32819953125,186.60052106875,72.0,99.0
371,186.59605678124998,186.92194976874998,74.0,127.0
372,187.13177128125,187.24337846875,74.0,127.0
373,187.39962853125,187.55364644999997,74.0,102.0
374,187.66748578124998,188.23668243749998,76.0,127.0
375,188.20320028125,188.40855750625,77.0,117.0
376,188.47105753124998,189.40186147499998,72.0,112.0
377,189.81034378125,189.90409381875,72.0,127.0
378,190.07820103125,190.27909396874998,69.0,100.0
379,190.34605828124998,190.6116833875,72.0,117.0
380,190.61391553124997,190.7902548875,76.0,112.0
381,190.88177278125,191.2366836375,77.0,122.0
382,191.41748728124998,191.60945164375,77.0,127.0
383,191.68534453125,191.91748748125,74.0,122.0
384,191.95320178125,192.4286484,77.0,127.0
385,192.48891628125,192.6384699125,79.0,127.0
386,192.75677353125,193.80588109374997,79.0,127.0
387,194.09605978124998,194.51793494999998,77.0,127.0
388,194.63177428125,194.84159579374997,76.0,127.0
389,194.89963153124998,197.384007525,77.0,127.0
