,start,end,pitch,velocity
0,15.154825504166666,15.4431777,62.0,105.0
1,15.495734504166666,15.768461704166667,71.0,103.0
2,15.836643504166666,16.133518425,62.0,105.0
3,16.177552504166666,16.420450166666665,71.0,105.0
4,16.518461504166666,16.99715455833333,67.0,103.0
5,17.200279504166666,19.238631233333333,69.0,102.0
6,20.609369504166665,20.889198975,62.0,93.0
7,20.950278504166665,21.238630699999998,71.0,102.0
8,21.291187504166665,21.6264146875,62.0,102.0
9,21.632096504166665,21.863630533333332,71.0,105.0
10,21.973005504166665,22.497153091666664,67.0,103.0
11,22.654823504166664,24.849425191666665,74.0,105.0
12,26.063913504166667,26.3820952375,67.0,93.0
13,26.404822504166667,26.737208779166664,76.0,105.0
14,26.745731504166667,27.11931095,67.0,102.0
15,27.086640504166667,27.407663145833332,76.0,110.0
16,27.427549504166667,27.994310716666664,72.0,80.0
17,28.109367504166666,28.598003737499997,74.0,102.0
18,28.791185504166666,29.801128416666664,79.0,102.0
19,31.518457504166665,31.75851425833333,67.0,93.0
20,31.859366504166665,32.07811644583333,69.0,105.0
21,32.20027550416667,32.40482090416666,71.0,102.0
22,32.541184504166665,32.714479912499996,72.0,93.0
23,32.88209350416667,33.35794565,74.0,103.0
24,33.56391150416667,34.079536366666666,71.0,102.0
25,34.24572950416667,35.77555864166666,69.0,95.0
26,36.97300150416667,37.2613537,62.0,105.0
27,37.313910504166664,37.58663770416666,71.0,103.0
28,37.65481950416667,37.951694425,62.0,105.0
29,37.995728504166664,38.23862616666666,71.0,105.0
30,38.33663750416667,38.81533055833333,67.0,103.0
31,39.01845550416667,41.05680723333333,69.0,102.0
32,42.427545504166666,42.707374975,62.0,93.0
33,42.76845450416666,43.056806699999996,71.0,102.0
34,43.109363504166666,43.444590687499996,62.0,102.0
35,43.45027250416666,43.68180653333333,71.0,105.0
36,43.791181504166666,44.31532909166666,67.0,103.0
37,44.472999504166665,45.66618100416667,74.0,105.0
38,45.836635504166665,46.07669225833333,71.0,102.0
39,46.17754450416666,46.43464670833333,69.0,93.0
40,46.518453504166665,47.52413505416666,67.0,102.0
41,47.882089504166665,48.2002712375,67.0,93.0
42,48.22299850416667,48.555384779166666,76.0,105.0
43,48.563907504166664,48.93748695,67.0,102.0
44,48.90481650416667,49.22583914583333,76.0,110.0
45,49.245725504166664,49.81248671666666,72.0,80.0
46,49.927543504166664,50.416179737499995,74.0,102.0
47,50.609361504166664,51.619304416666665,79.0,102.0
48,53.33663350416666,53.57669025833333,67.0,93.0
49,53.67754250416667,53.89629244583333,69.0,105.0
50,54.01845150416666,54.22299690416666,71.0,102.0
51,54.359360504166666,54.5326559125,72.0,93.0
52,54.70026950416666,55.17612165,74.0,103.0
53,55.38208750416666,55.89771236666667,79.0,102.0
54,56.06390550416666,57.593734641666664,81.0,95.0
55,58.10935950416666,58.193166299999994,74.0,93.0
56,58.27981400416667,58.36077989166667,74.0,93.0
57,58.450268504166665,58.67754117083333,74.0,95.0
58,58.79117750416666,58.89060929583333,71.0,87.0
59,58.96163200416667,59.051120616666665,71.0,93.0
60,59.132086504166665,59.36362053333333,71.0,102.0
61,59.47299550416666,59.56248411666667,69.0,93.0
62,59.64345000416667,59.72583634583333,69.0,93.0
63,59.813904504166665,60.04117717083333,69.0,102.0
64,60.15481350416666,60.3281089125,67.0,102.0
65,60.495722504166665,60.730097441666665,69.0,103.0
66,60.83663150416666,61.04117690416666,71.0,95.0
67,61.177540504166664,62.906233224999994,69.0,105.0
68,63.56390350416667,63.660494387499995,74.0,74.0
69,63.734358004166666,63.823846616666664,74.0,102.0
70,63.904812504166664,64.1121988125,74.0,103.0
71,64.24572150416667,64.33521011666666,71.0,93.0
72,64.41617600416666,64.50992597916667,71.0,87.0
73,64.58663050416666,64.82100544166667,71.0,102.0
74,64.92753950416666,65.0241303875,69.0,93.0
75,65.09799400416667,65.18180079999999,69.0,93.0
76,65.26844850416667,65.48719844583333,69.0,102.0
77,65.60935750416667,65.82668699166666,67.0,95.0
78,65.95026650416666,66.17753917083333,74.0,95.0
79,66.29117550416666,66.49145954166666,76.0,102.0
80,66.63208450416667,67.6704365,74.0,102.0
81,68.67753850416666,68.92895889166667,74.0,103.0
82,69.01844750416666,69.21304972499999,76.0,103.0
83,69.35935650416667,69.51844737083333,74.0,93.0
84,69.70026550416667,69.86219727916666,76.0,105.0
85,70.04117450416666,70.1974244625,74.0,102.0
86,70.38208350416666,70.53833346249999,71.0,90.0
87,70.72299250416667,71.14486739166666,74.0,102.0
88,71.40481050416666,71.599412725,71.0,93.0
89,71.74571950416666,71.9701512625,74.0,102.0
90,72.08662850416667,72.281230725,71.0,95.0
91,72.42753750416666,72.61361699999999,74.0,102.0
92,72.76844650416666,72.9161737375,71.0,95.0
93,73.10935550416666,73.26560546249999,64.0,95.0
94,73.45026450416667,73.96304845833333,67.0,95.0
95,74.47299150416666,74.57242329583333,72.0,93.0
96,74.64344600416666,74.73293461666667,72.0,83.0
97,74.81390050416667,74.991457275,72.0,87.0
98,75.15480950416666,75.24145720833333,71.0,102.0
99,75.32526400416667,75.4729912375,72.0,103.0
100,75.66617300416667,75.85793431666666,72.0,102.0
101,76.00708200416666,76.09372970833333,71.0,102.0
102,76.17753650416667,76.406229625,72.0,103.0
103,76.51844550416666,76.61219547916666,71.0,93.0
104,76.68890000416667,76.77554770833333,72.0,93.0
105,76.85935450416666,77.00992264583333,74.0,103.0
106,77.20026350416666,77.38918390833334,76.0,95.0
107,77.54117250416667,78.90480850416667,74.0,105.0
108,79.92753550416667,80.0113423,74.0,93.0
109,80.09799000416666,80.17895589166666,74.0,93.0
110,80.26844450416667,80.49571717083333,74.0,95.0
111,80.60935350416666,80.70878529583334,71.0,87.0
112,80.77980800416667,80.86929661666666,71.0,93.0
113,80.95026250416666,81.18179653333333,71.0,102.0
114,81.29117150416667,81.38066011666666,69.0,93.0
115,81.46162600416666,81.54401234583332,69.0,93.0
116,81.63208050416667,81.85935317083333,69.0,102.0
117,81.97298950416666,82.1462849125,67.0,102.0
118,82.31389850416666,82.54827344166667,69.0,103.0
119,82.65480750416667,82.85935290416667,71.0,95.0
120,82.99571650416667,84.724409225,69.0,105.0
121,85.38207950416667,85.4786703875,74.0,74.0
122,85.55253400416666,85.64202261666667,74.0,102.0
123,85.72298850416666,85.93037481249999,74.0,103.0
124,86.06389750416666,86.15338611666667,71.0,93.0
125,86.23435200416667,86.32810197916666,71.0,87.0
126,86.40480650416666,86.63918144166666,71.0,102.0
127,86.74571550416667,86.8423063875,69.0,93.0
128,86.91617000416666,86.9999768,69.0,93.0
129,87.08662450416666,87.30537444583332,69.0,102.0
130,87.42753350416666,87.64486299166666,67.0,95.0
131,87.76844250416666,87.99571517083334,74.0,95.0
132,88.10935150416667,88.30963554166667,76.0,102.0
133,88.45026050416666,89.4886125,74.0,102.0
134,90.49571450416666,90.74713489166666,74.0,103.0
135,90.83662350416667,91.031225725,76.0,103.0
136,91.17753250416666,91.33662337083332,74.0,93.0
137,91.51844150416666,91.68037327916666,76.0,105.0
138,91.85935050416666,92.01560046249999,74.0,102.0
139,92.20025950416667,92.3565094625,71.0,90.0
140,92.54116850416666,92.96304339166666,74.0,102.0
141,93.22298650416667,93.417588725,71.0,93.0
142,93.56389550416667,93.78832726249999,74.0,102.0
143,93.90480450416666,94.099406725,71.0,95.0
144,94.24571350416666,94.431793,74.0,102.0
145,94.58662250416667,94.7343497375,71.0,95.0
146,94.92753150416667,95.0837814625,81.0,95.0
147,95.26844050416666,95.78122445833333,79.0,95.0
148,96.29116750416667,96.39059929583333,72.0,93.0
149,96.46162200416666,96.55111061666666,72.0,83.0
150,96.63207650416666,96.809633275,72.0,87.0
151,96.97298550416666,97.05963320833332,71.0,102.0
152,97.14344000416666,97.29116723749999,72.0,103.0
153,97.48434900416666,97.67611031666667,72.0,102.0
154,97.82525800416666,97.91190570833334,71.0,102.0
155,97.99571250416666,98.224405625,72.0,103.0
156,98.33662150416666,98.43037147916667,71.0,93.0
157,98.50707600416666,98.59372370833333,72.0,93.0
158,98.67753050416667,98.82809864583334,74.0,103.0
159,99.01843950416666,99.20735990833333,76.0,95.0
160,99.35934850416666,100.72298450416666,74.0,105.0
161,101.40480250416667,101.62355244583333,69.0,95.0
162,101.74571150416666,101.93747281666666,71.0,87.0
163,102.08662050416666,102.4474158625,69.0,105.0
164,102.76843850416667,102.93321118749999,69.0,93.0
165,103.10934750416666,103.303949725,71.0,95.0
166,103.45025650416666,103.91190410833333,69.0,105.0
167,104.13207450416667,104.27838128333333,69.0,102.0
168,104.47298350416666,104.62071073749999,71.0,95.0
169,104.81389250416666,105.24997193333333,69.0,105.0
170,105.32525600416666,105.40622189166666,67.0,93.0
171,105.49571050416667,105.57951729999999,69.0,105.0
172,105.66616500416666,105.75991497916667,67.0,90.0
173,105.83661950416666,106.02838081666667,71.0,93.0
174,106.17752850416666,106.55536931249999,69.0,103.0
175,106.85934650416667,107.04826690833333,74.0,87.0
176,107.20025550416666,107.3735509125,76.0,102.0
177,107.54116450416666,107.97582347916666,74.0,102.0
178,108.22298250416667,108.41474381666666,74.0,93.0
179,108.56389150416666,108.75281190833333,76.0,102.0
180,108.90480050416666,109.58661850416667,74.0,103.0
181,110.77980000416666,111.01133403333333,74.0,105.0
182,111.12070900416666,111.22298170416666,74.0,102.0
183,111.29116350416666,111.43747028333333,79.0,103.0
184,111.63207250416666,112.08377692916666,78.0,103.0
185,129.68015905833335,129.96851125416669,62.0,105.0
186,130.02106805833336,130.29379525833335,71.0,103.0
187,130.36197705833334,130.65885197916668,62.0,105.0
188,130.70288605833335,130.94578372083333,71.0,105.0
189,131.04379505833333,131.5224881125,67.0,103.0
190,131.72561305833335,133.76396478750002,69.0,102.0
191,135.13470305833334,135.41453252916668,62.0,93.0
192,135.47561205833335,135.76396425416667,71.0,102.0
193,135.81652105833334,136.15174824166667,62.0,102.0
194,136.15743005833335,136.3889640875,71.0,105.0
195,136.49833905833336,137.02248664583334,67.0,103.0
196,137.18015705833335,138.37333855833333,74.0,105.0
197,138.54379305833334,138.78384981250002,71.0,102.0
198,138.88470205833335,139.14180426250002,69.0,93.0
199,139.22561105833336,140.23129260833335,67.0,102.0
200,140.58924705833334,140.9074287916667,67.0,93.0
201,140.93015605833335,141.26254233333336,76.0,105.0
202,141.27106505833333,141.64464450416668,67.0,102.0
203,141.61197405833335,141.93299670000002,76.0,110.0
204,141.95288305833336,142.51964427083334,72.0,80.0
205,142.63470105833335,143.12333729166667,74.0,102.0
206,143.31651905833334,144.32646197083335,79.0,102.0
207,146.04379105833334,146.2838478125,67.0,93.0
208,146.38470005833335,146.60345,69.0,105.0
209,146.72560905833333,146.93015445833333,71.0,102.0
210,147.06651805833334,147.23981346666667,72.0,93.0
211,147.40742705833335,147.88327920416668,74.0,103.0
212,148.08924505833335,148.60486992083335,79.0,102.0
213,148.77106305833334,150.30089219583334,81.0,95.0
214,150.81651705833335,150.9003238541667,74.0,93.0
215,150.98697155833335,151.06793744583334,74.0,93.0
216,151.15742605833333,151.38469872500002,74.0,95.0
217,151.49833505833334,151.59776685,71.0,87.0
218,151.66878955833334,151.75827817083334,71.0,93.0
219,151.83924405833335,152.0707780875,71.0,102.0
220,152.18015305833333,152.26964167083335,69.0,93.0
221,152.35060755833334,152.4329939,69.0,93.0
222,152.52106205833334,152.748334725,69.0,102.0
223,152.86197105833335,153.03526646666668,67.0,102.0
224,153.20288005833334,153.43725499583334,69.0,103.0
225,153.54378905833335,153.74833445833335,71.0,95.0
226,153.88469805833336,155.61339077916668,69.0,105.0
227,156.27106105833334,156.36765194166668,74.0,74.0
228,156.44151555833335,156.53100417083334,74.0,102.0
229,156.61197005833336,156.81935636666668,74.0,103.0
230,156.95287905833334,157.04236767083336,71.0,93.0
231,157.12333355833334,157.21708353333335,71.0,87.0
232,157.29378805833335,157.52816299583336,71.0,102.0
233,157.63469705833336,157.73128794166666,69.0,93.0
234,157.80515155833334,157.88895835416668,69.0,93.0
235,157.97560605833334,158.194356,69.0,102.0
236,158.31651505833335,158.53384454583335,67.0,95.0
237,158.65742405833333,158.88469672500003,74.0,95.0
238,158.99833305833334,159.19861709583336,76.0,102.0
239,159.33924205833335,160.37759405416668,74.0,102.0
240,161.38469605833336,161.63611644583335,74.0,103.0
241,161.72560505833334,161.92020727916668,76.0,103.0
242,162.06651405833335,162.22560492500003,74.0,93.0
243,162.40742305833334,162.56935483333334,76.0,105.0
244,162.74833205833335,162.90458201666667,74.0,102.0
245,163.08924105833336,163.24549101666668,71.0,90.0
246,163.43015005833334,163.85202494583334,74.0,102.0
247,164.11196805833333,164.3065702791667,71.0,93.0
248,164.45287705833334,164.67730881666668,74.0,102.0
249,164.79378605833335,164.98838827916668,71.0,95.0
250,165.13469505833334,165.3207745541667,74.0,102.0
251,165.47560405833335,165.62333129166666,71.0,95.0
252,165.81651305833333,165.97276301666668,64.0,95.0
253,166.15742205833334,166.67020601250002,67.0,95.0
254,167.18014905833334,167.27958085,72.0,93.0
255,167.35060355833335,167.44009217083334,72.0,83.0
256,167.52105805833335,167.69861482916667,72.0,87.0
257,167.86196705833333,167.9486147625,71.0,102.0
258,168.03242155833334,168.18014879166668,72.0,103.0
259,168.37333055833335,168.56509187083333,72.0,102.0
260,168.71423955833336,168.8008872625,71.0,102.0
261,168.88469405833334,169.1133871791667,72.0,103.0
262,169.22560305833335,169.31935303333336,71.0,93.0
263,169.39605755833335,169.48270526250002,72.0,93.0
264,169.56651205833333,169.7170802,74.0,103.0
265,169.90742105833334,170.0963414625,76.0,95.0
266,170.24833005833335,171.61196605833334,74.0,105.0
267,172.63469305833334,172.71849985416668,74.0,93.0
268,172.80514755833335,172.88611344583336,74.0,93.0
269,172.97560205833335,173.20287472500002,74.0,95.0
270,173.31651105833333,173.41594285000002,71.0,87.0
271,173.48696555833334,173.57645417083336,71.0,93.0
272,173.65742005833334,173.8889540875,71.0,102.0
273,173.99832905833335,174.08781767083335,69.0,93.0
274,174.16878355833336,174.2511699,69.0,93.0
275,174.33923805833334,174.566510725,69.0,102.0
276,174.68014705833335,174.85344246666668,67.0,102.0
277,175.02105605833333,175.25543099583334,69.0,103.0
278,175.36196505833334,175.56651045833334,71.0,95.0
279,175.70287405833335,177.43156677916667,69.0,105.0
280,178.08923705833334,178.18582794166667,74.0,74.0
281,178.25969155833334,178.34918017083334,74.0,102.0
282,178.43014605833335,178.63753236666668,74.0,103.0
283,178.77105505833333,178.86054367083335,71.0,93.0
284,178.94150955833334,179.03525953333335,71.0,87.0
285,179.11196405833334,179.34633899583335,71.0,102.0
286,179.45287305833335,179.54946394166666,69.0,93.0
287,179.62332755833336,179.70713435416667,69.0,93.0
288,179.79378205833333,180.01253200000002,69.0,102.0
289,180.13469105833335,180.35202054583334,67.0,95.0
290,180.47560005833333,180.70287272500002,74.0,95.0
291,180.81650905833334,181.01679309583335,76.0,102.0
292,181.15741805833335,182.19577005416667,74.0,102.0
293,183.20287205833336,183.45429244583335,74.0,103.0
294,183.54378105833334,183.73838327916667,76.0,103.0
295,183.88469005833335,184.04378092500002,74.0,93.0
296,184.22559905833333,184.38753083333336,76.0,105.0
297,184.56650805833334,184.72275801666666,74.0,102.0
298,184.90741705833335,185.06366701666667,71.0,90.0
299,185.24832605833333,185.67020094583336,74.0,102.0
300,185.93014405833333,186.1247462791667,71.0,93.0
301,186.27105305833334,186.49548481666667,74.0,102.0
302,186.61196205833335,186.80656427916668,71.0,95.0
303,186.95287105833336,187.13895055416668,74.0,102.0
304,187.29378005833334,187.44150729166668,71.0,95.0
305,187.63468905833335,187.79093901666667,64.0,95.0
306,187.97559805833333,188.4883820125,67.0,95.0
307,188.99832505833334,189.09775685,72.0,93.0
308,189.16877955833334,189.25826817083333,72.0,83.0
309,189.33923405833335,189.51679082916667,72.0,87.0
310,189.68014305833333,189.76679076250002,71.0,102.0
311,189.85059755833333,189.99832479166668,72.0,103.0
312,190.19150655833334,190.38326787083335,72.0,102.0
313,190.53241555833335,190.6190632625,71.0,102.0
314,190.70287005833333,190.9315631791667,72.0,103.0
315,191.04377905833334,191.13752903333335,71.0,93.0
316,191.21423355833335,191.3008812625,72.0,93.0
317,191.38468805833335,191.5352562,74.0,103.0
318,191.72559705833334,191.91451746250002,76.0,95.0
319,192.06650605833335,193.43014205833333,74.0,105.0
320,194.11196005833335,194.33071,69.0,95.0
321,194.45286905833336,194.64463037083334,71.0,87.0
322,194.79377805833334,195.15457341666666,69.0,105.0
323,195.47559605833334,195.6403687416667,69.0,93.0
324,195.81650505833335,196.01110727916668,71.0,95.0
325,196.15741405833336,196.6190616625,69.0,105.0
326,196.83923205833332,196.9855388375,69.0,102.0
327,197.18014105833333,197.32786829166668,71.0,95.0
328,197.52105005833334,197.95712948750003,69.0,105.0
329,198.03241355833336,198.11337944583335,67.0,93.0
330,198.20286805833334,198.28667485416668,69.0,105.0
331,198.37332255833334,198.46707253333335,67.0,90.0
332,198.54377705833335,198.73553837083335,71.0,93.0
333,198.88468605833333,199.2625268666667,69.0,103.0
334,199.56650405833335,199.7554244625,74.0,87.0
335,199.90741305833336,200.0807084666667,76.0,102.0
336,200.24832205833334,200.68298103333336,74.0,102.0
337,200.93014005833334,201.12190137083334,74.0,93.0
338,201.27104905833335,201.4599694625,76.0,102.0
339,201.61195805833336,202.29377605833332,74.0,103.0
340,203.48695755833336,203.7184915875,74.0,105.0
341,203.82786655833334,203.93013925833333,74.0,102.0
342,203.99832105833335,204.14462783750002,79.0,103.0
343,204.33923005833333,204.79093448333333,78.0,103.0
344,205.02104805833335,205.239798,69.0,95.0
345,205.36195705833336,205.55371837083334,71.0,87.0
346,205.70286605833334,206.06366141666666,69.0,105.0
347,206.38468405833333,206.5494567416667,69.0,93.0
348,206.72559305833335,206.92019527916668,71.0,95.0
349,207.06650205833336,207.52814966250003,69.0,105.0
350,207.74832005833335,207.89462683750003,69.0,102.0
351,208.08922905833333,208.23695629166667,71.0,95.0
352,208.43013805833334,208.86621748750002,69.0,105.0
353,208.94150155833336,209.02246744583334,67.0,93.0
354,209.11195605833336,209.19576285416667,69.0,105.0
355,209.28241055833334,209.37616053333335,67.0,90.0
356,209.45286505833334,209.64462637083335,71.0,93.0
357,209.79377405833333,210.1716148666667,69.0,103.0
358,210.47559205833335,210.6645124625,74.0,87.0
359,210.81650105833336,210.9897964666667,76.0,102.0
360,211.15741005833334,211.59206903333336,74.0,102.0
361,211.83922805833333,212.03098937083334,74.0,93.0
362,212.18013705833334,212.3690574625,76.0,102.0
363,212.52104605833335,213.20286405833335,74.0,103.0
364,214.22559105833335,214.39604555833336,71.0,100.0
365,214.39604555833336,214.56650005833336,72.0,105.0
366,214.56650005833336,214.90740905833334,74.0,102.0
367,214.90740905833334,215.24831805833333,71.0,103.0
368,215.24831805833333,215.93013605833335,81.0,103.0
369,215.93013605833335,217.80513555833335,79.0,102.0
