,start,end,pitch,velocity
0,25.934002614583335,27.038295114583335,62.0,115.0
1,27.038295114583335,27.406392614583332,57.0,118.0
2,27.406392614583332,28.142587614583334,62.0,115.0
3,28.142587614583334,28.878782614583333,65.0,112.0
4,28.878782614583333,29.246880114583334,67.0,112.0
5,29.246880114583334,29.430928864583333,69.0,112.0
6,29.430928864583333,29.614977614583335,67.0,109.0
7,29.614977614583335,29.983075114583333,65.0,112.0
8,29.983075114583333,30.351172614583334,67.0,109.0
9,30.351172614583334,31.823562614583334,69.0,112.0
10,31.823562614583334,32.190126375,74.0,112.0
11,32.191660114583335,32.37570886458333,74.0,109.0
12,32.37570886458333,32.55975761458333,72.0,109.0
13,32.55975761458333,32.92785511458333,69.0,115.0
14,32.92785511458333,33.295952614583335,67.0,104.0
15,33.295952614583335,33.66405011458333,65.0,115.0
16,33.66405011458333,34.03214761458334,62.0,112.0
17,34.03214761458334,34.400245114583335,65.0,112.0
18,34.400245114583335,34.76834261458333,67.0,106.0
19,34.76834261458333,37.711588875000004,69.0,112.0
20,37.713122614583334,38.079686375,69.0,118.0
21,38.08122011458333,38.81741511458333,69.0,115.0
22,38.81741511458333,39.183978875,74.0,106.0
23,39.18551261458333,39.553610114583336,74.0,109.0
24,39.553610114583336,39.92170761458333,72.0,112.0
25,39.92170761458333,40.288271375,69.0,115.0
26,40.28980511458333,40.47385386458333,69.0,112.0
27,40.47385386458333,40.657902614583335,72.0,106.0
28,40.657902614583335,41.02600011458333,65.0,115.0
29,41.02600011458333,41.762195114583335,62.0,112.0
30,41.762195114583335,42.128758875,69.0,109.0
31,42.13029261458333,42.49839011458334,69.0,112.0
32,42.49839011458334,43.601148875,67.0,106.0
33,43.60268261458334,43.969246375,67.0,101.0
34,43.970780114583334,44.153295125,67.0,104.0
35,44.15482886458334,44.33887761458333,67.0,106.0
36,44.33887761458333,44.70697511458334,69.0,109.0
37,44.70697511458334,45.075072614583334,72.0,106.0
38,45.075072614583334,45.809733875,65.0,112.0
39,45.811267614583336,46.179365114583334,65.0,112.0
40,46.179365114583334,46.363413864583336,67.0,109.0
41,46.363413864583336,46.915560114583336,65.0,114.0
42,46.915560114583336,49.490708875,62.0,109.0
43,49.49224261458333,50.59653511458333,62.0,115.0
44,50.59653511458333,50.96463261458334,57.0,118.0
45,50.96463261458334,51.331196375,62.0,115.0
46,51.332730114583335,51.70082761458333,62.0,115.0
47,51.70082761458333,52.437022614583334,69.0,112.0
48,52.437022614583334,52.80512011458333,67.0,112.0
49,52.80512011458333,52.989168864583334,69.0,112.0
50,52.989168864583334,53.173217614583336,67.0,109.0
51,53.173217614583336,53.541315114583334,65.0,112.0
52,53.541315114583334,53.90941261458333,67.0,109.0
53,53.90941261458333,55.381802614583336,69.0,112.0
54,55.381802614583336,55.748366375,74.0,112.0
55,55.74990011458333,55.933948864583336,74.0,109.0
56,55.933948864583336,56.11799761458333,72.0,109.0
57,56.11799761458333,56.486095114583335,69.0,115.0
58,56.486095114583335,56.85419261458333,67.0,104.0
59,56.85419261458333,57.22229011458334,65.0,115.0
60,57.22229011458334,57.590387614583335,62.0,112.0
61,57.590387614583335,57.95848511458333,65.0,112.0
62,57.95848511458333,58.32658261458334,67.0,106.0
63,58.32658261458334,61.269828875,69.0,112.0
64,61.27136261458333,61.637926375,69.0,118.0
65,61.639460114583336,62.37565511458333,69.0,115.0
66,62.37565511458333,62.742218875,74.0,106.0
67,62.743752614583336,63.11185011458333,74.0,109.0
68,63.11185011458333,63.47994761458333,72.0,112.0
69,63.47994761458333,64.21614261458333,69.0,115.0
70,64.21614261458333,64.58424011458334,65.0,115.0
71,64.58424011458334,65.32043511458333,62.0,112.0
72,65.32043511458333,65.686998875,69.0,109.0
73,65.68853261458334,66.05663011458333,69.0,112.0
74,66.05663011458333,67.159388875,67.0,106.0
75,67.16092261458333,67.527486375,67.0,101.0
76,67.52902011458333,67.711535125,67.0,104.0
77,67.71306886458333,67.89711761458334,67.0,106.0
78,67.89711761458334,68.26521511458333,69.0,109.0
79,68.26521511458333,68.63331261458333,72.0,106.0
80,68.63331261458333,69.367973875,65.0,112.0
81,69.36950761458334,69.73760511458333,65.0,112.0
82,69.73760511458333,69.92165386458333,67.0,109.0
83,69.92165386458333,70.47380011458334,65.0,114.0
84,70.47380011458334,73.05048261458333,62.0,109.0
85,73.05048261458333,73.417046375,74.0,112.0
86,73.41858011458334,74.15477511458333,74.0,112.0
87,74.15477511458333,74.52287261458333,72.0,104.0
88,74.52287261458333,74.89097011458334,74.0,109.0
89,74.89097011458334,75.25906761458333,72.0,112.0
90,75.25906761458333,75.99526261458334,69.0,115.0
91,75.99526261458334,76.36336011458333,72.0,112.0
92,76.36336011458333,76.73145761458333,69.0,112.0
93,76.73145761458333,77.09955511458334,67.0,112.0
94,77.09955511458334,77.28360386458334,65.0,115.0
95,77.28360386458334,77.46765261458333,67.0,112.0
96,77.46765261458333,78.94004261458333,69.0,109.0
97,78.94004261458333,79.49218886458334,74.0,112.0
98,79.49218886458334,79.67623761458333,72.0,112.0
99,79.67623761458333,80.04433511458333,74.0,115.0
100,80.04433511458333,80.41243261458334,72.0,112.0
101,80.41243261458334,80.78053011458333,70.0,117.0
102,80.78053011458333,81.51672511458334,62.0,118.0
103,81.51672511458334,81.70077386458334,67.0,104.0
104,81.70077386458334,81.88482261458333,69.0,109.0
105,81.88482261458333,84.828068875,67.0,106.0
106,84.82960261458334,85.196166375,67.0,112.0
107,85.19770011458334,85.38174886458333,67.0,109.0
108,85.38174886458333,85.56579761458333,69.0,101.0
109,85.56579761458333,85.93389511458334,67.0,118.0
110,85.93389511458334,86.30199261458334,65.0,115.0
111,86.30199261458334,87.77438261458333,67.0,112.0
112,87.77438261458333,88.140946375,62.0,109.0
113,88.14248011458334,88.32652886458334,62.0,109.0
114,88.32652886458334,88.51057761458334,65.0,109.0
115,88.51057761458334,88.87867511458333,62.0,112.0
116,88.87867511458333,89.24677261458334,60.0,112.0
117,89.24677261458334,90.717628875,57.0,115.0
118,90.71916261458334,91.08726011458333,57.0,104.0
119,91.08726011458333,91.453823875,67.0,109.0
120,91.45535761458333,91.82345511458334,67.0,112.0
121,91.82345511458334,92.19155261458333,69.0,112.0
122,92.19155261458333,92.92774761458334,65.0,109.0
123,92.92774761458334,93.11179636458334,62.0,112.0
124,93.11179636458334,93.29584511458333,65.0,109.0
125,93.29584511458333,93.47989386458333,62.0,112.0
126,93.47989386458333,93.66394261458333,60.0,99.0
127,93.66394261458333,96.60872261458333,62.0,112.0
128,96.60872261458333,96.975286375,74.0,112.0
129,96.97682011458333,97.71301511458333,74.0,112.0
130,97.71301511458333,98.08111261458333,72.0,104.0
131,98.08111261458333,98.44921011458334,74.0,109.0
132,98.44921011458334,98.81730761458333,72.0,112.0
133,98.81730761458333,99.55350261458334,69.0,115.0
134,99.55350261458334,99.92160011458333,72.0,112.0
135,99.92160011458333,100.28969761458333,69.0,112.0
136,100.28969761458333,100.65779511458334,67.0,112.0
137,100.65779511458334,100.84184386458334,65.0,115.0
138,100.84184386458334,101.02589261458334,67.0,112.0
139,101.02589261458334,102.49828261458333,69.0,109.0
140,102.49828261458333,103.05042886458334,74.0,112.0
141,103.05042886458334,103.23447761458334,72.0,112.0
142,103.23447761458334,103.60257511458333,74.0,115.0
143,103.60257511458333,103.97067261458334,72.0,112.0
144,103.97067261458334,104.33877011458334,70.0,117.0
145,104.33877011458334,105.07496511458334,62.0,118.0
146,105.07496511458334,105.25901386458334,67.0,104.0
147,105.25901386458334,105.44306261458334,69.0,109.0
148,105.44306261458334,108.386308875,67.0,106.0
149,108.38784261458333,108.754406375,67.0,112.0
150,108.75594011458334,108.93998886458334,67.0,109.0
151,108.93998886458334,109.12403761458333,69.0,101.0
152,109.12403761458333,109.49213511458333,67.0,118.0
153,109.49213511458333,109.86023261458334,65.0,115.0
154,109.86023261458334,111.33262261458333,67.0,112.0
155,111.33262261458333,111.699186375,62.0,109.0
156,111.70072011458333,111.88476886458334,62.0,109.0
157,111.88476886458334,112.06881761458334,65.0,109.0
158,112.06881761458334,112.43691511458333,62.0,112.0
159,112.43691511458333,112.80501261458333,60.0,112.0
160,112.80501261458333,114.275868875,57.0,115.0
161,114.27740261458334,114.64550011458333,57.0,104.0
162,114.64550011458333,115.012063875,67.0,109.0
163,115.01359761458333,115.38169511458334,67.0,112.0
164,115.38169511458334,115.74979261458334,69.0,112.0
165,115.74979261458334,116.48598761458334,65.0,109.0
166,116.48598761458334,116.67003636458334,62.0,112.0
167,116.67003636458334,116.85408511458334,65.0,109.0
168,116.85408511458334,117.03813386458333,62.0,112.0
169,117.03813386458333,117.22218261458333,60.0,99.0
170,117.22218261458333,120.73598,62.0,112.0
171,143.72520261458334,144.82949511458332,62.0,115.0
172,144.82949511458332,145.19759261458333,57.0,118.0
173,145.19759261458333,145.93378761458334,62.0,115.0
174,145.93378761458334,146.66998261458335,65.0,112.0
175,146.66998261458335,147.03808011458332,67.0,112.0
176,147.03808011458332,147.22212886458334,69.0,112.0
177,147.22212886458334,147.40617761458333,67.0,109.0
178,147.40617761458333,147.77427511458333,65.0,112.0
179,147.77427511458333,148.14237261458334,67.0,109.0
180,148.14237261458334,149.61476261458333,69.0,112.0
181,149.61476261458333,149.981326375,74.0,112.0
182,149.98286011458333,150.16690886458335,74.0,109.0
183,150.16690886458335,150.35095761458334,72.0,109.0
184,150.35095761458334,150.71905511458334,69.0,115.0
185,150.71905511458334,151.08715261458335,67.0,104.0
186,151.08715261458335,151.45525011458332,65.0,115.0
187,151.45525011458332,151.82334761458333,62.0,112.0
188,151.82334761458333,152.19144511458333,65.0,112.0
189,152.19144511458333,152.55954261458334,67.0,106.0
190,152.55954261458334,155.502788875,69.0,112.0
191,155.50432261458334,155.870886375,69.0,118.0
192,155.87242011458335,156.60861511458333,69.0,115.0
193,156.60861511458333,156.975178875,74.0,106.0
194,156.97671261458333,157.34481011458334,74.0,109.0
195,157.34481011458334,157.71290761458334,72.0,112.0
196,157.71290761458334,158.079471375,69.0,115.0
197,158.08100511458335,158.26505386458334,69.0,112.0
198,158.26505386458334,158.44910261458332,72.0,106.0
199,158.44910261458332,158.81720011458333,65.0,115.0
200,158.81720011458333,159.55339511458334,62.0,112.0
201,159.55339511458334,159.919958875,69.0,109.0
202,159.92149261458334,160.28959011458335,69.0,112.0
203,160.28959011458335,161.392348875,67.0,106.0
204,161.39388261458333,161.76044637500001,67.0,101.0
205,161.76198011458334,161.944495125,67.0,104.0
206,161.94602886458333,162.13007761458334,67.0,106.0
207,162.13007761458334,162.49817511458335,69.0,109.0
208,162.49817511458335,162.86627261458332,72.0,106.0
209,162.86627261458332,163.600933875,65.0,112.0
210,163.60246761458333,163.97056511458334,65.0,112.0
211,163.97056511458334,164.15461386458333,67.0,109.0
212,164.15461386458333,164.70676011458335,65.0,114.0
213,164.70676011458335,167.281908875,62.0,109.0
214,167.28344261458332,168.38773511458334,62.0,115.0
215,168.38773511458334,168.75583261458334,57.0,118.0
216,168.75583261458334,169.122396375,62.0,115.0
217,169.12393011458335,169.49202761458332,62.0,115.0
218,169.49202761458332,170.22822261458333,69.0,112.0
219,170.22822261458333,170.59632011458334,67.0,112.0
220,170.59632011458334,170.78036886458332,69.0,112.0
221,170.78036886458332,170.96441761458334,67.0,109.0
222,170.96441761458334,171.33251511458334,65.0,112.0
223,171.33251511458334,171.70061261458335,67.0,109.0
224,171.70061261458335,173.17300261458334,69.0,112.0
225,173.17300261458334,173.539566375,74.0,112.0
226,173.54110011458334,173.72514886458333,74.0,109.0
227,173.72514886458333,173.90919761458335,72.0,109.0
228,173.90919761458335,174.27729511458332,69.0,115.0
229,174.27729511458332,174.64539261458333,67.0,104.0
230,174.64539261458333,175.01349011458333,65.0,115.0
231,175.01349011458333,175.38158761458334,62.0,112.0
232,175.38158761458334,175.74968511458334,65.0,112.0
233,175.74968511458334,176.11778261458335,67.0,106.0
234,176.11778261458335,179.061028875,69.0,112.0
235,179.06256261458333,179.429126375,69.0,118.0
236,179.43066011458333,180.16685511458334,69.0,115.0
237,180.16685511458334,180.533418875,74.0,106.0
238,180.53495261458335,180.90305011458332,74.0,109.0
239,180.90305011458332,181.27114761458333,72.0,112.0
240,181.27114761458333,182.00734261458334,69.0,115.0
241,182.00734261458334,182.37544011458334,65.0,115.0
242,182.37544011458334,183.11163511458332,62.0,112.0
243,183.11163511458332,183.478198875,69.0,109.0
244,183.47973261458333,183.84783011458333,69.0,112.0
245,183.84783011458333,184.950588875,67.0,106.0
246,184.95212261458335,185.318686375,67.0,101.0
247,185.32022011458332,185.50273512500002,67.0,104.0
248,185.50426886458334,185.68831761458333,67.0,106.0
249,185.68831761458333,186.05641511458333,69.0,109.0
250,186.05641511458333,186.42451261458334,72.0,106.0
251,186.42451261458334,187.159173875,65.0,112.0
252,187.16070761458334,187.52880511458335,65.0,112.0
253,187.52880511458335,187.71285386458334,67.0,109.0
254,187.71285386458334,188.26500011458333,65.0,114.0
255,188.26500011458333,190.84168261458333,62.0,109.0
256,190.84168261458333,191.20824637500002,74.0,112.0
257,191.20978011458334,191.94597511458335,74.0,112.0
258,191.94597511458335,192.31407261458332,72.0,104.0
259,192.31407261458332,192.68217011458333,74.0,109.0
260,192.68217011458333,193.05026761458333,72.0,112.0
261,193.05026761458333,193.78646261458334,69.0,115.0
262,193.78646261458334,194.15456011458335,72.0,112.0
263,194.15456011458335,194.52265761458332,69.0,112.0
264,194.52265761458332,194.89075511458333,67.0,112.0
265,194.89075511458333,195.07480386458334,65.0,115.0
266,195.07480386458334,195.25885261458333,67.0,112.0
267,195.25885261458333,196.73124261458332,69.0,109.0
268,196.73124261458332,197.28338886458334,74.0,112.0
269,197.28338886458334,197.46743761458333,72.0,112.0
270,197.46743761458333,197.83553511458334,74.0,115.0
271,197.83553511458334,198.20363261458334,72.0,112.0
272,198.20363261458334,198.57173011458335,70.0,117.0
273,198.57173011458335,199.30792511458333,62.0,118.0
274,199.30792511458333,199.49197386458334,67.0,104.0
275,199.49197386458334,199.67602261458333,69.0,109.0
276,199.67602261458333,202.619268875,67.0,106.0
277,202.62080261458334,202.987366375,67.0,112.0
278,202.98890011458334,203.17294886458333,67.0,109.0
279,203.17294886458333,203.35699761458335,69.0,101.0
280,203.35699761458335,203.72509511458333,67.0,118.0
281,203.72509511458333,204.09319261458333,65.0,115.0
282,204.09319261458333,205.56558261458335,67.0,112.0
283,205.56558261458335,205.932146375,62.0,109.0
284,205.93368011458332,206.11772886458334,62.0,109.0
285,206.11772886458334,206.30177761458333,65.0,109.0
286,206.30177761458333,206.66987511458333,62.0,112.0
287,206.66987511458333,207.03797261458334,60.0,112.0
288,207.03797261458334,208.508828875,57.0,115.0
289,208.51036261458333,208.87846011458333,57.0,104.0
290,208.87846011458333,209.24502387500002,67.0,109.0
291,209.24655761458334,209.61465511458334,67.0,112.0
292,209.61465511458334,209.98275261458335,69.0,112.0
293,209.98275261458335,210.71894761458333,65.0,109.0
294,210.71894761458333,210.90299636458334,62.0,112.0
295,210.90299636458334,211.08704511458333,65.0,109.0
296,211.08704511458333,211.27109386458335,62.0,112.0
297,211.27109386458335,211.45514261458334,60.0,99.0
298,211.45514261458334,214.39992261458335,62.0,112.0
299,214.39992261458335,214.766486375,74.0,112.0
300,214.76802011458332,215.50421511458333,74.0,112.0
301,215.50421511458333,215.87231261458334,72.0,104.0
302,215.87231261458334,216.24041011458334,74.0,109.0
303,216.24041011458334,216.60850761458335,72.0,112.0
304,216.60850761458335,217.34470261458333,69.0,115.0
305,217.34470261458333,217.71280011458333,72.0,112.0
306,217.71280011458333,218.08089761458334,69.0,112.0
307,218.08089761458334,218.44899511458334,67.0,112.0
308,218.44899511458334,218.63304386458333,65.0,115.0
309,218.63304386458333,218.81709261458334,67.0,112.0
310,218.81709261458334,220.28948261458333,69.0,109.0
311,220.28948261458333,220.84162886458333,74.0,112.0
312,220.84162886458333,221.02567761458334,72.0,112.0
313,221.02567761458334,221.39377511458335,74.0,115.0
314,221.39377511458335,221.76187261458333,72.0,112.0
315,221.76187261458333,222.12997011458333,70.0,117.0
316,222.12997011458333,222.86616511458334,62.0,118.0
317,222.86616511458334,223.05021386458333,67.0,104.0
318,223.05021386458333,223.23426261458334,69.0,109.0
319,223.23426261458334,226.177508875,67.0,106.0
320,226.17904261458332,226.545606375,67.0,112.0
321,226.54714011458333,226.73118886458334,67.0,109.0
322,226.73118886458334,226.91523761458333,69.0,101.0
323,226.91523761458333,227.28333511458334,67.0,118.0
324,227.28333511458334,227.65143261458334,65.0,115.0
325,227.65143261458334,229.12382261458333,67.0,112.0
326,229.12382261458333,229.490386375,62.0,109.0
327,229.49192011458334,229.67596886458333,62.0,109.0
328,229.67596886458333,229.86001761458334,65.0,109.0
329,229.86001761458334,230.22811511458335,62.0,112.0
330,230.22811511458335,230.59621261458332,60.0,112.0
331,230.59621261458332,232.067068875,57.0,115.0
332,232.06860261458334,232.43670011458335,57.0,104.0
333,232.43670011458335,232.803263875,67.0,109.0
334,232.80479761458335,233.17289511458333,67.0,112.0
335,233.17289511458333,233.54099261458333,69.0,112.0
336,233.54099261458333,234.27718761458334,65.0,109.0
337,234.27718761458334,234.46123636458333,62.0,112.0
338,234.46123636458333,234.64528511458334,65.0,109.0
339,234.64528511458334,234.82933386458333,62.0,112.0
340,234.82933386458333,235.01338261458335,60.0,99.0
341,235.01338261458335,238.52718000000002,62.0,112.0
