,start,end,pitch,velocity
0,0.9033726145833334,1.306746125,45.0,112.0
1,1.4555188645833335,1.5720830729166666,48.0,115.0
2,1.6395676145833333,1.8680948125,50.0,112.0
3,2.0076651145833333,2.2898731979166667,53.0,115.0
4,2.3757626145833335,3.05520925,50.0,104.0
5,2.7438601145833332,3.147233625,57.0,99.0
6,2.7438601145833332,3.17944215625,62.0,104.0
7,2.7438601145833332,3.187110854166667,65.0,104.0
8,3.480055114583333,3.64876646875,62.0,104.0
9,3.480055114583333,3.6794412604166666,57.0,99.0
10,3.1119576145833334,3.720852229166667,45.0,82.0
11,3.480055114583333,3.73158840625,65.0,104.0
12,3.8481526145833334,4.581280135416667,50.0,99.0
13,4.2162501145833335,4.765328885416666,57.0,106.0
14,4.2162501145833335,4.768396364583333,65.0,104.0
15,4.2162501145833335,4.779132541666667,62.0,109.0
16,4.584347614583334,5.17637109375,45.0,91.0
17,4.952445114583333,5.257659291666667,62.0,115.0
18,4.952445114583333,5.306738958333334,57.0,109.0
19,4.952445114583333,5.358886104166666,65.0,106.0
20,5.320542614583333,5.797535625,45.0,99.0
21,5.688640114583333,6.17943678125,60.0,94.0
22,5.688640114583333,6.182504260416667,64.0,106.0
23,5.688640114583333,6.191706697916667,57.0,101.0
24,6.056737614583334,6.60274890625,52.0,94.0
25,6.424835114583334,6.622687520833334,60.0,89.0
26,6.424835114583334,6.624221260416666,57.0,96.0
27,6.424835114583334,6.631889958333334,64.0,99.0
28,6.792932614583333,7.386489833333333,45.0,82.0
29,7.161030114583333,7.7208450625000005,64.0,101.0
30,7.161030114583333,7.722378802083333,60.0,96.0
31,7.161030114583333,7.7300475,57.0,106.0
32,7.897225114583334,8.182500677083333,60.0,96.0
33,7.5291276145833335,8.188635635416667,52.0,94.0
34,7.897225114583334,8.216242947916667,57.0,104.0
35,7.897225114583334,8.545996958333333,64.0,104.0
36,8.265322614583333,8.84814365625,46.0,70.0
37,8.633420114583334,9.1748301875,62.0,101.0
38,8.633420114583334,9.1932350625,53.0,99.0
39,8.633420114583334,9.2024375,58.0,96.0
40,9.001517614583333,9.572068739583333,41.0,96.0
41,9.369615114583333,9.636485802083333,53.0,104.0
42,9.369615114583333,9.63955328125,62.0,106.0
43,9.369615114583333,9.650289458333333,58.0,113.0
44,9.737712614583334,10.397220635416668,46.0,104.0
45,10.105810114583333,10.584336864583333,53.0,106.0
46,10.105810114583333,10.590471822916667,62.0,106.0
47,10.105810114583333,10.608876697916667,58.0,117.0
48,10.842005114583333,11.012250208333333,53.0,96.0
49,10.842005114583333,11.022986385416667,58.0,107.0
50,10.473907614583334,11.036790041666666,41.0,101.0
51,10.842005114583333,11.13034815625,62.0,106.0
52,11.210102614583333,11.91255534375,48.0,94.0
53,11.578200114583334,12.04138946875,55.0,91.0
54,11.578200114583334,12.08740165625,64.0,101.0
55,11.578200114583334,12.09660409375,60.0,91.0
56,11.946297614583333,12.5797320625,43.0,89.0
57,12.314395114583334,12.63954790625,55.0,87.0
58,12.314395114583334,12.674823916666666,60.0,96.0
59,12.314395114583334,12.69936375,64.0,101.0
60,12.682492614583333,13.3711416875,48.0,69.0
61,13.050590114583333,13.6196075,55.0,99.0
62,13.050590114583333,13.6288099375,64.0,101.0
63,13.050590114583333,13.636478635416667,60.0,99.0
64,13.418687614583334,13.952428989583334,43.0,104.0
65,13.786785114583333,13.998441177083334,60.0,109.0
66,13.786785114583333,14.101201729166666,55.0,106.0
67,13.786785114583333,14.161017572916666,64.0,106.0
68,14.154882614583334,14.648746760416667,43.0,104.0
69,14.522980114583333,14.950893458333333,58.0,113.0
70,14.522980114583333,15.010709302083333,55.0,101.0
71,14.522980114583333,15.049052791666666,62.0,104.0
72,14.891077614583333,15.392610458333333,50.0,78.0
73,15.259175114583334,15.41868403125,55.0,94.0
74,15.259175114583334,15.420217770833334,62.0,104.0
75,15.259175114583334,15.42788646875,58.0,101.0
76,15.627272614583333,16.064388395833333,43.0,101.0
77,16.36346761458333,16.644141958333332,55.0,94.0
78,16.36346761458333,16.67021553125,58.0,96.0
79,16.36346761458333,16.694755364583333,62.0,106.0
80,17.099662614583334,17.582790583333335,45.0,104.0
81,17.467760114583335,17.96775921875,64.0,101.0
82,17.467760114583335,17.987697833333332,57.0,104.0
83,17.467760114583335,18.001501489583333,60.0,101.0
84,17.835857614583333,18.364997770833334,52.0,87.0
85,18.203955114583334,18.384936385416665,64.0,96.0
86,18.203955114583334,18.388003864583332,57.0,94.0
87,18.203955114583334,18.389537604166666,60.0,91.0
88,18.572052614583335,18.828187125,64.0,96.0
89,18.572052614583335,18.829720864583333,57.0,89.0
90,18.572052614583335,18.857328177083332,60.0,89.0
91,18.572052614583335,18.940150114583332,45.0,104.0
92,20.044442614583332,20.1441356875,55.0,96.0
93,20.044442614583332,20.1441356875,60.0,99.0
94,20.044442614583332,20.147203166666667,48.0,99.0
95,20.044442614583332,20.147203166666667,64.0,101.0
96,20.412540114583333,20.47849091666667,55.0,82.0
97,20.412540114583333,20.492294572916666,64.0,91.0
98,20.412540114583333,20.495362052083333,60.0,89.0
99,20.412540114583333,20.501497010416667,48.0,80.0
100,20.596588864583335,20.6594721875,55.0,82.0
101,20.596588864583335,20.662539666666667,60.0,85.0
102,20.596588864583335,20.67327584375,64.0,96.0
103,20.596588864583335,20.679410802083332,48.0,91.0
104,20.780637614583334,20.863459552083334,60.0,91.0
105,20.780637614583334,20.864993291666668,55.0,89.0
106,20.780637614583334,20.872661989583335,64.0,99.0
107,20.780637614583334,20.878796947916666,48.0,96.0
108,21.148735114583335,21.214685916666667,55.0,91.0
109,21.148735114583335,21.23462453125,60.0,99.0
110,21.148735114583335,21.245360708333333,64.0,99.0
111,21.148735114583335,21.249961927083334,48.0,96.0
112,21.516832614583333,21.734623635416668,55.0,99.0
113,21.516832614583333,21.756095989583333,60.0,96.0
114,21.516832614583333,21.762230947916667,64.0,101.0
115,21.516832614583333,21.785237041666665,48.0,99.0
116,22.989222614583333,23.614988364583333,50.0,104.0
117,23.357320114583334,23.797503375,62.0,106.0
118,23.357320114583334,23.799037114583335,65.0,104.0
119,23.357320114583334,23.80057085416667,57.0,104.0
120,23.725417614583332,24.306704916666668,45.0,109.0
121,24.093515114583333,24.51069228125,65.0,101.0
122,24.093515114583333,24.512226020833335,57.0,101.0
123,24.093515114583333,24.51375976041667,62.0,99.0
124,24.461612614583334,25.16406534375,50.0,94.0
125,24.829710114583335,25.346580354166665,65.0,101.0
126,24.829710114583335,25.360384010416666,57.0,101.0
127,24.829710114583335,25.360384010416666,62.0,101.0
128,25.197807614583333,25.82050588541667,45.0,101.0
129,25.565905114583334,25.834309541666666,57.0,109.0
130,25.565905114583334,25.843511979166667,62.0,106.0
131,25.565905114583334,25.85424815625,65.0,104.0
132,25.934002614583335,26.39719196875,65.0,106.0
133,25.934002614583335,26.676332572916667,62.0,104.0
134,26.302100114583332,26.835841489583334,57.0,74.0
135,26.670197614583333,27.144123145833333,65.0,101.0
136,26.670197614583333,27.148724364583334,69.0,106.0
137,27.038295114583335,27.535226739583333,57.0,87.0
138,27.406392614583332,27.846575875,65.0,96.0
139,27.406392614583332,27.972342520833333,62.0,96.0
140,27.774490114583333,28.179397364583334,57.0,80.0
141,25.934002614583335,28.220808333333334,50.0,104.0
142,28.142587614583334,28.48614528125,65.0,106.0
143,28.142587614583334,28.565899739583333,69.0,104.0
144,28.510685114583335,28.63338428125,62.0,96.0
145,28.878782614583333,29.289824822916668,62.0,82.0
146,28.878782614583333,29.29902726041667,58.0,96.0
147,28.878782614583333,29.435530083333333,55.0,91.0
148,29.246880114583334,29.966203979166668,50.0,67.0
149,29.614977614583335,30.056694614583332,58.0,117.0
150,28.878782614583333,30.065897052083333,43.0,101.0
151,29.983075114583333,30.154853947916667,55.0,106.0
152,29.614977614583335,30.237675885416667,62.0,104.0
153,30.351172614583334,30.76834978125,60.0,99.0
154,30.351172614583334,30.967735927083332,57.0,104.0
155,30.351172614583334,31.268348885416668,45.0,101.0
156,30.719270114583335,31.27448384375,52.0,73.0
157,31.087367614583332,31.427857802083334,60.0,106.0
158,31.087367614583332,31.4447289375,64.0,104.0
159,31.455465114583333,31.79288782291667,57.0,87.0
160,31.823562614583334,32.018347541666664,58.0,93.0
161,31.823562614583334,32.06589346875,62.0,104.0
162,32.191660114583335,32.68859173958333,53.0,35.0
163,32.55975761458333,32.703929135416665,58.0,107.0
164,32.55975761458333,33.14411239583333,62.0,106.0
165,32.92785511458333,33.17938840625,58.0,83.0
166,33.295952614583335,33.53828346875,58.0,81.0
167,33.295952614583335,33.699326125,65.0,101.0
168,33.295952614583335,33.713129781250004,62.0,101.0
169,34.03214761458334,34.11190207291666,58.0,93.0
170,33.66405011458333,34.391042677083334,53.0,48.0
171,34.03214761458334,34.49687070833333,65.0,99.0
172,34.400245114583335,34.60576621875,58.0,104.0
173,34.03214761458334,34.62263735416667,62.0,106.0
174,31.823562614583334,34.65331214583333,46.0,77.0
175,34.76834261458333,35.159446208333335,62.0,96.0
176,34.76834261458333,35.160979947916665,57.0,94.0
177,35.13644011458334,35.61036564583333,52.0,85.0
178,35.504537614583334,36.02294159375,64.0,104.0
179,35.504537614583334,36.04901516666667,57.0,106.0
180,34.76834261458333,36.088892395833334,45.0,96.0
181,35.87263511458333,36.17018059375,52.0,87.0
182,36.24073261458334,36.68551709375,61.0,93.0
183,36.24073261458334,36.783676427083336,57.0,96.0
184,36.608830114583334,37.07201946875,52.0,82.0
185,36.97692761458333,37.13336905208333,57.0,106.0
186,36.97692761458333,37.39563852083334,61.0,117.0
187,36.97692761458333,37.40637469791667,69.0,104.0
188,36.24073261458334,37.42171209375,45.0,104.0
189,37.345025114583336,37.576619791666666,57.0,115.0
190,37.713122614583334,37.88490144791667,57.0,101.0
191,37.713122614583334,38.160974572916665,62.0,106.0
192,38.08122011458333,38.51680215625,57.0,91.0
193,38.449317614583336,38.94011428125,62.0,106.0
194,38.449317614583336,38.963120375,65.0,106.0
195,38.81741511458333,39.306678041666665,57.0,94.0
196,39.18551261458333,39.68704545833334,62.0,106.0
197,39.18551261458333,39.742260083333335,65.0,109.0
198,39.553610114583336,40.0214006875,57.0,99.0
199,37.713122614583334,40.288271375,50.0,101.0
200,39.92170761458333,40.31894616666667,62.0,109.0
201,39.92170761458333,40.378762010416665,65.0,112.0
202,40.28980511458333,40.461583947916665,57.0,109.0
203,40.657902614583335,41.134895625,58.0,93.0
204,40.657902614583335,41.1809078125,62.0,104.0
205,41.39409761458333,41.49685816666667,58.0,86.0
206,41.02600011458333,41.59195002083333,53.0,80.0
207,40.657902614583335,41.78213372916667,46.0,70.0
208,41.39409761458333,41.834280875,62.0,106.0
209,41.39409761458333,41.85728696875,65.0,106.0
210,41.762195114583335,41.94777760416667,58.0,120.0
211,42.13029261458333,42.596549447916665,58.0,107.0
212,42.13029261458333,42.604218145833336,62.0,101.0
213,42.49839011458334,42.917101020833336,55.0,89.0
214,42.866487614583335,43.294400958333334,58.0,113.0
215,43.23458511458333,43.42323508333333,55.0,91.0
216,42.13029261458333,43.461578572916665,43.0,101.0
217,42.866487614583335,43.47538222916667,62.0,109.0
218,43.60268261458334,43.74532039583333,55.0,101.0
219,43.60268261458334,43.75298909375,62.0,104.0
220,43.60268261458334,43.76832648958333,43.0,106.0
221,43.970780114583334,44.03979839583334,55.0,94.0
222,43.970780114583334,44.053602052083335,62.0,101.0
223,43.970780114583334,44.06740570833333,43.0,99.0
224,44.15482886458334,44.226914625,55.0,91.0
225,44.15482886458334,44.240718281250004,43.0,91.0
226,44.15482886458334,44.24992071875,62.0,104.0
227,44.33887761458333,44.50912270833334,64.0,101.0
228,44.33887761458333,44.510656447916666,45.0,106.0
229,44.33887761458333,44.51372392708333,57.0,109.0
230,44.70697511458334,44.878753947916664,43.0,96.0
231,44.70697511458334,44.878753947916664,55.0,99.0
232,44.70697511458334,44.88488890625,62.0,106.0
233,45.075072614583334,45.30666729166667,60.0,91.0
234,45.075072614583334,45.31740346875,53.0,101.0
235,45.075072614583334,45.39255670833333,41.0,99.0
236,46.54746261458333,46.97384221875,62.0,104.0
237,46.54746261458333,46.98457839583333,65.0,104.0
238,46.915560114583336,47.23457794791667,57.0,74.0
239,47.28365761458333,47.46157140625,62.0,101.0
240,47.28365761458333,47.469240104166666,65.0,106.0
241,47.65175511458333,48.07199976041667,57.0,104.0
242,48.019852614583336,48.581201302083336,62.0,106.0
243,48.019852614583336,48.581201302083336,65.0,106.0
244,48.38795011458333,48.63334844791667,57.0,39.0
245,48.75604761458333,49.24684428125,65.0,109.0
246,48.75604761458333,49.31739630208333,62.0,109.0
247,49.124145114583335,49.3526723125,57.0,104.0
248,46.54746261458333,49.372610927083336,50.0,101.0
249,49.49224261458333,49.95543196875,65.0,106.0
250,49.49224261458333,50.23457257291667,62.0,104.0
251,49.86034011458334,50.394081489583336,57.0,74.0
252,50.228437614583335,50.70236314583333,65.0,101.0
253,50.228437614583335,50.706964364583335,69.0,106.0
254,50.59653511458333,51.093466739583334,57.0,87.0
255,50.96463261458334,51.404815875000004,65.0,96.0
256,50.96463261458334,51.530582520833335,62.0,96.0
257,51.332730114583335,51.737637364583335,57.0,80.0
258,49.49224261458333,51.779048333333336,50.0,104.0
259,51.70082761458333,52.04438528125,65.0,106.0
260,51.70082761458333,52.124139739583335,69.0,104.0
261,52.06892511458334,52.19162428125,62.0,96.0
262,52.437022614583334,52.84806482291667,62.0,82.0
263,52.437022614583334,52.85726726041667,58.0,96.0
264,52.437022614583334,52.99377008333333,55.0,91.0
265,52.80512011458333,53.52444397916667,50.0,67.0
266,53.173217614583336,53.61493461458333,58.0,117.0
267,52.437022614583334,53.624137052083334,43.0,101.0
268,53.541315114583334,53.71309394791667,55.0,106.0
269,53.173217614583336,53.79591588541667,62.0,104.0
270,53.90941261458333,54.32658978125,60.0,99.0
271,53.90941261458333,54.52597592708334,57.0,104.0
272,53.90941261458333,54.82658888541667,45.0,101.0
273,54.277510114583336,54.83272384375,52.0,73.0
274,54.645607614583334,54.986097802083336,60.0,106.0
275,54.645607614583334,55.0029689375,64.0,104.0
276,55.01370511458333,55.351127822916666,57.0,87.0
277,55.381802614583336,55.57658754166667,58.0,93.0
278,55.381802614583336,55.62413346875,62.0,104.0
279,55.74990011458333,56.246831739583335,53.0,35.0
280,56.11799761458333,56.26216913541667,58.0,107.0
281,56.11799761458333,56.70235239583334,62.0,106.0
282,56.486095114583335,56.73762840625,58.0,83.0
283,56.85419261458333,57.09652346875,58.0,81.0
284,56.85419261458333,57.257566125000004,65.0,101.0
285,56.85419261458333,57.27136978125,62.0,101.0
286,57.590387614583335,57.67014207291667,58.0,93.0
287,57.22229011458334,57.94928267708333,53.0,48.0
288,57.590387614583335,58.05511070833333,65.0,99.0
289,57.95848511458333,58.16400621875,58.0,104.0
290,57.590387614583335,58.18087735416667,62.0,106.0
291,55.381802614583336,58.21155214583334,46.0,77.0
292,58.32658261458334,58.71768620833333,62.0,96.0
293,58.32658261458334,58.71921994791667,57.0,94.0
294,58.694680114583335,59.16860564583333,52.0,85.0
295,59.06277761458333,59.58118159375,64.0,104.0
296,59.06277761458333,59.60725516666667,57.0,106.0
297,58.32658261458334,59.64713239583333,45.0,96.0
298,59.43087511458334,59.72842059375,52.0,87.0
299,59.798972614583334,60.24375709375,61.0,93.0
300,59.798972614583334,60.34191642708333,57.0,96.0
301,60.16707011458333,60.63025946875,52.0,82.0
302,60.53516761458334,60.69160905208334,57.0,106.0
303,60.53516761458334,60.953878520833335,61.0,117.0
304,60.53516761458334,60.964614697916666,69.0,104.0
305,59.798972614583334,60.97995209375,45.0,104.0
306,60.903265114583334,61.13485979166667,57.0,115.0
307,61.27136261458333,61.443141447916666,57.0,101.0
308,61.27136261458333,61.71921457291667,62.0,106.0
309,61.639460114583336,62.07504215625,57.0,91.0
310,62.007557614583334,62.49835428125,62.0,106.0
311,62.007557614583334,62.521360375,65.0,106.0
312,62.37565511458333,62.86491804166667,57.0,94.0
313,62.743752614583336,63.245285458333335,62.0,106.0
314,62.743752614583336,63.30050008333333,65.0,109.0
315,63.11185011458333,63.5796406875,57.0,99.0
316,61.27136261458333,63.846511375,50.0,101.0
317,63.47994761458333,63.87718616666667,62.0,109.0
318,63.47994761458333,63.93700201041667,65.0,112.0
319,63.848045114583336,64.01982394791666,57.0,109.0
320,64.21614261458333,64.693135625,58.0,93.0
321,64.21614261458333,64.73914781250001,62.0,104.0
322,64.95233761458333,65.05509816666667,58.0,86.0
323,64.58424011458334,65.15019002083334,53.0,80.0
324,64.21614261458333,65.34037372916667,46.0,70.0
325,64.95233761458333,65.392520875,62.0,106.0
326,64.95233761458333,65.41552696875,65.0,106.0
327,65.32043511458333,65.50601760416667,58.0,120.0
328,65.68853261458334,66.15478944791667,58.0,107.0
329,65.68853261458334,66.16245814583334,62.0,101.0
330,66.05663011458333,66.47534102083334,55.0,89.0
331,66.42472761458333,66.85264095833334,58.0,113.0
332,66.79282511458334,66.98147508333334,55.0,91.0
333,65.68853261458334,67.01981857291666,43.0,101.0
334,66.42472761458333,67.03362222916667,62.0,109.0
335,67.16092261458333,67.30356039583333,55.0,101.0
336,67.16092261458333,67.31122909375,62.0,104.0
337,67.16092261458333,67.32656648958333,43.0,106.0
338,67.52902011458333,67.59803839583333,55.0,94.0
339,67.52902011458333,67.61184205208333,62.0,101.0
340,67.52902011458333,67.62564570833334,43.0,99.0
341,67.71306886458333,67.785154625,55.0,91.0
342,67.71306886458333,67.79895828125,43.0,91.0
343,67.71306886458333,67.80816071875,62.0,104.0
344,67.89711761458334,68.06736270833333,64.0,101.0
345,67.89711761458334,68.06889644791667,45.0,106.0
346,67.89711761458334,68.07196392708333,57.0,109.0
347,68.26521511458333,68.43699394791666,43.0,96.0
348,68.26521511458333,68.43699394791666,55.0,99.0
349,68.26521511458333,68.44312890625,62.0,106.0
350,68.63331261458333,68.86490729166667,60.0,91.0
351,68.63331261458333,68.87564346875,53.0,101.0
352,68.63331261458333,68.95079670833333,41.0,99.0
353,70.10570261458334,70.53208221875,62.0,104.0
354,70.10570261458334,70.54281839583334,65.0,104.0
355,70.47380011458334,70.79281794791667,57.0,74.0
356,70.84189761458333,71.01981140625,62.0,101.0
357,70.84189761458333,71.02748010416667,65.0,106.0
358,71.20999511458334,71.63023976041667,57.0,104.0
359,71.57809261458334,72.13944130208334,62.0,106.0
360,71.57809261458334,72.13944130208334,65.0,106.0
361,71.94619011458333,72.19158844791667,57.0,39.0
362,72.31428761458334,72.80508428125,65.0,109.0
363,72.31428761458334,72.87563630208334,62.0,109.0
364,72.68238511458334,72.9109123125,57.0,104.0
365,70.10570261458334,72.93085092708334,50.0,101.0
366,73.05048261458333,73.67164714583333,50.0,104.0
367,73.41858011458334,73.86949955208334,62.0,112.0
368,73.41858011458334,73.87563451041667,57.0,104.0
369,73.41858011458334,73.88023572916667,65.0,112.0
370,73.78667761458334,74.41857832291667,45.0,106.0
371,74.15477511458333,74.61182951041667,57.0,109.0
372,74.15477511458333,74.63023438541667,62.0,106.0
373,74.15477511458333,74.64710552083334,65.0,104.0
374,74.52287261458333,75.24526395833334,50.0,104.0
375,74.89097011458334,75.49986472916667,65.0,106.0
376,74.89097011458334,75.51213464583333,62.0,109.0
377,74.89097011458334,75.52593830208333,57.0,104.0
378,75.25906761458333,75.81888256250001,45.0,109.0
379,75.62716511458333,75.88483336458333,62.0,118.0
380,75.62716511458333,75.9293118125,57.0,112.0
381,75.62716511458333,75.96458782291667,65.0,109.0
382,75.99526261458334,76.52900398958333,45.0,99.0
383,76.36336011458333,76.91857384375,60.0,104.0
384,76.36336011458333,76.92010758333333,64.0,106.0
385,76.36336011458333,76.9323775,57.0,106.0
386,76.73145761458333,77.32654857291666,52.0,101.0
387,77.09955511458334,77.36029084375001,57.0,106.0
388,77.09955511458334,77.36949328125,60.0,106.0
389,77.09955511458334,77.37869571875,64.0,101.0
390,77.46765261458333,78.29433825,45.0,104.0
391,77.83575011458333,78.37102522916666,60.0,106.0
392,77.83575011458333,78.37102522916666,64.0,104.0
393,77.83575011458333,78.37562644791667,57.0,109.0
394,78.20384761458334,78.64709835416667,52.0,99.0
395,78.57194511458333,78.79433735416667,60.0,104.0
396,78.57194511458333,78.81734344791667,57.0,104.0
397,78.57194511458333,78.84341702083333,64.0,104.0
398,78.94004261458333,79.48758764583333,46.0,79.0
399,79.30814011458334,79.77899816666667,62.0,106.0
400,79.30814011458334,79.79280182291667,58.0,117.0
401,79.30814011458334,79.79586930208333,53.0,104.0
402,79.67623761458333,80.20691151041667,41.0,96.0
403,80.04433511458333,80.23912004166667,58.0,120.0
404,80.04433511458333,80.24985621875,53.0,106.0
405,80.04433511458333,80.25752491666667,62.0,106.0
406,80.41243261458334,81.12102030208334,46.0,101.0
407,80.78053011458333,81.30813653125,53.0,106.0
408,80.78053011458333,81.32807514583334,62.0,109.0
409,80.78053011458333,81.34341254166667,58.0,117.0
410,81.14862761458333,81.78666328125,41.0,104.0
411,81.51672511458334,81.83114172916667,53.0,106.0
412,81.51672511458334,81.84034416666667,58.0,117.0
413,81.51672511458334,81.88022139583333,62.0,109.0
414,81.88482261458333,82.63022005208333,48.0,104.0
415,82.62101761458334,82.83267367708333,45.0,76.0
416,82.25292011458333,82.85261229166667,55.0,104.0
417,82.25292011458333,82.86334846875,64.0,104.0
418,82.25292011458333,82.86641594791666,60.0,104.0
419,82.98911511458333,83.33420652083333,55.0,106.0
420,82.98911511458333,83.36028009375,60.0,106.0
421,82.98911511458333,83.36948253125,64.0,104.0
422,82.62101761458334,83.40782602083334,43.0,99.0
423,83.35721261458333,84.05966534375,48.0,99.0
424,83.72531011458334,84.28819254166667,64.0,101.0
425,83.72531011458334,84.30506367708334,55.0,104.0
426,83.72531011458334,84.31579985416667,60.0,104.0
427,84.09340761458333,84.70690344791667,43.0,104.0
428,84.46150511458333,84.7636518125,60.0,112.0
429,84.46150511458333,84.80199530208334,55.0,109.0
430,84.46150511458333,84.84954122916666,64.0,106.0
431,84.82960261458334,85.30199440625,43.0,106.0
432,85.19770011458334,85.77438619791667,55.0,104.0
433,85.19770011458334,85.78052115625,58.0,113.0
434,85.19770011458334,85.80966220833334,62.0,106.0
435,85.93389511458334,86.16855727083333,62.0,109.0
436,85.93389511458334,86.17009101041667,55.0,109.0
437,85.93389511458334,86.18236092708334,58.0,117.0
438,85.56579761458333,86.19156336458333,50.0,94.0
439,86.30199261458334,87.09340223958334,55.0,104.0
440,86.30199261458334,87.1010709375,58.0,117.0
441,86.30199261458334,87.10873963541667,62.0,109.0
442,86.30199261458334,87.21303392708333,43.0,104.0
443,87.77438261458333,88.4078170625,45.0,106.0
444,88.14248011458334,88.65168165625,64.0,104.0
445,88.14248011458334,88.68542392708333,57.0,106.0
446,88.14248011458334,88.68542392708333,60.0,104.0
447,88.87867511458333,89.13941084375,57.0,99.0
448,88.87867511458333,89.1440120625,64.0,96.0
449,88.87867511458333,89.14707954166667,60.0,96.0
450,88.51057761458334,89.15628197916666,52.0,94.0
451,89.24677261458334,90.20075863541666,60.0,101.0
452,89.24677261458334,90.24677082291667,57.0,101.0
453,89.24677261458334,90.28204683333334,45.0,106.0
454,90.71916261458334,90.828058125,48.0,104.0
455,90.71916261458334,90.84953047916667,55.0,96.0
456,90.71916261458334,90.84953047916667,64.0,101.0
457,90.71916261458334,90.85259795833333,60.0,101.0
458,91.08726011458333,91.14707595833333,55.0,78.0
459,91.08726011458333,91.16241335416667,64.0,94.0
460,91.08726011458333,91.16394709375,60.0,91.0
461,91.08726011458333,91.16701457291667,48.0,85.0
462,91.27130886458333,91.34646210416666,55.0,89.0
463,91.27130886458333,91.34646210416666,60.0,89.0
464,91.27130886458333,91.34952958333334,64.0,99.0
465,91.27130886458333,91.35719828125,48.0,94.0
466,91.45535761458333,91.55198320833334,55.0,99.0
467,91.45535761458333,91.5550506875,48.0,99.0
468,91.45535761458333,91.5550506875,60.0,96.0
469,91.45535761458333,91.55965190625,64.0,104.0
470,91.82345511458334,91.91241201041667,55.0,106.0
471,91.82345511458334,91.91854696875001,60.0,106.0
472,91.82345511458334,91.93541810416667,64.0,106.0
473,91.82345511458334,91.93848558333333,48.0,99.0
474,92.19155261458333,93.46302272916667,48.0,104.0
475,92.19155261458333,93.48909630208334,55.0,106.0
476,92.19155261458333,93.55964832291667,60.0,106.0
477,92.19155261458333,93.56731702083333,64.0,104.0
478,93.66394261458333,94.3157819375,50.0,109.0
479,94.03204011458334,94.56271401041667,57.0,101.0
480,94.03204011458334,94.58418636458333,65.0,101.0
481,94.03204011458334,94.6010575,62.0,104.0
482,94.40013761458333,94.93848020833333,45.0,104.0
483,94.76823511458333,95.27130169791667,62.0,112.0
484,94.76823511458333,95.27743665625,57.0,106.0
485,94.76823511458333,95.27743665625,65.0,104.0
486,95.13633261458334,95.81884672916667,50.0,104.0
487,95.50443011458333,96.05197514583334,65.0,106.0
488,95.50443011458333,96.05350888541666,62.0,106.0
489,95.50443011458333,96.05657636458334,57.0,104.0
490,95.87252761458333,96.4691523125,45.0,109.0
491,96.24062511458334,96.5243669375,57.0,104.0
492,96.24062511458334,96.53817059375,62.0,106.0
493,96.24062511458334,96.55197425,65.0,104.0
494,96.60872261458333,97.22988714583333,50.0,104.0
495,96.97682011458333,97.42773955208334,62.0,112.0
496,96.97682011458333,97.43387451041667,57.0,104.0
497,96.97682011458333,97.43847572916667,65.0,112.0
498,97.34491761458334,97.97681832291667,45.0,106.0
499,97.71301511458333,98.17006951041667,57.0,109.0
500,97.71301511458333,98.18847438541667,62.0,106.0
501,97.71301511458333,98.20534552083333,65.0,104.0
502,98.08111261458333,98.80350395833334,50.0,104.0
503,98.44921011458334,99.05810472916667,65.0,106.0
504,98.44921011458334,99.07037464583334,62.0,109.0
505,98.44921011458334,99.08417830208333,57.0,104.0
506,98.81730761458333,99.3771225625,45.0,109.0
507,99.18540511458333,99.44307336458334,62.0,118.0
508,99.18540511458333,99.4875518125,57.0,112.0
509,99.18540511458333,99.52282782291667,65.0,109.0
510,99.55350261458334,100.08724398958333,45.0,99.0
511,99.92160011458333,100.47681384375,60.0,104.0
512,99.92160011458333,100.47834758333333,64.0,106.0
513,99.92160011458333,100.4906175,57.0,106.0
514,100.28969761458333,100.88478857291666,52.0,101.0
515,100.65779511458334,100.91853084375,57.0,106.0
516,100.65779511458334,100.92773328125,60.0,106.0
517,100.65779511458334,100.93693571875001,64.0,101.0
518,101.02589261458334,101.85257825000001,45.0,104.0
519,101.39399011458333,101.92926522916667,60.0,106.0
520,101.39399011458333,101.92926522916667,64.0,104.0
521,101.39399011458333,101.93386644791667,57.0,109.0
522,101.76208761458334,102.20533835416667,52.0,99.0
523,102.13018511458334,102.35257735416667,60.0,104.0
524,102.13018511458334,102.37558344791667,57.0,104.0
525,102.13018511458334,102.40165702083334,64.0,104.0
526,102.49828261458333,103.04582764583334,46.0,79.0
527,102.86638011458334,103.33723816666667,62.0,106.0
528,102.86638011458334,103.35104182291667,58.0,117.0
529,102.86638011458334,103.35410930208333,53.0,104.0
530,103.23447761458334,103.76515151041667,41.0,96.0
531,103.60257511458333,103.79736004166666,58.0,120.0
532,103.60257511458333,103.80809621875,53.0,106.0
533,103.60257511458333,103.81576491666667,62.0,106.0
534,103.97067261458334,104.67926030208334,46.0,101.0
535,104.33877011458334,104.86637653125,53.0,106.0
536,104.33877011458334,104.88631514583334,62.0,109.0
537,104.33877011458334,104.90165254166666,58.0,117.0
538,104.70686761458333,105.34490328125,41.0,104.0
539,105.07496511458334,105.38938172916667,53.0,106.0
540,105.07496511458334,105.39858416666667,58.0,117.0
541,105.07496511458334,105.43846139583333,62.0,109.0
542,105.44306261458334,106.18846005208333,48.0,104.0
543,106.17925761458334,106.39091367708333,45.0,76.0
544,105.81116011458333,106.41085229166667,55.0,104.0
545,105.81116011458333,106.42158846875,64.0,104.0
546,105.81116011458333,106.42465594791666,60.0,104.0
547,106.54735511458334,106.89244652083333,55.0,106.0
548,106.54735511458334,106.91852009375,60.0,106.0
549,106.54735511458334,106.92772253125,64.0,104.0
550,106.17925761458334,106.96606602083334,43.0,99.0
551,106.91545261458333,107.61790534375,48.0,99.0
552,107.28355011458333,107.84643254166667,64.0,101.0
553,107.28355011458333,107.86330367708334,55.0,104.0
554,107.28355011458333,107.87403985416667,60.0,104.0
555,107.65164761458334,108.26514344791667,43.0,104.0
556,108.01974511458333,108.3218918125,60.0,112.0
557,108.01974511458333,108.36023530208334,55.0,109.0
558,108.01974511458333,108.40778122916667,64.0,106.0
559,108.38784261458333,108.86023440625,43.0,106.0
560,108.75594011458334,109.33262619791667,55.0,104.0
561,108.75594011458334,109.33876115625,58.0,113.0
562,108.75594011458334,109.36790220833333,62.0,106.0
563,109.49213511458333,109.72679727083333,62.0,109.0
564,109.49213511458333,109.72833101041667,55.0,109.0
565,109.49213511458333,109.74060092708334,58.0,117.0
566,109.12403761458333,109.74980336458333,50.0,94.0
567,109.86023261458334,110.65164223958334,55.0,104.0
568,109.86023261458334,110.6593109375,58.0,117.0
569,109.86023261458334,110.66697963541667,62.0,109.0
570,109.86023261458334,110.77127392708333,43.0,104.0
571,111.33262261458333,111.9660570625,45.0,106.0
572,111.70072011458333,112.20992165625,64.0,104.0
573,111.70072011458333,112.24366392708333,57.0,106.0
574,111.70072011458333,112.24366392708333,60.0,104.0
575,112.43691511458333,112.69765084375,57.0,99.0
576,112.43691511458333,112.70225206250001,64.0,96.0
577,112.43691511458333,112.70531954166667,60.0,96.0
578,112.06881761458334,112.71452197916666,52.0,94.0
579,112.80501261458333,113.75899863541667,60.0,101.0
580,112.80501261458333,113.80501082291667,57.0,101.0
581,112.80501261458333,113.84028683333334,45.0,106.0
582,114.27740261458334,114.386298125,48.0,104.0
583,114.27740261458334,114.40777047916667,55.0,96.0
584,114.27740261458334,114.40777047916667,64.0,101.0
585,114.27740261458334,114.41083795833333,60.0,101.0
586,114.64550011458333,114.70531595833333,55.0,78.0
587,114.64550011458333,114.72065335416667,64.0,94.0
588,114.64550011458333,114.72218709375,60.0,91.0
589,114.64550011458333,114.72525457291667,48.0,85.0
590,114.82954886458333,114.90470210416667,55.0,89.0
591,114.82954886458333,114.90470210416667,60.0,89.0
592,114.82954886458333,114.90776958333333,64.0,99.0
593,114.82954886458333,114.91543828125,48.0,94.0
594,115.01359761458333,115.11022320833334,55.0,99.0
595,115.01359761458333,115.1132906875,48.0,99.0
596,115.01359761458333,115.1132906875,60.0,96.0
597,115.01359761458333,115.11789190625,64.0,104.0
598,115.38169511458334,115.47065201041667,55.0,106.0
599,115.38169511458334,115.47678696875,60.0,106.0
600,115.38169511458334,115.49365810416667,64.0,106.0
601,115.38169511458334,115.49672558333333,48.0,99.0
602,115.74979261458334,117.02126272916666,48.0,104.0
603,115.74979261458334,117.04733630208334,55.0,106.0
604,115.74979261458334,117.11788832291667,60.0,106.0
605,115.74979261458334,117.12555702083334,64.0,104.0
606,117.22218261458333,117.8740219375,50.0,109.0
607,117.59028011458334,118.12095401041667,57.0,101.0
608,117.59028011458334,118.14242636458333,65.0,101.0
609,117.59028011458334,118.15929750000001,62.0,104.0
610,117.95837761458334,118.49672020833333,45.0,104.0
611,118.32647511458333,118.82954169791667,62.0,112.0
612,118.32647511458333,118.83567665625,57.0,106.0
613,118.32647511458333,118.83567665625,65.0,104.0
614,118.69457261458334,119.37708672916666,50.0,104.0
615,119.06267011458334,119.61021514583334,65.0,106.0
616,119.06267011458334,119.61174888541667,62.0,106.0
617,119.06267011458334,119.61481636458333,57.0,104.0
618,119.43076761458333,120.0273923125,45.0,109.0
619,119.79886511458334,120.0826069375,57.0,104.0
620,119.79886511458334,120.09641059375001,62.0,106.0
621,119.79886511458334,120.11021425,65.0,104.0
622,120.16696261458334,120.84640925000001,50.0,104.0
623,120.53506011458333,120.938433625,57.0,99.0
624,120.53506011458333,120.97064215625001,62.0,104.0
625,120.53506011458333,120.97831085416666,65.0,104.0
626,121.27125511458334,121.43996646875,62.0,104.0
627,121.27125511458334,121.47064126041667,57.0,99.0
628,120.90315761458334,121.51205222916667,45.0,82.0
629,121.27125511458334,121.52278840625,65.0,104.0
630,121.63935261458333,122.37248013541667,50.0,99.0
631,122.00745011458334,122.55652888541667,57.0,106.0
632,122.00745011458334,122.55959636458333,65.0,104.0
633,122.00745011458334,122.57033254166667,62.0,109.0
634,122.37554761458334,122.96757109375,45.0,91.0
635,122.74364511458333,123.04885929166667,62.0,115.0
636,122.74364511458333,123.09793895833333,57.0,109.0
637,122.74364511458333,123.15008610416668,65.0,106.0
638,123.11174261458333,123.588735625,45.0,99.0
639,123.47984011458334,123.97063678125001,60.0,94.0
640,123.47984011458334,123.97370426041667,64.0,106.0
641,123.47984011458334,123.98290669791666,57.0,101.0
642,123.84793761458333,124.39394890625,52.0,94.0
643,124.21603511458333,124.41388752083334,60.0,89.0
644,124.21603511458333,124.41542126041666,57.0,96.0
645,124.21603511458333,124.42308995833334,64.0,99.0
646,124.58413261458334,125.17768983333333,45.0,82.0
647,124.95223011458333,125.51204506250001,64.0,101.0
648,124.95223011458333,125.51357880208333,60.0,96.0
649,124.95223011458333,125.5212475,57.0,106.0
650,125.68842511458334,125.97370067708333,60.0,96.0
651,125.32032761458333,125.97983563541666,52.0,94.0
652,125.68842511458334,126.00744294791667,57.0,104.0
653,125.68842511458334,126.33719695833334,64.0,104.0
654,126.05652261458333,126.63934365625,46.0,70.0
655,126.42462011458333,126.9660301875,62.0,101.0
656,126.42462011458333,126.9844350625,53.0,99.0
657,126.42462011458333,126.9936375,58.0,96.0
658,126.79271761458334,127.36326873958333,41.0,96.0
659,127.16081511458333,127.42768580208333,53.0,104.0
660,127.16081511458333,127.43075328125,62.0,106.0
661,127.16081511458333,127.44148945833334,58.0,113.0
662,127.52891261458333,128.18842063541666,46.0,104.0
663,127.89701011458334,128.37553686458332,53.0,106.0
664,127.89701011458334,128.38167182291667,62.0,106.0
665,127.89701011458334,128.40007669791666,58.0,117.0
666,128.63320511458335,128.80345020833335,53.0,96.0
667,128.63320511458335,128.81418638541666,58.0,107.0
668,128.26510761458334,128.82799004166668,41.0,101.0
669,128.63320511458335,128.92154815625,62.0,106.0
670,129.00130261458332,129.70375534375,48.0,94.0
671,129.36940011458333,129.83258946875,55.0,91.0
672,129.36940011458333,129.87860165625,64.0,101.0
673,129.36940011458333,129.88780409375,60.0,91.0
674,129.73749761458333,130.3709320625,43.0,89.0
675,130.10559511458334,130.43074790625,55.0,87.0
676,130.10559511458334,130.46602391666667,60.0,96.0
677,130.10559511458334,130.49056375,64.0,101.0
678,130.47369261458334,131.1623416875,48.0,69.0
679,130.84179011458335,131.4108075,55.0,99.0
680,130.84179011458335,131.4200099375,64.0,101.0
681,130.84179011458335,131.42767863541667,60.0,99.0
682,131.20988761458332,131.74362898958333,43.0,104.0
683,131.57798511458333,131.78964117708333,60.0,109.0
684,131.57798511458333,131.89240172916666,55.0,106.0
685,131.57798511458333,131.95221757291668,64.0,106.0
686,131.94608261458333,132.43994676041666,43.0,104.0
687,132.31418011458334,132.74209345833333,58.0,113.0
688,132.31418011458334,132.80190930208335,55.0,101.0
689,132.31418011458334,132.84025279166667,62.0,104.0
690,132.68227761458334,133.18381045833334,50.0,78.0
691,133.05037511458335,133.20988403125,55.0,94.0
692,133.05037511458335,133.21141777083332,62.0,104.0
693,133.05037511458335,133.21908646875,58.0,101.0
694,133.41847261458332,133.85558839583334,43.0,101.0
695,134.15466761458333,134.43534195833334,55.0,94.0
696,134.15466761458333,134.46141553125,58.0,96.0
697,134.15466761458333,134.48595536458333,62.0,106.0
698,134.89086261458334,135.37399058333332,45.0,104.0
699,135.25896011458335,135.75895921875,64.0,101.0
700,135.25896011458335,135.77889783333333,57.0,104.0
701,135.25896011458335,135.79270148958332,60.0,101.0
702,135.62705761458332,136.15619777083333,52.0,87.0
703,135.99515511458333,136.17613638541667,64.0,96.0
704,135.99515511458333,136.17920386458334,57.0,94.0
705,135.99515511458333,136.18073760416667,60.0,91.0
706,136.36325261458333,136.619387125,64.0,96.0
707,136.36325261458333,136.62092086458333,57.0,89.0
708,136.36325261458333,136.64852817708334,60.0,89.0
709,136.36325261458333,136.73135011458334,45.0,104.0
710,137.83564261458332,137.93533568750001,55.0,96.0
711,137.83564261458332,137.93533568750001,60.0,99.0
712,137.83564261458332,137.93840316666666,48.0,99.0
713,137.83564261458332,137.93840316666666,64.0,101.0
714,138.20374011458333,138.26969091666666,55.0,82.0
715,138.20374011458333,138.28349457291668,64.0,91.0
716,138.20374011458333,138.28656205208333,60.0,89.0
717,138.20374011458333,138.29269701041667,48.0,80.0
718,138.38778886458334,138.4506721875,55.0,82.0
719,138.38778886458334,138.45373966666668,60.0,85.0
720,138.38778886458334,138.46447584375,64.0,96.0
721,138.38778886458334,138.47061080208334,48.0,91.0
722,138.57183761458333,138.65465955208333,60.0,91.0
723,138.57183761458333,138.65619329166668,55.0,89.0
724,138.57183761458333,138.66386198958332,64.0,99.0
725,138.57183761458333,138.66999694791667,48.0,96.0
726,138.93993511458334,139.00588591666667,55.0,91.0
727,138.93993511458334,139.02582453125,60.0,99.0
728,138.93993511458334,139.03656070833333,64.0,99.0
729,138.93993511458334,139.04116192708332,48.0,96.0
730,139.30803261458334,139.52582363541666,55.0,99.0
731,139.30803261458334,139.54729598958335,60.0,96.0
732,139.30803261458334,139.55343094791667,64.0,101.0
733,139.30803261458334,139.57643704166668,48.0,99.0
734,140.78042261458333,141.40618836458333,50.0,104.0
735,141.14852011458333,141.588703375,62.0,106.0
736,141.14852011458333,141.59023711458335,65.0,104.0
737,141.14852011458333,141.59177085416667,57.0,104.0
738,141.51661761458334,142.09790491666666,45.0,109.0
739,141.88471511458334,142.30189228125,65.0,101.0
740,141.88471511458334,142.30342602083334,57.0,101.0
741,141.88471511458334,142.30495976041666,62.0,99.0
742,142.25281261458335,142.95526534375,50.0,94.0
743,142.62091011458332,143.13778035416667,65.0,101.0
744,142.62091011458332,143.15158401041666,57.0,101.0
745,142.62091011458332,143.15158401041666,62.0,101.0
746,142.98900761458333,143.61170588541665,45.0,101.0
747,143.35710511458333,143.62550954166667,57.0,109.0
748,143.35710511458333,143.63471197916667,62.0,106.0
749,143.35710511458333,143.64544815625,65.0,104.0
750,143.72520261458334,144.18839196875,65.0,106.0
751,143.72520261458334,144.46753257291667,62.0,104.0
752,144.09330011458334,144.62704148958335,57.0,74.0
753,144.46139761458335,144.93532314583334,65.0,101.0
754,144.46139761458335,144.93992436458333,69.0,106.0
755,144.82949511458332,145.32642673958333,57.0,87.0
756,145.19759261458333,145.637775875,65.0,96.0
757,145.19759261458333,145.76354252083334,62.0,96.0
758,145.56569011458333,145.97059736458334,57.0,80.0
759,143.72520261458334,146.01200833333334,50.0,104.0
760,145.93378761458334,146.27734528125,65.0,106.0
761,145.93378761458334,146.35709973958333,69.0,104.0
762,146.30188511458334,146.42458428125,62.0,96.0
763,146.66998261458335,147.08102482291667,62.0,82.0
764,146.66998261458335,147.09022726041667,58.0,96.0
765,146.66998261458335,147.22673008333334,55.0,91.0
766,147.03808011458332,147.75740397916667,50.0,67.0
767,147.40617761458333,147.84789461458334,58.0,117.0
768,146.66998261458335,147.85709705208333,43.0,101.0
769,147.77427511458333,147.94605394791668,55.0,106.0
770,147.40617761458333,148.02887588541668,62.0,104.0
771,148.14237261458334,148.55954978125,60.0,99.0
772,148.14237261458334,148.75893592708334,57.0,104.0
773,148.14237261458334,149.05954888541666,45.0,101.0
774,148.51047011458334,149.06568384375,52.0,73.0
775,148.87856761458335,149.21905780208334,60.0,106.0
776,148.87856761458335,149.2359289375,64.0,104.0
777,149.24666511458332,149.58408782291667,57.0,87.0
778,149.61476261458333,149.80954754166666,58.0,93.0
779,149.61476261458333,149.85709346875,62.0,104.0
780,149.98286011458333,150.47979173958333,53.0,35.0
781,150.35095761458334,150.49512913541668,58.0,107.0
782,150.35095761458334,150.93531239583334,62.0,106.0
783,150.71905511458334,150.97058840625002,58.0,83.0
784,151.08715261458335,151.32948346875,58.0,81.0
785,151.08715261458335,151.490526125,65.0,101.0
786,151.08715261458335,151.50432978125,62.0,101.0
787,151.82334761458333,151.90310207291668,58.0,93.0
788,151.45525011458332,152.18224267708334,53.0,48.0
789,151.82334761458333,152.28807070833332,65.0,99.0
790,152.19144511458333,152.39696621875,58.0,104.0
791,151.82334761458333,152.41383735416667,62.0,106.0
792,149.61476261458333,152.44451214583333,46.0,77.0
793,152.55954261458334,152.95064620833332,62.0,96.0
794,152.55954261458334,152.95217994791668,57.0,94.0
795,152.92764011458334,153.40156564583333,52.0,85.0
796,153.29573761458335,153.81414159375,64.0,104.0
797,153.29573761458335,153.84021516666667,57.0,106.0
798,152.55954261458334,153.88009239583334,45.0,96.0
799,153.66383511458332,153.96138059375,52.0,87.0
800,154.03193261458333,154.47671709375,61.0,93.0
801,154.03193261458333,154.57487642708332,57.0,96.0
802,154.40003011458333,154.86321946875,52.0,82.0
803,154.76812761458334,154.92456905208334,57.0,106.0
804,154.76812761458334,155.18683852083333,61.0,117.0
805,154.76812761458334,155.19757469791668,69.0,104.0
806,154.03193261458333,155.21291209375,45.0,104.0
807,155.13622511458334,155.36781979166668,57.0,115.0
808,155.50432261458334,155.67610144791666,57.0,101.0
809,155.50432261458334,155.95217457291668,62.0,106.0
810,155.87242011458335,156.30800215625,57.0,91.0
811,156.24051761458333,156.73131428125,62.0,106.0
812,156.24051761458333,156.754320375,65.0,106.0
813,156.60861511458333,157.09787804166666,57.0,94.0
814,156.97671261458333,157.47824545833333,62.0,106.0
815,156.97671261458333,157.53346008333332,65.0,109.0
816,157.34481011458334,157.8126006875,57.0,99.0
817,155.50432261458334,158.079471375,50.0,101.0
818,157.71290761458334,158.11014616666668,62.0,109.0
819,157.71290761458334,158.16996201041667,65.0,112.0
820,158.08100511458335,158.25278394791667,57.0,109.0
821,158.44910261458332,158.926095625,58.0,93.0
822,158.44910261458332,158.9721078125,62.0,104.0
823,159.18529761458333,159.28805816666667,58.0,86.0
824,158.81720011458333,159.38315002083334,53.0,80.0
825,158.44910261458332,159.57333372916668,46.0,70.0
826,159.18529761458333,159.625480875,62.0,106.0
827,159.18529761458333,159.64848696875,65.0,106.0
828,159.55339511458334,159.73897760416668,58.0,120.0
829,159.92149261458334,160.38774944791666,58.0,107.0
830,159.92149261458334,160.39541814583333,62.0,101.0
831,160.28959011458335,160.70830102083335,55.0,89.0
832,160.65768761458332,161.08560095833334,58.0,113.0
833,161.02578511458333,161.21443508333334,55.0,91.0
834,159.92149261458334,161.25277857291667,43.0,101.0
835,160.65768761458332,161.26658222916666,62.0,109.0
836,161.39388261458333,161.53652039583335,55.0,101.0
837,161.39388261458333,161.54418909375,62.0,104.0
838,161.39388261458333,161.55952648958333,43.0,106.0
839,161.76198011458334,161.83099839583335,55.0,94.0
840,161.76198011458334,161.84480205208334,62.0,101.0
841,161.76198011458334,161.85860570833333,43.0,99.0
842,161.94602886458333,162.018114625,55.0,91.0
843,161.94602886458333,162.03191828125,43.0,91.0
844,161.94602886458333,162.04112071875,62.0,104.0
845,162.13007761458334,162.30032270833334,64.0,101.0
846,162.13007761458334,162.30185644791666,45.0,106.0
847,162.13007761458334,162.30492392708334,57.0,109.0
848,162.49817511458335,162.66995394791667,43.0,96.0
849,162.49817511458335,162.66995394791667,55.0,99.0
850,162.49817511458335,162.67608890625002,62.0,106.0
851,162.86627261458332,163.09786729166666,60.0,91.0
852,162.86627261458332,163.10860346875,53.0,101.0
853,162.86627261458332,163.18375670833333,41.0,99.0
854,164.33866261458334,164.76504221875,62.0,104.0
855,164.33866261458334,164.77577839583333,65.0,104.0
856,164.70676011458335,165.02577794791668,57.0,74.0
857,165.07485761458332,165.25277140625,62.0,101.0
858,165.07485761458332,165.26044010416666,65.0,106.0
859,165.44295511458333,165.86319976041668,57.0,104.0
860,165.81105261458333,166.37240130208335,62.0,106.0
861,165.81105261458333,166.37240130208335,65.0,106.0
862,166.17915011458334,166.42454844791666,57.0,39.0
863,166.54724761458334,167.03804428125,65.0,109.0
864,166.54724761458334,167.10859630208333,62.0,109.0
865,166.91534511458335,167.1438723125,57.0,104.0
866,164.33866261458334,167.16381092708335,50.0,101.0
867,167.28344261458332,167.74663196875,65.0,106.0
868,167.28344261458332,168.02577257291668,62.0,104.0
869,167.65154011458333,168.18528148958333,57.0,74.0
870,168.01963761458333,168.49356314583335,65.0,101.0
871,168.01963761458333,168.49816436458335,69.0,106.0
872,168.38773511458334,168.88466673958334,57.0,87.0
873,168.75583261458334,169.196015875,65.0,96.0
874,168.75583261458334,169.32178252083332,62.0,96.0
875,169.12393011458335,169.52883736458332,57.0,80.0
876,167.28344261458332,169.57024833333332,50.0,104.0
877,169.49202761458332,169.83558528125,65.0,106.0
878,169.49202761458332,169.91533973958335,69.0,104.0
879,169.86012511458333,169.98282428125,62.0,96.0
880,170.22822261458333,170.63926482291666,62.0,82.0
881,170.22822261458333,170.64846726041668,58.0,96.0
882,170.22822261458333,170.78497008333335,55.0,91.0
883,170.59632011458334,171.31564397916668,50.0,67.0
884,170.96441761458334,171.40613461458332,58.0,117.0
885,170.22822261458333,171.41533705208334,43.0,101.0
886,171.33251511458334,171.50429394791666,55.0,106.0
887,170.96441761458334,171.58711588541667,62.0,104.0
888,171.70061261458335,172.11778978125,60.0,99.0
889,171.70061261458335,172.31717592708333,57.0,104.0
890,171.70061261458335,172.61778888541667,45.0,101.0
891,172.06871011458333,172.62392384375,52.0,73.0
892,172.43680761458333,172.77729780208332,60.0,106.0
893,172.43680761458333,172.7941689375,64.0,104.0
894,172.80490511458333,173.14232782291666,57.0,87.0
895,173.17300261458334,173.36778754166667,58.0,93.0
896,173.17300261458334,173.41533346875,62.0,104.0
897,173.54110011458334,174.03803173958335,53.0,35.0
898,173.90919761458335,174.05336913541666,58.0,107.0
899,173.90919761458335,174.49355239583335,62.0,106.0
900,174.27729511458332,174.52882840625,58.0,83.0
901,174.64539261458333,174.88772346875,58.0,81.0
902,174.64539261458333,175.04876612500001,65.0,101.0
903,174.64539261458333,175.06256978125,62.0,101.0
904,175.38158761458334,175.46134207291666,58.0,93.0
905,175.01349011458333,175.74048267708335,53.0,48.0
906,175.38158761458334,175.84631070833333,65.0,99.0
907,175.74968511458334,175.95520621875,58.0,104.0
908,175.38158761458334,175.97207735416666,62.0,106.0
909,173.17300261458334,176.00275214583334,46.0,77.0
910,176.11778261458335,176.50888620833334,62.0,96.0
911,176.11778261458335,176.51041994791666,57.0,94.0
912,176.48588011458332,176.95980564583334,52.0,85.0
913,176.85397761458333,177.37238159375,64.0,104.0
914,176.85397761458333,177.39845516666668,57.0,106.0
915,176.11778261458335,177.43833239583333,45.0,96.0
916,177.22207511458333,177.51962059375,52.0,87.0
917,177.59017261458334,178.03495709375,61.0,93.0
918,177.59017261458334,178.13311642708334,57.0,96.0
919,177.95827011458334,178.42145946875002,52.0,82.0
920,178.32636761458335,178.48280905208333,57.0,106.0
921,178.32636761458335,178.74507852083335,61.0,117.0
922,178.32636761458335,178.75581469791666,69.0,104.0
923,177.59017261458334,178.77115209375,45.0,104.0
924,178.69446511458332,178.92605979166666,57.0,115.0
925,179.06256261458333,179.23434144791668,57.0,101.0
926,179.06256261458333,179.51041457291666,62.0,106.0
927,179.43066011458333,179.86624215625,57.0,91.0
928,179.79875761458334,180.28955428125,62.0,106.0
929,179.79875761458334,180.312560375,65.0,106.0
930,180.16685511458334,180.65611804166667,57.0,94.0
931,180.53495261458335,181.03648545833335,62.0,106.0
932,180.53495261458335,181.09170008333334,65.0,109.0
933,180.90305011458332,181.3708406875,57.0,99.0
934,179.06256261458333,181.637711375,50.0,101.0
935,181.27114761458333,181.66838616666666,62.0,109.0
936,181.27114761458333,181.72820201041668,65.0,112.0
937,181.63924511458333,181.81102394791668,57.0,109.0
938,182.00734261458334,182.484335625,58.0,93.0
939,182.00734261458334,182.5303478125,62.0,104.0
940,182.74353761458335,182.84629816666666,58.0,86.0
941,182.37544011458334,182.94139002083332,53.0,80.0
942,182.00734261458334,183.13157372916666,46.0,70.0
943,182.74353761458335,183.183720875,62.0,106.0
944,182.74353761458335,183.20672696875,65.0,106.0
945,183.11163511458332,183.29721760416666,58.0,120.0
946,183.47973261458333,183.94598944791667,58.0,107.0
947,183.47973261458333,183.95365814583334,62.0,101.0
948,183.84783011458333,184.26654102083333,55.0,89.0
949,184.21592761458334,184.64384095833333,58.0,113.0
950,184.58402511458334,184.77267508333333,55.0,91.0
951,183.47973261458333,184.81101857291668,43.0,101.0
952,184.21592761458334,184.82482222916667,62.0,109.0
953,184.95212261458335,185.09476039583333,55.0,101.0
954,184.95212261458335,185.10242909375,62.0,104.0
955,184.95212261458335,185.11776648958335,43.0,106.0
956,185.32022011458332,185.38923839583333,55.0,94.0
957,185.32022011458332,185.40304205208332,62.0,101.0
958,185.32022011458332,185.41684570833334,43.0,99.0
959,185.50426886458334,185.576354625,55.0,91.0
960,185.50426886458334,185.59015828125,43.0,91.0
961,185.50426886458334,185.59936071875,62.0,104.0
962,185.68831761458333,185.85856270833332,64.0,101.0
963,185.68831761458333,185.86009644791667,45.0,106.0
964,185.68831761458333,185.86316392708335,57.0,109.0
965,186.05641511458333,186.22819394791668,43.0,96.0
966,186.05641511458333,186.22819394791668,55.0,99.0
967,186.05641511458333,186.23432890625,62.0,106.0
968,186.42451261458334,186.65610729166667,60.0,91.0
969,186.42451261458334,186.66684346875,53.0,101.0
970,186.42451261458334,186.74199670833335,41.0,99.0
971,187.89690261458333,188.32328221875,62.0,104.0
972,187.89690261458333,188.33401839583334,65.0,104.0
973,188.26500011458333,188.58401794791666,57.0,74.0
974,188.63309761458333,188.81101140625,62.0,101.0
975,188.63309761458333,188.81868010416667,65.0,106.0
976,189.00119511458334,189.42143976041666,57.0,104.0
977,189.36929261458334,189.93064130208333,62.0,106.0
978,189.36929261458334,189.93064130208333,65.0,106.0
979,189.73739011458335,189.98278844791668,57.0,39.0
980,190.10548761458332,190.59628428125,65.0,109.0
981,190.10548761458332,190.66683630208334,62.0,109.0
982,190.47358511458333,190.7021123125,57.0,104.0
983,187.89690261458333,190.72205092708333,50.0,101.0
984,190.84168261458333,191.46284714583334,50.0,104.0
985,191.20978011458334,191.66069955208334,62.0,112.0
986,191.20978011458334,191.66683451041666,57.0,104.0
987,191.20978011458334,191.67143572916666,65.0,112.0
988,191.57787761458334,192.20977832291666,45.0,106.0
989,191.94597511458335,192.40302951041667,57.0,109.0
990,191.94597511458335,192.42143438541666,62.0,106.0
991,191.94597511458335,192.43830552083332,65.0,104.0
992,192.31407261458332,193.03646395833334,50.0,104.0
993,192.68217011458333,193.29106472916666,65.0,106.0
994,192.68217011458333,193.30333464583333,62.0,109.0
995,192.68217011458333,193.31713830208332,57.0,104.0
996,193.05026761458333,193.6100825625,45.0,109.0
997,193.41836511458334,193.67603336458333,62.0,118.0
998,193.41836511458334,193.7205118125,57.0,112.0
999,193.41836511458334,193.75578782291666,65.0,109.0
1000,193.78646261458334,194.32020398958335,45.0,99.0
1001,194.15456011458335,194.70977384375,60.0,104.0
1002,194.15456011458335,194.71130758333334,64.0,106.0
1003,194.15456011458335,194.7235775,57.0,106.0
1004,194.52265761458332,195.11774857291667,52.0,101.0
1005,194.89075511458333,195.15149084375,57.0,106.0
1006,194.89075511458333,195.16069328125,60.0,106.0
1007,194.89075511458333,195.16989571875,64.0,101.0
1008,195.25885261458333,196.08553825,45.0,104.0
1009,195.62695011458334,196.16222522916667,60.0,106.0
1010,195.62695011458334,196.16222522916667,64.0,104.0
1011,195.62695011458334,196.16682644791666,57.0,109.0
1012,195.99504761458334,196.43829835416668,52.0,99.0
1013,196.36314511458335,196.58553735416666,60.0,104.0
1014,196.36314511458335,196.60854344791667,57.0,104.0
1015,196.36314511458335,196.63461702083333,64.0,104.0
1016,196.73124261458332,197.27878764583335,46.0,79.0
1017,197.09934011458333,197.57019816666667,62.0,106.0
1018,197.09934011458333,197.58400182291666,58.0,117.0
1019,197.09934011458333,197.58706930208334,53.0,104.0
1020,197.46743761458333,197.99811151041666,41.0,96.0
1021,197.83553511458334,198.03032004166667,58.0,120.0
1022,197.83553511458334,198.04105621875001,53.0,106.0
1023,197.83553511458334,198.04872491666666,62.0,106.0
1024,198.20363261458334,198.91222030208334,46.0,101.0
1025,198.57173011458335,199.09933653125,53.0,106.0
1026,198.57173011458335,199.11927514583334,62.0,109.0
1027,198.57173011458335,199.13461254166666,58.0,117.0
1028,198.93982761458332,199.57786328125,41.0,104.0
1029,199.30792511458333,199.62234172916666,53.0,106.0
1030,199.30792511458333,199.63154416666666,58.0,117.0
1031,199.30792511458333,199.67142139583333,62.0,109.0
1032,199.67602261458333,200.42142005208333,48.0,104.0
1033,200.41221761458334,200.62387367708334,45.0,76.0
1034,200.04412011458334,200.64381229166668,55.0,104.0
1035,200.04412011458334,200.65454846875,64.0,104.0
1036,200.04412011458334,200.65761594791667,60.0,104.0
1037,200.78031511458335,201.12540652083334,55.0,106.0
1038,200.78031511458335,201.15148009375,60.0,106.0
1039,200.78031511458335,201.16068253125,64.0,104.0
1040,200.41221761458334,201.19902602083334,43.0,99.0
1041,201.14841261458335,201.85086534375,48.0,99.0
1042,201.51651011458333,202.07939254166666,64.0,101.0
1043,201.51651011458333,202.09626367708333,55.0,104.0
1044,201.51651011458333,202.10699985416667,60.0,104.0
1045,201.88460761458333,202.49810344791666,43.0,104.0
1046,202.25270511458334,202.5548518125,60.0,112.0
1047,202.25270511458334,202.59319530208333,55.0,109.0
1048,202.25270511458334,202.64074122916668,64.0,106.0
1049,202.62080261458334,203.09319440625,43.0,106.0
1050,202.98890011458334,203.56558619791667,55.0,104.0
1051,202.98890011458334,203.57172115625,58.0,113.0
1052,202.98890011458334,203.60086220833333,62.0,106.0
1053,203.72509511458333,203.95975727083334,62.0,109.0
1054,203.72509511458333,203.96129101041666,55.0,109.0
1055,203.72509511458333,203.97356092708333,58.0,117.0
1056,203.35699761458335,203.98276336458335,50.0,94.0
1057,204.09319261458333,204.88460223958333,55.0,104.0
1058,204.09319261458333,204.8922709375,58.0,117.0
1059,204.09319261458333,204.89993963541667,62.0,109.0
1060,204.09319261458333,205.00423392708333,43.0,104.0
1061,205.56558261458335,206.1990170625,45.0,106.0
1062,205.93368011458332,206.44288165625,64.0,104.0
1063,205.93368011458332,206.47662392708332,57.0,106.0
1064,205.93368011458332,206.47662392708332,60.0,104.0
1065,206.66987511458333,206.93061084375,57.0,99.0
1066,206.66987511458333,206.9352120625,64.0,96.0
1067,206.66987511458333,206.93827954166667,60.0,96.0
1068,206.30177761458333,206.94748197916667,52.0,94.0
1069,207.03797261458334,207.99195863541667,60.0,101.0
1070,207.03797261458334,208.03797082291666,57.0,101.0
1071,207.03797261458334,208.07324683333334,45.0,106.0
1072,208.51036261458333,208.61925812500002,48.0,104.0
1073,208.51036261458333,208.64073047916668,55.0,96.0
1074,208.51036261458333,208.64073047916668,64.0,101.0
1075,208.51036261458333,208.64379795833332,60.0,101.0
1076,208.87846011458333,208.93827595833335,55.0,78.0
1077,208.87846011458333,208.95361335416666,64.0,94.0
1078,208.87846011458333,208.95514709375,60.0,91.0
1079,208.87846011458333,208.95821457291666,48.0,85.0
1080,209.06250886458335,209.13766210416668,55.0,89.0
1081,209.06250886458335,209.13766210416668,60.0,89.0
1082,209.06250886458335,209.14072958333333,64.0,99.0
1083,209.06250886458335,209.14839828125,48.0,94.0
1084,209.24655761458334,209.34318320833333,55.0,99.0
1085,209.24655761458334,209.3462506875,48.0,99.0
1086,209.24655761458334,209.3462506875,60.0,96.0
1087,209.24655761458334,209.35085190625,64.0,104.0
1088,209.61465511458334,209.70361201041666,55.0,106.0
1089,209.61465511458334,209.70974696875,60.0,106.0
1090,209.61465511458334,209.72661810416668,64.0,106.0
1091,209.61465511458334,209.72968558333335,48.0,99.0
1092,209.98275261458335,211.25422272916666,48.0,104.0
1093,209.98275261458335,211.28029630208334,55.0,106.0
1094,209.98275261458335,211.35084832291668,60.0,106.0
1095,209.98275261458335,211.35851702083335,64.0,104.0
1096,211.45514261458334,212.1069819375,50.0,109.0
1097,211.82324011458334,212.35391401041667,57.0,101.0
1098,211.82324011458334,212.37538636458333,65.0,101.0
1099,211.82324011458334,212.3922575,62.0,104.0
1100,212.19133761458335,212.72968020833335,45.0,104.0
1101,212.55943511458332,213.06250169791667,62.0,112.0
1102,212.55943511458332,213.06863665625,57.0,106.0
1103,212.55943511458332,213.06863665625,65.0,104.0
1104,212.92753261458333,213.61004672916667,50.0,104.0
1105,213.29563011458333,213.84317514583333,65.0,106.0
1106,213.29563011458333,213.84470888541668,62.0,106.0
1107,213.29563011458333,213.84777636458332,57.0,104.0
1108,213.66372761458334,214.2603523125,45.0,109.0
1109,214.03182511458334,214.3155669375,57.0,104.0
1110,214.03182511458334,214.32937059375,62.0,106.0
1111,214.03182511458334,214.34317425,65.0,104.0
1112,214.39992261458335,215.02108714583335,50.0,104.0
1113,214.76802011458332,215.21893955208333,62.0,112.0
1114,214.76802011458332,215.22507451041668,57.0,104.0
1115,214.76802011458332,215.22967572916667,65.0,112.0
1116,215.13611761458333,215.76801832291667,45.0,106.0
1117,215.50421511458333,215.96126951041666,57.0,109.0
1118,215.50421511458333,215.97967438541667,62.0,106.0
1119,215.50421511458333,215.99654552083334,65.0,104.0
1120,215.87231261458334,216.59470395833333,50.0,104.0
1121,216.24041011458334,216.84930472916668,65.0,106.0
1122,216.24041011458334,216.86157464583334,62.0,109.0
1123,216.24041011458334,216.87537830208333,57.0,104.0
1124,216.60850761458335,217.1683225625,45.0,109.0
1125,216.97660511458335,217.23427336458334,62.0,118.0
1126,216.97660511458335,217.2787518125,57.0,112.0
1127,216.97660511458335,217.31402782291667,65.0,109.0
1128,217.34470261458333,217.87844398958333,45.0,99.0
1129,217.71280011458333,218.26801384375,60.0,104.0
1130,217.71280011458333,218.26954758333335,64.0,106.0
1131,217.71280011458333,218.28181750000002,57.0,106.0
1132,218.08089761458334,218.67598857291668,52.0,101.0
1133,218.44899511458334,218.70973084375,57.0,106.0
1134,218.44899511458334,218.71893328125,60.0,106.0
1135,218.44899511458334,218.72813571875,64.0,101.0
1136,218.81709261458334,219.64377825,45.0,104.0
1137,219.18519011458335,219.72046522916668,60.0,106.0
1138,219.18519011458335,219.72046522916668,64.0,104.0
1139,219.18519011458335,219.72506644791667,57.0,109.0
1140,219.55328761458333,219.99653835416666,52.0,99.0
1141,219.92138511458333,220.14377735416667,60.0,104.0
1142,219.92138511458333,220.16678344791666,57.0,104.0
1143,219.92138511458333,220.19285702083334,64.0,104.0
1144,220.28948261458333,220.83702764583333,46.0,79.0
1145,220.65758011458334,221.12843816666668,62.0,106.0
1146,220.65758011458334,221.14224182291667,58.0,117.0
1147,220.65758011458334,221.14530930208335,53.0,104.0
1148,221.02567761458334,221.55635151041668,41.0,96.0
1149,221.39377511458335,221.58856004166668,58.0,120.0
1150,221.39377511458335,221.59929621875,53.0,106.0
1151,221.39377511458335,221.60696491666667,62.0,106.0
1152,221.76187261458333,222.47046030208332,46.0,101.0
1153,222.12997011458333,222.65757653125002,53.0,106.0
1154,222.12997011458333,222.67751514583333,62.0,109.0
1155,222.12997011458333,222.69285254166667,58.0,117.0
1156,222.49806761458333,223.13610328125,41.0,104.0
1157,222.86616511458334,223.18058172916668,53.0,106.0
1158,222.86616511458334,223.18978416666667,58.0,117.0
1159,222.86616511458334,223.22966139583335,62.0,109.0
1160,223.23426261458334,223.97966005208335,48.0,104.0
1161,223.97045761458332,224.18211367708332,45.0,76.0
1162,223.60236011458335,224.20205229166666,55.0,104.0
1163,223.60236011458335,224.21278846875,64.0,104.0
1164,223.60236011458335,224.21585594791668,60.0,104.0
1165,224.33855511458333,224.68364652083335,55.0,106.0
1166,224.33855511458333,224.70972009375,60.0,106.0
1167,224.33855511458333,224.71892253125,64.0,104.0
1168,223.97045761458332,224.75726602083333,43.0,99.0
1169,224.70665261458333,225.40910534375,48.0,99.0
1170,225.07475011458334,225.63763254166668,64.0,101.0
1171,225.07475011458334,225.65450367708334,55.0,104.0
1172,225.07475011458334,225.66523985416666,60.0,104.0
1173,225.44284761458334,226.05634344791667,43.0,104.0
1174,225.81094511458335,226.11309181250002,60.0,112.0
1175,225.81094511458335,226.15143530208334,55.0,109.0
1176,225.81094511458335,226.19898122916666,64.0,106.0
1177,226.17904261458332,226.65143440625,43.0,106.0
1178,226.54714011458333,227.12382619791666,55.0,104.0
1179,226.54714011458333,227.12996115625,58.0,113.0
1180,226.54714011458333,227.15910220833334,62.0,106.0
1181,227.28333511458334,227.51799727083335,62.0,109.0
1182,227.28333511458334,227.51953101041667,55.0,109.0
1183,227.28333511458334,227.53180092708334,58.0,117.0
1184,226.91523761458333,227.54100336458333,50.0,94.0
1185,227.65143261458334,228.44284223958334,55.0,104.0
1186,227.65143261458334,228.4505109375,58.0,117.0
1187,227.65143261458334,228.45817963541666,62.0,109.0
1188,227.65143261458334,228.56247392708335,43.0,104.0
1189,229.12382261458333,229.7572570625,45.0,106.0
1190,229.49192011458334,230.00112165625,64.0,104.0
1191,229.49192011458334,230.03486392708334,57.0,106.0
1192,229.49192011458334,230.03486392708334,60.0,104.0
1193,230.22811511458335,230.48885084375001,57.0,99.0
1194,230.22811511458335,230.4934520625,64.0,96.0
1195,230.22811511458335,230.49651954166666,60.0,96.0
1196,229.86001761458334,230.50572197916668,52.0,94.0
1197,230.59621261458332,231.55019863541668,60.0,101.0
1198,230.59621261458332,231.59621082291667,57.0,101.0
1199,230.59621261458332,231.63148683333333,45.0,106.0
1200,232.06860261458334,232.177498125,48.0,104.0
1201,232.06860261458334,232.19897047916666,55.0,96.0
1202,232.06860261458334,232.19897047916666,64.0,101.0
1203,232.06860261458334,232.20203795833334,60.0,101.0
1204,232.43670011458335,232.49651595833333,55.0,78.0
1205,232.43670011458335,232.51185335416667,64.0,94.0
1206,232.43670011458335,232.51338709375,60.0,91.0
1207,232.43670011458335,232.51645457291667,48.0,85.0
1208,232.62074886458333,232.69590210416666,55.0,89.0
1209,232.62074886458333,232.69590210416666,60.0,89.0
1210,232.62074886458333,232.69896958333334,64.0,99.0
1211,232.62074886458333,232.70663828125,48.0,94.0
1212,232.80479761458335,232.90142320833334,55.0,99.0
1213,232.80479761458335,232.90449068750002,48.0,99.0
1214,232.80479761458335,232.90449068750002,60.0,96.0
1215,232.80479761458335,232.90909190625,64.0,104.0
1216,233.17289511458333,233.26185201041667,55.0,106.0
1217,233.17289511458333,233.26798696875,60.0,106.0
1218,233.17289511458333,233.28485810416666,64.0,106.0
1219,233.17289511458333,233.28792558333333,48.0,99.0
1220,233.54099261458333,234.81246272916667,48.0,104.0
1221,233.54099261458333,234.83853630208333,55.0,106.0
1222,233.54099261458333,234.90908832291666,60.0,106.0
1223,233.54099261458333,234.91675702083333,64.0,104.0
1224,235.01338261458335,235.6652219375,50.0,109.0
1225,235.38148011458333,235.91215401041666,57.0,101.0
1226,235.38148011458333,235.93362636458335,65.0,101.0
1227,235.38148011458333,235.9504975,62.0,104.0
1228,235.74957761458333,236.28792020833333,45.0,104.0
1229,236.11767511458334,236.62074169791666,62.0,112.0
1230,236.11767511458334,236.62687665625,57.0,106.0
1231,236.11767511458334,236.62687665625,65.0,104.0
1232,236.48577261458334,237.16828672916668,50.0,104.0
1233,236.85387011458334,237.40141514583334,65.0,106.0
1234,236.85387011458334,237.40294888541666,62.0,106.0
1235,236.85387011458334,237.40601636458334,57.0,104.0
1236,237.22196761458335,237.81859231250002,45.0,109.0
1237,237.59006511458333,237.8738069375,57.0,104.0
1238,237.59006511458333,237.88761059375,62.0,106.0
1239,237.59006511458333,237.90141425000002,65.0,104.0
1240,237.95816261458333,238.63760925,50.0,104.0
1241,238.32626011458333,238.729633625,57.0,99.0
1242,238.32626011458333,238.76184215625,62.0,104.0
1243,238.32626011458333,238.76951085416667,65.0,104.0
1244,239.06245511458334,239.23116646875,62.0,104.0
1245,239.06245511458334,239.26184126041667,57.0,99.0
1246,238.69435761458334,239.30325222916667,45.0,82.0
1247,239.06245511458334,239.31398840625,65.0,104.0
1248,239.43055261458335,240.16368013541668,50.0,99.0
1249,239.79865011458332,240.34772888541667,57.0,106.0
1250,239.79865011458332,240.35079636458335,65.0,104.0
1251,239.79865011458332,240.36153254166666,62.0,109.0
1252,240.16674761458333,240.75877109375,45.0,91.0
1253,240.53484511458333,240.84005929166668,62.0,115.0
1254,240.53484511458333,240.88913895833335,57.0,109.0
1255,240.53484511458333,240.94128610416666,65.0,106.0
1256,240.90294261458334,241.379935625,45.0,99.0
1257,241.27104011458334,241.76183678125,60.0,94.0
1258,241.27104011458334,241.76490426041667,64.0,106.0
1259,241.27104011458334,241.77410669791666,57.0,101.0
1260,241.63913761458335,242.18514890625,52.0,94.0
1261,242.00723511458332,242.20508752083333,60.0,89.0
1262,242.00723511458332,242.20662126041668,57.0,96.0
1263,242.00723511458332,242.21428995833332,64.0,99.0
1264,242.37533261458333,242.96888983333335,45.0,82.0
1265,242.74343011458333,243.3032450625,64.0,101.0
1266,242.74343011458333,243.30477880208335,60.0,96.0
1267,242.74343011458333,243.3124475,57.0,106.0
1268,243.47962511458334,243.76490067708335,60.0,96.0
1269,243.11152761458334,243.77103563541667,52.0,94.0
1270,243.47962511458334,243.79864294791668,57.0,104.0
1271,243.47962511458334,244.12839695833333,64.0,104.0
1272,243.84772261458335,244.43054365625,46.0,70.0
1273,244.21582011458332,244.7572301875,62.0,101.0
1274,244.21582011458332,244.77563506250002,53.0,99.0
1275,244.21582011458332,244.7848375,58.0,96.0
1276,244.58391761458333,245.15446873958334,41.0,96.0
1277,244.95201511458333,245.21888580208335,53.0,104.0
1278,244.95201511458333,245.22195328125,62.0,106.0
1279,244.95201511458333,245.23268945833334,58.0,113.0
1280,245.32011261458334,245.97962063541667,46.0,104.0
1281,245.68821011458334,246.16673686458333,53.0,106.0
1282,245.68821011458334,246.17287182291668,62.0,106.0
1283,245.68821011458334,246.19127669791666,58.0,117.0
1284,246.42440511458332,246.59465020833335,53.0,96.0
1285,246.42440511458332,246.60538638541667,58.0,107.0
1286,246.05630761458335,246.61919004166666,41.0,101.0
1287,246.42440511458332,246.71274815625,62.0,106.0
1288,246.79250261458333,247.49495534375,48.0,94.0
1289,247.16060011458333,247.62378946875,55.0,91.0
1290,247.16060011458333,247.66980165625,64.0,101.0
1291,247.16060011458333,247.67900409375,60.0,91.0
1292,247.52869761458334,248.1621320625,43.0,89.0
1293,247.89679511458334,248.22194790625,55.0,87.0
1294,247.89679511458334,248.25722391666667,60.0,96.0
1295,247.89679511458334,248.28176375,64.0,101.0
1296,248.26489261458335,248.9535416875,48.0,69.0
1297,248.63299011458335,249.2020075,55.0,99.0
1298,248.63299011458335,249.2112099375,64.0,101.0
1299,248.63299011458335,249.21887863541667,60.0,99.0
1300,249.00108761458333,249.53482898958333,43.0,104.0
1301,249.36918511458333,249.58084117708333,60.0,109.0
1302,249.36918511458333,249.68360172916667,55.0,106.0
1303,249.36918511458333,249.74341757291668,64.0,106.0
1304,249.73728261458334,250.23114676041666,43.0,104.0
1305,250.10538011458334,250.53329345833333,58.0,113.0
1306,250.10538011458334,250.59310930208335,55.0,101.0
1307,250.10538011458334,250.63145279166667,62.0,104.0
1308,250.47347761458335,250.97501045833334,50.0,78.0
1309,250.84157511458335,251.00108403125,55.0,94.0
1310,250.84157511458335,251.00261777083333,62.0,104.0
1311,250.84157511458335,251.01028646875,58.0,101.0
1312,251.20967261458333,251.64678839583334,43.0,101.0
1313,251.94586761458334,252.22654195833334,55.0,94.0
1314,251.94586761458334,252.25261553125,58.0,96.0
1315,251.94586761458334,252.27715536458334,62.0,106.0
1316,252.68206261458334,253.16519058333333,45.0,104.0
1317,253.05016011458335,253.55015921875,64.0,101.0
1318,253.05016011458335,253.57009783333334,57.0,104.0
1319,253.05016011458335,253.58390148958333,60.0,101.0
1320,253.41825761458333,253.94739777083333,52.0,87.0
1321,253.78635511458333,253.96733638541667,64.0,96.0
1322,253.78635511458333,253.97040386458335,57.0,94.0
1323,253.78635511458333,253.97193760416667,60.0,91.0
1324,254.15445261458333,254.410587125,64.0,96.0
1325,254.15445261458333,254.41212086458333,57.0,89.0
1326,254.15445261458333,254.43972817708334,60.0,89.0
1327,254.15445261458333,254.52255011458334,45.0,104.0
1328,255.62684261458332,255.7265356875,55.0,96.0
1329,255.62684261458332,255.7265356875,60.0,99.0
1330,255.62684261458332,255.72960316666666,48.0,99.0
1331,255.62684261458332,255.72960316666666,64.0,101.0
1332,255.99494011458333,256.06089091666666,55.0,82.0
1333,255.99494011458333,256.07469457291666,64.0,91.0
1334,255.99494011458333,256.07776205208336,60.0,89.0
1335,255.99494011458333,256.08389701041665,48.0,80.0
1336,256.17898886458335,256.2418721875,55.0,82.0
1337,256.17898886458335,256.24493966666665,60.0,85.0
1338,256.17898886458335,256.25567584375,64.0,96.0
1339,256.17898886458335,256.26181080208335,48.0,91.0
1340,256.36303761458333,256.44585955208333,60.0,91.0
1341,256.36303761458333,256.4473932916667,55.0,89.0
1342,256.36303761458333,256.4550619895833,64.0,99.0
1343,256.36303761458333,256.4611969479167,48.0,96.0
1344,256.7311351145833,256.7970859166667,55.0,91.0
1345,256.7311351145833,256.81702453125,60.0,99.0
1346,256.7311351145833,256.82776070833336,64.0,99.0
1347,256.7311351145833,256.83236192708335,48.0,96.0
1348,257.09923261458334,257.31702363541666,55.0,99.0
1349,257.09923261458334,257.33849598958335,60.0,96.0
1350,257.09923261458334,257.34463094791664,64.0,101.0
1351,257.09923261458334,257.3676370416667,48.0,99.0
1352,258.6835856041667,259.9703931145833,45.0,104.0
1353,259.06088554166666,259.99953416666665,52.0,78.0
1354,259.49646758333336,260.0440126145833,57.0,96.0
1355,260.39063776041667,260.5194718854167,50.0,26.0
1356,260.7142568125,261.33235386458335,55.0,101.0
1357,260.3277544375,261.52560505208334,48.0,96.0
1358,261.146771375,261.73879485416666,60.0,115.0
1359,262.3737630416667,263.99799326041665,45.0,76.0
1360,262.1805118541667,264.1084225104167,38.0,104.0
1361,262.5946215416667,265.7387876875,50.0,48.0
1362,262.73725932291666,265.74645638541665,53.0,78.0
1363,262.950449125,265.75412508333335,57.0,89.0
1364,263.17437510416664,265.766395,62.0,62.0
