,start,end,pitch,velocity
0,40.389423750000006,40.77692336250001,64.0,84.0
1,40.81799475000001,41.07870877500001,71.0,79.0
2,41.03228025000001,41.29477998750001,69.0,77.0
3,41.24656575000001,41.68227960000001,67.0,75.0
4,41.67513675000001,43.26263516250001,71.0,74.0
5,43.81799175000001,44.03227725000001,71.0,80.0
6,44.03227725000001,44.24656275000001,71.0,80.0
7,44.24656275000001,44.59120526250001,74.0,87.0
8,44.67513375000001,45.04834766250001,76.0,77.0
9,45.103704750000006,45.44656155000001,71.0,79.0
10,45.53227575000001,46.69477458750001,69.0,77.0
11,48.31798725000001,48.546558450000006,67.0,71.0
12,48.53227275000001,48.751915387500006,69.0,71.0
13,48.74655825000001,48.97155802500001,67.0,74.0
14,48.96084375000001,49.18762923750001,69.0,74.0
15,49.17512925000001,49.42334328750001,67.0,71.0
16,49.38941475000001,50.01441412500001,69.0,73.0
17,50.03227125000001,50.24655675000001,67.0,74.0
18,50.24655675000001,50.44119941250001,69.0,74.0
19,50.46084225000001,50.66262776250001,67.0,72.0
20,50.67512775000001,50.87512755000001,69.0,76.0
21,50.88941325000001,51.03405596250001,67.0,74.0
22,51.10369875000001,51.43226985000001,71.0,73.0
23,51.53226975000001,51.83762658750001,71.0,75.0
24,51.96084075000001,52.144769137500006,69.0,77.0
25,52.17512625000001,52.38762603750001,67.0,68.0
26,52.38941175000001,53.773338937500014,64.0,74.0
27,54.103695750000014,54.42690971250001,64.0,78.0
28,54.53226675000001,54.80369505000001,71.0,74.0
29,54.74655225000001,54.987623437500005,69.0,75.0
30,54.96083775000001,55.41083730000001,67.0,73.0
31,55.389408750000015,57.196549800000014,71.0,73.0
32,57.31797825000001,57.45369240000001,71.0,78.0
33,57.53226375000001,57.66083505000001,71.0,77.0
34,57.746549250000015,57.96083475000001,71.0,84.0
35,57.96083475000001,58.27869157500001,74.0,74.0
36,58.38940575000001,58.68583402500001,76.0,80.0
37,58.817976750000014,59.237619187500016,71.0,71.0
38,59.24654775000001,60.99833171250001,69.0,75.0
39,61.81797375000001,61.94833076250001,69.0,75.0
40,62.03225925000001,62.178687675000006,71.0,79.0
41,62.24654475000001,62.41975886250001,72.0,75.0
42,62.460830250000015,62.610830100000015,71.0,73.0
43,62.67511575000001,62.871544125000014,72.0,74.0
44,62.88940125000001,63.03225825000001,71.0,77.0
45,63.10368675000001,63.66440047500001,72.0,77.0
46,63.746543250000016,63.882257400000015,71.0,75.0
47,63.96082875000001,64.10904288750001,72.0,74.0
48,64.17511425000001,64.31261411250001,71.0,74.0
49,64.38939975000001,64.51439962500001,72.0,79.0
50,64.60368525000001,64.76797080000001,76.0,73.0
51,64.81797075000001,65.13761328750002,78.0,78.0
52,65.24654175,65.63939850000001,76.0,77.0
53,65.67511275000001,67.48761093750001,71.0,77.0
54,67.81796775000001,67.93582477500001,76.0,77.0
55,68.03225325000001,68.19653880000001,76.0,75.0
56,68.24653875000001,68.41439572500002,71.0,77.0
57,68.46082425000002,68.63046693750002,69.0,69.0
58,68.67510975000002,69.03046653750002,67.0,75.0
59,69.10368075000001,70.16796540000001,71.0,74.0
60,71.24653575000002,71.40546416250001,71.0,76.0
61,71.46082125000001,71.63046393750001,71.0,75.0
62,71.67510675000001,72.01796355000002,74.0,79.0
63,72.10367775,72.49653450000001,76.0,75.0
64,72.53224875000001,72.89474838750002,71.0,75.0
65,72.96081975000001,74.44117541250002,69.0,73.0
66,75.74653125,75.89831681250001,67.0,72.0
67,75.96081675000002,76.10545946250002,69.0,77.0
68,76.17510225000001,76.29295927500002,67.0,69.0
69,76.38938775000001,76.5518875875,69.0,75.0
70,76.60367325000001,76.72510170000001,67.0,74.0
71,76.81795875000002,77.31617253750002,69.0,77.0
72,77.46081525000001,77.59652940000001,67.0,75.0
73,77.67510075000001,77.80010062500001,69.0,77.0
74,77.88938625000002,78.01081470000001,67.0,74.0
75,78.10367175000002,78.23581447500001,69.0,77.0
76,78.31795725,78.45902853750002,67.0,73.0
77,78.53224275000002,78.81438532500002,71.0,76.0
78,78.96081375000001,79.27509915000002,71.0,74.0
79,79.38938475,79.56259886250001,69.0,75.0
80,79.60367025000002,79.7393844,67.0,73.0
81,79.81795575000001,81.23402576250001,64.0,75.0
82,81.53223975000002,81.66438247500001,64.0,80.0
83,81.74652525000002,81.91438222500001,64.0,75.0
84,81.96081075000001,82.11795345000002,71.0,74.0
85,82.17509625000002,82.39116746250002,69.0,72.0
86,82.38938175000001,82.73580997500002,67.0,74.0
87,82.81795275000002,84.39652260000001,71.0,75.0
88,84.96080775000001,85.09652190000001,71.0,77.0
89,85.17509325000002,85.34295022500001,71.0,74.0
90,85.38937875000002,85.68759273750001,74.0,84.0
91,85.81794975000001,86.12152087500002,76.0,74.0
92,86.24652075000002,86.81080590000002,71.0,75.0
93,86.88937725000002,88.80544676250001,69.0,74.0
94,89.24651775000001,89.37866047500002,69.0,73.0
95,89.46080325000001,89.60187453750001,71.0,73.0
96,89.67508875000001,89.8233028875,72.0,69.0
97,89.88937425000002,90.03758838750002,71.0,73.0
98,90.10365975000002,90.25187388750001,72.0,68.0
99,90.31794525000001,90.45723082500001,71.0,74.0
100,90.53223075000002,91.06258736250001,72.0,74.0
101,91.17508725000002,91.36437277500002,71.0,69.0
102,91.38937275,91.50544406250002,72.0,75.0
103,91.60365825000002,91.71972956250002,71.0,77.0
104,91.81794375000001,91.92508650000002,72.0,77.0
105,92.03222925000001,92.16794340000001,76.0,77.0
106,92.24651475000002,92.55008587500001,78.0,77.0
107,92.67508575000002,92.96258546250002,76.0,78.0
108,93.10365675000001,94.94477600625001,78.0,75.0
109,95.66719464375001,95.97146456250002,79.0,74.0
110,96.09424014375001,96.37181971875002,78.0,75.0
111,96.52128564375002,96.84690783750001,76.0,75.0
112,96.94833114375001,97.26683591250001,71.0,74.0
113,97.37537664375002,97.69388141250002,76.0,79.0
114,97.80242214375001,98.12092691250001,71.0,77.0
115,98.22946764375001,98.36291936250001,74.0,80.0
116,98.44299039375001,98.77928872500001,74.0,76.0
117,98.87003589375001,99.747258525,71.0,75.0
118,99.93764964375,100.29270133125002,69.0,77.0
119,100.36591554375002,100.70698663125002,64.0,77.0
120,100.79448654375001,101.16412903125001,69.0,73.0
121,101.22305754375002,101.33912885625001,64.0,74.0
122,101.43734304375002,101.59448574375001,64.0,75.0
123,101.65162854375001,101.78198555625,67.0,69.0
124,101.86591404375001,102.29269933125002,67.0,71.0
125,102.29448504375002,102.93377011875002,64.0,77.0
126,102.93734154375001,103.05876999375002,64.0,80.0
127,103.15162704375001,103.30698403125001,66.0,73.0
128,103.36591254375001,103.48734099375001,67.0,74.0
129,103.58019804375002,103.89269773125001,67.0,73.0
130,104.00876904375001,104.12484035625002,67.0,71.0
131,104.22305454375001,104.55876849375001,67.0,73.0
132,104.65162554375001,104.99269663125001,64.0,77.0
133,105.08019654375002,105.41948191875001,76.0,79.0
134,105.50876754375001,105.81055295625,74.0,82.0
135,105.93733854375002,106.30340960625001,67.0,74.0
136,106.36590954375,106.70162349375002,69.0,74.0
137,106.79448054375001,109.16947816875002,71.0,71.0
138,109.36590654375001,109.66947766875002,79.0,74.0
139,109.79447754375002,110.10697723125001,78.0,74.0
140,110.22304854375001,110.52126253125002,76.0,75.0
141,110.65161954375002,110.94983353125002,71.0,77.0
142,111.08019054375002,111.38733309375002,76.0,75.0
143,111.50876154375001,111.81233266875002,71.0,77.0
144,111.93733254375002,112.05876099375001,74.0,79.0
145,112.15161804375002,112.52126053125002,74.0,74.0
146,112.58018904375001,113.50340240625002,71.0,76.0
147,113.65161654375001,113.99090191875001,69.0,73.0
148,114.08018754375001,114.42661576875001,64.0,77.0
149,114.50875854375002,114.83732964375001,69.0,76.0
150,114.93732954375001,115.26411493125002,64.0,77.0
151,115.36590054375002,115.50697183125001,67.0,66.0
152,115.58018604375002,115.97661421875002,67.0,69.0
153,116.00875704375002,116.52304224375001,64.0,78.0
154,116.65161354375002,116.76232771875002,64.0,75.0
155,116.86589904375002,117.00875604375001,66.0,70.0
156,117.02661316875002,117.28375576875001,67.0,73.0
157,117.35518426875001,117.57661261875002,67.0,74.0
158,117.66768395625002,117.81411238125001,67.0,73.0
159,117.89268373125002,118.21232626875002,67.0,73.0
160,118.31054045625001,118.43554033125002,69.0,73.0
161,118.52661166875001,118.67661151875001,71.0,74.0
162,118.76589714375001,119.19446814375002,69.0,75.0
163,119.43732504375001,119.57303919375002,69.0,74.0
164,119.65161054375002,119.97482450625002,69.0,75.0
165,120.08018154375002,120.44625260625001,66.0,73.0
166,120.50875254375002,120.68732379375001,62.0,69.0
167,120.72303804375002,122.22303654375001,64.0,74.0
168,122.65160754375002,123.08017854375001,64.0,77.0
169,123.08017854375001,123.24803551875002,71.0,77.0
170,123.29446404375001,123.46410673125001,69.0,69.0
171,123.50874954375001,123.86410633125001,67.0,75.0
172,123.93732054375002,125.00160519375001,71.0,74.0
173,126.08017554375002,126.23910395625002,71.0,76.0
174,126.29446104375002,126.46410373125002,71.0,75.0
175,126.50874654375002,126.85160334375001,74.0,79.0
176,126.93731754375001,127.33017429375002,76.0,75.0
177,127.36588854375002,127.72838818125001,71.0,75.0
178,127.79445954375001,129.27481520625003,69.0,73.0
179,130.58017104375003,130.73195660625,67.0,72.0
180,130.79445654375002,130.93909925625002,69.0,77.0
181,131.00874204375003,131.12659906875,67.0,69.0
182,131.22302754375002,131.38552738125003,69.0,75.0
183,131.43731304375,131.55874149375,67.0,74.0
184,131.65159854375003,132.14981233125002,69.0,77.0
185,132.29445504375002,132.43016919375003,67.0,75.0
186,132.50874054375,132.63374041875002,69.0,77.0
187,132.72302604375002,132.84445449375002,67.0,74.0
188,132.93731154375,133.06945426875,69.0,77.0
189,133.15159704375003,133.29266833125,67.0,73.0
190,133.36588254375002,133.64802511875,71.0,76.0
191,133.79445354375002,134.10873894375,71.0,74.0
192,134.22302454375,134.39623865625003,69.0,75.0
193,134.43731004375002,134.57302419375003,67.0,73.0
194,134.65159554375003,136.06766555625,64.0,75.0
195,136.36587954375003,136.49802226875002,76.0,80.0
196,136.58016504375001,136.74802201875002,76.0,75.0
197,136.79445054375003,136.95159324375,71.0,74.0
198,137.00873604375002,137.22480725625002,69.0,72.0
199,137.22302154375,137.56944976875002,67.0,74.0
200,137.65159254375,139.23016239375002,71.0,75.0
201,139.79444754375,139.93016169375002,71.0,77.0
202,140.00873304375003,140.17659001875,71.0,74.0
203,140.22301854375002,140.52123253125,74.0,84.0
204,140.65158954375002,140.95516066875,76.0,74.0
205,141.08016054375003,141.64444569375001,71.0,75.0
206,141.72301704375002,143.63908655625002,69.0,74.0
207,144.08015754375003,144.21230026875003,69.0,73.0
208,144.29444304375002,144.43551433125003,71.0,73.0
209,144.50872854375,144.65694268125003,72.0,69.0
210,144.72301404375003,144.87085951875002,71.0,73.0
211,144.93669570000003,145.08438226875003,72.0,68.0
212,145.15021845000004,145.28900823750004,71.0,74.0
213,145.36374120000002,145.89221000625002,72.0,74.0
214,146.00430945000002,146.19292121250004,71.0,69.0
215,146.21783220000003,146.33349035625002,72.0,75.0
216,146.43135495000004,146.54701310625003,71.0,77.0
217,146.64487770000002,146.751639075,72.0,77.0
218,146.85840045000003,146.99363152500004,76.0,77.0
219,147.07192320000001,147.37441376250004,78.0,77.0
220,147.49896870000003,147.78544505625004,76.0,78.0
221,147.92601420000003,149.76586856250003,78.0,75.0
222,150.48828720000003,150.79255711875004,79.0,74.0
223,150.91533270000002,151.19291227500003,78.0,75.0
224,151.34237820000004,151.66883306250003,76.0,75.0
225,151.77061867500004,152.09026121250002,71.0,74.0
226,152.199189675,152.51883221250003,76.0,79.0
227,152.62776067500002,152.94740321250003,71.0,77.0
228,153.05633167500002,153.19026011250003,74.0,80.0
229,153.270617175,153.60811683750003,74.0,76.0
230,153.69918817500002,154.57954443750003,71.0,75.0
231,154.77061567500002,155.12597246250002,69.0,77.0
232,155.19918667500002,155.54025776250003,64.0,77.0
233,155.62775767500003,155.9974001625,69.0,73.0
234,156.05632867500003,156.17239998750003,64.0,74.0
235,156.27061417500002,156.42775687500003,64.0,75.0
236,156.48489967500004,156.61525668750002,67.0,69.0
237,156.69918517500003,157.12597046250002,67.0,71.0
238,157.12775617500003,157.76704125000003,64.0,77.0
239,157.77061267500002,157.89204112500002,64.0,80.0
240,157.984898175,158.1402551625,66.0,73.0
241,158.19918367500003,158.32061212500003,67.0,74.0
242,158.41346917500002,158.72596886250003,67.0,73.0
243,158.84204017500002,158.95811148750002,67.0,71.0
244,159.05632567500004,159.39203962500002,67.0,73.0
245,159.48489667500002,159.82596776250003,64.0,77.0
246,159.91346767500002,160.25275305000002,76.0,79.0
247,160.34203867500003,160.64382408750004,74.0,82.0
248,160.77060967500003,161.13668073750003,67.0,74.0
249,161.19918067500004,161.53489462500002,69.0,74.0
250,161.627751675,164.00274930000003,71.0,71.0
251,164.19917767500002,164.50274880000003,79.0,74.0
252,164.62774867500002,164.94024836250003,78.0,74.0
253,165.05631967500003,165.35453366250002,76.0,75.0
254,165.48489067500003,165.78310466250002,71.0,77.0
255,165.91346167500004,166.22060422500002,76.0,75.0
256,166.342032675,166.64560380000003,71.0,77.0
257,166.77060367500002,166.89203212500001,74.0,79.0
258,166.98488917500003,167.35453166250002,74.0,74.0
259,167.413460175,168.33667353750002,71.0,76.0
260,168.48488767500004,168.82417305,69.0,73.0
261,168.91345867500002,169.25988690000003,64.0,77.0
262,169.34202967500002,169.67060077500003,69.0,76.0
263,169.77060067500003,170.09738606250002,64.0,77.0
264,170.19917167500003,170.34024296250004,67.0,66.0
265,170.41345717500002,170.80988535000003,67.0,69.0
266,170.84202817500002,171.356313375,64.0,78.0
267,171.48488467500002,171.59559885000002,64.0,75.0
268,171.69917017500003,171.84202717500003,66.0,70.0
269,171.85988430000003,172.11702690000004,67.0,73.0
270,172.18845540000004,172.40988375000003,67.0,74.0
271,172.50095508750002,172.64738351250003,67.0,73.0
272,172.72595486250003,173.04559740000002,67.0,73.0
273,173.14381158750004,173.26881146250003,69.0,73.0
274,173.35988280000004,173.50988265000004,71.0,74.0
275,173.599168275,174.02773927500002,69.0,75.0
276,174.27059617500004,174.40631032500002,69.0,74.0
277,174.48488167500003,174.80809563750003,69.0,75.0
278,174.91345267500003,175.27952373750003,66.0,73.0
279,175.34202367500004,175.520594925,62.0,69.0
280,175.55630917500002,177.05630767500003,64.0,74.0
281,177.25248815625002,177.5318470875,76.0,87.0
282,177.62437361250002,177.78629503125003,76.0,89.0
283,177.88593898125004,178.05497782500004,76.0,80.0
284,178.17063598125003,178.36814452500002,76.0,80.0
285,178.46245040625,178.6136956875,76.0,74.0
286,178.72223641875001,179.05319668125003,76.0,77.0
287,179.11547415,179.25070522500002,74.0,80.0
288,179.35390788750001,180.48557846250003,74.0,82.0
289,180.64749988125,180.91796203125003,78.0,82.0
290,181.00515048750003,181.17240997500002,78.0,74.0
291,181.28806813125001,181.53361929375004,78.0,78.0
292,181.61724903750002,181.83077178750003,78.0,77.0
293,181.91618088750002,182.07098488125,79.0,75.0
294,182.17062883125,182.49269231250003,78.0,76.0
295,182.56030785000002,182.70087699375003,76.0,79.0
296,182.82187321875003,183.92685345,76.0,84.0
297,184.07276066250003,184.35389895000003,79.0,77.0
298,184.44286676250002,184.64215466250002,79.0,74.0
299,184.73112247500003,185.01759883125,79.0,77.0
300,185.11724278125,185.26670870625003,79.0,77.0
301,185.3681320125,185.9517608625,79.0,77.0
302,185.98378927500002,186.15638683125002,78.0,79.0
303,186.23467850625002,187.17773731875002,78.0,74.0
304,187.29873354375002,187.64748736875003,78.0,78.0
305,187.71154419375003,187.84855462500002,76.0,76.0
306,187.94641921875,188.816524425,76.0,78.0
307,188.98378391250003,189.3183028875,76.0,78.0
308,189.40549134375001,189.55139855625004,78.0,73.0
309,189.64748379375,192.42327954375003,78.0,77.0
310,205.27485260625002,205.58020944375002,79.0,74.0
311,205.70342360625003,205.98199475625,78.0,75.0
312,206.13199460625003,206.45877999375003,76.0,75.0
313,206.56056560625,206.88020814375002,71.0,74.0
314,206.98913660625,207.30877914375003,76.0,79.0
315,207.41770760625002,207.73735014375,71.0,77.0
316,207.84627860625002,207.98020704375003,74.0,80.0
317,208.06056410625,208.39806376875,74.0,76.0
318,208.48913510625002,209.36949136875,71.0,75.0
319,209.56056260625002,209.91591939375002,69.0,77.0
320,209.98913360625002,210.33020469375003,64.0,77.0
321,210.41770460625003,210.78734709375001,69.0,73.0
322,210.84627560625003,210.96234691875003,64.0,74.0
323,211.06056110625002,211.21770380625003,64.0,75.0
324,211.27484660625,211.40520361875002,67.0,69.0
325,211.48913210625003,211.91591739375002,67.0,71.0
326,211.91770310625003,212.55698818125,64.0,77.0
327,212.56055960625002,212.68198805625002,64.0,80.0
328,212.77484510625,212.93020209375,66.0,73.0
329,212.98913060625003,213.11055905625003,67.0,74.0
330,213.20341610625002,213.51591579375003,67.0,73.0
331,213.63198710625002,213.74805841875002,67.0,71.0
332,213.84627260625,214.18198655625002,67.0,73.0
333,214.27484360625002,214.48912910625,69.0,77.0
334,214.48912910625,214.70341460625002,71.0,74.0
335,214.68198605625003,215.17841413125,69.0,79.0
336,215.27662831875003,215.42662816875003,69.0,75.0
337,215.52305664375,215.90162769375002,69.0,75.0
338,215.94448479375,216.36591294375,66.0,75.0
339,216.38019864375002,217.08376936875,62.0,75.0
340,217.05876939375003,218.69448204375,64.0,82.0
341,218.98912460625002,219.29269573125003,79.0,74.0
342,219.41769560625002,219.73019529375003,78.0,74.0
343,219.84626660625003,220.14448059375002,76.0,75.0
344,220.27483760625003,220.57305159375002,71.0,77.0
345,220.70340860625,221.01055115625002,76.0,75.0
346,221.13197960625,221.43555073125003,71.0,77.0
347,221.56055060625002,221.68197905625001,74.0,79.0
348,221.77483610625,222.14447859375002,74.0,74.0
349,222.20340710625,223.12662046875002,71.0,76.0
350,223.27483460625,223.61411998125,69.0,73.0
351,223.70340560625002,224.04983383125003,64.0,77.0
352,224.13197660625002,224.46054770625003,69.0,76.0
353,224.56054760625003,224.88733299375002,64.0,77.0
354,224.98911860625003,225.13018989375,67.0,66.0
355,225.20340410625002,225.59983228125003,67.0,69.0
356,225.63197510625002,226.14626030625,64.0,78.0
357,226.27483160625002,226.38554578125002,64.0,75.0
358,226.48911710625003,226.63197410625003,66.0,70.0
359,226.64983123125,226.90697383125,67.0,73.0
360,226.97840233125,227.19983068125003,67.0,74.0
361,227.29090201875002,227.43733044375003,67.0,73.0
362,227.51590179375003,227.83554433125002,67.0,73.0
363,227.97125848125003,228.17482970625002,64.0,80.0
364,228.21054395625004,228.76768625625002,76.0,84.0
365,228.81411478125003,229.13911445625,74.0,84.0
366,229.26054290625,229.64625680625002,67.0,84.0
367,229.89089941875002,230.06768495625002,69.0,74.0
368,230.12125633125004,232.55518246875002,71.0,77.0
369,232.70339660625,233.00875344375004,79.0,74.0
370,233.13196760625002,233.41053875625002,78.0,75.0
371,233.56053860625002,233.88732399375002,76.0,75.0
372,233.98910960625003,234.30875214375,71.0,74.0
373,234.41768060625003,234.73732314375002,76.0,79.0
374,234.84625160625,235.16589414375002,71.0,77.0
375,235.27482260625,235.40875104375002,74.0,80.0
376,235.48910810625003,235.82660776875002,74.0,76.0
377,235.91767910625003,236.79803536875002,71.0,75.0
378,236.98910660625,237.34446339375,69.0,77.0
379,237.41767760625004,237.75874869375002,64.0,77.0
380,237.84624860625001,238.21589109375003,69.0,73.0
381,238.27481960625002,238.39089091875002,64.0,74.0
382,238.48910510625,238.64624780625002,64.0,75.0
383,238.70339060625003,238.83374761875,67.0,69.0
384,238.91767610625,239.34446139375,67.0,71.0
385,239.34624710625002,239.98553218125002,64.0,77.0
386,239.98910360625,240.11053205625,64.0,80.0
387,240.20338910625003,240.35874609375003,66.0,73.0
388,240.41767460625002,240.53910305625,67.0,74.0
389,240.63196010625,240.94445979375,67.0,73.0
390,241.06053110625004,241.17660241875,67.0,71.0
391,241.27481660625003,241.61053055625,67.0,73.0
392,241.70338760625003,241.91767310625002,69.0,77.0
393,241.91767310625002,242.13195860625,71.0,74.0
394,242.11053005625,242.60695813125002,69.0,79.0
395,242.70517231875002,242.85517216875002,69.0,75.0
396,242.95160064375003,243.33017169375003,69.0,75.0
397,243.37302879375002,243.79445694375002,66.0,75.0
398,243.80874264375,244.51231336875003,62.0,75.0
399,244.48731339375001,246.12302604375003,64.0,82.0
