,start,end,pitch,velocity
0,0.9928561500000002,1.317855825,52.0,69.0
1,0.7785706500000001,1.4124985875000002,47.0,65.0
2,1.4214271500000002,1.7482125375000002,52.0,58.0
3,1.4214271500000002,1.8714267000000002,59.0,66.0
4,2.4874975125000005,2.8124971875000004,52.0,69.0
5,0.571428,2.8803542625000005,40.0,77.0
6,2.2732120125,2.9071399500000004,47.0,65.0
7,2.9160685125000003,3.2428539000000005,52.0,58.0
8,2.9160685125000003,3.3660680625000006,59.0,66.0
9,3.5589250125000005,3.6321392250000004,52.0,63.0
10,3.7732105125000004,4.323209962500001,52.0,69.0
11,3.7732105125000004,4.3374956625,64.0,72.0
12,3.3446395125000006,4.444638412500001,47.0,65.0
13,3.1303540125000002,4.471424100000001,40.0,70.0
14,4.844638012500001,5.101780612500001,52.0,69.0
15,4.844638012500001,5.294637562500001,57.0,64.0
16,5.4874945125000005,5.649994350000001,52.0,70.0
17,5.4874945125000005,5.662494337500001,61.0,63.0
18,5.9160655125,6.157136700000001,57.0,63.0
19,6.130351012500001,6.305350837500001,52.0,53.0
20,4.844638012500001,6.349993650000001,45.0,66.0
21,6.344636512500001,6.696421875000001,57.0,58.0
22,7.416064012500001,7.660706625000001,52.0,73.0
23,7.416064012500001,7.741063687500001,57.0,73.0
24,6.558922012500001,7.949992050000001,45.0,66.0
25,8.273206012500001,8.389277325000002,52.0,71.0
26,8.273206012500001,8.4910629375,57.0,69.0
27,8.487491512500002,8.619634237500001,52.0,68.0
28,8.701777012500001,8.7857055,57.0,64.0
29,8.916062512500002,9.416062012500001,60.0,67.0
30,9.344633512500002,9.566061862500002,57.0,61.0
31,9.5589190125,9.664276050000002,52.0,72.0
32,9.773204512500001,9.924990075000002,57.0,67.0
33,10.416061012500002,10.471418100000001,52.0,64.0
34,9.1303480125,10.667846475000001,45.0,69.0
35,10.630346512500001,10.7624892375,52.0,63.0
36,10.416061012500002,10.910703375,60.0,69.0
37,11.273203012500002,11.369631487500001,52.0,66.0
38,11.487488512500002,11.791059637500002,59.0,70.0
39,11.487488512500002,11.858916712500001,52.0,73.0
40,11.0589175125,12.374987625000001,47.0,55.0
41,10.844632012500002,12.378559050000002,40.0,78.0
42,12.344630512500002,12.7910586375,52.0,73.0
43,12.344630512500002,13.046415525000002,59.0,71.0
44,12.9874870125,13.085701200000003,52.0,68.0
45,12.773201512500002,13.321415250000001,47.0,61.0
46,13.201772512500002,13.494629362500001,52.0,76.0
47,13.201772512500002,13.498200787500002,64.0,73.0
48,13.201772512500002,13.519629337500001,59.0,73.0
49,13.630343512500001,13.905343237500002,59.0,73.0
50,13.416058012500002,14.285700000000002,47.0,72.0
51,13.844629012500002,14.285700000000002,52.0,74.0
52,14.058914512500001,14.308914262500002,59.0,73.0
53,14.273200012500002,14.308914262500002,59.0,73.0
54,12.558916012500001,14.337485662500002,40.0,75.0
55,14.273200012500002,14.337485662500002,40.0,77.0
56,14.273200012500002,14.760699525000001,64.0,74.0
57,14.701771012500002,15.223199062500003,47.0,62.0
58,15.130342012500002,15.460698825000001,59.0,74.0
59,15.130342012500002,15.492841650000003,64.0,79.0
60,15.130342012500002,15.532127325000001,67.0,74.0
61,15.558913012500001,15.889269825000001,47.0,67.0
62,15.773198512500002,16.178555250000002,59.0,77.0
63,16.416055012500003,16.714269,59.0,69.0
64,16.630340512500002,16.73569755,64.0,71.0
65,16.201769512500004,16.9910544375,47.0,63.0
66,16.8446260125,17.124982875,59.0,73.0
67,15.987484012500001,17.167839975000003,40.0,74.0
68,16.8446260125,17.217839925000003,64.0,78.0
69,17.058911512500003,17.258911312500004,47.0,71.0
70,16.8446260125,17.2660541625,67.0,73.0
71,17.273197012500003,17.448196837500003,40.0,74.0
72,17.701768012500004,18.141053287500004,57.0,69.0
73,17.701768012500004,18.16426755,61.0,73.0
74,18.130339012500002,18.655338487500003,52.0,66.0
75,17.701768012500004,18.758909812500004,45.0,75.0
76,18.558910012500004,18.960695325000003,57.0,75.0
77,18.558910012500004,18.974981025,64.0,77.0
78,18.9874810125,19.2767664375,52.0,62.0
79,19.2017665125,19.612480387500003,57.0,73.0
80,19.2017665125,19.808908762500003,64.0,75.0
81,19.8446230125,20.158908412500004,57.0,74.0
82,20.058908512500004,20.207122650000002,64.0,70.0
83,19.630337512500002,20.357122500000003,52.0,67.0
84,20.273194012500003,20.541050887500003,57.0,73.0
85,19.416052012500003,20.587479412500002,45.0,75.0
86,20.487479512500002,20.649979350000002,52.0,74.0
87,20.273194012500003,20.671407900000002,69.0,73.0
88,20.273194012500003,20.708907862500002,64.0,75.0
89,20.7017650125,20.882121975000004,45.0,74.0
90,21.130336012500003,21.235693050000002,36.0,75.0
91,21.130336012500003,21.7874782125,55.0,73.0
92,21.130336012500003,21.8839066875,60.0,73.0
93,21.987478012500002,22.2142635,60.0,74.0
94,21.987478012500002,22.262477737500003,64.0,75.0
95,22.2017635125,22.312477687500003,48.0,69.0
96,22.416049012500004,22.592834550000003,48.0,43.0
97,22.416049012500004,22.735691550000002,55.0,69.0
98,22.630334512500003,23.069619787500002,60.0,78.0
99,23.273191012500003,23.535690750000004,60.0,74.0
100,22.844620012500002,23.551762162500005,48.0,78.0
101,23.058905512500004,23.59283355,55.0,69.0
102,23.487476512500002,23.657119200000004,67.0,62.0
103,23.7017620125,23.9731903125,62.0,68.0
104,23.7017620125,24.062475937500004,50.0,82.0
105,23.916047512500004,24.110690175000002,57.0,66.0
106,23.7017620125,24.139261575000003,66.0,77.0
107,24.130333012500003,24.423189862500003,62.0,75.0
108,24.344618512500002,24.496404075000004,66.0,75.0
109,24.558904012500005,24.816046612500003,64.0,73.0
110,24.558904012500005,24.880332262500005,67.0,69.0
111,24.987475012500003,25.476760237500002,47.0,61.0
112,25.416046012500004,25.773188512500003,59.0,74.0
113,25.416046012500004,25.807117050000002,52.0,77.0
114,24.558904012500005,26.071402500000005,40.0,79.0
115,25.844617012500002,26.080331062500004,47.0,61.0
116,26.058902512500005,26.376759337500005,52.0,75.0
117,26.058902512500005,26.387473612500003,59.0,73.0
118,26.701759012500002,26.853544575000004,52.0,75.0
119,26.487473512500003,27.007115850000005,47.0,66.0
120,26.916044512500005,27.205329937500004,59.0,78.0
121,26.916044512500005,27.210687075000003,64.0,78.0
122,26.916044512500005,27.212472787500005,52.0,75.0
123,27.344615512500003,27.416044012500002,52.0,68.0
124,27.130330012500004,27.560686725000004,47.0,73.0
125,27.344615512500003,27.658900912500005,59.0,74.0
126,26.273188012500004,27.860686425000004,40.0,77.0
127,27.558901012500005,28.008900562500003,52.0,78.0
128,27.773186512500004,28.014257700000005,59.0,73.0
129,27.987472012500003,28.014257700000005,59.0,73.0
130,27.987472012500003,28.474971525000004,64.0,74.0
131,28.416043012500005,28.937471062500006,47.0,62.0
132,27.987472012500003,29.105328037500005,40.0,77.0
133,28.844614012500003,29.174970825000003,59.0,74.0
134,28.844614012500003,29.207113650000004,64.0,79.0
135,28.844614012500003,29.246399325000002,67.0,74.0
136,29.273185012500004,29.603541825000004,47.0,67.0
137,29.487470512500003,29.892827250000003,59.0,77.0
138,30.130327012500004,30.428541000000003,59.0,69.0
139,30.344612512500003,30.449969550000002,64.0,71.0
140,29.916041512500005,30.705326437500005,47.0,63.0
141,30.558898012500006,30.839254875000005,59.0,73.0
142,29.701756012500002,30.882111975000004,40.0,74.0
143,30.558898012500006,30.932111925000005,64.0,78.0
144,30.773183512500005,30.973183312500005,47.0,71.0
145,30.558898012500006,30.980326162500003,67.0,73.0
146,30.987469012500004,31.162468837500004,40.0,74.0
147,31.416040012500005,31.854092175000005,57.0,69.0
148,31.416040012500005,31.877223806250004,61.0,73.0
149,31.843416037500006,32.366546775,52.0,66.0
150,31.416040012500005,32.469749437500006,45.0,75.0
151,32.270461537500005,32.670816693750005,57.0,75.0
152,32.270461537500005,32.685051543750006,64.0,77.0
153,32.6975070375,32.985762750000006,52.0,62.0
154,32.911029787500006,33.320281725,57.0,73.0
155,32.911029787500006,33.51601091250001,64.0,75.0
156,33.55159803750001,33.8647647375,57.0,74.0
157,33.7651207875,33.912807356250006,64.0,70.0
158,33.338075287500004,34.06227328125001,52.0,67.0
159,33.978643537500005,34.245546975,57.0,73.0
160,33.1245525375,34.2918102375,45.0,75.0
161,34.1921662875,34.354087706250006,52.0,74.0
162,33.978643537500005,34.375439981250004,69.0,73.0
163,33.978643537500005,34.4128064625,64.0,75.0
164,34.405689037500004,34.585404018750005,45.0,74.0
165,34.8327345375,34.93771655625,36.0,75.0
166,34.8327345375,35.487537637500004,55.0,73.0
167,34.8327345375,35.583622875,60.0,73.0
168,35.686825537500006,35.912803781250005,60.0,74.0
169,35.686825537500006,35.96084640000001,64.0,75.0
170,35.9003482875,36.010668375,48.0,69.0
171,36.113871037500004,36.29002730625,48.0,43.0
172,36.113871037500004,36.43237580625001,55.0,69.0
173,36.32739378750001,36.765115425000005,60.0,78.0
174,36.9679620375,37.22952740625001,60.0,74.0
175,36.5409165375,37.245541612500006,48.0,78.0
176,36.754439287500006,37.286466806250004,55.0,69.0
177,37.181484787500004,37.350523631250006,67.0,62.0
178,37.39500753750001,37.66546968750001,62.0,68.0
179,37.39500753750001,37.7544375,50.0,82.0
180,37.6085302875,37.802480118750005,57.0,66.0
181,37.39500753750001,37.83094981875001,66.0,77.0
182,37.822053037500005,38.113867462500004,62.0,75.0
183,38.03557578750001,38.18682106875001,66.0,75.0
184,38.249098537500004,38.5053258375,64.0,73.0
185,38.249098537500004,38.569382662500004,67.0,69.0
186,38.6761440375,39.16442497500001,47.0,61.0
187,39.10371075000001,39.46085325000001,59.0,74.0
188,39.10371075000001,39.49478178750001,52.0,77.0
189,38.249098537500004,39.759067237500005,40.0,79.0
190,39.53228175000001,39.76799580000001,47.0,61.0
191,39.746567250000005,40.064424075000005,52.0,75.0
192,39.746567250000005,40.07513835000001,59.0,73.0
193,40.389423750000006,40.54120931250001,52.0,75.0
194,40.17513825000001,40.694780587500006,47.0,66.0
195,40.60370925000001,40.89299467500001,59.0,78.0
196,40.60370925000001,40.89835181250001,64.0,78.0
197,40.60370925000001,40.900137525000005,52.0,75.0
198,41.03228025000001,41.10370875000001,52.0,68.0
199,40.81799475000001,41.24835146250001,47.0,73.0
200,41.03228025000001,41.34656565000001,59.0,74.0
201,39.96085275000001,41.54835116250001,40.0,77.0
202,41.24656575000001,41.69656530000001,52.0,78.0
203,41.67513675000001,41.69656530000001,52.0,73.0
204,41.46085125000001,41.70192243750001,59.0,73.0
205,41.67513675000001,41.70192243750001,59.0,70.0
206,42.31799325000001,42.39835031250001,52.0,73.0
207,42.10370775000001,42.56442157500001,47.0,50.0
208,42.53227875000001,42.69120716250001,52.0,77.0
209,42.53227875000001,42.71085000000001,64.0,74.0
210,42.746564250000006,43.11799245000001,47.0,64.0
211,42.96084975000001,43.13942100000001,52.0,74.0
212,41.67513675000001,43.15906383750001,40.0,76.0
213,43.17513525000001,43.89477738750001,52.0,69.0
214,43.17513525000001,43.91799165000001,59.0,68.0
215,44.03227725000001,44.112634312500006,52.0,76.0
216,44.24656275000001,44.48227680000001,52.0,87.0
217,44.24656275000001,44.523348187500005,59.0,79.0
218,44.46084825000001,44.70727657500001,47.0,65.0
219,43.389420750000006,44.76263366250001,40.0,74.0
220,44.67513375000001,44.84299072500001,52.0,77.0
221,45.103704750000006,45.316204537500006,52.0,74.0
222,45.103704750000006,45.54656145000001,57.0,69.0
223,45.53227575000001,45.60013282500001,52.0,62.0
224,45.746561250000006,45.93763248750001,52.0,74.0
225,45.746561250000006,45.98406101250001,61.0,66.0
226,45.103704750000006,46.23763218750001,45.0,74.0
227,46.17513225000001,46.30191783750001,52.0,75.0
228,46.17513225000001,46.46798910000001,57.0,73.0
229,46.60370325000001,46.79298877500001,52.0,73.0
230,47.24655975000001,47.32870252500001,57.0,73.0
231,47.03227425000001,47.49477378750001,52.0,61.0
232,47.460845250000006,47.58763083750001,64.0,70.0
233,47.460845250000006,47.70727357500001,57.0,74.0
234,47.67513075000001,48.04477323750001,52.0,66.0
235,47.88941625000001,48.07513035000001,64.0,75.0
236,47.88941625000001,48.08048748750001,57.0,73.0
237,46.81798875000001,48.11441602500001,45.0,73.0
238,48.53227275000001,49.00370085000001,57.0,63.0
239,48.53227275000001,49.01262941250001,60.0,65.0
240,48.96084375000001,49.23584347500001,52.0,58.0
241,49.17512925000001,49.51441462500001,57.0,73.0
242,49.17512925000001,49.637628787500006,64.0,73.0
243,49.60370025000001,49.81977146250001,60.0,69.0
244,49.38941475000001,49.83941430000001,52.0,64.0
245,48.53227275000001,49.86619998750001,45.0,74.0
246,50.24655675000001,50.38762803750001,55.0,68.0
247,50.24655675000001,50.52512790000001,60.0,73.0
248,50.46084225000001,50.71977056250001,55.0,73.0
249,50.67512775000001,50.76977051250001,60.0,72.0
250,50.24655675000001,51.00191313750001,48.0,74.0
251,50.88941325000001,51.11798445000001,60.0,76.0
252,50.88941325000001,51.20191293750001,55.0,74.0
253,50.88941325000001,51.24298432500001,64.0,78.0
254,51.31798425000001,51.39655560000001,55.0,66.0
255,51.31798425000001,51.61084110000001,60.0,73.0
256,51.53226975000001,51.61619823750001,55.0,68.0
257,51.96084075000001,52.19298337500001,59.0,65.0
258,51.96084075000001,52.29298327500001,64.0,69.0
259,52.38941175000001,52.46262596250001,59.0,56.0
260,52.60369725000001,52.72155427500001,59.0,74.0
261,52.60369725000001,52.72691141250001,67.0,73.0
262,53.03226825000001,53.14476813750001,59.0,67.0
263,53.03226825000001,53.15012527500001,64.0,69.0
264,52.17512625000001,53.31976796250001,47.0,62.0
265,51.96084075000001,53.46262496250001,40.0,74.0
266,53.46083925000001,53.68048188750001,59.0,45.0
267,53.67512475000001,54.10726717500001,64.0,71.0
268,54.103695750000014,54.20905278750001,59.0,63.0
269,54.31798125000001,54.44476683750001,67.0,69.0
270,54.31798125000001,54.45190968750001,59.0,73.0
271,53.88941025000001,54.69119516250001,47.0,63.0
272,53.67512475000001,54.84119501250001,40.0,76.0
273,55.389408750000015,55.65190848750001,52.0,70.0
274,55.389408750000015,55.675122750000014,59.0,68.0
275,55.817979750000006,55.948336762500006,52.0,68.0
276,56.03226525000001,56.13226515000001,52.0,72.0
277,56.03226525000001,56.22690791250001,59.0,74.0
278,56.460836250000014,56.578693275000006,64.0,75.0
279,55.60369425000001,56.91976436250001,47.0,58.0
280,55.389408750000015,56.93940720000001,40.0,76.0
281,56.88940725000001,57.19476408750001,52.0,75.0
282,57.53226375000001,57.626906512500014,52.0,74.0
283,57.31797825000001,57.80904918750001,47.0,62.0
284,57.746549250000015,57.98940615000001,59.0,71.0
285,57.746549250000015,58.01797755000001,52.0,75.0
286,57.96083475000001,58.19833451250001,47.0,69.0
287,57.10369275000001,58.20369165000001,40.0,77.0
288,58.175120250000006,58.30369155000001,52.0,76.0
289,58.175120250000006,58.33404866250001,64.0,77.0
290,58.817976750000014,59.20904778750001,57.0,66.0
291,58.817976750000014,59.287619137500016,61.0,59.0
292,59.24654775000001,59.573333137500015,52.0,64.0
293,59.46083325000001,59.573333137500015,52.0,40.0
294,59.46083325000001,59.62511880000001,64.0,75.0
295,59.46083325000001,59.64119021250001,57.0,74.0
296,59.88940425000001,60.003689850000015,69.0,73.0
297,59.88940425000001,60.00726127500001,57.0,74.0
298,58.817976750000014,60.35726092500001,45.0,74.0
299,60.31797525000001,60.68583202500001,57.0,74.0
300,60.96083175000001,61.05547451250001,57.0,67.0
301,60.74654625000001,61.23761718750001,52.0,67.0
302,61.175117250000014,61.375117050000014,64.0,74.0
303,61.175117250000014,61.42868842500001,57.0,73.0
304,61.389402750000016,61.64118821250001,52.0,68.0
305,60.532260750000006,61.67868817500001,45.0,74.0
306,61.60368825000001,61.68404531250001,64.0,74.0
307,61.60368825000001,61.719759562500016,57.0,75.0
308,62.24654475000001,62.47868737500001,57.0,67.0
309,62.24654475000001,62.63225865000001,60.0,69.0
310,62.67511575000001,62.78047278750002,57.0,63.0
311,62.460830250000015,62.96440117500001,52.0,68.0
312,62.88940125000001,63.216186637500016,57.0,73.0
313,62.88940125000001,63.23404376250001,60.0,78.0
314,62.24654475000001,63.28404371250001,45.0,75.0
315,63.31797225000001,63.41440072500001,57.0,71.0
316,63.31797225000001,63.54475773750001,60.0,74.0
317,63.96082875000001,64.07690006250002,55.0,68.0
318,63.96082875000001,64.20725707500002,60.0,71.0
319,64.17511425000001,64.39475688750001,55.0,73.0
320,64.38939975000001,64.48225680000002,60.0,67.0
321,63.96082875000001,64.66439947500001,48.0,74.0
322,64.60368525000001,64.86439927500001,60.0,75.0
323,64.60368525000001,64.88225640000002,64.0,74.0
324,64.60368525000001,64.8911849625,55.0,73.0
325,65.03225625000002,65.16439897500001,55.0,74.0
326,65.03225625000002,65.1911846625,60.0,74.0
327,65.67511275000001,66.107255175,59.0,74.0
328,65.67511275000001,66.14832656250002,63.0,73.0
329,66.10368375000002,66.35368350000002,54.0,47.0
330,66.31796925,66.58046898750001,63.0,75.0
331,66.31796925,66.59118326250001,59.0,75.0
332,66.31796925,66.59832611250002,66.0,72.0
333,66.74654025000001,66.81439732500002,59.0,67.0
334,66.53225475,66.81796875,54.0,62.0
335,65.67511275000001,66.94654005000001,47.0,74.0
336,66.74654025000001,66.98761143750001,71.0,74.0
337,66.74654025000001,67.00903998750002,63.0,73.0
338,66.74654025000001,67.01796855,66.0,73.0
339,67.17511125000001,67.28225400000001,59.0,69.0
340,67.38939675000002,68.05903893750002,59.0,69.0
341,67.38939675000002,68.10546746250002,63.0,69.0
342,67.38939675000002,68.13582457500002,66.0,66.0
343,68.03225325000001,68.30011012500002,54.0,67.0
344,68.24653875000001,68.49653850000001,59.0,76.0
345,68.46082425000002,69.01082370000002,54.0,69.0
346,68.67510975000002,69.01082370000002,59.0,74.0
347,67.38939675000002,69.02689511250001,47.0,76.0
348,69.10368075000001,69.54832316250001,52.0,73.0
349,69.10368075000001,69.6554659125,59.0,70.0
350,69.74653725000002,69.82689431250002,52.0,73.0
351,69.53225175000001,69.99296557500001,47.0,50.0
352,69.96082275,70.11975116250001,52.0,77.0
353,69.96082275,70.13939400000001,64.0,74.0
354,70.17510825000001,70.54653645000002,47.0,64.0
355,70.38939375000001,70.56796500000002,52.0,74.0
356,69.10368075000001,70.58760783750002,40.0,76.0
357,70.60367925000001,71.32332138750002,52.0,69.0
358,70.60367925000001,71.34653565000002,59.0,68.0
359,71.46082125000001,71.54117831250002,52.0,76.0
360,71.67510675000001,71.91082080000001,52.0,87.0
361,71.67510675000001,71.95189218750002,59.0,79.0
362,71.88939225000001,72.13582057500001,47.0,65.0
363,70.81796475000002,72.19117766250001,40.0,74.0
364,72.10367775,72.27153472500001,52.0,77.0
365,72.53224875000001,72.74474853750002,52.0,74.0
366,72.53224875000001,72.97510545000002,57.0,69.0
367,72.96081975000001,73.02867682500002,52.0,62.0
368,73.17510525000002,73.36617648750001,52.0,74.0
369,73.17510525000002,73.41260501250002,61.0,66.0
370,72.53224875000001,73.66617618750001,45.0,74.0
371,73.60367625,73.73046183750002,52.0,75.0
372,73.60367625,73.89653310000001,57.0,73.0
373,74.03224725000001,74.22153277500001,52.0,73.0
374,74.67510375,74.75724652500001,57.0,73.0
375,74.46081825000002,74.92331778750001,52.0,61.0
376,74.88938925000002,75.01617483750002,64.0,70.0
377,74.88938925000002,75.135817575,57.0,74.0
378,75.10367475000001,75.47331723750001,52.0,66.0
379,75.31796025000001,75.50367435000001,64.0,75.0
380,75.31796025000001,75.50903148750001,57.0,73.0
381,74.24653275000001,75.54296002500001,45.0,73.0
382,75.96081675000002,76.43224485000002,57.0,63.0
383,75.96081675000002,76.4411734125,60.0,65.0
384,76.38938775000001,76.66438747500001,52.0,58.0
385,76.60367325000001,76.94295862500002,57.0,73.0
386,76.60367325000001,77.06617278750002,64.0,73.0
387,77.03224425000002,77.24831546250002,60.0,69.0
388,76.81795875000002,77.2679583,52.0,64.0
389,75.96081675000002,77.29474398750001,45.0,74.0
390,77.67510075000001,77.81617203750001,55.0,68.0
391,77.67510075000001,77.95367190000002,60.0,73.0
392,77.88938625000002,78.14831456250002,55.0,73.0
393,78.10367175000002,78.19831451250002,60.0,72.0
394,77.67510075000001,78.43045713750001,48.0,74.0
395,78.31795725,78.54652845000001,60.0,76.0
396,78.31795725,78.63045693750001,55.0,74.0
397,78.31795725,78.67152832500001,64.0,78.0
398,78.74652825000001,78.82509960000002,55.0,66.0
399,78.74652825000001,79.0393851,60.0,73.0
400,78.96081375000001,79.0447422375,55.0,68.0
401,79.38938475,79.62152737500001,59.0,65.0
402,79.38938475,79.72152727500001,64.0,69.0
403,79.81795575000001,79.89116996250002,59.0,56.0
404,80.03224125000001,80.150098275,59.0,74.0
405,80.03224125000001,80.1554554125,67.0,73.0
406,80.46081225,80.57331213750001,59.0,67.0
407,80.46081225,80.57866927500001,64.0,69.0
408,79.60367025000002,80.74831196250001,47.0,62.0
409,79.38938475,80.89116896250002,40.0,74.0
410,80.88938325000001,81.10902588750002,59.0,45.0
411,81.10366875000001,81.53581117500002,64.0,71.0
412,81.53223975000002,81.63759678750002,59.0,63.0
413,81.74652525000002,81.87331083750001,67.0,69.0
414,81.74652525000002,81.88045368750002,59.0,73.0
415,81.31795425000001,82.11973916250001,47.0,63.0
416,81.10366875000001,82.26973901250001,40.0,76.0
417,82.81795275000002,83.08045248750001,52.0,70.0
418,82.81795275000002,83.10366675000002,59.0,68.0
419,83.24652375000002,83.37688076250001,52.0,68.0
420,83.46080925000001,83.56080915000001,52.0,72.0
421,83.46080925000001,83.65545191250001,59.0,74.0
422,83.88938025000002,84.00723727500002,64.0,75.0
423,83.03223825,84.3483083625,47.0,58.0
424,82.81795275000002,84.36795120000002,40.0,76.0
425,84.31795125000002,84.62330808750002,52.0,75.0
426,84.96080775000001,85.05545051250002,52.0,74.0
427,84.74652225000001,85.23759318750001,47.0,62.0
428,85.17509325000002,85.41795015000002,59.0,71.0
429,85.17509325000002,85.44652155000001,52.0,75.0
430,85.38937875000002,85.62687851250001,47.0,69.0
431,84.53223675000001,85.63223565000001,40.0,77.0
432,85.60366425000001,85.73223555000001,52.0,76.0
433,85.60366425000001,85.76259266250001,64.0,77.0
434,86.24652075000002,86.63759178750001,57.0,66.0
435,86.24652075000002,86.71616313750002,61.0,59.0
436,86.67509175,87.00187713750002,52.0,64.0
437,86.88937725000002,87.00187713750002,52.0,40.0
438,86.88937725000002,87.05366280000001,64.0,75.0
439,86.88937725000002,87.06973421250001,57.0,74.0
440,87.31794825000001,87.43223385000002,69.0,73.0
441,87.31794825000001,87.435805275,57.0,74.0
442,86.24652075000002,87.78580492500001,45.0,74.0
443,87.74651925,88.11437602500001,57.0,74.0
444,88.38937575000001,88.48401851250001,57.0,67.0
445,88.17509025000001,88.66616118750002,52.0,67.0
446,88.60366125000002,88.80366105000002,64.0,74.0
447,88.60366125000002,88.857232425,57.0,73.0
448,88.81794675,89.06973221250001,52.0,68.0
449,87.96080475000002,89.10723217500001,45.0,74.0
450,89.03223225000002,89.1125893125,64.0,74.0
451,89.03223225000002,89.14830356250002,57.0,75.0
452,89.67508875000001,89.90723137500001,57.0,67.0
453,89.67508875000001,90.06080265000001,60.0,69.0
454,90.10365975000002,90.20901678750002,57.0,63.0
455,89.88937425000002,90.39294517500002,52.0,68.0
456,90.31794525000001,90.64473063750002,57.0,73.0
457,90.31794525000001,90.66258776250001,60.0,78.0
458,89.67508875000001,90.71258771250001,45.0,75.0
459,90.74651625000001,90.84294472500002,57.0,71.0
460,90.74651625000001,90.97330173750001,60.0,74.0
461,91.38937275,91.50544406250002,55.0,68.0
462,91.38937275,91.63580107500002,60.0,71.0
463,91.60365825000002,91.82330088750001,55.0,73.0
464,91.81794375000001,91.91080080000002,60.0,67.0
465,91.38937275,92.09294347500001,48.0,74.0
466,92.03222925000001,92.29294327500001,60.0,75.0
467,92.03222925000001,92.3108004,64.0,74.0
468,92.03222925000001,92.31972896250002,55.0,73.0
469,92.46080025,92.59294297500001,55.0,74.0
470,92.46080025,92.61972866250002,60.0,74.0
471,93.10365675000001,93.53552585625002,59.0,74.0
472,93.10365675000001,93.57645105000002,63.0,73.0
473,93.53196714375001,93.78107701875001,54.0,47.0
474,93.74548989375002,94.00705526250002,63.0,75.0
475,93.74548989375002,94.01773140000002,59.0,75.0
476,93.74548989375002,94.024848825,66.0,72.0
477,94.17253539375001,94.24015093125001,59.0,67.0
478,93.95901264375001,94.24370964375001,54.0,62.0
479,93.10365675000001,94.37182329375001,47.0,74.0
480,94.17253539375001,94.41274848750001,71.0,74.0
481,94.17253539375001,94.43410076250001,63.0,73.0
482,94.17253539375001,94.44299754375001,66.0,73.0
483,94.59958089375002,94.70634226875,59.0,69.0
484,94.81310364375001,94.93943793750002,63.0,62.0
485,94.81310364375001,94.95901085625002,59.0,71.0
486,94.81310364375001,94.95901085625002,66.0,67.0
487,94.81310364375001,94.96790763750002,47.0,76.0
488,95.02662639375,95.14406390625001,63.0,74.0
489,95.02662639375,95.15829875625002,47.0,77.0
490,95.02662639375,95.1671955375,66.0,73.0
491,95.02662639375,95.17431296250001,59.0,69.0
492,95.66719464375001,95.76150052500002,63.0,66.0
493,95.66719464375001,95.77751473125001,59.0,71.0
494,95.66719464375001,95.78463215625001,66.0,64.0
495,95.66719464375001,95.79530829375001,47.0,77.0
496,95.88071739375002,95.96078842500002,63.0,68.0
497,95.88071739375002,95.97502327500001,59.0,70.0
498,95.88071739375002,95.97502327500001,66.0,66.0
499,95.88071739375002,96.00171361875002,47.0,75.0
500,96.09424014375001,96.20633958750001,47.0,74.0
501,96.09424014375001,96.53729985000001,63.0,70.0
502,96.09424014375001,96.54441727500001,66.0,68.0
503,96.09424014375001,96.54975534375001,59.0,73.0
504,96.52128564375002,96.54975534375001,59.0,73.0
505,96.52128564375002,97.00704990000001,67.0,69.0
506,96.94833114375001,97.09601771250001,59.0,73.0
507,96.73480839375001,97.25793913125001,47.0,66.0
508,97.16185389375,97.43943346875001,64.0,84.0
509,97.16185389375,97.44477153750002,59.0,75.0
510,96.52128564375002,97.63694201250001,40.0,75.0
511,97.37537664375002,97.64939750625001,47.0,74.0
512,97.58889939375001,97.71701304375001,59.0,76.0
513,97.58889939375001,97.83800926875001,67.0,74.0
514,97.80242214375001,98.00526875625002,64.0,65.0
515,98.01594489375002,98.13160305000001,59.0,65.0
516,98.22946764375001,98.46968073750001,55.0,73.0
517,98.22946764375001,98.56042790625001,59.0,74.0
518,98.65651314375002,98.74548095625002,55.0,72.0
519,98.44299039375001,98.94121014375001,50.0,73.0
520,98.87003589375001,99.12626319375002,62.0,74.0
521,98.87003589375001,99.14405675625001,55.0,75.0
522,99.29708139375002,99.41451890625001,55.0,74.0
523,99.29708139375002,99.52661835,59.0,75.0
524,98.22946764375001,99.56754354375002,43.0,74.0
525,99.51060414375002,99.62804165625002,55.0,74.0
526,99.08355864375001,99.6369384375,50.0,72.0
527,99.93764964375,100.17663001875002,57.0,67.0
528,99.93764964375,100.21234426875002,64.0,74.0
529,100.36591554375002,100.47662971875002,57.0,72.0
530,100.15163004375002,100.67305809375002,52.0,70.0
531,100.58020104375001,100.83912935625001,57.0,75.0
532,100.58020104375001,100.84984363125001,64.0,76.0
533,100.79448654375001,101.06412913125001,52.0,73.0
534,99.93764964375,101.06591484375001,45.0,75.0
535,101.00877204375001,101.11234336875002,57.0,73.0
536,101.00877204375001,101.26948606875001,64.0,77.0
537,101.00877204375001,101.30877174375001,69.0,72.0
538,101.22305754375002,101.31234316875002,57.0,67.0
539,101.65162854375001,101.84091406875001,59.0,72.0
540,101.65162854375001,101.95519966875001,64.0,74.0
541,102.08019954375001,102.18555658125001,59.0,73.0
542,101.86591404375001,102.33377071875002,47.0,71.0
543,102.29448504375002,102.55162764375001,59.0,79.0
544,102.29448504375002,102.59091331875001,67.0,73.0
545,101.65162854375001,102.69805606875002,40.0,76.0
546,102.50877054375002,102.74091316875001,47.0,67.0
547,102.72305604375002,102.80341310625002,59.0,73.0
548,102.72305604375002,102.93377011875002,64.0,76.0
549,102.93734154375001,103.22305554375001,59.0,74.0
550,103.15162704375001,103.22662696875001,64.0,66.0
551,103.36591254375001,103.51234096875001,55.0,74.0
552,103.36591254375001,103.62484085625002,60.0,73.0
553,103.58019804375002,103.82126923125001,55.0,73.0
554,103.79448354375002,103.89091201875002,60.0,67.0
555,103.36591254375001,104.11055465625002,48.0,75.0
556,104.00876904375001,104.24448309375002,60.0,77.0
557,104.00876904375001,104.31591159375002,55.0,75.0
558,104.00876904375001,104.32305444375001,64.0,78.0
559,104.22305454375001,104.44091146875002,48.0,72.0
560,104.43734004375001,104.72126833125002,60.0,77.0
561,104.65162554375001,104.92841098125001,55.0,69.0
562,105.50876754375001,105.61591029375002,55.0,75.0
563,105.29448204375001,105.79626725625002,50.0,74.0
564,105.72305304375001,105.96769565625002,62.0,74.0
565,105.72305304375001,105.99983848125001,55.0,77.0
566,105.08019654375002,106.19448114375001,43.0,74.0
567,105.93733854375002,106.25876679375001,50.0,74.0
568,106.15162404375002,106.26948106875001,55.0,74.0
569,106.15162404375002,106.29448104375001,59.0,77.0
570,106.79448054375001,106.96769465625002,59.0,75.0
571,106.79448054375001,107.09805166875002,63.0,75.0
572,107.22305154375002,107.32483715625001,59.0,79.0
573,106.79448054375001,107.65697968125002,47.0,78.0
574,107.43733704375002,107.66947966875001,63.0,65.0
575,107.43733704375002,107.68019394375001,59.0,76.0
576,107.43733704375002,107.70340820625002,66.0,69.0
577,107.65162254375001,107.95519366875001,51.0,67.0
578,107.86590804375001,108.06590784375001,59.0,74.0
579,107.86590804375001,108.06590784375001,66.0,67.0
580,107.86590804375001,108.06947926875002,63.0,69.0
581,107.86590804375001,108.09805066875002,71.0,73.0
582,108.08019354375001,108.31590759375001,54.0,64.0
583,108.29447904375002,108.40697893125001,59.0,75.0
584,108.50876454375002,108.77304999375002,59.0,73.0
585,108.50876454375002,108.80697853125001,63.0,70.0
586,108.93733554375001,109.01233546875001,59.0,73.0
587,108.72305004375002,109.21769240625001,54.0,69.0
588,109.15162104375001,109.38733509375001,66.0,75.0
589,109.15162104375001,109.41590649375001,59.0,79.0
590,109.36590654375001,109.55519206875002,54.0,70.0
591,108.50876454375002,109.58733489375001,47.0,80.0
592,109.58019204375002,109.68733479375001,59.0,76.0
593,109.58019204375002,109.78733469375001,63.0,84.0
594,109.79447754375002,110.13554863125002,59.0,74.0
595,110.22304854375001,110.42661976875002,59.0,75.0
596,110.22304854375001,110.52483395625002,64.0,75.0
597,110.65161954375002,110.75697658125002,59.0,75.0
598,110.43733404375001,110.89447644375002,47.0,73.0
599,110.86590504375002,111.06411913125001,59.0,80.0
600,110.86590504375002,111.17840473125001,67.0,68.0
601,110.22304854375001,111.30161889375002,40.0,77.0
602,111.08019054375002,111.34269028125001,47.0,69.0
603,111.29447604375001,111.38019024375001,59.0,73.0
604,111.29447604375001,111.47304729375001,64.0,77.0
605,111.50876154375001,111.64983283125001,59.0,76.0
606,111.93733254375002,112.18018944375001,55.0,68.0
607,111.93733254375002,112.35697498125002,62.0,67.0
608,112.36590354375002,112.46768915625002,55.0,68.0
609,112.15161804375002,112.65697468125002,50.0,71.0
610,112.58018904375001,112.83197450625002,55.0,75.0
611,112.58018904375001,112.83911735625001,59.0,82.0
612,112.79447454375001,113.09625995625001,50.0,73.0
613,113.00876004375002,113.18375986875002,55.0,75.0
614,113.00876004375002,113.25875979375002,62.0,75.0
615,111.93733254375002,113.29268833125002,43.0,74.0
616,113.22304554375002,113.55340235625002,50.0,74.0
617,113.65161654375001,113.89090201875001,57.0,66.0
618,113.65161654375001,113.91590199375001,64.0,73.0
619,114.08018754375001,114.16054460625001,57.0,70.0
620,113.86590204375001,114.36947296875002,52.0,68.0
621,114.29447304375002,114.58375846875002,64.0,76.0
622,114.29447304375002,114.59090131875001,57.0,76.0
623,113.65161654375001,114.80161539375001,45.0,77.0
624,114.50875854375002,114.84268678125001,52.0,73.0
625,114.72304404375001,114.90161529375001,57.0,76.0
626,114.72304404375001,114.99447234375002,64.0,77.0
627,114.93732954375001,115.09268653125001,45.0,67.0
628,115.15161504375001,115.35875769375002,57.0,73.0
629,115.79447154375002,115.92661426875001,59.0,74.0
630,115.58018604375002,116.11054265625002,47.0,73.0
631,116.00875704375002,116.23911395625001,59.0,71.0
632,116.00875704375002,116.27661391875002,64.0,79.0
633,116.22304254375001,116.49447084375001,47.0,75.0
634,116.43732804375001,116.58018504375002,59.0,76.0
635,115.36590054375002,116.75697058125002,40.0,79.0
636,116.65161354375002,116.83554193125002,47.0,74.0
637,116.43732804375001,117.06054170625002,67.0,73.0
638,116.86589904375002,117.12304164375001,59.0,75.0
639,117.08018454375002,117.18554158125002,36.0,73.0
640,117.08018454375002,117.25518436875001,55.0,70.0
641,117.08018454375002,117.49625555625002,64.0,74.0
642,117.29447004375001,117.56946976875001,55.0,73.0
643,117.50875554375001,117.64625540625002,60.0,74.0
644,117.72304104375002,117.89982658125001,64.0,84.0
645,117.93732654375002,118.25696908125002,48.0,77.0
646,118.15161204375002,118.37482610625001,55.0,73.0
647,118.36589754375001,118.53018309375001,60.0,82.0
648,118.58018304375001,118.66054010625001,64.0,67.0
649,118.79446854375001,119.08196825625001,59.0,73.0
650,119.22303954375002,119.34089656875001,59.0,77.0
651,119.00875404375002,119.43375361875002,54.0,56.0
652,119.43732504375001,119.72303904375002,66.0,75.0
653,119.43732504375001,119.72482475625002,59.0,77.0
654,119.65161054375002,119.86768175625002,54.0,75.0
655,118.79446854375001,119.87661031875001,47.0,75.0
656,119.86589604375001,119.97303879375002,59.0,72.0
657,119.86589604375001,120.07839583125002,62.0,69.0
658,120.08018154375002,120.41053835625002,59.0,71.0
659,120.50875254375002,120.70339520625001,59.0,71.0
660,120.50875254375002,120.83553793125002,64.0,71.0
661,120.93732354375001,121.02303774375002,59.0,66.0
662,120.72303804375002,121.20160899375001,47.0,63.0
663,121.15160904375001,121.28732319375001,67.0,73.0
664,121.15160904375001,121.32482315625002,59.0,77.0
665,121.58018004375002,121.71232276875001,59.0,74.0
666,121.58018004375002,121.76946556875001,64.0,80.0
667,121.36589454375002,121.85160834375002,47.0,74.0
668,120.50875254375002,122.01589389375002,40.0,76.0
669,122.00875104375001,122.10875094375001,59.0,73.0
670,122.22303654375001,123.72482075625001,64.0,76.0
671,122.22303654375001,123.73374931875001,59.0,75.0
672,122.22303654375001,123.74267788125002,40.0,80.0
673,123.93732054375002,124.38196295625002,52.0,73.0
674,123.93732054375002,124.48910570625002,59.0,70.0
675,124.58017704375001,124.66053410625001,52.0,73.0
676,124.36589154375002,124.82660536875002,47.0,50.0
677,124.79446254375002,124.95339095625002,52.0,77.0
678,124.79446254375002,124.97303379375002,64.0,74.0
679,125.00874804375002,125.38017624375001,47.0,64.0
680,125.22303354375002,125.40160479375001,52.0,74.0
681,123.93732054375002,125.42124763125001,40.0,76.0
682,125.43731904375002,126.15696118125001,52.0,69.0
683,125.43731904375002,126.18017544375002,59.0,68.0
684,126.29446104375002,126.37481810625002,52.0,76.0
685,126.50874654375002,126.74446059375002,52.0,87.0
686,126.50874654375002,126.78553198125002,59.0,79.0
687,126.72303204375001,126.96946036875002,47.0,65.0
688,125.65160454375001,127.02481745625002,40.0,74.0
689,126.93731754375001,127.10517451875002,52.0,77.0
690,127.36588854375002,127.57838833125001,52.0,74.0
691,127.36588854375002,127.80874524375002,57.0,69.0
692,127.79445954375001,127.86231661875001,52.0,62.0
693,128.00874504375003,128.19981628125,52.0,74.0
694,128.00874504375003,128.24624480625002,61.0,66.0
695,127.36588854375002,128.49981598125,45.0,74.0
696,128.43731604375,128.56410163125003,52.0,75.0
697,128.43731604375,128.73017289375002,57.0,73.0
698,128.86588704375,129.05517256875,52.0,73.0
699,129.50874354375003,129.59088631875002,57.0,73.0
700,129.29445804375,129.75695758125002,52.0,61.0
701,129.72302904375002,129.84981463125,64.0,70.0
702,129.72302904375002,129.96945736875003,57.0,74.0
703,129.93731454375,130.30695703125002,52.0,66.0
704,130.15160004375002,130.33731414375,64.0,75.0
705,130.15160004375002,130.34267128125,57.0,73.0
706,129.08017254375002,130.37659981875,45.0,73.0
707,130.79445654375002,131.26588464375,57.0,63.0
708,130.79445654375002,131.27481320625003,60.0,65.0
709,131.22302754375002,131.49802726875,52.0,58.0
710,131.43731304375,131.77659841875,57.0,73.0
711,131.43731304375,131.89981258125002,64.0,73.0
712,131.86588404375001,132.08195525625,60.0,69.0
713,131.65159854375003,132.10159809375003,52.0,64.0
714,130.79445654375002,132.12838378125002,45.0,74.0
715,132.50874054375,132.64981183125002,55.0,68.0
716,132.50874054375,132.78731169375,60.0,73.0
717,132.72302604375002,132.98195435625001,55.0,73.0
718,132.93731154375,133.03195430625001,60.0,72.0
719,132.50874054375,133.26409693125,48.0,74.0
720,133.15159704375003,133.38016824375,60.0,76.0
721,133.15159704375003,133.46409673125,55.0,74.0
722,133.15159704375003,133.50516811875002,64.0,78.0
723,133.58016804375,133.65873939375,55.0,66.0
724,133.58016804375,133.87302489375003,60.0,73.0
725,133.79445354375002,133.87838203125003,55.0,68.0
726,134.22302454375,134.45516716875002,59.0,65.0
727,134.22302454375,134.55516706875002,64.0,69.0
728,134.65159554375003,134.72480975625,59.0,56.0
729,134.86588104375002,134.98373806875003,59.0,74.0
730,134.86588104375002,134.98909520625003,67.0,73.0
731,135.29445204375003,135.40695193125003,59.0,67.0
732,135.29445204375003,135.41230906875,64.0,69.0
733,134.43731004375002,135.58195175625002,47.0,62.0
734,134.22302454375,135.72480875625,40.0,74.0
735,135.72302304375,135.94266568125002,59.0,45.0
736,135.93730854375002,136.36945096875002,64.0,71.0
737,136.36587954375003,136.47123658125003,59.0,63.0
738,136.58016504375001,136.70695063125,67.0,69.0
739,136.58016504375001,136.71409348125002,59.0,73.0
740,136.15159404375,136.95337895625002,47.0,63.0
741,135.93730854375002,137.10337880625002,40.0,76.0
742,137.65159254375,137.91409228125002,52.0,70.0
743,137.65159254375,137.93730654375003,59.0,68.0
744,138.08016354375002,138.21052055625,52.0,68.0
745,138.29444904375003,138.39444894375004,52.0,72.0
746,138.29444904375003,138.48909170625,59.0,74.0
747,138.72302004375,138.84087706875002,64.0,75.0
748,137.86587804375,139.18194815625003,47.0,58.0
749,137.65159254375,139.20159099375002,40.0,76.0
750,139.15159104375002,139.45694788125002,52.0,75.0
751,139.79444754375,139.88909030625,52.0,74.0
752,139.58016204375002,140.07123298125003,47.0,62.0
753,140.00873304375003,140.25158994375002,59.0,71.0
754,140.00873304375003,140.28016134375002,52.0,75.0
755,140.22301854375002,140.46051830625,47.0,69.0
756,139.36587654375,140.46587544375,40.0,77.0
757,140.43730404375003,140.56587534375,52.0,76.0
758,140.43730404375003,140.59623245625002,64.0,77.0
759,141.08016054375003,141.47123158125,57.0,66.0
760,141.08016054375003,141.54980293125,61.0,59.0
761,141.50873154375,141.83551693125003,52.0,64.0
762,141.72301704375002,141.83551693125003,52.0,40.0
763,141.72301704375002,141.88730259375,64.0,75.0
764,141.72301704375002,141.90337400625003,57.0,74.0
765,142.15158804375002,142.26587364375,69.0,73.0
766,142.15158804375002,142.26944506875003,57.0,74.0
767,141.08016054375003,142.61944471875,45.0,74.0
768,142.58015904375003,142.94801581875004,57.0,74.0
769,143.22301554375002,143.31765830625002,57.0,67.0
770,143.00873004375,143.49980098125002,52.0,67.0
771,143.43730104375,143.63730084375,64.0,74.0
772,143.43730104375,143.69087221875003,57.0,73.0
773,143.65158654375003,143.90337200625,52.0,68.0
774,142.79444454375002,143.94087196875,45.0,74.0
775,143.86587204375002,143.94622910625003,64.0,74.0
776,143.86587204375002,143.98194335625,57.0,75.0
777,144.50872854375,144.74087116875,57.0,67.0
778,144.50872854375,144.89399115000003,60.0,69.0
779,144.93669570000003,145.04167771875004,57.0,63.0
780,144.72301404375003,145.22495141250002,52.0,68.0
781,145.15021845000004,145.47584064375002,57.0,73.0
782,145.15021845000004,145.49363420625002,60.0,78.0
783,144.50872854375,145.54345618125004,45.0,75.0
784,145.57726395000003,145.67334918750004,57.0,71.0
785,145.57726395000003,145.80324219375004,60.0,74.0
786,146.21783220000003,146.33349035625002,55.0,68.0
787,146.21783220000003,146.46338336250002,60.0,71.0
788,146.43135495000004,146.65021576875003,55.0,73.0
789,146.64487770000002,146.73740422500003,60.0,67.0
790,146.21783220000003,146.91889856250003,48.0,74.0
791,146.85840045000003,147.11818646250003,60.0,75.0
792,146.85840045000003,147.13598002500004,64.0,74.0
793,146.85840045000003,147.14487680625004,55.0,73.0
794,147.28544595000002,147.41711831250004,55.0,74.0
795,147.28544595000002,147.44380865625004,60.0,74.0
796,147.92601420000003,148.35661841250004,59.0,74.0
797,147.92601420000003,148.39754360625003,63.0,73.0
798,148.35305970000002,148.60216957500003,54.0,47.0
799,148.56658245000003,148.82814781875004,63.0,75.0
800,148.56658245000003,148.83882395625002,59.0,75.0
801,148.56658245000003,148.84594138125001,66.0,72.0
802,148.99362795000002,149.06124348750004,59.0,67.0
803,148.78010520000004,149.06480220000003,54.0,62.0
804,147.92601420000003,149.19291585000002,47.0,74.0
805,148.99362795000002,149.23384104375003,71.0,74.0
806,148.99362795000002,149.25519331875003,63.0,73.0
807,148.99362795000002,149.26409010000003,66.0,73.0
808,149.42067345000004,149.52743482500003,59.0,69.0
809,149.63419620000002,149.76053049375003,63.0,62.0
810,149.63419620000002,149.78010341250004,59.0,71.0
811,149.63419620000002,149.78010341250004,66.0,67.0
812,149.63419620000002,149.78900019375004,47.0,76.0
813,149.84771895000003,149.96515646250003,63.0,74.0
814,149.84771895000003,149.97939131250004,47.0,77.0
815,149.84771895000003,149.98828809375001,66.0,73.0
816,149.84771895000003,149.99540551875003,59.0,69.0
817,150.48828720000003,150.58259308125002,63.0,66.0
818,150.48828720000003,150.59860728750002,59.0,71.0
819,150.48828720000003,150.60572471250003,66.0,64.0
820,150.48828720000003,150.61640085000002,47.0,77.0
821,150.70180995000004,150.78188098125003,63.0,68.0
822,150.70180995000004,150.79611583125003,59.0,70.0
823,150.70180995000004,150.79611583125003,66.0,66.0
824,150.70180995000004,150.82280617500004,47.0,75.0
825,150.91533270000002,151.02743214375002,47.0,74.0
826,150.91533270000002,151.35839240625003,63.0,70.0
827,150.91533270000002,151.36550983125002,66.0,68.0
828,150.91533270000002,151.37084790000003,59.0,73.0
829,151.34237820000004,151.37084790000003,59.0,73.0
830,151.34237820000004,151.82954718750003,67.0,69.0
831,151.77061867500004,151.91883281250003,59.0,73.0
832,151.55633317500002,152.08133265000004,47.0,66.0
833,151.98490417500003,152.26347532500003,64.0,84.0
834,151.98490417500003,152.26883246250003,59.0,75.0
835,151.34237820000004,152.46168941250002,40.0,75.0
836,152.199189675,152.47418940000003,47.0,74.0
837,152.41347517500003,152.54204647500003,59.0,76.0
838,152.41347517500003,152.66347492500003,67.0,74.0
839,152.62776067500002,152.83133190000004,64.0,65.0
840,152.84204617500004,152.95811748750003,59.0,65.0
841,153.05633167500002,153.29740286250004,55.0,73.0
842,153.05633167500002,153.38847420000002,59.0,74.0
843,153.48490267500003,153.57418830000003,55.0,72.0
844,153.270617175,153.770616675,50.0,73.0
845,153.69918817500002,153.95633077500003,62.0,74.0
846,153.69918817500002,153.97418790000003,55.0,75.0
847,154.12775917500002,154.24561620000003,55.0,74.0
848,154.12775917500002,154.35811608750004,59.0,75.0
849,153.05633167500002,154.39918747500002,43.0,74.0
850,154.342044675,154.45990170000002,55.0,74.0
851,153.91347367500003,154.46883026250003,50.0,72.0
852,154.77061567500002,155.00990115000002,57.0,67.0
853,154.77061567500002,155.04561540000003,64.0,74.0
854,155.19918667500002,155.30990085000002,57.0,72.0
855,154.98490117500003,155.50632922500003,52.0,70.0
856,155.41347217500004,155.67240048750003,57.0,75.0
857,155.41347217500004,155.68311476250003,64.0,76.0
858,155.62775767500003,155.8974002625,52.0,73.0
859,154.77061567500002,155.89918597500002,45.0,75.0
860,155.84204317500001,155.94561450000003,57.0,73.0
861,155.84204317500001,156.1027572,64.0,77.0
862,155.84204317500001,156.14204287500002,69.0,72.0
863,156.05632867500003,156.14561430000003,57.0,67.0
864,156.48489967500004,156.6741852,59.0,72.0
865,156.48489967500004,156.78847080000003,64.0,74.0
866,156.913470675,157.0188277125,59.0,73.0
867,156.69918517500003,157.16704185000003,47.0,71.0
868,157.12775617500003,157.384898775,59.0,79.0
869,157.12775617500003,157.42418445,67.0,73.0
870,156.48489967500004,157.53132720000002,40.0,76.0
871,157.34204167500002,157.5741843,47.0,67.0
872,157.55632717500004,157.63668423750002,59.0,73.0
873,157.55632717500004,157.76704125000003,64.0,76.0
874,157.77061267500002,158.05632667500004,59.0,74.0
875,157.984898175,158.05989810000003,64.0,66.0
876,158.19918367500003,158.34561210000004,55.0,74.0
877,158.19918367500003,158.45811198750002,60.0,73.0
878,158.41346917500002,158.65454036250003,55.0,73.0
879,158.62775467500003,158.72418315000002,60.0,67.0
880,158.19918367500003,158.94382578750003,48.0,75.0
881,158.84204017500002,159.07775422500004,60.0,77.0
882,158.84204017500002,159.14918272500003,55.0,75.0
883,158.84204017500002,159.15632557500004,64.0,78.0
884,159.05632567500004,159.27418260000002,48.0,72.0
885,159.27061117500003,159.55453946250003,60.0,77.0
886,159.48489667500002,159.7616821125,55.0,69.0
887,160.34203867500003,160.44918142500003,55.0,75.0
888,160.12775317500004,160.62953838750002,50.0,74.0
889,160.55632417500001,160.80096678750002,62.0,74.0
890,160.55632417500001,160.83310961250004,55.0,77.0
891,159.91346767500002,161.027752275,43.0,74.0
892,160.77060967500003,161.09203792500003,50.0,74.0
893,160.98489517500002,161.10275220000003,55.0,74.0
894,160.98489517500002,161.127752175,59.0,77.0
895,161.627751675,161.80096578750002,59.0,75.0
896,161.627751675,161.93132280000003,63.0,75.0
897,162.05632267500002,162.15810828750003,59.0,79.0
898,161.627751675,162.49025081250002,47.0,78.0
899,162.27060817500004,162.50275080000003,63.0,65.0
900,162.27060817500004,162.51346507500003,59.0,76.0
901,162.27060817500004,162.53667933750003,66.0,69.0
902,162.48489367500002,162.7884648,51.0,67.0
903,162.69917917500004,162.899178975,59.0,74.0
904,162.69917917500004,162.899178975,66.0,67.0
905,162.69917917500004,162.90275040000003,63.0,69.0
906,162.69917917500004,162.93132180000003,71.0,73.0
907,162.91346467500003,163.149178725,54.0,64.0
908,163.12775017500002,163.24025006250002,59.0,75.0
909,163.34203567500003,163.60632112500002,59.0,73.0
910,163.34203567500003,163.64024966250003,63.0,70.0
911,163.77060667500004,163.84560660000002,59.0,73.0
912,163.55632117500002,164.05096353750002,54.0,69.0
913,163.98489217500003,164.22060622500004,66.0,75.0
914,163.98489217500003,164.24917762500002,59.0,79.0
915,164.19917767500002,164.38846320000002,54.0,70.0
916,163.34203567500003,164.42060602500004,47.0,80.0
917,164.41346317500003,164.52060592500004,59.0,76.0
918,164.41346317500003,164.620605825,63.0,84.0
919,164.62774867500002,164.96881976250003,59.0,74.0
920,165.05631967500003,165.25989090000002,59.0,75.0
921,165.05631967500003,165.35810508750004,64.0,75.0
922,165.48489067500003,165.59024771250003,59.0,75.0
923,165.27060517500001,165.72774757500002,47.0,73.0
924,165.69917617500002,165.89739026250004,59.0,80.0
925,165.69917617500002,166.01167586250003,67.0,68.0
926,165.05631967500003,166.13489002500003,40.0,77.0
927,165.91346167500004,166.17596141250002,47.0,69.0
928,166.12774717500002,166.21346137500004,59.0,73.0
929,166.12774717500002,166.30631842500003,64.0,77.0
930,166.342032675,166.48310396250002,59.0,76.0
931,166.77060367500002,167.01346057500004,55.0,68.0
932,166.77060367500002,167.19024611250003,62.0,67.0
933,167.19917467500002,167.30096028750003,55.0,68.0
934,166.98488917500003,167.49024581250004,50.0,71.0
935,167.413460175,167.66524563750002,55.0,75.0
936,167.413460175,167.67238848750003,59.0,82.0
937,167.62774567500003,167.92953108750004,50.0,73.0
938,167.84203117500002,168.01703100000003,55.0,75.0
939,167.84203117500002,168.09203092500002,62.0,75.0
940,166.77060367500002,168.12595946250002,43.0,74.0
941,168.05631667500003,168.38667348750002,50.0,74.0
942,168.48488767500004,168.72417315,57.0,66.0
943,168.48488767500004,168.74917312500003,64.0,73.0
944,168.91345867500002,168.99381573750003,57.0,70.0
945,168.69917317500003,169.20274410000002,52.0,68.0
946,169.12774417500003,169.41702960000003,64.0,76.0
947,169.12774417500003,169.42417245000001,57.0,76.0
948,168.48488767500004,169.634886525,45.0,77.0
949,169.34202967500002,169.67595791250002,52.0,73.0
950,169.55631517500004,169.734886425,57.0,76.0
951,169.55631517500004,169.82774347500003,64.0,77.0
952,169.77060067500003,169.92595766250002,45.0,67.0
953,169.98488617500004,170.19202882500002,57.0,73.0
954,170.62774267500004,170.75988540000003,59.0,74.0
955,170.41345717500002,170.94381378750003,47.0,73.0
956,170.84202817500002,171.07238508750004,59.0,71.0
957,170.84202817500002,171.10988505000003,64.0,79.0
958,171.056313675,171.32774197500004,47.0,75.0
959,171.27059917500003,171.41345617500002,59.0,76.0
960,170.19917167500003,171.59024171250002,40.0,79.0
961,171.48488467500002,171.66881306250002,47.0,74.0
962,171.27059917500003,171.89381283750004,67.0,73.0
963,171.69917017500003,171.95631277500001,59.0,75.0
964,171.91345567500002,172.01881271250002,36.0,73.0
965,171.91345567500002,172.08845550000004,55.0,70.0
966,171.91345567500002,172.32952668750002,64.0,74.0
967,172.12774117500004,172.40274090000003,55.0,73.0
968,172.34202667500003,172.47952653750002,60.0,74.0
969,172.55631217500002,172.7330977125,64.0,84.0
970,172.77059767500003,173.09024021250002,48.0,77.0
971,172.98488317500002,173.20809723750003,55.0,73.0
972,173.19916867500004,173.36345422500003,60.0,82.0
973,173.41345417500003,173.49381123750004,64.0,67.0
974,173.62773967500002,173.91523938750004,59.0,73.0
975,174.05631067500002,174.17416770000003,59.0,77.0
976,173.84202517500003,174.26702475000002,54.0,56.0
977,174.27059617500004,174.55631017500002,66.0,75.0
978,174.27059617500004,174.55809588750003,59.0,77.0
979,174.48488167500003,174.70095288750002,54.0,75.0
980,173.62773967500002,174.70988145,47.0,75.0
981,174.699167175,174.80630992500002,59.0,72.0
982,174.699167175,174.91166696250002,62.0,69.0
983,174.91345267500003,175.24380948750002,59.0,71.0
984,175.34202367500004,175.53666633750004,59.0,71.0
985,175.34202367500004,175.66880906250003,64.0,71.0
986,175.77059467500004,175.85630887500002,59.0,66.0
987,175.55630917500002,176.03488012500003,47.0,63.0
988,175.98488017500003,176.120594325,67.0,73.0
989,175.98488017500003,176.15809428750003,59.0,77.0
990,176.41345117500003,176.54559390000003,59.0,74.0
991,176.41345117500003,176.60273670000004,64.0,80.0
992,176.19916567500002,176.68487947500003,47.0,74.0
993,175.34202367500004,176.84916502500002,40.0,76.0
994,176.84202217500004,176.94202207500004,59.0,73.0
995,177.05630767500003,177.50515674375004,59.0,75.0
996,177.05630767500003,177.52472966250002,64.0,75.0
997,177.69732721875002,177.7916331,59.0,68.0
998,177.48380446875004,177.99092100000001,47.0,66.0
999,177.91084996875003,178.15995984375002,59.0,75.0
1000,177.05630767500003,178.19732632500003,40.0,79.0
1001,177.91084996875003,178.22223731250003,64.0,80.0
1002,178.12437271875,178.27027993125003,47.0,76.0
1003,177.91084996875003,178.28807349375003,67.0,74.0
1004,178.33789546875002,178.4749059,59.0,80.0
1005,178.76494096875,179.03006505000002,57.0,70.0
1006,178.76494096875,179.03184440625003,62.0,72.0
1007,179.19198646875003,179.40550921875,57.0,62.0
1008,178.76494096875,179.41974406875002,38.0,80.0
1009,179.19198646875003,179.43219956250002,62.0,66.0
1010,179.61903196875002,179.83255471875003,57.0,74.0
1011,179.61903196875002,179.86458313125001,62.0,74.0
1012,179.61903196875002,179.91440510625003,66.0,68.0
1013,180.04607746875,180.16707369375,57.0,75.0
1014,179.61903196875002,180.19732275,45.0,69.0
1015,180.04607746875,180.31298090625003,62.0,75.0
1016,180.25960021875002,180.40728678750003,57.0,72.0
1017,180.47312296875003,180.77561353125003,57.0,71.0
1018,180.47312296875003,180.78273095625002,62.0,73.0
1019,180.90016846875002,181.02828211875,57.0,69.0
1020,180.90016846875002,181.08344216250003,62.0,73.0
1021,180.47312296875003,181.17774804375003,38.0,74.0
1022,181.32721396875002,181.54785414375002,57.0,68.0
1023,181.32721396875002,181.57276513125004,62.0,73.0
1024,181.32721396875002,181.61724903750002,66.0,70.0
1025,181.32721396875002,181.80586080000003,38.0,78.0
1026,181.75425946875004,181.83966856875003,57.0,75.0
1027,181.75425946875004,182.00514870000003,62.0,75.0
1028,181.75425946875004,182.01938355000001,66.0,73.0
1029,181.96778221875002,182.06920552500003,57.0,69.0
1030,182.18130496875003,182.48023681875003,59.0,73.0
1031,182.18130496875003,182.49803038125003,64.0,73.0
1032,182.60835046875002,182.68842150000003,59.0,70.0
1033,182.60835046875002,182.74536090000004,64.0,73.0
1034,182.82187321875003,182.91617910000002,59.0,65.0
1035,182.18130496875003,182.923296525,40.0,77.0
1036,183.03539596875,183.24002193750002,59.0,70.0
1037,183.03539596875,183.25069807500003,64.0,74.0
1038,183.03539596875,183.26137421250002,67.0,73.0
1039,183.46244146875003,183.51582215625,59.0,62.0
1040,183.46244146875003,183.58343769375003,64.0,74.0
1041,183.46244146875003,183.606569325,67.0,71.0
1042,183.03539596875,183.80941593750003,40.0,74.0
1043,183.67596421875,183.85034113125002,59.0,68.0
1044,183.88948696875002,184.14215555625003,64.0,73.0
1045,183.88948696875002,184.14927298125002,67.0,72.0
1046,183.88948696875002,184.15105233750003,59.0,71.0
1047,184.31653246875,184.46066032500002,64.0,74.0
1048,184.31653246875,184.46421903750002,67.0,72.0
1049,183.88948696875002,184.61012625000004,40.0,76.0
1050,184.53005521875002,184.63503723750003,59.0,68.0
1051,184.74357796875003,184.85389805625002,59.0,62.0
1052,184.74357796875003,184.90372003125003,40.0,76.0
1053,184.74357796875003,184.9482039375,64.0,78.0
1054,184.74357796875003,184.96065943125004,67.0,73.0
1055,185.17062346875002,185.32008939375004,64.0,77.0
1056,185.17062346875002,185.33432424375002,67.0,72.0
1057,185.59766896875,185.85033755625003,62.0,69.0
1058,185.59766896875,185.85033755625003,66.0,73.0
1059,186.02471446875003,186.15638683125002,66.0,64.0
1060,186.02471446875003,186.26136885000003,62.0,73.0
1061,186.23823721875002,186.32364631875004,57.0,63.0
1062,186.45175996875003,186.51225808125002,57.0,66.0
1063,186.45175996875003,186.73467761250004,62.0,77.0
1064,186.45175996875003,186.74179503750003,66.0,75.0
1065,185.59766896875,186.76136795625,38.0,79.0
1066,186.87880546875002,186.96421456875004,57.0,69.0
1067,186.87880546875002,186.99446362500004,62.0,73.0
1068,186.87880546875002,187.01759525625002,66.0,74.0
1069,187.30585096875004,187.54072599375002,60.0,73.0
1070,187.30585096875004,187.57097505000002,64.0,76.0
1071,187.30585096875004,187.58343054375,67.0,71.0
1072,187.73289646875003,188.01047604375003,64.0,67.0
1073,187.30585096875004,188.01759346875002,48.0,76.0
1074,188.15994196875002,188.41261055625003,60.0,71.0
1075,188.15994196875002,188.45175639375003,67.0,69.0
1076,188.15994196875002,188.46065317500003,64.0,74.0
1077,188.15994196875002,188.54962098750002,55.0,73.0
1078,188.15994196875002,188.56741455000002,48.0,77.0
1079,188.58698746875,188.64392686875001,67.0,64.0
1080,188.58698746875,188.66527914375,64.0,74.0
1081,188.58698746875,188.67239656875003,60.0,72.0
1082,189.01403296875003,189.21510022500001,63.0,67.0
1083,189.01403296875003,189.22221765000003,66.0,67.0
1084,189.01403296875003,189.23467314375003,59.0,69.0
1085,189.44107846875002,189.54783984375,63.0,65.0
1086,189.44107846875002,189.57453018750002,66.0,62.0
1087,189.44107846875002,189.59944117500004,59.0,70.0
1088,189.01403296875003,189.63502830000002,47.0,79.0
1089,189.86812396875,190.03182474375004,59.0,73.0
1090,189.86812396875,190.08698478750003,66.0,71.0
1091,189.86812396875,190.09944028125003,63.0,73.0
1092,189.86812396875,190.13324805000002,71.0,72.0
1093,190.08164671875002,190.34855015625,54.0,63.0
1094,190.29516946875003,190.44285603750004,59.0,74.0
1095,190.50869221875,190.64570265000003,63.0,61.0
1096,190.72221496875002,190.97488355625003,59.0,69.0
1097,190.72221496875002,191.03004360000003,63.0,70.0
1098,190.72221496875002,191.10655591875002,66.0,64.0
1099,191.14926046875001,191.23466956875004,59.0,68.0
1100,190.93573771875003,191.45708910000002,54.0,69.0
1101,191.36278321875002,191.67417056250002,59.0,74.0
1102,191.36278321875002,191.67417056250002,66.0,69.0
1103,191.36278321875002,191.67417056250002,71.0,73.0
1104,191.36278321875002,191.6812879875,63.0,74.0
1105,191.57630596875003,192.0442766625,54.0,74.0
1106,192.00335146875003,192.38769241875002,59.0,78.0
1107,191.78982871875002,192.39303048750003,63.0,73.0
1108,191.78982871875002,192.39480984375,66.0,74.0
1109,190.72221496875002,192.41438276250003,47.0,75.0
1110,192.43039696875002,192.69374169375,59.0,73.0
1111,192.43039696875002,192.91616122500002,67.0,69.0
1112,192.85744246875004,193.0051290375,59.0,73.0
1113,192.64391971875003,193.16705045625002,47.0,66.0
1114,193.07096521875002,193.34854479375002,64.0,84.0
1115,193.07096521875002,193.35388286250003,59.0,75.0
1116,192.43039696875002,193.5460533375,40.0,75.0
1117,193.28448796875003,193.55850883125004,47.0,74.0
1118,193.49801071875004,193.62612436875003,59.0,76.0
1119,193.49801071875004,193.74712059375003,67.0,74.0
1120,193.71153346875002,193.91438008125002,64.0,65.0
1121,193.92505621875003,194.04071437500002,59.0,65.0
1122,194.13857896875004,194.37879206250003,55.0,73.0
1123,194.13857896875004,194.46953923125002,59.0,74.0
1124,194.56562446875003,194.65459228125002,55.0,72.0
1125,194.35210171875002,194.85032146875002,50.0,73.0
1126,194.77914721875,195.03537451875002,62.0,74.0
1127,194.77914721875,195.05316808125002,55.0,75.0
1128,195.20619271875003,195.32363023125004,55.0,74.0
1129,195.20619271875003,195.43572967500003,59.0,75.0
1130,194.13857896875004,195.47665486875002,43.0,74.0
1131,195.41971546875,195.53715298125002,55.0,74.0
1132,194.99266996875002,195.54604976250002,50.0,72.0
1133,195.84676096875003,196.08557608125003,57.0,67.0
1134,195.84676096875003,196.12129033125,64.0,74.0
1135,196.27486160625003,196.38557578125003,57.0,72.0
1136,196.06057610625,196.58200415625,52.0,70.0
1137,196.48914710625002,196.74807541875,57.0,75.0
1138,196.48914710625002,196.75878969375,64.0,76.0
1139,196.70343260625,196.97307519375002,52.0,73.0
1140,195.84676096875003,196.97486090625003,45.0,75.0
1141,196.91771810625002,197.02128943125,57.0,73.0
1142,196.91771810625002,197.17843213125002,64.0,77.0
1143,196.91771810625002,197.21771780625002,69.0,72.0
1144,197.13200360625,197.22128923125,57.0,67.0
1145,197.56057460625001,197.74986013125002,59.0,72.0
1146,197.56057460625001,197.86414573125,64.0,74.0
1147,197.98914560625002,198.09450264375002,59.0,73.0
1148,197.77486010625,198.24271678125,47.0,71.0
1149,198.20343110625,198.46057370625002,59.0,79.0
1150,198.20343110625,198.49985938125002,67.0,73.0
1151,197.56057460625001,198.60700213125003,40.0,76.0
1152,198.41771660625002,198.64985923125002,47.0,67.0
1153,198.63200210625,198.71235916875003,59.0,73.0
1154,198.63200210625,198.84271618125,64.0,76.0
1155,198.84628760625003,199.13200160625001,59.0,74.0
1156,199.06057310625002,199.13557303125,64.0,66.0
1157,199.27485860625,199.42128703125002,55.0,74.0
1158,199.27485860625,199.53378691875002,60.0,73.0
1159,199.48914410625002,199.73021529375,55.0,73.0
1160,199.70342960625,199.79985808125002,60.0,67.0
1161,199.27485860625,200.01950071875,48.0,75.0
1162,199.91771510625003,200.15342915625,60.0,77.0
1163,199.91771510625003,200.22485765625,55.0,75.0
1164,199.91771510625003,200.23200050625002,64.0,78.0
1165,200.13200060625002,200.34985753125002,48.0,72.0
1166,200.34628610625,200.63021439375,60.0,77.0
1167,200.56057160625002,200.83735704375002,55.0,69.0
1168,201.41771360625,201.52485635625,55.0,75.0
1169,201.20342810625002,201.70521331875003,50.0,74.0
1170,201.63199910625002,201.87664171875002,62.0,74.0
1171,201.63199910625002,201.90878454375002,55.0,77.0
1172,200.98914260625003,202.10342720625002,43.0,74.0
1173,201.84628460625,202.16771285625,50.0,74.0
1174,202.06057010625003,202.17842713125,55.0,74.0
1175,202.06057010625003,202.20342710625002,59.0,77.0
1176,202.70342660625002,202.87664071875002,59.0,75.0
1177,202.70342660625002,203.00699773125,63.0,75.0
1178,203.13199760625002,203.23378321875,59.0,79.0
1179,202.70342660625002,203.56592574375003,47.0,78.0
1180,203.34628310625,203.57842573125,63.0,65.0
1181,203.34628310625,203.58914000625,59.0,76.0
1182,203.34628310625,203.61235426875,66.0,69.0
1183,203.56056860625003,203.86413973125002,51.0,67.0
1184,203.77485410625002,203.97485390625002,59.0,74.0
1185,203.77485410625002,203.97485390625002,66.0,67.0
1186,203.77485410625002,203.97842533125,63.0,69.0
1187,203.77485410625002,204.00699673125,71.0,73.0
1188,203.98913960625,204.22485365625002,54.0,64.0
1189,204.20342510625002,204.31592499375003,59.0,75.0
1190,204.41771060625,204.68199605625003,59.0,73.0
1191,204.41771060625,204.71592459375,63.0,70.0
1192,204.84628160625002,204.92128153125003,59.0,73.0
1193,204.63199610625003,205.12663846875003,54.0,69.0
1194,205.06056710625,205.29628115625002,66.0,75.0
1195,205.06056710625,205.32485255625002,59.0,79.0
1196,205.27485260625002,205.46413813125002,54.0,70.0
1197,204.41771060625,205.49628095625002,47.0,80.0
1198,205.48913810625,205.59628085625002,59.0,76.0
1199,205.48913810625,205.69628075625002,63.0,84.0
1200,205.70342360625003,206.04449469375,59.0,74.0
1201,206.13199460625003,206.33556583125002,59.0,75.0
1202,206.13199460625003,206.43378001875,64.0,75.0
1203,206.56056560625,206.66592264375,59.0,75.0
1204,206.34628010625002,206.80342250625003,47.0,73.0
1205,206.77485110625003,206.97306519375002,59.0,80.0
1206,206.77485110625003,207.08735079375,67.0,68.0
1207,206.13199460625003,207.21056495625,40.0,77.0
1208,206.98913660625,207.25163634375002,47.0,69.0
1209,207.20342210625003,207.28913630625001,59.0,73.0
1210,207.20342210625003,207.38199335625,64.0,77.0
1211,207.41770760625002,207.55877889375003,59.0,76.0
1212,207.84627860625002,208.08913550625002,55.0,68.0
1213,207.84627860625002,208.26592104375,62.0,67.0
1214,208.27484960625003,208.37663521875,55.0,68.0
1215,208.06056410625,208.56592074375,50.0,71.0
1216,208.48913510625002,208.74092056875003,55.0,75.0
1217,208.48913510625002,208.74806341875,59.0,82.0
1218,208.70342060625,209.00520601875002,50.0,73.0
1219,208.91770610625002,209.09270593125,55.0,75.0
1220,208.91770610625002,209.16770585625002,62.0,75.0
1221,207.84627860625002,209.20163439375003,43.0,74.0
1222,209.13199160625,209.46234841875003,50.0,74.0
1223,209.56056260625002,209.79984808125002,57.0,66.0
1224,209.56056260625002,209.82484805625,64.0,73.0
1225,209.98913360625002,210.06949066875,57.0,70.0
1226,209.77484810625003,210.27841903125002,52.0,68.0
1227,210.20341910625,210.49270453125,64.0,76.0
1228,210.20341910625,210.49984738125002,57.0,76.0
1229,209.56056260625002,210.71056145625002,45.0,77.0
1230,210.41770460625003,210.75163284375003,52.0,73.0
1231,210.63199010625002,210.81056135625002,57.0,76.0
1232,210.63199010625002,210.90341840625,64.0,77.0
1233,210.84627560625003,211.00163259375003,45.0,67.0
1234,211.06056110625002,211.26770375625003,57.0,73.0
1235,211.70341760625,211.83556033125,59.0,74.0
1236,211.48913210625003,212.01948871875,47.0,73.0
1237,211.91770310625003,212.14806001875002,59.0,71.0
1238,211.91770310625003,212.18555998125,64.0,79.0
1239,212.13198860625002,212.40341690625002,47.0,75.0
1240,212.34627410625,212.48913110625003,59.0,76.0
1241,211.27484660625,212.66591664375002,40.0,79.0
1242,212.56055960625002,212.74448799375003,47.0,74.0
1243,212.34627410625,212.96948776875,67.0,73.0
1244,212.77484510625,213.03198770625002,59.0,75.0
1245,212.98913060625003,213.09448764375003,36.0,73.0
1246,212.98913060625003,213.16413043125002,55.0,70.0
1247,212.98913060625003,213.40520161875003,64.0,74.0
1248,213.20341610625002,213.47841583125,55.0,73.0
1249,213.41770160625003,213.55520146875003,60.0,74.0
1250,213.63198710625002,213.80877264375002,64.0,84.0
1251,213.84627260625,214.16591514375003,48.0,77.0
1252,214.06055810625003,214.28377216875003,55.0,73.0
1253,214.27484360625002,214.43912915625003,60.0,82.0
1254,214.48912910625,214.56948616875002,64.0,67.0
1255,214.70341460625002,214.99091431875001,59.0,73.0
1256,215.13198560625003,215.24984263125003,59.0,77.0
1257,214.91770010625,215.34269968125002,54.0,56.0
1258,215.34627110625001,215.63198510625003,66.0,75.0
1259,215.34627110625001,215.63377081875,59.0,77.0
1260,215.56055660625003,215.77662781875003,54.0,75.0
1261,214.70341460625002,215.78555638125002,47.0,75.0
1262,215.77484210625002,215.88198485625003,59.0,72.0
1263,215.77484210625002,215.98734189375003,62.0,69.0
1264,215.98912760625,216.31948441875002,59.0,71.0
1265,216.41769860625,216.61234126875001,59.0,71.0
1266,216.41769860625,216.74448399375,64.0,71.0
1267,216.84626960625002,216.93198380625003,59.0,66.0
1268,216.63198410625003,217.11055505625,47.0,63.0
1269,217.06055510625004,217.19626925625002,67.0,73.0
1270,217.06055510625004,217.23376921875,59.0,77.0
1271,217.48912610625,217.62126883125,59.0,74.0
1272,217.48912610625,217.67841163125001,64.0,80.0
1273,217.27484060625002,217.76055440625,47.0,74.0
1274,216.41769860625,217.92483995625003,40.0,76.0
1275,217.91769710625002,218.01769700625002,59.0,73.0
1276,218.13198260625,218.39448234375,59.0,74.0
1277,218.13198260625,218.45341085625003,64.0,74.0
1278,218.56055360625,218.78198195625,59.0,75.0
1279,218.34626810625002,219.03733884375004,47.0,73.0
1280,218.98912460625002,219.24626720625002,59.0,79.0
1281,218.98912460625002,219.25519576875,64.0,82.0
1282,219.41769560625002,219.79983808125002,59.0,77.0
1283,218.13198260625,219.82483805625003,40.0,78.0
1284,219.20341010625003,219.82483805625003,47.0,78.0
1285,219.63198110625,219.82483805625003,64.0,73.0
1286,219.84626660625003,220.11055205625001,59.0,73.0
1287,219.84626660625003,220.33376611875002,67.0,69.0
1288,220.27483760625003,220.42305174375002,59.0,73.0
1289,220.06055210625001,220.58555158125003,47.0,66.0
1290,220.48912310625002,220.76769425625002,64.0,84.0
1291,220.48912310625002,220.77305139375002,59.0,75.0
1292,219.84626660625003,220.96590834375002,40.0,75.0
1293,220.70340860625,220.97840833125002,47.0,74.0
1294,220.91769410625002,221.04626540625003,59.0,76.0
1295,220.91769410625002,221.16769385625003,67.0,74.0
1296,221.13197960625,221.33555083125003,64.0,65.0
1297,221.34626510625003,221.46233641875003,59.0,65.0
1298,221.56055060625002,221.80162179375003,55.0,73.0
1299,221.56055060625002,221.89269313125,59.0,74.0
1300,221.98912160625002,222.07840723125003,55.0,72.0
1301,221.77483610625,222.27483560625,50.0,73.0
1302,222.20340710625,222.46054970625002,62.0,74.0
1303,222.20340710625,222.47840683125003,55.0,75.0
1304,222.63197810625002,222.74983513125002,55.0,74.0
1305,222.63197810625002,222.86233501875003,59.0,75.0
1306,221.56055060625002,222.90340640625,43.0,74.0
1307,222.84626360625003,222.96412063125,55.0,74.0
1308,222.41769260625003,222.97304919375003,50.0,72.0
1309,223.27483460625,223.51412008125,57.0,67.0
1310,223.27483460625,223.54983433125003,64.0,74.0
1311,223.70340560625002,223.81411978125,57.0,72.0
1312,223.48912010625003,224.01054815625002,52.0,70.0
1313,223.91769110625003,224.17661941875002,57.0,75.0
1314,223.91769110625003,224.18733369375002,64.0,76.0
1315,224.13197660625002,224.40161919375,52.0,73.0
1316,223.27483460625,224.40340490625002,45.0,75.0
1317,224.34626210625,224.44983343125003,57.0,73.0
1318,224.34626210625,224.60697613125,64.0,77.0
1319,224.34626210625,224.64626180625,69.0,72.0
1320,224.56054760625003,224.64983323125003,57.0,67.0
1321,224.98911860625003,225.17840413125003,59.0,72.0
1322,224.98911860625003,225.29268973125002,64.0,74.0
1323,225.41768960625,225.52304664375004,59.0,73.0
1324,225.20340410625002,225.67126078125003,47.0,71.0
1325,225.63197510625002,225.88911770625003,59.0,79.0
1326,225.63197510625002,225.92840338125,67.0,73.0
1327,224.98911860625003,226.03554613125002,40.0,76.0
1328,225.84626060625,226.07840323125004,47.0,67.0
1329,226.06054610625003,226.14090316875001,59.0,73.0
1330,226.06054610625003,226.27126018125003,64.0,76.0
1331,226.27483160625002,226.56054560625003,59.0,74.0
1332,226.48911710625003,226.56411703125002,64.0,66.0
1333,226.70340260625002,226.84983103125,55.0,74.0
1334,226.70340260625002,226.96233091875,60.0,73.0
1335,226.91768810625,227.15875929375002,55.0,73.0
1336,227.13197360625003,227.22840208125,60.0,67.0
1337,226.70340260625002,227.44804471875003,48.0,75.0
1338,227.34625910625002,227.58197315625003,60.0,77.0
1339,227.34625910625002,227.65340165625003,55.0,75.0
1340,227.34625910625002,227.66054450625,64.0,78.0
1341,227.56054460625,227.77840153125,48.0,72.0
1342,227.77483010625002,228.05875839375003,60.0,77.0
1343,227.98911560625004,228.26590104375003,55.0,69.0
1344,228.84625760625002,228.95340035625003,55.0,75.0
1345,228.63197210625003,229.13375731875,50.0,74.0
1346,229.06054310625,229.30518571875,62.0,74.0
1347,229.06054310625,229.33732854375,55.0,77.0
1348,228.41768660625002,229.53197120625003,43.0,74.0
1349,229.27482860625003,229.59625685625002,50.0,74.0
1350,229.48911410625,229.60697113125002,55.0,74.0
1351,229.48911410625,229.63197110625003,59.0,77.0
1352,230.13197060625004,230.30518471875,59.0,75.0
1353,230.13197060625004,230.43554173125003,63.0,75.0
1354,230.56054160625,230.66232721875002,59.0,79.0
1355,230.13197060625004,230.99446974375002,47.0,78.0
1356,230.77482710625003,231.00696973125002,63.0,65.0
1357,230.77482710625003,231.01768400625002,59.0,76.0
1358,230.77482710625003,231.04089826875003,66.0,69.0
1359,230.98911260625002,231.29268373125,51.0,67.0
1360,231.20339810625,231.40339790625,59.0,74.0
1361,231.20339810625,231.40339790625,66.0,67.0
1362,231.20339810625,231.40696933125002,63.0,69.0
1363,231.20339810625,231.43554073125003,71.0,73.0
1364,231.41768360625002,231.65339765625004,54.0,64.0
1365,231.63196910625,231.74446899375002,59.0,75.0
1366,231.84625460625003,232.11054005625002,59.0,73.0
1367,231.84625460625003,232.14446859375002,63.0,70.0
1368,232.27482560625003,232.34982553125002,59.0,73.0
1369,232.06054010625002,232.55518246875002,54.0,69.0
1370,232.48911110625002,232.72482515625,66.0,75.0
1371,232.48911110625002,232.75339655625004,59.0,79.0
1372,232.70339660625,232.89268213125,54.0,70.0
1373,231.84625460625003,232.92482495625,47.0,80.0
1374,232.91768210625003,233.02482485625,59.0,76.0
1375,232.91768210625003,233.12482475625,63.0,84.0
1376,233.13196760625002,233.47303869375003,59.0,74.0
1377,233.56053860625002,233.76410983125004,59.0,75.0
1378,233.56053860625002,233.86232401875003,64.0,75.0
1379,233.98910960625003,234.09446664375002,59.0,75.0
1380,233.77482410625004,234.23196650625002,47.0,73.0
1381,234.20339510625,234.40160919375,59.0,80.0
1382,234.20339510625,234.51589479375002,67.0,68.0
1383,233.56053860625002,234.63910895625003,40.0,77.0
1384,234.41768060625003,234.68018034375,47.0,69.0
1385,234.63196610625002,234.71768030625003,59.0,73.0
1386,234.63196610625002,234.81053735625002,64.0,77.0
1387,234.84625160625,234.98732289375002,59.0,76.0
1388,235.27482260625,235.51767950625003,55.0,68.0
1389,235.27482260625,235.69446504375003,62.0,67.0
1390,235.70339360625002,235.80517921875003,55.0,68.0
1391,235.48910810625003,235.99446474375003,50.0,71.0
1392,235.91767910625003,236.16946456875002,55.0,75.0
1393,235.91767910625003,236.17660741875002,59.0,82.0
1394,236.13196460625002,236.43375001875003,50.0,73.0
1395,236.34625010625,236.52124993125003,55.0,75.0
1396,236.34625010625,236.59624985625,62.0,75.0
1397,235.27482260625,236.63017839375001,43.0,74.0
1398,236.56053560625003,236.89089241875,50.0,74.0
1399,236.98910660625,237.22839208125004,57.0,66.0
1400,236.98910660625,237.25339205625002,64.0,73.0
1401,237.41767760625004,237.49803466875002,57.0,70.0
1402,237.20339210625002,237.70696303125,52.0,68.0
1403,237.63196310625003,237.92124853125003,64.0,76.0
1404,237.63196310625003,237.92839138125004,57.0,76.0
1405,236.98910660625,238.13910545625004,45.0,77.0
1406,237.84624860625001,238.18017684375002,52.0,73.0
1407,238.06053410625003,238.23910535625004,57.0,76.0
1408,238.06053410625003,238.33196240625003,64.0,77.0
1409,238.27481960625002,238.43017659375002,45.0,67.0
1410,238.48910510625,238.69624775625002,57.0,73.0
1411,239.13196160625003,239.26410433125002,59.0,74.0
1412,238.91767610625,239.44803271875003,47.0,73.0
1413,239.34624710625002,239.57660401875003,59.0,71.0
1414,239.34624710625002,239.61410398125003,64.0,79.0
1415,239.56053260625004,239.83196090625003,47.0,75.0
1416,239.77481810625002,239.91767510625002,59.0,76.0
1417,238.70339060625003,240.09446064375004,40.0,79.0
1418,239.98910360625,240.17303199375002,47.0,74.0
1419,239.77481810625002,240.39803176875003,67.0,73.0
1420,240.20338910625003,240.46053170625004,59.0,75.0
1421,240.41767460625002,240.52303164375002,36.0,73.0
1422,240.41767460625002,240.59267443125003,55.0,70.0
1423,240.41767460625002,240.83374561875002,64.0,74.0
1424,240.63196010625,240.90695983125002,55.0,73.0
1425,240.84624560625002,240.98374546875002,60.0,74.0
1426,241.06053110625004,241.23731664375003,64.0,84.0
1427,241.27481660625003,241.59445914375002,48.0,77.0
1428,241.48910210625002,241.71231616875002,55.0,73.0
1429,241.70338760625003,241.86767315625002,60.0,82.0
1430,241.91767310625002,241.99803016875,64.0,67.0
1431,242.13195860625,242.41945831875003,59.0,73.0
1432,242.56052960625001,242.67838663125002,59.0,77.0
1433,242.34624410625003,242.77124368125,54.0,56.0
1434,242.77481510625003,243.06052910625002,66.0,75.0
1435,242.77481510625003,243.06231481875002,59.0,77.0
1436,242.98910060625002,243.20517181875002,54.0,75.0
1437,242.13195860625,243.21410038125003,47.0,75.0
1438,243.20338610625004,243.31052885625002,59.0,72.0
1439,243.20338610625004,243.41588589375002,62.0,69.0
1440,243.41767160625002,243.74802841875004,59.0,71.0
1441,243.84624260625003,244.04088526875003,59.0,71.0
1442,243.84624260625003,244.17302799375003,64.0,71.0
1443,244.27481360625,244.36052780625002,59.0,66.0
1444,244.06052810625002,244.53909905625002,47.0,63.0
1445,244.48909910625002,244.62481325625004,67.0,73.0
1446,244.48909910625002,244.66231321875003,59.0,77.0
1447,244.91767010625003,245.04981283125002,59.0,74.0
1448,244.91767010625003,245.10695563125003,64.0,80.0
1449,244.70338460625004,245.18909840625003,47.0,74.0
1450,243.84624260625003,245.35338395625,40.0,76.0
1451,245.34624110625003,245.44624100625003,59.0,73.0
1452,245.56052660625002,245.82302634375003,59.0,74.0
1453,245.56052660625002,245.88195485625002,64.0,74.0
1454,245.98909760625003,246.21052595625002,59.0,75.0
1455,245.77481210625,246.46588284375002,47.0,73.0
1456,246.41766860625003,246.67481120625,59.0,79.0
1457,246.41766860625003,246.68373976875003,64.0,82.0
1458,246.84623960625004,247.22838208125003,59.0,77.0
1459,245.56052660625002,247.25338205625002,40.0,78.0
1460,246.63195410625002,247.25338205625002,47.0,78.0
1461,247.06052510625003,247.25338205625002,64.0,73.0
1462,247.27481060625,247.76231011875,64.0,74.0
1463,247.27481060625,247.78016724375001,59.0,73.0
1464,247.70338160625002,248.22480965625002,47.0,62.0
1465,247.27481060625,248.39266663125002,40.0,77.0
1466,248.13195260625002,248.46230941875,59.0,74.0
1467,248.13195260625002,248.49445224375003,64.0,79.0
1468,248.13195260625002,248.53373791875003,67.0,74.0
1469,248.56052360625003,248.89088041875002,47.0,67.0
1470,248.77480910625002,249.18016584375002,59.0,77.0
1471,249.41766560625,249.71587959375003,59.0,69.0
1472,249.63195110625003,249.73730814375003,64.0,71.0
1473,249.20338010625002,249.99266503125003,47.0,63.0
1474,249.84623660625002,250.12659346875003,59.0,73.0
1475,248.98909460625003,250.16945056875002,40.0,74.0
1476,249.84623660625002,250.21945051875002,64.0,78.0
1477,250.06052210625003,250.26052190625003,47.0,71.0
1478,249.84623660625002,250.26766475625,67.0,73.0
1479,250.27480760625002,250.44980743125,40.0,74.0
1480,250.70337860625003,251.14266388125003,57.0,69.0
1481,250.70337860625003,251.16587814375004,61.0,73.0
1482,251.13194960625003,251.65694908125002,52.0,66.0
1483,250.70337860625003,251.76052040625,45.0,75.0
1484,251.56052060625,251.96230591875002,57.0,75.0
1485,251.56052060625,251.97659161875004,64.0,77.0
1486,251.98909160625,252.27837703125002,52.0,62.0
1487,252.20337710625003,252.61409098125003,57.0,73.0
1488,252.20337710625003,252.81051935625004,64.0,75.0
1489,252.84623360625002,253.16051900625,57.0,74.0
1490,253.06051910625,253.20873324375003,64.0,70.0
1491,252.63194810625004,253.35873309375003,52.0,67.0
1492,253.27480460625003,253.54266148125004,57.0,73.0
1493,252.41766260625002,253.58909000625002,45.0,75.0
1494,253.48909010625002,253.65158994375003,52.0,74.0
1495,253.27480460625003,253.67301849375002,69.0,73.0
1496,253.27480460625003,253.71051845625,64.0,75.0
1497,253.70337560625003,253.88373256875002,45.0,74.0
1498,254.13194660625004,254.23730364375,36.0,75.0
1499,254.13194660625004,254.78908880625002,55.0,73.0
1500,254.13194660625004,254.88551728125003,60.0,73.0
1501,254.98908860625002,255.21587409375002,60.0,74.0
1502,254.98908860625002,255.26408833125004,64.0,75.0
1503,255.20337410625,255.31408828125,48.0,69.0
1504,255.41765960625003,255.59444514375002,48.0,43.0
1505,255.41765960625003,255.73730214375001,55.0,69.0
1506,255.63194510625001,256.07123038125,60.0,78.0
1507,256.27480160625004,256.53730134375,60.0,74.0
1508,255.84623060625003,256.55337275625004,48.0,78.0
1509,256.06051610625,256.59444414375,55.0,69.0
1510,256.48908710625005,256.65872979375,67.0,62.0
1511,256.70337260625,256.97480090625004,62.0,68.0
1512,256.70337260625,257.06408653125004,50.0,82.0
1513,256.91765810625003,257.11230076875,57.0,66.0
1514,256.70337260625,257.14087216875004,66.0,77.0
1515,257.13194360625005,257.42480045625,62.0,75.0
1516,257.34622910625,257.49801466875005,66.0,75.0
1517,257.56051460625,257.81765720625003,64.0,73.0
1518,257.56051460625,257.88194285625,67.0,69.0
1519,257.98908560625,258.47837083125,47.0,61.0
1520,258.41765660625003,258.77479910625004,59.0,74.0
1521,258.41765660625003,258.80872764375005,52.0,77.0
1522,257.56051460625,259.07301309375003,40.0,79.0
1523,258.84622760625,259.08194165625,47.0,61.0
1524,259.06051310625,259.37836993125,52.0,75.0
1525,259.06051310625,259.38908420625,59.0,73.0
1526,259.70336960625,259.85515516875,52.0,75.0
1527,259.48908410625,260.00872644375,47.0,66.0
1528,259.91765510625004,260.20694053125004,59.0,78.0
1529,259.91765510625004,260.21229766875,64.0,78.0
1530,259.91765510625004,260.21408338125,52.0,75.0
1531,260.34622610625,260.41765460625004,52.0,68.0
1532,260.13194060625005,260.56229731875004,47.0,73.0
1533,260.34622610625,260.66051150625003,59.0,74.0
1534,259.27479860625004,260.86229701875004,40.0,77.0
1535,260.56051160625003,261.01051115625,52.0,78.0
1536,260.77479710625005,261.01586829375003,59.0,73.0
1537,260.98908260625,261.01586829375003,59.0,73.0
1538,260.98908260625,261.47658211875,64.0,74.0
1539,261.41765360625004,261.93908165625004,47.0,62.0
1540,260.98908260625,262.10693863125005,40.0,77.0
1541,261.84622460625,262.17658141875,59.0,74.0
1542,261.84622460625,262.20872424375,64.0,79.0
1543,261.84622460625,262.24800991875003,67.0,74.0
1544,262.27479560625,262.60515241875004,47.0,67.0
1545,262.48908110625,262.89443784375004,59.0,77.0
1546,263.13193760625,263.43015159375,59.0,69.0
1547,263.34622310625,263.45158014375,64.0,71.0
1548,262.91765210625005,263.70693703125005,47.0,63.0
1549,263.56050860625004,263.84086546875005,59.0,73.0
1550,262.70336660625003,263.88372256875004,40.0,74.0
1551,263.56050860625004,263.93372251875,64.0,78.0
1552,263.77479410625006,263.97479390625006,47.0,71.0
1553,263.56050860625004,263.98193675625004,67.0,73.0
1554,263.98907960625,264.16407943125,40.0,74.0
1555,264.41765060625005,264.85693588125,57.0,69.0
1556,264.41765060625005,264.88015014375003,61.0,73.0
1557,264.84622160625,265.37122108125004,52.0,66.0
1558,264.41765060625005,265.47479240625,45.0,75.0
1559,265.27479260625,265.67657791875,57.0,75.0
1560,265.27479260625,265.69086361875003,64.0,77.0
1561,265.70336360625004,265.99264903125004,52.0,62.0
1562,265.91764910625,266.32836298125005,57.0,73.0
1563,265.91764910625,266.52479135625003,64.0,75.0
1564,266.56050560625005,266.87479100625,57.0,74.0
1565,266.77479110625,266.92300524375,64.0,70.0
1566,266.34622010625003,267.07300509375,52.0,67.0
1567,266.98907660625,267.25693348125003,57.0,73.0
1568,266.13193460625,267.30336200625004,45.0,75.0
1569,267.20336210625004,267.36586194375,52.0,74.0
1570,266.98907660625,267.38729049375,69.0,73.0
1571,266.98907660625,267.42479045625004,64.0,75.0
1572,267.41764760625006,267.59800456875,45.0,74.0
1573,267.84086146875,267.96586134375,60.0,69.0
1574,267.84264718125,267.97478990625,55.0,68.0
1575,267.84443289375,267.98014704375004,64.0,74.0
1576,267.83014719375,267.98550418125,36.0,73.0
1577,268.05514696875,268.16050400625,60.0,73.0
1578,268.04800411875004,268.16586114375,64.0,75.0
1579,268.05514696875,268.16764685625003,55.0,68.0
1580,268.04443269375,268.16943256875004,36.0,70.0
1581,268.25871819375004,268.37121808125005,60.0,73.0
1582,268.25514676875,268.37121808125005,64.0,76.0
1583,268.24978963125,268.38014664375004,36.0,73.0
1584,268.26050390625005,268.38193235625005,55.0,72.0
1585,268.70514631875005,268.83550333125004,55.0,69.0
1586,268.69978918125,268.83550333125004,60.0,73.0
1587,268.68907490625,268.84086046875,36.0,74.0
1588,268.91407468125004,269.01407458125004,60.0,76.0
1589,268.91943181875,269.01586029375005,55.0,74.0
1590,268.92121753125,269.04086026875,36.0,74.0
1591,269.13014589375,269.21050295625,55.0,78.0
1592,269.13193160625,269.22121723125,60.0,80.0
1593,269.11943161875,269.23193150625,36.0,74.0
1594,269.55514546875,270.14085916875,62.0,74.0
1595,269.55693118125004,270.14978773125006,57.0,72.0
1596,270.04621640625004,270.90157269375004,45.0,61.0
1597,269.56228831875,271.00871544375,38.0,79.0
1598,270.67835863125003,271.15335815625,62.0,82.0
1599,270.67121578125,271.15692958125004,57.0,77.0
1600,270.66764435625004,271.15871529375,66.0,78.0
1601,271.33550083125004,271.54085776875,62.0,76.0
1602,271.33371511875004,271.58014344375005,57.0,72.0
1603,272.77657081875003,272.95514206875004,52.0,74.0
1604,272.99085631875005,273.08014194375005,54.0,73.0
1605,273.19442754375,273.45692728125005,55.0,74.0
1606,273.40514161875,273.51407008125,59.0,79.0
1607,273.60871284375,273.90514111875,64.0,78.0
1608,272.51942821875,273.97835533125004,47.0,66.0
1609,272.16585714375003,274.14621230625005,40.0,90.0
1610,273.83549833125005,274.20871224375,55.0,75.0
1611,274.08728379375003,274.28014074375005,64.0,76.0
1612,274.09978378125004,274.32835498125,59.0,75.0
1613,274.38192635625,274.48728339375003,55.0,75.0
1614,274.70692603125,274.86406873125003,66.0,74.0
1615,275.06763995625005,275.17478270625,64.0,68.0
1616,275.05692568125005,275.19085411875005,67.0,69.0
1617,275.43728244375,275.51763950625,67.0,74.0
1618,275.43549673125005,275.53371091875005,64.0,75.0
1619,275.44263958125003,275.58549658125,71.0,74.0
1620,276.18013884375,276.35513866875004,71.0,52.0
1621,276.30871014375003,276.41228146875005,76.0,69.0
1622,274.70514031875,277.49085181875,40.0,73.0
