,start,end,pitch,velocity
0,14.12223035625,14.55519976875,65.0,86.0
1,14.557011356250001,14.989980768750002,69.0,86.0
2,14.99179235625,15.206465475,72.0,74.0
3,15.20918285625,15.423855975,72.0,66.0
4,15.426573356250001,15.85954276875,72.0,66.0
5,15.86135435625,16.07693326875,74.0,84.0
6,16.07874485625,16.3350844875,72.0,71.0
7,16.29613535625,16.51171426875,74.0,65.0
8,16.513525856250002,16.728198975,77.0,64.0
9,16.730916356250003,16.9691401125,77.0,50.0
10,16.94830685625,17.597760975,72.0,62.0
11,17.60047835625,18.032541975,72.0,95.0
12,18.035259356250002,18.467322975000002,72.0,94.0
13,18.47004035625,18.685619268750003,72.0,92.0
14,18.68743085625,18.90300976875,69.0,83.0
15,18.90482135625,19.33779076875,72.0,87.0
16,19.33960235625,19.55699285625,70.0,80.0
17,19.55699285625,19.77257176875,69.0,64.0
18,19.774383356250002,20.01351290625,67.0,63.0
19,19.991773856250003,20.246301900000002,70.0,64.0
20,20.20916435625,21.0723858,67.0,72.0
21,21.07872635625,21.511695768750002,72.0,77.0
22,21.513507356250003,21.946476768750003,72.0,90.0
23,21.94828835625,22.16386726875,69.0,71.0
24,22.16567885625,22.380351975,72.0,66.0
25,22.38306935625,22.81603876875,72.0,77.0
26,22.817850356250002,23.250819768750002,74.0,87.0
27,23.252631356250003,23.68560076875,77.0,85.0
28,23.68741235625,24.55516276875,79.0,90.0
29,24.556974356250002,24.772553268750002,81.0,97.0
30,24.774364856250003,25.42472476875,72.0,85.0
31,25.42653635625,25.64483265,77.0,93.0
32,25.64392685625,25.75081051875,74.0,71.0
33,25.75262210625,26.293380975,72.0,84.0
34,26.296098356250003,26.510771475000002,72.0,90.0
35,26.513488856250003,26.729067768750003,72.0,76.0
36,26.73087935625,26.94645826875,81.0,91.0
37,26.94826985625,28.032504975000002,72.0,90.0
38,28.035222356250003,28.467285975000003,72.0,99.0
39,28.47000335625,28.90297276875,72.0,97.0
40,28.90478435625,29.12036326875,69.0,84.0
41,29.122174856250002,29.33775376875,70.0,86.0
42,29.339565356250002,29.772534768750003,72.0,90.0
43,29.774346356250003,29.989925268750003,74.0,95.0
44,29.99173685625,30.20731576875,72.0,81.0
45,30.20912735625,30.4328584125,74.0,77.0
46,30.42651785625,30.637567800000003,77.0,69.0
47,30.64390835625,30.863110443750003,77.0,85.0
48,30.861298856250002,31.48448495625,72.0,84.0
49,31.51347035625,31.945533975,72.0,80.0
50,31.94825135625,32.381220768750005,72.0,84.0
51,32.38303235625,32.597705475000005,69.0,81.0
52,32.60042285625,32.807849625,70.0,84.0
53,32.81781335625,33.25078276875,72.0,79.0
54,33.25259435625,33.46817326875,70.0,80.0
55,33.46998485625,33.68556376875,69.0,77.0
56,33.68737535625,33.930128081250004,67.0,62.0
57,33.90476585625,34.12034476875,70.0,64.0
58,34.12215635625,34.989906768750004,67.0,62.0
59,34.991718356250004,35.206391475000004,72.0,79.0
60,35.209108856250005,35.423781975000004,72.0,82.0
61,35.426499356250005,35.85946876875,72.0,82.0
62,35.86128035625,36.07685926875,69.0,79.0
63,36.07867085625,36.29424976875,70.0,76.0
64,36.29606135625,36.72903076875,72.0,81.0
65,36.73084235625,37.16381176875,74.0,82.0
66,37.16562335625,37.59859276875,77.0,93.0
67,37.60040435625,38.468154768750004,79.0,97.0
68,38.469966356250005,38.684639475000004,81.0,93.0
69,38.687356856250005,39.33771676875,81.0,95.0
70,39.33952835625,39.554201475,84.0,98.0
71,39.55691885625,40.20727876875,84.0,98.0
72,40.20909035625,40.42466926875,74.0,93.0
73,40.42648085625,40.6212265125,77.0,86.0
74,40.64387135625,40.8549213,77.0,87.0
75,40.86126185625,41.0705002125,77.0,89.0
76,41.078652356250004,41.946402768750005,79.0,108.0
77,41.948214356250006,42.380277975000006,81.0,105.0
78,42.38299535625,42.81596476875,81.0,97.0
79,42.81777635625,43.249839975,77.0,96.0
80,43.25255735625,43.68552676875,77.0,97.0
81,43.68733835625,43.902011475,72.0,98.0
82,43.90472885625,44.336792475,72.0,94.0
83,44.339509856250004,44.554182975,72.0,96.0
84,44.556900356250004,45.424650768750006,72.0,98.0
85,45.42646235625,45.858525975,81.0,98.0
86,45.86124335625,46.29421276875,81.0,97.0
87,46.29602435625,46.51432065,79.0,90.0
88,46.51341485625,46.728087975,77.0,66.0
89,46.73080535625,46.94638426875,77.0,66.0
90,46.94819585625,48.901992975000006,81.0,94.0
91,48.90471035625,49.336773975,81.0,99.0
92,49.33949135625,49.77246076875,81.0,95.0
93,49.77427235625,49.98985126875,79.0,87.0
94,49.99166285625,50.206335975,77.0,64.0
95,50.20905335625,50.64202276875,77.0,77.0
96,50.643834356250004,50.858507475,72.0,95.0
97,50.861224856250004,51.293288475000004,72.0,91.0
98,51.296005856250005,51.510678975000005,72.0,94.0
99,51.513396356250006,52.38114676875,72.0,98.0
100,52.38295835625,52.597631475,79.0,94.0
101,52.60034885625,52.815021975,79.0,90.0
102,52.81773935625,53.039658825000004,79.0,84.0
103,53.03512985625,53.22534654375,77.0,85.0
104,53.25252035625,53.68548976875,74.0,77.0
105,53.68730135625,54.120270768750004,81.0,97.0
106,54.122082356250004,55.85939476875,79.0,99.0
107,55.86120635625,56.293269975,81.0,100.0
108,56.29598735625,56.72895676875,81.0,96.0
109,56.73076835625,56.951782031250005,79.0,87.0
110,56.948158856250004,57.15830300625,77.0,87.0
111,57.165549356250004,57.598518768750004,77.0,90.0
112,57.600330356250005,57.815003475000005,72.0,85.0
113,57.817720856250006,58.250690268750006,72.0,77.0
114,58.25250185625,58.468080768750006,69.0,93.0
115,58.46989235625,59.33764276875,72.0,93.0
116,59.33945435625,59.771517975,81.0,97.0
117,59.77423535625,60.20720476875,81.0,97.0
118,60.209016356250004,60.428218443750005,79.0,93.0
119,60.426406856250004,60.641079975000004,77.0,69.0
120,60.643797356250005,60.859376268750005,77.0,87.0
121,60.861187856250005,62.814984975,81.0,98.0
122,62.81770235625,63.249765975,81.0,101.0
123,63.25248335625,63.685452768750004,81.0,94.0
124,63.687264356250004,63.940886606250004,79.0,87.0
125,63.904654856250005,64.119327975,77.0,67.0
126,64.12204535625,64.55501476875,77.0,79.0
127,64.55682635625,64.771499475,72.0,83.0
128,64.77421685625,65.206280475,72.0,81.0
129,65.20899785625001,65.42367097500001,72.0,91.0
130,65.42638835625,66.285986625,72.0,86.0
131,66.29595035625,66.5070003,77.0,90.0
132,66.51334085625,66.71986183125,79.0,87.0
133,66.73073135625,66.94993344375,79.0,84.0
134,66.94812185625,67.15283124375,77.0,64.0
135,67.16551235625,67.59848176875,74.0,77.0
136,67.60029335625,68.03326276875,76.0,91.0
137,68.03507435625,69.300468225,77.0,97.0
138,83.68719035625,84.1029496875,72.0,86.0
139,84.12197135625,84.55494076875,72.0,86.0
140,84.55675235625,84.771425475,69.0,74.0
141,84.77414285625001,84.98881597500001,70.0,66.0
142,84.99153335625,85.42450276875,72.0,66.0
143,85.42631435625,85.64189326875001,74.0,84.0
144,85.64370485625001,85.90095028125,72.0,71.0
145,85.86109535625,86.07667426875001,74.0,65.0
146,86.07848585625,86.293158975,77.0,64.0
147,86.29587635625,86.53500590625,77.0,50.0
148,86.51326685625,87.162720975,72.0,62.0
149,87.16543835625001,87.597501975,72.0,95.0
150,87.60021935625001,88.032282975,72.0,94.0
151,88.03500035625001,88.25057926875,72.0,92.0
152,88.25239085625,88.46796976875001,69.0,83.0
153,88.46978135625001,88.90275076875001,72.0,87.0
154,88.90456235625001,89.12195285625,70.0,80.0
155,89.12195285625,89.33753176875001,69.0,64.0
156,89.33934335625,89.57847290625,67.0,63.0
157,89.55673385625,89.8112619,70.0,64.0
158,89.77412435625,90.6373458,67.0,72.0
159,90.64368635625,91.07665576875,72.0,77.0
160,91.07846735625,91.51143676875,72.0,90.0
161,91.51324835625,91.72882726875001,69.0,71.0
162,91.73063885625001,91.94531197500001,70.0,66.0
163,91.94802935625,92.38099876875,72.0,77.0
164,92.38281035625,92.81577976875,74.0,87.0
165,92.81759135625,93.25056076875,77.0,85.0
166,93.25237235625,94.12012276875001,79.0,90.0
167,94.12193435625001,94.33751326875,81.0,97.0
168,94.33932485625,94.98968476875001,72.0,85.0
169,94.99149635625001,95.20616947500001,77.0,93.0
170,95.20888685625,95.40453830625,74.0,71.0
171,95.31758210625,95.858340975,72.0,84.0
172,95.86105835625,96.075731475,72.0,90.0
173,96.07844885625,96.29402776875,72.0,76.0
174,96.29583935625,96.51141826875,81.0,91.0
175,96.51322985625,97.59746497500001,72.0,90.0
176,97.60018235625,98.03224597500001,72.0,99.0
177,98.03496335625,98.46793276875,72.0,97.0
178,98.46974435625,98.68532326875001,69.0,84.0
179,98.68713485625001,98.90271376875,70.0,86.0
180,98.90452535625,99.33749476875,72.0,90.0
181,99.33930635625,99.55488526875,74.0,95.0
182,99.55669685625,99.77227576875,72.0,81.0
183,99.77408735625,99.99872420625,74.0,77.0
184,99.99147785625,100.2025278,77.0,69.0
185,100.20886835625001,100.42807044375,77.0,85.0
186,100.42625885625,101.04944495625,72.0,84.0
187,101.07843035625001,101.510493975,72.0,80.0
188,101.51321135625001,101.94618076875001,72.0,84.0
189,101.94799235625001,102.16357126875,69.0,81.0
190,102.16538285625,102.372809625,70.0,84.0
191,102.38277335625,102.81574276875,72.0,79.0
192,102.81755435625,103.03313326875,70.0,80.0
193,103.03494485625001,103.25052376875,69.0,77.0
194,103.25233535625,103.49599387500001,67.0,62.0
195,103.46972585625001,103.68530476875,70.0,64.0
196,103.68711635625,104.55486676875,67.0,62.0
197,104.55667835625,104.771351475,72.0,79.0
198,104.77406885625001,104.98874197500001,72.0,82.0
199,104.99145935625,105.42442876875,72.0,82.0
200,105.42624035625,105.64181926875,69.0,79.0
201,105.64363085625,105.85920976875,70.0,76.0
202,105.86102135625,106.29399076875,72.0,81.0
203,106.29580235625001,106.72877176875001,74.0,82.0
204,106.73058335625001,107.16355276875001,77.0,93.0
205,107.16536435625001,108.03311476875001,79.0,97.0
206,108.03492635625001,108.24959947500001,81.0,93.0
207,108.25231685625,108.90267676875,81.0,95.0
208,108.90448835625,109.119161475,84.0,98.0
209,109.12187885625,109.77223876875,84.0,98.0
210,109.77405035625,109.98962926875001,74.0,93.0
211,109.99144085625001,110.1861865125,77.0,86.0
212,110.20883135625,110.42078709375001,77.0,87.0
213,110.42622185625001,110.63636600625,77.0,89.0
214,110.64361235625,111.49868165625,79.0,108.0
215,111.51317435625,111.94523797500001,81.0,105.0
216,111.94795535625,112.38092476875,81.0,97.0
217,112.38273635625,112.814799975,77.0,96.0
218,112.81751735625001,113.25048676875001,77.0,97.0
219,113.25229835625001,113.46697147500001,72.0,98.0
220,113.46968885625,113.90175247500001,72.0,94.0
221,113.90446985625,114.119142975,72.0,96.0
222,114.12186035625001,114.98961076875001,72.0,98.0
223,114.99142235625001,115.423485975,81.0,98.0
224,115.42620335625,115.85917276875,81.0,97.0
225,115.86098435625,116.07928065,79.0,90.0
226,116.07837485625001,116.29304797500001,77.0,66.0
227,116.29576535625,116.51134426875001,77.0,66.0
228,116.51315585625001,118.46695297500001,81.0,94.0
229,118.46967035625,118.901733975,81.0,99.0
230,118.90445135625001,119.33742076875001,81.0,95.0
231,119.33923235625001,119.55571706250001,79.0,87.0
232,119.55662285625,119.771295975,77.0,64.0
233,119.77401335625001,120.20698276875001,77.0,77.0
234,120.20879435625001,120.42346747500001,72.0,95.0
235,120.42618485625,120.85824847500001,72.0,91.0
236,120.86096585625,121.075638975,72.0,94.0
237,121.07835635625001,121.94610676875,72.0,98.0
238,121.94791835625,122.162591475,79.0,94.0
239,122.16530885625001,122.379981975,79.0,90.0
240,122.38269935625,122.604618825,79.0,84.0
241,122.60008985625001,122.79030654375,77.0,85.0
242,122.81748035625,123.25044976875,74.0,77.0
243,123.25226135625,123.68523076875,81.0,97.0
244,123.68704235625,125.42435476875,79.0,99.0
245,125.42616635625001,125.858229975,81.0,100.0
246,125.86094735625001,126.29391676875001,81.0,96.0
247,126.29572835625001,126.51674203125,79.0,87.0
248,126.51311885625,126.72326300625001,77.0,87.0
249,126.73050935625001,127.16347876875001,77.0,90.0
250,127.16529035625001,127.37996347500001,72.0,85.0
251,127.38268085625,127.81565026875,72.0,77.0
252,127.81746185625,128.03304076875,69.0,93.0
253,128.03485235625,128.90260276875,72.0,93.0
254,128.90441435625002,129.336477975,81.0,97.0
255,129.33919535625,129.77216476875,81.0,97.0
256,129.77397635625002,129.99317844375,79.0,93.0
257,129.99136685625,130.206039975,77.0,69.0
258,130.20875735625,130.42433626875,77.0,87.0
259,130.42614785625,132.379944975,81.0,98.0
260,132.38266235625,132.81472597500002,81.0,101.0
261,132.81744335625,133.25041276875,81.0,94.0
262,133.25222435625,133.50584660625,79.0,87.0
263,133.46961485625002,133.68428797500002,77.0,67.0
264,133.68700535625,134.11997476875,77.0,79.0
265,134.12178635625,134.336459475,72.0,83.0
266,134.33917685625002,134.771240475,72.0,81.0
267,134.77395785625,134.988630975,72.0,91.0
268,134.99134835625,135.85185241875,72.0,86.0
269,135.86091035625,136.07286609375,77.0,90.0
270,136.07830085625,136.28482183125,79.0,87.0
271,136.29569135625002,136.5157992375,79.0,84.0
272,136.51308185625,136.71779124375,77.0,64.0
273,136.73047235625,137.16344176875,74.0,77.0
274,137.16525335625002,137.59822276875002,76.0,91.0
275,137.60003435625,138.86542822500002,77.0,97.0
276,139.33915835625,139.771221975,81.0,105.0
277,139.77393935625,140.20690876875,81.0,97.0
278,140.20872035625,140.640783975,77.0,96.0
279,140.64350135625,141.07647076875,77.0,97.0
280,141.07828235625,141.292955475,72.0,98.0
281,141.29567285625,141.727736475,72.0,94.0
282,141.73045385625,141.945126975,72.0,96.0
283,141.94784435625002,142.81559476875,72.0,98.0
284,142.81740635625002,143.249469975,81.0,98.0
285,143.25218735625,143.68515676875,81.0,97.0
286,143.68696835625002,143.90526465000002,79.0,90.0
287,143.90435885625,144.119031975,77.0,66.0
288,144.12174935625,144.33732826875,77.0,66.0
289,144.33913985625,146.292936975,81.0,94.0
290,146.29565435625,146.72771797500002,81.0,99.0
291,146.73043535625,147.16340476875,81.0,95.0
292,147.16521635625,147.38079526875,79.0,87.0
293,147.38260685625002,147.59727997500002,77.0,64.0
294,147.59999735625001,148.03296676875001,77.0,77.0
295,148.03477835625,148.249451475,72.0,95.0
296,148.25216885625,148.68423247500002,72.0,91.0
297,148.68694985625,148.901622975,72.0,94.0
298,148.90434035625,149.77209076875002,72.0,98.0
299,149.77390235625,149.988575475,79.0,94.0
300,149.99129285625,150.205965975,79.0,90.0
301,150.20868335625002,150.430602825,79.0,84.0
302,150.42607385625,150.61629054375,77.0,85.0
303,150.64346435625,151.07643376875,74.0,77.0
304,151.07824535625,151.51121476875,76.0,97.0
305,151.51302635625,153.25033876875,77.0,99.0
