,start,end,pitch,velocity
0,0.20923835625,0.4257230625,62.0,78.0
1,0.20923835625,0.43749838125,65.0,68.0
2,0.20923835625,0.44836790625,70.0,79.0
3,0.20923835625,0.71104809375,46.0,84.0
4,0.20923835625,0.713765475,58.0,80.0
5,0.86140985625,0.9510834375,58.0,62.0
6,0.86140985625,0.9782572500000001,46.0,83.0
7,0.6440193562500001,1.0615902750000001,70.0,79.0
8,0.6440193562500001,1.1168436937500001,65.0,79.0
9,0.6440193562500001,1.14401750625,62.0,78.0
10,1.0788003562500001,1.293473475,53.0,78.0
11,1.29619085625,1.5652116,70.0,83.0
12,1.29619085625,1.57155215625,62.0,79.0
13,1.29619085625,1.5815158875000002,65.0,82.0
14,1.51358135625,1.6086897,53.0,82.0
15,1.73097185625,1.92843489375,67.0,73.0
16,1.94836235625,2.173905,65.0,78.0
17,1.94836235625,2.1757165875,60.0,61.0
18,1.94836235625,2.20198460625,69.0,77.0
19,1.94836235625,2.4239040750000003,41.0,83.0
20,1.94836235625,2.474628525,53.0,75.0
21,2.60053385625,2.6929248187500003,53.0,58.0
22,2.60053385625,2.7137580750000003,41.0,80.0
23,2.38314335625,2.80886641875,60.0,72.0
24,2.38314335625,2.81883015,65.0,79.0
25,2.38314335625,2.836946025,69.0,73.0
26,2.8179243562500003,3.0579597,48.0,82.0
27,3.2527053562500003,3.329697825,53.0,67.0
28,3.0353148562500003,3.329697825,60.0,82.0
29,3.0353148562500003,3.36502378125,65.0,75.0
30,3.0353148562500003,3.3786106875,69.0,79.0
31,3.2527053562500003,3.4048787062500003,48.0,83.0
32,3.4700958562500004,3.5597694375,67.0,71.0
33,3.68748635625,3.8441886750000003,65.0,79.0
34,3.68748635625,3.8505292312500004,62.0,68.0
35,3.68748635625,3.8641161375000004,70.0,80.0
36,3.68748635625,4.18929609375,55.0,76.0
37,3.68748635625,4.192013475,43.0,86.0
38,4.339657856250001,4.425708262500001,43.0,55.0
39,4.339657856250001,4.43386040625,55.0,54.0
40,4.12226735625,4.50088914375,70.0,81.0
41,4.12226735625,4.54255565625,65.0,81.0
42,4.12226735625,4.553425181250001,62.0,80.0
43,4.55704835625,4.8378444187500005,48.0,84.0
44,4.774438856250001,5.06791603125,60.0,79.0
45,4.774438856250001,5.097807225,64.0,81.0
46,4.774438856250001,5.097807225,72.0,80.0
47,4.99182935625,5.13132159375,48.0,80.0
48,4.774438856250001,5.147625881250001,67.0,79.0
49,5.20921985625,5.30161081875,60.0,62.0
50,5.42661035625,5.562479418750001,69.0,71.0
51,5.42661035625,5.56429100625,65.0,71.0
52,5.42661035625,5.5778779125,60.0,79.0
53,5.42661035625,5.9003404875,53.0,69.0
54,5.42661035625,5.92479691875,41.0,78.0
55,6.07878185625,6.16754964375,53.0,57.0
56,6.07878185625,6.1901944875,41.0,82.0
57,5.86139135625,6.257223225000001,69.0,78.0
58,5.86139135625,6.2735275125,65.0,84.0
59,5.86139135625,6.3061360875000005,60.0,84.0
60,6.2961723562500005,6.5017875375,48.0,79.0
61,6.51356285625,6.634033425,60.0,75.0
62,6.51356285625,6.674794143750001,65.0,82.0
63,6.51356285625,6.8840325,69.0,73.0
64,6.730953356250001,6.99725671875,43.0,78.0
65,6.94834385625,7.22551674375,45.0,72.0
66,7.165734356250001,7.342364137500001,65.0,84.0
67,7.165734356250001,7.342364137500001,70.0,84.0
68,7.165734356250001,7.35051628125,62.0,79.0
69,7.165734356250001,7.662109331250001,46.0,82.0
70,7.81790585625,7.89580411875,46.0,75.0
71,7.600515356250001,7.96283285625,70.0,81.0
72,7.600515356250001,8.02442683125,62.0,80.0
73,7.600515356250001,8.02442683125,65.0,83.0
74,8.03529635625,8.30522289375,46.0,82.0
75,8.25268685625,8.54435244375,62.0,80.0
76,8.25268685625,8.5525045875,70.0,84.0
77,8.25268685625,8.5706204625,65.0,83.0
78,8.47007735625,8.6285912625,46.0,78.0
79,8.68746785625,8.8133731875,67.0,76.0
80,8.904858356250001,8.98094503125,67.0,75.0
81,8.904858356250001,9.01717678125,65.0,71.0
82,8.904858356250001,9.03710424375,60.0,59.0
83,8.904858356250001,9.0452563875,69.0,72.0
84,8.904858356250001,9.39942174375,41.0,80.0
85,9.55702985625,9.675688837500001,41.0,80.0
86,9.33963935625,9.75630448125,69.0,75.0
87,9.33963935625,9.76717400625,65.0,84.0
88,9.33963935625,9.79253623125,60.0,80.0
89,9.774420356250001,10.03347736875,48.0,78.0
90,9.99181085625,10.42840344375,65.0,76.0
91,9.99181085625,10.432026618750001,60.0,69.0
92,9.99181085625,10.466446781250001,69.0,73.0
93,10.20920135625,10.47550471875,41.0,79.0
94,10.643982356250001,11.1358283625,36.0,98.0
95,11.296153856250001,11.38311005625,36.0,83.0
96,11.07876335625,11.4908995125,72.0,78.0
97,11.07876335625,11.50629800625,67.0,72.0
98,11.07876335625,11.51354435625,60.0,79.0
99,11.07876335625,11.52894285,64.0,69.0
100,11.51354435625,11.812456293750001,36.0,94.0
101,11.73093485625,11.969158612500001,64.0,79.0
102,11.73093485625,11.981839725,60.0,82.0
103,11.73093485625,12.018071475000001,67.0,75.0
104,11.73093485625,12.0416221125,72.0,84.0
105,11.94832535625,12.066984337500001,40.0,83.0
106,12.165715856250001,12.224592450000001,60.0,50.0
107,12.38310635625,12.66933718125,60.0,91.0
108,12.38310635625,12.67386615,65.0,86.0
109,12.38310635625,12.67839511875,69.0,84.0
110,12.38310635625,12.691982025000001,41.0,84.0
111,13.035277856250001,13.117705087500001,48.0,84.0
112,13.035277856250001,13.142161518750001,60.0,83.0
113,13.035277856250001,13.1503136625,64.0,91.0
114,13.035277856250001,13.153031043750001,36.0,101.0
115,13.25266835625,13.3894432125,41.0,93.0
116,13.25266835625,13.39216059375,65.0,90.0
117,13.25266835625,13.398501150000001,60.0,84.0
118,13.25266835625,13.42658075625,69.0,81.0
119,14.557011356250001,14.626757475000002,65.0,80.0
120,14.557011356250001,14.64396755625,60.0,83.0
121,14.557011356250001,14.6575544625,69.0,84.0
122,14.12223035625,14.749039631250001,41.0,86.0
123,14.12223035625,14.7843655875,53.0,79.0
124,14.77440185625,14.86498123125,65.0,86.0
125,14.77440185625,14.895778218750001,69.0,84.0
126,14.77440185625,14.8984956,60.0,84.0
127,14.99179235625,15.411174862500001,48.0,79.0
128,15.426573356250001,15.525304875000002,65.0,86.0
129,15.426573356250001,15.5307396375,60.0,90.0
130,15.426573356250001,15.5506671,69.0,84.0
131,16.29613535625,16.36950465,65.0,78.0
132,16.29613535625,16.37946838125,62.0,80.0
133,16.29613535625,16.385808937500002,70.0,79.0
134,15.86135435625,16.4763883125,58.0,82.0
135,15.86135435625,16.489069425,46.0,90.0
136,16.513525856250002,16.6430543625,65.0,81.0
137,16.513525856250002,16.666605,62.0,83.0
138,16.513525856250002,16.671133968750002,70.0,90.0
139,17.16569735625,17.2445014125,60.0,90.0
140,17.16569735625,17.25265355625,64.0,86.0
141,17.16569735625,17.260805700000002,67.0,90.0
142,16.730916356250003,17.264428875,48.0,83.0
143,17.60047835625,18.1358024625,41.0,82.0
144,18.035259356250002,18.141237225,65.0,84.0
145,18.035259356250002,18.14757778125,60.0,82.0
146,18.035259356250002,18.14938936875,69.0,79.0
147,17.60047835625,18.177468975,53.0,71.0
148,18.252649856250002,18.30699748125,53.0,44.0
149,18.252649856250002,18.32511335625,60.0,20.0
150,18.252649856250002,18.351381375000003,69.0,37.0
151,18.252649856250002,18.37764939375,41.0,75.0
152,18.90482135625,19.008081843750002,60.0,84.0
153,18.47004035625,19.00989343125,48.0,84.0
154,18.90482135625,19.0162339875,65.0,86.0
155,18.90482135625,19.05155994375,69.0,81.0
156,19.33960235625,19.8097093125,46.0,79.0
157,19.774383356250002,19.85952796875,62.0,83.0
158,19.774383356250002,19.8604337625,65.0,82.0
159,19.774383356250002,19.882172812500002,70.0,86.0
160,19.991773856250003,20.07510688125,46.0,73.0
161,19.991773856250003,20.077824262500002,65.0,69.0
162,19.991773856250003,20.083259025,62.0,62.0
163,19.991773856250003,20.11677339375,70.0,82.0
164,20.20916435625,20.61314836875,48.0,82.0
165,20.64394535625,20.718220443750003,60.0,83.0
166,20.64394535625,20.724561,64.0,68.0
167,20.64394535625,20.7299957625,67.0,79.0
168,21.513507356250003,21.583253475,65.0,80.0
169,21.513507356250003,21.600463556250002,60.0,83.0
170,21.513507356250003,21.6140504625,69.0,84.0
171,21.07872635625,21.70553563125,41.0,86.0
172,21.07872635625,21.7408615875,53.0,79.0
173,21.73089785625,21.82147723125,65.0,86.0
174,21.73089785625,21.85227421875,69.0,84.0
175,21.73089785625,21.8549916,60.0,84.0
176,21.94828835625,22.367670862500002,48.0,79.0
177,22.38306935625,22.481800875,65.0,86.0
178,22.38306935625,22.4872356375,60.0,90.0
179,22.38306935625,22.5071631,69.0,84.0
180,23.252631356250003,23.32600065,65.0,78.0
181,23.252631356250003,23.33596438125,62.0,80.0
182,23.252631356250003,23.3423049375,70.0,79.0
183,22.817850356250002,23.4328843125,58.0,82.0
184,22.817850356250002,23.445565425,46.0,90.0
185,23.47002185625,23.5995503625,65.0,81.0
186,23.47002185625,23.623101000000002,62.0,83.0
187,23.47002185625,23.62762996875,70.0,90.0
188,24.12219335625,24.2009974125,60.0,90.0
189,24.12219335625,24.20914955625,64.0,86.0
190,24.12219335625,24.2173017,67.0,90.0
191,23.68741235625,24.220924875,48.0,83.0
192,24.556974356250002,24.6973723875,65.0,80.0
193,24.556974356250002,24.7082419125,69.0,79.0
194,24.556974356250002,24.715488262500003,60.0,75.0
195,24.556974356250002,24.98450900625,41.0,84.0
196,24.556974356250002,25.02617551875,53.0,72.0
197,24.99175535625,25.283420943750002,65.0,80.0
198,25.20914585625,25.30153681875,53.0,51.0
199,24.99175535625,25.31150055,60.0,82.0
200,24.99175535625,25.33958015625,69.0,79.0
201,25.20914585625,25.341391743750002,41.0,76.0
202,25.42653635625,25.91566498125,48.0,86.0
203,25.86131735625,26.0343239625,64.0,71.0
204,25.86131735625,26.068744125000002,60.0,80.0
205,25.86131735625,26.139396037500003,67.0,83.0
206,26.078707856250002,26.22363485625,48.0,80.0
207,26.296098356250003,26.43740218125,46.0,78.0
208,26.296098356250003,26.44646011875,70.0,90.0
209,26.296098356250003,26.45008329375,62.0,80.0
210,26.296098356250003,26.45551805625,65.0,81.0
211,26.73087935625,26.846820956250003,36.0,86.0
212,26.73087935625,26.84863254375,60.0,78.0
213,26.73087935625,26.8531615125,64.0,79.0
214,26.73087935625,26.8676542125,67.0,79.0
215,26.73087935625,26.87218318125,48.0,82.0
216,27.16566035625,27.435586893750003,53.0,68.0
217,27.16566035625,27.46094911875,60.0,86.0
218,27.16566035625,27.47181864375,65.0,84.0
219,27.16566035625,27.489028725,69.0,80.0
220,27.16566035625,27.5089561875,41.0,80.0
221,28.47000335625,28.539749475,65.0,80.0
222,28.47000335625,28.55695955625,60.0,83.0
223,28.47000335625,28.5705464625,69.0,84.0
224,28.035222356250003,28.662031631250002,41.0,86.0
225,28.035222356250003,28.6973575875,53.0,79.0
226,28.68739385625,28.77797323125,65.0,86.0
227,28.68739385625,28.808770218750002,69.0,84.0
228,28.68739385625,28.811487600000003,60.0,84.0
229,28.90478435625,29.3241668625,48.0,79.0
230,29.339565356250002,29.438296875000002,65.0,86.0
231,29.339565356250002,29.4437316375,60.0,90.0
232,29.339565356250002,29.4636591,69.0,84.0
233,30.20912735625,30.282496650000002,65.0,78.0
234,30.20912735625,30.292460381250002,62.0,80.0
235,30.20912735625,30.2988009375,70.0,79.0
236,29.774346356250003,30.389380312500002,58.0,82.0
237,29.774346356250003,30.402061425000003,46.0,90.0
238,30.42651785625,30.556046362500002,65.0,81.0
239,30.42651785625,30.579597000000003,62.0,83.0
240,30.42651785625,30.58412596875,70.0,90.0
241,31.078689356250003,31.157493412500003,60.0,90.0
242,31.078689356250003,31.165645556250002,64.0,86.0
243,31.078689356250003,31.1737977,67.0,90.0
244,30.64390835625,31.177420875000003,48.0,83.0
245,31.51347035625,32.0487944625,41.0,82.0
246,31.94825135625,32.054229225,65.0,84.0
247,31.94825135625,32.06056978125,60.0,82.0
248,31.94825135625,32.06238136875,69.0,79.0
249,31.51347035625,32.090460975,53.0,71.0
250,32.165641856250005,32.21998948125,53.0,44.0
251,32.165641856250005,32.23810535625,60.0,20.0
252,32.165641856250005,32.264373375,69.0,37.0
253,32.165641856250005,32.29064139375,41.0,75.0
254,32.81781335625,32.92107384375,60.0,84.0
255,32.38303235625,32.92288543125,48.0,84.0
256,32.81781335625,32.929225987500004,65.0,86.0
257,32.81781335625,32.96455194375,69.0,81.0
258,33.25259435625,33.7227013125,46.0,79.0
259,33.68737535625,33.772519968750004,62.0,83.0
260,33.68737535625,33.773425762500004,65.0,82.0
261,33.68737535625,33.795164812500005,70.0,86.0
262,33.90476585625,33.988098881250004,46.0,73.0
263,33.90476585625,33.990816262500005,65.0,69.0
264,33.90476585625,33.996251025,62.0,62.0
265,33.90476585625,34.029765393750004,70.0,82.0
266,34.12215635625,34.52614036875,48.0,82.0
267,34.55693735625,34.63121244375,60.0,83.0
268,34.55693735625,34.637553000000004,64.0,68.0
269,34.55693735625,34.6429877625,67.0,79.0
270,35.426499356250005,35.496245475,65.0,80.0
271,35.426499356250005,35.51345555625,60.0,83.0
272,35.426499356250005,35.5270424625,69.0,84.0
273,34.991718356250004,35.618527631250004,41.0,86.0
274,34.991718356250004,35.6538535875,53.0,79.0
275,35.64388985625,35.73446923125,65.0,86.0
276,35.64388985625,35.76526621875,69.0,84.0
277,35.64388985625,35.7679836,60.0,84.0
278,35.86128035625,36.2806628625,48.0,79.0
279,36.29606135625,36.394792875,65.0,86.0
280,36.29606135625,36.4002276375,60.0,90.0
281,36.29606135625,36.4201551,69.0,84.0
282,37.16562335625,37.23899265,65.0,78.0
283,37.16562335625,37.248956381250004,62.0,80.0
284,37.16562335625,37.2552969375,70.0,79.0
285,36.73084235625,37.3458763125,58.0,82.0
286,36.73084235625,37.358557425,46.0,90.0
287,37.38301385625,37.5125423625,65.0,81.0
288,37.38301385625,37.536093,62.0,83.0
289,37.38301385625,37.54062196875,70.0,90.0
290,38.035185356250004,38.113989412500004,60.0,90.0
291,38.035185356250004,38.12214155625,64.0,86.0
292,38.035185356250004,38.1302937,67.0,90.0
293,37.60040435625,38.133916875000004,48.0,83.0
294,38.469966356250005,38.6103643875,65.0,80.0
295,38.469966356250005,38.6212339125,69.0,79.0
296,38.469966356250005,38.628480262500005,60.0,75.0
297,38.469966356250005,38.89750100625,41.0,84.0
298,38.469966356250005,38.939167518750004,53.0,72.0
299,39.01344260625,39.14568849375,41.0,76.0
300,38.90474735625,39.196412943750005,65.0,80.0
301,39.12213785625,39.214528818750004,53.0,51.0
302,38.90474735625,39.22449255,60.0,82.0
303,38.90474735625,39.252572156250004,69.0,79.0
304,39.33952835625,39.82865698125,48.0,86.0
305,39.77430935625,39.9473159625,64.0,71.0
306,39.77430935625,39.981736125000005,60.0,80.0
307,39.77430935625,40.0523880375,67.0,83.0
308,39.99169985625,40.136626856250004,48.0,80.0
309,40.20909035625,40.35039418125,46.0,78.0
310,40.20909035625,40.35945211875,70.0,90.0
311,40.20909035625,40.36307529375,62.0,80.0
312,40.20909035625,40.36851005625,65.0,81.0
313,40.64387135625,40.75981295625,36.0,86.0
314,40.64387135625,40.76162454375,60.0,78.0
315,40.64387135625,40.766153512500004,64.0,79.0
316,40.64387135625,40.7806462125,67.0,79.0
317,40.64387135625,40.785175181250004,48.0,82.0
318,41.078652356250004,41.34857889375,67.0,82.0
319,41.078652356250004,41.36307159375,60.0,78.0
320,41.078652356250004,41.36669476875,72.0,79.0
321,41.078652356250004,41.3676005625,64.0,78.0
322,41.078652356250004,41.569592568750004,48.0,77.0
323,41.513433356250005,41.800569975,60.0,80.0
324,41.513433356250005,41.805098943750004,67.0,83.0
325,41.513433356250005,41.81234529375,64.0,79.0
326,41.730823856250005,41.8241206125,48.0,90.0
327,41.078652356250004,41.829555375000005,36.0,90.0
328,41.513433356250005,41.84133069375,72.0,78.0
329,41.948214356250006,42.1175977875,62.0,81.0
330,41.948214356250006,42.1284673125,65.0,82.0
331,41.948214356250006,42.15473533125,70.0,83.0
332,41.948214356250006,42.43190821875,46.0,91.0
333,41.948214356250006,42.4473067125,58.0,84.0
334,42.60038585625,42.690059437500004,58.0,56.0
335,42.60038585625,42.71995063125,46.0,82.0
336,42.38299535625,42.83317485,70.0,84.0
337,42.38299535625,42.8386096125,62.0,78.0
338,42.38299535625,42.84495016875,65.0,79.0
339,42.81777635625,43.027014712500005,53.0,82.0
340,43.25255735625,43.3458541125,53.0,84.0
341,43.03516685625,43.35581784375,62.0,80.0
342,43.03516685625,43.36668736875,65.0,83.0
343,43.03516685625,43.37574530625,70.0,84.0
344,43.46994785625,43.67828041875,67.0,79.0
345,43.68733835625,43.86125075625,60.0,76.0
346,43.68733835625,43.87936663125,65.0,80.0
347,43.68733835625,43.908352031250004,69.0,80.0
348,43.68733835625,44.207263968750006,41.0,86.0
349,43.68733835625,44.242589925000004,53.0,70.0
350,44.339509856250004,44.43008923125,53.0,57.0
351,44.339509856250004,44.467226775,41.0,80.0
352,44.12211935625,44.61305956875,65.0,78.0
353,44.12211935625,44.62755226875,60.0,75.0
354,44.12211935625,44.6284580625,69.0,73.0
355,44.556900356250004,44.7806314125,48.0,84.0
356,44.774290856250005,45.028818900000005,60.0,79.0
357,44.774290856250005,45.067768031250004,65.0,83.0
358,44.774290856250005,45.07863755625,69.0,77.0
359,44.991681356250005,45.15200685,48.0,84.0
360,45.209071856250006,45.28878170625,60.0,59.0
361,45.209071856250006,45.35490465,67.0,77.0
362,45.42646235625,45.61124428125,62.0,71.0
363,45.42646235625,45.63026595,65.0,81.0
364,45.42646235625,45.648381825,70.0,79.0
365,45.53515760625,45.90290986875,46.0,50.0
366,46.07863385625,46.1592495,46.0,73.0
367,45.86124335625,46.33587928125,65.0,75.0
368,45.86124335625,46.342219837500004,62.0,71.0
369,45.86124335625,46.37029944375,70.0,76.0
370,46.29602435625,46.7516386125,36.0,91.0
371,46.73080535625,47.00707245,64.0,68.0
372,46.73080535625,47.0088840375,60.0,77.0
373,46.73080535625,47.12754301875,67.0,76.0
374,47.16558635625,47.26160049375,65.0,83.0
375,47.16558635625,47.27247001875,60.0,82.0
376,47.16558635625,47.305078593750004,69.0,78.0
377,47.16558635625,47.67645403125,41.0,81.0
378,47.16558635625,47.700910462500005,53.0,62.0
379,47.817757856250005,47.90109088125,53.0,61.0
380,47.817757856250005,47.92645310625,41.0,82.0
381,47.600367356250004,48.02427883125,69.0,75.0
382,47.600367356250004,48.02609041875,65.0,79.0
383,47.600367356250004,48.046923675,60.0,82.0
384,48.035148356250005,48.25797361875,53.0,61.0
385,48.035148356250005,48.289676400000005,41.0,82.0
386,48.46992935625,48.706341525,43.0,73.0
387,48.252538856250005,48.738950100000004,65.0,79.0
388,48.68731985625,48.9273552,45.0,73.0
389,48.252538856250005,48.9291667875,69.0,76.0
390,48.252538856250005,48.9509058375,60.0,82.0
391,48.90471035625,49.386592631250004,46.0,84.0
392,49.55688185625,49.642932262500004,46.0,72.0
393,49.33949135625,49.746192750000006,65.0,81.0
394,49.33949135625,49.76883759375,70.0,83.0
395,49.33949135625,49.81775045625,62.0,82.0
396,49.77427235625,50.02789460625,46.0,80.0
397,49.99166285625,50.2842342375,62.0,79.0
398,49.99166285625,50.28876320625,65.0,80.0
399,49.99166285625,50.351262975000004,70.0,82.0
400,50.20905335625,50.46086401875,46.0,76.0
401,50.42644385625,50.584957762500004,67.0,82.0
402,50.643834356250004,50.763399131250004,60.0,80.0
403,50.643834356250004,50.7769860375,65.0,80.0
404,50.643834356250004,50.801442468750004,69.0,81.0
405,50.643834356250004,51.14564409375,53.0,69.0
406,50.643834356250004,51.15198465,41.0,83.0
407,51.296005856250005,51.3784330875,53.0,69.0
408,51.296005856250005,51.390208406250004,41.0,79.0
409,51.078615356250005,51.52245429375,60.0,83.0
410,51.078615356250005,51.531512231250005,69.0,76.0
411,51.078615356250005,51.570461362500005,65.0,82.0
412,51.513396356250006,51.720823125,53.0,72.0
413,51.513396356250006,51.735315825,41.0,84.0
414,51.73078685625,51.966293231250006,60.0,83.0
415,51.73078685625,52.021546650000005,65.0,82.0
416,51.73078685625,52.04600308125,69.0,80.0
417,51.94817735625,52.0921985625,54.0,81.0
418,51.94817735625,52.100350706250005,42.0,98.0
419,52.16556785625,52.25252405625,69.0,49.0
420,52.16556785625,52.2842268375,65.0,41.0
421,52.38295835625,52.53694329375,71.0,83.0
422,52.38295835625,52.56774028125,62.0,82.0
423,52.38295835625,52.58042139375,67.0,82.0
424,52.38295835625,52.8566884875,43.0,91.0
425,52.38295835625,52.898355,55.0,79.0
426,53.03512985625,53.13295558125,55.0,69.0
427,53.03512985625,53.161035187500005,43.0,84.0
428,52.81773935625,53.184585825,71.0,82.0
429,52.81773935625,53.257049325000004,62.0,81.0
430,52.81773935625,53.26338988125,67.0,76.0
431,53.25252035625,53.770634381250005,48.0,93.0
432,53.68730135625,53.85215581875,64.0,82.0
433,53.68730135625,53.91374979375,60.0,83.0
434,53.68730135625,53.95903948125,67.0,83.0
435,54.122082356250004,54.1936400625,48.0,84.0
436,54.122082356250004,54.2371181625,64.0,82.0
437,54.122082356250004,54.25342245,60.0,90.0
438,54.122082356250004,54.25613983125,36.0,103.0
439,54.122082356250004,54.25613983125,67.0,86.0
440,54.556863356250005,54.6827686875,64.0,84.0
441,54.556863356250005,54.6863918625,48.0,84.0
442,54.556863356250005,54.70179035625,67.0,84.0
443,54.556863356250005,54.70360194375,36.0,95.0
444,54.556863356250005,54.70360194375,60.0,86.0
445,54.99164435625,55.143817706250005,60.0,84.0
446,54.99164435625,55.17099151875,65.0,94.0
447,54.99164435625,55.202694300000005,38.0,86.0
448,55.42642535625,55.51156996875,60.0,86.0
449,55.42642535625,55.52425108125,40.0,63.0
450,55.42642535625,55.54236695625,67.0,90.0
451,55.86120635625,56.069538918750006,62.0,84.0
452,55.86120635625,56.09490114375,65.0,84.0
453,55.86120635625,56.109393843750006,70.0,84.0
454,55.86120635625,56.344900218750006,58.0,79.0
455,55.86120635625,56.35033498125,46.0,95.0
456,56.51337785625,56.6139209625,58.0,68.0
457,56.51337785625,56.633848425000004,46.0,84.0
458,56.29598735625,56.78149280625,62.0,80.0
459,56.29598735625,56.78692756875,65.0,83.0
460,56.29598735625,56.794173918750005,70.0,82.0
461,56.73076835625,56.93728933125,53.0,84.0
462,56.948158856250004,57.2171796,70.0,84.0
463,56.948158856250004,57.249788175000006,62.0,82.0
464,57.165549356250004,57.265186668750005,53.0,83.0
465,56.948158856250004,57.27243301875,65.0,86.0
466,57.382939856250005,57.597612975000004,67.0,82.0
467,57.600330356250005,57.812286093750004,60.0,71.0
468,57.600330356250005,57.822249825,65.0,79.0
469,57.600330356250005,57.853046812500004,69.0,78.0
470,57.600330356250005,58.12025596875,53.0,78.0
471,57.600330356250005,58.131125493750005,41.0,86.0
472,58.25250185625,58.35213916875,53.0,79.0
473,58.25250185625,58.37568980625,41.0,80.0
474,58.035111356250006,58.480761881250004,60.0,80.0
475,58.035111356250006,58.5088414875,65.0,83.0
476,58.035111356250006,58.51518204375,69.0,76.0
477,58.46989235625,58.68728285625,48.0,90.0
478,58.68728285625,58.96445574375,60.0,83.0
479,58.68728285625,59.00431066875,65.0,82.0
480,58.68728285625,59.0233323375,69.0,79.0
481,58.90467335625,59.055035118750006,48.0,86.0
482,59.12206385625,59.257027125,67.0,79.0
483,59.33945435625,59.4943450875,62.0,75.0
484,59.33945435625,59.5124609625,65.0,84.0
485,59.33945435625,59.526047868750005,70.0,79.0
486,59.33945435625,59.8131844875,43.0,83.0
487,59.33945435625,59.84488726875,55.0,71.0
488,59.99162585625,60.08945158125,55.0,53.0
489,59.99162585625,60.10937904375,43.0,80.0
490,59.77423535625,60.16553825625,62.0,82.0
491,59.77423535625,60.172784606250005,65.0,84.0
492,59.77423535625,60.19995841875,70.0,84.0
493,60.209016356250004,60.51426885,48.0,84.0
494,60.426406856250004,60.707202918750006,64.0,86.0
495,60.426406856250004,60.726224587500006,60.0,90.0
496,60.643797356250005,60.764267925000006,48.0,84.0
497,60.426406856250004,60.840354600000005,67.0,83.0
498,60.861187856250005,60.998868506250005,65.0,79.0
499,61.078578356250006,61.33944695625,60.0,82.0
500,61.078578356250006,61.35575124375001,65.0,82.0
501,61.078578356250006,61.371149737500005,69.0,78.0
502,61.51335935625,61.564989600000004,60.0,79.0
503,61.51335935625,61.584011268750004,65.0,86.0
504,61.078578356250006,61.589446031250006,41.0,90.0
505,61.078578356250006,61.59669238125,53.0,78.0
506,61.51335935625,61.625677781250005,69.0,81.0
507,61.73074985625,61.836727725,41.0,86.0
508,61.73074985625,61.840350900000004,53.0,76.0
509,61.94814035625,62.1247701375,53.0,61.0
510,62.16553085625,62.2008568125,72.0,50.0
511,62.16553085625,62.30683468125,69.0,84.0
512,62.16553085625,62.355747543750006,77.0,93.0
513,61.94814035625,62.42730525,41.0,81.0
514,62.38292135625,62.429116837500004,77.0,59.0
515,62.38292135625,62.51697883125,67.0,84.0
516,62.38292135625,62.539623675,53.0,82.0
517,62.38292135625,62.548681612500005,76.0,82.0
518,62.60031185625,62.768789493750006,72.0,93.0
519,62.81770235625,63.07313619375,70.0,91.0
520,62.81770235625,63.102121593750006,74.0,86.0
521,62.81770235625,63.315888918750005,58.0,84.0
522,62.81770235625,63.33038161875,46.0,84.0
523,63.469873856250004,63.5667937875,58.0,73.0
524,63.469873856250004,63.575851725,46.0,91.0
525,63.25248335625,63.592156012500006,74.0,83.0
526,63.25248335625,63.630199350000005,70.0,94.0
527,63.687264356250004,63.9544735125,53.0,83.0
528,63.904654856250005,64.18182774375,62.0,78.0
529,63.904654856250005,64.19813203125,70.0,71.0
530,64.12204535625,64.21081314375,46.0,90.0
531,64.12204535625,64.2189652875,53.0,84.0
532,63.904654856250005,64.23436378125,65.0,83.0
533,64.33943585625,64.459906425,67.0,79.0
534,64.55682635625,64.7099055,60.0,86.0
535,64.55682635625,64.72711558125,65.0,83.0
536,64.55682635625,64.75791256875,69.0,80.0
537,64.55682635625,64.8638904375,48.0,86.0
538,65.20899785625001,65.31588151875,41.0,84.0
539,64.99160735625,65.50700400000001,60.0,86.0
540,64.99160735625,65.54232995625,65.0,71.0
541,64.99160735625,65.55772845,69.0,78.0
542,65.42638835625,65.70084386250001,41.0,90.0
543,65.64377885625001,65.8820026125,60.0,83.0
544,65.64377885625001,65.923669125,65.0,84.0
545,65.64377885625001,65.93363285625,69.0,78.0
546,66.07855985625001,66.13653065625,67.0,69.0
547,65.86116935625,66.16913923125,41.0,86.0
548,66.07855985625001,66.18000875625,65.0,32.0
549,66.29595035625,66.49069601250001,62.0,83.0
550,66.29595035625,66.49160180625,67.0,80.0
551,66.29595035625,66.4943191875,70.0,84.0
552,66.29595035625,66.7334487375,43.0,84.0
553,66.29595035625,66.76696310625,55.0,76.0
554,66.83942660625,66.91823066250001,55.0,54.0
555,66.83942660625,66.952650825,43.0,79.0
556,66.73073135625,67.09486044375001,70.0,86.0
557,66.73073135625,67.10754155625,67.0,80.0
558,66.73073135625,67.12203425625,62.0,82.0
559,67.05681710625001,67.39558396875,48.0,84.0
560,67.27420760625,67.51696033125,64.0,90.0
561,67.49159810625001,67.59485859375,48.0,81.0
562,67.27420760625,67.619315025,60.0,90.0
563,67.27420760625,67.70445963750001,67.0,86.0
564,67.81768385625,67.9580818875,65.0,78.0
565,68.03507435625,68.1881535,52.0,63.0
566,68.03507435625,68.1972114375,60.0,78.0
567,68.03507435625,68.20989255,65.0,72.0
568,68.03507435625,68.21623310625,69.0,77.0
569,68.03507435625,68.5015581375,41.0,82.0
570,68.03507435625,68.5414130625,53.0,60.0
571,68.68724585625,68.78144840625001,53.0,57.0
572,68.68724585625,68.80862221875,41.0,83.0
573,68.46985535625001,68.90644794375001,60.0,94.0
574,68.46985535625001,68.91550588125,65.0,84.0
575,68.46985535625001,68.93181016875,69.0,79.0
576,68.90463635625001,69.10028780625001,48.0,84.0
577,69.12202685625,69.420033,60.0,84.0
578,69.12202685625,69.43090252500001,65.0,83.0
579,69.12202685625,69.43090252500001,69.0,81.0
580,69.55680785625,69.6501046125,67.0,73.0
581,69.33941735625001,69.66912628125,48.0,90.0
582,69.77419835625,69.9906830625,62.0,78.0
583,69.77419835625,70.00245838125001,65.0,68.0
584,69.77419835625,70.01332790625,70.0,79.0
585,69.77419835625,70.27600809375001,46.0,84.0
586,69.77419835625,70.278725475,58.0,80.0
587,70.42636985625,70.5160434375,58.0,62.0
588,70.42636985625,70.54321725,46.0,83.0
589,70.20897935625,70.626550275,70.0,79.0
590,70.20897935625,70.68180369375,65.0,79.0
591,70.20897935625,70.70897750625001,62.0,78.0
592,70.64376035625,70.858433475,53.0,78.0
593,70.86115085625,71.1301716,70.0,83.0
594,70.86115085625,71.13651215625,62.0,79.0
595,70.86115085625,71.1464758875,65.0,82.0
596,71.07854135625,71.1736497,53.0,82.0
597,71.29593185625001,71.49339489375001,67.0,73.0
598,71.51332235625,71.738865,65.0,78.0
599,71.51332235625,71.7406765875,60.0,61.0
600,71.51332235625,71.76694460625001,69.0,77.0
601,71.51332235625,71.98886407500001,41.0,83.0
602,71.51332235625,72.039588525,53.0,75.0
603,72.16549385625001,72.25788481875,53.0,58.0
604,72.16549385625001,72.278718075,41.0,80.0
605,71.94810335625,72.37382641875,60.0,72.0
606,71.94810335625,72.38379015000001,65.0,79.0
607,71.94810335625,72.401906025,69.0,73.0
608,72.38288435625,72.6229197,48.0,82.0
609,72.81766535625,72.89465782500001,53.0,67.0
610,72.60027485625001,72.89465782500001,60.0,82.0
611,72.60027485625001,72.92998378125,65.0,75.0
612,72.60027485625001,72.9435706875,69.0,79.0
613,72.81766535625,72.96983870625,48.0,83.0
614,73.03505585625,73.12472943750001,67.0,71.0
615,73.25244635625,73.409148675,65.0,79.0
616,73.25244635625,73.41548923125,62.0,68.0
617,73.25244635625,73.4290761375,70.0,80.0
618,73.25244635625,73.75425609375,55.0,76.0
619,73.25244635625,73.75697347500001,43.0,86.0
620,73.90461785625,73.99066826250001,43.0,55.0
621,73.90461785625,73.99882040625,55.0,54.0
622,73.68722735625,74.06584914375,70.0,81.0
623,73.68722735625,74.10751565625,65.0,81.0
624,73.68722735625,74.11838518125,62.0,80.0
625,74.12200835625,74.40280441875001,48.0,84.0
626,74.33939885625,74.63287603125,60.0,79.0
627,74.33939885625,74.66276722500001,64.0,81.0
628,74.33939885625,74.66276722500001,72.0,80.0
629,74.55678935625001,74.69628159375,48.0,80.0
630,74.33939885625,74.71258588125,67.0,79.0
631,74.77417985625,74.86657081875,60.0,62.0
632,74.99157035625001,75.12743941875,69.0,71.0
633,74.99157035625001,75.12925100625,65.0,71.0
634,74.99157035625001,75.1428379125,60.0,79.0
635,74.99157035625001,75.4653004875,53.0,69.0
636,74.99157035625001,75.48975691875,41.0,78.0
637,75.64374185625,75.73250964375,53.0,57.0
638,75.64374185625,75.75515448750001,41.0,82.0
639,75.42635135625001,75.822183225,69.0,78.0
640,75.42635135625001,75.83848751250001,65.0,84.0
641,75.42635135625001,75.8710960875,60.0,84.0
642,75.86113235625001,76.0667475375,48.0,79.0
643,76.07852285625,76.198993425,60.0,75.0
644,76.07852285625,76.23975414375,65.0,82.0
645,76.07852285625,76.4489925,69.0,73.0
646,76.29591335625,76.56221671875001,43.0,78.0
647,76.51330385625,76.79047674375,45.0,72.0
648,76.73069435625,76.9073241375,65.0,84.0
649,76.73069435625,76.9073241375,70.0,84.0
650,76.73069435625,76.91547628125001,62.0,79.0
651,76.73069435625,77.22706933125001,46.0,82.0
652,77.38286585625,77.46076411875,46.0,75.0
653,77.16547535625,77.52779285625,70.0,81.0
654,77.16547535625,77.58938683125001,62.0,80.0
655,77.16547535625,77.58938683125001,65.0,83.0
656,77.60025635625,77.87018289375,46.0,82.0
657,77.81764685625001,78.10931244375,62.0,80.0
658,77.81764685625001,78.11746458750001,70.0,84.0
659,77.81764685625001,78.1355804625,65.0,83.0
660,78.03503735625,78.19355126250001,46.0,78.0
661,78.25242785625001,78.3783331875,67.0,76.0
662,78.46981835625,78.54590503125,67.0,75.0
663,78.46981835625,78.58213678125,65.0,71.0
664,78.46981835625,78.60206424375001,60.0,59.0
665,78.46981835625,78.6102163875,69.0,72.0
666,78.46981835625,78.96438174375001,41.0,80.0
667,79.12198985625001,79.2406488375,41.0,80.0
668,78.90459935625,79.32126448125,69.0,75.0
669,78.90459935625,79.33213400625,65.0,84.0
670,78.90459935625,79.35749623125001,60.0,80.0
671,79.33938035625,79.59843736875,48.0,78.0
672,79.55677085625,79.99336344375,65.0,76.0
673,79.55677085625,79.99698661875,60.0,69.0
674,79.55677085625,80.03140678125,69.0,73.0
675,79.77416135625,80.04046471875,41.0,79.0
676,80.20894235625,80.7007883625,36.0,98.0
677,80.86111385625,80.94807005625,36.0,83.0
678,80.64372335625,81.0558595125,72.0,78.0
679,80.64372335625,81.07125800625,67.0,72.0
680,80.64372335625,81.07850435625001,60.0,79.0
681,80.64372335625,81.09390285,64.0,69.0
682,81.07850435625001,81.37741629375,36.0,94.0
683,81.29589485625,81.53411861250001,64.0,79.0
684,81.29589485625,81.546799725,60.0,82.0
685,81.29589485625,81.583031475,67.0,75.0
686,81.29589485625,81.6065821125,72.0,84.0
687,81.51328535625001,81.6319443375,40.0,83.0
688,81.73067585625,81.78955245,60.0,50.0
689,81.94806635625001,82.23429718125,60.0,91.0
690,81.94806635625001,82.23882615000001,65.0,86.0
691,81.94806635625001,82.24335511875,69.0,84.0
692,81.94806635625001,82.256942025,41.0,84.0
693,82.60023785625,82.6826650875,48.0,84.0
694,82.60023785625,82.70712151875,60.0,83.0
695,82.60023785625,82.71527366250001,64.0,91.0
696,82.60023785625,82.71799104375,36.0,101.0
697,82.81762835625,82.9544032125,41.0,93.0
698,82.81762835625,82.95712059375,65.0,90.0
699,82.81762835625,82.96346115,60.0,84.0
700,82.81762835625,82.99154075625,69.0,81.0
701,84.12197135625,84.191717475,65.0,80.0
702,84.12197135625,84.20892755625,60.0,83.0
703,84.12197135625,84.2225144625,69.0,84.0
704,83.68719035625,84.31399963125,41.0,86.0
705,83.68719035625,84.3493255875,53.0,79.0
706,84.33936185625001,84.42994123125,65.0,86.0
707,84.33936185625001,84.46073821875001,69.0,84.0
708,84.33936185625001,84.4634556,60.0,84.0
709,84.55675235625,84.9761348625,48.0,79.0
710,84.99153335625,85.090264875,65.0,86.0
711,84.99153335625,85.0956996375,60.0,90.0
712,84.99153335625,85.1156271,69.0,84.0
713,85.86109535625,85.93446465000001,65.0,78.0
714,85.86109535625,85.94442838125,62.0,80.0
715,85.86109535625,85.9507689375,70.0,79.0
716,85.42631435625,86.0413483125,58.0,82.0
717,85.42631435625,86.05402942500001,46.0,90.0
718,86.07848585625,86.20801436250001,65.0,81.0
719,86.07848585625,86.231565,62.0,83.0
720,86.07848585625,86.23609396875,70.0,90.0
721,86.73065735625,86.8094614125,60.0,90.0
722,86.73065735625,86.81761355625001,64.0,86.0
723,86.73065735625,86.8257657,67.0,90.0
724,86.29587635625,86.829388875,48.0,83.0
725,87.16543835625001,87.70076246250001,41.0,82.0
726,87.60021935625001,87.70619722500001,65.0,84.0
727,87.60021935625001,87.71253778125,60.0,82.0
728,87.60021935625001,87.71434936875,69.0,79.0
729,87.16543835625001,87.74242897500001,53.0,71.0
730,87.81760985625,87.87195748125,53.0,44.0
731,87.81760985625,87.89007335625,60.0,20.0
732,87.81760985625,87.916341375,69.0,37.0
733,87.81760985625,87.94260939375,41.0,75.0
734,88.46978135625001,88.57304184375,60.0,84.0
735,88.03500035625001,88.57485343125,48.0,84.0
736,88.46978135625001,88.5811939875,65.0,86.0
737,88.46978135625001,88.61651994375,69.0,81.0
738,88.90456235625001,89.3746693125,46.0,79.0
739,89.33934335625,89.42448796875,62.0,83.0
740,89.33934335625,89.42539376250001,65.0,82.0
741,89.33934335625,89.4471328125,70.0,86.0
742,89.55673385625,89.64006688125001,46.0,73.0
743,89.55673385625,89.6427842625,65.0,69.0
744,89.55673385625,89.648219025,62.0,62.0
745,89.55673385625,89.68173339375001,70.0,82.0
746,89.77412435625,90.17810836875,48.0,82.0
747,90.20890535625,90.28318044375,60.0,83.0
748,90.20890535625,90.28952100000001,64.0,68.0
749,90.20890535625,90.29495576250001,67.0,79.0
750,91.07846735625,91.148213475,65.0,80.0
751,91.07846735625,91.16542355625,60.0,83.0
752,91.07846735625,91.1790104625,69.0,84.0
753,90.64368635625,91.27049563125,41.0,86.0
754,90.64368635625,91.3058215875,53.0,79.0
755,91.29585785625001,91.38643723125,65.0,86.0
756,91.29585785625001,91.41723421875001,69.0,84.0
757,91.29585785625001,91.4199516,60.0,84.0
758,91.51324835625,91.9326308625,48.0,79.0
759,91.94802935625,92.046760875,65.0,86.0
760,91.94802935625,92.0521956375,60.0,90.0
761,91.94802935625,92.0721231,69.0,84.0
762,92.81759135625,92.89096065000001,65.0,78.0
763,92.81759135625,92.90092438125001,62.0,80.0
764,92.81759135625,92.9072649375,70.0,79.0
765,92.38281035625,92.9978443125,58.0,82.0
766,92.38281035625,93.01052542500001,46.0,90.0
767,93.03498185625,93.16451036250001,65.0,81.0
768,93.03498185625,93.188061,62.0,83.0
769,93.03498185625,93.19258996875,70.0,90.0
770,93.68715335625001,93.7659574125,60.0,90.0
771,93.68715335625001,93.77410955625001,64.0,86.0
772,93.68715335625001,93.7822617,67.0,90.0
773,93.25237235625,93.78588487500001,48.0,83.0
774,94.12193435625001,94.26233238750001,65.0,80.0
775,94.12193435625001,94.2732019125,69.0,79.0
776,94.12193435625001,94.2804482625,60.0,75.0
777,94.12193435625001,94.54946900625,41.0,84.0
778,94.12193435625001,94.59113551875001,53.0,72.0
779,94.66541060625,94.79765649375001,41.0,76.0
780,94.55671535625001,94.84838094375,65.0,80.0
781,94.77410585625,94.86649681875001,53.0,51.0
782,94.55671535625001,94.87646055,60.0,82.0
783,94.55671535625001,94.90454015625001,69.0,79.0
784,94.99149635625001,95.48062498125,48.0,86.0
785,95.42627735625001,95.59928396250001,64.0,71.0
786,95.42627735625001,95.63370412500001,60.0,80.0
787,95.42627735625001,95.7043560375,67.0,83.0
788,95.64366785625,95.78859485625,48.0,80.0
789,95.86105835625,96.00236218125,46.0,78.0
790,95.86105835625,96.01142011875001,70.0,90.0
791,95.86105835625,96.01504329375001,62.0,80.0
792,95.86105835625,96.02047805625,65.0,81.0
793,96.29583935625,96.41178095625,36.0,86.0
794,96.29583935625,96.41359254375,60.0,78.0
795,96.29583935625,96.41812151250001,64.0,79.0
796,96.29583935625,96.4326142125,67.0,79.0
797,96.29583935625,96.43714318125001,48.0,82.0
798,96.73062035625,97.00054689375,53.0,68.0
799,96.73062035625,97.02590911875001,60.0,86.0
800,96.73062035625,97.03677864375001,65.0,84.0
801,96.73062035625,97.05398872500001,69.0,80.0
802,96.73062035625,97.0739161875,41.0,80.0
803,98.03496335625,98.104709475,65.0,80.0
804,98.03496335625,98.12191955625,60.0,83.0
805,98.03496335625,98.1355064625,69.0,84.0
806,97.60018235625,98.22699163125,41.0,86.0
807,97.60018235625,98.26231758750001,53.0,79.0
808,98.25235385625001,98.34293323125,65.0,86.0
809,98.25235385625001,98.37373021875,69.0,84.0
810,98.25235385625001,98.3764476,60.0,84.0
811,98.46974435625,98.8891268625,48.0,79.0
812,98.90452535625,99.003256875,65.0,86.0
813,98.90452535625,99.00869163750001,60.0,90.0
814,98.90452535625,99.0286191,69.0,84.0
815,99.77408735625,99.84745665,65.0,78.0
816,99.77408735625,99.85742038125001,62.0,80.0
817,99.77408735625,99.8637609375,70.0,79.0
818,99.33930635625,99.95434031250001,58.0,82.0
819,99.33930635625,99.967021425,46.0,90.0
820,99.99147785625,100.12100636250001,65.0,81.0
821,99.99147785625,100.144557,62.0,83.0
822,99.99147785625,100.14908596875,70.0,90.0
823,100.64364935625001,100.7224534125,60.0,90.0
824,100.64364935625001,100.73060555625001,64.0,86.0
825,100.64364935625001,100.73875770000001,67.0,90.0
826,100.20886835625001,100.74238087500001,48.0,83.0
827,101.07843035625001,101.61375446250001,41.0,82.0
828,101.51321135625001,101.619189225,65.0,84.0
829,101.51321135625001,101.62552978125001,60.0,82.0
830,101.51321135625001,101.62734136875001,69.0,79.0
831,101.07843035625001,101.655420975,53.0,71.0
832,101.73060185625,101.78494948125001,53.0,44.0
833,101.73060185625,101.80306535625,60.0,20.0
834,101.73060185625,101.829333375,69.0,37.0
835,101.73060185625,101.85560139375,41.0,75.0
836,102.38277335625,102.48603384375001,60.0,84.0
837,101.94799235625001,102.48784543125001,48.0,84.0
838,102.38277335625,102.4941859875,65.0,86.0
839,102.38277335625,102.52951194375001,69.0,81.0
840,102.81755435625,103.2876613125,46.0,79.0
841,103.25233535625,103.33747996875,62.0,83.0
842,103.25233535625,103.33838576250001,65.0,82.0
843,103.25233535625,103.3601248125,70.0,86.0
844,103.46972585625001,103.55305888125001,46.0,73.0
845,103.46972585625001,103.5557762625,65.0,69.0
846,103.46972585625001,103.561211025,62.0,62.0
847,103.46972585625001,103.59472539375001,70.0,82.0
848,103.68711635625,104.09110036875,48.0,82.0
849,104.12189735625,104.19617244375,60.0,83.0
850,104.12189735625,104.20251300000001,64.0,68.0
851,104.12189735625,104.2079477625,67.0,79.0
852,104.99145935625,105.06120547500001,65.0,80.0
853,104.99145935625,105.07841555625001,60.0,83.0
854,104.99145935625,105.0920024625,69.0,84.0
855,104.55667835625,105.18348763125,41.0,86.0
856,104.55667835625,105.21881358750001,53.0,79.0
857,105.20884985625001,105.29942923125,65.0,86.0
858,105.20884985625001,105.33022621875,69.0,84.0
859,105.20884985625001,105.33294360000001,60.0,84.0
860,105.42624035625,105.84562286250001,48.0,79.0
861,105.86102135625,105.959752875,65.0,86.0
862,105.86102135625,105.96518763750001,60.0,90.0
863,105.86102135625,105.9851151,69.0,84.0
864,106.73058335625001,106.80395265,65.0,78.0
865,106.73058335625001,106.81391638125001,62.0,80.0
866,106.73058335625001,106.8202569375,70.0,79.0
867,106.29580235625001,106.91083631250001,58.0,82.0
868,106.29580235625001,106.923517425,46.0,90.0
869,106.94797385625,107.0775023625,65.0,81.0
870,106.94797385625,107.10105300000001,62.0,83.0
871,106.94797385625,107.10558196875,70.0,90.0
872,107.60014535625001,107.6789494125,60.0,90.0
873,107.60014535625001,107.68710155625,64.0,86.0
874,107.60014535625001,107.69525370000001,67.0,90.0
875,107.16536435625001,107.69887687500001,48.0,83.0
876,108.03492635625001,108.17532438750001,65.0,80.0
877,108.03492635625001,108.1861939125,69.0,79.0
878,108.03492635625001,108.1934402625,60.0,75.0
879,108.03492635625001,108.46246100625001,41.0,84.0
880,108.03492635625001,108.50412751875001,53.0,72.0
881,108.57840260625001,108.71064849375,41.0,76.0
882,108.46970735625001,108.76137294375,65.0,80.0
883,108.68709785625,108.77948881875001,53.0,51.0
884,108.46970735625001,108.78945255000001,60.0,82.0
885,108.46970735625001,108.81753215625001,69.0,79.0
886,108.90448835625,109.39361698125,48.0,86.0
887,109.33926935625,109.5122759625,64.0,71.0
888,109.33926935625,109.54669612500001,60.0,80.0
889,109.33926935625,109.61734803750001,67.0,83.0
890,109.55665985625001,109.70158685625,48.0,80.0
891,109.77405035625,109.91535418125001,46.0,78.0
892,109.77405035625,109.92441211875,70.0,90.0
893,109.77405035625,109.92803529375,62.0,80.0
894,109.77405035625,109.93347005625,65.0,81.0
895,110.20883135625,110.32477295625,36.0,86.0
896,110.20883135625,110.32658454375,60.0,78.0
897,110.20883135625,110.33111351250001,64.0,79.0
898,110.20883135625,110.3456062125,67.0,79.0
899,110.20883135625,110.35013518125001,48.0,82.0
900,110.64361235625,110.91353889375,67.0,82.0
901,110.64361235625,110.92803159375,60.0,78.0
902,110.64361235625,110.93165476875001,72.0,79.0
903,110.64361235625,110.9325605625,64.0,78.0
904,110.64361235625,111.13455256875001,48.0,77.0
905,111.07839335625,111.365529975,60.0,80.0
906,111.07839335625,111.37005894375001,67.0,83.0
907,111.07839335625,111.37730529375001,64.0,79.0
908,111.29578385625001,111.38908061250001,48.0,90.0
909,110.64361235625,111.39451537500001,36.0,90.0
910,111.07839335625,111.40629069375001,72.0,78.0
911,111.51317435625,111.6825577875,62.0,81.0
912,111.51317435625,111.6934273125,65.0,82.0
913,111.51317435625,111.71969533125001,70.0,83.0
914,111.51317435625,111.99686821875001,46.0,91.0
915,111.51317435625,112.01226671250001,58.0,84.0
916,112.16534585625,112.25501943750001,58.0,56.0
917,112.16534585625,112.28491063125,46.0,82.0
918,111.94795535625,112.39813485,70.0,84.0
919,111.94795535625,112.40356961250001,62.0,78.0
920,111.94795535625,112.40991016875,65.0,79.0
921,112.38273635625,112.5919747125,53.0,82.0
922,112.81751735625001,112.9108141125,53.0,84.0
923,112.60012685625,112.92077784375,62.0,80.0
924,112.60012685625,112.93164736875,65.0,83.0
925,112.60012685625,112.94070530625001,70.0,84.0
926,113.03490785625,113.24324041875,67.0,79.0
927,113.25229835625001,113.42621075625,60.0,76.0
928,113.25229835625001,113.44432663125001,65.0,80.0
929,113.25229835625001,113.47331203125,69.0,80.0
930,113.25229835625001,113.77222396875001,41.0,86.0
931,113.25229835625001,113.807549925,53.0,70.0
932,113.90446985625,113.99504923125001,53.0,57.0
933,113.90446985625,114.032186775,41.0,80.0
934,113.68707935625001,114.17801956875,65.0,78.0
935,113.68707935625001,114.19251226875001,60.0,75.0
936,113.68707935625001,114.1934180625,69.0,73.0
937,114.12186035625001,114.3455914125,48.0,84.0
938,114.33925085625,114.5937789,60.0,79.0
939,114.33925085625,114.63272803125001,65.0,83.0
940,114.33925085625,114.64359755625,69.0,77.0
941,114.55664135625001,114.71696685,48.0,84.0
942,114.77403185625,114.85374170625,60.0,59.0
943,114.77403185625,114.91986465000001,67.0,77.0
944,114.99142235625001,115.17620428125001,62.0,71.0
945,114.99142235625001,115.19522595000001,65.0,81.0
946,114.99142235625001,115.213341825,70.0,79.0
947,115.10011760625001,115.26134889375001,45.0,57.0
948,115.10011760625001,115.46786986875,46.0,50.0
949,115.64359385625,115.7242095,46.0,73.0
950,115.42620335625,115.90083928125,65.0,75.0
951,115.42620335625,115.90717983750001,62.0,71.0
952,115.42620335625,115.93525944375,70.0,76.0
953,115.86098435625,116.3165986125,36.0,91.0
954,116.29576535625,116.3202217875,65.0,54.0
955,116.29576535625,116.57203245000001,64.0,68.0
956,116.29576535625,116.57384403750001,60.0,77.0
957,116.29576535625,116.69250301875,67.0,76.0
958,116.73054635625,116.82656049375001,65.0,83.0
959,116.73054635625,116.83743001875001,60.0,82.0
960,116.73054635625,116.87003859375001,69.0,78.0
961,116.73054635625,117.24141403125,41.0,81.0
962,116.73054635625,117.2658704625,53.0,62.0
963,117.38271785625001,117.46605088125001,53.0,61.0
964,117.38271785625001,117.49141310625001,41.0,82.0
965,117.16532735625,117.58923883125,69.0,75.0
966,117.16532735625,117.59105041875,65.0,79.0
967,117.16532735625,117.611883675,60.0,82.0
968,117.60010835625,117.82293361875,53.0,61.0
969,117.60010835625,117.8546364,41.0,82.0
970,118.03488935625,118.27130152500001,43.0,73.0
971,117.81749885625001,118.30391010000001,65.0,79.0
972,118.25227985625001,118.49231520000001,45.0,73.0
973,117.81749885625001,118.49412678750001,69.0,76.0
974,117.81749885625001,118.5158658375,60.0,82.0
975,118.46967035625,118.95155263125001,46.0,84.0
976,119.12184185625,119.20789226250001,46.0,72.0
977,118.90445135625001,119.31115275,65.0,81.0
978,118.90445135625001,119.33379759375,70.0,83.0
979,118.90445135625001,119.38271045625001,62.0,82.0
980,119.33923235625001,119.59285460625,46.0,80.0
981,119.55662285625,119.8491942375,62.0,79.0
982,119.55662285625,119.85372320625001,65.0,80.0
983,119.55662285625,119.91622297500001,70.0,82.0
984,119.77401335625001,120.02582401875,46.0,76.0
985,119.99140385625,120.14991776250001,67.0,82.0
986,120.20879435625001,120.32835913125001,60.0,80.0
987,120.20879435625001,120.34194603750001,65.0,80.0
988,120.20879435625001,120.36640246875001,69.0,81.0
989,120.20879435625001,120.71060409375,53.0,69.0
990,120.20879435625001,120.71694465,41.0,83.0
991,120.86096585625,120.94339308750001,53.0,69.0
992,120.86096585625,120.95516840625001,41.0,79.0
993,120.64357535625001,121.08741429375,60.0,83.0
994,120.64357535625001,121.09647223125,69.0,76.0
995,120.64357535625001,121.13542136250001,65.0,82.0
996,121.07835635625001,121.28578312500001,53.0,72.0
997,121.07835635625001,121.300275825,41.0,84.0
998,121.29574685625,121.53125323125,60.0,83.0
999,121.29574685625,121.58650665,65.0,82.0
1000,121.29574685625,121.61096308125,69.0,80.0
1001,121.51313735625001,121.6571585625,54.0,81.0
1002,121.51313735625001,121.66531070625001,42.0,98.0
1003,121.73052785625,121.81748405625001,69.0,49.0
1004,121.73052785625,121.8491868375,65.0,41.0
1005,121.94791835625,122.10190329375001,71.0,83.0
1006,121.94791835625,122.13270028125001,62.0,82.0
1007,121.94791835625,122.14538139375,67.0,82.0
1008,121.94791835625,122.42164848750001,43.0,91.0
1009,121.94791835625,122.46331500000001,55.0,79.0
1010,122.60008985625001,122.69791558125,55.0,69.0
1011,122.60008985625001,122.7259951875,43.0,84.0
1012,122.38269935625,122.74954582500001,71.0,82.0
1013,122.38269935625,122.82200932500001,62.0,81.0
1014,122.38269935625,122.82834988125,67.0,76.0
1015,122.81748035625,123.33559438125,48.0,93.0
1016,123.25226135625,123.41711581875,64.0,82.0
1017,123.25226135625,123.47870979375,60.0,83.0
1018,123.25226135625,123.52399948125,67.0,83.0
1019,123.68704235625,123.75860006250001,48.0,84.0
1020,123.68704235625,123.80207816250001,64.0,82.0
1021,123.68704235625,123.81838245,60.0,90.0
1022,123.68704235625,123.82109983125001,36.0,103.0
1023,123.68704235625,123.82109983125001,67.0,86.0
1024,124.12182335625,124.2477286875,64.0,84.0
1025,124.12182335625,124.2513518625,48.0,84.0
1026,124.12182335625,124.26675035625,67.0,84.0
1027,124.12182335625,124.26856194375,36.0,95.0
1028,124.12182335625,124.26856194375,60.0,86.0
1029,124.55660435625,124.70877770625,60.0,84.0
1030,124.55660435625,124.73595151875,65.0,94.0
1031,124.55660435625,124.7676543,38.0,86.0
1032,124.99138535625,125.05841409375,41.0,79.0
1033,124.99138535625,125.07652996875001,60.0,86.0
1034,124.99138535625,125.08921108125,40.0,63.0
1035,124.99138535625,125.10732695625,67.0,90.0
1036,125.42616635625001,125.63449891875001,62.0,84.0
1037,125.42616635625001,125.65986114375,65.0,84.0
1038,125.42616635625001,125.67435384375001,70.0,84.0
1039,125.42616635625001,125.90986021875001,58.0,79.0
1040,125.42616635625001,125.91529498125,46.0,95.0
1041,126.07833785625,126.1788809625,58.0,68.0
1042,126.07833785625,126.19880842500001,46.0,84.0
1043,125.86094735625001,126.34645280625,62.0,80.0
1044,125.86094735625001,126.35188756875,65.0,83.0
1045,125.86094735625001,126.35913391875,70.0,82.0
1046,126.29572835625001,126.50224933125001,53.0,84.0
1047,126.51311885625,126.78213960000001,70.0,84.0
1048,126.51311885625,126.814748175,62.0,82.0
1049,126.73050935625001,126.83014666875,53.0,83.0
1050,126.51311885625,126.83739301875,65.0,86.0
1051,126.94789985625,127.162572975,67.0,82.0
1052,127.16529035625001,127.37724609375,60.0,71.0
1053,127.16529035625001,127.387209825,65.0,79.0
1054,127.16529035625001,127.41800681250001,69.0,78.0
1055,127.16529035625001,127.68521596875,53.0,78.0
1056,127.16529035625001,127.69608549375,41.0,86.0
1057,127.81746185625,127.91709916875001,53.0,79.0
1058,127.81746185625,127.94064980625001,41.0,80.0
1059,127.60007135625001,128.04572188125002,60.0,80.0
1060,127.60007135625001,128.07380148750002,65.0,83.0
1061,127.60007135625001,128.08014204375002,69.0,76.0
1062,128.03485235625,128.25224285625,48.0,90.0
1063,128.25224285625,128.52941574375,60.0,83.0
1064,128.25224285625,128.56927066875,65.0,82.0
1065,128.25224285625,128.5882923375,69.0,79.0
1066,128.46963335625,128.61999511875,48.0,86.0
1067,128.68702385625,128.821987125,67.0,79.0
1068,128.90441435625002,129.0593050875,62.0,75.0
1069,128.90441435625002,129.0774209625,65.0,84.0
1070,128.90441435625002,129.09100786875,70.0,79.0
1071,128.90441435625002,129.3781444875,43.0,83.0
1072,128.90441435625002,129.40984726875,55.0,71.0
1073,129.55658585625,129.65441158125,55.0,53.0
1074,129.55658585625,129.67433904375,43.0,80.0
1075,129.33919535625,129.73049825625,62.0,82.0
1076,129.33919535625,129.73774460625,65.0,84.0
1077,129.33919535625,129.76491841875,70.0,84.0
1078,129.77397635625002,130.07922885,48.0,84.0
1079,129.99136685625,130.27216291875,64.0,86.0
1080,129.99136685625,130.2911845875,60.0,90.0
1081,130.20875735625,130.329227925,48.0,84.0
1082,129.99136685625,130.4053146,67.0,83.0
1083,130.42614785625,130.56382850625002,65.0,79.0
1084,130.64353835625002,130.90440695625,60.0,82.0
1085,130.64353835625002,130.92071124375002,65.0,82.0
1086,130.64353835625002,130.9361097375,69.0,78.0
1087,131.07831935625,131.1299496,60.0,79.0
1088,131.07831935625,131.14897126875002,65.0,86.0
1089,130.64353835625002,131.15440603125,41.0,90.0
1090,130.64353835625002,131.16165238125,53.0,78.0
1091,131.07831935625,131.19063778125002,69.0,81.0
1092,131.29570985625,131.40168772500002,41.0,86.0
1093,131.29570985625,131.40531090000002,53.0,76.0
1094,131.51310035625,131.6897301375,53.0,61.0
1095,131.73049085625001,131.76581681250002,72.0,50.0
1096,131.73049085625001,131.87179468125,69.0,84.0
1097,131.73049085625001,131.92070754375,77.0,93.0
1098,131.51310035625,131.99226525,41.0,81.0
1099,131.94788135625,131.99407683750002,77.0,59.0
1100,131.94788135625,132.08193883125,67.0,84.0
1101,131.94788135625,132.10458367500001,53.0,82.0
1102,131.94788135625,132.1136416125,76.0,82.0
1103,132.16527185625,132.33374949375002,72.0,93.0
1104,132.38266235625,132.63809619375002,70.0,91.0
1105,132.38266235625,132.66708159375,74.0,86.0
1106,132.38266235625,132.88084891875002,58.0,84.0
1107,132.38266235625,132.89534161875,46.0,84.0
1108,133.03483385625,133.1317537875,58.0,73.0
1109,133.03483385625,133.14081172500002,46.0,91.0
1110,132.81744335625,133.1571160125,74.0,83.0
1111,132.81744335625,133.19515935,70.0,94.0
1112,133.25222435625,133.5194335125,53.0,83.0
1113,133.46961485625002,133.74678774375002,62.0,78.0
1114,133.46961485625002,133.76309203125,70.0,71.0
1115,133.68700535625,133.77577314375,46.0,90.0
1116,133.68700535625,133.7839252875,53.0,84.0
1117,133.46961485625002,133.79932378125,65.0,83.0
1118,133.90439585625,134.024866425,67.0,79.0
1119,134.12178635625,134.2748655,60.0,86.0
1120,134.12178635625,134.29207558125,65.0,83.0
1121,134.12178635625,134.32287256875,69.0,80.0
1122,134.12178635625,134.42885043750002,48.0,86.0
1123,134.77395785625,134.88084151875,41.0,84.0
1124,134.55656735625,135.071964,60.0,86.0
1125,134.55656735625,135.10728995625,65.0,71.0
1126,134.55656735625,135.12268845,69.0,78.0
1127,134.99134835625,135.2658038625,41.0,90.0
1128,135.20873885625,135.44696261250002,60.0,83.0
1129,135.20873885625,135.48862912500002,65.0,84.0
1130,135.20873885625,135.49859285625,69.0,78.0
1131,135.64351985625,135.70149065625,67.0,69.0
1132,135.42612935625002,135.73409923125,41.0,86.0
1133,135.64351985625,135.74496875625002,65.0,32.0
1134,135.86091035625,136.0556560125,62.0,83.0
1135,135.86091035625,136.05656180625002,67.0,80.0
1136,135.86091035625,136.0592791875,70.0,84.0
1137,135.86091035625,136.2984087375,43.0,84.0
1138,135.86091035625,136.33192310625,55.0,76.0
1139,136.40438660625,136.4831906625,55.0,54.0
1140,136.40438660625,136.51761082500002,43.0,79.0
1141,136.29569135625002,136.65982044375,70.0,86.0
1142,136.29569135625002,136.67250155625,67.0,80.0
1143,136.29569135625002,136.68699425625002,62.0,82.0
1144,136.62177710625,136.96054396875002,48.0,84.0
1145,136.83916760625002,137.08192033125002,64.0,90.0
1146,137.05655810625,137.15981859375,48.0,81.0
1147,136.83916760625002,137.184275025,60.0,90.0
1148,136.83916760625002,137.2694196375,67.0,86.0
1149,137.38264385625,137.5230418875,65.0,78.0
1150,137.60003435625,137.7531135,52.0,63.0
1151,137.60003435625,137.7621714375,60.0,78.0
1152,137.60003435625,137.77485255000002,65.0,72.0
1153,137.60003435625,137.78119310625002,69.0,77.0
1154,137.60003435625,138.0665181375,41.0,82.0
1155,137.60003435625,138.1063730625,53.0,60.0
1156,138.25220585625001,138.34640840625002,53.0,57.0
1157,138.25220585625001,138.37358221875002,41.0,83.0
1158,138.03481535625,138.47140794375,60.0,94.0
1159,138.03481535625,138.48046588125,65.0,84.0
1160,138.03481535625,138.49677016875,69.0,79.0
1161,138.46959635625,138.66524780625,48.0,84.0
1162,138.68698685625,138.984993,60.0,84.0
1163,138.68698685625,138.995862525,65.0,83.0
1164,138.68698685625,138.995862525,69.0,81.0
1165,139.12176785625002,139.21506461250002,67.0,73.0
1166,138.90437735625,139.23408628125,48.0,90.0
1167,139.33915835625,139.5556430625,62.0,78.0
1168,139.33915835625,139.56741838125,65.0,68.0
1169,139.33915835625,139.57828790625,70.0,79.0
1170,139.33915835625,139.84096809375,46.0,84.0
1171,139.33915835625,139.843685475,58.0,80.0
1172,139.99132985625002,140.08100343750002,58.0,62.0
1173,139.99132985625002,140.10817725,46.0,83.0
1174,139.77393935625,140.191510275,70.0,79.0
1175,139.77393935625,140.24676369375,65.0,79.0
1176,139.77393935625,140.27393750625,62.0,78.0
1177,140.20872035625,140.423393475,53.0,78.0
1178,140.42611085625,140.6951316,70.0,83.0
1179,140.42611085625,140.70147215625002,62.0,79.0
1180,140.42611085625,140.71143588750002,65.0,82.0
1181,140.64350135625,140.7386097,53.0,82.0
1182,140.86089185625002,141.05835489375002,67.0,73.0
1183,141.07828235625,141.30382500000002,65.0,78.0
1184,141.07828235625,141.3056365875,60.0,61.0
1185,141.07828235625,141.33190460625002,69.0,77.0
1186,141.07828235625,141.553824075,41.0,83.0
1187,141.07828235625,141.604548525,53.0,75.0
1188,141.73045385625,141.82284481875,53.0,58.0
1189,141.73045385625,141.843678075,41.0,80.0
1190,141.51306335625,141.93878641875,60.0,72.0
1191,141.51306335625,141.94875015,65.0,79.0
1192,141.51306335625,141.966866025,69.0,73.0
1193,141.94784435625002,142.1878797,48.0,82.0
1194,142.38262535625,142.459617825,53.0,67.0
1195,142.16523485625,142.459617825,60.0,82.0
1196,142.16523485625,142.49494378125002,65.0,75.0
1197,142.16523485625,142.5085306875,69.0,79.0
1198,142.38262535625,142.53479870625,48.0,83.0
1199,142.60001585625,142.6896894375,67.0,71.0
1200,142.81740635625002,142.974108675,65.0,79.0
1201,142.81740635625002,142.98044923125002,62.0,68.0
1202,142.81740635625002,142.99403613750002,70.0,80.0
1203,142.81740635625002,143.31921609375001,55.0,76.0
1204,142.81740635625002,143.321933475,43.0,86.0
1205,143.46957785625,143.5556282625,43.0,55.0
1206,143.46957785625,143.56378040625,55.0,54.0
1207,143.25218735625,143.63080914375,70.0,81.0
1208,143.25218735625,143.67247565625001,65.0,81.0
1209,143.25218735625,143.68334518125002,62.0,80.0
1210,143.68696835625002,143.96776441875,48.0,84.0
1211,143.90435885625,144.19783603125,60.0,79.0
1212,143.90435885625,144.227727225,64.0,81.0
1213,143.90435885625,144.227727225,72.0,80.0
1214,144.12174935625,144.26124159375001,48.0,80.0
1215,143.90435885625,144.27754588125,67.0,79.0
1216,144.33913985625,144.43153081875002,60.0,62.0
1217,144.55653035625,144.69239941875,69.0,71.0
1218,144.55653035625,144.69421100625001,65.0,71.0
1219,144.55653035625,144.7077979125,60.0,79.0
1220,144.55653035625,145.03026048750002,53.0,69.0
1221,144.55653035625,145.05471691875002,41.0,78.0
1222,145.20870185625,145.29746964375002,53.0,57.0
1223,145.20870185625,145.3201144875,41.0,82.0
1224,144.99131135625,145.38714322500002,69.0,78.0
1225,144.99131135625,145.4034475125,65.0,84.0
1226,144.99131135625,145.43605608750002,60.0,84.0
1227,145.42609235625,145.6317075375,48.0,79.0
1228,145.64348285625002,145.763953425,60.0,75.0
1229,145.64348285625002,145.80471414375,65.0,82.0
1230,145.64348285625002,146.01395250000002,69.0,73.0
1231,145.86087335625,146.12717671875,43.0,78.0
1232,146.07826385625,146.35543674375,45.0,72.0
1233,146.29565435625,146.4722841375,65.0,84.0
1234,146.29565435625,146.4722841375,70.0,84.0
1235,146.29565435625,146.48043628125,62.0,79.0
1236,146.29565435625,146.79202933125,46.0,82.0
1237,146.94782585625,147.02572411875002,46.0,75.0
1238,146.73043535625,147.09275285625,70.0,81.0
1239,146.73043535625,147.15434683125,62.0,80.0
1240,146.73043535625,147.15434683125,65.0,83.0
1241,147.16521635625,147.43514289375,46.0,82.0
1242,147.38260685625002,147.67427244375,62.0,80.0
1243,147.38260685625002,147.6824245875,70.0,84.0
1244,147.38260685625002,147.70054046250002,65.0,83.0
1245,147.59999735625001,147.7585112625,46.0,78.0
1246,147.81738785625,147.94329318750002,67.0,76.0
1247,148.03477835625,148.11086503125,67.0,75.0
1248,148.03477835625,148.14709678125,65.0,71.0
1249,148.03477835625,148.16702424375,60.0,59.0
1250,148.03477835625,148.17517638750002,69.0,72.0
1251,148.03477835625,148.52934174375,41.0,80.0
1252,148.68694985625,148.80560883750002,41.0,80.0
1253,148.46955935625002,148.88622448125,69.0,75.0
1254,148.46955935625002,148.89709400625,65.0,84.0
1255,148.46955935625002,148.92245623125,60.0,80.0
1256,148.90434035625,149.16339736875,48.0,78.0
1257,149.12173085625,149.55832344375,65.0,76.0
1258,149.12173085625,149.56194661875,60.0,69.0
1259,149.12173085625,149.59636678125,69.0,73.0
1260,149.33912135625002,149.60542471875002,41.0,79.0
1261,149.77390235625,150.2657483625,36.0,98.0
1262,150.42607385625,150.51303005625002,36.0,83.0
1263,150.20868335625002,150.62081951250002,72.0,78.0
1264,150.20868335625002,150.63621800625,67.0,72.0
1265,150.20868335625002,150.64346435625,60.0,79.0
1266,150.20868335625002,150.65886285000002,64.0,69.0
1267,150.64346435625,150.94237629375002,36.0,94.0
1268,150.86085485625,151.0990786125,64.0,79.0
1269,150.86085485625,151.111759725,60.0,82.0
1270,150.86085485625,151.147991475,67.0,75.0
1271,150.86085485625,151.17154211250002,72.0,84.0
1272,151.07824535625,151.1969043375,40.0,83.0
1273,151.29563585625002,151.35451245000002,60.0,50.0
1274,151.51302635625,151.79925718125,60.0,91.0
1275,151.51302635625,151.80378615,65.0,86.0
1276,151.51302635625,151.80831511875002,69.0,84.0
1277,151.51302635625,151.821902025,41.0,84.0
