,start,end,pitch,velocity
0,4.327083333333333,4.742708333333333,63.0,72.0
1,4.327083333333333,4.746875,59.0,72.0
2,4.327083333333333,4.829166666666667,56.0,51.0
3,4.827083333333333,5.815625,52.0,47.0
4,5.077083333333333,5.853125,63.0,77.0
5,4.327083333333333,5.861458333333333,40.0,63.0
6,5.077083333333333,5.878125,56.0,54.0
7,4.577083333333333,5.888541666666667,47.0,56.0
8,6.327083333333333,6.533333333333333,54.0,57.0
9,6.327083333333333,6.5874999999999995,58.0,79.0
10,6.327083333333333,6.623958333333333,61.0,84.0
11,6.577083333333333,6.955208333333333,54.0,53.0
12,6.827083333333333,7.736458333333333,61.0,84.0
13,6.327083333333333,7.797916666666667,51.0,57.0
14,7.077083333333333,7.813541666666667,66.0,78.0
15,8.327083333333333,8.825,63.0,65.0
16,8.327083333333333,8.827083333333333,59.0,60.0
17,9.077083333333333,9.702083333333333,61.0,57.0
18,8.827083333333333,10.404166666666667,56.0,33.0
19,9.077083333333333,10.636458333333334,58.0,45.0
20,10.077083333333333,10.65625,59.0,45.0
21,10.827083333333333,11.189583333333333,58.0,41.0
22,10.577083333333333,11.430208333333333,56.0,25.0
23,11.077083333333333,11.65625,66.0,88.0
24,11.577083333333333,11.761458333333334,56.0,42.0
25,8.577083333333333,11.788541666666667,51.0,60.0
26,8.327083333333333,11.829166666666666,44.0,54.0
27,11.827083333333333,11.883333333333333,66.0,38.0
28,11.827083333333333,11.959375,58.0,50.0
29,11.827083333333333,12.160416666666666,61.0,90.0
30,12.077083333333333,12.245833333333334,63.0,86.0
31,12.327083333333333,12.735416666666666,59.0,82.0
32,12.327083333333333,12.757291666666667,63.0,85.0
33,12.327083333333333,12.817708333333334,56.0,63.0
34,12.827083333333333,13.630208333333334,52.0,48.0
35,13.077083333333333,13.926041666666666,56.0,42.0
36,13.077083333333333,13.938541666666666,66.0,53.0
37,13.827083333333333,13.973958333333334,52.0,47.0
38,12.327083333333333,14.001041666666666,40.0,77.0
39,12.577083333333333,14.047916666666666,47.0,54.0
40,14.327083333333333,14.604166666666666,66.0,72.0
41,14.327083333333333,14.633333333333333,61.0,86.0
42,14.327083333333333,14.661458333333334,58.0,62.0
43,14.577083333333333,15.46875,51.0,56.0
44,15.452083333333333,15.46875,51.0,30.0
45,14.327083333333333,15.632291666666667,39.0,68.0
46,14.827083333333333,15.674999999999999,58.0,59.0
47,15.077083333333333,15.744791666666666,66.0,82.0
48,15.827083333333333,16.202083333333334,58.0,48.0
49,16.327083333333334,16.813541666666666,63.0,78.0
50,16.327083333333334,16.821875,61.0,76.0
51,16.827083333333334,17.303125,56.0,42.0
52,17.077083333333334,17.51770833333333,61.0,91.0
53,17.077083333333334,17.579166666666666,58.0,54.0
54,17.577083333333334,17.747916666666665,59.0,65.0
55,17.577083333333334,17.97083333333333,63.0,70.0
56,17.952083333333334,18.603125,56.0,14.0
57,18.327083333333334,18.902083333333334,59.0,60.0
58,18.327083333333334,19.01770833333333,58.0,47.0
59,18.327083333333334,19.055208333333333,66.0,56.0
60,19.077083333333334,19.825,56.0,27.0
61,19.327083333333334,19.8375,66.0,42.0
62,19.327083333333334,19.84583333333333,63.0,88.0
63,19.327083333333334,19.869791666666668,59.0,81.0
64,16.577083333333334,19.89270833333333,51.0,65.0
65,16.327083333333334,19.926041666666666,44.0,60.0
66,19.327083333333334,19.93125,58.0,70.0
67,20.327083333333334,20.608333333333334,56.0,68.0
68,20.327083333333334,20.710416666666667,63.0,91.0
69,20.327083333333334,20.890625,59.0,88.0
70,20.827083333333334,21.258333333333333,56.0,53.0
71,21.077083333333334,21.488541666666666,61.0,101.0
72,21.077083333333334,21.507291666666667,58.0,81.0
73,21.327083333333334,21.565625,56.0,31.0
74,21.577083333333334,21.70520833333333,59.0,94.0
75,21.577083333333334,21.75208333333333,63.0,96.0
76,20.327083333333334,21.773958333333333,44.0,84.0
77,20.577083333333334,21.839583333333334,51.0,70.0
78,21.827083333333334,21.953125,56.0,47.0
79,22.327083333333334,22.763541666666665,49.0,86.0
80,22.327083333333334,22.764583333333334,68.0,84.0
81,22.577083333333334,22.773958333333333,56.0,54.0
82,22.327083333333334,22.932291666666668,64.0,86.0
83,22.827083333333334,23.133333333333333,63.0,69.0
84,23.077083333333334,23.398958333333333,64.0,82.0
85,23.577083333333334,23.834375,71.0,82.0
86,24.327083333333334,24.729166666666668,66.0,82.0
87,24.327083333333334,24.73125,70.0,91.0
88,24.327083333333334,24.747916666666665,61.0,70.0
89,25.077083333333334,25.177083333333332,63.0,77.0
90,25.077083333333334,25.22083333333333,71.0,91.0
91,24.827083333333334,25.614583333333332,54.0,54.0
92,25.577083333333334,25.679166666666667,64.0,72.0
93,25.577083333333334,25.696875,73.0,91.0
94,24.327083333333334,25.808333333333334,42.0,91.0
95,24.577083333333334,25.8625,49.0,63.0
96,25.827083333333334,26.22083333333333,54.0,51.0
97,26.077083333333334,26.224999999999998,66.0,39.0
98,26.327083333333334,26.645833333333332,75.0,91.0
99,26.327083333333334,26.657291666666666,70.0,76.0
100,26.327083333333334,26.693749999999998,66.0,74.0
101,26.827083333333334,27.125,59.0,54.0
102,27.077083333333334,27.207291666666666,66.0,76.0
103,27.077083333333334,27.23125,61.0,78.0
104,27.077083333333334,27.33125,70.0,92.0
105,27.327083333333334,27.434375,59.0,39.0
106,26.327083333333334,27.54375,47.0,74.0
107,26.577083333333334,27.645833333333332,54.0,81.0
108,27.577083333333334,27.695833333333333,63.0,47.0
109,27.577083333333334,27.805208333333333,68.0,76.0
110,27.827083333333334,28.0625,70.0,72.0
111,27.827083333333334,28.157291666666666,63.0,65.0
112,28.077083333333334,28.226041666666667,71.0,65.0
113,27.827083333333334,28.287499999999998,46.0,82.0
114,28.327083333333334,28.76875,63.0,72.0
115,28.327083333333334,28.936458333333334,71.0,77.0
116,28.827083333333334,29.134375,56.0,54.0
117,29.077083333333334,29.24375,70.0,92.0
118,29.077083333333334,29.245833333333334,61.0,72.0
119,29.327083333333334,29.632291666666667,56.0,35.0
120,28.327083333333334,29.83125,44.0,74.0
121,28.577083333333334,29.84375,51.0,72.0
122,29.577083333333334,29.873958333333334,66.0,88.0
123,29.577083333333334,29.898958333333333,59.0,76.0
124,29.827083333333334,29.9875,56.0,57.0
125,30.327083333333334,30.671875,61.0,76.0
126,30.327083333333334,30.724999999999998,68.0,79.0
127,30.327083333333334,30.858333333333334,64.0,84.0
128,30.327083333333334,30.89375,71.0,66.0
129,30.577083333333334,31.223958333333332,56.0,54.0
130,31.077083333333334,31.474999999999998,63.0,78.0
131,31.077083333333334,31.483333333333334,68.0,84.0
132,30.827083333333334,31.494791666666668,61.0,41.0
133,31.577083333333334,31.7375,68.0,81.0
134,31.577083333333334,31.758333333333333,64.0,84.0
135,31.827083333333334,31.922916666666666,56.0,81.0
136,30.327083333333334,31.940625,49.0,82.0
137,32.327083333333334,32.65833333333333,63.0,94.0
138,32.327083333333334,32.704166666666666,58.0,86.0
139,32.327083333333334,32.719791666666666,56.0,68.0
140,32.827083333333334,33.05520833333333,56.0,60.0
141,33.077083333333334,33.20104166666667,58.0,85.0
142,32.577083333333334,33.315625,51.0,57.0
143,32.327083333333334,34.07083333333333,39.0,86.0
144,33.577083333333334,34.123958333333334,51.0,62.0
145,33.827083333333334,34.125,63.0,88.0
146,34.077083333333334,34.28125,68.0,74.0
147,34.327083333333334,35.577083333333334,70.0,88.0
148,34.327083333333334,35.59375,39.0,78.0
149,34.327083333333334,35.6,63.0,68.0
150,34.327083333333334,35.64270833333333,51.0,65.0
151,34.327083333333334,35.64479166666666,67.0,54.0
152,36.327083333333334,36.78854166666667,63.0,70.0
153,36.327083333333334,37.16354166666667,71.0,80.0
154,37.077083333333334,37.76354166666667,70.0,84.0
155,36.827083333333334,37.81041666666667,59.0,60.0
156,37.077083333333334,37.83229166666666,61.0,72.0
157,36.327083333333334,37.91458333333333,56.0,72.0
158,37.827083333333334,38.30104166666666,66.0,75.0
159,38.327083333333334,39.01770833333333,64.0,74.0
160,38.327083333333334,39.14270833333333,68.0,75.0
161,39.077083333333334,39.68541666666667,63.0,59.0
162,38.327083333333334,39.79270833333333,49.0,74.0
163,38.827083333333334,39.84791666666666,61.0,58.0
164,38.577083333333334,39.90625,56.0,52.0
165,39.577083333333334,40.208333333333336,64.0,78.0
166,40.327083333333334,40.74166666666667,66.0,73.0
167,40.327083333333334,40.80416666666667,70.0,77.0
168,40.827083333333334,41.186458333333334,61.0,58.0
169,41.077083333333334,41.626041666666666,66.0,75.0
170,40.577083333333334,41.686458333333334,58.0,76.0
171,40.327083333333334,41.729166666666664,54.0,67.0
172,41.577083333333334,41.934375,68.0,73.0
173,42.327083333333334,42.43125,66.0,53.0
174,42.327083333333334,42.81458333333333,63.0,57.0
175,42.327083333333334,42.827083333333334,71.0,67.0
176,43.077083333333334,43.6375,61.0,67.0
177,43.077083333333334,43.65416666666667,66.0,61.0
178,42.827083333333334,43.72083333333333,59.0,56.0
179,42.327083333333334,43.790625,47.0,78.0
180,42.577083333333334,43.807291666666664,54.0,55.0
181,43.577083333333334,43.873958333333334,63.0,78.0
182,44.327083333333334,44.827083333333334,64.0,76.0
183,44.327083333333334,45.2375,71.0,80.0
184,45.077083333333334,45.655208333333334,63.0,68.0
185,44.827083333333334,45.81041666666667,61.0,59.0
186,44.327083333333334,45.8375,49.0,82.0
187,44.577083333333334,45.88645833333333,56.0,53.0
188,45.577083333333334,45.91041666666666,64.0,80.0
189,46.327083333333334,46.73645833333333,70.0,84.0
190,46.577083333333334,47.29895833333333,63.0,57.0
191,46.827083333333334,47.47604166666667,68.0,53.0
192,47.077083333333334,47.675,71.0,79.0
193,46.327083333333334,47.744791666666664,56.0,73.0
194,47.577083333333334,47.811458333333334,63.0,62.0
195,47.827083333333334,48.22708333333333,75.0,76.0
196,48.327083333333334,48.626041666666666,73.0,82.0
197,48.827083333333334,49.291666666666664,61.0,61.0
198,48.577083333333334,49.317708333333336,56.0,59.0
199,49.077083333333334,49.327083333333334,64.0,71.0
200,48.327083333333334,49.33645833333333,49.0,76.0
201,50.327083333333334,50.65,63.0,68.0
202,50.327083333333334,50.780208333333334,70.0,79.0
203,50.577083333333334,51.17916666666667,58.0,70.0
204,50.827083333333334,51.28125,63.0,38.0
205,51.077083333333334,51.35729166666667,68.0,69.0
206,51.827083333333334,52.204166666666666,58.0,68.0
207,51.327083333333334,52.23020833333333,67.0,79.0
208,50.327083333333334,52.26145833333333,51.0,79.0
209,52.327083333333334,52.905208333333334,71.0,76.0
210,52.327083333333334,53.01145833333333,63.0,61.0
211,52.827083333333334,53.369791666666664,59.0,63.0
212,53.327083333333334,53.66041666666666,63.0,73.0
213,53.327083333333334,53.70520833333333,71.0,82.0
214,53.577083333333334,53.76354166666667,59.0,73.0
215,52.327083333333334,53.81458333333333,56.0,62.0
216,53.827083333333334,54.00625,63.0,68.0
217,53.827083333333334,54.074999999999996,70.0,83.0
218,54.077083333333334,54.172916666666666,70.0,46.0
219,54.077083333333334,54.453125,71.0,60.0
220,54.327083333333334,54.846875,64.0,75.0
221,54.327083333333334,54.884375,61.0,73.0
222,54.327083333333334,54.958333333333336,68.0,79.0
223,54.702083333333334,55.38854166666667,56.0,40.0
224,55.327083333333334,55.802083333333336,64.0,83.0
225,54.327083333333334,55.84375,49.0,72.0
226,55.827083333333334,55.86770833333333,52.0,61.0
227,55.327083333333334,55.88229166666667,61.0,75.0
228,55.327083333333334,55.89479166666666,68.0,78.0
229,55.827083333333334,55.911458333333336,56.0,73.0
230,56.327083333333334,56.891666666666666,70.0,75.0
231,56.327083333333334,56.918749999999996,66.0,78.0
232,56.327083333333334,56.936458333333334,61.0,68.0
233,57.077083333333334,57.24166666666667,61.0,35.0
234,56.827083333333334,57.43333333333333,54.0,6.0
235,57.327083333333334,57.77708333333333,64.0,81.0
236,57.327083333333334,57.79270833333333,66.0,77.0
237,57.327083333333334,57.795833333333334,70.0,77.0
238,56.327083333333334,57.821875,42.0,80.0
239,57.327083333333334,57.87708333333333,61.0,56.0
240,57.827083333333334,57.952083333333334,54.0,53.0
241,58.327083333333334,58.81041666666667,70.0,75.0
242,58.327083333333334,58.86145833333333,63.0,73.0
243,58.327083333333334,58.884375,66.0,74.0
244,59.077083333333334,59.452083333333334,61.0,68.0
245,59.327083333333334,59.530208333333334,63.0,75.0
246,58.827083333333334,59.608333333333334,59.0,44.0
247,59.577083333333334,59.63854166666667,61.0,44.0
248,59.577083333333334,59.64791666666667,63.0,19.0
249,58.327083333333334,59.942708333333336,47.0,82.0
250,59.577083333333334,59.953125,66.0,80.0
251,59.827083333333334,59.97708333333333,59.0,51.0
252,60.327083333333334,60.709375,56.0,72.0
253,60.327083333333334,60.907291666666666,68.0,77.0
254,60.327083333333334,60.947916666666664,59.0,74.0
255,60.327083333333334,61.047916666666666,64.0,79.0
256,60.827083333333334,61.33125,56.0,61.0
257,61.077083333333334,61.416666666666664,59.0,61.0
258,61.327083333333334,61.619791666666664,64.0,82.0
259,60.327083333333334,61.905208333333334,49.0,76.0
260,61.577083333333334,61.93958333333333,68.0,79.0
261,61.827083333333334,61.95625,70.0,80.0
262,61.827083333333334,61.978125,56.0,68.0
263,62.077083333333334,62.14479166666666,71.0,63.0
264,62.077083333333334,62.16979166666667,73.0,59.0
265,62.327083333333334,62.755208333333336,71.0,84.0
266,62.327083333333334,62.81666666666666,63.0,72.0
267,62.827083333333334,63.11875,56.0,53.0
268,63.077083333333334,63.199999999999996,61.0,77.0
269,63.077083333333334,63.20104166666667,70.0,84.0
270,63.202083333333334,63.553125,56.0,16.0
271,63.577083333333334,63.751041666666666,68.0,80.0
272,63.577083333333334,63.76145833333333,59.0,75.0
273,62.327083333333334,63.802083333333336,44.0,79.0
274,62.577083333333334,63.84375,51.0,72.0
275,63.827083333333334,64.02083333333333,56.0,49.0
276,64.32708333333333,64.64270833333333,59.0,83.0
277,64.32708333333333,64.68958333333333,64.0,82.0
278,64.32708333333333,64.71979166666667,68.0,77.0
279,64.32708333333333,64.91354166666666,40.0,72.0
280,64.57708333333333,64.93541666666667,52.0,61.0
281,64.82708333333333,65.06770833333333,59.0,73.0
282,65.07708333333333,65.25625,64.0,76.0
283,65.32708333333333,65.90208333333334,66.0,80.0
284,65.32708333333333,65.90416666666667,61.0,80.0
285,65.32708333333333,65.90520833333333,70.0,82.0
286,65.32708333333333,65.915625,42.0,72.0
287,65.32708333333333,65.99270833333333,54.0,48.0
288,66.32708333333333,67.15729166666667,63.0,75.0
289,66.32708333333333,67.45833333333333,71.0,82.0
290,67.32708333333333,67.62083333333334,63.0,71.0
291,67.57708333333333,67.771875,68.0,75.0
292,67.07708333333333,67.946875,56.0,38.0
293,66.32708333333333,68.028125,44.0,40.0
294,67.82708333333333,68.12083333333334,70.0,83.0
295,66.82708333333333,68.128125,51.0,19.0
296,68.07708333333333,68.215625,71.0,82.0
297,68.32708333333333,68.9875,63.0,77.0
298,68.32708333333333,69.02395833333333,71.0,83.0
299,68.32708333333333,69.10208333333333,68.0,78.0
300,68.32708333333333,69.58125,56.0,60.0
301,69.32708333333333,69.81041666666667,71.0,83.0
302,69.32708333333333,69.81979166666666,68.0,79.0
303,69.32708333333333,69.84479166666667,63.0,78.0
304,68.32708333333333,69.94375,44.0,79.0
305,69.82708333333333,69.984375,56.0,69.0
306,70.32708333333333,71.00104166666667,61.0,76.0
307,70.32708333333333,71.02083333333333,66.0,78.0
308,70.32708333333333,71.03229166666667,70.0,82.0
309,70.32708333333333,71.63333333333333,54.0,70.0
310,71.32708333333333,71.80833333333334,66.0,76.0
311,71.32708333333333,71.82395833333334,70.0,82.0
312,71.32708333333333,71.85625,61.0,76.0
313,71.82708333333333,71.96666666666667,54.0,74.0
314,70.32708333333333,71.99166666666666,42.0,83.0
315,72.32708333333333,72.82395833333334,64.0,79.0
316,72.32708333333333,72.85416666666667,59.0,46.0
317,72.32708333333333,72.8875,71.0,69.0
318,72.32708333333333,72.89895833333333,68.0,72.0
319,72.32708333333333,72.93541666666667,40.0,72.0
320,72.32708333333333,72.93645833333333,52.0,58.0
321,73.32708333333333,73.6375,64.0,42.0
322,73.32708333333333,73.66145833333333,59.0,75.0
323,73.32708333333333,73.66875,68.0,58.0
324,73.57708333333333,73.70208333333333,40.0,79.0
325,73.57708333333333,73.8125,52.0,71.0
326,73.82708333333333,74.0125,59.0,72.0
327,74.07708333333333,74.271875,66.0,79.0
328,74.32708333333333,75.003125,66.0,52.0
329,74.32708333333333,75.01354166666667,63.0,79.0
330,74.32708333333333,75.02708333333334,71.0,80.0
331,75.32708333333333,75.59270833333333,66.0,83.0
332,75.32708333333333,75.64375,61.0,76.0
333,75.57708333333333,75.75208333333333,63.0,76.0
334,75.32708333333333,75.88854166666667,59.0,59.0
335,74.32708333333333,75.9,47.0,78.0
336,74.82708333333333,75.9875,54.0,35.0
337,75.82708333333333,76.053125,66.0,76.0
338,76.07708333333333,76.43125,71.0,77.0
339,76.32708333333333,76.91458333333333,68.0,78.0
340,76.32708333333333,76.92604166666666,64.0,83.0
341,76.82708333333333,77.34791666666666,56.0,9.0
342,77.32708333333333,77.678125,61.0,76.0
343,77.32708333333333,77.75625,64.0,82.0
344,77.32708333333333,77.81458333333333,68.0,78.0
345,76.32708333333333,77.90833333333333,49.0,78.0
346,77.82708333333333,77.946875,56.0,73.0
347,78.32708333333333,78.81979166666666,66.0,82.0
348,78.32708333333333,78.88958333333333,63.0,76.0
349,78.32708333333333,79.12604166666667,71.0,81.0
350,79.32708333333333,79.50520833333333,71.0,77.0
351,79.32708333333333,79.65833333333333,63.0,73.0
352,79.07708333333333,79.728125,56.0,59.0
353,78.32708333333333,79.75729166666666,44.0,79.0
354,79.57708333333333,79.803125,68.0,76.0
355,78.82708333333333,79.825,51.0,69.0
356,79.82708333333333,80.09479166666667,70.0,83.0
357,80.32708333333333,80.80520833333333,59.0,78.0
358,80.07708333333333,80.91041666666666,71.0,82.0
359,80.32708333333333,80.971875,52.0,53.0
360,80.32708333333333,80.978125,40.0,78.0
361,80.32708333333333,81.08854166666667,64.0,55.0
362,80.32708333333333,81.08958333333334,68.0,81.0
363,81.32708333333333,81.45416666666667,61.0,57.0
364,81.45208333333333,81.58333333333333,68.0,56.0
365,81.82708333333333,82.02395833333333,64.0,80.0
366,82.07708333333333,82.26770833333333,68.0,76.0
367,82.32708333333333,82.68645833333333,76.0,80.0
368,82.32708333333333,82.75729166666666,68.0,70.0
369,83.20208333333333,83.53854166666666,59.0,54.0
370,83.32708333333333,83.63020833333333,64.0,86.0
371,83.57708333333333,83.87708333333333,68.0,78.0
372,82.32708333333333,83.93125,40.0,78.0
373,82.57708333333333,83.97604166666666,47.0,71.0
374,82.82708333333333,84.07395833333334,52.0,58.0
375,83.82708333333333,84.33541666666666,71.0,84.0
376,84.32708333333333,84.753125,42.0,78.0
377,84.57708333333333,84.80520833333333,49.0,75.0
378,84.82708333333333,85.11875,54.0,60.0
379,84.32708333333333,85.25520833333333,66.0,79.0
380,84.32708333333333,85.36145833333333,61.0,72.0
381,84.32708333333333,85.3875,70.0,84.0
382,85.32708333333333,85.57291666666667,58.0,82.0
383,85.07708333333333,85.57604166666667,56.0,63.0
384,85.57708333333333,85.77291666666666,61.0,69.0
385,85.82708333333333,86.13229166666666,66.0,77.0
386,86.07708333333333,86.3,68.0,75.0
387,86.32708333333333,86.8,66.0,61.0
388,86.32708333333333,86.83541666666666,70.0,90.0
389,86.32708333333333,86.853125,61.0,75.0
390,87.07708333333333,87.196875,61.0,44.0
391,86.82708333333333,87.578125,54.0,57.0
392,87.32708333333333,87.85729166666667,61.0,79.0
393,87.32708333333333,87.86875,66.0,77.0
394,86.32708333333333,87.93854166666667,42.0,82.0
395,87.32708333333333,87.93854166666667,73.0,83.0
396,87.82708333333333,87.96145833333333,54.0,74.0
397,88.32708333333333,88.43958333333333,66.0,58.0
398,88.32708333333333,88.76354166666667,47.0,79.0
399,88.57708333333333,88.83229166666666,54.0,69.0
400,88.82708333333333,89.16354166666666,59.0,42.0
401,88.32708333333333,89.415625,75.0,73.0
402,89.07708333333333,89.615625,61.0,72.0
403,89.32708333333333,89.628125,63.0,79.0
404,89.57708333333333,89.73229166666667,66.0,72.0
405,89.82708333333333,90.04166666666667,71.0,83.0
406,90.07708333333333,90.38125,75.0,76.0
407,90.32708333333333,90.753125,73.0,83.0
408,91.07708333333333,91.39270833333333,61.0,80.0
409,90.82708333333333,91.51770833333333,58.0,73.0
410,91.32708333333333,91.64166666666667,66.0,84.0
411,90.57708333333333,91.64895833333333,54.0,68.0
412,91.57708333333333,91.79791666666667,68.0,78.0
413,90.32708333333333,91.98958333333333,46.0,84.0
414,91.82708333333333,92.0,54.0,79.0
415,92.07708333333333,92.21666666666667,73.0,79.0
416,91.82708333333333,92.3625,70.0,84.0
417,92.32708333333333,92.590625,66.0,73.0
418,92.32708333333333,92.60833333333333,63.0,75.0
419,92.32708333333333,92.71770833333333,71.0,91.0
420,92.32708333333333,92.80416666666666,44.0,83.0
421,92.57708333333333,92.85729166666667,51.0,76.0
422,92.82708333333333,92.93020833333333,61.0,69.0
423,92.82708333333333,93.02291666666666,70.0,83.0
424,92.82708333333333,93.20416666666667,56.0,70.0
425,93.07708333333333,93.37291666666667,63.0,81.0
426,93.07708333333333,93.446875,58.0,76.0
427,93.07708333333333,93.51354166666667,71.0,84.0
428,93.32708333333333,93.68125,59.0,76.0
429,93.57708333333333,93.76875,58.0,69.0
430,93.57708333333333,93.85520833333334,61.0,81.0
431,93.57708333333333,94.06354166666667,70.0,83.0
432,93.82708333333333,94.09375,56.0,43.0
433,94.07708333333333,94.30104166666666,68.0,80.0
434,94.32708333333333,94.85729166666667,61.0,75.0
435,94.32708333333333,94.86979166666667,66.0,79.0
436,94.82708333333333,95.26770833333333,54.0,68.0
437,95.07708333333333,95.453125,61.0,76.0
438,95.32708333333333,95.603125,54.0,72.0
439,94.57708333333333,95.634375,51.0,73.0
440,95.57708333333333,95.875,61.0,80.0
441,94.32708333333333,95.93645833333333,42.0,82.0
442,95.82708333333333,95.93854166666667,54.0,61.0
443,95.82708333333333,95.95104166666667,51.0,80.0
444,95.57708333333333,95.9625,70.0,95.0
445,96.07708333333333,96.31145833333333,66.0,79.0
446,96.32708333333333,96.79791666666667,64.0,79.0
447,96.32708333333333,96.834375,68.0,82.0
448,96.32708333333333,96.89895833333333,59.0,76.0
449,96.82708333333333,97.33229166666666,52.0,72.0
450,97.07708333333333,97.47395833333333,59.0,78.0
451,97.45208333333333,97.65104166666667,52.0,73.0
452,97.82708333333333,97.96041666666666,52.0,73.0
453,97.57708333333333,97.96979166666667,59.0,86.0
454,97.57708333333333,97.975,64.0,93.0
455,96.32708333333333,98.00104166666667,40.0,83.0
456,96.57708333333333,98.00104166666667,47.0,82.0
457,98.07708333333333,98.265625,66.0,79.0
458,98.32708333333333,98.83229166666666,39.0,82.0
459,98.57708333333333,98.853125,46.0,73.0
460,98.82708333333333,99.12291666666667,49.0,75.0
461,98.32708333333333,99.34270833333333,70.0,90.0
462,98.32708333333333,99.37291666666667,66.0,80.0
463,98.32708333333333,99.434375,61.0,83.0
464,99.32708333333333,99.86354166666666,54.0,76.0
465,99.57708333333333,99.88958333333333,61.0,82.0
466,99.07708333333333,99.92395833333333,51.0,78.0
467,99.82708333333333,100.02916666666667,66.0,83.0
468,100.32708333333333,100.53645833333333,37.0,84.0
469,100.57708333333333,100.89583333333333,49.0,71.0
470,100.32708333333333,101.13854166666667,68.0,80.0
471,100.32708333333333,101.17395833333333,64.0,81.0
472,101.32708333333333,101.62916666666666,59.0,83.0
473,101.07708333333333,101.65208333333334,56.0,73.0
474,100.82708333333333,101.71770833333333,52.0,80.0
475,101.57708333333333,101.746875,64.0,83.0
476,101.82708333333333,102.015625,66.0,76.0
477,102.07708333333333,102.22083333333333,71.0,90.0
478,102.32708333333333,102.78958333333333,70.0,86.0
479,102.32708333333333,103.11041666666667,42.0,83.0
480,102.82708333333333,103.13958333333333,54.0,78.0
481,102.57708333333333,103.35416666666667,49.0,79.0
482,103.07708333333333,103.40416666666667,64.0,84.0
483,103.07708333333333,103.41354166666666,59.0,83.0
484,103.07708333333333,103.46458333333334,68.0,83.0
485,103.32708333333333,103.71979166666667,42.0,80.0
486,103.57708333333333,103.86354166666666,59.0,84.0
487,103.82708333333333,104.13645833333334,44.0,76.0
488,104.07708333333333,104.18333333333334,46.0,84.0
489,103.57708333333333,104.190625,64.0,84.0
490,103.57708333333333,104.20729166666666,71.0,91.0
491,104.45208333333333,104.52083333333333,70.0,56.0
492,105.07708333333333,105.19375,63.0,80.0
493,105.07708333333333,105.209375,71.0,86.0
494,104.82708333333333,105.28854166666666,59.0,68.0
495,105.32708333333333,105.5125,63.0,81.0
496,105.32708333333333,105.53020833333333,71.0,95.0
497,104.57708333333333,105.63854166666667,54.0,75.0
498,105.45208333333333,105.715625,59.0,59.0
499,105.70208333333333,105.87708333333333,64.0,79.0
500,105.70208333333333,105.903125,73.0,86.0
501,104.32708333333333,105.9375,47.0,90.0
502,105.82708333333333,106.22604166666666,54.0,70.0
503,106.07708333333333,106.22916666666667,66.0,74.0
504,106.07708333333333,106.23125,75.0,81.0
505,106.32708333333333,106.72812499999999,73.0,91.0
506,106.32708333333333,106.834375,64.0,82.0
507,107.07708333333333,107.140625,63.0,59.0
508,107.07708333333333,107.36041666666667,61.0,63.0
509,106.57708333333333,107.50520833333333,54.0,63.0
510,107.32708333333333,107.515625,66.0,82.0
511,107.57708333333333,107.61666666666666,66.0,33.0
512,106.82708333333333,107.80104166666666,58.0,71.0
513,107.57708333333333,107.80104166666666,68.0,79.0
514,106.32708333333333,107.91458333333333,51.0,82.0
515,107.82708333333333,107.975,54.0,78.0
516,107.82708333333333,108.03333333333333,70.0,81.0
517,108.07708333333333,108.21979166666667,73.0,80.0
518,108.32708333333333,108.371875,66.0,56.0
519,108.32708333333333,108.65416666666667,63.0,79.0
520,108.32708333333333,108.76770833333333,71.0,86.0
521,108.82708333333333,108.93333333333334,61.0,69.0
522,108.82708333333333,109.015625,70.0,82.0
523,109.07708333333333,109.17291666666667,63.0,80.0
524,109.07708333333333,109.203125,71.0,90.0
525,108.57708333333333,109.41666666666667,51.0,53.0
526,109.07708333333333,109.66354166666666,56.0,47.0
527,109.57708333333333,109.66354166666666,64.0,84.0
528,109.57708333333333,109.67708333333333,73.0,90.0
529,108.32708333333333,109.975,44.0,74.0
530,109.82708333333333,110.240625,51.0,79.0
531,110.07708333333333,110.40416666666667,75.0,84.0
532,110.07708333333333,110.46770833333333,66.0,77.0
533,110.32708333333333,110.984375,42.0,80.0
534,110.82708333333333,110.98854166666666,54.0,71.0
535,110.57708333333333,111.03854166666666,51.0,75.0
536,111.07708333333333,111.20625,58.0,55.0
537,111.32708333333333,111.53645833333333,65.0,48.0
538,111.32708333333333,111.64479166666666,60.0,51.0
539,111.32708333333333,111.68958333333333,69.0,63.0
540,111.32708333333333,111.69687499999999,53.0,53.0
541,111.32708333333333,111.80624999999999,41.0,67.0
542,112.07708333333333,112.29062499999999,64.0,76.0
543,112.32708333333333,112.77708333333334,59.0,76.0
544,112.32708333333333,112.79166666666667,68.0,82.0
545,112.32708333333333,112.84479166666667,64.0,57.0
546,113.07708333333333,113.24791666666667,59.0,80.0
547,112.82708333333333,113.36770833333333,52.0,69.0
548,113.32708333333333,113.6625,59.0,84.0
549,113.32708333333333,113.67604166666666,68.0,83.0
550,113.32708333333333,113.69375,64.0,84.0
551,112.57708333333333,113.69791666666667,47.0,79.0
552,113.57708333333333,113.93541666666667,52.0,63.0
553,112.32708333333333,114.059375,40.0,82.0
554,113.82708333333333,114.08854166666667,59.0,81.0
555,114.07708333333333,114.22708333333333,47.0,84.0
556,114.07708333333333,114.24583333333334,66.0,79.0
557,114.32708333333333,114.58229166666666,39.0,60.0
558,114.57708333333333,114.88854166666667,51.0,72.0
559,114.32708333333333,115.17916666666666,61.0,72.0
560,114.32708333333333,115.17916666666666,66.0,80.0
561,114.32708333333333,115.23958333333333,70.0,80.0
562,115.07708333333333,115.85520833333334,58.0,84.0
563,114.82708333333333,115.88958333333333,54.0,71.0
564,115.32708333333333,115.90625,61.0,80.0
565,115.57708333333333,116.065625,66.0,82.0
566,115.82708333333333,116.190625,70.0,90.0
567,116.07708333333333,116.36041666666667,73.0,84.0
568,116.32708333333333,116.85312499999999,68.0,79.0
569,116.32708333333333,116.86770833333333,64.0,84.0
570,117.07708333333333,117.37604166666667,63.0,82.0
571,117.32708333333333,117.425,64.0,86.0
572,116.82708333333333,117.43124999999999,61.0,68.0
573,117.57708333333333,117.78854166666666,61.0,79.0
574,116.32708333333333,117.86145833333333,49.0,80.0
575,116.57708333333333,117.87291666666667,56.0,56.0
576,117.82708333333333,118.0625,68.0,48.0
577,118.07708333333333,118.2875,75.0,80.0
578,118.32708333333333,118.75416666666666,42.0,59.0
579,118.57708333333333,118.81458333333333,49.0,72.0
580,118.82708333333333,119.146875,54.0,59.0
581,118.32708333333333,119.21458333333334,71.0,68.0
582,118.32708333333333,119.21770833333333,76.0,93.0
583,119.32708333333333,119.79375,59.0,79.0
584,119.07708333333333,119.86145833333333,56.0,76.0
585,119.82708333333333,120.05,64.0,83.0
586,120.07708333333333,120.26666666666667,66.0,78.0
587,120.32708333333333,120.86770833333333,66.0,69.0
588,120.32708333333333,120.92916666666666,63.0,78.0
589,120.32708333333333,121.04062499999999,71.0,82.0
590,121.45208333333333,121.51770833333333,64.0,50.0
591,121.45208333333333,121.54583333333333,68.0,60.0
592,121.57708333333333,122.03333333333333,64.0,86.0
593,120.32708333333333,122.14375,47.0,82.0
594,121.57708333333333,122.2,68.0,83.0
595,122.32708333333333,123.38854166666667,66.0,80.0
596,120.82708333333333,123.41354166666666,54.0,52.0
597,122.32708333333333,123.41770833333334,63.0,78.0
598,122.07708333333333,123.43229166666667,59.0,40.0
599,122.32708333333333,123.51458333333333,47.0,82.0
600,124.32708333333333,124.81770833333333,71.0,70.0
601,124.32708333333333,124.89375,68.0,58.0
602,124.32708333333333,124.95416666666667,75.0,74.0
603,125.32708333333333,125.89895833333333,71.0,72.0
604,125.32708333333333,125.91145833333333,63.0,50.0
605,125.32708333333333,125.921875,68.0,58.0
606,124.32708333333333,125.99270833333333,52.0,74.0
607,124.82708333333333,126.00625,59.0,43.0
608,126.32708333333333,126.78854166666666,70.0,78.0
609,126.32708333333333,126.81875,66.0,56.0
610,126.32708333333333,127.02708333333334,73.0,79.0
611,127.07708333333333,127.59791666666666,66.0,55.0
612,127.32708333333333,127.73020833333334,78.0,71.0
613,127.57708333333333,127.87291666666667,61.0,69.0
614,126.82708333333333,127.93124999999999,58.0,45.0
615,126.32708333333333,127.98958333333333,51.0,80.0
616,127.82708333333333,128.0625,73.0,80.0
617,128.07708333333332,128.30416666666667,75.0,72.0
618,128.32708333333332,128.72291666666666,66.0,59.0
619,128.32708333333332,128.75208333333333,71.0,75.0
620,129.32708333333332,129.66666666666666,61.0,50.0
621,128.82708333333332,129.784375,56.0,45.0
622,128.32708333333332,129.81354166666665,49.0,75.0
623,130.32708333333332,130.69895833333334,73.0,78.0
624,130.32708333333332,130.759375,66.0,59.0
625,130.82708333333332,131.38125,54.0,36.0
626,131.32708333333332,131.66354166666667,59.0,47.0
627,131.32708333333332,131.75833333333333,71.0,86.0
628,131.32708333333332,131.77708333333334,63.0,75.0
629,130.32708333333332,131.846875,47.0,76.0
630,131.82708333333332,131.92291666666665,54.0,83.0
631,132.32708333333332,132.87395833333332,64.0,82.0
632,132.32708333333332,132.89270833333333,69.0,83.0
633,132.32708333333332,132.91145833333334,61.0,76.0
634,133.07708333333332,133.675,57.0,76.0
635,133.32708333333332,133.675,59.0,62.0
636,133.57708333333332,133.959375,64.0,84.0
637,132.32708333333332,134.14583333333334,45.0,84.0
638,134.07708333333332,134.14791666666667,64.0,72.0
639,134.07708333333332,134.165625,59.0,76.0
640,133.82708333333332,134.20104166666667,57.0,39.0
641,134.07708333333332,134.50625,66.0,86.0
642,134.57708333333332,134.66770833333334,64.0,63.0
643,134.57708333333332,134.69479166666667,61.0,83.0
644,134.57708333333332,134.71041666666667,69.0,94.0
645,135.07708333333332,135.36979166666666,57.0,73.0
646,135.32708333333332,135.63854166666667,64.0,79.0
647,135.32708333333332,135.653125,59.0,80.0
648,135.32708333333332,135.73854166666666,68.0,83.0
649,135.57708333333332,135.81041666666667,57.0,75.0
650,132.82708333333332,135.86145833333333,52.0,73.0
651,134.32708333333332,135.98854166666666,45.0,76.0
652,135.82708333333332,136.16041666666666,66.0,79.0
653,136.07708333333332,136.29479166666667,68.0,76.0
654,136.32708333333332,136.92291666666665,64.0,80.0
655,136.32708333333332,136.94270833333334,71.0,82.0
656,136.32708333333332,136.94895833333334,59.0,79.0
657,137.07708333333332,137.39479166666666,59.0,75.0
658,137.32708333333332,137.58958333333334,64.0,80.0
659,137.57708333333332,137.81458333333333,66.0,75.0
660,137.82708333333332,137.91979166666667,71.0,75.0
661,138.07708333333332,138.428125,73.0,61.0
662,136.57708333333332,138.809375,49.0,71.0
663,136.82708333333332,138.81458333333333,54.0,68.0
664,138.32708333333332,138.828125,78.0,80.0
665,136.32708333333332,138.90833333333333,42.0,75.0
666,140.32708333333332,140.78854166666667,63.0,70.0
667,140.32708333333332,141.16354166666667,71.0,80.0
668,141.07708333333332,141.76354166666667,70.0,84.0
669,140.82708333333332,141.81041666666667,59.0,60.0
670,141.07708333333332,141.83229166666666,61.0,72.0
671,140.32708333333332,141.91458333333333,56.0,72.0
672,141.82708333333332,142.30104166666666,66.0,75.0
673,142.32708333333332,143.01770833333333,64.0,74.0
674,142.32708333333332,143.14270833333333,68.0,75.0
675,143.07708333333332,143.68541666666667,63.0,59.0
676,142.32708333333332,143.79270833333334,49.0,74.0
677,142.82708333333332,143.84791666666666,61.0,58.0
678,142.57708333333332,143.90625,56.0,52.0
679,143.57708333333332,144.20833333333334,64.0,78.0
680,144.32708333333332,144.74166666666667,66.0,73.0
681,144.32708333333332,144.80416666666667,70.0,77.0
682,144.82708333333332,145.18645833333332,61.0,58.0
683,145.07708333333332,145.62604166666665,66.0,75.0
684,144.57708333333332,145.68645833333332,58.0,76.0
685,144.32708333333332,145.72916666666666,54.0,67.0
686,145.57708333333332,145.934375,68.0,73.0
687,146.32708333333332,146.43125,66.0,53.0
688,146.32708333333332,146.81458333333333,63.0,57.0
689,146.32708333333332,146.82708333333332,71.0,67.0
690,147.07708333333332,147.6375,61.0,67.0
691,147.07708333333332,147.65416666666667,66.0,61.0
692,146.82708333333332,147.72083333333333,59.0,56.0
693,146.32708333333332,147.790625,47.0,78.0
694,146.57708333333332,147.80729166666666,54.0,55.0
695,147.57708333333332,147.87395833333332,63.0,78.0
696,148.32708333333332,148.82708333333332,64.0,76.0
697,148.32708333333332,149.2375,71.0,80.0
698,149.07708333333332,149.65520833333332,63.0,68.0
699,148.82708333333332,149.81041666666667,61.0,59.0
700,148.32708333333332,149.8375,49.0,82.0
701,148.57708333333332,149.88645833333334,56.0,53.0
702,149.57708333333332,149.91041666666666,64.0,80.0
703,150.32708333333332,150.73645833333333,70.0,84.0
704,150.57708333333332,151.29895833333333,63.0,57.0
705,150.82708333333332,151.47604166666667,68.0,53.0
706,151.07708333333332,151.675,71.0,79.0
707,150.32708333333332,151.74479166666666,56.0,73.0
708,151.57708333333332,151.81145833333332,63.0,62.0
709,151.82708333333332,152.22708333333333,75.0,76.0
710,152.32708333333332,152.68020833333333,64.0,81.0
711,152.32708333333332,152.73958333333334,68.0,79.0
712,152.82708333333332,153.79270833333334,64.0,71.0
713,153.07708333333332,153.85,71.0,80.0
714,153.82708333333332,153.85,71.0,73.0
715,152.57708333333332,153.859375,59.0,71.0
716,153.32708333333332,153.86145833333333,76.0,84.0
717,152.32708333333332,153.871875,52.0,79.0
718,153.82708333333332,154.18020833333333,63.0,61.0
719,154.32708333333332,154.65,63.0,68.0
720,154.32708333333332,154.78020833333332,70.0,79.0
721,154.57708333333332,155.17916666666667,58.0,70.0
722,154.82708333333332,155.28125,63.0,38.0
723,155.07708333333332,155.35729166666667,68.0,69.0
724,155.82708333333332,156.20416666666665,58.0,68.0
725,155.32708333333332,156.23020833333334,67.0,79.0
726,154.32708333333332,156.26145833333334,51.0,79.0
727,156.32708333333332,156.90520833333332,71.0,76.0
728,156.32708333333332,157.01145833333334,63.0,61.0
729,156.82708333333332,157.36979166666666,59.0,63.0
730,157.32708333333332,157.66041666666666,63.0,73.0
731,157.32708333333332,157.70520833333333,71.0,82.0
732,157.57708333333332,157.76354166666667,59.0,73.0
733,156.32708333333332,157.81458333333333,56.0,62.0
734,157.82708333333332,158.00625,63.0,68.0
735,157.82708333333332,158.075,70.0,83.0
736,158.07708333333332,158.17291666666665,70.0,46.0
737,158.07708333333332,158.453125,71.0,60.0
738,158.32708333333332,158.846875,64.0,75.0
739,158.32708333333332,158.884375,61.0,73.0
740,158.32708333333332,158.95833333333334,68.0,79.0
741,158.70208333333332,159.38854166666667,56.0,40.0
742,159.32708333333332,159.80208333333334,64.0,83.0
743,158.32708333333332,159.84375,49.0,72.0
744,159.82708333333332,159.86770833333333,52.0,61.0
745,159.32708333333332,159.88229166666667,61.0,75.0
746,159.32708333333332,159.89479166666666,68.0,78.0
747,159.82708333333332,159.91145833333334,56.0,73.0
748,160.32708333333332,160.89166666666665,70.0,75.0
749,160.32708333333332,160.91875,66.0,78.0
750,160.32708333333332,160.93645833333332,61.0,68.0
751,161.07708333333332,161.24166666666667,61.0,35.0
752,160.82708333333332,161.43333333333334,54.0,6.0
753,161.32708333333332,161.77708333333334,64.0,81.0
754,161.32708333333332,161.79270833333334,66.0,77.0
755,161.32708333333332,161.79583333333332,70.0,77.0
756,160.32708333333332,161.821875,42.0,80.0
757,161.32708333333332,161.87708333333333,61.0,56.0
758,161.82708333333332,161.95208333333332,54.0,53.0
759,162.32708333333332,162.81041666666667,70.0,75.0
760,162.32708333333332,162.86145833333333,63.0,73.0
761,162.32708333333332,162.884375,66.0,74.0
762,163.07708333333332,163.45208333333332,61.0,68.0
763,163.32708333333332,163.53020833333332,63.0,75.0
764,162.82708333333332,163.60833333333332,59.0,44.0
765,163.57708333333332,163.63854166666667,61.0,44.0
766,163.57708333333332,163.64791666666667,63.0,19.0
767,162.32708333333332,163.94270833333334,47.0,82.0
768,163.57708333333332,163.953125,66.0,80.0
769,163.82708333333332,163.97708333333333,59.0,51.0
770,164.32708333333332,164.709375,56.0,72.0
771,164.32708333333332,164.90729166666665,68.0,77.0
772,164.32708333333332,164.94791666666666,59.0,74.0
773,164.32708333333332,165.04791666666665,64.0,79.0
774,164.82708333333332,165.33125,56.0,61.0
775,165.07708333333332,165.41666666666666,59.0,61.0
776,165.32708333333332,165.61979166666666,64.0,82.0
777,164.32708333333332,165.90520833333332,49.0,76.0
778,165.57708333333332,165.93958333333333,68.0,79.0
779,165.82708333333332,165.95625,70.0,80.0
780,165.82708333333332,165.978125,56.0,68.0
781,166.07708333333332,166.14479166666666,71.0,63.0
782,166.07708333333332,166.16979166666667,73.0,59.0
783,166.32708333333332,166.75520833333334,71.0,84.0
784,166.32708333333332,166.81666666666666,63.0,72.0
785,166.82708333333332,167.11875,56.0,53.0
786,167.07708333333332,167.2,61.0,77.0
787,167.07708333333332,167.20104166666667,70.0,84.0
788,167.20208333333332,167.553125,56.0,16.0
789,167.57708333333332,167.75104166666665,68.0,80.0
790,167.57708333333332,167.76145833333334,59.0,75.0
791,166.32708333333332,167.80208333333334,44.0,79.0
792,166.57708333333332,167.84375,51.0,72.0
793,167.82708333333332,168.02083333333334,56.0,49.0
794,168.32708333333332,168.64270833333333,59.0,83.0
795,168.32708333333332,168.68958333333333,64.0,82.0
796,168.32708333333332,168.71979166666665,68.0,77.0
797,168.32708333333332,168.91354166666667,40.0,72.0
798,168.57708333333332,168.93541666666667,52.0,61.0
799,168.82708333333332,169.06770833333334,59.0,73.0
800,169.07708333333332,169.25625,64.0,76.0
801,169.32708333333332,169.90208333333334,66.0,80.0
802,169.32708333333332,169.90416666666667,61.0,80.0
803,169.32708333333332,169.90520833333332,70.0,82.0
804,169.32708333333332,169.915625,42.0,72.0
805,169.32708333333332,169.99270833333333,54.0,48.0
806,170.32708333333332,171.15729166666665,63.0,75.0
807,170.32708333333332,171.45833333333334,71.0,82.0
808,171.32708333333332,171.62083333333334,63.0,71.0
809,171.57708333333332,171.771875,68.0,75.0
810,171.07708333333332,171.946875,56.0,38.0
811,170.32708333333332,172.028125,44.0,40.0
812,171.82708333333332,172.12083333333334,70.0,83.0
813,170.82708333333332,172.128125,51.0,19.0
814,172.07708333333332,172.215625,71.0,82.0
815,172.32708333333332,172.9875,63.0,77.0
816,172.32708333333332,173.02395833333333,71.0,83.0
817,172.32708333333332,173.10208333333333,68.0,78.0
818,172.32708333333332,173.58125,56.0,60.0
819,173.32708333333332,173.81041666666667,71.0,83.0
820,173.32708333333332,173.81979166666667,68.0,79.0
821,173.32708333333332,173.84479166666665,63.0,78.0
822,172.32708333333332,173.94375,44.0,79.0
823,173.82708333333332,173.984375,56.0,69.0
824,174.32708333333332,175.00104166666665,61.0,76.0
825,174.32708333333332,175.02083333333334,66.0,78.0
826,174.32708333333332,175.03229166666665,70.0,82.0
827,174.32708333333332,175.63333333333333,54.0,70.0
828,175.32708333333332,175.80833333333334,66.0,76.0
829,175.32708333333332,175.82395833333334,70.0,82.0
830,175.32708333333332,175.85625,61.0,76.0
831,175.82708333333332,175.96666666666667,54.0,74.0
832,174.32708333333332,175.99166666666667,42.0,83.0
833,176.32708333333332,176.82395833333334,64.0,79.0
834,176.32708333333332,176.85416666666666,59.0,46.0
835,176.32708333333332,176.8875,71.0,69.0
836,176.32708333333332,176.89895833333333,68.0,72.0
837,176.32708333333332,176.93541666666667,40.0,72.0
838,176.32708333333332,176.93645833333332,52.0,58.0
839,177.32708333333332,177.6375,64.0,42.0
840,177.32708333333332,177.66145833333334,59.0,75.0
841,177.32708333333332,177.66875,68.0,58.0
842,177.57708333333332,177.70208333333332,40.0,79.0
843,177.57708333333332,177.8125,52.0,71.0
844,177.82708333333332,178.0125,59.0,72.0
845,178.07708333333332,178.271875,66.0,79.0
846,178.32708333333332,179.003125,66.0,52.0
847,178.32708333333332,179.01354166666667,63.0,79.0
848,178.32708333333332,179.02708333333334,71.0,80.0
849,179.32708333333332,179.59270833333332,66.0,83.0
850,179.32708333333332,179.64375,61.0,76.0
851,179.57708333333332,179.75208333333333,63.0,76.0
852,179.32708333333332,179.88854166666667,59.0,59.0
853,178.32708333333332,179.9,47.0,78.0
854,178.82708333333332,179.9875,54.0,35.0
855,179.82708333333332,180.053125,66.0,76.0
856,180.07708333333332,180.43125,71.0,77.0
857,180.32708333333332,180.91458333333333,68.0,78.0
858,180.32708333333332,180.92604166666666,64.0,83.0
859,180.82708333333332,181.34791666666666,56.0,9.0
860,181.32708333333332,181.678125,61.0,76.0
861,181.32708333333332,181.75625,64.0,82.0
862,181.32708333333332,181.81458333333333,68.0,78.0
863,180.32708333333332,181.90833333333333,49.0,78.0
864,181.82708333333332,181.946875,56.0,73.0
865,182.32708333333332,182.81979166666667,66.0,82.0
866,182.32708333333332,182.88958333333332,63.0,76.0
867,182.32708333333332,183.12604166666665,71.0,81.0
868,183.32708333333332,183.50520833333334,71.0,77.0
869,183.32708333333332,183.65833333333333,63.0,73.0
870,183.07708333333332,183.728125,56.0,59.0
871,182.32708333333332,183.75729166666667,44.0,79.0
872,183.57708333333332,183.803125,68.0,76.0
873,182.82708333333332,183.825,51.0,69.0
874,183.82708333333332,184.09479166666665,70.0,83.0
875,184.32708333333332,184.80520833333333,59.0,78.0
876,184.07708333333332,184.91041666666666,71.0,82.0
877,184.32708333333332,184.971875,52.0,53.0
878,184.32708333333332,184.978125,40.0,78.0
879,184.32708333333332,185.08854166666666,64.0,55.0
880,184.32708333333332,185.08958333333334,68.0,81.0
881,185.32708333333332,185.45416666666665,61.0,57.0
882,185.45208333333332,185.58333333333334,68.0,56.0
883,185.82708333333332,186.02395833333333,64.0,80.0
884,186.07708333333332,186.26770833333333,68.0,76.0
885,186.32708333333332,186.68645833333332,76.0,80.0
886,186.32708333333332,186.75729166666667,68.0,70.0
887,187.20208333333332,187.53854166666667,59.0,54.0
888,187.32708333333332,187.63020833333334,64.0,86.0
889,187.57708333333332,187.87708333333333,68.0,78.0
890,186.32708333333332,187.93125,40.0,78.0
891,186.57708333333332,187.97604166666667,47.0,71.0
892,186.82708333333332,188.07395833333334,52.0,58.0
893,187.82708333333332,188.33541666666667,71.0,84.0
894,188.32708333333332,188.753125,42.0,78.0
895,188.57708333333332,188.80520833333333,49.0,75.0
896,188.82708333333332,189.11875,54.0,60.0
897,188.32708333333332,189.25520833333334,66.0,79.0
898,188.32708333333332,189.36145833333333,61.0,72.0
899,188.32708333333332,189.3875,70.0,84.0
900,189.32708333333332,189.57291666666666,58.0,82.0
901,189.07708333333332,189.57604166666667,56.0,63.0
902,189.57708333333332,189.77291666666667,61.0,69.0
903,189.82708333333332,190.13229166666667,66.0,77.0
904,190.07708333333332,190.3,68.0,75.0
905,190.32708333333332,190.8,66.0,61.0
906,190.32708333333332,190.83541666666667,70.0,90.0
907,190.32708333333332,190.853125,61.0,75.0
908,191.07708333333332,191.196875,61.0,44.0
909,190.82708333333332,191.578125,54.0,57.0
910,191.32708333333332,191.85729166666667,61.0,79.0
911,191.32708333333332,191.86875,66.0,77.0
912,190.32708333333332,191.93854166666665,42.0,82.0
913,191.32708333333332,191.93854166666665,73.0,83.0
914,191.82708333333332,191.96145833333333,54.0,74.0
915,192.32708333333332,192.43958333333333,66.0,58.0
916,192.32708333333332,192.76354166666667,47.0,79.0
917,192.57708333333332,192.83229166666666,54.0,69.0
918,192.82708333333332,193.16354166666667,59.0,42.0
919,192.32708333333332,193.415625,75.0,73.0
920,193.07708333333332,193.615625,61.0,72.0
921,193.32708333333332,193.628125,63.0,79.0
922,193.57708333333332,193.73229166666667,66.0,72.0
923,193.82708333333332,194.04166666666666,71.0,83.0
924,194.07708333333332,194.38125,75.0,76.0
925,194.32708333333332,194.753125,73.0,83.0
926,195.07708333333332,195.39270833333333,61.0,80.0
927,194.82708333333332,195.51770833333333,58.0,73.0
928,195.32708333333332,195.64166666666665,66.0,84.0
929,194.57708333333332,195.64895833333333,54.0,68.0
930,195.57708333333332,195.79791666666665,68.0,78.0
931,194.32708333333332,195.98958333333334,46.0,84.0
932,195.82708333333332,196.0,54.0,79.0
933,196.07708333333332,196.21666666666667,73.0,79.0
934,195.82708333333332,196.3625,70.0,84.0
935,196.32708333333332,196.590625,66.0,73.0
936,196.32708333333332,196.60833333333332,63.0,75.0
937,196.32708333333332,196.71770833333332,71.0,91.0
938,196.32708333333332,196.80416666666667,44.0,83.0
939,196.57708333333332,196.85729166666667,51.0,76.0
940,196.82708333333332,196.93020833333333,61.0,69.0
941,196.82708333333332,197.02291666666667,70.0,83.0
942,196.82708333333332,197.20416666666665,56.0,70.0
943,197.07708333333332,197.37291666666667,63.0,81.0
944,197.07708333333332,197.446875,58.0,76.0
945,197.07708333333332,197.51354166666667,71.0,84.0
946,197.32708333333332,197.68125,59.0,76.0
947,197.57708333333332,197.76875,58.0,69.0
948,197.57708333333332,197.85520833333334,61.0,81.0
949,197.57708333333332,198.06354166666665,70.0,83.0
950,197.82708333333332,198.09375,56.0,43.0
951,198.07708333333332,198.18020833333333,52.0,80.0
952,198.07708333333332,198.30104166666666,68.0,80.0
953,198.32708333333332,198.74166666666667,42.0,78.0
954,198.57708333333332,198.83645833333333,51.0,63.0
955,198.32708333333332,198.9875,61.0,75.0
956,198.82708333333332,199.128125,54.0,63.0
957,198.32708333333332,199.32604166666667,70.0,86.0
958,199.32708333333332,199.83958333333334,61.0,82.0
959,199.07708333333332,199.846875,58.0,80.0
960,199.57708333333332,199.89166666666665,66.0,81.0
961,199.82708333333332,200.05,70.0,84.0
962,200.07708333333332,200.12604166666665,71.0,71.0
963,200.32708333333332,200.79791666666665,64.0,79.0
964,200.32708333333332,200.834375,68.0,82.0
965,200.32708333333332,200.89895833333333,59.0,76.0
966,200.82708333333332,201.33229166666666,52.0,72.0
967,201.07708333333332,201.47395833333334,59.0,78.0
968,201.45208333333332,201.65104166666666,52.0,73.0
969,201.82708333333332,201.96041666666667,52.0,73.0
970,201.57708333333332,201.96979166666665,59.0,86.0
971,201.57708333333332,201.975,64.0,93.0
972,200.32708333333332,202.00104166666665,40.0,83.0
973,200.57708333333332,202.00104166666665,47.0,82.0
974,202.07708333333332,202.265625,66.0,79.0
975,202.32708333333332,202.83229166666666,39.0,82.0
976,202.57708333333332,202.853125,46.0,73.0
977,202.82708333333332,203.12291666666667,49.0,75.0
978,202.32708333333332,203.34270833333332,70.0,90.0
979,202.32708333333332,203.37291666666667,66.0,80.0
980,202.32708333333332,203.434375,61.0,83.0
981,203.32708333333332,203.86354166666666,54.0,76.0
982,203.57708333333332,203.88958333333332,61.0,82.0
983,203.07708333333332,203.92395833333333,51.0,78.0
984,203.82708333333332,204.02916666666667,66.0,83.0
985,204.07708333333332,204.19583333333333,70.0,82.0
986,204.32708333333332,204.53645833333334,37.0,84.0
987,204.57708333333332,204.89583333333334,49.0,71.0
988,204.32708333333332,205.13854166666667,68.0,80.0
989,204.32708333333332,205.17395833333333,64.0,81.0
990,205.32708333333332,205.62916666666666,59.0,83.0
991,205.07708333333332,205.65208333333334,56.0,73.0
992,204.82708333333332,205.71770833333332,52.0,80.0
993,205.57708333333332,205.746875,64.0,83.0
994,205.82708333333332,206.015625,66.0,76.0
995,206.07708333333332,206.22083333333333,71.0,90.0
996,206.32708333333332,206.78958333333333,70.0,86.0
997,206.32708333333332,207.11041666666665,42.0,83.0
998,206.82708333333332,207.13958333333332,54.0,78.0
999,206.57708333333332,207.35416666666666,49.0,79.0
1000,207.07708333333332,207.40416666666667,64.0,84.0
1001,207.07708333333332,207.41354166666667,59.0,83.0
1002,207.07708333333332,207.46458333333334,68.0,83.0
1003,207.32708333333332,207.71979166666665,42.0,80.0
1004,207.57708333333332,207.86354166666666,59.0,84.0
1005,207.82708333333332,208.13645833333334,44.0,76.0
1006,208.07708333333332,208.18333333333334,46.0,84.0
1007,207.57708333333332,208.19062499999998,64.0,84.0
1008,207.57708333333332,208.20729166666666,71.0,91.0
1009,208.45208333333332,208.52083333333334,70.0,56.0
1010,209.07708333333332,209.19375,63.0,80.0
1011,209.07708333333332,209.209375,71.0,86.0
1012,208.82708333333332,209.28854166666667,59.0,68.0
1013,209.32708333333332,209.5125,63.0,81.0
1014,209.32708333333332,209.53020833333332,71.0,95.0
1015,208.57708333333332,209.63854166666667,54.0,75.0
1016,209.45208333333332,209.715625,59.0,59.0
1017,209.70208333333332,209.87708333333333,64.0,79.0
1018,209.70208333333332,209.903125,73.0,86.0
1019,208.32708333333332,209.9375,47.0,90.0
1020,209.82708333333332,210.22604166666667,54.0,70.0
1021,210.07708333333332,210.22916666666666,66.0,74.0
1022,210.07708333333332,210.23125,75.0,81.0
1023,210.32708333333332,210.728125,73.0,91.0
1024,210.32708333333332,210.834375,66.0,82.0
1025,211.07708333333332,211.36041666666665,61.0,63.0
1026,210.57708333333332,211.50520833333334,54.0,63.0
1027,211.32708333333332,211.515625,66.0,82.0
1028,211.57708333333332,211.61666666666667,66.0,33.0
1029,210.82708333333332,211.80104166666666,58.0,71.0
1030,211.57708333333332,211.80104166666666,68.0,79.0
1031,210.32708333333332,211.91458333333333,46.0,82.0
1032,211.82708333333332,211.975,54.0,78.0
1033,211.82708333333332,212.03333333333333,70.0,81.0
1034,212.07708333333332,212.21979166666665,73.0,80.0
1035,212.32708333333332,212.65416666666667,63.0,79.0
1036,212.32708333333332,212.76770833333333,71.0,86.0
1037,212.82708333333332,212.93333333333334,61.0,69.0
1038,212.82708333333332,213.015625,70.0,82.0
1039,213.07708333333332,213.17291666666665,63.0,80.0
1040,213.07708333333332,213.203125,71.0,90.0
1041,212.57708333333332,213.41666666666666,51.0,53.0
1042,213.07708333333332,213.66354166666667,56.0,47.0
1043,213.57708333333332,213.66354166666667,64.0,84.0
1044,213.57708333333332,213.67708333333334,73.0,90.0
1045,212.32708333333332,213.975,44.0,74.0
1046,213.82708333333332,214.240625,51.0,79.0
1047,214.07708333333332,214.40416666666667,75.0,84.0
1048,214.07708333333332,214.46770833333332,66.0,77.0
1049,214.32708333333332,214.984375,42.0,80.0
1050,214.82708333333332,214.98854166666666,54.0,71.0
1051,214.57708333333332,215.03854166666667,51.0,75.0
1052,215.07708333333332,215.20624999999998,58.0,55.0
1053,215.32708333333332,215.89166666666665,65.0,56.0
1054,215.32708333333332,215.99895833333332,60.0,59.0
1055,215.32708333333332,216.04375,69.0,71.0
1056,215.32708333333332,216.05104166666666,53.0,61.0
1057,215.32708333333332,216.16041666666666,41.0,75.0
1058,216.07708333333332,216.290625,64.0,76.0
1059,216.32708333333332,216.77708333333334,59.0,76.0
1060,216.32708333333332,216.79166666666666,68.0,82.0
1061,216.32708333333332,216.84479166666665,64.0,57.0
1062,217.07708333333332,217.24791666666667,59.0,80.0
1063,216.82708333333332,217.36770833333333,52.0,69.0
1064,217.32708333333332,217.6625,59.0,84.0
1065,217.32708333333332,217.67604166666666,68.0,83.0
1066,217.32708333333332,217.69375,64.0,84.0
1067,216.57708333333332,217.69791666666666,47.0,79.0
1068,217.57708333333332,217.93541666666667,52.0,63.0
1069,216.32708333333332,218.059375,40.0,82.0
1070,217.82708333333332,218.08854166666666,59.0,81.0
1071,218.07708333333332,218.22708333333333,47.0,84.0
1072,218.07708333333332,218.24583333333334,66.0,79.0
1073,218.32708333333332,218.64270833333333,66.0,79.0
1074,218.32708333333332,218.64791666666667,70.0,90.0
1075,218.32708333333332,218.68020833333333,61.0,84.0
1076,218.32708333333332,218.85625,39.0,91.0
1077,218.82708333333332,219.04791666666665,61.0,72.0
1078,218.57708333333332,219.13958333333332,51.0,75.0
1079,219.07708333333332,219.26874999999998,70.0,80.0
1080,219.32708333333332,219.83541666666667,44.0,82.0
1081,219.32708333333332,219.88958333333332,71.0,84.0
1082,219.57708333333332,219.89166666666665,51.0,79.0
1083,219.32708333333332,219.93333333333334,63.0,56.0
1084,219.82708333333332,220.05729166666666,56.0,75.0
1085,220.07708333333332,220.23125,63.0,69.0
1086,220.32708333333332,220.853125,68.0,79.0
1087,220.32708333333332,220.86770833333333,64.0,84.0
1088,221.07708333333332,221.37604166666665,63.0,82.0
1089,221.32708333333332,221.42499999999998,64.0,86.0
1090,220.82708333333332,221.43125,61.0,68.0
1091,221.57708333333332,221.78854166666667,61.0,79.0
1092,220.32708333333332,221.86145833333333,49.0,80.0
1093,220.57708333333332,221.87291666666667,56.0,56.0
1094,221.82708333333332,222.0625,68.0,48.0
1095,222.07708333333332,222.2875,75.0,80.0
1096,222.32708333333332,222.75416666666666,42.0,59.0
1097,222.57708333333332,222.81458333333333,49.0,72.0
1098,222.82708333333332,223.146875,54.0,59.0
1099,222.32708333333332,223.21458333333334,71.0,68.0
1100,223.32708333333332,223.79375,59.0,79.0
1101,223.07708333333332,223.86145833333333,56.0,76.0
1102,223.82708333333332,224.04999999999998,64.0,83.0
1103,224.07708333333332,224.26666666666665,66.0,78.0
1104,224.32708333333332,224.86770833333333,66.0,69.0
1105,224.32708333333332,224.92916666666667,63.0,78.0
1106,224.32708333333332,225.040625,71.0,82.0
1107,225.32708333333332,225.39270833333333,64.0,50.0
1108,225.32708333333332,225.42083333333332,68.0,60.0
1109,225.57708333333332,226.03333333333333,64.0,86.0
1110,224.32708333333332,226.14374999999998,47.0,82.0
1111,225.57708333333332,226.2,68.0,83.0
1112,226.32708333333332,227.38854166666667,66.0,80.0
1113,224.82708333333332,227.41354166666667,54.0,52.0
1114,226.32708333333332,227.41770833333334,63.0,78.0
1115,226.07708333333332,227.43229166666666,59.0,40.0
1116,226.32708333333332,227.51458333333332,47.0,82.0
1117,228.325,228.66145833333334,66.0,61.0
1118,228.31458333333333,228.67708333333334,75.0,74.0
1119,228.83854166666666,229.18645833333332,66.0,68.0
1120,228.58124999999998,229.321875,63.0,79.0
1121,229.090625,229.60416666666666,73.0,84.0
1122,229.80833333333334,230.153125,66.0,71.0
1123,229.55833333333334,230.18125,63.0,75.0
1124,228.3375,230.23125,59.0,77.0
1125,230.07395833333334,230.371875,75.0,76.0
1126,230.31770833333334,230.728125,73.0,86.0
1127,230.55520833333333,231.31458333333333,61.0,75.0
1128,230.83958333333334,231.61770833333333,66.0,62.0
1129,231.09375,231.6375,78.0,79.0
1130,231.575,231.97916666666666,61.0,78.0
1131,231.84375,232.059375,73.0,82.0
1132,230.303125,232.12395833333332,58.0,73.0
1133,232.06666666666666,232.29583333333332,75.0,78.0
1134,232.31458333333333,232.90208333333334,71.0,90.0
1135,233.04791666666665,233.31458333333333,70.0,86.0
1136,233.30729166666666,233.45208333333332,71.0,82.0
1137,232.80625,233.77291666666667,66.0,75.0
1138,232.309375,233.88541666666666,56.0,79.0
1139,233.55833333333334,233.88541666666666,75.0,80.0
1140,232.55416666666667,233.89479166666666,63.0,69.0
1141,233.81562499999998,234.01041666666666,80.0,76.0
1142,234.05729166666666,234.32708333333332,83.0,83.0
1143,234.32708333333332,234.65625,66.0,78.0
1144,234.32708333333332,234.70729166666666,70.0,83.0
1145,234.32708333333332,234.92499999999998,51.0,90.0
1146,234.57708333333332,234.94166666666666,58.0,76.0
1147,234.82708333333332,234.95,63.0,78.0
1148,235.32708333333332,235.67395833333333,62.0,77.0
1149,235.32708333333332,235.771875,67.0,79.0
1150,235.32708333333332,235.78229166666665,72.0,82.0
1151,235.32708333333332,235.85833333333332,53.0,79.0
1152,235.82708333333332,235.94166666666666,62.0,72.0
1153,236.07708333333332,236.18229166666666,67.0,72.0
1154,236.32708333333332,236.62812499999998,59.0,79.0
1155,236.32708333333332,236.67395833333333,64.0,79.0
1156,236.32708333333332,236.68541666666667,68.0,71.0
1157,236.57708333333332,237.20729166666666,56.0,75.0
1158,236.82708333333332,237.46666666666667,59.0,72.0
1159,237.57708333333332,237.8875,59.0,73.0
1160,237.32708333333332,237.896875,56.0,76.0
1161,237.07708333333332,237.90416666666667,71.0,86.0
1162,236.32708333333332,237.96354166666666,52.0,78.0
1163,237.82708333333332,238.03333333333333,68.0,78.0
1164,238.07708333333332,238.38020833333334,71.0,83.0
1165,238.32708333333332,238.73333333333332,66.0,76.0
1166,238.32708333333332,238.78333333333333,70.0,83.0
1167,238.32708333333332,238.7875,61.0,77.0
1168,238.57708333333332,238.96041666666667,58.0,80.0
1169,238.32708333333332,238.97187499999998,51.0,84.0
1170,238.82708333333332,239.03958333333333,68.0,79.0
1171,239.07708333333332,239.27395833333333,70.0,86.0
1172,239.32708333333332,239.79999999999998,63.0,75.0
1173,239.32708333333332,239.90416666666667,66.0,74.0
1174,239.32708333333332,239.92499999999998,71.0,84.0
1175,239.32708333333332,239.9375,44.0,82.0
1176,239.57708333333332,239.96666666666667,51.0,82.0
1177,240.07708333333332,240.14583333333334,71.0,16.0
1178,239.82708333333332,240.246875,56.0,56.0
1179,240.07708333333332,240.246875,63.0,79.0
1180,240.32708333333332,240.771875,68.0,75.0
1181,240.32708333333332,240.86875,64.0,82.0
1182,241.07708333333332,241.26666666666665,63.0,76.0
1183,241.32708333333332,241.43854166666665,64.0,82.0
1184,240.82708333333332,241.76145833333334,61.0,79.0
1185,241.57708333333332,241.765625,68.0,79.0
1186,240.32708333333332,241.85416666666666,49.0,86.0
1187,240.57708333333332,241.88541666666666,56.0,72.0
1188,241.82708333333332,242.02291666666667,71.0,86.0
1189,242.07708333333332,242.28437499999998,76.0,84.0
1190,242.32708333333332,242.63020833333334,66.0,73.0
1191,242.32708333333332,242.75416666666666,42.0,83.0
1192,242.32708333333332,242.76770833333333,75.0,84.0
1193,242.57708333333332,242.83645833333333,49.0,82.0
1194,242.82708333333332,242.92291666666665,68.0,75.0
1195,242.82708333333332,242.93020833333333,76.0,90.0
1196,242.82708333333332,243.13229166666667,54.0,68.0
1197,243.32708333333332,243.40520833333332,70.0,83.0
1198,243.32708333333332,243.43958333333333,78.0,86.0
1199,243.07708333333332,243.47395833333334,56.0,55.0
1200,243.32708333333332,243.53020833333332,58.0,73.0
1201,243.57708333333332,243.91145833333334,59.0,80.0
1202,243.82708333333332,243.91666666666666,73.0,78.0
1203,243.82708333333332,243.93020833333333,61.0,86.0
1204,243.82708333333332,243.94791666666666,82.0,84.0
1205,244.32708333333332,244.4625,83.0,90.0
1206,244.32708333333332,244.48333333333332,75.0,81.0
1207,245.07708333333332,245.21979166666665,63.0,78.0
1208,245.07708333333332,245.22708333333333,71.0,86.0
1209,244.82708333333332,245.29791666666665,59.0,62.0
1210,245.32708333333332,245.56354166666665,63.0,81.0
1211,245.32708333333332,245.60208333333333,71.0,90.0
1212,244.57708333333332,245.66041666666666,54.0,76.0
1213,245.45208333333332,245.728125,59.0,67.0
1214,245.70208333333332,245.97291666666666,61.0,80.0
1215,245.70208333333332,245.99270833333333,70.0,90.0
1216,244.32708333333332,245.99791666666667,47.0,90.0
1217,245.82708333333332,246.10833333333332,54.0,78.0
1218,246.07708333333332,246.184375,61.0,71.0
1219,246.07708333333332,246.19375,70.0,76.0
1220,246.07708333333332,246.19583333333333,71.0,82.0
1221,246.32708333333332,246.77395833333333,73.0,86.0
1222,246.32708333333332,246.77708333333334,61.0,78.0
1223,246.32708333333332,246.82604166666667,66.0,80.0
1224,246.95208333333332,247.09583333333333,61.0,84.0
1225,247.07708333333332,247.21875,66.0,80.0
1226,247.20208333333332,247.28958333333333,68.0,83.0
1227,247.32708333333332,247.496875,70.0,83.0
1228,246.57708333333332,247.55104166666666,54.0,78.0
1229,247.45208333333332,247.59166666666667,71.0,80.0
1230,247.57708333333332,247.67499999999998,73.0,84.0
1231,247.70208333333332,247.90416666666667,75.0,80.0
1232,246.82708333333332,247.90937499999998,58.0,79.0
1233,247.82708333333332,248.01354166666667,54.0,76.0
1234,246.32708333333332,248.04375,46.0,91.0
1235,247.82708333333332,248.04375,76.0,83.0
1236,247.95208333333332,248.14791666666667,78.0,72.0
1237,248.07708333333332,248.33020833333333,80.0,78.0
1238,248.32708333333332,248.66041666666666,83.0,79.0
1239,248.82708333333332,249.32291666666666,56.0,73.0
1240,249.07708333333332,249.6375,63.0,81.0
1241,249.32708333333332,249.69062499999998,71.0,84.0
1242,248.57708333333332,249.76874999999998,51.0,79.0
1243,249.57708333333332,249.91354166666667,70.0,86.0
1244,249.82708333333332,250.04270833333334,56.0,69.0
1245,249.82708333333332,250.05729166666666,68.0,77.0
1246,248.32708333333332,250.16458333333333,44.0,82.0
1247,250.07708333333332,250.23854166666666,66.0,79.0
1248,250.07708333333332,250.390625,51.0,84.0
1249,250.32708333333332,250.79270833333334,70.0,86.0
1250,250.32708333333332,250.81041666666667,66.0,82.0
1251,250.32708333333332,250.81458333333333,61.0,78.0
1252,250.32708333333332,250.88541666666666,42.0,59.0
1253,250.82708333333332,250.92708333333334,54.0,80.0
1254,250.57708333333332,250.93958333333333,51.0,80.0
1255,251.32708333333332,251.63854166666667,69.0,86.0
1256,251.32708333333332,251.640625,65.0,94.0
1257,251.32708333333332,251.653125,60.0,84.0
1258,251.57708333333332,251.97604166666667,53.0,75.0
1259,251.82708333333332,251.97916666666666,60.0,84.0
1260,251.32708333333332,252.03854166666667,41.0,94.0
1261,252.07708333333332,252.25833333333333,66.0,81.0
1262,252.32708333333332,252.80416666666667,40.0,84.0
1263,252.57708333333332,252.83124999999998,47.0,80.0
1264,252.82708333333332,253.11249999999998,52.0,75.0
1265,252.32708333333332,253.39583333333334,64.0,83.0
1266,252.32708333333332,253.40208333333334,68.0,82.0
1267,252.32708333333332,253.403125,59.0,81.0
1268,253.07708333333332,253.67604166666666,54.0,75.0
1269,253.32708333333332,253.68333333333334,56.0,80.0
1270,253.57708333333332,253.75312499999998,59.0,82.0
1271,253.82708333333332,254.04270833333334,64.0,83.0
1272,254.07708333333332,254.38020833333334,71.0,84.0
1273,254.32708333333332,254.67395833333333,61.0,80.0
1274,254.32708333333332,254.71458333333334,66.0,79.0
1275,254.32708333333332,254.75729166666667,70.0,84.0
1276,254.32708333333332,254.76354166666667,39.0,86.0
1277,254.57708333333332,254.928125,51.0,76.0
1278,254.82708333333332,255.02916666666667,68.0,76.0
1279,255.07708333333332,255.28854166666667,70.0,82.0
1280,255.32708333333332,255.67395833333333,63.0,75.0
1281,255.32708333333332,255.709375,66.0,78.0
1282,255.32708333333332,255.734375,71.0,82.0
1283,255.32708333333332,255.86354166666666,44.0,80.0
1284,255.82708333333332,255.89583333333334,71.0,37.0
1285,255.57708333333332,255.92395833333333,51.0,80.0
1286,255.82708333333332,255.959375,66.0,80.0
1287,255.82708333333332,255.96979166666665,63.0,76.0
1288,255.82708333333332,256.0083333333333,56.0,67.0
1289,256.07708333333335,256.21458333333334,66.0,60.0
1290,256.32708333333335,256.57604166666664,59.0,79.0
1291,256.32708333333335,256.62916666666666,68.0,82.0
1292,256.32708333333335,256.66875,64.0,76.0
1293,256.82708333333335,257.03125,59.0,72.0
1294,256.57708333333335,257.13854166666664,56.0,71.0
1295,257.07708333333335,257.4604166666667,68.0,82.0
1296,257.07708333333335,257.4739583333333,59.0,81.0
1297,257.07708333333335,257.4791666666667,64.0,84.0
1298,256.32708333333335,257.7270833333333,49.0,84.0
1299,257.57708333333335,257.7604166666667,59.0,84.0
1300,257.32708333333335,257.76875,56.0,76.0
1301,257.82708333333335,258.03020833333335,64.0,83.0
1302,258.07708333333335,258.23333333333335,66.0,76.0
1303,258.32708333333335,258.825,59.0,76.0
1304,258.32708333333335,258.82916666666665,71.0,62.0
1305,258.32708333333335,258.84166666666664,64.0,79.0
1306,259.07708333333335,259.2270833333333,59.0,62.0
1307,258.82708333333335,259.346875,54.0,75.0
1308,259.32708333333335,259.53229166666665,71.0,93.0
1309,259.32708333333335,259.5364583333333,59.0,70.0
1310,258.57708333333335,259.6270833333333,49.0,82.0
1311,259.45208333333335,259.690625,54.0,61.0
1312,259.70208333333335,259.74895833333335,71.0,59.0
1313,259.32708333333335,259.88125,64.0,79.0
1314,258.32708333333335,259.9,42.0,83.0
1315,259.70208333333335,259.9291666666667,73.0,58.0
1316,259.82708333333335,259.94166666666666,49.0,84.0
1317,260.07708333333335,260.1895833333333,73.0,83.0
1318,260.32708333333335,260.4291666666667,35.0,98.0
1319,260.32708333333335,260.7125,75.0,80.0
1320,261.57708333333335,261.75,64.0,82.0
1321,261.32708333333335,262.0177083333333,59.0,81.0
1322,261.82708333333335,262.0260416666667,66.0,73.0
1323,262.07708333333335,262.4447916666667,71.0,83.0
1324,262.32708333333335,263.0416666666667,61.0,78.0
1325,262.32708333333335,263.09479166666665,66.0,77.0
1326,262.32708333333335,263.109375,63.0,78.0
1327,262.32708333333335,263.6645833333333,59.0,67.0
1328,263.32708333333335,263.71875,63.0,71.0
1329,263.32708333333335,263.7270833333333,61.0,70.0
1330,261.07708333333335,263.753125,54.0,73.0
1331,263.32708333333335,263.77708333333334,66.0,74.0
1332,260.82708333333335,263.8145833333333,47.0,81.0
1333,264.32708333333335,264.85625,68.0,74.0
1334,264.32708333333335,264.8927083333333,64.0,79.0
1335,264.32708333333335,264.90729166666665,59.0,76.0
1336,265.32708333333335,265.7833333333333,59.0,72.0
1337,265.32708333333335,265.7895833333333,68.0,73.0
1338,265.32708333333335,265.81354166666665,64.0,75.0
1339,264.70208333333335,265.83229166666666,52.0,8.0
1340,264.32708333333335,265.8520833333333,40.0,62.0
1341,266.32708333333335,266.73020833333334,70.0,81.0
1342,266.32708333333335,266.75104166666665,39.0,76.0
1343,266.32708333333335,266.7677083333333,66.0,75.0
1344,266.32708333333335,266.784375,61.0,75.0
1345,266.32708333333335,266.83125,51.0,53.0
1346,267.32708333333335,267.725,66.0,76.0
1347,267.32708333333335,267.7375,44.0,71.0
1348,267.32708333333335,267.76145833333334,71.0,71.0
1349,267.32708333333335,267.7677083333333,63.0,69.0
1350,267.32708333333335,267.8520833333333,56.0,54.0
1351,268.32708333333335,269.921875,49.0,60.0
1352,268.32708333333335,269.93645833333335,56.0,59.0
1353,268.32708333333335,270.17604166666666,68.0,72.0
1354,268.32708333333335,270.203125,64.0,78.0
1355,268.32708333333335,270.2520833333333,59.0,75.0
1356,270.82708333333335,273.46666666666664,68.0,71.0
1357,270.82708333333335,273.55,64.0,71.0
1358,270.82708333333335,273.5885416666667,59.0,52.0
1359,270.82708333333335,273.62291666666664,42.0,73.0
1360,275.32708333333335,275.87395833333335,68.0,68.0
1361,275.32708333333335,275.87604166666665,64.0,75.0
1362,275.32708333333335,275.9583333333333,59.0,57.0
1363,275.32708333333335,276.725,52.0,73.0
1364,276.32708333333335,276.7427083333333,59.0,63.0
1365,275.32708333333335,276.753125,40.0,76.0
1366,276.32708333333335,276.7552083333333,68.0,73.0
1367,276.32708333333335,276.79479166666664,64.0,75.0
1368,277.32708333333335,277.978125,70.0,67.0
1369,277.32708333333335,277.98020833333334,66.0,73.0
1370,277.32708333333335,277.9947916666667,61.0,61.0
1371,277.32708333333335,278.65729166666665,51.0,58.0
1372,278.32708333333335,278.84270833333335,70.0,69.0
1373,278.32708333333335,278.8958333333333,66.0,69.0
1374,278.32708333333335,278.9166666666667,61.0,62.0
1375,278.82708333333335,278.95,51.0,60.0
1376,277.32708333333335,278.95729166666666,39.0,69.0
1377,279.32708333333335,280.7208333333333,59.0,58.0
1378,279.32708333333335,280.75416666666666,64.0,77.0
1379,279.32708333333335,280.7604166666667,68.0,67.0
1380,279.32708333333335,280.7760416666667,37.0,72.0
1381,279.32708333333335,280.778125,71.0,54.0
1382,279.32708333333335,280.79583333333335,49.0,50.0
1383,281.32708333333335,281.94375,59.0,59.0
1384,281.32708333333335,282.4927083333333,64.0,68.0
1385,281.32708333333335,284.24895833333335,67.0,68.0
1386,281.32708333333335,284.8979166666667,40.0,69.0
1387,281.32708333333335,284.96979166666665,52.0,42.0
1388,286.32708333333335,286.740625,61.0,29.0
1389,286.32708333333335,286.9239583333333,63.0,63.0
1390,286.45208333333335,287.02916666666664,66.0,69.0
1391,286.45208333333335,287.06666666666666,70.0,72.0
1392,287.45208333333335,287.66979166666664,61.0,53.0
1393,287.70208333333335,287.9114583333333,63.0,74.0
1394,287.95208333333335,288.06145833333335,66.0,72.0
1395,288.07708333333335,288.2583333333333,68.0,60.0
1396,288.32708333333335,288.5802083333333,70.0,69.0
1397,288.57708333333335,288.6958333333333,71.0,60.0
1398,288.95208333333335,289.29791666666665,75.0,18.0
1399,289.20208333333335,289.4947916666667,78.0,57.0
1400,289.57708333333335,289.92291666666665,82.0,42.0
1401,286.32708333333335,290.2052083333333,47.0,69.0
1402,287.20208333333335,290.2052083333333,59.0,55.0
1403,289.95208333333335,290.2604166666667,78.0,35.0
1404,286.95208333333335,290.2885416666667,54.0,53.0
