,start,end,pitch,velocity
0,1.8730277499999999,3.3720404999999998,60.0,99.0
1,1.8730277499999999,3.3966467499999995,63.0,113.0
2,2.811018,3.3986152499999998,67.0,104.0
3,1.8730277499999999,3.6781422499999996,48.0,104.0
4,3.7627877499999998,4.6555025,62.0,106.0
5,3.7627877499999998,4.664360749999999,53.0,89.0
6,4.696840999999999,5.2608162499999995,67.0,77.0
7,3.7637719999999995,5.4350285,58.0,107.0
8,3.7627877499999998,5.566917999999999,46.0,88.0
9,5.670264249999999,8.3208495,56.0,110.0
10,5.688965,8.338565999999998,51.0,101.0
11,5.652547749999999,8.338565999999998,63.0,104.0
12,5.652547749999999,8.41238475,44.0,107.0
13,8.514746749999999,9.357264749999999,62.0,106.0
14,8.498014499999998,9.3759655,58.0,110.0
15,9.42813075,11.276552249999998,60.0,99.0
16,9.42813075,11.296237249999999,48.0,104.0
17,9.42813075,11.301158499999998,63.0,113.0
18,11.317890749999998,13.122020999999998,46.0,88.0
19,11.317890749999998,13.12891075,62.0,106.0
20,11.318874999999998,13.174186249999998,58.0,107.0
21,11.318874999999998,13.179107499999999,53.0,89.0
22,13.225367249999998,15.288355249999999,56.0,110.0
23,14.865127749999997,15.288355249999999,56.0,113.0
24,15.810007749999999,15.875952499999999,56.0,110.0
25,13.214540499999998,15.894653249999998,51.0,101.0
26,13.207650749999999,15.894653249999998,63.0,104.0
27,13.207650749999999,15.967487749999998,44.0,107.0
28,16.046227749999996,16.38677825,51.0,110.0
29,16.28244775,16.39071525,56.0,117.0
30,16.28244775,16.545242499999997,60.0,106.0
31,16.51866775,16.570832999999997,56.0,96.0
32,16.28244775,16.666305249999997,63.0,113.0
33,16.28244775,16.816895499999998,67.0,101.0
34,16.991107749999998,17.326736999999998,67.0,101.0
35,16.991107749999998,17.348390499999997,63.0,104.0
36,16.991107749999998,17.3602015,60.0,94.0
37,16.991107749999998,17.726342499999998,48.0,101.0
38,17.463547749999996,17.902523249999998,67.0,104.0
39,17.463547749999996,17.947798749999997,63.0,117.0
40,17.463547749999996,17.962562499999997,60.0,99.0
41,18.17220775,18.317876749999996,60.0,101.0
42,18.17220775,18.578702999999997,63.0,120.0
43,18.17220775,18.70763975,67.0,104.0
44,18.880867749999997,19.24700875,62.0,106.0
45,18.880867749999997,19.251929999999998,58.0,110.0
46,18.880867749999997,19.262756749999998,67.0,96.0
47,19.35330775,19.906456249999998,62.0,109.0
48,19.35330775,19.925157,67.0,94.0
49,19.35330775,19.930078249999998,58.0,113.0
50,19.825747749999998,20.146613249999998,53.0,38.0
51,20.061967749999997,20.255864999999996,58.0,113.0
52,20.061967749999997,20.358226999999996,62.0,112.0
53,18.880867749999997,20.44582525,46.0,99.0
54,20.061967749999997,20.825745749999996,67.0,106.0
55,20.77062775,21.118067999999997,58.0,99.0
56,20.77062775,21.122004999999998,55.0,91.0
57,20.77062775,21.128894749999997,62.0,106.0
58,20.77062775,21.473382249999997,43.0,106.0
59,21.243067749999998,21.634799249999997,58.0,113.0
60,21.243067749999998,21.706649499999997,55.0,101.0
61,21.243067749999998,21.716492,62.0,112.0
62,21.715507749999997,21.831649249999998,50.0,55.0
63,21.951727749999996,22.123971499999996,55.0,106.0
64,21.951727749999996,22.312947499999996,58.0,123.0
65,22.42416775,22.59838,58.0,17.0
66,22.42416775,22.631844499999996,55.0,104.0
67,21.951727749999996,22.640702749999996,62.0,115.0
68,21.951727749999996,22.68794675,67.0,106.0
69,22.660387749999998,23.235189749999996,44.0,110.0
70,23.132827749999997,23.517669499999997,60.0,104.0
71,23.132827749999997,23.646606249999998,63.0,107.0
72,23.132827749999997,23.6633385,56.0,113.0
73,23.605267749999996,23.912353749999998,51.0,29.0
74,23.84148775,24.13479425,56.0,117.0
75,23.84148775,24.139715499999998,60.0,109.0
76,23.84148775,24.231250749999997,63.0,117.0
77,24.07770775,24.393651999999996,44.0,79.0
78,23.84148775,24.512746249999996,68.0,107.0
79,24.313927749999998,24.523572999999995,56.0,120.0
80,24.313927749999998,24.535383999999997,63.0,26.0
81,24.550147749999997,24.885776999999997,67.0,101.0
82,24.550147749999997,24.907430499999997,63.0,104.0
83,24.550147749999997,24.9192415,60.0,94.0
84,24.550147749999997,25.285382499999997,48.0,101.0
85,25.022587749999996,25.461563249999998,67.0,104.0
86,25.022587749999996,25.506838749999996,63.0,117.0
87,25.022587749999996,25.521602499999997,60.0,99.0
88,25.731247749999998,25.876916749999996,60.0,101.0
89,25.731247749999998,26.137742999999997,63.0,120.0
90,25.731247749999998,26.266679749999998,67.0,104.0
91,26.439907749999996,26.806048749999995,62.0,106.0
92,26.439907749999996,26.810969999999998,58.0,110.0
93,26.439907749999996,26.821796749999997,67.0,96.0
94,26.912347749999995,27.465496249999998,62.0,109.0
95,26.912347749999995,27.484196999999998,67.0,94.0
96,26.912347749999995,27.489118249999997,58.0,113.0
97,27.384787749999997,27.705653249999997,53.0,38.0
98,27.621007749999997,27.814904999999996,58.0,113.0
99,27.621007749999997,27.917266999999995,62.0,112.0
100,26.439907749999996,28.004865249999998,46.0,99.0
101,27.621007749999997,28.384785749999995,67.0,106.0
102,28.329667749999995,28.677107999999997,58.0,99.0
103,28.329667749999995,28.681044999999997,55.0,91.0
104,28.329667749999995,28.687934749999997,62.0,106.0
105,28.329667749999995,29.032422249999996,43.0,106.0
106,28.802107749999998,29.193839249999996,58.0,113.0
107,28.802107749999998,29.265689499999997,55.0,101.0
108,28.802107749999998,29.275531999999995,62.0,112.0
109,29.274547749999996,29.390689249999998,50.0,55.0
110,29.510767749999996,29.683011499999996,55.0,106.0
111,29.510767749999996,29.871987499999996,58.0,123.0
112,29.983207749999995,30.157419999999995,58.0,17.0
113,29.983207749999995,30.190884499999996,55.0,104.0
114,29.510767749999996,30.199742749999995,62.0,115.0
115,29.510767749999996,30.246986749999998,67.0,106.0
116,30.219427749999998,30.794229749999996,44.0,110.0
117,30.691867749999997,31.076709499999996,60.0,104.0
118,30.691867749999997,31.205646249999997,63.0,107.0
119,30.691867749999997,31.222378499999998,56.0,113.0
120,31.164307749999995,31.471393749999997,51.0,29.0
121,31.400527749999995,31.693834249999995,56.0,117.0
122,31.400527749999995,31.698755499999997,60.0,109.0
123,31.400527749999995,31.790290749999997,63.0,117.0
124,31.636747749999998,31.952691999999995,44.0,79.0
125,31.400527749999995,32.071786249999995,68.0,107.0
126,31.872967749999997,32.082612999999995,56.0,120.0
127,31.872967749999997,32.094424,63.0,26.0
128,32.10918775,32.46942325,63.0,107.0
129,32.10918775,32.47729725,67.0,109.0
130,32.581627749999996,32.99698125,70.0,117.0
131,32.581627749999996,33.0491465,67.0,109.0
132,32.581627749999996,33.06391025,63.0,113.0
133,32.10918775,33.278476749999996,51.0,117.0
134,33.054067749999994,33.37887025,58.0,72.0
135,33.29028775,33.56587775,63.0,117.0
136,33.29028775,33.5727675,67.0,112.0
137,33.762727749999996,33.934971499999996,67.0,104.0
138,33.762727749999996,33.956624999999995,63.0,117.0
139,33.99894775,34.64855274999999,43.0,106.0
140,34.47138775,34.77650524999999,62.0,112.0
141,34.47138775,34.86115074999999,59.0,109.0
142,34.47138775,34.9625285,55.0,109.0
143,34.94382775,35.2263075,50.0,82.0
144,35.18004774999999,35.370008,55.0,109.0
145,35.18004774999999,35.426110249999994,59.0,115.0
146,35.18004774999999,35.47335424999999,67.0,106.0
147,35.65248775,35.838511,55.0,109.0
148,35.888707749999995,36.63181649999999,44.0,117.0
149,36.36114774999999,36.73516274999999,60.0,101.0
150,36.36114774999999,36.878863249999995,63.0,107.0
151,36.36114774999999,36.95366625,56.0,113.0
152,36.83358774999999,37.20071299999999,51.0,35.0
153,37.069807749999995,37.236146,60.0,112.0
154,37.069807749999995,37.25484675,56.0,117.0
155,37.069807749999995,37.256815249999995,63.0,120.0
156,37.069807749999995,37.31783874999999,68.0,110.0
157,37.542247749999994,37.67315299999999,56.0,107.0
158,37.77846775,38.0688215,60.0,104.0
159,37.77846775,38.10228599999999,56.0,101.0
160,37.77846775,38.10523875,63.0,99.0
161,38.250907749999996,38.41035624999999,56.0,113.0
162,37.77846775,38.4349625,44.0,110.0
163,38.250907749999996,38.529450499999996,60.0,104.0
164,38.48712774999999,38.56783624999999,56.0,104.0
165,38.250907749999996,38.595395249999996,68.0,107.0
166,38.250907749999996,38.6042535,63.0,110.0
167,38.95956775,39.255827,62.0,118.0
168,38.95956775,39.265669499999994,58.0,117.0
169,38.723347749999995,39.377874,46.0,77.0
170,39.195787749999994,39.49106275,53.0,85.0
171,39.43200775,39.66822774999999,62.0,109.0
172,39.43200775,39.68299149999999,58.0,117.0
173,39.904447749999996,40.287321,55.0,61.0
174,39.66822774999999,40.494997749999996,48.0,96.0
175,40.14066775,40.733186249999996,63.0,120.0
176,40.14066775,40.74106025,67.0,109.0
177,40.14066775,40.74302874999999,60.0,109.0
178,40.61310775,40.82275299999999,55.0,99.0
179,40.84932774999999,41.16822474999999,60.0,106.0
180,40.84932774999999,41.173145999999996,63.0,123.0
181,40.84932774999999,41.18594124999999,67.0,112.0
182,40.84932774999999,41.22924825,55.0,109.0
183,40.61310775,41.2617285,48.0,80.0
184,41.32176774999999,41.546176749999994,63.0,117.0
185,41.32176774999999,41.60031049999999,60.0,104.0
186,41.32176774999999,41.634759249999995,67.0,104.0
187,41.557987749999995,42.30109649999999,43.0,109.0
188,42.030427749999994,42.54223775,59.0,112.0
189,42.030427749999994,42.56389125,62.0,112.0
190,42.030427749999994,42.57570224999999,55.0,109.0
191,42.50286774999999,42.709560249999996,50.0,54.0
192,42.739087749999996,42.932984999999995,55.0,106.0
193,42.739087749999996,42.950701499999994,62.0,109.0
194,42.739087749999996,42.96448099999999,59.0,112.0
195,42.739087749999996,43.21448049999999,67.0,104.0
196,43.44774775,43.791250999999995,56.0,96.0
197,43.44774775,43.794203749999994,60.0,99.0
198,43.44774775,43.80798324999999,63.0,91.0
199,43.44774775,44.1003055,44.0,117.0
200,43.92018775,44.28042324999999,60.0,104.0
201,43.92018775,44.421170999999994,63.0,113.0
202,43.92018775,44.46841499999999,68.0,104.0
203,43.92018775,44.473336249999996,56.0,113.0
204,44.392627749999996,44.6829815,51.0,34.0
205,44.62884774999999,44.85719374999999,60.0,112.0
206,44.62884774999999,44.898532249999995,63.0,117.0
207,44.62884774999999,44.902469249999996,56.0,117.0
208,44.62884774999999,44.96152425,68.0,110.0
209,44.865067749999994,45.04223275,44.0,52.0
210,45.10128775,45.25286224999999,60.0,99.0
211,45.10128775,45.290263749999994,56.0,113.0
212,45.10128775,45.326680999999994,63.0,104.0
213,45.10128775,45.33357074999999,68.0,104.0
214,45.33750774999999,45.984159999999996,46.0,91.0
215,45.80994774999999,46.30896249999999,58.0,113.0
216,45.80994774999999,46.309946749999995,62.0,112.0
217,45.80994774999999,46.31191524999999,65.0,109.0
218,46.28238774999999,46.56585174999999,53.0,91.0
219,46.28238774999999,46.57569425,46.0,70.0
220,46.518607749999994,46.842425999999996,62.0,115.0
221,46.518607749999994,46.85128424999999,65.0,112.0
222,46.518607749999994,46.852268499999994,58.0,117.0
223,46.75482775,46.958567499999994,46.0,42.0
224,46.75482775,46.977268249999995,53.0,94.0
225,46.99104774999999,47.205614249999996,62.0,115.0
226,46.99104774999999,47.211519749999994,58.0,120.0
227,46.99104774999999,47.216440999999996,65.0,112.0
228,47.227267749999996,47.574707999999994,58.0,117.0
229,47.227267749999996,47.575692249999996,63.0,107.0
230,47.227267749999996,47.58061349999999,55.0,94.0
231,47.227267749999996,47.81880199999999,39.0,110.0
232,47.699707749999995,48.124903749999994,58.0,123.0
233,47.699707749999995,48.19970675,63.0,120.0
234,47.93592775,48.243998,55.0,112.0
235,48.40836775,48.724312,55.0,112.0
236,48.17214774999999,48.80600474999999,43.0,112.0
237,48.40836775,49.05009875,59.0,109.0
238,48.880807749999995,49.070767999999994,55.0,112.0
239,48.40836775,49.09931124999999,62.0,109.0
240,49.353247749999994,49.654428249999995,56.0,117.0
241,49.353247749999994,49.658365249999996,60.0,109.0
242,49.353247749999994,49.676081749999994,63.0,107.0
243,49.11702774999999,49.81781374999999,44.0,86.0
244,49.82568774999999,49.99793149999999,60.0,104.0
245,49.82568774999999,50.024506249999995,63.0,117.0
246,49.82568774999999,50.035332999999994,56.0,117.0
247,50.061907749999996,50.379820499999994,39.0,63.0
248,50.29812774999999,50.531394999999996,55.0,109.0
249,50.29812774999999,50.56190674999999,58.0,101.0
250,50.29812774999999,50.59930824999999,51.0,110.0
251,50.534347749999995,50.62489874999999,46.0,66.0
252,50.77056774999999,50.81584324999999,55.0,87.0
253,50.77056774999999,50.865055749999996,51.0,110.0
254,50.77056774999999,50.87785099999999,58.0,99.0
255,51.006787749999994,51.30993674999999,56.0,104.0
256,51.006787749999994,51.32568474999999,53.0,104.0
257,51.006787749999994,51.68001474999999,41.0,106.0
258,51.47922774999999,51.79418774999999,56.0,113.0
259,51.47922774999999,51.8443845,53.0,106.0
260,51.47922774999999,51.875880499999994,60.0,109.0
261,51.95166774999999,51.986116499999994,65.0,69.0
262,51.95166774999999,51.99202199999999,53.0,78.0
263,51.95166774999999,52.02056525,60.0,94.0
264,52.187887749999994,52.43887149999999,56.0,123.0
265,52.187887749999994,52.448713999999995,53.0,109.0
266,52.187887749999994,52.466430499999994,60.0,112.0
267,52.187887749999994,52.467414749999996,65.0,104.0
268,52.42410774999999,52.562886999999996,41.0,91.0
269,52.66032774999999,52.82371324999999,65.0,101.0
270,52.66032774999999,52.84930375,56.0,120.0
271,52.66032774999999,52.87489425,53.0,109.0
272,52.66032774999999,52.91918549999999,60.0,112.0
273,52.896547749999996,53.214460499999994,46.0,93.0
274,53.13276774999999,53.26859424999999,53.0,106.0
275,53.13276774999999,53.27154699999999,58.0,120.0
276,53.13276774999999,53.273515499999995,62.0,112.0
277,53.60520774999999,53.911309499999994,53.0,106.0
278,53.60520774999999,53.94378974999999,62.0,112.0
279,53.60520774999999,53.947726749999994,58.0,117.0
280,53.841427749999994,54.15835624999999,46.0,55.0
281,54.07764775,54.18197824999999,53.0,104.0
282,54.31386774999999,54.45953674999999,53.0,112.0
283,54.31386774999999,54.64752849999999,46.0,110.0
284,54.31386774999999,54.67607174999999,58.0,123.0
285,54.550087749999996,54.70855199999999,53.0,104.0
286,54.31386774999999,54.70953624999999,62.0,115.0
287,54.78630774999999,55.13374799999999,58.0,117.0
288,54.78630774999999,55.13473224999999,63.0,107.0
289,54.78630774999999,55.139653499999994,55.0,94.0
290,54.78630774999999,55.377841999999994,39.0,110.0
291,55.25874774999999,55.68394374999999,58.0,123.0
292,55.25874774999999,55.75874674999999,63.0,120.0
293,55.494967749999994,55.803037999999994,55.0,112.0
294,55.96740774999999,56.283351999999994,55.0,112.0
295,55.73118775,56.365044749999996,43.0,112.0
296,55.96740774999999,56.60913874999999,59.0,109.0
297,56.43984774999999,56.62980799999999,55.0,112.0
298,55.96740774999999,56.658351249999996,62.0,109.0
299,56.91228774999999,57.21346824999999,56.0,117.0
300,56.91228774999999,57.21740524999999,60.0,109.0
301,56.91228774999999,57.23512174999999,63.0,107.0
302,56.676067749999994,57.376853749999995,44.0,86.0
303,57.384727749999996,57.556971499999996,60.0,104.0
304,57.384727749999996,57.58354624999999,63.0,117.0
305,57.384727749999996,57.59437299999999,56.0,117.0
306,57.62094774999999,57.93886049999999,39.0,63.0
307,57.857167749999995,58.09043499999999,55.0,109.0
308,57.857167749999995,58.120946749999995,58.0,101.0
309,57.857167749999995,58.158348249999996,51.0,110.0
310,58.09338774999999,58.183938749999996,46.0,66.0
311,58.329607749999994,58.374883249999996,55.0,87.0
312,58.329607749999994,58.42409574999999,51.0,110.0
313,58.329607749999994,58.436890999999996,58.0,99.0
314,58.56582774999999,58.868976749999995,56.0,104.0
315,58.56582774999999,58.88472474999999,53.0,104.0
316,58.56582774999999,59.239054749999994,41.0,106.0
317,59.038267749999996,59.353227749999995,56.0,113.0
318,59.038267749999996,59.40342449999999,53.0,106.0
319,59.038267749999996,59.43492049999999,60.0,109.0
320,59.510707749999995,59.54515649999999,65.0,69.0
321,59.510707749999995,59.551061999999995,53.0,78.0
322,59.510707749999995,59.57960524999999,60.0,94.0
323,59.74692774999999,59.997911499999994,56.0,123.0
324,59.74692774999999,60.00775399999999,53.0,109.0
325,59.74692774999999,60.02547049999999,60.0,112.0
326,59.74692774999999,60.02645474999999,65.0,104.0
327,59.98314774999999,60.12192699999999,41.0,91.0
328,60.21936774999999,60.38275324999999,65.0,101.0
329,60.21936774999999,60.40834374999999,56.0,120.0
330,60.21936774999999,60.43393424999999,53.0,109.0
331,60.21936774999999,60.47822549999999,60.0,112.0
332,60.45558774999999,60.77350049999999,46.0,93.0
333,60.691807749999995,60.827634249999996,53.0,106.0
334,60.691807749999995,60.830586999999994,58.0,120.0
335,60.691807749999995,60.83255549999999,62.0,112.0
336,61.164247749999994,61.47034949999999,53.0,106.0
337,61.164247749999994,61.50282974999999,62.0,112.0
338,61.164247749999994,61.50676674999999,58.0,117.0
339,61.40046774999999,61.71739624999999,46.0,55.0
340,61.63668774999999,61.74101824999999,53.0,104.0
341,61.872907749999996,62.018576749999994,53.0,112.0
342,61.872907749999996,62.206568499999996,46.0,110.0
343,61.872907749999996,62.235111749999994,58.0,123.0
344,62.10912774999999,62.26759199999999,53.0,104.0
345,61.872907749999996,62.268576249999995,62.0,115.0
346,62.345347749999995,62.59928424999999,60.0,99.0
347,62.345347749999995,62.81680349999999,63.0,113.0
348,62.817787749999994,62.931960749999995,60.0,78.0
349,62.58156774999999,63.313849749999996,55.0,78.0
350,63.05400774999999,63.56877049999999,60.0,101.0
351,62.345347749999995,63.58254999999999,48.0,104.0
352,63.05400774999999,63.606171999999994,63.0,117.0
353,63.05400774999999,63.64160499999999,67.0,104.0
354,63.76266774999999,63.89849424999999,60.0,99.0
355,63.998887749999994,64.25676125,63.0,110.0
356,64.23510775,64.621918,62.0,106.0
357,64.70754774999999,64.858138,58.0,107.0
358,64.47132774999999,65.444751,53.0,89.0
359,64.94376774999999,65.69967175,62.0,106.0
360,64.94376774999999,65.70951425,58.0,99.0
361,64.23510775,65.724278,46.0,88.0
362,64.94376774999999,65.77939599999999,67.0,91.0
363,66.12486774999999,66.39356799999999,56.0,110.0
364,66.12486774999999,66.72624449999999,63.0,104.0
365,66.59730775,66.75478774999999,56.0,93.0
366,66.83352774999999,67.05793675,60.0,106.0
367,66.83352774999999,67.18982625,63.0,101.0
368,66.83352774999999,67.42998324999999,56.0,110.0
369,66.12486774999999,67.53431375,44.0,107.0
370,66.36108775,67.55596725,51.0,101.0
371,67.54218775,67.58943174999999,60.0,87.0
372,67.77840774999999,68.20163525,56.0,113.0
373,67.54218775,68.77053174999999,63.0,117.0
374,66.83352774999999,69.04021624999999,67.0,101.0
375,68.01462774999999,69.19375924999999,44.0,99.0
376,69.92407275,70.25970199999999,67.0,101.0
377,69.92407275,70.28135549999999,63.0,104.0
378,69.92407275,70.2931665,60.0,94.0
379,69.92407275,70.6593075,48.0,101.0
380,70.39651274999999,70.83548825,67.0,104.0
381,70.39651274999999,70.88076374999999,63.0,117.0
382,70.39651274999999,70.89552749999999,60.0,99.0
383,71.10517275,71.25084174999999,60.0,101.0
384,71.10517275,71.51166799999999,63.0,120.0
385,71.10517275,71.64060475,67.0,104.0
386,71.81383274999999,72.17997374999999,62.0,106.0
387,71.81383274999999,72.184895,58.0,110.0
388,71.81383274999999,72.19572174999999,67.0,96.0
389,72.28627275,72.83942124999999,62.0,109.0
390,72.28627275,72.858122,67.0,94.0
391,72.28627275,72.86304324999999,58.0,113.0
392,72.75871274999999,73.07957825,53.0,38.0
393,72.99493274999999,73.18883,58.0,113.0
394,72.99493274999999,73.291192,62.0,112.0
395,71.81383274999999,73.37879025,46.0,99.0
396,72.99493274999999,73.75871074999999,67.0,106.0
397,73.70359274999998,74.05103299999999,58.0,99.0
398,73.70359274999998,74.05497,55.0,91.0
399,73.70359274999998,74.06185975,62.0,106.0
400,73.70359274999998,74.40634725,43.0,106.0
401,74.17603274999999,74.56776425,58.0,113.0
402,74.17603274999999,74.6396145,55.0,101.0
403,74.17603274999999,74.64945699999998,62.0,112.0
404,74.64847275,74.76461425,50.0,55.0
405,74.88469274999999,75.05693649999999,55.0,106.0
406,74.88469274999999,75.24591249999999,58.0,123.0
407,75.35713274999999,75.53134499999999,58.0,17.0
408,75.35713274999999,75.5648095,55.0,104.0
409,74.88469274999999,75.57366774999998,62.0,115.0
410,74.88469274999999,75.62091174999999,67.0,106.0
411,75.59335275,76.16815474999999,44.0,110.0
412,76.06579274999999,76.45063449999999,60.0,104.0
413,76.06579274999999,76.57957124999999,63.0,107.0
414,76.06579274999999,76.59630349999999,56.0,113.0
415,76.53823274999999,76.84531874999999,51.0,29.0
416,76.77445275,77.06775925,56.0,117.0
417,76.77445275,77.07268049999999,60.0,109.0
418,76.77445275,77.16421575,63.0,117.0
419,77.01067275,77.32661699999998,44.0,79.0
420,76.77445275,77.44571124999999,68.0,107.0
421,77.24689274999999,77.456538,56.0,120.0
422,77.24689274999999,77.46834899999999,63.0,26.0
423,77.48311274999999,77.81874199999999,67.0,101.0
424,77.48311274999999,77.84039549999999,63.0,104.0
425,77.48311274999999,77.8522065,60.0,94.0
426,77.48311274999999,78.2183475,48.0,101.0
427,77.95555275,78.39452825,67.0,104.0
428,77.95555275,78.43980375,63.0,117.0
429,77.95555275,78.4545675,60.0,99.0
430,78.66421274999999,78.80988174999999,60.0,101.0
431,78.66421274999999,79.070708,63.0,120.0
432,78.66421274999999,79.19964474999999,67.0,104.0
433,79.37287274999998,79.73901374999998,62.0,106.0
434,79.37287274999998,79.743935,58.0,110.0
435,79.37287274999998,79.75476174999999,67.0,96.0
436,79.84531274999999,80.39846125,62.0,109.0
437,79.84531274999999,80.41716199999999,67.0,94.0
438,79.84531274999999,80.42208324999999,58.0,113.0
439,80.31775275,80.63861825,53.0,38.0
440,80.55397274999999,80.74786999999999,58.0,113.0
441,80.55397274999999,80.85023199999999,62.0,112.0
442,79.37287274999998,80.93783024999999,46.0,99.0
443,80.55397274999999,81.31775074999999,67.0,106.0
444,81.26263275,81.61007299999999,58.0,99.0
445,81.26263275,81.61401,55.0,91.0
446,81.26263275,81.62089974999999,62.0,106.0
447,81.26263275,81.96538724999999,43.0,106.0
448,81.73507274999999,82.12680424999999,58.0,113.0
449,81.73507274999999,82.19865449999999,55.0,101.0
450,81.73507274999999,82.208497,62.0,112.0
451,82.20751274999999,82.32365424999999,50.0,55.0
452,82.44373275,82.61597649999999,55.0,106.0
453,82.44373275,82.80495249999998,58.0,123.0
454,82.91617274999999,83.09038499999998,58.0,17.0
455,82.91617274999999,83.12384949999999,55.0,104.0
456,82.44373275,83.13270775,62.0,115.0
457,82.44373275,83.17995174999999,67.0,106.0
458,83.15239274999999,83.72719475,44.0,110.0
459,83.62483275,84.00967449999999,60.0,104.0
460,83.62483275,84.13861125,63.0,107.0
461,83.62483275,84.15534349999999,56.0,113.0
462,84.09727274999999,84.40435874999999,51.0,29.0
463,84.33349274999999,84.62679924999999,56.0,117.0
464,84.33349274999999,84.63172049999999,60.0,109.0
465,84.33349274999999,84.72325574999999,63.0,117.0
466,84.56971275,84.885657,44.0,79.0
467,84.33349274999999,85.00475124999998,68.0,107.0
468,84.80593275,85.01557799999999,56.0,120.0
469,84.80593275,85.02738899999999,63.0,26.0
470,85.04215274999999,85.40238824999999,63.0,107.0
471,85.04215274999999,85.41026224999999,67.0,109.0
472,85.51459274999999,85.92994624999999,70.0,117.0
473,85.51459274999999,85.98211149999999,67.0,109.0
474,85.51459274999999,85.99687524999999,63.0,113.0
475,85.04215274999999,86.21144174999999,51.0,117.0
476,85.98703274999998,86.31183524999999,58.0,72.0
477,86.22325274999999,86.49884275,63.0,117.0
478,86.22325274999999,86.5057325,67.0,112.0
479,86.69569274999999,86.86793649999998,67.0,104.0
480,86.69569274999999,86.88958999999998,63.0,117.0
481,86.93191275,87.58151774999999,43.0,106.0
482,87.40435274999999,87.70947025,62.0,112.0
483,87.40435274999999,87.79411574999999,59.0,109.0
484,87.40435274999999,87.89549349999999,55.0,109.0
485,87.87679274999999,88.15927249999999,50.0,82.0
486,88.11301275,88.302973,55.0,109.0
487,88.11301275,88.35907524999999,59.0,115.0
488,88.11301275,88.40631925,67.0,106.0
489,88.58545274999999,88.77147599999999,55.0,109.0
490,88.82167274999999,89.5647815,44.0,117.0
491,89.29411274999998,89.66812774999998,60.0,101.0
492,89.29411274999998,89.81182824999999,63.0,107.0
493,89.29411274999998,89.88663125,56.0,113.0
494,89.76655274999999,90.13367799999999,51.0,35.0
495,90.00277274999999,90.16911099999999,60.0,112.0
496,90.00277274999999,90.18781175,56.0,117.0
497,90.00277274999999,90.18978024999998,63.0,120.0
498,90.00277274999999,90.25080374999999,68.0,110.0
499,90.47521274999998,90.606118,56.0,107.0
500,90.71143274999999,91.0017865,60.0,104.0
501,90.71143274999999,91.03525099999999,56.0,101.0
502,90.71143274999999,91.03820375,63.0,99.0
503,91.18387274999999,91.34332124999999,56.0,113.0
504,90.71143274999999,91.3679275,44.0,110.0
505,91.18387274999999,91.46241549999999,60.0,104.0
506,91.42009275,91.50080125,56.0,104.0
507,91.18387274999999,91.52836024999999,68.0,107.0
508,91.18387274999999,91.5372185,63.0,110.0
509,91.89253274999999,92.18879199999999,62.0,118.0
510,91.89253274999999,92.19863449999998,58.0,117.0
511,91.65631274999998,92.31083899999999,46.0,77.0
512,92.12875274999999,92.42402775,53.0,85.0
513,92.36497274999999,92.60119275,62.0,109.0
514,92.36497274999999,92.6159565,58.0,117.0
515,92.83741274999998,93.22028599999999,55.0,61.0
516,92.60119275,93.42796274999999,48.0,96.0
517,93.07363274999999,93.66615124999998,63.0,120.0
518,93.07363274999999,93.67402524999999,67.0,109.0
519,93.07363274999999,93.67599374999999,60.0,109.0
520,93.54607275,93.75571799999999,55.0,99.0
521,93.78229274999998,94.10118974999999,60.0,106.0
522,93.78229274999998,94.10611099999998,63.0,123.0
523,93.78229274999998,94.11890625,67.0,112.0
524,93.78229274999998,94.16221325,55.0,109.0
525,93.54607275,94.19469349999999,48.0,80.0
526,94.25473274999999,94.47914174999998,63.0,117.0
527,94.25473274999999,94.53327549999999,60.0,104.0
528,94.25473274999999,94.56772424999998,67.0,104.0
529,94.49095274999999,95.23406149999998,43.0,109.0
530,94.96339274999998,95.47520275,59.0,112.0
531,94.96339274999998,95.49685625,62.0,112.0
532,94.96339274999998,95.50866724999999,55.0,109.0
533,95.43583274999999,95.64252524999999,50.0,54.0
534,95.67205274999999,95.86594999999998,55.0,106.0
535,95.67205274999999,95.88366649999999,62.0,109.0
536,95.67205274999999,95.89744599999999,59.0,112.0
537,95.67205274999999,96.14744549999999,67.0,104.0
538,96.38071274999999,96.72421599999998,56.0,96.0
539,96.38071274999999,96.72716874999999,60.0,99.0
540,96.38071274999999,96.74094824999999,63.0,91.0
541,96.38071274999999,97.03327049999999,44.0,117.0
542,96.85315274999999,97.21338825,60.0,104.0
543,96.85315274999999,97.35413599999998,63.0,113.0
544,96.85315274999999,97.40137999999999,68.0,104.0
545,96.85315274999999,97.40630124999998,56.0,113.0
546,97.32559274999998,97.61594649999999,51.0,34.0
547,97.56181274999999,97.79015874999999,60.0,112.0
548,97.56181274999999,97.83149724999998,63.0,117.0
549,97.56181274999999,97.83543424999999,56.0,117.0
550,97.56181274999999,97.89448924999999,68.0,110.0
551,97.79803274999999,97.97519774999999,44.0,52.0
552,98.03425275,98.18582724999999,60.0,99.0
553,98.03425275,98.22322874999999,56.0,113.0
554,98.03425275,98.25964599999999,63.0,104.0
555,98.03425275,98.26653574999999,68.0,104.0
556,98.27047274999998,98.91712499999998,46.0,91.0
557,98.74291274999999,99.24192749999999,58.0,113.0
558,98.74291274999999,99.24291174999999,62.0,112.0
559,98.74291274999999,99.24488025,65.0,109.0
560,99.23208499999998,99.515549,53.0,91.0
561,99.24291174999999,99.53621824999999,46.0,70.0
562,99.47913175,100.16810674999999,62.0,115.0
563,99.70747774999998,100.17007524999998,46.0,42.0
564,99.47913175,100.17696499999998,65.0,112.0
565,99.47913175,100.17794924999998,58.0,117.0
566,99.70747774999998,100.18877599999999,53.0,94.0
567,100.1986185,100.54605874999999,58.0,117.0
568,100.1986185,100.54704299999999,63.0,107.0
569,100.1986185,100.55196424999998,55.0,94.0
570,100.1986185,100.79015274999999,39.0,110.0
571,100.67105849999999,101.09625449999999,58.0,123.0
572,100.67105849999999,101.17105749999999,63.0,120.0
573,100.90727849999999,101.21534874999999,55.0,112.0
574,101.37971849999998,101.69566274999998,55.0,112.0
575,101.14349849999999,101.77735549999998,43.0,112.0
576,101.37971849999998,102.02144949999999,59.0,109.0
577,101.85215849999999,102.04211874999999,55.0,112.0
578,101.37971849999998,102.07066199999998,62.0,109.0
579,102.3245985,102.625779,56.0,117.0
580,102.3245985,102.62971599999999,60.0,109.0
581,102.3245985,102.6474325,63.0,107.0
582,102.08837849999999,102.78916449999998,44.0,86.0
583,102.79703849999999,102.96928224999999,60.0,104.0
584,102.79703849999999,102.99585699999999,63.0,117.0
585,102.79703849999999,103.00668375,56.0,117.0
586,103.03325849999999,103.35117125,39.0,63.0
587,103.26947849999999,103.50274574999999,55.0,109.0
588,103.26947849999999,103.53325749999999,58.0,101.0
589,103.26947849999999,103.57065899999999,51.0,110.0
590,103.5056985,103.59624949999998,46.0,66.0
591,103.74191849999998,103.78719399999999,55.0,87.0
592,103.74191849999998,103.83640649999998,51.0,110.0
593,103.74191849999998,103.84920174999999,58.0,99.0
594,103.97813849999999,104.28128749999999,56.0,104.0
595,103.97813849999999,104.29703549999999,53.0,104.0
596,103.97813849999999,104.65136549999998,41.0,106.0
597,104.45057849999999,104.76553849999999,56.0,113.0
598,104.45057849999999,104.81573524999999,53.0,106.0
599,104.45057849999999,104.84723125,60.0,109.0
600,104.92301849999998,104.95746725,65.0,69.0
601,104.92301849999998,104.96337274999999,53.0,78.0
602,104.92301849999998,104.99191599999999,60.0,94.0
603,105.15923849999999,105.41022224999999,56.0,123.0
604,105.15923849999999,105.42006474999998,53.0,109.0
605,105.15923849999999,105.43778124999999,60.0,112.0
606,105.15923849999999,105.43876549999999,65.0,104.0
607,105.39545849999999,105.53423774999999,41.0,91.0
608,105.63167849999999,105.79506399999998,65.0,101.0
609,105.63167849999999,105.82065449999999,56.0,120.0
610,105.63167849999999,105.84624499999998,53.0,109.0
611,105.63167849999999,105.89053624999998,60.0,112.0
612,105.86789849999998,106.18581124999999,46.0,93.0
613,106.10411849999998,106.23994499999999,53.0,106.0
614,106.10411849999998,106.24289774999998,58.0,120.0
615,106.10411849999998,106.24486624999999,62.0,112.0
616,106.57655849999999,106.88266024999999,53.0,106.0
617,106.57655849999999,106.91514049999999,62.0,112.0
618,106.57655849999999,106.91907749999999,58.0,117.0
619,106.8127785,107.12970699999998,46.0,55.0
620,107.04899849999998,107.15332899999999,53.0,104.0
621,107.28521849999998,107.43088749999998,53.0,112.0
622,107.28521849999998,107.61887924999999,46.0,110.0
623,107.28521849999998,107.64742249999999,58.0,123.0
624,107.52143849999999,107.67990274999998,53.0,104.0
625,107.28521849999998,107.68088699999998,62.0,115.0
626,107.75765849999999,108.10509874999998,58.0,117.0
627,107.75765849999999,108.10608299999998,63.0,107.0
628,107.75765849999999,108.11100425,55.0,94.0
629,107.75765849999999,108.34919274999999,39.0,110.0
630,108.23009849999998,108.65529449999998,58.0,123.0
631,108.23009849999998,108.73009749999999,63.0,120.0
632,108.46631849999999,108.77438874999999,55.0,112.0
633,108.93875849999999,109.25470274999999,55.0,112.0
634,108.70253849999999,109.33639549999998,43.0,112.0
635,108.93875849999999,109.58048949999998,59.0,109.0
636,109.41119849999998,109.60115874999998,55.0,112.0
637,108.93875849999999,109.62970199999998,62.0,109.0
638,109.88363849999999,110.18481899999999,56.0,117.0
639,109.88363849999999,110.18875599999998,60.0,109.0
640,109.88363849999999,110.20647249999999,63.0,107.0
641,109.64741849999999,110.34820449999998,44.0,86.0
642,110.35607849999998,110.52832224999999,60.0,104.0
643,110.35607849999998,110.55489699999998,63.0,117.0
644,110.35607849999998,110.56572374999999,56.0,117.0
645,110.59229849999998,110.91021124999999,39.0,63.0
646,110.82851849999999,111.06178574999998,55.0,109.0
647,110.82851849999999,111.09229749999999,58.0,101.0
648,110.82851849999999,111.12969899999999,51.0,110.0
649,111.06473849999999,111.15528949999998,46.0,66.0
650,111.3009585,111.34623399999998,55.0,87.0
651,111.3009585,111.39544649999999,51.0,110.0
652,111.3009585,111.40824174999999,58.0,99.0
653,111.53717849999998,111.84032749999999,56.0,104.0
654,111.53717849999998,111.85607549999999,53.0,104.0
655,111.53717849999998,112.2104055,41.0,106.0
656,112.00961849999999,112.32457849999999,56.0,113.0
657,112.00961849999999,112.37477524999998,53.0,106.0
658,112.00961849999999,112.40627124999999,60.0,109.0
659,112.48205849999998,112.51650724999999,65.0,69.0
660,112.48205849999998,112.52241274999999,53.0,78.0
661,112.48205849999998,112.55095599999999,60.0,94.0
662,112.71827849999998,112.96926224999999,56.0,123.0
663,112.71827849999998,112.97910474999999,53.0,109.0
664,112.71827849999998,112.99682124999998,60.0,112.0
665,112.71827849999998,112.99780549999998,65.0,104.0
666,112.95449849999999,113.09327774999998,41.0,91.0
667,113.19071849999999,113.35410399999999,65.0,101.0
668,113.19071849999999,113.37969449999999,56.0,120.0
669,113.19071849999999,113.40528499999999,53.0,109.0
670,113.19071849999999,113.44957624999999,60.0,112.0
671,113.42693849999999,113.74485124999998,46.0,93.0
672,113.66315849999998,113.79898499999999,53.0,106.0
673,113.66315849999998,113.80193775,58.0,120.0
674,113.66315849999998,113.80390624999998,62.0,112.0
675,114.13559849999999,114.44170024999998,53.0,106.0
676,114.13559849999999,114.47418049999999,62.0,112.0
677,114.13559849999999,114.47811749999998,58.0,117.0
678,114.37181849999999,114.68874699999999,46.0,55.0
679,114.60803849999999,114.71236899999998,53.0,104.0
680,114.84425849999998,114.9899275,53.0,112.0
681,114.84425849999998,115.17791924999999,46.0,110.0
682,114.84425849999998,115.20646249999999,58.0,123.0
683,115.08047849999998,115.23894274999999,53.0,104.0
684,114.84425849999998,115.23992699999998,62.0,115.0
685,115.31669849999999,115.57063499999998,60.0,99.0
686,115.31669849999999,115.78815424999999,63.0,113.0
687,115.78913849999999,115.90331149999999,60.0,78.0
688,115.55291849999999,116.28520049999999,55.0,78.0
689,116.02535849999998,116.54012124999998,60.0,101.0
690,115.31669849999999,116.55390074999998,48.0,104.0
691,116.02535849999998,116.57752274999999,63.0,117.0
692,116.02535849999998,116.61295574999998,67.0,104.0
693,116.73401849999999,116.86984499999998,60.0,99.0
694,116.97023849999998,117.22811199999998,63.0,110.0
695,117.20645849999998,117.59326875,62.0,106.0
696,117.67889849999999,117.82948874999998,58.0,107.0
697,117.44267849999999,118.41610174999998,53.0,89.0
698,117.91511849999999,118.67102249999999,62.0,106.0
699,117.91511849999999,118.68086499999998,58.0,99.0
700,117.20645849999998,118.69562874999998,46.0,88.0
701,117.91511849999999,118.75074674999999,67.0,91.0
702,119.09621849999999,119.36491874999999,56.0,110.0
703,119.09621849999999,119.69759524999999,63.0,104.0
704,119.56865849999998,119.72613849999999,56.0,93.0
705,119.80487849999999,120.02928749999998,60.0,106.0
706,119.80487849999999,120.16117699999998,63.0,101.0
707,119.80487849999999,120.40133399999999,56.0,110.0
708,119.09621849999999,120.50566449999998,44.0,107.0
709,119.33243849999998,120.52731799999998,51.0,101.0
710,120.51353849999998,120.56078249999999,60.0,87.0
711,120.74975849999998,121.17298599999998,56.0,113.0
712,120.51353849999998,121.74188249999999,63.0,117.0
713,119.80487849999999,122.01156699999999,67.0,101.0
714,120.98597849999999,122.16510999999998,44.0,99.0
715,122.87573849999998,123.12967499999999,60.0,99.0
716,122.87573849999998,123.34719424999999,63.0,113.0
717,123.34817849999999,123.46235149999998,60.0,78.0
718,123.11195849999999,123.84424049999998,55.0,78.0
719,123.58439849999999,124.09916124999998,60.0,101.0
720,122.87573849999998,124.11294074999998,48.0,104.0
721,123.58439849999999,124.13656274999998,63.0,117.0
722,123.58439849999999,124.17199574999998,67.0,104.0
723,124.29305849999999,124.42888499999998,60.0,99.0
724,124.52927849999999,124.78715199999999,63.0,110.0
725,124.76549849999998,125.15230874999999,62.0,106.0
726,125.23793849999998,125.38852874999999,58.0,107.0
727,125.00171849999998,125.97514174999999,53.0,89.0
728,125.47415849999999,126.23006249999999,62.0,106.0
729,125.47415849999999,126.23990499999998,58.0,99.0
730,124.76549849999998,126.25466874999998,46.0,88.0
731,125.47415849999999,126.30978674999999,67.0,91.0
732,126.65525849999999,126.92395874999998,56.0,110.0
733,126.65525849999999,127.25663524999999,63.0,104.0
734,127.12769849999998,127.28517849999999,56.0,93.0
735,127.36391849999998,127.58832749999999,60.0,106.0
736,127.36391849999998,127.72021699999999,63.0,101.0
737,127.36391849999998,127.96037399999999,56.0,110.0
738,126.65525849999999,128.06470449999998,44.0,107.0
739,126.89147849999999,128.086358,51.0,101.0
740,128.0725785,128.1198225,60.0,87.0
741,128.3087985,128.732026,56.0,113.0
742,128.0725785,129.30092249999998,63.0,117.0
743,129.25367849999998,129.55190624999997,56.0,110.0
744,127.36391849999998,129.570607,67.0,101.0
745,129.48989849999998,129.830449,51.0,110.0
746,129.72611849999998,129.834386,56.0,117.0
747,129.72611849999998,129.98891325,60.0,106.0
748,129.9623385,130.01450375,56.0,96.0
749,129.72611849999998,130.109976,63.0,113.0
750,129.72611849999998,130.26056624999998,67.0,101.0
751,130.4347785,130.68871499999997,60.0,99.0
752,130.4347785,130.90623424999998,63.0,113.0
753,130.90721849999997,131.0213915,60.0,78.0
754,130.6709985,131.4032805,55.0,78.0
755,131.14343849999997,131.65820125,60.0,101.0
756,130.4347785,131.67198075,48.0,104.0
757,131.14343849999997,131.69560274999998,63.0,117.0
758,131.14343849999997,131.73103575,67.0,104.0
759,131.85209849999998,131.987925,60.0,99.0
760,132.08831849999999,132.34619199999997,63.0,110.0
761,132.3245385,132.71134874999998,62.0,106.0
762,132.7969785,132.94756875,58.0,107.0
763,132.5607585,133.53418175,53.0,89.0
764,133.0331985,133.78910249999998,62.0,106.0
765,133.0331985,133.79894499999997,58.0,99.0
766,132.3245385,133.81370875,46.0,88.0
767,133.0331985,133.86882674999998,67.0,91.0
768,134.21429849999998,134.48299874999998,56.0,110.0
769,134.21429849999998,134.81567524999997,63.0,104.0
770,134.6867385,134.84421849999998,56.0,93.0
771,134.9229585,135.14736749999997,60.0,106.0
772,134.9229585,135.27925699999997,63.0,101.0
773,134.9229585,135.51941399999998,56.0,110.0
774,134.21429849999998,135.6237445,44.0,107.0
775,134.4505185,135.64539799999997,51.0,101.0
776,135.63161849999997,135.67886249999998,60.0,87.0
777,135.86783849999998,136.29106599999997,56.0,113.0
778,136.10405849999998,136.29106599999997,56.0,96.0
779,135.63161849999997,136.33830999999998,63.0,117.0
780,134.9229585,136.57452999999998,67.0,101.0
781,136.10405849999998,136.7103565,44.0,96.0
782,136.10405849999998,136.81074999999998,60.0,101.0
783,137.06763924999998,137.84125974999998,65.0,104.0
784,137.06763924999998,137.85110225,58.0,96.0
785,137.06763924999998,137.8560235,62.0,112.0
786,137.06763924999998,137.90326749999997,46.0,96.0
787,138.01251925,138.35995949999997,58.0,117.0
788,138.01251925,138.36094375,63.0,107.0
789,138.01251925,138.36586499999999,55.0,94.0
790,138.01251925,138.6040535,39.0,110.0
791,138.48495924999997,138.91015524999997,58.0,123.0
792,138.48495924999997,138.98495824999998,63.0,120.0
793,138.72117924999998,139.0292495,55.0,112.0
794,139.19361924999998,139.50956349999998,55.0,112.0
795,138.95739924999998,139.59125625,43.0,112.0
796,139.19361924999998,139.83535024999998,59.0,109.0
797,139.66605925,139.85601949999997,55.0,112.0
798,139.19361924999998,139.88456275,62.0,109.0
799,140.13849925,140.43967974999998,56.0,117.0
800,140.13849925,140.44361675,60.0,109.0
801,140.13849925,140.46133325,63.0,107.0
802,139.90227925,140.60306525,44.0,86.0
803,140.61093924999997,140.78318299999998,60.0,104.0
804,140.61093924999997,140.80975775,63.0,117.0
805,140.61093924999997,140.8205845,56.0,117.0
806,140.84715924999998,141.16507199999998,39.0,63.0
807,141.08337924999998,141.3166465,55.0,109.0
808,141.08337924999998,141.34715824999998,58.0,101.0
809,141.08337924999998,141.38455975,51.0,110.0
810,141.31959924999998,141.41015025,46.0,66.0
811,141.55581924999998,141.60109475,55.0,87.0
812,141.55581924999998,141.65030724999997,51.0,110.0
813,141.55581924999998,141.66310249999998,58.0,99.0
814,141.79203925,142.09518824999998,56.0,104.0
815,141.79203925,142.11093624999998,53.0,104.0
816,141.79203925,142.46526624999998,41.0,106.0
817,142.26447925,142.57943924999998,56.0,113.0
818,142.26447925,142.62963599999998,53.0,106.0
819,142.26447925,142.66113199999998,60.0,109.0
820,142.73691924999997,142.771368,65.0,69.0
821,142.73691924999997,142.77727349999998,53.0,78.0
822,142.73691924999997,142.80581675,60.0,94.0
823,142.97313924999997,143.224123,56.0,123.0
824,142.97313924999997,143.23396549999998,53.0,109.0
825,142.97313924999997,143.251682,60.0,112.0
826,142.97313924999997,143.25266624999998,65.0,104.0
827,143.20935924999998,143.34813849999998,41.0,91.0
828,143.44557924999998,143.60896474999998,65.0,101.0
829,143.44557924999998,143.63455524999998,56.0,120.0
830,143.44557924999998,143.66014574999997,53.0,109.0
831,143.44557924999998,143.70443699999998,60.0,112.0
832,143.68179924999998,143.999712,46.0,93.0
833,143.91801925,144.05384575,53.0,106.0
834,143.91801925,144.05679849999999,58.0,120.0
835,143.91801925,144.058767,62.0,112.0
836,144.39045925,144.69656099999997,53.0,106.0
837,144.39045925,144.72904125,62.0,112.0
838,144.39045925,144.73297824999997,58.0,117.0
839,144.62667925,144.94360774999998,46.0,55.0
840,144.86289924999997,144.96722974999997,53.0,104.0
841,145.09911924999997,145.24478824999997,53.0,112.0
842,145.09911924999997,145.43277999999998,46.0,110.0
843,145.09911924999997,145.46132325,58.0,123.0
844,145.33533924999998,145.49380349999998,53.0,104.0
845,145.09911924999997,145.49478774999997,62.0,115.0
846,145.57155924999998,145.91899949999998,58.0,117.0
847,145.57155924999998,145.91998374999997,63.0,107.0
848,145.57155924999998,145.924905,55.0,94.0
849,145.57155924999998,146.16309349999997,39.0,110.0
850,146.04399924999998,146.46919524999998,58.0,123.0
851,146.04399924999998,146.54399825,63.0,120.0
852,146.28021925,146.58828949999997,55.0,112.0
853,146.75265925,147.0686035,55.0,112.0
854,146.51643925,147.15029624999997,43.0,112.0
855,146.75265925,147.39439025,59.0,109.0
856,147.22509924999997,147.41505949999998,55.0,112.0
857,146.75265925,147.44360274999997,62.0,109.0
858,147.69753924999998,147.99871975,56.0,117.0
859,147.69753924999998,148.00265674999997,60.0,109.0
860,147.69753924999998,148.02037324999998,63.0,107.0
861,147.46131924999997,148.16210525,44.0,86.0
862,148.16997924999998,148.342223,60.0,104.0
863,148.16997924999998,148.36879774999997,63.0,117.0
864,148.16997924999998,148.37962449999998,56.0,117.0
865,148.40619925,148.724112,39.0,63.0
866,148.64241925,148.87568649999997,55.0,109.0
867,148.64241925,148.90619825,58.0,101.0
868,148.64241925,148.94359974999998,51.0,110.0
869,148.87863925,148.96919024999997,46.0,66.0
870,149.11485925,149.16013474999997,55.0,87.0
871,149.11485925,149.20934724999998,51.0,110.0
872,149.11485925,149.2221425,58.0,99.0
873,149.35107924999997,149.65422825,56.0,104.0
874,149.35107924999997,149.66997625,53.0,104.0
875,149.35107924999997,150.02430625,41.0,106.0
876,149.82351924999998,150.13847925,56.0,113.0
877,149.82351924999998,150.188676,53.0,106.0
878,149.82351924999998,150.220172,60.0,109.0
879,150.29595924999998,150.33040799999998,65.0,69.0
880,150.29595924999998,150.3363135,53.0,78.0
881,150.29595924999998,150.36485674999997,60.0,94.0
882,150.53217924999998,150.78316299999997,56.0,123.0
883,150.53217924999998,150.7930055,53.0,109.0
884,150.53217924999998,150.81072199999997,60.0,112.0
885,150.53217924999998,150.81170625,65.0,104.0
886,150.76839925,150.9071785,41.0,91.0
887,151.00461925,151.16800475,65.0,101.0
888,151.00461925,151.19359525,56.0,120.0
889,151.00461925,151.21918574999998,53.0,109.0
890,151.00461925,151.263477,60.0,112.0
891,151.24083925,151.55875199999997,46.0,93.0
892,151.47705924999997,151.61288574999998,53.0,106.0
893,151.47705924999997,151.6158385,58.0,120.0
894,151.47705924999997,151.61780699999997,62.0,112.0
895,151.94949924999997,152.25560099999998,53.0,106.0
896,151.94949924999997,152.28808124999998,62.0,112.0
897,151.94949924999997,152.29201824999998,58.0,117.0
898,152.18571924999998,152.50264775,46.0,55.0
899,152.42193924999998,152.52626974999998,53.0,104.0
900,152.65815924999998,152.80382824999998,53.0,112.0
901,152.65815924999998,152.99182,46.0,110.0
902,152.65815924999998,153.02036324999997,58.0,123.0
903,152.89437925,153.0528435,53.0,104.0
904,152.65815924999998,153.05382774999998,62.0,115.0
905,153.13059925,153.4780395,58.0,117.0
906,153.13059925,153.47902374999998,63.0,107.0
907,153.13059925,153.48394499999998,55.0,94.0
908,153.13059925,153.72213349999998,39.0,110.0
909,153.60303925,154.02823525,58.0,123.0
910,153.60303925,154.10303824999997,63.0,120.0
911,153.83925924999997,154.14732949999998,55.0,112.0
912,154.31169924999998,154.62764349999998,55.0,112.0
913,154.07547924999997,154.70933624999998,43.0,112.0
914,154.31169924999998,154.95343024999997,59.0,109.0
915,154.78413924999998,154.9740995,55.0,112.0
916,154.31169924999998,155.00264274999998,62.0,109.0
917,155.25657925,155.55775974999997,56.0,117.0
918,155.25657925,155.56169674999998,60.0,109.0
919,155.25657925,155.57941325,63.0,107.0
920,155.02035924999998,155.72114524999998,44.0,86.0
921,155.72901925,155.90126299999997,60.0,104.0
922,155.72901925,155.92783774999998,63.0,117.0
923,155.72901925,155.9386645,56.0,117.0
924,155.96523924999997,156.28315199999997,39.0,63.0
925,156.20145924999997,156.43472649999998,55.0,109.0
926,156.20145924999997,156.46523824999997,58.0,101.0
927,156.20145924999997,156.50263975,51.0,110.0
928,156.43767924999997,156.52823024999998,46.0,66.0
929,156.67389924999998,156.71917474999998,55.0,87.0
930,156.67389924999998,156.76838725,51.0,110.0
931,156.67389924999998,156.78118249999997,58.0,99.0
932,156.91011924999998,157.21326824999997,56.0,104.0
933,156.91011924999998,157.22901624999997,53.0,104.0
934,156.91011924999998,157.58334624999998,41.0,106.0
935,157.38255924999999,157.69751924999997,56.0,113.0
936,157.38255924999999,157.74771599999997,53.0,106.0
937,157.38255924999999,157.77921199999997,60.0,109.0
938,157.85499925,157.889448,65.0,69.0
939,157.85499925,157.89535349999997,53.0,78.0
940,157.85499925,157.92389674999998,60.0,94.0
941,158.09121925,158.34220299999998,56.0,123.0
942,158.09121925,158.35204549999997,53.0,109.0
943,158.09121925,158.36976199999998,60.0,112.0
944,158.09121925,158.37074624999997,65.0,104.0
945,158.32743924999997,158.46621849999997,41.0,91.0
946,158.56365924999997,158.72704474999998,65.0,101.0
947,158.56365924999997,158.75263524999997,56.0,120.0
948,158.56365924999997,158.77822575,53.0,109.0
949,158.56365924999997,158.82251699999998,60.0,112.0
950,158.79987924999998,159.11779199999998,46.0,93.0
951,159.03609924999998,159.17192574999999,53.0,106.0
952,159.03609924999998,159.17487849999998,58.0,120.0
953,159.03609924999998,159.17684699999998,62.0,112.0
954,159.50853924999998,159.814641,53.0,106.0
955,159.50853924999998,159.84712125,62.0,112.0
956,159.50853924999998,159.85105825,58.0,117.0
957,159.74475925,160.06168774999998,46.0,55.0
958,159.98097925,160.08530975,53.0,104.0
959,160.21719925,160.36286825,53.0,112.0
960,160.21719925,160.55085999999997,46.0,110.0
961,160.21719925,160.57940324999998,58.0,123.0
962,160.45341924999997,160.61188349999998,53.0,104.0
963,160.21719925,160.61286775,62.0,115.0
964,160.68963924999997,161.03707949999998,58.0,117.0
965,160.68963924999997,161.03806375,63.0,107.0
966,160.68963924999997,161.042985,55.0,94.0
967,160.68963924999997,161.2811735,39.0,110.0
968,161.16207924999998,161.58727524999998,58.0,123.0
969,161.16207924999998,161.66207824999998,63.0,120.0
970,161.39829924999998,161.7063695,55.0,112.0
971,161.87073924999999,162.1866835,55.0,112.0
972,161.63451924999998,162.26837625,43.0,112.0
973,161.87073924999999,162.51247024999998,59.0,109.0
974,162.34317925,162.53313949999998,55.0,112.0
975,161.87073924999999,162.56168275,62.0,109.0
976,162.81561924999997,163.11679974999998,56.0,117.0
977,162.81561924999997,163.12073675,60.0,109.0
978,162.81561924999997,163.13845324999997,63.0,107.0
979,162.57939925,163.28018525,44.0,86.0
980,163.28805924999998,163.46030299999998,60.0,104.0
981,163.28805924999998,163.48687775,63.0,117.0
982,163.28805924999998,163.49770449999997,56.0,117.0
983,163.52427924999998,163.84219199999998,39.0,63.0
984,163.76049924999998,163.9937665,55.0,109.0
985,163.76049924999998,164.02427824999998,58.0,101.0
986,163.76049924999998,164.06167974999997,51.0,110.0
987,163.99671924999998,164.08727025,46.0,66.0
988,164.23293925,164.27821475,55.0,87.0
989,164.23293925,164.32742724999997,51.0,110.0
990,164.23293925,164.34022249999998,58.0,99.0
991,164.46915925,164.77230824999998,56.0,104.0
992,164.46915925,164.78805624999998,53.0,104.0
993,164.46915925,165.14238625,41.0,106.0
994,164.94159924999997,165.25655924999998,56.0,113.0
995,164.94159924999997,165.30675599999998,53.0,106.0
996,164.94159924999997,165.33825199999998,60.0,109.0
997,165.41403924999997,165.44848799999997,65.0,69.0
998,165.41403924999997,165.45439349999998,53.0,78.0
999,165.41403924999997,165.48293675,60.0,94.0
1000,165.65025924999998,165.901243,56.0,123.0
1001,165.65025924999998,165.91108549999998,53.0,109.0
1002,165.65025924999998,165.928802,60.0,112.0
1003,165.65025924999998,165.92978624999998,65.0,104.0
1004,165.88647924999998,166.02525849999998,41.0,91.0
1005,166.12269924999998,166.28608475,65.0,101.0
1006,166.12269924999998,166.31167524999998,56.0,120.0
1007,166.12269924999998,166.33726574999997,53.0,109.0
1008,166.12269924999998,166.381557,60.0,112.0
1009,166.35891924999999,166.676832,46.0,93.0
1010,166.59513925,166.73096574999997,53.0,106.0
1011,166.59513925,166.7339185,58.0,120.0
1012,166.59513925,166.735887,62.0,112.0
1013,167.06757924999997,167.37368099999998,53.0,106.0
1014,167.06757924999997,167.40616124999997,62.0,112.0
1015,167.06757924999997,167.41009824999998,58.0,117.0
1016,167.30379924999997,167.62072775,46.0,55.0
1017,167.54001924999997,167.64434974999998,53.0,104.0
1018,167.77623924999997,167.92190824999997,53.0,112.0
1019,167.77623924999997,168.10989999999998,46.0,110.0
1020,167.77623924999997,168.13844324999997,58.0,123.0
1021,168.01245924999998,168.1709235,53.0,104.0
1022,167.77623924999997,168.17190774999997,62.0,115.0
1023,168.24867924999998,168.50261575,60.0,99.0
1024,168.24867924999998,168.72013499999997,63.0,113.0
1025,168.72111925,168.83529224999998,60.0,78.0
1026,168.48489924999998,169.21718124999998,55.0,78.0
1027,168.95733925,169.47210199999998,60.0,101.0
1028,168.24867924999998,169.48588149999998,48.0,104.0
1029,168.95733925,169.50950349999997,63.0,117.0
1030,168.95733925,169.54493649999998,67.0,104.0
1031,169.66599924999997,169.80182574999998,60.0,99.0
1032,169.90221924999997,170.16009275,63.0,110.0
1033,170.13843924999998,170.52524949999997,62.0,106.0
1034,170.61087924999998,170.76146949999998,58.0,107.0
1035,170.37465924999998,171.34808249999998,53.0,89.0
1036,170.84709924999999,171.60300324999997,62.0,106.0
1037,170.84709924999999,171.61284575,58.0,99.0
1038,170.13843924999998,171.62760949999998,46.0,88.0
1039,170.84709924999999,171.68272749999997,67.0,91.0
1040,172.02819924999997,172.29689949999997,56.0,110.0
1041,172.02819924999997,172.629576,63.0,104.0
1042,172.50063924999998,172.65811924999997,56.0,93.0
1043,172.73685924999998,172.96126825,60.0,106.0
1044,172.73685924999998,173.09315775,63.0,101.0
1045,172.73685924999998,173.33331474999997,56.0,110.0
1046,172.02819924999997,173.43764524999997,44.0,107.0
1047,172.26441924999997,173.45929875,51.0,101.0
1048,173.44551925,173.49276324999997,60.0,87.0
1049,173.68173925,174.10496675,56.0,113.0
1050,173.44551925,174.67386324999998,63.0,117.0
1051,174.62661924999998,174.92484699999997,56.0,110.0
1052,172.73685924999998,174.94354774999996,67.0,101.0
1053,174.86283924999998,175.20338974999999,51.0,110.0
1054,175.09905924999998,175.20732675,56.0,117.0
1055,175.09905924999998,175.36185399999997,60.0,106.0
1056,175.33527924999999,175.3874445,56.0,96.0
1057,175.09905924999998,175.48291675,63.0,113.0
1058,175.09905924999998,175.63350699999998,67.0,101.0
1059,175.76342799999998,176.37464724999998,67.0,101.0
1060,176.27326949999997,176.53606424999998,60.0,76.0
1061,176.01047475,176.53704849999997,55.0,85.0
1062,176.51047375,176.69649699999997,62.0,109.0
1063,176.71913474999997,176.99570899999998,55.0,69.0
1064,175.77917599999998,177.11480324999997,48.0,91.0
1065,176.96519725,177.31755875,63.0,110.0
1066,177.64531399999998,178.14137599999998,67.0,104.0
1067,178.15613974999997,178.3795645,62.0,96.0
1068,177.98094324999997,178.44649349999997,53.0,20.0
1069,178.37365899999998,178.59806799999998,63.0,113.0
1070,178.60298924999998,178.93369724999997,53.0,61.0
1071,177.63448724999998,179.04983875,46.0,74.0
1072,178.82838249999998,179.27424774999997,67.0,104.0
1073,179.54983774999997,180.00160849999997,67.0,101.0
1074,180.01932499999998,180.29196224999998,62.0,89.0
1075,179.77719949999997,180.4622375,51.0,56.0
1076,179.5527905,180.49078074999997,44.0,77.0
1077,180.25849774999998,180.78113449999998,63.0,113.0
1078,180.73192199999997,181.74569949999997,67.0,106.0
1079,181.73290425,182.00652574999998,55.0,82.0
1080,181.8874315,182.06164374999997,56.0,83.0
1081,182.02325799999997,182.20632849999998,63.0,107.0
1082,181.594125,182.22502924999998,51.0,42.0
1083,182.15219474999998,182.326407,56.0,93.0
1084,181.37660574999998,182.33723374999997,44.0,66.0
1085,182.28014724999997,182.51243024999997,55.0,82.0
1086,182.68270549999997,182.85298074999997,55.0,78.0
1087,182.47502874999998,182.88053974999997,51.0,79.0
1088,182.77620924999997,182.92581524999997,56.0,99.0
1089,182.90317749999997,183.07345274999997,63.0,120.0
1090,183.01931899999997,183.14136599999998,56.0,113.0
1091,183.13546049999997,183.28014524999998,55.0,82.0
1092,183.53605025,183.67286099999998,55.0,46.0
1093,183.60593199999997,183.71124675,56.0,96.0
1094,183.29097199999998,183.7338845,44.0,61.0
1095,183.44156224999998,183.79195524999997,51.0,65.0
1096,183.7063255,183.85593149999997,63.0,110.0
1097,183.80967174999998,183.91301799999997,56.0,110.0
1098,183.89825424999998,184.03703349999998,55.0,94.0
1099,184.05179724999996,184.42384374999997,44.0,58.0
1100,184.20632449999997,184.46616649999999,51.0,45.0
1101,184.31852899999998,184.50356799999997,55.0,74.0
1102,184.42089099999998,184.56360725,56.0,104.0
1103,184.57738675,184.66596925,63.0,70.0
1104,184.97207099999997,185.16990524999997,67.0,51.0
1105,185.07541725,185.18368474999997,68.0,58.0
1106,184.79293749999997,185.20927525,51.0,56.0
1107,184.657111,185.21419649999999,44.0,74.0
1108,185.21025949999998,185.34608599999999,75.0,52.0
1109,185.31360574999997,185.43073149999998,68.0,110.0
1110,185.43073149999998,185.61872325,67.0,101.0
1111,185.67285699999996,185.76537649999997,51.0,44.0
1112,185.80474649999996,186.13643874999997,44.0,38.0
1113,185.93269899999999,186.19057249999997,67.0,22.0
1114,186.17679299999998,186.27521799999997,79.0,89.0
