,start,end,pitch,velocity
0,16.747916666666665,16.88125,71.0,96.0
1,16.997916666666665,17.1375,79.0,110.0
2,17.247916666666665,17.49375,79.0,114.0
3,17.747916666666665,17.88125,74.0,89.0
4,17.997916666666665,18.135416666666668,79.0,107.0
5,18.247916666666665,18.3375,79.0,89.0
6,18.747916666666665,18.8875,74.0,100.0
7,18.997916666666665,19.1375,79.0,104.0
8,19.247916666666665,19.454166666666666,79.0,107.0
9,19.747916666666665,19.9875,74.0,88.0
10,19.997916666666665,20.164583333333333,79.0,93.0
11,20.247916666666665,20.491666666666667,79.0,93.0
12,20.747916666666665,21.010416666666668,74.0,85.0
13,20.997916666666665,21.172916666666666,79.0,87.0
14,21.247916666666665,21.4375,79.0,91.0
15,21.997916666666665,22.266666666666666,74.0,94.0
16,22.247916666666665,22.53125,76.0,102.0
17,24.747916666666665,24.991666666666667,71.0,88.0
18,24.997916666666665,25.139583333333334,79.0,102.0
19,25.247916666666665,25.441666666666666,79.0,100.0
20,25.747916666666665,25.8875,74.0,92.0
21,25.997916666666665,26.122916666666665,79.0,94.0
22,26.247916666666665,26.397916666666667,79.0,98.0
23,26.747916666666665,26.872916666666665,74.0,91.0
24,26.997916666666665,27.122916666666665,79.0,92.0
25,27.247916666666665,27.425,79.0,94.0
26,27.747916666666665,27.872916666666665,74.0,90.0
27,27.997916666666665,28.125,79.0,98.0
28,28.247916666666665,28.397916666666667,79.0,93.0
29,28.747916666666665,28.85625,74.0,87.0
30,28.997916666666665,29.114583333333332,79.0,91.0
31,29.247916666666665,29.40625,79.0,91.0
32,29.747916666666665,30.010416666666668,79.0,85.0
33,29.997916666666665,30.177083333333332,81.0,92.0
34,30.247916666666665,30.558333333333334,83.0,107.0
35,32.49791666666667,32.75416666666666,84.0,98.0
36,32.74791666666667,32.99375,81.0,90.0
37,32.99791666666667,33.225,76.0,89.0
38,33.24791666666667,33.56666666666666,84.0,104.0
39,33.74791666666667,33.99166666666667,81.0,98.0
40,34.24791666666667,34.40833333333333,76.0,92.0
41,34.49791666666667,34.70625,83.0,114.0
42,34.74791666666667,34.96041666666667,81.0,91.0
43,34.99791666666667,35.1375,76.0,80.0
44,35.24791666666667,35.577083333333334,83.0,110.0
45,35.74791666666667,36.014583333333334,81.0,104.0
46,36.49791666666667,36.833333333333336,81.0,114.0
47,36.99791666666667,37.28541666666666,79.0,110.0
48,37.49791666666667,37.802083333333336,79.0,114.0
49,37.99791666666667,38.291666666666664,78.0,119.0
50,38.49791666666667,38.82083333333333,76.0,110.0
51,40.49791666666667,40.64791666666667,78.0,119.0
52,40.74791666666667,40.85,78.0,109.0
53,40.99791666666667,41.204166666666666,78.0,109.0
54,41.24791666666667,41.625,74.0,114.0
55,43.49791666666667,43.8125,74.0,116.0
56,43.99791666666667,44.260416666666664,71.0,114.0
57,44.49791666666667,44.95625,76.0,114.0
58,48.74791666666667,48.88125,71.0,96.0
59,48.99791666666667,49.1375,79.0,110.0
60,49.24791666666667,49.49375,79.0,114.0
61,49.74791666666667,49.88125,74.0,89.0
62,49.99791666666667,50.135416666666664,79.0,107.0
63,50.24791666666667,50.3375,79.0,89.0
64,50.74791666666667,50.8875,74.0,100.0
65,50.99791666666667,51.1375,79.0,104.0
66,51.24791666666667,51.454166666666666,79.0,107.0
67,51.74791666666667,51.9875,74.0,88.0
68,51.99791666666667,52.16458333333333,79.0,93.0
69,52.24791666666667,52.49166666666667,79.0,93.0
70,52.74791666666667,53.010416666666664,74.0,85.0
71,52.99791666666667,53.172916666666666,79.0,87.0
72,53.24791666666667,53.4375,79.0,91.0
73,53.99791666666667,54.266666666666666,74.0,94.0
74,54.24791666666667,54.53125,76.0,102.0
75,56.74791666666667,56.99166666666667,71.0,88.0
76,56.99791666666667,57.139583333333334,79.0,102.0
77,57.24791666666667,57.44166666666666,79.0,100.0
78,57.74791666666667,57.887499999999996,74.0,92.0
79,57.99791666666667,58.12291666666667,79.0,94.0
80,58.24791666666667,58.39791666666667,79.0,98.0
81,58.74791666666667,58.87291666666667,74.0,91.0
82,58.99791666666667,59.12291666666667,79.0,92.0
83,59.24791666666667,59.425,79.0,94.0
84,59.74791666666667,59.87291666666667,74.0,90.0
85,59.99791666666667,60.125,79.0,98.0
86,60.24791666666667,60.39791666666667,79.0,93.0
87,60.74791666666667,60.856249999999996,74.0,87.0
88,60.99791666666667,61.114583333333336,79.0,91.0
89,61.24791666666667,61.40625,79.0,91.0
90,61.74791666666667,62.010416666666664,79.0,85.0
91,61.99791666666667,62.177083333333336,81.0,92.0
92,62.24791666666667,62.55833333333333,83.0,107.0
93,64.49791666666667,64.75416666666666,84.0,98.0
94,64.74791666666667,64.99375,81.0,90.0
95,64.99791666666667,65.225,76.0,89.0
96,65.24791666666667,65.56666666666666,84.0,104.0
97,65.74791666666667,65.99166666666666,81.0,98.0
98,66.24791666666667,66.40833333333333,76.0,92.0
99,66.49791666666667,66.70625,83.0,114.0
100,66.74791666666667,66.96041666666666,81.0,91.0
101,66.99791666666667,67.1375,76.0,80.0
102,67.24791666666667,67.57708333333333,83.0,110.0
103,67.74791666666667,68.01458333333333,81.0,104.0
104,68.49791666666667,68.83333333333333,81.0,114.0
105,68.99791666666667,69.28541666666666,79.0,110.0
106,69.49791666666667,69.80208333333333,79.0,114.0
107,69.99791666666667,70.29166666666667,78.0,119.0
108,70.49791666666667,70.82083333333333,76.0,110.0
109,72.49791666666667,72.64791666666666,78.0,119.0
110,72.74791666666667,72.85,78.0,109.0
111,72.99791666666667,73.20416666666667,78.0,109.0
112,73.24791666666667,73.625,74.0,114.0
113,75.49791666666667,75.8125,74.0,116.0
114,75.99791666666667,76.26041666666667,71.0,114.0
115,76.49791666666667,76.95625,76.0,114.0
116,79.49791666666667,79.85416666666667,76.0,117.0
117,79.99791666666667,80.29375,79.0,117.0
118,80.49791666666667,80.91041666666666,81.0,117.0
119,81.49791666666667,81.68125,81.0,119.0
120,81.74791666666667,81.93125,83.0,119.0
121,81.99791666666667,82.16875,81.0,116.0
122,82.24791666666667,82.39375,79.0,114.0
123,82.49791666666667,82.87708333333333,81.0,119.0
124,83.49791666666667,83.82291666666667,79.0,114.0
125,83.99791666666667,84.25833333333333,81.0,117.0
126,84.49791666666667,84.90833333333333,83.0,119.0
127,84.99791666666667,85.22291666666666,83.0,114.0
128,85.24791666666667,85.43125,81.0,114.0
129,85.49791666666667,85.78333333333333,79.0,116.0
130,85.99791666666667,86.27916666666667,81.0,117.0
131,86.49791666666667,86.86875,83.0,120.0
132,87.49791666666667,87.79791666666667,76.0,110.0
133,87.99791666666667,88.26458333333333,79.0,117.0
134,88.49791666666667,88.84375,81.0,120.0
135,89.49791666666667,89.68958333333333,81.0,120.0
136,89.74791666666667,89.89583333333333,83.0,110.0
137,89.99791666666667,90.13125,81.0,116.0
138,90.24791666666667,90.35625,79.0,114.0
139,90.49791666666667,90.85416666666667,81.0,119.0
140,91.49791666666667,91.74791666666667,79.0,119.0
141,91.99791666666667,92.26041666666667,81.0,117.0
142,92.49791666666667,92.77916666666667,83.0,119.0
143,92.99791666666667,93.19583333333333,83.0,116.0
144,93.24791666666667,93.46041666666666,86.0,113.0
145,93.49791666666667,93.79583333333333,83.0,116.0
146,93.99791666666667,94.27916666666667,81.0,116.0
147,94.49791666666667,94.90625,83.0,120.0
148,95.49791666666667,95.84375,83.0,116.0
149,95.99791666666667,96.32708333333333,86.0,119.0
150,96.49791666666667,96.77916666666667,88.0,120.0
151,96.99791666666667,97.26875,91.0,117.0
152,97.49791666666667,97.82916666666667,91.0,119.0
153,97.99791666666667,98.28958333333333,88.0,120.0
154,98.49791666666667,98.96666666666667,86.0,123.0
155,99.49791666666667,99.90833333333333,83.0,114.0
156,99.99791666666667,100.36666666666666,86.0,116.0
157,100.49791666666667,100.8125,88.0,119.0
158,100.99791666666667,101.16458333333333,88.0,119.0
159,101.24791666666667,101.39375,91.0,116.0
160,101.49791666666667,101.82916666666667,88.0,120.0
161,101.99791666666667,102.33125,86.0,119.0
162,102.49791666666667,102.98125,88.0,120.0
163,103.49791666666667,103.81458333333333,83.0,116.0
164,103.99791666666667,104.29791666666667,86.0,117.0
165,104.49791666666667,104.74166666666666,88.0,119.0
166,104.99791666666667,105.12916666666666,88.0,119.0
167,105.24791666666667,105.42083333333333,91.0,119.0
168,105.49791666666667,105.82291666666667,91.0,120.0
169,105.99791666666667,106.26458333333333,88.0,119.0
170,106.49791666666667,106.8625,86.0,123.0
171,106.99791666666667,107.32916666666667,88.0,116.0
172,107.49791666666667,107.88958333333333,83.0,119.0
173,107.99791666666667,108.30624999999999,81.0,117.0
174,108.49791666666667,109.33333333333333,79.0,117.0
175,128.74791666666667,128.88125,71.0,96.0
176,128.99791666666667,129.1375,79.0,110.0
177,129.24791666666667,129.49375,79.0,114.0
178,129.74791666666667,129.88125,74.0,89.0
179,129.99791666666667,130.13541666666666,79.0,107.0
180,130.24791666666667,130.3375,79.0,89.0
181,130.74791666666667,130.8875,74.0,100.0
182,130.99791666666667,131.1375,79.0,104.0
183,131.24791666666667,131.45416666666665,79.0,107.0
184,131.74791666666667,131.9875,74.0,88.0
185,131.99791666666667,132.16458333333333,79.0,93.0
186,132.24791666666667,132.49166666666667,79.0,93.0
187,132.74791666666667,133.01041666666666,74.0,85.0
188,132.99791666666667,133.17291666666665,79.0,87.0
189,133.24791666666667,133.4375,79.0,91.0
190,133.99791666666667,134.26666666666665,74.0,94.0
191,134.24791666666667,134.53125,76.0,102.0
192,136.74791666666667,136.99166666666667,71.0,88.0
193,136.99791666666667,137.13958333333332,79.0,102.0
194,137.24791666666667,137.44166666666666,79.0,100.0
195,137.74791666666667,137.8875,74.0,92.0
196,137.99791666666667,138.12291666666667,79.0,94.0
197,138.24791666666667,138.39791666666667,79.0,98.0
198,138.74791666666667,138.87291666666667,74.0,91.0
199,138.99791666666667,139.12291666666667,79.0,92.0
200,139.24791666666667,139.425,79.0,94.0
201,139.74791666666667,139.87291666666667,74.0,90.0
202,139.99791666666667,140.125,79.0,98.0
203,140.24791666666667,140.39791666666667,79.0,93.0
204,140.74791666666667,140.85625,74.0,87.0
205,140.99791666666667,141.11458333333334,79.0,91.0
206,141.24791666666667,141.40625,79.0,91.0
207,141.74791666666667,142.01041666666666,79.0,85.0
208,141.99791666666667,142.17708333333334,81.0,92.0
209,142.24791666666667,142.55833333333334,83.0,107.0
210,144.49791666666667,144.75416666666666,84.0,98.0
211,144.74791666666667,144.99375,81.0,90.0
212,144.99791666666667,145.225,76.0,89.0
213,145.24791666666667,145.56666666666666,84.0,104.0
214,145.74791666666667,145.99166666666667,81.0,98.0
215,146.24791666666667,146.40833333333333,76.0,92.0
216,146.49791666666667,146.70625,83.0,114.0
217,146.74791666666667,146.96041666666667,81.0,91.0
218,146.99791666666667,147.1375,76.0,80.0
219,147.24791666666667,147.57708333333332,83.0,110.0
220,147.74791666666667,148.01458333333332,81.0,104.0
221,148.49791666666667,148.83333333333334,81.0,114.0
222,148.99791666666667,149.28541666666666,79.0,110.0
223,149.49791666666667,149.80208333333334,79.0,114.0
224,149.99791666666667,150.29166666666666,78.0,119.0
225,150.49791666666667,150.82083333333333,76.0,110.0
226,152.49791666666667,152.64791666666667,78.0,119.0
227,152.74791666666667,152.85,78.0,109.0
228,152.99791666666667,153.20416666666665,78.0,109.0
229,153.24791666666667,153.625,74.0,114.0
230,155.49791666666667,155.8125,74.0,116.0
231,155.99791666666667,156.26041666666666,71.0,114.0
232,156.49791666666667,156.95625,76.0,114.0
233,160.74791666666667,160.88125,71.0,96.0
234,160.99791666666667,161.1375,79.0,110.0
235,161.24791666666667,161.49375,79.0,114.0
236,161.74791666666667,161.88125,74.0,89.0
237,161.99791666666667,162.13541666666666,79.0,107.0
238,162.24791666666667,162.3375,79.0,89.0
239,162.74791666666667,162.8875,74.0,100.0
240,162.99791666666667,163.1375,79.0,104.0
241,163.24791666666667,163.45416666666665,79.0,107.0
242,163.74791666666667,163.9875,74.0,88.0
243,163.99791666666667,164.16458333333333,79.0,93.0
244,164.24791666666667,164.49166666666667,79.0,93.0
245,164.74791666666667,165.01041666666666,74.0,85.0
246,164.99791666666667,165.17291666666665,79.0,87.0
247,165.24791666666667,165.4375,79.0,91.0
248,165.99791666666667,166.26666666666665,74.0,94.0
249,166.24791666666667,166.53125,76.0,102.0
250,168.74791666666667,168.99166666666667,71.0,88.0
251,168.99791666666667,169.13958333333332,79.0,102.0
252,169.24791666666667,169.44166666666666,79.0,100.0
253,169.74791666666667,169.8875,74.0,92.0
254,169.99791666666667,170.12291666666667,79.0,94.0
255,170.24791666666667,170.39791666666667,79.0,98.0
256,170.74791666666667,170.87291666666667,74.0,91.0
257,170.99791666666667,171.12291666666667,79.0,92.0
258,171.24791666666667,171.425,79.0,94.0
259,171.74791666666667,171.87291666666667,74.0,90.0
260,171.99791666666667,172.125,79.0,98.0
261,172.24791666666667,172.39791666666667,79.0,93.0
262,172.74791666666667,172.85625,74.0,87.0
263,172.99791666666667,173.11458333333334,79.0,91.0
264,173.24791666666667,173.40625,79.0,91.0
265,173.74791666666667,174.01041666666666,79.0,85.0
266,173.99791666666667,174.17708333333334,81.0,92.0
267,174.24791666666667,174.55833333333334,83.0,107.0
268,176.49791666666667,176.75416666666666,84.0,98.0
269,176.74791666666667,176.99375,81.0,90.0
270,176.99791666666667,177.225,76.0,89.0
271,177.24791666666667,177.56666666666666,84.0,104.0
272,177.74791666666667,177.99166666666667,81.0,98.0
273,178.24791666666667,178.40833333333333,76.0,92.0
274,178.49791666666667,178.70625,83.0,114.0
275,178.74791666666667,178.96041666666667,81.0,91.0
276,178.99791666666667,179.1375,76.0,80.0
277,179.24791666666667,179.57708333333332,83.0,110.0
278,179.74791666666667,180.01458333333332,81.0,104.0
279,180.49791666666667,180.83333333333334,86.0,114.0
280,180.99791666666667,181.28541666666666,83.0,110.0
281,181.49791666666667,181.71666666666667,81.0,114.0
282,181.75,182.04375,83.0,119.0
283,182.25,182.54375,81.0,119.0
284,182.49791666666667,182.82083333333333,79.0,110.0
285,184.49791666666667,184.64791666666667,78.0,119.0
286,184.74791666666667,184.85,78.0,109.0
287,184.99791666666667,185.20416666666665,78.0,109.0
288,185.24791666666667,185.625,74.0,114.0
289,187.49791666666667,187.8125,74.0,116.0
290,187.99791666666667,188.26041666666666,71.0,114.0
291,188.49791666666667,188.95625,76.0,114.0
292,191.49791666666667,191.85416666666666,76.0,117.0
293,191.99791666666667,192.29375,79.0,117.0
294,192.49791666666667,192.91041666666666,81.0,117.0
295,193.49791666666667,193.68125,81.0,119.0
296,193.74791666666667,193.93125,83.0,119.0
297,193.99791666666667,194.16875,81.0,116.0
298,194.24791666666667,194.39375,79.0,114.0
299,194.49791666666667,194.87708333333333,81.0,119.0
300,195.49791666666667,195.82291666666666,79.0,114.0
301,195.99791666666667,196.25833333333333,81.0,117.0
302,196.49791666666667,196.90833333333333,83.0,119.0
303,196.99791666666667,197.22291666666666,83.0,114.0
304,197.24791666666667,197.43125,81.0,114.0
305,197.49791666666667,197.78333333333333,79.0,116.0
306,197.99791666666667,198.27916666666667,81.0,117.0
307,198.49791666666667,198.86875,83.0,120.0
308,199.49791666666667,199.79791666666665,76.0,110.0
309,199.99791666666667,200.26458333333332,79.0,117.0
310,200.49791666666667,200.84375,81.0,120.0
311,201.49791666666667,201.68958333333333,81.0,120.0
312,201.74791666666667,201.89583333333334,83.0,110.0
313,201.99791666666667,202.13125,81.0,116.0
314,202.24791666666667,202.35625,79.0,114.0
315,202.49791666666667,202.85416666666666,81.0,119.0
316,203.49791666666667,203.74791666666667,79.0,119.0
317,203.99791666666667,204.26041666666666,81.0,117.0
318,204.49791666666667,204.77916666666667,83.0,119.0
319,204.99791666666667,205.19583333333333,83.0,116.0
320,205.24791666666667,205.46041666666667,86.0,113.0
321,205.49791666666667,205.79583333333332,83.0,116.0
322,205.99791666666667,206.27916666666667,81.0,116.0
323,206.49791666666667,206.90625,83.0,120.0
324,207.49791666666667,207.84375,83.0,116.0
325,207.99791666666667,208.32708333333332,86.0,119.0
326,208.49791666666667,208.77916666666667,88.0,120.0
327,208.99791666666667,209.26874999999998,91.0,117.0
328,209.49791666666667,209.82916666666665,91.0,119.0
329,209.99791666666667,210.28958333333333,88.0,120.0
330,210.49791666666667,210.96666666666667,86.0,123.0
331,211.49791666666667,211.90833333333333,83.0,114.0
332,211.99791666666667,212.36666666666667,86.0,116.0
333,212.49791666666667,212.8125,88.0,119.0
334,212.99791666666667,213.16458333333333,88.0,119.0
335,213.24791666666667,213.39374999999998,91.0,116.0
336,213.49791666666667,213.82916666666665,88.0,120.0
337,213.99791666666667,214.33124999999998,86.0,119.0
338,214.49791666666667,214.98125,88.0,120.0
339,215.49791666666667,215.81458333333333,83.0,116.0
340,215.99791666666667,216.29791666666665,86.0,117.0
341,216.49791666666667,216.74166666666667,88.0,119.0
342,216.99791666666667,217.12916666666666,88.0,119.0
343,217.24791666666667,217.42083333333332,91.0,119.0
344,217.49791666666667,217.82291666666666,91.0,120.0
345,217.99791666666667,218.26458333333332,88.0,119.0
346,218.49791666666667,218.86249999999998,86.0,123.0
347,218.99791666666667,219.32916666666665,88.0,116.0
348,219.49791666666667,219.88958333333332,83.0,119.0
349,219.99791666666667,220.30625,81.0,117.0
350,220.49791666666667,221.33333333333334,79.0,117.0
351,223.49791666666667,223.85416666666666,76.0,117.0
352,223.99791666666667,224.29375,79.0,117.0
353,224.49791666666667,224.91041666666666,81.0,117.0
354,225.49791666666667,225.68125,81.0,119.0
355,225.74791666666667,225.93125,83.0,119.0
356,225.99791666666667,226.16875,81.0,116.0
357,226.24791666666667,226.39374999999998,79.0,114.0
358,226.49791666666667,226.87708333333333,81.0,119.0
359,227.49791666666667,227.82291666666666,79.0,114.0
360,227.99791666666667,228.25833333333333,81.0,117.0
361,228.49791666666667,228.90833333333333,83.0,119.0
362,228.99791666666667,229.22291666666666,83.0,114.0
363,229.24791666666667,229.43125,81.0,114.0
364,229.49791666666667,229.78333333333333,79.0,116.0
365,229.99791666666667,230.27916666666667,81.0,117.0
366,230.49791666666667,230.86875,83.0,120.0
367,231.49791666666667,231.79791666666665,76.0,110.0
368,231.99791666666667,232.26458333333332,79.0,117.0
369,232.49791666666667,232.84375,81.0,120.0
370,233.49791666666667,233.68958333333333,81.0,120.0
371,233.74791666666667,233.89583333333334,83.0,110.0
372,233.99791666666667,234.13125,81.0,116.0
373,234.24791666666667,234.35625,79.0,114.0
374,234.49791666666667,234.85416666666666,81.0,119.0
375,235.49791666666667,235.74791666666667,79.0,119.0
376,235.99791666666667,236.26041666666666,81.0,117.0
377,236.49791666666667,236.77916666666667,83.0,119.0
378,236.99791666666667,237.19583333333333,83.0,116.0
379,237.24791666666667,237.46041666666667,86.0,113.0
380,237.49791666666667,237.79583333333332,83.0,116.0
381,237.99791666666667,238.27916666666667,81.0,116.0
382,238.49791666666667,238.90625,83.0,120.0
383,239.49791666666667,239.84375,83.0,116.0
384,239.99791666666667,240.32708333333332,86.0,119.0
385,240.49791666666667,240.77916666666667,88.0,120.0
386,240.99791666666667,241.26874999999998,91.0,117.0
387,241.49791666666667,241.82916666666665,91.0,119.0
388,241.99791666666667,242.28958333333333,88.0,120.0
389,242.49791666666667,242.96666666666667,86.0,123.0
390,243.49791666666667,243.90833333333333,83.0,114.0
391,243.99791666666667,244.36666666666667,86.0,116.0
392,244.49791666666667,244.8125,88.0,119.0
393,244.99791666666667,245.16458333333333,88.0,119.0
394,245.24791666666667,245.39374999999998,91.0,116.0
395,245.49791666666667,245.82916666666665,88.0,120.0
396,245.99791666666667,246.33124999999998,86.0,119.0
397,246.49791666666667,246.98125,88.0,120.0
398,247.49791666666667,247.81458333333333,83.0,116.0
399,247.99791666666667,248.29791666666665,86.0,117.0
400,248.49791666666667,248.74166666666667,88.0,119.0
401,248.99791666666667,249.12916666666666,88.0,119.0
402,249.24791666666667,249.42083333333332,91.0,119.0
403,249.49791666666667,249.82291666666666,91.0,120.0
404,249.99791666666667,250.26458333333332,88.0,119.0
405,250.49791666666667,250.86249999999998,86.0,123.0
406,250.99791666666667,251.32916666666665,88.0,116.0
407,251.49791666666667,251.88958333333332,83.0,119.0
408,251.99791666666667,252.30625,81.0,117.0
409,252.49791666666667,253.33333333333334,79.0,117.0
410,255.49791666666667,255.84375,83.0,116.0
411,255.99791666666667,256.32708333333335,86.0,119.0
412,256.49791666666664,256.77916666666664,88.0,120.0
413,256.99791666666664,257.26875,91.0,117.0
414,257.49791666666664,257.82916666666665,91.0,119.0
415,257.99791666666664,258.2895833333333,88.0,120.0
416,258.49791666666664,258.96666666666664,86.0,123.0
417,259.49791666666664,259.9083333333333,83.0,114.0
418,259.99791666666664,260.3666666666667,86.0,116.0
419,260.49791666666664,260.8125,88.0,119.0
420,260.99791666666664,261.1645833333333,88.0,119.0
421,261.24791666666664,261.39375,91.0,116.0
422,261.49791666666664,261.82916666666665,88.0,120.0
423,261.99791666666664,262.33125,86.0,119.0
424,262.49791666666664,262.98125,88.0,120.0
425,263.49791666666664,263.8145833333333,83.0,116.0
426,263.99791666666664,264.29791666666665,86.0,117.0
427,264.49791666666664,264.7416666666667,88.0,119.0
428,264.99791666666664,265.12916666666666,88.0,119.0
429,265.24791666666664,265.42083333333335,91.0,119.0
430,265.49791666666664,265.8229166666667,91.0,120.0
431,265.99791666666664,266.26458333333335,88.0,119.0
432,266.49791666666664,266.73125,86.0,123.0
433,266.74791666666664,267.07916666666665,88.0,116.0
434,267.74791666666664,268.13958333333335,83.0,119.0
435,268.24791666666664,268.55625,81.0,117.0
436,268.99791666666664,269.8333333333333,79.0,117.0
