,start,end,pitch,velocity
0,1.9224123833333333,2.237067325,76.0,55.0
1,2.1810328833333332,2.4396533833333334,79.0,52.0
2,2.4396533833333334,2.810342766666667,81.0,54.0
3,2.6982738833333335,3.1163770250000002,83.0,64.0
4,3.7327558833333336,4.2931003,81.0,80.0
5,4.249996883333334,4.668100025,83.0,70.0
6,5.801719883333334,6.239219562500001,76.0,50.0
7,6.696115779166667,6.90516735,76.0,56.0
8,6.782322612500001,7.090512041666667,79.0,58.0
9,6.836201883333334,7.275856733333334,83.0,58.0
10,7.870683883333333,8.176718141666667,76.0,50.0
11,8.387924883333334,8.674562604166667,81.0,57.0
12,8.646545383333335,8.924562420833334,86.0,61.0
13,8.905165883333334,10.584043962500001,83.0,90.0
14,10.775854166666667,10.950423004166668,79.0,51.0
15,10.823267925,11.006457445833334,81.0,67.0
16,10.948267833333334,11.92240505,83.0,89.0
17,12.008611883333334,12.499990833333333,81.0,112.0
18,12.525852883333334,12.851283679166666,83.0,91.0
19,13.043093883333334,14.012920758333333,81.0,88.0
20,14.077575883333333,14.588351370833333,76.0,64.0
21,15.112057883333334,15.599126491666667,76.0,68.0
22,15.629298883333334,16.12283300416667,79.0,112.0
23,16.146539883333332,16.54955682916667,78.0,65.0
24,16.663780883333335,17.226280470833334,74.0,96.0
25,18.02584885,18.209038370833333,95.0,37.0
26,18.094814316666668,18.256452129166668,98.0,63.0
27,17.181021883333333,19.077572216666667,76.0,92.0
28,18.196107345833333,19.198261783333333,100.0,93.0
29,34.767215883333336,35.030146725,63.0,127.0
30,35.025836383333335,35.329715470833335,64.0,96.0
31,35.54307738333333,35.83402544583333,59.0,97.0
32,35.284456883333334,35.92023227916667,66.0,112.0
33,35.80169788333333,37.765058512500005,64.0,90.0
34,42.784451383333334,43.07108910416667,78.0,99.0
35,43.04307188333333,43.58617493333333,76.0,89.0
36,43.56031288333333,44.3469502375,78.0,89.0
37,67.61201938333333,67.80598475833334,90.0,122.0
38,67.74132963333334,67.92667432500001,91.0,99.0
39,67.87063988333334,68.11848452916666,90.0,122.0
40,68.12926038333333,68.39650156666667,88.0,112.0
41,68.38788088333334,68.6702082625,86.0,96.0
42,68.64650138333333,70.487017275,83.0,102.0
43,72.00856788333334,72.48055029583334,81.0,122.0
44,72.52580888333334,73.11848086250001,83.0,117.0
45,73.04304988333334,74.87494509166667,84.0,112.0
46,83.38786988333334,83.6831282875,88.0,99.0
47,83.64649038333333,84.42235188333333,95.0,100.0
48,84.68097238333334,84.93959288333333,76.0,102.0
49,84.93959288333333,85.23054094583334,79.0,97.0
50,85.19821338333334,85.538730375,81.0,96.0
51,85.45683388333333,86.3339884125,83.0,127.0
52,86.49131588333334,87.038362425,81.0,122.0
53,87.00826785000001,87.5564190375,83.0,112.0
54,87.52417485000001,88.55598885,81.0,112.0
55,88.55598885,89.55125943750001,76.0,107.0
56,89.4072354,89.5641571125,79.0,64.0
57,89.49107028750001,89.6415431625,81.0,78.0
58,89.57920440000001,90.383159475,83.0,93.0
59,90.61961685,90.9549564,76.0,107.0
60,90.87757035,91.1161773375,79.0,107.0
61,91.13552385,91.44506805,81.0,96.0
62,91.39347735000001,91.7180688375,86.0,95.0
63,91.65143085000001,92.7262371,83.0,102.0
64,93.461404575,93.6484208625,79.0,71.0
65,93.55168830000001,93.753751875,81.0,90.0
66,93.702161175,94.60929765,83.0,99.0
67,94.74687285,95.33801628750001,81.0,122.0
68,95.26277985,95.81308065,83.0,127.0
69,95.77868685,96.9158318625,81.0,127.0
70,96.81050085000001,97.66174740000001,76.0,102.0
71,97.84231485000001,98.32382805,76.0,127.0
72,98.35822185,98.8848769125,79.0,99.0
73,98.87412885,99.4179808125,78.0,122.0
74,99.39003585,99.92099013750001,74.0,95.0
75,100.7743863,100.9657018125,95.0,59.0
76,100.8195281625,100.99149716250001,98.0,65.0
77,100.9270087875,101.9158305375,100.0,96.0
78,99.90594285,102.04050806250001,76.0,96.0
79,168.16470188333335,169.1323735875,64.0,122.0
80,169.19918388333335,169.901769575,76.0,127.0
81,169.97504538333334,170.2832348125,71.0,122.0
82,170.23366588333334,171.73366478333332,69.0,127.0
83,171.78538888333333,172.33064710416667,71.0,122.0
84,172.30262988333334,173.40176700833334,72.0,127.0
85,173.33711188333336,174.23366295,74.0,127.0
86,174.37159388333333,175.99443752083334,71.0,112.0
87,176.44055788333333,177.39960890416668,64.0,112.0
88,177.47503988333335,178.01383259166667,76.0,127.0
89,177.99228088333334,178.56124598333335,71.0,107.0
90,178.50952188333335,180.02460697916666,69.0,117.0
91,180.06124488333336,180.58710656666668,71.0,127.0
92,180.57848588333334,182.03969170833335,72.0,122.0
93,182.13020888333335,182.7099498375,72.0,127.0
94,182.64744988333334,184.71641388333336,71.0,117.0
95,185.75089588333333,186.42546435416668,88.0,127.0
96,186.52675738333335,186.64098143750002,83.0,107.0
97,186.78537788333335,187.24227410000003,83.0,127.0
98,187.30261888333334,188.61727309166668,81.0,112.0
99,188.85434188333335,189.70347919166667,84.0,127.0
100,189.88882388333334,190.61296128333333,86.0,127.0
101,190.92330588333334,192.893132025,83.0,112.0
102,194.02675188333336,194.61511352083335,88.0,127.0
103,194.80261338333332,194.8974409,83.0,93.0
104,195.06123388333333,195.52890595416667,83.0,127.0
105,195.57847488333334,196.5202845375,81.0,127.0
106,197.13019788333332,199.21424807916668,84.0,127.0
107,199.71640288333333,200.005195775,64.0,112.0
108,199.97502338333334,200.19916115,66.0,117.0
109,199.19916188333335,200.23364388333334,83.0,122.0
110,200.23364388333334,201.28536725,61.0,127.0
111,201.26812588333334,203.23795202500003,66.0,127.0
112,238.203443625,238.31551250833334,78.0,112.0
113,238.3262883625,238.49654685833335,81.0,53.0
114,238.47930549166668,239.14740845,85.0,92.0
115,239.54395988333334,240.41680407083334,83.0,117.0
116,240.57844188333334,241.65818247083334,85.0,127.0
117,241.61292388333334,242.84352642916667,90.0,127.0
118,242.64740588333333,244.8219732541667,85.0,127.0
119,244.29611157083335,245.21421434583334,83.0,99.0
120,245.186197125,247.0655060916667,80.0,107.0
121,246.33274800833334,248.2616259041667,73.0,112.0
122,248.1840397541667,248.2616259041667,73.0,72.0
123,248.1969707791667,254.51808683333334,77.0,66.0
124,248.1905052666667,254.651707425,70.0,72.0
