,start,end,pitch,velocity
0,18.991365383333335,19.271537591666668,59.0,96.0
1,19.249985883333334,19.372830620833334,64.0,86.0
2,19.508606383333333,19.6228304375,64.0,66.0
3,19.767226883333333,19.900847475,64.0,82.0
4,20.025847383333335,20.15731280416667,66.0,92.0
5,20.284467883333335,20.661622779166667,67.0,102.0
6,20.543088383333334,20.661622779166667,67.0,96.0
7,20.801708883333333,20.991363916666668,67.0,83.0
8,21.060329383333332,21.2262775375,69.0,99.0
9,21.318949883333335,21.5883462375,66.0,127.0
10,21.577570383333335,21.8211046875,64.0,82.0
11,21.836190883333334,22.124983775,62.0,82.0
12,22.094811383333333,22.989207279166667,64.0,77.0
13,23.129293383333334,23.342655295833335,67.0,89.0
14,23.387913883333333,23.547396525,69.0,85.0
15,23.905154883333335,24.021534108333334,69.0,96.0
16,24.163775383333334,24.28446495,69.0,93.0
17,24.422395883333333,24.635757795833335,69.0,100.0
18,24.681016383333333,24.894378295833334,69.0,97.0
19,24.939636883333336,25.165929820833334,67.0,92.0
20,25.198257383333335,25.47411925,64.0,77.0
21,25.456877883333334,25.786619020833335,67.0,88.0
22,25.715498383333333,25.786619020833335,67.0,90.0
23,25.974118883333336,26.142222208333333,67.0,88.0
24,26.232739383333335,26.407308220833336,69.0,96.0
25,26.491359883333335,27.437479879166666,71.0,95.0
26,27.525841883333335,27.657307304166668,69.0,100.0
27,27.784462383333334,27.900841608333334,69.0,85.0
28,28.043082883333334,28.168082791666667,69.0,96.0
29,28.301703383333333,28.40084124166667,67.0,90.0
30,28.560323883333336,29.056013175,69.0,99.0
31,29.336185383333333,29.40299567916667,64.0,78.0
32,29.594805883333333,29.711185108333336,69.0,90.0
33,29.853426383333336,29.97411595,69.0,79.0
34,30.112046883333335,30.256443329166668,69.0,90.0
35,30.370667383333334,30.4848914375,67.0,89.0
36,30.629287883333333,31.1960978125,69.0,96.0
37,31.663769883333334,31.771528425,67.0,99.0
38,31.922390383333333,32.0236834125,67.0,89.0
39,32.181010883333336,32.29092459583333,67.0,89.0
40,32.439631383333335,32.540924412500004,67.0,92.0
41,32.698251883333334,32.79523457083334,67.0,93.0
42,32.956872383333334,33.6271305125,69.0,97.0
43,33.73273388333333,35.45256020833334,66.0,102.0
44,35.54307738333333,35.66376695,59.0,89.0
45,35.80169788333333,35.91376676666667,64.0,89.0
46,36.06031838333333,36.1616114125,64.0,83.0
47,36.31893888333334,36.422387083333334,64.0,90.0
48,36.57755938333334,36.70686963333333,66.0,97.0
49,36.83617988333334,37.094800383333336,67.0,99.0
50,37.094800383333336,37.18531755833334,67.0,90.0
51,37.353420883333335,37.474110450000005,67.0,95.0
52,37.612041383333334,37.75428265833334,69.0,96.0
53,37.870661883333334,38.0883341375,66.0,117.0
54,38.12928238333333,38.366351175,64.0,79.0
55,38.38790288333333,38.6443682125,62.0,82.0
56,38.64652338333333,39.3555745875,64.0,92.0
57,39.681005383333336,39.77367772916667,67.0,86.0
58,39.939625883333335,40.2219532625,69.0,102.0
59,40.198246383333334,40.2219532625,69.0,82.0
60,40.71548738333333,40.83402177916667,69.0,117.0
61,40.97410788333333,41.135745695833336,69.0,127.0
62,41.23272838333334,41.42884892916667,69.0,102.0
63,41.49134888333334,41.676693575,67.0,88.0
64,41.74996938333334,41.943934758333334,64.0,90.0
65,42.008589883333336,42.26936555416667,67.0,117.0
66,42.267210383333335,42.26936555416667,67.0,89.0
67,42.525830883333334,42.67453767083334,67.0,102.0
68,42.784451383333334,42.90083060833334,69.0,112.0
69,43.04307188333333,43.594795616666666,71.0,127.0
70,44.07755388333334,44.176691741666666,69.0,112.0
71,44.336174383333336,44.43315707083333,69.0,96.0
72,44.594794883333336,44.69824308333334,69.0,102.0
73,44.853415383333335,44.95039807083334,67.0,102.0
74,45.112035883333334,45.5107424875,69.0,117.0
75,45.88789738333333,46.036604170833336,64.0,93.0
76,46.14651788333334,46.23272471666667,69.0,93.0
77,46.40513838333334,46.50212107083333,69.0,93.0
78,46.66375888333334,46.76074157083333,69.0,100.0
79,46.922379383333336,47.01289655833334,67.0,90.0
80,47.180999883333335,47.59048234166667,69.0,107.0
81,48.21548188333333,48.3103094,67.0,107.0
82,48.47410238333334,48.5689299,67.0,86.0
83,48.73272288333334,48.8340159125,67.0,88.0
84,48.99134338333334,49.0797053875,67.0,86.0
85,49.249963883333336,49.41375686666667,67.0,93.0
86,49.508584383333336,50.077549483333335,69.0,117.0
87,50.28444588333333,50.51720433333333,66.0,112.0
88,50.54306638333333,50.836169616666666,64.0,77.0
89,51.836168883333336,51.961168791666665,64.0,107.0
90,50.80168688333333,52.19823758333334,66.0,117.0
91,52.094789383333335,52.21978929166667,64.0,93.0
92,52.353409883333335,52.48272013333334,71.0,107.0
93,52.612030383333334,52.948237033333335,71.0,117.0
94,53.12927138333333,53.24996095,71.0,112.0
95,53.38789188333334,53.64220204166667,69.0,102.0
96,53.64651238333334,53.991339716666666,71.0,96.0
97,54.163753383333336,54.252115387500005,71.0,117.0
98,54.422373883333336,54.769356387500004,71.0,107.0
99,54.939614883333334,55.18745952916667,69.0,122.0
100,55.19823538333333,55.439614516666666,67.0,100.0
101,55.45685588333333,56.034441666666666,64.0,100.0
102,56.49133788333334,56.609872279166666,76.0,122.0
103,56.749958383333336,57.148664987500005,76.0,117.0
104,57.267199383333335,57.469785441666666,76.0,122.0
105,57.525819883333334,57.8275438,74.0,117.0
106,58.04306088333333,58.27581933333334,71.0,127.0
107,58.30168138333334,58.577543250000005,69.0,89.0
108,58.56030188333334,59.624956275,71.0,97.0
109,60.11202488333333,60.24349030416667,64.0,97.0
110,60.37064538333333,60.53443836666667,64.0,97.0
111,60.62926588333334,60.771507158333335,69.0,127.0
112,60.88788638333334,61.16805859166667,69.0,127.0
113,61.40512738333334,61.50857558333333,69.0,127.0
114,61.663747883333336,61.8167650125,67.0,122.0
115,61.922368383333335,62.2176267875,69.0,127.0
116,62.439609383333334,62.536592070833336,69.0,117.0
117,62.69822988333333,62.952540041666666,71.0,122.0
118,62.95685038333333,63.19176400416667,69.0,112.0
119,63.21547088333334,63.47409138333334,67.0,112.0
120,63.47409138333334,63.7046946625,66.0,112.0
121,63.73271188333334,64.21547015,64.0,100.0
122,64.76719388333333,64.89865930416667,69.0,117.0
123,65.02581438333334,65.37710722916667,69.0,122.0
124,65.54305538333334,65.75641729583333,67.0,107.0
125,65.80167588333333,66.24779624583334,76.0,127.0
126,66.31891688333333,66.76288207500001,74.0,122.0
127,66.83615788333334,68.23486375416667,71.0,117.0
128,68.38788088333334,68.50426010833334,64.0,99.0
129,68.64650138333333,68.87494949166667,64.0,92.0
130,68.90512188333334,69.07322520833334,71.0,127.0
131,69.16374238333334,69.54305245,71.0,112.0
132,69.68098338333334,69.85555222083333,71.0,127.0
133,69.93960388333333,70.1702071625,69.0,112.0
134,70.19822438333334,70.435293175,71.0,112.0
135,70.71546538333334,70.92882729583333,71.0,127.0
136,70.97408588333333,71.2305512125,69.0,122.0
137,71.23270638333334,71.47193034583334,71.0,99.0
138,71.49132688333333,71.7413267,67.0,95.0
139,71.74994738333334,71.98486100416667,66.0,100.0
140,72.00856788333334,72.504257175,64.0,100.0
141,73.04304988333334,73.17020496250001,76.0,117.0
142,73.30167038333333,73.42020477916667,76.0,96.0
143,73.56029088333334,73.70037698750001,76.0,95.0
144,73.81891138333333,73.978394025,76.0,100.0
145,74.07753188333334,74.45468677916666,78.0,127.0
146,74.59477288333333,75.01503119583333,74.0,122.0
147,75.11201388333333,76.13572002916666,71.0,112.0
148,76.66373688333334,76.78227127916666,64.0,92.0
149,76.92235738333333,77.1206331,64.0,93.0
150,77.18097788333334,77.31890881666666,69.0,117.0
151,77.43959838333333,77.728391275,69.0,117.0
152,77.95683938333333,78.08830480416667,69.0,127.0
153,78.21545988333334,78.47623555416666,67.0,112.0
154,78.47408038333333,78.7434767375,69.0,117.0
155,78.99132138333334,79.08830407083333,69.0,117.0
156,79.24994188333334,79.50209687083334,71.0,112.0
157,79.50856238333334,79.72838980833333,69.0,112.0
158,79.76718288333333,79.98916547916667,67.0,95.0
159,80.02580338333334,80.27149285833333,66.0,102.0
160,80.28442388333333,80.84692347083333,64.0,107.0
161,81.31890588333334,81.44390579166667,66.0,127.0
162,81.57752638333334,81.85554342083334,66.0,99.0
163,82.09476738333333,82.31459480833334,67.0,96.0
164,82.35338788333334,82.8102841,66.0,117.0
165,82.87062888333334,83.13571489583333,64.0,96.0
166,83.12924938333333,84.53873110833334,66.0,112.0
167,84.93959288333333,85.20683406666667,67.0,112.0
168,85.19821338333334,85.46976490833333,66.0,96.0
169,85.45683388333333,86.92013373750001,64.0,112.0
170,101.71161735000001,101.99106697500001,59.0,96.0
171,101.96957085000001,102.0920987625,64.0,86.0
172,102.22752435000001,102.3414538125,64.0,66.0
173,102.48547785000001,102.618753825,64.0,82.0
174,102.74343135000001,102.8745577125,66.0,92.0
175,103.00138485000001,103.3775670375,67.0,102.0
176,103.25933835000001,103.3775670375,67.0,96.0
177,103.51729185,103.70645775,67.0,83.0
178,103.77524535,103.94076551250001,69.0,99.0
179,104.03319885,104.3019004125,66.0,127.0
180,104.29115235,104.53405856250001,64.0,82.0
181,104.54910585,104.83715392500001,62.0,82.0
182,104.80705935,105.69914853750001,64.0,77.0
183,105.83887335,106.05168498750001,67.0,89.0
184,106.09682685000001,106.255898175,69.0,85.0
185,106.61302288333334,106.72940210833335,69.0,96.0
186,106.87164338333334,106.99233295,69.0,93.0
187,107.13026388333334,107.34362579583335,69.0,100.0
188,107.38888438333333,107.60224629583334,69.0,97.0
189,107.64750488333334,107.87379782083335,67.0,92.0
190,107.90612538333335,108.18198725,64.0,77.0
191,108.16474588333334,108.49448702083335,67.0,88.0
192,108.42336638333335,108.49448702083335,67.0,90.0
193,108.68198688333334,108.85009020833334,67.0,88.0
194,108.94060738333334,109.11517622083333,69.0,96.0
195,109.19922788333334,110.14534787916668,71.0,95.0
196,110.23370988333335,110.36517530416667,69.0,100.0
197,110.49233038333334,110.60870960833334,69.0,85.0
198,110.75095088333335,110.87595079166667,69.0,96.0
199,111.00957138333334,111.10870924166667,67.0,90.0
200,111.26819188333334,111.76388117500001,69.0,99.0
201,112.04405338333333,112.11086367916667,64.0,78.0
202,112.30267388333334,112.41905310833334,69.0,90.0
203,112.56129438333335,112.68198395,69.0,79.0
204,112.81991488333334,112.96431132916668,69.0,90.0
205,113.07853538333335,113.1927594375,67.0,89.0
206,113.33715588333334,113.9039658125,69.0,96.0
207,114.37163788333334,114.479396425,67.0,99.0
208,114.63025838333334,114.73155141250001,67.0,89.0
209,114.88887888333335,114.99879259583334,67.0,89.0
210,115.14749938333334,115.24879241250001,67.0,92.0
211,115.40611988333335,115.50310257083333,67.0,93.0
212,115.66474038333334,116.33499851250001,69.0,97.0
213,116.44060188333334,118.16042820833334,66.0,102.0
214,118.25094538333335,118.37163495000001,59.0,89.0
215,118.50956588333334,118.62163476666667,64.0,89.0
216,118.76818638333334,118.86947941250001,64.0,83.0
217,119.02680688333334,119.13025508333334,64.0,90.0
218,119.28542738333334,119.41473763333335,66.0,97.0
219,119.54404788333335,119.80266838333334,67.0,99.0
220,119.80266838333334,119.89318555833334,67.0,90.0
221,120.06128888333335,120.18197845,67.0,95.0
222,120.31990938333334,120.46215065833334,69.0,96.0
223,120.57852988333335,120.7962021375,66.0,117.0
224,120.83715038333334,121.07421917500001,64.0,79.0
225,121.09577088333334,121.3522362125,62.0,82.0
226,121.35439138333334,122.0634425875,64.0,92.0
227,122.38887338333333,122.48154572916667,67.0,86.0
228,122.64749388333334,122.92982126250001,69.0,102.0
229,122.90611438333335,122.92982126250001,69.0,82.0
230,123.42335538333334,123.54188977916667,69.0,117.0
231,123.68197588333334,123.84361369583334,69.0,127.0
232,123.94059638333334,124.13671692916668,69.0,102.0
233,124.19921688333335,124.384561575,67.0,88.0
234,124.45783738333334,124.65180275833335,64.0,90.0
235,124.71645788333333,124.97723355416667,67.0,117.0
236,124.97507838333334,124.97723355416667,67.0,89.0
237,125.23369888333335,125.38240567083335,67.0,102.0
238,125.49231938333334,125.60869860833334,69.0,112.0
239,125.75093988333334,126.30266361666668,71.0,127.0
240,126.78542188333334,126.88455974166668,69.0,112.0
241,127.04404238333333,127.14102507083334,69.0,96.0
242,127.30266288333334,127.40611108333334,69.0,102.0
243,127.56128338333335,127.65826607083335,67.0,102.0
244,127.81990388333334,128.2186104875,69.0,117.0
245,128.59576538333334,128.74447217083335,64.0,93.0
246,128.85438588333335,128.94059271666669,69.0,93.0
247,129.11300638333336,129.20998907083333,69.0,93.0
248,129.37162688333333,129.46860957083334,69.0,100.0
249,129.63024738333334,129.72076455833334,67.0,90.0
250,129.88886788333335,130.29835034166666,69.0,107.0
251,130.92334988333334,131.0181774,67.0,107.0
252,131.18197038333335,131.27679790000002,67.0,86.0
253,131.44059088333336,131.5418839125,67.0,88.0
254,131.69921138333333,131.7875733875,67.0,86.0
255,131.95783188333334,132.12162486666668,67.0,93.0
256,132.21645238333335,132.78541748333333,69.0,117.0
257,132.99231388333334,133.22507233333334,66.0,112.0
258,133.25093438333334,133.54403761666669,64.0,77.0
259,134.54403688333335,134.66903679166668,64.0,107.0
260,133.50955488333335,134.90610558333333,66.0,117.0
261,134.80265738333333,134.92765729166666,64.0,93.0
262,135.06127788333333,135.19058813333334,71.0,107.0
263,135.31989838333334,135.65610503333335,71.0,117.0
264,135.83713938333335,135.95782895000002,71.0,112.0
265,136.09575988333333,136.35007004166667,69.0,102.0
266,136.35438038333334,136.69920771666668,71.0,96.0
267,136.87162138333335,136.95998338750002,71.0,117.0
268,137.13024188333333,137.4772243875,71.0,107.0
269,137.64748288333334,137.89532752916668,69.0,122.0
270,137.90610338333335,138.14748251666668,67.0,100.0
271,138.16472388333335,138.74230966666667,64.0,100.0
272,139.19920588333335,139.31774027916669,76.0,122.0
273,139.45782638333333,139.8565329875,76.0,117.0
274,139.97506738333334,140.17765344166668,76.0,122.0
275,140.23368788333335,140.53541180000002,74.0,117.0
276,140.75092888333336,140.98368733333334,71.0,127.0
277,141.00954938333334,141.28541125,69.0,89.0
278,141.26816988333334,142.332824275,71.0,97.0
279,142.81989288333335,142.95135830416666,64.0,97.0
280,143.07851338333336,143.24230636666667,64.0,97.0
281,143.33713388333334,143.47937515833334,69.0,127.0
282,143.59575438333334,143.87592659166668,69.0,127.0
283,144.11299538333333,144.21644358333333,69.0,127.0
284,144.37161588333333,144.5246330125,67.0,122.0
285,144.63023638333334,144.9254947875,69.0,127.0
286,145.14747738333335,145.24446007083333,69.0,117.0
287,145.40609788333336,145.66040804166667,71.0,122.0
288,145.66471838333334,145.89963200416668,69.0,112.0
289,145.92333888333334,146.18195938333335,67.0,112.0
290,146.18195938333335,146.41256266250002,66.0,112.0
291,146.44057988333333,146.92333815,64.0,100.0
292,147.47506188333335,147.60652730416666,69.0,117.0
293,147.73368238333336,148.08497522916667,69.0,122.0
294,148.25092338333334,148.46428529583335,67.0,107.0
295,148.50954388333335,148.95566424583333,76.0,127.0
296,149.02678488333333,149.470750075,74.0,122.0
297,149.54402588333335,150.9427317541667,71.0,117.0
298,151.09574888333333,151.21212810833333,64.0,99.0
299,151.35436938333334,151.58281749166667,64.0,92.0
300,151.61298988333334,151.78109320833335,71.0,127.0
301,151.87161038333335,152.25092045000002,71.0,112.0
302,152.38885138333333,152.56342022083334,71.0,127.0
303,152.64747188333334,152.8780751625,69.0,112.0
304,152.90609238333334,153.14316117500002,71.0,112.0
305,153.42333338333333,153.63669529583333,71.0,127.0
306,153.68195388333334,153.9384192125,69.0,122.0
307,153.94057438333334,154.17979834583335,71.0,99.0
308,154.19919488333335,154.44919470000002,67.0,95.0
309,154.45781538333335,154.69272900416667,66.0,100.0
310,154.71643588333333,155.212125175,64.0,100.0
311,155.75091788333333,155.8780729625,76.0,117.0
312,156.00953838333334,156.12807277916667,76.0,96.0
313,156.26815888333334,156.4082449875,76.0,95.0
314,156.52677938333335,156.68626202500002,76.0,100.0
315,156.78539988333335,157.16255477916667,78.0,127.0
316,157.30264088333334,157.72289919583335,74.0,122.0
317,157.81988188333335,158.84358802916668,71.0,112.0
318,159.37160488333333,159.49013927916667,64.0,92.0
319,159.63022538333334,159.8285011,64.0,93.0
320,159.88884588333335,160.02677681666668,69.0,117.0
321,160.14746638333335,160.436259275,69.0,117.0
322,160.66470738333334,160.79617280416667,69.0,127.0
323,160.92332788333334,161.18410355416668,67.0,112.0
324,161.18194838333335,161.4513447375,69.0,117.0
325,161.69918938333333,161.79617207083334,69.0,117.0
326,161.95780988333334,162.20996487083335,71.0,112.0
327,162.21643038333335,162.43625780833335,69.0,112.0
328,162.47505088333335,162.6970334791667,67.0,95.0
329,162.73367138333333,162.97936085833334,66.0,102.0
330,162.99229188333334,163.55479147083335,64.0,107.0
331,164.02677388333333,164.15177379166667,66.0,127.0
332,164.28539438333334,164.56341142083335,66.0,99.0
333,164.80263538333335,165.02246280833333,67.0,96.0
334,165.06125588333333,165.5181521,66.0,117.0
335,165.57849688333334,165.84358289583335,64.0,96.0
336,165.83711738333335,167.24659910833333,66.0,112.0
337,167.64746088333334,167.91470206666668,67.0,112.0
338,167.90608138333334,168.17763290833335,66.0,96.0
339,168.16470188333335,169.6280628791667,64.0,112.0
340,184.19917288333335,184.35219001250002,64.0,102.0
341,184.45779338333335,184.55262090000002,66.0,122.0
342,184.71641388333336,185.41684440416668,67.0,127.0
343,186.78537788333335,188.41684220416667,64.0,112.0
344,188.85434188333335,189.6021861625,67.0,127.0
345,189.88882388333334,190.64528884583336,66.0,127.0
346,190.92330588333334,192.45778751666668,67.0,127.0
347,192.47502888333332,192.686235625,71.0,112.0
348,192.73364938333333,192.83063207083336,74.0,95.0
349,192.99226988333334,193.8694244125,76.0,127.0
350,194.02675188333336,194.62373420416668,76.0,127.0
351,194.80261338333332,194.90390641250002,71.0,112.0
352,195.06123388333333,195.60649210416668,71.0,127.0
353,195.57847488333334,196.77674986666668,69.0,107.0
354,196.61295688333334,196.77674986666668,69.0,107.0
355,196.87157738333335,196.99011177916668,71.0,112.0
356,197.13019788333332,198.37804179583333,72.0,127.0
357,198.42330038333336,198.66252434583333,74.0,67.0
358,198.68192088333336,198.9125241625,71.0,100.0
359,198.94054138333334,199.22071359166668,69.0,81.0
360,199.19916188333335,200.19485080833334,71.0,107.0
361,200.75088488333336,200.8758847916667,66.0,107.0
362,201.00950538333336,201.1345052916667,66.0,93.0
363,201.26812588333334,201.39743613333334,73.0,107.0
364,201.52674638333335,201.86295303333333,73.0,117.0
365,202.04398738333333,202.16467695,73.0,112.0
366,202.30260788333334,202.55691804166668,71.0,102.0
367,202.56122838333334,202.90605571666669,73.0,96.0
368,203.07846938333336,203.1668313875,73.0,117.0
369,203.33708988333336,203.6840723875,73.0,107.0
370,203.85433088333335,204.1021755291667,71.0,122.0
371,204.11295138333332,204.35433051666666,69.0,100.0
372,204.37157188333333,204.94915766666668,66.0,100.0
373,205.40605388333336,205.52458827916666,78.0,122.0
374,205.66467438333336,206.0633809875,78.0,117.0
375,206.18191538333335,206.38450144166666,78.0,122.0
376,206.44053588333333,206.7422598,76.0,117.0
377,206.95777688333334,207.19053533333334,73.0,127.0
378,207.21639738333334,207.49225925000002,71.0,89.0
379,207.47501788333335,208.53967227500002,73.0,97.0
380,209.02674088333333,209.1582063041667,66.0,97.0
381,209.28536138333334,209.44915436666668,66.0,97.0
382,209.54398188333334,209.68622315833335,71.0,127.0
383,209.80260238333335,210.0827745916667,71.0,127.0
384,210.31984338333336,210.42329158333334,71.0,127.0
385,210.57846388333334,210.7314810125,69.0,122.0
386,210.83708438333335,211.13234278750002,71.0,127.0
387,211.35432538333333,211.45130807083336,71.0,117.0
388,211.61294588333334,211.86725604166668,73.0,122.0
389,211.87156638333335,212.10648000416668,71.0,112.0
390,212.13018688333335,212.38880738333336,69.0,112.0
391,212.38880738333336,212.6194106625,68.0,112.0
392,212.64742788333336,213.13018615000001,66.0,100.0
393,213.68190988333333,213.8133753041667,71.0,117.0
394,213.94053038333334,214.29182322916668,71.0,122.0
395,214.45777138333335,214.67113329583333,69.0,107.0
396,214.71639188333336,215.16251224583334,78.0,127.0
397,215.23363288333334,215.677598075,76.0,122.0
398,215.75087388333333,217.14957975416667,73.0,117.0
399,217.30259688333336,217.41897610833334,66.0,99.0
400,217.56121738333334,217.78966549166668,66.0,92.0
401,217.81983788333335,217.98794120833332,73.0,127.0
402,218.07845838333333,218.45776845,73.0,112.0
403,218.59569938333334,218.77026822083334,73.0,127.0
404,218.85431988333335,219.08492316250002,71.0,112.0
405,219.11294038333335,219.35000917500003,73.0,112.0
406,219.63018138333337,219.84354329583334,73.0,127.0
407,219.88880188333334,220.14526721250002,71.0,122.0
408,220.14742238333335,220.38664634583336,73.0,99.0
409,220.40604288333333,220.6560427,69.0,95.0
410,220.66466338333333,220.89957700416667,68.0,100.0
411,220.92328388333334,221.41897317500002,66.0,100.0
412,221.95776588333337,222.0849209625,78.0,117.0
413,222.21638638333334,222.33492077916668,78.0,96.0
414,222.47500688333335,222.61509298750002,78.0,95.0
415,222.73362738333333,222.893110025,78.0,100.0
416,222.99224788333333,223.36940277916668,80.0,127.0
417,223.50948888333335,223.92974719583333,76.0,122.0
418,224.02672988333336,225.0504360291667,73.0,112.0
419,225.57845288333334,225.69698727916668,66.0,92.0
420,225.83707338333335,226.03534910000002,66.0,93.0
421,226.09569388333335,226.2336248166667,71.0,117.0
422,226.35431438333336,226.643107275,71.0,117.0
423,226.87155538333334,227.00302080416668,71.0,127.0
424,227.13017588333335,227.3909515541667,69.0,112.0
425,227.38879638333333,227.65819273750003,71.0,117.0
426,227.90603738333334,228.00302007083334,71.0,117.0
427,228.16465788333335,228.41681287083333,73.0,112.0
428,228.42327838333335,228.64310580833336,71.0,112.0
429,228.68189888333336,228.90388147916667,69.0,95.0
430,228.94051938333334,229.18620885833334,68.0,102.0
431,229.19913988333334,229.76163947083336,66.0,107.0
432,230.23362188333334,230.35862179166668,68.0,127.0
433,230.49224238333335,230.77025942083333,68.0,99.0
434,231.00948338333336,231.22931080833337,69.0,96.0
435,231.26810388333334,231.72500010000002,68.0,117.0
436,231.78534488333335,232.05043089583336,66.0,96.0
437,232.04396538333333,233.45344710833336,68.0,112.0
438,236.95775488333334,237.52887515416668,69.0,99.0
439,237.47499588333335,239.5353392,66.0,96.0
