,start,end,pitch,velocity
0,3.2155148833333334,3.928876429166667,47.0,52.0
1,2.6982738833333335,3.943962625,40.0,66.0
2,4.249996883333334,4.88792745,64.0,60.0
3,3.7327558833333336,4.88792745,67.0,63.0
4,5.284478883333334,5.937495645833334,52.0,53.0
5,4.767237883333333,6.079736920833334,45.0,66.0
6,5.801719883333334,6.961201791666667,60.0,63.0
7,5.801719883333334,6.971977645833333,64.0,63.0
8,6.836201883333334,8.338355954166667,40.0,74.0
9,7.353442883333334,8.377149029166667,47.0,58.0
10,8.387924883333334,8.943958958333333,59.0,43.0
11,7.870683883333333,8.978441691666667,64.0,64.0
12,7.870683883333333,8.999993400000001,67.0,64.0
13,9.939647883333334,10.411630295833334,55.0,46.0
14,9.422406883333334,10.508612983333334,50.0,66.0
15,8.905165883333334,10.523699179166668,43.0,69.0
16,9.939647883333334,10.987060908333333,67.0,67.0
17,9.939647883333334,10.9978367625,62.0,57.0
18,10.974129883333333,12.637921766666667,40.0,72.0
19,11.491370883333333,12.670249329166667,47.0,59.0
20,12.008611883333334,12.737059625,52.0,35.0
21,12.525852883333334,13.150852425,59.0,60.0
22,12.008611883333334,13.172404133333334,64.0,60.0
23,12.008611883333334,13.198266183333335,67.0,61.0
24,13.560334883333335,14.446110095833333,52.0,58.0
25,13.043093883333334,14.5926617125,45.0,70.0
26,14.077575883333333,15.017230366666666,57.0,47.0
27,14.077575883333333,15.047402758333334,60.0,65.0
28,14.077575883333333,15.084040662500001,64.0,69.0
29,15.112057883333334,15.874988358333335,36.0,86.0
30,15.370678383333335,16.084039929166668,55.0,72.0
31,15.629298883333334,16.10990197916667,64.0,93.0
32,15.887919383333333,16.133608858333336,60.0,74.0
33,16.146539883333332,16.756453229166667,38.0,62.0
34,16.405160383333335,17.215504616666667,57.0,73.0
35,16.922401383333334,17.228435641666668,62.0,65.0
36,16.663780883333335,17.26076320416667,66.0,95.0
37,17.698262883333335,18.334038279166666,52.0,67.0
38,17.181021883333333,19.187485929166666,40.0,73.0
39,17.439642383333332,19.193951441666666,47.0,59.0
40,18.215503883333334,19.256451395833334,59.0,63.0
41,18.215503883333334,19.280158275,64.0,61.0
42,17.956883383333334,19.282313445833335,55.0,66.0
43,19.767226883333333,20.633605558333333,47.0,56.0
44,19.249985883333334,20.668088291666667,40.0,79.0
45,20.284467883333335,21.336191250000002,59.0,66.0
46,20.284467883333335,21.351277445833333,64.0,59.0
47,20.801708883333333,21.48274286666667,55.0,66.0
48,22.353431883333336,22.941793520833333,50.0,43.0
49,21.836190883333334,22.948259033333333,45.0,54.0
50,21.318949883333335,22.950414204166666,38.0,72.0
51,22.353431883333336,23.428862129166667,62.0,67.0
52,22.353431883333336,23.452569008333334,66.0,59.0
53,23.905154883333335,24.538775108333333,52.0,56.0
54,23.387913883333333,24.659464675000002,45.0,78.0
55,24.939636883333336,25.478429591666668,57.0,58.0
56,24.422395883333333,25.49782612916667,60.0,74.0
57,24.422395883333333,25.506446812500002,64.0,77.0
58,26.491359883333335,27.049549129166667,52.0,41.0
59,25.974118883333336,27.168083525,47.0,48.0
60,25.456877883333334,27.258600700000002,40.0,78.0
61,26.491359883333335,27.4461005625,67.0,61.0
62,26.491359883333335,27.448255733333333,64.0,64.0
63,27.525841883333335,28.616358325,38.0,69.0
64,28.043082883333334,28.659461741666668,57.0,62.0
65,28.560323883333336,29.2435130375,62.0,72.0
66,28.560323883333336,29.275840600000002,66.0,92.0
67,29.077564883333334,29.721960962500003,57.0,43.0
68,30.112046883333335,30.799546379166667,49.0,36.0
69,29.594805883333333,30.806011891666667,37.0,70.0
70,30.629287883333333,31.650838858333334,67.0,72.0
71,30.629287883333333,31.68101125,61.0,86.0
72,30.629287883333333,31.812476670833334,64.0,72.0
73,32.181010883333336,32.76721735,55.0,77.0
74,31.663769883333334,32.883596575,48.0,93.0
75,32.698251883333334,33.489199579166666,64.0,86.0
76,32.698251883333334,33.607733975,60.0,83.0
77,33.21549288333333,33.81894071666667,55.0,76.0
78,33.73273388333333,35.2693706875,35.0,74.0
79,34.24997488333334,35.310318933333335,42.0,43.0
80,34.767215883333336,35.450405037500005,47.0,54.0
81,34.767215883333336,35.823249591666666,63.0,99.0
82,34.767215883333336,35.85557715416667,66.0,100.0
83,35.284456883333334,35.905146083333335,59.0,96.0
84,36.83617988333334,37.28230024583333,52.0,67.0
85,36.31893888333334,37.46548976666667,47.0,78.0
86,35.80169788333333,37.52152420833333,40.0,112.0
87,37.353420883333335,37.849110175,64.0,102.0
88,36.83617988333334,37.8555756875,67.0,95.0
89,37.870661883333334,39.48057449583334,38.0,92.0
90,38.38790288333333,39.48272966666667,45.0,60.0
91,38.90514388333334,39.6012640625,50.0,68.0
92,39.422384883333336,40.0150568625,62.0,83.0
93,38.90514388333334,40.06247062083334,66.0,112.0
94,39.681005383333336,40.073246475000005,57.0,64.0
95,40.45686688333333,41.15729740416667,52.0,61.0
96,39.939625883333335,41.23488355416667,45.0,81.0
97,40.97410788333333,42.03445193333334,60.0,93.0
98,40.97410788333333,42.03660710416667,64.0,97.0
99,41.49134888333334,42.090486375000005,57.0,82.0
100,43.04307188333333,43.448244,52.0,63.0
101,42.525830883333334,43.590485275,47.0,55.0
102,42.008589883333336,43.62496800833333,40.0,73.0
103,43.04307188333333,44.045226320833336,64.0,90.0
104,43.04307188333333,44.056002175,67.0,86.0
105,43.56031288333333,44.10988144583334,59.0,97.0
106,45.112035883333334,45.3620357,50.0,67.0
107,44.07755388333334,45.409449458333334,38.0,90.0
108,44.594794883333336,45.426690825,45.0,59.0
109,45.112035883333334,46.092638612500004,66.0,107.0
110,45.112035883333334,46.112035150000004,62.0,100.0
111,45.62927688333333,46.2348798875,57.0,93.0
112,46.66375888333334,47.142206808333334,61.0,102.0
113,47.180999883333335,47.269361887500004,61.0,72.0
114,46.14651788333334,47.775827033333336,37.0,86.0
115,47.698240883333334,48.1098785125,61.0,112.0
116,47.180999883333335,48.17022329583334,64.0,100.0
117,49.249963883333336,49.53013609166667,48.0,71.0
118,48.21548188333333,49.73272215,36.0,96.0
119,48.73272288333334,49.76936005416667,43.0,55.0
120,49.767204883333335,50.3275493,55.0,96.0
121,49.249963883333336,50.34479066666667,60.0,89.0
122,49.249963883333336,50.36418720416667,64.0,95.0
123,50.28444588333333,51.836168883333336,35.0,85.0
124,50.80168688333333,51.840479225,42.0,62.0
125,51.57754838333334,51.87711712916667,47.0,93.0
126,51.31892788333334,51.88142747083334,63.0,127.0
127,51.31892788333334,51.90297917916667,66.0,127.0
128,51.836168883333336,52.353409883333335,59.0,127.0
129,52.87065088333333,53.5021159375,52.0,93.0
130,53.12927138333333,53.60987447916667,59.0,100.0
131,52.353409883333335,53.86849497916667,40.0,100.0
132,52.612030383333334,53.89866737083334,47.0,97.0
133,53.64651238333334,53.95901215416667,52.0,112.0
134,53.90513288333334,54.422373883333336,64.0,112.0
135,53.38789188333334,54.4331497375,67.0,127.0
136,54.163753383333336,54.46978764166667,59.0,100.0
137,55.19823538333333,55.422373150000006,60.0,99.0
138,54.939614883333334,55.52366617916667,57.0,89.0
139,54.680994383333335,55.54306271666667,52.0,82.0
140,55.71547638333333,55.81461424166667,52.0,93.0
141,54.422373883333336,55.838321120833335,45.0,96.0
142,55.45685588333333,56.30383802083333,64.0,117.0
143,55.97409688333334,56.368493145833334,60.0,112.0
144,56.23271738333334,56.51073442083334,57.0,112.0
145,57.008578883333335,57.2909062625,48.0,97.0
146,56.49133788333334,57.463319929166666,36.0,86.0
147,57.267199383333335,57.504268175,64.0,117.0
148,56.749958383333336,57.538750908333334,43.0,90.0
149,57.525819883333334,58.07754361666667,38.0,97.0
150,57.78444038333333,58.08831947083333,57.0,95.0
151,58.04306088333333,58.6098708125,62.0,92.0
152,58.30168138333334,58.616336325,57.0,86.0
153,58.04306088333333,58.640043204166666,66.0,127.0
154,59.07754288333334,59.35124957916667,55.0,107.0
155,59.336163383333336,59.62926661666667,59.0,93.0
156,58.81892238333334,59.69823208333334,50.0,92.0
157,59.853404383333334,59.96331809583334,50.0,85.0
158,58.56030188333334,59.97193877916667,43.0,78.0
159,59.594783883333335,60.150817958333334,62.0,97.0
160,60.11202488333333,60.45685221666667,59.0,117.0
161,59.594783883333335,60.61849002916667,67.0,117.0
162,60.37064538333333,60.663748616666666,62.0,127.0
163,61.14650688333334,61.39219635833334,57.0,95.0
164,61.40512738333334,61.70900647083334,60.0,107.0
165,60.88788638333334,61.78874779166667,52.0,100.0
166,61.922368383333335,62.07969585416667,52.0,102.0
167,60.62926588333334,62.12495444166667,45.0,92.0
168,61.663747883333336,62.6831436875,64.0,117.0
169,62.180988883333335,62.6960747125,60.0,112.0
170,62.439609383333334,62.70469539583333,57.0,112.0
171,63.21547088333334,63.58616026666667,52.0,95.0
172,63.47409138333334,63.7046946625,59.0,97.0
173,62.95685038333333,63.88357384166667,47.0,92.0
174,63.73271188333334,64.23917702916667,64.0,102.0
175,62.69822988333333,64.2477977125,40.0,89.0
176,63.99133238333334,64.31891835,47.0,97.0
177,63.73271188333334,64.69607324583333,67.0,117.0
178,64.50857338333334,64.70253875833333,64.0,117.0
179,64.24995288333334,64.771504225,59.0,122.0
180,65.02581438333334,65.3275383,57.0,83.0
181,64.76719388333333,65.66805529166668,45.0,122.0
182,65.28443488333333,65.68314148750001,60.0,99.0
183,65.28443488333333,65.68960700000001,64.0,122.0
184,65.54305538333334,65.82969310416667,57.0,90.0
185,66.06029638333334,66.3684858125,57.0,89.0
186,65.80167588333333,66.39865820416667,50.0,122.0
187,66.31891688333333,66.81891651666668,62.0,97.0
188,66.31891688333333,66.83831305416668,66.0,127.0
189,66.57753738333334,66.85770959166668,57.0,97.0
190,67.35339888333334,67.62926075,55.0,92.0
191,67.61201938333333,67.874950225,59.0,122.0
192,67.09477838333333,68.00426047500001,50.0,99.0
193,68.12926038333333,68.28658785416667,50.0,102.0
194,66.83615788333334,68.31891541666667,43.0,95.0
195,68.38788088333334,68.9029667125,59.0,127.0
196,68.64650138333333,68.92020807916667,55.0,107.0
197,67.87063988333334,68.92020807916667,62.0,122.0
198,69.68098338333334,69.95469007916667,59.0,97.0
199,69.42236288333334,70.0279658875,52.0,102.0
200,68.90512188333334,70.44606902916667,40.0,90.0
201,69.93960388333333,70.4934827875,64.0,97.0
202,69.16374238333334,70.49563795833333,47.0,82.0
203,70.19822438333334,70.51718966666667,52.0,112.0
204,69.93960388333333,71.0171893,67.0,127.0
205,70.71546538333334,71.0365858375,64.0,127.0
206,70.45684488333333,71.04520652083333,59.0,122.0
207,71.49132688333333,71.75641289583334,57.0,95.0
208,71.74994738333334,71.99348168750001,60.0,100.0
209,71.23270638333334,72.17020569583333,52.0,93.0
210,72.26718838333333,72.39865380416667,52.0,96.0
211,70.97408588333333,72.43960205,45.0,95.0
212,72.00856788333334,73.00425680833334,64.0,127.0
213,72.52580888333334,73.05167056666667,60.0,127.0
214,72.78442938333333,73.05598090833334,57.0,117.0
215,73.56029088333334,73.81460104166666,48.0,122.0
216,73.04304988333334,73.98270436666667,36.0,96.0
217,73.81891138333333,74.09261807916667,64.0,127.0
218,73.30167038333333,74.12925598333334,43.0,89.0
219,74.07753188333334,74.84908304166667,38.0,99.0
220,74.33615238333334,74.92666919166668,45.0,112.0
221,74.59477288333333,75.1357207625,50.0,112.0
222,74.85339338333334,75.2068414,66.0,127.0
223,75.62925488333333,75.995633925,55.0,107.0
224,75.88787538333334,76.22408203333333,59.0,96.0
225,75.37063438333334,76.2607199375,50.0,79.0
226,75.11201388333333,77.08399519583334,43.0,83.0
227,76.40511638333334,77.16804685833334,50.0,93.0
228,76.66373688333334,77.24347783750001,62.0,99.0
229,76.14649588333333,77.24347783750001,67.0,117.0
230,76.92235738333333,77.26933988750001,59.0,90.0
231,77.69821888333334,78.2520977875,57.0,95.0
232,77.43959838333333,78.29520120416667,52.0,73.0
233,78.47408038333333,78.63571819583333,52.0,78.0
234,77.18097788333334,78.69821815,45.0,95.0
235,77.95683938333333,78.80382152083334,60.0,95.0
236,78.21545988333334,78.8339939125,64.0,97.0
237,78.99132138333334,79.34907974166667,60.0,96.0
238,78.99132138333334,79.36201076666667,64.0,100.0
239,78.73270088333334,79.38787281666667,57.0,99.0
240,80.02580338333334,80.33614798333333,59.0,88.0
241,79.76718288333333,80.37063071666667,52.0,93.0
242,80.28442388333333,80.8770958625,64.0,99.0
243,80.54304438333334,81.11200948333334,52.0,90.0
244,79.24994188333334,81.17666460833334,40.0,75.0
245,79.50856238333334,81.20683700000001,47.0,85.0
246,80.28442388333333,81.23485422083334,67.0,112.0
247,81.06028538333334,81.26287144166668,64.0,112.0
248,80.80166488333333,81.27580246666668,59.0,100.0
249,81.83614688333334,82.37493959166667,59.0,85.0
250,81.57752638333334,82.45683608333334,54.0,93.0
251,82.35338788333334,82.90942195833334,63.0,112.0
252,82.35338788333334,83.04950806250001,66.0,127.0
253,81.31890588333334,83.20899070416667,47.0,99.0
254,82.61200838333333,83.31028373333334,54.0,100.0
255,82.87062888333334,83.650800725,59.0,107.0
256,83.12924938333333,83.84045575833333,66.0,72.0
257,83.12924938333333,83.857697125,63.0,96.0
258,83.64649038333333,84.9762307875,54.0,89.0
259,83.38786988333334,85.02364454583333,47.0,89.0
260,83.90511088333334,85.45683388333333,59.0,96.0
261,84.16373138333334,85.45683388333333,63.0,97.0
262,84.42235188333333,85.45683388333333,66.0,107.0
263,84.42235188333333,85.45683388333333,69.0,83.0
264,85.97407488333333,86.53010895833334,52.0,89.0
265,86.23269538333334,86.57536754583333,59.0,61.0
266,85.45683388333333,86.81459150833334,40.0,89.0
267,85.71545438333334,86.85338458333334,47.0,85.0
268,86.49131588333334,87.56931671250001,64.0,79.0
269,86.49131588333334,87.57361593750001,67.0,90.0
270,87.00826785000001,87.5822143875,59.0,74.0
271,88.04008185,88.620477225,52.0,66.0
272,87.52417485000001,88.6484221875,45.0,83.0
273,88.55598885,89.6114485875,64.0,75.0
274,88.55598885,89.6157478125,60.0,79.0
275,90.61961685,90.90336570000001,52.0,56.0
276,89.58780285,91.071035475,40.0,83.0
277,90.10370985,91.1161773375,47.0,62.0
278,90.61961685,91.64068278750001,67.0,83.0
279,90.61961685,91.6600293,64.0,85.0
280,91.13552385,91.6879742625,59.0,58.0
281,92.16733785000001,92.773528575,50.0,72.0
282,91.65143085000001,92.8294185,43.0,86.0
283,93.19915185,93.7258069125,55.0,81.0
284,92.68324485000001,93.75590148750001,59.0,96.0
285,92.68324485000001,93.775248,62.0,99.0
286,94.74687285,95.03922015,52.0,59.0
287,93.71505885,95.2305356625,40.0,97.0
288,94.23096585,95.29287442500001,47.0,56.0
289,94.74687285,95.88616747500001,64.0,93.0
290,94.74687285,95.90981321250001,67.0,92.0
291,95.26277985,95.91411243750001,59.0,89.0
292,96.29459385000001,96.8857372875,52.0,64.0
293,95.77868685,96.9373279875,45.0,88.0
294,97.32640785000001,97.82511795,57.0,85.0
295,96.81050085000001,97.84231485000001,60.0,100.0
296,96.81050085000001,97.84231485000001,64.0,99.0
297,97.84231485000001,98.46355286250001,36.0,89.0
298,98.35822185,98.85693195,64.0,72.0
299,98.35822185,98.99665676250001,60.0,78.0
300,98.87412885,99.5598552375,38.0,69.0
301,99.13208235,99.71032811250001,45.0,82.0
302,99.39003585,99.96398238750001,62.0,95.0
303,99.64798935,99.9768800625,57.0,73.0
304,99.39003585,99.99192735000001,66.0,107.0
305,100.42184985,101.1462692625,52.0,77.0
306,100.93775685,101.9115313125,59.0,78.0
307,100.93775685,101.93517705000001,64.0,88.0
308,99.90594285,101.96312201250001,40.0,73.0
309,100.16389635,101.96312201250001,47.0,59.0
310,100.67980335,101.98461813750001,55.0,73.0
311,103.00138485000001,103.44635463750001,52.0,67.0
312,102.48547785000001,103.6290717,47.0,78.0
313,101.96957085000001,103.684961625,40.0,112.0
314,103.51729185,104.011702725,64.0,102.0
315,103.00138485000001,104.01815156250001,67.0,95.0
316,104.03319885,105.63895938750001,38.0,92.0
317,104.54910585,105.641109,45.0,60.0
318,105.06501285,105.75933768750001,50.0,68.0
319,105.58091985000002,106.17206328750001,62.0,83.0
320,105.06501285,106.2193547625,66.0,112.0
321,105.83887335,106.230102825,57.0,64.0
322,106.61302288333334,107.31345340416668,52.0,61.0
323,106.09682685000001,107.39103955416667,45.0,81.0
324,107.13026388333334,108.19060793333334,60.0,93.0
325,107.13026388333334,108.19276310416667,64.0,97.0
326,107.64750488333334,108.24664237500001,57.0,82.0
327,109.19922788333334,109.60440000000001,52.0,63.0
328,108.68198688333334,109.746641275,47.0,55.0
329,108.16474588333334,109.78112400833334,40.0,73.0
330,109.19922788333334,110.20138232083335,64.0,90.0
331,109.19922788333334,110.21215817500001,67.0,86.0
332,109.71646888333333,110.26603744583335,59.0,97.0
333,111.26819188333334,111.5181917,50.0,67.0
334,110.23370988333335,111.56560545833334,38.0,90.0
335,110.75095088333335,111.582846825,45.0,59.0
336,111.26819188333334,112.2487946125,66.0,107.0
337,111.26819188333334,112.26819115,62.0,100.0
338,111.78543288333334,112.39103588750001,57.0,93.0
339,112.81991488333334,113.29836280833334,61.0,102.0
340,113.33715588333334,113.4255178875,61.0,72.0
341,112.30267388333334,113.93198303333334,37.0,86.0
342,113.85439688333334,114.26603451250001,61.0,112.0
343,113.33715588333334,114.32637929583333,64.0,100.0
344,115.40611988333335,115.68629209166667,48.0,71.0
345,114.37163788333334,115.88887815000001,36.0,96.0
346,114.88887888333335,115.92551605416668,43.0,55.0
347,115.92336088333334,116.48370530000001,55.0,96.0
348,115.40611988333335,116.50094666666668,60.0,89.0
349,115.40611988333335,116.52034320416668,64.0,95.0
350,116.44060188333334,117.99232488333334,35.0,85.0
351,116.95784288333334,117.996635225,42.0,62.0
352,117.73370438333335,118.03327312916667,47.0,93.0
353,117.47508388333334,118.03758347083334,63.0,127.0
354,117.47508388333334,118.05913517916667,66.0,127.0
355,117.99232488333334,118.50956588333334,59.0,127.0
356,119.02680688333334,119.6582719375,52.0,93.0
357,119.28542738333334,119.76603047916667,59.0,100.0
358,118.50956588333334,120.02465097916668,40.0,100.0
359,118.76818638333334,120.05482337083335,47.0,97.0
360,119.80266838333334,120.11516815416667,52.0,112.0
361,120.06128888333335,120.57852988333335,64.0,112.0
362,119.54404788333335,120.58930573750001,67.0,127.0
363,120.31990938333334,120.62594364166668,59.0,100.0
364,121.35439138333334,121.57852915000001,60.0,99.0
365,121.09577088333334,121.67982217916668,57.0,89.0
366,120.83715038333334,121.69921871666668,52.0,82.0
367,121.87163238333335,121.97077024166667,52.0,93.0
368,120.57852988333335,121.99447712083334,45.0,96.0
369,121.61301188333334,122.45999402083334,64.0,117.0
370,122.13025288333334,122.52464914583334,60.0,112.0
371,122.38887338333333,122.66689042083334,57.0,112.0
372,123.16473488333334,123.44706226250001,48.0,97.0
373,122.64749388333334,123.61947592916667,36.0,86.0
374,123.42335538333334,123.660424175,64.0,117.0
375,122.90611438333335,123.69490690833334,43.0,90.0
376,123.68197588333334,124.23369961666667,38.0,97.0
377,123.94059638333334,124.24447547083334,57.0,95.0
378,124.19921688333335,124.7660268125,62.0,92.0
379,124.45783738333334,124.772492325,57.0,86.0
380,124.19921688333335,124.79619920416667,66.0,127.0
381,125.23369888333335,125.50740557916667,55.0,107.0
382,125.49231938333334,125.78542261666668,59.0,93.0
383,124.97507838333334,125.85438808333333,50.0,92.0
384,126.00956038333334,126.11947409583334,50.0,85.0
385,124.71645788333333,126.12809477916667,43.0,78.0
386,125.75093988333334,126.30697395833334,62.0,97.0
387,126.26818088333334,126.61300821666667,59.0,117.0
388,125.75093988333334,126.77464602916668,67.0,117.0
389,126.52680138333335,126.81990461666668,62.0,127.0
390,127.30266288333334,127.54835235833335,57.0,95.0
391,127.56128338333335,127.86516247083334,60.0,107.0
392,127.04404238333333,127.94490379166668,52.0,100.0
393,128.07852438333333,128.23585185416667,52.0,102.0
394,126.78542188333334,128.28111044166667,45.0,92.0
395,127.81990388333334,128.83929968750002,64.0,117.0
396,128.33714488333334,128.85223071250002,60.0,112.0
397,128.59576538333334,128.86085139583335,57.0,112.0
398,129.37162688333333,129.74231626666668,52.0,95.0
399,129.63024738333334,129.8608506625,59.0,97.0
400,129.11300638333336,130.03972984166668,47.0,92.0
401,129.88886788333335,130.39533302916666,64.0,102.0
402,128.85438588333335,130.4039537125,40.0,89.0
403,130.14748838333335,130.47507435,47.0,97.0
404,129.88886788333335,130.85222924583334,67.0,117.0
405,130.66472938333334,130.85869475833334,64.0,117.0
406,130.40610888333333,130.927660225,59.0,122.0
407,131.18197038333335,131.4836943,57.0,83.0
408,130.92334988333334,131.82421129166667,45.0,122.0
409,131.44059088333336,131.8392974875,60.0,99.0
410,131.44059088333336,131.845763,64.0,122.0
411,131.69921138333333,131.98584910416668,57.0,90.0
412,132.21645238333335,132.52464181250002,57.0,89.0
413,131.95783188333334,132.5548142041667,50.0,122.0
414,132.47507288333335,132.97507251666667,62.0,97.0
415,132.47507288333335,132.99446905416667,66.0,127.0
416,132.73369338333333,133.01386559166667,57.0,97.0
417,133.50955488333335,133.78541675,55.0,92.0
418,133.76817538333336,134.031106225,59.0,122.0
419,133.25093438333334,134.160416475,50.0,99.0
420,134.28541638333334,134.44274385416668,50.0,102.0
421,132.99231388333334,134.47507141666668,43.0,95.0
422,134.54403688333335,135.0591227125,59.0,127.0
423,134.80265738333333,135.07636407916667,55.0,107.0
424,134.02679588333334,135.07636407916667,62.0,122.0
425,135.83713938333335,136.11084607916666,59.0,97.0
426,135.57851888333335,136.1841218875,52.0,102.0
427,135.06127788333333,136.60222502916668,40.0,90.0
428,136.09575988333333,136.6496387875,64.0,97.0
429,135.31989838333334,136.65179395833334,47.0,82.0
430,136.35438038333334,136.67334566666668,52.0,112.0
431,136.09575988333333,137.1733453,67.0,127.0
432,136.87162138333335,137.19274183750002,64.0,127.0
433,136.61300088333334,137.20136252083336,59.0,122.0
434,137.64748288333334,137.91256889583335,57.0,95.0
435,137.90610338333335,138.14963768750002,60.0,100.0
436,137.38886238333333,138.32636169583333,52.0,93.0
437,138.42334438333333,138.55480980416667,52.0,96.0
438,137.13024188333333,138.59575805,45.0,95.0
439,138.16472388333335,139.16041280833335,64.0,127.0
440,138.68196488333334,139.20782656666668,60.0,127.0
441,138.94058538333334,139.21213690833335,57.0,117.0
442,139.71644688333333,139.97075704166667,48.0,122.0
443,139.19920588333335,140.13886036666668,36.0,96.0
444,139.97506738333334,140.24877407916668,64.0,127.0
445,139.45782638333333,140.28541198333335,43.0,89.0
446,140.23368788333335,141.00523904166667,38.0,99.0
447,140.49230838333335,141.08282519166667,45.0,112.0
448,140.75092888333336,141.2918767625,50.0,112.0
449,141.00954938333334,141.3629974,66.0,127.0
450,141.78541088333333,142.151789925,55.0,107.0
451,142.04403138333333,142.38023803333334,59.0,96.0
452,141.52679038333335,142.4168759375,50.0,79.0
453,141.26816988333334,143.24015119583333,43.0,83.0
454,142.56127238333335,143.32420285833334,50.0,93.0
455,142.81989288333335,143.3996338375,62.0,99.0
456,142.30265188333334,143.3996338375,67.0,117.0
457,143.07851338333336,143.4254958875,59.0,90.0
458,143.85437488333335,144.4082537875,57.0,95.0
459,143.59575438333334,144.45135720416667,52.0,73.0
460,144.63023638333334,144.79187419583334,52.0,78.0
461,143.33713388333334,144.85437415,45.0,95.0
462,144.11299538333333,144.95997752083335,60.0,95.0
463,144.37161588333333,144.99014991250002,64.0,97.0
464,145.14747738333335,145.50523574166667,60.0,96.0
465,145.14747738333335,145.51816676666667,64.0,100.0
466,144.88885688333335,145.54402881666667,57.0,99.0
467,146.18195938333335,146.49230398333333,59.0,88.0
468,145.92333888333334,146.52678671666666,52.0,93.0
469,146.44057988333333,147.0332518625,64.0,99.0
470,146.69920038333333,147.26816548333335,52.0,90.0
471,145.40609788333336,147.33282060833335,40.0,75.0
472,145.66471838333334,147.36299300000002,47.0,85.0
473,146.44057988333333,147.39101022083335,67.0,112.0
474,147.21644138333335,147.41902744166669,64.0,112.0
475,146.95782088333334,147.43195846666669,59.0,100.0
476,147.99230288333334,148.53109559166668,59.0,85.0
477,147.73368238333336,148.61299208333332,54.0,93.0
478,148.50954388333335,149.06557795833334,63.0,112.0
479,148.50954388333335,149.2056640625,66.0,127.0
480,147.47506188333335,149.36514670416668,47.0,99.0
481,148.76816438333333,149.46643973333335,54.0,100.0
482,149.02678488333333,149.80695672500002,59.0,107.0
483,149.28540538333334,149.99661175833336,66.0,72.0
484,149.28540538333334,150.01385312500003,63.0,96.0
485,149.80264638333335,151.13238678750002,54.0,89.0
486,149.54402588333335,151.17980054583336,47.0,89.0
487,150.06126688333333,151.61298988333334,59.0,96.0
488,150.31988738333334,151.61298988333334,63.0,97.0
489,150.57850788333334,151.61298988333334,66.0,107.0
490,150.57850788333334,151.61298988333334,69.0,83.0
491,152.13023088333335,152.68626495833334,52.0,89.0
492,152.38885138333333,152.73152354583334,59.0,61.0
493,151.61298988333334,152.97074750833335,40.0,89.0
494,151.87161038333335,153.00954058333335,47.0,85.0
495,152.64747188333334,153.72721247083334,64.0,79.0
496,152.64747188333334,153.7315228125,67.0,90.0
497,153.16471288333335,153.74014349583334,59.0,74.0
498,154.19919488333335,154.78109100833333,52.0,66.0
499,153.68195388333334,154.80910822916667,45.0,83.0
500,154.71643588333333,155.77462476250003,64.0,75.0
501,154.71643588333333,155.7789351041667,60.0,79.0
502,156.78539988333335,157.06988243333333,52.0,56.0
503,155.75091788333333,157.23798575833334,40.0,83.0
504,156.26815888333334,157.28324434583334,47.0,62.0
505,156.78539988333335,157.80910602916668,67.0,83.0
506,156.78539988333335,157.82850256666669,64.0,85.0
507,157.30264088333334,157.85651978750002,59.0,58.0
508,158.33712288333334,158.94488105833335,50.0,72.0
509,157.81988188333335,159.00091550000002,43.0,86.0
510,159.37160488333333,159.8996217375,55.0,81.0
511,158.85436388333335,159.92979412916668,59.0,96.0
512,158.85436388333335,159.94919066666668,62.0,99.0
513,160.92332788333334,161.21643111666668,52.0,59.0
514,159.88884588333335,161.40824132083333,40.0,97.0
515,160.40608688333333,161.47074127500002,47.0,56.0
516,160.92332788333334,162.065568425,64.0,93.0
517,160.92332788333334,162.08927530416668,67.0,92.0
518,161.44056888333336,162.09358564583334,59.0,89.0
519,162.47505088333335,163.0677228625,52.0,64.0
520,161.95780988333334,163.1194469625,45.0,88.0
521,163.50953288333335,164.00953251666667,57.0,85.0
522,162.99229188333334,164.02677388333333,60.0,100.0
523,162.99229188333334,164.02677388333333,64.0,99.0
524,164.02677388333333,164.64961825416668,36.0,89.0
525,164.54401488333335,165.04401451666666,64.0,72.0
526,164.54401488333335,165.18410062083333,60.0,78.0
527,165.06125588333333,165.74875537916668,38.0,69.0
528,165.31987638333334,165.89961733750002,45.0,82.0
529,165.57849688333334,166.15392749583333,62.0,95.0
530,165.83711738333335,166.16685852083333,57.0,73.0
531,165.57849688333334,166.1819447166667,66.0,107.0
532,166.61297888333334,167.3392714541667,52.0,77.0
533,167.13021988333335,168.10651227083335,59.0,78.0
534,167.13021988333335,168.13021915000002,64.0,88.0
535,166.09573788333336,168.15823637083335,40.0,73.0
536,166.35435838333333,168.15823637083335,47.0,59.0
537,166.87159938333335,168.16470188333335,55.0,73.0
538,169.19918388333335,169.61944219583336,52.0,77.0
539,168.16470188333335,169.68194215,40.0,97.0
540,168.68194288333333,169.72504556666667,47.0,86.0
541,169.19918388333335,169.824183425,64.0,100.0
542,169.19918388333335,169.84573513333333,67.0,107.0
543,169.71642488333333,170.3090968625,59.0,112.0
544,171.00952738333336,171.324182325,60.0,100.0
545,170.75090688333336,171.375906425,57.0,93.0
546,170.49228638333335,171.40392364583334,52.0,100.0
547,171.52676838333335,171.62159590000002,52.0,79.0
548,170.23366588333334,171.63883726666666,45.0,95.0
549,171.26814788333334,172.16038860833334,64.0,117.0
550,172.04400938333333,172.25737129583334,57.0,100.0
551,171.78538888333333,172.31125056666667,60.0,117.0
552,172.81987088333335,173.0892672375,48.0,90.0
553,172.30262988333334,173.2293533416667,36.0,93.0
554,173.07849138333336,173.33711188333336,64.0,107.0
555,172.56125038333334,173.38883598333334,43.0,66.0
556,173.33711188333336,174.07202513750002,38.0,92.0
557,173.59573238333334,174.12159406666666,45.0,88.0
558,174.11297338333333,174.37159388333333,57.0,50.0
559,173.85435288333335,174.37159388333333,62.0,81.0
560,173.85435288333335,174.37159388333333,66.0,127.0
561,174.88883488333335,175.2207311916667,55.0,93.0
562,175.14745538333335,175.4534896416667,59.0,88.0
563,174.63021438333334,175.55478267083333,50.0,79.0
564,175.66469638333336,175.80047214583334,50.0,92.0
565,174.37159388333333,175.81986868333334,43.0,92.0
566,175.40607588333336,175.9470237625,62.0,96.0
567,175.40607588333336,176.47719578750002,67.0,107.0
568,176.18193738333335,176.48581647083336,62.0,122.0
569,175.92331688333334,176.51814403333333,59.0,112.0
570,176.95779888333334,177.28754002083335,52.0,86.0
571,177.21641938333335,177.52029847083332,55.0,83.0
572,176.69917838333333,177.64960872083333,47.0,92.0
573,176.44055788333333,177.9750395166667,40.0,82.0
574,177.73366038333336,177.9771946875,47.0,93.0
575,177.47503988333335,178.03753947083334,59.0,95.0
576,177.99228088333334,178.3004703125,55.0,107.0
577,178.25090138333334,178.52676325000002,59.0,127.0
578,177.47503988333335,178.52676325000002,64.0,102.0
579,179.02676288333333,179.34357299583334,57.0,100.0
580,179.28538338333334,179.58279695833335,60.0,92.0
581,178.76814238333333,179.67331413333335,52.0,90.0
582,179.80262438333335,179.9297794625,52.0,85.0
583,178.50952188333335,179.9405553166667,45.0,89.0
584,179.54400388333335,180.0978827875,64.0,90.0
585,179.54400388333335,180.51383075833334,69.0,102.0
586,180.31986538333334,180.582796225,64.0,117.0
587,180.06124488333336,180.59788242083334,60.0,102.0
588,181.35434738333333,181.61512305416667,55.0,92.0
589,181.09572688333333,181.68624369166668,48.0,97.0
590,181.87158838333335,182.02676068333335,48.0,97.0
591,180.83710638333335,182.03753653750002,43.0,89.0
592,180.57848588333334,182.06555375833335,36.0,92.0
593,181.61296788333334,182.15607093333335,60.0,107.0
594,181.61296788333334,182.5935706125,64.0,100.0
595,182.38882938333336,182.66253607916667,60.0,122.0
596,182.13020888333335,182.68624295833334,55.0,102.0
597,183.16469088333335,183.75305252083336,47.0,97.0
598,183.42331138333333,183.77029388750003,54.0,81.0
599,183.68193188333333,184.06986263333334,66.0,102.0
600,183.68193188333333,184.11296605,59.0,70.0
601,184.19917288333335,184.21856942083335,66.0,66.0
602,184.19917288333335,184.25520732500001,59.0,69.0
603,182.64744988333334,184.4534830416667,35.0,79.0
604,182.90607038333334,184.45779338333335,42.0,102.0
605,183.94055238333334,184.49012094583333,47.0,122.0
606,184.45779338333335,184.69701734583333,59.0,82.0
607,184.19917288333335,184.70779320000003,54.0,112.0
608,184.45779338333335,184.70994837083333,66.0,127.0
609,185.23365488333334,185.522447775,52.0,95.0
610,185.49227538333335,185.7530510541667,59.0,95.0
611,184.97503438333334,185.884516475,47.0,97.0
612,184.71641388333336,186.16684385416667,40.0,97.0
613,186.00951638333333,186.19270590416667,47.0,102.0
614,185.75089588333333,186.2789127375,64.0,99.0
615,185.75089588333333,186.84141232500002,67.0,122.0
616,186.52675738333335,186.8737398875,64.0,117.0
617,186.26813688333334,186.88020540000002,59.0,117.0
618,187.30261888333334,187.56986006666668,57.0,107.0
619,187.56123938333334,187.87373915416669,60.0,88.0
620,187.04399838333336,187.95994598750002,52.0,92.0
621,188.07848038333333,188.22934234166667,52.0,102.0
622,186.78537788333335,188.25089405,45.0,95.0
623,187.81985988333335,188.33279054166667,64.0,107.0
624,187.81985988333335,188.88020393333335,69.0,122.0
625,188.33710088333333,188.90822115416668,60.0,122.0
626,188.59572138333334,188.91037632500002,64.0,127.0
627,189.37158288333336,189.46210005833336,55.0,25.0
628,189.37158288333336,189.61080684583334,48.0,100.0
629,188.85434188333335,189.78537568333334,36.0,95.0
630,189.63020338333334,189.9319273,60.0,107.0
631,189.63020338333334,189.95563417916668,64.0,127.0
632,189.11296238333335,189.96209969166668,43.0,82.0
633,189.88882388333334,190.64744401666667,38.0,90.0
634,190.14744438333332,190.73149567916667,45.0,99.0
635,190.40606488333333,190.84140939166667,50.0,107.0
636,190.66468538333334,190.98149549583334,62.0,107.0
637,190.66468538333334,191.0116678875,66.0,127.0
638,191.44054688333335,191.8004604125,55.0,99.0
639,191.69916738333336,192.0008913,59.0,90.0
640,191.18192638333335,192.08925330416668,50.0,77.0
641,190.92330588333334,192.36080482916668,43.0,82.0
642,192.21640838333335,192.38666687916668,50.0,100.0
643,191.95778788333334,192.51382195833332,62.0,99.0
644,191.95778788333334,192.9836492,67.0,117.0
645,192.73364938333333,192.98795954166667,62.0,127.0
646,192.47502888333332,193.0418388125,59.0,117.0
647,193.76813138333335,194.0633897875,59.0,93.0
648,193.50951088333335,194.1151138875,52.0,100.0
649,194.02675188333336,194.548303225,64.0,112.0
650,192.99226988333334,194.5547687375,40.0,93.0
651,193.25089038333334,194.61511352083335,47.0,88.0
652,194.28537238333334,194.62373420416668,52.0,89.0
653,194.80261338333332,195.13450969166666,64.0,112.0
654,194.02675188333336,195.14744071666667,67.0,102.0
655,194.54399288333335,195.17761310833333,59.0,112.0
656,195.57847488333334,195.85002640833335,57.0,92.0
657,195.83709538333335,196.17330203333336,60.0,88.0
658,195.31985438333334,196.22933647500003,52.0,95.0
659,196.35433638333336,196.53106039166667,52.0,95.0
660,195.06123388333333,196.5461465875,45.0,86.0
661,196.09571588333336,196.61295688333334,64.0,100.0
662,196.09571588333336,196.96856007083335,69.0,122.0
663,196.87157738333335,197.13666339583335,64.0,122.0
664,196.61295688333334,197.1582151041667,60.0,122.0
665,197.64743888333334,198.20993847083335,48.0,97.0
666,197.90605938333334,198.23149017916668,55.0,96.0
667,197.13019788333332,198.61942092916667,36.0,92.0
668,197.38881838333333,198.65605883333336,43.0,88.0
669,198.16467988333335,198.76381737500003,60.0,112.0
670,198.42330038333336,198.7681277166667,48.0,107.0
671,198.16467988333335,198.94054138333334,64.0,122.0
672,198.68192088333336,198.996575825,55.0,122.0
673,198.94054138333334,199.11295505,60.0,97.0
674,199.19916188333335,199.2357997875,63.0,65.0
675,199.19916188333335,199.2357997875,63.0,117.0
676,199.19916188333335,199.58062712083336,54.0,96.0
677,199.19916188333335,199.65174775833333,59.0,112.0
678,199.71640288333333,199.78536835,59.0,83.0
679,199.19916188333335,199.84571313333333,66.0,112.0
680,199.71640288333333,200.0245923125,54.0,95.0
681,199.19916188333335,200.0763164125,47.0,63.0
682,199.45778238333332,200.15821290416667,51.0,75.0
683,200.23364388333334,201.26166037083334,49.0,127.0
684,200.23364388333334,201.272436225,65.0,127.0
685,200.23364388333334,201.298298275,61.0,117.0
686,200.23364388333334,201.3176948125,68.0,127.0
687,201.78536688333332,202.3392457875,54.0,107.0
688,202.04398738333333,202.34140095833334,57.0,97.0
689,201.26812588333334,202.82631439583335,42.0,96.0
690,201.52674638333335,202.82631439583335,49.0,92.0
691,202.30260788333334,202.83062473750002,61.0,117.0
692,202.56122838333334,202.83277990833335,54.0,100.0
693,202.81984888333335,203.22502100000003,57.0,127.0
694,202.30260788333334,203.25950373333336,66.0,127.0
695,203.07846938333336,203.32631402916667,61.0,127.0
696,203.85433088333335,204.15820997083335,59.0,97.0
697,204.11295138333332,204.30691675833333,62.0,96.0
698,203.59571038333334,204.55260623333334,54.0,99.0
699,204.63019238333334,204.7702784875,54.0,107.0
700,203.33708988333336,204.8737266875,47.0,92.0
701,204.37157188333333,204.90820942083334,62.0,122.0
702,204.37157188333333,205.37372632083333,66.0,127.0
703,204.88881288333334,205.39312285833336,59.0,127.0
704,205.14743338333335,205.43838144583333,62.0,127.0
705,205.92329488333334,206.16251884583335,50.0,107.0
706,205.40605388333336,206.34355319583335,38.0,95.0
707,206.18191538333335,206.4297600291667,66.0,122.0
708,205.66467438333336,206.51596686250002,45.0,100.0
709,206.18191538333335,206.55475993750002,62.0,107.0
710,206.44053588333333,207.21639738333334,40.0,97.0
711,206.69915638333333,207.27458699583335,47.0,92.0
712,206.95777688333334,207.47286271250002,52.0,107.0
713,207.21639738333334,207.49656959166668,68.0,102.0
714,207.21639738333334,207.5245868125,64.0,99.0
715,207.21639738333334,207.53536266666669,59.0,85.0
716,207.99225888333336,208.2616552375,57.0,93.0
717,207.73363838333336,208.64096530416668,52.0,65.0
718,208.25087938333334,208.85432721666666,61.0,122.0
719,208.76812038333333,209.38234407083334,52.0,97.0
720,209.02674088333333,209.43406817083334,61.0,127.0
721,207.47501788333335,209.4513095375,45.0,90.0
722,208.50949988333335,209.47501641666668,64.0,102.0
723,209.28536138333334,209.5418267125,57.0,117.0
724,210.06122288333336,210.53320529583334,59.0,96.0
725,209.80260238333335,210.72070515833335,54.0,93.0
726,210.83708438333335,211.04182561250002,54.0,100.0
727,209.54398188333334,211.06553249166666,47.0,89.0
728,210.31984338333336,211.22070479166666,62.0,78.0
729,211.09570488333333,211.59354934583334,59.0,102.0
730,211.35432538333333,211.61510105416667,62.0,127.0
731,210.57846388333334,211.643118275,66.0,127.0
732,211.87156638333335,212.25087645000002,54.0,99.0
733,212.13018688333335,212.71639335000003,57.0,100.0
734,212.38880738333336,212.76596227916667,54.0,90.0
735,212.90604838333334,213.10216892916668,54.0,102.0
736,211.61294588333334,213.21208264166668,42.0,95.0
737,212.64742788333336,213.21639298333335,61.0,127.0
738,212.64742788333336,213.60216856250003,66.0,127.0
739,213.16466888333335,213.6215651,57.0,127.0
740,213.42328938333333,213.67544437083336,61.0,127.0
741,213.94053038333334,214.32630596250002,54.0,99.0
742,214.19915088333335,214.46639206666669,66.0,127.0
743,214.19915088333335,214.52242650833335,62.0,117.0
744,213.68190988333333,214.6215643666667,47.0,90.0
745,214.45777138333335,214.71854705416666,59.0,96.0
746,214.71639188333336,215.21423634583334,64.0,117.0
747,214.71639188333336,215.7013049541667,68.0,127.0
748,214.71639188333336,215.7271670041667,52.0,117.0
749,215.49225338333335,215.78535661666666,64.0,112.0
750,215.23363288333334,215.806908325,59.0,117.0
751,216.26811488333334,216.54182157916668,57.0,100.0
752,216.52673538333335,216.9232868166667,61.0,127.0
753,216.00949438333333,216.92975232916666,52.0,83.0
754,217.04397638333336,217.39311405833334,52.0,100.0
755,215.75087388333333,217.43190713333334,45.0,88.0
756,216.78535588333335,217.51811396666668,64.0,107.0
757,217.30259688333336,217.64526904583334,61.0,127.0
758,217.56121738333334,217.88018266666668,57.0,117.0
759,218.07845838333333,218.45992362083337,54.0,102.0
760,218.33707888333333,218.82199232083335,57.0,90.0
761,218.59569938333334,218.96207842500002,54.0,88.0
762,217.81983788333335,219.3801815666667,42.0,127.0
763,218.85431988333335,219.42975049583333,61.0,127.0
764,219.11294038333335,219.5094918166667,54.0,100.0
765,219.37156088333336,219.84569846666668,57.0,127.0
766,218.85431988333335,219.87802602916668,66.0,127.0
767,219.63018138333337,219.8801812,61.0,127.0
768,220.40604288333333,221.0245769125,59.0,99.0
769,220.14742238333335,221.0892320375,54.0,99.0
770,220.92328388333334,221.39742146666669,62.0,102.0
771,221.18190438333335,221.5138006916667,54.0,97.0
772,219.88880188333334,221.73793845833336,47.0,86.0
773,221.44052488333335,221.83061080416667,59.0,122.0
774,220.92328388333334,221.86078319583333,66.0,122.0
775,221.69914538333336,221.92112797916667,62.0,122.0
776,222.47500688333335,222.80259285,50.0,117.0
777,221.95776588333337,222.89526519583336,38.0,99.0
778,222.21638638333334,223.03104095833334,45.0,97.0
779,222.73362738333333,223.0719892041667,57.0,127.0
780,222.99224788333333,223.78104040833335,40.0,96.0
781,223.25086838333334,223.88448860833336,47.0,100.0
782,223.50948888333335,224.0224195416667,52.0,112.0
783,223.76810938333335,224.0870746666667,64.0,102.0
784,223.76810938333335,224.09785052083333,68.0,127.0
785,223.76810938333335,224.1000056916667,59.0,69.0
786,224.54397088333334,224.80474655416668,57.0,100.0
787,224.28535038333337,225.18405662083336,52.0,93.0
788,224.80259138333335,225.40388404583337,61.0,127.0
789,225.57845288333334,225.64741835,61.0,20.0
790,224.02672988333336,225.94698709583335,45.0,93.0
791,225.06121188333333,226.02026290416669,64.0,107.0
792,225.57845288333334,226.02888358750002,57.0,107.0
793,225.31983238333333,226.0547456375,52.0,95.0
794,225.83707338333335,226.0806076875,61.0,127.0
795,226.87155538333334,227.05474490416668,62.0,83.0
796,226.61293488333337,227.2228482291667,59.0,99.0
797,226.35431438333336,227.29181369583335,54.0,97.0
798,226.09569388333335,227.55043419583336,47.0,93.0
799,227.38879638333333,227.57629624583336,54.0,78.0
800,227.13017588333335,227.6883651291667,62.0,89.0
801,227.13017588333335,228.16681305416668,66.0,127.0
802,227.90603738333334,228.19914061666668,62.0,107.0
803,227.64741688333334,228.25301988750002,59.0,112.0
804,228.68189888333336,229.29827774166668,54.0,82.0
805,228.94051938333334,229.35862252500002,57.0,82.0
806,229.45776038333335,229.6409499041667,54.0,93.0
807,228.42327838333335,229.66465678333333,49.0,65.0
808,228.16465788333335,229.72715673750002,42.0,93.0
809,229.19913988333334,229.75086361666666,61.0,127.0
810,229.19913988333334,230.19482880833334,66.0,127.0
811,229.71638088333333,230.23362188333334,57.0,122.0
812,229.97500138333334,230.23362188333334,61.0,122.0
813,231.00948338333336,231.2271556375,56.0,76.0
814,231.26810388333334,231.37370725416667,56.0,63.0
815,230.75086288333335,231.3823279375,49.0,100.0
816,231.26810388333334,231.8521551791667,61.0,117.0
817,230.23362188333334,232.14741358333333,37.0,88.0
818,230.49224238333335,232.281034175,44.0,38.0
819,231.26810388333334,233.20129212083333,65.0,96.0
820,232.04396538333333,233.21422314583333,61.0,107.0
821,231.78534488333335,233.2810334416667,56.0,100.0
822,231.52672438333335,233.4103436916667,49.0,93.0
823,233.33706788333336,233.74008482916668,56.0,74.0
824,233.33706788333336,234.08922250416668,65.0,99.0
825,232.30258588333334,234.13232592083335,37.0,96.0
826,233.07844738333335,234.2314637791667,44.0,37.0
827,233.85430888333335,234.30689475833333,49.0,74.0
828,233.33706788333336,234.3090499291667,61.0,102.0
829,234.37154988333333,236.28534158333335,49.0,74.0
830,234.37154988333333,236.29180709583335,44.0,72.0
831,234.37154988333333,236.30689329166668,61.0,70.0
832,234.37154988333333,236.32413465833335,56.0,69.0
833,234.37154988333333,236.33060017083335,65.0,70.0
834,234.37154988333333,236.39741046666668,37.0,58.0
835,238.50947788333335,240.17758010833336,42.0,75.0
836,239.02671888333336,240.23361455,49.0,56.0
837,239.54395988333334,240.54611432083334,61.0,77.0
838,240.06120088333336,240.5698212,57.0,69.0
839,239.54395988333334,240.59568325,66.0,90.0
840,240.57844188333334,242.3586129916667,47.0,68.0
841,241.09568288333335,242.36723367500002,54.0,52.0
842,242.13016488333335,242.83490574583334,59.0,69.0
843,241.61292388333334,242.84137125833334,62.0,78.0
844,241.61292388333334,242.86723330833334,66.0,83.0
845,244.19912888333334,246.77671320000002,56.0,93.0
846,243.69481890833333,246.79826490833335,49.0,86.0
847,244.83274910833336,246.85645452083335,65.0,69.0
848,244.82628359583336,246.86076486250002,61.0,72.0
849,242.63663002916667,246.86292003333335,37.0,93.0
850,243.17326756666668,246.94697169583335,44.0,54.0
851,248.1905052666667,252.9642086625,58.0,73.0
852,248.19481560833336,252.97498451666667,63.0,66.0
853,248.1840397541667,252.98576037083333,42.0,71.0
854,248.19481560833336,252.9900707125,37.0,72.0
855,248.18835009583336,252.99222588333333,54.0,75.0
856,248.19912595000002,253.01377759166667,30.0,75.0
857,254.12584574166667,257.0396367083333,102.0,70.0
858,253.9965354916667,257.04825739166665,94.0,53.0
859,254.05041476250003,257.056878075,97.0,62.0
860,253.9124838291667,257.06980910000004,90.0,32.0
