,start,end,pitch,velocity
0,18.197904225000002,18.342950570833334,71.0,99.0
1,18.457688725,18.57134444375,71.0,86.0
2,18.717473225000003,18.820304589583333,71.0,92.0
3,18.977257725,19.124468941666667,71.0,100.0
4,19.237042225,19.510898385416667,68.0,117.0
5,19.756611225,19.839958752083334,66.0,97.0
6,20.016395725000002,20.986257858333335,68.0,122.0
7,21.055533725,21.177848927083335,64.0,75.0
8,21.315318225000002,21.510156600000002,64.0,77.0
9,21.575102725,21.80349659791667,66.0,96.0
10,21.834887225000003,22.371775191666668,68.0,93.0
11,22.354456225000003,24.048467652083335,61.0,93.0
12,26.511008225,26.696104681250002,66.0,127.0
13,26.770792725000003,27.023000177083336,68.0,100.0
14,27.030577225000002,27.183200618750003,66.0,100.0
15,27.290361725,27.427831022916667,68.0,107.0
16,27.550146225000002,27.932245927083336,71.0,100.0
17,28.069715225000003,28.56114090416667,68.0,122.0
18,28.589284225000004,29.335082227083337,66.0,112.0
19,29.368637725000003,29.47363396041667,64.0,90.0
20,29.628422225,29.792952408333335,64.0,90.0
21,29.888206725000003,30.124177645833335,61.0,83.0
22,30.147991225000002,30.693538675000003,59.0,90.0
23,30.667560225000003,32.69820906666667,68.0,99.0
24,34.824112225,34.947509862500006,71.0,99.0
25,35.083896725,35.196470008333335,71.0,72.0
26,35.343681225000005,35.447595025000005,71.0,70.0
27,35.603465725,35.73011066875,71.0,92.0
28,35.863250225,36.15442535208334,68.0,96.0
29,36.382819225000006,36.51595878125,66.0,92.0
30,36.642603725,37.57025087708334,68.0,112.0
31,37.681741725,37.78673796041667,64.0,85.0
32,37.941526225000004,38.0844077,64.0,82.0
33,38.201310725000006,38.39506666458334,66.0,95.0
34,38.461095225,38.88973965,68.0,95.0
35,38.980664225000005,41.58175653125,61.0,95.0
36,43.137216225,43.315818068750005,66.0,107.0
37,43.397000725000005,43.529057845833336,68.0,95.0
38,43.656785225,43.80074913541667,66.0,97.0
39,43.916569725,44.052956587500006,68.0,102.0
40,44.176354225000004,44.61582300416667,71.0,86.0
41,44.695923225,45.111578425000005,68.0,90.0
42,45.215492225000006,45.67119753541667,66.0,83.0
43,45.994845725000005,46.21674498541667,59.0,85.0
44,46.25463022500001,46.45704564791667,68.0,99.0
45,46.514414725,46.72657206666667,66.0,102.0
46,46.774199225000004,47.26562490416667,68.0,102.0
47,47.293768225,48.74964386041667,64.0,102.0
48,51.450320225000006,51.595366570833335,71.0,99.0
49,51.710104725,51.823760443750004,71.0,86.0
50,51.969889225,52.072720589583334,71.0,92.0
51,52.229673725000005,52.376884941666674,71.0,100.0
52,52.48945822500001,52.76331438541667,68.0,117.0
53,53.009027225000004,53.09237475208334,66.0,97.0
54,53.268811725000006,54.238673858333335,68.0,122.0
55,54.30794972500001,54.430264927083336,64.0,75.0
56,54.567734225,54.762572600000006,64.0,77.0
57,54.827518725000004,55.055912597916674,66.0,96.0
58,55.08730322500001,55.62419119166667,68.0,93.0
59,55.606872225000004,57.300883652083336,61.0,93.0
60,59.763424225,59.94852068125,66.0,127.0
61,60.023208725,60.275416177083336,68.0,100.0
62,60.282993225000006,60.435616618750004,66.0,100.0
63,60.54277772500001,60.680247022916674,68.0,107.0
64,60.802562225,61.18466192708334,71.0,100.0
65,61.32213122500001,61.813556904166674,68.0,122.0
66,61.841700225000004,62.58749822708334,66.0,112.0
67,62.621053725,62.726049960416674,64.0,90.0
68,62.880838225000005,63.04536840833334,64.0,90.0
69,63.14062272500001,63.37659364583334,61.0,83.0
70,63.400407225,63.945954675,59.0,90.0
71,63.919976225000006,65.95062506666667,68.0,99.0
72,68.076528225,68.19992586250001,71.0,99.0
73,68.336312725,68.44888600833333,71.0,72.0
74,68.59609722500001,68.70001102500001,71.0,70.0
75,68.855881725,68.98252666875001,71.0,92.0
76,69.115666225,69.40684135208333,68.0,96.0
77,69.635235225,69.76837478125,66.0,92.0
78,69.89501972500001,70.82266687708334,68.0,112.0
79,70.934157725,71.03915396041667,64.0,85.0
80,71.193942225,71.33682370000001,64.0,82.0
81,71.45372672500001,71.64748266458334,66.0,95.0
82,71.713511225,72.14215565,68.0,95.0
83,72.23308022500001,74.83417253125,61.0,95.0
84,76.389632225,76.56823406875,66.0,107.0
85,76.64941672500001,76.78147384583333,68.0,95.0
86,76.909201225,77.05316513541668,66.0,97.0
87,77.168985725,77.3053725875,68.0,102.0
88,77.42877022500001,77.86823900416667,71.0,86.0
89,77.94833922500001,78.363994425,68.0,90.0
90,78.467908225,78.92361353541668,66.0,83.0
91,79.247261725,79.46916098541668,59.0,85.0
92,79.50704622500001,79.70946164791667,68.0,99.0
93,79.766830725,79.97898806666667,66.0,102.0
94,80.026615225,80.51804090416667,68.0,102.0
95,80.546184225,82.00205986041668,64.0,102.0
96,84.70273622500001,85.25802559375,71.0,100.0
97,85.48208972500001,85.64986721458334,68.0,97.0
98,85.741874225,86.20299171250001,71.0,102.0
99,86.26144322500001,86.70307687500001,73.0,122.0
100,86.78101222500001,87.25187163125001,76.0,127.0
101,87.56036572500001,87.70108232916667,73.0,107.0
102,87.820150225,88.10916048125,76.0,99.0
103,88.33971922500001,88.67310933333334,73.0,107.0
104,88.859288225,89.22515139583334,71.0,102.0
105,89.378857225,89.57261316458334,71.0,99.0
106,89.63864172500001,89.81616113333334,68.0,99.0
107,89.89842622500001,90.25130017083335,71.0,100.0
108,90.41799522500001,90.61391603541668,73.0,127.0
109,90.67777972500001,90.90942090416668,71.0,99.0
110,90.937564225,92.31117476875,68.0,100.0
111,93.015840225,93.18253527916667,66.0,122.0
112,93.275624725,93.42175350625001,68.0,100.0
113,93.53540922500001,93.67179608750001,66.0,99.0
114,93.795193725,93.91642649166667,68.0,122.0
115,94.05497822500001,94.37429667291667,71.0,97.0
116,94.574547225,94.9252563,68.0,127.0
117,95.09411622500001,95.59636625833335,66.0,100.0
118,95.873469725,96.01310389375001,61.0,93.0
119,96.133254225,96.66148270833334,64.0,96.0
120,96.652823225,97.198370675,68.0,107.0
121,97.17239222500001,99.85574962291668,66.0,117.0
122,101.328944225,101.87557411041668,68.0,112.0
123,102.10829772500001,102.25875624791668,68.0,107.0
124,102.36808222500001,102.69714259166668,66.0,112.0
125,102.88765122500001,103.21995889791667,68.0,122.0
126,103.407220225,103.94410819166667,71.0,102.0
127,104.186573725,104.33703224791667,68.0,99.0
128,104.44635822500001,104.82521062083335,71.0,102.0
129,104.965927225,105.27225644791667,73.0,122.0
130,105.485496225,105.87300810416667,76.0,127.0
131,106.00506522500001,106.20206847083334,76.0,117.0
132,106.264849725,106.40015415208335,73.0,112.0
133,106.52463422500001,106.78983090208334,76.0,107.0
134,107.044203225,107.40573665416667,78.0,127.0
135,107.56377222500001,108.24570653750001,73.0,127.0
136,109.64204822500001,109.74487958958333,76.0,127.0
137,109.901832725,109.99600460625001,76.0,93.0
138,110.16161722500001,110.25362423541668,76.0,107.0
139,110.42140172500001,110.51016142916667,76.0,99.0
140,110.681186225,110.95937212708334,73.0,127.0
141,111.20075522500001,111.50816688333335,71.0,127.0
142,111.72032422500001,111.86753544166667,66.0,117.0
143,111.98010872500001,112.32973536458334,66.0,100.0
144,112.49967772500001,112.5970969125,66.0,122.0
145,112.75946222500001,113.08635772083335,66.0,112.0
146,113.27903122500001,113.66762553958334,68.0,127.0
147,113.798600225,115.63332825625001,71.0,117.0
148,117.69536772500001,117.99628477083334,71.0,112.0
149,118.21493672500002,118.34374653958334,71.0,100.0
150,118.47472122500001,118.58837694375,71.0,95.0
151,118.734505725,118.85249118541668,71.0,100.0
152,118.99429022500001,119.29195996458334,68.0,122.0
153,119.513859225,119.8840521375,66.0,117.0
154,120.03342822500001,120.43717663541668,68.0,127.0
155,120.81278172500001,120.93509692708334,64.0,89.0
156,121.072566225,121.23168423125001,64.0,97.0
157,121.33235072500001,121.48389168333334,66.0,112.0
158,121.592135225,121.96449300833335,68.0,117.0
159,122.11170422500001,123.39871993541668,61.0,99.0
160,126.26825622500002,126.43170397291668,66.0,127.0
161,126.52804072500001,126.66118028125001,68.0,102.0
162,126.787825225,126.90256337916668,66.0,112.0
163,127.04760972500002,127.14935865416668,68.0,122.0
164,127.30739422500001,127.60722883541668,71.0,102.0
165,127.82696322500001,128.18849665416667,68.0,127.0
166,128.346532225,128.65719118958333,66.0,117.0
167,129.12588572500002,129.2081508166667,64.0,93.0
168,129.385670225,129.53829361875,64.0,97.0
169,129.645454725,129.79050107083333,61.0,112.0
170,129.905239225,130.31223494166667,59.0,102.0
171,130.42480822500002,132.20433205,68.0,112.0
172,134.581360225,134.6831091541667,71.0,100.0
173,134.84114472500002,134.94072878333336,71.0,90.0
174,135.10092922500002,135.19293623541668,71.0,93.0
175,135.360713725,135.45488560625,71.0,99.0
176,135.620498225,135.90517873958333,68.0,127.0
177,136.140067225,136.27104191041667,66.0,117.0
178,136.39985172500002,137.205183675,68.0,127.0
179,137.438989725,137.55372787916667,64.0,100.0
180,137.69877422500002,137.94232219375002,64.0,93.0
181,137.95855872500002,138.1533971,66.0,102.0
182,138.218343225,138.60801997500002,68.0,117.0
183,138.737912225,141.91702504375002,61.0,112.0
184,142.894464225,143.06657145625002,66.0,127.0
185,143.154248725,143.29604776458334,68.0,112.0
186,143.414033225,143.53851329791667,66.0,112.0
187,143.67381772500002,143.79288562083335,68.0,122.0
188,143.93360222500002,144.28647617083334,71.0,102.0
189,144.453171225,144.80604517083336,68.0,122.0
190,144.97274022500002,145.45225911458334,66.0,117.0
191,145.752093725,145.90796442500002,59.0,93.0
192,146.011878225,146.18831519791667,68.0,117.0
193,146.271662725,146.3950603625,66.0,127.0
194,146.53144722500002,146.89298065416668,68.0,112.0
195,147.051016225,149.26567908750002,64.0,112.0
196,167.833776225,167.97882257083336,71.0,99.0
197,168.093560725,168.20721644375,71.0,86.0
198,168.353345225,168.45617658958335,71.0,92.0
199,168.61312972500002,168.76034094166667,71.0,100.0
200,168.87291422500002,169.1467703854167,68.0,117.0
201,169.392483225,169.47583075208334,66.0,97.0
202,169.652267725,170.62212985833335,68.0,122.0
203,170.691405725,170.81372092708335,64.0,75.0
204,170.951190225,171.14602860000002,64.0,77.0
205,171.210974725,171.43936859791668,66.0,96.0
206,171.47075922500002,172.00764719166668,68.0,93.0
207,171.990328225,173.68433965208334,61.0,93.0
208,176.14688022500002,176.33197668125,66.0,127.0
209,176.406664725,176.65887217708334,68.0,100.0
210,176.666449225,176.81907261875,66.0,100.0
211,176.926233725,177.06370302291668,68.0,107.0
212,177.18601822500003,177.56811792708334,71.0,100.0
213,177.70558722500002,178.19701290416668,68.0,122.0
214,178.225156225,178.97095422708335,66.0,112.0
215,179.00450972500002,179.10950596041667,64.0,90.0
216,179.26429422500001,179.42882440833336,64.0,90.0
217,179.524078725,179.76004964583333,61.0,83.0
218,179.783863225,180.32941067500002,59.0,90.0
219,180.30343222500002,182.33408106666667,68.0,99.0
220,184.459984225,184.5833818625,71.0,99.0
221,184.71976872500002,184.83234200833334,71.0,72.0
222,184.97955322500002,185.083467025,71.0,70.0
223,185.239337725,185.36598266875,71.0,92.0
224,185.499122225,185.79029735208334,68.0,96.0
225,186.01869122500003,186.15183078125003,66.0,92.0
226,186.27847572500002,187.20612287708335,68.0,112.0
227,187.317613725,187.42260996041668,64.0,85.0
228,187.57739822500002,187.72027970000002,64.0,82.0
229,187.83718272500002,188.03093866458335,66.0,95.0
230,188.09696722500001,188.52561165,68.0,95.0
231,188.616536225,191.21762853125,61.0,95.0
232,192.773088225,192.95169006875003,66.0,107.0
233,193.032872725,193.16492984583334,68.0,95.0
234,193.29265722500003,193.4366211354167,66.0,97.0
235,193.55244172500002,193.6888285875,68.0,102.0
236,193.81222622500002,194.2516950041667,71.0,86.0
237,194.331795225,194.747450425,68.0,90.0
238,194.85136422500003,195.30706953541667,66.0,83.0
239,195.630717725,195.8526169854167,59.0,85.0
240,195.890502225,196.0929176479167,68.0,99.0
241,196.150286725,196.36244406666668,66.0,102.0
242,196.41007122500002,196.9014969041667,68.0,102.0
243,196.929640225,198.3855158604167,64.0,102.0
244,201.08619222500002,201.64148159375,71.0,100.0
245,201.865545725,202.03332321458336,68.0,97.0
246,202.12533022500003,202.58644771250002,71.0,102.0
247,202.64489922500002,203.08653287500002,73.0,122.0
248,203.164468225,203.63532763125002,76.0,127.0
249,203.94382172500002,204.0845383291667,73.0,107.0
250,204.20360622500002,204.49261648125002,76.0,99.0
251,204.723175225,205.05656533333334,73.0,107.0
252,205.24274422500002,205.60860739583336,71.0,102.0
253,205.762313225,205.95606916458334,71.0,99.0
254,206.022097725,206.19961713333336,68.0,99.0
255,206.281882225,206.63475617083336,71.0,100.0
256,206.80145122500002,206.99737203541667,73.0,127.0
257,207.06123572500002,207.2928769041667,71.0,99.0
258,207.321020225,208.69463076875002,68.0,100.0
259,209.39929622500003,209.5659912791667,66.0,122.0
260,209.65908072500002,209.80520950625,68.0,100.0
261,209.91886522500002,210.0552520875,66.0,99.0
262,210.178649725,210.2998824916667,68.0,122.0
263,210.438434225,210.7577526729167,71.0,97.0
264,210.95800322500003,211.30871230000002,68.0,127.0
265,211.47757222500002,211.97982225833334,66.0,100.0
266,212.256925725,212.39655989375,61.0,93.0
267,212.51671022500003,213.04493870833335,64.0,96.0
268,213.03627922500002,213.581826675,68.0,107.0
269,213.555848225,216.23920562291667,66.0,117.0
270,217.712400225,218.2590301104167,68.0,112.0
271,218.49175372500002,218.6422122479167,68.0,107.0
272,218.75153822500002,219.08059859166667,66.0,112.0
273,219.271107225,219.60341489791668,68.0,122.0
274,219.79067622500003,220.32756419166668,71.0,102.0
275,220.570029725,220.72048824791668,68.0,99.0
276,220.829814225,221.20866662083336,71.0,102.0
277,221.34938322500003,221.65571244791667,73.0,122.0
278,221.86895222500002,222.2564641041667,76.0,127.0
279,222.388521225,222.58552447083335,76.0,117.0
280,222.64830572500003,222.78361015208336,73.0,112.0
281,222.90809022500002,223.17328690208336,76.0,107.0
282,223.427659225,223.78919265416667,78.0,127.0
283,223.947228225,224.6291625375,73.0,127.0
284,226.02550422500002,226.12833558958334,76.0,127.0
285,226.28528872500002,226.37946060625,76.0,93.0
286,226.545073225,226.63708023541668,76.0,107.0
287,226.804857725,226.89361742916668,76.0,99.0
288,227.06464222500003,227.34282812708335,73.0,127.0
289,227.58421122500002,227.89162288333335,71.0,127.0
290,228.103780225,228.25099144166668,66.0,117.0
291,228.363564725,228.71319136458334,66.0,100.0
292,228.88313372500002,228.98055291250003,66.0,122.0
293,229.14291822500002,229.46981372083334,66.0,112.0
294,229.662487225,230.05108153958335,68.0,127.0
295,230.18205622500003,232.01678425625002,71.0,117.0
296,234.078823725,234.37974077083334,71.0,112.0
297,234.59839272500002,234.72720253958335,71.0,100.0
298,234.85817722500002,234.97183294375003,71.0,95.0
299,235.11796172500001,235.23594718541668,71.0,100.0
300,235.377746225,235.67541596458335,68.0,122.0
301,235.89731522500003,236.26750813750002,66.0,117.0
302,236.41688422500002,236.82063263541667,68.0,127.0
303,237.196237725,237.31855292708335,64.0,89.0
304,237.45602222500003,237.61514023125002,64.0,97.0
305,237.71580672500002,237.86734768333335,66.0,112.0
306,237.97559122500002,238.34794900833336,68.0,117.0
307,238.495160225,239.7821759354167,61.0,99.0
308,242.651712225,242.8151599729167,66.0,127.0
309,242.911496725,243.04463628125,68.0,102.0
310,243.17128122500003,243.28601937916667,66.0,112.0
311,243.43106572500002,243.53281465416669,68.0,122.0
312,243.69085022500002,243.9906848354167,71.0,102.0
313,244.210419225,244.5719526541667,68.0,127.0
314,244.72998822500003,245.04064718958335,66.0,117.0
315,245.509341725,245.59160681666668,64.0,93.0
316,245.769126225,245.92174961875003,64.0,97.0
317,246.02891072500003,246.17395707083335,61.0,112.0
318,246.28869522500003,246.6956909416667,59.0,102.0
319,246.80826422500002,248.58778805000003,68.0,112.0
320,250.96481622500002,251.06656515416668,71.0,100.0
321,251.22460072500002,251.32418478333335,71.0,90.0
322,251.484385225,251.57639223541668,71.0,93.0
323,251.744169725,251.83834160625003,71.0,99.0
324,252.00395422500003,252.28863473958336,68.0,127.0
325,252.52352322500002,252.6544979104167,66.0,117.0
326,252.78330772500001,253.58863967500002,68.0,127.0
327,253.82244572500002,253.9371838791667,64.0,100.0
328,254.08223022500002,254.32577819375,64.0,93.0
329,254.342014725,254.53685310000003,66.0,102.0
330,254.601799225,254.99147597500001,68.0,117.0
331,255.12136822500003,258.30048104375004,61.0,112.0
332,259.277920225,259.45002745625004,66.0,127.0
333,259.537704725,259.67950376458333,68.0,112.0
334,259.797489225,259.9219692979167,66.0,112.0
335,260.057273725,260.17634162083334,68.0,122.0
336,260.31705822500004,260.66993217083336,71.0,102.0
337,260.83662722500003,261.18950117083335,68.0,122.0
338,261.356196225,261.83571511458337,66.0,117.0
339,262.13554972500003,262.291420425,59.0,93.0
340,262.395334225,262.5717711979167,68.0,117.0
341,262.655118725,262.7785163625,66.0,127.0
342,262.91490322500005,263.2764366541667,68.0,112.0
343,263.43447222500004,265.64913508750004,64.0,112.0
344,267.591024225,267.76313145625,66.0,127.0
345,267.85080872500004,267.99260776458334,68.0,112.0
346,268.110593225,268.2350732979167,66.0,112.0
347,268.370377725,268.48944562083335,68.0,122.0
348,268.630162225,268.9830361708334,71.0,102.0
349,269.14973122500004,269.50260517083336,68.0,122.0
350,269.66930022500003,270.1488191145834,66.0,117.0
351,270.44865372500004,270.604524425,59.0,93.0
352,270.708438225,270.8848751979167,68.0,117.0
353,270.96822272500003,271.0916203625,66.0,127.0
354,271.228007225,271.5895406541667,68.0,112.0
355,271.74757622500005,273.825852225,64.0,112.0
