,start,end,pitch,velocity
0,23.41070296875,23.6751903,60.0,95.0
1,23.69663521875,23.95397424375,62.0,73.0
2,23.98256746875,24.32092063125,65.0,77.0
3,24.26849971875,24.561580275,67.0,83.0
4,24.55443196875,24.91184728125,65.0,71.0
5,24.84036421875,25.37886995625,67.0,93.0
6,25.12629646875,25.495625625,69.0,97.0
7,25.69816096875,26.16518364375,69.0,100.0
8,26.27002546875,26.505919575,69.0,93.0
9,26.55595771875,26.79423459375,67.0,88.0
10,26.84188996875,27.14688436875,65.0,88.0
11,27.12782221875,27.4256683125,67.0,95.0
12,27.41375446875,27.8069113125,69.0,99.0
13,27.98561896875,28.34779981875,69.0,93.0
14,28.55748346875,28.6551769875,69.0,96.0
15,28.84341571875,28.974468,67.0,93.0
16,29.12934796875,29.2651657875,65.0,74.0
17,29.41528021875,29.58683956875,67.0,99.0
18,29.98714471875,30.24448374375,65.0,93.0
19,30.27307696875,30.50658830625,62.0,78.0
20,30.55900921875,30.83064485625,65.0,83.0
21,30.84494146875,31.1523186375,67.0,90.0
22,31.41680596875,31.5907480875,69.0,95.0
23,31.70273821875,32.2674544125,69.0,102.0
24,32.56053496875,32.83693614375,60.0,93.0
25,32.84646721875,33.1347822375,62.0,78.0
26,33.13239946875,33.38497295625,65.0,85.0
27,33.41833171875,33.64231198125,67.0,77.0
28,33.70426396875,33.86629224375,65.0,92.0
29,33.99019621875,34.2403869375,67.0,89.0
30,34.27612846875,34.531084725,65.0,89.0
31,34.84799296875,35.18634613125,72.0,102.0
32,35.41985746875,35.66528265,69.0,96.0
33,35.70578971875,35.9750425875,67.0,73.0
34,35.99172196875,36.27288868125,69.0,79.0
35,36.27765421875,36.46351018125,67.0,85.0
36,36.56358646875,36.80186334375,65.0,92.0
37,37.13545096875,37.50716289375,69.0,102.0
38,37.70731546875,37.94082680625,69.0,112.0
39,37.99324771875,38.25773505,67.0,93.0
40,38.27917996875,38.591322675,65.0,81.0
41,38.56511221875,39.00830720625,67.0,92.0
42,39.13697671875,39.4205262,67.0,99.0
43,39.42290896875,39.58493724375,67.0,97.0
44,39.70884121875,40.08055314375,67.0,102.0
45,40.1830122,40.478475525,65.0,96.0
46,40.5499585875,40.8072976125,62.0,82.0
47,40.88592898125,41.3219756625,67.0,85.0
48,41.71036696875,41.89622293125,60.0,89.0
49,41.996299218749996,42.14879641875,62.0,97.0
50,42.28223146875,42.42519759375,65.0,96.0
51,42.56816371875,42.67300554375,67.0,99.0
52,42.85409596875,43.0375691625,65.0,99.0
53,43.14002821875,43.2853771125,67.0,100.0
54,43.42596046875,43.66900288125,69.0,122.0
55,43.98829389375,44.36000581875,72.0,112.0
56,44.5673067,44.7579282,69.0,96.0
57,44.83179403125,44.958080775,67.0,92.0
58,45.120109049999996,45.2487785625,65.0,95.0
59,45.40842406875,45.606193875,67.0,100.0
60,45.7348633875,45.90880550625,69.0,99.0
61,46.28528296875,46.67605704375,74.0,100.0
62,46.84285085625,46.9643720625,69.0,107.0
63,47.116869262499996,47.26698369375,67.0,100.0
64,47.38612213125,47.51002610625,65.0,83.0
65,47.69111653125,47.8984174125,67.0,97.0
66,48.036618,48.34399516875,65.0,100.0
67,48.51555451875,48.6799655625,62.0,93.0
68,48.81101784375,49.04691195,65.0,86.0
69,49.228002375,49.49248970625,67.0,93.0
70,49.6902595125,49.86896716875,69.0,107.0
71,49.97380899375,50.5146975,72.0,90.0
72,50.8053952875,50.95550971875,60.0,93.0
73,51.0817964625,51.22714535625,62.0,99.0
74,51.3772597875,51.48686715,65.0,99.0
75,51.667957575,51.78947878125,67.0,95.0
76,51.934827675,52.03252119375,65.0,88.0
77,52.2064633125,52.3303672875,67.0,112.0
78,52.51860601875,52.72352413125,65.0,117.0
79,53.11906374375,53.45741690625,74.0,112.0
80,53.6790144,53.7790906875,72.0,102.0
81,53.98639156875,54.0936161625,69.0,95.0
82,54.27708935625,54.38193118125,67.0,93.0
83,54.55825606875,54.68930835,67.0,100.0
84,54.87278154375,55.0181304375,65.0,99.0
85,55.423201125,55.804444124999996,69.0,107.0
86,55.95455855625,56.06893145625,69.0,100.0
87,56.242873575,56.3477154,67.0,97.0
88,56.51689198125,56.64079595625,65.0,92.0
89,56.81712084375,56.9434075875,67.0,112.0
90,57.1626223125,57.2865262875,67.0,97.0
91,57.672534825,57.767845575,67.0,96.0
92,57.9870603,58.1443230375,67.0,107.0
93,58.36115499375,58.625642325,65.0,102.0
94,58.8210293625,59.0783683875,62.0,93.0
95,59.1260237625,59.90995468125,65.0,107.0
96,59.959992825,60.1982697,65.0,96.0
97,60.2602216875,60.5270917875,77.0,122.0
98,60.54853670625,60.70103390625,76.0,90.0
99,60.82970341875,61.07751136875,76.0,99.0
100,61.103721825,61.3753574625,74.0,79.0
101,61.3944196125,61.76851430625,76.0,100.0
102,61.770897075,62.12354685,74.0,102.0
103,62.247450825,62.533383075,72.0,102.0
104,62.54529691875,62.85982239375,74.0,93.0
105,62.8288464,63.09809926875,72.0,97.0
106,63.10763034375,63.410241975,69.0,85.0
107,63.40785920625,63.619925625,67.0,85.0
108,63.69379145625,64.02976185,69.0,100.0
109,64.04644123125,64.268038725,72.0,117.0
110,64.27518703125,64.5206122125,74.0,107.0
111,64.5396743625,64.84705153125,72.0,95.0
112,65.13536655,65.36411235,72.0,97.0
113,65.39032280625,65.52375785625,74.0,97.0
114,65.65242736875,65.79062795625,72.0,99.0
115,65.94789069375,66.18616756875,74.0,127.0
116,66.39108568125,66.5793244125,74.0,107.0
117,66.78185975625,66.91529480625,74.0,122.0
118,67.08685415625,67.2941550375,74.0,127.0
119,67.53958021875,67.7802398625,72.0,127.0
120,68.00660289375,68.14956901875,74.0,117.0
121,68.3139800625,68.46409449375,72.0,127.0
122,68.6285055375,69.13841805,69.0,112.0
123,69.71028255,69.89375574375,65.0,95.0
124,69.98430095625,70.1439464625,67.0,99.0
125,70.26070213125,70.39890271875,69.0,93.0
126,70.54663438125,70.69436604375,72.0,112.0
127,70.8206527875,70.95647060625,69.0,99.0
128,71.1065850375,71.22334070625,67.0,96.0
129,71.38775175,71.5974354,65.0,107.0
130,71.99535778125,72.0978168375,65.0,95.0
131,72.2455485,72.35753863125,67.0,99.0
132,72.51003583125,72.598198275,69.0,100.0
133,72.80073361875,72.90080990625,74.0,117.0
134,73.074752025,73.19627323125,69.0,102.0
135,73.37736365625,73.4798227125,67.0,100.0
136,73.6609131375,73.83485525625,65.0,112.0
137,74.294729625,74.4043369875,65.0,97.0
138,74.55921695625,74.6807381625,65.0,102.0
139,74.82132151875,75.01670855625,65.0,99.0
140,75.08580885,75.2621337375,77.0,117.0
141,75.46705185,75.7196253375,77.0,127.0
142,75.915012375,76.05559573125,77.0,127.0
143,76.23192061875,76.42730765625,77.0,127.0
144,76.64175684375,76.9729617,74.0,127.0
145,77.11831059375,77.287487175,77.0,127.0
146,77.41139115,77.6830267875,74.0,112.0
147,77.67587848125,78.0166144125,72.0,99.0
148,78.21438421875,78.36449865,72.0,122.0
149,78.83390409375,78.9887840625,65.0,100.0
150,79.098391425,79.3319027625,77.0,102.0
151,79.37240983125,79.708380225,76.0,107.0
152,79.670255925,79.9514226375,77.0,127.0
153,79.9323604875,80.203996125,76.0,117.0
154,80.20637889375,80.489928375,74.0,96.0
155,80.48754560625,80.82589876875,72.0,92.0
156,80.80683661875,81.10706548125,74.0,127.0
157,81.15472085625,81.366787275,72.0,112.0
158,81.4096771125,81.652719525,69.0,96.0
159,81.7003749,81.8576376375,67.0,92.0
160,81.976776075,82.20313910625,69.0,95.0
161,82.24126340625,82.3866123,72.0,90.0
162,82.56531995625,82.73687930625,74.0,117.0
163,82.8441039,83.0966773875,72.0,112.0
164,83.4207339375,83.58037944375,72.0,107.0
165,83.6780729625,83.806742475,74.0,112.0
166,83.9497086,84.0688470375,72.0,102.0
167,84.22372700625,84.46200388125,74.0,127.0
168,84.6121183125,84.81941919375,74.0,107.0
169,85.0982031375,85.22925541875,74.0,112.0
170,85.3841353875,85.5890535,74.0,127.0
171,85.770143925,86.05845894375,72.0,112.0
172,86.2228699875,86.3944293375,74.0,107.0
173,86.53977823125,86.8090311,72.0,112.0
174,86.8900452375,87.57389986875,69.0,102.0
175,88.04092254375,88.2958788,65.0,89.0
176,88.30779264375,88.4865003,67.0,92.0
177,88.5865765875,88.73430825,69.0,88.0
178,88.84868115,89.0059438875,72.0,107.0
179,89.1298478625,89.26804845,69.0,102.0
180,89.42769395625,89.5539807,67.0,93.0
181,89.70409513125,89.94713754375,65.0,99.0
182,90.30455285625,90.497557125,65.0,78.0
183,90.55236080625,90.69532693125,67.0,93.0
184,90.8120826,90.9216899625,69.0,102.0
185,91.1123114625,91.25766035625,74.0,127.0
186,91.39586094375,91.5316787625,69.0,102.0
187,91.6841759625,91.79378332499999,67.0,117.0
188,91.97487375,92.16549525,65.0,112.0
189,92.27986815,94.47218113125,77.0,127.0
190,95.65200504375,95.86253124375,77.0,112.0
191,95.9051909375,96.01603994791665,74.0,85.0
192,96.17877572916666,96.32736057291666,77.0,107.0
193,96.46415296874999,96.57971895833332,74.0,95.0
194,96.75188869791666,97.30613374999999,72.0,95.0
195,97.47122802083332,97.59151098958333,72.0,96.0
196,97.74717130208332,97.95235989583333,74.0,112.0
197,98.0561334375,98.18113338541666,72.0,97.0
198,98.35802010416666,98.49009552083332,69.0,95.0
199,98.65283130208333,98.80141614583333,67.0,92.0
200,98.94528401041666,99.20471786458333,69.0,107.0
201,99.35094421874999,99.6976421875,67.0,96.0
202,99.94528359374999,100.19528348958332,65.0,102.0
203,100.23066083333332,100.51367958333333,62.0,89.0
204,100.59858520833332,100.82735869791665,65.0,97.0
205,100.88632093749999,101.29198114583332,67.0,82.0
206,101.34622640624998,103.12370745,65.0,95.0
207,104.19937643333333,104.47581870416667,60.0,100.0
208,104.46860716666666,104.72341482499999,62.0,96.0
209,104.77629943333334,105.13928015416667,65.0,95.0
210,105.161954275,105.43053541875,67.0,89.0
211,105.45418407291666,105.71263007916666,65.0,99.0
212,105.72445440625,106.16916163958334,67.0,93.0
213,105.92715715625,106.28582829166666,69.0,97.0
214,106.48820921875,106.95487582708333,69.0,100.0
215,107.05963771875,107.295351975,69.0,93.0
216,107.34535196875,107.58344717708333,67.0,88.0
217,107.63106621875,107.93582808541666,65.0,88.0
218,107.91678046875,108.21439947916667,67.0,95.0
219,108.20249471875,108.5953518125,69.0,99.0
220,108.77392321875,109.13582793541667,69.0,93.0
221,109.34535171875,109.44297075416667,69.0,96.0
222,109.63106596875,109.76201833333333,67.0,93.0
223,109.91678021875,110.0524944875,65.0,74.0
224,110.20249446875,110.37392301874999,67.0,99.0
225,110.77392296875,111.03106579375,65.0,93.0
226,111.05963721875,111.29297052291666,62.0,78.0
227,111.34535146875,111.61678000625,65.0,83.0
228,111.63106571875,111.9382085375,67.0,90.0
229,112.20249421875,112.37630372083333,69.0,95.0
230,112.48820846875,113.0524941125,69.0,102.0
231,113.34535121875,113.62154166041667,60.0,93.0
232,113.63106546875,113.91916067083334,62.0,78.0
233,113.91677971874999,114.16916063958334,65.0,85.0
234,114.20249396874999,114.42630346458333,67.0,77.0
235,114.48820821875,114.65011296041666,65.0,92.0
236,114.77392246875,115.0239224375,67.0,89.0
237,115.05963671875,115.31439859166666,65.0,89.0
238,115.63106521875,115.96916041458333,72.0,102.0
239,116.20249371874999,116.44773178333332,69.0,96.0
240,116.48820796875,116.75725555416666,67.0,73.0
241,116.77392221875,117.05487456458333,69.0,79.0
242,117.05963646875,117.24535073125,67.0,85.0
243,117.34535071875,117.58344592708333,65.0,92.0
244,117.91677921875,118.28820774375,69.0,102.0
245,118.48820771875,118.72154102291667,69.0,112.0
246,118.77392196875,119.03820765,67.0,93.0
247,119.05963621875,119.37154094166667,65.0,81.0
248,119.34535046875,119.78820755625,67.0,92.0
249,119.91677896875,120.20011226666666,67.0,99.0
250,120.20249321874999,120.36439796041667,67.0,97.0
251,120.48820746875,120.85963599375,67.0,102.0
252,120.96201693333333,121.25725499166667,65.0,96.0
253,121.32868355416666,121.58582637916666,62.0,82.0
254,121.66439779791666,122.10011202916667,67.0,85.0
255,122.48820721875,122.67392148125,60.0,89.0
256,122.77392146875,122.92630240208334,62.0,97.0
257,123.05963571875,123.20249284375,65.0,96.0
258,123.34534996875,123.45011186041667,67.0,99.0
259,123.63106421875,123.81439752916667,65.0,99.0
260,123.91677846875,124.06201654583333,67.0,100.0
261,124.20249271875,124.44534983125,69.0,122.0
262,124.76439741041666,125.13582593541666,72.0,112.0
263,125.34296876666667,125.53344493333333,69.0,96.0
264,125.60725444791666,125.73344490833333,67.0,92.0
265,125.89534965,126.0239210625,65.0,95.0
266,126.18344485208334,126.381063875,67.0,100.0
267,126.5096352875,126.68344478958333,69.0,99.0
268,127.05963521875,127.45011136041666,74.0,100.0
269,127.61677800625,127.7382065625,69.0,107.0
270,127.89058749583333,128.04058747708333,67.0,100.0
271,128.15963508125,128.28344458958333,65.0,83.0
272,128.46439694791667,128.67153977916666,67.0,97.0
273,128.80963500000001,129.11677781875,65.0,100.0
274,129.28820636875,129.4524920625,62.0,93.0
275,129.58344442708332,129.81915868333334,65.0,86.0
276,130.00011104166666,130.26439672291667,67.0,93.0
277,130.46201574583333,130.64058715208333,69.0,107.0
278,130.74534904375,131.28582516666665,72.0,90.0
279,131.57630132083332,131.72630130208333,60.0,93.0
280,131.8524917625,131.99772983958334,62.0,99.0
281,132.14772982083332,132.25725361666667,65.0,99.0
282,132.438205975,132.55963453125,67.0,95.0
283,132.70487260833335,132.80249164375,65.0,88.0
284,132.97630114583333,133.10011065416666,67.0,112.0
285,133.28820586875,133.49296774791668,65.0,117.0
286,133.88820579375,134.22630098958334,74.0,112.0
287,134.44772953333333,134.54772952083334,72.0,102.0
288,134.75487235208334,134.86201519583332,69.0,95.0
289,135.04534850625,135.15011039791668,67.0,93.0
290,135.32630085208334,135.45725321666666,67.0,100.0
291,135.64058652708334,135.78582460416666,65.0,99.0
292,136.19058645833334,136.57153879166665,69.0,107.0
293,136.72153877291666,136.83582447291667,69.0,100.0
294,137.00963397499999,137.11439586666665,67.0,97.0
295,137.28344346458334,137.40725297291667,65.0,92.0
296,137.58344342708332,137.7096338875,67.0,112.0
297,137.92868147916667,138.0524909875,67.0,97.0
298,138.438205225,138.53344330833335,67.0,96.0
299,138.7524909,138.9096337375,67.0,107.0
300,139.12630037708334,139.39058605833333,65.0,102.0
301,139.58582412916667,139.84296695416666,62.0,93.0
302,139.89058599583333,140.67391923125,65.0,107.0
303,140.723919225,140.96201443333334,65.0,96.0
304,141.05963346875,141.32868105416668,77.0,122.0
305,141.34534771875,141.49772865208334,76.0,90.0
306,141.63106196875,141.87868098541668,76.0,99.0
307,141.866776225,142.13820476249998,74.0,79.0
308,142.15725237916666,142.53106185625,76.0,100.0
309,142.53344280833335,142.88582371666666,74.0,102.0
310,143.009633225,143.295347475,72.0,102.0
311,143.30725223541666,143.62153791041666,74.0,93.0
312,143.59058553333332,143.85963311875,72.0,97.0
313,143.86915692708334,144.17153784166666,69.0,85.0
314,144.16915688958335,144.381061625,67.0,85.0
315,144.45487113958333,144.79058538333334,69.0,100.0
316,144.80725204791668,145.02868059166667,72.0,117.0
317,145.03582344791667,145.2810615125,74.0,107.0
318,145.30010912916666,145.60725194791667,72.0,95.0
319,145.89534715,146.12391854999998,72.0,97.0
320,146.15010902291667,146.28344233958333,74.0,97.0
321,146.41201375208334,146.55010897291666,72.0,99.0
322,146.70725181041666,146.94534701875,74.0,127.0
323,147.15010889791665,147.3382041125,74.0,107.0
324,147.54058503958333,147.67391835625,74.0,122.0
325,147.84534690625,148.0524897375,74.0,127.0
326,148.29772780208333,148.5382039625,72.0,127.0
327,148.76439441041666,148.90725153541666,74.0,117.0
328,149.07153722916667,149.22153721041667,72.0,127.0
329,149.38582290416667,149.89534665,69.0,112.0
330,150.46677515,150.65010846041667,65.0,95.0
331,150.74058463958335,150.90010842916666,67.0,99.0
332,151.01677508125,151.15487030208334,69.0,93.0
333,151.30248933125,151.45010836041666,72.0,112.0
334,151.57629882083333,151.71201308958334,69.0,99.0
335,151.8620130708333,151.97867972291667,67.0,96.0
336,152.14296541666667,152.3524892,65.0,107.0
337,152.75010819791666,152.85248913750002,65.0,95.0
338,153.00010816666668,153.11201291458332,67.0,99.0
339,153.26439384791666,153.352489075,69.0,100.0
340,153.55487000208333,153.65486998958335,74.0,117.0
341,153.82867949166666,153.95010804791667,69.0,102.0
342,154.13106040625001,154.23344134583334,67.0,100.0
343,154.41439370416666,154.58820320625,65.0,112.0
344,155.04772695833333,155.15725075416665,65.0,97.0
345,155.31201263958332,155.43344119583332,65.0,102.0
346,155.57391736875,155.76915543958333,65.0,99.0
347,155.83820305,156.01439350416666,77.0,117.0
348,156.21915538333332,156.47153630416665,77.0,127.0
349,156.666774375,156.80725054791668,77.0,127.0
350,156.98344100208334,157.17867907291668,77.0,127.0
351,157.39296476041667,157.7239171,74.0,127.0
352,157.86915517708331,158.038202775,77.0,127.0
353,158.16201228333333,158.43344082083334,74.0,112.0
354,158.42629796458334,158.7667741125,72.0,99.0
355,158.96439313541666,159.11439311666666,72.0,122.0
356,159.58344067708333,159.7382025625,65.0,100.0
357,159.84772635833332,160.0810596625,77.0,102.0
358,160.12153584791668,160.45725009166665,76.0,107.0
359,160.41915485833334,160.70010720416667,77.0,127.0
360,160.6810595875,160.952488125,76.0,117.0
361,160.95486907708334,161.23820237500001,74.0,96.0
362,161.23582142291667,161.57391661875,72.0,92.0
363,161.55486900208334,161.85486896458332,74.0,127.0
364,161.90248800625,162.11439274166668,72.0,112.0
365,162.15724987916667,162.40010699166666,69.0,96.0
366,162.44772603333334,162.60486887083334,67.0,92.0
367,162.723916475,162.95010692291666,69.0,95.0
368,162.98820215625,163.13344023333332,72.0,90.0
369,163.31201163958332,163.48344018958335,74.0,117.0
370,163.59058303333333,163.84296395416666,72.0,112.0
371,164.1667734375,164.32629722708333,72.0,107.0
372,164.4239162625,164.552487675,74.0,112.0
373,164.6953448,164.81439240416665,72.0,102.0
374,164.96915428958334,165.20724949791668,74.0,127.0
375,165.35724947916665,165.56439231041668,74.0,107.0
376,165.84296370416666,165.97391606875,74.0,112.0
377,166.12867795416668,166.33343983333333,74.0,127.0
378,166.51439219166667,166.80248739375,72.0,112.0
379,166.9667730875,167.1382016375,74.0,107.0
380,167.28343971458332,167.5524873,72.0,112.0
381,167.63343967083333,168.31677291875,69.0,102.0
382,168.78343952708332,169.0382014,65.0,89.0
383,169.05010616041665,169.22867756666665,67.0,92.0
384,169.32867755416666,169.47629658333332,69.0,88.0
385,169.59058228333333,169.74772512083334,72.0,107.0
386,169.87153462916666,170.00962985,69.0,102.0
387,170.16915363958333,170.2953441,67.0,93.0
388,170.44534408125,170.68820119375,65.0,99.0
389,171.04534400625,171.238201125,65.0,78.0
390,171.29296302291667,171.43582014791667,67.0,93.0
391,171.5524868,171.66201059583335,69.0,102.0
392,171.8524867625,171.99772483958333,74.0,127.0
393,172.13582006041668,172.27153432916668,69.0,102.0
394,172.4239152625,172.53343905833333,67.0,117.0
395,172.71439141666667,172.90486758333333,65.0,112.0
396,173.0191532833333,175.01297749999998,77.0,127.0
397,175.8536025,176.0036025,77.0,112.0
398,176.03833807499998,176.15131882916666,74.0,85.0
399,176.31718419166666,176.46862647916666,77.0,107.0
400,176.6080495375,176.72583798333332,74.0,95.0
401,176.90131872916666,177.4662225,72.0,95.0
402,177.65853016666665,177.78353015,72.0,96.0
403,177.93978012916665,178.1513185625,74.0,112.0
404,178.25468393333333,178.38449160833332,72.0,97.0
405,178.5623762,178.6993954125,69.0,95.0
406,178.86285692916667,179.01429921666664,67.0,92.0
407,179.1609338125,179.4277607,69.0,107.0
408,179.5743952958333,179.92776063333332,67.0,96.0
409,180.278722125,180.53352978333334,65.0,102.0
410,180.5695874708333,180.91673809374998,62.0,89.0
411,181.02649421875,181.322226,65.0,97.0
412,181.39844553125,181.92283590625,67.0,82.0
413,181.992957875,183.7685791625,65.0,95.0
414,184.90079054999998,185.14117513333332,65.0,96.0
415,185.2397328125,185.51136739166665,77.0,122.0
416,185.5281943125,185.68675199999998,76.0,90.0
417,185.82675199999997,186.086752,76.0,99.0
418,186.07425199999997,186.35925199999997,74.0,79.0
419,186.37925199999998,186.771752,76.0,100.0
420,186.774252,187.144252,74.0,102.0
421,187.274252,187.57425199999997,72.0,102.0
422,187.586752,187.91675199999997,74.0,93.0
423,187.88425199999998,188.16123640625,72.0,97.0
424,188.17096403124998,188.47981612499999,69.0,85.0
425,188.47738421875,188.693823875,67.0,85.0
426,188.76921296875,189.11211175,69.0,100.0
427,189.12913509375,189.35530237499998,72.0,117.0
428,189.36259809375,189.6130844375,74.0,107.0
429,189.63253968749999,189.94625559374998,72.0,95.0
430,190.24051624999998,190.47397924999999,72.0,97.0
431,190.50073021875,190.63691696875,74.0,97.0
432,190.76823990625,190.90929046875,72.0,99.0
433,191.06979628124998,191.31298690625,74.0,127.0
434,191.52213084374998,191.7142514375,74.0,107.0
435,191.92096346875,192.05715021875,74.0,122.0
436,192.23224746875,192.4438233125,74.0,127.0
437,192.69478653125,192.9423356375,72.0,127.0
438,193.17517885625,193.32223773125,74.0,117.0
439,193.4913554375,193.64576725625,72.0,127.0
440,193.8148849625,194.33939494999998,69.0,112.0
441,194.92763045,195.11635600625,65.0,95.0
442,195.20949329375,195.3737090375,67.0,99.0
443,195.49380711875,195.63596403124998,69.0,93.0
444,195.78792486875,195.93988570625,72.0,112.0
445,196.0697877125,196.20949364375,69.0,99.0
446,196.36390546249999,196.48400354375,67.0,96.0
447,196.65312125,196.8688076,65.0,107.0
448,197.27812146875,197.3835136625,65.0,95.0
449,197.5354745,197.65067061874998,67.0,99.0
450,197.80753341874998,197.898219725,69.0,100.0
451,198.10655313125,198.20949434375,74.0,117.0
452,198.388415975,198.51341601875,69.0,102.0
453,198.69969059375,198.8050827875,67.0,100.0
454,198.9913573625,199.17027899375,65.0,112.0
455,199.643318375,199.7560635125,65.0,97.0
456,199.91537729375,200.0403773375,65.0,102.0
457,200.18498523124998,200.38596569375,65.0,99.0
458,200.45704415,200.6384167625,77.0,117.0
459,200.84920115,201.10900516249998,77.0,127.0
460,201.309985625,201.45459351875,77.0,127.0
461,201.63596613125,201.83694659374999,77.0,127.0
462,202.05753490625,202.3982213,74.0,127.0
463,202.54773115625,202.721750825,77.0,127.0
464,202.84920185,203.1286137125,74.0,112.0
465,203.12126076875,203.4717510875,72.0,99.0
466,203.67518253125,203.82959435,72.0,122.0
467,204.31243765624998,204.4717514375,65.0,100.0
468,204.584496575,204.8246927375,77.0,102.0
469,204.86635941875,205.211947775,76.0,107.0
470,205.172732075,205.46194786249998,77.0,127.0
471,205.44234001249998,205.721751875,76.0,117.0
472,205.72420285625,206.015869625,74.0,96.0
473,206.01341864375,206.36145798125,72.0,92.0
474,206.34185013125,206.65067376874998,74.0,127.0
475,206.69969339375,206.917830725,72.0,112.0
476,206.9619483875,207.21194847499999,69.0,96.0
477,207.26096809999999,207.4227328625,67.0,92.0
478,207.54528192499998,207.77812514375,69.0,95.0
479,207.81734084375,207.9668507,72.0,90.0
480,208.15067429375,208.32714494375,74.0,117.0
481,208.4374391,208.6972431125,72.0,112.0
482,209.0305765625,209.19479230625,72.0,107.0
483,209.2952825375,209.427635525,74.0,112.0
484,209.5746944,209.69724346249998,72.0,102.0
485,209.85655724375,210.10165536875,74.0,127.0
486,210.25606718749998,210.46930255625,74.0,107.0
487,210.7560673625,210.89087133125,74.0,112.0
488,211.0501851125,211.2609695,74.0,127.0
489,211.447244075,211.74381280625,72.0,112.0
490,211.9129305125,212.0894011625,74.0,107.0
491,212.23891101875,212.5158719,72.0,112.0
492,212.5992052625,213.30263688125,69.0,102.0
493,213.78302920625,214.0452842,65.0,89.0
494,214.05753910625,214.2413627,67.0,92.0
495,214.34430391249998,214.49626475,69.0,88.0
496,214.61391185,214.7756766125,72.0,107.0
497,214.9031276375,215.04528455,69.0,102.0
498,215.20950029375,215.3394023,67.0,93.0
499,215.49381411874998,215.74381420625,65.0,99.0
500,216.11146139375,216.30999087499998,65.0,78.0
501,216.36636344375,216.51342231875,67.0,93.0
502,216.6335204,216.7462655375,69.0,102.0
503,216.9423440375,217.09185389375,74.0,127.0
504,217.23401080624998,217.3737167375,69.0,102.0
505,217.5305795375,217.643324675,67.0,117.0
506,217.82959925,218.02567775,65.0,112.0
507,218.14332485,220.45950213125,77.0,127.0
508,222.9253891875,223.1702871875,77.0,112.0
509,223.2315116875,223.3539606875,74.0,85.0
510,223.5376341875,223.6983485,77.0,107.0
511,223.8437566875,223.96875670833333,74.0,95.0
512,224.1498791875,224.74936908333333,72.0,95.0
513,225.0682466875,225.20089977083333,72.0,96.0
514,225.3743691875,225.59885902083334,74.0,112.0
515,225.6804916875,225.8182468125,72.0,97.0
516,225.9866141875,226.132022375,69.0,95.0
517,226.2927366875,226.453451,67.0,92.0
518,226.81059391666668,227.3488593125,69.0,100.0
519,227.74171652083334,228.18814516666666,67.0,95.0
520,228.32079825,228.66773708333332,65.0,88.0
521,228.79783914583334,229.101410625,62.0,89.0
522,229.2468188125,229.82590054166667,65.0,88.0
523,229.958553625,230.51977820833332,67.0,89.0
524,230.49171697916665,233.2723296875,65.0,76.0
525,233.43814604166667,233.82079916666666,65.0,93.0
526,233.82079916666666,234.14222779166667,62.0,89.0
527,234.14732983333334,234.41518702083334,65.0,96.0
528,234.48661560416667,234.85141158333334,74.0,102.0
529,234.83865647916667,235.22896266666666,72.0,107.0
530,235.37437085416667,235.66773825,72.0,107.0
531,235.7213096875,235.98661585416667,74.0,107.0
532,236.06824852083332,236.32079958333333,72.0,117.0
533,236.37182,236.69835066666667,69.0,97.0
534,236.69069760416667,237.10396297916668,72.0,95.0
535,237.0835548125,237.58355489583334,81.0,107.0
536,237.73661614583332,238.14477947916666,79.0,112.0
537,238.24171827083333,238.652432625,77.0,100.0
538,238.67284079166666,239.04784085416668,74.0,96.0
539,239.18814700000001,239.79784097916666,77.0,102.0
540,240.1294736875,240.67794316666667,79.0,112.0
541,240.67029010416667,243.5733518125,77.0,107.0
