,start,end,pitch,velocity
0,4.82510671875,5.53517180625,50.0,57.0
1,4.53917446875,5.98313233125,45.0,42.0
2,4.25324221875,6.014108325,38.0,65.0
3,5.11103896875,6.06414646875,57.0,53.0
4,5.68290346875,6.09273969375,50.0,60.0
5,6.25476796875,6.5335519125,57.0,66.0
6,5.96883571875,6.54546575625,62.0,75.0
7,5.39697121875,6.5955039,65.0,90.0
8,7.11256471875,7.74638120625,57.0,69.0
9,6.54070021875,8.21578665,45.0,66.0
10,7.39849696875,8.24676264375,60.0,69.0
11,7.97036146875,8.2968007875,57.0,63.0
12,6.82663246875,8.606560725,52.0,55.0
13,7.68442921875,8.66136440625,69.0,93.0
14,8.25629371875,8.7256991625,64.0,68.0
15,8.54222596875,8.79003391875,60.0,72.0
16,9.11409046875,9.36666395625,53.0,72.0
17,8.82815821875,9.91946630625,46.0,72.0
18,9.40002271875,10.06243243125,62.0,86.0
19,9.68595496875,10.17203979375,58.0,53.0
20,9.97188721875,10.608086475,48.0,61.0
21,10.82968396875,11.1751854375,60.0,66.0
22,10.54375171875,11.21092696875,64.0,85.0
23,10.25781946875,11.2419029625,55.0,67.0
24,11.68748071875,12.39278026875,53.0,89.0
25,12.54527746875,12.79070265,53.0,78.0
26,11.97341296875,12.8860134,57.0,76.0
27,11.11561621875,12.962261999999999,41.0,64.0
28,11.40154846875,12.971793075,48.0,58.0
29,12.83120971875,13.42690190625,60.0,93.0
30,12.25934521875,13.47932281875,65.0,95.0
31,13.11714196875,13.51506435,57.0,76.0
32,13.97493871875,14.6635588875,50.0,85.0
33,13.40307421875,15.05671573125,38.0,73.0
34,13.68900646875,15.1019883375,45.0,61.0
35,14.26087096875,15.20921293125,57.0,78.0
36,14.83273546875,15.23780615625,50.0,77.0
37,15.11866771875,15.640494075,62.0,88.0
38,14.54680321875,15.65002515,65.0,95.0
39,15.40459996875,15.781077431249999,57.0,75.0
40,15.69053221875,16.33387978125,45.0,69.0
41,15.97646446875,16.34817639375,52.0,76.0
42,16.54832896875,16.860471675,60.0,60.0
43,16.26239671875,17.1416383875,57.0,68.0
44,17.12019346875,17.46331216875,60.0,73.0
45,17.69205796875,17.8945933125,60.0,45.0
46,16.83426121875,17.93033484375,64.0,97.0
47,17.40612571875,18.02088005625,57.0,75.0
48,18.26392246875,18.58797901875,55.0,27.0
49,17.97799021875,19.0669155375,46.0,92.0
50,18.54985471875,19.13125029375,62.0,81.0
51,18.83578696875,19.186053975,58.0,78.0
52,19.40765146875,20.21302730625,55.0,55.0
53,19.69358371875,20.22732391875,64.0,81.0
54,19.97951596875,20.23208945625,60.0,64.0
55,19.12171921875,20.234472225,48.0,63.0
56,20.83731271875,21.511636275,53.0,68.0
57,21.12324496875,22.083500775,57.0,63.0
58,20.26544821875,22.36228471875,41.0,59.0
59,21.69510946875,22.4504471625,53.0,67.0
60,20.55138046875,22.47665761875,48.0,49.0
61,21.98104171875,23.78718043125,60.0,51.0
62,22.26697396875,23.81100811875,57.0,63.0
63,22.55290621875,23.83483580625,53.0,54.0
64,21.40917721875,23.837218575,65.0,88.0
65,22.55290621875,23.894405025,41.0,58.0
66,25.98409321875,26.40346051875,53.0,55.0
67,24.84036421875,26.47494358125,41.0,65.0
68,25.41222871875,26.4820918875,48.0,54.0
69,25.98409321875,27.19930528125,60.0,63.0
70,26.55595771875,27.2636400375,57.0,46.0
71,27.12782221875,28.50506255625,40.0,66.0
72,27.69968671875,28.51935916875,48.0,40.0
73,28.271551218749998,29.441490675,55.0,61.0
74,28.84341571875,29.44387344375,52.0,44.0
75,28.271551218749998,29.460552825,60.0,59.0
76,29.41528021875,31.08321834375,38.0,60.0
77,29.98714471875,31.157084175,45.0,39.0
78,30.55900921875,31.252394925,50.0,53.0
79,31.13087371875,31.6860588375,57.0,63.0
80,31.41680596875,31.709886524999998,53.0,41.0
81,30.55900921875,31.748010825,62.0,70.0
82,32.27460271875,32.69158725,57.0,81.0
83,31.98867046875,32.96560565625,52.0,60.0
84,31.70273821875,33.32302096875,45.0,64.0
85,33.13239946875,33.39926956875,52.0,55.0
86,32.56053496875,33.5112597,64.0,96.0
87,33.41833171875,33.95207191875,57.0,69.0
88,32.84646721875,33.9830479125,60.0,90.0
89,33.70426396875,34.00449283125,64.0,69.0
90,34.84799296875,35.1458390625,62.0,52.0
91,34.56206071875,35.24829811875,58.0,74.0
92,35.41985746875,35.61524450625,58.0,53.0
93,34.27612846875,35.64860326875,53.0,38.0
94,33.99019621875,35.72485186875,46.0,43.0
95,35.13392521875,35.82969369375,65.0,89.0
96,35.70578971875,36.31577851875,62.0,58.0
97,36.27765421875,37.947975112499996,41.0,60.0
98,36.84951871875,37.981333875,48.0,41.0
99,37.42138321875,38.1624243,53.0,41.0
100,37.99324771875,38.57940883125,60.0,48.0
101,38.27917996875,38.5960882125,57.0,54.0
102,37.42138321875,38.7342888,65.0,76.0
103,39.70884121875,39.80415196875,62.0,54.0
104,39.70884121875,40.50706875,65.0,66.0
105,38.56511221875,40.70960409375,46.0,66.0
106,39.70884121875,40.75249393125,58.0,45.0
107,39.13697671875,40.802532075,53.0,39.0
108,40.28070571875,40.85257021875,62.0,40.0
109,41.42443471875,42.11543765625,48.0,67.0
110,40.85257021875,42.51097726875,36.0,65.0
111,41.13850246875,42.54910156875,43.0,49.0
112,41.71036696875,42.5991397125,55.0,82.0
113,42.28223146875,42.6610917,48.0,53.0
114,41.996299218749996,43.1567076,64.0,89.0
115,42.56816371875,43.18291805625,60.0,71.0
116,44.28375721875,44.60304823125,53.0,66.0
117,43.71189271875,44.74601435625,48.0,51.0
118,43.14002821875,44.7579282,41.0,72.0
119,44.28375721875,45.38459638125,65.0,92.0
120,45.14155396875,45.4870554375,57.0,74.0
121,44.85562171875,45.64193540625,60.0,63.0
122,45.99935071875,46.6975019625,55.0,54.0
123,45.42748621875,47.21932831875,40.0,65.0
124,47.14307971875,47.69588206875,60.0,59.0
125,47.42901196875,47.73400636875,55.0,42.0
126,46.57121521875,47.74830298125,64.0,86.0
127,48.85867321875,49.180347,50.0,41.0
128,47.71494421875,49.34952358125,38.0,67.0
129,48.28680871875,49.39717895625,45.0,40.0
130,49.43053771875,50.066736975,62.0,63.0
131,48.85867321875,50.092947431249996,65.0,92.0
132,49.71646996875,50.13583726875,57.0,67.0
133,51.14613121875,51.21761428125,57.0,34.0
134,50.57426671875,51.29862841875,52.0,63.0
135,50.00240221875,51.72752679375,45.0,71.0
136,51.43206346875,51.7489717125,52.0,62.0
137,52.00392796875,52.30892236875,57.0,56.0
138,51.71799571875,52.34704666875,60.0,63.0
139,51.14613121875,52.40185035,64.0,93.0
140,53.43358921875,53.841042675,58.0,55.0
141,52.86172471875,53.8839325125,53.0,47.0
142,52.28986021875,53.9220568125,46.0,82.0
143,54.00545371875,54.6464185125,62.0,73.0
144,53.43358921875,54.68692558125,65.0,88.0
145,55.72104721875,56.300060025,53.0,47.0
146,55.14918271875,56.414432925,48.0,50.0
147,54.57731821875,56.488298756249996,41.0,66.0
148,56.29291171875,56.8290346875,57.0,82.0
149,55.72104721875,56.8480968375,60.0,72.0
150,55.72104721875,56.86477621875,65.0,78.0
151,56.86477621875,57.977529225,47.0,76.0
152,57.43664071875,58.04186398125,59.0,73.0
153,58.00850521875,58.70903923125,48.0,72.0
154,58.00850521875,59.1832102125,60.0,53.0
155,58.58036971875,59.2070379,55.0,52.0
156,58.00850521875,59.24277943125,64.0,64.0
157,60.01003096875,60.48420195,53.0,79.0
158,60.58189546875,60.798727425,53.0,63.0
159,59.72409871875,60.8416172625,48.0,55.0
160,59.15223421875,60.932162475,41.0,71.0
161,60.86782771875,61.43016114375,60.0,93.0
162,60.295963218749996,61.44445775625,64.0,93.0
163,61.15375996875,61.63031371875,57.0,72.0
164,62.01155671875,62.6763492,50.0,102.0
165,61.43969221875,63.00278851875,38.0,83.0
166,61.72562446875,63.02661620625,45.0,82.0
167,62.86935346875,63.05520943125,50.0,63.0
168,62.29748896875,63.14098910625,57.0,86.0
169,63.44121796875,63.76050898125,57.0,93.0
170,62.58342121875,63.7819539,65.0,112.0
171,63.15528571875,63.7867194375,62.0,96.0
172,64.29901471875,64.7302958625,57.0,100.0
173,64.58494696875,65.02814195625,60.0,85.0
174,64.01308246875,65.06626625625,52.0,90.0
175,65.15681146874999,65.5404372375,52.0,60.0
176,63.72715021875,65.54520277499999,45.0,97.0
177,64.87087921875,65.888321475,69.0,112.0
178,65.44274371875,65.9026180875,64.0,96.0
179,65.72867596875,66.03367036875,60.0,99.0
180,66.01460821875,67.07255754375,46.0,96.0
181,66.87240496875,67.19169598125,53.0,49.0
182,66.30054046875,67.203609825,62.0,71.0
183,66.58647271875,67.23220305,58.0,97.0
184,67.44426946875,67.76832601875,55.0,69.0
185,67.15833721875,67.8660195375,48.0,86.0
186,67.73020171875,68.31159729375,60.0,102.0
187,68.01613396875,68.38308035625,64.0,69.0
188,68.87393071875,69.3242740125,53.0,93.0
189,69.15986296875,69.5339576625,55.0,81.0
190,68.58799846875,69.6864548625,48.0,56.0
191,69.73172746875,70.0581667875,48.0,76.0
192,68.30206621875,70.1725396875,41.0,69.0
193,70.01765971875,70.58475868125,57.0,97.0
194,69.44579521874999,70.62526575,60.0,112.0
195,70.30359196875,70.6395623625,55.0,89.0
196,71.16138871875,71.759463675,50.0,85.0
197,71.44732096875,72.14785498125,57.0,78.0
198,70.58952421875,72.2407829625,38.0,86.0
199,70.87545646875,72.255079575,45.0,50.0
200,72.01918546875,72.426638925,50.0,83.0
201,72.30511771875,72.8936616,62.0,97.0
202,71.73325321875,72.8984271375,65.0,112.0
203,72.59104996875,72.9317859,57.0,97.0
204,73.44884671875,73.8705967875,55.0,83.0
205,73.73477896875,73.9659075375,58.0,81.0
206,73.16291446875,74.1088736625,50.0,50.0
207,72.87698221875,74.94522549375,43.0,73.0
208,74.30664346875,75.0715122375,50.0,85.0
209,74.59257571875,75.12631591875,58.0,99.0
210,74.02071121875,75.1811196,62.0,102.0
211,74.87850796875,75.2240094375,55.0,73.0
212,75.45037246875,75.77442901875,55.0,69.0
213,75.73630471875,76.19379631875,59.0,85.0
214,76.02223696875,76.41301104375,55.0,79.0
215,75.16444021875,76.70370883125,47.0,90.0
216,76.59410146875,76.94198570625,55.0,72.0
217,76.30816921875,77.287487175,62.0,102.0
218,76.88003371875,77.306549325,59.0,86.0
219,77.16596596875,77.459046525,55.0,73.0
220,78.02376271875,78.71476565625,48.0,93.0
221,78.30969496875,79.0316739,55.0,90.0
222,78.88155946875,79.0745637375,48.0,88.0
223,77.45189821875,79.53443810625,36.0,73.0
224,79.16749171875,79.72982514375,60.0,100.0
225,79.45342396875,79.74888729375,55.0,92.0
226,77.73783046875,79.7560356,43.0,43.0
227,78.59562721875,79.75841836875,64.0,102.0
228,80.31122071875,81.01175473125,50.0,82.0
229,80.59715296875,81.35963896875,57.0,85.0
230,80.02528846875,81.41444265,45.0,49.0
231,79.73935621875,81.41682541875,38.0,83.0
232,81.16901746875,81.519284475,50.0,69.0
233,81.45494971875,81.99822099375,62.0,100.0
234,80.88308521875,82.0006037625,65.0,100.0
235,81.74088196875,82.0577902125,57.0,78.0
236,82.59867871875,83.07523246875,57.0,59.0
237,82.88461096875,83.2396435125,60.0,62.0
238,82.31274646875,83.31350934375,52.0,54.0
239,82.02681421875,83.75193879375,45.0,78.0
240,83.45647546875,83.75193879375,52.0,67.0
241,83.17054321875,84.1546267125,64.0,93.0
242,83.74240771875,84.17845439999999,60.0,77.0
243,84.02833996875,84.32380329375,57.0,77.0
244,84.60020446875,84.84801241875,55.0,27.0
245,85.17206896875,85.42940799375,58.0,96.0
246,84.31427221875,85.43893906875,46.0,107.0
247,84.88613671875,85.45323568124999,62.0,93.0
248,86.02986571875,86.60173021875,64.0,95.0
249,86.31579796875,86.61126129375,60.0,89.0
250,85.45800121875,86.647002825,48.0,69.0
251,85.74393346875,86.6803615875,55.0,56.0
252,87.17359471875,87.67397615625,53.0,89.0
253,87.45952696875,87.88842534375,55.0,77.0
254,86.88766246875,87.94084625625,48.0,68.0
255,88.03139146875,88.43169661875,48.0,70.0
256,86.60173021875,88.45552430625,41.0,63.0
257,88.31732371875,88.7771980875,57.0,88.0
258,88.60325596875,88.81770515625,55.0,72.0
259,87.74545921875,88.829619,60.0,112.0
260,89.46105271875,90.1496728875,50.0,81.0
261,89.74698496875,90.47134666875,57.0,81.0
262,89.17512046875,90.64767155625,45.0,55.0
263,88.88918821875,91.00985240625,38.0,83.0
264,90.31884946875,91.0408284,50.0,76.0
265,90.03291721875,91.1504357625,65.0,99.0
266,90.60478171875,91.1552013,62.0,88.0
267,90.89071396875,91.17664621875,57.0,82.0
268,91.17664621875,92.232212775,62.0,75.0
269,91.17664621875,92.25365769375,59.0,76.0
270,91.17664621875,92.30607860625,55.0,72.0
271,91.17664621875,92.33943736875,43.0,62.0
272,92.32037521875,92.3704133625,55.0,35.0
273,92.32037521875,96.03019088541666,59.0,79.0
274,92.32037521875,96.10094557291666,62.0,85.0
275,92.32037521875,96.25188890624999,47.0,71.0
276,96.57500197916666,97.22594510416666,81.0,35.0
277,96.50424729166666,97.38868088541666,77.0,35.0
278,96.77075661458332,97.58679401041665,93.0,75.0
279,96.67170005208332,97.59858645833333,89.0,52.0
280,96.56556802083333,97.63160531249999,86.0,53.0
281,96.44056807291666,97.69292604166665,74.0,31.0
282,98.85801989583332,100.58679276041666,67.0,17.0
283,98.9334915625,100.61745312499998,89.0,62.0
284,98.85801989583332,100.66226442708333,86.0,49.0
285,98.749529375,100.67169838541666,82.0,47.0
286,98.67641619791665,100.80377380208333,79.0,45.0
287,100.97594354166665,101.83443374999999,77.0,63.0
288,101.68820739583332,102.35330145833332,69.0,38.0
289,101.07028312499999,102.39339578124999,81.0,49.0
290,102.52075421874999,102.65754661458332,69.0,55.0
291,101.01839635416665,102.68892478333332,65.0,47.0
292,101.14811328124999,102.86283784999999,84.0,69.0
293,102.78675088333333,103.24055529166665,81.0,77.0
294,102.26132036458333,103.24327268333333,77.0,70.0
295,103.07207700833332,103.245990075,84.0,83.0
296,103.35468574166666,103.87099015833333,58.0,73.0
297,103.61555534166666,103.95522929999998,70.0,89.0
298,103.90631624999999,104.35803025833333,74.0,100.0
299,104.17293412916666,104.39649179166666,70.0,102.0
300,104.44937639999999,105.17546779166666,48.0,74.0
301,104.73062636249999,105.60283275625,60.0,75.0
302,105.12004938749999,105.65013006458334,64.0,99.0
303,105.40181919583333,105.71263007916666,67.0,99.0
304,106.77392346875,107.2096377,53.0,61.0
305,105.72445440625,107.44773290833334,41.0,85.0
306,106.20249496875,107.466780525,48.0,56.0
307,106.77392346875,107.97868522291667,65.0,89.0
308,107.63106621875,108.01439950416666,57.0,69.0
309,107.34535196875,108.63106609375,60.0,81.0
310,108.48820896875,109.07392318125,57.0,72.0
311,107.91678046875,109.85725641666667,40.0,75.0
312,109.34535171875,109.866780225,60.0,60.0
313,109.91678021875,110.28344683958333,60.0,70.0
314,109.63106596875,110.30487540833333,55.0,73.0
315,109.05963746875,110.323923025,64.0,96.0
316,111.05963721875,111.34535146875,57.0,1.0
317,110.20249446875,111.80249426875,38.0,72.0
318,110.77392296875,111.89297044791667,45.0,57.0
319,111.34535146875,112.0239228125,50.0,52.0
320,111.91677996874999,112.5667798875,62.0,82.0
321,111.34535146875,112.61916083333332,65.0,93.0
322,112.20249421875,112.67868463541666,57.0,66.0
323,113.05963696875,113.77630354583333,52.0,66.0
324,113.34535121875,113.98820828125,57.0,66.0
325,112.48820846875,114.17154159166667,45.0,73.0
326,113.91677971874999,114.21677968125,52.0,88.0
327,114.48820821875,114.73820818749999,57.0,88.0
328,114.20249396874999,114.74297009166666,60.0,90.0
329,113.63106546875,114.7524939,64.0,107.0
330,115.91677946875,116.45011273541667,58.0,63.0
331,115.34535096875,116.51439844166667,53.0,50.0
332,114.77392246875,116.58582700416666,46.0,66.0
333,115.91677946875,117.10249360625,65.0,60.0
334,115.91677946875,117.12154122291666,70.0,89.0
335,116.48820796875,117.13582693541666,62.0,83.0
336,117.05963646875,118.63106484375,41.0,70.0
337,117.63106496875,118.71916007083334,48.0,52.0
338,118.20249346874999,118.82154101041667,60.0,96.0
339,118.20249346874999,118.88582671666667,53.0,63.0
340,118.77392196875,119.32868380416667,57.0,82.0
341,119.34535046875,119.77392184375,55.0,57.0
342,119.34535046875,120.31201701458333,62.0,85.0
343,119.34535046875,120.48820746875,43.0,68.0
344,119.91677896875,120.53344555833333,55.0,79.0
345,120.48820746875,121.14773119583333,47.0,59.0
346,120.48820746875,121.64535018125,62.0,88.0
347,120.48820746875,121.66915970208333,59.0,78.0
348,121.05963596875,121.76439778541666,55.0,72.0
349,122.20249296875,122.89058812083333,48.0,96.0
350,121.91677871875,123.29296902291667,43.0,65.0
351,121.63106446875,123.30249283124999,36.0,74.0
352,122.48820721875,123.37630234583332,55.0,77.0
353,123.05963571875,123.54296899166667,48.0,75.0
354,123.63106421875,123.93106418125,55.0,72.0
355,122.77392146875,123.95963560625,64.0,95.0
356,123.34534996875,123.96439751041666,60.0,82.0
357,125.05963546875,125.39058780833334,53.0,66.0
358,124.48820696875,125.60487349583333,48.0,57.0
359,123.91677846875,125.61439730416666,41.0,81.0
360,125.34534971875,125.67868301041666,65.0,69.0
361,125.63106396875,126.20249246875,60.0,88.0
362,125.91677821875,126.20249246875,65.0,61.0
363,125.05963546875,126.20249246875,69.0,96.0
364,126.73344478333334,127.50487325833333,45.0,58.0
365,127.35011137291667,127.98582557916666,60.0,82.0
366,127.63582562291667,128.00487319583334,45.0,57.0
367,126.18344485208334,128.01677795625,40.0,88.0
368,127.89058749583333,128.44534933125,55.0,83.0
369,128.17868269791666,128.47868266041667,60.0,75.0
370,127.352492325,128.49773027708332,64.0,93.0
371,129.58582537916666,129.8524920125,50.0,50.0
372,128.45963504374998,129.88820629375,38.0,73.0
373,128.98106355,129.93106343125,45.0,59.0
374,129.58820633125,130.83582522291667,62.0,88.0
375,130.15963483125,130.84058712708332,57.0,67.0
376,129.5953491875,130.8667776,65.0,93.0
377,131.31915849583334,131.71201558958333,57.0,85.0
378,131.581063225,131.85963461875,60.0,75.0
379,131.04296805416666,131.95963460625,52.0,45.0
380,130.75487285208334,132.32153932291666,45.0,71.0
381,132.17868219791666,132.3524917,52.0,62.0
382,132.74534879375,133.02153923541667,57.0,89.0
383,132.4524916875,133.03106304375,60.0,55.0
384,131.89058699583333,133.04296780416666,64.0,99.0
385,134.14534861875,134.64534855624998,58.0,59.0
386,133.56915821458333,134.65963426874998,53.0,50.0
387,133.01915828333333,134.7524914,46.0,86.0
388,134.15011052291666,135.31915799583334,70.0,102.0
389,134.75487235208334,135.35011037291667,65.0,72.0
390,135.02630088958333,135.352491325,62.0,65.0
391,135.90011030416667,136.61201497708333,53.0,63.0
392,136.75249115,137.06915777708332,53.0,66.0
393,136.17391979375,137.07153872916666,57.0,55.0
394,135.3096341875,137.14534824375,41.0,68.0
395,135.59058653333332,137.20963395,48.0,55.0
396,137.31201488958334,137.55249105,57.0,72.0
397,137.02630063958333,137.64772913333334,60.0,61.0
398,136.46915785208333,137.66201484583334,65.0,92.0
399,138.4524909375,138.65487186458333,62.0,52.0
400,138.1667766875,138.69534805,59.0,64.0
401,137.59772913958332,138.71439566666666,47.0,78.0
402,138.99772896458333,139.65963364375,55.0,45.0
403,139.59772888958332,139.86915742708334,60.0,89.0
404,139.3096336875,139.87630028333334,64.0,92.0
405,138.74058613958334,139.87868123541665,48.0,72.0
406,140.75249065,140.93582396041666,65.0,68.0
407,140.75487160208334,140.9382049125,69.0,70.0
408,140.4810621125,141.15725250416665,53.0,97.0
409,141.33582391041665,141.55963340625,53.0,96.0
410,140.15487167708332,141.71915719583333,48.0,81.0
411,139.85963361875,141.72868100416667,41.0,85.0
412,141.05725251666667,141.73106195625,65.0,99.0
413,141.05487156458332,142.16201428333335,69.0,99.0
414,141.91201431458333,142.17391904375,65.0,86.0
415,141.63344292083332,142.20010951666666,60.0,100.0
416,142.74058563958334,143.4382046,50.0,93.0
417,142.18344285208332,143.74772837083333,38.0,95.0
418,142.44058567708333,143.76915693958333,45.0,83.0
419,143.01677608125,143.80487122083332,57.0,83.0
420,143.61915695833335,143.90249025625,50.0,82.0
421,144.16201403333332,144.41677590625,57.0,97.0
422,143.87868073541665,144.45010923541668,62.0,97.0
423,143.33106175625,144.45963304375,65.0,107.0
424,145.05249011249998,145.51439481666665,57.0,107.0
425,144.74296634166666,145.78344240208332,52.0,64.0
426,144.44058542708333,146.15725187916667,45.0,88.0
427,145.90487095833333,146.20010901666666,52.0,77.0
428,145.31677579375,146.25010901041668,60.0,89.0
429,145.61439480416666,146.64772800833333,69.0,117.0
430,146.19772806458332,146.6810613375,64.0,97.0
431,146.48582326666667,146.7953470375,60.0,88.0
432,146.76915656458334,147.80248976875,46.0,96.0
433,147.02153748541667,147.90725166041665,58.0,92.0
434,147.3382041125,147.923918325,62.0,90.0
435,147.58820408125,147.95963260625,65.0,85.0
436,147.89772785208334,148.56201348333332,48.0,92.0
437,148.15487067708332,148.72629917708332,55.0,70.0
438,148.45487063958333,149.04296580416667,60.0,97.0
439,148.74296584166666,149.09296579791666,64.0,79.0
440,149.9096323625,150.1096323375,69.0,83.0
441,149.91201331458333,150.11439424166667,65.0,78.0
442,149.63344192083332,150.323918025,53.0,90.0
443,150.46915610208333,150.70487035833332,53.0,102.0
444,150.20725137291666,150.81677510625,65.0,97.0
445,149.32868005416668,150.84296557916667,48.0,63.0
446,149.03106104375001,150.90487033333332,41.0,85.0
447,150.77153701666666,151.18820363125,64.0,90.0
448,150.209632325,151.37153694166665,69.0,97.0
449,151.05487031458333,151.39296551041667,65.0,93.0
450,151.9382035375,152.61915583333334,50.0,85.0
451,152.20010826666666,152.9096319875,57.0,86.0
452,151.36201313333333,152.9382034125,38.0,79.0
453,151.65963214375,152.94534626875,45.0,56.0
454,152.7667748625,153.11915577083334,50.0,65.0
455,153.0382034,153.60725094791667,62.0,77.0
456,152.51915584583332,153.62867951666666,65.0,96.0
457,153.33582241041665,153.638203325,57.0,82.0
458,154.15010802291667,154.48582226666667,55.0,86.0
459,154.44296512916668,154.71201271458332,58.0,83.0
460,153.87391758125,154.87629840833333,50.0,52.0
461,155.03344124583333,155.77629829583333,50.0,83.0
462,153.61439380416667,155.80248876874998,43.0,70.0
463,155.33582216041665,155.83106019375,58.0,96.0
464,154.75963175625,155.94058398958333,62.0,96.0
465,155.60963164999998,155.94296494166667,55.0,93.0
466,156.14534586874998,156.52391725,55.0,70.0
467,156.44296487916665,156.86677435000001,59.0,86.0
468,156.73582198541666,157.01677433125,55.0,85.0
469,155.90248875625,157.21201240208333,47.0,102.0
470,157.32867905416666,157.5667742625,47.0,83.0
471,157.05725051666667,157.68820281875,59.0,97.0
472,157.61201235208333,158.18582180416666,55.0,102.0
473,157.05963146875,158.1953456125,62.0,100.0
474,157.9096313625,158.209631325,59.0,122.0
475,159.03105979375,159.24296452916667,60.0,93.0
476,159.03344074583333,159.24534548125,64.0,83.0
477,158.74058363958332,159.43582164791667,48.0,100.0
478,159.59296448541667,159.82629778958332,48.0,93.0
479,159.33105975625,160.00248824375,60.0,99.0
480,159.9096311125,160.29058344583333,55.0,93.0
481,158.15963133125,160.33582153541667,36.0,99.0
482,158.44534558125,160.44772628333334,43.0,86.0
483,160.20248821875,160.49058342083333,60.0,112.0
484,159.33344070833334,160.49296437291667,64.0,99.0
485,161.04058335208333,161.71201183958334,50.0,88.0
486,161.31439284166666,161.74534516875,57.0,73.0
487,161.62867851666667,162.25724986666665,62.0,100.0
488,160.75010719791666,162.27153557916665,45.0,86.0
489,160.4810596125,162.27391653125,38.0,89.0
490,161.90010705416665,162.41439270416666,50.0,88.0
491,162.18344035208332,162.77867837291666,57.0,96.0
492,162.48582126666668,162.8524878875,62.0,102.0
493,161.63105946874998,162.85963074375,65.0,99.0
494,163.30248783125,163.54058303958334,57.0,96.0
495,163.60248779375002,163.81439252916667,64.0,71.0
496,163.59772588958333,163.82629728958332,60.0,77.0
497,163.02153548541668,164.02153536041666,52.0,78.0
498,162.76915456458335,164.49058292083333,45.0,88.0
499,164.17629724583333,164.54534481874998,52.0,95.0
500,163.90486870833334,164.59058290833332,60.0,102.0
501,164.47391625625,164.9239162,57.0,93.0
502,163.90724966041665,165.01439237916668,64.0,100.0
503,164.77391621875,165.03105904375,60.0,102.0
504,165.31677329375,165.86439227291666,53.0,48.0
505,165.60486849583333,165.88343988958331,58.0,107.0
506,165.02153523541665,166.00248749374998,46.0,85.0
507,165.89534465,166.17629699583333,62.0,112.0
508,166.19058270833332,166.80010644166666,48.0,92.0
509,166.46915410208334,166.82629691458334,60.0,96.0
510,166.77629692083332,167.27867781041667,64.0,117.0
511,167.07867783541667,167.41677303125,60.0,93.0
512,167.92629677708334,168.62867764166666,53.0,89.0
513,168.75963000625,169.00248711875,53.0,85.0
514,167.63105871875,169.05724901666667,48.0,65.0
515,168.20724912291666,169.07629663333333,57.0,85.0
516,167.33105875625,169.13343948333335,41.0,90.0
517,169.04296330416668,169.46677277499998,60.0,96.0
518,168.50724908541667,169.54534419375,65.0,107.0
519,169.31439184166666,169.61201085208333,57.0,83.0
520,170.18582030416667,170.89534402499999,50.0,74.0
521,170.4477250333333,171.26439159791667,57.0,67.0
522,169.5953441875,171.31677254375,38.0,82.0
523,169.8810584375,171.35724872916666,45.0,43.0
524,171.33582016041666,171.3953439625,57.0,27.0
525,171.04058210208333,171.47867728541667,50.0,89.0
526,171.33343920833335,171.76201058333334,62.0,88.0
527,170.77391546874998,171.77629629583333,65.0,107.0
528,171.60010584166668,171.96915341458333,57.0,82.0
529,172.51439144166665,172.61915333333332,59.0,41.0
530,171.9191534208333,173.10724851041667,43.0,95.0
531,172.18582005416667,173.21439135416665,55.0,69.0
532,172.76439141041666,173.2810580125,62.0,95.0
533,173.09772470208333,174.95985249999998,47.0,93.0
534,173.923915075,176.2474726625,59.0,70.0
535,173.63581987291667,176.24987650833333,62.0,95.0
536,173.35486752708334,176.25949189166664,55.0,73.0
537,177.02872255833333,177.61045324999998,81.0,42.0
538,176.94939564583333,177.70901092916665,77.0,41.0
539,176.903722575,177.78833784166665,74.0,33.0
540,177.076799475,177.82199168333332,86.0,55.0
541,177.16574177083334,177.84362629583333,89.0,56.0
542,177.26910714166667,177.89891475,93.0,73.0
543,179.26910687499998,180.6344913083333,74.0,38.0
544,179.19458765416667,180.78259171874998,70.0,36.0
545,179.04795305833332,180.91673809374998,67.0,39.0
546,179.48304915416665,181.03259178125,86.0,56.0
547,179.5647799125,181.03868934375,89.0,37.0
548,179.3580491708333,181.09356740625,82.0,51.0
549,179.297953025,181.21551865625,79.0,50.0
550,181.69112853125,181.89234809375,65.0,53.0
551,181.69112853125,181.91064078124998,69.0,51.0
552,181.69112853125,181.92283590625,48.0,59.0
553,181.69112853125,181.94722615625,41.0,58.0
554,181.69112853125,181.9563725,53.0,59.0
555,181.69112853125,181.9563725,60.0,49.0
556,182.05698228125,182.19646398749998,48.0,66.0
557,182.05698228125,182.21329090833333,53.0,69.0
558,182.05698228125,182.22050244583332,41.0,39.0
559,182.05698228125,182.232521675,69.0,49.0
560,182.05698228125,182.23732936666667,65.0,59.0
561,182.05698228125,182.24454090416666,60.0,44.0
562,182.3551178125,182.50175240833332,41.0,39.0
563,182.3551178125,182.51377163749999,69.0,59.0
564,182.3551178125,182.51857932916667,65.0,59.0
565,182.3551178125,182.52338702083333,53.0,55.0
566,182.3551178125,182.52579086666665,48.0,62.0
567,182.3551178125,182.53300240416667,60.0,60.0
568,182.64357931249998,182.79502159999998,41.0,56.0
569,182.64357931249998,182.81906005833332,48.0,68.0
570,182.64357931249998,182.81906005833332,53.0,71.0
571,182.64357931249998,182.83588697916665,69.0,71.0
572,182.64357931249998,182.838290825,65.0,69.0
573,182.64357931249998,182.85511774583333,60.0,70.0
574,182.9320408125,183.07386771666665,41.0,47.0
575,182.9320408125,183.07627156249998,48.0,64.0
576,182.9320408125,183.07867540833334,53.0,76.0
577,182.9320408125,183.1051177125,69.0,71.0
578,182.9320408125,183.10752155833333,65.0,74.0
579,182.9320408125,183.1195407875,60.0,77.0
580,183.2205023125,183.36954075416665,53.0,90.0
581,183.2205023125,183.37194459999998,41.0,57.0
582,183.2205023125,183.37194459999998,48.0,67.0
583,183.2205023125,183.39598305833331,65.0,78.0
584,183.2205023125,183.39598305833331,69.0,73.0
585,183.2205023125,183.40559844166665,60.0,77.0
586,183.50896381249999,183.6676176375,48.0,73.0
587,183.50896381249999,183.6676176375,53.0,93.0
588,183.50896381249999,183.67242532916666,41.0,59.0
589,183.50896381249999,183.6820407125,65.0,85.0
590,183.50896381249999,183.69165609583334,69.0,78.0
591,183.50896381249999,183.70607917083333,60.0,81.0
592,183.7974253125,183.9416560625,48.0,71.0
593,183.7974253125,183.95367529166666,53.0,93.0
594,183.7974253125,183.9584829833333,41.0,72.0
595,183.7974253125,183.97530990416666,65.0,73.0
596,183.7974253125,183.97530990416666,69.0,70.0
597,183.7974253125,183.99454067083332,60.0,73.0
598,184.08588681249998,184.222906025,53.0,96.0
599,184.08588681249998,184.23252140833333,48.0,81.0
600,184.08588681249998,184.2445406375,41.0,66.0
601,184.08588681249998,184.2589637125,69.0,71.0
602,184.08588681249998,184.26136755833332,65.0,72.0
603,184.08588681249998,184.2902137083333,60.0,72.0
604,184.3743483125,184.52819444583332,41.0,57.0
605,184.3743483125,184.53059829166665,53.0,88.0
606,184.3743483125,184.540213675,48.0,71.0
607,184.3743483125,184.54982905833333,65.0,72.0
608,184.3743483125,184.55223290416666,69.0,71.0
609,184.3743483125,184.5762713625,60.0,71.0
610,184.6628098125,184.82627132916664,53.0,100.0
611,184.6628098125,184.83107902083333,41.0,66.0
612,184.6628098125,184.83107902083333,48.0,78.0
613,184.6628098125,184.86232901666665,65.0,73.0
614,184.6628098125,184.86232901666665,69.0,74.0
615,184.6628098125,184.8719444,60.0,72.0
616,184.95127131249998,185.16521359166666,41.0,71.0
617,184.95127131249998,185.16521359166666,53.0,100.0
618,184.95127131249998,185.1700212833333,48.0,88.0
619,184.95127131249998,185.1700212833333,69.0,88.0
620,184.95127131249998,185.17242512916667,60.0,95.0
621,184.95127131249998,185.17242512916667,65.0,90.0
622,185.2397328125,185.39598279166665,53.0,117.0
623,185.2397328125,185.39838663749998,48.0,95.0
624,185.2397328125,185.41040586666665,41.0,70.0
625,185.2397328125,185.4272327875,65.0,92.0
626,185.2397328125,185.4272327875,69.0,93.0
627,185.2397328125,185.42963663333333,60.0,93.0
628,185.5281943125,185.674252,53.0,102.0
629,185.5281943125,185.69675199999998,41.0,72.0
630,185.5281943125,185.70425199999997,48.0,89.0
631,185.5281943125,185.74925199999998,65.0,96.0
632,185.5281943125,185.74925199999998,69.0,96.0
633,185.5281943125,185.75425199999998,60.0,93.0
634,185.82675199999997,185.994252,53.0,100.0
635,185.82675199999997,185.996752,41.0,69.0
636,185.82675199999997,186.00675199999998,48.0,90.0
637,185.82675199999997,186.00925199999998,65.0,95.0
638,185.82675199999997,186.00925199999998,69.0,95.0
639,185.82675199999997,186.01175199999997,60.0,90.0
640,186.12675199999998,186.40425199999999,53.0,112.0
641,186.12675199999998,186.41675199999997,48.0,88.0
642,186.12675199999998,186.41675199999997,65.0,100.0
643,186.12675199999998,186.424252,60.0,96.0
644,186.12675199999998,186.426752,41.0,67.0
645,186.12675199999998,186.44675199999998,69.0,102.0
646,186.426752,187.14175199999997,62.0,112.0
647,186.426752,187.146752,65.0,102.0
648,186.426752,187.151752,57.0,112.0
649,187.32675199999997,187.53175199999998,65.0,100.0
650,187.32675199999997,187.54175199999997,62.0,112.0
651,187.32675199999997,187.54675199999997,57.0,112.0
652,187.026752,187.74925199999998,50.0,95.0
653,187.62675199999998,188.0663920625,57.0,102.0
654,187.62675199999998,188.07855159374998,62.0,117.0
655,187.62675199999998,188.08341540625,65.0,117.0
656,186.426752,188.149076875,38.0,90.0
657,186.72675199999998,188.23905740625,45.0,83.0
658,188.21960215624998,188.275536,57.0,64.0
659,187.926752,188.285263625,50.0,88.0
660,188.21960215624998,188.5527733125,62.0,112.0
661,188.21960215624998,188.57709237499998,65.0,100.0
662,188.51143090624998,188.72543865625,57.0,93.0
663,188.80325965625,188.90053590624998,57.0,99.0
664,188.80325965625,188.91512734375,60.0,117.0
665,188.80325965625,188.93215068749998,64.0,117.0
666,189.67874590625,189.7200883125,72.0,86.0
667,189.67874590625,189.7395435625,69.0,99.0
668,189.67874590625,189.75170309375,64.0,96.0
669,189.82466028124998,189.89761746874998,72.0,73.0
670,189.82466028124998,189.90734509375,64.0,63.0
671,189.82466028124998,189.909777,69.0,72.0
672,189.38691715624998,190.05812328124998,57.0,93.0
673,188.80325965625,190.43506875,45.0,93.0
674,189.97057465625,190.4496601875,64.0,96.0
675,190.26240340625,190.54450453125,57.0,102.0
676,189.97057465625,190.55666406249998,69.0,112.0
677,189.97057465625,190.57125549999998,72.0,100.0
678,189.09508840625,190.5761193125,52.0,90.0
679,190.55423215624998,190.6442126875,64.0,112.0
680,191.13788965625,191.79450434375,46.0,112.0
681,191.42971840624998,191.79450434375,50.0,69.0
682,191.72154715624998,191.81882340624998,53.0,93.0
683,191.13788965625,191.86746153125,58.0,127.0
684,191.13788965625,191.86746153125,65.0,88.0
685,191.13788965625,191.91366775,62.0,100.0
686,192.01337590625,192.15685837499998,62.0,66.0
687,192.01337590625,192.195768875,58.0,122.0
688,192.30520465625,192.79282578125,64.0,102.0
689,192.30520465625,192.80998265,60.0,102.0
690,192.30520465625,192.89086503125,36.0,90.0
691,192.30520465625,192.93498269375,55.0,112.0
692,192.59703340624998,192.9717474125,43.0,69.0
693,192.89086503125,192.9815513375,60.0,99.0
694,192.89086503125,192.98400231875,64.0,95.0
695,192.89086503125,193.0403748875,48.0,86.0
696,193.47910053125,194.172728225,60.0,112.0
697,193.47910053125,194.1874341125,69.0,112.0
698,193.47910053125,194.19968901875,65.0,107.0
699,194.36145378125,194.54282639375,60.0,96.0
700,194.36145378125,194.54527737499998,69.0,93.0
701,194.36145378125,194.56733620625,65.0,96.0
702,194.06733603125,194.79282648125,53.0,92.0
703,194.65557153125,194.99870890625,60.0,122.0
704,194.65557153125,195.1188069875,69.0,117.0
705,194.65557153125,195.133512875,65.0,122.0
706,194.94968928125,195.2462580125,53.0,90.0
707,193.77321828125,195.349199225,48.0,81.0
708,193.47910053125,195.37616001875,41.0,83.0
709,195.24380703125,195.73400328124998,60.0,127.0
710,195.24380703125,195.76831701875,69.0,56.0
711,195.24380703125,195.78792486875,65.0,59.0
712,195.83204253124998,196.53057218749998,62.0,102.0
713,195.83204253124998,196.54282709375,69.0,102.0
714,195.83204253124998,196.57223886875,65.0,107.0
715,196.71439578125,196.87370956249998,62.0,89.0
716,196.71439578125,196.87616054375,69.0,86.0
717,196.71439578125,196.90067035625,65.0,89.0
718,196.42027803125,197.16537633125,50.0,86.0
719,197.00851353125,197.43743525,62.0,100.0
720,195.83204253124998,197.545278425,38.0,78.0
721,196.12616028125,197.64086669374998,45.0,56.0
722,197.30263128125,197.6482196375,50.0,86.0
723,197.00851353125,197.6874353375,65.0,127.0
724,197.00851353125,197.937435425,69.0,122.0
725,197.89086678125,198.05263154375,65.0,97.0
726,197.59674903125,198.07223939375,62.0,107.0
727,198.18498453125,198.88106320625,62.0,99.0
728,198.18498453125,199.18498488125,70.0,127.0
729,198.18498453125,199.19478880625,67.0,100.0
730,199.06733778125,199.22910254375,62.0,78.0
731,198.77322003125,199.48890655625,55.0,92.0
732,199.36145553125,199.79282823124998,62.0,102.0
733,199.36145553125,199.83204393124998,67.0,112.0
734,199.36145553125,199.84184785624998,70.0,122.0
735,198.18498453125,200.40067158125,43.0,81.0
736,199.94969103124998,200.40557354375,70.0,102.0
737,199.94969103124998,200.42027943125,67.0,100.0
738,198.47910228125,200.4227304125,50.0,66.0
739,199.94969103124998,200.4227304125,62.0,97.0
740,199.65557328124999,200.43988728125,55.0,93.0
741,200.5158677,200.83694624375,47.0,102.0
742,200.52812260625,200.85165213125,55.0,89.0
743,200.52812260625,200.85655409375,62.0,88.0
744,200.52812260625,200.86145605625,59.0,90.0
745,200.98155413749998,201.2462601125,47.0,92.0
746,200.976652175,201.270769925,55.0,77.0
747,200.97910315625,201.27812286875,59.0,82.0
748,200.98155413749998,201.28302483125,62.0,77.0
749,201.40557389375,201.57714258125,47.0,90.0
750,201.4227307625,201.6090053375,59.0,86.0
751,201.42518174375,201.61145631875,55.0,77.0
752,201.427632725,201.6139073,62.0,85.0
753,201.73400538125,202.055083925,55.0,88.0
754,201.7315544,202.05753490625,59.0,95.0
755,201.7168485125,202.0599858875,47.0,95.0
756,201.72910341875,202.06733883125,62.0,95.0
757,202.153123175,202.43498601875,47.0,82.0
758,202.1580251375,202.4717507375,55.0,82.0
759,202.16047611874998,202.47420171875,59.0,92.0
760,202.15557415625,202.486456625,62.0,89.0
761,202.6090056875,202.82714301875,62.0,83.0
762,202.61145666875,202.829594,59.0,81.0
763,202.61390765,202.84184890625,55.0,85.0
764,202.5893978375,202.85165283125,47.0,82.0
765,202.89086853125,203.15557450625,55.0,100.0
766,202.89086853125,203.2168490375,60.0,117.0
767,202.89086853125,203.21930001875,64.0,99.0
768,203.77322178125,203.82224140625,67.0,90.0
769,203.77322178125,203.8246923875,60.0,100.0
770,203.77322178125,203.82959435,64.0,107.0
771,203.92028065625,203.9913591125,60.0,51.0
772,203.92028065625,204.00851598124999,64.0,68.0
773,203.92028065625,204.015868925,67.0,72.0
774,203.47910403125,204.14331995,48.0,97.0
775,204.06733953124998,204.45949653125,60.0,100.0
776,204.06733953124998,204.486457325,67.0,99.0
777,204.06733953124998,204.4913592875,64.0,100.0
778,204.36145728124998,204.58694755624998,48.0,90.0
779,202.89086853125,204.682535825,36.0,92.0
780,203.18498628125,205.0011633875,43.0,76.0
781,204.65557503125,205.06243791875,67.0,117.0
782,204.94969278125,205.13596735625,60.0,90.0
783,204.65557503125,205.16783011249998,64.0,127.0
784,205.24381053125,205.93008528125,62.0,102.0
785,205.24381053125,205.9325362625,69.0,107.0
786,205.24381053125,205.95459509375,65.0,112.0
787,206.12616378125,206.26096775,62.0,85.0
788,206.12616378125,206.26096775,69.0,93.0
789,206.12616378125,206.28792854374998,65.0,97.0
790,205.83204603125,206.545281575,50.0,99.0
791,206.42028153125,206.8344973625,69.0,122.0
792,206.42028153125,206.8443012875,62.0,107.0
793,206.42028153125,206.8541052125,65.0,117.0
794,205.24381053125,206.88596796875,38.0,90.0
795,205.53792828125,206.957046425,45.0,83.0
796,206.71439928125,207.02322291875,50.0,96.0
797,207.00851703125,207.09185039375,69.0,117.0
798,207.00851703125,207.0992033375,65.0,117.0
799,207.59675253125,208.2805763,64.0,102.0
800,207.59675253125,208.2952821875,72.0,117.0
801,207.59675253125,208.3050861125,69.0,117.0
802,208.47910578124998,208.898223575,64.0,90.0
803,208.47910578124998,208.90557651875,72.0,96.0
804,208.47910578124998,208.9227333875,69.0,99.0
805,208.18498803125,209.20214525,57.0,96.0
806,209.06734128124998,209.31243940625,72.0,112.0
807,209.06734128124998,209.33694921875,69.0,112.0
808,209.06734128124998,209.3786159,64.0,97.0
809,207.59675253125,209.40312571249999,45.0,82.0
810,207.89087028125,209.46930220625,52.0,58.0
811,209.36145903125,209.486459075,57.0,97.0
812,209.94969453125,210.25361620625,65.0,93.0
813,209.94969453125,210.25606718749998,62.0,100.0
814,209.94969453125,210.27322405625,58.0,127.0
815,209.94969453125,210.49381236874999,46.0,102.0
816,210.39087115625,210.51832218125,62.0,102.0
817,210.53793003125,210.61145946874998,46.0,89.0
818,210.39087115625,210.64087124374998,65.0,96.0
819,210.39087115625,210.66538105625,58.0,127.0
820,210.83204778125,210.95949880625,62.0,95.0
821,210.83204778125,210.9815576375,58.0,127.0
822,211.12616553125,211.44969505625,55.0,107.0
823,211.12616553125,211.457048,64.0,99.0
824,211.12616553125,211.46440094375,60.0,107.0
825,211.12616553125,211.6188127625,36.0,88.0
826,211.56734215625,211.7658716375,55.0,95.0
827,211.56734215625,211.80018537499998,64.0,97.0
828,211.56734215625,211.81244028125,60.0,107.0
829,212.00851878125,212.08695018125,55.0,99.0
830,212.00851878125,212.10410704999998,60.0,102.0
831,212.00851878125,212.10655803125,64.0,97.0
832,212.30263653125,213.04773483125,60.0,107.0
833,212.30263653125,213.06244071875,69.0,107.0
834,212.30263653125,213.07224464375,65.0,122.0
835,213.18498978125,213.31979375,69.0,61.0
836,213.18498978125,213.33204865624998,60.0,86.0
837,213.18498978125,213.3344996375,65.0,62.0
838,212.89087203124998,213.63597033125,53.0,93.0
839,213.47910753125,213.90802925,69.0,117.0
840,213.47910753125,213.92273513749998,60.0,127.0
841,213.47910753125,213.92273513749998,65.0,122.0
842,213.77322528125,214.055088125,53.0,97.0
843,212.59675428124999,214.1972450375,48.0,56.0
844,212.30263653125,214.25851956875,41.0,90.0
845,214.06734303125,214.40312746249998,65.0,117.0
846,214.06734303125,214.408029425,69.0,107.0
847,214.65557853125,215.40067683125,62.0,112.0
848,214.65557853125,215.41048075625,65.0,97.0
849,214.65557853125,215.4129317375,57.0,112.0
850,215.53793178125,215.7462651875,57.0,69.0
851,215.53793178125,215.75116715,65.0,81.0
852,215.53793178125,215.760971075,62.0,82.0
853,215.24381403125,215.97420644375,50.0,82.0
854,215.83204953125,216.21930456875,57.0,97.0
855,214.65557853125,216.3933242375,38.0,85.0
856,214.94969628125,216.42028503125,45.0,38.0
857,215.83204953125,216.4815595625,62.0,107.0
858,216.12616728125,216.4913634875,50.0,95.0
859,215.83204953125,216.49381446875,65.0,99.0
860,216.42028503125,216.7364616125,57.0,99.0
861,217.00852053124999,218.07714835625,55.0,117.0
862,217.00852053124999,218.08940326249999,62.0,102.0
863,217.00852053124999,218.09675620625,59.0,102.0
864,218.18499153125,221.5305809375,55.0,102.0
865,218.18499153125,221.53793388124998,62.0,100.0
866,218.18499153125,221.54283584375,59.0,102.0
867,217.00852053124999,221.56244369375,47.0,102.0
868,223.84885872916666,224.14732816666668,62.0,36.0
869,223.97130772916668,224.87947114583332,70.0,53.0
870,223.8896750625,224.97130789583335,65.0,53.0
871,224.83355277083334,225.55549166666665,62.0,50.0
872,224.5631445625,225.6498794375,58.0,58.0
873,224.30038941666666,225.82079783333333,53.0,35.0
874,223.9815118125,225.92028764583333,46.0,58.0
875,225.14222629166667,226.0248795,70.0,86.0
876,225.4662059375,226.040185625,65.0,53.0
877,225.85906314583335,226.05804277083334,62.0,35.0
878,226.5759,226.75447145833334,43.0,35.0
879,226.40498160416666,227.065696,55.0,32.0
880,226.4611040625,227.07079804166668,58.0,41.0
881,226.56569591666667,227.11671641666666,62.0,40.0
882,227.66773691666666,227.95855329166668,36.0,27.0
883,227.68814508333332,228.44324725,67.0,41.0
884,227.59630833333333,228.50447175,64.0,44.0
885,227.53763485416667,228.51467583333334,60.0,33.0
886,227.45345116666667,228.56059420833333,55.0,33.0
887,229.18049227083333,229.57845152083334,53.0,50.0
888,229.0937575625,229.805492375,57.0,37.0
889,228.99681877083333,230.18559447916667,64.0,38.0
890,228.9713085625,230.6549823125,60.0,34.0
891,230.3335536875,230.85651295833333,55.0,55.0
892,230.58355372916668,230.876921125,57.0,52.0
893,230.85906397916668,230.94834970833332,60.0,69.0
894,231.44069672916666,232.20600297916667,67.0,48.0
895,231.1447783125,232.22641114583334,65.0,81.0
896,231.77743147916667,232.78763572916668,69.0,65.0
897,232.08865602083333,233.04783985416668,72.0,59.0
898,230.07079854166668,233.86671754166667,53.0,69.0
899,229.7978393125,233.9457991875,48.0,42.0
900,233.27998275,234.01212572916666,69.0,33.0
901,229.346308625,234.0376359375,41.0,69.0
902,232.42539077083333,234.09375839583333,65.0,43.0
903,232.81569695833332,234.0988604375,67.0,35.0
904,234.29528904166668,234.902432,69.0,36.0
905,234.35651354166666,235.28253410416667,70.0,74.0
906,234.46875845833333,235.76212602083334,74.0,51.0
907,235.37437085416667,235.76977908333333,69.0,58.0
908,234.49426866666667,235.774881125,77.0,70.0
909,235.71110560416668,235.79018725,70.0,82.0
910,235.08355447916668,236.45345266666666,58.0,67.0
911,234.825901375,236.46110572916666,53.0,41.0
912,234.51467683333334,236.58610575,46.0,74.0
913,236.38202408333333,236.59630983333332,81.0,49.0
914,236.66773841666668,237.26977933333333,86.0,65.0
915,236.06059545833332,237.27743239583333,77.0,41.0
916,238.02233047916667,238.48661627083334,52.0,56.0
917,238.41263666666666,238.88712654166667,55.0,63.0
918,238.84120816666666,239.87437160416667,60.0,61.0
919,237.37692220833333,239.91263691666666,43.0,64.0
920,239.325902125,239.9151879375,64.0,55.0
921,236.95600377083332,239.9304940625,36.0,62.0
922,237.69835083333334,239.95855529166667,48.0,78.0
923,239.81824914583333,239.97386141666667,67.0,50.0
924,240.397330875,240.76977991666666,72.0,30.0
925,240.52233089583333,240.7876370625,67.0,49.0
926,240.46110639583333,240.7876370625,69.0,38.0
927,240.58355539583334,240.79784114583333,65.0,53.0
928,241.26978,241.61926985416667,55.0,52.0
929,241.46365758333334,241.70090252083332,57.0,58.0
930,241.67794333333333,241.75447395833334,60.0,69.0
931,241.88712704166667,242.16263729166667,65.0,81.0
932,242.10906585416666,242.3947801875,67.0,86.0
933,242.356514875,242.4406985625,69.0,78.0
934,242.5784536875,242.91008639583333,77.0,85.0
935,242.8386578125,243.20090277083332,79.0,59.0
936,243.14222929166667,243.274882375,81.0,62.0
937,244.49427033333333,245.21876025,84.0,33.0
938,243.978964125,245.25447454166667,91.0,39.0
939,243.54018854166668,245.26212760416666,89.0,45.0
940,244.54784177083334,245.39988272916668,93.0,44.0
941,240.87692279166666,249.611618125,48.0,52.0
942,241.1090656875,249.64478139583332,53.0,70.0
943,247.66518922916666,249.70090385416665,93.0,38.0
944,247.76467904166668,249.70600589583333,96.0,39.0
945,240.59631050000002,249.73151610416667,41.0,75.0
946,247.5988626875,249.734067125,89.0,33.0
