,start,end,pitch,velocity
0,28.0746866,28.642329800000002,58.0,100.0
1,28.7842406,30.151610287500002,70.0,127.0
2,30.2033486,30.785774175,70.0,127.0
3,30.912902600000002,31.4347204375,67.0,112.0
4,31.6224566,32.1117532125,65.0,122.0
5,32.332010600000004,32.5197467625,63.0,99.0
6,32.6867876,32.855306675,65.0,100.0
7,33.0415646,33.564860675,67.0,122.0
8,34.105895600000004,34.3971083875,65.0,107.0
9,34.4606726,35.060837025,63.0,107.0
10,35.1702266,35.49543885,63.0,112.0
11,35.5250036,35.829520525,55.0,127.0
12,35.879780600000004,36.663246475,58.0,102.0
13,36.7667231,37.1215001,60.0,102.0
14,37.1215001,37.408278175,63.0,95.0
15,37.476277100000004,38.3750455,58.0,88.0
16,40.1371046,40.9604828875,60.0,97.0
17,41.2014356,41.5429084625,58.0,92.0
18,41.5562126,42.209593575,60.0,102.0
19,42.2657666,42.611674175000005,63.0,99.0
20,42.9753206,43.309402275000004,65.0,107.0
21,43.3300976,43.5621808875,67.0,88.0
22,43.5074861,43.6597445625,65.0,83.0
23,43.6848746,43.9553920625,63.0,93.0
24,44.0396516,44.249561325,65.0,95.0
25,44.3944286,45.0019842125,67.0,107.0
26,45.4587596,45.6405828125,70.0,100.0
27,45.8135366,46.1284011875,65.0,95.0
28,46.168313600000005,46.605871900000004,65.0,92.0
29,46.7004791,46.993170125,67.0,99.0
30,47.2326446,47.733767112500004,70.0,100.0
31,48.119587100000004,48.4994941375,72.0,97.0
32,48.4743641,48.77592455,75.0,100.0
33,49.0065296,50.6385038,70.0,95.0
34,51.489968600000005,51.741268975000004,72.0,100.0
35,51.8447456,52.3783893375,72.0,107.0
36,52.5542996,52.8262953,70.0,96.0
37,52.9090766,53.4663721375,67.0,102.0
38,53.6186306,54.01479825,67.0,127.0
39,54.3281846,54.6460056625,63.0,100.0
40,54.6829616,54.950522587500004,65.0,93.0
41,55.037738600000004,55.29199545,67.0,102.0
42,55.3925156,55.685206625,70.0,89.0
43,55.7472926,56.660843375,67.0,122.0
44,57.1664006,57.376310325,65.0,100.0
45,57.5211776,58.0311695375,65.0,107.0
46,58.2307316,58.4332501375,63.0,127.0
47,58.585508600000004,58.906286137500004,60.0,92.0
48,58.9402856,59.27732375,58.0,88.0
49,59.2950626,59.776968025,60.0,90.0
50,59.6498396,59.948443575,63.0,97.0
51,60.0046166,62.059366725000004,65.0,93.0
52,62.8428326,63.0512640875,67.0,122.0
53,63.1976096,63.756383375,67.0,102.0
54,63.907163600000004,64.26046236250001,65.0,97.0
55,64.2619406,64.5649792875,67.0,117.0
56,64.6167176,64.968538125,70.0,96.0
57,64.9714946,65.5672243125,67.0,99.0
58,65.6810486,65.99443495,65.0,117.0
59,66.0358256,66.2841695,67.0,107.0
60,66.39060260000001,66.701032475,65.0,107.0
61,66.7453796,67.02772296250001,63.0,99.0
62,67.1001566,67.9590125875,60.0,112.0
63,68.5192646,68.7439567,58.0,107.0
64,68.8740416,69.1342114,70.0,102.0
65,69.2288186,69.509683725,67.0,102.0
66,69.5835956,69.8482001125,65.0,100.0
67,69.7609841,69.95611145000001,67.0,102.0
68,69.93837260000001,70.27541075,70.0,107.0
69,70.2931496,70.5370587875,72.0,97.0
70,70.6479266,71.0263554,67.0,97.0
71,71.0027036,71.3382635125,65.0,99.0
72,71.3574806,72.42772455000001,63.0,100.0
73,74.1956966,74.6022119125,72.0,127.0
74,74.7278621,74.8106434,72.0,112.0
75,74.9052506,75.2526364125,72.0,100.0
76,75.43741610000001,75.58967456250001,70.0,93.0
77,75.6148046,75.71975946250001,67.0,100.0
78,75.9695816,76.4426176,67.0,122.0
79,77.03391260000001,77.2113011,65.0,96.0
80,77.3886896,77.8868556375,65.0,102.0
81,78.0982436,78.2889362375,63.0,92.0
82,78.4530206,78.96744725,60.0,100.0
83,78.9851861,79.1344880875,58.0,92.0
84,79.1625746,79.455265625,60.0,97.0
85,79.5173516,79.8203902875,63.0,107.0
86,79.8721286,82.0007906,65.0,97.0
87,82.7103446,83.136077,70.0,122.0
88,83.0651216,83.345986725,72.0,83.0
89,83.4198986,83.66232955,70.0,127.0
90,83.9520641,84.096931375,65.0,93.0
91,84.12945260000001,84.31275405,67.0,100.0
92,84.4842296,84.9469179375,67.0,107.0
93,85.1937836,85.4199539375,70.0,99.0
94,85.5485606,85.93290235,65.0,96.0
95,86.0807261,86.1620291625,65.0,83.0
96,86.2581146,86.568544475,65.0,90.0
97,86.6128916,86.8774961125,63.0,99.0
98,86.9676686,87.384531575,60.0,100.0
99,87.67722260000001,88.017217225,63.0,102.0
100,88.0319996,88.377907175,65.0,100.0
101,88.3867766,89.97736015,70.0,99.0
102,90.87021560000001,91.12151597500001,70.0,127.0
103,91.22499260000001,91.695072125,72.0,107.0
104,91.9345466,92.168108125,67.0,122.0
105,92.2893236,92.5376675,70.0,122.0
106,92.6441006,92.96487813750001,72.0,127.0
107,93.3536546,93.661128,72.0,122.0
108,93.7084316,94.015905,75.0,97.0
109,94.0632086,94.22285825,70.0,99.0
110,94.2405971,94.4372026875,72.0,97.0
111,94.77276260000001,95.1142354625,70.0,107.0
112,95.1275396,95.497098975,67.0,90.0
113,95.4823166,96.336737875,65.0,90.0
114,96.9014246,97.41437301250001,67.0,127.0
115,97.6109786,97.9258431875,65.0,107.0
116,97.96575560000001,98.3323585,63.0,90.0
117,98.3205326,98.9280882125,60.0,90.0
118,99.3848636,99.630251025,63.0,95.0
119,99.7396406,100.05154871250001,65.0,97.0
120,100.0944176,100.4137169,67.0,97.0
121,100.4491946,100.801015125,63.0,99.0
122,100.8039716,101.11883618750001,65.0,93.0
123,101.1587486,102.02943048750001,67.0,102.0
124,102.2230796,102.5113359125,70.0,99.0
125,102.5778566,103.24010700000001,72.0,107.0
126,103.6421876,103.976269275,67.0,112.0
127,103.9969646,104.59417255,65.0,100.0
128,104.70651860000001,105.06720855,67.0,107.0
129,105.06129560000001,105.407203175,65.0,79.0
130,105.4160726,107.9113375,63.0,97.0
131,133.0886786,133.6563218,58.0,100.0
132,133.7982326,135.1656022875,70.0,127.0
133,135.2173406,135.799766175,70.0,127.0
134,135.9268946,136.4487124375,67.0,112.0
135,136.6364486,137.1257452125,65.0,122.0
136,137.3460026,137.5337387625,63.0,99.0
137,137.7007796,137.869298675,65.0,100.0
138,138.05555660000002,138.578852675,67.0,122.0
139,139.1198876,139.4111003875,65.0,107.0
140,139.4746646,140.074829025,63.0,107.0
141,140.1842186,140.50943085,63.0,112.0
142,140.5389956,140.843512525,55.0,127.0
143,140.8937726,141.677238475,58.0,102.0
144,141.7807151,142.1354921,60.0,102.0
145,142.1354921,142.422270175,63.0,95.0
146,142.4902691,143.3890375,58.0,88.0
147,145.15109660000002,145.9744748875,60.0,97.0
148,146.2154276,146.5569004625,58.0,92.0
149,146.5702046,147.22358557500002,60.0,102.0
150,147.2797586,147.625666175,63.0,99.0
151,147.9893126,148.323394275,65.0,107.0
152,148.34408960000002,148.5761728875,67.0,88.0
153,148.5214781,148.6737365625,65.0,83.0
154,148.6988666,148.9693840625,63.0,93.0
155,149.05364360000002,149.263553325,65.0,95.0
156,149.4084206,150.0159762125,67.0,107.0
157,150.4727516,150.65457481250002,70.0,100.0
158,150.8275286,151.1423931875,65.0,95.0
159,151.1823056,151.6198639,65.0,92.0
160,151.7144711,152.007162125,67.0,99.0
161,152.24663660000002,152.7477591125,70.0,100.0
162,153.1335791,153.5134861375,72.0,97.0
163,153.4883561,153.78991655000002,75.0,100.0
164,154.0205216,155.6524958,70.0,95.0
165,156.5039606,156.755260975,72.0,100.0
166,156.8587376,157.3923813375,72.0,107.0
167,157.5682916,157.8402873,70.0,96.0
168,157.9230686,158.4803641375,67.0,102.0
169,158.6326226,159.02879025000001,67.0,127.0
170,159.34217660000002,159.65999766250002,63.0,100.0
171,159.6969536,159.9645145875,65.0,93.0
172,160.0517306,160.30598745,67.0,102.0
173,160.4065076,160.699198625,70.0,89.0
174,160.7612846,161.67483537500001,67.0,122.0
175,162.1803926,162.390302325,65.0,100.0
176,162.53516960000002,163.0451615375,65.0,107.0
177,163.24472360000001,163.4472421375,63.0,127.0
178,163.5995006,163.9202781375,60.0,92.0
179,163.9542776,164.29131575,58.0,88.0
180,164.3090546,164.790960025,60.0,90.0
181,164.6638316,164.962435575,63.0,97.0
182,165.0186086,167.073358725,65.0,93.0
183,167.8568246,168.06525608750002,67.0,122.0
184,168.2116016,168.77037537500001,67.0,102.0
185,168.9211556,169.2744543625,65.0,97.0
186,169.2759326,169.5789712875,67.0,117.0
187,169.63070960000002,169.982530125,70.0,96.0
188,169.9854866,170.5812163125,67.0,99.0
189,170.6950406,171.00842695,65.0,117.0
190,171.0498176,171.2981615,67.0,107.0
191,171.4045946,171.715024475,65.0,107.0
192,171.7593716,172.0417149625,63.0,99.0
193,172.1141486,172.97300458750001,60.0,112.0
194,173.53325660000002,173.75794870000001,58.0,107.0
195,173.8880336,174.1482034,70.0,102.0
196,174.2428106,174.523675725,67.0,102.0
197,174.5975876,174.8621921125,65.0,100.0
198,174.7749761,174.97010345,67.0,102.0
199,174.9523646,175.28940275,70.0,107.0
200,175.3071416,175.5510507875,72.0,97.0
201,175.6619186,176.0403474,67.0,97.0
202,176.0166956,176.3522555125,65.0,99.0
203,176.3714726,177.44171655,63.0,100.0
204,179.2096886,179.6162039125,72.0,127.0
205,179.7418541,179.8246354,72.0,112.0
206,179.91924260000002,180.2666284125,72.0,100.0
207,180.4514081,180.6036665625,70.0,93.0
208,180.62879660000002,180.7337514625,67.0,100.0
209,180.9835736,181.4566096,67.0,122.0
210,182.0479046,182.22529310000002,65.0,96.0
211,182.4026816,182.9008476375,65.0,102.0
212,183.1122356,183.3029282375,63.0,92.0
213,183.4670126,183.98143925,60.0,100.0
214,183.9991781,184.1484800875,58.0,92.0
215,184.1765666,184.469257625,60.0,97.0
216,184.5313436,184.8343822875,63.0,107.0
217,184.8861206,187.01478260000002,65.0,97.0
218,187.72433660000002,188.150069,70.0,122.0
219,188.0791136,188.359978725,72.0,83.0
220,188.4338906,188.67632155,70.0,127.0
221,188.9660561,189.110923375,65.0,93.0
222,189.1434446,189.32674605,67.0,100.0
223,189.4982216,189.9609099375,67.0,107.0
224,190.2077756,190.4339459375,70.0,99.0
225,190.5625526,190.94689435,65.0,96.0
226,191.0947181,191.1760211625,65.0,83.0
227,191.2721066,191.582536475,65.0,90.0
228,191.6268836,191.8914881125,63.0,99.0
229,191.9816606,192.398523575,60.0,100.0
230,192.6912146,193.031209225,63.0,102.0
231,193.0459916,193.391899175,65.0,100.0
232,193.4007686,194.99135215,70.0,99.0
233,195.8842076,196.135507975,70.0,127.0
234,196.2389846,196.709064125,72.0,107.0
235,196.9485386,197.182100125,67.0,122.0
236,197.30331560000002,197.5516595,70.0,122.0
237,197.6580926,197.9788701375,72.0,127.0
238,198.3676466,198.67512,72.0,122.0
239,198.7224236,199.029897,75.0,97.0
240,199.0772006,199.23685025,70.0,99.0
241,199.2545891,199.4511946875,72.0,97.0
242,199.7867546,200.1282274625,70.0,107.0
243,200.1415316,200.511090975,67.0,90.0
244,200.4963086,201.350729875,65.0,90.0
245,201.91541660000001,202.4283650125,67.0,127.0
246,202.6249706,202.9398351875,65.0,107.0
247,202.9797476,203.3463505,63.0,90.0
248,203.3345246,203.9420802125,60.0,90.0
249,204.39885560000002,204.644243025,63.0,95.0
250,204.7536326,205.0655407125,65.0,97.0
251,205.10840960000002,205.4277089,67.0,97.0
252,205.4631866,205.815007125,63.0,99.0
253,205.8179636,206.1328281875,65.0,93.0
254,206.1727406,207.0434224875,67.0,102.0
255,207.2370716,207.52532791250002,70.0,99.0
256,207.5918486,208.254099,72.0,107.0
257,208.6561796,208.990261275,67.0,112.0
258,209.01095660000001,209.60816455,65.0,100.0
259,209.7205106,210.08120055,67.0,107.0
260,210.0752876,210.421195175,65.0,79.0
261,210.4300646,212.9253295,63.0,97.0
