,start,end,pitch,velocity
0,3.5434733,4.3885808125,80.0,99.0
1,4.5217328000000006,4.7622215937500005,82.0,98.0
2,4.8478193,6.03124155625,84.0,103.0
3,6.1521653,6.701077575,82.0,103.0
4,6.8043383,7.05026186875,82.0,101.0
5,7.069283581250001,7.173903,80.0,101.0
6,7.1834138562500005,7.28395719375,82.0,91.0
7,7.3043376,7.43884828125,80.0,79.0
8,7.479609093750001,8.51765111875,77.0,92.0
9,8.79754203125,9.4972693125,82.0,103.0
10,9.673899500000001,9.94563825,80.0,99.0
11,9.9918338375,10.4266158375,77.0,103.0
12,10.50949615625,10.884495631250001,72.0,106.0
13,10.979604193750001,11.232321231250001,77.0,108.0
14,11.3260711,13.56383970625,75.0,109.0
15,13.9782413,14.51492533125,80.0,99.0
16,14.6304143,14.87090309375,80.0,99.0
17,14.9565008,15.224163468750001,82.0,98.0
18,15.282587300000001,16.451063925,84.0,99.0
19,16.586933300000002,16.98910665,89.0,106.0
20,17.076063050000002,17.472801625,89.0,108.0
21,17.565192800000002,17.8478011,87.0,106.0
22,17.8912793,19.03394074375,84.0,99.0
23,19.1956253,19.72415716875,82.0,106.0
24,19.8477983,20.1005153375,82.0,103.0
25,20.1738848,20.41437359375,84.0,103.0
26,20.499971300000002,20.699699281250002,82.0,99.0
27,20.8260578,21.02578578125,84.0,103.0
28,21.1521443,21.39263309375,75.0,109.0
29,21.478230800000002,21.726871756250002,77.0,99.0
30,21.8043173,24.2961616375,80.0,96.0
31,27.6738743,27.99316733125,70.0,91.0
32,27.9999608,28.740448893750003,75.0,97.0
33,28.6521338,29.0026767875,70.0,83.0
34,28.9782203,29.3396328375,77.0,87.0
35,29.304306800000003,29.635828075000003,72.0,92.0
36,29.6303933,30.99044574375,75.0,93.0
37,42.9999398,43.255374225000004,70.0,92.0
38,43.3260263,43.6548301875,75.0,98.0
39,43.652112800000005,43.95781889375,77.0,94.0
40,43.9781993,44.350481387500004,75.0,92.0
41,44.3042858,44.50944855625,77.0,90.0
42,44.630372300000005,44.88716541875,84.0,98.0
43,44.9564588,45.196947593750004,82.0,93.0
44,45.2825453,46.3613481375,84.0,92.0
45,48.543410300000005,49.024387887500005,77.0,93.0
46,48.543410300000005,49.024387887500005,89.0,94.0
47,49.1955833,49.59368056875,75.0,93.0
48,49.1955833,49.62628921875,87.0,90.0
49,49.8477563,50.0678646875,84.0,93.0
50,49.8477563,50.07737554375,72.0,93.0
51,50.1738428,50.384440331250005,70.0,88.0
52,50.1738428,50.39802726875,82.0,82.0
53,50.499929300000005,51.614058175000004,72.0,92.0
54,50.499929300000005,51.662971150000004,84.0,86.0
55,53.434707800000005,53.702370468750004,87.0,93.0
56,53.7607943,53.98905485,84.0,96.0
57,54.0868808,54.320576125,80.0,94.0
58,54.412967300000005,55.36812900625,82.0,94.0
59,63.869475800000004,64.10996459375001,75.0,103.0
60,64.1955623,64.42110546250001,77.0,99.0
61,64.52164880000001,64.74039849375,80.0,96.0
62,64.8477353,65.092300175,82.0,94.0
63,65.1738218,65.40887581875,84.0,94.0
64,65.4999083,65.7254514625,87.0,98.0
65,65.8259948,66.07191836875,89.0,97.0
66,66.1520813,69.0868598,87.0,93.0
67,69.4129463,69.92381515,87.0,97.0
68,70.0651193,70.603162025,84.0,92.0
69,70.7172923,70.96865064375,84.0,95.0
70,71.0433788,71.34908489375,82.0,93.0
71,71.3694653,72.80832198125,80.0,88.0
72,71.3694653,73.733592425,89.0,94.0
73,74.30424380000001,74.47136313125,80.0,92.0
74,74.6303303,74.81918873125001,82.0,93.0
75,74.9564168,75.16565563750001,84.0,93.0
76,75.2825033,76.48766465625,82.0,95.0
77,73.9781573,76.5868493,87.0,92.0
78,76.5868493,78.94825903750001,87.0,92.0
79,80.17380080000001,80.45233301875,84.0,93.0
80,80.4998873,81.1520603,82.0,96.0
81,81.1520603,81.690103025,80.0,94.0
82,79.1955413,81.85178758125001,89.0,95.0
83,81.8042333,84.23493641875001,82.0,96.0
84,84.4129253,86.918356575,87.0,94.0
85,87.0216173,89.95639580000001,87.0,93.0
86,90.2824823,90.79335115,87.0,97.0
87,90.9346553,91.472698025,84.0,92.0
88,91.58682830000001,91.83818664375,84.0,95.0
89,91.91291480000001,92.21862089375,82.0,93.0
90,92.2390013,93.67785798125,80.0,88.0
91,92.2390013,94.60312842500001,89.0,94.0
92,95.1737798,95.34089913125,80.0,92.0
93,95.49986630000001,95.68872473125,82.0,93.0
94,95.82595280000001,96.0351916375,84.0,93.0
95,96.1520393,97.35720065625,82.0,95.0
96,94.8476933,97.45638530000001,87.0,92.0
97,97.45638530000001,99.8177950375,87.0,92.0
98,101.0433368,101.32186901875001,84.0,93.0
99,101.36942330000001,102.0215963,82.0,96.0
100,102.0215963,102.55963902500001,80.0,94.0
101,100.0650773,102.72132358125,89.0,95.0
102,102.6737693,105.10447241875,82.0,96.0
103,105.28246130000001,107.787892575,87.0,94.0
104,107.8911533,108.77158685,77.0,88.0
105,107.8911533,108.86126063750001,82.0,89.0
106,109.19549930000001,110.31913903125,87.0,94.0
107,110.4998453,112.84359201875,80.0,90.0
108,113.10853730000001,113.9536448125,80.0,99.0
109,114.0867968,114.32728559375,82.0,98.0
110,114.4128833,115.59630555625,84.0,103.0
111,115.7172293,116.266141575,82.0,103.0
112,116.3694023,116.61532586875,82.0,101.0
113,116.63434758125,116.738967,80.0,101.0
114,116.74847785625,116.84902119375,82.0,91.0
115,116.8694016,117.00391228125001,80.0,79.0
116,117.04467309375,118.08271511875,77.0,92.0
117,118.3259213,118.592225275,82.0,94.0
118,118.6520078,119.1873331375,82.0,99.0
119,119.23896350000001,119.51070225000001,80.0,99.0
120,119.5568978375,119.9916798375,77.0,103.0
121,120.07456015625,120.44955963125001,72.0,106.0
122,120.54466819375,120.79738523125,77.0,108.0
123,120.8911351,123.12890370625,75.0,109.0
124,123.5433053,124.07998933125,80.0,99.0
125,124.1954783,124.43596709375001,80.0,99.0
126,124.52156480000001,124.78922746875,82.0,98.0
127,124.84765130000001,126.016127925,84.0,99.0
128,126.1519973,126.55417065,89.0,106.0
129,126.64112705000001,127.03786562500001,89.0,108.0
130,127.1302568,127.4128651,87.0,106.0
131,127.4563433,128.59900474375002,84.0,99.0
132,128.7606893,129.28922116875,82.0,106.0
133,129.4128623,129.6655793375,82.0,103.0
134,129.7389488,129.97943759375,84.0,103.0
135,130.0650353,130.26476328125,82.0,99.0
136,130.3911218,130.59084978125,84.0,103.0
137,130.7172083,130.95769709375,75.0,109.0
138,131.0432948,131.29193575625,77.0,99.0
139,131.69546780000002,131.983510875,75.0,93.0
140,132.0215543,132.3829668375,70.0,89.0
141,132.3476408,132.68323815625,72.0,87.0
142,132.6737273,133.83269306875002,68.0,90.0
143,131.36938130000001,133.8612256375,80.0,96.0
144,133.9780733,135.0568761375,84.0,92.0
145,137.2389383,137.7199158875,77.0,93.0
146,137.2389383,137.7199158875,89.0,94.0
147,137.8911113,138.28920856875,75.0,93.0
148,137.8911113,138.32181721875,87.0,90.0
149,138.5432843,138.76339268750002,84.0,93.0
150,138.5432843,138.77290354375,72.0,93.0
151,138.8693708,139.07996833125,70.0,88.0
152,138.8693708,139.09355526875,82.0,82.0
153,139.19545730000002,140.309586175,72.0,92.0
154,139.19545730000002,140.35849915,84.0,86.0
155,142.1302358,142.39789846875001,87.0,93.0
156,142.4563223,142.68458285,84.0,96.0
157,142.7824088,143.016104125,80.0,94.0
158,143.10849530000002,144.06365700625,82.0,94.0
159,149.2688127625,149.44680164375,70.0,94.0
160,149.44136686875,149.58267101875,72.0,94.0
161,149.60848620000002,150.9209843625,70.0,94.0
162,152.84353601875,153.1981550875,70.0,93.0
163,153.16690513125002,153.49027424375,75.0,94.0
164,153.47396991875002,153.7796760125,77.0,94.0
165,153.80549119375002,154.0948929625,75.0,108.0
166,154.14516463125,154.396522975,84.0,97.0
167,154.4644576625,154.70494645625,82.0,95.0
168,154.79462024375002,156.4861939625,80.0,96.0
169,158.124778625,158.65331049375,89.0,99.0
170,158.74026689375,159.24977705,87.0,97.0
171,159.385646425,159.59488526250001,84.0,96.0
172,159.69406990625,159.929123925,82.0,93.0
173,160.02287379375,161.5622738125,84.0,94.0
174,162.97667400625,163.179119375,87.0,96.0
175,163.298684425,163.5242275875,84.0,98.0
176,163.62612961875,163.88156404375002,80.0,96.0
177,163.94542265,165.13699706875002,82.0,94.0
178,169.47123013125,169.72122978125,77.0,101.0
179,169.8041101,170.00247938750002,80.0,96.0
180,170.1057401125,170.34079413125,84.0,96.0
181,170.44541355,171.29867322500002,82.0,93.0
182,171.43454260000001,171.55546634375,82.0,94.0
183,171.6220423375,171.74296608125002,84.0,99.0
184,171.81090076875,172.6166061625,82.0,98.0
185,172.7579103125,172.961714375,75.0,103.0
186,173.05002946875,173.45220281875,80.0,92.0
187,173.4345398,173.67502859375,75.0,103.0
188,173.7606263,173.98616946250002,77.0,99.0
189,174.08671280000002,174.30546249375,80.0,96.0
190,174.41279930000002,174.657364175,82.0,94.0
191,174.73888580000002,174.97393981875,84.0,94.0
192,175.0649723,175.2905154625,87.0,98.0
193,175.3910588,175.63698236875,89.0,97.0
194,175.7171453,178.65192380000002,87.0,93.0
195,178.9780103,179.48887915,87.0,97.0
196,179.6301833,180.168226025,84.0,92.0
197,180.2823563,180.53371464375002,84.0,95.0
198,180.6084428,180.91414889375,82.0,93.0
199,180.9345293,182.37338598125,80.0,88.0
200,180.9345293,183.29865642500002,89.0,94.0
201,183.8693078,184.03642713125,80.0,92.0
202,184.1953943,184.38425273125,82.0,93.0
203,184.5214808,184.73071963750002,84.0,93.0
204,184.8475673,186.05272865625,82.0,95.0
205,183.5432213,186.15191330000002,87.0,92.0
206,186.15191330000002,188.51332303750002,87.0,92.0
207,189.73886480000002,190.01739701875002,84.0,93.0
208,190.06495130000002,190.7171243,82.0,96.0
209,190.7171243,191.25516702500002,80.0,94.0
210,188.7606053,191.41685158125,89.0,95.0
211,191.3692973,193.80000041875002,82.0,96.0
212,193.97798930000002,196.483420575,87.0,94.0
213,196.5866813,199.5214598,87.0,93.0
214,199.8475463,200.35841515,87.0,97.0
215,200.4997193,201.037762025,84.0,92.0
216,201.15189230000001,201.40325064375,84.0,95.0
217,201.47797880000002,201.78368489375,82.0,93.0
218,201.80406530000002,203.24292198125002,80.0,88.0
219,201.80406530000002,204.168192425,89.0,94.0
220,204.7388438,204.90596313125002,80.0,92.0
221,205.06493030000001,205.25378873125,82.0,93.0
222,205.39101680000002,205.6002556375,84.0,93.0
223,205.71710330000002,206.92226465625,82.0,95.0
224,204.4127573,207.0214493,87.0,92.0
225,207.0214493,209.3828590375,87.0,92.0
226,210.6084008,210.88693301875,84.0,93.0
227,210.9344873,211.5866603,82.0,96.0
228,211.5866603,212.124703025,80.0,94.0
229,209.63014130000002,212.28638758125,89.0,95.0
230,212.2388333,214.66953641875,82.0,96.0
231,214.8475253,217.352956575,87.0,94.0
232,217.45621730000002,218.33665085,77.0,88.0
233,217.45621730000002,218.42632463750002,82.0,89.0
234,218.7605633,219.88420303125,87.0,94.0
235,220.0649093,222.40865601875,80.0,90.0
