,start,end,pitch,velocity
0,24.413009300000002,24.604585118750002,63.0,94.0
1,24.7390958,24.911649906250002,63.0,93.0
2,25.0651823,25.3043124,63.0,93.0
3,25.391268800000002,25.62904020625,65.0,94.0
4,25.7173553,26.6086584,68.0,89.0
5,26.6956148,26.97414701875,65.0,94.0
6,27.0217013,29.080122331250003,63.0,93.0
7,29.6303933,29.819251731250002,63.0,94.0
8,29.9564798,30.133109987500003,63.0,93.0
9,30.282566300000003,30.482294281250002,63.0,94.0
10,30.6086528,30.80838078125,65.0,96.0
11,30.9347393,31.30022791875,75.0,96.0
12,31.42386905,31.739086,72.0,93.0
13,31.9129988,32.16435714375,68.0,92.0
14,32.2390853,33.70647455,70.0,90.0
15,34.1956043,34.4265822375,70.0,90.0
16,34.5216908,34.71054923125,72.0,95.0
17,34.847777300000004,35.67522179375,75.0,99.0
18,35.826036800000004,36.03119955625,77.0,94.0
19,36.1521233,36.3504925875,77.0,98.0
20,36.4782098,36.64125305,75.0,98.0
21,36.804296300000004,37.035274237500005,72.0,98.0
22,37.1303828,37.3450564125,75.0,97.0
23,37.4564693,38.2744029375,70.0,96.0
24,38.4347288,38.69695669375,68.0,88.0
25,38.760815300000004,39.51217294375,65.0,98.0
26,40.0651613,40.222769775,70.0,96.0
27,40.3912478,40.55836713125,70.0,93.0
28,40.717334300000005,40.8939644875,70.0,93.0
29,41.0434208,41.247224862500005,72.0,94.0
30,41.3695073,41.86543051875,70.0,96.0
31,42.0216803,42.21325611875,68.0,92.0
32,42.3477668,42.5733099625,65.0,97.0
33,42.673853300000005,44.74314388125,63.0,96.0
34,45.2825453,45.47412111875,63.0,94.0
35,45.608631800000005,45.78118590625,63.0,93.0
36,45.9347183,46.173848400000004,63.0,93.0
37,46.2608048,46.49857620625,65.0,94.0
38,46.586891300000005,47.4781944,68.0,89.0
39,47.565150800000005,47.84368301875,65.0,94.0
40,47.8912373,49.94965833125,63.0,93.0
41,50.499929300000005,50.68878773125,63.0,94.0
42,50.8260158,51.0026459875,63.0,93.0
43,51.1521023,51.35183028125,63.0,94.0
44,51.478188800000005,51.677916781250005,65.0,96.0
45,51.8042753,52.16976391875,75.0,96.0
46,52.293405050000004,52.608622000000004,72.0,93.0
47,52.7825348,53.03389314375,68.0,92.0
48,53.1086213,54.57601055,70.0,90.0
49,55.0651403,55.2961182375,70.0,90.0
50,55.391226800000005,55.58008523125,72.0,95.0
51,55.7173133,56.0433998,75.0,99.0
52,56.0433998,56.54475779375,75.0,99.0
53,56.6955728,56.900735556250005,77.0,94.0
54,57.0216593,57.2200285875,77.0,98.0
55,57.347745800000006,57.51078905,75.0,98.0
56,57.6738323,57.9048102375,72.0,98.0
57,57.9999188,58.214592412500004,75.0,97.0
58,58.326005300000006,59.1439389375,70.0,96.0
59,59.304264800000006,59.56649269375,68.0,88.0
60,59.6303513,60.38170894375,65.0,98.0
61,60.9346973,61.092305775,70.0,96.0
62,61.2607838,61.427903131250005,70.0,93.0
63,61.5868703,61.7635004875,70.0,93.0
64,61.9129568,62.1167608625,72.0,94.0
65,62.2390433,62.73496651875,70.0,96.0
66,62.8912163,63.08279211875,68.0,92.0
67,63.2173028,63.4428459625,65.0,97.0
68,63.5433893,65.61267988125,68.0,96.0
69,66.1520813,66.36811360625,75.0,108.0
70,66.47816780000001,66.9700149375,75.0,103.0
71,67.1303408,67.35996004375001,77.0,97.0
72,67.4564273,67.99039394375001,80.0,94.0
73,68.1086003,68.657512575,77.0,98.0
74,68.7607733,70.75533572500001,75.0,99.0
75,71.3694653,71.56375850625,77.0,96.0
76,71.6955518,71.8694646,77.0,93.0
77,72.0216383,72.2526162375,77.0,96.0
78,72.34772480000001,72.56103971875,75.0,98.0
79,72.6738113,73.1928323125,72.0,98.0
80,73.3259843,73.54065791250001,65.0,96.0
81,73.6520708,73.8504400875,68.0,93.0
82,73.9781573,75.6085898,70.0,93.0
83,75.9346763,76.14119775,70.0,98.0
84,76.26076280000001,76.46592555625,72.0,98.0
85,76.5868493,76.77027295625,75.0,97.0
86,76.9129358,77.08548990625,75.0,101.0
87,77.2390223,77.4129351,75.0,96.0
88,77.5651088,77.75396723125,72.0,93.0
89,77.8911953,78.10994499375,70.0,96.0
90,78.21728180000001,78.71863979375,72.0,96.0
91,78.8694548,79.0949979625,67.0,93.0
92,79.1955413,80.84091943125,65.0,96.0
93,81.1520603,81.34091873125,65.0,103.0
94,81.4781468,81.67244000625,68.0,93.0
95,81.8042333,81.994450425,70.0,94.0
96,82.13031980000001,82.31374345625001,70.0,94.0
97,82.4564063,82.65069950625,70.0,94.0
98,82.7824928,82.97135123125,72.0,94.0
99,83.1085793,83.342274625,70.0,95.0
100,83.4346658,83.9781433,80.0,94.0
101,84.08683880000001,84.3015124125,77.0,94.0
102,84.4129253,86.304227,75.0,99.0
103,87.0216173,87.1955301,75.0,98.0
104,87.3477038,87.83955093750001,75.0,108.0
105,87.99987680000001,88.22813735,77.0,96.0
106,88.3259633,88.86400602500001,80.0,92.0
107,88.9781363,89.565092,77.0,93.0
108,89.63030930000001,91.407480725,75.0,94.0
109,92.2390013,92.41699018125,77.0,93.0
110,92.5650878,92.74443537500001,77.0,93.0
111,92.8911743,93.0841088125,77.0,99.0
112,93.2172608,93.41698878125,75.0,96.0
113,93.54334730000001,94.03519443750001,72.0,96.0
114,94.1955203,94.40611783125,65.0,99.0
115,94.5216068,94.777041225,68.0,94.0
116,94.8476933,96.7743210375,70.0,93.0
117,96.8042123,97.05013586875,70.0,94.0
118,97.1302988,97.35176588125,72.0,94.0
119,97.45638530000001,97.65203720000001,75.0,94.0
120,97.78247180000001,97.96046068125,75.0,94.0
121,98.1085583,98.31372105625,75.0,96.0
122,98.4346448,98.62350323125,72.0,95.0
123,98.7607313,99.00937225625,70.0,96.0
124,99.0868178,99.64524093125,72.0,93.0
125,99.73899080000001,99.98763175625001,67.0,93.0
126,100.0650773,101.75393363125,65.0,94.0
127,102.0215963,102.25121554375,65.0,96.0
128,102.3476828,102.581378125,68.0,93.0
129,102.6737693,102.8830081375,70.0,93.0
130,102.9998558,103.16289905000001,70.0,94.0
131,103.32594230000001,103.55556154375,70.0,93.0
132,103.65202880000001,103.87077849375001,68.0,94.0
133,103.9781153,104.19414760625,70.0,96.0
134,104.3042018,104.78517938750001,80.0,92.0
135,104.9563748,105.20773314375,77.0,92.0
136,105.28246130000001,106.80963307500001,75.0,96.0
137,107.23898030000001,107.37077359375,65.0,108.0
138,107.56506680000001,107.73354482500001,68.0,93.0
139,107.8911533,108.07185956875,70.0,93.0
140,108.2172398,108.39522868125,70.0,92.0
141,108.5433263,108.74305428125001,70.0,93.0
142,108.8694128,109.10990159375001,72.0,93.0
143,109.19549930000001,109.4808249875,75.0,98.0
144,109.5215858,109.94957433125,72.0,93.0
145,110.1737588,110.4998453,70.0,94.0
146,110.4998453,112.97674400625,68.0,92.0
147,133.9780733,134.16964911875002,63.0,94.0
148,134.3041598,134.47671390625,63.0,93.0
149,134.6302463,134.8693764,63.0,93.0
150,134.9563328,135.19410420625002,65.0,94.0
151,135.28241930000002,136.1737224,68.0,89.0
152,136.2606788,136.53921101875,65.0,94.0
153,136.5867653,138.64518633125002,63.0,93.0
154,139.19545730000002,139.38431573125,63.0,94.0
155,139.52154380000002,139.6981739875,63.0,93.0
156,139.8476303,140.04735828125,63.0,94.0
157,140.1737168,140.37344478125002,65.0,96.0
158,140.4998033,140.86529191875002,75.0,96.0
159,140.98893305,141.30415,72.0,93.0
160,141.4780628,141.72942114375002,68.0,92.0
161,141.8041493,143.27153855,70.0,90.0
162,143.7606683,143.9916462375,70.0,90.0
163,144.0867548,144.27561323125,72.0,95.0
164,144.4128413,145.24028579375002,75.0,99.0
165,145.3911008,145.59626355625,77.0,94.0
166,145.7171873,145.9155565875,77.0,98.0
167,146.0432738,146.20631705,75.0,98.0
168,146.3693603,146.6003382375,72.0,98.0
169,146.6954468,146.9101204125,75.0,97.0
170,147.02153330000002,147.8394669375,70.0,96.0
171,147.9997928,148.26202069375,68.0,88.0
172,148.3258793,149.07723694375,65.0,98.0
173,149.6302253,149.787833775,70.0,96.0
174,149.9563118,150.12343113125002,70.0,93.0
175,150.2823983,150.4590284875,70.0,93.0
176,150.6084848,150.8122888625,72.0,94.0
177,150.93457130000002,151.43049451875,70.0,96.0
178,151.5867443,151.77832011875,68.0,92.0
179,151.9128308,152.1383739625,65.0,97.0
180,152.2389173,154.30820788125,63.0,96.0
181,154.84760930000002,155.03918511875,63.0,94.0
182,155.17369580000002,155.34624990625,63.0,93.0
183,155.4997823,155.7389124,63.0,93.0
184,155.8258688,156.06364020625,65.0,94.0
185,156.1519553,157.0432584,68.0,89.0
186,157.1302148,157.40874701875,65.0,94.0
187,157.4563013,159.51472233125,63.0,93.0
188,160.0649933,160.25385173125,63.0,94.0
189,160.3910798,160.5677099875,63.0,93.0
190,160.7171663,160.91689428125,63.0,94.0
191,161.0432528,161.24298078125,65.0,96.0
192,161.3693393,161.73482791875,75.0,96.0
193,161.85846905,162.173686,72.0,93.0
194,162.34759880000001,162.59895714375,68.0,92.0
195,162.67368530000002,164.14107455,70.0,90.0
196,164.6302043,164.8611822375,70.0,90.0
197,164.9562908,165.14514923125,72.0,95.0
198,165.2823773,166.26063680000001,75.0,99.0
199,166.26063680000001,166.46579955625,77.0,94.0
200,166.58672330000002,166.7850925875,77.0,98.0
201,166.91280980000002,167.07585305,75.0,98.0
202,167.2388963,167.4698742375,72.0,98.0
203,167.5649828,167.7796564125,75.0,97.0
204,167.8910693,168.7090029375,70.0,96.0
205,168.8693288,169.13155669375,68.0,88.0
206,169.1954153,169.94677294375,65.0,98.0
207,170.49976130000002,170.657369775,70.0,96.0
208,170.82584780000002,170.99296713125,70.0,93.0
209,171.1519343,171.32856448750002,70.0,93.0
210,171.4780208,171.6818248625,72.0,94.0
211,171.8041073,172.30003051875002,70.0,96.0
212,172.4562803,172.64785611875,68.0,92.0
213,172.7823668,173.0079099625,65.0,97.0
214,173.1084533,175.17774388125,68.0,96.0
215,175.7171453,175.93317760625,75.0,108.0
216,176.0432318,176.5350789375,75.0,103.0
217,176.6954048,176.92502404375,77.0,97.0
218,177.0214913,177.55545794375,80.0,94.0
219,177.6736643,178.222576575,77.0,98.0
220,178.32583730000002,180.32039972500002,75.0,99.0
221,180.9345293,181.12882250625,77.0,96.0
222,181.2606158,181.4345286,77.0,93.0
223,181.5867023,181.8176802375,77.0,96.0
224,181.91278880000002,182.12610371875002,75.0,98.0
225,182.23887530000002,182.7578963125,72.0,98.0
226,182.8910483,183.1057219125,65.0,96.0
227,183.2171348,183.4155040875,68.0,93.0
228,183.5432213,185.1736538,70.0,93.0
229,185.4997403,185.70626175,70.0,98.0
230,185.82582680000002,186.03098955625,72.0,98.0
231,186.15191330000002,186.33533695625002,75.0,97.0
232,186.47799980000002,186.65055390625,75.0,101.0
233,186.8040863,186.9779991,75.0,96.0
234,187.1301728,187.31903123125,72.0,93.0
235,187.4562593,187.67500899375,70.0,96.0
236,187.7823458,188.28370379375,72.0,96.0
237,188.4345188,188.6600619625,67.0,93.0
238,188.7606053,190.40598343125,65.0,96.0
239,190.7171243,190.90598273125002,65.0,103.0
240,191.0432108,191.23750400625002,68.0,93.0
241,191.3692973,191.559514425,70.0,94.0
242,191.6953838,191.87880745625,70.0,94.0
243,192.0214703,192.21576350625,70.0,94.0
244,192.3475568,192.53641523125,72.0,94.0
245,192.6736433,192.907338625,70.0,95.0
246,192.9997298,193.5432073,80.0,94.0
247,193.65190280000002,193.8665764125,77.0,94.0
248,193.97798930000002,195.869291,75.0,99.0
249,196.5866813,196.76059410000002,75.0,98.0
250,196.9127678,197.4046149375,75.0,108.0
251,197.56494080000002,197.79320135,77.0,96.0
252,197.89102730000002,198.42907002500002,80.0,92.0
253,198.5432003,199.130156,77.0,93.0
254,199.1953733,200.972544725,75.0,94.0
255,201.80406530000002,201.98205418125002,77.0,93.0
256,202.13015180000002,202.309499375,77.0,93.0
257,202.4562383,202.6491728125,77.0,99.0
258,202.7823248,202.98205278125002,75.0,96.0
259,203.1084113,203.6002584375,72.0,96.0
260,203.7605843,203.97118183125002,65.0,99.0
261,204.0866708,204.342105225,68.0,94.0
262,204.4127573,206.3393850375,70.0,93.0
263,206.3692763,206.61519986875,70.0,94.0
264,206.6953628,206.91682988125,72.0,94.0
265,207.0214493,207.2171012,75.0,94.0
266,207.3475358,207.52552468125,75.0,94.0
267,207.6736223,207.87878505625,75.0,96.0
268,207.9997088,208.18856723125,72.0,95.0
269,208.3257953,208.57443625625,70.0,96.0
270,208.6518818,209.21030493125,72.0,93.0
271,209.30405480000002,209.55269575625002,67.0,93.0
272,209.63014130000002,211.31899763125,65.0,94.0
273,211.5866603,211.81627954375,65.0,96.0
274,211.9127468,212.14644212500002,68.0,93.0
275,212.2388333,212.44807213750002,70.0,93.0
276,212.5649198,212.72796305,70.0,94.0
277,212.89100630000002,213.12062554375,70.0,93.0
278,213.21709280000002,213.43584249375002,68.0,94.0
279,213.54317930000002,213.75921160625,70.0,96.0
280,213.8692658,214.3502433875,80.0,92.0
281,214.5214388,214.77279714375,77.0,92.0
282,214.8475253,216.374697075,75.0,96.0
283,216.80404430000002,216.93583759375,65.0,108.0
284,217.13013080000002,217.298608825,68.0,93.0
285,217.45621730000002,217.63692356875,70.0,93.0
286,217.7823038,217.96029268125,70.0,92.0
287,218.1083903,218.30811828125002,70.0,93.0
288,218.4344768,218.67496559375002,72.0,93.0
289,218.7605633,219.0458889875,75.0,98.0
290,219.0866498,219.51463833125,72.0,93.0
291,219.7388228,220.0649093,70.0,94.0
292,220.0649093,221.6953418,68.0,92.0
293,222.09343906875,222.33800394375,65.0,101.0
294,222.40593863125,222.646427425,68.0,92.0
295,222.755122925,222.94941613125002,70.0,90.0
296,223.05811163125,223.25648091875001,70.0,90.0
297,223.3828394375,223.59615435625,70.0,94.0
298,223.74017589375,224.07441455625002,72.0,94.0
299,224.16272965000002,224.4697944375,75.0,99.0
300,224.59071818125,225.0078371625,72.0,94.0
301,225.14642392500002,226.80810638125,70.0,93.0
302,227.50239888750002,228.37739766250002,65.0,99.0
303,228.3447890125,232.61516346875,68.0,92.0
