,start,end,pitch,velocity
0,13.461296062499999,13.816950468749999,73.0,93.0
1,13.818438562499999,14.1755810625,73.0,100.0
2,14.1755810625,14.352664218749998,78.0,98.0
3,14.354152312499998,14.889866062499998,78.0,100.0
4,14.889866062499998,15.247008562499998,69.0,106.0
5,15.247008562499998,15.604151062499998,71.0,100.0
6,15.604151062499998,15.781234218749999,73.0,98.0
7,15.782722312499999,19.174087968749998,73.0,110.0
8,19.1755760625,19.53123046875,73.0,104.0
9,19.532718562499998,19.889861062499996,73.0,102.0
10,19.889861062499996,20.06694421875,78.0,94.0
11,20.068432312499997,20.782717312499997,78.0,102.0
12,20.782717312499997,20.959800468749997,76.0,87.0
13,20.9612885625,21.497002312499998,76.0,91.0
14,21.497002312499998,21.6755735625,74.0,87.0
15,21.6755735625,24.888367968749996,73.0,90.0
16,24.889856062499998,25.24551046875,73.0,100.0
17,25.246998562499996,25.6041410625,73.0,100.0
18,25.6041410625,26.3184260625,78.0,100.0
19,26.3184260625,26.675568562499997,69.0,97.0
20,26.675568562499997,27.032711062499995,71.0,100.0
21,27.032711062499995,30.602647968749995,73.0,104.0
22,30.604136062499997,30.959790468749997,73.0,91.0
23,30.961278562499995,31.318421062499997,73.0,92.0
24,31.318421062499997,31.496992312499998,69.0,93.0
25,31.496992312499998,32.03121796875,74.0,89.0
26,32.0327060625,32.388360468749994,74.0,91.0
27,32.3898485625,32.746991062499994,74.0,100.0
28,32.746991062499994,33.104133562499996,73.0,91.0
29,33.104133562499996,36.3184160625,69.0,91.0
30,36.3184160625,36.674070468749996,73.0,91.0
31,36.675558562499994,37.032701062499996,73.0,88.0
32,37.032701062499996,37.209784218749995,78.0,91.0
33,37.21127231249999,37.74698606249999,78.0,94.0
34,37.74698606249999,38.104128562499994,69.0,90.0
35,38.104128562499994,38.461271062499996,71.0,88.0
36,38.461271062499996,38.638354218749996,73.0,90.0
37,38.639842312499994,42.031207968749996,73.0,91.0
38,42.032696062499994,42.38835046875,73.0,96.0
39,42.389838562499996,42.7469810625,73.0,91.0
40,42.7469810625,42.92406421875,78.0,96.0
41,42.925552312499995,43.63983731249999,78.0,96.0
42,43.63983731249999,43.81692046875,76.0,92.0
43,43.8184085625,44.354122312499996,76.0,89.0
44,44.354122312499996,44.55799115625,74.0,90.0
45,44.53269356249999,47.74548796874999,73.0,88.0
46,47.746976062499996,48.10263046874999,73.0,100.0
47,48.10411856249999,48.46126106249999,73.0,91.0
48,48.46126106249999,49.1755460625,78.0,107.0
49,49.1755460625,49.53268856249999,69.0,103.0
50,49.53268856249999,49.889831062499994,71.0,108.0
51,49.889831062499994,53.45976796874999,73.0,108.0
52,53.46125606249999,53.816910468749995,73.0,102.0
53,53.81839856249999,54.175541062499995,73.0,98.0
54,54.175541062499995,54.5326835625,69.0,100.0
55,54.5326835625,54.888337968749994,74.0,106.0
56,54.88982606249999,55.06690921874999,74.0,103.0
57,55.0683973125,55.604111062499996,74.0,106.0
58,55.604111062499996,55.96125356249999,73.0,100.0
59,55.96125356249999,57.74696606249999,69.0,107.0
60,57.74696606249999,58.104108562499995,76.0,113.0
61,58.104108562499995,58.46125106249999,78.0,104.0
62,58.46125106249999,58.81839356249999,80.0,108.0
63,58.81839356249999,59.174047968749996,81.0,113.0
64,59.175536062499994,59.35261921874999,81.0,100.0
65,59.35410731249999,59.71124981249999,81.0,100.0
66,59.71124981249999,59.88982106249999,76.0,110.0
67,59.88982106249999,60.245475468749994,78.0,102.0
68,60.24696356249999,60.961248562499996,78.0,110.0
69,60.961248562499996,61.31839106249999,76.0,107.0
70,61.31839106249999,61.496962312499996,74.0,91.0
71,61.496962312499996,62.03118796874999,73.0,96.0
72,62.032676062499995,62.38833046874999,73.0,106.0
73,62.38981856249999,62.74547296874999,73.0,108.0
74,62.74696106249999,62.925532312499996,73.0,93.0
75,62.925532312499996,63.461246062499995,71.0,92.0
76,63.461246062499995,63.81838856249999,76.0,110.0
77,63.81838856249999,64.1755310625,78.0,104.0
78,64.1755310625,64.5326735625,80.0,113.0
79,64.5326735625,64.88832796874999,81.0,109.0
80,64.88981606249999,65.06689921875,81.0,113.0
81,65.0683873125,65.42552981249999,81.0,113.0
82,65.42552981249999,65.60410106249999,76.0,98.0
83,65.60410106249999,65.95975546874999,78.0,107.0
84,65.96124356249999,66.67404046875,78.0,110.0
85,66.67552856249999,67.03267106249999,78.0,108.0
86,67.03267106249999,67.20975421874999,81.0,103.0
87,67.21124231249999,67.74546796874999,81.0,109.0
88,67.74695606249999,68.10261046874999,81.0,116.0
89,68.1040985625,68.4612410625,81.0,116.0
90,68.4612410625,68.63832421874999,83.0,107.0
91,68.6398123125,69.35409731249999,83.0,114.0
92,69.35409731249999,69.53266856249999,76.0,110.0
93,69.53266856249999,69.88981106249999,78.0,110.0
94,69.88981106249999,70.2469535625,80.0,108.0
95,70.2469535625,70.60409606249999,81.0,113.0
96,70.60409606249999,70.7945720625,80.0,104.0
97,70.7826673125,71.13980981249999,81.0,103.0
98,71.13980981249999,71.67552356249999,85.0,113.0
99,71.67552356249999,72.21123731249999,90.0,117.0
100,72.21123731249999,72.74695106249999,88.0,117.0
101,72.74695106249999,73.1040935625,86.0,119.0
102,73.1040935625,73.81689046874999,85.0,119.0
103,73.81837856249999,74.1755210625,85.0,116.0
104,74.1755210625,75.2469485625,83.0,116.0
105,75.2469485625,75.60409106249999,78.0,116.0
106,75.60409106249999,75.9612335625,80.0,108.0
107,75.9612335625,76.67403046874999,81.0,113.0
108,76.67551856249999,77.0326610625,81.0,119.0
109,77.0326610625,77.21123231249999,83.0,113.0
110,77.21123231249999,77.92402921875,81.0,116.0
111,77.92551731249999,78.1040885625,81.0,113.0
112,78.1040885625,78.46123106249999,80.0,108.0
113,78.46123106249999,78.6398023125,81.0,109.0
114,78.6398023125,79.5267061875,83.0,114.0
115,79.5267061875,79.88831296874999,81.0,113.0
116,79.88980106249998,80.7350383125,81.0,116.0
117,93.46121606249999,93.81687046874998,73.0,93.0
118,93.8183585625,94.17550106249999,73.0,100.0
119,94.17550106249999,94.35258421875,78.0,98.0
120,94.3540723125,94.8897860625,78.0,100.0
121,94.8897860625,95.24692856249999,69.0,106.0
122,95.24692856249999,95.60407106249998,71.0,100.0
123,95.60407106249998,95.78115421874999,73.0,98.0
124,95.78264231249999,99.17400796874999,73.0,110.0
125,99.17549606249999,99.53115046874998,73.0,104.0
126,99.53263856249998,99.88978106249999,73.0,102.0
127,99.88978106249999,100.06686421874998,78.0,94.0
128,100.06835231249998,100.78263731249999,78.0,102.0
129,100.78263731249999,100.95972046874999,76.0,87.0
130,100.96120856249999,101.49692231249999,76.0,91.0
131,101.49692231249999,101.6754935625,74.0,87.0
132,101.6754935625,104.88828796874999,73.0,90.0
133,104.88977606249999,105.06685921874998,73.0,100.0
134,105.0683473125,105.24543046874999,73.0,100.0
135,105.24691856249999,105.6040610625,73.0,100.0
136,105.6040610625,106.31834606249998,78.0,100.0
137,106.31834606249998,106.49542921874999,69.0,97.0
138,106.49691731249999,106.6754885625,69.0,97.0
139,106.6754885625,107.03263106249999,71.0,100.0
140,107.03263106249999,110.60256796875,73.0,104.0
141,110.60405606249999,110.95971046874999,73.0,91.0
142,110.96119856249999,111.31834106249998,73.0,92.0
143,111.31834106249998,111.67548356249999,69.0,93.0
144,111.67548356249999,112.03113796874999,74.0,89.0
145,112.03262606249999,112.20970921874999,74.0,91.0
146,112.21119731249999,112.74691106249999,74.0,100.0
147,112.74691106249999,113.10405356249998,73.0,91.0
148,113.10405356249998,113.81833856249999,69.0,91.0
149,114.88976606249999,115.24690856249998,76.0,113.0
150,115.24690856249998,115.60405106249999,78.0,104.0
151,115.60405106249999,115.96119356249999,80.0,108.0
152,115.96119356249999,116.31684796874998,81.0,113.0
153,116.31833606249998,116.49541921874999,81.0,100.0
154,116.49690731249999,116.85404981249998,81.0,100.0
155,116.85404981249998,117.03262106249998,76.0,110.0
156,117.03262106249998,117.38827546874998,78.0,102.0
157,117.3897635625,118.10404856249998,78.0,110.0
158,118.10404856249998,118.46119106249999,76.0,107.0
159,118.46119106249999,118.63976231249998,74.0,91.0
160,118.63976231249998,119.17398796874998,73.0,96.0
161,119.17547606249998,119.53113046874999,73.0,106.0
162,119.53261856249999,119.88827296874999,73.0,108.0
163,119.88976106249999,120.06833231249999,73.0,93.0
164,120.06833231249999,120.60404606249999,71.0,92.0
165,120.60404606249999,120.96118856249998,76.0,110.0
166,120.96118856249998,121.3183310625,78.0,104.0
167,121.3183310625,121.67547356249999,80.0,113.0
168,121.67547356249999,122.03112796874998,81.0,109.0
169,122.03261606249998,122.20969921874999,81.0,113.0
170,122.21118731249999,122.56832981249998,81.0,113.0
171,122.56832981249998,122.74690106249999,76.0,98.0
172,122.74690106249999,123.10255546874998,78.0,107.0
173,123.10404356249998,123.81684046874999,78.0,110.0
174,123.81832856249999,124.17547106249998,78.0,108.0
175,124.17547106249998,124.35255421874999,81.0,103.0
176,124.35404231249998,124.88826796874999,81.0,109.0
177,124.88975606249998,125.24541046874998,81.0,116.0
178,125.24689856249998,125.60404106249999,81.0,116.0
179,125.60404106249999,125.78112421874998,83.0,107.0
180,125.78261231249999,126.49689731249998,83.0,114.0
181,126.49689731249998,126.67546856249999,76.0,110.0
182,126.67546856249999,127.03261106249998,78.0,110.0
183,127.03261106249998,127.38975356249999,80.0,108.0
184,127.38975356249999,127.74689606249999,81.0,113.0
185,127.74689606249999,127.93737206249999,80.0,104.0
186,127.92546731249999,128.2826098125,81.0,103.0
187,128.2826098125,128.81832356249998,85.0,113.0
188,128.81832356249998,129.3540373125,90.0,117.0
189,129.3540373125,129.88975106249998,88.0,117.0
190,129.88975106249998,130.2468935625,86.0,119.0
191,130.2468935625,130.95969046874998,85.0,119.0
192,130.96117856249998,131.3183210625,85.0,116.0
193,131.3183210625,132.3897485625,83.0,116.0
194,132.3897485625,132.7468910625,78.0,116.0
195,132.7468910625,133.10403356249998,80.0,108.0
196,133.10403356249998,133.63825921875,81.0,113.0
197,133.6397473125,133.85254471874998,81.0,119.0
198,133.8183185625,133.85254471874998,81.0,119.0
199,134.17546106249998,134.5326035625,83.0,113.0
200,134.5326035625,135.06682921874997,81.0,116.0
201,135.06831731249997,135.24688856249998,81.0,113.0
202,135.24688856249998,135.60403106249998,80.0,108.0
203,135.60403106249998,135.7826023125,81.0,109.0
204,135.7826023125,136.6695061875,83.0,114.0
205,136.6695061875,137.0326010625,81.0,113.0
206,137.0326010625,137.29896984374997,80.0,116.0
207,137.2111723125,138.81831356249998,81.0,116.0
208,184.88969606249998,185.24535046875,81.0,116.0
209,185.2468385625,185.60249296874997,81.0,109.0
210,185.60398106249997,186.31677796875,81.0,116.0
211,186.3182660625,186.67540856249997,81.0,116.0
212,186.67540856249997,187.03255106249998,83.0,114.0
213,187.03255106249998,187.74534796874997,81.0,116.0
214,187.74683606249997,188.10249046874998,81.0,119.0
215,188.10397856249998,188.45963296875,81.0,119.0
216,188.46112106249998,188.81826356249996,81.0,116.0
217,188.81826356249996,189.17540606249997,80.0,119.0
218,189.17540606249997,189.53254856249998,81.0,119.0
219,189.53254856249998,189.8896910625,80.0,113.0
220,189.8896910625,190.60248796874998,81.0,113.0
221,190.60397606249998,190.95963046875,81.0,116.0
222,190.9611185625,191.31677296874997,81.0,113.0
223,191.31826106249997,192.03105796875,81.0,116.0
224,192.0325460625,192.38968856249997,81.0,116.0
225,192.38968856249997,192.74683106249998,83.0,113.0
226,192.74683106249998,193.45962796874997,81.0,116.0
227,193.46111606249997,193.81677046874998,81.0,116.0
228,193.81825856249998,194.17391296875,81.0,113.0
229,194.1754010625,194.53254356249997,81.0,113.0
230,194.53254356249997,194.88968606249998,80.0,109.0
231,194.88968606249998,195.24682856249999,81.0,109.0
232,195.24682856249999,195.60397106249997,80.0,114.0
233,195.60397106249997,196.31676796874999,81.0,119.0
234,196.31825606249998,196.67391046874997,81.0,119.0
235,196.67539856249996,197.03105296874998,81.0,116.0
236,197.03254106249997,197.74533796874996,81.0,116.0
237,197.7468260625,198.10396856249997,81.0,119.0
238,198.10396856249997,198.46111106249998,83.0,113.0
239,198.46111106249998,199.17390796874997,81.0,119.0
240,199.17539606249997,199.53105046874998,81.0,119.0
241,199.53253856249998,199.88819296875,81.0,119.0
242,199.8896810625,200.24682356249997,81.0,116.0
243,200.24682356249997,200.60396606249998,80.0,100.0
244,200.60396606249998,200.9611085625,81.0,113.0
245,200.9611085625,201.31825106249997,80.0,113.0
246,201.31825106249997,202.03104796875,81.0,119.0
247,202.0325360625,202.38819046874997,81.0,119.0
248,202.38967856249997,202.74533296874998,81.0,119.0
249,202.74682106249998,203.45961796874997,81.0,119.0
250,203.46110606249997,203.81824856249997,81.0,119.0
251,203.81824856249997,204.17539106249998,83.0,117.0
252,204.17539106249998,204.88818796874997,81.0,119.0
253,204.88967606249997,205.24533046874998,81.0,119.0
254,205.24681856249998,205.60247296874996,81.0,119.0
255,205.6039610625,205.96110356249997,81.0,119.0
256,205.96110356249997,206.31824606249998,80.0,119.0
257,206.31824606249998,206.6753885625,76.0,113.0
258,206.6753885625,207.03253106249997,78.0,104.0
259,207.03253106249997,207.38967356249998,80.0,108.0
260,207.38967356249998,207.74532796875,81.0,113.0
261,207.7468160625,207.92389921874997,81.0,100.0
262,207.92538731249996,208.28252981249997,81.0,100.0
263,208.28252981249997,208.46110106249998,76.0,110.0
264,208.46110106249998,208.81675546875,78.0,102.0
265,208.8182435625,209.53252856249998,78.0,110.0
266,209.53252856249998,209.88967106249999,76.0,107.0
267,209.88967106249999,210.0682423125,74.0,91.0
268,210.0682423125,210.60246796874998,73.0,96.0
269,210.60395606249998,210.95961046875,73.0,106.0
270,210.96109856249998,211.31675296874997,73.0,108.0
271,211.31824106249996,211.49681231249997,73.0,93.0
272,211.49681231249997,212.03252606249998,71.0,92.0
273,212.03252606249998,212.38966856249996,76.0,110.0
274,212.38966856249996,212.74681106249997,78.0,104.0
275,212.74681106249997,213.10395356249998,80.0,113.0
276,213.10395356249998,213.45960796874996,81.0,109.0
277,213.46109606249996,213.63817921874997,81.0,113.0
278,213.63966731249997,213.99680981249998,81.0,113.0
279,213.99680981249998,214.17538106249998,76.0,98.0
280,214.17538106249998,214.53103546874996,78.0,107.0
281,214.5325235625,215.24532046874998,78.0,110.0
282,215.24680856249998,215.6039510625,78.0,108.0
283,215.6039510625,215.78103421874997,81.0,103.0
284,215.78252231249996,216.31674796874998,81.0,109.0
285,216.31823606249998,216.67389046875,81.0,116.0
286,216.6753785625,217.03252106249997,81.0,116.0
287,217.03252106249997,217.20960421874997,83.0,107.0
288,217.21109231249997,217.74680606249999,83.0,114.0
289,217.74680606249999,218.10394856249997,76.0,110.0
290,218.10394856249997,218.46109106249997,78.0,110.0
291,218.46109106249997,218.81823356249998,80.0,108.0
292,218.81823356249998,219.17537606249996,81.0,113.0
293,219.17537606249996,219.36585206249998,80.0,104.0
294,219.35394731249997,219.71108981249998,81.0,103.0
295,219.71108981249998,220.24680356249996,85.0,113.0
296,220.24680356249996,220.78251731249998,90.0,117.0
297,220.78251731249998,221.31823106249996,88.0,117.0
298,221.31823106249996,221.67537356249997,86.0,119.0
299,221.67537356249997,222.38817046874996,85.0,119.0
300,222.3896585625,222.74680106249997,85.0,116.0
301,222.74680106249997,223.81822856249997,83.0,116.0
302,223.81822856249997,224.17537106249998,78.0,116.0
303,224.17537106249998,224.5325135625,80.0,108.0
304,224.5325135625,225.06673921874997,81.0,113.0
305,225.06822731249997,225.60394106249998,81.0,119.0
306,225.60394106249998,225.78251231249996,83.0,113.0
307,225.78251231249996,226.49530921874998,81.0,116.0
308,226.49679731249998,226.67536856249998,81.0,113.0
309,226.67536856249998,227.03251106249996,80.0,108.0
310,227.03251106249996,227.21108231249997,81.0,109.0
311,227.21108231249997,228.09798618749997,83.0,114.0
312,228.09798618749997,228.46108106249997,81.0,113.0
313,228.46108106249997,228.72744984374998,80.0,116.0
314,228.81822356249998,229.17536606249996,80.0,119.0
315,229.17536606249996,229.53250856249997,76.0,113.0
316,229.53250856249997,229.88965106249998,78.0,104.0
317,229.88965106249998,230.2467935625,80.0,108.0
318,228.63965231249998,230.2467935625,81.0,116.0
319,230.2467935625,230.60244796874997,81.0,113.0
320,230.60393606249997,230.78101921874998,81.0,100.0
321,230.78250731249997,231.13964981249998,81.0,100.0
322,231.13964981249998,231.3182210625,76.0,110.0
323,231.3182210625,231.67387546874997,78.0,102.0
324,231.67536356249997,232.38964856249999,78.0,110.0
325,232.38964856249999,232.74679106249997,76.0,107.0
326,232.74679106249997,232.92536231249997,74.0,91.0
327,232.92536231249997,233.45958796875,73.0,96.0
328,233.46107606249998,233.81673046874997,73.0,106.0
329,233.81821856249996,234.17387296874998,73.0,108.0
330,234.17536106249997,234.35393231249998,73.0,93.0
331,234.35393231249998,234.88964606249996,71.0,92.0
332,234.88964606249996,235.24678856249997,76.0,110.0
333,235.24678856249997,235.60393106249998,78.0,104.0
334,235.60393106249998,235.96107356249996,80.0,113.0
335,235.96107356249996,236.31672796874997,81.0,109.0
336,236.31821606249997,236.49529921874998,81.0,113.0
337,236.49678731249998,236.85392981249998,81.0,113.0
338,236.85392981249998,237.03250106249996,76.0,98.0
339,237.03250106249996,237.38815546874997,78.0,107.0
340,237.38964356249997,238.10244046874996,78.0,110.0
341,238.10392856249996,238.46107106249997,78.0,108.0
342,238.46107106249997,238.63815421874997,81.0,103.0
343,238.63964231249997,239.17386796874996,81.0,109.0
344,239.1753560625,239.53101046874997,81.0,116.0
345,239.53249856249997,239.88964106249998,81.0,116.0
346,239.88964106249998,240.06672421874998,83.0,107.0
347,240.06821231249998,240.60392606249997,83.0,114.0
348,240.60392606249997,240.96106856249997,76.0,110.0
349,240.96106856249997,241.31821106249998,78.0,110.0
350,241.31821106249998,241.67535356249996,80.0,108.0
351,241.67535356249996,242.03249606249997,81.0,113.0
352,242.03249606249997,242.22297206249996,80.0,104.0
353,242.21106731249998,242.5682098125,81.0,103.0
354,242.5682098125,243.10392356249997,85.0,113.0
355,243.10392356249997,243.63963731249999,90.0,117.0
356,243.63963731249999,244.17535106249997,88.0,117.0
357,244.17535106249997,244.53249356249998,86.0,119.0
358,244.53249356249998,245.24529046874997,85.0,119.0
359,245.24677856249997,245.60392106249998,85.0,116.0
360,245.60392106249998,246.67534856249998,83.0,116.0
361,246.67534856249998,247.0324910625,78.0,116.0
362,247.0324910625,247.38963356249997,80.0,108.0
363,247.38963356249997,247.92385921874998,81.0,113.0
364,247.92534731249998,248.46106106249997,81.0,119.0
365,248.46106106249997,248.63963231249997,83.0,113.0
366,248.63963231249997,249.35242921874996,81.0,116.0
367,249.35391731249996,249.53248856249996,81.0,113.0
368,249.53248856249996,249.88963106249997,80.0,108.0
369,249.88963106249997,250.06820231249998,81.0,109.0
370,250.06820231249998,250.95510618749998,83.0,114.0
371,250.95510618749998,251.31820106249998,81.0,113.0
372,251.31820106249998,251.58456984374996,80.0,116.0
373,251.67534356249996,252.03248606249997,80.0,119.0
374,252.03248606249997,252.38962856249998,76.0,113.0
375,252.38962856249998,252.74677106249996,78.0,104.0
376,252.74677106249996,253.10391356249997,80.0,108.0
377,251.49677231249998,253.10391356249997,81.0,116.0
378,253.10391356249997,253.45956796874998,81.0,113.0
379,253.46105606249998,253.63813921874998,81.0,100.0
380,253.63962731249998,253.99676981249996,81.0,100.0
381,253.99676981249996,254.17534106249997,76.0,110.0
382,254.17534106249997,254.53099546874998,78.0,102.0
383,254.53248356249998,255.24676856249997,78.0,110.0
384,255.24676856249997,255.60391106249998,76.0,107.0
385,255.60391106249998,255.78248231249998,74.0,91.0
386,255.78248231249998,256.31670796875,73.0,96.0
387,256.31819606249996,256.67385046874995,73.0,106.0
388,256.6753385625,257.03099296874996,73.0,108.0
389,257.0324810625,257.2110523125,73.0,93.0
390,257.2110523125,257.74676606249994,71.0,92.0
391,257.74676606249994,258.10390856249995,76.0,110.0
392,258.10390856249995,258.46105106249996,78.0,104.0
393,258.46105106249996,258.81819356249997,80.0,113.0
394,258.81819356249997,259.17384796874995,81.0,109.0
395,259.1753360625,259.35241921874996,81.0,113.0
396,259.3539073125,259.7110498125,81.0,113.0
397,259.7110498125,259.8896210625,76.0,98.0
398,259.8896210625,260.24527546875,78.0,107.0
399,260.24676356249995,260.95956046875,78.0,110.0
400,260.96104856249997,261.3181910625,78.0,108.0
401,261.3181910625,261.49527421874996,81.0,103.0
402,261.4967623125,262.03098796874997,81.0,109.0
403,262.0324760625,262.38813046875,81.0,116.0
404,262.38961856249995,262.74676106249996,81.0,116.0
405,262.74676106249996,262.92384421875,83.0,107.0
406,262.92533231249996,263.4610460625,83.0,114.0
407,263.4610460625,263.8181885625,76.0,110.0
408,263.8181885625,264.1753310625,78.0,110.0
409,264.1753310625,264.53247356249994,80.0,108.0
410,264.53247356249994,264.88961606249995,81.0,113.0
411,264.88961606249995,265.08009206249994,80.0,104.0
412,265.06818731249996,265.42532981249997,81.0,103.0
413,265.42532981249997,265.9610435625,85.0,113.0
414,265.9610435625,266.4967573125,90.0,117.0
415,266.4967573125,267.03247106249995,88.0,117.0
416,267.03247106249995,267.38961356249996,86.0,119.0
417,267.38961356249996,268.10241046874995,85.0,119.0
418,268.1038985625,268.4610410625,85.0,116.0
419,268.4610410625,269.53246856249996,83.0,116.0
420,269.53246856249996,269.88961106249997,78.0,116.0
421,269.88961106249997,270.2467535625,80.0,108.0
422,270.2467535625,270.78097921874996,81.0,113.0
423,270.7824673125,271.31818106249995,81.0,119.0
424,271.31818106249995,271.49675231249995,83.0,113.0
425,271.49675231249995,272.20954921874994,81.0,116.0
426,272.21103731249997,272.3896085625,81.0,113.0
427,272.3896085625,272.7467510625,80.0,108.0
428,272.7467510625,272.9253223125,81.0,109.0
429,272.9253223125,273.81222618749996,83.0,114.0
430,273.81222618749996,274.17532106249996,81.0,113.0
431,274.17532106249996,274.44168984374994,80.0,116.0
432,274.35389231249997,275.96103356249995,81.0,116.0
433,276.31817606249996,276.67383046874994,73.0,93.0
434,276.67531856249997,277.0324610625,73.0,100.0
435,277.0324610625,277.20954421874995,78.0,98.0
436,277.2110323125,277.7467460625,78.0,100.0
437,277.7467460625,278.10388856249995,69.0,106.0
438,278.10388856249995,278.46103106249996,71.0,100.0
439,278.46103106249996,278.81668546875,73.0,98.0
440,278.81817356249996,282.03096796874996,73.0,110.0
441,282.0324560625,282.38811046874997,73.0,104.0
442,282.38959856249994,282.74674106249995,73.0,102.0
443,282.74674106249995,283.10239546875,78.0,94.0
444,283.10388356249996,283.6395973125,78.0,102.0
445,283.6395973125,283.81668046874995,76.0,87.0
446,283.8181685625,284.3538823125,76.0,91.0
447,284.3538823125,284.5324535625,74.0,87.0
448,284.5324535625,287.74524796875,73.0,90.0
449,287.74673606249996,287.92381921874994,73.0,100.0
450,287.92530731249997,288.10239046874995,73.0,100.0
451,288.1038785625,288.4610210625,73.0,100.0
452,288.4610210625,289.17530606249994,78.0,100.0
453,289.17530606249994,289.53244856249995,69.0,97.0
454,289.53244856249995,289.88959106249996,71.0,100.0
455,289.88959106249996,293.45952796874997,73.0,104.0
456,293.4610160625,293.81667046875,73.0,91.0
457,293.81815856249995,294.17530106249995,73.0,92.0
458,294.17530106249995,294.35387231249996,69.0,93.0
459,294.35387231249996,294.88809796874995,74.0,89.0
460,294.8895860625,295.24524046874996,74.0,91.0
461,295.2467285625,295.6038710625,74.0,100.0
462,295.6038710625,295.96101356249994,73.0,91.0
463,295.96101356249994,300.2467235625,69.0,91.0
