,start,end,pitch,velocity
0,2.3898785625,2.7827353125,61.0,100.0
1,2.0327360624999997,2.8169614687499998,49.0,85.0
2,1.6755935624999998,2.8511876249999997,42.0,91.0
3,2.7470210624999996,3.101187375,57.0,88.0
4,3.8184485624999995,4.01190075,62.0,91.0
5,3.1041635624999997,4.18898390625,38.0,89.0
6,3.4613060624999994,4.232138624999999,50.0,83.0
7,4.1755910625,4.507435968749999,57.0,106.0
8,4.889876062499999,5.5505896875,52.0,86.0
9,4.5327335625,5.586303937499999,45.0,97.0
10,5.247018562499999,5.587792031249999,61.0,104.0
11,5.604161062499999,5.918148843749999,57.0,100.0
12,5.9613035624999995,6.374993624999999,56.0,92.0
13,6.3184460625,6.6934456875,57.0,86.0
14,6.675588562499999,7.025290593749999,59.0,88.0
15,5.9613035624999995,7.0729095937499995,40.0,88.0
16,6.3184460625,7.108623843749999,47.0,81.0
17,7.032731062499999,7.370528343749999,52.0,87.0
18,8.104158562499999,8.497015312499999,61.0,100.0
19,7.747016062499999,8.531241468749998,49.0,85.0
20,7.389873562499999,8.565467624999998,42.0,91.0
21,8.461301062499999,8.815467374999999,57.0,88.0
22,9.5327285625,9.72618075,62.0,91.0
23,8.818443562499999,9.903263906249999,38.0,89.0
24,9.175586062499999,9.946418625,50.0,83.0
25,9.8898710625,10.221715968749999,57.0,106.0
26,10.6041560625,11.2648696875,52.0,86.0
27,10.2470135625,11.300583937499999,45.0,97.0
28,10.961298562499998,11.302072031249999,61.0,104.0
29,11.318441062499998,11.632428843749999,57.0,100.0
30,11.675583562499998,12.089273624999999,56.0,92.0
31,12.032726062499998,12.4077256875,57.0,86.0
32,12.389868562499998,12.739570593749999,59.0,88.0
33,11.675583562499998,12.787189593749998,40.0,88.0
34,12.032726062499998,12.822903843749998,47.0,81.0
35,12.747011062499999,13.084808343749998,52.0,87.0
36,13.818438562499999,14.211295312499999,61.0,100.0
37,13.461296062499999,14.245521468749999,49.0,85.0
38,13.104153562499999,14.279747624999999,42.0,91.0
39,14.1755810625,14.529747374999998,57.0,88.0
40,15.247008562499998,15.440460749999998,62.0,91.0
41,14.532723562499998,15.617543906249999,38.0,89.0
42,14.889866062499998,15.660698624999998,50.0,83.0
43,15.604151062499998,15.935995968749998,57.0,106.0
44,16.3184360625,16.979149687499998,52.0,86.0
45,15.961293562499998,17.0148639375,45.0,97.0
46,16.675578562499997,17.016352031249998,61.0,104.0
47,17.0327210625,17.346708843749997,57.0,100.0
48,17.389863562499997,17.803553625,56.0,92.0
49,17.7470060625,18.1220056875,57.0,86.0
50,18.104148562499997,18.453850593749998,59.0,88.0
51,17.389863562499997,18.50146959375,40.0,88.0
52,17.7470060625,18.537183843749997,47.0,81.0
53,18.4612910625,18.799088343749997,52.0,87.0
54,19.532718562499998,19.925575312499998,61.0,100.0
55,19.1755760625,19.959801468749998,49.0,85.0
56,18.818433562499997,19.994027624999998,42.0,91.0
57,19.889861062499996,20.244027374999998,57.0,88.0
58,20.9612885625,21.15474075,62.0,91.0
59,20.247003562499998,21.331823906249998,38.0,89.0
60,20.604146062499996,21.374978624999997,50.0,83.0
61,21.318431062499997,21.650275968749998,57.0,106.0
62,22.032716062499997,22.693429687499997,52.0,86.0
63,21.6755735625,22.729143937499998,45.0,97.0
64,22.3898585625,22.730632031249996,61.0,104.0
65,22.747001062499997,23.060988843749996,57.0,100.0
66,23.1041435625,23.517833624999998,56.0,92.0
67,23.461286062499997,23.8362856875,57.0,86.0
68,23.818428562499996,24.168130593749996,59.0,88.0
69,23.1041435625,24.215749593749997,40.0,88.0
70,23.461286062499997,24.25146384375,47.0,81.0
71,24.175571062499998,24.51336834375,52.0,87.0
72,25.246998562499996,25.639855312499996,61.0,100.0
73,24.889856062499998,25.674081468749996,49.0,85.0
74,24.532713562499996,25.708307624999996,42.0,91.0
75,25.6041410625,25.958307374999997,57.0,88.0
76,26.675568562499997,26.869020749999997,62.0,91.0
77,25.961283562499997,27.046103906249996,38.0,89.0
78,26.3184260625,27.089258624999996,50.0,83.0
79,27.032711062499995,27.364555968749997,57.0,106.0
80,27.746996062499996,28.407709687499995,52.0,86.0
81,27.389853562499997,28.443423937499997,45.0,97.0
82,28.104138562499998,28.44491203125,61.0,104.0
83,28.461281062499996,28.77526884375,57.0,100.0
84,28.818423562499998,29.232113624999997,56.0,92.0
85,29.175566062499996,29.550565687499997,57.0,86.0
86,29.532708562499998,29.882410593749995,59.0,88.0
87,28.818423562499998,29.930029593749996,40.0,88.0
88,29.175566062499996,29.965743843749998,47.0,81.0
89,29.889851062499996,30.227648343749998,52.0,87.0
90,30.961278562499995,31.354135312499995,61.0,100.0
91,30.604136062499997,31.388361468749995,49.0,85.0
92,30.2469935625,31.422587624999995,42.0,91.0
93,31.318421062499997,31.672587374999996,57.0,88.0
94,32.3898485625,32.58330075,62.0,91.0
95,31.675563562499995,32.76038390625,38.0,89.0
96,32.0327060625,32.803538624999995,50.0,83.0
97,32.746991062499994,33.07883596875,57.0,106.0
98,33.4612760625,34.1219896875,52.0,86.0
99,33.104133562499996,34.157703937499996,45.0,97.0
100,33.81841856249999,34.159192031249994,61.0,104.0
101,34.175561062499995,34.48954884374999,57.0,100.0
102,34.5327035625,34.946393625,56.0,92.0
103,34.8898460625,35.2648456875,57.0,86.0
104,35.24698856249999,35.59669059375,59.0,88.0
105,34.5327035625,35.644309593749995,40.0,88.0
106,34.8898460625,35.68002384374999,47.0,81.0
107,35.604131062499995,35.94192834374999,52.0,87.0
108,36.675558562499994,37.068415312499994,61.0,100.0
109,36.3184160625,37.102641468749994,49.0,85.0
110,35.9612735625,37.136867624999994,42.0,91.0
111,37.032701062499996,37.386867374999994,57.0,88.0
112,38.104128562499994,38.297580749999995,62.0,91.0
113,37.3898435625,38.474663906249994,38.0,89.0
114,37.74698606249999,38.517818625,50.0,83.0
115,38.461271062499996,38.793115968749994,57.0,106.0
116,39.17555606249999,39.83626968749999,52.0,86.0
117,38.8184135625,39.8719839375,45.0,97.0
118,39.532698562499995,39.873472031249996,61.0,104.0
119,39.8898410625,40.203828843749996,57.0,100.0
120,40.2469835625,40.660673624999994,56.0,92.0
121,40.604126062499994,40.979125687499995,57.0,86.0
122,40.961268562499995,41.31097059374999,59.0,88.0
123,40.2469835625,41.35858959375,40.0,88.0
124,40.604126062499994,41.394303843749995,47.0,81.0
125,41.3184110625,41.656208343749995,52.0,87.0
126,42.389838562499996,42.782695312499996,61.0,100.0
127,42.032696062499994,42.816921468749996,49.0,85.0
128,41.67555356249999,42.851147624999996,42.0,91.0
129,42.7469810625,43.101147375,57.0,88.0
130,43.8184085625,44.01186075,62.0,91.0
131,43.10412356249999,44.188943906249996,38.0,89.0
132,43.461266062499995,44.23209862499999,50.0,83.0
133,44.1755510625,44.50739596875,57.0,106.0
134,44.889836062499995,45.550549687499995,52.0,86.0
135,44.53269356249999,45.58626393749999,45.0,97.0
136,45.2469785625,45.58775203125,61.0,104.0
137,45.60412106249999,45.91810884375,57.0,100.0
138,45.961263562499994,46.374953624999996,56.0,92.0
139,46.318406062499996,46.6934056875,57.0,86.0
140,46.6755485625,47.025250593749995,59.0,88.0
141,45.961263562499994,47.07286959374999,40.0,88.0
142,46.318406062499996,47.10858384375,47.0,81.0
143,47.03269106249999,47.37048834375,52.0,87.0
144,48.10411856249999,48.49697531249999,61.0,100.0
145,47.746976062499996,48.53120146874999,49.0,85.0
146,47.389833562499994,48.565427625,42.0,91.0
147,48.46126106249999,48.81542737499999,57.0,88.0
148,49.53268856249999,49.72614074999999,62.0,91.0
149,48.818403562499995,49.90322390624999,38.0,89.0
150,49.1755460625,49.946378624999994,50.0,83.0
151,49.889831062499994,50.22167596874999,57.0,106.0
152,50.6041160625,51.2648296875,52.0,86.0
153,50.246973562499996,51.300543937499995,45.0,97.0
154,50.96125856249999,51.30203203124999,61.0,104.0
155,51.318401062499994,51.63238884374999,57.0,100.0
156,51.675543562499996,52.08923362499999,56.0,92.0
157,52.03268606249999,52.40768568749999,57.0,86.0
158,52.38982856249999,52.73953059375,59.0,88.0
159,51.675543562499996,52.787149593749994,40.0,88.0
160,52.03268606249999,52.82286384374999,47.0,81.0
161,52.746971062499995,53.08476834374999,52.0,87.0
162,53.81839856249999,54.21125531249999,61.0,100.0
163,53.46125606249999,54.24548146874999,49.0,85.0
164,53.1041135625,54.27970762499999,42.0,91.0
165,54.175541062499995,54.529707374999994,57.0,88.0
166,55.246968562499994,55.440420749999994,62.0,91.0
167,54.5326835625,55.61750390624999,38.0,89.0
168,54.88982606249999,55.660658624999996,50.0,83.0
169,55.604111062499996,55.935955968749994,57.0,106.0
170,56.31839606249999,56.97910968749999,52.0,86.0
171,55.96125356249999,57.01482393749999,45.0,97.0
172,56.675538562499995,57.016312031249996,61.0,104.0
173,57.0326810625,57.346668843749995,57.0,100.0
174,57.38982356249999,57.803513624999994,56.0,92.0
175,57.74696606249999,58.121965687499994,57.0,86.0
176,58.104108562499995,58.45381059374999,59.0,88.0
177,57.38982356249999,58.50142959375,40.0,88.0
178,57.74696606249999,58.537143843749995,47.0,81.0
179,58.46125106249999,58.799048343749995,52.0,87.0
180,58.81839356249999,59.260357406249994,66.0,91.0
181,58.81839356249999,59.305000218749996,61.0,93.0
182,58.81839356249999,59.315416875,57.0,89.0
183,58.81839356249999,59.65023796874999,42.0,86.0
184,59.175536062499994,59.67999984375,49.0,82.0
185,59.532678562499996,59.993987624999995,57.0,93.0
186,59.532678562499996,60.02672568749999,66.0,96.0
187,59.532678562499996,60.124939874999995,61.0,102.0
188,59.88982106249999,60.239523093749995,42.0,86.0
189,60.24696356249999,60.72612974999999,66.0,91.0
190,60.24696356249999,60.74993924999999,57.0,90.0
191,60.24696356249999,60.75440353124999,62.0,102.0
192,60.24696356249999,61.09071271874999,38.0,88.0
193,60.961248562499996,61.468688531249995,66.0,92.0
194,60.961248562499996,61.50142659374999,57.0,90.0
195,60.961248562499996,61.59071221874999,62.0,98.0
196,61.31839106249999,61.66065262499999,38.0,88.0
197,61.67553356249999,62.214223499999996,57.0,96.0
198,61.67553356249999,62.26928296874999,64.0,93.0
199,61.67553356249999,62.276723437499996,61.0,102.0
200,61.67553356249999,62.61005643749999,45.0,96.0
201,62.38981856249999,62.77077056249999,61.0,104.0
202,62.38981856249999,62.78713959374999,57.0,98.0
203,62.38981856249999,62.83178240624999,64.0,98.0
204,62.74696106249999,63.08922262499999,45.0,90.0
205,63.10410356249999,63.650233968749994,56.0,91.0
206,63.10410356249999,63.656186343749994,64.0,93.0
207,63.10410356249999,63.68594821874999,59.0,104.0
208,63.63981731249999,63.92999559374999,52.0,100.0
209,63.81838856249999,64.16809059375,64.0,98.0
210,63.81838856249999,64.22463815625,56.0,104.0
211,63.10410356249999,64.23059053124999,40.0,94.0
212,63.81838856249999,64.44636412499999,59.0,110.0
213,64.1755310625,64.49844740625,52.0,91.0
214,64.5326735625,65.02672068749999,66.0,102.0
215,64.5326735625,65.03416115625,61.0,104.0
216,64.5326735625,65.04308971875,57.0,90.0
217,64.88981606249999,65.2945775625,54.0,76.0
218,64.5326735625,65.44189884375,42.0,88.0
219,65.2469585625,65.7380295,66.0,104.0
220,65.2469585625,65.79011278124999,57.0,100.0
221,65.2469585625,65.86005318749999,61.0,110.0
222,65.60410106249999,65.92552931249999,42.0,90.0
223,65.96124356249999,66.49249303124999,66.0,94.0
224,65.96124356249999,66.50439778124999,62.0,107.0
225,65.96124356249999,66.51779062499999,57.0,92.0
226,66.49695731249999,66.7529094375,50.0,100.0
227,65.96124356249999,67.0564805625,38.0,98.0
228,66.67552856249999,67.220170875,66.0,102.0
229,66.67552856249999,67.25588512499999,57.0,110.0
230,66.67552856249999,67.29903984375,62.0,114.0
231,67.03267106249999,67.37344453124999,50.0,100.0
232,67.3898135625,67.8898130625,64.0,96.0
233,67.3898135625,67.910646375,57.0,92.0
234,67.3898135625,67.94040824999999,61.0,104.0
235,67.3898135625,68.2529079375,45.0,93.0
236,67.9255273125,68.26034840624999,52.0,91.0
237,68.1040985625,68.4731458125,61.0,114.0
238,68.1040985625,68.50737196875,57.0,108.0
239,68.4612410625,68.54308621874999,45.0,86.0
240,68.1040985625,68.60409806249999,64.0,113.0
241,68.81838356249999,69.33028781249999,64.0,100.0
242,68.81838356249999,69.35112112499999,56.0,96.0
243,68.81838356249999,69.36749015624999,59.0,114.0
244,69.35409731249999,69.59368040624999,52.0,114.0
245,69.1755260625,69.62939465624999,47.0,85.0
246,68.81838356249999,69.87939440624999,40.0,94.0
247,69.53266856249999,69.89129915624999,64.0,107.0
248,69.53266856249999,69.8957634375,56.0,114.0
249,69.53266856249999,69.9374300625,59.0,119.0
250,69.88981106249999,70.12939415624999,52.0,104.0
251,70.2469535625,70.791595875,57.0,100.0
252,70.2469535625,70.79903634374999,66.0,104.0
253,70.2469535625,70.81689346875,61.0,113.0
254,70.2469535625,71.11600031249999,42.0,91.0
255,70.7826673125,71.14129790624999,49.0,89.0
256,70.96123856249999,71.43891665624999,57.0,107.0
257,70.96123856249999,71.48058328124999,66.0,107.0
258,70.96123856249999,71.51183325,61.0,113.0
259,71.3183810625,71.63832121875,42.0,86.0
260,71.67552356249999,72.19784446874999,66.0,98.0
261,71.67552356249999,72.22016587499999,57.0,102.0
262,71.67552356249999,72.22016587499999,62.0,113.0
263,72.21123731249999,72.4999275,50.0,96.0
264,71.67552356249999,72.75439153125,38.0,100.0
265,72.3898085625,72.88831996875,66.0,98.0
266,72.3898085625,72.9255223125,57.0,107.0
267,72.3898085625,72.94933181249999,62.0,114.0
268,72.74695106249999,73.06540312499999,50.0,100.0
269,73.1040935625,73.61302162499999,64.0,108.0
270,73.1040935625,73.6159978125,57.0,93.0
271,73.1040935625,73.6398073125,61.0,110.0
272,73.1040935625,73.958259375,45.0,92.0
273,73.6398073125,74.00736646874999,52.0,87.0
274,73.81837856249999,74.25141384374999,61.0,110.0
275,73.81837856249999,74.27224715624999,57.0,102.0
276,74.1755210625,74.30498521874999,45.0,100.0
277,73.81837856249999,74.38534228124999,64.0,107.0
278,74.53266356249999,74.67254437499999,66.0,87.0
279,74.53266356249999,75.07284159374998,64.0,87.0
280,74.53266356249999,75.12492487499999,56.0,88.0
281,74.53266356249999,75.13980581249999,59.0,104.0
282,75.06837731249999,75.31986515624999,52.0,114.0
283,75.2469485625,75.60706724999999,64.0,108.0
284,75.2469485625,75.61599581249999,56.0,110.0
285,74.53266356249999,75.6427815,40.0,100.0
286,74.88980606249999,75.6457576875,47.0,86.0
287,75.2469485625,75.81093609374999,59.0,116.0
288,75.60409106249999,75.83325749999999,52.0,94.0
289,75.9612335625,76.47016162499999,66.0,92.0
290,75.9612335625,76.49397112499999,57.0,94.0
291,75.9612335625,76.52224490625,61.0,102.0
292,76.4969473125,76.79158987499999,49.0,88.0
293,75.9612335625,76.80944699999999,42.0,92.0
294,76.67551856249999,77.10706574999999,57.0,102.0
295,76.67551856249999,77.12938715624999,66.0,96.0
296,76.67551856249999,77.24694656249999,61.0,107.0
297,77.0326610625,77.31986315625,42.0,86.0
298,77.38980356249999,77.910636375,66.0,91.0
299,77.38980356249999,77.922541125,57.0,88.0
300,77.38980356249999,77.94188634374999,62.0,98.0
301,77.92551731249999,78.20676703125,50.0,88.0
302,78.1040885625,78.51777862499999,57.0,91.0
303,78.1040885625,78.51926671874999,66.0,91.0
304,77.38980356249999,78.52224290624999,38.0,94.0
305,78.1040885625,78.53117146874999,62.0,94.0
306,78.46123106249999,78.66658799999999,50.0,87.0
307,78.81837356249999,79.33623018749999,64.0,94.0
308,78.81837356249999,79.38682537499999,56.0,93.0
309,78.81837356249999,79.39724203124999,59.0,104.0
310,79.35408731249998,79.62492037499999,52.0,83.0
311,78.81837356249999,79.96867003124999,40.0,98.0
312,79.53265856249999,79.98355096875,64.0,98.0
313,79.53265856249999,80.00884856249999,56.0,98.0
314,79.88980106249998,80.12789606249999,52.0,84.0
315,79.53265856249999,80.16807459374999,59.0,107.0
316,80.2469435625,80.72015737499999,64.0,88.0
317,80.2469435625,80.84366915624999,57.0,86.0
318,80.2469435625,80.84664534375,61.0,91.0
319,80.9612285625,81.44485903124999,64.0,88.0
320,80.9612285625,81.5326565625,61.0,86.0
321,80.9612285625,81.54902559374999,57.0,86.0
322,80.2469435625,81.74247778124999,45.0,89.0
323,82.38979856249999,82.7826553125,61.0,100.0
324,82.0326560625,82.81688146875,49.0,85.0
325,81.67551356249999,82.851107625,42.0,91.0
326,82.74694106249999,83.10110737499998,57.0,88.0
327,83.81836856249998,84.01182074999998,62.0,91.0
328,83.1040835625,84.18890390624999,38.0,89.0
329,83.46122606249999,84.232058625,50.0,83.0
330,84.1755110625,84.50735596874999,57.0,106.0
331,84.8897960625,85.5505096875,52.0,86.0
332,84.53265356249999,85.5862239375,45.0,97.0
333,85.24693856249999,85.58771203124999,61.0,104.0
334,85.60408106249999,85.91806884374999,57.0,100.0
335,85.9612235625,86.37491362499999,56.0,92.0
336,86.31836606249999,86.69336568749999,57.0,86.0
337,86.67550856249999,87.02521059374999,59.0,88.0
338,85.9612235625,87.07282959374999,40.0,88.0
339,86.31836606249999,87.10854384374998,47.0,81.0
340,87.0326510625,87.37044834374998,52.0,87.0
341,88.10407856249999,88.49693531249999,61.0,100.0
342,87.74693606249998,88.53116146874999,49.0,85.0
343,87.38979356249999,88.56538762499999,42.0,91.0
344,88.46122106249999,88.81538737499999,57.0,88.0
345,89.53264856249999,89.72610074999999,62.0,91.0
346,88.8183635625,89.90318390624999,38.0,89.0
347,89.17550606249999,89.946338625,50.0,83.0
348,89.8897910625,90.22163596875,57.0,106.0
349,90.60407606249998,91.26478968749998,52.0,86.0
350,90.24693356249999,91.3005039375,45.0,97.0
351,90.9612185625,91.30199203125,61.0,104.0
352,91.31836106249999,91.63234884375,57.0,100.0
353,91.67550356249998,92.089193625,56.0,92.0
354,92.03264606249999,92.4076456875,57.0,86.0
355,92.38978856249999,92.73949059374999,59.0,88.0
356,91.67550356249998,92.78710959374999,40.0,88.0
357,92.03264606249999,92.82282384374999,47.0,81.0
358,92.7469310625,93.08472834374999,52.0,87.0
359,93.8183585625,94.21121531249999,61.0,100.0
360,93.46121606249999,94.24544146874999,49.0,85.0
361,93.10407356249999,94.27966762499999,42.0,91.0
362,94.17550106249999,94.52966737499999,57.0,88.0
363,95.24692856249999,95.44038074999999,62.0,91.0
364,94.53264356249998,95.61746390625,38.0,89.0
365,94.8897860625,95.66061862499998,50.0,83.0
366,95.60407106249998,95.93591596875,57.0,106.0
367,95.96121356249999,96.50436778124998,64.0,102.0
368,95.96121356249999,96.50734396874999,57.0,93.0
369,95.96121356249999,96.52222490624999,61.0,104.0
370,96.49692731249999,96.81686746874999,52.0,82.0
371,95.96121356249999,96.88829596874999,45.0,93.0
372,96.6754985625,97.09514099999998,61.0,107.0
373,96.6754985625,97.1219266875,57.0,102.0
374,96.6754985625,97.21716468749999,64.0,104.0
375,97.03264106249999,97.44781921874998,45.0,72.0
376,97.38978356249999,97.95377109374999,64.0,93.0
377,97.38978356249999,97.97758059374999,59.0,110.0
378,97.38978356249999,97.98055678124999,56.0,93.0
379,97.92549731249999,98.1457351875,52.0,91.0
380,98.10406856249999,98.38978256249999,64.0,92.0
381,98.10406856249999,98.41061587499999,56.0,93.0
382,98.10406856249999,98.42847299999998,59.0,102.0
383,97.38978356249999,98.56984190624999,40.0,87.0
384,98.46121106249998,98.65912753125,56.0,86.0
385,98.46121106249998,98.66656799999998,64.0,85.0
386,98.2826398125,98.73948459374999,52.0,89.0
387,98.46121106249998,98.8183535625,59.0,81.0
388,98.8183535625,99.35109112499998,66.0,102.0
389,98.8183535625,99.35257921875,57.0,88.0
390,98.8183535625,99.35704349999999,61.0,87.0
391,99.17549606249999,99.54454331249998,54.0,81.0
392,98.8183535625,99.77222165624998,42.0,87.0
393,99.53263856249998,100.03859043749999,57.0,96.0
394,99.53263856249998,100.10257846874998,66.0,91.0
395,99.53263856249998,100.15912603124998,61.0,96.0
396,99.88978106249999,100.25882831249999,42.0,81.0
397,100.24692356249999,100.77222065624998,66.0,92.0
398,100.24692356249999,100.78263731249999,62.0,98.0
399,100.24692356249999,100.7885896875,57.0,91.0
400,100.78263731249999,101.05347037499999,50.0,86.0
401,100.24692356249999,101.32132724999998,38.0,91.0
402,100.96120856249999,101.50733896874999,66.0,92.0
403,100.96120856249999,101.52221990624999,57.0,98.0
404,100.96120856249999,101.58620793749999,62.0,102.0
405,101.31835106249999,101.63977931249998,50.0,87.0
406,101.6754935625,102.17549306249998,64.0,92.0
407,101.6754935625,102.1993025625,57.0,90.0
408,101.6754935625,102.22460015624999,61.0,94.0
409,101.6754935625,102.49692131249999,45.0,87.0
410,102.2112073125,102.541564125,52.0,72.0
411,102.38977856249998,102.86299237499999,61.0,98.0
412,102.38977856249998,102.89424234375,57.0,93.0
413,102.38977856249998,102.96567084374999,64.0,93.0
414,102.7469210625,103.13233734375,45.0,86.0
415,103.10406356249999,103.65168206249999,64.0,89.0
416,103.10406356249999,103.66209871874999,56.0,92.0
417,103.10406356249999,103.68590821874999,59.0,100.0
418,103.63977731249999,103.84364615624999,47.0,84.0
419,103.81834856249999,104.21269340624998,56.0,107.0
420,103.10406356249999,104.21566959375,40.0,88.0
421,103.81834856249999,104.24840765625,64.0,100.0
422,103.81834856249999,104.45822887499999,59.0,110.0
423,104.17549106249999,104.51180025,47.0,85.0
424,104.53263356249998,105.06685921874998,57.0,90.0
425,104.53263356249998,105.0921568125,61.0,93.0
426,104.53263356249998,105.11001393749999,64.0,92.0
427,105.0683473125,105.33620418749999,54.0,87.0
428,105.6040610625,105.69929906249999,54.0,93.0
429,104.53263356249998,105.73203712499999,42.0,87.0
430,105.24691856249999,105.77221565624998,66.0,110.0
431,105.24691856249999,105.79900134374999,57.0,107.0
432,105.24691856249999,105.84810843749999,61.0,114.0
433,105.96120356249999,106.44036974999999,66.0,93.0
434,105.96120356249999,106.44334593749998,57.0,94.0
435,105.96120356249999,106.47906018749998,62.0,104.0
436,106.49691731249999,106.75138134374998,50.0,89.0
437,105.96120356249999,106.98501206249999,38.0,91.0
438,106.6754885625,107.18888090624999,57.0,100.0
439,106.6754885625,107.21269040624999,66.0,107.0
440,106.6754885625,107.30644031249999,62.0,114.0
441,107.03263106249999,107.37489262499999,50.0,93.0
442,107.38977356249998,107.90911828124999,57.0,92.0
443,107.38977356249998,107.91060637499999,64.0,94.0
444,107.38977356249998,107.94036824999999,61.0,100.0
445,107.92548731249998,108.23798699999999,52.0,87.0
446,107.38977356249998,108.25137984374999,45.0,90.0
447,108.10405856249999,108.52816528124998,61.0,116.0
448,108.10405856249999,108.54751049999999,57.0,104.0
449,108.46120106249998,108.55643906249999,45.0,93.0
450,108.10405856249999,108.70227225,64.0,107.0
451,108.81834356249999,109.31239068749998,64.0,94.0
452,108.81834356249999,109.34215256249999,56.0,92.0
453,108.81834356249999,109.35852159374998,59.0,107.0
454,108.81834356249999,109.46864053124999,40.0,88.0
455,109.35405731249999,109.50286668749999,52.0,98.0
456,109.5326285625,109.71268790624998,64.0,100.0
457,109.5326285625,109.72161646874999,59.0,110.0
458,109.5326285625,109.73947359374999,56.0,98.0
459,109.71119981249998,109.88530678125,40.0,104.0
460,109.88977106249999,110.04006853124999,56.0,94.0
461,109.88977106249999,110.08322324999999,64.0,91.0
462,109.88977106249999,110.19780646874999,59.0,102.0
463,110.24691356249998,110.74840115624998,66.0,107.0
464,110.24691356249998,110.74988924999998,57.0,92.0
465,110.24691356249998,110.77072256249998,61.0,94.0
466,110.78262731249998,110.99393662499999,54.0,84.0
467,110.24691356249998,111.04006753124999,42.0,87.0
468,110.96119856249999,111.48649565624999,57.0,110.0
469,110.96119856249999,111.50435278124999,66.0,107.0
470,111.31834106249998,111.50732896874999,42.0,88.0
471,110.96119856249999,111.56536462499999,61.0,114.0
472,111.67548356249999,112.01625703124999,38.0,92.0
473,111.67548356249999,112.02220940624998,50.0,92.0
474,111.67548356249999,112.23500681249999,57.0,93.0
475,111.67548356249999,112.23947109374998,62.0,107.0
476,111.67548356249999,112.24542346874999,66.0,91.0
477,112.21119731249999,112.48649465624999,50.0,89.0
478,112.21119731249999,112.51179224999998,38.0,88.0
479,112.38976856249998,112.8808395,57.0,108.0
480,112.74691106249999,112.88679187499999,38.0,84.0
481,112.38976856249998,112.88679187499999,66.0,94.0
482,112.74691106249999,112.92548231249998,50.0,93.0
483,112.38976856249998,112.93143468749999,62.0,113.0
484,113.10405356249998,113.48202937499998,45.0,90.0
485,113.10405356249998,113.66506490624998,64.0,91.0
486,113.10405356249998,113.67250537499999,57.0,90.0
487,113.10405356249998,113.68441012499999,61.0,100.0
488,113.63976731249998,113.91357656249998,45.0,93.0
489,113.81833856249999,114.24988574999999,61.0,114.0
490,113.81833856249999,114.25583812499998,57.0,104.0
491,113.81833856249999,114.27369524999999,64.0,102.0
492,114.17548106249998,114.47756409374999,45.0,90.0
493,114.53262356249999,114.87637321874999,52.0,84.0
494,114.53262356249999,114.88381368749998,40.0,85.0
495,114.53262356249999,115.06238493749998,64.0,88.0
496,114.53262356249999,115.08619443749998,56.0,88.0
497,114.53262356249999,115.10405156249999,59.0,93.0
498,115.06833731249999,115.35256321874999,52.0,102.0
499,115.06833731249999,115.35553940624999,40.0,100.0
500,115.24690856249998,115.63678912499999,64.0,104.0
501,115.24690856249998,115.64720578125,56.0,107.0
502,115.60405106249999,115.75137234374999,40.0,88.0
503,115.60405106249999,115.77815803124999,52.0,107.0
504,115.24690856249998,115.78857468749999,59.0,116.0
505,115.96119356249999,116.52666918749999,66.0,110.0
506,115.96119356249999,116.53708584374999,57.0,104.0
507,115.96119356249999,116.55047868749999,61.0,114.0
508,116.49690731249999,116.73202612499999,54.0,108.0
509,115.96119356249999,116.78559749999998,42.0,100.0
510,116.67547856249999,117.17696615624999,66.0,110.0
511,117.03262106249998,117.17994234374999,42.0,87.0
512,116.67547856249999,117.20226374999999,57.0,116.0
513,116.67547856249999,117.26327559374998,61.0,117.0
514,117.3897635625,117.93887015624999,62.0,114.0
515,117.3897635625,117.93887015624999,66.0,102.0
516,117.3897635625,117.95226299999999,57.0,107.0
517,117.92547731249999,118.10256046874999,50.0,117.0
518,117.3897635625,118.13381043749999,38.0,107.0
519,118.10404856249998,118.62190518749999,66.0,113.0
520,118.10404856249998,118.62488137499999,57.0,114.0
521,118.10404856249998,118.68440512499998,62.0,119.0
522,118.46119106249999,118.78410740624999,38.0,102.0
523,118.81833356249999,119.13380943749999,45.0,92.0
524,118.81833356249999,119.25434503124998,64.0,116.0
525,118.81833356249999,119.27220215624999,57.0,113.0
526,118.81833356249999,119.27220215624999,61.0,117.0
527,119.35404731249999,119.40464249999998,61.0,113.0
528,119.35404731249999,119.41357106249998,64.0,113.0
529,119.35404731249999,119.42249962499999,57.0,98.0
530,119.53261856249999,119.55791615624999,61.0,87.0
531,119.17547606249998,119.83470159374998,45.0,84.0
532,119.71118981249998,120.02071331249999,61.0,116.0
533,119.71118981249998,120.05642756249999,57.0,104.0
534,119.71118981249998,120.13827271874999,64.0,113.0
535,119.88976106249999,120.16803459375,45.0,98.0
536,120.24690356249998,120.61446271874999,52.0,96.0
537,120.24690356249998,120.62785556249999,40.0,91.0
538,120.24690356249998,120.76029590625,64.0,94.0
539,120.24690356249998,120.77666493749999,56.0,96.0
540,120.24690356249998,120.77666493749999,59.0,114.0
541,120.78261731249998,120.94333143749999,52.0,107.0
542,120.78261731249998,120.97755759374999,40.0,102.0
543,120.96118856249998,121.33767628124998,64.0,108.0
544,120.96118856249998,121.36446196874999,56.0,116.0
545,120.96118856249998,121.54005703124999,59.0,120.0
546,121.3183310625,121.55940224999999,40.0,107.0
547,121.67547356249999,122.21862778124999,66.0,108.0
548,121.67547356249999,122.23946109374998,61.0,113.0
549,121.67547356249999,122.2409491875,57.0,107.0
550,122.21118731249999,122.43737756249999,54.0,91.0
551,121.67547356249999,122.48350846874999,42.0,91.0
552,122.38975856249999,122.90166281249999,66.0,113.0
553,122.38975856249999,122.92100803124998,57.0,116.0
554,122.38975856249999,122.96862703124998,61.0,119.0
555,122.74690106249999,123.06088884374999,42.0,94.0
556,123.10404356249998,123.43886465624999,40.0,87.0
557,123.10404356249998,123.47160271874999,50.0,102.0
558,123.10404356249998,123.48945984374998,38.0,86.0
559,123.10404356249998,123.63975731249998,66.0,107.0
560,123.10404356249998,123.64273349999999,62.0,116.0
561,123.10404356249998,123.64422159374999,57.0,107.0
562,123.63975731249998,123.84957853124999,50.0,107.0
563,123.63975731249998,123.87189993749999,38.0,93.0
564,123.81832856249999,124.30344712499999,66.0,107.0
565,123.81832856249999,124.31981615624998,57.0,113.0
566,123.81832856249999,124.34808993749999,62.0,117.0
567,124.17547106249998,124.46416124999999,38.0,110.0
568,124.53261356249999,124.88529178124999,45.0,96.0
569,124.53261356249999,125.06386303124998,64.0,110.0
570,124.53261356249999,125.07576778124998,61.0,116.0
571,124.53261356249999,125.07874396874999,57.0,104.0
572,125.06832731249999,125.34957703124999,45.0,93.0
573,125.24689856249998,125.68291003124999,61.0,119.0
574,125.24689856249998,125.71415999999999,57.0,108.0
575,125.24689856249998,125.80046943749998,64.0,116.0
576,125.60404106249999,125.92100503124999,45.0,108.0
577,125.96118356249998,126.29749274999999,40.0,87.0
578,125.96118356249998,126.30493321874998,52.0,98.0
579,125.96118356249998,126.48350446874998,64.0,100.0
580,125.96118356249998,126.49094493749999,59.0,113.0
581,125.96118356249998,126.49689731249998,56.0,100.0
582,126.49689731249998,126.72159946874999,52.0,100.0
583,126.49689731249998,126.75582562499999,40.0,100.0
584,126.67546856249999,127.02517059374999,64.0,108.0
585,126.67546856249999,127.10850384374999,56.0,113.0
586,126.67546856249999,127.22755134374998,59.0,117.0
587,127.03261106249998,127.25284893749999,40.0,108.0
588,127.38975356249999,127.75582462499999,42.0,107.0
589,127.38975356249999,127.93290778124998,66.0,110.0
590,127.38975356249999,127.95374109374998,61.0,114.0
591,127.38975356249999,127.95820537499999,57.0,96.0
592,127.92546731249999,128.23201462499998,42.0,100.0
593,128.1040385625,128.62933565625,66.0,108.0
594,128.1040385625,128.65016896875,57.0,113.0
595,128.1040385625,128.696299875,61.0,117.0
596,128.46118106249997,128.77516884374998,42.0,102.0
597,128.81832356249998,129.20820412499998,50.0,102.0
598,128.81832356249998,129.23052553124998,38.0,86.0
599,128.81832356249998,129.37040634374998,66.0,102.0
600,128.81832356249998,129.38975156249998,62.0,116.0
601,128.81832356249998,129.40612059375,57.0,102.0
602,129.3540373125,129.64421559374998,50.0,102.0
603,129.3540373125,129.67992984375,38.0,93.0
604,129.53260856249997,130.00284618749998,66.0,104.0
605,129.53260856249997,130.02516759374998,57.0,113.0
606,129.53260856249997,130.06683421875,62.0,117.0
607,129.88975106249998,130.16207221874998,38.0,110.0
608,130.2468935625,130.60850034375,45.0,96.0
609,130.2468935625,130.77219065625,57.0,102.0
610,130.2468935625,130.78111921874998,64.0,104.0
611,130.2468935625,130.80195253124998,61.0,114.0
612,130.78260731249998,131.02814278124998,45.0,96.0
613,130.96117856249998,131.36742815624999,61.0,117.0
614,130.96117856249998,131.38528528125,57.0,108.0
615,130.96117856249998,131.541535125,64.0,113.0
616,131.3183210625,131.64718978124998,45.0,107.0
617,131.6754635625,131.98349896874998,52.0,102.0
618,131.6754635625,132.00433228125,40.0,87.0
619,131.6754635625,132.21861778124997,64.0,100.0
620,131.6754635625,132.24093918749998,56.0,108.0
621,131.6754635625,132.24837965625,59.0,116.0
622,132.21117731249998,132.458200875,52.0,108.0
623,132.21117731249998,132.47010562499997,40.0,107.0
624,132.3897485625,132.7230815625,64.0,108.0
625,132.3897485625,132.815343375,56.0,113.0
626,132.3897485625,132.95075990625,59.0,120.0
627,132.7468910625,132.952248,40.0,110.0
628,133.10403356249998,133.65909253125,66.0,108.0
629,133.10403356249998,133.6814139375,57.0,108.0
630,133.10403356249998,133.6814139375,61.0,114.0
631,133.10403356249998,133.79004478124997,42.0,107.0
632,133.8183185625,134.42099653124998,66.0,110.0
633,133.8183185625,134.43290128125,57.0,113.0
634,133.8183185625,134.47159171874998,61.0,117.0
635,134.5326035625,134.90611509374997,50.0,102.0
636,134.5326035625,134.9373650625,38.0,100.0
637,134.5326035625,135.08915062499997,66.0,100.0
638,134.5326035625,135.095103,57.0,108.0
639,134.5326035625,135.09956728125,62.0,116.0
640,135.06831731249997,135.35254321875,50.0,100.0
641,135.06831731249997,135.38825746875,38.0,102.0
642,135.60403106249998,135.74391187499998,38.0,104.0
643,135.24688856249998,135.76920946874998,66.0,102.0
644,135.24688856249998,135.779626125,57.0,110.0
645,135.24688856249998,135.84510225,62.0,116.0
646,135.9611735625,136.47158971874998,64.0,98.0
647,135.9611735625,136.51474443749998,56.0,94.0
648,135.9611735625,136.51474443749998,59.0,110.0
649,136.49688731249998,136.76772037499998,52.0,90.0
650,136.67545856249998,137.08766053124998,56.0,107.0
651,135.9611735625,137.15313665624998,40.0,93.0
652,136.67545856249998,137.196291375,64.0,102.0
653,136.67545856249998,137.303434125,59.0,116.0
654,137.0326010625,137.3302198125,52.0,89.0
655,137.38974356249997,137.79004078124999,45.0,92.0
656,137.38974356249997,137.94182634375,64.0,98.0
657,137.38974356249997,137.99986199999998,61.0,108.0
658,137.38974356249997,138.00730246875,57.0,88.0
659,137.9254573125,138.2885521875,45.0,108.0
660,138.1040285625,138.84509924999998,57.0,107.0
661,138.1040285625,138.857004,61.0,114.0
662,138.81831356249998,138.857004,61.0,91.0
663,138.1040285625,138.85998018749999,64.0,102.0
664,138.81831356249998,138.85998018749999,64.0,108.0
665,138.46117106249997,138.86146828124998,45.0,90.0
666,138.81831356249998,138.86146828124998,45.0,86.0
667,138.81831356249998,139.18438462499998,69.0,89.0
668,139.1754560625,139.58914612499998,57.0,76.0
669,139.53259856249997,139.952241,69.0,86.0
670,139.53259856249997,139.98051478124998,61.0,92.0
671,139.53259856249997,139.98795524999997,64.0,100.0
672,140.06831231249998,140.13081225,64.0,91.0
673,140.06831231249998,140.1337884375,61.0,89.0
674,140.06831231249998,140.13676462499998,69.0,86.0
675,139.88974106249998,140.41652624999998,57.0,74.0
676,140.4254548125,140.71563309374997,69.0,85.0
677,140.4254548125,140.72902593749998,61.0,88.0
678,140.4254548125,140.74241878125,64.0,93.0
679,140.78259731249997,141.05789465624997,57.0,85.0
680,140.96116856249998,141.39420384374998,69.0,89.0
681,140.96116856249998,141.43289428125,61.0,92.0
682,140.96116856249998,141.43289428125,64.0,104.0
683,141.3183110625,141.68735831249998,57.0,84.0
684,141.6754535625,142.05640556249998,69.0,86.0
685,141.6754535625,142.08319124999997,61.0,93.0
686,141.6754535625,142.09807218749998,64.0,100.0
687,142.03259606249998,142.40313140625,57.0,77.0
688,142.38973856249999,142.79598815625,69.0,93.0
689,142.38973856249999,142.82723812499998,61.0,102.0
690,142.38973856249999,142.83467859374997,64.0,108.0
691,142.92545231249997,142.98795224999998,69.0,85.0
692,142.92545231249997,142.98944034374998,61.0,87.0
693,142.92545231249997,142.99092843749997,64.0,91.0
694,142.7468810625,143.27217815625,57.0,73.0
695,143.28259481249998,143.57574928124998,69.0,86.0
696,143.28259481249998,143.60253496874998,61.0,87.0
697,143.28259481249998,143.61741590625,64.0,90.0
698,143.6397373125,143.88080849999997,57.0,84.0
699,141.6754535625,144.21860578124998,45.0,78.0
700,143.8183085625,144.24390337499997,69.0,90.0
701,143.8183085625,144.26473668749998,61.0,100.0
702,143.8183085625,144.27366525,64.0,108.0
703,144.17545106249997,144.5683078125,57.0,81.0
704,144.53259356249998,144.93289078125,69.0,88.0
705,144.53259356249998,144.94777171874998,61.0,91.0
706,144.53259356249998,144.95223599999997,64.0,100.0
707,145.24687856249997,145.63080674999998,69.0,91.0
708,145.24687856249997,145.66205671875,61.0,98.0
709,145.24687856249997,145.66503290625,64.0,102.0
710,145.7825923125,145.85402081249998,61.0,88.0
711,145.7825923125,145.85402081249998,64.0,92.0
712,145.7825923125,145.85402081249998,69.0,85.0
713,145.60402106249998,146.13229434374998,57.0,76.0
714,146.1397348125,146.458186875,69.0,84.0
715,146.1397348125,146.48646065625,61.0,87.0
716,146.1397348125,146.48646065625,64.0,91.0
717,146.49687731249998,146.71711518749999,57.0,81.0
718,144.53259356249998,147.0266386875,45.0,77.0
719,146.67544856249998,147.09657909375,69.0,90.0
720,146.67544856249998,147.1189005,64.0,107.0
721,146.67544856249998,147.12336478125,61.0,98.0
722,147.0325910625,147.40015021874999,57.0,81.0
723,147.38973356249997,147.76473318749998,69.0,85.0
724,147.38973356249997,147.8004474375,61.0,89.0
725,147.38973356249997,147.803423625,64.0,96.0
726,147.74687606249998,148.101042375,57.0,74.0
727,148.1040185625,148.51026815625,69.0,90.0
728,148.1040185625,148.54151812499998,61.0,98.0
729,148.1040185625,148.55193478125,64.0,108.0
730,148.63973231249997,148.7111608125,61.0,88.0
731,148.63973231249997,148.714137,64.0,90.0
732,148.63973231249997,148.714137,69.0,84.0
733,148.4611610625,148.98050578124997,57.0,70.0
734,148.99687481249998,149.303422125,69.0,85.0
735,148.99687481249998,149.33616018749998,64.0,91.0
736,148.99687481249998,149.34211256249998,61.0,87.0
737,149.3540173125,149.6278265625,57.0,82.0
738,147.38973356249997,149.88675487499998,45.0,70.0
739,149.5325885625,149.91354056249997,69.0,90.0
740,149.5325885625,149.92842149999998,61.0,93.0
741,149.5325885625,149.93288578124998,64.0,107.0
742,149.88973106249998,150.23050453124998,57.0,79.0
743,150.24687356249999,151.01919421875,54.0,86.0
744,150.96115856249997,151.39568193749997,69.0,90.0
745,150.96115856249997,151.40609859375,61.0,90.0
746,150.96115856249997,151.41651524999997,66.0,93.0
747,151.4968723125,151.565324625,66.0,87.0
748,151.4968723125,151.57425318749998,61.0,87.0
749,151.4968723125,151.57425318749998,69.0,85.0
750,151.31830106249998,151.90609809375,54.0,79.0
751,151.85401481249997,152.15907403125,69.0,86.0
752,151.85401481249997,152.17990734375,61.0,87.0
753,151.85401481249997,152.19478828124997,66.0,91.0
754,152.21115731249998,152.4998475,54.0,83.0
755,150.24687356249999,152.73496631249998,42.0,86.0
756,152.7468710625,152.86145428125,54.0,82.0
757,152.38972856249998,152.87335903124998,69.0,95.0
758,152.38972856249998,152.95669228124999,61.0,91.0
759,152.38972856249998,153.00728746874998,66.0,104.0
760,153.46115606249998,153.9313936875,57.0,81.0
761,153.8182985625,154.24091718749997,69.0,93.0
762,153.8182985625,154.2468695625,64.0,104.0
763,153.8182985625,154.2528219375,61.0,98.0
764,154.35401231249998,154.41502415624998,64.0,91.0
765,154.35401231249998,154.42544081249997,69.0,84.0
766,154.35401231249998,154.434369375,61.0,88.0
767,154.17544106249997,154.731988125,57.0,79.0
768,154.71115481249998,154.999845,61.0,84.0
769,154.71115481249998,155.01174974999998,69.0,85.0
770,154.71115481249998,155.03704734374998,64.0,91.0
771,155.0682973125,155.362939875,57.0,85.0
772,153.10401356249997,155.64418959374999,45.0,93.0
773,155.60401106249998,155.73942759374998,57.0,84.0
774,155.24686856249997,155.73942759374998,61.0,93.0
775,155.24686856249997,155.88526078124997,69.0,91.0
776,155.24686856249997,155.9313916875,64.0,110.0
777,155.9611535625,156.41502215625,69.0,85.0
778,155.9611535625,156.42990309374997,61.0,86.0
779,155.9611535625,156.44180784374998,64.0,89.0
780,156.67543856249998,157.101033375,69.0,88.0
781,156.67543856249998,157.10996193749997,61.0,88.0
782,156.67543856249998,157.13377143749997,64.0,91.0
783,157.2111523125,157.28704509374998,64.0,87.0
784,157.2111523125,157.28853318749998,61.0,86.0
785,157.2111523125,157.28853318749998,69.0,84.0
786,157.0325810625,157.56680671874997,57.0,70.0
787,157.56829481249997,157.90013971874998,69.0,85.0
788,157.56829481249997,157.91799684375,61.0,87.0
789,157.56829481249997,157.9373420625,64.0,89.0
790,157.92543731249998,158.20668703124997,57.0,83.0
791,158.10400856249998,158.53109146875,61.0,98.0
792,158.10400856249998,158.69180559375,64.0,108.0
793,155.9611535625,158.69775796874998,45.0,83.0
794,158.10400856249998,158.70371034374998,69.0,95.0
795,158.4611510625,158.74240078124998,57.0,86.0
796,158.81829356249997,159.18436462499997,69.0,89.0
797,158.81829356249997,159.20370984374998,64.0,108.0
798,158.81829356249997,159.20668603124997,61.0,91.0
799,159.17543606249998,159.58912612499998,57.0,76.0
800,159.5325785625,159.95222099999998,69.0,86.0
801,159.5325785625,159.98049478124997,61.0,92.0
802,159.5325785625,159.98793525,64.0,100.0
803,160.06829231249998,160.13079224999998,64.0,91.0
804,160.06829231249998,160.13376843749998,61.0,89.0
805,160.06829231249998,160.13674462499998,69.0,86.0
806,159.88972106249997,160.41650624999997,57.0,74.0
807,160.4254348125,160.71561309375,69.0,85.0
808,160.4254348125,160.72900593749998,61.0,88.0
809,160.4254348125,160.74239878125,64.0,93.0
810,160.7825773125,161.05787465625,57.0,85.0
811,158.81829356249997,161.32573153124997,45.0,86.0
812,160.96114856249997,161.39418384374997,69.0,89.0
813,160.96114856249997,161.43287428124998,61.0,92.0
814,160.96114856249997,161.43287428124998,64.0,104.0
815,161.31829106249998,161.68733831249997,57.0,84.0
816,161.6754335625,162.05638556249997,69.0,86.0
817,161.6754335625,162.08317125,61.0,93.0
818,161.6754335625,162.09805218749997,64.0,100.0
819,162.03257606249997,162.40311140625,57.0,77.0
820,162.38971856249998,162.79596815624998,69.0,93.0
821,162.38971856249998,162.82721812499997,61.0,102.0
822,162.38971856249998,162.83465859375,64.0,108.0
823,162.9254323125,162.98793224999997,69.0,85.0
824,162.9254323125,162.98942034374997,61.0,87.0
825,162.9254323125,162.99090843749997,64.0,91.0
826,162.7468610625,163.27215815625,57.0,73.0
827,163.28257481249997,163.57572928124998,69.0,86.0
828,163.28257481249997,163.60251496874997,61.0,87.0
829,163.28257481249997,163.61739590624998,64.0,90.0
830,163.63971731249998,163.8807885,57.0,84.0
831,161.6754335625,164.21858578124997,45.0,78.0
832,163.8182885625,164.243883375,69.0,90.0
833,163.8182885625,164.26471668749997,61.0,100.0
834,163.8182885625,164.27364525,64.0,108.0
835,164.17543106249997,164.5682878125,57.0,81.0
836,164.53257356249998,164.93287078125,69.0,88.0
837,164.53257356249998,164.94775171874997,61.0,91.0
838,164.53257356249998,164.952216,64.0,100.0
839,165.2468585625,165.63078674999997,69.0,91.0
840,165.2468585625,165.66203671875,61.0,98.0
841,165.2468585625,165.66501290624998,64.0,102.0
842,165.78257231249998,165.85400081249998,61.0,88.0
843,165.78257231249998,165.85400081249998,64.0,92.0
844,165.78257231249998,165.85400081249998,69.0,85.0
845,165.60400106249998,166.13227434374997,57.0,76.0
846,166.1397148125,166.458166875,69.0,84.0
847,166.1397148125,166.48644065624998,61.0,87.0
848,166.1397148125,166.48644065624998,64.0,91.0
849,166.49685731249997,166.71709518749998,57.0,81.0
850,164.53257356249998,167.0266186875,45.0,77.0
851,166.67542856249997,167.09655909375,69.0,90.0
852,166.67542856249997,167.1188805,64.0,107.0
853,166.67542856249997,167.12334478124998,61.0,98.0
854,167.03257106249998,167.40013021874998,57.0,81.0
855,167.3897135625,167.76471318749998,69.0,85.0
856,167.3897135625,167.8004274375,61.0,89.0
857,167.3897135625,167.803403625,64.0,96.0
858,167.74685606249997,168.10102237499999,57.0,74.0
859,168.10399856249998,168.51024815625,69.0,90.0
860,168.10399856249998,168.54149812499998,61.0,98.0
861,168.10399856249998,168.55191478125,64.0,108.0
862,168.6397123125,168.7111408125,61.0,88.0
863,168.6397123125,168.714117,64.0,90.0
864,168.6397123125,168.714117,69.0,84.0
865,168.4611410625,168.98048578124997,57.0,70.0
866,168.99685481249998,169.303402125,69.0,85.0
867,168.99685481249998,169.33614018749998,64.0,91.0
868,168.99685481249998,169.34209256249997,61.0,87.0
869,169.35399731249998,169.62780656249998,57.0,82.0
870,167.3897135625,169.88673487499997,45.0,70.0
871,169.5325685625,169.91352056249997,69.0,90.0
872,169.5325685625,169.92840149999998,61.0,93.0
873,169.5325685625,169.93286578124997,64.0,107.0
874,169.88971106249997,170.23048453124997,57.0,79.0
875,170.24685356249998,171.01917421874998,54.0,86.0
876,170.96113856249997,171.3956619375,69.0,90.0
877,170.96113856249997,171.40607859374998,61.0,90.0
878,170.96113856249997,171.41649524999997,66.0,93.0
879,171.49685231249998,171.56530462499998,66.0,87.0
880,171.49685231249998,171.57423318749997,61.0,87.0
881,171.49685231249998,171.57423318749997,69.0,85.0
882,171.31828106249998,171.90607809374998,54.0,79.0
883,171.8539948125,172.15905403124998,69.0,86.0
884,171.8539948125,172.17988734374998,61.0,87.0
885,171.8539948125,172.19476828125,66.0,91.0
886,172.21113731249997,172.49982749999998,54.0,83.0
887,170.24685356249998,172.73494631249997,42.0,86.0
888,172.74685106249999,172.86143428124998,54.0,82.0
889,172.38970856249998,172.87333903124997,69.0,95.0
890,172.38970856249998,172.95667228124998,61.0,91.0
891,172.38970856249998,173.00726746874997,66.0,104.0
892,173.46113606249997,173.93137368749998,57.0,81.0
893,173.81827856249998,174.24089718749997,69.0,93.0
894,173.81827856249998,174.2468495625,64.0,104.0
895,173.81827856249998,174.25280193749998,61.0,98.0
896,174.35399231249997,174.41500415624998,64.0,91.0
897,174.35399231249997,174.4254208125,69.0,84.0
898,174.35399231249997,174.43434937499998,61.0,88.0
899,174.1754210625,174.73196812499998,57.0,79.0
900,174.71113481249998,174.999825,61.0,84.0
901,174.71113481249998,175.01172974999997,69.0,85.0
902,174.71113481249998,175.03702734374997,64.0,91.0
903,175.0682773125,175.362919875,57.0,85.0
904,173.1039935625,175.64416959374998,45.0,93.0
905,175.60399106249997,175.73940759374997,57.0,84.0
906,175.2468485625,175.73940759374997,61.0,93.0
907,175.2468485625,175.88524078125,69.0,91.0
908,175.2468485625,175.9313716875,64.0,110.0
909,175.96113356249998,176.41500215624998,69.0,85.0
910,175.96113356249998,176.42988309375,61.0,86.0
911,175.96113356249998,176.44178784374998,64.0,89.0
912,176.67541856249997,177.10101337499998,69.0,88.0
913,176.67541856249997,177.10994193749997,61.0,88.0
914,176.67541856249997,177.13375143749997,64.0,91.0
915,177.21113231249998,177.28702509374997,64.0,87.0
916,177.21113231249998,177.28851318749997,61.0,86.0
917,177.21113231249998,177.28851318749997,69.0,84.0
918,177.03256106249998,177.56678671874997,57.0,70.0
919,177.5682748125,177.90011971874998,69.0,85.0
920,177.5682748125,177.91797684374998,61.0,87.0
921,177.5682748125,177.9373220625,64.0,89.0
922,177.92541731249997,178.20666703125,57.0,83.0
923,178.10398856249998,178.53107146874999,61.0,98.0
924,178.10398856249998,178.69178559374998,64.0,108.0
925,175.96113356249998,178.69773796874998,45.0,83.0
926,178.10398856249998,178.70369034374997,69.0,95.0
927,178.4611310625,178.74238078124998,57.0,86.0
928,178.81827356249997,179.18434462499997,69.0,89.0
929,178.81827356249997,179.20368984374997,64.0,108.0
930,178.81827356249997,179.20666603124997,61.0,91.0
931,179.17541606249998,179.58910612499997,57.0,76.0
932,179.5325585625,179.95220099999997,69.0,86.0
933,179.5325585625,179.98047478124997,61.0,92.0
934,179.5325585625,179.98791525,64.0,100.0
935,180.06827231249997,180.13077224999998,64.0,91.0
936,180.06827231249997,180.13374843749997,61.0,89.0
937,180.06827231249997,180.13672462499997,69.0,86.0
938,179.88970106249997,180.41648625,57.0,74.0
939,180.42541481249998,180.71559309375,69.0,85.0
940,180.42541481249998,180.72898593749997,61.0,88.0
941,180.42541481249998,180.74237878124998,64.0,93.0
942,180.7825573125,181.05785465625,57.0,85.0
943,178.81827356249997,181.32571153125,45.0,86.0
944,180.9611285625,181.39416384375,69.0,89.0
945,180.9611285625,181.43285428124997,61.0,92.0
946,180.9611285625,181.43285428124997,64.0,104.0
947,181.31827106249997,181.68731831249997,57.0,84.0
948,181.67541356249998,182.0563655625,69.0,86.0
949,181.67541356249998,182.08315125,61.0,93.0
950,181.67541356249998,182.09803218749997,64.0,100.0
951,182.0325560625,182.40309140624998,57.0,77.0
952,182.38969856249997,182.79594815624998,69.0,93.0
953,182.38969856249997,182.82719812499997,61.0,102.0
954,182.38969856249997,182.83463859375,64.0,108.0
955,182.9254123125,182.98791224999997,69.0,85.0
956,182.9254123125,182.98940034375,61.0,87.0
957,182.9254123125,182.9908884375,64.0,91.0
958,182.74684106249998,183.27213815624998,57.0,73.0
959,183.28255481249997,183.57570928124997,69.0,86.0
960,183.28255481249997,183.60249496874997,61.0,87.0
961,183.28255481249997,183.61737590624998,64.0,90.0
962,183.63969731249998,183.8807685,57.0,84.0
963,181.67541356249998,184.21856578125,45.0,78.0
964,183.81826856249998,184.243863375,69.0,90.0
965,183.81826856249998,184.2646966875,61.0,100.0
966,183.81826856249998,184.27362524999998,64.0,108.0
967,184.1754110625,184.56826781249998,57.0,81.0
968,184.53255356249997,184.56826781249998,57.0,100.0
969,184.53255356249997,185.04594590624998,66.0,104.0
970,184.53255356249997,185.0623149375,61.0,113.0
971,185.06826731249998,185.33463609375,54.0,85.0
972,184.53255356249997,185.380767,42.0,93.0
973,185.60398106249997,185.76171899999997,42.0,98.0
974,185.2468385625,185.78999278125,57.0,113.0
975,185.2468385625,185.7944570625,66.0,108.0
976,185.2468385625,185.83165940624997,61.0,119.0
977,185.96112356249998,186.30784940624997,38.0,92.0
978,185.96112356249998,186.31380178125,50.0,94.0
979,185.96112356249998,186.4998135,66.0,91.0
980,185.96112356249998,186.50576587499998,57.0,90.0
981,185.96112356249998,186.51320634374997,62.0,94.0
982,186.4968373125,186.76469418749997,50.0,96.0
983,186.4968373125,186.79296796875,38.0,107.0
984,186.67540856249997,187.21112231249998,66.0,100.0
985,186.67540856249997,187.21558659374998,57.0,96.0
986,186.67540856249997,187.29743175,62.0,114.0
987,187.03255106249998,187.35249121874998,38.0,107.0
988,187.38969356249999,187.73939559374998,45.0,94.0
989,187.38969356249999,187.9313596875,57.0,94.0
990,187.38969356249999,187.94177634374998,64.0,96.0
991,187.38969356249999,187.94475253124997,61.0,102.0
992,187.92540731249997,188.23344271874998,45.0,102.0
993,188.10397856249998,188.55933524999998,57.0,107.0
994,188.10397856249998,188.62034709374998,64.0,102.0
995,188.10397856249998,188.69623987499997,61.0,116.0
996,188.46112106249998,188.77510884375,45.0,102.0
997,188.81826356249996,189.142668,52.0,100.0
998,188.81826356249996,189.15159656249998,40.0,89.0
999,188.81826356249996,189.30189403125,64.0,102.0
1000,188.81826356249996,189.32867971874998,56.0,104.0
1001,188.81826356249996,189.33612018749997,59.0,116.0
1002,189.17540606249997,189.61439371874997,52.0,89.0
1003,189.17540606249997,189.63225084374997,40.0,98.0
1004,189.53254856249998,189.93582196875,64.0,113.0
1005,189.53254856249998,189.9611195625,56.0,113.0
1006,189.8896910625,190.10992893749997,40.0,107.0
1007,189.53254856249998,190.1188575,59.0,119.0
1008,190.24683356249997,190.803380625,66.0,108.0
1009,190.24683356249997,190.81230918749998,61.0,110.0
1010,190.24683356249997,190.82272584375,57.0,98.0
1011,190.7825473125,191.06677321874997,54.0,104.0
1012,190.24683356249997,191.15010646874998,42.0,90.0
1013,190.9611185625,191.50724896875,57.0,113.0
1014,190.9611185625,191.51468943749998,66.0,110.0
1015,190.9611185625,191.5563560625,61.0,116.0
1016,191.31826106249997,191.60992743749998,42.0,89.0
1017,191.67540356249998,192.03849843749998,50.0,108.0
1018,191.67540356249998,192.04445081249997,38.0,91.0
1019,191.67540356249998,192.24385537499998,62.0,104.0
1020,191.67540356249998,192.25278393749997,66.0,96.0
1021,191.67540356249998,192.2587363125,57.0,94.0
1022,192.21111731249997,192.52064081249998,50.0,107.0
1023,192.21111731249997,192.5563550625,38.0,96.0
1024,192.38968856249997,192.85248571875,66.0,110.0
1025,192.74683106249998,192.93433087499997,50.0,100.0
1026,192.38968856249997,192.98790225,57.0,113.0
1027,192.38968856249997,193.00129509374997,62.0,114.0
1028,192.74683106249998,193.06081884374998,38.0,98.0
1029,193.1039735625,193.47599699999998,45.0,100.0
1030,193.1039735625,193.64415159374997,64.0,98.0
1031,193.1039735625,193.66796109374997,61.0,110.0
1032,193.1039735625,193.66944918749996,57.0,98.0
1033,193.63968731249997,193.95813937499997,45.0,104.0
1034,193.81825856249998,194.27807953124997,57.0,110.0
1035,193.81825856249998,194.31974615624998,64.0,104.0
1036,193.81825856249998,194.36736515624997,61.0,116.0
1037,194.1754010625,194.47599599999998,45.0,110.0
1038,194.53254356249997,194.88224559374999,52.0,94.0
1039,194.53254356249997,194.89117415624997,40.0,88.0
1040,194.53254356249997,195.0623049375,64.0,92.0
1041,194.53254356249997,195.07569778124997,59.0,108.0
1042,194.53254356249997,195.07867396874997,56.0,96.0
1043,195.06825731249998,195.37034034374997,52.0,107.0
1044,195.06825731249998,195.470042625,40.0,100.0
1045,195.24682856249999,195.63373293749999,64.0,110.0
1046,195.24682856249999,195.69028049999997,56.0,110.0
1047,195.24682856249999,195.87331603124997,59.0,117.0
1048,195.60397106249997,195.90010171874997,40.0,108.0
1049,195.96111356249997,196.37033934374998,42.0,89.0
1050,195.96111356249997,196.52807728124998,66.0,102.0
1051,195.96111356249997,196.54891059374998,61.0,113.0
1052,195.96111356249997,196.5623034375,57.0,104.0
1053,196.4968273125,196.839088875,42.0,100.0
1054,196.67539856249996,197.19325518749997,57.0,113.0
1055,196.67539856249996,197.19623137499997,66.0,108.0
1056,196.67539856249996,197.23492181249998,61.0,117.0
1057,197.03254106249997,197.33015981249997,42.0,100.0
1058,197.38968356249998,197.76468318749997,38.0,100.0
1059,197.38968356249998,197.76617128124997,50.0,107.0
1060,197.38968356249998,197.95813537499998,66.0,104.0
1061,197.38968356249998,197.96408774999998,62.0,113.0
1062,197.38968356249998,197.96706393749997,57.0,104.0
1063,197.92539731249997,198.20813512499998,50.0,104.0
1064,197.92539731249997,198.24980175,38.0,94.0
1065,198.10396856249997,198.63521803125,66.0,108.0
1066,198.10396856249997,198.67390846874997,57.0,114.0
1067,198.10396856249997,198.71259890624998,62.0,114.0
1068,198.46111106249998,198.71557509374998,50.0,113.0
1069,198.46111106249998,198.73343221874998,38.0,107.0
1070,198.8182535625,199.22301506249997,45.0,90.0
1071,198.8182535625,199.39265774999998,64.0,102.0
1072,198.8182535625,199.42390771874997,61.0,113.0
1073,198.8182535625,199.42688390624997,57.0,93.0
1074,199.35396731249998,199.67390746874997,45.0,113.0
1075,199.53253856249998,199.95366909374997,57.0,113.0
1076,199.53253856249998,200.07420468749999,64.0,104.0
1077,199.53253856249998,200.12331178124998,61.0,119.0
1078,199.8896810625,200.19474028124998,45.0,113.0
1079,200.24682356249997,200.55634706249998,52.0,89.0
1080,200.24682356249997,200.58313274999998,40.0,91.0
1081,200.24682356249997,200.80783490624998,64.0,98.0
1082,200.24682356249997,200.8242039375,56.0,104.0
1083,200.24682356249997,200.83015631249998,59.0,116.0
1084,200.78253731249998,201.01319184374998,52.0,108.0
1085,200.78253731249998,201.0503941875,40.0,108.0
1086,200.9611085625,201.37479862499998,64.0,113.0
1087,200.9611085625,201.37777481249998,56.0,114.0
1088,200.9611085625,201.56676271874997,59.0,117.0
1089,201.31825106249997,201.58908412499997,40.0,110.0
1090,201.67539356249998,202.01319084374998,42.0,98.0
1091,201.67539356249998,202.20515493749997,66.0,107.0
1092,201.67539356249998,202.21557159374998,61.0,116.0
1093,201.67539356249998,202.21854778124998,57.0,108.0
1094,202.2111073125,202.4849165625,42.0,108.0
1095,202.38967856249997,202.92092803124999,57.0,117.0
1096,202.38967856249997,202.94622562499998,66.0,113.0
1097,202.38967856249997,202.99235653124998,61.0,120.0
1098,202.74682106249998,203.06676121874997,42.0,91.0
1099,203.10396356249998,203.41348706249997,50.0,104.0
1100,203.10396356249998,203.42687990624998,38.0,91.0
1101,203.10396356249998,203.66497490624997,66.0,104.0
1102,203.10396356249998,203.68283203124997,57.0,107.0
1103,203.10396356249998,203.68283203124997,62.0,110.0
1104,203.63967731249997,203.87033184374997,50.0,113.0
1105,203.63967731249997,203.88818896874997,38.0,113.0
1106,203.81824856249997,204.28551,66.0,110.0
1107,203.81824856249997,204.422414625,57.0,113.0
1108,203.81824856249997,204.422414625,62.0,114.0
1109,204.17539106249998,204.43729556249997,38.0,102.0
1110,204.17539106249998,204.45366459374998,50.0,113.0
1111,204.53253356249996,204.86586656249997,45.0,93.0
1112,204.53253356249996,205.07717587499997,64.0,96.0
1113,204.53253356249996,205.09205681249998,61.0,104.0
1114,204.53253356249996,205.1039615625,57.0,94.0
1115,205.06824731249998,205.36735415624997,45.0,116.0
1116,205.24681856249998,205.68878240624997,57.0,113.0
1117,205.24681856249998,205.69027049999997,64.0,104.0
1118,205.24681856249998,205.81080609375,61.0,117.0
1119,205.6039610625,205.90753218749998,45.0,114.0
1120,205.96110356249997,206.26616278125,40.0,88.0
1121,205.96110356249997,206.27509134374998,52.0,88.0
1122,205.96110356249997,206.48044828124998,64.0,100.0
1123,205.96110356249997,206.50723396874997,59.0,113.0
1124,205.96110356249997,206.51169824999997,56.0,98.0
1125,206.49681731249999,206.81378128125,52.0,104.0
1126,206.49681731249999,206.82717412499997,40.0,104.0
1127,206.6753885625,207.09056671874998,56.0,113.0
1128,206.6753885625,207.10098337499997,64.0,104.0
1129,207.03253106249997,207.24086418749997,40.0,94.0
1130,206.6753885625,207.243840375,59.0,117.0
1131,207.03253106249997,207.26467368749996,52.0,113.0
1132,207.38967356249998,207.92985159375,66.0,113.0
1133,207.38967356249998,207.95514918749998,57.0,113.0
1134,207.38967356249998,207.95812537499998,61.0,116.0
1135,207.92538731249996,208.17538706249996,54.0,113.0
1136,207.38967356249998,208.26764887499996,42.0,104.0
1137,208.10395856249997,208.64711278124997,66.0,113.0
1138,208.10395856249997,208.6813389375,57.0,117.0
1139,208.10395856249997,208.70961271874998,61.0,119.0
1140,208.46110106249998,208.75574362499998,42.0,91.0
1141,208.8182435625,209.09651709374998,50.0,102.0
1142,208.8182435625,209.24235028124997,66.0,107.0
1143,208.8182435625,209.25425503124998,57.0,110.0
1144,208.8182435625,209.25574312499998,62.0,117.0
1145,209.35395731249997,209.41496915624998,62.0,119.0
1146,209.35395731249997,209.42985009374996,57.0,113.0
1147,209.35395731249997,209.4551476875,66.0,113.0
1148,209.17538606249997,209.55038568749998,50.0,102.0
1149,209.71109981249998,209.95663528125,50.0,100.0
1150,209.88967106249999,210.14562318749998,66.0,108.0
1151,208.8182435625,210.14711128124998,38.0,107.0
1152,209.88967106249999,210.15603984374997,57.0,114.0
1153,209.88967106249999,210.17240887499997,62.0,117.0
1154,210.0682423125,210.21853978124997,50.0,91.0
1155,210.24681356249997,210.67687265624997,45.0,108.0
1156,210.24681356249997,210.82121775,64.0,116.0
1157,210.24681356249997,210.83014631249998,61.0,117.0
1158,210.24681356249997,210.83758678124997,57.0,110.0
1159,210.78252731249998,211.15306265624997,45.0,96.0
1160,210.96109856249998,211.34353865625,61.0,117.0
1161,210.96109856249998,211.39711003124998,57.0,113.0
1162,210.96109856249998,211.59056221874997,64.0,116.0
1163,211.31824106249996,211.64710978124998,45.0,91.0
1164,211.85395481249998,211.90454999999997,59.0,114.0
1165,211.85395481249998,211.92091903124998,56.0,110.0
1166,211.85395481249998,211.92687140624997,64.0,96.0
1167,211.67538356249997,212.07716887499998,52.0,94.0
1168,212.03252606249998,212.13966881249996,64.0,82.0
1169,212.2110973125,212.44175184374998,52.0,108.0
1170,212.38966856249996,212.77359674999997,64.0,110.0
1171,211.67538356249997,212.79740624999997,40.0,89.0
1172,212.38966856249996,212.80484671874999,56.0,117.0
1173,212.38966856249996,212.99681081249997,59.0,120.0
1174,212.74681106249997,213.06972740624997,52.0,113.0
1175,213.10395356249998,213.67538156249998,57.0,110.0
1176,213.10395356249998,213.67538156249998,66.0,108.0
1177,213.10395356249998,213.68431012499997,61.0,114.0
1178,213.63966731249997,213.86585756249997,54.0,110.0
1179,213.10395356249998,213.90305990624998,42.0,98.0
1180,213.81823856249997,214.36734515624997,66.0,110.0
1181,213.81823856249997,214.41049987499997,57.0,114.0
1182,213.81823856249997,214.43282128124997,61.0,117.0
1183,214.17538106249998,214.49829740624997,42.0,93.0
1184,214.5325235625,214.86139228124998,50.0,104.0
1185,214.5325235625,214.88073749999998,38.0,89.0
1186,214.5325235625,215.09651109374997,66.0,102.0
1187,214.5325235625,215.11288012499998,62.0,116.0
1188,214.5325235625,215.12180868749996,57.0,108.0
1189,215.06823731249997,215.374784625,50.0,110.0
1190,215.06823731249997,215.40008221875,38.0,102.0
1191,215.24680856249998,215.45365359374998,61.0,108.0
1192,215.24680856249998,215.79740324999997,57.0,114.0
1193,215.6039510625,215.81228418749998,50.0,102.0
1194,215.24680856249998,215.81526037499998,66.0,100.0
1195,215.6039510625,215.83758178124998,38.0,90.0
1196,215.24680856249998,215.84353415624997,62.0,108.0
1197,215.96109356249997,216.34799793749997,45.0,108.0
1198,215.96109356249997,216.49531921874998,64.0,114.0
1199,215.96109356249997,216.50275968749997,57.0,113.0
1200,215.96109356249997,216.51912871874998,61.0,117.0
1201,216.49680731249998,216.79591415624998,45.0,113.0
1202,216.6753785625,217.13817571874998,61.0,116.0
1203,216.6753785625,217.16049712499998,57.0,110.0
1204,216.6753785625,217.26019940624997,64.0,116.0
1205,217.03252106249997,217.33758028124998,45.0,113.0
1206,217.38966356249998,217.69025849999997,52.0,96.0
1207,217.38966356249998,217.74234178124996,40.0,91.0
1208,217.38966356249998,217.8360916875,64.0,107.0
1209,217.38966356249998,217.86287737499998,56.0,92.0
1210,217.38966356249998,217.86287737499998,59.0,114.0
1211,217.74680606249999,218.10394856249997,52.0,104.0
1212,217.74680606249999,218.50275768749998,40.0,85.0
1213,218.10394856249997,218.51168624999997,64.0,116.0
1214,218.10394856249997,218.52656718749998,56.0,116.0
1215,218.10394856249997,218.67388846874996,59.0,119.0
1216,218.46109106249997,218.70662653124998,52.0,113.0
1217,218.81823356249998,219.38519728125,66.0,108.0
1218,218.81823356249998,219.39114965624998,57.0,110.0
1219,218.81823356249998,219.39859012499997,61.0,116.0
1220,219.35394731249997,219.56823281249999,54.0,114.0
1221,218.81823356249998,219.60692324999997,42.0,98.0
1222,219.53251856249997,220.06972040624998,66.0,110.0
1223,219.53251856249997,220.08162515624997,57.0,114.0
1224,219.53251856249997,220.10989893749996,61.0,117.0
1225,219.88966106249998,220.19918456249997,42.0,96.0
1226,220.24680356249996,220.56376753124997,50.0,107.0
1227,220.24680356249996,220.57716037499998,38.0,96.0
1228,220.24680356249996,220.78102921874998,62.0,117.0
1229,220.24680356249996,220.78846968749997,66.0,107.0
1230,220.24680356249996,220.79442206249996,57.0,110.0
1231,220.78251731249998,221.04888609374999,50.0,114.0
1232,220.78251731249998,221.10394556249997,38.0,104.0
1233,220.96108856249998,221.48043328125,66.0,108.0
1234,220.96108856249998,221.5027546875,57.0,113.0
1235,220.96108856249998,221.50573087499998,62.0,119.0
1236,221.31823106249996,221.55781415624998,50.0,110.0
1237,221.31823106249996,221.56823081249996,38.0,93.0
1238,221.67537356249997,222.02953987499998,45.0,100.0
1239,221.67537356249997,222.22745634374996,64.0,113.0
1240,221.67537356249997,222.231920625,57.0,107.0
1241,221.67537356249997,222.23489681249998,61.0,116.0
1242,222.21108731249998,222.56376553124997,45.0,114.0
1243,222.3896585625,222.83608668749997,61.0,119.0
1244,222.3896585625,222.88668187499997,57.0,113.0
1245,222.3896585625,222.99233653124998,64.0,116.0
1246,222.74680106249997,223.05186028125,45.0,110.0
1247,223.10394356249998,223.31376478124997,64.0,102.0
1248,223.10394356249998,223.32566953124999,56.0,108.0
1249,223.10394356249998,223.32566953124999,59.0,116.0
1250,223.10394356249998,223.47150271874997,52.0,98.0
1251,223.10394356249998,223.49382412499997,40.0,90.0
1252,223.4610860625,223.63072874999997,64.0,89.0
1253,223.4610860625,223.63370493749997,59.0,100.0
1254,223.4610860625,223.64412159375,56.0,92.0
1255,223.63965731249996,223.86584756249997,52.0,116.0
1256,223.63965731249996,223.87924040624998,40.0,110.0
1257,223.81822856249997,224.20513293749997,64.0,116.0
1258,223.81822856249997,224.26168049999998,56.0,119.0
1259,223.81822856249997,224.39858512499998,59.0,125.0
1260,224.17537106249998,224.4848945625,40.0,117.0
1261,224.5325135625,224.90304890624998,42.0,102.0
1262,224.5325135625,225.06525112499997,66.0,113.0
1263,224.5325135625,225.08310824999998,61.0,117.0
1264,224.5325135625,225.08906062499997,57.0,116.0
1265,225.06822731249997,225.27060806249997,42.0,110.0
1266,225.24679856249998,225.78102421874996,66.0,113.0
1267,225.24679856249998,225.78846468749998,57.0,117.0
1268,225.24679856249998,225.81376228124998,61.0,120.0
1269,225.60394106249998,225.89114315624997,42.0,108.0
1270,225.96108356249997,226.28995228124998,50.0,94.0
1271,225.96108356249997,226.29590465624997,38.0,104.0
1272,225.96108356249997,226.4908449375,66.0,107.0
1273,225.96108356249997,226.51316634375,57.0,108.0
1274,225.96108356249997,226.51316634375,62.0,113.0
1275,226.49679731249998,226.78102321874997,38.0,110.0
1276,226.49679731249998,226.78846368749998,50.0,108.0
1277,226.67536856249998,227.07864196874996,66.0,110.0
1278,226.67536856249998,227.17090378124996,62.0,116.0
1279,226.67536856249998,227.18280853124998,57.0,114.0
1280,227.03251106249996,227.19917756249998,50.0,102.0
1281,227.03251106249996,227.22447515624998,38.0,100.0
1282,227.38965356249997,227.70661753124998,52.0,100.0
1283,227.38965356249997,227.89560543749997,64.0,100.0
1284,227.38965356249997,227.93131968749998,56.0,100.0
1285,227.38965356249997,227.93280778124998,59.0,110.0
1286,227.9253673125,228.24084318749996,52.0,93.0
1287,227.38965356249997,228.25572412499997,40.0,91.0
1288,228.10393856249996,228.54143812499998,56.0,110.0
1289,228.10393856249996,228.60989043749998,64.0,102.0
1290,228.46108106249997,228.66048562499998,40.0,86.0
1291,228.46108106249997,228.66494990624997,52.0,102.0
1292,228.10393856249996,228.68280703124998,59.0,116.0
1293,228.81822356249998,229.19768746874996,45.0,98.0
1294,228.81822356249998,229.40899678124998,61.0,116.0
1295,228.81822356249998,229.41643724999997,57.0,102.0
1296,228.81822356249998,229.41941343749997,64.0,102.0
1297,229.35393731249997,229.69322268749997,45.0,114.0
1298,229.53250856249997,229.99828190624999,57.0,108.0
1299,229.53250856249997,230.01465093749997,61.0,114.0
1300,229.53250856249997,230.03101996874997,64.0,114.0
1301,229.88965106249998,230.08607943749996,45.0,116.0
1302,230.2467935625,230.59500749999998,54.0,104.0
1303,230.2467935625,230.61881699999998,42.0,87.0
1304,230.2467935625,230.7706025625,66.0,107.0
1305,230.2467935625,230.7944120625,61.0,116.0
1306,230.2467935625,230.79590015624999,57.0,107.0
1307,230.78250731249997,231.03548324999997,54.0,113.0
1308,230.78250731249997,231.0682213125,42.0,102.0
1309,230.96107856249998,231.45661378124998,66.0,113.0
1310,230.96107856249998,231.46256615624998,57.0,116.0
1311,230.96107856249998,231.49679231249996,61.0,119.0
1312,231.3182210625,231.53399465624997,42.0,100.0
1313,231.67536356249997,231.98339896874998,38.0,113.0
1314,231.67536356249997,231.99530371874997,50.0,98.0
1315,231.67536356249997,232.17685115624997,57.0,110.0
1316,231.67536356249997,232.18875590624998,62.0,116.0
1317,231.67536356249997,232.18875590624998,66.0,107.0
1318,232.21107731249998,232.45214849999996,50.0,110.0
1319,232.21107731249998,232.46851753124997,38.0,108.0
1320,232.38964856249999,232.88815996874996,66.0,108.0
1321,232.38964856249999,232.89857662499998,62.0,117.0
1322,232.38964856249999,232.90452899999997,57.0,113.0
1323,232.74679106249997,232.95065990624997,38.0,114.0
1324,233.10393356249998,233.42238562499998,45.0,116.0
1325,233.10393356249998,233.59351640624996,64.0,116.0
1326,233.10393356249998,233.5950045,57.0,113.0
1327,233.10393356249998,233.60988543749997,61.0,117.0
1328,233.63964731249996,233.89411134374998,45.0,117.0
1329,233.81821856249996,234.22893243749996,64.0,116.0
1330,233.81821856249996,234.24381337499997,61.0,119.0
1331,233.81821856249996,234.24827765624997,57.0,114.0
1332,234.17536106249997,234.48190837499996,45.0,110.0
1333,234.53250356249998,234.80631281249998,40.0,91.0
1334,234.53250356249998,234.81672946874997,52.0,93.0
1335,234.53250356249998,235.01613403124998,64.0,108.0
1336,234.53250356249998,235.04738399999997,59.0,119.0
1337,234.53250356249998,235.05184828124996,56.0,114.0
1338,235.06821731249997,235.14262199999996,52.0,114.0
1339,235.06821731249997,235.31821706249997,40.0,107.0
1340,235.24678856249997,235.62625246874998,64.0,113.0
1341,235.24678856249997,235.65750243749997,56.0,116.0
1342,235.24678856249997,235.75422853124996,59.0,119.0
1343,235.60393106249998,235.7586928125,40.0,116.0
1344,235.96107356249996,236.28994228124998,42.0,117.0
1345,235.96107356249996,236.47148971874998,66.0,110.0
1346,235.96107356249996,236.49083493749998,57.0,114.0
1347,235.96107356249996,236.49381112499998,61.0,119.0
1348,236.49678731249998,236.76762037499998,42.0,116.0
1349,236.67535856249998,237.14261999999997,66.0,113.0
1350,236.67535856249998,237.16196521874997,61.0,120.0
1351,236.67535856249998,237.17535806249998,57.0,116.0
1352,237.03250106249996,237.32267934374997,42.0,110.0
1353,237.38964356249997,237.71553609374996,50.0,110.0
1354,237.38964356249997,237.72000037499998,38.0,96.0
1355,237.38964356249997,237.92535731249998,57.0,114.0
1356,237.38964356249997,237.92833349999998,66.0,108.0
1357,237.38964356249997,237.93279778124997,62.0,116.0
1358,237.92535731249998,238.19767846874998,50.0,113.0
1359,237.92535731249998,238.20660703124997,38.0,104.0
1360,238.10392856249996,238.54738049999997,66.0,108.0
1361,238.10392856249996,238.62922565625,62.0,117.0
1362,238.46107106249997,238.63220184374998,50.0,113.0
1363,238.46107106249997,238.63517803124998,38.0,98.0
1364,238.10392856249996,238.64113040624997,57.0,114.0
1365,238.81821356249998,239.12029659374997,45.0,110.0
1366,238.81821356249998,239.35839159374999,64.0,104.0
1367,238.81821356249998,239.36880824999997,61.0,116.0
1368,238.81821356249998,239.37624871874996,57.0,110.0
1369,239.35392731249996,239.64708178124997,45.0,117.0
1370,239.53249856249997,239.9491648125,57.0,114.0
1371,239.53249856249997,240.01910521874998,64.0,102.0
1372,239.88964106249998,240.06821231249998,45.0,116.0
1373,239.53249856249997,240.06821231249998,61.0,120.0
1374,240.24678356249999,240.48487856249997,42.0,90.0
1375,240.24678356249999,240.53547374999997,40.0,93.0
1376,240.24678356249999,240.53547374999997,52.0,107.0
1377,240.24678356249999,240.76910446875,64.0,107.0
1378,240.24678356249999,240.78100921874997,59.0,117.0
1379,240.24678356249999,240.78844968749996,56.0,108.0
1380,240.78249731249997,240.94767571874996,52.0,110.0
1381,240.78249731249997,240.96106856249997,40.0,108.0
1382,240.96106856249997,241.13517553124998,64.0,113.0
1383,240.96106856249997,241.14856837499997,59.0,119.0
1384,240.96106856249997,241.16344931249998,56.0,114.0
1385,241.13963981249998,241.24529446874996,52.0,117.0
1386,241.13963981249998,241.26910396874996,40.0,110.0
1387,241.31821106249998,241.48636565624997,64.0,108.0
1388,241.31821106249998,241.50868706249997,56.0,114.0
1389,241.31821106249998,241.53249656249997,59.0,119.0
1390,241.67535356249996,242.21999587499997,66.0,113.0
1391,241.67535356249996,242.22892443749998,61.0,119.0
1392,241.67535356249996,242.23934109374997,57.0,113.0
1393,242.21106731249998,242.39410284374998,54.0,113.0
1394,241.67535356249996,242.43874565624998,42.0,114.0
1395,242.38963856249998,242.80332862499998,57.0,116.0
1396,242.38963856249998,242.85987618749996,66.0,110.0
1397,242.38963856249998,242.89261424999998,61.0,120.0
1398,242.74678106249996,242.92386421874997,40.0,94.0
1399,242.74678106249996,242.98934034374997,42.0,92.0
1400,243.10392356249997,243.42832799999996,50.0,116.0
1401,243.10392356249997,243.63219684374997,66.0,113.0
1402,243.10392356249997,243.63666112499996,57.0,116.0
1403,243.10392356249997,243.64410159374998,62.0,117.0
1404,243.63963731249999,243.87326803124998,50.0,119.0
1405,243.81820856249996,244.22297006249997,66.0,110.0
1406,243.81820856249996,244.29588665624996,57.0,116.0
1407,243.81820856249996,244.30481521874998,62.0,117.0
1408,244.17535106249997,244.42981509374997,50.0,117.0
1409,244.53249356249998,244.85987418749997,45.0,117.0
1410,244.53249356249998,244.99826690624997,64.0,110.0
1411,244.53249356249998,245.03695734374998,57.0,114.0
1412,244.53249356249998,245.05332637499998,61.0,119.0
1413,245.24677856249997,245.26314759374998,63.0,106.0
1414,245.06820731249996,245.31225468749997,45.0,107.0
1415,245.24677856249997,245.69618287499998,57.0,114.0
1416,245.24677856249997,245.72296856249997,64.0,110.0
1417,245.24677856249997,245.779516125,61.0,120.0
1418,245.60392106249998,245.83159940624998,45.0,108.0
1419,245.96106356249996,246.17237287499998,52.0,94.0
1420,245.96106356249996,246.18725381249996,40.0,89.0
1421,245.96106356249996,246.41642024999996,59.0,119.0
1422,245.96106356249996,246.42088453124998,56.0,113.0
1423,245.96106356249996,246.44320593749998,64.0,102.0
1424,246.49677731249997,246.70064615624997,52.0,107.0
1425,246.49677731249997,246.74082468749998,40.0,93.0
1426,246.67534856249998,247.05332437499996,56.0,116.0
1427,246.67534856249998,247.05778865624998,64.0,110.0
1428,246.67534856249998,247.16344331249996,59.0,119.0
1429,247.0324910625,247.23189562499996,40.0,98.0
1430,247.38963356249997,247.70064515624998,42.0,107.0
1431,247.38963356249997,247.91790684374996,66.0,113.0
1432,247.38963356249997,247.92981159374997,57.0,113.0
1433,247.38963356249997,247.93725206249997,61.0,119.0
1434,247.92534731249998,248.17981134374998,42.0,94.0
1435,248.10391856249998,248.53993003124998,57.0,113.0
1436,248.10391856249998,248.57713237499996,66.0,110.0
1437,248.10391856249998,248.62772756249998,61.0,119.0
1438,248.46106106249997,248.73933459374996,42.0,102.0
1439,248.81820356249997,249.11879849999997,50.0,104.0
1440,248.81820356249997,249.14260799999997,38.0,94.0
1441,248.81820356249997,249.34350065624997,66.0,108.0
1442,248.81820356249997,249.35242921874996,62.0,116.0
1443,248.81820356249997,249.35986968749998,57.0,113.0
1444,249.35391731249996,249.64111940624997,50.0,113.0
1445,249.35391731249996,249.64855987499996,38.0,102.0
1446,249.53248856249996,249.98189287499997,66.0,110.0
1447,249.53248856249996,249.98933334374996,57.0,113.0
1448,249.88963106249997,250.00272618749997,38.0,94.0
1449,249.53248856249996,250.00719046874997,62.0,116.0
1450,249.88963106249997,250.02951187499997,50.0,102.0
1451,250.24677356249998,250.56076134374996,52.0,104.0
1452,250.24677356249998,250.56968990624998,40.0,93.0
1453,250.24677356249998,250.76909446874998,64.0,104.0
1454,250.24677356249998,250.77653493749997,59.0,116.0
1455,250.24677356249998,250.77802303124997,56.0,113.0
1456,250.78248731249997,251.06373703124999,52.0,113.0
1457,250.78248731249997,251.09052271874998,40.0,94.0
1458,250.96105856249997,251.42087953124997,56.0,110.0
1459,250.96105856249997,251.43576046874998,64.0,108.0
1460,251.31820106249998,251.44915331249996,52.0,107.0
1461,251.31820106249998,251.46998662499996,40.0,96.0
1462,250.96105856249997,251.48189137499998,59.0,117.0
1463,251.67534356249996,252.03992653124996,45.0,110.0
1464,251.67534356249996,252.23040253124998,64.0,107.0
1465,251.67534356249996,252.23337871874998,61.0,119.0
1466,251.67534356249996,252.24528346874996,57.0,108.0
1467,252.21105731249997,252.50123559374998,45.0,116.0
1468,252.38962856249998,252.71105681249998,61.0,119.0
1469,252.38962856249998,252.83308049999997,57.0,113.0
1470,252.38962856249998,252.83605668749996,64.0,110.0
1471,252.74677106249996,252.93724706249998,45.0,113.0
1472,253.10391356249997,253.60540115624997,66.0,108.0
1473,253.10391356249997,253.61284162499996,61.0,117.0
1474,253.10391356249997,253.61581781249998,57.0,108.0
1475,253.10391356249997,253.94915081249997,54.0,104.0
1476,253.10391356249997,253.98337696874998,42.0,90.0
1477,253.81819856249996,254.30926949999997,57.0,113.0
1478,253.81819856249996,254.31075759374997,66.0,108.0
1479,254.17534106249997,254.33456709374997,42.0,93.0
1480,253.81819856249996,254.33903137499996,61.0,119.0
1481,254.53248356249998,254.85539990624997,50.0,107.0
1482,254.53248356249998,254.86432846874996,38.0,107.0
1483,254.53248356249998,255.07117349999996,66.0,107.0
1484,254.53248356249998,255.07266159374998,57.0,110.0
1485,254.53248356249998,255.07266159374998,62.0,117.0
1486,255.06819731249996,255.31522087499997,38.0,96.0
1487,255.06819731249996,255.31670896874996,50.0,108.0
1488,255.24676856249997,255.72593474999996,66.0,107.0
1489,255.24676856249997,255.76313709374998,62.0,116.0
1490,255.24676856249997,255.76611328124997,57.0,108.0
1491,255.60391106249998,255.81373228124997,38.0,89.0
1492,255.60391106249998,255.83605368749997,50.0,102.0
1493,255.96105356249998,256.27950562499996,45.0,94.0
1494,255.96105356249998,256.48635065624995,61.0,116.0
1495,255.96105356249998,256.50420778125,57.0,110.0
1496,255.96105356249998,256.53099346874995,64.0,114.0
1497,256.49676731249997,256.78396940625,45.0,96.0
1498,256.6753385625,257.11135003124997,57.0,110.0
1499,256.6753385625,257.2140285,64.0,113.0
1500,256.6753385625,257.26908796874994,61.0,117.0
1501,257.0324810625,257.35539740624995,45.0,102.0
1502,257.3896235625,257.65301615625,40.0,90.0
1503,257.3896235625,257.65896853124997,52.0,98.0
1504,257.3896235625,257.8420040625,64.0,96.0
1505,257.3896235625,257.89706353124996,59.0,114.0
1506,257.3896235625,257.90003971874995,56.0,104.0
1507,257.92533731249995,258.13813471875,40.0,96.0
1508,257.92533731249995,258.13962281249997,52.0,107.0
1509,258.10390856249995,258.48932484374996,64.0,113.0
1510,258.10390856249995,258.55480096875,56.0,110.0
1511,258.46105106249996,258.61432471874997,40.0,92.0
1512,258.46105106249996,258.62622946874995,52.0,107.0
1513,258.10390856249995,258.666408,59.0,119.0
1514,258.81819356249997,259.10390756249996,54.0,89.0
1515,258.81819356249997,259.10985993749995,42.0,91.0
1516,258.81819356249997,259.31075259374995,66.0,114.0
1517,258.81819356249997,259.34349065624997,61.0,116.0
1518,258.81819356249997,259.36730015625,57.0,107.0
1519,259.3539073125,259.51462143749995,54.0,104.0
1520,259.3539073125,259.54289521874995,42.0,98.0
1521,259.5324785625,260.01164474999996,66.0,116.0
1522,259.5324785625,260.03545425,61.0,119.0
1523,259.8896210625,260.0384304375,42.0,89.0
1524,259.5324785625,260.06372803125,57.0,108.0
1525,260.24676356249995,260.52206090625,38.0,100.0
1526,260.24676356249995,260.53694184374996,50.0,96.0
1527,260.24676356249995,260.74825115625,66.0,110.0
1528,260.24676356249995,260.76610828124996,62.0,116.0
1529,260.24676356249995,260.78098921875,57.0,110.0
1530,260.78247731249996,260.95956046875,50.0,104.0
1531,260.78247731249996,260.97741759375,38.0,104.0
1532,260.96104856249997,261.39110765624997,66.0,113.0
1533,260.96104856249997,261.48634565624997,57.0,114.0
1534,261.3181910625,261.49527421874996,50.0,108.0
1535,261.3181910625,261.4967623125,38.0,100.0
1536,260.96104856249997,261.5027146875,62.0,117.0
1537,261.6753335625,261.99229753124996,45.0,110.0
1538,261.6753335625,262.19765446875,64.0,110.0
1539,261.6753335625,262.20807112499995,57.0,110.0
1540,261.6753335625,262.21551159374997,61.0,117.0
1541,262.21104731249994,262.44021375,45.0,114.0
1542,262.38961856249995,262.78396340625,57.0,113.0
1543,262.38961856249995,262.84497524999995,64.0,107.0
1544,262.38961856249995,262.94021324999994,61.0,119.0
1545,262.74676106249996,263.005689375,45.0,104.0
1546,263.10390356249997,263.36134378124996,40.0,91.0
1547,263.10390356249997,263.37622471875,52.0,98.0
1548,263.10390356249997,263.61134353125,64.0,108.0
1549,263.10390356249997,263.64705778125,59.0,119.0
1550,263.10390356249997,263.65003396875,56.0,110.0
1551,263.6396173125,263.74229578125,52.0,113.0
1552,263.6396173125,263.815212375,40.0,107.0
1553,263.8181885625,264.21848578124997,64.0,110.0
1554,263.8181885625,264.23336671874995,56.0,110.0
1555,263.8181885625,264.32265234374995,59.0,119.0
1556,264.1753310625,264.35539040624997,40.0,110.0
1557,264.53247356249994,264.79884234375,42.0,104.0
1558,264.53247356249994,265.02800878125,66.0,113.0
1559,264.53247356249994,265.06372303125,61.0,117.0
1560,264.53247356249994,265.07116349999995,57.0,113.0
1561,265.06818731249996,265.30628231249995,42.0,107.0
1562,265.24675856249996,265.72741284374996,66.0,113.0
1563,265.24675856249996,265.7378295,61.0,120.0
1564,265.24675856249996,265.767591375,57.0,113.0
1565,265.6039010625,265.87771031249997,42.0,110.0
1566,265.9610435625,266.25866231249995,38.0,98.0
1567,265.9610435625,266.25866231249995,50.0,108.0
1568,265.9610435625,266.51759062499997,66.0,108.0
1569,265.9610435625,266.54288821874997,62.0,116.0
1570,265.9610435625,266.5503286875,57.0,110.0
1571,266.4967573125,266.73336421874995,50.0,110.0
1572,266.4967573125,266.7378285,38.0,98.0
1573,266.67532856249994,267.10687575,66.0,108.0
1574,266.67532856249994,267.15598284375,57.0,110.0
1575,266.67532856249994,267.16937568749995,62.0,113.0
1576,267.03247106249995,267.17532806249994,38.0,96.0
1577,267.03247106249995,267.17681615624997,50.0,108.0
1578,267.38961356249996,267.6425895,45.0,113.0
1579,267.38961356249996,267.90300590625,64.0,104.0
1580,267.38961356249996,267.910446375,61.0,116.0
1581,267.38961356249996,267.92086303124995,57.0,110.0
1582,267.9253273125,268.10687475,45.0,116.0
1583,268.1038985625,268.53395765625,57.0,110.0
1584,268.1038985625,268.58306474999995,64.0,108.0
1585,268.1038985625,268.63514803124997,61.0,119.0
1586,268.4610410625,268.65449325,45.0,110.0
1587,268.8181835625,269.02056431249997,64.0,102.0
1588,268.8181835625,269.0503261875,59.0,116.0
1589,268.8181835625,269.16044512499997,52.0,102.0
1590,268.8181835625,269.28395690624995,56.0,107.0
1591,269.17532606249995,269.31223068749995,59.0,77.0
1592,269.17532606249995,269.32115925,64.0,78.0
1593,269.17532606249995,269.38961156249997,52.0,91.0
1594,269.35389731249995,269.72145646875,64.0,107.0
1595,269.35389731249995,269.7288969375,59.0,119.0
1596,269.35389731249995,269.73931359374996,56.0,110.0
1597,269.71103981249996,269.9283015,52.0,113.0
1598,269.88961106249997,270.08157515625,64.0,98.0
1599,269.88961106249997,270.08603943749995,56.0,107.0
1600,269.88961106249997,270.12621796875,59.0,116.0
1601,268.8181835625,270.13068224999995,40.0,88.0
1602,270.2467535625,270.77353874999994,66.0,113.0
1603,270.2467535625,270.791395875,57.0,110.0
1604,270.2467535625,270.79734824999997,61.0,117.0
1605,270.7824673125,270.97889568749997,54.0,104.0
1606,270.2467535625,271.0235385,42.0,98.0
1607,270.9610385625,271.44615712499996,66.0,113.0
1608,270.9610385625,271.49228803125,57.0,117.0
1609,270.9610385625,271.49972849999995,61.0,120.0
1610,271.31818106249995,271.59645459374997,42.0,98.0
1611,271.67532356249995,271.99228753125,50.0,91.0
1612,271.67532356249995,272.00419228124997,38.0,102.0
1613,271.67532356249995,272.19466828124996,66.0,108.0
1614,271.67532356249995,272.208061125,62.0,114.0
1615,271.67532356249995,272.21847778125,57.0,108.0
1616,272.21103731249997,272.45806087499994,50.0,110.0
1617,272.21103731249997,272.4729418125,38.0,102.0
1618,272.3896085625,272.82264384375,66.0,113.0
1619,272.3896085625,272.8777033125,57.0,113.0
1620,272.7467510625,272.88514378124995,38.0,93.0
1621,272.3896085625,272.89853662499996,62.0,114.0
1622,272.7467510625,272.91490565624997,50.0,108.0
1623,273.1038935625,273.40895278125,52.0,104.0
1624,273.1038935625,273.428298,40.0,91.0
1625,273.1038935625,273.6455596875,64.0,107.0
1626,273.1038935625,273.6574644375,59.0,116.0
1627,273.1038935625,273.67085728125,56.0,110.0
1628,273.63960731249995,273.95210699999996,52.0,108.0
1629,273.63960731249995,273.97145221874996,40.0,94.0
1630,273.81817856249995,274.31222568749996,56.0,113.0
1631,273.81817856249995,274.33157090624996,64.0,107.0
1632,274.17532106249996,274.34496375,40.0,92.0
1633,274.17532106249996,274.36430896875,52.0,98.0
1634,273.81817856249995,274.37918990624996,59.0,117.0
1635,274.53246356249997,275.14555818749994,64.0,110.0
1636,274.53246356249997,275.15299865624996,61.0,117.0
1637,274.53246356249997,275.15895103124996,57.0,110.0
1638,275.2467485625,275.26311759375,63.0,90.0
1639,274.53246356249997,275.49377212499996,45.0,107.0
1640,275.2467485625,275.67383146875,64.0,110.0
1641,275.2467485625,275.69466478124997,61.0,117.0
1642,275.2467485625,275.7110338125,57.0,108.0
1643,275.6038910625,275.7943670625,45.0,98.0
1644,276.67531856249997,277.0681753125,61.0,100.0
1645,276.31817606249996,277.10240146875,49.0,85.0
1646,275.96103356249995,277.13662762499996,42.0,91.0
1647,277.0324610625,277.386627375,57.0,88.0
1648,278.10388856249995,278.29734075,62.0,91.0
1649,277.3896035625,278.47442390624997,38.0,89.0
1650,277.7467460625,278.51757862499994,50.0,83.0
1651,278.46103106249996,278.79287596874997,57.0,106.0
1652,279.1753160625,279.83602968749994,52.0,86.0
1653,278.81817356249996,279.87174393749996,45.0,97.0
1654,279.5324585625,279.87323203125,61.0,104.0
1655,279.8896010625,280.20358884374997,57.0,100.0
1656,280.24674356249994,280.660433625,56.0,92.0
1657,280.60388606249995,280.9788856875,57.0,86.0
1658,280.96102856249996,281.31073059374995,59.0,88.0
1659,280.24674356249994,281.35834959374995,40.0,88.0
1660,280.60388606249995,281.39406384374996,47.0,81.0
1661,281.31817106249997,281.65596834375,52.0,87.0
1662,282.38959856249994,282.78245531249996,61.0,100.0
1663,282.0324560625,282.81668146874995,49.0,85.0
1664,281.6753135625,282.850907625,42.0,91.0
1665,282.74674106249995,283.10090737499996,57.0,88.0
1666,283.8181685625,284.01162074999996,62.0,91.0
1667,283.10388356249996,284.18870390624994,38.0,89.0
1668,283.46102606249997,284.231858625,50.0,83.0
1669,284.1753110625,284.50715596874994,57.0,106.0
1670,284.88959606249995,285.5503096875,52.0,86.0
1671,284.5324535625,285.5860239375,45.0,97.0
1672,285.24673856249996,285.58751203124996,61.0,104.0
1673,285.60388106249997,285.91786884374994,57.0,100.0
1674,285.9610235625,286.37471362499997,56.0,92.0
1675,286.3181660625,286.69316568749997,57.0,86.0
1676,286.6753085625,287.02501059375,59.0,88.0
1677,285.9610235625,287.07262959375,40.0,88.0
1678,286.3181660625,287.10834384375,47.0,81.0
1679,287.03245106249994,287.37024834374995,52.0,87.0
1680,288.1038785625,288.4967353125,61.0,100.0
1681,287.74673606249996,288.53096146875,49.0,85.0
1682,287.38959356249995,288.56518762499996,42.0,91.0
1683,288.4610210625,288.815187375,57.0,88.0
1684,289.53244856249995,289.72590075,62.0,91.0
1685,288.8181635625,289.90298390625,38.0,89.0
1686,289.17530606249994,289.94613862499995,50.0,83.0
1687,289.88959106249996,290.22143596875,57.0,106.0
1688,290.6038760625,291.26458968749995,52.0,86.0
1689,290.24673356249997,291.30030393749996,45.0,97.0
1690,290.9610185625,291.30179203125,61.0,104.0
1691,291.31816106249994,291.63214884375,57.0,100.0
1692,291.67530356249995,292.08899362499994,56.0,92.0
1693,292.03244606249996,292.40744568749994,57.0,86.0
1694,292.38958856249997,292.73929059374996,59.0,88.0
1695,291.67530356249995,292.78690959374995,40.0,88.0
1696,292.03244606249996,292.82262384374997,47.0,81.0
1697,292.7467310625,293.08452834375,52.0,87.0
1698,293.81815856249995,294.21101531249997,61.0,100.0
1699,293.4610160625,294.24524146874995,49.0,85.0
1700,293.1038735625,294.279467625,42.0,91.0
1701,294.17530106249995,294.52946737499997,57.0,88.0
1702,295.2467285625,295.44018074999997,62.0,91.0
1703,294.53244356249996,295.61726390624995,38.0,89.0
1704,294.8895860625,295.660418625,50.0,83.0
1705,295.6038710625,295.93571596874995,57.0,106.0
1706,296.31815606249995,296.9788696875,52.0,86.0
1707,295.96101356249994,297.0145839375,45.0,97.0
1708,296.67529856249996,297.01607203124996,61.0,104.0
1709,297.03244106249997,297.34642884374995,57.0,100.0
1710,297.3895835625,297.803273625,56.0,92.0
1711,297.7467260625,298.1217256875,57.0,86.0
1712,298.10386856249994,298.45357059375,59.0,88.0
1713,297.3895835625,298.50118959375,40.0,88.0
1714,297.7467260625,298.53690384374994,47.0,81.0
1715,298.46101106249995,298.79880834374995,52.0,87.0
