,start,end,pitch,velocity
0,5.69132813125,7.357669008333334,71.0,71.0
1,5.69132813125,7.415361133333334,75.0,75.0
2,7.53747613125,9.000933035416667,70.0,68.0
3,7.53747613125,9.174970945833334,73.0,73.0
4,9.38362413125,11.00477284375,68.0,64.0
5,9.38362413125,11.20092606875,71.0,66.0
6,11.22977213125,12.626883091666667,66.0,64.0
7,11.22977213125,12.690344429166666,70.0,71.0
8,13.07592013125,14.85860679375,71.0,65.0
9,13.07592013125,14.862452935416666,76.0,68.0
10,14.92206813125,15.622065914583333,70.0,69.0
11,14.92206813125,15.628796662500001,73.0,76.0
12,15.84514213125,16.4480248375,71.0,71.0
13,15.84514213125,16.4480248375,75.0,75.0
14,16.76821613125,18.128788745833333,76.0,73.0
15,16.76821613125,18.309557404166668,73.0,77.0
16,18.61436413125,20.344166345833333,66.0,64.0
17,18.61436413125,20.3480124875,70.0,73.0
18,20.46051213125,20.638396183333334,66.0,72.0
19,20.46051213125,20.80762641666667,71.0,78.0
20,20.69128063125,21.00089503541667,66.0,72.0
21,20.92204913125,21.466278177083332,71.0,75.0
22,21.15281763125,21.508585735416666,66.0,66.0
23,21.845123131250002,22.126853008333335,71.0,67.0
24,21.38358613125,22.173006708333332,75.0,73.0
25,21.61435463125,22.212429660416667,66.0,72.0
26,22.306660131250002,22.608582252083334,70.0,73.0
27,22.537428631250002,22.841273822916666,66.0,70.0
28,22.76819713125,23.175888147916666,70.0,68.0
29,22.99896563125,23.730694083333333,66.0,69.0
30,23.22973413125,23.883578214583334,73.0,77.0
31,24.15280813125,24.4095380875,71.0,73.0
32,24.38357663125,24.682614145833334,68.0,67.0
33,24.84511363125,25.123958902083334,68.0,68.0
34,24.61434513125,25.216266302083334,71.0,68.0
35,25.30665063125,25.570111335416666,68.0,69.0
36,25.07588213125,25.702803222916668,75.0,71.0
37,25.53741913125,25.829725897916667,71.0,66.0
38,25.76818763125,25.956648572916666,68.0,70.0
39,25.99895613125,26.271070654166667,70.0,73.0
40,26.22972463125,26.501839154166667,66.0,66.0
41,26.69126163125,26.908568635416668,66.0,64.0
42,26.46049313125,27.130683316666666,70.0,69.0
43,26.92203013125,27.420105477083332,75.0,77.0
44,27.15279863125,27.44125925625,66.0,67.0
45,27.38356713125,27.623950985416666,70.0,66.0
46,27.84510413125,28.112410977083332,71.0,72.0
47,28.07587263125,28.382602429166667,68.0,69.0
48,28.30664113125,28.656640022916665,71.0,68.0
49,28.53740963125,28.663370770833335,68.0,64.0
50,29.22971513125,29.530675716666668,70.0,70.0
51,29.46048363125,29.67394449375,66.0,71.0
52,29.69125213125,29.91721295416667,70.0,72.0
53,29.92202063125,30.177789052083334,66.0,69.0
54,30.15278913125,30.456634322916667,70.0,71.0
55,30.38355763125,30.561441683333335,66.0,68.0
56,30.84509463125,31.040286320833335,68.0,78.0
57,31.07586313125,31.326823875,71.0,70.0
58,31.30663163125,31.5691308,68.0,71.0
59,31.53740013125,31.82009154375,73.0,70.0
60,31.76816863125,32.02874472916667,68.0,69.0
61,31.99893713125,32.30759,73.0,75.0
62,32.22970563125,32.4979740125,68.0,67.0
63,32.46047413125,32.69701184375,70.0,66.0
64,32.69124263125,32.969126366666664,66.0,70.0
65,32.92201113125,33.20951022083334,70.0,72.0
66,33.15277963125,33.4210480125,66.0,66.0
67,33.38354813125,34.30662213125,71.0,73.0
68,34.53739063125,34.668159447916665,71.0,78.0
69,34.76815913125,34.89315873541667,73.0,79.0
70,34.99892763125,35.168157864583335,75.0,84.0
71,35.22969613125,35.44508006458334,78.0,79.0
72,35.57584888125,35.6825793125,75.0,81.0
73,35.92200163125,36.27200052291667,78.0,78.0
74,36.38353863125,36.49892288125,75.0,79.0
75,36.61430713125,36.731614452083335,73.0,82.0
76,36.72969138125,36.78930657708333,71.0,73.0
77,36.84507563125,36.9287292125,70.0,72.0
78,36.96045988125,37.0441134625,71.0,72.0
79,37.07584413125,37.23834361666667,73.0,81.0
80,37.42199688125,37.62488085416667,73.0,88.0
81,37.76814963125,38.367186195833334,71.0,86.0
82,38.69122363125,38.83353087291667,66.0,78.0
83,38.92199213125,39.143145277083335,78.0,81.0
84,39.26814488125,39.43545204375,75.0,81.0
85,39.614297631250004,39.94602735,78.0,79.0
86,40.075834631250004,40.18641120416667,75.0,83.0
87,40.30660313125,40.490256395833335,73.0,88.0
88,40.518140922916665,40.63833285,71.0,83.0
89,40.76814013125,41.13256205416667,70.0,84.0
90,41.22967713125,41.8325598375,71.0,79.0
91,41.92198263125,42.05275144791667,71.0,78.0
92,42.15275113125,42.27775073541667,73.0,79.0
93,42.38351963125,42.55274986458333,75.0,84.0
94,42.61428813125,42.829672064583335,78.0,79.0
95,42.96044088125,43.0671713125,75.0,81.0
96,43.30659363125,43.65659252291667,78.0,78.0
97,43.76813063125,43.88351488125,75.0,79.0
98,43.99889913125,44.11620645208333,73.0,82.0
99,44.11428338125,44.173898577083335,71.0,73.0
100,44.22966763125,44.3133212125,70.0,72.0
101,44.34505188125,44.4287054625,71.0,72.0
102,44.46043613125,44.622935616666666,73.0,81.0
103,44.80658888125,45.00947285416667,73.0,88.0
104,45.15274163125,45.75177819583333,71.0,86.0
105,46.07581563125,46.1998537,75.0,84.0
106,46.30658413125,46.513314245833335,76.0,82.0
107,46.53735263125,46.74023660416667,75.0,84.0
108,46.76812113125,47.024851087500004,73.0,83.0
109,46.99888963125,47.13061998333333,71.0,78.0
110,47.22965813125,47.59119544791667,71.0,82.0
111,47.57581088125,47.77677178333333,70.0,81.0
112,47.92196363125,49.1709981375,71.0,83.0
113,49.99888013125,50.277725402083334,83.0,78.0
114,50.22964863125,50.43541721041667,82.0,49.0
115,50.46041713125,50.67483952916667,78.0,67.0
116,50.69118563125,51.12964578125,73.0,78.0
117,51.15272263125,51.63349033958333,75.0,71.0
118,51.845028131250004,52.07195048958334,73.0,74.0
119,52.19118088125,52.42675705833334,73.0,75.0
120,52.53733363125,53.006562914583334,78.0,68.0
121,52.99887063125,53.602714872916664,70.0,70.0
122,53.69117613125,53.94309841041667,76.0,71.0
123,53.92194463125,54.18828994166667,75.0,68.0
124,54.15271313125,54.39405852083333,71.0,70.0
125,54.38348163125,55.07194098958333,66.0,69.0
126,55.53732413125,55.79309255208334,66.0,68.0
127,55.88347688125,56.206552781250004,66.0,69.0
128,56.22962963125,56.5786669875,73.0,77.0
129,56.69116663125,56.92193513125,71.0,65.0
130,56.92193513125,57.136357529166666,70.0,56.0
131,57.15270363125,57.32578000625,66.0,57.0
132,57.38347213125,57.66231740208333,83.0,78.0
133,57.61424063125,57.820009210416664,82.0,49.0
134,57.84500913125,58.059431529166666,78.0,67.0
135,58.07577763125,58.51423778125,73.0,78.0
136,58.53731463125,59.01808233958334,75.0,71.0
137,59.22962013125,59.456542489583335,73.0,74.0
138,59.57577288125,59.811349058333334,73.0,75.0
139,59.92192563125,60.39115491458333,78.0,68.0
140,60.38346263125,60.98730687291667,70.0,70.0
141,61.07576813125,61.327690410416665,76.0,71.0
142,61.30653663125,61.572881941666665,75.0,68.0
143,61.53730513125,61.77865052083333,71.0,70.0
144,61.76807363125,62.45653298958334,66.0,69.0
145,62.92191613125,63.177684552083335,66.0,68.0
146,63.26806888125,63.59114478125,66.0,69.0
147,63.614221631250004,63.9632589875,73.0,77.0
148,64.07575863125,64.30652713125001,71.0,65.0
149,64.30652713125001,64.52094952916667,70.0,56.0
150,64.53729563125,64.71037200625,66.0,57.0
151,64.76806413125,64.96325582083334,66.0,71.0
152,64.99883263125,65.27094715416666,63.0,73.0
153,65.22960113125,65.480561875,66.0,68.0
154,65.46036963125,65.96998340208333,70.0,75.0
155,65.92190663125,66.32671304166666,66.0,69.0
156,66.61421213125,66.8709420875,68.0,61.0
157,66.84498063125,67.12671050833333,63.0,70.0
158,67.07574913125,67.35747900833333,68.0,66.0
159,67.30651763125,67.79593915833334,71.0,71.0
160,67.76805463125,68.16516875833334,68.0,68.0
161,68.46036013125,68.73920540208333,64.0,67.0
162,68.69112863125,68.97862772083333,61.0,63.0
163,68.92189713125,69.15170409583334,64.0,63.0
164,69.15266563125,69.83343270625001,68.0,69.0
165,70.30650813125,70.6093917875,70.0,68.0
166,70.53727663125,70.85554485416667,61.0,71.0
167,70.76804513125,71.00650591458333,66.0,70.0
168,70.99881363125,71.56227338541667,70.0,70.0
169,71.46035063125,71.81611873541667,66.0,69.0
170,72.15265613125,72.37765541875,66.0,70.0
171,72.38342463125,72.680539075,63.0,71.0
172,72.61419313125,72.865153875,66.0,69.0
173,72.84496163125,73.38919067708333,70.0,70.0
174,73.30649863125,73.72284346666667,66.0,68.0
175,73.99880413125,74.33341845625,71.0,72.0
176,74.22957263125001,74.55361006666666,63.0,70.0
177,74.46034113125,74.74303254375,68.0,65.0
178,74.69110963125,75.19687726041667,71.0,72.0
179,75.15264663125001,75.42379961875,70.0,72.0
180,75.38341513125,75.59110678125,68.0,67.0
181,75.84495213125,76.20072023541667,68.0,78.0
182,75.84495213125,76.21802787291666,73.0,82.0
183,76.99879463125001,77.15456336875,73.0,79.0
184,77.22956313125,77.36898576666667,75.0,79.0
185,77.46033163125,77.73052308333334,71.0,75.0
186,77.46033163125,77.77859985416667,76.0,67.0
187,78.84494263125,79.00167290416667,75.0,76.0
188,79.07571113125,79.20359534166667,76.0,78.0
189,79.30647963125,79.99878513125,73.0,78.0
190,79.76801663125,80.02378505208334,70.0,68.0
191,79.30647963125,80.35070709375,78.0,79.0
192,79.99878513125,80.618975475,66.0,64.0
193,80.46032213125,80.69974445,70.0,62.0
194,80.22955363125,80.72474437083333,73.0,78.0
195,80.69109063125,80.89685921041666,78.0,66.0
196,80.92185913125,81.2016659375,73.0,76.0
197,81.15262763125,81.42954983125,82.0,79.0
198,81.38339613125,81.66031833125,78.0,75.0
199,81.61416463125,81.90454832708333,85.0,80.0
200,81.84493313125,82.06993241875,82.0,75.0
201,82.07570163125,82.30647013125,85.0,68.0
202,82.30647013125,82.76800713125,90.0,79.0
203,83.22954413125,83.55165849583334,71.0,71.0
204,83.46031263125,83.73050408333333,66.0,71.0
205,83.69108113125,84.15165659583333,71.0,72.0
206,83.92184963125,84.1670411625,66.0,69.0
207,84.15261813125,84.67665493333334,75.0,77.0
208,84.38338663125,84.68242414583334,66.0,66.0
209,84.61415513125,84.94203870833333,71.0,70.0
210,84.84492363125,85.07569213125,66.0,72.0
211,85.07569213125,85.36030661458334,73.0,71.0
212,85.30646063125,85.57857515416667,66.0,72.0
213,85.53722913125,85.82472822083334,73.0,77.0
214,85.76799763125,86.04588136666666,66.0,70.0
215,85.99876613125001,86.28914982708334,73.0,76.0
216,86.22953463125,86.52184139791667,66.0,69.0
217,86.46030313125,86.79010977916667,73.0,77.0
218,86.69107163125,86.89972481666666,66.0,69.0
219,86.92184013125001,87.20453154375001,71.0,66.0
220,87.15260863125,87.44010772083334,68.0,65.0
221,87.38337713125,87.68337618125,71.0,71.0
222,87.61414563125,87.89683704375,68.0,64.0
223,87.84491413125001,88.10549022916666,71.0,71.0
224,88.07568263125,88.35356636666667,68.0,65.0
225,88.30645113125,88.62952703125,71.0,68.0
226,88.53721963125,88.77183427291666,68.0,72.0
227,88.76798813125001,89.04971800833333,70.0,59.0
228,88.99875663125,89.27087115416667,66.0,72.0
229,89.22952513125,89.52183189791667,70.0,73.0
230,89.46029363125,89.74683118541667,66.0,70.0
231,89.69106213125,89.97279200833333,70.0,77.0
232,89.92183063125,90.20836818541667,66.0,72.0
233,90.15259913125,90.47663656666667,70.0,74.0
234,90.38336763125,90.58625160416666,66.0,70.0
235,90.61413613125,90.88144297708334,71.0,71.0
236,90.84490463125,91.13144218541667,68.0,69.0
237,91.07567313125,91.38624907083333,71.0,72.0
238,91.30644163125,91.58336383125,68.0,71.0
239,91.53721013125,91.81894000833333,71.0,72.0
240,91.76797863125,92.02663165833333,68.0,70.0
241,91.99874713125,92.24490019791666,71.0,69.0
242,92.22951563125,92.44778417083333,68.0,72.0
243,92.46028413125,92.75066782708333,70.0,67.0
244,92.69105263125,92.95066719375001,66.0,66.0
245,92.92182113125,93.20932022083333,70.0,72.0
246,93.15258963125,93.36701202916667,66.0,70.0
247,93.38335813125,93.6285496625,71.0,64.0
248,93.61412663125,93.8766258,68.0,68.0
249,93.84489513125,94.12566347291667,71.0,69.0
250,94.07566363125,94.34200894166666,68.0,71.0
251,94.30643213125,94.56027748125,76.0,68.0
252,94.53720063125,94.76796913125,68.0,75.0
253,94.76796913125,95.07373739375001,76.0,66.0
254,94.99873763125,95.27181368958334,68.0,67.0
255,95.22950613125,95.45931309583334,76.0,70.0
256,95.46027463125,95.6939277375,68.0,74.0
257,95.69104313125,96.0170036375,76.0,71.0
258,95.92181163125,96.15834934375,68.0,73.0
259,96.15258013125,96.43623307916667,73.0,69.0
260,96.38334863125,96.64969394166667,66.0,73.0
261,96.61411713125,96.89969315,73.0,77.0
262,96.84488563125001,97.09488483958333,66.0,73.0
263,97.07565413125,97.36507629166667,73.0,77.0
264,97.30642263125,97.54776802083333,66.0,72.0
265,97.53719113125,97.80449797708333,73.0,77.0
266,97.76795963125001,97.96892053333333,66.0,70.0
267,97.99872813125,98.27757340208333,71.0,66.0
268,98.22949663125,98.48334198125,66.0,68.0
269,98.69103363125001,98.92660980833334,66.0,69.0
270,98.46026513125,98.99776342916667,71.0,70.0
271,98.92180213125,99.40064676875001,75.0,75.0
272,99.15257063125,99.42372361875,66.0,68.0
273,99.38333913125,99.69487660625,71.0,70.0
274,99.61410763125001,99.84295306041666,66.0,68.0
275,99.84487613125,100.17468277916667,73.0,75.0
276,100.07564463125,100.37179753958334,66.0,66.0
277,100.30641313125,100.59391222083333,70.0,71.0
278,100.53718163125001,100.81314229583333,66.0,67.0
279,100.76795013125,101.25929472916667,73.0,76.0
280,100.99871863125,101.29102539791667,66.0,64.0
281,101.22948713125,101.53814,70.0,69.0
282,101.46025563125,101.67852417083334,66.0,69.0
283,101.69102413125,101.96794633125,71.0,68.0
284,101.92179263125,102.22371475208334,68.0,67.0
285,102.38332963125,102.61409813125,68.0,67.0
286,102.15256113125,102.67275179166667,71.0,69.0
287,102.61409813125,103.07563513125,75.0,77.0
288,102.84486663125,103.12275036666666,68.0,66.0
289,103.30640363125,103.50159532083333,68.0,66.0
290,103.07563513125,103.58717197291666,71.0,67.0
291,103.53717213125,103.7939020875,70.0,70.0
292,103.76794063125,104.05736279166666,66.0,68.0
293,104.22947763125,104.434284675,66.0,68.0
294,103.99870913125,104.5323612875,70.0,71.0
295,104.69101463125,104.941975375,66.0,64.0
296,104.46024613125,104.96601376041667,75.0,77.0
297,104.92178313125,105.230436,70.0,72.0
298,105.15255163125,105.35639713958334,66.0,70.0
299,105.38332013125,105.87754933541667,68.0,74.0
300,105.38332013125,105.88812622500001,64.0,72.0
301,106.07562563125,106.40543227916667,64.0,72.0
302,106.07562563125,106.41023995625,68.0,76.0
303,106.53716263125,106.81600790208333,64.0,74.0
304,106.53716263125,106.82466172083333,68.0,73.0
305,107.22946813125,107.84581233333334,70.0,77.0
306,107.22946813125,107.85158154583334,66.0,69.0
307,108.15254213125,108.2823494125,71.0,73.0
308,108.15254213125,108.29292630208333,68.0,74.0
309,108.38331063125,108.72850184583334,68.0,76.0
310,108.38331063125,108.7323479875,71.0,77.0
311,108.84484763125,108.94965499166666,71.0,71.0
312,108.84484763125,108.96600109375,68.0,70.0
313,109.07561613125,109.73715249791667,68.0,75.0
314,109.07561613125,109.741960175,73.0,78.0
315,109.99869013125,110.61118819166667,66.0,68.0
316,109.99869013125,110.62080354583334,70.0,73.0
317,110.92176413125,111.31503211666667,66.0,70.0
318,110.92176413125,111.35926274583333,71.0,73.0
319,111.61406963125,111.88522261875,66.0,66.0
320,111.61406963125,111.89099183125,71.0,68.0
321,112.07560663125,112.20637544791667,71.0,78.0
322,112.30637513125001,112.43137473541667,73.0,79.0
323,112.53714363125,112.70637386458334,75.0,84.0
324,112.76791213125,112.98329606458333,78.0,79.0
325,113.11406488125,113.2207953125,75.0,81.0
326,113.46021763125,113.81021652291666,78.0,78.0
327,113.92175463125,114.03713888125,75.0,79.0
328,114.15252313125,114.26983045208334,73.0,82.0
329,114.26790738125,114.32752257708333,71.0,73.0
330,114.38329163125,114.46694521250001,70.0,72.0
331,114.49867588125001,114.5823294625,71.0,72.0
332,114.61406013125,114.77655961666667,73.0,81.0
333,114.96021288125,115.16309685416667,73.0,88.0
334,115.30636563125,115.90540219583333,71.0,86.0
335,116.22943963125,116.37174687291667,66.0,78.0
336,116.46020813125,116.68136127708334,78.0,81.0
337,116.80636088125,116.97366804375,75.0,81.0
338,117.15251363125,117.48424335,78.0,79.0
339,117.61405063125,117.72462720416667,75.0,83.0
340,117.84481913125,118.02847239583333,73.0,88.0
341,118.05635692291666,118.17654885,71.0,83.0
342,118.30635613125,118.67077805416668,70.0,84.0
343,118.76789313125,119.3707758375,71.0,79.0
344,119.46019863125,119.59096744791667,71.0,78.0
345,119.69096713125,119.81596673541667,73.0,79.0
346,119.92173563125,120.09096586458334,75.0,84.0
347,120.15250413125,120.36788806458334,78.0,79.0
348,120.49865688125,120.6053873125,75.0,81.0
349,120.84480963125,121.19480852291667,78.0,78.0
350,121.30634663125001,121.42173088125,75.0,79.0
351,121.53711513125,121.65442245208334,73.0,82.0
352,121.65249938125,121.71211457708334,71.0,73.0
353,121.76788363125,121.8515372125,70.0,72.0
354,121.88326788125,121.9669214625,71.0,72.0
355,121.99865213125,122.16115161666667,73.0,81.0
356,122.34480488125,122.54768885416667,73.0,88.0
357,122.69095763125,123.28999419583333,71.0,86.0
358,123.61403163125,123.7380697,75.0,84.0
359,123.84480013125,124.05153024583333,76.0,82.0
360,124.07556863125001,124.27845260416667,75.0,84.0
361,124.30633713125,124.5630670875,73.0,83.0
362,124.53710563125,124.66883598333334,71.0,78.0
363,124.76787413125,125.12941144791667,71.0,82.0
364,125.11402688125,125.31498778333334,70.0,81.0
365,125.46017963125,126.7092141375,71.0,83.0
366,127.53709613125,127.81594140208334,83.0,78.0
367,127.76786463125,127.97363321041666,82.0,49.0
368,127.99863313125,128.21305552916667,78.0,67.0
369,128.22940163125,128.66786178125,73.0,78.0
370,128.69093863125,129.17170633958332,75.0,71.0
371,129.38324413125,129.61016648958332,73.0,74.0
372,129.72939688125,129.96497305833333,73.0,75.0
373,130.07554963125,130.54477891458333,78.0,68.0
374,130.53708663125,131.14093087291667,70.0,70.0
375,131.22939213125,131.48131441041667,76.0,71.0
376,131.46016063125,131.72650594166666,75.0,68.0
377,131.69092913125002,131.93227452083335,71.0,70.0
378,131.92169763125,132.61015698958334,66.0,69.0
379,133.07554013125,133.33130855208333,66.0,68.0
380,133.42169288125,133.74476878125,66.0,69.0
381,133.76784563125,134.1168829875,73.0,77.0
382,134.22938263125,134.46015113125,71.0,65.0
383,134.46015113125,134.67457352916668,70.0,56.0
384,134.69091963125,134.86399600625,66.0,57.0
385,134.92168813125,135.20053340208332,83.0,78.0
386,135.15245663125,135.35822521041666,82.0,49.0
387,135.38322513125001,135.59764752916666,78.0,67.0
388,135.61399363125,136.05245378125,73.0,78.0
389,136.07553063125,136.55629833958332,75.0,71.0
390,136.76783613125,136.99475848958335,73.0,74.0
391,137.11398888125,137.34956505833333,73.0,75.0
392,137.46014163125,137.92937091458333,78.0,68.0
393,137.92167863125,138.52552287291667,70.0,70.0
394,138.61398413125,138.86590641041667,76.0,71.0
395,138.84475263125,139.11109794166666,75.0,68.0
396,139.07552113125,139.31686652083334,71.0,70.0
397,139.30628963125,139.99474898958334,66.0,69.0
398,140.46013213125,140.71590055208333,66.0,68.0
399,140.80628488125,141.12936078125,66.0,69.0
400,141.15243763125,141.5014749875,73.0,77.0
401,141.61397463125,141.84474313125,71.0,65.0
402,141.84474313125,142.05916552916668,70.0,56.0
403,142.07551163125,142.24858800625,66.0,57.0
404,142.30628013125,142.50147182083333,66.0,71.0
405,142.53704863125,142.80916315416667,63.0,73.0
406,142.76781713125,143.018777875,66.0,68.0
407,142.99858563125,143.50819940208333,70.0,75.0
408,143.46012263125002,143.86492904166667,66.0,69.0
409,144.15242813125,144.4091580875,68.0,61.0
410,144.38319663125,144.66492650833334,63.0,70.0
411,144.61396513125,144.89569500833335,68.0,66.0
412,144.84473363125,145.33415515833335,71.0,71.0
413,145.30627063125002,145.70338475833333,68.0,68.0
414,145.99857613125,146.27742140208335,64.0,67.0
415,146.22934463125,146.51684372083332,61.0,63.0
416,146.46011313125,146.68992009583334,64.0,63.0
417,146.69088163125,147.37164870625,68.0,69.0
418,147.84472413125,148.1476077875,70.0,68.0
419,148.07549263125,148.39376085416666,61.0,71.0
420,148.30626113125,148.54472191458333,66.0,70.0
421,148.53702963125,149.10048938541667,70.0,70.0
422,148.99856663125001,149.35433473541667,66.0,69.0
423,149.69087213125,149.91587141875002,66.0,70.0
424,149.92164063125,150.218755075,63.0,71.0
425,150.15240913125,150.403369875,66.0,69.0
426,150.38317763125,150.92740667708333,70.0,70.0
427,150.84471463125,151.26105946666667,66.0,68.0
428,151.53702013125,151.87163445625,71.0,72.0
429,151.76778863125,152.09182606666667,63.0,70.0
430,151.99855713125,152.28124854375,68.0,65.0
431,152.22932563125,152.73509326041668,71.0,72.0
432,152.69086263125,152.96201561875,70.0,72.0
433,152.92163113125,153.12932278125,68.0,67.0
434,153.38316813125,153.73893623541667,68.0,78.0
435,153.38316813125,153.75624387291666,73.0,82.0
436,154.53701063125,154.69277936875,73.0,79.0
437,154.76777913125,154.90720176666667,75.0,79.0
438,154.99854763125,155.26873908333334,71.0,75.0
439,154.99854763125,155.31681585416666,76.0,67.0
440,156.38315863125,156.53988890416667,75.0,76.0
441,156.61392713125,156.74181134166668,76.0,78.0
442,156.84469563125,157.53700113125,73.0,78.0
443,157.30623263125,157.56200105208333,70.0,68.0
444,156.84469563125,157.88892309375,78.0,79.0
445,157.53700113125,158.157191475,66.0,64.0
446,157.99853813125,158.23796045,70.0,62.0
447,157.76776963125,158.26296037083333,73.0,78.0
448,158.22930663125,158.43507521041667,78.0,66.0
449,158.46007513125,158.7398819375,73.0,76.0
450,158.69084363125,158.96776583125,82.0,79.0
451,158.92161213125001,159.19853433125002,78.0,75.0
452,159.15238063125,159.44276432708332,85.0,80.0
453,159.38314913125,159.60814841875,82.0,75.0
454,159.61391763125,159.84468613125,85.0,68.0
455,159.84468613125,160.30622313125,90.0,79.0
456,160.76776013125001,161.08987449583333,71.0,71.0
457,160.99852863125,161.26872008333333,66.0,71.0
458,161.22929713125,161.68987259583332,71.0,72.0
459,161.46006563125,161.7052571625,66.0,69.0
460,161.69083413125,162.21487093333334,75.0,77.0
461,161.92160263125,162.22064014583333,66.0,66.0
462,162.15237113125,162.48025470833335,71.0,70.0
463,162.38313963125,162.61390813125,66.0,72.0
464,162.61390813125,162.89852261458333,73.0,71.0
465,162.84467663125,163.11679115416666,66.0,72.0
466,163.07544513125,163.36294422083333,73.0,77.0
467,163.30621363125,163.58409736666667,66.0,70.0
468,163.53698213125,163.82736582708333,73.0,76.0
469,163.76775063125,164.06005739791667,66.0,69.0
470,163.99851913125,164.32832577916668,73.0,77.0
471,164.22928763125,164.43794081666667,66.0,69.0
472,164.46005613125,164.74274754375,71.0,66.0
473,164.69082463125,164.97832372083334,68.0,65.0
474,164.92159313125,165.22159218125,71.0,71.0
475,165.15236163125,165.43505304375,68.0,64.0
476,165.38313013125,165.64370622916667,71.0,71.0
477,165.61389863125,165.89178236666666,68.0,65.0
478,165.84466713125,166.16774303125,71.0,68.0
479,166.07543563125,166.31005027291667,68.0,72.0
480,166.30620413125,166.58793400833335,70.0,59.0
481,166.53697263125,166.80908715416666,66.0,72.0
482,166.76774113125,167.06004789791666,70.0,73.0
483,166.99850963125002,167.28504718541666,66.0,70.0
484,167.22927813125,167.51100800833333,70.0,77.0
485,167.46004663125,167.74658418541668,66.0,72.0
486,167.69081513125,168.01485256666666,70.0,74.0
487,167.92158363125,168.12446760416668,66.0,70.0
488,168.15235213125,168.41965897708334,71.0,71.0
489,168.38312063125,168.66965818541667,68.0,69.0
490,168.61388913125,168.92446507083335,71.0,72.0
491,168.84465763125002,169.12157983125,68.0,71.0
492,169.07542613125,169.35715600833333,71.0,72.0
493,169.30619463125,169.56484765833335,68.0,70.0
494,169.53696313125,169.78311619791666,71.0,69.0
495,169.76773163125,169.98600017083334,68.0,72.0
496,169.99850013125,170.28888382708334,70.0,67.0
497,170.22926863125,170.48888319375,66.0,66.0
498,170.46003713125,170.74753622083333,70.0,72.0
499,170.69080563125002,170.90522802916666,66.0,70.0
500,170.92157413125,171.1667656625,71.0,64.0
501,171.15234263125,171.4148418,68.0,68.0
502,171.38311113125,171.66387947291668,71.0,69.0
503,171.61387963125,171.88022494166668,68.0,71.0
504,171.84464813125,172.09849348125,76.0,68.0
505,172.07541663125,172.30618513125,68.0,75.0
506,172.30618513125,172.61195339375,76.0,66.0
507,172.53695363125001,172.81002968958333,68.0,67.0
508,172.76772213125,172.99752909583333,76.0,70.0
509,172.99849063125,173.2321437375,68.0,74.0
510,173.22925913125,173.55521963750002,76.0,71.0
511,173.46002763125,173.69656534375,68.0,73.0
512,173.69079613125,173.97444907916667,73.0,69.0
513,173.92156463125,174.18790994166667,66.0,73.0
514,174.15233313125,174.43790915,73.0,77.0
515,174.38310163125,174.63310083958334,66.0,73.0
516,174.61387013125,174.90329229166667,73.0,77.0
517,174.84463863125,175.08598402083334,66.0,72.0
518,175.07540713125,175.34271397708335,73.0,77.0
519,175.30617563125,175.50713653333332,66.0,70.0
520,175.53694413125,175.81578940208334,71.0,66.0
521,175.76771263125,176.02155798125,66.0,68.0
522,176.22924963125,176.46482580833333,66.0,69.0
523,175.99848113125,176.53597942916667,71.0,70.0
524,176.46001813125,176.93886276875,75.0,75.0
525,176.69078663125,176.96193961875,66.0,68.0
526,176.92155513125,177.23309260625,71.0,70.0
527,177.15232363125,177.38116906041668,66.0,68.0
528,177.38309213125,177.71289877916666,73.0,75.0
529,177.61386063125,177.91001353958333,66.0,66.0
530,177.84462913125,178.13212822083332,70.0,71.0
531,178.07539763125,178.35135829583334,66.0,67.0
532,178.30616613125,178.79751072916667,73.0,76.0
533,178.53693463125,178.82924139791666,66.0,64.0
534,178.76770313125002,179.076356,70.0,69.0
535,178.99847163125,179.21674017083333,66.0,69.0
536,179.22924013125,179.50616233125,71.0,68.0
537,179.46000863125,179.76193075208334,68.0,67.0
538,179.92154563125,180.15231413125,68.0,67.0
539,179.69077713125,180.21096779166666,71.0,69.0
540,180.15231413125,180.61385113125002,75.0,77.0
541,180.38308263125,180.66096636666666,68.0,66.0
542,180.84461963125,181.03981132083334,68.0,66.0
543,180.61385113125002,181.12538797291666,71.0,67.0
544,181.07538813125,181.3321180875,70.0,70.0
545,181.30615663125,181.59557879166667,66.0,68.0
546,181.76769363125,181.972500675,66.0,68.0
547,181.53692513125,182.07057728750002,70.0,71.0
548,182.22923063125,182.480191375,66.0,64.0
549,181.99846213125,182.50422976041668,75.0,77.0
550,182.45999913125002,182.768652,70.0,72.0
551,182.69076763125,182.89461313958333,66.0,70.0
552,182.92153613125,183.41576533541667,68.0,74.0
553,182.92153613125,183.426342225,64.0,72.0
554,183.61384163125,183.94364827916667,64.0,72.0
555,183.61384163125,183.94845595625,68.0,76.0
556,184.07537863125,184.35422390208333,64.0,74.0
557,184.07537863125,184.36287772083332,68.0,73.0
558,184.76768413125,185.38402833333333,70.0,77.0
559,184.76768413125,185.38979754583335,66.0,69.0
560,185.69075813125,185.8205654125,71.0,73.0
561,185.69075813125,185.83114230208332,68.0,74.0
562,185.92152663125,186.26671784583334,68.0,76.0
563,185.92152663125,186.2705639875,71.0,77.0
564,186.38306363125,186.48787099166668,71.0,71.0
565,186.38306363125,186.50421709375001,68.0,70.0
566,186.61383213125,187.27536849791667,68.0,75.0
567,186.61383213125,187.280176175,73.0,78.0
568,187.53690613125,188.14940419166666,66.0,68.0
569,187.53690613125,188.15901954583333,70.0,73.0
570,188.45998013125,188.85324811666666,66.0,70.0
571,188.45998013125,188.89747874583333,71.0,73.0
572,189.15228563125,189.42343861875,66.0,66.0
573,189.15228563125,189.42920783125,71.0,68.0
574,190.30612813125,190.56574269375,83.0,88.0
575,190.65228088125,190.87247249166666,85.0,86.0
576,190.99843363125,191.3128557125,87.0,83.0
577,191.45997063125,191.618623975,88.0,84.0
578,191.69073913125,191.97343054375,89.0,94.0
579,192.15227613125,192.241698925,90.0,82.0
580,192.38304463125002,192.47727510208333,90.0,80.0
581,192.61381313125,192.71477435,90.0,81.0
582,192.84458163125,192.94361977916668,90.0,79.0
583,193.07535013125,193.1705421375,90.0,79.0
584,193.30611863125,193.42150288125,90.0,78.0
585,193.53688713125,193.64746370416668,90.0,75.0
586,193.76765563125,193.87727066875001,90.0,78.0
587,193.99842413125,194.92919041458333,90.0,78.0
588,195.15226663125,195.28303544791666,71.0,78.0
589,195.38303513125,195.50803473541666,73.0,79.0
590,195.61380363125,195.78303386458333,75.0,84.0
591,195.84457213125,196.05995606458333,78.0,79.0
592,196.19072488125,196.2974553125,75.0,81.0
593,196.53687763125,196.88687652291668,78.0,78.0
594,196.99841463125,197.11379888125,75.0,79.0
595,197.22918313125,197.34649045208334,73.0,82.0
596,197.34456738125002,197.40418257708333,71.0,73.0
597,197.45995163125,197.5436052125,70.0,72.0
598,197.57533588125,197.6589894625,71.0,72.0
599,197.69072013125,197.85321961666668,73.0,81.0
600,198.03687288125,198.23975685416667,73.0,88.0
601,198.38302563125,198.98206219583332,71.0,86.0
602,199.30609963125,199.44840687291668,66.0,78.0
603,199.53686813125,199.75802127708334,78.0,81.0
604,199.88302088125,200.05032804375,75.0,81.0
605,200.22917363125,200.56090335,78.0,79.0
606,200.69071063125,200.80128720416667,75.0,83.0
607,200.92147913125,201.10513239583332,73.0,88.0
608,201.13301692291668,201.25320885,71.0,83.0
609,201.38301613125,201.74743805416668,70.0,84.0
610,201.84455313125,202.4474358375,71.0,79.0
611,202.53685863125,202.66762744791666,71.0,78.0
612,202.76762713125,202.89262673541666,73.0,79.0
613,202.99839563125,203.16762586458333,75.0,84.0
614,203.22916413125,203.44454806458333,78.0,79.0
615,203.57531688125,203.6820473125,75.0,81.0
616,203.92146963125,204.27146852291668,78.0,78.0
617,204.38300663125,204.49839088125,75.0,79.0
618,204.61377513125,204.73108245208334,73.0,82.0
619,204.72915938125,204.78877457708333,71.0,73.0
620,204.84454363125,204.9281972125,70.0,72.0
621,204.95992788125,205.04358146250001,71.0,72.0
622,205.07531213125,205.23781161666668,73.0,81.0
623,205.42146488125,205.62434885416667,73.0,88.0
624,205.76761763125,206.36665419583335,71.0,86.0
625,206.69069163125,206.81472970000002,75.0,84.0
626,206.92146013125,207.12819024583334,76.0,82.0
627,207.15222863125,207.35511260416666,75.0,84.0
628,207.38299713125,207.6397270875,73.0,83.0
629,207.61376563125,207.74549598333334,71.0,78.0
630,207.84453413125001,208.20607144791666,71.0,82.0
631,208.19068688125,208.39164778333333,70.0,81.0
632,208.53683963125,209.7858741375,71.0,83.0
633,210.61375613125,212.28009700833334,71.0,71.0
634,210.61375613125,212.33778913333333,75.0,75.0
635,212.45990413125,213.92336103541666,70.0,68.0
636,212.45990413125,214.09739894583333,73.0,73.0
637,214.30605213125,215.92720084375,68.0,64.0
638,214.30605213125,216.12335406875,71.0,66.0
639,216.15220013125,217.54931109166668,66.0,64.0
640,216.15220013125,217.61277242916668,70.0,71.0
641,217.99834813125,219.78103479375,71.0,65.0
642,217.99834813125,219.78488093541668,76.0,68.0
643,219.84449613125,220.54449391458334,70.0,69.0
644,219.84449613125,220.5512246625,73.0,76.0
645,220.76757013125,221.3704528375,71.0,71.0
646,220.76757013125,221.3704528375,75.0,75.0
647,221.69064413125,223.05121674583333,76.0,73.0
648,221.69064413125,223.23198540416666,73.0,77.0
649,223.53679213125,225.26659434583334,66.0,64.0
650,223.53679213125,225.2704404875,70.0,73.0
651,225.38294013125,225.56082418333332,66.0,72.0
652,225.38294013125,225.73005441666666,71.0,78.0
653,225.61370863125,225.92332303541667,66.0,72.0
654,225.84447713125002,226.38870617708335,71.0,75.0
655,226.07524563125,226.43101373541666,66.0,66.0
656,226.76755113125,227.04928100833334,71.0,67.0
657,226.30601413125,227.09543470833333,75.0,73.0
658,226.53678263125,227.13485766041666,66.0,72.0
659,227.22908813125,227.53101025208335,70.0,73.0
660,227.45985663125,227.76370182291666,66.0,70.0
661,227.69062513125002,228.09831614791668,70.0,68.0
662,227.92139363125,228.65312208333333,66.0,69.0
663,228.15216213125,228.80600621458333,73.0,77.0
664,229.07523613125,229.3319660875,71.0,73.0
665,229.30600463125,229.60504214583332,68.0,67.0
666,229.76754163125,230.04638690208333,68.0,68.0
667,229.53677313125002,230.13869430208334,71.0,68.0
668,230.22907863125,230.49253933541667,68.0,69.0
669,229.99831013125,230.62523122291668,75.0,71.0
670,230.45984713125,230.75215389791666,71.0,66.0
671,230.69061563125,230.87907657291666,68.0,70.0
672,230.92138413125,231.19349865416666,70.0,73.0
673,231.15215263125,231.42426715416667,66.0,66.0
674,231.61368963125,231.83099663541668,66.0,64.0
675,231.38292113125001,232.05311131666667,70.0,69.0
676,231.84445813125,232.34253347708335,75.0,77.0
677,232.07522663125,232.36368725625002,66.0,67.0
678,232.30599513125,232.54637898541668,70.0,66.0
679,232.76753213125,233.03483897708333,71.0,72.0
680,232.99830063125,233.30503042916666,68.0,69.0
681,233.22906913125001,233.57906802291666,71.0,68.0
682,233.45983763125,233.58579877083335,68.0,64.0
683,234.15214313125,234.45310371666667,70.0,70.0
684,234.38291163125,234.59637249375,66.0,71.0
685,234.61368013125,234.83964095416667,70.0,72.0
686,234.84444863125,235.10021705208334,66.0,69.0
687,235.07521713125,235.37906232291667,70.0,71.0
688,235.30598563125,235.48386968333332,66.0,68.0
689,235.76752263125002,235.96271432083333,68.0,78.0
690,235.99829113125,236.249251875,71.0,70.0
691,236.22905963125,236.4915588,68.0,71.0
692,236.45982813125,236.74251954375,73.0,70.0
693,236.69059663125,236.95117272916667,68.0,69.0
694,236.92136513125,237.230018,73.0,75.0
695,237.15213363125,237.4204020125,68.0,67.0
696,237.38290213125,237.61943984375,70.0,66.0
697,237.61367063125002,237.89155436666667,66.0,70.0
698,237.84443913125,238.13193822083335,70.0,72.0
699,238.07520763125,238.3434760125,66.0,66.0
700,238.30597613125,239.22905013125,71.0,73.0
701,239.45981863125002,239.59058744791668,71.0,78.0
702,239.69058713125,239.81558673541667,73.0,79.0
703,239.92135563125,240.09058586458335,75.0,84.0
704,240.15212413125,240.36750806458335,78.0,79.0
705,240.49827688125,240.6050073125,75.0,81.0
706,240.84442963125,241.19442852291667,78.0,78.0
707,241.30596663125002,241.42135088125,75.0,79.0
708,241.53673513125,241.65404245208333,73.0,82.0
709,241.65211938125,241.71173457708335,71.0,73.0
710,241.76750363125,241.8511572125,70.0,72.0
711,241.88288788125,241.9665414625,71.0,72.0
712,241.99827213125,242.16077161666666,73.0,81.0
713,242.34442488125,242.54730885416666,73.0,88.0
714,242.69057763125,243.28961419583334,71.0,86.0
715,243.61365163125,243.75595887291666,66.0,78.0
716,243.84442013125,244.06557327708333,78.0,81.0
717,244.19057288125,244.35788004375001,75.0,81.0
718,244.53672563125,244.86845535,78.0,79.0
719,244.99826263125001,245.10883920416666,75.0,83.0
720,245.22903113125,245.41268439583334,73.0,88.0
721,245.44056892291667,245.56076085,71.0,83.0
722,245.69056813125,246.05499005416667,70.0,84.0
723,246.15210513125,246.7549878375,71.0,79.0
724,246.84441063125,246.97517944791667,71.0,78.0
725,247.07517913125,247.20017873541667,73.0,79.0
726,247.30594763125,247.47517786458334,75.0,84.0
727,247.53671613125002,247.75210006458335,78.0,79.0
728,247.88286888125,247.9895993125,75.0,81.0
729,248.22902163125,248.57902052291666,78.0,78.0
730,248.69055863125,248.80594288125,75.0,79.0
731,248.92132713125,249.03863445208333,73.0,82.0
732,249.03671138125,249.09632657708335,71.0,73.0
733,249.15209563125,249.2357492125,70.0,72.0
734,249.26747988125,249.3511334625,71.0,72.0
735,249.38286413125002,249.54536361666666,73.0,81.0
736,249.72901688125,249.93190085416666,73.0,88.0
737,250.07516963125,250.67420619583334,71.0,86.0
738,250.99824363125,251.1222817,75.0,84.0
739,251.22901213125002,251.43574224583332,76.0,82.0
740,251.45978063125,251.66266460416668,75.0,84.0
741,251.69054913125,251.9472790875,73.0,83.0
742,251.92131763125,252.05304798333333,71.0,78.0
743,252.15208613125,252.51362344791667,71.0,82.0
744,252.49823888125002,252.69919978333334,70.0,81.0
745,252.84439163125,254.09342613750002,71.0,83.0
