,start,end,pitch,velocity
0,4.99902263125,5.135560660416667,66.0,83.0
1,5.22979113125,5.372098372916667,71.0,81.0
2,5.46055963125,5.597097660416667,73.0,88.0
3,5.69132813125,6.090365329166667,75.0,82.0
4,6.1528651312500005,6.486517920833333,66.0,81.0
5,6.61440213125,6.766324727083333,76.0,88.0
6,6.84517063125,7.011516258333334,75.0,78.0
7,7.07593913125,7.285553852083334,73.0,88.0
8,7.30670763125,7.466322510416667,71.0,78.0
9,7.53747613125,7.68459105,70.0,77.0
10,7.76824463125,8.139397302083333,70.0,79.0
11,8.22978163125,8.944202445833334,78.0,78.0
12,9.38362413125,9.739392235416666,71.0,78.0
13,9.84516113125,10.165352425,63.0,91.0
14,10.30669813125,10.437466947916667,73.0,91.0
15,10.53746663125,10.685543085416667,71.0,79.0
16,10.76823513125,10.976888316666667,70.0,81.0
17,10.99900363125,11.14611855,68.0,78.0
18,11.22977213125,11.426886891666667,68.0,79.0
19,11.46054063125,11.826885625000001,70.0,77.0
20,11.92207763125,12.832651670833334,66.0,81.0
21,12.84515163125,13.019189541666666,63.0,86.0
22,13.07592013125,13.444188195833334,64.0,79.0
23,13.537457131250001,13.88360988125,71.0,79.0
24,13.99899413125,14.546107783333333,70.0,81.0
25,14.69129963125,14.826876125,66.0,77.0
26,14.92206813125,15.278797770833334,66.0,77.0
27,15.38360513125,15.771103904166667,73.0,83.0
28,15.84514213125,16.374948145833333,71.0,78.0
29,16.76821613125,16.92975408125,76.0,79.0
30,16.99898463125,17.115330416666666,75.0,81.0
31,17.22975313125,17.3826372625,76.0,79.0
32,17.46052163125,17.58744430625,75.0,79.0
33,17.69129013125,17.86436650625,76.0,79.0
34,17.92205863125,18.334557325,75.0,83.0
35,18.38359563125,19.53743813125,73.0,86.0
36,19.76820663125,19.904744660416668,66.0,83.0
37,19.99897513125,20.141282372916667,71.0,81.0
38,20.22974363125,20.366281660416668,73.0,88.0
39,20.46051213125,20.85954932916667,75.0,82.0
40,20.92204913125,21.255701920833335,66.0,81.0
41,21.38358613125,21.535508727083332,76.0,88.0
42,21.61435463125,21.780700258333333,75.0,78.0
43,21.845123131250002,22.054737852083335,73.0,88.0
44,22.075891631250002,22.235506510416666,71.0,78.0
45,22.306660131250002,22.45377505,70.0,77.0
46,22.537428631250002,22.908581302083334,70.0,79.0
47,22.99896563125,23.713386445833333,78.0,78.0
48,24.15280813125,24.508576235416665,71.0,78.0
49,24.61434513125,24.934536425,63.0,91.0
50,25.07588213125,25.206650947916668,73.0,91.0
51,25.30665063125,25.454727085416668,71.0,79.0
52,25.53741913125,25.746072316666666,70.0,81.0
53,25.76818763125,25.91530255,68.0,78.0
54,25.99895613125,26.19607089166667,70.0,79.0
55,26.22972463125,26.596069625000002,80.0,77.0
56,26.69126163125,27.601835670833335,78.0,81.0
57,27.61433563125,27.772988975,71.0,83.0
58,27.84510413125,28.126834008333333,80.0,88.0
59,28.30664113125,28.495102072916666,76.0,75.0
60,28.53740963125,28.7364474625,75.0,81.0
61,28.76817813125,29.188369108333333,73.0,81.0
62,29.22971513125,29.380676191666666,75.0,81.0
63,29.46048363125,29.602790872916668,76.0,77.0
64,29.69125213125,30.035481810416666,78.0,78.0
65,30.15278913125,30.61432613125,75.0,77.0
66,30.61432613125,31.07586313125,71.0,84.0
67,31.30663163125,31.447015802083335,68.0,83.0
68,31.53740013125,31.689322727083333,76.0,82.0
69,31.76816863125,31.87201445625,75.0,78.0
70,31.99893713125,32.15470586875,76.0,79.0
71,32.22970563125,32.334512991666664,75.0,84.0
72,32.46047413125,32.790280779166665,71.0,79.0
73,32.92201113125,33.06431837291667,70.0,81.0
74,33.15277963125,33.62200891458333,73.0,82.0
75,33.61431663125,34.7825821625,71.0,78.0
76,49.30657463125,49.48445868333334,75.0,79.0
77,49.53734313125,49.72099639583333,73.0,77.0
78,49.76811163125,49.983495564583336,71.0,81.0
79,49.99888013125,50.984453933333334,66.0,79.0
80,51.15272263125,51.330606683333336,75.0,82.0
81,51.383491131250004,51.56137518333333,73.0,78.0
82,51.61425963125,51.81810513958333,71.0,78.0
83,51.845028131250004,52.87098642083333,70.0,79.0
84,53.46040763125,53.8440602625,68.0,79.0
85,53.92194463125,54.04213655833333,68.0,77.0
86,54.15271313125,54.269058916666665,68.0,78.0
87,54.38348163125,54.49886588125,68.0,81.0
88,54.61425013125,54.82867252916667,68.0,80.0
89,54.84501863125,55.07771020208333,66.0,69.0
90,55.07578713125,55.264248072916665,64.0,78.0
91,55.30655563125,55.703669758333334,68.0,80.0
92,55.76809263125,56.542128641666665,66.0,74.0
93,56.69116663125,56.837320014583334,75.0,77.0
94,56.92193513125,57.079626939583335,73.0,82.0
95,57.15270363125,57.352702997916666,71.0,79.0
96,57.38347213125,58.40846888541667,66.0,77.0
97,58.53731463125,58.699814116666666,75.0,81.0
98,58.76808313125,58.94019797083333,73.0,81.0
99,58.99885163125,59.218081706250004,71.0,79.0
100,59.22962013125,60.131540352083334,70.0,77.0
101,60.84499963125,61.2055754125,71.0,82.0
102,61.30653663125,61.44307466041667,71.0,80.0
103,61.53730513125,61.6671124125,71.0,78.0
104,61.76807363125,61.88826555833334,71.0,81.0
105,61.99884213125,62.150764727083335,71.0,82.0
106,62.229610631250004,62.365187125,68.0,82.0
107,62.46037913125,62.57576338125,71.0,77.0
108,62.691147631250004,63.067107979166664,80.0,78.0
109,63.152684631250004,63.84499013125,78.0,79.0
110,63.84499013125,64.20171977083334,75.0,84.0
111,64.30652713125001,64.63921838541667,76.0,82.0
112,64.76806413125,66.06421387291667,78.0,79.0
113,66.15267513125,66.33536686041667,70.0,77.0
114,66.38344363125,66.71228874375,73.0,79.0
115,66.84498063125,67.83920825208334,71.0,78.0
116,67.99882313125,68.23920698541667,68.0,77.0
117,68.22959163125,68.60939812083333,78.0,73.0
118,68.69112863125,68.83920508541667,76.0,78.0
119,68.92189713125,69.08247354583334,76.0,77.0
120,69.15266563125,69.27285755833333,75.0,78.0
121,69.38343413125,69.5709335375,76.0,77.0
122,69.61420263125,69.79689436041667,75.0,78.0
123,69.84497113125,70.0324705375,71.0,74.0
124,70.07573963125,70.48727678958333,75.0,79.0
125,70.53727663125,71.1170824875,73.0,86.0
126,71.22958213125,71.58631177083333,75.0,84.0
127,71.69111913125,72.02381038541667,76.0,82.0
128,72.15265613125,73.44880587291667,78.0,79.0
129,73.53726713125,73.71995886041667,70.0,77.0
130,73.76803563125,74.09688074375,73.0,79.0
131,74.22957263125001,75.22380025208334,71.0,78.0
132,75.61418363125,75.99399012083333,78.0,73.0
133,76.07572063125001,76.22379708541666,76.0,78.0
134,76.30648913125,76.46706554583334,76.0,77.0
135,76.53725763125,76.65744955833334,75.0,78.0
136,76.76802613125,77.22956313125,76.0,77.0
137,77.46033163125,77.95359930000001,76.0,81.0
138,77.92186863125,78.03052213333333,75.0,78.0
139,78.15263713125,78.32571350625,76.0,83.0
140,78.38340563125,78.5074437,75.0,83.0
141,78.61417413125,79.05840349375,76.0,83.0
142,79.07571113125,79.28532585208333,71.0,79.0
143,79.30647963125,82.27570099791667,78.0,80.0
144,82.53723863125,82.67377666041666,66.0,83.0
145,82.76800713125,82.91031437291667,71.0,81.0
146,82.99877563125,83.13531366041667,73.0,88.0
147,83.22954413125,83.62858132916666,75.0,82.0
148,83.69108113125,84.02473392083334,66.0,81.0
149,84.15261813125,84.30454072708334,76.0,88.0
150,84.38338663125,84.54973225833334,75.0,78.0
151,84.61415513125,84.82376985208333,73.0,88.0
152,84.84492363125,85.00453851041667,71.0,78.0
153,85.07569213125,85.22280705,70.0,77.0
154,85.30646063125,85.67761330208333,70.0,79.0
155,85.76799763125,86.48241844583333,78.0,78.0
156,86.92184013125001,87.27760823541666,71.0,78.0
157,87.38337713125,87.703568425,63.0,91.0
158,87.84491413125001,87.97568294791667,73.0,91.0
159,88.07568263125,88.22375908541667,71.0,79.0
160,88.30645113125,88.51510431666667,70.0,81.0
161,88.53721963125,88.68433455,68.0,78.0
162,88.76798813125001,88.96510289166667,68.0,79.0
163,88.99875663125,89.36510162500001,70.0,77.0
164,89.46029363125,90.37086767083333,66.0,81.0
165,90.38336763125,90.55740554166667,63.0,86.0
166,90.61413613125,90.98240419583334,64.0,79.0
167,91.07567313125,91.42182588125,71.0,79.0
168,91.53721013125,92.08432378333333,70.0,81.0
169,92.22951563125,92.365092125,66.0,77.0
170,92.46028413125,92.81701377083334,66.0,77.0
171,92.92182113125,93.30931990416667,73.0,83.0
172,93.38335813125,93.91316414583333,71.0,78.0
173,94.30643213125,94.46797008125,76.0,79.0
174,94.53720063125,94.65354641666667,75.0,81.0
175,94.76796913125,94.9208532625,76.0,79.0
176,94.99873763125,95.12566030625,75.0,79.0
177,95.22950613125,95.40258250625,76.0,79.0
178,95.46027463125,95.872773325,75.0,83.0
179,95.92181163125,97.07565413125,73.0,86.0
180,97.30642263125,97.44296066041667,66.0,83.0
181,97.53719113125,97.67949837291667,71.0,81.0
182,97.76795963125001,97.90449766041667,73.0,88.0
183,97.99872813125,98.39776532916667,75.0,82.0
184,98.46026513125,98.79391792083334,66.0,81.0
185,98.92180213125,99.07372472708333,76.0,88.0
186,99.15257063125,99.31891625833333,75.0,78.0
187,99.38333913125,99.59295385208334,73.0,88.0
188,99.61410763125001,99.77372251041666,71.0,78.0
189,99.84487613125,99.99199105,70.0,77.0
190,100.07564463125,100.44679730208334,70.0,79.0
191,100.53718163125001,101.25160244583333,78.0,78.0
192,101.69102413125,102.04679223541667,71.0,78.0
193,102.15256113125,102.472752425,63.0,91.0
194,102.61409813125,102.74486694791666,73.0,91.0
195,102.84486663125,102.99294308541667,71.0,79.0
196,103.07563513125,103.28428831666666,70.0,81.0
197,103.30640363125,103.45351855,68.0,78.0
198,103.53717213125,103.73428689166667,70.0,79.0
199,103.76794063125,104.134285625,80.0,77.0
200,104.22947763125,105.14005167083333,78.0,81.0
201,105.15255163125,105.311204975,71.0,83.0
202,105.38332013125,105.66505000833334,80.0,88.0
203,105.84485713125,106.03331807291667,76.0,75.0
204,106.07562563125,106.2746634625,75.0,81.0
205,106.30639413125,106.72658510833334,73.0,81.0
206,106.76793113125,106.91889219166667,75.0,81.0
207,106.99869963125,107.14100687291666,76.0,77.0
208,107.22946813125,107.57369781041668,78.0,78.0
209,107.69100513125,108.15254213125,75.0,77.0
210,108.15254213125,108.61407913125001,71.0,84.0
211,108.84484763125,108.98523180208333,68.0,83.0
212,109.07561613125,109.22753872708333,76.0,82.0
213,109.30638463125,109.41023045625,75.0,78.0
214,109.53715313125001,109.69292186875,76.0,79.0
215,109.76792163125,109.87272899166666,75.0,84.0
216,109.99869013125,110.32849677916667,71.0,79.0
217,110.46022713125001,110.60253437291667,70.0,81.0
218,110.69099563125,111.16022491458334,73.0,82.0
219,111.15253263125,112.3207981625,71.0,78.0
220,126.84479063125,127.02267468333334,75.0,79.0
221,127.07555913125,127.25921239583333,73.0,77.0
222,127.30632763125,127.52171156458334,71.0,81.0
223,127.53709613125,128.52266993333333,66.0,79.0
224,128.69093863125,128.86882268333335,75.0,82.0
225,128.92170713125,129.09959118333333,73.0,78.0
226,129.15247563125,129.35632113958334,71.0,78.0
227,129.38324413125,130.40920242083334,70.0,79.0
228,130.99862363125,131.3822762625,68.0,79.0
229,131.46016063125,131.58035255833335,68.0,77.0
230,131.69092913125002,131.80727491666667,68.0,78.0
231,131.92169763125,132.03708188125,68.0,81.0
232,132.15246613125,132.36688852916666,68.0,80.0
233,132.38323463125,132.61592620208333,66.0,69.0
234,132.61400313125,132.80246407291668,64.0,78.0
235,132.84477163125,133.24188575833332,68.0,80.0
236,133.30630863125,134.08034464166667,66.0,74.0
237,134.22938263125,134.37553601458333,75.0,77.0
238,134.46015113125,134.61784293958334,73.0,82.0
239,134.69091963125,134.89091899791666,71.0,79.0
240,134.92168813125,135.94668488541666,66.0,77.0
241,136.07553063125,136.23803011666666,75.0,81.0
242,136.30629913125,136.47841397083334,73.0,81.0
243,136.53706763125,136.75629770625,71.0,79.0
244,136.76783613125,137.66975635208334,70.0,77.0
245,138.38321563125,138.7437914125,71.0,82.0
246,138.84475263125,138.98129066041668,71.0,80.0
247,139.07552113125,139.2053284125,71.0,78.0
248,139.30628963125,139.42648155833334,71.0,81.0
249,139.53705813125,139.68898072708333,71.0,82.0
250,139.76782663125,139.903403125,68.0,82.0
251,139.99859513125,140.11397938125,71.0,77.0
252,140.22936363125,140.60532397916666,80.0,78.0
253,140.69090063125,141.38320613125,78.0,79.0
254,141.38320613125,141.73993577083334,75.0,84.0
255,141.84474313125,142.17743438541666,76.0,82.0
256,142.30628013125,143.60242987291667,78.0,79.0
257,143.69089113125,143.87358286041666,70.0,77.0
258,143.92165963125,144.25050474375,73.0,79.0
259,144.38319663125,145.37742425208333,71.0,78.0
260,145.53703913125,145.77742298541668,68.0,77.0
261,145.76780763125,146.14761412083334,78.0,73.0
262,146.22934463125,146.37742108541667,76.0,78.0
263,146.46011313125,146.62068954583333,76.0,77.0
264,146.69088163125,146.81107355833333,75.0,78.0
265,146.92165013125,147.1091495375,76.0,77.0
266,147.15241863125001,147.33511036041668,75.0,78.0
267,147.38318713125,147.5706865375,71.0,74.0
268,147.61395563125,148.02549278958332,75.0,79.0
269,148.07549263125,148.6552984875,73.0,86.0
270,148.76779813125,149.12452777083334,75.0,84.0
271,149.22933513125,149.56202638541666,76.0,82.0
272,149.69087213125,150.98702187291667,78.0,79.0
273,151.07548313125,151.25817486041666,70.0,77.0
274,151.30625163125,151.63509674375,73.0,79.0
275,151.76778863125,152.76201625208333,71.0,78.0
276,153.15239963125,153.53220612083334,78.0,73.0
277,153.61393663125,153.76201308541667,76.0,78.0
278,153.84470513125,154.00528154583333,76.0,77.0
279,154.07547363125,154.19566555833333,75.0,78.0
280,154.30624213125,154.76777913125,76.0,77.0
281,154.99854763125,155.4918153,76.0,81.0
282,155.46008463125,155.56873813333334,75.0,78.0
283,155.69085313125,155.86392950625,76.0,83.0
284,155.92162163125,156.04565970000002,75.0,83.0
285,156.15239013125,156.59661949375,76.0,83.0
286,156.61392713125,156.82354185208334,71.0,79.0
287,156.84469563125,159.81391699791666,78.0,80.0
288,160.07545463125,160.21199266041666,66.0,83.0
289,160.30622313125,160.44853037291668,71.0,81.0
290,160.53699163125,160.67352966041668,73.0,88.0
291,160.76776013125001,161.16679732916666,75.0,82.0
292,161.22929713125,161.56294992083335,66.0,81.0
293,161.69083413125,161.84275672708333,76.0,88.0
294,161.92160263125,162.08794825833334,75.0,78.0
295,162.15237113125,162.36198585208334,73.0,88.0
296,162.38313963125,162.54275451041667,71.0,78.0
297,162.61390813125,162.76102305,70.0,77.0
298,162.84467663125,163.21582930208334,70.0,79.0
299,163.30621363125,164.02063444583334,78.0,78.0
300,164.46005613125,164.81582423541667,71.0,78.0
301,164.92159313125,165.241784425,63.0,91.0
302,165.38313013125,165.51389894791666,73.0,91.0
303,165.61389863125,165.76197508541668,71.0,79.0
304,165.84466713125,166.05332031666666,70.0,81.0
305,166.07543563125,166.22255055,68.0,78.0
306,166.30620413125,166.50331889166668,68.0,79.0
307,166.53697263125,166.903317625,70.0,77.0
308,166.99850963125002,167.90908367083333,66.0,81.0
309,167.92158363125,168.09562154166667,63.0,86.0
310,168.15235213125,168.52062019583335,64.0,79.0
311,168.61388913125,168.96004188125,71.0,79.0
312,169.07542613125,169.62253978333334,70.0,81.0
313,169.76773163125,169.903308125,66.0,77.0
314,169.99850013125,170.35522977083335,66.0,77.0
315,170.46003713125,170.84753590416668,73.0,83.0
316,170.92157413125,171.45138014583333,71.0,78.0
317,171.84464813125,172.00618608125,76.0,79.0
318,172.07541663125,172.19176241666668,75.0,81.0
319,172.30618513125,172.4590692625,76.0,79.0
320,172.53695363125001,172.66387630625,75.0,79.0
321,172.76772213125,172.94079850625,76.0,79.0
322,172.99849063125,173.410989325,75.0,83.0
323,173.46002763125,174.61387013125,73.0,86.0
324,174.84463863125,174.98117666041668,66.0,83.0
325,175.07540713125,175.21771437291667,71.0,81.0
326,175.30617563125,175.44271366041667,73.0,88.0
327,175.53694413125,175.93598132916668,75.0,82.0
328,175.99848113125,176.33213392083334,66.0,81.0
329,176.46001813125,176.61194072708332,76.0,88.0
330,176.69078663125,176.85713225833334,75.0,78.0
331,176.92155513125,177.13116985208333,73.0,88.0
332,177.15232363125,177.31193851041667,71.0,78.0
333,177.38309213125,177.53020705,70.0,77.0
334,177.61386063125,177.98501330208333,70.0,79.0
335,178.07539763125,178.78981844583333,78.0,78.0
336,179.22924013125,179.58500823541667,71.0,78.0
337,179.69077713125,180.01096842500002,63.0,91.0
338,180.15231413125,180.28308294791668,73.0,91.0
339,180.38308263125,180.53115908541668,71.0,79.0
340,180.61385113125002,180.82250431666668,70.0,81.0
341,180.84461963125,180.99173455,68.0,78.0
342,181.07538813125,181.27250289166668,70.0,79.0
343,181.30615663125,181.672501625,80.0,77.0
344,181.76769363125,182.67826767083335,78.0,81.0
345,182.69076763125,182.84942097500002,71.0,83.0
346,182.92153613125,183.20326600833334,80.0,88.0
347,183.38307313125,183.57153407291668,76.0,75.0
348,183.61384163125,183.8128794625,75.0,81.0
349,183.84461013125,184.26480110833333,73.0,81.0
350,184.30614713125001,184.45710819166666,75.0,81.0
351,184.53691563125,184.67922287291668,76.0,77.0
352,184.76768413125,185.11191381041667,78.0,78.0
353,185.22922113125,185.69075813125,75.0,77.0
354,185.69075813125,186.15229513125,71.0,84.0
355,186.38306363125,186.52344780208333,68.0,83.0
356,186.61383213125,186.76575472708333,76.0,82.0
357,186.84460063125,186.94844645625,75.0,78.0
358,187.07536913125,187.23113786875,76.0,79.0
359,187.30613763125,187.41094499166667,75.0,84.0
360,187.53690613125,187.86671277916668,71.0,79.0
361,187.99844313125,188.14075037291667,70.0,81.0
362,188.22921163125,188.69844091458333,73.0,82.0
363,188.69074863125,189.8590141625,71.0,78.0
364,203.22916413125,203.44454806458333,78.0,79.0
365,203.57531688125,203.6820473125,75.0,81.0
366,203.92146963125,204.27146852291668,78.0,78.0
367,204.38300663125,204.49839088125,75.0,79.0
368,204.61377513125,204.73108245208334,73.0,82.0
369,204.84454363125,204.9281972125,71.0,72.0
370,205.07531213125,205.23781161666668,70.0,81.0
371,205.42146488125,205.62434885416667,70.0,88.0
372,205.76761763125,206.36665419583335,71.0,86.0
373,206.45992313125,206.69069163125,73.0,78.0
374,206.69069163125,206.81472970000002,75.0,84.0
375,206.92146013125,207.12819024583334,76.0,82.0
376,207.15222863125,207.35511260416666,75.0,84.0
377,207.38299713125,207.6397270875,73.0,83.0
378,207.61376563125,207.84453413125001,71.0,78.0
379,208.07530263125,208.30607113125,71.0,82.0
380,208.30607113125,208.50703203333333,70.0,81.0
381,208.53683963125,209.7858741375,71.0,83.0
382,209.92145063125,210.05798866041667,66.0,83.0
383,210.15221913125,210.29452637291666,71.0,81.0
384,210.38298763125,210.51952566041666,73.0,88.0
385,210.61375613125,211.01279332916667,75.0,82.0
386,211.07529313125,211.40894592083333,66.0,81.0
387,211.53683013125,211.68875272708334,76.0,88.0
388,211.76759863125,211.93394425833333,75.0,78.0
389,211.99836713125,212.20798185208335,73.0,88.0
390,212.22913563125002,212.38875051041666,71.0,78.0
391,212.45990413125,212.60701905,70.0,77.0
392,212.69067263125,213.06182530208335,70.0,79.0
393,213.15220963125,213.86663044583332,78.0,78.0
394,214.30605213125,214.66182023541666,71.0,78.0
395,214.76758913125,215.087780425,63.0,91.0
396,215.22912613125,215.35989494791667,73.0,91.0
397,215.45989463125,215.60797108541666,71.0,79.0
398,215.69066313125,215.89931631666667,70.0,81.0
399,215.92143163125002,216.06854655,68.0,78.0
400,216.15220013125,216.34931489166667,68.0,79.0
401,216.38296863125,216.749313625,70.0,77.0
402,216.84450563125,217.75507967083334,66.0,81.0
403,217.76757963125002,217.94161754166666,63.0,86.0
404,217.99834813125,218.36661619583333,64.0,79.0
405,218.45988513125,218.80603788125,71.0,79.0
406,218.92142213125,219.46853578333332,70.0,81.0
407,219.61372763125001,219.749304125,66.0,77.0
408,219.84449613125,220.20122577083333,66.0,77.0
409,220.30603313125,220.69353190416666,73.0,83.0
410,220.76757013125,221.29737614583334,71.0,78.0
411,221.69064413125,221.85218208125,76.0,79.0
412,221.92141263125,222.03775841666666,75.0,81.0
413,222.15218113125,222.3050652625,76.0,79.0
414,222.38294963125,222.50987230625,75.0,79.0
415,222.61371813125,222.78679450625,76.0,79.0
416,222.84448663125,223.25698532500002,75.0,83.0
417,223.30602363125,224.45986613125,73.0,86.0
418,224.69063463125,224.82717266041666,66.0,83.0
419,224.92140313125,225.06371037291666,71.0,81.0
420,225.15217163125,225.28870966041666,73.0,88.0
421,225.38294013125,225.78197732916666,75.0,82.0
422,225.84447713125002,226.17812992083333,66.0,81.0
423,226.30601413125,226.45793672708334,76.0,88.0
424,226.53678263125,226.70312825833332,75.0,78.0
425,226.76755113125,226.97716585208335,73.0,88.0
426,226.99831963125,227.15793451041668,71.0,78.0
427,227.22908813125,227.37620305000002,70.0,77.0
428,227.45985663125,227.83100930208334,70.0,79.0
429,227.92139363125,228.63581444583335,78.0,78.0
430,229.07523613125,229.43100423541668,71.0,78.0
431,229.53677313125002,229.856964425,63.0,91.0
432,229.99831013125,230.12907894791667,73.0,91.0
433,230.22907863125,230.37715508541666,71.0,79.0
434,230.45984713125,230.66850031666667,70.0,81.0
435,230.69061563125,230.83773055,68.0,78.0
436,230.92138413125,231.11849889166666,70.0,79.0
437,231.15215263125,231.518497625,80.0,77.0
438,231.61368963125,232.52426367083334,78.0,81.0
439,232.53676363125,232.695416975,71.0,83.0
440,232.76753213125,233.04926200833333,80.0,88.0
441,233.22906913125001,233.41753007291666,76.0,75.0
442,233.45983763125,233.6588754625,75.0,81.0
443,233.69060613125,234.11079710833334,73.0,81.0
444,234.15214313125,234.30310419166668,75.0,81.0
445,234.38291163125,234.52521887291667,76.0,77.0
446,234.61368013125,234.95790981041668,78.0,78.0
447,235.07521713125,235.53675413125,75.0,77.0
448,235.53675413125,235.99829113125,71.0,84.0
449,236.22905963125,236.36944380208334,68.0,83.0
450,236.45982813125,236.61175072708335,76.0,82.0
451,236.69059663125,236.79444245625,75.0,78.0
452,236.92136513125,237.07713386875,76.0,79.0
453,237.15213363125,237.25694099166668,75.0,84.0
454,237.38290213125,237.71270877916666,71.0,79.0
455,237.84443913125,237.98674637291666,70.0,81.0
456,238.07520763125,238.54443691458334,73.0,82.0
457,238.53674463125,239.7050101625,71.0,78.0
