,start,end,pitch,velocity
0,5.60478994375,6.7778631520833335,59.0,70.0
1,5.642289825,6.849978308333333,47.0,80.0
2,5.536520929166667,6.860555197916667,54.0,68.0
3,5.681712777083334,6.886516654166667,63.0,77.0
4,7.4115149916666665,8.673049458333333,54.0,63.0
5,7.4692071166666665,8.703818591666666,58.0,71.0
6,7.53747613125,8.742280008333333,61.0,65.0
7,7.53170691875,8.794202920833333,42.0,78.0
8,9.387470272916667,9.860545697916667,68.0,70.0
9,9.344201179166667,9.913430145833333,63.0,69.0
10,9.275932164583333,9.933622389583334,59.0,70.0
11,9.237470747916667,9.94900695625,56.0,56.0
12,9.350931927083334,10.048045104166667,44.0,78.0
13,11.067272645833334,11.35669480625,51.0,52.0
14,11.124964770833333,11.543232677083333,54.0,73.0
15,11.17784921875,11.700924485416667,58.0,71.0
16,11.643232360416667,12.182653729166667,51.0,77.0
17,11.894193104166666,12.223999752083333,54.0,83.0
18,11.18361843125,12.382653095833334,39.0,79.0
19,11.419194608333333,12.403806875,46.0,64.0
20,12.9691897,13.787456339583333,56.0,69.0
21,12.926882141666667,13.809571654166668,52.0,57.0
22,13.0441894625,13.829763897916667,40.0,78.0
23,13.042266391666667,13.86053303125,59.0,71.0
24,14.768222464583333,15.196105725,51.0,67.0
25,14.8211069125,15.387451272916667,54.0,74.0
26,14.882645179166667,15.439374185416668,58.0,73.0
27,15.361489816666667,15.679758039583334,46.0,74.0
28,14.868222147916667,15.701873354166667,39.0,79.0
29,15.60283520625,15.898026579166666,51.0,79.0
30,15.818219139583334,16.1076413,56.0,71.0
31,15.819180675,16.377832752083332,44.0,78.0
32,16.03937228541667,16.382640429166667,51.0,80.0
33,16.28360228125,16.425909522916665,56.0,75.0
34,16.72879317916667,16.902831089583334,49.0,67.0
35,16.765331525,17.03936911875,52.0,72.0
36,16.787446839583332,17.04898447291667,56.0,72.0
37,17.239368485416666,17.6595594625,49.0,72.0
38,17.458598560416668,17.780712925,61.0,81.0
39,17.019176875,17.790328279166665,44.0,64.0
40,16.772062272916667,17.822058947916666,37.0,84.0
41,18.45282618125,18.687440822916667,54.0,63.0
42,18.498018345833334,18.82205578125,58.0,73.0
43,18.5595566125,18.90955550416667,61.0,61.0
44,18.612441060416668,18.921093929166666,66.0,66.0
45,19.040324320833335,19.177823885416668,54.0,82.0
46,18.82782499375,19.348015654166666,49.0,73.0
47,19.257631325000002,19.534553525,58.0,88.0
48,19.26916975,19.544168879166666,54.0,74.0
49,19.255708254166667,19.56051498125,61.0,81.0
50,18.59128728125,19.7941680875,42.0,78.0
51,19.487438289583334,19.79512962291667,49.0,73.0
52,19.717245254166667,19.848014070833333,54.0,81.0
53,19.721091395833334,20.0768595,58.0,86.0
54,19.96147525,20.182628395833333,54.0,78.0
55,19.719168325000002,20.226859025,61.0,81.0
56,20.46051213125,20.5845502,54.0,76.0
57,20.46051213125,20.736472795833333,59.0,74.0
58,20.69128063125,20.797049527083335,54.0,77.0
59,20.92204913125,21.042241058333335,54.0,77.0
60,20.92204913125,21.200894402083332,59.0,78.0
61,21.15281763125,21.26820188125,54.0,66.0
62,21.38358613125,21.64896990625,59.0,69.0
63,21.61435463125,21.749931125,54.0,64.0
64,21.845123131250002,21.909546004166668,54.0,71.0
65,21.845123131250002,22.128776079166666,63.0,79.0
66,21.845123131250002,22.1364683625,59.0,79.0
67,22.075891631250002,22.210506589583332,54.0,77.0
68,20.46051213125,22.262429502083332,47.0,83.0
69,22.306660131250002,22.446082766666667,54.0,77.0
70,22.306660131250002,22.59512075625,58.0,80.0
71,22.537428631250002,22.65281288125,54.0,77.0
72,22.76819713125,23.075888464583333,58.0,72.0
73,22.99896563125,23.134542125,54.0,62.0
74,23.22973413125,23.308580035416668,54.0,66.0
75,23.22973413125,23.508579402083335,58.0,73.0
76,23.46050263125,23.580694558333334,54.0,72.0
77,23.69127113125,23.76627089375,54.0,79.0
78,22.306660131250002,24.02011624375,42.0,79.0
79,23.69127113125,24.03261620416667,58.0,81.0
80,23.92203963125,24.052808447916668,54.0,78.0
81,24.15280813125,24.333576789583333,56.0,78.0
82,24.15280813125,24.44703796875,59.0,77.0
83,24.61434513125,24.720114027083333,56.0,73.0
84,24.61434513125,24.90857496875,59.0,77.0
85,24.84511363125,24.980690125,56.0,69.0
86,25.07588213125,25.144151145833334,56.0,64.0
87,25.07588213125,25.35857354375,59.0,71.0
88,25.30665063125,25.432611770833333,56.0,69.0
89,25.53741913125,25.630688066666668,56.0,73.0
90,25.53741913125,25.87587959791667,59.0,76.0
91,25.76818763125,25.894148770833333,56.0,72.0
92,24.15280813125,25.917225620833335,44.0,77.0
93,25.99895613125,26.12587880625,54.0,77.0
94,25.99895613125,26.258570693750002,58.0,78.0
95,26.22972463125,26.360493447916667,54.0,77.0
96,26.46049313125,26.773953677083334,58.0,73.0
97,26.69126163125,26.831645802083333,54.0,76.0
98,26.92203013125,27.022029814583334,54.0,76.0
99,26.92203013125,27.1902985125,58.0,78.0
100,27.15279863125,27.277798235416668,54.0,76.0
101,27.38356713125,27.462413035416667,54.0,74.0
102,24.38357663125,27.588374175000002,51.0,72.0
103,27.38356713125,27.6518355125,58.0,78.0
104,25.99895613125,27.658566260416666,42.0,77.0
105,27.61433563125,27.731642952083334,54.0,76.0
106,27.84510413125,28.048949639583334,52.0,77.0
107,27.84510413125,28.147026252083332,56.0,77.0
108,28.30664113125,28.60087096875,52.0,81.0
109,27.84510413125,28.636447779166666,40.0,78.0
110,28.07587263125,28.6556784875,47.0,71.0
111,28.53740963125,28.679716872916668,56.0,79.0
112,28.76817813125,29.06240796875,54.0,73.0
113,28.76817813125,29.077792535416666,58.0,78.0
114,29.22971513125,29.325868672916666,54.0,77.0
115,29.22971513125,29.415291466666666,58.0,79.0
116,28.76817813125,29.56432945625,42.0,76.0
117,28.99894663125,29.565290991666668,49.0,66.0
118,29.46048363125,29.5902909125,54.0,71.0
119,29.69125213125,29.842213191666666,54.0,75.0
120,29.69125213125,29.948943622916666,58.0,77.0
121,30.15278913125,30.247019602083334,54.0,78.0
122,29.69125213125,30.334519325,39.0,83.0
123,29.92202063125,30.349903891666667,46.0,72.0
124,30.15278913125,30.37874995416667,58.0,80.0
125,30.38355763125,30.48259577916667,54.0,78.0
126,30.61432613125,30.89701754375,56.0,72.0
127,30.61432613125,30.904709827083334,59.0,78.0
128,31.07586313125,31.189324310416666,56.0,78.0
129,31.07586313125,31.292208600000002,59.0,79.0
130,30.84509463125,31.4306697,51.0,71.0
131,31.30663163125,31.43355430625,56.0,77.0
132,30.61432613125,31.490284895833334,44.0,78.0
133,31.53740013125,31.65278438125,56.0,78.0
134,31.53740013125,31.824899220833334,61.0,77.0
135,31.76816863125,31.872975991666667,56.0,78.0
136,31.53740013125,31.99316791875,49.0,78.0
137,31.99893713125,32.24220559166667,61.0,73.0
138,32.22970563125,32.33355145625,56.0,75.0
139,32.46047413125,32.680665741666665,54.0,74.0
140,32.46047413125,32.7287425125,58.0,74.0
141,32.92201113125,33.01239546041667,54.0,77.0
142,32.92201113125,33.19797179583333,58.0,78.0
143,32.69124263125,33.2768177,49.0,71.0
144,33.15277963125,33.290279195833335,54.0,77.0
145,32.46047413125,33.30950990416667,42.0,77.0
146,33.38354813125,33.634508875,59.0,76.0
147,33.61431663125,33.78739300625,54.0,71.0
148,33.84508513125,34.11719965416667,59.0,71.0
149,34.07585363125,34.19700709375,54.0,71.0
150,34.30662213125,34.396044925,54.0,77.0
151,34.30662213125,34.59508275625,63.0,77.0
152,34.53739063125,34.66335177083334,54.0,76.0
153,34.76815913125,35.111427275,59.0,86.0
154,34.99892763125,35.17585014791667,54.0,80.0
155,33.38354813125,35.19027317916667,47.0,76.0
156,35.22969613125,35.47296459166667,52.0,77.0
157,35.22969613125,35.48931069375,59.0,82.0
158,35.22969613125,35.4921953,56.0,78.0
159,35.57584888125,35.72777147708334,52.0,78.0
160,35.57584888125,35.74123297291667,56.0,80.0
161,35.57584888125,35.74700218541667,59.0,78.0
162,35.22969613125,36.01046288958334,40.0,81.0
163,35.92200163125,36.1787315875,52.0,80.0
164,35.92200163125,36.200846902083335,56.0,86.0
165,35.92200163125,36.21430839791667,59.0,84.0
166,36.38353863125,36.67296079166667,61.0,91.0
167,36.38353863125,36.67392232708333,54.0,81.0
168,36.38353863125,36.688345358333336,58.0,91.0
169,36.61430713125,36.84026795416667,49.0,77.0
170,36.15277013125,36.89122933125,42.0,80.0
171,36.84507563125,36.897960079166666,61.0,71.0
172,36.84507563125,36.929690747916666,58.0,79.0
173,36.84507563125,36.945075314583335,54.0,81.0
174,37.07584413125,37.325843339583336,51.0,83.0
175,37.07584413125,37.34603558333333,54.0,79.0
176,37.42199688125,37.52584270625,51.0,84.0
177,37.42199688125,37.54603495,54.0,91.0
178,37.07584413125,37.63545774375,39.0,81.0
179,37.76814963125,37.96430285625,51.0,83.0
180,37.76814963125,37.9902643125,54.0,91.0
181,38.22968663125,38.50757036666667,56.0,77.0
182,38.22968663125,38.52391646875,59.0,91.0
183,38.57583938125,38.69795437916667,59.0,82.0
184,38.46045513125,38.710454339583336,51.0,79.0
185,37.99891813125,38.75276189791667,44.0,76.0
186,38.69122363125,38.80756941666667,56.0,78.0
187,38.92199213125,39.133529922916665,59.0,80.0
188,38.92199213125,39.140260670833335,56.0,77.0
189,39.26814488125,39.44122125625,52.0,83.0
190,39.26814488125,39.450836610416665,56.0,86.0
191,38.92199213125,39.62198991458333,40.0,77.0
192,39.614297631250004,39.8248738875,52.0,86.0
193,39.614297631250004,39.89698904375,59.0,86.0
194,40.075834631250004,40.36910293333333,54.0,86.0
195,40.075834631250004,40.38160289375,58.0,91.0
196,40.30660313125,40.59890989791667,49.0,70.0
197,39.84506613125,40.63352517291667,42.0,79.0
198,40.537371631250004,40.65852509375,58.0,83.0
199,40.537371631250004,40.66525584166667,54.0,79.0
200,40.76814013125,41.01237012708334,58.0,71.0
201,40.76814013125,41.02198548125,54.0,72.0
202,40.76814013125,41.19506185625,39.0,82.0
203,41.11429288125,41.265253941666664,54.0,78.0
204,41.11429288125,41.28544618541667,59.0,80.0
205,41.46044563125,41.6594834625,54.0,78.0
206,41.46044563125,41.71429098125,63.0,81.0
207,41.92198263125,42.21044325625,56.0,79.0
208,41.92198263125,42.24121238958333,59.0,83.0
209,42.15275113125,42.37871195416667,51.0,78.0
210,41.69121413125,42.408519552083334,44.0,78.0
211,42.38351963125,42.51044230625,56.0,77.0
212,42.38351963125,42.51140384166667,59.0,77.0
213,42.61428813125,42.857556591666665,52.0,77.0
214,42.61428813125,42.87390269375,59.0,82.0
215,42.61428813125,42.876787300000004,56.0,78.0
216,42.96044088125,43.112363477083335,52.0,78.0
217,42.96044088125,43.12582497291667,56.0,80.0
218,42.96044088125,43.13159418541667,59.0,78.0
219,42.61428813125,43.395054889583335,40.0,81.0
220,43.30659363125,43.5633235875,52.0,80.0
221,43.30659363125,43.58543890208333,56.0,86.0
222,43.30659363125,43.598900397916665,59.0,84.0
223,43.76813063125,44.057552791666666,61.0,91.0
224,43.76813063125,44.05851432708334,54.0,81.0
225,43.76813063125,44.072937358333334,58.0,91.0
226,43.99889913125,44.22485995416667,49.0,77.0
227,43.53736213125,44.27582133125,42.0,80.0
228,44.22966763125,44.28255207916667,61.0,71.0
229,44.22966763125,44.314282747916664,58.0,79.0
230,44.22966763125,44.32966731458333,54.0,81.0
231,44.46043613125,44.710435339583334,51.0,83.0
232,44.46043613125,44.73062758333334,54.0,79.0
233,44.80658888125,44.91043470625,51.0,84.0
234,44.80658888125,44.93062695,54.0,91.0
235,44.46043613125,45.02004974375,39.0,81.0
236,45.15274163125,45.34889485625,51.0,83.0
237,45.15274163125,45.3748563125,54.0,91.0
238,45.61427863125,45.89216236666667,56.0,77.0
239,45.61427863125,45.90850846875,59.0,91.0
240,45.960431381250004,46.082546379166665,59.0,82.0
241,45.84504713125,46.095046339583334,51.0,79.0
242,45.38351013125,46.13735389791667,44.0,76.0
243,46.07581563125,46.192161416666664,56.0,78.0
244,46.30658413125,46.51812192291667,59.0,80.0
245,46.30658413125,46.52485267083333,56.0,77.0
246,46.65273688125,46.82581325625,52.0,83.0
247,46.65273688125,46.83542861041667,56.0,86.0
248,46.30658413125,47.006581914583336,40.0,77.0
249,46.99888963125,47.2094658875,52.0,86.0
250,46.99888963125,47.28158104375,59.0,86.0
251,47.46042663125,47.753694933333335,54.0,86.0
252,47.46042663125,47.76619489375,58.0,91.0
253,47.69119513125,47.98350189791667,49.0,70.0
254,47.22965813125,48.01811717291667,42.0,79.0
255,47.92196363125,48.04311709375,58.0,83.0
256,47.92196363125,48.04984784166667,54.0,79.0
257,48.15273213125,48.43061586666667,54.0,78.0
258,48.15273213125,48.4325389375,59.0,78.0
259,48.49888488125,48.63157676875,54.0,70.0
260,48.49888488125,48.6459998,63.0,77.0
261,48.49888488125,48.6517690125,59.0,77.0
262,48.15273213125,48.9863833375,35.0,78.0
263,48.84503763125,49.14888282291667,54.0,78.0
264,48.84503763125,49.20176727083334,63.0,81.0
265,48.84503763125,49.20849801875,59.0,79.0
266,49.30657463125,49.41618966875,54.0,77.0
267,49.53734313125,49.68349651458333,54.0,82.0
268,49.07580613125,49.92772651041667,35.0,61.0
269,49.53734313125,49.951764895833335,59.0,80.0
270,49.76811163125,49.96618792708333,54.0,78.0
271,49.99888013125,50.190225679166666,54.0,73.0
272,49.99888013125,50.309456070833335,59.0,76.0
273,49.99888013125,50.34887902291667,63.0,78.0
274,50.22964863125,50.50849390208334,54.0,69.0
275,50.46041713125,50.57099370416667,59.0,71.0
276,50.69118563125,50.93349255625,63.0,79.0
277,50.69118563125,50.975800114583336,54.0,78.0
278,51.15272263125,51.261376133333336,54.0,78.0
279,49.99888013125,51.26618381041667,47.0,86.0
280,51.15272263125,51.370991170833335,59.0,78.0
281,51.383491131250004,51.49214463333333,54.0,78.0
282,51.845028131250004,52.03541214375,54.0,77.0
283,51.845028131250004,52.212334660416666,58.0,77.0
284,52.306565131250004,52.429641664583336,54.0,74.0
285,52.53733363125,52.849832641666666,63.0,81.0
286,52.53733363125,52.858486460416664,54.0,77.0
287,52.53733363125,52.87675563333333,58.0,80.0
288,52.07579663125,52.949832325,46.0,72.0
289,51.845028131250004,53.04983200833333,39.0,77.0
290,52.99887063125,53.145024014583335,54.0,78.0
291,52.99887063125,53.145024014583335,58.0,79.0
292,53.69117613125,53.88059860833334,52.0,74.0
293,53.69117613125,54.011367425,56.0,76.0
294,54.15271313125,54.269058916666665,52.0,79.0
295,54.38348163125,54.68251914583333,52.0,79.0
296,54.38348163125,54.6979037125,59.0,77.0
297,53.92194463125,54.93732603125,47.0,63.0
298,54.84501863125,55.085402485416665,52.0,81.0
299,54.84501863125,55.15655610625,56.0,79.0
300,53.69117613125,55.302709489583336,40.0,78.0
301,55.07578713125,55.383478464583334,47.0,71.0
302,55.30655563125,55.45367055,52.0,78.0
303,55.53732413125,55.764246489583336,54.0,78.0
304,55.53732413125,55.826746291666666,58.0,74.0
305,55.99886113125,56.13059148333333,54.0,79.0
306,56.22962963125,56.54693631875,54.0,76.0
307,56.22962963125,56.57482084583334,61.0,75.0
308,55.76809263125,56.78924324375,49.0,68.0
309,55.53732413125,56.84116615625,42.0,78.0
310,56.69116663125,56.878666037500004,54.0,78.0
311,56.69116663125,56.95270426458333,61.0,78.0
312,56.69116663125,56.98347339791667,66.0,76.0
313,57.38347213125,57.509433270833334,54.0,77.0
314,57.38347213125,57.69693267708333,59.0,76.0
315,57.61424063125,57.93539346041667,54.0,77.0
316,57.84500913125,57.95462416875,59.0,73.0
317,58.07577763125,58.34693061875,54.0,78.0
318,58.07577763125,58.43154573541667,63.0,79.0
319,58.53731463125,58.68923722708333,54.0,78.0
320,57.38347213125,58.699814116666666,47.0,80.0
321,58.53731463125,58.7248140375,59.0,77.0
322,59.22962013125,59.48346548125,58.0,76.0
323,59.22962013125,59.679618706250004,66.0,71.0
324,59.69115713125,59.803656775,58.0,83.0
325,59.46038863125,60.00750228333333,46.0,71.0
326,59.92192563125,60.2363477125,58.0,82.0
327,59.92192563125,60.24884767291667,63.0,79.0
328,60.15269413125,60.458462393750004,46.0,70.0
329,59.22962013125,60.472885425,39.0,81.0
330,60.38346263125,60.514231447916664,58.0,88.0
331,60.38346263125,60.615192666666665,63.0,88.0
332,61.07576813125,61.26422907291667,56.0,74.0
333,61.07576813125,61.45461308541667,59.0,78.0
334,61.53730513125,61.664227806250004,56.0,73.0
335,61.76807363125,61.91807315625,63.0,77.0
336,61.76807363125,62.13634169583334,56.0,78.0
337,61.76807363125,62.21903374166667,66.0,71.0
338,61.30653663125,62.39787932916667,47.0,66.0
339,62.229610631250004,62.47576369791667,59.0,81.0
340,61.07576813125,62.493071335416666,40.0,77.0
341,62.46037913125,62.744032079166665,56.0,81.0
342,62.691147631250004,62.81133955833334,59.0,77.0
343,62.92191613125,63.13153085208334,54.0,79.0
344,62.92191613125,63.21133829166667,58.0,82.0
345,63.38345313125,63.49979891666667,54.0,81.0
346,63.614221631250004,63.9517205625,54.0,79.0
347,63.614221631250004,63.9863358375,61.0,78.0
348,63.152684631250004,64.18537366875,49.0,72.0
349,64.07575863125,64.25941189583334,54.0,78.0
350,62.92191613125,64.64787220416667,42.0,78.0
351,64.30652713125001,64.69210283333334,49.0,77.0
352,64.53729563125,64.74402574583334,54.0,78.0
353,64.07575863125,64.76037184791667,61.0,77.0
354,64.07575863125,64.77191027291667,66.0,75.0
355,64.76806413125,65.0363325125,51.0,78.0
356,64.76806413125,65.09979385,58.0,77.0
357,65.22960113125,65.3247931375,51.0,86.0
358,64.99883263125,65.4863310875,46.0,73.0
359,64.76806413125,65.51421561458334,39.0,78.0
360,65.46036963125,65.64979210833333,63.0,83.0
361,65.46036963125,65.66421513958333,51.0,83.0
362,65.69113813125,65.79306088541666,46.0,77.0
363,65.92190663125,66.080559975,51.0,88.0
364,65.92190663125,66.14690591875001,58.0,83.0
365,66.38344363125,66.48440485,51.0,86.0
366,66.61421213125,66.86228826875,56.0,72.0
367,66.61421213125,66.90459582708334,59.0,77.0
368,67.07574913125,67.16613346041667,56.0,73.0
369,66.84498063125,67.32863294583333,51.0,72.0
370,66.61421213125,67.40940192083333,44.0,81.0
371,67.30651763125,67.47286325833333,56.0,80.0
372,67.30651763125,67.51036313958333,63.0,79.0
373,67.53728613125,67.60363207500001,44.0,66.0
374,67.53728613125,67.72286246666667,51.0,81.0
375,67.76805463125,67.90459266041667,56.0,77.0
376,67.76805463125,67.92766951041666,59.0,80.0
377,68.22959163125,68.57670591666667,56.0,78.0
378,68.46036013125,68.77862835416667,64.0,79.0
379,68.92189713125,69.04785827083333,56.0,81.0
380,68.69112863125,69.17670401666666,44.0,77.0
381,68.46036013125,69.23343460625,37.0,80.0
382,69.15266563125,69.37478031250001,64.0,80.0
383,69.15266563125,69.37574184791667,56.0,86.0
384,69.38343413125,69.48535688541666,44.0,78.0
385,69.61420263125,69.71131770833334,56.0,82.0
386,69.61420263125,69.84689420208333,61.0,84.0
387,69.84497113125,69.9978552625,56.0,80.0
388,70.07573963125,70.15170092916667,61.0,68.0
389,70.07573963125,70.16708549583333,56.0,54.0
390,70.30650813125,70.5228536,54.0,79.0
391,70.30650813125,70.5401612375,58.0,81.0
392,70.76804513125,70.87285249166666,54.0,86.0
393,70.30650813125,70.99689056041667,42.0,77.0
394,70.53727663125,70.99977516666667,49.0,70.0
395,70.99881363125,71.20746681666667,61.0,81.0
396,70.99881363125,71.28246657916667,54.0,83.0
397,71.22958213125,71.52381196875,49.0,78.0
398,71.46035063125,71.57092720416667,54.0,79.0
399,71.46035063125,71.68534991875,58.0,86.0
400,71.46035063125,71.7632342875,61.0,84.0
401,71.69111913125,71.80746491666667,54.0,82.0
402,72.15265613125,72.42092451250001,51.0,78.0
403,72.15265613125,72.48438585,58.0,77.0
404,72.61419313125,72.7093851375,51.0,86.0
405,72.38342463125,72.8709230875,46.0,73.0
406,72.15265613125,72.89880761458333,39.0,78.0
407,72.84496163125,73.03438410833333,63.0,83.0
408,72.84496163125,73.04880713958333,51.0,83.0
409,73.07573013125,73.17765288541666,46.0,77.0
410,73.30649863125,73.465151975,51.0,88.0
411,73.30649863125,73.53149791875,58.0,83.0
412,73.76803563125,73.86899685,51.0,86.0
413,73.99880413125,74.24688026875,56.0,72.0
414,73.99880413125,74.28918782708334,59.0,77.0
415,74.46034113125,74.55072546041667,56.0,73.0
416,74.22957263125001,74.71322494583333,51.0,72.0
417,73.99880413125,74.79399392083333,44.0,81.0
418,74.69110963125,74.85745525833333,56.0,80.0
419,74.69110963125,74.89495513958333,63.0,79.0
420,74.92187813125,74.988224075,44.0,66.0
421,74.92187813125,75.10745446666667,51.0,81.0
422,75.15264663125001,75.28918466041667,56.0,77.0
423,75.15264663125001,75.31226151041666,59.0,80.0
424,75.61418363125,75.96129791666667,56.0,78.0
425,75.84495213125,75.96129791666667,56.0,77.0
426,75.84495213125,76.1997587,64.0,78.0
427,76.30648913125,76.39495038958333,56.0,83.0
428,76.07572063125001,77.02187148125,44.0,72.0
429,75.84495213125,77.05167907916666,37.0,84.0
430,76.53725763125,77.19494785625,56.0,83.0
431,76.53725763125,77.2612938,64.0,79.0
432,77.46033163125,77.89975331666666,52.0,81.0
433,77.46033163125,77.93052245,59.0,80.0
434,78.15263713125,78.27763673541666,52.0,83.0
435,77.92186863125,78.47667456666667,47.0,77.0
436,78.38340563125,78.72378916875,52.0,86.0
437,78.38340563125,78.73628912916666,59.0,82.0
438,78.61417413125,78.85455798541666,47.0,81.0
439,77.46033163125,78.89205786666666,40.0,77.0
440,78.84494263125,79.08148034375,52.0,88.0
441,79.07571113125,79.34686411875,40.0,79.0
442,79.30647963125,79.418979275,52.0,86.0
443,78.84494263125,79.4247484875,59.0,79.0
444,78.84494263125,79.4478253375,64.0,78.0
445,79.53724813125,79.77570891458333,54.0,82.0
446,79.53724813125,79.82763182708334,59.0,77.0
447,79.99878513125,80.12763087708333,54.0,83.0
448,79.76801663125,80.28436115,49.0,77.0
449,80.22955363125,80.54782185416667,54.0,84.0
450,80.22955363125,80.56032181458333,61.0,77.0
451,80.46032213125,80.70839826875,49.0,79.0
452,80.69109063125,80.93243602083334,54.0,84.0
453,80.69109063125,81.01512806666666,61.0,82.0
454,79.53724813125,81.12378156875,42.0,79.0
455,80.92185913125,81.2362812125,49.0,78.0
456,81.15262763125,81.32570400625,54.0,79.0
457,81.38339613125,81.89974065,54.0,73.0
458,81.38339613125,81.90454832708333,58.0,79.0
459,81.38339613125,81.92954824791667,61.0,78.0
460,81.84493313125,82.12185533125,49.0,81.0
461,82.07570163125,82.34685461875,66.0,75.0
462,82.07570163125,82.37570068125,54.0,84.0
463,82.07570163125,82.3901237125,58.0,83.0
464,82.07570163125,82.395892925,61.0,81.0
465,82.30647013125,82.63723831458333,49.0,78.0
466,81.38339613125,82.76031484791667,42.0,80.0
467,82.76800713125,82.83531461041667,42.0,44.0
468,82.53723863125,82.84877610625,54.0,80.0
469,82.53723863125,83.15358283333333,58.0,84.0
470,82.76800713125,83.157428975,49.0,77.0
471,82.53723863125,83.17089047083333,61.0,81.0
472,82.99877563125,83.17281354166667,54.0,83.0
473,83.22954413125,83.5843507,63.0,73.0
474,83.22954413125,83.59685066041666,59.0,73.0
475,83.22954413125,83.60358140833334,54.0,73.0
476,83.69108113125,83.91511888333334,63.0,84.0
477,83.69108113125,83.92184963125,59.0,82.0
478,83.22954413125,83.92761884375,47.0,84.0
479,83.69108113125,83.93531112708334,54.0,80.0
480,84.03723388125,84.19107954791667,63.0,78.0
481,84.03723388125,84.20742565,59.0,77.0
482,84.03723388125,84.21415639791667,54.0,77.0
483,84.15261813125,84.27761773541667,49.0,69.0
484,84.15261813125,84.48819399166666,47.0,65.0
485,84.38338663125,84.65453961875001,63.0,82.0
486,84.38338663125,84.67377032708333,54.0,80.0
487,84.38338663125,84.67761646875,59.0,83.0
488,84.61415513125,84.93050028333333,47.0,76.0
489,84.84492363125,84.94107717291666,63.0,79.0
490,84.84492363125,84.94588485,59.0,79.0
491,84.84492363125,84.99203855,54.0,78.0
492,85.07569213125,85.35934507916667,42.0,77.0
493,85.07569213125,85.36415275625001,54.0,77.0
494,85.07569213125,85.36799889791666,58.0,75.0
495,85.53722913125,85.7247285375,61.0,78.0
496,85.53722913125,85.72665160833334,54.0,77.0
497,85.53722913125,85.72665160833334,58.0,79.0
498,85.53722913125,85.83145896875,42.0,77.0
499,85.88338188125,86.02088144583334,61.0,76.0
500,85.88338188125,86.03338140625,58.0,77.0
501,85.88338188125,86.04491983125,54.0,75.0
502,85.99876613125001,86.28722675625,42.0,76.0
503,86.22953463125,86.49107226458334,61.0,78.0
504,86.22953463125,86.51318757916667,54.0,79.0
505,86.22953463125,86.51895679166667,58.0,83.0
506,86.46030313125,86.74107147291667,42.0,77.0
507,86.69107163125,86.80260973958333,54.0,78.0
508,86.69107163125,86.803571275,61.0,79.0
509,86.69107163125,86.80645588125,58.0,81.0
510,86.92184013125001,87.17087780416666,63.0,79.0
511,86.92184013125001,87.2016469375,56.0,75.0
512,86.92184013125001,87.20357000833333,59.0,79.0
513,86.92184013125001,87.20933922083333,44.0,76.0
514,87.38337713125,87.49876138125,44.0,75.0
515,87.38337713125,87.58433803333334,63.0,79.0
516,87.38337713125,87.59010724583334,56.0,77.0
517,87.38337713125,87.59876106458333,59.0,81.0
518,87.72952988125,87.8824140125,63.0,79.0
519,87.72952988125,87.90260625625,56.0,77.0
520,87.72952988125,87.90933700416667,59.0,79.0
521,87.84491413125001,88.09683641041667,44.0,73.0
522,88.07568263125,88.34298947708334,56.0,78.0
523,88.07568263125,88.3439510125,63.0,82.0
524,88.07568263125,88.35452790208333,59.0,82.0
525,88.30645113125,88.46606601041667,44.0,73.0
526,88.53721963125,88.62183474791667,63.0,76.0
527,88.53721963125,88.63914238541666,59.0,77.0
528,88.53721963125,88.64875773958333,56.0,73.0
529,88.76798813125001,89.06029489791666,54.0,76.0
530,88.76798813125001,89.07375639375,61.0,76.0
531,88.76798813125001,89.07856407083334,58.0,75.0
532,88.76798813125001,89.13721773125,39.0,77.0
533,89.22952513125,89.38625540416666,61.0,80.0
534,89.22952513125,89.39683229375,39.0,79.0
535,89.22952513125,89.47183205625001,54.0,78.0
536,89.22952513125,89.50260118958333,58.0,83.0
537,89.57567788125,89.73144661875,54.0,70.0
538,89.57567788125,89.74875425625,58.0,76.0
539,89.69106213125,89.942022875,39.0,78.0
540,89.92183063125,90.23144503541667,54.0,81.0
541,90.03721488125,90.242021925,39.0,78.0
542,89.92183063125,90.26221416875,58.0,84.0
543,90.38336763125,90.47086735416667,58.0,78.0
544,90.38336763125,90.48913652708333,54.0,78.0
545,90.61413613125,90.91990439375,52.0,73.0
546,90.61413613125,90.94586585,56.0,77.0
547,90.61413613125,91.14874982291667,40.0,78.0
548,91.07567313125,91.23913415208334,52.0,80.0
549,91.07567313125,91.26509560833334,59.0,83.0
550,91.07567313125,91.27278789166667,56.0,81.0
551,91.30644163125,91.46317190416667,59.0,75.0
552,91.30644163125,91.48144107708333,52.0,73.0
553,91.30644163125,91.48721028958333,56.0,74.0
554,91.53721013125,91.85451681875,40.0,77.0
555,91.76797863125,92.05932386250001,52.0,80.0
556,91.76797863125,92.06701614583334,59.0,79.0
557,91.76797863125,92.07470842916666,56.0,80.0
558,91.99874713125,92.21028492291667,40.0,77.0
559,92.22951563125,92.33913066875,52.0,78.0
560,92.22951563125,92.35739984166666,56.0,82.0
561,92.22951563125,92.36797673125,59.0,80.0
562,92.46028413125,92.71509101666666,54.0,78.0
563,92.46028413125,92.72182176458334,58.0,78.0
564,92.46028413125,92.84201369166666,42.0,78.0
565,92.80643688125001,92.96412868958333,54.0,78.0
566,92.80643688125001,92.97662865,58.0,79.0
567,92.92182113125,93.16220498541666,42.0,78.0
568,93.15258963125,93.26605081041667,54.0,81.0
569,93.15258963125,93.29489687291667,58.0,86.0
570,93.38335813125,93.61893430833334,56.0,74.0
571,93.38335813125,93.62181891458333,59.0,78.0
572,93.72951088125001,93.888164225,56.0,76.0
573,93.72951088125001,93.8939334375,59.0,78.0
574,93.38335813125,94.10547122916667,44.0,78.0
575,93.84489513125,94.12085579583334,51.0,77.0
576,94.07566363125,94.18720173958333,56.0,74.0
577,94.07566363125,94.20450937708334,59.0,78.0
578,94.30643213125,94.61893114166666,56.0,77.0
579,94.30643213125,94.6208542125,61.0,78.0
580,94.76796913125,95.02758369375,56.0,81.0
581,94.76796913125,95.02950676458333,61.0,82.0
582,94.76796913125,95.03142983541667,64.0,78.0
583,94.30643213125,95.03239137083334,49.0,83.0
584,95.11412188125,95.15066022708334,64.0,63.0
585,95.11412188125,95.25739065833334,61.0,74.0
586,95.11412188125,95.26989061875,56.0,74.0
587,95.22950613125,95.54585128333333,49.0,79.0
588,95.46027463125,95.72758147708333,64.0,78.0
589,95.46027463125,95.74488911458333,56.0,79.0
590,95.46027463125,95.75642753958333,61.0,81.0
591,95.69104313125,95.9477730875,49.0,74.0
592,95.92181163125,96.04392662916666,61.0,77.0
593,95.92181163125,96.04873430625,56.0,76.0
594,96.15258013125,96.44873303958333,61.0,78.0
595,96.15258013125,96.449694575,54.0,78.0
596,96.15258013125,96.45354071666667,58.0,79.0
597,96.61411713125,96.83238567083333,54.0,81.0
598,96.61411713125,96.84392409583333,61.0,84.0
599,96.61411713125,96.84488563125001,58.0,88.0
600,96.15258013125,96.91219311041667,42.0,78.0
601,96.96026988125,97.10642326458334,61.0,77.0
602,96.96026988125,97.11219247708334,54.0,77.0
603,96.96026988125,97.11411554791667,58.0,78.0
604,97.07565413125,97.39680696041667,49.0,77.0
605,97.30642263125,97.59296018541667,54.0,83.0
606,97.30642263125,97.59680632708333,61.0,83.0
607,97.30642263125,97.60065246875,58.0,82.0
608,97.53719113125,97.86892085,42.0,78.0
609,97.76795963125001,97.9381514,61.0,79.0
610,97.76795963125001,97.94584368333334,54.0,80.0
611,97.76795963125001,97.95449750208333,58.0,83.0
612,97.99872813125,98.3535347,63.0,73.0
613,97.99872813125,98.36603466041667,59.0,73.0
614,97.99872813125,98.37276540833334,54.0,73.0
615,98.46026513125,98.68430288333333,63.0,84.0
616,98.46026513125,98.69103363125001,59.0,82.0
617,97.99872813125,98.69680284375,47.0,84.0
618,98.46026513125,98.70449512708333,54.0,80.0
619,98.80641788125,98.96026354791667,63.0,78.0
620,98.80641788125,98.97660965,59.0,77.0
621,98.80641788125,98.98334039791666,54.0,77.0
622,98.92180213125,99.04680173541666,49.0,69.0
623,98.92180213125,99.25737799166667,47.0,65.0
624,99.15257063125,99.42372361875,63.0,82.0
625,99.15257063125,99.44295432708333,54.0,80.0
626,99.15257063125,99.44680046875,59.0,83.0
627,99.38333913125,99.69968428333334,47.0,76.0
628,99.61410763125001,99.71026117291667,63.0,79.0
629,99.61410763125001,99.71506885,59.0,79.0
630,99.61410763125001,99.76122255,54.0,78.0
631,99.84487613125,100.12852907916667,42.0,77.0
632,99.84487613125,100.13333675625,54.0,77.0
633,99.84487613125,100.13718289791667,58.0,75.0
634,100.30641313125,100.4939125375,61.0,78.0
635,100.30641313125,100.49583560833334,54.0,77.0
636,100.30641313125,100.49583560833334,58.0,79.0
637,100.30641313125,100.60064296875,42.0,77.0
638,100.65256588125,100.79006544583333,61.0,76.0
639,100.65256588125,100.80256540625,58.0,77.0
640,100.65256588125,100.81410383125,54.0,75.0
641,100.76795013125,101.05641075625,42.0,76.0
642,100.99871863125,101.26025626458333,61.0,78.0
643,100.99871863125,101.28237157916666,54.0,79.0
644,100.99871863125,101.28814079166666,58.0,83.0
645,101.22948713125,101.51025547291667,42.0,77.0
646,101.46025563125,101.57179373958334,54.0,78.0
647,101.46025563125,101.572755275,61.0,79.0
648,101.46025563125,101.57563988125,58.0,81.0
649,101.69102413125,101.94006180416667,63.0,79.0
650,101.69102413125,101.9708309375,56.0,75.0
651,101.69102413125,101.97275400833334,59.0,79.0
652,101.69102413125,101.97852322083334,44.0,76.0
653,102.15256113125,102.26794538125,44.0,75.0
654,102.15256113125,102.35352203333333,63.0,79.0
655,102.15256113125,102.35929124583333,56.0,77.0
656,102.15256113125,102.36794506458334,59.0,81.0
657,102.49871388125,102.6515980125,63.0,79.0
658,102.49871388125,102.67179025625,56.0,77.0
659,102.49871388125,102.67852100416667,59.0,79.0
660,102.61409813125,102.86602041041667,44.0,73.0
661,102.84486663125,103.11217347708333,56.0,78.0
662,102.84486663125,103.1131350125,63.0,82.0
663,102.84486663125,103.12371190208333,59.0,82.0
664,103.07563513125,103.23525001041666,44.0,73.0
665,103.30640363125,103.39101874791668,63.0,76.0
666,103.30640363125,103.40832638541667,59.0,77.0
667,103.30640363125,103.41794173958334,56.0,73.0
668,103.53717213125,103.82947889791667,54.0,76.0
669,103.53717213125,103.84294039375,61.0,76.0
670,103.53717213125,103.84774807083333,58.0,75.0
671,103.53717213125,103.90640173125,39.0,77.0
672,103.99870913125,104.15543940416667,61.0,80.0
673,103.99870913125,104.16601629375,39.0,79.0
674,103.99870913125,104.24101605625,54.0,78.0
675,103.99870913125,104.27178518958334,58.0,83.0
676,104.34486188125,104.50063061875,54.0,70.0
677,104.34486188125,104.51793825625,58.0,76.0
678,104.46024613125,104.711206875,39.0,78.0
679,104.69101463125,105.00062903541667,54.0,81.0
680,104.80639888125,105.011205925,39.0,78.0
681,104.69101463125,105.03139816875,58.0,84.0
682,105.15255163125,105.24005135416667,58.0,78.0
683,105.15255163125,105.25832052708334,54.0,78.0
684,105.38332013125,105.71793445625,59.0,79.0
685,105.38332013125,105.7208190625,52.0,77.0
686,105.38332013125,105.98716437291667,40.0,79.0
687,105.84485713125,106.10158708750001,52.0,80.0
688,105.84485713125,106.326586375,56.0,83.0
689,105.84485713125,106.39773999583333,59.0,84.0
690,106.30639413125,106.41600916875001,52.0,74.0
691,106.53716263125,106.8515847125,52.0,79.0
692,106.53716263125,106.86504620833334,56.0,78.0
693,106.53716263125,106.87273849166667,59.0,80.0
694,107.22946813125,107.70254355625,54.0,76.0
695,107.22946813125,107.71792812291667,39.0,81.0
696,107.22946813125,107.72562040625,58.0,78.0
697,107.92177363125,108.23908031875,56.0,78.0
698,107.92177363125,108.25061874375,59.0,91.0
699,107.92177363125,108.5015794875,44.0,83.0
700,108.38331063125,108.65542515416666,56.0,78.0
701,108.38331063125,108.680425075,59.0,75.0
702,108.38331063125,108.703501925,63.0,86.0
703,108.61407913125001,108.74004027083333,51.0,82.0
704,108.84484763125,108.94580885,56.0,78.0
705,109.07561613125,109.4131150625,56.0,83.0
706,109.07561613125,109.418884275,64.0,76.0
707,109.07561613125,109.43715344791667,61.0,84.0
708,109.53715313125001,109.58907604375,56.0,77.0
709,109.07561613125,109.65734505833333,49.0,84.0
710,109.53715313125001,109.72080639583334,64.0,79.0
711,109.53715313125001,109.77561391458333,61.0,82.0
712,109.76792163125,109.84099832291666,56.0,66.0
713,109.99869013125,110.27753540208333,54.0,77.0
714,109.99869013125,110.28426615000001,58.0,79.0
715,110.22945863125,110.48811165833334,49.0,71.0
716,109.99869013125,110.52176539791667,42.0,78.0
717,110.46022713125001,110.62753429375,54.0,81.0
718,110.46022713125001,110.70253405625,61.0,84.0
719,110.46022713125001,110.71503401666666,58.0,91.0
720,110.69099563125,110.79387992083333,49.0,78.0
721,110.92176413125,111.1669556625,54.0,82.0
722,110.92176413125,111.1784940875,59.0,82.0
723,111.26791688125,111.39387802083334,63.0,82.0
724,111.26791688125,111.39483955625,54.0,80.0
725,111.26791688125,111.39964723333334,59.0,83.0
726,110.92176413125,111.62176191458333,47.0,84.0
727,111.61406963125,111.87945340625001,54.0,79.0
728,111.61406963125,111.88906876041666,63.0,81.0
729,111.61406963125,111.91310714583334,59.0,82.0
730,112.07560663125,112.211183125,54.0,74.0
731,112.30637513125001,112.43329780625,54.0,78.0
732,112.30637513125001,112.64291252708334,59.0,77.0
733,111.84483813125,112.649643275,47.0,76.0
734,112.53714363125,112.68425855,54.0,78.0
735,112.76791213125,113.01118059166667,52.0,77.0
736,112.76791213125,113.02752669375,59.0,82.0
737,112.76791213125,113.0304113,56.0,78.0
738,113.11406488125,113.26598747708333,52.0,78.0
739,113.11406488125,113.27944897291667,56.0,80.0
740,113.11406488125,113.28521818541667,59.0,78.0
741,112.76791213125,113.54867888958333,40.0,81.0
742,113.46021763125,113.7169475875,52.0,80.0
743,113.46021763125,113.73906290208333,56.0,86.0
744,113.46021763125,113.75252439791667,59.0,84.0
745,113.92175463125,114.21117679166667,61.0,91.0
746,113.92175463125,114.21213832708334,54.0,81.0
747,113.92175463125,114.22656135833334,58.0,91.0
748,114.15252313125,114.37848395416667,49.0,77.0
749,113.69098613125,114.42944533125001,42.0,80.0
750,114.38329163125,114.43617607916667,61.0,71.0
751,114.38329163125,114.46790674791667,58.0,79.0
752,114.38329163125,114.48329131458334,54.0,81.0
753,114.61406013125,114.86405933958333,51.0,83.0
754,114.61406013125,114.88425158333334,54.0,79.0
755,114.96021288125,115.06405870625,51.0,84.0
756,114.96021288125,115.08425095,54.0,91.0
757,114.61406013125,115.17367374375,39.0,81.0
758,115.30636563125,115.50251885625,51.0,83.0
759,115.30636563125,115.52848031250001,54.0,91.0
760,115.76790263125,116.04578636666668,56.0,77.0
761,115.76790263125,116.06213246875001,59.0,91.0
762,116.11405538125,116.23617037916667,59.0,82.0
763,115.99867113125,116.24867033958334,51.0,79.0
764,115.53713413125,116.29097789791666,44.0,76.0
765,116.22943963125,116.34578541666667,56.0,78.0
766,116.46020813125,116.67174592291667,59.0,80.0
767,116.46020813125,116.67847667083333,56.0,77.0
768,116.80636088125,116.97943725625001,52.0,83.0
769,116.80636088125,116.98905261041666,56.0,86.0
770,116.46020813125,117.16020591458333,40.0,77.0
771,117.15251363125,117.3630898875,52.0,86.0
772,117.15251363125,117.43520504375,59.0,86.0
773,117.61405063125,117.90731893333333,54.0,86.0
774,117.61405063125,117.91981889375,58.0,91.0
775,117.84481913125,118.13712589791666,49.0,70.0
776,117.38328213125,118.17174117291667,42.0,79.0
777,118.07558763125,118.19674109375,58.0,83.0
778,118.07558763125,118.20347184166667,54.0,79.0
779,118.30635613125,118.55058612708333,58.0,71.0
780,118.30635613125,118.56020148125,54.0,72.0
781,118.30635613125,118.73327785625,39.0,82.0
782,118.65250888125,118.80346994166666,54.0,78.0
783,118.65250888125,118.82366218541667,59.0,80.0
784,118.99866163125,119.1976994625,54.0,78.0
785,118.99866163125,119.25250698125001,63.0,81.0
786,119.46019863125,119.74865925625001,56.0,79.0
787,119.46019863125,119.77942838958333,59.0,83.0
788,119.69096713125,119.91692795416667,51.0,78.0
789,119.22943013125,119.94673555208334,44.0,78.0
790,119.92173563125,120.04865830625,56.0,77.0
791,119.92173563125,120.04961984166667,59.0,77.0
792,120.15250413125,120.39577259166667,52.0,77.0
793,120.15250413125,120.41211869375,59.0,82.0
794,120.15250413125,120.4150033,56.0,78.0
795,120.49865688125,120.65057947708334,52.0,78.0
796,120.49865688125,120.66404097291667,56.0,80.0
797,120.49865688125,120.66981018541667,59.0,78.0
798,120.15250413125,120.93327088958334,40.0,81.0
799,120.84480963125,121.1015395875,52.0,80.0
800,120.84480963125,121.12365490208333,56.0,86.0
801,120.84480963125,121.13711639791667,59.0,84.0
802,121.30634663125001,121.59576879166667,61.0,91.0
803,121.30634663125001,121.59673032708334,54.0,81.0
804,121.30634663125001,121.61115335833334,58.0,91.0
805,121.53711513125,121.76307595416667,49.0,77.0
806,121.07557813125,121.81403733125,42.0,80.0
807,121.76788363125,121.82076807916667,61.0,71.0
808,121.76788363125,121.85249874791667,58.0,79.0
809,121.76788363125,121.86788331458334,54.0,81.0
810,121.99865213125,122.24865133958333,51.0,83.0
811,121.99865213125,122.26884358333334,54.0,79.0
812,122.34480488125,122.44865070625,51.0,84.0
813,122.34480488125,122.46884295,54.0,91.0
814,121.99865213125,122.55826574375,39.0,81.0
815,122.69095763125,122.88711085625,51.0,83.0
816,122.69095763125,122.9130723125,54.0,91.0
817,123.15249463125001,123.43037836666667,56.0,77.0
818,123.15249463125001,123.44672446875,59.0,91.0
819,123.49864738125,123.62076237916666,59.0,82.0
820,123.38326313125,123.63326233958334,51.0,79.0
821,122.92172613125,123.67556989791667,44.0,76.0
822,123.61403163125,123.73037741666667,56.0,78.0
823,123.84480013125,124.05633792291667,59.0,80.0
824,123.84480013125,124.06306867083333,56.0,77.0
825,124.19095288125,124.36402925625,52.0,83.0
826,124.19095288125,124.37364461041666,56.0,86.0
827,123.84480013125,124.54479791458334,40.0,77.0
828,124.53710563125,124.74768188750001,52.0,86.0
829,124.53710563125,124.81979704375,59.0,86.0
830,124.99864263125001,125.29191093333334,54.0,86.0
831,124.99864263125001,125.30441089375,58.0,91.0
832,125.22941113125,125.52171789791667,49.0,70.0
833,124.76787413125,125.55633317291667,42.0,79.0
834,125.46017963125,125.58133309375,58.0,83.0
835,125.46017963125,125.58806384166667,54.0,79.0
836,125.69094813125,125.96883186666666,54.0,78.0
837,125.69094813125,125.9707549375,59.0,78.0
838,126.03710088125,126.16979276875,54.0,70.0
839,126.03710088125,126.1842158,63.0,77.0
840,126.03710088125,126.1899850125,59.0,77.0
841,125.69094813125,126.5245993375,35.0,78.0
842,126.38325363125,126.68709882291667,54.0,78.0
843,126.38325363125,126.73998327083333,63.0,81.0
844,126.38325363125,126.74671401875,59.0,79.0
845,126.84479063125,126.95440566875,54.0,77.0
846,127.07555913125,127.22171251458333,54.0,82.0
847,126.61402213125,127.46594251041667,35.0,61.0
848,127.07555913125,127.48998089583334,59.0,80.0
849,127.30632763125,127.50440392708333,54.0,78.0
850,127.53709613125,127.72844167916666,54.0,73.0
851,127.53709613125,127.84767207083334,59.0,76.0
852,127.53709613125,127.88709502291667,63.0,78.0
853,127.76786463125,128.04670990208334,54.0,69.0
854,127.99863313125,128.10920970416666,59.0,71.0
855,128.22940163125,128.47170855625,63.0,79.0
856,128.22940163125,128.51401611458334,54.0,78.0
857,128.69093863125,128.79959213333333,54.0,78.0
858,127.53709613125,128.80439981041667,47.0,86.0
859,128.69093863125,128.90920717083333,59.0,78.0
860,128.92170713125,129.03036063333334,54.0,78.0
861,129.38324413125,129.57362814375,54.0,77.0
862,129.38324413125,129.75055066041668,58.0,77.0
863,129.84478113125,129.96785766458333,54.0,74.0
864,130.07554963125,130.38804864166667,63.0,81.0
865,130.07554963125,130.39670246041666,54.0,77.0
866,130.07554963125,130.41497163333332,58.0,80.0
867,129.61401263125,130.488048325,46.0,72.0
868,129.38324413125,130.58804800833335,39.0,77.0
869,130.53708663125,130.68324001458333,54.0,78.0
870,130.53708663125,130.68324001458333,58.0,79.0
871,131.22939213125,131.41881460833335,52.0,74.0
872,131.22939213125,131.549583425,56.0,76.0
873,131.69092913125002,131.80727491666667,52.0,79.0
874,131.92169763125,132.22073514583334,52.0,79.0
875,131.92169763125,132.2361197125,59.0,77.0
876,131.46016063125,132.47554203125,47.0,63.0
877,132.38323463125,132.62361848541667,52.0,81.0
878,132.38323463125,132.69477210625,56.0,79.0
879,131.22939213125,132.84092548958333,40.0,78.0
880,132.61400313125,132.92169446458334,47.0,71.0
881,132.84477163125,132.99188655,52.0,78.0
882,133.07554013125,133.30246248958335,54.0,78.0
883,133.07554013125,133.36496229166667,58.0,74.0
884,133.53707713125002,133.66880748333332,54.0,79.0
885,133.76784563125,134.08515231875,54.0,76.0
886,133.76784563125,134.11303684583334,61.0,75.0
887,133.30630863125,134.32745924375,49.0,68.0
888,133.07554013125,134.37938215625,42.0,78.0
889,134.22938263125,134.4168820375,54.0,78.0
890,134.22938263125,134.49092026458334,61.0,78.0
891,134.22938263125,134.52168939791667,66.0,76.0
892,134.92168813125,135.04764927083335,54.0,77.0
893,134.92168813125,135.23514867708334,59.0,76.0
894,135.15245663125,135.47360946041667,54.0,77.0
895,135.38322513125001,135.49284016875,59.0,73.0
896,135.61399363125,135.88514661875,54.0,78.0
897,135.61399363125,135.96976173541668,63.0,79.0
898,136.07553063125,136.22745322708334,54.0,78.0
899,134.92168813125,136.23803011666666,47.0,80.0
900,136.07553063125,136.2630300375,59.0,77.0
901,136.76783613125,137.02168148125,58.0,76.0
902,136.76783613125,137.21783470625,66.0,71.0
903,137.22937313125001,137.341872775,58.0,83.0
904,136.99860463125,137.54571828333334,46.0,71.0
905,137.46014163125,137.7745637125,58.0,82.0
906,137.46014163125,137.78706367291667,63.0,79.0
907,137.69091013125,137.99667839375,46.0,70.0
908,136.76783613125,138.011101425,39.0,81.0
909,137.92167863125,138.05244744791668,58.0,88.0
910,137.92167863125,138.15340866666668,63.0,88.0
911,138.61398413125,138.80244507291667,56.0,74.0
912,138.61398413125,138.99282908541667,59.0,78.0
913,139.07552113125,139.20244380625,56.0,73.0
914,139.30628963125,139.45628915625,63.0,77.0
915,139.30628963125,139.67455769583333,56.0,78.0
916,139.30628963125,139.75724974166667,66.0,71.0
917,138.84475263125,139.93609532916668,47.0,66.0
918,139.76782663125,140.01397969791668,59.0,81.0
919,138.61398413125,140.03128733541666,40.0,77.0
920,139.99859513125,140.28224807916666,56.0,81.0
921,140.22936363125,140.34955555833332,59.0,77.0
922,140.46013213125,140.66974685208334,54.0,79.0
923,140.46013213125,140.74955429166667,58.0,82.0
924,140.92166913125,141.03801491666667,54.0,81.0
925,141.15243763125,141.4899365625,54.0,79.0
926,141.15243763125,141.5245518375,61.0,78.0
927,140.69090063125,141.72358966875,49.0,72.0
928,141.61397463125,141.79762789583333,54.0,78.0
929,140.46013213125,142.18608820416668,42.0,78.0
930,141.84474313125,142.23031883333334,49.0,77.0
931,142.07551163125,142.28224174583335,54.0,78.0
932,141.61397463125,142.29858784791668,61.0,77.0
933,141.61397463125,142.31012627291668,66.0,75.0
934,142.30628013125,142.5745485125,51.0,78.0
935,142.30628013125,142.63800985,58.0,77.0
936,142.76781713125,142.8630091375,51.0,86.0
937,142.53704863125,143.0245470875,46.0,73.0
938,142.30628013125,143.05243161458333,39.0,78.0
939,142.99858563125,143.18800810833335,63.0,83.0
940,142.99858563125,143.20243113958333,51.0,83.0
941,143.22935413125,143.33127688541666,46.0,77.0
942,143.46012263125002,143.618775975,51.0,88.0
943,143.46012263125002,143.68512191875,58.0,83.0
944,143.92165963125,144.02262085,51.0,86.0
945,144.15242813125,144.40050426875,56.0,72.0
946,144.15242813125,144.44281182708335,59.0,77.0
947,144.61396513125,144.70434946041667,56.0,73.0
948,144.38319663125,144.86684894583334,51.0,72.0
949,144.15242813125,144.94761792083332,44.0,81.0
950,144.84473363125,145.01107925833333,56.0,80.0
951,144.84473363125,145.04857913958332,63.0,79.0
952,145.07550213125,145.141848075,44.0,66.0
953,145.07550213125,145.26107846666667,51.0,81.0
954,145.30627063125002,145.44280866041666,56.0,77.0
955,145.30627063125002,145.46588551041665,59.0,80.0
956,145.76780763125,146.11492191666667,56.0,78.0
957,145.99857613125,146.31684435416668,64.0,79.0
958,146.46011313125,146.58607427083334,56.0,81.0
959,146.22934463125,146.71492001666667,44.0,77.0
960,145.99857613125,146.77165060625,37.0,80.0
961,146.69088163125,146.9129963125,64.0,80.0
962,146.69088163125,146.91395784791666,56.0,86.0
963,146.92165013125,147.02357288541666,44.0,78.0
964,147.15241863125001,147.24953370833333,56.0,82.0
965,147.15241863125001,147.38511020208333,61.0,84.0
966,147.38318713125,147.5360712625,56.0,80.0
967,147.61395563125,147.68991692916666,61.0,68.0
968,147.61395563125,147.70530149583334,56.0,54.0
969,147.84472413125,148.0610696,54.0,79.0
970,147.84472413125,148.0783772375,58.0,81.0
971,148.30626113125,148.41106849166667,54.0,86.0
972,147.84472413125,148.53510656041666,42.0,77.0
973,148.07549263125,148.53799116666667,49.0,70.0
974,148.53702963125,148.74568281666666,61.0,81.0
975,148.53702963125,148.82068257916666,54.0,83.0
976,148.76779813125,149.06202796875002,49.0,78.0
977,148.99856663125001,149.10914320416666,54.0,79.0
978,148.99856663125001,149.22356591875,58.0,86.0
979,148.99856663125001,149.3014502875,61.0,84.0
980,149.22933513125,149.34568091666668,54.0,82.0
981,149.69087213125,149.9591405125,51.0,78.0
982,149.69087213125,150.02260185,58.0,77.0
983,150.15240913125,150.2476011375,51.0,86.0
984,149.92164063125,150.4091390875,46.0,73.0
985,149.69087213125,150.43702361458332,39.0,78.0
986,150.38317763125,150.57260010833335,63.0,83.0
987,150.38317763125,150.58702313958332,51.0,83.0
988,150.61394613125,150.71586888541668,46.0,77.0
989,150.84471463125,151.003367975,51.0,88.0
990,150.84471463125,151.06971391875,58.0,83.0
991,151.30625163125,151.40721285,51.0,86.0
992,151.53702013125,151.78509626875,56.0,72.0
993,151.53702013125,151.82740382708334,59.0,77.0
994,151.99855713125,152.08894146041666,56.0,73.0
995,151.76778863125,152.25144094583334,51.0,72.0
996,151.53702013125,152.33220992083332,44.0,81.0
997,152.22932563125,152.39567125833332,56.0,80.0
998,152.22932563125,152.43317113958332,63.0,79.0
999,152.46009413125,152.526440075,44.0,66.0
1000,152.46009413125,152.64567046666667,51.0,81.0
1001,152.69086263125,152.82740066041666,56.0,77.0
1002,152.69086263125,152.85047751041668,59.0,80.0
1003,153.15239963125,153.49951391666667,56.0,78.0
1004,153.38316813125,153.49951391666667,56.0,77.0
1005,153.38316813125,153.7379747,64.0,78.0
1006,153.84470513125,153.93316638958333,56.0,83.0
1007,153.61393663125,154.56008748125,44.0,72.0
1008,153.38316813125,154.58989507916667,37.0,84.0
1009,154.07547363125,154.73316385625,56.0,83.0
1010,154.07547363125,154.7995098,64.0,79.0
1011,154.99854763125,155.43796931666668,52.0,81.0
1012,154.99854763125,155.46873845,59.0,80.0
1013,155.69085313125,155.81585273541666,52.0,83.0
1014,155.46008463125,156.01489056666668,47.0,77.0
1015,155.92162163125,156.26200516875,52.0,86.0
1016,155.92162163125,156.27450512916667,59.0,82.0
1017,156.15239013125,156.39277398541668,47.0,81.0
1018,154.99854763125,156.43027386666668,40.0,77.0
1019,156.38315863125,156.61969634375,52.0,88.0
1020,156.61392713125,156.88508011875,40.0,79.0
1021,156.84469563125,156.957195275,52.0,86.0
1022,156.38315863125,156.9629644875,59.0,79.0
1023,156.38315863125,156.9860413375,64.0,78.0
1024,157.07546413125002,157.31392491458334,54.0,82.0
1025,157.07546413125002,157.36584782708334,59.0,77.0
1026,157.53700113125,157.66584687708334,54.0,83.0
1027,157.30623263125,157.82257715,49.0,77.0
1028,157.76776963125,158.08603785416668,54.0,84.0
1029,157.76776963125,158.09853781458332,61.0,77.0
1030,157.99853813125,158.24661426875,49.0,79.0
1031,158.22930663125,158.47065202083334,54.0,84.0
1032,158.22930663125,158.55334406666668,61.0,82.0
1033,157.07546413125002,158.66199756875,42.0,79.0
1034,158.46007513125,158.7744972125,49.0,78.0
1035,158.69084363125,158.86392000625,54.0,79.0
1036,158.92161213125001,159.43795665,54.0,73.0
1037,158.92161213125001,159.44276432708332,58.0,79.0
1038,158.92161213125001,159.46776424791668,61.0,78.0
1039,159.38314913125,159.66007133125,49.0,81.0
1040,159.61391763125,159.88507061875,66.0,75.0
1041,159.61391763125,159.91391668125002,54.0,84.0
1042,159.61391763125,159.9283397125,58.0,83.0
1043,159.61391763125,159.934108925,61.0,81.0
1044,159.84468613125,160.17545431458333,49.0,78.0
1045,158.92161213125001,160.29853084791668,42.0,80.0
1046,160.30622313125,160.37353061041668,42.0,44.0
1047,160.07545463125,160.38699210625,54.0,80.0
1048,160.07545463125,160.69179883333334,58.0,84.0
1049,160.30622313125,160.695644975,49.0,77.0
1050,160.07545463125,160.70910647083335,61.0,81.0
1051,160.53699163125,160.71102954166668,54.0,83.0
1052,160.76776013125001,161.1225667,63.0,73.0
1053,160.76776013125001,161.13506666041667,59.0,73.0
1054,160.76776013125001,161.14179740833333,54.0,73.0
1055,161.22929713125,161.45333488333333,63.0,84.0
1056,161.22929713125,161.46006563125,59.0,82.0
1057,160.76776013125001,161.46583484375,47.0,84.0
1058,161.22929713125,161.47352712708334,54.0,80.0
1059,161.57544988125,161.72929554791668,63.0,78.0
1060,161.57544988125,161.74564165,59.0,77.0
1061,161.57544988125,161.75237239791667,54.0,77.0
1062,161.69083413125,161.81583373541667,49.0,69.0
1063,161.69083413125,162.02640999166667,47.0,65.0
1064,161.92160263125,162.19275561875,63.0,82.0
1065,161.92160263125,162.21198632708334,54.0,80.0
1066,161.92160263125,162.21583246875,59.0,83.0
1067,162.15237113125,162.46871628333332,47.0,76.0
1068,162.38313963125,162.47929317291667,63.0,79.0
1069,162.38313963125,162.48410085,59.0,79.0
1070,162.38313963125,162.53025455,54.0,78.0
1071,162.61390813125,162.89756107916668,42.0,77.0
1072,162.61390813125,162.90236875625,54.0,77.0
1073,162.61390813125,162.90621489791667,58.0,75.0
1074,163.07544513125,163.2629445375,61.0,78.0
1075,163.07544513125,163.26486760833333,54.0,77.0
1076,163.07544513125,163.26486760833333,58.0,79.0
1077,163.07544513125,163.36967496875,42.0,77.0
1078,163.42159788125,163.55909744583334,61.0,76.0
1079,163.42159788125,163.57159740625,58.0,77.0
1080,163.42159788125,163.58313583125,54.0,75.0
1081,163.53698213125,163.82544275625,42.0,76.0
1082,163.76775063125,164.02928826458333,61.0,78.0
1083,163.76775063125,164.05140357916667,54.0,79.0
1084,163.76775063125,164.05717279166666,58.0,83.0
1085,163.99851913125,164.27928747291668,42.0,77.0
1086,164.22928763125,164.34082573958332,54.0,78.0
1087,164.22928763125,164.341787275,61.0,79.0
1088,164.22928763125,164.34467188125,58.0,81.0
1089,164.46005613125,164.70909380416666,63.0,79.0
1090,164.46005613125,164.7398629375,56.0,75.0
1091,164.46005613125,164.74178600833335,59.0,79.0
1092,164.46005613125,164.74755522083333,44.0,76.0
1093,164.92159313125,165.03697738125,44.0,75.0
1094,164.92159313125,165.12255403333333,63.0,79.0
1095,164.92159313125,165.12832324583334,56.0,77.0
1096,164.92159313125,165.13697706458333,59.0,81.0
1097,165.26774588125,165.4206300125,63.0,79.0
1098,165.26774588125,165.44082225625002,56.0,77.0
1099,165.26774588125,165.44755300416668,59.0,79.0
1100,165.38313013125,165.63505241041668,44.0,73.0
1101,165.61389863125,165.88120547708334,56.0,78.0
1102,165.61389863125,165.8821670125,63.0,82.0
1103,165.61389863125,165.89274390208334,59.0,82.0
1104,165.84466713125,166.00428201041666,44.0,73.0
1105,166.07543563125,166.16005074791667,63.0,76.0
1106,166.07543563125,166.17735838541668,59.0,77.0
1107,166.07543563125,166.18697373958332,56.0,73.0
1108,166.30620413125,166.59851089791667,54.0,76.0
1109,166.30620413125,166.61197239375,61.0,76.0
1110,166.30620413125,166.61678007083333,58.0,75.0
1111,166.30620413125,166.67543373125,39.0,77.0
1112,166.76774113125,166.92447140416667,61.0,80.0
1113,166.76774113125,166.93504829375001,39.0,79.0
1114,166.76774113125,167.01004805625,54.0,78.0
1115,166.76774113125,167.04081718958332,58.0,83.0
1116,167.11389388125,167.26966261875,54.0,70.0
1117,167.11389388125,167.28697025625002,58.0,76.0
1118,167.22927813125,167.480238875,39.0,78.0
1119,167.46004663125,167.76966103541668,54.0,81.0
1120,167.57543088125,167.780237925,39.0,78.0
1121,167.46004663125,167.80043016875,58.0,84.0
1122,167.92158363125,168.00908335416668,58.0,78.0
1123,167.92158363125,168.02735252708334,54.0,78.0
1124,168.15235213125,168.45812039375,52.0,73.0
1125,168.15235213125,168.48408185,56.0,77.0
1126,168.15235213125,168.68696582291668,40.0,78.0
1127,168.61388913125,168.77735015208333,52.0,80.0
1128,168.61388913125,168.80331160833333,59.0,83.0
1129,168.61388913125,168.81100389166667,56.0,81.0
1130,168.84465763125002,169.00138790416668,59.0,75.0
1131,168.84465763125002,169.01965707708334,52.0,73.0
1132,168.84465763125002,169.02542628958332,56.0,74.0
1133,169.07542613125,169.39273281875,40.0,77.0
1134,169.30619463125,169.5975398625,52.0,80.0
1135,169.30619463125,169.60523214583333,59.0,79.0
1136,169.30619463125,169.61292442916667,56.0,80.0
1137,169.53696313125,169.74850092291666,40.0,77.0
1138,169.76773163125,169.87734666875,52.0,78.0
1139,169.76773163125,169.89561584166668,56.0,82.0
1140,169.76773163125,169.90619273125,59.0,80.0
1141,169.99850013125,170.25330701666667,54.0,78.0
1142,169.99850013125,170.26003776458333,58.0,78.0
1143,169.99850013125,170.38022969166667,42.0,78.0
1144,170.34465288125,170.50234468958334,54.0,78.0
1145,170.34465288125,170.51484465000001,58.0,79.0
1146,170.46003713125,170.70042098541666,42.0,78.0
1147,170.69080563125002,170.80426681041666,54.0,81.0
1148,170.69080563125002,170.83311287291667,58.0,86.0
1149,170.92157413125,171.15715030833334,56.0,74.0
1150,170.92157413125,171.16003491458335,59.0,78.0
1151,171.26772688125,171.426380225,56.0,76.0
1152,171.26772688125,171.43214943750002,59.0,78.0
1153,170.92157413125,171.64368722916666,44.0,78.0
1154,171.38311113125,171.65907179583334,51.0,77.0
1155,171.61387963125,171.72541773958335,56.0,74.0
1156,171.61387963125,171.74272537708333,59.0,78.0
1157,171.84464813125,172.15714714166666,56.0,77.0
1158,171.84464813125,172.1590702125,61.0,78.0
1159,172.30618513125,172.56579969375,56.0,81.0
1160,172.30618513125,172.56772276458332,61.0,82.0
1161,172.30618513125,172.56964583541668,64.0,78.0
1162,171.84464813125,172.57060737083333,49.0,83.0
1163,172.65233788125,172.68887622708334,64.0,63.0
1164,172.65233788125,172.79560665833333,61.0,74.0
1165,172.65233788125,172.80810661875,56.0,74.0
1166,172.76772213125,173.08406728333333,49.0,79.0
1167,172.99849063125,173.26579747708334,64.0,78.0
1168,172.99849063125,173.28310511458335,56.0,79.0
1169,172.99849063125,173.29464353958335,61.0,81.0
1170,173.22925913125,173.4859890875,49.0,74.0
1171,173.46002763125,173.58214262916667,61.0,77.0
1172,173.46002763125,173.58695030625,56.0,76.0
1173,173.69079613125,173.98694903958332,61.0,78.0
1174,173.69079613125,173.987910575,54.0,78.0
1175,173.69079613125,173.99175671666666,58.0,79.0
1176,174.15233313125,174.37060167083334,54.0,81.0
1177,174.15233313125,174.38214009583334,61.0,84.0
1178,174.15233313125,174.38310163125,58.0,88.0
1179,173.69079613125,174.45040911041667,42.0,78.0
1180,174.49848588125,174.64463926458333,61.0,77.0
1181,174.49848588125,174.65040847708335,54.0,77.0
1182,174.49848588125,174.65233154791667,58.0,78.0
1183,174.61387013125,174.93502296041666,49.0,77.0
1184,174.84463863125,175.13117618541668,54.0,83.0
1185,174.84463863125,175.13502232708333,61.0,83.0
1186,174.84463863125,175.13886846875,58.0,82.0
1187,175.07540713125,175.40713685,42.0,78.0
1188,175.30617563125,175.47636740000002,61.0,79.0
1189,175.30617563125,175.48405968333333,54.0,80.0
1190,175.30617563125,175.49271350208335,58.0,83.0
1191,175.53694413125,175.8917507,63.0,73.0
1192,175.53694413125,175.90425066041666,59.0,73.0
1193,175.53694413125,175.91098140833333,54.0,73.0
1194,175.99848113125,176.22251888333332,63.0,84.0
1195,175.99848113125,176.22924963125,59.0,82.0
1196,175.53694413125,176.23501884375,47.0,84.0
1197,175.99848113125,176.24271112708334,54.0,80.0
1198,176.34463388125,176.49847954791667,63.0,78.0
1199,176.34463388125,176.51482565,59.0,77.0
1200,176.34463388125,176.52155639791667,54.0,77.0
1201,176.46001813125,176.58501773541667,49.0,69.0
1202,176.46001813125,176.79559399166666,47.0,65.0
1203,176.69078663125,176.96193961875,63.0,82.0
1204,176.69078663125,176.98117032708333,54.0,80.0
1205,176.69078663125,176.98501646875,59.0,83.0
1206,176.92155513125,177.23790028333335,47.0,76.0
1207,177.15232363125,177.24847717291667,63.0,79.0
1208,177.15232363125,177.25328485,59.0,79.0
1209,177.15232363125,177.29943855,54.0,78.0
1210,177.38309213125,177.66674507916667,42.0,77.0
1211,177.38309213125,177.67155275625,54.0,77.0
1212,177.38309213125,177.67539889791666,58.0,75.0
1213,177.84462913125,178.0321285375,61.0,78.0
1214,177.84462913125,178.03405160833333,54.0,77.0
1215,177.84462913125,178.03405160833333,58.0,79.0
1216,177.84462913125,178.13885896875001,42.0,77.0
1217,178.19078188125,178.32828144583334,61.0,76.0
1218,178.19078188125,178.34078140625002,58.0,77.0
1219,178.19078188125,178.35231983125,54.0,75.0
1220,178.30616613125,178.59462675625,42.0,76.0
1221,178.53693463125,178.79847226458332,61.0,78.0
1222,178.53693463125,178.82058757916667,54.0,79.0
1223,178.53693463125,178.82635679166668,58.0,83.0
1224,178.76770313125002,179.04847147291667,42.0,77.0
1225,178.99847163125,179.11000973958335,54.0,78.0
1226,178.99847163125,179.110971275,61.0,79.0
1227,178.99847163125,179.11385588125,58.0,81.0
1228,179.22924013125,179.47827780416668,63.0,79.0
1229,179.22924013125,179.5090469375,56.0,75.0
1230,179.22924013125,179.51097000833335,59.0,79.0
1231,179.22924013125,179.51673922083333,44.0,76.0
1232,179.69077713125,179.80616138125,44.0,75.0
1233,179.69077713125,179.89173803333333,63.0,79.0
1234,179.69077713125,179.89750724583334,56.0,77.0
1235,179.69077713125,179.90616106458333,59.0,81.0
1236,180.03692988125,180.1898140125,63.0,79.0
1237,180.03692988125,180.21000625625,56.0,77.0
1238,180.03692988125,180.21673700416667,59.0,79.0
1239,180.15231413125,180.40423641041667,44.0,73.0
1240,180.38308263125,180.65038947708334,56.0,78.0
1241,180.38308263125,180.65135101250002,63.0,82.0
1242,180.38308263125,180.66192790208333,59.0,82.0
1243,180.61385113125002,180.77346601041666,44.0,73.0
1244,180.84461963125,180.92923474791667,63.0,76.0
1245,180.84461963125,180.94654238541668,59.0,77.0
1246,180.84461963125,180.95615773958335,56.0,73.0
1247,181.07538813125,181.36769489791666,54.0,76.0
1248,181.07538813125,181.38115639375,61.0,76.0
1249,181.07538813125,181.38596407083332,58.0,75.0
1250,181.07538813125,181.44461773125,39.0,77.0
1251,181.53692513125,181.69365540416666,61.0,80.0
1252,181.53692513125,181.70423229375,39.0,79.0
1253,181.53692513125,181.77923205625,54.0,78.0
1254,181.53692513125,181.81000118958335,58.0,83.0
1255,181.88307788125,182.03884661875,54.0,70.0
1256,181.88307788125,182.05615425625,58.0,76.0
1257,181.99846213125,182.249422875,39.0,78.0
1258,182.22923063125,182.53884503541667,54.0,81.0
1259,182.34461488125,182.549421925,39.0,78.0
1260,182.22923063125,182.56961416875,58.0,84.0
1261,182.69076763125,182.77826735416667,58.0,78.0
1262,182.69076763125,182.79653652708333,54.0,78.0
1263,182.92153613125,183.25615045625,59.0,79.0
1264,182.92153613125,183.2590350625,52.0,77.0
1265,182.92153613125,183.52538037291666,40.0,79.0
1266,183.38307313125,183.6398030875,52.0,80.0
1267,183.38307313125,183.864802375,56.0,83.0
1268,183.38307313125,183.93595599583333,59.0,84.0
1269,183.84461013125,183.95422516875,52.0,74.0
1270,184.07537863125,184.3898007125,52.0,79.0
1271,184.07537863125,184.40326220833333,56.0,78.0
1272,184.07537863125,184.41095449166667,59.0,80.0
1273,184.76768413125,185.24075955625,54.0,76.0
1274,184.76768413125,185.25614412291668,39.0,81.0
1275,184.76768413125,185.26383640625,58.0,78.0
1276,185.45998963125,185.77729631875,56.0,78.0
1277,185.45998963125,185.78883474375002,59.0,91.0
1278,185.45998963125,186.03979548750002,44.0,83.0
1279,185.92152663125,186.19364115416667,56.0,78.0
1280,185.92152663125,186.218641075,59.0,75.0
1281,185.92152663125,186.241717925,63.0,86.0
1282,186.15229513125,186.27825627083334,51.0,82.0
1283,186.38306363125,186.48402485,56.0,78.0
1284,186.61383213125,186.9513310625,56.0,83.0
1285,186.61383213125,186.95710027500002,64.0,76.0
1286,186.61383213125,186.97536944791668,61.0,84.0
1287,187.07536913125,187.12729204375,56.0,77.0
1288,186.61383213125,187.19556105833334,49.0,84.0
1289,187.07536913125,187.25902239583334,64.0,79.0
1290,187.07536913125,187.31382991458332,61.0,82.0
1291,187.30613763125,187.37921432291668,56.0,66.0
1292,187.53690613125,187.81575140208332,54.0,77.0
1293,187.53690613125,187.82248215,58.0,79.0
1294,187.76767463125,188.02632765833334,49.0,71.0
1295,187.53690613125,188.05998139791666,42.0,78.0
1296,187.99844313125,188.16575029375,54.0,81.0
1297,187.99844313125,188.24075005625,61.0,84.0
1298,187.99844313125,188.25325001666667,58.0,91.0
1299,188.22921163125,188.33209592083332,49.0,78.0
1300,188.45998013125,188.7051716625,54.0,82.0
1301,188.45998013125,188.7167100875,59.0,82.0
1302,188.80613288125,188.93209402083335,63.0,82.0
1303,188.80613288125,188.93305555625,54.0,80.0
1304,188.80613288125,188.93786323333333,59.0,83.0
1305,188.45998013125,189.15997791458332,47.0,84.0
1306,189.15228563125,189.41766940625,54.0,79.0
1307,189.15228563125,189.42728476041668,63.0,81.0
1308,189.15228563125,189.45132314583333,59.0,82.0
1309,189.61382263125,189.749399125,54.0,74.0
1310,189.84459113125,189.97151380625002,54.0,78.0
1311,189.84459113125,190.18112852708333,59.0,77.0
1312,189.38305413125,190.187859275,47.0,76.0
1313,190.07535963125,190.22247455000002,54.0,78.0
1314,190.30612813125,190.51574285208335,47.0,82.0
1315,190.30612813125,190.534012025,59.0,78.0
1316,190.30612813125,190.54555045,35.0,80.0
1317,190.65228088125,190.84458796458333,61.0,79.0
1318,190.65228088125,190.85612638958332,49.0,80.0
1319,190.65228088125,190.86862635,37.0,88.0
1320,190.99843363125,191.24458669791667,51.0,82.0
1321,190.99843363125,191.26477894166666,63.0,81.0
1322,190.99843363125,191.27439429583333,39.0,93.0
1323,191.34458638125,191.4513168125,52.0,79.0
1324,191.34458638125,191.45420141875,64.0,76.0
1325,191.34458638125,191.48689362291668,40.0,80.0
1326,191.57535488125,191.77150810625,53.0,73.0
1327,191.57535488125,191.79073881458334,65.0,72.0
1328,191.69073913125,191.87920007291666,41.0,86.0
1329,192.15227613125,192.25996809791667,42.0,79.0
1330,192.15227613125,192.26573731041668,58.0,77.0
1331,192.15227613125,192.2705449875,49.0,80.0
1332,192.15227613125,192.2705449875,54.0,73.0
1333,192.15227613125,192.27342959375,66.0,74.0
1334,192.38304463125002,192.46862128333333,49.0,77.0
1335,192.38304463125002,192.47342896041667,42.0,70.0
1336,192.38304463125002,192.47919817291668,54.0,75.0
1337,192.38304463125002,192.48015970833333,58.0,78.0
1338,192.38304463125002,192.48015970833333,66.0,73.0
1339,192.61381313125,192.69842824791667,49.0,76.0
1340,192.61381313125,192.70419746041668,54.0,75.0
1341,192.61381313125,192.70419746041668,58.0,79.0
1342,192.61381313125,192.7205435625,42.0,72.0
1343,192.61381313125,192.72150509791666,66.0,73.0
1344,192.84458163125,192.94073517291667,58.0,78.0
1345,192.84458163125,192.94169670833332,49.0,77.0
1346,192.84458163125,192.94842745625002,54.0,74.0
1347,192.84458163125,192.95035052708334,66.0,73.0
1348,192.84458163125,192.9513120625,42.0,74.0
1349,193.07535013125,193.16958060208333,49.0,77.0
1350,193.07535013125,193.17919595625,58.0,77.0
1351,193.07535013125,193.187849775,54.0,72.0
1352,193.07535013125,193.19650359375,42.0,76.0
1353,193.07535013125,193.20227280625,66.0,73.0
1354,193.30611863125,193.39746449583333,49.0,78.0
1355,193.30611863125,193.40515677916667,58.0,79.0
1356,193.30611863125,193.41957981041668,54.0,77.0
1357,193.30611863125,193.42342595208333,42.0,73.0
1358,193.30611863125,193.42534902291666,66.0,73.0
1359,193.53688713125,193.6205407125,49.0,79.0
1360,193.53688713125,193.63880988541666,54.0,75.0
1361,193.53688713125,193.63977142083334,58.0,79.0
1362,193.53688713125,193.65227138125,42.0,77.0
1363,193.53688713125,193.65323291666667,66.0,71.0
1364,193.76765563125,193.87727066875001,54.0,75.0
1365,193.76765563125,193.87919373958334,66.0,72.0
1366,193.76765563125,193.88303988125,49.0,78.0
1367,193.76765563125,193.88496295208333,58.0,81.0
1368,193.76765563125,193.88880909375,42.0,72.0
1369,193.99842413125,194.79265238541666,49.0,79.0
1370,193.99842413125,194.81092155833335,42.0,78.0
1371,193.99842413125,194.87149828958334,66.0,77.0
1372,193.99842413125,194.90034435208332,54.0,81.0
1373,193.99842413125,194.90611356458334,58.0,81.0
1374,195.84457213125,196.08784059166666,52.0,77.0
1375,195.84457213125,196.10418669375,59.0,82.0
1376,195.84457213125,196.1070713,56.0,78.0
1377,196.19072488125,196.34264747708335,52.0,78.0
1378,196.19072488125,196.35610897291667,56.0,80.0
1379,196.19072488125,196.36187818541666,59.0,78.0
1380,195.84457213125,196.62533888958333,40.0,81.0
1381,196.53687763125,196.7936075875,52.0,80.0
1382,196.53687763125,196.81572290208334,56.0,86.0
1383,196.53687763125,196.82918439791666,59.0,84.0
1384,196.99841463125,197.28783679166668,61.0,91.0
1385,196.99841463125,197.28879832708333,54.0,81.0
1386,196.99841463125,197.30322135833333,58.0,91.0
1387,197.22918313125,197.45514395416666,49.0,77.0
1388,196.76764613125,197.50610533125,42.0,80.0
1389,197.45995163125,197.51283607916668,61.0,71.0
1390,197.45995163125,197.54456674791666,58.0,79.0
1391,197.45995163125,197.55995131458334,54.0,81.0
1392,197.69072013125,197.94071933958332,51.0,83.0
1393,197.69072013125,197.96091158333334,54.0,79.0
1394,198.03687288125,198.14071870625,51.0,84.0
1395,198.03687288125,198.16091095000002,54.0,91.0
1396,197.69072013125,198.25033374375,39.0,81.0
1397,198.38302563125,198.57917885625,51.0,83.0
1398,198.38302563125,198.6051403125,54.0,91.0
1399,198.84456263125,199.12244636666668,56.0,77.0
1400,198.84456263125,199.13879246875,59.0,91.0
1401,199.19071538125002,199.31283037916666,59.0,82.0
1402,199.07533113125,199.32533033958333,51.0,79.0
1403,198.61379413125,199.36763789791667,44.0,76.0
1404,199.30609963125,199.42244541666668,56.0,78.0
1405,199.53686813125,199.74840592291667,59.0,80.0
1406,199.53686813125,199.75513667083334,56.0,77.0
1407,199.88302088125,200.05609725625,52.0,83.0
1408,199.88302088125,200.06571261041668,56.0,86.0
1409,199.53686813125,200.23686591458335,40.0,77.0
1410,200.22917363125,200.4397498875,52.0,86.0
1411,200.22917363125,200.51186504375,59.0,86.0
1412,200.69071063125,200.98397893333333,54.0,86.0
1413,200.69071063125,200.99647889375,58.0,91.0
1414,200.92147913125,201.21378589791667,49.0,70.0
1415,200.45994213125002,201.24840117291666,42.0,79.0
1416,201.15224763125,201.27340109375,58.0,83.0
1417,201.15224763125,201.28013184166667,54.0,79.0
1418,201.38301613125,201.62724612708334,58.0,71.0
1419,201.38301613125,201.63686148125,54.0,72.0
1420,201.38301613125,201.80993785625,39.0,82.0
1421,201.72916888125,201.88012994166667,54.0,78.0
1422,201.72916888125,201.90032218541666,59.0,80.0
1423,202.07532163125,202.2743594625,54.0,78.0
1424,202.07532163125,202.32916698125,63.0,81.0
1425,202.53685863125,202.82531925625,56.0,79.0
1426,202.53685863125,202.85608838958333,59.0,83.0
1427,202.76762713125,202.99358795416666,51.0,78.0
1428,202.30609013125002,203.02339555208334,44.0,78.0
1429,202.99839563125,203.12531830625,56.0,77.0
1430,202.99839563125,203.12627984166667,59.0,77.0
1431,203.22916413125,203.47243259166666,52.0,77.0
1432,203.22916413125,203.48877869375,59.0,82.0
1433,203.22916413125,203.4916633,56.0,78.0
1434,203.57531688125,203.72723947708334,52.0,78.0
1435,203.57531688125,203.74070097291667,56.0,80.0
1436,203.57531688125,203.74647018541668,59.0,78.0
1437,203.22916413125,204.00993088958333,40.0,81.0
1438,203.92146963125,204.1781995875,52.0,80.0
1439,203.92146963125,204.20031490208333,56.0,86.0
1440,203.92146963125,204.21377639791666,59.0,84.0
1441,204.38300663125,204.67242879166668,61.0,91.0
1442,204.38300663125,204.67339032708333,54.0,81.0
1443,204.38300663125,204.68781335833333,58.0,91.0
1444,204.61377513125,204.83973595416666,49.0,77.0
1445,204.15223813125002,204.89069733125,42.0,80.0
1446,204.84454363125,204.89742807916667,61.0,71.0
1447,204.84454363125,204.92915874791666,58.0,79.0
1448,204.84454363125,204.94454331458334,54.0,81.0
1449,205.07531213125,205.32531133958332,51.0,83.0
1450,205.07531213125,205.34550358333334,54.0,79.0
1451,205.42146488125,205.52531070625,51.0,84.0
1452,205.42146488125,205.54550295,54.0,91.0
1453,205.07531213125,205.63492574375,39.0,81.0
1454,205.76761763125,205.96377085625,51.0,83.0
1455,205.76761763125,205.9897323125,54.0,91.0
1456,206.22915463125,206.50703836666668,56.0,77.0
1457,206.22915463125,206.52338446875,59.0,91.0
1458,206.57530738125,206.69742237916668,59.0,82.0
1459,206.45992313125,206.70992233958333,51.0,79.0
1460,205.99838613125002,206.75222989791666,44.0,76.0
1461,206.69069163125,206.80703741666667,56.0,78.0
1462,206.92146013125,207.13299792291667,59.0,80.0
1463,206.92146013125,207.13972867083334,56.0,77.0
1464,207.26761288125002,207.44068925625,52.0,83.0
1465,207.26761288125002,207.45030461041668,56.0,86.0
1466,206.92146013125,207.62145791458335,40.0,77.0
1467,207.61376563125,207.8243418875,52.0,86.0
1468,207.61376563125,207.89645704375,59.0,86.0
1469,208.07530263125,208.36857093333333,54.0,86.0
1470,208.07530263125,208.38107089375,58.0,91.0
1471,208.30607113125,208.59837789791666,49.0,70.0
1472,207.84453413125001,208.63299317291666,42.0,79.0
1473,208.53683963125,208.65799309375,58.0,83.0
1474,208.53683963125,208.66472384166667,54.0,79.0
1475,208.76760813125,209.04549186666668,54.0,78.0
1476,208.76760813125,209.0474149375,59.0,78.0
1477,209.11376088125002,209.24645276875,54.0,70.0
1478,209.11376088125002,209.2608758,63.0,77.0
1479,209.11376088125002,209.2666450125,59.0,77.0
1480,208.76760813125,209.6012593375,35.0,78.0
1481,209.45991363125,209.76375882291666,54.0,78.0
1482,209.45991363125,209.81664327083334,63.0,81.0
1483,209.45991363125,209.82337401875,59.0,79.0
1484,209.92145063125,210.03106566875002,54.0,77.0
1485,210.15221913125,210.29837251458335,54.0,82.0
1486,209.69068213125,210.54260251041666,35.0,61.0
1487,210.15221913125,210.56664089583333,59.0,80.0
1488,210.52721794375,210.56664089583333,59.0,70.0
1489,210.38298763125,210.58106392708333,54.0,78.0
1490,210.45894892916667,210.58106392708333,54.0,68.0
1491,210.564717825,211.77240630833333,47.0,80.0
1492,210.60414077708333,211.80894465416668,63.0,77.0
1493,212.33394299166667,213.59547745833333,54.0,63.0
1494,212.39163511666666,213.62624659166667,58.0,71.0
1495,212.45990413125,213.66470800833335,61.0,65.0
1496,212.45413491875001,213.71663092083332,42.0,78.0
1497,214.30989827291668,214.78297369791667,68.0,70.0
1498,214.26662917916667,214.83585814583333,63.0,69.0
1499,214.19836016458333,214.85605038958334,59.0,70.0
1500,214.15989874791666,214.87143495625,56.0,56.0
1501,214.27335992708333,214.97047310416667,44.0,78.0
1502,215.98970064583332,216.27912280625,51.0,52.0
1503,216.04739277083334,216.46566067708335,54.0,73.0
1504,216.10027721875,216.62335248541666,58.0,71.0
1505,216.56566036041667,217.10508172916667,51.0,77.0
1506,216.81662110416667,217.14642775208333,54.0,83.0
1507,216.10604643125,217.30508109583334,39.0,79.0
1508,216.34162260833332,217.326234875,46.0,64.0
1509,217.8916177,218.70988433958334,56.0,69.0
1510,217.84931014166668,218.73199965416666,52.0,57.0
1511,217.9666174625,218.75219189791667,40.0,78.0
1512,217.96469439166668,218.78296103125,59.0,71.0
1513,219.69065046458334,220.118533725,51.0,67.0
1514,219.7435349125,220.30987927291667,54.0,74.0
1515,219.80507317916667,220.36180218541668,58.0,73.0
1516,220.28391781666667,220.60218603958333,46.0,74.0
1517,219.79065014791666,220.62430135416668,39.0,79.0
1518,220.52526320625,220.82045457916666,51.0,79.0
1519,220.74064713958333,221.0300693,56.0,71.0
1520,220.741608675,221.30026075208335,44.0,78.0
1521,220.96180028541667,221.30506842916668,51.0,80.0
1522,221.20603028125,221.34833752291667,56.0,75.0
1523,221.65122117916667,221.82525908958334,49.0,67.0
1524,221.687759525,221.96179711875,52.0,72.0
1525,221.70987483958334,221.97141247291668,56.0,72.0
1526,222.16179648541666,222.5819874625,49.0,72.0
1527,222.38102656041667,222.703140925,61.0,81.0
1528,221.941604875,222.71275627916668,44.0,64.0
1529,221.69449027291668,222.74448694791667,37.0,84.0
1530,223.37525418125,223.60986882291667,54.0,63.0
1531,223.42044634583334,223.74448378125,58.0,73.0
1532,223.4819846125,223.83198350416666,61.0,61.0
1533,223.53486906041667,223.84352192916666,66.0,66.0
1534,223.96275232083335,224.10025188541667,54.0,82.0
1535,223.75025299375,224.27044365416668,49.0,73.0
1536,224.180059325,224.456981525,58.0,88.0
1537,224.19159775,224.46659687916667,54.0,74.0
1538,224.17813625416667,224.48294298125,61.0,81.0
1539,223.51371528125,224.7165960875,42.0,78.0
1540,224.40986628958333,224.71755762291667,49.0,73.0
1541,224.63967325416667,224.77044207083333,54.0,81.0
1542,224.64351939583332,224.9992875,58.0,86.0
1543,224.88390325,225.10505639583334,54.0,78.0
1544,224.641596325,225.149287025,61.0,81.0
1545,225.38294013125,225.7377467,63.0,73.0
1546,225.38294013125,225.75024666041668,59.0,73.0
1547,225.38294013125,225.75697740833334,54.0,73.0
1548,225.84447713125002,226.06851488333334,63.0,84.0
1549,225.84447713125002,226.07524563125,59.0,82.0
1550,225.38294013125,226.08101484375,47.0,84.0
1551,225.84447713125002,226.08870712708332,54.0,80.0
1552,226.19062988125,226.34447554791666,63.0,78.0
1553,226.19062988125,226.36082165,59.0,77.0
1554,226.19062988125,226.36755239791668,54.0,77.0
1555,226.30601413125,226.43101373541666,49.0,69.0
1556,226.30601413125,226.64158999166668,47.0,65.0
1557,226.53678263125,226.80793561875,63.0,82.0
1558,226.53678263125,226.82716632708335,54.0,80.0
1559,226.53678263125,226.83101246875,59.0,83.0
1560,226.76755113125,227.08389628333333,47.0,76.0
1561,226.99831963125,227.09447317291668,63.0,79.0
1562,226.99831963125,227.09928085,59.0,79.0
1563,226.99831963125,227.14543455,54.0,78.0
1564,227.22908813125,227.51274107916666,42.0,77.0
1565,227.22908813125,227.51754875625,54.0,77.0
1566,227.22908813125,227.52139489791668,58.0,75.0
1567,227.69062513125002,227.8781245375,61.0,78.0
1568,227.69062513125002,227.88004760833334,54.0,77.0
1569,227.69062513125002,227.88004760833334,58.0,79.0
1570,227.69062513125002,227.98485496875,42.0,77.0
1571,228.03677788125,228.17427744583333,61.0,76.0
1572,228.03677788125,228.18677740625,58.0,77.0
1573,228.03677788125,228.19831583125,54.0,75.0
1574,228.15216213125,228.44062275625,42.0,76.0
1575,228.38293063125,228.64446826458334,61.0,78.0
1576,228.38293063125,228.66658357916668,54.0,79.0
1577,228.38293063125,228.67235279166667,58.0,83.0
1578,228.61369913125,228.89446747291666,42.0,77.0
1579,228.84446763125,228.95600573958333,54.0,78.0
1580,228.84446763125,228.956967275,61.0,79.0
1581,228.84446763125,228.95985188125,58.0,81.0
1582,229.07523613125,229.32427380416667,63.0,79.0
1583,229.07523613125,229.3550429375,56.0,75.0
1584,229.07523613125,229.35696600833333,59.0,79.0
1585,229.07523613125,229.36273522083334,44.0,76.0
1586,229.53677313125002,229.65215738125,44.0,75.0
1587,229.53677313125002,229.73773403333334,63.0,79.0
1588,229.53677313125002,229.74350324583332,56.0,77.0
1589,229.53677313125002,229.75215706458334,59.0,81.0
1590,229.88292588125,230.0358100125,63.0,79.0
1591,229.88292588125,230.05600225625,56.0,77.0
1592,229.88292588125,230.06273300416666,59.0,79.0
1593,229.99831013125,230.25023241041666,44.0,73.0
1594,230.22907863125,230.49638547708335,56.0,78.0
1595,230.22907863125,230.4973470125,63.0,82.0
1596,230.22907863125,230.50792390208335,59.0,82.0
1597,230.45984713125,230.61946201041667,44.0,73.0
1598,230.69061563125,230.77523074791668,63.0,76.0
1599,230.69061563125,230.79253838541666,59.0,77.0
1600,230.69061563125,230.80215373958333,56.0,73.0
1601,230.92138413125,231.21369089791668,54.0,76.0
1602,230.92138413125,231.22715239375,61.0,76.0
1603,230.92138413125,231.23196007083334,58.0,75.0
1604,230.92138413125,231.29061373125,39.0,77.0
1605,231.38292113125001,231.53965140416668,61.0,80.0
1606,231.38292113125001,231.55022829375,39.0,79.0
1607,231.38292113125001,231.62522805625,54.0,78.0
1608,231.38292113125001,231.65599718958333,58.0,83.0
1609,231.72907388125,231.88484261875,54.0,70.0
1610,231.72907388125,231.90215025625,58.0,76.0
1611,231.84445813125,232.095418875,39.0,78.0
1612,232.07522663125,232.38484103541666,54.0,81.0
1613,232.19061088125,232.395417925,39.0,78.0
1614,232.07522663125,232.41561016875,58.0,84.0
1615,232.53676363125,232.62426335416666,58.0,78.0
1616,232.53676363125,232.64253252708335,54.0,78.0
1617,232.76753213125,233.10214645625,59.0,79.0
1618,232.76753213125,233.1050310625,52.0,77.0
1619,232.76753213125,233.37137637291667,40.0,79.0
1620,233.22906913125001,233.4857990875,52.0,80.0
1621,233.22906913125001,233.710798375,56.0,83.0
1622,233.22906913125001,233.78195199583334,59.0,84.0
1623,233.69060613125,233.80022116875,52.0,74.0
1624,233.92137463125,234.2357967125,52.0,79.0
1625,233.92137463125,234.24925820833334,56.0,78.0
1626,233.92137463125,234.25695049166666,59.0,80.0
1627,234.61368013125,235.08675555625,54.0,76.0
1628,234.61368013125,235.10214012291667,39.0,81.0
1629,234.61368013125,235.10983240625,58.0,78.0
1630,235.30598563125,235.62329231875,56.0,78.0
1631,235.30598563125,235.63483074375,59.0,91.0
1632,235.30598563125,235.8857914875,44.0,83.0
1633,235.76752263125002,236.03963715416668,56.0,78.0
1634,235.76752263125002,236.064637075,59.0,75.0
1635,235.76752263125002,236.087713925,63.0,86.0
1636,235.99829113125,236.12425227083332,51.0,82.0
1637,236.22905963125,236.33002085,56.0,78.0
1638,236.45982813125,236.79732706250002,56.0,83.0
1639,236.45982813125,236.803096275,64.0,76.0
1640,236.45982813125,236.82136544791666,61.0,84.0
1641,236.92136513125,236.97328804375002,56.0,77.0
1642,236.45982813125,237.04155705833332,49.0,84.0
1643,236.92136513125,237.10501839583333,64.0,79.0
1644,236.92136513125,237.15982591458334,61.0,82.0
1645,237.15213363125,237.22521032291667,56.0,66.0
1646,237.38290213125,237.66174740208334,54.0,77.0
1647,237.38290213125,237.66847815,58.0,79.0
1648,237.61367063125002,237.87232365833333,49.0,71.0
1649,237.38290213125,237.90597739791667,42.0,78.0
1650,237.84443913125,238.01174629375,54.0,81.0
1651,237.84443913125,238.08674605625,61.0,84.0
1652,237.84443913125,238.09924601666668,58.0,91.0
1653,238.07520763125,238.17809192083334,49.0,78.0
1654,238.30597613125,238.5511676625,54.0,82.0
1655,238.30597613125,238.5627060875,59.0,82.0
1656,238.65212888125,238.77809002083333,63.0,82.0
1657,238.65212888125,238.77905155625,54.0,80.0
1658,238.65212888125,238.78385923333335,59.0,83.0
1659,238.30597613125,239.00597391458334,47.0,84.0
1660,238.99828163125,239.26366540625,54.0,79.0
1661,238.99828163125,239.27328076041667,63.0,81.0
1662,238.99828163125,239.29731914583334,59.0,82.0
1663,239.45981863125002,239.595395125,54.0,74.0
1664,239.69058713125,239.81750980625,54.0,78.0
1665,239.69058713125,240.02712452708334,59.0,77.0
1666,239.22905013125,240.033855275,47.0,76.0
1667,239.92135563125,240.06847055,54.0,78.0
1668,240.15212413125,240.39539259166668,52.0,77.0
1669,240.15212413125,240.41173869375,59.0,82.0
1670,240.15212413125,240.41462330000002,56.0,78.0
1671,240.49827688125,240.65019947708333,52.0,78.0
1672,240.49827688125,240.66366097291666,56.0,80.0
1673,240.49827688125,240.66943018541667,59.0,78.0
1674,240.15212413125,240.93289088958335,40.0,81.0
1675,240.84442963125,241.1011595875,52.0,80.0
1676,240.84442963125,241.12327490208332,56.0,86.0
1677,240.84442963125,241.13673639791668,59.0,84.0
1678,241.30596663125002,241.59538879166666,61.0,91.0
1679,241.30596663125002,241.59635032708334,54.0,81.0
1680,241.30596663125002,241.61077335833335,58.0,91.0
1681,241.53673513125,241.76269595416667,49.0,77.0
1682,241.07519813125,241.81365733125,42.0,80.0
1683,241.76750363125,241.82038807916666,61.0,71.0
1684,241.76750363125,241.85211874791668,58.0,79.0
1685,241.76750363125,241.86750331458333,54.0,81.0
1686,241.99827213125,242.24827133958334,51.0,83.0
1687,241.99827213125,242.26846358333333,54.0,79.0
1688,242.34442488125,242.44827070625,51.0,84.0
1689,242.34442488125,242.46846295,54.0,91.0
1690,241.99827213125,242.55788574375,39.0,81.0
1691,242.69057763125,242.88673085625,51.0,83.0
1692,242.69057763125,242.9126923125,54.0,91.0
1693,243.15211463125002,243.42999836666667,56.0,77.0
1694,243.15211463125002,243.44634446875,59.0,91.0
1695,243.49826738125,243.62038237916667,59.0,82.0
1696,243.38288313125,243.63288233958335,51.0,79.0
1697,242.92134613125,243.67518989791668,44.0,76.0
1698,243.61365163125,243.72999741666666,56.0,78.0
1699,243.84442013125,244.05595792291666,59.0,80.0
1700,243.84442013125,244.06268867083332,56.0,77.0
1701,244.19057288125,244.36364925625,52.0,83.0
1702,244.19057288125,244.37326461041667,56.0,86.0
1703,243.84442013125,244.54441791458333,40.0,77.0
1704,244.53672563125,244.74730188750002,52.0,86.0
1705,244.53672563125,244.81941704375,59.0,86.0
1706,244.99826263125001,245.29153093333335,54.0,86.0
1707,244.99826263125001,245.30403089375,58.0,91.0
1708,245.22903113125,245.52133789791668,49.0,70.0
1709,244.76749413125,245.55595317291667,42.0,79.0
1710,245.45979963125,245.58095309375,58.0,83.0
1711,245.45979963125,245.58768384166666,54.0,79.0
1712,245.69056813125,245.93479812708333,58.0,71.0
1713,245.69056813125,245.94441348125,54.0,72.0
1714,245.69056813125,246.11748985625002,39.0,82.0
1715,246.03672088125,246.18768194166668,54.0,78.0
1716,246.03672088125,246.20787418541667,59.0,80.0
1717,246.38287363125,246.58191146250002,54.0,78.0
1718,246.38287363125,246.63671898125,63.0,81.0
1719,246.84441063125,247.13287125625,56.0,79.0
1720,246.84441063125,247.16364038958335,59.0,83.0
1721,247.07517913125,247.30113995416667,51.0,78.0
1722,246.61364213125,247.33094755208333,44.0,78.0
1723,247.30594763125,247.43287030625,56.0,77.0
1724,247.30594763125,247.43383184166666,59.0,77.0
1725,247.53671613125002,247.77998459166668,52.0,77.0
1726,247.53671613125002,247.79633069375,59.0,82.0
1727,247.53671613125002,247.79921530000001,56.0,78.0
1728,247.88286888125,248.03479147708333,52.0,78.0
1729,247.88286888125,248.04825297291666,56.0,80.0
1730,247.88286888125,248.05402218541667,59.0,78.0
1731,247.53671613125002,248.31748288958335,40.0,81.0
1732,248.22902163125,248.4857515875,52.0,80.0
1733,248.22902163125,248.50786690208335,56.0,86.0
1734,248.22902163125,248.52132839791668,59.0,84.0
1735,248.69055863125,248.97998079166666,61.0,91.0
1736,248.69055863125,248.98094232708334,54.0,81.0
1737,248.69055863125,248.99536535833334,58.0,91.0
1738,248.92132713125,249.14728795416667,49.0,77.0
1739,248.45979013125,249.19824933125,42.0,80.0
1740,249.15209563125,249.20498007916666,61.0,71.0
1741,249.15209563125,249.23671074791667,58.0,79.0
1742,249.15209563125,249.25209531458333,54.0,81.0
1743,249.38286413125002,249.63286333958334,51.0,83.0
1744,249.38286413125002,249.65305558333333,54.0,79.0
1745,249.72901688125,249.83286270625,51.0,84.0
1746,249.72901688125,249.85305495,54.0,91.0
1747,249.38286413125002,249.94247774375,39.0,81.0
1748,250.07516963125,250.27132285625,51.0,83.0
1749,250.07516963125,250.2972843125,54.0,91.0
1750,250.53670663125,250.81459036666666,56.0,77.0
1751,250.53670663125,250.83093646875,59.0,91.0
1752,250.88285938125,251.00497437916667,59.0,82.0
1753,250.76747513125,251.01747433958334,51.0,79.0
1754,250.30593813125,251.05978189791668,44.0,76.0
1755,250.99824363125,251.11458941666666,56.0,78.0
1756,251.09824331458333,251.62516472291668,52.0,56.0
1757,251.1684354,251.65401078541666,56.0,77.0
1758,251.226127525,251.67516456458333,59.0,73.0
1759,251.25401205208334,251.73766436666668,64.0,73.0
1760,251.22131984791667,251.86843318333334,40.0,73.0
1761,252.01362503125,252.50593116458333,54.0,66.0
1762,252.18285526458334,252.5126619125,66.0,75.0
1763,252.07324022708335,252.51650805416668,58.0,72.0
1764,252.14535538333334,252.53862336875,61.0,72.0
1765,252.12997081666666,252.74246887708333,42.0,78.0
1766,252.89246840208332,253.98765724166668,54.0,67.0
1767,253.0434294625,254.02323405208332,47.0,75.0
1768,253.05400635208335,254.0357340125,63.0,77.0
1769,252.96554509375,254.04438783125,59.0,72.0
