,start,end,pitch,velocity
0,14.746560841666664,14.982861979166664,71.0,107.0
1,14.952040091666664,15.087313931249998,69.0,107.0
2,15.157519341666665,15.40238211458333,71.0,107.0
3,15.362998591666665,15.619847654166664,69.0,107.0
4,15.568477841666665,15.940052818749997,71.0,107.0
5,15.979436341666664,16.234573077083333,69.0,107.0
6,16.184915591666666,16.472586541666665,71.0,107.0
7,16.595874091666666,16.986284666666663,74.0,107.0
8,17.212311841666665,17.55477725833333,73.0,107.0
9,17.623270341666665,17.874982422916663,71.0,107.0
10,17.828749591666664,18.89039238333333,69.0,107.0
11,21.321896841666664,21.56162263333333,71.0,107.0
12,21.527376091666664,21.65408829583333,69.0,107.0
13,21.732855341666664,21.88011547083333,71.0,107.0
14,21.938334591666663,22.102717991666665,69.0,107.0
15,22.143813841666663,22.57360793958333,71.0,107.0
16,22.554772341666663,22.823607693749995,69.0,107.0
17,22.760251591666663,23.25168946458333,71.0,107.0
18,23.376689341666662,23.825319037499998,74.0,107.0
19,23.787647841666665,24.18148307083333,76.0,107.0
20,24.198606341666665,24.607852514583332,78.0,107.0
21,24.609564841666664,25.315043599999996,73.0,107.0
22,27.07531584166666,27.42805522083333,71.0,107.0
23,27.486274341666665,27.732849441666662,73.0,107.0
24,27.897232841666664,28.93319072708333,74.0,107.0
25,28.719149841666663,29.14551928541666,83.0,107.0
26,29.130108341666663,29.388669731249998,81.0,107.0
27,29.335587591666663,29.787641941666664,78.0,107.0
28,29.979422574999997,31.243119962499996,76.0,107.0
29,31.184900841666664,31.243119962499996,76.0,107.0
30,32.00681784166666,32.41777634166666,81.0,107.0
31,32.41777634166666,32.51880363958333,78.0,107.0
32,32.62325559166666,32.98626893333333,76.0,107.0
33,33.03421409166666,33.83558316666666,74.0,107.0
34,34.472568841666664,35.0958559,71.0,107.0
35,35.29448584166666,35.76195113541666,78.0,107.0
36,35.70544434166666,36.60612838749999,73.0,107.0
37,36.93831984166666,37.30818249166666,69.0,107.0
38,37.34927834166666,37.45715494791666,71.0,107.0
39,37.554757591666664,38.17119534166666,71.0,107.0
40,41.047904841666664,41.26194572708333,71.0,107.0
41,41.25338409166666,41.43831541666666,69.0,107.0
42,41.458863341666664,41.696876806249996,71.0,107.0
43,41.66434259166666,41.87667114999999,69.0,107.0
44,41.86982184166666,42.33043782708333,71.0,107.0
45,42.28078034166666,42.57187594583333,69.0,107.0
46,42.48625959166666,42.832149662499994,71.0,107.0
47,42.89721809166666,43.48797093541666,74.0,107.0
48,43.51365584166666,43.88865547291666,73.0,107.0
49,43.92461434166666,44.190025039583325,71.0,107.0
50,44.13009359166666,46.705433525,69.0,107.0
51,47.62324084166666,47.85611732499999,71.0,107.0
52,47.82872009166666,48.025637706249995,69.0,107.0
53,48.03419934166666,48.27392513333333,71.0,107.0
54,48.23967859166666,48.50166463541666,69.0,108.0
55,48.44515784166666,48.84584237916666,71.0,108.0
56,48.85611634166666,49.14892427291666,69.0,108.0
57,49.06159559166666,49.443444531249995,71.0,108.0
58,49.47255409166666,50.00680014166666,74.0,112.0
59,50.08899184166666,50.457142164583324,76.0,112.0
60,50.49995034166666,50.72426518958333,78.0,112.0
61,50.93830607499999,52.31330472291666,73.0,112.0
62,53.37665984166666,53.691728024999996,71.0,110.0
63,53.78761834166666,54.041042749999995,73.0,110.0
64,54.19857684166666,54.64206955624999,74.0,110.0
65,55.02049384166666,55.50850706041666,83.0,110.0
66,55.431452341666656,55.56158919999999,81.0,110.0
67,55.63693159166666,56.01364354999999,78.0,109.0
68,56.04789009166666,57.15919036874999,76.0,109.0
69,57.48624484166666,58.111244227083326,76.0,109.0
70,58.30816184166666,58.69343543541666,81.0,109.0
71,58.71912034166666,58.85268185416666,78.0,109.0
72,58.924599591666656,59.32014714791666,76.0,109.0
73,59.335558091666655,60.525625414583324,74.0,109.0
74,60.77391284166666,61.40576153541666,71.0,109.0
75,61.59582984166666,61.88692544583333,78.0,109.0
76,62.21226759166666,62.80815741666666,73.0,110.0
77,63.239663841666655,63.53589642708332,69.0,110.0
78,63.44514309166666,63.749937312499995,71.0,110.0
79,63.85610159166666,65.38692200416666,71.0,110.0
80,66.52733184166665,66.83897537083332,74.0,111.0
81,66.93829034166666,67.26192016041666,73.0,111.0
82,67.34924884166666,67.99822080624999,71.0,111.0
83,68.17116584166666,68.62322019166666,83.0,111.0
84,68.97767189791666,69.37664410833332,81.0,108.0
85,69.40404134166666,69.57013706874999,76.0,112.0
86,69.60952059166665,69.84924638333332,78.0,112.0
87,70.02047909166666,70.39034174166666,79.0,112.0
88,70.63691684166666,70.86465634374999,78.0,112.0
89,71.04787534166665,71.32013534791666,79.0,112.0
90,71.45883384166666,71.80301158541666,78.0,112.0
91,71.66431309166666,72.09581951666665,76.0,112.0
92,72.28075084166666,72.99307890833332,74.0,112.0
93,73.10266784166666,73.42287300624999,74.0,112.0
94,73.51362634166665,73.83040685208333,73.0,112.0
95,73.92458484166666,74.60951567499998,71.0,112.0
96,74.74650184166666,75.40574776874999,83.0,112.0
97,75.56841884166666,75.89889796874999,81.0,112.0
98,75.97937734166666,76.12321281666665,76.0,112.0
99,76.18485659166666,76.30300716041666,78.0,112.0
100,76.59581509166665,76.97766403124999,79.0,112.0
101,77.21225284166665,78.39375852916666,78.0,112.0
102,79.67800384166665,79.98964737083332,74.0,112.0
103,80.08896234166666,80.44341404791666,73.0,112.0
104,80.49992084166665,81.07697506874999,71.0,112.0
105,81.32183784166665,81.94683722708332,81.0,112.0
106,82.14375484166665,82.45539837083332,79.0,112.0
107,82.55471334166666,82.65916529375,76.0,112.0
108,82.76019259166665,83.01532932708332,78.0,112.0
109,83.17115109166666,83.55300003125,79.0,112.0
110,83.78758884166666,84.23279388333333,81.0,112.0
111,84.19854734166665,84.34409514374998,78.0,112.0
112,84.40402659166665,84.67457427083332,81.0,112.0
113,84.81498509166666,85.15916283541665,85.0,112.0
114,85.43142284166666,86.20025770208332,86.0,112.0
115,86.25333984166666,86.7225174625,83.0,112.0
116,86.66429834166665,86.94169532916665,81.0,112.0
117,86.86977759166666,87.65916037708332,76.0,112.0
118,87.89717384166666,88.32868026666665,83.0,112.0
119,88.30813234166665,88.56669373124998,81.0,112.0
120,88.51361159166666,89.35950117083333,76.0,112.0
121,89.54100784166666,89.92628143541666,73.0,112.0
122,89.95196634166666,90.21224005833332,74.0,112.0
123,90.15744559166666,90.87148598541665,73.0,112.0
124,90.77388334166666,92.68312803958332,71.0,112.0
125,119.95193684166665,120.16597772708332,71.0,108.0
126,120.15741609166665,120.34234741666666,69.0,108.0
127,120.36289534166666,120.60090880624999,71.0,108.0
128,120.56837459166665,120.78070314999998,69.0,108.0
129,120.77385384166665,121.23446982708332,71.0,108.0
130,121.18481234166666,121.47590794583331,69.0,108.0
131,121.39029159166665,121.73618166249999,71.0,108.0
132,121.80125009166665,122.39200293541666,74.0,108.0
133,122.41768784166665,122.79268747291665,73.0,109.0
134,122.82864634166665,123.09405703958332,71.0,109.0
135,123.03412559166665,125.60946552499999,69.0,109.0
136,126.52727284166664,126.76014932499999,71.0,109.0
137,126.73275209166665,126.92966970624998,69.0,109.0
138,126.93823134166665,127.17795713333332,71.0,109.0
139,127.14371059166665,127.40569663541665,69.0,109.0
140,127.34918984166664,127.74987437916666,71.0,109.0
141,127.76014834166665,128.05295627291665,69.0,109.0
142,127.96562759166665,128.34747653124998,71.0,109.0
143,128.37658609166664,128.91083214166665,74.0,109.0
144,128.99302384166666,129.3611741645833,76.0,109.0
145,129.40398234166665,129.62829718958332,78.0,109.0
146,129.842338075,131.21733672291666,73.0,109.0
147,132.28069184166665,132.59576002499998,71.0,109.0
148,132.69165034166664,132.94507474999997,73.0,108.0
149,133.10260884166664,133.54610155625,74.0,108.0
150,133.92452584166665,134.41253906041666,83.0,106.0
151,134.33548434166664,134.4656212,81.0,105.0
152,134.54096359166664,134.91767554999998,78.0,105.0
153,134.95192209166666,136.06322236875,76.0,104.0
154,136.39027684166666,137.01527622708332,76.0,101.0
155,137.21219384166665,137.59746743541666,81.0,98.0
156,137.62315234166664,137.75671385416666,78.0,97.0
157,137.82863159166664,138.22417914791666,76.0,96.0
158,138.23959009166666,139.42965741458332,74.0,96.0
159,139.67794484166666,140.30979353541665,71.0,99.0
160,140.49986184166664,140.79095744583333,78.0,99.0
161,141.11629959166666,141.71218941666666,73.0,99.0
162,142.14369584166664,142.43992842708332,69.0,99.0
163,142.34917509166664,142.65396931249998,71.0,99.0
164,142.76013359166666,144.29095400416665,71.0,98.0
165,145.43136384166664,145.7430073708333,74.0,96.0
166,145.84232234166666,146.16595216041665,73.0,95.0
167,146.25328084166665,146.90225280624998,71.0,95.0
168,147.07519784166664,147.52725219166663,83.0,94.0
169,147.88855320624998,148.1608132125,81.0,100.0
170,148.30807334166664,148.47416906874997,76.0,92.0
171,148.51355259166664,148.7532783833333,78.0,92.0
172,148.92451109166666,149.29437374166665,79.0,91.0
173,149.54094884166665,149.76868834374997,78.0,91.0
174,149.95190734166664,150.22416734791665,79.0,91.0
175,150.36286584166663,150.70704358541664,78.0,91.0
176,150.56834509166666,150.99985151666664,76.0,91.0
177,151.18478284166665,151.8971109083333,74.0,91.0
178,152.00669984166666,152.32690500624997,74.0,91.0
179,152.41765834166665,152.73443885208331,73.0,91.0
180,152.82861684166664,153.51354767499998,71.0,90.0
181,153.65053384166666,154.30977976875,83.0,90.0
182,154.47245084166664,154.80292996875,81.0,90.0
183,154.88340934166663,155.02724481666664,76.0,89.0
184,155.08888859166666,155.20703916041666,78.0,89.0
185,155.49984709166665,155.88169603125,79.0,89.0
186,156.11628484166664,157.29779052916663,78.0,89.0
187,158.58203584166665,158.89367937083333,74.0,91.0
188,158.99299434166664,159.34744604791663,73.0,91.0
189,159.40395284166664,159.98100706875,71.0,92.0
190,160.22586984166665,160.8508692270833,81.0,93.0
191,161.04778684166664,161.3594303708333,79.0,94.0
192,161.45874534166666,161.56319729374997,76.0,94.0
193,161.66422459166665,161.91936132708332,78.0,94.0
194,162.07518309166664,162.45703203124998,79.0,94.0
195,162.69162084166663,163.1368258833333,81.0,94.0
196,163.10257934166665,163.24812714374997,78.0,94.0
197,163.30805859166665,163.57860627083332,81.0,94.0
198,163.71901709166664,164.06319483541665,85.0,94.0
199,164.33545484166663,165.10428970208332,86.0,94.0
200,165.15737184166665,165.62654946249998,83.0,94.0
201,165.56833034166664,165.84572732916664,81.0,94.0
202,165.77380959166663,166.5631923770833,76.0,94.0
203,166.80120584166664,167.23271226666665,83.0,94.0
204,167.21216434166664,167.47072573124998,81.0,94.0
205,167.41764359166663,168.2635331708333,76.0,94.0
206,168.44503984166664,168.83031343541666,73.0,94.0
207,168.85599834166663,169.11627205833332,74.0,94.0
208,169.06147759166663,169.77551798541666,73.0,94.0
209,169.67791534166665,171.58716003958332,71.0,94.0
210,171.73270784166664,172.10770747291664,74.0,95.0
211,172.14366634166663,172.57003578541665,73.0,95.0
212,172.55462484166665,173.18818586249998,71.0,96.0
213,173.37654184166664,174.15393833749997,83.0,96.0
214,174.19845884166665,174.6539378458333,81.0,96.0
215,174.60941734166664,174.7618144520833,76.0,96.0
216,174.81489659166664,175.14537571875,78.0,96.0
217,175.22585509166663,175.66934780625,79.0,96.0
218,175.84229284166665,176.13167611874997,78.0,96.0
219,176.25325134166664,176.66420984166663,79.0,96.0
220,176.66420984166663,176.99297664166664,78.0,97.0
221,176.86968909166663,177.4227707395833,76.0,98.0
222,177.48612684166665,178.12996182499998,74.0,98.0
223,178.30804384166663,178.70530372499996,74.0,99.0
224,178.71900234166665,179.13509782291663,73.0,99.0
225,179.12996084166664,179.8885217395833,71.0,99.0
226,179.95187784166663,180.5666032645833,83.0,99.0
227,180.77379484166664,181.11283560416663,81.0,99.0
228,181.18475334166664,181.31317787291664,76.0,99.0
229,181.39023259166663,181.6556432895833,78.0,99.0
230,181.80119109166665,182.2515331145833,79.0,99.0
231,182.41762884166664,184.16420246666664,78.0,99.0
232,184.88337984166665,185.4056396020833,74.0,99.0
233,185.29433834166664,185.67447495416664,73.0,99.0
234,185.70529684166664,186.21385798541664,71.0,99.0
235,186.52721384166665,187.08885712499998,83.0,99.0
236,187.34913084166664,187.55974707291665,81.0,99.0
237,187.76008934166663,187.92960972291664,76.0,99.0
238,187.96556859166665,188.23269161666664,78.0,99.0
239,188.37652709166665,188.7395404333333,79.0,99.0
240,188.99296484166663,189.43132057499997,81.0,99.0
241,189.40392334166665,189.53406019999997,78.0,99.0
242,189.60940259166665,189.73782712291663,81.0,99.0
243,190.02036109166664,190.33200462083332,85.0,99.0
244,190.43131959166664,191.44330489791665,86.0,99.0
245,191.45871584166665,191.90220855624997,83.0,99.0
246,191.86967434166664,192.11111246041665,81.0,99.0
247,192.07515359166663,192.8131665645833,76.0,99.0
248,193.10254984166664,193.5220699770833,83.0,100.0
249,193.51350834166664,193.76350809583332,81.0,100.0
250,193.71898759166663,194.52035666666663,76.0,101.0
251,194.54090459166665,194.9809726520833,73.0,101.0
252,194.95186309166664,195.23953404166664,74.0,101.0
253,195.36282159166663,195.9261772020833,73.0,101.0
254,195.77378009166665,197.2617923270833,71.0,101.0
255,198.03405184166664,198.51350342499998,83.0,106.0
256,198.44501034166663,198.70185940416664,81.0,86.0
257,198.65048959166663,199.15391375416664,76.0,86.0
258,199.67788584166664,200.10939226666665,83.0,71.0
259,200.08884434166663,200.32514547916665,81.0,69.0
260,200.29432359166665,201.16247342291663,76.0,69.0
261,201.32171984166663,201.62137708124996,85.0,67.0
262,201.73267834166663,201.8542535645833,86.0,65.0
263,201.93815759166665,202.63678704166665,85.0,64.0
264,202.76007459166664,205.48096232708332,83.0,64.0
