,start,end,pitch,velocity
0,2.56,6.508333333333334,53.0,52.0
1,2.56,6.568333333333333,48.0,52.0
2,2.56,6.585000000000001,41.0,56.0
3,2.56,6.718333333333334,56.0,52.0
4,2.56,6.746666666666667,60.0,62.0
5,2.56,6.7700000000000005,63.0,59.0
6,2.56,6.795000000000001,55.0,55.0
7,7.36,8.925,46.0,41.0
8,7.36,8.935,58.0,53.0
9,7.36,8.938333333333334,51.0,66.0
10,7.36,8.951666666666668,55.0,57.0
11,7.36,8.955,39.0,50.0
12,7.36,8.968333333333334,63.0,63.0
13,12.16,13.690000000000001,53.0,59.0
14,12.16,14.000000000000002,48.0,57.0
15,12.16,14.536666666666667,41.0,59.0
16,12.16,14.57,55.0,59.0
17,12.16,14.57,56.0,68.0
18,12.16,14.588333333333335,63.0,63.0
19,12.16,14.595,60.0,62.0
20,16.96,21.715,58.0,63.0
21,16.96,21.728333333333335,55.0,58.0
22,16.96,21.735000000000003,62.0,63.0
23,16.96,21.736666666666668,51.0,67.0
24,16.96,21.745,39.0,58.0
25,22.560000000000002,23.09,53.0,75.0
26,22.96,23.545,55.0,64.0
27,23.360000000000003,23.945,53.0,38.0
28,21.76,23.970000000000002,41.0,85.0
29,22.16,24.00166666666667,48.0,41.0
30,23.76,24.223333333333336,55.0,44.0
31,22.96,24.965,56.0,93.0
32,22.96,24.991666666666667,60.0,86.0
33,24.96,25.96166666666667,53.0,58.0
34,24.16,26.145000000000003,38.0,72.0
35,25.76,26.305000000000003,50.0,26.0
36,25.360000000000003,26.576666666666668,62.0,88.0
37,25.360000000000003,26.596666666666668,58.0,83.0
38,26.16,26.663333333333334,53.0,60.0
39,26.560000000000002,28.045,44.0,89.0
40,27.360000000000003,28.241666666666667,55.0,59.0
41,28.16,28.818333333333335,44.0,48.0
42,28.560000000000002,29.578333333333337,55.0,38.0
43,27.76,29.83666666666667,56.0,90.0
44,27.76,29.905,63.0,82.0
45,27.76,30.003333333333334,60.0,64.0
46,29.76,30.258333333333336,55.0,55.0
47,28.96,30.361666666666668,44.0,71.0
48,30.560000000000002,30.91166666666667,44.0,66.0
49,30.96,31.363333333333337,55.0,53.0
50,30.160000000000004,31.383333333333336,63.0,83.0
51,30.160000000000004,31.398333333333337,56.0,117.0
52,30.160000000000004,31.463333333333335,60.0,89.0
53,32.160000000000004,32.84666666666667,53.0,57.0
54,32.56,33.17166666666667,55.0,77.0
55,32.96,33.49666666666667,53.0,48.0
56,31.76,33.565000000000005,48.0,55.0
57,31.360000000000003,33.63166666666667,41.0,90.0
58,33.36,33.788333333333334,55.0,50.0
59,32.56,33.805,56.0,83.0
60,32.56,33.891666666666666,65.0,64.0
61,32.56,33.95333333333333,60.0,70.0
62,34.56,35.25,50.0,39.0
63,33.760000000000005,35.70666666666667,38.0,78.0
64,35.36,35.85,50.0,44.0
65,34.96,36.12833333333334,53.0,83.0
66,35.760000000000005,36.163333333333334,56.0,52.0
67,34.96,36.17333333333334,60.0,89.0
68,36.96,37.57166666666667,55.0,47.0
69,36.160000000000004,38.43666666666667,44.0,100.0
70,38.160000000000004,39.07833333333333,55.0,48.0
71,37.36,39.568333333333335,56.0,97.0
72,37.36,39.58166666666667,63.0,74.0
73,37.36,39.59166666666667,60.0,82.0
74,39.36,39.74166666666667,55.0,38.0
75,38.56,39.92,44.0,92.0
76,40.160000000000004,40.645,44.0,89.0
77,40.56,41.00166666666667,55.0,61.0
78,39.760000000000005,41.00666666666667,63.0,96.0
79,39.760000000000005,41.03333333333334,56.0,112.0
80,39.760000000000005,41.050000000000004,60.0,97.0
81,41.760000000000005,42.33833333333334,48.0,42.0
82,42.160000000000004,42.70666666666667,53.0,45.0
83,40.96,42.88,41.0,78.0
84,42.56,42.99666666666667,48.0,55.0
85,42.160000000000004,43.156666666666666,56.0,100.0
86,42.160000000000004,43.343333333333334,60.0,89.0
87,42.96,43.553333333333335,53.0,76.0
88,44.160000000000004,45.07333333333334,53.0,55.0
89,43.36,45.16166666666667,46.0,100.0
90,45.36,45.788333333333334,53.0,69.0
91,44.96,45.885000000000005,58.0,96.0
92,44.56,46.138333333333335,62.0,117.0
93,46.56,47.178333333333335,55.0,72.0
94,46.160000000000004,47.403333333333336,50.0,75.0
95,45.760000000000005,47.56,43.0,74.0
96,47.36000000000001,48.150000000000006,58.0,65.0
97,46.96,48.16666666666667,62.0,100.0
98,47.760000000000005,48.49666666666667,55.0,68.0
99,49.36000000000001,49.45,55.0,34.0
100,48.56,49.80666666666667,43.0,62.0
101,48.96,49.80666666666667,48.0,69.0
102,48.160000000000004,49.82166666666667,36.0,86.0
103,49.760000000000005,50.65833333333334,60.0,85.0
104,50.160000000000004,50.66166666666667,55.0,81.0
105,49.36000000000001,50.68333333333334,64.0,97.0
106,50.96,51.945,48.0,56.0
107,50.56,52.705000000000005,41.0,74.0
108,52.160000000000004,52.928333333333335,48.0,41.0
109,51.36000000000001,52.97166666666667,53.0,58.0
110,52.56,52.98833333333334,56.0,93.0
111,51.760000000000005,53.038333333333334,60.0,100.0
112,53.760000000000005,54.27333333333333,55.0,73.0
113,53.36000000000001,54.35666666666667,50.0,72.0
114,54.56,54.68333333333334,50.0,70.0
115,52.96,54.71,43.0,72.0
116,54.160000000000004,55.29833333333334,62.0,93.0
117,54.160000000000004,55.37666666666667,58.0,93.0
118,54.96,55.41666666666667,55.0,79.0
119,56.160000000000004,56.723333333333336,48.0,86.0
120,56.56,57.42166666666667,53.0,112.0
121,55.36000000000001,57.61833333333334,36.0,72.0
122,56.96,57.65833333333334,48.0,73.0
123,55.760000000000005,57.760000000000005,43.0,51.0
124,57.36000000000001,57.760000000000005,55.0,96.0
125,57.760000000000005,58.15666666666667,36.0,63.0
126,57.760000000000005,58.163333333333334,63.0,93.0
127,57.760000000000005,58.16666666666667,43.0,65.0
128,57.760000000000005,58.17166666666667,67.0,76.0
129,58.160000000000004,58.17166666666667,67.0,38.0
130,57.760000000000005,58.17333333333334,48.0,86.0
131,57.760000000000005,58.18166666666667,60.0,83.0
132,60.760000000000005,61.010000000000005,60.0,72.0
133,60.96,61.23500000000001,63.0,93.0
134,60.56,61.45666666666667,56.0,83.0
135,61.160000000000004,61.50166666666667,60.0,78.0
136,61.56,61.64,56.0,26.0
137,61.56,61.77333333333334,63.0,72.0
138,61.36000000000001,61.818333333333335,68.0,127.0
139,60.160000000000004,62.03,44.0,112.0
140,61.96,62.19666666666667,63.0,74.0
141,61.760000000000005,62.315000000000005,60.0,89.0
142,62.36000000000001,62.525000000000006,63.0,96.0
143,62.160000000000004,62.53666666666667,68.0,93.0
144,62.96,63.20666666666667,62.0,66.0
145,63.160000000000004,63.42,65.0,68.0
146,63.56,63.71833333333334,65.0,66.0
147,63.36000000000001,63.84333333333334,62.0,85.0
148,62.760000000000005,63.905,58.0,92.0
149,62.56,64.07333333333334,46.0,107.0
150,63.96,64.13833333333334,65.0,46.0
151,63.760000000000005,64.29333333333334,70.0,112.0
152,64.36,64.55833333333334,65.0,58.0
153,64.16000000000001,64.65,62.0,69.0
154,64.56,64.88166666666667,70.0,99.0
155,64.76,64.94333333333334,65.0,85.0
156,65.56,65.80333333333334,64.0,72.0
157,65.36,65.86,60.0,89.0
158,65.76,66.03500000000001,67.0,89.0
159,65.96000000000001,66.24000000000001,64.0,85.0
160,66.36,66.565,64.0,69.0
161,66.16000000000001,66.61,72.0,102.0
162,66.56,66.795,67.0,76.0
163,66.96000000000001,67.18166666666667,67.0,88.0
164,64.96000000000001,67.21166666666667,48.0,79.0
165,66.76,67.22833333333334,64.0,81.0
166,65.16000000000001,67.34833333333334,55.0,70.0
167,67.16000000000001,67.45166666666667,72.0,93.0
168,67.76,68.11166666666666,60.0,85.0
169,67.96000000000001,68.19666666666667,64.0,78.0
170,68.16000000000001,68.36333333333334,67.0,83.0
171,68.36,68.625,64.0,85.0
172,67.56,68.67333333333333,55.0,56.0
173,67.36,68.77666666666667,48.0,82.0
174,68.56,68.99333333333334,72.0,107.0
175,68.76,69.01666666666667,64.0,78.0
176,68.96000000000001,69.21000000000001,67.0,67.0
177,69.16000000000001,69.47833333333334,64.0,81.0
178,69.36,69.62,67.0,78.0
179,69.56,69.72166666666668,72.0,88.0
180,70.36,70.61,60.0,75.0
181,70.56,70.76166666666667,63.0,93.0
182,70.76,70.99833333333333,60.0,82.0
183,70.16000000000001,71.16166666666668,56.0,89.0
184,69.96000000000001,71.17833333333334,51.0,63.0
185,70.96000000000001,71.24833333333333,68.0,117.0
186,71.16000000000001,71.41833333333334,60.0,78.0
187,69.76,71.49833333333333,44.0,72.0
188,71.36,71.64166666666667,63.0,90.0
189,71.76,72.01,60.0,77.0
190,71.56,72.01833333333333,68.0,93.0
191,71.96000000000001,72.08833333333334,63.0,117.0
192,72.36,72.55166666666668,53.0,60.0
193,72.56,72.77833333333334,58.0,69.0
194,72.76,73.00166666666667,53.0,78.0
195,72.96000000000001,73.20833333333334,58.0,77.0
196,73.16000000000001,73.43333333333334,53.0,82.0
197,73.56,73.84333333333333,53.0,85.0
198,73.36,73.88833333333334,62.0,99.0
199,73.76,73.98666666666666,58.0,86.0
200,72.16000000000001,74.44333333333334,46.0,100.0
201,73.96000000000001,74.465,53.0,86.0
202,74.36,74.50500000000001,58.0,107.0
203,74.16000000000001,74.52166666666668,62.0,90.0
204,75.16000000000001,75.40833333333333,55.0,72.0
205,75.36,75.58500000000001,60.0,85.0
206,75.56,75.81500000000001,55.0,82.0
207,75.96000000000001,76.19666666666667,55.0,75.0
208,75.76,76.35833333333333,64.0,97.0
209,76.16000000000001,76.41166666666668,60.0,70.0
210,76.36,76.60166666666667,55.0,86.0
211,76.56,76.79,60.0,92.0
212,74.56,76.80166666666668,36.0,71.0
213,74.76,76.92333333333333,43.0,82.0
214,74.96000000000001,76.935,48.0,83.0
215,76.76,77.07166666666667,55.0,93.0
216,77.56,77.80333333333334,55.0,67.0
217,77.76,77.98166666666667,60.0,86.0
218,77.96000000000001,78.19833333333334,55.0,88.0
219,76.96000000000001,78.34166666666667,36.0,89.0
220,77.36,78.385,48.0,86.0
221,77.16000000000001,78.41833333333334,43.0,75.0
222,78.16000000000001,78.42666666666668,64.0,112.0
223,78.36,78.59833333333334,55.0,78.0
224,78.56,78.77000000000001,60.0,90.0
225,78.76,79.05166666666668,55.0,83.0
226,78.96000000000001,79.28166666666667,64.0,97.0
227,79.16000000000001,79.29333333333334,60.0,93.0
228,79.96000000000001,80.19666666666667,53.0,71.0
229,80.16000000000001,80.36500000000001,56.0,88.0
230,80.36,80.64833333333334,53.0,82.0
231,79.36,80.80666666666667,37.0,71.0
232,79.56,80.81166666666667,44.0,57.0
233,80.56,80.875,61.0,107.0
234,80.76,80.96000000000001,53.0,69.0
235,79.76,81.10666666666667,49.0,85.0
236,80.96000000000001,81.14666666666668,56.0,83.0
237,81.16000000000001,81.52000000000001,53.0,88.0
238,81.36,81.66000000000001,61.0,100.0
239,81.56,81.68,56.0,99.0
240,82.36,82.61833333333334,55.0,72.0
241,82.56,82.79,58.0,89.0
242,82.76,83.06833333333334,55.0,79.0
243,82.16000000000001,83.24166666666667,51.0,71.0
244,81.96000000000001,83.26166666666667,46.0,45.0
245,82.96000000000001,83.30166666666668,63.0,112.0
246,83.16000000000001,83.34833333333334,58.0,79.0
247,81.76,83.40166666666667,39.0,76.0
248,83.36,83.74666666666667,55.0,88.0
249,83.56,83.75666666666667,58.0,88.0
250,83.76,84.07666666666667,63.0,96.0
251,83.96000000000001,84.095,58.0,102.0
252,84.76,85.00166666666667,55.0,64.0
253,84.96000000000001,85.18666666666667,60.0,69.0
254,85.16000000000001,85.46166666666667,55.0,79.0
255,85.36,85.76,64.0,112.0
256,85.56,85.79166666666667,55.0,79.0
257,84.16000000000001,85.82333333333334,36.0,75.0
258,84.36,85.855,43.0,63.0
259,85.76,85.965,60.0,81.0
260,84.56,86.07166666666667,48.0,76.0
261,85.96000000000001,86.33500000000001,55.0,85.0
262,86.16000000000001,86.48166666666667,64.0,93.0
263,86.36,86.55000000000001,60.0,102.0
264,87.16000000000001,87.42166666666667,57.0,72.0
265,87.36,87.60833333333333,60.0,90.0
266,87.56,87.82833333333333,57.0,83.0
267,87.76,88.08000000000001,65.0,99.0
268,86.56,88.20666666666668,41.0,69.0
269,87.96000000000001,88.21333333333334,57.0,82.0
270,86.76,88.32333333333334,48.0,75.0
271,86.96000000000001,88.44166666666668,53.0,79.0
272,88.16000000000001,88.52666666666667,60.0,79.0
273,88.36,88.81666666666668,57.0,89.0
274,88.76,88.88166666666667,60.0,82.0
275,88.56,88.88166666666667,65.0,81.0
276,89.56,89.80666666666667,60.0,73.0
277,89.76,89.98833333333334,63.0,100.0
278,89.96000000000001,90.25,60.0,89.0
279,89.36,90.52000000000001,56.0,72.0
280,90.16000000000001,90.54333333333334,68.0,127.0
281,89.16000000000001,90.59166666666667,51.0,33.0
282,90.36,90.60166666666667,63.0,99.0
283,88.96000000000001,90.715,44.0,81.0
284,90.56,90.79166666666667,60.0,93.0
285,90.76,91.21166666666667,68.0,112.0
286,90.96000000000001,91.25500000000001,63.0,117.0
287,91.16000000000001,91.31666666666668,60.0,99.0
288,91.76,92.055,55.0,66.0
289,91.96000000000001,92.15333333333334,58.0,82.0
290,92.36,92.5,58.0,92.0
291,92.16000000000001,92.52000000000001,55.0,75.0
292,91.56,92.98833333333334,50.0,59.0
293,91.36,93.08666666666667,43.0,77.0
294,92.96000000000001,93.66833333333334,58.0,88.0
295,92.56,93.72666666666667,62.0,99.0
296,93.36,93.84666666666668,55.0,79.0
297,94.56,95.15333333333334,48.0,83.0
298,95.36,96.04833333333335,48.0,39.0
299,93.76,96.05833333333334,36.0,74.0
300,94.16000000000001,96.06166666666667,43.0,50.0
301,95.76,96.10166666666667,63.0,89.0
302,94.96000000000001,96.16000000000001,55.0,93.0
303,96.19166666666668,96.67500000000001,48.0,86.0
304,96.18833333333333,96.7,43.0,86.0
305,96.18,96.71000000000001,67.0,92.0
306,96.19500000000001,96.72500000000001,36.0,66.0
307,96.17833333333334,96.72833333333334,60.0,89.0
308,96.185,96.73166666666667,72.0,72.0
309,97.36,97.95500000000001,48.0,43.0
310,97.36,97.985,60.0,85.0
311,97.36,97.98833333333334,55.0,70.0
312,97.36,98.00333333333334,36.0,61.0
313,97.36,98.03666666666668,63.0,72.0
314,99.36,99.89,53.0,75.0
315,99.76,100.34500000000001,55.0,64.0
316,100.16000000000001,100.745,53.0,38.0
317,98.56,100.77000000000001,41.0,85.0
318,98.96000000000001,100.80166666666668,48.0,41.0
319,100.56,101.02333333333334,55.0,44.0
320,99.76,101.765,56.0,93.0
321,99.76,101.79166666666667,60.0,86.0
322,101.76,102.76166666666667,53.0,58.0
323,100.96000000000001,102.94500000000001,38.0,72.0
324,102.56,103.105,50.0,26.0
325,102.16000000000001,103.37666666666668,62.0,88.0
326,102.16000000000001,103.39666666666668,58.0,83.0
327,102.96000000000001,103.46333333333334,53.0,60.0
328,103.36000000000001,104.84500000000001,44.0,89.0
329,104.16000000000001,105.04166666666667,55.0,59.0
330,104.96000000000001,105.61833333333334,44.0,48.0
331,105.36000000000001,106.37833333333334,55.0,38.0
332,104.56,106.63666666666667,56.0,90.0
333,104.56,106.70500000000001,63.0,82.0
334,104.56,106.80333333333334,60.0,64.0
335,106.56,107.05833333333334,55.0,55.0
336,105.76,107.16166666666668,44.0,71.0
337,107.36000000000001,107.71166666666667,44.0,66.0
338,107.76,108.16333333333334,55.0,53.0
339,106.96000000000001,108.18333333333334,63.0,83.0
340,106.96000000000001,108.19833333333334,56.0,117.0
341,106.96000000000001,108.26333333333334,60.0,89.0
342,108.96000000000001,109.64666666666668,53.0,57.0
343,109.36000000000001,109.97166666666668,55.0,77.0
344,109.76,110.29666666666667,53.0,48.0
345,108.56,110.36500000000001,48.0,55.0
346,108.16000000000001,110.43166666666667,41.0,90.0
347,110.16000000000001,110.58833333333334,55.0,50.0
348,109.36000000000001,110.605,56.0,83.0
349,109.36000000000001,110.69166666666668,65.0,64.0
350,109.36000000000001,110.75333333333334,60.0,70.0
351,111.36000000000001,112.05000000000001,50.0,39.0
352,110.56,112.50666666666667,38.0,78.0
353,112.16000000000001,112.65,50.0,44.0
354,111.76,112.92833333333334,53.0,83.0
355,112.56,112.96333333333334,56.0,52.0
356,111.76,112.97333333333334,60.0,89.0
357,113.76,114.37166666666667,55.0,47.0
358,112.96000000000001,115.23666666666668,44.0,100.0
359,114.96000000000001,115.87833333333334,55.0,48.0
360,114.16000000000001,116.36833333333334,56.0,97.0
361,114.16000000000001,116.38166666666667,63.0,74.0
362,114.16000000000001,116.39166666666668,60.0,82.0
363,116.16000000000001,116.54166666666667,55.0,38.0
364,115.36000000000001,116.72000000000001,44.0,92.0
365,116.96000000000001,117.44500000000001,44.0,89.0
366,117.36000000000001,117.80166666666668,55.0,61.0
367,116.56,117.80666666666667,63.0,96.0
368,116.56,117.83333333333334,56.0,112.0
369,116.56,117.85000000000001,60.0,97.0
370,118.56,119.13833333333334,48.0,42.0
371,118.96000000000001,119.50666666666667,53.0,45.0
372,117.76,119.68,41.0,78.0
373,119.36000000000001,119.79666666666668,48.0,55.0
374,118.96000000000001,119.95666666666668,56.0,100.0
375,118.96000000000001,120.14333333333335,60.0,89.0
376,119.76,120.35333333333334,53.0,76.0
377,120.96000000000001,121.87333333333333,53.0,55.0
378,120.16000000000001,121.96166666666667,46.0,100.0
379,122.16000000000001,122.58833333333334,53.0,69.0
380,121.76,122.685,58.0,96.0
381,121.36000000000001,122.93833333333335,62.0,117.0
382,123.36000000000001,123.97833333333334,55.0,72.0
383,122.96000000000001,124.20333333333335,50.0,75.0
384,122.56,124.36000000000001,43.0,74.0
385,124.16000000000001,124.95,58.0,65.0
386,123.76,124.96666666666667,62.0,100.0
387,124.56,125.29666666666668,55.0,68.0
388,126.16000000000001,126.25000000000001,55.0,34.0
389,125.36000000000001,126.60666666666667,43.0,62.0
390,125.76,126.60666666666667,48.0,69.0
391,124.96000000000001,126.62166666666667,36.0,86.0
392,126.56,127.45833333333334,60.0,85.0
393,126.96000000000001,127.46166666666667,55.0,81.0
394,126.16000000000001,127.48333333333335,64.0,97.0
395,127.76,128.745,48.0,56.0
396,127.36000000000001,129.505,41.0,74.0
397,128.96,129.72833333333335,48.0,41.0
398,128.16,129.77166666666668,53.0,58.0
399,129.36,129.78833333333336,56.0,93.0
400,128.56,129.83833333333334,60.0,100.0
401,130.56,131.07333333333335,55.0,73.0
402,130.16,131.15666666666667,50.0,72.0
403,131.36,131.48333333333335,50.0,70.0
404,129.76000000000002,131.51000000000002,43.0,72.0
405,130.96,132.09833333333333,62.0,93.0
406,130.96,132.17666666666668,58.0,93.0
407,131.76000000000002,132.21666666666667,55.0,79.0
408,132.96,133.52333333333334,48.0,86.0
409,133.36,134.22166666666666,53.0,112.0
410,132.16,134.41833333333335,36.0,72.0
411,133.76000000000002,134.45833333333334,48.0,73.0
412,132.56,134.56,43.0,51.0
413,134.16,134.56,55.0,96.0
414,134.59666666666666,135.10500000000002,48.0,81.0
415,134.6016666666667,135.11666666666667,67.0,88.0
416,134.60000000000002,135.11833333333334,60.0,88.0
417,134.595,135.1316666666667,43.0,69.0
418,134.60666666666668,135.14666666666668,72.0,81.0
419,134.60500000000002,135.19166666666666,36.0,62.0
420,137.56,137.81,60.0,72.0
421,137.76000000000002,138.035,63.0,93.0
422,137.36,138.2566666666667,56.0,83.0
423,137.96,138.30166666666668,60.0,78.0
424,138.36,138.44,56.0,26.0
425,138.36,138.57333333333335,63.0,72.0
426,138.16,138.61833333333334,68.0,127.0
427,136.96,138.83,44.0,112.0
428,138.76000000000002,138.99666666666667,63.0,74.0
429,138.56,139.115,60.0,89.0
430,139.16,139.32500000000002,63.0,96.0
431,138.96,139.33666666666667,68.0,93.0
432,139.76000000000002,140.0066666666667,62.0,66.0
433,139.96,140.22,65.0,68.0
434,140.36,140.51833333333335,65.0,66.0
435,140.16,140.64333333333335,62.0,85.0
436,139.56,140.705,58.0,92.0
437,139.36,140.87333333333333,46.0,107.0
438,140.76000000000002,140.93833333333333,65.0,46.0
439,140.56,141.09333333333333,70.0,112.0
440,141.16,141.35833333333335,65.0,58.0
441,140.96,141.45000000000002,62.0,69.0
442,141.36,141.68166666666667,70.0,99.0
443,141.56,141.74333333333334,65.0,85.0
444,142.36,142.60333333333335,64.0,72.0
445,142.16,142.66,60.0,89.0
446,142.56,142.835,67.0,89.0
447,142.76000000000002,143.04000000000002,64.0,85.0
448,143.16,143.365,64.0,69.0
449,142.96,143.41,72.0,102.0
450,143.36,143.595,67.0,76.0
451,143.76000000000002,143.98166666666668,67.0,88.0
452,141.76000000000002,144.01166666666668,48.0,79.0
453,143.56,144.02833333333334,64.0,81.0
454,141.96,144.14833333333334,55.0,70.0
455,143.96,144.25166666666667,72.0,93.0
456,144.56,144.9116666666667,60.0,85.0
457,144.76000000000002,144.99666666666667,64.0,78.0
458,144.96,145.16333333333336,67.0,83.0
459,145.16,145.425,64.0,85.0
460,144.36,145.47333333333333,55.0,56.0
461,144.16,145.57666666666668,48.0,82.0
462,145.36,145.79333333333335,72.0,107.0
463,145.56,145.81666666666666,64.0,78.0
464,145.76000000000002,146.01000000000002,67.0,67.0
465,145.96,146.27833333333334,64.0,81.0
466,146.16,146.42000000000002,67.0,78.0
467,146.36,146.52166666666668,72.0,88.0
468,147.16,147.41,60.0,75.0
469,147.36,147.56166666666667,63.0,93.0
470,147.56,147.79833333333335,60.0,82.0
471,146.96,147.96166666666667,56.0,89.0
472,146.76000000000002,147.97833333333335,51.0,63.0
473,147.76000000000002,148.04833333333335,68.0,117.0
474,147.96,148.21833333333333,60.0,78.0
475,146.56,148.29833333333335,44.0,72.0
476,148.16,148.44166666666666,63.0,90.0
477,148.56,148.81,60.0,77.0
478,148.36,148.81833333333336,68.0,93.0
479,148.76000000000002,148.88833333333335,63.0,117.0
480,149.16,149.3516666666667,53.0,60.0
481,149.36,149.57833333333335,58.0,69.0
482,149.56,149.80166666666668,53.0,78.0
483,149.76000000000002,150.00833333333335,58.0,77.0
484,149.96,150.23333333333335,53.0,82.0
485,150.36,150.64333333333335,53.0,85.0
486,150.16,150.68833333333333,62.0,99.0
487,150.56,150.7866666666667,58.0,86.0
488,148.96,151.24333333333334,46.0,100.0
489,150.76000000000002,151.26500000000001,53.0,86.0
490,151.16,151.305,58.0,107.0
491,150.96,151.3216666666667,62.0,90.0
492,151.96,152.20833333333334,55.0,72.0
493,152.16,152.38500000000002,60.0,85.0
494,152.36,152.615,55.0,82.0
495,152.76000000000002,152.99666666666667,55.0,75.0
496,152.56,153.15833333333333,64.0,97.0
497,152.96,153.21166666666667,60.0,70.0
498,153.16,153.40166666666667,55.0,86.0
499,153.36,153.59,60.0,92.0
500,151.36,153.6016666666667,36.0,71.0
501,151.56,153.72333333333333,43.0,82.0
502,151.76000000000002,153.735,48.0,83.0
503,153.56,153.87166666666667,55.0,93.0
504,154.36,154.60333333333335,55.0,67.0
505,154.56,154.78166666666667,60.0,86.0
506,154.76000000000002,154.99833333333333,55.0,88.0
507,153.76000000000002,155.14166666666668,36.0,89.0
508,154.16,155.185,48.0,86.0
509,153.96,155.21833333333333,43.0,75.0
510,154.96,155.2266666666667,64.0,112.0
511,155.16,155.39833333333334,55.0,78.0
512,155.36,155.57000000000002,60.0,90.0
513,155.56,155.8516666666667,55.0,83.0
514,155.76000000000002,156.08166666666668,64.0,97.0
515,155.96,156.09333333333333,60.0,93.0
516,156.76000000000002,156.99666666666667,53.0,71.0
517,156.96,157.16500000000002,56.0,88.0
518,157.16,157.44833333333335,53.0,82.0
519,156.16,157.60666666666668,37.0,71.0
520,156.36,157.61166666666668,44.0,57.0
521,157.36,157.675,61.0,107.0
522,157.56,157.76000000000002,53.0,69.0
523,156.56,157.90666666666667,49.0,85.0
524,157.76000000000002,157.9466666666667,56.0,83.0
525,157.96,158.32000000000002,53.0,88.0
526,158.16,158.46,61.0,100.0
527,158.36,158.48000000000002,56.0,99.0
528,159.16,159.41833333333335,55.0,72.0
529,159.36,159.59,58.0,89.0
530,159.56,159.86833333333334,55.0,79.0
531,158.96,160.04166666666669,51.0,71.0
532,158.76000000000002,160.06166666666667,46.0,45.0
533,159.76000000000002,160.1016666666667,63.0,112.0
534,159.96,160.14833333333334,58.0,79.0
535,158.56,160.20166666666668,39.0,76.0
536,160.16,160.54666666666668,55.0,88.0
537,160.36,160.55666666666667,58.0,88.0
538,160.56,160.87666666666667,63.0,96.0
539,160.76000000000002,160.895,58.0,102.0
540,161.56,161.80166666666668,55.0,64.0
541,161.76000000000002,161.98666666666668,60.0,69.0
542,161.96,162.26166666666668,55.0,79.0
543,162.16,162.56,64.0,112.0
544,162.36,162.59166666666667,55.0,79.0
545,160.96,162.62333333333333,36.0,75.0
546,161.16,162.655,43.0,63.0
547,162.56,162.76500000000001,60.0,81.0
548,161.36,162.87166666666667,48.0,76.0
549,162.76000000000002,163.13500000000002,55.0,85.0
550,162.96,163.28166666666667,64.0,93.0
551,163.16,163.35000000000002,60.0,102.0
552,163.96,164.22166666666666,57.0,72.0
553,164.16,164.40833333333333,60.0,90.0
554,164.36,164.62833333333333,57.0,83.0
555,164.56,164.88000000000002,65.0,99.0
556,163.36,165.0066666666667,41.0,69.0
557,164.76000000000002,165.01333333333335,57.0,82.0
558,163.56,165.12333333333333,48.0,75.0
559,163.76000000000002,165.24166666666667,53.0,79.0
560,164.96,165.32666666666668,60.0,79.0
561,165.16,165.61666666666667,57.0,89.0
562,165.56,165.68166666666667,60.0,82.0
563,165.36,165.68166666666667,65.0,81.0
564,166.36,166.60666666666668,60.0,73.0
565,166.56,166.78833333333336,63.0,100.0
566,166.76000000000002,167.05,60.0,89.0
567,166.16,167.32000000000002,56.0,72.0
568,166.96,167.34333333333333,68.0,127.0
569,165.96,167.39166666666668,51.0,33.0
570,167.16,167.40166666666667,63.0,99.0
571,165.76000000000002,167.51500000000001,44.0,81.0
572,167.36,167.59166666666667,60.0,93.0
573,167.56,168.01166666666668,68.0,112.0
574,167.76000000000002,168.055,63.0,117.0
575,167.96,168.11666666666667,60.0,99.0
576,168.56,168.85500000000002,55.0,66.0
577,168.76000000000002,168.95333333333335,58.0,82.0
578,169.16000000000003,169.3,58.0,92.0
579,168.96,169.32000000000002,55.0,75.0
580,168.36,169.78833333333336,50.0,59.0
581,168.16,169.88666666666668,43.0,77.0
582,169.76000000000002,170.46833333333333,58.0,88.0
583,169.36,170.52666666666667,62.0,99.0
584,170.16000000000003,170.64666666666668,55.0,79.0
585,171.36,171.95333333333335,48.0,83.0
586,172.16000000000003,172.84833333333336,48.0,39.0
587,170.56,172.85833333333335,36.0,74.0
588,170.96,172.86166666666668,43.0,50.0
589,172.56,172.90166666666667,63.0,89.0
590,171.76000000000002,172.96,55.0,93.0
591,172.95333333333335,173.38833333333335,48.0,79.0
592,172.95000000000002,173.39166666666668,67.0,78.0
593,172.9466666666667,173.39333333333335,60.0,82.0
594,172.94333333333336,173.41333333333336,72.0,76.0
595,172.96333333333334,173.44333333333336,36.0,70.0
596,174.16000000000003,174.75500000000002,48.0,43.0
597,174.16000000000003,174.78500000000003,60.0,85.0
598,174.16000000000003,174.78833333333336,55.0,70.0
599,174.16000000000003,174.80333333333334,36.0,61.0
600,174.16000000000003,174.83666666666667,63.0,72.0
601,175.96,176.21,60.0,72.0
602,176.16000000000003,176.435,63.0,93.0
603,175.76000000000002,176.65666666666667,56.0,83.0
604,176.36,176.70166666666668,60.0,78.0
605,176.76000000000002,176.84,56.0,26.0
606,176.76000000000002,176.97333333333336,63.0,72.0
607,176.56,177.01833333333335,68.0,127.0
608,175.36,177.23000000000002,44.0,112.0
609,177.16000000000003,177.39666666666668,63.0,74.0
610,176.96,177.51500000000001,60.0,89.0
611,177.56,177.72500000000002,63.0,96.0
612,177.36,177.73666666666668,68.0,93.0
613,178.16000000000003,178.40666666666667,62.0,66.0
614,178.36,178.62,65.0,68.0
615,178.76000000000002,178.91833333333335,65.0,66.0
616,178.56,179.04333333333335,62.0,85.0
617,177.96,179.10500000000002,58.0,92.0
618,177.76000000000002,179.27333333333334,46.0,107.0
619,179.16000000000003,179.33833333333334,65.0,46.0
620,178.96,179.49333333333334,70.0,112.0
621,179.56,179.75833333333335,65.0,58.0
622,179.36,179.85000000000002,62.0,69.0
623,179.76000000000002,180.08166666666668,70.0,99.0
624,179.96,180.14333333333335,65.0,85.0
625,180.76000000000002,181.00333333333336,64.0,72.0
626,180.56,181.06,60.0,89.0
627,180.96,181.235,67.0,89.0
628,181.16000000000003,181.44,64.0,85.0
629,181.56,181.76500000000001,64.0,69.0
630,181.36,181.81,72.0,102.0
631,181.76000000000002,181.995,67.0,76.0
632,182.16000000000003,182.3816666666667,67.0,88.0
633,180.16000000000003,182.4116666666667,48.0,79.0
634,181.96,182.42833333333334,64.0,81.0
635,180.36,182.54833333333335,55.0,70.0
636,182.36,182.65166666666667,72.0,93.0
637,182.96,183.31166666666667,60.0,85.0
638,183.16000000000003,183.39666666666668,64.0,78.0
639,183.36,183.56333333333333,67.0,83.0
640,183.56,183.82500000000002,64.0,85.0
641,182.76000000000002,183.87333333333333,55.0,56.0
642,182.56,183.9766666666667,48.0,82.0
643,183.76000000000002,184.19333333333336,72.0,107.0
644,183.96,184.21666666666667,64.0,78.0
645,184.16000000000003,184.41000000000003,67.0,67.0
646,184.36,184.67833333333334,64.0,81.0
647,184.56,184.82000000000002,67.0,78.0
648,184.76000000000002,184.92166666666668,72.0,88.0
649,185.56,185.81,60.0,75.0
650,185.76000000000002,185.96166666666667,63.0,93.0
651,185.96,186.19833333333335,60.0,82.0
652,185.36,186.36166666666668,56.0,89.0
653,185.16000000000003,186.37833333333336,51.0,63.0
654,186.16000000000003,186.44833333333335,68.0,117.0
655,186.36,186.61833333333334,60.0,78.0
656,184.96,186.69833333333335,44.0,72.0
657,186.56,186.84166666666667,63.0,90.0
658,186.96,187.21,60.0,77.0
659,186.76000000000002,187.21833333333333,68.0,93.0
660,187.16000000000003,187.28833333333336,63.0,117.0
661,187.56,187.75166666666667,53.0,60.0
662,187.76000000000002,187.97833333333335,58.0,69.0
663,187.96,188.20166666666668,53.0,78.0
664,188.16000000000003,188.40833333333333,58.0,77.0
665,188.36,188.63333333333335,53.0,82.0
666,188.76000000000002,189.04333333333335,53.0,85.0
667,188.56,189.08833333333334,62.0,99.0
668,188.96,189.18666666666667,58.0,86.0
669,187.36,189.64333333333335,46.0,100.0
670,189.16000000000003,189.66500000000002,53.0,86.0
671,189.56,189.705,58.0,107.0
672,189.36,189.7216666666667,62.0,90.0
673,190.36,190.60833333333335,55.0,72.0
674,190.56,190.78500000000003,60.0,85.0
675,190.76000000000002,191.01500000000001,55.0,82.0
676,191.16000000000003,191.39666666666668,55.0,75.0
677,190.96,191.55833333333334,64.0,97.0
678,191.36,191.61166666666668,60.0,70.0
679,191.56,191.80166666666668,55.0,86.0
680,191.76000000000002,191.99,60.0,92.0
681,189.76000000000002,192.00166666666667,36.0,71.0
682,189.96,192.12333333333333,43.0,82.0
683,190.16000000000003,192.13500000000002,48.0,83.0
684,191.96,192.27166666666668,55.0,93.0
685,192.76000000000002,193.00333333333336,55.0,67.0
686,192.96,193.18166666666667,60.0,86.0
687,193.16000000000003,193.39833333333334,55.0,88.0
688,192.16000000000003,193.54166666666669,36.0,89.0
689,192.56,193.585,48.0,86.0
690,192.36,193.61833333333334,43.0,75.0
691,193.36,193.62666666666667,64.0,112.0
692,193.56,193.79833333333335,55.0,78.0
693,193.76000000000002,193.97,60.0,90.0
694,193.96,194.25166666666667,55.0,83.0
695,194.16000000000003,194.48166666666668,64.0,97.0
696,194.36,194.49333333333334,60.0,93.0
697,195.16000000000003,195.39666666666668,53.0,71.0
698,195.36,195.56500000000003,56.0,88.0
699,195.56,195.84833333333336,53.0,82.0
700,194.56,196.0066666666667,37.0,71.0
701,194.76000000000002,196.01166666666668,44.0,57.0
702,195.76000000000002,196.07500000000002,61.0,107.0
703,195.96,196.16000000000003,53.0,69.0
704,194.96,196.30666666666667,49.0,85.0
705,196.16000000000003,196.3466666666667,56.0,83.0
706,196.36,196.72,53.0,88.0
707,196.56,196.86,61.0,100.0
708,196.76000000000002,196.88000000000002,56.0,99.0
709,197.56,197.81833333333336,55.0,72.0
710,197.76000000000002,197.99,58.0,89.0
711,197.96,198.26833333333335,55.0,79.0
712,197.36,198.4416666666667,51.0,71.0
713,197.16000000000003,198.46166666666667,46.0,45.0
714,198.16000000000003,198.5016666666667,63.0,112.0
715,198.36,198.54833333333335,58.0,79.0
716,196.96,198.6016666666667,39.0,76.0
717,198.56,198.9466666666667,55.0,88.0
718,198.76000000000002,198.95666666666668,58.0,88.0
719,198.96,199.27666666666667,63.0,96.0
720,199.16000000000003,199.29500000000002,58.0,102.0
721,199.96,200.20166666666668,55.0,64.0
722,200.16000000000003,200.38666666666668,60.0,69.0
723,200.36,200.6616666666667,55.0,79.0
724,200.56,200.96,64.0,112.0
725,200.76000000000002,200.99166666666667,55.0,79.0
726,199.36,201.02333333333334,36.0,75.0
727,199.56,201.055,43.0,63.0
728,200.96,201.16500000000002,60.0,81.0
729,199.76000000000002,201.27166666666668,48.0,76.0
730,201.16000000000003,201.53500000000003,55.0,85.0
731,201.36,201.68166666666667,64.0,93.0
732,201.56,201.75,60.0,102.0
733,202.36,202.62166666666667,57.0,72.0
734,202.56,202.80833333333334,60.0,90.0
735,202.76000000000002,203.02833333333334,57.0,83.0
736,202.96,203.28,65.0,99.0
737,201.76000000000002,203.40666666666667,41.0,69.0
738,203.16000000000003,203.41333333333336,57.0,82.0
739,201.96,203.52333333333334,48.0,75.0
740,202.16000000000003,203.64166666666668,53.0,79.0
741,203.36,203.7266666666667,60.0,79.0
742,203.56,204.01666666666668,57.0,89.0
743,203.96,204.08166666666668,60.0,82.0
744,203.76000000000002,204.08166666666668,65.0,81.0
745,204.76000000000002,205.0066666666667,60.0,73.0
746,204.96,205.18833333333333,63.0,100.0
747,205.16000000000003,205.45000000000002,60.0,89.0
748,204.56,205.72000000000003,56.0,72.0
749,205.36,205.74333333333334,68.0,127.0
750,204.36,205.79166666666669,51.0,33.0
751,205.56,205.80166666666668,63.0,99.0
752,204.16000000000003,205.91500000000002,44.0,81.0
753,205.76000000000002,205.99166666666667,60.0,93.0
754,205.96,206.4116666666667,68.0,112.0
755,206.16000000000003,206.455,63.0,117.0
756,206.36,206.51666666666668,60.0,99.0
757,206.96,207.25500000000002,55.0,66.0
758,207.16000000000003,207.35333333333335,58.0,82.0
759,207.56,207.70000000000002,58.0,92.0
760,207.36,207.72000000000003,55.0,75.0
761,206.76000000000002,208.18833333333333,50.0,59.0
762,206.56,208.2866666666667,43.0,77.0
763,208.16000000000003,208.86833333333334,58.0,88.0
764,207.76000000000002,208.92666666666668,62.0,99.0
765,208.56,209.04666666666668,55.0,79.0
766,208.96,211.15333333333334,65.0,74.0
767,208.96,211.24166666666667,48.0,81.0
768,208.96,211.25,60.0,78.0
769,208.96,211.2566666666667,36.0,37.0
770,208.96,211.27,67.0,77.0
771,211.36,213.625,60.0,76.0
772,211.36,213.64333333333335,67.0,77.0
773,211.36,213.65666666666667,48.0,56.0
774,211.36,213.66500000000002,36.0,67.0
775,213.84,214.82833333333335,68.0,79.0
776,213.84333333333333,215.05333333333334,60.0,73.0
777,213.84333333333333,215.49166666666667,61.0,92.0
778,213.84,215.53833333333336,37.0,70.0
779,213.84500000000003,215.705,65.0,71.0
780,214.9466666666667,215.715,68.0,69.0
781,214.59500000000003,215.8166666666667,49.0,37.0
782,215.32000000000002,216.18333333333334,60.0,50.0
783,216.1016666666667,216.80166666666668,63.0,77.0
784,216.10500000000002,216.995,67.0,70.0
785,216.88833333333335,217.31500000000003,63.0,56.0
786,216.51000000000002,217.66500000000002,51.0,38.0
787,216.10833333333335,217.86,39.0,82.0
788,217.70666666666668,218.21166666666667,63.0,45.0
789,217.34833333333336,218.34500000000003,67.0,88.0
790,218.53333333333336,218.8466666666667,64.0,75.0
791,218.53500000000003,218.86,67.0,76.0
792,218.15333333333334,218.8816666666667,60.0,37.0
793,218.94833333333335,220.34166666666667,43.0,41.0
794,219.33,220.37166666666667,48.0,64.0
795,218.52666666666667,220.37333333333333,36.0,70.0
796,219.76333333333335,220.9466666666667,55.0,85.0
797,220.50500000000002,220.96666666666667,52.0,45.0
798,219.76500000000001,221.025,60.0,89.0
799,221.75000000000003,222.04500000000002,53.0,47.0
800,221.33833333333334,222.69833333333335,48.0,63.0
801,222.14666666666668,222.76000000000002,57.0,69.0
802,222.14833333333334,222.78500000000003,60.0,72.0
803,220.93333333333334,222.7866666666667,41.0,74.0
804,224.08833333333334,224.485,56.0,45.0
805,223.73166666666668,225.11,44.0,54.0
806,223.365,225.28500000000003,32.0,83.0
807,224.56500000000003,225.4466666666667,60.0,82.0
808,224.5666666666667,225.47333333333336,63.0,89.0
809,224.555,225.54000000000002,56.0,55.0
810,225.79333333333335,227.00833333333335,58.0,36.0
811,226.34166666666667,228.24,38.0,45.0
812,225.87166666666667,228.29666666666668,31.0,67.0
813,226.77333333333334,228.35500000000002,43.0,42.0
814,227.30333333333334,228.435,58.0,53.0
815,225.715,228.46333333333334,62.0,43.0
816,225.86166666666668,228.525,55.0,61.0
817,229.94833333333335,230.51000000000002,53.0,40.0
818,229.93666666666667,230.52833333333334,55.0,53.0
819,230.97833333333335,231.49833333333333,60.0,59.0
820,231.24166666666667,231.55,65.0,55.0
821,231.51333333333335,231.58833333333334,67.0,56.0
822,232.23333333333335,233.085,77.0,40.0
823,229.925,233.97000000000003,36.0,57.0
824,232.85833333333335,233.99,79.0,37.0
825,230.39000000000001,234.02833333333334,43.0,52.0
826,230.74333333333334,234.04166666666669,48.0,75.0
827,231.7866666666667,234.06500000000003,72.0,41.0
828,234.56333333333336,236.34166666666667,79.0,39.0
829,234.68,236.3816666666667,84.0,48.0
830,234.4366666666667,236.38833333333335,43.0,28.0
831,234.43333333333334,236.38833333333335,48.0,33.0
832,234.46833333333336,236.42333333333335,72.0,35.0
833,234.26500000000001,236.46166666666667,36.0,35.0
