,start,end,pitch,velocity
0,28.6917537125,28.9559581875,75.0,85.0
1,29.0326627125,29.306810366666664,73.0,85.0
2,29.3735717125,29.690332991666665,75.0,85.0
3,29.7144807125,30.576696391666665,78.0,85.0
4,30.7372077125,31.13635533333333,73.0,85.0
5,31.2485712125,31.373571179166664,75.0,85.0
6,31.419025712499998,31.730105175,73.0,86.0
7,31.759934712499998,33.27840021666667,71.0,84.0
8,34.1462977125,34.4105021875,75.0,85.0
9,34.4872067125,34.761354366666666,73.0,85.0
10,34.8281157125,35.14487699166666,75.0,85.0
11,35.1690247125,36.031240391666664,78.0,85.0
12,36.1917517125,36.47442209166667,75.0,86.0
13,36.5326607125,36.796865187499996,78.0,84.0
14,36.8735697125,38.23436480416667,80.0,85.0
15,38.2372057125,39.144875925,78.0,84.0
16,39.259932712499996,39.53834172916667,75.0,86.0
17,39.6008417125,39.843739375,73.0,85.0
18,39.941750712499996,40.16050065416667,75.0,84.0
19,40.2826597125,40.51561419583333,73.0,85.0
20,40.623568712499996,40.897716366666664,71.0,84.0
21,40.9644777125,41.70737524166667,68.0,84.0
22,41.987204712499995,42.24004555416666,80.0,79.0
23,42.3281137125,42.63067045,78.0,83.0
24,42.669022712499995,43.944590554166666,75.0,86.0
25,44.7144767125,44.961635737499996,75.0,82.0
26,45.0553857125,45.28407883333333,73.0,85.0
27,45.3962947125,45.600840112499995,73.0,87.0
28,45.7372037125,45.97441955833333,73.0,89.0
29,46.0781127125,46.34089673333333,71.0,82.0
30,46.4190217125,47.272714666666666,68.0,85.0
31,47.4417487125,48.10083944583333,78.0,85.0
32,48.1235667125,49.846577616666664,73.0,86.0
33,50.509929712499996,50.774134187499996,75.0,85.0
34,50.8508387125,51.12498636666666,73.0,85.0
35,51.191747712499996,51.508508991666666,75.0,85.0
36,51.5326567125,52.39487239166667,78.0,85.0
37,52.555383712499996,52.95453133333333,73.0,85.0
38,53.0667472125,53.19174717916666,75.0,85.0
39,53.237201712499996,53.548281175,73.0,86.0
40,53.5781107125,55.09657621666666,71.0,84.0
41,55.964473712499995,56.228678187499995,75.0,85.0
42,56.3053827125,56.57953036666667,73.0,85.0
43,56.646291712499995,56.963052991666665,75.0,85.0
44,56.9872007125,57.849416391666665,78.0,85.0
45,58.009927712499994,58.29259809166666,75.0,86.0
46,58.3508367125,58.6150411875,78.0,84.0
47,58.691745712499994,60.05254080416666,80.0,85.0
48,60.0553817125,60.963051924999995,78.0,84.0
49,61.0781087125,61.35651772916666,75.0,86.0
50,61.4190177125,61.661915375,73.0,85.0
51,61.7599267125,61.97867665416666,75.0,84.0
52,62.1008357125,62.33379019583333,73.0,85.0
53,62.4417447125,62.715892366666665,71.0,84.0
54,62.7826537125,63.52555124166666,68.0,84.0
55,63.805380712499996,64.05822155416666,80.0,79.0
56,64.14628971249999,64.44884644999999,78.0,83.0
57,64.4871987125,65.76276655416666,75.0,86.0
58,66.5326527125,66.7798117375,75.0,82.0
59,66.87356171249999,67.10225483333333,73.0,85.0
60,67.2144707125,67.4190161125,73.0,87.0
61,67.5553797125,67.79259555833333,73.0,89.0
62,67.8962887125,68.15907273333333,71.0,82.0
63,68.23719771249999,69.09089066666667,68.0,85.0
64,68.9190157125,69.57810644583333,80.0,85.0
65,69.60083371249999,70.62071980416667,78.0,86.0
66,70.6235607125,70.8877651875,78.0,86.0
67,70.96446971249999,71.25992417916666,83.0,85.0
68,71.3053787125,71.6548104375,82.0,84.0
69,71.6462877125,71.9531058125,78.0,84.0
70,71.9871967125,72.2940148125,73.0,88.0
71,72.32810571249999,72.588048825,75.0,84.0
72,72.6690147125,72.90623055833333,75.0,84.0
73,73.0099237125,73.28975318333333,75.0,84.0
74,73.3508327125,73.68890080416666,73.0,84.0
75,73.69174171249999,74.55395739166666,75.0,84.0
76,74.7144687125,75.27554810833333,78.0,83.0
77,75.3962867125,75.8863434,78.0,86.0
78,76.7599227125,77.01134309999999,75.0,84.0
79,77.1008317125,77.3224225625,75.0,87.0
80,77.44174071249999,77.701683825,78.0,81.0
81,77.7826497125,78.0553769125,83.0,86.0
82,78.1235587125,78.37497909999999,82.0,83.0
83,78.4644677125,78.66049038749999,80.0,83.0
84,78.80537671249999,79.11077435833333,78.0,84.0
85,79.1462857125,79.98577412499999,75.0,85.0
86,80.16901271249999,80.50708080416666,73.0,84.0
87,80.5099217125,81.52838735,75.0,84.0
88,82.5553757125,82.85651199583333,75.0,85.0
89,82.89628471249999,83.13634146666666,73.0,88.0
90,83.2371937125,83.51276182083333,75.0,87.0
91,83.5781027125,84.98719324583332,78.0,85.0
92,85.2826477125,85.65622715833334,75.0,88.0
93,85.7940112125,85.9218520875,75.0,84.0
94,85.9644657125,86.26560199583334,73.0,90.0
95,86.3053747125,87.9161697375,71.0,85.0
96,88.35082871249999,88.64344227083333,71.0,86.0
97,88.6917377125,89.19031712499999,80.0,84.0
98,89.37355571249999,89.59514656249999,80.0,85.0
99,89.7144647125,89.91901011249999,78.0,79.0
100,90.0553737125,90.28832819583333,80.0,85.0
101,90.3962827125,90.92043029999999,78.0,83.0
102,91.0781007125,91.31815746666666,75.0,85.0
103,91.4190097125,92.26133903333333,73.0,86.0
104,92.4417367125,92.7059411875,78.0,86.0
105,92.7826457125,93.07810017916667,83.0,85.0
106,93.1235547125,93.4729864375,82.0,84.0
107,93.46446371249999,93.77128181249999,78.0,84.0
108,93.8053727125,94.1121908125,73.0,88.0
109,94.1462817125,94.406224825,75.0,84.0
110,94.4871907125,94.72440655833333,75.0,84.0
111,94.82809971249999,95.10792918333333,75.0,84.0
112,95.1690087125,95.50707680416666,73.0,84.0
113,95.5099177125,96.37213339166667,75.0,84.0
114,96.5326447125,97.09372410833333,78.0,83.0
115,97.2144627125,97.7045194,78.0,86.0
116,98.5780987125,98.8295191,75.0,84.0
117,98.91900771249999,99.1405985625,75.0,87.0
118,99.2599167125,99.519859825,78.0,81.0
119,99.6008257125,99.8735529125,83.0,86.0
120,99.9417347125,100.1931551,82.0,83.0
121,100.28264371249999,100.4786663875,80.0,83.0
122,100.6235527125,100.92895035833332,78.0,84.0
123,100.9644617125,101.803950125,75.0,85.0
124,101.9871887125,102.32525680416666,73.0,84.0
125,102.3280977125,103.34656335,75.0,84.0
126,104.37355171249999,104.67468799583332,75.0,85.0
127,104.7144607125,104.95451746666666,73.0,88.0
128,105.0553697125,105.33093782083333,75.0,87.0
129,105.39627871249999,106.80536924583333,78.0,85.0
130,107.1008237125,107.47440315833333,73.0,88.0
131,107.61218721249999,107.7400280875,75.0,84.0
132,107.7826417125,108.08377799583333,73.0,90.0
133,108.12355071249999,109.73434573749999,71.0,85.0
134,110.1690047125,110.46161827083333,71.0,86.0
135,110.5099137125,111.008493125,68.0,84.0
136,111.1917317125,111.52979980416666,71.0,85.0
137,111.5326407125,111.87070880416667,80.0,79.0
138,111.8735497125,112.55267725416667,78.0,83.0
139,112.5555230125,112.89416825416666,75.0,85.0
140,112.8970140125,113.23565925416666,73.0,85.0
141,113.2385050125,114.60162325416667,71.0,86.0
142,140.5366972125,140.80090168750002,75.0,85.0
143,140.8776062125,141.15175386666667,73.0,85.0
144,141.2185152125,141.53527649166668,75.0,85.0
145,141.5594242125,142.42163989166667,78.0,85.0
146,142.5821512125,142.98129883333334,73.0,85.0
147,143.0935147125,143.21851467916667,75.0,85.0
148,143.2639692125,143.575048675,73.0,86.0
149,143.6048782125,145.12334371666668,71.0,84.0
150,145.9912412125,146.2554456875,75.0,85.0
151,146.3321502125,146.60629786666667,73.0,85.0
152,146.6730592125,146.98982049166668,75.0,85.0
153,147.0139682125,147.87618389166667,78.0,85.0
154,148.0366952125,148.31936559166667,75.0,86.0
155,148.3776042125,148.6418086875,78.0,84.0
156,148.7185132125,150.07930830416666,80.0,85.0
157,150.08214921249998,150.989819425,78.0,84.0
158,151.10487621250002,151.38328522916666,75.0,86.0
159,151.4457852125,151.688682875,73.0,85.0
160,151.7866942125,152.00544415416667,75.0,84.0
161,152.1276032125,152.36055769583334,73.0,85.0
162,152.4685122125,152.74265986666666,71.0,84.0
163,152.8094212125,153.55231874166668,68.0,84.0
164,153.8321482125,154.08498905416667,80.0,79.0
165,154.1730572125,154.47561395,78.0,83.0
166,154.5139662125,155.78953405416667,75.0,86.0
167,156.55942021250002,156.8065792375,75.0,82.0
168,156.9003292125,157.12902233333332,73.0,85.0
169,157.2412382125,157.4457836125,73.0,87.0
170,157.5821472125,157.81936305833332,73.0,89.0
171,157.9230562125,158.18584023333332,71.0,82.0
172,158.2639652125,159.11765816666667,68.0,85.0
173,158.9457832125,159.60487394583333,80.0,85.0
174,159.6276012125,160.64748730416667,78.0,86.0
175,160.6503282125,160.9145326875,78.0,86.0
176,160.9912372125,161.28669167916667,83.0,85.0
177,161.3321462125,161.6815779375,82.0,84.0
178,161.6730552125,161.9798733125,78.0,84.0
179,162.0139642125,162.3207823125,73.0,88.0
180,162.3548732125,162.614816325,75.0,84.0
181,162.6957822125,162.93299805833334,75.0,84.0
182,163.0366912125,163.31652068333335,75.0,84.0
183,163.3776002125,163.71566830416668,73.0,84.0
184,163.7185092125,164.58072489166668,75.0,84.0
185,164.74123621249998,165.30231560833334,78.0,83.0
186,165.4230542125,165.9131109,78.0,86.0
187,166.7866902125,167.0381106,75.0,84.0
188,167.1275992125,167.34919006249999,75.0,87.0
189,167.4685082125,167.728451325,78.0,81.0
190,167.8094172125,168.08214441249999,83.0,86.0
191,168.1503262125,168.4017466,82.0,83.0
192,168.4912352125,168.6872578875,80.0,83.0
193,168.8321442125,169.13754185833335,78.0,84.0
194,169.1730532125,170.01254162499998,75.0,85.0
195,170.19578021249998,170.53384830416667,73.0,84.0
196,170.5366892125,171.55515485,75.0,84.0
197,172.5821432125,172.88327949583334,75.0,85.0
198,172.9230522125,173.16310896666667,73.0,88.0
199,173.2639612125,173.53952932083334,75.0,87.0
200,173.6048702125,175.01396074583334,78.0,85.0
201,175.3094152125,175.68299465833334,73.0,88.0
202,175.8207787125,175.9486195875,75.0,84.0
203,175.9912332125,176.29236949583333,73.0,90.0
204,176.3321422125,177.9429372375,71.0,85.0
205,178.3775962125,178.67020977083334,71.0,86.0
206,178.7185052125,179.21708462499998,80.0,84.0
207,179.40032321249998,179.6219140625,80.0,85.0
208,179.7412322125,179.9457776125,78.0,79.0
209,180.0821412125,180.31509569583335,80.0,85.0
210,180.42305021250002,180.9471978,78.0,83.0
211,181.1048682125,181.34492496666667,75.0,85.0
212,181.4457772125,182.28810653333335,73.0,86.0
213,182.4685042125,182.7327086875,78.0,86.0
214,182.8094132125,183.10486767916666,83.0,85.0
215,183.1503222125,183.4997539375,82.0,84.0
216,183.4912312125,183.79804931249998,78.0,84.0
217,183.8321402125,184.1389583125,73.0,88.0
218,184.1730492125,184.432992325,75.0,84.0
219,184.5139582125,184.75117405833333,75.0,84.0
220,184.85486721249998,185.13469668333335,75.0,84.0
221,185.1957762125,185.53384430416668,73.0,84.0
222,185.5366852125,186.39890089166667,75.0,84.0
223,186.5594122125,187.12049160833334,78.0,83.0
224,187.2412302125,187.7312869,78.0,86.0
225,188.60486621249999,188.8562866,75.0,84.0
226,188.9457752125,189.1673660625,75.0,87.0
227,189.2866842125,189.546627325,78.0,81.0
228,189.62759321250002,189.9003204125,83.0,86.0
229,189.9685022125,190.2199226,82.0,83.0
230,190.3094112125,190.5054338875,80.0,83.0
231,190.6503202125,190.95571785833334,78.0,84.0
232,190.9912292125,191.830717625,75.0,85.0
233,192.0139562125,192.35202430416666,73.0,84.0
234,192.3548652125,193.37333085,75.0,84.0
235,194.4003192125,194.70145549583333,75.0,85.0
236,194.7412282125,194.98128496666666,73.0,88.0
237,195.08213721250002,195.35770532083333,75.0,87.0
238,195.4230462125,196.83213674583334,78.0,85.0
239,197.1275912125,197.50117065833334,73.0,88.0
240,197.63895471249998,197.76679558749998,75.0,84.0
241,197.8094092125,198.11054549583332,73.0,90.0
242,198.1503182125,199.7611132375,71.0,85.0
243,200.1957722125,200.48838577083333,71.0,86.0
244,200.5366812125,201.03526062499998,68.0,84.0
245,201.21849921249998,201.55656730416666,71.0,85.0
246,201.5594082125,201.89747630416667,80.0,79.0
247,201.9003172125,202.57929430416667,78.0,83.0
248,202.5821352125,202.92020330416665,75.0,85.0
249,202.9230442125,203.26111230416666,73.0,85.0
250,203.26395321249998,204.62474830416664,71.0,86.0
251,209.74122421250001,210.0054286875,79.0,86.0
252,210.0821332125,210.37758767916665,84.0,85.0
253,210.42304221249998,210.7724739375,83.0,84.0
254,210.7639512125,211.0707693125,79.0,84.0
255,211.1048602125,211.4116783125,74.0,88.0
256,211.4457692125,211.70571232499998,76.0,84.0
257,211.7866782125,212.02389405833333,76.0,84.0
258,212.1275872125,212.40741668333334,76.0,84.0
259,212.46849621249999,212.80656430416667,74.0,84.0
260,212.8094052125,213.67162089166666,76.0,84.0
261,213.8321322125,214.39321160833333,79.0,83.0
262,214.5139502125,215.00400689999998,79.0,86.0
263,215.87758621249998,216.1290066,76.0,84.0
264,216.2184952125,216.4400860625,76.0,87.0
265,216.5594042125,216.819347325,79.0,81.0
266,216.9003132125,217.1730404125,84.0,86.0
267,217.2412222125,217.4926426,83.0,83.0
268,217.5821312125,217.7781538875,81.0,83.0
269,217.92304021249998,218.22843785833334,79.0,84.0
270,218.2639492125,219.103437625,76.0,85.0
271,219.2866762125,219.62474430416665,74.0,84.0
272,219.62758521249998,220.64605085,76.0,84.0
273,221.6730392125,221.97417549583332,76.0,85.0
274,222.0139482125,222.25400496666668,74.0,88.0
275,222.3548572125,222.63042532083333,76.0,87.0
276,222.69576621250002,224.10485674583333,79.0,85.0
277,224.40031121250001,224.77389065833333,74.0,88.0
278,224.9116747125,225.03951558749998,76.0,84.0
279,225.08212921249998,225.3832654958333,74.0,90.0
280,225.4230382125,227.0338332375,72.0,85.0
281,227.4684922125,227.76110577083332,72.0,86.0
282,227.8094012125,228.307980625,81.0,84.0
283,228.4912192125,228.7128100625,81.0,85.0
284,228.83212821249998,229.0366736125,79.0,79.0
285,229.1730372125,229.40599169583334,81.0,85.0
286,229.5139462125,230.0380938,79.0,83.0
287,230.1957642125,230.43582096666665,76.0,85.0
288,230.53667321249998,231.37900253333333,74.0,86.0
289,231.5594002125,231.8236046875,79.0,86.0
290,231.9003092125,232.19576367916665,84.0,85.0
291,232.2412182125,232.59064993750002,83.0,84.0
292,232.58212721249998,232.8889453125,79.0,84.0
293,232.9230362125,233.22985431249998,74.0,88.0
294,233.2639452125,233.523888325,76.0,84.0
295,233.60485421250002,233.84207005833332,76.0,84.0
296,233.9457632125,234.22559268333333,76.0,84.0
297,234.28667221249998,234.62474030416666,74.0,84.0
298,234.6275812125,235.48979689166666,76.0,84.0
299,235.6503082125,236.21138760833333,79.0,83.0
300,236.3321262125,236.8221829,79.0,86.0
301,237.6957622125,237.9471826,76.0,84.0
302,238.03667121249998,238.2582620625,76.0,87.0
303,238.3775802125,238.63752332500002,79.0,81.0
304,238.7184892125,238.9912164125,84.0,86.0
305,239.0593982125,239.3108186,83.0,83.0
306,239.4003072125,239.5963298875,81.0,83.0
307,239.74121621249998,240.04661385833333,79.0,84.0
308,240.0821252125,240.921613625,76.0,85.0
309,241.1048522125,241.44292030416665,74.0,84.0
310,241.4457612125,242.46422685,76.0,84.0
311,243.49121521249998,243.79235149583332,76.0,85.0
312,243.8321242125,244.07218096666668,74.0,88.0
313,244.1730332125,244.44860132083335,76.0,87.0
314,244.5139422125,245.92303274583332,79.0,85.0
315,246.2184872125,246.59206665833335,74.0,88.0
316,246.7298507125,246.8576915875,76.0,84.0
317,246.9003052125,247.20144149583334,74.0,90.0
318,247.24121421249998,248.8520092375,72.0,85.0
319,249.2866682125,249.57928177083335,72.0,86.0
320,249.6275772125,250.126156625,69.0,84.0
321,250.3093952125,250.64746330416665,72.0,85.0
322,250.6503042125,250.98837230416666,81.0,79.0
323,250.99121321249999,251.67019030416668,79.0,83.0
324,251.6730312125,252.01109930416666,76.0,85.0
325,252.01394021250002,252.35200830416665,74.0,85.0
326,252.3548492125,253.71564430416666,72.0,86.0
