,start,end,pitch,velocity
0,2.1008517125,2.3167607458333332,61.0,74.0
1,2.4417607125,2.5923288541666665,66.0,82.0
2,2.4417607125,2.596590216666667,59.0,72.0
3,1.7599427125,3.8963057791666666,54.0,72.0
4,1.4190337124999999,3.9928966624999997,47.0,85.0
5,4.8281237125,4.978691854166667,61.0,73.0
6,4.4872147125,6.602270966666667,54.0,70.0
7,4.1463057125,6.639202774999999,47.0,86.0
8,5.1690327125,7.032668579166667,59.0,78.0
9,5.1690327125,7.102270833333333,64.0,80.0
10,6.8735777124999995,9.1917589125,44.0,85.0
11,7.214486712499999,9.244315716666666,51.0,77.0
12,7.8963047125,9.342327054166667,59.0,85.0
13,7.555395712499999,9.485792925,54.0,83.0
14,7.8963047125,9.5156224625,63.0,85.0
15,10.2826677125,11.626417354166666,54.0,85.0
16,10.6235767125,11.771303679166666,61.0,84.0
17,9.9417587125,11.825280937499999,49.0,77.0
18,9.600849712499999,11.971587716666667,42.0,84.0
19,12.3281217125,12.707382975,56.0,76.0
20,12.3281217125,13.187496483333334,59.0,78.0
21,13.3508487125,13.433235054166666,59.0,62.0
22,13.0099397125,13.927553104166666,56.0,74.0
23,12.6690307125,14.366473441666667,47.0,70.0
24,12.3281217125,14.426132516666666,40.0,84.0
25,13.3508487125,14.656246091666667,64.0,84.0
26,15.055393712499999,15.757098070833333,58.0,77.0
27,15.055393712499999,15.791188970833332,63.0,84.0
28,15.737211712499999,16.133518425,54.0,74.0
29,16.0781207125,16.99715455833333,58.0,84.0
30,15.396302712499999,17.197438595833333,46.0,69.0
31,15.055393712499999,17.2713022125,39.0,85.0
32,17.1008477125,17.49573397083333,63.0,86.0
33,17.7826657125,18.008517925,56.0,73.0
34,17.7826657125,18.46022235,61.0,79.0
35,17.7826657125,18.4772678,49.0,83.0
36,18.464483712499998,18.9843699375,51.0,83.0
37,18.464483712499998,19.028404016666666,63.0,81.0
38,18.464483712499998,19.032665379166666,58.0,75.0
39,19.146301712499998,20.16334689583333,52.0,81.0
40,19.146301712499998,21.1747102625,64.0,77.0
41,21.1917557125,22.190334991666667,54.0,85.0
42,22.2144827125,22.765618929166667,66.0,74.0
43,20.850846712499997,22.901982529166666,49.0,74.0
44,20.509937712499998,22.980107508333333,42.0,84.0
45,21.5326647125,23.13067565,61.0,78.0
46,22.5553917125,23.622152791666664,54.0,73.0
47,23.5781187125,23.622152791666664,54.0,78.0
48,23.9190277125,24.329538966666664,61.0,79.0
49,24.2599367125,24.6264138875,63.0,79.0
50,24.9417547125,25.37925459583333,54.0,71.0
51,23.2372097125,25.636356799999998,47.0,85.0
52,25.6235727125,26.10794758333333,54.0,76.0
53,26.3053907125,26.7997087625,54.0,72.0
54,26.6462997125,26.84516329583333,59.0,73.0
55,26.9872087125,27.193174566666666,61.0,74.0
56,27.6690267125,27.9076630125,63.0,81.0
57,25.9644817125,28.27698109583333,47.0,87.0
58,29.0326627125,29.495730770833333,54.0,79.0
59,29.3735717125,29.555389845833332,59.0,85.0
60,29.7144807125,29.906242024999997,54.0,77.0
61,29.7144807125,30.034082899999998,63.0,82.0
62,28.6917537125,31.164764416666664,47.0,88.0
63,31.078116712499998,31.387775720833332,58.0,73.0
64,31.419025712499998,31.825275604166666,56.0,72.0
65,31.419025712499998,31.99715055833333,59.0,77.0
66,32.1008437125,32.3224345625,58.0,63.0
67,32.4417527125,32.633514025,59.0,77.0
68,31.759934712499998,33.4730024375,51.0,71.0
69,31.419025712499998,33.5752751375,44.0,83.0
70,34.1462977125,34.82385435,63.0,84.0
71,34.8281157125,35.1818088,59.0,81.0
72,34.4872067125,35.1945928875,54.0,85.0
73,35.1690247125,35.47726326666667,63.0,85.0
74,35.8508427125,36.2940244125,54.0,67.0
75,36.1917517125,36.37783120833333,59.0,75.0
76,36.1917517125,36.471581183333335,66.0,78.0
77,34.1462977125,36.541183437499996,47.0,83.0
78,37.2144787125,37.30254687083333,58.0,51.0
79,37.5553877125,37.92896715833333,63.0,82.0
80,37.896296712499996,38.84658055,66.0,80.0
81,38.578114712499996,38.94175097916666,63.0,78.0
82,38.9190237125,39.07101230833333,58.0,85.0
83,36.8735697125,39.0724327625,51.0,85.0
84,39.6008417125,39.997148425,52.0,73.0
85,39.6008417125,40.2613529,56.0,76.0
86,40.2826597125,40.7428868625,52.0,77.0
87,39.941750712499996,41.088057225,47.0,77.0
88,39.6008417125,41.1008413125,40.0,79.0
89,40.623568712499996,41.8423183875,59.0,79.0
90,41.987204712499995,42.09657968333333,56.0,77.0
91,41.6462957125,42.099420591666664,47.0,76.0
92,42.3281137125,42.721579516666665,51.0,76.0
93,42.3281137125,42.90623855833333,54.0,73.0
94,42.3281137125,43.045443066666664,39.0,85.0
95,42.669022712499995,43.08521578333333,46.0,66.0
96,43.0099317125,43.116465775,51.0,73.0
97,43.6917497125,44.10794278333333,56.0,71.0
98,43.6917497125,44.38919270833333,59.0,76.0
99,44.3735677125,44.78123805833333,56.0,85.0
100,43.6917497125,44.818169866666665,44.0,84.0
101,44.0326587125,44.839476679166665,51.0,81.0
102,45.0553857125,45.46589696666666,61.0,79.0
103,45.3962947125,45.83379459583333,56.0,78.0
104,45.7372037125,46.130669516666664,61.0,77.0
105,45.0553857125,46.9985670125,49.0,84.0
106,46.0781127125,47.18322605416667,64.0,84.0
107,47.1008397125,47.258510125,61.0,80.0
108,47.4417487125,47.710214549999996,54.0,84.0
109,47.7826577125,48.35652119583333,61.0,77.0
110,48.4644757125,48.86788469583333,54.0,84.0
111,48.8053847125,49.19032779166667,61.0,81.0
112,49.4872027125,49.661918575,54.0,80.0
113,49.1462937125,49.6704413,66.0,85.0
114,49.8281117125,50.02697529583333,54.0,84.0
115,48.1235667125,50.225838879166666,49.0,80.0
116,47.7826577125,50.262770687499994,42.0,82.0
117,49.8281117125,50.284077499999995,61.0,80.0
118,50.8508387125,51.313906770833334,54.0,79.0
119,51.191747712499996,51.37356584583333,59.0,85.0
120,51.5326567125,51.724418025,54.0,77.0
121,51.5326567125,51.852258899999995,63.0,82.0
122,50.509929712499996,52.982940416666665,47.0,88.0
123,52.8962927125,53.20595172083333,58.0,73.0
124,53.237201712499996,53.643451604166664,56.0,72.0
125,53.237201712499996,53.81532655833333,59.0,77.0
126,53.919019712499995,54.1406105625,58.0,63.0
127,54.2599287125,54.451690025,59.0,77.0
128,53.5781107125,55.2911784375,51.0,71.0
129,53.237201712499996,55.393451137499994,44.0,83.0
130,55.964473712499995,56.64203035,63.0,84.0
131,56.646291712499995,56.9999848,59.0,81.0
132,56.3053827125,57.012768887499995,54.0,85.0
133,56.9872007125,57.29543926666666,63.0,85.0
134,57.6690187125,58.112200412499995,54.0,67.0
135,58.009927712499994,58.196007208333334,59.0,75.0
136,58.009927712499994,58.28975718333333,66.0,78.0
137,55.964473712499995,58.3593594375,47.0,83.0
138,59.0326547125,59.12072287083333,58.0,51.0
139,59.3735637125,59.74714315833333,63.0,82.0
140,59.7144727125,60.66475655,66.0,80.0
141,60.3962907125,60.759926979166664,63.0,78.0
142,60.7371997125,60.88918830833333,58.0,85.0
143,58.691745712499994,60.890608762499994,51.0,85.0
144,61.4190177125,61.815324425,52.0,73.0
145,61.4190177125,62.0795289,56.0,76.0
146,62.1008357125,62.561062862499995,52.0,77.0
147,61.7599267125,62.906233224999994,47.0,77.0
148,61.4190177125,62.919017312499996,40.0,79.0
149,62.4417447125,63.660494387499995,59.0,79.0
150,63.805380712499996,63.91475568333333,56.0,77.0
151,63.4644717125,63.917596591666666,47.0,76.0
152,64.14628971249999,64.53975551666666,51.0,76.0
153,64.14628971249999,64.72441455833334,54.0,73.0
154,64.14628971249999,64.86361906666666,39.0,85.0
155,64.4871987125,64.90339178333333,46.0,66.0
156,64.8281077125,64.934641775,51.0,73.0
157,65.50992571249999,65.92611878333334,56.0,71.0
158,65.50992571249999,66.20736870833333,59.0,76.0
159,66.1917437125,66.59941405833334,56.0,85.0
160,65.50992571249999,66.63634586666666,44.0,84.0
161,65.8508347125,66.65765267916666,51.0,81.0
162,66.87356171249999,67.28407296666667,61.0,79.0
163,67.2144707125,67.65197059583333,56.0,78.0
164,67.5553797125,67.94884551666667,61.0,77.0
165,66.87356171249999,68.8167430125,49.0,84.0
166,67.8962887125,69.00140205416666,64.0,84.0
167,68.9190157125,69.076686125,61.0,80.0
168,69.2599247125,69.52839055,54.0,84.0
169,69.60083371249999,70.17469719583333,61.0,77.0
170,70.2826517125,70.68606069583333,54.0,84.0
171,70.6235607125,71.00850379166667,61.0,81.0
172,71.3053787125,71.480094575,54.0,80.0
173,70.96446971249999,71.4886173,66.0,85.0
174,71.6462877125,71.84515129583333,54.0,84.0
175,69.9417427125,72.04401487916667,49.0,80.0
176,69.60083371249999,72.0809466875,42.0,82.0
177,71.6462877125,72.1022535,61.0,80.0
178,72.32810571249999,72.50566248333332,54.0,80.0
179,72.32810571249999,72.7627646875,59.0,80.0
180,72.6690147125,72.99145780833334,54.0,80.0
181,73.0099237125,73.36787816249999,61.0,85.0
182,73.3508327125,73.6576508125,54.0,84.0
183,73.69174171249999,74.1519688625,59.0,86.0
184,73.69174171249999,74.32668472499999,63.0,86.0
185,74.0326507125,74.41333242916666,54.0,80.0
186,72.32810571249999,74.42469606249999,47.0,91.0
187,74.3735597125,74.50566195,59.0,74.0
188,75.0553777125,75.43747988333332,58.0,78.0
189,75.0553777125,75.74003662083334,63.0,82.0
190,75.7371957125,76.11077515833333,58.0,80.0
191,76.0781047125,76.20736604166666,63.0,72.0
192,75.3962867125,76.50424096249999,46.0,71.0
193,76.4190137125,76.59088866666666,58.0,87.0
194,76.4190137125,76.75282044166666,66.0,84.0
195,75.0553777125,76.87355904583333,39.0,88.0
196,76.7599227125,76.91475221666667,46.0,75.0
197,77.1008317125,77.21872940833333,58.0,84.0
198,77.1008317125,77.42753617083333,63.0,86.0
199,77.44174071249999,77.55395659166666,58.0,73.0
200,77.7826497125,78.20168369166666,52.0,77.0
201,77.7826497125,78.29969502916666,56.0,75.0
202,78.4644677125,78.82810397916667,52.0,85.0
203,78.1235587125,78.97014939583333,47.0,74.0
204,77.7826497125,78.98719484583333,40.0,85.0
205,78.80537671249999,79.03264937916666,59.0,86.0
206,79.1462857125,79.4104901875,58.0,82.0
207,79.1462857125,79.55253560416666,54.0,80.0
208,79.8281037125,80.01418320833334,54.0,78.0
209,79.4871947125,80.224410425,49.0,78.0
210,79.1462857125,80.23435360416666,42.0,85.0
211,79.8281037125,80.2542399625,61.0,79.0
212,80.16901271249999,80.55537624583333,54.0,84.0
213,80.5099217125,81.01560339583332,63.0,86.0
214,80.8508307125,81.24145560833333,54.0,80.0
215,81.1917397125,81.588046425,61.0,81.0
216,81.53264871249999,81.71872820833333,54.0,85.0
217,81.8735577125,82.00850085833333,54.0,86.0
218,80.5099217125,82.031228125,47.0,85.0
219,81.8735577125,82.26418260833333,59.0,84.0
220,82.2144667125,82.3636144,54.0,78.0
221,82.5553757125,82.70310294583334,47.0,87.0
222,82.5553757125,82.7854892875,54.0,84.0
223,82.5553757125,82.9090688,59.0,84.0
224,82.89628471249999,83.12497783333333,61.0,85.0
225,83.2371937125,83.56673907916667,63.0,86.0
226,83.5781027125,84.08520485,46.0,67.0
227,83.9190117125,84.34088659999999,54.0,76.0
228,84.25992071249999,84.40338658333333,51.0,76.0
229,83.2371937125,84.7627614875,39.0,88.0
230,84.6008297125,84.94884098333333,51.0,84.0
231,84.6008297125,84.97725006666667,54.0,80.0
232,84.6008297125,85.1292386625,58.0,83.0
233,84.9417387125,85.3295227,46.0,72.0
234,85.2826477125,85.45026130416666,54.0,87.0
235,85.9644657125,86.3735565125,56.0,73.0
236,85.9644657125,86.70310187916667,59.0,79.0
237,86.3053747125,86.70452233333333,51.0,77.0
238,85.9644657125,86.85793138333332,44.0,84.0
239,86.6462837125,86.96304499166666,56.0,85.0
240,86.98719271249999,87.36077215833333,51.0,71.0
241,87.3281017125,87.77412432083332,56.0,79.0
242,87.3281017125,87.78974931666666,59.0,81.0
243,88.0099197125,88.14770376666667,56.0,78.0
244,87.6690107125,88.16474921666666,51.0,77.0
245,88.0099197125,88.17327194166667,59.0,84.0
246,88.0099197125,88.18889693749999,63.0,85.0
247,88.6917377125,89.16901031249999,64.0,85.0
248,89.0326467125,89.42185115416666,56.0,85.0
249,89.37355571249999,89.79827150833333,61.0,83.0
250,89.7144647125,89.91616920416666,56.0,73.0
251,90.0553737125,90.4431577,64.0,89.0
252,90.3962827125,90.5411690375,56.0,72.0
253,88.6917377125,90.8650325875,49.0,89.0
254,90.73719171249999,91.17611205,61.0,84.0
255,91.0781007125,91.2741233875,49.0,89.0
256,91.4190097125,92.11077089166666,54.0,79.0
257,91.4190097125,92.1349186125,61.0,82.0
258,92.10082771249999,92.29969129583333,58.0,80.0
259,92.4417367125,92.56531622499999,54.0,86.0
260,91.7599187125,92.89344113749999,49.0,78.0
261,91.4190097125,93.01844110416667,42.0,84.0
262,92.7826457125,93.19315696666666,66.0,79.0
263,92.7826457125,93.21588423333333,58.0,86.0
264,92.7826457125,93.21730468749999,61.0,85.0
265,92.7826457125,93.25991831249999,54.0,82.0
266,93.46446371249999,93.62497503333333,54.0,79.0
267,93.46446371249999,94.15622489166667,58.0,80.0
268,93.8053727125,94.17895215833333,54.0,78.0
269,94.1462817125,94.17895215833333,54.0,80.0
270,93.1235547125,94.18605442916666,49.0,78.0
271,93.46446371249999,94.19173624583333,61.0,82.0
272,94.1462817125,94.58094068749999,59.0,80.0
273,94.4871907125,94.80963380833333,54.0,80.0
274,94.82809971249999,95.1860541625,61.0,85.0
275,95.1690087125,95.4758268125,54.0,84.0
276,95.5099177125,95.97014486249999,59.0,86.0
277,95.5099177125,96.144860725,63.0,86.0
278,95.8508267125,96.23150842916667,54.0,80.0
279,94.1462817125,96.2428720625,47.0,91.0
280,96.19173571249999,96.32383795,59.0,74.0
281,96.8735537125,97.25565588333333,58.0,78.0
282,96.8735537125,97.55821262083333,63.0,82.0
283,97.55537171249999,97.92895115833333,58.0,80.0
284,97.8962807125,98.02554204166667,63.0,72.0
285,97.2144627125,98.3224169625,46.0,71.0
286,98.2371897125,98.40906466666667,58.0,87.0
287,98.2371897125,98.57099644166667,66.0,84.0
288,96.8735537125,98.69173504583333,39.0,88.0
289,98.5780987125,98.73292821666666,46.0,75.0
290,98.91900771249999,99.03690540833333,58.0,84.0
291,98.91900771249999,99.24571217083333,63.0,86.0
292,99.2599167125,99.37213259166666,58.0,73.0
293,99.6008257125,100.01985969166667,52.0,77.0
294,99.6008257125,100.11787102916666,56.0,75.0
295,100.28264371249999,100.64627997916666,52.0,85.0
296,99.9417347125,100.78832539583333,47.0,74.0
297,99.6008257125,100.80537084583332,40.0,85.0
298,100.6235527125,100.85082537916666,59.0,86.0
299,100.9644617125,101.2286661875,58.0,82.0
300,100.9644617125,101.37071160416666,54.0,80.0
301,101.64627971249999,101.83235920833333,54.0,78.0
302,101.3053707125,102.042586425,49.0,78.0
303,100.9644617125,102.05252960416666,42.0,85.0
304,101.64627971249999,102.0724159625,61.0,79.0
305,101.9871887125,102.37355224583332,54.0,84.0
306,102.3280977125,102.83377939583333,63.0,86.0
307,102.66900671249999,103.05963160833333,54.0,80.0
308,103.00991571249999,103.406222425,61.0,81.0
309,103.3508247125,103.53690420833333,54.0,85.0
310,103.6917337125,103.82667685833333,54.0,86.0
311,102.3280977125,103.84940412499999,47.0,85.0
312,103.6917337125,104.08235860833332,59.0,84.0
313,104.03264271249999,104.1817904,54.0,78.0
314,104.37355171249999,104.52127894583333,47.0,87.0
315,104.37355171249999,104.6036652875,54.0,84.0
316,104.37355171249999,104.7272448,59.0,84.0
317,104.7144607125,104.94315383333333,61.0,85.0
318,105.0553697125,105.38491507916666,63.0,86.0
319,105.39627871249999,105.90338084999999,46.0,67.0
320,105.7371877125,106.1590626,54.0,76.0
321,106.0780967125,106.22156258333332,51.0,76.0
322,105.0553697125,106.5809374875,39.0,88.0
323,106.4190057125,106.76701698333333,51.0,84.0
324,106.4190057125,106.79542606666666,54.0,80.0
325,106.4190057125,106.9474146625,58.0,83.0
326,106.75991471249999,107.14769869999999,46.0,72.0
327,107.1008237125,107.26843730416667,54.0,87.0
328,107.7826417125,108.1917325125,56.0,73.0
329,107.7826417125,108.52127787916666,59.0,79.0
330,108.12355071249999,108.52269833333332,51.0,77.0
331,107.7826417125,108.67610738333333,44.0,84.0
332,108.4644597125,108.78122099166666,56.0,85.0
333,108.8053687125,109.17894815833333,51.0,71.0
334,109.1462777125,109.59230032083333,56.0,79.0
335,109.1462777125,109.60792531666667,59.0,81.0
336,109.8280957125,109.96587976666666,56.0,78.0
337,109.48718671249999,109.98292521666666,51.0,77.0
338,109.8280957125,109.99144794166666,59.0,84.0
339,109.8280957125,110.0070729375,63.0,85.0
340,110.5099137125,111.21161807083332,64.0,80.0
341,110.85082271249999,111.2513907875,44.0,73.0
342,110.5099137125,111.27553850833333,37.0,86.0
343,111.1917317125,111.56104979583333,56.0,86.0
344,111.5326407125,111.92184515416666,61.0,84.0
345,111.8735497125,112.32809504583332,54.0,76.0
346,111.8735497125,112.51995103333333,58.0,77.0
347,112.21445871249999,112.72484563333333,49.0,74.0
348,112.5555230125,112.72484563333333,54.0,84.0
349,111.8735497125,112.79172095416666,42.0,84.0
350,113.2385050125,113.8062338,59.0,82.0
351,113.5799960125,113.8702633625,54.0,76.0
352,113.9214870125,114.31562454166666,61.0,75.0
353,114.2629780125,114.44510654583333,54.0,74.0
354,114.6044690125,114.75244844583334,54.0,85.0
355,114.9459600125,115.22342145,54.0,71.0
356,114.6044690125,115.66735975,63.0,86.0
357,115.2874510125,115.79684175416666,59.0,72.0
358,113.2385050125,115.80537902916666,47.0,86.0
359,116.65341501249999,117.03901526666667,56.0,80.0
360,116.9949060125,117.20691500833333,58.0,88.0
361,117.3363970125,117.50145099583334,59.0,83.0
362,118.0193790125,118.1474381375,56.0,72.0
363,118.0193790125,118.3779445625,63.0,85.0
364,118.0193790125,118.44624276249999,59.0,76.0
365,115.9704330125,118.4547800375,44.0,84.0
366,116.3119240125,118.476123225,51.0,77.0
367,118.3608700125,118.53303839166666,56.0,76.0
368,118.70236101249999,119.40384044166666,58.0,78.0
369,118.70236101249999,120.1238173,54.0,74.0
370,119.3853430125,120.19496125833334,61.0,74.0
371,119.72683401249999,120.26325945833334,58.0,72.0
372,120.0683250125,120.73707822083333,66.0,79.0
373,120.4098160125,120.84806279583333,54.0,73.0
374,120.75130701249999,120.88363477499999,58.0,76.0
375,119.0438520125,120.94054994166666,49.0,64.0
376,118.70236101249999,120.95762449166666,42.0,82.0
377,121.4342890125,121.7928545625,52.0,76.0
378,121.4342890125,122.45733913333333,56.0,71.0
379,122.1172710125,122.78460134166667,52.0,77.0
380,122.4587620125,122.89558591666666,59.0,77.0
381,123.1417440125,123.43628,52.0,73.0
382,121.4342890125,123.46900622083334,40.0,84.0
383,121.7757800125,123.52022987083333,47.0,73.0
384,122.8002530125,123.5259213875,64.0,82.0
385,124.1662170125,124.37538024999999,54.0,82.0
386,124.1662170125,124.88192523333333,63.0,85.0
387,124.5077080125,124.9004226625,54.0,78.0
388,124.8491990125,125.16080955,61.0,85.0
389,124.1662170125,125.3699727875,47.0,85.0
390,125.1906900125,125.37139566666667,54.0,79.0
391,125.5321810125,125.65312574166667,54.0,85.0
392,125.5321810125,125.937701575,63.0,85.0
393,125.5321810125,125.97754219166666,59.0,88.0
394,125.5321810125,126.040148875,47.0,90.0
395,125.8736720125,126.07572085416666,54.0,80.0
396,126.2151630125,126.38733139166666,47.0,98.0
397,126.2151630125,126.41009745833333,59.0,86.0
398,126.2151630125,126.44282367916666,63.0,88.0
399,126.55665401249999,126.67475298333333,46.0,88.0
400,126.8981450125,127.36200362083333,59.0,88.0
401,127.4103815125,127.56547534166667,56.0,79.0
402,127.58112701249999,127.73052932499999,59.0,80.0
403,127.7518725125,127.850051175,56.0,60.0
404,127.9226180125,128.03075682916668,59.0,72.0
405,128.0933635125,128.17589050416666,56.0,62.0
406,127.2396360125,128.31937092500002,51.0,76.0
407,128.2639732125,128.5452231375,56.0,85.0
408,128.2639732125,128.5835754,63.0,86.0
409,128.7753367125,128.8776094125,56.0,74.0
410,128.6048822125,129.00971165,51.0,77.0
411,128.9457912125,129.14749570416666,59.0,87.0
412,126.8981450125,129.21709795833334,44.0,85.0
413,129.1162457125,129.2994843,51.0,85.0
414,129.2867002125,129.50545015416668,56.0,84.0
415,129.4571547125,129.53954105416668,59.0,84.0
416,129.6276092125,129.95005230833334,54.0,81.0
417,129.6276092125,130.0281772875,58.0,85.0
418,129.96851821250002,130.37476810416666,49.0,78.0
419,130.3094272125,130.41738172916666,54.0,85.0
420,130.3094272125,130.51965442916668,58.0,86.0
421,129.6276092125,130.64465439583333,42.0,85.0
422,130.4798817125,130.671643025,54.0,85.0
423,130.6503362125,130.83073389166668,58.0,85.0
424,130.8207907125,131.41596100833334,61.0,84.0
425,131.3321542125,131.76113137083334,49.0,84.0
426,131.6730632125,131.9926654,58.0,84.0
427,131.6730632125,132.02533584583333,54.0,85.0
428,130.9912452125,132.0949381,42.0,86.0
429,132.0139722125,132.27249487083333,49.0,85.0
430,132.3548812125,132.665960675,52.0,75.0
431,132.3548812125,132.810847,56.0,76.0
432,132.69579021250001,133.39181275416666,47.0,78.0
433,133.0366992125,133.398915025,52.0,87.0
434,132.3548812125,133.40175593333333,40.0,85.0
435,133.2071537125,133.44010819583335,56.0,82.0
436,133.3776082125,133.54238089583333,59.0,72.0
437,133.7185172125,133.93726715416668,56.0,77.0
438,133.7185172125,134.18158527083332,61.0,69.0
439,134.0594262125,134.2810170625,56.0,81.0
440,133.7185172125,134.540960175,49.0,87.0
441,134.4003352125,134.56510789583334,56.0,86.0
442,134.4003352125,134.76397147916666,61.0,85.0
443,134.4003352125,134.78243738333333,64.0,82.0
444,134.7412442125,134.89607371666668,56.0,60.0
445,135.0821532125,135.53243718333334,54.0,78.0
446,135.0821532125,135.57363035416668,58.0,76.0
447,135.7639712125,135.95005070833332,61.0,84.0
448,135.7639712125,136.17732337500001,54.0,81.0
449,135.9344257125,136.194368825,58.0,76.0
450,136.1048802125,136.35914150833332,61.0,78.0
451,136.4457892125,136.73698231666665,66.0,79.0
452,136.7866982125,136.961414075,54.0,69.0
453,135.4230622125,137.50260711250002,49.0,84.0
454,137.1276072125,137.5281752875,58.0,78.0
455,137.1276072125,137.53811846666667,61.0,77.0
456,135.0821532125,137.61482299166667,42.0,85.0
457,137.4685162125,137.69152751666667,54.0,72.0
458,137.8094252125,138.20715237916667,58.0,73.0
459,137.8094252125,138.2099932875,54.0,73.0
460,137.8094252125,138.25970918333334,61.0,76.0
461,138.4912432125,138.88470901666668,54.0,85.0
462,138.8321522125,139.05942487916667,61.0,84.0
463,139.1730612125,139.29237936250001,66.0,84.0
464,138.1503342125,139.9145382875,49.0,72.0
465,137.8094252125,139.978458725,42.0,85.0
466,140.8776062125,141.34067427083335,54.0,79.0
467,141.2185152125,141.40033334583333,59.0,85.0
468,141.5594242125,141.751185525,54.0,77.0
469,141.5594242125,141.8790264,63.0,82.0
470,140.5366972125,143.00970791666666,47.0,88.0
471,142.9230602125,143.23271922083333,58.0,73.0
472,143.2639692125,143.67021910416668,56.0,72.0
473,143.2639692125,143.84209405833334,59.0,77.0
474,143.9457872125,144.1673780625,58.0,63.0
475,144.2866962125,144.478457525,59.0,77.0
476,143.6048782125,145.31794593749999,51.0,71.0
477,143.2639692125,145.4202186375,44.0,83.0
478,145.9912412125,146.66879785,63.0,84.0
479,146.6730592125,147.0267523,59.0,81.0
480,146.3321502125,147.0395363875,54.0,85.0
481,147.0139682125,147.32220676666668,63.0,85.0
482,147.6957862125,148.1389679125,54.0,67.0
483,148.0366952125,148.22277470833333,59.0,75.0
484,148.0366952125,148.31652468333334,66.0,78.0
485,145.9912412125,148.3861269375,47.0,83.0
486,149.0594222125,149.14749037083334,58.0,51.0
487,149.4003312125,149.77391065833334,63.0,82.0
488,149.7412402125,150.69152405,66.0,80.0
489,150.4230582125,150.78669447916667,63.0,78.0
490,150.7639672125,150.91595580833334,58.0,85.0
491,148.7185132125,150.9173762625,51.0,85.0
492,151.4457852125,151.842091925,52.0,73.0
493,151.4457852125,152.1062964,56.0,76.0
494,152.1276032125,152.5878303625,52.0,77.0
495,151.7866942125,152.933000725,47.0,77.0
496,151.4457852125,152.9457848125,40.0,79.0
497,152.4685122125,153.6872618875,59.0,79.0
498,153.8321482125,153.94152318333335,56.0,77.0
499,153.4912392125,153.94436409166667,47.0,76.0
500,154.1730572125,154.56652301666668,51.0,76.0
501,154.1730572125,154.75118205833334,54.0,73.0
502,154.1730572125,154.89038656666668,39.0,85.0
503,154.5139662125,154.93015928333332,46.0,66.0
504,154.8548752125,154.961409275,51.0,73.0
505,155.5366932125,155.95288628333333,56.0,71.0
506,155.5366932125,156.23413620833333,59.0,76.0
507,156.2185112125,156.62618155833334,56.0,85.0
508,155.5366932125,156.66311336666666,44.0,84.0
509,155.8776022125,156.68442017916666,51.0,81.0
510,156.9003292125,157.31084046666666,61.0,79.0
511,157.2412382125,157.67873809583332,56.0,78.0
512,157.5821472125,157.97561301666667,61.0,77.0
513,156.9003292125,158.8435105125,49.0,84.0
514,157.9230562125,159.02816955416665,64.0,84.0
515,158.9457832125,159.103453625,61.0,80.0
516,159.2866922125,159.55515805,54.0,84.0
517,159.6276012125,160.20146469583335,61.0,77.0
518,160.30941921250002,160.71282819583334,54.0,84.0
519,160.6503282125,161.03527129166667,61.0,81.0
520,161.3321462125,161.50686207500002,54.0,80.0
521,160.9912372125,161.5153848,66.0,85.0
522,161.6730552125,161.87191879583332,54.0,84.0
523,159.9685102125,162.07078237916667,49.0,80.0
524,159.6276012125,162.1077141875,42.0,82.0
525,161.6730552125,162.129021,61.0,80.0
526,162.3548732125,162.53242998333334,54.0,80.0
527,162.3548732125,162.78953218750001,59.0,80.0
528,162.6957822125,163.01822530833334,54.0,80.0
529,163.0366912125,163.3946456625,61.0,85.0
530,163.3776002125,163.6844183125,54.0,84.0
531,163.7185092125,164.1787363625,59.0,86.0
532,163.7185092125,164.353452225,63.0,86.0
533,164.0594182125,164.44009992916665,54.0,80.0
534,162.3548732125,164.4514635625,47.0,91.0
535,164.4003272125,164.53242945,59.0,74.0
536,165.0821452125,165.46424738333334,58.0,78.0
537,165.0821452125,165.76680412083334,63.0,82.0
538,165.76396321250002,166.13754265833333,58.0,80.0
539,166.1048722125,166.23413354166667,63.0,72.0
540,165.4230542125,166.53100846249998,46.0,71.0
541,166.4457812125,166.61765616666668,58.0,87.0
542,166.4457812125,166.77958794166668,66.0,84.0
543,165.0821452125,166.90032654583334,39.0,88.0
544,166.7866902125,166.94151971666668,46.0,75.0
545,167.1275992125,167.24549690833334,58.0,84.0
546,167.1275992125,167.45430367083333,63.0,86.0
547,167.4685082125,167.58072409166667,58.0,73.0
548,167.8094172125,168.22845119166666,52.0,77.0
549,167.8094172125,168.32646252916666,56.0,75.0
550,168.4912352125,168.85487147916666,52.0,85.0
551,168.1503262125,168.99691689583335,47.0,74.0
552,167.8094172125,169.01396234583333,40.0,85.0
553,168.8321442125,169.05941687916666,59.0,86.0
554,169.1730532125,169.4372576875,58.0,82.0
555,169.1730532125,169.57930310416668,54.0,80.0
556,169.8548712125,170.04095070833333,54.0,78.0
557,169.5139622125,170.251177925,49.0,78.0
558,169.1730532125,170.26112110416668,42.0,85.0
559,169.8548712125,170.28100746249999,61.0,79.0
560,170.19578021249998,170.58214374583332,54.0,84.0
561,170.5366892125,171.04237089583333,63.0,86.0
562,170.8775982125,171.26822310833333,54.0,80.0
563,171.21850721250001,171.614813925,61.0,81.0
564,171.5594162125,171.74549570833332,54.0,85.0
565,171.9003252125,172.03526835833333,54.0,86.0
566,170.5366892125,172.057995625,47.0,85.0
567,171.9003252125,172.29095010833333,59.0,84.0
568,172.2412342125,172.3903819,54.0,78.0
569,172.5821432125,172.72987044583334,47.0,87.0
570,172.5821432125,172.8122567875,54.0,84.0
571,172.5821432125,172.9358363,59.0,84.0
572,172.9230522125,173.15174533333334,61.0,85.0
573,173.2639612125,173.59350657916667,63.0,86.0
574,173.6048702125,174.11197235,46.0,67.0
575,173.94577921249999,174.3676541,54.0,76.0
576,174.2866882125,174.43015408333332,51.0,76.0
577,173.2639612125,174.7895289875,39.0,88.0
578,174.6275972125,174.97560848333333,51.0,84.0
579,174.6275972125,175.00401756666668,54.0,80.0
580,174.6275972125,175.1560061625,58.0,83.0
581,174.96850621250002,175.3562902,46.0,72.0
582,175.3094152125,175.47702880416665,54.0,87.0
583,175.9912332125,176.4003240125,56.0,73.0
584,175.9912332125,176.72986937916667,59.0,79.0
585,176.3321422125,176.73128983333334,51.0,77.0
586,175.9912332125,176.88469888333333,44.0,84.0
587,176.6730512125,176.98981249166667,56.0,85.0
588,177.0139602125,177.38753965833334,51.0,71.0
589,177.3548692125,177.80089182083333,56.0,79.0
590,177.3548692125,177.81651681666665,59.0,81.0
591,178.0366872125,178.17447126666667,56.0,78.0
592,177.6957782125,178.19151671666668,51.0,77.0
593,178.0366872125,178.20003944166666,59.0,84.0
594,178.0366872125,178.2156644375,63.0,85.0
595,178.7185052125,179.1957778125,64.0,85.0
596,179.0594142125,179.44861865416667,56.0,85.0
597,179.40032321249998,179.82503900833333,61.0,83.0
598,179.7412322125,179.94293670416667,56.0,73.0
599,180.0821412125,180.4699252,64.0,89.0
600,180.42305021250002,180.5679365375,56.0,72.0
601,178.7185052125,180.8918000875,49.0,89.0
602,180.7639592125,181.20287955,61.0,84.0
603,181.1048682125,181.3008908875,49.0,89.0
604,181.4457772125,182.13753839166668,54.0,79.0
605,181.4457772125,182.1616861125,61.0,82.0
606,182.1275952125,182.32645879583333,58.0,80.0
607,182.4685042125,182.592083725,54.0,86.0
608,181.7866862125,182.9202086375,49.0,78.0
609,181.4457772125,183.04520860416667,42.0,84.0
610,182.8094132125,183.21992446666667,66.0,79.0
611,182.8094132125,183.24265173333333,58.0,86.0
612,182.8094132125,183.2440721875,61.0,85.0
613,182.8094132125,183.2866858125,54.0,82.0
614,183.4912312125,183.65174253333333,54.0,79.0
615,183.4912312125,184.18299239166666,58.0,80.0
616,183.8321402125,184.20571965833332,54.0,78.0
617,184.1730492125,184.20571965833332,54.0,80.0
618,183.1503222125,184.21282192916667,49.0,78.0
619,183.4912312125,184.21850374583335,61.0,82.0
620,184.1730492125,184.6077081875,59.0,80.0
621,184.5139582125,184.83640130833334,54.0,80.0
622,184.85486721249998,185.2128216625,61.0,85.0
623,185.1957762125,185.5025943125,54.0,84.0
624,185.5366852125,185.99691236249998,59.0,86.0
625,185.5366852125,186.171628225,63.0,86.0
626,185.87759421250001,186.25827592916667,54.0,80.0
627,184.1730492125,186.2696395625,47.0,91.0
628,186.2185032125,186.35060545,59.0,74.0
629,186.9003212125,187.28242338333334,58.0,78.0
630,186.9003212125,187.58498012083334,63.0,82.0
631,187.5821392125,187.95571865833332,58.0,80.0
632,187.9230482125,188.05230954166666,63.0,72.0
633,187.2412302125,188.3491844625,46.0,71.0
634,188.2639572125,188.43583216666667,58.0,87.0
635,188.2639572125,188.59776394166667,66.0,84.0
636,186.9003212125,188.71850254583333,39.0,88.0
637,188.60486621249999,188.75969571666667,46.0,75.0
638,188.9457752125,189.06367290833333,58.0,84.0
639,188.9457752125,189.27247967083332,63.0,86.0
640,189.2866842125,189.39890009166666,58.0,73.0
641,189.62759321250002,190.04662719166666,52.0,77.0
642,189.62759321250002,190.14463852916666,56.0,75.0
643,190.3094112125,190.67304747916666,52.0,85.0
644,189.9685022125,190.81509289583335,47.0,74.0
645,189.62759321250002,190.83213834583333,40.0,85.0
646,190.6503202125,190.87759287916666,59.0,86.0
647,190.9912292125,191.2554336875,58.0,82.0
648,190.9912292125,191.39747910416668,54.0,80.0
649,191.6730472125,191.85912670833335,54.0,78.0
650,191.3321382125,192.069353925,49.0,78.0
651,190.9912292125,192.07929710416667,42.0,85.0
652,191.6730472125,192.0991834625,61.0,79.0
653,192.0139562125,192.40031974583331,54.0,84.0
654,192.3548652125,192.86054689583335,63.0,86.0
655,192.6957742125,193.08639910833335,54.0,80.0
656,193.0366832125,193.43298992500002,61.0,81.0
657,193.37759221250002,193.56367170833335,54.0,85.0
658,193.7185012125,193.85344435833332,54.0,86.0
659,192.3548652125,193.87617162499998,47.0,85.0
660,193.7185012125,194.10912610833333,59.0,84.0
661,194.05941021249998,194.20855790000002,54.0,78.0
662,194.4003192125,194.54804644583334,47.0,87.0
663,194.4003192125,194.6304327875,54.0,84.0
664,194.4003192125,194.7540123,59.0,84.0
665,194.7412282125,194.96992133333333,61.0,85.0
666,195.08213721250002,195.41168257916667,63.0,86.0
667,195.4230462125,195.93014835,46.0,67.0
668,195.76395521249998,196.1858301,54.0,76.0
669,196.1048642125,196.24833008333331,51.0,76.0
670,195.08213721250002,196.6077049875,39.0,88.0
671,196.4457732125,196.79378448333333,51.0,84.0
672,196.4457732125,196.82219356666667,54.0,80.0
673,196.4457732125,196.9741821625,58.0,83.0
674,196.7866822125,197.17446619999998,46.0,72.0
675,197.1275912125,197.29520480416664,54.0,87.0
676,197.8094092125,198.2185000125,56.0,73.0
677,197.8094092125,198.54804537916667,59.0,79.0
678,198.1503182125,198.54946583333333,51.0,77.0
679,197.8094092125,198.70287488333332,44.0,84.0
680,198.4912272125,198.80798849166666,56.0,85.0
681,198.83213621250002,199.20571565833333,51.0,71.0
682,199.1730452125,199.61906782083332,56.0,79.0
683,199.1730452125,199.63469281666667,59.0,81.0
684,199.8548632125,199.99264726666667,56.0,78.0
685,199.51395421249998,200.00969271666668,51.0,77.0
686,199.8548632125,200.01821544166665,59.0,84.0
687,199.8548632125,200.0338404375,63.0,85.0
688,200.5366812125,201.23838557083332,64.0,80.0
689,200.8775902125,201.2781582875,44.0,73.0
690,200.5366812125,201.30230600833335,37.0,86.0
691,201.21849921249998,201.58781729583333,56.0,86.0
692,201.5594082125,201.94861265416665,61.0,84.0
693,201.9003172125,202.35486254583333,54.0,76.0
694,201.9003172125,202.54662385833333,58.0,77.0
695,202.2412262125,202.75116925833333,49.0,74.0
696,202.5821352125,202.75116925833333,54.0,84.0
697,201.9003172125,202.81793060416666,42.0,84.0
698,203.26395321249998,203.830714425,59.0,82.0
699,203.6048622125,203.8946348625,54.0,76.0
700,203.9457712125,204.3392370166667,61.0,75.0
701,204.28668021250002,204.46849834583332,54.0,74.0
702,204.6275892125,204.7753164458333,54.0,85.0
703,204.96849821249998,205.24548677500002,54.0,71.0
704,204.6275892125,205.688668475,63.0,86.0
705,205.3094072125,205.81792980416668,59.0,72.0
706,203.26395321249998,205.82645252916666,47.0,86.0
707,205.9912252125,206.33781602916667,62.0,73.0
708,205.9912252125,206.44435009166665,55.0,79.0
709,206.3321342125,206.77815682083332,50.0,66.0
710,205.9912252125,206.82787271666666,43.0,91.0
711,206.6730432125,206.8335545333333,59.0,81.0
712,206.6730432125,206.85344089166665,55.0,80.0
713,206.6730432125,206.88042952083333,62.0,79.0
714,207.3548612125,207.68866794166667,43.0,95.0
715,207.3548612125,207.69719066666667,59.0,84.0
716,207.3548612125,207.71139520833333,55.0,83.0
717,207.3548612125,207.71139520833333,62.0,81.0
718,207.3548612125,207.74548610833335,67.0,80.0
719,207.6957702125,207.8065656375,50.0,84.0
720,208.03667921250002,208.1162246458333,43.0,89.0
721,208.03667921250002,208.1645200875,50.0,84.0
722,208.03667921250002,208.18156553749998,59.0,79.0
723,208.03667921250002,208.23838370416667,62.0,76.0
724,208.03667921250002,208.24264506666668,55.0,72.0
725,208.3775882125,208.4969063625,43.0,85.0
726,208.71849721249998,211.35343969166667,59.0,85.0
727,208.71849721249998,211.38042832083335,62.0,81.0
728,208.71849721249998,211.38326922916667,55.0,78.0
729,208.71849721249998,211.3946328625,43.0,88.0
730,208.71849721249998,211.40173513333332,50.0,85.0
731,208.71849721249998,211.43156467083332,67.0,80.0
732,211.4457692125,211.62332598333333,55.0,80.0
733,211.4457692125,211.8804281875,60.0,80.0
734,211.7866782125,212.10912130833333,55.0,80.0
735,212.1275872125,212.4855416625,62.0,85.0
736,212.46849621249999,212.7753143125,55.0,84.0
737,212.8094052125,213.2696323625,60.0,86.0
738,212.8094052125,213.444348225,64.0,86.0
739,213.1503142125,213.53099592916666,55.0,80.0
740,211.4457692125,213.5423595625,48.0,91.0
741,213.49122321250002,213.62332544999998,60.0,74.0
742,214.17304121249998,214.55514338333333,59.0,78.0
743,214.17304121249998,214.85770012083333,64.0,82.0
744,214.8548592125,215.22843865833335,59.0,80.0
745,215.1957682125,215.32502954166665,64.0,72.0
746,214.5139502125,215.6219044625,47.0,71.0
747,215.5366772125,215.70855216666666,59.0,87.0
748,215.5366772125,215.87048394166666,67.0,84.0
749,214.17304121249998,215.99122254583335,40.0,88.0
750,215.87758621249998,216.03241571666666,47.0,75.0
751,216.2184952125,216.33639290833332,59.0,84.0
752,216.2184952125,216.5451996708333,64.0,86.0
753,216.5594042125,216.67162009166668,59.0,73.0
754,216.9003132125,217.31934719166668,53.0,77.0
755,216.9003132125,217.41735852916668,57.0,75.0
756,217.5821312125,217.94576747916665,53.0,85.0
757,217.2412222125,218.08781289583334,48.0,74.0
758,216.9003132125,218.10485834583335,41.0,85.0
759,217.92304021249998,218.15031287916668,60.0,86.0
760,218.2639492125,218.52815368749998,59.0,82.0
761,218.2639492125,218.67019910416667,55.0,80.0
762,218.94576721250002,219.13184670833334,55.0,78.0
763,218.6048582125,219.342073925,50.0,78.0
764,218.2639492125,219.35201710416666,43.0,85.0
765,218.94576721250002,219.3719034625,62.0,79.0
766,219.2866762125,219.67303974583334,55.0,84.0
767,219.62758521249998,220.13326689583334,64.0,86.0
768,219.9684942125,220.35911910833335,55.0,80.0
769,220.3094032125,220.705709925,62.0,81.0
770,220.6503122125,220.83639170833334,55.0,85.0
771,220.9912212125,221.1261643583333,55.0,86.0
772,219.62758521249998,221.148891625,48.0,85.0
773,220.9912212125,221.38184610833332,60.0,84.0
774,221.3321302125,221.4812779,55.0,78.0
775,221.6730392125,221.82076644583333,48.0,87.0
776,221.6730392125,221.9031527875,55.0,84.0
777,221.6730392125,222.0267323,60.0,84.0
778,222.0139482125,222.24264133333332,62.0,85.0
779,222.3548572125,222.68440257916666,64.0,86.0
780,222.69576621250002,223.20286835000002,47.0,67.0
781,223.0366752125,223.4585501,55.0,76.0
782,223.37758421249998,223.52105008333334,52.0,76.0
783,222.3548572125,223.8804249875,40.0,88.0
784,223.7184932125,224.06650448333335,52.0,84.0
785,223.7184932125,224.09491356666666,55.0,80.0
786,223.7184932125,224.2469021625,59.0,83.0
787,224.0594022125,224.4471862,47.0,72.0
788,224.40031121250001,224.56792480416667,55.0,87.0
789,225.08212921249998,225.49122001249998,57.0,73.0
790,225.08212921249998,225.82076537916666,60.0,79.0
791,225.4230382125,225.82218583333332,52.0,77.0
792,225.08212921249998,225.97559488333332,45.0,84.0
793,225.7639472125,226.08070849166666,57.0,85.0
794,226.1048562125,226.47843565833332,52.0,71.0
795,226.4457652125,226.89178782083331,57.0,79.0
796,226.4457652125,226.90741281666666,60.0,81.0
797,227.12758321249999,227.26536726666666,57.0,78.0
798,226.7866742125,227.28241271666667,52.0,77.0
799,227.12758321249999,227.29093544166665,60.0,84.0
800,227.12758321249999,227.3065604375,64.0,85.0
801,227.8094012125,228.2866738125,65.0,85.0
802,228.15031021250002,228.53951465416668,57.0,85.0
803,228.4912192125,228.91593500833335,62.0,83.0
804,228.83212821249998,229.03383270416668,57.0,73.0
805,229.1730372125,229.5608212,65.0,89.0
806,229.5139462125,229.65883253750002,57.0,72.0
807,227.8094012125,229.98269608750002,50.0,89.0
808,229.8548552125,230.29377555,62.0,84.0
809,230.1957642125,230.39178688750002,50.0,89.0
810,230.53667321249998,231.22843439166667,55.0,79.0
811,230.53667321249998,231.2525821125,62.0,82.0
812,231.2184912125,231.41735479583332,59.0,80.0
813,231.5594002125,231.682979725,55.0,86.0
814,230.8775822125,232.0111046375,50.0,78.0
815,230.53667321249998,232.13610460416666,43.0,84.0
816,231.9003092125,232.31082046666666,67.0,79.0
817,231.9003092125,232.33354773333332,59.0,86.0
818,231.9003092125,232.3349681875,62.0,85.0
819,231.9003092125,232.3775818125,55.0,82.0
820,232.58212721249998,232.74263853333332,55.0,79.0
821,232.58212721249998,233.27388839166667,59.0,80.0
822,232.9230362125,233.29661565833334,55.0,78.0
823,233.2639452125,233.29661565833334,55.0,80.0
824,232.2412182125,233.30371792916668,50.0,78.0
825,232.58212721249998,233.30939974583333,62.0,82.0
826,233.2639452125,233.6986041875,60.0,80.0
827,233.60485421250002,233.92729730833332,55.0,80.0
828,233.9457632125,234.3037176625,62.0,85.0
829,234.28667221249998,234.5934903125,55.0,84.0
830,234.6275812125,235.0878083625,60.0,86.0
831,234.6275812125,235.262524225,64.0,86.0
832,234.9684902125,235.34917192916666,55.0,80.0
833,233.2639452125,235.3605355625,48.0,91.0
834,235.3093992125,235.44150145,60.0,74.0
835,235.9912172125,236.37331938333332,59.0,78.0
836,235.9912172125,236.67587612083332,64.0,82.0
837,236.6730352125,237.04661465833334,59.0,80.0
838,237.0139442125,237.14320554166665,64.0,72.0
839,236.3321262125,237.4400804625,47.0,71.0
840,237.35485321250002,237.52672816666666,59.0,87.0
841,237.35485321250002,237.68865994166666,67.0,84.0
842,235.9912172125,237.80939854583335,40.0,88.0
843,237.6957622125,237.85059171666666,47.0,75.0
844,238.03667121249998,238.15456890833332,59.0,84.0
845,238.03667121249998,238.36337567083334,64.0,86.0
846,238.3775802125,238.48979609166668,59.0,73.0
847,238.7184892125,239.13752319166667,53.0,77.0
848,238.7184892125,239.23553452916667,57.0,75.0
849,239.4003072125,239.76394347916667,53.0,85.0
850,239.0593982125,239.90598889583333,48.0,74.0
851,238.7184892125,239.92303434583334,41.0,85.0
852,239.74121621249998,239.96848887916667,60.0,86.0
853,240.0821252125,240.3463296875,59.0,82.0
854,240.0821252125,240.48837510416666,55.0,80.0
855,240.7639432125,240.95002270833334,55.0,78.0
856,240.4230342125,241.16024992500002,50.0,78.0
857,240.0821252125,241.17019310416666,43.0,85.0
858,240.7639432125,241.1900794625,62.0,79.0
859,241.1048522125,241.49121574583333,55.0,84.0
860,241.4457612125,241.95144289583334,64.0,86.0
861,241.78667021249998,242.17729510833334,55.0,80.0
862,242.1275792125,242.523885925,62.0,81.0
863,242.4684882125,242.65456770833333,55.0,85.0
864,242.80939721250002,242.94434035833333,55.0,86.0
865,241.4457612125,242.967067625,48.0,85.0
866,242.80939721250002,243.20002210833331,60.0,84.0
867,243.1503062125,243.2994539,55.0,78.0
868,243.49121521249998,243.63894244583332,48.0,87.0
869,243.49121521249998,243.7213287875,55.0,84.0
870,243.49121521249998,243.8449083,60.0,84.0
871,243.8321242125,244.06081733333332,62.0,85.0
872,244.1730332125,244.50257857916665,64.0,86.0
873,244.5139422125,245.02104435,47.0,67.0
874,244.8548512125,245.2767261,55.0,76.0
875,245.19576021249998,245.33922608333333,52.0,76.0
876,244.1730332125,245.69860098750001,40.0,88.0
877,245.5366692125,245.88468048333334,52.0,84.0
878,245.5366692125,245.91308956666666,55.0,80.0
879,245.5366692125,246.06507816250001,59.0,83.0
880,245.8775782125,246.2653622,47.0,72.0
881,246.2184872125,246.38610080416666,55.0,87.0
882,246.9003052125,247.3093960125,57.0,73.0
883,246.9003052125,247.63894137916668,60.0,79.0
884,247.24121421249998,247.64036183333332,52.0,77.0
885,246.9003052125,247.7937708833333,45.0,84.0
886,247.5821232125,247.89888449166665,57.0,85.0
887,247.9230322125,248.29661165833335,52.0,71.0
888,248.26394121250001,248.7099638208333,57.0,79.0
889,248.26394121250001,248.72558881666666,60.0,81.0
890,248.94575921249998,249.08354326666665,57.0,78.0
891,248.6048502125,249.10058871666666,52.0,77.0
892,248.94575921249998,249.10911144166667,60.0,84.0
893,248.94575921249998,249.1247364375,64.0,85.0
894,249.6275772125,250.32928157083333,65.0,80.0
895,249.9684862125,250.36905428749998,45.0,73.0
896,249.6275772125,250.39320200833333,38.0,86.0
897,250.3093952125,250.67871329583335,57.0,86.0
898,250.6503042125,251.03950865416667,62.0,84.0
899,250.99121321249999,251.4457585458333,55.0,76.0
900,250.99121321249999,251.63751985833335,59.0,77.0
901,251.3321222125,251.84206525833332,50.0,74.0
902,251.6730312125,251.84206525833332,55.0,84.0
903,250.99121321249999,251.90882660416668,43.0,84.0
904,253.0110990375,253.42303074583333,57.0,67.0
905,253.347746675,253.78950792083333,65.0,82.0
906,252.65172413333335,254.28950778749999,48.0,67.0
907,252.3207583125,254.31223505416665,41.0,84.0
908,254.00541695416666,254.36905322083334,60.0,72.0
909,254.30939414583332,254.41024639166665,53.0,76.0
910,255.018200775,255.92729144166668,59.0,70.0
911,255.00683714166667,255.99405278749998,52.0,69.0
912,256.0395073208333,257.1119502166666,55.0,82.0
913,256.77956394166665,257.1417797541667,64.0,82.0
914,255.37899613333332,257.1687683833334,47.0,64.0
915,255.02246213749999,257.2113820083333,40.0,77.0
916,257.0949047666667,257.21564337083333,52.0,78.0
917,257.89320000833334,258.54092710833334,50.0,39.0
918,257.9826886208333,259.0011542583334,62.0,77.0
919,258.93155200416663,259.80939267916665,50.0,76.0
920,257.9727454416667,259.83496085416664,38.0,84.0
921,258.45427940416664,259.8463244875,45.0,65.0
922,260.36336980416667,261.0380855333333,50.0,57.0
923,259.9145062875,261.0707559791667,43.0,85.0
924,260.8860969375,261.6218921958333,55.0,75.0
925,263.1190508875,263.7753007125,48.0,74.0
926,263.3591076416667,263.85768705416666,55.0,72.0
927,263.9940506541667,264.1289938,48.0,71.0
928,263.7525734458333,264.1744483333333,60.0,77.0
929,264.8250163416667,265.0309821958333,60.0,58.0
930,264.9912094791666,265.057970825,67.0,68.0
931,265.0338231041667,265.18155033749997,72.0,72.0
932,266.2071182458333,266.33495912083333,72.0,27.0
933,266.2326864208333,266.3520045708333,76.0,69.0
934,266.27103868333336,266.49547044166667,84.0,69.0
935,262.3349601875,266.9017203333333,36.0,83.0
936,262.8221759666667,266.9017203333333,43.0,77.0
