,start,end,pitch,velocity
0,18.04187506875,18.14550196875,69.0,107.0
1,18.30094231875,18.408887006249998,69.0,95.0
2,18.560009568749997,18.65500089375,69.0,97.0
3,18.81907681875,18.901114781249998,69.0,95.0
4,19.07814406875,19.40629591875,69.0,102.0
5,19.596278568749998,19.98272055,66.0,112.0
6,20.11441306875,21.701199974999998,64.0,112.0
7,22.18695106875,22.273306818749997,69.0,122.0
8,22.44601831875,22.543168537499998,69.0,102.0
9,22.70508556875,22.80007689375,69.0,99.0
10,22.964152818749998,23.046190781249997,69.0,97.0
11,23.22322006875,23.402408249999997,69.0,112.0
12,23.741354568749998,24.05655305625,66.0,122.0
13,24.25948906875,24.481855125,64.0,102.0
14,24.518556318749997,25.829004825,62.0,100.0
15,26.332027068749998,26.414065031249997,62.0,99.0
16,26.59109431875,26.690403431249997,62.0,95.0
17,26.85016156875,26.94083510625,62.0,89.0
18,27.109228818749997,27.21285571875,62.0,86.0
19,27.36829606875,27.677017874999997,62.0,100.0
20,27.886430568749997,28.240489143749997,66.0,99.0
21,28.40456506875,29.272440356249998,64.0,90.0
22,28.922699568749998,30.0215764875,59.0,95.0
23,30.477103068749997,30.5742532875,59.0,100.0
24,30.73617031875,30.835479431249997,59.0,90.0
25,30.99523756875,31.096705574999998,59.0,92.0
26,31.254304818749997,31.355772825,59.0,96.0
27,31.513372068749998,31.75948595625,62.0,112.0
28,32.03150656875,32.44601416875,54.0,99.0
29,32.54964106875,34.04143665,57.0,97.0
30,34.62217906875,34.734441543749995,69.0,107.0
31,34.88124631875,34.980555431249996,69.0,100.0
32,35.140313568749995,35.23962268125,69.0,102.0
33,35.39938081875,35.49868993125,69.0,93.0
34,35.65844806875,35.990917706249995,69.0,112.0
35,36.17658256875,36.519846675,66.0,107.0
36,36.694717068749995,38.12822251875,64.0,96.0
37,38.767255068749996,38.8600875,69.0,112.0
38,39.02632231875,39.11699585625,69.0,107.0
39,39.28538956875,39.378222,69.0,100.0
40,39.54445681875,39.620018099999996,69.0,93.0
41,39.80352406875,40.01077786875,69.0,95.0
42,40.321658568749996,40.604473649999996,66.0,127.0
43,40.83979306875,41.338497525,64.0,97.0
44,41.35792756875,42.478393425,62.0,95.0
45,42.91233106875,42.998686818749995,62.0,100.0
46,43.17139831875,43.257754068749996,62.0,88.0
47,43.430465568749995,43.52977468125,62.0,82.0
48,43.689532818749996,43.78452414375,62.0,96.0
49,43.94860006875,44.250845193749996,62.0,100.0
50,44.46673456875,44.814316462499995,66.0,117.0
51,44.984869068749994,45.785818649999996,64.0,117.0
52,45.503003568749996,46.12044718125,59.0,90.0
53,47.057407068749995,47.17398733125,59.0,95.0
54,47.31647431875,47.42873679375,59.0,85.0
55,47.57554156875,47.6985985125,59.0,93.0
56,47.83460881875,48.0008436375,59.0,97.0
57,48.09367606875,48.350584424999994,62.0,99.0
58,48.611810568749995,49.013364806249996,54.0,95.0
59,49.12994506875,49.55308824375,57.0,107.0
60,51.20248306875,52.0422927375,69.0,107.0
61,52.238752068749996,52.7806344,74.0,122.0
62,53.27502106875,53.635556324999996,71.0,127.0
63,53.793155568749995,53.961549281249994,69.0,112.0
64,54.052222818749996,54.218457637499995,71.0,99.0
65,54.31129006875,54.861807975,67.0,117.0
66,55.347559068749995,55.587196275,64.0,112.0
67,55.606626318749996,55.913189231249994,67.0,95.0
68,55.86569356875,56.11396635,64.0,96.0
69,56.12476081875,56.27156559375,67.0,95.0
70,56.38382806875,56.895485887499994,71.0,122.0
71,57.161029818749995,57.303516806249995,69.0,112.0
72,57.420097068749996,58.78883570625,69.0,122.0
73,59.49263506875,60.14030319374999,69.0,112.0
74,60.528904068749995,61.15066546875,74.0,127.0
75,61.56517306875,61.891166025,71.0,112.0
76,62.083307568749994,62.305673625,69.0,127.0
77,62.342374818749995,62.547469725,71.0,102.0
78,62.601442068749996,63.1087821,67.0,117.0
79,63.37864381875,63.598850981249996,66.0,122.0
80,63.637711068749994,63.883824956249995,64.0,96.0
81,63.896778318749995,64.16879893125,67.0,97.0
82,64.15584556875,64.37173494375,64.0,100.0
83,64.41491281875,64.594101,67.0,102.0
84,64.67398006875,64.88771055,69.0,127.0
85,64.93304731875,65.43822845625,71.0,117.0
86,65.71024906875,66.15498118125,71.0,122.0
87,66.22838356874999,67.2840826125,62.0,107.0
88,67.78278706875,68.03753653125,64.0,100.0
89,68.04185431875,68.27933263125,67.0,97.0
90,68.30092156875,68.58589554375,64.0,93.0
91,68.55998881875,68.81905606875,67.0,100.0
92,68.81905606875,69.17095574999999,71.0,100.0
93,69.33719056874999,69.611370075,69.0,127.0
94,69.85532506874999,70.09280338125,64.0,102.0
95,70.11439231874999,70.39504850624999,67.0,83.0
96,70.37345956875,70.62173235,64.0,100.0
97,70.63252681875,70.92181858125,67.0,100.0
98,70.89159406875,71.2823538375,71.0,100.0
99,71.40972856875,71.71845037499999,62.0,102.0
100,71.92786306875,72.3186228375,69.0,112.0
101,72.44599756875,72.77414941875,74.0,122.0
102,72.96413206874999,73.186498125,74.0,127.0
103,73.22319931874999,73.47794878124999,71.0,127.0
104,73.74133381875,73.89677416875,69.0,102.0
105,74.00040106875,74.47103990625,69.0,112.0
106,74.51853556875,75.49867333124999,67.0,99.0
107,75.55480456875,75.84409633125,66.0,127.0
108,76.07293906874999,76.2564450375,64.0,112.0
109,76.33200631874999,76.59970914374999,67.0,112.0
110,76.59107356874999,76.83286966874999,64.0,96.0
111,76.85014081874999,77.05739461875,67.0,102.0
112,77.10920806875,77.4567899625,71.0,127.0
113,77.62734256875,77.77846513125,69.0,112.0
114,78.14547706875,78.33545971875,64.0,97.0
115,78.40454431875,78.59884475624999,67.0,100.0
116,78.66361156875,78.816893025,64.0,95.0
117,78.92267881875,79.05653023125,67.0,112.0
118,79.18174606875,79.52069238749999,71.0,127.0
119,79.69988056874999,80.01723795,62.0,102.0
120,80.21801506874999,80.42310997499999,59.0,99.0
121,80.47708231874999,80.64979381875,62.0,93.0
122,80.73614956875,80.93476779375,59.0,96.0
123,80.99521681875,81.12043265624999,62.0,102.0
124,81.25428406875,81.61266043124999,66.0,117.0
125,81.77241856875,82.09409373749999,64.0,117.0
126,82.29055306875,83.47362684375,62.0,127.0
127,84.36309106875,84.4775124375,69.0,127.0
128,84.62215831875,84.88770224999999,69.0,112.0
129,85.14029281875,85.23312525,69.0,127.0
130,85.39936006875,85.68433404375,69.0,107.0
131,85.91749456875,86.2218985875,66.0,127.0
132,86.43562906874999,87.62302063125,64.0,122.0
133,88.50816706875,88.6009995,59.0,112.0
134,88.76723431875,88.86006675,62.0,100.0
135,89.02630156875,89.13856404375,59.0,96.0
136,89.28536881875,89.38036014375,62.0,107.0
137,89.54443606874999,89.8315689375,66.0,127.0
138,90.06257056874999,90.2719832625,64.0,117.0
139,90.32163781874999,90.46628369999999,66.0,97.0
140,90.58070506874999,91.90842472499999,62.0,122.0
141,109.23354706875,109.33717396875,69.0,107.0
142,109.49261431875,109.60055900625,69.0,95.0
143,109.75168156874999,109.84667289375,69.0,97.0
144,110.01074881874999,110.09278678125,69.0,95.0
145,110.26981606874999,110.59796791874999,69.0,102.0
146,110.78795056874999,111.17439255,66.0,112.0
147,111.30608506875,112.89287197499999,64.0,112.0
148,113.37862306874999,113.46497881875,69.0,122.0
149,113.63769031874999,113.73484053749999,69.0,102.0
150,113.89675756874999,113.99174889375,69.0,99.0
151,114.15582481874999,114.23786278124999,69.0,97.0
152,114.41489206874999,114.59408024999999,69.0,112.0
153,114.93302656875,115.24822505624999,66.0,122.0
154,115.45116106875,115.67352712499999,64.0,102.0
155,115.71022831875,117.020676825,62.0,100.0
156,117.52369906874999,117.60573703124999,62.0,99.0
157,117.78276631874999,117.88207543124999,62.0,95.0
158,118.04183356875,118.13250710624999,62.0,89.0
159,118.30090081875,118.40452771874999,62.0,86.0
160,118.55996806875,118.86868987499999,62.0,100.0
161,119.07810256875,119.43216114375,66.0,99.0
162,119.59623706875,120.46411235625,64.0,90.0
163,120.11437156874999,121.2132484875,59.0,95.0
164,121.66877506875,121.7659252875,59.0,100.0
165,121.92784231875,122.02715143124999,59.0,90.0
166,122.18690956875,122.288377575,59.0,92.0
167,122.44597681875,122.547444825,59.0,96.0
168,122.70504406875,122.95115795624999,62.0,112.0
169,123.22317856874999,123.63768616875,54.0,99.0
170,123.74131306874999,125.23310864999999,57.0,97.0
171,125.81385106875,125.92611354374999,69.0,107.0
172,126.07291831875,126.17222743125,69.0,100.0
173,126.33198556875,126.43129468125,69.0,102.0
174,126.59105281874999,126.69036193125,69.0,93.0
175,126.85012006874999,127.18258970625,69.0,112.0
176,127.36825456874999,127.711518675,66.0,107.0
177,127.88638906874999,129.31989451875,64.0,96.0
178,129.95892706875,130.0517595,69.0,112.0
179,130.21799431875,130.30866785625,69.0,107.0
180,130.47706156875,130.569894,69.0,100.0
181,130.73612881875,130.8116901,69.0,93.0
182,130.99519606875,131.20244986875,69.0,95.0
183,131.51333056874998,131.79614565,66.0,127.0
184,132.03146506874998,132.530169525,64.0,97.0
185,132.54959956874998,133.670065425,62.0,95.0
186,134.10400306875,134.19035881874998,62.0,100.0
187,134.36307031875,134.44942606875,62.0,88.0
188,134.62213756875,134.72144668125,62.0,82.0
189,134.88120481874998,134.97619614375,62.0,96.0
190,135.14027206875,135.44251719374998,62.0,100.0
191,135.65840656875,136.0059884625,66.0,117.0
192,136.17654106875,136.97749065,64.0,117.0
193,136.69467556875,137.31211918124998,59.0,90.0
194,138.24907906874998,138.36565933125,59.0,95.0
195,138.50814631875,138.62040879375,59.0,85.0
196,138.76721356874998,138.8902705125,59.0,93.0
197,139.02628081875,139.19251563749998,59.0,97.0
198,139.28534806874998,139.542256425,62.0,99.0
199,139.80348256874998,140.20503680624998,54.0,95.0
200,140.32161706875,140.74476024375,57.0,107.0
201,142.39415506875,143.2339647375,69.0,107.0
202,143.43042406875,143.97230639999998,74.0,122.0
203,144.46669306875,144.827228325,71.0,127.0
204,144.98482756874998,145.15322128124998,69.0,112.0
205,145.24389481875,145.41012963749998,71.0,99.0
206,145.50296206874998,146.053479975,67.0,117.0
207,146.53923106874998,146.77886827499998,64.0,112.0
208,146.79829831875,147.10486123125,67.0,95.0
209,147.05736556875,147.30563834999998,64.0,96.0
210,147.31643281875,147.46323759375,67.0,95.0
211,147.57550006875,148.08715788749998,71.0,122.0
212,148.35270181874998,148.49518880624998,69.0,112.0
213,148.61176906875,149.98050770625,69.0,122.0
214,150.68430706875,151.33197519375,69.0,112.0
215,151.72057606874998,152.34233746875,74.0,127.0
216,152.75684506874998,153.082838025,71.0,112.0
217,153.27497956874998,153.49734562499998,69.0,127.0
218,153.53404681875,153.739141725,71.0,102.0
219,153.79311406875,154.3004541,67.0,117.0
220,154.57031581875,154.79052298124998,66.0,122.0
221,154.82938306875,155.07549695625,64.0,96.0
222,155.08845031874998,155.36047093124998,67.0,97.0
223,155.34751756875,155.56340694374998,64.0,100.0
224,155.60658481874998,155.78577299999998,67.0,102.0
225,155.86565206875,156.07938255,69.0,127.0
226,156.12471931874998,156.62990045625,71.0,117.0
227,156.90192106875,157.34665318125,71.0,122.0
228,157.42005556875,158.4757546125,62.0,107.0
229,158.97445906874998,159.22920853124998,64.0,100.0
230,159.23352631875,159.47100463125,67.0,97.0
231,159.49259356874998,159.77756754375,64.0,93.0
232,159.75166081875,160.01072806874998,67.0,100.0
233,160.01072806874998,160.36262775,71.0,100.0
234,160.52886256875,160.80304207499998,69.0,127.0
235,161.04699706875,161.28447538125,64.0,102.0
236,161.30606431875,161.58672050625,67.0,83.0
237,161.56513156875,161.81340434999998,64.0,100.0
238,161.82419881874998,162.11349058124998,67.0,100.0
239,162.08326606875,162.4740258375,71.0,100.0
240,162.60140056875,162.910122375,62.0,102.0
241,163.11953506875,163.5102948375,69.0,112.0
242,163.63766956875,163.96582141874998,74.0,122.0
243,164.15580406875,164.378170125,74.0,127.0
244,164.41487131875,164.66962078125,71.0,127.0
245,164.93300581875,165.08844616874998,69.0,102.0
246,165.19207306874998,165.66271190625,69.0,112.0
247,165.71020756874998,166.69034533125,67.0,99.0
248,166.74647656874998,167.03576833124998,66.0,127.0
249,167.26461106874999,167.4481170375,64.0,112.0
250,167.52367831875,167.79138114375,67.0,112.0
251,167.78274556875,168.02454166875,64.0,96.0
252,168.04181281875,168.24906661875,67.0,102.0
253,168.30088006875,168.6484619625,71.0,127.0
254,168.81901456875,168.97013713125,69.0,112.0
255,169.33714906875,169.52713171874998,64.0,97.0
256,169.59621631874998,169.79051675624999,67.0,100.0
257,169.85528356875,170.008565025,64.0,95.0
258,170.11435081874998,170.24820223125,67.0,112.0
259,170.37341806875,170.7123643875,71.0,127.0
260,170.89155256875,171.20890995,62.0,102.0
261,171.40968706875,171.614781975,59.0,99.0
262,171.66875431875,171.84146581874998,62.0,93.0
263,171.92782156874998,172.12643979375,59.0,96.0
264,172.18688881875,172.31210465625,62.0,102.0
265,172.44595606874998,172.80433243125,66.0,117.0
266,172.96409056874998,173.2857657375,64.0,117.0
267,173.48222506874998,174.66529884374998,62.0,127.0
268,175.55476306875,175.66918443749998,69.0,127.0
269,175.81383031874998,176.07937425,69.0,112.0
270,176.33196481874998,176.42479724999998,69.0,127.0
271,176.59103206875,176.87600604374998,69.0,107.0
272,177.10916656875,177.41357058749998,66.0,127.0
273,177.62730106875,178.81469263124998,64.0,122.0
274,179.69983906874998,179.79267149999998,59.0,112.0
275,179.95890631875,180.05173875,62.0,100.0
276,180.21797356874998,180.33023604374998,59.0,96.0
277,180.47704081875,180.57203214375,62.0,107.0
278,180.73610806874999,181.0232409375,66.0,127.0
279,181.25424256875,181.4636552625,64.0,117.0
280,181.51330981875,181.6579557,66.0,97.0
281,181.77237706875,183.100096725,62.0,122.0
282,183.8038960875,183.95285975624998,71.0,100.0
283,184.06296333749998,184.18170249374998,71.0,93.0
284,184.32634837499998,184.4429286375,71.0,99.0
285,184.57678005,184.6976781,71.0,107.0
286,184.86391291875,185.98653766875,74.0,127.0
287,185.8764340875,185.98653766875,74.0,112.0
288,186.36218518125,188.33109628124998,66.0,117.0
289,188.56857459375,192.75682846875,69.0,127.0
