,start,end,pitch,velocity
0,24.574078866666667,24.771112541666668,64.0,100.0
1,24.828315866666667,24.970264858333334,66.0,105.0
2,25.082552866666667,25.199078158333332,67.0,105.0
3,25.336789866666667,25.487213425,69.0,100.0
4,25.591026866666667,25.972382366666665,71.0,102.0
5,26.099500866666666,26.243568500000002,69.0,94.0
6,26.353737866666666,26.84102545,66.0,96.0
7,27.116448866666666,27.28805884166667,66.0,102.0
8,27.37068586666667,27.707549891666666,64.0,105.0
9,27.87915986666667,28.347379675,62.0,108.0
10,29.149179691666667,29.459596358333332,64.0,102.0
11,29.649179691666667,29.955429691666666,64.0,97.0
12,30.149179691666667,30.274179691666667,62.0,100.0
13,30.399179691666667,30.511679691666664,64.0,94.0
14,30.649179691666667,30.817929691666667,62.0,105.0
15,30.899179691666667,32.22834635833333,62.0,100.0
16,32.64917969166667,32.78042969166667,64.0,94.0
17,32.89917969166667,33.045013024999996,66.0,90.0
18,33.14917969166667,33.25542969166666,67.0,97.0
19,33.39917969166667,33.53042969166667,69.0,94.0
20,33.64917969166667,33.97417969166666,71.0,102.0
21,34.14917969166667,34.28042969166667,69.0,102.0
22,34.39917969166667,34.751263025,66.0,93.0
23,35.14917969166667,35.31584635833333,66.0,93.0
24,35.39917969166667,35.703346358333334,64.0,100.0
25,35.89917969166667,36.49084635833333,62.0,105.0
26,37.14917969166667,37.288763025,64.0,87.0
27,37.39917969166667,37.551263025,64.0,94.0
28,37.64917969166667,38.157513025,74.0,108.0
29,38.14917969166667,38.265846358333334,72.0,102.0
30,38.39917969166667,38.72834635833333,72.0,105.0
31,38.89917969166667,40.29338855833333,71.0,97.0
32,40.657794925000005,40.81881169166667,72.0,108.0
33,40.912031925,41.039150425,69.0,100.0
34,41.166268925000004,41.29550606666667,71.0,102.0
35,41.420505925,41.670505641666665,72.0,108.0
36,41.674742925000004,41.80821735,72.0,102.0
37,41.928979925,42.0497425,69.0,102.0
38,42.183216925,42.299742216666665,71.0,102.0
39,42.437453925,42.55397921666667,72.0,102.0
40,42.691690925,42.79974165,72.0,102.0
41,42.945927925,43.045504083333334,79.0,89.0
42,43.200164925,43.3209275,79.0,105.0
43,43.454401925,43.556096725,79.0,102.0
44,43.708638925,43.8294015,79.0,102.0
45,43.962875925,44.07940121666667,78.0,105.0
46,44.217112925,44.3378755,78.0,109.0
47,44.471349925,44.57092608333333,76.0,108.0
48,44.725586925,44.83363765,71.0,111.0
49,44.979823925000005,45.08787465,67.0,82.0
50,45.234060925,45.34211165,69.0,102.0
51,45.488297925,45.61117914166667,71.0,105.0
52,45.742534925,45.871772066666665,71.0,111.0
53,45.996771925000004,46.12600906666667,67.0,84.0
54,46.251008925,46.365415575,69.0,100.0
55,46.505245925000004,46.64295763333334,71.0,100.0
56,46.759482925,46.897194633333335,71.0,100.0
57,47.013719925000004,47.11537941666667,78.0,111.0
58,47.26537941666667,47.37579608333334,78.0,108.0
59,47.51537941666667,47.663296083333336,78.0,97.0
60,47.76537941666667,47.90704608333334,78.0,105.0
61,48.01537941666667,48.161212750000004,76.0,70.0
62,48.26537941666667,48.384129416666674,76.0,105.0
63,48.51537941666667,49.261212750000006,71.0,114.0
64,49.26537941666667,49.37579608333334,72.0,97.0
65,49.51537941666667,49.634129416666674,72.0,92.0
66,49.76537941666667,49.886212750000006,72.0,102.0
67,50.01537941666667,50.12579608333334,72.0,97.0
68,50.26537941666667,50.39662941666667,72.0,102.0
69,50.51537941666667,50.96329608333334,74.0,108.0
70,51.01537941666667,52.04454608333334,72.0,105.0
71,52.265379416666676,52.39662941666667,71.0,114.0
72,52.515379416666676,52.65496275,69.0,102.0
73,52.765379416666676,52.90704608333334,69.0,92.0
74,53.015379416666676,53.129962750000004,71.0,100.0
75,53.265379416666676,56.352879416666674,71.0,108.0
76,56.765379416666676,56.95912941666667,64.0,100.0
77,57.015379416666676,57.15496275,66.0,105.0
78,57.265379416666676,57.379962750000004,67.0,105.0
79,57.515379416666676,57.663296083333336,69.0,100.0
80,57.765379416666676,58.140379416666676,71.0,102.0
81,58.265379416666676,58.40704608333334,69.0,94.0
82,58.515379416666676,58.99454608333334,66.0,96.0
83,59.265379416666676,59.43412941666667,66.0,102.0
84,59.515379416666676,59.84662941666667,64.0,105.0
85,60.015379416666676,60.475796083333336,62.0,108.0
86,61.265379416666676,61.57579608333334,64.0,102.0
87,61.765379416666676,62.071629416666674,64.0,97.0
88,62.265379416666676,62.390379416666676,62.0,100.0
89,62.515379416666676,62.62787941666667,64.0,94.0
90,62.765379416666676,62.93412941666667,62.0,105.0
91,63.015379416666676,64.34454608333334,62.0,100.0
92,64.76537941666668,64.89662941666667,64.0,94.0
93,65.01537941666668,65.16121275,66.0,90.0
94,65.26537941666668,65.37162941666668,67.0,97.0
95,65.51537941666668,65.64662941666667,69.0,94.0
96,65.76537941666668,66.09037941666668,71.0,102.0
97,66.26537941666668,66.39662941666667,69.0,102.0
98,66.51537941666668,66.86746275,66.0,93.0
99,67.26537941666668,67.43204608333335,66.0,93.0
100,67.51537941666668,67.81954608333334,64.0,100.0
101,68.01537941666668,68.60704608333333,62.0,105.0
102,69.26537941666668,69.76121275,64.0,87.0
103,69.76537941666668,70.27371275,74.0,108.0
104,70.26537941666668,70.38204608333334,72.0,102.0
105,70.51537941666668,70.84454608333334,72.0,105.0
106,71.01537941666668,72.42745430000001,71.0,97.0
107,72.79186066666668,72.95287743333334,72.0,108.0
108,73.04609766666668,73.17321616666668,69.0,100.0
109,73.30033466666667,73.42957180833335,71.0,102.0
110,73.55457166666667,73.80457138333334,72.0,108.0
111,73.80880866666668,73.94228309166668,72.0,102.0
112,74.06304566666668,74.18380824166668,69.0,102.0
113,74.31728266666667,74.43380795833335,71.0,102.0
114,74.57151966666667,74.68804495833334,72.0,102.0
115,74.82575666666668,74.93380739166668,72.0,102.0
116,75.07999366666668,75.17956982500002,79.0,89.0
117,75.33423066666667,75.45499324166667,79.0,105.0
118,75.58846766666667,75.69016246666668,79.0,102.0
119,75.84270466666668,75.96346724166668,79.0,102.0
120,76.09694166666668,76.21346695833334,78.0,105.0
121,76.35117866666667,76.47194124166667,78.0,109.0
122,76.60541566666667,76.70499182500001,76.0,108.0
123,76.85965266666668,76.96770339166667,71.0,111.0
124,77.11388966666668,77.22194039166668,67.0,82.0
125,77.36812666666668,77.47617739166668,69.0,102.0
126,77.62236366666667,77.74524488333334,71.0,105.0
127,77.87660066666668,78.00583780833334,71.0,111.0
128,78.13083766666668,78.26007480833334,67.0,84.0
129,78.38507466666668,78.49948131666667,69.0,100.0
130,78.63931166666667,78.77702337500001,71.0,100.0
131,78.89354866666667,79.03126037500002,71.0,100.0
132,79.14778566666668,79.24948046666668,78.0,111.0
133,79.401422425,79.51183909166667,78.0,108.0
134,79.651422425,79.79933909166668,78.0,97.0
135,79.901422425,80.04308909166667,78.0,105.0
136,80.151422425,80.29725575833335,76.0,70.0
137,80.401422425,80.52017242500001,76.0,105.0
138,80.651422425,81.39725575833334,71.0,114.0
139,81.401422425,81.51183909166667,72.0,97.0
140,81.651422425,81.77017242500001,72.0,92.0
141,81.901422425,82.02225575833334,72.0,102.0
142,82.151422425,82.26183909166667,72.0,97.0
143,82.401422425,82.53267242500002,72.0,102.0
144,82.651422425,83.09933909166668,74.0,108.0
145,83.151422425,84.14725575833334,72.0,105.0
146,84.151422425,84.39725575833334,72.0,114.0
147,84.401422425,84.53267242500002,71.0,114.0
148,84.651422425,84.79100575833334,69.0,102.0
149,84.90350575833334,85.19933909166667,71.0,114.0
150,85.295172425,85.50350575833335,71.0,111.0
151,85.61392242500001,85.84308909166668,71.0,111.0
152,85.932672425,86.17850575833334,75.0,109.0
153,86.28058909166668,86.50142242500002,75.0,105.0
154,86.59725575833335,86.79100575833334,76.0,111.0
155,86.89933909166668,87.98892242500001,78.0,105.0
156,88.151422425,88.49725575833334,71.0,117.0
157,88.651422425,88.79725575833335,71.0,114.0
158,88.901422425,89.02017242500001,79.0,114.0
159,89.151422425,89.276422425,79.0,114.0
160,89.401422425,89.53267242500002,78.0,109.0
161,89.651422425,89.951422425,76.0,111.0
162,90.151422425,90.482672425,76.0,120.0
163,90.651422425,90.79100575833334,71.0,105.0
164,90.901422425,91.026422425,79.0,111.0
165,91.151422425,91.27850575833334,79.0,111.0
166,91.401422425,91.55975575833334,78.0,102.0
167,91.651422425,92.00350575833335,76.0,114.0
168,92.151422425,92.39725575833334,76.0,108.0
169,92.401422425,92.53475575833335,76.0,100.0
170,92.651422425,92.77017242500001,79.0,111.0
171,92.901422425,93.01600575833335,78.0,105.0
172,93.151422425,93.26183909166667,78.0,90.0
173,93.401422425,93.52017242500001,78.0,102.0
174,93.651422425,93.76183909166667,78.0,102.0
175,93.90297599166666,94.0406877,78.0,109.0
176,94.15721299166667,94.26314507500001,76.0,102.0
177,94.41144999166667,94.54704305833334,76.0,94.0
178,94.66568699166667,94.78856820833334,74.0,76.0
179,94.91992399166668,95.318228625,74.0,102.0
180,95.42839799166667,95.58305883333334,76.0,82.0
181,95.68263499166667,96.41780365000001,71.0,97.0
182,97.20805699166667,97.31610771666668,72.0,105.0
183,97.46229399166667,97.58941249166668,72.0,100.0
184,97.71653099166667,97.83305628333333,72.0,97.0
185,97.97076799166668,98.10636105833333,72.0,111.0
186,98.22500499166667,98.35847941666667,71.0,111.0
187,98.47924199166667,98.60636049166668,72.0,108.0
188,98.73347899166667,98.86059749166667,76.0,105.0
189,98.98771599166668,99.354241,71.0,108.0
190,99.32458001666667,99.354241,71.0,111.0
191,99.69110502500001,99.90932511666668,71.0,111.0
192,100.021613125,100.21652815833333,76.0,111.0
193,100.35635850833334,100.55762946666667,76.0,108.0
194,100.68686660833333,100.86483250833334,79.0,108.0
195,100.987713725,101.388137,78.0,109.0
196,101.53008599166667,102.02161085833333,73.0,96.0
197,102.29279699166668,102.63601694166667,75.0,116.0
198,102.80127099166667,102.95593183333334,76.0,108.0
199,103.05550799166667,104.19629081666666,78.0,105.0
200,104.32129081666666,104.56712415,71.0,117.0
201,104.57129081666666,104.81712415,71.0,114.0
202,104.82129081666666,104.96712415,71.0,114.0
203,105.07129081666666,105.19004081666667,79.0,114.0
204,105.32129081666666,105.44629081666666,79.0,114.0
205,105.57129081666666,105.70254081666667,78.0,109.0
206,105.82129081666666,106.12129081666667,76.0,111.0
207,106.32129081666666,106.65254081666667,76.0,120.0
208,106.82129081666666,106.96087415,71.0,105.0
209,107.07129081666666,107.19629081666666,79.0,111.0
210,107.32129081666666,107.44837415,79.0,111.0
211,107.57129081666666,107.72962415,78.0,102.0
212,107.82129081666666,108.17337415,76.0,114.0
213,108.32129081666666,108.56712415,76.0,108.0
214,108.57129081666666,108.70462415,76.0,100.0
215,108.82129081666666,108.94004081666667,79.0,111.0
216,109.07129081666666,109.18587415,78.0,105.0
217,109.32129081666666,109.43170748333333,78.0,90.0
218,109.57129081666666,109.69004081666667,78.0,102.0
219,109.82129081666666,109.93170748333333,78.0,102.0
220,110.07129081666666,110.20670748333333,78.0,109.0
221,110.32129081666666,110.42545748333333,76.0,102.0
222,110.57129081666666,110.70462415,76.0,94.0
223,110.82129081666666,110.94212415,74.0,76.0
224,111.07129081666666,111.46295748333333,74.0,102.0
225,111.57129081666666,111.72337415,76.0,82.0
226,111.82129081666666,112.54420748333334,71.0,97.0
227,113.32129081666666,113.42754081666666,72.0,105.0
228,113.57129081666666,113.69629081666666,72.0,100.0
229,113.82129081666666,113.93587415,72.0,97.0
230,114.07129081666666,114.20462415,72.0,111.0
231,114.32129081666666,114.45254081666667,71.0,111.0
232,114.57129081666666,114.69629081666666,72.0,108.0
233,114.82129081666666,114.94629081666666,76.0,105.0
234,115.07129081666666,115.43170748333333,71.0,108.0
235,115.40254081666667,115.43170748333333,71.0,111.0
236,115.76295748333334,115.97754081666666,71.0,111.0
237,116.08795748333333,116.27962415,76.0,111.0
238,116.41712415,116.61504081666666,76.0,108.0
239,116.74212415,116.91712415,78.0,108.0
240,117.03795748333333,118.28379081666667,79.0,109.0
241,119.09004081666667,119.35462415,78.0,109.0
242,119.45670748333333,119.70670748333333,78.0,102.0
243,119.81712415,120.02754081666666,78.0,102.0
244,120.12962415,120.40879081666667,78.0,102.0
245,120.48170748333334,120.69212415,76.0,108.0
246,120.82545748333334,121.32129081666668,75.0,105.0
247,121.32129081666668,124.22962415,76.0,111.0
248,144.19070360000003,144.31778693333337,76.0,111.0
249,144.44070360000003,144.85528693333336,74.0,111.0
250,144.94070360000003,145.4761202666667,69.0,108.0
251,145.69070360000003,145.80320360000002,67.0,105.0
252,145.94070360000003,146.43653693333337,69.0,111.0
253,146.44070360000003,146.55528693333335,67.0,89.0
254,146.69070360000003,146.81153693333337,69.0,105.0
255,146.94070360000003,147.0511202666667,67.0,105.0
256,147.19070360000003,147.30945360000004,69.0,117.0
257,147.44070360000003,147.54070360000003,67.0,105.0
258,147.69070360000003,147.80945360000004,69.0,108.0
259,147.94070360000003,148.05320360000002,67.0,102.0
260,148.19070360000003,148.3011202666667,69.0,114.0
261,148.44070360000003,148.5511202666667,67.0,108.0
262,148.69070360000003,148.83653693333335,69.0,102.0
263,148.94070360000003,149.04070360000003,67.0,102.0
264,149.19070360000003,149.31778693333337,69.0,111.0
265,149.44070360000003,149.54903693333335,67.0,108.0
266,149.69070360000003,149.93653693333337,64.0,111.0
267,149.94070360000003,151.18653693333337,64.0,111.0
268,151.94070360000003,152.06153693333337,76.0,108.0
269,152.19070360000003,152.5448702666667,76.0,111.0
270,152.69070360000003,152.81778693333337,78.0,105.0
271,152.94070360000003,153.07403693333336,79.0,102.0
272,153.19070360000003,153.57195360000003,78.0,109.0
273,153.69070360000003,153.81778693333337,74.0,111.0
274,153.94070360000003,154.3636202666667,74.0,105.0
275,155.19070360000003,155.55528693333335,76.0,111.0
276,155.69070360000003,155.8323702666667,78.0,105.0
277,155.94070360000003,156.0636202666667,79.0,105.0
278,156.19070360000003,156.54907195833334,79.0,111.0
279,156.68890230833335,156.8647495666667,78.0,112.0
280,156.95585115833336,157.0935628666667,76.0,105.0
281,157.2206813666667,157.81813831666668,78.0,109.0
282,158.477035875,158.82873039166668,71.0,117.0
283,158.98550987500002,159.13381479166668,71.0,114.0
284,159.23974687500004,159.36050945000002,79.0,114.0
285,159.49398387500003,159.62110237500002,79.0,114.0
286,159.74822087500002,159.88169530000002,78.0,109.0
287,160.00245787500003,160.30754227500003,76.0,111.0
288,160.510931875,160.84779590000002,76.0,120.0
289,161.01940587500002,161.1613548666667,71.0,105.0
290,161.27364287500004,161.40076137500003,79.0,111.0
291,161.52787987500002,161.6571170166667,79.0,111.0
292,161.782116875,161.9431336416667,78.0,102.0
293,162.03635387500003,162.39440431666668,76.0,114.0
294,162.544827875,162.7948275916667,76.0,108.0
295,162.79906487500003,162.9346579416667,76.0,100.0
296,163.05330187500002,163.17406445000003,79.0,111.0
297,163.30753887500003,163.42406416666668,78.0,105.0
298,163.56177587500002,163.67406388333336,78.0,90.0
299,163.816012875,163.93677545000003,78.0,102.0
300,164.07024987500003,164.18253788333337,78.0,102.0
301,164.32448687500002,164.46219858333336,78.0,109.0
302,164.57791178333338,164.68207845000003,76.0,102.0
303,164.82791178333338,164.9612451166667,76.0,94.0
304,165.07791178333338,165.1987451166667,74.0,76.0
305,165.32791178333338,165.71957845000003,74.0,102.0
306,165.82791178333338,165.9799951166667,76.0,82.0
307,166.07791178333338,166.80082845000004,71.0,97.0
308,167.57791178333338,167.68416178333337,72.0,105.0
309,167.82791178333338,167.95291178333338,72.0,100.0
310,168.07791178333338,168.1924951166667,72.0,97.0
311,168.32791178333338,168.4612451166667,72.0,111.0
312,168.57791178333338,168.70916178333337,71.0,111.0
313,168.82791178333338,168.95291178333338,72.0,108.0
314,169.07791178333338,169.20291178333338,76.0,105.0
315,169.32791178333338,169.68832845000003,71.0,108.0
316,169.65916178333336,169.68832845000003,71.0,111.0
317,170.01957845000004,170.23416178333338,71.0,111.0
318,170.34457845000003,170.5362451166667,76.0,111.0
319,170.6737451166667,170.87166178333337,76.0,108.0
320,170.9987451166667,171.1737451166667,79.0,108.0
321,171.29457845000002,171.68832845000003,78.0,109.0
322,171.82791178333338,172.3112451166667,73.0,96.0
323,172.57791178333338,172.91541178333335,75.0,116.0
324,173.07791178333338,173.2299951166667,76.0,108.0
325,173.32791178333338,174.45291178333338,78.0,105.0
326,174.57791178333338,174.8237451166667,71.0,117.0
327,174.82791178333338,175.0737451166667,71.0,114.0
328,175.07791178333338,175.2237451166667,71.0,114.0
329,175.32791178333338,175.44666178333335,79.0,114.0
330,175.57791178333338,175.70291178333338,79.0,114.0
331,175.82791178333338,175.95916178333337,78.0,109.0
332,176.07791178333338,176.37791178333336,76.0,111.0
333,176.57791178333338,176.90916178333336,76.0,120.0
334,177.07791178333338,177.2174951166667,71.0,105.0
335,177.32791178333338,177.45291178333338,79.0,111.0
336,177.57791178333338,177.7049951166667,79.0,111.0
337,177.82791178333338,177.9862451166667,78.0,102.0
338,178.07791178333338,178.4299951166667,76.0,114.0
339,178.57791178333338,178.8237451166667,76.0,108.0
340,178.82791178333338,178.9612451166667,76.0,100.0
341,179.07791178333338,179.19666178333335,79.0,111.0
342,179.32791178333338,179.4424951166667,78.0,105.0
343,179.57791178333338,179.68832845000003,78.0,90.0
344,179.82791178333338,179.94666178333335,78.0,102.0
345,180.07791178333338,180.18832845000003,78.0,102.0
346,180.32791178333338,180.46332845000003,78.0,109.0
347,180.57791178333338,180.68207845000003,76.0,102.0
348,180.82791178333338,180.9612451166667,76.0,94.0
349,181.07791178333338,181.1987451166667,74.0,76.0
350,181.32791178333338,181.71957845000003,74.0,102.0
351,181.82791178333338,181.9799951166667,76.0,82.0
352,182.07791178333338,182.80082845000004,71.0,97.0
353,183.57791178333338,183.68416178333337,72.0,105.0
354,183.82791178333338,183.95291178333338,72.0,100.0
355,184.07791178333338,184.1924951166667,72.0,97.0
356,184.32791178333338,184.4612451166667,72.0,111.0
357,184.57791178333338,184.70916178333337,71.0,111.0
358,184.82791178333338,184.95291178333338,72.0,108.0
359,185.07791178333338,185.20291178333338,76.0,105.0
360,185.32791178333338,185.68832845000003,71.0,108.0
361,185.65916178333336,185.68832845000003,71.0,111.0
362,186.01957845000004,186.23416178333338,71.0,111.0
363,186.34457845000003,186.5362451166667,76.0,111.0
364,186.6737451166667,186.87166178333337,76.0,108.0
365,186.9987451166667,187.1737451166667,78.0,108.0
366,187.29457845000002,188.54041178333335,79.0,109.0
367,189.36007895000003,189.6291464416667,78.0,109.0
368,189.73295988333336,189.98719688333338,78.0,102.0
369,190.0994848916667,190.31346770000005,78.0,102.0
370,190.4172811416667,190.70117912500004,78.0,102.0
371,190.77533158333338,190.9893143916667,76.0,108.0
372,191.12490745833338,191.62914417500005,75.0,105.0
373,191.62914417500005,194.5867679416667,76.0,111.0
374,194.67998817500003,194.9299878916667,71.0,117.0
375,194.93422517500002,195.1842248916667,71.0,114.0
376,195.18846217500004,195.3367670916667,71.0,114.0
377,195.44269917500003,195.56173164166668,79.0,114.0
378,195.69298164166668,195.81798164166668,79.0,114.0
379,195.94298164166668,196.0742316416667,78.0,109.0
380,196.19298164166668,196.4929816416667,76.0,111.0
381,196.69298164166668,197.0242316416667,76.0,120.0
382,197.19298164166668,197.33256497500003,71.0,105.0
383,197.44298164166668,197.56798164166668,79.0,111.0
384,197.69298164166668,197.82006497500004,79.0,111.0
385,197.94298164166668,198.10131497500004,78.0,102.0
386,198.19298164166668,198.54506497500003,76.0,114.0
387,198.69298164166668,198.938814975,76.0,108.0
388,198.94298164166668,199.07631497500003,76.0,100.0
389,199.19298164166668,199.31173164166668,79.0,111.0
390,199.44298164166668,199.55756497500002,78.0,105.0
391,199.69298164166668,199.80339830833336,78.0,90.0
392,199.94298164166668,200.06173164166668,78.0,102.0
393,200.19298164166668,200.30339830833336,78.0,102.0
394,200.44298164166668,200.57839830833336,78.0,109.0
395,200.69298164166668,200.79714830833336,76.0,102.0
396,200.94298164166668,201.07631497500003,76.0,94.0
397,201.19298164166668,201.313814975,74.0,76.0
398,201.44298164166668,201.83464830833336,74.0,102.0
399,201.94298164166668,202.095064975,76.0,82.0
400,202.19298164166668,202.91589830833337,71.0,97.0
401,203.69298164166668,203.7992316416667,72.0,105.0
402,203.94298164166668,204.06798164166668,72.0,100.0
403,204.19298164166668,204.30756497500002,72.0,97.0
404,204.44298164166668,204.57631497500003,72.0,111.0
405,204.69298164166668,204.8242316416667,71.0,111.0
406,204.94298164166668,205.06798164166668,72.0,108.0
407,205.19298164166668,205.31798164166668,76.0,105.0
408,205.44298164166668,205.80339830833336,71.0,108.0
409,205.7742316416667,205.80339830833336,71.0,111.0
410,206.13464830833337,206.34923164166668,71.0,111.0
411,206.45964830833336,206.65131497500002,76.0,111.0
412,206.78881497500004,206.9867316416667,76.0,108.0
413,207.11381497500003,207.28881497500004,78.0,108.0
414,207.40964830833335,208.65548164166668,79.0,109.0
415,209.4617316416667,209.72631497500004,78.0,109.0
416,209.82839830833336,210.07839830833336,78.0,102.0
417,210.188814975,210.3992316416667,78.0,102.0
418,210.501314975,210.78048164166668,78.0,102.0
419,210.85339830833337,211.063814975,76.0,108.0
420,211.19714830833337,211.69298164166668,75.0,105.0
421,211.69298164166668,214.60131497500004,76.0,111.0
