,start,end,pitch,velocity
0,8.529166666666667,9.195833333333333,64.0,89.0
1,8.529166666666667,9.279166666666667,59.0,92.0
2,9.529166666666667,9.733333333333333,59.0,94.0
3,8.529166666666667,9.902083333333334,52.0,102.0
4,9.529166666666667,10.0375,64.0,108.0
5,9.529166666666667,10.127083333333333,67.0,97.0
6,10.029166666666667,10.20625,59.0,100.0
7,10.529166666666667,10.954166666666666,59.0,71.0
8,10.529166666666667,11.052083333333334,62.0,84.0
9,10.529166666666667,11.060416666666667,55.0,76.0
10,11.529166666666667,11.970833333333333,59.0,114.0
11,11.529166666666667,11.989583333333334,55.0,102.0
12,11.529166666666667,12.052083333333334,62.0,102.0
13,11.029166666666667,12.1,50.0,55.0
14,10.529166666666667,12.316666666666666,43.0,94.0
15,12.529166666666667,13.191666666666666,62.0,92.0
16,12.529166666666667,13.2625,57.0,84.0
17,13.529166666666667,13.772916666666667,57.0,94.0
18,13.529166666666667,14.085416666666667,62.0,100.0
19,14.029166666666667,14.189583333333333,57.0,89.0
20,13.529166666666667,14.222916666666666,66.0,85.0
21,12.529166666666667,14.23125,50.0,97.0
22,14.529166666666667,14.9625,64.0,100.0
23,14.529166666666667,15.025,60.0,94.0
24,14.529166666666667,15.0375,48.0,100.0
25,15.529166666666667,16.025,59.0,94.0
26,15.529166666666667,16.06458333333333,47.0,97.0
27,15.529166666666667,16.066666666666666,62.0,105.0
28,16.529166666666665,17.08125,60.0,94.0
29,16.529166666666665,17.147916666666667,57.0,89.0
30,16.529166666666665,17.7375,45.0,94.0
31,17.029166666666665,17.770833333333332,52.0,64.0
32,17.529166666666665,17.929166666666667,60.0,114.0
33,17.529166666666665,17.94375,57.0,102.0
34,17.529166666666665,17.99375,64.0,100.0
35,18.029166666666665,18.325,45.0,87.0
36,18.529166666666665,19.175,62.0,84.0
37,18.529166666666665,19.18958333333333,59.0,87.0
38,19.029166666666665,19.59583333333333,54.0,65.0
39,18.529166666666665,19.764583333333334,47.0,69.0
40,19.529166666666665,20.03125,59.0,89.0
41,19.529166666666665,20.058333333333334,62.0,97.0
42,19.529166666666665,20.21875,66.0,99.0
43,20.029166666666665,20.395833333333332,47.0,89.0
44,20.529166666666665,21.3,60.0,87.0
45,20.529166666666665,21.308333333333334,64.0,92.0
46,20.529166666666665,21.766666666666666,48.0,92.0
47,21.029166666666665,21.772916666666667,55.0,37.0
48,22.031708866666666,22.41730165,48.0,87.0
49,21.529166666666665,22.499928675,60.0,105.0
50,21.529166666666665,22.586792983333332,64.0,114.0
51,22.794419866666665,23.413063233333332,62.0,80.0
52,22.794419866666665,23.457554708333333,66.0,96.0
53,22.794419866666665,23.673656158333333,57.0,78.0
54,23.557130866666668,23.866452549999998,62.0,92.0
55,22.794419866666665,23.94272365,50.0,53.0
56,23.811367866666668,24.014757466666666,57.0,67.0
57,23.557130866666668,24.103740416666668,66.0,63.0
58,23.557130866666668,24.160943741666667,69.0,94.0
59,24.319841866666668,24.393994325,66.0,30.0
60,24.065604866666668,24.485095916666666,62.0,78.0
61,24.574078866666667,25.504162558333334,64.0,89.0
62,24.574078866666667,25.756280916666668,59.0,84.0
63,25.591026866666667,26.12916185,64.0,89.0
64,25.591026866666667,26.171534683333334,67.0,94.0
65,24.574078866666667,26.220263441666667,52.0,97.0
66,26.099500866666666,26.258398991666667,59.0,78.0
67,26.607974866666666,27.383397716666668,62.0,66.0
68,26.607974866666666,27.393990925,57.0,67.0
69,26.607974866666666,27.406702775,66.0,55.0
70,27.624922866666665,27.900346283333334,57.0,100.0
71,26.607974866666666,27.906702208333336,50.0,100.0
72,27.624922866666665,28.243566233333333,62.0,97.0
73,28.133396866666665,28.302888199999998,57.0,49.0
74,27.624922866666665,28.400345716666667,66.0,102.0
75,28.641870866666668,29.349179691666667,64.0,80.0
76,28.641870866666668,29.351263024999998,60.0,71.0
77,29.149179691666667,29.901263025,55.0,43.0
78,29.649179691666667,29.905429691666665,60.0,100.0
79,28.641870866666668,29.913763024999998,48.0,94.0
80,29.649179691666667,30.151263025,64.0,102.0
81,30.149179691666667,30.263763025,60.0,76.0
82,30.649179691666667,31.045013025,43.0,97.0
83,30.649179691666667,31.06584635833333,59.0,97.0
84,30.649179691666667,31.105429691666664,55.0,84.0
85,31.649179691666667,31.851263024999998,42.0,87.0
86,31.649179691666667,31.917929691666664,54.0,90.0
87,31.649179691666667,31.917929691666664,57.0,102.0
88,32.64917969166667,32.986679691666666,59.0,94.0
89,32.64917969166667,33.21584635833333,64.0,89.0
90,33.14917969166667,33.438763025,59.0,58.0
91,33.64917969166667,33.83667969166667,59.0,97.0
92,33.64917969166667,34.167929691666664,64.0,100.0
93,33.64917969166667,34.25334635833333,67.0,87.0
94,34.14917969166667,34.338763025,59.0,97.0
95,32.64917969166667,34.395013025,52.0,94.0
96,34.64917969166667,35.297096358333334,62.0,84.0
97,34.64917969166667,35.338763025,59.0,84.0
98,35.14917969166667,35.751263025,54.0,43.0
99,35.64917969166667,35.828346358333334,59.0,87.0
100,34.64917969166667,35.89917969166667,47.0,87.0
101,35.64917969166667,36.136679691666664,66.0,68.0
102,35.64917969166667,36.14709635833333,62.0,89.0
103,36.14917969166667,36.28042969166667,59.0,94.0
104,36.64917969166667,36.932513025,55.0,67.0
105,36.64917969166667,37.16584635833333,64.0,84.0
106,36.64917969166667,37.21584635833333,60.0,76.0
107,37.14917969166667,37.34084635833333,55.0,34.0
108,37.64917969166667,37.824179691666664,55.0,97.0
109,36.64917969166667,37.87834635833333,48.0,100.0
110,37.64917969166667,37.932513025,60.0,105.0
111,37.64917969166667,38.138763025,64.0,97.0
112,38.14917969166667,38.25959635833333,55.0,62.0
113,38.64917969166667,38.80542969166667,57.0,44.0
114,38.64917969166667,39.226263025,59.0,44.0
115,38.64917969166667,39.265846358333334,63.0,77.0
116,38.64917969166667,39.328346358333334,66.0,82.0
117,39.14917969166667,39.734596358333334,54.0,45.0
118,39.64917969166667,39.986679691666666,59.0,100.0
119,39.89917969166667,40.140846358333334,54.0,54.0
120,38.64917969166667,40.147202283333336,47.0,100.0
121,39.64917969166667,40.181100550000004,63.0,109.0
122,39.64917969166667,40.24254115833333,66.0,102.0
123,40.149320925,40.382371508333335,59.0,89.0
124,40.657794925000005,41.1090656,60.0,94.0
125,40.657794925000005,41.19592990833333,57.0,89.0
126,41.166268925000004,41.85906475,52.0,73.0
127,41.674742925000004,42.16626779166667,60.0,105.0
128,41.674742925000004,42.17262371666667,57.0,94.0
129,41.674742925000004,42.19169149166667,64.0,97.0
130,40.657794925000005,42.488301325,45.0,92.0
131,42.183216925,42.573046991666665,52.0,52.0
132,42.437453925,42.62177575,57.0,66.0
133,42.691690925,43.19169035833333,60.0,89.0
134,42.691690925,43.225588625,57.0,92.0
135,42.691690925,43.886604825,45.0,94.0
136,43.200164925,43.96499456666667,52.0,41.0
137,43.708638925,44.128129975,60.0,111.0
138,43.708638925,44.13024861666667,57.0,102.0
139,43.708638925,44.16414688333334,64.0,97.0
140,44.217112925,44.53279053333333,45.0,84.0
141,44.725586925,44.98829849166667,59.0,87.0
142,44.725586925,45.244654133333334,64.0,87.0
143,45.234060925,45.36965399166667,59.0,52.0
144,45.742534925,45.92897539166667,59.0,102.0
145,45.742534925,46.25312756666667,67.0,97.0
146,45.742534925,46.308212250000004,64.0,102.0
147,44.725586925,46.33787323333333,52.0,92.0
148,46.251008925,46.64295763333334,59.0,53.0
149,46.759482925,47.062448683333336,59.0,73.0
150,46.759482925,47.37371275,67.0,80.0
151,46.759482925,47.386212750000006,64.0,78.0
152,47.26537941666667,47.507046083333336,59.0,53.0
153,47.76537941666667,47.91954608333334,59.0,105.0
154,46.759482925,48.15079608333334,52.0,89.0
155,47.76537941666667,48.29662941666667,64.0,97.0
156,47.76537941666667,48.32996275000001,67.0,67.0
157,48.26537941666667,48.39037941666667,59.0,108.0
158,48.76537941666667,48.85912941666667,59.0,58.0
159,48.76537941666667,49.198712750000006,53.0,47.0
160,48.76537941666667,49.24662941666667,57.0,71.0
161,48.76537941666667,49.382046083333336,60.0,64.0
162,49.26537941666667,49.94037941666667,48.0,52.0
163,49.76537941666667,49.95912941666667,60.0,102.0
164,49.76537941666667,49.99246275,57.0,105.0
165,49.76537941666667,50.02371275,53.0,94.0
166,48.76537941666667,50.34246275,41.0,89.0
167,50.26537941666667,50.76537941666667,48.0,20.0
168,50.76537941666667,51.292462750000006,57.0,89.0
169,50.76537941666667,51.32579608333334,60.0,89.0
170,50.76537941666667,51.49871275,53.0,80.0
171,50.76537941666667,51.72162941666667,41.0,84.0
172,51.265379416666676,51.76329608333334,48.0,38.0
173,51.765379416666676,51.90704608333334,57.0,100.0
174,51.765379416666676,51.921629416666676,53.0,100.0
175,51.765379416666676,51.96954608333334,60.0,92.0
176,52.765379416666676,53.37579608333334,59.0,97.0
177,52.765379416666676,53.411212750000004,64.0,97.0
178,53.265379416666676,53.879962750000004,54.0,39.0
179,53.765379416666676,54.30496275,59.0,108.0
180,53.765379416666676,54.33829608333334,64.0,114.0
181,52.765379416666676,54.50287941666667,47.0,92.0
182,54.265379416666676,54.569546083333336,54.0,57.0
183,54.515379416666676,54.661212750000004,59.0,89.0
184,54.765379416666676,55.31121275,59.0,89.0
185,54.765379416666676,55.34037941666667,63.0,96.0
186,55.515379416666676,55.62787941666667,59.0,58.0
187,55.265379416666676,55.83204608333334,54.0,52.0
188,55.765379416666676,56.05704608333334,59.0,105.0
189,55.765379416666676,56.61954608333334,63.0,109.0
190,55.765379416666676,56.62371275,66.0,99.0
191,56.265379416666676,56.65704608333334,59.0,102.0
192,56.015379416666676,56.696629416666674,54.0,87.0
193,54.765379416666676,56.74662941666667,47.0,92.0
194,56.765379416666676,57.67996275,64.0,89.0
195,56.765379416666676,57.92787941666667,59.0,84.0
196,57.765379416666676,58.29454608333334,64.0,89.0
197,57.765379416666676,58.33621275,67.0,94.0
198,56.765379416666676,58.384129416666674,52.0,97.0
199,58.265379416666676,58.421629416666676,59.0,78.0
200,58.765379416666676,59.52787941666667,62.0,66.0
201,58.765379416666676,59.538296083333336,57.0,67.0
202,58.765379416666676,59.55079608333334,66.0,55.0
203,59.765379416666676,60.036212750000004,57.0,100.0
204,58.765379416666676,60.042462750000006,50.0,100.0
205,59.765379416666676,60.37371275,62.0,97.0
206,60.265379416666676,60.43204608333334,57.0,49.0
207,59.765379416666676,60.52787941666667,66.0,102.0
208,60.765379416666676,61.46537941666667,64.0,80.0
209,60.765379416666676,61.46746275,60.0,71.0
210,61.265379416666676,62.01746275000001,55.0,43.0
211,61.765379416666676,62.02162941666667,60.0,100.0
212,60.765379416666676,62.02996275,48.0,94.0
213,61.765379416666676,62.26746275000001,64.0,102.0
214,62.265379416666676,62.379962750000004,60.0,76.0
215,62.765379416666676,63.161212750000004,43.0,97.0
216,62.765379416666676,63.18204608333334,59.0,97.0
217,62.765379416666676,63.22162941666667,55.0,84.0
218,63.765379416666676,63.96746275000001,42.0,87.0
219,63.765379416666676,64.03412941666667,54.0,90.0
220,63.765379416666676,64.03412941666667,57.0,102.0
221,64.76537941666668,65.10287941666667,59.0,94.0
222,64.76537941666668,65.33204608333334,64.0,89.0
223,65.26537941666668,65.55496275,59.0,58.0
224,65.76537941666668,65.95287941666668,59.0,97.0
225,65.76537941666668,66.28412941666667,64.0,100.0
226,65.76537941666668,66.36954608333335,67.0,87.0
227,66.26537941666668,66.45496275,59.0,97.0
228,64.76537941666668,66.51121275,52.0,94.0
229,66.76537941666668,67.41329608333334,62.0,84.0
230,66.76537941666668,67.45496275,59.0,84.0
231,67.26537941666668,67.86746275,54.0,43.0
232,67.76537941666668,67.94454608333334,59.0,87.0
233,66.76537941666668,68.01537941666668,47.0,87.0
234,67.76537941666668,68.25287941666667,66.0,68.0
235,67.76537941666668,68.26329608333333,62.0,89.0
236,68.26537941666668,68.39662941666667,59.0,94.0
237,68.76537941666668,69.04871275,55.0,67.0
238,68.76537941666668,69.28204608333334,64.0,84.0
239,68.76537941666668,69.33204608333334,60.0,76.0
240,69.26537941666668,69.45704608333334,55.0,34.0
241,69.76537941666668,69.94037941666667,55.0,97.0
242,68.76537941666668,69.99454608333335,48.0,100.0
243,69.76537941666668,70.04871275,60.0,105.0
244,69.76537941666668,70.25496275,64.0,97.0
245,70.26537941666668,70.37579608333334,55.0,62.0
246,70.76537941666668,70.92162941666668,57.0,44.0
247,70.76537941666668,71.34482840833334,59.0,44.0
248,70.76537941666668,71.3850826,63.0,77.0
249,70.76537941666668,71.44864185000002,66.0,82.0
250,71.26643866666667,71.86177697500001,54.0,45.0
251,71.77491266666668,72.11813261666667,59.0,100.0
252,72.02914966666667,72.27491210000001,54.0,54.0
253,70.76537941666668,72.281268025,47.0,100.0
254,71.77491266666668,72.31516629166667,63.0,109.0
255,71.77491266666668,72.37660690000001,66.0,102.0
256,72.28338666666667,72.51643725000001,59.0,89.0
257,72.79186066666668,73.24313134166668,60.0,94.0
258,72.79186066666668,73.32999565000001,57.0,89.0
259,73.30033466666667,73.99313049166668,52.0,73.0
260,73.80880866666668,74.30033353333334,60.0,105.0
261,73.80880866666668,74.30668945833334,57.0,94.0
262,73.80880866666668,74.32575723333335,64.0,97.0
263,72.79186066666668,74.62236706666667,45.0,92.0
264,74.31728266666667,74.70711273333335,52.0,52.0
265,74.57151966666667,74.75584149166667,57.0,66.0
266,74.82575666666668,75.3257561,60.0,89.0
267,74.82575666666668,75.35965436666667,57.0,92.0
268,74.82575666666668,76.02067056666668,45.0,94.0
269,75.33423066666667,76.09906030833335,52.0,41.0
270,75.84270466666668,76.26219571666668,60.0,111.0
271,75.84270466666668,76.26431435833334,57.0,102.0
272,75.84270466666668,76.298212625,64.0,97.0
273,76.35117866666667,76.66685627500001,45.0,84.0
274,76.85965266666668,77.12236423333334,59.0,87.0
275,76.85965266666668,77.37871987500002,64.0,87.0
276,77.36812666666668,77.50371973333334,59.0,52.0
277,77.87660066666668,78.06304113333334,59.0,102.0
278,77.87660066666668,78.38719330833334,67.0,97.0
279,77.87660066666668,78.44227799166667,64.0,102.0
280,76.85965266666668,78.47193897500001,52.0,92.0
281,78.38507466666668,78.77702337500001,59.0,53.0
282,78.89354866666667,79.196514425,59.0,73.0
283,78.89354866666667,79.50975575833334,67.0,80.0
284,78.89354866666667,79.52225575833334,64.0,78.0
285,79.401422425,79.64308909166668,59.0,53.0
286,79.901422425,80.05558909166668,59.0,105.0
287,78.89354866666667,80.28683909166668,52.0,89.0
288,79.901422425,80.432672425,64.0,97.0
289,79.901422425,80.46600575833334,67.0,67.0
290,80.401422425,80.526422425,59.0,108.0
291,80.901422425,80.995172425,59.0,58.0
292,80.901422425,81.33475575833334,53.0,47.0
293,80.901422425,81.38267242500001,57.0,71.0
294,80.901422425,81.51808909166668,60.0,64.0
295,81.401422425,82.076422425,48.0,52.0
296,81.901422425,82.09517242500002,60.0,102.0
297,81.901422425,82.12850575833335,57.0,105.0
298,81.901422425,82.15975575833335,53.0,94.0
299,80.901422425,82.47850575833334,41.0,89.0
300,82.401422425,82.901422425,48.0,20.0
301,82.901422425,83.42850575833334,57.0,89.0
302,82.901422425,83.46183909166668,60.0,89.0
303,82.901422425,83.63475575833334,53.0,80.0
304,82.901422425,83.857672425,41.0,84.0
305,83.401422425,83.89933909166668,48.0,38.0
306,83.901422425,84.04308909166667,57.0,100.0
307,83.901422425,84.057672425,53.0,100.0
308,83.901422425,84.10558909166667,60.0,92.0
309,84.901422425,85.18058909166668,63.0,96.0
310,84.901422425,85.18475575833334,59.0,102.0
311,84.901422425,85.18475575833334,66.0,72.0
312,85.23475575833335,85.40975575833335,63.0,96.0
313,85.23475575833335,85.41392242500001,59.0,94.0
314,85.23475575833335,85.43475575833334,66.0,82.0
315,85.56808909166668,85.77017242500001,63.0,99.0
316,85.56808909166668,85.776422425,59.0,102.0
317,84.901422425,85.78892242500001,47.0,105.0
318,85.56808909166668,85.795172425,66.0,93.0
319,85.901422425,86.16392242500001,63.0,82.0
320,85.901422425,86.17225575833335,59.0,97.0
321,85.901422425,86.18475575833334,66.0,65.0
322,85.901422425,86.18475575833334,69.0,87.0
323,86.23475575833335,86.39517242500001,63.0,96.0
324,86.23475575833335,86.40350575833334,59.0,94.0
325,86.23475575833335,86.40767242500002,66.0,90.0
326,86.23475575833335,86.41808909166667,69.0,100.0
327,85.901422425,86.70767242500001,54.0,82.0
328,85.901422425,86.72225575833335,47.0,71.0
329,85.901422425,86.72850575833334,51.0,68.0
330,86.56808909166668,86.73058909166667,63.0,102.0
331,86.56808909166668,86.73475575833335,59.0,105.0
332,86.56808909166668,86.75142242500002,69.0,84.0
333,86.56808909166668,86.763922425,66.0,90.0
334,86.901422425,88.513922425,47.0,105.0
335,86.901422425,88.60350575833334,71.0,105.0
336,86.901422425,88.60558909166667,63.0,99.0
337,86.901422425,88.61600575833334,59.0,97.0
338,86.901422425,88.62433909166668,66.0,93.0
339,88.901422425,89.17850575833334,59.0,89.0
340,88.901422425,89.42642242500001,64.0,92.0
341,89.401422425,89.72017242500002,59.0,57.0
342,89.901422425,90.11183909166668,59.0,108.0
343,89.901422425,90.43058909166668,64.0,111.0
344,89.901422425,90.61808909166668,67.0,111.0
345,90.401422425,90.63267242500001,59.0,92.0
346,88.901422425,90.74725575833334,52.0,102.0
347,90.901422425,91.62433909166668,64.0,84.0
348,90.901422425,91.63683909166667,60.0,49.0
349,91.901422425,92.10350575833334,60.0,111.0
350,90.901422425,92.14308909166668,48.0,100.0
351,91.401422425,92.25767242500001,55.0,78.0
352,91.901422425,92.41183909166668,64.0,111.0
353,91.901422425,92.47850575833334,67.0,100.0
354,92.401422425,92.513922425,60.0,108.0
355,92.901422425,93.19933909166667,57.0,76.0
356,92.901422425,93.53058909166668,62.0,84.0
357,92.901422425,93.55350575833334,66.0,96.0
358,93.401422425,93.64933909166668,57.0,64.0
359,93.90297599166666,94.12967065000001,57.0,102.0
360,92.901422425,94.15721299166667,50.0,100.0
361,93.90297599166666,94.39450085833334,66.0,93.0
362,93.90297599166666,94.41568727500001,62.0,97.0
363,94.41144999166667,94.55975490833333,57.0,92.0
364,94.91992399166668,95.40085565000001,59.0,89.0
365,94.91992399166668,95.41144885833334,55.0,78.0
366,94.91992399166668,95.43051663333334,62.0,89.0
367,95.42839799166667,96.06610913333334,50.0,78.0
368,94.91992399166668,96.25678688333333,43.0,105.0
369,95.93687199166668,96.43475278333334,55.0,97.0
370,95.93687199166668,96.475006975,59.0,108.0
371,95.93687199166668,96.69110842500001,62.0,97.0
372,96.44534599166667,96.7610236,50.0,78.0
373,96.69958299166667,96.80127779166668,55.0,89.0
374,96.95381999166668,97.47076855833333,60.0,102.0
375,96.95381999166668,97.52161595833334,57.0,102.0
376,96.95381999166668,98.22076770833334,45.0,100.0
377,97.46229399166667,98.292801525,52.0,73.0
378,97.97076799166668,98.44958100833334,60.0,117.0
379,97.97076799166668,98.53644531666667,57.0,105.0
380,97.97076799166668,98.78432639166667,64.0,105.0
381,98.47924199166667,98.83305515,52.0,20.0
382,98.47924199166667,98.83729243333335,45.0,55.0
383,98.98771599166668,99.25678348333334,59.0,94.0
384,98.98771599166668,99.60635935833334,64.0,94.0
385,99.49618999166667,99.82034216666668,59.0,66.0
386,100.00466399166667,100.19110445833334,59.0,100.0
387,98.98771599166668,100.31610431666667,52.0,102.0
388,100.00466399166667,100.48135836666667,64.0,105.0
389,100.00466399166667,100.54279897500001,67.0,94.0
390,100.51313799166667,100.63390056666667,59.0,108.0
391,101.02161199166667,101.27796763333333,54.0,70.0
392,101.02161199166667,101.76525521666667,61.0,65.0
393,101.02161199166667,101.81822125833334,58.0,68.0
394,101.53008599166667,101.90932285000001,54.0,87.0
395,101.02161199166667,102.05762776666667,42.0,90.0
396,102.03855999166667,102.27161057500001,54.0,105.0
397,102.03855999166667,102.53008485833334,58.0,112.0
398,102.03855999166667,102.59152546666667,61.0,96.0
399,102.54703399166667,102.60423731666667,54.0,44.0
400,103.05550799166667,103.54279557500001,59.0,97.0
401,103.05550799166667,103.555507425,66.0,96.0
402,103.05550799166667,103.56186335000001,63.0,90.0
403,103.81821899166667,103.94745613333333,59.0,89.0
404,103.56398199166668,104.16504081666666,54.0,70.0
405,104.07129081666666,104.37129081666667,59.0,114.0
406,104.07129081666666,104.63170748333333,63.0,112.0
407,104.07129081666666,104.65254081666667,66.0,109.0
408,104.32129081666666,104.89837415,54.0,99.0
409,103.05550799166667,104.92962415,47.0,100.0
410,104.82129081666666,104.98170748333334,63.0,90.0
411,104.57129081666666,104.98795748333333,59.0,108.0
412,105.07129081666666,105.34837415,59.0,89.0
413,105.07129081666666,105.59629081666667,64.0,92.0
414,105.57129081666666,105.89004081666667,59.0,57.0
415,106.07129081666666,106.28170748333334,59.0,108.0
416,106.07129081666666,106.60045748333333,64.0,111.0
417,106.07129081666666,106.78795748333333,67.0,111.0
418,106.57129081666666,106.80254081666666,59.0,92.0
419,105.07129081666666,106.91712415,52.0,102.0
420,107.07129081666666,107.79420748333334,64.0,84.0
421,107.07129081666666,107.80670748333333,60.0,49.0
422,108.07129081666666,108.27337415,60.0,111.0
423,107.07129081666666,108.31295748333334,48.0,100.0
424,107.57129081666666,108.42754081666666,55.0,78.0
425,108.07129081666666,108.58170748333333,64.0,111.0
426,108.07129081666666,108.64837415,67.0,100.0
427,108.57129081666666,108.68379081666667,60.0,108.0
428,109.07129081666666,109.36920748333333,57.0,76.0
429,109.07129081666666,109.70045748333334,62.0,84.0
430,109.07129081666666,109.72337415,66.0,96.0
431,109.57129081666666,109.81920748333333,57.0,64.0
432,110.07129081666666,110.29420748333334,57.0,102.0
433,109.07129081666666,110.32129081666666,50.0,100.0
434,110.07129081666666,110.55462415,66.0,93.0
435,110.07129081666666,110.57545748333334,62.0,97.0
436,110.57129081666666,110.71712415,57.0,92.0
437,111.07129081666666,111.54420748333334,59.0,89.0
438,111.07129081666666,111.55462415,55.0,78.0
439,111.07129081666666,111.57337415,62.0,89.0
440,111.57129081666666,112.19837415,50.0,78.0
441,111.07129081666666,112.38587415,43.0,105.0
442,112.07129081666666,112.56087415,55.0,97.0
443,112.07129081666666,112.60045748333333,59.0,108.0
444,112.07129081666666,112.81295748333334,62.0,97.0
445,112.57129081666666,112.88170748333333,50.0,78.0
446,112.82129081666666,112.92129081666667,55.0,89.0
447,113.07129081666666,113.57962415,60.0,102.0
448,113.07129081666666,113.62962415,57.0,102.0
449,113.07129081666666,114.31712415,45.0,100.0
450,113.57129081666666,114.38795748333334,52.0,73.0
451,114.07129081666666,114.54212415,60.0,117.0
452,114.07129081666666,114.62754081666667,57.0,105.0
453,114.07129081666666,114.87129081666667,64.0,105.0
454,114.57129081666666,114.91920748333334,52.0,20.0
455,114.57129081666666,114.92337415,45.0,55.0
456,115.07129081666666,115.45879081666666,64.0,97.0
457,115.07129081666666,115.56295748333334,67.0,105.0
458,115.07129081666666,115.60879081666667,52.0,108.0
459,115.57129081666666,115.72337415,59.0,111.0
460,115.82129081666666,115.97337415,62.0,105.0
461,116.07129081666666,116.52754081666667,62.0,100.0
462,116.07129081666666,116.73170748333334,50.0,105.0
463,116.57129081666666,116.77545748333333,57.0,84.0
464,116.07129081666666,116.79629081666667,66.0,99.0
465,116.82129081666666,116.93379081666667,62.0,82.0
466,117.07129081666666,117.74420748333333,64.0,105.0
467,117.07129081666666,117.76087415,60.0,102.0
468,117.07129081666666,118.34420748333334,48.0,100.0
469,118.07129081666666,118.42545748333333,64.0,108.0
470,118.07129081666666,118.46712415,60.0,108.0
471,117.57129081666666,118.50045748333334,55.0,67.0
472,118.57129081666666,118.70670748333333,48.0,94.0
473,119.07129081666666,120.15254081666666,59.0,100.0
474,119.07129081666666,120.35462415,63.0,93.0
475,120.07129081666668,120.56295748333334,54.0,82.0
476,119.07129081666666,120.62337415,66.0,96.0
477,120.32129081666668,120.67962415,59.0,94.0
478,120.57129081666668,120.71087415,63.0,93.0
479,119.07129081666666,120.76087415,47.0,102.0
480,121.32129081666668,123.04004081666668,59.0,82.0
481,121.32129081666668,123.04420748333334,64.0,105.0
482,121.32129081666668,123.04629081666667,52.0,102.0
483,123.07129081666668,124.51295748333334,52.0,52.0
484,123.07129081666668,124.53379081666667,64.0,71.0
485,123.07129081666668,124.54004081666668,59.0,71.0
486,125.07129081666668,125.73795748333333,64.0,89.0
487,125.07129081666668,125.82129081666668,59.0,92.0
488,126.07129081666668,126.27545748333333,59.0,94.0
489,125.07129081666668,126.44420748333333,52.0,102.0
490,126.07129081666668,126.57962415,64.0,108.0
491,126.07129081666668,126.66920748333334,67.0,97.0
492,126.57129081666668,126.74837415,59.0,100.0
493,127.07129081666668,127.49629081666666,59.0,71.0
494,127.07129081666668,127.59420748333334,62.0,84.0
495,127.07129081666668,127.60254081666668,55.0,76.0
496,128.07129081666668,128.51295748333334,59.0,114.0
497,128.07129081666668,128.53170748333332,55.0,102.0
498,128.07129081666668,128.59420748333332,62.0,102.0
499,127.57129081666668,128.64212415,50.0,55.0
500,127.07129081666668,128.85879081666667,43.0,94.0
501,129.07129081666668,129.73379081666667,62.0,92.0
502,129.07129081666668,129.80462415,57.0,84.0
503,130.07129081666668,130.31504081666668,57.0,94.0
504,130.07129081666668,130.63071856666667,62.0,100.0
505,130.57351524166668,130.73665065,57.0,89.0
506,130.07129081666668,130.77054891666668,66.0,85.0
507,129.07129081666668,130.77902348333336,50.0,97.0
508,131.0819892416667,131.52266670833336,64.0,100.0
509,131.0819892416667,131.58622595833336,60.0,94.0
510,131.0819892416667,131.59893780833335,48.0,100.0
511,132.09893724166668,132.60317395833334,59.0,94.0
512,132.09893724166668,132.64342815,47.0,97.0
513,132.09893724166668,132.64554679166667,62.0,105.0
514,133.1158852416667,133.67732528333335,60.0,94.0
515,133.1158852416667,133.74512181666668,57.0,89.0
516,133.1158852416667,134.34469740833336,45.0,94.0
517,133.62435924166667,134.378595675,52.0,64.0
518,134.13283324166667,134.5396124416667,60.0,114.0
519,134.13283324166667,134.55444293333335,57.0,102.0
520,134.13283324166667,134.60529033333336,64.0,100.0
521,134.64130724166668,134.94215435833334,45.0,87.0
522,135.1497812416667,135.80656015833335,62.0,84.0
523,135.1497812416667,135.82139065,59.0,87.0
524,135.6582552416667,136.234525775,54.0,65.0
525,135.1497812416667,136.40613575,47.0,69.0
526,136.16672924166667,136.67732188333335,59.0,89.0
527,136.16672924166667,136.70486422500002,62.0,97.0
528,136.16672924166667,136.86799963333334,66.0,99.0
529,136.67520324166668,137.048084175,47.0,89.0
530,137.1836772416667,137.96153693333335,60.0,87.0
531,137.1836772416667,137.9698702666667,64.0,92.0
532,137.1836772416667,138.42820360000002,48.0,92.0
533,137.69070360000003,138.43445360000004,55.0,37.0
534,138.69070360000003,139.0698702666667,48.0,87.0
535,138.19070360000003,139.15112026666668,60.0,105.0
536,138.19070360000003,139.23653693333335,64.0,114.0
537,139.44070360000003,140.04903693333335,62.0,80.0
538,139.44070360000003,140.09278693333337,66.0,96.0
539,139.44070360000003,140.30528693333335,57.0,78.0
540,140.19070360000003,140.49487026666668,62.0,92.0
541,139.44070360000003,140.5698702666667,50.0,53.0
542,140.44070360000003,140.64070360000002,57.0,67.0
543,140.19070360000003,140.72820360000003,66.0,63.0
544,140.19070360000003,140.78445360000003,69.0,94.0
545,140.94070360000003,141.0136202666667,66.0,30.0
546,140.69070360000003,141.10320360000003,62.0,78.0
547,141.44070360000003,142.3636202666667,52.0,114.0
548,141.44070360000003,142.37820360000003,67.0,117.0
549,141.44070360000003,142.38445360000003,64.0,102.0
550,142.44070360000003,142.90945360000003,54.0,116.0
551,142.44070360000003,142.93237026666668,66.0,54.0
552,142.94070360000003,143.08028693333335,55.0,82.0
553,142.94070360000003,143.14070360000002,67.0,94.0
554,143.19070360000003,143.7636202666667,60.0,94.0
555,143.19070360000003,143.98653693333335,64.0,89.0
556,143.94070360000003,144.06153693333337,60.0,52.0
557,143.69070360000003,144.46153693333335,55.0,82.0
558,143.19070360000003,144.55320360000002,48.0,111.0
559,144.19070360000003,145.04903693333335,64.0,111.0
560,144.19070360000003,145.05528693333335,67.0,105.0
561,144.19070360000003,145.05945360000004,60.0,117.0
562,144.69070360000003,145.10528693333336,48.0,78.0
563,144.69070360000003,145.10945360000002,55.0,53.0
564,145.19070360000003,145.53653693333337,62.0,78.0
565,145.19070360000003,145.7823702666667,66.0,77.0
566,145.69070360000003,146.0136202666667,62.0,71.0
567,145.19070360000003,146.03445360000003,50.0,92.0
568,145.19070360000003,146.05945360000004,57.0,89.0
569,146.19070360000003,146.38653693333336,62.0,97.0
570,146.19070360000003,146.5511202666667,57.0,105.0
571,146.19070360000003,146.58445360000002,50.0,102.0
572,146.19070360000003,146.73028693333336,66.0,99.0
573,146.19070360000003,146.80320360000002,69.0,94.0
574,146.69070360000003,146.84278693333337,62.0,92.0
575,147.19070360000003,147.73028693333336,57.0,94.0
576,147.19070360000003,147.7636202666667,61.0,85.0
577,147.19070360000003,147.91153693333337,64.0,89.0
578,147.94070360000003,148.0761202666667,57.0,84.0
579,147.69070360000003,148.4886202666667,52.0,89.0
580,147.19070360000003,148.5073702666667,45.0,108.0
581,148.19070360000003,148.7636202666667,57.0,108.0
582,148.19070360000003,148.76778693333335,61.0,105.0
583,148.19070360000003,148.81153693333337,64.0,102.0
584,148.69070360000003,149.10320360000003,45.0,102.0
585,149.19070360000003,149.4073702666667,59.0,100.0
586,149.19070360000003,149.79695360000002,64.0,100.0
587,149.69070360000003,150.05528693333335,59.0,89.0
588,149.19070360000003,150.27820360000004,52.0,111.0
589,150.19070360000003,150.2948702666667,64.0,105.0
590,150.19070360000003,150.30528693333335,59.0,97.0
591,150.19070360000003,150.30945360000004,67.0,100.0
592,150.44070360000003,151.06570360000003,50.0,120.0
593,150.44070360000003,151.06778693333337,57.0,108.0
594,150.44070360000003,151.08653693333335,62.0,87.0
595,151.19070360000003,151.46153693333335,55.0,100.0
596,151.19070360000003,151.73028693333336,60.0,108.0
597,151.69070360000003,151.9198702666667,55.0,73.0
598,151.19070360000003,152.36570360000002,48.0,111.0
599,152.19070360000003,152.43237026666668,55.0,102.0
600,152.19070360000003,152.48028693333336,60.0,114.0
601,152.19070360000003,152.49695360000004,64.0,108.0
602,152.44070360000003,152.6886202666667,48.0,92.0
603,152.69070360000003,152.98028693333336,55.0,89.0
604,152.94070360000003,153.10945360000002,60.0,78.0
605,153.19070360000003,153.48653693333335,62.0,94.0
606,153.19070360000003,153.5073702666667,59.0,92.0
607,153.69070360000003,154.29903693333335,54.0,72.0
608,153.19070360000003,154.38445360000003,47.0,100.0
609,154.19070360000003,154.5386202666667,59.0,111.0
610,154.19070360000003,154.67820360000002,62.0,111.0
611,154.19070360000003,154.71570360000004,66.0,109.0
612,154.69070360000003,154.85945360000002,47.0,66.0
613,155.19070360000003,155.34278693333337,60.0,102.0
614,155.19070360000003,155.34278693333337,64.0,102.0
615,155.19070360000003,155.35320360000003,57.0,100.0
616,155.19070360000003,155.36987026666668,45.0,97.0
617,155.19070360000003,155.37403693333337,52.0,89.0
618,155.69070360000003,155.84695360000003,45.0,89.0
619,155.69070360000003,155.85320360000003,60.0,94.0
620,155.69070360000003,155.85320360000003,64.0,92.0
621,155.69070360000003,155.8573702666667,57.0,94.0
622,155.69070360000003,155.86570360000002,52.0,82.0
623,156.19070360000003,156.43042802500003,45.0,108.0
624,156.18653693333337,156.43678395000003,60.0,108.0
625,156.18653693333337,156.44737715833335,52.0,100.0
626,156.19070360000003,156.44949580000002,64.0,100.0
627,156.19695360000003,156.4516144416667,57.0,97.0
628,156.57237701666668,156.79271575,45.0,111.0
629,156.5787329416667,156.8329699416667,64.0,100.0
630,156.5914447916667,156.8456817916667,57.0,105.0
631,156.94313930833334,157.1126306416667,57.0,100.0
632,156.92619017500002,157.11686792500004,45.0,102.0
633,156.9410206666667,157.1316984166667,64.0,92.0
634,157.205850875,158.35415465833336,59.0,100.0
635,158.22279887500002,158.46856130833336,54.0,50.0
636,158.477035875,158.75669657500003,51.0,96.0
637,158.22279887500002,159.05542505000003,63.0,90.0
638,158.22279887500002,159.07025554166668,71.0,100.0
639,158.22279887500002,159.0956792416667,66.0,79.0
640,158.73127287500003,159.15923849166668,54.0,93.0
641,157.205850875,159.1846621916667,47.0,108.0
642,158.98550987500002,159.19737404166668,59.0,105.0
643,159.23974687500004,159.5215262166667,59.0,89.0
644,159.23974687500004,159.77364457500002,64.0,92.0
645,159.74822087500002,160.07237305,59.0,57.0
646,160.25669487500002,160.47067768333335,59.0,108.0
647,160.25669487500002,160.79482985833334,64.0,111.0
648,160.25669487500002,160.98550760833336,67.0,111.0
649,160.76516887500003,161.00033810000002,59.0,92.0
650,159.23974687500004,161.1168633916667,52.0,102.0
651,161.27364287500004,162.00881153333336,64.0,84.0
652,161.27364287500004,162.02152338333335,60.0,49.0
653,162.29059087500002,162.4960991166667,60.0,111.0
654,161.27364287500004,162.53635330833336,48.0,100.0
655,161.782116875,162.65287860000004,55.0,78.0
656,162.29059087500002,162.80965808333335,64.0,111.0
657,162.29059087500002,162.87745461666668,67.0,100.0
658,162.79906487500003,162.91347152500003,60.0,108.0
659,163.30753887500003,163.61050463333336,57.0,76.0
660,163.30753887500003,163.94736865833335,62.0,84.0
661,163.30753887500003,163.97067371666668,66.0,96.0
662,163.816012875,164.06813123333336,57.0,64.0
663,164.32448687500002,164.55082845000004,57.0,102.0
664,163.30753887500003,164.57791178333338,50.0,100.0
665,164.32448687500002,164.8112451166667,66.0,93.0
666,164.32448687500002,164.83207845000004,62.0,97.0
667,164.82791178333338,164.9737451166667,57.0,92.0
668,165.32791178333338,165.80082845000004,59.0,89.0
669,165.32791178333338,165.8112451166667,55.0,78.0
670,165.32791178333338,165.8299951166667,62.0,89.0
671,165.82791178333338,166.4549951166667,50.0,78.0
672,165.32791178333338,166.6424951166667,43.0,105.0
673,166.32791178333338,166.8174951166667,55.0,97.0
674,166.32791178333338,166.85707845000002,59.0,108.0
675,166.32791178333338,167.06957845000002,62.0,97.0
676,166.82791178333338,167.13832845000002,50.0,78.0
677,167.07791178333338,167.17791178333337,55.0,89.0
678,167.32791178333338,167.8362451166667,60.0,102.0
679,167.32791178333338,167.8862451166667,57.0,102.0
680,167.32791178333338,168.5737451166667,45.0,100.0
681,167.82791178333338,168.64457845000004,52.0,73.0
682,168.32791178333338,168.7987451166667,60.0,117.0
683,168.32791178333338,168.88416178333335,57.0,105.0
684,168.32791178333338,169.12791178333336,64.0,105.0
685,168.82791178333338,169.17582845000004,52.0,20.0
686,168.82791178333338,169.1799951166667,45.0,55.0
687,169.32791178333338,169.5924951166667,59.0,94.0
688,169.32791178333338,169.9362451166667,64.0,94.0
689,169.82791178333338,170.14666178333337,59.0,66.0
690,170.32791178333338,170.5112451166667,59.0,100.0
691,169.32791178333338,170.63416178333335,52.0,102.0
692,170.32791178333338,170.79666178333338,64.0,105.0
693,170.32791178333338,170.85707845000002,67.0,94.0
694,170.82791178333338,170.94666178333335,59.0,108.0
695,171.32791178333338,171.5799951166667,54.0,70.0
696,171.32791178333338,172.05916178333337,61.0,65.0
697,171.32791178333338,172.1112451166667,58.0,68.0
698,171.82791178333338,172.20082845000002,54.0,87.0
699,171.32791178333338,172.34666178333336,42.0,90.0
700,172.32791178333338,172.55707845000003,54.0,105.0
701,172.32791178333338,172.8112451166667,58.0,112.0
702,172.32791178333338,172.87166178333337,61.0,96.0
703,172.82791178333338,172.88416178333335,54.0,44.0
704,173.32791178333338,173.80707845000003,59.0,97.0
705,173.32791178333338,173.81957845000002,66.0,96.0
706,173.32791178333338,173.82582845000002,63.0,90.0
707,174.07791178333338,174.2049951166667,59.0,89.0
708,173.82791178333338,174.42166178333338,54.0,70.0
709,174.32791178333338,174.62791178333336,59.0,114.0
710,174.32791178333338,174.88832845000002,63.0,112.0
711,174.32791178333338,174.90916178333336,66.0,109.0
712,174.57791178333338,175.1549951166667,54.0,99.0
713,173.32791178333338,175.1862451166667,47.0,100.0
714,175.07791178333338,175.23832845000004,63.0,90.0
715,174.82791178333338,175.24457845000003,59.0,108.0
716,175.32791178333338,175.6049951166667,59.0,89.0
717,175.32791178333338,175.85291178333335,64.0,92.0
718,175.82791178333338,176.14666178333337,59.0,57.0
719,176.32791178333338,176.53832845000002,59.0,108.0
720,176.32791178333338,176.85707845000002,64.0,111.0
721,176.32791178333338,177.04457845000002,67.0,111.0
722,176.82791178333338,177.05916178333337,59.0,92.0
723,175.32791178333338,177.1737451166667,52.0,102.0
724,177.32791178333338,178.05082845000004,64.0,84.0
725,177.32791178333338,178.06332845000003,60.0,49.0
726,178.32791178333338,178.5299951166667,60.0,111.0
727,177.32791178333338,178.56957845000002,48.0,100.0
728,177.82791178333338,178.68416178333337,55.0,78.0
729,178.32791178333338,178.83832845000003,64.0,111.0
730,178.32791178333338,178.9049951166667,67.0,100.0
731,178.82791178333338,178.94041178333336,60.0,108.0
732,179.32791178333338,179.62582845000003,57.0,76.0
733,179.32791178333338,179.95707845000004,62.0,84.0
734,179.32791178333338,179.9799951166667,66.0,96.0
735,179.82791178333338,180.07582845000002,57.0,64.0
736,180.32791178333338,180.55082845000004,57.0,102.0
737,179.32791178333338,180.57791178333338,50.0,100.0
738,180.32791178333338,180.8112451166667,66.0,93.0
739,180.32791178333338,180.83207845000004,62.0,97.0
740,180.82791178333338,180.9737451166667,57.0,92.0
741,181.32791178333338,181.80082845000004,59.0,89.0
742,181.32791178333338,181.8112451166667,55.0,78.0
743,181.32791178333338,181.8299951166667,62.0,89.0
744,181.82791178333338,182.4549951166667,50.0,78.0
745,181.32791178333338,182.6424951166667,43.0,105.0
746,182.32791178333338,182.8174951166667,55.0,97.0
747,182.32791178333338,182.85707845000002,59.0,108.0
748,182.32791178333338,183.06957845000002,62.0,97.0
749,182.82791178333338,183.13832845000002,50.0,78.0
750,183.07791178333338,183.17791178333337,55.0,89.0
751,183.32791178333338,183.8362451166667,60.0,102.0
752,183.32791178333338,183.8862451166667,57.0,102.0
753,183.32791178333338,184.5737451166667,45.0,100.0
754,183.82791178333338,184.64457845000004,52.0,73.0
755,184.32791178333338,184.7987451166667,60.0,117.0
756,184.32791178333338,184.88416178333335,57.0,105.0
757,184.32791178333338,185.12791178333336,64.0,105.0
758,184.82791178333338,185.17582845000004,52.0,20.0
759,184.82791178333338,185.1799951166667,45.0,55.0
760,185.32791178333338,185.71541178333337,64.0,97.0
761,185.32791178333338,185.81957845000002,67.0,105.0
762,185.32791178333338,185.86541178333337,52.0,108.0
763,185.82791178333338,185.9799951166667,59.0,111.0
764,186.07791178333338,186.2299951166667,62.0,105.0
765,186.32791178333338,186.78416178333336,62.0,100.0
766,186.32791178333338,186.98832845000004,50.0,105.0
767,186.82791178333338,187.03207845000003,57.0,84.0
768,186.32791178333338,187.05291178333337,66.0,99.0
769,187.07791178333338,187.19041178333336,62.0,82.0
770,187.32791178333338,188.00082845000003,64.0,105.0
771,187.32791178333338,188.0174951166667,60.0,102.0
772,187.32791178333338,188.60160523333337,48.0,100.0
773,188.32791178333338,188.68423225833337,64.0,108.0
774,188.32791178333338,188.7266050916667,60.0,108.0
775,187.82791178333338,188.76050335833338,55.0,67.0
776,188.83253717500003,188.97024888333337,48.0,94.0
777,189.34101117500003,190.44058620000004,59.0,100.0
778,189.34101117500003,190.6460944416667,63.0,93.0
779,190.35795917500005,190.85795860833338,54.0,82.0
780,189.34101117500003,190.9193992166667,66.0,96.0
781,190.61219617500004,190.9766025416667,59.0,94.0
782,190.86643317500003,191.0083821666667,63.0,93.0
783,189.34101117500003,191.05922956666672,47.0,102.0
784,191.62914417500005,193.37702355000005,59.0,82.0
785,191.62914417500005,193.38126083333336,64.0,105.0
786,191.62914417500005,193.38337947500003,52.0,102.0
787,193.40880317500003,194.87490320833336,52.0,52.0
788,193.40880317500003,194.89608962500003,64.0,71.0
789,193.40880317500003,194.90244555000004,59.0,71.0
790,195.44269917500003,195.720064975,59.0,89.0
791,195.44269917500003,195.96798164166668,64.0,92.0
792,195.94298164166668,196.2617316416667,59.0,57.0
793,196.44298164166668,196.65339830833335,59.0,108.0
794,196.44298164166668,196.97214830833335,64.0,111.0
795,196.44298164166668,197.15964830833335,67.0,111.0
796,196.94298164166668,197.1742316416667,59.0,92.0
797,195.44269917500003,197.28881497500004,52.0,102.0
798,197.44298164166668,198.16589830833337,64.0,84.0
799,197.44298164166668,198.17839830833336,60.0,49.0
800,198.44298164166668,198.64506497500003,60.0,111.0
801,197.44298164166668,198.68464830833335,48.0,100.0
802,197.94298164166668,198.7992316416667,55.0,78.0
803,198.44298164166668,198.95339830833336,64.0,111.0
804,198.44298164166668,199.02006497500003,67.0,100.0
805,198.94298164166668,199.0554816416667,60.0,108.0
806,199.44298164166668,199.74089830833336,57.0,76.0
807,199.44298164166668,200.07214830833337,62.0,84.0
808,199.44298164166668,200.095064975,66.0,96.0
809,199.94298164166668,200.19089830833335,57.0,64.0
810,200.44298164166668,200.66589830833337,57.0,102.0
811,199.44298164166668,200.69298164166668,50.0,100.0
812,200.44298164166668,200.92631497500003,66.0,93.0
813,200.44298164166668,200.94714830833337,62.0,97.0
814,200.94298164166668,201.08881497500002,57.0,92.0
815,201.44298164166668,201.91589830833337,59.0,89.0
816,201.44298164166668,201.92631497500003,55.0,78.0
817,201.44298164166668,201.94506497500004,62.0,89.0
818,201.94298164166668,202.57006497500004,50.0,78.0
819,201.44298164166668,202.75756497500004,43.0,105.0
820,202.44298164166668,202.93256497500002,55.0,97.0
821,202.44298164166668,202.97214830833335,59.0,108.0
822,202.44298164166668,203.18464830833335,62.0,97.0
823,202.94298164166668,203.25339830833335,50.0,78.0
824,203.19298164166668,203.2929816416667,55.0,89.0
825,203.44298164166668,203.95131497500003,60.0,102.0
826,203.44298164166668,204.001314975,57.0,102.0
827,203.44298164166668,204.688814975,45.0,100.0
828,203.94298164166668,204.75964830833337,52.0,73.0
829,204.44298164166668,204.91381497500004,60.0,117.0
830,204.44298164166668,204.99923164166668,57.0,105.0
831,204.44298164166668,205.2429816416667,64.0,105.0
832,204.94298164166668,205.29089830833337,52.0,20.0
833,204.94298164166668,205.29506497500003,45.0,55.0
834,205.44298164166668,205.8304816416667,64.0,97.0
835,205.44298164166668,205.93464830833335,67.0,105.0
836,205.44298164166668,205.9804816416667,52.0,108.0
837,205.94298164166668,206.095064975,59.0,111.0
838,206.19298164166668,206.345064975,62.0,105.0
839,206.44298164166668,206.8992316416667,62.0,100.0
840,206.44298164166668,207.10339830833337,50.0,105.0
841,206.94298164166668,207.14714830833336,57.0,84.0
842,206.44298164166668,207.1679816416667,66.0,99.0
843,207.19298164166668,207.3054816416667,62.0,82.0
844,207.44298164166668,208.11589830833336,64.0,105.0
845,207.44298164166668,208.13256497500004,60.0,102.0
846,207.44298164166668,208.71589830833335,48.0,100.0
847,208.44298164166668,208.79714830833336,64.0,108.0
848,208.44298164166668,208.83881497500002,60.0,108.0
849,207.94298164166668,208.87214830833335,55.0,67.0
850,208.94298164166668,209.07839830833336,48.0,94.0
851,209.44298164166668,210.5242316416667,59.0,100.0
852,209.44298164166668,210.72631497500004,63.0,93.0
853,210.44298164166668,210.93464830833335,54.0,82.0
854,209.44298164166668,210.99506497500002,66.0,96.0
855,210.69298164166668,211.05131497500003,59.0,94.0
856,210.94298164166668,211.08256497500003,63.0,93.0
857,209.44298164166668,211.13256497500004,47.0,102.0
858,211.45756497500003,211.80964830833335,59.0,69.0
859,211.45339830833336,212.31173164166668,64.0,87.0
860,211.9242316416667,212.59089830833335,59.0,60.0
861,212.46589830833335,213.09089830833335,67.0,80.0
862,212.46381497500002,213.15339830833335,64.0,84.0
863,213.43256497500002,216.157564975,64.0,66.0
864,213.438814975,216.16173164166668,59.0,66.0
865,211.45339830833336,216.2304816416667,52.0,94.0
