,start,end,pitch,velocity
0,33.288401050000004,33.39386445833334,77.0,107.0
1,33.49587005,33.596146733333335,77.0,79.0
2,33.703339050000004,33.86066970833334,77.0,93.0
3,33.91080805,34.004169100000006,80.0,127.0
4,34.11827705,34.39144456666667,80.0,122.0
5,34.53321505,34.918761608333334,75.0,117.0
6,34.94815305,35.38038013333334,77.0,107.0
7,36.19296705000001,36.431556400000005,80.0,127.0
8,36.40043605,36.57332688333334,82.0,100.0
9,36.60790505000001,36.945042175000005,84.0,112.0
10,37.022843050000006,37.154240083333335,84.0,127.0
11,37.437781050000005,37.551889,82.0,122.0
12,37.64525005,38.21751870833334,87.0,127.0
13,38.267657050000004,38.864130425000006,84.0,117.0
14,39.92740905,40.146980408333334,82.0,127.0
15,40.34234705,40.53079805833334,82.0,122.0
16,40.549816050000004,40.653550550000006,84.0,95.0
17,40.75728505000001,41.03045256666667,84.0,99.0
18,41.17222305000001,41.51281799166667,80.0,122.0
19,41.587161050000006,42.181905516666674,82.0,127.0
20,42.831975050000004,42.98930570833334,82.0,127.0
21,43.03944405000001,43.189859075,84.0,95.0
22,43.24691305,43.57713454166667,77.0,102.0
23,43.66185105,43.91945839166667,77.0,107.0
24,44.07678905,44.22893298333334,75.0,127.0
25,44.49172705,44.90320723333334,75.0,117.0
26,44.90666505000001,45.658740175000005,72.0,96.0
27,46.566417050000005,46.83958456666667,77.0,122.0
28,46.981355050000005,47.11966771666667,77.0,100.0
29,47.18882405000001,47.302932000000006,80.0,102.0
30,47.396293050000004,47.77665288333334,80.0,107.0
31,47.81123105,48.176030708333336,75.0,107.0
32,48.22616905,48.95058164166667,77.0,107.0
33,49.47098305000001,49.730319300000005,80.0,127.0
34,49.678452050000004,49.875547600000004,82.0,100.0
35,49.88592105000001,50.11413695,84.0,107.0
36,50.30085905000001,50.617249275000006,87.0,127.0
37,50.715797050000006,50.968217666666675,89.0,127.0
38,51.33820405000001,52.00556266666667,82.0,117.0
39,51.960611050000004,52.7386198,84.0,122.0
40,52.79048705,52.95300443333334,82.0,122.0
41,52.997956050000006,53.22790085833334,80.0,97.0
42,53.20542505,53.55466453333334,82.0,127.0
43,53.62036305000001,53.90390401666667,84.0,117.0
44,54.03530105000001,54.27216149166667,84.0,112.0
45,54.45023905000001,54.543600100000006,80.0,112.0
46,54.657708050000004,55.36310265000001,82.0,127.0
47,55.48758405,55.67084833333334,75.0,107.0
48,55.695053050000006,55.94401585000001,72.0,97.0
49,56.109991050000005,56.91220451666667,82.0,127.0
50,56.939867050000004,58.117253625000004,77.0,107.0
51,59.01455705000001,59.2946402,80.0,127.0
52,59.42949505000001,59.694018025000005,82.0,127.0
53,59.844433050000006,59.99139025833334,84.0,127.0
54,60.05190205000001,60.228250700000004,84.0,117.0
55,60.46684005000001,60.57057455,84.0,127.0
56,60.674309050000005,60.85584442500001,84.0,127.0
57,61.089247050000004,61.36587238333334,82.0,127.0
58,61.504185050000004,62.048791175000005,84.0,127.0
59,62.74899905000001,62.93399224166667,84.0,107.0
60,62.956468050000005,63.16047923333334,87.0,100.0
61,63.16393705000001,63.402526400000006,89.0,112.0
62,63.57887505000001,63.66877828333334,89.0,127.0
63,63.786344050000004,63.884891825000004,89.0,95.0
64,63.99381305000001,64.44851594166667,92.0,127.0
65,64.61622005000001,64.77182180000001,87.0,122.0
66,64.82368905000001,65.42880696666667,89.0,102.0
67,66.06850305,66.23966497500001,87.0,127.0
68,66.27597205000001,66.42638707500001,89.0,97.0
69,66.48344105000001,66.93987285,92.0,127.0
70,67.10584805,67.17846220000001,92.0,112.0
71,67.31331705000001,67.52424386666668,92.0,127.0
72,67.72825505,68.11034379166668,89.0,112.0
73,68.14319305000001,68.68607026666668,87.0,122.0
74,68.76560005,68.92465961666667,87.0,100.0
75,68.97306905,69.21857403333334,89.0,112.0
76,69.59547605,70.00349841666667,82.0,122.0
77,70.21788305000001,71.88282177500001,84.0,122.0
78,72.29257305,72.588216375,87.0,127.0
79,72.70751105000001,72.97722075,84.0,122.0
80,73.12244905000001,73.1950632,82.0,127.0
81,73.32991805,73.40080329166668,82.0,127.0
82,73.53738705,73.62210355833334,82.0,112.0
83,73.74485605000001,73.85896400000001,82.0,127.0
84,73.95232505000001,74.18054095000001,84.0,127.0
85,74.36726305,74.72514707500001,80.0,122.0
86,74.78220105000001,75.1867656,82.0,127.0
87,76.02701505,76.374525625,84.0,112.0
88,76.44195305000001,76.90011375833335,77.0,102.0
89,77.06436005,77.29430485833335,77.0,122.0
90,77.27182905000001,77.56747237500001,75.0,107.0
91,77.68676705000001,78.04810889166667,75.0,127.0
92,78.10170505,78.52182977500001,72.0,96.0
93,79.34651905000001,79.6058553,79.0,127.0
94,79.76145705,80.07266055000001,79.0,127.0
95,81.00627105000001,81.30710110000001,77.0,117.0
96,81.42120905,81.85516504166668,75.0,99.0
97,82.04361605000001,82.17674199166667,72.0,99.0
98,82.25108505000001,82.61934252500001,82.0,112.0
99,82.66602305,83.06194305833334,80.0,117.0
100,83.08096105000001,85.54490379166668,77.0,102.0
101,85.57788985000002,85.73066738333334,82.0,127.0
102,85.78622285000002,85.96156979166668,80.0,112.0
103,85.99455585000001,86.15948614166668,77.0,86.0
104,86.20288885000001,87.81399738333334,82.0,127.0
105,88.70288485000002,88.76712085833334,82.0,99.0
106,88.91121785000001,88.96330110000001,82.0,97.0
107,89.11955085000001,89.27059227500001,82.0,117.0
108,89.32788385,89.71677211666668,80.0,112.0
109,89.74454985000001,91.35045005833335,77.0,100.0
110,92.66121185000002,92.96850302500002,80.0,127.0
111,93.07787785000001,93.87822379166668,79.0,122.0
112,94.32787585000001,94.62127815833335,77.0,100.0
113,94.74454185000002,95.04141637500001,75.0,102.0
114,95.36954085,95.51190173333335,72.0,97.0
115,95.57787385000002,95.92856773333335,82.0,117.0
116,95.99453985000001,96.37301146666668,80.0,122.0
117,96.41120585000002,98.63168840833335,77.0,100.0
118,126.31397701250002,126.41929465625002,77.0,107.0
119,126.52115926250002,126.62129735000002,77.0,79.0
120,126.72834151250001,126.88545471875001,77.0,93.0
121,126.93552376250001,127.02875577500001,80.0,127.0
122,127.14270601250001,127.41549597500001,80.0,122.0
123,127.55707051250002,127.94208419375002,75.0,117.0
124,127.97143501250002,128.40306470000002,77.0,107.0
125,129.2145285125,129.45278810000002,80.0,127.0
126,129.42171076250003,129.5943626375,82.0,100.0
127,129.62889301250001,129.96556416875,84.0,112.0
128,130.04325751250002,130.1744729375,84.0,127.0
129,130.45762201250002,130.57157225000003,82.0,122.0
130,130.6648042625,131.23628196875,87.0,127.0
131,131.2863510125,131.88199998125,84.0,117.0
132,132.94380901250003,133.16307689375003,82.0,127.0
133,133.3581735125,133.54636405625,82.0,122.0
134,133.56535576250002,133.66894688750003,84.0,95.0
135,133.7725380125,134.04532797500002,84.0,99.0
136,134.1869025125,134.52702670625,80.0,122.0
137,134.60126701250002,135.19518946250003,82.0,127.0
138,135.84436051250003,136.00147371875002,82.0,127.0
139,136.05154276250002,136.20174989375002,84.0,95.0
140,136.2587250125,136.58849009375,77.0,102.0
141,136.6730895125,136.93034080625,77.0,107.0
142,137.08745401250002,137.2393876625,75.0,127.0
143,137.50181851250002,137.91272997500002,75.0,117.0
144,137.91618301250003,138.66721866875002,72.0,96.0
145,139.57364101250002,139.846430975,77.0,122.0
146,139.98800551250002,140.1261270125,77.0,100.0
147,140.1951877625,140.30913800000002,80.0,102.0
148,140.4023700125,140.7822041375,80.0,107.0
149,140.8167345125,141.18102996875,75.0,107.0
150,141.2310990125,141.95451036875002,77.0,107.0
151,142.47419251250003,142.733170325,80.0,127.0
152,142.6813747625,142.87819790000003,82.0,100.0
153,142.88855701250003,143.1164574875,84.0,107.0
154,143.3029215125,143.61887444375003,87.0,127.0
155,143.7172860125,143.96935775000003,89.0,127.0
156,144.33883276250003,145.005269,82.0,117.0
157,144.96037951250003,145.73731295000002,84.0,122.0
158,145.7891085125,145.95140127500002,82.0,122.0
159,145.99629076250002,146.22591775625,80.0,97.0
160,146.2034730125,146.55222980000002,82.0,127.0
161,146.61783751250002,146.90098658750003,84.0,117.0
162,147.03220201250002,147.26873508125001,84.0,112.0
163,147.4465665125,147.539798525,80.0,112.0
164,147.65374876250002,148.35816841250002,82.0,127.0
165,148.48247776250003,148.66548875,75.0,107.0
166,148.6896600125,148.93827871250002,72.0,97.0
167,149.10402451250002,149.90512921250001,82.0,127.0
168,149.93275351250003,151.113259625,77.0,107.0
169,152.01429985000001,152.29554940000003,80.0,127.0
170,152.43096585000004,152.696590425,82.0,127.0
171,152.84763185000003,152.99520105833335,84.0,127.0
172,153.05596485,153.23304790000003,84.0,117.0
173,153.47263085000003,153.57679735000002,84.0,127.0
174,153.68096385,153.86325522500002,84.0,127.0
175,154.09762985000003,154.37540718333335,82.0,127.0
176,154.51429585000002,155.061169975,84.0,127.0
177,155.76429385000003,155.9500574416667,84.0,107.0
178,155.97262685,156.17748763333336,87.0,100.0
179,156.18095985000002,156.42054280000002,89.0,112.0
180,156.59762585000001,156.68790348333334,89.0,127.0
181,156.80595885000002,156.90491702500003,89.0,95.0
182,157.01429185000003,157.4708883416667,92.0,127.0
183,157.63929085,157.7955406,87.0,122.0
184,157.84762385000002,158.4552617666667,89.0,102.0
185,159.09762185000002,159.26949657500003,87.0,127.0
186,159.30595485000003,159.45699627500002,89.0,97.0
187,159.51428785000002,159.97262045000002,92.0,127.0
188,160.13928685000002,160.21220340000002,92.0,112.0
189,160.34761985000003,160.55942506666668,92.0,127.0
190,160.76428585000002,161.14796579166668,89.0,112.0
191,161.18095185,161.72608986666668,87.0,122.0
192,161.80595085000002,161.96567281666668,87.0,100.0
193,162.01428385000003,162.26081123333336,89.0,112.0
194,162.63928285000003,163.0490044166667,82.0,122.0
195,163.26428185000003,164.936154175,84.0,122.0
196,165.34761185000002,165.644486375,87.0,127.0
197,165.76427785,166.03511075000003,84.0,122.0
198,166.18094385000003,166.2538604,82.0,127.0
199,166.38927685000002,166.4604572916667,82.0,127.0
200,166.59760985000003,166.68267915833334,82.0,112.0
201,166.80594285,166.92052600000002,82.0,127.0
202,167.01427585000002,167.24344215000002,84.0,127.0
203,167.43094185,167.790316275,80.0,122.0
204,167.84760785000003,168.25385720000003,82.0,127.0
205,169.09760585000004,169.446563625,84.0,112.0
206,169.51427185000003,169.97434055833335,77.0,102.0
207,170.13927085000003,170.37017325833335,77.0,122.0
208,170.34760385,170.64447837500003,75.0,107.0
209,170.76426985000003,171.1271164916667,75.0,127.0
210,171.18093585000003,171.60281017500003,72.0,96.0
211,172.43093385000003,172.69135010000002,79.0,127.0
212,172.84759985000002,173.16009935000002,79.0,127.0
213,174.09759785000003,174.39968070000003,77.0,117.0
214,174.51387505000002,174.9478310416667,75.0,99.0
215,175.13628205000003,175.2694079916667,72.0,99.0
216,175.34375105000004,175.71200852500002,82.0,112.0
217,175.75868905000002,176.15460905833336,80.0,117.0
218,176.17362705000002,178.6304057916667,77.0,102.0
219,178.66325505000003,178.81539898333335,82.0,127.0
220,178.87072405000004,179.04534379166668,80.0,112.0
221,179.07819305000004,179.24243934166668,77.0,86.0
222,179.28566205,180.89008898333336,82.0,127.0
223,181.77529005000002,181.83925965833336,82.0,99.0
224,181.98275905000003,182.0346263,82.0,97.0
225,182.19022805000003,182.34064307500003,82.0,117.0
226,182.39769705000003,182.7849725166667,80.0,112.0
227,182.81263505000004,184.41187525833337,77.0,100.0
228,185.71720105000003,186.02321782500002,80.0,127.0
229,186.13213905000003,186.9291657916667,79.0,122.0
230,187.37695305000003,187.66913855833337,77.0,100.0
231,187.79189105000003,188.08753437500002,75.0,102.0
232,188.41429805,188.55606853333336,72.0,97.0
233,188.62176705000002,188.97100653333337,82.0,117.0
234,189.03670505000002,189.41360706666669,80.0,122.0
235,189.45164305000003,191.66291680833336,77.0,100.0
236,192.77114705000002,192.91810425833336,84.0,127.0
237,192.97861605000003,193.15496470000002,84.0,117.0
238,193.39355405000003,193.49728855000004,84.0,127.0
239,193.60102305000004,193.78255842500002,84.0,127.0
240,194.01596105000002,194.29258638333337,82.0,127.0
241,194.43089905000002,194.97550517500002,84.0,127.0
242,195.67571305,195.8607062416667,84.0,107.0
243,195.88318205000002,196.08719323333335,87.0,100.0
244,196.09065105000002,196.32924040000003,89.0,112.0
245,196.50558905000003,196.59549228333336,89.0,127.0
246,196.71305805000003,196.81160582500002,89.0,95.0
247,196.92052705000003,197.3752299416667,92.0,127.0
248,197.54293405000004,197.69853580000003,87.0,122.0
249,197.75040305000002,198.3555209666667,89.0,102.0
250,198.99521705000004,199.16637897500004,87.0,127.0
251,199.20268605000004,199.35310107500004,89.0,97.0
252,199.41015505000001,199.86658685000003,92.0,127.0
253,200.03256205000002,200.10517620000002,92.0,112.0
254,200.24003105000003,200.4509578666667,92.0,127.0
255,200.65496905000003,201.03705779166668,89.0,112.0
256,201.06990705000004,201.6127842666667,87.0,122.0
257,201.69231405000002,201.8513736166667,87.0,100.0
258,201.89978305000002,202.14528803333337,89.0,112.0
259,202.52219005000003,202.9302124166667,82.0,122.0
260,203.14459705000002,204.80953577500003,84.0,122.0
261,205.21928705000002,205.51493037500003,87.0,127.0
262,205.63422505000003,205.90393475000002,84.0,122.0
263,206.04916305000003,206.12177720000003,82.0,127.0
264,206.25663205000004,206.3275172916667,82.0,127.0
265,206.46410105000004,206.54881755833335,82.0,112.0
266,206.67157005,206.78567800000002,82.0,127.0
267,206.87903905000002,207.10725495000003,84.0,127.0
268,207.29397705000002,207.65186107500003,80.0,122.0
269,207.70891505000003,208.11347960000003,82.0,127.0
270,208.95372905000002,209.30123962500002,84.0,112.0
271,209.36866705000003,209.82682775833337,77.0,102.0
272,209.99107405000004,210.22101885833337,77.0,122.0
273,210.19854305,210.49418637500003,75.0,107.0
274,210.61348105000002,210.9748228916667,75.0,127.0
275,211.02841905000002,211.44854377500002,72.0,96.0
276,212.27323305000004,212.53256930000003,79.0,127.0
277,212.68817105000002,212.99937455000003,79.0,127.0
278,213.93298505,214.23381510000002,77.0,117.0
279,214.34792305000002,214.78187904166668,75.0,99.0
280,214.97033005000003,215.1034559916667,72.0,99.0
281,215.17779905000003,215.54605652500004,82.0,112.0
282,215.59273705000004,215.98865705833336,80.0,117.0
283,216.00767505000005,218.4644537916667,77.0,102.0
284,218.49730305000003,218.64944698333335,82.0,127.0
285,218.70477205000003,218.8793917916667,80.0,112.0
286,218.91224105000003,219.0764873416667,77.0,86.0
287,219.11971005000004,220.72413698333338,82.0,127.0
288,221.60933805000002,221.67330765833336,82.0,99.0
289,221.81680705000002,221.86867430000004,82.0,97.0
290,222.02427605000003,222.17469107500003,82.0,117.0
291,222.23174505000003,222.6190205166667,80.0,112.0
292,222.64668305000004,224.24592325833336,77.0,100.0
293,225.55124905000002,225.85726582500004,80.0,127.0
294,225.96618705000003,226.76321379166671,79.0,122.0
295,227.21100105000002,227.50318655833337,77.0,100.0
296,227.62593905000003,227.921582375,75.0,102.0
297,228.24834605000004,228.39011653333336,72.0,97.0
298,228.45581505000004,228.80505453333336,82.0,117.0
299,228.87075305000002,229.2476550666667,80.0,122.0
300,229.28569105000003,231.37075450000003,77.0,100.0
