,start,end,pitch,velocity
0,3.41286505,6.495508608333334,41.0,79.0
1,4.24274105,6.602700925000001,53.0,38.0
2,3.8278030500000004,6.756573766666667,48.0,55.0
3,4.24274105,7.318468975000001,68.0,74.0
4,4.6576790500000005,7.334029150000001,60.0,73.0
5,4.24274105,7.356504958333334,65.0,77.0
6,7.977183050000001,9.42946605,60.0,63.0
7,6.732369050000001,9.910102566666668,41.0,67.0
8,7.5622450500000005,9.980987808333335,53.0,52.0
9,7.147307050000001,10.13486065,48.0,42.0
10,7.5622450500000005,10.603394808333334,68.0,76.0
11,9.636935050000002,10.606852625000002,60.0,63.0
12,7.5622450500000005,10.606852625000002,65.0,67.0
13,10.051873050000001,12.856162366666668,41.0,72.0
14,10.46681105,12.8838249,48.0,35.0
15,10.881749050000002,12.902842891666667,68.0,86.0
16,10.881749050000002,12.904571800000001,65.0,82.0
17,10.881749050000002,12.952981233333334,53.0,55.0
18,11.296687050000001,13.022137566666668,60.0,88.0
19,13.78631505,14.292885191666668,56.0,72.0
20,14.201253050000002,15.695029850000001,60.0,73.0
21,14.201253050000002,15.695029850000001,63.0,71.0
22,14.616191050000001,15.810866708333336,56.0,72.0
23,15.861005050000001,15.966468458333335,60.0,66.0
24,15.861005050000001,15.971655183333334,56.0,41.0
25,13.371377050000001,16.002775533333335,44.0,92.0
26,15.861005050000001,16.007962258333336,63.0,90.0
27,16.69088105,17.3029146,65.0,86.0
28,16.69088105,17.34786621666667,58.0,99.0
29,16.69088105,17.382444383333336,61.0,107.0
30,17.52075705,18.035971733333334,65.0,71.0
31,17.52075705,18.098212433333334,61.0,72.0
32,17.52075705,18.129332783333336,58.0,66.0
33,16.69088105,18.71716161666667,46.0,112.0
34,18.350633050000003,18.836456291666668,61.0,97.0
35,18.350633050000003,18.845100833333337,58.0,93.0
36,18.350633050000003,18.886594633333335,65.0,77.0
37,18.765571050000002,19.06467219166667,46.0,64.0
38,19.18050905,19.483068008333337,65.0,92.0
39,19.18050905,19.488254733333335,61.0,102.0
40,19.18050905,19.540121983333336,58.0,97.0
41,19.59544705,19.97234906666667,46.0,93.0
42,20.010385050000004,20.290468200000003,53.0,93.0
43,20.010385050000004,20.292197108333337,56.0,99.0
44,20.010385050000004,20.302570558333336,60.0,90.0
45,20.425323050000003,20.919790833333334,48.0,49.0
46,20.010385050000004,21.177398175,41.0,72.0
47,20.840261050000002,21.262114683333337,68.0,107.0
48,20.840261050000002,21.27421704166667,65.0,100.0
49,21.25519905,21.32089756666667,48.0,52.0
50,20.840261050000002,21.348560100000004,60.0,96.0
51,21.67013705,22.309833133333335,60.0,96.0
52,21.67013705,22.313290950000003,67.0,89.0
53,21.67013705,22.328851125000003,63.0,102.0
54,21.67013705,22.638325716666667,55.0,92.0
55,22.500013050000003,22.871728341666667,63.0,127.0
56,22.500013050000003,22.904577600000003,60.0,112.0
57,22.500013050000003,22.904577600000003,67.0,107.0
58,21.67013705,22.999667558333336,48.0,69.0
59,22.914951050000003,23.174287300000003,55.0,86.0
60,23.329889050000002,24.021452383333337,70.0,102.0
61,23.329889050000002,24.030096925000002,67.0,107.0
62,23.329889050000002,24.038741466666668,63.0,100.0
63,23.329889050000002,24.34648715,51.0,107.0
64,24.15976505,24.498631083333336,67.0,117.0
65,24.15976505,24.514191258333337,70.0,100.0
66,24.15976505,24.574703050000004,63.0,97.0
67,24.574703050000004,24.923942533333335,51.0,97.0
68,24.989641050000003,25.395934508333337,60.0,95.0
69,24.989641050000003,25.406307958333336,63.0,102.0
70,24.989641050000003,25.421868133333337,67.0,92.0
71,24.989641050000003,25.440886125000002,48.0,71.0
72,26.649393050000004,27.33749856666667,60.0,83.0
73,26.649393050000004,27.351329833333335,56.0,93.0
74,26.649393050000004,27.377263458333335,53.0,86.0
75,27.064331050000003,27.583003550000004,48.0,52.0
76,27.479269050000003,27.82505071666667,53.0,55.0
77,27.479269050000003,28.05326661666667,56.0,72.0
78,27.894207050000002,28.386945925000003,48.0,51.0
79,28.724083050000004,29.23065319166667,48.0,40.0
80,28.30914505,29.24621336666667,55.0,77.0
81,29.139021050000004,29.579892675000004,56.0,102.0
82,26.649393050000004,29.797735125000003,41.0,81.0
83,29.553959050000003,29.85824691666667,55.0,66.0
84,29.553959050000003,29.906656350000002,48.0,24.0
85,27.479269050000003,30.440889025000004,60.0,76.0
86,29.968897050000002,32.91841466666667,41.0,82.0
87,31.213711050000004,33.056727333333335,55.0,38.0
88,30.383835050000002,33.091305500000004,48.0,52.0
89,30.798773050000005,33.16219074166667,56.0,86.0
90,30.798773050000005,33.16564855833334,60.0,73.0
91,33.288401050000004,33.988608925,60.0,79.0
92,33.288401050000004,33.99379565,56.0,88.0
93,33.288401050000004,33.99725346666667,53.0,89.0
94,33.703339050000004,34.33957731666667,48.0,39.0
95,34.11827705,34.67671444166667,60.0,67.0
96,34.11827705,34.68708789166667,56.0,69.0
97,34.53321505,35.098568075,48.0,41.0
98,34.94815305,35.29912144166667,60.0,57.0
99,34.94815305,35.306037075000006,56.0,53.0
100,34.94815305,35.33542851666667,53.0,42.0
101,35.36309105,35.65008983333334,48.0,38.0
102,33.288401050000004,35.727890708333334,41.0,68.0
103,35.77802905,35.90078154166667,56.0,100.0
104,35.77802905,35.924986258333334,60.0,90.0
105,36.60790505000001,37.0332165,60.0,92.0
106,36.60790505000001,37.090270475000004,63.0,95.0
107,36.60790505000001,37.12657755,56.0,92.0
108,36.60790505000001,37.5726359,51.0,75.0
109,37.437781050000005,37.870008133333336,60.0,90.0
110,37.437781050000005,37.88383940000001,56.0,83.0
111,37.437781050000005,37.88556830833334,63.0,88.0
112,38.267657050000004,38.677408325,60.0,86.0
113,38.267657050000004,38.70679976666667,63.0,79.0
114,38.267657050000004,38.74829356666667,56.0,70.0
115,37.852719050000005,39.18916519166667,51.0,36.0
116,39.09753305,39.22201445,60.0,95.0
117,39.09753305,39.24276135,63.0,85.0
118,39.09753305,39.24621916666667,56.0,92.0
119,36.60790505000001,39.560880483333335,44.0,55.0
120,37.852719050000005,39.64041026666667,48.0,1.0
121,39.51247105,39.673259525000006,51.0,45.0
122,39.92740905,40.39075648333334,65.0,69.0
123,39.92740905,40.45299718333334,61.0,62.0
124,39.92740905,40.47028626666667,58.0,81.0
125,39.92740905,40.89386880833334,46.0,68.0
126,40.75728505000001,41.19815667500001,65.0,75.0
127,40.75728505000001,41.25521065,61.0,74.0
128,40.75728505000001,41.27595755,58.0,83.0
129,41.587161050000006,42.03667721666667,65.0,77.0
130,41.587161050000006,42.183634425,58.0,78.0
131,41.587161050000006,42.235501675,61.0,82.0
132,41.17222305000001,42.327133816666674,46.0,38.0
133,42.417037050000005,42.66427094166667,65.0,72.0
134,42.417037050000005,42.702306925,61.0,74.0
135,42.417037050000005,42.76627653333334,58.0,78.0
136,42.831975050000004,43.217521608333335,46.0,50.0
137,43.24691305,43.70680266666667,60.0,83.0
138,43.24691305,43.760398825,53.0,88.0
139,43.24691305,43.87623568333334,56.0,89.0
140,43.24691305,44.04566870000001,41.0,56.0
141,43.66185105,44.11482503333334,48.0,38.0
142,44.07678905,44.180523550000004,53.0,66.0
143,44.07678905,44.185710275000005,56.0,97.0
144,44.07678905,44.22201735,60.0,90.0
145,44.90666505000001,45.525614233333336,60.0,89.0
146,44.90666505000001,45.54117440833334,67.0,74.0
147,44.90666505000001,45.59995729166667,63.0,96.0
148,44.90666505000001,45.81952865,55.0,90.0
149,45.73654105000001,46.120358700000004,63.0,117.0
150,45.73654105000001,46.12208760833334,67.0,95.0
151,44.90666505000001,46.137647783333335,48.0,75.0
152,46.151479050000006,46.22063538333334,60.0,96.0
153,46.566417050000005,47.05051138333334,60.0,93.0
154,46.566417050000005,47.079902825000005,53.0,102.0
155,46.566417050000005,47.19746859166667,56.0,97.0
156,47.396293050000004,47.93398354166667,56.0,99.0
157,47.396293050000004,47.99968205833334,60.0,81.0
158,48.22616905,48.90217220833334,60.0,74.0
159,48.22616905,48.903901116666674,53.0,74.0
160,48.22616905,48.912545658333336,56.0,78.0
161,47.81123105,49.04394269166667,48.0,36.0
162,46.566417050000005,49.298092216666674,41.0,72.0
163,49.263514050000005,49.36033291666667,48.0,89.0
164,49.05604505,49.43121815833334,56.0,112.0
165,49.05604505,49.455422875000004,60.0,96.0
166,49.47098305000001,49.54013938333334,55.0,83.0
167,49.88592105000001,50.33889503333334,60.0,85.0
168,49.88592105000001,50.46337643333334,56.0,95.0
169,49.88592105000001,50.57229765833334,63.0,77.0
170,49.88592105000001,50.95784421666667,51.0,83.0
171,50.715797050000006,51.151481950000004,56.0,89.0
172,50.715797050000006,51.160126491666674,60.0,99.0
173,50.715797050000006,51.17914448333334,63.0,90.0
174,51.130735050000006,51.867250000000006,51.0,34.0
175,51.545673050000005,51.95196650833334,60.0,96.0
176,51.545673050000005,51.974442316666675,56.0,89.0
177,51.545673050000005,52.021122841666674,63.0,89.0
178,51.960611050000004,52.52250625833334,51.0,41.0
179,52.375549050000004,52.640072025,60.0,107.0
180,52.375549050000004,52.66081892500001,56.0,96.0
181,52.375549050000004,52.676379100000005,63.0,99.0
182,49.88592105000001,52.83198085000001,44.0,60.0
183,52.79048705,52.94263098333334,51.0,50.0
184,53.20542505,53.698163925,65.0,72.0
185,53.20542505,53.775964800000004,58.0,95.0
186,53.20542505,53.960957991666675,61.0,88.0
187,53.20542505,54.07506594166667,46.0,89.0
188,54.03530105000001,54.289450575000004,65.0,85.0
189,54.03530105000001,54.31884201666667,61.0,99.0
190,54.03530105000001,54.349962366666674,58.0,100.0
191,54.45023905000001,54.77354490833334,46.0,37.0
192,54.86517705000001,55.295675225000004,67.0,85.0
193,54.86517705000001,55.38557845833334,63.0,90.0
194,54.86517705000001,55.408054266666674,58.0,95.0
195,54.86517705000001,55.84546807500001,51.0,90.0
196,55.695053050000006,55.930184583333336,67.0,88.0
197,55.695053050000006,55.97686510833334,63.0,112.0
198,55.695053050000006,56.03046126666667,58.0,95.0
199,56.109991050000005,56.203352100000004,51.0,86.0
200,56.524929050000004,57.03322810000001,53.0,97.0
201,56.524929050000004,57.04705936666667,56.0,96.0
202,56.524929050000004,57.09719770833334,60.0,89.0
203,56.939867050000004,57.463726275000006,48.0,53.0
204,57.35480505,57.73516488333334,56.0,117.0
205,57.35480505,57.88903772500001,60.0,90.0
206,56.524929050000004,57.89595335833334,41.0,64.0
207,57.76974305,58.131084891666674,55.0,93.0
208,57.562274050000006,58.15874742500001,48.0,37.0
209,58.18468105000001,58.85722639166667,56.0,107.0
210,58.18468105000001,58.86068420833334,60.0,89.0
211,58.59961905000001,59.06123757500001,48.0,55.0
212,58.18468105000001,59.32230273333334,41.0,72.0
213,59.222026050000004,59.32230273333334,48.0,38.0
214,59.01455705000001,59.40010360833334,56.0,117.0
215,59.01455705000001,59.42776614166667,60.0,97.0
216,59.42949505000001,59.52804282500001,55.0,92.0
217,59.844433050000006,60.34235865000001,60.0,127.0
218,59.844433050000006,60.39422590000001,63.0,112.0
219,59.844433050000006,60.413243891666674,56.0,112.0
220,59.844433050000006,60.9128984,51.0,97.0
221,60.674309050000005,61.07195796666667,60.0,127.0
222,60.674309050000005,61.11345176666667,63.0,107.0
223,60.674309050000005,61.13938539166667,56.0,112.0
224,61.089247050000004,61.68744933333334,51.0,39.0
225,61.504185050000004,61.89664724166667,60.0,122.0
226,61.504185050000004,61.91566523333334,63.0,107.0
227,61.504185050000004,61.924309775000005,56.0,97.0
228,59.844433050000006,62.28910943333334,44.0,81.0
229,61.91912305,62.297753975000006,51.0,65.0
230,60.674309050000005,62.396301750000006,48.0,25.0
231,62.33406105000001,62.557090225,60.0,107.0
232,62.33406105000001,62.60031293333334,63.0,107.0
233,62.33406105000001,62.648722366666675,56.0,102.0
234,62.74899905000001,63.15529250833334,43.0,81.0
235,63.16393705000001,63.60999540000001,60.0,90.0
236,63.16393705000001,63.65667592500001,56.0,107.0
237,63.16393705000001,63.66186265,53.0,95.0
238,63.57887505000001,64.23931803333333,48.0,37.0
239,63.99381305000001,64.57126843333334,60.0,92.0
240,63.99381305000001,64.57299734166668,53.0,92.0
241,63.99381305000001,64.60930441666667,56.0,107.0
242,64.40875105,65.025971325,48.0,44.0
243,64.82368905000001,65.28876539166667,60.0,89.0
244,64.82368905000001,65.29740993333334,53.0,85.0
245,64.82368905000001,65.30259665833334,56.0,112.0
246,65.23862705,65.72963701666667,48.0,47.0
247,65.65356505000001,65.75211282500001,56.0,117.0
248,65.65356505000001,65.75384173333335,53.0,93.0
249,65.65356505000001,65.77804645,60.0,96.0
250,63.16393705000001,65.85411841666668,41.0,72.0
251,66.06850305,66.15149065000001,48.0,90.0
252,66.48344105000001,66.83613835000001,65.0,97.0
253,66.48344105000001,66.91739704166667,68.0,102.0
254,66.48344105000001,66.96753538333334,61.0,102.0
255,66.48344105000001,67.48793679166667,49.0,112.0
256,67.31331705000001,67.52597277500001,65.0,117.0
257,67.31331705000001,67.55363530833334,68.0,100.0
258,67.31331705000001,67.59167129166667,61.0,95.0
259,67.72825505,68.00833820000001,49.0,77.0
260,68.14319305000001,68.56677559166667,67.0,86.0
261,68.14319305000001,68.58233576666667,63.0,117.0
262,68.14319305000001,68.58752249166668,58.0,107.0
263,68.14319305000001,69.14768879166667,51.0,112.0
264,68.97306905,69.29810381666667,67.0,89.0
265,68.97306905,69.31366399166667,63.0,117.0
266,68.97306905,69.38282032500001,58.0,102.0
267,69.38800705000001,69.64388548333334,51.0,92.0
268,69.80294505,70.17984706666667,60.0,95.0
269,69.80294505,70.20750960000001,63.0,99.0
270,69.80294505,70.22998540833333,56.0,95.0
271,69.80294505,70.7884228,44.0,90.0
272,70.63282105,70.98724725833334,56.0,112.0
273,70.63282105,70.99243398333334,60.0,112.0
274,70.63282105,71.02009651666667,63.0,112.0
275,71.04775905000001,71.369336,44.0,93.0
276,71.46269705,71.90183976666667,64.0,93.0
277,71.46269705,72.05571260833334,60.0,99.0
278,71.46269705,72.06954387500001,55.0,97.0
279,71.46269705,72.50349986666667,48.0,96.0
280,72.29257305,72.64872816666667,60.0,107.0
281,72.29257305,72.65218598333334,64.0,95.0
282,72.29257305,72.65737270833334,55.0,96.0
283,72.70751105000001,73.04119035833334,48.0,86.0
284,73.12244905000001,73.77770530833334,58.0,96.0
285,73.12244905000001,73.79845220833334,65.0,72.0
286,73.12244905000001,73.81401238333333,61.0,86.0
287,73.95232505000001,74.465810825,65.0,58.0
288,73.95232505000001,74.49174445000001,58.0,55.0
289,73.95232505000001,74.559171875,61.0,55.0
290,74.78220105000001,75.39250569166667,65.0,50.0
291,74.78220105000001,75.42708385833335,58.0,45.0
292,74.78220105000001,75.47376438333335,61.0,42.0
293,73.12244905000001,75.72272718333335,46.0,96.0
294,75.61207705000001,75.97860561666667,65.0,66.0
295,75.61207705000001,75.99935251666668,61.0,72.0
296,76.44195305000001,76.90184266666668,53.0,82.0
297,76.44195305000001,76.92777629166667,60.0,77.0
298,76.44195305000001,76.93642083333334,56.0,82.0
299,76.44195305000001,77.19402817500001,41.0,73.0
300,76.85689105,77.22860634166668,48.0,53.0
301,77.27182905000001,77.34617210833333,56.0,77.0
302,77.27182905000001,77.39458154166667,60.0,74.0
303,78.10170505,78.58752829166667,67.0,62.0
304,78.10170505,78.72411205,60.0,83.0
305,78.10170505,78.74313004166667,63.0,85.0
306,78.10170505,79.164983675,55.0,69.0
307,78.93158105,79.21512201666667,63.0,99.0
308,78.93158105,79.23586891666667,67.0,86.0
309,78.93158105,79.24624236666668,60.0,86.0
310,79.34651905000001,79.50212080000001,55.0,61.0
311,78.10170505,79.611042025,48.0,68.0
312,79.76145705,80.96477725000001,67.0,56.0
313,79.76145705,81.08925865,58.0,93.0
314,79.76145705,81.15495716666668,63.0,83.0
315,79.76145705,81.16014389166668,51.0,69.0
316,81.42120905,81.72895473333334,58.0,92.0
317,81.42120905,81.74970163333334,67.0,79.0
318,81.42120905,81.75315945000001,51.0,64.0
319,81.42120905,81.75315945000001,63.0,88.0
320,83.08096105000001,83.57197101666668,53.0,88.0
321,83.08096105000001,83.60482027500001,56.0,93.0
322,83.08096105000001,83.60654918333334,60.0,88.0
323,83.49589905,84.04837840833335,48.0,37.0
324,83.91122585000001,84.31053076666667,56.0,102.0
325,83.08096105000001,84.50671100833334,41.0,74.0
326,83.91122585000001,84.61087750833335,60.0,86.0
327,84.11955885000002,84.71504400833335,48.0,31.0
328,84.32789185000001,85.09177951666668,55.0,71.0
329,85.16122385000001,85.73066738333334,48.0,45.0
330,85.57788985000002,85.94420870833335,60.0,99.0
331,85.57788985000002,86.02233358333335,56.0,112.0
332,84.74455785,86.11261121666668,41.0,78.0
333,85.99455585000001,86.29316648333335,48.0,70.0
334,86.41122185000002,87.84003900833335,61.0,96.0
335,86.41122185000002,87.93378885833334,53.0,77.0
336,86.41122185000002,87.95114994166669,58.0,99.0
337,88.07788585000002,88.78621805000002,61.0,89.0
338,88.07788585000002,88.80184302500001,58.0,89.0
339,88.07788585000002,88.81573189166667,53.0,62.0
340,86.41122185000002,89.26364784166668,46.0,82.0
341,88.91121785000001,89.32788385,61.0,100.0
342,88.91121785000001,89.37823099166668,58.0,107.0
343,89.32788385,89.64559167500002,53.0,66.0
344,89.74454985000001,90.14906309166668,53.0,69.0
345,90.16121585000002,90.69072889166668,48.0,45.0
346,89.74454985000001,90.89906189166668,56.0,81.0
347,89.74454985000001,91.15947814166668,60.0,77.0
348,90.57788185000001,91.53274143333334,53.0,60.0
349,90.99454785000002,91.64211625833335,48.0,42.0
350,91.41121385000001,91.95461575833335,56.0,75.0
351,91.41121385000001,92.05704615000002,60.0,70.0
352,91.82787985000002,92.17510151666667,48.0,44.0
353,89.74454985000001,92.20461535833334,41.0,68.0
354,92.24454585000001,92.52058707500001,60.0,89.0
355,92.24454585000001,92.57614254166668,56.0,95.0
356,93.07787785000001,93.70114074166668,55.0,86.0
357,93.07787785000001,93.72023793333335,63.0,95.0
358,93.07787785000001,93.73065458333335,58.0,102.0
359,93.07787785000001,93.98586250833334,51.0,89.0
360,94.11954285000002,94.18551496666669,51.0,95.0
361,93.91120985,94.20808437500001,55.0,78.0
362,93.91120985,94.426834025,58.0,122.0
363,93.91120985,94.45634786666668,63.0,100.0
364,94.32787585000001,94.53447274166668,55.0,90.0
365,94.74454185000002,95.25669380833335,55.0,97.0
366,94.74454185000002,95.29836040833335,60.0,93.0
367,94.74454185000002,95.30704095000002,63.0,97.0
368,94.74454185000002,95.31919370833334,36.0,79.0
369,96.41120585000002,96.81051076666668,53.0,90.0
370,96.41120585000002,97.03620485000002,56.0,97.0
371,96.41120585000002,97.06398258333334,60.0,90.0
372,96.82787185000001,97.28794055833335,48.0,52.0
373,97.24453785000001,97.82092581666669,55.0,97.0
374,97.66120385,98.29141117500001,48.0,61.0
375,98.07786985000001,98.75147988333335,53.0,99.0
376,98.07786985000001,98.76016042500001,60.0,95.0
377,98.07786985000001,98.76884096666669,56.0,117.0
378,98.49453585,99.02578500000001,48.0,46.0
379,98.91120185000001,99.18724307500001,56.0,107.0
380,98.91120185000001,99.19939583333334,53.0,93.0
381,98.91120185000001,99.21154859166668,60.0,95.0
382,96.41120585000002,99.31918730833334,41.0,69.0
383,99.32786785000002,99.40772883333335,48.0,73.0
384,99.74453385000001,99.76363104166668,49.0,53.0
385,99.74453385000001,100.28967186666668,65.0,83.0
386,99.74453385000001,100.36432452500001,68.0,90.0
387,99.74453385000001,100.42335220833334,61.0,96.0
388,100.57786585000001,101.03967066666668,65.0,93.0
389,100.57786585000001,101.05008731666668,68.0,81.0
390,100.57786585000001,101.16467046666668,61.0,88.0
391,99.74453385000001,101.78793335833335,56.0,93.0
392,101.41119785000001,101.926822025,68.0,51.0
393,101.41119785000001,101.93550256666668,65.0,73.0
394,101.41119785000001,101.97022473333334,61.0,63.0
395,101.82786385000001,102.23237709166668,56.0,41.0
396,102.24452985000002,102.27404369166668,61.0,57.0
397,100.99453185000002,102.46327950000001,49.0,42.0
398,102.45286285000002,102.54314048333335,56.0,88.0
399,99.95286685000002,102.55529324166667,53.0,18.0
400,102.24452985000002,102.63862644166667,65.0,107.0
401,102.24452985000002,102.64904309166668,68.0,102.0
402,102.66119585000001,102.70980688333334,61.0,95.0
403,103.07786185,103.57091661666668,60.0,88.0
404,103.07786185,103.59174991666669,53.0,99.0
405,103.07786185,103.60911100000001,56.0,97.0
406,103.49452785000001,103.70980528333334,48.0,53.0
407,103.07786185,103.76015242500002,41.0,70.0
408,103.91119385000002,103.95980488333335,53.0,72.0
409,103.91119385000002,103.99626315833335,56.0,112.0
410,103.91119385000002,104.01536035000001,60.0,93.0
411,104.74452585000002,105.24799726666669,67.0,82.0
412,104.74452585000002,105.39035815000001,60.0,93.0
413,104.74452585000002,105.41292755833335,63.0,97.0
414,104.74452585000002,105.64730218333335,55.0,77.0
415,105.57785785000002,105.78792695833334,67.0,95.0
416,105.57785785000002,105.801815825,63.0,127.0
417,104.74452585000002,106.06744040000001,48.0,73.0
418,105.99452385000001,106.20112074166667,55.0,63.0
419,105.36952485,106.30528724166668,51.0,42.0
420,106.41118985000001,107.04660550000001,58.0,100.0
421,106.41118985000001,107.062230475,65.0,90.0
422,106.41118985000001,107.07438323333335,61.0,97.0
423,107.24452185000001,107.40424381666668,61.0,96.0
424,107.24452185000001,107.4216049,58.0,92.0
425,107.24452185000001,107.4216049,65.0,88.0
426,106.41118985000001,107.51709085833335,46.0,88.0
427,107.66118785,107.90771523333335,46.0,55.0
428,108.07785385000001,108.44938103333334,67.0,112.0
429,108.07785385000001,108.48757541666669,70.0,102.0
430,108.07785385000001,108.489311525,63.0,107.0
431,108.91066801250001,109.04706299375002,67.0,122.0
432,108.91066801250001,109.13166241250002,70.0,112.0
433,108.07785385000001,109.14374804375001,51.0,107.0
434,108.91066801250001,109.16273975000001,63.0,97.0
435,109.73939701250002,110.21764270625002,60.0,122.0
436,109.73939701250002,110.22627530000001,56.0,107.0
437,109.73939701250002,110.25044656250002,63.0,127.0
438,110.36094376250001,110.41101280625001,56.0,24.0
439,109.73939701250002,110.62510113125002,51.0,99.0
440,110.56812601250002,110.64236631875002,60.0,127.0
441,110.56812601250002,110.65963150625001,56.0,117.0
442,110.56812601250002,110.68207625000001,63.0,127.0
443,110.15376151250001,110.79775300625002,48.0,40.0
444,109.73939701250002,110.87544635000002,44.0,63.0
445,110.98249051250002,111.02565348125002,51.0,50.0
446,111.39685501250001,111.41239368125001,62.0,83.0
447,111.39685501250001,111.66101238125002,60.0,99.0
448,111.39685501250001,111.66791845625002,67.0,107.0
449,111.39685501250001,111.67309801250002,64.0,107.0
450,111.39685501250001,112.06847080625002,55.0,117.0
451,111.81121951250002,112.09436858750001,64.0,100.0
452,111.81121951250002,112.09782162500001,60.0,112.0
453,111.81121951250002,112.09782162500001,67.0,99.0
454,111.39685501250001,112.11853985000002,48.0,96.0
455,111.39685501250001,112.13062548125002,52.0,102.0
456,112.22558401250002,112.51218612500001,55.0,122.0
457,112.22558401250002,112.51909220000002,60.0,112.0
458,112.22558401250002,112.52254523750001,64.0,112.0
459,112.22558401250002,112.52254523750001,67.0,112.0
460,112.22558401250002,112.56743472500001,52.0,107.0
461,112.22558401250002,112.60023858125001,48.0,99.0
462,112.63994851250001,112.72972748750001,60.0,122.0
463,113.05431301250002,113.59643990000002,56.0,112.0
464,113.05431301250002,113.60334597500001,53.0,100.0
465,113.05431301250002,113.71384317500002,60.0,96.0
466,113.46867751250002,114.05051433125001,48.0,49.0
467,113.88304201250001,114.09885685625001,56.0,117.0
468,113.88304201250001,114.13684026875002,60.0,95.0
469,113.88304201250001,114.26632917500001,53.0,99.0
470,113.05431301250002,114.35783466875002,41.0,73.0
471,114.29740651250002,114.42689541875002,48.0,76.0
472,114.71177101250001,115.32468516875002,55.0,102.0
473,114.71177101250001,115.34712991250001,63.0,107.0
474,114.71177101250001,115.36784813750002,58.0,117.0
475,115.54050001250002,115.67171543750001,58.0,127.0
476,115.54050001250002,115.69070714375002,55.0,97.0
477,115.54050001250002,115.70106625625002,63.0,107.0
478,114.71177101250001,115.72351100000002,51.0,112.0
479,115.74768226250002,115.82710212500001,51.0,67.0
480,116.36922901250001,116.76978136250001,65.0,78.0
481,116.36922901250001,116.86301337500001,61.0,72.0
482,116.36922901250001,117.03048569375001,56.0,90.0
483,116.78359351250002,117.29464306250001,49.0,63.0
484,117.19795801250001,117.44485019375001,65.0,79.0
485,117.19795801250001,117.47938056875002,61.0,76.0
486,117.40514026250001,117.50873138750002,49.0,40.0
487,117.19795801250001,117.53808220625001,56.0,112.0
488,116.36922901250001,117.60023688125001,37.0,127.0
489,118.02668701250002,118.69830280625001,55.0,97.0
490,118.02668701250002,118.69830280625001,60.0,100.0
491,118.02668701250002,118.71038843750001,63.0,112.0
492,118.44105151250001,118.96763973125002,48.0,41.0
493,118.85541601250002,119.10576123125001,60.0,100.0
494,118.85541601250002,119.12129990000001,63.0,112.0
495,119.06259826250002,119.20762583750002,48.0,77.0
496,118.02668701250002,119.25424184375001,36.0,72.0
497,118.85541601250002,119.31812303750002,55.0,97.0
498,119.68414501250001,120.31950391250001,55.0,96.0
499,119.68414501250001,120.34022213750002,63.0,102.0
500,119.68414501250001,120.34540169375002,58.0,117.0
501,120.09850951250002,120.41100940625002,51.0,47.0
502,119.68414501250001,120.66998721875001,39.0,97.0
503,120.51287401250002,120.82364738750002,63.0,107.0
504,120.51287401250002,120.83573301875002,58.0,122.0
505,121.34160301250002,122.23076016875001,48.0,95.0
506,121.34160301250002,122.25493143125001,51.0,97.0
507,121.34160301250002,122.25665795000002,55.0,88.0
508,121.34160301250002,122.30672699375002,36.0,72.0
509,122.99906101250002,123.07675435625002,53.0,69.0
510,122.99906101250002,123.86922646250001,56.0,95.0
511,123.41342551250001,123.92620158125001,48.0,54.0
512,122.99906101250002,124.53738921875001,60.0,82.0
513,123.82779001250002,125.72868715625002,55.0,93.0
514,124.24215451250001,126.24491626250001,48.0,38.0
515,124.65651901250001,126.26563448750002,56.0,58.0
516,122.99906101250002,126.29843834375001,41.0,73.0
517,124.65651901250001,126.29843834375001,60.0,67.0
518,126.31397701250002,127.01321710625001,60.0,79.0
519,126.31397701250002,127.01839666250001,56.0,88.0
520,126.31397701250002,127.02184970000002,53.0,89.0
521,126.72834151250001,127.36370041250001,48.0,39.0
522,127.14270601250001,127.70037156875001,60.0,67.0
523,127.14270601250001,127.71073068125001,56.0,69.0
524,127.55707051250002,128.12164214375002,48.0,41.0
525,127.97143501250002,128.32191831875002,60.0,57.0
526,127.97143501250002,128.32882439375,56.0,53.0
527,127.97143501250002,128.35817521250002,53.0,42.0
528,128.3857995125,128.67240162500002,48.0,38.0
529,126.31397701250002,128.75009496875,41.0,68.0
530,128.8001640125,129.37336823750002,56.0,100.0
531,128.8001640125,129.39581298125,60.0,90.0
532,129.62889301250001,130.05361662500002,60.0,92.0
533,129.62889301250001,130.11059174375,63.0,95.0
534,129.62889301250001,130.1468486375,56.0,92.0
535,129.62889301250001,130.59229047500003,51.0,75.0
536,130.45762201250002,130.88925170000002,60.0,90.0
537,130.45762201250002,130.90306385000002,56.0,83.0
538,130.45762201250002,130.90479036875,63.0,88.0
539,131.2863510125,131.69553595625,60.0,86.0
540,131.2863510125,131.72488677500002,63.0,79.0
541,131.2863510125,131.766323225,56.0,70.0
542,130.87198651250003,132.20658550625,51.0,36.0
543,132.11508001250002,132.23938936250002,60.0,95.0
544,132.11508001250002,132.26010758750002,63.0,85.0
545,132.11508001250002,132.26356062500003,56.0,92.0
546,129.62889301250001,132.5777870375,44.0,55.0
547,130.87198651250003,132.6572069,48.0,1.0
548,132.52944451250002,132.69001075625002,51.0,45.0
549,132.94380901250003,133.4065160375,65.0,69.0
550,132.94380901250003,133.4686707125,61.0,62.0
551,132.94380901250003,133.48593590000002,58.0,81.0
552,132.94380901250003,133.90893299375003,46.0,68.0
553,133.7725380125,134.21280029375,65.0,75.0
554,133.7725380125,134.26977541250002,61.0,74.0
555,133.7725380125,134.29049363750002,58.0,83.0
556,134.60126701250002,135.05016188750002,65.0,77.0
557,134.60126701250002,135.19691598125002,58.0,78.0
558,134.60126701250002,135.24871154375,61.0,82.0
559,134.1869025125,135.34021703750003,46.0,38.0
560,135.42999601250003,135.67688819375002,65.0,72.0
561,135.42999601250003,135.71487160625003,61.0,74.0
562,135.42999601250003,135.7787528,58.0,78.0
563,135.84436051250003,136.22937419375,46.0,50.0
564,136.2587250125,136.717979,60.0,83.0
565,136.2587250125,136.77150108125002,53.0,88.0
566,136.2587250125,136.88717783750002,56.0,89.0
567,136.2587250125,137.05637667500002,41.0,56.0
568,136.6730895125,137.12543742500003,48.0,38.0
569,137.08745401250002,137.19104513750003,53.0,66.0
570,137.08745401250002,137.19622469375003,56.0,97.0
571,137.08745401250002,137.23248158750002,60.0,90.0
572,137.91618301250003,138.534276725,60.0,89.0
573,137.91618301250003,138.54981539375,67.0,74.0
574,137.91618301250003,138.60851703125002,63.0,96.0
575,137.91618301250003,138.82778491250002,55.0,90.0
576,138.7449120125,139.12819917500002,63.0,117.0
577,138.7449120125,139.12992569375,67.0,95.0
578,137.91618301250003,139.1454643625,48.0,75.0
579,139.1592765125,139.22833726250002,60.0,96.0
580,139.57364101250002,140.05706626250003,60.0,93.0
581,139.57364101250002,140.08641708125,53.0,102.0
582,139.57364101250002,140.20382035625002,56.0,97.0
583,140.4023700125,140.93931734375002,56.0,99.0
584,140.4023700125,141.00492505625002,60.0,81.0
585,141.2310990125,141.90616784375,60.0,74.0
586,141.2310990125,141.90789436250003,53.0,74.0
587,141.2310990125,141.91652695625,56.0,78.0
588,140.8167345125,142.04774238125003,48.0,36.0
589,139.57364101250002,142.3015406375,41.0,72.0
590,142.2670102625,142.3636953125,48.0,89.0
591,142.05982801250002,142.43448258125002,56.0,112.0
592,142.05982801250002,142.45865384375003,60.0,96.0
593,142.47419251250003,142.5432532625,55.0,83.0
594,142.88855701250003,143.34090492500002,60.0,85.0
595,142.88855701250003,143.46521427500002,56.0,95.0
596,142.88855701250003,143.57398495625,63.0,77.0
597,142.88855701250003,143.95899863750003,51.0,83.0
598,143.7172860125,144.1523687375,56.0,89.0
599,143.7172860125,144.16100133125002,60.0,99.0
600,143.7172860125,144.17999303750003,63.0,90.0
601,144.13165051250002,144.86714750000002,51.0,34.0
602,144.54601501250002,144.95174691875002,60.0,96.0
603,144.54601501250002,144.9741916625,56.0,89.0
604,144.54601501250002,145.02080766875002,63.0,89.0
605,144.96037951250003,145.52149810625002,51.0,41.0
606,145.3747440125,145.63890138125,60.0,107.0
607,145.3747440125,145.65961960625003,56.0,96.0
608,145.3747440125,145.675158275,63.0,99.0
609,142.88855701250003,145.83054496250003,44.0,60.0
610,145.7891085125,145.94104216250003,51.0,50.0
611,146.2034730125,146.69553085625,65.0,72.0
612,146.2034730125,146.77322420000002,58.0,95.0
613,146.2034730125,146.95796170625002,61.0,88.0
614,146.2034730125,147.07191194375002,46.0,89.0
615,147.03220201250002,147.28600026875,65.0,85.0
616,147.03220201250002,147.3153510875,61.0,99.0
617,147.03220201250002,147.346428425,58.0,100.0
618,147.4465665125,147.76942551875,46.0,37.0
619,147.86093101250003,148.29083418125003,67.0,85.0
620,147.86093101250003,148.38061315625,63.0,90.0
621,147.86093101250003,148.40305790000002,58.0,95.0
622,147.86093101250003,148.83986714375,51.0,90.0
623,148.6896600125,148.92446656250002,67.0,88.0
624,148.6896600125,148.97108256875,63.0,112.0
625,148.6896600125,149.02460465000001,58.0,95.0
626,149.10402451250002,149.197256525,51.0,86.0
627,149.51838901250002,150.025985525,53.0,97.0
628,149.51838901250002,150.03979767500002,56.0,96.0
629,149.51838901250002,150.08986671875002,60.0,89.0
630,149.93275351250003,150.45701067500002,48.0,53.0
631,150.34763585000002,150.72957968333336,56.0,117.0
632,150.34763585000002,150.884093325,60.0,90.0
633,149.51838901250002,150.89103775833337,41.0,64.0
634,150.76430185,151.1271484916667,55.0,93.0
635,150.55596885000003,151.15492622500003,48.0,37.0
636,151.18096785000003,151.8563139916667,56.0,107.0
637,151.18096785000003,151.85978620833336,60.0,89.0
638,151.59763385000002,152.061174775,48.0,55.0
639,151.18096785000003,152.32332713333335,41.0,72.0
640,152.22263285000002,152.32332713333335,48.0,38.0
641,152.01429985000001,152.40145200833337,56.0,117.0
642,152.01429985000001,152.4292297416667,60.0,97.0
643,152.43096585000004,152.529924025,55.0,92.0
644,152.84763185000003,153.34763105000002,60.0,127.0
645,152.84763185000003,153.39971430000003,63.0,112.0
646,152.84763185000003,153.4188114916667,56.0,112.0
647,152.84763185000003,153.9205468,51.0,97.0
648,153.68096385,154.08026876666668,60.0,127.0
649,153.68096385,154.1219353666667,63.0,107.0
650,153.68096385,154.1479769916667,56.0,112.0
651,154.09762985000003,154.69832333333335,51.0,39.0
652,154.51429585000002,154.90839244166668,60.0,122.0
653,154.51429585000002,154.92748963333335,63.0,107.0
654,154.51429585000002,154.93617017500003,56.0,97.0
655,152.84763185000003,155.30248903333336,44.0,81.0
656,154.93096185000002,155.311169575,51.0,65.0
657,153.68096385,155.41012775000002,48.0,25.0
658,155.34762785,155.57158582500003,60.0,107.0
659,155.34762785,155.61498853333336,63.0,107.0
660,155.34762785,155.66359956666668,56.0,102.0
661,155.76429385000003,156.17227930833334,43.0,81.0
662,156.18095985000002,156.62887580000003,60.0,90.0
663,156.18095985000002,156.67575072500003,56.0,107.0
664,156.18095985000002,156.68095905,53.0,95.0
665,156.59762585000001,157.26081923333336,48.0,37.0
666,157.01429185000003,157.59415203333336,60.0,92.0
667,157.01429185000003,157.59588814166668,53.0,92.0
668,157.01429185000003,157.63234641666668,56.0,107.0
669,157.43095785000003,158.05074852500002,48.0,44.0
670,157.84762385000002,158.3146369916667,60.0,89.0
671,157.84762385000002,158.32331753333335,53.0,85.0
672,157.84762385000002,158.32852585833336,56.0,112.0
673,158.26428985,158.7573446166667,48.0,47.0
674,158.68095585000003,158.779914025,56.0,117.0
675,158.68095585000003,158.78165013333336,53.0,93.0
676,158.68095585000003,158.80595565000002,60.0,96.0
677,156.18095985000002,158.88234441666668,41.0,72.0
678,159.09762185000002,159.18095505000002,48.0,90.0
679,159.51428785000002,159.86845395000003,65.0,97.0
680,159.51428785000002,159.95005104166668,68.0,102.0
681,159.51428785000002,160.00039818333335,61.0,102.0
682,159.51428785000002,160.52296679166668,49.0,112.0
683,160.34761985000003,160.56116117500002,65.0,117.0
684,160.34761985000003,160.58893890833335,68.0,100.0
685,160.34761985000003,160.6271332916667,61.0,95.0
686,160.76428585000002,161.04553540000003,49.0,77.0
687,161.18095185,161.60629839166668,67.0,86.0
688,161.18095185,161.6219233666667,63.0,117.0
689,161.18095185,161.62713169166668,58.0,107.0
690,161.18095185,162.1896307916667,51.0,112.0
691,162.01428385000003,162.3406722166667,67.0,89.0
692,162.01428385000003,162.3562971916667,63.0,117.0
693,162.01428385000003,162.42574152500003,58.0,102.0
694,162.43094985000002,162.68789388333335,51.0,92.0
695,162.84761585,163.22608746666668,60.0,95.0
696,162.84761585,163.2538652,63.0,99.0
697,162.84761585,163.27643460833335,56.0,95.0
698,162.84761585,163.83719760000002,44.0,90.0
699,163.68094785000002,164.03685005833336,56.0,112.0
700,163.68094785000002,164.04205838333337,60.0,112.0
701,163.68094785000002,164.0698361166667,63.0,112.0
702,164.09761385000002,164.42053,44.0,93.0
703,164.51427985000004,164.9552513666667,64.0,93.0
704,164.51427985000004,165.10976500833334,60.0,99.0
705,164.51427985000004,165.12365387500003,55.0,97.0
706,164.51427985000004,165.5594170666667,48.0,96.0
707,165.34761185000002,165.7052501666667,60.0,107.0
708,165.34761185000002,165.70872238333337,64.0,95.0
709,165.34761185000002,165.71393070833335,55.0,96.0
710,165.76427785,166.09934675833335,48.0,86.0
711,166.18094385000003,166.83892890833334,58.0,96.0
712,166.18094385000003,166.85976220833336,65.0,72.0
713,166.18094385000003,166.87538718333334,61.0,86.0
714,167.01427585000002,167.52990002500002,65.0,58.0
715,167.01427585000002,167.55594165000002,58.0,55.0
716,167.01427585000002,167.623649875,61.0,55.0
717,167.84760785000003,168.4604540916667,65.0,50.0
718,167.84760785000003,168.49517625833334,58.0,45.0
719,167.84760785000003,168.54205118333334,61.0,42.0
720,166.18094385000003,168.79205078333337,46.0,96.0
721,168.68093985000002,169.0489948166667,65.0,66.0
722,168.68093985000002,169.06982811666668,61.0,72.0
723,169.51427185000003,169.9760766666667,53.0,82.0
724,169.51427185000003,170.0021182916667,60.0,77.0
725,169.51427185000003,170.01079883333335,56.0,82.0
726,169.51427185000003,170.26947897500003,41.0,73.0
727,169.93093785000002,170.30420114166668,48.0,53.0
728,170.34760385,170.42225650833336,56.0,77.0
729,170.34760385,170.47086754166668,60.0,74.0
730,171.18093585000003,171.66878229166667,67.0,62.0
731,171.18093585000003,171.80593485000003,60.0,83.0
732,171.18093585000003,171.8250320416667,63.0,85.0
733,171.18093585000003,172.24864247500003,55.0,69.0
734,172.01426785,172.2989896166667,63.0,99.0
735,172.01426785,172.31982291666668,67.0,86.0
736,172.01426785,172.33023956666668,60.0,86.0
737,172.43093385000003,172.58718360000003,55.0,61.0
738,171.18093585000003,172.69655842500003,48.0,68.0
739,172.84759985000002,174.05593125000001,67.0,56.0
740,172.84759985000002,174.18093105000003,58.0,93.0
741,172.84759985000002,174.2469031666667,63.0,83.0
742,172.84759985000002,174.25211149166668,51.0,69.0
743,174.51387505000002,174.82162073333336,58.0,92.0
744,174.51387505000002,174.84236763333337,67.0,79.0
745,174.51387505000002,174.84582545000004,51.0,64.0
746,174.51387505000002,174.84582545000004,63.0,88.0
747,176.17362705000002,176.6646370166667,53.0,88.0
748,176.17362705000002,176.69748627500002,56.0,93.0
749,176.17362705000002,176.69921518333337,60.0,88.0
750,176.58856505000003,177.14008680833336,48.0,37.0
751,177.00350305000003,177.4011519666667,56.0,102.0
752,176.17362705000002,177.59651860833335,41.0,74.0
753,177.00350305000003,177.70025310833336,60.0,86.0
754,177.21097205000004,177.80398760833336,48.0,31.0
755,177.41844105,178.1791607166667,55.0,71.0
756,178.24831705000003,178.81539898333335,48.0,45.0
757,178.66325505000003,179.02805470833337,60.0,99.0
758,178.66325505000003,179.10585558333335,56.0,112.0
759,177.83337905000002,179.19575881666668,41.0,78.0
760,179.07819305000004,179.37556528333337,48.0,70.0
761,179.49313105000002,180.91602260833335,61.0,96.0
762,179.49313105000002,181.00938365833335,53.0,77.0
763,179.49313105000002,181.0266727416667,58.0,99.0
764,181.15288305,181.85827765000002,61.0,89.0
765,181.15288305,181.87383782500004,58.0,89.0
766,181.15288305,181.88766909166668,53.0,62.0
767,179.49313105000002,182.3337274416667,46.0,82.0
768,181.98275905000003,182.39769705000003,61.0,100.0
769,181.98275905000003,182.4478353916667,58.0,107.0
770,182.39769705000003,182.71408727500003,53.0,66.0
771,182.81263505000004,183.2154706916667,53.0,69.0
772,183.22757305000002,183.75489009166668,48.0,45.0
773,182.81263505000004,183.96235909166668,56.0,81.0
774,182.81263505000004,184.2216953416667,60.0,77.0
775,183.64251105000002,184.59341063333335,53.0,60.0
776,184.05744905000003,184.70233185833337,48.0,42.0
777,184.47238705000004,185.01353535833337,56.0,75.0
778,184.47238705000004,185.11554095000002,60.0,70.0
779,184.88732505000002,185.2331067166667,48.0,44.0
780,182.81263505000004,185.26249815833336,41.0,68.0
781,185.30226305000002,185.57715947500003,60.0,89.0
782,185.30226305000002,185.63248454166668,56.0,95.0
783,186.13213905000003,186.7528171416667,55.0,86.0
784,186.13213905000003,186.77183513333335,63.0,95.0
785,186.13213905000003,186.78220858333336,58.0,102.0
786,186.13213905000003,187.03635810833336,51.0,89.0
787,187.16948405000002,187.2351825666667,51.0,95.0
788,186.96201505000002,187.25765837500003,55.0,78.0
789,186.96201505000002,187.47550082500004,58.0,122.0
790,186.96201505000002,187.5048922666667,63.0,100.0
791,187.37695305000003,187.58269314166668,55.0,90.0
792,187.79189105000003,188.30191900833336,55.0,97.0
793,187.79189105000003,188.34341280833337,60.0,93.0
794,187.79189105000003,188.35205735000002,63.0,97.0
795,187.79189105000003,188.36415970833337,36.0,79.0
796,189.45164305000003,189.52598610833337,65.0,96.0
797,189.45164305000003,189.52598610833337,68.0,97.0
798,189.45164305000003,189.53635955833337,60.0,89.0
799,189.45164305000003,189.53981737500004,53.0,99.0
800,189.65911205000003,189.7299972916667,65.0,85.0
801,189.65911205000003,189.736912925,68.0,89.0
802,189.65911205000003,189.7403707416667,60.0,77.0
803,189.65911205000003,189.74728637500002,53.0,81.0
804,189.86658105000004,189.93919520000003,65.0,82.0
805,189.86658105000004,189.9426530166667,68.0,82.0
806,189.86658105000004,189.94956865000003,60.0,76.0
807,189.86658105000004,189.9530264666667,53.0,79.0
808,190.07405005000004,190.13629075000003,68.0,92.0
809,190.07405005000004,190.16741110000004,60.0,96.0
810,190.07405005000004,190.17259782500003,65.0,99.0
811,190.07405005000004,190.18470018333335,53.0,102.0
812,190.48898805000002,190.61519835833337,51.0,122.0
813,190.48898805000002,190.63421635000003,67.0,89.0
814,190.48898805000002,190.66706560833336,63.0,112.0
815,190.90392605000002,190.99901600833337,64.0,93.0
816,190.90392605000002,191.02667854166668,52.0,99.0
817,191.11139505000003,191.29984605833337,53.0,122.0
818,191.11139505000003,191.29984605833337,68.0,122.0
819,191.11139505000003,191.30676169166668,60.0,96.0
820,191.11139505000003,191.31713514166668,65.0,107.0
821,191.94127105,192.34583560000002,56.0,127.0
822,191.94127105,192.3700403166667,44.0,90.0
823,192.35620905000002,192.75040015000002,58.0,122.0
824,192.35620905000002,192.76768923333336,46.0,99.0
825,192.77114705000002,193.26907265000003,60.0,127.0
826,192.77114705000002,193.32093990000004,63.0,112.0
827,192.77114705000002,193.3399578916667,56.0,112.0
828,192.77114705000002,193.83961240000002,51.0,97.0
829,193.60102305000004,193.9986719666667,60.0,127.0
830,193.60102305000004,194.0401657666667,63.0,107.0
831,193.60102305000004,194.06609939166668,56.0,112.0
832,194.01596105000002,194.61416333333335,51.0,39.0
833,194.43089905000002,194.8233612416667,60.0,122.0
834,194.43089905000002,194.84237923333336,63.0,107.0
835,194.43089905000002,194.85102377500002,56.0,97.0
836,192.77114705000002,195.21582343333336,44.0,81.0
837,194.84583705000003,195.22446797500004,51.0,65.0
838,193.60102305000004,195.32301575000002,48.0,25.0
839,195.26077505000003,195.48380422500003,60.0,107.0
840,195.26077505000003,195.52702693333336,63.0,107.0
841,195.26077505000003,195.57543636666668,56.0,102.0
842,195.67571305,196.08200650833336,43.0,81.0
843,196.09065105000002,196.53670940000003,60.0,90.0
844,196.09065105000002,196.58338992500003,56.0,107.0
845,196.09065105000002,196.58857665000002,53.0,95.0
846,196.50558905000003,197.16603203333335,48.0,37.0
847,196.92052705000003,197.49798243333336,60.0,92.0
848,196.92052705000003,197.49971134166668,53.0,92.0
849,196.92052705000003,197.5360184166667,56.0,107.0
850,197.33546505000004,197.95268532500003,48.0,44.0
851,197.75040305000002,198.2154793916667,60.0,89.0
852,197.75040305000002,198.22412393333337,53.0,85.0
853,197.75040305000002,198.22931065833336,56.0,112.0
854,198.16534105000002,198.6563510166667,48.0,47.0
855,198.58027905000003,198.67882682500002,56.0,117.0
856,198.58027905000003,198.68055573333336,53.0,93.0
857,198.58027905000003,198.70476045000004,60.0,96.0
858,196.09065105000002,198.7808324166667,41.0,72.0
859,198.99521705000004,199.07820465000003,48.0,90.0
860,199.41015505000001,199.76285235000003,65.0,97.0
861,199.41015505000001,199.8441110416667,68.0,102.0
862,199.41015505000001,199.89424938333337,61.0,102.0
863,199.41015505000001,200.4146507916667,49.0,112.0
864,200.24003105000003,200.45268677500002,65.0,117.0
865,200.24003105000003,200.48034930833336,68.0,100.0
866,200.24003105000003,200.5183852916667,61.0,95.0
867,200.65496905000003,200.93505220000003,49.0,77.0
868,201.06990705000004,201.4934895916667,67.0,86.0
869,201.06990705000004,201.5090497666667,63.0,117.0
870,201.06990705000004,201.51423649166668,58.0,107.0
871,201.06990705000004,202.0744027916667,51.0,112.0
872,201.89978305000002,202.2248178166667,67.0,89.0
873,201.89978305000002,202.2403779916667,63.0,117.0
874,201.89978305000002,202.30953432500002,58.0,102.0
875,202.31472105000003,202.57059948333335,51.0,92.0
876,202.72965905000004,203.1065610666667,60.0,95.0
877,202.72965905000004,203.13422360000004,63.0,99.0
878,202.72965905000004,203.15669940833337,56.0,95.0
879,202.72965905000004,203.71513680000004,44.0,90.0
880,203.55953505000002,203.91396125833336,56.0,112.0
881,203.55953505000002,203.91914798333335,60.0,112.0
882,203.55953505000002,203.9468105166667,63.0,112.0
883,203.97447305000003,204.29605000000004,44.0,93.0
884,204.38941105000004,204.8285537666667,64.0,93.0
885,204.38941105000004,204.98242660833336,60.0,99.0
886,204.38941105000004,204.99625787500003,55.0,97.0
887,204.38941105000004,205.4302138666667,48.0,96.0
888,205.21928705000002,205.5754421666667,60.0,107.0
889,205.21928705000002,205.57889998333337,64.0,95.0
890,205.21928705000002,205.58408670833336,55.0,96.0
891,205.63422505000003,205.96790435833336,48.0,86.0
892,206.04916305000003,206.70441930833337,58.0,96.0
893,206.04916305000003,206.72516620833335,65.0,72.0
894,206.04916305000003,206.74072638333337,61.0,86.0
895,206.87903905000002,207.39252482500004,65.0,58.0
896,206.87903905000002,207.41845845000003,58.0,55.0
897,206.87903905000002,207.48588587500004,61.0,55.0
898,207.70891505000003,208.3192196916667,65.0,50.0
899,207.70891505000003,208.35379785833337,58.0,45.0
900,207.70891505000003,208.40047838333336,61.0,42.0
901,206.04916305000003,208.64944118333335,46.0,96.0
902,208.53879105000004,208.9053196166667,65.0,66.0
903,208.53879105000004,208.9260665166667,61.0,72.0
904,209.36866705000003,209.8285566666667,53.0,82.0
905,209.36866705000003,209.8544902916667,60.0,77.0
906,209.36866705000003,209.86313483333336,56.0,82.0
907,209.36866705000003,210.12074217500003,41.0,73.0
908,209.78360505000003,210.1553203416667,48.0,53.0
909,210.19854305,210.27288610833335,56.0,77.0
910,210.19854305,210.3212955416667,60.0,74.0
911,211.02841905000002,211.5142422916667,67.0,62.0
912,211.02841905000002,211.65082605000003,60.0,83.0
913,211.02841905000002,211.6698440416667,63.0,85.0
914,211.02841905000002,212.09169767500003,55.0,69.0
915,211.85829505000004,212.1418360166667,63.0,99.0
916,211.85829505000004,212.16258291666668,67.0,86.0
917,211.85829505000004,212.1729563666667,60.0,86.0
918,212.27323305000004,212.42883480000003,55.0,61.0
919,211.02841905000002,212.53775602500002,48.0,68.0
920,212.68817105000002,213.89149125000003,67.0,56.0
921,212.68817105000002,214.01597265000004,58.0,93.0
922,212.68817105000002,214.0816711666667,63.0,83.0
923,212.68817105000002,214.08685789166668,51.0,69.0
924,214.34792305000002,214.65566873333336,58.0,92.0
925,214.34792305000002,214.67641563333336,67.0,79.0
926,214.34792305000002,214.67987345000003,51.0,64.0
927,214.34792305000002,214.67987345000003,63.0,88.0
928,216.00767505000005,216.49868501666668,53.0,88.0
929,216.00767505000005,216.531534275,56.0,93.0
930,216.00767505000005,216.53326318333336,60.0,88.0
931,216.42261305000002,216.97413480833336,48.0,37.0
932,216.83755105000003,217.2351999666667,56.0,102.0
933,216.00767505000005,217.43056660833338,41.0,74.0
934,216.83755105000003,217.53430110833335,60.0,86.0
935,217.04502005000003,217.63803560833335,48.0,31.0
936,217.25248905000004,218.0132087166667,55.0,71.0
937,218.08236505000002,218.64944698333335,48.0,45.0
938,218.49730305000003,218.86210270833337,60.0,99.0
939,218.49730305000003,218.93990358333338,56.0,112.0
940,217.66742705000001,219.0298068166667,41.0,78.0
941,218.91224105000003,219.20961328333337,48.0,70.0
942,219.32717905000004,220.75007060833337,61.0,96.0
943,219.32717905000004,220.84343165833337,53.0,77.0
944,219.32717905000004,220.86072074166668,58.0,99.0
945,220.98693105000004,221.69232565000004,61.0,89.0
946,220.98693105000004,221.70788582500003,58.0,89.0
947,220.98693105000004,221.7217170916667,53.0,62.0
948,219.32717905000004,222.1677754416667,46.0,82.0
949,221.81680705000002,222.23174505000003,61.0,100.0
950,221.81680705000002,222.2818833916667,58.0,107.0
951,222.23174505000003,222.54813527500002,53.0,66.0
952,222.64668305000004,223.0495186916667,53.0,69.0
953,223.06162105000004,223.5889380916667,48.0,45.0
954,222.64668305000004,223.7964070916667,56.0,81.0
955,222.64668305000004,224.0557433416667,60.0,77.0
956,223.47655905000002,224.42745863333337,53.0,60.0
957,223.89149705000003,224.53637985833336,48.0,42.0
958,224.30643505000003,224.84758335833337,56.0,75.0
959,224.30643505000003,224.94958895000002,60.0,70.0
960,224.72137305000004,225.0671547166667,48.0,44.0
961,222.64668305000004,225.09654615833335,41.0,68.0
962,225.13631105000002,225.41120747500003,60.0,89.0
963,225.13631105000002,225.4665325416667,56.0,95.0
964,225.96618705000003,226.5868651416667,55.0,86.0
965,225.96618705000003,226.60588313333335,63.0,95.0
966,225.96618705000003,226.61625658333338,58.0,102.0
967,225.96618705000003,226.87040610833336,51.0,89.0
968,227.00353205000005,227.0692305666667,51.0,95.0
969,226.79606305000004,227.09170637500003,55.0,78.0
970,226.79606305000004,227.30954882500004,58.0,122.0
971,226.79606305000004,227.3389402666667,63.0,100.0
972,227.21100105000002,227.4167411416667,55.0,90.0
973,227.62593905000003,228.13596700833335,55.0,97.0
974,227.62593905000003,228.17746080833336,60.0,93.0
975,227.62593905000003,228.18610535000005,63.0,97.0
976,227.62593905000003,228.19820770833337,36.0,79.0
977,229.28569105000003,229.94959185000005,68.0,89.0
978,229.28569105000003,229.9634231166667,65.0,90.0
979,229.28569105000003,229.9945434666667,60.0,88.0
980,230.11556705000004,230.22967500000004,60.0,30.0
981,230.11556705000004,230.80194365833336,68.0,92.0
982,230.11556705000004,230.81750383333338,65.0,78.0
983,230.94544305000002,231.67850018333337,65.0,81.0
984,230.94544305000002,231.68195800000004,68.0,95.0
985,230.53050505000004,231.73036743333336,60.0,46.0
986,231.77531905000004,231.85484883333336,60.0,30.0
987,229.28569105000003,231.8773246416667,53.0,75.0
988,231.77531905000004,232.40291277500003,65.0,75.0
989,231.77531905000004,232.4115573166667,68.0,79.0
990,232.60519505000002,233.13078318333336,68.0,88.0
991,232.60519505000002,233.15671680833336,65.0,78.0
992,232.60519505000002,233.19129497500003,60.0,75.0
993,233.02013305000003,234.1179898416667,48.0,40.0
994,233.43507105000003,234.99800418333336,65.0,83.0
995,233.43507105000003,235.00664872500005,68.0,85.0
996,233.85000905000004,235.03431125833336,60.0,66.0
997,232.60519505000002,235.60139319166672,41.0,72.0
998,235.09482305000003,235.65153153333335,65.0,88.0
999,235.09482305000003,235.6532604416667,68.0,78.0
1000,235.50976105000004,235.8192356416667,63.0,49.0
1001,234.26494705000005,235.92469905000002,48.0,40.0
1002,235.71723005000004,235.92469905000002,60.0,48.0
1003,235.93680140833337,236.85485173333336,65.0,69.0
1004,235.93680140833337,236.8825142666667,37.0,83.0
1005,236.75976177500002,236.8877009916667,49.0,43.0
1006,235.9333435916667,236.9188213416667,68.0,74.0
1007,235.92469905000002,236.9343815166667,61.0,85.0
1008,238.12041263333336,239.17677562500003,67.0,68.0
1009,238.1169548166667,239.1854201666667,63.0,65.0
1010,238.12041263333336,239.19406470833337,60.0,69.0
1011,239.73694192500005,240.09309704166668,51.0,51.0
1012,238.11868372500004,240.16744010000002,36.0,70.0
1013,238.69441020000005,240.2227651666667,43.0,36.0
1014,239.16121545000004,240.44406543333338,48.0,65.0
1015,241.26702580000003,241.34482667500004,56.0,58.0
1016,241.26875470833335,241.55229567500004,60.0,70.0
1017,242.30091298333338,242.50838198333338,56.0,67.0
1018,242.49800853333335,242.55333360000003,60.0,71.0
1019,242.7123931666667,243.0962108166667,65.0,66.0
1020,242.9302356166667,243.15153588333337,68.0,50.0
1021,243.14116243333336,243.20686095000002,72.0,76.0
1022,243.40049868333335,243.89150865000005,77.0,61.0
1023,243.63735912500005,243.90706882500004,80.0,60.0
1024,243.87594847500003,243.94856262500002,84.0,66.0
1025,242.06059472500004,246.4157148166667,53.0,62.0
1026,241.7217286916667,246.43819062500003,48.0,67.0
1027,244.50527110833337,246.44856407500004,92.0,64.0
1028,245.36799636666672,246.4623953416667,101.0,58.0
1029,244.89427548333336,246.47968442500002,96.0,63.0
1030,245.0256725166667,246.49524460000004,89.0,19.0
1031,241.2601101666667,246.51772040833336,41.0,83.0
