,start,end,pitch,velocity
0,11.2880859375,11.5859375,77.0,92.0
1,11.5224609375,11.822265625,70.0,81.0
2,11.7568359375,12.0556640625,66.0,95.0
3,11.9912109375,12.3330078125,77.0,93.0
4,12.2255859375,12.5380859375,70.0,84.0
5,12.4599609375,12.80859375,66.0,90.0
6,12.6943359375,12.9912109375,77.0,92.0
7,12.9287109375,13.095703125,70.0,89.0
8,13.1630859375,13.4453125,75.0,93.0
9,13.3974609375,13.67578125,72.0,81.0
10,13.6318359375,13.9287109375,66.0,89.0
11,13.8662109375,14.1328125,75.0,90.0
12,14.1005859375,14.4375,72.0,88.0
13,14.3349609375,14.6318359375,66.0,89.0
14,14.5693359375,14.8525390625,75.0,93.0
15,14.8037109375,15.0234375,72.0,84.0
16,15.0380859375,15.3349609375,75.0,92.0
17,15.2724609375,15.5751953125,68.0,76.0
18,15.5068359375,15.8271484375,65.0,92.0
19,15.7412109375,16.0517578125,75.0,95.0
20,15.9755859375,16.2890625,68.0,80.0
21,16.2099609375,16.52734375,65.0,88.0
22,16.4443359375,16.7548828125,75.0,89.0
23,16.6787109375,16.8984375,68.0,83.0
24,16.9130859375,17.205078125,73.0,89.0
25,17.1474609375,17.482421875,68.0,81.0
26,17.3818359375,17.6669921875,65.0,90.0
27,17.6162109375,17.912109375,73.0,86.0
28,17.8505859375,18.1376953125,68.0,83.0
29,18.0849609375,18.3623046875,65.0,90.0
30,18.3193359375,18.60546875,73.0,89.0
31,18.5537109375,18.7421875,68.0,85.0
32,18.7880859375,19.0859375,77.0,92.0
33,19.0224609375,19.322265625,70.0,81.0
34,19.2568359375,19.5556640625,66.0,95.0
35,19.4912109375,19.8330078125,77.0,93.0
36,19.7255859375,20.0380859375,70.0,84.0
37,19.9599609375,20.30859375,66.0,90.0
38,20.1943359375,20.4912109375,77.0,92.0
39,20.4287109375,20.595703125,70.0,89.0
40,20.6630859375,20.9453125,75.0,93.0
41,20.8974609375,21.17578125,72.0,81.0
42,21.1318359375,21.4287109375,66.0,89.0
43,21.3662109375,21.6328125,75.0,90.0
44,21.6005859375,21.9375,72.0,88.0
45,21.8349609375,22.1318359375,66.0,89.0
46,22.0693359375,22.3525390625,75.0,93.0
47,22.3037109375,22.5234375,72.0,84.0
48,22.5380859375,22.8349609375,75.0,92.0
49,22.7724609375,23.0751953125,68.0,76.0
50,23.0068359375,23.3271484375,65.0,92.0
51,23.2412109375,23.5517578125,75.0,95.0
52,23.4755859375,23.7890625,68.0,80.0
53,23.7099609375,24.02734375,65.0,88.0
54,23.9443359375,24.2548828125,75.0,89.0
55,24.1787109375,24.3984375,68.0,83.0
56,24.4130859375,24.705078125,73.0,89.0
57,24.6474609375,24.982421875,68.0,81.0
58,24.8818359375,25.1669921875,65.0,90.0
59,25.1162109375,25.412109375,73.0,86.0
60,25.3505859375,25.6376953125,68.0,83.0
61,25.5849609375,25.8623046875,65.0,90.0
62,25.8193359375,26.10546875,73.0,89.0
63,26.0537109375,26.2421875,68.0,85.0
64,41.2880859375,41.5595703125,75.0,89.0
65,41.7568359375,42.0107421875,75.0,84.0
66,41.9912109375,42.2412109375,70.0,75.0
67,42.2255859375,42.689453125,75.0,84.0
68,42.4599609375,42.751953125,70.0,82.0
69,43.1630859375,43.388671875,75.0,89.0
70,43.6318359375,43.966796875,75.0,83.0
71,43.8662109375,44.1435546875,68.0,67.0
72,44.1005859375,44.3740234375,75.0,81.0
73,44.3349609375,44.65234375,68.0,74.0
74,45.0380859375,45.310546875,73.0,75.0
75,45.5068359375,45.80078125,73.0,79.0
76,45.7412109375,45.998046875,68.0,76.0
77,45.9755859375,46.310546875,73.0,78.0
78,46.2099609375,46.412109375,68.0,71.0
79,46.9130859375,47.25,73.0,83.0
80,47.3818359375,47.6591796875,73.0,78.0
81,47.6162109375,47.8681640625,70.0,75.0
82,47.8505859375,48.2373046875,73.0,79.0
83,48.0849609375,48.3447265625,70.0,72.0
84,48.7880859375,49.05078125,75.0,87.0
85,49.2568359375,49.5439453125,75.0,86.0
86,49.4912109375,49.744140625,70.0,77.0
87,49.7255859375,50.0185546875,75.0,88.0
88,49.9599609375,50.26171875,70.0,73.0
89,50.6630859375,50.900390625,75.0,89.0
90,51.1318359375,51.3984375,75.0,87.0
91,51.3662109375,51.5986328125,68.0,76.0
92,51.6005859375,51.884765625,75.0,86.0
93,51.8349609375,52.0126953125,68.0,80.0
94,52.5380859375,52.826171875,73.0,78.0
95,53.0068359375,53.2568359375,73.0,79.0
96,53.2412109375,53.47265625,68.0,77.0
97,53.4755859375,53.82421875,73.0,80.0
98,53.7099609375,53.9306640625,68.0,77.0
99,54.4130859375,54.74609375,73.0,81.0
100,54.8818359375,55.1640625,73.0,80.0
101,55.1162109375,55.3564453125,70.0,77.0
102,55.3505859375,55.6484375,73.0,79.0
103,55.5849609375,55.8984375,70.0,77.0
104,56.2880859375,56.5859375,77.0,92.0
105,56.5224609375,56.822265625,70.0,81.0
106,56.7568359375,57.0556640625,66.0,95.0
107,56.9912109375,57.3330078125,77.0,93.0
108,57.2255859375,57.5380859375,70.0,84.0
109,57.4599609375,57.80859375,66.0,90.0
110,57.6943359375,57.9912109375,77.0,92.0
111,57.9287109375,58.095703125,70.0,89.0
112,58.1630859375,58.4453125,75.0,93.0
113,58.3974609375,58.67578125,72.0,81.0
114,58.6318359375,58.9287109375,66.0,89.0
115,58.8662109375,59.1328125,75.0,90.0
116,59.1005859375,59.4375,72.0,88.0
117,59.3349609375,59.6318359375,66.0,89.0
118,59.5693359375,59.8525390625,75.0,93.0
119,59.8037109375,60.0234375,72.0,84.0
120,60.0380859375,60.3349609375,75.0,92.0
121,60.2724609375,60.5751953125,68.0,76.0
122,60.5068359375,60.8271484375,65.0,92.0
123,60.7412109375,61.0517578125,75.0,95.0
124,60.9755859375,61.2890625,68.0,80.0
125,61.2099609375,61.52734375,65.0,88.0
126,61.4443359375,61.7548828125,75.0,89.0
127,61.6787109375,61.8984375,68.0,83.0
128,61.9130859375,62.205078125,73.0,89.0
129,62.1474609375,62.482421875,68.0,81.0
130,62.3818359375,62.6669921875,65.0,90.0
131,62.6162109375,62.912109375,73.0,86.0
132,62.8505859375,63.1376953125,68.0,83.0
133,63.0849609375,63.3623046875,65.0,90.0
134,63.3193359375,63.60546875,73.0,89.0
135,63.5537109375,63.7421875,68.0,85.0
136,63.7880859375,64.0859375,77.0,92.0
137,64.0224609375,64.322265625,70.0,81.0
138,64.2568359375,64.5556640625,66.0,95.0
139,64.4912109375,64.8330078125,77.0,93.0
140,64.7255859375,65.0380859375,70.0,84.0
141,64.9599609375,65.30859375,66.0,90.0
142,65.1943359375,65.4912109375,77.0,92.0
143,65.4287109375,65.595703125,70.0,89.0
144,65.6630859375,65.9453125,75.0,93.0
145,65.8974609375,66.17578125,72.0,81.0
146,66.1318359375,66.4287109375,66.0,89.0
147,66.3662109375,66.6328125,75.0,90.0
148,66.6005859375,66.9375,72.0,88.0
149,66.8349609375,67.1318359375,66.0,89.0
150,67.0693359375,67.3525390625,75.0,93.0
151,67.3037109375,67.5234375,72.0,84.0
152,67.5380859375,67.8349609375,75.0,92.0
153,67.7724609375,68.0751953125,68.0,76.0
154,68.0068359375,68.3271484375,65.0,92.0
155,68.2412109375,68.5517578125,75.0,95.0
156,68.4755859375,68.7890625,68.0,80.0
157,68.7099609375,69.02734375,65.0,88.0
158,68.9443359375,69.2548828125,75.0,89.0
159,69.1787109375,69.3984375,68.0,83.0
160,69.4130859375,69.705078125,73.0,89.0
161,69.6474609375,69.982421875,68.0,81.0
162,69.8818359375,70.1669921875,65.0,90.0
163,70.1162109375,70.412109375,73.0,86.0
164,70.3505859375,70.6376953125,68.0,83.0
165,70.5849609375,70.8623046875,65.0,90.0
166,70.8193359375,71.10546875,73.0,89.0
167,71.0537109375,71.2421875,68.0,85.0
168,71.2880859375,71.5859375,77.0,92.0
169,71.5224609375,71.822265625,70.0,81.0
170,71.7568359375,72.0556640625,66.0,95.0
171,71.9912109375,72.3330078125,77.0,93.0
172,72.2255859375,72.5380859375,70.0,84.0
173,72.4599609375,72.80859375,66.0,90.0
174,72.6943359375,72.9912109375,77.0,92.0
175,72.9287109375,73.095703125,70.0,89.0
176,73.1630859375,73.4453125,75.0,93.0
177,73.3974609375,73.67578125,72.0,81.0
178,73.6318359375,73.9287109375,66.0,89.0
179,73.8662109375,74.1328125,75.0,90.0
180,74.1005859375,74.4375,72.0,88.0
181,74.3349609375,74.6318359375,66.0,89.0
182,74.5693359375,74.8525390625,75.0,93.0
183,74.8037109375,75.0234375,72.0,84.0
184,75.0380859375,75.3349609375,75.0,92.0
185,75.2724609375,75.5751953125,68.0,76.0
186,75.5068359375,75.8271484375,65.0,92.0
187,75.7412109375,76.0517578125,75.0,95.0
188,75.9755859375,76.2890625,68.0,80.0
189,76.2099609375,76.52734375,65.0,88.0
190,76.4443359375,76.7548828125,75.0,89.0
191,76.6787109375,76.8984375,68.0,83.0
192,76.9130859375,77.205078125,73.0,89.0
193,77.1474609375,77.482421875,68.0,81.0
194,77.3818359375,77.6669921875,65.0,90.0
195,77.6162109375,77.912109375,73.0,86.0
196,77.8505859375,78.1376953125,68.0,83.0
197,78.0849609375,78.3623046875,65.0,90.0
198,78.3193359375,78.60546875,73.0,89.0
199,78.5537109375,78.7421875,68.0,85.0
200,78.7880859375,79.0859375,77.0,92.0
201,79.0224609375,79.322265625,70.0,81.0
202,79.2568359375,79.5556640625,66.0,95.0
203,79.4912109375,79.8330078125,77.0,93.0
204,79.7255859375,80.0380859375,70.0,84.0
205,79.9599609375,80.30859375,66.0,90.0
206,80.1943359375,80.4912109375,77.0,92.0
207,80.4287109375,80.595703125,70.0,89.0
208,80.6630859375,80.9453125,75.0,93.0
209,80.8974609375,81.17578125,72.0,81.0
210,81.1318359375,81.4287109375,66.0,89.0
211,81.3662109375,81.6328125,75.0,90.0
212,81.6005859375,81.9375,72.0,88.0
213,81.8349609375,82.1318359375,66.0,89.0
214,82.0693359375,82.3525390625,75.0,93.0
215,82.3037109375,82.5234375,72.0,84.0
216,82.5380859375,82.8349609375,75.0,92.0
217,82.7724609375,83.0751953125,68.0,76.0
218,83.0068359375,83.3271484375,65.0,92.0
219,83.2412109375,83.5517578125,75.0,95.0
220,83.4755859375,83.7890625,68.0,80.0
221,83.7099609375,84.02734375,65.0,88.0
222,83.9443359375,84.2548828125,75.0,89.0
223,84.1787109375,84.3984375,68.0,83.0
224,84.4130859375,84.705078125,73.0,89.0
225,84.6474609375,84.982421875,68.0,81.0
226,84.8818359375,85.1669921875,65.0,90.0
227,85.1162109375,85.412109375,73.0,86.0
228,85.3505859375,85.6376953125,68.0,83.0
229,85.5849609375,85.8623046875,65.0,90.0
230,85.8193359375,86.10546875,73.0,89.0
231,86.0537109375,86.2421875,68.0,85.0
232,101.2880859375,101.5859375,77.0,92.0
233,101.5224609375,101.822265625,70.0,81.0
234,101.7568359375,102.0556640625,66.0,95.0
235,101.9912109375,102.3330078125,77.0,93.0
236,102.2255859375,102.5380859375,70.0,84.0
237,102.4599609375,102.80859375,66.0,90.0
238,102.6943359375,102.9912109375,77.0,92.0
239,102.9287109375,103.095703125,70.0,89.0
240,103.1630859375,103.4453125,75.0,93.0
241,103.3974609375,103.67578125,72.0,81.0
242,103.6318359375,103.9287109375,66.0,89.0
243,103.8662109375,104.1328125,75.0,90.0
244,104.1005859375,104.4375,72.0,88.0
245,104.3349609375,104.6318359375,66.0,89.0
246,104.5693359375,104.8525390625,75.0,93.0
247,104.8037109375,105.0234375,72.0,84.0
248,105.0380859375,105.3349609375,75.0,92.0
249,105.2724609375,105.5751953125,68.0,76.0
250,105.5068359375,105.8271484375,65.0,92.0
251,105.7412109375,106.0517578125,75.0,95.0
252,105.9755859375,106.2890625,68.0,80.0
253,106.2099609375,106.52734375,65.0,88.0
254,106.4443359375,106.7548828125,75.0,89.0
255,106.6787109375,106.8984375,68.0,83.0
256,106.9130859375,107.205078125,73.0,89.0
257,107.1474609375,107.482421875,68.0,81.0
258,107.3818359375,107.6669921875,65.0,90.0
259,107.6162109375,107.912109375,73.0,86.0
260,107.8505859375,108.1376953125,68.0,83.0
261,108.0849609375,108.3623046875,65.0,90.0
262,108.3193359375,108.60546875,73.0,89.0
263,108.5537109375,108.7421875,68.0,85.0
264,108.7880859375,109.0859375,77.0,92.0
265,109.0224609375,109.322265625,70.0,81.0
266,109.2568359375,109.5556640625,66.0,95.0
267,109.4912109375,109.8330078125,77.0,93.0
268,109.7255859375,110.0380859375,70.0,84.0
269,109.9599609375,110.30859375,66.0,90.0
270,110.1943359375,110.4912109375,77.0,92.0
271,110.4287109375,110.595703125,70.0,89.0
272,110.6630859375,110.9453125,75.0,93.0
273,110.8974609375,111.17578125,72.0,81.0
274,111.1318359375,111.4287109375,66.0,89.0
275,111.3662109375,111.6328125,75.0,90.0
276,111.6005859375,111.9375,72.0,88.0
277,111.8349609375,112.1318359375,66.0,89.0
278,112.0693359375,112.3525390625,75.0,93.0
279,112.3037109375,112.5234375,72.0,84.0
280,112.5380859375,112.8349609375,75.0,92.0
281,112.7724609375,113.0751953125,68.0,76.0
282,113.0068359375,113.3271484375,65.0,92.0
283,113.2412109375,113.5517578125,75.0,95.0
284,113.4755859375,113.7890625,68.0,80.0
285,113.7099609375,114.02734375,65.0,88.0
286,113.9443359375,114.2548828125,75.0,89.0
287,114.1787109375,114.3984375,68.0,83.0
288,114.4130859375,114.705078125,73.0,89.0
289,114.6474609375,114.982421875,68.0,81.0
290,114.8818359375,115.1669921875,65.0,90.0
291,115.1162109375,115.412109375,73.0,86.0
292,115.3505859375,115.6376953125,68.0,83.0
293,115.5849609375,115.8623046875,65.0,90.0
294,115.8193359375,116.10546875,73.0,89.0
295,116.0537109375,116.2421875,68.0,85.0
296,116.2880859375,116.5859375,77.0,92.0
297,116.5224609375,116.822265625,70.0,81.0
298,116.7568359375,117.0556640625,66.0,95.0
299,116.9912109375,117.3330078125,77.0,93.0
300,117.2255859375,117.5380859375,70.0,84.0
301,117.4599609375,117.80859375,66.0,90.0
302,117.6943359375,117.9912109375,77.0,92.0
303,117.9287109375,118.095703125,70.0,89.0
304,118.1630859375,118.4453125,75.0,93.0
305,118.3974609375,118.67578125,72.0,81.0
306,118.6318359375,118.9287109375,66.0,89.0
307,118.8662109375,119.1328125,75.0,90.0
308,119.1005859375,119.4375,72.0,88.0
309,119.3349609375,119.6318359375,66.0,89.0
310,119.5693359375,119.8525390625,75.0,93.0
311,119.8037109375,120.0234375,72.0,84.0
312,120.0380859375,120.3349609375,75.0,92.0
313,120.2724609375,120.5751953125,68.0,76.0
314,120.5068359375,120.8271484375,65.0,92.0
315,120.7412109375,121.0517578125,75.0,95.0
316,120.9755859375,121.2890625,68.0,80.0
317,121.2099609375,121.52734375,65.0,88.0
318,121.4443359375,121.7548828125,75.0,89.0
319,121.6787109375,121.8984375,68.0,83.0
320,121.9130859375,122.205078125,73.0,89.0
321,122.1474609375,122.482421875,68.0,81.0
322,122.3818359375,122.6669921875,65.0,90.0
323,122.6162109375,122.912109375,73.0,86.0
324,122.8505859375,123.1376953125,68.0,83.0
325,123.0849609375,123.3623046875,65.0,90.0
326,123.3193359375,123.60546875,73.0,89.0
327,123.5537109375,123.7421875,68.0,85.0
328,123.7880859375,124.0859375,77.0,92.0
329,124.0224609375,124.322265625,70.0,81.0
330,124.2568359375,124.5556640625,66.0,95.0
331,124.4912109375,124.8330078125,77.0,93.0
332,124.7255859375,125.0380859375,70.0,84.0
333,124.9599609375,125.30859375,66.0,90.0
334,125.1943359375,125.4912109375,77.0,92.0
335,125.4287109375,125.595703125,70.0,89.0
336,125.6630859375,125.9453125,75.0,93.0
337,125.8974609375,126.17578125,72.0,81.0
338,126.1318359375,126.4287109375,66.0,89.0
339,126.3662109375,126.6328125,75.0,90.0
340,126.6005859375,126.9375,72.0,88.0
341,126.8349609375,127.1318359375,66.0,89.0
342,127.0693359375,127.3525390625,75.0,93.0
343,127.3037109375,127.5234375,72.0,84.0
344,127.5380859375,127.8349609375,75.0,92.0
345,127.7724609375,128.0751953125,68.0,76.0
346,128.0068359375,128.3271484375,65.0,92.0
347,128.2412109375,128.5517578125,75.0,95.0
348,128.4755859375,128.7890625,68.0,80.0
349,128.7099609375,129.02734375,65.0,88.0
350,128.9443359375,129.2548828125,75.0,89.0
351,129.1787109375,129.3984375,68.0,83.0
352,129.4130859375,130.1162109375,73.0,89.0
353,131.2880859375,131.703125,77.0,93.0
354,131.7568359375,131.8603515625,70.0,90.0
355,131.9912109375,132.1689453125,73.0,94.0
356,132.2255859375,132.357421875,77.0,89.0
357,132.4599609375,132.6416015625,73.0,89.0
358,132.6943359375,132.8974609375,70.0,88.0
359,133.1630859375,133.505859375,75.0,88.0
360,133.6318359375,133.77734375,68.0,86.0
361,133.8662109375,133.998046875,72.0,88.0
362,134.1005859375,134.2587890625,75.0,89.0
363,134.3349609375,134.5341796875,72.0,83.0
364,134.5693359375,134.84765625,68.0,86.0
365,135.0380859375,135.2490234375,75.0,90.0
366,135.2724609375,135.5693359375,73.0,89.0
367,135.7412109375,135.923828125,75.0,95.0
368,135.9755859375,136.30859375,73.0,88.0
369,136.4443359375,136.7431640625,73.0,86.0
370,136.6787109375,136.91796875,68.0,84.0
371,136.9130859375,137.236328125,70.0,90.0
372,137.3818359375,137.52734375,70.0,90.0
373,137.6162109375,137.7568359375,73.0,90.0
374,137.8505859375,138.0966796875,77.0,92.0
375,138.0849609375,138.34765625,73.0,82.0
376,138.3193359375,138.7158203125,70.0,92.0
377,139.0224609375,139.1767578125,66.0,88.0
378,139.2568359375,139.5234375,70.0,87.0
379,139.4912109375,139.642578125,73.0,90.0
380,139.7255859375,139.986328125,77.0,92.0
381,139.9599609375,140.20703125,73.0,90.0
382,140.1943359375,140.578125,70.0,73.0
383,140.8974609375,141.0751953125,63.0,87.0
384,141.1318359375,141.435546875,68.0,78.0
385,141.3662109375,141.5439453125,72.0,81.0
386,141.6005859375,141.85546875,75.0,89.0
387,141.8349609375,142.0322265625,72.0,77.0
388,142.0693359375,142.3037109375,68.0,76.0
389,142.3037109375,142.51171875,72.0,88.0
390,142.7724609375,142.896484375,61.0,89.0
391,143.0068359375,143.138671875,65.0,89.0
392,143.2412109375,143.39453125,68.0,80.0
393,143.4755859375,143.64453125,73.0,89.0
394,143.7099609375,143.96484375,68.0,79.0
395,143.9443359375,144.0419921875,65.0,75.0
396,144.1787109375,144.3251953125,68.0,81.0
397,144.6474609375,144.7880859375,65.0,90.0
398,144.8818359375,145.0322265625,70.0,81.0
399,145.1162109375,145.2724609375,73.0,82.0
400,145.3505859375,146.1611328125,77.0,91.0
401,146.2880859375,146.5595703125,75.0,89.0
402,146.7568359375,147.0107421875,75.0,84.0
403,146.9912109375,147.2412109375,70.0,75.0
404,147.2255859375,147.689453125,75.0,84.0
405,147.4599609375,147.751953125,70.0,82.0
406,148.1630859375,148.388671875,75.0,89.0
407,148.6318359375,148.966796875,75.0,83.0
408,148.8662109375,149.1435546875,68.0,67.0
409,149.1005859375,149.3740234375,75.0,81.0
410,149.3349609375,149.65234375,68.0,74.0
411,150.0380859375,150.310546875,73.0,75.0
412,150.5068359375,150.80078125,73.0,79.0
413,150.7412109375,150.998046875,68.0,76.0
414,150.9755859375,151.310546875,73.0,78.0
415,151.2099609375,151.412109375,68.0,71.0
416,151.9130859375,152.25,73.0,83.0
417,152.3818359375,152.6591796875,73.0,78.0
418,152.6162109375,152.8681640625,70.0,75.0
419,152.8505859375,153.2373046875,73.0,79.0
420,153.0849609375,153.3447265625,70.0,72.0
421,153.7880859375,154.05078125,75.0,87.0
422,154.2568359375,154.5439453125,75.0,86.0
423,154.4912109375,154.744140625,70.0,77.0
424,154.7255859375,155.0185546875,75.0,88.0
425,154.9599609375,155.26171875,70.0,73.0
426,155.6630859375,155.900390625,75.0,89.0
427,156.1318359375,156.3984375,75.0,87.0
428,156.3662109375,156.5986328125,68.0,76.0
429,156.6005859375,156.884765625,75.0,86.0
430,156.8349609375,157.0126953125,68.0,80.0
431,157.5380859375,157.826171875,73.0,78.0
432,158.0068359375,158.2568359375,73.0,79.0
433,158.2412109375,158.47265625,68.0,77.0
434,158.4755859375,158.82421875,73.0,80.0
435,158.7099609375,158.9306640625,68.0,77.0
436,159.4130859375,159.74609375,73.0,81.0
437,159.8818359375,160.1640625,73.0,80.0
438,160.1162109375,160.3564453125,70.0,77.0
439,160.3505859375,160.6484375,73.0,79.0
440,160.5849609375,160.8984375,70.0,77.0
441,161.2880859375,161.5859375,77.0,92.0
442,161.5224609375,161.822265625,70.0,81.0
443,161.7568359375,162.0556640625,66.0,95.0
444,161.9912109375,162.3330078125,77.0,93.0
445,162.2255859375,162.5380859375,70.0,84.0
446,162.4599609375,162.80859375,66.0,90.0
447,162.6943359375,162.9912109375,77.0,92.0
448,162.9287109375,163.095703125,70.0,89.0
449,163.1630859375,163.4453125,75.0,93.0
450,163.3974609375,163.67578125,72.0,81.0
451,163.6318359375,163.9287109375,66.0,89.0
452,163.8662109375,164.1328125,75.0,90.0
453,164.1005859375,164.4375,72.0,88.0
454,164.3349609375,164.6318359375,66.0,89.0
455,164.5693359375,164.8525390625,75.0,93.0
456,164.8037109375,165.0234375,72.0,84.0
457,165.0380859375,165.3349609375,75.0,92.0
458,165.2724609375,165.5751953125,68.0,76.0
459,165.5068359375,165.8271484375,65.0,92.0
460,165.7412109375,166.0517578125,75.0,95.0
461,165.9755859375,166.2890625,68.0,80.0
462,166.2099609375,166.52734375,65.0,88.0
463,166.4443359375,166.7548828125,75.0,89.0
464,166.6787109375,166.8984375,68.0,83.0
465,166.9130859375,167.205078125,73.0,89.0
466,167.1474609375,167.482421875,68.0,81.0
467,167.3818359375,167.6669921875,65.0,90.0
468,167.6162109375,167.912109375,73.0,86.0
469,167.8505859375,168.1376953125,68.0,83.0
470,168.0849609375,168.3623046875,65.0,90.0
471,168.3193359375,168.60546875,73.0,89.0
472,168.5537109375,168.7421875,68.0,85.0
473,168.7880859375,169.0859375,77.0,92.0
474,169.0224609375,169.322265625,70.0,81.0
475,169.2568359375,169.5556640625,66.0,95.0
476,169.4912109375,169.8330078125,77.0,93.0
477,169.7255859375,170.0380859375,70.0,84.0
478,169.9599609375,170.30859375,66.0,90.0
479,170.1943359375,170.4912109375,77.0,92.0
480,170.4287109375,170.595703125,70.0,89.0
481,170.6630859375,170.9453125,75.0,93.0
482,170.8974609375,171.17578125,72.0,81.0
483,171.1318359375,171.4287109375,66.0,89.0
484,171.3662109375,171.6328125,75.0,90.0
485,171.6005859375,171.9375,72.0,88.0
486,171.8349609375,172.1318359375,66.0,89.0
487,172.0693359375,172.3525390625,75.0,93.0
488,172.3037109375,172.5234375,72.0,84.0
489,172.5380859375,172.8349609375,75.0,92.0
490,172.7724609375,173.0751953125,68.0,76.0
491,173.0068359375,173.3271484375,65.0,92.0
492,173.2412109375,173.5517578125,75.0,95.0
493,173.4755859375,173.7890625,68.0,80.0
494,173.7099609375,174.02734375,65.0,88.0
495,173.9443359375,174.2548828125,75.0,89.0
496,174.1787109375,174.3984375,68.0,83.0
497,174.4130859375,174.705078125,73.0,89.0
498,174.6474609375,174.982421875,68.0,81.0
499,174.8818359375,175.1669921875,65.0,90.0
500,175.1162109375,175.412109375,73.0,86.0
501,175.3505859375,175.6376953125,68.0,83.0
502,175.5849609375,175.8623046875,65.0,90.0
503,175.8193359375,176.10546875,73.0,89.0
504,176.0537109375,176.2421875,68.0,85.0
505,176.2880859375,176.5859375,77.0,92.0
506,176.5224609375,176.822265625,70.0,81.0
507,176.7568359375,177.0556640625,66.0,95.0
508,176.9912109375,177.3330078125,77.0,93.0
509,177.2255859375,177.5380859375,70.0,84.0
510,177.4599609375,177.80859375,66.0,90.0
511,177.6943359375,177.9912109375,77.0,92.0
512,177.9287109375,178.095703125,70.0,89.0
513,178.1630859375,178.4453125,75.0,93.0
514,178.3974609375,178.67578125,72.0,81.0
515,178.6318359375,178.9287109375,66.0,89.0
516,178.8662109375,179.1328125,75.0,90.0
517,179.1005859375,179.4375,72.0,88.0
518,179.3349609375,179.6318359375,66.0,89.0
519,179.5693359375,179.8525390625,75.0,93.0
520,179.8037109375,180.0234375,72.0,84.0
521,180.0380859375,180.3349609375,75.0,92.0
522,180.2724609375,180.5751953125,68.0,76.0
523,180.5068359375,180.8271484375,65.0,92.0
524,180.7412109375,181.0517578125,75.0,95.0
525,180.9755859375,181.2890625,68.0,80.0
526,181.2099609375,181.52734375,65.0,88.0
527,181.4443359375,181.7548828125,75.0,89.0
528,181.6787109375,181.8984375,68.0,83.0
529,181.9130859375,182.205078125,73.0,89.0
530,182.1474609375,182.482421875,68.0,81.0
531,182.3818359375,182.6669921875,65.0,90.0
532,182.6162109375,182.912109375,73.0,86.0
533,182.8505859375,183.1376953125,68.0,83.0
534,183.0849609375,183.3623046875,65.0,90.0
535,183.3193359375,183.60546875,73.0,89.0
536,183.5537109375,183.7421875,68.0,85.0
537,183.7880859375,184.0859375,77.0,92.0
538,184.0224609375,184.322265625,70.0,81.0
539,184.2568359375,184.5556640625,66.0,95.0
540,184.4912109375,184.8330078125,77.0,93.0
541,184.7255859375,185.0380859375,70.0,84.0
542,184.9599609375,185.30859375,66.0,90.0
543,185.1943359375,185.4912109375,77.0,92.0
544,185.4287109375,185.595703125,70.0,89.0
545,185.6630859375,185.9453125,75.0,93.0
546,185.8974609375,186.17578125,72.0,81.0
547,186.1318359375,186.4287109375,66.0,89.0
548,186.3662109375,186.6328125,75.0,90.0
549,186.6005859375,186.9375,72.0,88.0
550,186.8349609375,187.1318359375,66.0,89.0
551,187.0693359375,187.3525390625,75.0,93.0
552,187.3037109375,187.5234375,72.0,84.0
553,187.5380859375,187.8349609375,75.0,92.0
554,187.7724609375,188.0751953125,68.0,76.0
555,188.0068359375,188.3271484375,65.0,92.0
556,188.2412109375,188.5517578125,75.0,95.0
557,188.4755859375,188.7890625,68.0,80.0
558,188.7099609375,189.02734375,65.0,88.0
559,188.9443359375,189.2548828125,75.0,89.0
560,189.1787109375,189.3984375,68.0,83.0
561,189.4130859375,190.1162109375,73.0,89.0
562,191.2880859375,191.5859375,77.0,92.0
563,191.5224609375,191.822265625,70.0,81.0
564,191.7568359375,192.0556640625,66.0,95.0
565,191.9912109375,192.3330078125,77.0,93.0
566,192.2255859375,192.5380859375,70.0,84.0
567,192.4599609375,192.80859375,66.0,90.0
568,192.6943359375,192.9912109375,77.0,92.0
569,192.9287109375,193.095703125,70.0,89.0
570,193.1630859375,193.4453125,75.0,93.0
571,193.3974609375,193.67578125,72.0,81.0
572,193.6318359375,193.9287109375,66.0,89.0
573,193.8662109375,194.1328125,75.0,90.0
574,194.1005859375,194.4375,72.0,88.0
575,194.3349609375,194.6318359375,66.0,89.0
576,194.5693359375,194.8525390625,75.0,93.0
577,194.8037109375,195.0234375,72.0,84.0
578,195.0380859375,195.3349609375,75.0,92.0
579,195.2724609375,195.5751953125,68.0,76.0
580,195.5068359375,195.8271484375,65.0,92.0
581,195.7412109375,196.0517578125,75.0,95.0
582,195.9755859375,196.2890625,68.0,80.0
583,196.2099609375,196.52734375,65.0,88.0
584,196.4443359375,196.7548828125,75.0,89.0
585,196.6787109375,196.8984375,68.0,83.0
586,196.9130859375,197.205078125,73.0,89.0
587,197.1474609375,197.482421875,68.0,81.0
588,197.3818359375,197.6669921875,65.0,90.0
589,197.6162109375,197.912109375,73.0,86.0
590,197.8505859375,198.1376953125,68.0,83.0
591,198.0849609375,198.3623046875,65.0,90.0
592,198.3193359375,198.60546875,73.0,89.0
593,198.5537109375,198.7421875,68.0,85.0
594,198.7880859375,199.0859375,77.0,92.0
595,199.0224609375,199.322265625,70.0,81.0
596,199.2568359375,199.5556640625,66.0,95.0
597,199.4912109375,199.8330078125,77.0,93.0
598,199.7255859375,200.0380859375,70.0,84.0
599,199.9599609375,200.30859375,66.0,90.0
600,200.1943359375,200.4912109375,77.0,92.0
601,200.4287109375,200.595703125,70.0,89.0
602,200.6630859375,200.9453125,75.0,93.0
603,200.8974609375,201.17578125,72.0,81.0
604,201.1318359375,201.4287109375,66.0,89.0
605,201.3662109375,201.6328125,75.0,90.0
606,201.6005859375,201.9375,72.0,88.0
607,201.8349609375,202.1318359375,66.0,89.0
608,202.0693359375,202.3525390625,75.0,93.0
609,202.3037109375,202.5234375,72.0,84.0
610,202.5380859375,202.8349609375,75.0,92.0
611,202.7724609375,203.0751953125,68.0,76.0
612,203.0068359375,203.3271484375,65.0,92.0
613,203.2412109375,203.5517578125,75.0,95.0
614,203.4755859375,203.7890625,68.0,80.0
615,203.7099609375,204.02734375,65.0,88.0
616,203.9443359375,204.2548828125,75.0,89.0
617,204.1787109375,204.3984375,68.0,83.0
618,204.4130859375,204.705078125,73.0,89.0
619,204.6474609375,204.982421875,68.0,81.0
620,204.8818359375,205.1669921875,65.0,90.0
621,205.1162109375,205.412109375,73.0,86.0
622,205.3505859375,205.6376953125,68.0,83.0
623,205.5849609375,205.8623046875,65.0,90.0
624,205.8193359375,206.10546875,73.0,89.0
625,206.0537109375,206.2421875,68.0,85.0
626,206.2880859375,206.5859375,77.0,92.0
627,206.5224609375,206.822265625,70.0,81.0
628,206.7568359375,207.0556640625,66.0,95.0
629,206.9912109375,207.3330078125,77.0,93.0
630,207.2255859375,207.5380859375,70.0,84.0
631,207.4599609375,207.80859375,66.0,90.0
632,207.6943359375,207.9912109375,77.0,92.0
633,207.9287109375,208.095703125,70.0,89.0
634,208.1630859375,208.4453125,75.0,93.0
635,208.3974609375,208.67578125,72.0,81.0
636,208.6318359375,208.9287109375,66.0,89.0
637,208.8662109375,209.1328125,75.0,90.0
638,209.1005859375,209.4375,72.0,88.0
639,209.3349609375,209.6318359375,66.0,89.0
640,209.5693359375,209.8525390625,75.0,93.0
641,209.8037109375,210.0234375,72.0,84.0
642,210.0380859375,210.3349609375,75.0,92.0
643,210.2724609375,210.5751953125,68.0,76.0
644,210.5068359375,210.8271484375,65.0,92.0
645,210.7412109375,211.0517578125,75.0,95.0
646,210.9755859375,211.2890625,68.0,80.0
647,211.2099609375,211.52734375,65.0,88.0
648,211.4443359375,211.7548828125,75.0,89.0
649,211.6787109375,211.8984375,68.0,83.0
650,211.9130859375,212.205078125,73.0,89.0
651,212.1474609375,212.482421875,68.0,81.0
652,212.3818359375,212.6669921875,65.0,90.0
653,212.6162109375,212.912109375,73.0,86.0
654,212.8505859375,213.1376953125,68.0,83.0
655,213.0849609375,213.3623046875,65.0,90.0
656,213.3193359375,213.60546875,73.0,89.0
657,213.5537109375,213.7421875,68.0,85.0
658,213.7880859375,214.0859375,77.0,92.0
659,214.0224609375,214.322265625,70.0,81.0
660,214.2568359375,214.5556640625,66.0,95.0
661,214.4912109375,214.8330078125,77.0,93.0
662,214.7255859375,215.0380859375,70.0,84.0
663,214.9599609375,215.30859375,66.0,90.0
664,215.1943359375,215.4912109375,77.0,92.0
665,215.4287109375,215.595703125,70.0,89.0
666,215.6630859375,215.9453125,75.0,93.0
667,215.8974609375,216.17578125,72.0,81.0
668,216.1318359375,216.4287109375,66.0,89.0
669,216.3662109375,216.6328125,75.0,90.0
670,216.6005859375,216.9375,72.0,88.0
671,216.8349609375,217.1318359375,66.0,89.0
672,217.0693359375,217.3525390625,75.0,93.0
673,217.3037109375,217.5234375,72.0,84.0
674,217.5380859375,217.8349609375,75.0,92.0
675,217.7724609375,218.0751953125,68.0,76.0
676,218.0068359375,218.3271484375,65.0,92.0
677,218.2412109375,218.5517578125,75.0,95.0
678,218.4755859375,218.7890625,68.0,80.0
679,218.7099609375,219.02734375,65.0,88.0
680,218.9443359375,219.2548828125,75.0,89.0
681,219.1787109375,219.3984375,68.0,83.0
682,219.4130859375,220.1162109375,73.0,89.0
