,start,end,pitch,velocity
0,25.1162109375,25.515625,70.0,95.0
1,25.5849609375,25.7119140625,73.0,90.0
2,25.8193359375,25.9970703125,73.0,94.0
3,26.0537109375,26.2099609375,70.0,90.0
4,26.2880859375,26.6015625,75.0,92.0
5,26.7568359375,27.1025390625,75.0,94.0
6,27.2255859375,27.5087890625,75.0,94.0
7,27.6943359375,27.8505859375,73.0,91.0
8,27.9287109375,28.294921875,77.0,90.0
9,28.3974609375,28.73828125,75.0,99.0
10,28.8662109375,29.20703125,70.0,89.0
11,29.3349609375,29.4775390625,73.0,87.0
12,29.5693359375,29.7470703125,73.0,89.0
13,29.8037109375,29.9599609375,70.0,89.0
14,30.0380859375,30.4013671875,73.0,89.0
15,30.5068359375,30.9033203125,73.0,93.0
16,30.9755859375,31.111328125,73.0,89.0
17,31.2099609375,31.447265625,73.0,89.0
18,31.6787109375,32.4365234375,70.0,92.0
19,32.6162109375,33.021484375,70.0,88.0
20,33.0849609375,33.21484375,73.0,85.0
21,33.3193359375,33.4970703125,73.0,84.0
22,33.5537109375,33.7744140625,70.0,88.0
23,33.7880859375,34.1064453125,75.0,90.0
24,34.2568359375,34.5966796875,75.0,92.0
25,34.7255859375,35.0751953125,75.0,92.0
26,35.1943359375,35.33984375,73.0,90.0
27,35.4287109375,35.7841796875,77.0,90.0
28,35.8974609375,36.2421875,75.0,90.0
29,36.3662109375,36.5029296875,70.0,89.0
30,36.6005859375,36.7783203125,70.0,88.0
31,36.8349609375,36.9501953125,73.0,89.0
32,37.0693359375,37.23046875,73.0,90.0
33,37.3037109375,37.4619140625,70.0,88.0
34,37.5380859375,38.2412109375,73.0,93.0
35,40.1162109375,40.515625,70.0,95.0
36,40.5849609375,40.7119140625,73.0,90.0
37,40.8193359375,40.9970703125,73.0,94.0
38,41.0537109375,41.2099609375,70.0,90.0
39,41.2880859375,41.6015625,75.0,92.0
40,41.7568359375,42.1025390625,75.0,94.0
41,42.2255859375,42.5087890625,75.0,94.0
42,42.6943359375,42.8505859375,73.0,91.0
43,42.9287109375,43.294921875,77.0,90.0
44,43.3974609375,43.73828125,75.0,99.0
45,43.8662109375,44.20703125,70.0,89.0
46,44.3349609375,44.4775390625,73.0,87.0
47,44.5693359375,44.7470703125,73.0,89.0
48,44.8037109375,44.9599609375,70.0,89.0
49,45.0380859375,45.4013671875,73.0,89.0
50,45.5068359375,45.9033203125,73.0,93.0
51,45.9755859375,46.111328125,73.0,89.0
52,46.2099609375,46.447265625,73.0,89.0
53,46.6787109375,47.4365234375,70.0,92.0
54,47.6162109375,48.021484375,70.0,88.0
55,48.0849609375,48.21484375,73.0,85.0
56,48.3193359375,48.4970703125,73.0,84.0
57,48.5537109375,48.7744140625,70.0,88.0
58,48.7880859375,49.1064453125,75.0,90.0
59,49.2568359375,49.5966796875,75.0,92.0
60,49.7255859375,50.0751953125,75.0,92.0
61,50.1943359375,50.33984375,73.0,90.0
62,50.4287109375,50.7841796875,77.0,90.0
63,50.8974609375,51.2421875,75.0,90.0
64,51.3662109375,51.5029296875,70.0,89.0
65,51.6005859375,51.7783203125,70.0,88.0
66,51.8349609375,51.9501953125,73.0,89.0
67,52.0693359375,52.23046875,73.0,90.0
68,52.3037109375,52.4619140625,70.0,88.0
69,52.5380859375,53.2412109375,73.0,93.0
70,55.1162109375,55.5048828125,77.0,94.0
71,55.5849609375,55.7265625,80.0,86.0
72,55.8193359375,55.9853515625,80.0,88.0
73,56.0537109375,56.1962890625,77.0,91.0
74,56.2880859375,56.6279296875,82.0,88.0
75,56.7568359375,57.09375,82.0,88.0
76,57.2255859375,57.576171875,82.0,88.0
77,57.6943359375,57.83203125,82.0,79.0
78,57.9287109375,58.30078125,82.0,89.0
79,58.3974609375,58.7060546875,80.0,89.0
80,58.8662109375,59.2001953125,80.0,81.0
81,59.3349609375,59.4580078125,80.0,90.0
82,59.5693359375,59.7197265625,80.0,88.0
83,59.8037109375,59.9599609375,77.0,89.0
84,60.0380859375,60.3671875,80.0,89.0
85,60.5068359375,60.859375,80.0,90.0
86,60.9755859375,61.341796875,80.0,89.0
87,61.4443359375,61.62109375,80.0,87.0
88,61.6787109375,62.4697265625,77.0,92.0
89,62.6162109375,63.0048828125,77.0,94.0
90,63.0849609375,63.2265625,80.0,86.0
91,63.3193359375,63.4853515625,80.0,88.0
92,63.5537109375,63.6962890625,77.0,91.0
93,63.7880859375,64.1279296875,82.0,88.0
94,64.2568359375,64.59375,82.0,88.0
95,64.7255859375,65.076171875,82.0,88.0
96,65.1943359375,65.33203125,82.0,79.0
97,65.4287109375,65.80078125,82.0,89.0
98,65.8974609375,66.2060546875,80.0,89.0
99,66.3662109375,66.7001953125,80.0,81.0
100,66.8349609375,66.9580078125,80.0,90.0
101,67.0693359375,67.2197265625,80.0,88.0
102,67.3037109375,67.4599609375,77.0,89.0
103,67.5380859375,67.8671875,80.0,89.0
104,68.0068359375,68.359375,80.0,90.0
105,68.4755859375,68.841796875,80.0,89.0
106,68.9443359375,69.12109375,80.0,87.0
107,69.1787109375,69.9697265625,82.0,92.0
108,70.1162109375,70.470703125,77.0,92.0
109,70.5849609375,70.720703125,75.0,93.0
110,70.8193359375,70.951171875,75.0,88.0
111,71.0537109375,71.1875,73.0,88.0
112,71.2880859375,71.8466796875,75.0,90.0
113,71.9912109375,72.3564453125,77.0,88.0
114,72.4599609375,72.6015625,75.0,90.0
115,72.6943359375,72.859375,75.0,90.0
116,72.9287109375,73.08203125,73.0,88.0
117,73.1630859375,73.6845703125,75.0,90.0
118,73.8662109375,74.263671875,77.0,90.0
119,74.3349609375,74.4619140625,75.0,94.0
120,74.5693359375,74.736328125,75.0,89.0
121,74.8037109375,74.94921875,73.0,89.0
122,75.0380859375,76.24609375,73.0,92.0
123,77.6162109375,77.939453125,77.0,91.0
124,78.0849609375,78.2177734375,75.0,89.0
125,78.3193359375,78.4755859375,75.0,92.0
126,78.5537109375,78.7197265625,73.0,86.0
127,78.7880859375,79.3642578125,75.0,92.0
128,79.4912109375,79.8623046875,77.0,90.0
129,79.9599609375,80.0791015625,75.0,90.0
130,80.1943359375,80.345703125,75.0,89.0
131,80.4287109375,80.5849609375,73.0,88.0
132,80.6630859375,81.2001953125,75.0,90.0
133,81.3662109375,81.740234375,77.0,88.0
134,81.8349609375,81.9599609375,75.0,90.0
135,82.0693359375,82.2001953125,75.0,94.0
136,82.3037109375,82.44140625,73.0,89.0
137,82.5380859375,84.2861328125,73.0,89.0
138,85.1162109375,85.515625,70.0,95.0
139,85.5849609375,85.7119140625,73.0,90.0
140,85.8193359375,85.9970703125,73.0,94.0
141,86.0537109375,86.2099609375,70.0,90.0
142,86.2880859375,86.6015625,75.0,92.0
143,86.7568359375,87.1025390625,75.0,94.0
144,87.2255859375,87.5087890625,75.0,94.0
145,87.6943359375,87.8505859375,73.0,91.0
146,87.9287109375,88.294921875,77.0,90.0
147,88.3974609375,88.73828125,75.0,99.0
148,88.8662109375,89.20703125,70.0,89.0
149,89.3349609375,89.4775390625,73.0,87.0
150,89.5693359375,89.7470703125,73.0,89.0
151,89.8037109375,89.9599609375,70.0,89.0
152,90.0380859375,90.4013671875,73.0,89.0
153,90.5068359375,90.9033203125,73.0,93.0
154,90.9755859375,91.111328125,73.0,89.0
155,91.2099609375,91.447265625,73.0,89.0
156,91.6787109375,92.4365234375,70.0,92.0
157,92.6162109375,93.021484375,70.0,88.0
158,93.0849609375,93.21484375,73.0,85.0
159,93.3193359375,93.4970703125,73.0,84.0
160,93.5537109375,93.7744140625,70.0,88.0
161,93.7880859375,94.1064453125,75.0,90.0
162,94.2568359375,94.5966796875,75.0,92.0
163,94.7255859375,95.0751953125,75.0,92.0
164,95.1943359375,95.33984375,73.0,90.0
165,95.4287109375,95.7841796875,77.0,90.0
166,95.8974609375,96.2421875,75.0,90.0
167,96.3662109375,96.5029296875,70.0,89.0
168,96.6005859375,96.7783203125,70.0,88.0
169,96.8349609375,96.9501953125,73.0,89.0
170,97.0693359375,97.23046875,73.0,90.0
171,97.3037109375,97.4619140625,70.0,88.0
172,97.5380859375,98.2412109375,73.0,93.0
173,100.1162109375,100.5048828125,77.0,94.0
174,100.5849609375,100.7265625,80.0,86.0
175,100.8193359375,100.9853515625,80.0,88.0
176,101.0537109375,101.1962890625,77.0,91.0
177,101.2880859375,101.6279296875,82.0,88.0
178,101.7568359375,102.09375,82.0,88.0
179,102.2255859375,102.576171875,82.0,88.0
180,102.6943359375,102.83203125,82.0,79.0
181,102.9287109375,103.30078125,82.0,89.0
182,103.3974609375,103.7060546875,80.0,89.0
183,103.8662109375,104.2001953125,80.0,81.0
184,104.3349609375,104.4580078125,80.0,90.0
185,104.5693359375,104.7197265625,80.0,88.0
186,104.8037109375,104.9599609375,77.0,89.0
187,105.0380859375,105.3671875,80.0,89.0
188,105.5068359375,105.859375,80.0,90.0
189,105.9755859375,106.341796875,80.0,89.0
190,106.4443359375,106.62109375,80.0,87.0
191,106.6787109375,107.4697265625,77.0,92.0
192,107.6162109375,108.0048828125,77.0,94.0
193,108.0849609375,108.2265625,80.0,86.0
194,108.3193359375,108.4853515625,80.0,88.0
195,108.5537109375,108.6962890625,77.0,91.0
196,108.7880859375,109.1279296875,82.0,88.0
197,109.2568359375,109.59375,82.0,88.0
198,109.7255859375,110.076171875,82.0,88.0
199,110.1943359375,110.33203125,82.0,79.0
200,110.4287109375,110.80078125,82.0,89.0
201,110.8974609375,111.2060546875,80.0,89.0
202,111.3662109375,111.7001953125,80.0,81.0
203,111.8349609375,111.9580078125,80.0,90.0
204,112.0693359375,112.2197265625,80.0,88.0
205,112.3037109375,112.4599609375,77.0,89.0
206,112.5380859375,112.8671875,80.0,89.0
207,113.0068359375,113.359375,80.0,90.0
208,113.4755859375,113.841796875,80.0,89.0
209,113.9443359375,114.12109375,80.0,87.0
210,114.1787109375,114.9697265625,82.0,92.0
211,115.1162109375,115.470703125,77.0,92.0
212,115.5849609375,115.720703125,75.0,93.0
213,115.8193359375,115.951171875,75.0,88.0
214,116.0537109375,116.1875,73.0,88.0
215,116.2880859375,116.8466796875,75.0,90.0
216,116.9912109375,117.3564453125,77.0,88.0
217,117.4599609375,117.6015625,75.0,90.0
218,117.6943359375,117.859375,75.0,90.0
219,117.9287109375,118.08203125,73.0,88.0
220,118.1630859375,118.6845703125,75.0,90.0
221,118.8662109375,119.263671875,77.0,90.0
222,119.3349609375,119.4619140625,75.0,94.0
223,119.5693359375,119.736328125,75.0,89.0
224,119.8037109375,119.94921875,73.0,89.0
225,120.0380859375,121.24609375,73.0,92.0
226,122.6162109375,122.939453125,77.0,91.0
227,123.0849609375,123.2177734375,75.0,89.0
228,123.3193359375,123.4755859375,75.0,92.0
229,123.5537109375,123.7197265625,73.0,86.0
230,123.7880859375,124.3642578125,75.0,92.0
231,124.4912109375,124.8623046875,77.0,90.0
232,124.9599609375,125.0791015625,75.0,90.0
233,125.1943359375,125.345703125,75.0,89.0
234,125.4287109375,125.5849609375,73.0,88.0
235,125.6630859375,126.2001953125,75.0,90.0
236,126.3662109375,126.740234375,77.0,88.0
237,126.8349609375,126.9599609375,75.0,90.0
238,127.0693359375,127.2001953125,75.0,94.0
239,127.3037109375,127.44140625,73.0,89.0
240,127.5380859375,129.2861328125,73.0,89.0
241,145.1162109375,145.515625,70.0,95.0
242,145.5849609375,145.7119140625,73.0,90.0
243,145.8193359375,145.9970703125,73.0,94.0
244,146.0537109375,146.2099609375,70.0,90.0
245,146.2880859375,146.6015625,75.0,92.0
246,146.7568359375,147.1025390625,75.0,94.0
247,147.2255859375,147.5087890625,75.0,94.0
248,147.6943359375,147.8505859375,73.0,91.0
249,147.9287109375,148.294921875,77.0,90.0
250,148.3974609375,148.73828125,75.0,99.0
251,148.8662109375,149.20703125,70.0,89.0
252,149.3349609375,149.4775390625,73.0,87.0
253,149.5693359375,149.7470703125,73.0,89.0
254,149.8037109375,149.9599609375,70.0,89.0
255,150.0380859375,150.4013671875,73.0,89.0
256,150.5068359375,150.9033203125,73.0,93.0
257,150.9755859375,151.111328125,73.0,89.0
258,151.2099609375,151.447265625,73.0,89.0
259,151.6787109375,152.4365234375,70.0,92.0
260,152.6162109375,153.021484375,70.0,88.0
261,153.0849609375,153.21484375,73.0,85.0
262,153.3193359375,153.4970703125,73.0,84.0
263,153.5537109375,153.7744140625,70.0,88.0
264,153.7880859375,154.1064453125,75.0,90.0
265,154.2568359375,154.5966796875,75.0,92.0
266,154.7255859375,155.0751953125,75.0,92.0
267,155.1943359375,155.33984375,73.0,90.0
268,155.4287109375,155.7841796875,77.0,90.0
269,155.8974609375,156.2421875,75.0,90.0
270,156.3662109375,156.5029296875,70.0,89.0
271,156.6005859375,156.7783203125,70.0,88.0
272,156.8349609375,156.9501953125,73.0,89.0
273,157.0693359375,157.23046875,73.0,90.0
274,157.3037109375,157.4619140625,70.0,88.0
275,157.5380859375,158.2412109375,73.0,93.0
276,160.1162109375,160.5048828125,77.0,94.0
277,160.5849609375,160.7265625,80.0,86.0
278,160.8193359375,160.9853515625,80.0,88.0
279,161.0537109375,161.1962890625,77.0,91.0
280,161.2880859375,161.6279296875,82.0,88.0
281,161.7568359375,162.09375,82.0,88.0
282,162.2255859375,162.576171875,82.0,88.0
283,162.6943359375,162.83203125,82.0,79.0
284,162.9287109375,163.30078125,82.0,89.0
285,163.3974609375,163.7060546875,80.0,89.0
286,163.8662109375,164.2001953125,80.0,81.0
287,164.3349609375,164.4580078125,80.0,90.0
288,164.5693359375,164.7197265625,80.0,88.0
289,164.8037109375,164.9599609375,77.0,89.0
290,165.0380859375,165.3671875,80.0,89.0
291,165.5068359375,165.859375,80.0,90.0
292,165.9755859375,166.341796875,80.0,89.0
293,166.4443359375,166.62109375,80.0,87.0
294,166.6787109375,167.4697265625,77.0,92.0
295,167.6162109375,168.0048828125,77.0,94.0
296,168.0849609375,168.2265625,80.0,86.0
297,168.3193359375,168.4853515625,80.0,88.0
298,168.5537109375,168.6962890625,77.0,91.0
299,168.7880859375,169.1279296875,82.0,88.0
300,169.2568359375,169.59375,82.0,88.0
301,169.7255859375,170.076171875,82.0,88.0
302,170.1943359375,170.33203125,82.0,79.0
303,170.4287109375,170.80078125,82.0,89.0
304,170.8974609375,171.2060546875,80.0,89.0
305,171.3662109375,171.7001953125,80.0,81.0
306,171.8349609375,171.9580078125,80.0,90.0
307,172.0693359375,172.2197265625,80.0,88.0
308,172.3037109375,172.4599609375,77.0,89.0
309,172.5380859375,172.8671875,80.0,89.0
310,173.0068359375,173.359375,80.0,90.0
311,173.4755859375,173.841796875,80.0,89.0
312,173.9443359375,174.12109375,80.0,87.0
313,174.1787109375,174.9697265625,82.0,92.0
314,175.1162109375,175.470703125,77.0,92.0
315,175.5849609375,175.720703125,75.0,93.0
316,175.8193359375,175.951171875,75.0,88.0
317,176.0537109375,176.1875,73.0,88.0
318,176.2880859375,176.8466796875,75.0,90.0
319,176.9912109375,177.3564453125,77.0,88.0
320,177.4599609375,177.6015625,75.0,90.0
321,177.6943359375,177.859375,75.0,90.0
322,177.9287109375,178.08203125,73.0,88.0
323,178.1630859375,178.6845703125,75.0,90.0
324,178.8662109375,179.263671875,77.0,90.0
325,179.3349609375,179.4619140625,75.0,94.0
326,179.5693359375,179.736328125,75.0,89.0
327,179.8037109375,179.94921875,73.0,89.0
328,180.0380859375,181.24609375,73.0,92.0
329,182.6162109375,182.939453125,77.0,91.0
330,183.0849609375,183.2177734375,75.0,89.0
331,183.3193359375,183.4755859375,75.0,92.0
332,183.5537109375,183.7197265625,73.0,86.0
333,183.7880859375,184.3642578125,75.0,92.0
334,184.4912109375,184.8623046875,77.0,90.0
335,184.9599609375,185.0791015625,75.0,90.0
336,185.1943359375,185.345703125,75.0,89.0
337,185.4287109375,185.5849609375,73.0,88.0
338,185.6630859375,186.2001953125,75.0,90.0
339,186.3662109375,186.740234375,77.0,88.0
340,186.8349609375,186.9599609375,75.0,90.0
341,187.0693359375,187.2001953125,75.0,94.0
342,187.3037109375,187.44140625,73.0,89.0
343,187.5380859375,189.2861328125,73.0,89.0
344,190.1162109375,190.5048828125,77.0,94.0
345,190.5849609375,190.7265625,80.0,86.0
346,190.8193359375,190.9853515625,80.0,88.0
347,191.0537109375,191.1962890625,77.0,91.0
348,191.2880859375,191.6279296875,82.0,88.0
349,191.7568359375,192.09375,82.0,88.0
350,192.2255859375,192.576171875,82.0,88.0
351,192.6943359375,192.83203125,82.0,79.0
352,192.9287109375,193.30078125,82.0,89.0
353,193.3974609375,193.7060546875,80.0,89.0
354,193.8662109375,194.2001953125,80.0,81.0
355,194.3349609375,194.4580078125,80.0,90.0
356,194.5693359375,194.7197265625,80.0,88.0
357,194.8037109375,194.9599609375,77.0,89.0
358,195.0380859375,195.3671875,80.0,89.0
359,195.5068359375,195.859375,80.0,90.0
360,195.9755859375,196.341796875,80.0,89.0
361,196.4443359375,196.62109375,80.0,87.0
362,196.6787109375,197.4697265625,77.0,92.0
363,197.6162109375,198.0048828125,77.0,94.0
364,198.0849609375,198.2265625,80.0,86.0
365,198.3193359375,198.4853515625,80.0,88.0
366,198.5537109375,198.6962890625,77.0,91.0
367,198.7880859375,199.1279296875,82.0,88.0
368,199.2568359375,199.59375,82.0,88.0
369,199.7255859375,200.076171875,82.0,88.0
370,200.1943359375,200.33203125,82.0,79.0
371,200.4287109375,200.80078125,82.0,89.0
372,200.8974609375,201.2060546875,80.0,89.0
373,201.3662109375,201.7001953125,80.0,81.0
374,201.8349609375,201.9580078125,80.0,90.0
375,202.0693359375,202.2197265625,80.0,88.0
376,202.3037109375,202.4599609375,77.0,89.0
377,202.5380859375,202.8671875,80.0,89.0
378,203.0068359375,203.359375,80.0,90.0
379,203.4755859375,203.841796875,80.0,89.0
380,203.9443359375,204.12109375,80.0,87.0
381,204.1787109375,204.9697265625,82.0,92.0
382,205.1162109375,205.470703125,77.0,92.0
383,205.5849609375,205.720703125,75.0,93.0
384,205.8193359375,205.951171875,75.0,88.0
385,206.0537109375,206.1875,73.0,88.0
386,206.2880859375,206.8466796875,75.0,90.0
387,206.9912109375,207.3564453125,77.0,88.0
388,207.4599609375,207.6015625,75.0,90.0
389,207.6943359375,207.859375,75.0,90.0
390,207.9287109375,208.08203125,73.0,88.0
391,208.1630859375,208.6845703125,75.0,90.0
392,208.8662109375,209.263671875,77.0,90.0
393,209.3349609375,209.4619140625,75.0,94.0
394,209.5693359375,209.736328125,75.0,89.0
395,209.8037109375,209.94921875,73.0,89.0
396,210.0380859375,211.24609375,73.0,92.0
397,212.6162109375,212.939453125,77.0,91.0
398,213.0849609375,213.2177734375,75.0,89.0
399,213.3193359375,213.4755859375,75.0,92.0
400,213.5537109375,213.7197265625,73.0,86.0
401,213.7880859375,214.3642578125,75.0,92.0
402,214.4912109375,214.8623046875,77.0,90.0
403,214.9599609375,215.0791015625,75.0,90.0
404,215.1943359375,215.345703125,75.0,89.0
405,215.4287109375,215.5849609375,73.0,88.0
406,215.6630859375,216.2001953125,75.0,90.0
407,216.3662109375,216.740234375,77.0,88.0
408,216.8349609375,216.9599609375,75.0,90.0
409,217.0693359375,217.2001953125,75.0,94.0
410,217.3037109375,217.44140625,73.0,89.0
411,217.5380859375,219.2861328125,73.0,89.0
