,start,end,pitch,velocity
0,11.1787109375,12.8876953125,54.0,77.0
1,11.2265625,13.001953125,42.0,88.0
2,11.2841796875,13.02734375,61.0,77.0
3,11.248046875,13.1171875,58.0,70.0
4,13.1220703125,14.6796875,60.0,72.0
5,13.0224609375,14.7236328125,56.0,80.0
6,13.126953125,14.7490234375,63.0,33.0
7,13.1064453125,14.8857421875,44.0,84.0
8,14.9375,16.658203125,56.0,74.0
9,14.99609375,16.7099609375,61.0,76.0
10,15.04296875,16.7265625,65.0,80.0
11,14.994140625,16.7822265625,49.0,83.0
12,16.8193359375,18.7197265625,58.0,68.0
13,16.943359375,18.720703125,65.0,81.0
14,16.8701171875,18.7255859375,46.0,88.0
15,16.884765625,18.7294921875,61.0,78.0
16,18.7880859375,18.9912109375,58.0,84.0
17,18.7880859375,19.130859375,66.0,86.0
18,19.2568359375,19.38671875,58.0,84.0
19,19.4912109375,19.765625,58.0,89.0
20,19.4912109375,19.8310546875,63.0,94.0
21,19.4912109375,19.9873046875,66.0,92.0
22,19.0224609375,20.0419921875,46.0,77.0
23,19.9599609375,20.0693359375,58.0,81.0
24,18.7880859375,20.0810546875,39.0,90.0
25,20.1943359375,20.2783203125,58.0,88.0
26,20.1943359375,20.4326171875,63.0,92.0
27,20.1943359375,20.4501953125,66.0,89.0
28,20.4287109375,20.517578125,58.0,81.0
29,20.6630859375,20.923828125,56.0,85.0
30,20.6630859375,21.0234375,60.0,90.0
31,21.1318359375,21.23828125,56.0,89.0
32,21.3662109375,21.5029296875,60.0,91.0
33,21.3662109375,21.515625,56.0,91.0
34,21.3662109375,21.5322265625,63.0,89.0
35,21.8349609375,21.9921875,56.0,88.0
36,22.0693359375,22.1884765625,56.0,90.0
37,22.0693359375,22.228515625,60.0,90.0
38,22.0693359375,22.3681640625,63.0,89.0
39,20.8974609375,22.3720703125,51.0,79.0
40,22.3037109375,22.4189453125,56.0,87.0
41,20.6630859375,22.4306640625,44.0,89.0
42,22.5380859375,22.6787109375,65.0,91.0
43,22.5380859375,22.9951171875,56.0,89.0
44,22.5380859375,23.119140625,61.0,91.0
45,23.2412109375,23.5712890625,56.0,86.0
46,23.2412109375,23.767578125,61.0,88.0
47,23.7099609375,23.83203125,56.0,84.0
48,23.9443359375,24.0498046875,56.0,90.0
49,22.5380859375,24.11328125,49.0,90.0
50,23.0068359375,24.25390625,53.0,80.0
51,23.9443359375,24.259765625,65.0,94.0
52,23.9443359375,24.2734375,61.0,94.0
53,24.1787109375,24.2890625,56.0,86.0
54,24.4130859375,24.6875,58.0,84.0
55,24.4130859375,24.921875,61.0,89.0
56,24.8818359375,24.9853515625,58.0,79.0
57,25.1162109375,25.3251953125,58.0,89.0
58,25.1162109375,25.328125,65.0,91.0
59,25.1162109375,25.33984375,61.0,91.0
60,25.5849609375,25.685546875,58.0,77.0
61,25.8193359375,25.9306640625,58.0,88.0
62,25.8193359375,26.1162109375,61.0,88.0
63,25.8193359375,26.126953125,65.0,89.0
64,26.0537109375,26.1630859375,58.0,77.0
65,24.6474609375,26.2041015625,53.0,80.0
66,24.4130859375,26.2177734375,46.0,89.0
67,26.2880859375,26.8330078125,63.0,89.0
68,26.2880859375,26.8408203125,66.0,89.0
69,26.7568359375,26.8759765625,58.0,80.0
70,26.9912109375,27.2802734375,58.0,90.0
71,26.9912109375,27.544921875,63.0,92.0
72,26.9912109375,27.5576171875,66.0,90.0
73,27.4599609375,27.58984375,58.0,80.0
74,26.5224609375,27.7138671875,54.0,73.0
75,26.2880859375,27.7236328125,51.0,89.0
76,27.6943359375,27.8505859375,58.0,83.0
77,27.6943359375,27.916015625,63.0,90.0
78,27.6943359375,27.9384765625,66.0,89.0
79,27.9287109375,27.99609375,58.0,72.0
80,28.1630859375,28.4033203125,56.0,91.0
81,28.1630859375,28.4296875,60.0,88.0
82,28.1630859375,28.4375,63.0,89.0
83,28.6318359375,28.7412109375,56.0,79.0
84,28.3974609375,28.7685546875,51.0,79.0
85,28.1630859375,28.7841796875,44.0,89.0
86,28.8662109375,29.197265625,56.0,89.0
87,28.8662109375,29.388671875,60.0,89.0
88,28.8662109375,29.4189453125,63.0,89.0
89,29.3349609375,29.4541015625,56.0,84.0
90,29.5693359375,29.7041015625,56.0,90.0
91,29.5693359375,29.759765625,60.0,95.0
92,28.8662109375,29.869140625,51.0,88.0
93,28.8662109375,29.8876953125,44.0,88.0
94,29.5693359375,29.9013671875,63.0,90.0
95,29.8037109375,29.908203125,56.0,84.0
96,30.0380859375,30.19140625,56.0,88.0
97,30.0380859375,30.3759765625,61.0,89.0
98,30.0380859375,30.5791015625,65.0,92.0
99,30.2724609375,30.6103515625,56.0,77.0
100,30.7412109375,30.986328125,56.0,91.0
101,30.7412109375,31.248046875,61.0,89.0
102,30.7412109375,31.265625,65.0,92.0
103,30.0380859375,31.296875,49.0,88.0
104,31.2099609375,31.33203125,56.0,87.0
105,31.4443359375,31.5458984375,56.0,88.0
106,31.4443359375,31.72265625,49.0,97.0
107,31.4443359375,31.7587890625,65.0,91.0
108,31.4443359375,31.7763671875,61.0,91.0
109,31.6787109375,31.8076171875,56.0,83.0
110,31.9130859375,32.15625,58.0,83.0
111,31.9130859375,32.1796875,65.0,89.0
112,31.9130859375,32.1845703125,61.0,83.0
113,32.3818359375,32.4853515625,58.0,76.0
114,32.6162109375,32.91015625,58.0,89.0
115,32.6162109375,32.9599609375,61.0,93.0
116,32.6162109375,32.9736328125,65.0,91.0
117,33.0849609375,33.1728515625,58.0,75.0
118,33.3193359375,33.4658203125,58.0,87.0
119,33.3193359375,33.6533203125,61.0,90.0
120,33.3193359375,33.677734375,65.0,89.0
121,33.5537109375,33.6953125,58.0,85.0
122,32.1474609375,33.7392578125,53.0,79.0
123,31.9130859375,33.759765625,46.0,89.0
124,33.7880859375,34.3330078125,63.0,89.0
125,33.7880859375,34.3408203125,66.0,89.0
126,34.2568359375,34.3759765625,58.0,80.0
127,34.4912109375,34.7802734375,58.0,90.0
128,34.4912109375,35.044921875,63.0,92.0
129,34.4912109375,35.0576171875,66.0,90.0
130,34.9599609375,35.08984375,58.0,80.0
131,34.0224609375,35.2138671875,54.0,73.0
132,33.7880859375,35.2236328125,51.0,89.0
133,35.1943359375,35.3505859375,58.0,83.0
134,35.1943359375,35.416015625,63.0,90.0
135,35.1943359375,35.4384765625,66.0,89.0
136,35.4287109375,35.49609375,58.0,72.0
137,35.6630859375,35.9033203125,56.0,91.0
138,35.6630859375,35.9296875,60.0,88.0
139,35.6630859375,35.9375,63.0,89.0
140,36.1318359375,36.2412109375,56.0,79.0
141,35.8974609375,36.2685546875,51.0,79.0
142,35.6630859375,36.2841796875,44.0,89.0
143,36.3662109375,36.697265625,56.0,89.0
144,36.3662109375,36.888671875,60.0,89.0
145,36.3662109375,36.9189453125,63.0,89.0
146,36.8349609375,36.9541015625,56.0,84.0
147,37.0693359375,37.2041015625,56.0,90.0
148,37.0693359375,37.259765625,60.0,95.0
149,36.3662109375,37.369140625,51.0,88.0
150,36.3662109375,37.3876953125,44.0,88.0
151,37.0693359375,37.4013671875,63.0,90.0
152,37.3037109375,37.408203125,56.0,84.0
153,37.5380859375,37.69140625,56.0,88.0
154,37.5380859375,37.8759765625,61.0,89.0
155,37.5380859375,38.0791015625,65.0,92.0
156,37.7724609375,38.1103515625,56.0,77.0
157,38.2412109375,38.486328125,56.0,91.0
158,38.2412109375,38.748046875,61.0,89.0
159,38.2412109375,38.765625,65.0,92.0
160,37.5380859375,38.796875,49.0,88.0
161,38.7099609375,38.83203125,56.0,87.0
162,38.9443359375,39.0458984375,56.0,88.0
163,38.9443359375,39.22265625,49.0,97.0
164,38.9443359375,39.2587890625,65.0,91.0
165,38.9443359375,39.2763671875,61.0,91.0
166,39.1787109375,39.3076171875,56.0,83.0
167,39.4130859375,39.65625,58.0,83.0
168,39.4130859375,39.6796875,65.0,89.0
169,39.4130859375,39.6845703125,61.0,83.0
170,39.8818359375,39.9853515625,58.0,76.0
171,40.1162109375,40.41015625,58.0,89.0
172,40.1162109375,40.4599609375,61.0,93.0
173,40.1162109375,40.4736328125,65.0,91.0
174,40.5849609375,40.6728515625,58.0,75.0
175,40.8193359375,40.9658203125,58.0,87.0
176,40.8193359375,41.1533203125,61.0,90.0
177,40.8193359375,41.177734375,65.0,89.0
178,41.0537109375,41.1953125,58.0,85.0
179,39.6474609375,41.2392578125,53.0,79.0
180,39.4130859375,41.259765625,46.0,89.0
181,41.2880859375,41.4912109375,58.0,84.0
182,41.2880859375,41.630859375,66.0,86.0
183,41.7568359375,41.88671875,58.0,84.0
184,41.9912109375,42.265625,58.0,89.0
185,41.9912109375,42.3310546875,63.0,94.0
186,41.9912109375,42.4873046875,66.0,92.0
187,41.5224609375,42.5419921875,46.0,77.0
188,42.4599609375,42.5693359375,58.0,81.0
189,41.2880859375,42.5810546875,39.0,90.0
190,42.6943359375,42.7783203125,58.0,88.0
191,42.6943359375,42.9326171875,63.0,92.0
192,42.6943359375,42.9501953125,66.0,89.0
193,42.9287109375,43.017578125,58.0,81.0
194,43.1630859375,43.423828125,56.0,85.0
195,43.1630859375,43.5234375,60.0,90.0
196,43.6318359375,43.73828125,56.0,89.0
197,43.8662109375,44.0029296875,60.0,91.0
198,43.8662109375,44.015625,56.0,91.0
199,43.8662109375,44.0322265625,63.0,89.0
200,44.3349609375,44.4921875,56.0,88.0
201,44.5693359375,44.6884765625,56.0,90.0
202,44.5693359375,44.728515625,60.0,90.0
203,44.5693359375,44.8681640625,63.0,89.0
204,43.3974609375,44.8720703125,51.0,79.0
205,44.8037109375,44.9189453125,56.0,87.0
206,43.1630859375,44.9306640625,44.0,89.0
207,45.0380859375,45.1787109375,65.0,91.0
208,45.0380859375,45.4951171875,56.0,89.0
209,45.0380859375,45.619140625,61.0,91.0
210,45.7412109375,46.0712890625,56.0,86.0
211,45.7412109375,46.267578125,61.0,88.0
212,46.2099609375,46.33203125,56.0,84.0
213,46.4443359375,46.5498046875,56.0,90.0
214,45.0380859375,46.61328125,49.0,90.0
215,45.5068359375,46.75390625,53.0,80.0
216,46.4443359375,46.759765625,65.0,94.0
217,46.4443359375,46.7734375,61.0,94.0
218,46.6787109375,46.7890625,56.0,86.0
219,46.9130859375,47.1875,58.0,84.0
220,46.9130859375,47.421875,61.0,89.0
221,47.3818359375,47.4853515625,58.0,79.0
222,47.6162109375,47.8251953125,58.0,89.0
223,47.6162109375,47.828125,65.0,91.0
224,47.6162109375,47.83984375,61.0,91.0
225,48.0849609375,48.185546875,58.0,77.0
226,48.3193359375,48.4306640625,58.0,88.0
227,48.3193359375,48.6162109375,61.0,88.0
228,48.3193359375,48.626953125,65.0,89.0
229,48.5537109375,48.6630859375,58.0,77.0
230,47.1474609375,48.7041015625,53.0,80.0
231,46.9130859375,48.7177734375,46.0,89.0
232,48.7880859375,49.3330078125,63.0,89.0
233,48.7880859375,49.3408203125,66.0,89.0
234,49.2568359375,49.3759765625,58.0,80.0
235,49.4912109375,49.7802734375,58.0,90.0
236,49.4912109375,50.044921875,63.0,92.0
237,49.4912109375,50.0576171875,66.0,90.0
238,49.9599609375,50.08984375,58.0,80.0
239,49.0224609375,50.2138671875,54.0,73.0
240,48.7880859375,50.2236328125,51.0,89.0
241,50.1943359375,50.3505859375,58.0,83.0
242,50.1943359375,50.416015625,63.0,90.0
243,50.1943359375,50.4384765625,66.0,89.0
244,50.4287109375,50.49609375,58.0,72.0
245,50.6630859375,50.9033203125,56.0,91.0
246,50.6630859375,50.9296875,60.0,88.0
247,50.6630859375,50.9375,63.0,89.0
248,51.1318359375,51.2412109375,56.0,79.0
249,50.8974609375,51.2685546875,51.0,79.0
250,50.6630859375,51.2841796875,44.0,89.0
251,51.3662109375,51.697265625,56.0,89.0
252,51.3662109375,51.888671875,60.0,89.0
253,51.3662109375,51.9189453125,63.0,89.0
254,51.8349609375,51.9541015625,56.0,84.0
255,52.0693359375,52.2041015625,56.0,90.0
256,52.0693359375,52.259765625,60.0,95.0
257,51.3662109375,52.369140625,51.0,88.0
258,51.3662109375,52.3876953125,44.0,88.0
259,52.0693359375,52.4013671875,63.0,90.0
260,52.3037109375,52.408203125,56.0,84.0
261,52.5380859375,52.69140625,56.0,88.0
262,52.5380859375,52.8759765625,61.0,89.0
263,52.5380859375,53.0791015625,65.0,92.0
264,52.7724609375,53.1103515625,56.0,77.0
265,53.2412109375,53.486328125,56.0,91.0
266,53.2412109375,53.748046875,61.0,89.0
267,53.2412109375,53.765625,65.0,92.0
268,52.5380859375,53.796875,49.0,88.0
269,53.7099609375,53.83203125,56.0,87.0
270,53.9443359375,54.0458984375,56.0,88.0
271,53.9443359375,54.22265625,49.0,97.0
272,53.9443359375,54.2587890625,65.0,91.0
273,53.9443359375,54.2763671875,61.0,91.0
274,54.1787109375,54.3076171875,56.0,83.0
275,54.4130859375,54.65625,58.0,83.0
276,54.4130859375,54.6796875,65.0,89.0
277,54.4130859375,54.6845703125,61.0,83.0
278,54.8818359375,54.9853515625,58.0,76.0
279,55.1162109375,55.41015625,58.0,89.0
280,55.1162109375,55.4599609375,61.0,93.0
281,55.1162109375,55.4736328125,65.0,91.0
282,55.5849609375,55.6728515625,58.0,75.0
283,55.8193359375,55.9658203125,58.0,87.0
284,55.8193359375,56.1533203125,61.0,90.0
285,55.8193359375,56.177734375,65.0,89.0
286,56.0537109375,56.1953125,58.0,85.0
287,54.6474609375,56.2392578125,53.0,79.0
288,54.4130859375,56.259765625,46.0,89.0
289,56.2880859375,56.8798828125,63.0,83.0
290,56.2880859375,56.8798828125,66.0,86.0
291,56.2880859375,56.8935546875,51.0,90.0
292,56.7568359375,57.0673828125,58.0,88.0
293,56.9912109375,57.5146484375,51.0,97.0
294,56.9912109375,57.5234375,63.0,89.0
295,56.9912109375,57.5244140625,66.0,89.0
296,57.4599609375,57.611328125,58.0,90.0
297,57.6943359375,57.8154296875,51.0,92.0
298,57.6943359375,57.9609375,63.0,89.0
299,57.6943359375,58.0,66.0,89.0
300,57.9287109375,58.0546875,58.0,88.0
301,58.1630859375,58.6826171875,60.0,82.0
302,58.1630859375,58.68359375,63.0,88.0
303,58.1630859375,58.7265625,44.0,89.0
304,58.6318359375,58.8154296875,56.0,85.0
305,58.8662109375,59.3779296875,60.0,87.0
306,58.8662109375,59.38671875,63.0,89.0
307,58.8662109375,59.3876953125,44.0,89.0
308,59.3349609375,59.5810546875,56.0,89.0
309,59.5693359375,59.8427734375,60.0,84.0
310,59.5693359375,59.8681640625,44.0,88.0
311,59.5693359375,59.8896484375,63.0,89.0
312,59.8037109375,60.08203125,56.0,89.0
313,60.0380859375,60.5556640625,61.0,85.0
314,60.0380859375,60.5595703125,65.0,89.0
315,60.0380859375,60.654296875,49.0,89.0
316,60.5068359375,60.833984375,56.0,84.0
317,60.7412109375,61.2880859375,65.0,93.0
318,60.7412109375,61.2998046875,61.0,90.0
319,60.7412109375,61.349609375,49.0,99.0
320,61.2099609375,61.50390625,56.0,90.0
321,61.4443359375,61.7783203125,65.0,90.0
322,61.4443359375,61.7900390625,61.0,89.0
323,61.4443359375,61.794921875,49.0,99.0
324,61.6787109375,61.830078125,56.0,88.0
325,61.9130859375,62.4609375,65.0,94.0
326,61.9130859375,62.46875,61.0,90.0
327,61.9130859375,62.5400390625,46.0,91.0
328,62.3818359375,62.611328125,58.0,82.0
329,62.6162109375,63.08203125,65.0,93.0
330,62.6162109375,63.1328125,61.0,89.0
331,62.6162109375,63.13671875,46.0,91.0
332,63.0849609375,63.357421875,58.0,83.0
333,63.3193359375,63.58984375,61.0,93.0
334,63.3193359375,63.6357421875,65.0,92.0
335,63.3193359375,63.67578125,46.0,90.0
336,63.5537109375,63.8388671875,58.0,88.0
337,63.7880859375,64.3115234375,66.0,88.0
338,63.7880859375,64.3232421875,63.0,90.0
339,63.7880859375,64.4013671875,51.0,92.0
340,64.2568359375,64.587890625,58.0,89.0
341,64.4912109375,65.0224609375,66.0,90.0
342,64.4912109375,65.0400390625,63.0,89.0
343,64.4912109375,65.044921875,51.0,104.0
344,64.9599609375,65.25,58.0,89.0
345,65.1943359375,65.4677734375,63.0,90.0
346,65.1943359375,65.4814453125,66.0,90.0
347,65.1943359375,65.4833984375,51.0,104.0
348,65.4287109375,65.5693359375,58.0,89.0
349,65.6630859375,66.080078125,60.0,88.0
350,65.6630859375,66.095703125,56.0,84.0
351,66.1318359375,66.32421875,51.0,84.0
352,65.6630859375,66.3505859375,44.0,90.0
353,66.3662109375,66.6396484375,56.0,90.0
354,66.3662109375,66.8564453125,60.0,91.0
355,66.3662109375,66.8681640625,51.0,95.0
356,66.3662109375,66.8916015625,44.0,91.0
357,66.3662109375,66.9033203125,63.0,91.0
358,66.8349609375,66.9873046875,56.0,88.0
359,67.0693359375,67.310546875,60.0,89.0
360,67.0693359375,67.3525390625,63.0,89.0
361,67.0693359375,67.392578125,44.0,89.0
362,67.3037109375,67.63671875,56.0,88.0
363,67.5380859375,68.0439453125,61.0,89.0
364,67.5380859375,68.048828125,65.0,93.0
365,67.5380859375,68.0947265625,49.0,99.0
366,68.0068359375,68.162109375,56.0,88.0
367,68.2412109375,68.806640625,61.0,91.0
368,68.2412109375,68.8193359375,65.0,93.0
369,68.2412109375,68.826171875,49.0,95.0
370,68.7099609375,68.9111328125,56.0,84.0
371,68.9443359375,69.2275390625,49.0,94.0
372,68.9443359375,69.2734375,61.0,93.0
373,69.1787109375,69.28515625,56.0,88.0
374,68.9443359375,69.3046875,65.0,93.0
375,69.4130859375,69.873046875,58.0,84.0
376,69.4130859375,69.90625,61.0,89.0
377,69.4130859375,69.91015625,65.0,93.0
378,69.8818359375,69.9951171875,53.0,79.0
379,69.4130859375,70.015625,46.0,91.0
380,70.1162109375,70.34375,58.0,90.0
381,70.1162109375,70.439453125,46.0,90.0
382,70.1162109375,70.4462890625,53.0,92.0
383,70.1162109375,70.4619140625,61.0,93.0
384,70.1162109375,70.638671875,65.0,86.0
385,70.5849609375,70.720703125,58.0,89.0
386,70.8193359375,70.9501953125,58.0,87.0
387,70.8193359375,71.171875,61.0,86.0
388,71.0537109375,71.2158203125,58.0,87.0
389,70.8193359375,71.22265625,53.0,88.0
390,70.8193359375,71.2353515625,46.0,89.0
391,71.2880859375,71.8798828125,63.0,83.0
392,71.2880859375,71.8798828125,66.0,86.0
393,71.2880859375,71.8935546875,51.0,90.0
394,71.7568359375,72.0673828125,58.0,88.0
395,71.9912109375,72.5146484375,51.0,97.0
396,71.9912109375,72.5234375,63.0,89.0
397,71.9912109375,72.5244140625,66.0,89.0
398,72.4599609375,72.611328125,58.0,90.0
399,72.6943359375,72.8154296875,51.0,92.0
400,72.6943359375,72.9609375,63.0,89.0
401,72.6943359375,73.0,66.0,89.0
402,72.9287109375,73.0546875,58.0,88.0
403,73.1630859375,73.6826171875,60.0,82.0
404,73.1630859375,73.68359375,63.0,88.0
405,73.1630859375,73.7265625,44.0,89.0
406,73.6318359375,73.8154296875,56.0,85.0
407,73.8662109375,74.3779296875,60.0,87.0
408,73.8662109375,74.38671875,63.0,89.0
409,73.8662109375,74.3876953125,44.0,89.0
410,74.3349609375,74.5810546875,56.0,89.0
411,74.5693359375,74.8427734375,60.0,84.0
412,74.5693359375,74.8681640625,44.0,88.0
413,74.5693359375,74.8896484375,63.0,89.0
414,74.8037109375,75.08203125,56.0,89.0
415,75.0380859375,75.5556640625,61.0,85.0
416,75.0380859375,75.5595703125,65.0,89.0
417,75.0380859375,75.654296875,49.0,89.0
418,75.5068359375,75.833984375,56.0,84.0
419,75.7412109375,76.2880859375,65.0,93.0
420,75.7412109375,76.2998046875,61.0,90.0
421,75.7412109375,76.349609375,49.0,99.0
422,76.2099609375,76.50390625,56.0,90.0
423,76.4443359375,76.7783203125,65.0,90.0
424,76.4443359375,76.7900390625,61.0,89.0
425,76.4443359375,76.794921875,49.0,99.0
426,76.6787109375,76.830078125,56.0,88.0
427,76.9130859375,77.4609375,65.0,94.0
428,76.9130859375,77.46875,61.0,90.0
429,76.9130859375,77.5400390625,46.0,91.0
430,77.3818359375,77.611328125,58.0,82.0
431,77.6162109375,78.08203125,65.0,93.0
432,77.6162109375,78.1328125,61.0,89.0
433,77.6162109375,78.13671875,46.0,91.0
434,78.0849609375,78.357421875,58.0,83.0
435,78.3193359375,78.58984375,61.0,93.0
436,78.3193359375,78.6357421875,65.0,92.0
437,78.3193359375,78.67578125,46.0,90.0
438,78.5537109375,78.8388671875,58.0,88.0
439,78.7880859375,79.3115234375,66.0,88.0
440,78.7880859375,79.3232421875,63.0,90.0
441,78.7880859375,79.4013671875,51.0,92.0
442,79.2568359375,79.587890625,58.0,89.0
443,79.4912109375,80.0224609375,66.0,90.0
444,79.4912109375,80.0400390625,63.0,89.0
445,79.4912109375,80.044921875,51.0,104.0
446,79.9599609375,80.25,58.0,89.0
447,80.1943359375,80.4677734375,63.0,90.0
448,80.1943359375,80.4814453125,66.0,90.0
449,80.1943359375,80.4833984375,51.0,104.0
450,80.4287109375,80.5693359375,58.0,89.0
451,80.6630859375,81.080078125,60.0,88.0
452,80.6630859375,81.095703125,56.0,84.0
453,81.1318359375,81.32421875,51.0,84.0
454,80.6630859375,81.3505859375,44.0,90.0
455,81.3662109375,81.6396484375,56.0,90.0
456,81.3662109375,81.8564453125,60.0,91.0
457,81.3662109375,81.8681640625,51.0,95.0
458,81.3662109375,81.8916015625,44.0,91.0
459,81.3662109375,81.9033203125,63.0,91.0
460,81.8349609375,81.9873046875,56.0,88.0
461,82.0693359375,82.310546875,60.0,89.0
462,82.0693359375,82.3525390625,63.0,89.0
463,82.0693359375,82.392578125,44.0,89.0
464,82.3037109375,82.63671875,56.0,88.0
465,82.5380859375,83.0439453125,61.0,89.0
466,82.5380859375,83.048828125,65.0,93.0
467,82.5380859375,83.0947265625,49.0,99.0
468,83.0068359375,83.162109375,56.0,88.0
469,83.2412109375,83.806640625,61.0,91.0
470,83.2412109375,83.8193359375,65.0,93.0
471,83.2412109375,83.826171875,49.0,95.0
472,83.7099609375,83.9111328125,56.0,84.0
473,83.9443359375,84.2275390625,49.0,94.0
474,83.9443359375,84.2734375,61.0,93.0
475,84.1787109375,84.28515625,56.0,88.0
476,83.9443359375,84.3046875,65.0,93.0
477,84.4130859375,84.873046875,58.0,84.0
478,84.4130859375,84.90625,61.0,89.0
479,84.4130859375,84.91015625,65.0,93.0
480,84.8818359375,84.9951171875,53.0,79.0
481,84.4130859375,85.015625,46.0,91.0
482,85.1162109375,85.34375,58.0,90.0
483,85.1162109375,85.439453125,46.0,90.0
484,85.1162109375,85.4462890625,53.0,92.0
485,85.1162109375,85.4619140625,61.0,93.0
486,85.1162109375,85.638671875,65.0,86.0
487,85.5849609375,85.720703125,58.0,89.0
488,85.8193359375,85.9501953125,58.0,87.0
489,85.8193359375,86.171875,61.0,86.0
490,86.0537109375,86.2158203125,58.0,87.0
491,85.8193359375,86.22265625,53.0,88.0
492,85.8193359375,86.2353515625,46.0,89.0
493,86.2880859375,86.4912109375,58.0,84.0
494,86.2880859375,86.630859375,66.0,86.0
495,86.7568359375,86.88671875,58.0,84.0
496,86.9912109375,87.265625,58.0,89.0
497,86.9912109375,87.3310546875,63.0,94.0
498,86.9912109375,87.4873046875,66.0,92.0
499,86.5224609375,87.5419921875,46.0,77.0
500,87.4599609375,87.5693359375,58.0,81.0
501,86.2880859375,87.5810546875,39.0,90.0
502,87.6943359375,87.7783203125,58.0,88.0
503,87.6943359375,87.9326171875,63.0,92.0
504,87.6943359375,87.9501953125,66.0,89.0
505,87.9287109375,88.017578125,58.0,81.0
506,88.1630859375,88.423828125,56.0,85.0
507,88.1630859375,88.5234375,60.0,90.0
508,88.6318359375,88.73828125,56.0,89.0
509,88.8662109375,89.0029296875,60.0,91.0
510,88.8662109375,89.015625,56.0,91.0
511,88.8662109375,89.0322265625,63.0,89.0
512,89.3349609375,89.4921875,56.0,88.0
513,89.5693359375,89.6884765625,56.0,90.0
514,89.5693359375,89.728515625,60.0,90.0
515,89.5693359375,89.8681640625,63.0,89.0
516,88.3974609375,89.8720703125,51.0,79.0
517,89.8037109375,89.9189453125,56.0,87.0
518,88.1630859375,89.9306640625,44.0,89.0
519,90.0380859375,90.1787109375,65.0,91.0
520,90.0380859375,90.4951171875,56.0,89.0
521,90.0380859375,90.619140625,61.0,91.0
522,90.7412109375,91.0712890625,56.0,86.0
523,90.7412109375,91.267578125,61.0,88.0
524,91.2099609375,91.33203125,56.0,84.0
525,91.4443359375,91.5498046875,56.0,90.0
526,90.0380859375,91.61328125,49.0,90.0
527,90.5068359375,91.75390625,53.0,80.0
528,91.4443359375,91.759765625,65.0,94.0
529,91.4443359375,91.7734375,61.0,94.0
530,91.6787109375,91.7890625,56.0,86.0
531,91.9130859375,92.1875,58.0,84.0
532,91.9130859375,92.421875,61.0,89.0
533,92.3818359375,92.4853515625,58.0,79.0
534,92.6162109375,92.8251953125,58.0,89.0
535,92.6162109375,92.828125,65.0,91.0
536,92.6162109375,92.83984375,61.0,91.0
537,93.0849609375,93.185546875,58.0,77.0
538,93.3193359375,93.4306640625,58.0,88.0
539,93.3193359375,93.6162109375,61.0,88.0
540,93.3193359375,93.626953125,65.0,89.0
541,93.5537109375,93.6630859375,58.0,77.0
542,92.1474609375,93.7041015625,53.0,80.0
543,91.9130859375,93.7177734375,46.0,89.0
544,93.7880859375,94.3330078125,63.0,89.0
545,93.7880859375,94.3408203125,66.0,89.0
546,94.2568359375,94.3759765625,58.0,80.0
547,94.4912109375,94.7802734375,58.0,90.0
548,94.4912109375,95.044921875,63.0,92.0
549,94.4912109375,95.0576171875,66.0,90.0
550,94.9599609375,95.08984375,58.0,80.0
551,94.0224609375,95.2138671875,54.0,73.0
552,93.7880859375,95.2236328125,51.0,89.0
553,95.1943359375,95.3505859375,58.0,83.0
554,95.1943359375,95.416015625,63.0,90.0
555,95.1943359375,95.4384765625,66.0,89.0
556,95.4287109375,95.49609375,58.0,72.0
557,95.6630859375,95.9033203125,56.0,91.0
558,95.6630859375,95.9296875,60.0,88.0
559,95.6630859375,95.9375,63.0,89.0
560,96.1318359375,96.2412109375,56.0,79.0
561,95.8974609375,96.2685546875,51.0,79.0
562,95.6630859375,96.2841796875,44.0,89.0
563,96.3662109375,96.697265625,56.0,89.0
564,96.3662109375,96.888671875,60.0,89.0
565,96.3662109375,96.9189453125,63.0,89.0
566,96.8349609375,96.9541015625,56.0,84.0
567,97.0693359375,97.2041015625,56.0,90.0
568,97.0693359375,97.259765625,60.0,95.0
569,96.3662109375,97.369140625,51.0,88.0
570,96.3662109375,97.3876953125,44.0,88.0
571,97.0693359375,97.4013671875,63.0,90.0
572,97.3037109375,97.408203125,56.0,84.0
573,97.5380859375,97.69140625,56.0,88.0
574,97.5380859375,97.8759765625,61.0,89.0
575,97.5380859375,98.0791015625,65.0,92.0
576,97.7724609375,98.1103515625,56.0,77.0
577,98.2412109375,98.486328125,56.0,91.0
578,98.2412109375,98.748046875,61.0,89.0
579,98.2412109375,98.765625,65.0,92.0
580,97.5380859375,98.796875,49.0,88.0
581,98.7099609375,98.83203125,56.0,87.0
582,98.9443359375,99.0458984375,56.0,88.0
583,98.9443359375,99.22265625,49.0,97.0
584,98.9443359375,99.2587890625,65.0,91.0
585,98.9443359375,99.2763671875,61.0,91.0
586,99.1787109375,99.3076171875,56.0,83.0
587,99.4130859375,99.65625,58.0,83.0
588,99.4130859375,99.6796875,65.0,89.0
589,99.4130859375,99.6845703125,61.0,83.0
590,99.8818359375,99.9853515625,58.0,76.0
591,100.1162109375,100.41015625,58.0,89.0
592,100.1162109375,100.4599609375,61.0,93.0
593,100.1162109375,100.4736328125,65.0,91.0
594,100.5849609375,100.6728515625,58.0,75.0
595,100.8193359375,100.9658203125,58.0,87.0
596,100.8193359375,101.1533203125,61.0,90.0
597,100.8193359375,101.177734375,65.0,89.0
598,101.0537109375,101.1953125,58.0,85.0
599,99.6474609375,101.2392578125,53.0,79.0
600,99.4130859375,101.259765625,46.0,89.0
601,101.2880859375,101.8798828125,63.0,83.0
602,101.2880859375,101.8798828125,66.0,86.0
603,101.2880859375,101.8935546875,51.0,90.0
604,101.7568359375,102.0673828125,58.0,88.0
605,101.9912109375,102.5146484375,51.0,97.0
606,101.9912109375,102.5234375,63.0,89.0
607,101.9912109375,102.5244140625,66.0,89.0
608,102.4599609375,102.611328125,58.0,90.0
609,102.6943359375,102.8154296875,51.0,92.0
610,102.6943359375,102.9609375,63.0,89.0
611,102.6943359375,103.0,66.0,89.0
612,102.9287109375,103.0546875,58.0,88.0
613,103.1630859375,103.6826171875,60.0,82.0
614,103.1630859375,103.68359375,63.0,88.0
615,103.1630859375,103.7265625,44.0,89.0
616,103.6318359375,103.8154296875,56.0,85.0
617,103.8662109375,104.3779296875,60.0,87.0
618,103.8662109375,104.38671875,63.0,89.0
619,103.8662109375,104.3876953125,44.0,89.0
620,104.3349609375,104.5810546875,56.0,89.0
621,104.5693359375,104.8427734375,60.0,84.0
622,104.5693359375,104.8681640625,44.0,88.0
623,104.5693359375,104.8896484375,63.0,89.0
624,104.8037109375,105.08203125,56.0,89.0
625,105.0380859375,105.5556640625,61.0,85.0
626,105.0380859375,105.5595703125,65.0,89.0
627,105.0380859375,105.654296875,49.0,89.0
628,105.5068359375,105.833984375,56.0,84.0
629,105.7412109375,106.2880859375,65.0,93.0
630,105.7412109375,106.2998046875,61.0,90.0
631,105.7412109375,106.349609375,49.0,99.0
632,106.2099609375,106.50390625,56.0,90.0
633,106.4443359375,106.7783203125,65.0,90.0
634,106.4443359375,106.7900390625,61.0,89.0
635,106.4443359375,106.794921875,49.0,99.0
636,106.6787109375,106.830078125,56.0,88.0
637,106.9130859375,107.4609375,65.0,94.0
638,106.9130859375,107.46875,61.0,90.0
639,106.9130859375,107.5400390625,46.0,91.0
640,107.3818359375,107.611328125,58.0,82.0
641,107.6162109375,108.08203125,65.0,93.0
642,107.6162109375,108.1328125,61.0,89.0
643,107.6162109375,108.13671875,46.0,91.0
644,108.0849609375,108.357421875,58.0,83.0
645,108.3193359375,108.58984375,61.0,93.0
646,108.3193359375,108.6357421875,65.0,92.0
647,108.3193359375,108.67578125,46.0,90.0
648,108.5537109375,108.8388671875,58.0,88.0
649,108.7880859375,109.3115234375,66.0,88.0
650,108.7880859375,109.3232421875,63.0,90.0
651,108.7880859375,109.4013671875,51.0,92.0
652,109.2568359375,109.587890625,58.0,89.0
653,109.4912109375,110.0224609375,66.0,90.0
654,109.4912109375,110.0400390625,63.0,89.0
655,109.4912109375,110.044921875,51.0,104.0
656,109.9599609375,110.25,58.0,89.0
657,110.1943359375,110.4677734375,63.0,90.0
658,110.1943359375,110.4814453125,66.0,90.0
659,110.1943359375,110.4833984375,51.0,104.0
660,110.4287109375,110.5693359375,58.0,89.0
661,110.6630859375,111.080078125,60.0,88.0
662,110.6630859375,111.095703125,56.0,84.0
663,111.1318359375,111.32421875,51.0,84.0
664,110.6630859375,111.3505859375,44.0,90.0
665,111.3662109375,111.6396484375,56.0,90.0
666,111.3662109375,111.8564453125,60.0,91.0
667,111.3662109375,111.8681640625,51.0,95.0
668,111.3662109375,111.8916015625,44.0,91.0
669,111.3662109375,111.9033203125,63.0,91.0
670,111.8349609375,111.9873046875,56.0,88.0
671,112.0693359375,112.310546875,60.0,89.0
672,112.0693359375,112.3525390625,63.0,89.0
673,112.0693359375,112.392578125,44.0,89.0
674,112.3037109375,112.63671875,56.0,88.0
675,112.5380859375,113.0439453125,61.0,89.0
676,112.5380859375,113.048828125,65.0,93.0
677,112.5380859375,113.0947265625,49.0,99.0
678,113.0068359375,113.162109375,56.0,88.0
679,113.2412109375,113.806640625,61.0,91.0
680,113.2412109375,113.8193359375,65.0,93.0
681,113.2412109375,113.826171875,49.0,95.0
682,113.7099609375,113.9111328125,56.0,84.0
683,113.9443359375,114.2275390625,49.0,94.0
684,113.9443359375,114.2734375,61.0,93.0
685,114.1787109375,114.28515625,56.0,88.0
686,113.9443359375,114.3046875,65.0,93.0
687,114.4130859375,114.873046875,58.0,84.0
688,114.4130859375,114.90625,61.0,89.0
689,114.4130859375,114.91015625,65.0,93.0
690,114.8818359375,114.9951171875,53.0,79.0
691,114.4130859375,115.015625,46.0,91.0
692,115.1162109375,115.34375,58.0,90.0
693,115.1162109375,115.439453125,46.0,90.0
694,115.1162109375,115.4462890625,53.0,92.0
695,115.1162109375,115.4619140625,61.0,93.0
696,115.1162109375,115.638671875,65.0,86.0
697,115.5849609375,115.720703125,58.0,89.0
698,115.8193359375,115.9501953125,58.0,87.0
699,115.8193359375,116.171875,61.0,86.0
700,116.0537109375,116.2158203125,58.0,87.0
701,115.8193359375,116.22265625,53.0,88.0
702,115.8193359375,116.2353515625,46.0,89.0
703,116.2880859375,116.8798828125,63.0,83.0
704,116.2880859375,116.8798828125,66.0,86.0
705,116.2880859375,116.8935546875,51.0,90.0
706,116.7568359375,117.0673828125,58.0,88.0
707,116.9912109375,117.5146484375,51.0,97.0
708,116.9912109375,117.5234375,63.0,89.0
709,116.9912109375,117.5244140625,66.0,89.0
710,117.4599609375,117.611328125,58.0,90.0
711,117.6943359375,117.8154296875,51.0,92.0
712,117.6943359375,117.9609375,63.0,89.0
713,117.6943359375,118.0,66.0,89.0
714,117.9287109375,118.0546875,58.0,88.0
715,118.1630859375,118.6826171875,60.0,82.0
716,118.1630859375,118.68359375,63.0,88.0
717,118.1630859375,118.7265625,44.0,89.0
718,118.6318359375,118.8154296875,56.0,85.0
719,118.8662109375,119.3779296875,60.0,87.0
720,118.8662109375,119.38671875,63.0,89.0
721,118.8662109375,119.3876953125,44.0,89.0
722,119.3349609375,119.5810546875,56.0,89.0
723,119.5693359375,119.8427734375,60.0,84.0
724,119.5693359375,119.8681640625,44.0,88.0
725,119.5693359375,119.8896484375,63.0,89.0
726,119.8037109375,120.08203125,56.0,89.0
727,120.0380859375,120.5556640625,61.0,85.0
728,120.0380859375,120.5595703125,65.0,89.0
729,120.0380859375,120.654296875,49.0,89.0
730,120.5068359375,120.833984375,56.0,84.0
731,120.7412109375,121.2880859375,65.0,93.0
732,120.7412109375,121.2998046875,61.0,90.0
733,120.7412109375,121.349609375,49.0,99.0
734,121.2099609375,121.50390625,56.0,90.0
735,121.4443359375,121.7783203125,65.0,90.0
736,121.4443359375,121.7900390625,61.0,89.0
737,121.4443359375,121.794921875,49.0,99.0
738,121.6787109375,121.830078125,56.0,88.0
739,121.9130859375,122.4609375,65.0,94.0
740,121.9130859375,122.46875,61.0,90.0
741,121.9130859375,122.5400390625,46.0,91.0
742,122.3818359375,122.611328125,58.0,82.0
743,122.6162109375,123.08203125,65.0,93.0
744,122.6162109375,123.1328125,61.0,89.0
745,122.6162109375,123.13671875,46.0,91.0
746,123.0849609375,123.357421875,58.0,83.0
747,123.3193359375,123.58984375,61.0,93.0
748,123.3193359375,123.6357421875,65.0,92.0
749,123.3193359375,123.67578125,46.0,90.0
750,123.5537109375,123.8388671875,58.0,88.0
751,123.7880859375,124.3115234375,66.0,88.0
752,123.7880859375,124.3232421875,63.0,90.0
753,123.7880859375,124.4013671875,51.0,92.0
754,124.2568359375,124.587890625,58.0,89.0
755,124.4912109375,125.0224609375,66.0,90.0
756,124.4912109375,125.0400390625,63.0,89.0
757,124.4912109375,125.044921875,51.0,104.0
758,124.9599609375,125.25,58.0,89.0
759,125.1943359375,125.4677734375,63.0,90.0
760,125.1943359375,125.4814453125,66.0,90.0
761,125.1943359375,125.4833984375,51.0,104.0
762,125.4287109375,125.5693359375,58.0,89.0
763,125.6630859375,126.080078125,60.0,88.0
764,125.6630859375,126.095703125,56.0,84.0
765,126.1318359375,126.32421875,51.0,84.0
766,125.6630859375,126.3505859375,44.0,90.0
767,126.3662109375,126.6396484375,56.0,90.0
768,126.3662109375,126.8564453125,60.0,91.0
769,126.3662109375,126.8681640625,51.0,95.0
770,126.3662109375,126.8916015625,44.0,91.0
771,126.3662109375,126.9033203125,63.0,91.0
772,126.8349609375,126.9873046875,56.0,88.0
773,127.0693359375,127.310546875,60.0,89.0
774,127.0693359375,127.3525390625,63.0,89.0
775,127.0693359375,127.392578125,44.0,89.0
776,127.3037109375,127.63671875,56.0,88.0
777,127.5380859375,128.0439453125,61.0,89.0
778,127.5380859375,128.048828125,65.0,93.0
779,127.5380859375,128.0947265625,49.0,99.0
780,128.0068359375,128.162109375,56.0,88.0
781,128.2412109375,128.806640625,61.0,91.0
782,128.2412109375,128.8193359375,65.0,93.0
783,128.2412109375,128.826171875,49.0,95.0
784,128.7099609375,128.9111328125,56.0,84.0
785,128.9443359375,129.2275390625,49.0,94.0
786,128.9443359375,129.2734375,61.0,93.0
787,129.1787109375,129.28515625,56.0,88.0
788,128.9443359375,129.3046875,65.0,93.0
789,129.4130859375,129.873046875,58.0,84.0
790,129.4130859375,129.90625,61.0,89.0
791,129.4130859375,129.91015625,65.0,93.0
792,129.8818359375,129.9951171875,53.0,79.0
793,129.4130859375,130.015625,46.0,91.0
794,130.1162109375,130.34375,58.0,90.0
795,130.1162109375,130.439453125,46.0,90.0
796,130.1162109375,130.4462890625,53.0,92.0
797,130.1162109375,130.4619140625,61.0,93.0
798,130.1162109375,130.638671875,65.0,86.0
799,130.5849609375,130.720703125,58.0,89.0
800,130.8193359375,130.9501953125,58.0,87.0
801,130.8193359375,131.171875,61.0,86.0
802,131.0537109375,131.2158203125,58.0,87.0
803,130.8193359375,131.22265625,53.0,88.0
804,130.8193359375,131.2353515625,46.0,89.0
805,131.2880859375,131.4912109375,58.0,84.0
806,131.2880859375,131.630859375,66.0,86.0
807,131.7568359375,131.88671875,58.0,84.0
808,131.9912109375,132.265625,58.0,89.0
809,131.9912109375,132.3310546875,63.0,94.0
810,131.9912109375,132.4873046875,66.0,92.0
811,131.5224609375,132.5419921875,46.0,77.0
812,132.4599609375,132.5693359375,58.0,81.0
813,131.2880859375,132.5810546875,39.0,90.0
814,132.6943359375,132.7783203125,58.0,88.0
815,132.6943359375,132.9326171875,63.0,92.0
816,132.6943359375,132.9501953125,66.0,89.0
817,132.9287109375,133.017578125,58.0,81.0
818,133.1630859375,133.423828125,56.0,85.0
819,133.1630859375,133.5234375,60.0,90.0
820,133.6318359375,133.73828125,56.0,89.0
821,133.8662109375,134.0029296875,60.0,91.0
822,133.8662109375,134.015625,56.0,91.0
823,133.8662109375,134.0322265625,63.0,89.0
824,134.3349609375,134.4921875,56.0,88.0
825,134.5693359375,134.6884765625,56.0,90.0
826,134.5693359375,134.728515625,60.0,90.0
827,134.5693359375,134.8681640625,63.0,89.0
828,133.3974609375,134.8720703125,51.0,79.0
829,134.8037109375,134.9189453125,56.0,87.0
830,133.1630859375,134.9306640625,44.0,89.0
831,135.0380859375,135.1787109375,65.0,91.0
832,135.0380859375,135.4951171875,56.0,89.0
833,135.0380859375,135.619140625,61.0,91.0
834,135.7412109375,136.0712890625,56.0,86.0
835,135.7412109375,136.267578125,61.0,88.0
836,136.2099609375,136.33203125,56.0,84.0
837,136.4443359375,136.5498046875,56.0,90.0
838,135.0380859375,136.61328125,49.0,90.0
839,135.5068359375,136.75390625,53.0,80.0
840,136.4443359375,136.759765625,65.0,94.0
841,136.4443359375,136.7734375,61.0,94.0
842,136.6787109375,136.7890625,56.0,86.0
843,136.9130859375,137.1875,58.0,84.0
844,136.9130859375,137.421875,61.0,89.0
845,137.3818359375,137.4853515625,58.0,79.0
846,137.6162109375,137.8251953125,58.0,89.0
847,137.6162109375,137.828125,65.0,91.0
848,137.6162109375,137.83984375,61.0,91.0
849,138.0849609375,138.185546875,58.0,77.0
850,138.3193359375,138.4306640625,58.0,88.0
851,138.3193359375,138.6162109375,61.0,88.0
852,138.3193359375,138.626953125,65.0,89.0
853,138.5537109375,138.6630859375,58.0,77.0
854,137.1474609375,138.7041015625,53.0,80.0
855,136.9130859375,138.7177734375,46.0,89.0
856,138.7880859375,138.9912109375,58.0,84.0
857,138.7880859375,139.130859375,66.0,86.0
858,139.2568359375,139.38671875,58.0,84.0
859,139.4912109375,139.765625,58.0,89.0
860,139.4912109375,139.8310546875,63.0,94.0
861,139.4912109375,139.9873046875,66.0,92.0
862,139.0224609375,140.0419921875,46.0,77.0
863,139.9599609375,140.0693359375,58.0,81.0
864,138.7880859375,140.0810546875,39.0,90.0
865,140.1943359375,140.2783203125,58.0,88.0
866,140.1943359375,140.4326171875,63.0,92.0
867,140.1943359375,140.4501953125,66.0,89.0
868,140.4287109375,140.517578125,58.0,81.0
869,140.6630859375,140.923828125,56.0,85.0
870,140.6630859375,141.0234375,60.0,90.0
871,141.1318359375,141.23828125,56.0,89.0
872,141.3662109375,141.5029296875,60.0,91.0
873,141.3662109375,141.515625,56.0,91.0
874,141.3662109375,141.5322265625,63.0,89.0
875,141.8349609375,141.9921875,56.0,88.0
876,142.0693359375,142.1884765625,56.0,90.0
877,142.0693359375,142.228515625,60.0,90.0
878,142.0693359375,142.3681640625,63.0,89.0
879,140.8974609375,142.3720703125,51.0,79.0
880,142.3037109375,142.4189453125,56.0,87.0
881,140.6630859375,142.4306640625,44.0,89.0
882,142.5380859375,142.6787109375,65.0,91.0
883,142.5380859375,142.9951171875,56.0,89.0
884,142.5380859375,143.119140625,61.0,91.0
885,143.2412109375,143.5712890625,56.0,86.0
886,143.2412109375,143.767578125,61.0,88.0
887,143.7099609375,143.83203125,56.0,84.0
888,143.9443359375,144.0498046875,56.0,90.0
889,142.5380859375,144.11328125,49.0,90.0
890,143.0068359375,144.25390625,53.0,80.0
891,143.9443359375,144.259765625,65.0,94.0
892,143.9443359375,144.2734375,61.0,94.0
893,144.1787109375,144.2890625,56.0,86.0
894,144.4130859375,144.6875,58.0,84.0
895,144.4130859375,144.921875,61.0,89.0
896,144.8818359375,144.9853515625,58.0,79.0
897,145.1162109375,145.3251953125,58.0,89.0
898,145.1162109375,145.328125,65.0,91.0
899,145.1162109375,145.33984375,61.0,91.0
900,145.5849609375,145.685546875,58.0,77.0
901,145.8193359375,145.9306640625,58.0,88.0
902,145.8193359375,146.1162109375,61.0,88.0
903,145.8193359375,146.126953125,65.0,89.0
904,146.0537109375,146.1630859375,58.0,77.0
905,144.6474609375,146.2041015625,53.0,80.0
906,144.4130859375,146.2177734375,46.0,89.0
907,146.2880859375,146.4912109375,58.0,84.0
908,146.2880859375,146.630859375,66.0,86.0
909,146.7568359375,146.88671875,58.0,84.0
910,146.9912109375,147.265625,58.0,89.0
911,146.9912109375,147.3310546875,63.0,94.0
912,146.9912109375,147.4873046875,66.0,92.0
913,146.5224609375,147.5419921875,46.0,77.0
914,147.4599609375,147.5693359375,58.0,81.0
915,146.2880859375,147.5810546875,39.0,90.0
916,147.6943359375,147.7783203125,58.0,88.0
917,147.6943359375,147.9326171875,63.0,92.0
918,147.6943359375,147.9501953125,66.0,89.0
919,147.9287109375,148.017578125,58.0,81.0
920,148.1630859375,148.423828125,56.0,85.0
921,148.1630859375,148.5234375,60.0,90.0
922,148.6318359375,148.73828125,56.0,89.0
923,148.8662109375,149.0029296875,60.0,91.0
924,148.8662109375,149.015625,56.0,91.0
925,148.8662109375,149.0322265625,63.0,89.0
926,149.3349609375,149.4921875,56.0,88.0
927,149.5693359375,149.6884765625,56.0,90.0
928,149.5693359375,149.728515625,60.0,90.0
929,149.5693359375,149.8681640625,63.0,89.0
930,148.3974609375,149.8720703125,51.0,79.0
931,149.8037109375,149.9189453125,56.0,87.0
932,148.1630859375,149.9306640625,44.0,89.0
933,150.0380859375,150.1787109375,65.0,91.0
934,150.0380859375,150.4951171875,56.0,89.0
935,150.0380859375,150.619140625,61.0,91.0
936,150.7412109375,151.0712890625,56.0,86.0
937,150.7412109375,151.267578125,61.0,88.0
938,151.2099609375,151.33203125,56.0,84.0
939,151.4443359375,151.5498046875,56.0,90.0
940,150.0380859375,151.61328125,49.0,90.0
941,150.5068359375,151.75390625,53.0,80.0
942,151.4443359375,151.759765625,65.0,94.0
943,151.4443359375,151.7734375,61.0,94.0
944,151.6787109375,151.7890625,56.0,86.0
945,151.9130859375,152.1875,58.0,84.0
946,151.9130859375,152.421875,61.0,89.0
947,152.3818359375,152.4853515625,58.0,79.0
948,152.6162109375,152.8251953125,58.0,89.0
949,152.6162109375,152.828125,65.0,91.0
950,152.6162109375,152.83984375,61.0,91.0
951,153.0849609375,153.185546875,58.0,77.0
952,153.3193359375,153.4306640625,58.0,88.0
953,153.3193359375,153.6162109375,61.0,88.0
954,153.3193359375,153.626953125,65.0,89.0
955,153.5537109375,153.6630859375,58.0,77.0
956,152.1474609375,153.7041015625,53.0,80.0
957,151.9130859375,153.7177734375,46.0,89.0
958,153.7880859375,154.3330078125,63.0,89.0
959,153.7880859375,154.3408203125,66.0,89.0
960,154.2568359375,154.3759765625,58.0,80.0
961,154.4912109375,154.7802734375,58.0,90.0
962,154.4912109375,155.044921875,63.0,92.0
963,154.4912109375,155.0576171875,66.0,90.0
964,154.9599609375,155.08984375,58.0,80.0
965,154.0224609375,155.2138671875,54.0,73.0
966,153.7880859375,155.2236328125,51.0,89.0
967,155.1943359375,155.3505859375,58.0,83.0
968,155.1943359375,155.416015625,63.0,90.0
969,155.1943359375,155.4384765625,66.0,89.0
970,155.4287109375,155.49609375,58.0,72.0
971,155.6630859375,155.9033203125,56.0,91.0
972,155.6630859375,155.9296875,60.0,88.0
973,155.6630859375,155.9375,63.0,89.0
974,156.1318359375,156.2412109375,56.0,79.0
975,155.8974609375,156.2685546875,51.0,79.0
976,155.6630859375,156.2841796875,44.0,89.0
977,156.3662109375,156.697265625,56.0,89.0
978,156.3662109375,156.888671875,60.0,89.0
979,156.3662109375,156.9189453125,63.0,89.0
980,156.8349609375,156.9541015625,56.0,84.0
981,157.0693359375,157.2041015625,56.0,90.0
982,157.0693359375,157.259765625,60.0,95.0
983,156.3662109375,157.369140625,51.0,88.0
984,156.3662109375,157.3876953125,44.0,88.0
985,157.0693359375,157.4013671875,63.0,90.0
986,157.3037109375,157.408203125,56.0,84.0
987,157.5380859375,157.69140625,56.0,88.0
988,157.5380859375,157.8759765625,61.0,89.0
989,157.5380859375,158.0791015625,65.0,92.0
990,157.7724609375,158.1103515625,56.0,77.0
991,158.2412109375,158.486328125,56.0,91.0
992,158.2412109375,158.748046875,61.0,89.0
993,158.2412109375,158.765625,65.0,92.0
994,157.5380859375,158.796875,49.0,88.0
995,158.7099609375,158.83203125,56.0,87.0
996,158.9443359375,159.0458984375,56.0,88.0
997,158.9443359375,159.22265625,49.0,97.0
998,158.9443359375,159.2587890625,65.0,91.0
999,158.9443359375,159.2763671875,61.0,91.0
1000,159.1787109375,159.3076171875,56.0,83.0
1001,159.4130859375,159.65625,58.0,83.0
1002,159.4130859375,159.6796875,65.0,89.0
1003,159.4130859375,159.6845703125,61.0,83.0
1004,159.8818359375,159.9853515625,58.0,76.0
1005,160.1162109375,160.41015625,58.0,89.0
1006,160.1162109375,160.4599609375,61.0,93.0
1007,160.1162109375,160.4736328125,65.0,91.0
1008,160.5849609375,160.6728515625,58.0,75.0
1009,160.8193359375,160.9658203125,58.0,87.0
1010,160.8193359375,161.1533203125,61.0,90.0
1011,160.8193359375,161.177734375,65.0,89.0
1012,161.0537109375,161.1953125,58.0,85.0
1013,159.6474609375,161.2392578125,53.0,79.0
1014,159.4130859375,161.259765625,46.0,89.0
1015,161.2880859375,161.8798828125,63.0,83.0
1016,161.2880859375,161.8798828125,66.0,86.0
1017,161.2880859375,161.8935546875,51.0,90.0
1018,161.7568359375,162.0673828125,58.0,88.0
1019,161.9912109375,162.5146484375,51.0,97.0
1020,161.9912109375,162.5234375,63.0,89.0
1021,161.9912109375,162.5244140625,66.0,89.0
1022,162.4599609375,162.611328125,58.0,90.0
1023,162.6943359375,162.8154296875,51.0,92.0
1024,162.6943359375,162.9609375,63.0,89.0
1025,162.6943359375,163.0,66.0,89.0
1026,162.9287109375,163.0546875,58.0,88.0
1027,163.1630859375,163.6826171875,60.0,82.0
1028,163.1630859375,163.68359375,63.0,88.0
1029,163.1630859375,163.7265625,44.0,89.0
1030,163.6318359375,163.8154296875,56.0,85.0
1031,163.8662109375,164.3779296875,60.0,87.0
1032,163.8662109375,164.38671875,63.0,89.0
1033,163.8662109375,164.3876953125,44.0,89.0
1034,164.3349609375,164.5810546875,56.0,89.0
1035,164.5693359375,164.8427734375,60.0,84.0
1036,164.5693359375,164.8681640625,44.0,88.0
1037,164.5693359375,164.8896484375,63.0,89.0
1038,164.8037109375,165.08203125,56.0,89.0
1039,165.0380859375,165.5556640625,61.0,85.0
1040,165.0380859375,165.5595703125,65.0,89.0
1041,165.0380859375,165.654296875,49.0,89.0
1042,165.5068359375,165.833984375,56.0,84.0
1043,165.7412109375,166.2880859375,65.0,93.0
1044,165.7412109375,166.2998046875,61.0,90.0
1045,165.7412109375,166.349609375,49.0,99.0
1046,166.2099609375,166.50390625,56.0,90.0
1047,166.4443359375,166.7783203125,65.0,90.0
1048,166.4443359375,166.7900390625,61.0,89.0
1049,166.4443359375,166.794921875,49.0,99.0
1050,166.6787109375,166.830078125,56.0,88.0
1051,166.9130859375,167.4609375,65.0,94.0
1052,166.9130859375,167.46875,61.0,90.0
1053,166.9130859375,167.5400390625,46.0,91.0
1054,167.3818359375,167.611328125,58.0,82.0
1055,167.6162109375,168.08203125,65.0,93.0
1056,167.6162109375,168.1328125,61.0,89.0
1057,167.6162109375,168.13671875,46.0,91.0
1058,168.0849609375,168.357421875,58.0,83.0
1059,168.3193359375,168.58984375,61.0,93.0
1060,168.3193359375,168.6357421875,65.0,92.0
1061,168.3193359375,168.67578125,46.0,90.0
1062,168.5537109375,168.8388671875,58.0,88.0
1063,168.7880859375,169.3115234375,66.0,88.0
1064,168.7880859375,169.3232421875,63.0,90.0
1065,168.7880859375,169.4013671875,51.0,92.0
1066,169.2568359375,169.587890625,58.0,89.0
1067,169.4912109375,170.0224609375,66.0,90.0
1068,169.4912109375,170.0400390625,63.0,89.0
1069,169.4912109375,170.044921875,51.0,104.0
1070,169.9599609375,170.25,58.0,89.0
1071,170.1943359375,170.4677734375,63.0,90.0
1072,170.1943359375,170.4814453125,66.0,90.0
1073,170.1943359375,170.4833984375,51.0,104.0
1074,170.4287109375,170.5693359375,58.0,89.0
1075,170.6630859375,171.080078125,60.0,88.0
1076,170.6630859375,171.095703125,56.0,84.0
1077,171.1318359375,171.32421875,51.0,84.0
1078,170.6630859375,171.3505859375,44.0,90.0
1079,171.3662109375,171.6396484375,56.0,90.0
1080,171.3662109375,171.8564453125,60.0,91.0
1081,171.3662109375,171.8681640625,51.0,95.0
1082,171.3662109375,171.8916015625,44.0,91.0
1083,171.3662109375,171.9033203125,63.0,91.0
1084,171.8349609375,171.9873046875,56.0,88.0
1085,172.0693359375,172.310546875,60.0,89.0
1086,172.0693359375,172.3525390625,63.0,89.0
1087,172.0693359375,172.392578125,44.0,89.0
1088,172.3037109375,172.63671875,56.0,88.0
1089,172.5380859375,173.0439453125,61.0,89.0
1090,172.5380859375,173.048828125,65.0,93.0
1091,172.5380859375,173.0947265625,49.0,99.0
1092,173.0068359375,173.162109375,56.0,88.0
1093,173.2412109375,173.806640625,61.0,91.0
1094,173.2412109375,173.8193359375,65.0,93.0
1095,173.2412109375,173.826171875,49.0,95.0
1096,173.7099609375,173.9111328125,56.0,84.0
1097,173.9443359375,174.2275390625,49.0,94.0
1098,173.9443359375,174.2734375,61.0,93.0
1099,174.1787109375,174.28515625,56.0,88.0
1100,173.9443359375,174.3046875,65.0,93.0
1101,174.4130859375,174.873046875,58.0,84.0
1102,174.4130859375,174.90625,61.0,89.0
1103,174.4130859375,174.91015625,65.0,93.0
1104,174.8818359375,174.9951171875,53.0,79.0
1105,174.4130859375,175.015625,46.0,91.0
1106,175.1162109375,175.34375,58.0,90.0
1107,175.1162109375,175.439453125,46.0,90.0
1108,175.1162109375,175.4462890625,53.0,92.0
1109,175.1162109375,175.4619140625,61.0,93.0
1110,175.1162109375,175.638671875,65.0,86.0
1111,175.5849609375,175.720703125,58.0,89.0
1112,175.8193359375,175.9501953125,58.0,87.0
1113,175.8193359375,176.171875,61.0,86.0
1114,176.0537109375,176.2158203125,58.0,87.0
1115,175.8193359375,176.22265625,53.0,88.0
1116,175.8193359375,176.2353515625,46.0,89.0
1117,176.2880859375,176.8798828125,63.0,83.0
1118,176.2880859375,176.8798828125,66.0,86.0
1119,176.2880859375,176.8935546875,51.0,90.0
1120,176.7568359375,177.0673828125,58.0,88.0
1121,176.9912109375,177.5146484375,51.0,97.0
1122,176.9912109375,177.5234375,63.0,89.0
1123,176.9912109375,177.5244140625,66.0,89.0
1124,177.4599609375,177.611328125,58.0,90.0
1125,177.6943359375,177.8154296875,51.0,92.0
1126,177.6943359375,177.9609375,63.0,89.0
1127,177.6943359375,178.0,66.0,89.0
1128,177.9287109375,178.0546875,58.0,88.0
1129,178.1630859375,178.6826171875,60.0,82.0
1130,178.1630859375,178.68359375,63.0,88.0
1131,178.1630859375,178.7265625,44.0,89.0
1132,178.6318359375,178.8154296875,56.0,85.0
1133,178.8662109375,179.3779296875,60.0,87.0
1134,178.8662109375,179.38671875,63.0,89.0
1135,178.8662109375,179.3876953125,44.0,89.0
1136,179.3349609375,179.5810546875,56.0,89.0
1137,179.5693359375,179.8427734375,60.0,84.0
1138,179.5693359375,179.8681640625,44.0,88.0
1139,179.5693359375,179.8896484375,63.0,89.0
1140,179.8037109375,180.08203125,56.0,89.0
1141,180.0380859375,180.5556640625,61.0,85.0
1142,180.0380859375,180.5595703125,65.0,89.0
1143,180.0380859375,180.654296875,49.0,89.0
1144,180.5068359375,180.833984375,56.0,84.0
1145,180.7412109375,181.2880859375,65.0,93.0
1146,180.7412109375,181.2998046875,61.0,90.0
1147,180.7412109375,181.349609375,49.0,99.0
1148,181.2099609375,181.50390625,56.0,90.0
1149,181.4443359375,181.7783203125,65.0,90.0
1150,181.4443359375,181.7900390625,61.0,89.0
1151,181.4443359375,181.794921875,49.0,99.0
1152,181.6787109375,181.830078125,56.0,88.0
1153,181.9130859375,182.4609375,65.0,94.0
1154,181.9130859375,182.46875,61.0,90.0
1155,181.9130859375,182.5400390625,46.0,91.0
1156,182.3818359375,182.611328125,58.0,82.0
1157,182.6162109375,183.08203125,65.0,93.0
1158,182.6162109375,183.1328125,61.0,89.0
1159,182.6162109375,183.13671875,46.0,91.0
1160,183.0849609375,183.357421875,58.0,83.0
1161,183.3193359375,183.58984375,61.0,93.0
1162,183.3193359375,183.6357421875,65.0,92.0
1163,183.3193359375,183.67578125,46.0,90.0
1164,183.5537109375,183.8388671875,58.0,88.0
1165,183.7880859375,184.3115234375,66.0,88.0
1166,183.7880859375,184.3232421875,63.0,90.0
1167,183.7880859375,184.4013671875,51.0,92.0
1168,184.2568359375,184.587890625,58.0,89.0
1169,184.4912109375,185.0224609375,66.0,90.0
1170,184.4912109375,185.0400390625,63.0,89.0
1171,184.4912109375,185.044921875,51.0,104.0
1172,184.9599609375,185.25,58.0,89.0
1173,185.1943359375,185.4677734375,63.0,90.0
1174,185.1943359375,185.4814453125,66.0,90.0
1175,185.1943359375,185.4833984375,51.0,104.0
1176,185.4287109375,185.5693359375,58.0,89.0
1177,185.6630859375,186.080078125,60.0,88.0
1178,185.6630859375,186.095703125,56.0,84.0
1179,186.1318359375,186.32421875,51.0,84.0
1180,185.6630859375,186.3505859375,44.0,90.0
1181,186.3662109375,186.6396484375,56.0,90.0
1182,186.3662109375,186.8564453125,60.0,91.0
1183,186.3662109375,186.8681640625,51.0,95.0
1184,186.3662109375,186.8916015625,44.0,91.0
1185,186.3662109375,186.9033203125,63.0,91.0
1186,186.8349609375,186.9873046875,56.0,88.0
1187,187.0693359375,187.310546875,60.0,89.0
1188,187.0693359375,187.3525390625,63.0,89.0
1189,187.0693359375,187.392578125,44.0,89.0
1190,187.3037109375,187.63671875,56.0,88.0
1191,187.5380859375,188.0439453125,61.0,89.0
1192,187.5380859375,188.048828125,65.0,93.0
1193,187.5380859375,188.0947265625,49.0,99.0
1194,188.0068359375,188.162109375,56.0,88.0
1195,188.2412109375,188.806640625,61.0,91.0
1196,188.2412109375,188.8193359375,65.0,93.0
1197,188.2412109375,188.826171875,49.0,95.0
1198,188.7099609375,188.9111328125,56.0,84.0
1199,188.9443359375,189.2275390625,49.0,94.0
1200,188.9443359375,189.2734375,61.0,93.0
1201,189.1787109375,189.28515625,56.0,88.0
1202,188.9443359375,189.3046875,65.0,93.0
1203,189.4130859375,189.873046875,58.0,84.0
1204,189.4130859375,189.90625,61.0,89.0
1205,189.4130859375,189.91015625,65.0,93.0
1206,189.8818359375,189.9951171875,53.0,79.0
1207,189.4130859375,190.015625,46.0,91.0
1208,190.1162109375,190.34375,58.0,90.0
1209,190.1162109375,190.439453125,46.0,90.0
1210,190.1162109375,190.4462890625,53.0,92.0
1211,190.1162109375,190.4619140625,61.0,93.0
1212,190.1162109375,190.638671875,65.0,86.0
1213,190.5849609375,190.720703125,58.0,89.0
1214,190.8193359375,190.9501953125,58.0,87.0
1215,190.8193359375,191.171875,61.0,86.0
1216,191.0537109375,191.2158203125,58.0,87.0
1217,190.8193359375,191.22265625,53.0,88.0
1218,190.8193359375,191.2353515625,46.0,89.0
1219,191.2880859375,191.8798828125,63.0,83.0
1220,191.2880859375,191.8798828125,66.0,86.0
1221,191.2880859375,191.8935546875,51.0,90.0
1222,191.7568359375,192.0673828125,58.0,88.0
1223,191.9912109375,192.5146484375,51.0,97.0
1224,191.9912109375,192.5234375,63.0,89.0
1225,191.9912109375,192.5244140625,66.0,89.0
1226,192.4599609375,192.611328125,58.0,90.0
1227,192.6943359375,192.8154296875,51.0,92.0
1228,192.6943359375,192.9609375,63.0,89.0
1229,192.6943359375,193.0,66.0,89.0
1230,192.9287109375,193.0546875,58.0,88.0
1231,193.1630859375,193.6826171875,60.0,82.0
1232,193.1630859375,193.68359375,63.0,88.0
1233,193.1630859375,193.7265625,44.0,89.0
1234,193.6318359375,193.8154296875,56.0,85.0
1235,193.8662109375,194.3779296875,60.0,87.0
1236,193.8662109375,194.38671875,63.0,89.0
1237,193.8662109375,194.3876953125,44.0,89.0
1238,194.3349609375,194.5810546875,56.0,89.0
1239,194.5693359375,194.8427734375,60.0,84.0
1240,194.5693359375,194.8681640625,44.0,88.0
1241,194.5693359375,194.8896484375,63.0,89.0
1242,194.8037109375,195.08203125,56.0,89.0
1243,195.0380859375,195.5556640625,61.0,85.0
1244,195.0380859375,195.5595703125,65.0,89.0
1245,195.0380859375,195.654296875,49.0,89.0
1246,195.5068359375,195.833984375,56.0,84.0
1247,195.7412109375,196.2880859375,65.0,93.0
1248,195.7412109375,196.2998046875,61.0,90.0
1249,195.7412109375,196.349609375,49.0,99.0
1250,196.2099609375,196.50390625,56.0,90.0
1251,196.4443359375,196.7783203125,65.0,90.0
1252,196.4443359375,196.7900390625,61.0,89.0
1253,196.4443359375,196.794921875,49.0,99.0
1254,196.6787109375,196.830078125,56.0,88.0
1255,196.9130859375,197.4609375,65.0,94.0
1256,196.9130859375,197.46875,61.0,90.0
1257,196.9130859375,197.5400390625,46.0,91.0
1258,197.3818359375,197.611328125,58.0,82.0
1259,197.6162109375,198.08203125,65.0,93.0
1260,197.6162109375,198.1328125,61.0,89.0
1261,197.6162109375,198.13671875,46.0,91.0
1262,198.0849609375,198.357421875,58.0,83.0
1263,198.3193359375,198.58984375,61.0,93.0
1264,198.3193359375,198.6357421875,65.0,92.0
1265,198.3193359375,198.67578125,46.0,90.0
1266,198.5537109375,198.8388671875,58.0,88.0
1267,198.7880859375,199.3115234375,66.0,88.0
1268,198.7880859375,199.3232421875,63.0,90.0
1269,198.7880859375,199.4013671875,51.0,92.0
1270,199.2568359375,199.587890625,58.0,89.0
1271,199.4912109375,200.0224609375,66.0,90.0
1272,199.4912109375,200.0400390625,63.0,89.0
1273,199.4912109375,200.044921875,51.0,104.0
1274,199.9599609375,200.25,58.0,89.0
1275,200.1943359375,200.4677734375,63.0,90.0
1276,200.1943359375,200.4814453125,66.0,90.0
1277,200.1943359375,200.4833984375,51.0,104.0
1278,200.4287109375,200.5693359375,58.0,89.0
1279,200.6630859375,201.080078125,60.0,88.0
1280,200.6630859375,201.095703125,56.0,84.0
1281,201.1318359375,201.32421875,51.0,84.0
1282,200.6630859375,201.3505859375,44.0,90.0
1283,201.3662109375,201.6396484375,56.0,90.0
1284,201.3662109375,201.8564453125,60.0,91.0
1285,201.3662109375,201.8681640625,51.0,95.0
1286,201.3662109375,201.8916015625,44.0,91.0
1287,201.3662109375,201.9033203125,63.0,91.0
1288,201.8349609375,201.9873046875,56.0,88.0
1289,202.0693359375,202.310546875,60.0,89.0
1290,202.0693359375,202.3525390625,63.0,89.0
1291,202.0693359375,202.392578125,44.0,89.0
1292,202.3037109375,202.63671875,56.0,88.0
1293,202.5380859375,203.0439453125,61.0,89.0
1294,202.5380859375,203.048828125,65.0,93.0
1295,202.5380859375,203.0947265625,49.0,99.0
1296,203.0068359375,203.162109375,56.0,88.0
1297,203.2412109375,203.806640625,61.0,91.0
1298,203.2412109375,203.8193359375,65.0,93.0
1299,203.2412109375,203.826171875,49.0,95.0
1300,203.7099609375,203.9111328125,56.0,84.0
1301,203.9443359375,204.2275390625,49.0,94.0
1302,203.9443359375,204.2734375,61.0,93.0
1303,204.1787109375,204.28515625,56.0,88.0
1304,203.9443359375,204.3046875,65.0,93.0
1305,204.4130859375,204.873046875,58.0,84.0
1306,204.4130859375,204.90625,61.0,89.0
1307,204.4130859375,204.91015625,65.0,93.0
1308,204.8818359375,204.9951171875,53.0,79.0
1309,204.4130859375,205.015625,46.0,91.0
1310,205.1162109375,205.34375,58.0,90.0
1311,205.1162109375,205.439453125,46.0,90.0
1312,205.1162109375,205.4462890625,53.0,92.0
1313,205.1162109375,205.4619140625,61.0,93.0
1314,205.1162109375,205.638671875,65.0,86.0
1315,205.5849609375,205.720703125,58.0,89.0
1316,205.8193359375,205.9501953125,58.0,87.0
1317,205.8193359375,206.171875,61.0,86.0
1318,206.0537109375,206.2158203125,58.0,87.0
1319,205.8193359375,206.22265625,53.0,88.0
1320,205.8193359375,206.2353515625,46.0,89.0
1321,206.2880859375,206.8798828125,63.0,83.0
1322,206.2880859375,206.8798828125,66.0,86.0
1323,206.2880859375,206.8935546875,51.0,90.0
1324,206.7568359375,207.0673828125,58.0,88.0
1325,206.9912109375,207.5146484375,51.0,97.0
1326,206.9912109375,207.5234375,63.0,89.0
1327,206.9912109375,207.5244140625,66.0,89.0
1328,207.4599609375,207.611328125,58.0,90.0
1329,207.6943359375,207.8154296875,51.0,92.0
1330,207.6943359375,207.9609375,63.0,89.0
1331,207.6943359375,208.0,66.0,89.0
1332,207.9287109375,208.0546875,58.0,88.0
1333,208.1630859375,208.6826171875,60.0,82.0
1334,208.1630859375,208.68359375,63.0,88.0
1335,208.1630859375,208.7265625,44.0,89.0
1336,208.6318359375,208.8154296875,56.0,85.0
1337,208.8662109375,209.3779296875,60.0,87.0
1338,208.8662109375,209.38671875,63.0,89.0
1339,208.8662109375,209.3876953125,44.0,89.0
1340,209.3349609375,209.5810546875,56.0,89.0
1341,209.5693359375,209.8427734375,60.0,84.0
1342,209.5693359375,209.8681640625,44.0,88.0
1343,209.5693359375,209.8896484375,63.0,89.0
1344,209.8037109375,210.08203125,56.0,89.0
1345,210.0380859375,210.5556640625,61.0,85.0
1346,210.0380859375,210.5595703125,65.0,89.0
1347,210.0380859375,210.654296875,49.0,89.0
1348,210.5068359375,210.833984375,56.0,84.0
1349,210.7412109375,211.2880859375,65.0,93.0
1350,210.7412109375,211.2998046875,61.0,90.0
1351,210.7412109375,211.349609375,49.0,99.0
1352,211.2099609375,211.50390625,56.0,90.0
1353,211.4443359375,211.7783203125,65.0,90.0
1354,211.4443359375,211.7900390625,61.0,89.0
1355,211.4443359375,211.794921875,49.0,99.0
1356,211.6787109375,211.830078125,56.0,88.0
1357,211.9130859375,212.4609375,65.0,94.0
1358,211.9130859375,212.46875,61.0,90.0
1359,211.9130859375,212.5400390625,46.0,91.0
1360,212.3818359375,212.611328125,58.0,82.0
1361,212.6162109375,213.08203125,65.0,93.0
1362,212.6162109375,213.1328125,61.0,89.0
1363,212.6162109375,213.13671875,46.0,91.0
1364,213.0849609375,213.357421875,58.0,83.0
1365,213.3193359375,213.58984375,61.0,93.0
1366,213.3193359375,213.6357421875,65.0,92.0
1367,213.3193359375,213.67578125,46.0,90.0
1368,213.5537109375,213.8388671875,58.0,88.0
1369,213.7880859375,214.3115234375,66.0,88.0
1370,213.7880859375,214.3232421875,63.0,90.0
1371,213.7880859375,214.4013671875,51.0,92.0
1372,214.2568359375,214.587890625,58.0,89.0
1373,214.4912109375,215.0224609375,66.0,90.0
1374,214.4912109375,215.0400390625,63.0,89.0
1375,214.4912109375,215.044921875,51.0,104.0
1376,214.9599609375,215.25,58.0,89.0
1377,215.1943359375,215.4677734375,63.0,90.0
1378,215.1943359375,215.4814453125,66.0,90.0
1379,215.1943359375,215.4833984375,51.0,104.0
1380,215.4287109375,215.5693359375,58.0,89.0
1381,215.6630859375,216.080078125,60.0,88.0
1382,215.6630859375,216.095703125,56.0,84.0
1383,216.1318359375,216.32421875,51.0,84.0
1384,215.6630859375,216.3505859375,44.0,90.0
1385,216.3662109375,216.6396484375,56.0,90.0
1386,216.3662109375,216.8564453125,60.0,91.0
1387,216.3662109375,216.8681640625,51.0,95.0
1388,216.3662109375,216.8916015625,44.0,91.0
1389,216.3662109375,216.9033203125,63.0,91.0
1390,216.8349609375,216.9873046875,56.0,88.0
1391,217.0693359375,217.310546875,60.0,89.0
1392,217.0693359375,217.3525390625,63.0,89.0
1393,217.0693359375,217.392578125,44.0,89.0
1394,217.3037109375,217.63671875,56.0,88.0
1395,217.5380859375,218.0439453125,61.0,89.0
1396,217.5380859375,218.048828125,65.0,93.0
1397,217.5380859375,218.0947265625,49.0,99.0
1398,218.0068359375,218.162109375,56.0,88.0
1399,218.2412109375,218.806640625,61.0,91.0
1400,218.2412109375,218.8193359375,65.0,93.0
1401,218.2412109375,218.826171875,49.0,95.0
1402,218.7099609375,218.9111328125,56.0,84.0
1403,218.9443359375,219.2275390625,49.0,94.0
1404,218.9443359375,219.2734375,61.0,93.0
1405,219.1787109375,219.28515625,56.0,88.0
1406,219.283203125,219.28515625,56.0,83.0
1407,218.9443359375,219.3046875,65.0,93.0
1408,219.337890625,222.7158203125,61.0,82.0
1409,219.4150390625,222.732421875,65.0,88.0
1410,219.36328125,222.7578125,49.0,97.0
