,start,end,pitch,velocity
0,22.33661733333333,22.665784,67.0,99.0
1,22.83635273333333,22.933492137499996,67.0,93.0
2,23.084368233333333,23.18357443333333,67.0,93.0
3,23.33238373333333,23.638269516666664,67.0,95.0
4,23.828414733333332,24.24384069583333,72.0,100.0
5,24.32444573333333,25.620326720833333,69.0,92.0
6,26.06055423333333,26.269300612499997,69.0,99.0
7,26.308569733333332,26.566919212499997,67.0,97.0
8,26.80460073333333,26.976144787499997,69.0,100.0
9,27.05261623333333,27.327500079166665,67.0,93.0
10,27.54864723333333,28.2162222875,65.0,100.0
11,28.29269373333333,28.77012357083333,64.0,88.0
12,28.54070923333333,28.83006065,65.0,81.0
13,28.788724733333332,29.462500175,67.0,97.0
14,30.27681773333333,30.597171087499998,67.0,100.0
15,30.772848733333333,30.87205493333333,67.0,92.0
16,31.020864233333334,31.1180036375,67.0,79.0
17,31.268879733333332,31.601633862499998,67.0,97.0
18,31.76491073333333,31.905452849999996,72.0,100.0
19,32.01292623333333,32.3828826875,72.0,99.0
20,32.508957233333334,33.63742775833333,69.0,100.0
21,33.99705023333333,34.20166302083333,69.0,99.0
22,34.245065733333334,34.6894268375,67.0,93.0
23,34.741096733333336,34.88370564583333,74.0,122.0
24,34.98911223333333,35.088318433333335,74.0,36.0
25,35.23712773333333,35.51821196666667,74.0,107.0
26,35.48514323333333,35.79102901666667,71.0,81.0
27,35.981174233333334,36.90089837916666,72.0,107.0
28,37.22125173333333,37.539538291666666,76.0,117.0
29,37.717282733333334,37.911561541666664,74.0,102.0
30,37.96529823333333,38.913957520833335,72.0,96.0
31,39.205375733333334,39.42445609166667,72.0,127.0
32,39.453391233333335,39.7489430375,74.0,107.0
33,39.70140673333333,39.887418358333335,76.0,112.0
34,39.94942223333334,40.96008539583333,71.0,107.0
35,41.93354623333333,42.1918957125,67.0,75.0
36,42.18156173333333,42.427510437500004,69.0,92.0
37,42.42957723333333,42.66519195833334,67.0,71.0
38,42.677592733333334,42.935942212499995,69.0,90.0
39,42.925608233333335,43.20669246666667,67.0,79.0
40,43.17362373333333,43.60765085833333,69.0,100.0
41,43.66965473333333,43.923870620833334,72.0,83.0
42,43.91767023333333,44.38269929583333,79.0,102.0
43,44.413701233333335,44.58111169583333,76.0,88.0
44,44.661716733333336,45.07094230833333,74.0,92.0
45,45.15774773333334,45.579374083333335,76.0,107.0
46,45.65377873333333,45.83979035833333,74.0,97.0
47,45.901794233333334,46.49083104583333,71.0,100.0
48,47.14187173333333,47.4002212125,76.0,122.0
49,47.38988723333333,48.080197041666665,79.0,99.0
50,48.133933733333336,48.96065206666667,72.0,112.0
51,49.374011233333334,49.56002285833333,72.0,88.0
52,49.62202673333333,49.81217195,74.0,86.0
53,49.870042233333336,50.00231716666667,76.0,75.0
54,50.11805773333333,50.49628137083333,77.0,92.0
55,50.61408873333333,50.767031625,76.0,107.0
56,50.86210423333333,51.35400164166667,72.0,92.0
57,51.85416623333333,51.978173983333335,76.0,93.0
58,52.10218173333334,52.339863254166666,77.0,107.0
59,52.35019723333333,52.579611570833336,76.0,97.0
60,52.846228233333335,53.12524567083334,72.0,100.0
61,53.09424373333333,53.37532796666667,77.0,117.0
62,53.34225923333334,53.610942691666665,76.0,99.0
63,53.83829023333334,54.0036339,72.0,93.0
64,54.08630573333333,54.82208505,76.0,102.0
65,55.07836773333334,55.7087404625,74.0,122.0
66,56.070429733333334,56.87648010833333,72.0,112.0
67,57.06249173333333,57.839606966666665,69.0,100.0
68,58.054553733333336,58.381107475,67.0,99.0
69,58.55058473333333,58.6477241375,67.0,93.0
70,58.79860023333333,58.897806433333336,67.0,93.0
71,59.04661573333333,59.35250151666667,67.0,95.0
72,59.542646733333335,59.73279195,72.0,100.0
73,59.790662233333336,60.1606186875,72.0,97.0
74,60.28669323333333,61.280822029166664,69.0,92.0
75,61.77478623333334,61.9835326125,69.0,99.0
76,62.02280173333333,62.2811512125,67.0,97.0
77,62.51883273333333,62.6903767875,69.0,100.0
78,62.766848233333334,63.04173207916667,67.0,93.0
79,63.26287923333334,63.9304542875,65.0,100.0
80,64.00692573333333,64.48435557083334,64.0,88.0
81,64.25494123333334,64.54429265,65.0,81.0
82,64.50295673333333,65.176732175,67.0,97.0
83,65.99104973333334,66.3114030875,67.0,100.0
84,66.48708073333333,66.58628693333333,67.0,92.0
85,66.73509623333334,66.83223563749999,67.0,79.0
86,66.98311173333335,67.3158658625,67.0,97.0
87,67.47914273333333,67.61968485,72.0,100.0
88,67.72715823333334,68.09711468750001,72.0,99.0
89,68.22318923333333,69.35165975833334,69.0,100.0
90,69.71128223333334,69.91589502083333,69.0,99.0
91,69.95929773333333,70.4036588375,67.0,93.0
92,70.45532873333335,70.59793764583333,74.0,122.0
93,70.70334423333333,70.98442846666667,74.0,107.0
94,71.19937523333334,71.50526101666667,71.0,81.0
95,71.69540623333333,72.61513037916667,76.0,107.0
96,72.93548373333334,73.25377029166667,76.0,117.0
97,73.43151473333333,73.62579354166667,74.0,102.0
98,73.67953023333334,74.62818952083333,72.0,96.0
99,74.91960773333334,75.13868809166667,72.0,127.0
100,75.16762323333333,75.46317503750001,74.0,107.0
101,75.41563873333334,75.60165035833333,76.0,112.0
102,75.66365423333333,76.67431739583333,79.0,107.0
103,77.64777823333333,77.9061277125,67.0,106.0
104,77.89579373333333,78.1417424375,69.0,92.0
105,78.14380923333334,78.37942395833333,67.0,71.0
106,78.39182473333334,78.6501742125,69.0,90.0
107,78.63984023333333,78.92092446666666,67.0,79.0
108,78.88785573333334,79.32188285833334,69.0,100.0
109,79.38388673333333,79.63810262083334,72.0,83.0
110,79.63190223333334,80.09693129583334,79.0,102.0
111,80.12793323333334,80.29534369583334,76.0,88.0
112,80.37594873333333,80.78517430833334,74.0,92.0
113,80.87197973333333,81.29360608333334,76.0,107.0
114,81.36801073333334,81.55402235833333,74.0,97.0
115,81.61602623333334,82.20506304583333,71.0,100.0
116,82.85610373333333,83.1144532125,76.0,122.0
117,83.10411923333334,83.79442904166666,79.0,99.0
118,83.84816573333333,84.67488406666666,72.0,112.0
119,85.08824323333334,85.27425485833334,72.0,88.0
120,85.33625873333334,85.52640395,74.0,86.0
121,85.58427423333333,85.71654916666667,76.0,75.0
122,85.83228973333334,86.21051337083334,77.0,92.0
123,86.32832073333333,86.481263625,76.0,107.0
124,86.57633623333334,87.06823364166667,72.0,92.0
125,87.56839823333334,87.69240598333334,76.0,93.0
126,87.81641373333335,88.05409525416667,77.0,107.0
127,88.06442923333333,88.29384357083333,76.0,97.0
128,88.56046023333334,88.83947767083333,72.0,100.0
129,88.80847573333332,89.08955996666668,77.0,117.0
130,89.05649123333333,89.32517469166666,76.0,99.0
131,89.55252223333335,89.71786589999999,72.0,93.0
132,89.80053773333333,91.51597827500001,81.0,122.0
133,91.78466173333334,92.51630745833333,79.0,117.0
134,92.52870823333333,92.67131714583334,67.0,102.0
135,92.77672373333334,92.90279827916666,69.0,97.0
136,93.02473923333335,93.29755628333334,67.0,93.0
137,93.27275473333333,93.37609452500001,69.0,95.0
138,93.52077023333334,94.22761440833332,76.0,117.0
139,94.51283223333334,94.65750794166667,67.0,95.0
140,94.76084773333335,94.90552344166667,69.0,102.0
141,95.00886323333333,95.24241116249999,67.0,95.0
142,95.25687873333334,95.32714979166667,69.0,93.0
143,95.50489423333335,96.13940055416668,74.0,127.0
144,96.49695623333335,96.70983620416666,67.0,85.0
145,96.74497173333333,96.94338413333332,69.0,97.0
146,96.99298723333334,97.20586720416668,67.0,89.0
147,97.24100273333335,97.36707727916666,69.0,112.0
148,97.48901823333333,97.81350517916667,72.0,112.0
149,97.98504923333334,98.08632222916668,72.0,102.0
150,98.23306473333335,98.33227093333335,72.0,95.0
151,98.48108023333333,98.58442002500001,72.0,107.0
152,98.72909573333334,98.89030580833332,74.0,112.0
153,98.97711123333335,99.23752750833333,76.0,107.0
154,99.47314223333333,100.01050915000002,71.0,102.0
155,100.46520423333334,100.54374247500002,71.0,95.0
156,100.71321973333335,100.93643368333335,71.0,112.0
157,100.96123523333333,101.16791481666667,72.0,117.0
158,101.45726623333334,101.55853922916668,74.0,112.0
159,101.70528173333335,101.84169025833333,76.0,100.0
160,101.81895550416667,101.97809878333334,74.0,97.0
161,101.95329723333333,102.5588684125,72.0,127.0
162,102.44932823333335,102.58573675833333,69.0,97.0
163,102.69734373333333,102.949492825,69.0,107.0
164,102.94535923333333,103.1665063875,71.0,117.0
165,103.44139023333335,103.66460418333332,72.0,100.0
166,103.71420728333334,103.88368454166667,76.0,112.0
167,103.86921697083335,104.01595947500002,74.0,95.0
168,104.00975908750002,104.64219861250001,72.0,96.0
169,105.42551423333333,105.60119187916666,69.0,107.0
170,105.67352973333334,105.76033515833333,81.0,117.0
171,105.92154523333335,106.01661784166666,81.0,99.0
172,106.16956073333333,106.26256654583335,81.0,107.0
173,106.41757623333334,106.52711641249999,81.0,107.0
174,106.66559173333334,106.87227131666668,79.0,117.0
175,106.91360723333335,107.1843574875,76.0,99.0
176,107.40963823333334,108.02761018750002,74.0,102.0
177,108.40170023333334,108.54430914583332,67.0,102.0
178,108.64971573333335,108.77579027916667,69.0,97.0
179,108.89773123333333,109.17054828333335,67.0,93.0
180,109.14574673333334,109.249086525,69.0,95.0
181,109.39376223333335,110.10060640833333,76.0,117.0
182,110.38582423333335,110.53049994166668,67.0,95.0
183,110.63383973333333,110.77851544166668,69.0,102.0
184,110.88185523333334,111.1154031625,67.0,95.0
185,111.12987073333335,111.20014179166668,69.0,93.0
186,111.37788623333333,112.01239255416667,74.0,127.0
187,112.36994823333333,112.58282820416667,67.0,85.0
188,112.61796373333334,112.81637613333334,69.0,97.0
189,112.86597923333335,113.07885920416666,67.0,89.0
190,113.11399473333333,113.24006927916668,69.0,112.0
191,113.36201023333334,113.68649717916668,72.0,112.0
192,113.85804123333335,113.95931422916667,72.0,102.0
193,114.10605673333333,114.20526293333333,72.0,95.0
194,114.35407223333334,114.457412025,72.0,107.0
195,114.60208773333335,114.76329780833333,74.0,112.0
196,114.85010323333333,115.11051950833334,76.0,107.0
197,115.3316666625,115.86903357916668,79.0,102.0
198,116.33819623333335,116.43326884166666,76.0,107.0
199,116.58621173333333,116.78255733750001,76.0,117.0
200,116.83422723333334,117.08430952916666,77.0,117.0
201,117.33025823333335,117.50386908333334,79.0,127.0
202,117.57827373333333,117.71468225833334,76.0,100.0
203,117.69194750416668,117.85109078333335,74.0,97.0
204,118.32232023333333,118.41739284166667,76.0,112.0
205,117.82628923333334,118.43186041250001,72.0,127.0
206,118.57033573333334,118.78114890833334,76.0,112.0
207,118.81835123333335,119.05603275416667,77.0,112.0
208,119.31438223333333,119.45492435,79.0,127.0
209,119.58719928333335,119.75667654166668,76.0,112.0
210,119.74220897083333,119.888951475,74.0,95.0
211,119.8827510875,120.51519061249999,72.0,96.0
212,121.29850623333334,121.47418387916667,69.0,107.0
213,121.54652173333335,121.63332715833334,81.0,117.0
214,121.79453723333333,121.88960984166667,79.0,99.0
215,122.04255273333334,122.13555854583333,79.0,107.0
216,122.29056823333335,122.4001084125,79.0,107.0
217,122.53858373333333,122.74526331666667,79.0,117.0
218,122.78659923333333,123.0573494875,76.0,99.0
219,123.28263023333335,124.63018111666668,79.0,112.0
220,149.32425773333335,149.650811475,67.0,99.0
221,149.82029426666668,149.91744992500003,67.0,93.0
222,150.0683512666667,150.16757406666667,67.0,93.0
223,150.31640826666668,150.62234523333336,67.0,95.0
224,150.8125222666667,151.00269930000002,72.0,100.0
225,151.06057926666668,151.43059762500002,72.0,97.0
226,151.55669326666668,152.55098840833335,69.0,92.0
227,153.04503526666667,153.25381657500003,69.0,99.0
228,153.2930922666667,153.55148497500002,67.0,97.0
229,153.7892062666667,153.96077902500002,69.0,100.0
230,154.03726326666668,154.31219310833336,67.0,93.0
231,154.5333772666667,155.20106402500002,65.0,100.0
232,155.27754826666668,155.7550579916667,64.0,88.0
233,155.52560526666667,155.8150051,65.0,81.0
234,155.7736622666667,156.44755045000002,67.0,97.0
235,157.26200426666668,157.58241122500002,67.0,100.0
236,157.75811826666668,157.8573410666667,67.0,92.0
237,158.00617526666667,158.10333092500002,67.0,79.0
238,158.2542322666667,158.58704207500003,67.0,97.0
239,158.7503462666667,158.89091190000002,72.0,100.0
240,158.99840326666668,159.36842162500002,72.0,99.0
241,159.4945172666667,160.62317661666668,69.0,100.0
242,160.98285926666668,161.1875062916667,69.0,99.0
243,161.2309162666667,161.675351725,67.0,93.0
244,161.7270302666667,161.86966304166668,74.0,122.0
245,161.9750872666667,162.25621853333337,74.0,107.0
246,162.4712012666667,162.77713823333335,71.0,81.0
247,162.96731526666667,163.88719330833337,76.0,107.0
248,164.2076002666667,164.52594008333335,76.0,117.0
249,164.70371426666668,164.89802558333335,74.0,102.0
250,164.9517712666667,165.90058929166668,72.0,96.0
251,166.1920562666667,166.41117328333337,72.0,127.0
252,166.44011326666669,166.73571452500002,74.0,107.0
253,166.6881702666667,166.8742130166667,76.0,112.0
254,166.9362272666667,167.9470595416667,79.0,107.0
255,168.92068326666669,169.17907597500002,67.0,106.0
256,169.1687402666667,169.41473012500003,69.0,92.0
257,169.4167972666667,169.65245141666668,67.0,71.0
258,169.66485426666668,169.923246975,69.0,90.0
259,169.9129112666667,170.19404253333335,67.0,79.0
260,170.16096826666669,170.5950680166667,69.0,100.0
261,170.6570822666667,170.91134069166668,72.0,83.0
262,170.90513926666668,171.37024614166668,79.0,102.0
263,171.40125326666669,171.5686917416667,76.0,88.0
264,171.6493102666667,172.05860431666667,74.0,92.0
265,172.14542426666668,172.56712116666668,76.0,107.0
266,172.64153826666669,172.8275810166667,74.0,97.0
267,172.88959526666667,173.4787306416667,71.0,100.0
268,174.1298802666667,174.388272975,76.0,122.0
269,174.3779372666667,175.06836258333337,79.0,99.0
270,175.1221082666667,175.94896493333334,72.0,112.0
271,176.3623932666667,176.5484360166667,72.0,88.0
272,176.6104502666667,176.80062730000003,74.0,86.0
273,176.8585072666667,176.99080433333336,76.0,75.0
274,177.10656426666668,177.48485119166668,77.0,92.0
275,177.6026782666667,177.75564675,76.0,107.0
276,177.85073526666667,178.34271498333337,72.0,92.0
277,178.8429632666667,178.9669917666667,76.0,93.0
278,179.0910202666667,179.32874155833335,77.0,107.0
279,179.3390772666667,179.56852999166668,76.0,97.0
280,179.8351912666667,180.1142553916667,72.0,100.0
281,180.0832482666667,180.36437953333336,77.0,117.0
282,180.33130526666667,180.60003368333335,76.0,99.0
283,180.82741926666668,180.99279060000003,72.0,93.0
284,181.0754762666667,182.79120385000002,81.0,122.0
285,183.0599322666667,183.79170041666669,79.0,117.0
286,183.8041032666667,183.9467360416667,67.0,102.0
287,184.0521602666667,184.17825590833337,69.0,97.0
288,184.3002172666667,184.57307996666668,67.0,93.0
289,184.54827426666668,184.65163135000003,69.0,95.0
290,184.7963312666667,185.5032937166667,76.0,117.0
291,185.78855926666668,185.93325918333335,67.0,95.0
292,186.0366162666667,186.18131618333337,69.0,102.0
293,186.2846732666667,186.51826027500002,67.0,95.0
294,186.5327302666667,186.60301308333337,69.0,93.0
295,186.7807872666667,187.41539975833336,74.0,127.0
296,187.77301526666668,187.98593085833335,67.0,85.0
297,188.0210722666667,188.2195178666667,69.0,97.0
298,188.26912926666668,188.48204485833335,67.0,89.0
299,188.5171862666667,188.64328190833336,69.0,112.0
300,188.7652432666667,189.08978450833337,72.0,112.0
301,189.2613572666667,189.36264720833336,72.0,102.0
302,189.50941426666668,189.6086370666667,72.0,95.0
303,189.7574712666667,189.86082835000002,72.0,107.0
304,190.0055282666667,190.1667653166667,74.0,112.0
305,190.25358526666668,190.5140451166667,76.0,107.0
306,190.74969926666668,191.28715610000003,71.0,102.0
307,191.7419272666667,191.82047865000004,71.0,95.0
308,191.98998426666668,192.2132355666667,71.0,112.0
309,192.2380412666667,192.44475543333334,72.0,117.0
310,192.73415526666668,192.83544520833337,74.0,112.0
311,192.9822122666667,193.1186436166667,76.0,100.0
312,193.09590505833336,193.25507496666668,74.0,97.0
313,193.23026926666668,193.83594177500004,72.0,127.0
314,193.7263832666667,193.8628146166667,69.0,97.0
315,193.9744402666667,194.22663155000004,69.0,107.0
316,194.2224972666667,194.44368142500002,71.0,117.0
317,194.7186112666667,194.94186256666669,72.0,100.0
318,194.9914739666667,195.16097958333336,76.0,112.0
319,195.1465095916667,195.29327665000002,74.0,95.0
320,195.28707522500002,195.919620575,72.0,96.0
321,196.7030672666667,196.87877430833336,69.0,107.0
322,196.95112426666668,197.0379442166667,81.0,117.0
323,197.1991812666667,197.29426978333336,81.0,99.0
324,197.4472382666667,197.5402596416667,81.0,107.0
325,197.69529526666668,197.80485377500003,81.0,107.0
326,197.9433522666667,198.15006643333336,79.0,117.0
327,198.1914092666667,198.46220482500001,76.0,99.0
328,198.6875232666667,199.30559862500002,74.0,102.0
329,199.6797512666667,199.82238404166668,67.0,102.0
330,199.9278082666667,200.05390390833335,69.0,97.0
331,200.17586526666668,200.4487279666667,67.0,93.0
332,200.4239222666667,200.52727935000001,69.0,95.0
333,200.6719792666667,201.3789417166667,76.0,117.0
334,201.6642072666667,201.80890718333336,67.0,95.0
335,201.91226426666668,202.05696418333335,69.0,102.0
336,202.1603212666667,202.39390827500003,67.0,95.0
337,202.4083782666667,202.47866108333335,69.0,93.0
338,202.65643526666668,203.29104775833338,74.0,127.0
339,203.6486632666667,203.86157885833336,67.0,85.0
340,203.8967202666667,204.0951658666667,69.0,97.0
341,204.1447772666667,204.35769285833337,67.0,89.0
342,204.39283426666668,204.51892990833335,69.0,112.0
343,204.6408912666667,204.96543250833335,72.0,112.0
344,205.13700526666668,205.23829520833337,72.0,102.0
345,205.3850622666667,205.4842850666667,72.0,95.0
346,205.6331192666667,205.73647635000003,72.0,107.0
347,205.8811762666667,206.04241331666668,74.0,112.0
348,206.1292332666667,206.3896931166667,76.0,107.0
349,206.61087727500004,207.14833410833336,79.0,102.0
350,207.61757526666668,207.71266378333337,76.0,107.0
351,207.8656322666667,208.06201072500002,76.0,117.0
352,208.1136892666667,208.36381340833336,77.0,117.0
353,208.6098032666667,208.7834431666667,79.0,127.0
354,208.8578602666667,208.9942916166667,76.0,100.0
355,208.97155305833337,209.1307229666667,74.0,97.0
356,209.6020312666667,209.69711978333336,76.0,112.0
357,209.1059172666667,209.71158977500002,72.0,127.0
358,209.8500882666667,210.0609367166667,76.0,112.0
359,210.09814526666668,210.33586655833335,77.0,112.0
360,210.5942592666667,210.73482490000004,79.0,127.0
361,210.8671219666667,211.03662758333337,76.0,112.0
362,211.0221575916667,211.16892465000004,74.0,95.0
363,211.16272322500004,211.79526857500002,72.0,96.0
364,212.57871526666668,212.75442230833335,69.0,107.0
365,212.8267722666667,212.9135922166667,81.0,117.0
366,213.0748292666667,213.16991778333335,79.0,99.0
367,213.3228862666667,213.4159076416667,79.0,107.0
368,213.5709432666667,213.68050177500004,79.0,107.0
369,213.8190002666667,214.02571443333335,79.0,117.0
370,214.0670572666667,214.33785282500003,76.0,99.0
371,214.5631712666667,215.91094763333336,79.0,112.0
372,216.79568426666668,218.16413205000003,80.0,127.0
373,218.2840262666667,218.54655325833335,82.0,127.0
374,218.5320832666667,219.28452283333337,80.0,127.0
375,219.5243112666667,219.66694404166668,68.0,102.0
376,219.7723682666667,219.89846390833338,70.0,97.0
377,220.02042526666668,220.2932879666667,68.0,93.0
378,220.2684822666667,220.37183935000002,70.0,95.0
379,220.5165392666667,221.2235017166667,77.0,117.0
380,221.5087672666667,221.65346718333336,68.0,95.0
381,221.75682426666668,221.90152418333338,70.0,102.0
382,222.0048812666667,222.23846827500003,68.0,95.0
383,222.2529382666667,222.32322108333335,70.0,93.0
384,222.50099526666668,223.13560775833338,75.0,127.0
385,223.4932232666667,223.70613885833336,68.0,85.0
386,223.7412802666667,223.9397258666667,70.0,97.0
387,223.9893372666667,224.20225285833337,68.0,89.0
388,224.23739426666668,224.36348990833335,70.0,112.0
389,224.4854512666667,224.80999250833338,73.0,112.0
390,224.98156526666668,225.08285520833334,73.0,102.0
391,225.2296222666667,225.3288450666667,73.0,95.0
392,225.4776792666667,225.58103635000003,73.0,107.0
393,225.7257362666667,225.88697331666668,75.0,112.0
394,225.9737932666667,226.2342531166667,77.0,107.0
395,226.4699072666667,227.00736410000002,72.0,102.0
396,227.46213526666668,227.54068665000003,72.0,95.0
397,227.7101922666667,227.9334435666667,72.0,112.0
398,227.9582492666667,228.16496343333336,73.0,117.0
399,228.4543632666667,228.55565320833335,75.0,112.0
400,228.7024202666667,228.83885161666672,77.0,100.0
401,228.81611305833337,228.9752829666667,75.0,97.0
402,228.9504772666667,229.55614977500005,73.0,127.0
403,229.4465912666667,229.5830226166667,70.0,97.0
404,229.69464826666672,229.94683955000005,70.0,107.0
405,229.94270526666668,230.16388942500004,72.0,117.0
406,230.4388192666667,230.6620705666667,73.0,100.0
407,230.7116819666667,230.88118758333337,77.0,112.0
408,230.8667175916667,231.01348465,75.0,95.0
409,231.00728322500004,231.63982857500002,73.0,96.0
410,232.42327526666668,232.59898230833335,70.0,107.0
411,232.6713322666667,232.7581522166667,82.0,117.0
412,232.9193892666667,233.01447778333335,82.0,99.0
413,233.1674462666667,233.2604676416667,82.0,107.0
414,233.4155032666667,233.52506177500004,82.0,107.0
415,233.6635602666667,233.87027443333335,80.0,117.0
416,233.9116172666667,234.18241282500003,77.0,99.0
417,234.4077312666667,235.02580662500003,80.0,102.0
418,235.3999592666667,235.5425920416667,68.0,102.0
419,235.6480162666667,235.77411190833337,70.0,97.0
420,235.8960732666667,236.1689359666667,68.0,93.0
421,236.1441302666667,236.24748735000003,70.0,95.0
422,236.3921872666667,237.09914971666672,77.0,117.0
423,237.38441526666668,237.52911518333337,80.0,95.0
424,237.6324722666667,237.77717218333336,80.0,102.0
425,237.8805292666667,238.11411627500001,80.0,95.0
426,238.1285862666667,238.19886908333336,82.0,93.0
427,238.36630755833335,238.8727572666667,77.0,100.0
428,238.86448870000004,239.23657420000004,75.0,95.0
429,239.3688712666667,239.58178685833337,68.0,85.0
430,239.61692826666672,239.8153738666667,70.0,97.0
431,239.86498526666668,240.07790085833335,68.0,89.0
432,240.1130422666667,240.23913790833336,70.0,112.0
433,240.3610992666667,240.68564050833336,73.0,112.0
434,240.8572132666667,240.95850320833335,73.0,102.0
435,241.1052702666667,241.2044930666667,73.0,95.0
436,241.3533272666667,241.45668435000005,73.0,107.0
437,241.60138426666668,241.7626213166667,75.0,112.0
438,241.8494412666667,242.10990111666672,77.0,107.0
439,242.33108527500002,242.86854210833337,80.0,102.0
440,243.3377832666667,243.43287178333338,77.0,107.0
441,243.5858402666667,243.78221872500004,77.0,117.0
442,243.8338972666667,244.08402140833337,78.0,117.0
443,244.3300112666667,244.5036511666667,80.0,127.0
444,244.57806826666672,244.7144996166667,77.0,100.0
445,244.69176105833338,244.85093096666668,75.0,97.0
446,245.3222392666667,245.41732778333335,77.0,112.0
447,244.82612526666668,245.43179777500004,73.0,127.0
448,245.5702962666667,245.7811447166667,77.0,112.0
449,245.8183532666667,246.05607455833336,78.0,112.0
450,246.3144672666667,246.45503290000005,80.0,127.0
451,246.5873299666667,246.75683558333338,77.0,112.0
452,246.7423655916667,246.88913265000002,75.0,95.0
453,246.88293122500005,247.51547657500004,73.0,96.0
454,248.2989232666667,248.47463030833336,70.0,107.0
455,248.5469802666667,248.6338002166667,82.0,117.0
456,248.7950372666667,248.89012578333336,80.0,99.0
457,249.04309426666669,249.13611564166672,80.0,107.0
458,249.2911512666667,249.40070977500005,80.0,107.0
459,249.53920826666672,249.74592243333336,80.0,117.0
460,249.78726526666668,250.05806082500004,77.0,99.0
461,250.2833792666667,251.63115563333338,80.0,112.0
462,251.52366426666669,251.7717212666667,77.0,122.0
463,252.01977826666672,252.25749955833336,75.0,117.0
464,252.5158922666667,252.7391435666667,73.0,112.0
465,253.0120062666667,253.49365027500005,75.0,117.0
466,253.5081202666667,255.47603913333336,73.0,97.0
