,start,end,pitch,velocity
0,36.911115664583335,37.20780217916667,56.0,68.0
1,37.27256116458334,37.69575360416667,58.0,63.0
2,37.63400666458333,38.18370502916667,65.0,72.0
3,38.356897664583336,38.685210660416665,65.0,87.0
4,38.71834316458333,39.13852355833333,63.0,82.0
5,39.07978866458333,39.50147508125,65.0,94.0
6,39.80267966458334,40.168643233333334,63.0,90.0
7,40.16412516458333,40.498462252083335,65.0,83.0
8,40.525570664583334,40.861413775,68.0,99.0
9,40.887016164583336,41.2680399625,65.0,79.0
10,41.24846166458333,41.56773852291667,68.0,92.0
11,41.60990716458333,41.97587073333334,70.0,90.0
12,41.971352664583335,42.466834204166666,68.0,96.0
13,43.41713466458334,43.92617041041667,70.0,105.0
14,44.140025664583334,44.52406150833333,70.0,101.0
15,44.501471164583336,44.86743473333333,68.0,90.0
16,44.86291666458334,45.21080795833333,65.0,82.0
17,45.22436216458333,45.409602983333336,63.0,85.0
18,45.585807664583335,45.87496406458334,63.0,93.0
19,45.94725316458334,46.355385375000004,61.0,90.0
20,46.30869866458333,48.043637064583336,63.0,101.0
21,48.47737166458334,48.8041786375,63.0,93.0
22,48.83881716458333,49.18821448125,65.0,92.0
23,49.200262664583335,49.46231065208333,68.0,94.0
24,49.56170816458334,49.81923808333333,68.0,97.0
25,49.92315366458333,50.27556302708334,68.0,106.0
26,50.284599164583334,50.65056273333334,70.0,97.0
27,50.646044664583336,51.01351425625,68.0,103.0
28,51.36893566458333,51.69423661458333,70.0,87.0
29,51.730381164583335,52.12345314583334,68.0,89.0
30,52.09182666458334,52.33580237708333,65.0,74.0
31,52.45327216458333,52.655079235416665,65.0,83.0
32,52.814717664583334,53.14303066041667,65.0,91.0
33,53.176163164583336,53.442729220833336,63.0,66.0
34,53.35688591458334,53.46381354166667,65.0,45.0
35,53.53760866458334,54.10989737291667,61.0,61.0
36,54.98339066458333,55.246944675,63.0,93.0
37,55.344836164583334,55.59634199166667,63.0,87.0
38,55.70628166458334,56.00748624791667,63.0,86.0
39,56.06772716458333,56.412606412500004,61.0,79.0
40,56.429172664583334,56.918630112500004,58.0,65.0
41,57.15206366458334,57.54362962291667,58.0,73.0
42,57.51350916458333,57.740918625,65.0,65.0
43,57.874954664583335,58.02856900208334,65.0,83.0
44,58.055677414583336,60.20929018541667,63.0,49.0
45,60.04362766458333,60.408085210416665,56.0,53.0
46,60.405073164583335,60.772542756250004,58.0,66.0
47,60.76651866458334,61.030072675,65.0,90.0
48,61.12796416458333,61.38850612916667,65.0,84.0
49,61.489409664583334,61.819228683333336,65.0,95.0
50,61.850855164583336,62.189710320833335,63.0,79.0
51,62.21230066458334,62.5300715,65.0,91.0
52,62.935191664583336,63.243926362500005,63.0,95.0
53,63.29663716458334,63.62946822916667,65.0,90.0
54,63.65808266458333,64.00898600416667,68.0,95.0
55,64.01952816458333,64.38097366458334,65.0,90.0
56,64.38097366458334,64.73639507291666,68.0,95.0
57,64.74241916458334,65.1053706875,70.0,93.0
58,65.10386466458334,65.53759926458333,68.0,98.0
59,66.54964666458334,66.82524885833334,70.0,98.0
60,66.91109216458334,67.12193537291667,70.0,96.0
61,67.27253766458334,67.64151327916667,70.0,93.0
62,67.63398316458334,67.97133229791667,68.0,93.0
63,67.99542866458333,68.60084987708333,65.0,87.0
64,69.07976516458334,69.43066850416668,61.0,87.0
65,69.44121066458334,71.10988405625,63.0,96.0
66,71.60988366458334,71.96982314166667,63.0,55.0
67,71.97132916458334,72.34181080208333,65.0,87.0
68,72.33277466458334,72.59030458333334,68.0,96.0
69,72.69422016458334,72.94572599166666,68.0,97.0
70,73.05566566458333,73.41560514166667,68.0,93.0
71,73.41711116458333,73.81319519166667,70.0,100.0
72,73.77855666458333,74.17915876041667,68.0,98.0
73,75.22433866458333,75.51650711041667,65.0,98.0
74,75.58578416458333,75.84783215208334,65.0,92.0
75,75.94722966458333,76.3372896,65.0,97.0
76,76.30867516458333,76.66861464166666,63.0,95.0
77,76.67012066458334,77.43518030625,61.0,92.0
78,78.11590266458333,78.3884928125,63.0,101.0
79,78.47734816458333,78.57523965416667,63.0,92.0
80,78.65807091458333,78.73939615208333,63.0,79.0
81,78.83879366458333,79.11590188125,63.0,91.0
82,79.20023916458334,79.54963648125,70.0,90.0
83,79.56168466458334,79.90505788958333,68.0,95.0
84,80.28457566458333,80.7017440125,65.0,108.0
85,80.64602116458333,81.42764705833333,63.0,97.0
86,81.36891216458334,82.83728450833334,61.0,98.0
87,83.17613966458333,83.52553698125,68.0,90.0
88,83.53758516458333,83.90204271041667,70.0,93.0
89,83.89903066458334,84.13095819375,73.0,98.0
90,84.26047616458334,84.34180140208333,73.0,92.0
91,84.44119891458334,84.52553619791667,73.0,86.0
92,84.62192166458334,84.90957204166666,73.0,90.0
93,84.98336716458334,85.16408991458333,73.0,97.0
94,85.16408991458333,85.34481266458333,75.0,97.0
95,85.34481266458333,85.74993282916667,77.0,87.0
96,85.70625816458333,86.10234219166666,75.0,87.0
97,86.06770366458333,86.46981178333334,73.0,87.0
98,86.42914916458334,86.82673921458334,77.0,64.0
99,86.79059466458334,87.74842523958334,70.0,72.0
100,89.68215866458334,89.94270062916667,63.0,90.0
101,90.04360416458334,90.14300167708333,63.0,77.0
102,90.22432691458333,90.32221840416666,63.0,75.0
103,90.40504966458333,90.6414952625,63.0,80.0
104,90.76649516458333,90.9306516625,63.0,86.0
105,90.94721791458333,91.15354305416668,65.0,81.0
106,91.12794066458333,91.50294037083333,63.0,87.0
107,91.48938616458334,91.71980767083333,61.0,80.0
108,91.85083166458334,92.15806033958333,61.0,84.0
109,92.21227716458334,92.6475177875,58.0,65.0
110,92.57372266458333,94.18516718541667,56.0,90.0
111,94.74239566458334,95.11588934791666,51.0,63.0
112,95.10384116458333,95.41859995416667,53.0,63.0
113,95.46528666458333,95.73185272083333,56.0,87.0
114,95.82673216458333,96.07823799166667,56.0,93.0
115,96.18817766458334,96.55865930208334,56.0,97.0
116,96.54962316458334,96.89902048125,53.0,90.0
117,96.91106866458334,97.20323711041667,56.0,98.0
118,97.63395966458333,97.99540516458333,73.0,106.0
119,97.99540516458333,98.32974225208334,75.0,101.0
120,98.35685066458333,99.86136755833334,70.0,100.0
121,101.24841466458334,101.50745060625,75.0,101.0
122,101.60986016458334,101.68967937916666,75.0,87.0
123,101.79058291458334,101.88094428958334,75.0,87.0
124,101.97130566458334,102.30564275208333,75.0,90.0
125,102.33275116458334,102.73034121458333,77.0,93.0
126,102.69419666458333,103.12040115,75.0,99.0
127,103.05564216458333,103.41558164166666,73.0,94.0
128,103.41708766458333,103.79961748541668,70.0,87.0
129,103.77853316458334,104.14449673333334,73.0,94.0
130,104.13997866458334,106.28003722916667,75.0,97.0
131,107.03154266458334,107.31618099583334,73.0,95.0
132,107.39298816458334,107.4848555625,73.0,75.0
133,107.57371091458333,107.66256626666667,73.0,76.0
134,107.75443366458333,108.0089515375,73.0,72.0
135,108.11587916458333,108.32371032708333,73.0,76.0
136,108.29660191458333,108.43365,75.0,49.0
137,108.47732466458334,108.90804721875,77.0,66.0
138,108.83877016458334,109.23937226041667,75.0,72.0
139,109.20021566458334,109.56919127916667,73.0,72.0
140,109.56166116458334,109.91557655,77.0,63.0
141,109.92310666458333,110.96979259166667,70.0,63.0
142,112.81467066458333,113.04358614791667,75.0,101.0
143,113.17611616458333,113.26195947083333,75.0,95.0
144,113.35683891458334,113.43816415208333,75.0,89.0
145,113.53756166458334,113.76195907916667,75.0,92.0
146,113.89900716458334,114.05262150208334,75.0,96.0
147,114.07972991458334,114.31165744375001,77.0,91.0
148,114.26045266458334,114.65201862291667,75.0,93.0
149,114.62189816458334,114.85683773958334,73.0,91.0
150,114.98334366458333,115.30412654583334,73.0,90.0
151,115.34478916458333,115.69870455,70.0,92.0
152,115.70623466458333,117.34779964375001,68.0,99.0
153,117.87490766458333,118.24840134791667,63.0,87.0
154,118.23635316458333,118.60532877916667,65.0,73.0
155,118.59779866458334,118.88695506458333,68.0,94.0
156,118.95924416458334,119.24087045,68.0,66.0
157,119.32068966458334,119.67460505,68.0,90.0
158,119.68213516458334,120.05713487083334,65.0,84.0
159,120.04358066458333,120.45773696666667,68.0,99.0
160,120.76647166458334,121.15954364583334,73.0,101.0
161,121.12791716458334,121.43363981666667,75.0,101.0
162,121.48936266458334,123.23634924791666,70.0,103.0
163,124.38092666458334,124.81616728750001,75.0,103.0
164,124.92309491458333,125.01646833541668,75.0,95.0
165,125.10381766458333,125.32369701041667,75.0,93.0
166,125.46526316458333,125.62791363958334,75.0,90.0
167,125.64598591458333,125.87791344375,77.0,87.0
168,125.82670866458334,126.21225053125,75.0,91.0
169,126.18815416458334,126.52098522916667,73.0,91.0
170,126.54959966458334,126.90953914166667,70.0,91.0
171,126.91104516458334,127.46375557500001,73.0,93.0
172,127.63393616458333,128.78905574166666,73.0,97.0
173,152.57367566458333,152.87186820208333,56.0,68.0
174,152.93512116458334,153.35831360416668,58.0,63.0
175,153.29656666458334,153.60379533958334,65.0,72.0
176,153.65801216458334,153.89746980833334,65.0,72.0
177,154.01945766458334,154.34777066041667,65.0,87.0
178,154.38090316458334,154.80258958125,63.0,82.0
179,154.74234866458335,155.16554110416666,65.0,94.0
180,155.46523966458335,155.83120323333333,63.0,90.0
181,155.82668516458332,156.16102225208334,65.0,83.0
182,156.18813066458333,156.523973775,68.0,99.0
183,156.54957616458333,156.9305999625,65.0,79.0
184,156.91102166458333,157.23029852291668,68.0,92.0
185,157.27246716458333,157.63843073333334,70.0,90.0
186,157.63391266458333,158.12939420416666,68.0,96.0
187,159.07969466458334,159.42156186666668,70.0,105.0
188,159.44114016458335,159.74535679375,70.0,105.0
189,159.80258566458335,160.15348900416666,70.0,101.0
190,160.16403116458335,160.52999473333333,68.0,90.0
191,160.52547666458335,160.87336795833335,65.0,82.0
192,161.60981316458333,161.94415025208335,61.0,90.0
193,161.97125866458333,163.64595614791668,63.0,101.0
194,164.13993166458334,164.46523261458333,63.0,93.0
195,164.50137716458335,164.85077448125,65.0,92.0
196,164.86282266458335,165.12487065208333,68.0,94.0
197,165.22426816458335,165.48179808333333,68.0,97.0
198,165.58571366458332,165.93812302708335,68.0,106.0
199,165.94715916458333,166.31312273333333,70.0,97.0
200,166.30860466458333,166.67607425625002,68.0,103.0
201,167.75438666458334,167.99685635416668,65.0,74.0
202,168.11583216458334,168.31914525833335,65.0,83.0
203,168.47727766458334,168.80559066041667,65.0,91.0
204,168.83872316458334,169.24986742083334,63.0,66.0
205,169.20016866458334,169.77245737291668,61.0,61.0
206,170.64595066458332,170.92004683541668,63.0,101.0
207,171.00739616458333,171.10528765416666,63.0,92.0
208,171.18811891458333,171.26944415208334,63.0,79.0
209,171.36884166458333,171.64594988125,63.0,91.0
210,171.73028716458333,172.07968448125,70.0,90.0
211,172.09173266458333,172.43510588958333,68.0,95.0
212,172.81462366458334,173.2317920125,65.0,108.0
213,173.17606916458334,173.89444209583334,63.0,97.0
214,173.89896016458334,175.37787466875,61.0,98.0
215,175.70618766458333,176.05558498125,68.0,90.0
216,176.06763316458333,176.43209071041667,70.0,93.0
217,176.42907866458333,176.62787368958334,73.0,98.0
218,176.79052416458333,176.87184940208334,73.0,92.0
219,176.97124691458333,177.05558419791666,73.0,86.0
220,177.15196966458333,177.33118639166668,73.0,90.0
221,177.51341516458334,177.68660780000002,73.0,90.0
222,177.69413791458334,177.85829441250002,75.0,97.0
223,177.87486066458334,178.22275195833333,77.0,87.0
224,178.23630616458334,178.63239019166667,75.0,87.0
225,178.59775166458334,178.99985978333333,73.0,87.0
226,178.95919716458334,179.3582932375,77.0,64.0
227,179.32064266458335,180.2799792625,70.0,72.0
228,182.21220666458333,182.40798964375,75.0,90.0
229,182.57365216458334,182.63389308125,75.0,77.0
230,182.75437491458334,182.81310980833334,75.0,75.0
231,182.93509766458334,183.13238666666666,75.0,80.0
232,183.29654316458334,183.42154306666666,75.0,86.0
233,183.47726591458334,183.64443445833334,77.0,81.0
234,183.65798866458334,183.99383177500002,75.0,87.0
235,184.01943416458334,184.210699075,73.0,80.0
236,184.38087966458335,184.64895174375002,73.0,84.0
237,184.74232516458335,185.13690316875,70.0,65.0
238,185.10377066458335,186.67605858958333,68.0,90.0
239,187.27244366458334,187.64593734791669,63.0,63.0
240,187.63388916458334,187.94864795416666,65.0,63.0
241,187.99533466458334,188.26190072083332,68.0,87.0
242,188.35678016458334,188.60979201458335,68.0,93.0
243,188.71822566458334,189.090213325,68.0,97.0
244,189.07967116458335,189.42906848125,65.0,90.0
245,189.44111666458335,189.73328511041666,68.0,98.0
246,190.16400766458335,190.5269591875,73.0,106.0
247,190.52545316458333,190.85979025208334,75.0,101.0
248,190.88689866458333,192.39141555833334,70.0,100.0
249,193.77846266458334,194.19864305833335,75.0,101.0
250,194.32063091458335,194.41099228958333,75.0,87.0
251,194.50135366458335,194.83569075208334,75.0,90.0
252,194.86279916458335,195.26038921458334,77.0,93.0
253,195.22424466458335,195.65044915000001,75.0,99.0
254,195.58569016458333,195.94562964166667,73.0,94.0
255,195.94713566458333,196.3281594625,70.0,87.0
256,196.30858116458333,196.67454473333333,73.0,94.0
257,196.67002666458333,198.81008522916667,75.0,97.0
258,199.56159066458335,199.84622899583334,73.0,95.0
259,199.92303616458335,200.0149035625,73.0,75.0
260,200.10375891458335,200.19261426666668,73.0,76.0
261,200.28448166458332,200.53899953750002,73.0,72.0
262,200.64592716458333,200.85375832708334,73.0,76.0
263,200.82664991458333,200.96520402291668,75.0,49.0
264,201.00737266458333,201.43809521875,77.0,66.0
265,201.36881816458333,201.76942026041667,75.0,72.0
266,201.73026366458333,202.09923927916668,73.0,72.0
267,202.09170916458334,202.44562455000002,77.0,63.0
268,202.45315466458334,203.50134661458333,70.0,63.0
269,205.34471866458333,205.57363414791666,75.0,101.0
270,205.70616416458333,205.79200747083334,75.0,95.0
271,205.88688691458333,205.969718175,75.0,89.0
272,206.06760966458333,206.29200707916667,75.0,92.0
273,206.42905516458333,206.584175525,75.0,96.0
274,206.60977791458333,206.84019942083333,77.0,91.0
275,206.79050066458333,207.1805606,75.0,93.0
276,207.15194616458334,207.38688573958333,73.0,91.0
277,207.51339166458334,207.83417454583335,73.0,90.0
278,207.87483716458334,208.22875255,70.0,92.0
279,208.23628266458334,209.87784764375002,68.0,99.0
280,210.40495566458333,210.77995537083333,63.0,87.0
281,210.76640116458333,211.13537677916668,65.0,73.0
282,211.12784666458333,211.41700306458333,68.0,94.0
283,211.48929216458333,211.77091845,68.0,66.0
284,211.85073766458333,212.20465305000002,68.0,90.0
285,212.21218316458334,212.58718287083335,65.0,84.0
286,212.57362866458334,212.98778496666668,68.0,99.0
287,213.29651966458334,213.68959164583333,73.0,101.0
288,213.65796516458335,213.96519383958335,75.0,101.0
289,214.01941066458335,215.76639724791667,70.0,103.0
290,216.91097466458334,217.3462152875,75.0,103.0
291,217.45314291458334,217.54651633541667,75.0,95.0
292,217.63386566458334,217.85374501041667,75.0,93.0
293,217.99531116458334,218.15796163958333,75.0,90.0
294,218.17603391458334,218.40645542083334,77.0,87.0
295,218.35675666458334,218.74229853125001,75.0,91.0
296,218.71820216458335,219.05253925208333,73.0,91.0
297,219.07964766458335,219.43808111875,70.0,91.0
298,219.44109316458335,219.99380357500002,73.0,93.0
299,220.16398416458333,221.31910374166668,73.0,97.0
300,222.69410266458334,222.89289768958335,73.0,98.0
301,223.05554816458334,223.13687340208335,73.0,92.0
302,223.23627091458334,223.32060819791667,73.0,86.0
303,223.41699366458334,223.59621039166666,73.0,90.0
304,223.77843916458335,223.9516318,73.0,90.0
305,223.95916191458335,224.1233184125,75.0,97.0
306,224.13988466458335,224.48777595833334,77.0,87.0
307,224.50133016458335,224.89741419166668,75.0,87.0
308,224.86277566458335,225.26488378333335,73.0,87.0
309,225.22422116458333,225.62181121458335,77.0,64.0
310,225.58566666458333,226.54500326250002,70.0,72.0
311,228.47723066458335,228.67301364375,75.0,90.0
312,228.83867616458335,228.89891708125,75.0,77.0
313,229.01939891458335,229.07813380833335,75.0,75.0
314,229.20012166458335,229.39741066666667,75.0,80.0
315,229.56156716458335,229.68656706666667,75.0,86.0
316,229.74228991458335,229.90945845833335,77.0,81.0
317,229.92301266458335,230.258855775,75.0,87.0
318,230.28445816458333,230.47722909791668,73.0,80.0
319,230.64590366458333,230.91397574375,73.0,84.0
320,231.00734916458333,231.40343319166666,70.0,65.0
321,231.36879466458333,232.93957656666666,68.0,90.0
322,233.53746766458335,233.909455325,63.0,63.0
323,233.89891316458335,234.21367195416667,65.0,63.0
324,234.26035866458335,234.52692472083334,68.0,87.0
325,234.62180416458335,234.87481601458333,68.0,93.0
326,234.98324966458333,235.35523732500002,68.0,97.0
327,235.34469516458333,235.69409248125,65.0,90.0
328,235.70614066458333,235.99830911041667,68.0,98.0
329,236.42903166458333,236.7919831875,73.0,106.0
330,236.79047716458334,237.126320275,75.0,101.0
331,237.15192266458334,238.68656001666668,70.0,100.0
332,240.04348666458333,240.40643818750002,75.0,101.0
333,240.58565491458333,240.67601628958334,75.0,87.0
334,240.76637766458333,241.10071475208335,75.0,90.0
335,241.12782316458333,241.52541321458335,77.0,93.0
336,241.48926866458334,241.91547315,75.0,99.0
337,241.85071416458334,242.21065364166668,73.0,94.0
338,242.21215966458334,242.59468948541667,70.0,87.0
339,242.57360516458334,242.93956873333335,73.0,94.0
340,242.93505066458334,245.07510922916669,75.0,97.0
341,245.82661466458333,246.11275901875,73.0,95.0
342,246.18806016458333,246.27842153958335,73.0,75.0
343,246.36878291458333,246.45613224375,73.0,76.0
344,246.54950566458334,246.8055295604167,73.0,72.0
345,246.91095116458334,247.11878232708335,73.0,76.0
346,247.09167391458334,247.23022802291666,75.0,49.0
347,247.27239666458334,247.74829990625,77.0,66.0
348,247.63384216458334,248.03293823750002,75.0,72.0
349,247.99528766458334,248.36576930208335,73.0,72.0
350,248.35673316458335,248.74679310000002,77.0,63.0
351,248.71817866458335,249.82811755416668,70.0,63.0
352,251.60974266458334,251.84016417083333,75.0,101.0
353,251.97118816458334,252.05853749375,75.0,95.0
354,252.15191091458334,252.234742175,75.0,89.0
355,252.33263366458334,252.55703107916668,75.0,92.0
356,252.69407916458334,252.84919952500002,75.0,96.0
357,252.87480191458334,253.10672944375,77.0,91.0
358,253.05552466458334,253.44558460000002,75.0,93.0
359,253.41697016458335,253.65190973958335,73.0,91.0
360,253.77841566458335,254.08564433958335,73.0,90.0
361,254.13986116458335,254.46365609166668,70.0,92.0
362,254.50130666458335,256.102209025,68.0,99.0
363,256.66997966458337,257.0434733479167,63.0,87.0
364,257.03142516458337,257.39889475625,65.0,73.0
365,257.3928706645833,257.6835330875,68.0,94.0
366,257.7543161645833,258.03594245,68.0,66.0
367,258.1157616645833,258.46967705000003,68.0,90.0
368,258.4772071645833,258.85220687083336,65.0,84.0
369,258.8386526645833,259.2528089666667,68.0,99.0
370,259.5615436645833,259.84768801875003,73.0,101.0
371,259.9229891645833,260.3281093291667,75.0,101.0
372,260.28443466458333,262.03292727083334,70.0,103.0
373,263.17599866458335,263.6112392875,75.0,103.0
374,263.7181669145833,263.8100343125,75.0,95.0
375,263.89888966458335,264.1172629875,75.0,93.0
376,264.26033516458335,264.4229856395833,75.0,90.0
377,264.4410579145833,264.67298544375,77.0,87.0
378,264.62178066458335,265.00882855416666,75.0,91.0
379,264.98322616458336,265.31756325208335,73.0,91.0
380,265.34467166458336,265.70310511875,70.0,91.0
381,265.70611716458336,266.258827575,73.0,93.0
382,266.42900816458337,267.5841277416667,73.0,97.0
383,268.9591266645833,269.3958733104167,75.0,100.0
384,269.50129491458335,269.66093334375,75.0,95.0
385,269.6820176645833,270.1187643104167,75.0,95.0
386,270.04346316458333,270.41394480208334,77.0,96.0
387,270.40490866458333,270.7859324625,75.0,103.0
388,270.76635416458333,271.2588236583333,73.0,98.0
389,271.30852241458336,271.825088275,70.0,91.0
390,271.85069066458334,274.0404479854167,73.0,90.0
391,274.74225466458336,278.69707084375,73.0,108.0
