,start,end,pitch,velocity
0,2.9352386645833333,4.971381647916667,73.0,42.0
1,2.9352386645833333,5.012044266666667,80.0,45.0
2,2.9352386645833333,5.048188816666666,77.0,51.0
3,5.826802664583333,7.82077700625,70.0,44.0
4,5.826802664583333,7.9216805416666665,77.0,51.0
5,5.826802664583333,7.9427648625,73.0,55.0
6,8.718366664583334,11.143063560416667,66.0,42.0
7,8.718366664583334,11.152099697916666,73.0,48.0
8,8.718366664583334,11.158123789583334,70.0,45.0
9,11.971376164583333,13.230411322916668,75.0,42.0
10,11.609930664583334,13.3283028125,68.0,58.0
11,14.501494664583333,15.209325435416668,68.0,66.0
12,14.501494664583333,15.259024191666667,65.0,62.0
13,14.501494664583333,15.263542260416667,63.0,61.0
14,15.224385664583334,15.995469397916667,61.0,61.0
15,15.585831164583334,16.171674079166667,63.0,57.0
16,15.585831164583334,16.356914897916667,68.0,66.0
17,16.308722164583333,16.70330016875,61.0,43.0
18,14.501494664583333,16.751492902083335,49.0,50.0
19,14.862940164583334,16.831312116666666,56.0,48.0
20,16.670167664583335,16.9246855375,63.0,50.0
21,16.670167664583335,17.042155325,65.0,66.0
22,17.393058664583332,17.957817258333336,61.0,56.0
23,17.031613164583334,17.9728774875,68.0,61.0
24,17.393058664583332,17.977395556250002,65.0,61.0
25,18.115949664583333,18.82679248125,58.0,46.0
26,18.477395164583335,19.1114308125,65.0,49.0
27,18.477395164583335,19.131009110416667,68.0,56.0
28,18.477395164583335,19.23944276041667,73.0,49.0
29,19.561731664583334,19.749984529166667,65.0,67.0
30,19.561731664583334,19.752996575,68.0,63.0
31,17.393058664583332,19.76655078125,46.0,36.0
32,17.754504164583334,19.76655078125,53.0,54.0
33,19.561731664583334,19.76655078125,61.0,60.0
34,19.200286164583336,19.786129079166667,58.0,40.0
35,20.284622664583335,20.605405545833335,39.0,64.0
36,20.646068164583333,21.109923222916667,51.0,49.0
37,20.284622664583335,21.191248460416666,61.0,63.0
38,20.284622664583335,21.222874941666667,58.0,53.0
39,20.284622664583335,21.373477233333332,63.0,62.0
40,20.284622664583335,21.385525416666667,66.0,49.0
41,21.730404664583332,22.2379343875,58.0,46.0
42,21.368959164583334,22.578295566666668,54.0,64.0
43,21.007513664583335,22.647572620833333,53.0,61.0
44,22.453295664583333,22.6897412625,66.0,70.0
45,22.091850164583335,22.7710665,61.0,57.0
46,22.453295664583333,22.8704640125,58.0,64.0
47,22.814741164583335,23.097873472916667,63.0,64.0
48,23.176186664583334,23.873475275,63.0,57.0
49,23.176186664583334,23.881005389583333,60.0,63.0
50,23.899077664583334,24.420161593750002,56.0,47.0
51,24.260523164583333,24.719860154166668,60.0,60.0
52,23.537632164583336,24.7680528875,51.0,45.0
53,23.176186664583334,24.99847439375,68.0,50.0
54,24.621968664583335,24.999980416666666,61.0,67.0
55,24.621968664583335,25.058715310416666,56.0,52.0
56,24.983414164583333,25.28763079375,63.0,67.0
57,23.176186664583334,25.456305360416668,44.0,54.0
58,24.983414164583333,25.468353543750002,51.0,42.0
59,25.344859664583336,25.60389560625,56.0,50.0
60,25.344859664583336,25.668654591666666,65.0,76.0
61,26.067750664583333,26.495461172916666,63.0,59.0
62,26.067750664583333,26.496967195833335,68.0,70.0
63,26.790641664583333,27.096364316666666,63.0,49.0
64,26.429196164583335,27.307207525,60.0,56.0
65,27.152087164583335,27.6957614375,63.0,47.0
66,27.152087164583335,27.81774929375,68.0,69.0
67,27.874978164583332,28.379495841666667,60.0,63.0
68,26.067750664583333,28.4096163,53.0,73.0
69,28.236423664583334,28.49545960625,68.0,63.0
70,28.236423664583334,28.527086087500003,63.0,72.0
71,28.597869164583333,28.884013518750002,65.0,61.0
72,28.959314664583335,29.531603372916667,65.0,69.0
73,28.959314664583335,29.599374404166667,61.0,64.0
74,30.043651164583334,30.373470183333335,60.0,58.0
75,30.043651164583334,30.4337111,63.0,63.0
76,29.682205664583336,30.50298815416667,58.0,48.0
77,30.405096664583333,30.80118069166667,61.0,62.0
78,30.405096664583333,30.978891395833333,65.0,69.0
79,31.127987664583333,31.3102164375,58.0,52.0
80,29.320760164583334,31.340336895833335,53.0,49.0
81,28.959314664583335,31.3644332625,46.0,66.0
82,31.308710414583334,31.54063794375,60.0,51.0
83,31.489433164583335,31.686722166666666,61.0,59.0
84,31.670155914583333,31.873469008333334,63.0,57.0
85,31.850878664583334,32.34786622708334,61.0,64.0
86,31.850878664583334,32.3764806625,66.0,63.0
87,31.850878664583334,32.38702282291667,58.0,63.0
88,31.850878664583334,32.67919126875,51.0,52.0
89,32.57376966458333,32.953287439583335,66.0,58.0
90,32.57376966458333,32.974371760416666,61.0,63.0
91,32.57376966458333,33.00599824166667,58.0,57.0
92,31.850878664583334,33.2981666875,39.0,62.0
93,32.93521516458333,33.36141965,51.0,47.0
94,33.296660664583335,33.71834708125,66.0,60.0
95,33.296660664583335,33.74244344791667,61.0,66.0
96,33.296660664583335,33.771057883333334,58.0,59.0
97,33.296660664583335,34.17919009375,44.0,66.0
98,34.01955166458333,34.194250322916666,66.0,62.0
99,34.01955166458333,34.25449123958333,61.0,70.0
100,34.01955166458333,34.30418999583333,58.0,61.0
101,34.380997164583334,34.4909368375,44.0,64.0
102,34.742442664583336,35.12798453125,60.0,63.0
103,34.742442664583336,35.140032714583334,65.0,60.0
104,34.742442664583336,35.15509294375,56.0,55.0
105,35.10388816458333,35.49545412291667,49.0,45.0
106,35.46533366458333,35.75147801875,58.0,46.0
107,35.46533366458333,35.75750211041667,61.0,54.0
108,35.46533366458333,36.082803060416666,66.0,54.0
109,36.18822466458334,36.50750152291667,56.0,48.0
110,36.18822466458334,36.762019395833335,61.0,57.0
111,36.18822466458334,36.81924826666667,65.0,49.0
112,34.742442664583336,36.84334463333334,37.0,70.0
113,35.826779164583336,36.884007252083336,49.0,32.0
114,37.45328391458334,38.12948820416667,65.0,44.0
115,37.63400666458333,38.26201822083333,68.0,58.0
116,37.63400666458333,38.463825291666666,73.0,63.0
117,38.71834316458333,39.302680056250004,63.0,45.0
118,38.356897664583336,39.71984840416667,61.0,50.0
119,37.63400666458333,39.84183626041667,49.0,49.0
120,39.07978866458333,39.843342283333335,65.0,49.0
121,37.995452164583334,39.88099285625,56.0,47.0
122,40.525570664583334,40.73189580416667,70.0,42.0
123,40.525570664583334,40.879486050000004,41.0,55.0
124,40.34484791458333,40.89906434791667,63.0,41.0
125,40.887016164583336,41.27255803125,53.0,48.0
126,40.34484791458333,41.44123259791667,68.0,52.0
127,40.525570664583334,41.56020840833333,72.0,59.0
128,41.971352664583335,42.49846068541667,63.0,32.0
129,41.60990716458333,42.80870140625,60.0,60.0
130,41.24846166458333,42.88400255208334,56.0,58.0
131,42.69424366458333,43.34484556458334,68.0,47.0
132,43.41713466458334,43.630989918750004,61.0,38.0
133,43.41713466458334,43.73942356875,66.0,54.0
134,43.41713466458334,43.85689335625,70.0,64.0
135,43.77858016458333,44.102375091666666,61.0,45.0
136,43.41713466458334,44.3945435375,42.0,55.0
137,44.140025664583334,44.50598923333334,66.0,61.0
138,44.140025664583334,44.73490471666667,54.0,47.0
139,44.501471164583336,44.96833826875,73.0,70.0
140,43.77858016458333,45.25900069166667,49.0,50.0
141,44.86291666458334,45.33731388333334,63.0,43.0
142,44.86291666458334,45.62948232916667,72.0,52.0
143,45.585807664583335,46.27857820625,70.0,49.0
144,46.30869866458333,46.897553625,44.0,54.0
145,46.670144164583334,46.99544511458333,51.0,45.0
146,47.031589664583336,47.48038449375,56.0,48.0
147,46.30869866458333,47.728878275,68.0,59.0
148,46.30869866458333,47.73942043541667,63.0,48.0
149,48.115926164583335,48.54062462708333,63.0,39.0
150,47.39303516458333,48.62044384166667,58.0,47.0
151,47.75448066458333,48.653576345833336,60.0,42.0
152,48.47737166458334,48.771046133333336,68.0,45.0
153,48.83881716458333,49.40206973541667,73.0,54.0
154,49.200262664583335,49.61893703541667,63.0,49.0
155,49.200262664583335,49.6355032875,68.0,56.0
156,49.92315366458333,50.3222497375,63.0,53.0
157,50.284599164583334,50.728875925000004,70.0,48.0
158,49.56170816458334,51.4969476125,60.0,46.0
159,49.200262664583335,51.57526080416667,53.0,63.0
160,51.36893566458333,51.70026070625,75.0,34.0
161,50.646044664583336,51.86140515833333,72.0,51.0
162,52.09182666458334,52.582790135416666,65.0,50.0
163,52.09182666458334,52.86291039791667,73.0,50.0
164,52.814717664583334,53.019536781250004,63.0,51.0
165,52.814717664583334,53.03459701041667,72.0,60.0
166,53.53760866458334,54.307186375,61.0,48.0
167,53.53760866458334,54.34031887916667,70.0,51.0
168,52.09182666458334,54.409595933333335,46.0,49.0
169,52.814717664583334,54.41110195625,58.0,39.0
170,52.45327216458333,54.451764575,53.0,37.0
171,54.98339066458333,55.618932335416666,66.0,48.0
172,54.98339066458333,55.62495642708333,70.0,49.0
173,56.06772716458333,56.52857017708334,65.0,42.0
174,55.70628166458334,56.981883075,63.0,52.0
175,56.429172664583334,57.06471433541667,66.0,45.0
176,54.98339066458333,57.216822650000005,51.0,46.0
177,55.344836164583334,57.233388902083334,58.0,44.0
178,57.874954664583335,58.40206268541667,66.0,39.0
179,57.874954664583335,58.43368916666667,61.0,45.0
180,57.874954664583335,58.48941201458334,58.0,39.0
181,58.959291164583334,59.316218595833334,61.0,46.0
182,59.320736664583336,59.75447126458334,68.0,37.0
183,59.320736664583336,59.79362786041667,63.0,31.0
184,59.320736664583336,59.8553748,60.0,41.0
185,57.874954664583335,60.3342900875,44.0,46.0
186,60.04362766458333,60.370434637500004,66.0,58.0
187,58.23640016458334,60.38097679791667,51.0,44.0
188,58.59784566458333,60.383988843750004,56.0,53.0
189,60.04362766458333,60.402061118750005,61.0,53.0
190,60.76651866458334,61.12645814166667,63.0,44.0
191,60.76651866458334,61.15206053125,61.0,56.0
192,60.76651866458334,61.17163882916667,65.0,49.0
193,61.12796416458333,62.2680235125,56.0,48.0
194,61.850855164583336,62.60838469166667,63.0,36.0
195,62.21230066458334,62.63248105833333,65.0,49.0
196,62.21230066458334,62.63850515,68.0,55.0
197,61.489409664583334,62.664107539583334,61.0,40.0
198,60.76651866458334,63.126456575,49.0,54.0
199,62.57374616458333,63.25898659166667,56.0,31.0
200,62.935191664583336,63.27705886666667,63.0,57.0
201,62.935191664583336,63.323745577083336,68.0,51.0
202,63.29663716458334,63.62946822916667,65.0,54.0
203,63.65808266458333,63.99693782083334,41.0,60.0
204,64.01952816458333,64.4366965125,53.0,53.0
205,63.65808266458333,64.70025052291666,63.0,54.0
206,63.65808266458333,64.716816775,68.0,54.0
207,65.10386466458334,65.439707775,63.0,49.0
208,65.46531016458333,65.77103281666668,68.0,51.0
209,64.74241916458334,65.85687612291667,60.0,58.0
210,64.38097366458334,65.89904476458334,56.0,63.0
211,65.82675566458333,66.2077794625,70.0,62.0
212,66.18820116458333,66.46982745,72.0,49.0
213,66.54964666458334,66.993923425,70.0,49.0
214,66.54964666458334,66.99994751666667,68.0,47.0
215,66.54964666458334,67.22434493125,58.0,50.0
216,66.54964666458334,67.24994732083333,61.0,61.0
217,66.54964666458334,67.68669396666667,42.0,69.0
218,67.27253766458334,67.84332035,54.0,48.0
219,67.63398316458334,68.07976594791667,70.0,61.0
220,67.99542866458333,68.92313878125,68.0,63.0
221,66.91109216458334,68.92615082708333,49.0,64.0
222,69.07976516458334,69.30416257916667,67.0,49.0
223,69.26048791458334,69.41410225208334,66.0,58.0
224,69.44121066458334,70.00898130416667,44.0,62.0
225,69.80265616458334,70.13699325208333,51.0,51.0
226,69.44121066458334,70.41560749166666,65.0,60.0
227,70.16410166458334,70.61590853958333,56.0,47.0
228,70.52554716458333,70.92614926041666,68.0,55.0
229,70.88699266458333,71.548136725,63.0,48.0
230,70.88699266458333,71.70175106250001,60.0,56.0
231,70.52554716458333,71.73488356666667,58.0,49.0
232,71.60988366458334,72.02102792083333,68.0,73.0
233,72.15205191458334,72.30867829791667,63.0,47.0
234,72.15205191458334,72.50446127708334,68.0,62.0
235,72.33277466458334,72.93367780833333,75.0,66.0
236,73.41711116458333,73.58427970833334,68.0,49.0
237,73.41711116458333,73.60536402916667,75.0,62.0
238,72.69422016458334,73.79512291666667,60.0,50.0
239,73.05566566458333,73.95024327708333,65.0,49.0
240,73.77855666458333,74.12192988958334,68.0,48.0
241,73.77855666458333,74.33729116666667,72.0,44.0
242,72.33277466458334,74.62192949791667,53.0,52.0
243,74.14000216458334,74.64903791041667,60.0,42.0
244,74.50144766458334,74.75144746875,63.0,50.0
245,74.50144766458334,74.76198962916666,70.0,53.0
246,75.22433866458333,75.8222297625,46.0,57.0
247,75.58578416458333,75.9487356875,53.0,48.0
248,75.94722966458333,76.43969915833334,58.0,44.0
249,75.22433866458333,76.47584370833333,65.0,49.0
250,74.86289316458334,76.62042190833334,68.0,57.0
251,75.22433866458333,76.716807375,73.0,58.0
252,76.67012066458334,77.35234904583334,61.0,57.0
253,76.30867516458333,77.39301166458334,60.0,57.0
254,77.03156616458334,77.44421644375001,65.0,45.0
255,77.39301166458334,77.91409559375,68.0,60.0
256,78.11590266458333,78.52855294375,61.0,49.0
257,78.11590266458333,78.53758908125,66.0,58.0
258,78.11590266458333,78.54210715,70.0,50.0
259,78.11590266458333,79.21529939375,51.0,63.0
260,78.47734816458333,79.2559620125,58.0,48.0
261,78.83879366458333,79.26650417291667,61.0,56.0
262,79.20023916458334,79.5812629625,66.0,64.0
263,79.56168466458334,79.5812629625,66.0,57.0
264,79.56168466458334,79.68819058958333,70.0,58.0
265,79.56168466458334,80.29812987083334,58.0,56.0
266,79.56168466458334,80.3041539625,61.0,62.0
267,80.28457566458333,80.49692489583333,56.0,57.0
268,79.56168466458334,80.58578024791667,44.0,62.0
269,79.92313016458334,80.58578024791667,51.0,52.0
270,80.64602116458333,80.97584018333333,66.0,64.0
271,81.00746666458333,81.32373147708334,37.0,61.0
272,81.36891216458334,81.88397200208334,49.0,56.0
273,81.00746666458333,82.2378873875,61.0,58.0
274,81.00746666458333,82.26047773125,56.0,51.0
275,81.00746666458333,82.31469455625,65.0,55.0
276,82.45324866458334,82.64150152916667,56.0,57.0
277,82.63397141458334,82.83879053125,61.0,64.0
278,82.81469416458333,82.92613986041667,63.0,59.0
279,82.99541691458333,83.21830830625001,65.0,75.0
280,83.17613966458333,83.3764407125,68.0,39.0
281,81.73035766458334,83.39451298750001,51.0,58.0
282,82.09180316458334,83.40656117083334,53.0,64.0
283,83.35686241458333,83.64451279166667,70.0,57.0
284,83.53758516458333,83.79511508333333,72.0,57.0
285,83.89903066458334,84.32975321875,68.0,69.0
286,83.71830791458333,84.34481344791666,73.0,59.0
287,83.89903066458334,84.34481344791666,73.0,64.0
288,83.89903066458334,84.35384958541667,65.0,63.0
289,84.62192166458334,84.99541534791666,68.0,63.0
290,84.62192166458334,85.00896955416667,73.0,62.0
291,84.62192166458334,85.0119816,65.0,58.0
292,83.89903066458334,85.43969210833333,61.0,60.0
293,85.34481266458333,85.69420998125,73.0,52.0
294,85.34481266458333,85.69872805,68.0,59.0
295,85.34481266458333,85.71228225625,65.0,50.0
296,85.70625816458333,86.26047459791667,61.0,32.0
297,83.89903066458334,86.39601666041666,49.0,60.0
298,86.06770366458333,86.43517325625,68.0,69.0
299,86.06770366458333,86.44420939375,65.0,62.0
300,86.06770366458333,86.47734189791667,73.0,67.0
301,86.42914916458334,86.77704045833333,56.0,39.0
302,86.79059466458334,87.17312448541666,73.0,55.0
303,86.79059466458334,87.20023289791666,65.0,58.0
304,86.79059466458334,87.20324494375001,68.0,64.0
305,87.15204016458334,87.54511214583333,53.0,50.0
306,86.79059466458334,87.61589522291666,46.0,58.0
307,87.51348566458334,87.92312389791667,73.0,46.0
308,87.51348566458334,87.92914798958334,68.0,61.0
309,87.51348566458334,87.93216003541667,65.0,50.0
310,87.51348566458334,88.01950936458334,58.0,39.0
311,87.87493116458333,88.427641575,60.0,36.0
312,88.23637666458333,88.55264147708334,68.0,57.0
313,88.23637666458333,88.62041250833333,65.0,47.0
314,88.23637666458333,88.65505103541668,73.0,46.0
315,88.23637666458333,89.0872796125,61.0,63.0
316,88.59782216458333,89.17161689583334,60.0,46.0
317,88.95926766458334,89.20023133125001,73.0,63.0
318,88.95926766458334,89.21529156041667,68.0,75.0
319,88.95926766458334,89.23336383541667,65.0,66.0
320,89.32071316458334,89.63999002291666,68.0,69.0
321,89.68215866458334,90.04962825625,39.0,62.0
322,89.68215866458334,90.12191735625001,70.0,59.0
323,89.68215866458334,90.13998963125,63.0,69.0
324,89.68215866458334,90.16107395208334,66.0,57.0
325,90.04360416458334,90.46980865,51.0,56.0
326,90.40504966458333,90.79812164583333,63.0,57.0
327,90.40504966458333,90.80113369166666,70.0,61.0
328,90.40504966458333,90.80715778333334,66.0,66.0
329,91.12794066458333,91.49691627916667,63.0,49.0
330,91.12794066458333,91.51197650833333,70.0,50.0
331,91.12794066458333,91.52402469166667,66.0,49.0
332,91.48938616458334,91.95625326875,61.0,49.0
333,90.76649516458333,92.04661464375,58.0,56.0
334,90.40504966458333,92.06468691875,54.0,63.0
335,91.85083166458334,92.18366272916667,65.0,73.0
336,92.21227716458334,92.48336128958334,66.0,69.0
337,92.57372266458333,92.96830066875,72.0,61.0
338,92.57372266458333,93.06016806666666,68.0,61.0
339,92.57372266458333,93.09781863958334,63.0,57.0
340,93.65805916458334,93.82372168541667,58.0,57.0
341,93.29661366458333,93.83727589166666,56.0,51.0
342,93.65805916458334,93.85685418958333,66.0,64.0
343,93.65805916458334,93.90052885416667,61.0,66.0
344,94.01950466458334,94.42010676041667,63.0,64.0
345,94.01950466458334,94.42613085208333,68.0,70.0
346,94.01950466458334,94.47131153958334,60.0,67.0
347,92.93516816458333,94.72281736666667,51.0,49.0
348,94.38095016458334,94.87643170416666,56.0,33.0
349,94.74239566458334,94.98938342291667,66.0,66.0
350,94.74239566458334,95.07070866041667,61.0,73.0
351,92.57372266458333,95.1595640125,44.0,62.0
352,95.10384116458333,95.20323867708333,51.0,58.0
353,95.46528666458333,95.80865988958334,41.0,73.0
354,95.46528666458333,95.9366718375,56.0,59.0
355,95.46528666458333,96.15203311458333,60.0,67.0
356,95.46528666458333,96.18968368750001,63.0,70.0
357,95.82673216458333,96.22884028333334,53.0,53.0
358,96.91106866458334,97.09179141458334,68.0,58.0
359,96.54962316458334,97.14450221666667,60.0,62.0
360,96.91106866458334,97.1836588125,72.0,58.0
361,97.27251416458334,97.40504418125,73.0,62.0
362,97.27251416458334,97.51950192291667,68.0,58.0
363,96.91106866458334,97.56618863333334,63.0,47.0
364,97.63395966458333,97.87642935416667,75.0,64.0
365,97.63395966458333,97.94118833958333,60.0,52.0
366,97.63395966458333,97.97883891250001,68.0,49.0
367,96.18817766458334,98.03606778333334,56.0,64.0
368,97.99540516458333,98.33426032083334,72.0,67.0
369,98.35685066458333,99.036067,46.0,62.0
370,98.71829616458334,99.11438019166667,53.0,56.0
371,99.07974166458334,99.50594615,58.0,56.0
372,98.35685066458333,99.84630732916666,68.0,60.0
373,98.35685066458333,99.85383744375001,65.0,58.0
374,98.35685066458333,99.86588562708333,73.0,67.0
375,99.80263266458334,100.20775282916667,61.0,69.0
376,100.16407816458333,100.37190932708333,65.0,64.0
377,100.16407816458333,100.40805387708333,73.0,66.0
378,100.16407816458333,100.56166821458334,68.0,70.0
379,100.52552366458333,100.644499475,73.0,46.0
380,100.52552366458333,100.73636687291668,61.0,62.0
381,99.44118716458334,100.75895721666667,60.0,51.0
382,100.52552366458333,100.7619692625,72.0,62.0
383,100.52552366458333,100.83124631666666,65.0,63.0
384,100.88696916458333,101.186667725,68.0,62.0
385,101.24841466458334,101.60835414166667,39.0,72.0
386,101.60986016458334,102.06769113125,51.0,58.0
387,101.24841466458334,102.36889571458333,66.0,66.0
388,101.24841466458334,102.415582425,61.0,67.0
389,101.24841466458334,102.43516072291666,70.0,63.0
390,102.33275116458334,103.210762525,54.0,63.0
391,103.05564216458333,103.29961787708334,61.0,48.0
392,102.69419666458333,103.46528039791667,58.0,49.0
393,103.23636491458333,103.50293097083333,66.0,66.0
394,101.97130566458334,103.62793087291666,53.0,62.0
395,103.41708766458333,103.71979827083334,68.0,67.0
396,103.59781041458334,103.84781021875,70.0,64.0
397,103.77853316458334,103.99540046458334,73.0,63.0
398,103.95925591458334,104.10835218333334,68.0,58.0
399,104.13997866458334,104.29208697916667,70.0,66.0
400,104.13997866458334,104.81467693125,72.0,58.0
401,104.86286966458334,105.34630302083333,56.0,70.0
402,105.22431516458333,105.41106200625,58.0,36.0
403,105.22431516458333,105.43064030416667,66.0,73.0
404,105.22431516458333,105.45473667083334,61.0,47.0
405,104.50142416458334,105.70624249791668,51.0,60.0
406,105.58576066458333,105.78154364375,60.0,64.0
407,105.58576066458333,105.83877251458334,68.0,63.0
408,105.58576066458333,106.01045912708334,56.0,57.0
409,106.30865166458334,106.44720577291667,65.0,66.0
410,106.30865166458334,106.49389248333334,73.0,78.0
411,105.94720616458333,106.53756714791668,51.0,54.0
412,104.13997866458334,106.54660328541667,44.0,69.0
413,106.30865166458334,106.69720557708334,56.0,53.0
414,106.67009716458334,106.79509706666667,66.0,55.0
415,106.67009716458334,106.83575968541668,75.0,64.0
416,107.03154266458334,107.38545805,73.0,66.0
417,107.03154266458334,107.39298816458334,77.0,59.0
418,107.03154266458334,107.43515680625,68.0,53.0
419,107.39298816458334,107.84931310833333,56.0,50.0
420,107.75443366458333,108.09630086666667,65.0,66.0
421,107.75443366458333,108.10081893541667,68.0,67.0
422,107.75443366458333,108.13846950833333,63.0,59.0
423,107.75443366458333,108.40804761041667,61.0,53.0
424,108.47732466458334,108.84027618750001,68.0,61.0
425,108.47732466458334,108.94117972291667,63.0,60.0
426,108.47732466458334,108.97732427291668,65.0,67.0
427,108.29660191458333,109.25292646666666,56.0,13.0
428,109.01949291458334,109.32672158958334,61.0,48.0
429,107.03154266458334,109.45774558333333,49.0,61.0
430,109.20021566458334,109.499914225,63.0,69.0
431,109.20021566458334,109.53003468333334,65.0,76.0
432,109.20021566458334,109.5631671875,68.0,70.0
433,109.56166116458334,109.78756460208334,56.0,45.0
434,109.74238391458334,109.83123926666667,48.0,44.0
435,109.92310666458333,110.26045579791666,65.0,64.0
436,109.92310666458333,110.28003409583333,61.0,66.0
437,109.92310666458333,110.30563648541667,68.0,64.0
438,110.28455216458333,110.69720244375,53.0,46.0
439,110.64599766458333,110.99539498125,60.0,51.0
440,110.64599766458333,111.01196123333334,61.0,56.0
441,110.64599766458333,111.02551543958333,65.0,53.0
442,110.64599766458333,111.36135855,58.0,46.0
443,111.36888866458334,111.73786427916667,65.0,55.0
444,111.36888866458334,111.7679847375,61.0,59.0
445,111.36888866458334,111.77099678333333,60.0,46.0
446,111.00744316458334,112.02400863333334,53.0,36.0
447,111.73033416458334,112.19418922291666,58.0,48.0
448,112.09177966458334,112.2649723,60.0,64.0
449,112.09177966458334,112.26647832291667,65.0,70.0
450,112.09177966458334,112.26949036875,68.0,67.0
451,112.09177966458334,112.27250241458334,61.0,67.0
452,109.92310666458333,112.35232162916667,46.0,75.0
453,112.27250241458334,112.38696015625,53.0,61.0
454,112.45322516458333,112.71828519791667,63.0,59.0
455,112.63394791458333,112.80864657291667,65.0,63.0
456,112.81467066458333,113.20924866875,58.0,64.0
457,112.81467066458333,113.20924866875,61.0,70.0
458,112.81467066458333,113.21376673750001,66.0,72.0
459,113.17611616458333,113.68063384166668,51.0,39.0
460,113.53756166458334,113.85834454583333,61.0,62.0
461,113.53756166458334,113.87491079791667,66.0,54.0
462,113.53756166458334,113.88093488958333,58.0,51.0
463,113.89900716458334,114.40352484166667,51.0,37.0
464,114.26045266458334,114.60382588958333,61.0,57.0
465,114.26045266458334,114.66557282916666,66.0,44.0
466,114.26045266458334,114.66858487500001,58.0,44.0
467,114.62189816458334,114.94418706875,51.0,34.0
468,112.81467066458333,115.15201823125,39.0,73.0
469,114.98334366458333,115.40503008125,61.0,72.0
470,114.98334366458333,115.40954815,58.0,69.0
471,114.98334366458333,115.42310235625,66.0,69.0
472,115.34478916458333,115.56316248750001,42.0,51.0
473,115.70623466458333,116.09027050833333,66.0,76.0
474,115.70623466458333,116.11737892083333,61.0,80.0
475,115.70623466458333,116.1414752875,58.0,72.0
476,116.42912566458334,116.65201705625,66.0,72.0
477,116.42912566458334,116.71677604166668,58.0,63.0
478,116.06768016458334,116.7468965,51.0,49.0
479,116.42912566458334,116.7468965,61.0,72.0
480,115.52551191458333,116.93364334166667,44.0,62.0
481,116.97129391458334,117.12340222916667,51.0,34.0
482,116.79057116458334,117.13695643541666,56.0,44.0
483,117.15201666458334,117.50743807291667,68.0,60.0
484,117.15201666458334,117.51798023333333,63.0,60.0
485,117.15201666458334,117.58575126458334,60.0,61.0
486,117.51346216458333,117.95171483333334,56.0,43.0
487,117.15201666458334,117.98785938333333,44.0,69.0
488,117.87490766458333,118.10834121666667,66.0,70.0
489,117.87490766458333,118.16406406458334,58.0,67.0
490,117.87490766458333,118.17611224791666,61.0,73.0
491,118.23635316458333,118.33424465416667,54.0,57.0
492,118.23635316458333,118.41105182291668,42.0,62.0
493,118.59779866458334,119.00743689791668,63.0,61.0
494,118.59779866458334,119.02400315,56.0,51.0
495,118.59779866458334,119.02701519583334,60.0,60.0
496,118.59779866458334,119.0601477,68.0,40.0
497,118.59779866458334,119.4125570625,53.0,57.0
498,119.32068966458334,119.74689415,60.0,57.0
499,119.32068966458334,119.75894233333334,63.0,60.0
500,119.32068966458334,119.76948449375,56.0,50.0
501,119.32068966458334,119.81315915833333,68.0,46.0
502,119.68213516458334,120.11737578750001,53.0,37.0
503,118.59779866458334,120.50592970000001,41.0,67.0
504,120.04358066458333,120.68966449583334,60.0,66.0
505,120.40502616458333,120.80412223750001,53.0,54.0
506,120.04358066458333,120.82520655833333,56.0,59.0
507,120.04358066458333,120.83273667291667,63.0,64.0
508,120.04358066458333,120.8402667875,68.0,43.0
509,120.76647166458334,121.00894135416667,44.0,66.0
510,121.12791716458334,121.44870004583333,68.0,66.0
511,121.48936266458334,121.52098914583334,68.0,31.0
512,121.48936266458334,121.82972384375,61.0,64.0
513,121.48936266458334,121.83725395833333,65.0,69.0
514,121.85080816458334,122.17159104583334,63.0,52.0
515,121.48936266458334,122.18514525208333,46.0,67.0
516,121.85080816458334,122.20622957291667,53.0,51.0
517,121.85080816458334,122.27400060416667,60.0,48.0
518,122.21225366458334,122.29960299375,61.0,56.0
519,122.21225366458334,122.548096775,65.0,66.0
520,122.21225366458334,122.68514486041667,58.0,41.0
521,122.57369916458333,122.68815690625,60.0,55.0
522,122.93514466458333,122.97580728333334,56.0,66.0
523,122.57369916458333,122.98785546666667,68.0,57.0
524,122.93514466458333,123.34177085208334,61.0,62.0
525,123.65803566458334,123.84779455208334,56.0,53.0
526,123.65803566458334,123.87038489583334,61.0,54.0
527,124.01948116458334,124.35231222916667,65.0,64.0
528,124.38092666458334,124.75140830208333,66.0,51.0
529,124.38092666458334,124.80713115,58.0,54.0
530,124.38092666458334,124.81164921875,61.0,59.0
531,124.74237216458333,125.25140791041667,51.0,45.0
532,125.10381766458333,125.28905848333333,61.0,39.0
533,125.10381766458333,125.31315485,66.0,50.0
534,124.38092666458334,125.46827521041666,39.0,45.0
535,125.10381766458333,125.55411851666668,58.0,57.0
536,125.46526316458333,125.70773285416666,51.0,41.0
537,125.46526316458333,125.73935933541667,65.0,62.0
538,125.82670866458334,126.39598532708334,66.0,66.0
539,125.82670866458334,126.49538283958334,58.0,59.0
540,125.82670866458334,126.52249125208334,61.0,60.0
541,126.18815416458334,126.75893685,51.0,55.0
542,125.82670866458334,126.82068378958334,44.0,70.0
543,126.91104516458334,127.23182804583334,66.0,64.0
544,126.54959966458334,127.31616532916667,56.0,50.0
545,127.27249066458333,127.39899658958333,63.0,51.0
546,127.27249066458333,127.70923731041667,65.0,75.0
547,128.35682716458334,128.68514016041667,63.0,55.0
548,128.71827266458334,128.94417610208333,65.0,61.0
549,129.07971816458334,129.27700716666666,68.0,50.0
550,129.44116366458334,129.56766958958335,73.0,67.0
551,127.99538166458333,129.668573125,61.0,48.0
552,127.63393616458333,129.71375381250002,56.0,53.0
553,127.27249066458333,129.73483813333334,49.0,63.0
554,129.80260916458334,130.07670533541668,75.0,55.0
555,130.16405466458335,130.57519892083334,77.0,59.0
556,130.16405466458335,130.59477721875,73.0,57.0
557,130.16405466458335,130.63242779166666,68.0,55.0
558,130.88694566458335,131.24236707291666,68.0,46.0
559,130.88694566458335,131.25893332500002,65.0,51.0
560,130.88694566458335,131.27851162291668,63.0,46.0
561,131.24839116458332,131.66706553541667,61.0,32.0
562,131.60983666458333,131.93965568333334,65.0,59.0
563,131.60983666458333,131.94869182083335,68.0,58.0
564,131.60983666458333,131.96676409583333,63.0,53.0
565,130.52550016458335,132.31164334375,56.0,47.0
566,131.97128216458333,132.41706494791666,61.0,36.0
567,130.16405466458335,132.62489611041667,49.0,70.0
568,132.33272766458333,132.64598043125,63.0,57.0
569,132.33272766458333,132.65501656875,65.0,63.0
570,132.33272766458333,132.67308884375,68.0,62.0
571,132.69417316458333,132.81616102083333,56.0,67.0
572,133.05561866458333,133.46826894375,61.0,57.0
573,133.05561866458333,133.46977496666668,68.0,56.0
574,133.05561866458333,133.47730508125,65.0,61.0
575,133.77850966458334,134.05260583541667,65.0,53.0
576,133.77850966458334,134.07519617916668,68.0,59.0
577,133.77850966458334,134.10832868333333,61.0,53.0
578,134.13995516458334,134.60531624583334,58.0,42.0
579,134.50140066458334,134.94868947083333,65.0,66.0
580,134.50140066458334,135.03453277708334,60.0,66.0
581,134.50140066458334,135.03453277708334,68.0,57.0
582,134.50140066458334,135.04808698333335,61.0,72.0
583,133.41706416458334,135.162544725,53.0,37.0
584,135.04356891458335,135.31013497083333,58.0,44.0
585,135.22429166458335,135.43965294166668,60.0,59.0
586,133.05561866458333,135.45019510208334,46.0,67.0
587,135.40501441458335,135.58272511875,61.0,62.0
588,135.58573716458335,135.84326708333333,63.0,50.0
589,135.76645991458335,135.92760436666666,65.0,66.0
590,135.94718266458332,136.30862816458333,66.0,75.0
591,135.94718266458332,136.39597749375,61.0,73.0
592,135.94718266458332,136.40651965416666,58.0,66.0
593,135.94718266458332,136.76344708541666,51.0,52.0
594,136.67007366458333,137.02398905,61.0,52.0
595,136.67007366458333,137.06615769166666,58.0,45.0
596,136.67007366458333,137.08121792083332,66.0,44.0
597,137.03151916458333,137.49085615416666,51.0,35.0
598,137.39296466458333,137.79808482916667,61.0,64.0
599,137.39296466458333,137.81465108125,66.0,54.0
600,137.39296466458333,137.83121733333334,58.0,56.0
601,135.94718266458332,138.08272316041666,39.0,58.0
602,137.75441016458333,138.14145805416666,51.0,36.0
603,138.11585566458334,138.65802391458334,58.0,66.0
604,138.47730116458334,138.66706005208334,42.0,72.0
605,138.11585566458334,138.70922869375,66.0,69.0
606,138.11585566458334,138.73483108333335,61.0,76.0
607,138.83874666458334,139.30711979166668,66.0,61.0
608,138.83874666458334,139.319167975,61.0,64.0
609,138.83874666458334,139.32368604375,58.0,58.0
610,139.56163766458334,139.7619387125,66.0,73.0
611,139.56163766458334,139.82368565208333,58.0,69.0
612,139.20019216458334,139.85983020208334,51.0,64.0
613,139.56163766458334,139.86284224791666,61.0,76.0
614,138.83874666458334,140.07519147916668,44.0,70.0
615,139.92308316458335,140.28754071041666,56.0,49.0
616,140.28452866458335,140.58121517916666,68.0,67.0
617,140.28452866458335,140.67308257708333,60.0,64.0
618,140.28452866458335,140.68061269166668,63.0,67.0
619,140.28452866458335,140.78302225000002,44.0,69.0
620,140.64597416458335,140.79958850208334,56.0,49.0
621,141.00741966458332,141.28603390416666,66.0,72.0
622,141.00741966458332,141.3703711875,61.0,72.0
623,141.00741966458332,141.38693743958333,58.0,60.0
624,141.36886516458333,141.46374460833334,54.0,55.0
625,141.00741966458332,141.5420578,42.0,66.0
626,141.73031066458333,142.11585253125,65.0,70.0
627,141.73031066458333,142.13994889791667,63.0,62.0
628,141.73031066458333,142.14296094375,56.0,62.0
629,141.73031066458333,142.14446696666667,61.0,63.0
630,142.27247891458333,142.34175596875,61.0,58.0
631,142.27247891458333,142.35079210625,65.0,59.0
632,142.27247891458333,142.35832222083334,63.0,61.0
633,142.27247891458333,142.37338245,56.0,66.0
634,141.73031066458333,142.41253904583334,49.0,67.0
635,142.81464716458333,143.15651436666667,65.0,69.0
636,142.81464716458333,143.17006857291668,61.0,66.0
637,142.81464716458333,143.17609266458334,56.0,64.0
638,142.81464716458333,143.18512880208334,63.0,64.0
639,142.81464716458333,143.44567076666667,49.0,21.0
640,143.35681541458334,143.53452611875,65.0,62.0
641,143.35681541458334,143.59476703541668,56.0,58.0
642,143.35681541458334,143.59627305833334,61.0,64.0
643,143.35681541458334,143.60380317291668,63.0,60.0
644,143.71826091458334,144.05711607083333,49.0,47.0
645,143.89898366458334,144.23181472916667,63.0,66.0
646,143.89898366458334,144.24085086666668,65.0,64.0
647,143.89898366458334,144.26494723333334,56.0,62.0
648,143.89898366458334,144.27247734791666,61.0,60.0
649,144.26042916458334,144.56765783958335,49.0,63.0
650,144.44115191458334,144.59928432083333,48.0,62.0
651,144.62187466458334,144.96976595833334,65.0,67.0
652,144.62187466458334,144.97277800416668,56.0,66.0
653,144.62187466458334,145.0028984625,61.0,69.0
654,145.16404291458335,145.29054883958332,61.0,66.0
655,145.16404291458335,145.30410304583333,56.0,67.0
656,145.16404291458335,145.33271748125,65.0,69.0
657,145.70621116458335,145.86886163958334,61.0,73.0
658,145.70621116458335,145.89446402916667,56.0,67.0
659,145.70621116458335,145.89898209791667,65.0,70.0
660,144.62187466458334,146.22880111666666,46.0,73.0
661,145.70621116458335,146.25440350625001,53.0,70.0
662,146.24837941458333,146.57819843333334,61.0,70.0
663,146.24837941458333,146.58723457083335,56.0,63.0
664,146.24837941458333,146.61434298333333,68.0,70.0
665,146.79054766458333,146.98030655208333,61.0,75.0
666,146.79054766458333,146.98633064375,56.0,76.0
667,146.79054766458333,147.03301735416667,65.0,62.0
668,146.60982491458333,147.05861974375,46.0,66.0
669,146.97127041458333,147.07518599583335,53.0,73.0
670,147.15199316458333,147.41404115208334,63.0,53.0
671,147.33271591458333,147.48030616041666,65.0,67.0
672,147.51343866458333,147.83723359166666,66.0,82.0
673,147.51343866458333,147.85982393541667,58.0,69.0
674,147.51343866458333,147.88843837083334,61.0,67.0
675,147.51343866458333,148.00892020416666,51.0,54.0
676,148.05560691458334,148.30560671875,66.0,72.0
677,148.05560691458334,148.32367899375,61.0,69.0
678,148.05560691458334,148.32970308541667,58.0,59.0
679,147.51343866458333,148.35681149791668,39.0,62.0
680,148.23632966458334,148.45771503333333,51.0,55.0
681,148.59777516458334,148.73783529583335,58.0,45.0
682,148.59777516458334,148.7709678,61.0,61.0
683,148.59777516458334,148.78301598333334,66.0,57.0
684,148.95922066458334,149.258919225,61.0,55.0
685,148.95922066458334,149.2679553625,58.0,60.0
686,148.95922066458334,149.36132878333333,65.0,67.0
687,148.95922066458334,149.45771425,51.0,56.0
688,148.95922066458334,149.51494312083335,56.0,53.0
689,149.50138891458334,149.73632848958334,66.0,72.0
690,149.50138891458334,149.74988269583335,58.0,58.0
691,149.50138891458334,149.76042485625,61.0,67.0
692,149.68211166458335,149.837232025,51.0,63.0
693,148.95922066458334,149.84024407083334,44.0,56.0
694,150.04355716458335,150.2890389,61.0,58.0
695,150.22427991458335,150.38391834375,66.0,56.0
696,150.40500266458335,150.67307474375,56.0,61.0
697,150.40500266458335,150.776990325,61.0,70.0
698,150.40500266458335,150.81162885208335,65.0,70.0
699,150.76644816458332,150.96223114375002,49.0,43.0
700,150.94717091458332,151.08873706875,66.0,63.0
701,150.94717091458332,151.12789366458333,58.0,67.0
702,150.94717091458332,151.1474719625,61.0,70.0
703,151.12789366458333,151.51644757708334,49.0,48.0
704,150.40500266458335,151.66403782291667,37.0,70.0
705,151.48933916458333,151.76042328958334,68.0,58.0
706,151.85078466458333,152.26192892083333,56.0,55.0
707,151.85078466458333,152.26644698958333,61.0,63.0
708,151.85078466458333,152.2860252875,65.0,61.0
709,151.85078466458333,152.4848203125,37.0,63.0
710,151.85078466458333,152.57819373333334,49.0,59.0
711,153.65801216458334,154.138433475,68.0,44.0
712,153.29656666458334,154.18210813958333,80.0,59.0
713,154.01945766458334,154.20771052916666,73.0,61.0
714,153.65801216458334,154.2378309875,65.0,47.0
715,154.38090316458334,154.71373422916668,75.0,52.0
716,154.74234866458335,154.9787942625,73.0,52.0
717,154.74234866458335,155.10680621041666,68.0,56.0
718,154.74234866458335,155.15650496666666,77.0,60.0
719,155.10379416458335,155.64445639166667,65.0,29.0
720,155.46523966458335,155.78451652291668,68.0,49.0
721,153.29656666458334,155.9727693875,61.0,55.0
722,155.82668516458332,156.144456,75.0,48.0
723,156.00740791458333,156.18662464166667,68.0,42.0
724,156.00740791458333,156.43963649166668,72.0,52.0
725,156.54957616458333,156.90047950416667,75.0,53.0
726,156.18813066458333,157.0028890625,80.0,60.0
727,156.91102166458333,157.60379220625,72.0,48.0
728,156.91102166458333,157.86885223958333,65.0,46.0
729,157.27246716458333,158.05861112708334,68.0,44.0
730,157.63391266458333,158.15650261666667,75.0,44.0
731,158.35680366458334,158.52698425416668,75.0,54.0
732,156.54957616458333,158.59776733125,60.0,45.0
733,156.18813066458333,158.60680346875,53.0,44.0
734,158.35680366458334,158.61885165208335,65.0,41.0
735,158.35680366458334,158.72126121041669,68.0,48.0
736,159.07969466458334,159.44565823333335,42.0,62.0
737,159.07969466458334,159.79204350416668,61.0,53.0
738,159.07969466458334,159.88842897083333,66.0,55.0
739,159.07969466458334,159.89595908541668,70.0,52.0
740,159.44114016458335,159.95921204791668,54.0,53.0
741,160.16403116458335,160.90800648541668,61.0,60.0
742,160.52547666458335,160.94866910416667,66.0,54.0
743,160.88692216458332,161.295054375,68.0,59.0
744,159.80258566458335,161.33872903958334,58.0,40.0
745,161.24836766458333,161.58722282083335,70.0,47.0
746,161.60981316458333,162.02396946666667,73.0,50.0
747,161.97125866458333,162.44414986041667,68.0,54.0
748,161.97125866458333,162.51342691458333,72.0,53.0
749,161.97125866458333,162.64746295416668,44.0,50.0
750,162.33270416458333,162.65649909166666,51.0,36.0
751,162.69414966458334,163.0751734625,56.0,44.0
752,163.05559516458334,163.22276370833333,70.0,43.0
753,163.05559516458334,163.50438999375,78.0,56.0
754,163.41704066458334,163.56613693333333,68.0,45.0
755,163.41704066458334,163.75288377500002,77.0,62.0
756,163.77848616458334,163.93210050208333,68.0,38.0
757,163.77848616458334,163.99384744166667,75.0,61.0
758,163.41704066458334,164.18963042083334,60.0,49.0
759,164.13993166458334,164.24535326875,73.0,55.0
760,163.05559516458334,164.27999179583333,58.0,46.0
761,164.50137716458335,164.63842525,72.0,58.0
762,164.86282266458335,165.29203919583333,63.0,48.0
763,164.86282266458335,165.3161355625,68.0,49.0
764,165.58571366458332,165.90950859166668,63.0,49.0
765,165.22426816458335,166.01041212708333,60.0,35.0
766,165.94715916458333,166.246857725,70.0,59.0
767,166.30860466458333,166.72727903541667,68.0,55.0
768,166.30860466458333,166.74083324166668,65.0,52.0
769,166.30860466458333,166.8342066625,72.0,55.0
770,167.03149566458333,167.20167625416667,65.0,44.0
771,166.30860466458333,167.21824250625,60.0,45.0
772,164.86282266458335,167.27245933125,53.0,55.0
773,167.03149566458333,167.28751956041668,75.0,57.0
774,167.39294116458333,167.68209756458333,72.0,64.0
775,167.75438666458334,168.33571151041667,65.0,52.0
776,167.75438666458334,168.34173560208333,68.0,56.0
777,167.75438666458334,168.36884401458335,73.0,72.0
778,168.47727766458334,168.79956656875,65.0,52.0
779,168.47727766458334,168.80107259166667,68.0,55.0
780,168.47727766458334,168.85227737083335,73.0,55.0
781,169.20016866458334,169.40348175833333,65.0,48.0
782,169.20016866458334,169.499867225,72.0,57.0
783,168.83872316458334,169.5811924625,58.0,34.0
784,169.56161416458335,169.9968547875,73.0,70.0
785,167.75438666458334,170.04052945208335,46.0,54.0
786,168.11583216458334,170.07366195625,53.0,38.0
787,169.92305966458335,170.13089082708333,58.0,50.0
788,169.92305966458335,170.21974617916666,65.0,63.0
789,169.92305966458335,170.36432437916667,68.0,55.0
790,170.64595066458332,171.05709492083335,70.0,58.0
791,170.64595066458332,171.06613105833333,63.0,55.0
792,170.64595066458332,171.06613105833333,66.0,58.0
793,170.64595066458332,171.08420333333333,73.0,48.0
794,170.64595066458332,171.46372110833335,58.0,60.0
795,170.64595066458332,171.57366078125,51.0,55.0
796,171.36884166458333,171.66854022500002,63.0,48.0
797,171.36884166458333,171.69715466041666,66.0,55.0
798,171.36884166458333,171.73932330208333,70.0,51.0
799,172.09173266458333,172.4908287375,61.0,62.0
800,172.09173266458333,172.4908287375,70.0,56.0
801,172.09173266458333,172.50137089791667,66.0,66.0
802,172.45317816458333,172.93058742916668,56.0,37.0
803,172.81462366458334,172.99082834583334,66.0,67.0
804,172.81462366458334,172.9968524375,70.0,64.0
805,172.81462366458334,173.01944278125,61.0,66.0
806,172.09173266458333,173.16251495833333,44.0,49.0
807,173.17606916458334,173.23329803541668,51.0,52.0
808,173.53751466458334,173.9727552875,56.0,62.0
809,173.53751466458334,173.98932153958333,61.0,67.0
810,173.53751466458334,174.10528530416667,65.0,66.0
811,173.89896016458334,174.30408032916668,49.0,32.0
812,174.26040566458335,174.54504399583334,66.0,61.0
813,174.26040566458335,174.57064638541667,61.0,63.0
814,174.26040566458335,174.60829695833334,58.0,51.0
815,173.53751466458334,174.79353777708334,37.0,64.0
816,174.62185116458335,174.83871846458334,49.0,49.0
817,174.98329666458335,175.17305555208333,56.0,63.0
818,174.98329666458335,175.24685067500002,61.0,70.0
819,174.98329666458335,175.38841682916666,65.0,72.0
820,174.98329666458335,175.44865774583334,37.0,70.0
821,175.34474216458335,175.53751309791667,66.0,69.0
822,175.34474216458335,175.54052514375002,61.0,54.0
823,175.34474216458335,175.55106730416668,58.0,62.0
824,175.34474216458335,175.76793460416667,39.0,63.0
825,175.70618766458333,175.85528393333334,61.0,66.0
826,175.70618766458333,175.92907905625,68.0,69.0
827,175.70618766458333,176.14745237916668,41.0,66.0
828,176.06763316458333,176.37486183958333,70.0,57.0
829,176.06763316458333,176.45317503125,44.0,69.0
830,176.42907866458333,176.62787368958334,37.0,70.0
831,176.42907866458333,176.88088553958335,73.0,69.0
832,176.42907866458333,176.88540360833335,68.0,69.0
833,176.42907866458333,176.90196986041667,65.0,64.0
834,177.15196966458333,177.49233084375,65.0,73.0
835,177.15196966458333,177.52094527916668,68.0,76.0
836,177.15196966458333,177.60227051666666,73.0,75.0
837,177.87486066458334,178.06763159791666,63.0,64.0
838,177.87486066458334,178.15648695000002,68.0,55.0
839,177.87486066458334,178.20769172916667,72.0,72.0
840,178.05558341458334,178.21973991250002,61.0,40.0
841,177.51341516458334,178.47425778541668,56.0,46.0
842,178.41702891458334,178.65498053541668,65.0,58.0
843,178.41702891458334,178.65799258125,68.0,61.0
844,178.41702891458334,178.76793225416668,73.0,60.0
845,178.59775166458334,178.81010089583333,61.0,50.0
846,176.97124691458333,178.87485988125002,49.0,56.0
847,178.59775166458334,178.89142613333334,56.0,34.0
848,178.95919716458334,179.10377536458333,48.0,59.0
849,178.95919716458334,179.15196809791667,68.0,59.0
850,179.13991991458334,179.28751016041667,70.0,62.0
851,179.32064266458335,179.70317248541667,65.0,61.0
852,179.32064266458335,179.71070260000002,68.0,66.0
853,179.32064266458335,179.73931703541666,73.0,66.0
854,179.86281091458335,179.98479877083335,63.0,58.0
855,179.86281091458335,179.99684695416667,72.0,69.0
856,180.04353366458335,180.42756950833333,58.0,41.0
857,180.40497916458335,180.62787055625,61.0,64.0
858,180.40497916458335,180.70919579375,68.0,66.0
859,180.76642466458333,181.1564846,65.0,67.0
860,180.76642466458333,181.1835930125,70.0,63.0
861,181.12787016458333,181.48479759583333,58.0,47.0
862,181.30859291458333,181.54202646666667,61.0,58.0
863,181.48931566458333,181.70467694166666,63.0,39.0
864,179.68208816458335,181.76341183541666,53.0,44.0
865,179.32064266458335,181.79353229375002,46.0,63.0
866,181.67003841458333,181.89594185208333,65.0,52.0
867,181.85076116458333,182.0691344875,66.0,69.0
868,182.03148391458333,182.17003802291669,68.0,62.0
869,182.21220666458333,182.58720637083334,63.0,45.0
870,182.21220666458333,182.61732682916667,61.0,63.0
871,182.21220666458333,182.65347137916666,66.0,67.0
872,182.57365216458334,183.09925416250002,58.0,48.0
873,182.93509766458334,183.2619046375,63.0,61.0
874,182.93509766458334,183.28600100416668,66.0,64.0
875,182.93509766458334,183.28901305,61.0,63.0
876,183.65798866458334,183.96220529375,63.0,62.0
877,183.65798866458334,183.99081972916667,66.0,61.0
878,183.65798866458334,184.04353053125,61.0,57.0
879,183.29654316458334,184.52696388750002,58.0,27.0
880,182.21220666458333,184.53901207083334,51.0,69.0
881,184.38087966458335,184.67756617916666,66.0,72.0
882,184.38087966458335,184.77846971458334,61.0,64.0
883,184.38087966458335,184.85075881458334,63.0,66.0
884,184.74232516458335,184.86280699791666,51.0,61.0
885,185.10377066458335,185.48328843958333,66.0,66.0
886,185.10377066458335,185.55407151666668,61.0,64.0
887,185.10377066458335,185.55858958541668,58.0,61.0
888,185.82666166458333,186.01491452916667,66.0,75.0
889,185.82666166458333,186.02997475833334,58.0,70.0
890,185.82666166458333,186.07364942291667,61.0,80.0
891,185.10377066458335,186.30708297500001,44.0,72.0
892,186.18810716458333,186.41099855625,56.0,53.0
893,185.46521616458332,186.67154052083333,51.0,43.0
894,186.54955266458333,186.84623917916667,68.0,72.0
895,186.54955266458333,186.88238372916666,60.0,67.0
896,186.54955266458333,186.91852827916668,63.0,62.0
897,186.54955266458333,187.08720284583333,44.0,72.0
898,186.91099816458333,187.10075705208334,56.0,44.0
899,187.27244366458334,187.63991325625,66.0,73.0
900,187.27244366458334,187.64593734791669,61.0,69.0
901,187.27244366458334,187.66551564583335,58.0,57.0
902,187.27244366458334,187.74081679166667,42.0,72.0
903,187.63388916458334,187.75135895208334,54.0,48.0
904,187.99533466458334,188.37786448541667,60.0,67.0
905,187.99533466458334,188.37937050833335,63.0,69.0
906,187.99533466458334,188.38388857708333,56.0,58.0
907,187.99533466458334,188.46973188333334,68.0,59.0
908,188.35678016458334,188.84322556666666,53.0,38.0
909,188.71822566458334,189.07214105,60.0,62.0
910,188.71822566458334,189.08268321041666,56.0,60.0
911,188.71822566458334,189.08268321041666,63.0,64.0
912,188.71822566458334,189.37635767916666,68.0,54.0
913,189.07967116458335,189.53900815416668,53.0,44.0
914,189.44111666458335,189.98780298333332,63.0,75.0
915,189.44111666458335,190.00436923541668,56.0,64.0
916,189.44111666458335,190.00738128125002,60.0,73.0
917,189.44111666458335,190.00738128125002,68.0,62.0
918,187.99533466458334,190.2649112,41.0,75.0
919,189.80256216458335,190.29653768125002,53.0,59.0
920,190.16400766458335,190.47575440833333,60.0,82.0
921,190.16400766458335,190.4908146375,56.0,66.0
922,190.16400766458335,190.52093509583335,63.0,69.0
923,190.16400766458335,190.73328432708334,68.0,75.0
924,190.88689866458333,190.98027208541666,68.0,50.0
925,190.52545316458333,190.99232026875,44.0,55.0
926,190.88689866458333,191.20316347708334,58.0,59.0
927,190.88689866458333,191.31460917291668,65.0,70.0
928,190.88689866458333,191.3959344104167,61.0,75.0
929,191.60978966458333,191.81762082708335,60.0,66.0
930,191.60978966458333,191.87936776666666,63.0,69.0
931,190.88689866458333,191.98780141666668,46.0,70.0
932,191.97123516458333,192.12484950208335,61.0,66.0
933,191.97123516458333,192.19713860208333,58.0,55.0
934,191.97123516458333,192.28749997708334,65.0,64.0
935,191.60978966458333,192.39442760416668,53.0,60.0
936,192.33268066458334,192.74683696666668,68.0,73.0
937,192.33268066458334,192.77996947083335,61.0,75.0
938,193.05557166458334,193.26039078125,60.0,76.0
939,192.69412616458334,193.3010534,53.0,62.0
940,192.87484891458334,193.33267988125002,58.0,67.0
941,193.23629441458334,193.34020999583333,61.0,48.0
942,193.41701716458334,193.51039058541667,53.0,72.0
943,192.33268066458334,193.52846286041668,46.0,73.0
944,193.41701716458334,193.64743867083334,63.0,53.0
945,193.59773991458334,193.76490845833334,65.0,63.0
946,193.77846266458334,194.186594875,66.0,73.0
947,193.77846266458334,194.22725749375002,61.0,73.0
948,193.77846266458334,194.26641408958335,58.0,69.0
949,193.77846266458334,194.54502832916668,51.0,64.0
950,194.50135366458335,194.7920160875,66.0,72.0
951,194.50135366458335,194.85526905,61.0,70.0
952,194.50135366458335,194.88689553125002,58.0,67.0
953,195.22424466458335,195.62183471458334,66.0,72.0
954,195.22424466458335,195.63689494375,61.0,73.0
955,195.22424466458335,195.63840096666667,58.0,66.0
956,194.86279916458335,195.74683461666666,51.0,45.0
957,193.77846266458334,195.78448518958334,39.0,69.0
958,195.76641291458333,195.98026816875,58.0,53.0
959,195.76641291458333,195.98026816875,66.0,49.0
960,195.76641291458333,196.01791874166668,61.0,57.0
961,195.94713566458333,196.17303910208335,39.0,49.0
962,195.94713566458333,196.282978775,51.0,53.0
963,196.30858116458333,196.47424368541667,66.0,70.0
964,196.30858116458333,196.50587016666668,58.0,66.0
965,196.30858116458333,196.55858096875,61.0,72.0
966,196.67002666458333,196.85827952916668,56.0,62.0
967,196.67002666458333,197.09020705833333,61.0,69.0
968,196.67002666458333,197.12183353958335,66.0,70.0
969,196.67002666458333,197.14442388333333,58.0,63.0
970,197.03147216458333,197.45918267291668,56.0,51.0
971,197.39291766458334,197.57364041458334,58.0,70.0
972,197.39291766458334,197.5856885979167,66.0,78.0
973,197.39291766458334,197.60074882708335,61.0,82.0
974,196.67002666458333,197.68358008750002,51.0,60.0
975,196.67002666458333,197.89592931875,44.0,64.0
976,197.75436316458334,197.96972444166667,56.0,59.0
977,198.11580866458334,198.19261583333335,61.0,75.0
978,198.11580866458334,198.21068810833333,60.0,75.0
979,198.11580866458334,198.24683265833335,56.0,69.0
980,198.11580866458334,198.25135072708335,68.0,80.0
981,198.11580866458334,198.52243485208334,44.0,66.0
982,198.47725416458334,198.56159144791667,61.0,60.0
983,198.47725416458334,198.57514565416668,70.0,70.0
984,198.47725416458334,198.88839842083334,56.0,56.0
985,198.83869966458334,198.92906103958333,63.0,62.0
986,198.83869966458334,198.95014536041668,72.0,76.0
987,199.20014516458335,199.23478369166668,65.0,44.0
988,199.20014516458335,199.23478369166668,66.0,42.0
989,198.83869966458334,199.27544631041667,58.0,67.0
990,199.20014516458335,199.28900051666668,73.0,62.0
991,199.20014516458335,199.29803665416668,60.0,72.0
992,199.56159066458335,199.98478310416667,77.0,60.0
993,199.56159066458335,200.00887947083334,68.0,50.0
994,200.28448166458332,200.49683089583334,63.0,66.0
995,200.46520441458333,200.69411989791666,65.0,56.0
996,200.64592716458333,200.75887888333335,66.0,61.0
997,200.10375891458335,200.78749331875,61.0,60.0
998,199.56159066458335,200.80556559375,49.0,75.0
999,199.92303616458335,200.89442094583333,56.0,56.0
1000,200.82664991458333,201.00586664166667,68.0,73.0
1001,201.00737266458333,201.27544474375,73.0,56.0
1002,201.00737266458333,201.54351682291667,49.0,64.0
1003,201.36881816458333,201.61279387708333,80.0,73.0
1004,201.36881816458333,201.6414083125,68.0,69.0
1005,201.36881816458333,201.71972150416667,56.0,52.0
1006,201.73026366458333,201.94261289583335,68.0,64.0
1007,201.73026366458333,201.97273335416668,78.0,75.0
1008,201.73026366458333,202.11429950833335,61.0,59.0
1009,202.09170916458334,202.174540425,63.0,66.0
1010,202.09170916458334,202.246829525,68.0,61.0
1011,202.09170916458334,202.355263175,77.0,62.0
1012,202.45315466458334,202.66249185,75.0,63.0
1013,202.45315466458334,202.74532311041668,68.0,67.0
1014,202.99532291458334,203.11580474791668,65.0,69.0
1015,202.99532291458334,203.12484088541666,73.0,72.0
1016,203.17604566458334,203.49231047708335,58.0,46.0
1017,203.53749116458334,203.68658743333333,72.0,76.0
1018,203.53749116458334,203.69411754791668,63.0,72.0
1019,203.89893666458335,204.09773168958333,58.0,44.0
1020,204.07965941458335,204.379357975,65.0,62.0
1021,204.07965941458335,204.43809286875,73.0,67.0
1022,204.44110491458335,204.63387584791667,58.0,59.0
1023,202.81460016458334,204.81158655208333,53.0,52.0
1024,202.45315466458334,204.82815280416668,46.0,69.0
1025,204.62182766458335,204.83116485,65.0,69.0
1026,204.62182766458335,204.85074314791666,72.0,66.0
1027,204.80255041458335,204.95315270625,58.0,54.0
1028,204.98327316458335,205.26941751875,68.0,62.0
1029,205.34471866458333,205.70014007291667,63.0,67.0
1030,205.52544141458333,205.70164609583333,73.0,13.0
1031,205.34471866458333,205.70465814166667,70.0,64.0
1032,205.34471866458333,205.70917621041667,66.0,66.0
1033,205.88688691458333,206.04803136666666,70.0,44.0
1034,205.88688691458333,206.078151825,66.0,62.0
1035,205.88688691458333,206.09321205416668,65.0,56.0
1036,205.70616416458333,206.3401998125,58.0,46.0
1037,205.34471866458333,206.48628403541667,51.0,72.0
1038,206.06760966458333,206.54351290625002,63.0,41.0
1039,206.42905516458333,206.58266950208335,65.0,60.0
1040,206.60977791458333,206.72122361041667,66.0,67.0
1041,206.42905516458333,206.75134406875,58.0,61.0
1042,206.79050066458333,207.00435591875,70.0,63.0
1043,206.97122341458333,207.08116308750002,73.0,49.0
1044,207.15194616458334,207.31459663958333,77.0,47.0
1045,207.15194616458334,207.56007837500002,58.0,50.0
1046,207.33266891458334,207.57513860416668,78.0,55.0
1047,207.51339166458334,207.68959634583334,77.0,59.0
1048,207.51339166458334,207.72574089583333,63.0,61.0
1049,207.69411441458334,207.86730705,73.0,57.0
1050,207.87483716458334,207.95917444791667,58.0,56.0
1051,206.79050066458333,208.02242741041667,51.0,67.0
1052,207.87483716458334,208.03146354791667,70.0,62.0
1053,208.05555991458334,208.22875255,68.0,54.0
1054,208.23628266458334,208.6549570354167,63.0,61.0
1055,208.23628266458334,208.75736659375,70.0,50.0
1056,208.23628266458334,208.90345081666666,44.0,70.0
1057,208.59772816458334,208.92905320625002,51.0,60.0
1058,208.95917366458335,209.08869163541667,63.0,69.0
1059,208.95917366458335,209.11128197916668,72.0,75.0
1060,208.95917366458335,209.3944142875,56.0,48.0
1061,209.32061916458335,209.46218531875002,65.0,57.0
1062,209.32061916458335,209.48176361666668,73.0,66.0
1063,209.68206466458335,209.82212479583333,75.0,69.0
1064,209.68206466458335,209.83266695625,66.0,55.0
1065,209.32061916458335,210.21519677708335,58.0,60.0
1066,210.04351016458335,210.23025700625,65.0,53.0
1067,210.04351016458335,210.24682325833334,73.0,63.0
1068,210.04351016458335,210.46519658125,61.0,59.0
1069,210.40495566458333,210.81007582916666,63.0,63.0
1070,210.40495566458333,210.81459389791667,72.0,56.0
1071,209.68206466458335,210.81609992083335,60.0,60.0
1072,210.76640116458333,211.13085871041667,70.0,69.0
1073,210.76640116458333,211.13688280208333,58.0,59.0
1074,211.12784666458333,211.56760535625,68.0,62.0
1075,211.12784666458333,211.5811595625,63.0,58.0
1076,211.48929216458333,211.99832791041666,60.0,57.0
1077,211.85073766458333,212.21218316458334,72.0,59.0
1078,211.85073766458333,212.222725325,68.0,57.0
1079,211.85073766458333,212.2498337375,63.0,51.0
1080,212.21218316458334,212.67152015416667,60.0,39.0
1081,212.57362866458334,212.92603802708334,72.0,58.0
1082,212.57362866458334,212.9365801875,68.0,58.0
1083,212.57362866458334,212.94411030208335,63.0,58.0
1084,212.93507416458334,213.20013419791667,60.0,42.0
1085,213.29651966458334,213.43657979583335,68.0,57.0
1086,213.29651966458334,213.47423036875,63.0,66.0
1087,213.29651966458334,213.53145923958334,72.0,66.0
1088,211.12784666458333,213.56157969791667,53.0,67.0
1089,213.47724241458334,213.59170015625,60.0,64.0
1090,213.65796516458335,213.99230225208333,70.0,59.0
1091,213.83868791458335,213.99531429791668,72.0,64.0
1092,214.01941066458335,214.46218140208333,65.0,70.0
1093,214.01941066458335,214.46218140208333,68.0,69.0
1094,214.01941066458335,214.46218140208333,73.0,75.0
1095,214.01941066458335,214.72422938958334,46.0,69.0
1096,214.38085616458335,214.77543416875,53.0,44.0
1097,214.74230166458335,215.11730137083333,73.0,56.0
1098,214.74230166458335,215.12332546250002,68.0,54.0
1099,214.74230166458335,215.1323616,65.0,59.0
1100,214.74230166458335,215.15344592083335,58.0,44.0
1101,215.10374716458333,215.56910824583335,60.0,58.0
1102,215.46519266458333,215.86730078333335,61.0,70.0
1103,215.46519266458333,215.88687908125002,68.0,53.0
1104,215.46519266458333,215.89440919583333,65.0,50.0
1105,215.46519266458333,215.89892726458334,73.0,46.0
1106,215.82663816458333,216.17904752708333,60.0,61.0
1107,216.18808366458333,216.34621607083335,68.0,66.0
1108,216.18808366458333,216.35977027708333,56.0,59.0
1109,216.18808366458333,216.36730039166667,58.0,47.0
1110,216.18808366458333,216.43507142291668,73.0,69.0
1111,216.18808366458333,216.451637675,65.0,66.0
1112,216.54952916458333,216.63537247083335,53.0,70.0
1113,216.91097466458334,217.27995027916668,70.0,58.0
1114,216.91097466458334,217.28748039375,63.0,61.0
1115,216.91097466458334,217.29049243958335,66.0,62.0
1116,216.91097466458334,217.29651653125,73.0,55.0
1117,216.91097466458334,217.35073335625,39.0,75.0
1118,217.27242016458334,217.71820294791667,51.0,48.0
1119,217.63386566458334,217.9983232104167,66.0,62.0
1120,217.63386566458334,218.00284127916666,70.0,50.0
1121,217.63386566458334,218.01187741666666,63.0,58.0
1122,217.63386566458334,218.1685038,73.0,51.0
1123,217.99531116458334,218.61428658333335,54.0,56.0
1124,218.35675666458334,218.74982864583333,66.0,63.0
1125,218.35675666458334,218.76187682916668,63.0,54.0
1126,218.35675666458334,218.77091296666669,70.0,53.0
1127,218.35675666458334,218.80253944791667,73.0,55.0
1128,217.63386566458334,218.85976831875,53.0,62.0
1129,218.71820216458335,218.90193696041666,54.0,42.0
1130,219.07964766458335,219.52543044791668,66.0,62.0
1131,219.07964766458335,219.52844249375,61.0,75.0
1132,219.07964766458335,219.54500874583334,70.0,59.0
1133,219.44109316458335,219.58717738750002,44.0,61.0
1134,219.80253866458335,220.16850223333333,37.0,63.0
1135,219.80253866458335,220.21669496666667,61.0,60.0
1136,219.80253866458335,220.22271905833333,68.0,58.0
1137,219.80253866458335,220.22573110416667,65.0,67.0
1138,220.16398416458333,220.59320069583333,49.0,55.0
1139,220.52542966458333,220.98326063125,61.0,64.0
1140,220.52542966458333,220.9877787,66.0,70.0
1141,220.88687516458333,221.30554953541667,53.0,58.0
1142,221.24832066458333,221.46820001041667,54.0,63.0
1143,221.24832066458333,221.64440469166667,61.0,66.0
1144,221.24832066458333,221.65494685208333,68.0,67.0
1145,221.97121166458334,222.07362122291667,61.0,55.0
1146,220.52542966458333,222.10072963541668,51.0,66.0
1147,221.97121166458334,222.1172958875,66.0,57.0
1148,221.60976616458333,222.13988623125002,54.0,50.0
1149,222.51337991458334,222.75584960416668,68.0,44.0
1150,222.69410266458334,223.18205408958335,73.0,45.0
1151,222.69410266458334,223.30253592291666,49.0,54.0
1152,223.05554816458334,223.39440332083333,56.0,40.0
1153,222.69410266458334,223.57362004791668,80.0,61.0
1154,223.41699366458334,223.825125875,61.0,48.0
1155,223.77843916458335,224.19410148958335,75.0,58.0
1156,224.13988466458335,224.8100648625,73.0,67.0
1157,224.86277566458335,225.23175127916667,68.0,54.0
1158,224.13988466458335,225.29651026458333,65.0,58.0
1159,223.77843916458335,225.487775175,63.0,49.0
1160,225.22422116458333,225.67000394791668,80.0,54.0
1161,225.58566666458333,226.26036493125,58.0,54.0
1162,225.94711216458333,226.28596732083335,65.0,44.0
1163,225.58566666458333,226.51187075833334,73.0,61.0
1164,226.30855766458333,226.73777419583334,68.0,40.0
1165,227.39289416458334,227.55253259375002,85.0,58.0
1166,227.39289416458334,227.56458077708334,77.0,48.0
1167,227.03144866458334,227.73777341250002,73.0,53.0
1168,226.67000316458333,228.09470084375002,70.0,54.0
1169,227.75433966458334,228.23325495208334,75.0,56.0
1170,227.75433966458334,228.43958009166667,84.0,69.0
1171,228.47723066458335,228.9395797,82.0,62.0
1172,228.47723066458335,229.01337482291666,78.0,55.0
1173,228.47723066458335,229.07813380833335,73.0,61.0
1174,229.56156716458335,229.71819354791668,65.0,56.0
1175,229.74228991458335,229.861265725,66.0,64.0
1176,229.92301266458335,230.367289425,68.0,67.0
1177,229.20012166458335,230.44560261666666,63.0,49.0
1178,230.28445816458333,230.67000003125,70.0,73.0
1179,228.47723066458335,230.79951800208335,51.0,61.0
1180,228.83867616458335,230.88837335416667,58.0,46.0
1181,230.64590366458333,230.99831302708333,73.0,52.0
1182,231.00734916458333,231.38234887083334,77.0,50.0
1183,231.36879466458333,231.79048108125,75.0,56.0
1184,231.36879466458333,231.96517973958333,44.0,57.0
1185,231.73024016458334,232.04198690833334,51.0,55.0
1186,232.09168566458334,232.50584196666668,56.0,48.0
1187,232.45313116458334,232.63385391458334,65.0,56.0
1188,232.45313116458334,232.65042016666666,73.0,52.0
1189,232.81457666458334,232.96216691041667,72.0,66.0
1190,232.81457666458334,232.96819100208333,63.0,60.0
1191,232.45313116458334,233.01638373541667,58.0,47.0
1192,232.81457666458334,233.02541987291667,60.0,61.0
1193,233.53746766458335,233.6474073375,61.0,63.0
1194,233.53746766458335,233.67150370416667,70.0,72.0
1195,234.26035866458335,234.61276802708335,41.0,66.0
1196,234.26035866458335,234.76337031875002,60.0,67.0
1197,234.62180416458335,235.0209002375,53.0,54.0
1198,234.26035866458335,235.05704478750002,68.0,72.0
1199,235.70614066458333,236.1052367375,63.0,51.0
1200,235.70614066458333,236.19861015833334,68.0,53.0
1201,235.34469516458333,236.45463405416666,60.0,62.0
1202,234.98324966458333,236.54047736041667,56.0,53.0
1203,236.42903166458333,236.73324829375,70.0,46.0
1204,236.79047716458334,237.08866970208334,72.0,55.0
1205,237.15192266458334,237.81758479375,46.0,67.0
1206,237.51336816458334,237.89589798541667,53.0,49.0
1207,237.87481366458334,238.28746394375,58.0,47.0
1208,237.15192266458334,238.62330705416667,65.0,54.0
1209,237.15192266458334,238.69107808541668,68.0,55.0
1210,237.15192266458334,238.77541536875,73.0,66.0
1211,238.59770466458335,239.47119795625,61.0,58.0
1212,238.23625916458334,239.52692080416668,60.0,55.0
1213,239.32059566458335,239.5570412625,65.0,56.0
1214,239.50131841458335,239.68806525625,68.0,56.0
1215,239.68204116458335,239.87481209791667,70.0,55.0
1216,240.04348666458333,240.67149822083334,70.0,69.0
1217,240.04348666458333,240.78746198541668,66.0,69.0
1218,239.86276391458333,240.84619687916668,73.0,75.0
1219,240.40493216458333,241.55854571875,58.0,50.0
1220,241.12782316458333,241.59167822291667,65.0,64.0
1221,241.48926866458334,241.92752133333335,66.0,67.0
1222,240.76637766458333,242.01336463958333,63.0,60.0
1223,241.85071416458334,242.24981023750001,68.0,61.0
1224,240.04348666458333,242.28143671875,51.0,70.0
1225,242.21215966458334,242.31456922291667,70.0,67.0
1226,242.21215966458334,242.32209933750002,58.0,72.0
1227,242.57360516458334,242.92752055,73.0,66.0
1228,242.93505066458334,243.0811348875,75.0,73.0
1229,242.93505066458334,243.10071318541668,68.0,67.0
1230,243.29649616458335,243.68354405416667,51.0,56.0
1231,243.65794166458335,243.97721852291667,56.0,56.0
1232,243.65794166458335,243.97721852291667,61.0,80.0
1233,243.65794166458335,243.993784775,70.0,78.0
1234,243.65794166458335,244.00432693541669,66.0,80.0
1235,242.93505066458334,244.06306182916668,44.0,64.0
1236,244.20010991458335,244.28294117500002,66.0,45.0
1237,244.01938716458335,244.28444719791668,51.0,57.0
1238,244.38083266458335,244.65794088125,61.0,80.0
1239,244.38083266458335,244.69559145416667,44.0,69.0
1240,244.38083266458335,244.73173600416666,56.0,88.0
1241,244.38083266458335,244.75432634791667,66.0,72.0
1242,244.38083266458335,244.79348294375,70.0,75.0
1243,244.92300091458333,245.05402490833333,72.0,70.0
1244,244.92300091458333,245.08113332083335,68.0,73.0
1245,244.92300091458333,245.08565138958335,63.0,80.0
1246,244.92300091458333,245.28143436875,58.0,57.0
1247,244.92300091458333,245.34318130833333,46.0,69.0
1248,245.46516916458333,245.55854258541666,48.0,62.0
1249,245.46516916458333,245.57059076875,66.0,69.0
1250,245.46516916458333,245.67149430416669,73.0,67.0
1251,245.82661466458333,246.19257823333334,65.0,82.0
1252,245.82661466458333,246.23926494375002,68.0,80.0
1253,245.82661466458333,246.44408406041669,73.0,73.0
1254,246.36878291458333,246.61878271875,61.0,51.0
1255,246.18806016458333,246.88384275208335,56.0,49.0
1256,246.54950566458334,246.91848127916668,65.0,63.0
1257,246.54950566458334,246.92450537083334,63.0,60.0
1258,246.54950566458334,246.92751741666666,68.0,61.0
1259,246.54950566458334,247.11727630416667,73.0,48.0
1260,246.91095116458334,247.12179437291667,61.0,43.0
1261,245.82661466458333,247.1293244875,49.0,70.0
1262,247.09167391458334,247.30402314583333,56.0,53.0
1263,247.27239666458334,247.6955891041667,65.0,67.0
1264,247.27239666458334,247.71516740208335,63.0,61.0
1265,247.27239666458334,247.73926376875,68.0,69.0
1266,247.27239666458334,247.88534799166666,73.0,55.0
1267,247.63384216458334,248.00733584791666,56.0,57.0
1268,247.81456491458334,248.19860075833333,61.0,63.0
1269,247.99528766458334,248.21968507916668,63.0,63.0
1270,247.99528766458334,248.22721519375,68.0,66.0
1271,247.99528766458334,248.24528746875,73.0,59.0
1272,247.99528766458334,248.25432360625,65.0,64.0
1273,247.27239666458334,248.27540792708334,49.0,72.0
1274,248.35673316458335,248.44408249375002,65.0,44.0
1275,248.17601041458335,248.49829931875,56.0,63.0
1276,248.35673316458335,248.53745591458335,63.0,67.0
1277,248.53745591458335,248.66847990833335,48.0,45.0
1278,248.53745591458335,249.09619041666667,68.0,58.0
1279,248.71817866458335,249.11878076041668,65.0,69.0
1280,248.71817866458335,249.17902167708334,73.0,69.0
1281,249.26034691458335,249.36426249583334,73.0,57.0
1282,249.26034691458335,249.415467275,65.0,67.0
1283,249.26034691458335,249.64739480416668,72.0,61.0
1284,249.44106966458335,249.849201875,58.0,57.0
1285,248.71817866458335,249.86426210416667,46.0,78.0
1286,249.80251516458333,250.01034632708334,63.0,70.0
1287,249.07962416458335,250.16847873333333,53.0,50.0
1288,249.80251516458333,250.20914135208335,73.0,73.0
1289,249.80251516458333,250.21215339791667,68.0,69.0
1290,250.16396066458333,250.54950253125,46.0,69.0
1291,250.34468341458333,250.55853866875,53.0,67.0
1292,250.52540616458333,250.78143006041668,58.0,67.0
1293,250.88685166458333,251.05853827708333,61.0,80.0
1294,250.70612891458333,251.06606839166668,60.0,60.0
1295,251.06757441458333,251.27540557708335,65.0,67.0
1296,251.24829716458333,251.45763435,68.0,57.0
1297,251.60974266458334,251.9275135,39.0,73.0
1298,251.60974266458334,252.03594715,70.0,66.0
1299,251.60974266458334,252.05853749375,63.0,56.0
1300,251.60974266458334,252.06757363125,66.0,73.0
1301,251.42901991458334,252.14287477708334,73.0,76.0
1302,251.97118816458334,252.38685048958334,51.0,52.0
1303,252.33263366458334,252.63383824791669,70.0,67.0
1304,252.33263366458334,252.66395870625,73.0,51.0
1305,252.33263366458334,252.66697075208333,66.0,70.0
1306,252.33263366458334,252.6955851875,63.0,64.0
1307,252.33263366458334,252.77239235625,54.0,70.0
1308,252.69407916458334,252.98323556458334,58.0,59.0
1309,252.87480191458334,253.1293197875,54.0,72.0
1310,253.23624741458335,253.41395811875,73.0,13.0
1311,253.05552466458334,253.42299425625,70.0,72.0
1312,253.05552466458334,253.45763278333334,66.0,75.0
1313,253.05552466458334,253.49227131041667,63.0,67.0
1314,253.77841566458335,253.89287340625,73.0,50.0
1315,253.41697016458335,253.91245170416667,58.0,52.0
1316,253.77841566458335,254.114258775,70.0,70.0
1317,253.77841566458335,254.1413671875,66.0,69.0
1318,253.77841566458335,254.16094548541668,63.0,66.0
1319,254.13986116458335,254.22721049375,58.0,66.0
1320,253.05552466458334,254.23323458541668,53.0,75.0
1321,254.32058391458335,254.40341517500002,68.0,42.0
1322,254.50130666458335,254.837149775,66.0,75.0
1323,254.50130666458335,254.87028227916667,61.0,75.0
1324,254.50130666458335,254.88835455416668,70.0,72.0
1325,254.86275216458333,255.15040254166667,51.0,51.0
1326,255.04347491458333,255.17751095416668,61.0,69.0
1327,255.04347491458333,255.180523,66.0,59.0
1328,255.04347491458333,255.18805311458334,73.0,57.0
1329,255.04347491458333,255.20612538958335,70.0,63.0
1330,255.22419766458333,255.47419746875002,56.0,49.0
1331,254.50130666458335,255.48624565208334,44.0,70.0
1332,255.58564316458333,255.6865467,68.0,75.0
1333,255.58564316458333,255.70160692916667,63.0,73.0
1334,255.58564316458333,255.70612499791667,72.0,73.0
1335,256.30853416458336,256.4470882729167,58.0,62.0
1336,256.12781141458333,256.51636532708335,56.0,62.0
1337,255.94708866458333,256.55702794583334,51.0,64.0
1338,256.48925691458334,256.73473865,61.0,64.0
1339,255.58564316458333,256.7588350166667,44.0,70.0
1340,256.66997966458337,256.7708832,63.0,60.0
1341,256.66997966458337,256.93805174375,56.0,63.0
1342,256.85070241458334,256.98925652291666,65.0,75.0
1343,257.03142516458337,257.29196712916666,66.0,57.0
1344,257.21214791458334,257.3371478166667,68.0,64.0
1345,257.3928706645833,257.77991855416667,70.0,64.0
1346,257.3928706645833,257.81756912708335,63.0,72.0
1347,257.7543161645833,258.14588212291665,60.0,56.0
1348,258.1157616645833,258.19106281041667,63.0,67.0
1349,258.1157616645833,258.2241953145833,68.0,76.0
1350,257.3928706645833,258.52539989791666,53.0,64.0
1351,258.4772071645833,258.66395400625,60.0,63.0
1352,259.2000981645833,259.3175679520833,85.0,63.0
1353,259.2000981645833,259.3341342041667,77.0,53.0
1354,259.2000981645833,259.6368448104167,60.0,54.0
1355,259.5615436645833,259.66696526875,84.0,69.0
1356,259.5615436645833,259.6895556125,75.0,55.0
1357,259.5615436645833,259.88232654583334,65.0,49.0
1358,258.8386526645833,259.9049168895833,53.0,73.0
1359,259.9229891645833,260.041964975,60.0,64.0
1360,259.9229891645833,260.2136515875,80.0,49.0
1361,260.28443466458333,260.51786821666667,82.0,73.0
1362,260.28443466458333,260.56154288125003,73.0,69.0
1363,260.64588016458333,261.0269039625,53.0,59.0
1364,261.00732566458333,261.30551820208336,65.0,69.0
1365,261.00732566458333,261.31154229375,60.0,70.0
1366,261.00732566458333,261.35672298125,61.0,67.0
1367,261.00732566458333,261.40792776041667,58.0,57.0
1368,260.28443466458333,261.4606385625,46.0,75.0
1369,261.36877116458334,261.56907221250003,53.0,55.0
1370,261.54949391458337,261.8115419020833,60.0,63.0
1371,261.54949391458337,261.8145539479167,63.0,66.0
1372,262.09166216458334,262.38834867916665,61.0,75.0
1373,262.09166216458334,262.4079269770833,65.0,76.0
1374,261.54949391458337,262.55702324583336,46.0,46.0
1375,262.45310766458334,262.608228025,58.0,50.0
1376,262.6338304145833,262.8160591875,61.0,75.0
1377,262.6338304145833,262.8220832791667,68.0,70.0
1378,262.9952759145833,263.1594324125,65.0,63.0
1379,262.9952759145833,263.1835287791667,63.0,40.0
1380,263.17599866458335,263.55250439375,66.0,59.0
1381,263.17599866458335,263.59768508125,61.0,66.0
1382,263.17599866458335,263.63232360833337,58.0,63.0
1383,263.17599866458335,263.96666069583335,51.0,64.0
1384,263.89888966458335,264.13382923958335,66.0,70.0
1385,263.17599866458335,264.21515447708333,39.0,60.0
1386,263.89888966458335,264.21515447708333,58.0,67.0
1387,263.89888966458335,264.27840743958336,61.0,75.0
1388,264.26033516458335,264.40340734166665,51.0,59.0
1389,264.62178066458335,264.8612383083333,56.0,58.0
1390,264.62178066458335,265.11876822708336,61.0,75.0
1391,264.62178066458335,265.13232243333334,58.0,67.0
1392,264.62178066458335,265.15039470833335,66.0,62.0
1393,264.98322616458336,265.4335270166667,56.0,38.0
1394,264.62178066458335,265.56153896458335,44.0,67.0
1395,265.34467166458336,265.65641840833337,61.0,75.0
1396,265.34467166458336,265.68804488958335,58.0,64.0
1397,265.70611716458336,265.788948425,51.0,75.0
1398,265.34467166458336,265.8446712729167,66.0,73.0
1399,266.06756266458336,266.46967078333336,65.0,63.0
1400,266.06756266458336,266.4726828291667,61.0,70.0
1401,266.06756266458336,266.49226112708334,56.0,59.0
1402,266.42900816458337,266.8341283291667,49.0,50.0
1403,266.79045366458337,266.99527278125,66.0,73.0
1404,266.79045366458337,267.04948960625,61.0,75.0
1405,266.79045366458337,267.05701972083335,58.0,70.0
1406,266.06756266458336,267.13232086666665,37.0,69.0
1407,267.1518991645833,267.26485088333334,49.0,56.0
1408,267.33262191458334,267.6308144520833,65.0,62.0
1409,267.33262191458334,267.6338264979167,68.0,40.0
1410,267.33262191458334,267.64436865833335,56.0,62.0
1411,267.33262191458334,267.6518987729167,61.0,63.0
1412,267.8747901645833,268.1097297395833,63.0,70.0
1413,267.8747901645833,268.14135622083336,56.0,64.0
1414,267.33262191458334,268.1865369083333,37.0,66.0
1415,268.2362356645833,268.47268126250003,56.0,70.0
1416,268.2362356645833,268.54948843125,61.0,78.0
1417,268.2362356645833,268.6534040125,49.0,62.0
1418,268.5976811645833,268.7407533416667,48.0,49.0
1419,268.5976811645833,268.80250028125,63.0,58.0
1420,268.9591266645833,269.87177655208336,39.0,49.0
1421,268.9591266645833,269.92900542291665,51.0,47.0
1422,268.9591266645833,269.9546078125,58.0,54.0
1423,268.9591266645833,269.96514997291666,66.0,52.0
1424,268.9591266645833,269.99828247708336,61.0,60.0
1425,270.40490866458333,271.09767920625,58.0,51.0
1426,270.40490866458333,271.1654502375,66.0,56.0
1427,270.40490866458333,271.1850285354167,61.0,56.0
1428,271.85069066458334,272.24828071458336,80.0,39.0
1429,271.85069066458334,272.6624370166667,85.0,44.0
1430,272.03141341458337,272.72719600208336,92.0,45.0
1431,270.40490866458333,272.82659351458335,44.0,49.0
1432,270.40490866458333,272.90340068333336,56.0,50.0
1433,274.74225466458336,275.27086870833335,49.0,76.0
1434,275.10370016458336,275.4335191833333,56.0,58.0
1435,275.46514566458336,275.85821764583335,61.0,47.0
1436,275.82659116458336,276.07809699166665,68.0,56.0
1437,275.82659116458336,276.198578825,70.0,70.0
1438,275.82659116458336,276.3536991854167,63.0,66.0
1439,276.18803666458336,276.6262893333333,68.0,56.0
1440,276.18803666458336,276.7196627541667,65.0,60.0
1441,276.54948216458337,276.867253,63.0,48.0
1442,276.91092766458337,277.01936131458336,68.0,57.0
1443,277.6338186645833,278.2482760145833,46.0,60.0
1444,277.9952641645833,278.32658920625,53.0,52.0
1445,278.3567096645833,278.764841875,58.0,48.0
1446,278.7181551645833,279.04948020625,68.0,51.0
1447,279.0796006645833,279.58261231875,70.0,54.0
1448,279.0796006645833,279.88080485625,61.0,64.0
1449,278.7181551645833,279.94405781875,60.0,54.0
1450,280.52538266458333,281.3642374291667,51.0,67.0
1451,281.24827366458334,281.41544220833333,63.0,51.0
1452,280.88682816458333,281.44405664375,58.0,50.0
1453,282.69405566458335,282.86122420833334,56.0,49.0
1454,281.97116466458334,282.86423625416666,44.0,70.0
1455,282.33261016458334,282.90188682708333,51.0,55.0
1456,283.41694666458335,283.7618259125,37.0,69.0
1457,283.76634398125003,284.1940544895833,49.0,59.0
1458,285.14736699583335,285.3039933791667,61.0,47.0
1459,285.43802941875003,285.54947511458334,63.0,48.0
1460,285.97567960000003,286.17296860208336,68.0,48.0
1461,286.25429383958334,286.36875158125,70.0,49.0
1462,286.66543809583334,286.8642331208333,73.0,21.0
1463,284.87628287083334,287.04646189375,56.0,50.0
1464,286.90338971666665,287.12628110833333,75.0,47.0
1465,284.4786928208333,287.1699557729167,53.0,60.0
1466,284.1292955041667,287.20007623125,51.0,58.0
1467,287.23923282708336,287.50128081458337,77.0,44.0
1468,287.60218435,287.6804975416667,80.0,47.0
1469,287.93501541458335,288.29646091458335,85.0,36.0
