,start,end,pitch,velocity
0,23.94697734375,24.71871539375,58.0,102.0
1,24.92523684375,25.21327991875,58.0,99.0
2,25.251323343750002,25.8939854875,57.0,82.0
3,26.229582843750002,26.49860420625,57.0,95.0
4,26.55566934375,26.783929893750003,55.0,78.0
5,26.88175584375,27.08827729375,57.0,67.0
6,27.207842343750002,27.4211572625,55.0,85.0
7,27.53392884375,27.79208065625,53.0,82.0
8,27.86001534375,28.77577493125,55.0,92.0
9,29.164361343750002,29.770338756250002,58.0,96.0
10,30.142620843750002,30.40349004375,58.0,100.0
11,30.46870734375,31.07740214375,57.0,96.0
12,31.44696684375,31.536640631250002,60.0,95.0
13,31.77305334375,32.1168028625,60.0,93.0
14,32.09913984375,32.201041875,62.0,79.0
15,32.42522634375,32.71598680625,65.0,95.0
16,32.75131284375,33.1086493,60.0,72.0
17,33.07739934375,33.733648425,62.0,81.0
18,33.72957234375,33.733648425,62.0,93.0
19,34.05565884375,34.1820173625,65.0,92.0
20,34.38174534375,35.103211725,67.0,96.0
21,35.03391834375,35.396689575,65.0,88.0
22,35.36000484375,35.7363630125,67.0,83.0
23,35.68609134375,36.339623037500004,65.0,99.0
24,36.66435084375,36.789350668750004,62.0,90.0
25,36.99043734375,37.3260347,65.0,97.0
26,37.31652384375,37.429295425,62.0,79.0
27,37.64261034375,37.94559905,62.0,95.0
28,37.96869684375,38.24315298125,60.0,81.0
29,38.29478334375,38.910271612500004,58.0,77.0
30,38.94695634375,39.29478194375,55.0,89.0
31,39.27304284375,39.494509925,57.0,83.0
32,39.59912934375,39.79206385625,58.0,90.0
33,39.92521584375,40.23228063125,62.0,99.0
34,40.25130234375,40.4809215875,60.0,97.0
35,40.57738884375,40.766247275000005,58.0,90.0
36,40.90347534375,41.22140968125,57.0,88.0
37,41.55564834375,42.22956044375,53.0,88.0
38,42.20782134375,43.69423230625,55.0,82.0
39,44.81651334375,45.58825139375,58.0,102.0
40,45.79477284375,46.08281591875,58.0,99.0
41,46.12085934375,46.7635214875,57.0,82.0
42,47.09911884375,47.368140206250004,57.0,95.0
43,47.42520534375,47.65346589375,55.0,78.0
44,47.75129184375,47.95781329375,57.0,67.0
45,48.07737834375,48.2906932625,55.0,85.0
46,48.40346484375,48.661616656250004,53.0,82.0
47,48.72955134375,49.64531093125,55.0,92.0
48,50.03389734375,50.63987475625,58.0,96.0
49,51.01215684375,51.27302604375,58.0,100.0
50,51.33824334375,51.94693814375,57.0,96.0
51,52.31650284375,52.40617663125,60.0,95.0
52,52.642589343750004,52.9863388625,60.0,93.0
53,52.96867584375,53.070577875000005,62.0,79.0
54,53.29476234375,53.585522806250005,65.0,95.0
55,53.620848843750004,53.9781853,60.0,72.0
56,53.94693534375,54.603184425,62.0,81.0
57,54.599108343750004,54.603184425,62.0,93.0
58,54.92519484375,55.0515533625,65.0,92.0
59,55.25128134375,55.972747725000005,67.0,96.0
60,55.90345434375,56.266225575,65.0,88.0
61,56.22954084375,56.605899012500004,67.0,83.0
62,56.555627343750004,57.2091590375,65.0,99.0
63,57.533886843750004,57.65888666875,62.0,90.0
64,57.85997334375,58.195570700000005,65.0,97.0
65,58.18605984375,58.298831425,62.0,79.0
66,58.512146343750004,58.81513505,62.0,95.0
67,58.83823284375,59.11268898125,60.0,81.0
68,59.16431934375,59.7798076125,58.0,77.0
69,59.81649234375,60.16431794375,55.0,89.0
70,60.14257884375,60.364045925,57.0,83.0
71,60.468665343750004,60.66159985625,58.0,90.0
72,60.79475184375,61.10181663125,62.0,99.0
73,61.12083834375,61.3504575875,60.0,97.0
74,61.446924843750004,61.60453331875,62.0,112.0
75,61.77301134375,62.176543387500004,65.0,117.0
76,62.425184343750004,62.97409661875,62.0,107.0
77,63.07735734375,64.461866275,67.0,107.0
78,65.03387634375001,65.21322391875,62.0,102.0
79,65.35996284375,65.6330602875,65.0,107.0
80,65.68604934375,65.85452736875,67.0,112.0
81,66.01213584375,66.168385625,67.0,112.0
82,66.33822234375,66.4971895125,67.0,117.0
83,66.66430884375,66.85996074375001,65.0,112.0
84,66.99039534375001,67.42517734375001,67.0,122.0
85,67.96865484375,68.0841438125,62.0,99.0
86,68.29474134375,68.62082784375,67.0,117.0
87,68.62082784375,68.6928386125,65.0,90.0
88,68.94691434375001,69.27843561875001,65.0,117.0
89,69.27300084375,69.385772425,62.0,100.0
90,69.59908734375,70.11267358125001,65.0,102.0
91,70.25126034375,70.49039044375,62.0,99.0
92,70.57734684375001,70.84636820625,65.0,100.0
93,70.90343334375001,71.200987275,67.0,107.0
94,71.22951984375,71.4373999875,65.0,112.0
95,71.55560634375,71.84636680625,67.0,99.0
96,71.88169284375,72.11674686250001,70.0,122.0
97,72.20777934375,72.6547895875,69.0,117.0
98,72.85995234375001,73.298810425,65.0,112.0
99,73.51212534375,74.8232648125,62.0,107.0
100,75.46864434375,75.6738071,62.0,100.0
101,75.79473084375,76.0732630625,65.0,112.0
102,76.12081734375,76.27299104375,67.0,112.0
103,76.44690384375001,76.61266448125001,67.0,107.0
104,76.77299034375001,76.94690314375,67.0,117.0
105,77.09907684375,77.2825005,65.0,112.0
106,77.42516334375,77.7091303375,67.0,127.0
107,78.40342284375001,78.63168339375001,70.0,127.0
108,78.72950934375,78.91429169375,72.0,117.0
109,79.05559584375,79.2308673375,72.0,117.0
110,79.38168234375,79.55423645,72.0,127.0
111,79.70776884375,79.88032295000001,70.0,122.0
112,80.03385534375,80.34227882500001,72.0,127.0
113,81.33820134375,81.54200540625,70.0,127.0
114,81.66428784375,81.8776027625,69.0,127.0
115,81.99037434375,82.20504795625,67.0,100.0
116,82.31646084375001,82.4808627875,70.0,127.0
117,82.64254734375,82.885753525,69.0,127.0
118,83.29472034375,83.82596960000001,65.0,112.0
119,83.94689334375,85.28656538125,67.0,127.0
120,85.90341234375,86.08275991875,62.0,102.0
121,86.22949884375001,86.5025962875,65.0,107.0
122,86.55558534375,86.72406336875001,67.0,112.0
123,86.88167184375,87.03792162500001,67.0,112.0
124,87.20775834375,87.3667255125,67.0,117.0
125,87.53384484375,87.72949674375,65.0,112.0
126,87.85993134375,88.29471334375,67.0,122.0
127,88.83819084375,88.9536798125,62.0,99.0
128,89.16427734375,89.49036384375,67.0,117.0
129,89.49036384375,89.56237461250001,65.0,90.0
130,89.81645034375,90.14797161875,65.0,117.0
131,90.14253684375001,90.25530842500001,62.0,100.0
132,90.46862334375,90.98220958125,65.0,102.0
133,91.12079634375,91.35992644375,62.0,99.0
134,91.44688284375,91.71590420625,65.0,100.0
135,91.77296934375,92.070523275,67.0,107.0
136,92.09905584375001,92.3069359875,65.0,112.0
137,92.42514234375,92.71590280625,67.0,99.0
138,92.75122884375,92.9862828625,70.0,122.0
139,93.07731534375,93.5243255875,69.0,117.0
140,93.72948834375,94.16834642500001,65.0,112.0
141,94.38166134375,95.69280081250001,62.0,107.0
142,96.33818034375,96.5433431,62.0,100.0
143,96.66426684375,96.9427990625,65.0,112.0
144,96.99035334375,97.14252704375001,67.0,112.0
145,97.31643984375,97.48220048125,67.0,107.0
146,97.64252634375,97.81643914375,67.0,117.0
147,97.96861284375001,98.15203650000001,65.0,112.0
148,98.29469934375,98.57866633750001,67.0,127.0
149,99.27295884375,99.50121939375,70.0,127.0
150,99.59904534375,99.78382769375,72.0,117.0
151,99.92513184375001,100.1004033375,72.0,117.0
152,100.25121834375,100.42377245,72.0,127.0
153,100.57730484375,100.74985895,70.0,122.0
154,100.90339134375,101.211814825,72.0,127.0
155,102.20773734375,102.41154140625001,70.0,127.0
156,102.53382384375,102.7471387625,69.0,127.0
157,102.85991034375,103.07458395625001,67.0,100.0
158,103.18599684375,103.3503987875,70.0,127.0
159,103.51208334375,103.75528952500001,69.0,127.0
160,104.16425634375,104.6955056,65.0,112.0
161,104.81642934375,106.15610138125001,67.0,127.0
162,128.29465734375,129.06639539375,58.0,102.0
163,129.27291684375,129.56095991875,58.0,99.0
164,129.59900334375,130.2416654875,57.0,82.0
165,130.57726284375,130.84628420625,57.0,95.0
166,130.90334934375,131.13160989375,55.0,78.0
167,131.22943584375,131.43595729375,57.0,67.0
168,131.55552234375,131.7688372625,55.0,85.0
169,131.88160884375,132.13976065625002,53.0,82.0
170,132.20769534375,133.12345493125,55.0,92.0
171,133.51204134375,134.11801875625,58.0,96.0
172,134.49030084375,134.75117004375,58.0,100.0
173,134.81638734375,135.42508214375002,57.0,96.0
174,135.79464684375,135.88432063125,60.0,95.0
175,136.12073334375,136.4644828625,60.0,93.0
176,136.44681984375,136.548721875,62.0,79.0
177,136.77290634375,137.06366680625,65.0,95.0
178,137.09899284375,137.4563293,60.0,72.0
179,137.42507934375,138.081328425,62.0,81.0
180,138.07725234375002,138.081328425,62.0,93.0
181,138.40333884375,138.5296973625,65.0,92.0
182,138.72942534375,139.450891725,67.0,96.0
183,139.38159834375,139.744369575,65.0,88.0
184,139.70768484375,140.08404301250002,67.0,83.0
185,140.03377134375,140.68730303750002,65.0,99.0
186,141.01203084375,141.13703066875001,62.0,90.0
187,141.33811734375,141.6737147,65.0,97.0
188,141.66420384375002,141.77697542500002,62.0,79.0
189,141.99029034375002,142.29327905,62.0,95.0
190,142.31637684375,142.59083298125,60.0,81.0
191,142.64246334375,143.2579516125,58.0,77.0
192,143.29463634375,143.64246194375,55.0,89.0
193,143.62072284375,143.842189925,57.0,83.0
194,143.94680934375,144.13974385625,58.0,90.0
195,144.27289584375,144.57996063125,62.0,99.0
196,144.59898234375,144.8286015875,60.0,97.0
197,144.92506884375,145.08267731875,62.0,112.0
198,145.25115534375,145.65468738750002,65.0,117.0
199,145.90332834375002,146.45224061875,62.0,107.0
200,146.55550134375,147.940010275,67.0,107.0
201,151.12071234375,151.30005991875,62.0,102.0
202,151.44679884375,151.7198962875,65.0,107.0
203,151.77288534375,151.94136336875002,67.0,112.0
204,152.09897184375,152.25522162500002,67.0,112.0
205,152.42505834375,152.5840255125,67.0,117.0
206,152.75114484375,152.94679674375,65.0,112.0
207,153.07723134375001,153.51201334375,67.0,122.0
208,154.05549084375,154.1709798125,62.0,99.0
209,154.38157734375,154.70766384375,67.0,117.0
210,154.70766384375,154.7796746125,65.0,90.0
211,155.03375034375,155.36527161875,65.0,117.0
212,155.35983684375,155.472608425,62.0,100.0
213,155.68592334375,156.19950958125,65.0,102.0
214,156.33809634375,156.57722644375,62.0,99.0
215,156.66418284375,156.93320420625,65.0,100.0
216,156.99026934375001,157.287823275,67.0,107.0
217,157.31635584375002,157.5242359875,65.0,112.0
218,157.64244234375002,157.93320280625,67.0,99.0
219,157.96852884375,158.2035828625,70.0,122.0
220,158.29461534375,158.7416255875,69.0,117.0
221,158.94678834375,159.385646425,65.0,112.0
222,159.59896134375,160.91010081250002,62.0,107.0
223,161.55548034375002,161.7606431,62.0,100.0
224,161.88156684375,162.1600990625,65.0,112.0
225,162.20765334375,162.35982704375002,67.0,112.0
226,162.53373984375,162.69950048125,67.0,107.0
227,162.85982634375,163.03373914375,67.0,117.0
228,163.18591284375,163.3693365,65.0,112.0
229,163.51199934375,163.7959663375,67.0,127.0
230,164.49025884375,164.71851939375,70.0,127.0
231,164.81634534375002,165.00112769375,72.0,117.0
232,165.14243184375002,165.3177033375,72.0,117.0
233,165.46851834375002,165.64107245,72.0,127.0
234,165.79460484375,165.96715895,70.0,122.0
235,166.12069134375,166.429114825,72.0,127.0
236,167.42503734375,167.62884140625002,70.0,127.0
237,167.75112384375,167.9644387625,69.0,127.0
238,168.07721034375,168.29188395625002,67.0,100.0
239,168.40329684375,168.5676987875,70.0,127.0
240,168.72938334375002,168.97258952500002,69.0,127.0
241,169.38155634375002,169.9128056,65.0,112.0
242,170.03372934375,171.37340138125,67.0,127.0
243,171.99024834375,172.16959591875002,62.0,102.0
244,172.31633484375,172.58943228750002,65.0,107.0
245,172.64242134375002,172.81089936875,67.0,112.0
246,172.96850784375002,173.124757625,67.0,112.0
247,173.29459434375,173.45356151250002,67.0,117.0
248,173.62068084375,173.81633274375,65.0,112.0
249,173.94676734375,174.38154934375,67.0,122.0
250,174.92502684375,175.04051581250002,62.0,99.0
251,175.25111334375,175.57719984375,67.0,117.0
252,175.57719984375,175.6492106125,65.0,90.0
253,175.90328634375,176.23480761875,65.0,117.0
254,176.22937284375,176.34214442500001,62.0,100.0
255,176.55545934375002,177.06904558125,65.0,102.0
256,177.20763234375,177.44676244375,62.0,99.0
257,177.53371884375,177.80274020625,65.0,100.0
258,177.85980534375,178.157359275,67.0,107.0
259,178.18589184375,178.3937719875,65.0,112.0
260,178.51197834375,178.80273880625,67.0,99.0
261,178.83806484375,179.0731188625,70.0,122.0
262,179.16415134375,179.6111615875,69.0,117.0
263,179.81632434375,180.25518242500002,65.0,112.0
264,180.46849734375002,181.7796368125,62.0,107.0
265,182.42501634375,182.63017910000002,62.0,100.0
266,182.75110284375,183.0296350625,65.0,112.0
267,183.07718934375,183.22936304375,67.0,112.0
268,183.40327584375,183.56903648125,67.0,107.0
269,183.72936234375,183.90327514375,67.0,117.0
270,184.05544884375,184.2388725,65.0,112.0
271,184.38153534375002,184.66550233750002,67.0,127.0
272,185.35979484375,185.58805539375,70.0,127.0
273,185.68588134375,185.87066369375,72.0,117.0
274,186.01196784375,186.18723933750002,72.0,117.0
275,186.33805434375,186.51060845,72.0,127.0
276,186.66414084375,186.83669495,70.0,122.0
277,186.99022734375,187.298650825,72.0,127.0
278,188.29457334375002,188.49837740625,70.0,127.0
279,188.62065984375002,188.83397476250002,69.0,127.0
280,188.94674634375,189.16141995625,67.0,100.0
281,189.27283284375,189.43723478750002,70.0,127.0
282,189.59891934375,189.842125525,69.0,127.0
283,190.25109234375,190.7823416,65.0,112.0
284,190.90326534375,192.24293738125002,67.0,127.0
285,193.51195734375,193.831250375,70.0,127.0
286,194.00108709375002,194.3258149,69.0,127.0
287,194.49021684375,194.7089665375,67.0,102.0
288,194.81630334375,195.13967245625,70.0,127.0
289,195.30543309375,197.4861365625,69.0,127.0
290,197.75108184375,198.2959180375,65.0,102.0
291,198.72934134375,202.95759629375002,67.0,127.0
