,start,end,pitch,velocity
0,45.618050993749996,45.960643552083326,75.0,127.0
1,46.17360649374999,46.2916620375,75.0,112.0
2,46.45138424375,46.62268052291666,75.0,96.0
3,46.72916199375,47.43518044166666,78.0,127.0
4,47.56249524374999,47.84258780833333,73.0,112.0
5,47.84027299375,49.74768021041666,75.0,122.0
6,50.06249499374999,50.38425422083333,75.0,127.0
7,50.61805049375,50.736106037499994,75.0,122.0
8,50.895828243749996,51.03240230416666,75.0,112.0
9,51.173605993749995,51.80786518958333,77.0,117.0
10,52.00693924375,52.16897626458333,73.0,122.0
11,52.284716993749996,54.479161218749994,70.0,112.0
12,54.50693899375,55.104161156249994,70.0,117.0
13,55.34027224374999,55.557864814583326,70.0,99.0
14,55.61804999374999,56.118049943749995,75.0,117.0
15,56.173605493749996,56.63193878124999,70.0,122.0
16,56.72916099374999,57.30092019583333,68.0,127.0
17,57.28471649375,58.569438587499995,66.0,127.0
18,58.951382993749995,59.57869774583333,68.0,127.0
19,59.78471624375,60.08101251041666,68.0,117.0
20,60.062493993749996,60.67823467291666,66.0,122.0
21,60.89582724374999,61.16434573541666,63.0,100.0
22,61.17360499375,63.287030708333326,70.0,122.0
23,63.39582699374999,63.73147510833333,75.0,127.0
24,63.951382493749996,64.06017877916666,75.0,107.0
25,64.22916024374999,64.33101208541666,75.0,112.0
26,64.50693799375,65.12499348749999,77.0,117.0
27,65.34027124375,65.58101196041666,73.0,112.0
28,65.61804899375,67.49304880624999,75.0,112.0
29,67.84027099375,68.17360429374999,75.0,122.0
30,68.39582649375,68.50462277916667,75.0,107.0
31,68.67360424374999,68.8194375625,75.0,102.0
32,68.95138199374999,69.64119673958332,77.0,97.0
33,69.78471524375,70.03703003333332,73.0,100.0
34,70.06249299375,72.05786316458332,70.0,107.0
35,72.28471499375,73.17591860833333,70.0,127.0
36,73.39582599375,73.73378892291666,75.0,122.0
37,73.95138149374999,74.10878888541666,75.0,112.0
38,74.22915924374999,74.35878886041667,70.0,112.0
39,74.50693699374999,74.92591843333332,68.0,117.0
40,75.06249249375,75.25925173333333,68.0,122.0
41,75.34027024375,75.49536282083332,70.0,93.0
42,75.61804799375,76.75693676875,66.0,117.0
43,76.72915899374999,77.22684412916666,68.0,127.0
44,77.28471449374999,77.73378852291665,70.0,127.0
45,77.84026999375,78.50462177916665,66.0,127.0
46,78.67360324375,78.77314027083332,63.0,112.0
47,78.95138099374999,81.07175115208332,63.0,127.0
48,81.17360299375,81.64582516875,75.0,127.0
49,81.72915849374999,82.60415840625,78.0,127.0
50,82.84026949374999,83.22684352916666,75.0,127.0
51,83.39582499375,84.0694360375,80.0,127.0
52,83.95138049375,85.2916581375,78.0,127.0
53,85.61804699375,86.05323213541666,77.0,122.0
54,86.17360249375,86.35878766041665,75.0,107.0
55,86.45138024375,86.68054688749999,77.0,89.0
56,86.72915799375,87.39813940833332,73.0,107.0
57,87.56249124374999,87.68749123125,70.0,117.0
58,87.84026899374999,88.28471339375,73.0,127.0
59,88.39582449375,90.10647247083332,75.0,127.0
60,90.06249099374999,90.10647247083332,75.0,122.0
61,90.61804649374999,91.36341678958333,78.0,127.0
62,91.45137974375,91.85184266666666,75.0,127.0
63,92.28471299374999,92.7777685,82.0,127.0
64,92.84026849374999,94.06249059375,80.0,127.0
65,94.50693499375,94.90739791666665,77.0,127.0
66,95.06249049374999,95.24073121666666,75.0,122.0
67,95.34026824374999,95.54165711249999,77.0,93.0
68,95.61804599374999,96.07406446666666,75.0,122.0
69,96.17360149375,96.6527681125,73.0,112.0
70,96.72915699375,97.3194347125,75.0,96.0
71,97.28471249374999,97.55091617083332,70.0,97.0
72,97.56249024374999,98.65508272708333,70.0,100.0
73,98.95137899375,99.40508265208332,70.0,127.0
74,99.50693449375,99.85415668124999,75.0,99.0
75,100.06248999374999,100.39582329374998,75.0,117.0
76,100.61804549374999,100.85415658125,70.0,107.0
77,100.89582324374999,101.21758247083332,68.0,86.0
78,101.17360099374999,101.52313799583332,70.0,107.0
79,101.72915649375,102.65276751249999,70.0,122.0
80,103.39582299374999,103.81248961874999,70.0,122.0
81,103.95137849374998,104.34489697291666,75.0,96.0
82,104.50693399375,104.79860063125,75.0,117.0
83,105.06248949375,105.28008206458333,70.0,102.0
84,105.34026724374999,105.61804499374999,68.0,92.0
85,105.61804499374999,106.04860050625,66.0,107.0
86,106.17360049374999,107.08563743958332,66.0,122.0
87,107.84026699374999,107.9583225375,65.0,102.0
88,108.11804474374999,108.44906322916665,65.0,96.0
89,108.67360024374999,108.92822984791665,63.0,107.0
90,108.95137799374999,109.36572980416666,68.0,122.0
91,109.50693349375,109.5972112625,70.0,117.0
92,109.78471124375,109.89350752916665,70.0,112.0
93,110.06248899375,110.69443337499999,73.0,122.0
94,110.89582224374999,111.14350740416666,70.0,117.0
95,111.17359999374999,111.79397030208332,73.0,127.0
96,111.72915549374999,112.06480360833332,75.0,127.0
97,112.28471099375,112.82869242083332,78.0,127.0
98,113.11804424374999,113.31711829791665,78.0,127.0
99,113.39582199374999,113.78934047291666,77.0,117.0
100,113.95137749374999,114.31480338333333,75.0,127.0
101,114.50693299374998,116.69906240416665,80.0,127.0
102,116.72915499374999,117.16896976458332,75.0,127.0
103,117.28471049374998,117.80322896041666,77.0,102.0
104,117.84026599375,118.16434003541666,73.0,127.0
105,118.11804374375,118.47452518958332,70.0,117.0
106,118.67359924374999,118.95369180833332,70.0,112.0
107,118.95137699374999,119.46063620208332,73.0,122.0
108,119.50693249374999,123.41433951041665,75.0,122.0
109,145.61804099375,145.96063355208332,75.0,127.0
110,146.17359649374998,146.2916520375,75.0,112.0
111,146.45137424375,146.62267052291665,75.0,96.0
112,146.72915199374998,147.43517044166666,78.0,127.0
113,147.56248524375,147.84257780833332,73.0,112.0
114,147.84026299374997,149.74767021041666,75.0,122.0
115,150.06248499375,150.38424422083332,75.0,127.0
116,150.61804049375,150.73609603749998,75.0,122.0
117,150.89581824375,151.03239230416665,75.0,112.0
118,151.17359599374998,151.8078551895833,77.0,117.0
119,152.00692924375,152.16896626458333,73.0,122.0
120,152.28470699374998,154.47915121875,70.0,112.0
121,154.50692899375,155.10415115625,70.0,117.0
122,155.34026224374998,155.55785481458332,70.0,99.0
123,155.61803999375,156.11803994374998,75.0,117.0
124,156.17359549374999,156.63192878125,70.0,122.0
125,156.72915099374998,157.30091019583332,68.0,127.0
126,157.28470649374998,158.5694285875,66.0,127.0
127,158.95137299375,159.57868774583332,68.0,127.0
128,159.78470624374998,160.08100251041665,68.0,117.0
129,160.06248399375,160.67822467291666,66.0,122.0
130,160.89581724374997,161.16433573541664,63.0,100.0
131,161.17359499375,163.28702070833333,70.0,122.0
132,163.39581699374997,163.7314651083333,75.0,127.0
133,163.95137249374997,164.06016877916664,75.0,107.0
134,164.22915024374998,164.33100208541666,75.0,112.0
135,164.50692799375,165.12498348749997,77.0,117.0
136,165.34026124374998,165.58100196041664,73.0,112.0
137,165.61803899375,167.49303880624998,75.0,112.0
138,167.84026099374998,168.17359429374997,75.0,122.0
139,168.39581649374998,168.50461277916665,75.0,107.0
140,168.67359424375,168.81942756249998,75.0,102.0
141,168.95137199374997,169.64118673958333,77.0,97.0
142,169.78470524374998,170.0370200333333,73.0,100.0
143,170.06248299375,172.05785316458332,70.0,107.0
144,172.28470499374998,173.17590860833332,70.0,127.0
145,173.39581599374998,173.73377892291666,75.0,122.0
146,173.95137149374997,174.10877888541665,75.0,112.0
147,174.22914924375,174.35877886041666,70.0,112.0
148,174.50692699374997,174.92590843333332,68.0,117.0
149,175.06248249375,175.2592417333333,68.0,122.0
150,175.34026024374998,175.49535282083332,70.0,93.0
151,175.61803799375,176.75692676875,66.0,117.0
152,176.72914899375,177.22683412916666,68.0,127.0
153,177.28470449374998,177.73377852291665,70.0,127.0
154,177.84025999374998,178.50461177916665,66.0,127.0
155,178.67359324375,178.77313027083332,63.0,112.0
156,178.95137099374998,181.07174115208332,63.0,127.0
157,181.17359299375,181.64581516874998,75.0,127.0
158,181.72914849375,182.60414840624998,78.0,127.0
159,182.84025949374998,183.22683352916664,75.0,127.0
160,183.39581499374998,184.0694260375,80.0,127.0
161,183.95137049374998,185.29164813749998,78.0,127.0
162,185.61803699375,186.05322213541666,77.0,122.0
163,186.17359249375,186.35877766041665,75.0,107.0
164,186.45137024374998,186.68053688749998,77.0,89.0
165,186.72914799375,187.39812940833332,73.0,107.0
166,187.56248124374997,187.68748123125,70.0,117.0
167,187.84025899374998,188.28470339375,73.0,127.0
168,188.39581449374998,190.10646247083332,75.0,127.0
169,190.06248099374997,190.10646247083332,75.0,122.0
170,190.61803649375,191.3634067895833,78.0,127.0
171,191.45136974374998,191.85183266666664,75.0,127.0
172,192.28470299375,192.77775849999998,82.0,127.0
173,192.84025849374999,194.06248059375,80.0,127.0
174,194.50692499374998,194.90738791666664,77.0,127.0
175,195.06248049374997,195.24072121666666,75.0,122.0
176,195.34025824375,195.5416471125,77.0,93.0
177,195.61803599374997,196.07405446666664,75.0,122.0
178,196.17359149375,196.65275811249998,73.0,112.0
179,196.72914699375,197.3194247125,75.0,96.0
180,197.28470249375,197.55090617083331,70.0,97.0
181,197.56248024374997,198.6550727270833,70.0,100.0
182,198.95136899374998,199.4050726520833,70.0,127.0
183,199.50692449374998,199.85414668124997,75.0,99.0
184,200.06247999374997,200.39581329375,75.0,117.0
185,200.61803549374997,200.85414658124998,70.0,107.0
186,200.89581324374998,201.21757247083332,68.0,86.0
187,201.17359099375,201.5231279958333,70.0,107.0
188,201.72914649375,202.6527575125,70.0,122.0
189,203.39581299374998,203.81247961875,70.0,122.0
190,203.95136849374998,204.34488697291664,75.0,96.0
191,204.50692399374998,204.79859063125,75.0,117.0
192,205.06247949374998,205.28007206458332,70.0,102.0
193,205.34025724375,205.61803499374997,68.0,92.0
194,205.61803499374997,206.04859050624998,66.0,107.0
195,206.17359049374997,207.0856274395833,66.0,122.0
196,207.84025699375,207.95831253749998,65.0,102.0
197,208.11803474374997,208.44905322916665,65.0,96.0
198,208.67359024374997,208.92821984791664,63.0,107.0
199,208.95136799374998,209.36571980416664,68.0,122.0
200,209.50692349374998,209.5972012625,70.0,117.0
201,209.78470124375,209.89349752916664,70.0,112.0
202,210.06247899374998,210.69442337499999,73.0,122.0
203,210.89581224375,211.14349740416665,70.0,117.0
204,211.17358999374997,211.79396030208332,73.0,127.0
205,211.72914549374997,212.0647936083333,75.0,127.0
206,212.28470099375,212.8286824208333,78.0,127.0
207,213.11803424374997,213.31710829791666,78.0,127.0
208,213.39581199375,213.78933047291665,77.0,117.0
209,213.95136749374998,214.31479338333332,75.0,127.0
210,214.50692299374998,216.69905240416665,80.0,127.0
211,216.72914499374997,217.16895976458332,75.0,127.0
212,217.28470049375,217.80321896041664,77.0,102.0
213,217.84025599375,218.16433003541664,73.0,127.0
214,218.11803374374998,218.47451518958331,70.0,117.0
215,218.67358924374997,218.9536818083333,70.0,112.0
216,218.95136699374999,219.46062620208332,73.0,122.0
217,219.50692249374998,223.1897924958333,75.0,122.0
218,223.39581099375,223.86803316874997,75.0,127.0
219,223.95136649375,224.82636640624997,78.0,127.0
220,225.06247749374998,225.44905152916664,75.0,127.0
221,225.61803299374998,226.2916440375,80.0,127.0
222,226.17358849374997,227.51386613749997,78.0,127.0
223,227.84025499375,228.27544013541666,77.0,122.0
224,228.39581049375,228.58099566041665,75.0,107.0
225,228.67358824374998,228.90275488749998,77.0,89.0
226,228.95136599375,229.62034740833332,73.0,107.0
227,229.78469924374997,229.90969923125,70.0,117.0
228,230.06247699374998,230.50692139375,73.0,127.0
229,230.61803249374998,232.32868047083332,75.0,127.0
230,232.28469899374997,232.32868047083332,75.0,122.0
231,232.84025449374997,233.5856247895833,78.0,127.0
232,233.67358774374998,234.07405066666664,75.0,127.0
233,234.50692099375,234.99997649999997,82.0,127.0
234,235.06247649374998,236.28469859375,80.0,127.0
235,236.72914299374997,237.12960591666663,77.0,127.0
236,237.28469849374997,237.46293921666665,75.0,122.0
237,237.56247624374998,237.76386511249999,77.0,93.0
238,237.84025399374997,238.29627246666664,75.0,122.0
239,238.39580949375,238.87497611249998,73.0,112.0
240,238.95136499375,239.5416427125,75.0,96.0
241,239.50692049375,239.7731241708333,70.0,97.0
242,239.78469824374997,240.8772907270833,70.0,100.0
243,241.17358699374998,241.6272906520833,70.0,127.0
244,241.72914249374998,242.07636468124997,75.0,99.0
245,242.28469799374997,242.61803129374997,75.0,117.0
246,242.84025349374997,243.07636458124998,70.0,107.0
247,243.11803124374998,243.43979047083332,68.0,86.0
248,243.39580899374997,243.7453459958333,70.0,107.0
249,243.95136449375,244.8749755125,70.0,122.0
250,245.61803099374998,246.03469761875,70.0,122.0
251,246.17358649374998,246.56710497291664,75.0,96.0
252,246.72914199374998,247.02080863125,75.0,117.0
253,247.28469749374997,247.50229006458332,70.0,102.0
254,247.56247524375,247.84025299374997,68.0,92.0
255,247.84025299374997,248.27080850624998,66.0,107.0
256,248.39580849374997,249.3078454395833,66.0,122.0
257,250.06247499375,250.18053053749998,65.0,102.0
258,250.34025274374997,250.67127122916665,65.0,96.0
259,250.89580824374997,251.15043784791663,63.0,107.0
260,251.17358599374998,251.58793780416664,68.0,122.0
261,251.72914149374998,251.8194192625,70.0,117.0
262,252.00691924375,252.11571552916664,70.0,112.0
263,252.28469699374998,252.91664137499998,73.0,122.0
264,253.11803024374998,253.36571540416665,70.0,117.0
265,253.39580799374997,254.01617830208332,73.0,127.0
266,253.95136349374997,254.2870116083333,75.0,127.0
267,254.50691899375,255.0509004208333,78.0,127.0
268,255.34025224374997,255.53932629791663,78.0,127.0
269,255.61802999374999,256.0115484729167,77.0,117.0
270,256.17358549374995,256.5370113833333,75.0,127.0
271,256.72914099375,261.0856220395833,80.0,127.0
272,261.17358499374996,261.7870108583333,75.0,127.0
273,261.72914049375,262.78238112916665,77.0,100.0
274,262.84025149375,263.80321436041663,73.0,117.0
275,263.95136249374997,265.49765863541666,70.0,122.0
276,265.61802899375,270.3032137104166,75.0,127.0
