,start,end,pitch,velocity
0,4.506943993749999,4.988425427083333,46.0,57.0
1,4.506943993749999,5.02083283125,65.0,56.0
2,4.506943993749999,5.076388381249999,58.0,67.0
3,4.506943993749999,5.076388381249999,61.0,56.0
4,5.6180549937499995,6.509258608333333,58.0,57.0
5,5.6180549937499995,6.537036383333333,54.0,65.0
6,6.72916599375,7.506943693749999,58.0,54.0
7,5.6180549937499995,7.5856473895833325,51.0,55.0
8,6.72916599375,7.620369608333332,54.0,44.0
9,7.840276993749999,8.372684347916666,58.0,23.0
10,7.840276993749999,8.418980639583333,54.0,23.0
11,7.840276993749999,8.428239897916665,51.0,21.0
12,5.6180549937499995,8.95138799375,39.0,56.0
13,8.95138799375,9.469906460416667,53.0,89.0
14,8.95138799375,9.497684235416665,56.0,67.0
15,8.95138799375,9.49999905,37.0,63.0
16,8.95138799375,9.511573122916666,49.0,75.0
17,10.06249899375,11.467591445833332,36.0,65.0
18,10.06249899375,11.516202552083332,48.0,85.0
19,10.06249899375,11.520832181249999,51.0,97.0
20,10.06249899375,11.525461810416665,54.0,93.0
21,12.28472099375,13.312498668749999,47.0,78.0
22,12.28472099375,13.363424589583332,51.0,78.0
23,12.28472099375,13.393517179166665,35.0,65.0
24,12.28472099375,13.395831993749999,54.0,74.0
25,14.506942993749998,16.400461322916666,34.0,66.0
26,14.506942993749998,16.40972058125,58.0,62.0
27,14.506942993749998,16.40972058125,61.0,68.0
28,14.506942993749998,16.423609468749998,65.0,68.0
29,14.506942993749998,16.4305539125,46.0,64.0
30,18.95138699375,22.173608893749996,58.0,88.0
31,18.95138699375,22.18981259583333,65.0,69.0
32,18.95138699375,22.192127410416663,61.0,86.0
33,18.95138699375,22.233794072916666,46.0,62.0
34,22.28471999375,22.703701433333332,46.0,64.0
35,22.28471999375,22.73842365208333,65.0,75.0
36,22.28471999375,22.780090314583333,58.0,92.0
37,22.28471999375,22.80786808958333,61.0,95.0
38,23.39583099375,24.124997587499998,47.0,90.0
39,23.39583099375,24.24536794583333,59.0,96.0
40,23.39583099375,24.314812383333333,66.0,100.0
41,24.22916424375,24.3749975625,47.0,32.0
42,24.506941993749997,24.986108612499997,66.0,12.0
43,23.39583099375,25.013886387499998,63.0,117.0
44,24.506941993749997,25.046293791666663,59.0,25.0
45,24.506941993749997,25.157404891666665,47.0,61.0
46,25.61805299375,27.32175652708333,46.0,96.0
47,26.72916399375,27.351849116666664,65.0,48.0
48,25.61805299375,27.518515766666663,58.0,102.0
49,25.61805299375,27.668978714583332,61.0,97.0
50,27.840274993749997,28.817126747916664,65.0,62.0
51,27.840274993749997,28.837960079166663,58.0,81.0
52,27.840274993749997,28.847219337499997,61.0,69.0
53,27.840274993749997,29.069441537499998,46.0,60.0
54,28.951385993749998,29.261571147916666,65.0,60.0
55,28.951385993749998,29.29397855208333,58.0,64.0
56,28.951385993749998,29.368052618749996,61.0,58.0
57,30.06249699375,30.87036728333333,54.0,89.0
58,30.06249699375,31.226848729166665,58.0,66.0
59,30.618052493749996,31.506941293749996,51.0,39.0
60,31.173607993749997,31.7638857125,54.0,96.0
61,30.06249699375,32.14120048958333,39.0,99.0
62,31.729163493749997,32.206015297916665,58.0,95.0
63,32.28471899375,32.95138559375,60.0,89.0
64,32.28471899375,33.20370038333333,66.0,99.0
65,32.28471899375,33.21758927083333,63.0,102.0
66,32.28471899375,33.48379294791666,48.0,72.0
67,33.39582999375,33.944441049999995,66.0,78.0
68,33.39582999375,33.96295956666666,63.0,89.0
69,34.50694099375,35.40740386666666,59.0,79.0
70,34.50694099375,35.469903860416665,66.0,100.0
71,34.50694099375,35.479163118749995,63.0,102.0
72,34.50694099375,35.68749643125,54.0,59.0
73,34.50694099375,35.68981124583333,47.0,52.0
74,35.618051993749994,35.78703345833333,66.0,66.0
75,35.618051993749994,35.79860753125,63.0,72.0
76,35.618051993749994,35.82407049166666,59.0,72.0
77,36.729162993749995,38.442125785416664,58.0,102.0
78,36.729162993749995,38.4444406,65.0,81.0
79,36.729162993749995,38.50231096458333,46.0,102.0
80,36.729162993749995,38.54166281249999,61.0,95.0
81,38.95138499375,40.11342191458333,46.0,82.0
82,38.95138499375,40.16203302083333,65.0,78.0
83,38.95138499375,40.16434783541666,58.0,100.0
84,38.95138499375,40.20138486875,61.0,95.0
85,41.17360699375,42.027773575,58.0,68.0
86,41.17360699375,42.03240320416666,54.0,82.0
87,41.17360699375,43.17360679375,51.0,77.0
88,41.17360699375,43.199069754166665,39.0,77.0
89,42.28471799374999,43.25925493333333,63.0,66.0
90,42.28471799374999,43.27314382083333,54.0,64.0
91,42.28471799374999,43.28008826458333,58.0,63.0
92,43.395828993749994,45.303236210416664,39.0,63.0
93,43.395828993749994,45.400458422916664,51.0,63.0
94,43.395828993749994,45.42592138333333,54.0,64.0
95,43.395828993749994,45.44675471458333,58.0,48.0
96,43.395828993749994,45.45369915833333,63.0,52.0
97,46.45138424375,46.770828656249996,63.0,61.0
98,46.17360649374999,46.87731012708333,58.0,72.0
99,46.72916199375,47.462958216666664,66.0,100.0
100,45.618050993749996,47.689810045833326,39.0,74.0
101,45.895828743749995,47.84258780833333,51.0,74.0
102,47.284717493749994,47.92360631875,58.0,73.0
103,47.006939743749996,48.12268037291666,63.0,36.0
104,47.56249524374999,48.59258773333333,66.0,65.0
105,48.673606243749994,49.00693954374999,63.0,41.0
106,47.84027299375,49.921291304166665,39.0,71.0
107,48.11805074375,49.99768018541666,51.0,67.0
108,49.784717243749995,50.09258758333333,66.0,59.0
109,48.395828493749995,50.10416165624999,58.0,70.0
110,49.50693949375,50.11110609999999,63.0,72.0
111,48.95138399374999,50.402772737499994,70.0,76.0
112,50.895828243749996,51.21064302708333,63.0,39.0
113,50.61805049375,51.24768006041666,58.0,63.0
114,50.34027274375,51.37730967708333,51.0,77.0
115,50.06249499374999,51.56480965833333,39.0,81.0
116,51.173605993749995,51.80323556041666,70.0,100.0
117,51.45138374374999,52.06943923749999,58.0,53.0
118,51.72916149375,52.16203182083333,63.0,35.0
119,52.00693924375,52.203698483333326,66.0,50.0
120,53.11805024375,53.40508725208333,63.0,72.0
121,52.84027249374999,53.45369835833333,58.0,60.0
122,52.562494743749994,53.48379094791666,51.0,79.0
123,52.284716993749996,54.314809383333326,39.0,71.0
124,53.673605743749995,54.50693899375,51.0,78.0
125,53.951383493749994,54.50693899375,58.0,72.0
126,54.22916124374999,54.50693899375,63.0,66.0
127,53.39582799375,54.50693899375,66.0,95.0
128,54.784716743749996,55.17823522291666,58.0,82.0
129,54.50693899375,55.54397592708333,51.0,92.0
130,55.34027224374999,55.64351295416666,58.0,96.0
131,55.062494493749995,55.800920345833326,66.0,112.0
132,56.173605493749996,56.4305499125,61.0,99.0
133,55.61804999374999,56.65971655625,49.0,93.0
134,56.451383243749994,56.69212396041666,66.0,81.0
135,57.00693874375,57.37036463333333,60.0,72.0
136,57.28471649375,57.65045719791666,63.0,72.0
137,57.562494243749995,57.944438649999995,60.0,48.0
138,56.72916099374999,58.03240160416666,48.0,72.0
139,57.840271993749994,58.44675341458333,66.0,107.0
140,58.11804974374999,58.71990153541666,60.0,34.0
141,58.673605243749996,58.967586695833326,66.0,72.0
142,58.39582749375,58.99767928541666,63.0,65.0
143,59.50693849374999,60.113419914583325,59.0,74.0
144,59.78471624375,60.11804954375,63.0,83.0
145,59.22916074374999,60.256938418749996,54.0,92.0
146,58.951382993749995,60.68286430208333,47.0,82.0
147,60.340271743749994,60.687493931249996,54.0,93.0
148,60.062493993749996,61.046290191666664,66.0,122.0
149,60.61804949374999,61.05091982083333,63.0,99.0
150,60.89582724374999,61.168975364583325,59.0,81.0
151,61.451382743749996,61.874993812499994,58.0,51.0
152,62.00693824374999,62.38888264999999,58.0,56.0
153,61.729160493749994,62.54629004166666,61.0,64.0
154,62.56249374375,62.91434556041666,58.0,57.0
155,61.17360499375,63.33101218541666,46.0,96.0
156,63.118049243749994,63.39582699374999,58.0,69.0
157,62.840271493749995,63.39582699374999,61.0,65.0
158,62.28471599375,63.39582699374999,65.0,74.0
159,64.22916024374999,64.54860465624999,63.0,61.0
160,63.951382493749996,64.65508612708332,58.0,72.0
161,64.50693799375,65.24073421666667,66.0,100.0
162,63.39582699374999,65.46758604583333,39.0,74.0
163,63.67360474375,65.62036380833332,51.0,74.0
164,65.06249349375,65.70138231874999,58.0,73.0
165,64.78471574375,65.90045637291666,63.0,36.0
166,65.34027124375,66.37036373333333,66.0,65.0
167,66.45138224374999,66.78471554375,63.0,41.0
168,65.61804899375,67.69906730416666,39.0,71.0
169,65.89582674374999,67.77545618541666,51.0,67.0
170,67.56249324375,67.87036358333333,66.0,59.0
171,66.17360449374999,67.88193765624999,58.0,70.0
172,67.28471549375,67.88888209999999,63.0,72.0
173,66.72915999374999,68.18054873749999,70.0,76.0
174,68.67360424374999,68.98841902708332,63.0,39.0
175,68.39582649375,69.02545606041666,58.0,63.0
176,68.11804874375,69.15508567708332,51.0,77.0
177,67.84027099375,69.34258565833333,39.0,81.0
178,68.95138199374999,69.58101156041666,70.0,100.0
179,69.22915974374999,69.8472152375,58.0,53.0
180,69.50693749374999,69.93980782083332,63.0,35.0
181,69.78471524375,69.98147448333333,66.0,50.0
182,70.89582624375,71.18286325208332,63.0,72.0
183,70.61804849375,71.23147435833333,58.0,60.0
184,70.34027074375,71.26156694791666,51.0,79.0
185,70.06249299375,72.09258538333333,39.0,71.0
186,71.45138174374999,72.28471499375,51.0,78.0
187,71.72915949374999,72.28471499375,58.0,72.0
188,72.00693724374999,72.28471499375,63.0,66.0
189,71.17360399374999,72.28471499375,66.0,95.0
190,72.56249274375,72.95601122291666,58.0,82.0
191,72.28471499375,73.32175192708333,51.0,92.0
192,73.11804824375,73.42128895416666,58.0,96.0
193,72.84027049375,73.57869634583332,66.0,112.0
194,73.95138149374999,74.20832591249999,61.0,99.0
195,73.39582599375,74.43749255624999,49.0,93.0
196,74.22915924374999,74.46989996041665,66.0,81.0
197,74.78471474374999,75.14814063333333,60.0,72.0
198,75.06249249375,75.42823319791665,63.0,72.0
199,75.34027024375,75.72221465,60.0,48.0
200,74.50693699374999,75.81017760416665,48.0,72.0
201,75.61804799375,76.22452941458333,66.0,107.0
202,75.89582574375,76.49767753541666,60.0,34.0
203,76.45138124374999,76.74536269583332,66.0,72.0
204,76.17360349375,76.77545528541665,63.0,65.0
205,77.28471449374999,77.89119591458332,59.0,74.0
206,77.56249224375,77.89582554375,63.0,83.0
207,77.00693674374999,78.03471441875,54.0,92.0
208,76.72915899374999,78.46064030208332,47.0,82.0
209,78.11804774375,78.46526993124999,54.0,93.0
210,77.84026999375,78.82406619166666,66.0,122.0
211,78.39582549375,78.82869582083333,63.0,99.0
212,78.67360324375,78.94675136458332,59.0,81.0
213,79.22915874374999,79.6527698125,58.0,51.0
214,79.78471424374999,80.16665864999999,58.0,56.0
215,79.50693649374999,80.32406604166665,61.0,64.0
216,80.34026974375,80.69212156041667,58.0,57.0
217,78.95138099374999,81.10878818541666,46.0,96.0
218,80.06249199374999,81.36341778958332,65.0,74.0
219,80.61804749375,81.37730667708333,61.0,65.0
220,80.89582524375,81.48147333333333,58.0,69.0
221,81.17360299375,82.02545476041666,60.0,97.0
222,81.17360299375,82.03008438958332,66.0,112.0
223,81.17360299375,82.04397327708332,63.0,127.0
224,81.17360299375,82.39582509374999,36.0,82.0
225,81.17360299375,82.43286212708333,48.0,100.0
226,82.28471399374999,82.80786208958332,60.0,107.0
227,82.28471399374999,82.81480653333332,66.0,127.0
228,82.28471399374999,82.83101023541666,63.0,127.0
229,83.39582499375,84.16202862083333,59.0,112.0
230,83.39582499375,84.21989898541666,63.0,127.0
231,83.39582499375,84.22915824374999,66.0,117.0
232,84.50693599374999,84.78008411458333,63.0,127.0
233,84.50693599374999,84.79165818749999,66.0,127.0
234,83.39582499375,84.83563966458333,35.0,82.0
235,84.50693599374999,84.84258410833333,59.0,102.0
236,83.39582499375,84.87962114166666,47.0,99.0
237,85.61804699375,86.30323211041666,65.0,92.0
238,85.61804699375,86.51388023749999,61.0,127.0
239,85.61804699375,86.53471356874999,58.0,100.0
240,86.72915799375,86.98841722708333,61.0,92.0
241,86.72915799375,87.00230611458332,65.0,83.0
242,85.61804699375,87.02545426041667,34.0,97.0
243,86.72915799375,87.027769075,58.0,85.0
244,85.61804699375,87.2361023875,46.0,112.0
245,87.84026899374999,88.01850971666666,54.0,127.0
246,87.84026899374999,88.04860230624999,58.0,117.0
247,88.95137999375,89.27545403541666,58.0,107.0
248,88.39582449375,89.34258365833333,51.0,44.0
249,88.95137999375,89.37730587708333,63.0,127.0
250,88.95137999375,89.37730587708333,66.0,127.0
251,89.50693549374999,89.60415770624999,63.0,127.0
252,89.50693549374999,89.60647252083332,66.0,117.0
253,89.50693549374999,89.61341696458332,58.0,97.0
254,89.50693549374999,89.61573177916667,51.0,102.0
255,87.84026899374999,89.638879925,39.0,112.0
256,90.06249099374999,90.71295389166666,63.0,122.0
257,90.06249099374999,90.8749909125,60.0,100.0
258,90.06249099374999,91.45137974375,48.0,107.0
259,91.17360199375,91.50462047916666,60.0,99.0
260,90.06249099374999,91.65739824166666,36.0,64.0
261,91.17360199375,91.72684267916667,66.0,127.0
262,91.17360199375,91.73841675208332,63.0,127.0
263,91.72915749375,91.81480563333332,60.0,96.0
264,92.28471299374999,93.03239810416666,59.0,96.0
265,92.28471299374999,93.11804624374999,66.0,127.0
266,92.28471299374999,93.12962031666666,63.0,127.0
267,93.39582399374999,93.67128692916665,66.0,127.0
268,93.39582399374999,93.68054618749998,63.0,127.0
269,92.28471299374999,93.68749063124999,35.0,75.0
270,92.28471299374999,93.72915729374999,47.0,96.0
271,94.50693499375,95.1805460375,61.0,127.0
272,94.50693499375,95.305546025,58.0,107.0
273,94.50693499375,95.305546025,65.0,97.0
274,95.61804599374999,95.71295339166666,58.0,47.0
275,94.50693499375,96.25230518958332,34.0,79.0
276,94.50693499375,96.53471256875,46.0,100.0
277,95.61804599374999,97.32406434166666,65.0,58.0
278,95.61804599374999,97.41202729583333,61.0,67.0
279,96.72915699375,98.03239760416666,34.0,66.0
280,97.84026799374999,98.11573092916666,65.0,60.0
281,97.84026799374999,98.14813833333332,61.0,57.0
282,96.72915699375,98.15739759166665,46.0,71.0
283,97.84026799374999,98.16434203541665,58.0,54.0
284,99.22915674375,99.63656411041666,51.0,52.0
285,98.95137899375,99.75461965416666,39.0,82.0
286,99.50693449375,99.91897148958333,54.0,71.0
287,99.50693449375,99.94211963541666,58.0,93.0
288,101.45137874374998,101.75924908333333,51.0,69.0
289,101.17360099374999,101.76619352708333,39.0,86.0
290,101.72915649375,102.15971200624999,54.0,73.0
291,101.72915649375,102.18517496666666,58.0,79.0
292,103.67360074374999,103.98378589791666,51.0,54.0
293,103.39582299374999,104.00924885833332,39.0,77.0
294,103.95137849374998,104.34952660208333,54.0,67.0
295,103.95137849374998,104.37498956249999,58.0,86.0
296,106.17360049374999,106.58563748958332,59.0,50.0
297,106.17360049374999,106.59489674791666,66.0,65.0
298,106.17360049374999,106.60184119166665,63.0,77.0
299,106.72915599374998,107.08100781041665,59.0,83.0
300,106.72915599374998,107.32869297083333,63.0,122.0
301,106.72915599374998,107.34026704374999,66.0,100.0
302,106.17360049374999,107.34721148749999,54.0,58.0
303,105.61804499374999,107.37267444791665,47.0,73.0
304,107.28471149375,107.45832258749999,59.0,112.0
305,107.84026699374999,107.88424847083333,66.0,69.0
306,107.84026699374999,108.80091504583332,65.0,85.0
307,107.84026699374999,108.805544675,58.0,93.0
308,107.84026699374999,108.82406319166665,61.0,112.0
309,108.95137799374999,109.26156314791666,58.0,68.0
310,107.84026699374999,109.37730387708332,46.0,112.0
311,108.95137799374999,109.5972112625,61.0,69.0
312,108.95137799374999,109.62267422291666,65.0,72.0
313,109.50693349375,109.83332234999999,58.0,61.0
314,110.06248899375,110.72452596458332,65.0,66.0
315,110.06248899375,110.82637780625,61.0,73.0
316,110.06248899375,111.00230371458332,58.0,70.0
317,110.06248899375,111.23147035833333,46.0,72.0
318,111.17359999374999,111.71295179166665,65.0,89.0
319,111.17359999374999,111.73378512291666,61.0,127.0
320,111.17359999374999,111.76850734166666,58.0,112.0
321,111.72915549374999,112.28008136458332,46.0,112.0
322,112.28471099375,112.73378502291666,54.0,127.0
323,112.28471099375,112.75461835416665,58.0,112.0
324,112.84026649375,113.68748863124999,51.0,92.0
325,113.39582199374999,113.96526638124999,66.0,127.0
326,113.39582199374999,113.96989601041666,70.0,122.0
327,112.28471099375,114.01619230208333,39.0,127.0
328,113.39582199374999,114.01619230208333,63.0,117.0
329,113.95137749374999,114.03239600416666,51.0,96.0
330,114.50693299374998,115.28702550833333,65.0,122.0
331,114.50693299374998,115.30785883958332,68.0,122.0
332,114.50693299374998,115.39582179374999,61.0,112.0
333,114.50693299374998,115.53008103958332,49.0,95.0
334,114.50693299374998,115.55091437083333,37.0,99.0
335,115.61804399374999,116.00461802916665,61.0,112.0
336,115.61804399374999,116.01156247291665,49.0,88.0
337,115.61804399374999,116.01619210208332,65.0,127.0
338,115.61804399374999,116.02545136041665,68.0,122.0
339,115.61804399374999,116.14582171874999,37.0,95.0
340,116.17359949374999,116.24767356041666,65.0,112.0
341,116.17359949374999,116.26850689166666,68.0,99.0
342,116.17359949374999,116.29165503749999,61.0,122.0
343,116.72915499374999,117.10646977083333,63.0,127.0
344,116.72915499374999,117.11109939999999,35.0,88.0
345,116.72915499374999,117.11341421458333,59.0,112.0
346,116.72915499374999,117.11804384374999,66.0,127.0
347,116.72915499374999,117.12267347291666,47.0,99.0
348,118.95137699374999,119.44674731458332,66.0,122.0
349,118.95137699374999,119.44906212916666,70.0,96.0
350,118.95137699374999,119.49304360624998,63.0,100.0
351,120.06248799374998,120.46295091666666,54.0,127.0
352,118.95137699374999,120.48146943333332,39.0,107.0
353,119.50693249374999,120.49535832083332,51.0,96.0
354,120.34026574375,120.51619165208332,58.0,21.0
355,120.61804349375,120.99304345624999,51.0,99.0
356,120.61804349375,121.00461752916665,39.0,82.0
357,120.61804349375,121.02545086041665,58.0,122.0
358,120.61804349375,121.05322863541666,54.0,127.0
359,121.17359899374999,121.20600639791665,58.0,82.0
360,121.72915449374999,121.8749878125,66.0,127.0
361,121.72915449374999,122.00924705833333,70.0,102.0
362,121.72915449374999,122.06480260833332,63.0,96.0
363,122.00693224374999,122.11109889999999,66.0,26.0
364,122.28470999374998,122.40739516666666,66.0,127.0
365,121.72915449374999,122.41202479583332,51.0,102.0
366,122.28470999374998,122.59720996249999,70.0,127.0
367,122.28470999374998,122.60183959166666,63.0,122.0
368,121.17359899374999,122.70832106249999,39.0,95.0
369,122.56248774374998,122.84952475208333,51.0,95.0
370,122.84026549375,122.88424697083332,66.0,122.0
371,122.84026549375,122.89119141458332,70.0,90.0
372,122.84026549375,122.93980252083333,63.0,112.0
373,123.39582099375,124.11341351458333,59.0,117.0
374,123.39582099375,124.14350610416666,63.0,127.0
375,123.39582099375,124.16665425,66.0,122.0
376,123.39582099375,124.62961716666666,54.0,97.0
377,124.50693199374999,124.90508010208332,66.0,127.0
378,123.39582099375,124.90739491666666,47.0,82.0
379,124.50693199374999,124.91202454583332,63.0,127.0
380,124.50693199374999,124.97915416874999,59.0,100.0
381,125.06248749374998,125.37498746249999,47.0,96.0
382,125.61804299375,126.27545033541665,65.0,92.0
383,125.61804299375,126.28007996458332,58.0,122.0
384,125.61804299375,126.55091327083332,61.0,112.0
385,125.61804299375,127.09026506874999,46.0,127.0
386,126.72915399374999,127.39350577916666,65.0,95.0
387,126.72915399374999,127.43980207083332,58.0,127.0
388,126.72915399374999,127.65507982708333,61.0,122.0
389,127.28470949374999,127.70369093333332,46.0,85.0
390,127.84026499374998,128.70600564791667,65.0,89.0
391,127.84026499374998,128.71526490624998,58.0,127.0
392,127.84026499374998,128.71526490624998,61.0,107.0
393,127.84026499374998,128.79628341666665,46.0,122.0
394,128.95137599375,129.15970930625,65.0,88.0
395,128.95137599375,129.41896853958332,61.0,92.0
396,128.95137599375,129.527764825,58.0,127.0
397,129.50693149375,129.99767218541666,46.0,100.0
398,130.06248699374999,130.63656101041664,63.0,102.0
399,130.06248699374999,131.13424614583332,39.0,107.0
400,130.61804249374998,131.17591280833332,58.0,102.0
401,130.06248699374999,131.18980169583332,66.0,99.0
402,131.17359799374998,131.76619052708332,61.0,92.0
403,131.72915349374998,131.8495238520833,66.0,89.0
404,131.17359799374998,131.8773016270833,37.0,99.0
405,132.28470899375,133.25924593333332,63.0,107.0
406,132.28470899375,133.32869037083333,60.0,88.0
407,132.28470899375,133.49998664999998,36.0,77.0
408,133.39581999375,133.95369030833334,66.0,112.0
409,133.39581999375,133.9814680833333,63.0,107.0
410,133.95137549375,134.06480140833332,60.0,83.0
411,134.50693099375,135.19906055416666,59.0,95.0
412,134.50693099375,135.21063462708332,63.0,102.0
413,134.50693099375,135.21526425624998,66.0,107.0
414,134.50693099375,135.65044939791665,35.0,77.0
415,135.06248649375,135.79165308749998,42.0,55.0
416,135.61804199374998,136.16433823541666,66.0,117.0
417,135.61804199374998,136.18285675208332,63.0,127.0
418,136.17359749374998,136.3009122958333,59.0,82.0
419,136.72915299374998,138.73841205208333,65.0,81.0
420,136.72915299374998,138.7800787145833,61.0,102.0
421,136.72915299374998,138.78933797291666,58.0,99.0
422,136.72915299374998,138.81480093333332,34.0,72.0
423,136.72915299374998,138.82406019166666,46.0,82.0
424,138.95137499375,140.10415265625,65.0,55.0
425,138.95137499375,140.1273008020833,34.0,59.0
426,138.95137499375,140.12961561666665,61.0,65.0
427,138.95137499375,140.14813413333331,58.0,68.0
428,138.95137499375,140.18980079583332,46.0,59.0
429,141.17359699374998,141.8425784083333,63.0,74.0
430,141.17359699374998,141.88424507083332,58.0,89.0
431,141.17359699374998,142.0416524625,54.0,93.0
432,141.72915249374998,142.56480055833333,51.0,96.0
433,142.84026349375,143.81711524791666,51.0,64.0
434,142.28470799374998,144.10878188541665,63.0,81.0
435,142.28470799374998,144.21989298541666,58.0,66.0
436,143.39581899375,144.53470776875,54.0,65.0
437,144.78470774374998,145.13192993125,54.0,68.0
438,141.17359699374998,145.61804099375,39.0,90.0
439,143.95137449375,145.61804099375,51.0,44.0
440,145.34026324374997,145.61804099375,54.0,71.0
441,145.06248549375,145.61804099375,58.0,78.0
442,144.50692999375,145.61804099375,63.0,107.0
443,146.45137424375,146.77081865625,63.0,61.0
444,146.17359649374998,146.87730012708332,58.0,72.0
445,146.72915199374998,147.46294821666666,66.0,100.0
446,145.61804099375,147.68980004583332,39.0,74.0
447,145.89581874375,147.84257780833332,51.0,74.0
448,147.28470749374998,147.92359631875,58.0,73.0
449,147.00692974375,148.12267037291664,63.0,36.0
450,147.56248524375,148.59257773333331,66.0,65.0
451,148.67359624374998,149.00692954374998,63.0,41.0
452,147.84026299374997,149.92128130416665,39.0,71.0
453,148.11804074375,149.99767018541667,51.0,67.0
454,149.78470724374998,150.0925775833333,66.0,59.0
455,148.39581849375,150.10415165625,58.0,70.0
456,149.50692949375,150.1110961,63.0,72.0
457,148.95137399375,150.40276273749998,70.0,76.0
458,150.89581824375,151.21063302708333,63.0,39.0
459,150.61804049375,151.24767006041665,58.0,63.0
460,150.34026274374997,151.37729967708333,51.0,77.0
461,150.06248499375,151.56479965833333,39.0,81.0
462,151.17359599374998,151.80322556041665,70.0,100.0
463,151.45137374375,152.06942923749997,58.0,53.0
464,151.72915149374998,152.16202182083333,63.0,35.0
465,152.00692924375,152.2036884833333,66.0,50.0
466,153.11804024375,153.40507725208332,63.0,72.0
467,152.84026249374998,153.45368835833332,58.0,60.0
468,152.56248474375,153.48378094791664,51.0,79.0
469,152.28470699374998,154.3147993833333,39.0,71.0
470,153.67359574374998,154.50692899375,51.0,78.0
471,153.95137349375,154.50692899375,58.0,72.0
472,154.22915124374998,154.50692899375,63.0,66.0
473,153.39581799375,154.50692899375,66.0,95.0
474,154.78470674374998,155.17822522291667,58.0,82.0
475,154.50692899375,155.54396592708332,51.0,92.0
476,155.34026224374998,155.64350295416665,58.0,96.0
477,155.06248449375,155.80091034583333,66.0,112.0
478,156.17359549374999,156.4305399125,61.0,99.0
479,155.61803999375,156.65970655625,49.0,93.0
480,156.45137324375,156.69211396041666,66.0,81.0
481,157.00692874375,157.3703546333333,60.0,72.0
482,157.28470649374998,157.65044719791666,63.0,72.0
483,157.56248424375,157.94442865,60.0,48.0
484,156.72915099374998,158.03239160416666,48.0,72.0
485,157.84026199374998,158.44674341458332,66.0,107.0
486,158.11803974375,158.71989153541665,60.0,34.0
487,158.67359524375,158.96757669583332,66.0,72.0
488,158.39581749374997,158.99766928541666,63.0,65.0
489,159.50692849375,160.11340991458331,59.0,74.0
490,159.78470624374998,160.11803954374997,63.0,83.0
491,159.22915074374998,160.25692841875,54.0,92.0
492,158.95137299375,160.6828543020833,47.0,82.0
493,160.34026174374998,160.68748393125,54.0,93.0
494,160.06248399375,161.04628019166665,66.0,122.0
495,160.61803949375,161.0509098208333,63.0,99.0
496,160.89581724374997,161.16896536458333,59.0,81.0
497,161.45137274375,161.87498381249998,58.0,51.0
498,162.00692824375,162.38887265,58.0,56.0
499,161.72915049374998,162.54628004166665,61.0,64.0
500,162.56248374375,162.91433556041665,58.0,57.0
501,161.17359499375,163.33100218541665,46.0,96.0
502,163.11803924375,163.39581699374997,58.0,69.0
503,162.84026149374998,163.39581699374997,61.0,65.0
504,162.28470599374998,163.39581699374997,65.0,74.0
505,164.22915024374998,164.54859465624997,63.0,61.0
506,163.95137249374997,164.6550761270833,58.0,72.0
507,164.50692799375,165.24072421666665,66.0,100.0
508,163.39581699374997,165.4675760458333,39.0,74.0
509,163.67359474375,165.6203538083333,51.0,74.0
510,165.06248349375,165.70137231874997,58.0,73.0
511,164.78470574374998,165.90044637291666,63.0,36.0
512,165.34026124374998,166.37035373333333,66.0,65.0
513,166.45137224374997,166.78470554375,63.0,41.0
514,165.61803899375,167.69905730416664,39.0,71.0
515,165.89581674374998,167.77544618541665,51.0,67.0
516,167.56248324375,167.87035358333333,66.0,59.0
517,166.17359449375,167.88192765624999,58.0,70.0
518,167.28470549374998,167.8888721,63.0,72.0
519,166.72914999374999,168.18053873749997,70.0,76.0
520,168.67359424375,168.98840902708332,63.0,39.0
521,168.39581649374998,169.02544606041664,58.0,63.0
522,168.11803874375,169.15507567708332,51.0,77.0
523,167.84026099374998,169.34257565833332,39.0,81.0
524,168.95137199374997,169.58100156041664,70.0,100.0
525,169.22914974374999,169.8472052375,58.0,53.0
526,169.50692749375,169.93979782083332,63.0,35.0
527,169.78470524374998,169.98146448333333,66.0,50.0
528,170.89581624374998,171.1828532520833,63.0,72.0
529,170.61803849375,171.2314643583333,58.0,60.0
530,170.34026074374998,171.26155694791666,51.0,79.0
531,170.06248299375,172.09257538333333,39.0,71.0
532,171.45137174374997,172.28470499374998,51.0,78.0
533,171.72914949375,172.28470499374998,58.0,72.0
534,172.00692724375,172.28470499374998,63.0,66.0
535,171.17359399375,172.28470499374998,66.0,95.0
536,172.56248274375,172.95600122291665,58.0,82.0
537,172.28470499374998,173.3217419270833,51.0,92.0
538,173.11803824375,173.42127895416664,58.0,96.0
539,172.84026049374998,173.57868634583332,66.0,112.0
540,173.95137149374997,174.20831591249998,61.0,99.0
541,173.39581599374998,174.43748255625,49.0,93.0
542,174.22914924375,174.46988996041665,66.0,81.0
543,174.78470474374998,175.14813063333332,60.0,72.0
544,175.06248249375,175.42822319791665,63.0,72.0
545,175.34026024374998,175.72220464999998,60.0,48.0
546,174.50692699374997,175.81016760416665,48.0,72.0
547,175.61803799375,176.2245194145833,66.0,107.0
548,175.89581574374998,176.49766753541664,60.0,34.0
549,176.45137124374997,176.7453526958333,66.0,72.0
550,176.17359349375,176.77544528541665,63.0,65.0
551,177.28470449374998,177.89118591458333,59.0,74.0
552,177.56248224375,177.89581554375,63.0,83.0
553,177.00692674374997,178.03470441874998,54.0,92.0
554,176.72914899375,178.46063030208333,47.0,82.0
555,178.11803774375,178.46525993125,54.0,93.0
556,177.84025999374998,178.82405619166664,66.0,122.0
557,178.39581549374998,178.82868582083333,63.0,99.0
558,178.67359324375,178.94674136458332,59.0,81.0
559,179.22914874375,179.6527598125,58.0,51.0
560,179.78470424374999,180.16664864999998,58.0,56.0
561,179.50692649374997,180.32405604166664,61.0,64.0
562,180.34025974374998,180.69211156041666,58.0,57.0
563,178.95137099374998,181.10877818541664,46.0,96.0
564,180.06248199375,181.3634077895833,65.0,74.0
565,180.61803749375,181.3772966770833,61.0,65.0
566,180.89581524374998,181.48146333333332,58.0,69.0
567,181.17359299375,182.02544476041666,60.0,97.0
568,181.17359299375,182.03007438958332,66.0,112.0
569,181.17359299375,182.04396327708332,63.0,127.0
570,181.17359299375,182.39581509374997,36.0,82.0
571,181.17359299375,182.43285212708332,48.0,100.0
572,182.28470399374999,182.80785208958332,60.0,107.0
573,182.28470399374999,182.81479653333332,66.0,127.0
574,182.28470399374999,182.83100023541664,63.0,127.0
575,183.39581499374998,184.16201862083332,59.0,112.0
576,183.39581499374998,184.21988898541665,63.0,127.0
577,183.39581499374998,184.22914824375,66.0,117.0
578,184.50692599374997,184.78007411458333,63.0,127.0
579,184.50692599374997,184.7916481875,66.0,127.0
580,183.39581499374998,184.8356296645833,35.0,82.0
581,184.50692599374997,184.8425741083333,59.0,102.0
582,183.39581499374998,184.87961114166666,47.0,99.0
583,185.61803699375,186.30322211041664,65.0,92.0
584,185.61803699375,186.5138702375,61.0,127.0
585,185.61803699375,186.53470356875,58.0,100.0
586,186.72914799375,186.98840722708331,61.0,92.0
587,186.72914799375,187.00229611458332,65.0,83.0
588,185.61803699375,187.02544426041666,34.0,97.0
589,186.72914799375,187.02775907499998,58.0,85.0
590,185.61803699375,187.23609238749998,46.0,112.0
591,187.84025899374998,188.01849971666664,54.0,127.0
592,187.84025899374998,188.04859230625,58.0,117.0
593,188.95136999374998,189.27544403541665,58.0,107.0
594,188.39581449374998,189.34257365833332,51.0,44.0
595,188.95136999374998,189.37729587708333,63.0,127.0
596,188.95136999374998,189.37729587708333,66.0,127.0
597,189.50692549374997,189.60414770625,63.0,127.0
598,189.50692549374997,189.6064625208333,66.0,117.0
599,189.50692549374997,189.6134069645833,58.0,97.0
600,189.50692549374997,189.61572177916665,51.0,102.0
601,187.84025899374998,189.638869925,39.0,112.0
602,190.06248099374997,190.71294389166664,63.0,122.0
603,190.06248099374997,190.87498091249998,60.0,100.0
604,190.06248099374997,191.45136974374998,48.0,107.0
605,191.17359199375,191.50461047916664,60.0,99.0
606,190.06248099374997,191.65738824166664,36.0,64.0
607,191.17359199375,191.72683267916665,66.0,127.0
608,191.17359199375,191.7384067520833,63.0,127.0
609,191.72914749375,191.81479563333332,60.0,96.0
610,192.28470299375,193.03238810416664,59.0,96.0
611,192.28470299375,193.11803624374997,66.0,127.0
612,192.28470299375,193.12961031666666,63.0,127.0
613,193.39581399374998,193.67127692916665,66.0,127.0
614,193.39581399374998,193.6805361875,63.0,127.0
615,192.28470299375,193.68748063125,35.0,75.0
616,192.28470299375,193.72914729374997,47.0,96.0
617,194.50692499374998,195.1805360375,61.0,127.0
618,194.50692499374998,195.30553602499998,58.0,107.0
619,194.50692499374998,195.30553602499998,65.0,97.0
620,195.61803599374997,195.71294339166664,58.0,47.0
621,194.50692499374998,196.25229518958332,34.0,79.0
622,194.50692499374998,196.53470256875,46.0,100.0
623,195.61803599374997,197.32405434166665,65.0,58.0
624,195.61803599374997,197.41201729583332,61.0,67.0
625,196.72914699375,198.03238760416664,34.0,66.0
626,197.84025799375,198.11572092916666,65.0,60.0
627,197.84025799375,198.14812833333332,61.0,57.0
628,196.72914699375,198.15738759166666,46.0,71.0
629,197.84025799375,198.16433203541666,58.0,54.0
630,199.22914674375,199.63655411041665,51.0,52.0
631,198.95136899374998,199.75460965416664,39.0,82.0
632,199.50692449374998,199.91896148958332,54.0,71.0
633,199.50692449374998,199.94210963541664,58.0,93.0
634,201.45136874374998,201.7592390833333,51.0,69.0
635,201.17359099375,201.7661835270833,39.0,86.0
636,201.72914649375,202.15970200624997,54.0,73.0
637,201.72914649375,202.18516496666666,58.0,79.0
638,203.67359074374997,203.98377589791664,51.0,54.0
639,203.39581299374998,204.0092388583333,39.0,77.0
640,203.95136849374998,204.34951660208333,54.0,67.0
641,203.95136849374998,204.3749795625,58.0,86.0
642,206.17359049374997,206.58562748958332,59.0,50.0
643,206.17359049374997,206.59488674791666,66.0,65.0
644,206.17359049374997,206.60183119166666,63.0,77.0
645,206.72914599375,207.08099781041665,59.0,83.0
646,206.72914599375,207.3286829708333,63.0,122.0
647,206.72914599375,207.34025704374997,66.0,100.0
648,206.17359049374997,207.34720148749997,54.0,58.0
649,205.61803499374997,207.37266444791666,47.0,73.0
650,207.28470149375,207.4583125875,59.0,112.0
651,207.84025699375,207.8842384708333,66.0,69.0
652,207.84025699375,208.8009050458333,65.0,85.0
653,207.84025699375,208.805534675,58.0,93.0
654,207.84025699375,208.82405319166665,61.0,112.0
655,208.95136799374998,209.26155314791666,58.0,68.0
656,207.84025699375,209.3772938770833,46.0,112.0
657,208.95136799374998,209.5972012625,61.0,69.0
658,208.95136799374998,209.62266422291665,65.0,72.0
659,209.50692349374998,209.83331234999997,58.0,61.0
660,210.06247899374998,210.7245159645833,65.0,66.0
661,210.06247899374998,210.82636780624998,61.0,73.0
662,210.06247899374998,211.00229371458332,58.0,70.0
663,210.06247899374998,211.23146035833332,46.0,72.0
664,211.17358999374997,211.71294179166665,65.0,89.0
665,211.17358999374997,211.73377512291665,61.0,127.0
666,211.17358999374997,211.76849734166666,58.0,112.0
667,211.72914549374997,212.2800713645833,46.0,112.0
668,212.28470099375,212.73377502291666,54.0,127.0
669,212.28470099375,212.75460835416663,58.0,112.0
670,212.84025649375,213.68747863124997,51.0,92.0
671,213.39581199375,213.96525638125,66.0,127.0
672,213.39581199375,213.96988601041664,70.0,122.0
673,212.28470099375,214.0161823020833,39.0,127.0
674,213.39581199375,214.0161823020833,63.0,117.0
675,213.95136749374998,214.03238600416665,51.0,96.0
676,214.50692299374998,215.28701550833333,65.0,122.0
677,214.50692299374998,215.30784883958333,68.0,122.0
678,214.50692299374998,215.39581179374997,61.0,112.0
679,214.50692299374998,215.5300710395833,49.0,95.0
680,214.50692299374998,215.5509043708333,37.0,99.0
681,215.61803399374998,216.00460802916666,61.0,112.0
682,215.61803399374998,216.01155247291663,49.0,88.0
683,215.61803399374998,216.01618210208332,65.0,127.0
684,215.61803399374998,216.02544136041664,68.0,122.0
685,215.61803399374998,216.14581171874997,37.0,95.0
686,216.17358949374997,216.24766356041664,65.0,112.0
687,216.17358949374997,216.26849689166664,68.0,99.0
688,216.17358949374997,216.2916450375,61.0,122.0
689,216.72914499374997,217.1064597708333,63.0,127.0
690,216.72914499374997,217.11108939999997,35.0,88.0
691,216.72914499374997,217.1134042145833,59.0,112.0
692,216.72914499374997,217.11803384374997,66.0,127.0
693,216.72914499374997,217.12266347291666,47.0,99.0
694,218.95136699374999,219.44673731458332,66.0,122.0
695,218.95136699374999,219.44905212916666,70.0,96.0
696,218.95136699374999,219.49303360624998,63.0,100.0
697,220.06247799374998,220.46294091666664,54.0,127.0
698,218.95136699374999,220.48145943333333,39.0,107.0
699,219.50692249374998,220.4953483208333,51.0,96.0
700,220.34025574375,220.5161816520833,58.0,21.0
701,220.61803349374998,220.99303345624998,51.0,99.0
702,220.61803349374998,221.00460752916663,39.0,82.0
703,220.61803349374998,221.02544086041664,58.0,122.0
704,220.61803349374998,221.05321863541664,54.0,127.0
705,221.17358899374997,221.20599639791664,58.0,82.0
706,221.72914449374997,221.8749778125,66.0,127.0
707,221.72914449374997,222.00923705833333,70.0,102.0
708,221.72914449374997,222.0647926083333,63.0,96.0
709,222.00692224374998,222.11108889999997,66.0,26.0
710,222.28469999374997,222.40738516666664,66.0,127.0
711,221.72914449374997,222.4120147958333,51.0,102.0
712,222.28469999374997,222.59719996249999,70.0,127.0
713,222.28469999374997,222.60182959166664,63.0,122.0
714,221.17358899374997,222.70831106249997,39.0,95.0
715,222.56247774374998,222.8495147520833,51.0,95.0
716,222.84025549375,222.8842369708333,66.0,122.0
717,222.84025549375,222.89118141458331,70.0,90.0
718,222.84025549375,222.93979252083332,63.0,112.0
719,223.39581099375,224.24766276041666,60.0,97.0
720,223.39581099375,224.25229238958332,66.0,112.0
721,223.39581099375,224.26618127708332,63.0,127.0
722,223.39581099375,224.61803309374997,36.0,82.0
723,223.39581099375,224.65507012708332,48.0,100.0
724,224.50692199374998,225.03007008958332,60.0,107.0
725,224.50692199374998,225.03701453333332,66.0,127.0
726,224.50692199374998,225.05321823541664,63.0,127.0
727,225.61803299374998,226.38423662083332,59.0,112.0
728,225.61803299374998,226.44210698541664,63.0,127.0
729,225.61803299374998,226.45136624375,66.0,117.0
730,226.72914399374997,227.00229211458333,63.0,127.0
731,226.72914399374997,227.01386618749999,66.0,127.0
732,225.61803299374998,227.0578476645833,35.0,82.0
733,226.72914399374997,227.0647921083333,59.0,102.0
734,225.61803299374998,227.10182914166666,47.0,99.0
735,227.84025499375,228.52544011041664,65.0,92.0
736,227.84025499375,228.73608823749998,61.0,127.0
737,227.84025499375,228.75692156875,58.0,100.0
738,228.95136599375,229.2106252270833,61.0,92.0
739,228.95136599375,229.22451411458331,65.0,83.0
740,227.84025499375,229.24766226041666,34.0,97.0
741,228.95136599375,229.24997707499998,58.0,85.0
742,227.84025499375,229.45831038749998,46.0,112.0
743,230.06247699374998,230.24071771666664,54.0,127.0
744,230.06247699374998,230.27081030624998,58.0,117.0
745,231.17358799374998,231.49766203541665,58.0,107.0
746,230.61803249374998,231.56479165833332,51.0,44.0
747,231.17358799374998,231.59951387708333,63.0,127.0
748,231.17358799374998,231.59951387708333,66.0,127.0
749,231.72914349374997,231.82636570625,63.0,127.0
750,231.72914349374997,231.8286805208333,66.0,117.0
751,231.72914349374997,231.8356249645833,58.0,97.0
752,231.72914349374997,231.83793977916665,51.0,102.0
753,230.06247699374998,231.861087925,39.0,112.0
754,232.28469899374997,232.93516189166664,63.0,122.0
755,232.28469899374997,233.09719891249998,60.0,100.0
756,232.28469899374997,233.67358774374998,48.0,107.0
757,233.39580999375,233.72682847916664,60.0,99.0
758,232.28469899374997,233.87960624166664,36.0,64.0
759,233.39580999375,233.94905067916665,66.0,127.0
760,233.39580999375,233.9606247520833,63.0,127.0
761,233.95136549375,234.03701363333332,60.0,96.0
762,234.50692099375,235.25460610416664,59.0,96.0
763,234.50692099375,235.34025424374997,66.0,127.0
764,234.50692099375,235.35182831666665,63.0,127.0
765,235.61803199374998,235.89349492916665,66.0,127.0
766,235.61803199374998,235.90275418749997,63.0,127.0
767,234.50692099375,235.90969863124997,35.0,75.0
768,234.50692099375,235.95136529374997,47.0,96.0
769,236.72914299374997,237.4027540375,61.0,127.0
770,236.72914299374997,237.52775402499998,58.0,107.0
771,236.72914299374997,237.52775402499998,65.0,97.0
772,237.84025399374997,237.93516139166664,58.0,47.0
773,236.72914299374997,238.47451318958332,34.0,79.0
774,236.72914299374997,238.75692056875,46.0,100.0
775,237.84025399374997,239.54627234166665,65.0,58.0
776,237.84025399374997,239.63423529583332,61.0,67.0
777,238.95136499375,240.25460560416664,34.0,66.0
778,240.06247599374998,240.33793892916665,65.0,60.0
779,240.06247599374998,240.37034633333332,61.0,57.0
780,238.95136499375,240.37960559166663,46.0,71.0
781,240.06247599374998,240.38655003541663,58.0,54.0
782,241.45136474375,241.85877211041665,51.0,52.0
783,241.17358699374998,241.97682765416664,39.0,82.0
784,241.72914249374998,242.14117948958332,54.0,71.0
785,241.72914249374998,242.16432763541664,58.0,93.0
786,243.67358674374998,243.9814570833333,51.0,69.0
787,243.39580899374997,243.9884015270833,39.0,86.0
788,243.95136449375,244.38192000624997,54.0,73.0
789,243.95136449375,244.40738296666666,58.0,79.0
790,245.89580874374997,246.20599389791664,51.0,54.0
791,245.61803099374998,246.2314568583333,39.0,77.0
792,246.17358649374998,246.57173460208332,54.0,67.0
793,246.17358649374998,246.59719756249999,58.0,86.0
794,248.39580849374997,248.80784548958331,59.0,50.0
795,248.39580849374997,248.81710474791666,66.0,65.0
796,248.39580849374997,248.82404919166663,63.0,77.0
797,248.95136399374996,249.30321581041665,59.0,83.0
798,248.95136399374996,249.5509009708333,63.0,122.0
799,248.95136399374996,249.56247504374997,66.0,100.0
800,248.39580849374997,249.56941948749997,54.0,58.0
801,247.84025299374997,249.59488244791663,47.0,73.0
802,249.50691949375,249.6805305875,59.0,112.0
803,250.06247499375,250.1064564708333,66.0,69.0
804,250.06247499375,251.0231230458333,65.0,85.0
805,250.06247499375,251.027752675,58.0,93.0
806,250.06247499375,251.04627119166665,61.0,112.0
807,251.17358599374998,251.48377114791666,58.0,68.0
808,250.06247499375,251.5995118770833,46.0,112.0
809,251.17358599374998,251.8194192625,61.0,69.0
810,251.17358599374998,251.84488222291665,65.0,72.0
811,251.72914149374998,252.05553034999997,58.0,61.0
812,252.28469699374998,252.9467339645833,65.0,66.0
813,252.28469699374998,253.04858580624997,61.0,73.0
814,252.28469699374998,253.22451171458331,58.0,70.0
815,252.28469699374998,253.45367835833332,46.0,72.0
816,253.39580799374997,253.93515979166665,65.0,89.0
817,253.39580799374997,253.95599312291665,61.0,127.0
818,253.39580799374997,253.99071534166666,58.0,112.0
819,253.95136349374997,254.5022893645833,46.0,112.0
820,254.50691899375,254.95599302291666,54.0,127.0
821,254.50691899375,254.97682635416663,58.0,112.0
822,255.06247449375,255.90969663124997,51.0,92.0
823,255.61802999374999,256.18747438124996,66.0,127.0
824,255.61802999374999,256.19210401041664,70.0,122.0
825,254.50691899375,256.23840030208333,39.0,127.0
826,255.61802999374999,256.23840030208333,63.0,117.0
827,256.17358549374995,256.25460400416665,51.0,96.0
828,256.72914099375,257.0971965125,68.0,99.0
829,256.72914099375,257.11571502916667,65.0,100.0
830,256.72914099375,257.13191873125,61.0,97.0
831,256.72914099375,257.1643261354167,49.0,100.0
832,256.72914099375,257.1897890958333,37.0,78.0
833,257.28469649375,257.47914091875,65.0,100.0
834,257.28469649375,257.59025201875,68.0,97.0
835,257.28469649375,257.6087705354166,61.0,95.0
836,257.28469649375,257.63654831041663,49.0,88.0
837,257.28469649375,257.66432608541663,37.0,69.0
838,257.84025199375,258.12034455833333,68.0,102.0
839,257.84025199375,258.21988158541666,65.0,100.0
840,257.84025199375,258.2314556583333,49.0,76.0
841,257.84025199375,258.23377047291666,61.0,99.0
842,257.84025199375,258.2592334333333,37.0,79.0
843,258.39580749375,258.51617785208333,65.0,96.0
844,258.39580749375,258.53469636874996,68.0,100.0
845,258.39580749375,258.71525190625,61.0,97.0
846,258.39580749375,258.7384000520833,49.0,90.0
847,258.67358524375,258.7661778270833,65.0,28.0
848,258.39580749375,258.7754370854166,37.0,85.0
849,258.95136299374997,259.0786777958333,65.0,122.0
850,258.95136299374997,259.27080740624996,68.0,112.0
851,258.95136299374997,259.28932592291665,61.0,102.0
852,258.95136299374997,259.30089999583333,49.0,95.0
853,258.95136299374997,259.35877036041666,37.0,100.0
854,259.50691849375,259.6342332958333,65.0,107.0
855,259.50691849375,259.8518258666667,68.0,112.0
856,259.50691849375,259.8657147541666,49.0,78.0
857,259.50691849375,259.8888629,61.0,99.0
858,259.50691849375,259.916640675,37.0,100.0
859,260.06247399374996,260.1897887958333,65.0,97.0
860,260.06247399374996,260.37960359166664,68.0,100.0
861,260.06247399374996,260.39580729374995,61.0,100.0
862,260.06247399374996,260.42127025416664,49.0,76.0
863,260.06247399374996,260.47451098958334,37.0,100.0
864,260.61802949375,260.6504368979166,65.0,72.0
865,260.61802949375,260.68747393125,37.0,83.0
866,260.61802949375,260.6897887458333,68.0,88.0
867,260.61802949375,260.71293689166663,49.0,102.0
868,260.61802949375,260.72682577916663,61.0,107.0
869,261.17358499374996,265.0995105270833,35.0,81.0
870,261.17358499374996,265.11802904374997,59.0,107.0
871,261.17358499374996,265.2175660708333,63.0,127.0
872,261.17358499374996,265.2314549583333,66.0,107.0
873,261.17358499374996,265.2592327333333,47.0,99.0
874,265.61802899375,266.5161770520833,66.0,112.0
875,265.61802899375,266.5439548270833,58.0,122.0
876,265.61802899375,266.5578437145833,63.0,122.0
877,265.61802899375,267.4606214020833,39.0,97.0
878,266.72913999375,267.5971954625,58.0,95.0
879,266.72913999375,267.5971954625,66.0,99.0
880,266.72913999375,267.6157139791666,63.0,112.0
881,265.61802899375,267.66432508541664,51.0,100.0
882,267.84025099375,268.20599169791666,51.0,90.0
883,267.84025099375,268.27080650625,39.0,93.0
884,267.84025099375,268.27775095,58.0,102.0
885,267.84025099375,268.28469539375,63.0,127.0
886,267.84025099375,268.31247316875,66.0,112.0
887,268.95136199374997,269.4768249041666,49.0,95.0
888,268.95136199374997,269.58793600416664,37.0,96.0
889,268.95136199374997,269.59719526249995,65.0,127.0
890,268.95136199374997,269.6342322958333,68.0,112.0
891,268.95136199374997,269.64580636874996,61.0,122.0
892,270.06247299374996,274.4536762583333,47.0,95.0
893,270.06247299374996,274.50691699375,59.0,97.0
894,270.06247299374996,274.5092318083333,42.0,117.0
895,270.06247299374996,274.5508984708333,63.0,127.0
896,270.06247299374996,274.56941698749995,35.0,76.0
897,270.06247299374996,274.5925651333333,66.0,102.0
898,274.32636145624997,278.13886107499997,34.0,40.0
899,274.5508984708333,278.1828425520833,65.0,68.0
900,274.36571330416666,278.20136106875,58.0,40.0
901,274.4559910729166,278.2175647708333,61.0,48.0
902,274.32636145624997,278.23376847291667,46.0,41.0
903,280.41200899583333,281.2731200208333,65.0,25.0
904,280.1990460541666,281.3495089020833,61.0,36.0
905,280.1064534708333,281.416638525,58.0,35.0
906,284.0323790041666,284.8934900291666,58.0,37.0
907,284.0995086270833,284.9027492875,63.0,48.0
908,284.23376787291664,284.9189529895833,66.0,96.0
909,284.7962678166666,284.9675640958333,70.0,36.0
910,283.9883975270833,288.91432296041665,46.0,54.0
911,284.0231197458333,288.93747110625,51.0,64.0
912,285.79626771666665,288.94904517916666,78.0,61.0
913,286.88886019999995,288.9606192520833,87.0,66.0
914,286.361082475,288.96293406666666,82.0,48.0
915,285.32636035624995,288.96524888125,75.0,61.0
916,283.84487902291664,288.96987851041666,39.0,50.0
