,start,end,pitch,velocity
0,26.996918654166667,27.136298804166664,79.0,72.0
1,27.129661654166664,27.136298804166664,79.0,65.0
2,27.393634904166667,27.64897603125,76.0,74.0
3,27.650044404166668,27.906453904166668,76.0,68.0
4,27.906453904166668,28.16179503125,74.0,79.0
5,28.162863404166668,28.419272904166668,74.0,84.0
6,28.419272904166668,28.750468508333334,72.0,71.0
7,28.67568240416667,29.2162791,74.0,94.0
8,29.188501404166665,29.444939081250002,76.0,89.0
9,29.446035570833335,29.972350570833335,76.0,98.0
10,29.972350570833335,30.23441158125,67.0,77.0
11,30.235508070833333,30.498665570833335,67.0,91.0
12,30.498665570833335,30.761823070833334,69.0,89.0
13,30.761823070833334,31.288138070833334,74.0,97.0
14,31.288138070833334,31.597348133333334,72.0,94.0
15,31.551295570833336,32.077610570833336,74.0,96.0
16,32.077610570833336,32.6265073625,76.0,100.0
17,32.605110987500005,34.4970009875,72.0,97.0
18,34.4970009875,34.8033069875,67.0,66.0
19,34.767270987500005,35.0375409875,69.0,68.0
20,35.0375409875,35.5780809875,74.0,87.0
21,35.5780809875,35.87852702083334,72.0,79.0
22,35.84755365416667,36.41502997916667,74.0,91.0
23,36.37852565416667,36.9415772125,76.0,93.0
24,36.90949765416667,38.76789965416667,72.0,106.0
25,38.76789965416667,39.03338565416667,67.0,89.0
26,39.03338565416667,39.29887165416667,69.0,77.0
27,39.29887165416667,39.829843654166666,74.0,96.0
28,39.829843654166666,40.09345482083334,72.0,95.0
29,40.09345482083334,40.66231010833334,74.0,98.0
30,40.601928820833336,41.10934350000001,76.0,97.0
31,41.110402820833336,41.618876820833336,76.0,103.0
32,41.618876820833336,43.693667070833335,74.0,105.0
33,43.693667070833335,43.95344861875,79.0,90.0
34,43.954535570833336,44.21540407083334,79.0,90.0
35,44.21540407083334,44.475185618750004,76.0,89.0
36,44.47627257083334,44.7588801125,76.0,94.0
37,44.73714107083334,44.996922618750006,74.0,82.0
38,44.99800957083334,45.25887807083334,74.0,92.0
39,45.25887807083334,45.519746570833334,72.0,94.0
40,45.519746570833334,46.070831277083336,74.0,99.0
41,46.041483570833336,46.30126511875,76.0,100.0
42,46.30235207083334,46.82408907083334,76.0,100.0
43,46.82408907083334,47.083870618750005,67.0,75.0
44,47.08495757083334,47.34620757083334,67.0,87.0
45,47.34620757083334,47.60936507083334,69.0,85.0
46,47.60936507083334,48.13568007083334,74.0,96.0
47,48.13568007083334,48.43572997916667,72.0,85.0
48,48.39922565416667,48.930197654166676,74.0,93.0
49,48.930197654166676,49.477762529166675,79.0,90.0
50,49.461169654166675,51.33541865416667,72.0,59.0
51,51.33541865416667,51.60528640416668,67.0,92.0
52,51.60528640416668,51.87314290416668,69.0,92.0
53,51.87314290416668,52.40885590416668,74.0,100.0
54,52.40885590416668,52.71540274166668,72.0,98.0
55,52.674804570833345,53.18869194375001,74.0,98.0
56,53.187623570833345,53.700442570833346,76.0,105.0
57,53.700442570833346,55.53155790416668,72.0,105.0
58,55.53155790416668,55.799414404166676,67.0,97.0
59,55.799414404166676,56.067270904166676,69.0,90.0
60,56.067270904166676,56.60298390416668,74.0,98.0
61,56.60298390416668,56.91771529166668,72.0,90.0
62,56.87084040416668,57.41659802291668,74.0,92.0
63,57.40655340416668,57.94001478541668,76.0,93.0
64,57.94110173750001,58.462838737500014,76.0,97.0
65,58.462838737500014,59.76718123750001,74.0,108.0
66,59.76718123750001,60.02804973750001,72.0,100.0
67,60.02804973750001,60.30196166250001,74.0,84.0
68,60.28891823750001,60.810655237500015,76.0,98.0
69,60.810655237500015,61.07043678541668,79.0,91.0
70,61.071523737500016,61.60630416250001,79.0,99.0
71,61.59326073750001,62.11391078541668,81.0,101.0
72,62.11499773750001,62.636734737500014,81.0,105.0
73,62.636734737500014,63.94922990416668,79.0,108.0
74,63.94922990416668,64.21597033541667,76.0,101.0
75,64.21708640416668,64.51730889791668,76.0,93.0
76,64.48494290416667,65.0125032375,77.0,98.0
77,65.0125032375,65.27663259375001,76.0,95.0
78,65.2733717375,65.8211955875,77.0,99.0
79,65.7951087375,66.3168457375,79.0,97.0
80,66.3168457375,66.62227927291667,74.0,90.0
81,66.5777142375,67.35923278541667,76.0,98.0
82,67.3603197375,67.62118823750001,76.0,101.0
83,67.62118823750001,67.8951001625,74.0,97.0
84,67.88205673750001,68.14292523750001,76.0,94.0
85,68.14292523750001,68.40379373750001,79.0,90.0
86,68.40379373750001,68.68205347083334,76.0,97.0
87,68.66466223750001,68.9581393,74.0,100.0
88,68.9255307375,69.4472677375,72.0,76.0
89,69.4472677375,69.70704928541667,69.0,85.0
90,69.7081362375,69.9690047375,69.0,89.0
91,69.9690047375,70.2298732375,72.0,90.0
92,70.2298732375,70.50269821041667,81.0,97.0
93,70.4907417375,70.7776970875,83.0,92.0
94,70.7516102375,71.188564975,81.0,108.0
95,71.14291298750001,72.32220832083334,79.0,98.0
96,72.32220832083334,72.58769432083334,76.0,99.0
97,72.58769432083334,72.85318032083333,79.0,90.0
98,72.85318032083333,73.11866632083333,77.0,97.0
99,73.11866632083333,73.38415232083334,76.0,94.0
100,73.38415232083334,73.65043565416667,77.0,98.0
101,73.65043565416667,73.95336327916667,76.0,93.0
102,73.92070565416667,74.19097565416666,77.0,98.0
103,74.19097565416666,74.73038952916667,84.0,100.0
104,74.73151565416667,75.8110287375,84.0,109.0
105,75.8110287375,76.0718972375,81.0,105.0
106,76.0718972375,76.5936342375,84.0,108.0
107,76.5936342375,76.8545027375,86.0,99.0
108,76.8545027375,77.3762397375,81.0,105.0
109,77.3762397375,80.25007412916666,79.0,111.0
110,80.25118032083334,80.52219727916666,79.0,108.0
111,80.51666632083334,80.78215232083333,81.0,96.0
112,80.78215232083333,81.04985070416667,84.0,99.0
113,81.04763832083333,81.34299149583333,83.0,96.0
114,81.31312432083334,81.74011430416667,81.0,97.0
115,81.71135332083334,82.36859428541666,79.0,99.0
116,82.36968123749999,82.66641915625,79.0,109.0
117,82.63054973749999,82.89141823749999,81.0,98.0
118,82.89141823749999,83.15228673749999,84.0,97.0
119,83.15228673749999,83.458807225,83.0,97.0
120,83.41315523749999,83.83706654999999,81.0,106.0
121,83.8044579875,84.45554228541667,79.0,97.0
122,84.4566292375,84.7174977375,79.0,109.0
123,84.7174977375,84.9783662375,81.0,96.0
124,84.9783662375,85.25991577083333,84.0,94.0
125,85.24000432083332,85.58181754583333,83.0,93.0
126,85.50549032083333,85.81964875416666,81.0,106.0
127,85.77097632083333,86.30084212916665,79.0,98.0
128,86.30194832083332,86.56632812916666,79.0,106.0
129,86.56743432083333,86.96455712916666,79.0,105.0
130,86.96566332083333,87.36389232083333,79.0,108.0
131,87.36389232083333,87.62937832083333,74.0,97.0
132,87.62937832083333,88.42361432291666,76.0,103.0
133,88.42469190416666,88.68331140416666,76.0,111.0
134,88.68331140416666,88.94193090416667,74.0,101.0
135,88.94193090416667,89.20055040416666,76.0,96.0
136,89.20055040416666,89.45916990416666,79.0,98.0
137,89.45916990416666,89.71778940416667,76.0,105.0
138,89.71778940416667,90.10424532083333,74.0,106.0
139,90.10424532083333,90.49116965416665,72.0,105.0
140,90.49116965416665,90.76031352916665,69.0,99.0
141,90.76143965416665,91.03170965416665,69.0,100.0
142,91.03170965416665,91.30197965416666,72.0,99.0
143,91.30197965416666,91.57224965416665,81.0,101.0
144,91.57224965416665,91.89544752916666,83.0,93.0
145,91.84251965416665,92.30535702916666,81.0,111.0
146,92.24792465416665,93.43436823749998,79.0,116.0
147,93.43436823749998,93.69523673749998,76.0,106.0
148,93.69523673749998,93.96480085416665,79.0,106.0
149,93.95610523749998,94.47784223749998,77.0,105.0
150,94.47784223749998,94.7807024875,76.0,99.0
151,94.73796757083332,95.25078657083333,77.0,99.0
152,95.25078657083333,95.76473023749999,84.0,108.0
153,95.76473023749999,96.0278877375,72.0,90.0
154,96.0278877375,97.21757893541665,74.0,101.0
155,97.08051773749999,97.3436752375,79.0,103.0
156,97.3436752375,97.6068327375,81.0,100.0
157,97.6068327375,97.90178843541666,84.0,94.0
158,97.86999023749999,98.16275295624999,83.0,100.0
159,98.1331477375,98.52788398749999,81.0,111.0
160,98.52788398749999,99.18468124791666,79.0,108.0
161,99.18577773749999,99.48950535208333,79.0,108.0
162,99.4489352375,99.7120927375,81.0,101.0
163,99.7120927375,100.00375896666667,84.0,99.0
164,99.97525023749999,100.26033752916666,83.0,99.0
165,100.2384077375,100.73950347708333,81.0,114.0
166,100.63314398749999,101.28994124791666,79.0,108.0
167,101.29103773749999,101.5541952375,79.0,109.0
168,101.5541952375,101.81735273749999,81.0,99.0
169,101.81735273749999,102.10244002916666,84.0,93.0
170,102.0805102375,102.40836062291666,83.0,99.0
171,102.3436677375,102.73840398749999,81.0,108.0
172,102.73840398749999,103.13204374791665,79.0,98.0
173,103.13314023749999,103.39520124791666,79.0,97.0
174,103.39629773749999,103.78993749791667,79.0,105.0
175,103.79103398749999,104.1857702375,79.0,105.0
176,104.1857702375,104.4489277375,74.0,89.0
177,104.4489277375,105.23730374791666,76.0,101.0
178,105.23840023749999,105.5015577375,76.0,105.0
179,105.5015577375,105.7647152375,74.0,97.0
180,105.7647152375,106.02787273749999,76.0,98.0
181,106.02787273749999,106.2910302375,79.0,90.0
182,106.2910302375,106.57940699791666,76.0,100.0
183,106.5541877375,106.81734523749999,74.0,101.0
184,106.81734523749999,107.34444340416665,72.0,94.0
185,107.34444340416665,107.61118383541665,69.0,94.0
186,107.61229990416666,107.88015640416666,69.0,94.0
187,107.88015640416666,108.14801290416666,72.0,93.0
188,108.14801290416666,108.41586940416666,81.0,103.0
189,108.41586940416666,108.68372590416666,83.0,87.0
190,108.68372590416666,109.08551065416665,81.0,109.0
191,109.08551065416665,110.2759847375,79.0,109.0
192,110.2759847375,110.5391422375,76.0,103.0
193,110.5391422375,110.84396634166666,79.0,105.0
194,110.8022997375,111.07313266458333,77.0,108.0
195,111.0654572375,111.35712346666666,76.0,97.0
196,111.3286147375,111.5917722375,77.0,93.0
197,111.5917722375,111.8812454875,76.0,92.0
198,111.8549297375,112.11808723749999,77.0,100.0
199,112.11808723749999,112.6444022375,84.0,98.0
200,112.6444022375,112.9075597375,72.0,86.0
201,112.9075597375,113.6970322375,74.0,90.0
202,113.6970322375,113.9601897375,67.0,90.0
203,113.9601897375,114.2365051125,76.0,91.0
204,114.2233472375,114.7496622375,79.0,84.0
205,114.7496622375,115.02926708125,81.0,77.0
206,115.0128197375,115.8022922375,74.0,90.0
207,115.8022922375,123.6970172375,72.0,85.0
208,123.6970172375,123.95907824791666,79.0,72.0
209,123.9601747375,124.2233322375,79.0,65.0
210,124.2233322375,124.48539324791666,76.0,74.0
211,124.4864897375,124.7496472375,76.0,68.0
212,124.7496472375,125.01170824791666,74.0,79.0
213,125.0128047375,125.2759622375,74.0,84.0
214,125.2759622375,125.61587400833334,72.0,71.0
215,125.5391197375,126.0654347375,74.0,94.0
216,126.0654347375,126.32749574791666,76.0,89.0
217,126.3285922375,126.8549072375,76.0,98.0
218,126.8549072375,127.11696824791667,67.0,77.0
219,127.11806473749999,127.3812222375,67.0,91.0
220,127.3812222375,127.68823932083333,69.0,89.0
221,127.6443797375,128.1706947375,74.0,97.0
222,128.1706947375,128.47990479999999,72.0,94.0
223,128.4338522375,128.9601672375,74.0,96.0
224,128.9601672375,129.50731553958335,76.0,100.0
225,129.4864822375,131.3285847375,72.0,97.0
226,131.3285847375,131.61367202916665,67.0,66.0
227,131.5917422375,131.86915410208334,69.0,68.0
228,131.8548997375,132.3812147375,74.0,87.0
229,132.3812147375,132.67507394583333,72.0,79.0
230,132.6443722375,133.20687139375,74.0,91.0
231,133.1706872375,133.6970022375,76.0,93.0
232,133.6970022375,135.5391047375,72.0,106.0
233,135.5391047375,135.86476214375,67.0,89.0
234,135.8022622375,136.0654197375,69.0,77.0
235,136.0654197375,136.5917347375,74.0,96.0
236,136.5917347375,136.8548922375,72.0,95.0
237,136.8548922375,137.44370714375,74.0,98.0
238,137.3812072375,137.90642574791667,76.0,97.0
239,137.9075222375,138.4338372375,76.0,103.0
240,138.4338372375,139.98756297708334,74.0,105.0
241,140.53909723750002,140.80115824791667,79.0,90.0
242,140.8022547375,141.09940341458332,79.0,90.0
243,141.0654122375,141.32747324791666,76.0,89.0
244,141.3285697375,141.74523577916668,76.0,94.0
245,141.5917272375,141.85378824791667,74.0,82.0
246,141.85488473750002,142.23755960208334,74.0,92.0
247,142.1180422375,142.3811997375,72.0,94.0
248,142.3811997375,142.93711995625,74.0,99.0
249,142.9075147375,143.16957574791667,76.0,100.0
250,143.1706722375,143.6969872375,76.0,100.0
251,143.6969872375,143.95904824791666,67.0,75.0
252,143.9601447375,144.2233022375,67.0,87.0
253,144.2233022375,144.4864597375,69.0,85.0
254,144.4864597375,145.0127747375,74.0,96.0
255,145.0127747375,145.31211639375,72.0,85.0
256,145.2759322375,145.8022472375,74.0,93.0
257,145.8022472375,146.34500958125,79.0,90.0
258,146.3285622375,148.1706647375,72.0,59.0
259,148.1706647375,148.50290108125,67.0,92.0
260,148.4338222375,148.6969797375,69.0,92.0
261,148.6969797375,149.2232947375,74.0,100.0
262,149.2232947375,149.52811884166667,72.0,98.0
263,149.4864522375,150.01386372708333,74.0,98.0
264,150.0127672375,150.5390822375,76.0,105.0
265,150.5390822375,152.3811847375,72.0,105.0
266,152.3811847375,152.66298256041665,67.0,97.0
267,152.64434223749998,152.90749973750002,69.0,90.0
268,152.90749973750002,153.4338147375,74.0,98.0
269,153.4338147375,153.73425288333334,72.0,90.0
270,153.6969722375,154.23315564375,74.0,92.0
271,154.22328723750002,154.74850574791668,76.0,93.0
272,154.7496022375,155.2759172375,76.0,97.0
273,155.2759172375,156.5917047375,74.0,108.0
274,156.5917047375,156.85486223750001,72.0,100.0
275,156.85486223750001,157.1311776125,74.0,84.0
276,157.1180197375,157.6443347375,76.0,98.0
277,157.6443347375,157.90639574791666,79.0,91.0
278,157.9074922375,158.4469651125,79.0,99.0
279,158.4338072375,158.95902574791666,81.0,101.0
280,158.9601222375,159.4864372375,81.0,105.0
281,159.4864372375,160.8022247375,79.0,108.0
282,160.8022247375,161.0653822375,76.0,101.0
283,161.0653822375,161.35924144583333,79.0,93.0
284,161.3285397375,161.90638974791668,77.0,98.0
285,161.8548547375,162.12130170625,76.0,95.0
286,162.1180122375,162.6706429875,77.0,99.0
287,162.6443272375,163.1706422375,79.0,97.0
288,163.1706422375,163.47765932083334,74.0,90.0
289,163.4337997375,164.22217574791668,76.0,98.0
290,164.2232722375,164.4864297375,76.0,101.0
291,164.4864297375,164.7627451125,74.0,97.0
292,164.7495872375,165.0127447375,76.0,94.0
293,165.0127447375,165.27590223750002,79.0,90.0
294,165.27590223750002,165.55660357083335,76.0,97.0
295,165.5390597375,165.835111925,74.0,100.0
296,165.8022172375,166.3285322375,72.0,76.0
297,166.3285322375,166.59059324791667,69.0,85.0
298,166.59168973750002,166.85523532083334,69.0,89.0
299,166.85523532083334,167.12072132083333,72.0,90.0
300,167.12072132083333,167.39837542916666,81.0,97.0
301,167.38620732083334,167.67824192083333,83.0,92.0
302,167.65169332083335,168.09638237083334,81.0,108.0
303,168.04992232083333,169.23723573750001,79.0,98.0
304,169.23723573750001,169.5003932375,76.0,99.0
305,169.5003932375,169.7635507375,79.0,90.0
306,169.7635507375,170.0267082375,77.0,97.0
307,170.0267082375,170.2898657375,76.0,94.0
308,170.2898657375,170.55226690416666,77.0,98.0
309,170.55226690416666,170.84213626041665,76.0,93.0
310,170.81088640416667,171.06950590416665,77.0,98.0
311,171.06950590416665,171.71497707291667,84.0,100.0
312,171.71605465416667,172.62197923749997,84.0,109.0
313,172.62197923749997,172.88513673749998,81.0,105.0
314,172.88513673749998,173.4114517375,84.0,108.0
315,173.4114517375,173.67460923749996,86.0,99.0
316,173.67460923749996,174.20092423749998,81.0,105.0
317,174.20092423749998,177.09456024791663,79.0,111.0
318,177.09565673749998,177.36429668541663,79.0,108.0
319,177.35881423749998,177.62197173749996,81.0,96.0
320,177.62197173749996,177.88732221666663,84.0,99.0
321,177.88512923749997,178.17789195624997,83.0,96.0
322,178.14828673749997,178.57153171666664,81.0,97.0
323,178.54302298749997,179.19982024791665,79.0,99.0
324,179.20091673749997,179.50025839375,79.0,109.0
325,179.46407423749997,179.72723173749998,81.0,98.0
326,179.72723173749998,179.99038923749998,84.0,97.0
327,179.99038923749998,180.29959929999998,83.0,97.0
328,180.2535467375,180.681177675,81.0,106.0
329,180.64828298749998,181.30508024791664,79.0,97.0
330,181.30617673749998,181.5693342375,79.0,109.0
331,181.5693342375,181.83249173749996,81.0,96.0
332,181.83249173749996,182.11538604999998,84.0,94.0
333,182.09564923749997,182.43446451874996,83.0,93.0
334,182.35880673749998,182.67020977916664,81.0,106.0
335,182.62196423749998,183.14718274791664,79.0,98.0
336,183.14827923749996,183.41034024791665,79.0,106.0
337,183.41143673749997,183.80507649791664,79.0,105.0
338,183.80617298749996,184.20090923749999,79.0,108.0
339,184.20090923749999,184.4640667375,74.0,97.0
340,184.4640667375,185.25244274791663,76.0,103.0
341,185.25353923749998,185.51669673749998,76.0,111.0
342,185.51669673749998,185.7798542375,74.0,101.0
343,185.7798542375,186.04301173749997,76.0,96.0
344,186.04301173749997,186.30616923749997,79.0,98.0
345,186.30616923749997,186.56932673749998,76.0,105.0
346,186.56932673749998,186.8895016958333,74.0,106.0
347,186.83248423749998,187.35879923749997,72.0,105.0
348,187.35879923749997,187.62086024791665,69.0,99.0
349,187.62195673749997,187.88511423749998,69.0,100.0
350,187.88511423749998,188.14827173749998,72.0,99.0
351,188.14827173749998,188.4114292375,81.0,101.0
352,188.4114292375,188.72721823749998,83.0,93.0
353,188.67458673749996,189.12524395625,81.0,111.0
354,189.0693229875,190.25353173749997,79.0,116.0
355,190.25353173749997,190.51668923749997,76.0,106.0
356,190.51668923749997,190.78861865416664,79.0,106.0
357,190.77984673749998,191.30616173749996,77.0,105.0
358,191.30616173749996,191.6131788208333,76.0,99.0
359,191.56931923749997,192.09563423749998,77.0,99.0
360,192.09563423749998,192.62194923749996,84.0,108.0
361,192.62194923749996,192.88510673749997,72.0,90.0
362,192.88510673749997,194.07479793541665,74.0,101.0
363,193.9388332270833,194.21295562291664,79.0,103.0
364,194.20089423749997,194.46405173749997,81.0,100.0
365,194.46405173749997,194.75900743541663,84.0,94.0
366,194.72720923749998,195.01997195624998,83.0,100.0
367,194.99036673749998,195.37084862291664,81.0,111.0
368,195.2535242375,196.04190024791666,79.0,108.0
369,196.04299673749998,196.3467243520833,79.0,108.0
370,196.30615423749998,196.5693117375,81.0,101.0
371,196.5693117375,196.86097796666664,84.0,99.0
372,196.8324692375,197.11755652916665,83.0,99.0
373,197.09562673749997,197.4486963833333,81.0,114.0
374,197.35878423749998,198.14716024791664,79.0,108.0
375,198.1482567375,198.41141423749997,79.0,109.0
376,198.41141423749997,198.67457173749997,81.0,99.0
377,198.67457173749997,198.95965902916663,84.0,93.0
378,198.93772923749998,199.26557962291665,83.0,99.0
379,199.20088673749999,199.48487753958332,81.0,108.0
380,199.4640442375,199.98926274791665,79.0,98.0
381,199.99035923749997,200.25242024791663,79.0,97.0
382,200.25351673749998,200.64715649791665,79.0,105.0
383,200.64825298749997,201.04298923749997,79.0,105.0
384,201.04298923749997,201.30614673749997,74.0,89.0
385,201.30614673749997,202.09452274791664,76.0,101.0
386,202.0956192375,202.35877673749997,76.0,105.0
387,202.35877673749997,202.62193423749997,74.0,97.0
388,202.62193423749997,202.88509173749998,76.0,98.0
389,202.88509173749998,203.14824923749998,79.0,90.0
390,203.14824923749998,203.43662599791665,76.0,100.0
391,203.4114067375,203.67456423749996,74.0,101.0
392,203.67456423749996,204.20087923749998,72.0,94.0
393,204.20087923749998,204.46294024791663,69.0,94.0
394,204.46403673749998,204.7271942375,69.0,94.0
395,204.7271942375,204.99035173749996,72.0,93.0
396,204.99035173749996,205.25350923749997,81.0,103.0
397,205.25350923749997,205.51666673749997,83.0,87.0
398,205.51666673749997,205.85767499791666,81.0,109.0
399,205.77982423749998,207.09561173749998,79.0,109.0
400,207.09561173749998,207.35876923749998,76.0,103.0
401,207.35876923749998,207.66359334166665,79.0,105.0
402,207.62192673749996,207.8927596645833,77.0,108.0
403,207.8850842375,208.17675046666665,76.0,97.0
404,208.14824173749997,208.41139923749998,77.0,93.0
405,208.41139923749998,208.70087248749996,76.0,92.0
406,208.67455673749998,208.93771423749996,77.0,100.0
407,208.93771423749996,209.46402923749997,84.0,98.0
408,209.46402923749997,209.72718673749998,72.0,86.0
409,209.72718673749998,210.5170473208333,74.0,90.0
410,210.5170473208333,210.7825333208333,67.0,90.0
411,210.7825333208333,211.0612936208333,76.0,91.0
412,211.0480193208333,211.4462483208333,79.0,84.0
413,211.4462483208333,211.8444773208333,81.0,77.0
414,211.8444773208333,212.64054723749996,74.0,90.0
415,212.64054723749996,215.00896473749995,72.0,85.0
416,215.00896473749995,215.27212223749996,79.0,103.0
417,215.27212223749996,215.56927091458329,81.0,100.0
418,215.53527973749996,215.79843723749997,84.0,94.0
419,215.79843723749997,216.09229644583328,83.0,100.0
420,216.06159473749997,216.45633098749997,81.0,111.0
421,216.45633098749997,217.11312824791662,79.0,108.0
422,217.11422473749997,217.41904884166664,79.0,108.0
423,217.37738223749997,217.64053973749995,81.0,101.0
424,217.64053973749995,217.93330245624998,84.0,99.0
425,217.90369723749996,218.18988101874996,83.0,99.0
426,218.16685473749996,218.56159098749995,81.0,114.0
427,218.56159098749995,219.21054369791662,79.0,108.0
428,219.2116120708333,219.4680215708333,79.0,109.0
429,219.4680215708333,219.72443107083328,81.0,99.0
430,219.72443107083328,220.00113965624996,84.0,93.0
431,219.9808405708333,220.3002840729166,83.0,99.0
432,220.23725007083328,220.62186432083328,81.0,108.0
433,220.62186432083328,221.2696642479166,79.0,98.0
434,221.27076073749996,221.7466372166666,79.0,97.0
435,221.6435671958333,221.7466372166666,79.0,105.0
436,222.06023323749994,222.32339073749995,74.0,89.0
437,222.32339073749995,223.11176674791662,76.0,101.0
438,223.11286323749997,223.37602073749994,76.0,105.0
439,223.37602073749994,223.63917823749995,74.0,97.0
440,223.63917823749995,223.90233573749995,76.0,98.0
441,223.90233573749995,224.16549323749996,79.0,90.0
442,224.16549323749996,224.45386999791663,76.0,100.0
443,224.42865073749996,224.69180823749994,74.0,101.0
444,224.69180823749994,225.21812323749995,72.0,94.0
445,225.21812323749995,225.4801842479166,69.0,94.0
446,225.48128073749996,225.74443823749996,69.0,94.0
447,225.74443823749996,226.00759573749994,72.0,93.0
448,226.00759573749994,226.27075323749995,81.0,103.0
449,226.27075323749995,226.53391073749995,83.0,87.0
450,226.53391073749995,227.32228674791662,81.0,109.0
451,227.06022573749996,228.11285573749996,79.0,109.0
452,228.11285573749996,228.37601323749996,76.0,103.0
453,228.37601323749996,228.68083734166663,79.0,105.0
454,228.63917073749997,229.16548573749995,77.0,108.0
455,229.16548573749995,229.4988185708333,76.0,97.0
456,229.42864323749995,229.99443186249997,77.0,93.0
457,229.95495823749997,230.34969448749996,84.0,98.0
458,230.34969448749996,230.74443073749995,72.0,86.0
459,230.74443073749995,231.79706073749995,74.0,90.0
460,231.79706073749995,232.06021823749995,79.0,103.0
461,232.06021823749995,232.32337573749996,81.0,100.0
462,232.32337573749996,232.61833143541662,84.0,94.0
463,232.58653323749996,232.88039244583328,83.0,100.0
464,232.84969073749994,233.23017262291663,81.0,111.0
465,233.11284823749995,233.90122424791662,79.0,108.0
466,233.90232073749996,234.2060483520833,79.0,108.0
467,234.16547823749994,234.42863573749995,81.0,101.0
468,234.42863573749995,234.72139845624994,84.0,99.0
469,234.69179323749995,234.97688052916664,83.0,99.0
470,234.95495073749996,235.30692389374997,81.0,114.0
471,235.21810823749996,236.00648424791663,79.0,108.0
472,236.00758073749995,236.27073823749996,79.0,109.0
473,236.27073823749996,236.53389573749996,81.0,99.0
474,236.53389573749996,236.81898302916662,84.0,93.0
475,236.79705323749997,237.12490362291663,83.0,99.0
476,237.06021073749994,237.34420153958328,81.0,108.0
477,237.32336823749995,238.11174424791662,79.0,98.0
478,238.11284073749997,238.5064804979166,79.0,97.0
479,238.50757698749996,238.9330149458333,79.0,105.0
480,238.90231323749995,239.16547073749996,74.0,89.0
481,239.16547073749996,239.95384674791663,76.0,101.0
482,239.95494323749995,240.21810073749995,76.0,105.0
483,240.21810073749995,240.48125823749996,74.0,97.0
484,240.48125823749996,240.74441573749996,76.0,98.0
485,240.74441573749996,241.00757323749997,79.0,90.0
486,241.00757323749997,241.29594999791664,76.0,100.0
487,241.27073073749995,241.53388823749995,74.0,101.0
488,241.53388823749995,242.06020323749996,72.0,94.0
489,242.06020323749996,242.32226424791662,69.0,94.0
490,242.32336073749997,242.58651823749994,69.0,94.0
491,242.58651823749994,242.84967573749995,72.0,93.0
492,242.84967573749995,243.11283323749996,81.0,103.0
493,243.11283323749996,243.37599073749996,83.0,87.0
494,243.37599073749996,243.91656010208328,81.0,109.0
495,243.77072698749996,244.95493573749997,79.0,109.0
496,244.95493573749997,245.21809323749994,76.0,103.0
497,245.21809323749994,245.5229173416666,79.0,105.0
498,245.48125073749995,245.7520836645833,77.0,108.0
499,245.74440823749995,246.03607446666663,76.0,97.0
500,246.00756573749996,246.27072323749996,77.0,93.0
501,246.27072323749996,246.56019648749995,76.0,92.0
502,246.53388073749994,246.79703823749995,77.0,100.0
503,246.79703823749995,247.32335323749996,84.0,98.0
504,247.32335323749996,247.58651073749996,72.0,86.0
505,247.58651073749996,248.37598323749995,74.0,90.0
506,248.37598323749995,248.63914073749996,67.0,90.0
507,248.63914073749996,248.9165526020833,76.0,91.0
508,248.90229823749996,249.29703448749996,79.0,84.0
509,249.29703448749996,249.69177073749995,81.0,77.0
510,249.69177073749995,250.48124323749997,74.0,90.0
511,250.48124323749997,252.54264365416662,72.0,85.0
