,start,end,pitch,velocity
0,9.738640737499999,9.9649328,83.0,45.0
1,9.997260237499999,10.238638437499999,84.0,42.0
2,10.255879737499999,10.537185362499999,91.0,58.0
3,10.515255570833332,10.783895518749999,83.0,46.0
4,10.778413070833333,11.041570570833333,84.0,52.0
5,11.041570570833333,11.36284201875,91.0,45.0
6,11.304728070833333,11.532797904166666,83.0,35.0
7,11.567885570833333,11.874902654166666,84.0,35.0
8,9.738640737499999,13.108453435416667,76.0,47.0
9,9.738640737499999,13.233453247916666,67.0,44.0
10,9.738640737499999,13.278409320833333,72.0,46.0
11,9.738640737499999,13.286084747916666,74.0,47.0
12,11.831043070833333,13.630382477083334,91.0,39.0
13,13.936303070833333,14.158890456249999,83.0,43.0
14,14.199460570833333,14.470293497916666,84.0,56.0
15,14.462618070833333,14.7477053625,91.0,54.0
16,14.725775570833333,14.949459445833334,83.0,46.0
17,14.988933070833333,15.248801102083334,84.0,48.0
18,15.252090570833333,15.506476154166666,91.0,56.0
19,15.515248070833334,15.774724462499998,83.0,40.0
20,13.936303070833333,17.524172664583332,76.0,47.0
21,13.936303070833333,17.532944581249996,67.0,48.0
22,13.936303070833333,17.551584904166663,69.0,48.0
23,13.936303070833333,17.554874372916665,72.0,57.0
24,15.779188737499998,17.586672570833333,84.0,44.0
25,16.047045237499997,17.626146195833332,91.0,40.0
26,18.16561907083333,18.388206456249996,83.0,40.0
27,18.42877657083333,18.6743902375,84.0,45.0
28,18.69193407083333,18.929872310416663,91.0,61.0
29,18.955091570833332,19.17767895625,83.0,45.0
30,19.21824907083333,19.452897841666665,84.0,42.0
31,19.481406570833332,19.71495885208333,91.0,47.0
32,19.74456407083333,19.939739216666666,83.0,39.0
33,20.007721570833333,20.262107154166664,84.0,25.0
34,20.27087907083333,21.008816560416665,91.0,58.0
35,18.16561907083333,21.429868560416665,72.0,48.0
36,18.16561907083333,21.4572808,69.0,46.0
37,18.16561907083333,21.458377289583332,65.0,42.0
38,21.58666657083333,21.94083270625,79.0,82.0
39,21.849824070833332,22.038420279166665,84.0,67.0
40,22.11298157083333,22.336665445833333,86.0,72.0
41,22.24456032083333,22.419998654166665,77.0,49.0
42,22.24456032083333,22.441928445833334,72.0,45.0
43,22.376139070833332,22.801577029166666,80.0,59.0
44,22.902454070833333,23.07350644583333,79.0,47.0
45,22.376139070833332,23.07350644583333,88.0,97.0
46,23.034032820833332,23.213857112499998,86.0,53.0
47,23.428769070833333,23.515391747916667,77.0,59.0
48,22.902454070833333,23.917803425,60.0,33.0
49,23.82350532083333,23.926575341666666,72.0,63.0
50,23.428769070833333,23.962759497916664,65.0,44.0
51,23.428769070833333,24.239074872916664,86.0,99.0
52,24.481399070833334,24.78293370625,68.0,39.0
53,24.481399070833334,24.788416154166665,60.0,41.0
54,24.481399070833334,24.816924883333332,65.0,51.0
55,22.376139070833332,24.936442247916666,53.0,44.0
56,24.481399070833334,25.069117487499998,84.0,91.0
57,25.536745654166666,26.03563809583333,57.0,36.0
58,25.536745654166666,26.05886812083333,43.0,44.0
59,25.536745654166666,26.109752937499998,65.0,35.0
60,25.536745654166666,26.120814854166667,60.0,45.0
61,25.536745654166666,26.1296643875,80.0,91.0
62,26.598689654166666,26.9294409625,79.0,64.0
63,26.598689654166666,26.9294409625,79.0,91.0
64,26.864175654166665,27.153997870833333,67.0,42.0
65,27.129661654166664,27.1916083875,79.0,56.0
66,27.393634904166667,27.65218115,67.0,47.0
67,27.650044404166668,27.90538553125,79.0,52.0
68,27.906453904166668,28.249401610416665,67.0,49.0
69,26.598689654166666,28.2739741875,55.0,43.0
70,26.598689654166666,28.285726289583334,64.0,42.0
71,26.598689654166666,28.324187714583335,60.0,46.0
72,28.162863404166668,28.3893584625,77.0,62.0
73,28.419272904166668,28.720554066666665,67.0,46.0
74,28.67568240416667,28.87333139375,76.0,62.0
75,28.93209190416667,29.23230469375,67.0,44.0
76,29.188501404166665,29.4416496125,76.0,50.0
77,28.67568240416667,29.520596862500003,64.0,48.0
78,29.446035570833335,29.750859675,67.0,41.0
79,29.709193070833336,29.90765768541667,74.0,51.0
80,28.67568240416667,30.240990518750003,55.0,48.0
81,29.709193070833336,30.2442799875,64.0,39.0
82,29.972350570833335,30.259630841666667,67.0,57.0
83,28.67568240416667,30.2640168,60.0,54.0
84,30.367086820833336,30.4942796125,72.0,25.0
85,30.498665570833335,30.794717758333334,67.0,55.0
86,30.761823070833334,30.988796414583334,71.0,61.0
87,31.024980570833335,31.329804675000002,67.0,53.0
88,31.288138070833334,31.514014925,72.0,47.0
89,31.551295570833336,31.801295195833333,67.0,48.0
90,31.814453070833334,32.0600667375,72.0,56.0
91,30.761823070833334,32.31445232083333,57.0,42.0
92,30.761823070833334,32.321031258333335,64.0,49.0
93,30.761823070833334,32.33528562291667,60.0,58.0
94,32.077610570833336,32.33528562291667,67.0,58.0
95,32.340768070833334,32.54252215416667,71.0,58.0
96,32.605110987500005,32.9767322375,67.0,55.0
97,32.8753809875,33.1186239875,72.0,67.0
98,33.145650987500005,33.3990291125,52.0,47.0
99,32.8753809875,33.41029036250001,45.0,60.0
100,33.145650987500005,33.4170471125,64.0,49.0
101,33.4159209875,33.748127862500006,72.0,70.0
102,33.4159209875,33.77065036250001,57.0,34.0
103,33.686190987500005,33.92718173750001,64.0,52.0
104,33.686190987500005,34.1298842375,59.0,45.0
105,33.9564609875,34.1377671125,60.0,63.0
106,33.9564609875,34.17042473750001,71.0,60.0
107,34.226730987500005,34.485739737500005,64.0,50.0
108,34.4970009875,34.712090862500006,67.0,43.0
109,34.767270987500005,35.0600634875,64.0,50.0
110,35.0375409875,35.2965497375,72.0,62.0
111,35.0375409875,35.4936216125,41.0,52.0
112,35.307810987500005,35.5634413625,48.0,54.0
113,35.307810987500005,35.590468362500005,60.0,46.0
114,35.5780809875,35.84755365416667,72.0,73.0
115,35.5780809875,35.91724372916667,53.0,48.0
116,35.84755365416667,36.06657960416667,60.0,56.0
117,36.11303965416667,36.400649487500004,72.0,70.0
118,36.11303965416667,36.49135720416667,57.0,55.0
119,35.84755365416667,36.526755337500006,55.0,62.0
120,36.37852565416667,36.59202064583334,60.0,48.0
121,36.64401165416667,36.817683745833335,71.0,56.0
122,36.90949765416667,37.14179790416667,60.0,42.0
123,37.17498365416667,37.3431247875,72.0,73.0
124,37.17498365416667,37.577637420833334,41.0,54.0
125,37.44046965416667,37.640690345833335,62.0,36.0
126,37.44046965416667,37.6783008625,48.0,48.0
127,37.70595565416667,37.94268067083334,72.0,67.0
128,37.70595565416667,38.005733595833334,53.0,48.0
129,37.97144165416667,38.27785674583334,64.0,63.0
130,38.23692765416667,38.496882695833335,57.0,49.0
131,37.97144165416667,38.513475570833336,55.0,72.0
132,38.23692765416667,38.52564367916667,72.0,70.0
133,38.50241365416667,38.68493527916667,64.0,60.0
134,38.76789965416667,39.12630575416667,72.0,63.0
135,39.03338565416667,39.24466826250001,64.0,49.0
136,39.29887165416667,39.52453475416667,71.0,66.0
137,39.29887165416667,39.6959944625,43.0,61.0
138,39.56435765416667,39.79665790416667,50.0,55.0
139,39.56435765416667,39.80440124583333,62.0,47.0
140,39.829843654166666,40.09027685833334,71.0,57.0
141,39.829843654166666,40.165488637500005,55.0,42.0
142,40.09345482083334,40.39642057916667,62.0,49.0
143,40.34769182083334,40.54048821250001,69.0,50.0
144,40.34769182083334,40.57862376250001,59.0,59.0
145,40.09345482083334,40.61252202916667,57.0,54.0
146,40.601928820833336,40.812733666666674,62.0,51.0
147,40.85616582083334,41.054258816666675,69.0,49.0
148,41.110402820833336,41.35192797083334,62.0,48.0
149,41.36463982083334,41.5256565875,71.0,44.0
150,41.36463982083334,41.71209705416667,43.0,56.0
151,41.618876820833336,41.8434528375,50.0,55.0
152,41.618876820833336,41.85510536666667,62.0,51.0
153,41.87311382083334,42.06802885416667,67.0,67.0
154,41.87311382083334,42.18715148333334,55.0,48.0
155,42.12845607083334,42.459976456250004,62.0,61.0
156,42.38932457083334,42.60562803541667,69.0,76.0
157,42.38932457083334,42.64693221458334,59.0,67.0
158,42.12845607083334,42.696932010416674,57.0,61.0
159,42.65019307083334,42.89040948125,62.0,59.0
160,42.91106157083334,43.1023651375,71.0,51.0
161,43.17193007083334,43.428450762500006,62.0,49.0
162,43.432798570833334,43.702362687500006,72.0,69.0
163,43.432798570833334,43.824101320833336,48.0,49.0
164,43.693667070833335,43.92627481666667,67.0,52.0
165,43.693667070833335,43.930622625000005,55.0,51.0
166,43.954535570833336,44.145839137500005,74.0,66.0
167,43.954535570833336,44.28822986041667,60.0,55.0
168,44.21540407083334,44.51757675,67.0,56.0
169,44.47627257083334,44.655619664583334,76.0,64.0
170,44.47627257083334,44.65670661666667,64.0,64.0
171,44.21540407083334,44.66648918541667,62.0,57.0
172,44.73714107083334,44.93714025416667,67.0,52.0
173,44.99800957083334,45.161052383333335,74.0,61.0
174,45.25887807083334,45.55018122916667,67.0,44.0
175,45.519746570833334,45.756702125000004,72.0,54.0
176,45.519746570833334,46.01539672083334,48.0,54.0
177,45.780615070833335,46.06539651666667,55.0,49.0
178,45.780615070833335,46.06539651666667,67.0,54.0
179,46.041483570833336,46.25561313125,74.0,76.0
180,46.041483570833336,46.38604738125,59.0,61.0
181,46.30235207083334,46.64582892916667,67.0,60.0
182,46.56322057083334,46.80017612500001,76.0,63.0
183,46.56322057083334,46.88278448333334,64.0,70.0
184,46.30235207083334,46.93387123125,60.0,66.0
185,46.82408907083334,47.096914043750004,67.0,56.0
186,47.08495757083334,47.315505862500004,74.0,72.0
187,47.34620757083334,47.58414581041667,67.0,46.0
188,47.60936507083334,47.81879458125,72.0,48.0
189,47.60936507083334,48.05563633125001,45.0,59.0
190,47.87252257083334,48.12910113333334,52.0,46.0
191,47.87252257083334,48.130197622916675,67.0,46.0
192,48.13568007083334,48.34620607083334,74.0,63.0
193,48.13568007083334,48.441260937500005,57.0,48.0
194,48.39922565416667,48.684623104166675,67.0,47.0
195,48.66471165416667,48.92356050416667,76.0,61.0
196,48.66471165416667,49.01205583750001,60.0,63.0
197,48.39922565416667,49.044135395833344,59.0,62.0
198,48.930197654166676,49.158073137500004,67.0,57.0
199,49.19568365416667,49.45785107916667,76.0,69.0
200,49.461169654166675,49.77090332083334,67.0,56.0
201,49.72665565416667,49.94457541250001,74.0,57.0
202,49.72665565416667,50.058513154166675,45.0,51.0
203,49.99214165416667,50.200105687500006,52.0,53.0
204,49.99214165416667,50.24214097083334,67.0,47.0
205,50.257627654166676,50.535869904166674,74.0,97.0
206,50.257627654166676,50.58541940416668,57.0,48.0
207,50.52460865416668,50.86132002916668,67.0,55.0
208,50.79487865416667,51.05501352916667,72.0,73.0
209,50.79487865416667,51.26109440416668,60.0,62.0
210,50.52460865416668,51.30501327916667,59.0,63.0
211,51.06514865416668,51.37032852916668,67.0,57.0
212,51.33541865416667,51.559517529166676,71.0,50.0
213,51.60528640416668,51.938990960416675,67.0,59.0
214,51.87314290416668,52.19233856666668,72.0,75.0
215,51.87314290416668,52.310641854166676,41.0,61.0
216,52.14099940416668,52.39323094166667,48.0,61.0
217,52.14099940416668,52.45907899791668,60.0,54.0
218,52.40885590416668,52.73890694583334,72.0,70.0
219,52.40885590416668,52.74318043750001,53.0,50.0
220,52.674804570833345,52.92053034166668,60.0,64.0
221,52.674804570833345,53.06369231250001,55.0,61.0
222,52.93121407083334,53.30193947291668,72.0,78.0
223,53.187623570833345,53.39809303541668,60.0,66.0
224,52.93121407083334,53.491041479166675,57.0,54.0
225,53.44403307083334,53.53270802291668,55.0,66.0
226,53.44403307083334,53.638476941666674,67.0,72.0
227,53.700442570833346,54.00920234375001,60.0,57.0
228,53.95685207083334,54.360697033333345,41.0,66.0
229,54.213261570833346,54.40770544166668,60.0,58.0
230,54.213261570833346,54.44509849375001,48.0,56.0
231,54.46967107083334,54.65984145000001,65.0,62.0
232,53.95685207083334,54.72575626666668,72.0,63.0
233,54.46967107083334,54.77709542916668,53.0,48.0
234,54.72798840416668,55.04941620416668,60.0,52.0
235,55.26370140416668,55.33512980416668,59.0,41.0
236,54.99584490416668,55.34963869791668,72.0,69.0
237,55.26370140416668,55.41325461666668,57.0,39.0
238,54.72798840416668,55.41548675416668,55.0,55.0
239,55.26370140416668,55.64651298541668,60.0,56.0
240,55.53155790416668,55.72017352291668,65.0,46.0
241,55.799414404166676,56.15990461041668,72.0,63.0
242,56.067270904166676,56.31503816666668,71.0,57.0
243,56.067270904166676,56.419948629166676,43.0,63.0
244,56.33512740416668,56.58066252916668,50.0,64.0
245,56.33512740416668,56.58512680416668,67.0,66.0
246,56.60298390416668,56.92106349791668,62.0,54.0
247,56.60298390416668,56.928875979166676,55.0,51.0
248,56.87084040416668,57.15097366041668,67.0,66.0
249,57.13869690416668,57.36302672291668,71.0,70.0
250,57.13869690416668,57.37753561666668,59.0,60.0
251,56.87084040416668,57.41213374791668,57.0,66.0
252,57.40655340416668,57.78601677916668,62.0,49.0
253,57.67440990416668,58.23566575208335,67.0,63.0
254,57.94110173750001,58.30414373333335,72.0,69.0
255,58.201970237500014,58.69218562708335,71.0,69.0
256,58.201970237500014,58.73783761458335,62.0,54.0
257,58.98457573750001,59.34870468541668,62.0,49.0
258,59.24544423750001,59.44326951666668,67.0,66.0
259,58.723707237500015,59.45848684583335,55.0,54.0
260,59.50631273750001,59.68239897500001,69.0,63.0
261,58.201970237500014,59.88131120625001,43.0,67.0
262,60.02804973750001,60.14544056250001,74.0,62.0
263,59.76718123750001,60.15739703541668,55.0,54.0
264,58.462838737500014,60.23891844166668,50.0,67.0
265,59.76718123750001,60.27478786041668,71.0,57.0
266,60.28891823750001,60.42152639166668,67.0,56.0
267,60.28891823750001,60.65413413750001,64.0,59.0
268,60.28891823750001,60.69978612500001,45.0,66.0
269,60.28891823750001,60.77369886666668,72.0,72.0
270,60.549786737500014,60.797611812500016,52.0,57.0
271,60.810655237500015,61.05087164791668,71.0,47.0
272,60.810655237500015,61.137827814583346,57.0,49.0
273,60.810655237500015,61.35195737500001,64.0,56.0
274,61.071523737500016,61.39869631458335,72.0,72.0
275,61.33239223750001,61.75304269375001,60.0,66.0
276,61.071523737500016,61.79108601666668,59.0,66.0
277,61.59326073750001,61.956302733333345,64.0,55.0
278,61.85412923750001,62.05086756458334,71.0,54.0
279,62.11499773750001,62.34108377083334,72.0,60.0
280,62.37586623750001,62.78238631666668,40.0,66.0
281,62.636734737500014,62.842168681250016,47.0,55.0
282,62.897603237500014,63.21825410208334,52.0,53.0
283,62.37586623750001,63.22912362291668,62.0,53.0
284,62.37586623750001,63.32368845416668,67.0,59.0
285,62.37586623750001,63.44107927916668,71.0,70.0
286,63.41934023750001,63.572600481250014,60.0,50.0
287,63.41934023750001,63.857712266666674,59.0,49.0
288,63.158471737500015,63.90570322291668,55.0,54.0
289,63.68137340416668,63.920212116666676,62.0,63.0
290,63.94922990416668,64.25949701666667,67.0,59.0
291,64.21708640416668,64.43695194791668,72.0,57.0
292,64.48494290416667,65.01793799791668,60.0,64.0
293,64.48494290416667,65.02663361458333,65.0,73.0
294,64.48494290416667,65.03967703958334,69.0,67.0
295,64.48494290416667,65.21141546875,41.0,66.0
296,65.0125032375,65.397284275,53.0,66.0
297,65.2733717375,65.44511016666667,60.0,63.0
298,64.7516347375,65.51141424375001,48.0,62.0
299,65.5342402375,66.00489048958333,60.0,64.0
300,65.5342402375,66.14402035625001,43.0,72.0
301,65.5342402375,66.14510730833334,69.0,69.0
302,65.5342402375,66.16902025416667,65.0,67.0
303,65.7951087375,66.17771587083334,50.0,64.0
304,66.3168457375,66.41793228125,60.0,54.0
305,66.0559772375,66.54945348333334,55.0,63.0
306,66.3168457375,66.5777142375,69.0,63.0
307,66.5777142375,67.04510363333334,64.0,69.0
308,66.5777142375,67.07662524375,67.0,72.0
309,66.5777142375,67.33097203125,48.0,70.0
310,67.0994512375,67.38858049166667,60.0,60.0
311,67.3603197375,67.56031892083334,62.0,58.0
312,66.8385827375,67.68097060208333,55.0,60.0
313,67.62118823750001,67.93966519791667,67.0,76.0
314,67.62118823750001,68.03531698125,62.0,70.0
315,68.14292523750001,68.31357671458333,59.0,66.0
316,67.62118823750001,68.35270698958334,47.0,66.0
317,67.88205673750001,68.37009822291667,55.0,58.0
318,68.40379373750001,68.59618425625,67.0,67.0
319,68.66466223750001,69.12879077708334,64.0,67.0
320,68.66466223750001,69.22661646458334,60.0,70.0
321,68.9255307375,69.56574551458334,52.0,58.0
322,69.4472677375,69.82770096666667,59.0,76.0
323,69.4472677375,69.85596172083333,64.0,76.0
324,69.18639923750001,70.08530861041667,57.0,56.0
325,68.66466223750001,70.30704683541667,45.0,72.0
326,69.9690047375,70.31030769166667,67.0,69.0
327,69.9690047375,70.32335111666667,60.0,80.0
328,70.2298732375,70.62443684375,52.0,59.0
329,70.4907417375,70.66356711875001,59.0,48.0
330,70.7516102375,71.19073887916667,67.0,75.0
331,70.7516102375,71.19291278333334,60.0,69.0
332,71.2733472375,71.60378067083334,55.0,60.0
333,71.5342157375,71.82334499166667,59.0,63.0
334,71.5342157375,71.8733447875,64.0,75.0
335,71.7950842375,72.09322664583334,67.0,64.0
336,72.05672232083333,72.18946532083334,69.0,62.0
337,71.0124787375,72.3963231625,52.0,64.0
338,72.32220832083334,72.51357947916667,55.0,59.0
339,72.32220832083334,72.54787142083333,71.0,66.0
340,70.7516102375,72.84211840416667,43.0,64.0
341,72.58769432083334,72.9073837125,72.0,59.0
342,72.85318032083333,73.18061305416667,65.0,69.0
343,72.85318032083333,73.1894625875,69.0,64.0
344,73.38415232083334,73.73151665416667,53.0,64.0
345,73.65043565416667,74.06710190416666,57.0,49.0
346,73.65043565416667,74.17858827916668,65.0,75.0
347,73.65043565416667,74.21800265416667,60.0,54.0
348,74.19097565416666,74.48264202916667,53.0,56.0
349,74.46124565416667,74.70336252916667,57.0,63.0
350,72.85318032083333,74.70448865416667,41.0,63.0
351,74.46124565416667,74.80921827916667,65.0,75.0
352,74.46124565416667,74.82611015416667,60.0,72.0
353,74.73151565416667,74.89029927916667,53.0,52.0
354,73.11866632083333,75.26192052916667,48.0,63.0
355,75.00178565416667,75.55809140416667,57.0,59.0
356,75.00178565416667,75.65944265416667,65.0,70.0
357,75.00178565416667,75.84255034791667,60.0,70.0
358,76.0718972375,76.26754861250001,57.0,88.0
359,76.3327657375,76.378417725,57.0,38.0
360,75.8110287375,76.39363505416667,53.0,88.0
361,76.3327657375,76.50450416666666,60.0,82.0
362,75.27205565416666,76.74037276875,41.0,56.0
363,75.54232565416667,76.74689448125,48.0,67.0
364,76.5936342375,76.77515523541666,62.0,82.0
365,76.8545027375,77.04580630416667,64.0,57.0
366,77.1153712375,77.5131957,57.0,69.0
367,77.1153712375,77.5131957,65.0,66.0
368,77.1153712375,77.60341272291667,60.0,72.0
369,77.8979767375,78.047976125,57.0,93.0
370,77.3762397375,78.29036643958334,50.0,62.0
371,78.1588452375,78.41645288125,60.0,53.0
372,78.4197137375,78.517539425,62.0,73.0
373,78.6805822375,78.78927744583333,69.0,53.0
374,77.1153712375,78.80014696666667,43.0,72.0
375,78.6805822375,78.80014696666667,67.0,69.0
376,77.6371082375,78.90558131875,55.0,82.0
377,78.6805822375,79.08818926875,50.0,49.0
378,78.9414507375,79.26318855416667,72.0,61.0
379,79.2023192375,79.39253585208334,79.0,69.0
380,79.46318773750001,79.75449089583334,67.0,52.0
381,79.72405623750001,80.04211009583334,77.0,72.0
382,79.98569432083333,80.34410042083333,67.0,56.0
383,80.25118032083334,80.5078167875,76.0,80.0
384,80.25118032083334,80.6140111875,55.0,51.0
385,80.51666632083334,80.75892229583333,67.0,50.0
386,79.2023192375,80.83082475416667,43.0,62.0
387,79.46318773750001,80.86401050416667,50.0,61.0
388,80.78215232083333,80.94697487916667,74.0,91.0
389,80.78215232083333,81.13281507916666,55.0,44.0
390,81.04763832083333,81.31644289583333,67.0,59.0
391,81.31312432083334,81.31644289583333,67.0,55.0
392,81.18038132083333,81.32529242916667,64.0,43.0
393,81.31312432083334,81.60184034583334,72.0,82.0
394,81.31312432083334,81.65161897083334,48.0,75.0
395,81.57861032083333,81.7887867375,64.0,63.0
396,81.57861032083333,81.8186539125,55.0,64.0
397,81.84409632083333,82.06201607916667,71.0,70.0
398,81.84409632083333,82.15337777291666,60.0,47.0
399,82.10881273749999,82.36533342916667,72.0,62.0
400,82.10881273749999,82.60881069583333,62.0,52.0
401,82.36968123749999,82.74141885,67.0,62.0
402,82.36968123749999,82.95011364999999,64.0,69.0
403,82.89141823749999,83.00663515833332,62.0,76.0
404,82.89141823749999,83.08163485208333,69.0,63.0
405,83.15228673749999,83.49358969166666,72.0,66.0
406,83.41315523749999,83.78271894583332,71.0,67.0
407,83.41315523749999,83.82293617291666,62.0,60.0
408,84.1957607375,84.53923759583333,62.0,76.0
409,84.4566292375,84.64575889999999,67.0,62.0
410,83.6740237375,84.70771516875,55.0,59.0
411,84.7174977375,84.88271445416666,69.0,78.0
412,83.9348922375,84.97510538124999,59.0,62.0
413,83.41315523749999,85.0957570625,47.0,69.0
414,84.9783662375,85.10988743958333,55.0,69.0
415,84.9783662375,85.24332289583333,71.0,85.0
416,85.24000432083332,85.44796835416666,74.0,67.0
417,85.50549032083333,85.90150693749999,72.0,75.0
418,85.50549032083333,85.91146266249999,69.0,75.0
419,85.50549032083333,86.23225824583332,41.0,70.0
420,86.03646232083332,86.31411642916666,53.0,63.0
421,85.77097632083333,86.37606316249999,48.0,61.0
422,86.30194832083332,87.09619393749999,57.0,40.0
423,86.56743432083333,87.13712302916666,43.0,69.0
424,86.56743432083333,87.1426539875,60.0,70.0
425,86.56743432083333,87.18690165416666,65.0,73.0
426,86.83292032083332,87.19132642083332,50.0,61.0
427,87.09840632083332,87.35836136249999,55.0,59.0
428,87.36389232083333,87.56632539583333,60.0,67.0
429,87.49663532083332,87.67251979583332,62.0,57.0
430,87.62937832083333,87.99552776249999,64.0,72.0
431,88.42469190416666,88.61003587916666,62.0,64.0
432,88.42469190416666,88.61326862291666,67.0,91.0
433,88.68331140416666,88.96132736666667,64.0,63.0
434,88.16035032083333,88.97856866666666,60.0,62.0
435,88.94193090416667,89.24796397916667,69.0,61.0
436,89.20055040416666,89.32662741041666,60.0,67.0
437,89.20055040416666,89.33309289791666,72.0,75.0
438,87.89486432083332,89.37188582291667,55.0,60.0
439,87.62937832083333,89.39451502916667,48.0,69.0
440,89.45916990416666,89.61218644166667,72.0,61.0
441,89.71778940416667,90.01129687708332,64.0,69.0
442,89.71778940416667,90.07112576041666,45.0,72.0
443,89.71778940416667,90.13202301666666,72.0,76.0
444,89.97604057083332,90.19078352708333,52.0,55.0
445,90.10424532083333,90.23245007083332,64.0,52.0
446,90.10424532083333,90.49680027916665,71.0,72.0
447,90.23245007083332,90.58689027916665,57.0,48.0
448,90.49116965416665,90.81774590416666,72.0,76.0
449,90.49116965416665,90.82337652916665,64.0,67.0
450,90.76143965416665,91.10490777916665,60.0,63.0
451,90.49116965416665,91.15783565416665,59.0,69.0
452,91.03170965416665,91.21414190416665,64.0,70.0
453,91.30197965416666,91.53959202916666,69.0,91.0
454,91.57224965416665,91.78733952916666,72.0,67.0
455,91.84251965416665,92.12179865416665,62.0,70.0
456,91.84251965416665,92.40445602916665,67.0,61.0
457,91.84251965416665,92.41459115416666,71.0,66.0
458,92.38305965416666,93.21045610833332,64.0,64.0
459,92.65176273749998,93.29849922708333,67.0,78.0
460,93.17349973749998,93.45610727916666,76.0,80.0
461,93.43436823749998,93.53219392499999,64.0,60.0
462,92.11278965416665,93.57784591249998,59.0,58.0
463,91.84251965416665,93.61045447499998,52.0,70.0
464,93.43436823749998,93.65936731874999,74.0,75.0
465,93.69523673749998,93.92458362708332,72.0,73.0
466,93.95610523749998,94.13653928333332,60.0,69.0
467,94.21697373749998,94.39740778333332,72.0,19.0
468,93.95610523749998,94.49523347083331,69.0,66.0
469,93.95610523749998,94.51479860833332,65.0,73.0
470,94.73796757083332,95.09587249791666,64.0,76.0
471,94.21697373749998,95.22407724791665,57.0,54.0
472,94.99437707083332,95.22728236666666,65.0,64.0
473,94.47784223749998,95.39288016875,62.0,61.0
474,93.95610523749998,95.57877705624999,50.0,64.0
475,95.25078657083333,95.77240566458333,69.0,78.0
476,95.50719607083333,95.86780025833333,57.0,50.0
477,95.76473023749999,96.0278877375,62.0,55.0
478,96.0278877375,96.45880814374999,43.0,73.0
479,96.29104523749999,96.54323784166667,50.0,51.0
480,96.0278877375,96.60902721666666,60.0,67.0
481,96.55420273749999,96.87218471666667,55.0,46.0
482,96.0278877375,96.94455302916666,65.0,75.0
483,96.0278877375,96.97306175833333,69.0,70.0
484,97.08051773749999,97.52021006041666,59.0,73.0
485,96.8173602375,97.54104336249999,57.0,59.0
486,97.3436752375,97.60135028958332,62.0,76.0
487,97.6068327375,97.67591158124999,62.0,40.0
488,97.6068327375,97.90507790416666,64.0,88.0
489,97.86999023749999,98.09915656041666,65.0,80.0
490,98.1331477375,98.48292791458333,64.0,82.0
491,98.1331477375,98.51143664374999,48.0,75.0
492,98.1331477375,98.54652431041666,67.0,72.0
493,98.39630523749999,98.65178731041667,55.0,53.0
494,98.6594627375,98.97854120625,60.0,50.0
495,98.9226202375,99.02678674791666,67.0,63.0
496,98.9226202375,99.05310249791665,79.0,75.0
497,98.9226202375,99.05639196666667,72.0,63.0
498,99.18577773749999,99.3305143625,79.0,75.0
499,99.18577773749999,99.33380383125,67.0,70.0
500,99.18577773749999,99.34476872708333,72.0,69.0
501,98.9226202375,99.43797034166666,62.0,63.0
502,99.4489352375,99.69345241458333,69.0,64.0
503,99.18577773749999,99.73950497708333,64.0,66.0
504,99.4489352375,99.75704881041666,72.0,67.0
505,99.4489352375,99.76801370624999,77.0,80.0
506,99.7120927375,99.83818903958333,62.0,67.0
507,99.84367148749999,100.07283781041666,67.0,73.0
508,99.84367148749999,100.19016219583332,76.0,67.0
509,100.2384077375,100.60573174791666,74.0,88.0
510,100.2384077375,100.63643345624999,67.0,66.0
511,101.0278802375,101.36888849791666,62.0,85.0
512,101.29103773749999,101.49059884166667,67.0,69.0
513,100.7647227375,101.62546706041667,59.0,63.0
514,101.5541952375,101.74169495625,69.0,88.0
515,100.2384077375,101.77897560208332,47.0,76.0
516,100.50156523749999,101.81625624791666,55.0,58.0
517,101.81735273749999,102.12327333124999,71.0,72.0
518,102.0805102375,102.17590483125,74.0,55.0
519,102.3436677375,102.9489299875,65.0,69.0
520,102.3436677375,102.95989488333333,60.0,76.0
521,102.3436677375,103.00046499791667,41.0,73.0
522,102.3436677375,103.08818416458332,69.0,72.0
523,102.8699827375,103.12875427916666,53.0,57.0
524,102.60682523749999,103.16274545625,48.0,64.0
525,103.13314023749999,103.43686785208332,72.0,70.0
526,103.39629773749999,103.69015694583332,62.0,67.0
527,103.39629773749999,103.78226207083333,67.0,66.0
528,103.39629773749999,103.88423560208332,43.0,75.0
529,103.6594552375,103.92261273749999,50.0,48.0
530,103.39629773749999,104.03226169583333,71.0,67.0
531,103.92261273749999,104.04432308125,64.0,66.0
532,103.92261273749999,104.05419148749999,72.0,78.0
533,103.92261273749999,104.27458589375,55.0,55.0
534,104.1857702375,104.29432270625,57.0,59.0
535,104.1857702375,104.31844547708333,74.0,73.0
536,104.4489277375,104.78335706041666,48.0,72.0
537,104.71208523749999,104.93028666458332,55.0,61.0
538,104.4489277375,104.97743571666666,67.0,64.0
539,104.4489277375,105.02677774791667,76.0,78.0
540,104.9752427375,105.27458439374999,60.0,46.0
541,105.23840023749999,105.3568211125,76.0,43.0
542,105.23840023749999,105.402873675,84.0,69.0
543,105.23840023749999,105.60133828958332,62.0,61.0
544,105.5015577375,105.79980290416665,74.0,80.0
545,105.5015577375,105.88094313333333,83.0,54.0
546,105.5015577375,106.05528497708333,64.0,57.0
547,105.8962939875,106.11449541458333,74.0,58.0
548,105.8962939875,106.1331357375,84.0,73.0
549,105.8962939875,106.22524086249999,62.0,57.0
550,106.1594514875,106.24717065416667,60.0,62.0
551,106.2910302375,106.53445092499999,83.0,69.0
552,106.5541877375,106.90396791458333,45.0,76.0
553,106.81734523749999,107.02019581041667,52.0,48.0
554,106.5541877375,107.2318183,84.0,72.0
555,106.5541877375,107.37011298541665,76.0,69.0
556,107.0805027375,107.39689863541666,57.0,52.0
557,107.88015640416666,107.96274549166667,67.0,39.0
558,107.88015640416666,107.97279011041665,65.0,40.0
559,107.34444340416665,108.13350401041666,59.0,59.0
560,107.61229990416666,108.14354862916666,60.0,69.0
561,108.14801290416666,108.26408405416666,72.0,59.0
562,108.14801290416666,108.27524474166665,74.0,46.0
563,108.41586940416666,108.51073524791666,76.0,59.0
564,108.68372590416666,109.02970721666667,62.0,57.0
565,108.68372590416666,109.04198397291665,71.0,55.0
566,108.68372590416666,109.05314466041666,67.0,66.0
567,109.21943890416667,109.44813510208333,62.0,69.0
568,108.95158240416666,109.68826632083334,59.0,57.0
569,109.4865122375,109.8023012375,62.0,56.0
570,109.4865122375,109.98541499791666,71.0,78.0
571,109.4865122375,110.01173074791666,67.0,80.0
572,108.68372590416666,110.29791452916666,52.0,67.0
573,110.2759847375,110.3220373,72.0,59.0
574,110.0128272375,110.32751974791667,59.0,64.0
575,110.2759847375,110.45032658125,64.0,64.0
576,110.2759847375,110.51282648749999,67.0,76.0
577,110.5391422375,110.76611558124999,72.0,66.0
578,110.8022997375,111.0917729875,72.0,45.0
579,110.8022997375,111.13343959166666,69.0,76.0
580,110.8022997375,111.13453608125,62.0,66.0
581,110.8022997375,111.18497460208333,65.0,78.0
582,111.3286147375,111.62685990416666,64.0,66.0
583,111.5917722375,111.92729805,69.0,78.0
584,111.5917722375,111.96457869583332,65.0,76.0
585,111.0654572375,112.15207841458333,57.0,58.0
586,111.8549297375,112.19593799791666,62.0,60.0
587,110.8022997375,112.35163951875,50.0,69.0
588,112.11808723749999,112.46128847708333,64.0,75.0
589,112.3812447375,112.66852500833333,65.0,63.0
590,112.6444022375,112.72663895625,69.0,50.0
591,112.6444022375,112.77598098749999,72.0,49.0
592,112.9075597375,113.33409418541666,43.0,72.0
593,113.1707172375,113.41962037291667,50.0,59.0
594,112.9075597375,113.51062900833332,60.0,76.0
595,112.9075597375,113.53584826875,65.0,66.0
596,113.43387473749999,113.76940055,55.0,48.0
597,112.9075597375,113.77159352916667,69.0,62.0
598,112.9075597375,114.01611070625,72.0,44.0
599,113.6970322375,114.45141707083333,57.0,48.0
600,113.9601897375,114.45689951874999,59.0,69.0
601,114.2233472375,114.56764496666666,65.0,85.0
602,114.4865047375,114.67400445625,67.0,62.0
603,114.7496622375,114.94374089375,69.0,62.0
604,115.0128197375,115.11040731041666,67.0,46.0
605,115.0128197375,115.4272928,48.0,66.0
606,115.2759772375,115.545713675,55.0,59.0
607,115.53913473749999,115.89330087291667,60.0,49.0
608,115.0128197375,116.14330049791667,72.0,72.0
609,115.8022922375,116.3680808625,62.0,61.0
610,116.0654497375,116.37904575833333,64.0,67.0
611,116.3286072375,116.53036132083334,67.0,70.0
612,116.5917647375,116.77707147708333,72.0,60.0
613,116.8549222375,117.04790440416667,74.0,43.0
614,117.1180797375,117.96347320625,72.0,55.0
615,117.1180797375,118.24307805,64.0,43.0
616,117.1180797375,118.31434987291667,67.0,50.0
617,117.1180797375,118.36369190416667,79.0,52.0
618,118.4338672375,118.74636676875,64.0,28.0
619,117.1180797375,118.77268251875,60.0,39.0
620,117.1180797375,118.79022635208334,55.0,41.0
621,118.6970247375,118.98869096666667,74.0,62.0
622,118.96018223749999,119.16193632083333,76.0,53.0
623,119.2233397375,119.71127760208333,69.0,48.0
624,119.2233397375,119.74636526875,72.0,67.0
625,119.2233397375,120.1114963,77.0,66.0
626,120.0128122375,120.15316290416666,67.0,61.0
627,120.0128122375,120.42947827916666,76.0,57.0
628,119.7496547375,120.48978520625,65.0,45.0
629,119.4864972375,120.53145181041667,60.0,52.0
630,119.2233397375,120.56982894583334,53.0,69.0
631,120.5391272375,120.64110076875,72.0,62.0
632,121.3285997375,121.81215164375,55.0,43.0
633,121.3285997375,121.97223912291666,69.0,50.0
634,121.3285997375,121.98758997708333,65.0,52.0
635,121.3285997375,122.02706360208333,60.0,52.0
636,121.3285997375,122.10601085208333,72.0,37.0
637,122.3812297375,122.76938705,55.0,62.0
638,121.3285997375,122.79131684166667,43.0,51.0
639,122.6443872375,122.82750099791667,65.0,82.0
640,122.9075447375,123.12903563333333,67.0,82.0
641,123.1707022375,123.4338597375,72.0,82.0
642,123.4338597375,123.76171012291667,79.0,64.0
643,123.6970172375,123.98429750833333,67.0,42.0
644,123.9601747375,124.22552521666667,79.0,56.0
645,124.2233322375,124.48868271666666,67.0,47.0
646,124.4864897375,124.74855074791667,79.0,52.0
647,124.7496472375,125.10162039375,67.0,49.0
648,123.4338597375,125.12683965416667,55.0,43.0
649,123.4338597375,125.13890103958333,64.0,42.0
650,123.4338597375,125.17837466458333,60.0,46.0
651,125.0128047375,125.24526052916667,77.0,62.0
652,125.2759622375,125.5851723,67.0,46.0
653,125.5391197375,125.74197031041666,76.0,62.0
654,125.8022772375,126.11039081041667,67.0,44.0
655,126.0654347375,126.32420627916667,76.0,50.0
656,125.5391197375,126.40315352916667,64.0,48.0
657,126.3285922375,126.63341634166667,67.0,41.0
658,126.5917497375,126.79021435208332,74.0,51.0
659,125.5391197375,127.12354718541667,55.0,48.0
660,126.5917497375,127.12683665416667,64.0,39.0
661,126.8549072375,127.14218750833334,67.0,57.0
662,125.5391197375,127.14657346666667,60.0,54.0
663,127.2496434875,127.37683627916667,72.0,25.0
664,127.3812222375,127.67727442500001,67.0,55.0
665,127.6443797375,127.87135308124999,71.0,61.0
666,127.9075372375,128.21236134166668,67.0,53.0
667,128.1706947375,128.39657159166666,72.0,47.0
668,128.4338522375,128.6838518625,67.0,48.0
669,128.6970097375,128.94262340416668,72.0,56.0
670,127.6443797375,129.1970089875,57.0,42.0
671,127.6443797375,129.203587925,64.0,49.0
672,127.6443797375,129.21784228958333,60.0,58.0
673,128.9601672375,129.21784228958333,67.0,58.0
674,129.2233247375,129.42507882083333,71.0,58.0
675,129.4864822375,129.8483238,67.0,55.0
676,129.7496397375,129.9864814875,72.0,67.0
677,130.0127972375,130.25950739375,52.0,47.0
678,129.7496397375,130.27047228958332,45.0,60.0
679,130.0127972375,130.27705122708335,64.0,49.0
680,130.2759547375,130.59941916458334,72.0,70.0
681,130.2759547375,130.62134895625,57.0,34.0
682,130.5391122375,130.77376100833334,64.0,52.0
683,130.5391122375,130.97112913333333,59.0,45.0
684,130.8022697375,130.97880456041668,60.0,63.0
685,130.8022697375,131.01060275833333,71.0,60.0
686,131.0654272375,131.31761984166667,64.0,50.0
687,131.3285847375,131.53801424791666,67.0,43.0
688,131.5917422375,131.87682952916666,64.0,50.0
689,131.8548997375,132.10709234166666,72.0,62.0
690,131.8548997375,132.29897801875,41.0,52.0
691,132.1180572375,132.36696037291665,48.0,54.0
692,132.1180572375,132.39327612291666,60.0,46.0
693,132.3812147375,132.6443722375,72.0,73.0
694,132.3812147375,132.71345108125,53.0,48.0
695,132.6443722375,132.861477175,60.0,56.0
696,132.9075297375,133.19261702916666,72.0,70.0
697,132.9075297375,133.282529175,57.0,55.0
698,132.6443722375,133.31761684166668,55.0,62.0
699,133.1706872375,133.38230972708334,60.0,48.0
700,133.4338447375,133.60599360208334,71.0,56.0
701,133.6970022375,133.92726505,60.0,42.0
702,133.9601597375,134.12682615416668,72.0,73.0
703,133.9601597375,134.35928194583335,41.0,54.0
704,134.2233172375,134.42178185208334,62.0,36.0
705,134.2233172375,134.45906249791668,48.0,48.0
706,134.4864747375,134.72112350833333,72.0,67.0
707,134.4864747375,134.78362341458333,53.0,48.0
708,134.7496322375,135.05335985208333,64.0,63.0
709,135.0127897375,135.27046478958334,57.0,49.0
710,134.7496322375,135.28691213333335,55.0,72.0
711,135.0127897375,135.29897351875,72.0,70.0
712,135.2759472375,135.45686801875001,64.0,60.0
713,135.5391047375,135.8943673625,72.0,63.0
714,135.8022622375,136.01169174791667,64.0,49.0
715,136.0654197375,136.2891036125,71.0,66.0
716,136.0654197375,136.45905949791666,43.0,61.0
717,136.32857723749999,136.55884005000001,50.0,55.0
718,136.32857723749999,136.56651547708333,62.0,47.0
719,136.5917347375,136.85160276875,71.0,57.0
720,136.5917347375,136.92945352916666,55.0,42.0
721,136.8548922375,137.16848825833333,62.0,49.0
722,137.1180497375,137.31761084166666,69.0,50.0
723,137.1180497375,137.35708446666666,59.0,59.0
724,136.8548922375,137.39217213333333,57.0,54.0
725,137.3812072375,137.59940866458334,62.0,51.0
726,137.6443647375,137.84940828958332,69.0,49.0
727,137.9075222375,138.1575218625,62.0,48.0
728,138.1706797375,138.33734615416665,71.0,44.0
729,138.1706797375,138.53032832083335,43.0,56.0
730,138.4338372375,138.66629302916667,50.0,55.0
731,138.4338372375,138.67835441458334,62.0,51.0
732,138.6969947375,138.89874882083333,67.0,67.0
733,138.6969947375,139.019362675,55.0,48.0
734,138.9601522375,139.29458156041667,62.0,61.0
735,139.2233097375,139.44151116458335,69.0,76.0
736,139.2233097375,139.48317776875,59.0,67.0
737,138.9601522375,139.53361628958334,57.0,61.0
738,139.4864672375,139.72879143541667,62.0,59.0
739,139.7496247375,139.94260690416667,71.0,51.0
740,140.0127822375,140.27155377916665,62.0,49.0
741,140.2759397375,140.54786915416668,72.0,69.0
742,140.2759397375,140.6706759875,48.0,49.0
743,140.53909723750002,140.77374600833332,67.0,52.0
744,140.53909723750002,140.77813196666668,55.0,51.0
745,140.8022547375,140.99523690416666,74.0,66.0
746,140.8022547375,141.13887703958335,60.0,55.0
747,141.0654122375,141.37023634166667,67.0,56.0
748,141.3285697375,141.50949051875,76.0,64.0
749,141.3285697375,141.51058700833335,64.0,64.0
750,141.0654122375,141.52045541458332,62.0,57.0
751,141.5917272375,141.79348132083334,67.0,52.0
752,141.85488473750002,142.019358175,74.0,61.0
753,142.1180422375,142.41190144583334,67.0,44.0
754,142.3811997375,142.8811989875,48.0,54.0
755,142.6443572375,142.93163750833332,55.0,49.0
756,142.6443572375,142.93163750833332,67.0,54.0
757,142.9075147375,143.12352318541667,74.0,76.0
758,142.9075147375,143.25510193541666,59.0,61.0
759,143.1706722375,143.51716294583332,67.0,60.0
760,143.4338297375,143.67286446666668,76.0,63.0
761,143.4338297375,143.756197675,64.0,70.0
762,143.1706722375,143.80773268541668,60.0,66.0
763,143.6969872375,143.97220612291667,67.0,56.0
764,143.9601447375,144.19260052916667,74.0,72.0
765,144.2233022375,144.46124047708332,67.0,46.0
766,144.4864597375,144.69588924791668,72.0,48.0
767,144.4864597375,144.93273099791668,45.0,59.0
768,144.7496172375,145.0061958,52.0,46.0
769,144.7496172375,145.00729228958335,67.0,46.0
770,145.0127747375,145.2233007375,74.0,63.0
771,145.0127747375,145.31759884166667,57.0,48.0
772,145.2759322375,145.55882655,67.0,47.0
773,145.5390897375,145.7956683,76.0,61.0
774,145.5390897375,145.88338746666668,60.0,63.0
775,145.2759322375,145.91518566458333,59.0,62.0
776,145.8022472375,146.02812409166665,67.0,57.0
777,146.0654047375,146.32527276875,76.0,69.0
778,146.3285622375,146.63557932083333,67.0,56.0
779,146.5917197375,146.80772818541666,74.0,57.0
780,146.5917197375,146.92066661249999,45.0,51.0
781,146.8548772375,147.06101727916666,52.0,53.0
782,146.8548772375,147.10268388333333,67.0,47.0
783,147.1180347375,147.39215713333334,74.0,97.0
784,147.1180347375,147.440402675,57.0,48.0
785,147.3811922375,147.70904262291668,67.0,55.0
786,147.6443497375,147.89763883125,72.0,73.0
787,147.6443497375,148.098296425,60.0,62.0
788,147.3811922375,148.14105951875,59.0,63.0
789,147.9075072375,148.20465591458333,67.0,57.0
790,148.1706647375,148.38886616458333,71.0,50.0
791,148.4338222375,148.76167262291668,67.0,59.0
792,148.6969797375,149.01057575833335,72.0,75.0
793,148.6969797375,149.12680365416668,41.0,61.0
794,148.9601372375,149.20794388333334,48.0,61.0
795,148.9601372375,149.27263676875,60.0,54.0
796,149.2232947375,149.5522416125,72.0,70.0
797,149.2232947375,149.55662757083334,53.0,50.0
798,149.4864522375,149.73864484166666,60.0,64.0
799,149.4864522375,149.88557444583333,55.0,61.0
800,149.7496097375,150.13009162291667,72.0,78.0
801,150.0127672375,150.22877568541668,60.0,66.0
802,149.7496097375,150.32417027916665,57.0,54.0
803,150.2759247375,150.36693337291666,55.0,66.0
804,150.2759247375,150.47548584166668,67.0,72.0
805,150.5390822375,150.85596772708334,60.0,57.0
806,150.8022397375,151.2167128,41.0,66.0
807,151.0653972375,151.26495834166667,60.0,58.0
808,151.0653972375,151.30333547708335,48.0,56.0
809,151.32855473749999,151.52372988333335,65.0,62.0
810,150.8022397375,151.58951925833333,72.0,63.0
811,151.32855473749999,151.63995777916668,53.0,48.0
812,151.59171223750002,151.90750123750001,60.0,52.0
813,152.1180272375,152.26495684166667,57.0,39.0
814,151.59171223750002,152.26714982083334,55.0,55.0
815,152.1180272375,152.49412316458333,60.0,56.0
816,152.3811847375,152.56649147708333,65.0,46.0
817,152.64434223749998,152.99850837291666,72.0,63.0
818,152.90749973750002,153.150920425,71.0,57.0
819,152.90749973750002,153.25399044583332,43.0,63.0
820,153.1706572375,153.41188494583332,50.0,64.0
821,153.1706572375,153.41627090416665,67.0,66.0
822,153.4338147375,153.74631426875,62.0,54.0
823,153.4338147375,153.75398969583333,55.0,51.0
824,153.6969722375,153.97219112291668,67.0,66.0
825,153.6969722375,153.99631389375,57.0,66.0
826,153.9601297375,154.18052414375,71.0,70.0
827,153.9601297375,154.19477850833334,59.0,60.0
828,154.22328723750002,154.59609369583333,62.0,49.0
829,154.4864447375,155.04675091458333,67.0,63.0
830,154.7496022375,155.11582975833335,72.0,69.0
831,155.0127597375,155.50727653958333,71.0,69.0
832,155.0127597375,155.55332910208335,62.0,54.0
833,155.8022322375,156.16955624791666,62.0,49.0
834,156.0653897375,156.26495084166666,67.0,66.0
835,155.53907473750002,156.28030169583334,55.0,54.0
836,156.3285472375,156.50617855000002,69.0,63.0
837,155.0127597375,156.70683614375,43.0,67.0
838,156.85486223750001,156.97328311249998,74.0,62.0
839,156.5917047375,156.98534449791669,55.0,54.0
840,155.2759172375,157.06758121666667,50.0,67.0
841,156.5917047375,157.10376537291665,71.0,57.0
842,157.1180197375,157.25179146666667,67.0,56.0
843,157.1180197375,157.4864402375,64.0,59.0
844,157.1180197375,157.5324928,45.0,66.0
845,157.1180197375,157.60705409166667,72.0,72.0
846,157.3811772375,157.6311768625,52.0,57.0
847,157.6443347375,157.88665893541668,71.0,47.0
848,157.6443347375,157.97437810208334,57.0,49.0
849,157.6443347375,158.19038655,64.0,56.0
850,157.9074922375,158.23753560208334,72.0,72.0
851,158.1706497375,158.59499120625,60.0,66.0
852,157.9074922375,158.63336834166665,59.0,66.0
853,158.4338072375,158.80003475833334,64.0,55.0
854,158.6969647375,158.89542935208334,71.0,54.0
855,158.9601222375,159.18819207083334,72.0,60.0
856,159.2232797375,159.63336684166666,40.0,66.0
857,159.4864372375,159.69367376875,47.0,55.0
858,159.7495947375,160.07305916458333,52.0,53.0
859,159.2232797375,160.08402406041665,62.0,53.0
860,159.2232797375,160.17941865416668,67.0,59.0
861,159.2232797375,160.29783952916665,71.0,70.0
862,160.2759097375,160.43051476875002,60.0,50.0
863,160.2759097375,160.71231259166666,59.0,49.0
864,160.0127522375,160.75946164375,55.0,54.0
865,160.5390672375,160.77371600833334,62.0,63.0
866,160.8022247375,161.10704884166665,67.0,59.0
867,161.0653822375,161.28139068541668,72.0,57.0
868,161.3285397375,161.86033718541665,60.0,64.0
869,161.3285397375,161.86910910208334,65.0,73.0
870,161.3285397375,161.88226697708333,69.0,67.0
871,161.3285397375,162.05551233125,41.0,66.0
872,161.8548547375,162.24301205,53.0,66.0
873,162.1180122375,162.29125759166666,60.0,63.0
874,161.5916972375,162.35814345625,48.0,62.0
875,162.3811697375,162.85594972708333,60.0,64.0
876,162.3811697375,162.99630039375,43.0,72.0
877,162.3811697375,162.99739688333335,69.0,69.0
878,162.3811697375,163.02151965416667,65.0,67.0
879,162.6443272375,163.03029157083333,50.0,64.0
880,163.1706422375,163.27261576875,60.0,54.0
881,162.9074847375,163.40529100833334,55.0,63.0
882,163.1706422375,163.4337997375,69.0,63.0
883,163.4337997375,163.90529025833334,64.0,69.0
884,163.4337997375,163.93708845625,67.0,72.0
885,163.4337997375,164.19366701875,48.0,70.0
886,163.9601147375,164.25178096666667,60.0,60.0
887,164.2232722375,164.42502632083335,62.0,58.0
888,163.6969572375,164.54673666458334,55.0,60.0
889,164.4864297375,164.80770118541668,67.0,76.0
890,164.4864297375,164.90419226875,62.0,70.0
891,165.0127447375,165.18489360208332,59.0,66.0
892,164.4864297375,165.22436722708335,47.0,66.0
893,164.7495872375,165.24191106041667,55.0,58.0
894,165.27590223750002,165.46998089375,67.0,67.0
895,165.5390597375,166.00726078958334,64.0,67.0
896,165.5390597375,166.10594485208333,60.0,70.0
897,165.8022172375,166.44804960208333,52.0,58.0
898,166.3285322375,166.71230359166668,59.0,76.0
899,166.3285322375,166.74081232083333,64.0,76.0
900,166.0653747375,166.97359782916666,57.0,56.0
901,165.5390597375,167.19926092916666,45.0,72.0
902,166.85523532083334,167.20257950416666,67.0,69.0
903,166.85523532083334,167.21585380416667,60.0,80.0
904,167.12072132083333,167.52226889583332,52.0,59.0
905,167.38620732083334,167.56209179583334,59.0,48.0
906,167.65169332083335,168.09859475416667,67.0,75.0
907,167.65169332083335,168.1008071375,60.0,69.0
908,168.18266532083334,168.51793857083334,55.0,60.0
909,168.4477632375,168.73942946666668,59.0,63.0
910,168.4477632375,168.7898679875,64.0,75.0
911,168.7109207375,169.01026239375,67.0,64.0
912,168.9740782375,169.1056569875,69.0,62.0
913,167.91717932083333,169.31070053958334,52.0,64.0
914,169.23723573750001,169.42692843541667,55.0,59.0
915,169.23723573750001,169.4609196125,71.0,66.0
916,167.65169332083335,169.75258584166667,43.0,64.0
917,169.5003932375,169.81727872708333,72.0,59.0
918,169.7635507375,170.08811165416668,65.0,69.0
919,169.7635507375,170.09688357083334,69.0,64.0
920,170.2898657375,170.62985275416665,53.0,64.0
921,170.55226690416666,170.95097196666666,57.0,49.0
922,170.55226690416666,171.05765251041666,65.0,75.0
923,170.55226690416666,171.09536785416665,60.0,54.0
924,171.06950590416665,171.34859944791665,53.0,56.0
925,171.32812540416666,171.55980537291666,57.0,63.0
926,169.7635507375,171.56088295416666,41.0,63.0
927,171.32812540416666,171.66109801041665,65.0,75.0
928,171.32812540416666,171.67726172916664,60.0,72.0
929,171.58674490416666,171.73868386041664,53.0,52.0
930,170.0267082375,172.09428567291667,48.0,63.0
931,171.84536440416665,172.37768954166665,57.0,59.0
932,171.84536440416665,172.47467185416664,65.0,70.0
933,171.84536440416665,172.65377743541663,60.0,70.0
934,172.88513673749998,173.08250486249997,57.0,88.0
935,173.14829423749998,173.19434679999998,57.0,38.0
936,172.62197923749997,173.20969765416663,53.0,88.0
937,173.14829423749998,173.32153959166664,60.0,82.0
938,172.10398390416665,173.55947783124998,41.0,56.0
939,172.36260340416666,173.56605676874997,48.0,67.0
940,173.4114517375,173.59456549791665,62.0,82.0
941,173.67460923749996,173.86759140416663,64.0,57.0
942,173.93776673749997,174.339081925,57.0,69.0
943,173.93776673749997,174.339081925,65.0,66.0
944,173.93776673749997,174.43009056041663,60.0,72.0
945,174.7272392375,174.8785548,57.0,93.0
946,174.20092423749998,175.1230719770833,50.0,62.0
947,174.99039673749996,175.25026476875,60.0,53.0
948,175.25355423749997,175.35223829999998,62.0,73.0
949,175.51671173749997,175.6263606958333,69.0,53.0
950,173.93776673749997,175.63732559166664,43.0,72.0
951,175.51671173749997,175.63732559166664,67.0,69.0
952,174.46408173749998,175.74368508124996,55.0,82.0
953,175.51671173749997,175.92789533124997,50.0,49.0
954,175.77986923749998,176.10443015416664,72.0,61.0
955,176.04302673749999,176.2349124145833,79.0,69.0
956,176.30618423749996,176.6000434458333,67.0,52.0
957,176.56934173749997,176.88842020624998,77.0,72.0
958,176.83249923749997,177.18776186249997,67.0,56.0
959,177.09565673749998,177.3500423208333,76.0,80.0
960,177.09565673749998,177.4553053208333,55.0,51.0
961,177.35881423749998,177.59894545624996,67.0,50.0
962,176.04302673749999,177.67021727916665,43.0,62.0
963,176.30618423749996,177.70311196666665,50.0,61.0
964,177.62197173749996,177.78534868541664,74.0,91.0
965,177.62197173749996,177.96955893541664,55.0,44.0
966,177.88512923749997,178.15157620624998,67.0,59.0
967,178.14828673749997,178.15157620624998,67.0,55.0
968,178.01670798749998,178.16034812291664,64.0,43.0
969,178.14828673749997,178.43447051874998,72.0,82.0
970,178.14828673749997,178.48381254999998,48.0,75.0
971,178.41144423749998,178.6197772583333,64.0,63.0
972,178.41144423749998,178.64938247708332,55.0,64.0
973,178.67460173749998,178.89061018541665,71.0,70.0
974,178.67460173749998,178.98271531041664,60.0,47.0
975,178.9377592375,179.19653077916664,72.0,62.0
976,178.9377592375,179.44214444583332,62.0,52.0
977,179.20091673749997,179.57591617499997,67.0,62.0
978,179.20091673749997,179.78644217499996,64.0,69.0
979,179.72723173749998,179.8434596333333,62.0,76.0
980,179.72723173749998,179.9191174145833,69.0,63.0
981,179.99038923749998,180.33468696666665,72.0,66.0
982,180.2535467375,180.6263531958333,71.0,67.0
983,180.2535467375,180.66692331041665,62.0,60.0
984,181.04301923749998,181.3895099458333,62.0,76.0
985,181.30617673749998,181.49696592499998,67.0,62.0
986,180.51670423749997,181.55946583124998,55.0,59.0
987,181.5693342375,181.73600065416665,69.0,78.0
988,180.77986173749997,181.82920226874998,59.0,62.0
989,180.2535467375,181.95091261249996,47.0,69.0
990,181.83249173749996,181.9651669770833,55.0,69.0
991,181.83249173749996,182.09893870624998,71.0,85.0
992,182.09564923749997,182.30178927916666,74.0,67.0
993,182.35880673749998,182.7513500083333,72.0,75.0
994,182.35880673749998,182.7612184145833,69.0,75.0
995,182.35880673749998,183.07920039374997,41.0,70.0
996,182.8851217375,183.16034062291664,53.0,63.0
997,182.62196423749998,183.2217440395833,48.0,61.0
998,183.14827923749996,183.93555875833331,57.0,40.0
999,183.41143673749997,183.97612887291663,43.0,69.0
1000,183.41143673749997,183.9816113208333,60.0,70.0
1001,183.41143673749997,184.02547090416664,65.0,73.0
1002,183.67459423749997,184.02985686249997,50.0,61.0
1003,183.93775173749998,184.1954267895833,55.0,59.0
1004,184.20090923749999,184.40156683124997,60.0,67.0
1005,178.14828673749997,184.47503163333332,79.0,97.0
1006,184.33248798749997,184.50682983124997,62.0,57.0
1007,184.4640667375,184.8270047895833,64.0,72.0
1008,184.48599652916664,185.3730566020833,76.0,97.0
1009,185.3730566020833,185.43665299791664,76.0,97.0
1010,185.25353923749998,185.44213544583332,62.0,64.0
1011,185.25353923749998,185.4454249145833,67.0,91.0
1012,185.51669673749998,185.79959104999998,64.0,63.0
1013,184.99038173749997,185.81713488333332,60.0,62.0
1014,185.7798542375,186.09125727916665,69.0,61.0
1015,186.04301173749997,186.17130101874997,60.0,67.0
1016,186.04301173749997,186.17787995624997,72.0,75.0
1017,184.72722423749997,186.21735358124997,55.0,60.0
1018,184.4640667375,186.24037986249996,48.0,69.0
1019,186.06494152916665,186.32590605,74.0,94.0
1020,186.30616923749997,186.4618707583333,72.0,61.0
1021,186.33467796666665,186.4618707583333,72.0,94.0
1022,186.56932673749998,186.61866876874998,72.0,76.0
1023,186.56932673749998,186.86866839374997,64.0,69.0
1024,186.56932673749998,186.93007181041665,45.0,72.0
1025,186.99037873749998,186.99257171666665,72.0,94.0
1026,186.83248423749998,187.05287864374998,52.0,55.0
1027,186.96406298749997,187.0956417375,64.0,52.0
1028,186.56494077916665,187.13401887291664,74.0,94.0
1029,186.96406298749997,187.36428168541664,71.0,72.0
1030,187.0956417375,187.4520008520833,57.0,48.0
1031,187.35879923749997,187.67678121666665,72.0,76.0
1032,187.35879923749997,187.6822636645833,64.0,67.0
1033,187.62195673749997,187.95638606041663,60.0,63.0
1034,187.35879923749997,188.0079210708333,59.0,69.0
1035,187.88511423749998,188.06274555,64.0,70.0
1036,188.14827173749998,188.3796310395833,69.0,91.0
1037,188.4114292375,188.62085874791666,72.0,67.0
1038,188.67458673749996,188.94651615416666,62.0,70.0
1039,188.67458673749996,189.2217350395833,67.0,61.0
1040,188.67458673749996,189.23160344583331,71.0,66.0
1041,189.20090173749998,190.0276548833333,64.0,64.0
1042,189.46405923749998,190.1164705395833,67.0,78.0
1043,189.99037423749996,190.27546152916665,76.0,80.0
1044,190.25353173749997,190.35221579999998,64.0,60.0
1045,188.93774423749997,190.39826836249998,59.0,58.0
1046,188.67458673749996,190.43116304999998,52.0,70.0
1047,190.25353173749997,190.48050508125,74.0,75.0
1048,190.51668923749997,190.7480485395833,72.0,73.0
1049,190.77984673749998,190.96186400833332,60.0,69.0
1050,191.04300423749999,191.2250215083333,72.0,19.0
1051,190.77984673749998,191.3237055708333,69.0,66.0
1052,190.77984673749998,191.3434423833333,65.0,73.0
1053,191.56931923749997,191.93664324791663,64.0,76.0
1054,191.04300423749999,192.06822199791665,57.0,54.0
1055,191.83247673749997,192.07151146666664,65.0,64.0
1056,191.30616173749996,192.2414673520833,62.0,61.0
1057,190.77984673749998,192.4322565395833,50.0,64.0
1058,192.09563423749998,192.6296246645833,69.0,78.0
1059,192.35879173749998,192.7250192583333,57.0,50.0
1060,192.62194923749996,192.88510673749997,62.0,55.0
1061,192.88510673749997,193.31602714374998,43.0,73.0
1062,193.14826423749997,193.40045684166665,50.0,51.0
1063,192.88510673749997,193.46624621666663,60.0,67.0
1064,193.41142173749998,193.72940371666664,55.0,46.0
1065,192.88510673749997,193.80177202916664,65.0,75.0
1066,192.88510673749997,193.83028075833332,69.0,70.0
1067,193.9377367375,194.37742906041666,59.0,73.0
1068,193.67457923749998,194.39826236249996,57.0,59.0
1069,194.20089423749997,194.4585692895833,62.0,76.0
1070,194.46405173749997,194.53313058124996,62.0,40.0
1071,194.46405173749997,194.76229690416665,64.0,88.0
1072,194.72720923749998,194.95637556041663,65.0,80.0
1073,194.99036673749998,195.3401469145833,64.0,82.0
1074,194.99036673749998,195.36865564374997,48.0,75.0
1075,194.99036673749998,195.40374331041664,67.0,72.0
1076,195.2535242375,195.50900631041665,55.0,53.0
1077,195.51668173749997,195.83576020624997,60.0,50.0
1078,195.77983923749997,195.88400574791663,67.0,63.0
1079,194.99584918541666,195.91032149791664,79.0,95.0
1080,195.77983923749997,195.91032149791664,79.0,75.0
1081,195.77983923749997,195.91361096666665,72.0,63.0
1082,196.04299673749998,196.18773336249998,79.0,75.0
1083,196.04299673749998,196.19102283124997,67.0,70.0
1084,196.04299673749998,196.20198772708332,72.0,69.0
1085,195.77983923749997,196.29518934166663,62.0,63.0
1086,196.30615423749998,196.55067141458332,69.0,64.0
1087,196.04299673749998,196.59672397708331,64.0,66.0
1088,196.30615423749998,196.61426781041664,72.0,67.0
1089,196.30615423749998,196.62523270625,77.0,80.0
1090,196.5693117375,196.6954080395833,62.0,67.0
1091,196.70089048749998,196.93005681041666,67.0,73.0
1092,196.70089048749998,197.0473811958333,76.0,67.0
1093,197.09562673749997,197.46295074791664,74.0,88.0
1094,197.09562673749997,197.49365245624998,67.0,66.0
1095,197.8850992375,198.22610749791664,62.0,85.0
1096,198.1482567375,198.34781784166665,67.0,69.0
1097,197.62194173749998,198.48268606041665,59.0,63.0
1098,198.41141423749997,198.59891395625,69.0,88.0
1099,197.09562673749997,198.63619460208332,47.0,76.0
1100,197.35878423749998,198.67347524791666,55.0,58.0
1101,198.67457173749997,198.98049233125,71.0,72.0
1102,198.93772923749998,199.03312383124998,74.0,55.0
1103,199.20088673749999,199.80614898749997,65.0,69.0
1104,199.20088673749999,199.81711388333332,60.0,76.0
1105,199.20088673749999,199.85768399791664,41.0,73.0
1106,199.20088673749999,199.9454031645833,69.0,72.0
1107,199.72720173749997,199.98597327916664,53.0,57.0
1108,199.4640442375,200.01996445624997,48.0,64.0
1109,199.99035923749997,200.2940868520833,72.0,70.0
1110,200.25351673749998,200.54737594583332,62.0,67.0
1111,200.25351673749998,200.6394810708333,67.0,66.0
1112,200.25351673749998,200.7414546020833,43.0,75.0
1113,200.51667423749998,200.7798317375,50.0,48.0
1114,200.25351673749998,200.8894806958333,71.0,67.0
1115,200.7798317375,200.90154208124997,64.0,66.0
1116,200.7798317375,200.91141048749998,72.0,78.0
1117,200.7798317375,201.13180489374997,55.0,55.0
1118,201.04298923749997,201.15154170625,57.0,59.0
1119,201.04298923749997,201.1756644770833,74.0,73.0
1120,201.30614673749997,201.64057606041663,48.0,72.0
1121,201.56930423749998,201.7875056645833,55.0,61.0
1122,201.30614673749997,201.83465471666665,67.0,64.0
1123,201.30614673749997,201.88399674791665,76.0,78.0
1124,201.3368484458333,201.88399674791665,76.0,96.0
1125,201.83246173749998,202.13180339374998,60.0,46.0
1126,202.0956192375,202.2140401125,76.0,43.0
1127,202.0956192375,202.45855728958333,62.0,61.0
1128,202.35877673749997,202.9125039770833,64.0,57.0
1129,202.88399524791663,203.08245986249997,62.0,57.0
1130,203.13838083124998,203.22609999791663,60.0,62.0
1131,203.4114067375,203.7611869145833,45.0,76.0
1132,203.67456423749996,203.87741481041664,52.0,48.0
1133,203.4114067375,204.22609849791664,76.0,69.0
1134,203.93772173749997,204.25241424791665,57.0,52.0
1135,204.7271942375,204.80833446666665,67.0,39.0
1136,204.7271942375,204.81820287291663,65.0,40.0
1137,204.20087923749998,204.97609737291666,59.0,59.0
1138,204.46403673749998,204.98596577916663,60.0,69.0
1139,204.99035173749996,205.10438665416666,72.0,59.0
1140,204.99035173749996,205.11535154999999,74.0,46.0
1141,205.25350923749997,205.3467108520833,76.0,59.0
1142,205.51666673749997,205.8565785083333,62.0,57.0
1143,205.51666673749997,205.86863989375,71.0,55.0
1144,205.51666673749997,205.8796047895833,67.0,66.0
1145,206.04298173749999,206.2677621020833,62.0,69.0
1146,205.77982423749998,206.50789332083332,59.0,57.0
1147,206.30613923749996,206.6219282375,62.0,56.0
1148,206.30613923749996,206.80504199791665,71.0,78.0
1149,206.30613923749996,206.83135774791666,67.0,80.0
1150,205.51666673749997,207.11754152916666,52.0,67.0
1151,207.09561173749998,207.14166429999997,72.0,59.0
1152,206.83245423749997,207.14714674791665,59.0,64.0
1153,207.09561173749998,207.26995358124998,64.0,64.0
1154,207.09561173749998,207.33245348749998,67.0,76.0
1155,207.35876923749998,207.58574258124997,72.0,66.0
1156,207.62192673749996,207.91139998749998,72.0,45.0
1157,207.62192673749996,207.95306659166664,69.0,76.0
1158,207.62192673749996,207.95416308125,62.0,66.0
1159,207.62192673749996,208.0046016020833,65.0,78.0
1160,208.14824173749997,208.44648690416665,64.0,66.0
1161,208.41139923749998,208.74692505,69.0,78.0
1162,208.41139923749998,208.78420569583332,65.0,76.0
1163,207.8850842375,208.9717054145833,57.0,58.0
1164,208.67455673749998,209.01556499791664,62.0,60.0
1165,207.62192673749996,209.17126651874997,50.0,69.0
1166,208.93771423749996,209.2809154770833,64.0,75.0
1167,209.2008717375,209.48815200833332,65.0,63.0
1168,209.46402923749997,209.54626595624998,69.0,50.0
1169,209.46402923749997,209.5956079875,72.0,49.0
1170,209.72718673749998,210.15372118541666,43.0,72.0
1171,209.99034423749998,210.23924737291665,50.0,59.0
1172,209.72718673749998,210.33025600833332,60.0,76.0
1173,209.72718673749998,210.35547526874998,65.0,66.0
1174,210.2535017375,210.5900559708333,55.0,48.0
1175,209.72718673749998,210.59226835416663,69.0,62.0
1176,209.72718673749998,210.8389490958333,72.0,44.0
1177,210.5170473208333,211.27810718749996,57.0,48.0
1178,210.7825333208333,211.2836381458333,59.0,69.0
1179,211.0480193208333,211.39536350416662,65.0,85.0
1180,211.31350532083331,211.5026640958333,67.0,62.0
1181,211.5789913208333,211.7747872458333,69.0,62.0
1182,211.8444773208333,212.3190335458333,67.0,58.0
1183,211.8444773208333,212.3323078458333,72.0,62.0
1184,211.8444773208333,212.4252279458333,77.0,67.0
1185,212.64054723749996,212.87409951874997,76.0,50.0
1186,212.64054723749996,213.03199401874997,67.0,53.0
1187,213.16686223749997,213.62738786249997,60.0,46.0
1188,213.43001973749998,213.71291404999997,65.0,54.0
1189,213.95633473749996,214.6153249770833,60.0,50.0
1190,213.95633473749996,214.6449301958333,64.0,47.0
1191,213.95633473749996,214.66685998749998,72.0,55.0
1192,211.8444773208333,214.6745354145833,48.0,63.0
1193,212.3754493208333,214.7172985083333,55.0,36.0
1194,213.69317723749995,214.76225458124998,67.0,46.0
1195,215.00896473749995,215.31159586249996,62.0,60.0
1196,215.00896473749995,215.3719027895833,71.0,66.0
1197,215.00896473749995,215.37738523749996,43.0,50.0
1198,215.00896473749995,215.39054311249996,67.0,64.0
1199,215.00896473749995,215.47277983124997,55.0,51.0
1200,216.06159473749997,216.65918156041664,65.0,61.0
1201,216.06159473749997,216.68988326874995,72.0,57.0
1202,216.06159473749997,216.7436112583333,77.0,73.0
1203,216.06159473749997,216.7567691333333,69.0,41.0
1204,217.11422473749997,217.30830339374995,76.0,44.0
1205,217.11422473749997,217.58352227916663,67.0,58.0
1206,217.11422473749997,217.58790823749996,55.0,55.0
1207,217.11422473749997,217.6317678208333,74.0,67.0
1208,218.16685473749996,218.71290654999996,74.0,57.0
1209,218.16685473749996,218.74580123749996,60.0,59.0
1210,218.16685473749996,218.7765029458333,79.0,60.0
1211,218.69316973749997,219.09409104999995,67.0,42.0
1212,218.95520257083328,219.29280841249997,84.0,56.0
1213,219.2116120708333,219.48297879166662,83.0,72.0
1214,219.2116120708333,219.51716672499995,74.0,63.0
1215,219.2116120708333,219.65819194999995,59.0,52.0
1216,219.4680215708333,219.6784910354166,67.0,44.0
1217,219.5962263208333,219.8547725666666,79.0,61.0
1218,219.9808405708333,220.18489979791661,81.0,60.0
1219,220.23725007083328,220.52250563958327,76.0,56.0
1220,220.23725007083328,220.52464238541663,84.0,61.0
1221,221.00760323749995,221.2685677583333,71.0,73.0
1222,221.27076073749996,221.40562895624996,72.0,59.0
1223,221.53391823749996,221.82997042499994,76.0,46.0
1224,220.7500690708333,221.87821596666663,69.0,54.0
1225,220.23725007083328,221.98567194583327,57.0,61.0
1226,221.79707573749997,221.99773333124995,81.0,46.0
1227,220.49365957083327,222.0547507895833,64.0,40.0
1228,222.06023323749994,222.26637327916663,84.0,44.0
1229,222.32339073749995,222.67207442499995,83.0,61.0
1230,222.32339073749995,222.7422497583333,74.0,58.0
1231,222.32339073749995,223.00102129999996,64.0,49.0
1232,223.11286323749997,223.32558221666662,67.0,57.0
1233,223.37602073749994,223.59641514374997,69.0,73.0
1234,223.63917823749995,223.89137084166663,71.0,60.0
1235,222.32339073749995,224.00650224791661,55.0,56.0
1236,223.90233573749995,224.13808099791663,72.0,69.0
1237,224.42865073749996,224.6698784458333,62.0,59.0
1238,224.42865073749996,224.73676431041662,65.0,64.0
1239,224.42865073749996,224.91220264374996,69.0,62.0
1240,225.21812323749995,225.53720170624996,64.0,48.0
1241,224.95496573749995,225.65233311249995,62.0,50.0
1242,225.48128073749996,226.0646131958333,69.0,62.0
1243,225.48128073749996,226.08435000833327,65.0,66.0
1244,224.42865073749996,226.10627979999995,50.0,66.0
1245,224.69180823749994,226.13588501874995,57.0,31.0
1246,226.00759573749994,226.14465693541663,62.0,45.0
1247,226.53391073749995,226.70715609166663,60.0,66.0
1248,226.53391073749995,226.78610334166663,65.0,67.0
1249,226.53391073749995,226.8518927166666,69.0,67.0
1250,227.32338323749997,227.7323738520833,69.0,49.0
1251,227.58654073749994,227.91877708124994,77.0,66.0
1252,227.84969823749995,228.11285573749996,76.0,57.0
1253,227.06022573749996,228.18851351874994,65.0,53.0
1254,228.11285573749996,228.29816247708328,72.0,57.0
1255,226.66548948749994,228.3475045083333,53.0,63.0
1256,226.79706823749996,228.3584694041666,60.0,58.0
1257,228.37601323749996,228.8080301333333,69.0,49.0
1258,228.63917073749997,229.01855613333328,72.0,43.0
1259,228.63917073749997,229.3650468416666,77.0,62.0
1260,229.42864323749995,229.46482739374994,77.0,36.0
1261,228.90232823749994,229.50320452916662,60.0,47.0
1262,229.16548573749995,229.71592350833328,65.0,59.0
1263,229.42864323749995,229.7532041541666,69.0,80.0
1264,229.69180073749996,229.82886193541663,72.0,75.0
1265,229.95495823749997,230.08653698749995,60.0,47.0
1266,228.63917073749997,230.12820359166662,53.0,64.0
1267,230.21811573749994,230.42315928958328,65.0,75.0
1268,230.48127323749995,230.65122912291662,67.0,57.0
1269,230.74443073749995,231.21043881041663,60.0,67.0
1270,230.74443073749995,231.2762281854166,69.0,67.0
1271,230.74443073749995,231.29706148749995,65.0,69.0
1272,231.53390323749994,231.70714859166662,60.0,61.0
1273,231.27074573749996,231.84640276874995,55.0,76.0
1274,231.79706073749995,232.08543749791662,60.0,76.0
1275,231.79706073749995,232.09311292499996,69.0,75.0
1276,231.79706073749995,232.10627079999995,65.0,73.0
1277,230.74443073749995,232.26964774791662,43.0,70.0
1278,231.00758823749996,232.27074423749997,50.0,63.0
1279,232.06021823749995,232.40780543541663,55.0,53.0
1280,232.32337573749996,232.56679642499995,60.0,62.0
1281,232.58653323749996,232.78499785208328,67.0,66.0
1282,232.84969073749994,233.26197082083328,72.0,78.0
1283,232.84969073749994,233.26854975833328,64.0,85.0
1284,232.84969073749994,233.27074273749994,48.0,73.0
1285,232.84969073749994,233.34201456041663,67.0,76.0
1286,233.11284823749995,233.36942679999996,55.0,60.0
1287,233.37600573749995,233.7093385708333,60.0,59.0
1288,233.90232073749996,234.07885556041663,64.0,70.0
1289,233.63916323749996,234.10626779999996,62.0,66.0
1290,234.03389948749995,234.21043431041662,67.0,82.0
1291,234.16547823749994,234.38258317499995,72.0,64.0
1292,234.42863573749995,234.5887232166666,76.0,69.0
1293,234.29705698749996,234.5974951333333,74.0,62.0
1294,234.56021448749996,234.79267027916663,77.0,62.0
1295,234.69179323749995,234.95056477916663,76.0,67.0
1296,234.95495073749996,235.33872209166663,47.0,72.0
1297,235.21810823749996,235.44508158124995,55.0,60.0
1298,234.95495073749996,235.5722743729166,67.0,76.0
1299,235.48126573749997,235.79047579999997,59.0,47.0
1300,234.95495073749996,235.91657210208328,74.0,91.0
1301,236.00758073749995,236.42205379999996,67.0,72.0
1302,236.27073823749996,236.50648349791663,74.0,93.0
1303,235.74442323749994,236.53608871666663,62.0,55.0
1304,236.53389573749996,236.76744801874995,76.0,73.0
1305,236.79705323749997,237.0952984041666,77.0,64.0
1306,237.06021073749994,237.35955239374996,65.0,69.0
1307,237.06021073749994,237.42314878958328,69.0,69.0
1308,237.06021073749994,237.70385012291663,53.0,66.0
1309,237.32336823749995,237.83323589374996,60.0,67.0
1310,237.58652573749995,237.89244633124997,65.0,64.0
1311,237.84968323749996,238.04814785208328,76.0,76.0
1312,238.11284073749997,238.71152404999995,74.0,75.0
1313,238.63915573749995,238.76744501874995,67.0,62.0
1314,238.11284073749997,238.7915677895833,55.0,66.0
1315,238.37599823749997,238.7981467270833,62.0,60.0
1316,238.90231323749995,239.07117263333328,72.0,60.0
1317,239.03389198749994,239.15998828958328,74.0,67.0
1318,239.16547073749996,239.60625954999995,48.0,76.0
1319,239.42862823749996,239.69836467499997,55.0,55.0
1320,239.69178573749997,240.01744314374994,60.0,53.0
1321,239.16547073749996,240.09967986249995,76.0,69.0
1322,240.21810073749995,240.53060026874996,65.0,46.0
1323,240.48125823749996,240.64463518541663,72.0,60.0
1324,239.95494323749995,240.71261753958328,62.0,70.0
1325,240.74441573749996,241.01415217499996,74.0,51.0
1326,241.00757323749997,241.40121299791662,76.0,62.0
1327,241.27073073749995,241.60625654999996,69.0,50.0
1328,241.27073073749995,241.64573017499995,74.0,62.0
1329,241.66546698749994,242.2235801854166,64.0,59.0
1330,242.06020323749996,242.23344859166662,72.0,76.0
1331,242.06020323749996,242.5097639666666,76.0,58.0
1332,242.58651823749994,242.9143686229166,77.0,78.0
1333,242.58651823749994,242.93410543541663,72.0,82.0
1334,242.84967573749995,242.98344746666663,64.0,73.0
1335,241.40230948749996,243.02840353958328,57.0,67.0
1336,243.11283323749996,243.33980658124995,76.0,76.0
1337,243.37599073749996,243.8507707270833,67.0,59.0
1338,243.37599073749996,243.9231390395833,74.0,69.0
1339,243.77072698749996,244.63585726874996,59.0,24.0
1340,244.16546323749995,244.73234835208328,64.0,85.0
1341,243.90230573749994,244.75427814374996,62.0,63.0
1342,244.95493573749997,245.05142682083329,59.0,67.0
1343,243.37599073749996,245.06019873749995,52.0,73.0
1344,244.69177823749996,245.08212852916662,71.0,75.0
1345,245.21809323749994,245.39024210208328,67.0,45.0
1346,245.48125073749995,245.79703973749994,60.0,48.0
1347,245.48125073749995,245.81239059166663,69.0,67.0
1348,245.48125073749995,245.81348708124995,65.0,60.0
1349,246.00756573749996,246.2290566333333,60.0,61.0
1350,246.27072323749996,246.69945066458328,65.0,80.0
1351,245.74440823749995,246.80690664374995,57.0,62.0
1352,246.79703823749995,246.8946258104166,65.0,51.0
1353,246.79703823749995,247.0689676541666,60.0,67.0
1354,246.79703823749995,247.12927458124994,69.0,75.0
1355,245.48125073749995,247.13146756041664,53.0,57.0
1356,247.06019573749995,247.16216926874995,57.0,73.0
1357,247.32335323749996,247.46808986249997,60.0,49.0
1358,247.58651073749996,248.02620306041663,60.0,70.0
1359,247.58651073749996,248.05580827916663,69.0,69.0
1360,247.58651073749996,248.15887829999997,65.0,70.0
1361,248.11282573749995,248.49440411249995,55.0,63.0
1362,248.37598323749995,248.50646549791662,60.0,73.0
1363,248.37598323749995,248.57883381041663,69.0,70.0
1364,248.63914073749996,248.78497385208328,62.0,80.0
1365,248.63914073749996,248.79922821666662,71.0,70.0
1366,248.90229823749996,249.14900839374997,55.0,48.0
1367,249.16545573749997,249.27071873749995,64.0,70.0
1368,249.16545573749997,249.27071873749995,72.0,75.0
1369,247.58651073749996,249.38256067499995,43.0,67.0
1370,247.84966823749994,249.40887642499996,50.0,63.0
1371,249.42861323749995,249.54374464374996,74.0,63.0
1372,249.42861323749995,249.5678674145833,65.0,57.0
1373,249.42861323749995,249.6698409458333,55.0,50.0
1374,249.69177073749995,250.08541049791663,48.0,67.0
1375,249.69177073749995,250.17751562291662,76.0,72.0
1376,249.69177073749995,250.18738402916662,67.0,59.0
1377,249.95492823749996,250.20492786249997,55.0,55.0
1378,250.21808573749996,250.51633090416664,60.0,51.0
1379,250.48124323749997,250.77619893541663,69.0,64.0
1380,250.48124323749997,250.81019011249995,77.0,78.0
1381,250.74440073749994,251.13913698749997,64.0,54.0
1382,250.48124323749997,251.1533913520833,62.0,58.0
1383,251.00755823749995,251.15448784166662,69.0,62.0
1384,251.00755823749995,251.34527702916662,76.0,69.0
1385,251.53387323749996,251.80909212291664,74.0,59.0
1386,251.79703073749997,252.20053890416662,86.0,61.0
1387,252.32334573749995,252.53277524791662,84.0,48.0
1388,251.79703073749997,252.91545011249997,72.0,45.0
1389,252.84966073749996,252.91545011249997,72.0,57.0
1390,251.79703073749997,252.9329939458333,67.0,49.0
1391,252.32334573749995,252.9329939458333,67.0,52.0
1392,252.58650323749995,252.93409043541664,91.0,64.0
1393,251.79703073749997,253.0229060916666,48.0,66.0
1394,253.11281823749997,253.2926425291666,79.0,50.0
1395,253.37597573749997,253.57224737291662,84.0,46.0
1396,251.92860948749995,253.5777298208333,60.0,73.0
1397,253.63913323749995,253.85952764374997,88.0,56.0
1398,253.90229073749995,254.3869391333333,86.0,67.0
1399,253.90229073749995,254.5152284145833,59.0,37.0
1400,254.42860573749996,254.76851750833328,79.0,40.0
1401,254.16544823749996,254.79592974791663,67.0,34.0
1402,254.69176323749997,255.32992017499996,91.0,59.0
1403,256.1391294875,256.4143483729166,84.0,61.0
1404,256.5338657375,256.8288214354166,79.0,45.0
1405,256.40228698749996,257.27070673749995,64.0,53.0
1406,256.79702323749996,257.30689089374994,91.0,59.0
1407,256.79702323749996,257.54811860208326,69.0,59.0
1408,257.32333823749997,257.5722413729166,79.0,46.0
1409,257.58649573749994,257.73452183124994,64.0,46.0
1410,256.1391294875,257.77180247708327,57.0,55.0
1411,257.58649573749994,257.85623217499995,84.0,58.0
1412,258.11281073749996,258.6150029666666,86.0,53.0
1413,258.11281073749996,258.6840818104166,57.0,44.0
1414,258.7707044875,258.97465155,84.0,16.0
1415,259.03386198749996,259.3145633208333,79.0,49.0
1416,259.29701948749994,259.57662433124995,77.0,60.0
1417,259.5601769875,259.86609758124996,76.0,49.0
1418,259.29701948749994,259.96478164375,53.0,60.0
1419,259.95491323749997,260.1018428416666,72.0,58.0
1420,259.95491323749997,260.40776343541665,55.0,57.0
1421,260.34964948749996,260.45162301874996,65.0,82.0
1422,261.00754323749993,261.4428496020833,60.0,44.0
1423,261.13912198749995,261.6435071958333,69.0,69.0
1424,261.27070073749996,261.70820008124997,72.0,58.0
1425,261.13912198749995,261.7103930604166,65.0,57.0
1426,261.13912198749995,261.79043679999995,43.0,70.0
1427,261.53385823749994,261.7915332895833,50.0,54.0
1428,261.7970157375,261.9066646958333,55.0,78.0
1429,261.92859448749994,262.0382434458333,60.0,78.0
1430,262.06017323749995,262.21806773749995,65.0,54.0
1431,262.3233307375,262.4077604354166,67.0,60.0
1432,262.45490948749995,262.69833017499997,69.0,67.0
1433,262.7180669875,262.9724525708333,72.0,60.0
1434,262.84964573749994,263.01740864374995,74.0,69.0
1435,263.1128032375,263.3638993520833,76.0,73.0
1436,263.37596073749995,263.6665304770833,77.0,49.0
1437,263.63911823749993,263.73780229999994,79.0,48.0
1438,263.90227573749996,264.0360474666666,84.0,73.0
1439,264.29701198749996,264.46477489374996,89.0,61.0
1440,264.69174823749995,264.83319539375,88.0,53.0
1441,264.9549057375,265.0481073520833,84.0,57.0
1442,265.3496419875,265.44503658124995,91.0,37.0
1443,265.7443782375,265.8891148625,89.0,60.0
1444,266.2706932374999,266.3803421958333,93.0,47.0
1445,267.19174448749993,267.4362616645833,88.0,37.0
1446,267.32332323749995,267.60292808124996,96.0,54.0
