,start,end,pitch,velocity
0,27.410699666666666,27.57587815,77.0,113.0
1,27.67855666666667,27.85266371666667,77.0,114.0
2,27.94641366666667,28.18078854166667,77.0,119.0
3,28.482127666666667,28.662931141666668,73.0,116.0
4,28.749984666666666,29.040163083333333,80.0,123.0
5,29.553555666666668,29.82587695,77.0,120.0
6,30.089269666666667,30.424090916666668,73.0,119.0
7,30.62498366666667,30.890608525,77.0,120.0
8,31.160697666666668,31.549090316666668,73.0,119.0
9,31.96426866666667,32.377214875,70.0,119.0
10,35.982123666666666,36.111587883333335,77.0,119.0
11,36.249980666666666,36.372748458333334,77.0,110.0
12,36.517837666666665,36.796855375,77.0,117.0
13,37.05355166666667,37.18748016666667,73.0,94.0
14,37.32140866666667,37.62051565,80.0,110.0
15,38.12497966666667,38.401765233333336,77.0,110.0
16,38.66069366666667,38.95980065,73.0,107.0
17,39.196407666666666,39.488818225,75.0,114.0
18,40.26783566666667,40.64283546666667,77.0,117.0
19,42.94640566666667,43.18078054166667,70.0,117.0
20,43.21426266666667,43.439708975,72.0,102.0
21,43.48211966666667,43.734351675,73.0,113.0
22,43.74997666666667,44.06470864166667,70.0,114.0
23,44.28569066666667,44.74551185,82.0,114.0
24,46.96426066666667,47.080332033333335,70.0,116.0
25,47.23211766666667,47.410689000000005,70.0,113.0
26,47.49997466666667,47.61158175,73.0,117.0
27,47.767831666666666,48.06470650833334,73.0,114.0
28,48.303545666666665,48.707563308333334,84.0,120.0
29,48.83925966666667,49.292384425,80.0,119.0
30,51.51782966666667,51.86827590833334,77.0,110.0
31,52.05354366666667,52.28122211666667,80.0,107.0
32,52.58925766666667,52.95309675833334,78.0,116.0
33,53.39282866666667,53.796846308333336,77.0,114.0
34,54.19639966666667,54.55354233333333,79.0,113.0
35,55.80354166666667,56.29461283333333,70.0,116.0
36,56.339255666666666,56.74773759166667,80.0,117.0
37,57.41068366666667,58.089254733333334,77.0,119.0
38,61.69639566666667,61.86157415,77.0,113.0
39,61.96425266666667,62.13835971666667,77.0,114.0
40,62.232109666666666,62.46648454166667,77.0,119.0
41,62.76782366666667,62.94862714166667,73.0,116.0
42,63.03568066666667,63.325859083333334,80.0,123.0
43,63.83925166666667,64.11157295,77.0,120.0
44,64.37496566666667,64.70978691666667,73.0,119.0
45,64.91067966666667,65.176304525,77.0,120.0
46,65.44639366666667,65.83478631666667,73.0,119.0
47,66.24996466666667,66.66291087500001,70.0,119.0
48,70.26781966666667,70.39728388333333,77.0,119.0
49,70.53567666666667,70.65844445833334,77.0,110.0
50,70.80353366666667,71.08255137500001,77.0,117.0
51,71.33924766666667,71.47317616666668,73.0,94.0
52,71.60710466666667,71.90621165,80.0,110.0
53,72.41067566666666,72.68746123333334,77.0,110.0
54,72.94638966666668,73.24549665,73.0,107.0
55,73.48210366666667,73.774514225,75.0,114.0
56,74.55353166666667,74.92853146666667,77.0,117.0
57,77.23210166666667,77.46647654166667,70.0,117.0
58,77.49995866666667,77.725404975,72.0,102.0
59,77.76781566666666,78.020047675,73.0,113.0
60,78.03567266666667,78.35040464166667,70.0,114.0
61,78.83924366666668,79.29906485000001,82.0,114.0
62,81.24995666666666,81.36602803333334,70.0,116.0
63,81.51781366666667,81.696385,70.0,113.0
64,81.78567066666668,81.89727775,73.0,117.0
65,82.05352766666667,82.35040250833333,73.0,114.0
66,82.58924166666667,82.99325930833334,84.0,120.0
67,83.12495566666666,83.578080425,80.0,119.0
68,85.80352566666667,86.15397190833333,77.0,110.0
69,86.33923966666667,86.56691811666667,80.0,107.0
70,86.87495366666667,87.23879275833333,78.0,116.0
71,87.67852466666668,88.08254230833333,77.0,114.0
72,88.48209566666667,88.83923833333334,79.0,113.0
73,90.08923766666668,90.58030883333333,70.0,116.0
74,90.62495166666668,91.03343359166666,80.0,117.0
75,91.69637966666667,92.37495073333334,77.0,119.0
76,95.44637766666666,95.86825244166667,73.0,119.0
77,95.98209166666668,96.27673436666667,80.0,120.0
78,96.51780566666667,96.863787625,80.0,120.0
79,97.05351966666667,97.36378735833334,77.0,119.0
80,97.58923366666667,97.88834065,75.0,119.0
81,98.12494766666667,98.430751075,82.0,119.0
82,98.66066166666667,98.98432220833334,82.0,119.0
83,99.19637566666667,99.34369701666667,75.0,113.0
84,99.73208966666667,100.04012521666667,85.0,119.0
85,100.26780366666667,100.50441068333333,84.0,119.0
86,100.53566066666667,100.81021409166667,82.0,120.0
87,101.33923166666666,101.68967790833334,80.0,102.0
88,101.87494566666668,102.23878475833334,77.0,117.0
89,103.48208766666667,103.68967684166667,77.0,113.0
90,103.74994466666666,103.948605275,78.0,108.0
91,104.01780166666667,104.310212225,80.0,114.0
92,104.55351566666667,104.7053013,73.0,113.0
93,104.82137266666668,105.13610464166668,73.0,116.0
94,105.35708666666667,105.79235429166667,82.0,117.0
95,106.16065766666667,106.466461075,80.0,117.0
96,106.69637166666666,106.8213716,73.0,114.0
97,106.96422866666667,107.14056785833334,73.0,110.0
98,107.49994266666667,107.95083528333333,80.0,108.0
99,108.30351366666667,108.73878129166667,77.0,113.0
100,112.58922566666666,112.9285112,73.0,113.0
101,113.12493966666668,113.45306449166667,80.0,110.0
102,113.66065366666668,113.9999392,80.0,107.0
103,114.19636766666667,114.53118891666666,77.0,113.0
104,114.73208166666667,115.08252790833333,75.0,113.0
105,115.26779566666667,115.57806335833334,82.0,113.0
106,115.80350966666667,116.14279520000001,82.0,110.0
107,116.33922366666667,116.63609850833333,84.0,116.0
108,116.87493766666667,117.24993746666667,85.0,114.0
109,117.41065166666667,117.6695801,84.0,110.0
110,117.67850866666667,118.00216920833334,82.0,117.0
111,118.48207966666666,118.71645454166666,77.0,108.0
112,118.74993666666667,119.055740075,73.0,108.0
113,120.62493566666667,120.92850693333334,70.0,110.0
114,120.89279266666667,121.09591755833334,72.0,108.0
115,121.16064966666667,121.50886376666666,73.0,116.0
116,122.76779166666667,123.03788080833334,72.0,116.0
117,123.03564866666667,123.24546998333334,73.0,114.0
118,123.30350566666667,123.6963626,77.0,117.0
119,124.91064766666668,125.24770105833333,73.0,110.0
120,125.71421866666667,126.22091482500001,70.0,108.0
121,147.41063566666668,147.57581415,77.0,113.0
122,147.67849266666667,147.85259971666667,77.0,114.0
123,147.94634966666666,148.18072454166668,77.0,119.0
124,148.48206366666668,148.66286714166668,73.0,116.0
125,148.74992066666667,149.04009908333333,80.0,123.0
126,149.55349166666667,149.82581295,77.0,120.0
127,150.08920566666666,150.42402691666666,73.0,119.0
128,150.62491966666667,150.890544525,77.0,120.0
129,151.16063366666668,151.54902631666667,73.0,119.0
130,151.96420466666666,152.377150875,70.0,119.0
131,155.98205966666666,156.11152388333335,77.0,119.0
132,156.24991666666668,156.37268445833334,77.0,110.0
133,156.51777366666667,156.796791375,77.0,117.0
134,157.05348766666668,157.18741616666668,73.0,94.0
135,157.32134466666668,157.62045165,80.0,110.0
136,158.12491566666668,158.40170123333334,77.0,110.0
137,158.66062966666667,158.95973665,73.0,107.0
138,159.19634366666668,159.488754225,75.0,114.0
139,160.26777166666668,160.64277146666666,77.0,117.0
140,162.94634166666668,163.18071654166667,70.0,117.0
141,163.21419866666668,163.439644975,72.0,102.0
142,163.48205566666667,163.73428767500002,73.0,113.0
143,163.74991266666666,164.06464464166666,70.0,114.0
144,164.55348366666666,165.01330485,82.0,114.0
145,166.96419666666668,167.08026803333334,70.0,116.0
146,167.23205366666667,167.410625,70.0,113.0
147,167.49991066666666,167.61151775000002,73.0,117.0
148,167.76776766666669,168.06464250833335,73.0,114.0
149,168.30348166666667,168.70749930833333,84.0,120.0
150,168.83919566666668,169.292320425,80.0,119.0
151,171.51776566666666,171.86821190833334,77.0,110.0
152,172.05347966666668,172.28115811666666,80.0,107.0
153,172.58919366666666,172.95303275833334,78.0,116.0
154,173.39276466666666,173.79678230833335,77.0,114.0
155,174.19633566666667,174.55347833333335,79.0,113.0
156,175.80347766666668,176.29454883333335,70.0,116.0
157,176.33919166666666,176.74767359166668,80.0,117.0
158,177.41061966666666,178.08919073333334,77.0,119.0
159,181.16061766666667,181.58249244166666,73.0,119.0
160,181.69633166666668,181.99097436666668,80.0,120.0
161,182.23204566666666,182.578027625,80.0,120.0
162,182.76775966666668,183.07802735833334,77.0,119.0
163,183.30347366666666,183.60258065,75.0,119.0
164,183.83918766666667,184.144991075,82.0,119.0
165,184.37490166666666,184.69856220833333,82.0,119.0
166,184.91061566666667,185.05793701666667,75.0,113.0
167,185.44632966666668,185.75436521666668,85.0,119.0
168,185.98204366666667,186.21865068333335,84.0,119.0
169,186.24990066666666,186.52445409166668,82.0,120.0
170,187.05347166666667,187.40391790833334,80.0,102.0
171,187.58918566666668,187.95302475833333,77.0,117.0
172,189.19632766666666,189.40391684166667,77.0,113.0
173,189.46418466666668,189.662845275,78.0,108.0
174,189.73204166666667,190.024452225,80.0,114.0
175,190.26775566666666,190.4195413,73.0,113.0
176,190.53561266666668,190.85034464166668,73.0,116.0
177,191.07132666666666,191.50659429166666,82.0,117.0
178,191.87489766666667,192.180701075,80.0,117.0
179,192.41061166666668,192.5356116,73.0,114.0
180,192.67846866666667,192.85480785833334,73.0,110.0
181,193.21418266666666,193.66507528333335,80.0,108.0
182,194.01775366666666,194.45302129166666,77.0,113.0
183,198.30346566666668,198.6427512,73.0,113.0
184,198.83917966666667,199.16730449166667,80.0,110.0
185,199.37489366666668,199.71417920000002,80.0,107.0
186,199.91060766666666,200.24542891666667,77.0,113.0
187,200.44632166666668,200.79676790833335,75.0,113.0
188,200.98203566666666,201.29230335833333,82.0,113.0
189,201.51774966666667,201.8570352,82.0,110.0
190,202.0534636666667,202.35033850833335,84.0,116.0
191,202.58917766666667,202.96417746666668,85.0,114.0
192,203.12489166666668,203.3838201,84.0,110.0
193,203.39274866666668,203.71640920833335,82.0,117.0
194,204.19631966666668,204.43069454166667,77.0,108.0
195,204.46417666666667,204.769980075,73.0,108.0
196,206.33917566666668,206.64274693333334,70.0,110.0
197,206.60703266666667,206.81015755833334,72.0,108.0
198,206.87488966666666,207.22310376666667,73.0,116.0
199,208.48203166666667,208.75212080833333,72.0,116.0
200,208.74988866666666,208.95970998333334,73.0,114.0
201,209.01774566666668,209.4106026,77.0,117.0
202,210.62488766666667,210.96194105833334,73.0,110.0
203,211.16060166666668,211.66729782500002,70.0,108.0
204,215.44631366666667,215.86818844166666,73.0,119.0
205,215.98202766666668,216.27667036666668,80.0,120.0
206,216.51774166666667,216.863723625,80.0,120.0
207,217.05345566666668,217.36372335833335,77.0,119.0
208,217.58916966666666,217.88827665,75.0,119.0
209,218.12488366666668,218.430687075,82.0,119.0
210,218.66059766666666,218.98425820833333,82.0,119.0
211,219.19631166666667,219.34363301666667,75.0,113.0
212,219.7320256666667,220.0400612166667,85.0,119.0
213,220.26773966666667,220.50434668333335,84.0,119.0
214,220.53559666666666,220.81015009166669,82.0,120.0
215,221.33916766666667,221.68961390833334,80.0,102.0
216,221.87488166666668,222.23872075833333,77.0,117.0
217,223.48202366666666,223.68961284166667,77.0,113.0
218,223.74988066666668,223.948541275,78.0,108.0
219,224.01773766666668,224.310148225,80.0,114.0
220,224.55345166666666,224.7052373,73.0,113.0
221,224.82130866666668,225.13604064166668,73.0,116.0
222,225.35702266666667,225.79229029166666,82.0,117.0
223,226.16059366666667,226.466397075,80.0,117.0
224,226.69630766666668,226.8213076,73.0,114.0
225,226.96416466666668,227.14050385833335,73.0,110.0
226,227.49987866666666,227.95077128333335,80.0,108.0
227,228.30344966666667,228.73871729166666,77.0,113.0
228,232.58916166666668,232.9284472,73.0,113.0
229,233.12487566666667,233.45300049166667,80.0,110.0
230,233.66058966666668,233.99987520000002,80.0,107.0
231,234.19630366666667,234.53112491666667,77.0,113.0
232,234.73201766666668,235.08246390833335,75.0,113.0
233,235.26773166666666,235.57799935833333,82.0,113.0
234,235.80344566666668,236.14273120000001,82.0,110.0
235,236.33915966666666,236.63603450833335,84.0,116.0
236,236.87487366666667,237.24987346666668,85.0,114.0
237,237.4105876666667,237.6695161,84.0,110.0
238,237.67844466666668,238.00210520833335,82.0,117.0
239,238.48201566666668,238.71639054166667,77.0,108.0
240,238.74987266666668,239.055676075,73.0,108.0
241,240.62487166666668,240.92844293333334,70.0,110.0
242,240.89272866666667,241.09585355833335,72.0,108.0
243,241.16058566666666,241.50879976666667,73.0,116.0
244,242.76772766666667,243.03781680833333,72.0,116.0
245,243.03558466666667,243.24540598333334,73.0,114.0
246,243.30344166666669,243.6962986,77.0,117.0
247,244.91058366666667,245.24763705833334,73.0,110.0
248,245.44629766666668,245.95299382500002,82.0,108.0
