,start,end,pitch,velocity
0,9.732137666666667,11.642850933333333,42.0,86.0
1,9.999994666666668,11.921868641666666,49.0,69.0
2,10.267851666666667,11.982136466666667,54.0,77.0
3,10.535708666666666,12.627225408333334,65.0,85.0
4,12.410707666666667,13.006689491666666,54.0,68.0
5,12.946421666666668,13.45981425,65.0,108.0
6,12.678564666666666,13.48659995,58.0,80.0
7,11.874993666666667,13.566957050000001,42.0,68.0
8,12.142850666666668,13.676331991666666,49.0,44.0
9,13.214278666666667,14.006688958333333,54.0,78.0
10,13.482135666666666,14.017849666666667,60.0,84.0
11,14.017849666666667,14.261153108333334,58.0,69.0
12,14.017849666666667,14.53124225,61.0,72.0
13,13.749992666666667,15.323652541666668,65.0,87.0
14,14.821420666666667,15.6696345,60.0,85.0
15,15.357134666666667,15.888384383333333,61.0,86.0
16,14.017849666666667,15.9374915,46.0,75.0
17,14.553563666666667,16.122759258333335,58.0,83.0
18,14.285706666666668,16.127223541666666,53.0,71.0
19,15.892848666666668,16.7946339,60.0,84.0
20,15.892848666666668,16.930794541666668,65.0,87.0
21,17.232133666666666,17.966508275,61.0,81.0
22,17.76784766666667,17.98213326666667,65.0,81.0
23,16.16070566666667,18.004454683333336,46.0,83.0
24,16.428562666666668,18.055793941666668,53.0,71.0
25,16.696419666666667,18.127222475,58.0,84.0
26,18.035704666666668,18.316954516666666,66.0,84.0
27,16.964276666666667,18.3214188,60.0,83.0
28,19.10713266666667,19.680793075,65.0,93.0
29,18.303561666666667,20.207578508333334,42.0,83.0
30,18.571418666666666,20.444185525,49.0,68.0
31,18.839275666666666,20.5178462,54.0,80.0
32,19.642846666666667,20.964274533333334,61.0,83.0
33,20.178560666666666,20.982131666666668,58.0,75.0
34,20.982131666666668,21.502220675,54.0,87.0
35,21.517845666666666,22.087041791666667,65.0,94.0
36,21.249988666666667,22.212041725000002,58.0,87.0
37,20.44641766666667,22.32811309166667,42.0,79.0
38,20.714274666666668,22.602666516666666,49.0,79.0
39,21.78570266666667,22.627220075,54.0,82.0
40,22.321416666666668,22.774541425000002,58.0,85.0
41,22.05355966666667,22.792398558333336,61.0,82.0
42,24.73212966666667,25.830343366666668,68.0,76.0
43,23.39284466666667,25.872754058333335,60.0,80.0
44,23.124987666666666,25.879450483333333,56.0,84.0
45,23.928558666666667,25.906236183333334,63.0,85.0
46,22.857130666666666,25.908468325,51.0,75.0
47,22.589273666666667,25.953111158333336,44.0,87.0
48,27.142842666666667,28.124985000000002,54.0,81.0
49,27.67855666666667,28.669627566666666,65.0,88.0
50,26.874985666666667,28.7946275,42.0,83.0
51,28.482127666666667,29.053555933333335,54.0,67.0
52,27.410699666666666,29.098198766666666,58.0,81.0
53,28.749984666666666,29.13168089166667,61.0,83.0
54,29.821412666666667,30.622751525,65.0,92.0
55,29.821412666666667,30.691947916666667,58.0,88.0
56,29.01784166666667,30.700876483333335,42.0,83.0
57,29.28569866666667,30.723197900000002,49.0,81.0
58,30.62498366666667,30.939715641666666,60.0,87.0
59,29.553555666666668,31.140608391666667,54.0,81.0
60,30.892840666666668,31.156233383333333,58.0,74.0
61,30.892840666666668,31.220965491666668,61.0,84.0
62,31.696411666666666,32.227661383333334,58.0,82.0
63,31.96426866666667,32.725428975,72.0,98.0
64,32.76783966666667,33.03123238333333,73.0,88.0
65,32.49998266666667,33.11158948333333,58.0,78.0
66,33.03569666666667,33.57364280833333,70.0,87.0
67,31.96426866666667,33.57587495,65.0,88.0
68,33.303553666666666,34.19641033333333,58.0,76.0
69,33.839267666666665,34.59373155,60.0,80.0
70,31.428554666666667,34.712035058333335,53.0,76.0
71,34.10712466666667,34.86382069166667,61.0,100.0
72,31.160697666666668,35.198641941666665,46.0,84.0
73,34.91069566666667,35.723195233333335,60.0,84.0
74,35.17855266666667,35.950873683333334,65.0,88.0
75,36.249980666666666,36.91962316666667,58.0,83.0
76,36.517837666666665,37.292390825,61.0,89.0
77,35.71426666666667,37.774533425,49.0,81.0
78,35.982123666666666,37.83033696666667,54.0,88.0
79,37.32140866666667,38.395068808333335,65.0,88.0
80,37.05355166666667,38.5178366,58.0,82.0
81,38.66069366666667,39.033461325000005,60.0,91.0
82,35.44640966666667,39.218729083333336,42.0,85.0
83,38.12497966666667,39.29015761666667,49.0,72.0
84,38.928550666666666,39.37944328333334,65.0,96.0
85,38.39283666666667,39.49774679166667,54.0,86.0
86,39.196407666666666,39.796853775,60.0,88.0
87,39.73212166666667,40.08256790833333,58.0,76.0
88,39.73212166666667,40.48658555,61.0,86.0
89,40.26783566666667,40.88390676666667,58.0,81.0
90,40.53569266666667,41.18301375,60.0,89.0
91,40.53569266666667,41.189710175,65.0,91.0
92,41.07140666666667,41.665156350000004,58.0,78.0
93,41.60712066666667,41.99551331666667,70.0,100.0
94,41.33926366666667,42.25444175,61.0,87.0
95,41.874977666666666,42.36158455,58.0,76.0
96,39.99997866666667,42.700870083333335,53.0,74.0
97,42.142834666666666,42.953102091666665,65.0,88.0
98,42.94640566666667,43.40176256666667,53.0,83.0
99,43.21426266666667,43.50890536666667,61.0,84.0
100,39.73212166666667,43.56247676666667,46.0,77.0
101,42.67854866666667,43.752208808333336,60.0,84.0
102,44.01783366666667,44.676315458333335,65.0,88.0
103,43.74997666666667,44.790154683333334,58.0,86.0
104,44.821404666666666,45.58479711666667,65.0,90.0
105,44.01783366666667,46.002207608333336,42.0,87.0
106,44.55354766666667,46.109350408333334,54.0,83.0
107,45.62497566666667,46.196403933333336,61.0,84.0
108,44.28569066666667,46.20310035833334,49.0,78.0
109,45.89283266666667,46.70310009166667,58.0,79.0
110,47.23211766666667,47.56247463333334,65.0,104.0
111,46.96426066666667,47.578099625,58.0,86.0
112,46.16068966666667,47.678546000000004,42.0,81.0
113,46.42854666666667,47.74774239166667,49.0,76.0
114,46.69640366666667,47.792385225000004,54.0,84.0
115,47.49997466666667,47.80354593333333,61.0,83.0
116,47.767831666666666,48.13613504166667,58.0,85.0
117,48.035688666666665,48.37274205833334,65.0,91.0
118,48.57140266666667,49.354884391666666,60.0,86.0
119,49.10711666666667,49.72765205,72.0,113.0
120,48.83925966666667,49.946401933333334,65.0,82.0
121,49.64283066666667,50.03791974166667,60.0,83.0
122,48.303545666666665,50.07140186666667,53.0,88.0
123,49.91068766666667,50.57363374166667,68.0,87.0
124,50.44640166666667,51.37274045833333,60.0,81.0
125,50.44640166666667,51.408454725,65.0,88.0
126,51.24997266666667,52.04684724166667,53.0,73.0
127,50.44640166666667,52.05354366666667,41.0,77.0
128,51.51782966666667,52.064704375000005,60.0,88.0
129,51.78568666666667,52.1249722,65.0,89.0
130,52.05354366666667,52.59372195,61.0,87.0
131,53.12497166666667,53.41961436666667,54.0,81.0
132,52.85711466666667,53.52675716666667,51.0,80.0
133,53.39282866666667,54.220953225,63.0,89.0
134,52.58925766666667,54.515595925,39.0,87.0
135,54.19639966666667,54.68523869166667,58.0,86.0
136,54.73211366666667,55.81916665833334,63.0,90.0
137,54.73211366666667,56.36604136666667,39.0,83.0
138,54.73211366666667,56.39952349166667,55.0,86.0
139,53.928542666666665,56.43970204166667,51.0,80.0
140,55.80354166666667,56.89505894166667,58.0,86.0
141,56.339255666666666,56.9731839,63.0,88.0
142,57.41068366666667,57.98880835833334,56.0,82.0
143,57.67854066666667,58.00889763333333,58.0,88.0
144,57.94639766666667,58.24104036666667,60.0,91.0
145,58.48211166666667,58.881665025000004,63.0,88.0
146,58.21425466666667,59.58255750833334,56.0,86.0
147,59.01782566666667,59.901753766666666,72.0,92.0
148,59.01782566666667,59.94416445833333,63.0,76.0
149,58.74996866666667,59.957557308333335,68.0,82.0
150,56.874969666666665,60.60711053333333,44.0,86.0
151,57.14282666666667,60.64059265833333,51.0,77.0
152,59.821396666666665,60.649521225,56.0,82.0
153,60.08925366666667,60.944163925000005,72.0,98.0
154,60.62496766666667,61.017824600000004,68.0,84.0
155,60.08925366666667,61.066931716666666,63.0,89.0
156,61.16068166666667,61.79237775833334,61.0,85.0
157,61.16068166666667,61.80800275,65.0,85.0
158,61.16068166666667,61.812467033333334,58.0,79.0
159,61.69639566666667,62.59371661666667,54.0,74.0
160,62.232109666666666,62.863805758333335,61.0,91.0
161,62.232109666666666,63.113805625000005,65.0,89.0
162,62.232109666666666,63.122734191666666,58.0,86.0
163,63.30353766666667,63.984340875,65.0,82.0
164,63.30353766666667,64.09594795833334,58.0,78.0
165,63.30353766666667,64.12050151666666,61.0,82.0
166,61.16068166666667,64.87496540000001,42.0,81.0
167,64.37496566666667,64.95085821666667,65.0,87.0
168,64.37496566666667,64.98434034166667,58.0,89.0
169,64.10710866666666,65.02228675,54.0,78.0
170,64.91067966666667,65.44192938333333,60.0,88.0
171,65.44639366666667,65.80576847500001,58.0,78.0
172,65.44639366666667,66.05130405833333,61.0,87.0
173,65.44639366666667,66.27675036666668,65.0,87.0
174,66.24996466666667,66.676303725,58.0,80.0
175,66.51782166666666,66.97541070833334,60.0,88.0
176,66.51782166666666,67.05576780833333,65.0,96.0
177,67.32139266666667,67.520053275,70.0,94.0
178,67.32139266666667,67.99103516666666,61.0,88.0
179,65.98210766666666,68.36826710833334,53.0,63.0
180,67.05353566666668,68.37049925000001,58.0,81.0
181,67.85710666666667,68.63835625,65.0,88.0
182,68.66067766666667,69.06469530833334,53.0,89.0
183,68.39282066666667,69.23210593333333,60.0,86.0
184,65.44639366666667,69.25889163333333,46.0,77.0
185,69.73210566666667,70.426301725,58.0,81.0
186,69.73210566666667,70.50219454166667,65.0,86.0
187,69.19639166666667,70.56469450833333,61.0,89.0
188,70.53567666666667,70.97317643333334,54.0,65.0
189,70.80353366666667,71.5713904,65.0,88.0
190,70.80353366666667,71.60264038333334,61.0,88.0
191,70.80353366666667,71.7321046,58.0,86.0
192,71.87496166666666,72.61156841666667,58.0,86.0
193,71.87496166666666,72.71424693333334,65.0,89.0
194,72.41067566666666,72.796836175,60.0,80.0
195,69.73210566666667,73.46871081666667,42.0,77.0
196,72.94638966666668,73.506657225,65.0,94.0
197,72.94638966666668,73.57585361666666,58.0,92.0
198,72.67853266666667,73.77897850833334,54.0,87.0
199,73.48210366666667,73.99549625,60.0,88.0
200,74.01781766666667,74.28567466666667,58.0,81.0
201,74.01781766666667,74.63388876666667,65.0,86.0
202,74.55353166666667,75.23210273333333,58.0,86.0
203,74.82138866666666,75.79460243333334,61.0,81.0
204,75.62495966666667,75.89504880833334,63.0,86.0
205,75.08924566666667,75.97540590833333,70.0,102.0
206,75.35710266666666,76.011120175,58.0,86.0
207,75.89281666666668,76.43076280833334,61.0,78.0
208,75.89281666666668,76.71647694166667,65.0,96.0
209,74.28567466666667,76.9553161,53.0,81.0
210,76.42853066666667,77.0088875,60.0,81.0
211,76.96424466666667,77.42406585,61.0,88.0
212,77.23210166666667,77.64058359166667,53.0,88.0
213,74.01781766666667,77.76335138333333,46.0,78.0
214,77.49995866666667,77.89727988333334,60.0,86.0
215,78.30352966666666,78.75442228333334,58.0,84.0
216,77.76781566666666,78.80129725833334,61.0,83.0
217,78.30352966666666,79.104868525,65.0,88.0
218,79.37495766666667,80.00442161666668,65.0,91.0
219,78.30352966666666,80.02451089166667,42.0,85.0
220,79.37495766666667,80.28120718333334,58.0,90.0
221,79.91067166666667,80.40174283333333,61.0,80.0
222,79.10710066666667,81.153974575,54.0,76.0
223,80.44638566666667,81.60263505,58.0,87.0
224,80.44638566666667,81.64504574166666,65.0,91.0
225,81.51781366666667,81.917367025,54.0,92.0
226,81.78567066666668,82.1517419,58.0,91.0
227,81.24995666666666,82.198616875,42.0,88.0
228,82.05352766666667,82.38165249166667,61.0,100.0
229,82.58924166666667,83.39281266666667,65.0,94.0
230,82.58924166666667,83.46870548333334,60.0,86.0
231,82.32138466666667,83.524509025,68.0,100.0
232,83.39281266666667,83.80799101666666,53.0,74.0
233,83.66066966666666,84.50441921666668,65.0,102.0
234,83.66066966666666,84.528972775,60.0,98.0
235,83.66066966666666,84.53790134166667,68.0,93.0
236,84.73209766666668,85.50218654166667,60.0,91.0
237,84.73209766666668,85.54906151666667,65.0,96.0
238,84.73209766666668,85.56468650833334,68.0,89.0
239,82.58924166666667,86.35263251666667,41.0,88.0
240,85.80352566666667,86.36825750833333,60.0,92.0
241,85.53566866666667,86.43522175833334,53.0,86.0
242,86.33923966666667,86.43968604166668,65.0,88.0
243,86.33923966666667,86.83254297500001,68.0,96.0
244,86.87495366666667,87.45754264166666,63.0,88.0
245,86.87495366666667,87.62941755,58.0,83.0
246,86.87495366666667,87.71200679166667,66.0,86.0
247,87.67852466666668,88.131649425,51.0,82.0
248,86.87495366666667,88.587006325,39.0,86.0
249,87.94638166666667,88.60263131666667,58.0,92.0
250,87.94638166666667,88.70530983333333,66.0,91.0
251,88.48209566666667,89.01334538333333,51.0,80.0
252,89.01780966666666,89.85263065000001,58.0,87.0
253,89.01780966666666,89.87718420833333,63.0,98.0
254,89.01780966666666,89.88834491666667,67.0,89.0
255,89.01780966666666,90.52673743333334,39.0,84.0
256,90.08923766666668,90.7231659,58.0,100.0
257,89.82138066666667,90.75888016666667,51.0,84.0
258,90.62495166666668,91.12048711666667,67.0,106.0
259,91.16066566666667,91.86602243333334,65.0,89.0
260,91.16066566666667,91.881647425,60.0,86.0
261,91.16066566666667,91.89280813333333,57.0,84.0
262,91.96423666666666,92.38611144166667,53.0,80.0
263,91.16066566666667,92.76780766666667,41.0,82.0
264,92.23209366666667,92.79012908333334,65.0,94.0
265,92.23209366666667,92.92405758333334,57.0,93.0
266,92.76780766666667,93.1606646,60.0,80.0
267,92.76780766666667,93.29012881666667,53.0,83.0
268,93.30352166666667,94.69861020833333,57.0,88.0
269,93.30352166666667,94.73878875833334,65.0,102.0
270,93.30352166666667,94.74325304166668,41.0,87.0
271,93.30352166666667,94.76557445833333,60.0,98.0
272,95.44637766666666,95.92405598333333,61.0,90.0
273,95.44637766666666,96.087002325,65.0,92.0
274,95.44637766666666,96.16959156666667,68.0,93.0
275,96.24994866666667,96.78119838333333,61.0,88.0
276,95.98209166666668,96.95084115,56.0,72.0
277,95.44637766666666,96.96646614166667,49.0,86.0
278,96.51780566666667,97.15619818333333,65.0,93.0
279,97.05351966666667,97.26334098333334,49.0,86.0
280,96.51780566666667,97.38834091666666,73.0,94.0
281,96.51780566666667,97.46200159166666,68.0,104.0
282,97.58923366666667,98.34369755,68.0,90.0
283,97.58923366666667,98.38164395833334,60.0,89.0
284,97.58923366666667,98.38834038333334,63.0,98.0
285,97.58923366666667,98.89726868333334,44.0,88.0
286,98.39280466666666,98.90619725,56.0,83.0
287,98.66066166666667,99.341464875,68.0,90.0
288,98.66066166666667,99.36155415,60.0,93.0
289,98.66066166666667,99.39280413333334,63.0,108.0
290,99.19637566666667,99.569143325,44.0,81.0
291,99.73208966666667,100.32583935000001,65.0,100.0
292,99.73208966666667,100.33700005833333,70.0,94.0
293,99.73208966666667,100.35262505,61.0,90.0
294,99.73208966666667,100.95976758333333,46.0,86.0
295,100.53566066666667,100.982089,58.0,67.0
296,100.80351766666666,101.40396377500001,61.0,91.0
297,100.80351766666666,101.42182090833333,70.0,92.0
298,101.33923166666666,101.67628505833333,46.0,88.0
299,100.80351766666666,101.68967790833334,65.0,100.0
300,101.87494566666668,102.61824884166667,60.0,90.0
301,101.87494566666668,102.62717740833334,68.0,93.0
302,101.87494566666668,102.66512381666666,65.0,100.0
303,102.67851666666667,103.024498625,53.0,87.0
304,102.94637366666667,103.36824844166667,68.0,107.0
305,102.94637366666667,103.37494486666667,60.0,110.0
306,101.87494566666668,103.54235549166667,41.0,88.0
307,103.48208766666667,103.720926825,65.0,110.0
308,103.21423066666667,103.75887323333333,53.0,93.0
309,103.74994466666666,103.90619458333333,68.0,85.0
310,104.01780166666667,104.83030123333333,58.0,91.0
311,104.01780166666667,104.832533375,61.0,102.0
312,104.01780166666667,104.83476551666666,66.0,98.0
313,104.82137266666668,105.234318875,54.0,86.0
314,105.08922966666667,105.80574714166667,58.0,102.0
315,104.01780166666667,105.81244356666667,42.0,91.0
316,105.08922966666667,105.83476498333334,66.0,100.0
317,105.62494366666667,105.93521135833333,54.0,88.0
318,105.08922966666667,105.98431847500001,61.0,108.0
319,106.16065766666667,106.88387156666667,68.0,94.0
320,106.16065766666667,106.935210825,60.0,92.0
321,106.16065766666667,106.93967510833333,63.0,104.0
322,106.96422866666667,107.34592489166667,56.0,87.0
323,106.16065766666667,107.738781825,44.0,84.0
324,107.23208566666668,107.84592462500001,60.0,107.0
325,107.23208566666668,107.91958530000001,68.0,104.0
326,107.23208566666668,108.15619231666668,63.0,114.0
327,107.76779966666668,108.18967444166667,56.0,91.0
328,108.30351366666667,108.5892278,61.0,100.0
329,108.30351366666667,108.88833478333333,65.0,113.0
330,108.30351366666667,109.19637033333333,68.0,104.0
331,109.10708466666667,109.453066625,61.0,98.0
332,109.37494166666667,109.72315576666666,63.0,113.0
333,109.91065566666667,110.09369128333334,65.0,88.0
334,110.17851266666668,110.69413739166667,65.0,104.0
335,110.71422666666668,110.79681590833334,65.0,77.0
336,109.64279866666666,110.86601230000001,61.0,91.0
337,110.17851266666668,110.993244375,73.0,114.0
338,110.71422666666668,111.22315496666667,68.0,108.0
339,111.24994066666667,111.73431540833333,61.0,91.0
340,108.83922766666667,111.836993925,56.0,77.0
341,111.51779766666667,111.88163675833334,63.0,114.0
342,108.30351366666667,112.03565453333334,49.0,98.0
343,111.78565466666667,112.1249402,65.0,89.0
344,112.05351166666667,112.44190431666667,68.0,92.0
345,112.58922566666666,113.015564725,61.0,89.0
346,112.58922566666666,113.40618951666667,68.0,100.0
347,112.58922566666666,113.44860020833333,65.0,102.0
348,113.39279666666667,114.08476058333333,61.0,88.0
349,113.12493966666668,114.22315336666666,56.0,77.0
350,113.66065366666668,114.27002834166667,63.0,104.0
351,112.58922566666666,114.34592115833334,49.0,89.0
352,114.19636766666667,114.38609970833333,65.0,96.0
353,113.66065366666668,114.62493886666667,68.0,110.0
354,114.73208166666667,115.06690291666666,60.0,89.0
355,114.73208166666667,115.24547425,68.0,90.0
356,114.73208166666667,115.30350993333333,63.0,102.0
357,115.26779566666667,115.87717034166667,56.0,91.0
358,115.53565266666666,115.90842032500001,60.0,100.0
359,115.53565266666666,116.16511661666667,68.0,102.0
360,114.73208166666667,116.618241375,44.0,86.0
361,116.07136666666668,116.63386636666667,56.0,93.0
362,114.99993866666667,116.68520562500001,51.0,77.0
363,116.33922366666667,116.8927948,63.0,102.0
364,116.60708066666668,116.96422333333334,68.0,91.0
365,117.41065166666667,117.5624373,60.0,85.0
366,117.41065166666667,117.716455075,61.0,84.0
367,117.67850866666667,118.12270485833334,65.0,108.0
368,117.14279466666667,118.26332978333333,58.0,83.0
369,116.87493766666667,118.57806175833333,46.0,96.0
370,118.21422266666667,118.667347425,68.0,107.0
371,118.21422266666667,118.75216880833334,61.0,88.0
372,118.48207966666666,118.81243663333333,65.0,80.0
373,119.01779366666668,119.4374363,68.0,107.0
374,119.01779366666668,119.54234695833334,61.0,89.0
375,119.55350766666668,120.04904311666667,53.0,83.0
376,119.82136466666667,120.39279293333334,68.0,91.0
377,119.82136466666667,120.45306075833334,60.0,94.0
378,119.01779366666668,120.65618565,41.0,89.0
379,120.35707866666667,120.92181050833334,53.0,86.0
380,120.62493566666667,120.94189978333334,60.0,93.0
381,120.62493566666667,120.96645334166666,68.0,94.0
382,121.16064966666667,121.707524375,66.0,98.0
383,121.16064966666667,121.81689931666666,58.0,88.0
384,121.96422066666668,122.551273925,61.0,93.0
385,121.16064966666667,122.82359520833333,42.0,89.0
386,122.49993466666668,122.872702325,58.0,88.0
387,122.76779166666667,123.15618431666667,61.0,93.0
388,121.69636366666667,123.25216640833334,54.0,86.0
389,123.30350566666667,124.06689811666666,60.0,88.0
390,123.30350566666667,124.13832665000001,63.0,93.0
391,123.03564866666667,124.19413019166667,68.0,91.0
392,124.37493366666666,124.83475485000001,60.0,87.0
393,124.64279066666667,124.95082621666667,63.0,87.0
394,123.30350566666667,125.07805829166666,44.0,87.0
395,123.83921966666666,125.13162969166667,51.0,67.0
396,124.10707666666667,125.21868321666668,56.0,86.0
397,124.91064766666668,125.283415325,68.0,94.0
398,125.44636166666668,125.73654008333334,58.0,82.0
399,125.44636166666668,126.00216494166668,65.0,88.0
400,125.44636166666668,126.05573634166667,61.0,88.0
401,126.24993266666667,126.555736075,60.0,87.0
402,126.51778966666667,126.58698605833334,61.0,88.0
403,126.78564666666666,127.25662855833333,65.0,87.0
404,125.98207566666667,127.26332498333333,58.0,88.0
405,127.05350366666667,127.28341425833334,72.0,98.0
406,127.58921766666667,128.51778860000002,73.0,86.0
407,127.58921766666667,128.54011001666666,70.0,88.0
408,127.32136066666666,128.57582428333333,65.0,82.0
409,128.66064566666668,129.16287754166666,72.0,100.0
410,127.58921766666667,129.32582388333333,58.0,81.0
411,125.71421866666667,129.33028816666666,53.0,74.0
412,125.44636166666668,129.45082381666668,46.0,86.0
413,128.66064566666668,129.68296655,65.0,83.0
414,129.19635966666667,129.75885936666668,70.0,89.0
415,129.73207366666668,130.23430554166666,58.0,85.0
416,129.73207366666668,130.2588591,61.0,94.0
417,130.80350166666668,131.37269779166667,65.0,87.0
418,130.80350166666668,131.77671543333335,58.0,83.0
419,130.26778766666666,132.502161475,54.0,73.0
420,131.87492966666667,132.82805415833334,65.0,82.0
421,131.87492966666667,133.08028616666667,58.0,83.0
422,132.94635766666667,133.25662535833334,60.0,84.0
423,129.73207366666668,133.439660975,42.0,82.0
424,133.21421466666666,133.52225021666666,65.0,92.0
425,132.67850066666668,133.56689305,54.0,72.0
426,133.48207166666668,133.99099996666666,60.0,87.0
427,134.01778566666667,134.25662482500002,58.0,81.0
428,134.01778566666667,134.56466037500002,61.0,83.0
429,133.74992866666668,134.6249282,65.0,87.0
430,135.08921366666667,135.57805269166667,60.0,82.0
431,135.08921366666667,135.63832051666668,65.0,87.0
432,136.16064166666666,136.61599856666666,70.0,87.0
433,135.62492766666668,136.75439135,58.0,68.0
434,136.16064166666666,137.09367688333333,61.0,81.0
435,136.96421266666667,137.42403385,58.0,84.0
436,134.55349966666668,137.50885523333335,53.0,67.0
437,134.01778566666667,137.74323010833334,46.0,79.0
438,137.23206966666666,137.84367648333333,60.0,89.0
439,137.76778366666667,138.27447982500001,65.0,91.0
440,138.30349766666666,139.04903298333335,58.0,84.0
441,138.30349766666666,139.1517115,61.0,91.0
442,139.37492566666668,140.25215734166667,58.0,87.0
443,139.37492566666668,140.36153228333333,61.0,91.0
444,139.10706866666666,140.88831771666668,54.0,76.0
445,140.44635366666668,141.17626399166667,58.0,84.0
446,140.44635366666668,141.28340679166666,61.0,88.0
447,141.51778166666668,141.90617431666666,58.0,85.0
448,141.78563866666667,142.17403131666669,61.0,94.0
449,138.30349766666666,142.21644200833333,42.0,83.0
450,142.05349566666666,142.46867401666668,65.0,84.0
451,141.24992466666666,142.51554899166666,54.0,80.0
452,142.58920966666668,143.11376295833333,58.0,80.0
453,142.58920966666668,143.26108430833332,65.0,82.0
454,142.58920966666668,143.43295921666666,61.0,86.0
455,143.39278066666668,143.98653035,58.0,73.0
456,143.66063766666667,144.21867308333333,65.0,86.0
457,143.66063766666667,144.220905225,60.0,86.0
458,144.19635166666666,144.30572660833334,61.0,73.0
459,144.19635166666666,145.21644040833334,58.0,72.0
460,144.73206566666667,145.4731367,70.0,89.0
461,144.73206566666667,145.68965444166668,61.0,88.0
462,145.53563666666668,146.32581481666668,58.0,74.0
463,145.80349366666667,146.33474338333335,65.0,94.0
464,143.12492366666666,146.41956476666667,53.0,65.0
465,146.33920766666668,146.711975325,60.0,86.0
466,142.58920966666668,146.73429674166667,46.0,81.0
467,146.87492166666667,147.50661775833333,61.0,85.0
468,146.87492166666667,147.52224275,65.0,85.0
469,146.87492166666667,147.52670703333334,58.0,79.0
470,147.41063566666668,148.30795661666667,54.0,74.0
471,147.94634966666666,148.57804575833333,61.0,91.0
472,147.94634966666666,148.82804562500002,65.0,89.0
473,147.94634966666666,148.83697419166668,58.0,86.0
474,149.01777766666666,149.698580875,65.0,82.0
475,149.01777766666666,149.81018795833333,58.0,78.0
476,149.01777766666666,149.83474151666667,61.0,82.0
477,146.87492166666667,150.5892054,42.0,81.0
478,150.08920566666666,150.66509821666668,65.0,87.0
479,150.08920566666666,150.69858034166668,58.0,89.0
480,149.82134866666667,150.73652675,54.0,78.0
481,150.62491966666667,151.15616938333335,60.0,88.0
482,151.16063366666668,151.520008475,58.0,78.0
483,151.16063366666668,151.76554405833335,61.0,87.0
484,151.16063366666668,151.99099036666667,65.0,87.0
485,151.96420466666666,152.39054372500001,58.0,80.0
486,152.23206166666668,152.68965070833335,60.0,88.0
487,152.23206166666668,152.77000780833333,65.0,96.0
488,153.03563266666666,153.234293275,70.0,94.0
489,153.03563266666666,153.70527516666667,61.0,88.0
490,151.69634766666667,154.08250710833335,53.0,63.0
491,152.76777566666667,154.08473925,58.0,81.0
492,153.57134666666667,154.35259625,65.0,88.0
493,154.37491766666668,154.77893530833333,53.0,89.0
494,154.10706066666668,154.94634593333333,60.0,86.0
495,151.16063366666668,154.97313163333334,46.0,77.0
496,155.44634566666667,156.140541725,58.0,81.0
497,155.44634566666667,156.21643454166667,65.0,86.0
498,154.91063166666666,156.27893450833335,61.0,89.0
499,156.24991666666668,156.68741643333334,54.0,65.0
500,156.51777366666667,157.2856304,65.0,88.0
501,156.51777366666667,157.31688038333334,61.0,88.0
502,156.51777366666667,157.4463446,58.0,86.0
503,157.58920166666667,158.32580841666666,58.0,86.0
504,157.58920166666667,158.42848693333335,65.0,89.0
505,158.12491566666668,158.511076175,60.0,80.0
506,155.44634566666667,159.18295081666668,42.0,77.0
507,158.66062966666667,159.22089722500002,65.0,94.0
508,158.66062966666667,159.29009361666667,58.0,92.0
509,158.39277266666667,159.49321850833334,54.0,87.0
510,159.19634366666668,159.70973625,60.0,88.0
511,159.73205766666666,159.99991466666668,58.0,81.0
512,159.73205766666666,160.34812876666666,65.0,86.0
513,160.26777166666668,160.94634273333332,58.0,86.0
514,160.53562866666667,161.50884243333334,61.0,81.0
515,161.33919966666667,161.60928880833333,63.0,86.0
516,160.80348566666666,161.68964590833335,70.0,102.0
517,161.07134266666668,161.725360175,58.0,86.0
518,161.60705666666667,162.14500280833335,61.0,78.0
519,161.60705666666667,162.43071694166667,65.0,96.0
520,159.99991466666668,162.6695561,53.0,81.0
521,162.14277066666668,162.7231275,60.0,81.0
522,162.67848466666666,163.13830585,61.0,88.0
523,162.94634166666668,163.35482359166667,53.0,88.0
524,159.73205766666666,163.47759138333333,46.0,78.0
525,163.21419866666668,163.61151988333333,60.0,86.0
526,164.01776966666668,164.46866228333334,58.0,84.0
527,163.48205566666667,164.51553725833332,61.0,83.0
528,164.01776966666668,164.81910852500002,65.0,88.0
529,165.08919766666668,165.71866161666668,65.0,91.0
530,164.01776966666668,165.73875089166668,42.0,85.0
531,165.08919766666668,165.99544718333334,58.0,90.0
532,165.62491166666666,166.11598283333333,61.0,80.0
533,164.82134066666669,166.868214575,54.0,76.0
534,166.16062566666668,167.31687505,58.0,87.0
535,166.16062566666668,167.35928574166667,65.0,91.0
536,167.23205366666667,167.631607025,54.0,92.0
537,167.49991066666666,167.8659819,58.0,91.0
538,166.96419666666668,167.91285687500002,42.0,88.0
539,167.76776766666669,168.09589249166666,61.0,100.0
540,168.30348166666667,169.10705266666668,65.0,94.0
541,168.30348166666667,169.18294548333333,60.0,86.0
542,168.03562466666668,169.238749025,68.0,100.0
543,169.10705266666668,169.52223101666667,53.0,74.0
544,169.37490966666667,170.21865921666668,65.0,102.0
545,169.37490966666667,170.24321277500002,60.0,98.0
546,169.37490966666667,170.2521413416667,68.0,93.0
547,170.44633766666666,171.21642654166666,60.0,91.0
548,170.44633766666666,171.26330151666667,65.0,96.0
549,170.44633766666666,171.27892650833334,68.0,89.0
550,168.30348166666667,172.06687251666668,41.0,88.0
551,171.51776566666666,172.08249750833335,60.0,92.0
552,171.24990866666667,172.14946175833333,53.0,86.0
553,172.05347966666668,172.15392604166667,65.0,88.0
554,172.05347966666668,172.546782975,68.0,96.0
555,172.58919366666666,173.17178264166668,63.0,88.0
556,172.58919366666666,173.34365755000002,58.0,83.0
557,172.58919366666666,173.42624679166667,66.0,86.0
558,173.39276466666666,173.845889425,51.0,82.0
559,172.58919366666666,174.301246325,39.0,86.0
560,173.66062166666669,174.31687131666666,58.0,92.0
561,173.66062166666669,174.41954983333335,66.0,91.0
562,174.19633566666667,174.72758538333335,51.0,80.0
563,174.73204966666668,175.56687065,58.0,87.0
564,174.73204966666668,175.59142420833334,63.0,98.0
565,174.73204966666668,175.60258491666667,67.0,89.0
566,174.73204966666668,176.24097743333334,39.0,84.0
567,175.80347766666668,176.43740590000002,58.0,100.0
568,175.53562066666666,176.47312016666666,51.0,84.0
569,176.33919166666666,176.83472711666667,67.0,106.0
570,176.87490566666668,177.58026243333333,65.0,89.0
571,176.87490566666668,177.595887425,60.0,86.0
572,176.87490566666668,177.60704813333334,57.0,84.0
573,177.67847666666668,178.10035144166667,53.0,80.0
574,176.87490566666668,178.48204766666666,41.0,82.0
575,177.94633366666667,178.50436908333333,65.0,94.0
576,177.94633366666667,178.63829758333333,57.0,93.0
577,178.48204766666666,178.8749046,60.0,80.0
578,178.48204766666666,179.00436881666667,53.0,83.0
579,179.01776166666667,180.41285020833334,57.0,88.0
580,179.01776166666667,180.45302875833335,65.0,102.0
581,179.01776166666667,180.45749304166668,41.0,87.0
582,179.01776166666667,180.47981445833335,60.0,98.0
583,181.16061766666667,181.63829598333334,61.0,90.0
584,181.16061766666667,181.801242325,65.0,92.0
585,181.16061766666667,181.8838315666667,68.0,93.0
586,181.96418866666667,182.49543838333335,61.0,88.0
587,181.69633166666668,182.66508115,56.0,72.0
588,181.16061766666667,182.68070614166666,49.0,86.0
589,182.23204566666666,182.87043818333333,65.0,93.0
590,182.76775966666668,182.97758098333333,49.0,86.0
591,182.23204566666666,183.10258091666668,73.0,94.0
592,182.23204566666666,183.17624159166667,68.0,104.0
593,183.30347366666666,184.05793755000002,68.0,90.0
594,183.30347366666666,184.09588395833333,60.0,89.0
595,183.30347366666666,184.10258038333333,63.0,98.0
596,183.30347366666666,184.61150868333334,44.0,88.0
597,184.10704466666667,184.62043725,56.0,83.0
598,184.37490166666666,185.055704875,68.0,90.0
599,184.37490166666666,185.07579415,60.0,93.0
600,184.37490166666666,185.10704413333335,63.0,108.0
601,184.91061566666667,185.28338332500002,44.0,81.0
602,185.44632966666668,186.04007935,65.0,100.0
603,185.44632966666668,186.05124005833335,70.0,94.0
604,185.44632966666668,186.06686505000002,61.0,90.0
605,185.44632966666668,186.67400758333335,46.0,86.0
606,186.24990066666666,186.69632900000002,58.0,67.0
607,186.51775766666668,187.118203775,61.0,91.0
608,186.51775766666668,187.13606090833335,70.0,92.0
609,187.05347166666667,187.39052505833334,46.0,88.0
610,186.51775766666668,187.40391790833334,65.0,100.0
611,187.58918566666668,188.33248884166667,60.0,90.0
612,187.58918566666668,188.34141740833334,68.0,93.0
613,187.58918566666668,188.37936381666668,65.0,100.0
614,188.39275666666668,188.738738625,53.0,87.0
615,188.66061366666668,189.08248844166667,68.0,107.0
616,188.66061366666668,189.08918486666667,60.0,110.0
617,187.58918566666668,189.25659549166667,41.0,88.0
618,189.19632766666666,189.435166825,65.0,110.0
619,188.92847066666667,189.47311323333335,53.0,93.0
620,189.46418466666668,189.62043458333335,68.0,85.0
621,189.73204166666667,190.54454123333335,58.0,91.0
622,189.73204166666667,190.54677337500001,61.0,102.0
623,189.73204166666667,190.54900551666668,66.0,98.0
624,190.53561266666668,190.948558875,54.0,86.0
625,190.80346966666667,191.51998714166666,58.0,102.0
626,189.73204166666667,191.52668356666666,42.0,91.0
627,190.80346966666667,191.54900498333333,66.0,100.0
628,191.33918366666668,191.64945135833335,54.0,88.0
629,190.80346966666667,191.698558475,61.0,108.0
630,191.87489766666667,192.59811156666666,68.0,94.0
631,191.87489766666667,192.649450825,60.0,92.0
632,191.87489766666667,192.65391510833334,63.0,104.0
633,192.67846866666667,193.06016489166666,56.0,87.0
634,191.87489766666667,193.453021825,44.0,84.0
635,192.94632566666667,193.560164625,60.0,107.0
636,192.94632566666667,193.6338253,68.0,104.0
637,192.94632566666667,193.87043231666667,63.0,114.0
638,193.48203966666668,193.90391444166667,56.0,91.0
639,194.01775366666666,194.3034678,61.0,100.0
640,194.01775366666666,194.60257478333335,65.0,113.0
641,194.01775366666666,194.91061033333335,68.0,104.0
642,194.82132466666667,195.167306625,61.0,98.0
643,195.08918166666666,195.43739576666667,63.0,113.0
644,195.62489566666667,195.80793128333335,65.0,88.0
645,195.89275266666667,196.40837739166668,65.0,104.0
646,196.42846666666668,196.51105590833333,65.0,77.0
647,195.35703866666668,196.5802523,61.0,91.0
648,195.89275266666667,196.707484375,73.0,114.0
649,196.42846666666668,196.93739496666666,68.0,108.0
650,196.96418066666666,197.44855540833333,61.0,91.0
651,194.55346766666668,197.55123392500002,56.0,77.0
652,197.23203766666668,197.59587675833333,63.0,114.0
653,194.01775366666666,197.74989453333333,49.0,98.0
654,197.49989466666668,197.83918020000002,65.0,89.0
655,197.76775166666667,198.15614431666668,68.0,92.0
656,198.30346566666668,198.729804725,61.0,89.0
657,198.30346566666668,199.12042951666666,68.0,100.0
658,198.30346566666668,199.16284020833334,65.0,102.0
659,199.10703666666666,199.79900058333334,61.0,88.0
660,198.83917966666667,199.93739336666667,56.0,77.0
661,199.37489366666668,199.98426834166668,63.0,104.0
662,198.30346566666668,200.06016115833333,49.0,89.0
663,199.91060766666666,200.10033970833334,65.0,96.0
664,199.37489366666668,200.33917886666669,68.0,110.0
665,200.44632166666668,200.78114291666668,60.0,89.0
666,200.44632166666668,200.95971425000002,68.0,90.0
667,200.44632166666668,201.01774993333333,63.0,102.0
668,200.98203566666666,201.59141034166666,56.0,91.0
669,201.24989266666668,201.622660325,60.0,100.0
670,201.24989266666668,201.87935661666668,68.0,102.0
671,200.44632166666668,202.33248137500001,44.0,86.0
672,201.78560666666667,202.34810636666668,56.0,93.0
673,200.71417866666667,202.399445625,51.0,77.0
674,202.0534636666667,202.6070348,63.0,102.0
675,202.32132066666668,202.67846333333333,68.0,91.0
676,203.12489166666668,203.27667730000002,60.0,85.0
677,203.12489166666668,203.43069507500002,61.0,84.0
678,203.39274866666668,203.83694485833334,65.0,108.0
679,202.85703466666666,203.97756978333334,58.0,83.0
680,202.58917766666667,204.29230175833334,46.0,96.0
681,203.92846266666666,204.381587425,68.0,107.0
682,203.92846266666666,204.46640880833334,61.0,88.0
683,204.19631966666668,204.52667663333335,65.0,80.0
684,204.73203366666667,205.15167630000002,68.0,107.0
685,204.73203366666667,205.25658695833334,61.0,89.0
686,205.26774766666668,205.76328311666668,53.0,83.0
687,205.53560466666667,206.10703293333333,68.0,91.0
688,205.53560466666667,206.16730075833334,60.0,94.0
689,204.73203366666667,206.37042565000002,41.0,89.0
690,206.07131866666668,206.63605050833334,53.0,86.0
691,206.33917566666668,206.65613978333334,60.0,93.0
692,206.33917566666668,206.68069334166668,68.0,94.0
693,206.87488966666666,207.421764375,66.0,98.0
694,206.87488966666666,207.53113931666667,58.0,88.0
695,207.67846066666667,208.265513925,61.0,93.0
696,206.87488966666666,208.53783520833335,42.0,89.0
697,208.21417466666668,208.586942325,58.0,88.0
698,208.48203166666667,208.87042431666669,61.0,93.0
699,207.41060366666667,208.96640640833334,54.0,86.0
700,209.01774566666668,209.78113811666668,60.0,88.0
701,209.01774566666668,209.85256665,63.0,93.0
702,208.74988866666666,209.90837019166668,68.0,91.0
703,210.08917366666668,210.54899485,60.0,87.0
704,210.35703066666667,210.66506621666667,63.0,87.0
705,209.01774566666668,210.79229829166667,44.0,87.0
706,209.55345966666667,210.84586969166668,51.0,67.0
707,209.82131666666666,210.93292321666667,56.0,86.0
708,210.62488766666667,210.997655325,68.0,94.0
709,211.16060166666668,211.45078008333334,58.0,82.0
710,211.16060166666668,211.71640494166667,65.0,88.0
711,211.16060166666668,211.76997634166668,61.0,88.0
712,211.96417266666668,212.26997607500002,60.0,87.0
713,212.23202966666668,212.30122605833333,61.0,88.0
714,212.49988666666667,212.97086855833334,65.0,87.0
715,211.69631566666666,212.97756498333334,58.0,88.0
716,212.76774366666666,212.99765425833334,72.0,98.0
717,213.30345766666667,214.2320286,73.0,86.0
718,213.30345766666667,214.25435001666668,70.0,88.0
719,213.03560066666668,214.29006428333335,65.0,82.0
720,214.37488566666667,214.87711754166668,72.0,100.0
721,213.30345766666667,215.04006388333335,58.0,81.0
722,211.42845866666667,215.04452816666668,53.0,74.0
723,211.16060166666668,215.16506381666667,46.0,86.0
724,214.37488566666667,215.39720655,65.0,83.0
725,214.91059966666668,215.47309936666667,70.0,89.0
726,216.24988466666667,216.823545075,68.0,85.0
727,215.98202766666668,217.011044975,61.0,82.0
728,216.7855986666667,217.104794925,63.0,77.0
729,215.71417066666666,217.11372349166666,56.0,73.0
730,215.44631366666667,217.23202700000002,49.0,83.0
731,217.05345566666668,217.345866225,65.0,86.0
732,217.32131266666667,218.28559786666668,68.0,87.0
733,218.39274066666667,219.04899031666667,60.0,87.0
734,218.12488366666668,219.1338117,56.0,84.0
735,217.85702666666668,219.22979379166668,51.0,78.0
736,217.58916966666666,219.31015089166667,44.0,85.0
737,218.92845466666668,219.649436425,63.0,82.0
738,219.46416866666667,219.7766685,60.0,81.0
739,219.19631166666667,219.7766685,68.0,87.0
740,219.99988266666668,221.3570248,58.0,82.0
741,219.7320256666667,221.41506048333335,51.0,83.0
742,220.26773966666667,221.46639974166666,63.0,79.0
743,220.53559666666666,221.83023883333334,70.0,90.0
744,221.33916766666667,221.88381023333335,66.0,82.0
745,221.60702466666666,221.92398878333333,63.0,82.0
746,222.6784526666667,223.01327391666666,60.0,87.0
747,222.41059566666667,223.01550605833333,58.0,84.0
748,222.14273866666667,223.77220208333333,53.0,74.0
749,222.94630966666668,223.86371989166668,61.0,110.0
750,221.87488166666668,223.91952343333335,46.0,87.0
751,224.01773766666668,224.83023723333335,58.0,91.0
752,224.01773766666668,224.83246937500002,61.0,102.0
753,224.01773766666668,224.83470151666668,66.0,98.0
754,224.82130866666668,225.234254875,54.0,86.0
755,225.08916566666667,225.80568314166666,58.0,102.0
756,224.01773766666668,225.81237956666666,42.0,91.0
757,225.08916566666667,225.83470098333333,66.0,100.0
758,225.6248796666667,225.93514735833335,54.0,88.0
759,225.08916566666667,225.984254475,61.0,108.0
760,226.16059366666667,226.88380756666666,68.0,94.0
761,226.16059366666667,226.935146825,60.0,92.0
762,226.16059366666667,226.93961110833334,63.0,104.0
763,226.96416466666668,227.34586089166666,56.0,87.0
764,226.16059366666667,227.738717825,44.0,84.0
765,227.23202166666667,227.845860625,60.0,107.0
766,227.23202166666667,227.9195213,68.0,104.0
767,227.23202166666667,228.15612831666667,63.0,114.0
768,227.76773566666668,228.18961044166667,56.0,91.0
769,228.30344966666667,228.5891638,61.0,100.0
770,228.30344966666667,228.88827078333335,65.0,113.0
771,228.30344966666667,229.19630633333335,68.0,104.0
772,229.10702066666667,229.453002625,61.0,98.0
773,229.37487766666666,229.72309176666667,63.0,113.0
774,229.91059166666668,230.09362728333335,65.0,88.0
775,230.17844866666667,230.69407339166668,65.0,104.0
776,230.71416266666668,230.79675190833333,65.0,77.0
777,229.64273466666668,230.8659483,61.0,91.0
778,230.17844866666667,230.993180375,73.0,114.0
779,230.71416266666668,231.22309096666666,68.0,108.0
780,231.24987666666667,231.73425140833334,61.0,91.0
781,228.83916366666668,231.83692992500002,56.0,77.0
782,231.5177336666667,231.88157275833333,63.0,114.0
783,228.30344966666667,232.03559053333333,49.0,98.0
784,231.78559066666668,232.12487620000002,65.0,89.0
785,232.05344766666667,232.44184031666668,68.0,92.0
786,232.58916166666668,233.015500725,61.0,89.0
787,232.58916166666668,233.40612551666666,68.0,100.0
788,232.58916166666668,233.44853620833334,65.0,102.0
789,233.39273266666666,234.08469658333334,61.0,88.0
790,233.12487566666667,234.22308936666667,56.0,77.0
791,233.66058966666668,234.26996434166668,63.0,104.0
792,232.58916166666668,234.34585715833333,49.0,89.0
793,234.19630366666667,234.38603570833334,65.0,96.0
794,233.66058966666668,234.6248748666667,68.0,110.0
795,234.73201766666668,235.06683891666668,60.0,89.0
796,234.73201766666668,235.24541025000002,68.0,90.0
797,234.73201766666668,235.30344593333334,63.0,102.0
798,235.26773166666666,235.87710634166666,56.0,91.0
799,235.53558866666668,235.908356325,60.0,100.0
800,235.53558866666668,236.16505261666669,68.0,102.0
801,234.73201766666668,236.61817737500002,44.0,86.0
802,236.07130266666667,236.63380236666669,56.0,93.0
803,234.99987466666667,236.685141625,51.0,77.0
804,236.33915966666666,236.8927308,63.0,102.0
805,236.60701666666668,236.96415933333333,68.0,91.0
806,237.4105876666667,237.56237330000002,60.0,85.0
807,237.4105876666667,237.71639107500002,61.0,84.0
808,237.67844466666668,238.12264085833334,65.0,108.0
809,237.14273066666667,238.26326578333334,58.0,83.0
810,236.87487366666667,238.57799775833334,46.0,96.0
811,238.21415866666666,238.667283425,68.0,107.0
812,238.21415866666666,238.75210480833334,61.0,88.0
813,238.48201566666668,238.81237263333335,65.0,80.0
814,239.01772966666667,239.43737230000002,68.0,107.0
815,239.01772966666667,239.54228295833335,61.0,89.0
816,239.55344366666668,240.0489791166667,53.0,83.0
817,239.82130066666667,240.39272893333333,68.0,91.0
818,239.82130066666667,240.45299675833334,60.0,94.0
819,239.01772966666667,240.65612165000002,41.0,89.0
820,240.3570146666667,240.92174650833334,53.0,86.0
821,240.62487166666668,240.94183578333335,60.0,93.0
822,240.62487166666668,240.96638934166668,68.0,94.0
823,241.16058566666666,241.707460375,66.0,98.0
824,241.16058566666666,241.81683531666667,58.0,88.0
825,241.96415666666667,242.551209925,61.0,93.0
826,241.16058566666666,242.82353120833335,42.0,89.0
827,242.49987066666668,242.872638325,58.0,88.0
828,242.76772766666667,243.1561203166667,61.0,93.0
829,241.69629966666668,243.25210240833334,54.0,86.0
830,243.30344166666669,244.06683411666668,60.0,88.0
831,243.30344166666669,244.13826265,63.0,93.0
832,243.03558466666667,244.19406619166668,68.0,91.0
833,244.37486966666668,244.83469085000002,60.0,87.0
834,244.64272666666668,244.95076221666667,63.0,87.0
835,243.30344166666669,245.07799429166667,44.0,87.0
836,243.83915566666667,245.13156569166668,51.0,67.0
837,244.10701266666666,245.21861921666667,56.0,86.0
838,244.91058366666667,245.283351325,68.0,94.0
839,246.24986866666669,246.6427256,60.0,83.0
840,246.51772566666668,246.96192185833334,61.0,84.0
841,245.98201166666666,249.50879550000002,58.0,76.0
842,247.05343966666666,249.51549192500002,61.0,77.0
843,245.71415466666667,249.51995620833335,53.0,50.0
844,247.32129666666668,249.57129546666667,70.0,89.0
845,245.44629766666668,249.59808116666667,46.0,78.0
846,251.87486566666666,252.37709754166667,58.0,85.0
847,251.87486566666666,252.4016511,61.0,94.0
848,252.94629366666666,253.51548979166668,65.0,87.0
849,252.94629366666666,253.91950743333334,58.0,83.0
850,252.41057966666668,254.644953475,54.0,73.0
851,254.0177216666667,254.97084615833333,65.0,82.0
852,254.0177216666667,255.22307816666668,58.0,83.0
853,255.08914966666669,255.39941735833335,60.0,84.0
854,251.87486566666666,255.582452975,42.0,82.0
855,255.35700666666668,255.66504221666668,65.0,92.0
856,254.82129266666666,255.70968505000002,54.0,72.0
857,255.62486366666667,256.13379196666665,60.0,87.0
858,256.16057766666665,256.399416825,58.0,81.0
859,256.16057766666665,256.707452375,61.0,83.0
860,255.89272066666666,256.7677202,65.0,87.0
861,257.2320056666667,257.7208446916667,60.0,82.0
862,257.2320056666667,257.78111251666667,65.0,87.0
863,258.30343366666665,258.7587905666667,70.0,87.0
864,257.76771966666666,258.89718335000003,58.0,68.0
865,258.30343366666665,259.2364688833333,61.0,81.0
866,259.1070046666667,259.56682585,58.0,84.0
867,256.6962916666667,259.65164723333334,53.0,67.0
868,256.16057766666665,259.88602210833335,46.0,79.0
869,259.3748616666667,259.98646848333334,60.0,89.0
870,259.91057566666666,260.417271825,65.0,91.0
871,260.4462896666667,261.19182498333333,58.0,84.0
872,260.4462896666667,261.2945035,61.0,91.0
873,261.51771766666667,262.3949493416667,58.0,87.0
874,261.51771766666667,262.50432428333335,61.0,91.0
875,261.2498606666667,263.03110971666666,54.0,76.0
876,262.5891456666667,263.3190559916667,58.0,84.0
877,262.5891456666667,263.42619879166665,61.0,88.0
878,263.66057366666666,264.0489663166667,58.0,85.0
879,263.92843066666666,264.31682331666667,61.0,94.0
880,260.4462896666667,264.3592340083333,42.0,83.0
881,264.19628766666665,264.61146601666667,65.0,84.0
882,263.3927166666667,264.65834099166665,54.0,80.0
883,264.7320016666667,265.40387630833334,65.0,82.0
884,264.7320016666667,265.5757512166667,61.0,86.0
885,264.7320016666667,265.9373581666667,58.0,80.0
886,264.7320016666667,268.8770887416667,46.0,81.0
