,start,end,pitch,velocity
0,25.97643507916667,26.537371900000004,69.0,90.0
1,26.482462537500005,27.183364400000002,70.0,90.0
2,27.257653537500005,27.65278561666667,69.0,90.0
3,27.777677500000003,28.03392119166667,69.0,90.0
4,28.015618070833337,28.25032867916667,70.0,90.0
5,28.283704958333338,28.83495189166667,69.0,90.0
6,28.808035537500004,29.12672517083334,65.0,90.0
7,29.31083303333334,30.124783583333336,67.0,90.0
8,30.100020537500004,30.91827770416667,62.0,90.0
9,30.875211537500004,31.404925387500004,60.0,90.0
10,31.392005537500005,32.38791064166667,62.0,90.0
11,34.218222725000004,34.394794008333335,69.0,90.0
12,34.4927695375,34.75870311666667,69.0,90.0
13,34.75870311666667,35.46714155833334,70.0,85.0
14,35.526357537500004,35.90964642083334,69.0,85.0
15,36.0431515375,36.301548537500004,69.0,85.0
16,36.301548537500004,36.50180621250001,70.0,85.0
17,36.559945537500006,37.06381968750001,69.0,85.0
18,37.079969500000004,37.374972741666674,65.0,85.0
19,37.59353353750001,38.39564089166667,67.0,85.0
20,38.36872453750001,39.91372326666667,70.0,85.0
21,41.469488537500006,41.62345008333334,74.0,85.0
22,41.72788553750001,41.992742462500004,74.0,85.0
23,41.9862825375,42.16608378333334,72.0,85.0
24,42.244679537500005,42.44493721250001,72.0,85.0
25,42.50307653750001,42.67857116666667,70.0,85.0
26,42.76147353750001,43.30518389166667,72.0,85.0
27,43.27826753750001,43.43115242916667,70.0,85.0
28,43.53666453750001,44.06960835,70.0,85.0
29,44.053458537500006,45.44341906666667,67.0,85.0
30,45.603840537500005,45.675976366666674,74.0,85.0
31,45.86223753750001,46.01296912083334,74.0,85.0
32,46.12063453750001,46.24875638333334,72.0,85.0
33,46.379031537500005,46.50930669166667,72.0,85.0
34,46.63742853750001,46.74294064583334,70.0,85.0
35,46.89582553750001,47.38139656666667,72.0,85.0
36,47.41261953750001,47.50844175833334,70.0,85.0
37,47.67101653750001,48.149050987500004,70.0,85.0
38,48.187810537500006,49.59607418750001,65.0,85.0
39,49.738192537500005,49.82109490833334,74.0,85.0
40,49.99658953750001,50.17854409166667,74.0,85.0
41,50.25498653750001,50.35619202916667,72.0,85.0
42,50.513383537500005,50.68026493333334,72.0,85.0
43,50.77178053750001,51.27457803333334,70.0,85.0
44,51.288574537500004,52.04761572500001,67.0,85.0
45,52.06376553750001,52.40398825416668,74.0,85.0
46,52.45136103750001,52.76359074583334,72.0,85.0
47,52.83895653750001,53.29438125000001,70.0,85.0
48,53.35575053750001,54.073878866666675,67.0,85.0
49,54.13094153750001,54.625125800000006,62.0,85.0
50,54.647735537500004,55.699626658333344,65.0,85.0
51,59.04048453750001,59.12231025416668,70.0,85.0
52,59.29888153750001,59.39793372083334,70.0,85.0
53,59.55727853750001,60.168818104166675,70.0,85.0
54,60.33246953750001,60.763131204166676,69.0,85.0
55,60.84926353750001,61.30253494166668,70.0,85.0
56,61.36605753750001,61.903307966666674,69.0,85.0
57,61.88285153750001,62.417948658333344,65.0,85.0
58,62.39964553750001,63.142536912500006,67.0,85.0
59,63.174836537500006,63.986633779166674,62.0,85.0
60,63.950027537500006,64.22242104166668,60.0,85.0
61,64.20842453750001,66.08718605833334,62.0,85.0
62,67.3091885375,67.37594109583334,70.0,85.0
63,67.56758553750001,67.66233110416668,70.0,85.0
64,67.82598253750001,68.51396455000001,70.0,85.0
65,68.6011735375,68.87141373333334,69.0,85.0
66,69.11796753750001,69.37205792083334,69.0,85.0
67,69.37636453750001,69.54755255,70.0,85.0
68,69.63476153750001,70.15155553750002,69.0,85.0
69,70.15155553750002,70.61559348333334,65.0,85.0
70,70.6683495375,71.22928635833334,67.0,85.0
71,71.18514353750001,72.6580064375,70.0,85.0
72,74.54430453750001,74.73271901666668,74.0,85.0
73,74.80270153750001,75.05140865000001,74.0,85.0
74,75.06109853750002,75.21075346666667,72.0,85.0
75,75.31949553750002,75.4486940375,72.0,85.0
76,75.5778925375,75.79752998750001,70.0,85.0
77,75.83628953750001,76.31432398750002,72.0,85.0
78,76.35308353750001,76.5113517,70.0,85.0
79,76.61148053750001,77.13904107916667,70.0,85.0
80,77.1282745375,78.42456615416668,67.0,85.0
81,78.67865653750002,78.752945675,74.0,85.0
82,78.9370535375,79.13731121250001,74.0,85.0
83,79.19545053750001,79.28588948750001,72.0,85.0
84,79.45384753750001,79.61319235416667,72.0,85.0
85,79.71224453750001,79.87589597083334,70.0,85.0
86,79.97064153750001,80.39914989583335,72.0,85.0
87,80.4874355375,80.60694415000002,70.0,85.0
88,80.74583253750001,81.22171367916668,70.0,85.0
89,81.26262653750001,82.48247570833334,65.0,85.0
90,82.81300853750001,82.89375760000001,74.0,85.0
91,83.07140553750001,83.2845830625,74.0,85.0
92,83.32980253750002,83.45254111250001,72.0,85.0
93,83.58819953750002,83.727087925,72.0,85.0
94,83.8465965375,84.09638030416667,70.0,85.0
95,84.10499353750001,84.76713585000002,67.0,85.0
96,84.88018453750001,84.98354333750001,74.0,85.0
97,85.13858153750002,85.28500650416667,74.0,85.0
98,85.39697853750002,85.53156030833334,72.0,85.0
99,85.6553755375,85.84163670833334,72.0,85.0
100,85.91377253750001,86.15924968750001,70.0,85.0
101,86.17216953750001,86.75140947916668,67.0,85.0
102,86.68896353750002,87.16915129583334,70.0,85.0
103,87.2057575375,87.95295552916667,77.0,85.0
104,91.08171253750001,91.16784487083335,77.0,85.0
105,91.34010953750001,91.55544037083335,77.0,85.0
106,91.59850653750001,91.70186533750001,74.0,85.0
107,91.85690353750002,92.03132151250001,74.0,85.0
108,92.11530053750002,92.21973599166668,72.0,85.0
109,92.37369753750001,92.48889953333335,72.0,85.0
110,92.63209453750001,92.75375645833334,70.0,85.0
111,92.89049153750001,93.04552973750002,72.0,85.0
112,93.14888853750001,93.25763060833334,70.0,85.0
113,93.40728553750002,93.89823983750001,72.0,85.0
114,93.9240795375,94.19647304166668,74.0,85.0
115,94.18247653750001,94.73264681666669,77.0,85.0
116,94.69927053750001,95.00288701250001,74.0,85.0
117,95.21606453750002,95.32372995416668,77.0,85.0
118,95.47446153750002,95.64349624166668,77.0,85.0
119,95.73285853750001,95.85021384166669,74.0,85.0
120,95.99125553750001,96.18935990416668,74.0,85.0
121,96.24965253750001,96.36162457083334,72.0,85.0
122,96.50804953750001,96.6630877375,72.0,85.0
123,96.76644653750002,96.91179485,70.0,85.0
124,97.02484353750002,97.28970046250001,72.0,85.0
125,97.28324053750002,98.90791167500001,74.0,85.0
126,99.35041653750001,99.45808195416669,77.0,85.0
127,99.60881353750001,99.76600504583335,77.0,85.0
128,99.86721053750001,99.94688294583335,74.0,85.0
129,100.12560753750002,100.36893137916668,74.0,85.0
130,100.38400453750002,100.64024822916669,72.0,85.0
131,100.64240153750002,101.14304572500001,70.0,85.0
132,101.41759253750001,101.49618829166668,77.0,85.0
133,101.67598953750002,101.94515307916669,77.0,85.0
134,101.93438653750002,102.14002748333334,79.0,85.0
135,102.19278353750002,102.44364395833335,74.0,85.0
136,102.45118053750001,102.97335780833335,72.0,85.0
137,102.96797453750001,103.51491485416668,70.0,87.0
138,103.48476853750002,103.68825617500002,65.0,87.0
139,103.74316553750002,103.84544768333335,77.0,87.0
140,104.00156253750002,104.12753107500002,77.0,87.0
141,104.25995953750001,104.37408487916669,77.0,87.0
142,104.51835653750001,104.61956202916669,77.0,87.0
143,104.77675353750001,105.16757900000002,77.0,87.0
144,105.16434903750002,105.59393405000002,79.0,87.0
145,105.81034153750001,106.15271756250002,70.0,87.0
146,106.19793703750001,107.59866410833335,72.0,87.0
147,107.61912053750001,107.70525287083335,77.0,87.0
148,107.87751753750001,108.09284837083335,77.0,87.0
149,108.13591453750001,108.23927333750001,74.0,87.0
150,108.39431153750002,108.56872951250001,74.0,87.0
151,108.65270853750002,108.75714399166668,72.0,87.0
152,108.91110553750002,109.02630753333335,72.0,87.0
153,109.16950253750001,109.29116445833336,70.0,87.0
154,109.42789953750001,109.58293773750002,72.0,87.0
155,109.68629653750001,109.79503860833334,70.0,87.0
156,109.94469353750002,110.43564783750001,72.0,87.0
157,110.46148753750002,110.73388104166668,74.0,87.0
158,110.71988453750002,111.27005481666669,77.0,87.0
159,111.23667853750001,111.54029501250001,74.0,87.0
160,111.75347253750002,111.86113795416668,77.0,87.0
161,112.01186953750002,112.18090424166668,77.0,87.0
162,112.27026653750002,112.38762184166669,74.0,87.0
163,112.52866353750001,112.72676790416668,74.0,87.0
164,112.78706053750001,112.89903257083336,72.0,87.0
165,113.04545753750001,113.20049573750002,72.0,87.0
166,113.30385453750002,113.44920285000002,70.0,87.0
167,113.56225153750002,113.82710846250002,72.0,87.0
168,113.82064853750002,115.10402030416668,74.0,87.0
169,115.88782453750002,115.99548995416669,77.0,87.0
170,116.14622153750001,116.30341304583335,77.0,87.0
171,116.40461853750001,116.48429094583335,74.0,87.0
172,116.66301553750002,116.90633937916668,74.0,87.0
173,116.92141253750002,117.17765622916669,72.0,87.0
174,117.17980953750002,117.68045372500002,70.0,87.0
175,117.95500053750001,118.03359629166668,77.0,87.0
176,118.21339753750001,118.48256107916669,77.0,87.0
177,118.47179453750002,118.67743548333335,79.0,87.0
178,118.73019153750002,118.98105195833335,74.0,87.0
179,118.98858853750002,119.51076580833335,72.0,87.0
180,119.50538253750001,120.05232285416669,70.0,87.0
181,120.28057353750002,120.38285568333335,77.0,87.0
182,120.53897053750002,120.66493907500002,77.0,87.0
183,120.79736753750002,120.91149287916669,77.0,87.0
184,121.05576453750001,121.15697002916669,77.0,87.0
185,121.31416153750001,121.70498700000002,77.0,87.0
186,121.70175703750002,122.13134205000001,79.0,87.0
187,122.34774953750002,122.69012556250001,70.0,87.0
188,122.73534503750001,123.53745239166669,72.0,87.0
189,123.51053603750002,124.30187685000001,74.0,87.0
190,124.28572703750002,124.61733652083335,72.0,87.0
191,124.80252103750001,125.79734948750001,72.0,87.0
192,125.70691053750002,127.32296844166669,70.0,87.0
193,147.94212449375001,148.1565639916667,69.0,87.0
194,148.20074499375002,148.51647752083335,69.0,87.0
195,148.45936549375003,149.16087360000003,70.0,87.0
196,149.23522699375002,149.63070084166668,69.0,87.0
197,149.75246799375003,150.0089333229167,69.0,87.0
198,150.01108849375004,150.24600211458335,70.0,87.0
199,150.26970899375002,150.82143272708336,69.0,87.0
200,150.78694999375003,151.10591527708337,65.0,87.0
201,151.30419099375,152.11884556875003,67.0,87.0
202,151.95074224375003,152.6759572291667,62.0,87.0
203,152.85591399375002,153.11992242083335,60.0,87.0
204,153.11453449375003,154.1113010041667,62.0,87.0
205,156.21798049375002,156.39470450208336,69.0,87.0
206,156.47660099375003,156.74276459166668,69.0,87.0
207,156.73522149375003,157.4442726979167,70.0,87.0
208,157.51108299375002,157.89470340208337,69.0,87.0
209,158.02832399375004,158.28694449375,69.0,90.0
210,158.28694449375,158.48737538125002,70.0,90.0
211,158.54556499375002,159.04987496875003,69.0,90.0
212,159.06280599375003,159.3580643979167,65.0,90.0
213,159.32142649375004,160.12422762916668,67.0,90.0
214,160.09728799375003,161.6436230666667,70.0,90.0
215,163.45935449375003,163.61344920833335,74.0,90.0
216,163.71797499375003,163.98306100625004,74.0,90.0
217,163.97659549375004,164.15655225833336,72.0,90.0
218,164.23521599375002,164.43564688125002,72.0,90.0
219,164.49383649375002,164.6694829166667,70.0,90.0
220,164.75245699375003,165.2966376291667,72.0,90.0
221,165.26969799375001,165.42271512291669,70.0,90.0
222,165.52831849375002,166.06172327500002,70.0,90.0
223,166.04555949375003,167.4367222666667,67.0,90.0
224,167.59728249375001,167.6694807166667,74.0,90.0
225,167.85590299375002,168.00676495208336,74.0,90.0
226,168.11452349375003,168.24275615833335,72.0,90.0
227,168.37314399375003,168.5035318291667,72.0,90.0
228,168.63176449375004,168.73736786458335,70.0,90.0
229,168.89038499375002,169.3763760166667,72.0,90.0
230,169.40762599375003,169.50353109583335,70.0,90.0
231,169.66624649375004,170.14469441875002,70.0,90.0
232,170.18348749375002,171.59296921875003,65.0,90.0
233,171.73521049375003,171.81818457083335,74.0,90.0
234,171.99383099375004,172.1759429291667,74.0,90.0
235,172.25245149375002,172.35374452291668,72.0,90.0
236,172.51107199375002,172.67809773333335,72.0,90.0
237,172.76969249375003,173.09620087500002,70.0,90.0
238,173.02831299375003,173.6727090729167,67.0,90.0
239,173.80417449375003,174.02507950416668,74.0,90.0
240,174.06279499375003,174.29124310208337,74.0,90.0
241,174.32141549375004,174.43132920625004,72.0,90.0
242,174.45072574375,174.76322551458335,72.0,90.0
243,174.83865649375002,175.08003562708336,70.0,90.0
244,175.09727699375003,175.6317593604167,67.0,90.0
245,175.61451799375004,176.10912970000004,70.0,90.0
246,176.13175899375003,177.60481825833335,77.0,90.0
247,180.01106649375004,180.09727332708337,77.0,90.0
248,180.26968699375004,180.48520407708335,77.0,90.0
249,180.52830749375002,180.63175569375002,74.0,90.0
250,180.78692799375003,180.96149683125003,74.0,90.0
251,181.04554849375003,181.1500742791667,72.0,90.0
252,181.30416899375,181.41947063333336,72.0,90.0
253,181.56278949375002,181.68455664583337,70.0,90.0
254,181.82140999375002,181.97658229375003,72.0,90.0
255,182.08003049375003,182.18886662083335,70.0,90.0
256,182.33865099375004,182.83002994375002,72.0,90.0
257,182.85589199375002,183.12852110416668,74.0,90.0
258,183.11451249375003,183.6651586416667,77.0,90.0
259,183.63175349375,183.93563258125002,74.0,90.0
260,184.14899449375002,184.2567530354167,77.0,90.0
261,184.40761499375003,184.5767959041667,77.0,90.0
262,184.66623549375004,184.7836923041667,74.0,90.0
263,184.92485599375004,185.1231317104167,74.0,90.0
264,185.18347649375002,185.29554537708336,72.0,90.0
265,185.44209699375003,185.59726929375003,72.0,90.0
266,185.70071749375003,185.84619152500002,70.0,90.0
267,185.95933799375,186.22442400625002,72.0,90.0
268,186.21795849375002,187.5024403104167,74.0,90.0
269,188.28692249375,188.39468103541668,77.0,90.0
270,188.54554299375002,188.70287046458336,77.0,90.0
271,188.80416349375002,188.88390481458336,74.0,90.0
272,189.06278399375003,189.3063182979167,74.0,90.0
273,189.32140449375004,189.76968002708335,72.0,90.0
274,189.70933524375002,190.21041246250002,70.0,90.0
275,190.35588649375003,190.4345502291667,77.0,90.0
276,190.61450699375,190.88390334791669,77.0,90.0
277,190.87312749375002,191.07894630833337,79.0,90.0
278,191.13174799375003,191.38282539583338,74.0,90.0
279,191.39036849375003,191.91299742083336,72.0,90.0
280,191.90760949375004,192.42808325000004,70.0,90.0
281,192.42485049375003,192.6813158229167,65.0,90.0
282,192.68347099375003,192.78584160833336,77.0,90.0
283,192.94209149375,193.06816898750003,77.0,90.0
284,193.20071199375002,193.3149360479167,77.0,90.0
285,193.45933249375003,193.5606255229167,77.0,90.0
286,193.71795299375003,194.10911650000003,77.0,90.0
287,194.10588374375004,194.53584032500004,79.0,90.0
288,194.75243499375003,195.09510715625004,70.0,90.0
289,195.14036574375004,195.76967562708336,72.0,90.0
290,196.56277849375005,196.64898532708335,77.0,90.0
291,196.82139899375002,197.03691607708336,77.0,90.0
292,197.08001949375003,197.18346769375003,74.0,90.0
293,197.33863999375004,197.51320883125004,74.0,90.0
294,197.59726049375,197.7017862791667,72.0,90.0
295,197.85588099375002,197.97118263333334,72.0,90.0
296,198.11450149375003,198.23626864583338,70.0,90.0
297,198.37312199375003,198.52829429375004,72.0,90.0
298,198.63174249375004,198.74057862083336,70.0,90.0
299,198.89036299375005,199.38174194375003,72.0,90.0
300,199.40760399375003,199.6802331041667,74.0,90.0
301,199.66622449375004,200.2168706416667,77.0,90.0
302,200.18346549375002,200.48734458125003,74.0,90.0
303,200.70070649375003,200.8084650354167,77.0,90.0
304,200.95932699375004,201.1285079041667,77.0,90.0
305,201.21794749375005,201.3354043041667,74.0,90.0
306,201.47656799375002,201.6748437104167,74.0,90.0
307,201.73518849375003,201.84725737708337,72.0,90.0
308,201.99380899375,202.14898129375,72.0,90.0
309,202.25242949375001,202.39790352500003,70.0,90.0
310,202.51104999375002,202.77613600625003,72.0,90.0
311,202.76967049375003,204.0541523104167,74.0,90.0
312,204.83863449375002,204.9463930354167,77.0,90.0
313,205.09725499375003,205.25458246458336,77.0,90.0
314,205.35587549375003,205.43561681458337,74.0,90.0
315,205.61449599375004,205.85803029791668,74.0,90.0
316,205.87311649375005,206.32139202708336,72.0,90.0
317,206.26104724375003,206.76212446250003,70.0,90.0
318,206.90759849375002,206.9862622291667,77.0,90.0
319,207.16621899375002,207.4356153479167,77.0,90.0
320,207.42483949375003,207.63065830833335,79.0,90.0
321,207.68345999375003,207.93453739583336,74.0,90.0
322,207.94208049375004,208.46470942083334,72.0,90.0
323,208.45932149375002,209.00673488541668,70.0,90.0
324,209.23518299375002,209.33755360833337,77.0,90.0
325,209.49380349375002,209.61988098750004,77.0,90.0
326,209.75242399375003,209.8666480479167,77.0,90.0
327,210.01104449375003,210.11233752291668,77.0,90.0
328,210.26966499375004,210.66082850000004,77.0,90.0
329,210.65759574375005,211.08755232500005,79.0,90.0
330,211.30414699375,211.64681915625005,70.0,90.0
331,211.69207774375002,212.4948788791667,72.0,90.0
332,212.46793924375004,213.25996452500004,74.0,90.0
333,213.24380074375003,213.57569705208334,72.0,90.0
334,213.76104174375,214.75673066875004,72.0,90.0
335,214.66621349375004,216.2836692041667,70.0,90.0
336,218.02827999375003,218.24379707708334,69.0,90.0
337,218.54552099375002,218.7815122,69.0,90.0
338,218.93345174375003,219.38280486250002,69.0,90.0
339,219.32138249375004,219.60263228750003,74.0,90.0
340,219.83862349375005,220.17698531458336,74.0,90.0
341,220.35586449375003,220.62095050625004,74.0,90.0
342,220.61448499375,221.13819150625002,75.0,90.0
343,221.13172599375002,221.72332038750002,72.0,90.0
344,222.16620799375005,222.43883710416668,72.0,90.0
345,222.42482849375003,222.68344899375003,70.0,90.0
346,222.68344899375003,223.04120735208335,72.0,90.0
347,223.07137974375001,223.73409477500002,74.0,90.0
348,223.97655149375004,224.24487026250003,67.0,90.0
349,224.23517199375004,225.26965399375,70.0,90.0
350,226.30413599375004,226.44529968333336,69.0,90.0
351,226.56275649375004,226.69098915833337,69.0,90.0
352,226.82137699375005,226.98516997708336,69.0,90.0
353,227.20930774375003,227.36663521458337,69.0,90.0
354,227.59723849375,227.7761176729167,69.0,90.0
355,227.85585899375002,228.13387603125003,74.0,90.0
356,228.37309999375003,228.66620322708337,74.0,90.0
357,228.63172049375004,228.84723757708338,75.0,90.0
358,228.89034099375004,229.3795647729167,74.0,90.0
359,229.40758199375003,229.90434887083336,72.0,90.0
360,229.92482299375,231.02288253333336,70.0,90.0
361,231.73516649375003,231.93559738125003,67.0,90.0
362,231.99378699375004,232.33645915625004,70.0,90.0
363,232.51102799375002,232.70499336875002,67.0,90.0
364,232.76964849375003,233.08322585000002,70.0,90.0
365,233.28688949375004,234.0605958229167,79.0,90.0
366,234.32137149375004,237.88063612500002,77.0,90.0
367,242.07998649375003,242.18020193750004,78.0,90.0
368,242.33860699375003,242.53796029583336,78.0,90.0
369,242.59722749375004,242.68666708333336,75.0,90.0
370,242.85584799375005,242.99485651250004,75.0,90.0
371,243.11446849375002,243.22007186458336,73.0,90.0
372,243.37308899375003,243.56705436875004,73.0,90.0
373,243.63170949375004,243.83752830833336,71.0,90.0
374,243.89032999375002,244.0724419291667,73.0,90.0
375,244.14895049375002,244.36554516250004,71.0,90.0
376,244.40757099375003,244.65972598125003,73.0,90.0
377,244.66619149375003,245.21791522708338,75.0,90.0
378,245.18343249375005,245.68882005416668,78.0,90.0
379,245.70067349375003,246.04334565625004,75.0,90.0
380,246.21791449375002,246.32136269375002,78.0,90.0
381,246.47653499375002,246.60800041458336,78.0,90.0
382,246.73515549375003,246.8267502541667,75.0,90.0
383,246.99377599375003,247.1435603666667,75.0,90.0
384,247.25239649375004,247.3601550354167,73.0,90.0
385,247.51101699375005,247.68558583125002,73.0,90.0
386,247.76963749375003,247.9873097479167,71.0,90.0
387,248.02825799375003,248.25455093125004,73.0,90.0
388,248.28687849375004,249.6877395354167,75.0,90.0
389,250.35584249375003,250.4829975729167,78.0,90.0
390,250.61446299375,250.76855770833336,78.0,90.0
391,250.87308349375002,251.0293333791667,75.0,90.0
392,251.13170399375002,251.27394526875003,75.0,90.0
393,251.39032449375003,251.91403100625,73.0,90.0
394,252.03687574375004,252.29549624375005,71.0,90.0
395,252.42480649375003,252.57351328125003,78.0,90.0
396,252.68342699375003,252.85691824583336,78.0,90.0
397,252.94204749375,253.16403008958338,80.0,90.0
398,253.20066799375002,253.43881437083337,75.0,90.0
399,253.45928849375002,253.8450640729167,73.0,90.0
400,253.97652949375004,254.23299482291668,71.0,90.0
401,254.49377049375005,254.72760652916668,66.0,90.0
402,254.75239099375003,254.89139951250002,78.0,90.0
403,255.01101149375003,255.1155372791667,78.0,90.0
404,255.26963199375,255.37200260833336,78.0,90.0
405,255.52825249375002,255.63493345000003,78.0,90.0
406,255.78687299375002,256.05195900625006,78.0,90.0
407,256.04549349375003,256.8095015541667,80.0,90.0
408,256.82135499375005,257.12307891041667,71.0,90.0
409,257.07997549375,258.37092282291667,73.0,90.0
410,258.63169849375004,258.73191393750005,78.0,90.0
411,258.89031899375004,259.08967229583334,78.0,90.0
412,259.14893949375005,259.23837908333337,75.0,90.0
413,259.40755999375006,259.5465685125,75.0,90.0
414,259.66618049375006,259.77178386458337,73.0,90.0
415,259.92480099375,260.11876636875,73.0,90.0
416,260.18342149375,260.38924030833334,71.0,90.0
417,260.44204199375,260.6241539291667,73.0,90.0
418,260.70066249375003,260.91725716250005,71.0,90.0
419,260.95928299375004,261.21143798125,73.0,90.0
420,261.21790349375004,261.76962722708333,75.0,90.0
421,261.73514449375,262.2405320541667,78.0,90.0
422,262.25238549375,262.59505765625,75.0,90.0
423,262.76962649375,262.87307469375,78.0,90.0
424,263.02824699375003,263.1597124145834,78.0,90.0
425,263.28686749375004,263.3784622541667,75.0,90.0
426,263.54548799375004,263.6952723666667,75.0,90.0
427,263.80410849375005,263.91186703541666,73.0,90.0
428,264.06272899375006,264.23729783125003,73.0,90.0
429,264.32134949375006,264.5390217479167,71.0,90.0
430,264.57996999375007,264.80626293125,73.0,90.0
431,264.83859049375,266.2394515354167,75.0,90.0
432,266.90755449375,267.0347095729167,78.0,90.0
433,267.16617499375,267.3202697083334,78.0,90.0
434,267.42479549375,267.5810453791667,75.0,90.0
435,267.68341599375003,267.82565726875004,75.0,90.0
436,267.94203649375004,268.46574300625,73.0,90.0
437,268.58858774375005,268.84720824375006,71.0,90.0
438,268.97651849375006,269.12522528125004,78.0,90.0
439,269.23513899375007,269.40863024583336,78.0,90.0
440,269.49375949375,269.7157420895834,80.0,90.0
441,269.75237999375,269.9905263708334,75.0,90.0
442,270.01100049375003,270.39677607291674,73.0,90.0
443,270.52824149375004,270.7847068229167,71.0,90.0
444,271.30410299375,271.4431115125,78.0,90.0
445,271.56272349375,271.6672492791667,78.0,90.0
446,271.82134399375,271.9237146083334,78.0,90.0
447,272.07996449375,272.18664545,78.0,90.0
448,272.33858499375003,272.60367100625,78.0,90.0
449,272.59720549375004,273.36121355416674,80.0,90.0
450,273.37306699375006,273.67479091041673,71.0,90.0
451,273.63168749375006,274.92263482291673,73.0,90.0
452,274.64677295625006,275.32888452500003,75.0,90.0
453,275.3213414270833,275.79655659583335,73.0,90.0
454,275.8827634291667,276.4269440645834,73.0,90.0
455,276.4290992354167,279.13707138750004,71.0,90.0
