,start,end,pitch,velocity
0,7.075771183333335,7.267415625000001,58.0,76.0
1,6.819527491666667,7.432143712500001,55.0,53.0
2,7.342781416666668,7.634554695833335,58.0,57.0
3,6.5858935375000005,7.6743909000000015,43.0,80.0
4,7.354624612500001,7.736836841666668,63.0,83.0
5,7.348164687500001,7.741143458333334,60.0,83.0
6,7.844502258333335,8.679985891666668,58.0,83.0
7,7.840195641666668,8.689675779166668,62.0,83.0
8,8.661682770833334,10.075329691666669,39.0,80.0
9,9.386271025000001,10.135622325000002,58.0,83.0
10,9.389500987500002,10.163615333333334,63.0,83.0
11,8.893163416666669,10.171151912500001,51.0,65.0
12,9.1214141,10.1776118375,55.0,68.0
13,10.683639295833334,11.912101700000001,41.0,83.0
14,11.182130175000001,11.961627791666668,60.0,83.0
15,11.185360137500002,12.025150387500002,63.0,83.0
16,10.921579866666669,12.101592833333335,53.0,76.0
17,12.231867987500001,14.075099920833335,62.0,83.0
18,12.236174604166669,14.077253229166669,58.0,76.0
19,12.240481220833335,14.091249733333335,55.0,83.0
20,15.371391537500003,15.691157825000003,62.0,83.0
21,15.11407119166667,15.867729108333336,55.0,83.0
22,15.629788537500001,16.304850700000003,67.0,83.0
23,16.146582537500002,16.474962058333336,55.0,83.0
24,14.854597537500002,16.488958562500002,43.0,83.0
25,16.4049795375,16.716132591666668,70.0,83.0
26,16.921773537500002,17.34597527916667,56.0,83.0
27,16.921773537500002,17.392271408333336,60.0,83.0
28,16.921773537500002,17.434260920833335,65.0,83.0
29,16.921773537500002,17.438567537500003,68.0,83.0
30,17.438567537500003,17.84661946666667,56.0,83.0
31,17.6969645375,18.068410225,68.0,83.0
32,17.6969645375,18.078100112500003,65.0,83.0
33,17.6969645375,18.08886665416667,60.0,83.0
34,16.921773537500002,18.739165770833335,44.0,83.0
35,18.213758537500002,18.775772012500003,60.0,83.0
36,18.213758537500002,18.779001975000003,65.0,83.0
37,18.213758537500002,18.788691862500002,68.0,83.0
38,17.955361537500004,18.798381750000004,56.0,83.0
39,18.9889495375,19.634942037500004,46.0,83.0
40,18.9889495375,19.644631925000002,58.0,83.0
41,18.9889495375,19.644631925000002,62.0,83.0
42,18.9889495375,19.650015195833337,65.0,83.0
43,18.9889495375,19.650015195833337,68.0,83.0
44,20.022537537500003,20.20449209166667,46.0,83.0
45,20.022537537500003,20.20449209166667,65.0,83.0
46,20.022537537500003,20.20449209166667,68.0,83.0
47,20.022537537500003,20.20772205416667,58.0,83.0
48,20.022537537500003,20.20772205416667,60.0,83.0
49,20.539331537500004,22.72063287916667,60.0,83.0
50,20.539331537500004,22.726016150000003,53.0,83.0
51,20.539331537500004,22.734629383333335,41.0,83.0
52,20.539331537500004,22.7357060375,69.0,83.0
53,20.539331537500004,22.742165962500003,65.0,83.0
54,25.943058800000003,26.23160211666667,58.0,72.0
55,26.18745929583334,28.058684237500003,60.0,83.0
56,25.691121725000002,29.080429041666672,53.0,53.0
57,25.45318115416667,29.084735658333337,46.0,83.0
58,28.866174862500003,29.133185095833337,58.0,83.0
59,29.100885470833337,29.39696536666667,60.0,83.0
60,30.124783583333336,30.65665074166667,58.0,83.0
61,29.855620041666672,30.677107170833338,55.0,83.0
62,30.629734387500005,31.40277207916667,60.0,76.0
63,31.392005537500005,31.679472200000003,65.0,83.0
64,31.655785808333338,31.860350100000005,58.0,76.0
65,31.920642733333338,32.217799283333335,60.0,83.0
66,32.181193041666674,32.30823823333334,62.0,80.0
67,32.38791064166667,32.678607266666674,53.0,83.0
68,32.62692786666667,33.15771837083334,55.0,83.0
69,32.913317875000004,33.162024987500004,57.0,83.0
70,33.139415250000006,33.3752025125,58.0,80.0
71,29.344209312500006,34.09440749583334,43.0,83.0
72,29.583226537500003,34.09656080416667,50.0,76.0
73,33.41611537083334,34.52937577916667,62.0,80.0
74,33.933986025,34.52937577916667,62.0,83.0
75,33.67558902500001,36.02269510833334,58.0,83.0
76,34.19668964166667,36.16266015000001,65.0,83.0
77,34.718866912500005,36.163736804166675,70.0,68.0
78,36.297241920833336,36.77850633333334,62.0,83.0
79,36.06468462083334,36.805422687500005,58.0,57.0
80,33.42257529583334,36.89478498333334,46.0,83.0
81,36.571788733333335,37.1316489,65.0,83.0
82,36.81834253750001,37.1348788625,70.0,53.0
83,37.1058092,37.3545163125,62.0,55.0
84,37.3868159375,37.55046737083334,65.0,68.0
85,38.15124039583334,38.326735025000005,58.0,80.0
86,37.890690087500005,38.72940368333334,55.0,57.0
87,38.39994750833334,39.17621516250001,62.0,57.0
88,39.14283888333334,40.64692475416667,67.0,83.0
89,38.89520842500001,40.75889678750001,55.0,76.0
90,39.915876575000006,40.75889678750001,55.0,76.0
91,37.64090632083334,40.76751002083334,43.0,68.0
92,39.66824611666667,40.76751002083334,43.0,80.0
93,40.979610891666674,41.71604234166667,62.0,72.0
94,40.187193425000004,41.721425612500006,58.0,65.0
95,41.72788553750001,42.323275291666675,43.0,83.0
96,41.732192154166675,42.341578412500006,62.0,68.0
97,41.74188204166667,42.425557437500004,69.0,55.0
98,41.737575425,42.42771074583334,65.0,83.0
99,42.50953646250001,43.02417715416667,60.0,83.0
100,42.50199988333334,43.20613170833334,67.0,68.0
101,42.481543454166676,43.210438325000005,41.0,83.0
102,42.49769326666667,43.239507987500005,65.0,83.0
103,43.285804116666675,43.81013469583334,65.0,32.0
104,43.2911873875,43.87258063750001,62.0,65.0
105,43.27396092083334,43.909186879166676,38.0,83.0
106,43.300877275000005,43.94040985000001,69.0,61.0
107,44.0405386875,44.66499810416667,60.0,72.0
108,44.031925454166675,44.7543604,64.0,83.0
109,44.02438887500001,44.76297363333334,67.0,61.0
110,44.02761883750001,44.80496314583334,36.0,83.0
111,44.83187950000001,45.74272892500001,62.0,83.0
112,44.84372269583334,45.74595888750001,69.0,76.0
113,44.836186116666674,45.75026550416667,65.0,83.0
114,44.82111295833334,45.936526675,38.0,83.0
115,45.798714941666674,46.43609420833334,60.0,83.0
116,45.80302155833334,46.44793740416667,67.0,76.0
117,45.794408325000006,46.457627291666675,64.0,83.0
118,45.78687174583334,46.54914289583334,36.0,83.0
119,46.53945300833334,47.43630592916667,65.0,83.0
120,46.54375962500001,47.445995816666674,62.0,83.0
121,46.55775612916667,47.44814912500001,69.0,76.0
122,46.53514639166667,47.756072216666674,38.0,83.0
123,47.759302179166674,47.95417658333334,70.0,61.0
124,47.99508944166667,48.26963625416667,67.0,83.0
125,48.24487320833334,48.39668144583334,65.0,80.0
126,48.44620753750001,49.903997279166674,77.0,83.0
127,49.99658953750001,50.278672929166675,36.0,83.0
128,50.23453010833334,50.538146583333344,48.0,80.0
129,50.481083912500004,50.74917080000001,51.0,83.0
130,50.83637978750001,51.04525069583334,58.0,65.0
131,50.80192685416667,51.07324370416667,62.0,83.0
132,51.29288115416667,51.67617003750001,57.0,83.0
133,51.288574537500004,51.78275880000001,60.0,83.0
134,51.80213857500001,52.058382266666676,58.0,49.0
135,51.81505842500001,52.06914880833334,55.0,83.0
136,52.04653907083334,52.498733820833344,36.0,83.0
137,52.300629454166675,52.61501247083334,43.0,49.0
138,52.58055953750001,52.89386590000001,48.0,83.0
139,52.84433980833334,53.13611308750001,50.0,83.0
140,53.06613056666667,53.338524070833344,51.0,83.0
141,53.34498399583334,53.55170159583334,55.0,83.0
142,53.579694604166676,54.06741894166667,58.0,83.0
143,54.135248154166675,55.59411455000001,53.0,83.0
144,54.12340495833334,55.59734451250001,41.0,83.0
145,54.12663492083334,55.60272778333334,57.0,83.0
146,54.13094153750001,55.60703440000001,60.0,83.0
147,58.78208753750001,59.52820887500001,55.0,57.0
148,59.29888153750001,59.97502035416667,62.0,76.0
149,59.29888153750001,59.98363358750001,58.0,83.0
150,59.29888153750001,59.99117016666668,67.0,83.0
151,59.815675537500006,60.21296092500001,55.0,45.0
152,60.07407253750001,61.15826328333334,67.0,83.0
153,60.07407253750001,61.16579986250001,62.0,83.0
154,60.07407253750001,61.17871971250001,58.0,83.0
155,60.84926353750001,61.38974392916668,55.0,65.0
156,58.26529353750001,61.751499729166675,43.0,83.0
157,61.36605753750001,61.780569391666674,62.0,83.0
158,61.62445453750001,61.82901882916668,55.0,83.0
159,61.36605753750001,61.862395108333345,67.0,83.0
160,61.88285153750001,62.152015079166674,58.0,83.0
161,62.14124853750001,62.349042791666676,62.0,53.0
162,62.91643953750001,63.01872168333334,53.0,45.0
163,62.65804253750001,63.337411316666675,50.0,72.0
164,63.174836537500006,64.21380780833334,57.0,83.0
165,63.174836537500006,64.21596111666668,62.0,83.0
166,63.174836537500006,64.22457435000001,53.0,83.0
167,63.69163053750001,64.7639780875,50.0,65.0
168,64.72521853750001,65.26569892916667,53.0,83.0
169,64.72521853750001,65.37336434583334,62.0,83.0
170,64.72521853750001,65.39489742916668,57.0,83.0
171,65.2420125375,65.51871265833334,50.0,83.0
172,65.5004095375,65.58977183333334,62.0,36.0
173,62.39964553750001,65.632838,38.0,76.0
174,65.5004095375,65.89877157916668,53.0,72.0
175,66.01720353750001,66.34342975000001,62.0,51.0
176,65.7588065375,66.35850290833335,57.0,83.0
177,66.27560053750001,66.45863174583334,53.0,76.0
178,66.79239453750002,67.67955757083334,48.0,83.0
179,67.0507915375,68.03162348333335,51.0,83.0
180,67.3091885375,68.05961649166667,55.0,83.0
181,67.3091885375,68.06176980000001,60.0,83.0
182,66.53399753750001,68.27494732500001,36.0,68.0
183,68.34277653750001,68.52257778333335,55.0,76.0
184,68.34277653750001,68.55164744583334,51.0,83.0
185,68.08437953750001,68.55703071666667,48.0,51.0
186,68.34277653750001,68.57318052916668,60.0,83.0
187,69.11796753750001,69.26654581250001,62.0,47.0
188,69.11796753750001,69.51202296250001,53.0,76.0
189,69.37636453750001,69.54324593333334,62.0,18.0
190,69.11796753750001,69.5507825125,57.0,65.0
191,68.8595705375,69.73058375833334,50.0,83.0
192,69.63476153750001,69.90069511666668,53.0,83.0
193,69.63476153750001,70.07403643750001,57.0,83.0
194,68.6011735375,70.08480297916668,38.0,76.0
195,69.63476153750001,70.43256227500001,62.0,83.0
196,70.15155553750002,70.43471558333334,53.0,72.0
197,69.89315853750001,70.46593855416668,50.0,83.0
198,70.4099525375,70.62743667916668,57.0,49.0
199,71.18514353750001,71.35633155000001,58.0,61.0
200,70.92674653750001,71.80960295416668,55.0,57.0
201,71.44354053750001,71.89681194166668,58.0,76.0
202,71.44354053750001,71.90973179166667,67.0,83.0
203,71.44354053750001,71.91942167916667,62.0,83.0
204,71.9603345375,72.099222925,58.0,83.0
205,70.6683495375,72.22842142500001,43.0,83.0
206,72.2187315375,72.49866162083335,55.0,83.0
207,72.47712853750001,72.73337222916668,65.0,83.0
208,72.95946960416667,73.21571329583334,55.0,83.0
209,73.25231953750001,73.50856322916668,58.0,83.0
210,73.53440292916667,73.86708906666668,65.0,83.0
211,73.53117296666667,73.86816572083335,60.0,83.0
212,74.01351403333334,74.46463212916667,60.0,83.0
213,74.00920741666668,74.47001540000001,65.0,83.0
214,72.719375725,74.52384810833334,43.0,83.0
215,75.31949553750002,75.64787505833334,62.0,53.0
216,75.06109853750002,76.13452274166667,55.0,43.0
217,75.83628953750001,76.50273846666667,70.0,68.0
218,75.83628953750001,76.54365132500001,67.0,68.0
219,75.83628953750001,76.54688128750001,62.0,76.0
220,76.35308353750001,76.72775918750001,55.0,65.0
221,76.61148053750001,77.27254619583334,70.0,83.0
222,76.61148053750001,77.28869600833335,62.0,83.0
223,76.61148053750001,77.36406180000002,67.0,83.0
224,77.64506853750001,77.70213120833334,70.0,65.0
225,77.1282745375,77.74627402916667,55.0,65.0
226,77.64506853750001,77.76996042083334,67.0,72.0
227,77.64506853750001,77.80226004583335,62.0,83.0
228,74.80270153750001,77.8130265875,50.0,83.0
229,77.90346553750001,78.22107851666668,70.0,83.0
230,77.90346553750001,78.22215517083335,62.0,83.0
231,77.90346553750001,78.3201307,67.0,83.0
232,78.42025953750002,78.46978562916668,70.0,42.0
233,78.42025953750002,78.51392845000001,62.0,83.0
234,78.42025953750002,78.52469499166668,67.0,68.0
235,78.16186253750001,78.74433244166667,50.0,61.0
236,79.19545053750001,79.36879185833334,60.0,47.0
237,79.97064153750001,80.54772817083334,69.0,83.0
238,79.97064153750001,80.58002779583335,60.0,83.0
239,79.97064153750001,80.58648772083335,65.0,83.0
240,78.9370535375,81.42950793333334,53.0,83.0
241,80.74583253750001,81.75035087500001,69.0,65.0
242,80.74583253750001,81.76434737916668,60.0,83.0
243,80.74583253750001,81.76973065000001,65.0,83.0
244,81.77942053750002,82.12933314166668,53.0,61.0
245,82.03781753750002,82.32636085416668,60.0,83.0
246,82.03781753750002,82.37588694583334,69.0,83.0
247,82.03781753750002,82.58045123750001,65.0,83.0
248,82.2962145375,82.60413762916667,53.0,45.0
249,82.55461153750001,82.667660225,69.0,34.0
250,82.55461153750001,82.91744399166667,60.0,80.0
251,82.81300853750001,83.05740903333334,65.0,83.0
252,83.32980253750002,84.32463098750002,55.0,49.0
253,83.8465965375,84.71437979583335,67.0,83.0
254,83.8465965375,84.72299302916667,63.0,83.0
255,83.8465965375,84.74667942083335,60.0,83.0
256,83.07140553750001,84.95124371250002,48.0,83.0
257,84.62178753750001,84.95447367500002,55.0,51.0
258,84.88018453750001,85.24732360833335,63.0,83.0
259,84.88018453750001,85.36252560416668,60.0,83.0
260,84.88018453750001,85.42174158333334,67.0,83.0
261,85.39697853750002,86.08388389583335,55.0,57.0
262,85.91377253750001,86.55222845833335,63.0,80.0
263,85.91377253750001,86.55761172916668,67.0,83.0
264,85.91377253750001,86.56514830833335,60.0,83.0
265,85.13858153750002,86.82569861666668,48.0,83.0
266,86.43056653750001,86.82892857916669,55.0,83.0
267,86.68896353750002,87.0830189625,67.0,83.0
268,86.68896353750002,87.09270885000001,63.0,83.0
269,86.68896353750002,87.10885866250001,60.0,83.0
270,87.46415453750001,88.26626189166667,53.0,76.0
271,87.98094853750001,88.86595826250002,69.0,83.0
272,87.98094853750001,88.88318472916669,65.0,83.0
273,87.98094853750001,88.89287461666667,60.0,83.0
274,89.0145365375,89.09313229166668,69.0,76.0
275,89.0145365375,89.10282217916668,65.0,76.0
276,87.2057575375,89.11035875833335,41.0,80.0
277,89.0145365375,89.11251206666668,60.0,76.0
278,88.75613953750002,89.17603466250002,53.0,68.0
279,89.78972753750001,89.85971005833335,65.0,47.0
280,89.78972753750001,89.86078671250002,69.0,45.0
281,89.78972753750001,89.89846960833334,60.0,61.0
282,89.53133053750001,90.3775807125,53.0,80.0
283,90.04812453750002,90.64351429166668,60.0,83.0
284,90.04812453750002,90.66289406666668,69.0,83.0
285,90.04812453750002,90.66935399166668,65.0,83.0
286,89.27293353750001,90.94067084166667,41.0,83.0
287,90.5649185375,90.99127358750002,53.0,65.0
288,90.82331553750001,90.99342689583335,69.0,76.0
289,90.82331553750001,91.00634674583334,60.0,83.0
290,90.82331553750001,91.01388332500001,65.0,83.0
291,91.34010953750001,91.59635322916668,58.0,43.0
292,91.34010953750001,91.59635322916668,62.0,45.0
293,91.34010953750001,91.59635322916668,65.0,38.0
294,91.34010953750001,91.85475022916668,46.0,83.0
295,91.85690353750002,92.53088904583335,58.0,53.0
296,92.37369753750001,92.88833822916668,70.0,83.0
297,92.37369753750001,92.88941488333334,65.0,83.0
298,92.37369753750001,92.93463435833334,62.0,76.0
299,92.89049153750001,93.23179090833335,58.0,47.0
300,93.14888853750001,93.27593372916668,65.0,61.0
301,93.14888853750001,93.27808703750001,62.0,65.0
302,93.14888853750001,93.28454696250002,70.0,57.0
303,93.66568253750002,93.87455344583334,58.0,61.0
304,93.9240795375,94.36981436250001,58.0,47.0
305,94.18247653750001,94.74556666666668,70.0,83.0
306,94.18247653750001,94.75956317083335,65.0,83.0
307,94.18247653750001,94.79186279583335,62.0,83.0
308,94.69927053750001,94.90383482916668,58.0,68.0
309,93.40728553750002,95.00396366666668,46.0,83.0
310,94.95766753750001,95.14500536250002,70.0,76.0
311,95.21606453750002,95.30435017916668,70.0,51.0
312,94.95766753750001,95.34095642083335,65.0,83.0
313,94.95766753750001,95.35602957916667,62.0,83.0
314,95.73285853750001,96.64047800000002,55.0,57.0
315,96.50804953750001,96.92148473750001,58.0,83.0
316,96.50804953750001,97.03884004166667,67.0,83.0
317,96.50804953750001,97.07975290000002,62.0,83.0
318,95.47446153750002,97.34137986250002,43.0,83.0
319,97.02484353750002,97.36291294583334,55.0,45.0
320,97.28324053750002,97.39951918750002,62.0,83.0
321,97.28324053750002,97.42751219583334,67.0,76.0
322,97.28324053750002,97.43612542916668,58.0,83.0
323,97.80003453750001,97.99813890416668,55.0,65.0
324,98.05843153750001,98.47186673750001,55.0,43.0
325,98.31682853750002,98.87991866666668,58.0,83.0
326,98.31682853750002,98.88637859166668,62.0,83.0
327,98.31682853750002,98.89822178750002,67.0,83.0
328,97.54163753750001,99.07586972500002,43.0,83.0
329,99.09201953750001,99.33319007083335,67.0,53.0
330,98.83362253750002,99.38056285416668,55.0,83.0
331,99.09201953750001,99.40101928333334,58.0,83.0
332,99.35041653750001,99.55067421250001,62.0,76.0
333,99.86721053750001,100.78774985000001,57.0,83.0
334,100.64240153750002,101.19041850833335,62.0,83.0
335,100.64240153750002,101.21733486250001,69.0,83.0
336,100.64240153750002,101.22164147916668,65.0,83.0
337,101.15919553750001,101.48326844166668,57.0,53.0
338,99.60881353750001,101.50910814166669,50.0,83.0
339,101.41759253750001,101.54140776666668,69.0,72.0
340,101.41759253750001,101.55540427083335,62.0,76.0
341,101.41759253750001,101.55648092500002,65.0,80.0
342,102.19278353750002,102.28214583333335,62.0,36.0
343,101.93438653750002,102.57607242083334,57.0,83.0
344,102.45118053750001,103.04764694583335,65.0,83.0
345,102.45118053750001,103.04872360000002,69.0,83.0
346,102.45118053750001,103.05087690833335,62.0,83.0
347,101.67598953750002,103.42985917500002,50.0,83.0
348,102.96797453750001,103.45354556666668,57.0,83.0
349,103.48476853750002,103.64519000833334,65.0,83.0
350,103.48476853750002,103.64949662500001,62.0,83.0
351,103.48476853750002,103.65057327916668,69.0,80.0
352,104.25995953750001,104.36870160833335,60.0,18.0
353,104.51835653750001,104.59156902083335,60.0,43.0
354,104.00156253750002,104.99423767916669,55.0,49.0
355,104.77675353750001,105.25586464166668,60.0,83.0
356,104.77675353750001,105.31077400416667,67.0,83.0
357,104.77675353750001,105.31615727500001,63.0,83.0
358,103.74316553750002,105.61331382500002,48.0,83.0
359,105.29354753750002,105.63484690833334,55.0,53.0
360,105.55194453750002,105.70913604583335,60.0,76.0
361,105.55194453750002,105.70913604583335,63.0,83.0
362,105.55194453750002,105.72636251250002,67.0,61.0
363,106.32713553750001,106.93113852500001,57.0,76.0
364,106.58553253750001,107.16261917083335,69.0,68.0
365,106.58553253750001,107.18522890833334,65.0,83.0
366,106.58553253750001,107.19061217916668,60.0,83.0
367,107.10232653750002,107.49530530833334,57.0,76.0
368,105.81034153750001,107.55990455833334,53.0,83.0
369,107.36072353750002,107.66434001250002,69.0,83.0
370,107.36072353750002,107.67187659166669,60.0,83.0
371,107.36072353750002,107.69448632916668,65.0,83.0
372,108.13591453750001,109.03707407500002,58.0,47.0
373,108.91110553750002,109.28793449583335,62.0,83.0
374,108.91110553750002,109.33423062500002,70.0,83.0
375,108.91110553750002,109.33961389583335,65.0,83.0
376,109.42789953750001,109.46342912500002,65.0,17.0
377,107.87751753750001,109.68091326666668,46.0,83.0
378,109.16950253750001,109.73474597500001,58.0,57.0
379,109.42789953750001,109.79719191666668,62.0,57.0
380,109.68629653750001,109.84025808333335,70.0,57.0
381,109.68629653750001,109.84456470000002,65.0,57.0
382,110.20309053750002,110.34951550416669,58.0,65.0
383,110.46148753750002,110.86738615833335,58.0,51.0
384,110.71988453750002,111.27328477916669,62.0,83.0
385,110.71988453750002,111.27651474166669,70.0,83.0
386,110.71988453750002,111.27866805000002,65.0,83.0
387,111.23667853750001,111.46492922083335,58.0,83.0
388,109.94469353750002,111.55644482500001,46.0,83.0
389,111.49507553750001,111.73086280000001,70.0,83.0
390,111.49507553750001,111.77177565833335,65.0,83.0
391,111.49507553750001,111.85144806666668,62.0,83.0
392,112.01186953750002,112.44899112916669,70.0,83.0
393,112.01186953750002,112.88718937500002,62.0,83.0
394,112.01186953750002,112.90010922500002,67.0,83.0
395,112.52866353750001,113.20049573750002,55.0,57.0
396,113.04545753750001,113.44381957916669,62.0,83.0
397,113.04545753750001,113.48473243750001,70.0,83.0
398,113.04545753750001,113.69790996250002,67.0,83.0
399,112.01186953750002,113.85833143333335,43.0,72.0
400,113.30385453750002,113.86156139583335,55.0,65.0
401,113.82064853750002,113.97891670000001,70.0,83.0
402,113.56225153750002,113.98537662500001,62.0,72.0
403,113.82064853750002,114.20932069166668,67.0,68.0
404,114.33744253750001,114.54631344583335,55.0,72.0
405,114.59583953750001,115.06310744583335,55.0,45.0
406,114.85423653750001,115.40440681666668,70.0,83.0
407,114.85423653750001,115.43024651666668,62.0,83.0
408,114.85423653750001,115.44208971250002,67.0,83.0
409,114.07904553750002,115.78877235416668,43.0,83.0
410,115.62942753750002,115.93842728333335,70.0,80.0
411,115.37103053750002,115.95242378750001,55.0,83.0
412,115.62942753750002,116.06439582083335,67.0,83.0
413,115.62942753750002,116.06547247500002,62.0,83.0
414,116.40461853750001,117.29931815000002,57.0,83.0
415,117.17980953750002,117.72890316250002,62.0,83.0
416,117.17980953750002,117.77842925416668,65.0,83.0
417,117.17980953750002,117.78704248750002,69.0,83.0
418,117.69660353750001,117.98191689166669,57.0,51.0
419,116.14622153750001,118.05082275833335,50.0,83.0
420,117.95500053750001,118.06804922500001,62.0,83.0
421,117.95500053750001,118.06804922500001,65.0,83.0
422,117.95500053750001,118.08312238333335,69.0,65.0
423,118.47179453750002,119.11132711250002,57.0,83.0
424,118.98858853750002,119.59043821666668,69.0,83.0
425,118.98858853750002,119.59259152500002,62.0,83.0
426,118.98858853750002,119.59474483333335,65.0,83.0
427,118.21339753750001,119.91989439166669,50.0,83.0
428,119.50538253750001,119.94788740000001,57.0,83.0
429,120.02217653750002,120.27842022916668,62.0,83.0
430,120.02217653750002,120.27842022916668,65.0,53.0
431,120.02217653750002,120.27842022916668,69.0,51.0
432,120.79736753750002,121.15266341250002,60.0,65.0
433,120.53897053750002,121.51980248333335,55.0,72.0
434,121.31416153750001,121.96123069166669,60.0,83.0
435,121.31416153750001,121.99030035416668,63.0,83.0
436,121.31416153750001,122.00106689583335,67.0,83.0
437,121.83095553750002,122.17548487083334,55.0,49.0
438,120.28057353750002,122.20563118750002,48.0,83.0
439,122.34774953750002,125.25256247916668,53.0,76.0
440,122.34774953750002,125.26548232916669,69.0,76.0
441,122.34774953750002,125.27517221666669,65.0,83.0
442,122.34774953750002,125.27732552500002,60.0,83.0
443,128.78075818333335,129.8035796416667,55.0,83.0
444,129.04992172500002,130.005990625,58.0,83.0
445,129.32446853750002,130.00814393333334,67.0,83.0
446,129.33092846250003,130.0221404375,62.0,83.0
447,129.87894543333334,131.99134090833334,55.0,34.0
448,128.53528103333335,132.02041057083335,43.0,83.0
449,130.14918562916668,132.09792967083334,58.0,76.0
450,130.15456890000002,132.10331294166667,62.0,72.0
451,130.1448790125,132.11084952083334,67.0,76.0
452,133.18351462708335,133.38717827083337,57.0,80.0
453,133.4432127125,133.96368646875004,65.0,83.0
454,132.6750163041667,133.9712295666667,41.0,83.0
455,132.92058378541668,133.98308300625,53.0,72.0
456,133.44860063958336,134.02403125208335,60.0,83.0
457,133.43566961458336,134.06928983958335,57.0,49.0
458,134.23523799375002,135.7848058229167,43.0,83.0
459,134.23523799375002,135.7848058229167,55.0,83.0
460,134.23523799375002,135.7848058229167,62.0,17.0
461,134.23954833541669,135.78911616458336,58.0,80.0
462,136.0595901041667,136.35161575208335,55.0,83.0
463,136.32252094583336,136.5994603979167,57.0,83.0
464,136.55851215208335,136.74924477083337,58.0,83.0
465,137.09407210416668,137.52295110000003,50.0,83.0
466,136.8322188479167,137.60377000625002,57.0,83.0
467,136.82144299375003,137.8537698229167,43.0,83.0
468,137.61885620208335,137.86777843333337,58.0,83.0
469,137.6242441291667,137.88178704375002,55.0,83.0
470,138.10269205416668,138.58545032083336,50.0,83.0
471,138.11131273750001,138.6134675416667,57.0,83.0
472,138.10700239583335,138.62101063958335,60.0,83.0
473,138.64471751875,139.24601018125003,65.0,83.0
474,138.64902786041668,139.25355327916668,53.0,83.0
475,138.64040717708335,139.29450152500002,60.0,83.0
476,139.34514803958336,139.63394093125004,57.0,83.0
477,139.35269113750002,139.65225988333336,50.0,83.0
478,139.33976011250002,139.65549263958337,62.0,83.0
479,139.6899753729167,140.3009663041667,55.0,83.0
480,139.69428571458337,140.30850940208336,60.0,83.0
481,139.7029063979167,140.3871731375,48.0,83.0
482,141.00462958125001,141.8429910354167,69.0,83.0
483,140.99708648333336,141.84730137708337,60.0,83.0
484,141.00031923958335,141.86130998750002,65.0,83.0
485,141.01001750833336,141.86669791458337,53.0,83.0
486,140.99385372708335,141.8882496229167,41.0,83.0
487,142.02510297083336,142.22445627291668,53.0,83.0
488,142.0337236541667,142.24600798125002,69.0,83.0
489,142.03803399583336,142.2470855666667,65.0,83.0
490,142.0304908979167,142.26971486041668,41.0,83.0
491,142.04234433750003,142.30096483750003,60.0,83.0
492,142.5768267041667,145.54772969791668,36.0,76.0
493,142.59730082708336,146.63824613958337,65.0,83.0
494,142.59406807083337,146.64471165208337,60.0,83.0
495,142.5897577291667,146.64902199375004,69.0,83.0
496,142.5800594604167,146.6500995791667,48.0,76.0
497,147.17596126250004,147.90009866250003,70.0,83.0
498,147.18458194583337,147.91626244375,65.0,83.0
499,147.17919401875002,147.93242622500003,62.0,83.0
500,148.26216736250004,148.90548585625004,70.0,83.0
501,148.25785702083337,148.97983925000003,65.0,83.0
502,148.26755528958336,149.0132443979167,62.0,80.0
503,149.20613218750003,149.88824375625003,65.0,83.0
504,149.21367528541668,149.89039892708337,70.0,83.0
505,149.20936494375002,149.9184161479167,62.0,83.0
506,147.16626299375002,150.09190740000003,58.0,83.0
507,147.17165092083337,150.72876038125003,46.0,83.0
508,150.28802794583336,150.91626024375003,70.0,83.0
509,150.29126070208335,150.94751022083335,65.0,83.0
510,150.29449345833336,150.94858780625003,62.0,83.0
511,151.30419099375,152.40871604583336,55.0,76.0
512,152.33867299375004,153.0089311229167,62.0,83.0
513,152.33867299375004,153.0347931729167,67.0,83.0
514,152.33867299375004,153.05526729583335,58.0,83.0
515,152.98522424375003,153.88608565208335,55.0,51.0
516,153.37315499375003,154.12315444375002,62.0,83.0
517,153.37315499375003,154.15548200625003,67.0,83.0
518,153.37315499375003,154.1630251041667,58.0,83.0
519,154.01970624375002,154.52724897500002,55.0,53.0
520,154.40763699375003,154.68565403125004,58.0,83.0
521,154.40763699375003,154.7061281541667,67.0,83.0
522,154.40763699375003,154.7319902041667,62.0,83.0
523,151.30419099375,154.9065590416667,43.0,83.0
524,154.66625749375004,155.01216241250003,55.0,83.0
525,154.92487799375002,155.1651795416667,58.0,83.0
526,155.05418824375002,155.29880013333337,67.0,76.0
527,155.05418824375002,155.3106535729167,62.0,57.0
528,155.98522204375,156.81280764375003,58.0,42.0
529,156.47336823750004,157.34836759583337,70.0,83.0
530,156.46905789583337,157.36129862083337,65.0,83.0
531,156.47875616458336,157.37853998750003,62.0,83.0
532,157.02940231250003,157.81819483750002,58.0,42.0
533,157.5574191666667,158.3009531041667,70.0,83.0
534,157.54987606875002,158.30203068958338,65.0,83.0
535,157.55310882500004,158.36991857083336,62.0,83.0
536,158.08974636250002,158.64793560833337,58.0,43.0
537,158.57681497083337,159.20396968333336,70.0,83.0
538,158.58112531250003,159.21690070833336,62.0,83.0
539,158.5725046291667,159.21797829375004,65.0,83.0
540,159.1317714604167,159.25246102708337,58.0,83.0
541,155.4625931166667,159.29771961458337,46.0,83.0
542,160.09728799375003,161.01862352500004,55.0,49.0
543,160.61452899375,161.28694229375003,62.0,72.0
544,160.61452899375,161.30633883125003,67.0,76.0
545,160.61452899375,161.31388192916668,58.0,80.0
546,161.64901099375004,161.73306265625,58.0,72.0
547,161.64901099375004,161.74168333958335,65.0,80.0
548,161.64901099375004,161.74491609583336,62.0,72.0
549,161.13176999375003,162.2513812416667,55.0,65.0
550,161.90763149375002,162.43780351875003,58.0,83.0
551,161.90763149375002,162.43780351875003,62.0,83.0
552,161.90763149375002,162.44319144583335,65.0,83.0
553,162.42487249375003,162.86129458750003,55.0,61.0
554,162.68349299375004,162.94750142083336,58.0,83.0
555,162.68349299375004,162.94857900625004,62.0,83.0
556,162.68349299375004,162.96689795833336,65.0,83.0
557,162.94211349375,163.3634493916667,55.0,76.0
558,159.58004699375002,163.40008729583337,43.0,83.0
559,163.20073399375002,163.70181121250002,65.0,83.0
560,163.20073399375002,163.7158198229167,58.0,83.0
561,163.20073399375002,163.71797499375003,62.0,83.0
562,163.97659549375004,165.04663781250002,58.0,65.0
563,164.75245699375003,165.4065513416667,67.0,83.0
564,164.75245699375003,165.43672373333337,70.0,83.0
565,164.75245699375003,165.43780131875002,63.0,83.0
566,165.26969799375001,165.8268096541667,58.0,36.0
567,165.52831849375002,166.56818842083337,67.0,83.0
568,165.52831849375002,166.59728322708335,70.0,83.0
569,165.52831849375002,166.6026711541667,63.0,83.0
570,166.04555949375003,166.8192658229167,58.0,65.0
571,166.82142099375002,167.0843518354167,63.0,83.0
572,166.82142099375002,167.09620527500005,67.0,83.0
573,166.82142099375002,167.11344664166668,70.0,83.0
574,167.08004149375003,167.38392058125004,58.0,83.0
575,163.71797499375003,167.4270239979167,51.0,83.0
576,167.33866199375004,167.61560144583336,63.0,83.0
577,167.33866199375004,167.64792900833336,67.0,83.0
578,167.33866199375004,167.72443757291668,70.0,83.0
579,168.11452349375003,169.01215214583337,57.0,83.0
580,168.89038499375002,169.52400521875003,65.0,83.0
581,168.89038499375002,169.5315483166667,69.0,80.0
582,168.89038499375002,169.53585865833335,62.0,83.0
583,169.40762599375003,170.05956517083337,57.0,53.0
584,169.66624649375004,170.39792699166668,65.0,83.0
585,169.66624649375004,170.40870284583337,69.0,76.0
586,169.66624649375004,170.41840111458336,62.0,83.0
587,170.18348749375002,171.00352999583336,57.0,72.0
588,170.95934899375004,171.18456434583337,62.0,83.0
589,170.95934899375004,171.2190470791667,65.0,83.0
590,170.95934899375004,171.23305568958335,69.0,83.0
591,171.21796949375002,171.5649519979167,57.0,83.0
592,167.85590299375002,171.63391746458336,50.0,83.0
593,171.47658999375003,171.68995190625003,65.0,57.0
594,171.47658999375003,171.79986561875003,69.0,47.0
595,171.47658999375003,171.81171905833335,62.0,83.0
596,172.51107199375002,172.81818383750004,60.0,61.0
597,172.25245149375002,173.3268041541667,55.0,47.0
598,173.02831299375003,173.63607116875002,60.0,83.0
599,173.02831299375003,173.6533125354167,63.0,83.0
600,173.02831299375003,173.6597780479167,67.0,83.0
601,171.99383099375004,173.78370037083334,48.0,83.0
602,173.54555399375002,173.79986415208336,55.0,76.0
603,173.80417449375003,173.93671750000004,60.0,83.0
604,173.80417449375003,173.9539588666667,63.0,83.0
605,173.80417449375003,174.11667426458337,67.0,83.0
606,174.58003599375002,174.7071910729167,60.0,53.0
607,174.32141549375004,175.00675981875003,55.0,40.0
608,174.83865649375002,175.22012173125003,60.0,83.0
609,174.83865649375002,175.23520792708337,63.0,83.0
610,174.83865649375002,175.40438883750002,67.0,83.0
611,174.06279499375003,175.66839726458335,48.0,83.0
612,175.09727699375003,175.69749207083336,55.0,83.0
613,175.61451799375004,175.81818163750003,63.0,83.0
614,175.61451799375004,175.82356956458335,67.0,83.0
615,175.61451799375004,175.83757817500003,60.0,83.0
616,176.13175899375003,176.5660259166667,53.0,83.0
617,176.13175899375003,176.96149976458335,69.0,83.0
618,176.13175899375003,176.99813766875002,65.0,83.0
619,176.13175899375003,177.01645662083337,60.0,83.0
620,176.64899999375004,177.6231372104167,53.0,49.0
621,177.16624099375002,177.7686112416667,69.0,76.0
622,177.16624099375002,177.79231812083336,60.0,83.0
623,177.16624099375002,177.79662846250002,65.0,83.0
624,177.68348199375004,178.3375763416667,53.0,53.0
625,177.94210249375004,178.5800330604167,69.0,83.0
626,177.94210249375004,178.58111064583335,60.0,83.0
627,177.94210249375004,178.5832658166667,65.0,83.0
628,178.71796399375003,178.79770531458337,69.0,76.0
629,178.71796399375003,178.80417082708337,60.0,80.0
630,178.71796399375003,178.81063633958337,65.0,83.0
631,178.97658449375004,179.06602408333336,60.0,83.0
632,178.97658449375004,179.06710166875,69.0,83.0
633,178.97658449375004,179.07356718125004,65.0,83.0
634,178.45934349375003,179.10804991458338,53.0,53.0
635,179.49382549375002,179.52292030000004,44.0,51.0
636,179.23520499375002,179.59296335208336,60.0,83.0
637,179.23520499375002,179.59619610833334,69.0,83.0
638,179.23520499375002,179.6015840354167,65.0,83.0
639,176.13175899375003,179.85158385208337,41.0,83.0
640,179.75244599375003,180.2642990666667,65.0,83.0
641,179.23520499375002,180.26753182291668,53.0,83.0
642,179.75244599375003,180.26753182291668,60.0,83.0
643,179.75244599375003,180.27291975000003,69.0,57.0
644,180.26968699375004,180.5261523229167,58.0,43.0
645,180.26968699375004,180.5261523229167,62.0,45.0
646,180.26968699375004,180.5261523229167,65.0,38.0
647,180.26968699375004,180.7847728229167,46.0,83.0
648,180.78692799375003,181.46149646458338,58.0,53.0
649,181.30416899375,181.8192548229167,70.0,83.0
650,181.30416899375,181.82033240833337,65.0,83.0
651,181.30416899375,181.86559099583337,62.0,76.0
652,181.82140999375002,182.16300457083338,58.0,47.0
653,182.08003049375003,182.2071855729167,65.0,61.0
654,182.08003049375003,182.20934074375003,62.0,65.0
655,182.08003049375003,182.21580625625003,70.0,57.0
656,182.59727149375004,182.80632306458335,58.0,61.0
657,182.85589199375002,183.30201235625003,58.0,47.0
658,183.11451249375003,183.6780896666667,70.0,83.0
659,183.11451249375003,183.69209827708335,65.0,83.0
660,183.11451249375003,183.72442583958338,62.0,83.0
661,183.63175349375,183.8364947229167,58.0,68.0
662,182.33865099375004,183.9367101666667,46.0,83.0
663,183.89037399375002,184.07787385625002,70.0,76.0
664,184.14899449375002,184.2373564979167,70.0,51.0
665,183.89037399375002,184.27399440208336,65.0,83.0
666,183.89037399375002,184.2890805979167,62.0,83.0
667,184.66623549375004,185.57464000000004,55.0,57.0
668,185.44209699375003,185.85588979375004,58.0,83.0
669,185.44209699375003,185.9733466041667,67.0,83.0
670,185.44209699375003,186.01429485000003,62.0,83.0
671,184.40761499375003,186.27614810625002,43.0,83.0
672,185.95933799375,186.29769981458335,55.0,45.0
673,186.21795849375002,186.33433771875002,62.0,83.0
674,186.21795849375002,186.36235493958335,67.0,76.0
675,186.21795849375002,186.3709756229167,58.0,83.0
676,186.73519949375003,186.9334752104167,55.0,65.0
677,186.99381999375004,187.40761279375002,55.0,43.0
678,187.25244049375004,187.8160176666667,58.0,83.0
679,187.25244049375004,187.82248317916668,62.0,83.0
680,187.25244049375004,187.83433661875003,67.0,83.0
681,186.47657899375002,188.01213821250002,43.0,83.0
682,188.02830199375003,188.26968112708335,67.0,53.0
683,187.76968149375003,188.31709488541668,55.0,83.0
684,188.02830199375003,188.33756900833336,58.0,83.0
685,188.28692249375,188.48735338125005,62.0,76.0
686,188.80416349375002,189.72549902500003,57.0,83.0
687,189.58002499375004,190.12851597083335,62.0,83.0
688,189.58002499375004,190.15545560625003,69.0,83.0
689,189.58002499375004,190.1597659479167,65.0,83.0
690,190.09726599375003,190.4216192041667,57.0,53.0
691,188.54554299375002,190.4474812541667,50.0,83.0
692,190.35588649375003,190.4798088166667,69.0,72.0
693,190.35588649375003,190.49381742708337,62.0,76.0
694,190.35588649375003,190.49489501250002,65.0,80.0
695,191.13174799375003,191.22118758333335,62.0,36.0
696,190.87312749375002,191.51536840208337,57.0,83.0
697,191.39036849375003,191.98735081458335,65.0,83.0
698,191.39036849375003,191.98842840000003,69.0,83.0
699,191.39036849375003,191.99058357083337,62.0,83.0
700,190.61450699375,192.3698936375,50.0,83.0
701,191.90760949375004,192.3936005166667,57.0,83.0
702,192.42485049375003,192.58541072083335,65.0,83.0
703,192.42485049375003,192.58972106250002,62.0,83.0
704,192.42485049375003,192.5907986479167,69.0,80.0
705,193.20071199375002,193.30954812083337,60.0,18.0
706,193.45933249375003,193.53260830208336,60.0,43.0
707,192.94209149375,193.9356252479167,55.0,49.0
708,193.71795299375003,194.1974785041667,60.0,83.0
709,193.71795299375003,194.2524353604167,67.0,83.0
710,193.71795299375003,194.25782328750003,63.0,83.0
711,192.68347099375003,194.55523686250004,48.0,83.0
712,194.23519399375004,194.57678857083337,55.0,53.0
713,194.49381449375002,194.65114196458336,60.0,76.0
714,194.49381449375002,194.65114196458336,63.0,83.0
715,194.49381449375002,194.66838333125003,67.0,61.0
716,195.26967599375,195.87420141250004,57.0,76.0
717,195.52829649375002,196.10588227708337,69.0,68.0
718,195.52829649375002,196.12851157083335,65.0,83.0
719,195.52829649375002,196.1338994979167,60.0,83.0
720,196.04553749375003,196.43885617083336,57.0,76.0
721,194.75243499375003,196.50351129583336,53.0,83.0
722,196.30415799375004,196.60803708125002,69.0,83.0
723,196.30415799375004,196.6155801791667,60.0,83.0
724,196.30415799375004,196.63820947291669,65.0,83.0
725,197.08001949375003,197.98195848750004,58.0,47.0
726,197.85588099375002,198.23303588958336,62.0,83.0
727,197.85588099375002,198.27937206250004,70.0,83.0
728,197.85588099375002,198.28475998958336,65.0,83.0
729,198.37312199375003,198.40868231250005,65.0,17.0
730,196.82139899375002,198.6263545666667,46.0,83.0
731,198.11450149375003,198.68023383750003,58.0,57.0
732,198.37312199375003,198.7427337916667,62.0,57.0
733,198.63174249375004,198.78583720833336,70.0,57.0
734,198.63174249375004,198.79014755000003,65.0,57.0
735,199.14898349375002,199.2955351104167,58.0,65.0
736,199.40760399375003,199.81385369583336,58.0,51.0
737,199.66622449375004,200.22010339791672,62.0,83.0
738,199.66622449375004,200.2233361541667,70.0,83.0
739,199.66622449375004,200.22549132500004,65.0,83.0
740,200.18346549375002,200.41191360208336,58.0,83.0
741,198.89036299375005,200.50350836250004,46.0,83.0
742,200.44208599375003,200.67807720000002,70.0,83.0
743,200.44208599375003,200.71902544583338,65.0,83.0
744,200.44208599375003,200.7987667666667,62.0,83.0
745,200.95932699375004,201.3968266729167,70.0,83.0
746,200.95932699375004,201.83540393750002,62.0,83.0
747,200.95932699375004,201.84833496250002,67.0,83.0
748,201.47656799375002,202.14898129375,55.0,57.0
749,201.99380899375,202.3925155979167,62.0,83.0
750,201.99380899375,202.43346384375002,70.0,83.0
751,201.99380899375,202.64682575625002,67.0,83.0
752,200.95932699375004,202.80738598333335,43.0,72.0
753,202.25242949375001,202.81061873958336,55.0,65.0
754,202.76967049375003,202.92807555000002,70.0,83.0
755,202.51104999375002,202.93454106250005,62.0,72.0
756,202.76967049375003,203.1586788291667,67.0,68.0
757,203.28691149375004,203.49596306458335,55.0,72.0
758,203.54553199375005,204.01320406458336,55.0,45.0
759,203.80415249375002,204.3547986416667,70.0,83.0
760,203.80415249375002,204.3806606916667,62.0,83.0
761,203.80415249375002,204.39251413125004,67.0,83.0
762,203.02829099375003,204.73949663541669,43.0,83.0
763,204.58001399375001,204.88928100833334,70.0,80.0
764,204.32139349375,204.90328961875002,55.0,83.0
765,204.58001399375001,205.01535850208336,67.0,83.0
766,204.58001399375001,205.01643608750004,62.0,83.0
767,205.35587549375003,206.25134897500004,57.0,83.0
768,206.13173699375002,206.68130555625004,62.0,83.0
769,206.13173699375002,206.73087448541668,65.0,83.0
770,206.13173699375002,206.73949516875,69.0,83.0
771,206.64897799375,206.9345381291667,57.0,51.0
772,205.09725499375003,207.00350359583337,50.0,83.0
773,206.90759849375002,207.02074496250003,62.0,83.0
774,206.90759849375002,207.02074496250003,65.0,83.0
775,206.90759849375002,207.03583115833337,69.0,65.0
776,207.42483949375003,208.06492523125002,57.0,83.0
777,207.94208049375004,208.5444507416667,69.0,83.0
778,207.94208049375004,208.5466059125,62.0,83.0
779,207.94208049375004,208.54876108333337,65.0,83.0
780,207.16621899375002,208.8741918791667,50.0,83.0
781,208.45932149375002,208.90220910000005,57.0,83.0
782,208.97656249375,209.2330278229167,62.0,83.0
783,208.97656249375,209.2330278229167,65.0,53.0
784,208.97656249375,209.2330278229167,69.0,51.0
785,209.75242399375003,210.10802718125,60.0,65.0
786,209.49380349375002,210.47548380833337,55.0,72.0
787,210.26966499375004,210.91729382916668,60.0,83.0
788,210.26966499375004,210.9463886354167,63.0,83.0
789,210.26966499375004,210.95716448958336,67.0,83.0
790,210.78690599375003,211.13173332708337,55.0,49.0
791,209.23518299375002,211.16190571875003,48.0,83.0
792,211.30414699375,212.07246539583338,69.0,76.0
793,211.30414699375,212.08970676250004,65.0,83.0
794,211.30414699375,212.10048261666668,60.0,83.0
795,211.30414699375,212.6274218854167,53.0,68.0
796,211.30414699375,212.95285268125002,41.0,83.0
797,212.33862899375004,213.0336715875,60.0,83.0
798,212.33862899375004,213.05845605208336,65.0,72.0
799,212.33862899375004,213.07138707708336,69.0,72.0
800,212.85586999375005,213.3709558229167,53.0,47.0
801,213.37311099375003,214.11664493125005,70.0,83.0
802,213.37311099375003,214.12526561458338,65.0,83.0
803,213.37311099375003,214.1274207854167,62.0,83.0
804,213.37311099375003,214.35048096666668,58.0,83.0
805,214.40759299375003,215.18560966458335,70.0,83.0
806,214.40759299375003,215.20608378750003,65.0,83.0
807,214.40759299375003,215.21793722708338,62.0,83.0
808,213.37311099375003,215.2330234229167,46.0,83.0
809,214.40759299375003,215.24810961875005,58.0,68.0
810,215.44207499375003,216.11125553750003,70.0,83.0
811,215.44207499375003,216.12741931875001,65.0,83.0
812,215.44207499375003,216.15004861250003,46.0,83.0
813,215.44207499375003,216.1511261979167,62.0,83.0
814,215.44207499375003,216.21470373750003,58.0,80.0
815,216.47655699375002,217.18022027083336,70.0,83.0
816,216.47655699375002,217.19099612500003,46.0,83.0
817,216.47655699375002,217.1920737104167,65.0,83.0
818,216.47655699375002,217.19746163750003,62.0,83.0
819,216.47655699375002,217.2276340291667,58.0,76.0
820,217.51103899375005,217.96254728333338,57.0,83.0
821,217.51103899375005,218.25241776041668,66.0,83.0
822,217.51103899375005,218.2556505166667,69.0,83.0
823,217.51103899375005,218.2718142979167,62.0,83.0
824,218.02827999375003,218.95177069583337,57.0,47.0
825,218.54552099375002,219.15866709583338,66.0,83.0
826,218.54552099375002,219.18452914583338,69.0,83.0
827,218.54552099375002,219.1899170729167,62.0,83.0
828,219.06276199375003,219.70500290208338,57.0,53.0
829,219.32138249375004,220.31814900416668,69.0,83.0
830,219.32138249375004,220.32030417500005,66.0,83.0
831,219.32138249375004,220.33970071250002,62.0,83.0
832,219.83862349375005,220.4215972041667,57.0,49.0
833,220.61448499375,220.9808640354167,66.0,83.0
834,220.61448499375,221.01319159791672,57.0,76.0
835,217.51103899375005,221.0164243541667,50.0,83.0
836,220.61448499375,221.0455191604167,62.0,83.0
837,220.61448499375,221.07353638125005,69.0,83.0
838,221.64896699375004,222.3828026625,70.0,83.0
839,221.64896699375004,222.4226733229167,67.0,83.0
840,222.16620799375005,222.4356043479167,58.0,65.0
841,221.64896699375004,222.45931122708336,62.0,83.0
842,221.64896699375004,222.5131904979167,55.0,83.0
843,222.68344899375003,223.0401297666667,55.0,83.0
844,222.68344899375003,223.16189691875002,62.0,83.0
845,222.68344899375003,223.16189691875002,67.0,83.0
846,222.68344899375003,223.1953020666667,70.0,83.0
847,222.68344899375003,223.24918133750003,58.0,83.0
848,223.71793099375003,224.46793044375005,63.0,83.0
849,223.71793099375003,224.47655112708338,58.0,83.0
850,223.71793099375003,224.4787062979167,70.0,83.0
851,223.71793099375003,224.47978388333337,67.0,83.0
852,223.71793099375003,224.50025800625002,51.0,83.0
853,224.75241299375003,225.09616274166672,67.0,83.0
854,224.75241299375003,225.1026282541667,70.0,83.0
855,224.75241299375003,225.1317230604167,63.0,83.0
856,224.75241299375003,225.13711098750002,58.0,83.0
857,224.75241299375003,225.1381885729167,51.0,83.0
858,225.26965399375,225.48948141875002,69.0,83.0
859,225.26965399375,225.49271417500003,53.0,45.0
860,225.26965399375,225.50133485833337,60.0,83.0
861,225.26965399375,225.51426588333337,65.0,83.0
862,225.26965399375,225.5228865666667,48.0,76.0
863,225.26965399375,225.52504173750003,57.0,51.0
864,225.78689499375002,226.58754095833336,69.0,83.0
865,225.78689499375002,226.60693749583336,62.0,83.0
866,225.78689499375002,226.61232542291668,66.0,83.0
867,226.30413599375004,227.0896957625,57.0,72.0
868,226.82137699375005,227.47331617083336,69.0,83.0
869,226.82137699375005,227.47654892708334,66.0,83.0
870,226.82137699375005,227.4884023666667,62.0,83.0
871,227.33861799375003,227.88064345833337,57.0,47.0
872,227.59723849375,228.5519791729167,66.0,83.0
873,227.59723849375,228.60693602916672,69.0,83.0
874,227.59723849375,228.62202222500002,62.0,83.0
875,228.37309999375003,228.94422026458335,57.0,83.0
876,228.89034099375004,229.1985304229167,62.0,83.0
877,228.89034099375004,229.31921998958336,66.0,83.0
878,228.89034099375004,229.33215101458336,69.0,83.0
879,225.78689499375002,229.4442198979167,50.0,83.0
880,229.14896149375005,229.5218060479167,57.0,80.0
881,229.40758199375003,229.57137497708337,66.0,61.0
882,229.40758199375003,229.63710768750002,69.0,43.0
883,229.40758199375003,229.64788354166672,62.0,83.0
884,229.92482299375,230.68021037083338,70.0,83.0
885,229.92482299375,230.73624481250005,67.0,83.0
886,229.92482299375,230.74702066666669,62.0,83.0
887,230.44206399375003,231.08214973125,58.0,47.0
888,230.95930499375004,231.5843045354167,67.0,83.0
889,230.95930499375004,231.58645970625003,70.0,83.0
890,231.47654599375005,231.6284855375,58.0,55.0
891,229.92482299375,231.65111483125003,55.0,83.0
892,230.95930499375004,231.68559756458336,62.0,83.0
893,231.99378699375004,232.43990735625005,55.0,72.0
894,231.99378699375004,232.7448640291667,63.0,83.0
895,231.99378699375004,232.81382949583337,67.0,83.0
896,231.99378699375004,232.83645878958336,60.0,83.0
897,231.99378699375004,234.0605958229167,48.0,83.0
898,232.51102799375002,234.0605958229167,55.0,53.0
899,233.02826899375003,234.0605958229167,60.0,83.0
900,233.02826899375003,234.0605958229167,63.0,83.0
901,233.02826899375003,234.0605958229167,67.0,83.0
902,234.70930224375002,235.0950778229167,67.0,72.0
903,234.70930224375002,235.13602606875003,70.0,76.0
904,234.70930224375002,235.15865536250004,62.0,83.0
905,235.61447399375004,236.2814993666667,69.0,45.0
906,235.61447399375004,236.30089590416668,60.0,45.0
907,235.61447399375004,236.3235251979167,65.0,57.0
908,236.39033549375003,237.1123177229167,70.0,83.0
909,236.39033549375003,237.17697284791672,67.0,61.0
910,236.39033549375003,237.18128318958338,62.0,57.0
911,237.16619699375002,237.46253298333335,69.0,83.0
912,237.16619699375002,237.47546400833335,60.0,83.0
913,237.16619699375002,237.49917088750004,65.0,83.0
914,237.16619699375002,237.56705876875003,41.0,83.0
915,237.68343799375003,238.06921357291668,67.0,83.0
916,237.68343799375003,238.08968769583336,70.0,83.0
917,237.68343799375003,238.09938596458335,68.0,68.0
918,237.68343799375003,238.13171352708338,62.0,83.0
919,237.68343799375003,238.16727384583336,43.0,83.0
920,238.20067899375005,238.49701498333337,68.0,83.0
921,238.20067899375005,238.5077908375,63.0,83.0
922,238.20067899375005,238.51102359375002,60.0,83.0
923,238.20067899375005,238.70391138333338,44.0,83.0
924,238.71791999375003,240.77072021250004,66.0,83.0
925,238.71791999375003,240.7847288229167,42.0,83.0
926,238.71791999375003,240.7847288229167,61.0,83.0
927,238.71791999375003,240.7847288229167,70.0,83.0
928,242.33860699375003,242.8342962854167,59.0,83.0
929,242.33860699375003,243.2254597916667,66.0,83.0
930,242.33860699375003,243.24701150000004,71.0,83.0
931,242.33860699375003,243.27179596458336,63.0,83.0
932,242.85584799375005,243.71576115625004,59.0,18.0
933,243.37308899375003,244.02179541458338,71.0,83.0
934,243.37308899375003,244.03257126875002,66.0,83.0
935,243.37308899375003,244.03580402500003,63.0,83.0
936,243.89032999375002,244.51425195000002,59.0,53.0
937,244.40757099375003,245.01532916875004,63.0,83.0
938,244.40757099375003,245.0551998291667,71.0,83.0
939,244.40757099375003,245.06597568333336,66.0,83.0
940,244.92481199375004,245.35584616041672,59.0,38.0
941,245.44205299375002,245.90110438125004,63.0,83.0
942,245.44205299375002,245.94528538333338,66.0,83.0
943,245.44205299375002,245.95175089583336,71.0,83.0
944,245.70067349375003,246.04119048541668,59.0,65.0
945,242.33860699375003,246.12093180625004,47.0,83.0
946,245.95929399375004,246.1995955416667,63.0,83.0
947,245.95929399375004,246.23946620208335,71.0,83.0
948,245.95929399375004,246.31705235208335,66.0,83.0
949,246.99377599375003,247.85584432708336,56.0,57.0
950,247.51101699375005,248.1036889729167,68.0,83.0
951,247.51101699375005,248.1489475604167,63.0,83.0
952,247.51101699375005,248.16511134166672,59.0,83.0
953,248.02825799375003,248.61230928958338,56.0,43.0
954,248.28687849375004,249.3709294229167,68.0,83.0
955,248.28687849375004,249.38817078958337,63.0,83.0
956,248.28687849375004,249.4355845479167,59.0,83.0
957,249.06273999375003,249.6392481916667,56.0,76.0
958,249.57998099375004,249.87954973958335,59.0,83.0
959,249.57998099375004,249.88386008125002,68.0,83.0
960,249.57998099375004,249.89032559375005,63.0,83.0
961,246.47653499375002,249.96791174375005,44.0,83.0
962,249.83860149375005,250.1855839979167,56.0,83.0
963,250.09722199375003,250.29334253958336,59.0,83.0
964,250.09722199375003,250.3019632229167,63.0,83.0
965,250.09722199375003,250.34183388333338,68.0,65.0
966,250.61446299375,251.4398934229167,70.0,83.0
967,250.61446299375,251.45174686250004,66.0,83.0
968,250.61446299375,251.49592786458336,63.0,83.0
969,251.13170399375002,251.7922638541667,58.0,53.0
970,251.64894499375004,252.28472038958336,70.0,83.0
971,251.64894499375004,252.30088417083337,66.0,83.0
972,251.64894499375004,252.3224358791667,63.0,83.0
973,252.16618599375005,252.51101332708336,58.0,55.0
974,250.61446299375,252.53040986458336,51.0,76.0
975,252.42480649375003,252.5616598416667,66.0,83.0
976,252.42480649375003,252.57028052500004,70.0,80.0
977,252.42480649375003,252.5842891354167,63.0,76.0
978,253.20066799375002,253.43665920000004,70.0,36.0
979,253.20066799375002,253.4539005666667,66.0,57.0
980,253.20066799375002,253.46898676250004,63.0,51.0
981,252.94204749375,253.79226238750005,58.0,55.0
982,253.71790899375003,254.05519322916672,63.0,83.0
983,253.71790899375003,254.0584259854167,66.0,83.0
984,253.71790899375003,254.07674493750005,70.0,83.0
985,252.68342699375003,254.29657236250003,51.0,83.0
986,254.23514999375004,254.3590723166667,66.0,80.0
987,253.97652949375004,254.37523609791668,58.0,51.0
988,254.23514999375004,254.40971883125002,70.0,76.0
989,254.23514999375004,254.41618434375005,63.0,76.0
990,254.75239099375003,255.22652857708337,56.0,76.0
991,254.75239099375003,255.58859727708335,68.0,83.0
992,254.75239099375003,255.6036834729167,64.0,83.0
993,254.75239099375003,255.62092483958338,61.0,83.0
994,255.52825249375002,256.15540720625006,56.0,53.0
995,255.78687299375002,256.35152775208337,64.0,83.0
996,255.78687299375002,256.37738980208337,68.0,83.0
997,255.78687299375002,256.39355358333336,61.0,83.0
998,254.75239099375003,256.51747590625,49.0,80.0
999,256.30411399375004,256.55195863958335,56.0,42.0
1000,256.56273449375004,256.8191998229167,61.0,43.0
1001,256.56273449375004,256.8191998229167,64.0,51.0
1002,256.82135499375005,257.50993207500005,70.0,76.0
1003,256.82135499375005,257.5110096604167,66.0,76.0
1004,256.82135499375005,257.59075098125004,61.0,83.0
1005,257.33859599375,257.90217316666667,54.0,76.0
1006,257.85583699375,258.37092282291667,61.0,83.0
1007,257.85583699375,258.37092282291667,66.0,83.0
1008,257.85583699375,258.38600901875003,70.0,83.0
1009,258.37307799375003,258.38600901875003,70.0,83.0
1010,257.98514724375,258.45066414375003,54.0,76.0
1011,256.82135499375005,258.5034658291667,42.0,42.0
1012,258.37307799375003,258.86337935833336,66.0,83.0
1013,258.37307799375003,258.8881638229167,61.0,83.0
1014,258.89031899375004,259.38600828541666,59.0,83.0
1015,258.89031899375004,259.7771717916667,66.0,83.0
1016,258.89031899375004,259.79872350000005,71.0,83.0
1017,258.89031899375004,259.82350796458337,63.0,83.0
1018,259.40755999375006,260.26747315625005,59.0,18.0
1019,259.92480099375,260.57350741458333,71.0,83.0
1020,259.92480099375,260.58428326875,66.0,83.0
1021,259.92480099375,260.587516025,63.0,83.0
1022,260.44204199375,261.06596395,59.0,53.0
1023,260.95928299375004,261.56704116875005,63.0,83.0
1024,260.95928299375004,261.60691182916673,71.0,83.0
1025,260.95928299375004,261.6176876833334,66.0,83.0
1026,261.47652399375,261.90755816041667,59.0,38.0
1027,261.99376499375,262.45281638125005,63.0,83.0
1028,261.99376499375,262.49699738333334,66.0,83.0
1029,261.99376499375,262.50346289583337,71.0,83.0
1030,262.25238549375,262.5929024854167,59.0,65.0
1031,258.89031899375004,262.67264380625,47.0,83.0
1032,262.51100599375,262.75130754166673,63.0,83.0
1033,262.51100599375,262.79117820208336,71.0,83.0
1034,262.51100599375,262.86876435208336,66.0,83.0
1035,263.54548799375004,264.4075563270834,56.0,57.0
1036,264.06272899375006,264.6554009729167,68.0,83.0
1037,264.06272899375006,264.70065956041674,63.0,83.0
1038,264.06272899375006,264.71682334166667,59.0,83.0
1039,264.57996999375007,265.1640212895834,56.0,43.0
1040,264.83859049375,265.92264142291674,68.0,83.0
1041,264.83859049375,265.9398827895834,63.0,83.0
1042,264.83859049375,265.9872965479167,59.0,83.0
1043,265.61445199375004,266.1909601916667,56.0,76.0
1044,266.13169299375,266.43126173958336,59.0,83.0
1045,266.13169299375,266.43557208125003,68.0,83.0
1046,266.13169299375,266.44203759375,63.0,83.0
1047,263.02824699375003,266.51962374375,44.0,83.0
1048,266.39031349375,266.7372959979167,56.0,83.0
1049,266.64893399375,266.8450545395834,59.0,83.0
1050,266.64893399375,266.8536752229167,63.0,83.0
1051,266.64893399375,266.89354588333333,68.0,65.0
1052,267.16617499375,267.9916054229167,70.0,83.0
1053,267.16617499375,268.0034588625,66.0,83.0
1054,267.16617499375,268.0476398645834,63.0,83.0
1055,267.68341599375003,268.34397585416673,58.0,53.0
1056,268.20065699375004,268.83643238958336,70.0,83.0
1057,268.20065699375004,268.85259617083335,66.0,83.0
1058,268.20065699375004,268.8741478791667,63.0,83.0
1059,268.71789799375006,269.0627253270834,58.0,55.0
1060,267.16617499375,269.08212186458337,51.0,76.0
1061,268.97651849375006,269.11337184166666,66.0,83.0
1062,268.97651849375006,269.121992525,70.0,80.0
1063,268.97651849375006,269.1360011354167,63.0,76.0
1064,269.75237999375,269.9883712000001,70.0,36.0
1065,269.75237999375,270.0056125666667,66.0,57.0
1066,269.75237999375,270.02069876250005,63.0,51.0
1067,269.49375949375,270.3439743875,58.0,55.0
1068,270.26962099375004,270.6069052291667,63.0,83.0
1069,270.26962099375004,270.6101379854167,66.0,83.0
1070,270.26962099375004,270.6284569375,70.0,83.0
1071,269.23513899375007,270.84828436250007,51.0,83.0
1072,270.52824149375004,270.9269480979167,58.0,51.0
1073,270.78686199375,271.24483579583335,66.0,80.0
1074,270.78686199375,271.2954823104167,70.0,76.0
1075,270.78686199375,271.3019478229167,63.0,76.0
1076,271.30410299375,271.77824057708335,56.0,76.0
1077,271.30410299375,272.14030927708336,68.0,83.0
1078,271.30410299375,272.15539547291667,64.0,83.0
1079,271.30410299375,272.17263683958333,61.0,83.0
1080,272.07996449375,272.70711920625,56.0,53.0
1081,272.33858499375003,272.9032397520833,64.0,83.0
1082,272.33858499375003,272.9291018020833,68.0,83.0
1083,272.33858499375003,272.94526558333337,61.0,83.0
1084,271.30410299375,273.06918790625,49.0,80.0
1085,272.85582599375005,273.10367063958336,56.0,42.0
1086,273.11444649375005,273.3709118229167,61.0,43.0
1087,273.11444649375005,273.3709118229167,64.0,51.0
1088,273.37306699375006,278.57780455625004,59.0,83.0
1089,273.37306699375006,278.5799597270834,47.0,83.0
1090,273.37306699375006,278.58858041041674,66.0,83.0
1091,273.37306699375006,278.58965799583336,63.0,83.0
1092,273.37306699375006,278.60366660625004,71.0,83.0
1093,280.07026035833337,280.26207056250007,59.0,76.0
1094,279.8137950291667,280.42694113125003,56.0,53.0
1095,280.3375015416667,280.62952718958337,59.0,57.0
1096,279.57995899375004,280.66939785,44.0,80.0
1097,280.34935498125003,280.7318978041667,64.0,83.0
1098,280.34288946875006,280.73620814583336,61.0,83.0
1099,280.83965634583336,281.67586262916666,59.0,83.0
1100,280.8353460041667,281.68556089791673,63.0,83.0
1101,281.65754367708337,283.0724133291667,40.0,80.0
1102,282.3827586625,283.1327581125,59.0,83.0
1103,282.38599141875,283.1607753333334,64.0,83.0
1104,281.8892245416667,283.16831843125004,52.0,65.0
1105,282.11767265000003,283.17478394375007,56.0,68.0
1106,283.6812490895834,284.91077405000004,42.0,83.0
1107,284.1801711375,284.96034297916674,61.0,83.0
1108,284.18340389375004,285.02392051875006,64.0,83.0
1109,283.9193954666667,285.1004290833333,54.0,76.0
1110,285.23081691875007,287.07564315208333,63.0,83.0
1111,285.2351272604167,287.0777983229167,59.0,76.0
1112,285.2394376020834,287.0918069333334,56.0,83.0
1113,288.37305599375003,288.69309886250005,63.0,83.0
1114,288.1155130791667,288.86982287083333,56.0,83.0
1115,288.63167649375004,289.30732255000004,68.0,83.0
1116,289.14891749375,289.4775810458334,56.0,83.0
1117,287.8558149937501,289.49158965625,44.0,83.0
1118,289.40753799375,289.7189601791667,71.0,83.0
1119,289.92477899375,290.3493476479167,57.0,83.0
1120,289.92477899375,290.39568382083337,61.0,83.0
1121,289.92477899375,290.43770965208336,66.0,83.0
1122,289.92477899375,290.44201999375,69.0,83.0
1123,290.44201999375,290.8504248666667,57.0,83.0
1124,290.70064049375003,291.0724074625,69.0,83.0
1125,290.70064049375003,291.08210573125007,66.0,83.0
1126,290.70064049375003,291.0928815854167,61.0,83.0
1127,289.92477899375,291.7437431770834,45.0,83.0
1128,291.21788149375004,291.78038108125,61.0,83.0
1129,291.21788149375004,291.78361383750007,66.0,83.0
1130,291.21788149375004,291.79331210625,69.0,83.0
1131,290.95926099375004,291.80301037500004,57.0,83.0
1132,291.99374299375006,292.64029424375,47.0,83.0
1133,291.99374299375006,292.64999251250003,59.0,83.0
1134,291.99374299375006,292.64999251250003,63.0,83.0
1135,291.99374299375006,292.6553804395834,66.0,83.0
1136,291.99374299375006,292.6553804395834,69.0,83.0
1137,293.02822499375003,293.2103369291667,47.0,83.0
1138,293.02822499375003,293.2103369291667,66.0,83.0
1139,293.02822499375003,293.2103369291667,69.0,83.0
1140,293.02822499375003,293.2135696854167,59.0,83.0
1141,293.02822499375003,293.2135696854167,61.0,83.0
1142,293.54546599375004,295.72865404791673,61.0,83.0
1143,293.54546599375004,295.734041975,54.0,83.0
1144,293.54546599375004,295.74266265833336,42.0,83.0
1145,293.54546599375004,295.74374024375004,70.0,83.0
1146,293.54546599375004,295.75020575625,66.0,83.0
