,start,end,pitch,velocity
0,27.76807706666667,28.202859066666672,61.0,104.0
1,28.202859066666672,28.63764106666667,58.0,89.0
2,28.63764106666667,29.940175475000004,66.0,98.0
3,29.94198706666667,30.157566475000003,66.0,93.0
4,30.159378066666672,30.37676906666667,66.0,86.0
5,30.37676906666667,30.809739475000004,65.0,90.0
6,30.81155106666667,31.246333066666672,65.0,88.0
7,31.246333066666672,31.679303475000005,66.0,108.0
8,31.68111506666667,34.289807066666675,66.0,108.0
9,34.289807066666675,34.72277747500001,61.0,93.0
10,34.724589066666674,35.15937106666667,61.0,98.0
11,35.15937106666667,35.403935941666674,58.0,87.0
12,35.37676206666667,36.89668747500001,66.0,102.0
13,36.89849906666667,37.11407847500001,66.0,88.0
14,37.11589006666667,37.33328106666667,66.0,89.0
15,37.33328106666667,37.766251475000004,68.0,96.0
16,37.76806306666667,38.202845066666676,68.0,102.0
17,38.202845066666676,38.63581547500001,70.0,94.0
18,38.637627066666674,41.68110106666667,70.0,96.0
19,41.68110106666667,42.115883066666676,66.0,113.0
20,42.115883066666676,42.550665066666674,68.0,108.0
21,42.550665066666674,42.98363547500001,70.0,108.0
22,42.98544706666667,43.418417475000005,70.0,107.0
23,43.42022906666667,43.85501106666668,70.0,110.0
24,43.85501106666668,44.072402066666676,71.0,109.0
25,44.072402066666676,45.81153006666668,68.0,110.0
26,45.81153006666668,46.028921066666676,61.0,102.0
27,46.028921066666676,46.463703066666675,73.0,110.0
28,46.463703066666675,46.89667347500001,71.0,113.0
29,46.89848506666667,47.33326706666667,71.0,110.0
30,47.33326706666667,47.548846475000005,70.0,91.0
31,47.55065806666667,49.28978606666667,70.0,91.0
32,49.28978606666667,49.50717706666667,61.0,88.0
33,49.50717706666667,49.941959066666676,70.0,107.0
34,49.941959066666676,50.37492947500001,68.0,94.0
35,50.376741066666675,50.81152306666667,68.0,102.0
36,50.81152306666667,51.244493475000006,66.0,93.0
37,51.24630506666667,51.68108706666668,66.0,107.0
38,51.68108706666668,52.115869066666676,63.0,107.0
39,52.115869066666676,52.76804206666667,66.0,108.0
40,52.76804206666667,55.59412506666668,68.0,108.0
41,55.59412506666668,56.028907066666676,61.0,104.0
42,56.028907066666676,56.463689066666674,58.0,89.0
43,56.463689066666674,57.76622347500001,66.0,98.0
44,57.76803506666668,57.98361447500001,66.0,93.0
45,57.985426066666676,58.202817066666675,66.0,86.0
46,58.202817066666675,58.63578747500001,65.0,90.0
47,58.637599066666674,59.07238106666668,65.0,88.0
48,59.07238106666668,59.50535147500001,66.0,108.0
49,59.50716306666668,62.115855066666676,66.0,108.0
50,62.115855066666676,62.333246066666675,61.0,93.0
51,62.333246066666675,62.550637066666674,61.0,93.0
52,62.550637066666674,62.98541906666668,61.0,98.0
53,62.98541906666668,63.42020106666668,58.0,87.0
54,63.42020106666668,64.94012647500001,66.0,102.0
55,64.94193806666668,65.15932906666667,66.0,88.0
56,65.15932906666667,65.592299475,68.0,96.0
57,65.59411106666667,65.80969047500001,68.0,102.0
58,65.81150206666668,66.02889306666668,68.0,102.0
59,66.02889306666668,66.46186347500002,70.0,94.0
60,66.46367506666668,69.50714906666667,70.0,96.0
61,69.50714906666667,69.94193106666668,66.0,113.0
62,69.94193106666668,70.37671306666668,68.0,108.0
63,70.37671306666668,70.80968347500001,70.0,108.0
64,70.81149506666668,71.24446547500001,70.0,107.0
65,71.24627706666668,71.68105906666668,70.0,110.0
66,71.68105906666668,71.89845006666668,71.0,109.0
67,71.89845006666668,73.63757806666668,68.0,110.0
68,73.63757806666668,73.85496906666668,61.0,102.0
69,73.85496906666668,74.28975106666668,73.0,110.0
70,74.28975106666668,74.72272147500001,71.0,113.0
71,74.72453306666668,75.15931506666668,71.0,110.0
72,75.15931506666668,75.374894475,70.0,91.0
73,75.37670606666669,77.11583406666668,70.0,91.0
74,77.11583406666668,77.33322506666669,61.0,88.0
75,77.33322506666669,77.76800706666668,70.0,107.0
76,77.76800706666668,78.20097747500002,68.0,94.0
77,78.20278906666668,78.63757106666668,68.0,102.0
78,78.63757106666668,79.07054147500001,66.0,93.0
79,79.07235306666668,79.50713506666668,66.0,107.0
80,79.50713506666668,79.72271447500002,63.0,107.0
81,79.72452606666668,79.94191706666668,63.0,107.0
82,79.94191706666668,80.37669906666667,75.0,108.0
83,80.37669906666667,84.07053447500002,73.0,108.0
84,84.07234606666668,84.28973706666667,73.0,102.0
85,84.28973706666667,84.722707475,78.0,117.0
86,84.72451906666667,85.15748947500002,78.0,113.0
87,85.15930106666669,85.59227147500002,78.0,114.0
88,85.59408306666668,86.02886506666668,78.0,110.0
89,86.02886506666668,86.46364706666668,77.0,110.0
90,86.46364706666668,86.89842906666668,78.0,117.0
91,86.89842906666668,87.33321106666668,80.0,114.0
92,87.33321106666668,90.81146706666668,78.0,119.0
93,90.81146706666668,91.02704647500002,73.0,89.0
94,91.02885806666669,91.24624906666668,73.0,89.0
95,91.24624906666668,91.67921947500001,75.0,104.0
96,91.68103106666668,92.11400147500001,75.0,100.0
97,92.11581306666668,92.54878347500001,75.0,100.0
98,92.55059506666669,92.98537706666669,75.0,107.0
99,92.98537706666669,93.42015906666668,73.0,110.0
100,93.42015906666668,93.85494106666668,75.0,113.0
101,93.85494106666668,94.72450506666668,73.0,102.0
102,94.72450506666668,97.98537006666668,70.0,113.0
103,97.98537006666668,98.20276106666668,73.0,87.0
104,98.20276106666668,98.63573147500001,78.0,114.0
105,98.63754306666668,99.07051347500001,78.0,113.0
106,99.07232506666668,99.50529547500001,78.0,110.0
107,99.50710706666668,99.72268647500002,78.0,108.0
108,99.72449806666668,99.94188906666668,78.0,108.0
109,99.94188906666668,100.37667106666669,82.0,113.0
110,100.37667106666669,100.81145306666669,80.0,114.0
111,100.81145306666669,101.24623506666669,82.0,113.0
112,101.24623506666669,101.68101706666668,80.0,116.0
113,101.68101706666668,104.72449106666669,78.0,113.0
114,104.72449106666669,104.94007047500001,73.0,110.0
115,104.94188206666668,105.15927306666669,73.0,102.0
116,105.15927306666669,105.59224347500002,75.0,113.0
117,105.59405506666668,106.02702547500002,75.0,107.0
118,106.02883706666668,106.46180747500001,75.0,114.0
119,106.46361906666668,106.89840106666668,75.0,113.0
120,106.89840106666668,107.33318306666668,73.0,107.0
121,107.33318306666668,107.76796506666669,78.0,113.0
122,107.76796506666669,108.20274706666669,77.0,113.0
123,108.20274706666669,108.63752906666669,78.0,116.0
124,121.68098906666668,122.11577106666668,61.0,104.0
125,122.11577106666668,122.55055306666668,58.0,89.0
126,122.55055306666668,123.85308747500002,66.0,98.0
127,123.85489906666669,124.07047847500002,66.0,93.0
128,124.07229006666668,124.28968106666669,66.0,86.0
129,124.28968106666669,124.72265147500002,65.0,90.0
130,124.72446306666669,125.15924506666668,65.0,88.0
131,125.15924506666668,125.59221547500002,66.0,108.0
132,125.59402706666668,128.20271906666667,66.0,108.0
133,128.20271906666667,128.41829847500003,61.0,93.0
134,128.4201100666667,128.63568947500002,61.0,93.0
135,128.6375010666667,129.0722830666667,61.0,98.0
136,129.0722830666667,129.31684794166668,58.0,87.0
137,129.2896740666667,131.02699047500002,66.0,102.0
138,131.02880206666669,131.24619306666668,66.0,89.0
139,131.24619306666668,131.67916347500002,68.0,96.0
140,131.6809750666667,131.89655447500002,68.0,102.0
141,131.89836606666668,132.11575706666667,68.0,102.0
142,132.11575706666667,132.54872747500002,70.0,94.0
143,132.5505390666667,135.5940130666667,70.0,96.0
144,135.5940130666667,136.02879506666667,66.0,113.0
145,136.02879506666667,136.2461860666667,68.0,108.0
146,136.2461860666667,136.89654747500003,70.0,108.0
147,136.8983590666667,137.33132947500002,70.0,107.0
148,137.33314106666668,137.7679230666667,70.0,110.0
149,137.7679230666667,137.9853140666667,71.0,109.0
150,137.9853140666667,139.72444206666668,68.0,110.0
151,139.72444206666668,139.94183306666667,61.0,102.0
152,139.94183306666667,140.3766150666667,73.0,110.0
153,140.3766150666667,140.592194475,71.0,113.0
154,140.59400606666668,141.24617906666668,71.0,110.0
155,141.24617906666668,141.4961787166667,70.0,91.0
156,141.46357006666668,141.4961787166667,70.0,91.0
157,143.2026980666667,143.4200890666667,61.0,88.0
158,143.4200890666667,143.85487106666668,70.0,107.0
159,143.85487106666668,144.07045047500003,68.0,94.0
160,144.0722620666667,144.7244350666667,68.0,102.0
161,144.7244350666667,145.15740547500002,66.0,93.0
162,145.15921706666668,145.5939990666667,66.0,107.0
163,145.5939990666667,145.80957847500002,63.0,107.0
164,145.8113900666667,146.02878106666668,63.0,107.0
165,146.02878106666668,146.4635630666667,75.0,108.0
166,146.4635630666667,150.15739847500004,73.0,108.0
167,150.1592100666667,150.3766010666667,73.0,102.0
168,150.3766010666667,150.809571475,78.0,117.0
169,150.81138306666668,151.24435347500003,78.0,113.0
170,151.2461650666667,151.679135475,78.0,114.0
171,151.6809470666667,152.1157290666667,78.0,110.0
172,152.1157290666667,152.5505110666667,77.0,110.0
173,152.5505110666667,152.98529306666669,78.0,117.0
174,152.98529306666669,153.4200750666667,80.0,114.0
175,153.4200750666667,156.89833106666669,78.0,119.0
176,156.89833106666669,157.113910475,73.0,89.0
177,157.11572206666668,157.3331130666667,73.0,89.0
178,157.3331130666667,157.76608347500002,75.0,104.0
179,157.76789506666668,158.20086547500003,75.0,100.0
180,158.2026770666667,158.635647475,75.0,100.0
181,158.63745906666668,159.0722410666667,75.0,107.0
182,159.0722410666667,159.5070230666667,73.0,110.0
183,159.5070230666667,159.9418050666667,75.0,113.0
184,159.9418050666667,160.5939780666667,73.0,102.0
185,160.5939780666667,164.07223406666668,70.0,113.0
186,164.07223406666668,164.2896250666667,73.0,87.0
187,164.2896250666667,164.72259547500002,78.0,114.0
188,164.72440706666669,165.15737747500003,78.0,113.0
189,165.1591890666667,165.59215947500002,78.0,110.0
190,165.59397106666668,165.80955047500004,78.0,108.0
191,165.8113620666667,166.0287530666667,78.0,108.0
192,166.0287530666667,166.46353506666668,82.0,113.0
193,166.46353506666668,166.8983170666667,80.0,114.0
194,166.8983170666667,167.3330990666667,82.0,113.0
195,167.3330990666667,167.7678810666667,80.0,116.0
196,167.7678810666667,170.8113550666667,78.0,113.0
197,170.8113550666667,171.02693447500002,73.0,110.0
198,171.02874606666668,171.2461370666667,73.0,102.0
199,171.2461370666667,171.67910747500002,75.0,113.0
200,171.6809190666667,172.11388947500004,75.0,107.0
201,172.1157010666667,172.54867147500002,75.0,114.0
202,172.5504830666667,172.9852650666667,75.0,113.0
203,172.9852650666667,173.42004706666668,73.0,107.0
204,173.42004706666668,173.8548290666667,78.0,113.0
205,173.8548290666667,174.28961106666668,77.0,113.0
206,174.28961106666668,177.9852580666667,78.0,116.0
207,177.9852580666667,178.20264906666668,73.0,102.0
208,178.20264906666668,178.63561947500003,78.0,117.0
209,178.6374310666667,179.07040147500004,78.0,113.0
210,179.0722130666667,179.50518347500002,78.0,114.0
211,179.5069950666667,179.9417770666667,78.0,110.0
212,179.9417770666667,180.3765590666667,77.0,110.0
213,180.3765590666667,180.8113410666667,78.0,117.0
214,180.8113410666667,181.24612306666668,80.0,114.0
215,181.24612306666668,184.7243790666667,78.0,119.0
216,184.7243790666667,184.93995847500003,73.0,89.0
217,184.9417700666667,185.15916106666668,73.0,89.0
218,185.15916106666668,185.59213147500003,75.0,104.0
219,185.5939430666667,186.02691347500001,75.0,100.0
220,186.0287250666667,186.46169547500003,75.0,100.0
221,186.4635070666667,186.8982890666667,75.0,107.0
222,186.8982890666667,187.3330710666667,73.0,110.0
223,187.3330710666667,187.7678530666667,75.0,113.0
224,187.7678530666667,188.2026350666667,73.0,102.0
225,188.2026350666667,191.8982820666667,70.0,113.0
226,191.8982820666667,192.1156730666667,73.0,87.0
227,192.1156730666667,192.54864347500003,78.0,114.0
228,192.5504550666667,192.98342547500002,78.0,113.0
229,192.98523706666668,193.41820747500003,78.0,110.0
230,193.4200190666667,193.63559847500002,78.0,108.0
231,193.6374100666667,193.8548010666667,78.0,108.0
232,193.8548010666667,194.2895830666667,82.0,113.0
233,194.2895830666667,194.7243650666667,80.0,114.0
234,194.7243650666667,195.1591470666667,82.0,113.0
235,195.1591470666667,195.5939290666667,80.0,116.0
236,195.5939290666667,198.6374030666667,78.0,113.0
237,198.6374030666667,198.85298247500003,73.0,110.0
238,198.8547940666667,199.0721850666667,73.0,102.0
239,199.0721850666667,199.50515547500004,75.0,113.0
240,199.5069670666667,199.93993747500002,75.0,107.0
241,199.9417490666667,200.37471947500003,75.0,114.0
242,200.3765310666667,200.81131306666668,75.0,113.0
243,200.81131306666668,201.2460950666667,73.0,107.0
244,201.2460950666667,201.6808770666667,78.0,113.0
245,201.6808770666667,202.1156590666667,77.0,113.0
246,202.1156590666667,202.5504410666667,78.0,116.0
247,205.5939150666667,205.80949447500004,73.0,98.0
248,205.8113060666667,206.0286970666667,73.0,104.0
249,206.0286970666667,206.46166747500004,75.0,113.0
250,206.4634790666667,206.89644947500003,75.0,100.0
251,206.8982610666667,207.33123147500004,75.0,100.0
252,207.3330430666667,207.7678250666667,75.0,100.0
253,207.7678250666667,208.2352157166667,73.0,107.0
254,208.2026070666667,208.63738906666669,68.0,89.0
255,208.63738906666669,209.5069530666667,70.0,104.0
256,209.5069530666667,211.2460810666667,66.0,100.0
