,start,end,pitch,velocity
0,0.8115930666666668,2.0108667500000004,58.0,83.0
1,0.8115930666666668,2.0869536,42.0,74.0
2,0.8115930666666668,2.1449245333333335,66.0,86.0
3,0.8115930666666668,2.3152141500000005,61.0,83.0
4,0.8115930666666668,2.3641271250000004,54.0,76.0
5,2.550721066666667,3.487313958333334,53.0,86.0
6,2.550721066666667,3.8695598000000007,68.0,84.0
7,2.550721066666667,3.9184727750000006,65.0,86.0
8,2.550721066666667,3.9637625666666674,61.0,84.0
9,4.289849066666667,5.784412191666668,61.0,70.0
10,4.289849066666667,5.7970933333333345,58.0,71.0
11,4.289849066666667,5.840571533333335,63.0,70.0
12,4.289849066666667,5.842383125000001,66.0,76.0
13,4.289849066666667,7.050714766666668,39.0,74.0
14,4.289849066666667,7.061584316666668,51.0,74.0
15,7.768105066666668,9.344189816666669,47.0,76.0
16,7.768105066666668,9.389479608333335,63.0,76.0
17,7.768105066666668,9.405783933333336,59.0,78.0
18,7.768105066666668,9.434769400000002,66.0,75.0
19,7.768105066666668,9.438392583333334,70.0,75.0
20,9.507233066666668,10.708318341666669,49.0,88.0
21,9.507233066666668,10.773535641666669,65.0,83.0
22,9.507233066666668,10.780782008333334,68.0,83.0
23,9.507233066666668,10.800709516666668,61.0,83.0
24,11.246361066666669,12.132229391666668,66.0,78.0
25,11.246361066666669,12.179330775000002,61.0,69.0
26,11.246361066666669,12.208316241666669,58.0,42.0
27,12.550707066666668,13.003604983333336,56.0,67.0
28,11.68114306666667,14.157588875000002,49.0,73.0
29,12.11592506666667,14.184762750000003,54.0,71.0
30,11.246361066666669,14.327878491666668,42.0,77.0
31,12.985489066666668,14.327878491666668,58.0,69.0
32,14.724617066666669,15.918455975000002,66.0,88.0
33,15.59418106666667,15.923890750000002,54.0,75.0
34,15.15939906666667,15.938383483333336,49.0,46.0
35,14.724617066666669,15.943818258333335,42.0,76.0
36,14.724617066666669,16.027151475000004,58.0,71.0
37,16.463745066666668,17.00722256666667,68.0,75.0
38,16.463745066666668,17.038019625000004,65.0,58.0
39,16.463745066666668,17.17570059166667,61.0,48.0
40,16.463745066666668,17.693815808333337,41.0,68.0
41,17.33330906666667,17.820627225000003,61.0,78.0
42,17.33330906666667,17.927511133333336,65.0,86.0
43,17.33330906666667,17.945627050000002,68.0,77.0
44,18.20287306666667,18.64308984166667,66.0,82.0
45,18.20287306666667,18.80613309166667,70.0,86.0
46,18.20287306666667,19.014466133333336,63.0,78.0
47,18.63765506666667,20.849608491666668,46.0,63.0
48,18.20287306666667,20.86591281666667,39.0,85.0
49,19.50721906666667,20.913014200000003,66.0,81.0
50,19.50721906666667,20.92569534166667,58.0,80.0
51,19.07243706666667,20.940188075000002,51.0,78.0
52,21.68112906666667,22.99634461666667,47.0,83.0
53,22.11591106666667,23.019895308333336,54.0,75.0
54,22.55069306666667,23.019895308333336,59.0,82.0
55,22.98547506666667,23.469170041666672,63.0,83.0
56,23.42025706666667,24.45286431666667,49.0,84.0
57,23.85503906666667,24.454675908333336,56.0,77.0
58,24.289821066666672,24.733661025000004,61.0,80.0
59,24.72460306666667,25.152138700000005,65.0,72.0
60,25.15938506666667,26.070615675000003,66.0,86.0
61,25.15938506666667,26.121340241666672,58.0,65.0
62,26.02894906666667,26.864092825000004,59.0,84.0
63,26.46373106666667,27.73546841666667,54.0,48.0
64,25.59416706666667,27.78981616666667,49.0,71.0
65,25.15938506666667,27.798874125000005,42.0,77.0
66,26.89851306666667,27.836917550000003,58.0,80.0
67,26.89851306666667,27.847787100000005,66.0,72.0
68,29.50720506666667,29.869523400000006,66.0,79.0
69,28.63764106666667,29.961914575000005,54.0,83.0
70,29.072423066666673,30.35140678333334,61.0,67.0
71,29.94198706666667,31.264448983333338,73.0,80.0
72,30.81155106666667,31.456477700000004,61.0,65.0
73,30.37676906666667,31.606839808333337,53.0,74.0
74,31.246333066666672,32.15212890000001,68.0,82.0
75,32.11589706666667,33.44560535000001,70.0,84.0
76,33.42024306666667,33.84596710833334,68.0,73.0
77,32.98546106666667,34.84415411666667,63.0,73.0
78,32.550679066666675,34.91480619166667,58.0,61.0
79,32.11589706666667,35.08328421666667,51.0,78.0
80,33.85502506666667,35.79161655833334,66.0,79.0
81,35.59415306666667,36.525311183333336,42.0,76.0
82,36.02893506666667,36.525311183333336,54.0,77.0
83,36.463717066666675,37.09596255833334,58.0,81.0
84,36.89849906666667,37.31878833333334,61.0,76.0
85,37.33328106666667,37.70646895000001,65.0,87.0
86,38.202845066666676,38.59596045833334,65.0,80.0
87,37.76806306666667,38.65030820833334,60.0,65.0
88,37.33328106666667,38.74269938333334,53.0,73.0
89,38.637627066666674,40.36588551666667,70.0,86.0
90,40.376755066666675,40.789797966666676,68.0,78.0
91,39.94197306666667,41.78073860833334,63.0,77.0
92,39.50719106666667,41.842332725000006,58.0,67.0
93,39.07240906666667,41.936535491666675,51.0,82.0
94,40.81153706666667,42.41841887500001,66.0,75.0
95,42.98544706666667,43.844141516666674,54.0,71.0
96,43.42022906666667,43.88399653333334,59.0,80.0
97,42.550665066666674,43.909358816666675,47.0,83.0
98,43.85501106666668,44.39486538333334,71.0,82.0
99,43.85501106666668,44.48001019166667,63.0,86.0
100,45.15935706666667,45.510805850000004,61.0,86.0
101,44.724575066666674,45.53616813333334,56.0,74.0
102,44.289793066666675,45.57783474166667,49.0,86.0
103,45.59413906666667,45.809718475000004,65.0,91.0
104,45.81153006666668,46.066964491666674,66.0,86.0
105,46.028921066666676,46.066964491666674,66.0,81.0
106,46.028921066666676,46.648485416666674,70.0,78.0
107,46.028921066666676,46.74812295833334,54.0,77.0
108,46.028921066666676,46.82420980833334,61.0,78.0
109,46.89848506666667,47.73000564166667,65.0,85.0
110,46.89848506666667,47.73725200833334,68.0,79.0
111,46.89848506666667,47.749933150000004,53.0,80.0
112,47.76804906666668,49.13761236666667,51.0,74.0
113,47.76804906666668,49.14485873333334,66.0,84.0
114,47.76804906666668,49.21732240000001,63.0,71.0
115,49.50717706666667,51.00174019166668,47.0,84.0
116,50.376741066666675,51.02166770000001,59.0,78.0
117,50.81152306666667,51.27891371666667,63.0,70.0
118,49.941959066666676,52.28072390833334,54.0,73.0
119,52.76804206666667,52.95101282500001,61.0,67.0
120,52.98543306666667,53.78796817500001,65.0,85.0
121,54.289779066666675,54.682894458333344,66.0,82.0
122,54.72456106666667,54.903908641666675,65.0,77.0
123,54.72456106666667,54.96369116666668,68.0,81.0
124,53.85499706666668,55.65753077500001,61.0,74.0
125,53.42021506666668,55.73180603333334,56.0,76.0
126,52.98543306666667,55.751733541666674,49.0,81.0
127,55.59412506666668,55.98542886666667,71.0,119.0
128,56.028907066666676,56.42745723333334,73.0,79.0
129,56.463689066666674,56.85861605000001,66.0,83.0
130,56.89847106666667,57.47999199166667,54.0,76.0
131,56.463689066666674,58.16477364166668,70.0,85.0
132,56.463689066666674,58.21730980000001,42.0,83.0
133,57.33325306666668,58.24991845000001,61.0,76.0
134,58.202817066666675,58.64122225000001,68.0,86.0
135,58.202817066666675,58.65571498333334,65.0,85.0
136,58.202817066666675,59.28796047500001,41.0,83.0
137,58.637599066666674,59.681075866666674,53.0,64.0
138,59.07238106666668,59.876727766666676,68.0,93.0
139,59.07238106666668,59.970930533333345,65.0,96.0
140,59.941945066666676,60.30064021666668,70.0,78.0
141,59.941945066666676,60.45643710000001,66.0,80.0
142,59.941945066666676,60.49448052500001,63.0,78.0
143,60.376727066666675,60.87853795833334,58.0,64.0
144,60.81150906666667,61.202812866666676,70.0,79.0
145,60.81150906666667,61.25353743333334,66.0,83.0
146,60.81150906666667,61.25534902500001,63.0,83.0
147,61.24629106666668,61.72092808333334,58.0,40.0
148,61.68107306666668,62.11042029166668,70.0,81.0
149,61.68107306666668,62.15752167500001,65.0,82.0
150,62.115855066666676,62.85860765000001,58.0,73.0
151,59.941945066666676,62.94375245833334,51.0,81.0
152,62.550637066666674,63.03795522500001,63.0,87.0
153,62.550637066666674,63.31331715833334,70.0,88.0
154,62.98541906666668,63.422012658333344,65.0,86.0
155,63.42020106666668,63.86947580000001,66.0,85.0
156,63.42020106666668,63.88940330833334,70.0,81.0
157,63.42020106666668,63.89483808333334,61.0,77.0
158,63.85498306666668,64.69918478333334,54.0,72.0
159,63.42020106666668,64.79338755,42.0,81.0
160,64.28976506666667,64.87672076666668,70.0,88.0
161,64.28976506666667,64.90389464166668,61.0,86.0
162,64.28976506666667,64.99085104166667,66.0,84.0
163,65.15932906666667,65.28432889166668,41.0,84.0
164,65.15932906666667,65.787951375,68.0,84.0
165,65.15932906666667,65.92019756666667,65.0,87.0
166,66.02889306666668,66.74266018333334,68.0,86.0
167,66.02889306666668,66.86403682500001,65.0,87.0
168,66.89845706666668,67.18650014166667,63.0,78.0
169,66.89845706666668,67.66476034166668,66.0,76.0
170,66.89845706666668,67.75715151666668,70.0,83.0
171,68.20280306666668,68.38577382500002,65.0,85.0
172,67.76802106666668,68.42381725000001,63.0,80.0
173,68.42019406666668,68.66838212500001,66.0,89.0
174,68.63758506666667,68.94374405833335,70.0,71.0
175,68.63758506666667,69.34772900000002,63.0,73.0
176,69.07236706666667,69.44917813333335,70.0,86.0
177,69.28975806666668,69.700989375,78.0,104.0
178,69.50714906666667,69.79700373333334,63.0,78.0
179,67.33323906666668,69.82961238333334,58.0,60.0
180,66.89845706666668,69.92019196666668,51.0,82.0
181,69.50714906666667,70.17743798333335,70.0,83.0
182,69.72454006666668,70.38214784166668,77.0,91.0
183,70.37671306666668,71.67018951666668,47.0,84.0
184,70.81149506666668,71.67381270000001,54.0,71.0
185,71.24627706666668,71.71547930833334,71.0,83.0
186,71.24627706666668,71.78613138333334,59.0,74.0
187,71.24627706666668,71.81874003333334,63.0,86.0
188,71.89845006666668,72.13758016666668,61.0,81.0
189,72.11584106666668,72.43286960833335,65.0,76.0
190,72.98540506666667,73.33504225833335,61.0,82.0
191,72.55062306666667,73.42924502500001,56.0,64.0
192,72.11584106666668,73.47453481666668,68.0,87.0
193,72.11584106666668,73.47634640833334,49.0,83.0
194,73.85496906666668,73.94554865,66.0,90.0
195,73.85496906666668,74.70098237500001,70.0,88.0
196,73.85496906666668,74.74083739166667,54.0,86.0
197,73.85496906666668,74.76257649166668,61.0,86.0
198,74.72453306666668,75.45098132500001,68.0,88.0
199,74.72453306666668,75.51801021666668,65.0,90.0
200,74.72453306666668,75.56511160000001,53.0,85.0
201,75.37670606666669,75.57235796666667,63.0,40.0
202,76.46366106666667,76.65025500833335,63.0,85.0
203,76.02887906666668,76.71184912500001,58.0,72.0
204,75.59409706666668,76.78974756666668,51.0,86.0
205,75.59409706666668,76.82054462500001,66.0,70.0
206,75.59409706666668,76.94373285833335,70.0,91.0
207,76.89844306666667,77.34952939166668,65.0,85.0
208,77.33322506666669,77.83141277500002,66.0,89.0
209,77.33322506666669,77.85315187500001,63.0,88.0
210,77.76800706666668,78.32235411666667,59.0,66.0
211,77.33322506666669,78.68829563333334,47.0,81.0
212,78.20278906666668,78.73177383333335,66.0,93.0
213,78.63757106666668,78.81510705000001,59.0,82.0
214,78.20278906666668,79.08141102500001,63.0,102.0
215,78.85496206666667,79.09046898333335,61.0,73.0
216,79.07235306666668,79.44191776666668,65.0,67.0
217,79.07235306666668,79.55061326666667,68.0,89.0
218,79.94191706666668,80.27162675000001,61.0,80.0
219,79.50713506666668,80.35495996666668,56.0,65.0
220,79.07235306666668,80.46909024166668,49.0,87.0
221,79.94191706666668,80.62307553333335,68.0,89.0
222,79.94191706666668,80.67017691666668,65.0,94.0
223,80.81148106666667,81.25350943333335,68.0,92.0
224,80.81148106666667,81.26437898333334,65.0,98.0
225,81.46365406666668,81.74263918333335,61.0,91.0
226,82.11582706666668,82.26075440000001,61.0,83.0
227,80.81148106666667,82.32959488333334,49.0,86.0
228,81.68104506666668,82.50531927500002,71.0,123.0
229,81.24626306666669,82.54698588333335,56.0,79.0
230,82.55060906666668,83.24626026666668,68.0,104.0
231,83.42017306666668,83.66111475833334,65.0,96.0
232,83.63756406666668,83.75350593333334,66.0,86.0
233,83.20278206666669,83.76437548333335,61.0,87.0
234,82.98539106666668,83.82778119166667,56.0,80.0
235,82.55060906666668,83.88031735000001,49.0,85.0
236,83.85495506666668,84.22995454166669,68.0,98.0
237,84.28973706666667,84.50893965833335,70.0,92.0
238,84.28973706666667,84.80241750833335,61.0,91.0
239,84.72451906666667,85.23901110000001,54.0,85.0
240,85.15930106666669,85.64299604166668,58.0,102.0
241,84.28973706666667,85.64661922500001,42.0,87.0
242,85.15930106666669,85.83502475833335,66.0,104.0
243,85.59408306666668,86.03248825000001,54.0,84.0
244,86.02886506666668,86.38756021666669,61.0,88.0
245,86.02886506666668,86.62850190833335,65.0,94.0
246,86.02886506666668,86.71908149166669,68.0,88.0
247,86.46364706666668,86.78792197500002,56.0,84.0
248,86.02886506666668,87.38393563333335,49.0,88.0
249,86.89842906666668,87.38393563333335,61.0,100.0
250,86.89842906666668,87.56509480000001,65.0,98.0
251,86.89842906666668,87.64661642500002,68.0,104.0
252,87.33321106666668,87.77342784166667,56.0,85.0
253,87.76799306666668,87.94190586666669,70.0,108.0
254,87.76799306666668,87.96726815000001,66.0,82.0
255,87.76799306666668,87.99081884166668,63.0,77.0
256,88.20277506666667,88.33683285000001,75.0,90.0
257,88.42016606666668,88.56509340000001,77.0,108.0
258,88.63755706666669,88.69190481666668,82.0,100.0
259,88.85494806666668,89.14117955000002,80.0,114.0
260,88.63755706666669,89.26980255833335,63.0,87.0
261,89.28973006666668,89.60857020000002,75.0,94.0
262,89.28973006666668,89.99987400000002,78.0,104.0
263,89.50712106666668,90.13755496666668,63.0,87.0
264,90.37668506666668,90.56509060000002,63.0,89.0
265,88.20277506666667,90.59588765833335,58.0,73.0
266,87.76799306666668,90.64661222500001,51.0,88.0
267,90.37668506666668,91.34769820000001,75.0,93.0
268,91.24624906666668,91.34769820000001,75.0,87.0
269,90.37668506666668,91.36943730000002,70.0,87.0
270,91.24624906666668,91.61581376666668,71.0,100.0
271,91.24624906666668,91.69008902500002,66.0,93.0
272,91.68103106666668,92.20639265000001,59.0,75.0
273,92.11581306666668,92.56508780000001,71.0,103.0
274,91.24624906666668,92.59769645000002,47.0,91.0
275,92.55059506666669,92.75168174166669,59.0,85.0
276,92.11581306666668,92.90023225833335,63.0,104.0
277,92.98537706666669,93.43646339166668,68.0,94.0
278,92.98537706666669,93.45639090000002,61.0,89.0
279,93.42015906666668,93.99262203333335,56.0,78.0
280,92.98537706666669,94.00892635833335,49.0,88.0
281,94.28972306666668,94.40566493333334,49.0,84.0
282,93.85494106666668,94.51617202500002,68.0,104.0
283,93.85494106666668,94.70276596666668,61.0,102.0
284,94.72450506666668,95.47631560833335,66.0,98.0
285,94.72450506666668,95.53247495000001,58.0,92.0
286,95.37667806666668,95.69732979166668,54.0,87.0
287,94.72450506666668,96.12486542500001,42.0,87.0
288,95.59406906666668,96.30058981666669,59.0,116.0
289,96.02885106666668,96.42377805000001,54.0,83.0
290,96.46363306666669,96.76435728333335,58.0,81.0
291,96.46363306666669,96.77885001666668,61.0,81.0
292,96.46363306666669,96.96182077500002,66.0,104.0
293,97.33319706666668,97.59587785833335,61.0,104.0
294,96.46363306666669,97.60493581666668,42.0,91.0
295,96.89841506666669,97.66652993333335,49.0,79.0
296,97.55058806666668,97.70638495000001,66.0,100.0
297,97.11580606666668,97.80239930833335,54.0,96.0
298,97.76797906666668,97.96363096666668,68.0,98.0
299,98.20276106666668,98.78971676666669,66.0,100.0
300,98.20276106666668,98.79515154166668,61.0,88.0
301,97.98537006666668,98.80964427500001,70.0,87.0
302,98.63754306666668,99.25710741666668,42.0,83.0
303,99.50710706666668,99.61217938333336,42.0,90.0
304,99.07232506666668,99.66290395000001,70.0,98.0
305,99.07232506666668,99.68283145833335,61.0,93.0
306,99.07232506666668,99.73355602500001,66.0,104.0
307,99.94188906666668,100.47449701666669,68.0,98.0
308,99.94188906666668,100.49985930000001,61.0,96.0
309,99.94188906666668,100.50167089166668,65.0,108.0
310,99.94188906666668,100.96724995000001,49.0,92.0
311,101.24623506666669,101.34587260833335,49.0,93.0
312,100.81145306666669,101.40203195000002,61.0,102.0
313,100.81145306666669,101.45094492500002,68.0,107.0
314,100.81145306666669,101.62666931666668,65.0,113.0
315,101.68101706666668,101.77521983333335,39.0,92.0
316,101.68101706666668,101.79514734166668,51.0,94.0
317,101.68101706666668,102.05420495000001,63.0,90.0
318,101.68101706666668,102.41652328333335,70.0,98.0
319,101.68101706666668,102.69731999166669,66.0,102.0
320,102.55058106666668,103.09949334166669,63.0,107.0
321,102.98536306666668,103.24260908333335,65.0,89.0
322,103.20275406666669,103.40746392500002,66.0,107.0
323,103.63753606666668,103.79695613333335,70.0,87.0
324,103.85492706666669,104.06869488333335,78.0,93.0
325,103.42014506666668,104.13391218333335,63.0,94.0
326,104.07231806666668,104.55963622500002,77.0,94.0
327,104.28970906666669,104.57956373333334,63.0,87.0
328,102.33319006666669,104.58862169166669,58.0,83.0
329,102.11579906666668,104.68282445833334,51.0,82.0
330,104.50710006666668,105.04876597500002,75.0,96.0
331,103.85492706666669,105.11579486666669,70.0,84.0
332,105.15927306666669,105.76072150000002,75.0,91.0
333,105.15927306666669,105.84224312500001,71.0,90.0
334,105.15927306666669,105.85130108333335,66.0,92.0
335,105.59405506666668,106.13390938333335,59.0,79.0
336,105.15927306666669,106.50166249166668,47.0,87.0
337,106.02883706666668,106.53064795833335,66.0,94.0
338,106.02883706666668,106.57231456666668,75.0,87.0
339,106.46361906666668,106.69369120833335,59.0,83.0
340,106.02883706666668,106.84224172500002,71.0,90.0
341,106.89840106666668,107.20456005833336,73.0,88.0
342,106.89840106666668,107.32231351666668,68.0,94.0
343,106.89840106666668,107.48535676666668,65.0,88.0
344,107.33318306666668,108.03245745000002,56.0,71.0
345,106.89840106666668,108.19912388333336,49.0,87.0
346,107.76796506666669,108.32050052500001,68.0,91.0
347,107.76796506666669,108.34223962500002,65.0,96.0
348,107.76796506666669,108.47629740833335,61.0,88.0
349,108.63752906666669,109.07231106666669,58.0,38.0
350,108.63752906666669,109.17738338333335,61.0,85.0
351,108.63752906666669,109.22810795000002,66.0,90.0
352,109.28970206666668,109.60491901666668,54.0,81.0
353,109.50709306666668,109.96904894166668,59.0,97.0
354,109.50709306666668,109.97810690000001,66.0,91.0
355,108.63752906666669,109.99441122500002,42.0,87.0
356,109.94187506666668,110.26796156666668,54.0,73.0
357,109.07231106666669,110.36941070000002,49.0,66.0
358,110.37665706666668,110.87122159166668,70.0,88.0
359,110.37665706666668,110.89839546666668,66.0,89.0
360,110.37665706666668,110.90383024166668,61.0,87.0
361,110.81143906666668,111.26071380000002,54.0,64.0
362,111.24622106666668,111.58317711666669,61.0,94.0
363,111.24622106666668,111.66832192500001,70.0,90.0
364,111.24622106666668,111.67194510833335,66.0,91.0
365,110.37665706666668,111.70093057500002,42.0,87.0
366,111.68100306666669,111.80600289166668,54.0,86.0
367,112.11578506666669,112.82230581666668,73.0,91.0
368,112.11578506666669,112.84766810000002,71.0,87.0
369,112.11578506666669,112.86397242500001,63.0,88.0
370,112.11578506666669,112.89114630000002,66.0,93.0
371,112.55056706666669,113.32955148333335,59.0,46.0
372,112.11578506666669,113.52882656666668,47.0,85.0
373,112.98534906666669,113.60129023333334,63.0,86.0
374,112.98534906666669,113.62302933333335,73.0,87.0
375,112.98534906666669,113.63571047500002,71.0,85.0
376,112.98534906666669,113.71904369166668,66.0,90.0
377,113.85491306666668,114.43099921666668,73.0,87.0
378,113.85491306666668,114.44549195000002,68.0,89.0
379,113.85491306666668,114.45092672500002,65.0,88.0
380,113.85491306666668,115.37665006666668,49.0,84.0
381,114.72447706666668,115.42556304166668,73.0,84.0
382,114.72447706666668,115.42918622500002,65.0,86.0
383,114.72447706666668,115.44911373333335,68.0,86.0
384,115.59404106666669,116.88389433333334,47.0,87.0
385,115.59404106666669,116.90019865833335,66.0,98.0
386,115.59404106666669,116.91469139166668,62.0,100.0
387,115.59404106666669,116.94730004166668,59.0,89.0
388,117.33316906666668,118.20454465833335,63.0,87.0
389,117.33316906666668,118.26432718333335,68.0,88.0
390,118.63751506666668,119.09947094166668,66.0,85.0
391,118.20273306666668,119.25164464166669,61.0,71.0
392,117.76795106666668,119.26794896666668,56.0,38.0
393,120.37664306666669,120.86214963333335,66.0,84.0
394,119.94186106666669,120.92193215833335,61.0,79.0
395,120.81142506666669,122.02881466666669,65.0,88.0
396,119.50707906666669,122.05598854166668,56.0,77.0
397,117.33316906666668,122.07953923333335,49.0,83.0
398,123.42011706666669,123.78243540000003,66.0,79.0
399,122.55055306666668,123.87482657500001,54.0,83.0
400,122.98533506666669,124.26431878333335,61.0,67.0
401,123.85489906666669,125.17736098333336,73.0,80.0
402,124.72446306666669,125.36938970000001,61.0,65.0
403,124.28968106666669,125.51975180833335,53.0,74.0
404,125.15924506666668,126.06504090000001,68.0,82.0
405,126.02880906666668,127.35851735000001,70.0,84.0
406,127.33315506666669,127.75887910833335,68.0,73.0
407,126.8983730666667,128.7570661166667,63.0,73.0
408,126.46359106666668,128.8277181916667,58.0,61.0
409,126.02880906666668,128.99619621666668,51.0,78.0
410,127.76793706666669,129.70452855833335,66.0,79.0
411,129.50706506666668,130.43822318333335,42.0,76.0
412,129.9418470666667,130.43822318333335,54.0,77.0
413,130.37662906666668,131.00887455833336,58.0,81.0
414,130.8114110666667,131.23170033333335,61.0,76.0
415,131.24619306666668,131.61938095000002,65.0,87.0
416,132.11575706666667,132.50887245833334,65.0,80.0
417,131.6809750666667,132.56322020833335,60.0,65.0
418,131.24619306666668,132.65561138333337,53.0,73.0
419,132.5505390666667,134.27879751666669,70.0,86.0
420,134.28966706666668,134.70270996666667,68.0,78.0
421,133.8548850666667,135.69365060833334,63.0,77.0
422,133.42010306666668,135.755244725,58.0,67.0
423,132.9853210666667,135.8494474916667,51.0,82.0
424,134.7244490666667,136.33133087500002,66.0,75.0
425,136.8983590666667,137.7570535166667,54.0,71.0
426,137.33314106666668,137.79690853333335,59.0,80.0
427,136.4635770666667,137.8222708166667,47.0,83.0
428,137.7679230666667,138.30777738333336,71.0,82.0
429,137.7679230666667,138.39292219166668,63.0,86.0
430,139.07226906666668,139.42371785000003,61.0,86.0
431,138.6374870666667,139.44908013333335,56.0,74.0
432,138.20270506666668,139.4907467416667,49.0,86.0
433,139.5070510666667,139.72263047500002,65.0,91.0
434,139.72444206666668,139.9798764916667,66.0,86.0
435,139.94183306666667,139.9798764916667,66.0,81.0
436,139.94183306666667,140.5613974166667,70.0,78.0
437,139.94183306666667,140.66103495833335,54.0,77.0
438,139.94183306666667,140.73712180833334,61.0,78.0
439,140.8113970666667,141.64291764166668,65.0,85.0
440,140.8113970666667,141.65016400833335,68.0,79.0
441,140.8113970666667,141.66284515,53.0,80.0
442,141.6809610666667,143.05052436666668,51.0,74.0
443,141.6809610666667,143.05777073333334,66.0,84.0
444,141.6809610666667,143.13023440000003,63.0,71.0
445,143.4200890666667,144.91465219166668,47.0,84.0
446,144.2896530666667,144.93457970000003,59.0,78.0
447,144.7244350666667,145.1918257166667,63.0,70.0
448,143.85487106666668,146.19363590833336,54.0,73.0
449,146.6809540666667,146.86392482500003,61.0,67.0
450,146.89834506666668,147.700880175,65.0,85.0
451,148.2026910666667,148.59580645833336,66.0,82.0
452,148.6374730666667,148.81682064166668,65.0,77.0
453,148.6374730666667,148.87660316666668,68.0,81.0
454,147.7679090666667,149.57044277500003,61.0,74.0
455,147.3331270666667,149.64471803333336,56.0,76.0
456,146.89834506666668,149.6646455416667,49.0,81.0
457,149.5070370666667,149.8983408666667,71.0,119.0
458,149.94181906666668,150.34036923333335,73.0,79.0
459,150.3766010666667,151.00884655833335,70.0,113.0
460,150.3766010666667,151.02515088333337,66.0,116.0
461,150.3766010666667,151.02696247500003,61.0,108.0
462,151.0287740666667,151.36210693333337,54.0,89.0
463,150.3766010666667,151.65920796666668,42.0,104.0
464,151.2461650666667,151.9472510416667,70.0,113.0
465,151.2461650666667,152.00159879166668,61.0,113.0
466,151.2461650666667,152.00341038333335,66.0,117.0
467,151.6809470666667,152.09036678333337,54.0,88.0
468,152.1157290666667,152.78239480000002,61.0,107.0
469,152.1157290666667,152.78239480000002,65.0,113.0
470,152.1157290666667,152.79326435000002,68.0,110.0
471,152.7679020666667,153.07406105833337,56.0,90.0
472,152.1157290666667,153.47261122500004,49.0,91.0
473,152.98529306666669,153.58130672500002,61.0,113.0
474,152.98529306666669,153.72985724166668,65.0,117.0
475,152.98529306666669,153.733480425,68.0,117.0
476,153.4200750666667,153.85123388333335,56.0,88.0
477,153.85485706666668,154.14471173333337,63.0,108.0
478,153.85485706666668,154.52514598333335,66.0,110.0
479,153.85485706666668,154.53239235000004,70.0,107.0
480,154.5070300666667,154.90014545833336,63.0,107.0
481,154.2896390666667,155.07586985000003,58.0,80.0
482,155.1592030666667,155.26427538333337,58.0,36.0
483,154.72442106666668,155.26427538333337,65.0,120.0
484,155.1592030666667,155.3548549666667,63.0,83.0
485,155.37659406666668,155.66282555000004,63.0,116.0
486,155.37659406666668,155.67731828333336,70.0,114.0
487,155.37659406666668,155.69543420000002,66.0,114.0
488,155.5939850666667,155.7624630916667,58.0,75.0
489,155.8113760666667,156.21717260000003,63.0,102.0
490,155.8113760666667,156.23528851666669,70.0,108.0
491,155.8113760666667,156.24615806666668,66.0,113.0
492,156.24615806666668,156.62840390833335,58.0,104.0
493,153.85485706666668,156.711737125,51.0,88.0
494,156.4635490666667,156.97622950833335,63.0,119.0
495,156.89833106666669,156.9780411,51.0,88.0
496,156.4635490666667,156.99253383333337,66.0,119.0
497,156.4635490666667,156.99796860833337,70.0,113.0
498,157.3331130666667,157.99796720833336,66.0,116.0
499,157.3331130666667,157.99796720833336,71.0,113.0
500,157.3331130666667,158.00340198333336,63.0,113.0
501,157.9852860666667,158.34579280833336,59.0,103.0
502,157.3331130666667,158.68999522500002,47.0,103.0
503,158.2026770666667,158.74434297500002,66.0,119.0
504,158.2026770666667,158.85847325000003,71.0,116.0
505,158.63745906666668,158.90195145,59.0,100.0
506,158.2026770666667,158.9418064666667,63.0,114.0
507,159.0722410666667,159.56318240833335,65.0,110.0
508,159.0722410666667,159.62477652500002,68.0,110.0
509,159.0722410666667,159.63383448333335,61.0,104.0
510,159.5070230666667,159.85666025833336,56.0,88.0
511,160.15919606666668,160.28963066666668,56.0,88.0
512,159.0722410666667,160.32405090833336,49.0,100.0
513,159.7244140666667,160.34941319166668,65.0,117.0
514,159.7244140666667,160.36209433333335,68.0,110.0
515,159.7244140666667,160.40557253333336,61.0,110.0
516,160.81136906666669,161.48165798333335,66.0,104.0
517,160.81136906666669,161.5124550416667,61.0,113.0
518,160.81136906666669,161.51970140833336,58.0,104.0
519,161.4635420666667,161.75701991666668,54.0,94.0
520,161.68093306666668,162.15738167500004,66.0,114.0
521,161.68093306666668,162.18999032500002,61.0,119.0
522,161.68093306666668,162.19542510000002,58.0,116.0
523,162.3331060666667,162.3820190416667,61.0,116.0
524,162.3331060666667,162.3928885916667,66.0,108.0
525,162.3331060666667,162.40375814166669,58.0,108.0
526,162.1157150666667,162.98709065833336,54.0,86.0
527,160.81136906666669,163.1918005166667,42.0,92.0
528,162.7678880666667,163.23890190000003,66.0,113.0
529,162.7678880666667,163.24795985833336,61.0,119.0
530,162.7678880666667,163.25882940833336,58.0,113.0
531,163.20267006666668,163.41824947500004,42.0,96.0
532,163.20267006666668,163.5070174666667,54.0,113.0
533,163.4200610666667,163.8494082916667,58.0,116.0
534,163.8548430666667,163.94542265,42.0,108.0
535,163.4200610666667,164.29143665833337,61.0,120.0
536,163.4200610666667,164.31498735000002,66.0,114.0
537,164.2896250666667,164.7787548166667,54.0,89.0
538,164.72440706666669,164.89650827500003,70.0,75.0
539,164.72440706666669,164.8983198666667,66.0,73.0
540,164.72440706666669,164.9417980666667,61.0,82.0
541,164.9417980666667,165.26244979166668,54.0,96.0
542,164.2896250666667,165.69904338333336,42.0,96.0
543,165.1591890666667,165.86208663333335,70.0,116.0
544,165.1591890666667,165.8983184666667,61.0,117.0
545,165.1591890666667,165.8983184666667,66.0,120.0
546,165.59397106666668,165.96534735833336,54.0,88.0
547,166.0287530666667,166.66824492500004,61.0,110.0
548,166.0287530666667,166.66824492500004,65.0,116.0
549,166.0287530666667,166.67911447500003,68.0,116.0
550,166.6809260666667,166.97802710000002,56.0,114.0
551,166.0287530666667,167.40193955000004,49.0,100.0
552,167.3330990666667,167.4200554666667,56.0,89.0
553,166.8983170666667,167.44360615833335,61.0,117.0
554,166.8983170666667,167.5939682666667,68.0,119.0
555,166.8983170666667,167.61208418333337,65.0,120.0
556,167.7678810666667,168.07585165000003,63.0,114.0
557,167.7678810666667,168.25157604166668,70.0,104.0
558,167.7678810666667,168.255199225,66.0,116.0
559,168.4200540666667,168.48345977500003,65.0,87.0
560,168.2026630666667,168.6972275916667,58.0,86.0
561,168.6374450666667,169.11027049166668,65.0,119.0
562,168.6374450666667,169.12476322500004,70.0,117.0
563,169.2896180666667,169.3439658166667,66.0,114.0
564,169.2896180666667,169.3494005916667,63.0,107.0
565,169.2896180666667,169.36932810000002,70.0,107.0
566,169.0722270666667,169.8657042166667,58.0,92.0
567,169.7244000666667,170.1809211666667,70.0,113.0
568,169.7244000666667,170.1972254916667,66.0,117.0
569,169.7244000666667,170.20447185833336,63.0,114.0
570,170.1591820666667,170.52512358333337,58.0,117.0
571,167.7678810666667,170.56860178333335,51.0,102.0
572,170.37657306666668,170.83490575833335,66.0,120.0
573,170.37657306666668,170.8548332666667,63.0,119.0
574,170.37657306666668,170.88925350833335,70.0,114.0
575,170.8113550666667,170.89649987500002,51.0,102.0
576,171.2461370666667,171.7298320416667,59.0,109.0
577,171.2461370666667,171.9091796166667,66.0,114.0
578,171.2461370666667,171.92367235000003,63.0,113.0
579,171.2461370666667,171.92910712500003,71.0,113.0
580,171.89831006666668,172.22620815833335,59.0,95.0
581,172.5504830666667,172.64468583333337,59.0,106.0
582,172.1157010666667,172.76606247500004,66.0,120.0
583,171.2461370666667,172.77512043333337,47.0,97.0
584,172.1157010666667,172.77693202500004,71.0,119.0
585,172.1157010666667,172.88381593333335,63.0,117.0
586,172.7678740666667,172.9417868666667,59.0,90.0
587,172.9852650666667,173.6700467166667,68.0,113.0
588,172.9852650666667,173.68272785833335,61.0,104.0
589,172.9852650666667,173.69540900000004,65.0,114.0
590,173.6374380666667,174.04685778333337,56.0,108.0
591,172.9852650666667,174.11207508333337,49.0,100.0
592,174.28961106666668,174.40011815833336,49.0,107.0
593,173.8548290666667,174.55953822500004,61.0,114.0
594,173.8548290666667,174.57040777500004,68.0,113.0
595,173.8548290666667,174.5776541416667,65.0,119.0
596,174.7243930666667,175.1537402916667,66.0,117.0
597,174.7243930666667,175.18816053333336,70.0,110.0
598,174.7243930666667,175.23345032500004,61.0,108.0
599,175.3765660666667,175.73163803333335,54.0,107.0
600,175.5939570666667,175.78598578333336,58.0,113.0
601,175.5939570666667,175.93634789166668,61.0,114.0
602,175.5939570666667,175.96533335833337,66.0,113.0
603,176.0287390666667,176.33852124166668,54.0,104.0
604,176.2461300666667,176.50518767500003,61.0,113.0
605,176.2461300666667,176.51605722500003,70.0,113.0
606,176.2461300666667,176.5287383666667,66.0,116.0
607,176.4635210666667,176.68272365833337,54.0,98.0
608,176.6809120666667,176.75518732500004,61.0,107.0
609,176.6809120666667,176.8167814416667,66.0,117.0
610,176.6809120666667,176.83127417500003,70.0,110.0
611,177.1156940666667,177.45446170833335,54.0,108.0
612,174.7243930666667,177.74250478333337,42.0,108.0
613,177.33308506666668,177.7733018416667,70.0,123.0
614,177.33308506666668,177.82040322500004,66.0,117.0
615,177.33308506666668,177.86750460833335,73.0,117.0
616,177.7678670666667,178.0776492416667,54.0,93.0
617,178.20264906666668,178.47076463333337,70.0,108.0
618,178.20264906666668,178.51967760833335,61.0,108.0
619,178.20264906666668,178.52148920000002,66.0,114.0
620,178.20264906666668,178.63018470000003,54.0,102.0
621,178.6374310666667,178.88018435000004,70.0,78.0
622,178.6374310666667,178.88380753333337,61.0,71.0
623,178.6374310666667,178.91098140833336,66.0,79.0
624,178.85482206666669,179.21170562500004,54.0,116.0
625,178.20264906666668,179.61387897500003,42.0,110.0
626,179.5069950666667,179.63924125833336,54.0,110.0
627,179.0722130666667,179.7298208416667,70.0,113.0
628,179.0722130666667,179.78598018333335,66.0,117.0
629,179.0722130666667,179.7950381416667,61.0,114.0
630,179.9417770666667,180.04322620000002,49.0,98.0
631,180.3765590666667,180.54684868333337,49.0,104.0
632,179.9417770666667,180.54684868333337,65.0,116.0
633,179.9417770666667,180.54866027500003,68.0,117.0
634,179.9417770666667,180.55409505000003,61.0,113.0
635,180.5939500666667,180.83126857500002,49.0,114.0
636,180.5939500666667,181.08126822500003,61.0,114.0
637,180.5939500666667,181.0830798166667,65.0,119.0
638,180.5939500666667,181.08489140833336,68.0,119.0
639,181.0287320666667,181.26061580000004,49.0,119.0
640,181.24612306666668,181.49249953333336,61.0,110.0
641,181.24612306666668,181.51786181666668,65.0,113.0
642,179.9417770666667,181.5232965916667,37.0,114.0
643,181.24612306666668,181.5232965916667,68.0,113.0
644,181.4635140666667,181.58126752500002,49.0,117.0
645,181.6809050666667,182.22619415833336,70.0,110.0
646,181.6809050666667,182.2352521166667,66.0,116.0
647,181.6809050666667,182.24974485000004,63.0,114.0
648,182.1156870666667,182.45988948333337,51.0,110.0
649,182.3330780666667,182.8222078166667,70.0,114.0
650,182.3330780666667,182.83307736666669,66.0,119.0
651,182.3330780666667,182.84213532500002,63.0,117.0
652,182.76786006666669,183.04322200000001,51.0,119.0
653,181.6809050666667,183.3167723416667,39.0,114.0
654,183.2026420666667,183.3493809916667,51.0,104.0
655,182.9852510666667,183.93452510000003,70.0,104.0
656,182.9852510666667,183.94901783333336,63.0,108.0
657,182.9852510666667,183.95082942500002,66.0,114.0
658,183.8548150666667,184.11387267500004,51.0,92.0
659,184.0722060666667,184.5395967166667,70.0,113.0
660,184.0722060666667,184.55227785833335,66.0,117.0
661,184.0722060666667,184.5559010416667,63.0,116.0
662,184.5069880666667,184.72075588333337,51.0,114.0
663,183.4200330666667,184.8874223166667,39.0,116.0
664,184.7243790666667,184.9526396166667,66.0,114.0
665,184.7243790666667,184.99974100000003,63.0,116.0
666,184.7243790666667,185.00879895833336,70.0,108.0
667,184.9417700666667,185.02691487500002,51.0,110.0
668,185.5939430666667,185.71531970833337,59.0,97.0
669,185.15916106666668,185.8602470416667,71.0,116.0
670,185.15916106666668,185.8656818166667,66.0,114.0
671,185.15916106666668,185.87473977500002,63.0,108.0
672,185.8113340666667,186.1102466916667,59.0,109.0
673,186.0287250666667,186.60843440000002,66.0,117.0
674,186.0287250666667,186.60843440000002,71.0,116.0
675,185.15916106666668,186.6482894166667,47.0,103.0
676,186.0287250666667,186.65553578333336,63.0,114.0
677,186.4635070666667,186.7406805916667,59.0,109.0
678,186.8982890666667,187.56314320833337,68.0,110.0
679,186.8982890666667,187.6211141416667,61.0,110.0
680,186.8982890666667,187.62473732500004,65.0,114.0
681,187.55046206666668,187.9526354166667,56.0,98.0
682,186.8982890666667,188.00335998333335,49.0,104.0
683,188.2026350666667,188.2841566916667,49.0,100.0
684,187.7678530666667,188.29683783333337,61.0,113.0
685,187.7678530666667,188.43995357500003,68.0,108.0
686,187.7678530666667,188.4526347166667,65.0,116.0
687,188.6374170666667,188.8167646416667,66.0,116.0
688,188.6374170666667,188.92727173333336,70.0,104.0
689,188.6374170666667,189.14285114166668,61.0,108.0
690,189.2895900666667,189.3493725916667,61.0,90.0
691,189.2895900666667,189.35661895833337,58.0,87.0
692,189.07219906666668,189.57038677500003,54.0,113.0
693,189.5069810666667,189.9689369416667,66.0,114.0
694,189.5069810666667,190.00335718333335,58.0,116.0
695,189.5069810666667,190.00879195833338,61.0,120.0
696,190.1591540666667,190.22255977500004,61.0,114.0
697,190.1591540666667,190.2298061416667,58.0,107.0
698,190.1591540666667,190.24248728333336,66.0,107.0
699,189.9417630666667,190.70987793333336,54.0,110.0
700,188.8548080666667,190.88560232500004,49.0,79.0
701,190.59393606666669,191.06313830833335,66.0,110.0
702,190.59393606666669,191.07581945000004,58.0,110.0
703,190.59393606666669,191.07944263333337,61.0,117.0
704,191.0287180666667,191.33125387500002,54.0,114.0
705,191.0287180666667,191.44357255833336,49.0,86.0
706,191.2461090666667,191.59212307500002,58.0,119.0
707,188.6374170666667,191.72436926666668,42.0,108.0
708,191.2461090666667,191.91096320833336,66.0,116.0
709,191.2461090666667,191.94357185833337,61.0,120.0
710,191.6808910666667,191.9743689166667,54.0,96.0
711,192.1156730666667,192.50878845833336,58.0,114.0
712,192.1156730666667,192.80951267500004,66.0,108.0
713,192.1156730666667,192.85480246666668,61.0,117.0
714,192.7678460666667,193.11204848333335,54.0,116.0
715,192.98523706666668,193.25335263333335,58.0,116.0
716,192.98523706666668,193.4580624916667,66.0,113.0
717,192.98523706666668,193.4689320416667,61.0,119.0
718,192.1156730666667,193.49791750833336,42.0,114.0
719,193.4200190666667,193.75335193333336,54.0,108.0
720,193.8548010666667,194.33124967500004,68.0,107.0
721,193.8548010666667,194.39103220000004,61.0,107.0
722,193.8548010666667,194.39465538333337,65.0,114.0
723,194.2895830666667,194.7026259666667,56.0,107.0
724,194.5069740666667,194.9852342666667,68.0,114.0
725,194.5069740666667,194.9961038166667,65.0,119.0
726,194.5069740666667,194.99972700000004,61.0,114.0
727,194.9417560666667,195.22798755000002,56.0,104.0
728,193.8548010666667,195.26421938333337,49.0,107.0
729,195.1591470666667,195.4471901416667,68.0,102.0
730,195.1591470666667,195.46530605833337,61.0,110.0
731,195.1591470666667,195.5341465416667,65.0,114.0
732,196.0287110666667,196.0830588166667,51.0,76.0
733,195.5939290666667,196.27508753333336,70.0,108.0
734,195.5939290666667,196.2895802666667,66.0,116.0
735,195.5939290666667,196.30044981666668,63.0,108.0
736,196.2461020666667,196.65189860000004,51.0,113.0
737,196.4634930666667,196.98160828333337,63.0,117.0
738,196.4634930666667,196.98885465000004,66.0,119.0
739,196.4634930666667,196.99791260833337,70.0,110.0
740,197.1156660666667,197.1808833666667,66.0,114.0
741,196.89827506666668,197.18269495833337,51.0,88.0
742,197.1156660666667,197.18269495833337,51.0,83.0
743,197.1156660666667,197.1917529166667,63.0,113.0
744,197.1156660666667,197.21530360833336,70.0,104.0
745,197.3330570666667,197.38015845000004,66.0,88.0
746,197.5504480666667,198.0395778166667,70.0,108.0
747,197.5504480666667,198.05225895833337,66.0,116.0
748,197.5504480666667,198.05407055000003,63.0,113.0
749,197.9852300666667,198.2352297166667,51.0,114.0
750,198.2026210666667,198.4852293666667,70.0,114.0
751,198.2026210666667,198.49972210000004,66.0,120.0
752,198.2026210666667,198.50334528333337,63.0,116.0
753,195.5939290666667,198.55588144166668,39.0,114.0
754,198.4200120666667,198.68269285833335,51.0,117.0
755,198.6374030666667,198.79319995000003,66.0,116.0
756,198.6374030666667,198.8384897416667,70.0,107.0
757,198.6374030666667,198.90008385833337,63.0,113.0
758,198.8547940666667,198.96711275000004,66.0,80.0
759,199.0721850666667,199.13377918333336,59.0,103.0
760,199.0721850666667,199.76602467500004,63.0,110.0
761,199.0721850666667,199.7732710416667,66.0,116.0
762,199.0721850666667,199.78051740833337,71.0,116.0
763,199.7243580666667,200.05950252500003,59.0,113.0
764,199.9417490666667,200.51058885000003,66.0,119.0
765,199.9417490666667,200.54682068333335,71.0,119.0
766,199.0721850666667,200.57580615000003,47.0,103.0
767,199.9417490666667,200.5830525166667,63.0,114.0
768,200.3765310666667,200.60298002500002,59.0,81.0
769,200.81131306666668,201.4526165166667,68.0,107.0
770,200.81131306666668,201.5069642666667,61.0,113.0
771,200.81131306666668,201.51058745000003,65.0,113.0
772,201.4634860666667,201.83123917500004,56.0,113.0
773,200.81131306666668,201.93449990000002,49.0,100.0
774,202.1156590666667,202.20080387500002,49.0,98.0
775,201.6808770666667,202.27689072500004,61.0,116.0
776,201.6808770666667,202.35297757500004,68.0,117.0
777,201.6808770666667,202.36747030833337,65.0,119.0
778,202.5504410666667,202.79681753333335,66.0,117.0
779,202.5504410666667,202.8547884666667,70.0,113.0
780,202.5504410666667,203.25515022500002,61.0,114.0
781,203.2026140666667,203.52688897500002,54.0,110.0
782,203.4200050666667,203.91094640833336,66.0,114.0
783,203.4200050666667,203.9580477916667,61.0,119.0
784,203.4200050666667,203.96529415833336,58.0,116.0
785,204.0721780666667,204.14101855000004,61.0,107.0
786,204.0721780666667,204.1591344666667,66.0,100.0
787,204.0721780666667,204.16275765000003,58.0,104.0
788,203.8547870666667,204.71529310833336,54.0,102.0
789,204.5069600666667,204.98159708333336,66.0,104.0
790,204.5069600666667,204.98703185833335,61.0,113.0
791,204.5069600666667,204.99427822500004,58.0,107.0
792,204.9417420666667,205.25514742500002,54.0,108.0
793,205.1591330666667,205.54319050000004,58.0,114.0
794,205.1591330666667,205.65732077500004,66.0,114.0
795,205.1591330666667,205.6808714666667,61.0,119.0
796,202.5504410666667,205.72616125833338,42.0,104.0
797,205.9200015666667,206.06492890000004,66.0,81.0
798,205.8113060666667,206.4200008666667,63.0,68.0
799,206.0286970666667,207.22253597500003,70.0,90.0
800,206.4634790666667,207.24789825833338,54.0,38.0
801,206.8982610666667,207.26057940000004,59.0,76.0
802,206.0286970666667,207.32398510833337,47.0,77.0
803,207.3330430666667,207.76963665833335,70.0,83.0
804,207.7678250666667,208.3547807666667,61.0,82.0
805,207.7678250666667,208.3873894166667,68.0,82.0
806,207.7678250666667,208.91637418333337,49.0,83.0
807,208.63738906666669,209.07398265833336,68.0,80.0
808,208.63738906666669,209.46709805000003,61.0,75.0
809,209.34753300000003,210.38014025000004,63.0,52.0
810,209.49970670000002,210.42724163333335,71.0,81.0
811,209.92180755833337,210.7406469916667,54.0,52.0
812,210.35296637500002,210.74789335833336,59.0,70.0
813,209.4689096416667,210.7515165416667,47.0,80.0
814,210.8112990666667,210.93267570833336,63.0,79.0
815,210.81311065833336,211.22615355833338,71.0,73.0
816,211.2406462916667,211.70441375833337,68.0,80.0
817,211.2569506166667,211.72796445000003,65.0,72.0
818,211.69354420833338,212.29136945833338,56.0,50.0
819,211.2460810666667,212.33484765833336,49.0,73.0
820,212.1536884916667,212.9852090666667,68.0,81.0
821,213.0015133916667,214.0123815416667,59.0,74.0
822,213.02687567500004,214.12832340833336,47.0,69.0
823,212.99426702500003,214.5939024666667,62.0,81.0
824,214.85296007500003,216.13919015833338,65.0,74.0
825,214.84752530000003,216.24788565833336,61.0,70.0
826,215.0993365416667,216.50513167500003,49.0,34.0
827,216.71708790000002,217.29136245833337,66.0,81.0
828,216.68991402500004,217.48339117500004,59.0,72.0
829,217.7025937666667,218.03049185833336,58.0,76.0
830,217.9580281916667,218.2678103666667,59.0,83.0
831,218.26056400000004,218.3819406416667,66.0,83.0
832,218.6102011916667,218.86925880000004,70.0,84.0
833,218.94353405833337,219.0721570666667,71.0,76.0
834,219.32034512500005,219.91273560000005,73.0,64.0
835,219.67904027500003,220.4471551416667,78.0,68.0
836,220.07034407500004,220.5395463166667,83.0,75.0
837,221.6591099666667,222.03048625833335,90.0,75.0
838,221.5286753666667,222.03410944166671,85.0,64.0
839,217.45984048333338,222.0449789916667,54.0,80.0
840,221.34751620000003,222.04679058333338,78.0,64.0
841,217.1808553666667,222.0667180916667,49.0,63.0
842,216.70078357500003,222.07034127500003,42.0,74.0
