,start,end,pitch,velocity
0,17.273955616666665,17.683201789583332,57.0,89.0
1,17.684914116666665,18.095872616666664,57.0,91.0
2,18.095872616666664,18.506831116666664,66.0,86.0
3,18.506831116666664,18.917789616666663,64.0,87.0
4,18.917789616666663,19.138679810416665,66.0,84.0
5,19.123268866666663,19.534227366666663,64.0,85.0
6,19.534227366666663,20.561623616666665,62.0,88.0
7,20.561623616666665,20.97086978958333,57.0,91.0
8,20.972582116666665,21.383540616666664,57.0,88.0
9,21.383540616666664,21.794499116666664,66.0,86.0
10,21.794499116666664,22.205457616666664,64.0,90.0
11,22.205457616666664,22.410936866666663,66.0,84.0
12,22.410936866666663,22.821895366666663,64.0,88.0
13,22.821895366666663,23.84929161666666,62.0,91.0
14,23.84929161666666,24.25853778958333,67.0,100.0
15,24.260250116666665,24.671208616666664,67.0,96.0
16,24.671208616666664,25.082167116666664,66.0,91.0
17,25.082167116666664,25.493125616666664,64.0,93.0
18,25.493125616666664,25.698604866666663,66.0,86.0
19,25.698604866666663,26.315042616666663,64.0,92.0
20,26.315042616666663,26.726001116666662,62.0,88.0
21,26.726001116666662,30.424627616666662,64.0,92.0
22,30.424627616666662,30.83387378958333,57.0,88.0
23,30.83558611666666,31.24654461666666,57.0,91.0
24,31.24654461666666,31.657503116666664,66.0,89.0
25,31.657503116666664,32.06846161666666,64.0,88.0
26,32.06846161666666,32.316749043749994,66.0,83.0
27,32.27394086666666,32.68489936666666,64.0,86.0
28,32.68489936666666,33.712295616666665,62.0,91.0
29,33.712295616666665,34.121541789583326,57.0,88.0
30,34.123254116666665,34.534212616666665,57.0,94.0
31,34.534212616666665,34.945171116666664,66.0,103.0
32,34.945171116666664,35.356129616666664,69.0,92.0
33,35.356129616666664,35.56160886666666,66.0,86.0
34,35.56160886666666,35.97256736666666,64.0,91.0
35,35.97256736666666,36.99996361666666,62.0,89.0
36,36.99996361666666,37.40920978958333,67.0,106.0
37,37.41092211666666,37.82188061666666,67.0,110.0
38,37.82188061666666,38.23283911666666,66.0,106.0
39,38.23283911666666,38.64379761666666,64.0,98.0
40,38.64379761666666,38.84927686666666,66.0,91.0
41,38.84927686666666,39.26023536666666,64.0,93.0
42,39.26023536666666,39.87667311666666,62.0,88.0
43,39.87667311666666,42.54790336666666,69.0,108.0
44,42.54790336666666,42.95886186666666,74.0,114.0
45,42.95886186666666,43.16434111666666,73.0,95.0
46,43.16434111666666,43.57358728958333,71.0,102.0
47,43.57529961666666,43.98625811666666,71.0,100.0
48,43.98625811666666,44.39721661666666,73.0,103.0
49,44.39721661666666,44.600983539583325,71.0,94.0
50,44.60269586666666,45.013654366666664,71.0,96.0
51,45.013654366666664,45.83385903958333,66.0,95.0
52,45.83557136666666,46.24652986666666,66.0,97.0
53,46.24652986666666,46.45200911666666,69.0,89.0
54,46.45200911666666,46.861255289583326,71.0,93.0
55,46.86296761666666,47.27392611666666,71.0,96.0
56,47.27392611666666,47.68488461666666,62.0,98.0
57,47.68488461666666,48.09584311666666,64.0,98.0
58,48.09584311666666,49.12152703958333,66.0,91.0
59,49.12323936666666,49.32700628958332,66.0,86.0
60,49.32871861666666,49.55474579166666,66.0,84.0
61,49.53419786666666,49.74995107916666,69.0,88.0
62,49.73967711666666,49.95543032916666,71.0,91.0
63,49.94515636666666,50.17632052291666,69.0,87.0
64,50.15063561666666,50.37666279166666,71.0,88.0
65,50.35611486666666,50.59755298541666,69.0,87.0
66,50.56159411666666,50.97255261666666,71.0,91.0
67,50.97255261666666,51.17803186666666,69.0,107.0
68,51.17803186666666,52.409195039583324,71.0,113.0
69,52.41090736666666,52.82186586666666,71.0,110.0
70,52.82186586666666,53.02734511666666,74.0,100.0
71,53.02734511666666,53.23282436666666,76.0,110.0
72,53.23282436666666,53.445152924999995,74.0,92.0
73,53.43830361666666,53.64378286666666,76.0,98.0
74,53.64378286666666,53.84926211666666,74.0,91.0
75,53.84926211666666,54.26022061666666,78.0,113.0
76,54.26022061666666,54.46569986666666,74.0,110.0
77,54.46569986666666,56.72597161666666,76.0,119.0
78,56.72597161666666,57.13521778958332,74.0,116.0
79,57.13693011666666,57.54788861666666,74.0,117.0
80,57.54788861666666,57.95884711666666,69.0,114.0
81,57.95884711666666,58.36980561666666,76.0,119.0
82,58.36980561666666,58.60610675416666,74.0,108.0
83,58.57528486666666,58.986243366666656,73.0,113.0
84,58.986243366666656,59.397201866666656,74.0,113.0
85,59.397201866666656,60.21911886666666,71.0,102.0
86,60.21911886666666,60.422885789583326,74.0,100.0
87,60.42459811666666,60.63007736666666,74.0,108.0
88,60.63007736666666,61.24651511666666,69.0,107.0
89,61.24651511666666,61.65747361666666,76.0,108.0
90,61.65747361666666,61.89719940833333,74.0,102.0
91,61.86295286666666,62.27391136666666,73.0,100.0
92,62.27391136666666,62.68486986666666,74.0,102.0
93,62.68486986666666,63.50678686666666,71.0,110.0
94,63.50678686666666,63.71055378958332,74.0,107.0
95,63.71226611666666,63.91774536666666,74.0,107.0
96,63.91774536666666,64.53418311666665,69.0,102.0
97,64.53418311666665,64.94514161666666,76.0,119.0
98,64.94514161666666,65.15062086666666,74.0,110.0
99,65.15062086666666,65.56157936666666,76.0,116.0
100,65.56157936666666,66.17801711666665,78.0,116.0
101,66.17801711666665,66.58897561666666,79.0,123.0
102,66.58897561666666,66.79445486666665,78.0,113.0
103,66.79445486666665,67.20541336666666,74.0,116.0
104,67.20541336666666,67.82185111666666,76.0,110.0
105,67.82185111666666,68.23280961666666,79.0,116.0
106,68.23280961666666,68.46226144583332,78.0,106.0
107,68.43828886666665,68.84924736666666,74.0,114.0
108,68.84924736666666,69.87664361666666,76.0,114.0
109,69.87664361666666,70.28588978958332,74.0,116.0
110,70.28760211666666,70.69856061666665,74.0,117.0
111,70.69856061666665,71.10951911666666,69.0,114.0
112,71.10951911666666,71.52047761666665,76.0,119.0
113,71.52047761666665,71.75677875416666,74.0,108.0
114,71.72595686666666,72.13691536666666,73.0,113.0
115,72.13691536666666,72.54787386666666,74.0,113.0
116,72.54787386666666,73.36979086666666,71.0,102.0
117,73.36979086666666,73.57355778958332,74.0,100.0
118,73.57527011666666,73.78074936666665,74.0,108.0
119,73.78074936666665,74.39718711666666,69.0,107.0
120,74.39718711666666,74.80814561666665,76.0,116.0
121,74.80814561666665,75.01362486666666,74.0,107.0
122,75.01362486666666,75.42458336666665,76.0,110.0
123,75.42458336666665,76.04102111666666,78.0,119.0
124,76.04102111666666,76.253349675,79.0,116.0
125,76.24650036666665,76.65745886666666,78.0,116.0
126,76.65745886666666,77.68485511666665,74.0,116.0
127,77.68485511666665,77.96225210416665,79.0,116.0
128,77.89033436666665,78.30129286666666,78.0,116.0
129,78.30129286666666,79.12320986666666,74.0,116.0
130,79.12320986666666,79.32868911666665,69.0,100.0
131,79.32868911666665,79.54444232916666,79.0,110.0
132,79.53416836666666,79.94512686666666,78.0,109.0
133,79.94512686666666,80.35608536666666,74.0,114.0
134,80.35608536666666,80.76704386666665,76.0,110.0
135,80.76704386666665,80.97252311666665,74.0,110.0
136,80.97252311666665,81.38348161666666,76.0,116.0
137,81.38348161666666,81.79444011666665,78.0,116.0
138,81.79444011666665,82.20539861666666,74.0,119.0
139,82.20539861666666,82.61635711666665,73.0,116.0
140,82.61635711666665,84.42799917083332,74.0,113.0
141,96.143741075,96.55298724791665,57.0,89.0
142,96.55469957499999,96.965658075,57.0,91.0
143,96.965658075,97.37661657499999,66.0,86.0
144,97.37661657499999,97.78757507499999,64.0,87.0
145,97.78757507499999,98.00846526874999,66.0,84.0
146,97.99305432499999,98.40401282499998,64.0,85.0
147,98.40401282499998,99.43140907499999,62.0,88.0
148,99.43140907499999,99.84065524791666,57.0,91.0
149,99.84236757499998,100.25332607499999,57.0,88.0
150,100.25332607499999,100.66428457499998,66.0,86.0
151,100.66428457499998,101.07524307499999,64.0,90.0
152,101.07524307499999,101.28072232499999,66.0,84.0
153,101.28072232499999,101.69168082499999,64.0,88.0
154,101.69168082499999,102.71907707499999,62.0,91.0
155,102.71907707499999,103.12832324791665,67.0,100.0
156,103.13003557499998,103.54099407499999,67.0,96.0
157,103.54099407499999,103.95195257499999,66.0,91.0
158,103.95195257499999,104.36291107499999,64.0,93.0
159,104.36291107499999,104.56839032499998,66.0,86.0
160,104.56839032499998,105.18482807499998,64.0,92.0
161,105.18482807499998,105.59578657499999,62.0,88.0
162,105.59578657499999,109.29441307499998,64.0,92.0
163,109.29441307499998,109.70365924791665,57.0,88.0
164,109.70537157499999,110.11633007499998,57.0,91.0
165,110.11633007499998,110.52728857499999,66.0,89.0
166,110.52728857499999,110.93824707499998,64.0,88.0
167,110.93824707499998,111.18824682916666,66.0,83.0
168,111.14372632499999,111.55468482499998,64.0,86.0
169,111.55468482499998,112.58208107499999,62.0,91.0
170,112.58208107499999,112.99132724791666,57.0,88.0
171,112.99303957499998,113.40399807499999,57.0,94.0
172,113.40399807499999,113.81495657499998,66.0,103.0
173,113.81495657499998,114.22591507499999,69.0,92.0
174,114.22591507499999,114.43139432499999,66.0,86.0
175,114.43139432499999,114.84235282499998,64.0,91.0
176,114.84235282499998,115.86974907499999,62.0,89.0
177,115.86974907499999,116.27899524791665,67.0,106.0
178,116.28070757499998,116.69166607499999,67.0,110.0
179,116.69166607499999,117.10262457499998,66.0,106.0
180,117.10262457499998,117.51358307499999,64.0,98.0
181,117.51358307499999,117.71906232499998,66.0,91.0
182,117.71906232499998,118.13002082499999,64.0,93.0
183,118.13002082499999,118.74645857499999,62.0,88.0
184,118.74645857499999,121.41768882499998,69.0,108.0
185,121.41768882499998,121.82864732499998,74.0,114.0
186,121.82864732499998,122.03412657499999,73.0,95.0
187,122.03412657499999,122.44337274791665,71.0,102.0
188,122.44508507499998,122.85604357499999,71.0,100.0
189,122.85604357499999,123.26700207499998,73.0,103.0
190,123.26700207499998,123.47076899791665,71.0,94.0
191,123.47248132499999,123.88343982499998,71.0,96.0
192,123.88343982499998,124.70364449791666,66.0,95.0
193,124.70535682499998,125.11631532499999,66.0,97.0
194,125.11631532499999,125.32179457499998,69.0,89.0
195,125.32179457499998,125.73104074791665,71.0,93.0
196,125.73275307499998,126.14371157499998,71.0,96.0
197,126.14371157499998,126.55467007499999,62.0,98.0
198,126.55467007499999,126.96562857499998,64.0,98.0
199,126.96562857499998,127.99131249791665,66.0,91.0
200,127.99302482499998,128.19679174791665,66.0,86.0
201,128.198504075,128.42453124999997,66.0,84.0
202,128.40398332499998,128.6197365375,69.0,88.0
203,128.60946257499998,128.82521578749999,71.0,91.0
204,128.81494182499998,129.04781830833332,69.0,87.0
205,129.02042107499997,129.24644825,71.0,88.0
206,129.22590032499997,129.46905077083332,69.0,87.0
207,129.431379575,129.842338075,71.0,91.0
208,129.842338075,130.04781732499998,69.0,107.0
209,130.04781732499998,131.27898049791665,71.0,113.0
210,131.280692825,131.69165132499998,71.0,110.0
211,131.69165132499998,131.89713057499998,74.0,100.0
212,131.89713057499998,132.10260982499997,76.0,110.0
213,132.10260982499997,132.31665071041664,74.0,92.0
214,132.30808907499997,132.513568325,76.0,98.0
215,132.513568325,132.719047575,74.0,91.0
216,132.719047575,133.13000607499998,78.0,113.0
217,133.13000607499998,133.33548532499998,74.0,110.0
218,133.33548532499998,135.595757075,76.0,119.0
219,135.595757075,136.00500324791665,74.0,116.0
220,136.006715575,136.41767407499998,74.0,117.0
221,136.41767407499998,136.82863257499997,69.0,114.0
222,136.82863257499997,137.239591075,76.0,119.0
223,137.239591075,137.47760453958333,74.0,108.0
224,137.445070325,137.85602882499998,73.0,113.0
225,137.85602882499998,138.26698732499997,74.0,113.0
226,138.26698732499997,139.088904325,71.0,102.0
227,139.088904325,139.29267124791664,74.0,100.0
228,139.29438357499998,139.49986282499998,74.0,108.0
229,139.49986282499998,140.11630057499997,69.0,107.0
230,140.11630057499997,140.527259075,76.0,108.0
231,140.527259075,140.76869719374997,74.0,102.0
232,140.73273832499999,141.14369682499998,73.0,100.0
233,141.14369682499998,141.55465532499997,74.0,102.0
234,141.55465532499997,142.37657232499998,71.0,110.0
235,142.37657232499998,142.58033924791664,74.0,107.0
236,142.58205157499998,142.78753082499998,74.0,107.0
237,142.78753082499998,143.403968575,69.0,102.0
238,143.403968575,143.81492707499999,76.0,119.0
239,143.81492707499999,144.02040632499998,74.0,110.0
240,144.02040632499998,144.43136482499997,76.0,116.0
241,144.43136482499997,145.047802575,78.0,116.0
242,145.047802575,145.45876107499998,79.0,123.0
243,145.45876107499998,145.66424032499998,78.0,113.0
244,145.66424032499998,146.07519882499997,74.0,116.0
245,146.07519882499997,146.691636575,76.0,110.0
246,146.691636575,147.10259507499998,79.0,116.0
247,147.10259507499998,147.33375923124999,78.0,106.0
248,147.30807432499998,147.71903282499997,74.0,114.0
249,147.71903282499997,148.74642907499998,76.0,114.0
250,148.74642907499998,149.15567524791663,74.0,116.0
251,149.15738757499997,149.568346075,74.0,117.0
252,149.568346075,149.979304575,69.0,114.0
253,149.979304575,150.39026307499998,76.0,119.0
254,150.39026307499998,150.6282765395833,74.0,108.0
255,150.59574232499997,151.00670082499997,73.0,113.0
256,151.00670082499997,151.417659325,74.0,113.0
257,151.417659325,152.23957632499997,71.0,102.0
258,152.23957632499997,152.44334324791666,74.0,100.0
259,152.44505557499997,152.65053482499997,74.0,108.0
260,152.65053482499997,153.26697257499998,69.0,107.0
261,153.26697257499998,153.67793107499998,76.0,116.0
262,153.67793107499998,153.88341032499997,74.0,107.0
263,153.88341032499997,154.294368825,76.0,110.0
264,154.294368825,154.91080657499998,78.0,119.0
265,154.91080657499998,155.1231351333333,79.0,116.0
266,155.11628582499998,155.52724432499997,78.0,116.0
267,155.52724432499997,156.55464057499998,74.0,116.0
268,156.55464057499998,156.83374988958332,79.0,116.0
269,156.76011982499998,157.17107832499997,78.0,116.0
270,157.17107832499997,157.99299532499998,74.0,116.0
271,157.99299532499998,158.19847457499998,69.0,100.0
272,158.19847457499998,158.41594011458332,79.0,110.0
273,158.40395382499997,158.81491232499997,78.0,109.0
274,158.81491232499997,159.225870825,74.0,114.0
275,159.225870825,159.63682932499998,76.0,110.0
276,159.63682932499998,159.84230857499998,74.0,110.0
277,159.84230857499998,160.25326707499997,76.0,116.0
278,160.25326707499997,160.664225575,78.0,116.0
279,160.664225575,161.07518407499998,74.0,119.0
280,161.07518407499998,161.48614257499997,73.0,116.0
281,161.48614257499997,163.09744236041664,74.0,113.0
282,175.49297811666665,175.9022242895833,74.0,116.0
283,175.90393661666664,176.31489511666663,74.0,117.0
284,176.31489511666663,176.72585361666665,69.0,114.0
285,176.72585361666665,177.13681211666665,76.0,119.0
286,177.13681211666665,177.37311325416664,74.0,108.0
287,177.34229136666664,177.75324986666664,73.0,113.0
288,177.75324986666664,178.16420836666666,74.0,113.0
289,178.16420836666666,178.98612536666664,71.0,102.0
290,178.98612536666664,179.1898922895833,74.0,100.0
291,179.19160461666664,179.39708386666663,74.0,108.0
292,179.39708386666663,180.01352161666665,69.0,107.0
293,180.01352161666665,180.42448011666664,76.0,108.0
294,180.42448011666664,180.66420590833332,74.0,102.0
295,180.62995936666664,181.04091786666663,73.0,100.0
296,181.04091786666663,181.45187636666665,74.0,102.0
297,181.45187636666665,182.27379336666664,71.0,110.0
298,182.27379336666664,182.47756028958332,74.0,107.0
299,182.47927261666663,182.68475186666663,74.0,107.0
300,182.68475186666663,183.30118961666665,69.0,102.0
301,183.30118961666665,183.71214811666664,76.0,119.0
302,183.71214811666664,183.91762736666664,74.0,110.0
303,183.91762736666664,184.32858586666663,76.0,116.0
304,184.32858586666663,184.94502361666665,78.0,116.0
305,184.94502361666665,185.35598211666664,79.0,123.0
306,185.35598211666664,185.56146136666663,78.0,113.0
307,185.56146136666663,185.97241986666666,74.0,116.0
308,185.97241986666666,186.58885761666664,76.0,110.0
309,186.58885761666664,186.99981611666664,79.0,116.0
310,186.99981611666664,187.2292679458333,78.0,106.0
311,187.20529536666663,187.61625386666665,74.0,114.0
312,187.61625386666665,188.64365011666663,76.0,114.0
313,188.64365011666663,189.05289628958332,74.0,116.0
314,189.05460861666666,189.46556711666665,74.0,117.0
315,189.46556711666665,189.87652561666664,69.0,114.0
316,189.87652561666664,190.28748411666663,76.0,119.0
317,190.28748411666663,190.52378525416665,74.0,108.0
318,190.49296336666663,190.90392186666665,73.0,113.0
319,190.90392186666665,191.31488036666664,74.0,113.0
320,191.31488036666664,192.13679736666663,71.0,102.0
321,192.13679736666663,192.3405642895833,74.0,100.0
322,192.34227661666665,192.54775586666665,74.0,108.0
323,192.54775586666665,193.16419361666664,69.0,107.0
324,193.16419361666664,193.57515211666663,76.0,116.0
325,193.57515211666663,193.78063136666665,74.0,107.0
326,193.78063136666665,194.19158986666665,76.0,110.0
327,194.19158986666665,194.80802761666664,78.0,119.0
328,194.80802761666664,195.02035617499996,79.0,116.0
329,195.01350686666663,195.42446536666665,78.0,116.0
330,195.42446536666665,196.45186161666663,74.0,116.0
331,196.45186161666663,196.72925860416663,79.0,116.0
332,196.65734086666663,197.06829936666665,78.0,116.0
333,197.06829936666665,197.89021636666664,74.0,116.0
334,197.89021636666664,198.09569561666663,69.0,100.0
335,198.09569561666663,198.31144882916664,79.0,110.0
336,198.30117486666663,198.71213336666665,78.0,109.0
337,198.71213336666665,199.12309186666664,74.0,114.0
338,199.12309186666664,199.53405036666663,76.0,110.0
339,199.53405036666663,199.73952961666663,74.0,110.0
340,199.73952961666663,200.15048811666665,76.0,116.0
341,200.15048811666665,200.56144661666664,78.0,116.0
342,200.56144661666664,200.97240511666664,74.0,119.0
343,200.97240511666664,201.38336361666663,73.0,116.0
344,201.38336361666663,202.74637597499998,74.0,113.0
345,205.03062030416663,205.4398664770833,74.0,116.0
346,205.44157880416665,205.85253730416665,74.0,117.0
347,205.85253730416665,206.26349580416664,69.0,114.0
348,206.26349580416664,206.67445430416663,76.0,119.0
349,206.67445430416663,206.91075544166665,74.0,108.0
350,206.87993355416663,207.29089205416665,73.0,113.0
351,207.29089205416665,207.70185055416664,74.0,113.0
352,207.70185055416664,208.52376755416662,71.0,102.0
353,208.52376755416662,208.7275344770833,74.0,100.0
354,208.72924680416665,208.93472605416665,74.0,108.0
355,208.93472605416665,209.55116380416663,69.0,107.0
356,209.55116380416663,209.96212230416663,76.0,108.0
357,209.96212230416663,210.2018480958333,74.0,102.0
358,210.16760155416665,210.57856005416664,73.0,100.0
359,210.57856005416664,210.98951855416664,74.0,102.0
360,210.98951855416664,211.81143555416665,71.0,110.0
361,211.81143555416665,212.0152024770833,74.0,107.0
362,212.01691480416665,212.22239405416664,74.0,107.0
363,212.22239405416664,212.83883180416663,69.0,102.0
364,212.83883180416663,213.24979030416665,76.0,119.0
365,213.24979030416665,213.45526955416665,74.0,110.0
366,213.45526955416665,213.86622805416664,76.0,116.0
367,213.86622805416664,214.48266580416663,78.0,116.0
368,214.48266580416663,214.89362430416665,79.0,123.0
369,214.89362430416665,215.09910355416665,78.0,113.0
370,215.09910355416665,215.51006205416664,74.0,116.0
371,215.51006205416664,216.12649980416663,76.0,110.0
372,216.12649980416663,216.53745830416665,79.0,116.0
373,216.53745830416665,216.7669101333333,78.0,106.0
374,216.74293755416664,217.15389605416664,74.0,114.0
375,217.15389605416664,218.18129230416665,76.0,114.0
376,218.18129230416665,218.5905384770833,74.0,116.0
377,218.59225080416664,219.00320930416663,74.0,117.0
378,219.00320930416663,219.41416780416662,69.0,114.0
379,219.41416780416662,219.82512630416664,76.0,119.0
380,219.82512630416664,220.06142744166664,74.0,108.0
381,220.03060555416664,220.44156405416663,73.0,113.0
382,220.44156405416663,220.85252255416663,74.0,113.0
383,220.85252255416663,221.67443955416664,71.0,102.0
384,221.67443955416664,221.8782064770833,74.0,100.0
385,221.87991880416664,222.08539805416663,74.0,108.0
386,222.08539805416663,222.70183580416665,69.0,107.0
387,222.70183580416665,223.11279430416664,76.0,116.0
388,223.11279430416664,223.31827355416664,74.0,107.0
389,223.31827355416664,223.72923205416663,76.0,110.0
390,223.72923205416663,224.34566980416665,78.0,119.0
391,224.34566980416665,224.55799836249997,79.0,116.0
392,224.55114905416664,224.96210755416664,78.0,116.0
393,224.96210755416664,225.98950380416665,74.0,116.0
394,225.98950380416665,226.26690079166664,79.0,116.0
395,226.19498305416664,226.60594155416663,78.0,116.0
396,226.60594155416663,227.42785855416665,74.0,116.0
397,227.42785855416665,227.63333780416664,69.0,100.0
398,227.63333780416664,227.84909101666665,79.0,110.0
399,227.83881705416664,228.24977555416663,78.0,109.0
400,228.24977555416663,228.66073405416662,74.0,114.0
401,228.66073405416662,229.07169255416665,76.0,110.0
402,229.07169255416665,229.27717180416664,74.0,110.0
403,229.27717180416664,229.68813030416663,76.0,116.0
404,229.68813030416663,230.09908880416663,78.0,116.0
405,230.09908880416663,230.51004730416665,74.0,119.0
406,230.51004730416665,230.92100580416664,73.0,116.0
407,230.92100580416664,233.42442799999998,74.0,113.0
