,start,end,pitch,velocity
0,37.08958333333333,37.33958333333333,70.0,90.0
1,37.33958333333333,37.47083333333333,65.0,97.0
2,37.58958333333333,37.760416666666664,70.0,92.0
3,37.83958333333333,37.985416666666666,72.0,89.0
4,38.08958333333333,38.325,73.0,87.0
5,38.33958333333333,38.510416666666664,72.0,88.0
6,38.58958333333333,38.83958333333333,70.0,92.0
7,38.83958333333333,39.08958333333333,77.0,93.0
8,39.08958333333333,40.3375,72.0,88.0
9,40.58958333333333,40.85625,68.0,89.0
10,40.83958333333333,41.10625,70.0,97.0
11,41.08958333333333,41.266666666666666,72.0,87.0
12,41.33958333333333,41.72291666666666,72.0,88.0
13,41.83958333333333,42.03333333333333,72.0,86.0
14,42.08958333333333,42.33541666666667,73.0,93.0
15,42.33958333333333,42.58958333333333,72.0,87.0
16,42.58958333333333,42.83958333333333,70.0,90.0
17,42.83958333333333,43.15625,68.0,86.0
18,43.08958333333333,44.579166666666666,70.0,97.0
19,44.83958333333333,44.947916666666664,70.0,92.0
20,45.08958333333333,45.325,70.0,88.0
21,45.33958333333333,45.577083333333334,65.0,91.0
22,45.58958333333333,45.8875,70.0,87.0
23,45.83958333333333,46.125,72.0,87.0
24,46.08958333333333,46.37083333333333,73.0,84.0
25,46.33958333333333,46.604166666666664,72.0,85.0
26,46.58958333333333,46.85,70.0,90.0
27,46.83958333333333,47.08958333333333,77.0,91.0
28,47.08958333333333,48.333333333333336,72.0,89.0
29,48.58958333333333,48.84583333333333,68.0,90.0
30,48.83958333333333,49.11875,70.0,92.0
31,49.08958333333333,49.24583333333333,72.0,97.0
32,49.33958333333333,49.7625,72.0,88.0
33,49.83958333333333,50.358333333333334,73.0,88.0
34,50.33958333333333,50.641666666666666,72.0,89.0
35,50.58958333333333,50.74166666666667,70.0,88.0
36,50.83958333333333,52.391666666666666,70.0,90.0
37,52.58958333333333,52.87708333333333,73.0,92.0
38,52.83958333333333,53.114583333333336,75.0,93.0
39,53.08958333333333,53.25625,77.0,93.0
40,53.33958333333333,53.47083333333333,77.0,93.0
41,53.58958333333333,53.74375,77.0,88.0
42,53.83958333333333,54.047916666666666,77.0,88.0
43,54.08958333333333,54.59166666666667,75.0,90.0
44,54.58958333333333,54.81458333333333,73.0,87.0
45,54.83958333333333,56.204166666666666,75.0,93.0
46,56.58958333333333,56.85208333333333,75.0,90.0
47,56.83958333333333,57.052083333333336,77.0,91.0
48,57.08958333333333,57.235416666666666,78.0,87.0
49,57.33958333333333,57.485416666666666,78.0,86.0
50,57.58958333333333,57.762499999999996,78.0,88.0
51,57.83958333333333,58.06458333333333,78.0,87.0
52,58.08958333333333,58.59791666666666,77.0,93.0
53,58.58958333333333,58.731249999999996,75.0,88.0
54,58.83958333333333,59.35,75.0,90.0
55,59.33958333333333,60.333333333333336,73.0,93.0
56,60.58958333333333,60.81458333333333,73.0,88.0
57,60.83958333333333,61.01875,75.0,102.0
58,61.08958333333333,61.22708333333333,77.0,95.0
59,61.33958333333333,61.70625,77.0,89.0
60,61.83958333333333,62.33958333333333,77.0,97.0
61,62.33958333333333,62.50625,73.0,87.0
62,62.58958333333333,62.75625,73.0,87.0
63,62.83958333333333,63.00625,77.0,87.0
64,63.08958333333333,63.24166666666667,77.0,89.0
65,63.33958333333333,63.75,75.0,88.0
66,63.83958333333333,64.02083333333333,72.0,86.0
67,64.08958333333334,64.23125,73.0,82.0
68,64.33958333333334,64.50833333333333,73.0,87.0
69,64.58958333333334,64.81041666666667,72.0,90.0
70,64.83958333333334,66.84583333333333,70.0,88.0
71,68.08958333333334,68.46458333333334,73.0,93.0
72,68.58958333333334,68.99375,75.0,100.0
73,69.08958333333334,69.225,77.0,92.0
74,69.33958333333334,69.475,77.0,88.0
75,69.58958333333334,69.72708333333333,77.0,89.0
76,69.83958333333334,69.99166666666666,77.0,89.0
77,70.08958333333334,70.26875,77.0,90.0
78,70.33958333333334,70.46041666666666,75.0,100.0
79,70.58958333333334,70.73541666666667,73.0,92.0
80,70.83958333333334,70.98541666666667,77.0,92.0
81,71.08958333333334,71.27291666666666,77.0,93.0
82,71.33958333333334,71.70833333333333,75.0,103.0
83,71.83958333333334,72.40833333333333,75.0,102.0
84,72.58958333333334,72.80208333333333,75.0,102.0
85,72.83958333333334,72.9875,77.0,95.0
86,73.08958333333334,73.23958333333333,78.0,87.0
87,73.33958333333334,73.475,78.0,86.0
88,73.58958333333334,73.72916666666667,78.0,87.0
89,73.83958333333334,74.04166666666667,78.0,88.0
90,74.08958333333334,74.45208333333333,77.0,97.0
91,74.58958333333334,74.71458333333334,75.0,92.0
92,74.83958333333334,75.18958333333333,75.0,92.0
93,75.33958333333334,75.90625,73.0,92.0
94,76.58958333333334,76.78333333333333,73.0,97.0
95,76.83958333333334,76.99375,75.0,102.0
96,77.08958333333334,77.22916666666667,77.0,91.0
97,77.33958333333334,77.475,77.0,88.0
98,77.58958333333334,77.73541666666667,77.0,87.0
99,77.83958333333334,77.99375,77.0,89.0
100,78.08958333333334,78.26666666666667,77.0,92.0
101,78.33958333333334,78.45833333333333,75.0,102.0
102,78.58958333333334,78.75,73.0,93.0
103,78.83958333333334,78.96458333333334,77.0,90.0
104,79.08958333333334,79.3125,77.0,95.0
105,79.33958333333334,79.57291666666667,75.0,91.0
106,79.58958333333334,79.77708333333334,73.0,87.0
107,79.83958333333334,80.49166666666666,75.0,97.0
108,81.08958333333334,81.225,73.0,95.0
109,81.33958333333334,81.475,73.0,87.0
110,81.58958333333334,81.96875,73.0,97.0
111,82.08958333333334,82.24166666666666,73.0,93.0
112,82.33958333333334,82.68125,75.0,102.0
113,82.83958333333334,83.96875,75.0,97.0
114,84.08958333333334,84.52291666666666,73.0,97.0
115,84.58958333333334,84.99166666666666,75.0,100.0
116,85.08958333333334,85.225,77.0,92.0
117,85.33958333333334,85.475,77.0,88.0
118,85.58958333333334,85.72708333333333,77.0,89.0
119,85.83958333333334,85.99166666666666,77.0,89.0
120,86.08958333333334,86.26875,77.0,90.0
121,86.33958333333334,86.46041666666666,75.0,100.0
122,86.58958333333334,86.73541666666667,73.0,92.0
123,86.83958333333334,86.98541666666667,77.0,92.0
124,87.08958333333334,87.27291666666666,77.0,93.0
125,87.33958333333334,87.70833333333333,75.0,103.0
126,87.83958333333334,88.40833333333333,75.0,102.0
127,88.58958333333334,88.80208333333333,75.0,102.0
128,88.83958333333334,88.9875,77.0,95.0
129,89.08958333333334,89.23958333333333,78.0,87.0
130,89.33958333333334,89.475,78.0,86.0
131,89.58958333333334,89.72916666666667,78.0,87.0
132,89.83958333333334,90.04166666666667,78.0,88.0
133,90.08958333333334,90.45208333333333,77.0,97.0
134,90.58958333333334,90.71458333333334,75.0,92.0
135,90.83958333333334,91.18958333333333,75.0,92.0
136,91.33958333333334,91.90625,73.0,92.0
137,92.58958333333334,92.7625,70.0,90.0
138,92.83958333333334,92.99583333333334,72.0,91.0
139,93.08958333333334,93.24583333333334,73.0,87.0
140,93.33958333333334,93.475,73.0,86.0
141,93.58958333333334,93.73541666666667,73.0,85.0
142,93.83958333333334,93.975,73.0,86.0
143,94.08958333333334,94.21875,73.0,87.0
144,94.33958333333334,94.51458333333333,73.0,87.0
145,94.58958333333334,94.75625,77.0,86.0
146,94.83958333333334,95.20625,72.0,89.0
147,95.33958333333334,95.4875,72.0,88.0
148,95.58958333333334,95.71458333333334,72.0,87.0
149,95.83958333333334,95.96458333333334,72.0,87.0
150,96.08958333333334,96.30208333333333,73.0,90.0
151,96.33958333333334,96.48541666666667,72.0,90.0
152,96.58958333333334,96.72916666666667,70.0,90.0
153,96.83958333333334,100.925,70.0,89.0
154,125.08958333333334,125.33958333333334,70.0,90.0
155,125.33958333333334,125.47083333333333,65.0,97.0
156,125.58958333333334,125.76041666666667,70.0,92.0
157,125.83958333333334,125.98541666666667,72.0,89.0
158,126.08958333333334,126.325,73.0,87.0
159,126.33958333333334,126.51041666666667,72.0,88.0
160,126.58958333333334,126.83958333333334,70.0,92.0
161,126.83958333333334,127.08958333333334,77.0,93.0
162,127.08958333333334,128.3375,72.0,88.0
163,128.58958333333334,128.85625,68.0,89.0
164,128.83958333333334,129.10625,70.0,97.0
165,129.08958333333334,129.26666666666665,72.0,87.0
166,129.33958333333334,129.72291666666666,72.0,88.0
167,129.83958333333334,130.03333333333333,72.0,86.0
168,130.08958333333334,130.33541666666667,73.0,93.0
169,130.33958333333334,130.58958333333334,72.0,87.0
170,130.58958333333334,130.83958333333334,70.0,90.0
171,130.83958333333334,131.15625,68.0,86.0
172,131.08958333333334,132.57916666666665,70.0,97.0
173,132.83958333333334,132.94791666666666,70.0,92.0
174,133.08958333333334,133.325,70.0,88.0
175,133.33958333333334,133.57708333333332,65.0,91.0
176,133.58958333333334,133.8875,70.0,87.0
177,133.83958333333334,134.125,72.0,87.0
178,134.08958333333334,134.37083333333334,73.0,84.0
179,134.33958333333334,134.60416666666666,72.0,85.0
180,134.58958333333334,134.85,70.0,90.0
181,134.83958333333334,135.08958333333334,77.0,91.0
182,135.08958333333334,136.33333333333334,72.0,89.0
183,136.58958333333334,136.84583333333333,68.0,90.0
184,136.83958333333334,137.11875,70.0,92.0
185,137.08958333333334,137.24583333333334,72.0,97.0
186,137.33958333333334,137.7625,72.0,88.0
187,137.83958333333334,138.35833333333332,73.0,88.0
188,138.33958333333334,138.64166666666665,72.0,89.0
189,138.58958333333334,138.74166666666667,70.0,88.0
190,138.83958333333334,140.39166666666665,70.0,90.0
191,140.58958333333334,140.87708333333333,73.0,92.0
192,140.83958333333334,141.11458333333334,75.0,93.0
193,141.08958333333334,141.25625,77.0,93.0
194,141.33958333333334,141.47083333333333,77.0,93.0
195,141.58958333333334,141.74375,77.0,88.0
196,141.83958333333334,142.04791666666665,77.0,88.0
197,142.08958333333334,142.59166666666667,75.0,90.0
198,142.58958333333334,142.81458333333333,73.0,87.0
199,142.83958333333334,144.20416666666665,75.0,93.0
200,144.58958333333334,144.85208333333333,75.0,90.0
201,144.83958333333334,145.05208333333334,77.0,91.0
202,145.08958333333334,145.23541666666665,78.0,87.0
203,145.33958333333334,145.48541666666665,78.0,86.0
204,145.58958333333334,145.7625,78.0,88.0
205,145.83958333333334,146.06458333333333,78.0,87.0
206,146.08958333333334,146.59791666666666,77.0,93.0
207,146.58958333333334,146.73125,75.0,88.0
208,146.83958333333334,147.35,75.0,90.0
209,147.33958333333334,148.33333333333334,73.0,93.0
210,148.58958333333334,148.81458333333333,73.0,88.0
211,148.83958333333334,149.01875,75.0,102.0
212,149.08958333333334,149.22708333333333,77.0,95.0
213,149.33958333333334,149.70625,77.0,89.0
214,149.83958333333334,150.33958333333334,77.0,97.0
215,150.33958333333334,150.50625,73.0,87.0
216,150.58958333333334,150.75625,73.0,87.0
217,150.83958333333334,151.00625,77.0,87.0
218,151.08958333333334,151.24166666666667,77.0,89.0
219,151.33958333333334,151.75,75.0,88.0
220,151.83958333333334,152.02083333333334,72.0,86.0
221,152.08958333333334,152.23125,73.0,82.0
222,152.33958333333334,152.50833333333333,73.0,87.0
223,152.58958333333334,152.81041666666667,72.0,90.0
224,152.83958333333334,154.84583333333333,70.0,88.0
225,156.08958333333334,156.46458333333334,73.0,93.0
226,156.58958333333334,156.99375,75.0,100.0
227,157.08958333333334,157.225,77.0,92.0
228,157.33958333333334,157.475,77.0,88.0
229,157.58958333333334,157.72708333333333,77.0,89.0
230,157.83958333333334,157.99166666666667,77.0,89.0
231,158.08958333333334,158.26875,77.0,90.0
232,158.33958333333334,158.46041666666667,75.0,100.0
233,158.58958333333334,158.73541666666665,73.0,92.0
234,158.83958333333334,158.98541666666665,77.0,92.0
235,159.08958333333334,159.27291666666667,77.0,93.0
236,159.33958333333334,159.70833333333334,75.0,103.0
237,159.83958333333334,160.40833333333333,75.0,102.0
238,160.58958333333334,160.80208333333334,75.0,102.0
239,160.83958333333334,160.9875,77.0,95.0
240,161.08958333333334,161.23958333333334,78.0,87.0
241,161.33958333333334,161.475,78.0,86.0
242,161.58958333333334,161.72916666666666,78.0,87.0
243,161.83958333333334,162.04166666666666,78.0,88.0
244,162.08958333333334,162.45208333333332,77.0,97.0
245,162.58958333333334,162.71458333333334,75.0,92.0
246,162.83958333333334,163.18958333333333,75.0,92.0
247,163.33958333333334,163.90625,73.0,92.0
248,164.58958333333334,164.78333333333333,73.0,97.0
249,164.83958333333334,164.99375,75.0,102.0
250,165.08958333333334,165.22916666666666,77.0,91.0
251,165.33958333333334,165.475,77.0,88.0
252,165.58958333333334,165.73541666666665,77.0,87.0
253,165.83958333333334,165.99375,77.0,89.0
254,166.08958333333334,166.26666666666665,77.0,92.0
255,166.33958333333334,166.45833333333334,75.0,102.0
256,166.58958333333334,166.75,73.0,93.0
257,166.83958333333334,166.96458333333334,77.0,90.0
258,167.08958333333334,167.3125,77.0,95.0
259,167.33958333333334,167.57291666666666,75.0,91.0
260,167.58958333333334,167.77708333333334,73.0,87.0
261,167.83958333333334,168.49166666666667,75.0,97.0
262,169.08958333333334,169.225,73.0,95.0
263,169.33958333333334,169.475,73.0,87.0
264,169.58958333333334,169.96875,73.0,97.0
265,170.08958333333334,170.24166666666667,73.0,93.0
266,170.33958333333334,170.68125,75.0,102.0
267,170.83958333333334,171.96875,75.0,97.0
268,172.08958333333334,172.52291666666667,73.0,97.0
269,172.58958333333334,172.99166666666667,75.0,100.0
270,173.08958333333334,173.225,77.0,92.0
271,173.33958333333334,173.475,77.0,88.0
272,173.58958333333334,173.72708333333333,77.0,89.0
273,173.83958333333334,173.99166666666667,77.0,89.0
274,174.08958333333334,174.26875,77.0,90.0
275,174.33958333333334,174.46041666666667,75.0,100.0
276,174.58958333333334,174.73541666666665,73.0,92.0
277,174.83958333333334,174.98541666666665,77.0,92.0
278,175.08958333333334,175.27291666666667,77.0,93.0
279,175.33958333333334,175.70833333333334,75.0,103.0
280,175.83958333333334,176.40833333333333,75.0,102.0
281,176.58958333333334,176.80208333333334,75.0,102.0
282,176.83958333333334,176.9875,77.0,95.0
283,177.08958333333334,177.23958333333334,78.0,87.0
284,177.33958333333334,177.475,78.0,86.0
285,177.58958333333334,177.72916666666666,78.0,87.0
286,177.83958333333334,178.04166666666666,78.0,88.0
287,178.08958333333334,178.45208333333332,77.0,97.0
288,178.58958333333334,178.71458333333334,75.0,92.0
289,178.83958333333334,179.18958333333333,75.0,92.0
290,179.33958333333334,179.90625,73.0,92.0
291,180.58958333333334,180.7625,70.0,90.0
292,180.83958333333334,180.99583333333334,72.0,91.0
293,181.08958333333334,181.24583333333334,73.0,87.0
294,181.33958333333334,181.475,73.0,86.0
295,181.58958333333334,181.73541666666665,73.0,85.0
296,181.83958333333334,181.975,73.0,86.0
297,182.08958333333334,182.21875,73.0,87.0
298,182.33958333333334,182.51458333333332,73.0,87.0
299,182.58958333333334,182.75625,77.0,86.0
300,182.83958333333334,183.20625,72.0,89.0
301,183.33958333333334,183.4875,72.0,88.0
302,183.58958333333334,183.71458333333334,72.0,87.0
303,183.83958333333334,183.96458333333334,72.0,87.0
304,184.08958333333334,184.30208333333334,73.0,90.0
305,184.33958333333334,184.48541666666665,72.0,90.0
306,184.58958333333334,184.72916666666666,70.0,90.0
307,184.83958333333334,188.925,70.0,89.0
308,197.08958333333334,197.22916666666666,70.0,82.0
309,197.33958333333334,197.46458333333334,70.0,78.0
310,197.58958333333334,197.725,70.0,82.0
311,197.83958333333334,197.96458333333334,70.0,87.0
312,198.08958333333334,198.23541666666665,70.0,87.0
313,198.33958333333334,198.46458333333334,73.0,87.0
314,198.58958333333334,198.69375,72.0,89.0
315,198.83958333333334,198.97916666666666,72.0,93.0
316,199.33958333333334,199.46666666666667,72.0,87.0
317,199.58958333333334,199.725,72.0,87.0
318,199.83958333333334,199.97916666666666,72.0,90.0
319,200.08958333333334,200.22083333333333,72.0,93.0
320,200.33958333333334,200.46458333333334,75.0,93.0
321,200.58958333333334,200.7,73.0,95.0
322,200.83958333333334,201.15416666666667,75.0,100.0
323,201.33958333333334,201.45,73.0,88.0
324,201.58958333333334,201.74583333333334,73.0,92.0
325,201.83958333333334,201.975,70.0,90.0
326,202.08958333333334,202.23125,73.0,91.0
327,202.33958333333334,202.45625,70.0,88.0
328,202.58958333333334,202.71041666666667,73.0,90.0
329,202.83958333333334,202.95625,75.0,90.0
330,203.08958333333334,203.225,77.0,90.0
331,203.33958333333334,203.45833333333334,77.0,87.0
332,203.58958333333334,203.70416666666665,78.0,86.0
333,203.83958333333334,204.19375,75.0,88.0
334,204.33958333333334,206.13541666666666,77.0,97.0
335,206.08958333333334,206.46458333333334,73.0,93.0
336,206.58958333333334,206.99375,75.0,100.0
337,207.08958333333334,207.225,77.0,92.0
338,207.33958333333334,207.475,77.0,88.0
339,207.58958333333334,207.72708333333333,77.0,89.0
340,207.83958333333334,207.99166666666667,77.0,89.0
341,208.08958333333334,208.26874999999998,77.0,90.0
342,208.33958333333334,208.46041666666667,75.0,100.0
343,208.58958333333334,208.73541666666665,73.0,92.0
344,208.83958333333334,208.98541666666665,77.0,92.0
345,209.08958333333334,209.27291666666667,77.0,93.0
346,209.33958333333334,209.70833333333334,75.0,103.0
347,209.83958333333334,210.40833333333333,75.0,102.0
348,210.58958333333334,210.80208333333334,75.0,102.0
349,210.83958333333334,210.98749999999998,77.0,95.0
350,211.08958333333334,211.23958333333334,78.0,87.0
351,211.33958333333334,211.475,78.0,86.0
352,211.58958333333334,211.72916666666666,78.0,87.0
353,211.83958333333334,212.04166666666666,78.0,88.0
354,212.08958333333334,212.45208333333332,77.0,97.0
355,212.58958333333334,212.71458333333334,75.0,92.0
356,212.83958333333334,213.18958333333333,75.0,92.0
357,213.33958333333334,213.90625,73.0,92.0
358,214.58958333333334,214.78333333333333,73.0,97.0
359,214.83958333333334,214.99375,75.0,102.0
360,215.08958333333334,215.22916666666666,77.0,91.0
361,215.33958333333334,215.475,77.0,88.0
362,215.58958333333334,215.73541666666665,77.0,87.0
363,215.83958333333334,215.99375,77.0,89.0
364,216.08958333333334,216.26666666666665,77.0,92.0
365,216.33958333333334,216.45833333333334,75.0,102.0
366,216.58958333333334,216.75,73.0,93.0
367,216.83958333333334,216.96458333333334,77.0,90.0
368,217.08958333333334,217.3125,77.0,95.0
369,217.33958333333334,217.57291666666666,75.0,91.0
370,217.58958333333334,217.77708333333334,73.0,87.0
371,217.83958333333334,218.49166666666667,75.0,97.0
372,219.08958333333334,219.225,73.0,95.0
373,219.33958333333334,219.475,73.0,87.0
374,219.58958333333334,219.96875,73.0,97.0
375,220.08958333333334,220.24166666666667,73.0,93.0
376,220.33958333333334,220.68125,75.0,102.0
377,220.83958333333334,221.96875,75.0,97.0
378,222.08958333333334,222.52291666666667,73.0,97.0
379,222.58958333333334,222.99166666666667,75.0,100.0
380,223.08958333333334,223.225,77.0,92.0
381,223.33958333333334,223.475,77.0,88.0
382,223.58958333333334,223.72708333333333,77.0,89.0
383,223.83958333333334,223.99166666666667,77.0,89.0
384,224.08958333333334,224.26874999999998,77.0,90.0
385,224.33958333333334,224.46041666666667,75.0,100.0
386,224.58958333333334,224.73541666666665,73.0,92.0
387,224.83958333333334,224.98541666666665,77.0,92.0
388,225.08958333333334,225.27291666666667,77.0,93.0
389,225.33958333333334,225.70833333333334,75.0,103.0
390,225.83958333333334,226.40833333333333,75.0,102.0
391,226.58958333333334,226.80208333333334,75.0,102.0
392,226.83958333333334,226.98749999999998,77.0,95.0
393,227.08958333333334,227.23958333333334,78.0,87.0
394,227.33958333333334,227.475,78.0,86.0
395,227.58958333333334,227.72916666666666,78.0,87.0
396,227.83958333333334,228.04166666666666,78.0,88.0
397,228.08958333333334,228.45208333333332,77.0,97.0
398,228.58958333333334,228.71458333333334,75.0,92.0
399,228.83958333333334,229.18958333333333,75.0,92.0
400,229.33958333333334,229.90625,73.0,92.0
401,230.58958333333334,230.7625,70.0,90.0
402,230.83958333333334,230.99583333333334,72.0,91.0
403,231.08958333333334,231.24583333333334,73.0,87.0
404,231.33958333333334,231.475,73.0,86.0
405,231.58958333333334,231.73541666666665,73.0,85.0
406,231.83958333333334,231.975,73.0,86.0
407,232.08958333333334,232.21875,73.0,87.0
408,232.33958333333334,232.51458333333332,73.0,87.0
409,232.58958333333334,232.75625,77.0,86.0
410,232.83958333333334,233.20624999999998,72.0,89.0
411,233.33958333333334,233.48749999999998,72.0,88.0
412,233.58958333333334,233.71458333333334,72.0,87.0
413,233.83958333333334,233.96458333333334,72.0,87.0
414,234.08958333333334,234.30208333333334,73.0,90.0
415,234.33958333333334,234.48541666666665,72.0,90.0
416,234.58958333333334,234.72916666666666,70.0,90.0
417,234.83958333333334,237.96458333333334,70.0,89.0
418,238.6625,238.80833333333334,70.0,92.0
419,238.85625,238.98749999999998,72.0,88.0
420,239.07708333333332,239.51041666666666,73.0,93.0
421,239.58333333333334,239.73541666666665,73.0,90.0
422,239.82291666666666,240.24375,73.0,93.0
423,240.31666666666666,240.47916666666666,75.0,100.0
424,240.56666666666666,240.99166666666667,77.0,97.0
425,241.04999999999998,242.27916666666667,75.0,107.0
426,242.31041666666667,242.62083333333334,80.0,102.0
427,242.60833333333332,242.98125,82.0,93.0
428,243.08958333333334,246.99583333333334,82.0,97.0
