,start,end,pitch,velocity
0,5.089583333333334,5.814583333333333,70.0,86.0
1,5.589583333333334,5.885416666666667,65.0,87.0
2,5.839583333333334,6.089583333333334,70.0,82.0
3,6.089583333333334,6.28125,65.0,87.0
4,6.089583333333334,6.377083333333333,73.0,87.0
5,5.089583333333334,6.464583333333334,46.0,87.0
6,6.339583333333334,6.629166666666666,72.0,85.0
7,6.589583333333334,6.870833333333334,70.0,84.0
8,6.839583333333334,7.029166666666667,72.0,82.0
9,7.089583333333334,7.783333333333333,68.0,80.0
10,7.589583333333334,8.30625,51.0,69.0
11,8.089583333333334,8.552083333333334,63.0,83.0
12,8.089583333333334,8.75,72.0,86.0
13,7.089583333333334,8.758333333333333,44.0,86.0
14,8.589583333333334,8.84375,51.0,73.0
15,9.089583333333334,9.429166666666667,63.0,79.0
16,9.089583333333334,9.614583333333334,68.0,79.0
17,9.589583333333334,9.885416666666666,63.0,84.0
18,9.839583333333334,9.933333333333334,68.0,78.0
19,10.089583333333334,10.279166666666667,63.0,88.0
20,10.089583333333334,10.375,72.0,88.0
21,9.089583333333334,10.59375,44.0,86.0
22,10.339583333333334,10.6625,70.0,87.0
23,10.589583333333334,10.91875,68.0,85.0
24,11.089583333333334,11.660416666666666,65.0,84.0
25,11.089583333333334,11.697916666666666,70.0,82.0
26,11.589583333333334,12.1875,53.0,74.0
27,12.089583333333334,12.31875,65.0,87.0
28,12.089583333333334,12.547916666666666,73.0,87.0
29,12.589583333333334,12.66875,65.0,76.0
30,12.339583333333334,12.9125,53.0,75.0
31,11.089583333333334,12.939583333333333,46.0,87.0
32,12.589583333333334,12.939583333333333,72.0,79.0
33,12.839583333333334,12.979166666666666,68.0,74.0
34,13.089583333333334,13.677083333333334,65.0,86.0
35,13.089583333333334,13.88125,73.0,84.0
36,13.839583333333334,13.933333333333334,68.0,81.0
37,13.589583333333334,14.202083333333333,56.0,83.0
38,14.089583333333334,14.31875,65.0,87.0
39,14.089583333333334,14.35625,68.0,89.0
40,14.339583333333334,14.447916666666666,56.0,83.0
41,13.089583333333334,14.45,49.0,87.0
42,14.089583333333334,14.539583333333333,73.0,87.0
43,14.589583333333334,14.995833333333334,65.0,86.0
44,15.089583333333334,15.883333333333333,72.0,85.0
45,15.839583333333334,15.933333333333334,63.0,84.0
46,15.589583333333334,16.179166666666667,51.0,72.0
47,16.089583333333334,16.34583333333333,63.0,92.0
48,16.089583333333334,16.395833333333332,68.0,90.0
49,15.089583333333334,16.566666666666666,44.0,86.0
50,16.339583333333334,16.589583333333334,51.0,78.0
51,16.589583333333334,16.704166666666666,63.0,86.0
52,17.089583333333334,17.608333333333334,63.0,86.0
53,17.089583333333334,17.935416666666665,72.0,84.0
54,17.839583333333334,17.958333333333332,63.0,79.0
55,17.589583333333334,18.139583333333334,51.0,66.0
56,18.089583333333334,18.458333333333332,68.0,88.0
57,18.089583333333334,18.475,63.0,90.0
58,18.339583333333334,18.714583333333334,51.0,81.0
59,17.089583333333334,18.74375,44.0,87.0
60,18.589583333333334,19.1,72.0,80.0
61,19.089583333333334,19.73125,70.0,85.0
62,19.839583333333334,19.929166666666667,65.0,72.0
63,20.089583333333334,20.266666666666666,65.0,87.0
64,20.089583333333334,20.352083333333333,73.0,84.0
65,20.339583333333334,20.604166666666668,72.0,86.0
66,20.589583333333334,20.81458333333333,68.0,82.0
67,19.589583333333334,21.014583333333334,53.0,74.0
68,19.089583333333334,21.03125,46.0,87.0
69,20.839583333333334,21.085416666666667,65.0,91.0
70,21.089583333333334,21.62708333333333,58.0,86.0
71,21.089583333333334,21.65,61.0,86.0
72,21.589583333333334,22.29375,53.0,80.0
73,21.089583333333334,22.452083333333334,46.0,91.0
74,22.089583333333334,22.591666666666665,58.0,86.0
75,22.089583333333334,22.65625,70.0,86.0
76,22.089583333333334,22.672916666666666,61.0,102.0
77,22.089583333333334,22.6875,65.0,93.0
78,22.589583333333334,22.766666666666666,53.0,87.0
79,22.839583333333334,22.97083333333333,58.0,87.0
80,22.839583333333334,23.0125,53.0,50.0
81,23.089583333333334,23.683333333333334,60.0,88.0
82,23.089583333333334,23.8625,56.0,88.0
83,23.589583333333334,24.389583333333334,51.0,77.0
84,23.089583333333334,24.447916666666668,44.0,87.0
85,24.089583333333334,24.91875,63.0,92.0
86,24.089583333333334,24.920833333333334,60.0,95.0
87,24.089583333333334,24.925,56.0,88.0
88,25.089583333333334,25.695833333333333,60.0,90.0
89,25.089583333333334,25.714583333333334,63.0,88.0
90,25.089583333333334,25.772916666666667,56.0,87.0
91,25.589583333333334,26.154166666666665,51.0,74.0
92,26.089583333333334,26.352083333333333,56.0,93.0
93,26.089583333333334,26.35625,60.0,97.0
94,26.089583333333334,26.358333333333334,63.0,95.0
95,25.089583333333334,26.65833333333333,44.0,86.0
96,26.339583333333334,26.670833333333334,51.0,87.0
97,26.589583333333334,26.70625,61.0,97.0
98,26.839583333333334,27.058333333333334,60.0,100.0
99,27.089583333333334,27.62708333333333,58.0,95.0
100,27.589583333333334,27.9,61.0,88.0
101,27.839583333333334,27.974999999999998,58.0,87.0
102,27.339583333333334,28.20625,53.0,86.0
103,28.089583333333334,28.295833333333334,58.0,91.0
104,28.089583333333334,28.297916666666666,63.0,89.0
105,28.089583333333334,28.327083333333334,65.0,89.0
106,28.089583333333334,28.381249999999998,61.0,102.0
107,27.089583333333334,28.664583333333333,46.0,88.0
108,28.339583333333334,28.777083333333334,53.0,91.0
109,28.589583333333334,28.849999999999998,70.0,88.0
110,28.589583333333334,28.883333333333333,65.0,95.0
111,28.589583333333334,28.910416666666666,61.0,93.0
112,28.839583333333334,28.933333333333334,58.0,84.0
113,29.089583333333334,29.291666666666668,56.0,88.0
114,29.089583333333334,29.660416666666666,61.0,87.0
115,29.589583333333334,29.841666666666665,56.0,87.0
116,29.089583333333334,30.241666666666667,49.0,89.0
117,30.089583333333334,30.435416666666665,56.0,92.0
118,30.339583333333334,30.447916666666668,49.0,87.0
119,30.089583333333334,30.50208333333333,65.0,93.0
120,30.589583333333334,30.85625,63.0,90.0
121,30.839583333333334,30.99375,61.0,84.0
122,31.089583333333334,31.50208333333333,63.0,80.0
123,31.589583333333334,31.925,56.0,87.0
124,31.339583333333334,32.175,51.0,81.0
125,32.08958333333333,32.395833333333336,56.0,89.0
126,32.08958333333333,32.59583333333333,68.0,86.0
127,32.08958333333333,32.64791666666667,63.0,93.0
128,32.33958333333333,32.78333333333333,51.0,81.0
129,31.089583333333334,32.854166666666664,44.0,87.0
130,32.58958333333333,32.91875,56.0,91.0
131,33.08958333333333,33.72083333333333,60.0,83.0
132,33.08958333333333,33.802083333333336,56.0,86.0
133,33.58958333333333,34.1875,51.0,82.0
134,33.08958333333333,34.44583333333333,44.0,89.0
135,34.08958333333333,34.52916666666667,56.0,87.0
136,34.08958333333333,34.53958333333333,60.0,95.0
137,34.08958333333333,34.604166666666664,63.0,89.0
138,34.58958333333333,34.69375,51.0,83.0
139,35.08958333333333,35.895833333333336,61.0,86.0
140,35.08958333333333,35.90208333333333,58.0,85.0
141,35.83958333333333,35.9375,65.0,77.0
142,36.08958333333333,36.46875,58.0,81.0
143,36.08958333333333,36.697916666666664,70.0,88.0
144,35.58958333333333,36.84166666666667,53.0,78.0
145,35.08958333333333,36.85,46.0,87.0
146,37.08958333333333,37.52916666666667,65.0,86.0
147,37.08958333333333,37.5875,58.0,79.0
148,37.58958333333333,38.21875,53.0,70.0
149,38.08958333333333,38.54375,58.0,86.0
150,38.08958333333333,38.62916666666666,61.0,91.0
151,37.08958333333333,38.795833333333334,46.0,86.0
152,38.58958333333333,38.90625,53.0,75.0
153,38.83958333333333,38.96666666666667,58.0,79.0
154,39.08958333333333,39.666666666666664,60.0,84.0
155,39.08958333333333,39.67916666666667,56.0,81.0
156,39.58958333333333,40.291666666666664,51.0,60.0
157,40.08958333333333,40.322916666666664,56.0,85.0
158,40.08958333333333,40.33125,60.0,86.0
159,40.08958333333333,40.33958333333333,63.0,84.0
160,39.08958333333333,40.49583333333333,44.0,84.0
161,41.08958333333333,41.71041666666667,60.0,82.0
162,41.08958333333333,41.739583333333336,56.0,83.0
163,41.58958333333333,42.21875,51.0,64.0
164,42.08958333333333,42.375,56.0,82.0
165,41.08958333333333,42.47083333333333,44.0,86.0
166,42.08958333333333,42.53958333333333,63.0,86.0
167,42.08958333333333,42.59375,60.0,88.0
168,42.58958333333333,42.729166666666664,56.0,89.0
169,43.08958333333333,43.70625,61.0,82.0
170,43.08958333333333,44.12291666666667,58.0,80.0
171,44.08958333333333,44.552083333333336,65.0,86.0
172,44.08958333333333,44.577083333333334,61.0,87.0
173,43.08958333333333,44.729166666666664,46.0,87.0
174,43.58958333333333,44.864583333333336,53.0,69.0
175,45.08958333333333,45.666666666666664,58.0,81.0
176,45.08958333333333,45.672916666666666,61.0,81.0
177,45.58958333333333,46.239583333333336,53.0,75.0
178,46.08958333333333,46.37291666666667,58.0,87.0
179,46.08958333333333,46.41458333333333,65.0,91.0
180,46.08958333333333,46.420833333333334,61.0,92.0
181,45.08958333333333,46.65,46.0,88.0
182,46.58958333333333,46.75625,58.0,89.0
183,46.33958333333333,46.77708333333333,53.0,82.0
184,47.08958333333333,47.6625,60.0,83.0
185,47.08958333333333,47.68958333333333,56.0,85.0
186,48.08958333333333,48.27916666666667,63.0,86.0
187,48.08958333333333,48.28541666666666,60.0,88.0
188,48.08958333333333,48.28958333333333,56.0,84.0
189,47.58958333333333,48.45,51.0,62.0
190,47.08958333333333,48.514583333333334,44.0,85.0
191,49.08958333333333,49.641666666666666,63.0,80.0
192,49.08958333333333,49.6875,56.0,83.0
193,49.58958333333333,49.71041666666667,60.0,82.0
194,50.08958333333333,50.364583333333336,68.0,81.0
195,50.08958333333333,50.37708333333333,56.0,89.0
196,49.08958333333333,50.52916666666667,44.0,86.0
197,51.08958333333333,51.6,61.0,80.0
198,51.08958333333333,51.66458333333333,58.0,77.0
199,51.58958333333333,52.177083333333336,53.0,69.0
200,51.08958333333333,52.40625,46.0,86.0
201,52.08958333333333,52.53125,58.0,84.0
202,52.08958333333333,52.5375,61.0,91.0
203,52.08958333333333,52.543749999999996,65.0,89.0
204,53.08958333333333,53.327083333333334,56.0,86.0
205,53.08958333333333,53.49166666666667,37.0,86.0
206,53.08958333333333,53.59583333333333,61.0,87.0
207,53.58958333333333,53.8625,56.0,87.0
208,54.08958333333333,54.33541666666667,56.0,89.0
209,54.08958333333333,54.55416666666667,61.0,93.0
210,54.58958333333333,54.72083333333333,56.0,88.0
211,54.08958333333333,54.7375,65.0,92.0
212,55.08958333333333,55.458333333333336,60.0,86.0
213,55.08958333333333,55.520833333333336,56.0,82.0
214,55.08958333333333,55.53541666666666,63.0,86.0
215,55.58958333333333,56.25833333333333,51.0,70.0
216,56.08958333333333,56.27291666666667,56.0,87.0
217,56.08958333333333,56.27916666666667,60.0,92.0
218,56.08958333333333,56.291666666666664,63.0,87.0
219,55.08958333333333,56.38125,44.0,86.0
220,57.08958333333333,57.33958333333333,58.0,86.0
221,57.08958333333333,57.668749999999996,66.0,85.0
222,57.58958333333333,57.856249999999996,58.0,83.0
223,57.08958333333333,58.31458333333333,39.0,87.0
224,58.08958333333333,58.59583333333333,66.0,88.0
225,58.08958333333333,58.606249999999996,63.0,89.0
226,58.58958333333333,58.704166666666666,58.0,88.0
227,59.08958333333333,59.59375,65.0,86.0
228,59.08958333333333,59.62291666666667,58.0,80.0
229,59.58958333333333,60.25625,53.0,75.0
230,60.08958333333333,60.293749999999996,58.0,87.0
231,59.08958333333333,60.35208333333333,46.0,86.0
232,60.08958333333333,60.52916666666667,61.0,92.0
233,60.08958333333333,60.6875,65.0,91.0
234,60.58958333333333,60.731249999999996,58.0,87.0
235,61.08958333333333,61.74166666666667,58.0,82.0
236,61.08958333333333,61.760416666666664,54.0,82.0
237,61.58958333333333,62.22708333333333,49.0,80.0
238,62.08958333333333,62.30833333333333,54.0,87.0
239,61.08958333333333,62.354166666666664,42.0,83.0
240,62.08958333333333,62.59791666666666,58.0,90.0
241,62.08958333333333,62.62083333333333,61.0,89.0
242,62.58958333333333,62.69375,54.0,86.0
243,63.08958333333333,63.739583333333336,56.0,83.0
244,63.08958333333333,63.77708333333333,60.0,82.0
245,63.58958333333333,64.38125,51.0,75.0
246,64.08958333333334,64.45,56.0,86.0
247,63.08958333333333,64.49166666666666,44.0,86.0
248,64.08958333333334,64.53333333333333,60.0,89.0
249,64.08958333333334,64.57708333333333,63.0,87.0
250,64.58958333333334,64.75208333333333,56.0,87.0
251,65.08958333333334,65.725,58.0,85.0
252,65.08958333333334,65.72916666666667,61.0,87.0
253,65.58958333333334,66.24166666666666,53.0,78.0
254,66.08958333333334,66.35833333333333,58.0,88.0
255,66.08958333333334,66.37916666666666,61.0,92.0
256,66.08958333333334,66.39166666666667,65.0,93.0
257,65.08958333333334,66.7625,46.0,87.0
258,66.58958333333334,66.84166666666667,61.0,86.0
259,66.83958333333334,67.07708333333333,60.0,82.0
260,67.08958333333334,67.76666666666667,58.0,79.0
261,68.08958333333334,68.18958333333333,58.0,86.0
262,68.08958333333334,68.27083333333333,61.0,97.0
263,68.08958333333334,68.32708333333333,70.0,86.0
264,68.08958333333334,68.37708333333333,65.0,93.0
265,68.33958333333334,68.43333333333334,58.0,81.0
266,68.58958333333334,68.65208333333334,58.0,87.0
267,68.58958333333334,68.74791666666667,61.0,97.0
268,67.58958333333334,68.78958333333333,53.0,82.0
269,67.08958333333334,68.80208333333333,46.0,86.0
270,68.58958333333334,68.80625,65.0,92.0
271,68.83958333333334,68.925,58.0,82.0
272,69.08958333333334,69.28333333333333,56.0,87.0
273,69.33958333333334,69.6125,56.0,82.0
274,69.08958333333334,69.66666666666667,61.0,85.0
275,70.08958333333334,70.20208333333333,56.0,92.0
276,69.08958333333334,70.24375,49.0,95.0
277,70.08958333333334,70.38541666666667,61.0,100.0
278,70.08958333333334,70.39791666666666,65.0,102.0
279,70.33958333333334,70.46666666666667,56.0,86.0
280,70.58958333333334,70.74166666666666,61.0,77.0
281,71.08958333333334,71.275,56.0,87.0
282,71.08958333333334,71.36666666666666,60.0,88.0
283,71.58958333333334,71.83333333333333,63.0,82.0
284,71.33958333333334,72.25625,51.0,74.0
285,71.08958333333334,72.49791666666667,44.0,88.0
286,72.08958333333334,72.52083333333333,56.0,91.0
287,72.08958333333334,72.53333333333333,60.0,95.0
288,72.58958333333334,72.65833333333333,51.0,87.0
289,72.08958333333334,72.68541666666667,68.0,86.0
290,73.08958333333334,73.23125,58.0,86.0
291,73.08958333333334,73.42916666666666,66.0,87.0
292,73.33958333333334,73.45416666666667,58.0,76.0
293,73.58958333333334,73.74166666666666,63.0,84.0
294,73.83958333333334,73.89791666666666,58.0,75.0
295,74.08958333333334,74.22083333333333,58.0,93.0
296,73.08958333333334,74.42916666666666,39.0,91.0
297,74.33958333333334,74.48541666666667,58.0,80.0
298,74.08958333333334,74.51875,66.0,91.0
299,74.58958333333334,74.70833333333333,63.0,88.0
300,75.08958333333334,75.28333333333333,58.0,81.0
301,75.08958333333334,75.34791666666666,61.0,86.0
302,75.58958333333334,75.84791666666666,65.0,87.0
303,75.83958333333334,75.975,58.0,86.0
304,76.08958333333334,76.33333333333333,58.0,88.0
305,76.08958333333334,76.36041666666667,70.0,88.0
306,75.33958333333334,76.425,53.0,76.0
307,75.08958333333334,76.5375,46.0,87.0
308,76.33958333333334,76.61875,65.0,84.0
309,76.58958333333334,76.75625,58.0,87.0
310,77.08958333333334,77.22083333333333,56.0,85.0
311,77.08958333333334,77.36458333333333,61.0,83.0
312,77.33958333333334,77.4875,56.0,84.0
313,77.58958333333334,77.70208333333333,61.0,72.0
314,77.83958333333334,77.95208333333333,56.0,86.0
315,78.08958333333334,78.27083333333333,56.0,89.0
316,77.08958333333334,78.35625,37.0,87.0
317,78.08958333333334,78.35625,65.0,89.0
318,78.33958333333334,78.50208333333333,61.0,86.0
319,78.58958333333334,78.7,56.0,86.0
320,79.08958333333334,79.34791666666666,56.0,83.0
321,79.08958333333334,79.48333333333333,63.0,84.0
322,79.58958333333334,79.89791666666666,56.0,87.0
323,79.83958333333334,80.125,63.0,83.0
324,80.08958333333334,80.18958333333333,56.0,68.0
325,80.08958333333334,80.38958333333333,68.0,88.0
326,79.33958333333334,80.48333333333333,51.0,82.0
327,79.08958333333334,80.55208333333333,44.0,87.0
328,80.33958333333334,80.59583333333333,63.0,87.0
329,80.58958333333334,80.70625,56.0,91.0
330,81.08958333333334,81.3,54.0,86.0
331,81.08958333333334,81.53958333333333,58.0,81.0
332,81.58958333333334,81.9,54.0,86.0
333,81.83958333333334,82.13333333333333,61.0,83.0
334,82.08958333333334,82.14166666666667,54.0,75.0
335,81.33958333333334,82.47916666666667,49.0,76.0
336,81.08958333333334,82.68958333333333,42.0,88.0
337,82.58958333333334,82.80833333333334,49.0,81.0
338,82.08958333333334,82.88333333333333,58.0,93.0
339,82.83958333333334,82.96666666666667,54.0,91.0
340,83.08958333333334,83.33541666666666,56.0,87.0
341,83.08958333333334,83.45208333333333,60.0,88.0
342,83.58958333333334,83.72291666666666,56.0,89.0
343,83.83958333333334,83.93958333333333,56.0,86.0
344,83.83958333333334,83.95416666666667,60.0,92.0
345,83.33958333333334,84.14791666666666,51.0,83.0
346,83.08958333333334,84.30416666666666,44.0,92.0
347,84.08958333333334,84.33958333333334,56.0,93.0
348,84.08958333333334,84.39583333333333,60.0,102.0
349,84.08958333333334,84.41458333333333,63.0,100.0
350,84.33958333333334,84.44375,51.0,95.0
351,84.58958333333334,84.75,56.0,95.0
352,85.08958333333334,85.18333333333334,37.0,87.0
353,85.08958333333334,85.2,56.0,89.0
354,85.08958333333334,85.3125,61.0,87.0
355,85.33958333333334,85.48333333333333,56.0,79.0
356,85.58958333333334,85.6875,61.0,75.0
357,85.83958333333334,85.91666666666667,56.0,88.0
358,86.08958333333334,86.24583333333334,56.0,93.0
359,86.08958333333334,86.36666666666666,65.0,95.0
360,86.33958333333334,86.59166666666667,56.0,78.0
361,86.58958333333334,86.71458333333334,61.0,88.0
362,86.83958333333334,86.95833333333333,56.0,81.0
363,87.08958333333334,87.4,56.0,81.0
364,87.08958333333334,87.56041666666667,63.0,87.0
365,87.58958333333334,87.85833333333333,56.0,89.0
366,87.83958333333334,88.13333333333333,63.0,86.0
367,88.08958333333334,88.39375,68.0,87.0
368,87.33958333333334,88.575,51.0,82.0
369,87.08958333333334,88.59791666666666,44.0,87.0
370,88.33958333333334,88.66041666666666,63.0,88.0
371,88.58958333333334,88.73958333333333,56.0,90.0
372,89.08958333333334,89.27916666666667,58.0,79.0
373,89.08958333333334,89.4625,63.0,85.0
374,89.58958333333334,89.88958333333333,63.0,87.0
375,89.83958333333334,89.95833333333333,58.0,87.0
376,90.08958333333334,90.27708333333334,58.0,87.0
377,90.08958333333334,90.45,66.0,87.0
378,89.33958333333334,90.4625,46.0,81.0
379,89.08958333333334,90.52083333333333,39.0,89.0
380,90.58958333333334,90.88333333333333,58.0,93.0
381,91.08958333333334,91.33125,58.0,81.0
382,91.08958333333334,91.41458333333333,61.0,84.0
383,91.58958333333334,91.93541666666667,58.0,81.0
384,91.83958333333334,92.08958333333334,65.0,87.0
385,92.08958333333334,92.15208333333334,58.0,69.0
386,92.08958333333334,92.37083333333334,70.0,88.0
387,91.33958333333334,92.41875,53.0,77.0
388,91.08958333333334,92.53333333333333,46.0,88.0
389,92.33958333333334,92.6375,65.0,88.0
390,92.58958333333334,92.7,58.0,92.0
391,93.08958333333334,93.57708333333333,54.0,80.0
392,93.08958333333334,93.63958333333333,58.0,82.0
393,93.58958333333334,93.92916666666666,61.0,84.0
394,93.83958333333334,94.08125,54.0,81.0
395,94.08958333333334,94.13541666666667,61.0,48.0
396,93.33958333333334,94.48541666666667,49.0,79.0
397,93.08958333333334,94.5625,42.0,87.0
398,94.33958333333334,94.63333333333333,54.0,88.0
399,94.08958333333334,94.65,66.0,89.0
400,94.58958333333334,94.73541666666667,61.0,82.0
401,95.08958333333334,95.59375,56.0,83.0
402,95.08958333333334,95.625,60.0,83.0
403,95.58958333333334,95.91875,63.0,84.0
404,95.83958333333334,96.1625,56.0,87.0
405,96.08958333333334,96.43333333333334,68.0,87.0
406,96.33958333333334,96.5875,63.0,73.0
407,95.33958333333334,96.61875,51.0,86.0
408,95.08958333333334,96.6375,44.0,88.0
409,96.58958333333334,96.71666666666667,56.0,86.0
410,97.08958333333334,97.39791666666666,58.0,83.0
411,97.08958333333334,97.40416666666667,61.0,86.0
412,97.58958333333334,97.77708333333334,65.0,78.0
413,97.58958333333334,97.78333333333333,58.0,75.0
414,98.08958333333334,98.20416666666667,58.0,91.0
415,98.08958333333334,98.225,70.0,88.0
416,98.33958333333334,98.47083333333333,65.0,88.0
417,98.58958333333334,98.68333333333334,58.0,86.0
418,97.08958333333334,98.83333333333333,46.0,87.0
419,99.08958333333334,99.3375,58.0,83.0
420,99.08958333333334,99.36666666666666,61.0,87.0
421,99.58958333333334,99.68333333333334,58.0,85.0
422,99.33958333333334,99.89791666666666,53.0,82.0
423,99.08958333333334,99.96666666666667,46.0,91.0
424,99.83958333333334,100.16041666666666,61.0,97.0
425,99.83958333333334,100.16875,58.0,88.0
426,99.83958333333334,100.17291666666667,65.0,92.0
427,100.08958333333334,100.2125,53.0,92.0
428,100.33958333333334,100.47916666666667,58.0,90.0
429,100.33958333333334,100.60833333333333,61.0,97.0
430,100.33958333333334,100.64166666666667,65.0,97.0
431,100.83958333333334,100.95833333333333,58.0,87.0
432,100.58958333333334,100.97708333333333,46.0,87.0
433,101.08958333333334,101.62708333333333,58.0,86.0
434,101.08958333333334,101.65,61.0,86.0
435,101.58958333333334,102.29375,53.0,80.0
436,101.08958333333334,102.45208333333333,46.0,91.0
437,102.08958333333334,102.59166666666667,58.0,86.0
438,102.08958333333334,102.65625,70.0,86.0
439,102.08958333333334,102.67291666666667,61.0,102.0
440,102.08958333333334,102.6875,65.0,93.0
441,102.58958333333334,102.76666666666667,53.0,87.0
442,102.83958333333334,102.97083333333333,58.0,87.0
443,102.83958333333334,103.0125,53.0,50.0
444,103.08958333333334,103.68333333333334,60.0,88.0
445,103.08958333333334,103.8625,56.0,88.0
446,103.58958333333334,104.38958333333333,51.0,77.0
447,103.08958333333334,104.44791666666667,44.0,87.0
448,104.08958333333334,104.91875,63.0,92.0
449,104.08958333333334,104.92083333333333,60.0,95.0
450,104.08958333333334,104.925,56.0,88.0
451,105.08958333333334,105.69583333333333,60.0,90.0
452,105.08958333333334,105.71458333333334,63.0,88.0
453,105.08958333333334,105.77291666666666,56.0,87.0
454,105.58958333333334,106.15416666666667,51.0,74.0
455,106.08958333333334,106.35208333333333,56.0,93.0
456,106.08958333333334,106.35625,60.0,97.0
457,106.08958333333334,106.35833333333333,63.0,95.0
458,105.08958333333334,106.65833333333333,44.0,86.0
459,106.33958333333334,106.67083333333333,51.0,87.0
460,106.58958333333334,106.70625,61.0,97.0
461,106.83958333333334,107.05833333333334,60.0,100.0
462,107.08958333333334,107.62708333333333,58.0,95.0
463,107.58958333333334,107.89999999999999,61.0,88.0
464,107.83958333333334,107.975,58.0,87.0
465,107.33958333333334,108.20625,53.0,86.0
466,108.08958333333334,108.29583333333333,58.0,91.0
467,108.08958333333334,108.29791666666667,63.0,89.0
468,108.08958333333334,108.32708333333333,65.0,89.0
469,108.08958333333334,108.38125,61.0,102.0
470,107.08958333333334,108.66458333333333,46.0,88.0
471,108.33958333333334,108.77708333333334,53.0,91.0
472,108.58958333333334,108.85,70.0,88.0
473,108.58958333333334,108.88333333333333,65.0,95.0
474,108.58958333333334,108.91041666666666,61.0,93.0
475,108.83958333333334,108.93333333333334,58.0,84.0
476,109.08958333333334,109.29166666666667,56.0,88.0
477,109.08958333333334,109.66041666666666,61.0,87.0
478,109.58958333333334,109.84166666666667,56.0,87.0
479,109.08958333333334,110.24166666666666,49.0,89.0
480,110.08958333333334,110.43541666666667,56.0,92.0
481,110.33958333333334,110.44791666666667,49.0,87.0
482,110.08958333333334,110.50208333333333,65.0,93.0
483,110.58958333333334,110.85625,63.0,90.0
484,110.83958333333334,110.99374999999999,61.0,84.0
485,111.08958333333334,111.50208333333333,63.0,80.0
486,111.58958333333334,111.925,56.0,87.0
487,111.33958333333334,112.175,51.0,81.0
488,112.08958333333334,112.39583333333333,56.0,89.0
489,112.08958333333334,112.59583333333333,68.0,86.0
490,112.08958333333334,112.64791666666666,63.0,93.0
491,112.33958333333334,112.78333333333333,51.0,81.0
492,111.08958333333334,112.85416666666667,44.0,87.0
493,112.58958333333334,112.91875,56.0,91.0
494,113.08958333333334,113.72083333333333,60.0,83.0
495,113.08958333333334,113.80208333333333,56.0,86.0
496,113.58958333333334,114.1875,51.0,82.0
497,113.08958333333334,114.44583333333333,44.0,89.0
498,114.08958333333334,114.52916666666667,56.0,87.0
499,114.08958333333334,114.53958333333333,60.0,95.0
500,114.08958333333334,114.60416666666667,63.0,89.0
501,114.58958333333334,114.69375,51.0,83.0
502,115.08958333333334,115.89583333333333,61.0,86.0
503,115.08958333333334,115.90208333333334,58.0,85.0
504,115.83958333333334,115.9375,65.0,77.0
505,116.08958333333334,116.46875,58.0,81.0
506,116.08958333333334,116.69791666666667,70.0,88.0
507,115.58958333333334,116.84166666666667,53.0,78.0
508,115.08958333333334,116.85,46.0,87.0
509,117.08958333333334,117.57291666666667,54.0,88.0
510,117.08958333333334,117.575,61.0,88.0
511,117.83958333333334,118.00208333333333,54.0,86.0
512,117.58958333333334,118.225,49.0,90.0
513,118.08958333333334,118.45208333333333,58.0,92.0
514,118.08958333333334,118.45833333333333,61.0,93.0
515,118.08958333333334,118.48541666666667,66.0,87.0
516,118.33958333333334,118.69583333333333,49.0,87.0
517,117.08958333333334,118.71458333333334,42.0,89.0
518,118.58958333333334,118.85416666666667,54.0,93.0
519,119.08958333333334,119.36458333333333,56.0,89.0
520,119.08958333333334,119.41458333333333,60.0,92.0
521,119.58958333333334,119.94583333333333,56.0,90.0
522,119.83958333333334,120.00625,63.0,82.0
523,119.33958333333334,120.30416666666666,51.0,81.0
524,120.08958333333334,120.4875,63.0,90.0
525,120.08958333333334,120.49791666666667,56.0,95.0
526,120.08958333333334,120.50833333333333,68.0,88.0
527,119.08958333333334,120.53541666666666,44.0,88.0
528,120.58958333333334,120.67083333333333,56.0,86.0
529,120.58958333333334,120.88125,60.0,91.0
530,120.83958333333334,120.90625,56.0,79.0
531,120.58958333333334,120.90833333333333,63.0,90.0
532,120.58958333333334,120.92291666666667,68.0,84.0
533,121.08958333333334,121.42083333333333,58.0,87.0
534,121.08958333333334,121.42708333333333,61.0,89.0
535,122.08958333333334,122.34791666666666,65.0,102.0
536,122.08958333333334,122.35,58.0,88.0
537,122.08958333333334,122.36666666666666,70.0,88.0
538,122.08958333333334,122.37291666666667,61.0,100.0
539,121.08958333333334,122.64166666666667,46.0,90.0
540,122.33958333333334,122.65416666666667,53.0,86.0
541,122.58958333333334,122.68333333333334,58.0,92.0
542,122.83958333333334,122.93541666666667,61.0,93.0
543,122.83958333333334,122.93541666666667,65.0,89.0
544,122.83958333333334,122.9375,58.0,80.0
545,123.08958333333334,124.25,46.0,95.0
546,123.08958333333334,124.85416666666667,58.0,80.0
547,123.08958333333334,124.85416666666667,61.0,88.0
548,123.08958333333334,124.85416666666667,65.0,89.0
549,123.08958333333334,124.85416666666667,70.0,88.0
550,125.08958333333334,125.52916666666667,65.0,86.0
551,125.08958333333334,125.58749999999999,58.0,79.0
552,125.58958333333334,126.21875,53.0,70.0
553,126.08958333333334,126.54375,58.0,86.0
554,126.08958333333334,126.62916666666666,61.0,91.0
555,125.08958333333334,126.79583333333333,46.0,86.0
556,126.58958333333334,126.90625,53.0,75.0
557,126.83958333333334,126.96666666666667,58.0,79.0
558,127.08958333333334,127.66666666666667,60.0,84.0
559,127.08958333333334,127.67916666666666,56.0,81.0
560,127.58958333333334,128.29166666666666,51.0,60.0
561,128.08958333333334,128.32291666666666,56.0,85.0
562,128.08958333333334,128.33125,60.0,86.0
563,128.08958333333334,128.33958333333334,63.0,84.0
564,127.08958333333334,128.49583333333334,44.0,84.0
565,129.08958333333334,129.71041666666667,60.0,82.0
566,129.08958333333334,129.73958333333334,56.0,83.0
567,129.58958333333334,130.21875,51.0,64.0
568,130.08958333333334,130.375,56.0,82.0
569,129.08958333333334,130.47083333333333,44.0,86.0
570,130.08958333333334,130.53958333333333,63.0,86.0
571,130.08958333333334,130.59375,60.0,88.0
572,130.58958333333334,130.72916666666666,56.0,89.0
573,131.08958333333334,131.70625,61.0,82.0
574,131.08958333333334,132.12291666666667,58.0,80.0
575,132.08958333333334,132.55208333333334,65.0,86.0
576,132.08958333333334,132.57708333333332,61.0,87.0
577,131.08958333333334,132.72916666666666,46.0,87.0
578,131.58958333333334,132.86458333333334,53.0,69.0
579,133.08958333333334,133.66666666666666,58.0,81.0
580,133.08958333333334,133.67291666666665,61.0,81.0
581,133.58958333333334,134.23958333333334,53.0,75.0
582,134.08958333333334,134.37291666666667,58.0,87.0
583,134.08958333333334,134.41458333333333,65.0,91.0
584,134.08958333333334,134.42083333333332,61.0,92.0
585,133.08958333333334,134.65,46.0,88.0
586,134.58958333333334,134.75625,58.0,89.0
587,134.33958333333334,134.77708333333334,53.0,82.0
588,135.08958333333334,135.6625,60.0,83.0
589,135.08958333333334,135.68958333333333,56.0,85.0
590,136.08958333333334,136.27916666666667,63.0,86.0
591,136.08958333333334,136.28541666666666,60.0,88.0
592,136.08958333333334,136.28958333333333,56.0,84.0
593,135.58958333333334,136.45,51.0,62.0
594,135.08958333333334,136.51458333333332,44.0,85.0
595,137.08958333333334,137.64166666666665,63.0,80.0
596,137.08958333333334,137.6875,56.0,83.0
597,137.58958333333334,137.71041666666667,60.0,82.0
598,138.08958333333334,138.36458333333334,68.0,81.0
599,138.08958333333334,138.37708333333333,56.0,89.0
600,137.08958333333334,138.52916666666667,44.0,86.0
601,139.08958333333334,139.6,61.0,80.0
602,139.08958333333334,139.66458333333333,58.0,77.0
603,139.58958333333334,140.17708333333334,53.0,69.0
604,139.08958333333334,140.40625,46.0,86.0
605,140.08958333333334,140.53125,58.0,84.0
606,140.08958333333334,140.5375,61.0,91.0
607,140.08958333333334,140.54375,65.0,89.0
608,141.08958333333334,141.32708333333332,56.0,86.0
609,141.08958333333334,141.49166666666667,37.0,86.0
610,141.08958333333334,141.59583333333333,61.0,87.0
611,141.58958333333334,141.8625,56.0,87.0
612,142.08958333333334,142.33541666666667,56.0,89.0
613,142.08958333333334,142.55416666666667,61.0,93.0
614,142.58958333333334,142.72083333333333,56.0,88.0
615,142.08958333333334,142.7375,65.0,92.0
616,143.08958333333334,143.45833333333334,60.0,86.0
617,143.08958333333334,143.52083333333334,56.0,82.0
618,143.08958333333334,143.53541666666666,63.0,86.0
619,143.58958333333334,144.25833333333333,51.0,70.0
620,144.08958333333334,144.27291666666667,56.0,87.0
621,144.08958333333334,144.27916666666667,60.0,92.0
622,144.08958333333334,144.29166666666666,63.0,87.0
623,143.08958333333334,144.38125,44.0,86.0
624,145.08958333333334,145.33958333333334,58.0,86.0
625,145.08958333333334,145.66875,66.0,85.0
626,145.58958333333334,145.85625,58.0,83.0
627,145.08958333333334,146.31458333333333,39.0,87.0
628,146.08958333333334,146.59583333333333,66.0,88.0
629,146.08958333333334,146.60625,63.0,89.0
630,146.58958333333334,146.70416666666665,58.0,88.0
631,147.08958333333334,147.59375,65.0,86.0
632,147.08958333333334,147.62291666666667,58.0,80.0
633,147.58958333333334,148.25625,53.0,75.0
634,148.08958333333334,148.29375,58.0,87.0
635,147.08958333333334,148.35208333333333,46.0,86.0
636,148.08958333333334,148.52916666666667,61.0,92.0
637,148.08958333333334,148.6875,65.0,91.0
638,148.58958333333334,148.73125,58.0,87.0
639,149.08958333333334,149.74166666666667,58.0,82.0
640,149.08958333333334,149.76041666666666,54.0,82.0
641,149.58958333333334,150.22708333333333,49.0,80.0
642,150.08958333333334,150.30833333333334,54.0,87.0
643,149.08958333333334,150.35416666666666,42.0,83.0
644,150.08958333333334,150.59791666666666,58.0,90.0
645,150.08958333333334,150.62083333333334,61.0,89.0
646,150.58958333333334,150.69375,54.0,86.0
647,151.08958333333334,151.73958333333334,56.0,83.0
648,151.08958333333334,151.77708333333334,60.0,82.0
649,151.58958333333334,152.38125,51.0,75.0
650,152.08958333333334,152.45,56.0,86.0
651,151.08958333333334,152.49166666666667,44.0,86.0
652,152.08958333333334,152.53333333333333,60.0,89.0
653,152.08958333333334,152.57708333333332,63.0,87.0
654,152.58958333333334,152.75208333333333,56.0,87.0
655,153.08958333333334,153.725,58.0,85.0
656,153.08958333333334,153.72916666666666,61.0,87.0
657,153.58958333333334,154.24166666666667,53.0,78.0
658,154.08958333333334,154.35833333333332,58.0,88.0
659,154.08958333333334,154.37916666666666,61.0,92.0
660,154.08958333333334,154.39166666666665,65.0,93.0
661,153.08958333333334,154.7625,46.0,87.0
662,154.58958333333334,154.84166666666667,61.0,86.0
663,154.83958333333334,155.07708333333332,60.0,82.0
664,155.08958333333334,155.76666666666665,58.0,79.0
665,156.08958333333334,156.18958333333333,58.0,86.0
666,156.08958333333334,156.27083333333334,61.0,97.0
667,156.08958333333334,156.32708333333332,70.0,86.0
668,156.08958333333334,156.37708333333333,65.0,93.0
669,156.33958333333334,156.43333333333334,58.0,81.0
670,156.58958333333334,156.65208333333334,58.0,87.0
671,156.58958333333334,156.74791666666667,61.0,97.0
672,155.58958333333334,156.78958333333333,53.0,82.0
673,155.08958333333334,156.80208333333334,46.0,86.0
674,156.58958333333334,156.80625,65.0,92.0
675,156.83958333333334,156.925,58.0,82.0
676,157.08958333333334,157.28333333333333,56.0,87.0
677,157.33958333333334,157.6125,56.0,82.0
678,157.08958333333334,157.66666666666666,61.0,85.0
679,158.08958333333334,158.20208333333332,56.0,92.0
680,157.08958333333334,158.24375,49.0,95.0
681,158.08958333333334,158.38541666666666,61.0,100.0
682,158.08958333333334,158.39791666666667,65.0,102.0
683,158.33958333333334,158.46666666666667,56.0,86.0
684,158.58958333333334,158.74166666666667,61.0,77.0
685,159.08958333333334,159.275,56.0,87.0
686,159.08958333333334,159.36666666666667,60.0,88.0
687,159.58958333333334,159.83333333333334,63.0,82.0
688,159.33958333333334,160.25625,51.0,74.0
689,159.08958333333334,160.49791666666667,44.0,88.0
690,160.08958333333334,160.52083333333334,56.0,91.0
691,160.08958333333334,160.53333333333333,60.0,95.0
692,160.58958333333334,160.65833333333333,51.0,87.0
693,160.08958333333334,160.68541666666667,68.0,86.0
694,161.08958333333334,161.23125,58.0,86.0
695,161.08958333333334,161.42916666666667,66.0,87.0
696,161.33958333333334,161.45416666666665,58.0,76.0
697,161.58958333333334,161.74166666666667,63.0,84.0
698,161.83958333333334,161.89791666666667,58.0,75.0
699,162.08958333333334,162.22083333333333,58.0,93.0
700,161.08958333333334,162.42916666666667,39.0,91.0
701,162.33958333333334,162.48541666666665,58.0,80.0
702,162.08958333333334,162.51875,66.0,91.0
703,162.58958333333334,162.70833333333334,63.0,88.0
704,163.08958333333334,163.28333333333333,58.0,81.0
705,163.08958333333334,163.34791666666666,61.0,86.0
706,163.58958333333334,163.84791666666666,65.0,87.0
707,163.83958333333334,163.975,58.0,86.0
708,164.08958333333334,164.33333333333334,58.0,88.0
709,164.08958333333334,164.36041666666665,70.0,88.0
710,163.33958333333334,164.425,53.0,76.0
711,163.08958333333334,164.5375,46.0,87.0
712,164.33958333333334,164.61875,65.0,84.0
713,164.58958333333334,164.75625,58.0,87.0
714,165.08958333333334,165.22083333333333,56.0,85.0
715,165.08958333333334,165.36458333333334,61.0,83.0
716,165.33958333333334,165.4875,56.0,84.0
717,165.58958333333334,165.70208333333332,61.0,72.0
718,165.83958333333334,165.95208333333332,56.0,86.0
719,166.08958333333334,166.27083333333334,56.0,89.0
720,165.08958333333334,166.35625,37.0,87.0
721,166.08958333333334,166.35625,65.0,89.0
722,166.33958333333334,166.50208333333333,61.0,86.0
723,166.58958333333334,166.7,56.0,86.0
724,167.08958333333334,167.34791666666666,56.0,83.0
725,167.08958333333334,167.48333333333332,63.0,84.0
726,167.58958333333334,167.89791666666667,56.0,87.0
727,167.83958333333334,168.125,63.0,83.0
728,168.08958333333334,168.18958333333333,56.0,68.0
729,168.08958333333334,168.38958333333332,68.0,88.0
730,167.33958333333334,168.48333333333332,51.0,82.0
731,167.08958333333334,168.55208333333334,44.0,87.0
732,168.33958333333334,168.59583333333333,63.0,87.0
733,168.58958333333334,168.70625,56.0,91.0
734,169.08958333333334,169.3,54.0,86.0
735,169.08958333333334,169.53958333333333,58.0,81.0
736,169.58958333333334,169.9,54.0,86.0
737,169.83958333333334,170.13333333333333,61.0,83.0
738,170.08958333333334,170.14166666666665,54.0,75.0
739,169.33958333333334,170.47916666666666,49.0,76.0
740,169.08958333333334,170.68958333333333,42.0,88.0
741,170.58958333333334,170.80833333333334,49.0,81.0
742,170.08958333333334,170.88333333333333,58.0,93.0
743,170.83958333333334,170.96666666666667,54.0,91.0
744,171.08958333333334,171.33541666666667,56.0,87.0
745,171.08958333333334,171.45208333333332,60.0,88.0
746,171.58958333333334,171.72291666666666,56.0,89.0
747,171.83958333333334,171.93958333333333,56.0,86.0
748,171.83958333333334,171.95416666666665,60.0,92.0
749,171.33958333333334,172.14791666666667,51.0,83.0
750,171.08958333333334,172.30416666666667,44.0,92.0
751,172.08958333333334,172.33958333333334,56.0,93.0
752,172.08958333333334,172.39583333333334,60.0,102.0
753,172.08958333333334,172.41458333333333,63.0,100.0
754,172.33958333333334,172.44375,51.0,95.0
755,172.58958333333334,172.75,56.0,95.0
756,173.08958333333334,173.18333333333334,37.0,87.0
757,173.08958333333334,173.2,56.0,89.0
758,173.08958333333334,173.3125,61.0,87.0
759,173.33958333333334,173.48333333333332,56.0,79.0
760,173.58958333333334,173.6875,61.0,75.0
761,173.83958333333334,173.91666666666666,56.0,88.0
762,174.08958333333334,174.24583333333334,56.0,93.0
763,174.08958333333334,174.36666666666667,65.0,95.0
764,174.33958333333334,174.59166666666667,56.0,78.0
765,174.58958333333334,174.71458333333334,61.0,88.0
766,174.83958333333334,174.95833333333334,56.0,81.0
767,175.08958333333334,175.4,56.0,81.0
768,175.08958333333334,175.56041666666667,63.0,87.0
769,175.58958333333334,175.85833333333332,56.0,89.0
770,175.83958333333334,176.13333333333333,63.0,86.0
771,176.08958333333334,176.39375,68.0,87.0
772,175.33958333333334,176.575,51.0,82.0
773,175.08958333333334,176.59791666666666,44.0,87.0
774,176.33958333333334,176.66041666666666,63.0,88.0
775,176.58958333333334,176.73958333333334,56.0,90.0
776,177.08958333333334,177.27916666666667,58.0,79.0
777,177.08958333333334,177.4625,63.0,85.0
778,177.58958333333334,177.88958333333332,63.0,87.0
779,177.83958333333334,177.95833333333334,58.0,87.0
780,178.08958333333334,178.27708333333334,58.0,87.0
781,178.08958333333334,178.45,66.0,87.0
782,177.33958333333334,178.4625,46.0,81.0
783,177.08958333333334,178.52083333333334,39.0,89.0
784,178.58958333333334,178.88333333333333,58.0,93.0
785,179.08958333333334,179.33125,58.0,81.0
786,179.08958333333334,179.41458333333333,61.0,84.0
787,179.58958333333334,179.93541666666667,58.0,81.0
788,179.83958333333334,180.08958333333334,65.0,87.0
789,180.08958333333334,180.15208333333334,58.0,69.0
790,180.08958333333334,180.37083333333334,70.0,88.0
791,179.33958333333334,180.41875,53.0,77.0
792,179.08958333333334,180.53333333333333,46.0,88.0
793,180.33958333333334,180.6375,65.0,88.0
794,180.58958333333334,180.7,58.0,92.0
795,181.08958333333334,181.57708333333332,54.0,80.0
796,181.08958333333334,181.63958333333332,58.0,82.0
797,181.58958333333334,181.92916666666667,61.0,84.0
798,181.83958333333334,182.08125,54.0,81.0
799,182.08958333333334,182.13541666666666,61.0,48.0
800,181.33958333333334,182.48541666666665,49.0,79.0
801,181.08958333333334,182.5625,42.0,87.0
802,182.33958333333334,182.63333333333333,54.0,88.0
803,182.08958333333334,182.65,66.0,89.0
804,182.58958333333334,182.73541666666665,61.0,82.0
805,183.08958333333334,183.59375,56.0,83.0
806,183.08958333333334,183.625,60.0,83.0
807,183.58958333333334,183.91875,63.0,84.0
808,183.83958333333334,184.1625,56.0,87.0
809,184.08958333333334,184.43333333333334,68.0,87.0
810,184.33958333333334,184.5875,63.0,73.0
811,183.33958333333334,184.61875,51.0,86.0
812,183.08958333333334,184.6375,44.0,88.0
813,184.58958333333334,184.71666666666667,56.0,86.0
814,185.08958333333334,185.39791666666667,58.0,83.0
815,185.08958333333334,185.40416666666667,61.0,86.0
816,185.58958333333334,185.77708333333334,65.0,78.0
817,185.58958333333334,185.78333333333333,58.0,75.0
818,186.08958333333334,186.20416666666665,58.0,91.0
819,186.08958333333334,186.225,70.0,88.0
820,186.33958333333334,186.47083333333333,65.0,88.0
821,186.58958333333334,186.68333333333334,58.0,86.0
822,185.08958333333334,186.83333333333334,46.0,87.0
823,187.08958333333334,187.3375,58.0,83.0
824,187.08958333333334,187.36666666666667,61.0,87.0
825,187.58958333333334,187.68333333333334,58.0,85.0
826,187.33958333333334,187.89791666666667,53.0,82.0
827,187.08958333333334,187.96666666666667,46.0,91.0
828,187.83958333333334,188.16041666666666,61.0,97.0
829,187.83958333333334,188.16875,58.0,88.0
830,187.83958333333334,188.17291666666665,65.0,92.0
831,188.08958333333334,188.2125,53.0,92.0
832,188.33958333333334,188.47916666666666,58.0,90.0
833,188.33958333333334,188.60833333333332,61.0,97.0
834,188.33958333333334,188.64166666666665,65.0,97.0
835,188.83958333333334,188.95833333333334,58.0,87.0
836,188.58958333333334,188.97708333333333,46.0,87.0
837,189.08958333333334,189.47083333333333,54.0,87.0
838,189.08958333333334,189.65,61.0,88.0
839,189.83958333333334,189.93958333333333,54.0,87.0
840,189.58958333333334,190.18333333333334,49.0,88.0
841,190.08958333333334,190.3625,54.0,89.0
842,190.08958333333334,190.41875,58.0,95.0
843,190.08958333333334,190.56041666666667,61.0,93.0
844,190.33958333333334,190.60208333333333,49.0,86.0
845,189.08958333333334,190.60416666666666,42.0,91.0
846,190.58958333333334,190.90416666666667,54.0,86.0
847,190.83958333333334,191.0125,58.0,87.0
848,191.08958333333334,191.39375,60.0,90.0
849,191.08958333333334,191.44166666666666,56.0,86.0
850,191.58958333333334,191.76875,63.0,86.0
851,191.83958333333334,191.98125,56.0,88.0
852,192.08958333333334,192.25208333333333,56.0,86.0
853,192.08958333333334,192.48541666666665,60.0,89.0
854,192.08958333333334,192.55416666666667,68.0,87.0
855,192.08958333333334,192.64791666666667,63.0,92.0
856,192.33958333333334,192.68333333333334,51.0,87.0
857,191.08958333333334,192.73333333333332,44.0,88.0
858,192.58958333333334,192.84791666666666,56.0,95.0
859,193.08958333333334,193.1875,37.0,87.0
860,193.08958333333334,193.25208333333333,56.0,87.0
861,193.33958333333334,193.61458333333334,56.0,78.0
862,193.08958333333334,193.61666666666667,65.0,87.0
863,193.58958333333334,193.74583333333334,61.0,75.0
864,193.83958333333334,193.95833333333334,56.0,79.0
865,194.08958333333334,194.34791666666666,56.0,91.0
866,194.33958333333334,194.4375,49.0,85.0
867,194.08958333333334,194.59791666666666,61.0,95.0
868,194.08958333333334,194.68958333333333,65.0,97.0
869,194.58958333333334,194.925,56.0,86.0
870,194.83958333333334,194.99166666666667,61.0,87.0
871,195.08958333333334,195.26875,56.0,78.0
872,195.08958333333334,195.27291666666667,60.0,85.0
873,195.08958333333334,195.28958333333333,44.0,89.0
874,195.08958333333334,195.29375,63.0,84.0
875,195.33958333333334,195.49583333333334,44.0,91.0
876,195.33958333333334,195.50416666666666,60.0,91.0
877,195.33958333333334,195.50625,56.0,88.0
878,195.33958333333334,195.50833333333333,63.0,89.0
879,195.83958333333334,196.4125,56.0,88.0
880,195.83958333333334,196.57708333333332,68.0,87.0
881,195.83958333333334,196.6125,60.0,95.0
882,195.83958333333334,196.6375,63.0,91.0
883,196.58958333333334,196.75,56.0,83.0
884,195.83958333333334,196.86458333333334,44.0,90.0
885,196.33958333333334,196.8875,51.0,87.0
886,197.08958333333334,198.53541666666666,61.0,82.0
887,197.08958333333334,198.58541666666667,58.0,81.0
888,197.08958333333334,198.60625,46.0,87.0
889,199.08958333333334,199.93958333333333,60.0,81.0
890,199.08958333333334,199.95,56.0,80.0
891,199.83958333333334,199.99583333333334,63.0,81.0
892,200.08958333333334,200.42916666666667,68.0,86.0
893,199.58958333333334,200.43125,51.0,76.0
894,200.08958333333334,200.43125,63.0,87.0
895,200.08958333333334,200.45,60.0,90.0
896,200.08958333333334,200.47083333333333,56.0,86.0
897,199.08958333333334,200.50208333333333,44.0,87.0
898,201.08958333333334,202.27916666666667,58.0,78.0
899,201.08958333333334,202.2875,54.0,79.0
900,201.08958333333334,202.52083333333334,42.0,87.0
901,203.08958333333334,203.38958333333332,53.0,82.0
902,203.08958333333334,203.38958333333332,57.0,73.0
903,203.08958333333334,203.4,60.0,82.0
904,203.08958333333334,203.41666666666666,41.0,87.0
905,203.58958333333334,203.82291666666666,41.0,87.0
906,203.58958333333334,203.8625,57.0,84.0
907,203.58958333333334,203.87916666666666,60.0,83.0
908,203.58958333333334,203.88333333333333,53.0,86.0
909,204.08958333333334,204.28333333333333,41.0,91.0
910,204.08958333333334,204.32083333333333,65.0,87.0
911,204.08958333333334,204.32708333333332,57.0,88.0
912,204.08958333333334,204.33541666666667,53.0,87.0
913,204.08958333333334,204.33958333333334,60.0,87.0
914,204.58958333333334,204.7625,41.0,87.0
915,204.58958333333334,204.86249999999998,65.0,87.0
916,204.58958333333334,204.91041666666666,53.0,88.0
917,204.58958333333334,204.91875,57.0,87.0
918,204.58958333333334,204.93125,60.0,86.0
919,205.08958333333334,205.21875,53.0,87.0
920,205.08958333333334,205.22083333333333,41.0,87.0
921,205.08958333333334,205.22291666666666,65.0,87.0
922,205.33958333333334,205.45,53.0,83.0
923,205.33958333333334,205.45833333333334,57.0,74.0
924,205.33958333333334,205.4625,65.0,83.0
925,205.33958333333334,205.475,41.0,87.0
926,205.58958333333334,205.71041666666667,53.0,88.0
927,205.58958333333334,205.72291666666666,57.0,86.0
928,205.58958333333334,205.72291666666666,65.0,86.0
929,205.58958333333334,205.73749999999998,41.0,87.0
930,205.83958333333334,205.97916666666666,41.0,88.0
931,205.83958333333334,205.97916666666666,53.0,89.0
932,205.83958333333334,205.98333333333332,57.0,82.0
933,205.83958333333334,205.98749999999998,60.0,86.0
934,205.83958333333334,205.99375,65.0,88.0
935,206.08958333333334,206.20833333333334,57.0,92.0
936,206.08958333333334,206.21041666666667,53.0,91.0
937,206.08958333333334,206.21875,60.0,90.0
938,206.08958333333334,206.22083333333333,41.0,95.0
939,206.08958333333334,206.22083333333333,65.0,90.0
940,206.33958333333334,206.47083333333333,53.0,91.0
941,206.33958333333334,206.47291666666666,41.0,90.0
942,206.33958333333334,206.47291666666666,57.0,88.0
943,206.33958333333334,206.47916666666666,60.0,89.0
944,206.33958333333334,206.48749999999998,65.0,89.0
945,206.58958333333334,206.95624999999998,53.0,92.0
946,206.58958333333334,206.97291666666666,57.0,89.0
947,206.58958333333334,206.98125,65.0,88.0
948,206.58958333333334,206.98749999999998,60.0,87.0
949,206.58958333333334,207.01666666666665,41.0,95.0
950,207.08958333333334,207.28333333333333,56.0,87.0
951,207.33958333333334,207.61249999999998,56.0,82.0
952,207.08958333333334,207.66666666666666,61.0,85.0
953,208.08958333333334,208.20208333333332,56.0,92.0
954,207.08958333333334,208.24375,49.0,95.0
955,208.08958333333334,208.38541666666666,61.0,100.0
956,208.08958333333334,208.39791666666667,65.0,102.0
957,208.33958333333334,208.46666666666667,56.0,86.0
958,208.58958333333334,208.74166666666667,61.0,77.0
959,209.08958333333334,209.275,56.0,87.0
960,209.08958333333334,209.36666666666667,60.0,88.0
961,209.58958333333334,209.83333333333334,63.0,82.0
962,209.33958333333334,210.25625,51.0,74.0
963,209.08958333333334,210.49791666666667,44.0,88.0
964,210.08958333333334,210.52083333333334,56.0,91.0
965,210.08958333333334,210.53333333333333,60.0,95.0
966,210.58958333333334,210.65833333333333,51.0,87.0
967,210.08958333333334,210.68541666666667,68.0,86.0
968,211.08958333333334,211.23125,58.0,86.0
969,211.08958333333334,211.42916666666667,66.0,87.0
970,211.33958333333334,211.45416666666665,58.0,76.0
971,211.58958333333334,211.74166666666667,63.0,84.0
972,211.83958333333334,211.89791666666667,58.0,75.0
973,212.08958333333334,212.22083333333333,58.0,93.0
974,211.08958333333334,212.42916666666667,39.0,91.0
975,212.33958333333334,212.48541666666665,58.0,80.0
976,212.08958333333334,212.51874999999998,66.0,91.0
977,212.58958333333334,212.70833333333334,63.0,88.0
978,213.08958333333334,213.28333333333333,58.0,81.0
979,213.08958333333334,213.34791666666666,61.0,86.0
980,213.58958333333334,213.84791666666666,65.0,87.0
981,213.83958333333334,213.975,58.0,86.0
982,214.08958333333334,214.33333333333334,58.0,88.0
983,214.08958333333334,214.36041666666665,70.0,88.0
984,213.33958333333334,214.42499999999998,53.0,76.0
985,213.08958333333334,214.5375,46.0,87.0
986,214.33958333333334,214.61875,65.0,84.0
987,214.58958333333334,214.75625,58.0,87.0
988,215.08958333333334,215.22083333333333,56.0,85.0
989,215.08958333333334,215.36458333333334,61.0,83.0
990,215.33958333333334,215.48749999999998,56.0,84.0
991,215.58958333333334,215.70208333333332,61.0,72.0
992,215.83958333333334,215.95208333333332,56.0,86.0
993,216.08958333333334,216.27083333333334,56.0,89.0
994,215.08958333333334,216.35625,37.0,87.0
995,216.08958333333334,216.35625,65.0,89.0
996,216.33958333333334,216.50208333333333,61.0,86.0
997,216.58958333333334,216.7,56.0,86.0
998,217.08958333333334,217.34791666666666,56.0,83.0
999,217.08958333333334,217.48333333333332,63.0,84.0
1000,217.58958333333334,217.89791666666667,56.0,87.0
1001,217.83958333333334,218.125,63.0,83.0
1002,218.08958333333334,218.18958333333333,56.0,68.0
1003,218.08958333333334,218.38958333333332,68.0,88.0
1004,217.33958333333334,218.48333333333332,51.0,82.0
1005,217.08958333333334,218.55208333333334,44.0,87.0
1006,218.33958333333334,218.59583333333333,63.0,87.0
1007,218.58958333333334,218.70624999999998,56.0,91.0
1008,219.08958333333334,219.29999999999998,54.0,86.0
1009,219.08958333333334,219.53958333333333,58.0,81.0
1010,219.58958333333334,219.9,54.0,86.0
1011,219.83958333333334,220.13333333333333,61.0,83.0
1012,220.08958333333334,220.14166666666665,54.0,75.0
1013,219.33958333333334,220.47916666666666,49.0,76.0
1014,219.08958333333334,220.68958333333333,42.0,88.0
1015,220.58958333333334,220.80833333333334,49.0,81.0
1016,220.08958333333334,220.88333333333333,58.0,93.0
1017,220.83958333333334,220.96666666666667,54.0,91.0
1018,221.08958333333334,221.33541666666667,56.0,87.0
1019,221.08958333333334,221.45208333333332,60.0,88.0
1020,221.58958333333334,221.72291666666666,56.0,89.0
1021,221.83958333333334,221.93958333333333,56.0,86.0
1022,221.83958333333334,221.95416666666665,60.0,92.0
1023,221.33958333333334,222.14791666666667,51.0,83.0
1024,221.08958333333334,222.30416666666667,44.0,92.0
1025,222.08958333333334,222.33958333333334,56.0,93.0
1026,222.08958333333334,222.39583333333334,60.0,102.0
1027,222.08958333333334,222.41458333333333,63.0,100.0
1028,222.33958333333334,222.44375,51.0,95.0
1029,222.58958333333334,222.75,56.0,95.0
1030,223.08958333333334,223.18333333333334,37.0,87.0
1031,223.08958333333334,223.2,56.0,89.0
1032,223.08958333333334,223.3125,61.0,87.0
1033,223.33958333333334,223.48333333333332,56.0,79.0
1034,223.58958333333334,223.6875,61.0,75.0
1035,223.83958333333334,223.91666666666666,56.0,88.0
1036,224.08958333333334,224.24583333333334,56.0,93.0
1037,224.08958333333334,224.36666666666667,65.0,95.0
1038,224.33958333333334,224.59166666666667,56.0,78.0
1039,224.58958333333334,224.71458333333334,61.0,88.0
1040,224.83958333333334,224.95833333333334,56.0,81.0
1041,225.08958333333334,225.4,56.0,81.0
1042,225.08958333333334,225.56041666666667,63.0,87.0
1043,225.58958333333334,225.85833333333332,56.0,89.0
1044,225.83958333333334,226.13333333333333,63.0,86.0
1045,226.08958333333334,226.39374999999998,68.0,87.0
1046,225.33958333333334,226.575,51.0,82.0
1047,225.08958333333334,226.59791666666666,44.0,87.0
1048,226.33958333333334,226.66041666666666,63.0,88.0
1049,226.58958333333334,226.73958333333334,56.0,90.0
1050,227.08958333333334,227.27916666666667,58.0,79.0
1051,227.08958333333334,227.4625,63.0,85.0
1052,227.58958333333334,227.88958333333332,63.0,87.0
1053,227.83958333333334,227.95833333333334,58.0,87.0
1054,228.08958333333334,228.27708333333334,58.0,87.0
1055,228.08958333333334,228.45,66.0,87.0
1056,227.33958333333334,228.4625,46.0,81.0
1057,227.08958333333334,228.52083333333334,39.0,89.0
1058,228.58958333333334,228.88333333333333,58.0,93.0
1059,229.08958333333334,229.33124999999998,58.0,81.0
1060,229.08958333333334,229.41458333333333,61.0,84.0
1061,229.58958333333334,229.93541666666667,58.0,81.0
1062,229.83958333333334,230.08958333333334,65.0,87.0
1063,230.08958333333334,230.15208333333334,58.0,69.0
1064,230.08958333333334,230.37083333333334,70.0,88.0
1065,229.33958333333334,230.41875,53.0,77.0
1066,229.08958333333334,230.53333333333333,46.0,88.0
1067,230.33958333333334,230.6375,65.0,88.0
1068,230.58958333333334,230.7,58.0,92.0
1069,231.08958333333334,231.57708333333332,54.0,80.0
1070,231.08958333333334,231.63958333333332,58.0,82.0
1071,231.58958333333334,231.92916666666667,61.0,84.0
1072,231.83958333333334,232.08124999999998,54.0,81.0
1073,232.08958333333334,232.13541666666666,61.0,48.0
1074,231.33958333333334,232.48541666666665,49.0,79.0
1075,231.08958333333334,232.5625,42.0,87.0
1076,232.33958333333334,232.63333333333333,54.0,88.0
1077,232.08958333333334,232.65,66.0,89.0
1078,232.58958333333334,232.73541666666665,61.0,82.0
1079,233.08958333333334,233.59375,56.0,83.0
1080,233.08958333333334,233.625,60.0,83.0
1081,233.58958333333334,233.91875,63.0,84.0
1082,233.83958333333334,234.1625,56.0,87.0
1083,234.08958333333334,234.43333333333334,68.0,87.0
1084,234.33958333333334,234.5875,63.0,73.0
1085,233.33958333333334,234.61875,51.0,86.0
1086,233.08958333333334,234.6375,44.0,88.0
1087,234.58958333333334,234.71666666666667,56.0,86.0
1088,235.08958333333334,235.39791666666667,58.0,83.0
1089,235.08958333333334,235.40416666666667,61.0,86.0
1090,235.58958333333334,235.77708333333334,65.0,78.0
1091,235.58958333333334,235.78333333333333,58.0,75.0
1092,236.08958333333334,236.20416666666665,58.0,91.0
1093,236.08958333333334,236.225,70.0,88.0
1094,236.33958333333334,236.47083333333333,65.0,88.0
1095,236.58958333333334,236.68333333333334,58.0,86.0
1096,235.08958333333334,236.83333333333334,46.0,87.0
1097,237.08958333333334,237.3375,58.0,83.0
1098,237.08958333333334,237.36666666666667,61.0,87.0
1099,237.58958333333334,237.68333333333334,58.0,85.0
1100,237.33958333333334,237.89791666666667,53.0,82.0
1101,237.08958333333334,237.96666666666667,46.0,91.0
1102,237.83958333333334,238.16041666666666,61.0,97.0
1103,237.83958333333334,238.16875,58.0,88.0
1104,237.83958333333334,238.17291666666665,65.0,92.0
1105,238.08958333333334,238.2125,53.0,92.0
1106,238.33958333333334,238.47916666666666,58.0,90.0
1107,238.33958333333334,238.60833333333332,61.0,97.0
1108,238.33958333333334,238.64166666666665,65.0,97.0
1109,238.83958333333334,238.95833333333334,58.0,87.0
1110,238.58958333333334,238.97708333333333,46.0,87.0
1111,239.05416666666667,239.64166666666665,66.0,86.0
1112,238.98125,239.69791666666666,58.0,58.0
1113,239.01041666666666,239.71875,61.0,79.0
1114,239.51041666666666,240.24791666666667,49.0,74.0
1115,240.04375,240.29999999999998,61.0,92.0
1116,239.06458333333333,240.30416666666667,42.0,89.0
1117,240.04999999999998,240.325,58.0,87.0
1118,240.04166666666666,240.37708333333333,66.0,87.0
1119,240.90416666666667,241.77916666666667,56.0,72.0
1120,241.01041666666666,241.79791666666665,63.0,81.0
1121,240.95208333333332,241.80833333333334,60.0,81.0
1122,241.99166666666667,242.5125,56.0,87.0
1123,241.99375,242.52708333333334,60.0,88.0
1124,241.99583333333334,242.55833333333334,63.0,91.0
1125,241.01666666666665,242.57916666666665,44.0,88.0
1126,243.08958333333334,243.62708333333333,58.0,86.0
1127,243.08958333333334,243.65,61.0,86.0
1128,243.58958333333334,244.29375,53.0,80.0
1129,243.08958333333334,244.45208333333332,46.0,91.0
1130,244.08958333333334,244.59166666666667,58.0,86.0
1131,244.08958333333334,244.65625,70.0,86.0
1132,244.08958333333334,244.67291666666665,61.0,102.0
1133,244.08958333333334,244.6875,65.0,93.0
1134,244.58958333333334,244.76666666666665,53.0,87.0
1135,244.83958333333334,244.97083333333333,58.0,87.0
1136,244.83958333333334,245.0125,53.0,50.0
1137,245.08958333333334,245.68333333333334,60.0,88.0
1138,245.08958333333334,245.86249999999998,56.0,88.0
1139,245.58958333333334,246.38958333333332,51.0,77.0
1140,245.08958333333334,246.44791666666666,44.0,87.0
1141,246.08958333333334,246.91875,63.0,92.0
1142,246.08958333333334,246.92083333333332,60.0,95.0
1143,246.08958333333334,246.92499999999998,56.0,88.0
1144,247.08958333333334,247.69583333333333,60.0,90.0
1145,247.08958333333334,247.71458333333334,63.0,88.0
1146,247.08958333333334,247.77291666666667,56.0,87.0
1147,247.58958333333334,248.15416666666667,51.0,74.0
1148,248.08958333333334,248.35208333333333,56.0,93.0
1149,248.08958333333334,248.35625,60.0,97.0
1150,248.08958333333334,248.35833333333332,63.0,95.0
1151,247.08958333333334,248.65833333333333,44.0,86.0
1152,248.33958333333334,248.67083333333332,51.0,87.0
1153,248.58958333333334,248.70624999999998,61.0,97.0
1154,248.83958333333334,249.05833333333334,60.0,100.0
1155,249.08958333333334,249.62708333333333,58.0,95.0
1156,249.58958333333334,249.9,61.0,88.0
1157,249.83958333333334,249.975,58.0,87.0
1158,249.33958333333334,250.20624999999998,53.0,86.0
1159,250.08958333333334,250.29583333333332,58.0,91.0
1160,250.08958333333334,250.29791666666665,63.0,89.0
1161,250.08958333333334,250.32708333333332,65.0,89.0
1162,250.08958333333334,250.38125,61.0,102.0
1163,249.08958333333334,250.66458333333333,46.0,88.0
1164,250.33958333333334,250.77708333333334,53.0,91.0
1165,250.58958333333334,250.85,70.0,88.0
1166,250.58958333333334,250.88333333333333,65.0,95.0
1167,250.58958333333334,250.91041666666666,61.0,93.0
1168,250.83958333333334,250.93333333333334,58.0,84.0
1169,251.08958333333334,251.29166666666666,56.0,88.0
1170,251.08958333333334,251.66041666666666,61.0,87.0
1171,251.58958333333334,251.84166666666667,56.0,87.0
1172,251.08958333333334,252.24166666666667,49.0,89.0
1173,252.08958333333334,252.43541666666667,56.0,92.0
1174,252.33958333333334,252.44791666666666,49.0,87.0
1175,252.08958333333334,252.50208333333333,65.0,93.0
1176,252.58958333333334,252.85625,63.0,90.0
1177,252.83958333333334,252.99375,61.0,84.0
1178,253.08958333333334,253.50208333333333,63.0,80.0
1179,253.58958333333334,253.92499999999998,56.0,87.0
1180,253.33958333333334,254.17499999999998,51.0,81.0
1181,254.08958333333334,254.39583333333334,56.0,89.0
1182,254.08958333333334,254.59583333333333,68.0,86.0
1183,254.08958333333334,254.64791666666667,63.0,93.0
1184,254.33958333333334,254.78333333333333,51.0,81.0
1185,253.08958333333334,254.85416666666666,44.0,87.0
1186,254.58958333333334,254.91875,56.0,91.0
1187,255.08958333333334,255.72083333333333,60.0,83.0
1188,255.08958333333334,255.80208333333334,56.0,86.0
1189,255.58958333333334,256.1875,51.0,82.0
1190,255.08958333333334,256.4458333333333,44.0,89.0
1191,256.08958333333334,256.52916666666664,56.0,87.0
1192,256.08958333333334,256.5395833333333,60.0,95.0
1193,256.08958333333334,256.6041666666667,63.0,89.0
1194,256.58958333333334,256.69375,51.0,83.0
1195,256.9770833333333,260.3541666666667,58.0,73.0
1196,257.0833333333333,260.3541666666667,61.0,76.0
1197,257.07708333333335,260.35625,46.0,86.0
1198,257.16875,260.35625,65.0,79.0
1199,257.2291666666667,260.3645833333333,70.0,63.0
