,start,end,pitch,velocity
0,36.95768426666667,37.37589295,62.0,70.0
1,37.3830358,37.80446395,64.0,64.0
2,37.8116068,38.233034950000004,67.0,57.0
3,38.2401778,38.66160595,67.0,59.0
4,38.6687488,39.09017695,67.0,72.0
5,39.0973198,39.30446245,64.0,63.0
6,39.311605300000004,40.37588995,69.0,48.0
7,40.3830328,40.801744525,64.0,66.0
8,40.808786766666664,41.224279025,62.0,64.0
9,41.23132126666667,41.646813525,71.0,66.0
10,41.653855766666666,42.069348025,71.0,64.0
11,42.076390266666664,42.491882525,69.0,62.0
12,42.49892476666667,42.703149775,69.0,72.0
13,42.71019201666667,44.182020525,67.0,56.0
14,44.189062766666666,44.604555024999996,62.0,59.0
15,44.611597266666664,45.027089525,74.0,67.0
16,45.03413176666667,45.449624025,74.0,91.0
17,45.456666266666666,45.872158525,74.0,82.0
18,45.87920076666666,46.294693025,71.0,82.0
19,46.30173526666667,47.186177975,76.0,76.0
20,47.19375373333334,47.837585775,74.0,75.0
21,47.84462801666667,48.048853025,76.0,85.0
22,48.05589526666667,48.471387525,74.0,88.0
23,48.478429766666665,50.584060025,71.0,91.0
24,50.59110226666667,51.006594525,64.0,73.0
25,51.013636766666664,51.429129024999995,67.0,69.0
26,51.43617126666666,51.851663525,69.0,70.0
27,51.85870576666667,52.274198025,69.0,80.0
28,52.281240266666664,52.696732525,67.0,76.0
29,52.70377476666666,53.964336024999994,69.0,88.0
30,53.97137826666666,54.386870525,69.0,85.0
31,54.393912766666666,54.809405025,67.0,53.0
32,54.816447266666664,55.231939525,71.0,60.0
33,55.23898176666667,55.654474025,69.0,82.0
34,55.661516266666666,56.077008525,67.0,69.0
35,56.084050766666664,56.288275775,67.0,72.0
36,56.29531801666666,57.767146525,64.0,72.0
37,57.77418876666667,58.189681025,62.0,88.0
38,58.196723266666666,58.612215524999996,74.0,60.0
39,58.619257766666664,60.302353525,71.0,69.0
40,60.30939576666667,60.724888025,71.0,69.0
41,60.731930266666666,61.569957024999994,71.0,64.0
42,61.57699926666666,61.992491525,71.0,75.0
43,61.999533766666666,64.105164025,69.0,80.0
44,64.11220626666666,64.527698525,62.0,70.0
45,64.53474076666666,64.950233025,64.0,64.0
46,64.95727526666667,65.372767525,67.0,57.0
47,65.37980976666667,65.795302025,67.0,59.0
48,65.80234426666667,66.22055295,67.0,72.0
49,66.22769579999999,66.43483844999999,64.0,63.0
50,66.4419813,67.52454319999998,69.0,48.0
51,67.53189613333332,67.95733052499999,64.0,66.0
52,67.96437276666666,68.37986502499999,62.0,64.0
53,68.38690726666665,68.80239952499998,71.0,66.0
54,68.80944176666665,69.22493402499998,71.0,64.0
55,69.23197626666665,69.64746852499998,69.0,62.0
56,69.65451076666665,69.85873577499999,69.0,72.0
57,69.86577801666665,71.33760652499998,67.0,56.0
58,71.34464876666665,71.76014102499998,62.0,59.0
59,71.76718326666665,72.18267552499998,74.0,67.0
60,72.18971776666665,72.60521002499999,74.0,91.0
61,72.61225226666666,73.02774452499999,74.0,82.0
62,73.03478676666666,73.45027902499999,71.0,82.0
63,73.45732126666665,74.29534802499998,76.0,76.0
64,74.30239026666665,74.92914977499998,74.0,75.0
65,74.93619201666665,75.14041702499999,76.0,85.0
66,75.14745926666666,75.56295152499999,74.0,88.0
67,75.56999376666666,77.67562402499999,71.0,91.0
68,77.68266626666666,78.09815852499999,64.0,73.0
69,78.10520076666666,78.52069302499999,67.0,69.0
70,78.52773526666665,78.94322752499998,69.0,70.0
71,78.95026976666665,79.36576202499998,69.0,80.0
72,79.37280426666665,79.79668519999998,67.0,76.0
73,79.80403813333332,81.09318302499999,69.0,88.0
74,81.10022526666665,81.51571752499999,69.0,85.0
75,81.52275976666665,81.93825202499998,67.0,53.0
76,81.94529426666665,82.36078652499998,71.0,60.0
77,82.36782876666665,82.78332102499999,69.0,82.0
78,82.79036326666666,83.20585552499999,67.0,69.0
79,83.21289776666666,83.41712277499998,67.0,72.0
80,83.42416501666665,84.89599352499998,64.0,72.0
81,84.90303576666665,85.31852802499999,62.0,88.0
82,85.32557026666666,85.74106252499999,74.0,60.0
83,85.74810476666666,87.43120052499998,71.0,69.0
84,87.43824276666665,87.85373502499999,69.0,97.0
85,87.86077726666666,88.27626952499999,67.0,93.0
86,88.28331176666666,88.69880402499999,64.0,88.0
87,88.70584626666665,91.23401102499999,67.0,99.0
88,91.24105326666665,91.65654552499998,67.0,103.0
89,91.66358776666665,92.07908002499998,69.0,99.0
90,92.08612226666665,94.66327702499999,71.0,106.0
91,94.67031926666665,95.08581152499998,69.0,101.0
92,95.09285376666665,95.50834602499998,67.0,95.0
93,95.51538826666665,95.93088052499998,69.0,103.0
94,95.93792276666665,98.04355302499998,64.0,99.0
95,98.05059526666665,98.46608752499998,67.0,91.0
96,98.47312976666664,98.88862202499999,69.0,91.0
97,98.89566426666666,99.73369102499998,71.0,101.0
98,99.74073326666665,100.36749277499999,71.0,99.0
99,100.37453501666666,100.57876002499998,74.0,101.0
100,100.58580226666665,101.00129452499998,76.0,99.0
101,101.00833676666664,101.42382902499999,76.0,101.0
102,101.43087126666666,101.84636352499999,74.0,93.0
103,101.85340576666665,102.26889802499998,71.0,101.0
104,102.27594026666665,104.80410502499998,74.0,109.0
105,104.81114726666665,105.22663952499998,74.0,103.0
106,105.23368176666665,105.64917402499998,71.0,93.0
107,105.65621626666665,106.07170852499999,76.0,109.0
108,106.07875076666664,106.49424302499999,74.0,106.0
109,106.50128526666666,106.91677752499999,69.0,101.0
110,106.92381976666665,108.19313394999998,71.0,101.0
111,108.20027679999998,108.61898852499998,69.0,93.0
112,108.62603076666664,109.04152302499998,67.0,93.0
113,109.04856526666664,109.46405752499997,71.0,91.0
114,109.47109976666664,109.88659202499997,69.0,97.0
115,109.89363426666664,110.30912652499997,67.0,91.0
116,110.31616876666664,112.01405394999998,64.0,95.0
117,112.02119679999997,112.44262494999997,62.0,82.0
118,112.44976779999998,112.87119594999997,74.0,80.0
119,112.87833879999998,114.58547994999998,71.0,88.0
120,114.59262279999997,115.01405094999997,71.0,66.0
121,115.02119379999998,115.87119294999998,69.0,91.0
122,115.87833579999997,116.29976394999997,69.0,88.0
123,118.44976179999998,118.87118994999997,62.0,70.0
124,118.87833279999998,119.29976094999998,64.0,64.0
125,116.30690679999998,119.29976094999998,67.0,95.0
126,119.30690379999997,119.72297469999998,67.0,57.0
127,119.72991913333331,120.13964069999997,67.0,59.0
128,120.1465851333333,120.55630669999998,67.0,72.0
129,120.56325113333331,120.76463969999998,64.0,63.0
130,120.7715841333333,121.81481402499998,69.0,48.0
131,121.82185626666664,122.23734852499997,64.0,66.0
132,122.24439076666664,122.65988302499997,62.0,64.0
133,122.66692526666664,123.08241752499997,71.0,66.0
134,123.08945976666664,123.50495202499998,71.0,64.0
135,123.51199426666665,123.92748652499998,69.0,62.0
136,123.93452876666665,124.13875377499997,69.0,72.0
137,124.14579601666664,125.61762452499997,67.0,56.0
138,125.62466676666664,126.04015902499998,62.0,59.0
139,126.04720126666665,126.46269352499998,74.0,67.0
140,126.46973576666664,126.88522802499998,74.0,91.0
141,126.89227026666664,127.30776252499997,74.0,82.0
142,127.31480476666664,127.73029702499997,71.0,82.0
143,127.73733926666664,128.57536602499997,76.0,76.0
144,128.58240826666665,129.20916777499997,74.0,75.0
145,129.21621001666665,129.42043502499996,76.0,85.0
146,129.42747726666664,129.84296952499997,74.0,88.0
147,129.85001176666665,131.95564202499997,71.0,91.0
148,131.96268426666663,132.378176525,64.0,73.0
149,132.38521876666664,132.80071102499997,67.0,69.0
150,132.80775326666665,133.22324552499998,69.0,70.0
151,133.23028776666663,133.64578002499997,69.0,80.0
152,133.65282226666665,134.06831452499998,67.0,76.0
153,134.07535676666663,135.34467094999997,69.0,88.0
154,135.35181379999997,135.77324194999997,69.0,85.0
155,135.78038479999998,136.20181294999998,67.0,53.0
156,136.20895579999996,136.63038394999998,71.0,60.0
157,136.63752679999996,137.05895494999996,69.0,82.0
158,137.06609779999997,137.48480952499997,67.0,69.0
159,137.49185176666663,137.69607677499997,67.0,72.0
160,137.70311901666665,139.17766394999995,64.0,72.0
161,139.18480679999996,139.60623494999996,62.0,88.0
162,139.61337779999997,140.03480594999996,74.0,60.0
163,140.04194879999997,141.74908994999996,71.0,69.0
164,141.75623279999996,142.17766094999996,69.0,97.0
165,142.18480379999997,142.60623194999997,67.0,93.0
166,142.61337479999997,143.03480294999997,64.0,88.0
167,143.04194579999995,145.60622894999997,67.0,99.0
168,172.72203479999996,173.13810569999995,67.0,103.0
169,173.14505013333329,173.55477169999997,69.0,99.0
170,173.5617161333333,176.0810359,71.0,106.0
171,176.08828226666665,176.50766569999996,69.0,101.0
172,176.5146101333333,176.92433169999998,67.0,95.0
173,176.9312761333333,177.35202719999998,69.0,103.0
174,177.35938013333333,179.47334769999998,64.0,99.0
175,179.4802921333333,179.89001369999997,67.0,91.0
176,179.89695813333333,180.3066797,69.0,91.0
177,180.31362413333332,181.15727395,71.0,101.0
178,181.1644168,181.7888207,71.0,99.0
179,181.79576513333333,181.9971537,74.0,101.0
180,182.00409813333334,182.4248492,76.0,99.0
181,182.43220213333336,182.86602520000002,76.0,101.0
182,182.87337813333335,183.2961717,74.0,93.0
183,183.30311613333333,183.71283770000002,71.0,101.0
184,183.71978213333335,186.27911595000003,74.0,109.0
185,186.28625880000004,186.70232970000004,74.0,103.0
186,186.70927413333337,187.11899570000006,71.0,93.0
187,187.1259401333334,187.53566170000005,76.0,109.0
188,187.54260613333338,187.95232770000004,74.0,106.0
189,187.95927213333337,188.37714590000004,69.0,101.0
190,188.3843922666667,189.68149190000005,71.0,101.0
191,189.68873826666672,190.10812170000003,69.0,93.0
192,190.11506613333336,190.52478770000005,67.0,93.0
193,190.53173213333338,190.94145370000004,71.0,91.0
194,190.94839813333337,191.35811970000003,69.0,97.0
195,191.36506413333336,191.77478570000002,67.0,91.0
196,191.78173013333338,193.47768170000003,64.0,95.0
197,193.48462613333336,193.89434770000005,62.0,82.0
198,193.90129213333338,194.31637095000005,74.0,80.0
199,194.32351380000006,196.0216803250001,71.0,88.0
200,196.02937263333342,196.48321882500008,71.0,66.0
201,196.4909111333334,197.3412307000001,69.0,91.0
202,197.34817513333343,197.7578967000001,69.0,88.0
203,197.76484113333342,199.8481711333334,67.0,95.0
204,199.8481711333334,200.43110692500008,63.0,56.0
205,200.27039280000008,200.85967792500008,65.0,56.0
206,200.6989638000001,201.12039195000008,68.0,57.0
207,201.1275348000001,201.5489629500001,68.0,59.0
208,201.55610580000007,201.9775339500001,68.0,72.0
209,201.98467680000007,202.19181945000008,65.0,63.0
210,202.1989623000001,203.26324695000008,70.0,48.0
211,203.2703898000001,203.6918179500001,65.0,66.0
212,203.6989608000001,204.1203889500001,63.0,64.0
213,204.12753180000007,204.54895995000007,72.0,66.0
214,204.55610280000008,204.97753095000007,72.0,64.0
215,204.98467380000008,205.40610195000008,70.0,62.0
216,205.4132448000001,205.6203874500001,70.0,72.0
217,205.62753030000007,207.1124603250001,68.0,56.0
218,207.11930963333342,207.52341882500008,63.0,59.0
219,207.5302681333334,207.93694570000008,75.0,67.0
220,207.9438901333334,208.3536117000001,75.0,91.0
221,208.36055613333343,208.7756349500001,75.0,82.0
222,208.7827778000001,209.2042059500001,72.0,82.0
223,209.2113488000001,210.0613479500001,77.0,76.0
224,210.0684908000001,210.6874725750001,75.0,75.0
225,210.69432188333343,210.8929518250001,77.0,85.0
226,210.89980113333343,211.3039103250001,75.0,88.0
227,211.31075963333342,213.4194659500001,72.0,91.0
228,213.42660880000008,213.8480369500001,65.0,73.0
229,213.8551798000001,214.27660795000008,68.0,69.0
230,214.2837508000001,214.7051789500001,70.0,70.0
231,214.7123218000001,215.1337499500001,70.0,80.0
232,215.1408928000001,215.5623209500001,68.0,76.0
233,215.5694638000001,216.8066060000001,70.0,88.0
234,216.81327266666676,217.2194629500001,70.0,85.0
235,217.2266058000001,217.6480339500001,68.0,53.0
236,217.6551768000001,218.0766049500001,72.0,60.0
237,218.0837478000001,218.5051759500001,70.0,82.0
238,218.5123188000001,218.9337469500001,68.0,69.0
239,218.9408898000001,219.1480324500001,68.0,72.0
240,219.1551753000001,220.6480309500001,65.0,72.0
241,220.6551738000001,221.0766019500001,63.0,88.0
242,221.0837448000001,221.5051729500001,75.0,60.0
243,221.5123158000001,223.2115313250001,72.0,69.0
244,223.21838063333342,223.6224898250001,72.0,97.0
245,223.62933913333342,224.0413739500001,72.0,93.0
246,224.0485168000001,224.4699449500001,72.0,88.0
247,224.4770878000001,227.0002987000001,70.0,99.0
248,227.00724313333342,227.58015888333344,63.0,56.0
249,227.42390913333344,227.99682488333343,65.0,56.0
250,227.84057513333343,228.2477283250001,68.0,57.0
251,228.25457763333344,228.6586868250001,68.0,59.0
252,228.66553613333343,229.07485452500012,68.0,72.0
253,229.08189676666677,229.2861217750001,65.0,63.0
254,229.2931640166668,230.34245802500013,70.0,48.0
255,230.34950026666678,230.7733812000001,65.0,66.0
256,230.78073413333345,231.21455720000012,63.0,64.0
257,231.22191013333344,231.6557332000001,72.0,66.0
258,231.66308613333345,232.0969092000001,72.0,64.0
259,232.10426213333344,232.5380852000001,70.0,62.0
260,232.54543813333345,232.75867320000012,70.0,72.0
261,232.76602613333344,234.2070339000001,68.0,56.0
262,234.21428026666678,234.64181590000013,63.0,59.0
263,234.6490622666668,235.0585776500001,75.0,67.0
264,235.0651566000001,235.4533146500001,75.0,91.0
265,235.4598936000001,235.86607190000012,75.0,82.0
266,235.8733182666668,236.30085390000013,72.0,82.0
267,236.3081002666668,237.17041790000013,77.0,76.0
268,237.1776642666668,237.8225909000001,75.0,75.0
269,237.8298372666668,238.03998190000013,77.0,85.0
270,238.0472282666668,238.4747639000001,75.0,88.0
271,238.48201026666678,240.61412982500013,72.0,91.0
272,240.62097913333346,241.02508832500013,65.0,73.0
273,241.03193763333346,241.43604682500015,68.0,69.0
274,241.44289613333348,241.84700532500014,70.0,70.0
275,241.85385463333347,242.25796382500013,70.0,80.0
276,242.26481313333346,242.66892232500012,68.0,76.0
277,242.67577163333345,243.90179782500013,70.0,88.0
278,243.90864713333346,244.32347690000014,70.0,85.0
279,244.3307232666668,244.75825890000016,68.0,53.0
280,244.76550526666682,245.19304090000014,72.0,60.0
281,245.2002872666668,245.62782290000015,70.0,82.0
282,245.63506926666682,246.06260490000014,68.0,69.0
283,246.0698512666668,246.27999590000013,68.0,72.0
284,246.28724226666682,247.78307845000012,65.0,72.0
285,247.79054113333348,248.23083945000013,63.0,88.0
286,248.23830213333346,248.65954047500014,75.0,60.0
287,248.66629723333347,250.30875070000013,72.0,69.0
288,250.31569513333346,250.72541670000012,70.0,97.0
289,250.73236113333346,251.14208270000012,68.0,93.0
290,251.14902713333348,251.55874870000014,65.0,88.0
291,251.56569313333347,254.16602245000013,68.0,99.0
