,start,end,pitch,velocity
0,0.8309845166666666,0.9999983166666666,67.0,41.0
1,1.0422517666666666,1.3010541479166666,74.0,48.0
2,1.2535190166666668,1.8679546020833333,79.0,57.0
3,1.6760535166666666,1.9031658104166667,67.0,42.0
4,0.6197172666666667,2.091545775,55.0,51.0
5,1.8873207666666667,2.1320386645833334,74.0,51.0
6,2.0985880166666666,2.6302772625,79.0,66.0
7,2.521122516666667,2.6954179979166666,67.0,39.0
8,2.3098552666666667,2.9436570166666667,55.0,48.0
9,2.7323897666666666,3.0246427958333335,74.0,40.0
10,2.9436570166666667,3.4330928125,79.0,63.0
11,3.3661915166666665,3.6461206229166665,67.0,58.0
12,3.154924266666667,3.8063316208333333,55.0,46.0
13,3.5774587666666666,3.8309794666666668,74.0,63.0
14,3.7887260166666668,4.408443283333333,79.0,69.0
15,4.211260516666667,4.512316347916666,67.0,42.0
16,4.422527766666667,4.702456872916667,74.0,41.0
17,3.9999932666666664,4.70597799375,55.0,61.0
18,4.633795016666666,5.16020258125,79.0,62.0
19,5.056329516666667,5.272878447916667,67.0,43.0
20,4.845062266666667,5.4964696208333335,55.0,47.0
21,5.267596766666666,5.501751302083333,74.0,44.0
22,5.478864016666667,5.964778691666667,79.0,63.0
23,5.901398516666666,6.154919216666666,67.0,48.0
24,5.690131266666667,6.294003489583333,55.0,46.0
25,6.112665766666667,6.318651335416667,74.0,57.0
26,6.3239330166666665,6.424284960416666,67.0,28.0
27,6.3239330166666665,6.838016658333333,79.0,73.0
28,6.746467516666667,7.01935438125,67.0,60.0
29,6.535200266666666,7.0457627875,55.0,91.0
30,0.6197172666666667,7.07217119375,43.0,46.0
31,6.9577347666666665,7.1936498625,74.0,66.0
32,7.169002016666667,7.329213014583333,79.0,76.0
33,7.380269266666667,7.635550527083334,60.0,75.0
34,7.380269266666667,7.6989307020833335,65.0,75.0
35,7.380269266666667,8.029916060416667,57.0,59.0
36,7.802803766666667,8.110901839583333,60.0,53.0
37,8.014071016666666,8.304563485416667,65.0,73.0
38,8.225338266666666,8.468295604166666,57.0,50.0
39,8.436605516666667,8.51935185625,60.0,40.0
40,8.647872766666667,8.77287255625,69.0,54.0
41,7.380269266666667,8.927801872916666,53.0,51.0
42,8.859140016666666,9.040477739583332,60.0,38.0
43,9.070407266666667,9.292237879166667,65.0,58.0
44,9.281674516666667,9.429561591666667,69.0,69.0
45,9.492941766666666,9.730617422916666,60.0,52.0
46,9.704209016666667,9.952448035416667,65.0,60.0
47,7.380269266666667,9.985898683333334,41.0,63.0
48,9.915476266666667,10.091532308333333,69.0,63.0
49,9.915476266666667,10.15667304375,53.0,44.0
50,10.126743516666666,10.345053008333334,60.0,51.0
51,10.338010766666667,10.640827158333334,65.0,59.0
52,10.549278016666667,10.772869189583334,69.0,51.0
53,10.760545266666666,11.02286876875,71.0,57.0
54,10.971812516666667,11.251741622916667,62.0,49.0
55,10.760545266666666,11.2922345125,55.0,48.0
56,11.183079766666667,11.417234302083333,67.0,52.0
57,11.394347016666666,11.67779724375,71.0,72.0
58,11.605614266666667,11.927796822916667,62.0,44.0
59,11.816881516666667,12.0316698875,67.0,47.0
60,12.028148766666666,12.329204597916666,71.0,73.0
61,11.394347016666666,12.394345333333334,55.0,59.0
62,12.239416016666667,12.529908485416666,62.0,44.0
63,12.450683266666667,12.695401164583334,67.0,61.0
64,12.661950516666666,12.867936085416666,69.0,56.0
65,10.760545266666666,12.926034579166666,43.0,59.0
66,12.873217766666667,13.200682004166666,62.0,44.0
67,13.084485016666667,13.285188904166667,67.0,61.0
68,13.295752266666666,13.52638568125,71.0,69.0
69,12.450683266666667,13.720047327083334,50.0,64.0
70,13.507019516666666,13.757019095833334,62.0,57.0
71,13.718286766666667,13.855610479166666,55.0,53.0
72,13.718286766666667,13.936596258333333,67.0,63.0
73,13.929554016666666,14.049272125,71.0,62.0
74,14.140821266666666,14.411947570833334,69.0,56.0
75,14.352088516666667,14.668989391666667,60.0,51.0
76,14.563355766666666,14.797510302083333,65.0,57.0
77,14.774623016666666,14.933073454166667,67.0,66.0
78,14.985890266666667,15.18483359375,60.0,50.0
79,15.197157516666666,15.383776920833332,65.0,52.0
80,15.408424766666666,15.609128654166666,69.0,66.0
81,15.619692016666667,15.87145215625,60.0,43.0
82,15.830959266666667,15.999973066666666,67.0,56.0
83,16.042226516666666,16.214761437499998,60.0,47.0
84,16.253493766666665,16.38905691875,65.0,58.0
85,16.464761016666667,16.65314098125,67.0,51.0
86,14.140821266666666,16.665464904166665,53.0,63.0
87,16.676028266666666,16.848563187499998,69.0,72.0
88,16.042226516666666,16.977084097916666,41.0,57.0
89,16.887295516666665,17.047506514583333,60.0,53.0
90,16.887295516666665,17.135534535416667,53.0,39.0
91,17.098562766666667,17.336238422916665,67.0,50.0
92,17.309830016666666,17.50877334375,69.0,66.0
93,17.521097266666665,17.785181329166665,71.0,67.0
94,17.732364516666667,17.88905439375,62.0,46.0
95,17.943631766666666,18.140814533333334,67.0,59.0
96,18.154899016666665,18.3063072125,69.0,66.0
97,18.366166266666667,18.656658735416666,62.0,51.0
98,18.577433516666666,18.778137404166667,67.0,59.0
99,18.788700766666665,18.991165214583333,71.0,72.0
100,18.999968016666667,19.290460485416666,62.0,44.0
101,19.211235266666666,19.47355876875,67.0,62.0
102,19.633769766666667,19.883769345833333,62.0,37.0
103,17.521097266666665,19.98588185,55.0,56.0
104,19.42250251666667,20.01229025625,74.0,72.0
105,19.845037016666666,20.073909870833333,67.0,49.0
106,20.056304266666668,20.311585527083334,71.0,72.0
107,20.267571516666667,20.5351767,62.0,47.0
108,17.521097266666665,20.547500622916665,43.0,52.0
109,20.478838766666666,20.748204510416667,67.0,62.0
110,20.690106016666668,20.878485981249998,69.0,59.0
111,20.901373266666667,21.093274352083334,71.0,61.0
112,21.112640516666666,21.413696347916666,64.0,49.0
113,21.323907766666668,21.547498939583335,67.0,62.0
114,21.535175016666667,21.71299161875,71.0,52.0
115,21.746442266666666,22.01932913125,64.0,50.0
116,21.957709516666668,22.18306125,67.0,58.0
117,22.168976766666667,22.327427204166668,71.0,44.0
118,20.901373266666667,22.33623000625,52.0,47.0
119,22.380244016666666,22.660173122916667,64.0,55.0
120,22.591511266666668,22.81158131875,67.0,63.0
121,22.802778516666667,22.977073997916666,71.0,61.0
122,23.014045766666666,23.26580590625,64.0,49.0
123,23.225313016666668,23.459467552083332,67.0,60.0
124,23.436580266666667,23.63552359375,71.0,57.0
125,23.436580266666667,23.758762822916665,52.0,61.0
126,20.901373266666667,23.832706360416665,40.0,70.0
127,23.647847516666666,23.852072525,64.0,56.0
128,23.859114766666668,24.109114345833333,67.0,67.0
129,24.070382016666667,24.26932534375,69.0,57.0
130,24.281649266666665,24.508761560416666,71.0,53.0
131,24.492916516666668,24.862634204166667,62.0,49.0
132,24.704183766666667,24.927774939583333,66.0,66.0
133,24.915451016666665,25.084464816666667,69.0,57.0
134,25.126718266666668,25.417210735416667,62.0,45.0
135,25.337985516666667,25.614393502083335,66.0,59.0
136,25.549252766666665,25.83270299375,74.0,62.0
137,25.760520016666668,26.061575847916668,62.0,46.0
138,25.971787266666666,26.248195252083335,66.0,60.0
139,26.183054516666665,26.42425129375,69.0,57.0
140,24.281649266666665,26.605589016666666,50.0,62.0
141,26.394321766666668,26.727067685416667,62.0,45.0
142,26.605589016666666,26.92072933125,66.0,61.0
143,26.816856266666665,27.082700889583332,74.0,66.0
144,27.028123516666668,27.25347525,50.0,47.0
145,24.281649266666665,27.2957287,38.0,56.0
146,27.028123516666668,27.309813183333333,62.0,54.0
147,27.239390766666666,27.487629785416665,66.0,62.0
148,27.450658016666665,27.688333672916666,69.0,58.0
149,27.661925266666668,27.832699627083333,67.0,62.0
150,27.661925266666668,27.899600922916665,71.0,63.0
151,27.873192516666666,28.165445545833332,64.0,45.0
152,28.084459766666665,28.39960008125,67.0,55.0
153,28.295727016666667,28.49467034375,71.0,62.0
154,28.506994266666666,28.7217826375,64.0,47.0
155,28.718261516666665,28.936571008333335,67.0,63.0
156,28.929528766666667,29.098542566666666,71.0,63.0
157,29.140796016666666,29.390795595833332,64.0,55.0
158,29.352063266666665,29.473541935416666,67.0,66.0
159,29.352063266666665,29.473541935416666,74.0,56.0
160,29.563330516666667,29.801006172916665,64.0,49.0
161,29.774597766666666,30.066850795833332,67.0,61.0
162,27.661925266666668,30.160160497916667,52.0,64.0
163,29.985865016666665,30.190090025,76.0,56.0
164,27.661925266666668,30.457695208333334,40.0,64.0
165,30.197132266666667,30.457695208333334,64.0,40.0
166,30.408399516666666,30.66015965625,67.0,62.0
167,30.830934016666667,31.026356222916668,64.0,52.0
168,31.042201266666666,31.212975627083335,74.0,67.0
169,31.042201266666666,31.471778008333334,38.0,57.0
170,31.042201266666666,31.48410193125,50.0,58.0
171,31.253468516666665,31.54748210625,62.0,44.0
172,31.464735766666667,31.64255236875,67.0,56.0
173,31.676003016666666,31.866143541666666,69.0,46.0
174,31.887270266666665,32.10029807708333,62.0,44.0
175,32.09853751666667,32.2816358,67.0,48.0
176,32.309804766666666,32.61790283958333,74.0,51.0
177,32.521072016666665,32.7992405625,62.0,43.0
178,32.73233926666666,32.94184595625,67.0,53.0
179,32.94360651666667,33.16367656875,69.0,32.0
180,33.15487376666667,33.443605675,62.0,37.0
181,33.36614101666667,33.57212658541667,67.0,49.0
182,33.577408266666666,33.84325288958333,69.0,47.0
183,33.788675516666665,34.05452013958333,62.0,38.0
184,33.99994276666666,34.24818178541667,67.0,52.0
185,34.21121001666667,34.714730295833334,69.0,45.0
186,34.42247726666667,34.92599754583333,74.0,47.0
187,37.8116068,38.0633922625,69.0,43.0
188,37.8116068,38.3401777,67.0,44.0
189,37.8116068,38.41874905,59.0,63.0
190,38.6687488,39.0705341125,59.0,66.0
191,37.8116068,39.115176925,43.0,64.0
192,38.2401778,39.1241054875,55.0,46.0
193,39.0973198,39.593747875000005,67.0,72.0
194,39.5258908,40.400889925,55.0,67.0
195,39.5258908,40.540175500000004,60.0,63.0
196,39.5258908,40.552675487500004,45.0,55.0
197,39.5258908,40.5562469125,64.0,67.0
198,39.5258908,40.609818287500005,52.0,58.0
199,41.23132126666667,41.97075664166667,59.0,60.0
200,41.23132126666667,42.05702410208333,43.0,63.0
201,41.653855766666666,42.06758746458333,50.0,35.0
202,41.23132126666667,42.224277341666664,62.0,63.0
203,42.076390266666664,42.56406550208333,55.0,46.0
204,41.23132126666667,42.632727358333334,67.0,61.0
205,43.343993766666664,44.0869502625,62.0,54.0
206,43.76652826666667,44.09223194375,74.0,69.0
207,42.921459266666666,44.095753064583334,59.0,44.0
208,42.49892476666667,44.1714571625,57.0,54.0
209,44.189062766666666,44.55349877291667,69.0,59.0
210,44.611597266666664,45.0799063375,62.0,62.0
211,44.611597266666664,45.0904697,59.0,60.0
212,44.611597266666664,45.28413134583333,67.0,54.0
213,45.03413176666667,45.60279278125,55.0,39.0
214,45.456666266666666,45.70138416458333,67.0,53.0
215,45.456666266666666,45.9461020625,57.0,75.0
216,45.456666266666666,45.98131327083333,62.0,73.0
217,44.611597266666664,46.049975127083336,43.0,64.0
218,46.30173526666667,46.975950681250005,59.0,73.0
219,46.30173526666667,46.996784016666666,62.0,67.0
220,46.30173526666667,47.00625371458334,55.0,67.0
221,46.30173526666667,47.30739010833334,52.0,61.0
222,47.19375373333334,47.471389208333335,55.0,45.0
223,47.19375373333334,47.61399460208333,59.0,61.0
224,47.19375373333334,47.619276283333335,62.0,62.0
225,46.30173526666667,47.62455796458333,40.0,69.0
226,47.63336076666666,47.97843060833333,52.0,47.0
227,48.05589526666667,48.59462675416666,57.0,49.0
228,48.05589526666667,49.033006297916664,67.0,58.0
229,49.32349876666667,49.66680804791667,57.0,53.0
230,48.90096426666666,50.163286085416665,55.0,47.0
231,49.746033266666664,50.18617337083333,62.0,75.0
232,50.16856776666666,50.263638029166664,67.0,75.0
233,48.478429766666665,50.311173160416665,50.0,44.0
234,48.05589526666667,50.42737014791666,43.0,60.0
235,50.59110226666667,50.88335529583333,62.0,61.0
236,50.59110226666667,50.99427060208333,69.0,70.0
237,51.013636766666664,51.41328398125,71.0,57.0
238,51.43617126666666,51.863987447916664,64.0,60.0
239,51.43617126666666,52.12807151041667,69.0,69.0
240,52.281240266666664,52.612225625,60.0,60.0
241,52.281240266666664,52.624549547916665,57.0,49.0
242,52.281240266666664,52.68088748125,64.0,64.0
243,51.43617126666666,52.73194373333333,45.0,59.0
244,51.85870576666667,52.7495493375,52.0,36.0
245,53.97137826666666,54.23194120833333,57.0,56.0
246,53.12630926666667,54.31468754791666,45.0,40.0
247,53.548843766666664,54.34285651458333,52.0,56.0
248,53.97137826666666,54.36046211875,60.0,76.0
249,53.97137826666666,54.41503949166666,64.0,73.0
250,54.816447266666664,55.27771409583333,55.0,60.0
251,54.816447266666664,55.3481365125,59.0,69.0
252,55.661516266666666,55.98721994375,59.0,53.0
253,56.084050766666664,56.353416510416665,59.0,53.0
254,56.084050766666664,56.36045875208333,67.0,63.0
255,56.50658526666666,56.87630295416666,66.0,72.0
256,56.50658526666666,56.88334519583333,59.0,60.0
257,55.23898176666667,57.23193615833333,52.0,48.0
258,56.929119766666666,57.37454155208333,67.0,69.0
259,54.816447266666664,57.629822812499995,40.0,67.0
260,57.351654266666664,57.657991779166665,62.0,67.0
261,57.351654266666664,57.84813230416667,52.0,45.0
262,57.77418876666667,58.03475170833333,64.0,75.0
263,58.196723266666666,58.58756767916667,59.0,63.0
264,58.196723266666666,58.59813104166666,62.0,61.0
265,58.196723266666666,58.731933633333334,67.0,69.0
266,59.04179226666666,59.267144,57.0,61.0
267,59.04179226666666,59.499537974999996,62.0,61.0
268,58.619257766666664,59.52418582083333,55.0,28.0
269,59.464326766666666,59.668551775,67.0,44.0
270,59.464326766666666,59.84636837708333,59.0,48.0
271,59.88686126666666,60.268902877083335,59.0,64.0
272,59.88686126666666,60.2812268,67.0,66.0
273,59.88686126666666,60.29355072291666,62.0,73.0
274,60.731930266666666,60.91150742916666,57.0,64.0
275,60.731930266666666,61.119253558333334,66.0,64.0
276,60.30939576666667,61.1368591625,55.0,35.0
277,58.196723266666666,61.19671821666667,43.0,70.0
278,61.15446476666666,61.31995744583333,59.0,64.0
279,61.15446476666666,61.57875982708333,67.0,73.0
280,61.57699926666666,61.95375919583333,38.0,69.0
281,61.999533766666666,62.45023723333333,50.0,48.0
282,61.57699926666666,62.51185684791666,62.0,72.0
283,61.57699926666666,62.552349737499995,57.0,69.0
284,61.57699926666666,62.58932150625,66.0,76.0
285,62.84460276666667,63.191433168749995,54.0,64.0
286,62.42206826666666,63.2284049375,52.0,67.0
287,63.267137266666666,63.49601012083333,74.0,66.0
288,63.267137266666666,63.52241852708333,66.0,58.0
289,63.267137266666666,63.55058749375,62.0,56.0
290,63.68967176666666,63.87277005,66.0,49.0
291,63.68967176666666,63.93967134583333,62.0,53.0
292,63.68967176666666,63.97664311458333,72.0,72.0
293,64.11220626666666,64.33579743958333,50.0,46.0
294,64.11220626666666,64.36044528541666,38.0,49.0
295,64.11220626666666,64.41326209791666,62.0,61.0
296,64.11220626666666,64.43086770208333,71.0,55.0
297,64.53474076666666,64.83579659791667,69.0,58.0
298,64.95727526666667,65.27417614166666,71.0,58.0
299,64.95727526666667,65.27593670208333,67.0,62.0
300,64.95727526666667,65.30058454791666,62.0,60.0
301,65.37980976666667,65.97663974791666,55.0,39.0
302,65.80234426666667,66.195552975,62.0,60.0
303,65.80234426666667,66.22412437499999,57.0,62.0
304,65.80234426666667,66.22769579999999,67.0,61.0
305,64.95727526666667,66.6562668,43.0,69.0
306,66.22769579999999,66.75805241249999,55.0,31.0
307,66.6562668,66.881266575,60.0,62.0
308,66.6562668,66.93814676666665,57.0,57.0
309,66.6562668,66.98961729999999,64.0,67.0
310,66.6562668,67.52454319999998,45.0,49.0
311,66.6562668,67.62564603333333,67.0,54.0
312,67.53189613333332,67.91683763541666,57.0,73.0
313,67.53189613333332,67.93972492083331,60.0,82.0
314,67.53189613333332,67.96261220624999,64.0,78.0
315,67.96437276666666,68.07000639166665,45.0,51.0
316,68.38690726666665,68.84289241458332,62.0,75.0
317,68.38690726666665,68.87106138124999,67.0,72.0
318,68.38690726666665,68.88514586458332,59.0,75.0
319,68.80944176666665,69.45908856041665,55.0,24.0
320,69.23197626666665,69.63866572291666,59.0,64.0
321,69.23197626666665,69.65979244791666,67.0,47.0
322,69.23197626666665,69.74077822708333,62.0,67.0
323,69.65451076666665,70.22845346249998,55.0,30.0
324,70.07704526666666,70.53655153541665,67.0,42.0
325,70.07704526666666,70.54711489791666,59.0,60.0
326,70.07704526666666,70.55767826041665,62.0,58.0
327,70.07704526666666,70.57000218333332,57.0,54.0
328,70.49957976666666,71.03655069374999,55.0,32.0
329,70.92211426666665,71.34640932708332,59.0,64.0
330,70.92211426666665,71.34816988749998,62.0,73.0
331,70.92211426666665,71.35521212916665,57.0,69.0
332,68.38690726666665,71.45204295208332,43.0,66.0
333,71.34464876666665,71.46260631458333,55.0,44.0
334,70.92211426666665,71.51014144583331,67.0,53.0
335,71.76718326666665,72.02950676874998,57.0,47.0
336,71.76718326666665,72.18443608541665,62.0,70.0
337,71.76718326666665,72.21260505208332,59.0,66.0
338,71.76718326666665,72.23197121666665,67.0,69.0
339,72.18971776666665,72.36929492916666,57.0,32.0
340,71.76718326666665,72.72668869374999,55.0,49.0
341,72.61225226666666,72.87633632916665,57.0,57.0
342,72.61225226666666,73.02774452499999,59.0,66.0
343,72.61225226666666,73.02774452499999,62.0,76.0
344,72.61225226666666,73.04358956874998,67.0,66.0
345,71.76718326666665,73.13865983124998,43.0,61.0
346,73.45732126666665,73.87281352499998,59.0,66.0
347,73.45732126666665,74.04534844583331,62.0,62.0
348,73.45732126666665,74.07879909374998,55.0,59.0
349,73.45732126666665,74.11401030208332,67.0,46.0
350,73.45732126666665,74.43795341874998,52.0,59.0
351,74.30239026666665,74.80767110624998,59.0,63.0
352,74.30239026666665,74.81119222708332,62.0,67.0
353,74.30239026666665,74.81471334791665,55.0,56.0
354,73.45732126666665,74.83936119374998,40.0,63.0
355,74.30239026666665,74.94851593958332,67.0,43.0
356,75.14745926666666,75.63513450208332,62.0,70.0
357,75.14745926666666,75.64041618333331,67.0,44.0
358,75.14745926666666,75.64569786458331,59.0,69.0
359,75.56999376666666,76.06471124374998,50.0,55.0
360,75.99252826666665,76.22316168124999,57.0,64.0
361,75.99252826666665,76.35168259166664,62.0,66.0
362,75.14745926666666,76.49252742499999,43.0,66.0
363,75.99252826666665,76.50309078749999,55.0,47.0
364,76.41506276666665,76.81823110208332,50.0,51.0
365,76.83759726666665,77.11400525208332,74.0,57.0
366,77.04886451666665,77.18266710833332,62.0,48.0
367,76.83759726666665,77.43618780833332,43.0,44.0
368,77.26013176666665,77.49076518124998,67.0,62.0
369,77.47139901666665,77.61048328958331,69.0,57.0
370,77.26013176666665,77.75837036458331,50.0,58.0
371,77.68266626666666,77.78829989166665,55.0,70.0
372,77.68266626666666,77.84463782499998,71.0,64.0
373,77.89393351666665,78.03125722916666,62.0,58.0
374,78.10520076666666,78.19322878749999,42.0,49.0
375,78.10520076666666,78.25132728124998,69.0,48.0
376,78.31646801666665,78.43794668541665,62.0,52.0
377,78.52773526666665,78.79181932916666,67.0,69.0
378,78.73900251666666,78.93090360208332,62.0,59.0
379,78.95026976666665,79.41681827708332,52.0,59.0
380,79.37280426666665,79.73418526666666,67.0,72.0
381,79.37280426666665,79.76175876666666,64.0,62.0
382,78.52773526666665,79.76727346666665,45.0,64.0
383,79.37280426666665,79.77462639999999,60.0,67.0
384,79.37280426666665,79.80587636666665,57.0,57.0
385,79.80403813333332,80.24705236666665,52.0,45.0
386,80.24521413333332,80.64247955833332,67.0,55.0
387,80.24521413333332,80.70585973333331,64.0,62.0
388,80.24521413333332,80.72170477708332,60.0,59.0
389,80.67769076666666,81.31853475833331,52.0,53.0
390,81.10022526666665,81.36430932916666,67.0,73.0
391,81.10022526666665,81.37839381249998,64.0,75.0
392,81.10022526666665,81.38719661458332,60.0,73.0
393,80.24521413333332,81.58613994166666,45.0,52.0
394,81.52275976666665,81.61959058958332,52.0,67.0
395,81.94529426666665,82.38015268958333,67.0,61.0
396,81.94529426666665,82.38895549166665,62.0,69.0
397,81.94529426666665,82.45057510624999,59.0,64.0
398,82.36782876666665,82.92592641874998,52.0,40.0
399,82.79036326666666,83.19177104166666,67.0,61.0
400,82.79036326666666,83.20761608541665,62.0,76.0
401,82.79036326666666,83.22522168958332,59.0,70.0
402,83.21289776666666,83.71465748541665,52.0,35.0
403,83.63543226666665,83.99986827291666,62.0,69.0
404,83.63543226666665,84.03155836041665,67.0,46.0
405,83.63543226666665,84.08261461249998,59.0,61.0
406,84.05796676666665,84.61430385833332,52.0,25.0
407,84.48050126666665,84.81676830624998,67.0,58.0
408,84.48050126666665,84.83085278958332,62.0,76.0
409,84.48050126666665,84.84317671249998,59.0,69.0
410,81.94529426666665,84.89071184374998,40.0,72.0
411,85.32557026666666,85.75338644791665,59.0,63.0
412,85.32557026666666,85.78507653541665,62.0,59.0
413,85.32557026666666,85.80268213958333,57.0,61.0
414,85.74810476666666,86.37134315416665,55.0,33.0
415,86.17063926666665,86.50338518541665,57.0,67.0
416,85.32557026666666,86.54035695416665,43.0,63.0
417,86.59317376666665,86.94176472916665,59.0,61.0
418,87.01570826666665,87.50690462291665,62.0,66.0
419,87.01570826666665,87.51746798541666,66.0,72.0
420,87.01570826666665,87.67943954375,57.0,61.0
421,87.01570826666665,87.98225593541665,50.0,46.0
422,87.86077726666666,88.20232598749999,66.0,67.0
423,87.86077726666666,88.22521327291665,62.0,70.0
424,87.01570826666665,88.22873439374999,38.0,61.0
425,87.86077726666666,88.26922728333332,57.0,58.0
426,88.28331176666666,88.63542384999998,50.0,40.0
427,88.70584626666665,89.56852087083332,60.0,70.0
428,88.70584626666665,89.67415449583332,67.0,64.0
429,89.55091526666665,90.00866097499998,55.0,60.0
430,88.70584626666665,90.05971722708333,43.0,66.0
431,89.97344976666665,90.36429417916665,62.0,44.0
432,89.12838076666665,90.40126594791666,50.0,44.0
433,90.39598426666666,90.71816682291666,57.0,69.0
434,90.39598426666666,90.95760303958332,59.0,63.0
435,91.02978601666665,91.10020843333332,59.0,30.0
436,90.81851876666666,91.35901081458331,50.0,60.0
437,91.24105326666665,91.39422202291665,55.0,60.0
438,90.39598426666666,91.39598258333332,43.0,60.0
439,91.24105326666665,91.45936275833333,57.0,78.0
440,91.24105326666665,91.56851750416665,62.0,72.0
441,92.08612226666665,92.40024199166666,59.0,91.0
442,92.08612226666665,92.43103905,67.0,73.0
443,92.51437226666665,92.70096620833333,57.0,69.0
444,92.73176326666666,92.87125582499999,59.0,66.0
445,92.29738951666666,92.94915426666665,55.0,59.0
446,92.94915426666665,93.31147259999999,67.0,85.0
447,92.08612226666665,93.54154474166666,43.0,73.0
448,93.16654526666666,93.65567501666666,55.0,57.0
449,93.38393626666665,93.67560252499999,60.0,51.0
450,93.60132726666666,94.21609467916664,69.0,67.0
451,94.45905201666665,94.59461516874998,59.0,76.0
452,94.24778476666665,94.69848823333332,55.0,73.0
453,94.67031926666665,94.88158651666664,59.0,88.0
454,94.67031926666665,94.93968501041665,62.0,103.0
455,94.67031926666665,94.95553005416664,67.0,80.0
456,94.88158651666664,95.05236087708332,55.0,70.0
457,94.03610926666666,95.05764255833331,50.0,51.0
458,93.81871826666665,95.12630441458332,43.0,62.0
459,95.09285376666665,95.28123373124998,59.0,82.0
460,95.30412101666666,95.43264192708331,67.0,73.0
461,95.51538826666665,95.89566931666666,59.0,88.0
462,95.51538826666665,95.90095099791665,67.0,78.0
463,95.51538826666665,95.91503548124999,62.0,95.0
464,96.36045726666666,96.46961201249998,57.0,95.0
465,95.93792276666665,96.47841481458332,52.0,61.0
466,96.36045726666666,96.51538658333331,66.0,106.0
467,95.51538826666665,97.04883638958331,40.0,75.0
468,96.78299176666665,97.06292087291665,52.0,58.0
469,97.20552626666665,97.29355428749999,71.0,78.0
470,97.20552626666665,97.30587821041665,83.0,80.0
471,97.62806076666665,97.71432822708331,81.0,80.0
472,97.62806076666665,97.72313102916665,69.0,78.0
473,98.05059526666665,98.13862328749998,79.0,78.0
474,98.05059526666665,98.14742608958332,67.0,82.0
475,97.20552626666665,98.29883428541665,40.0,67.0
476,97.62806076666665,98.33404549374998,47.0,62.0
477,98.05059526666665,98.39390454791665,52.0,75.0
478,98.47312976666664,98.59636899583332,66.0,78.0
479,98.47312976666664,98.66503085208332,78.0,85.0
480,98.89566426666666,99.10517095624998,79.0,80.0
481,98.89566426666666,99.16326944999999,67.0,95.0
482,99.74073326666665,99.90974706666665,59.0,93.0
483,99.95200051666664,100.14214104166665,62.0,72.0
484,98.89566426666666,100.18967617291665,43.0,66.0
485,99.52946601666665,100.29354923749999,55.0,64.0
486,100.37453501666666,100.43263351041665,59.0,56.0
487,100.16326776666665,100.44143631249999,66.0,91.0
488,99.31819876666665,100.46080247708332,50.0,62.0
489,100.37453501666666,100.47840808124998,67.0,69.0
490,100.58580226666665,100.79002727499999,69.0,91.0
491,100.58580226666665,100.80763287916665,59.0,80.0
492,101.00833676666664,101.22312513749998,59.0,80.0
493,101.00833676666664,101.25481522499999,67.0,78.0
494,100.58580226666665,101.31115315833331,43.0,67.0
495,101.00833676666664,101.31995596041665,50.0,67.0
496,101.43087126666666,101.73016653749998,59.0,73.0
497,101.43087126666666,101.73896933958332,66.0,106.0
498,101.85340576666665,101.98016611666665,40.0,70.0
499,101.85340576666665,102.13685599374999,62.0,56.0
500,102.27594026666665,102.69143252499998,38.0,73.0
501,102.27594026666665,102.88509417083331,66.0,97.0
502,102.27594026666665,102.96960107083332,62.0,97.0
503,102.27594026666665,102.99424891666665,57.0,80.0
504,102.69847476666665,103.21784008958332,50.0,58.0
505,103.12100926666665,103.46079742708332,64.0,73.0
506,103.12100926666665,103.46607910833332,57.0,64.0
507,103.54354376666664,103.63333234791665,62.0,75.0
508,103.54354376666664,103.67910691874998,66.0,88.0
509,103.96607826666666,104.06114852916664,66.0,97.0
510,103.96607826666666,104.10340197916665,69.0,91.0
511,103.96607826666666,104.11572590208331,62.0,40.0
512,103.96607826666666,104.13333150624999,60.0,34.0
513,104.81114726666665,104.91325977083332,69.0,59.0
514,104.81114726666665,105.04178068124999,62.0,50.0
515,104.81114726666665,105.05058348333331,78.0,106.0
516,103.54354376666664,105.08051301041665,54.0,60.0
517,103.12100926666665,105.10692141666665,52.0,66.0
518,105.02241451666666,105.18086495416665,69.0,58.0
519,105.23368176666665,105.49952638958331,74.0,44.0
520,105.44494901666665,105.51008975208332,78.0,48.0
521,105.65621626666665,105.74776540833332,81.0,88.0
522,105.65621626666665,106.34635594999999,59.0,75.0
523,105.65621626666665,106.34635594999999,62.0,73.0
524,105.65621626666665,106.34811651041665,57.0,75.0
525,105.65621626666665,106.34987707083332,67.0,70.0
526,105.65621626666665,106.66853850624999,55.0,75.0
527,106.50128526666666,106.84811566874998,57.0,88.0
528,106.50128526666666,106.84811566874998,67.0,78.0
529,106.50128526666666,106.86924239374999,59.0,99.0
530,106.50128526666666,106.89741136041665,62.0,97.0
531,105.65621626666665,107.16325598333331,43.0,66.0
532,106.92381976666665,107.29881913541665,55.0,56.0
533,107.34635426666665,107.68956302499998,47.0,80.0
534,107.34635426666665,107.71634871249998,59.0,69.0
535,107.34635426666665,107.73420583749997,63.0,95.0
536,107.34635426666665,107.75384867499997,66.0,99.0
537,108.20027679999998,108.57673507499997,63.0,82.0
538,108.20027679999998,108.59081955833331,51.0,70.0
539,108.20027679999998,108.59962236041665,39.0,64.0
540,108.20027679999998,108.60666460208331,71.0,76.0
541,109.04856526666664,109.40595903124998,52.0,75.0
542,109.04856526666664,109.47990256874998,71.0,70.0
543,109.04856526666664,109.69469093958331,67.0,85.0
544,109.04856526666664,109.75102887291663,62.0,76.0
545,109.47109976666664,110.00454957291664,52.0,32.0
546,109.89363426666664,110.32497156874997,62.0,76.0
547,109.89363426666664,110.32497156874997,71.0,70.0
548,109.89363426666664,110.36194333749998,67.0,91.0
549,109.04856526666664,110.8196890458333,40.0,75.0
550,110.31616876666664,110.85313969374997,52.0,46.0
551,110.73870326666665,111.34262604999998,67.0,85.0
552,110.73870326666665,111.35512603749997,71.0,62.0
553,110.73870326666665,111.43548309999997,62.0,67.0
554,110.73870326666665,111.48726876249998,44.0,63.0
555,111.37834029999998,111.76226848749998,52.0,31.0
556,111.59262579999998,111.99441111249998,62.0,75.0
557,111.59262579999998,112.01405394999998,71.0,73.0
558,111.59262579999998,112.03191107499997,67.0,80.0
559,111.37834029999998,112.06048247499997,40.0,31.0
560,112.02119679999997,112.08191102499997,52.0,47.0
561,112.44976779999998,112.74083893749997,55.0,66.0
562,112.44976779999998,113.21048132499998,62.0,70.0
563,112.44976779999998,113.34262404999997,59.0,73.0
564,112.44976779999998,113.34976689999998,57.0,69.0
565,112.44976779999998,113.35869546249998,67.0,69.0
566,113.30690979999997,113.65690944999997,55.0,63.0
567,113.52119529999997,113.66583801249998,57.0,82.0
568,112.44976779999998,113.69619512499997,43.0,70.0
569,113.73548079999998,113.87476637499998,59.0,73.0
570,113.94976629999998,114.11762327499997,62.0,69.0
571,114.16405179999997,114.42476582499998,50.0,78.0
572,114.16405179999997,114.42476582499998,62.0,72.0
573,114.16405179999997,114.44083723749998,57.0,63.0
574,114.16405179999997,114.46940863749997,66.0,88.0
575,114.59262279999997,114.74083693749998,64.0,44.0
576,114.59262279999997,114.82297971249997,67.0,36.0
577,115.02119379999998,115.11405084999997,66.0,99.0
578,115.02119379999998,115.13012226249998,62.0,76.0
579,115.02119379999998,115.14797938749997,69.0,82.0
580,115.02119379999998,115.30512208749997,50.0,52.0
581,114.16405179999997,115.31226493749998,38.0,70.0
582,115.44976479999997,115.50512188749997,66.0,82.0
583,115.44976479999997,115.55333612499997,62.0,59.0
584,115.44976479999997,115.71405024999997,72.0,82.0
585,115.87833579999997,116.28904967499997,62.0,67.0
586,115.87833579999997,116.29262109999998,59.0,70.0
587,115.87833579999997,116.29440681249997,57.0,63.0
588,115.87833579999997,116.43012096249997,67.0,67.0
589,116.30690679999998,116.72297781249998,50.0,56.0
590,116.73547779999997,117.13547739999997,55.0,48.0
591,116.73547779999997,117.18369163749998,57.0,59.0
592,116.73547779999997,117.20690589999998,62.0,66.0
593,117.59261979999998,117.73011966249997,59.0,62.0
594,117.59261979999998,117.74619107499997,62.0,69.0
595,117.59261979999998,117.82119099999997,67.0,67.0
596,118.21404774999998,118.43547609999997,79.0,49.0
597,118.28547624999997,118.68011871249998,83.0,46.0
598,118.35154761249997,118.68011871249998,86.0,62.0
599,118.45690464999997,118.70333297499998,91.0,64.0
600,117.59261979999998,118.81940428749998,55.0,43.0
601,115.87833579999997,118.87297566249997,43.0,70.0
602,117.16404879999997,118.93547559999998,50.0,46.0
603,119.30690379999997,119.78026627499997,62.0,59.0
604,119.30690379999997,119.7820023833333,59.0,54.0
605,119.30690379999997,119.7872107083333,57.0,60.0
606,119.30690379999997,119.88616888333331,67.0,56.0
607,119.30690379999997,120.5007512333333,55.0,48.0
608,120.1465851333333,120.55457059166665,59.0,59.0
609,120.1465851333333,120.56325113333331,57.0,60.0
610,120.1465851333333,120.57019556666664,62.0,67.0
611,120.1465851333333,120.59102886666665,67.0,50.0
612,119.30690379999997,120.62575103333332,43.0,63.0
613,120.97991713333332,121.46622306249998,64.0,62.0
614,120.97991713333332,121.59298341249998,60.0,66.0
615,120.97991713333332,121.59474397291665,55.0,59.0
616,120.97991713333332,122.15812330624998,45.0,52.0
617,120.97991713333332,122.15988386666665,52.0,66.0
618,121.82185626666664,122.19509507499997,55.0,54.0
619,121.82185626666664,122.21974292083331,60.0,67.0
620,121.82185626666664,122.23382740416665,64.0,64.0
621,122.66692526666664,123.05424855833331,67.0,72.0
622,122.66692526666664,123.1176287333333,59.0,67.0
623,122.66692526666664,123.12467097499997,62.0,63.0
624,123.08945976666664,123.62467013333331,55.0,40.0
625,123.51199426666665,123.8781908333333,57.0,49.0
626,123.51199426666665,123.9045992395833,62.0,58.0
627,123.51199426666665,123.91340204166664,59.0,59.0
628,123.93452876666665,124.54192211041664,55.0,36.0
629,124.35706326666664,124.78487944791664,57.0,40.0
630,124.35706326666664,124.79368224999997,62.0,52.0
631,124.35706326666664,124.81656953541665,59.0,45.0
632,124.35706326666664,124.90459755624997,67.0,47.0
633,124.77959776666664,125.34649822083331,55.0,27.0
634,125.20213226666664,125.57713163541663,62.0,72.0
635,125.20213226666664,125.58945555833331,57.0,62.0
636,125.20213226666664,125.59121611874997,59.0,64.0
637,125.20213226666664,125.59825836041664,67.0,60.0
638,122.66692526666664,125.71621590833331,43.0,73.0
639,125.62466676666664,125.88346914791664,55.0,42.0
640,125.83593401666664,126.07360967291665,50.0,53.0
641,126.04720126666665,126.4926230520833,59.0,66.0
642,126.04720126666665,126.49438361249997,62.0,75.0
643,126.04720126666665,126.49790473333331,67.0,60.0
644,126.04720126666665,126.50494697499997,57.0,66.0
645,126.46973576666664,127.06656574791664,55.0,37.0
646,126.89227026666664,127.08945303333331,67.0,46.0
647,126.89227026666664,127.24966403124998,57.0,60.0
648,126.89227026666664,127.2743118770833,59.0,66.0
649,126.89227026666664,127.29367804166664,62.0,73.0
650,127.31480476666664,127.4010722270833,55.0,63.0
651,126.04720126666665,127.4274806333333,43.0,73.0
652,127.73733926666664,128.19156385416665,55.0,60.0
653,127.73733926666664,128.20212721666664,62.0,66.0
654,127.73733926666664,128.20564833749998,59.0,64.0
655,128.15987376666664,128.7637459895833,52.0,37.0
656,127.73733926666664,128.90987250416663,40.0,72.0
657,128.58240826666665,128.96092875624998,55.0,66.0
658,128.58240826666665,128.9697315583333,59.0,70.0
659,128.58240826666665,128.9961399645833,62.0,72.0
660,129.00494276666663,129.42571670624997,52.0,48.0
661,129.42747726666664,129.90811026041663,57.0,60.0
662,129.42747726666664,129.92923698541665,62.0,70.0
663,129.42747726666664,129.95916651249996,59.0,67.0
664,129.42747726666664,130.1475464770833,67.0,64.0
665,129.42747726666664,130.23909561874999,43.0,63.0
666,129.85001176666665,130.27078570624997,50.0,48.0
667,130.27254626666664,130.74261589791664,55.0,59.0
668,131.11761526666663,131.84648727916664,59.0,66.0
669,130.69508076666665,131.87289568541664,57.0,63.0
670,131.54014976666664,131.89930409166664,62.0,82.0
671,131.96268426666663,132.34296531666664,67.0,57.0
672,132.38521876666664,132.75317589374998,71.0,57.0
673,132.80775326666665,133.16690759166664,72.0,78.0
674,132.80775326666665,133.1950765583333,67.0,67.0
675,132.80775326666665,133.19859767916665,64.0,63.0
676,133.23028776666663,133.72324468333332,52.0,39.0
677,133.65282226666665,133.98908930624998,67.0,60.0
678,133.65282226666665,134.02782163541664,64.0,57.0
679,133.65282226666665,134.03310331666665,60.0,63.0
680,133.65282226666665,134.65458114374997,57.0,51.0
681,134.49789126666664,134.87324284999997,67.0,59.0
682,134.49789126666664,134.96074276249996,60.0,59.0
683,134.49789126666664,135.00359986249998,64.0,55.0
684,134.07535676666663,135.42681372499996,52.0,42.0
685,134.92324279999997,135.62324209999997,57.0,35.0
686,135.35181379999997,135.65359921249996,64.0,66.0
687,135.35181379999997,135.68038489999998,60.0,66.0
688,135.35181379999997,135.68217061249996,67.0,72.0
689,132.80775326666665,135.74288483749996,45.0,63.0
690,135.78038479999998,136.03038454999998,52.0,50.0
691,136.20895579999996,136.68038389999998,67.0,66.0
692,136.20895579999996,136.70181244999998,59.0,69.0
693,136.20895579999996,136.70538387499997,62.0,72.0
694,136.63752679999996,136.95002648749997,50.0,44.0
695,136.20895579999996,136.95895504999996,43.0,64.0
696,137.06609779999997,137.46016167916665,67.0,70.0
697,137.06609779999997,137.46544336041663,62.0,73.0
698,137.06609779999997,137.54818969999997,59.0,72.0
699,137.91438626666664,138.4337515895833,59.0,67.0
700,137.91438626666664,138.44783607291663,62.0,73.0
701,137.91438626666664,138.45839943541662,67.0,69.0
702,137.91438626666664,138.90206066041662,52.0,56.0
703,138.75945526666663,139.14016398749996,67.0,75.0
704,137.91438626666664,139.20802106249997,40.0,61.0
705,138.75945526666663,139.21159248749996,62.0,73.0
706,138.75945526666663,139.23837817499995,59.0,73.0
707,139.18480679999996,139.32052094999997,52.0,64.0
708,139.61337779999997,140.02230596249996,59.0,82.0
709,139.61337779999997,140.02409167499997,67.0,73.0
710,139.61337779999997,140.09016303749996,62.0,76.0
711,140.04194879999997,140.48123407499997,50.0,55.0
712,140.47051979999995,140.73301953749996,55.0,53.0
713,140.47051979999995,140.78301948749996,67.0,67.0
714,140.47051979999995,140.80980517499995,59.0,82.0
715,139.61337779999997,140.87587653749995,43.0,64.0
716,140.47051979999995,140.91873363749997,62.0,72.0
717,140.47051979999995,140.94551932499996,57.0,76.0
718,140.89909079999995,140.97230501249996,50.0,66.0
719,141.32766179999996,141.75623279999996,62.0,63.0
720,141.32766179999996,141.76158993749996,66.0,73.0
721,141.32766179999996,141.76337564999997,57.0,62.0
722,141.32766179999996,142.29908939999996,38.0,72.0
723,141.75623279999996,142.36516076249995,50.0,39.0
724,142.18480379999997,142.45623209999997,42.0,75.0
725,142.18480379999997,142.60623194999997,62.0,88.0
726,142.18480379999997,142.61158908749996,57.0,75.0
727,142.18480379999997,142.62944621249997,66.0,78.0
728,143.04194579999995,143.44730253749995,62.0,60.0
729,143.04194579999995,143.47051679999996,57.0,62.0
730,143.04194579999995,143.49015963749997,59.0,66.0
731,143.04194579999995,143.51694532499997,67.0,70.0
732,143.89908779999996,144.05265907499995,57.0,76.0
733,144.11337329999995,144.26158743749997,59.0,64.0
734,143.04194579999995,144.42408727499995,43.0,69.0
735,144.32765879999997,144.42587298749996,62.0,75.0
736,143.68480229999997,144.52051574999996,55.0,75.0
737,144.54194429999995,144.70087271249997,67.0,75.0
738,143.47051679999996,144.70622984999997,50.0,63.0
739,144.75622979999997,145.00622954999997,69.0,51.0
740,144.97051529999996,145.07230091249997,71.0,69.0
741,145.18480079999995,145.31872923749995,74.0,67.0
742,145.39908629999996,145.53480044999995,79.0,69.0
743,145.61337179999995,145.78122877499996,81.0,70.0
744,145.61337179999995,145.97562334166662,55.0,43.0
745,144.75622979999997,146.0207621583333,43.0,64.0
746,144.97051529999996,146.0329149166666,50.0,63.0
747,145.82765729999997,146.04333156666664,83.0,54.0
748,146.03638713333328,146.2724978666666,86.0,69.0
749,146.2447201333333,146.4634697833333,83.0,64.0
750,146.4530531333333,146.87666356666662,62.0,72.0
751,146.4530531333333,146.88708021666662,55.0,76.0
752,146.4530531333333,146.88708021666662,59.0,80.0
753,146.4530531333333,146.92874681666663,67.0,76.0
754,147.28638513333328,147.72909275833328,55.0,82.0
755,147.28638513333328,147.74298162499997,59.0,80.0
756,147.28638513333328,147.74818994999995,62.0,78.0
757,147.28638513333328,147.9895090083333,67.0,78.0
758,146.8697191333333,148.33673067499996,52.0,43.0
759,148.1197171333333,148.57631362499995,62.0,69.0
760,148.1197171333333,148.61798022499997,59.0,67.0
761,148.1197171333333,148.66659125833328,55.0,64.0
762,148.1197171333333,148.75166056666663,67.0,61.0
763,148.7447161333333,148.9582574583333,52.0,48.0
764,148.95304913333328,149.22909035833328,55.0,99.0
765,148.95304913333328,149.25513198333329,59.0,99.0
766,148.95304913333328,149.26902084999995,62.0,91.0
767,148.95304913333328,149.2811736083333,67.0,80.0
768,146.4530531333333,149.2915902583333,40.0,76.0
769,149.1613821333333,149.34540961666661,52.0,75.0
770,149.3697151333333,149.51902044999997,55.0,61.0
771,149.57804813333328,149.69957571666663,59.0,56.0
772,149.7863811333333,150.1839499416666,57.0,91.0
773,149.7863811333333,150.20999156666662,62.0,80.0
774,149.7863811333333,150.22388043333328,59.0,88.0
775,149.7863811333333,150.23603319166662,67.0,78.0
776,150.4113801333333,150.51381052499997,59.0,75.0
777,150.4113801333333,150.5155466333333,57.0,73.0
778,150.4113801333333,150.54506047499996,62.0,76.0
779,150.4113801333333,150.56589377499995,67.0,59.0
780,151.0478171333333,151.14524349999996,67.0,91.0
781,150.8280461333333,151.14891996666663,55.0,49.0
782,151.0478171333333,151.1525964333333,62.0,85.0
783,151.0478171333333,151.20406696666663,74.0,73.0
784,151.48899313333328,151.72061053333329,55.0,48.0
785,151.70958113333327,151.74164808333327,67.0,76.0
786,151.70958113333327,151.79025911666662,62.0,76.0
787,151.70958113333327,151.83018960833328,71.0,95.0
788,151.91873113333327,152.0958141833333,55.0,36.0
789,152.12706413333328,152.2173417666666,62.0,72.0
790,152.12706413333328,152.23123063333327,69.0,88.0
791,150.20304713333329,152.2781055583333,50.0,47.0
792,152.3353971333333,152.42220254999995,50.0,27.0
793,152.3353971333333,152.57726183749995,55.0,67.0
794,152.54373013333327,152.70404742499997,59.0,82.0
795,149.7863811333333,152.79333304999997,43.0,72.0
796,152.75761879999996,152.85047584999995,50.0,67.0
797,152.75761879999996,152.89154723749996,62.0,66.0
798,152.97190429999995,153.08976132499996,67.0,69.0
799,153.18618979999997,153.5310802583333,67.0,46.0
800,153.18618979999997,153.56406631666664,55.0,91.0
801,153.18618979999997,153.56406631666664,62.0,63.0
802,153.18618979999997,153.5935801583333,59.0,69.0
803,153.8175381333333,153.9894128583333,55.0,39.0
804,153.6092051333333,154.08663492499997,52.0,46.0
805,154.0258711333333,154.32309292499997,62.0,72.0
806,154.0258711333333,154.36416431249998,55.0,78.0
807,154.0258711333333,154.38023572499998,59.0,80.0
808,154.0258711333333,154.47487848749998,67.0,78.0
809,154.44809279999998,154.71416396249998,52.0,44.0
810,154.66237829999997,154.74809249999998,59.0,75.0
811,154.66237829999997,154.765949625,55.0,73.0
812,154.66237829999997,154.7766639,62.0,76.0
813,154.8766638,155.11237784999997,52.0,46.0
814,155.09094929999998,155.15702066249997,59.0,88.0
815,155.09094929999998,155.25166342499998,55.0,93.0
816,155.09094929999998,155.60702021249998,67.0,82.0
817,155.51952029999998,155.7713057625,52.0,62.0
818,155.73380579999997,155.98559126249998,55.0,93.0
819,155.73380579999997,155.98559126249998,67.0,72.0
820,155.73380579999997,156.0105912375,62.0,85.0
821,155.73380579999997,156.01237694999998,59.0,93.0
822,155.9480913,156.12487683749998,52.0,75.0
823,153.18618979999997,156.12666255,40.0,78.0
824,156.16237679999998,156.29809095,55.0,78.0
825,156.3766623,156.4534479375,62.0,48.0
826,156.3766623,156.52666215,67.0,45.0
827,156.59094779999998,156.71951909999999,38.0,85.0
828,156.59094779999998,156.98559026249998,57.0,72.0
829,156.59094779999998,157.02487593749998,62.0,76.0
830,156.59094779999998,157.07844731249997,66.0,85.0
831,157.23380429999997,157.3534470375,59.0,47.0
832,157.4480898,157.76237519999998,62.0,75.0
833,157.66237529999998,157.80166087499998,64.0,80.0
834,157.0195188,157.96773213749998,50.0,56.0
835,157.8766608,158.02130351249997,66.0,78.0
836,157.23380429999997,158.06773203749998,57.0,46.0
837,158.09094629999998,158.34451747499998,62.0,97.0
838,158.09094629999998,158.3927317125,67.0,95.0
839,158.5195173,158.5748743875,66.0,101.0
840,158.5195173,158.60523149999997,62.0,93.0
841,158.5195173,158.630231475,69.0,88.0
842,158.9480883,159.1748737875,57.0,67.0
843,159.16237379999998,159.437373525,74.0,88.0
844,159.16237379999998,159.4534449375,66.0,101.0
845,159.16237379999998,159.45701636249999,62.0,95.0
846,159.37665929999997,159.51058773749997,57.0,63.0
847,158.30523179999997,159.52844486249998,50.0,63.0
848,159.5909448,159.6963018375,62.0,78.0
849,160.0195158,160.44272966249997,64.0,80.0
850,160.0195158,160.45522964999998,60.0,82.0
851,160.0195158,160.458801075,55.0,80.0
852,160.0195158,160.7909436,67.0,66.0
853,160.0195158,160.97130056249998,48.0,75.0
854,160.87665779999998,161.14808609999997,55.0,82.0
855,160.87665779999998,161.18201463749998,64.0,82.0
856,160.87665779999998,161.18380034999998,60.0,82.0
857,160.0195158,161.3141573625,36.0,73.0
858,161.30522879999998,161.3963001375,48.0,47.0
859,161.5195143,161.85522824999998,57.0,66.0
860,161.5195143,161.8623711,66.0,80.0
861,161.5195143,161.86951395,62.0,75.0
862,161.5195143,162.00004219583332,48.0,85.0
863,161.94808529999997,162.28942547291666,62.0,69.0
864,161.94808529999997,162.31339805208333,66.0,69.0
865,161.94808529999997,162.32538434166665,57.0,64.0
866,162.35963088333332,162.68668535625,48.0,50.0
867,162.56511013333332,162.9003593125,62.0,85.0
868,162.56511013333332,162.937859275,57.0,73.0
869,162.56511013333332,162.9467878375,66.0,88.0
870,161.5195143,162.96464496250002,36.0,60.0
871,162.9842878,163.0967876875,48.0,66.0
872,163.4128588,163.8217869625,66.0,80.0
873,163.4128588,163.8539297875,57.0,91.0
874,163.4128588,163.8967868875,62.0,95.0
875,164.0557153,164.1717866125,57.0,55.0
876,163.84142980000001,164.309286475,54.0,56.0
877,163.4128588,164.34678643750001,47.0,76.0
878,164.2700008,164.64117739374998,57.0,91.0
879,164.2700008,164.65174075625,62.0,91.0
880,164.2700008,164.67462804166667,66.0,97.0
881,164.69575476666665,164.773219425,51.0,64.0
882,164.69575476666665,164.81547287499998,39.0,85.0
883,165.11828926666666,165.48079355833332,52.0,70.0
884,165.11828926666666,165.60752946666665,64.0,78.0
885,165.11828926666666,165.63704330833332,55.0,72.0
886,165.11828926666666,165.64919606666666,59.0,73.0
887,165.74641813333332,165.99294551666665,52.0,51.0
888,165.11828926666666,166.12141753333333,40.0,75.0
889,165.95475113333333,166.20648684166665,59.0,97.0
890,165.95475113333333,166.21690349166667,64.0,80.0
891,165.95475113333333,166.23773679166666,55.0,95.0
892,166.1630841333333,166.3019728,52.0,85.0
893,166.37141713333332,166.619680625,43.0,56.0
894,166.57975013333333,166.7151665833333,44.0,69.0
895,166.78808313333332,167.31933228333332,60.0,78.0
896,166.78808313333332,167.37315164166665,64.0,75.0
897,166.78808313333332,167.525929175,55.0,76.0
898,166.78808313333332,167.55544301666666,67.0,67.0
899,166.78808313333332,167.86794251666666,45.0,78.0
900,167.62141513333333,167.94606739166665,67.0,61.0
901,167.62141513333333,168.09710881666666,64.0,78.0
902,167.62141513333333,168.10752546666666,60.0,82.0
903,167.62141513333333,168.12315044166667,55.0,78.0
904,168.03808113333332,168.369677825,45.0,58.0
905,168.24641413333333,168.44085826666665,62.0,59.0
906,168.4547471333333,168.84304026249998,50.0,62.0
907,168.4547471333333,168.95554015,55.0,73.0
908,168.4547471333333,169.04125434999997,64.0,76.0
909,168.4547471333333,169.05554005,60.0,78.0
910,169.09125429999997,169.43053967499998,50.0,57.0
911,168.4547471333333,169.62696805,38.0,75.0
912,169.3055398,169.6787537125,67.0,60.0
913,169.3055398,169.68589656249998,55.0,80.0
914,169.3055398,169.69839654999998,60.0,76.0
915,169.3055398,169.7055394,64.0,73.0
916,169.7341108,169.83053927499998,42.0,70.0
917,170.16268179999997,170.41414028541664,69.0,43.0
918,170.16268179999997,170.58491464583332,62.0,64.0
919,170.16268179999997,170.63421033749998,67.0,44.0
920,170.16268179999997,170.63421033749998,67.0,76.0
921,170.16268179999997,170.66413986458332,60.0,80.0
922,170.16268179999997,170.7644918083333,59.0,63.0
923,170.79970301666665,171.16942070416664,60.0,99.0
924,170.3769673,171.20287135208332,50.0,75.0
925,170.58843576666663,171.28275052499998,55.0,46.0
926,170.58843576666663,171.28275052499998,55.0,78.0
927,171.01097026666665,171.40953611249998,59.0,66.0
928,170.16268179999997,171.45417892499998,43.0,64.0
929,170.16268179999997,171.45417892499998,43.0,76.0
930,171.43632179999997,171.46310748749997,55.0,36.0
931,171.22223751666664,171.55596453749996,62.0,97.0
932,171.43632179999997,171.75239291249997,50.0,67.0
933,171.65060729999996,171.78096431249998,57.0,45.0
934,171.43632179999997,171.93274987499998,67.0,72.0
935,171.86489279999998,171.93274987499998,67.0,66.0
936,171.86489279999998,172.57024923749998,59.0,73.0
937,171.86489279999998,172.57024923749998,62.0,70.0
938,171.86489279999998,172.59167778749998,57.0,69.0
939,171.86489279999998,173.00789757499996,55.0,73.0
940,171.86489279999998,173.1242168333333,43.0,67.0
941,172.72203479999996,173.13810569999995,57.0,56.0
942,172.72203479999996,173.1710917583333,59.0,62.0
943,172.72203479999996,173.1710917583333,62.0,66.0
944,172.72203479999996,173.23185554999998,67.0,56.0
945,173.14505013333329,173.26657771666663,55.0,56.0
946,173.14505013333329,173.28914712499997,43.0,45.0
947,173.5617161333333,173.8690073083333,59.0,91.0
948,173.5617161333333,173.89852114999997,67.0,73.0
949,173.9783821333333,174.15720129166664,57.0,69.0
950,174.1867151333333,174.32039547499997,59.0,66.0
951,173.7700491333333,174.3950481333333,55.0,59.0
952,174.3950481333333,174.74226979999997,67.0,85.0
953,173.5617161333333,174.9627555583333,43.0,73.0
954,174.6033811333333,175.0721303833333,55.0,57.0
955,174.8117141333333,175.09122757499998,60.0,51.0
956,175.0200471333333,175.62089161666665,69.0,67.0
957,175.87089126666663,176.01038382499996,59.0,76.0
958,175.65350026666664,176.1172677333333,55.0,73.0
959,176.08828226666665,176.30567326666664,59.0,88.0
960,176.08828226666665,176.3635687083333,62.0,103.0
961,176.08828226666665,176.3791936833333,67.0,80.0
962,176.30567326666664,176.47467964166663,55.0,70.0
963,175.43671313333328,176.47988796666664,50.0,51.0
964,175.2283801333333,176.54759619166663,43.0,62.0
965,176.5146101333333,176.70037372499996,59.0,82.0
966,176.7229431333333,176.84967904166663,67.0,73.0
967,176.9312761333333,177.3152625333333,59.0,88.0
968,176.9312761333333,177.32077723333333,67.0,78.0
969,176.9312761333333,177.33548309999998,62.0,95.0
970,177.80055613333332,177.9145266,57.0,95.0
971,177.35938013333333,177.92371776666664,52.0,61.0
972,177.80055613333332,177.96232066666664,66.0,106.0
973,176.9312761333333,178.49244649166664,40.0,75.0
974,178.2302941333333,178.5063353583333,52.0,58.0
975,178.64696013333332,178.73376555,71.0,78.0
976,178.64696013333332,178.7459183083333,83.0,80.0
977,179.06362613333332,179.14869544166666,81.0,80.0
978,179.06362613333332,179.1573759833333,69.0,78.0
979,179.4802921333333,179.56709754999997,79.0,78.0
980,179.4802921333333,179.57577809166665,67.0,82.0
981,178.64696013333332,179.72508340833332,40.0,67.0
982,179.06362613333332,179.75980557499997,47.0,62.0
983,179.4802921333333,179.8188332583333,52.0,75.0
984,179.89695813333333,180.01848571666665,66.0,78.0
985,179.89695813333333,180.08619394166664,78.0,85.0
986,180.31362413333332,180.52022102499998,79.0,80.0
987,180.31362413333332,180.57870309999998,67.0,95.0
988,181.1644168,181.3358452,59.0,93.0
989,181.3787023,181.56659883333333,62.0,72.0
990,180.31362413333332,181.61347375833333,43.0,66.0
991,180.95013129999998,181.71590415,55.0,64.0
992,181.79576513333333,181.85305670833333,59.0,56.0
993,181.58743213333332,181.86173725,66.0,91.0
994,180.7358458,181.88083444166668,50.0,62.0
995,181.79576513333333,181.898195525,67.0,69.0
996,182.00409813333334,182.2054867,69.0,91.0
997,182.00409813333334,182.22284778333335,59.0,80.0
998,182.43220213333336,182.65646660000002,59.0,80.0
999,182.43220213333336,182.68955480000002,67.0,78.0
1000,182.00409813333334,182.7483782666667,43.0,67.0
1001,182.43220213333336,182.75756943333334,50.0,67.0
1002,182.87337813333335,183.18158855000001,59.0,73.0
1003,182.87337813333335,183.1902690916667,66.0,106.0
1004,183.30311613333333,183.42811593333334,40.0,70.0
1005,183.30311613333333,183.582629575,62.0,56.0
1006,183.71978213333335,184.14053320000002,38.0,73.0
1007,183.71978213333335,184.34273886666668,66.0,97.0
1008,183.71978213333335,184.4309740666667,62.0,97.0
1009,183.71978213333335,184.45670933333335,57.0,80.0
1010,184.14788613333337,184.69016496666669,50.0,58.0
1011,184.58906213333336,184.9372030416667,64.0,73.0
1012,184.58906213333336,184.94241136666668,57.0,64.0
1013,185.01880013333334,185.10734165833335,62.0,75.0
1014,185.01880013333334,185.15248047500003,66.0,88.0
1015,185.43546613333336,185.52921598333336,66.0,97.0
1016,185.43546613333336,185.57088258333334,69.0,91.0
1017,185.43546613333336,185.5830353416667,62.0,40.0
1018,185.43546613333336,185.600396425,60.0,34.0
1019,186.28625880000004,186.38983012500003,69.0,59.0
1020,186.28625880000004,186.52003832500006,62.0,50.0
1021,186.28625880000004,186.5287188666667,78.0,106.0
1022,185.01880013333334,186.55823270833338,54.0,60.0
1023,184.58906213333336,186.58427433333338,52.0,66.0
1024,186.50054430000003,186.65719088333339,69.0,58.0
1025,186.70927413333337,186.9714264916667,74.0,44.0
1026,186.91760713333338,186.9818431416667,78.0,48.0
1027,187.1259401333334,187.21621776666672,81.0,88.0
1028,187.1259401333334,187.80649460000004,59.0,75.0
1029,187.1259401333334,187.80649460000004,62.0,73.0
1030,187.1259401333334,187.80823070833338,57.0,75.0
1031,187.1259401333334,187.8099668166667,67.0,70.0
1032,187.1259401333334,188.12420242500005,55.0,75.0
1033,187.95927213333337,188.30649382500005,57.0,88.0
1034,187.95927213333337,188.30649382500005,67.0,78.0
1035,187.95927213333337,188.32823292500004,59.0,99.0
1036,187.95927213333337,188.35721839166672,62.0,97.0
1037,187.1259401333334,188.63076873333338,43.0,66.0
1038,188.3843922666667,188.7702612916667,55.0,56.0
1039,188.81917426666672,189.17062305000005,47.0,80.0
1040,188.81917426666672,189.19779692500003,59.0,69.0
1041,188.81917426666672,189.21591284166672,63.0,95.0
1042,188.81917426666672,189.23584035000005,66.0,99.0
1043,189.68873826666672,190.06645510000004,63.0,82.0
1044,189.68873826666672,190.0803439666667,51.0,70.0
1045,189.68873826666672,190.08902450833338,39.0,64.0
1046,189.68873826666672,190.0959689416667,71.0,76.0
1047,190.53173213333338,190.88416212500005,52.0,75.0
1048,190.53173213333338,190.95707867500005,71.0,70.0
1049,190.53173213333338,191.1688838916667,67.0,85.0
1050,190.53173213333338,191.22443935833337,62.0,76.0
1051,190.94839813333337,191.47443895833337,52.0,32.0
1052,191.36506413333336,191.79041067500003,62.0,76.0
1053,191.36506413333336,191.79041067500003,71.0,70.0
1054,191.36506413333336,191.82686895000003,67.0,91.0
1055,190.53173213333338,192.2782571166667,40.0,75.0
1056,191.78173013333338,192.31124317500004,52.0,46.0
1057,192.19839613333338,192.8046754333334,67.0,85.0
1058,192.19839613333338,192.81735657500005,71.0,62.0
1059,192.19839613333338,192.89887820000004,62.0,67.0
1060,192.19839613333338,192.95141435833338,44.0,63.0
1061,192.8409072666667,193.23039947500004,52.0,31.0
1062,193.05829826666672,193.4585845083334,62.0,75.0
1063,193.05829826666672,193.47768170000003,71.0,73.0
1064,193.05829826666672,193.4950427833334,67.0,80.0
1065,192.8409072666667,193.5228205166667,40.0,31.0
1066,193.48462613333336,193.5436538166667,52.0,47.0
1067,193.90129213333338,194.18601393750006,55.0,66.0
1068,193.90129213333338,194.65565632500005,62.0,70.0
1069,193.90129213333338,194.78779905000005,59.0,73.0
1070,193.90129213333338,194.79494190000005,57.0,69.0
1071,193.90129213333338,194.80387046250004,67.0,69.0
1072,194.75208480000006,195.09871136666672,55.0,63.0
1073,194.96637030000005,195.1073919083334,57.0,82.0
1074,193.90129213333338,195.13690575000007,43.0,70.0
1075,195.1751001333334,195.3105165833334,59.0,73.0
1076,195.3834331333334,195.54662731666673,62.0,69.0
1077,195.5917661333334,195.84860338750008,50.0,78.0
1078,195.5917661333334,195.84860338750008,62.0,72.0
1079,195.5917661333334,195.8659110812501,57.0,63.0
1080,195.5917661333334,195.89668031458342,66.0,88.0
1081,196.02937263333342,196.1889880312501,64.0,44.0
1082,196.02937263333342,196.27744957708342,67.0,36.0
1083,196.4909111333334,196.59091114166674,66.0,99.0
1084,196.4909111333334,196.60821883541675,62.0,76.0
1085,196.4909111333334,196.62744960625008,69.0,82.0
1086,196.4909111333334,196.79088435833341,50.0,52.0
1087,195.5917661333334,196.79782879166675,38.0,70.0
1088,196.9315091333334,196.98532849166676,66.0,82.0
1089,196.9315091333334,197.03220341666676,62.0,59.0
1090,196.9315091333334,197.18845316666676,72.0,82.0
1091,197.34817513333343,197.73185507500008,62.0,75.0
1092,197.34817513333343,197.7735216750001,57.0,78.0
1093,197.34817513333343,198.03741014166675,59.0,91.0
1094,197.76484113333342,198.33428466666675,50.0,72.0
1095,197.34817513333343,198.39678456666675,67.0,82.0
1096,198.1815071333334,198.60858978333343,55.0,97.0
1097,197.34817513333343,198.63983973333342,43.0,82.0
1098,198.59817313333343,198.66761746666674,57.0,95.0
1099,198.59817313333343,198.6745619000001,59.0,103.0
1100,198.59817313333343,198.68324244166675,50.0,97.0
1101,198.59817313333343,198.68671465833341,62.0,99.0
1102,199.01483913333342,199.12421395833343,51.0,91.0
1103,199.01483913333342,199.26657484166677,55.0,99.0
1104,199.01483913333342,199.2960886833334,58.0,113.0
1105,199.01483913333342,199.30650533333343,63.0,109.0
1106,199.43150513333342,199.56865769166674,55.0,103.0
1107,199.63983813333343,199.68844916666674,55.0,28.0
1108,199.63983813333343,199.74747685000008,58.0,113.0
1109,199.8481711333334,199.8568516750001,61.0,118.0
1110,199.2231721333334,199.86032389166675,51.0,97.0
1111,199.8481711333334,200.06865689166676,55.0,106.0
1112,199.8481711333334,200.09896440000009,58.0,109.0
1113,199.8481711333334,200.1168215250001,63.0,118.0
1114,199.01483913333342,200.29717848750008,39.0,101.0
1115,200.27039280000008,200.34539272500007,63.0,103.0
1116,200.05650413333342,200.3828926875001,51.0,109.0
1117,200.27039280000008,200.5436068125001,55.0,106.0
1118,200.48467830000007,200.56324965000007,63.0,106.0
1119,200.6989638000001,201.17932046250007,63.0,59.0
1120,200.6989638000001,201.18110617500008,60.0,54.0
1121,200.6989638000001,201.18646331250008,58.0,60.0
1122,200.6989638000001,201.2882489250001,68.0,56.0
1123,200.6989638000001,201.92039115000009,56.0,48.0
1124,201.55610580000007,201.97574823750008,60.0,59.0
1125,201.55610580000007,201.98467680000007,58.0,60.0
1126,201.55610580000007,201.99181965000008,63.0,67.0
1127,201.55610580000007,202.01324820000008,68.0,50.0
1128,200.6989638000001,202.0489624500001,44.0,63.0
1129,202.41324780000008,202.9096758750001,65.0,62.0
1130,202.41324780000008,203.0382471750001,61.0,66.0
1131,202.41324780000008,203.04003288750008,56.0,59.0
1132,202.41324780000008,203.61146088750007,46.0,52.0
1133,202.41324780000008,203.61324660000008,53.0,66.0
1134,203.2703898000001,203.6489608500001,56.0,54.0
1135,203.2703898000001,203.67396082500008,61.0,67.0
1136,203.2703898000001,203.68824652500007,65.0,64.0
1137,204.12753180000007,204.5203885500001,68.0,72.0
1138,204.12753180000007,204.58467420000008,60.0,67.0
1139,204.12753180000007,204.5918170500001,63.0,63.0
1140,204.55610280000008,205.09895940000007,56.0,40.0
1141,204.98467380000008,205.35610200000008,58.0,49.0
1142,204.98467380000008,205.38288768750007,63.0,58.0
1143,204.98467380000008,205.3918162500001,60.0,59.0
1144,205.4132448000001,206.02931561250008,56.0,36.0
1145,205.8418158000001,206.27574393750007,58.0,40.0
1146,205.8418158000001,206.28467250000008,63.0,52.0
1147,205.8418158000001,206.3078867625001,60.0,45.0
1148,205.8418158000001,206.3971723875001,68.0,47.0
1149,206.27038680000007,206.84538622500008,56.0,27.0
1150,206.69895780000007,207.07307680208342,63.0,72.0
1151,206.69895780000007,207.08506309166674,58.0,62.0
1152,206.69895780000007,207.08677541875008,60.0,64.0
1153,206.69895780000007,207.0936247270834,68.0,60.0
1154,204.12753180000007,207.20835064166675,44.0,73.0
1155,207.11930963333342,207.3710217145834,56.0,42.0
1156,207.3247888833334,207.55595303958341,51.0,53.0
1157,207.5302681333334,207.96645954166675,60.0,66.0
1158,207.5302681333334,207.9681956500001,63.0,75.0
1159,207.5302681333334,207.97166786666676,68.0,60.0
1160,207.5302681333334,207.9786123000001,58.0,66.0
1161,207.9438901333334,208.5324308583334,56.0,37.0
1162,208.36055613333343,208.55500026666675,68.0,46.0
1163,208.36055613333343,208.7167064375001,58.0,60.0
1164,208.36055613333343,208.7417064125001,60.0,66.0
1165,208.36055613333343,208.7613492500001,63.0,73.0
1166,208.7827778000001,208.8702777125001,56.0,63.0
1167,207.5302681333334,208.8970634000001,44.0,73.0
1168,209.2113488000001,209.6720626250001,56.0,60.0
1169,209.2113488000001,209.6827769000001,63.0,66.0
1170,209.2113488000001,209.6863483250001,60.0,64.0
1171,209.63991980000011,210.2524191875001,53.0,37.0
1172,209.2113488000001,210.39637697083342,41.0,72.0
1173,210.0684908000001,210.4460344562501,56.0,66.0
1174,210.0684908000001,210.45459609166676,60.0,70.0
1175,210.0684908000001,210.48028099791676,63.0,72.0
1176,210.48884263333343,210.8980888062501,53.0,48.0
1177,210.89980113333343,211.36726642708342,58.0,60.0
1178,210.89980113333343,211.38781435208344,63.0,70.0
1179,210.89980113333343,211.4169239125001,60.0,67.0
1180,210.89980113333343,211.60014291041676,68.0,64.0
1181,210.89980113333343,211.6891839187501,44.0,63.0
1182,211.31075963333342,211.7200058062501,51.0,48.0
1183,211.72171813333344,212.1891100375001,56.0,59.0
1184,212.5694668000001,213.3087517750001,60.0,66.0
1185,212.1408958000001,213.3355374625001,58.0,63.0
1186,212.9980378000001,213.3623231500001,63.0,82.0
1187,213.42660880000008,213.8123227000001,68.0,57.0
1188,213.8551798000001,214.2283937125001,72.0,57.0
1189,214.2837508000001,214.64803615000008,73.0,78.0
1190,214.2837508000001,214.67660755000009,68.0,67.0
1191,214.2837508000001,214.6801789750001,65.0,63.0
1192,214.7123218000001,215.2123213000001,53.0,39.0
1193,215.1408928000001,215.4819638875001,68.0,60.0
1194,215.1408928000001,215.5212495625001,65.0,57.0
1195,215.1408928000001,215.5266067000001,61.0,63.0
1196,215.1408928000001,216.1569632125001,58.0,51.0
1197,215.99803480000008,216.36660600000008,68.0,59.0
1198,215.99803480000008,216.44827266666675,61.0,59.0
1199,215.99803480000008,216.48827266666675,65.0,55.0
1200,215.5694638000001,216.88327266666676,53.0,42.0
1201,216.41327266666676,217.0694631000001,58.0,35.0
1202,216.81327266666676,217.0998202125001,65.0,66.0
1203,216.81327266666676,217.1266059000001,61.0,66.0
1204,216.81327266666676,217.1283916125001,68.0,72.0
1205,214.2837508000001,217.1891058375001,46.0,63.0
1206,217.2266058000001,217.4766055500001,53.0,50.0
1207,217.6551768000001,218.1266049000001,68.0,66.0
1208,217.6551768000001,218.1480334500001,60.0,69.0
1209,217.6551768000001,218.1516048750001,63.0,72.0
1210,218.0837478000001,218.3962474875001,51.0,44.0
1211,217.6551768000001,218.4051760500001,44.0,64.0
1212,218.5123188000001,218.9087469750001,68.0,70.0
1213,218.5123188000001,218.9141041125001,63.0,73.0
1214,218.5123188000001,218.9980326000001,60.0,72.0
1215,219.3694608000001,219.8962459875001,60.0,67.0
1216,219.3694608000001,219.9105316875001,63.0,73.0
1217,219.3694608000001,219.9212459625001,68.0,69.0
1218,219.3694608000001,220.3712455125001,53.0,56.0
1219,220.2266028000001,220.6105309875001,68.0,75.0
1220,219.3694608000001,220.6783880625001,41.0,61.0
1221,220.2266028000001,220.6819594875001,63.0,73.0
1222,220.2266028000001,220.7087451750001,60.0,73.0
1223,220.6551738000001,220.7908879500001,53.0,64.0
1224,221.0837448000001,221.4926729625001,60.0,82.0
1225,221.0837448000001,221.4944586750001,68.0,73.0
1226,221.0837448000001,221.5605300375001,63.0,76.0
1227,221.5123158000001,221.9516010750001,51.0,55.0
1228,221.9408868000001,222.2033865375001,56.0,53.0
1229,221.9408868000001,222.2533864875001,68.0,67.0
1230,221.9408868000001,222.2801721750001,60.0,82.0
1231,221.0837448000001,222.3462435375001,44.0,64.0
1232,221.9408868000001,222.3891006375001,63.0,72.0
1233,221.9408868000001,222.4158863250001,58.0,76.0
1234,222.3694578000001,222.4426720125001,51.0,66.0
1235,222.7980288000001,223.23721623125007,63.0,76.0
1236,222.7980288000001,223.3399558562501,60.0,70.0
1237,222.7980288000001,223.4272845375001,68.0,69.0
1238,222.7980288000001,223.81084580416675,56.0,70.0
1239,222.7980288000001,223.8913741000001,44.0,61.0
1240,223.62933913333342,224.0628025000001,68.0,82.0
1241,223.62933913333342,224.0949453250001,63.0,99.0
1242,224.0485168000001,224.1110167375001,56.0,63.0
1243,223.62933913333342,224.1163738750001,60.0,93.0
1244,224.0485168000001,224.1610166875001,44.0,72.0
1245,224.4770878000001,224.7967303375001,51.0,72.0
1246,224.4770878000001,224.93958733750011,63.0,85.0
1247,224.4770878000001,225.1110157375001,58.0,78.0
1248,224.4770878000001,225.1288728625001,67.0,80.0
1249,224.4770878000001,225.1413728500001,70.0,69.0
1250,224.9056588000001,225.4556582500001,51.0,58.0
1251,225.3342298000001,225.77287010833342,58.0,80.0
1252,225.3342298000001,225.8023839500001,67.0,82.0
1253,225.3342298000001,225.8909254750001,63.0,99.0
1254,225.7572451333334,226.0003003000001,51.0,78.0
1255,224.4770878000001,226.0211336000001,39.0,75.0
1256,225.3342298000001,226.02634192500008,70.0,78.0
1257,226.17391113333343,226.34057753333343,39.0,72.0
1258,226.17391113333343,226.35273029166675,70.0,66.0
1259,226.17391113333343,226.35620250833344,58.0,91.0
1260,226.17391113333343,226.36661915833344,51.0,93.0
1261,226.17391113333343,226.54196610000008,63.0,95.0
1262,226.59057713333343,226.90134052500008,41.0,72.0
1263,226.59057713333343,226.91522939166677,60.0,85.0
1264,226.59057713333343,226.92390993333342,53.0,75.0
1265,226.59057713333343,226.98293761666676,65.0,93.0
1266,227.00724313333342,227.0367569750001,65.0,35.0
1267,227.00724313333342,227.2450899750001,63.0,88.0
1268,227.00724313333342,227.30411765833344,55.0,93.0
1269,227.00724313333342,227.41696470000008,67.0,88.0
1270,227.42390913333344,227.47252016666675,55.0,38.0
1271,227.42390913333344,227.4742562750001,63.0,63.0
1272,227.00724313333342,227.50377011666677,43.0,75.0
1273,227.42390913333344,227.55411725833343,70.0,73.0
1274,227.84057513333343,228.3042351187501,63.0,59.0
1275,227.84057513333343,228.30594744583343,60.0,54.0
1276,227.84057513333343,228.31108442708344,58.0,60.0
1277,227.84057513333343,228.40868707083342,68.0,56.0
1278,227.84057513333343,229.01851659166678,56.0,48.0
1279,228.66553613333343,229.07309396458345,60.0,59.0
1280,228.66553613333343,229.08189676666677,58.0,60.0
1281,228.66553613333343,229.08893900833345,63.0,67.0
1282,228.66553613333343,229.11006573333344,68.0,50.0
1283,227.84057513333343,229.1452769416668,44.0,63.0
1284,229.50443126666678,229.99386706250013,65.0,62.0
1285,229.50443126666678,230.1206274125001,61.0,66.0
1286,229.50443126666678,230.12238797291678,56.0,59.0
1287,229.50443126666678,230.6906607000001,46.0,52.0
1288,229.50443126666678,230.69249893333344,53.0,66.0
1289,230.34950026666678,230.7292636000001,56.0,54.0
1290,230.34950026666678,230.75499886666677,61.0,67.0
1291,230.34950026666678,230.76970473333344,65.0,64.0
1292,231.22191013333344,231.62632146666678,68.0,72.0
1293,231.22191013333344,231.69249786666677,60.0,67.0
1294,231.22191013333344,231.6998508000001,63.0,63.0
1295,231.66308613333345,232.22190906666677,56.0,40.0
1296,232.10426213333344,232.48661466666678,58.0,49.0
1297,232.10426213333344,232.51418816666677,63.0,58.0
1298,232.10426213333344,232.52337933333345,60.0,59.0
1299,232.54543813333345,233.17962863333344,56.0,36.0
1300,232.98661413333343,233.4110528125001,58.0,40.0
1301,232.98661413333343,233.4192765000001,63.0,52.0
1302,232.98661413333343,233.4406580875001,60.0,45.0
1303,232.98661413333343,233.5228949625001,68.0,47.0
1304,233.4061186000001,233.9357240750001,56.0,27.0
1305,233.8008556000001,234.16536729166677,63.0,72.0
1306,233.8008556000001,234.17804843333346,58.0,62.0
1307,233.8008556000001,234.17986002500012,60.0,64.0
1308,233.8008556000001,234.1871063916668,68.0,60.0
1309,231.22191013333344,234.30848303333343,44.0,73.0
1310,234.21428026666678,234.48058424166678,56.0,42.0
1311,234.43167126666677,234.67623614166678,51.0,53.0
1312,234.6490622666668,235.0865381875001,60.0,66.0
1313,234.6490622666668,235.0881829250001,63.0,75.0
1314,234.6490622666668,235.0914724000001,68.0,60.0
1315,234.6490622666668,235.0980513500001,58.0,66.0
1316,235.0651566000001,235.6227226125001,56.0,37.0
1317,235.4598936000001,235.6441042000001,68.0,46.0
1318,235.4598936000001,235.80628937500012,58.0,60.0
1319,235.4598936000001,235.83165165833344,60.0,66.0
1320,235.4598936000001,235.8515791666668,63.0,73.0
1321,235.8733182666668,235.96208625833344,56.0,63.0
1322,234.6490622666668,235.98926013333346,44.0,73.0
1323,236.3081002666668,236.7754909166668,56.0,60.0
1324,236.3081002666668,236.7863604666668,63.0,66.0
1325,236.3081002666668,236.78998365000012,60.0,64.0
1326,236.74288226666678,237.36425820833347,53.0,37.0
1327,236.3081002666668,237.5146203166668,41.0,72.0
1328,237.1776642666668,237.56715647500013,56.0,66.0
1329,237.1776642666668,237.57621443333346,60.0,70.0
1330,237.1776642666668,237.60338830833345,63.0,72.0
1331,237.61244626666678,238.04541667500013,53.0,48.0
1332,238.0472282666668,238.54179279166678,58.0,60.0
1333,238.0472282666668,238.5635318916668,63.0,70.0
1334,238.0472282666668,238.59432895000012,60.0,67.0
1335,238.0472282666668,238.78816925833345,68.0,64.0
1336,238.0472282666668,238.8823720250001,44.0,63.0
1337,238.48201026666678,238.91498067500012,51.0,48.0
1338,238.9167922666668,239.40048724166678,56.0,59.0
1339,239.7863562666668,240.50796554583346,60.0,66.0
1340,239.3515742666668,240.53365045208346,58.0,63.0
1341,240.21002063333347,240.55933535833347,63.0,82.0
1342,240.62097913333346,240.99084178333348,68.0,57.0
1343,241.03193763333346,241.38981399375012,72.0,57.0
1344,241.44289613333348,241.79221085833348,73.0,78.0
1345,241.44289613333348,241.8196080916668,68.0,67.0
1346,241.44289613333348,241.82303274583347,65.0,63.0
1347,241.85385463333347,242.3333062166668,53.0,39.0
1348,242.26481313333346,242.59186760625013,68.0,60.0
1349,242.26481313333346,242.62953880208346,65.0,57.0
1350,242.26481313333346,242.63467578333348,61.0,63.0
1351,242.26481313333346,243.23912724375015,58.0,51.0
1352,243.08673013333348,243.44974347500013,68.0,59.0
1353,243.08673013333348,243.53364750208345,61.0,59.0
1354,243.08673013333348,243.57474335208346,65.0,55.0
1355,242.67577163333345,243.98056487083346,53.0,42.0
1356,243.49768863333347,244.17130320000015,58.0,35.0
1357,243.90864713333346,244.20210025833347,65.0,66.0
1358,243.90864713333346,244.2292741333335,61.0,66.0
1359,243.90864713333346,244.23108572500016,68.0,72.0
1360,241.44289613333348,244.2926798416668,46.0,63.0
1361,244.3307232666668,244.58434610000015,53.0,50.0
1362,244.76550526666682,245.24376546666682,68.0,66.0
1363,244.76550526666682,245.2655045666668,60.0,69.0
1364,244.76550526666682,245.26912775000014,63.0,72.0
1365,245.2002872666668,245.51731580833348,51.0,44.0
1366,244.76550526666682,245.5263737666668,44.0,64.0
1367,245.63506926666682,246.03724261666682,68.0,70.0
1368,245.63506926666682,246.0426773916668,63.0,73.0
1369,245.63506926666682,246.12782220000014,60.0,72.0
1370,246.50463326666681,247.03053058958346,60.0,67.0
1371,246.50463326666681,247.0446150729168,63.0,73.0
1372,246.50463326666681,247.0551784354168,68.0,69.0
1373,246.50463326666681,247.4988396604168,53.0,56.0
1374,247.3562342666668,247.74389936250012,68.0,75.0
1375,246.50463326666681,247.8147948541668,41.0,61.0
1376,247.3562342666668,247.81852619583347,63.0,73.0
1377,247.3562342666668,247.84651125833346,60.0,73.0
1378,247.79054113333348,247.9323321166668,53.0,64.0
1379,248.23830213333346,248.64771614791678,60.0,82.0
1380,248.23830213333346,248.64940533750013,68.0,73.0
1381,248.23830213333346,248.71190535208345,63.0,76.0
1382,248.66629723333347,249.08183787083345,51.0,55.0
1383,249.07170273333347,249.32090505833347,56.0,53.0
1384,249.07170273333347,249.3695160916668,68.0,67.0
1385,249.07170273333347,249.3955577166668,60.0,82.0
1386,248.23830213333346,249.45979372500014,44.0,64.0
1387,249.07170273333347,249.50146032500012,63.0,72.0
1388,249.07170273333347,249.52750195000013,58.0,76.0
1389,249.48236313333345,249.55354357500013,51.0,66.0
1390,249.89902913333347,250.31569513333346,63.0,63.0
1391,249.89902913333347,250.32090345833348,67.0,73.0
1392,249.89902913333347,250.3226395666668,58.0,62.0
1393,249.89902913333347,250.8434720666668,39.0,72.0
1394,250.31569513333346,250.90770807500013,51.0,39.0
1395,250.73236113333346,250.99624960000014,43.0,75.0
1396,250.73236113333346,251.14208270000012,63.0,88.0
1397,250.73236113333346,251.14729102500013,58.0,75.0
1398,250.73236113333346,251.16465210833346,67.0,78.0
1399,251.56569313333347,251.95978972500012,63.0,60.0
1400,251.56569313333347,251.98235913333346,58.0,62.0
1401,251.56569313333347,252.00145632500013,60.0,66.0
1402,251.56569313333347,252.02749795000014,68.0,70.0
1403,252.39902513333345,252.54833045000012,58.0,76.0
1404,252.60735813333346,252.76117231250012,60.0,64.0
1405,251.56569313333347,252.93094835833347,44.0,69.0
1406,252.83020213333347,252.9328140291668,63.0,75.0
1407,252.19069213333347,253.03169458333346,56.0,75.0
1408,253.05408263333345,253.22012733750012,68.0,75.0
1409,251.98235913333346,253.22572435000012,51.0,63.0
1410,253.27796313333346,253.5391570500001,70.0,51.0
1411,253.50184363333346,253.60818687083346,72.0,69.0
1412,253.72572413333347,253.86564944583347,75.0,67.0
1413,253.94960463333345,254.0913956166668,80.0,69.0
1414,254.17348513333346,254.34885819166678,82.0,70.0
1415,254.17348513333346,254.5559476541668,56.0,43.0
1416,253.27796313333346,254.60445509583346,44.0,64.0
1417,253.50184363333346,254.6175147916668,51.0,63.0
1418,254.39736563333346,254.6287088166668,84.0,54.0
1419,254.62124613333347,254.8749773666668,87.0,69.0
1420,254.84512663333345,255.08020115833347,84.0,64.0
