,start,end,pitch,velocity
0,15.721412850000002,16.053555375000002,62.0,112.0
1,16.14998385,16.533912037500002,59.0,83.0
2,16.578554850000003,16.987483012500004,57.0,82.0
3,17.00712585,17.4589111125,55.0,82.0
4,17.435696850000003,17.762482237500002,57.0,93.0
5,17.86426785,18.0981961875,55.0,82.0
6,18.292838850000003,18.610695675000002,57.0,97.0
7,18.721409850000004,19.0589095125,59.0,90.0
8,19.149980850000002,19.5017662125,62.0,99.0
9,20.007122850000002,20.207122650000002,64.0,96.0
10,20.435693850000003,21.314264400000003,59.0,92.0
11,22.578548850000004,22.732120125,64.0,93.0
12,23.007119850000002,23.316048112500003,55.0,88.0
13,23.864261850000002,23.9731903125,55.0,93.0
14,24.078547350000004,24.187475812500004,64.0,90.0
15,24.292832850000003,24.480332662500004,62.0,100.0
16,24.72140385,25.264260450000002,55.0,93.0
17,25.578545850000005,25.719617137500002,55.0,92.0
18,25.792831350000004,25.999974,52.0,68.0
19,26.007116850000003,26.671401900000003,55.0,90.0
20,26.864258850000002,27.064258650000003,59.0,100.0
21,27.078544350000005,27.255329887500004,62.0,93.0
22,27.507115350000003,27.837472162500003,59.0,96.0
23,28.149971850000004,29.191042237500003,57.0,95.0
24,29.864255850000003,30.169612687500003,59.0,81.0
25,30.292826850000004,30.567826575000005,59.0,90.0
26,30.721397850000002,30.880326262500002,57.0,79.0
27,30.935683350000005,31.708896862500005,59.0,93.0
28,32.007110850000004,32.1731821125,59.0,97.0
29,32.221396350000006,32.499967500000004,66.0,100.0
30,32.649967350000004,33.468106283333334,67.0,99.0
31,33.292823850000005,33.559832758333336,66.0,100.0
32,33.72350156666667,33.90155884166667,64.0,102.0
33,33.93932856666667,34.1623498,62.0,92.0
34,34.37098256666667,34.88177313333334,64.0,93.0
35,35.01846356666667,35.11918283333333,64.0,90.0
36,35.23429056666667,35.64076475,59.0,83.0
37,35.66594456666667,35.83680760833334,57.0,83.0
38,35.88177156666667,36.33860538333334,55.0,92.0
39,36.313425566666666,36.48069149166667,62.0,96.0
40,36.74507956666667,36.921338283333334,55.0,95.0
41,37.60838756666667,37.73788376666667,55.0,93.0
42,37.82421456666667,37.94831509166667,64.0,85.0
43,38.04004156666667,38.367379183333334,62.0,90.0
44,38.47169556666667,38.743277875000004,55.0,93.0
45,39.33500356666667,39.45370841666667,55.0,79.0
46,39.55083056666667,39.664139741666666,52.0,78.0
47,39.766657566666666,40.433922708333334,55.0,92.0
48,40.62996556666667,41.39974853333334,57.0,96.0
49,41.49327356666667,43.0328395,55.0,83.0
50,44.94650556666667,45.28103741666667,62.0,112.0
51,45.37815956666667,45.7630640375,59.0,83.0
52,45.80770685,46.2166350125,57.0,82.0
53,46.23627785,46.688063112500004,55.0,82.0
54,46.664848850000006,46.9916342375,57.0,93.0
55,47.093419850000004,47.3273481875,55.0,82.0
56,47.52199085,47.839847675,57.0,97.0
57,47.95056185,48.2880615125,59.0,90.0
58,48.379132850000005,48.7309182125,62.0,99.0
59,49.23627485,49.43627465,64.0,96.0
60,49.664845850000006,50.543416400000005,59.0,92.0
61,51.80770085,51.961272125,64.0,93.0
62,52.23627185,52.545200112500005,55.0,88.0
63,53.093413850000005,53.2023423125,55.0,93.0
64,53.30769935000001,53.4166278125,64.0,90.0
65,53.52198485,53.7094846625,62.0,100.0
66,53.95055585,54.49341245000001,55.0,93.0
67,54.807697850000004,54.94876913750001,55.0,92.0
68,55.021983350000006,55.22912600000001,52.0,68.0
69,55.23626885,55.900553900000006,55.0,90.0
70,56.093410850000005,56.293410650000006,59.0,100.0
71,56.30769635,56.4844818875,62.0,93.0
72,56.736267350000006,57.066624162500005,59.0,96.0
73,57.379123850000006,58.420194237500006,57.0,95.0
74,59.093407850000006,59.398764687500005,59.0,81.0
75,59.52197885,59.796978575000004,59.0,90.0
76,59.95054985,60.109478262500005,57.0,79.0
77,60.164835350000004,60.938048862500004,59.0,93.0
78,61.23626285,61.40233411250001,59.0,97.0
79,61.450548350000005,61.72911950000001,66.0,100.0
80,61.87911935,62.696975675000004,67.0,99.0
81,62.521975850000004,62.7880470125,66.0,100.0
82,62.95054685000001,63.127332387500005,64.0,102.0
83,63.164832350000005,63.38626070000001,62.0,92.0
84,63.59340335,64.1005457,64.0,93.0
85,64.23625985000001,64.33625975000001,64.0,90.0
86,64.45054535,64.854116375,59.0,83.0
87,64.87911635,65.0487590375,57.0,83.0
88,65.09340185,65.54697282500001,55.0,92.0
89,65.52197285,65.68804411250001,62.0,96.0
90,65.95054385,66.125543675,55.0,95.0
91,66.80768585000001,66.93625715,55.0,93.0
92,67.02197135,67.1451855125,64.0,85.0
93,67.23625685,67.561256525,62.0,90.0
94,67.66482785000001,67.93447043750001,55.0,93.0
95,68.52196985,68.63982687500001,55.0,79.0
96,68.73625535000001,68.8487552375,52.0,78.0
97,68.95054085000001,69.6130401875,55.0,92.0
98,69.80768285,70.57196780000001,57.0,96.0
99,70.66482485,72.19339475000001,55.0,83.0
100,72.80767985,73.00946536250001,54.0,107.0
101,73.23625085,73.446964925,54.0,112.0
102,73.66482185000001,73.74517891250001,59.0,102.0
103,73.87910735,74.1344642375,59.0,122.0
104,76.23624785000001,76.3058906375,52.0,83.0
105,76.45053335,76.561247525,52.0,83.0
106,76.66481885,76.93089001250002,52.0,93.0
107,77.09338985000001,77.16838977500001,59.0,100.0
108,77.30767535000001,77.5701750875,59.0,117.0
109,77.73624635000002,77.94338900000001,59.0,127.0
110,78.16481735,78.3201743375,59.0,117.0
111,78.59338835,78.67910255000001,57.0,122.0
112,78.80767385000001,79.0416021875,55.0,102.0
113,79.23624485,79.482673175,64.0,122.0
114,79.66481585,79.93624415000001,62.0,102.0
115,80.52195785,80.632672025,62.0,102.0
116,80.73624335000001,80.88445748750001,59.0,90.0
117,80.95052885000001,81.24159998750001,64.0,102.0
118,81.37909985000002,81.65052815000001,62.0,112.0
119,82.23624185,82.346956025,59.0,100.0
120,82.45052735000002,82.54517011250002,62.0,102.0
121,82.66481285,83.1951694625,64.0,117.0
122,83.52195485000001,83.918383025,66.0,117.0
123,83.95052585,84.32731118750002,64.0,107.0
124,84.37909685000001,85.57016708750001,62.0,100.0
125,86.09338085000002,86.36659486250001,67.0,117.0
126,86.52195185000001,86.792557875,66.0,112.0
127,86.95262956666667,87.213420525,64.0,117.0
128,87.38428356666667,87.64687308333333,62.0,107.0
129,87.81593756666668,88.09651266666667,64.0,107.0
130,88.24759156666667,88.48500126666667,62.0,99.0
131,88.67924556666668,89.02816588333334,59.0,107.0
132,89.11089956666667,89.37348908333334,57.0,122.0
133,89.54255356666667,90.20082591666667,55.0,99.0
134,90.40586156666667,91.141471925,57.0,112.0
135,91.26916956666668,91.74938464166667,59.0,127.0
136,92.99578556666667,93.375281375,67.0,107.0
137,93.42743956666668,93.6987315625,66.0,117.0
138,93.85845875000001,94.17073437500001,64.0,100.0
139,94.28918375,94.6391478125,62.0,102.0
140,94.71990875,95.05731,64.0,100.0
141,95.15063375000001,95.49880312500001,62.0,96.0
142,95.58135875,95.90799187500001,59.0,117.0
143,96.01208375,96.29026031250001,57.0,107.0
144,96.44280875000001,97.2378553125,55.0,100.0
145,97.30425875,97.982650625,57.0,112.0
146,98.16570875000001,99.540439375,55.0,102.0
147,137.68277703333337,138.01973308333336,62.0,112.0
148,138.11755903333335,138.50434363750003,59.0,83.0
149,138.54914645000002,138.9595402125,57.0,82.0
150,138.97925345000002,139.43265791250002,55.0,82.0
151,139.40936045,139.73731703750002,57.0,93.0
152,139.83946745,140.07423418750002,55.0,82.0
153,140.26957445000002,140.588570475,57.0,97.0
154,140.69968145,141.03839071250002,59.0,90.0
155,141.12978845,141.48283461250003,62.0,99.0
156,141.99000245000002,142.19071905,64.0,96.0
157,142.42010945,143.3018288,59.0,92.0
158,144.57064445,144.724766125,64.0,93.0
159,145.00075145000002,145.31078691250002,55.0,88.0
160,145.86096545,145.9702843125,55.0,93.0
161,146.07601895000002,146.18533781250002,64.0,90.0
162,146.29107245,146.4792442625,62.0,100.0
163,146.72117945000002,147.26598165000001,55.0,93.0
164,147.58139345,147.72297033750002,55.0,92.0
165,147.79644695000002,148.004332,52.0,68.0
166,148.01150045000003,148.67816630000002,55.0,90.0
167,148.87171445,149.07243105,59.0,100.0
168,149.08676795000002,149.2641870875,62.0,93.0
169,149.51687495000002,149.84841576250003,59.0,96.0
170,150.16203545000002,151.2068370375,57.0,95.0
171,151.88246345000002,152.18891468750002,59.0,81.0
172,152.31257045,152.588555775,59.0,90.0
173,152.74267745,152.90217546250003,57.0,79.0
174,152.95773095,153.7337156625,59.0,93.0
175,154.03299845,154.19966491250003,59.0,97.0
176,154.24805195000002,154.5276215,66.0,100.0
177,154.67815895,155.49894647500003,67.0,99.0
178,155.32331945,155.5903442125,66.0,100.0
179,155.75342645,155.93084558750002,64.0,102.0
180,155.96847995000002,156.19070190000002,62.0,92.0
181,156.39858695,156.9075469,64.0,93.0
182,157.04374745,157.14410575000002,64.0,90.0
183,157.25880095000002,157.663818375,59.0,83.0
184,157.68890795000002,157.8591586375,57.0,83.0
185,157.90396145000003,158.359158025,55.0,92.0
186,158.33406845000002,158.5007349125,62.0,96.0
187,158.76417545,158.93980247500002,55.0,95.0
188,159.62438945000002,159.75342155,55.0,93.0
189,159.83944295,159.96309871250003,64.0,85.0
190,160.05449645000002,160.38066092500003,62.0,90.0
191,160.48460345,160.7552124375,55.0,93.0
192,161.34481745000002,161.46309687500002,55.0,79.0
193,161.55987095,161.6727740375,52.0,78.0
194,161.77492445000001,162.4397981875,55.0,92.0
195,162.63513845,163.40216260000003,57.0,96.0
196,163.49535245,165.02901675,55.0,83.0
197,165.64330185,165.8450873625,54.0,107.0
198,166.07187285,166.282586925,54.0,112.0
199,166.50044385,166.5808009125,59.0,102.0
200,166.71472935,166.9700862375,59.0,122.0
201,169.06170840833335,169.13037026458335,52.0,83.0
202,169.27297565833334,169.38213040416667,52.0,83.0
203,169.48424290833336,169.74656641041668,52.0,93.0
204,169.90677740833334,169.98072094583335,59.0,100.0
205,170.11804465833336,170.37684703958334,59.0,117.0
206,170.54057915833334,170.74480416666668,59.0,127.0
207,170.96311365833336,171.11628241458334,59.0,117.0
208,171.38564815833334,171.47015505833335,57.0,122.0
209,171.59691540833336,171.82754882291667,55.0,102.0
210,172.01944990833334,172.26240724583334,64.0,122.0
211,172.44198440833335,172.71150115000003,62.0,102.0
212,173.29721485000002,173.40792902500002,62.0,102.0
213,173.51150035,173.65971448750003,59.0,90.0
214,173.72578585000002,174.0168569875,64.0,102.0
215,174.15435685000003,174.42578515000002,62.0,112.0
216,175.01149885,175.122213025,59.0,100.0
217,175.22578435000003,175.32042711250003,62.0,102.0
218,175.44006985000001,175.97042646250003,64.0,117.0
219,176.29721185000002,176.693640025,66.0,117.0
220,176.72578285000003,177.10256818750003,64.0,107.0
221,177.15435385,178.34542408750002,62.0,100.0
222,184.07784403333335,184.42023485833334,67.0,122.0
223,184.51262603333336,184.79956047500002,66.0,127.0
224,184.94170664166668,185.2881879229167,64.0,107.0
225,185.3681451416667,185.69685815208337,62.0,89.0
226,185.7945836416667,186.1197429979167,64.0,107.0
227,186.22102214166668,186.60837044583337,62.0,79.0
228,186.6474606416667,186.96373586250002,59.0,112.0
229,187.0738991416667,187.34753051250001,57.0,112.0
230,187.5003376416667,188.11156615833335,55.0,100.0
231,188.35321464166668,189.02663210625002,57.0,122.0
232,189.2060916416667,190.23132086875003,59.0,127.0
233,190.9118456416667,191.20857576458337,67.0,117.0
234,191.3382841416667,191.6581130166667,66.0,127.0
235,191.7647226416667,191.9886028541667,64.0,117.0
236,192.1911611416667,192.41681818125002,62.0,112.0
237,192.6175996416667,192.87523956875003,64.0,107.0
238,193.0440381416667,193.32833047500003,62.0,117.0
239,193.4704766416667,193.74410801250002,59.0,112.0
240,193.89691514166668,194.18831478333337,57.0,100.0
241,194.3233536416667,194.92392119583337,55.0,99.0
242,195.1762306416667,195.82477252708335,57.0,112.0
243,196.02910764166668,197.41147911250002,55.0,102.0
244,197.7348616416667,198.02093080208337,67.0,127.0
245,198.1613001416667,198.4331546854167,66.0,122.0
246,198.5877386416667,198.85781635833337,64.0,99.0
247,199.0141771416667,199.2753707229167,62.0,95.0
248,199.44061564166668,199.72490797500004,64.0,122.0
249,199.8670541416667,200.10514897083337,62.0,107.0
250,200.2934926416667,200.58489228333337,59.0,107.0
251,200.7199311416667,200.97401741458336,57.0,112.0
252,201.1463696416667,201.82689441458336,55.0,112.0
253,201.9992466416667,202.6015910229167,57.0,127.0
254,202.8521236416667,203.7529749729167,59.0,127.0
255,204.55520990833338,204.8280967729167,67.0,127.0
256,204.97774440833336,205.23154700000003,66.0,127.0
257,205.38488033333337,205.64654700000003,64.0,107.0
258,205.78488033333338,206.03654705000005,62.0,100.0
259,206.18128395000005,206.41154720000003,64.0,107.0
260,206.57602095000004,206.80518756250007,62.0,100.0
261,206.96384125000006,207.21384100000006,59.0,117.0
262,207.34845625000005,207.58563550000005,57.0,107.0
263,207.73307125000005,208.32448100000005,55.0,112.0
264,208.51281433333338,209.06002892500004,57.0,127.0
265,209.32030264166673,210.96445312500006,55.0,127.0
