,start,end,pitch,velocity
0,2.0071408500000003,3.1392825750000006,43.0,79.0
1,2.43571185,3.1571397000000005,50.0,43.0
2,3.2928538500000006,3.9946388625000004,55.0,76.0
3,2.8642828500000004,4.026781687500001,62.0,90.0
4,4.149995850000001,4.710709575000001,54.0,66.0
5,3.7214248500000005,4.880352262500001,42.0,69.0
6,4.5785668500000005,5.416066012500001,59.0,74.0
7,5.00713785,5.519637337500001,55.0,72.0
8,5.435708850000001,6.433922137500001,40.0,78.0
9,5.864279850000001,6.4946363625000005,47.0,58.0
10,6.7214218500000005,7.101778612500001,52.0,65.0
11,6.292850850000001,7.1392785750000005,55.0,77.0
12,6.292850850000001,7.144635712500001,59.0,76.0
13,7.149992850000001,8.774991225,47.0,65.0
14,7.578563850000001,8.864276850000001,54.0,55.0
15,8.435705850000002,8.864276850000001,59.0,74.0
16,8.007134850000002,8.864276850000001,62.0,83.0
17,8.007134850000002,8.864276850000001,66.0,90.0
18,8.864276850000001,9.832133025000001,43.0,77.0
19,9.292847850000001,9.862490137500002,50.0,63.0
20,10.14998985,10.830346312500001,55.0,82.0
21,9.721418850000001,10.878560550000001,62.0,93.0
22,11.007131850000002,11.514274200000001,55.0,73.0
23,10.57856085,11.6482026375,42.0,81.0
24,11.435702850000002,12.303559125000001,59.0,83.0
25,11.864273850000002,12.416059012500002,55.0,67.0
26,12.721415850000001,13.233915337500001,52.0,48.0
27,13.149986850000001,13.669629187500002,55.0,74.0
28,13.149986850000001,13.778557650000002,59.0,81.0
29,14.007128850000003,14.676771037500002,55.0,69.0
30,14.007128850000003,14.703556725000002,59.0,74.0
31,13.578557850000001,14.732128125000003,52.0,50.0
32,12.292844850000002,14.757128100000003,40.0,78.0
33,14.864270850000002,15.462484537500002,38.0,69.0
34,14.864270850000002,15.646412925000002,50.0,81.0
35,14.864270850000002,15.682127175000002,54.0,88.0
36,14.864270850000002,15.689270025000003,57.0,77.0
37,16.14998385,17.117840025000003,50.0,47.0
38,15.721412850000002,17.1374828625,43.0,78.0
39,16.578554850000003,18.008910562500002,62.0,93.0
40,17.00712585,18.049981950000003,55.0,85.0
41,17.86426785,18.405338737500003,54.0,62.0
42,17.435696850000003,18.576767137500003,42.0,89.0
43,18.292838850000003,19.2267664875,62.0,76.0
44,18.292838850000003,19.257123600000003,59.0,71.0
45,18.721409850000004,19.474980525000003,55.0,63.0
46,19.149980850000002,20.132122725000002,40.0,70.0
47,19.578551850000004,20.164265550000003,47.0,48.0
48,20.007122850000002,20.858907712500002,55.0,76.0
49,20.007122850000002,20.883907687500002,59.0,77.0
50,20.435693850000003,20.891050537500004,52.0,63.0
51,21.292835850000003,21.839263875000004,54.0,66.0
52,20.86426485,21.9589066125,47.0,74.0
53,21.721406850000005,22.624977375000004,62.0,72.0
54,21.721406850000005,22.649977350000004,66.0,83.0
55,22.149977850000003,22.735691550000002,59.0,75.0
56,22.578548850000004,23.653547775000003,36.0,77.0
57,23.007119850000002,23.658904912500002,43.0,61.0
58,23.435690850000004,23.805333337500002,48.0,62.0
59,23.864261850000002,24.569618287500003,55.0,66.0
60,23.435690850000004,24.658903912500005,60.0,74.0
61,23.435690850000004,24.667832475000004,64.0,73.0
62,24.72140385,25.316046112500004,54.0,79.0
63,24.292832850000003,25.653545775000005,47.0,72.0
64,25.149974850000003,25.982116875000003,62.0,76.0
65,25.149974850000003,25.982116875000003,66.0,90.0
66,25.578545850000005,26.035688250000003,59.0,73.0
67,26.435687850000004,27.005330137500003,52.0,56.0
68,26.007116850000003,27.149972850000005,45.0,72.0
69,26.864258850000002,27.844615012500004,64.0,77.0
70,26.864258850000002,27.880329262500002,60.0,73.0
71,27.292829850000004,28.042829100000002,57.0,70.0
72,28.149971850000004,28.676757037500003,50.0,82.0
73,28.364257350000003,28.782114075000003,57.0,83.0
74,27.721400850000002,28.953542475000003,38.0,78.0
75,27.935686350000005,28.958899612500005,45.0,52.0
76,28.792828350000004,29.064256650000004,50.0,74.0
77,28.578542850000005,29.455327687500002,66.0,117.0
78,29.221399350000002,29.467827675000002,57.0,88.0
79,29.007113850000003,29.480327662500002,62.0,75.0
80,29.435684850000005,31.001754712500006,47.0,68.0
81,29.864255850000003,31.201754512500003,54.0,60.0
82,30.292826850000004,31.598182687500003,62.0,75.0
83,30.292826850000004,31.619611237500003,66.0,96.0
84,30.721397850000002,31.919610937500003,59.0,79.0
85,31.578539850000006,32.14996785,54.0,69.0
86,31.149968850000004,32.23568205,47.0,64.0
87,32.007110850000004,32.42139615000001,66.0,107.0
88,32.007110850000004,33.196395375,62.0,86.0
89,32.43568185,33.80623525,59.0,73.0
90,32.86425285000001,34.459111925,40.0,67.0
91,33.292823850000005,34.62817640833334,47.0,48.0
92,33.72350156666667,34.6371692,52.0,55.0
93,33.72350156666667,35.1335713,67.0,86.0
94,33.72350156666667,35.28824731666667,64.0,86.0
95,34.15515556666667,35.53285125,59.0,74.0
96,35.45011756666667,35.64975754166667,52.0,59.0
97,35.01846356666667,35.79004509166667,47.0,48.0
98,34.58680956666667,35.802635,40.0,66.0
99,35.45011756666667,36.2127063,67.0,75.0
100,35.45011756666667,36.290044308333336,64.0,78.0
101,35.88177156666667,36.390763575,59.0,67.0
102,36.313425566666666,37.35479084166667,36.0,83.0
103,36.74507956666667,37.36018651666667,43.0,55.0
104,37.17673356666667,37.498675508333335,48.0,53.0
105,37.17673356666667,38.12637236666667,60.0,85.0
106,37.17673356666667,38.146156508333334,64.0,79.0
107,37.60838756666667,38.160544975,55.0,81.0
108,38.04004156666667,39.471694,43.0,78.0
109,38.90334956666667,39.62996713333334,62.0,82.0
110,38.90334956666667,39.719895050000005,59.0,86.0
111,39.33500356666667,39.746873425000004,55.0,83.0
112,38.47169556666667,39.757664775,50.0,63.0
113,39.766657566666666,40.261261108333336,45.0,92.0
114,40.19831156666667,40.56341890833333,64.0,73.0
115,40.19831156666667,40.71629636666667,57.0,72.0
116,40.19831156666667,40.73608050833334,60.0,81.0
117,40.62996556666667,41.11557631666667,38.0,75.0
118,41.06161956666667,41.57420869166667,66.0,96.0
119,41.06161956666667,41.59758995,62.0,90.0
120,42.14075456666667,42.379962825,57.0,79.0
121,41.70910056666667,42.42492678333333,50.0,64.0
122,41.92492756666667,42.43571813333334,55.0,62.0
123,41.49327356666667,43.15154435,43.0,73.0
124,42.57240856666667,43.173127050000005,50.0,70.0
125,42.78823556666667,43.41413386666667,59.0,76.0
126,43.219889566666666,44.50945589166667,43.0,58.0
127,42.35658156666667,44.68031893333334,62.0,88.0
128,43.00406256666667,44.77024685000001,57.0,69.0
129,45.37815956666667,46.3416348875,50.0,77.0
130,44.94650556666667,46.377349137500005,43.0,95.0
131,45.80770685,46.700563100000004,62.0,95.0
132,46.23627785,47.150562650000005,55.0,82.0
133,45.80770685,47.204134025,59.0,90.0
134,47.093419850000004,47.639847875,54.0,92.0
135,46.664848850000006,47.739847775,42.0,99.0
136,47.52199085,48.334490037500004,66.0,100.0
137,47.95056185,48.336275750000006,42.0,72.0
138,47.52199085,48.3523471625,59.0,77.0
139,48.379132850000005,49.382703275000004,40.0,76.0
140,48.80770385,49.439846075000005,47.0,79.0
141,49.664845850000006,49.9719884,40.0,75.0
142,49.23627485,50.180916762500004,59.0,83.0
143,49.23627485,50.188059612500005,55.0,82.0
144,50.093416850000004,51.348772737500006,35.0,68.0
145,50.52198785,51.434486937500004,42.0,72.0
146,51.379129850000005,51.832700825,50.0,88.0
147,50.95055885000001,51.832700825,54.0,82.0
148,50.95055885000001,51.868415075,59.0,88.0
149,52.23627185,52.7916284375,43.0,59.0
150,52.66484285000001,53.0737710125,48.0,70.0
151,51.80770085,53.113056687500006,36.0,85.0
152,53.093413850000005,53.454127775,43.0,93.0
153,52.66484285000001,53.52198485,52.0,64.0
154,52.66484285000001,53.52198485,55.0,83.0
155,52.66484285000001,53.52198485,60.0,89.0
156,53.95055585,54.4630553375,50.0,89.0
157,53.52198485,54.932697725000004,43.0,95.0
158,54.59341235,55.207697450000005,50.0,68.0
159,54.807697850000004,55.28448308750001,55.0,90.0
160,54.379126850000006,55.29341165,59.0,85.0
161,54.379126850000006,55.3237687625,62.0,90.0
162,55.66483985000001,56.1719822,52.0,70.0
163,56.30769635,56.430910512500006,52.0,70.0
164,55.23626885,56.479124750000004,45.0,86.0
165,56.093410850000005,56.6023389125,60.0,95.0
166,56.736267350000006,56.936267150000006,60.0,90.0
167,56.093410850000005,56.9773385375,64.0,93.0
168,56.52198185,57.246981125000005,57.0,89.0
169,57.379123850000006,57.8487662375,50.0,88.0
170,56.95055285000001,58.025551775000004,38.0,85.0
171,57.164838350000004,58.0291232,45.0,71.0
172,58.02198035000001,58.14698022500001,50.0,42.0
173,57.59340935,58.1987658875,57.0,85.0
174,57.807694850000004,58.63626545,66.0,112.0
175,58.23626585,58.67019398750001,62.0,92.0
176,58.450551350000005,58.675551125000005,57.0,90.0
177,58.66483685,60.2862638,47.0,74.0
178,59.093407850000006,60.4130493875,54.0,86.0
179,59.52197885,61.08983442500001,62.0,90.0
180,59.95054985,61.111262975,59.0,88.0
181,59.52197885,61.11483440000001,66.0,99.0
182,60.807691850000005,61.375548425000005,54.0,78.0
183,61.450548350000005,61.57911965000001,54.0,67.0
184,60.37912085000001,61.686262400000004,47.0,82.0
185,61.23626285,62.0023335125,66.0,107.0
186,61.66483385000001,62.3523331625,59.0,93.0
187,61.23626285,62.39340455,62.0,95.0
188,62.95054685000001,63.307689350000004,52.0,73.0
189,62.093404850000006,63.639831875000006,40.0,90.0
190,62.521975850000004,63.795188862500005,47.0,61.0
191,62.95054685000001,64.0434029,64.0,96.0
192,62.95054685000001,64.1344742375,67.0,95.0
193,63.37911785,64.25054555,59.0,85.0
194,64.23625985000001,64.54697382500001,67.0,36.0
195,64.23625985000001,64.58268807500001,64.0,78.0
196,64.66483085,64.83090211250001,52.0,81.0
197,64.23625985000001,64.99161623750001,47.0,41.0
198,63.807688850000005,65.0487590375,40.0,75.0
199,64.66483085,65.0987589875,67.0,97.0
200,64.66483085,65.118401825,64.0,99.0
201,65.09340185,65.56304423750001,59.0,96.0
202,65.52197285,66.2809006625,60.0,81.0
203,65.52197285,66.2809006625,64.0,75.0
204,65.52197285,66.6701859875,36.0,76.0
205,65.95054385,66.70768595000001,43.0,45.0
206,66.37911485000001,66.846971525,48.0,82.0
207,66.37911485000001,67.05411417500001,64.0,72.0
208,66.37911485000001,67.07375701250001,60.0,77.0
209,66.80768585000001,67.30768535000001,55.0,70.0
210,67.23625685,67.75947061250001,59.0,90.0
211,67.23625685,67.79518486250001,62.0,96.0
212,67.23625685,68.49339845,43.0,73.0
213,68.09339885,68.6916125375,62.0,92.0
214,68.09339885,68.732683925,59.0,96.0
215,68.52196985,68.78089816250001,55.0,89.0
216,67.66482785000001,68.8880409125,50.0,89.0
217,68.95054085000001,69.4237546625,45.0,112.0
218,69.37911185,69.81661141250001,64.0,86.0
219,69.37911185,70.075539725,60.0,95.0
220,69.37911185,70.0844682875,57.0,67.0
221,69.80768285,70.3308966125,38.0,77.0
222,70.23625385,70.3808965625,45.0,62.0
223,70.23625385,70.6862534,62.0,102.0
224,70.23625385,70.70053910000001,66.0,117.0
225,71.09339585000001,71.48803831250001,55.0,86.0
226,70.87911035,71.5862525,50.0,68.0
227,71.30768135000001,71.64339530000001,57.0,93.0
228,70.66482485,72.211251875,43.0,72.0
229,71.52196685000001,72.325537475,62.0,112.0
230,71.95053785,72.33803746250001,59.0,89.0
231,71.73625235,72.346966025,50.0,58.0
232,72.16482335,72.35053745,55.0,86.0
233,72.59339435000001,73.17375091250001,49.0,60.0
234,72.37910885000001,73.24517941250001,42.0,81.0
235,72.80767985,73.268393675,54.0,92.0
236,73.23625085,73.532679125,66.0,102.0
237,73.02196535,73.53803626250001,57.0,76.0
238,73.66482185000001,73.7719646,66.0,75.0
239,73.66482185000001,73.77910745,62.0,76.0
240,73.66482185000001,73.78446458750001,59.0,71.0
241,73.66482185000001,73.7862503,47.0,73.0
242,73.87910735,74.63624945000001,59.0,74.0
243,73.87910735,74.6433923,62.0,79.0
244,73.87910735,74.64874943750002,66.0,83.0
245,73.87910735,75.0237490625,47.0,88.0
246,74.73624935000001,75.05589188750001,59.0,86.0
247,75.16482035000001,75.2773202375,47.0,58.0
248,74.95053485000001,75.5576771,66.0,117.0
249,75.37910585,75.64696272500001,62.0,102.0
250,75.59339135,76.12731938750001,59.0,90.0
251,76.23624785000001,76.7094616625,52.0,79.0
252,76.45053335,76.99160423750001,59.0,81.0
253,76.87910435,77.1291041,52.0,92.0
254,75.80767685000001,77.375532425,40.0,83.0
255,76.02196235000001,77.52553227500002,47.0,69.0
256,77.30767535000001,78.0058889375,59.0,96.0
257,77.09338985000001,78.08624600000002,64.0,89.0
258,76.66481885,78.09338885,67.0,100.0
259,77.95053185,78.28624580000002,52.0,78.0
260,77.73624635000002,78.45410277500001,47.0,65.0
261,78.16481735,78.561245525,59.0,93.0
262,77.52196085,78.7433882,40.0,78.0
263,78.59338835,78.7487453375,47.0,90.0
264,78.37910285000001,79.0719593,67.0,102.0
265,78.80767385000001,79.10767355000002,64.0,95.0
266,79.02195935,79.2380305625,59.0,97.0
267,79.66481585,80.1594582125,48.0,90.0
268,79.02195935,80.2166010125,36.0,78.0
269,79.87910135000001,80.27374381250002,55.0,88.0
270,79.45053035000001,80.4380293625,43.0,73.0
271,80.30767235,80.5094578625,48.0,96.0
272,80.52195785,80.8701717875,60.0,99.0
273,80.09338685,80.87195750000001,64.0,100.0
274,80.73624335000001,80.92195745000001,55.0,96.0
275,81.37909985000002,81.61659961250001,55.0,86.0
276,81.59338535,81.83445653750002,59.0,96.0
277,81.16481435,81.904099325,50.0,81.0
278,80.95052885000001,82.1737419125,43.0,82.0
279,82.23624185,82.60231291250001,59.0,96.0
280,81.80767085000001,82.61302718750001,62.0,97.0
281,82.45052735000002,82.62195575000001,55.0,89.0
282,82.02195635000001,82.69338425000001,50.0,85.0
283,83.09338385000001,83.32909790000001,57.0,92.0
284,83.30766935,83.48802631250001,60.0,99.0
285,82.87909835,83.6005262,52.0,78.0
286,83.73624035,83.87909735000001,52.0,85.0
287,82.66481285,83.9523115625,45.0,86.0
288,83.95052585,84.22195415000002,60.0,122.0
289,83.52195485000001,84.2630255375,64.0,100.0
290,84.16481135000001,84.40945396250001,57.0,97.0
291,84.80766785,85.30766735,50.0,86.0
292,85.02195335000002,85.4719529,57.0,96.0
293,85.45052435000001,85.8273096875,50.0,93.0
294,84.37909685000001,85.87016678750001,38.0,97.0
295,84.59338235000001,85.946952425,45.0,99.0
296,85.23623885,85.98802381250002,66.0,122.0
297,85.66480985000001,85.99873808750002,62.0,102.0
298,85.87909535,86.018380925,57.0,102.0
299,86.73680256666667,86.89867281666668,55.0,85.0
300,86.52195185000001,86.95262956666667,52.0,85.0
301,86.30766635,87.01917622500001,47.0,79.0
302,86.09338085000002,87.31593835000001,40.0,93.0
303,86.95262956666667,87.37888789166668,59.0,117.0
304,87.16845656666668,87.418456175,47.0,92.0
305,87.38428356666667,87.62529038333334,55.0,99.0
306,87.60011056666667,87.742196675,59.0,99.0
307,88.24759156666667,88.519173875,59.0,86.0
308,88.46341856666668,88.65226719166667,62.0,95.0
309,88.03176456666667,88.74938934166667,54.0,92.0
310,88.89507256666667,89.06053993333335,54.0,99.0
311,87.81593756666668,89.09111542500001,47.0,90.0
312,89.11089956666667,89.40766169166668,62.0,112.0
313,88.67924556666668,89.41485592500001,66.0,122.0
314,89.32672656666668,89.53176221666668,59.0,99.0
315,89.54255356666667,90.26197690000001,36.0,90.0
316,89.97420756666668,90.28715671666667,48.0,99.0
317,89.75838056666667,90.37888319166667,43.0,92.0
318,90.19003456666667,90.63607703333334,64.0,100.0
319,90.40586156666667,91.01916995833334,38.0,82.0
320,90.62168856666668,91.09111229166668,45.0,92.0
321,90.83751556666667,91.2331984,50.0,93.0
322,91.05334256666667,91.26916956666668,62.0,102.0
323,91.70082356666667,92.08751360833334,55.0,90.0
324,91.91665056666668,92.17024729166667,57.0,92.0
325,91.48499656666667,92.20262134166667,50.0,70.0
326,92.34830456666667,92.58391570833334,50.0,92.0
327,91.26916956666668,92.60190129166668,43.0,78.0
328,92.13247756666667,92.88967062500001,62.0,107.0
329,92.56413156666667,92.89146918333334,59.0,95.0
330,92.77995856666668,92.98679277500001,55.0,89.0
331,93.42743956666668,93.9212728125,52.0,82.0
332,93.64309625,94.163555625,59.0,77.0
333,92.99578556666667,94.17073437500001,40.0,89.0
334,93.21161256666667,94.20124406250001,47.0,78.0
335,94.07382125000001,94.2909784375,52.0,74.0
336,94.28918375,94.59966468750001,64.0,92.0
337,93.85845875000001,94.62479031250001,67.0,99.0
338,94.50454625,94.766570625,59.0,96.0
339,95.15063375000001,95.5311075,59.0,83.0
340,95.36599625000001,95.5831534375,62.0,77.0
341,94.93527125,95.68904,54.0,72.0
342,95.79672125,95.97798468750001,54.0,95.0
343,94.71990875,95.9923421875,47.0,77.0
344,95.58135875,96.29923375,66.0,117.0
345,96.01208375,96.30102843750001,62.0,99.0
346,96.22744625,96.4302459375,59.0,89.0
347,96.44280875000001,96.8232825,45.0,95.0
348,96.87353375,97.221703125,64.0,97.0
349,97.08889625,97.25580218750001,60.0,90.0
350,96.65817125000001,97.3096428125,57.0,90.0
351,97.30425875,97.8570225,38.0,76.0
352,97.51962125,98.00598156250001,45.0,83.0
353,97.73498375000001,98.12981500000001,50.0,97.0
354,97.95034625000001,98.16929812500001,62.0,97.0
355,98.59643375,99.10433031250001,55.0,89.0
356,98.38107125,99.11868781250001,50.0,82.0
357,98.81179625,99.1491975,57.0,86.0
358,99.24252125000001,99.73892271250001,50.0,77.0
359,98.16570875000001,99.79249408750002,43.0,81.0
360,99.45788375000001,99.89249398750002,59.0,88.0
361,99.88713685000002,99.89249398750002,59.0,95.0
362,99.67285135000002,99.91213682500002,55.0,95.0
363,99.02715875000001,99.91213682500002,62.0,100.0
364,99.88713685000002,100.64785037500002,64.0,99.0
365,99.88713685000002,100.64963608750001,67.0,89.0
366,100.31570785000001,100.97106433750001,47.0,56.0
367,99.88713685000002,100.97820718750002,40.0,85.0
368,100.74427885000001,101.10142135000001,52.0,82.0
369,100.74427885000001,101.20142125000001,64.0,96.0
370,100.74427885000001,101.20677838750001,67.0,95.0
371,101.17284985,101.47642097500001,59.0,102.0
372,101.60142085000001,102.31034871250002,62.0,96.0
373,101.60142085000001,102.31034871250002,66.0,95.0
374,101.60142085000001,102.3139201375,59.0,95.0
375,102.02999185000002,102.43177716250001,54.0,41.0
376,101.60142085000001,102.54427705,47.0,79.0
377,102.45856285,102.95141950000001,62.0,99.0
378,102.45856285,102.95320521250001,66.0,117.0
379,102.88713385000001,103.02999085000002,59.0,83.0
380,103.31570485000002,103.7103473125,36.0,82.0
381,103.31570485000002,103.77463296250001,64.0,90.0
382,103.31570485000002,103.94606136250002,55.0,96.0
383,103.31570485000002,104.02641842500002,60.0,99.0
384,104.17284685000001,104.50141795000002,38.0,88.0
385,104.17284685000001,104.59606071250002,66.0,100.0
386,104.17284685000001,104.63177496250002,62.0,96.0
387,104.17284685000001,104.73534628750001,57.0,90.0
388,105.02998885000001,105.56927402500001,62.0,90.0
389,105.02998885000001,105.61570255000001,59.0,96.0
390,105.45855985000001,105.74427385000001,55.0,95.0
391,105.24427435000001,105.98891646250001,50.0,86.0
392,105.67284535000002,105.99248788750002,57.0,100.0
393,105.02998885000001,106.65677293750001,43.0,88.0
394,106.10141635000001,106.697844325,50.0,99.0
395,106.31570185000001,106.72820143750002,59.0,95.0
396,106.52998735000001,106.73713000000001,55.0,86.0
397,105.88713085,106.75320141250002,62.0,122.0
398,107.17284385,107.64248623750001,55.0,93.0
399,107.38712935000001,107.74962898750002,62.0,102.0
400,106.74427285000002,107.92462881250002,43.0,99.0
401,106.95855835000002,107.92998595000002,50.0,95.0
402,107.81570035000001,107.93891451250002,55.0,86.0
403,108.02998585000002,108.40711628125001,67.0,93.0
404,107.60141485000001,108.41605762500002,71.0,112.0
405,108.24438382500001,108.56984873750001,62.0,96.0
406,109.10275282500001,109.38351101875001,62.0,70.0
407,108.67356832500002,109.41033505000001,54.0,95.0
408,108.88816057500001,109.43537081250001,59.0,82.0
409,109.53193732500002,109.72507035000001,54.0,92.0
410,108.45897607500001,109.82342513125002,42.0,96.0
411,109.31734507500002,109.99688720000002,66.0,70.0
412,109.74652957500001,110.15067831250002,62.0,96.0
413,109.96112182500002,110.31877557500002,59.0,76.0
414,110.60489857500002,111.07163671875001,52.0,93.0
415,110.81949082500002,111.31126473125002,59.0,75.0
416,110.17571407500002,111.42571393125002,40.0,72.0
417,110.39030632500001,111.46684411250001,47.0,83.0
418,111.24867532500002,111.58844638750001,52.0,95.0
419,111.46326757500002,111.73329615625002,64.0,99.0
420,111.03408307500001,111.77084980000002,67.0,107.0
421,111.67785982500001,111.89781688125001,59.0,93.0
422,112.32163657500001,112.65961936875001,59.0,90.0
423,112.53622882500001,112.75797415000001,62.0,96.0
424,112.10704432500002,112.87242335000002,54.0,74.0
425,112.96541332500001,113.08165079375001,54.0,93.0
426,111.89245207500001,113.17821730625002,47.0,82.0
427,112.75082107500002,113.47685818750001,66.0,127.0
428,113.18000557500001,113.49295260625001,62.0,112.0
429,113.39459782500002,113.62349622500001,59.0,107.0
430,114.03837457500002,114.56412558750002,48.0,85.0
431,113.60919007500001,114.74652900000001,36.0,90.0
432,113.82378232500001,114.76977649375002,43.0,92.0
433,114.25296682500002,114.78944745000001,55.0,95.0
434,114.68215132500002,114.96290951875001,48.0,92.0
435,114.89674357500002,115.34559903125002,60.0,96.0
436,114.46755907500001,115.35632864375002,64.0,99.0
437,115.11133582500001,115.39209401875002,55.0,95.0
438,115.75511257500001,115.98937578125002,55.0,75.0
439,115.96970482500001,116.11455459375001,62.0,78.0
440,115.96970482500001,116.11991940000001,59.0,74.0
441,115.54052032500002,116.29516973750002,50.0,83.0
442,116.18429707500002,116.67964751875002,59.0,100.0
443,116.61348157500001,116.89960457500001,55.0,96.0
444,115.32592807500002,116.91569899375001,43.0,79.0
445,116.82807382500002,117.01047723750001,59.0,97.0
446,116.18429707500002,117.01047723750001,62.0,100.0
447,116.39888932500001,117.01226550625002,50.0,89.0
448,117.47185057500002,117.68823109375002,57.0,89.0
449,117.68644282500001,117.80983336875002,60.0,88.0
450,117.68644282500001,117.82056298125002,64.0,86.0
451,117.25725832500001,117.95825967500002,52.0,72.0
452,118.11562732500002,118.24795921250002,52.0,92.0
453,117.04266607500001,118.25153575000002,45.0,89.0
454,117.90103507500001,118.33379611250001,60.0,102.0
455,117.90103507500001,118.64674314375002,64.0,97.0
456,118.54481182500001,118.75940407500002,60.0,107.0
457,118.33021957500002,119.04373880625002,57.0,99.0
458,119.40318082500002,119.70539824375001,57.0,93.0
459,119.18858857500001,119.71970439375002,50.0,90.0
460,119.83236532500001,120.03801623125001,50.0,99.0
461,119.61777307500002,120.08451121875001,62.0,99.0
462,118.75940407500002,120.34202191875002,38.0,79.0
463,119.61777307500002,120.35990460625001,66.0,122.0
464,120.04695757500002,120.37957556250001,57.0,100.0
465,120.26154982500002,120.46183592500002,62.0,112.0
466,118.97399632500002,120.46898900000002,45.0,95.0
467,120.47614207500001,120.56913205000001,40.0,57.0
468,120.47614207500001,120.59416781250002,52.0,83.0
469,120.47614207500001,120.59953261875002,47.0,67.0
470,120.47614207500001,120.60132088750001,64.0,96.0
471,120.47614207500001,120.60847396250001,67.0,93.0
472,120.47614207500001,120.61383876875001,59.0,95.0
473,120.69073432500002,120.89996176875002,40.0,61.0
474,120.69073432500002,120.90175003750002,47.0,69.0
475,120.69073432500002,120.92857406875001,52.0,76.0
476,120.69073432500002,120.94645675625002,64.0,90.0
477,120.69073432500002,120.95897463750002,59.0,74.0
478,120.69073432500002,120.96612771250001,67.0,81.0
479,121.54910332500002,121.69037655625002,59.0,82.0
480,121.54910332500002,121.71362405000002,47.0,83.0
481,121.76369557500001,121.94073418125001,52.0,78.0
482,121.76369557500001,121.97292301875001,64.0,89.0
483,121.97828782500001,122.08200741250002,47.0,78.0
484,121.97828782500001,122.08737221875002,59.0,86.0
485,122.19288007500002,122.26441082500001,62.0,89.0
486,122.19288007500002,122.26798736250001,47.0,89.0
487,122.19288007500002,122.27692870625002,59.0,93.0
488,122.19288007500002,122.28050524375001,66.0,93.0
489,122.40747232500001,122.64173553125002,62.0,85.0
490,122.40747232500001,122.67034783125001,66.0,90.0
491,122.40747232500001,122.67213610000002,47.0,76.0
492,122.40747232500001,122.67213610000002,59.0,79.0
493,123.90961807500001,124.45325177500001,64.0,86.0
494,123.90961807500001,124.56233616875002,55.0,88.0
495,123.90961807500001,124.59452500625002,36.0,83.0
496,123.90961807500001,124.68393844375001,60.0,92.0
497,124.33880257500002,124.81805860000001,43.0,58.0
498,124.76798707500001,125.14710005000002,38.0,82.0
499,124.76798707500001,125.24545483125002,62.0,92.0
500,124.76798707500001,125.24545483125002,66.0,93.0
501,124.76798707500001,125.44395266250001,57.0,85.0
502,126.05554057500001,126.40246471250002,55.0,85.0
503,125.84094832500001,126.58665639375002,50.0,72.0
504,126.27013282500002,126.61169215625002,57.0,82.0
505,125.62635607500002,127.24295102500001,43.0,90.0
506,126.91390957500002,127.31984658125002,59.0,92.0
507,126.48472507500001,127.33057619375002,62.0,102.0
508,126.69931732500001,127.34845888125001,50.0,52.0
509,127.77227857500002,128.05482503750002,57.0,77.0
510,127.98687082500001,128.29445305000002,59.0,70.0
511,127.55768632500002,128.31054746875003,52.0,56.0
512,127.34309407500001,128.9131940375,45.0,89.0
513,128.416055325,129.02227843125002,52.0,74.0
514,128.84523982500002,129.04373765625002,57.0,99.0
515,128.630647575,129.12420975,60.0,92.0
516,128.20146307500002,129.14209243750003,64.0,99.0
517,129.48901657500002,129.72327978125003,57.0,88.0
518,129.274424325,129.97542567500003,52.0,78.0
519,129.703608825,129.99867316875003,59.0,95.0
520,129.05983207500003,130.19538273125002,45.0,79.0
521,130.13279332500002,130.39209229375,60.0,67.0
522,130.561977825,130.747957775,60.0,88.0
523,129.918201075,130.77120526875,64.0,107.0
524,130.347385575,130.92141984375002,57.0,88.0
525,131.20575457500001,131.677857525,50.0,83.0
526,131.42034682500002,131.91927380625,57.0,83.0
527,131.84953132500002,132.02299339375003,50.0,79.0
528,131.634939075,132.3145632,66.0,117.0
529,132.06412357500002,132.3360378,62.0,100.0
530,130.77657007500002,132.40583025,38.0,63.0
531,132.27877220000002,132.42551530000003,57.0,83.0
532,130.991162325,132.43625260000002,45.0,54.0
533,132.4935182,137.5668351666667,57.0,100.0
534,132.4935182,137.5777047166667,62.0,102.0
535,132.4935182,137.58132790000002,38.0,44.0
536,132.4935182,137.58857426666668,45.0,55.0
537,132.4935182,137.58857426666668,50.0,93.0
538,132.4935182,137.5994438166667,66.0,100.0
539,135.94364903333337,137.67734225833337,98.0,127.0
540,138.11755903333335,138.39144055000003,55.0,93.0
541,138.33409295,138.5706518,59.0,93.0
542,137.90016803333336,138.58140447500003,50.0,93.0
543,137.68277703333337,138.8412607875,43.0,88.0
544,138.76419995,138.86276613750002,50.0,81.0
545,138.54914645000002,139.34842862500003,62.0,107.0
546,138.97925345000002,139.35380496250002,59.0,96.0
547,139.19430695000003,139.46670805000002,55.0,90.0
548,139.83946745,140.07244207500003,55.0,63.0
549,139.62441395000002,140.2892876875,54.0,92.0
550,140.05452095,140.34663528750002,59.0,72.0
551,140.26957445000002,140.7086420125,62.0,86.0
552,140.48462795,140.71939468750003,54.0,88.0
553,139.40936045,140.80541608750002,42.0,74.0
554,140.69968145,141.15308591250002,59.0,93.0
555,140.91473495000002,141.1745912625,62.0,96.0
556,141.55989545000003,142.0778159625,52.0,86.0
557,141.77494895,142.25702721250002,55.0,81.0
558,141.12978845,142.46312015,40.0,74.0
559,141.34484195000002,142.4971702875,47.0,90.0
560,142.20505595,142.56706267500002,52.0,83.0
561,142.42010945,142.79824518750002,59.0,93.0
562,142.63516295000002,142.81975053750003,55.0,95.0
563,141.99000245000002,142.843048,64.0,99.0
564,143.28032345000003,143.55989300000002,59.0,85.0
565,143.49537695,143.67100397500002,62.0,89.0
566,143.06526995000002,143.8376704375,54.0,88.0
567,143.92548395,144.0706450625,54.0,95.0
568,142.85021645,144.12978477500002,47.0,89.0
569,143.71043045000002,144.19430082500003,62.0,77.0
570,143.71043045000002,144.51508896250002,66.0,117.0
571,144.35559095000002,144.531217975,62.0,102.0
572,144.14053745,144.559891775,59.0,99.0
573,145.21580495,145.4362347875,55.0,86.0
574,145.00075145000002,145.49358238750003,48.0,90.0
575,144.57064445,145.70325955,36.0,90.0
576,144.78569795,145.7480623625,43.0,86.0
577,145.64591195000003,145.83766798750003,48.0,97.0
578,145.43085845000002,145.92189727500002,60.0,100.0
579,145.86096545,146.19429837500002,55.0,95.0
580,145.43085845000002,146.283904,64.0,99.0
581,146.07601895000002,146.29465667500003,60.0,122.0
582,146.72117945000002,146.925480275,55.0,95.0
583,146.93623295,147.0778098375,62.0,81.0
584,146.93623295,147.0849782875,59.0,85.0
585,146.50612595,147.233723625,50.0,72.0
586,147.15128645000001,147.62798837500003,59.0,102.0
587,147.15128645000001,147.83049708750002,62.0,102.0
588,146.29107245,147.83945765,43.0,78.0
589,147.58139345,147.8555866625,55.0,100.0
590,147.79644695000002,147.921894825,59.0,93.0
591,147.36633995000003,147.98641087500002,50.0,100.0
592,148.01150045000003,148.48103392500002,60.0,95.0
593,148.01150045000003,148.59572912500002,64.0,97.0
594,148.01150045000003,148.731929675,57.0,77.0
595,148.44160745000002,148.94160683750002,52.0,96.0
596,148.87171445,149.13515498750002,57.0,112.0
597,149.08676795000002,149.25881075,52.0,97.0
598,148.01150045000003,149.27493976250003,45.0,97.0
599,148.87171445,149.35379271250002,64.0,100.0
600,148.87171445,149.36454538750002,60.0,122.0
601,149.51687495000002,149.58318311250002,45.0,33.0
602,149.51687495000002,149.65665972500003,62.0,93.0
603,149.30182145,149.69250197500003,57.0,93.0
604,149.73192845000003,149.9111397,66.0,127.0
605,149.73192845000003,149.92368448750003,62.0,97.0
606,149.73192845000003,149.9882005375,57.0,73.0
607,150.16203545000002,150.4039706375,50.0,99.0
608,150.59214245,150.61364780000002,56.0,59.0
609,150.37708895000003,150.64949005000003,54.0,117.0
610,149.94698195,150.72296666250003,45.0,89.0
611,150.80719595000002,150.9702781875,45.0,96.0
612,149.73192845000003,150.9774466375,38.0,95.0
613,151.02224945,151.4021773,54.0,127.0
614,150.59214245,151.41113786250003,57.0,107.0
615,151.23730295000001,151.434435325,50.0,92.0
616,152.09751695000003,152.3537890375,59.0,92.0
617,151.88246345000002,152.38246283750001,47.0,83.0
618,151.45235645000002,152.7337168875,35.0,85.0
619,151.66740995,152.7785197,42.0,93.0
620,152.31257045,152.79285660000002,62.0,85.0
621,152.52762395000002,153.083178825,47.0,92.0
622,152.31257045,153.09572361250002,66.0,122.0
623,152.95773095,153.17636867500002,62.0,92.0
624,152.74267745,153.1924976875,59.0,99.0
625,153.60289145000002,154.1028908375,47.0,74.0
626,153.81794495000003,154.1853280125,59.0,73.0
627,153.17278445000002,154.312568,35.0,89.0
628,153.38783795,154.3412418,42.0,97.0
629,154.24805195000002,154.5276215,47.0,82.0
630,154.03299845,154.6369403625,66.0,112.0
631,154.46310545,154.78389358750002,62.0,97.0
632,154.67815895,155.05450257500001,59.0,93.0
633,155.32331945,155.81435827500002,52.0,88.0
634,155.53837295000002,156.1745728875,59.0,82.0
635,155.96847995000002,156.27672330000001,52.0,88.0
636,154.89321245000002,156.45593455000002,40.0,89.0
637,155.10826595,156.6226010125,47.0,79.0
638,156.61364045000002,156.6226010125,47.0,79.0
639,156.39858695,157.0921344875,59.0,95.0
640,155.75342645,157.12976885,67.0,112.0
641,156.18353345000003,157.2820984125,64.0,97.0
642,157.04374745,157.56166796250002,52.0,90.0
643,157.25880095000002,157.7767214625,59.0,79.0
644,157.68890795000002,157.83944540000002,52.0,96.0
645,156.61364045000002,157.94876426250002,40.0,85.0
646,157.47385445,158.2408786,67.0,127.0
647,157.90396145000003,158.26059183750002,64.0,99.0
648,158.11901495,158.31973155000003,59.0,99.0
649,158.76417545,159.23729315000003,48.0,88.0
650,158.33406845000002,159.5365759375,36.0,90.0
651,158.97922895000002,159.55091283750002,55.0,78.0
652,158.54912195000003,159.5760024125,43.0,78.0
653,159.40933595,159.66919226250002,48.0,73.0
654,159.62438945000002,159.98281195,60.0,100.0
655,159.19428245,159.99714885,64.0,107.0
656,159.83944295,160.00610941250002,55.0,93.0
657,160.48460345,160.7516282125,55.0,89.0
658,160.69965695000002,160.84302595000003,59.0,76.0
659,160.26954995,161.0132766375,50.0,79.0
660,161.12976395,161.3251042125,50.0,66.0
661,160.05449645000002,161.412917725,43.0,82.0
662,161.34481745000002,161.663813475,59.0,100.0
663,160.91471045000003,161.6727740375,62.0,107.0
664,161.55987095,161.72474530000002,55.0,93.0
665,161.77492445000001,162.2068235625,45.0,95.0
666,162.20503145,162.552701275,64.0,107.0
667,162.42008495000002,162.581375075,60.0,99.0
668,161.98997795000002,162.63334633750003,57.0,95.0
669,162.63513845,163.25162515000002,38.0,83.0
670,162.85019195,163.32330965,45.0,86.0
671,163.06524545000002,163.32689387500002,66.0,99.0
672,163.06524545000002,163.47563921250003,50.0,92.0
673,163.28029895,163.541947375,57.0,96.0
674,163.92545945,164.2641687125,55.0,93.0
675,163.71040595000002,164.40932982500001,50.0,79.0
676,164.14051295000002,164.43800362500002,57.0,92.0
677,163.49535245,164.982588225,43.0,88.0
678,164.57061995,165.01473105,50.0,88.0
679,164.35556645000003,165.0772309875,62.0,117.0
680,164.78567345000002,165.1236595125,59.0,99.0
681,165.00044535,165.1933023,55.0,100.0
682,165.42901635,166.1200870875,49.0,34.0
683,165.64330185,166.14330135,54.0,97.0
684,165.85758735,166.21472985,57.0,51.0
685,165.21473085,166.289729775,42.0,92.0
686,166.07187285,166.346872575,66.0,127.0
687,166.50044385,166.589729475,66.0,73.0
688,166.50044385,166.6129437375,42.0,96.0
689,166.50044385,166.625443725,57.0,81.0
690,166.50044385,166.6379437125,61.0,96.0
691,166.71472935,167.182586025,59.0,93.0
692,166.71472935,167.3415144375,62.0,88.0
693,166.71472935,167.4361572,66.0,82.0
694,167.57187135,167.78437113750002,62.0,86.0
695,167.35758585,167.868299625,59.0,58.0
696,166.71472935,168.104013675,47.0,99.0
697,168.00044235000001,168.239727825,62.0,99.0
698,167.78615685,168.53001916250003,66.0,117.0
699,168.42790665833334,168.61804718333335,62.0,99.0
700,168.21472785,168.87684956458335,59.0,99.0
701,168.42790665833334,169.56522868750002,40.0,78.0
702,169.06170840833335,169.6919890375,52.0,85.0
703,168.85044115833335,169.77473537708335,47.0,75.0
704,169.27297565833334,169.78177761875003,59.0,76.0
705,169.48424290833336,169.79938322291667,67.0,100.0
706,169.90677740833334,169.96135478125,40.0,43.0
707,169.90677740833334,170.00536879166668,64.0,85.0
708,169.90677740833334,170.00712935208335,52.0,82.0
709,169.90677740833334,170.01593215416668,67.0,76.0
710,169.90677740833334,170.01769271458335,59.0,85.0
711,170.75184640833334,170.885649,47.0,34.0
712,170.11804465833336,171.04057831666668,67.0,90.0
713,170.11804465833336,171.0458599979167,64.0,96.0
714,170.11804465833336,171.0652261625,59.0,92.0
715,170.11804465833336,171.2307188416667,52.0,95.0
716,171.38564815833334,171.53353523333334,52.0,92.0
717,170.96311365833336,171.53529579375,47.0,59.0
718,170.11804465833336,171.58107036458335,40.0,66.0
719,171.17438090833335,171.6374082979167,67.0,96.0
720,171.17438090833335,171.64092941875,64.0,96.0
721,171.59691540833336,171.91205572291668,59.0,100.0
722,172.01944990833334,172.72578685000002,64.0,90.0
723,172.01944990833334,172.72757256250003,60.0,93.0
724,172.01944990833334,173.11685788750003,36.0,90.0
725,172.44198440833335,173.1347150125,43.0,49.0
726,172.86864385,173.15257213750002,55.0,88.0
727,172.86864385,173.30257198750002,48.0,81.0
728,172.86864385,173.37578620000002,60.0,99.0
729,172.86864385,173.3900719,64.0,93.0
730,173.29721485000002,173.63292880000003,55.0,88.0
731,173.72578585000002,173.750785825,55.0,67.0
732,173.72578585000002,174.42399943750002,62.0,93.0
733,173.72578585000002,174.4614994,59.0,99.0
734,174.15435685000003,174.650784925,50.0,66.0
735,173.72578585000002,175.23114148750003,43.0,85.0
736,174.79721335000002,175.38471276250002,50.0,82.0
737,175.01149885,175.38649847500002,59.0,97.0
738,175.22578435000003,175.38828418750003,55.0,97.0
739,174.58292785000003,175.40971273750003,62.0,100.0
740,175.86864085000002,176.143640575,57.0,89.0
741,176.08292635,176.25435475000003,60.0,99.0
742,175.65435535000003,176.38292605,52.0,66.0
743,176.51149735,176.6614972,52.0,93.0
744,175.44006985000001,176.6775686125,45.0,85.0
745,176.29721185000002,176.78292565,60.0,60.0
746,176.29721185000002,176.99185401250003,64.0,102.0
747,176.94006835000002,177.0775682125,60.0,96.0
748,176.72578285000003,177.68471046250002,57.0,97.0
749,177.15435385,177.88471026250002,66.0,107.0
750,177.15435385,177.8989959625,62.0,95.0
751,177.58292485,178.07935292500002,50.0,90.0
752,177.79721035000003,178.15078142500002,57.0,82.0
753,178.22578135000003,178.40792402500003,50.0,112.0
754,178.01149585000002,178.48292395,62.0,102.0
755,177.15435385,178.70256658750003,38.0,90.0
756,177.36863935000002,178.86328071250003,45.0,89.0
757,178.44006685000002,178.86863785000003,57.0,117.0
758,178.65435235,178.86863785000003,62.0,127.0
759,178.01149585000002,178.86863785000003,66.0,127.0
760,178.86863785000003,183.8586414416667,66.0,95.0
761,178.86863785000003,183.86588780833335,50.0,85.0
762,178.86863785000003,183.89668486666667,38.0,56.0
763,178.86863785000003,183.90393123333334,62.0,96.0
764,178.86863785000003,183.90755441666667,45.0,78.0
765,178.86863785000003,183.9129891916667,57.0,88.0
766,184.51262603333336,185.0163333791667,52.0,97.0
767,184.7284873916667,185.11050521458336,55.0,96.0
768,184.07784403333335,185.28641109583336,40.0,92.0
769,184.29523503333334,185.30062571250002,47.0,96.0
770,185.1549258916667,185.43033408958337,52.0,97.0
771,185.3681451416667,185.75016296458335,59.0,97.0
772,185.58136439166668,185.7732617166667,55.0,95.0
773,184.94170664166668,185.79102998750002,64.0,99.0
774,186.22102214166668,186.51597543750003,59.0,97.0
775,186.4342413916667,186.63857650625002,62.0,93.0
776,186.0078028916667,186.76828488333337,54.0,90.0
777,186.8606798916667,186.974396825,54.0,107.0
778,185.7945836416667,187.01526384791669,47.0,77.0
779,187.0738991416667,187.34397685833335,62.0,112.0
780,186.6474606416667,187.3777365729167,66.0,122.0
781,187.2871183916667,187.50744495000004,59.0,100.0
782,187.5003376416667,188.21639895625003,36.0,76.0
783,187.9267761416667,188.22705991875003,48.0,93.0
784,187.71355689166668,188.31767810000002,43.0,92.0
785,188.1399953916667,188.3638756041667,64.0,97.0
786,188.35321464166668,189.0141943166667,38.0,88.0
787,188.5664338916667,189.10125884375003,45.0,90.0
788,188.7796531416667,189.21319895000002,50.0,95.0
789,188.9928723916667,189.21852943125003,62.0,96.0
790,189.6325301416667,190.04475402500003,55.0,95.0
791,189.8457493916667,190.04653085208335,57.0,90.0
792,189.4193108916667,190.34859145625003,50.0,92.0
793,190.0589686416667,190.42499502083336,62.0,102.0
794,190.2721878916667,190.44987060000003,59.0,89.0
795,189.2060916416667,190.51916685625002,43.0,89.0
796,190.48540714166668,190.73416293333335,55.0,95.0
797,190.6986263916667,190.88163958125003,54.0,96.0
798,191.3382841416667,191.85711765000002,52.0,77.0
799,191.5515033916667,191.99037968125003,55.0,76.0
800,190.9118456416667,192.05434545625002,40.0,79.0
801,191.12506489166668,192.07033690000003,47.0,93.0
802,191.9779418916667,192.1751696979167,52.0,82.0
803,192.1911611416667,192.53586559583337,59.0,92.0
804,192.4043803916667,192.58206310000003,55.0,93.0
805,191.7647226416667,192.5909472354167,64.0,100.0
806,193.0440381416667,193.32833047500003,59.0,86.0
807,193.25725739166668,193.42605596458336,62.0,93.0
808,192.8308188916667,193.62861425208337,54.0,88.0
809,193.6836958916667,193.88270052500002,54.0,86.0
810,192.6175996416667,193.94133581875002,47.0,81.0
811,193.89691514166668,194.18120747500004,62.0,99.0
812,193.4704766416667,194.19364526458335,66.0,112.0
813,194.1101343916667,194.32690729583337,59.0,78.0
814,194.3233536416667,194.77999820208336,45.0,99.0
815,194.5365728916667,195.10515755833336,57.0,89.0
816,194.7497921416667,195.1815611229167,60.0,97.0
817,194.9630113916667,195.2082135291667,64.0,89.0
818,195.1762306416667,195.8052274291667,38.0,77.0
819,195.3894498916667,195.9331589791667,45.0,75.0
820,195.6026691416667,196.03266129583335,50.0,89.0
821,195.8158883916667,196.04154543125003,62.0,93.0
822,196.66876539166668,196.91219070208336,57.0,73.0
823,196.4555461416667,196.95483455208335,55.0,89.0
824,196.2423268916667,196.98504061250003,50.0,82.0
825,197.0952038916667,197.31730727708336,50.0,86.0
826,196.02910764166668,197.33862920208335,43.0,76.0
827,197.3084231416667,197.68866413750004,59.0,102.0
828,197.5216423916667,197.69399461875003,55.0,96.0
829,196.8819846416667,197.7028787541667,62.0,122.0
830,198.1613001416667,198.6783568229167,52.0,90.0
831,198.3745193916667,198.69790192083337,55.0,81.0
832,197.7348616416667,198.94843453958336,40.0,89.0
833,197.9480808916667,198.96797963750004,47.0,89.0
834,198.80095789166668,199.06925878125003,52.0,90.0
835,199.0141771416667,199.27714755000002,55.0,99.0
836,198.5877386416667,199.36954255833336,64.0,102.0
837,199.2273963916667,199.4033022729167,59.0,100.0
838,199.8670541416667,200.1389086854167,59.0,92.0
839,200.0802733916667,200.24196465625002,62.0,90.0
840,199.6538348916667,200.43030832708337,54.0,85.0
841,200.5067118916667,200.60976786250004,54.0,97.0
842,199.44061564166668,200.6719568104167,47.0,76.0
843,200.7199311416667,200.9864552041667,62.0,97.0
844,200.2934926416667,201.0077771291667,66.0,117.0
845,200.9331503916667,201.16591473958337,59.0,93.0
846,201.1463696416667,201.88908336250003,36.0,88.0
847,201.57280814166668,201.91218211458337,48.0,85.0
848,201.3595888916667,201.9832551979167,43.0,93.0
849,201.9992466416667,202.54117890208337,38.0,86.0
850,202.21246589166668,202.63712756458335,45.0,99.0
851,201.7860273916667,202.6655567979167,64.0,97.0
852,202.4256851416667,202.7721664229167,50.0,93.0
853,202.6389043916667,202.80770296458337,62.0,99.0
854,203.2785621416667,203.65347265625002,55.0,90.0
855,203.4917813916667,203.6570263104167,57.0,92.0
856,203.0653428916667,203.73342987500004,50.0,86.0
857,202.8521236416667,204.1047867354167,43.0,86.0
858,203.7050006416667,204.1101172166667,62.0,112.0
859,203.9182198916667,204.12788548750004,59.0,97.0
860,204.1314391416667,204.39147778958338,55.0,92.0
861,204.34394265833336,204.50767477708337,54.0,95.0
862,204.97774440833336,205.4732136666667,52.0,89.0
863,205.18488033333335,205.4782136666667,55.0,81.0
864,204.55520990833338,205.74154700000003,40.0,83.0
865,204.76647715833337,205.7482136666667,47.0,73.0
866,205.58488033333336,205.85988033333336,52.0,78.0
867,205.78488033333338,206.12207340000003,59.0,92.0
868,205.98391545000004,206.16319183750005,55.0,95.0
869,205.38488033333337,206.19115237500003,64.0,100.0
870,206.57602095000004,206.86287981250004,59.0,90.0
871,206.77153375000006,206.91255925000004,62.0,83.0
872,206.37865245000003,207.14653337500005,54.0,88.0
873,207.15614875000006,207.32922550000006,54.0,92.0
874,206.96384125000006,207.38531518750005,62.0,69.0
875,206.18128395000005,207.43819975000005,47.0,88.0
876,207.34845625000005,207.67057131250004,59.0,100.0
877,207.54076375000005,207.72986612500006,62.0,97.0
878,206.96384125000006,207.73627637500005,66.0,127.0
879,207.92537875000005,208.16255800000005,52.0,82.0
880,207.73307125000005,208.19781437500006,45.0,102.0
881,208.31281433333336,208.51114766666672,64.0,95.0
882,208.11768625000005,208.54114766666672,57.0,95.0
883,208.51281433333338,208.88781433333338,38.0,90.0
884,208.71281433333337,208.96781433333337,57.0,74.0
885,208.9128143333334,209.22098767083338,62.0,100.0
886,209.11482339166673,209.29119308125004,57.0,99.0
887,209.94228026666673,210.1775741333334,57.0,81.0
888,209.73126114166672,210.1996329333334,55.0,79.0
889,210.38345626666674,210.5525737333334,55.0,81.0
890,209.52578189166672,210.88828125000006,50.0,72.0
891,209.32030264166673,210.92929687500006,43.0,97.0
892,210.60404426666673,211.03671875000006,59.0,95.0
893,210.99179687500006,211.03671875000006,59.0,95.0
894,210.16286826666672,211.06796875000006,62.0,107.0
895,210.82968750000006,211.07968750000006,57.0,79.0
896,210.99375000000006,211.73428030833338,67.0,92.0
897,210.99765625000006,211.8195075895834,64.0,97.0
898,210.99765625000006,212.16420459375007,40.0,76.0
899,211.50351562500006,212.2058712645834,47.0,42.0
900,211.99564397083338,212.23238641875005,52.0,72.0
901,212.0070076083334,212.46723492708338,67.0,96.0
902,212.00890154791674,212.47102280625006,64.0,99.0
903,212.43125007500007,212.77784101875005,59.0,93.0
904,212.88579557500006,213.56571988541674,66.0,99.0
905,212.8876895145834,213.65662898541672,62.0,99.0
906,212.8933713333334,213.69261383750006,59.0,99.0
907,213.34412895416673,213.8422350645834,54.0,77.0
908,212.8763258770834,213.9047350708334,47.0,81.0
909,213.8251896083334,214.28352298750005,66.0,117.0
910,213.83276536666673,214.2910987458334,62.0,100.0
911,214.26647753125008,214.3706442083334,59.0,83.0
912,214.70208363541673,215.14715943750005,36.0,79.0
913,214.7001896958334,215.25511399375006,64.0,97.0
914,214.69829575625008,215.36553066666673,55.0,97.0
915,214.69640181666674,215.52178066666673,60.0,97.0
916,215.62178066666672,216.1655306666667,38.0,76.0
917,215.62803066666672,216.16969733333337,66.0,102.0
918,215.62386400000005,216.19261400000005,62.0,97.0
919,215.6259473333334,216.4290270583334,57.0,93.0
920,216.51054880833337,216.61652708333338,60.0,57.0
921,216.6083749083334,221.2931581416667,31.0,81.0
922,216.54587490000006,221.30674510000006,59.0,77.0
923,216.43989662500005,221.32033205833338,62.0,79.0
924,216.60294012500006,221.34478858333338,55.0,82.0
