,start,end,pitch,velocity
0,0.72908188125,1.275385575,62.0,69.0
1,0.72908188125,1.275385575,66.0,58.0
2,0.72908188125,1.3444351125,59.0,64.0
3,0.72908188125,1.8318436125,47.0,56.0
4,1.70389888125,2.250202575,66.0,49.0
5,1.70389888125,2.25832605,62.0,63.0
6,2.19130738125,2.71933325625,59.0,47.0
7,2.67871588125,3.290007375,64.0,64.0
8,2.67871588125,3.55605118125,61.0,66.0
9,3.16612438125,3.6677489624999997,52.0,39.0
10,2.67871588125,3.7896010875,45.0,56.0
11,3.65353288125,4.13082548125,61.0,63.0
12,3.65353288125,4.1492681125,64.0,69.0
13,3.65353288125,4.288612437499999,57.0,60.0
14,4.634924068749999,5.22918663125,59.0,78.0
15,4.634924068749999,5.49148183125,62.0,74.0
16,5.12672756875,5.52221955,50.0,50.0
17,4.634924068749999,5.5918917125,43.0,66.0
18,5.61853106875,5.809104925,59.0,76.0
19,5.61853106875,5.8214000125,55.0,69.0
20,5.61853106875,5.823449193749999,62.0,72.0
21,6.6021380687499995,7.2148432625,58.0,86.0
22,6.6021380687499995,7.45664665,61.0,77.0
23,6.6021380687499995,7.68820413125,54.0,53.0
24,6.6021380687499995,7.98328623125,42.0,68.0
25,7.58574506875,8.00787640625,66.0,95.0
26,7.58574506875,8.0427124875,58.0,112.0
27,7.58574506875,8.055007575,61.0,107.0
28,8.56935206875,9.118116083333332,62.0,99.0
29,8.56935206875,9.134376249999999,67.0,99.0
30,8.56935206875,9.148603895833332,71.0,92.0
31,9.059172979166666,9.614051166666666,50.0,67.0
32,8.56935206875,9.622181249999999,43.0,89.0
33,9.546977979166666,10.016490291666665,67.0,107.0
34,9.546977979166666,10.016490291666665,71.0,102.0
35,10.034782979166666,10.122181374999998,62.0,81.0
36,10.522587979166666,10.658766875,57.0,100.0
37,10.522587979166666,10.7014498125,61.0,117.0
38,10.522587979166666,10.756327875,64.0,93.0
39,11.010392979166665,11.577466291666667,52.0,66.0
40,11.742100479166666,11.880311895833334,52.0,54.0
41,10.522587979166666,11.943320041666666,45.0,81.0
42,11.254295479166666,11.971775333333333,64.0,93.0
43,11.254295479166666,11.975840374999999,61.0,96.0
44,11.986002979166667,12.079498937499999,57.0,78.0
45,12.473807979166667,12.5429136875,59.0,93.0
46,12.473807979166667,12.557141333333334,62.0,92.0
47,12.961612979166667,13.416897645833334,55.0,75.0
48,13.205515479166667,13.784062683333334,71.0,81.0
49,13.205515479166667,13.786078812500001,67.0,93.0
50,13.205515479166667,13.816320750000001,62.0,89.0
51,12.473807979166667,13.9796272125,43.0,75.0
52,12.717710479166666,14.449385308333333,50.0,52.0
53,14.419143370833334,15.392933758333335,47.0,66.0
54,15.386885370833333,16.326401562500003,57.0,68.0
55,15.386885370833333,16.330433820833335,45.0,67.0
56,15.386885370833333,16.346562854166667,61.0,56.0
57,16.354627370833335,16.8889016,62.0,75.0
58,16.838498370833335,17.649654337500003,54.0,39.0
59,16.354627370833335,17.71513053125,47.0,74.0
60,16.354627370833335,17.917511493750002,66.0,88.0
61,17.080433870833335,18.211162302083334,61.0,102.0
62,18.278622622916668,18.827035333333335,64.0,69.0
63,18.278622622916668,18.964535333333334,61.0,63.0
64,18.278622622916668,19.118702000000003,57.0,70.0
65,18.766618666666666,19.293702,52.0,42.0
66,18.278622622916668,19.427035333333336,45.0,73.0
67,19.016618666666666,19.709086631250003,64.0,78.0
68,20.901394422916667,21.8263945,59.0,56.0
69,20.439855922916667,22.524261125000002,50.0,60.0
70,20.67062517291667,22.748870500000002,55.0,63.0
71,20.20908667291667,22.881683000000002,43.0,72.0
72,22.989104875000002,23.494964250000002,45.0,66.0
73,22.989104875000002,23.539886125000002,61.0,92.0
74,22.989104875000002,23.571136125000002,57.0,89.0
75,22.989104875000002,23.592620500000002,52.0,89.0
76,24.39904412291667,24.73237747291667,59.0,69.0
77,24.160979875000002,25.004202883333335,54.0,77.0
78,23.926604875000002,25.139123525000002,47.0,65.0
79,24.637139372916668,25.883171181250002,62.0,72.0
80,24.637139372916668,25.889123562500004,66.0,90.0
81,26.30380612291667,26.61928232916667,57.0,69.0
82,26.065710872916668,26.647060108333335,52.0,56.0
83,25.827615622916667,26.728409318750003,45.0,72.0
84,26.54190137291667,27.700631589583335,64.0,79.0
85,26.54190137291667,27.722456987500003,61.0,74.0
86,28.20856812291667,29.710552325000002,55.0,61.0
87,28.446663372916667,29.897060270833336,59.0,82.0
88,27.73237762291667,30.200631714583338,43.0,64.0
89,27.97047287291667,30.30380632291667,50.0,58.0
90,29.87523487291667,30.355393627083338,55.0,47.0
91,30.11333012291667,30.599441258333336,59.0,63.0
92,30.35142537291667,30.63118729166667,62.0,78.0
93,30.58952062291667,31.057774614583337,45.0,78.0
94,30.58952062291667,31.46650479375,57.0,78.0
95,31.77999687291667,32.30975880416667,45.0,63.0
96,31.54190162291667,32.341504837500004,38.0,69.0
97,32.01809212291667,33.00023502916667,50.0,86.0
98,32.25618737291667,33.02404455416667,57.0,93.0
99,32.97047312291667,33.053806460416666,54.0,50.0
100,33.44666362291667,33.64110807708334,52.0,64.0
101,33.44666362291667,33.67086998333333,55.0,68.0
102,33.44666362291667,33.710552525000004,59.0,59.0
103,33.68475887291667,34.276028743750004,47.0,47.0
104,33.44666362291667,34.331584302083336,40.0,64.0
105,33.92285412291667,34.539917645833334,52.0,74.0
106,34.16094937291667,34.6272192375,55.0,73.0
107,34.16094937291667,34.65698114375,59.0,83.0
108,35.351425622916665,35.70856849791667,59.0,68.0
109,35.351425622916665,35.71253675208334,62.0,71.0
110,35.827616122916666,36.08952089791667,55.0,78.0
111,35.589520872916665,36.147060583333335,50.0,69.0
112,35.351425622916665,36.20658439583333,43.0,72.0
113,36.06571137291667,36.66690187916667,59.0,72.0
114,36.06571137291667,36.66690187916667,62.0,74.0
115,37.25618762291667,37.53991779583333,50.0,63.0
116,37.25618762291667,37.64507653125,54.0,68.0
117,37.73237812291667,38.03396543958333,50.0,64.0
118,37.49428287291667,38.10539401458334,42.0,64.0
119,37.25618762291667,38.18079084375,35.0,58.0
120,37.97047337291667,38.71650515625,54.0,81.0
121,37.97047337291667,38.74031468125,59.0,86.0
122,38.68475912291667,38.76412420625,50.0,85.0
123,39.16094962291667,39.761916120833334,62.0,71.0
124,39.16094962291667,39.7699806375,59.0,72.0
125,39.16094962291667,39.77804515416667,55.0,82.0
126,39.16094962291667,40.56030327083334,43.0,72.0
127,39.640948370833335,40.56635165833333,50.0,49.0
128,39.88288387083333,40.63086779166667,59.0,88.0
129,39.88288387083333,40.6590936,62.0,78.0
130,40.60869037083334,40.72159360416667,55.0,63.0
131,41.09256137083334,41.469577525,52.0,73.0
132,41.09256137083334,41.62885172916667,61.0,61.0
133,41.09256137083334,41.65909366666667,57.0,75.0
134,41.09256137083334,42.276029191666666,45.0,57.0
135,41.818367870833335,42.53758833333333,57.0,82.0
136,42.552171666666666,42.66258833333333,52.0,63.0
137,43.52963381041666,44.054255075,47.0,57.0
138,44.21145206041666,44.368107912499994,47.0,53.0
139,43.75690656041667,44.47525077499999,54.0,107.0
140,43.052171666666666,44.85818730208333,35.0,63.0
141,43.302171666666666,44.99707619791666,42.0,52.0
142,44.925647622916664,45.608187339583324,47.0,68.0
143,44.68755237291666,45.709377820833325,54.0,50.0
144,44.44945712291666,45.72128258333333,50.0,77.0
145,45.87802862291666,46.32513924999999,50.0,95.0
146,44.925647622916664,46.35443612499999,35.0,59.0
147,45.87802862291666,46.35638924999999,54.0,102.0
148,46.81927987499999,47.367115952083324,59.0,81.0
149,46.81927987499999,47.379020714583326,66.0,74.0
150,46.81927987499999,47.39092547708333,62.0,82.0
151,47.29171912291666,47.879020739583325,54.0,71.0
152,47.52981437291666,48.09727471874999,59.0,90.0
153,48.00600487291666,48.180608056249994,54.0,58.0
154,46.81927987499999,48.216322343749994,47.0,75.0
155,47.52981437291666,48.28378266458333,62.0,99.0
156,48.244100122916656,48.581401727083325,59.0,89.0
157,48.72029062291666,49.29568747708333,64.0,72.0
158,48.72029062291666,49.32941763749999,61.0,76.0
159,48.72029062291666,49.39290970416666,57.0,96.0
160,49.43457637291666,49.53576685416666,57.0,36.0
161,49.19648112291666,49.69648114791666,52.0,64.0
162,48.72029062291666,49.777830358333325,45.0,69.0
163,49.43457637291666,50.25798911249999,64.0,92.0
164,50.863147872916656,52.42068763333332,50.0,61.0
165,51.10124312291666,52.490132081249996,55.0,58.0
166,52.29171937291666,52.71235431458332,59.0,57.0
167,51.33933837291666,52.71830669583333,62.0,93.0
168,52.52981462291666,52.896878133333324,50.0,72.0
169,50.625052622916655,52.96830670833332,43.0,73.0
170,52.76790987291666,53.02187813958332,55.0,72.0
171,53.00600512291666,53.454417843749994,62.0,97.0
172,53.24410037291666,53.49410038541666,55.0,90.0
173,53.482195622916656,54.029814697916656,45.0,69.0
174,53.482195622916656,54.33933852291666,57.0,102.0
175,54.67267187291666,55.61513223749999,54.0,82.0
176,54.43457662291666,55.63100525416666,47.0,92.0
177,54.91076712291666,55.73021160833333,59.0,74.0
178,55.14886237291666,56.33140211458333,66.0,107.0
179,55.863148122916655,56.38298941874999,62.0,63.0
180,56.57743387291666,57.095291041666655,52.0,65.0
181,56.33933862291666,57.170687870833326,45.0,71.0
182,56.81552912291666,57.57743392291666,57.0,74.0
183,57.05362437291666,57.88894187499999,64.0,95.0
184,58.72029112291666,59.11513241249999,55.0,85.0
185,58.48219587291666,59.29767210416666,50.0,52.0
186,59.67456099999999,60.06656099999999,50.0,24.0
187,58.95838637291666,60.07456099999999,59.0,96.0
188,60.15456099999999,60.60056099999999,62.0,92.0
189,58.24410062291666,60.76656099999999,43.0,81.0
190,60.63456099999999,60.88856099999999,55.0,90.0
191,60.39456099999999,61.11856099999999,50.0,40.0
192,60.87456099999999,61.18856099999999,62.0,96.0
193,61.11456099999999,61.58056099999999,45.0,70.0
194,61.11456099999999,61.79456099999999,57.0,102.0
195,62.07456099999999,62.64656099999999,66.0,92.0
196,62.07456099999999,62.648560999999994,62.0,96.0
197,62.07456099999999,62.66656099999999,57.0,86.0
198,62.55456099999999,63.02856099999999,50.0,86.0
199,62.31456099999999,63.25656099999999,45.0,49.0
200,62.07456099999999,63.29656099999999,38.0,72.0
201,62.79456099999999,63.35056099999999,62.0,96.0
202,62.79456099999999,63.35856099999999,66.0,97.0
203,63.99456099999999,64.17056099999999,52.0,76.0
204,63.99456099999999,64.21056099999998,55.0,74.0
205,63.99456099999999,64.27425941458333,59.0,76.0
206,64.47267212291666,64.73854515208333,52.0,86.0
207,64.23456099999999,64.94489436875,47.0,50.0
208,64.71076737291666,65.24251343124999,55.0,95.0
209,63.99456099999999,65.27227533749999,40.0,72.0
210,64.71076737291666,65.28021184583332,59.0,92.0
211,65.18695787291666,65.31592613333333,47.0,63.0
212,65.42505312291667,65.82783092083332,55.0,93.0
213,65.66314837291667,65.96076743541666,57.0,81.0
214,65.90124362291667,66.3437039625,59.0,93.0
215,66.37743412291667,66.90521192708333,50.0,63.0
216,65.90124362291667,66.98656113749999,43.0,72.0
217,66.61552937291665,67.29934917499999,59.0,90.0
218,66.61552937291665,67.29934917499999,62.0,86.0
219,67.33362337083332,67.43442982916666,55.0,69.0
220,67.81749437083332,68.22216029375,62.0,81.0
221,67.81749437083332,68.28366823333332,66.0,73.0
222,68.05942987083333,68.52771586458333,59.0,86.0
223,68.05942987083333,68.89081112083332,54.0,92.0
224,69.01184287291666,69.17454129375,54.0,76.0
225,67.81749437083332,69.24001748749998,47.0,76.0
226,69.24993812291666,69.32731907916666,62.0,97.0
227,68.53565237291666,69.32731907916666,66.0,112.0
228,69.72612862291666,70.31739849374999,55.0,85.0
229,69.72612862291666,70.5495413625,62.0,89.0
230,69.72612862291666,70.55747787083332,59.0,85.0
231,70.20231912291666,70.81541439166665,50.0,63.0
232,69.72612862291666,71.12366712499998,43.0,79.0
233,70.67850962291665,71.12366712499998,62.0,96.0
234,70.91660487291665,71.18226087499998,50.0,63.0
235,70.67850962291665,71.31507337499998,59.0,96.0
236,71.15101087499998,71.44202649999998,55.0,78.0
237,71.61976087499998,72.19664022083332,64.0,88.0
238,71.61976087499998,72.20648274166665,61.0,96.0
239,71.61976087499998,72.39742764583332,57.0,92.0
240,71.61976087499998,72.75963241249998,45.0,71.0
241,72.56278199583332,73.06278205416665,61.0,107.0
242,72.56278199583332,73.06278205416665,64.0,89.0
243,73.03522299583332,73.18876632083331,57.0,86.0
244,73.50766399583331,73.99389987499998,62.0,96.0
245,73.50766399583331,74.02514987499998,59.0,92.0
246,73.50766399583331,74.05835299999998,66.0,107.0
247,73.97827487499998,74.49975924999998,54.0,96.0
248,74.21264987499998,74.74780612499998,66.0,122.0
249,74.21264987499998,74.75171237499998,62.0,117.0
250,74.91577487499998,75.07593112499998,59.0,85.0
251,74.68139987499998,75.31616549999998,54.0,95.0
252,75.15014987499998,75.64429049999998,62.0,112.0
253,75.15014987499998,75.65210299999998,66.0,127.0
254,75.61889987499998,75.80835299999998,54.0,102.0
255,73.50766399583331,75.81421237499998,47.0,89.0
256,75.85327487499998,75.99585299999998,62.0,127.0
257,75.85327487499998,76.05249362499998,66.0,127.0
258,76.08764987499998,76.19311862499998,59.0,99.0
259,76.32202487499998,76.92749362499998,61.0,127.0
260,76.32202487499998,76.94702487499998,64.0,102.0
261,76.32202487499998,77.05249362499998,45.0,112.0
262,76.32202487499998,77.13452487499998,57.0,127.0
263,77.25952487499998,77.78128610416665,62.0,122.0
264,77.25952487499998,77.80687665833332,57.0,122.0
265,77.25952487499998,77.80687665833332,66.0,117.0
266,77.25952487499998,78.36002632916664,50.0,99.0
267,78.20254599583332,78.66120746666665,66.0,127.0
268,78.20254599583332,78.75766417083332,62.0,127.0
269,78.67498699583332,78.79112874166665,57.0,96.0
270,79.14742799583331,79.89349107499999,59.0,102.0
271,79.14742799583331,79.92892414999999,68.0,122.0
272,79.14742799583331,79.94073517499999,64.0,117.0
273,79.61986899583331,80.22223127083332,47.0,58.0
274,79.14742799583331,80.38803868541666,40.0,86.0
275,80.32853049583332,80.44756249791665,47.0,85.0
276,80.09230999583332,80.55272123333332,68.0,127.0
277,80.09230999583332,80.55470536041666,64.0,127.0
278,80.56661012291666,80.63605457083332,59.0,107.0
279,81.04280062291666,81.60430858749999,59.0,107.0
280,81.04280062291666,81.61224509583332,55.0,112.0
281,81.04280062291666,81.77692764374999,62.0,102.0
282,81.51899112291666,82.10232448541666,50.0,57.0
283,81.04280062291666,82.23724512708333,43.0,81.0
284,81.99518162291666,82.48327688541666,59.0,127.0
285,81.99518162291666,82.5090705375,62.0,127.0
286,82.47137212291666,82.52891180833332,55.0,100.0
287,82.94756262291665,83.47732455416666,62.0,127.0
288,82.94756262291665,83.48129280833332,59.0,107.0
289,82.94756262291665,83.48922931666665,66.0,122.0
290,83.42375312291665,83.97335632499998,54.0,97.0
291,82.94756262291665,84.23327697291666,47.0,97.0
292,84.13803887291665,84.23724522708332,54.0,107.0
293,83.89994362291665,84.34240396249999,62.0,127.0
294,83.89994362291665,84.37018174166666,66.0,127.0
295,84.37613412291665,84.70549921874999,57.0,117.0
296,84.85232462291665,85.40589607916665,55.0,117.0
297,84.85232462291665,85.40589607916665,59.0,97.0
298,84.85232462291665,85.40589607916665,62.0,100.0
299,85.32851512291666,85.86026118125,50.0,60.0
300,84.85232462291665,86.19756278541665,43.0,83.0
301,86.04280087291666,86.19756278541665,50.0,85.0
302,85.80470562291666,86.25907072499999,59.0,127.0
303,85.80470562291666,86.30867390208333,62.0,117.0
304,86.28089612291666,86.37811835,55.0,100.0
305,86.75708662291666,87.36026125624998,64.0,100.0
306,86.75708662291666,87.36819776458333,57.0,117.0
307,86.75708662291666,87.48327713541666,61.0,127.0
308,87.23327712291666,87.82256286666666,52.0,75.0
309,87.94756287291665,88.03684859166665,52.0,45.0
310,86.75708662291666,88.06661049791666,45.0,88.0
311,87.70946762291666,88.21343590208332,64.0,122.0
312,87.70946762291666,88.2233565375,61.0,127.0
313,88.18565812291665,88.30867400208332,57.0,112.0
314,88.66184862291665,89.38605500833333,57.0,122.0
315,88.66184862291665,89.40986453333332,66.0,127.0
316,88.66184862291665,89.41184866041665,62.0,127.0
317,89.13803912291665,89.67176930833332,50.0,68.0
318,88.66184862291665,89.91978519374999,38.0,100.0
319,89.85232487291665,90.00708678541666,50.0,95.0
320,89.61422962291665,90.01700742083332,62.0,127.0
321,89.61422962291665,90.1400233,66.0,127.0
322,90.09042012291665,90.22335663749999,57.0,100.0
323,90.56661062291666,91.17772176458332,58.0,127.0
324,90.56661062291666,91.18169001874999,61.0,127.0
325,91.04280112291666,91.57653130833333,54.0,100.0
326,91.51899162291666,91.84637259166665,58.0,127.0
327,91.51899162291666,91.86621386249999,61.0,127.0
328,91.75708687291666,91.90391227708332,54.0,112.0
329,90.56661062291666,91.925737675,42.0,122.0
330,91.99518212291666,92.09835673124999,58.0,127.0
331,91.99518212291666,92.10232498541666,61.0,127.0
332,92.47137262291666,92.9852615375,55.0,122.0
333,92.47137262291666,93.00708693541665,59.0,102.0
334,92.47137262291666,93.02692820624999,62.0,102.0
335,93.18565837291666,93.25113456666665,62.0,33.0
336,93.42375362291665,93.43764251249999,61.0,95.0
337,92.94756312291665,93.45748378333332,50.0,69.0
338,92.47137262291666,93.74716633749999,43.0,97.0
339,93.66184887291665,93.78486475208332,50.0,89.0
340,93.42375362291665,93.90986475833333,59.0,127.0
341,93.42375362291665,93.92772190208332,62.0,122.0
342,93.89994412291665,94.01303936666666,55.0,99.0
343,94.37613462291665,94.95946798541665,64.0,112.0
344,94.37613462291665,94.96938862083333,57.0,127.0
345,94.37613462291665,94.97137274791666,61.0,127.0
346,94.85232512291665,95.42970610416666,52.0,95.0
347,95.56661087291666,95.66780135416666,52.0,95.0
348,94.37613462291665,95.69557913333333,45.0,86.0
349,95.32851562291665,95.80470612291666,64.0,122.0
350,95.32851562291665,95.81859501249998,61.0,127.0
351,95.80470612291666,95.8900235875,57.0,112.0
352,96.28089662291666,96.89796014583332,59.0,122.0
353,96.28089662291666,97.00113475416666,67.0,107.0
354,96.28089662291666,97.01700777083332,64.0,117.0
355,96.28089662291666,97.54478557499999,40.0,95.0
356,96.75708712291666,97.56065859166665,47.0,48.0
357,97.47137287291666,97.60232526041665,52.0,89.0
358,97.23327762291666,97.70549986875,67.0,127.0
359,97.23327762291666,97.71740463124999,64.0,127.0
360,97.70946812291666,97.93962686458332,59.0,122.0
361,98.18565862291666,98.76899198541665,62.0,102.0
362,98.18565862291666,98.7709761125,59.0,102.0
363,98.18565862291666,98.82256341666665,66.0,112.0
364,98.66184912291666,99.27097613749999,54.0,92.0
365,99.37613487291665,99.51105551458332,54.0,107.0
366,99.13803962291665,99.56065869166666,62.0,127.0
367,98.18565862291666,99.57256345416666,47.0,83.0
368,99.13803962291665,99.60034123333332,66.0,127.0
369,99.61423012291665,100.01899204791665,57.0,127.0
370,100.09042062291665,100.85629367708333,59.0,122.0
371,100.09042062291665,100.86423018541666,62.0,112.0
372,100.56661112291665,101.15986512083333,50.0,93.0
373,101.28089687291666,101.5090714875,50.0,83.0
374,100.09042062291665,101.51105561458333,43.0,83.0
375,101.04280162291666,101.53089688541665,62.0,117.0
376,101.04280162291666,101.56859529999998,59.0,127.0
377,101.51899212291666,101.64399212916666,55.0,96.0
378,101.99518262291666,102.74319853333333,64.0,112.0
379,101.99518262291666,102.77692869375,57.0,127.0
380,101.99518262291666,102.78684932916666,61.0,127.0
381,101.99518262291666,103.06065886666666,45.0,82.0
382,102.94756362291665,103.30669062499999,61.0,127.0
383,102.94756362291665,103.31065887916665,64.0,100.0
384,103.89994462291665,104.53288116249999,59.0,107.0
385,103.89994462291665,104.54081767083332,62.0,127.0
386,103.89994462291665,104.54081767083332,66.0,122.0
387,104.37613512291665,105.07454785624999,54.0,38.0
388,104.85232562291665,105.36819866458332,62.0,107.0
389,104.85232562291665,105.40391295208332,66.0,99.0
390,104.85232562291665,105.42970660416665,59.0,88.0
391,105.32851612291665,106.11621457499999,54.0,45.0
392,105.80470662291665,106.37415109583333,62.0,65.0
393,105.80470662291665,106.38407173124999,66.0,56.0
394,105.80470662291665,106.39399236666665,59.0,56.0
395,106.28089712291666,107.18962732708331,54.0,45.0
396,106.75708762291666,107.29478606249998,62.0,112.0
397,103.89994462291665,107.31065907916665,47.0,85.0
398,106.75708762291666,107.31065907916665,66.0,122.0
399,107.23327812291666,107.47137337291666,59.0,73.0
400,107.70946862291666,108.46343691458333,64.0,89.0
401,107.70946862291666,108.46740516874999,57.0,93.0
402,107.70946862291666,108.50708771041666,61.0,107.0
403,108.66184962291666,109.38208775416666,57.0,86.0
404,108.66184962291666,109.41184966041666,64.0,82.0
405,108.66184962291666,109.44359569374998,61.0,96.0
406,109.61423062291665,110.30669097499998,57.0,85.0
407,109.61423062291665,110.39597669374999,64.0,82.0
408,109.61423062291665,110.43169098124999,61.0,100.0
409,107.70946862291666,110.69161162916666,45.0,72.0
410,110.80470687291665,110.85034179583332,45.0,33.0
411,110.56661162291665,111.07057990208332,61.0,117.0
412,110.56661162291665,111.07057990208332,64.0,93.0
413,111.04280212291665,111.32057991458332,57.0,85.0
414,111.51899262291666,112.116214875,62.0,82.0
415,111.51899262291666,112.14994503541666,55.0,93.0
416,111.51899262291666,112.29478631249998,59.0,85.0
417,111.51899262291666,112.60629426458331,43.0,75.0
418,111.99518312291666,112.62018315416665,50.0,56.0
419,112.47137362291666,113.06661174791665,62.0,96.0
420,112.47137362291666,113.28089747291665,59.0,99.0
421,113.42375462291665,116.41978651874999,54.0,77.0
422,113.42375462291665,116.58843732083332,42.0,78.0
423,115.32851662291665,116.64994526041666,66.0,36.0
424,113.42375462291665,116.77296113958332,61.0,95.0
425,113.42375462291665,116.81462780833331,57.0,79.0
426,117.23327862291666,117.77692944374999,55.0,93.0
427,117.23327862291666,117.78089769791666,62.0,93.0
428,117.23327862291666,117.81065960416666,59.0,93.0
429,117.23327862291666,118.33645328124999,43.0,77.0
430,117.70946912291666,118.33843740833332,50.0,58.0
431,118.18565962291666,118.58050091249999,62.0,97.0
432,118.18565962291666,118.64200885208332,59.0,100.0
433,118.18565962291666,118.64597710624999,55.0,97.0
434,119.13804062291666,119.71343747708332,64.0,95.0
435,119.13804062291666,119.74518351041665,57.0,102.0
436,119.13804062291666,119.75113589166665,61.0,112.0
437,119.61423112291666,120.22534226458333,52.0,52.0
438,119.13804062291666,120.31859623749999,45.0,83.0
439,120.09042162291667,120.57256450416665,61.0,127.0
440,120.09042162291667,120.58843752083332,64.0,97.0
441,121.04280262291665,121.85431059999999,59.0,97.0
442,121.04280262291665,121.87415187083332,62.0,95.0
443,121.04280262291665,121.87812012499998,55.0,97.0
444,121.04280262291665,121.88804076041666,66.0,89.0
445,121.99518362291666,122.59042174791665,59.0,54.0
446,121.99518362291666,122.63605667083331,55.0,45.0
447,121.99518362291666,122.63605667083331,62.0,44.0
448,121.99518362291666,122.64002492499999,66.0,38.0
449,121.04280262291665,123.14994558541665,43.0,90.0
450,122.94756462291666,123.18962812708332,66.0,35.0
451,122.94756462291666,123.19359638124999,59.0,53.0
452,122.94756462291666,123.20351701666665,55.0,40.0
453,122.94756462291666,123.21343765208331,62.0,40.0
454,123.89994562291665,124.47873469999998,61.0,54.0
455,123.89994562291665,124.57954115833331,64.0,54.0
456,123.89994562291665,124.76905729999999,45.0,54.0
457,123.89994562291665,124.78317020416665,57.0,54.0
458,124.86381537083331,125.39808959999998,62.0,75.0
459,125.34768637083332,126.15884233749998,54.0,39.0
460,124.86381537083331,126.22431853124998,47.0,74.0
461,124.86381537083331,126.42669949374998,66.0,88.0
462,125.58962187083331,126.72035030208332,61.0,102.0
463,126.78781062291665,127.33622333333332,64.0,69.0
464,126.78781062291665,127.47372333333333,61.0,63.0
465,126.78781062291665,127.62788999999998,57.0,70.0
466,127.27580666666665,127.80288999999999,52.0,42.0
467,126.78781062291665,127.93622333333332,45.0,73.0
468,127.52580666666665,128.21827463124998,64.0,78.0
469,129.41058242291666,130.3355825,59.0,56.0
470,128.94904392291664,131.03344912499998,50.0,60.0
471,129.17981317291665,131.25805849999998,55.0,63.0
472,128.71827467291666,131.39087099999998,43.0,72.0
473,131.49829287499998,132.00843053749998,45.0,66.0
474,131.49829287499998,132.05406546041664,61.0,92.0
475,131.49829287499998,132.08581149375,57.0,89.0
476,131.49829287499998,132.10763689166663,52.0,89.0
477,132.92311312291665,133.25644647291665,59.0,69.0
478,132.68501787291663,133.5282718833333,54.0,77.0
479,132.44692262291665,133.66319252499997,47.0,65.0
480,133.16120837291663,134.40724018125,62.0,72.0
481,133.16120837291663,134.41319256249997,66.0,90.0
482,134.8316833708333,135.15224790833332,57.0,69.0
483,134.58977987291664,135.18047371666665,52.0,56.0
484,134.35168462291665,135.2631350125,45.0,72.0
485,135.07361887083331,136.25103830416666,64.0,79.0
486,135.07361887083331,136.27321572499997,61.0,74.0
487,136.7671673708333,138.29337714999997,55.0,61.0
488,137.00910287083332,138.48289329166664,59.0,82.0
489,136.2832963708333,138.79136105416666,43.0,64.0
490,136.52523187083332,138.8961997708333,50.0,58.0
491,138.46071587083333,138.94861912916664,55.0,47.0
492,138.7026513708333,139.19660301666664,59.0,63.0
493,138.94458687083332,139.22886108333333,62.0,78.0
494,139.18652237083333,139.66232885416665,45.0,78.0
495,139.18652237083333,140.07765146249997,57.0,78.0
496,140.39619987083333,140.92599380416667,45.0,63.0
497,140.15426437083332,140.9577398375,38.0,69.0
498,140.63432712291666,141.61647002916666,50.0,86.0
499,140.87242237291665,141.64027955416665,57.0,93.0
500,141.58670812291666,141.67004146041666,54.0,50.0
501,142.06289862291666,142.25734307708333,52.0,64.0
502,142.06289862291666,142.28710498333334,55.0,68.0
503,142.06289862291666,142.326787525,59.0,59.0
504,142.30099387291665,142.89226374375,47.0,47.0
505,142.06289862291666,142.94781930208333,40.0,64.0
506,142.53908912291666,143.15615264583332,52.0,74.0
507,142.77718437291665,143.2434542375,55.0,73.0
508,142.77718437291665,143.27321614374998,59.0,83.0
509,143.96766062291667,144.32480349791666,59.0,68.0
510,143.96766062291667,144.32877175208333,62.0,71.0
511,144.44385112291667,144.70575589791665,55.0,78.0
512,144.20575587291665,144.76329558333333,50.0,69.0
513,143.96766062291667,144.82281939583333,43.0,72.0
514,144.68194637291666,145.28313687916665,59.0,72.0
515,144.68194637291666,145.28313687916665,62.0,74.0
516,145.87242262291664,146.15615279583332,50.0,63.0
517,145.87242262291664,146.26131153125,54.0,68.0
518,146.34861312291665,146.65020043958333,50.0,64.0
519,146.11051787291666,146.72162901458333,42.0,64.0
520,145.87242262291664,146.79702584375,35.0,58.0
521,146.58670837291666,147.33274015625,54.0,81.0
522,146.58670837291666,147.35654968125,59.0,86.0
523,147.30099412291665,147.38035920624998,50.0,85.0
524,147.77718462291665,148.3781511208333,62.0,71.0
525,147.77718462291665,148.3862156375,59.0,72.0
526,147.77718462291665,148.39428015416664,55.0,82.0
527,147.77718462291665,149.1765382708333,43.0,72.0
528,148.2571833708333,149.18258665833332,50.0,49.0
529,148.4991188708333,149.24710279166666,59.0,88.0
530,148.4991188708333,149.2753286,62.0,78.0
531,149.22492537083332,149.33782860416665,55.0,63.0
532,149.7087963708333,150.0837003875,52.0,73.0
533,149.7087963708333,150.24044642708333,61.0,61.0
534,149.7087963708333,150.27020833333333,57.0,75.0
535,149.7087963708333,150.87735122083333,45.0,57.0
536,150.42695437291664,151.12735123333331,57.0,82.0
537,151.14124012291666,151.24639885833332,52.0,63.0
538,151.61743062291666,152.0980403270833,62.0,96.0
539,151.61743062291666,152.12834336041666,59.0,92.0
540,151.61743062291666,152.16054033333333,66.0,107.0
541,152.08288881041665,152.58857067916665,54.0,96.0
542,152.31016156041665,152.83207719374997,66.0,122.0
543,152.31016156041665,152.83604544791666,62.0,117.0
544,153.00271212291665,153.16541054374997,59.0,85.0
545,152.76470706041667,153.40945817499997,54.0,95.0
546,153.24080737291663,153.74279152499997,62.0,112.0
547,153.24080737291663,153.7507280333333,66.0,127.0
548,153.71699787291664,153.9094582,54.0,102.0
549,151.61743062291666,153.91541058124997,47.0,89.0
550,153.95509312291665,154.09993439999997,62.0,127.0
551,153.95509312291665,154.15747408541665,66.0,127.0
552,154.19318837291664,154.30033123541665,59.0,99.0
553,154.43128362291665,155.04050362499999,61.0,127.0
554,154.43128362291665,155.06003487499999,64.0,102.0
555,154.43128362291665,155.16550362499999,45.0,112.0
556,154.43128362291665,155.24753487499999,57.0,127.0
557,155.37253487499999,155.89656142708333,62.0,122.0
558,155.37253487499999,155.92235507916666,57.0,122.0
559,155.37253487499999,155.92235507916666,66.0,117.0
560,155.37253487499999,156.4798947895833,50.0,99.0
561,156.32116462291665,156.78346623333331,66.0,127.0
562,156.32116462291665,156.88068846041665,62.0,127.0
563,156.79735512291666,156.91441862083332,57.0,96.0
564,157.27354562291666,158.02552978749998,59.0,102.0
565,157.27354562291666,158.061244075,68.0,122.0
566,157.27354562291666,158.07314883749999,64.0,117.0
567,157.74973612291666,158.35687901041666,47.0,58.0
568,157.27354562291666,158.52354568541665,40.0,86.0
569,158.46402187291665,158.58306949791665,47.0,85.0
570,158.22592662291666,158.68822823333332,68.0,127.0
571,158.22592662291666,158.69021236041664,64.0,127.0
572,158.70211712291666,158.7715615708333,59.0,107.0
573,159.17830762291666,159.73981558749998,59.0,107.0
574,159.17830762291666,159.7477520958333,55.0,112.0
575,159.17830762291666,159.91243464374998,62.0,102.0
576,160.13068862291667,160.14259338541666,61.0,90.0
577,159.65449812291666,160.23783148541665,50.0,57.0
578,159.17830762291666,160.37275212708332,43.0,81.0
579,160.13068862291667,160.61878388541666,59.0,127.0
580,160.13068862291667,160.6445775375,62.0,127.0
581,160.60687912291667,160.66441880833332,55.0,100.0
582,161.08306962291664,161.61283155416666,62.0,127.0
583,161.08306962291664,161.61679980833333,59.0,107.0
584,161.08306962291664,161.62473631666666,66.0,122.0
585,161.55926012291664,162.108863325,54.0,97.0
586,161.08306962291664,162.36878397291665,47.0,97.0
587,162.27354587291666,162.3727522270833,54.0,107.0
588,162.03545062291664,162.47791096249998,62.0,127.0
589,162.03545062291664,162.50568874166666,66.0,127.0
590,162.51164112291664,162.84100621874998,57.0,117.0
591,162.98783162291664,163.54140307916666,55.0,117.0
592,162.98783162291664,163.54140307916666,59.0,97.0
593,162.98783162291664,163.54140307916666,62.0,100.0
594,163.46402212291665,163.99576818124999,50.0,60.0
595,162.98783162291664,164.33306978541665,43.0,83.0
596,164.17830787291666,164.33306978541665,50.0,85.0
597,163.94021262291665,164.39457772499998,59.0,127.0
598,163.94021262291665,164.44418090208333,62.0,117.0
599,164.41640312291665,164.51362534999998,55.0,100.0
600,164.89259362291665,165.49576825625,64.0,100.0
601,164.89259362291665,165.50370476458332,57.0,117.0
602,164.89259362291665,165.61878413541666,61.0,127.0
603,165.36878412291665,165.95806986666665,52.0,75.0
604,166.08306987291664,166.17235559166664,52.0,45.0
605,164.89259362291665,166.20211749791665,45.0,88.0
606,165.84497462291665,166.3489429020833,64.0,122.0
607,165.84497462291665,166.35886353749999,61.0,127.0
608,166.32116512291665,166.44418100208333,57.0,112.0
609,166.79735562291665,167.52156200833332,57.0,122.0
610,166.79735562291665,167.5453715333333,66.0,127.0
611,166.79735562291665,167.54735566041666,62.0,127.0
612,167.27354612291666,167.80727630833331,50.0,68.0
613,166.79735562291665,168.055816,38.0,100.0
614,167.98783187291664,168.143816,50.0,95.0
615,167.74973662291666,168.15381599999998,62.0,127.0
616,167.74973662291666,168.277816,66.0,127.0
617,168.227816,168.361816,57.0,100.0
618,168.70781599999998,169.323816,58.0,127.0
619,168.70781599999998,169.32781599999998,61.0,127.0
620,169.187816,169.72581599999998,54.0,100.0
621,169.667816,169.997816,58.0,127.0
622,169.667816,170.01781599999998,61.0,127.0
623,169.907816,170.055816,54.0,112.0
624,168.70781599999998,170.07781599999998,42.0,122.0
625,170.14781599999998,170.251816,58.0,127.0
626,170.14781599999998,170.25581599999998,61.0,127.0
627,170.627816,171.145816,55.0,122.0
628,170.627816,171.167816,59.0,102.0
629,170.627816,171.187816,62.0,102.0
630,171.347816,171.413816,62.0,33.0
631,171.587816,171.60181599999999,61.0,95.0
632,171.10781599999999,171.621816,50.0,69.0
633,170.627816,171.913816,43.0,97.0
634,171.82781599999998,171.95181599999998,50.0,89.0
635,171.587816,172.07781599999998,59.0,127.0
636,171.587816,172.09581599999999,62.0,122.0
637,172.067816,172.181816,55.0,99.0
638,172.54781599999998,173.13306998541668,64.0,112.0
639,172.54781599999998,173.14299062083333,57.0,127.0
640,172.54781599999998,173.14497474791668,61.0,127.0
641,173.02592712291667,173.60330810416667,52.0,95.0
642,173.74021287291666,173.84140335416666,52.0,95.0
643,172.54781599999998,173.86918113333334,45.0,86.0
644,173.50211762291667,173.97830812291667,64.0,122.0
645,173.50211762291667,173.99219701250001,61.0,127.0
646,173.97830812291667,174.0636255875,57.0,112.0
647,174.45449862291667,175.07156214583333,59.0,122.0
648,174.45449862291667,175.17473675416667,67.0,107.0
649,174.45449862291667,175.19060977083333,64.0,117.0
650,174.45449862291667,175.71953965,40.0,95.0
651,174.93068912291668,175.73566868333333,47.0,48.0
652,175.64497487291666,175.77800739583336,52.0,89.0
653,175.40687962291668,175.8828461125,67.0,127.0
654,175.40687962291668,175.8949428875,64.0,127.0
655,175.88687837083333,176.12074935416666,59.0,122.0
656,176.37074937083335,176.95795498541668,62.0,102.0
657,176.37074937083335,176.9599391125,59.0,102.0
658,176.37074937083335,177.01152641666667,66.0,112.0
659,176.85081212291666,177.4599391375,54.0,92.0
660,177.56509787291665,177.70001851458332,54.0,107.0
661,177.32700262291667,177.74962169166668,62.0,127.0
662,176.37074937083335,177.76152645416667,47.0,83.0
663,177.32700262291667,177.78930423333333,66.0,127.0
664,177.80319312291667,178.20795504791667,57.0,127.0
665,178.27938362291667,179.04525667708333,59.0,122.0
666,178.27938362291667,179.05319318541666,62.0,112.0
667,178.75557412291667,179.34882812083333,50.0,93.0
668,179.46985987291666,179.69450025,50.0,83.0
669,178.27938362291667,179.696453375,43.0,83.0
670,179.23176462291667,179.715984625,62.0,117.0
671,179.23176462291667,179.753094,59.0,127.0
672,179.704265875,179.82731275,55.0,96.0
673,180.173015875,180.91328106666668,64.0,112.0
674,180.173015875,180.94674563750002,57.0,127.0
675,180.173015875,180.95658815833335,61.0,127.0
676,180.173015875,181.22824173333333,45.0,82.0
677,181.11603699583333,181.47233625,61.0,127.0
678,181.11603699583333,181.47627325833335,64.0,100.0
679,182.06091899583333,182.56863925000002,62.0,127.0
680,182.06091899583333,182.56863925000002,66.0,127.0
681,182.06091899583333,182.59793612500002,59.0,127.0
682,182.06091899583333,182.60965487500002,47.0,127.0
683,182.76590487500002,183.32059237500002,64.0,117.0
684,182.76590487500002,183.34793612500002,61.0,127.0
685,182.76590487500002,183.35965487500002,49.0,127.0
686,183.46902987500002,184.34402987500002,57.0,127.0
687,183.46902987500002,184.36160800000002,62.0,127.0
688,183.46902987500002,184.37527987500002,66.0,127.0
689,183.46902987500002,184.38504550000002,50.0,127.0
690,184.17215487500002,184.72098300000002,59.0,127.0
691,184.17215487500002,184.72098300000002,64.0,127.0
692,184.17215487500002,184.72684237500002,67.0,117.0
693,184.17215487500002,184.73465487500002,52.0,117.0
694,184.17215487500002,184.74442050000002,40.0,90.0
695,184.87527987500002,185.29811594583336,42.0,117.0
696,184.87527987500002,185.30208420000002,61.0,127.0
697,184.87527987500002,185.30406832708334,54.0,102.0
698,184.87527987500002,185.31398896250002,66.0,127.0
699,184.87527987500002,185.31795721666668,58.0,127.0
700,185.3477191229167,185.6989096166667,64.0,117.0
701,185.3477191229167,185.70486199791668,57.0,122.0
702,185.3477191229167,185.73660803125003,61.0,127.0
703,185.3477191229167,185.7703381916667,45.0,127.0
704,185.8239096229167,186.57406967916668,62.0,117.0
705,185.8239096229167,186.58213419583336,71.0,99.0
706,185.8239096229167,186.5861664541667,67.0,107.0
707,185.8239096229167,187.0760858416667,55.0,107.0
708,186.78777937083336,187.31600521250002,71.0,122.0
709,185.8239096229167,187.32810198750002,43.0,88.0
710,185.8239096229167,187.34019876250002,50.0,112.0
711,186.78777937083336,187.37648908750003,62.0,127.0
712,187.27165037083336,187.41681167083334,55.0,95.0
713,186.78777937083336,187.48132780416668,67.0,127.0
714,187.75552137083335,188.4914085166667,64.0,122.0
715,187.75552137083335,188.50753755000002,69.0,127.0
716,187.75552137083335,188.5156020666667,73.0,127.0
717,187.75552137083335,188.84221499166668,57.0,102.0
718,187.75552137083335,189.0068975416667,52.0,95.0
719,188.72326337083337,189.1934054875,69.0,127.0
720,188.72326337083337,189.19538961458335,73.0,127.0
721,188.72326337083337,189.2529293,64.0,112.0
722,187.75552137083335,189.29856422291667,45.0,78.0
723,189.20332612291668,189.63983408125,52.0,102.0
724,189.67951662291668,190.25292935000002,62.0,127.0
725,189.67951662291668,190.26880236666668,59.0,117.0
726,189.67951662291668,190.26880236666668,66.0,117.0
727,190.15570712291668,190.93348493958334,54.0,81.0
728,190.63189762291668,191.1576913,62.0,127.0
729,190.63189762291668,191.16364368125002,59.0,127.0
730,190.63189762291668,191.18943733333333,66.0,127.0
731,191.34618337291667,191.4414214729167,62.0,96.0
732,191.34618337291667,191.4553103625,59.0,89.0
733,191.34618337291667,191.4553103625,66.0,96.0
734,191.10808812291668,191.68745323125,54.0,107.0
735,191.58427862291668,191.88388181250002,59.0,117.0
736,191.58427862291668,191.97316753125,62.0,127.0
737,191.82237387291667,191.98705642083334,54.0,127.0
738,189.67951662291668,192.0743580125,47.0,86.0
739,191.58427862291668,192.1457865875,66.0,127.0
740,192.0604691229167,192.32634215208336,59.0,127.0
741,192.29856437291667,192.35213580416666,61.0,34.0
742,192.5366596229167,193.05054853750002,64.0,117.0
743,192.5366596229167,193.06245330000002,61.0,127.0
744,192.5366596229167,193.06642155416668,45.0,122.0
745,192.5366596229167,193.11999298541667,57.0,127.0
746,193.4890406229167,194.13586605208334,59.0,127.0
747,193.4890406229167,194.27673907500002,62.0,127.0
748,193.4890406229167,194.28864383750002,67.0,112.0
749,193.4890406229167,194.73308830416667,55.0,107.0
750,194.44142162291666,194.88586608958335,67.0,122.0
751,194.44142162291666,194.89777085208334,62.0,127.0
752,194.44142162291666,194.98904069791666,59.0,122.0
753,194.91761212291667,195.10015181458334,55.0,92.0
754,193.4890406229167,195.17753277083335,43.0,75.0
755,193.4890406229167,195.38388198750002,50.0,86.0
756,195.39380262291667,195.98110423958335,64.0,102.0
757,195.39380262291667,196.01285027291667,57.0,127.0
758,195.39380262291667,196.05253281458334,61.0,127.0
759,195.86999312291667,196.66364395625,52.0,70.0
760,196.34618362291667,196.81046936041668,61.0,127.0
761,196.34618362291667,196.81840586875,64.0,107.0
762,196.34618362291667,196.89181857083335,57.0,117.0
763,195.39380262291667,197.03467572083335,45.0,107.0
764,196.82237412291667,197.24499319166668,52.0,95.0
765,197.29856462291667,197.36007256250002,62.0,127.0
766,197.29856462291667,197.37197732500002,59.0,107.0
767,197.29856462291667,197.37594557916668,66.0,127.0
768,198.0128503729167,198.086263075,74.0,96.0
769,198.0128503729167,198.086263075,78.0,96.0
770,198.0128503729167,198.09419958333334,71.0,86.0
771,198.25094562291667,198.29459641875002,74.0,127.0
772,198.25094562291667,198.3005488,78.0,112.0
773,198.25094562291667,198.32039007083335,71.0,117.0
774,197.77475512291667,198.3838821375,54.0,66.0
775,198.25094562291667,198.5505488125,59.0,122.0
776,198.72713612291668,199.14181868333336,54.0,112.0
777,198.96523137291666,199.229120275,59.0,99.0
778,198.96523137291666,199.229120275,62.0,127.0
779,198.96523137291666,199.23507265625,66.0,122.0
780,199.20332662291668,199.5267393375,54.0,78.0
781,199.44142187291666,199.73507268125002,62.0,127.0
782,199.44142187291666,199.74896157083333,59.0,117.0
783,199.44142187291666,199.75292982500002,66.0,127.0
784,199.91761237291666,200.0148346,62.0,127.0
785,199.91761237291666,200.03269174375,59.0,102.0
786,199.91761237291666,200.03467587083335,66.0,117.0
787,197.29856462291667,200.04062825208334,47.0,107.0
788,199.67951712291668,200.05451714166668,54.0,99.0
789,200.15570762291668,200.27078699375002,66.0,127.0
790,200.15570762291668,200.44539017708334,62.0,127.0
791,200.15570762291668,200.45332668541667,59.0,122.0
792,200.15570762291668,200.48904097291668,47.0,107.0
793,200.63189812291668,200.99896163333335,64.0,117.0
794,200.63189812291668,201.01086639583335,61.0,127.0
795,200.63189812291668,201.01681877708336,57.0,117.0
796,200.63189812291668,201.08824735208333,45.0,127.0
797,201.10808862291668,201.72515214583333,55.0,127.0
798,201.10808862291668,201.75292992500002,59.0,127.0
799,201.10808862291668,201.89777120208333,62.0,127.0
800,201.58427912291668,202.25292995,50.0,75.0
801,202.06046962291668,202.60015218958335,62.0,122.0
802,202.06046962291668,202.70134267083336,55.0,122.0
803,202.06046962291668,202.86404109166668,59.0,127.0
804,201.10808862291668,202.9414220479167,43.0,93.0
805,202.5366601229167,203.02078713125002,50.0,93.0
806,203.0128506229167,203.6338824,64.0,107.0
807,203.0128506229167,203.70332684791668,57.0,127.0
808,203.0128506229167,203.75888240625,61.0,127.0
809,203.4890411229167,204.29062846458334,52.0,56.0
810,203.9652316229167,204.48904117291667,61.0,127.0
811,203.9652316229167,204.514834825,64.0,127.0
812,203.9652316229167,204.59419990833334,57.0,127.0
813,203.0128506229167,204.76681896458334,45.0,102.0
814,204.44142212291666,204.86800944583334,52.0,90.0
815,204.93546976666667,205.69142218541668,59.0,122.0
816,204.93546976666667,205.71919996458334,67.0,112.0
817,204.93546976666667,205.72316821875,64.0,117.0
818,204.93546976666667,206.00888251875,52.0,107.0
819,204.93546976666667,206.36800952083334,40.0,88.0
820,205.88785076666667,206.37991428333333,67.0,127.0
821,205.88785076666667,206.39380317291668,64.0,127.0
822,205.88785076666667,206.43745396875002,59.0,127.0
823,206.36404126666667,206.44539047708335,47.0,67.0
824,206.84023176666668,207.38983496875,62.0,122.0
825,206.84023176666668,207.40173973125002,59.0,112.0
826,206.84023176666668,207.41166036666667,66.0,117.0
827,207.31642226666668,207.84618419791667,54.0,99.0
828,206.84023176666668,208.05451754166668,47.0,96.0
829,207.79261276666668,208.22713659791668,62.0,127.0
830,207.79261276666668,208.26483501250001,66.0,127.0
831,208.26880326666668,208.61999376041666,57.0,112.0
832,208.26880326666668,208.73507313125,45.0,107.0
833,208.74499376666668,209.36800967083335,55.0,127.0
834,208.74499376666668,209.4414223729167,62.0,102.0
835,208.74499376666668,209.49300967708334,59.0,117.0
836,209.22118426666668,209.87197795,50.0,50.0
837,209.69737476666668,210.17356526666669,62.0,117.0
838,209.69737476666668,210.22515257083336,55.0,122.0
839,209.69737476666668,210.31047003541667,59.0,127.0
840,208.74499376666668,210.49697798125,43.0,89.0
841,210.17356526666669,210.63189862291668,50.0,86.0
842,210.6497557666667,211.27078754375,64.0,102.0
843,210.6497557666667,211.37793040625002,57.0,112.0
844,210.6497557666667,211.40372405833335,61.0,127.0
845,211.1259462666667,211.86205741458335,52.0,52.0
846,211.6021367666667,212.1795177479167,61.0,127.0
847,211.6021367666667,212.181501875,64.0,117.0
848,211.6021367666667,212.41364474375,57.0,127.0
849,212.0783272666667,212.44142252291667,52.0,78.0
850,210.6497557666667,212.45729553958336,45.0,97.0
851,212.55451776666666,213.30451780416666,57.0,127.0
852,212.55451776666666,213.31047018541668,62.0,127.0
853,212.55451776666666,213.31047018541668,66.0,127.0
854,212.55451776666666,213.57039083333333,50.0,127.0
855,213.50689876666667,213.80451782916668,57.0,117.0
856,213.74499401666668,213.84618449791668,50.0,112.0
857,213.50689876666667,213.93943847083335,62.0,127.0
858,213.50689876666667,213.95332736041667,66.0,127.0
859,213.98308926666667,214.15769245,57.0,100.0
860,214.45927976666667,215.23110520208334,58.0,127.0
861,214.45927976666667,215.23110520208334,61.0,127.0
862,214.45927976666667,215.47118457916667,54.0,117.0
863,215.6497560166667,215.800549675,54.0,122.0
864,214.45927976666667,215.82039094583334,42.0,127.0
865,215.41166076666667,215.85412110625,61.0,127.0
866,215.41166076666667,215.87197825,58.0,127.0
867,215.88785126666667,216.21324810833335,57.0,127.0
868,216.36404176666667,216.92951798541668,59.0,107.0
869,216.36404176666667,216.9473751291667,55.0,127.0
870,216.36404176666667,216.97118465416668,62.0,112.0
871,216.84023226666667,217.42554975625,50.0,61.0
872,217.31642276666668,217.81840691875001,62.0,122.0
873,217.31642276666668,217.89777200208334,55.0,127.0
874,217.31642276666668,217.90570851041667,59.0,127.0
875,216.36404176666667,218.12396248958333,43.0,97.0
876,217.79261326666668,218.3005498,50.0,92.0
877,218.26880376666668,218.86999427291667,64.0,112.0
878,218.26880376666668,218.88189903541667,57.0,117.0
879,218.26880376666668,219.02872443958336,61.0,127.0
880,218.74499426666668,219.23110540208336,52.0,54.0
881,218.26880376666668,219.53070859166667,45.0,99.0
882,219.45928001666667,219.55451811666669,52.0,83.0
883,219.22118476666668,219.61999431041667,57.0,112.0
884,219.22118476666668,219.77475622291666,61.0,127.0
885,219.22118476666668,219.78269273125,64.0,122.0
886,220.17356576666668,220.80650230625002,59.0,122.0
887,220.17356576666668,220.93348643958333,67.0,107.0
888,220.17356576666668,220.943407075,64.0,112.0
889,220.64975626666669,221.26880391666668,47.0,60.0
890,220.17356576666668,221.60213726666666,40.0,97.0
891,221.1259467666667,221.61602615625,67.0,117.0
892,221.1259467666667,221.62991504583334,64.0,127.0
893,221.60213726666666,221.6914229854167,47.0,71.0
894,221.1259467666667,221.71523251041668,59.0,112.0
895,222.0783277666667,222.64975636666668,62.0,127.0
896,222.0783277666667,222.68348652708335,66.0,127.0
897,222.0783277666667,222.69935954375,59.0,122.0
898,222.0783277666667,223.09221670625,47.0,82.0
899,222.55451826666666,223.11007385000002,54.0,93.0
900,223.0307087666667,223.45332783541667,62.0,127.0
901,223.0307087666667,223.47316910625,66.0,127.0
902,223.50689926666666,223.93943897083335,45.0,117.0
903,223.9830897666667,224.56642312916668,62.0,107.0
904,223.9830897666667,224.57039138333334,59.0,112.0
905,223.9830897666667,224.58229614583334,55.0,122.0
906,224.45928026666667,224.99697870625002,50.0,59.0
907,224.93547076666667,225.24697871875,55.0,107.0
908,224.93547076666667,225.48904222291668,62.0,117.0
909,224.93547076666667,225.54459778125002,59.0,127.0
910,223.9830897666667,225.64380413541667,43.0,89.0
911,225.41166126666667,225.68547080416667,55.0,92.0
912,225.17356601666668,225.87594700416668,50.0,95.0
913,225.88785176666667,227.89511634583334,61.0,127.0
914,225.88785176666667,227.90519699166666,45.0,99.0
915,225.88785176666667,227.90721312083335,64.0,112.0
916,225.88785176666667,227.90922925,57.0,122.0
917,228.2176970125,228.57656800416666,59.0,66.0
918,227.99793893333333,228.72979382083332,54.0,88.0
919,229.15116481666666,229.4757616125,59.0,61.0
920,227.74995504583333,229.7056003375,47.0,77.0
921,228.90922931666665,229.905197125,54.0,43.0
922,229.39310031666668,230.07656810416665,62.0,69.0
923,228.46164864166667,230.13301972083335,66.0,99.0
924,230.11890681666668,230.40318102916666,59.0,55.0
925,230.82051976666668,231.07231189583334,54.0,47.0
926,229.856810025,231.09810554791667,47.0,69.0
927,231.07826427708335,231.51477223541667,59.0,65.0
928,231.34612143333334,231.54651826875,62.0,52.0
929,230.36285844583333,231.62588335208335,61.0,100.0
930,232.07032781875,232.3619945,61.0,54.0
931,231.80842304375,232.38778815208335,59.0,52.0
932,232.31239132291668,233.03659770833335,66.0,92.0
933,232.79651833125,233.242946925,59.0,37.0
934,232.99889929375001,233.31239137291666,61.0,61.0
935,233.25088343333334,233.79651838125,62.0,72.0
936,233.96120092916667,234.16556601875,61.0,35.0
937,233.72508980625,234.23897872083333,59.0,37.0
938,234.19731205208333,234.72905811041667,64.0,76.0
939,234.42747079375002,234.89969303958333,59.0,45.0
940,231.5643754125,234.92350256458334,45.0,71.0
941,234.65167715416666,235.03659780833334,61.0,56.0
942,234.93937558125,235.35207401458334,62.0,54.0
943,235.15564543333335,235.36397877708333,59.0,52.0
944,235.61397878958334,236.3024708875,50.0,47.0
945,235.85604229375,236.34413755625002,55.0,55.0
946,236.54651851875,237.23104233333333,50.0,42.0
947,237.38937566666667,239.21854233333332,50.0,44.0
948,235.35604226875,239.38729233333333,43.0,72.0
949,236.7872923333333,239.46437566666665,55.0,50.0
950,237.09354233333332,239.528959,59.0,56.0
951,236.0881851625,239.5372923333333,62.0,89.0
952,242.203959,242.36854233333332,49.0,50.0
953,242.397709,242.71854233333332,50.0,52.0
954,242.64354233333333,242.93104233333332,54.0,43.0
955,242.9122923333333,242.997709,59.0,41.0
956,243.18104233333332,243.32062566666667,61.0,63.0
957,243.49562566666665,243.86437566666666,62.0,66.0
958,243.81437566666665,244.14979233333332,66.0,65.0
959,244.14562566666666,244.22062566666665,71.0,65.0
960,244.47687566666667,244.922709,74.0,65.0
961,244.87479233333332,245.310209,78.0,57.0
962,245.310209,245.42687566666666,83.0,61.0
963,245.916459,246.01437566666667,86.0,66.0
964,246.397709,246.485209,90.0,52.0
965,241.97062566666665,248.97687566666667,47.0,65.0
966,241.72687566666667,248.978959,42.0,45.0
967,247.31645899999998,248.99354233333332,98.0,51.0
968,247.39354233333333,249.00187566666665,102.0,55.0
969,247.2872923333333,249.00395899999998,95.0,35.0
970,241.291459,249.01437566666667,35.0,83.0
