,start,end,pitch,velocity
0,23.8430317125,23.96108715,68.0,112.0
1,24.1763647125,24.4555311,76.0,117.0
2,24.5096977125,24.78330855,75.0,127.0
3,24.843030712500003,24.987475012500003,76.0,107.0
4,25.176363712500002,25.34997465,76.0,127.0
5,25.8430297125,26.073585037500003,68.0,107.0
6,26.1763627125,26.444418000000002,73.0,127.0
7,26.5096957125,26.730528825,68.0,89.0
8,26.8430287125,27.0513618375,73.0,127.0
9,27.1763617125,28.077749700000002,71.0,122.0
10,28.176360712500003,28.319416125,68.0,112.0
11,28.509693712500003,28.87219335,71.0,112.0
12,28.843026712500002,29.0735820375,73.0,117.0
13,29.176359712500002,29.5096927125,73.0,127.0
14,30.1763587125,30.3708029625,64.0,107.0
15,30.5096917125,30.794413650000003,64.0,95.0
16,30.8430247125,31.1430244125,71.0,97.0
17,31.1763577125,33.330522225,68.0,99.0
18,34.5096877125,34.60552095,76.0,127.0
19,34.8430207125,35.047187175000005,76.0,127.0
20,35.1763537125,35.313853575,76.0,100.0
21,35.5096867125,35.7596864625,68.0,112.0
22,35.8430197125,36.0221862,76.0,122.0
23,36.5096857125,36.5819078625,71.0,117.0
24,36.843018712500005,37.10551845,73.0,127.0
25,37.1763517125,37.2680182875,68.0,127.0
26,37.509684712500004,37.784684437500005,73.0,127.0
27,37.8430177125,38.074961925000004,71.0,127.0
28,38.1763507125,38.6152391625,71.0,127.0
29,38.8430167125,39.1263497625,68.0,127.0
30,39.1763497125,39.4763494125,66.0,100.0
31,39.5096827125,39.8263490625,64.0,102.0
32,39.843015712500005,40.1624598375,64.0,112.0
33,40.509681712500004,40.808292525,64.0,96.0
34,40.8430147125,41.1291255375,73.0,112.0
35,41.176347712500004,41.297180925,71.0,127.0
36,41.5096807125,41.6555139,71.0,122.0
37,41.8430137125,42.3735687375,68.0,122.0
38,42.343013212500004,42.913845975,66.0,112.0
39,45.1763437125,45.305510250000005,76.0,89.0
40,45.5096767125,45.668009887500006,76.0,102.0
41,45.8430097125,45.980509575,76.0,107.0
42,46.1763427125,46.4207869125,68.0,122.0
43,46.509675712500005,46.673564437500005,76.0,117.0
44,47.176341712500005,47.4068970375,68.0,107.0
45,47.5096747125,47.777730000000005,73.0,127.0
46,47.843007712500004,48.3374516625,68.0,122.0
47,48.5096737125,49.308284025,71.0,122.0
48,49.5096727125,49.7555058,68.0,117.0
49,49.8430057125,50.0985610125,71.0,100.0
50,50.176338712500005,50.390227387500005,73.0,127.0
51,50.5096717125,50.6457826875,71.0,127.0
52,50.843004712500004,51.097171125,73.0,127.0
53,51.1763377125,51.3874486125,73.0,127.0
54,51.509670712500004,51.7041149625,64.0,107.0
55,51.8430037125,52.12772565,64.0,95.0
56,52.1763367125,52.476336412500004,71.0,97.0
57,52.5096697125,54.663834225,68.0,99.0
58,55.8429997125,56.004110662500004,76.0,127.0
59,56.1763327125,56.319388125,76.0,127.0
60,56.5096657125,56.663832225,75.0,127.0
61,56.842998712500005,57.1263317625,76.0,117.0
62,57.1763317125,57.548553562500004,68.0,107.0
63,57.8429977125,58.1568862875,68.0,117.0
64,58.176330712500004,58.438830450000005,73.0,127.0
65,58.5096637125,58.8429967125,68.0,127.0
66,58.8429967125,59.117996437500004,73.0,127.0
67,59.1763297125,59.9013289875,71.0,127.0
68,60.1763287125,60.459661762500005,68.0,127.0
69,60.509661712500005,60.797161425000006,71.0,112.0
70,60.8429947125,61.101327787500004,73.0,122.0
71,61.5096607125,61.792993762500004,73.0,127.0
72,61.842993712500004,62.0763268125,71.0,93.0
73,62.1763267125,62.3874376125,73.0,127.0
74,62.5096597125,62.752715025,76.0,102.0
75,62.842992712500006,63.00549255,73.0,112.0
76,63.1763257125,65.4068790375,78.0,127.0
77,65.5096567125,65.786045325,76.0,127.0
78,65.8429897125,66.1096561125,75.0,127.0
79,66.17632271250001,67.3374326625,76.0,127.0
80,68.1763207125,68.5929869625,73.0,127.0
81,68.5096537125,68.7596534625,68.0,107.0
82,68.84298671250001,70.2874297125,71.0,112.0
83,70.8429847125,71.10548445,68.0,127.0
84,71.17631771250001,71.39992860000001,71.0,107.0
85,71.5096507125,71.9152058625,73.0,117.0
86,72.1763167125,72.44992755,76.0,127.0
87,72.5096497125,72.891593775,73.0,127.0
88,73.1763157125,73.447148775,71.0,122.0
89,73.50964871250001,73.841592825,66.0,117.0
90,73.8429817125,74.813814075,68.0,117.0
91,76.1763127125,76.4624235375,66.0,117.0
92,76.5096457125,76.7221455,68.0,112.0
93,76.8429787125,77.35270042500001,71.0,107.0
94,77.5096447125,77.7985333125,68.0,122.0
95,77.8429777125,78.40825492500001,71.0,122.0
96,78.8429767125,79.0679764875,68.0,117.0
97,79.1763097125,79.3957539375,71.0,100.0
98,79.50964271250001,79.98325335,73.0,127.0
99,80.1763087125,80.4763084125,76.0,122.0
100,80.5096417125,81.2096410125,73.0,117.0
101,81.5096407125,81.7763071125,71.0,107.0
102,81.8429737125,82.07352903750001,73.0,127.0
103,82.17630671250001,82.3554732,76.0,112.0
104,82.5096397125,83.08047247500001,76.0,127.0
105,83.8429717125,84.10686033750001,73.0,117.0
106,84.1763047125,84.824915175,80.0,127.0
107,84.8429707125,86.81935762500001,78.0,127.0
108,86.84296871250001,87.11935732500001,76.0,127.0
109,87.1763017125,87.4429681125,75.0,127.0
110,87.5096347125,88.6707446625,76.0,127.0
111,89.50963271250001,89.9262989625,73.0,127.0
112,89.8429657125,90.0929654625,68.0,107.0
113,90.1762987125,91.6207417125,71.0,112.0
114,92.1762967125,92.43879645,68.0,127.0
115,92.5096297125,92.7332406,71.0,107.0
116,92.84296271250001,93.24851786250001,73.0,117.0
117,93.5096287125,93.78323955,76.0,127.0
118,93.8429617125,94.22490577500001,73.0,127.0
119,94.5096277125,94.78046077500001,71.0,122.0
120,94.8429607125,95.174904825,66.0,117.0
121,95.1762937125,96.147126075,68.0,117.0
122,97.5096247125,97.836013275,66.0,127.0
123,97.84295771250001,98.1762907125,68.0,127.0
124,98.1762907125,98.686012425,71.0,107.0
125,99.17628971250001,99.6901780875,71.0,127.0
126,100.17628871250001,100.40128848750001,68.0,117.0
127,100.5096217125,100.72906593750001,71.0,100.0
128,100.8429547125,101.31656535,73.0,127.0
129,101.50962071250001,101.80962041250001,76.0,122.0
130,101.8429537125,102.5429530125,73.0,117.0
131,102.84295271250001,103.1096191125,71.0,107.0
132,103.1762857125,103.4068410375,73.0,127.0
133,103.5096187125,103.6887852,76.0,112.0
134,103.84295171250001,104.8429507125,76.0,127.0
135,105.17628371250001,105.4221168,76.0,112.0
136,105.5096167125,105.77906088750001,73.0,127.0
137,105.8429497125,107.6707256625,78.0,127.0
138,107.50961471250001,107.958225375,76.0,127.0
139,108.1762807125,108.4096138125,75.0,127.0
140,108.5096137125,109.102668675,76.0,127.0
141,109.1762797125,111.7984993125,73.0,127.0
142,114.5096077125,114.62766315,68.0,112.0
143,114.84294071250001,115.0540516125,76.0,127.0
144,115.1762737125,115.2998847,76.0,107.0
145,115.5096067125,115.69432875000001,76.0,127.0
146,115.84293971250001,115.9346062875,68.0,127.0
147,116.17627271250001,116.3346058875,76.0,127.0
148,116.5096057125,116.7401610375,68.0,107.0
149,116.8429387125,117.110994,73.0,127.0
150,117.17627171250001,117.61654905,73.0,127.0
151,117.8429377125,118.56099255000001,71.0,127.0
152,118.6762702125,118.9679365875,68.0,127.0
153,119.1762697125,119.5068249375,66.0,122.0
154,119.50960271250001,119.8346023875,64.0,112.0
155,119.84293571250001,120.047102175,64.0,127.0
156,120.5096017125,120.6068238375,61.0,117.0
157,120.84293471250001,121.14293441250001,73.0,127.0
158,121.1762677125,121.2651565125,71.0,99.0
159,121.5096007125,121.7790448875,71.0,117.0
160,121.8429337125,122.1623778375,66.0,122.0
161,122.17626671250001,123.6651541125,68.0,107.0
162,125.1762637125,125.30959691250001,76.0,69.0
163,125.5095967125,125.74154092500001,76.0,112.0
164,125.84292971250001,125.9318185125,68.0,112.0
165,126.0095962125,126.2554293,76.0,127.0
166,126.84292871250001,127.102650675,76.0,112.0
167,127.17626171250001,127.2651505125,68.0,122.0
168,127.5095947125,127.77209445000001,73.0,127.0
169,127.8429277125,127.9345942875,68.0,127.0
170,128.1762607125,128.4512604375,73.0,127.0
171,128.5095937125,129.0776487,71.0,127.0
172,129.5095927125,129.7568146875,68.0,127.0
173,129.8429257125,130.17625871250002,71.0,107.0
174,130.17625871250002,130.35264742500001,73.0,127.0
175,130.5095917125,130.7679247875,73.0,127.0
176,131.5095907125,131.7957015375,73.0,112.0
177,131.8429237125,131.963756925,71.0,127.0
178,132.1762567125,132.3220899,71.0,122.0
179,132.5095897125,132.8123671875,64.0,100.0
180,132.8429227125,134.9887539,66.0,127.0
181,135.84291971250002,135.9887529,76.0,127.0
182,136.1762527125,136.2873637125,76.0,127.0
183,136.5095857125,136.6179189375,76.0,127.0
184,136.8429187125,137.0651407125,76.0,127.0
185,137.8429177125,137.95958426250002,76.0,127.0
186,138.1762507125,138.4262504625,68.0,122.0
187,138.50958371250002,138.7456945875,71.0,122.0
188,138.8429167125,139.0901386875,73.0,122.0
189,139.1762497125,139.55958266250002,71.0,127.0
190,140.1762487125,140.4220818,68.0,117.0
191,140.5095817125,140.76513701250002,71.0,100.0
192,140.8429147125,141.0568033875,73.0,127.0
193,141.17624771250001,141.413747475,73.0,127.0
194,141.8429137125,142.0345801875,73.0,127.0
195,142.17624671250002,142.3706909625,64.0,107.0
196,142.5095797125,142.79430165,64.0,95.0
197,142.8429127125,143.1429124125,71.0,97.0
198,143.17624571250002,146.1762427125,68.0,99.0
199,146.5095757125,146.62485337500001,76.0,86.0
200,146.84290871250002,147.10540845,76.0,102.0
201,147.1762417125,147.3206860125,68.0,127.0
202,147.5095747125,147.6623523375,76.0,127.0
203,147.8429077125,148.00401866250002,76.0,127.0
204,148.1762407125,148.38318495000001,73.0,127.0
205,148.8429067125,149.0790175875,68.0,127.0
206,149.1762397125,149.4151283625,71.0,117.0
207,149.50957271250002,149.7512391375,73.0,127.0
208,149.6762392125,149.8790167875,71.0,122.0
209,150.1762387125,150.4901272875,71.0,127.0
210,150.8429047125,151.1262377625,68.0,127.0
211,151.1762377125,151.463737425,71.0,112.0
212,151.5095707125,151.76790378750002,73.0,122.0
213,151.8429037125,152.0109591,73.0,127.0
214,152.5095697125,152.64706957500002,73.0,127.0
215,152.67623621250002,152.7817916625,71.0,100.0
216,152.8429027125,153.0540136125,73.0,127.0
217,153.17623571250002,153.419291025,76.0,102.0
218,153.5095687125,153.67206855,73.0,112.0
219,153.8429017125,156.0734550375,78.0,127.0
220,156.1762327125,156.452621325,76.0,127.0
221,156.5095657125,156.7762321125,75.0,127.0
222,156.84289871250002,158.0040086625,76.0,127.0
223,158.8428967125,159.2595629625,73.0,127.0
224,159.1762297125,159.4262294625,68.0,107.0
225,159.5095627125,160.95400571250002,71.0,112.0
226,161.50956071250002,161.77206045,68.0,127.0
227,161.8428937125,162.0665046,71.0,107.0
228,162.1762267125,162.5817818625,73.0,117.0
229,162.8428927125,163.11650355,76.0,127.0
230,163.1762257125,163.558169775,73.0,127.0
231,163.8428917125,164.113724775,71.0,122.0
232,164.17622471250002,164.508168825,66.0,117.0
233,164.5095577125,165.480390075,68.0,117.0
234,166.8428887125,167.1289995375,66.0,117.0
235,167.1762217125,167.3887215,68.0,112.0
236,167.5095547125,168.01927642500002,71.0,107.0
237,168.1762207125,168.4651093125,68.0,122.0
238,168.5095537125,169.07483092500001,71.0,122.0
239,169.5095527125,169.7345524875,68.0,117.0
240,169.84288571250002,170.0623299375,71.0,100.0
241,170.1762187125,170.64982935,73.0,127.0
242,170.8428847125,171.1428844125,76.0,122.0
243,171.1762177125,171.8762170125,73.0,117.0
244,172.1762167125,172.4428831125,71.0,107.0
245,172.50954971250002,172.7401050375,73.0,127.0
246,172.8428827125,173.0220492,76.0,112.0
247,173.1762157125,173.747048475,76.0,127.0
248,174.5095477125,174.77343633750002,73.0,117.0
249,174.8428807125,175.49149117500002,80.0,127.0
250,175.5095467125,177.485933625,78.0,127.0
251,177.5095447125,177.785933325,76.0,127.0
252,177.8428777125,178.1095441125,75.0,127.0
253,178.1762107125,179.33732066250002,76.0,127.0
254,180.1762087125,180.59287496250002,73.0,127.0
255,180.5095417125,180.7595414625,68.0,107.0
256,180.84287471250002,182.2873177125,71.0,112.0
257,182.8428727125,183.10537245,68.0,127.0
258,183.1762057125,183.3998166,71.0,107.0
259,183.50953871250002,183.91509386250002,73.0,117.0
260,184.1762047125,184.44981555,76.0,127.0
261,184.50953771250002,184.89148177500002,73.0,127.0
262,185.1762037125,185.44703677500002,71.0,122.0
263,185.50953671250002,185.84148082500002,66.0,117.0
264,185.8428697125,186.813702075,68.0,117.0
265,188.17620071250002,188.50258927500002,66.0,127.0
266,188.5095337125,188.8428667125,68.0,127.0
267,188.8428667125,189.35258842500002,71.0,107.0
268,189.84286571250001,190.3567540875,71.0,127.0
269,190.84286471250002,191.0678644875,68.0,117.0
270,191.1761977125,191.39564193750002,71.0,100.0
271,191.5095307125,191.98314135,73.0,127.0
272,192.1761967125,192.4761964125,76.0,122.0
273,192.5095297125,193.2095290125,73.0,117.0
274,193.5095287125,193.7761951125,71.0,107.0
275,193.8428617125,194.0734170375,73.0,127.0
276,194.1761947125,194.3553612,76.0,112.0
277,194.50952771250002,195.50952671250002,76.0,127.0
278,195.8428597125,196.08869280000002,76.0,112.0
279,196.1761927125,196.4456368875,73.0,127.0
280,196.50952571250002,198.3373016625,78.0,127.0
281,198.17619071250002,198.624801375,76.0,127.0
282,198.8428567125,199.07618981250002,75.0,127.0
283,199.17618971250002,199.769244675,76.0,127.0
284,199.8428557125,202.4650753125,73.0,127.0
