,start,end,pitch,velocity
0,1.0753414083333332,1.4452040583333332,68.0,83.0
1,1.486299908333333,1.6626695979166664,64.0,79.0
2,1.897258408333333,2.0530801729166663,68.0,81.0
3,1.897258408333333,2.0547924999999996,59.0,82.0
4,2.308216908333333,2.4537647104166664,64.0,84.0
5,2.308216908333333,2.458901691666666,59.0,82.0
6,2.719175408333333,2.8390383041666665,68.0,87.0
7,2.719175408333333,2.8407506312499997,59.0,87.0
8,3.130133908333333,3.291092654166666,64.0,69.0
9,3.130133908333333,3.309928252083333,59.0,69.0
10,1.0753414083333332,3.690064864583333,47.0,83.0
11,1.0753414083333332,3.7140374437499997,40.0,77.0
12,3.541092408333333,3.746571658333333,68.0,83.0
13,3.541092408333333,3.820201722916666,59.0,81.0
14,3.952050908333333,4.167804120833333,59.0,34.0
15,3.952050908333333,4.2534204749999995,64.0,83.0
16,4.363009408333332,4.801365141666666,68.0,86.0
17,4.773967908333333,4.994858102083333,63.0,89.0
18,5.184926408333332,5.335611191666666,68.0,91.0
19,5.595884908333333,5.803076485416666,63.0,88.0
20,6.006843408333332,6.1404049208333324,63.0,88.0
21,6.006843408333332,6.193487060416666,68.0,86.0
22,6.417801908333333,6.606157887499999,63.0,82.0
23,6.828760408333332,6.981157518749999,63.0,88.0
24,6.828760408333332,7.082184816666666,68.0,90.0
25,4.363009408333332,7.107869722916666,47.0,83.0
26,4.363009408333332,7.126705320833333,39.0,84.0
27,7.239718908333332,7.4366365229166655,63.0,89.0
28,7.650677408333332,7.842458041666665,61.0,82.0
29,7.650677408333332,8.102731758333332,68.0,85.0
30,8.061635908333333,8.3013617,61.0,77.0
31,8.472594408333332,8.669512022916665,68.0,90.0
32,8.472594408333332,8.67122435,64.0,89.0
33,8.883552908333332,9.107867756249998,61.0,76.0
34,9.294511408333332,9.486292041666665,61.0,84.0
35,9.294511408333332,9.537661854166666,64.0,90.0
36,9.294511408333332,9.5445111625,68.0,89.0
37,9.705469908333333,9.893825887499998,61.0,74.0
38,7.650677408333332,10.19690778125,37.0,88.0
39,10.116428408333332,10.529099235416666,64.0,89.0
40,10.116428408333332,10.611290935416665,68.0,89.0
41,10.527386908333332,10.657523766666666,61.0,85.0
42,10.938345408333332,11.162660256249998,57.0,80.0
43,10.938345408333332,11.179783527083332,68.0,82.0
44,11.349303908333331,11.542796868749999,57.0,70.0
45,11.349303908333331,11.553070831249999,64.0,74.0
46,11.760262408333332,11.900673229166665,68.0,87.0
47,11.760262408333332,11.933207443749998,57.0,81.0
48,12.171220908333332,12.385261793749999,64.0,55.0
49,12.171220908333332,12.41265902708333,57.0,68.0
50,12.582179408333332,12.794507966666664,57.0,82.0
51,12.582179408333332,12.811631237499999,68.0,85.0
52,12.993137908333331,13.18663086875,64.0,80.0
53,13.40409640833333,13.705465974999997,57.0,82.0
54,13.815054908333332,14.171218941666664,64.0,64.0
55,13.815054908333332,14.19005453958333,57.0,81.0
56,13.40409640833333,14.248273660416665,68.0,88.0
57,14.226013408333332,14.248273660416665,68.0,84.0
58,10.938345408333332,14.316766743749998,45.0,88.0
59,14.226013408333332,14.453752910416664,59.0,84.0
60,14.636971908333331,14.720875935416665,59.0,61.0
61,14.636971908333331,14.79621832708333,64.0,75.0
62,15.04793040833333,15.208889154166664,59.0,85.0
63,15.04793040833333,15.231149406249997,68.0,83.0
64,15.458888908333332,15.657518849999997,64.0,76.0
65,15.458888908333332,15.662655831249998,59.0,75.0
66,14.226013408333332,16.320189431249997,40.0,88.0
67,15.869847408333332,16.34073735625,68.0,88.0
68,15.869847408333332,16.38868251458333,59.0,88.0
69,16.28080590833333,16.43320301875,64.0,79.0
70,16.69176440833333,17.166079010416663,68.0,86.0
71,16.69176440833333,17.335599391666666,59.0,86.0
72,17.10272290833333,17.362996624999997,64.0,83.0
73,17.51368140833333,17.690051097916665,59.0,79.0
74,17.51368140833333,17.844160535416663,68.0,90.0
75,17.92463990833333,18.085598654166663,63.0,80.0
76,17.92463990833333,18.116420541666663,59.0,77.0
77,18.335598408333333,18.481146210416664,59.0,82.0
78,18.335598408333333,18.513680424999997,68.0,84.0
79,18.746556908333332,18.886967729166663,63.0,75.0
80,18.746556908333332,18.907515654166666,59.0,69.0
81,19.15751540833333,19.30648786458333,59.0,85.0
82,19.15751540833333,19.337309752083332,68.0,84.0
83,17.51368140833333,19.674638187499998,39.0,89.0
84,19.56847390833333,19.698610766666665,63.0,77.0
85,19.56847390833333,19.736281962499998,59.0,75.0
86,19.97943240833333,20.176350022916665,59.0,84.0
87,19.97943240833333,20.25169241458333,68.0,89.0
88,20.39039090833333,20.505116822916666,59.0,69.0
89,20.39039090833333,20.527377074999997,63.0,80.0
90,20.80134940833333,21.013677966666663,61.0,86.0
91,20.80134940833333,21.04278752708333,68.0,87.0
92,21.21230790833333,21.364705018749998,64.0,78.0
93,21.21230790833333,21.393814579166662,61.0,77.0
94,21.62326640833333,21.775663518749997,68.0,87.0
95,21.62326640833333,21.78593748125,61.0,85.0
96,22.034224908333332,22.19860830833333,64.0,70.0
97,22.034224908333332,22.20888227083333,61.0,73.0
98,22.44518340833333,22.607854481249998,61.0,85.0
99,22.44518340833333,22.611279135416662,68.0,88.0
100,20.80134940833333,22.869840524999997,37.0,88.0
101,22.85614190833333,22.996552729166662,64.0,77.0
102,22.85614190833333,23.017100654166665,61.0,78.0
103,23.26710040833333,23.44689475208333,61.0,89.0
104,23.26710040833333,23.479428966666664,68.0,90.0
105,23.67805890833333,23.825319037499998,64.0,82.0
106,23.67805890833333,23.851003943749998,61.0,79.0
107,24.08901740833333,24.256825462499997,63.0,88.0
108,24.08901740833333,24.318469237499997,68.0,86.0
109,24.49997590833333,24.64894836458333,63.0,83.0
110,24.49997590833333,24.672920943749997,59.0,76.0
111,24.91093440833333,25.032509631249997,68.0,88.0
112,24.91093440833333,25.041071266666663,59.0,87.0
113,25.32189290833333,25.441755804166664,63.0,79.0
114,25.32189290833333,25.458879074999995,59.0,72.0
115,25.732851408333328,25.859563612499997,59.0,85.0
116,24.08901740833333,25.87668688333333,35.0,82.0
117,25.732851408333328,25.87668688333333,68.0,88.0
118,26.14380990833333,26.258535822916663,63.0,81.0
119,26.14380990833333,26.27737142083333,59.0,77.0
120,26.55476840833333,26.69004224791666,59.0,88.0
121,26.55476840833333,26.748261368749997,68.0,89.0
122,26.96572690833333,27.090726785416663,63.0,78.0
123,26.96572690833333,27.121548672916663,59.0,75.0
124,27.37668540833333,27.594150947916663,61.0,80.0
125,27.37668540833333,27.66435635833333,68.0,89.0
126,27.78764390833333,27.955451962499996,61.0,80.0
127,27.78764390833333,27.95716428958333,64.0,80.0
128,28.19860240833333,28.366410462499996,61.0,88.0
129,28.19860240833333,28.37839675208333,68.0,94.0
130,28.60956090833333,28.739697766666662,64.0,84.0
131,28.60956090833333,28.767094999999998,61.0,81.0
132,29.020519408333328,29.42634092708333,68.0,93.0
133,29.020519408333328,29.558190112499997,61.0,89.0
134,29.431477908333328,29.587299672916664,64.0,79.0
135,27.37668540833333,30.097573143749997,45.0,83.0
136,29.84243640833333,30.193463460416663,68.0,89.0
137,29.84243640833333,30.38695642083333,61.0,88.0
138,30.25339490833333,30.446887868749997,64.0,78.0
139,30.66435340833333,30.820175172916663,64.0,88.0
140,30.66435340833333,30.94688737708333,68.0,87.0
141,31.07531190833333,31.237982981249996,63.0,83.0
142,31.07531190833333,31.261955560416663,59.0,80.0
143,31.48627040833333,31.618119593749995,59.0,88.0
144,31.48627040833333,31.71743456458333,68.0,89.0
145,31.89722890833333,32.17976287708333,63.0,86.0
146,30.66435340833333,32.198598475,44.0,89.0
147,31.89722890833333,32.22085872708333,59.0,79.0
148,32.30818740833333,32.39037910833333,63.0,84.0
149,32.30818740833333,32.80133760833333,68.0,89.0
150,32.71914590833333,32.96400868124999,64.0,80.0
151,32.71914590833333,32.98626893333333,61.0,79.0
152,33.13010440833333,33.36469321875,68.0,94.0
153,33.13010440833333,33.37154252708333,61.0,84.0
154,33.54106290833333,33.76024077499999,64.0,89.0
155,33.54106290833333,33.76880241041666,61.0,84.0
156,32.30818740833333,34.04448707083333,49.0,86.0
157,33.95202140833333,34.19859650833333,58.0,86.0
158,33.95202140833333,34.23455537708333,66.0,85.0
159,34.36297990833333,34.53592494375,61.0,77.0
160,34.36297990833333,34.55304821458333,58.0,78.0
161,34.77393840833333,34.94174646249999,58.0,89.0
162,34.77393840833333,34.97770533124999,66.0,89.0
163,35.59585540833333,35.78934836875,66.0,88.0
164,35.59585540833333,35.804759312499996,58.0,88.0
165,36.00681390833333,36.15236171041666,61.0,88.0
166,36.41777240833333,36.599279079166664,58.0,92.0
167,36.41777240833333,36.7088680125,66.0,88.0
168,33.95202140833333,36.756813170833325,42.0,89.0
169,36.82873090833333,36.94345682291666,58.0,74.0
170,36.82873090833333,36.95373078541666,61.0,88.0
171,37.23968940833333,37.48626450833333,47.0,88.0
172,37.23968940833333,37.67462048749999,51.0,90.0
173,37.23968940833333,38.11297622083333,35.0,86.0
174,37.650647908333326,38.14551043541666,47.0,84.0
175,38.061606408333326,38.15578439791666,51.0,94.0
176,38.061606408333326,38.210578864583326,54.0,93.0
177,38.883523408333325,39.077016368749995,63.0,93.0
178,38.883523408333325,39.119824545833325,59.0,89.0
179,39.29448190833333,39.487974868749994,63.0,77.0
180,39.29448190833333,39.549618643749994,66.0,81.0
181,39.70544040833333,40.479412249999996,63.0,102.0
182,39.70544040833333,40.49311086666666,71.0,88.0
183,39.70544040833333,40.496535520833326,59.0,91.0
184,39.70544040833333,40.496535520833326,66.0,92.0
185,40.11639890833333,40.56331627708333,54.0,88.0
186,38.472564908333325,40.57016558541666,47.0,77.0
187,40.52735740833333,40.75509691041666,59.0,84.0
188,40.52735740833333,40.81331603125,68.0,84.0
189,40.93831590833333,41.02221993541666,59.0,61.0
190,40.93831590833333,41.09756232708333,64.0,75.0
191,41.34927440833333,41.51023315416666,59.0,85.0
192,41.34927440833333,41.53249340625,68.0,83.0
193,41.76023290833333,41.958862849999996,64.0,76.0
194,41.76023290833333,41.96399983124999,59.0,75.0
195,40.52735740833333,42.62153343124999,40.0,88.0
196,42.17119140833333,42.642081356249996,68.0,88.0
197,42.17119140833333,42.69002651458333,59.0,88.0
198,42.58214990833333,42.73454701874999,64.0,79.0
199,42.99310840833333,43.46742301041666,68.0,86.0
200,42.99310840833333,43.63694339166666,59.0,86.0
201,43.40406690833333,43.664340624999994,64.0,83.0
202,43.81502540833333,43.99139509791666,59.0,79.0
203,43.81502540833333,44.14550453541666,68.0,90.0
204,44.225983908333326,44.38694265416666,63.0,80.0
205,44.225983908333326,44.41776454166666,59.0,77.0
206,44.636942408333326,44.78249021041666,59.0,82.0
207,44.636942408333326,44.815024425,68.0,84.0
208,45.047900908333325,45.188311729166664,63.0,75.0
209,45.047900908333325,45.20885965416666,59.0,69.0
210,45.458859408333325,45.607831864583325,59.0,85.0
211,45.458859408333325,45.63865375208333,68.0,84.0
212,43.81502540833333,45.975982187499994,39.0,89.0
213,45.869817908333324,45.99995476666666,63.0,77.0
214,45.869817908333324,46.037625962499995,59.0,75.0
215,46.280776408333324,46.47769402291666,59.0,84.0
216,46.280776408333324,46.553036414583325,68.0,89.0
217,46.69173490833333,46.80646082291666,59.0,69.0
218,46.69173490833333,46.828721075,63.0,80.0
219,47.10269340833333,47.31502196666666,61.0,86.0
220,47.10269340833333,47.34413152708333,68.0,87.0
221,47.51365190833333,47.666049018749995,64.0,78.0
222,47.51365190833333,47.69515857916666,61.0,77.0
223,47.92461040833333,48.077007518749994,68.0,87.0
224,47.92461040833333,48.087281481249995,61.0,85.0
225,48.33556890833333,48.49995230833333,64.0,70.0
226,48.33556890833333,48.51022627083333,61.0,73.0
227,48.74652740833333,48.909198481249994,61.0,85.0
228,48.74652740833333,48.91262313541666,68.0,88.0
229,47.10269340833333,49.171184524999994,37.0,88.0
230,49.15748590833333,49.29789672916666,64.0,77.0
231,49.15748590833333,49.31844465416666,61.0,78.0
232,49.56844440833333,49.748238752083324,61.0,89.0
233,49.56844440833333,49.78077296666666,68.0,90.0
234,49.97940290833333,50.126663037499995,64.0,82.0
235,49.97940290833333,50.152347943749994,61.0,79.0
236,50.39036140833333,50.55816946249999,63.0,88.0
237,50.39036140833333,50.61981323749999,68.0,86.0
238,50.801319908333326,50.950292364583326,63.0,83.0
239,50.801319908333326,50.97426494374999,59.0,76.0
240,51.212278408333326,51.333853631249994,68.0,88.0
241,51.212278408333326,51.34241526666666,59.0,87.0
242,51.623236908333325,51.74309980416666,63.0,79.0
243,51.623236908333325,51.76022307499999,59.0,72.0
244,52.034195408333325,52.16090761249999,59.0,85.0
245,50.39036140833333,52.17803088333333,35.0,82.0
246,52.034195408333325,52.17803088333333,68.0,88.0
247,52.445153908333324,52.559879822916656,63.0,81.0
248,52.445153908333324,52.578715420833326,59.0,77.0
249,52.856112408333324,52.99138624791666,59.0,88.0
250,52.856112408333324,53.049605368749994,68.0,89.0
251,53.267070908333324,53.39207078541666,63.0,78.0
252,53.267070908333324,53.42289267291666,59.0,75.0
253,53.67802940833332,53.89549494791666,61.0,80.0
254,53.67802940833332,53.96570035833333,68.0,89.0
255,54.08898790833332,54.25679596249999,61.0,80.0
256,54.08898790833332,54.258508289583325,64.0,80.0
257,54.49994640833333,54.66775446249999,61.0,88.0
258,54.49994640833333,54.679740752083326,68.0,94.0
259,54.91090490833333,55.04104176666666,64.0,84.0
260,54.91090490833333,55.06843899999999,61.0,81.0
261,55.32186340833333,55.727684927083324,68.0,93.0
262,55.32186340833333,55.85953411249999,61.0,89.0
263,55.73282190833333,55.88864367291666,64.0,79.0
264,53.67802940833332,56.39891714374999,45.0,83.0
265,56.14378040833333,56.49480746041666,68.0,89.0
266,56.14378040833333,56.68830042083333,61.0,88.0
267,56.55473890833333,56.74823186874999,64.0,78.0
268,56.96569740833333,57.121519172916656,64.0,88.0
269,56.96569740833333,57.24823137708333,68.0,87.0
270,57.376655908333326,57.53932698124999,63.0,83.0
271,57.376655908333326,57.56329956041666,59.0,80.0
272,57.787614408333326,57.919463593749995,59.0,88.0
273,57.787614408333326,58.01877856458333,68.0,89.0
274,58.198572908333325,58.48110687708333,63.0,86.0
275,56.96569740833333,58.49994247499999,44.0,89.0
276,58.198572908333325,58.522202727083325,59.0,79.0
277,58.609531408333325,58.69172310833333,63.0,84.0
278,58.609531408333325,59.10268160833333,68.0,89.0
279,59.020489908333325,59.26535268124999,64.0,80.0
280,59.020489908333325,59.28761293333333,61.0,79.0
281,59.431448408333324,59.66603721874999,68.0,94.0
282,59.431448408333324,59.67288652708333,61.0,84.0
283,59.842406908333324,60.06158477499999,64.0,89.0
284,59.842406908333324,60.07014641041666,61.0,84.0
285,58.609531408333325,60.34583107083333,49.0,86.0
286,60.25336540833332,60.499940508333324,58.0,86.0
287,60.25336540833332,60.535899377083325,66.0,85.0
288,60.66432390833332,60.83726894374999,61.0,77.0
289,60.66432390833332,60.85439221458333,58.0,78.0
290,61.07528240833332,61.24309046249999,58.0,89.0
291,61.07528240833332,61.27904933124999,66.0,89.0
292,61.89719940833333,62.09069236874999,66.0,88.0
293,61.89719940833333,62.10610331249999,58.0,88.0
294,62.30815790833333,62.453705710416656,61.0,88.0
295,62.71911640833333,62.90062307916666,58.0,92.0
296,62.71911640833333,63.01021201249999,66.0,88.0
297,60.25336540833332,63.058157170833326,42.0,89.0
298,63.13007490833333,63.24480082291666,58.0,74.0
299,63.13007490833333,63.25507478541666,61.0,88.0
300,63.54103340833333,63.78760850833333,47.0,88.0
301,63.54103340833333,63.97596448749999,51.0,90.0
302,63.54103340833333,64.41432022083332,35.0,86.0
303,63.951991908333326,64.44685443541665,47.0,84.0
304,64.36295040833332,64.45712839791666,51.0,94.0
305,64.36295040833332,64.51192286458333,54.0,93.0
306,65.18486740833332,65.37836036875,63.0,93.0
307,65.18486740833332,65.42116854583332,59.0,89.0
308,65.59582590833332,65.78931886874999,63.0,77.0
309,65.59582590833332,65.85096264375,66.0,81.0
310,66.00678440833333,66.78075625,63.0,102.0
311,66.00678440833333,66.79445486666665,71.0,88.0
312,66.00678440833333,66.79787952083332,59.0,91.0
313,66.00678440833333,66.79787952083332,66.0,92.0
314,66.41774290833332,66.86466027708333,54.0,88.0
315,64.77390890833333,66.87150958541666,47.0,77.0
316,66.82870140833333,67.3047283375,64.0,92.0
317,66.82870140833333,67.31328997291666,68.0,90.0
318,66.82870140833333,67.35952280416666,59.0,88.0
319,67.23965990833332,67.76363199583332,47.0,75.0
320,66.82870140833333,67.83726206041666,40.0,88.0
321,67.65061840833333,67.88178256458332,59.0,91.0
322,67.65061840833333,68.06157690833332,64.0,95.0
323,67.65061840833333,68.20541238333333,68.0,97.0
324,68.06157690833332,68.21226169166665,40.0,88.0
325,68.06157690833332,68.34753553124999,59.0,92.0
326,68.47253540833333,68.91945277708332,59.0,90.0
327,68.47253540833333,68.95369931875,63.0,89.0
328,69.08897315833332,69.22767165208333,59.0,89.0
329,68.88349390833332,69.40575366875,54.0,84.0
330,68.47253540833333,69.52561656458333,47.0,99.0
331,69.29445240833333,69.64376713333333,59.0,95.0
332,69.29445240833333,69.65061644166666,63.0,102.0
333,69.29445240833333,69.70369858125,66.0,89.0
334,69.70541090833332,69.82527380416666,47.0,90.0
335,70.11636940833333,70.58383470208332,64.0,84.0
336,70.11636940833333,70.64034149583333,61.0,88.0
337,70.52732790833332,71.08212188333333,44.0,76.0
338,70.11636940833333,71.18143685416666,37.0,90.0
339,70.93828640833333,71.18999848958332,64.0,99.0
340,70.93828640833333,71.22082037708333,61.0,90.0
341,70.93828640833333,71.27732717083332,68.0,93.0
342,71.34924490833332,71.59924466249998,37.0,91.0
343,71.76020340833333,71.86808001458333,35.0,89.0
344,71.76020340833333,72.41602468125,59.0,89.0
345,71.76020340833333,72.44342191458333,63.0,90.0
346,71.76020340833333,72.63520254791666,66.0,87.0
347,72.37664115833333,72.74650380833333,54.0,86.0
348,72.17116190833332,72.77561336874999,47.0,89.0
349,72.58212040833332,73.00506519791665,59.0,97.0
350,72.78759965833332,73.03246243125,63.0,94.0
351,72.99307890833332,73.08040758958333,66.0,95.0
352,73.40403740833332,74.02732446666666,61.0,90.0
353,73.40403740833332,74.03246144791666,57.0,81.0
354,73.40403740833332,74.29958447291666,45.0,97.0
355,73.81499590833333,74.41259806041666,52.0,84.0
356,74.22595440833332,74.486228125,61.0,89.0
357,74.22595440833332,74.50335139583332,57.0,88.0
358,74.22595440833332,74.58383076874999,64.0,88.0
359,74.63691290833333,74.79273467291665,45.0,91.0
360,75.04787140833332,75.49992575833332,59.0,88.0
361,75.04787140833332,75.6060900375,54.0,89.0
362,75.45882990833333,75.97766501458332,51.0,85.0
363,75.04787140833332,76.10266489166666,44.0,90.0
364,75.86978840833332,76.15232237708332,54.0,92.0
365,75.86978840833332,76.16088401249999,59.0,99.0
366,75.86978840833332,76.18999357291666,63.0,94.0
367,76.07526765833332,76.22081546041666,51.0,89.0
368,76.28074690833333,76.44170565416665,44.0,90.0
369,76.69170540833332,77.14375975833332,54.0,89.0
370,76.69170540833332,77.29444454166665,57.0,89.0
371,76.69170540833332,77.3732115875,61.0,90.0
372,77.51362240833332,77.58554014583332,61.0,77.0
373,77.71910165833333,77.85951247916665,66.0,89.0
374,77.92458090833333,78.02560820624998,66.0,68.0
375,77.51362240833332,78.02732053333332,57.0,93.0
376,77.30814315833332,78.04101914999998,54.0,88.0
377,77.10266390833333,78.13177248541666,49.0,83.0
378,77.92458090833333,78.1951285875,61.0,92.0
379,76.69170540833332,78.23451211041666,42.0,90.0
380,78.33553940833332,78.34923802499999,61.0,84.0
381,78.33553940833332,78.64204595624999,54.0,89.0
382,78.33553940833332,78.72594998333332,59.0,89.0
383,78.95197715833332,79.07012772708332,54.0,95.0
384,78.74649790833332,79.21053854791666,51.0,84.0
385,78.33553940833332,79.23622345416666,47.0,99.0
386,79.15745640833332,79.40745616249998,54.0,99.0
387,79.15745640833332,79.44855201249999,59.0,109.0
388,79.36293565833333,79.52046974999999,51.0,91.0
389,79.15745640833332,79.64546962708333,63.0,104.0
390,79.77389415833332,79.84581189583332,59.0,75.0
391,79.56841490833332,79.87492145625,54.0,97.0
392,79.97937340833332,80.04444183749999,47.0,90.0
393,79.97937340833332,80.09581164999999,40.0,84.0
394,79.97937340833332,80.24307177916666,52.0,88.0
395,79.97937340833332,80.26019505,56.0,88.0
396,80.59581115833332,81.01704362083332,59.0,89.0
397,80.80129040833333,81.07183808749998,64.0,94.0
398,80.39033190833332,81.07355041458332,52.0,79.0
399,81.00676965833333,81.21567356249999,68.0,97.0
400,81.21224890833332,81.47594727916666,64.0,95.0
401,81.41772815833332,81.52731709166666,68.0,89.0
402,82.03416590833332,82.30642591458333,59.0,92.0
403,81.82868665833332,82.56327497708332,54.0,88.0
404,81.62320740833333,82.72937070416666,47.0,99.0
405,82.44512440833333,82.79786378749999,59.0,92.0
406,82.44512440833333,82.80128844166666,63.0,102.0
407,82.44512440833333,82.87320617916666,66.0,91.0
408,82.85608290833332,82.93998693541666,54.0,91.0
409,83.26704140833333,83.70882179583332,61.0,91.0
410,83.26704140833333,83.93484897083333,64.0,90.0
411,83.88347915833332,83.98793111041665,61.0,90.0
412,83.67799990833332,84.18827337916666,44.0,73.0
413,84.08895840833333,84.33039652708332,61.0,97.0
414,83.26704140833333,84.36121841458332,37.0,93.0
415,84.29443765833332,84.38861564791665,44.0,90.0
416,84.08895840833333,84.46909502083332,64.0,97.0
417,84.08895840833333,84.58724558958332,68.0,97.0
418,84.49991690833332,84.79101251249999,61.0,90.0
419,84.70539615833333,84.80984811041665,64.0,85.0
420,84.91087540833333,85.13861491041665,59.0,90.0
421,84.91087540833333,85.21395730208332,63.0,95.0
422,85.32183390833332,85.56669668125,59.0,89.0
423,85.52731315833333,85.61464183958333,63.0,89.0
424,85.11635465833332,85.77388825833332,54.0,88.0
425,85.73279240833332,85.96224423749999,59.0,93.0
426,84.91087540833333,85.98450448958332,47.0,93.0
427,85.73279240833332,86.01190172291666,63.0,102.0
428,85.93827165833332,86.03758662916665,54.0,94.0
429,85.73279240833332,86.10094273124999,66.0,90.0
430,86.14375090833332,86.52902450208332,59.0,94.0
431,86.34923015833333,86.53244915624998,63.0,80.0
432,86.96566790833332,87.00676375833332,61.0,70.0
433,86.96566790833332,87.25676351249999,57.0,83.0
434,87.17114715833333,87.27731143749999,61.0,88.0
435,86.76018865833332,87.47422905208332,52.0,89.0
436,86.55470940833332,87.57868100416665,45.0,97.0
437,87.37662640833332,87.63861245208332,57.0,102.0
438,87.37662640833332,87.69683157291665,61.0,99.0
439,87.58210565833332,87.74306440416666,52.0,91.0
440,87.37662640833332,87.84580402916666,64.0,91.0
441,87.78758490833332,87.88689987916665,45.0,99.0
442,88.19854340833332,88.42285825625,56.0,88.0
443,88.19854340833332,88.48278970416665,59.0,88.0
444,88.60950190833333,88.91258380208332,56.0,87.0
445,88.81498115833332,88.95367965208332,59.0,92.0
446,88.40402265833332,89.01532342708332,51.0,89.0
447,89.02046040833332,89.15402192083332,51.0,88.0
448,89.22593965833332,89.46052846874998,56.0,97.0
449,89.22593965833332,89.52045991666665,59.0,105.0
450,89.22593965833332,89.55128180416665,63.0,102.0
451,89.43141890833333,89.60778859791665,51.0,89.0
452,88.19854340833332,89.64545979374999,44.0,91.0
453,89.63689815833332,89.83552809999999,56.0,88.0
454,90.25333590833333,90.53758220416665,54.0,89.0
455,90.45881515833332,90.55984245624998,57.0,89.0
456,90.04785665833332,90.72765051041665,49.0,88.0
457,90.66429440833332,90.83210246249999,64.0,89.0
458,90.66429440833332,90.89203391041666,54.0,90.0
459,90.66429440833332,90.93484208749999,66.0,83.0
460,90.66429440833332,90.93655441458333,57.0,94.0
461,90.66429440833332,90.95196535833333,61.0,94.0
462,91.07525290833333,91.11634875833332,61.0,55.0
463,90.86977365833332,91.29443077499998,49.0,89.0
464,91.28073215833332,91.32867731666666,61.0,62.0
465,91.07525290833333,91.33895127916665,54.0,89.0
466,91.28073215833332,91.36634851249998,57.0,84.0
467,89.84237740833332,91.36806083958332,42.0,91.0
468,91.48621140833332,91.97251229999999,54.0,92.0
469,91.48621140833332,91.97936160833332,59.0,93.0
470,91.48621140833332,92.56840212499999,47.0,102.0
471,91.89716990833332,92.58038841458333,51.0,79.0
472,92.30812840833332,92.73107319791666,63.0,94.0
473,92.30812840833332,92.75847043124999,59.0,90.0
474,92.30812840833332,92.77045672083332,54.0,90.0
475,93.13004540833332,93.56326416041665,69.0,82.0
476,93.13004540833332,93.67285309374999,61.0,88.0
477,93.54100390833332,93.68141472916665,64.0,79.0
478,93.95196240833332,94.39887977708332,69.0,87.0
479,93.95196240833332,94.58209877499999,61.0,88.0
480,94.36292090833332,94.61120833541665,64.0,75.0
481,94.77387940833331,94.98792029375,61.0,81.0
482,94.77387940833331,95.30470080416666,64.0,88.0
483,94.77387940833331,95.38346784999999,69.0,83.0
484,95.18483790833332,95.72422093958332,61.0,79.0
485,95.59579640833331,96.10435755208331,69.0,97.0
486,95.59579640833331,96.11463151458332,64.0,90.0
487,96.00675490833332,96.25504233541665,61.0,83.0
488,93.13004540833332,96.37661755833332,45.0,88.0
489,96.41771340833333,96.65230221874998,63.0,89.0
490,96.41771340833333,96.90915128124999,68.0,88.0
491,96.82867190833332,97.12490449374998,63.0,78.0
492,97.23963040833333,97.30298651041666,63.0,76.0
493,96.41771340833333,97.53757532083333,44.0,85.0
494,97.23963040833333,97.67113683333332,68.0,91.0
495,97.65058890833332,97.78757507499999,63.0,91.0
496,97.23963040833333,98.03072552083331,71.0,90.0
497,98.06154740833333,98.49990314166665,61.0,87.0
498,98.06154740833333,98.55298528124999,64.0,82.0
499,98.47250590833332,98.99476566874999,56.0,80.0
500,98.06154740833333,99.05469711666666,49.0,92.0
501,98.88346440833332,99.06497107916665,59.0,90.0
502,98.88346440833332,99.29955988958332,68.0,92.0
503,98.88346440833332,99.30127221666665,64.0,94.0
504,99.29442290833332,99.45709398124998,59.0,90.0
505,99.70538140833332,99.90058669583333,58.0,82.0
506,99.70538140833332,100.19339462708332,61.0,83.0
507,99.70538140833332,100.21394255208332,66.0,80.0
508,100.11633990833332,100.63688734166665,58.0,83.0
509,100.52729840833332,101.00332533749999,61.0,89.0
510,100.52729840833332,101.03072257083332,66.0,84.0
511,100.93825690833332,101.43825641666665,58.0,84.0
512,101.34921540833332,101.84065328124998,66.0,85.0
513,101.34921540833332,101.84921491666665,61.0,89.0
514,101.76017390833331,102.26188574374999,58.0,79.0
515,102.17113240833332,102.62147443125,61.0,91.0
516,102.58209090833331,102.76530990624998,58.0,88.0
517,102.17113240833332,102.80983041041665,66.0,88.0
518,99.70538140833332,102.89030978333332,42.0,88.0
519,102.99304940833332,103.18311771458332,59.0,83.0
520,102.99304940833332,103.44852841249998,63.0,89.0
521,102.99304940833332,103.46565168333332,66.0,87.0
522,103.40400790833331,103.85092527708332,59.0,88.0
523,102.99304940833332,103.88174716458332,35.0,88.0
524,103.81496640833332,103.96051421041665,63.0,93.0
525,103.81496640833332,103.98277446249999,66.0,92.0
526,104.22592490833333,105.08722543124999,59.0,88.0
527,104.63688340833332,105.09407473958332,66.0,86.0
528,104.63688340833332,105.10777335625,63.0,89.0
529,105.45880040833332,105.64373173333333,59.0,87.0
530,105.45880040833332,106.24647086666666,63.0,92.0
531,105.86975890833332,106.25503250208332,59.0,88.0
532,105.45880040833332,106.26530646458332,66.0,88.0
533,105.04784190833333,106.27386809999999,54.0,78.0
534,104.63688340833332,106.28071740833332,47.0,90.0
535,106.28071740833332,106.50845691041665,59.0,84.0
536,106.28071740833332,106.56667603124998,68.0,84.0
537,106.69167590833332,106.77557993541666,59.0,61.0
538,106.69167590833332,106.85092232708332,64.0,75.0
539,107.10263440833332,107.26359315416666,59.0,85.0
540,107.10263440833332,107.28585340624998,68.0,83.0
541,107.51359290833332,107.71222284999999,64.0,76.0
542,107.51359290833332,107.71735983124998,59.0,75.0
543,106.28071740833332,108.37489343124999,40.0,88.0
544,107.92455140833331,108.39544135624999,68.0,88.0
545,107.92455140833331,108.44338651458332,59.0,88.0
546,108.33550990833332,108.48790701874998,64.0,79.0
547,108.74646840833331,109.22078301041665,68.0,86.0
548,108.74646840833331,109.39030339166665,59.0,86.0
549,109.15742690833332,109.41770062499998,64.0,83.0
550,109.56838540833331,109.74475509791665,59.0,79.0
551,109.56838540833331,109.89886453541665,68.0,90.0
552,109.97934390833332,110.14030265416665,63.0,80.0
553,109.97934390833332,110.17112454166666,59.0,77.0
554,110.39030240833331,110.53585021041665,59.0,82.0
555,110.39030240833331,110.56838442499999,68.0,84.0
556,110.80126090833332,110.94167172916666,63.0,75.0
557,110.80126090833332,110.96221965416665,59.0,69.0
558,111.21221940833333,111.36119186458332,59.0,85.0
559,111.21221940833333,111.39201375208332,68.0,84.0
560,109.56838540833331,111.72934218749998,39.0,89.0
561,111.62317790833332,111.75331476666665,63.0,77.0
562,111.62317790833332,111.79098596249999,59.0,75.0
563,112.03413640833332,112.23105402291665,59.0,84.0
564,112.03413640833332,112.30639641458332,68.0,89.0
565,112.44509490833332,112.55982082291665,59.0,69.0
566,112.44509490833332,112.58208107499999,63.0,80.0
567,112.85605340833332,113.06838196666665,61.0,86.0
568,112.85605340833332,113.09749152708332,68.0,87.0
569,113.26701190833332,113.41940901874999,64.0,78.0
570,113.26701190833332,113.44851857916665,61.0,77.0
571,113.67797040833332,113.83036751874998,68.0,87.0
572,113.67797040833332,113.84064148124999,61.0,85.0
573,114.08892890833332,114.25331230833332,64.0,70.0
574,114.08892890833332,114.26358627083331,61.0,73.0
575,114.49988740833332,114.66255848124999,61.0,85.0
576,114.49988740833332,114.66598313541665,68.0,88.0
577,112.85605340833332,114.92454452499999,37.0,88.0
578,114.91084590833331,115.05125672916665,64.0,77.0
579,114.91084590833331,115.07180465416666,61.0,78.0
580,115.32180440833332,115.50159875208332,61.0,89.0
581,115.32180440833332,115.53413296666665,68.0,90.0
582,115.73276290833331,115.88002303749998,64.0,82.0
583,115.73276290833331,115.90570794374999,61.0,79.0
584,116.14372140833332,116.31152946249999,63.0,88.0
585,116.14372140833332,116.37317323749998,68.0,86.0
586,116.55467990833331,116.70365236458332,63.0,83.0
587,116.55467990833331,116.72762494374999,59.0,76.0
588,116.96563840833332,117.08721363124998,68.0,88.0
589,116.96563840833332,117.09577526666665,59.0,87.0
590,117.37659690833331,117.49645980416665,63.0,79.0
591,117.37659690833331,117.51358307499999,59.0,72.0
592,117.78755540833332,117.91426761249998,59.0,85.0
593,116.14372140833332,117.93139088333332,35.0,82.0
594,117.78755540833332,117.93139088333332,68.0,88.0
595,118.19851390833331,118.31323982291666,63.0,81.0
596,118.19851390833331,118.33207542083332,59.0,77.0
597,118.60947240833332,118.74474624791665,59.0,88.0
598,118.60947240833332,118.80296536874998,68.0,89.0
599,119.02043090833332,119.14543078541665,63.0,78.0
600,119.02043090833332,119.17625267291665,59.0,75.0
601,119.43138940833332,119.64885494791665,61.0,80.0
602,119.43138940833332,119.71906035833332,68.0,89.0
603,119.84234790833332,120.01015596249998,61.0,80.0
604,119.84234790833332,120.01186828958332,64.0,80.0
605,120.25330640833332,120.42111446249999,61.0,88.0
606,120.25330640833332,120.43310075208332,68.0,94.0
607,120.66426490833332,120.79440176666665,64.0,84.0
608,120.66426490833332,120.82179899999998,61.0,81.0
609,121.07522340833331,121.48104492708332,68.0,93.0
610,121.07522340833331,121.61289411249999,61.0,89.0
611,121.48618190833332,121.64200367291664,64.0,79.0
612,119.43138940833332,122.15227714374998,45.0,83.0
613,121.89714040833331,122.24816746041665,68.0,89.0
614,121.89714040833331,122.44166042083332,61.0,88.0
615,122.30809890833332,122.50159186874998,64.0,78.0
616,122.71905740833331,122.87487917291665,64.0,88.0
617,122.71905740833331,123.00159137708332,68.0,87.0
618,123.13001590833332,123.29268698124999,63.0,83.0
619,123.13001590833332,123.31665956041665,59.0,80.0
620,123.54097440833331,123.67282359374998,59.0,88.0
621,123.54097440833331,123.77213856458332,68.0,89.0
622,123.95193290833332,124.23446687708332,63.0,86.0
623,122.71905740833331,124.25330247499998,44.0,89.0
624,123.95193290833332,124.27556272708331,59.0,79.0
625,124.36289140833331,124.44508310833332,63.0,84.0
626,124.36289140833331,124.85604160833331,68.0,89.0
627,124.77384990833332,125.01871268124998,64.0,80.0
628,124.77384990833332,125.04097293333332,61.0,79.0
629,125.18480840833331,125.41939721874998,68.0,94.0
630,125.18480840833331,125.42624652708332,61.0,84.0
631,125.59576690833332,125.81494477499999,64.0,89.0
632,125.59576690833332,125.82350641041666,61.0,84.0
633,124.36289140833331,126.09919107083331,49.0,86.0
634,126.00672540833331,126.25330050833331,58.0,86.0
635,126.00672540833331,126.28925937708331,66.0,85.0
636,126.41768390833332,126.59062894374998,61.0,77.0
637,126.41768390833332,126.60775221458331,58.0,78.0
638,126.82864240833332,126.99645046249998,58.0,89.0
639,126.82864240833332,127.03240933124998,66.0,89.0
640,127.65055940833332,127.84405236874998,66.0,88.0
641,127.65055940833332,127.85946331249998,58.0,88.0
642,128.06151790833331,128.20706571041666,61.0,88.0
643,128.4724764083333,128.65398307916664,58.0,92.0
644,128.4724764083333,128.7635720125,66.0,88.0
645,126.00672540833331,128.81151717083333,42.0,89.0
646,128.88343490833333,128.99816082291665,58.0,74.0
647,128.88343490833333,129.00843478541665,61.0,88.0
648,129.29439340833332,129.54096850833332,47.0,88.0
649,129.29439340833332,129.72932448749998,51.0,90.0
650,129.29439340833332,130.16768022083332,35.0,86.0
651,129.7053519083333,130.20021443541665,47.0,84.0
652,130.1163104083333,130.21048839791666,51.0,94.0
653,130.1163104083333,130.26528286458333,54.0,93.0
654,130.93822740833332,131.13172036875,63.0,93.0
655,130.93822740833332,131.1745285458333,59.0,89.0
656,131.3491859083333,131.54267886875,63.0,77.0
657,131.3491859083333,131.60432264374998,66.0,81.0
658,131.7601444083333,132.53411624999998,63.0,102.0
659,131.7601444083333,132.54781486666664,71.0,88.0
660,131.7601444083333,132.55123952083332,59.0,91.0
661,131.7601444083333,132.55123952083332,66.0,92.0
662,132.17110290833332,132.6180202770833,54.0,88.0
663,130.52726890833333,132.62486958541666,47.0,77.0
664,132.58206140833332,133.05808833749998,64.0,92.0
665,132.58206140833332,133.06664997291665,68.0,90.0
666,132.58206140833332,133.11288280416665,59.0,88.0
667,132.9930199083333,133.5169919958333,47.0,75.0
668,132.58206140833332,133.59062206041665,40.0,88.0
669,133.4039784083333,133.6351425645833,59.0,91.0
670,133.4039784083333,133.81493690833332,64.0,95.0
671,133.4039784083333,133.95877238333333,68.0,97.0
672,133.81493690833332,133.96562169166666,40.0,88.0
673,133.81493690833332,134.10089553125,59.0,92.0
674,134.22589540833332,134.67281277708332,59.0,90.0
675,134.22589540833332,134.70705931874997,63.0,89.0
676,134.8423331583333,134.98103165208332,59.0,89.0
677,134.6368539083333,135.15911366875,54.0,84.0
678,134.22589540833332,135.2789765645833,47.0,99.0
679,135.04781240833333,135.39712713333333,59.0,95.0
680,135.04781240833333,135.40397644166666,63.0,102.0
681,135.04781240833333,135.45705858124998,66.0,89.0
682,135.45877090833332,135.57863380416666,47.0,90.0
683,135.8697294083333,136.3371947020833,64.0,84.0
684,135.8697294083333,136.3937014958333,61.0,88.0
685,136.2806879083333,136.8354818833333,44.0,76.0
686,135.8697294083333,136.93479685416665,37.0,90.0
687,136.69164640833333,136.94335848958332,64.0,99.0
688,136.69164640833333,136.97418037708331,61.0,90.0
689,136.69164640833333,137.03068717083332,68.0,93.0
690,137.10260490833332,137.35260466249997,37.0,91.0
691,137.5135634083333,137.62144001458333,35.0,89.0
692,137.5135634083333,138.16938468125,59.0,89.0
693,137.5135634083333,138.1967819145833,63.0,90.0
694,137.5135634083333,138.38856254791665,66.0,87.0
695,138.13000115833333,138.49986380833332,54.0,86.0
696,137.9245219083333,138.52897336874997,47.0,89.0
697,138.33548040833332,138.75842519791664,59.0,97.0
698,138.54095965833332,138.78582243124998,63.0,94.0
699,138.74643890833332,138.83376758958332,66.0,95.0
700,139.1573974083333,139.78068446666666,61.0,90.0
701,139.1573974083333,139.78582144791665,57.0,81.0
702,139.1573974083333,140.05294447291664,45.0,97.0
703,139.5683559083333,140.16595806041664,52.0,84.0
704,139.97931440833332,140.23958812499998,61.0,89.0
705,139.97931440833332,140.25671139583332,57.0,88.0
706,139.97931440833332,140.33719076875,64.0,88.0
707,140.39027290833332,140.54609467291664,45.0,91.0
708,140.8012314083333,141.2532857583333,59.0,88.0
709,140.8012314083333,141.35945003749998,54.0,89.0
710,141.2121899083333,141.7310250145833,51.0,85.0
711,140.8012314083333,141.85602489166664,44.0,90.0
712,141.62314840833332,141.9056823770833,54.0,92.0
713,141.62314840833332,141.91424401249998,59.0,99.0
714,141.62314840833332,141.94335357291664,63.0,94.0
715,141.82862765833332,141.97417546041666,51.0,89.0
716,142.0341069083333,142.19506565416665,44.0,90.0
717,142.4450654083333,142.8971197583333,54.0,89.0
718,142.4450654083333,143.04780454166664,57.0,89.0
719,142.4450654083333,143.12657158749997,61.0,90.0
720,143.26698240833332,143.33890014583332,61.0,77.0
721,143.47246165833332,143.61287247916664,66.0,89.0
722,143.6779409083333,143.77896820624997,66.0,68.0
723,143.26698240833332,143.7806805333333,57.0,93.0
724,143.06150315833332,143.79437914999997,54.0,88.0
725,142.85602390833333,143.88513248541665,49.0,83.0
726,143.6779409083333,143.94848858749998,61.0,92.0
727,142.4450654083333,143.98787211041665,42.0,90.0
728,144.0888994083333,144.102598025,61.0,84.0
729,144.0888994083333,144.39540595625,54.0,89.0
730,144.0888994083333,144.4793099833333,59.0,89.0
731,144.70533715833332,144.82348772708332,54.0,95.0
732,144.49985790833333,144.96389854791664,51.0,84.0
733,144.0888994083333,144.98958345416665,47.0,99.0
734,144.91081640833332,145.16081616249997,54.0,99.0
735,144.91081640833332,145.20191201249997,59.0,109.0
736,145.1162956583333,145.27382974999998,51.0,91.0
737,144.91081640833332,145.3988296270833,63.0,104.0
738,145.5272541583333,145.5991718958333,59.0,75.0
739,145.3217749083333,145.62828145625,54.0,97.0
740,145.7327334083333,145.79780183749997,47.0,90.0
741,145.7327334083333,145.84917165,40.0,84.0
742,145.7327334083333,145.99643177916664,52.0,88.0
743,145.7327334083333,146.01355504999998,56.0,88.0
744,146.34917115833332,146.77040362083332,59.0,89.0
745,146.55465040833332,146.82519808749998,64.0,94.0
746,146.14369190833332,146.82691041458332,52.0,79.0
747,146.7601296583333,146.9690335625,68.0,97.0
748,146.9656089083333,147.22930727916665,64.0,95.0
749,147.1710881583333,147.28067709166666,68.0,89.0
750,147.78752590833332,148.0597859145833,59.0,92.0
751,147.58204665833333,148.3166349770833,54.0,88.0
752,147.3765674083333,148.48273070416664,47.0,99.0
753,148.19848440833331,148.5512237875,59.0,92.0
754,148.19848440833331,148.55464844166664,63.0,102.0
755,148.19848440833331,148.62656617916664,66.0,91.0
756,148.6094429083333,148.69334693541666,54.0,91.0
757,149.02040140833333,149.46218179583332,61.0,91.0
758,149.02040140833333,149.6882089708333,64.0,90.0
759,149.63683915833332,149.74129111041665,61.0,90.0
760,149.43135990833332,149.94163337916666,44.0,73.0
761,149.8423184083333,150.08375652708332,61.0,97.0
762,149.02040140833333,150.11457841458332,37.0,93.0
763,150.0477976583333,150.14197564791664,44.0,90.0
764,149.8423184083333,150.2224550208333,64.0,97.0
765,149.8423184083333,150.3406055895833,68.0,97.0
766,150.2532769083333,150.5443725125,61.0,90.0
767,150.4587561583333,150.56320811041664,64.0,85.0
768,150.66423540833333,150.89197491041665,59.0,90.0
769,150.66423540833333,150.9673173020833,63.0,95.0
770,151.07519390833332,151.32005668124998,59.0,89.0
771,151.28067315833331,151.36800183958331,63.0,89.0
772,150.86971465833332,151.52724825833332,54.0,88.0
773,151.4861524083333,151.71560423749997,59.0,93.0
774,150.66423540833333,151.7378644895833,47.0,93.0
775,151.4861524083333,151.76526172291665,63.0,102.0
776,151.6916316583333,151.79094662916665,54.0,94.0
777,151.4861524083333,151.85430273125,66.0,90.0
778,151.8971109083333,152.28238450208332,59.0,94.0
779,152.1025901583333,152.28580915624997,63.0,80.0
780,152.71902790833332,152.76012375833332,61.0,70.0
781,152.71902790833332,153.01012351249997,57.0,83.0
782,152.9245071583333,153.0306714375,61.0,88.0
783,152.51354865833332,153.22758905208332,52.0,89.0
784,152.30806940833332,153.33204100416665,45.0,97.0
785,153.1299864083333,153.3919724520833,57.0,102.0
786,153.1299864083333,153.45019157291665,61.0,99.0
787,153.3354656583333,153.49642440416665,52.0,91.0
788,153.1299864083333,153.59916402916664,64.0,91.0
789,153.5409449083333,153.64025987916665,45.0,99.0
790,153.95190340833332,154.17621825624997,56.0,88.0
791,153.95190340833332,154.23614970416665,59.0,88.0
792,154.36286190833331,154.66594380208332,56.0,87.0
793,154.5683411583333,154.70703965208332,59.0,92.0
794,154.15738265833332,154.76868342708332,51.0,89.0
795,154.7738204083333,154.9073819208333,51.0,88.0
796,154.9792996583333,155.21388846874999,56.0,97.0
797,154.9792996583333,155.27381991666664,59.0,105.0
798,154.9792996583333,155.30464180416664,63.0,102.0
799,155.1847789083333,155.36114859791664,51.0,89.0
800,153.95190340833332,155.39881979375,44.0,91.0
801,155.39025815833332,155.5888881,56.0,88.0
802,156.0066959083333,156.29094220416664,54.0,89.0
803,156.2121751583333,156.31320245624997,57.0,89.0
804,155.80121665833332,156.48101051041664,49.0,88.0
805,156.4176544083333,156.58546246249998,64.0,89.0
806,156.4176544083333,156.64539391041666,54.0,90.0
807,156.4176544083333,156.68820208749997,66.0,83.0
808,156.4176544083333,156.6899144145833,57.0,94.0
809,156.4176544083333,156.7053253583333,61.0,94.0
810,156.82861290833333,156.8697087583333,61.0,55.0
811,156.6231336583333,157.04779077499998,49.0,89.0
812,157.03409215833332,157.08203731666666,61.0,62.0
813,156.82861290833333,157.09231127916664,54.0,89.0
814,157.03409215833332,157.11970851249998,57.0,84.0
815,155.59573740833332,157.12142083958332,42.0,91.0
816,157.23957140833332,157.7258723,54.0,92.0
817,157.23957140833332,157.73272160833332,59.0,93.0
818,157.23957140833332,158.321762125,47.0,102.0
819,157.6505299083333,158.3337484145833,51.0,79.0
820,158.0614884083333,158.48443319791664,63.0,94.0
821,158.0614884083333,158.51183043125,59.0,90.0
822,158.0614884083333,158.5238167208333,54.0,90.0
823,158.88340540833332,159.06148742499997,73.0,91.0
824,158.88340540833332,159.07176138749998,49.0,89.0
825,158.88340540833332,159.07347371458332,56.0,88.0
826,158.88340540833332,159.07689836874997,76.0,81.0
827,159.0888846583333,159.32176114166666,68.0,87.0
828,159.2943639083333,159.43135007499998,49.0,85.0
829,159.2943639083333,159.4381993833333,56.0,75.0
830,159.2943639083333,159.472445925,73.0,89.0
831,159.4998431583333,159.65737724999997,68.0,84.0
832,159.7053224083333,159.8337469395833,49.0,91.0
833,159.7053224083333,159.85087021041664,56.0,89.0
834,159.7053224083333,159.85258253749998,73.0,91.0
835,159.7053224083333,159.8799797708333,76.0,84.0
836,159.9108016583333,160.15908908541664,68.0,86.0
837,160.11628090833332,160.26011638333333,49.0,82.0
838,160.11628090833332,160.26525336458332,56.0,75.0
839,160.11628090833332,160.26525336458332,73.0,88.0
840,160.32176015833332,160.5631982770833,68.0,88.0
841,160.52723940833332,160.6608009208333,49.0,90.0
842,160.52723940833332,160.6762118645833,56.0,88.0
843,160.52723940833332,160.6916228083333,73.0,94.0
844,160.52723940833332,160.71217073333332,76.0,83.0
845,160.7327186583333,161.00497866458332,68.0,84.0
846,160.9381979083333,161.08888269166664,49.0,77.0
847,160.9381979083333,161.08888269166664,56.0,75.0
848,160.9381979083333,161.11456759791665,73.0,90.0
849,161.1436771583333,161.4159371645833,68.0,88.0
850,161.3491564083333,161.50155351874997,49.0,81.0
851,161.3491564083333,161.5238137708333,76.0,86.0
852,161.3491564083333,161.52723842499998,56.0,79.0
853,161.3491564083333,161.52723842499998,73.0,99.0
854,161.55463565833332,161.78751214166664,68.0,88.0
855,161.76011490833332,161.9450462333333,49.0,79.0
856,161.76011490833332,161.98271742916666,73.0,90.0
857,161.76011490833332,161.99984069999996,76.0,76.0
858,161.76011490833332,162.14196384791666,56.0,79.0
859,161.96559415833332,162.19675831458332,68.0,88.0
860,162.1710734083333,162.2738130333333,56.0,57.0
861,162.1710734083333,162.3457307708333,48.0,84.0
862,162.1710734083333,162.38511429374998,72.0,89.0
863,162.1710734083333,162.43990876041664,76.0,83.0
864,162.3765526583333,162.63511404791666,68.0,87.0
865,162.5820319083333,162.74299065416665,48.0,77.0
866,162.5820319083333,162.77038788749996,56.0,69.0
867,162.5820319083333,162.7875111583333,72.0,82.0
868,162.7875111583333,162.93477128749998,68.0,82.0
869,162.9929904083333,163.12997657499997,48.0,88.0
870,162.9929904083333,163.12997657499997,72.0,86.0
871,162.9929904083333,163.1368258833333,56.0,86.0
872,162.9929904083333,163.16936009791664,76.0,87.0
873,163.19846965833332,163.43134614166664,68.0,87.0
874,163.40394890833332,163.54435972916664,48.0,78.0
875,163.40394890833332,163.54778438333332,56.0,75.0
876,163.40394890833332,163.57004463541665,72.0,78.0
877,163.60942815833332,163.79607181041663,68.0,88.0
878,163.8149074083333,163.95189357499999,56.0,88.0
879,163.8149074083333,163.96045521041665,48.0,88.0
880,163.8149074083333,163.9947017520833,72.0,84.0
881,163.8149074083333,164.08031810625,76.0,88.0
882,164.0203866583333,164.26353710416666,68.0,87.0
883,164.2258659083333,164.36285207499998,48.0,79.0
884,164.2258659083333,164.38339999999997,56.0,74.0
885,164.2258659083333,164.41250956041665,72.0,80.0
886,164.4313451583333,164.62483811874998,68.0,86.0
887,164.63682440833333,164.77038592083332,48.0,88.0
888,164.63682440833333,164.80805711666665,56.0,83.0
889,164.63682440833333,164.81148177083332,76.0,89.0
890,164.63682440833333,164.83545435,72.0,89.0
891,164.84230365833332,165.07689246874997,68.0,88.0
892,165.04778290833332,165.23100190625,72.0,88.0
893,165.04778290833332,165.2583991395833,48.0,81.0
894,165.04778290833332,165.2875087,76.0,73.0
895,165.2532621583333,165.55291939791664,68.0,90.0
896,165.4587414083333,165.65737134999998,47.0,90.0
897,165.4587414083333,165.65908367708332,54.0,86.0
898,165.04778290833332,165.7053165083333,56.0,68.0
899,165.4587414083333,165.71559047083332,71.0,88.0
900,165.4587414083333,165.73100141458332,76.0,83.0
901,165.6642206583333,165.9159327395833,68.0,89.0
902,165.8696999083333,166.0905901020833,71.0,85.0
903,166.0751791583333,166.32860356666666,68.0,89.0
904,166.28065840833332,166.50154860208332,47.0,92.0
905,166.28065840833332,166.50839791041665,54.0,88.0
906,166.28065840833332,166.51353489166664,71.0,89.0
907,166.28065840833332,166.52552118124999,76.0,89.0
908,166.48613765833332,166.73271275833332,68.0,89.0
909,166.69161690833332,166.82175376666663,47.0,88.0
910,166.69161690833332,166.83202772916664,54.0,83.0
911,166.69161690833332,166.9279180458333,71.0,83.0
912,166.8970961583333,167.13682194999998,68.0,89.0
913,167.1025754083333,167.3525751625,47.0,97.0
914,167.1025754083333,167.35771214374998,54.0,94.0
915,167.1025754083333,167.3696984333333,71.0,88.0
916,167.1025754083333,167.40394497499997,76.0,89.0
917,167.3080546583333,167.5546297583333,68.0,89.0
918,167.5135339083333,167.65908171041664,47.0,88.0
919,167.5135339083333,167.671068,54.0,84.0
920,167.5135339083333,167.7703829708333,71.0,80.0
921,167.7190131583333,167.97243756666666,68.0,88.0
922,167.92449240833332,168.04435530416666,47.0,95.0
923,167.92449240833332,168.05976624791666,54.0,92.0
924,167.92449240833332,168.18476612499998,71.0,89.0
925,167.92449240833332,168.1967524145833,76.0,86.0
926,168.12997165833332,168.3816837395833,68.0,88.0
927,168.3354509083333,168.47928638333332,47.0,85.0
928,168.3354509083333,168.4998343083333,54.0,83.0
929,168.3354509083333,168.59914927916665,71.0,82.0
930,168.3354509083333,168.61113556874997,76.0,82.0
931,168.5409301583333,168.67106701666665,68.0,81.0
932,168.7464094083333,168.9827105458333,49.0,89.0
933,168.7464094083333,168.98442287291664,70.0,89.0
934,168.7464094083333,168.98613519999998,42.0,89.0
935,168.7464094083333,168.99983381666664,78.0,89.0
936,168.7464094083333,169.00497079791666,73.0,92.0
937,168.9518886583333,169.18818979583332,66.0,87.0
938,169.1573679083333,169.3166143270833,49.0,82.0
939,169.1573679083333,169.3320252708333,42.0,78.0
940,169.1573679083333,169.40051835416665,73.0,78.0
941,169.1573679083333,169.41079231666666,70.0,85.0
942,169.36284715833332,169.60257294999997,66.0,81.0
943,169.56832640833332,169.7481207520833,49.0,91.0
944,169.56832640833332,169.7686686770833,42.0,90.0
945,169.56832640833332,169.7686686770833,78.0,90.0
946,169.56832640833332,169.79777823749998,73.0,93.0
947,169.56832640833332,169.80291521874997,70.0,90.0
948,169.77380565833332,170.0101067958333,66.0,87.0
949,169.9792849083333,170.13510667291663,49.0,83.0
950,169.9792849083333,170.13681899999997,42.0,85.0
951,169.9792849083333,170.14024365416665,73.0,84.0
952,169.9792849083333,170.17106554166665,70.0,87.0
953,170.1847641583333,170.4313392583333,66.0,82.0
954,170.3902434083333,170.5751747333333,49.0,91.0
955,170.3902434083333,170.58373636874998,42.0,89.0
956,170.3902434083333,170.6265445458333,70.0,89.0
957,170.3902434083333,170.6265445458333,73.0,91.0
958,170.3902434083333,170.64366781666664,78.0,90.0
959,170.5957226583333,170.8679826645833,66.0,84.0
960,170.8012019083333,170.94161272916665,49.0,79.0
961,170.8012019083333,170.96216065416664,70.0,82.0
962,170.8012019083333,170.96387298124998,42.0,82.0
963,170.8012019083333,170.9861332333333,73.0,84.0
964,171.00668115833332,171.2481192770833,66.0,84.0
965,171.21216040833332,171.3970917333333,49.0,90.0
966,171.21216040833332,171.40565336874997,42.0,89.0
967,171.21216040833332,171.43476292916665,70.0,92.0
968,171.21216040833332,171.44674921874997,73.0,102.0
969,171.21216040833332,171.46729714375,78.0,89.0
970,171.41763965833331,171.65222846874997,66.0,88.0
971,171.6231189083333,171.87825564374998,70.0,88.0
972,171.6231189083333,171.88339262499997,73.0,90.0
973,171.6231189083333,171.91421451249997,49.0,87.0
974,171.6231189083333,171.92448847499998,42.0,88.0
975,171.8285981583333,171.94846105416664,66.0,89.0
976,171.8748309895833,172.05462533333332,54.0,80.0
977,171.9570226895833,172.37311817083332,57.0,84.0
978,171.98955690416665,172.40394005833332,61.0,87.0
979,172.03921438958332,172.47243314166664,66.0,87.0
980,172.01010482916664,172.53407691666663,42.0,93.0
981,172.81661088541665,173.15222699374996,56.0,81.0
982,172.83202182916665,173.15565164791664,59.0,88.0
983,172.83715881041664,173.15736397499998,44.0,92.0
984,172.85428208124998,173.15736397499998,68.0,88.0
985,172.83887113749998,173.17277491874998,63.0,89.0
986,173.6008566895833,173.76866474374998,57.0,70.0
987,173.66421279166664,173.78921266874997,61.0,88.0
988,173.6470895208333,173.79434965,45.0,102.0
989,173.68989769791665,173.87311669583332,69.0,94.0
990,174.36284224166664,174.5049653895833,58.0,82.0
991,174.42619834374997,174.54263658541663,61.0,88.0
992,174.44160928749997,174.57345847291666,52.0,87.0
993,174.48441746458332,174.57859545416665,64.0,82.0
994,174.4433216145833,174.62482828541664,46.0,89.0
995,174.51010237083332,174.65736249999998,70.0,90.0
996,175.18475924166665,175.32688238958332,59.0,68.0
997,175.24640301666665,175.35770427708331,63.0,88.0
998,175.26181396041665,175.38338918333332,35.0,88.0
999,175.27893723124998,175.38510151041663,66.0,79.0
1000,175.335444025,175.46729321041664,71.0,90.0
1001,175.6864710770833,175.8559914583333,63.0,73.0
1002,175.68818340416664,175.85770378541665,54.0,74.0
1003,175.6813340958333,175.8611284395833,47.0,88.0
1004,175.7070190020833,175.8611284395833,66.0,57.0
1005,175.71558063749998,175.8714024020833,71.0,80.0
1006,175.69160805833332,175.87653938333332,59.0,72.0
1007,176.11284052083332,176.2207171270833,63.0,85.0
1008,176.11455284791666,176.2207171270833,66.0,78.0
1009,176.12653913749998,176.23784039791664,54.0,89.0
1010,176.11626517499997,176.24126505208332,59.0,81.0
1011,176.12482681041664,176.2498266875,47.0,90.0
1012,176.1179775020833,176.25325134166664,71.0,81.0
1013,176.5289360020833,176.6299633,63.0,95.0
1014,176.52551134791665,176.63852493541665,66.0,90.0
1015,176.5392099645833,176.64537424374998,54.0,93.0
1016,176.53578531041666,176.65393587916665,47.0,93.0
1017,176.527223675,176.65564820624996,59.0,89.0
1018,176.53064832916664,176.67619613124998,71.0,86.0
1019,176.93304519375,178.48441353124997,54.0,99.0
1020,176.9347575208333,178.49639982083332,66.0,99.0
1021,176.92619588541663,178.49811214791663,47.0,97.0
1022,176.93818217499998,178.49811214791663,59.0,99.0
1023,176.93646984791664,178.5015368020833,63.0,105.0
1024,176.93133286666665,178.50838611041664,71.0,92.0
1025,178.6094134083333,179.0854403375,64.0,92.0
1026,178.6094134083333,179.09400197291663,68.0,90.0
1027,178.6094134083333,179.14023480416665,59.0,88.0
1028,179.02037190833332,179.54434399583332,47.0,75.0
1029,178.6094134083333,179.61797406041666,40.0,88.0
1030,179.4313304083333,179.6624945645833,59.0,91.0
1031,179.4313304083333,179.8422889083333,64.0,95.0
1032,179.4313304083333,179.9861243833333,68.0,97.0
1033,179.8422889083333,179.99297369166663,40.0,88.0
1034,179.8422889083333,180.12824753124997,59.0,92.0
1035,180.25324740833332,180.7001647770833,59.0,90.0
1036,180.25324740833332,180.73441131874998,63.0,89.0
1037,180.8696851583333,181.0083836520833,59.0,89.0
1038,180.66420590833332,181.18646566874997,54.0,84.0
1039,180.25324740833332,181.3063285645833,47.0,99.0
1040,181.0751644083333,181.4244791333333,59.0,95.0
1041,181.0751644083333,181.43132844166664,63.0,102.0
1042,181.0751644083333,181.48441058125,66.0,89.0
1043,181.4861229083333,181.60598580416664,47.0,90.0
1044,181.89708140833332,182.36454670208332,64.0,84.0
1045,181.89708140833332,182.42105349583332,61.0,88.0
1046,182.3080399083333,182.8628338833333,44.0,76.0
1047,181.89708140833332,182.96214885416666,37.0,90.0
1048,182.7189984083333,182.9707104895833,64.0,99.0
1049,182.7189984083333,183.00153237708332,61.0,90.0
1050,182.7189984083333,183.0580391708333,68.0,93.0
1051,183.1299569083333,183.37995666249998,37.0,91.0
1052,183.54091540833332,183.6487920145833,35.0,89.0
1053,183.54091540833332,184.19673668124997,59.0,89.0
1054,183.54091540833332,184.22413391458332,63.0,90.0
1055,183.54091540833332,184.41591454791663,66.0,87.0
1056,184.1573531583333,184.5272158083333,54.0,86.0
1057,183.9518739083333,184.55632536874998,47.0,89.0
1058,184.3628324083333,184.78577719791664,59.0,97.0
1059,184.5683116583333,184.81317443124996,63.0,94.0
1060,184.7737909083333,184.8611195895833,66.0,95.0
1061,185.18474940833332,185.80803646666664,61.0,90.0
1062,185.18474940833332,185.81317344791665,57.0,81.0
1063,185.18474940833332,186.08029647291664,45.0,97.0
1064,185.5957079083333,186.19331006041665,52.0,84.0
1065,186.0066664083333,186.26694012499996,61.0,89.0
1066,186.0066664083333,186.2840633958333,57.0,88.0
1067,186.0066664083333,186.36454276874997,64.0,88.0
1068,186.4176249083333,186.57344667291665,45.0,91.0
1069,186.82858340833332,187.2806377583333,59.0,88.0
1070,186.82858340833332,187.38680203749996,54.0,89.0
1071,187.2395419083333,187.75837701458332,51.0,85.0
1072,186.82858340833332,187.88337689166664,44.0,90.0
1073,187.6505004083333,187.93303437708332,54.0,92.0
1074,187.6505004083333,187.94159601249999,59.0,99.0
1075,187.6505004083333,187.97070557291664,63.0,94.0
1076,187.8559796583333,188.00152746041664,51.0,89.0
1077,188.06145890833332,188.22241765416663,44.0,90.0
1078,188.4724174083333,188.9244717583333,54.0,89.0
1079,188.4724174083333,189.07515654166664,57.0,89.0
1080,188.4724174083333,189.15392358749997,61.0,90.0
1081,189.2943344083333,189.3662521458333,61.0,77.0
1082,189.4998136583333,189.64022447916665,66.0,89.0
1083,189.70529290833332,189.80632020624998,66.0,68.0
1084,189.2943344083333,189.80803253333332,57.0,93.0
1085,189.0888551583333,189.82173114999998,54.0,88.0
1086,188.8833759083333,189.91248448541666,49.0,83.0
1087,189.70529290833332,189.9758405875,61.0,92.0
1088,188.4724174083333,190.01522411041665,42.0,90.0
1089,190.1162514083333,190.12995002499997,61.0,84.0
1090,190.1162514083333,190.42275795624997,54.0,89.0
1091,190.1162514083333,190.50666198333332,59.0,89.0
1092,190.7326891583333,190.8508397270833,54.0,95.0
1093,190.5272099083333,190.99125054791665,51.0,84.0
1094,190.1162514083333,191.01693545416663,47.0,99.0
1095,190.9381684083333,191.18816816249998,54.0,99.0
1096,190.9381684083333,191.22926401249998,59.0,109.0
1097,191.14364765833332,191.30118174999998,51.0,91.0
1098,190.9381684083333,191.4261816270833,63.0,104.0
1099,191.5546061583333,191.62652389583332,59.0,75.0
1100,191.34912690833332,191.65563345624997,54.0,97.0
1101,191.7600854083333,191.82515383749998,47.0,90.0
1102,191.7600854083333,191.87652364999997,40.0,84.0
1103,191.7600854083333,192.02378377916665,52.0,88.0
1104,191.7600854083333,192.04090705,56.0,88.0
1105,192.3765231583333,192.7977556208333,59.0,89.0
1106,192.5820024083333,192.85255008749996,64.0,94.0
1107,192.1710439083333,192.8542624145833,52.0,79.0
1108,192.78748165833332,192.99638556249997,68.0,97.0
1109,192.99296090833332,193.25665927916666,64.0,95.0
1110,193.1984401583333,193.30802909166664,68.0,89.0
1111,193.8148779083333,194.0871379145833,59.0,92.0
1112,193.6093986583333,194.34398697708332,54.0,88.0
1113,193.4039194083333,194.51008270416665,47.0,99.0
1114,194.2258364083333,194.57857578749997,59.0,92.0
1115,194.2258364083333,194.58200044166665,63.0,102.0
1116,194.2258364083333,194.65391817916665,66.0,91.0
1117,194.63679490833331,194.72069893541664,54.0,91.0
1118,195.0477534083333,195.4895337958333,61.0,91.0
1119,195.0477534083333,195.7155609708333,64.0,90.0
1120,195.6641911583333,195.76864311041663,61.0,90.0
1121,195.4587119083333,195.96898537916664,44.0,73.0
1122,195.86967040833332,196.1111085270833,61.0,97.0
1123,195.0477534083333,196.1419304145833,37.0,93.0
1124,196.07514965833332,196.16932764791665,44.0,90.0
1125,195.86967040833332,196.24980702083332,64.0,97.0
1126,195.86967040833332,196.3679575895833,68.0,97.0
1127,196.2806289083333,196.57172451249997,61.0,90.0
1128,196.4861081583333,196.59056011041665,64.0,85.0
1129,196.6915874083333,196.91932691041663,59.0,90.0
1130,196.6915874083333,196.9946693020833,63.0,95.0
1131,197.1025459083333,197.34740868125,59.0,89.0
1132,197.3080251583333,197.3953538395833,63.0,89.0
1133,196.8970666583333,197.5546002583333,54.0,88.0
1134,197.51350440833332,197.74295623749998,59.0,93.0
1135,196.6915874083333,197.7652164895833,47.0,93.0
1136,197.51350440833332,197.79261372291663,63.0,102.0
1137,197.71898365833331,197.81829862916663,54.0,94.0
1138,197.51350440833332,197.88165473124997,66.0,90.0
1139,197.9244629083333,198.3097365020833,59.0,94.0
1140,198.1299421583333,198.31316115624998,63.0,80.0
1141,198.7463799083333,198.7874757583333,61.0,70.0
1142,198.7463799083333,199.03747551249998,57.0,83.0
1143,198.95185915833332,199.05802343749997,61.0,88.0
1144,198.5409006583333,199.2549410520833,52.0,89.0
1145,198.3354214083333,199.35939300416663,45.0,97.0
1146,199.15733840833332,199.41932445208332,57.0,102.0
1147,199.15733840833332,199.47754357291663,61.0,99.0
1148,199.3628176583333,199.52377640416665,52.0,91.0
1149,199.15733840833332,199.62651602916665,64.0,91.0
1150,199.5682969083333,199.66761187916663,45.0,99.0
1151,199.9792554083333,200.20357025624998,56.0,88.0
1152,199.9792554083333,200.26350170416663,59.0,88.0
1153,200.3902139083333,200.6932958020833,56.0,87.0
1154,200.59569315833332,200.7343916520833,59.0,92.0
1155,200.1847346583333,200.7960354270833,51.0,89.0
1156,200.80117240833331,200.9347339208333,51.0,88.0
1157,201.0066516583333,201.24124046874996,56.0,97.0
1158,201.0066516583333,201.30117191666665,59.0,105.0
1159,201.0066516583333,201.33199380416664,63.0,102.0
1160,201.2121309083333,201.38850059791665,51.0,89.0
1161,199.9792554083333,201.42617179374997,44.0,91.0
1162,201.4176101583333,201.61624009999997,56.0,88.0
1163,201.4330211020833,201.61966475416665,54.0,79.0
1164,201.4895278958333,201.68130852916664,57.0,75.0
1165,201.54774701666665,201.71213041666664,61.0,75.0
1166,201.59055519374996,201.8645275270833,66.0,83.0
1167,201.99123973124998,202.1778833833333,54.0,89.0
1168,201.56829494166664,202.27206137291665,42.0,90.0
1169,201.7977467708333,202.30802024166664,49.0,82.0
1170,202.39877357708332,202.66075962083332,56.0,85.0
1171,202.4039105583333,202.7566499375,59.0,89.0
1172,202.41075986666664,202.9843894395833,44.0,92.0
1173,202.82856767499996,203.11452629791663,56.0,93.0
1174,202.60254049999998,203.1179509520833,51.0,86.0
1175,203.0408962333333,203.18644403541663,59.0,89.0
1176,203.22753988541663,203.93130631666665,45.0,99.0
1177,203.64877234791663,203.94671726041665,57.0,82.0
1178,203.41760819166663,203.95185424166664,52.0,88.0
1179,203.8730871958333,204.06658015624998,61.0,81.0
1180,204.0785664458333,204.68301790624997,47.0,93.0
1181,204.29089500416663,204.70699048541664,54.0,80.0
1182,204.50322356249998,204.74979866249998,59.0,89.0
1183,204.7720589145833,205.13507225624997,61.0,76.0
1184,204.83027803541663,205.3628117583333,64.0,83.0
1185,204.87651086666665,205.37993502916663,68.0,74.0
1186,204.91589438958331,205.3884966645833,73.0,89.0
1187,205.28404471249996,205.64020874583332,61.0,85.0
1188,205.6967155395833,205.74466069791663,61.0,73.0
1189,204.90390809999997,205.79260585624996,37.0,94.0
1190,205.6761676145833,205.99123579791663,73.0,97.0
1191,205.68301692291664,206.00150976041664,68.0,95.0
1192,205.68472924999998,206.00664674166663,64.0,97.0
1193,206.3850710270833,208.0340420083333,58.0,77.0
1194,206.4878106520833,208.10767207291664,61.0,81.0
1195,206.54089279166664,208.14020628749998,64.0,77.0
1196,206.5802763145833,208.14534326874997,70.0,81.0
1197,208.0956857833333,209.06315058541665,52.0,72.0
1198,206.51520788541663,209.07342454791663,46.0,91.0
1199,208.17102817499998,209.64534179374996,58.0,76.0
1200,208.2806171083333,209.6624650645833,64.0,72.0
1201,208.24294591249998,209.6676020458333,61.0,88.0
1202,209.50150631874996,209.6676020458333,61.0,60.0
1203,209.3747941145833,209.82856079166663,54.0,79.0
1204,209.43815021666663,209.84910871666665,57.0,77.0
1205,209.4004790208333,210.0528756395833,42.0,84.0
1206,210.41931363541664,210.9364364145833,59.0,79.0
1207,210.40390269166664,211.28403881249997,44.0,84.0
1208,210.35424520624997,211.62821655624998,56.0,58.0
1209,211.50835366041665,212.8473934395833,45.0,79.0
1210,211.46212082916665,213.44499559166664,57.0,74.0
1211,211.58540837916664,213.48266678749997,61.0,77.0
1212,214.2806112083333,214.84910379999997,47.0,67.0
1213,214.4038987583333,214.99293927499997,54.0,51.0
1214,214.11280315416664,215.1025282083333,42.0,73.0
1215,213.91246088541664,215.19499387083331,35.0,58.0
1216,216.4175954083333,216.7874580583333,68.0,83.0
1217,216.8285539083333,217.00492359791664,64.0,79.0
1218,217.2395124083333,217.39533417291665,68.0,81.0
1219,217.2395124083333,217.39704649999996,59.0,82.0
1220,217.65047090833332,217.79601871041663,64.0,84.0
1221,217.65047090833332,217.80115569166665,59.0,82.0
1222,218.0614294083333,218.18129230416665,68.0,87.0
1223,218.0614294083333,218.18300463124996,59.0,87.0
1224,218.4723879083333,218.63334665416664,64.0,69.0
1225,218.4723879083333,218.6521822520833,59.0,69.0
1226,216.4175954083333,219.03231886458332,47.0,83.0
1227,216.4175954083333,219.05629144374998,40.0,77.0
1228,218.8833464083333,219.0888256583333,68.0,83.0
1229,218.8833464083333,219.16245572291663,59.0,81.0
1230,219.29430490833332,219.5100581208333,59.0,34.0
1231,219.29430490833332,219.59567447499998,64.0,83.0
1232,219.7052634083333,220.14361914166665,68.0,86.0
1233,220.1162219083333,220.3371121020833,63.0,89.0
1234,220.5271804083333,220.67786519166663,68.0,91.0
1235,220.93813890833331,221.14533048541665,63.0,88.0
1236,221.3490974083333,221.4826589208333,63.0,88.0
1237,221.3490974083333,221.53574106041663,68.0,86.0
1238,221.7600559083333,221.94841188749996,63.0,82.0
1239,222.1710144083333,222.32341151874996,63.0,88.0
1240,222.1710144083333,222.42443881666665,68.0,90.0
1241,219.7052634083333,222.45012372291663,47.0,83.0
1242,219.7052634083333,222.4689593208333,39.0,84.0
1243,222.5819729083333,222.77889052291664,63.0,89.0
1244,222.9929314083333,223.18471204166664,61.0,82.0
1245,222.9929314083333,223.4449857583333,68.0,85.0
1246,223.4038899083333,223.64361569999997,61.0,77.0
1247,223.8148484083333,224.01176602291665,68.0,90.0
1248,223.8148484083333,224.01347834999996,64.0,89.0
1249,224.2258069083333,224.45012175624996,61.0,76.0
1250,224.6367654083333,224.82854604166664,61.0,84.0
1251,224.6367654083333,224.87991585416663,64.0,90.0
1252,224.6367654083333,224.88676516249998,68.0,89.0
1253,225.0477239083333,225.23607988749998,61.0,74.0
1254,222.9929314083333,225.53916178124996,37.0,88.0
1255,225.45868240833332,225.87135323541665,64.0,89.0
1256,225.45868240833332,225.95354493541663,68.0,89.0
1257,225.8696409083333,225.99977776666663,61.0,85.0
1258,226.2805994083333,226.50491425624998,57.0,80.0
1259,226.2805994083333,226.5220375270833,68.0,82.0
1260,226.6915579083333,226.88505086874997,57.0,70.0
1261,226.6915579083333,226.89532483124998,64.0,74.0
1262,227.10251640833332,227.24292722916664,68.0,87.0
1263,227.10251640833332,227.27546144374998,57.0,81.0
1264,227.5134749083333,227.72751579374997,64.0,55.0
1265,227.5134749083333,227.7549130270833,57.0,68.0
1266,227.9244334083333,228.13676196666663,57.0,82.0
1267,227.9244334083333,228.15388523749996,68.0,85.0
1268,228.3353919083333,228.52888486874997,64.0,80.0
1269,226.2805994083333,228.7463504083333,45.0,88.0
1270,228.7463504083333,229.59052766041663,68.0,88.0
1271,228.97580223749998,230.76347171249998,47.0,67.0
1272,228.7720353145833,230.8216908333333,40.0,75.0
1273,229.0237473958333,231.1761425395833,52.0,73.0
1274,229.3114183458333,231.18470417499998,59.0,46.0
1275,229.14532261874996,231.1864165020833,56.0,76.0
1276,229.3011443833333,231.23436166041662,64.0,62.0
