,start,end,pitch,velocity
0,1.385,1.57125,65.0,75.0
1,1.385,1.58875,60.0,72.0
2,1.385,1.59,68.0,74.0
3,1.685,1.78125,65.0,72.0
4,1.685,1.7925,68.0,71.0
5,1.685,1.795,60.0,68.0
6,1.385,1.805,53.0,81.0
7,1.385,1.92625,41.0,76.0
8,1.985,2.095,60.0,72.0
9,1.985,2.095,65.0,76.0
10,1.985,2.11625,68.0,74.0
11,2.285,2.37,65.0,69.0
12,2.285,2.37125,60.0,67.0
13,2.285,2.37125,60.0,80.0
14,2.285,2.40125,68.0,72.0
15,2.285,2.53125,48.0,83.0
16,2.585,2.7575,65.0,77.0
17,2.585,2.77,61.0,74.0
18,2.585,2.77,61.0,81.0
19,2.585,2.7725,68.0,76.0
20,2.8850000000000002,3.015,61.0,68.0
21,2.8850000000000002,3.015,68.0,68.0
22,2.8850000000000002,3.01625,65.0,74.0
23,2.585,3.0387500000000003,49.0,82.0
24,3.185,3.31375,65.0,79.0
25,3.185,3.31625,61.0,75.0
26,3.185,3.3175,68.0,79.0
27,3.485,3.59,65.0,75.0
28,3.485,3.6025,68.0,73.0
29,3.485,3.61625,61.0,70.0
30,3.785,4.01,63.0,77.0
31,3.785,4.0125,67.0,80.0
32,4.085,4.2,67.0,70.0
33,4.085,4.20625,63.0,69.0
34,3.785,4.2525,51.0,82.0
35,3.785,4.275,39.0,82.0
36,4.385,4.505,63.0,75.0
37,4.385,4.515,67.0,75.0
38,4.6850000000000005,4.8375,63.0,75.0
39,4.6850000000000005,4.8412500000000005,67.0,75.0
40,4.6850000000000005,4.915,39.0,81.0
41,4.6850000000000005,4.94125,51.0,75.0
42,4.985,5.12625,65.0,76.0
43,4.985,5.14625,60.0,74.0
44,4.985,5.14875,68.0,74.0
45,5.285,5.39625,65.0,69.0
46,5.285,5.40125,68.0,69.0
47,5.285,5.40875,60.0,67.0
48,4.985,5.64125,53.0,80.0
49,4.985,5.66625,41.0,81.0
50,5.585,5.73125,65.0,83.0
51,5.585,5.7475000000000005,60.0,81.0
52,5.585,5.7562500000000005,68.0,81.0
53,5.885,6.03125,65.0,81.0
54,5.885,6.04,60.0,80.0
55,5.885,6.06625,68.0,78.0
56,6.1850000000000005,6.29125,65.0,75.0
57,6.1850000000000005,6.30625,61.0,74.0
58,6.1850000000000005,6.3100000000000005,68.0,74.0
59,6.1850000000000005,6.56625,49.0,80.0
60,6.485,6.57375,65.0,75.0
61,6.1850000000000005,6.577500000000001,37.0,79.0
62,6.485,6.58125,61.0,71.0
63,6.485,6.585,68.0,72.0
64,6.785,6.88625,65.0,76.0
65,6.785,6.91,61.0,74.0
66,6.785,6.9125000000000005,68.0,74.0
67,7.085,7.18125,61.0,72.0
68,7.085,7.18125,65.0,76.0
69,7.085,7.22875,68.0,74.0
70,7.085,7.28,37.0,69.0
71,7.085,7.30625,49.0,76.0
72,7.385,7.625,63.0,75.0
73,7.385,7.6375,67.0,79.0
74,7.6850000000000005,7.79,63.0,71.0
75,7.6850000000000005,7.81625,67.0,72.0
76,7.385,7.827500000000001,51.0,80.0
77,7.385,7.87875,39.0,76.0
78,7.985,8.14,63.0,81.0
79,7.985,8.14625,67.0,84.0
80,8.285,8.42125,63.0,70.0
81,8.285,8.432500000000001,67.0,77.0
82,8.585,8.81625,63.0,72.0
83,8.585,8.82625,68.0,74.0
84,8.585,8.84,60.0,70.0
85,8.885,8.96875,68.0,68.0
86,8.885,8.981250000000001,63.0,75.0
87,8.585,8.9825,56.0,75.0
88,8.885,8.995000000000001,60.0,67.0
89,8.585,9.012500000000001,44.0,75.0
90,9.185,9.28125,63.0,70.0
91,9.185,9.28625,60.0,69.0
92,9.185,9.305,68.0,65.0
93,9.485,9.56625,63.0,63.0
94,9.485,9.585,60.0,65.0
95,9.485,9.61625,68.0,69.0
96,9.485,9.700000000000001,46.0,73.0
97,9.485,9.7325,58.0,69.0
98,9.785,10.005,60.0,75.0
99,9.785,10.005,60.0,75.0
100,9.785,10.008750000000001,64.0,78.0
101,9.785,10.0175,67.0,78.0
102,10.085,10.18,60.0,63.0
103,10.085,10.19,64.0,69.0
104,10.085,10.20125,67.0,68.0
105,9.785,10.305,48.0,82.0
106,10.385,10.4375,60.0,75.0
107,10.385,10.508750000000001,64.0,73.0
108,10.385,10.535,67.0,74.0
109,10.685,10.80375,64.0,76.0
110,10.685,10.83,60.0,76.0
111,10.685,10.8425,67.0,75.0
112,10.985,11.24125,65.0,65.0
113,10.985,11.2525,60.0,73.0
114,10.985,11.25375,68.0,56.0
115,11.285,11.3825,65.0,71.0
116,11.285,11.38625,60.0,65.0
117,11.285,11.4,68.0,70.0
118,10.985,11.56125,53.0,71.0
119,10.985,11.575000000000001,41.0,80.0
120,11.585,11.75625,60.0,73.0
121,11.585,11.7575,65.0,79.0
122,11.585,11.77375,68.0,75.0
123,11.885,11.9925,60.0,71.0
124,11.885,11.998750000000001,65.0,74.0
125,11.885,12.012500000000001,68.0,70.0
126,11.885,12.08625,39.0,73.0
127,11.885,12.135,51.0,75.0
128,12.185,12.40375,65.0,77.0
129,12.185,12.41625,68.0,75.0
130,12.185,12.42,61.0,72.0
131,12.485,12.58625,65.0,74.0
132,12.485,12.59125,61.0,67.0
133,12.485,12.60125,68.0,69.0
134,12.185,12.74,49.0,79.0
135,12.185,12.748750000000001,37.0,74.0
136,12.785,13.2125,65.0,83.0
137,12.785,13.235,61.0,80.0
138,12.785,13.26875,68.0,81.0
139,13.385,13.58,63.0,76.0
140,13.385,13.5825,68.0,73.0
141,13.385,13.615,72.0,80.0
142,13.685,13.780000000000001,63.0,68.0
143,13.685,13.8,68.0,72.0
144,13.685,13.821250000000001,72.0,72.0
145,13.385,13.9275,56.0,76.0
146,13.385,13.94,44.0,81.0
147,13.985,14.12125,63.0,80.0
148,13.985,14.1325,68.0,80.0
149,13.985,14.1525,72.0,81.0
150,14.285,14.425,68.0,75.0
151,14.285,14.42875,72.0,78.0
152,14.285,14.4375,63.0,75.0
153,14.285,14.5,44.0,74.0
154,14.285,14.59875,56.0,75.0
155,14.585,14.72125,63.0,65.0
156,14.585,14.731250000000001,67.0,68.0
157,14.885,15.00125,67.0,74.0
158,14.885,15.00625,63.0,72.0
159,14.585,15.14,51.0,72.0
160,14.585,15.14875,39.0,70.0
161,15.185,15.6975,67.0,85.0
162,15.185,15.72125,63.0,80.0
163,15.785,15.92625,60.0,74.0
164,15.785,15.92625,60.0,75.0
165,15.785,15.92625,67.0,78.0
166,15.785,15.9275,63.0,81.0
167,16.085,16.16875,60.0,58.0
168,16.085,16.18125,63.0,67.0
169,16.085,16.18125,67.0,63.0
170,16.385,16.4525,60.0,65.0
171,15.785,16.475,48.0,77.0
172,16.385,16.49625,67.0,68.0
173,16.385,16.50125,63.0,73.0
174,16.685,16.80125,60.0,61.0
175,16.685,16.80375,63.0,68.0
176,16.685,16.81875,67.0,66.0
177,16.685,16.9225,46.0,76.0
178,16.685,16.945,58.0,73.0
179,16.985,17.28875,60.0,80.0
180,16.985,17.28875,60.0,81.0
181,16.985,17.31375,48.0,84.0
182,16.985,17.87875,67.0,82.0
183,18.185,18.6725,65.0,81.0
184,18.185,18.68625,60.0,77.0
185,18.185,18.7225,53.0,81.0
186,18.185,18.74875,41.0,79.0
187,18.785,18.896250000000002,65.0,78.0
188,18.785,18.9175,68.0,74.0
189,19.085,19.22125,68.0,67.0
190,19.085,19.23,65.0,68.0
191,19.085,19.240000000000002,60.0,64.0
192,19.085,19.39,39.0,75.0
193,19.085,19.405,51.0,78.0
194,19.385,19.49625,65.0,66.0
195,19.385,19.50125,60.0,66.0
196,19.385,19.505,68.0,66.0
197,19.685,19.7875,65.0,70.0
198,19.685,19.79,60.0,66.0
199,19.685,19.79125,68.0,69.0
200,19.385,20.145,53.0,80.0
201,19.385,20.16625,41.0,80.0
202,19.985,20.3975,65.0,85.0
203,19.985,20.3975,68.0,80.0
204,19.985,20.43875,60.0,80.0
205,20.585,20.7775,60.0,75.0
206,20.585,20.96125,65.0,79.0
207,20.885,21.03625,60.0,68.0
208,21.185,21.30375,60.0,81.0
209,20.585,21.40375,41.0,86.0
210,20.585,21.40375,53.0,86.0
211,21.185,21.53625,65.0,89.0
212,21.485,21.60125,60.0,75.0
213,21.185,21.6075,68.0,82.0
214,21.785,22.04125,65.0,78.0
215,21.785,22.05375,68.0,74.0
216,21.785,22.06875,61.0,71.0
217,22.385,22.4975,61.0,82.0
218,22.385,22.50125,68.0,81.0
219,22.085,22.5725,56.0,67.0
220,21.785,22.583750000000002,37.0,82.0
221,21.785,22.583750000000002,49.0,82.0
222,22.985,23.205000000000002,63.0,74.0
223,22.985,23.26625,67.0,76.0
224,23.585,23.69625,63.0,71.0
225,23.585,23.785,67.0,82.0
226,22.985,23.9125,39.0,81.0
227,22.985,23.9125,51.0,81.0
228,23.285,23.986250000000002,58.0,65.0
229,23.885,24.02625,63.0,72.0
230,23.585,24.045,70.0,80.0
231,24.185000000000002,24.48375,68.0,70.0
232,24.185000000000002,24.49625,65.0,76.0
233,24.485,24.85375,60.0,66.0
234,24.185000000000002,24.86375,41.0,82.0
235,24.185000000000002,24.86375,53.0,82.0
236,24.785,24.88625,68.0,81.0
237,24.785,24.90125,65.0,81.0
238,24.785,24.90625,72.0,81.0
239,25.385,25.708750000000002,65.0,77.0
240,25.385,25.7175,61.0,69.0
241,25.985,26.325,61.0,82.0
242,25.685000000000002,26.33125,56.0,68.0
243,25.385,26.372500000000002,37.0,80.0
244,25.385,26.372500000000002,49.0,80.0
245,26.285,26.4175,65.0,83.0
246,26.585,26.84625,67.0,72.0
247,26.585,26.872500000000002,63.0,72.0
248,27.185000000000002,27.29125,63.0,73.0
249,27.185000000000002,27.3825,67.0,76.0
250,27.185000000000002,27.42625,70.0,76.0
251,26.885,27.4325,58.0,65.0
252,26.585,27.466250000000002,39.0,82.0
253,26.585,27.466250000000002,51.0,82.0
254,27.785,28.1875,63.0,76.0
255,27.785,28.2,68.0,77.0
256,27.785,28.3675,44.0,82.0
257,27.785,28.3675,56.0,82.0
258,28.085,28.385,60.0,66.0
259,28.385,28.6325,63.0,80.0
260,28.685000000000002,28.815,34.0,81.0
261,28.685000000000002,28.815,46.0,81.0
262,28.385,28.986250000000002,68.0,80.0
263,29.285,29.475,60.0,81.0
264,28.985,29.63,36.0,85.0
265,28.985,29.63,48.0,85.0
266,29.585,29.73125,60.0,80.0
267,29.585,29.892500000000002,64.0,82.0
268,29.585,29.9675,67.0,81.0
269,29.885,30.0625,60.0,83.0
270,30.185000000000002,30.335,60.0,80.0
271,30.185000000000002,30.548750000000002,65.0,82.0
272,30.485,30.6,60.0,72.0
273,30.185000000000002,30.915,41.0,85.0
274,30.185000000000002,30.915,53.0,85.0
275,30.785,31.12375,60.0,81.0
276,31.085,31.245,39.0,86.0
277,31.085,31.245,51.0,86.0
278,30.785,31.310000000000002,65.0,82.0
279,30.785,31.3425,68.0,80.0
280,31.385,31.70375,61.0,79.0
281,31.385,31.72875,65.0,81.0
282,31.985,32.12125,61.0,81.0
283,31.685000000000002,32.40875,56.0,74.0
284,31.385,32.42875,37.0,85.0
285,31.385,32.42875,49.0,85.0
286,31.985,32.53125,65.0,89.0
287,31.985,32.545,68.0,84.0
288,32.285000000000004,32.56375,61.0,72.0
289,32.585,33.005,63.0,82.0
290,32.585,33.0225,56.0,81.0
291,33.185,33.2275,56.0,68.0
292,32.885,33.33875,39.0,76.0
293,32.885,33.33875,51.0,76.0
294,32.585,33.3775,32.0,81.0
295,32.585,33.3775,44.0,81.0
296,33.185,33.72625,60.0,81.0
297,33.485,33.74125,37.0,94.0
298,33.485,33.74125,49.0,94.0
299,33.185,33.75625,63.0,80.0
300,33.185,33.76625,68.0,70.0
301,33.785000000000004,34.21875,63.0,81.0
302,33.785000000000004,34.2525,67.0,80.0
303,34.085,34.511250000000004,58.0,71.0
304,34.385,34.57875,63.0,80.0
305,33.785000000000004,34.80625,39.0,81.0
306,33.785000000000004,34.80625,51.0,81.0
307,34.685,34.86875,58.0,80.0
308,34.985,35.33,60.0,76.0
309,34.985,35.33625,63.0,80.0
310,35.585,35.730000000000004,60.0,81.0
311,35.585,35.7425,63.0,87.0
312,35.585,35.845,67.0,85.0
313,35.885,35.995,60.0,67.0
314,35.285000000000004,36.00875,55.0,46.0
315,34.985,36.05875,36.0,80.0
316,34.985,36.05875,48.0,80.0
317,36.185,36.6025,63.0,74.0
318,36.185,36.60625,60.0,75.0
319,36.785000000000004,36.89625,60.0,81.0
320,36.485,36.935,55.0,59.0
321,36.185,37.10625,36.0,80.0
322,36.185,37.10625,48.0,80.0
323,36.785000000000004,37.1375,63.0,91.0
324,36.785000000000004,37.15,67.0,86.0
325,37.085,37.24625,60.0,77.0
326,37.385,37.6025,60.0,80.0
327,37.385,37.7825,65.0,82.0
328,37.985,38.1,60.0,81.0
329,37.385,38.285000000000004,41.0,79.0
330,37.385,38.285000000000004,53.0,79.0
331,37.985,38.35,68.0,82.0
332,37.985,38.425000000000004,65.0,87.0
333,38.285000000000004,38.525,60.0,74.0
334,38.285000000000004,38.585,46.0,80.0
335,38.885,39.0125,60.0,74.0
336,38.585,39.185,48.0,79.0
337,39.185,39.36375,60.0,85.0
338,39.485,39.7525,39.0,91.0
339,39.485,39.7525,51.0,91.0
340,39.185,39.7875,65.0,89.0
341,39.785000000000004,39.7875,65.0,79.0
342,39.185,39.815,68.0,83.0
343,39.785000000000004,39.9775,60.0,75.0
344,40.085,40.23625,60.0,68.0
345,40.385,40.503750000000004,60.0,81.0
346,39.785000000000004,40.60375,41.0,86.0
347,39.785000000000004,40.60375,53.0,86.0
348,40.385,40.73625,65.0,89.0
349,40.685,40.80125,60.0,75.0
350,40.385,40.8075,68.0,82.0
351,40.985,41.24125,65.0,78.0
352,40.985,41.253750000000004,68.0,74.0
353,40.985,41.268750000000004,61.0,71.0
354,41.585,41.6975,61.0,82.0
355,41.585,41.70125,68.0,81.0
356,41.285000000000004,41.7725,56.0,67.0
357,40.985,41.78375,37.0,82.0
358,40.985,41.78375,49.0,82.0
359,42.185,42.405,63.0,74.0
360,42.185,42.46625,67.0,76.0
361,42.785000000000004,42.89625,63.0,71.0
362,42.785000000000004,42.985,67.0,82.0
363,42.185,43.112500000000004,39.0,81.0
364,42.185,43.112500000000004,51.0,81.0
365,42.485,43.18625,58.0,65.0
366,43.085,43.22625,63.0,72.0
367,42.785000000000004,43.245,70.0,80.0
368,43.385,43.68375,68.0,70.0
369,43.385,43.69625,65.0,76.0
370,43.685,44.05375,60.0,66.0
371,43.385,44.06375,41.0,82.0
372,43.385,44.06375,53.0,82.0
373,43.985,44.08625,68.0,81.0
374,43.985,44.10125,65.0,81.0
375,43.985,44.10625,72.0,81.0
376,44.585,44.90875,65.0,77.0
377,44.585,44.917500000000004,61.0,69.0
378,45.185,45.525,61.0,82.0
379,44.885,45.53125,56.0,68.0
380,44.585,45.5725,37.0,80.0
381,44.585,45.5725,49.0,80.0
382,45.485,45.6175,65.0,83.0
383,45.785000000000004,46.04625,67.0,72.0
384,45.785000000000004,46.0725,63.0,72.0
385,46.385,46.49125,63.0,73.0
386,46.385,46.5825,67.0,76.0
387,46.385,46.62625,70.0,76.0
388,46.085,46.6325,58.0,65.0
389,45.785000000000004,46.66625,39.0,82.0
390,45.785000000000004,46.66625,51.0,82.0
391,46.985,47.3875,63.0,76.0
392,46.985,47.4,68.0,77.0
393,46.985,47.5675,44.0,82.0
394,46.985,47.5675,56.0,82.0
395,47.285000000000004,47.585,60.0,66.0
396,47.585,47.8325,63.0,80.0
397,47.885,48.015,34.0,81.0
398,47.885,48.015,46.0,81.0
399,47.585,48.18625,68.0,80.0
400,48.485,48.675000000000004,60.0,81.0
401,48.185,48.83,36.0,85.0
402,48.185,48.83,48.0,85.0
403,48.785000000000004,48.93125,60.0,80.0
404,48.785000000000004,49.0925,64.0,82.0
405,48.785000000000004,49.167500000000004,67.0,81.0
406,49.085,49.2625,60.0,83.0
407,49.385,49.535000000000004,60.0,80.0
408,49.385,49.74875,65.0,82.0
409,49.685,49.800000000000004,60.0,72.0
410,49.385,50.115,41.0,85.0
411,49.385,50.115,53.0,85.0
412,49.985,50.323750000000004,60.0,81.0
413,50.285000000000004,50.445,39.0,86.0
414,50.285000000000004,50.445,51.0,86.0
415,49.985,50.51,65.0,82.0
416,49.985,50.542500000000004,68.0,80.0
417,50.585,50.90375,61.0,79.0
418,50.585,50.92875,65.0,81.0
419,51.185,51.32125,61.0,81.0
420,50.885,51.60875,56.0,74.0
421,50.585,51.628750000000004,37.0,85.0
422,50.585,51.628750000000004,49.0,85.0
423,51.185,51.73125,65.0,89.0
424,51.185,51.745000000000005,68.0,84.0
425,51.485,51.76375,61.0,72.0
426,51.785000000000004,52.205,63.0,82.0
427,51.785000000000004,52.222500000000004,56.0,81.0
428,52.385,52.4275,56.0,68.0
429,52.085,52.53875,39.0,76.0
430,52.085,52.53875,51.0,76.0
431,51.785000000000004,52.5775,32.0,81.0
432,51.785000000000004,52.5775,44.0,81.0
433,52.385,52.92625,60.0,81.0
434,52.685,52.941250000000004,37.0,94.0
435,52.685,52.941250000000004,49.0,94.0
436,52.385,52.956250000000004,63.0,80.0
437,52.385,52.96625,68.0,70.0
438,52.985,53.41875,63.0,81.0
439,52.985,53.4525,67.0,80.0
440,53.285000000000004,53.71125,58.0,71.0
441,53.585,53.77875,63.0,80.0
442,52.985,54.00625,39.0,81.0
443,52.985,54.00625,51.0,81.0
444,53.885,54.06875,58.0,80.0
445,54.185,54.53,60.0,76.0
446,54.185,54.53625,63.0,80.0
447,54.785000000000004,54.93,60.0,81.0
448,54.785000000000004,54.9425,63.0,87.0
449,54.785000000000004,55.045,67.0,85.0
450,55.085,55.195,60.0,67.0
451,54.485,55.20875,55.0,46.0
452,54.185,55.25875,36.0,80.0
453,54.185,55.25875,48.0,80.0
454,55.385,55.8025,63.0,74.0
455,55.385,55.80625,60.0,75.0
456,55.985,56.09625,60.0,81.0
457,55.685,56.135,55.0,59.0
458,55.385,56.30625,36.0,80.0
459,55.385,56.30625,48.0,80.0
460,55.985,56.3375,63.0,91.0
461,55.985,56.35,67.0,86.0
462,56.285000000000004,56.44625,60.0,77.0
463,56.585,56.8025,60.0,80.0
464,56.585,56.9825,65.0,82.0
465,57.185,57.300000000000004,60.0,81.0
466,56.585,57.485,41.0,79.0
467,56.585,57.485,53.0,79.0
468,57.185,57.550000000000004,68.0,82.0
469,57.185,57.625,65.0,87.0
470,57.485,57.725,60.0,74.0
471,57.485,57.785000000000004,46.0,80.0
472,58.085,58.2125,60.0,74.0
473,57.785000000000004,58.385,48.0,79.0
474,58.385,58.56375,60.0,85.0
475,58.685,58.9525,39.0,91.0
476,58.685,58.9525,51.0,91.0
477,58.385,58.987500000000004,65.0,89.0
478,58.985,58.987500000000004,65.0,75.0
479,58.385,59.015,68.0,83.0
480,58.985,59.015,68.0,74.0
481,58.985,59.18875,60.0,72.0
482,59.285000000000004,59.38125,65.0,72.0
483,59.285000000000004,59.3925,68.0,71.0
484,59.285000000000004,59.395,60.0,68.0
485,58.985,59.405,53.0,81.0
486,58.985,59.526250000000005,41.0,76.0
487,59.585,59.695,60.0,72.0
488,59.585,59.695,65.0,76.0
489,59.585,59.71625,68.0,74.0
490,59.885,59.97,65.0,69.0
491,59.885,59.97125,60.0,67.0
492,59.885,59.97125,60.0,80.0
493,59.885,60.00125,68.0,72.0
494,59.885,60.13125,48.0,83.0
495,60.185,60.3575,65.0,77.0
496,60.185,60.370000000000005,61.0,74.0
497,60.185,60.370000000000005,61.0,81.0
498,60.185,60.3725,68.0,76.0
499,60.485,60.615,61.0,68.0
500,60.485,60.615,68.0,68.0
501,60.485,60.61625,65.0,74.0
502,60.185,60.63875,49.0,82.0
503,60.785000000000004,60.91375,65.0,79.0
504,60.785000000000004,60.91625,61.0,75.0
505,60.785000000000004,60.917500000000004,68.0,79.0
506,61.085,61.19,65.0,75.0
507,61.085,61.2025,68.0,73.0
508,61.085,61.21625,61.0,70.0
509,61.385,61.61,63.0,77.0
510,61.385,61.612500000000004,67.0,80.0
511,61.685,61.800000000000004,67.0,70.0
512,61.685,61.80625,63.0,69.0
513,61.385,61.8525,51.0,82.0
514,61.385,61.875,39.0,82.0
515,61.985,62.105000000000004,63.0,75.0
516,61.985,62.115,67.0,75.0
517,62.285000000000004,62.4375,63.0,75.0
518,62.285000000000004,62.441250000000004,67.0,75.0
519,62.285000000000004,62.515,39.0,81.0
520,62.285000000000004,62.54125,51.0,75.0
521,62.585,62.72625,65.0,76.0
522,62.585,62.74625,60.0,74.0
523,62.585,62.74875,68.0,74.0
524,62.885,62.99625,65.0,69.0
525,62.885,63.00125,68.0,69.0
526,62.885,63.00875,60.0,67.0
527,62.585,63.24125,53.0,80.0
528,62.585,63.26625,41.0,81.0
529,63.185,63.331250000000004,65.0,83.0
530,63.185,63.347500000000004,60.0,81.0
531,63.185,63.35625,68.0,81.0
532,63.485,63.63125,65.0,81.0
533,63.485,63.64,60.0,80.0
534,63.485,63.66625,68.0,78.0
535,63.785000000000004,63.89125,65.0,75.0
536,63.785000000000004,63.90625,61.0,74.0
537,63.785000000000004,63.910000000000004,68.0,74.0
538,63.785000000000004,64.16625,49.0,80.0
539,64.08500000000001,64.17375,65.0,75.0
540,63.785000000000004,64.1775,37.0,79.0
541,64.08500000000001,64.18125,61.0,71.0
542,64.08500000000001,64.185,68.0,72.0
543,64.385,64.48625,65.0,76.0
544,64.385,64.51,61.0,74.0
545,64.385,64.5125,68.0,74.0
546,64.685,64.78125,61.0,72.0
547,64.685,64.78125,65.0,76.0
548,64.685,64.82875,68.0,74.0
549,64.685,64.88,37.0,69.0
550,64.685,64.90625,49.0,76.0
551,64.985,65.225,63.0,75.0
552,64.985,65.2375,67.0,79.0
553,65.285,65.39,63.0,71.0
554,65.285,65.41625,67.0,72.0
555,64.985,65.4275,51.0,80.0
556,64.985,65.47875,39.0,76.0
557,65.58500000000001,65.74,63.0,81.0
558,65.58500000000001,65.74625,67.0,84.0
559,65.885,66.02125,63.0,70.0
560,65.885,66.0325,67.0,77.0
561,66.185,66.41625,63.0,72.0
562,66.185,66.42625,68.0,74.0
563,66.185,66.44,60.0,70.0
564,66.485,66.56875,68.0,68.0
565,66.485,66.58125,63.0,75.0
566,66.185,66.5825,56.0,75.0
567,66.485,66.595,60.0,67.0
568,66.185,66.6125,44.0,75.0
569,66.785,66.88125,63.0,70.0
570,66.785,66.88625,60.0,69.0
571,66.785,66.905,68.0,65.0
572,67.08500000000001,67.16625,63.0,63.0
573,67.08500000000001,67.185,60.0,65.0
574,67.08500000000001,67.21625,68.0,69.0
575,67.08500000000001,67.3,46.0,73.0
576,67.08500000000001,67.3325,58.0,69.0
577,67.385,67.605,60.0,75.0
578,67.385,67.605,60.0,75.0
579,67.385,67.60875,64.0,78.0
580,67.385,67.6175,67.0,78.0
581,67.685,67.78,60.0,63.0
582,67.685,67.79,64.0,69.0
583,67.685,67.80125,67.0,68.0
584,67.385,67.905,48.0,82.0
585,67.985,68.0375,60.0,75.0
586,67.985,68.10875,64.0,73.0
587,67.985,68.135,67.0,74.0
588,68.285,68.40375,64.0,76.0
589,68.285,68.43,60.0,76.0
590,68.285,68.4425,67.0,75.0
591,68.58500000000001,68.84125,65.0,65.0
592,68.58500000000001,68.8525,60.0,73.0
593,68.58500000000001,68.85375,68.0,56.0
594,68.885,68.9825,65.0,71.0
595,68.885,68.98625,60.0,65.0
596,68.885,69.0,68.0,70.0
597,68.58500000000001,69.16125,53.0,71.0
598,68.58500000000001,69.175,41.0,80.0
599,69.185,69.35625,60.0,73.0
600,69.185,69.3575,65.0,79.0
601,69.185,69.37375,68.0,75.0
602,69.485,69.5925,60.0,71.0
603,69.485,69.59875,65.0,74.0
604,69.485,69.6125,68.0,70.0
605,69.485,69.68625,39.0,73.0
606,69.485,69.735,51.0,75.0
607,69.785,70.00375,65.0,77.0
608,69.785,70.01625,68.0,75.0
609,69.785,70.02,61.0,72.0
610,70.08500000000001,70.18625,65.0,74.0
611,70.08500000000001,70.19125,61.0,67.0
612,70.08500000000001,70.20125,68.0,69.0
613,69.785,70.34,49.0,79.0
614,69.785,70.34875,37.0,74.0
615,70.385,70.8125,65.0,83.0
616,70.385,70.83500000000001,61.0,80.0
617,70.385,70.86875,68.0,81.0
618,70.985,71.18,63.0,76.0
619,70.985,71.1825,68.0,73.0
620,70.985,71.215,72.0,80.0
621,71.285,71.38,63.0,68.0
622,71.285,71.4,68.0,72.0
623,71.285,71.42125,72.0,72.0
624,70.985,71.5275,56.0,76.0
625,70.985,71.54,44.0,81.0
626,71.58500000000001,71.72125,63.0,80.0
627,71.58500000000001,71.7325,68.0,80.0
628,71.58500000000001,71.7525,72.0,81.0
629,71.885,72.025,68.0,75.0
630,71.885,72.02875,72.0,78.0
631,71.885,72.03750000000001,63.0,75.0
632,71.885,72.10000000000001,44.0,74.0
633,71.885,72.19875,56.0,75.0
634,72.185,72.32125,63.0,65.0
635,72.185,72.33125,67.0,68.0
636,72.485,72.60125000000001,67.0,74.0
637,72.485,72.60625,63.0,72.0
638,72.185,72.74,51.0,72.0
639,72.185,72.74875,39.0,70.0
640,72.785,73.2975,67.0,85.0
641,72.785,73.32125,63.0,80.0
642,73.385,73.52625,60.0,74.0
643,73.385,73.52625,60.0,75.0
644,73.385,73.52625,67.0,78.0
645,73.385,73.5275,63.0,81.0
646,73.685,73.76875,60.0,58.0
647,73.685,73.78125,63.0,67.0
648,73.685,73.78125,67.0,63.0
649,73.985,74.0525,60.0,65.0
650,73.385,74.075,48.0,77.0
651,73.985,74.09625,67.0,68.0
652,73.985,74.10125000000001,63.0,73.0
653,74.285,74.40125,60.0,61.0
654,74.285,74.40375,63.0,68.0
655,74.285,74.41875,67.0,66.0
656,74.285,74.52250000000001,46.0,76.0
657,74.285,74.545,58.0,73.0
658,74.58500000000001,74.88875,60.0,80.0
659,74.58500000000001,74.88875,60.0,81.0
660,74.58500000000001,74.91375000000001,48.0,84.0
661,74.58500000000001,75.47875,67.0,82.0
662,75.785,76.27250000000001,65.0,81.0
663,75.785,76.28625,60.0,77.0
664,75.785,76.3225,53.0,81.0
665,75.785,76.34875,41.0,79.0
666,76.385,76.49625,65.0,78.0
667,76.385,76.5175,68.0,74.0
668,76.685,76.82125,68.0,67.0
669,76.685,76.83,65.0,68.0
670,76.685,76.84,60.0,64.0
671,76.685,76.99,39.0,75.0
672,76.685,77.005,51.0,78.0
673,76.985,77.09625,65.0,66.0
674,76.985,77.10125000000001,60.0,66.0
675,76.985,77.105,68.0,66.0
676,77.285,77.3875,65.0,70.0
677,77.285,77.39,60.0,66.0
678,77.285,77.39125,68.0,69.0
679,76.985,77.745,53.0,80.0
680,76.985,77.76625,41.0,80.0
681,77.58500000000001,77.9975,65.0,85.0
682,77.58500000000001,77.9975,68.0,80.0
683,77.58500000000001,78.03875000000001,60.0,80.0
684,78.185,78.37125,65.0,75.0
685,78.185,78.38875,60.0,72.0
686,78.185,78.39,68.0,74.0
687,78.485,78.58125,65.0,72.0
688,78.485,78.5925,68.0,71.0
689,78.485,78.595,60.0,68.0
690,78.185,78.605,53.0,81.0
691,78.185,78.72625000000001,41.0,76.0
692,78.785,78.895,60.0,72.0
693,78.785,78.895,65.0,76.0
694,78.785,78.91625,68.0,74.0
695,79.08500000000001,79.17,65.0,69.0
696,79.08500000000001,79.17125,60.0,67.0
697,79.08500000000001,79.17125,60.0,80.0
698,79.08500000000001,79.20125,68.0,72.0
699,79.08500000000001,79.33125,48.0,83.0
700,79.385,79.5575,65.0,77.0
701,79.385,79.57000000000001,61.0,74.0
702,79.385,79.57000000000001,61.0,81.0
703,79.385,79.5725,68.0,76.0
704,79.685,79.815,61.0,68.0
705,79.685,79.815,68.0,68.0
706,79.685,79.81625,65.0,74.0
707,79.385,79.83875,49.0,82.0
708,79.985,80.11375,65.0,79.0
709,79.985,80.11625000000001,61.0,75.0
710,79.985,80.1175,68.0,79.0
711,80.285,80.39,65.0,75.0
712,80.285,80.4025,68.0,73.0
713,80.285,80.41625,61.0,70.0
714,80.58500000000001,80.81,63.0,77.0
715,80.58500000000001,80.8125,67.0,80.0
716,80.885,81.0,67.0,70.0
717,80.885,81.00625000000001,63.0,69.0
718,80.58500000000001,81.0525,51.0,82.0
719,80.58500000000001,81.075,39.0,82.0
720,81.185,81.305,63.0,75.0
721,81.185,81.315,67.0,75.0
722,81.485,81.6375,63.0,75.0
723,81.485,81.64125,67.0,75.0
724,81.485,81.715,39.0,81.0
725,81.485,81.74125000000001,51.0,75.0
726,81.785,81.92625,65.0,76.0
727,81.785,81.94625,60.0,74.0
728,81.785,81.94875,68.0,74.0
729,82.08500000000001,82.19625,65.0,69.0
730,82.08500000000001,82.20125,68.0,69.0
731,82.08500000000001,82.20875,60.0,67.0
732,81.785,82.44125,53.0,80.0
733,81.785,82.46625,41.0,81.0
734,82.385,82.53125,65.0,83.0
735,82.385,82.5475,60.0,81.0
736,82.385,82.55625,68.0,81.0
737,82.685,82.83125,65.0,81.0
738,82.685,82.84,60.0,80.0
739,82.685,82.86625000000001,68.0,78.0
740,82.985,83.09125,65.0,75.0
741,82.985,83.10625,61.0,74.0
742,82.985,83.11,68.0,74.0
743,82.985,83.36625000000001,49.0,80.0
744,83.285,83.37375,65.0,75.0
745,82.985,83.3775,37.0,79.0
746,83.285,83.38125000000001,61.0,71.0
747,83.285,83.385,68.0,72.0
748,83.58500000000001,83.68625,65.0,76.0
749,83.58500000000001,83.71000000000001,61.0,74.0
750,83.58500000000001,83.7125,68.0,74.0
751,83.885,83.98125,61.0,72.0
752,83.885,83.98125,65.0,76.0
753,83.885,84.02875,68.0,74.0
754,83.885,84.08,37.0,69.0
755,83.885,84.10625,49.0,76.0
756,84.185,84.425,63.0,75.0
757,84.185,84.4375,67.0,79.0
758,84.485,84.59,63.0,71.0
759,84.485,84.61625000000001,67.0,72.0
760,84.185,84.6275,51.0,80.0
761,84.185,84.67875000000001,39.0,76.0
762,84.785,84.94,63.0,81.0
763,84.785,84.94625,67.0,84.0
764,85.08500000000001,85.22125,63.0,70.0
765,85.08500000000001,85.2325,67.0,77.0
766,85.385,85.61625000000001,63.0,72.0
767,85.385,85.62625,68.0,74.0
768,85.385,85.64,60.0,70.0
769,85.685,85.76875,68.0,68.0
770,85.685,85.78125,63.0,75.0
771,85.385,85.7825,56.0,75.0
772,85.685,85.795,60.0,67.0
773,85.385,85.8125,44.0,75.0
774,85.985,86.08125,63.0,70.0
775,85.985,86.08625,60.0,69.0
776,85.985,86.105,68.0,65.0
777,86.285,86.36625000000001,63.0,63.0
778,86.285,86.385,60.0,65.0
779,86.285,86.41625,68.0,69.0
780,86.285,86.5,46.0,73.0
781,86.285,86.5325,58.0,69.0
782,86.58500000000001,86.805,60.0,75.0
783,86.58500000000001,86.805,60.0,75.0
784,86.58500000000001,86.80875,64.0,78.0
785,86.58500000000001,86.8175,67.0,78.0
786,86.885,86.98,60.0,63.0
787,86.885,86.99,64.0,69.0
788,86.885,87.00125,67.0,68.0
789,86.58500000000001,87.105,48.0,82.0
790,87.185,87.2375,60.0,75.0
791,87.185,87.30875,64.0,73.0
792,87.185,87.33500000000001,67.0,74.0
793,87.485,87.60375,64.0,76.0
794,87.485,87.63,60.0,76.0
795,87.485,87.6425,67.0,75.0
796,87.785,88.04125,65.0,65.0
797,87.785,88.0525,60.0,73.0
798,87.785,88.05375000000001,68.0,56.0
799,88.08500000000001,88.1825,65.0,71.0
800,88.08500000000001,88.18625,60.0,65.0
801,88.08500000000001,88.2,68.0,70.0
802,87.785,88.36125,53.0,71.0
803,87.785,88.375,41.0,80.0
804,88.385,88.55625,60.0,73.0
805,88.385,88.5575,65.0,79.0
806,88.385,88.57375,68.0,75.0
807,88.685,88.7925,60.0,71.0
808,88.685,88.79875,65.0,74.0
809,88.685,88.8125,68.0,70.0
810,88.685,88.88625,39.0,73.0
811,88.685,88.935,51.0,75.0
812,88.985,89.20375,65.0,77.0
813,88.985,89.21625,68.0,75.0
814,88.985,89.22,61.0,72.0
815,89.285,89.38625,65.0,74.0
816,89.285,89.39125,61.0,67.0
817,89.285,89.40125,68.0,69.0
818,88.985,89.54,49.0,79.0
819,88.985,89.54875,37.0,74.0
820,89.58500000000001,90.0125,65.0,83.0
821,89.58500000000001,90.035,61.0,80.0
822,89.58500000000001,90.06875000000001,68.0,81.0
823,90.185,90.38,63.0,76.0
824,90.185,90.38250000000001,68.0,73.0
825,90.185,90.415,72.0,80.0
826,90.485,90.58,63.0,68.0
827,90.485,90.60000000000001,68.0,72.0
828,90.485,90.62125,72.0,72.0
829,90.185,90.7275,56.0,76.0
830,90.185,90.74,44.0,81.0
831,90.785,90.92125,63.0,80.0
832,90.785,90.9325,68.0,80.0
833,90.785,90.9525,72.0,81.0
834,91.08500000000001,91.22500000000001,68.0,75.0
835,91.08500000000001,91.22875,72.0,78.0
836,91.08500000000001,91.2375,63.0,75.0
837,91.08500000000001,91.3,44.0,74.0
838,91.08500000000001,91.39875,56.0,75.0
839,91.385,91.52125,63.0,65.0
840,91.385,91.53125,67.0,68.0
841,91.685,91.80125,67.0,74.0
842,91.685,91.80625,63.0,72.0
843,91.385,91.94,51.0,72.0
844,91.385,91.94875,39.0,70.0
845,91.985,92.4975,67.0,85.0
846,91.985,92.52125,63.0,80.0
847,92.58500000000001,92.72625000000001,60.0,74.0
848,92.58500000000001,92.72625000000001,60.0,75.0
849,92.58500000000001,92.72625000000001,67.0,78.0
850,92.58500000000001,92.7275,63.0,81.0
851,92.885,92.96875,60.0,58.0
852,92.885,92.98125,63.0,67.0
853,92.885,92.98125,67.0,63.0
854,93.185,93.2525,60.0,65.0
855,92.58500000000001,93.275,48.0,77.0
856,93.185,93.29625,67.0,68.0
857,93.185,93.30125,63.0,73.0
858,93.485,93.60125000000001,60.0,61.0
859,93.485,93.60375,63.0,68.0
860,93.485,93.61875,67.0,66.0
861,93.485,93.7225,46.0,76.0
862,93.485,93.745,58.0,73.0
863,93.785,94.08875,60.0,80.0
864,93.785,94.08875,60.0,81.0
865,93.785,94.11375,48.0,84.0
866,93.785,94.67875000000001,67.0,82.0
867,94.985,95.4725,65.0,81.0
868,94.985,95.48625,60.0,77.0
869,94.985,95.52250000000001,53.0,81.0
870,94.985,95.54875,41.0,79.0
871,95.58500000000001,95.69625,65.0,78.0
872,95.58500000000001,95.7175,68.0,74.0
873,95.885,96.02125000000001,68.0,67.0
874,95.885,96.03,65.0,68.0
875,95.885,96.04,60.0,64.0
876,95.885,96.19,39.0,75.0
877,95.885,96.205,51.0,78.0
878,96.185,96.29625,65.0,66.0
879,96.185,96.30125,60.0,66.0
880,96.185,96.305,68.0,66.0
881,96.485,96.5875,65.0,70.0
882,96.485,96.59,60.0,66.0
883,96.485,96.59125,68.0,69.0
884,96.185,96.94500000000001,53.0,80.0
885,96.185,96.96625,41.0,80.0
886,96.785,97.1975,65.0,85.0
887,96.785,97.1975,68.0,80.0
888,96.785,97.23875,60.0,80.0
889,97.385,97.61500000000001,60.0,80.0
890,97.385,97.665,68.0,76.0
891,97.985,98.09125,60.0,81.0
892,97.985,98.14625000000001,68.0,80.0
893,98.285,98.40625,60.0,80.0
894,98.58500000000001,99.03875000000001,65.0,83.0
895,98.58500000000001,99.05125,60.0,84.0
896,99.185,99.27375,60.0,80.0
897,97.685,99.305,48.0,68.0
898,99.185,99.52125000000001,68.0,81.0
899,99.185,99.54875,65.0,83.0
900,97.385,99.6275,41.0,81.0
901,99.485,99.64125,60.0,70.0
902,99.785,100.01375,60.0,74.0
903,99.785,100.09125,65.0,77.0
904,100.385,100.47500000000001,60.0,76.0
905,100.385,100.55250000000001,68.0,77.0
906,100.685,100.82125,60.0,81.0
907,100.08500000000001,101.04625,48.0,65.0
908,99.785,101.1175,41.0,81.0
909,100.985,101.3475,65.0,87.0
910,101.285,101.36500000000001,48.0,73.0
911,100.985,101.36500000000001,60.0,86.0
912,100.985,101.3675,68.0,82.0
913,101.285,101.44125,41.0,81.0
914,101.58500000000001,101.6875,65.0,83.0
915,101.58500000000001,101.69125,60.0,81.0
916,101.58500000000001,101.755,68.0,80.0
917,102.185,102.33,61.0,72.0
918,102.185,102.53375,65.0,79.0
919,102.485,102.60125000000001,61.0,67.0
920,102.785,102.90125,61.0,76.0
921,102.785,102.93125,65.0,81.0
922,102.785,103.0325,68.0,77.0
923,102.185,103.1825,37.0,80.0
924,103.385,103.67875000000001,63.0,76.0
925,103.385,103.72625000000001,67.0,72.0
926,103.685,104.00125,46.0,67.0
927,103.385,104.04,39.0,82.0
928,103.985,104.08875,63.0,77.0
929,103.985,104.1075,67.0,80.0
930,104.58500000000001,104.65375,68.0,70.0
931,104.58500000000001,104.70125,63.0,69.0
932,105.185,105.27875,56.0,80.0
933,104.885,105.31625,51.0,62.0
934,105.185,105.3225,63.0,81.0
935,105.485,105.62625,56.0,80.0
936,104.58500000000001,105.92750000000001,44.0,80.0
937,105.785,106.12875,60.0,82.0
938,105.785,106.14750000000001,63.0,81.0
939,105.785,106.14875,56.0,81.0
940,106.08500000000001,106.19125,51.0,79.0
941,106.385,106.4825,60.0,94.0
942,106.385,106.52125000000001,56.0,89.0
943,106.385,106.58625,63.0,86.0
944,107.285,107.39625000000001,60.0,82.0
945,107.58500000000001,107.66375000000001,60.0,81.0
946,107.58500000000001,107.67375,65.0,89.0
947,107.58500000000001,107.70375,68.0,83.0
948,107.885,107.98375,60.0,73.0
949,108.185,108.28375,60.0,75.0
950,108.185,108.31,65.0,82.0
951,108.185,108.3525,68.0,79.0
952,106.985,108.48625,41.0,87.0
953,108.785,108.875,60.0,81.0
954,108.785,109.1575,65.0,85.0
955,108.785,109.175,68.0,81.0
956,109.08500000000001,109.305,60.0,75.0
957,109.385,109.71125,58.0,72.0
958,109.385,109.71125,61.0,75.0
959,109.985,110.08875,58.0,78.0
960,109.985,110.13250000000001,65.0,81.0
961,110.285,110.4075,58.0,69.0
962,110.285,110.46375,61.0,74.0
963,109.685,110.77,53.0,72.0
964,110.58500000000001,110.99375,58.0,77.0
965,110.58500000000001,111.025,61.0,82.0
966,109.385,111.3125,46.0,80.0
967,110.885,111.34125,53.0,80.0
968,111.185,111.38,58.0,81.0
969,111.185,111.41250000000001,61.0,84.0
970,111.185,111.47875,65.0,86.0
971,111.785,112.18875,60.0,80.0
972,111.785,112.2225,63.0,81.0
973,112.385,112.505,60.0,77.0
974,112.385,112.74375,67.0,76.0
975,112.385,112.75750000000001,63.0,80.0
976,112.685,112.895,60.0,72.0
977,112.08500000000001,113.36,55.0,64.0
978,112.985,113.4525,67.0,72.0
979,113.285,113.525,60.0,76.0
980,111.785,113.59375,48.0,81.0
981,113.58500000000001,113.68375,60.0,75.0
982,113.58500000000001,113.79,67.0,76.0
983,113.58500000000001,113.80125,72.0,81.0
984,113.58500000000001,113.81,63.0,83.0
985,114.185,114.47125,53.0,69.0
986,114.185,114.5125,56.0,75.0
987,114.785,114.89375,55.0,80.0
988,114.485,115.18,48.0,75.0
989,114.185,115.22,41.0,82.0
990,115.08500000000001,115.22125,56.0,81.0
991,115.385,115.81,56.0,82.0
992,115.385,115.8375,60.0,87.0
993,115.985,116.5,56.0,78.0
994,115.985,116.5125,60.0,81.0
995,115.685,116.52250000000001,48.0,68.0
996,115.985,116.52250000000001,65.0,82.0
997,115.385,116.53625,41.0,85.0
998,116.58500000000001,116.7775,60.0,75.0
999,116.58500000000001,116.96125,65.0,79.0
1000,116.885,117.03625,60.0,68.0
1001,117.185,117.30375000000001,60.0,81.0
1002,116.58500000000001,117.40375,41.0,86.0
1003,116.58500000000001,117.40375,53.0,86.0
1004,117.185,117.53625,65.0,89.0
1005,117.485,117.60125000000001,60.0,75.0
1006,117.185,117.6075,68.0,82.0
1007,117.785,118.04125,65.0,78.0
1008,117.785,118.05375000000001,68.0,74.0
1009,117.785,118.06875000000001,61.0,71.0
1010,118.385,118.4975,61.0,82.0
1011,118.385,118.50125,68.0,81.0
1012,118.08500000000001,118.5725,56.0,67.0
1013,117.785,118.58375000000001,37.0,82.0
1014,117.785,118.58375000000001,49.0,82.0
1015,118.985,119.205,63.0,74.0
1016,118.985,119.26625,67.0,76.0
1017,119.58500000000001,119.69625,63.0,71.0
1018,119.58500000000001,119.785,67.0,82.0
1019,118.985,119.91250000000001,39.0,81.0
1020,118.985,119.91250000000001,51.0,81.0
1021,119.285,119.98625,58.0,65.0
1022,119.885,120.02625,63.0,72.0
1023,119.58500000000001,120.045,70.0,80.0
1024,120.185,120.48375,68.0,70.0
1025,120.185,120.49625,65.0,76.0
1026,120.485,120.85375,60.0,66.0
1027,120.185,120.86375,41.0,82.0
1028,120.185,120.86375,53.0,82.0
1029,120.785,120.88625,68.0,81.0
1030,120.785,120.90125,65.0,81.0
1031,120.785,120.90625,72.0,81.0
1032,121.385,121.70875000000001,65.0,77.0
1033,121.385,121.7175,61.0,69.0
1034,121.985,122.325,61.0,82.0
1035,121.685,122.33125,56.0,68.0
1036,121.385,122.3725,37.0,80.0
1037,121.385,122.3725,49.0,80.0
1038,122.285,122.4175,65.0,83.0
1039,122.58500000000001,122.84625,67.0,72.0
1040,122.58500000000001,122.8725,63.0,72.0
1041,123.185,123.29125,63.0,73.0
1042,123.185,123.38250000000001,67.0,76.0
1043,123.185,123.42625,70.0,76.0
1044,122.885,123.4325,58.0,65.0
1045,122.58500000000001,123.46625,39.0,82.0
1046,122.58500000000001,123.46625,51.0,82.0
1047,123.785,124.1875,63.0,76.0
1048,123.785,124.2,68.0,77.0
1049,123.785,124.3675,44.0,82.0
1050,123.785,124.3675,56.0,82.0
1051,124.08500000000001,124.385,60.0,66.0
1052,124.385,124.63250000000001,63.0,80.0
1053,124.685,124.815,34.0,81.0
1054,124.685,124.815,46.0,81.0
1055,124.385,124.98625,68.0,80.0
1056,125.285,125.47500000000001,60.0,81.0
1057,124.985,125.63000000000001,36.0,85.0
1058,124.985,125.63000000000001,48.0,85.0
1059,125.58500000000001,125.73125,60.0,80.0
1060,125.58500000000001,125.8925,64.0,82.0
1061,125.58500000000001,125.9675,67.0,81.0
1062,125.885,126.0625,60.0,83.0
1063,126.185,126.33500000000001,60.0,80.0
1064,126.185,126.54875,65.0,82.0
1065,126.485,126.60000000000001,60.0,72.0
1066,126.185,126.915,41.0,85.0
1067,126.185,126.915,53.0,85.0
1068,126.785,127.12375,60.0,81.0
1069,127.08500000000001,127.245,39.0,86.0
1070,127.08500000000001,127.245,51.0,86.0
1071,126.785,127.31,65.0,82.0
1072,126.785,127.3425,68.0,80.0
1073,127.385,127.70375,61.0,79.0
1074,127.385,127.72875,65.0,81.0
1075,127.985,128.12125,61.0,81.0
1076,127.685,128.40875,56.0,74.0
1077,127.385,128.42875,37.0,85.0
1078,127.385,128.42875,49.0,85.0
1079,127.985,128.53125,65.0,89.0
1080,127.985,128.54500000000002,68.0,84.0
1081,128.285,128.56375,61.0,72.0
1082,128.585,129.005,63.0,82.0
1083,128.585,129.0225,56.0,81.0
1084,129.185,129.2275,56.0,68.0
1085,128.885,129.33875,39.0,76.0
1086,128.885,129.33875,51.0,76.0
1087,128.585,129.3775,32.0,81.0
1088,128.585,129.3775,44.0,81.0
1089,129.185,129.72625,60.0,81.0
1090,129.485,129.74125,37.0,94.0
1091,129.485,129.74125,49.0,94.0
1092,129.185,129.75625,63.0,80.0
1093,129.185,129.76625,68.0,70.0
1094,129.785,130.21875,63.0,81.0
1095,129.785,130.2525,67.0,80.0
1096,130.085,130.51125,58.0,71.0
1097,130.385,130.57875,63.0,80.0
1098,129.785,130.80625,39.0,81.0
1099,129.785,130.80625,51.0,81.0
1100,130.685,130.86875,58.0,80.0
1101,130.985,131.33,60.0,76.0
1102,130.985,131.33625,63.0,80.0
1103,131.585,131.73,60.0,81.0
1104,131.585,131.7425,63.0,87.0
1105,131.585,131.845,67.0,85.0
1106,131.885,131.995,60.0,67.0
1107,131.285,132.00875,55.0,46.0
1108,130.985,132.05875,36.0,80.0
1109,130.985,132.05875,48.0,80.0
1110,132.185,132.6025,63.0,74.0
1111,132.185,132.60625,60.0,75.0
1112,132.785,132.89625,60.0,81.0
1113,132.485,132.935,55.0,59.0
1114,132.185,133.10625,36.0,80.0
1115,132.185,133.10625,48.0,80.0
1116,132.785,133.1375,63.0,91.0
1117,132.785,133.15,67.0,86.0
1118,133.085,133.24625,60.0,77.0
1119,133.385,133.6025,60.0,80.0
1120,133.385,133.7825,65.0,82.0
1121,133.985,134.1,60.0,81.0
1122,133.385,134.285,41.0,79.0
1123,133.385,134.285,53.0,79.0
1124,133.985,134.35,68.0,82.0
1125,133.985,134.425,65.0,87.0
1126,134.285,134.525,60.0,74.0
1127,134.285,134.585,46.0,80.0
1128,134.885,135.0125,60.0,74.0
1129,134.585,135.185,48.0,79.0
1130,135.185,135.36375,60.0,85.0
1131,135.485,135.7525,39.0,91.0
1132,135.485,135.7525,51.0,91.0
1133,135.185,135.7875,65.0,89.0
1134,135.785,135.7875,65.0,79.0
1135,135.185,135.815,68.0,83.0
1136,135.785,135.9775,60.0,75.0
1137,136.085,136.23625,60.0,68.0
1138,136.385,136.50375,60.0,81.0
1139,135.785,136.60375,41.0,86.0
1140,135.785,136.60375,53.0,86.0
1141,136.385,136.73625,65.0,89.0
1142,136.685,136.80125,60.0,75.0
1143,136.385,136.8075,68.0,82.0
1144,136.985,137.24125,65.0,78.0
1145,136.985,137.25375,68.0,74.0
1146,136.985,137.26875,61.0,71.0
1147,137.585,137.6975,61.0,82.0
1148,137.585,137.70125000000002,68.0,81.0
1149,137.285,137.7725,56.0,67.0
1150,136.985,137.78375,37.0,82.0
1151,136.985,137.78375,49.0,82.0
1152,138.185,138.405,63.0,74.0
1153,138.185,138.46625,67.0,76.0
1154,138.785,138.89625,63.0,71.0
1155,138.785,138.985,67.0,82.0
1156,138.185,139.1125,39.0,81.0
1157,138.185,139.1125,51.0,81.0
1158,138.485,139.18625,58.0,65.0
1159,139.085,139.22625,63.0,72.0
1160,138.785,139.245,70.0,80.0
1161,139.385,139.68375,68.0,70.0
1162,139.385,139.69625,65.0,76.0
1163,139.685,140.05375,60.0,66.0
1164,139.385,140.06375,41.0,82.0
1165,139.385,140.06375,53.0,82.0
1166,139.985,140.08625,68.0,81.0
1167,139.985,140.10125,65.0,81.0
1168,139.985,140.10625000000002,72.0,81.0
1169,140.585,140.90875,65.0,77.0
1170,140.585,140.9175,61.0,69.0
1171,141.185,141.525,61.0,82.0
1172,140.885,141.53125,56.0,68.0
1173,140.585,141.5725,37.0,80.0
1174,140.585,141.5725,49.0,80.0
1175,141.485,141.6175,65.0,83.0
1176,141.785,142.04625000000001,67.0,72.0
1177,141.785,142.0725,63.0,72.0
1178,142.385,142.49125,63.0,73.0
1179,142.385,142.5825,67.0,76.0
1180,142.385,142.62625,70.0,76.0
1181,142.085,142.6325,58.0,65.0
1182,141.785,142.66625,39.0,82.0
1183,141.785,142.66625,51.0,82.0
1184,142.985,143.38750000000002,63.0,76.0
1185,142.985,143.4,68.0,77.0
1186,142.985,143.5675,44.0,82.0
1187,142.985,143.5675,56.0,82.0
1188,143.285,143.585,60.0,66.0
1189,143.585,143.8325,63.0,80.0
1190,143.885,144.01500000000001,34.0,81.0
1191,143.885,144.01500000000001,46.0,81.0
1192,143.585,144.18625,68.0,80.0
1193,144.485,144.675,60.0,81.0
1194,144.185,144.83,36.0,85.0
1195,144.185,144.83,48.0,85.0
1196,144.785,144.93125,60.0,80.0
1197,144.785,145.0925,64.0,82.0
1198,144.785,145.1675,67.0,81.0
1199,145.085,145.26250000000002,60.0,83.0
1200,145.385,145.535,60.0,80.0
1201,145.385,145.74875,65.0,82.0
1202,145.685,145.8,60.0,72.0
1203,145.385,146.115,41.0,85.0
1204,145.385,146.115,53.0,85.0
1205,145.985,146.32375,60.0,81.0
1206,146.285,146.445,39.0,86.0
1207,146.285,146.445,51.0,86.0
1208,145.985,146.51,65.0,82.0
1209,145.985,146.5425,68.0,80.0
1210,146.585,146.90375,61.0,79.0
1211,146.585,146.92875,65.0,81.0
1212,147.185,147.32125,61.0,81.0
1213,146.885,147.60875000000001,56.0,74.0
1214,146.585,147.62875,37.0,85.0
1215,146.585,147.62875,49.0,85.0
1216,147.185,147.73125000000002,65.0,89.0
1217,147.185,147.745,68.0,84.0
1218,147.485,147.76375000000002,61.0,72.0
1219,147.785,148.205,63.0,82.0
1220,147.785,148.2225,56.0,81.0
1221,148.385,148.4275,56.0,68.0
1222,148.085,148.53875,39.0,76.0
1223,148.085,148.53875,51.0,76.0
1224,147.785,148.57750000000001,32.0,81.0
1225,147.785,148.57750000000001,44.0,81.0
1226,148.385,148.92625,60.0,81.0
1227,148.685,148.94125,37.0,94.0
1228,148.685,148.94125,49.0,94.0
1229,148.385,148.95625,63.0,80.0
1230,148.385,148.96625,68.0,70.0
1231,148.985,149.41875000000002,63.0,81.0
1232,148.985,149.45250000000001,67.0,80.0
1233,149.285,149.71125,58.0,71.0
1234,149.585,149.77875,63.0,80.0
1235,148.985,150.00625,39.0,81.0
1236,148.985,150.00625,51.0,81.0
1237,149.885,150.06875,58.0,80.0
1238,150.185,150.53,60.0,76.0
1239,150.185,150.53625,63.0,80.0
1240,150.785,150.93,60.0,81.0
1241,150.785,150.9425,63.0,87.0
1242,150.785,151.04500000000002,67.0,85.0
1243,151.085,151.195,60.0,67.0
1244,150.485,151.20875,55.0,46.0
1245,150.185,151.25875,36.0,80.0
1246,150.185,151.25875,48.0,80.0
1247,151.385,151.8025,63.0,74.0
1248,151.385,151.80625,60.0,75.0
1249,151.985,152.09625,60.0,81.0
1250,151.685,152.135,55.0,59.0
1251,151.385,152.30625,36.0,80.0
1252,151.385,152.30625,48.0,80.0
1253,151.985,152.3375,63.0,91.0
1254,151.985,152.35,67.0,86.0
1255,152.285,152.44625,60.0,77.0
1256,152.585,152.8025,60.0,80.0
1257,152.585,152.98250000000002,65.0,82.0
1258,153.185,153.3,60.0,81.0
1259,152.585,153.485,41.0,79.0
1260,152.585,153.485,53.0,79.0
1261,153.185,153.55,68.0,82.0
1262,153.185,153.625,65.0,87.0
1263,153.485,153.725,60.0,74.0
1264,153.485,153.785,46.0,80.0
1265,154.085,154.2125,60.0,74.0
1266,153.785,154.385,48.0,79.0
1267,154.385,154.56375,60.0,85.0
1268,154.685,154.95250000000001,39.0,91.0
1269,154.685,154.95250000000001,51.0,91.0
1270,154.385,154.9875,65.0,89.0
1271,154.985,154.9875,65.0,75.0
1272,154.385,155.01500000000001,68.0,83.0
1273,154.985,155.01500000000001,68.0,74.0
1274,154.985,155.18875,60.0,72.0
1275,155.285,155.38125,65.0,72.0
1276,155.285,155.3925,68.0,71.0
1277,155.285,155.395,60.0,68.0
1278,154.985,155.405,53.0,81.0
1279,154.985,155.52625,41.0,76.0
1280,155.585,155.695,60.0,72.0
1281,155.585,155.695,65.0,76.0
1282,155.585,155.71625,68.0,74.0
1283,155.885,155.97,65.0,69.0
1284,155.885,155.97125,60.0,67.0
1285,155.885,155.97125,60.0,80.0
1286,155.885,156.00125,68.0,72.0
1287,155.885,156.13125,48.0,83.0
1288,156.185,156.35750000000002,65.0,77.0
1289,156.185,156.37,61.0,74.0
1290,156.185,156.37,61.0,81.0
1291,156.185,156.3725,68.0,76.0
1292,156.485,156.615,61.0,68.0
1293,156.485,156.615,68.0,68.0
1294,156.485,156.61625,65.0,74.0
1295,156.185,156.63875000000002,49.0,82.0
1296,156.785,156.91375,65.0,79.0
1297,156.785,156.91625,61.0,75.0
1298,156.785,156.9175,68.0,79.0
1299,157.085,157.19,65.0,75.0
1300,157.085,157.20250000000001,68.0,73.0
1301,157.085,157.21625,61.0,70.0
1302,157.385,157.61,63.0,77.0
1303,157.385,157.6125,67.0,80.0
1304,157.685,157.8,67.0,70.0
1305,157.685,157.80625,63.0,69.0
1306,157.385,157.8525,51.0,82.0
1307,157.385,157.875,39.0,82.0
1308,157.985,158.105,63.0,75.0
1309,157.985,158.115,67.0,75.0
1310,158.285,158.4375,63.0,75.0
1311,158.285,158.44125,67.0,75.0
1312,158.285,158.51500000000001,39.0,81.0
1313,158.285,158.54125,51.0,75.0
1314,158.585,158.72625,65.0,76.0
1315,158.585,158.74625,60.0,74.0
1316,158.585,158.74875,68.0,74.0
1317,158.885,158.99625,65.0,69.0
1318,158.885,159.00125,68.0,69.0
1319,158.885,159.00875,60.0,67.0
1320,158.585,159.24125,53.0,80.0
1321,158.585,159.26625,41.0,81.0
1322,159.185,159.33125,65.0,83.0
1323,159.185,159.3475,60.0,81.0
1324,159.185,159.35625000000002,68.0,81.0
1325,159.485,159.63125,65.0,81.0
1326,159.485,159.64000000000001,60.0,80.0
1327,159.485,159.66625,68.0,78.0
1328,159.785,159.89125,65.0,75.0
1329,159.785,159.90625,61.0,74.0
1330,159.785,159.91,68.0,74.0
1331,159.785,160.16625,49.0,80.0
1332,160.085,160.17375,65.0,75.0
1333,159.785,160.1775,37.0,79.0
1334,160.085,160.18125,61.0,71.0
1335,160.085,160.185,68.0,72.0
1336,160.385,160.48625,65.0,76.0
1337,160.385,160.51,61.0,74.0
1338,160.385,160.51250000000002,68.0,74.0
1339,160.685,160.78125,61.0,72.0
1340,160.685,160.78125,65.0,76.0
1341,160.685,160.82875,68.0,74.0
1342,160.685,160.88,37.0,69.0
1343,160.685,160.90625,49.0,76.0
1344,160.985,161.225,63.0,75.0
1345,160.985,161.2375,67.0,79.0
1346,161.285,161.39000000000001,63.0,71.0
1347,161.285,161.41625,67.0,72.0
1348,160.985,161.4275,51.0,80.0
1349,160.985,161.47875,39.0,76.0
1350,161.585,161.74,63.0,81.0
1351,161.585,161.74625,67.0,84.0
1352,161.885,162.02125,63.0,70.0
1353,161.885,162.0325,67.0,77.0
1354,162.185,162.41625,63.0,72.0
1355,162.185,162.42625,68.0,74.0
1356,162.185,162.44,60.0,70.0
1357,162.485,162.56875,68.0,68.0
1358,162.485,162.58125,63.0,75.0
1359,162.185,162.5825,56.0,75.0
1360,162.485,162.595,60.0,67.0
1361,162.185,162.6125,44.0,75.0
1362,162.785,162.88125,63.0,70.0
1363,162.785,162.88625,60.0,69.0
1364,162.785,162.905,68.0,65.0
1365,163.085,163.16625,63.0,63.0
1366,163.085,163.185,60.0,65.0
1367,163.085,163.21625,68.0,69.0
1368,163.085,163.3,46.0,73.0
1369,163.085,163.3325,58.0,69.0
1370,163.385,163.605,60.0,75.0
1371,163.385,163.605,60.0,75.0
1372,163.385,163.60875000000001,64.0,78.0
1373,163.385,163.6175,67.0,78.0
1374,163.685,163.78,60.0,63.0
1375,163.685,163.79,64.0,69.0
1376,163.685,163.80125,67.0,68.0
1377,163.385,163.905,48.0,82.0
1378,163.985,164.0375,60.0,75.0
1379,163.985,164.10875000000001,64.0,73.0
1380,163.985,164.135,67.0,74.0
1381,164.285,164.40375,64.0,76.0
1382,164.285,164.43,60.0,76.0
1383,164.285,164.4425,67.0,75.0
1384,164.585,164.84125,65.0,65.0
1385,164.585,164.8525,60.0,73.0
1386,164.585,164.85375,68.0,56.0
1387,164.885,164.98250000000002,65.0,71.0
1388,164.885,164.98625,60.0,65.0
1389,164.885,165.0,68.0,70.0
1390,164.585,165.16125,53.0,71.0
1391,164.585,165.175,41.0,80.0
1392,165.185,165.35625000000002,60.0,73.0
1393,165.185,165.35750000000002,65.0,79.0
1394,165.185,165.37375,68.0,75.0
1395,165.485,165.5925,60.0,71.0
1396,165.485,165.59875,65.0,74.0
1397,165.485,165.6125,68.0,70.0
1398,165.485,165.68625,39.0,73.0
1399,165.485,165.735,51.0,75.0
1400,165.785,166.00375,65.0,77.0
1401,165.785,166.01625,68.0,75.0
1402,165.785,166.02,61.0,72.0
1403,166.085,166.18625,65.0,74.0
1404,166.085,166.19125,61.0,67.0
1405,166.085,166.20125000000002,68.0,69.0
1406,165.785,166.34,49.0,79.0
1407,165.785,166.34875,37.0,74.0
1408,166.385,166.8125,65.0,83.0
1409,166.385,166.835,61.0,80.0
1410,166.385,166.86875,68.0,81.0
1411,166.985,167.18,63.0,76.0
1412,166.985,167.1825,68.0,73.0
1413,166.985,167.215,72.0,80.0
1414,167.285,167.38,63.0,68.0
1415,167.285,167.4,68.0,72.0
1416,167.285,167.42125000000001,72.0,72.0
1417,166.985,167.5275,56.0,76.0
1418,166.985,167.54,44.0,81.0
1419,167.585,167.72125,63.0,80.0
1420,167.585,167.73250000000002,68.0,80.0
1421,167.585,167.7525,72.0,81.0
1422,167.885,168.025,68.0,75.0
1423,167.885,168.02875,72.0,78.0
1424,167.885,168.0375,63.0,75.0
1425,167.885,168.1,44.0,74.0
1426,167.885,168.19875,56.0,75.0
1427,168.185,168.32125,63.0,65.0
1428,168.185,168.33125,67.0,68.0
1429,168.485,168.60125,67.0,74.0
1430,168.485,168.60625000000002,63.0,72.0
1431,168.185,168.74,51.0,72.0
1432,168.185,168.74875,39.0,70.0
1433,168.785,169.2975,67.0,85.0
1434,168.785,169.32125,63.0,80.0
1435,169.385,169.52625,60.0,74.0
1436,169.385,169.52625,60.0,75.0
1437,169.385,169.52625,67.0,78.0
1438,169.385,169.5275,63.0,81.0
1439,169.685,169.76875,60.0,58.0
1440,169.685,169.78125,63.0,67.0
1441,169.685,169.78125,67.0,63.0
1442,169.985,170.0525,60.0,65.0
1443,169.385,170.07500000000002,48.0,77.0
1444,169.985,170.09625,67.0,68.0
1445,169.985,170.10125,63.0,73.0
1446,170.285,170.40125,60.0,61.0
1447,170.285,170.40375,63.0,68.0
1448,170.285,170.41875000000002,67.0,66.0
1449,170.285,170.5225,46.0,76.0
1450,170.285,170.54500000000002,58.0,73.0
1451,170.585,170.88875000000002,60.0,80.0
1452,170.585,170.88875000000002,60.0,81.0
1453,170.585,170.91375,48.0,84.0
1454,170.585,171.47875,67.0,82.0
1455,171.785,172.2725,65.0,81.0
1456,171.785,172.28625,60.0,77.0
1457,171.785,172.3225,53.0,81.0
1458,171.785,172.34875,41.0,79.0
1459,172.385,172.49625,65.0,78.0
1460,172.385,172.5175,68.0,74.0
1461,172.685,172.82125,68.0,67.0
1462,172.685,172.83,65.0,68.0
1463,172.685,172.84,60.0,64.0
1464,172.685,172.99,39.0,75.0
1465,172.685,173.005,51.0,78.0
1466,172.985,173.09625,65.0,66.0
1467,172.985,173.10125,60.0,66.0
1468,172.985,173.105,68.0,66.0
1469,173.285,173.38750000000002,65.0,70.0
1470,173.285,173.39000000000001,60.0,66.0
1471,173.285,173.39125,68.0,69.0
1472,172.985,173.745,53.0,80.0
1473,172.985,173.76625,41.0,80.0
1474,173.585,173.9975,65.0,85.0
1475,173.585,173.9975,68.0,80.0
1476,173.585,174.03875,60.0,80.0
1477,174.185,174.37125,65.0,75.0
1478,174.185,174.38875000000002,60.0,72.0
1479,174.185,174.39000000000001,68.0,74.0
1480,174.485,174.58125,65.0,72.0
1481,174.485,174.5925,68.0,71.0
1482,174.485,174.595,60.0,68.0
1483,174.185,174.605,53.0,81.0
1484,174.185,174.72625,41.0,76.0
1485,174.785,174.895,60.0,72.0
1486,174.785,174.895,65.0,76.0
1487,174.785,174.91625,68.0,74.0
1488,175.085,175.17000000000002,65.0,69.0
1489,175.085,175.17125000000001,60.0,67.0
1490,175.085,175.17125000000001,60.0,80.0
1491,175.085,175.20125000000002,68.0,72.0
1492,175.085,175.33125,48.0,83.0
1493,175.385,175.5575,65.0,77.0
1494,175.385,175.57,61.0,74.0
1495,175.385,175.57,61.0,81.0
1496,175.385,175.5725,68.0,76.0
1497,175.685,175.815,61.0,68.0
1498,175.685,175.815,68.0,68.0
1499,175.685,175.81625,65.0,74.0
1500,175.385,175.83875,49.0,82.0
1501,175.985,176.11375,65.0,79.0
1502,175.985,176.11625,61.0,75.0
1503,175.985,176.1175,68.0,79.0
1504,176.285,176.39000000000001,65.0,75.0
1505,176.285,176.4025,68.0,73.0
1506,176.285,176.41625,61.0,70.0
1507,176.585,176.81,63.0,77.0
1508,176.585,176.8125,67.0,80.0
1509,176.885,177.0,67.0,70.0
1510,176.885,177.00625,63.0,69.0
1511,176.585,177.0525,51.0,82.0
1512,176.585,177.07500000000002,39.0,82.0
1513,177.185,177.305,63.0,75.0
1514,177.185,177.315,67.0,75.0
1515,177.485,177.63750000000002,63.0,75.0
1516,177.485,177.64125,67.0,75.0
1517,177.485,177.715,39.0,81.0
1518,177.485,177.74125,51.0,75.0
1519,177.785,177.92625,65.0,76.0
1520,177.785,177.94625,60.0,74.0
1521,177.785,177.94875,68.0,74.0
1522,178.085,178.19625,65.0,69.0
1523,178.085,178.20125000000002,68.0,69.0
1524,178.085,178.20875,60.0,67.0
1525,177.785,178.44125,53.0,80.0
1526,177.785,178.46625,41.0,81.0
1527,178.385,178.53125,65.0,83.0
1528,178.385,178.5475,60.0,81.0
1529,178.385,178.55625,68.0,81.0
1530,178.685,178.83125,65.0,81.0
1531,178.685,178.84,60.0,80.0
1532,178.685,178.86625,68.0,78.0
1533,178.985,179.09125,65.0,75.0
1534,178.985,179.10625000000002,61.0,74.0
1535,178.985,179.11,68.0,74.0
1536,178.985,179.36625,49.0,80.0
1537,179.285,179.37375,65.0,75.0
1538,178.985,179.3775,37.0,79.0
1539,179.285,179.38125,61.0,71.0
1540,179.285,179.385,68.0,72.0
1541,179.585,179.68625,65.0,76.0
1542,179.585,179.71,61.0,74.0
1543,179.585,179.7125,68.0,74.0
1544,179.885,179.98125000000002,61.0,72.0
1545,179.885,179.98125000000002,65.0,76.0
1546,179.885,180.02875,68.0,74.0
1547,179.885,180.08,37.0,69.0
1548,179.885,180.10625000000002,49.0,76.0
1549,180.185,180.425,63.0,75.0
1550,180.185,180.4375,67.0,79.0
1551,180.485,180.59,63.0,71.0
1552,180.485,180.61625,67.0,72.0
1553,180.185,180.6275,51.0,80.0
1554,180.185,180.67875,39.0,76.0
1555,180.785,180.94,63.0,81.0
1556,180.785,180.94625,67.0,84.0
1557,181.085,181.22125,63.0,70.0
1558,181.085,181.23250000000002,67.0,77.0
1559,181.385,181.61625,63.0,72.0
1560,181.385,181.62625,68.0,74.0
1561,181.385,181.64000000000001,60.0,70.0
1562,181.685,181.76875,68.0,68.0
1563,181.685,181.78125,63.0,75.0
1564,181.385,181.7825,56.0,75.0
1565,181.685,181.79500000000002,60.0,67.0
1566,181.385,181.8125,44.0,75.0
1567,181.985,182.08125,63.0,70.0
1568,181.985,182.08625,60.0,69.0
1569,181.985,182.105,68.0,65.0
1570,182.285,182.36625,63.0,63.0
1571,182.285,182.385,60.0,65.0
1572,182.285,182.41625,68.0,69.0
1573,182.285,182.5,46.0,73.0
1574,182.285,182.5325,58.0,69.0
1575,182.585,182.805,60.0,75.0
1576,182.585,182.805,60.0,75.0
1577,182.585,182.80875,64.0,78.0
1578,182.585,182.8175,67.0,78.0
1579,182.885,182.98,60.0,63.0
1580,182.885,182.99,64.0,69.0
1581,182.885,183.00125,67.0,68.0
1582,182.585,183.105,48.0,82.0
1583,183.185,183.2375,60.0,75.0
1584,183.185,183.30875,64.0,73.0
1585,183.185,183.335,67.0,74.0
1586,183.485,183.60375,64.0,76.0
1587,183.485,183.63,60.0,76.0
1588,183.485,183.6425,67.0,75.0
1589,183.785,184.04125,65.0,65.0
1590,183.785,184.0525,60.0,73.0
1591,183.785,184.05375,68.0,56.0
1592,184.085,184.1825,65.0,71.0
1593,184.085,184.18625,60.0,65.0
1594,184.085,184.20000000000002,68.0,70.0
1595,183.785,184.36125,53.0,71.0
1596,183.785,184.375,41.0,80.0
1597,184.385,184.55625,60.0,73.0
1598,184.385,184.5575,65.0,79.0
1599,184.385,184.57375,68.0,75.0
1600,184.685,184.7925,60.0,71.0
1601,184.685,184.79875,65.0,74.0
1602,184.685,184.8125,68.0,70.0
1603,184.685,184.88625,39.0,73.0
1604,184.685,184.935,51.0,75.0
1605,184.985,185.20375,65.0,77.0
1606,184.985,185.21625,68.0,75.0
1607,184.985,185.22,61.0,72.0
1608,185.285,185.38625,65.0,74.0
1609,185.285,185.39125,61.0,67.0
1610,185.285,185.40125,68.0,69.0
1611,184.985,185.54,49.0,79.0
1612,184.985,185.54875,37.0,74.0
1613,185.585,186.01250000000002,65.0,83.0
1614,185.585,186.035,61.0,80.0
1615,185.585,186.06875,68.0,81.0
1616,186.185,186.38,63.0,76.0
1617,186.185,186.3825,68.0,73.0
1618,186.185,186.415,72.0,80.0
1619,186.485,186.58,63.0,68.0
1620,186.485,186.6,68.0,72.0
1621,186.485,186.62125,72.0,72.0
1622,186.185,186.7275,56.0,76.0
1623,186.185,186.74,44.0,81.0
1624,186.785,186.92125000000001,63.0,80.0
1625,186.785,186.9325,68.0,80.0
1626,186.785,186.95250000000001,72.0,81.0
1627,187.085,187.225,68.0,75.0
1628,187.085,187.22875,72.0,78.0
1629,187.085,187.2375,63.0,75.0
1630,187.085,187.3,44.0,74.0
1631,187.085,187.39875,56.0,75.0
1632,187.385,187.52125,63.0,65.0
1633,187.385,187.53125,67.0,68.0
1634,187.685,187.80125,67.0,74.0
1635,187.685,187.80625,63.0,72.0
1636,187.385,187.94,51.0,72.0
1637,187.385,187.94875,39.0,70.0
1638,187.985,188.4975,67.0,85.0
1639,187.985,188.52125,63.0,80.0
1640,188.585,188.72625,60.0,74.0
1641,188.585,188.72625,60.0,75.0
1642,188.585,188.72625,67.0,78.0
1643,188.585,188.7275,63.0,81.0
1644,188.885,188.96875,60.0,58.0
1645,188.885,188.98125000000002,63.0,67.0
1646,188.885,188.98125000000002,67.0,63.0
1647,189.185,189.2525,60.0,65.0
1648,188.585,189.275,48.0,77.0
1649,189.185,189.29625000000001,67.0,68.0
1650,189.185,189.30125,63.0,73.0
1651,189.485,189.60125,60.0,61.0
1652,189.485,189.60375,63.0,68.0
1653,189.485,189.61875,67.0,66.0
1654,189.485,189.7225,46.0,76.0
1655,189.485,189.745,58.0,73.0
1656,189.785,190.08875,60.0,80.0
1657,189.785,190.08875,60.0,81.0
1658,189.785,190.11375,48.0,84.0
1659,189.785,190.67875,67.0,82.0
1660,190.985,191.4725,65.0,81.0
1661,190.985,191.48625,60.0,77.0
1662,190.985,191.5225,53.0,81.0
1663,190.985,191.54875,41.0,79.0
1664,191.585,191.69625,65.0,78.0
1665,191.585,191.7175,68.0,74.0
1666,191.885,192.02125,68.0,67.0
1667,191.885,192.03,65.0,68.0
1668,191.885,192.04,60.0,64.0
1669,191.885,192.19,39.0,75.0
1670,191.885,192.205,51.0,78.0
1671,192.185,192.29625000000001,65.0,66.0
1672,192.185,192.30125,60.0,66.0
1673,192.185,192.305,68.0,66.0
1674,192.485,192.5875,65.0,70.0
1675,192.485,192.59,60.0,66.0
1676,192.485,192.59125,68.0,69.0
1677,192.185,192.945,53.0,80.0
1678,192.185,192.96625,41.0,80.0
1679,192.785,193.1975,65.0,85.0
1680,192.785,193.1975,68.0,80.0
1681,192.785,193.23875,60.0,80.0
1682,193.385,193.57750000000001,60.0,75.0
1683,193.385,193.76125000000002,65.0,79.0
1684,193.685,193.83625,60.0,68.0
1685,193.985,194.10375,60.0,81.0
1686,193.385,194.20375,41.0,86.0
1687,193.385,194.20375,53.0,86.0
1688,193.985,194.33625,65.0,89.0
1689,194.285,194.40125,60.0,75.0
1690,193.985,194.4075,68.0,82.0
1691,194.585,194.84125,65.0,78.0
1692,194.585,194.85375,68.0,74.0
1693,194.585,194.86875,61.0,71.0
1694,195.185,195.2975,61.0,82.0
1695,195.185,195.30125,68.0,81.0
1696,194.885,195.3725,56.0,67.0
1697,194.585,195.38375,37.0,82.0
1698,194.585,195.38375,49.0,82.0
1699,195.785,196.005,63.0,74.0
1700,195.785,196.06625,67.0,76.0
1701,196.385,196.49625,63.0,71.0
1702,196.385,196.585,67.0,82.0
1703,195.785,196.7125,39.0,81.0
1704,195.785,196.7125,51.0,81.0
1705,196.085,196.78625,58.0,65.0
1706,196.685,196.82625000000002,63.0,72.0
1707,196.385,196.845,70.0,80.0
1708,196.985,197.28375,68.0,70.0
1709,196.985,197.29625000000001,65.0,76.0
1710,197.285,197.65375,60.0,66.0
1711,196.985,197.66375,41.0,82.0
1712,196.985,197.66375,53.0,82.0
1713,197.585,197.68625,68.0,81.0
1714,197.585,197.70125000000002,65.0,81.0
1715,197.585,197.70625,72.0,81.0
1716,198.185,198.50875,65.0,77.0
1717,198.185,198.5175,61.0,69.0
1718,198.785,199.125,61.0,82.0
1719,198.485,199.13125,56.0,68.0
1720,198.185,199.1725,37.0,80.0
1721,198.185,199.1725,49.0,80.0
1722,199.085,199.2175,65.0,83.0
1723,199.385,199.64625,67.0,72.0
1724,199.385,199.6725,63.0,72.0
1725,199.985,200.09125,63.0,73.0
1726,199.985,200.1825,67.0,76.0
1727,199.985,200.22625,70.0,76.0
1728,199.685,200.23250000000002,58.0,65.0
1729,199.385,200.26625,39.0,82.0
1730,199.385,200.26625,51.0,82.0
1731,200.585,200.9875,63.0,76.0
1732,200.585,201.0,68.0,77.0
1733,200.585,201.16750000000002,44.0,82.0
1734,200.585,201.16750000000002,56.0,82.0
1735,200.885,201.185,60.0,66.0
1736,201.185,201.4325,63.0,80.0
1737,201.485,201.615,34.0,81.0
1738,201.485,201.615,46.0,81.0
1739,201.185,201.78625,68.0,80.0
1740,202.085,202.275,60.0,81.0
1741,201.785,202.43,36.0,85.0
1742,201.785,202.43,48.0,85.0
1743,202.385,202.53125,60.0,80.0
1744,202.385,202.6925,64.0,82.0
1745,202.385,202.7675,67.0,81.0
1746,202.685,202.8625,60.0,83.0
1747,202.985,203.135,60.0,80.0
1748,202.985,203.34875,65.0,82.0
1749,203.285,203.4,60.0,72.0
1750,202.985,203.715,41.0,85.0
1751,202.985,203.715,53.0,85.0
1752,203.585,203.92375,60.0,81.0
1753,203.885,204.04500000000002,39.0,86.0
1754,203.885,204.04500000000002,51.0,86.0
1755,203.585,204.11,65.0,82.0
1756,203.585,204.1425,68.0,80.0
1757,204.185,204.50375,61.0,79.0
1758,204.185,204.52875,65.0,81.0
1759,204.785,204.92125000000001,61.0,81.0
1760,204.485,205.20875,56.0,74.0
1761,204.185,205.22875,37.0,85.0
1762,204.185,205.22875,49.0,85.0
1763,204.785,205.33125,65.0,89.0
1764,204.785,205.345,68.0,84.0
1765,205.085,205.36375,61.0,72.0
1766,205.385,205.805,63.0,82.0
1767,205.385,205.8225,56.0,81.0
1768,205.985,206.0275,56.0,68.0
1769,205.685,206.13875000000002,39.0,76.0
1770,205.685,206.13875000000002,51.0,76.0
1771,205.385,206.1775,32.0,81.0
1772,205.385,206.1775,44.0,81.0
1773,205.985,206.52625,60.0,81.0
1774,206.285,206.54125,37.0,94.0
1775,206.285,206.54125,49.0,94.0
1776,205.985,206.55625,63.0,80.0
1777,205.985,206.56625,68.0,70.0
1778,206.585,207.01875,63.0,81.0
1779,206.585,207.0525,67.0,80.0
1780,206.885,207.31125,58.0,71.0
1781,207.185,207.37875,63.0,80.0
1782,206.585,207.60625000000002,39.0,81.0
1783,206.585,207.60625000000002,51.0,81.0
1784,207.485,207.66875000000002,58.0,80.0
1785,207.785,208.13,60.0,76.0
1786,207.785,208.13625000000002,63.0,80.0
1787,208.385,208.53,60.0,81.0
1788,208.385,208.54250000000002,63.0,87.0
1789,208.385,208.645,67.0,85.0
1790,208.685,208.79500000000002,60.0,67.0
1791,208.085,208.80875,55.0,46.0
1792,207.785,208.85875000000001,36.0,80.0
1793,207.785,208.85875000000001,48.0,80.0
1794,208.985,209.4025,63.0,74.0
1795,208.985,209.40625,60.0,75.0
1796,209.585,209.69625,60.0,81.0
1797,209.285,209.735,55.0,59.0
1798,208.985,209.90625,36.0,80.0
1799,208.985,209.90625,48.0,80.0
1800,209.585,209.9375,63.0,91.0
1801,209.585,209.95000000000002,67.0,86.0
1802,209.885,210.04625000000001,60.0,77.0
1803,210.185,210.4025,60.0,80.0
1804,210.185,210.5825,65.0,82.0
1805,210.785,210.9,60.0,81.0
1806,210.185,211.085,41.0,79.0
1807,210.185,211.085,53.0,79.0
1808,210.785,211.15,68.0,82.0
1809,210.785,211.225,65.0,87.0
1810,211.085,211.32500000000002,60.0,74.0
1811,211.085,211.385,46.0,80.0
1812,211.685,211.8125,60.0,74.0
1813,211.385,211.985,48.0,79.0
1814,211.985,212.16375,60.0,85.0
1815,212.285,212.5525,39.0,91.0
1816,212.285,212.5525,51.0,91.0
1817,211.985,212.5875,65.0,89.0
1818,212.585,212.5875,65.0,75.0
1819,211.985,212.615,68.0,83.0
1820,212.585,212.615,68.0,74.0
1821,212.585,212.78875,60.0,72.0
1822,212.885,212.98125000000002,65.0,72.0
1823,212.885,212.9925,68.0,71.0
1824,212.885,212.995,60.0,68.0
1825,212.585,213.005,53.0,81.0
1826,212.585,213.12625,41.0,76.0
1827,213.185,213.29500000000002,60.0,72.0
1828,213.185,213.29500000000002,65.0,76.0
1829,213.185,213.31625,68.0,74.0
1830,213.485,213.57,65.0,69.0
1831,213.485,213.57125,60.0,67.0
1832,213.485,213.57125,60.0,80.0
1833,213.485,213.60125,68.0,72.0
1834,213.485,213.73125000000002,48.0,83.0
1835,213.785,213.9575,65.0,77.0
1836,213.785,213.97,61.0,74.0
1837,213.785,213.97,61.0,81.0
1838,213.785,213.9725,68.0,76.0
1839,214.085,214.215,61.0,68.0
1840,214.085,214.215,68.0,68.0
1841,214.085,214.21625,65.0,74.0
1842,213.785,214.23875,49.0,82.0
1843,214.385,214.51375000000002,65.0,79.0
1844,214.385,214.51625,61.0,75.0
1845,214.385,214.5175,68.0,79.0
1846,214.685,214.79,65.0,75.0
1847,214.685,214.8025,68.0,73.0
1848,214.685,214.81625,61.0,70.0
1849,214.985,215.21,63.0,77.0
1850,214.985,215.2125,67.0,80.0
1851,215.285,215.4,67.0,70.0
1852,215.285,215.40625,63.0,69.0
1853,214.985,215.45250000000001,51.0,82.0
1854,214.985,215.475,39.0,82.0
1855,215.585,215.705,63.0,75.0
1856,215.585,215.715,67.0,75.0
1857,215.885,216.0375,63.0,75.0
1858,215.885,216.04125,67.0,75.0
1859,215.885,216.115,39.0,81.0
1860,215.885,216.14125,51.0,75.0
1861,216.185,216.32625000000002,65.0,76.0
1862,216.185,216.34625,60.0,74.0
1863,216.185,216.34875,68.0,74.0
1864,216.485,216.59625,65.0,69.0
1865,216.485,216.60125,68.0,69.0
1866,216.485,216.60875000000001,60.0,67.0
1867,216.185,216.84125,53.0,80.0
1868,216.185,216.86625,41.0,81.0
1869,216.785,216.93125,65.0,83.0
1870,216.785,216.9475,60.0,81.0
1871,216.785,216.95625,68.0,81.0
1872,217.085,217.23125000000002,65.0,81.0
1873,217.085,217.24,60.0,80.0
1874,217.085,217.26625,68.0,78.0
1875,217.385,217.49125,65.0,75.0
1876,217.385,217.50625,61.0,74.0
1877,217.385,217.51,68.0,74.0
1878,217.385,217.76625,49.0,80.0
1879,217.685,217.77375,65.0,75.0
1880,217.385,217.7775,37.0,79.0
1881,217.685,217.78125,61.0,71.0
1882,217.685,217.785,68.0,72.0
1883,217.985,218.08625,65.0,76.0
1884,217.985,218.11,61.0,74.0
1885,217.985,218.1125,68.0,74.0
1886,218.285,218.38125,61.0,72.0
1887,218.285,218.38125,65.0,76.0
1888,218.285,218.42875,68.0,74.0
1889,218.285,218.48000000000002,37.0,69.0
1890,218.285,218.50625,49.0,76.0
1891,218.585,218.82500000000002,63.0,75.0
1892,218.585,218.8375,67.0,79.0
1893,218.885,218.99,63.0,71.0
1894,218.885,219.01625,67.0,72.0
1895,218.585,219.0275,51.0,80.0
1896,218.585,219.07875,39.0,76.0
1897,219.185,219.34,63.0,81.0
1898,219.185,219.34625,67.0,84.0
1899,219.485,219.62125,63.0,70.0
1900,219.485,219.6325,67.0,77.0
1901,219.785,220.01625,63.0,72.0
1902,219.785,220.02625,68.0,74.0
1903,219.785,220.04,60.0,70.0
1904,220.085,220.16875000000002,68.0,68.0
1905,220.085,220.18125,63.0,75.0
1906,219.785,220.1825,56.0,75.0
1907,220.085,220.195,60.0,67.0
1908,219.785,220.2125,44.0,75.0
1909,220.385,220.48125000000002,63.0,70.0
1910,220.385,220.48625,60.0,69.0
1911,220.385,220.505,68.0,65.0
1912,220.685,220.76625,63.0,63.0
1913,220.685,220.785,60.0,65.0
1914,220.685,220.81625,68.0,69.0
1915,220.685,220.9,46.0,73.0
1916,220.685,220.9325,58.0,69.0
1917,220.985,221.205,60.0,75.0
1918,220.985,221.205,60.0,75.0
1919,220.985,221.20875,64.0,78.0
1920,220.985,221.2175,67.0,78.0
1921,221.285,221.38,60.0,63.0
1922,221.285,221.39000000000001,64.0,69.0
1923,221.285,221.40125,67.0,68.0
1924,220.985,221.505,48.0,82.0
1925,221.585,221.63750000000002,60.0,75.0
1926,221.585,221.70875,64.0,73.0
1927,221.585,221.735,67.0,74.0
1928,221.885,222.00375,64.0,76.0
1929,221.885,222.03,60.0,76.0
1930,221.885,222.04250000000002,67.0,75.0
1931,222.185,222.44125,65.0,65.0
1932,222.185,222.45250000000001,60.0,73.0
1933,222.185,222.45375,68.0,56.0
1934,222.485,222.5825,65.0,71.0
1935,222.485,222.58625,60.0,65.0
1936,222.485,222.6,68.0,70.0
1937,222.185,222.76125000000002,53.0,71.0
1938,222.185,222.775,41.0,80.0
1939,222.785,222.95625,60.0,73.0
1940,222.785,222.9575,65.0,79.0
1941,222.785,222.97375,68.0,75.0
1942,223.085,223.1925,60.0,71.0
1943,223.085,223.19875000000002,65.0,74.0
1944,223.085,223.2125,68.0,70.0
1945,223.085,223.28625,39.0,73.0
1946,223.085,223.335,51.0,75.0
1947,223.385,223.60375,65.0,77.0
1948,223.385,223.61625,68.0,75.0
1949,223.385,223.62,61.0,72.0
1950,223.685,223.78625,65.0,74.0
1951,223.685,223.79125,61.0,67.0
1952,223.685,223.80125,68.0,69.0
1953,223.385,223.94,49.0,79.0
1954,223.385,223.94875000000002,37.0,74.0
1955,223.985,224.4125,65.0,83.0
1956,223.985,224.435,61.0,80.0
1957,223.985,224.46875,68.0,81.0
1958,224.585,224.78,63.0,76.0
1959,224.585,224.7825,68.0,73.0
1960,224.585,224.815,72.0,80.0
1961,224.885,224.98000000000002,63.0,68.0
1962,224.885,225.0,68.0,72.0
1963,224.885,225.02125,72.0,72.0
1964,224.585,225.1275,56.0,76.0
1965,224.585,225.14000000000001,44.0,81.0
1966,225.185,225.32125,63.0,80.0
1967,225.185,225.3325,68.0,80.0
1968,225.185,225.3525,72.0,81.0
1969,225.485,225.625,68.0,75.0
1970,225.485,225.62875,72.0,78.0
1971,225.485,225.63750000000002,63.0,75.0
1972,225.485,225.70000000000002,44.0,74.0
1973,225.485,225.79875,56.0,75.0
1974,225.785,225.92125000000001,63.0,65.0
1975,225.785,225.93125,67.0,68.0
1976,226.085,226.20125000000002,67.0,74.0
1977,226.085,226.20625,63.0,72.0
1978,225.785,226.34,51.0,72.0
1979,225.785,226.34875,39.0,70.0
1980,226.385,226.8975,67.0,85.0
1981,226.385,226.92125000000001,63.0,80.0
1982,226.985,227.12625,60.0,74.0
1983,226.985,227.12625,60.0,75.0
1984,226.985,227.12625,67.0,78.0
1985,226.985,227.1275,63.0,81.0
1986,227.285,227.36875,60.0,58.0
1987,227.285,227.38125,63.0,67.0
1988,227.285,227.38125,67.0,63.0
1989,227.585,227.6525,60.0,65.0
1990,226.985,227.675,48.0,77.0
1991,227.585,227.69625,67.0,68.0
1992,227.585,227.70125000000002,63.0,73.0
1993,227.885,228.00125,60.0,61.0
1994,227.885,228.00375,63.0,68.0
1995,227.885,228.01875,67.0,66.0
1996,227.885,228.1225,46.0,76.0
1997,227.885,228.145,58.0,73.0
1998,228.185,228.48875,60.0,80.0
1999,228.185,228.48875,60.0,81.0
2000,228.185,228.51375000000002,48.0,84.0
2001,228.185,229.07875,67.0,82.0
2002,229.385,229.8725,65.0,81.0
2003,229.385,229.88625000000002,60.0,77.0
2004,229.385,229.9225,53.0,81.0
2005,229.385,229.94875000000002,41.0,79.0
2006,229.985,230.09625,65.0,78.0
2007,229.985,230.1175,68.0,74.0
2008,230.285,230.42125000000001,68.0,67.0
2009,230.285,230.43,65.0,68.0
2010,230.285,230.44,60.0,64.0
2011,230.285,230.59,39.0,75.0
2012,230.285,230.60500000000002,51.0,78.0
2013,230.585,230.69625,65.0,66.0
2014,230.585,230.70125000000002,60.0,66.0
2015,230.585,230.705,68.0,66.0
2016,230.885,230.9875,65.0,70.0
2017,230.885,230.99,60.0,66.0
2018,230.885,230.99125,68.0,69.0
2019,230.585,231.345,53.0,80.0
2020,230.585,231.36625,41.0,80.0
2021,231.185,231.5975,65.0,85.0
2022,231.185,231.5975,68.0,80.0
2023,231.185,231.63875000000002,60.0,80.0
2024,231.7575,231.92625,60.0,75.0
2025,231.7525,231.93125,63.0,78.0
2026,231.75125,231.95375,67.0,72.0
2027,232.0525,232.1325,63.0,74.0
2028,232.0625,232.13750000000002,60.0,68.0
2029,232.0575,232.1425,67.0,70.0
2030,232.34375,232.43625,60.0,84.0
2031,232.33625,232.47875,63.0,89.0
2032,232.335,232.60875000000001,67.0,86.0
2033,232.645,232.71375,63.0,60.0
2034,232.6225,232.79875,60.0,77.0
2035,231.74625,232.80875,48.0,82.0
2036,232.94625,233.09375,48.0,83.0
2037,232.93625,233.165,60.0,81.0
2038,232.93375,233.1975,63.0,82.0
2039,232.92875,233.19875000000002,67.0,81.0
2040,233.55125,233.9775,39.0,86.0
2041,233.55875,236.555,58.0,75.0
2042,233.56125,236.55875,63.0,78.0
2043,233.55625,236.58625,67.0,73.0
2044,236.585,236.58625,67.0,78.0
2045,236.585,236.72625,60.0,74.0
2046,236.585,236.72625,60.0,75.0
2047,236.585,236.7275,63.0,81.0
2048,236.885,236.96875,60.0,58.0
2049,236.885,236.98125000000002,63.0,67.0
2050,236.885,236.98125000000002,67.0,63.0
2051,237.185,237.2525,60.0,65.0
2052,236.585,237.275,48.0,77.0
2053,237.185,237.29625000000001,67.0,68.0
2054,237.185,237.30125,63.0,73.0
2055,237.485,237.60125,60.0,61.0
2056,237.485,237.60375,63.0,68.0
2057,237.485,237.61875,67.0,66.0
2058,237.485,237.7225,46.0,76.0
2059,237.485,237.745,58.0,73.0
2060,237.785,238.08875,60.0,80.0
2061,237.785,238.08875,60.0,81.0
2062,237.785,238.11375,48.0,84.0
2063,237.785,238.67875,67.0,82.0
2064,238.985,239.4725,65.0,81.0
2065,238.985,239.48625,60.0,77.0
2066,238.985,239.5225,53.0,81.0
2067,238.985,239.54875,41.0,79.0
2068,239.585,239.69625,65.0,78.0
2069,239.585,239.7175,68.0,74.0
2070,239.885,240.02125,68.0,67.0
2071,239.885,240.03,65.0,68.0
2072,239.885,240.04,60.0,64.0
2073,239.885,240.19,39.0,75.0
2074,239.885,240.205,51.0,78.0
2075,240.185,240.8975,65.0,85.0
2076,240.185,240.8975,68.0,80.0
2077,240.185,240.93875,60.0,80.0
2078,240.185,240.945,53.0,80.0
2079,240.185,240.96625,41.0,80.0
