,start,end,pitch,velocity
0,21.320143458333334,21.78505504166667,69.0,78.0
1,21.846458458333334,22.24887013541667,68.0,80.0
2,22.372773458333334,23.50325421875,66.0,78.0
3,23.688560958333337,23.85084141666667,68.0,75.0
4,23.951718458333335,24.23351628125,69.0,77.0
5,24.214875958333334,24.907857375000003,68.0,72.0
6,25.004348458333336,25.271891916666668,69.0,71.0
7,25.267505958333334,25.80478585416667,68.0,74.0
8,25.793820958333335,26.583293458333337,66.0,71.0
9,26.583293458333337,28.731316552083335,64.0,75.0
10,29.478025958333337,29.733508031250004,68.0,74.0
11,29.741183458333335,30.143595135416668,73.0,83.0
12,30.267498458333336,30.50872616666667,69.0,76.0
13,30.530655958333337,30.99556754166667,68.0,73.0
14,31.056970958333338,32.12604830208333,66.0,72.0
15,32.10960095833334,32.271881416666666,68.0,75.0
16,32.37275845833334,32.586573927083336,69.0,81.0
17,32.635915958333335,33.32780088541667,68.0,79.0
18,33.42538845833334,33.608502218750004,64.0,79.0
19,33.688545958333336,34.145782114583334,64.0,75.0
20,34.21486095833334,34.62823753125,71.0,80.0
21,34.741175958333336,36.21485795833334,73.0,82.0
22,37.89906595833334,38.05586396875,73.0,81.0
23,38.16222345833334,38.60191578125001,74.0,79.0
24,38.68853845833333,38.84314348958333,73.0,81.0
25,38.95169595833334,39.47910744791667,73.0,81.0
26,39.478010958333336,40.54160585416667,71.0,75.0
27,40.793798458333335,40.99884201041667,68.0,80.0
28,41.05695595833334,41.2565170625,69.0,67.0
29,41.32011345833334,41.79818291666667,71.0,83.0
30,41.846428458333335,42.00980540625,76.0,73.0
31,42.109585958333334,42.64796234375,76.0,80.0
32,42.63590095833334,43.42537345833334,71.0,84.0
33,43.42537345833334,44.214845958333335,69.0,81.0
34,44.47800345833334,44.93523961458334,69.0,85.0
35,45.00431845833334,45.4801949375,68.0,80.0
36,45.530633458333334,46.71264922916667,66.0,80.0
37,46.84642095833334,47.02953471875001,68.0,76.0
38,47.10957845833334,47.361771062500004,69.0,78.0
39,47.37273595833334,48.144664625000004,68.0,79.0
40,48.16220845833334,48.46593607291667,69.0,80.0
41,48.42536595833334,48.91001435416667,68.0,79.0
42,48.95168095833334,49.35957508333334,66.0,72.0
43,49.47799595833334,50.99882701041667,64.0,76.0
44,52.37272845833334,53.16220095833334,65.0,80.0
45,53.16220095833334,54.477988458333336,61.0,80.0
46,55.00430345833334,55.46921504166667,69.0,78.0
47,55.530618458333336,55.93303013541667,68.0,80.0
48,56.05693345833334,57.18741421875001,66.0,78.0
49,57.37272095833334,57.535001416666674,68.0,75.0
50,57.63587845833334,57.91767628125,69.0,77.0
51,57.899035958333336,58.592017375000005,68.0,72.0
52,58.68850845833334,58.956051916666674,69.0,71.0
53,58.95166595833334,59.48894585416667,68.0,74.0
54,59.47798095833334,60.267453458333335,66.0,71.0
55,60.267453458333335,62.41547655208334,64.0,75.0
56,63.16218595833334,63.41766803125,68.0,74.0
57,63.42534345833334,63.82775513541667,73.0,83.0
58,63.95165845833334,64.19288616666667,69.0,76.0
59,64.21481595833333,64.67972754166668,68.0,73.0
60,64.74113095833334,65.81020830208334,66.0,72.0
61,65.79376095833334,65.95604141666668,68.0,75.0
62,66.05691845833334,66.27073392708334,69.0,81.0
63,66.32007595833333,67.01196088541667,68.0,79.0
64,67.10954845833334,67.29266221875001,76.0,79.0
65,67.37270595833334,67.82994211458335,76.0,75.0
66,67.89902095833334,68.31239753125,71.0,80.0
67,68.42533595833333,68.95165095833335,74.0,82.0
68,68.95165095833335,70.26743845833334,73.0,80.0
69,71.58322595833334,71.84638345833334,73.0,81.0
70,71.84638345833334,72.28607578125,78.0,79.0
71,72.37269845833335,72.52730348958335,73.0,81.0
72,72.63585595833334,73.16326744791667,73.0,81.0
73,73.16217095833333,74.22576585416667,71.0,75.0
74,74.47795845833333,74.68300201041667,68.0,80.0
75,74.74111595833334,74.9406770625,69.0,67.0
76,75.00427345833334,75.48234291666667,71.0,83.0
77,75.53058845833334,75.69396540625,80.0,73.0
78,75.79374595833335,76.33212234375,80.0,80.0
79,76.32006095833334,77.10953345833335,71.0,84.0
80,77.10953345833335,77.89900595833333,69.0,81.0
81,78.16216345833334,78.61939961458334,69.0,85.0
82,78.68847845833334,79.16435493750001,68.0,80.0
83,79.21479345833335,80.39680922916668,66.0,80.0
84,80.53058095833335,80.71369471875,68.0,76.0
85,80.79373845833334,81.0459310625,69.0,78.0
86,81.05689595833334,81.82882462500001,68.0,79.0
87,81.84636845833334,82.10952595833334,66.0,80.0
88,82.10952595833334,82.59417435416667,66.0,79.0
89,82.63584095833335,83.04373508333335,64.0,72.0
90,83.16215595833334,84.68298701041667,66.0,76.0
91,86.67139557083333,87.14067774166668,69.0,80.0
92,87.26722850416667,87.80645158333334,71.0,82.0
93,87.85018673958334,89.65820362083333,73.0,88.0
94,89.96851017291667,90.37092185,73.0,86.0
95,90.49482517291668,90.65710563125,69.0,81.0
96,90.75798267291667,91.24701702708334,73.0,83.0
97,91.28429767291668,91.67684094375001,76.0,82.0
98,91.81061267291668,92.33583118333334,76.0,82.0
99,92.33692767291667,93.74372380833334,71.0,80.0
100,94.17903017291667,94.66258207916667,76.0,81.0
101,94.70534517291668,94.88297648541668,71.0,79.0
102,94.96850267291667,95.36543190208334,71.0,81.0
103,95.49481767291667,95.89393988125,76.0,81.0
104,96.02113267291668,97.44547264166667,74.0,81.0
105,98.38955017291667,98.82814600625001,74.0,80.0
106,98.91586517291667,99.09897893333334,73.0,81.0
107,99.17902267291667,99.65489915208335,71.0,80.0
108,99.70533767291667,100.26125789166667,69.0,84.0
109,100.49481017291667,100.9235376,74.0,84.0
110,101.02112517291667,101.17463371458334,76.0,80.0
111,101.28428267291667,101.70423818333335,76.0,78.0
112,101.81059767291667,102.21410583958334,69.0,79.0
113,102.33691267291667,102.81717511041667,73.0,85.0
114,102.86322767291668,103.53647227708333,71.0,79.0
115,103.65270017291667,104.07265568333334,69.0,81.0
116,104.17901517291668,104.59019876666667,71.0,79.0
117,104.70533017291667,106.02769661041667,73.0,83.0
118,106.81059017291668,107.19984397500001,73.0,84.0
119,107.33690517291667,107.50576456875001,69.0,80.0
120,107.60006267291668,107.98602700625001,73.0,86.0
121,108.12637767291668,108.52878935000001,78.0,79.0
122,108.65269267291667,109.17900767291667,76.0,80.0
123,109.17900767291667,110.49479517291667,71.0,65.0
124,111.02111017291668,111.49150420416667,76.0,82.0
125,111.54742517291668,111.69435477708333,71.0,80.0
126,111.81058267291667,112.20860839166667,71.0,81.0
127,112.33689767291668,112.68777433958334,76.0,82.0
128,112.86321267291667,114.36978936041668,74.0,83.0
129,115.23163017291668,115.65487515208335,74.0,80.0
130,115.75794517291668,115.93447999583334,73.0,86.0
131,116.02110267291667,116.41364594375001,71.0,81.0
132,116.54741767291668,117.16474130833333,69.0,81.0
133,117.33689017291667,117.74588078750001,66.0,79.0
134,117.86320517291668,118.01890669375001,68.0,77.0
135,118.12636267291667,118.55399361041668,69.0,79.0
136,118.65267767291667,119.08359807916668,74.0,86.0
137,119.17899267291668,119.58798328750001,73.0,79.0
138,119.70530767291667,120.45421005833335,71.0,80.0
139,120.49478017291668,120.7195605375,69.0,80.0
140,120.75793767291668,121.50464707916667,68.0,79.0
141,121.54741017291667,123.74038933958334,66.0,79.0
142,124.70530017291668,124.99367693333335,69.0,85.0
143,124.96845767291668,125.29082561041668,71.0,79.0
144,125.23161517291668,125.52986033958334,69.0,81.0
145,125.49477267291667,127.92130412083334,68.0,75.0
146,128.91582017291668,129.19871448541667,68.0,78.0
147,129.1789776729167,129.49915263125,69.0,75.0
148,129.44213517291666,129.71187161041667,68.0,78.0
149,129.70529267291667,132.74256881875002,66.0,73.0
150,133.12634017291668,133.41362044375,66.0,79.0
151,133.38949767291666,133.68006741250002,68.0,74.0
152,133.65265517291667,133.936645975,69.0,79.0
153,133.91581267291667,137.2195357875,68.0,74.0
154,139.44212017291667,139.90703175625,69.0,78.0
155,139.96843517291668,140.37084685000002,68.0,80.0
156,140.49475017291667,141.62523093333334,66.0,78.0
157,141.81053767291667,141.97281813125,68.0,75.0
158,142.07369517291667,142.35549299583334,69.0,77.0
159,142.33685267291668,143.02983408958335,68.0,72.0
160,143.12632517291667,143.39386863125,69.0,71.0
161,143.38948267291667,143.92676256875,68.0,74.0
162,143.91579767291668,144.70527017291667,66.0,71.0
163,144.70527017291667,146.85329326666667,64.0,75.0
164,147.60000267291667,147.85548474583334,68.0,74.0
165,147.86316017291668,148.26557185000001,73.0,83.0
166,148.38947517291666,148.63070288125002,69.0,76.0
167,148.6526326729167,149.11754425625003,68.0,73.0
168,149.17894767291668,150.24802501666667,66.0,72.0
169,150.23157767291667,150.39385813125,68.0,75.0
170,150.49473517291668,150.70855064166668,69.0,81.0
171,150.75789267291668,151.4497776,68.0,79.0
172,151.54736517291667,151.73047893333336,76.0,79.0
173,151.81052267291668,152.26775882916667,76.0,75.0
174,152.33683767291666,152.75021424583335,71.0,80.0
175,152.86315267291667,153.38946767291668,74.0,82.0
176,153.38946767291668,154.70525517291668,73.0,80.0
177,156.02104267291668,156.28420017291668,73.0,81.0
178,156.28420017291668,156.72389249583335,78.0,79.0
179,156.81051517291667,156.96512020416668,73.0,81.0
180,157.07367267291667,157.6010841625,73.0,81.0
181,157.59998767291668,158.66358256875003,71.0,75.0
182,158.91577517291668,159.120818725,68.0,80.0
183,159.1789326729167,159.37849377708335,69.0,67.0
184,159.44209017291666,159.92015963125002,71.0,83.0
185,159.96840517291668,160.13178212083335,80.0,73.0
186,160.23156267291668,160.76993905833336,80.0,80.0
187,160.75787767291666,161.54735017291668,71.0,84.0
188,161.54735017291668,162.3368226729167,69.0,81.0
189,162.59998017291667,163.0572163291667,69.0,85.0
190,163.12629517291668,163.60217165208334,68.0,80.0
191,163.6526101729167,164.83462594375,66.0,80.0
192,164.9683976729167,165.15151143333333,68.0,76.0
193,165.23155517291667,165.48374777708335,69.0,78.0
194,165.49471267291668,166.26664133958334,68.0,79.0
195,166.2841851729167,166.54734267291667,66.0,80.0
196,166.54734267291667,167.03199106875002,66.0,79.0
197,167.07365767291668,167.48155179791667,64.0,72.0
198,167.5999726729167,169.12080372500003,66.0,76.0
199,171.02102017291668,171.4354932354167,69.0,80.0
200,171.5473351729167,172.03308005833333,71.0,82.0
201,172.0736501729167,173.86860362083334,73.0,88.0
202,174.1789101729167,174.58132185,73.0,86.0
203,174.7052251729167,174.86750563125003,69.0,81.0
204,174.96838267291668,175.45741702708335,73.0,83.0
205,175.4946976729167,175.88724094375002,76.0,82.0
206,176.0210126729167,176.54623118333336,76.0,82.0
207,176.54732767291668,177.95412380833335,71.0,80.0
208,178.38943017291666,178.87298207916666,76.0,81.0
209,178.91574517291667,179.09337648541668,71.0,79.0
210,179.17890267291668,179.57583190208334,71.0,81.0
211,179.70521767291666,180.10433988125,76.0,81.0
212,180.23153267291667,181.6558726416667,74.0,81.0
213,182.5999501729167,183.03854600625002,74.0,80.0
214,183.12626517291667,183.30937893333333,73.0,81.0
215,183.38942267291668,183.86529915208337,71.0,80.0
216,183.9157376729167,184.47165789166667,69.0,84.0
217,184.70521017291668,185.13393760000002,74.0,84.0
218,185.2315251729167,185.38503371458336,76.0,80.0
219,185.49468267291667,185.91463818333335,76.0,78.0
220,186.02099767291668,186.42450583958333,69.0,79.0
221,186.5473126729167,187.02757511041668,73.0,85.0
222,187.0736276729167,187.74687227708336,71.0,79.0
223,187.8631001729167,188.28305568333334,69.0,81.0
224,188.3894151729167,188.80059876666667,71.0,79.0
225,188.91573017291668,190.23809661041668,73.0,83.0
226,191.0209901729167,191.41024397500001,73.0,84.0
227,191.54730517291668,191.71616456875,69.0,80.0
228,191.81046267291669,192.19642700625002,73.0,86.0
229,192.3367776729167,192.73918935,78.0,79.0
230,192.86309267291668,193.38940767291666,76.0,80.0
231,193.38940767291666,194.7051951729167,71.0,65.0
232,195.23151017291667,195.70190420416668,76.0,82.0
233,195.75782517291668,195.90475477708335,71.0,80.0
234,196.0209826729167,196.4190083916667,71.0,81.0
235,196.54729767291667,196.89817433958336,76.0,82.0
236,197.07361267291668,198.58018936041668,74.0,83.0
237,199.4420301729167,199.86527515208334,74.0,80.0
238,199.96834517291668,200.14487999583335,73.0,86.0
239,200.2315026729167,200.62404594375002,71.0,81.0
240,200.7578176729167,201.37514130833335,69.0,81.0
241,201.5472901729167,201.95628078750002,66.0,79.0
242,202.0736051729167,202.22930669375,68.0,77.0
243,202.33676267291668,202.76439361041668,69.0,79.0
244,202.8630776729167,203.29399807916667,74.0,86.0
245,203.3893926729167,203.79838328750003,73.0,79.0
246,203.91570767291668,204.66461005833335,71.0,80.0
247,204.7051801729167,204.92996053750002,69.0,80.0
248,204.96833767291668,205.71504707916668,68.0,79.0
249,205.75781017291666,207.95078933958337,66.0,79.0
250,208.91570017291667,209.20407693333334,69.0,85.0
251,209.17885767291668,209.50122561041667,71.0,79.0
252,209.44201517291668,209.74026033958336,69.0,81.0
253,209.7051726729167,212.13170412083335,68.0,75.0
254,213.1262201729167,213.4091144854167,68.0,78.0
255,213.38937767291668,213.70955263125,69.0,75.0
256,213.65253517291669,213.9222716104167,68.0,78.0
257,213.9156926729167,216.95296881875,66.0,73.0
258,217.33674017291668,217.62402044375003,66.0,79.0
259,217.59989767291668,217.89046741250002,68.0,74.0
260,217.8630551729167,218.14704597500003,69.0,79.0
261,218.1262126729167,221.42993578750003,68.0,74.0
262,221.54726017291668,221.9617332354167,69.0,80.0
263,222.0735751729167,222.55932005833336,71.0,82.0
264,222.59989017291667,224.39484362083334,73.0,88.0
265,224.7051501729167,225.10756185000002,73.0,86.0
266,225.23146517291667,225.39374563125003,69.0,81.0
267,225.49462267291668,225.98365702708335,73.0,83.0
268,226.0209376729167,226.41348094375002,76.0,82.0
269,226.5472526729167,227.07247118333336,76.0,82.0
270,227.07356767291668,228.48036380833335,71.0,80.0
271,228.9156701729167,229.3992220791667,76.0,81.0
272,229.44198517291667,229.61961648541669,71.0,79.0
273,229.70514267291668,230.10207190208334,71.0,81.0
274,230.2314576729167,230.63057988125001,76.0,81.0
275,230.75777267291667,232.1821126416667,74.0,81.0
276,233.1261901729167,233.56478600625002,74.0,80.0
277,233.65250517291668,233.83561893333336,73.0,81.0
278,233.91566267291668,234.39153915208334,71.0,80.0
279,234.4419776729167,234.9978978916667,69.0,84.0
280,235.23145017291668,235.66017760000003,74.0,84.0
281,235.7577651729167,235.91127371458336,76.0,80.0
282,236.0209226729167,236.44087818333335,76.0,78.0
283,236.54723767291668,236.95074583958336,69.0,79.0
284,237.0735526729167,237.55381511041668,73.0,85.0
285,237.59986767291667,238.27311227708336,71.0,79.0
286,238.3893401729167,238.80929568333335,69.0,81.0
287,238.91565517291667,239.3268387666667,71.0,79.0
288,239.44197017291668,240.76433661041668,73.0,83.0
289,241.5472301729167,241.93648397500002,73.0,84.0
290,242.07354517291668,242.24240456875003,69.0,80.0
291,242.3367026729167,242.72266700625002,73.0,86.0
292,242.8630176729167,243.26542935000003,78.0,79.0
293,243.38933267291668,243.9156476729167,76.0,80.0
294,243.9156476729167,245.2314351729167,71.0,65.0
295,245.75775017291667,246.22814420416668,76.0,82.0
296,246.28406517291668,246.43099477708336,71.0,80.0
297,246.5472226729167,246.9452483916667,71.0,81.0
298,247.0735376729167,247.42441433958336,76.0,82.0
299,247.59985267291668,249.10642936041668,74.0,83.0
300,249.96827017291668,250.39151515208334,74.0,80.0
301,250.4945851729167,250.67111999583335,73.0,86.0
302,250.7577426729167,251.15028594375002,71.0,81.0
303,251.28405767291667,251.90138130833336,69.0,81.0
304,252.0735301729167,252.48252078750002,66.0,79.0
305,252.59984517291667,252.75554669375003,68.0,77.0
306,252.86300267291668,253.29063361041668,69.0,79.0
307,253.3893176729167,253.8202380791667,74.0,86.0
308,253.9156326729167,254.32462328750003,73.0,79.0
309,254.44194767291668,255.19085005833335,71.0,80.0
310,258.9156251729167,259.80487822500004,69.0,83.0
311,259.76430811041666,260.64807871458333,68.0,80.0
312,260.62724541250003,263.63272336041666,66.0,78.0
313,263.6360128291667,263.9035562875,69.0,78.0
314,263.88710894375004,264.1809681520833,71.0,78.0
315,264.16013485,264.42658181875004,69.0,80.0
316,264.42658181875004,267.58118235000006,68.0,75.0
317,267.85749772500003,268.09762894375,68.0,81.0
318,268.0822780895834,268.3640759125,69.0,68.0
319,268.3421461208334,268.59872468333333,68.0,74.0
320,268.6129790479167,271.4441151520833,66.0,74.0
321,272.0175792041667,272.30485947500006,66.0,80.0
322,272.27964021458337,272.56582399583334,68.0,77.0
323,272.53512228750003,272.80485872500003,69.0,72.0
324,272.80266574583334,276.4353357354167,68.0,79.0
