,start,end,pitch,velocity
0,26.755323791666665,26.93714195833333,62.0,79.0
1,27.028051041666664,27.18941466458333,62.0,66.0
2,27.300778291666667,27.484869185416667,62.0,67.0
3,27.5812425,27.88443405,62.0,85.0
4,27.900391499999998,28.166348999999997,62.0,95.0
5,28.219540499999997,28.450923524999997,61.0,92.0
6,28.538689499999997,28.690285274999997,59.0,71.0
7,28.857838499999996,30.203583449999996,57.0,61.0
8,30.134434499999998,30.264753674999998,62.0,76.0
9,30.453583499999997,30.629115449999997,62.0,88.0
10,30.772732499999996,30.903051674999997,61.0,107.0
11,31.0918815,31.349860274999998,59.0,88.0
12,31.4110305,31.807307175,57.0,85.0
13,31.7301795,31.895073149999998,62.0,92.0
14,32.0493285,32.211562574999995,62.0,81.0
15,32.3684775,32.52273285,62.0,75.0
16,32.6876265,32.908371224999996,62.0,90.0
17,33.006775499999996,33.206243625,62.0,81.0
18,33.3259245,33.557307525,64.0,77.0
19,33.645073499999995,33.775392675,66.0,96.0
20,33.9642225,35.82060585,66.0,90.0
21,37.1557125,37.344542325,66.0,76.0
22,37.474861499999996,37.676989199999994,66.0,82.0
23,37.7940105,38.025393525,67.0,83.0
24,38.113159499999995,38.27805315,66.0,99.0
25,38.4323085,38.573265975,62.0,79.0
26,38.7514575,39.466883175,64.0,78.0
27,39.708904499999996,39.87379815,64.0,78.0
28,40.0280535,40.166351399999996,64.0,83.0
29,40.347202499999995,40.482840825,66.0,99.0
30,40.6663515,40.919011125,64.0,92.0
31,40.9855005,41.091883499999994,62.0,78.0
32,41.3046495,41.913692174999994,62.0,82.0
33,42.2620965,42.4535859,67.0,86.0
34,42.581245499999994,42.863160449999995,67.0,77.0
35,42.9003945,43.089224324999996,69.0,71.0
36,43.2195435,43.504118025,66.0,93.0
37,43.538692499999996,43.735501049999996,62.0,75.0
38,43.8578415,44.0599692,66.0,96.0
39,44.4961395,46.84454422499999,64.0,78.0
40,47.049331499999994,47.2301826,62.0,83.0
41,47.3684805,47.530714575,62.0,85.0
42,47.6876295,47.844544424999995,62.0,78.0
43,48.006778499999996,48.142416825,62.0,81.0
44,48.3259275,48.477523274999996,62.0,92.0
45,48.6450765,48.794012699999996,61.0,99.0
46,48.9642255,49.0918851,59.0,79.0
47,49.283374499999994,50.53337474999999,57.0,85.0
48,50.5599705,50.695608824999994,62.0,86.0
49,50.8791195,51.099864225,62.0,93.0
50,51.1982685,51.38975789999999,61.0,95.0
51,51.51741749999999,51.647736675,59.0,79.0
52,51.836566499999996,52.094545275,57.0,89.0
53,52.1557155,52.291353825,62.0,96.0
54,52.474864499999995,52.599864525,62.0,92.0
55,52.7940135,52.91635395,62.0,93.0
56,53.1131625,53.248800825,62.0,88.0
57,53.4323115,53.62912005,62.0,99.0
58,53.75146049999999,54.04401375,64.0,92.0
59,54.070609499999996,54.22220527499999,66.0,93.0
60,54.3897585,56.317950374999995,66.0,89.0
61,57.5812485,57.743482575,66.0,100.0
62,57.9003975,58.0918869,66.0,96.0
63,58.21954649999999,58.48018485,67.0,96.0
64,58.538695499999996,58.76741894999999,66.0,107.0
65,58.8578445,59.08390837499999,62.0,92.0
66,59.176993499999995,59.8152915,64.0,90.0
67,60.1344405,60.323270324999996,64.0,95.0
68,60.4535895,60.626461875,64.0,92.0
69,60.772738499999996,61.083908775,66.0,112.0
70,61.0918875,61.371142875,64.0,96.0
71,61.411036499999994,61.6450791,62.0,89.0
72,61.7301855,62.301994125,62.0,99.0
73,62.6876325,62.823270824999994,67.0,100.0
74,63.006781499999995,63.169015574999996,67.0,83.0
75,63.3259305,63.461568825,66.0,99.0
76,63.645079499999994,63.897739124999994,64.0,90.0
77,63.9642285,64.11848384999999,62.0,95.0
78,64.2833775,64.429654125,61.0,95.0
79,64.6025265,65.259441525,64.0,95.0
80,65.2408245,66.759441825,62.0,88.0
81,67.17197141666666,67.52613794166666,61.0,100.0
82,67.58863791666666,67.93933222083332,59.0,82.0
83,68.00530441666666,68.44974868333333,61.0,95.0
84,68.42197091666667,68.64766527083333,62.0,99.0
85,68.8223845,69.059086675,69.0,107.0
86,69.14153350000001,69.692065525,69.0,127.0
87,70.0989805,70.404831625,61.0,127.0
88,70.4181295,70.74259765000001,59.0,100.0
89,70.7372785,71.005895575,61.0,112.0
90,71.0564275,71.2479169,62.0,100.0
91,71.3755765,71.60429995,69.0,79.0
92,71.6947255,72.0989809,69.0,127.0
93,72.0138745,72.3755767,62.0,92.0
94,72.3330235,72.692066125,64.0,89.0
95,72.6521725,73.42344925,62.0,88.0
96,73.60961950000001,73.750576975,59.0,102.0
97,73.9287685,74.05110895,59.0,90.0
98,74.2479175,74.51653457500001,59.0,122.0
99,74.5670665,74.70004525,57.0,90.0
100,74.8862155,75.13621555,57.0,107.0
101,75.2053645,75.473981575,55.0,85.0
102,75.5245135,76.13621575,57.0,112.0
103,76.1628115,76.383556225,62.0,107.0
104,76.4819605,76.846322275,64.0,102.0
105,77.4394075,77.601641575,66.0,112.0
106,77.7585565,78.5670673,66.0,127.0
107,78.7160035,79.0245142,59.0,92.0
108,79.0351525,79.351641925,61.0,96.0
109,79.3543015,79.633556875,62.0,96.0
110,79.6734505,79.85962075,69.0,99.0
111,79.9925995,80.65749325,69.0,122.0
112,81.2691955,81.56174875,59.0,96.0
113,81.5883445,81.8117488,61.0,122.0
114,81.9074935,82.165472275,62.0,122.0
115,82.2266425,82.45536595,69.0,97.0
116,82.5457915,82.8543022,69.0,112.0
117,82.8649405,83.1628129,62.0,95.0
118,83.1840895,83.33302570000001,66.0,127.0
119,83.50323850000001,83.662813,66.0,107.0
120,83.8223875,84.00057902500001,66.0,112.0
121,84.1415365,84.3223876,66.0,127.0
122,84.4606855,84.726643,66.0,117.0
123,84.77983449999999,84.99791965,64.0,97.0
124,85.0989835,85.37026015000001,64.0,90.0
125,85.4181325,85.750579375,66.0,112.0
126,85.7372815,87.181430725,67.0,100.0
127,87.3330265,87.559090375,66.0,99.0
128,87.6521755,87.97132450000001,66.0,107.0
129,87.97132450000001,89.51919715,64.0,95.0
130,90.54485437500001,90.96029534375,66.0,117.0
131,90.98603062500001,91.65147146875,66.0,127.0
132,91.86838312500001,92.25996617500002,71.0,122.0
133,92.28922150000001,92.65624285000001,66.0,127.0
134,93.24666850000001,93.50730685000002,64.0,127.0
135,93.56581750000001,93.77592392500001,62.0,99.0
136,93.88496650000002,94.33975382500002,61.0,127.0
137,94.52326450000001,94.65358367500001,61.0,122.0
138,94.84241350000002,95.37166892500001,62.0,117.0
139,95.48071150000001,95.99666905000001,64.0,112.0
140,96.11900950000002,96.28922230000002,64.0,79.0
141,96.43815850000001,96.95411605000001,64.0,117.0
142,97.0764565,97.37698847500002,69.0,112.0
143,97.39560550000002,98.11103117500001,64.0,117.0
144,98.35305250000002,98.59773340000001,62.0,112.0
145,98.67220150000001,98.92220155000001,61.0,112.0
146,98.99135050000001,99.50730805000002,64.0,117.0
147,99.62964850000002,99.84507407500001,62.0,99.0
148,99.94879750000001,100.95411685000002,62.0,100.0
149,101.22539350000001,101.44613822500001,66.0,112.0
150,101.5445425,101.98603195000001,66.0,127.0
151,102.18284050000001,102.52592567500001,71.0,127.0
152,102.50198950000001,103.14028750000001,66.0,117.0
153,103.45943650000001,103.75730890000001,64.0,102.0
154,103.77858550000002,104.01262810000001,62.0,71.0
155,104.09773450000002,104.68550057500002,61.0,107.0
156,104.73603250000001,104.89560700000001,62.0,95.0
157,105.05518150000002,105.49933052500002,64.0,97.0
158,105.69347950000001,106.10837320000002,57.0,107.0
159,106.33177750000002,106.57911797500002,57.0,102.0
160,106.65092650000001,107.14560745000001,67.0,127.0
161,107.28922450000002,107.47273517500001,66.0,102.0
162,107.60837350000001,109.03656527500002,66.0,117.0
163,110.16156550000001,110.31582085000001,66.0,112.0
164,110.4807145,110.69879965000001,67.0,100.0
165,110.79986350000001,110.91422522500001,66.0,107.0
166,111.11901250000001,111.25731040000001,64.0,117.0
167,111.4381615,111.62167217500001,62.0,96.0
168,111.75731050000002,112.21209782500001,64.0,127.0
169,112.39560850000001,112.65890642500001,71.0,112.0
170,112.71475750000002,113.27326825000002,66.0,117.0
171,113.67220450000002,113.95145987500001,64.0,107.0
172,113.99135350000002,114.19880035000001,62.0,95.0
173,114.31050250000001,114.82646005000001,61.0,117.0
174,114.94880050000002,115.20943885000001,61.0,107.0
175,115.26794950000001,115.80784322500001,62.0,112.0
176,115.9062475,116.33975822500001,64.0,117.0
177,116.54454550000001,116.75465192500002,64.0,127.0
178,116.86369450000001,117.34773715000001,64.0,102.0
179,117.50199250000001,117.71475850000002,69.0,97.0
180,117.82114150000001,118.35305650000001,64.0,102.0
181,118.77858850000001,118.91688640000001,62.0,127.0
182,119.09773750000001,119.24135455000001,61.0,112.0
183,119.41688650000002,119.90624830000002,64.0,107.0
184,120.05518450000001,120.20678027500001,62.0,107.0
185,120.3743335,120.97007830000001,62.0,127.0
186,121.65092950000002,121.80784442500001,66.0,107.0
187,121.97007850000001,122.24933387500002,67.0,112.0
188,122.28922750000001,122.52858925000001,66.0,117.0
189,122.60837650000002,122.994014875,62.0,107.0
190,123.56582350000002,123.82114270000001,57.0,95.0
191,123.88497250000002,124.13497255000001,62.0,100.0
192,124.20412150000001,124.47539815000002,69.0,96.0
193,124.52327050000002,125.39295152500002,64.0,99.0
194,125.48071750000001,125.86635587500001,66.0,122.0
195,126.11901550000002,126.350398525,62.0,92.0
196,126.43816450000001,126.64561135000001,61.0,99.0
197,126.75731350000001,127.238696575,64.0,102.0
198,127.39561150000002,129.69082472500003,62.0,117.0
199,136.97008150000002,137.24135815,61.0,100.0
200,137.28923050000003,137.557847575,59.0,82.0
201,137.6083795,137.94880510000002,61.0,95.0
202,137.92752850000002,138.10040087500002,62.0,99.0
203,138.2466775,138.483379675,69.0,107.0
204,138.56582650000001,139.116358525,69.0,127.0
205,139.52327350000002,139.82912462500002,61.0,127.0
206,139.8424225,140.16689065000003,59.0,100.0
207,140.1615715,140.43018857500002,61.0,112.0
208,140.48072050000002,140.6722099,62.0,100.0
209,140.7998695,141.02859295000002,69.0,79.0
210,141.1190185,141.52327390000002,69.0,127.0
211,141.43816750000002,141.79986970000002,62.0,92.0
212,141.7573165,142.116359125,64.0,89.0
213,142.0764655,142.84774225,62.0,88.0
214,143.0339125,143.174869975,59.0,102.0
215,143.35306150000002,143.47540195000002,59.0,90.0
216,143.6722105,143.94082757500001,59.0,122.0
217,143.99135950000002,144.12433825000002,57.0,90.0
218,144.31050850000003,144.56050855,57.0,107.0
219,144.6296575,144.89827457500002,55.0,85.0
220,144.94880650000002,145.56050875,57.0,112.0
221,145.5871045,145.807849225,62.0,107.0
222,145.90625350000002,146.270615275,64.0,102.0
223,146.86370050000002,147.025934575,66.0,112.0
224,147.1828495,147.9913603,66.0,127.0
225,148.1402965,148.4488072,59.0,92.0
226,148.45944550000002,148.775934925,61.0,96.0
227,148.7785945,149.05784987500002,62.0,96.0
228,149.0977435,149.28391375,69.0,99.0
229,149.41689250000002,150.08178625000002,69.0,122.0
230,150.6934885,150.98604175000003,59.0,96.0
231,151.0126375,151.2360418,61.0,122.0
232,151.33178650000002,151.58976527500002,62.0,122.0
233,151.6509355,151.87965895000002,69.0,97.0
234,151.9700845,152.2785952,69.0,112.0
235,152.28923350000002,152.5871059,62.0,95.0
236,152.6083825,152.7573187,66.0,127.0
237,152.92753150000001,153.087106,66.0,107.0
238,153.24668050000002,153.424872025,66.0,112.0
239,153.5658295,153.74668060000002,66.0,127.0
240,153.88497850000002,154.150936,66.0,117.0
241,154.20412750000003,154.42221265,64.0,97.0
242,154.5232765,154.79455315,64.0,90.0
243,154.84242550000002,155.174872375,66.0,112.0
244,155.16157450000003,156.60572372500002,67.0,100.0
245,156.7573195,156.98338337500002,66.0,99.0
246,157.07646850000003,157.39561750000001,66.0,107.0
247,157.39561750000001,158.94349015,64.0,95.0
248,159.9488095,160.249341475,66.0,117.0
249,160.26795850000002,160.74934157500002,66.0,127.0
250,160.9062565,161.196150175,71.0,122.0
251,161.22540550000002,161.59242685,66.0,127.0
252,162.18285250000002,162.44349085000002,64.0,127.0
253,162.5020015,162.712107925,62.0,99.0
254,162.82115050000002,163.27593782500003,61.0,127.0
255,163.4594485,163.58976767500002,61.0,122.0
256,163.77859750000002,164.30785292500002,62.0,117.0
257,164.4168955,164.93285305,64.0,112.0
258,165.05519350000003,165.22540630000003,64.0,79.0
259,165.3743425,165.89030005,64.0,117.0
260,166.01264050000003,166.31317247500002,69.0,112.0
261,166.3317895,167.04721517500002,64.0,117.0
262,167.28923650000002,167.5339174,62.0,112.0
263,167.6083855,167.85838555,61.0,112.0
264,167.9275345,168.44349205000003,64.0,117.0
265,168.5658325,168.781258075,62.0,99.0
266,168.8849815,169.89030085000002,62.0,100.0
267,170.16157750000002,170.382322225,66.0,112.0
268,170.4807265,170.92221595,66.0,127.0
269,171.11902450000002,171.46210967500002,71.0,127.0
270,171.4381735,172.07647150000003,66.0,117.0
271,172.3956205,172.69349290000002,64.0,102.0
272,172.71476950000002,172.9488121,62.0,71.0
273,173.03391850000003,173.62168457500002,61.0,107.0
274,173.67221650000002,173.831791,62.0,95.0
275,173.99136550000003,174.43551452500003,64.0,97.0
276,174.6296635,175.0445572,57.0,107.0
277,175.2679615,175.515301975,57.0,102.0
278,175.5871105,176.08179145000003,67.0,127.0
279,176.22540850000001,176.408919175,66.0,102.0
280,176.5445575,177.972749275,66.0,117.0
281,179.09774950000002,179.25200485,66.0,112.0
282,179.4168985,179.63498365,67.0,100.0
283,179.7360475,179.85040922500002,66.0,107.0
284,180.05519650000002,180.19349440000002,64.0,117.0
285,180.3743455,180.557856175,62.0,96.0
286,180.6934945,181.14828182500003,64.0,127.0
287,181.3317925,181.59509042500002,71.0,112.0
288,181.65094150000002,182.20945225000003,66.0,117.0
289,182.60838850000002,182.887643875,64.0,107.0
290,182.92753750000003,183.13498435000002,62.0,95.0
291,183.2466865,183.76264405,61.0,117.0
292,183.88498450000003,184.14562285,61.0,107.0
293,184.2041335,184.74402722500002,62.0,112.0
294,184.84243150000003,185.275942225,64.0,117.0
295,185.4807295,185.69083592500002,64.0,127.0
296,185.7998785,186.28392115000003,64.0,102.0
297,186.4381765,186.6509425,69.0,97.0
298,186.7573255,187.2892405,64.0,102.0
299,187.7147725,187.8530704,62.0,127.0
300,188.03392150000002,188.17753855,61.0,112.0
301,188.3530705,188.8424323,64.0,107.0
302,188.99136850000002,189.142964275,62.0,107.0
303,189.3105175,189.9062623,62.0,127.0
304,190.58711350000002,190.744028425,66.0,107.0
305,190.90626250000003,191.18551787500002,67.0,112.0
306,191.2254115,191.46477325,66.0,117.0
307,191.54456050000002,191.93019887500003,62.0,107.0
308,192.50200750000002,192.75732670000002,57.0,95.0
309,192.82115650000003,193.07115655,62.0,100.0
310,193.1403055,193.41158215000002,69.0,96.0
311,193.4594545,194.32913552500003,64.0,99.0
312,194.4169015,194.802539875,66.0,122.0
313,195.05519950000001,195.28658252500003,62.0,92.0
314,195.3743485,195.58179535,61.0,99.0
315,195.6934975,196.17488057500003,64.0,102.0
316,196.3317955,198.627008725,62.0,117.0
317,200.1615835,200.46477505000001,66.0,127.0
318,200.48073250000002,200.73871127500001,64.0,95.0
319,200.79988150000003,201.21211562500002,62.0,97.0
320,201.75732850000003,201.91690300000002,59.0,100.0
321,202.0764775,202.228073275,59.0,100.0
322,202.3956265,202.573818025,59.0,93.0
323,202.71477550000003,203.148286225,66.0,127.0
324,203.3530735,203.50466927500003,64.0,122.0
325,203.512648,203.64030760000003,62.0,102.0
326,203.67222250000003,204.22807367500002,64.0,122.0
327,204.3105205,204.46477585000002,61.0,112.0
328,204.6296695,204.76264825,61.0,107.0
329,204.94881850000002,205.105733425,61.0,107.0
330,205.2679675,205.70147822500002,67.0,127.0
331,205.90626550000002,206.09509532500002,66.0,127.0
332,206.06584,206.19881875000002,64.0,96.0
333,206.2254145,207.05254232500002,66.0,127.0
334,207.82115950000002,208.25998937500003,66.0,127.0
335,208.4594575,208.658925625,64.0,122.0
336,208.77860650000002,209.25733000000002,62.0,117.0
337,209.41690450000002,209.90360672500003,64.0,127.0
338,210.0552025,210.504670675,66.0,127.0
339,210.69350050000003,211.43286235,69.0,127.0
340,211.9700965,212.1509476,62.0,112.0
341,212.2892455,212.44616042500002,62.0,102.0
342,212.60839450000003,212.80520305000002,62.0,117.0
343,212.9275435,213.1722244,57.0,112.0
344,213.2466925,213.478075525,66.0,127.0
345,213.56584150000003,213.71211812500002,64.0,100.0
346,213.88499050000001,214.33711825,66.0,127.0
347,214.5232885,214.72275662500002,67.0,127.0
348,214.84243750000002,215.25201205000002,66.0,127.0
349,215.4807355,215.61371425000002,66.0,117.0
350,215.79988450000002,216.190842025,67.0,127.0
351,216.1190335,217.64296997500003,66.0,127.0
352,218.35307650000001,218.5764808,67.0,127.0
353,218.67222550000002,219.09243835,69.0,112.0
354,219.31052350000002,220.36903435,64.0,112.0
355,221.2254175,221.4594601,66.0,127.0
356,221.54456650000003,222.02594957500003,66.0,127.0
357,222.1828645,222.47275817500002,71.0,122.0
358,222.50201350000003,222.86903485,66.0,127.0
359,223.45946050000003,223.72009885,64.0,127.0
360,223.77860950000002,223.988715925,62.0,99.0
361,224.0977585,224.55254582500004,61.0,127.0
362,224.73605650000002,224.86637567500003,61.0,122.0
363,225.0552055,225.58446092500003,62.0,117.0
364,225.69350350000002,226.20946105000002,64.0,112.0
365,226.33180150000004,226.50201429999998,64.0,79.0
366,226.65095050000002,227.16690805000002,64.0,117.0
367,227.28924849999999,227.589780475,69.0,112.0
368,227.60839750000002,228.32382317500003,64.0,117.0
369,228.56584450000003,228.81052540000002,62.0,112.0
370,228.8849935,229.13499355,61.0,112.0
371,229.2041425,229.72010004999999,64.0,117.0
372,229.8424405,230.057866075,62.0,99.0
373,230.1615895,231.16690885000003,62.0,100.0
374,231.43818550000003,231.658930225,66.0,112.0
375,231.7573345,232.19882395000002,66.0,127.0
376,232.39563250000003,232.73871767500003,71.0,127.0
377,232.71478150000002,233.35307950000004,66.0,117.0
378,233.67222850000002,233.97010090000003,64.0,102.0
379,233.9913775,234.2254201,62.0,71.0
380,234.31052650000004,234.89829257500003,61.0,107.0
381,234.9488245,235.10839900000002,62.0,95.0
382,235.26797350000004,235.71212252499998,64.0,97.0
383,235.9062715,236.3211652,57.0,107.0
384,236.54456950000002,236.791909975,57.0,102.0
385,236.8637185,237.35839945000004,67.0,127.0
386,237.50201650000002,237.685527175,66.0,102.0
387,237.8211655,238.244037925,66.0,117.0
388,238.7786125,239.04722957500002,67.0,107.0
389,239.0977615,239.62169777500003,64.0,117.0
390,239.7360595,240.318506425,62.0,107.0
391,240.37435750000003,240.52861285,66.0,112.0
392,240.6935065,240.91159165,67.0,100.0
393,241.0126555,241.12701722500003,66.0,107.0
394,241.33180450000003,241.47010240000003,64.0,117.0
395,241.660262,241.87588699999998,62.0,96.0
396,242.035262,242.569637,64.0,127.0
397,242.785262,243.09463699999998,71.0,112.0
398,243.15095349999999,243.70946425,66.0,117.0
399,244.1084005,244.38765587499998,64.0,107.0
400,244.4275495,244.63499635,62.0,95.0
401,244.74669849999998,245.26265604999998,61.0,117.0
402,245.3849965,245.64563485,61.0,107.0
403,245.70414549999998,246.244039225,62.0,112.0
404,246.3424435,246.775954225,64.0,117.0
405,246.9807415,247.19084792499999,64.0,127.0
406,247.29989049999998,247.78393315,64.0,102.0
407,247.9381885,248.15095449999998,69.0,97.0
408,248.25733749999998,248.78925249999998,64.0,102.0
409,249.21478449999998,249.35308239999998,62.0,127.0
410,249.5339335,249.67755054999998,61.0,112.0
411,249.8530825,250.34244429999998,64.0,107.0
412,250.4913805,250.77329544999998,66.0,127.0
413,250.8105295,251.36904024999998,62.0,102.0
414,252.08712549999998,252.24404042499998,66.0,107.0
415,252.4062745,252.685529875,67.0,112.0
416,252.72542349999998,252.96478524999998,66.0,117.0
417,253.0445725,253.430210875,62.0,107.0
418,254.0020195,254.2573387,57.0,95.0
419,254.3211685,254.57116854999998,62.0,100.0
420,254.64031749999998,254.91159414999998,69.0,96.0
421,254.9594665,255.829147525,64.0,99.0
422,255.9169135,256.302551875,66.0,122.0
423,256.5552115,256.786594525,62.0,92.0
424,256.87436049999997,257.08180734999996,61.0,99.0
425,257.202818,257.768443,64.0,102.0
426,257.952818,260.28925449999997,62.0,117.0
427,263.3849998,263.595106225,66.0,85.0
428,263.744042425,264.0126595,67.0,96.0
429,264.0339361,264.355744675,66.0,93.0
430,264.37436169999995,265.318510825,62.0,99.0
431,265.653617275,265.898298175,57.0,81.0
432,265.90361732499997,266.2360642,62.0,88.0
433,266.28393654999996,266.648298325,69.0,90.0
434,266.685532375,267.850426225,64.0,93.0
435,268.738724275,269.09510732499996,66.0,99.0
436,269.36904354999996,269.6828734,62.0,95.0
437,269.7998947,270.174894775,61.0,93.0
438,270.36372459999995,270.90095875,64.0,96.0
439,270.999363025,275.448832,62.0,100.0
