,start,end,pitch,velocity
0,23.301762412500004,23.437476562500002,69.0,86.0
1,23.516047912500003,23.641047787500003,71.0,83.0
2,23.730333412500002,23.892833250000002,72.0,85.0
3,23.944618912500005,24.053547375000004,71.0,74.0
4,24.158904412500004,24.321404250000004,72.0,79.0
5,24.373189912500003,24.494618362500002,71.0,85.0
6,24.5874754125,24.901760812500005,69.0,84.0
7,25.016046412500003,25.173189112500005,76.0,84.0
8,25.230331912500002,26.189259525000004,74.0,86.0
9,26.730330412500003,26.864258850000002,69.0,85.0
10,26.944615912500005,27.058901512500004,71.0,82.0
11,27.158901412500004,27.291044137500002,72.0,84.0
12,27.373186912500003,27.473186812500003,71.0,83.0
13,27.587472412500002,27.739257975000005,72.0,84.0
14,27.801757912500005,27.908900662500002,71.0,84.0
15,28.016043412500004,28.224971775000004,69.0,86.0
16,28.444614412500005,28.585685700000003,71.0,83.0
17,28.658899912500004,29.201756512500005,64.0,86.0
18,30.158898412500005,30.298183987500003,69.0,83.0
19,30.373183912500004,30.485683800000004,71.0,83.0
20,30.587469412500003,30.744612112500004,72.0,83.0
21,30.801754912500005,30.901754812500005,71.0,83.0
22,31.016040412500004,31.176754537500003,72.0,81.0
23,31.230325912500003,31.399968600000005,71.0,84.0
24,31.444611412500006,31.639254075000004,69.0,84.0
25,31.873182412500004,31.992825150000005,76.0,86.0
26,32.0874679125,32.519610337500005,79.0,83.0
27,33.58746641250001,33.703537725000004,76.0,83.0
28,33.8017519125,33.96246603750001,76.0,82.0
29,34.016037412500005,34.135680150000006,74.0,88.0
30,34.23032291250001,34.3571085,72.0,84.0
31,34.4446084125,34.601751112500004,74.0,86.0
32,34.658893912500005,34.7428224,72.0,73.0
33,34.87317941250001,35.139250575000005,74.0,84.0
34,35.301750412500006,35.464250250000006,72.0,80.0
35,35.5160359125,36.7088918625,71.0,83.0
36,37.016034412500005,37.16424855,69.0,78.0
37,37.23031991250001,37.353534075000006,71.0,83.0
38,37.4446054125,37.576748137500005,72.0,79.0
39,37.658890912500006,37.769605087500004,71.0,80.0
40,37.87317641250001,37.999962000000004,72.0,83.0
41,38.087461912500004,38.201747512500006,71.0,84.0
42,38.301747412500006,38.557104300000006,69.0,84.0
43,38.730318412500004,38.8660325625,76.0,85.0
44,38.94460391250001,40.071388500000005,74.0,85.0
45,40.444602412500004,40.551745162500005,69.0,85.0
46,40.658887912500006,40.774959225,71.0,83.0
47,40.873270629166676,41.02190945,72.0,83.0
48,41.08817012916667,41.19561987916667,71.0,83.0
49,41.30306962916667,41.414101037500004,72.0,76.0
50,41.51796912916667,41.636163854166675,71.0,82.0
51,41.732868629166674,42.01940129583334,69.0,85.0
52,42.16266762916667,42.28981650000001,71.0,81.0
53,42.37756712916667,43.51295282083334,64.0,82.0
54,43.88186362916667,44.00184918333334,69.0,83.0
55,44.096763129166675,44.216748683333336,71.0,83.0
56,44.31166262916667,44.46209227916667,72.0,81.0
57,44.52656212916667,44.64654768333334,71.0,83.0
58,44.74146162916667,44.906217912500004,72.0,81.0
59,44.95636112916667,45.067392537500005,71.0,83.0
60,45.171260629166675,45.41839505416667,69.0,84.0
61,45.60105962916667,45.73716264583334,76.0,86.0
62,45.81595912916667,46.65943966666667,79.0,82.0
63,47.10535612916667,47.23787748750001,76.0,88.0
64,47.320255629166674,47.465312791666676,76.0,83.0
65,47.535155129166675,47.69812058333334,79.0,82.0
66,47.75005462916667,47.855713550000004,78.0,98.0
67,47.96495412916667,48.0759855375,78.0,76.0
68,48.17985362916667,48.29267586666667,78.0,82.0
69,48.39475312916667,48.70456657500001,78.0,86.0
70,48.824552129166676,48.93558353750001,76.0,87.0
71,49.03945162916667,49.164809670833336,78.0,85.0
72,49.25435112916667,49.56416457500001,78.0,82.0
73,49.684150129166675,50.477487450000005,76.0,86.0
74,50.75819224583334,50.89033497083334,76.0,87.0
75,50.97247774583334,51.09390619583334,76.0,86.0
76,51.18676324583334,51.313548833333336,81.0,83.0
77,51.401048745833336,51.51712005833334,79.0,77.0
78,51.61533424583334,51.76354838333334,81.0,84.0
79,51.82961974583334,51.98319102083334,79.0,86.0
80,52.043905245833336,52.34747637083334,77.0,84.0
81,52.47247624583334,52.592118983333336,81.0,83.0
82,52.68676174583334,53.733189270833336,79.0,83.0
83,53.97247474583334,54.08676034583334,76.0,85.0
84,54.18676024583334,54.29390299583334,76.0,85.0
85,54.401045745833336,54.51711705833334,76.0,84.0
86,54.61533124583334,54.74925968333334,78.0,83.0
87,54.82961674583334,54.92961664583334,78.0,85.0
88,55.04390224583334,55.16890212083334,78.0,88.0
89,55.25818774583334,55.36890192083334,76.0,83.0
90,55.47247324583334,55.61175882083334,78.0,91.0
91,55.68675874583334,55.80283005833334,76.0,87.0
92,55.90104424583334,56.02782983333334,74.0,84.0
93,56.11532974583334,56.45104369583334,78.0,85.0
94,56.54390074583334,57.17782868333334,76.0,86.0
95,57.61532824583334,57.74211383333334,76.0,89.0
96,57.82961374583334,57.94568505833334,76.0,84.0
97,58.04389924583334,58.19032767083334,81.0,83.0
98,58.25818474583334,58.35282750833334,79.0,88.0
99,58.47247024583334,58.629612945833344,81.0,86.0
100,58.68675574583334,58.80639848333334,79.0,86.0
101,58.90104124583334,59.20461237083334,77.0,88.0
102,59.32961224583334,59.458183545833336,81.0,86.0
103,59.54389774583334,60.451039695833344,79.0,88.0
104,61.04389624583334,61.15996755833334,76.0,85.0
105,61.25818174583334,61.39032447083334,76.0,87.0
106,61.47246724583334,61.72960984583334,74.0,84.0
107,61.90103824583334,62.16353798333334,74.0,89.0
108,62.32960924583334,62.69210888333334,74.0,88.0
109,62.758180245833344,63.09389419583334,72.0,84.0
110,63.18675124583334,63.79746492083334,71.0,84.0
111,64.04389324583335,64.35103579583334,76.0,84.0
112,64.47246424583334,64.76532109583334,74.0,86.0
113,64.90103524583334,65.27960629583335,72.0,86.0
114,65.32960624583335,65.68496303333335,69.0,85.0
115,65.75817724583334,66.07781978333334,72.0,85.0
116,66.18674824583334,66.48496223333333,74.0,86.0
117,66.61531924583335,66.95639033333335,76.0,83.0
118,67.04389024583334,67.47603267083335,79.0,84.0
119,67.47246124583334,67.80996090833334,76.0,86.0
120,67.90103224583333,68.21531764583334,74.0,87.0
121,68.32960324583334,68.66531719583334,72.0,86.0
122,68.75817424583335,69.05103109583334,69.0,84.0
123,69.18674524583334,69.50460207083334,69.0,82.0
124,69.61531624583334,69.98853015833333,67.0,84.0
125,70.04388724583335,70.73317227083334,64.0,93.0
126,71.32960024583335,71.46174297083334,72.0,84.0
127,71.54388574583334,71.71709985833334,71.0,86.0
128,71.75817124583334,72.09745662083334,69.0,85.0
129,72.18674224583334,72.48317052083334,67.0,83.0
130,72.61531324583333,72.93852720833334,69.0,84.0
131,73.04388424583334,73.35816964583334,72.0,84.0
132,73.47245524583334,73.79388349583334,72.0,86.0
133,73.90102624583335,74.19924023333334,79.0,85.0
134,74.32959724583334,74.67066833333334,76.0,83.0
135,74.75816824583335,74.95102519583334,76.0,86.0
136,74.97245374583335,75.10281075833333,74.0,78.0
137,75.18673924583334,75.49388179583335,72.0,86.0
138,75.61531024583334,75.95816704583333,72.0,83.0
139,76.04388124583335,76.35816664583334,72.0,84.0
140,76.47245224583334,76.78495193333335,69.0,83.0
141,76.90102324583334,78.17245054583334,71.0,84.0
142,78.18673624583334,78.34387894583334,76.0,86.0
143,78.40102174583335,78.52066448333335,74.0,85.0
144,78.61530724583335,79.00637828333335,76.0,86.0
145,79.04387824583334,79.37423505833334,74.0,86.0
146,79.47244924583335,79.83316317083334,76.0,83.0
147,79.90102024583334,80.22066278333334,79.0,86.0
148,80.32959124583334,80.70459087083334,81.0,83.0
149,80.75816224583335,81.08494763333334,79.0,83.0
150,81.18673324583334,81.40101874583334,79.0,83.0
151,81.40101874583334,81.70458987083335,79.0,84.0
152,81.82958974583335,82.06530379583334,76.0,83.0
153,82.04387524583335,82.31530354583334,81.0,88.0
154,82.25816074583335,82.54566045833334,79.0,86.0
155,82.68673174583334,83.00994570833333,77.0,84.0
156,82.90101724583334,83.20815979583335,79.0,83.0
157,83.32958824583335,83.70280215833334,77.0,83.0
158,83.75815924583334,84.72958684583335,76.0,89.0
159,85.04387224583334,85.22422920833334,74.0,89.0
160,85.25815774583334,85.37958619583334,76.0,84.0
161,85.47244324583335,85.80101434583335,77.0,84.0
162,85.90101424583335,86.24029962083334,76.0,89.0
163,86.32958524583334,86.79744192083334,74.0,93.0
164,86.97244174583335,87.10815589583333,69.0,84.0
165,87.18672724583334,87.53136975833334,76.0,86.0
166,87.61529824583334,87.82958374583335,74.0,89.0
167,87.82958374583335,88.18494053333335,72.0,87.0
168,88.25815474583334,88.37779748333335,72.0,82.0
169,88.47244024583335,88.58315442083335,72.0,83.0
170,88.68672574583334,88.82958274583333,72.0,84.0
171,88.90101124583335,89.01172542083334,71.0,85.0
172,89.11529674583335,89.44565355833333,71.0,86.0
173,89.54386774583335,89.67065333333335,71.0,84.0
174,89.75815324583334,89.97243874583334,71.0,88.0
175,89.97243874583334,90.18672424583335,71.0,88.0
176,90.40100974583333,90.61529524583335,69.0,86.0
177,90.61529524583335,91.73136555833335,71.0,88.0
178,107.32956424583335,107.46527839583334,69.0,86.0
179,107.54384974583334,107.66884962083336,71.0,83.0
180,107.75813524583334,107.92063508333334,72.0,85.0
181,107.97242074583335,108.08134920833334,71.0,74.0
182,108.18670624583335,108.34920608333334,72.0,79.0
183,108.40099174583335,108.52242019583335,71.0,85.0
184,108.61527724583334,108.92956264583334,69.0,84.0
185,109.04384824583335,109.20099094583335,76.0,84.0
186,109.25813374583335,110.21706135833335,74.0,86.0
187,110.75813224583334,110.89206068333334,69.0,85.0
188,110.97241774583335,111.08670334583334,71.0,82.0
189,111.18670324583334,111.31884597083334,72.0,84.0
190,111.40098874583335,111.50098864583335,71.0,83.0
191,111.61527424583335,111.76705980833336,72.0,84.0
192,111.82955974583335,111.93670249583334,71.0,84.0
193,112.04384524583335,112.25277360833334,69.0,86.0
194,112.47241624583334,112.61348753333334,71.0,83.0
195,112.68670174583335,113.22955834583334,64.0,86.0
196,114.18670024583335,114.32598582083335,69.0,83.0
197,114.40098574583334,114.51348563333335,71.0,83.0
198,114.61527124583334,114.77241394583335,72.0,83.0
199,114.82955674583334,114.92955664583334,71.0,83.0
200,115.04384224583335,115.20455637083334,72.0,81.0
201,115.25812774583335,115.42777043333335,71.0,84.0
202,115.47241324583335,115.66705590833335,69.0,84.0
203,115.90098424583334,116.02062698333334,76.0,86.0
204,116.11526974583334,116.54741217083335,79.0,83.0
205,117.61526824583335,117.73133955833335,76.0,83.0
206,117.82955374583335,117.99026787083335,76.0,82.0
207,118.04383924583335,118.16348198333334,74.0,88.0
208,118.25812474583334,118.38491033333335,72.0,84.0
209,118.47241024583334,118.62955294583335,74.0,86.0
210,118.68669574583335,118.77062423333335,72.0,73.0
211,118.90098124583335,119.16705240833335,74.0,84.0
212,119.32955224583334,119.49205208333335,72.0,80.0
213,119.54383774583334,120.73669369583335,71.0,83.0
214,121.04383624583335,121.19205038333335,69.0,78.0
215,121.25812174583335,121.38133590833336,71.0,83.0
216,121.47240724583335,121.60454997083335,72.0,79.0
217,121.68669274583335,121.79740692083335,71.0,80.0
218,121.90097824583334,122.02776383333335,72.0,83.0
219,122.11526374583335,122.22954934583335,71.0,84.0
220,122.32954924583335,122.58490613333335,69.0,84.0
221,122.75812024583335,122.89383439583335,76.0,85.0
222,122.97240574583334,124.09919033333335,74.0,85.0
223,124.47240424583335,124.57954699583335,69.0,85.0
224,124.68668974583335,124.80276105833335,71.0,83.0
225,124.90097524583335,125.04918938333334,72.0,83.0
226,125.11526074583335,125.22240349583335,71.0,83.0
227,125.32954624583334,125.44026042083335,72.0,76.0
228,125.54383174583334,125.66168877083335,71.0,82.0
229,125.75811724583335,126.04383124583335,69.0,85.0
230,126.18668824583335,126.31347383333335,71.0,81.0
231,126.40097374583335,127.53311547083335,64.0,82.0
232,127.90097224583334,128.02061498333336,69.0,83.0
233,128.11525774583333,128.23490048333335,71.0,83.0
234,128.32954324583335,128.47954309583335,72.0,81.0
235,128.54382874583337,128.66347148333335,71.0,83.0
236,128.75811424583335,128.92239979583334,72.0,81.0
237,128.97239974583334,129.08311392083334,71.0,83.0
238,129.18668524583336,129.43311357083337,69.0,84.0
239,129.61525624583334,129.75097039583335,76.0,86.0
240,129.82954174583335,130.67061233333334,79.0,82.0
241,131.11525474583334,131.24739747083333,76.0,88.0
242,131.32954024583336,131.47418295833336,76.0,83.0
243,131.54382574583335,131.70632558333335,79.0,82.0
244,131.75811124583333,131.86346828333336,78.0,98.0
245,131.97239674583335,132.08311092083335,78.0,76.0
246,132.18668224583337,132.29918213333335,78.0,82.0
247,132.40096774583336,132.70989600833335,78.0,86.0
248,132.82953874583336,132.94025292083336,76.0,87.0
249,133.04382424583335,133.16882412083334,78.0,85.0
250,133.25810974583334,133.56703800833336,78.0,82.0
251,133.68668074583337,134.47775138333336,76.0,86.0
252,134.75810824583334,134.89025097083334,76.0,87.0
253,134.97239374583336,135.09382219583335,76.0,86.0
254,135.18667924583335,135.31346483333334,81.0,83.0
255,135.40096474583333,135.51703605833336,79.0,77.0
256,135.61525024583335,135.76346438333337,81.0,84.0
257,135.82953574583337,135.98310702083336,79.0,86.0
258,136.04382124583336,136.34739237083335,77.0,84.0
259,136.47239224583336,136.59203498333335,81.0,83.0
260,136.68667774583335,137.73310527083333,79.0,83.0
261,137.97239074583337,138.08667634583335,76.0,85.0
262,138.18667624583335,138.29381899583336,76.0,85.0
263,138.40096174583334,138.51703305833337,76.0,84.0
264,138.61524724583336,138.74917568333336,78.0,83.0
265,138.82953274583335,138.92953264583335,78.0,85.0
266,139.04381824583334,139.16881812083335,78.0,88.0
267,139.25810374583335,139.36881792083335,76.0,83.0
268,139.47238924583337,139.61167482083334,78.0,91.0
269,139.68667474583333,139.80274605833335,76.0,87.0
270,139.90096024583335,140.02774583333337,74.0,84.0
271,140.11524574583336,140.45095969583335,78.0,85.0
272,140.54381674583334,141.17774468333334,76.0,86.0
273,141.61524424583337,141.74202983333333,76.0,89.0
274,141.82952974583336,141.94560105833335,76.0,84.0
275,142.04381524583334,142.19024367083335,81.0,83.0
276,142.25810074583336,142.35274350833333,79.0,88.0
277,142.47238624583335,142.62952894583336,81.0,86.0
278,142.68667174583334,142.80631448333335,79.0,86.0
279,142.90095724583335,143.20597995000003,77.0,88.0
280,143.33187903333337,143.46137523333337,81.0,86.0
281,143.54770603333336,144.4613736666667,79.0,88.0
282,145.05849503333337,145.17540132500002,76.0,85.0
283,145.27432203333336,145.40741535000004,76.0,87.0
284,145.49014903333335,145.74914143333336,74.0,84.0
285,145.92180303333336,146.18619110833336,74.0,89.0
286,146.35345703333337,146.71856437500003,74.0,88.0
287,146.78511103333335,147.12324000000004,72.0,84.0
288,147.21676503333336,147.82950835000003,71.0,84.0
289,148.075936675,148.38307922500002,76.0,84.0
290,148.504507675,148.79736452500003,74.0,86.0
291,148.93307867500002,149.31164972500002,72.0,86.0
292,149.36164967500002,149.71700646250002,69.0,85.0
293,149.79022067500003,150.10986321250002,72.0,85.0
294,150.21879167500003,150.51700566250003,74.0,86.0
295,150.647362675,150.98843376250002,76.0,83.0
296,151.07593367500002,151.5080761,79.0,84.0
297,151.50450467500002,151.84200433750001,76.0,86.0
298,151.93307567500003,152.24736107500001,74.0,87.0
299,152.36164667500003,152.69736062500002,72.0,86.0
300,152.790217675,153.08307452500003,69.0,84.0
301,153.218788675,153.53664550000002,69.0,82.0
302,153.64735967500002,154.02057358750002,67.0,84.0
303,154.07593067500002,154.76521570000003,64.0,93.0
304,155.361643675,155.49378640000003,72.0,84.0
305,155.57592917500003,155.74914328750003,71.0,86.0
306,155.79021467500002,156.12950005000002,69.0,85.0
307,156.21878567500002,156.51521395000003,67.0,83.0
308,156.64735667500003,156.97057063750003,69.0,84.0
309,157.07592767500003,157.39021307500002,72.0,84.0
310,157.50449867500004,157.82592692500003,72.0,86.0
311,157.933069675,158.23128366250003,79.0,85.0
312,158.36164067500002,158.70271176250003,76.0,83.0
313,158.79021167500002,158.98306862500002,76.0,86.0
314,159.004497175,159.13485418750003,74.0,78.0
315,159.21878267500003,159.52592522500004,72.0,86.0
316,159.64735367500003,159.99021047500003,72.0,83.0
317,160.075924675,160.39021007500003,72.0,84.0
318,160.50449567500002,160.81699536250002,69.0,83.0
319,160.93306667500002,162.20449397500002,71.0,84.0
320,162.21877967500004,162.37592237500002,76.0,86.0
321,162.43306517500002,162.5527079125,74.0,85.0
322,162.647350675,163.03842171250002,76.0,86.0
323,163.07592167500002,163.40627848750003,74.0,86.0
324,163.50449267500002,163.86520660000002,76.0,83.0
325,163.93306367500003,164.25270621250002,79.0,86.0
326,164.36163467500003,164.73663430000002,81.0,83.0
327,164.79020567500004,165.11699106250003,79.0,83.0
328,165.21877667500002,165.43306217500003,79.0,83.0
329,165.43306217500003,165.73663330000002,79.0,84.0
330,165.861633175,166.09734722500002,76.0,83.0
331,166.07591867500003,166.34734697500002,81.0,88.0
332,166.290204175,166.57770388750004,79.0,86.0
333,166.71877517500002,167.04198913750002,77.0,84.0
334,166.93306067500004,167.24020322500002,79.0,83.0
335,167.361631675,167.73484558750002,77.0,83.0
336,167.79020267500002,168.76163027500002,76.0,89.0
337,169.07591567500003,169.25627263750002,74.0,89.0
338,169.29020117500002,169.41162962500002,76.0,84.0
339,169.504486675,169.83305777500001,77.0,84.0
340,169.93305767500001,170.27234305000002,76.0,89.0
341,170.36162867500002,170.82948535000003,74.0,93.0
342,171.004485175,171.14019932500003,69.0,84.0
343,171.21877067500003,171.56341318750003,76.0,86.0
344,171.64734167500004,171.86162717500002,74.0,89.0
345,171.86162717500002,172.21698396250002,72.0,87.0
346,172.29019817500003,172.40984091250002,72.0,82.0
347,172.50448367500002,172.61519785000002,72.0,83.0
348,172.71876917500003,172.86162617500003,72.0,84.0
349,172.93305467500002,173.04376885000002,71.0,85.0
350,173.147340175,173.47769698750002,71.0,86.0
351,173.57591117500002,173.7026967625,71.0,84.0
352,173.79019667500003,174.00448217500002,71.0,88.0
353,174.00448217500002,174.21876767500004,71.0,88.0
354,174.43305317500003,174.64733867500001,69.0,86.0
355,174.64733867500001,175.76340898750001,71.0,88.0
356,175.93305167500003,176.24019422500004,76.0,84.0
357,176.14733717500002,176.36162267500004,74.0,86.0
358,176.36162267500004,176.74019372500004,72.0,86.0
359,176.790193675,177.1455504625,69.0,85.0
360,177.21876467500002,177.53840721250003,72.0,85.0
361,177.64733567500002,177.9455496625,74.0,86.0
362,178.07590667500003,178.41697776250004,76.0,83.0
363,178.50447767500003,178.93662010000003,79.0,84.0
364,178.93304867500004,179.27054833750003,76.0,86.0
365,179.36161967500001,179.67590507500003,74.0,87.0
366,179.79019067500002,180.12590462500003,72.0,86.0
367,180.21876167500002,180.51161852500002,69.0,84.0
368,180.64733267500003,180.9651895,69.0,82.0
369,181.07590367500003,181.44911758750004,67.0,84.0
370,181.50447467500004,182.19375970000002,64.0,93.0
371,182.79018767500003,182.92233040000002,72.0,84.0
372,183.00447317500002,183.17768728750002,71.0,86.0
373,183.21875867500003,183.55804405000003,69.0,85.0
374,183.64732967500004,183.94375795000002,67.0,83.0
375,184.075900675,184.39911463750002,69.0,84.0
376,184.50447167500002,184.81875707500004,72.0,84.0
377,184.93304267500002,185.25447092500002,72.0,86.0
378,185.36161367500003,185.65982766250002,79.0,85.0
379,185.79018467500003,186.13125576250002,76.0,83.0
380,186.218755675,186.41161262500003,76.0,86.0
381,186.43304117500003,186.5633981875,74.0,78.0
382,186.64732667500002,186.95446922500003,72.0,86.0
383,187.07589767500002,187.41875447500001,72.0,83.0
384,187.50446867500003,187.81875407500002,72.0,84.0
385,187.93303967500003,188.24553936250004,69.0,83.0
386,188.36161067500004,189.63303797500004,71.0,84.0
387,189.64732367500002,189.80446637500003,76.0,86.0
388,189.861609175,189.98125191250003,74.0,85.0
389,190.07589467500003,190.46696571250004,76.0,86.0
390,190.50446567500003,190.83482248750002,74.0,86.0
391,190.93303667500004,191.2937506,76.0,83.0
392,191.36160767500002,191.68125021250003,79.0,86.0
393,191.79017867500002,192.16517830000004,81.0,83.0
394,192.21874967500003,192.54553506250002,79.0,83.0
395,192.64732067500003,192.86160617500002,79.0,83.0
396,192.86160617500002,193.16517730000004,79.0,84.0
397,193.29017717500003,193.525891225,76.0,83.0
398,193.504462675,193.77589097500004,81.0,88.0
399,193.71874817500003,194.00624788750002,79.0,86.0
400,194.14731917500004,194.4705331375,77.0,84.0
401,194.36160467500002,194.66874722500003,79.0,83.0
402,194.79017567500003,195.16338958750003,77.0,83.0
403,195.21874667500003,196.19017427500003,76.0,89.0
404,196.50445967500002,196.68481663750003,74.0,89.0
405,196.71874517500004,196.84017362500003,76.0,84.0
406,196.93303067500003,197.26160177500003,77.0,84.0
407,197.36160167500003,197.70088705000003,76.0,89.0
408,197.79017267500004,198.25802935000002,74.0,93.0
409,198.43302917500003,198.568743325,69.0,84.0
410,198.64731467500002,198.99195718750002,76.0,86.0
411,199.07588567500002,199.290171175,74.0,89.0
412,199.290171175,199.6455279625,72.0,87.0
413,199.71874217500005,199.83838491250003,72.0,82.0
414,199.93302767500003,200.04374185000003,72.0,83.0
415,200.14731317500002,200.29017017500001,72.0,84.0
416,200.36159867500004,200.47231285000004,71.0,85.0
417,200.57588417500003,200.90624098750004,71.0,86.0
418,201.00445517500003,201.13124076250003,71.0,84.0
419,201.21874067500002,201.43302617500004,71.0,88.0
420,201.43302617500004,201.64731167500003,71.0,88.0
421,201.86159717500004,202.07588267500003,69.0,86.0
422,202.07588267500003,202.933024675,71.0,88.0
423,202.933024675,203.30266716250003,68.0,86.0
424,203.36159567500002,203.70445247500004,71.0,87.0
425,203.79016667500002,205.25802235000003,69.0,89.0
