,start,end,pitch,velocity
0,10.230346912500002,11.357131500000001,52.0,82.0
1,10.016061412500001,11.394631462500001,45.0,83.0
2,10.658917912500002,11.6857026,64.0,81.0
3,10.8732034125,11.687488312500001,69.0,81.0
4,10.4446324125,11.717845425000002,57.0,80.0
5,11.944630912500001,13.085701200000003,47.0,78.0
6,12.158916412500002,13.166058262500002,52.0,76.0
7,11.730345412500002,13.214272500000002,40.0,84.0
8,12.3732019125,13.276772437500002,59.0,77.0
9,12.587487412500002,13.492843650000001,64.0,84.0
10,14.087485912500002,14.414271300000001,60.0,67.0
11,14.301771412500003,14.560699725000003,65.0,72.0
12,13.873200412500001,14.576771137500002,53.0,74.0
13,13.658914912500002,14.908913662500002,48.0,71.0
14,13.444629412500001,14.957127900000001,41.0,82.0
15,14.516056912500002,15.253556175000002,60.0,81.0
16,14.730342412500002,15.289270425000002,53.0,73.0
17,15.801769912500003,16.1053410375,59.0,78.0
18,15.587484412500002,16.382126475000003,52.0,83.0
19,15.158913412500002,16.660697625,40.0,85.0
20,15.373198912500001,16.6856976,47.0,72.0
21,16.444626412500003,16.805340337500002,52.0,83.0
22,16.016055412500002,16.9856973,64.0,89.0
23,17.301768412500003,17.648196637500003,57.0,72.0
24,17.7303394125,17.794625062500003,57.0,59.0
25,17.0874829125,18.141053287500004,52.0,73.0
26,16.8731974125,18.171410400000003,45.0,80.0
27,17.516053912500002,18.205338937500002,64.0,81.0
28,17.7303394125,18.621409950000004,69.0,83.0
29,18.158910412500003,18.6910527375,57.0,78.0
30,19.016052412500002,19.469623387500004,52.0,80.0
31,18.5874814125,20.101765612500003,40.0,84.0
32,18.801766912500003,20.114265600000003,47.0,70.0
33,19.2303379125,20.155336987500004,59.0,76.0
34,19.873194412500002,20.176765537500003,52.0,73.0
35,19.444623412500004,20.319622537500003,64.0,83.0
36,20.7303364125,21.149978850000004,53.0,79.0
37,20.944621912500004,21.246407325000003,60.0,78.0
38,20.516050912500003,21.619621237500002,48.0,69.0
39,20.301765412500004,21.644621212500002,41.0,83.0
40,21.158907412500003,22.0089065625,65.0,82.0
41,21.5874784125,22.091049337500003,53.0,82.0
42,22.444620412500004,22.748191537500002,52.0,83.0
43,22.658905912500003,22.924977075000005,59.0,80.0
44,23.301762412500004,23.667833475000002,52.0,82.0
45,22.230334912500002,23.671404900000002,47.0,75.0
46,22.016049412500003,23.696404875000002,40.0,84.0
47,22.873191412500002,23.703547725000004,64.0,85.0
48,23.944618912500005,25.071403500000002,52.0,82.0
49,23.730333412500002,25.108903462500002,45.0,83.0
50,24.373189912500003,25.399974600000004,64.0,81.0
51,24.5874754125,25.401760312500002,69.0,81.0
52,24.158904412500004,25.432117425000005,57.0,80.0
53,25.658902912500004,26.799973200000004,47.0,78.0
54,25.873188412500003,26.880330262500003,52.0,76.0
55,25.444617412500005,26.928544500000005,40.0,84.0
56,26.087473912500002,26.991044437500005,59.0,77.0
57,26.301759412500004,27.207115650000002,64.0,84.0
58,27.801757912500005,28.128543300000004,60.0,67.0
59,28.016043412500004,28.274971725000004,65.0,72.0
60,27.587472412500002,28.291043137500004,53.0,74.0
61,27.373186912500003,28.623185662500003,48.0,71.0
62,27.158901412500004,28.671399900000004,41.0,82.0
63,28.230328912500003,28.967828175000005,60.0,81.0
64,28.444614412500005,29.003542425000003,53.0,73.0
65,29.516041912500004,29.819613037500005,59.0,78.0
66,29.301756412500005,30.096398475000004,52.0,83.0
67,28.873185412500003,30.374969625000006,40.0,85.0
68,29.087470912500002,30.399969600000006,47.0,72.0
69,30.158898412500005,30.519612337500003,52.0,83.0
70,29.730327412500003,30.699969300000003,64.0,89.0
71,31.016040412500004,31.362468637500005,57.0,72.0
72,31.444611412500006,31.508897062500004,57.0,59.0
73,30.801754912500005,31.855325287500005,52.0,73.0
74,30.587469412500003,31.885682400000004,45.0,80.0
75,31.230325912500003,31.919610937500003,64.0,81.0
76,31.444611412500006,32.33568195,69.0,83.0
77,31.873182412500004,32.4053247375,57.0,78.0
78,32.7303244125,33.242823900000005,55.0,86.0
79,32.944609912500006,33.3160381125,62.0,83.0
80,32.5160389125,33.948180337500006,50.0,77.0
81,32.301753412500005,33.983894587500004,43.0,83.0
82,33.58746641250001,33.983894587500004,55.0,82.0
83,33.1588954125,34.00532313750001,67.0,83.0
84,33.8017519125,34.010680275000006,62.0,76.0
85,34.4446084125,34.864250850000005,53.0,79.0
86,34.658893912500005,34.96067932500001,60.0,78.0
87,34.23032291250001,35.33389323750001,48.0,69.0
88,34.016037412500005,35.35889321250001,41.0,83.0
89,34.87317941250001,35.7231785625,65.0,82.0
90,35.301750412500006,35.805321337500004,53.0,82.0
91,36.1588924125,36.46246353750001,52.0,83.0
92,36.373177912500005,36.639249075,59.0,80.0
93,37.016034412500005,37.382105475,52.0,82.0
94,35.94460691250001,37.38567690000001,47.0,75.0
95,35.730321412500004,37.41067687500001,40.0,84.0
96,36.58746341250001,37.41781972500001,64.0,85.0
97,37.658890912500006,38.7856755,52.0,82.0
98,37.4446054125,38.823175462500004,45.0,83.0
99,38.087461912500004,39.11424660000001,64.0,81.0
100,38.301747412500006,39.1160323125,69.0,81.0
101,37.87317641250001,39.146389425,57.0,80.0
102,39.373174912500005,40.514245200000005,47.0,78.0
103,39.58746041250001,40.594602262500004,52.0,76.0
104,39.1588894125,40.6428165,40.0,84.0
105,39.8017459125,40.7053164375,59.0,77.0
106,40.016031412500006,40.92162301666667,64.0,84.0
107,41.51796912916667,41.84569086666667,60.0,67.0
108,41.732868629166674,41.99253885833334,65.0,72.0
109,41.30306962916667,42.00865632083334,53.0,74.0
110,41.08817012916667,42.34175054583334,48.0,71.0
111,40.873270629166676,42.39010293333334,41.0,82.0
112,41.947768129166676,42.687380575000006,60.0,81.0
113,42.16266762916667,42.72319715833334,53.0,73.0
114,43.022265629166675,43.530861112500006,55.0,82.0
115,43.23716512916667,43.822766266666676,64.0,80.0
116,43.88186362916667,44.223912000000006,64.0,81.0
117,43.66696412916667,44.26151941250001,55.0,87.0
118,42.807366129166674,44.270473558333336,43.0,71.0
119,43.45206462916667,44.277636875000006,67.0,81.0
120,42.59246662916667,44.28659102083334,36.0,82.0
121,44.74146162916667,45.08888248750001,57.0,72.0
122,45.171260629166675,45.23573047916667,57.0,59.0
123,44.52656212916667,45.583151337500006,52.0,73.0
124,44.31166262916667,45.61359543333334,45.0,80.0
125,44.95636112916667,45.64762118750001,64.0,81.0
126,45.171260629166675,46.064884383333336,69.0,83.0
127,45.60105962916667,46.13472672083334,57.0,78.0
128,46.460657629166676,46.9746256,55.0,86.0
129,46.67555712916667,47.04804959583334,62.0,83.0
130,46.245758129166674,47.682003120833336,50.0,77.0
131,46.03085862916667,47.71781970416667,43.0,83.0
132,47.320255629166674,47.71781970416667,55.0,82.0
133,46.89045662916667,47.739309654166675,67.0,83.0
134,47.535155129166675,47.74468214166667,62.0,76.0
135,48.17985362916667,48.66874999166667,57.0,77.0
136,48.39475312916667,48.675913308333335,62.0,82.0
137,47.75005462916667,49.17376381666667,38.0,86.0
138,47.96495412916667,49.191672108333336,45.0,78.0
139,49.03945162916667,49.43701570416667,57.0,77.0
140,48.609652629166675,49.45134233750001,66.0,93.0
141,49.25435112916667,49.49611306666667,62.0,76.0
142,49.89904962916667,50.33422111666667,52.0,76.0
143,50.11394912916667,50.36645604166667,59.0,82.0
144,50.54374812916667,50.81176362083334,52.0,87.0
145,50.75819224583334,51.133191870833336,59.0,79.0
146,50.32884862916667,51.133191870833336,64.0,87.0
147,50.97247774583334,51.145691858333336,52.0,82.0
148,49.684150129166675,51.16354898333334,47.0,75.0
149,49.46925062916667,51.20283465833334,40.0,89.0
150,51.61533424583334,52.36354778333334,53.0,84.0
151,51.18676324583334,52.73854740833334,41.0,84.0
152,51.401048745833336,52.76354738333334,48.0,79.0
153,51.82961974583334,52.88854725833334,60.0,82.0
154,52.043905245833336,53.21176122083334,65.0,83.0
155,53.11533274583334,53.41533244583334,55.0,82.0
156,53.32961824583334,53.66890362083334,60.0,80.0
157,53.54390374583334,53.83140345833334,55.0,84.0
158,53.97247474583334,54.26176017083334,55.0,77.0
159,52.90104724583334,54.32426010833334,48.0,88.0
160,53.758189245833336,54.33676009583334,64.0,86.0
161,54.18676024583334,54.40640288333334,60.0,72.0
162,54.61533124583334,54.874259558333335,57.0,75.0
163,54.61533124583334,54.95818804583334,62.0,78.0
164,55.04390224583334,55.34211623333334,57.0,82.0
165,55.25818774583334,55.51711605833334,62.0,75.0
166,54.82961674583334,55.68497303333334,45.0,70.0
167,54.61533124583334,55.73318727083334,38.0,84.0
168,55.47247324583334,56.10461547083334,66.0,80.0
169,55.90104424583334,56.16711540833334,57.0,74.0
170,56.32961524583334,56.60640068333334,59.0,71.0
171,56.32961524583334,56.62961494583334,64.0,79.0
172,56.75818624583334,57.11890017083334,59.0,76.0
173,56.54390074583334,57.30639998333334,47.0,73.0
174,57.18675724583334,57.41354273333334,64.0,85.0
175,57.40104274583334,57.65461392083334,59.0,84.0
176,56.32961524583334,57.67247104583334,40.0,85.0
177,57.61532824583334,57.78139950833334,47.0,82.0
178,57.82961374583334,57.87247084583334,59.0,68.0
179,58.68675574583334,58.95639833333334,57.0,68.0
180,58.47247024583334,59.20461237083334,53.0,83.0
181,58.04389924583334,59.43496928333334,41.0,83.0
182,58.25818474583334,59.45461212083334,48.0,80.0
183,59.32961224583334,59.49389779583334,53.0,82.0
184,58.90104124583334,59.80639748333334,65.0,84.0
185,59.75818324583334,59.94746877083334,55.0,71.0
186,59.75818324583334,60.04746867083334,60.0,75.0
187,59.97246874583334,60.20461137083334,55.0,83.0
188,60.18675424583334,60.43675399583334,60.0,75.0
189,60.401039745833344,60.52603962083334,55.0,82.0
190,60.61532524583334,60.87782498333334,55.0,82.0
191,60.61532524583334,61.04389624583334,64.0,85.0
192,59.75818324583334,61.09925333333334,48.0,86.0
193,61.04389624583334,61.15103899583334,60.0,78.0
194,61.47246724583334,61.659967058333336,57.0,76.0
195,61.47246724583334,61.77425265833334,62.0,78.0
196,61.90103824583334,62.19568080833334,57.0,86.0
197,62.11532374583334,62.377823483333344,62.0,77.0
198,62.32960924583334,62.76353738333334,66.0,85.0
199,61.68675274583334,62.85996585833334,45.0,77.0
200,61.47246724583334,62.87782298333334,38.0,85.0
201,62.758180245833344,62.90460867083334,62.0,80.0
202,63.18675124583334,63.47603667083334,64.0,78.0
203,63.18675124583334,63.50639378333334,68.0,82.0
204,63.61532224583334,63.86175057083334,64.0,88.0
205,63.82960774583334,63.92960764583334,68.0,83.0
206,64.04389324583335,64.21353593333335,64.0,87.0
207,64.04389324583335,64.44389284583335,71.0,83.0
208,64.47246424583334,64.85639243333334,64.0,87.0
209,63.18675124583334,64.86532099583334,40.0,85.0
210,63.40103674583334,64.86710670833334,47.0,73.0
211,64.90103524583334,65.28853485833334,64.0,82.0
212,64.90103524583334,65.33139195833334,57.0,77.0
213,65.32960624583335,65.83496288333335,52.0,75.0
214,65.75817724583334,65.94210563333334,57.0,76.0
215,65.75817724583334,65.97424845833334,60.0,85.0
216,65.75817724583334,66.00817699583334,64.0,85.0
217,64.90103524583334,66.06174837083334,45.0,83.0
218,65.97246274583334,66.10817689583334,52.0,82.0
219,66.18674824583334,66.39031947083333,57.0,82.0
220,66.61531924583335,66.86174757083334,59.0,79.0
221,66.61531924583335,66.88853325833334,64.0,82.0
222,67.04389024583334,67.34746137083334,59.0,82.0
223,67.25817574583334,67.38317562083334,64.0,76.0
224,66.82960474583334,67.68317532083334,47.0,71.0
225,67.47246124583334,67.69210388333335,59.0,82.0
226,66.61531924583335,67.80817519583334,40.0,84.0
227,67.47246124583334,67.86353228333334,67.0,77.0
228,67.47246124583334,67.88138940833335,64.0,83.0
229,67.90103224583333,68.00638928333333,59.0,87.0
230,68.32960324583334,68.75817424583335,57.0,77.0
231,68.32960324583334,68.80460277083334,53.0,78.0
232,68.75817424583335,69.26888802083334,48.0,74.0
233,68.32960324583334,69.37067363333334,41.0,83.0
234,69.18674524583334,69.40281645833335,57.0,84.0
235,69.18674524583334,69.42067358333334,53.0,80.0
236,69.18674524583334,69.44745927083335,60.0,83.0
237,69.61531624583334,69.75817324583335,41.0,82.0
238,70.04388724583335,70.16710140833334,55.0,80.0
239,70.04388724583335,70.30995840833334,60.0,82.0
240,70.25817274583335,70.51174392083334,55.0,80.0
241,70.47245824583334,70.68138660833334,60.0,78.0
242,70.90102924583334,71.13674329583334,55.0,84.0
243,70.90102924583334,71.19745752083334,64.0,86.0
244,70.04388724583335,71.25817174583334,48.0,85.0
245,71.32960024583335,71.43674299583334,55.0,83.0
246,71.32960024583335,71.45102869583334,60.0,83.0
247,71.75817124583334,71.99209958333334,57.0,76.0
248,71.75817124583334,72.24031362083335,62.0,78.0
249,72.18674224583334,72.43317057083334,57.0,77.0
250,71.75817124583334,72.71531314583333,50.0,78.0
251,72.61531324583333,72.81888447083334,57.0,82.0
252,72.61531324583333,72.87602727083333,62.0,85.0
253,72.82959874583334,72.91174152083335,50.0,84.0
254,72.61531324583333,72.94209863333334,65.0,83.0
255,73.04388424583334,73.38495533333334,57.0,83.0
256,73.25816974583334,73.41174102083335,62.0,78.0
257,73.47245524583334,73.78674064583333,60.0,82.0
258,73.47245524583334,73.91531194583334,57.0,77.0
259,73.90102624583335,74.38852575833334,52.0,78.0
260,74.32959724583334,74.55995415833334,64.0,87.0
261,74.32959724583334,74.57245414583335,57.0,84.0
262,73.47245524583334,74.63673979583334,45.0,83.0
263,74.54388274583334,74.68495403333334,52.0,84.0
264,74.75816824583335,74.88316812083335,57.0,83.0
265,75.18673924583334,75.67423875833335,53.0,77.0
266,75.18673924583334,75.87602427083334,60.0,78.0
267,75.82959574583334,75.94923848333335,53.0,82.0
268,75.61531024583334,76.15816684583334,48.0,80.0
269,75.18673924583334,76.33673809583334,41.0,78.0
270,76.04388124583335,76.34209523333334,57.0,87.0
271,76.04388124583335,76.35638093333334,53.0,84.0
272,76.04388124583335,76.42959514583335,60.0,85.0
273,76.47245224583334,76.51530934583334,41.0,43.0
274,76.47245224583334,76.57959499583335,48.0,77.0
275,76.90102324583334,77.31887997083334,59.0,83.0
276,76.90102324583334,77.44209413333334,64.0,85.0
277,77.54387974583335,77.64387964583334,59.0,80.0
278,77.32959424583333,77.82780803333334,47.0,78.0
279,77.75816524583334,78.00637928333335,59.0,83.0
280,77.75816524583334,78.22602192083335,64.0,86.0
281,77.75816524583334,78.52780733333334,68.0,84.0
282,78.40102174583335,78.58495013333334,64.0,80.0
283,78.18673624583334,78.60816439583334,59.0,82.0
284,76.90102324583334,78.63495008333334,40.0,84.0
285,77.97245074583334,78.65280720833334,47.0,77.0
286,78.61530724583335,79.00280685833334,64.0,82.0
287,78.61530724583335,79.04566395833334,57.0,77.0
288,79.04387824583334,79.54923488333334,52.0,75.0
289,79.47244924583335,79.65637763333334,57.0,76.0
290,79.47244924583335,79.68852045833334,60.0,85.0
291,79.47244924583335,79.72244899583335,64.0,85.0
292,78.61530724583335,79.77602037083335,45.0,83.0
293,79.68673474583335,79.82244889583335,52.0,82.0
294,79.90102024583334,80.10459147083334,57.0,82.0
295,80.32959124583334,80.57601957083334,59.0,79.0
296,80.32959124583334,80.60280525833335,64.0,82.0
297,80.75816224583335,81.06173337083334,59.0,82.0
298,80.97244774583334,81.09744762083335,64.0,76.0
299,80.54387674583334,81.39744732083335,47.0,71.0
300,81.18673324583334,81.40637588333334,59.0,82.0
301,80.32959124583334,81.52244719583334,40.0,84.0
302,81.18673324583334,81.57780428333334,67.0,77.0
303,81.18673324583334,81.59566140833334,64.0,83.0
304,81.61530424583334,81.72066128333334,59.0,87.0
305,82.04387524583335,82.47244624583334,57.0,77.0
306,82.04387524583335,82.51887477083335,53.0,78.0
307,82.47244624583334,82.98316002083334,48.0,74.0
308,82.04387524583335,83.08494563333335,41.0,83.0
309,82.90101724583334,83.11708845833334,57.0,84.0
310,82.90101724583334,83.13494558333335,53.0,80.0
311,82.90101724583334,83.16173127083334,60.0,83.0
312,83.32958824583335,83.47244524583334,41.0,82.0
313,83.75815924583334,83.88137340833335,55.0,80.0
314,83.75815924583334,84.02423040833335,60.0,82.0
315,83.97244474583334,84.22601592083333,55.0,80.0
316,84.18673024583335,84.39565860833335,60.0,78.0
317,84.61530124583334,84.85101529583335,55.0,84.0
318,84.61530124583334,84.91172952083335,64.0,86.0
319,83.75815924583334,84.97244374583335,48.0,85.0
320,85.04387224583334,85.15101499583335,55.0,83.0
321,85.04387224583334,85.16530069583334,60.0,83.0
322,85.47244324583335,85.70637158333335,57.0,76.0
323,85.47244324583335,85.95458562083334,62.0,78.0
324,85.90101424583335,86.14744257083333,57.0,77.0
325,85.47244324583335,86.42958514583334,50.0,78.0
326,86.32958524583334,86.53315647083335,57.0,82.0
327,86.32958524583334,86.59029927083334,62.0,85.0
328,86.54387074583335,86.62601352083334,50.0,84.0
329,86.32958524583334,86.65637063333335,65.0,83.0
330,86.75815624583333,87.09922733333335,57.0,83.0
331,86.97244174583335,87.12601302083334,62.0,78.0
332,87.18672724583334,87.50101264583334,60.0,82.0
333,87.18672724583334,87.62958394583335,57.0,77.0
334,87.61529824583334,88.10279775833334,52.0,78.0
335,88.04386924583335,88.27422615833333,64.0,87.0
336,88.04386924583335,88.28672614583334,57.0,84.0
337,87.18672724583334,88.35101179583334,45.0,83.0
338,88.25815474583334,88.39922603333335,52.0,84.0
339,88.47244024583335,88.59744012083334,57.0,83.0
340,88.90101124583335,89.35458222083335,59.0,82.0
341,88.90101124583335,89.40815359583334,63.0,79.0
342,89.54386774583335,89.66529619583335,59.0,83.0
343,89.32958224583334,89.91172452083335,54.0,77.0
344,89.75815324583334,90.08493863333334,59.0,87.0
345,89.75815324583334,90.08851005833334,66.0,82.0
346,88.90101124583335,90.17422425833334,47.0,83.0
347,90.18672424583335,90.28315272083334,54.0,75.0
348,90.61529524583335,90.97065203333335,52.0,80.0
349,90.61529524583335,91.07958049583334,59.0,78.0
350,91.47243724583335,91.71529414583335,52.0,83.0
351,91.47243724583335,91.74207983333335,56.0,80.0
352,91.90100824583334,91.99565100833334,59.0,84.0
353,91.04386624583334,92.09565090833334,47.0,84.0
354,90.61529524583335,92.11350803333335,40.0,85.0
355,92.32957924583334,94.02600612083334,59.0,82.0
356,92.32957924583334,94.02600612083334,64.0,83.0
357,92.32957924583334,94.04564895833335,40.0,82.0
358,94.04386324583334,94.54921988333334,60.0,78.0
359,94.04386324583334,94.57421985833335,57.0,73.0
360,94.47243424583334,94.66707690833334,64.0,82.0
361,94.90100524583335,95.08493363333335,64.0,84.0
362,94.90100524583335,95.09743362083334,60.0,86.0
363,94.90100524583335,95.10636218333335,57.0,79.0
364,94.90100524583335,95.14921928333334,69.0,77.0
365,94.04386324583334,95.33671909583335,45.0,82.0
366,96.18671824583335,96.44207513333335,52.0,81.0
367,96.18671824583335,96.45100369583335,59.0,76.0
368,96.61528924583334,96.80814619583334,52.0,83.0
369,96.61528924583334,96.87243184583335,64.0,84.0
370,96.61528924583334,96.89564610833335,59.0,83.0
371,95.75814724583334,96.97778888333335,40.0,88.0
372,97.47243124583335,97.94028792083334,57.0,75.0
373,97.47243124583335,97.96350218333335,53.0,75.0
374,97.90100224583335,98.06350208333335,60.0,78.0
375,98.32957324583334,98.54921588333335,53.0,79.0
376,98.32957324583334,98.63850150833335,65.0,78.0
377,97.47243124583335,98.80635848333336,41.0,83.0
378,99.18671524583334,99.66350048333334,59.0,75.0
379,99.18671524583334,99.70100044583334,52.0,78.0
380,99.61528624583335,99.74207183333334,56.0,83.0
381,99.18671524583334,100.26885702083334,40.0,84.0
382,100.04385724583335,100.28671414583334,52.0,82.0
383,100.04385724583335,100.28671414583334,56.0,84.0
384,100.04385724583335,100.40992830833335,64.0,84.0
385,100.90099924583335,101.45814154583334,60.0,82.0
386,100.90099924583335,101.47957009583334,57.0,77.0
387,101.32957024583334,101.51707005833335,64.0,78.0
388,101.75814124583334,101.97421245833334,57.0,76.0
389,101.75814124583334,101.99921243333335,60.0,82.0
390,101.75814124583334,102.04385524583336,69.0,76.0
391,100.90099924583335,102.11349803333334,45.0,84.0
392,102.61528324583335,103.18849695833335,59.0,75.0
393,102.61528324583335,103.26706830833334,64.0,82.0
394,103.47242524583334,103.65456792083334,59.0,81.0
395,103.04385424583334,103.66885362083335,47.0,79.0
396,102.61528324583335,103.76706780833334,40.0,86.0
397,103.47242524583334,103.84028202083334,71.0,81.0
398,103.47242524583334,103.86171057083334,64.0,83.0
399,104.32956724583335,104.86528099583334,57.0,76.0
400,104.32956724583335,104.88492383333335,53.0,77.0
401,104.75813824583335,104.94206663333335,60.0,77.0
402,105.18670924583336,105.43849470833334,53.0,82.0
403,105.18670924583336,105.55456602083335,57.0,82.0
404,104.32956724583335,105.55635173333334,41.0,83.0
405,105.18670924583336,105.59028027083335,65.0,80.0
406,106.04385124583334,106.52599362083335,59.0,76.0
407,106.04385124583334,106.56170787083335,52.0,77.0
408,106.90099324583335,107.02420740833335,52.0,79.0
409,106.90099324583335,107.65277820833334,56.0,69.0
410,106.47242224583334,107.65813534583334,47.0,71.0
411,107.32956424583335,107.67063533333334,52.0,83.0
412,106.90099324583335,107.68670674583335,59.0,73.0
413,106.04385124583334,107.69206388333335,40.0,84.0
414,106.90099324583335,107.70099244583335,64.0,82.0
415,107.97242074583335,109.09920533333334,52.0,82.0
416,107.75813524583334,109.13670529583334,45.0,83.0
417,108.40099174583335,109.42777643333335,64.0,81.0
418,108.61527724583334,109.42956214583334,69.0,81.0
419,108.18670624583335,109.45991925833334,57.0,80.0
420,109.68670474583334,110.82777503333335,47.0,78.0
421,109.90099024583336,110.90813209583334,52.0,76.0
422,109.47241924583335,110.95634633333336,40.0,84.0
423,110.11527574583334,111.01884627083335,59.0,77.0
424,110.32956124583335,111.23491748333335,64.0,84.0
425,111.82955974583335,112.15634513333335,60.0,67.0
426,112.04384524583335,112.30277355833334,65.0,72.0
427,111.61527424583335,112.31884497083334,53.0,74.0
428,111.40098874583335,112.65098749583335,48.0,71.0
429,111.18670324583334,112.69920173333335,41.0,82.0
430,112.25813074583334,112.99563000833335,60.0,81.0
431,112.47241624583334,113.03134425833335,53.0,73.0
432,113.54384374583336,113.84741487083335,59.0,78.0
433,113.32955824583334,114.12420030833334,52.0,83.0
434,112.90098724583335,114.40277145833335,40.0,85.0
435,113.11527274583335,114.42777143333335,47.0,72.0
436,114.18670024583335,114.54741417083335,52.0,83.0
437,113.75812924583335,114.72777113333335,64.0,89.0
438,115.04384224583335,115.39027047083334,57.0,72.0
439,115.47241324583335,115.53669889583335,57.0,59.0
440,114.82955674583334,115.88312712083335,52.0,73.0
441,114.61527124583334,115.91348423333335,45.0,80.0
442,115.25812774583335,115.94741277083335,64.0,81.0
443,115.47241324583335,116.36348378333335,69.0,83.0
444,115.90098424583334,116.43312657083335,57.0,78.0
445,116.75812624583335,117.27062573333335,55.0,86.0
446,116.97241174583334,117.34383994583335,62.0,83.0
447,116.54384074583335,117.97598217083335,50.0,77.0
448,116.32955524583335,118.01169642083335,43.0,83.0
449,117.61526824583335,118.01169642083335,55.0,82.0
450,117.18669724583334,118.03312497083334,67.0,83.0
451,117.82955374583335,118.03848210833334,62.0,76.0
452,118.47241024583334,118.89205268333335,53.0,79.0
453,118.68669574583335,118.98848115833334,60.0,78.0
454,118.25812474583334,119.36169507083335,48.0,69.0
455,118.04383924583335,119.38669504583335,41.0,83.0
456,118.90098124583335,119.75098039583335,65.0,82.0
457,119.32955224583334,119.83312317083335,53.0,82.0
458,120.18669424583335,120.49026537083334,52.0,83.0
459,120.40097974583335,120.66705090833335,59.0,80.0
460,121.04383624583335,121.40990730833335,52.0,82.0
461,119.97240874583335,121.41347873333335,47.0,75.0
462,119.75812324583335,121.43847870833335,40.0,84.0
463,120.61526524583334,121.44562155833334,64.0,85.0
464,121.68669274583335,122.81347733333335,52.0,82.0
465,121.47240724583335,122.85097729583335,45.0,83.0
466,122.11526374583335,123.14204843333334,64.0,81.0
467,122.32954924583335,123.14383414583335,69.0,81.0
468,121.90097824583334,123.17419125833335,57.0,80.0
469,123.40097674583335,124.54204703333335,47.0,78.0
470,123.61526224583335,124.62240409583335,52.0,76.0
471,123.18669124583334,124.67061833333335,40.0,84.0
472,123.82954774583335,124.73311827083334,59.0,77.0
473,124.04383324583335,124.94918948333334,64.0,84.0
474,125.54383174583334,125.87061713333335,60.0,67.0
475,125.75811724583335,126.01704555833335,65.0,72.0
476,125.32954624583334,126.03311697083335,53.0,74.0
477,125.11526074583335,126.36525949583334,48.0,71.0
478,124.90097524583335,126.41347373333335,41.0,82.0
479,125.97240274583335,126.70990200833334,60.0,81.0
480,126.18668824583335,126.74561625833334,53.0,73.0
481,127.04383024583335,127.55097259583334,55.0,82.0
482,127.25811574583335,127.84204373333336,64.0,80.0
483,127.90097224583334,128.24204333333336,64.0,81.0
484,127.68668674583336,128.27954329583335,55.0,87.0
485,126.82954474583335,128.28847185833337,43.0,71.0
486,127.47240124583335,128.29561470833335,67.0,81.0
487,126.61525924583334,128.30454327083334,36.0,82.0
488,128.75811424583335,129.10454247083334,57.0,72.0
489,129.18668524583336,129.25097089583335,57.0,59.0
490,128.54382874583337,129.59739912083336,52.0,73.0
491,128.32954324583335,129.62775623333334,45.0,80.0
492,128.97239974583334,129.66168477083335,64.0,81.0
493,129.18668524583336,130.07775578333334,69.0,83.0
494,129.61525624583334,130.14739857083333,57.0,78.0
495,130.47239824583335,130.98489773333336,55.0,86.0
496,130.68668374583336,131.05811194583333,62.0,83.0
497,130.25811274583333,131.69025417083336,50.0,77.0
498,130.04382724583337,131.72596842083334,43.0,83.0
499,131.32954024583336,131.72596842083334,55.0,82.0
500,130.90096924583335,131.74739697083334,67.0,83.0
501,131.54382574583335,131.75275410833336,62.0,76.0
502,132.18668224583337,132.67418175833336,57.0,77.0
503,132.40096774583336,132.68132460833334,62.0,82.0
504,131.75811124583333,133.17775268333335,38.0,86.0
505,131.97239674583335,133.19560980833336,45.0,78.0
506,133.04382424583335,133.44025242083336,57.0,77.0
507,132.61525324583334,133.45453812083335,66.0,93.0
508,133.25810974583334,133.49918093333335,62.0,76.0
509,133.90096624583333,134.33489438333334,52.0,76.0
510,134.11525174583335,134.36703720833333,59.0,82.0
511,134.54382274583335,134.81167962083333,52.0,87.0
512,134.75810824583334,135.13310787083336,59.0,79.0
513,134.32953724583336,135.13310787083336,64.0,87.0
514,134.97239374583336,135.14560785833334,52.0,82.0
515,133.68668074583337,135.16346498333337,47.0,75.0
516,133.47239524583335,135.20275065833334,40.0,89.0
517,135.61525024583335,136.36346378333334,53.0,84.0
518,135.18667924583335,136.73846340833336,41.0,84.0
519,135.40096474583333,136.76346338333335,48.0,79.0
520,135.82953574583337,136.88846325833333,60.0,82.0
521,136.04382124583336,137.21167722083334,65.0,83.0
522,137.11524874583336,137.41524844583336,55.0,82.0
523,137.32953424583334,137.66881962083335,60.0,80.0
524,137.54381974583333,137.83131945833335,55.0,84.0
525,137.97239074583337,138.26167617083337,55.0,77.0
526,136.90096324583334,138.32417610833335,48.0,88.0
527,137.75810524583335,138.33667609583335,64.0,86.0
528,138.18667624583335,138.40631888333337,60.0,72.0
529,138.61524724583336,138.87417555833335,57.0,75.0
530,138.61524724583336,138.95810404583335,62.0,78.0
531,139.04381824583334,139.34203223333336,57.0,82.0
532,139.25810374583335,139.51703205833337,62.0,75.0
533,138.82953274583335,139.68488903333335,45.0,70.0
534,138.61524724583336,139.73310327083334,38.0,84.0
535,139.47238924583337,140.10453147083336,66.0,80.0
536,139.90096024583335,140.16703140833334,57.0,74.0
537,140.32953124583335,140.60631668333335,59.0,71.0
538,140.32953124583335,140.62953094583335,64.0,79.0
539,140.75810224583336,141.11881617083336,59.0,76.0
540,140.54381674583334,141.30631598333335,47.0,73.0
541,141.18667324583333,141.41345873333336,64.0,85.0
542,141.40095874583335,141.65452992083334,59.0,84.0
543,140.32953124583335,141.67238704583335,40.0,85.0
544,141.61524424583337,141.78131550833336,47.0,82.0
545,141.82952974583336,141.87238684583335,59.0,68.0
546,142.68667174583334,142.95631433333335,57.0,68.0
547,142.47238624583335,143.20597995000003,53.0,83.0
548,142.04381524583334,143.43799397500004,41.0,83.0
549,142.25810074583336,143.4577781166667,48.0,80.0
550,143.33187903333337,143.49734640000003,53.0,82.0
551,142.90095724583335,143.81209410833335,65.0,84.0
552,143.76353303333337,143.95418021666669,55.0,71.0
553,143.76353303333337,144.05489948333337,60.0,75.0
554,143.97936003333336,144.2131726166667,55.0,83.0
555,144.19518703333335,144.44698520000003,60.0,75.0
556,144.41101403333337,144.5369131166667,55.0,82.0
557,144.62684103333336,144.89122910833336,55.0,82.0
558,144.62684103333336,145.05849503333337,64.0,85.0
559,143.76353303333337,145.1142503416667,48.0,86.0
560,145.05849503333337,145.16640853333337,60.0,78.0
561,145.49014903333335,145.67899765833337,57.0,76.0
562,145.49014903333335,145.7941053916667,62.0,78.0
563,145.92180303333336,146.21856515833338,57.0,86.0
564,146.13763003333335,146.40201810833335,62.0,77.0
565,146.35345703333337,146.79050670833337,66.0,85.0
566,145.70597603333337,146.88762885833336,45.0,77.0
567,145.49014903333335,146.9056144416667,38.0,85.0
568,146.78511103333335,146.9325928166667,62.0,80.0
569,147.21676503333336,147.50808010000003,64.0,78.0
570,147.21676503333336,147.5384372125,68.0,82.0
571,147.64736567500003,147.893794,64.0,88.0
572,147.86165117500002,147.96165107500002,68.0,83.0
573,148.075936675,148.24557936250002,64.0,87.0
574,148.075936675,148.475936275,71.0,83.0
575,148.504507675,148.88843586250002,64.0,87.0
576,147.21676503333336,148.89736442500003,40.0,85.0
577,147.43259203333335,148.89915013750002,47.0,73.0
578,148.93307867500002,149.3205782875,64.0,82.0
579,148.93307867500002,149.36343538750003,57.0,77.0
580,149.36164967500002,149.86700631250002,52.0,75.0
581,149.79022067500003,149.97414906250003,57.0,76.0
582,149.79022067500003,150.00629188750003,60.0,85.0
583,149.79022067500003,150.04022042500003,64.0,85.0
584,148.93307867500002,150.09379180000002,45.0,83.0
585,150.00450617500002,150.14022032500003,52.0,82.0
586,150.21879167500003,150.42236290000002,57.0,82.0
587,150.647362675,150.89379100000002,59.0,79.0
588,150.647362675,150.92057668750002,64.0,82.0
589,151.07593367500002,151.37950480000003,59.0,82.0
590,151.29021917500003,151.41521905000002,64.0,76.0
591,150.86164817500003,151.71521875000002,47.0,71.0
592,151.50450467500002,151.7241473125,59.0,82.0
593,150.647362675,151.84021862500003,40.0,84.0
594,151.50450467500002,151.89557571250003,67.0,77.0
595,151.50450467500002,151.9134328375,64.0,83.0
596,151.93307567500003,152.03843271250003,59.0,87.0
597,152.36164667500003,152.790217675,57.0,77.0
598,152.36164667500003,152.83664620000002,53.0,78.0
599,152.790217675,153.30093145,48.0,74.0
600,152.36164667500003,153.40271706250002,41.0,83.0
601,153.218788675,153.4348598875,57.0,84.0
602,153.218788675,153.45271701250002,53.0,80.0
603,153.218788675,153.4795027,60.0,83.0
604,153.64735967500002,153.790216675,41.0,82.0
605,154.07593067500002,154.19914483750003,55.0,80.0
606,154.07593067500002,154.34200183750002,60.0,82.0
607,154.290216175,154.54378735000003,55.0,80.0
608,154.50450167500003,154.71343003750002,60.0,78.0
609,154.93307267500003,155.16878672500002,55.0,84.0
610,154.93307267500003,155.22950095000002,64.0,86.0
611,154.07593067500002,155.29021517500001,48.0,85.0
612,155.361643675,155.46878642500002,55.0,83.0
613,155.361643675,155.48307212500004,60.0,83.0
614,155.79021467500002,156.02414301250002,57.0,76.0
615,155.79021467500002,156.27235705,62.0,78.0
616,156.21878567500002,156.46521400000003,57.0,77.0
617,155.79021467500002,156.74735657500003,50.0,78.0
618,156.64735667500003,156.85092790000002,57.0,82.0
619,156.64735667500003,156.90807070000002,62.0,85.0
620,156.86164217500001,156.94378495,50.0,84.0
621,156.64735667500003,156.97414206250002,65.0,83.0
622,157.07592767500003,157.41699876250001,57.0,83.0
623,157.29021317500002,157.44378445,62.0,78.0
624,157.50449867500004,157.81878407500002,60.0,82.0
625,157.50449867500004,157.94735537500003,57.0,77.0
626,157.933069675,158.42056918750004,52.0,78.0
627,158.36164067500002,158.59199758750003,64.0,87.0
628,158.36164067500002,158.604497575,57.0,84.0
629,157.50449867500004,158.66878322500003,45.0,83.0
630,158.57592617500003,158.71699746250002,52.0,84.0
631,158.79021167500002,158.91521155,57.0,83.0
632,159.21878267500003,159.70628218750002,53.0,77.0
633,159.21878267500003,159.90806770000003,60.0,78.0
634,159.86163917500002,159.98128191250004,53.0,82.0
635,159.64735367500003,160.19021027500003,48.0,80.0
636,159.21878267500003,160.36878152500003,41.0,78.0
637,160.075924675,160.37413866250003,57.0,87.0
638,160.075924675,160.38842436250002,53.0,84.0
639,160.075924675,160.46163857500002,60.0,85.0
640,160.50449567500002,160.54735277500004,41.0,43.0
641,160.50449567500002,160.61163842500002,48.0,77.0
642,160.93306667500002,161.35092340000003,59.0,83.0
643,160.93306667500002,161.47413756250003,64.0,85.0
644,161.575923175,161.67592307500001,59.0,80.0
645,161.36163767500003,161.85985146250002,47.0,78.0
646,161.79020867500003,162.03842271250002,59.0,83.0
647,161.79020867500003,162.25806535000004,64.0,86.0
648,161.79020867500003,162.55985076250002,68.0,84.0
649,162.43306517500002,162.61699356250003,64.0,80.0
650,162.21877967500004,162.64020782500003,59.0,82.0
651,160.93306667500002,162.66699351250003,40.0,84.0
652,162.00449417500002,162.68485063750003,47.0,77.0
653,162.647350675,163.03485028750003,64.0,82.0
654,162.647350675,163.07770738750003,57.0,77.0
655,163.07592167500002,163.58127831250002,52.0,75.0
656,163.50449267500002,163.68842106250003,57.0,76.0
657,163.50449267500002,163.72056388750002,60.0,85.0
658,163.50449267500002,163.75449242500002,64.0,85.0
659,162.647350675,163.8080638,45.0,83.0
660,163.718778175,163.85449232500002,52.0,82.0
661,163.93306367500003,164.13663490000002,57.0,82.0
662,164.36163467500003,164.60806300000002,59.0,79.0
663,164.36163467500003,164.63484868750004,64.0,82.0
664,164.79020567500004,165.09377680000003,59.0,82.0
665,165.00449117500003,165.12949105,64.0,76.0
666,164.57592017500002,165.42949075,47.0,71.0
667,165.21877667500002,165.43841931250003,59.0,82.0
668,164.36163467500003,165.55449062500003,40.0,84.0
669,165.21877667500002,165.60984771250003,67.0,77.0
670,165.21877667500002,165.62770483750003,64.0,83.0
671,165.64734767500002,165.75270471250002,59.0,87.0
672,166.07591867500003,166.50448967500003,57.0,77.0
673,166.07591867500003,166.5509182,53.0,78.0
674,166.50448967500003,167.01520345000003,48.0,74.0
675,166.07591867500003,167.1169890625,41.0,83.0
676,166.93306067500004,167.14913188750003,57.0,84.0
677,166.93306067500004,167.16698901250004,53.0,80.0
678,166.93306067500004,167.19377470000003,60.0,83.0
679,167.361631675,167.50448867500003,41.0,82.0
680,167.79020267500002,167.91341683750002,55.0,80.0
681,167.79020267500002,168.05627383750002,60.0,82.0
682,168.00448817500003,168.25805935000002,55.0,80.0
683,168.21877367500002,168.4277020375,60.0,78.0
684,168.64734467500003,168.883058725,55.0,84.0
685,168.64734467500003,168.94377295000004,64.0,86.0
686,167.79020267500002,169.004487175,48.0,85.0
687,169.07591567500003,169.183058425,55.0,83.0
688,169.07591567500003,169.19734412500003,60.0,83.0
689,169.504486675,169.7384150125,57.0,76.0
690,169.504486675,169.98662905000003,62.0,78.0
691,169.93305767500001,170.17948600000003,57.0,77.0
692,169.504486675,170.46162857500002,50.0,78.0
693,170.36162867500002,170.56519990000004,57.0,82.0
694,170.36162867500002,170.62234270000002,62.0,85.0
695,170.57591417500004,170.65805695000003,50.0,84.0
696,170.36162867500002,170.68841406250002,65.0,83.0
697,170.79019967500003,171.13127076250004,57.0,83.0
698,171.004485175,171.15805645000003,62.0,78.0
699,171.21877067500003,171.53305607500002,60.0,82.0
700,171.21877067500003,171.66162737500002,57.0,77.0
701,171.64734167500004,172.13484118750003,52.0,78.0
702,172.075912675,172.30626958750003,64.0,87.0
703,172.075912675,172.31876957500003,57.0,84.0
704,171.21877067500003,172.38305522500002,45.0,83.0
705,172.29019817500003,172.4312694625,52.0,84.0
706,172.50448367500002,172.62948355000003,57.0,83.0
707,172.93305467500002,173.38662565,59.0,82.0
708,172.93305467500002,173.44019702500003,63.0,79.0
709,173.57591117500002,173.697339625,59.0,83.0
710,173.36162567500003,173.94376795000002,54.0,77.0
711,173.79019667500003,174.11698206250003,59.0,87.0
712,173.79019667500003,174.12055348750002,66.0,82.0
713,172.93305467500002,174.20626768750003,47.0,83.0
714,174.21876767500004,174.31519615000002,54.0,75.0
715,174.64733867500001,175.00269546250001,52.0,80.0
716,174.64733867500001,175.11162392500003,59.0,78.0
717,175.50448067500002,175.74733757500002,52.0,83.0
718,175.50448067500002,175.77412326250004,56.0,80.0
719,175.93305167500003,176.02769443750003,59.0,84.0
720,175.07590967500002,176.12769433750003,47.0,84.0
721,174.64733867500001,176.1455514625,40.0,85.0
722,176.36162267500004,176.74912228750003,64.0,82.0
723,176.36162267500004,176.79197938750002,57.0,77.0
724,176.790193675,177.29555031250004,52.0,75.0
725,177.21876467500002,177.40269306250002,57.0,76.0
726,177.21876467500002,177.43483588750001,60.0,85.0
727,177.21876467500002,177.46876442500002,64.0,85.0
728,176.36162267500004,177.52233580000004,45.0,83.0
729,177.43305017500003,177.56876432500002,52.0,82.0
730,177.64733567500002,177.85090690000004,57.0,82.0
731,178.07590667500003,178.322335,59.0,79.0
732,178.07590667500003,178.34912068750003,64.0,82.0
733,178.50447767500003,178.80804880000002,59.0,82.0
734,178.71876317500002,178.84376305000004,64.0,76.0
735,178.29019217500002,179.14376275000004,47.0,71.0
736,178.93304867500004,179.15269131250002,59.0,82.0
737,178.07590667500003,179.26876262500002,40.0,84.0
738,178.93304867500004,179.32411971250002,67.0,77.0
739,178.93304867500004,179.34197683750003,64.0,83.0
740,179.36161967500001,179.4669767125,59.0,87.0
741,179.79019067500002,180.21876167500002,57.0,77.0
742,179.79019067500002,180.26519020000003,53.0,78.0
743,180.21876167500002,180.72947545000002,48.0,74.0
744,179.79019067500002,180.83126106250003,41.0,83.0
745,180.64733267500003,180.86340388750003,57.0,84.0
746,180.64733267500003,180.88126101250003,53.0,80.0
747,180.64733267500003,180.90804670000003,60.0,83.0
748,181.07590367500003,181.21876067500003,41.0,82.0
749,181.50447467500004,181.62768883750002,55.0,80.0
750,181.50447467500004,181.77054583750004,60.0,82.0
751,181.71876017500003,181.97233135000002,55.0,80.0
752,181.93304567500002,182.14197403750003,60.0,78.0
753,182.36161667500002,182.59733072500003,55.0,84.0
754,182.36161667500002,182.65804495000003,64.0,86.0
755,181.50447467500004,182.71875917500003,48.0,85.0
756,182.79018767500003,182.89733042500004,55.0,83.0
757,182.79018767500003,182.91161612500002,60.0,83.0
758,183.21875867500003,183.45268701250004,57.0,76.0
759,183.21875867500003,183.70090105000003,62.0,78.0
760,183.64732967500004,183.89375800000002,57.0,77.0
761,183.21875867500003,184.17590057500001,50.0,78.0
762,184.075900675,184.27947190000003,57.0,82.0
763,184.075900675,184.33661470000004,62.0,85.0
764,184.29018617500003,184.37232895000002,50.0,84.0
765,184.075900675,184.40268606250004,65.0,83.0
766,184.50447167500002,184.84554276250003,57.0,83.0
767,184.71875717500004,184.87232845000003,62.0,78.0
768,184.93304267500002,185.24732807500004,60.0,82.0
769,184.93304267500002,185.37589937500002,57.0,77.0
770,185.36161367500003,185.84911318750002,52.0,78.0
771,185.79018467500003,186.02054158750002,64.0,87.0
772,185.79018467500003,186.03304157500003,57.0,84.0
773,184.93304267500002,186.09732722500002,45.0,83.0
774,186.00447017500002,186.14554146250003,52.0,84.0
775,186.218755675,186.34375555000003,57.0,83.0
776,186.64732667500002,187.13482618750004,53.0,77.0
777,186.64732667500002,187.33661170000002,60.0,78.0
778,187.29018317500004,187.40982591250003,53.0,82.0
779,187.07589767500002,187.61875427500001,48.0,80.0
780,186.64732667500002,187.79732552500002,41.0,78.0
781,187.50446867500003,187.80268266250002,57.0,87.0
782,187.50446867500003,187.81696836250003,53.0,84.0
783,187.50446867500003,187.89018257500004,60.0,85.0
784,187.93303967500003,187.97589677500002,41.0,43.0
785,187.93303967500003,188.040182425,48.0,77.0
786,188.36161067500004,188.77946740000004,59.0,83.0
787,188.36161067500004,188.90268156250002,64.0,85.0
788,189.00446717500003,189.10446707500003,59.0,80.0
789,188.79018167500004,189.28839546250003,47.0,78.0
790,189.21875267500002,189.46696671250004,59.0,83.0
791,189.21875267500002,189.68660935000003,64.0,86.0
792,189.21875267500002,189.98839476250004,68.0,84.0
793,189.861609175,190.04553756250004,64.0,80.0
794,189.64732367500002,190.06875182500002,59.0,82.0
795,188.36161067500004,190.09553751250002,40.0,84.0
796,189.43303817500004,190.11339463750002,47.0,77.0
797,190.07589467500003,190.46339428750002,64.0,82.0
798,190.07589467500003,190.50625138750001,57.0,77.0
799,190.50446567500003,191.00982231250003,52.0,75.0
800,190.93303667500004,191.11696506250001,57.0,76.0
801,190.93303667500004,191.14910788750004,60.0,85.0
802,190.93303667500004,191.183036425,64.0,85.0
803,190.07589467500003,191.23660780000003,45.0,83.0
804,191.14732217500003,191.283036325,52.0,82.0
805,191.36160767500002,191.56517890000003,57.0,82.0
806,191.79017867500002,192.03660700000003,59.0,79.0
807,191.79017867500002,192.06339268750003,64.0,82.0
808,192.21874967500003,192.52232080000002,59.0,82.0
809,192.43303517500004,192.55803505000003,64.0,76.0
810,192.004464175,192.85803475000003,47.0,71.0
811,192.64732067500003,192.86696331250002,59.0,82.0
812,191.79017867500002,192.98303462500002,40.0,84.0
813,192.64732067500003,193.03839171250002,67.0,77.0
814,192.64732067500003,193.05624883750002,64.0,83.0
815,193.07589167500004,193.18124871250004,59.0,87.0
816,193.504462675,193.93303367500002,57.0,77.0
817,193.504462675,193.97946220000003,53.0,78.0
818,193.93303367500002,194.44374745000002,48.0,74.0
819,193.504462675,194.54553306250003,41.0,83.0
820,194.36160467500002,194.57767588750002,57.0,84.0
821,194.36160467500002,194.59553301250003,53.0,80.0
822,194.36160467500002,194.62231870000002,60.0,83.0
823,194.79017567500003,194.93303267500002,41.0,82.0
824,195.21874667500003,195.34196083750004,55.0,80.0
825,195.21874667500003,195.48481783750003,60.0,82.0
826,195.43303217500002,195.68660335000004,55.0,80.0
827,195.647317675,195.85624603750003,60.0,78.0
828,196.07588867500004,196.31160272500003,55.0,84.0
829,196.07588867500004,196.37231695000003,64.0,86.0
830,195.21874667500003,196.43303117500002,48.0,85.0
831,196.50445967500002,196.61160242500003,55.0,83.0
832,196.50445967500002,196.62588812500002,60.0,83.0
833,196.93303067500003,197.16695901250003,57.0,76.0
834,196.93303067500003,197.41517305000002,62.0,78.0
835,197.36160167500003,197.60803000000004,57.0,77.0
836,196.93303067500003,197.89017257500004,50.0,78.0
837,197.79017267500004,197.99374390000003,57.0,82.0
838,197.79017267500004,198.05088670000004,62.0,85.0
839,198.00445817500002,198.08660095000002,50.0,84.0
840,197.79017267500004,198.11695806250003,65.0,83.0
841,198.21874367500004,198.55981476250003,57.0,83.0
842,198.43302917500003,198.58660045000002,62.0,78.0
843,198.64731467500002,198.96160007500004,60.0,82.0
844,198.64731467500002,199.090171375,57.0,77.0
845,199.07588567500002,199.56338518750002,52.0,78.0
846,199.50445667500003,199.7348135875,64.0,87.0
847,199.50445667500003,199.74731357500002,57.0,84.0
848,198.64731467500002,199.81159922500004,45.0,83.0
849,199.71874217500005,199.85981346250003,52.0,84.0
850,199.93302767500003,200.05802755000002,57.0,83.0
851,200.36159867500004,200.81516965000003,59.0,82.0
852,200.36159867500004,200.86874102500002,63.0,79.0
853,201.00445517500003,201.12588362500003,59.0,83.0
854,200.79016967500002,201.37231195000004,54.0,77.0
855,201.21874067500002,201.54552606250002,59.0,87.0
856,201.21874067500002,201.54909748750003,66.0,82.0
857,200.36159867500004,201.63481168750002,47.0,83.0
858,201.64731167500003,201.74374015000004,54.0,75.0
859,202.07588267500003,202.43123946250003,52.0,80.0
860,202.07588267500003,202.54016792500002,59.0,78.0
861,202.933024675,203.17588157500003,52.0,83.0
862,202.933024675,203.20266726250003,56.0,80.0
863,203.36159567500002,203.45623843750002,59.0,84.0
864,202.50445367500004,203.55623833750002,47.0,84.0
865,202.07588267500003,203.57409546250003,40.0,85.0
866,203.79016667500002,204.04016642500002,57.0,74.0
867,203.79016667500002,204.05802355000003,60.0,76.0
868,204.21873767500003,204.40266606250003,64.0,82.0
869,204.64730867500003,204.85087990000002,57.0,79.0
870,204.64730867500003,204.89016557500003,69.0,82.0
871,203.79016667500002,205.04373685000002,45.0,84.0
872,205.07587967500004,205.16873672500003,64.0,74.0
873,205.07587967500004,205.19552241250003,57.0,72.0
874,205.50445067500004,205.775878975,59.0,75.0
875,205.50445067500004,205.96337878750003,64.0,78.0
876,205.93302167500002,206.19194998750004,59.0,87.0
877,206.36159267500003,206.55266391250004,59.0,83.0
878,205.50445067500004,206.58480673750003,40.0,84.0
879,206.36159267500003,206.66337808750004,64.0,85.0
880,206.36159267500003,206.76873512500003,67.0,82.0
881,207.21873467500004,207.697305625,53.0,76.0
882,207.21873467500004,207.70087705000003,57.0,73.0
883,207.64730567500004,207.81516265000002,60.0,77.0
884,208.07587667500002,208.29194788750004,53.0,78.0
885,208.07587667500002,208.49016197500003,65.0,81.0
886,207.21873467500004,208.50980481250002,41.0,83.0
887,208.50444767500002,208.61516185000002,53.0,77.0
888,208.50444767500002,208.6526618125,60.0,75.0
889,208.93301867500003,209.12944705000004,55.0,75.0
890,208.93301867500003,209.41337533750004,60.0,75.0
891,209.36158967500003,209.59194658750005,55.0,82.0
892,209.79016067500004,209.93837481250003,55.0,82.0
893,208.93301867500003,209.99016047500004,48.0,84.0
894,209.79016067500004,210.08301752500003,60.0,84.0
895,209.79016067500004,210.11337463750004,64.0,83.0
896,210.64730267500002,210.83480248750004,57.0,78.0
897,210.64730267500002,211.15623073750004,65.0,80.0
898,211.07587367500003,211.27587347500003,57.0,80.0
899,210.64730267500002,211.61158742500004,38.0,84.0
900,211.50444467500003,211.66337308750002,57.0,82.0
901,211.50444467500003,211.95980136250003,62.0,82.0
902,211.93301567500004,212.06337268750002,57.0,82.0
903,212.361586675,212.71872917500002,60.0,74.0
904,212.361586675,212.78658625000003,64.0,81.0
905,212.79015767500005,213.02051458750003,57.0,78.0
906,213.21872867500002,213.39194278750003,57.0,79.0
907,213.21872867500002,213.57944260000005,52.0,82.0
908,212.361586675,213.60979971250003,45.0,82.0
909,213.21872867500002,213.64194253750003,60.0,78.0
910,213.64729967500003,213.7490852875,57.0,82.0
911,214.07587067500003,214.31337043750003,53.0,77.0
912,214.07587067500003,214.34729897500003,57.0,74.0
913,214.504441675,214.57944160000002,57.0,73.0
914,214.504441675,214.78479853750002,60.0,81.0
915,214.93301267500004,215.17408386250003,53.0,83.0
916,214.07587067500003,215.34729797500003,41.0,83.0
917,214.93301267500004,215.39551221250002,65.0,82.0
918,215.79015467500003,216.06872582500003,59.0,83.0
919,215.79015467500003,216.14372575000004,64.0,83.0
920,216.21872567500003,216.46515400000004,59.0,86.0
921,216.64729667500004,216.80086795000003,59.0,84.0
922,216.64729667500004,216.87943930000003,64.0,86.0
923,216.64729667500004,216.96515350000004,68.0,83.0
924,216.21872567500003,217.44908158750002,47.0,82.0
925,215.79015467500003,217.45622443750003,40.0,86.0
926,217.07586767500004,217.47408156250003,59.0,82.0
927,217.07586767500004,217.47586727500004,64.0,83.0
928,217.50443867500002,217.75443842500005,57.0,74.0
929,217.50443867500002,217.77229555000002,60.0,76.0
930,217.93300967500005,218.11693806250003,64.0,82.0
931,218.36158067500003,218.56515190000005,57.0,79.0
932,218.36158067500003,218.60443757500002,69.0,82.0
933,217.50443867500002,218.75800885,45.0,84.0
934,218.79015167500003,218.88300872500002,64.0,74.0
935,218.79015167500003,218.90979441250005,57.0,72.0
936,219.21872267500004,219.49015097500003,59.0,75.0
937,219.21872267500004,219.67765078750003,64.0,78.0
938,219.64729367500001,219.90622198750003,59.0,87.0
939,220.07586467500005,220.26693591250003,59.0,83.0
940,219.21872267500004,220.29907873750003,40.0,84.0
941,220.07586467500005,220.37765008750003,64.0,85.0
942,220.07586467500005,220.48300712500003,67.0,82.0
943,220.93300667500003,221.41157762500004,53.0,76.0
944,220.93300667500003,221.41514905000002,57.0,73.0
945,221.36157767500004,221.52943465000004,60.0,77.0
946,221.790148675,222.00621988750004,53.0,78.0
947,221.790148675,222.20443397500003,65.0,81.0
948,220.93300667500003,222.22407681250002,41.0,83.0
949,222.21871967500005,222.32943385000004,53.0,77.0
950,222.21871967500005,222.36693381250004,60.0,75.0
951,222.64729067500002,222.84371905000003,55.0,75.0
952,222.64729067500002,223.12764733750004,60.0,75.0
953,223.07586167500003,223.30621858750004,55.0,82.0
954,223.50443267500003,223.65264681250005,55.0,82.0
955,222.64729067500002,223.70443247500003,48.0,84.0
956,223.50443267500003,223.79728952500002,60.0,84.0
957,223.50443267500003,223.82764663750004,64.0,83.0
958,224.36157467500004,224.54907448750004,57.0,78.0
959,224.36157467500004,224.87050273750003,65.0,80.0
960,224.79014567500002,224.99014547500002,57.0,80.0
961,224.36157467500004,225.32585942500003,38.0,84.0
962,225.21871667500002,225.3776450875,57.0,82.0
963,225.21871667500002,225.67407336250002,62.0,82.0
964,225.64728767500003,225.77764468750001,57.0,82.0
965,226.07585867500003,226.43300117500002,60.0,74.0
966,226.07585867500003,226.50085825000002,64.0,81.0
967,226.50442967500004,226.73478658750003,57.0,78.0
968,226.93300067500002,227.10621478750005,57.0,79.0
969,226.93300067500002,227.29371460000004,52.0,82.0
970,226.07585867500003,227.32407171250003,45.0,82.0
971,226.93300067500002,227.35621453750002,60.0,78.0
972,227.36157167500005,227.46335728750003,57.0,82.0
973,227.79014267500003,228.02764243750005,53.0,77.0
974,227.79014267500003,228.06157097500005,57.0,74.0
975,228.21871367500003,228.29371360000005,57.0,73.0
976,228.21871367500003,228.49907053750002,60.0,81.0
977,228.64728467500004,228.88835586250002,53.0,83.0
978,227.79014267500003,229.06156997500003,41.0,83.0
979,228.64728467500004,229.10978421250002,65.0,82.0
980,229.50442667500005,229.78299782500005,59.0,83.0
981,229.50442667500005,229.85799775000004,64.0,83.0
982,229.93299767500002,230.17942600000003,59.0,86.0
983,230.36156867500003,230.51513995000005,59.0,84.0
984,230.36156867500003,230.59371130000005,64.0,86.0
985,230.36156867500003,230.67942550000004,68.0,83.0
986,229.93299767500002,231.1633535875,47.0,82.0
987,229.50442667500005,231.17049643750005,40.0,86.0
988,230.79013967500003,231.18835356250003,59.0,82.0
989,230.79013967500003,231.19013927500004,64.0,83.0
990,231.218710675,231.46871042500004,57.0,74.0
991,231.218710675,231.48656755000002,60.0,76.0
992,231.64728167500004,231.83121006250002,64.0,82.0
993,232.07585267500002,232.27942390000004,57.0,79.0
994,232.07585267500002,232.318709575,69.0,82.0
995,231.218710675,232.47228085000003,45.0,84.0
996,232.50442367500003,232.59728072500002,64.0,74.0
997,232.50442367500003,232.62406641250004,57.0,72.0
998,232.93299467500003,233.20442297500003,59.0,75.0
999,232.93299467500003,233.39192278750005,64.0,78.0
1000,233.36156567500004,233.62049398750003,59.0,87.0
1001,233.79013667500004,233.98120791250005,59.0,83.0
1002,232.93299467500003,234.01335073750005,40.0,84.0
1003,233.79013667500004,234.09192208750005,64.0,85.0
1004,233.79013667500004,234.19727912500002,67.0,82.0
1005,234.64727867500005,235.12584962500003,53.0,76.0
1006,234.64727867500005,235.12942105000002,57.0,73.0
1007,235.07584967500003,235.24370665000004,60.0,77.0
1008,235.50442067500003,235.72049188750003,53.0,78.0
1009,235.50442067500003,235.91870597500002,65.0,81.0
1010,234.64727867500005,235.93834881250004,41.0,83.0
1011,235.93299167500004,236.04370585000004,53.0,77.0
1012,235.93299167500004,236.08120581250003,60.0,75.0
1013,236.36156267500002,236.55799105000003,55.0,75.0
1014,236.36156267500002,236.84191933750003,60.0,75.0
1015,236.79013367500005,237.02049058750003,55.0,82.0
1016,237.21870467500003,237.36691881250005,55.0,82.0
1017,236.36156267500002,237.41870447500003,48.0,84.0
1018,237.21870467500003,237.51156152500005,60.0,84.0
1019,237.21870467500003,237.54191863750003,64.0,83.0
1020,238.07584667500004,238.26334648750003,57.0,78.0
1021,238.07584667500004,238.58477473750003,65.0,80.0
1022,238.504417675,238.704417475,57.0,80.0
1023,238.07584667500004,239.04013142500003,38.0,84.0
1024,238.93298867500005,239.09191708750004,57.0,82.0
1025,238.93298867500005,239.38834536250005,62.0,82.0
1026,239.36155967500002,239.49191668750004,57.0,82.0
1027,239.79013067500003,240.14727317500004,60.0,74.0
1028,239.79013067500003,240.21513025000002,64.0,81.0
1029,240.21870167500003,240.44905858750002,57.0,78.0
1030,240.64727267500004,240.82048678750004,57.0,79.0
1031,240.64727267500004,241.00798660000004,52.0,82.0
1032,239.79013067500003,241.03834371250002,45.0,82.0
1033,240.64727267500004,241.07048653750002,60.0,78.0
1034,241.07584367500004,241.17762928750005,57.0,82.0
1035,241.50441467500002,241.74191443750004,53.0,77.0
1036,241.50441467500002,241.77584297500005,57.0,74.0
1037,241.93298567500005,242.00798560000004,57.0,73.0
1038,241.93298567500005,242.21334253750004,60.0,81.0
1039,242.36155667500003,242.60262786250001,53.0,83.0
1040,241.50441467500002,242.77584197500005,41.0,83.0
1041,242.36155667500003,242.82405621250004,65.0,82.0
1042,243.21869867500004,243.49726982500005,59.0,83.0
1043,243.21869867500004,243.57226975000003,64.0,83.0
1044,243.64726967500002,243.89369800000003,59.0,86.0
1045,244.07584067500005,244.22941195000004,59.0,84.0
1046,244.07584067500005,244.30798330000005,64.0,86.0
1047,244.07584067500005,244.39369750000003,68.0,83.0
1048,243.64726967500002,244.87762558750003,47.0,82.0
1049,243.21869867500004,244.88476843750004,40.0,86.0
1050,244.50441167500003,244.90262556250002,59.0,82.0
1051,244.50441167500003,244.90441127500003,64.0,83.0
1052,244.93298267500003,245.18298242500003,57.0,74.0
1053,244.93298267500003,245.20083955000004,60.0,76.0
1054,245.36155367500004,245.5454820625,64.0,82.0
1055,245.79012467500002,245.99369590000003,57.0,79.0
1056,245.79012467500002,246.03298157500004,69.0,82.0
1057,244.93298267500003,246.18655285000006,45.0,84.0
1058,246.21869567500005,246.311552725,64.0,74.0
1059,246.21869567500005,246.33833841250004,57.0,72.0
1060,246.64726667500003,246.91869497500005,59.0,75.0
1061,246.64726667500003,247.10619478750004,64.0,78.0
1062,247.07583767500003,247.33476598750002,59.0,87.0
1063,247.50440867500004,247.69547991250005,59.0,83.0
1064,246.64726667500003,247.72762273750004,40.0,84.0
1065,247.50440867500004,247.80619408750005,64.0,85.0
1066,247.50440867500004,247.91155112500002,67.0,82.0
1067,248.36155067500005,248.84012162500005,53.0,76.0
1068,248.36155067500005,248.84369305,57.0,73.0
1069,248.79012167500002,248.95797865000003,60.0,77.0
1070,249.21869267500003,249.43476388750003,53.0,78.0
1071,249.21869267500003,249.63297797500002,65.0,81.0
1072,248.36155067500005,249.65262081250003,41.0,83.0
1073,249.64726367500003,249.75797785000003,53.0,77.0
1074,249.64726367500003,249.79547781250005,60.0,75.0
1075,250.07583467500004,250.27226305000005,55.0,75.0
1076,250.07583467500004,250.55619133750002,60.0,75.0
1077,250.50440567500004,250.73476258750003,55.0,82.0
1078,250.93297667500002,251.08119081250004,55.0,82.0
1079,250.07583467500004,251.13297647500002,48.0,84.0
1080,250.93297667500002,251.22583352500004,60.0,84.0
1081,250.93297667500002,251.25619063750003,64.0,83.0
1082,251.79011867500003,251.97761848750002,57.0,78.0
1083,251.79011867500003,252.29904673750002,65.0,80.0
1084,252.21868967500004,252.41868947500004,57.0,80.0
1085,251.79011867500003,252.75440342500002,38.0,84.0
1086,252.64726067500004,252.80618908750003,57.0,82.0
1087,252.64726067500004,253.10261736250004,62.0,82.0
1088,253.07583167500002,253.20618868750003,57.0,82.0
1089,253.50440267500005,253.86154517500003,60.0,74.0
1090,253.50440267500005,253.92940225000004,64.0,81.0
1091,253.93297367500003,254.16333058750004,57.0,78.0
1092,254.36154467500003,254.53475878750004,57.0,79.0
1093,254.36154467500003,254.72225860000003,52.0,82.0
1094,253.50440267500005,254.75261571250002,45.0,82.0
1095,254.36154467500003,254.78475853750004,60.0,78.0
1096,254.79011567500004,254.89190128750005,57.0,82.0
1097,255.21868667500001,255.45618643750004,53.0,77.0
1098,255.21868667500001,255.49011497500004,57.0,74.0
1099,255.64725767500005,255.72225760000003,57.0,73.0
1100,255.64725767500005,255.92761453750003,60.0,81.0
1101,256.075828675,256.3168998625,53.0,83.0
1102,255.21868667500001,256.49011397500004,41.0,83.0
1103,256.075828675,256.5383282125,65.0,82.0
1104,256.93297067500004,257.21154182500004,59.0,83.0
1105,256.93297067500004,257.28654175,64.0,83.0
1106,257.361541675,257.60797,59.0,86.0
1107,257.79011267500005,257.94368395000004,59.0,84.0
1108,257.79011267500005,258.02225530000004,64.0,86.0
1109,257.79011267500005,258.1079695,68.0,83.0
1110,257.361541675,258.59189758750006,47.0,82.0
1111,256.93297067500004,258.59904043750004,40.0,86.0
1112,258.218683675,258.6168975625,59.0,82.0
1113,258.218683675,258.618683275,64.0,83.0
