,start,end,pitch,velocity
0,15.797037022916665,16.614838022916665,74.0,80.0
1,16.739838022916665,17.312103647916665,74.0,81.0
2,17.442963022916665,17.620697397916665,74.0,78.0
3,17.677338022916665,18.130463022916665,75.0,74.0
4,18.146088022916665,18.591400522916665,74.0,79.0
5,18.614838022916665,19.122650522916665,72.0,72.0
6,19.083588022916665,19.567963022916665,70.0,75.0
7,19.552338022916665,20.327728647916665,74.0,69.0
8,20.489838022916665,21.093353647916665,74.0,80.0
9,21.192963022916665,21.376556772916665,74.0,76.0
10,21.427338022916665,21.907806772916665,75.0,70.0
11,21.896088022916665,22.335541147916665,74.0,78.0
12,22.364838022916665,22.868744272916665,72.0,74.0
13,22.833588022916665,23.314056772916665,70.0,77.0
14,23.302338022916665,23.636322397916665,69.0,63.0
15,23.536713022916665,23.829681772916665,70.0,59.0
16,24.005463022916665,24.989838022916665,70.0,75.0
17,24.942963022916665,24.989838022916665,70.0,74.0
18,25.177338022916665,25.521088022916665,77.0,69.0
19,25.646088022916665,26.163666147916665,75.0,74.0
20,26.114838022916665,26.550384897916665,74.0,76.0
21,26.583588022916665,26.817963022916665,72.0,72.0
22,26.817963022916665,27.099213022916665,70.0,66.0
23,27.052338022916665,28.771088022916665,74.0,68.0
24,28.927338022916665,30.177338022916665,72.0,69.0
25,30.802338022916665,31.614838022916665,74.0,80.0
26,31.739838022916665,32.312103647916665,74.0,81.0
27,32.442963022916665,32.620697397916665,74.0,78.0
28,32.677338022916665,33.130463022916665,75.0,74.0
29,33.146088022916665,33.591400522916665,74.0,79.0
30,33.614838022916665,34.122650522916665,72.0,72.0
31,34.083588022916665,34.567963022916665,70.0,75.0
32,34.552338022916665,35.327728647916665,74.0,69.0
33,35.489838022916665,36.093353647916665,74.0,80.0
34,36.192963022916665,36.376556772916665,74.0,76.0
35,36.427338022916665,36.907806772916665,75.0,70.0
36,36.896088022916665,37.335541147916665,74.0,78.0
37,37.364838022916665,37.868744272916665,72.0,74.0
38,37.833588022916665,38.314056772916665,70.0,77.0
39,38.302338022916665,38.636322397916665,69.0,63.0
40,38.536713022916665,38.829681772916665,70.0,59.0
41,39.005463022916665,39.989838022916665,70.0,75.0
42,39.942963022916665,39.989838022916665,70.0,74.0
43,40.177338022916665,40.521088022916665,77.0,69.0
44,40.646088022916665,41.163666147916665,75.0,74.0
45,41.114838022916665,41.550384897916665,74.0,76.0
46,41.583588022916665,41.817963022916665,72.0,72.0
47,41.817963022916665,42.099213022916665,70.0,66.0
48,42.052338022916665,43.317963022916665,74.0,68.0
49,43.692963022916665,43.849213022916665,72.0,72.0
50,43.927338022916665,44.177338022916665,72.0,74.0
51,44.161713022916665,44.691009897916665,74.0,76.0
52,44.864838022916665,45.286713022916665,74.0,75.0
53,45.333588022916665,45.751556772916665,75.0,75.0
54,45.802338022916665,46.532806772916665,77.0,71.0
55,46.739838022916665,47.316009897916665,77.0,73.0
56,47.442963022916665,47.579681772916665,65.0,71.0
57,47.677338022916665,48.120697397916665,65.0,74.0
58,48.146088022916665,48.579681772916665,77.0,75.0
59,48.614838022916665,49.073822397916665,75.0,75.0
60,49.083588022916665,49.542572397916665,74.0,75.0
61,49.552338022916665,50.339447397916665,72.0,69.0
62,50.489838022916665,50.942963022916665,72.0,74.0
63,50.958588022916665,51.427338022916665,70.0,75.0
64,51.427338022916665,51.884369272916665,72.0,72.0
65,51.896088022916665,52.423431772916665,70.0,67.0
66,52.364838022916665,52.849213022916665,72.0,73.0
67,52.833588022916665,53.327728647916665,74.0,78.0
68,53.302338022916665,54.081634897916665,75.0,72.0
69,54.239838022916665,54.851166147916665,75.0,75.0
70,54.942963022916665,55.089447397916665,67.0,69.0
71,55.177338022916665,55.556244272916665,67.0,70.0
72,55.646088022916665,56.134369272916665,75.0,73.0
73,56.114838022916665,56.579681772916665,74.0,75.0
74,56.583588022916665,57.060150522916665,72.0,69.0
75,57.052338022916665,57.413666147916665,70.0,68.0
76,57.521088022916665,57.896088022916665,70.0,74.0
77,57.989838022916665,58.419525522916665,70.0,75.0
78,58.458588022916665,58.948822397916665,72.0,74.0
79,58.927338022916665,59.786713022916665,69.0,72.0
80,59.864838022916665,60.267181772916665,74.0,76.0
81,60.333588022916665,60.702728647916665,75.0,77.0
82,60.802338022916665,61.702728647916665,77.0,69.0
83,61.739838022916665,62.351166147916665,77.0,74.0
84,62.442963022916665,62.583588022916665,65.0,70.0
85,62.677338022916665,63.062103647916665,65.0,72.0
86,63.146088022916665,63.534759897916665,77.0,74.0
87,63.614838022916665,64.04257239791667,75.0,74.0
88,64.08358802291667,64.51718177291667,74.0,78.0
89,64.55233802291667,65.30624427291667,72.0,71.0
90,65.48983802291667,65.94296302291667,72.0,70.0
91,65.95858802291667,66.34725989791667,70.0,75.0
92,66.42733802291667,66.83749427291667,72.0,69.0
93,66.89608802291667,67.29061927291667,70.0,76.0
94,67.36483802291667,67.76913489791667,72.0,72.0
95,67.83358802291667,68.29257239791667,74.0,75.0
96,68.30233802291667,69.05038489791667,75.0,74.0
97,69.23983802291667,69.85702552291667,75.0,70.0
98,69.94296302291667,70.09530677291667,67.0,69.0
99,70.17733802291667,70.54647864791667,67.0,70.0
100,70.64608802291667,71.05429114791667,75.0,74.0
101,71.11483802291667,71.45858802291667,74.0,76.0
102,71.58358802291667,71.94296302291667,75.0,77.0
103,72.05233802291667,72.82382239791667,77.0,74.0
104,72.98983802291667,73.28671302291667,77.0,71.0
105,73.22421302291667,73.55819739791667,79.0,72.0
106,73.69296302291667,74.96640052291667,77.0,74.0
107,75.80233802291667,76.53671302291667,65.0,76.0
108,76.50546302291667,78.14413489791667,77.0,75.0
109,78.14608802291667,78.53671302291667,74.0,68.0
110,78.61483802291667,79.09335364791667,75.0,78.0
111,79.08358802291667,79.44686927291667,77.0,74.0
112,79.55233802291667,80.48007239791667,77.0,76.0
113,80.94686927291667,81.24960364791667,75.0,75.0
114,81.18124427291667,82.40975989791667,78.0,76.0
115,83.30233802291667,83.97225989791667,68.0,77.0
116,84.00546302291667,85.63436927291667,78.0,75.0
117,85.64608802291667,86.07382239791667,75.0,78.0
118,86.11483802291667,86.57772864791667,77.0,75.0
119,86.58358802291667,86.92733802291667,78.0,75.0
120,87.05233802291667,88.31210364791667,78.0,75.0
121,88.45858802291667,88.82772864791667,77.0,75.0
122,88.92733802291667,89.97421302291667,77.0,78.0
123,90.80233802291667,91.29843177291667,73.0,76.0
124,91.27108802291667,93.14608802291667,80.0,76.0
125,93.14608802291667,93.64218177291667,77.0,74.0
126,93.61483802291667,94.13241614791667,78.0,75.0
127,94.08358802291667,94.42733802291667,80.0,74.0
128,94.55233802291667,95.97030677291667,80.0,75.0
129,95.95858802291667,96.35702552291667,78.0,71.0
130,96.42733802291667,97.45858802291667,78.0,73.0
131,97.83358802291667,98.24765052291667,77.0,56.0
132,98.30233802291667,99.21054114791667,77.0,77.0
133,99.23983802291667,100.09725989791667,75.0,76.0
134,100.17733802291667,101.54452552291667,78.0,74.0
135,101.58358802291667,101.93710364791667,77.0,75.0
136,102.05233802291667,102.51327552291667,77.0,76.0
137,102.52108802291667,104.00155677291667,75.0,75.0
138,103.92733802291667,105.67343177291667,77.0,74.0
139,105.80233802291667,106.53671302291667,65.0,76.0
140,106.50546302291667,108.14413489791667,77.0,75.0
141,108.14608802291667,108.53671302291667,74.0,68.0
142,108.61483802291667,109.09335364791667,75.0,78.0
143,109.08358802291667,109.44686927291667,77.0,74.0
144,109.55233802291667,110.48007239791667,77.0,76.0
145,110.94686927291667,111.24960364791667,75.0,75.0
146,111.18124427291667,112.92733802291667,78.0,76.0
147,113.30233802291667,113.97225989791667,68.0,77.0
148,114.00546302291667,115.63436927291667,78.0,75.0
149,115.64608802291667,116.07382239791667,75.0,78.0
150,116.11483802291667,116.57772864791667,77.0,75.0
151,116.58358802291667,116.92733802291667,78.0,75.0
152,117.05233802291667,118.31210364791667,78.0,75.0
153,118.45858802291667,118.82772864791667,77.0,75.0
154,118.92733802291667,120.44296302291667,77.0,78.0
155,120.80233802291667,121.29843177291667,73.0,76.0
156,121.27108802291667,123.14608802291667,85.0,76.0
157,123.14608802291667,123.64218177291667,82.0,74.0
158,123.61483802291667,124.13241614791667,84.0,75.0
159,124.08358802291667,124.55233802291667,85.0,74.0
160,124.55233802291667,125.97030677291667,84.0,75.0
161,126.19296302291667,126.42733802291667,85.0,71.0
162,126.42733802291667,127.45858802291667,84.0,73.0
163,127.83358802291667,128.24765052291667,77.0,56.0
164,128.30233802291667,129.21054114791667,77.0,77.0
165,129.23983802291667,129.70858802291667,75.0,76.0
166,129.70858802291667,130.17733802291667,70.0,75.0
167,130.17733802291667,130.64608802291667,78.0,74.0
168,130.88046302291667,131.58358802291667,77.0,75.0
169,131.58358802291667,132.04452552291667,75.0,76.0
170,132.05233802291667,134.0203908729167,73.0,75.0
171,165.1731488791667,165.5735395041667,74.0,81.0
172,165.6418988791667,166.0168988791667,75.0,76.0
173,166.1106488791667,166.8821332541667,77.0,76.0
174,167.0481488791667,167.6301801291667,77.0,75.0
175,167.7512738791667,167.9016645041667,65.0,76.0
176,167.9856488791667,168.3958051291667,65.0,77.0
177,168.4543988791667,168.9036176291667,77.0,76.0
178,168.9231488791667,169.4172895041667,75.0,78.0
179,169.3918988791667,169.8879926291667,74.0,81.0
180,169.8606488791667,170.8079145041667,72.0,79.0
181,170.7981488791667,170.8079145041667,72.0,74.0
182,171.2668988791667,171.7473676291667,70.0,76.0
183,171.7356488791667,172.2532270041667,72.0,75.0
184,172.2043988791667,172.6731488791667,70.0,78.0
185,172.6731488791667,173.0793988791667,72.0,76.0
186,173.1418988791667,173.5344770041667,74.0,85.0
187,173.6106488791667,174.4094770041667,75.0,81.0
188,175.2512738791667,175.4075238791667,67.0,75.0
189,175.4856488791667,175.9524457541667,67.0,75.0
190,175.9543988791667,176.4602582541667,75.0,78.0
191,176.4231488791667,176.8606488791667,74.0,81.0
192,176.8918988791667,177.1672895041667,72.0,80.0
193,177.1262738791667,177.6223676291667,70.0,75.0
194,177.7336957541667,177.9758832541667,79.0,76.0
195,177.9797895041667,178.2454145041667,77.0,75.0
196,178.2590863791667,178.5989301291667,74.0,83.0
197,178.5520551291667,178.8879926291667,72.0,81.0
198,178.8997113791667,179.1653363791667,70.0,85.0
199,179.1731488791667,179.4153363791667,74.0,81.0
200,179.4094770041667,180.0208051291667,72.0,77.0
201,180.1731488791667,180.5579145041667,74.0,88.0
202,180.6418988791667,181.0442426291667,75.0,78.0
203,181.1106488791667,181.9583051291667,77.0,76.0
204,182.0481488791667,183.9231488791667,77.0,78.0
205,184.3918988791667,184.7844770041667,70.0,75.0
206,184.8606488791667,185.6633832541667,72.0,73.0
207,185.7981488791667,186.2610395041667,72.0,76.0
208,186.2668988791667,186.7493207541667,70.0,74.0
209,186.7356488791667,187.2200238791667,72.0,75.0
210,187.2043988791667,187.7219770041667,70.0,78.0
211,187.6731488791667,188.0911176291667,72.0,74.0
212,188.1418988791667,188.5520551291667,74.0,83.0
213,188.6106488791667,189.5481488791667,77.0,77.0
214,189.5481488791667,190.9543988791667,75.0,77.0
215,191.8918988791667,192.2161176291667,77.0,81.0
216,192.3606488791667,192.6887738791667,77.0,85.0
217,192.8293988791667,192.9622113791667,77.0,80.0
218,193.0637738791667,193.6633832541667,77.0,80.0
219,193.7668988791667,194.2043988791667,82.0,75.0
220,194.2356488791667,194.7043988791667,84.0,81.0
221,194.7043988791667,195.2727582541667,86.0,76.0
222,196.1106488791667,196.8450238791667,65.0,76.0
223,196.8137738791667,198.4524457541667,77.0,75.0
224,198.4543988791667,198.8450238791667,74.0,68.0
225,198.9231488791667,199.4016645041667,75.0,78.0
226,199.3918988791667,199.7551801291667,77.0,74.0
227,199.8606488791667,200.7883832541667,77.0,76.0
228,201.2551801291667,201.5579145041667,75.0,75.0
229,201.4895551291667,202.7180707541667,78.0,76.0
230,203.6106488791667,204.2805707541667,68.0,77.0
231,204.3137738791667,205.9426801291667,78.0,75.0
232,205.9543988791667,206.3821332541667,75.0,78.0
233,206.4231488791667,206.8860395041667,77.0,75.0
234,206.8918988791667,207.2356488791667,78.0,75.0
235,207.3606488791667,208.6204145041667,78.0,75.0
236,208.7668988791667,209.1360395041667,77.0,75.0
237,209.2356488791667,210.2825238791667,77.0,78.0
238,211.1106488791667,211.6067426291667,73.0,76.0
239,211.5793988791667,213.4543988791667,80.0,76.0
240,213.4543988791667,213.9504926291667,77.0,74.0
241,213.9231488791667,214.4407270041667,78.0,75.0
242,214.3918988791667,214.7356488791667,80.0,74.0
243,214.8606488791667,216.2786176291667,80.0,75.0
244,216.2668988791667,216.6653363791667,78.0,71.0
245,216.7356488791667,217.7668988791667,78.0,73.0
246,218.1418988791667,218.5559613791667,77.0,56.0
247,218.6106488791667,219.5188520041667,77.0,77.0
248,219.5481488791667,220.4055707541667,75.0,76.0
249,220.4856488791667,221.8528363791667,78.0,74.0
250,221.8918988791667,222.2454145041667,77.0,75.0
251,222.3606488791667,222.8215863791667,77.0,76.0
252,222.8293988791667,224.3098676291667,75.0,75.0
253,224.2356488791667,225.9817426291667,77.0,74.0
254,226.1106488791667,226.8450238791667,65.0,76.0
255,226.8137738791667,228.4524457541667,77.0,75.0
256,228.4543988791667,228.8450238791667,74.0,68.0
257,228.9231488791667,229.4016645041667,75.0,78.0
258,229.3918988791667,229.7551801291667,77.0,74.0
259,229.8606488791667,230.7883832541667,77.0,76.0
260,231.2551801291667,231.5579145041667,75.0,75.0
261,231.4895551291667,233.2356488791667,78.0,76.0
262,233.6106488791667,234.2805707541667,68.0,77.0
263,234.3137738791667,235.9426801291667,78.0,75.0
264,235.9543988791667,236.3821332541667,75.0,78.0
265,236.4231488791667,236.8860395041667,77.0,75.0
266,236.8918988791667,237.2356488791667,78.0,75.0
267,237.3606488791667,238.6204145041667,78.0,75.0
268,238.7668988791667,239.1360395041667,77.0,75.0
269,239.2356488791667,240.7512738791667,77.0,78.0
270,241.1106488791667,241.6067426291667,73.0,76.0
271,241.5793988791667,243.4543988791667,85.0,76.0
272,243.4543988791667,243.9504926291667,82.0,74.0
273,243.9231488791667,244.4407270041667,84.0,75.0
274,244.3918988791667,244.8606488791667,85.0,74.0
275,244.8606488791667,246.2786176291667,84.0,75.0
276,246.5012738791667,246.7356488791667,85.0,71.0
277,246.7356488791667,247.7668988791667,84.0,73.0
278,248.1418988791667,248.5559613791667,77.0,56.0
279,248.6106488791667,249.5188520041667,77.0,77.0
280,249.5481488791667,250.0168988791667,75.0,76.0
281,250.0168988791667,250.4856488791667,70.0,75.0
282,250.4856488791667,250.9543988791667,78.0,74.0
283,251.1887738791667,251.8918988791667,77.0,75.0
284,251.8918988791667,252.3528363791667,75.0,76.0
285,252.3606488791667,254.2356488791667,73.0,75.0
286,256.35478950416666,257.04033637916666,73.0,76.0
287,257.13213325416666,258.65947700416666,80.0,75.0
288,258.80596137916666,259.13018012916666,77.0,76.0
289,259.27666450416666,259.62236762916666,78.0,76.0
290,259.75908637916666,260.15166450416666,80.0,79.0
291,260.23760200416666,261.38799262916666,73.0,67.0
292,261.54228950416666,261.98564887916666,75.0,74.0
293,261.96416450416666,263.19853950416666,77.0,65.0
294,263.17314887916666,263.31572700416666,73.0,72.0
295,263.40361762916666,263.58135200416666,73.0,72.0
296,263.62432075416666,263.78643012916666,75.0,75.0
297,263.86846137916666,265.19853950416666,77.0,73.0
298,265.27275825416666,265.44463325416666,75.0,70.0
299,265.52275825416666,265.73369575416666,77.0,64.0
300,265.92314887916666,266.76299262916666,78.0,73.0
301,266.82939887916666,267.88213325416666,77.0,74.0
302,268.01103950416666,270.12041450416666,75.0,74.0
303,270.40752387916666,272.16924262916666,73.0,73.0
