,start,end,pitch,velocity
0,0.5625,0.9140625,62.0,63.0
1,0.546875,0.93359375,58.0,60.0
2,0.53515625,1.63671875,46.0,63.0
3,1.525390625,1.650390625,58.0,67.0
4,1.537109375,1.66796875,62.0,68.0
5,2.23046875,2.677734375,53.0,56.0
6,2.474609375,3.388671875,46.0,67.0
7,3.34765625,3.51953125,58.0,64.0
8,3.353515625,3.552734375,62.0,70.0
9,4.30859375,4.84765625,55.0,61.0
10,4.30078125,4.943359375,58.0,63.0
11,4.306640625,5.19921875,39.0,67.0
12,5.27734375,5.451171875,55.0,40.0
13,5.26171875,5.455078125,58.0,49.0
14,5.689453125,6.044921875,55.0,56.0
15,6.185546875,6.88671875,58.0,63.0
16,6.18359375,6.9609375,55.0,59.0
17,7.169921875,7.39453125,55.0,65.0
18,6.181640625,7.482421875,39.0,60.0
19,7.1796875,7.51953125,62.0,62.0
20,7.162109375,7.55859375,58.0,62.0
21,7.62109375,7.798828125,55.0,49.0
22,8.13671875,8.498046875,62.0,63.0
23,8.109375,8.501953125,53.0,55.0
24,8.109375,8.517578125,58.0,61.0
25,8.994140625,9.173828125,58.0,68.0
26,9.0,9.1953125,62.0,68.0
27,8.103515625,9.220703125,46.0,66.0
28,9.697265625,10.248046875,53.0,63.0
29,9.95703125,10.294921875,57.0,59.0
30,10.861328125,10.951171875,53.0,58.0
31,10.837890625,11.17578125,58.0,65.0
32,9.9375,11.236328125,46.0,68.0
33,10.84765625,11.345703125,62.0,70.0
34,11.3046875,11.42578125,53.0,56.0
35,11.798828125,12.345359375,55.0,56.0
36,11.8046875,12.411359375,58.0,61.0
37,11.80078125,12.921227010416667,39.0,65.0
38,12.7621361875,13.05345834375,55.0,59.0
39,12.7621361875,13.0844500625,58.0,62.0
40,13.641647314583333,13.772448972916665,55.0,50.0
41,13.704938439583332,14.776668156249999,39.0,57.0
42,13.702828735416666,15.594656272916666,58.0,58.0
43,13.782997493749999,15.594656272916666,62.0,53.0
44,15.797037022916665,15.860529022916666,60.0,63.0
45,15.797037022916665,16.409759897916665,62.0,54.0
46,15.797037022916665,16.435150522916665,58.0,61.0
47,16.271088022916665,16.835541147916665,53.0,30.0
48,15.797037022916665,16.888275522916665,46.0,74.0
49,16.739838022916665,16.905853647916665,58.0,74.0
50,16.739838022916665,16.933197397916665,62.0,70.0
51,17.677338022916665,17.942963022916665,53.0,62.0
52,17.677338022916665,18.151947397916665,58.0,59.0
53,17.677338022916665,18.671478647916665,46.0,64.0
54,18.614838022916665,18.786713022916665,62.0,70.0
55,18.614838022916665,18.788666147916665,58.0,69.0
56,19.552338022916665,19.964447397916665,55.0,57.0
57,19.552338022916665,20.038666147916665,58.0,57.0
58,20.255463022916665,20.587494272916665,50.0,18.0
59,20.489838022916665,20.618744272916665,55.0,66.0
60,20.489838022916665,20.626556772916665,58.0,69.0
61,19.552338022916665,20.851166147916665,43.0,67.0
62,21.427338022916665,21.823822397916665,58.0,59.0
63,21.427338022916665,21.831634897916665,62.0,62.0
64,22.364838022916665,22.497650522916665,55.0,65.0
65,21.896088022916665,22.503509897916665,50.0,32.0
66,22.364838022916665,22.569916147916665,58.0,74.0
67,21.427338022916665,22.634369272916665,43.0,61.0
68,22.364838022916665,22.687103647916665,62.0,74.0
69,23.302338022916665,23.792572397916665,55.0,60.0
70,23.302338022916665,23.882416147916665,58.0,60.0
71,24.239838022916665,24.333588022916665,58.0,72.0
72,24.239838022916665,24.333588022916665,63.0,68.0
73,23.771088022916665,24.948822397916665,46.0,32.0
74,23.302338022916665,24.978119272916665,39.0,63.0
75,25.177338022916665,25.585541147916665,55.0,59.0
76,25.177338022916665,25.665619272916665,58.0,60.0
77,25.177338022916665,26.167572397916665,39.0,58.0
78,25.646088022916665,26.183197397916665,46.0,47.0
79,26.114838022916665,26.271088022916665,55.0,69.0
80,26.114838022916665,26.312103647916665,58.0,73.0
81,26.583588022916665,26.702728647916665,55.0,74.0
82,27.052338022916665,27.532806772916665,57.0,64.0
83,27.052338022916665,27.542572397916665,53.0,63.0
84,27.521088022916665,28.099213022916665,48.0,52.0
85,27.989838022916665,28.284759897916665,53.0,65.0
86,27.989838022916665,28.306244272916665,57.0,66.0
87,27.052338022916665,28.388275522916665,41.0,68.0
88,28.927338022916665,29.415619272916665,53.0,58.0
89,28.927338022916665,29.425384897916665,57.0,61.0
90,29.864838022916665,30.079681772916665,53.0,69.0
91,29.396088022916665,30.378509897916665,48.0,55.0
92,29.864838022916665,30.378509897916665,60.0,74.0
93,28.927338022916665,30.401947397916665,41.0,69.0
94,30.333588022916665,30.757416147916665,53.0,69.0
95,30.802338022916665,31.241791147916665,58.0,67.0
96,30.802338022916665,31.819916147916665,46.0,70.0
97,31.739838022916665,31.829681772916665,53.0,64.0
98,31.739838022916665,31.849213022916665,58.0,65.0
99,31.739838022916665,31.858978647916665,62.0,68.0
100,32.677338022916665,32.985931772916665,58.0,60.0
101,32.677338022916665,33.110931772916665,62.0,67.0
102,32.677338022916665,33.833588022916665,46.0,66.0
103,33.614838022916665,33.890228647916665,58.0,75.0
104,33.614838022916665,33.919525522916665,62.0,70.0
105,34.083588022916665,34.239838022916665,57.0,63.0
106,34.552338022916665,34.899994272916665,62.0,68.0
107,34.552338022916665,34.923431772916665,58.0,64.0
108,35.489838022916665,35.616791147916665,55.0,62.0
109,35.489838022916665,35.620697397916665,58.0,63.0
110,35.489838022916665,35.640228647916665,62.0,67.0
111,35.021088022916665,35.706634897916665,50.0,51.0
112,34.552338022916665,35.714447397916665,43.0,71.0
113,36.427338022916665,36.837494272916665,62.0,60.0
114,36.427338022916665,36.847259897916665,55.0,56.0
115,36.427338022916665,36.864838022916665,58.0,58.0
116,37.364838022916665,37.554291147916665,55.0,67.0
117,37.364838022916665,37.569916147916665,58.0,72.0
118,37.364838022916665,37.608978647916665,62.0,71.0
119,36.896088022916665,37.661713022916665,50.0,45.0
120,36.427338022916665,37.726166147916665,43.0,70.0
121,37.833588022916665,38.329681772916665,55.0,68.0
122,38.302338022916665,38.605072397916665,39.0,66.0
123,38.302338022916665,38.931244272916665,58.0,64.0
124,39.202728647916665,39.364838022916665,63.0,68.0
125,39.198822397916665,39.368744272916665,58.0,74.0
126,39.659759897916665,40.232025522916665,55.0,64.0
127,40.155853647916665,40.769134897916665,58.0,58.0
128,40.142181772916665,41.019134897916665,39.0,66.0
129,40.597259897916665,41.023041147916665,46.0,41.0
130,41.077728647916665,41.259369272916665,55.0,68.0
131,41.073822397916665,41.526947397916665,58.0,65.0
132,41.505463022916665,41.726166147916665,55.0,72.0
133,41.970306772916665,42.575775522916665,53.0,63.0
134,41.972259897916665,42.909759897916665,57.0,62.0
135,42.442963022916665,43.599213022916665,48.0,60.0
136,42.941009897916665,43.605072397916665,53.0,75.0
137,41.978119272916665,43.626556772916665,41.0,69.0
138,43.421478647916665,43.646088022916665,57.0,68.0
139,43.899994272916665,44.507416147916665,60.0,66.0
140,43.909759897916665,44.526947397916665,57.0,60.0
141,44.845306772916665,45.060150522916665,53.0,67.0
142,45.298431772916665,45.689056772916665,53.0,73.0
143,44.849213022916665,45.694916147916665,57.0,67.0
144,44.847259897916665,45.704681772916665,60.0,67.0
145,43.880463022916665,45.710541147916665,41.0,70.0
146,45.802338022916665,46.526947397916665,62.0,69.0
147,45.802338022916665,46.773041147916665,57.0,69.0
148,46.739838022916665,46.892181772916665,62.0,74.0
149,45.802338022916665,47.183197397916665,50.0,75.0
150,46.739838022916665,47.216400522916665,65.0,74.0
151,47.208588022916665,47.511322397916665,57.0,56.0
152,47.677338022916665,48.114838022916665,57.0,64.0
153,47.677338022916665,48.114838022916665,62.0,68.0
154,48.614838022916665,48.855072397916665,57.0,73.0
155,48.614838022916665,48.946869272916665,62.0,74.0
156,47.677338022916665,49.056244272916665,50.0,73.0
157,49.083588022916665,49.355072397916665,60.0,67.0
158,49.552338022916665,50.066009897916665,62.0,70.0
159,49.552338022916665,50.124603647916665,55.0,64.0
160,50.021088022916665,50.661713022916665,50.0,56.0
161,50.489838022916665,50.692963022916665,62.0,71.0
162,50.489838022916665,50.724213022916665,55.0,71.0
163,49.552338022916665,50.767181772916665,43.0,74.0
164,51.427338022916665,51.831634897916665,62.0,65.0
165,51.427338022916665,51.855072397916665,55.0,65.0
166,51.896088022916665,52.524994272916665,50.0,51.0
167,51.427338022916665,52.689056772916665,43.0,70.0
168,52.364838022916665,52.782806772916665,62.0,74.0
169,52.364838022916665,52.802338022916665,58.0,72.0
170,52.833588022916665,53.212494272916665,55.0,76.0
171,53.302338022916665,53.763275522916665,63.0,69.0
172,53.302338022916665,53.782806772916665,60.0,72.0
173,54.239838022916665,54.439056772916665,60.0,75.0
174,54.239838022916665,54.464447397916665,63.0,73.0
175,53.302338022916665,54.480072397916665,48.0,70.0
176,55.177338022916665,55.747650522916665,60.0,69.0
177,55.177338022916665,55.786713022916665,63.0,68.0
178,55.646088022916665,55.987884897916665,55.0,58.0
179,55.177338022916665,56.476166147916665,48.0,70.0
180,56.114838022916665,56.567963022916665,63.0,72.0
181,56.114838022916665,56.577728647916665,60.0,74.0
182,56.583588022916665,56.714447397916665,55.0,70.0
183,57.052338022916665,57.636322397916665,60.0,69.0
184,57.052338022916665,58.015228647916665,57.0,63.0
185,57.989838022916665,58.228119272916665,60.0,76.0
186,57.989838022916665,58.378509897916665,65.0,72.0
187,57.521088022916665,58.454681772916665,48.0,55.0
188,58.458588022916665,58.546478647916665,60.0,21.0
189,57.052338022916665,58.560150522916665,41.0,74.0
190,58.458588022916665,59.021088022916665,57.0,65.0
191,58.927338022916665,59.077728647916665,60.0,74.0
192,58.927338022916665,59.181244272916665,65.0,70.0
193,58.927338022916665,59.276947397916665,41.0,71.0
194,59.864838022916665,60.698822397916665,55.0,70.0
195,59.864838022916665,60.716400522916665,58.0,67.0
196,59.864838022916665,60.722259897916665,63.0,67.0
197,59.864838022916665,60.728119272916665,39.0,66.0
198,60.802338022916665,61.526947397916665,62.0,69.0
199,60.802338022916665,61.773041147916665,57.0,69.0
200,61.739838022916665,61.892181772916665,62.0,74.0
201,60.802338022916665,62.183197397916665,50.0,75.0
202,61.739838022916665,62.216400522916665,65.0,74.0
203,62.208588022916665,62.511322397916665,57.0,56.0
204,62.677338022916665,63.114838022916665,57.0,64.0
205,62.677338022916665,63.114838022916665,62.0,68.0
206,63.614838022916665,63.855072397916665,57.0,73.0
207,63.614838022916665,63.946869272916665,62.0,74.0
208,62.677338022916665,64.05624427291667,50.0,73.0
209,64.08358802291667,64.35507239791667,60.0,67.0
210,64.55233802291667,65.06600989791667,62.0,70.0
211,64.55233802291667,65.12460364791667,55.0,64.0
212,65.02108802291667,65.66171302291667,50.0,56.0
213,65.48983802291667,65.69296302291667,62.0,71.0
214,65.48983802291667,65.72421302291667,55.0,71.0
215,64.55233802291667,65.76718177291667,43.0,74.0
216,66.42733802291667,66.83163489791667,62.0,65.0
217,66.42733802291667,66.85507239791667,55.0,65.0
218,66.89608802291667,67.52499427291667,50.0,51.0
219,66.42733802291667,67.68905677291667,43.0,70.0
220,67.36483802291667,67.78280677291667,62.0,74.0
221,67.36483802291667,67.80233802291667,58.0,72.0
222,67.83358802291667,68.21249427291667,55.0,76.0
223,68.30233802291667,68.76327552291667,63.0,69.0
224,68.30233802291667,68.78280677291667,60.0,72.0
225,69.23983802291667,69.43905677291667,60.0,75.0
226,69.23983802291667,69.46444739791667,63.0,73.0
227,68.30233802291667,69.48007239791667,48.0,70.0
228,70.17733802291667,70.74765052291667,60.0,69.0
229,70.17733802291667,70.78671302291667,63.0,68.0
230,70.64608802291667,70.98788489791667,55.0,58.0
231,70.17733802291667,71.47616614791667,48.0,70.0
232,71.11483802291667,71.56796302291667,63.0,72.0
233,71.11483802291667,71.57772864791667,60.0,74.0
234,71.58358802291667,71.71444739791667,55.0,70.0
235,72.05233802291667,72.63632239791667,60.0,69.0
236,72.05233802291667,73.01522864791667,57.0,63.0
237,72.98983802291667,73.22811927291667,60.0,76.0
238,72.98983802291667,73.37850989791667,65.0,72.0
239,72.52108802291667,73.45468177291667,48.0,55.0
240,73.45858802291667,73.54647864791667,60.0,21.0
241,72.05233802291667,73.56015052291667,41.0,74.0
242,73.45858802291667,74.02108802291667,57.0,65.0
243,73.92733802291667,74.07772864791667,60.0,74.0
244,73.92733802291667,74.18124427291667,65.0,70.0
245,73.92733802291667,74.27694739791667,41.0,71.0
246,74.86483802291667,75.13436927291667,53.0,75.0
247,74.86483802291667,75.16952552291667,41.0,75.0
248,75.09921302291667,75.34921302291667,43.0,70.0
249,75.09921302291667,75.38241614791667,55.0,74.0
250,75.33358802291667,75.70077552291667,57.0,70.0
251,75.33358802291667,75.73593177291667,45.0,59.0
252,75.80233802291667,76.26327552291667,65.0,75.0
253,75.80233802291667,76.28866614791667,58.0,67.0
254,76.27108802291667,76.89413489791667,53.0,57.0
255,76.73983802291667,77.03475989791667,62.0,76.0
256,76.73983802291667,77.10311927291667,58.0,74.0
257,76.73983802291667,77.16952552291667,65.0,76.0
258,75.80233802291667,77.48202552291667,46.0,74.0
259,77.20858802291667,77.56405677291667,53.0,72.0
260,77.67733802291667,78.22811927291667,58.0,67.0
261,77.67733802291667,78.40390052291667,60.0,75.0
262,78.14608802291667,78.94296302291667,53.0,63.0
263,78.61483802291667,79.23202552291667,62.0,71.0
264,78.61483802291667,79.41366614791667,58.0,68.0
265,77.67733802291667,79.43124427291667,46.0,74.0
266,79.08358802291667,79.44296302291667,53.0,77.0
267,79.55233802291667,79.94882239791667,58.0,73.0
268,79.55233802291667,80.15975989791667,63.0,71.0
269,80.48983802291667,80.63046302291667,63.0,72.0
270,79.55233802291667,80.65390052291667,51.0,79.0
271,80.48983802291667,80.66366614791667,66.0,72.0
272,80.95858802291667,81.50155677291667,58.0,70.0
273,81.42733802291667,81.97225989791667,63.0,62.0
274,81.42733802291667,81.98788489791667,66.0,66.0
275,81.89608802291667,82.21054114791667,58.0,76.0
276,81.42733802291667,82.27890052291667,51.0,68.0
277,82.36483802291667,82.53866614791667,58.0,69.0
278,82.36483802291667,82.75936927291667,61.0,72.0
279,82.36483802291667,82.82968177291667,49.0,74.0
280,82.36483802291667,82.89608802291667,66.0,62.0
281,83.30233802291667,83.77108802291667,60.0,71.0
282,83.30233802291667,84.17929114791667,56.0,68.0
283,84.23983802291667,84.31210364791667,60.0,75.0
284,84.23983802291667,84.34530677291667,63.0,74.0
285,83.77108802291667,84.72030677291667,51.0,58.0
286,83.30233802291667,84.80819739791667,44.0,74.0
287,85.17733802291667,85.57968177291667,68.0,69.0
288,85.17733802291667,85.60507239791667,60.0,66.0
289,85.17733802291667,85.68319739791667,63.0,69.0
290,85.64608802291667,86.02108802291667,56.0,70.0
291,85.17733802291667,86.36679114791667,44.0,74.0
292,86.11483802291667,86.42733802291667,60.0,80.0
293,86.11483802291667,86.66952552291667,63.0,75.0
294,86.58358802291667,87.00350989791667,56.0,80.0
295,87.05233802291667,87.46249427291667,61.0,72.0
296,87.05233802291667,87.47030677291667,65.0,75.0
297,87.98983802291667,88.22030677291667,56.0,74.0
298,87.98983802291667,88.28280677291667,61.0,80.0
299,87.05233802291667,88.47030677291667,49.0,74.0
300,87.98983802291667,88.52304114791667,65.0,79.0
301,88.45858802291667,89.01913489791667,56.0,76.0
302,88.92733802291667,89.46054114791667,61.0,76.0
303,89.39608802291667,89.77108802291667,56.0,78.0
304,88.92733802291667,89.78475989791667,49.0,76.0
305,88.92733802291667,89.78866614791667,65.0,75.0
306,89.86483802291667,90.70272864791667,48.0,76.0
307,89.86483802291667,90.85702552291667,60.0,72.0
308,90.80233802291667,91.15194739791667,61.0,74.0
309,90.80233802291667,91.47030677291667,58.0,67.0
310,91.73983802291667,91.92733802291667,58.0,74.0
311,91.73983802291667,92.00936927291667,61.0,81.0
312,91.73983802291667,92.21054114791667,65.0,77.0
313,91.27108802291667,92.42733802291667,53.0,48.0
314,90.80233802291667,92.52499427291667,46.0,75.0
315,92.67733802291667,93.20663489791667,65.0,74.0
316,92.67733802291667,93.29257239791667,58.0,67.0
317,93.14608802291667,93.71640052291667,53.0,57.0
318,93.61483802291667,93.86483802291667,58.0,76.0
319,93.61483802291667,93.93905677291667,65.0,75.0
320,92.67733802291667,94.25741614791667,46.0,75.0
321,93.84921302291667,94.27108802291667,53.0,69.0
322,94.08358802291667,94.38827552291667,58.0,77.0
323,94.55233802291667,94.80819739791667,58.0,73.0
324,94.55233802291667,95.14022864791667,63.0,68.0
325,95.48983802291667,95.65585364791667,63.0,73.0
326,95.48983802291667,95.69882239791667,66.0,71.0
327,94.55233802291667,95.74374427291667,51.0,75.0
328,96.42733802291667,96.95858802291667,63.0,74.0
329,96.42733802291667,96.97421302291667,66.0,71.0
330,96.42733802291667,97.26132239791667,51.0,71.0
331,96.89608802291667,97.29843177291667,58.0,76.0
332,97.36483802291667,97.57772864791667,51.0,75.0
333,97.36483802291667,97.71054114791667,61.0,80.0
334,97.83358802291667,98.00741614791667,58.0,62.0
335,97.36483802291667,98.18319739791667,66.0,74.0
336,98.30233802291667,98.71054114791667,59.0,65.0
337,98.30233802291667,99.03866614791667,63.0,69.0
338,99.23983802291667,99.35311927291667,59.0,69.0
339,98.77108802291667,99.43319739791667,54.0,28.0
340,98.30233802291667,99.48593177291667,47.0,75.0
341,99.23983802291667,99.56210364791667,63.0,74.0
342,99.23983802291667,99.68710364791667,66.0,70.0
343,99.70858802291667,100.06015052291667,59.0,63.0
344,100.17733802291667,100.43905677291667,59.0,62.0
345,100.17733802291667,100.88827552291667,63.0,69.0
346,100.17733802291667,100.89022864791667,66.0,67.0
347,100.64608802291667,100.90390052291667,59.0,62.0
348,101.11483802291667,101.31600989791667,59.0,76.0
349,100.17733802291667,101.32772864791667,47.0,66.0
350,101.11483802291667,101.46640052291667,66.0,73.0
351,101.11483802291667,101.49179114791667,63.0,75.0
352,102.05233802291667,102.79647864791667,61.0,73.0
353,102.05233802291667,102.79843177291667,56.0,70.0
354,102.52108802291667,103.10702552291667,51.0,53.0
355,102.98983802291667,103.36874427291667,61.0,79.0
356,102.98983802291667,103.53671302291667,56.0,77.0
357,103.45858802291667,103.53671302291667,56.0,72.0
358,102.05233802291667,103.73397864791667,44.0,74.0
359,103.45858802291667,103.78280677291667,51.0,68.0
360,103.69296302291667,103.96640052291667,58.0,70.0
361,103.92733802291667,104.48593177291667,48.0,77.0
362,104.39608802291667,104.48983802291667,54.0,68.0
363,103.92733802291667,104.70077552291667,60.0,71.0
364,104.86483802291667,105.73202552291667,60.0,73.0
365,104.86483802291667,105.74569739791667,65.0,75.0
366,105.33358802291667,105.75741614791667,48.0,70.0
367,104.86483802291667,105.77108802291667,41.0,75.0
368,105.80233802291667,106.26327552291667,65.0,75.0
369,105.80233802291667,106.28866614791667,58.0,67.0
370,106.27108802291667,106.89413489791667,53.0,57.0
371,106.73983802291667,107.03475989791667,62.0,76.0
372,106.73983802291667,107.10311927291667,58.0,74.0
373,106.73983802291667,107.16952552291667,65.0,76.0
374,105.80233802291667,107.48202552291667,46.0,74.0
375,107.20858802291667,107.56405677291667,53.0,72.0
376,107.67733802291667,108.22811927291667,58.0,67.0
377,107.67733802291667,108.40390052291667,60.0,75.0
378,108.14608802291667,108.94296302291667,53.0,63.0
379,108.61483802291667,109.23202552291667,62.0,71.0
380,108.61483802291667,109.41366614791667,58.0,68.0
381,107.67733802291667,109.43124427291667,46.0,74.0
382,109.08358802291667,109.44296302291667,53.0,77.0
383,109.55233802291667,109.94882239791667,58.0,73.0
384,109.55233802291667,110.15975989791667,63.0,71.0
385,110.48983802291667,110.63046302291667,63.0,72.0
386,109.55233802291667,110.65390052291667,51.0,79.0
387,110.48983802291667,110.66366614791667,66.0,72.0
388,110.95858802291667,111.50155677291667,58.0,70.0
389,111.42733802291667,111.97225989791667,63.0,62.0
390,111.42733802291667,111.98788489791667,66.0,66.0
391,111.89608802291667,112.21054114791667,58.0,76.0
392,111.42733802291667,112.27890052291667,51.0,68.0
393,112.36483802291667,112.53866614791667,58.0,69.0
394,112.36483802291667,112.75936927291667,61.0,72.0
395,112.36483802291667,112.82968177291667,49.0,74.0
396,112.36483802291667,112.89608802291667,66.0,62.0
397,113.30233802291667,113.77108802291667,60.0,71.0
398,113.30233802291667,114.17929114791667,56.0,68.0
399,114.23983802291667,114.31210364791667,60.0,75.0
400,114.23983802291667,114.34530677291667,63.0,74.0
401,113.77108802291667,114.72030677291667,51.0,58.0
402,113.30233802291667,114.80819739791667,44.0,74.0
403,115.17733802291667,115.57968177291667,68.0,69.0
404,115.17733802291667,115.60507239791667,60.0,66.0
405,115.17733802291667,115.68319739791667,63.0,69.0
406,115.64608802291667,116.02108802291667,56.0,70.0
407,115.17733802291667,116.36679114791667,44.0,74.0
408,116.11483802291667,116.42733802291667,60.0,80.0
409,116.11483802291667,116.66952552291667,63.0,75.0
410,116.58358802291667,117.00350989791667,56.0,80.0
411,117.05233802291667,117.46249427291667,61.0,72.0
412,117.05233802291667,117.47030677291667,65.0,75.0
413,117.98983802291667,118.22030677291667,56.0,74.0
414,117.98983802291667,118.28280677291667,61.0,80.0
415,117.05233802291667,118.47030677291667,49.0,74.0
416,117.98983802291667,118.52304114791667,65.0,79.0
417,118.45858802291667,119.01913489791667,56.0,76.0
418,118.92733802291667,119.46054114791667,61.0,76.0
419,119.39608802291667,119.77108802291667,56.0,78.0
420,118.92733802291667,119.78475989791667,49.0,76.0
421,118.92733802291667,119.78866614791667,65.0,75.0
422,119.86483802291667,120.70272864791667,48.0,76.0
423,119.86483802291667,120.85702552291667,60.0,72.0
424,120.80233802291667,121.15194739791667,61.0,74.0
425,120.80233802291667,121.47030677291667,58.0,67.0
426,121.73983802291667,121.92733802291667,58.0,74.0
427,121.73983802291667,122.00936927291667,61.0,81.0
428,121.73983802291667,122.21054114791667,65.0,77.0
429,121.27108802291667,122.42733802291667,53.0,48.0
430,120.80233802291667,122.52499427291667,46.0,75.0
431,122.67733802291667,123.20663489791667,65.0,74.0
432,122.67733802291667,123.29257239791667,58.0,67.0
433,123.14608802291667,123.71640052291667,53.0,57.0
434,123.61483802291667,123.86483802291667,58.0,76.0
435,123.61483802291667,123.93905677291667,65.0,75.0
436,122.67733802291667,124.25741614791667,46.0,75.0
437,123.84921302291667,124.27108802291667,53.0,69.0
438,124.08358802291667,124.38827552291667,58.0,77.0
439,124.55233802291667,124.80819739791667,58.0,73.0
440,124.55233802291667,125.14022864791667,63.0,68.0
441,125.48983802291667,125.65585364791667,63.0,73.0
442,125.48983802291667,125.69882239791667,66.0,71.0
443,124.55233802291667,125.74374427291667,51.0,75.0
444,126.42733802291667,126.95858802291667,63.0,74.0
445,126.42733802291667,126.97421302291667,66.0,71.0
446,126.42733802291667,127.26132239791667,51.0,71.0
447,126.89608802291667,127.29843177291667,58.0,76.0
448,127.36483802291667,127.57772864791667,51.0,75.0
449,127.36483802291667,127.71054114791667,61.0,80.0
450,127.83358802291667,128.00741614791667,58.0,62.0
451,127.36483802291667,128.18319739791667,66.0,74.0
452,128.30233802291667,128.71054114791667,59.0,65.0
453,128.30233802291667,129.03866614791667,63.0,69.0
454,129.23983802291667,129.35311927291667,59.0,69.0
455,128.77108802291667,129.43319739791667,54.0,28.0
456,128.30233802291667,129.48593177291667,47.0,75.0
457,129.23983802291667,129.56210364791667,63.0,74.0
458,129.23983802291667,129.68710364791667,66.0,70.0
459,129.70858802291667,130.06015052291667,59.0,63.0
460,130.17733802291667,130.78671302291667,60.0,68.0
461,130.17733802291667,131.01327552291667,56.0,65.0
462,131.11483802291667,131.54061927291667,60.0,73.0
463,131.11483802291667,131.56796302291667,63.0,73.0
464,130.64608802291667,131.61093177291667,51.0,54.0
465,130.17733802291667,131.64413489791667,44.0,74.0
466,131.58358802291667,132.15194739791667,56.0,70.0
467,132.05233802291667,132.18515052291667,37.0,69.0
468,132.05233802291667,132.49988489791667,61.0,63.0
469,132.05233802291667,132.58988489791668,65.0,74.0
470,132.7627064604167,133.30834927291667,63.0,62.0
471,133.26063146041668,134.85841371041667,56.0,53.0
472,132.52188489791666,135.0730055854167,49.0,70.0
473,133.76507187291668,135.15669641666668,61.0,67.0
474,133.76507187291668,135.16313417291667,65.0,69.0
475,133.76507187291668,135.1652800916667,68.0,66.0
476,136.07729556041667,136.9036176291667,58.0,61.0
477,136.07729556041667,136.9407270041667,62.0,70.0
478,137.0481488791667,137.2668988791667,58.0,75.0
479,137.0481488791667,137.5579145041667,62.0,76.0
480,137.5168988791667,137.7883832541667,58.0,78.0
481,137.0481488791667,137.8411176291667,65.0,70.0
482,137.7512738791667,137.9876020041667,62.0,44.0
483,136.07729556041667,138.0168988791667,46.0,74.0
484,137.9856488791667,138.2493207541667,57.0,71.0
485,137.9856488791667,138.5305707541667,60.0,74.0
486,136.5793988791667,138.5501020041667,53.0,58.0
487,138.4543988791667,138.8626020041667,57.0,74.0
488,138.9231488791667,139.1614301291667,57.0,74.0
489,138.9231488791667,139.3254926291667,60.0,76.0
490,137.9856488791667,139.4368207541667,45.0,74.0
491,139.3918988791667,139.6887738791667,57.0,70.0
492,138.9231488791667,139.8723676291667,65.0,74.0
493,139.8606488791667,140.3196332541667,62.0,68.0
494,139.8606488791667,140.3430707541667,58.0,56.0
495,139.8606488791667,140.3586957541667,55.0,68.0
496,140.3293988791667,140.9817426291667,50.0,43.0
497,140.7981488791667,141.1282270041667,55.0,73.0
498,140.7981488791667,141.1653363791667,62.0,75.0
499,140.7981488791667,141.1770551291667,58.0,76.0
500,139.8606488791667,141.6243207541667,43.0,74.0
501,141.2668988791667,141.6418988791667,50.0,70.0
502,141.7356488791667,142.0813520041667,53.0,68.0
503,141.7356488791667,142.2200238791667,56.0,69.0
504,141.7356488791667,142.3254926291667,60.0,70.0
505,142.2043988791667,142.5735395041667,53.0,83.0
506,141.7356488791667,142.5872113791667,41.0,75.0
507,142.6731488791667,142.9485395041667,53.0,74.0
508,142.6731488791667,143.1751020041667,58.0,74.0
509,142.6731488791667,143.5501020041667,46.0,85.0
510,143.1418988791667,143.6106488791667,53.0,74.0
511,143.6106488791667,144.0442426291667,63.0,67.0
512,143.6106488791667,144.0872113791667,58.0,68.0
513,144.5481488791667,144.7571332541667,63.0,75.0
514,144.5481488791667,144.7629926291667,58.0,77.0
515,143.6106488791667,145.1321332541667,39.0,76.0
516,144.0793988791667,145.1477582541667,46.0,49.0
517,145.0168988791667,145.5090863791667,55.0,76.0
518,145.4856488791667,145.9016645041667,63.0,68.0
519,145.4856488791667,145.9485395041667,58.0,68.0
520,145.9543988791667,146.5637738791667,46.0,43.0
521,145.4856488791667,146.6086957541667,39.0,68.0
522,146.4231488791667,146.6223676291667,58.0,79.0
523,146.4231488791667,146.6692426291667,63.0,75.0
524,146.8918988791667,147.0227582541667,39.0,74.0
525,147.3606488791667,147.6223676291667,41.0,73.0
526,147.3606488791667,147.6262738791667,57.0,65.0
527,147.3606488791667,147.9114301291667,65.0,69.0
528,147.3606488791667,147.9231488791667,60.0,69.0
529,147.8293988791667,148.0442426291667,57.0,66.0
530,148.2981488791667,148.4465863791667,57.0,74.0
531,148.2981488791667,148.4622113791667,60.0,78.0
532,148.2981488791667,148.5149457541667,65.0,75.0
533,148.7668988791667,149.0598676291667,53.0,71.0
534,149.2356488791667,149.5403363791667,60.0,74.0
535,149.2356488791667,149.6008832541667,53.0,75.0
536,149.2356488791667,149.6106488791667,65.0,73.0
537,149.2356488791667,149.7766645041667,69.0,74.0
538,149.7043988791667,150.3079145041667,53.0,70.0
539,150.1731488791667,150.3918988791667,65.0,76.0
540,150.1731488791667,150.9993207541667,72.0,75.0
541,150.1731488791667,151.0012738791667,69.0,79.0
542,150.6418988791667,151.0793988791667,65.0,75.0
543,151.1106488791667,151.9036176291667,58.0,61.0
544,151.1106488791667,151.9407270041667,62.0,70.0
545,152.0481488791667,152.2668988791667,58.0,75.0
546,152.0481488791667,152.5579145041667,62.0,76.0
547,152.5168988791667,152.7883832541667,58.0,78.0
548,152.0481488791667,152.8411176291667,65.0,70.0
549,152.7512738791667,152.9876020041667,62.0,44.0
550,151.1106488791667,153.0168988791667,46.0,74.0
551,152.9856488791667,153.2493207541667,57.0,71.0
552,152.9856488791667,153.5305707541667,60.0,74.0
553,151.5793988791667,153.5501020041667,53.0,58.0
554,153.4543988791667,153.8626020041667,57.0,74.0
555,153.9231488791667,154.1614301291667,57.0,74.0
556,153.9231488791667,154.3254926291667,60.0,76.0
557,152.9856488791667,154.4368207541667,45.0,74.0
558,154.3918988791667,154.6887738791667,57.0,70.0
559,153.9231488791667,154.8723676291667,65.0,74.0
560,154.8606488791667,155.3196332541667,62.0,68.0
561,154.8606488791667,155.3430707541667,58.0,56.0
562,154.8606488791667,155.3586957541667,55.0,68.0
563,155.3293988791667,155.9817426291667,50.0,43.0
564,155.7981488791667,156.1282270041667,55.0,73.0
565,155.7981488791667,156.1653363791667,62.0,75.0
566,155.7981488791667,156.1770551291667,58.0,76.0
567,154.8606488791667,156.6243207541667,43.0,74.0
568,156.2668988791667,156.6418988791667,50.0,70.0
569,156.7356488791667,157.0813520041667,53.0,68.0
570,156.7356488791667,157.2200238791667,56.0,69.0
571,156.7356488791667,157.3254926291667,60.0,70.0
572,157.2043988791667,157.5735395041667,53.0,83.0
573,156.7356488791667,157.5872113791667,41.0,75.0
574,157.6731488791667,157.9485395041667,53.0,74.0
575,157.6731488791667,158.1751020041667,58.0,74.0
576,157.6731488791667,158.5501020041667,46.0,85.0
577,158.1418988791667,158.6106488791667,53.0,74.0
578,158.6106488791667,159.0442426291667,63.0,67.0
579,158.6106488791667,159.0872113791667,58.0,68.0
580,159.5481488791667,159.7571332541667,63.0,75.0
581,159.5481488791667,159.7629926291667,58.0,77.0
582,158.6106488791667,160.1321332541667,39.0,76.0
583,159.0793988791667,160.1477582541667,46.0,49.0
584,160.0168988791667,160.5090863791667,55.0,76.0
585,160.4856488791667,160.9016645041667,63.0,68.0
586,160.4856488791667,160.9485395041667,58.0,68.0
587,160.9543988791667,161.5637738791667,46.0,43.0
588,160.4856488791667,161.6086957541667,39.0,68.0
589,161.4231488791667,161.6223676291667,58.0,79.0
590,161.4231488791667,161.6692426291667,63.0,75.0
591,161.8918988791667,162.0227582541667,39.0,74.0
592,162.3606488791667,162.6223676291667,41.0,73.0
593,162.3606488791667,162.6262738791667,57.0,65.0
594,162.3606488791667,162.9114301291667,65.0,69.0
595,162.3606488791667,162.9231488791667,60.0,69.0
596,162.8293988791667,163.0442426291667,57.0,66.0
597,163.2981488791667,163.4465863791667,57.0,74.0
598,163.2981488791667,163.4622113791667,60.0,78.0
599,163.2981488791667,163.5149457541667,65.0,75.0
600,163.7668988791667,164.0598676291667,53.0,71.0
601,164.2356488791667,164.5403363791667,60.0,74.0
602,164.2356488791667,164.6008832541667,53.0,75.0
603,164.2356488791667,164.6106488791667,65.0,73.0
604,164.2356488791667,164.7766645041667,69.0,74.0
605,164.7043988791667,165.3079145041667,53.0,70.0
606,165.1731488791667,165.3918988791667,65.0,76.0
607,165.1731488791667,165.9993207541667,72.0,75.0
608,165.1731488791667,166.0012738791667,69.0,79.0
609,165.6418988791667,166.0793988791667,65.0,75.0
610,166.1106488791667,166.3235395041667,57.0,70.0
611,166.1106488791667,166.6243207541667,65.0,70.0
612,166.1106488791667,166.6438520041667,62.0,69.0
613,166.5793988791667,166.8040082541667,57.0,68.0
614,167.0481488791667,167.2200238791667,57.0,76.0
615,167.0481488791667,167.2629926291667,62.0,78.0
616,167.0481488791667,167.2864301291667,65.0,76.0
617,166.1106488791667,167.3196332541667,50.0,76.0
618,167.5168988791667,167.8352582541667,57.0,76.0
619,167.9856488791667,168.2258832541667,57.0,74.0
620,167.9856488791667,168.5344770041667,62.0,71.0
621,167.9856488791667,168.5559613791667,65.0,69.0
622,168.4543988791667,168.6887738791667,57.0,73.0
623,168.9231488791667,169.1126020041667,57.0,76.0
624,168.9231488791667,169.3684613791667,62.0,78.0
625,167.9856488791667,169.3801801291667,50.0,77.0
626,168.9231488791667,169.4661176291667,65.0,75.0
627,169.3918988791667,169.5110395041667,57.0,76.0
628,169.8606488791667,170.3684613791667,62.0,70.0
629,169.8606488791667,170.3821332541667,55.0,70.0
630,170.3293988791667,171.0208051291667,50.0,66.0
631,170.7981488791667,171.0579145041667,55.0,77.0
632,169.8606488791667,171.2668988791667,43.0,75.0
633,170.7981488791667,171.3606488791667,62.0,77.0
634,171.2668988791667,172.0286176291667,55.0,77.0
635,171.7356488791667,172.0872113791667,62.0,74.0
636,171.7356488791667,172.1028363791667,67.0,72.0
637,172.2043988791667,172.7786176291667,50.0,63.0
638,171.7356488791667,172.8704145041667,43.0,75.0
639,172.6731488791667,173.0559613791667,58.0,75.0
640,172.6731488791667,173.0618207541667,55.0,75.0
641,172.6731488791667,173.1360395041667,62.0,75.0
642,173.1418988791667,173.5344770041667,43.0,74.0
643,173.6106488791667,174.1047895041667,60.0,75.0
644,173.6106488791667,174.1262738791667,63.0,75.0
645,174.0793988791667,174.2747113791667,55.0,67.0
646,174.5481488791667,174.8118207541667,55.0,75.0
647,174.5481488791667,174.9973676291667,60.0,76.0
648,174.5481488791667,175.1067426291667,63.0,75.0
649,173.6106488791667,175.3469770041667,48.0,76.0
650,175.0168988791667,175.4172895041667,55.0,76.0
651,175.4856488791667,175.9778363791667,58.0,72.0
652,175.4856488791667,175.9934613791667,63.0,66.0
653,175.9543988791667,176.1887738791667,55.0,67.0
654,176.4231488791667,176.5950238791667,55.0,75.0
655,176.4231488791667,176.8879926291667,58.0,78.0
656,176.4231488791667,176.9231488791667,63.0,75.0
657,175.4856488791667,176.9856488791667,48.0,76.0
658,176.8918988791667,177.0383832541667,55.0,78.0
659,177.3606488791667,177.5989301291667,53.0,70.0
660,177.3606488791667,177.6282270041667,57.0,69.0
661,178.2981488791667,178.5793988791667,57.0,74.0
662,178.2981488791667,178.5930707541667,60.0,79.0
663,177.8293988791667,178.8059613791667,48.0,73.0
664,177.3606488791667,178.9583051291667,41.0,75.0
665,178.7668988791667,179.0715863791667,65.0,74.0
666,178.7668988791667,179.0969770041667,60.0,73.0
667,179.2356488791667,179.5520551291667,65.0,75.0
668,179.2356488791667,179.5950238791667,60.0,78.0
669,179.7043988791667,180.2688520041667,48.0,69.0
670,179.2356488791667,180.3508832541667,41.0,75.0
671,180.1731488791667,180.4329145041667,57.0,75.0
672,180.1731488791667,180.4504926291667,60.0,81.0
673,180.1731488791667,180.5969770041667,69.0,74.0
674,180.6418988791667,180.8333051291667,41.0,74.0
675,181.1106488791667,181.3137738791667,62.0,71.0
676,181.1106488791667,181.4172895041667,65.0,75.0
677,181.1106488791667,181.4192426291667,38.0,76.0
678,181.5793988791667,181.7825238791667,62.0,60.0
679,181.5793988791667,181.7825238791667,65.0,67.0
680,181.5793988791667,181.8040082541667,69.0,65.0
681,182.0481488791667,182.2415082541667,62.0,74.0
682,182.0481488791667,182.3059613791667,65.0,79.0
683,182.0481488791667,182.3645551291667,69.0,77.0
684,182.5168988791667,182.9876020041667,57.0,66.0
685,182.9856488791667,183.5989301291667,65.0,70.0
686,182.9856488791667,183.6184613791667,62.0,75.0
687,183.4543988791667,184.0481488791667,57.0,69.0
688,182.9856488791667,184.1145551291667,50.0,76.0
689,183.9231488791667,184.3411176291667,65.0,80.0
690,183.9231488791667,184.3586957541667,62.0,75.0
691,183.9231488791667,184.3782270041667,69.0,77.0
692,184.3918988791667,184.5286176291667,50.0,76.0
693,184.8606488791667,185.1321332541667,62.0,71.0
694,184.8606488791667,185.1848676291667,67.0,72.0
695,184.8606488791667,185.4309613791667,70.0,69.0
696,185.3293988791667,185.6067426291667,62.0,75.0
697,185.7981488791667,186.0208051291667,62.0,78.0
698,185.7981488791667,186.2551801291667,69.0,75.0
699,184.8606488791667,186.3313520041667,43.0,74.0
700,186.2668988791667,186.6379926291667,62.0,78.0
701,186.7356488791667,187.2747113791667,67.0,70.0
702,186.7356488791667,187.2883832541667,70.0,74.0
703,187.2043988791667,187.5481488791667,62.0,71.0
704,187.6731488791667,187.9563520041667,62.0,77.0
705,187.2043988791667,187.9817426291667,50.0,65.0
706,186.7356488791667,188.0540082541667,43.0,74.0
707,187.6731488791667,188.1711957541667,69.0,76.0
708,188.1418988791667,188.2356488791667,67.0,73.0
709,188.6106488791667,189.0657270041667,60.0,69.0
710,188.6106488791667,189.1321332541667,67.0,71.0
711,189.0793988791667,189.6907270041667,55.0,69.0
712,188.6106488791667,189.7434613791667,48.0,76.0
713,189.5481488791667,190.0266645041667,60.0,75.0
714,190.0168988791667,190.1360395041667,55.0,70.0
715,189.5481488791667,190.1672895041667,63.0,76.0
716,190.4856488791667,190.6399457541667,60.0,52.0
717,190.4856488791667,190.6672895041667,36.0,72.0
718,190.4856488791667,191.0461957541667,67.0,68.0
719,190.4856488791667,191.2102582541667,63.0,74.0
720,190.9543988791667,191.5911176291667,48.0,75.0
721,191.4231488791667,191.6555707541667,60.0,73.0
722,191.4231488791667,191.7219770041667,63.0,78.0
723,191.4231488791667,191.9153363791667,67.0,74.0
724,191.8918988791667,191.9563520041667,60.0,61.0
725,192.3606488791667,192.5911176291667,60.0,70.0
726,192.3606488791667,192.7122113791667,65.0,70.0
727,192.8293988791667,192.9329145041667,65.0,59.0
728,192.3606488791667,193.0579145041667,41.0,74.0
729,192.8293988791667,193.0657270041667,60.0,75.0
730,193.2981488791667,193.5305707541667,60.0,71.0
731,193.2981488791667,193.5852582541667,65.0,70.0
732,193.2981488791667,193.7454145041667,69.0,70.0
733,193.2981488791667,193.8040082541667,41.0,75.0
734,193.7668988791667,194.0676801291667,60.0,76.0
735,194.2356488791667,195.5383832541667,41.0,77.0
736,194.2356488791667,195.8372113791667,60.0,77.0
737,194.2356488791667,195.8645551291667,65.0,80.0
738,194.2356488791667,195.8801801291667,69.0,79.0
739,196.1106488791667,196.5715863791667,65.0,75.0
740,196.1106488791667,196.5969770041667,58.0,67.0
741,196.5793988791667,197.2024457541667,53.0,57.0
742,197.0481488791667,197.3430707541667,62.0,76.0
743,197.0481488791667,197.4114301291667,58.0,74.0
744,197.0481488791667,197.4778363791667,65.0,76.0
745,196.1106488791667,197.7903363791667,46.0,74.0
746,197.5168988791667,197.8723676291667,53.0,72.0
747,197.9856488791667,198.5364301291667,58.0,67.0
748,197.9856488791667,198.7122113791667,60.0,75.0
749,198.4543988791667,199.2512738791667,53.0,63.0
750,198.9231488791667,199.5403363791667,62.0,71.0
751,198.9231488791667,199.7219770041667,58.0,68.0
752,197.9856488791667,199.7395551291667,46.0,74.0
753,199.3918988791667,199.7512738791667,53.0,77.0
754,199.8606488791667,200.2571332541667,58.0,73.0
755,199.8606488791667,200.4680707541667,63.0,71.0
756,200.7981488791667,200.9387738791667,63.0,72.0
757,199.8606488791667,200.9622113791667,51.0,79.0
758,200.7981488791667,200.9719770041667,66.0,72.0
759,201.2668988791667,201.8098676291667,58.0,70.0
760,201.7356488791667,202.2805707541667,63.0,62.0
761,201.7356488791667,202.2961957541667,66.0,66.0
762,202.2043988791667,202.5188520041667,58.0,76.0
763,201.7356488791667,202.5872113791667,51.0,68.0
764,202.6731488791667,202.8469770041667,58.0,69.0
765,202.6731488791667,203.0676801291667,61.0,72.0
766,202.6731488791667,203.1379926291667,49.0,74.0
767,202.6731488791667,203.2043988791667,66.0,62.0
768,203.6106488791667,204.0793988791667,60.0,71.0
769,203.6106488791667,204.4876020041667,56.0,68.0
770,204.5481488791667,204.6204145041667,60.0,75.0
771,204.5481488791667,204.6536176291667,63.0,74.0
772,204.0793988791667,205.0286176291667,51.0,58.0
773,203.6106488791667,205.1165082541667,44.0,74.0
774,205.4856488791667,205.8879926291667,68.0,69.0
775,205.4856488791667,205.9133832541667,60.0,66.0
776,205.4856488791667,205.9915082541667,63.0,69.0
777,205.9543988791667,206.3293988791667,56.0,70.0
778,205.4856488791667,206.6751020041667,44.0,74.0
779,206.4231488791667,206.7356488791667,60.0,80.0
780,206.4231488791667,206.9778363791667,63.0,75.0
781,206.8918988791667,207.3118207541667,56.0,80.0
782,207.3606488791667,207.7708051291667,61.0,72.0
783,207.3606488791667,207.7786176291667,65.0,75.0
784,208.2981488791667,208.5286176291667,56.0,74.0
785,208.2981488791667,208.5911176291667,61.0,80.0
786,207.3606488791667,208.7786176291667,49.0,74.0
787,208.2981488791667,208.8313520041667,65.0,79.0
788,208.7668988791667,209.3274457541667,56.0,76.0
789,209.2356488791667,209.7688520041667,61.0,76.0
790,209.7043988791667,210.0793988791667,56.0,78.0
791,209.2356488791667,210.0930707541667,49.0,76.0
792,209.2356488791667,210.0969770041667,65.0,75.0
793,210.1731488791667,211.0110395041667,48.0,76.0
794,210.1731488791667,211.1653363791667,60.0,72.0
795,211.1106488791667,211.4602582541667,61.0,74.0
796,211.1106488791667,211.7786176291667,58.0,67.0
797,212.0481488791667,212.2356488791667,58.0,74.0
798,212.0481488791667,212.3176801291667,61.0,81.0
799,212.0481488791667,212.5188520041667,65.0,77.0
800,211.5793988791667,212.7356488791667,53.0,48.0
801,211.1106488791667,212.8333051291667,46.0,75.0
802,212.9856488791667,213.5149457541667,65.0,74.0
803,212.9856488791667,213.6008832541667,58.0,67.0
804,213.4543988791667,214.0247113791667,53.0,57.0
805,213.9231488791667,214.1731488791667,58.0,76.0
806,213.9231488791667,214.2473676291667,65.0,75.0
807,212.9856488791667,214.5657270041667,46.0,75.0
808,214.1575238791667,214.5793988791667,53.0,69.0
809,214.3918988791667,214.6965863791667,58.0,77.0
810,214.8606488791667,215.1165082541667,58.0,73.0
811,214.8606488791667,215.4485395041667,63.0,68.0
812,215.7981488791667,215.9641645041667,63.0,73.0
813,215.7981488791667,216.0071332541667,66.0,71.0
814,214.8606488791667,216.0520551291667,51.0,75.0
815,216.7356488791667,217.2668988791667,63.0,74.0
816,216.7356488791667,217.2825238791667,66.0,71.0
817,216.7356488791667,217.5696332541667,51.0,71.0
818,217.2043988791667,217.6067426291667,58.0,76.0
819,217.6731488791667,217.8860395041667,51.0,75.0
820,217.6731488791667,218.0188520041667,61.0,80.0
821,218.1418988791667,218.3157270041667,58.0,62.0
822,217.6731488791667,218.4915082541667,66.0,74.0
823,218.6106488791667,219.0188520041667,59.0,65.0
824,218.6106488791667,219.3469770041667,63.0,69.0
825,219.5481488791667,219.6614301291667,59.0,69.0
826,219.0793988791667,219.7415082541667,54.0,28.0
827,218.6106488791667,219.7942426291667,47.0,75.0
828,219.5481488791667,219.8704145041667,63.0,74.0
829,219.5481488791667,219.9954145041667,66.0,70.0
830,220.0168988791667,220.3684613791667,59.0,63.0
831,220.4856488791667,220.8938520041667,59.0,65.0
832,220.4856488791667,221.2219770041667,63.0,69.0
833,221.4231488791667,221.5364301291667,59.0,69.0
834,220.9543988791667,221.6165082541667,54.0,28.0
835,220.4856488791667,221.6692426291667,47.0,75.0
836,221.4231488791667,221.7454145041667,63.0,74.0
837,221.4231488791667,221.8704145041667,66.0,70.0
838,221.8918988791667,222.2434613791667,59.0,63.0
839,222.3606488791667,222.7981488791667,75.0,65.0
840,222.3606488791667,222.9719770041667,68.0,67.0
841,222.8293988791667,223.5501020041667,51.0,68.0
842,223.2981488791667,223.7297895041667,72.0,75.0
843,223.2981488791667,223.7668988791667,75.0,74.0
844,223.2981488791667,223.7747113791667,68.0,73.0
845,224.0012738791667,224.0461957541667,72.0,59.0
846,222.3606488791667,224.0637738791667,44.0,85.0
847,224.0012738791667,224.0872113791667,75.0,58.0
848,223.7668988791667,224.0891645041667,51.0,59.0
849,224.0012738791667,224.1184613791667,68.0,66.0
850,224.0012738791667,224.1399457541667,80.0,63.0
851,224.2356488791667,224.5071332541667,80.0,74.0
852,224.2356488791667,224.6204145041667,75.0,74.0
853,224.2356488791667,224.6243207541667,72.0,76.0
854,224.2356488791667,224.7083051291667,68.0,76.0
855,224.9387738791667,225.0657270041667,68.0,69.0
856,224.7043988791667,225.2708051291667,51.0,64.0
857,225.1731488791667,225.4641645041667,75.0,78.0
858,225.1731488791667,225.4973676291667,68.0,78.0
859,225.4075238791667,225.7571332541667,51.0,74.0
860,225.6418988791667,225.7922895041667,68.0,76.0
861,225.6418988791667,225.9836957541667,72.0,75.0
862,224.2356488791667,226.0149457541667,44.0,81.0
863,225.8762738791667,226.1438520041667,68.0,83.0
864,226.1106488791667,226.5715863791667,65.0,75.0
865,226.1106488791667,226.5969770041667,58.0,67.0
866,226.5793988791667,227.2024457541667,53.0,57.0
867,227.0481488791667,227.3430707541667,62.0,76.0
868,227.0481488791667,227.4114301291667,58.0,74.0
869,227.0481488791667,227.4778363791667,65.0,76.0
870,226.1106488791667,227.7903363791667,46.0,74.0
871,227.5168988791667,227.8723676291667,53.0,72.0
872,227.9856488791667,228.5364301291667,58.0,67.0
873,227.9856488791667,228.7122113791667,60.0,75.0
874,228.4543988791667,229.2512738791667,53.0,63.0
875,228.9231488791667,229.5403363791667,62.0,71.0
876,228.9231488791667,229.7219770041667,58.0,68.0
877,227.9856488791667,229.7395551291667,46.0,74.0
878,229.3918988791667,229.7512738791667,53.0,77.0
879,229.8606488791667,230.2571332541667,58.0,73.0
880,229.8606488791667,230.4680707541667,63.0,71.0
881,230.7981488791667,230.9387738791667,63.0,72.0
882,229.8606488791667,230.9622113791667,51.0,79.0
883,230.7981488791667,230.9719770041667,66.0,72.0
884,231.2668988791667,231.8098676291667,58.0,70.0
885,231.7356488791667,232.2805707541667,63.0,62.0
886,231.7356488791667,232.2961957541667,66.0,66.0
887,232.2043988791667,232.5188520041667,58.0,76.0
888,231.7356488791667,232.5872113791667,51.0,68.0
889,232.6731488791667,232.8469770041667,58.0,69.0
890,232.6731488791667,233.0676801291667,61.0,72.0
891,232.6731488791667,233.1379926291667,49.0,74.0
892,232.6731488791667,233.2043988791667,66.0,62.0
893,233.6106488791667,234.0793988791667,60.0,71.0
894,233.6106488791667,234.4876020041667,56.0,68.0
895,234.5481488791667,234.6204145041667,60.0,75.0
896,234.5481488791667,234.6536176291667,63.0,74.0
897,234.0793988791667,235.0286176291667,51.0,58.0
898,233.6106488791667,235.1165082541667,44.0,74.0
899,235.4856488791667,235.8879926291667,68.0,69.0
900,235.4856488791667,235.9133832541667,60.0,66.0
901,235.4856488791667,235.9915082541667,63.0,69.0
902,235.9543988791667,236.3293988791667,56.0,70.0
903,235.4856488791667,236.6751020041667,44.0,74.0
904,236.4231488791667,236.7356488791667,60.0,80.0
905,236.4231488791667,236.9778363791667,63.0,75.0
906,236.8918988791667,237.3118207541667,56.0,80.0
907,237.3606488791667,237.7708051291667,61.0,72.0
908,237.3606488791667,237.7786176291667,65.0,75.0
909,238.2981488791667,238.5286176291667,56.0,74.0
910,238.2981488791667,238.5911176291667,61.0,80.0
911,237.3606488791667,238.7786176291667,49.0,74.0
912,238.2981488791667,238.8313520041667,65.0,79.0
913,238.7668988791667,239.3274457541667,56.0,76.0
914,239.2356488791667,239.7688520041667,61.0,76.0
915,239.7043988791667,240.0793988791667,56.0,78.0
916,239.2356488791667,240.0930707541667,49.0,76.0
917,239.2356488791667,240.0969770041667,65.0,75.0
918,240.1731488791667,241.0110395041667,48.0,76.0
919,240.1731488791667,241.1653363791667,60.0,72.0
920,241.1106488791667,241.4602582541667,61.0,74.0
921,241.1106488791667,241.7786176291667,58.0,67.0
922,242.0481488791667,242.2356488791667,58.0,74.0
923,242.0481488791667,242.3176801291667,61.0,81.0
924,242.0481488791667,242.5188520041667,65.0,77.0
925,241.5793988791667,242.7356488791667,53.0,48.0
926,241.1106488791667,242.8333051291667,46.0,75.0
927,242.9856488791667,243.5149457541667,65.0,74.0
928,242.9856488791667,243.6008832541667,58.0,67.0
929,243.4543988791667,244.0247113791667,53.0,57.0
930,243.9231488791667,244.1731488791667,58.0,76.0
931,243.9231488791667,244.2473676291667,65.0,75.0
932,242.9856488791667,244.5657270041667,46.0,75.0
933,244.1575238791667,244.5793988791667,53.0,69.0
934,244.3918988791667,244.6965863791667,58.0,77.0
935,244.8606488791667,245.1165082541667,58.0,73.0
936,244.8606488791667,245.4485395041667,63.0,68.0
937,245.7981488791667,245.9641645041667,63.0,73.0
938,245.7981488791667,246.0071332541667,66.0,71.0
939,244.8606488791667,246.0520551291667,51.0,75.0
940,246.7356488791667,247.2668988791667,63.0,74.0
941,246.7356488791667,247.2825238791667,66.0,71.0
942,246.7356488791667,247.5696332541667,51.0,71.0
943,247.2043988791667,247.6067426291667,58.0,76.0
944,247.6731488791667,247.8860395041667,51.0,75.0
945,247.6731488791667,248.0188520041667,61.0,80.0
946,248.1418988791667,248.3157270041667,58.0,62.0
947,247.6731488791667,248.4915082541667,66.0,74.0
948,248.6106488791667,249.0188520041667,59.0,65.0
949,248.6106488791667,249.3469770041667,63.0,69.0
950,249.5481488791667,249.6614301291667,59.0,69.0
951,249.0793988791667,249.7415082541667,54.0,28.0
952,248.6106488791667,249.7942426291667,47.0,75.0
953,249.5481488791667,249.8704145041667,63.0,74.0
954,249.5481488791667,249.9954145041667,66.0,70.0
955,250.0168988791667,250.3684613791667,59.0,63.0
956,250.4856488791667,251.0950238791667,60.0,68.0
957,250.4856488791667,251.3215863791667,56.0,65.0
958,251.4231488791667,251.8489301291667,60.0,73.0
959,251.4231488791667,251.8762738791667,63.0,73.0
960,250.9543988791667,251.9192426291667,51.0,54.0
961,250.4856488791667,251.9524457541667,44.0,74.0
962,251.8918988791667,252.4602582541667,56.0,70.0
963,252.3528363791667,252.6008832541667,37.0,70.0
964,252.3645551291667,252.6790082541667,49.0,62.0
965,252.3626020041667,252.8040082541667,61.0,65.0
966,253.7454145041667,254.3020551291667,61.0,75.0
967,253.2864301291667,254.4524457541667,56.0,67.0
968,254.2708051291667,254.7708051291667,65.0,66.0
969,252.8352582541667,254.9270551291667,49.0,48.0
970,254.7180707541667,255.2102582541667,56.0,38.0
971,254.2512738791667,255.2805707541667,68.0,64.0
972,255.2297895041667,255.6360395041667,73.0,64.0
973,256.25713325416666,256.90557075416666,54.0,64.0
974,256.42900825416666,256.99541450416666,61.0,68.0
975,256.35088325416666,257.16143012916666,58.0,66.0
976,257.83330512916666,258.07939887916666,58.0,63.0
977,257.34502387916666,258.32353950416666,54.0,71.0
978,258.30400825416666,258.49150825416666,61.0,60.0
979,258.39580512916666,258.70244575416666,66.0,64.0
980,256.84697700416666,259.35674262916666,49.0,51.0
981,256.39385200416666,259.36846137916666,42.0,74.0
982,259.30986762916666,259.44658637916666,58.0,64.0
983,259.30400825416666,259.46611762916666,54.0,63.0
984,259.29814887916666,259.48955512916666,61.0,65.0
985,260.25322700416666,260.80010200416666,58.0,63.0
986,260.24346137916666,261.20439887916666,54.0,62.0
987,260.69658637916666,261.29228950416666,49.0,41.0
988,260.25518012916666,261.33330512916666,42.0,69.0
989,261.17119575416666,261.43291450416666,58.0,71.0
990,261.17119575416666,261.45049262916666,61.0,66.0
991,262.08135200416666,262.55205512916666,60.0,64.0
992,262.08330512916666,262.63018012916666,53.0,59.0
993,262.50127387916666,263.21221137916666,48.0,52.0
994,262.97588325416666,263.22197700416666,56.0,70.0
995,262.98174262916666,263.29033637916666,60.0,74.0
996,262.07939887916666,263.37236762916666,41.0,64.0
997,264.36650825416666,265.30986762916666,46.0,69.0
998,263.91143012916666,265.34502387916666,39.0,75.0
999,264.88603950416666,265.68682075416666,51.0,61.0
1000,264.90752387916666,266.04424262916666,58.0,67.0
1001,266.63408637916666,267.63799262916666,56.0,63.0
1002,266.38994575416666,269.93877387916666,51.0,63.0
1003,266.00713325416666,269.99541450416666,44.0,80.0
1004,266.85869575416666,270.05400825416666,60.0,68.0
1005,267.76689887916666,270.30986762916666,56.0,67.0
1006,267.07549262916666,270.36064887916666,63.0,68.0
1007,267.37041450416666,270.43486762916666,68.0,64.0
1008,270.23564887916666,270.67510200416666,57.0,58.0
1009,270.27861762916666,270.76299262916666,61.0,59.0
1010,270.36650825416666,270.90166450416666,64.0,68.0
1011,270.33916450416666,271.04619575416666,45.0,74.0
1012,270.86260200416666,271.11455512916666,52.0,69.0
1013,271.37822700416666,271.96025825416666,68.0,58.0
1014,271.37627387916666,272.01885200416666,56.0,61.0
1015,271.36650825416666,272.08525825416666,44.0,67.0
1016,271.85088325416666,272.12236762916666,51.0,59.0
1017,272.39385200416666,273.18291450416666,54.0,62.0
1018,272.41143012916666,273.19658637916666,61.0,74.0
1019,272.39775825416666,273.70244575416666,42.0,69.0
1020,272.94658637916666,274.08721137916666,49.0,65.0
1021,273.55400825416666,274.99736762916666,54.0,68.0
1022,273.54424262916666,275.12432075416666,61.0,71.0
1023,275.51494575416666,276.28447700416666,49.0,64.0
1024,275.99150825416666,276.50908637916666,53.0,62.0
1025,276.21221137916666,276.59893012916666,61.0,66.0
1026,275.75713325416666,276.82744575416666,56.0,66.0
1027,276.47783637916666,276.88603950416666,49.0,69.0
1028,276.78057075416666,277.03447700416666,61.0,66.0
1029,275.29033637916666,278.48369575416666,44.0,62.0
1030,274.96611762916666,278.48564887916666,37.0,78.0
1031,277.90166450416666,278.94268012916666,65.0,54.0
1032,277.72393012916666,278.95439887916666,61.0,52.0
1033,277.88994575416666,278.99541450416666,68.0,64.0
1034,277.97002387916666,279.01689887916666,73.0,55.0
