,start,end,pitch,velocity
0,11.52017683125,11.906822475,62.0,74.0
1,11.89284733125,12.2891108375,65.0,77.0
2,12.267235837500001,12.7031733375,70.0,75.0
3,12.642235837500001,13.0359858375,67.0,75.0
4,13.017235837500001,14.2547358375,65.0,77.0
5,14.517235837500001,14.894450381250001,62.0,75.0
6,14.891335118750002,15.294761612500002,65.0,75.0
7,15.265166618750001,15.651459168750002,67.0,75.0
8,15.638998118750001,16.020617775,70.0,76.0
9,16.01282961875,17.31033645,65.0,75.0
10,17.508155618750003,18.537749875000003,70.0,74.0
11,18.62965011875,18.9146966375,74.0,75.0
12,19.00348161875,19.60316965,72.0,75.0
13,19.75114461875,20.386658168750003,70.0,74.0
14,20.49880761875,20.833698337500003,72.0,72.0
15,20.87263911875,21.19662641875,70.0,75.0
16,21.246470618750003,21.65768526875,67.0,73.0
17,21.620302118750004,21.97544204375,70.0,76.0
18,21.994133618750002,23.260487825000002,65.0,72.0
19,23.489459618750004,24.4536333625,62.0,76.0
20,24.61095411875,24.892885375000002,65.0,72.0
21,24.984785618750003,25.676373893750004,67.0,70.0
22,25.732448618750002,26.001918825000004,65.0,73.0
23,26.10628011875,26.389769006250003,67.0,74.0
24,26.48011161875,27.092260700000004,70.0,75.0
25,27.227774618750004,27.58291454375,72.0,68.0
26,27.601606118750002,27.91469,65.0,76.0
27,27.97543761875,29.151449212500005,67.0,69.0
28,29.470763618750002,29.8118848625,62.0,76.0
29,29.844595118750004,30.22465714375,60.0,70.0
30,30.21842661875,30.97543540625,58.0,72.0
31,30.966089618750004,32.21530988125,60.0,70.0
32,32.46141561875,33.092256275000004,60.0,75.0
33,33.209078618750006,33.52372013125,60.0,73.0
34,33.58291011875,33.871071900000004,62.0,70.0
35,33.95674161875,34.58135175,65.0,74.0
36,34.704404618750004,35.254248450000006,65.0,70.0
37,35.45206761875,36.04085223125001,70.0,76.0
38,36.19973061875,36.514372131250006,60.0,73.0
39,36.573562118750004,36.88197310625,62.0,69.0
40,36.947393618750006,38.2293241375,65.0,72.0
41,38.442719618750004,38.830569800000006,62.0,74.0
42,38.816551118750006,39.21218945625,65.0,77.0
43,39.19038261875001,39.6249617375,70.0,75.0
44,39.56421411875,39.95673719375,67.0,75.0
45,39.93804561875,41.171689568750004,65.0,77.0
46,41.43337161875,41.810318381250006,62.0,75.0
47,41.80720311875,42.21062961250001,65.0,75.0
48,42.181034618750004,42.567327168750005,67.0,75.0
49,42.554866118750006,42.936485775,70.0,76.0
50,42.92869761875001,44.226204450000004,65.0,75.0
51,44.424023618750006,45.453617875000006,70.0,74.0
52,45.54551811875,45.830564637500004,74.0,75.0
53,45.919349618750005,46.51903765,72.0,75.0
54,46.66701261875001,47.302526168750006,70.0,74.0
55,47.41467561875,47.749566337500006,72.0,72.0
56,47.788507118750005,48.11249441875,70.0,75.0
57,48.162338618750006,48.573553268750004,67.0,73.0
58,48.53617011875001,48.89131004375,70.0,76.0
59,48.91000161875001,50.1758769125,65.0,72.0
60,50.40413759375,51.365316925,62.0,76.0
61,51.52214909375,51.8032047625,65.0,72.0
62,51.89481959375,52.58426001875,67.0,70.0
63,52.640160593750004,52.9087939125,65.0,73.0
64,53.01283109375,53.29543955625,67.0,74.0
65,53.38550159375001,53.995749537500004,70.0,75.0
66,54.13084259375,54.48487956875,72.0,68.0
67,54.50351309375,54.8156246375,65.0,76.0
68,54.87618359375,56.048542875,67.0,69.0
69,56.36747995625001,57.373709743750005,62.0,76.0
70,57.488974456250006,57.766232818750005,70.0,75.0
71,57.86280595625001,58.44536004375001,67.0,74.0
72,58.61046895625001,59.25844355625001,65.0,72.0
73,59.358131956250006,59.74598213750001,62.0,74.0
74,59.73196345625001,60.12604416250001,60.0,74.0
75,60.10579495625001,60.52635539375001,58.0,68.0
76,60.47962645625001,60.90641741875001,62.0,63.0
77,60.85345795625001,62.16031057500001,60.0,73.0
78,62.34878395625001,63.311400068750004,60.0,75.0
79,63.47027845625001,63.81139970000001,62.0,74.0
80,63.84410995625001,64.552832175,65.0,76.0
81,64.59177295625001,65.22728650625001,67.0,67.0
82,65.33943595625001,66.11357868750001,70.0,74.0
83,66.08709895625,66.459372825,72.0,74.0
84,66.46093045625001,66.87214510625,74.0,74.0
85,66.83476195625,67.4656026125,72.0,76.0
86,67.58242495625001,68.23039955625,70.0,75.0
87,68.33008795625001,68.63226841875002,72.0,74.0
88,68.70391945625,69.0170033375,70.0,74.0
89,69.07775095625001,69.39239246875,65.0,75.0
90,69.45158245625001,69.77401212500001,67.0,70.0
91,69.82541395625,72.21319489375001,70.0,74.0
92,72.81257328125001,73.19921892500001,62.0,74.0
93,73.18524378125001,73.57965339375001,65.0,77.0
94,73.55791428125002,73.99114373750001,70.0,75.0
95,73.93058478125002,74.32188880625002,67.0,75.0
96,74.30325528125002,75.53306793125002,65.0,77.0
97,75.79393728125001,76.16971336875001,62.0,75.0
98,76.16660778125001,76.56878136250002,65.0,75.0
99,76.53927828125002,76.92437113125001,67.0,75.0
100,76.91194878125002,77.29238325000001,70.0,76.0
101,77.28461928125002,78.57809647500001,65.0,75.0
102,78.77530128125001,79.80169795000002,70.0,74.0
103,79.89331278125002,80.17747403750002,74.0,75.0
104,80.26598328125002,80.86380887500002,72.0,75.0
105,81.01132428125001,81.64486413125002,70.0,74.0
106,81.75666528125001,82.09051593750002,72.0,72.0
107,82.12933578125002,82.45231688125001,70.0,75.0
108,82.50200628125002,82.91194383125001,67.0,73.0
109,82.87467678125002,83.22871375625002,70.0,76.0
110,83.24734728125001,84.50976860000002,65.0,72.0
111,84.73802928125002,85.69920861250002,62.0,76.0
112,85.85604078125002,86.13709645000002,65.0,72.0
113,86.22871128125001,86.91815170625001,67.0,70.0
114,86.97405228125001,87.24268560000002,65.0,73.0
115,87.34672278125001,87.62933124375002,67.0,74.0
116,87.71939328125,88.32964122500002,70.0,75.0
117,88.46473428125002,88.81921774375002,72.0,68.0
118,88.83796774375001,89.15203024375,65.0,76.0
119,89.21296774375001,90.39265524375001,67.0,69.0
120,90.71296774375001,91.05515524375001,62.0,76.0
121,91.08796774375001,91.46921774375001,60.0,70.0
122,91.46296774375001,92.22234274375,58.0,72.0
123,92.21296774375001,93.46609274375001,60.0,70.0
124,93.71296774375001,94.34578024375001,60.0,75.0
125,94.46296774375001,94.77859274375001,60.0,73.0
126,94.83796774375001,95.12703024375001,62.0,70.0
127,95.21296774375001,95.83953024375,65.0,74.0
128,95.96296774375001,96.51453024375002,65.0,70.0
129,96.71296774375001,97.30359274375002,70.0,76.0
130,97.46296774375001,97.77859274375001,60.0,73.0
131,97.83796774375001,98.14734274375002,62.0,69.0
132,98.21296774375001,99.49186821250002,65.0,72.0
133,99.70460095625002,100.09124660000002,62.0,74.0
134,100.07727145625002,100.47168106875002,65.0,77.0
135,100.44994195625002,100.88317141250002,70.0,75.0
136,100.82261245625001,101.21391648125001,67.0,75.0
137,101.19528295625001,102.42509560625001,65.0,77.0
138,102.68596495625002,103.06174104375002,62.0,75.0
139,103.05863545625002,103.46080903750001,65.0,75.0
140,103.43130595625001,103.81639880625002,67.0,75.0
141,103.80397645625001,104.18441092500002,70.0,76.0
142,104.17664695625001,105.47012415000002,65.0,75.0
143,105.66732895625002,106.69501723750002,70.0,74.0
144,106.78691748125003,107.07196400000002,74.0,75.0
145,107.16074898125002,107.76043701250002,72.0,75.0
146,107.90841198125003,108.54392553125003,70.0,74.0
147,108.65607498125003,108.99096570000002,72.0,72.0
148,109.02990648125002,109.35389378125002,70.0,75.0
149,109.40373798125002,109.81495263125002,67.0,73.0
150,109.77756948125003,110.13270940625003,70.0,76.0
151,110.15140098125002,111.41775518750002,65.0,72.0
152,111.64672698125003,112.61090072500002,62.0,76.0
153,112.76822148125002,113.05015273750003,65.0,72.0
154,113.14205298125002,113.83364125625002,67.0,70.0
155,113.88971598125002,114.15918618750003,65.0,73.0
156,114.26354748125003,114.54703636875003,67.0,74.0
157,114.63737898125002,115.24952806250002,70.0,75.0
158,115.38504198125003,115.74018190625003,72.0,68.0
159,115.75887348125002,116.07195736250003,65.0,76.0
160,116.13270498125003,117.30871657500002,67.0,69.0
161,117.62803098125002,118.63426076875002,62.0,76.0
162,118.74952548125002,119.02678384375002,70.0,75.0
163,119.12335698125003,119.70481779375002,67.0,74.0
164,119.86941393125002,120.51537613125002,65.0,72.0
165,120.61475493125003,121.00140057500003,62.0,74.0
166,120.98742543125003,121.38028225000002,60.0,74.0
167,121.36009593125003,121.77935024375003,58.0,68.0
168,121.73276643125003,122.15823191875003,62.0,63.0
169,122.10543693125003,123.40823088750003,60.0,73.0
170,123.59611893125003,124.55574546875003,60.0,75.0
171,124.71413043125003,125.05419226250002,62.0,74.0
172,125.08680093125002,125.79332208750003,65.0,76.0
173,125.83214193125002,126.46568178125003,67.0,67.0
174,126.57748293125003,127.34922142500002,70.0,74.0
175,127.32282393125003,127.69394163750003,72.0,74.0
176,127.69549443125003,128.10543198125004,74.0,74.0
177,128.06816493125004,128.69704640000003,72.0,76.0
178,128.81350593125003,129.45946813125002,70.0,75.0
179,129.55884693125003,129.86008891875002,72.0,74.0
180,129.93151743125003,130.24362897500004,70.0,74.0
181,130.30418793125003,130.61785226875003,65.0,75.0
182,130.67685843125003,130.99828673750002,67.0,70.0
183,131.04952893125002,133.43571833125003,70.0,74.0
184,160.92300396875004,161.30964961250004,62.0,74.0
185,161.29567446875004,161.69008408125003,65.0,77.0
186,161.66834496875003,162.10157442500002,70.0,75.0
187,162.04101546875003,162.43231949375004,67.0,75.0
188,162.41368596875003,163.64349861875004,65.0,77.0
189,163.90436796875002,164.28014405625004,62.0,75.0
190,164.27703846875005,164.67921205000005,65.0,75.0
191,164.64970896875005,165.03480181875003,67.0,75.0
192,165.02237946875005,165.40281393750004,70.0,76.0
193,165.39504996875004,166.68852716250004,65.0,75.0
194,166.88573196875004,167.91212863750005,70.0,74.0
195,168.00374346875003,168.28790472500003,74.0,75.0
196,168.37641396875003,168.97423956250003,72.0,75.0
197,169.12175496875003,169.75529481875003,70.0,74.0
198,169.86709596875005,170.20094662500003,72.0,72.0
199,170.23976646875005,170.56274756875004,70.0,75.0
200,170.61243696875005,171.02237451875004,67.0,73.0
201,170.98510746875004,171.33914444375003,70.0,76.0
202,171.35777796875004,172.62019928750004,65.0,72.0
203,172.84845996875003,173.80963930000004,62.0,76.0
204,173.96647146875003,174.24752713750004,65.0,72.0
205,174.33914196875003,175.02858239375004,67.0,70.0
206,175.08448296875002,175.35311628750003,65.0,73.0
207,175.45715346875005,175.73976193125003,67.0,74.0
208,175.82982396875005,176.44007191250003,70.0,75.0
209,176.57516496875004,176.92920194375003,72.0,68.0
210,176.94783546875004,177.25994701250005,65.0,76.0
211,177.32050596875004,178.49286525000002,67.0,69.0
212,178.81118796875003,179.81429273125005,62.0,76.0
213,179.92919946875003,180.20559675625003,70.0,75.0
214,180.30186996875003,180.88261483125004,67.0,74.0
215,181.04721096875005,181.69317316875004,65.0,72.0
216,181.79255196875005,182.17919761250005,62.0,74.0
217,182.16522246875004,182.55807928750005,60.0,74.0
218,182.53789296875004,182.95714728125003,58.0,68.0
219,182.91056346875004,183.33602895625003,62.0,63.0
220,183.28323396875004,184.58602792500005,60.0,73.0
221,184.77391596875003,185.73354250625005,60.0,75.0
222,185.89192746875005,186.23198930000004,62.0,74.0
223,186.26459796875002,186.97111912500003,65.0,76.0
224,187.00993896875002,187.64347881875005,67.0,67.0
225,187.83447245000002,188.61708050000004,70.0,76.0
226,188.57360227500004,189.00683173125003,72.0,75.0
227,188.97577585625004,189.43074442500003,74.0,69.0
228,189.37794943750004,190.40434610625005,72.0,75.0
229,190.37794861250003,191.10310329375005,70.0,76.0
230,191.46800982500002,192.06583541875005,72.0,74.0
231,192.01769881250004,192.61862999375003,70.0,76.0
232,192.63881631250004,193.34689026250004,65.0,76.0
233,193.29409527500005,193.98353570000003,67.0,76.0
234,193.98974687500004,196.15434136250005,70.0,74.0
