,start,end,pitch,velocity
0,5.93011933125,6.45496361875,53.0,66.0
1,6.30278983125,6.89440425,62.0,70.0
2,6.67546033125,7.14750963125,58.0,66.0
3,7.04813083125,7.46117396875,65.0,75.0
4,7.793471831250001,8.018626925,62.0,74.0
5,7.42080133125,8.0993722,53.0,41.0
6,5.55744883125,8.28726024375,46.0,74.0
7,8.16614233125,8.52949606875,62.0,29.0
8,7.793471831250001,8.64750839375,70.0,70.0
9,7.793471831250001,8.65837795,65.0,76.0
10,8.16614233125,8.802787768750001,58.0,72.0
11,9.28415383125,9.7142777,62.0,57.0
12,9.28415383125,9.80589253125,65.0,66.0
13,8.91148333125,9.81520929375,53.0,55.0
14,8.53881283125,9.90216574375,46.0,75.0
15,9.65682433125,10.14129598125,58.0,61.0
16,10.02949483125,10.499991337500001,70.0,71.0
17,10.77483583125,11.4534067,62.0,63.0
18,10.77483583125,11.4627234625,65.0,69.0
19,10.40216533125,11.46582905,53.0,63.0
20,11.14750633125,11.49222654375,58.0,60.0
21,10.02949483125,11.52017683125,46.0,68.0
22,11.89284733125,12.3937983375,53.0,66.0
23,12.267235837500001,12.8500483375,62.0,72.0
24,12.642235837500001,13.1437983375,53.0,61.0
25,13.017235837500001,14.128173337500002,65.0,73.0
26,13.767235837500001,14.175048337500002,62.0,76.0
27,13.392235837500001,14.3031733375,53.0,52.0
28,11.52017683125,14.3359858375,46.0,74.0
29,14.142235837500001,14.930275900000002,70.0,72.0
30,14.891335118750002,15.377316068750002,53.0,62.0
31,15.265166618750001,15.905353062500001,62.0,74.0
32,15.638998118750001,16.146785906250003,53.0,56.0
33,16.01282961875,16.864853912500003,65.0,74.0
34,16.386661118750002,17.061115450000003,53.0,59.0
35,14.517235837500001,17.115632543750003,46.0,75.0
36,16.76049261875,17.315009343750003,70.0,73.0
37,17.13432411875,17.87575659375,58.0,75.0
38,17.508155618750003,18.5595567125,43.0,71.0
39,17.88198711875,18.57046013125,50.0,50.0
40,18.255818618750002,18.73245378125,62.0,78.0
41,18.62965011875,19.00971214375,58.0,75.0
42,19.377313118750003,20.057997975000003,55.0,59.0
43,19.75114461875,20.138994800000003,63.0,73.0
44,19.00348161875,20.357063175,48.0,74.0
45,20.124976118750002,20.596938387500003,60.0,75.0
46,20.49880761875,21.1826077375,52.0,75.0
47,20.87263911875,21.260489300000003,55.0,61.0
48,20.49880761875,21.29943008125,64.0,74.0
49,21.246470618750003,21.679492106250002,67.0,77.0
50,21.620302118750004,22.08136096875,60.0,75.0
51,22.74179661875,23.433384893750002,57.0,79.0
52,22.36796511875,23.450518837500002,48.0,62.0
53,23.115628118750003,23.470768043750002,53.0,77.0
54,21.994133618750002,23.481671462500003,65.0,69.0
55,21.994133618750002,23.49257488125,41.0,66.0
56,23.863291118750002,24.272948137500002,53.0,69.0
57,23.489459618750004,24.280736293750003,62.0,71.0
58,23.489459618750004,24.864848012500005,46.0,74.0
59,24.61095411875,24.945844837500005,53.0,69.0
60,24.23712261875,25.029956925,58.0,76.0
61,24.984785618750003,25.473881831250004,63.0,70.0
62,25.358617118750004,25.827464125000002,58.0,65.0
63,25.732448618750002,26.051763025000003,67.0,77.0
64,24.984785618750003,26.10628011875,51.0,75.0
65,26.10628011875,26.514379506250002,58.0,75.0
66,26.48011161875,27.126528587500005,62.0,68.0
67,27.227774618750004,27.688833468750005,62.0,60.0
68,27.227774618750004,27.688833468750005,65.0,72.0
69,26.853943118750003,27.741792931250004,53.0,68.0
70,26.48011161875,27.790079500000004,46.0,75.0
71,27.601606118750002,28.053319181250004,58.0,69.0
72,27.97543761875,28.575125650000004,63.0,69.0
73,28.723100618750003,28.769829556250002,63.0,30.0
74,28.34926911875,28.790078762500002,58.0,69.0
75,27.97543761875,28.917804525,51.0,68.0
76,28.723100618750003,29.232446037500004,67.0,76.0
77,29.096932118750004,29.537741762500005,58.0,74.0
78,29.470763618750002,30.508146031250003,43.0,67.0
79,29.470763618750002,30.539298656250004,62.0,69.0
80,29.844595118750004,30.543971550000002,50.0,61.0
81,30.592258118750003,30.81967228125,58.0,75.0
82,30.21842661875,31.00347276875,67.0,75.0
83,30.966089618750004,31.53929791875,63.0,71.0
84,31.339921118750006,31.82901733125,55.0,58.0
85,31.71375261875,31.872631006250003,60.0,68.0
86,30.966089618750004,32.020605975,48.0,74.0
87,31.71375261875,32.274499868750006,67.0,66.0
88,32.08758411875,32.550200600000004,60.0,74.0
89,32.46141561875,33.55798801875,65.0,71.0
90,33.209078618750006,33.662349312500005,57.0,69.0
91,33.58291011875,34.0984860625,53.0,78.0
92,33.95674161875,34.550199125000006,60.0,71.0
93,34.33057311875,34.760479343750006,53.0,78.0
94,32.835247118750004,34.827457487500006,48.0,57.0
95,32.46141561875,34.87885931875,41.0,75.0
96,34.704404618750004,35.070447962500005,57.0,77.0
97,34.704404618750004,35.09381243125,60.0,72.0
98,35.078236118750006,35.22153819375,53.0,79.0
99,35.45206761875,36.187269568750004,62.0,70.0
100,35.82589911875,36.31188006875001,53.0,70.0
101,35.45206761875,36.654558943750004,46.0,73.0
102,36.19973061875,36.7215370875,58.0,74.0
103,36.573562118750004,36.797861018750005,50.0,62.0
104,36.947393618750006,37.129636475000005,60.0,65.0
105,36.947393618750006,37.47698824375,65.0,71.0
106,36.947393618750006,37.79630265,53.0,70.0
107,37.32122511875,37.79630265,60.0,74.0
108,37.69505661875,38.01904391875,65.0,74.0
109,37.69505661875,38.029947337500005,69.0,77.0
110,38.06888811875,38.24334281875,60.0,75.0
111,38.442719618750004,38.89910557500001,62.0,67.0
112,38.442719618750004,39.01748555,58.0,70.0
113,38.816551118750006,39.3134354875,53.0,70.0
114,38.442719618750004,39.561098856250005,46.0,74.0
115,39.19038261875001,39.634307525000004,62.0,74.0
116,39.19038261875001,40.198170037500006,65.0,74.0
117,39.56421411875,40.447391037500005,58.0,77.0
118,40.685708618750006,41.04084854375,62.0,80.0
119,40.311877118750004,41.313434012500004,53.0,61.0
120,39.93804561875,41.343029006250006,46.0,75.0
121,41.05954011875001,41.557982118750004,58.0,78.0
122,41.43337161875,41.984773081250005,65.0,73.0
123,42.181034618750004,42.438043775000004,62.0,59.0
124,42.181034618750004,42.60471031875,70.0,72.0
125,42.181034618750004,42.63897820625,65.0,75.0
126,41.43337161875,42.765146337500006,46.0,64.0
127,41.80720311875,42.769819231250004,53.0,61.0
128,42.554866118750006,43.360161475000005,58.0,71.0
129,43.67636061875,43.82900848125001,58.0,70.0
130,43.30252911875,43.92402398750001,53.0,63.0
131,43.67636061875,43.95984950625,62.0,76.0
132,42.92869761875001,43.9800987125,46.0,68.0
133,44.050192118750005,44.248011287500006,57.0,76.0
134,44.424023618750006,44.903774043750005,55.0,74.0
135,44.79785511875001,45.237107131250006,50.0,70.0
136,45.17168661875,45.26514449375001,55.0,76.0
137,44.424023618750006,45.27449028125,43.0,65.0
138,45.17168661875,45.56420969375,58.0,74.0
139,45.54551811875,45.656109937500005,55.0,77.0
140,45.919349618750005,46.388196625000006,63.0,65.0
141,46.293181118750006,46.45673240000001,54.0,74.0
142,45.919349618750005,46.515922387500005,60.0,64.0
143,46.66701261875001,47.090688318750004,67.0,81.0
144,45.919349618750005,47.24333618125001,48.0,66.0
145,47.04084411875001,47.29629564375001,60.0,76.0
146,47.41467561875,47.889753150000004,64.0,71.0
147,47.41467561875,47.91934814375001,60.0,73.0
148,47.788507118750005,48.15143520000001,55.0,60.0
149,47.41467561875,48.30875595625,48.0,75.0
150,48.162338618750006,48.520593806250005,64.0,64.0
151,48.162338618750006,48.573553268750004,67.0,74.0
152,48.53617011875001,49.00345949375001,60.0,78.0
153,48.91000161875001,49.73710381250001,65.0,76.0
154,49.28383311875,49.87261773125001,48.0,74.0
155,48.91000161875001,49.91311614375001,41.0,75.0
156,49.657664618750005,50.348237018750005,57.0,81.0
157,50.40413759375,51.213143137500005,58.0,62.0
158,51.149478593750004,51.506621156250006,62.0,69.0
159,50.776808093750006,51.588919225000005,53.0,72.0
160,50.40413759375,51.817179906250004,46.0,73.0
161,51.52214909375,51.963142518750004,58.0,76.0
162,51.89481959375,52.360657718750005,63.0,70.0
163,52.267490093750006,52.683638818750005,58.0,69.0
164,51.89481959375,52.8963715625,51.0,69.0
165,52.640160593750004,53.006619918750005,65.0,75.0
166,53.01283109375,53.352892925000006,63.0,66.0
167,53.38550159375001,53.840470162500004,58.0,64.0
168,53.38550159375001,53.873078831250005,62.0,58.0
169,54.13084259375,54.48177398125,65.0,74.0
170,54.13084259375,54.498854712500005,62.0,76.0
171,53.758172093750005,54.550096906250005,53.0,71.0
172,53.38550159375001,54.758171268750004,46.0,74.0
173,54.50351309375,54.924320200000004,58.0,74.0
174,54.87618359375,55.33581054375,63.0,72.0
175,55.248854093750005,55.69295310625,58.0,70.0
176,54.87618359375,55.88084115,51.0,69.0
177,55.62152459375,56.019039793750004,65.0,76.0
178,55.99419509375,56.34100022500001,63.0,70.0
179,56.36747995625001,57.03103086875001,65.0,71.0
180,56.36747995625001,57.04504955000001,58.0,63.0
181,56.74131145625001,57.266233187500006,53.0,65.0
182,57.115142956250004,57.62760363750001,62.0,76.0
183,57.488974456250006,57.99364698125001,53.0,65.0
184,57.86280595625001,58.38617005625001,58.0,66.0
185,57.86280595625001,58.47962793125001,65.0,72.0
186,58.61046895625001,58.75221340000001,58.0,73.0
187,58.23663745625001,58.77713550000001,53.0,63.0
188,56.36747995625001,58.87993916250001,46.0,74.0
189,58.61046895625001,59.02947176250001,62.0,75.0
190,58.984300456250004,59.48430008750001,58.0,75.0
191,59.73196345625001,60.18679178125001,50.0,55.0
192,59.358131956250006,60.19302230625001,43.0,68.0
193,59.358131956250006,60.37214990000001,67.0,65.0
194,60.10579495625001,60.502990925000006,62.0,77.0
195,60.47962645625001,60.66809983750001,58.0,75.0
196,60.85345795625001,61.361245743750004,63.0,70.0
197,60.85345795625001,61.37214916250001,60.0,67.0
198,61.227289456250006,61.633831212500006,55.0,57.0
199,60.85345795625001,61.728846718750006,48.0,74.0
200,61.60112095625001,61.77090276250001,60.0,71.0
201,61.60112095625001,62.05906454375001,63.0,73.0
202,61.60112095625001,62.07619848750001,67.0,68.0
203,61.97495245625001,62.51077760625001,60.0,74.0
204,62.34878395625001,63.11981142500001,57.0,72.0
205,62.72261545625001,63.163425100000005,48.0,64.0
206,63.096446956250006,63.936010200000005,53.0,79.0
207,64.21794145625,64.62915610625001,53.0,76.0
208,63.47027845625001,64.94068235625001,48.0,61.0
209,63.84410995625001,64.94535525,60.0,71.0
210,62.34878395625001,64.98741129375,41.0,75.0
211,64.96560445625,65.33943595625001,53.0,78.0
212,64.59177295625001,65.40174120625001,65.0,75.0
213,65.33943595625001,65.879934,58.0,65.0
214,65.71326745625001,66.22417050625,53.0,75.0
215,65.33943595625001,66.27868760000001,46.0,71.0
216,66.08709895625,66.45781519375001,58.0,73.0
217,66.08709895625,66.46404571875001,62.0,75.0
218,66.46093045625001,66.71949724375001,46.0,75.0
219,66.83476195625,67.32385816875001,63.0,70.0
220,66.83476195625,67.356568425,60.0,66.0
221,67.20859345625001,67.63694205000002,55.0,60.0
222,67.58242495625001,67.76778307500001,60.0,67.0
223,66.83476195625,67.8020509625,48.0,74.0
224,67.58242495625001,68.02167696875,63.0,74.0
225,67.58242495625001,68.029465125,67.0,69.0
226,67.95625645625,68.43912214375001,60.0,75.0
227,68.33008795625001,68.43912214375001,60.0,67.0
228,68.33008795625001,69.05438648750001,53.0,67.0
229,68.70391945625,69.23039881875,48.0,64.0
230,68.33008795625001,69.28803117500001,41.0,75.0
231,69.07775095625001,69.437563775,57.0,75.0
232,69.45158245625001,69.82385632500001,53.0,80.0
233,69.82541395625,70.64005510000001,58.0,67.0
234,70.57307695625,71.02011712500001,62.0,66.0
235,71.32073995625001,71.65874593750002,65.0,74.0
236,70.94690845625001,72.08586580625001,58.0,71.0
237,70.19924545625001,72.21785327500001,53.0,63.0
238,71.69456178125002,72.75667270625001,62.0,78.0
239,72.06723228125001,72.78928137500002,70.0,75.0
240,69.82541395625,72.79549255000002,46.0,74.0
241,72.43990278125001,72.81102048750002,53.0,70.0
242,73.18524378125001,73.68369057500001,53.0,66.0
243,73.55791428125002,74.13710635000001,62.0,72.0
244,73.93058478125002,74.42903157500001,53.0,61.0
245,74.30325528125002,75.40729163750001,65.0,73.0
246,75.04859628125001,75.45387545000001,62.0,76.0
247,74.67592578125002,75.58120453750001,53.0,52.0
248,72.81257328125001,75.61381320625001,46.0,74.0
249,75.42126678125001,76.20542762500001,70.0,72.0
250,76.16660778125001,76.65107943125001,53.0,62.0
251,76.53927828125002,77.17747651250002,62.0,74.0
252,76.91194878125002,77.41815954375001,53.0,56.0
253,77.28461928125002,78.13399746250002,65.0,74.0
254,77.65728978125001,78.32964947500001,53.0,59.0
255,75.79393728125001,78.38399725625001,46.0,75.0
256,78.02996028125001,78.58275485625002,70.0,73.0
257,78.40263078125001,79.14176060625002,58.0,75.0
258,78.77530128125001,79.82343706250002,43.0,71.0
259,79.14797178125002,79.83430661875002,50.0,50.0
260,79.52064228125002,79.99579716875002,62.0,78.0
261,79.89331278125002,80.27219445625002,58.0,75.0
262,80.63865378125001,81.31722465000001,55.0,59.0
263,81.01132428125001,81.39796992500001,63.0,73.0
264,80.26598328125002,81.61536105000002,48.0,74.0
265,81.38399478125001,81.85449128750001,60.0,75.0
266,81.75666528125001,82.43834173750001,52.0,75.0
267,82.12933578125002,82.515981425,55.0,61.0
268,81.75666528125001,82.55480126875001,64.0,74.0
269,82.50200628125002,82.93368294375001,67.0,77.0
270,82.87467678125002,83.33430373125002,60.0,75.0
271,83.99268828125001,84.68212870625001,57.0,79.0
272,83.62001778125001,84.69920943750002,48.0,62.0
273,84.36535878125001,84.71939575625001,53.0,77.0
274,83.24734728125001,84.73026531250001,65.0,69.0
275,83.24734728125001,84.74113486875001,41.0,66.0
276,85.11069978125002,85.51908453750002,53.0,69.0
277,84.73802928125002,85.52684850625002,62.0,71.0
278,84.73802928125002,86.10914616250001,46.0,74.0
279,85.85604078125002,86.18989143750001,53.0,69.0
280,85.48337028125002,86.27374230000001,58.0,76.0
281,86.22871128125001,86.71628851875002,63.0,70.0
282,86.60138178125001,87.06877270000001,58.0,65.0
283,86.97405228125001,87.29237500000002,67.0,77.0
284,86.22871128125001,87.34672278125001,51.0,75.0
285,87.34672278125001,87.75355474375002,58.0,75.0
286,87.71939328125,88.36380268750001,62.0,68.0
287,88.46473428125002,88.92546774375,62.0,60.0
288,88.46473428125002,88.92546774375,65.0,72.0
289,88.09206378125002,88.97859274375001,53.0,68.0
290,87.71939328125,89.02703024375,46.0,75.0
291,88.83796774375001,89.29109274375001,58.0,69.0
292,89.21296774375001,89.81453024375001,63.0,69.0
293,89.96296774375001,90.00984274375001,63.0,30.0
294,89.58796774375001,90.03015524375002,58.0,69.0
295,89.21296774375001,90.15828024375001,51.0,68.0
296,89.96296774375001,90.47390524375001,67.0,76.0
297,90.33796774375001,90.78015524375002,58.0,74.0
298,90.71296774375001,91.75359274375,43.0,67.0
299,90.71296774375001,91.78484274375,62.0,69.0
300,91.08796774375001,91.78953024375001,50.0,61.0
301,91.83796774375001,92.06609274375,58.0,75.0
302,91.46296774375001,92.25046774375001,67.0,75.0
303,92.21296774375001,92.78796774375002,63.0,71.0
304,92.58796774375001,93.07859274375001,55.0,58.0
305,92.96296774375001,93.12234274375001,60.0,68.0
306,92.21296774375001,93.27078024375001,48.0,74.0
307,92.96296774375001,93.52546774375001,67.0,66.0
308,93.33796774375001,93.80203024375001,60.0,74.0
309,93.71296774375001,94.81296774375001,65.0,71.0
310,94.46296774375001,94.91765524375,57.0,69.0
311,94.83796774375001,95.35515524375,53.0,78.0
312,95.21296774375001,95.80828024375,60.0,71.0
313,95.58796774375001,96.01921774375,53.0,78.0
314,94.08796774375001,96.08640524375001,48.0,57.0
315,93.71296774375001,96.13796774375001,41.0,75.0
316,95.96296774375001,96.33015524375001,57.0,77.0
317,95.96296774375001,96.35359274375001,60.0,72.0
318,96.33796774375001,96.48171774375001,53.0,79.0
319,96.71296774375001,97.45046774375001,62.0,70.0
320,97.08796774375001,97.57546774375001,53.0,70.0
321,96.71296774375001,97.91921774375001,46.0,73.0
322,97.46296774375001,97.98640524375001,58.0,74.0
323,97.83796774375001,98.06296774375001,50.0,62.0
324,98.21296774375001,98.39559582500002,60.0,65.0
325,98.21296774375001,98.74186883125002,65.0,71.0
326,98.21296774375001,99.06019155000001,53.0,70.0
327,98.58658945625001,99.06019155000001,60.0,74.0
328,98.95925995625002,99.28224105625002,65.0,74.0
329,98.95925995625002,99.29311061250002,69.0,77.0
330,99.33193045625002,99.50584335625001,60.0,75.0
331,99.70460095625002,100.15956952500002,62.0,67.0
332,99.70460095625002,100.27758185000002,58.0,70.0
333,100.07727145625002,100.57261266250002,53.0,70.0
334,99.70460095625002,100.81950686875001,46.0,74.0
335,100.44994195625002,100.89248817500001,62.0,74.0
336,100.44994195625002,101.45459951250001,65.0,74.0
337,100.82261245625001,101.70304651250001,58.0,77.0
338,101.94062395625002,102.29466093125002,62.0,80.0
339,101.56795345625002,102.56639983750001,53.0,61.0
340,101.19528295625001,102.59590291875001,46.0,75.0
341,102.31329445625002,102.81018845625002,58.0,78.0
342,102.68596495625002,103.23565394375002,65.0,73.0
343,103.43130595625001,103.68751692500001,62.0,59.0
344,103.43130595625001,103.85366585625002,70.0,72.0
345,103.43130595625001,103.88782731875001,65.0,75.0
346,102.68596495625002,104.01360361250002,46.0,64.0
347,103.05863545625002,104.01826199375002,53.0,61.0
348,103.80397645625001,104.60677082500001,58.0,71.0
349,104.92198795625002,105.07416174375001,58.0,70.0
350,104.54931745625002,105.16888216250001,53.0,63.0
351,104.92198795625002,105.20459641875001,62.0,76.0
352,104.17664695625001,105.22478273750002,46.0,68.0
353,105.29465845625002,105.49186326250002,57.0,76.0
354,105.66732895625002,106.14558943125002,55.0,74.0
355,106.03999945625002,106.47850649375002,50.0,70.0
356,106.41308598125002,106.50654385625002,55.0,76.0
357,105.66732895625002,106.51588964375003,43.0,65.0
358,106.41308598125002,106.80560905625002,58.0,74.0
359,106.78691748125003,106.89750930000002,55.0,77.0
360,107.16074898125002,107.62959598750002,63.0,65.0
361,107.53458048125002,107.69813176250003,54.0,74.0
362,107.16074898125002,107.75732175000002,60.0,64.0
363,107.90841198125003,108.33208768125002,67.0,81.0
364,107.16074898125002,108.48473554375002,48.0,66.0
365,108.28224348125002,108.53769500625002,60.0,76.0
366,108.65607498125003,109.13115251250002,64.0,71.0
367,108.65607498125003,109.16074750625002,60.0,73.0
368,109.02990648125002,109.39283456250003,55.0,60.0
369,108.65607498125003,109.55015531875003,48.0,75.0
370,109.40373798125002,109.76199316875002,64.0,64.0
371,109.40373798125002,109.81495263125002,67.0,74.0
372,109.77756948125003,110.24485885625002,60.0,78.0
373,110.15140098125002,110.97850317500003,65.0,76.0
374,110.52523248125003,111.11401709375002,48.0,74.0
375,110.15140098125002,111.15451550625002,41.0,75.0
376,110.89906398125002,111.59065225625002,57.0,81.0
377,111.64672698125003,112.45825286250002,58.0,62.0
378,112.39438998125003,112.75264516875002,62.0,69.0
379,112.02055848125002,112.83519962500003,53.0,72.0
380,111.64672698125003,113.06417141875002,46.0,73.0
381,112.76822148125002,113.21058875625002,58.0,76.0
382,113.14205298125002,113.60934235625002,63.0,70.0
383,113.51588448125003,113.93332965625002,58.0,69.0
384,113.14205298125002,114.14672513750003,51.0,69.0
385,113.88971598125002,114.25731695625002,65.0,75.0
386,114.26354748125003,114.60466872500002,63.0,66.0
387,114.63737898125002,115.09376493750003,58.0,64.0
388,114.63737898125002,115.12647519375003,62.0,58.0
389,115.38504198125003,115.73706664375003,65.0,74.0
390,115.38504198125003,115.75420058750002,62.0,76.0
391,115.01121048125002,115.80560241875003,53.0,71.0
392,114.63737898125002,116.01432500625002,46.0,74.0
393,115.75887348125002,116.18099155000002,58.0,74.0
394,116.13270498125003,116.59376383125002,63.0,72.0
395,116.50653648125002,116.95201901875002,58.0,70.0
396,116.13270498125003,117.14049240000003,51.0,69.0
397,116.88036798125002,117.27912158125002,65.0,76.0
398,117.25419948125003,117.60155125000003,63.0,70.0
399,117.62803098125002,118.29158189375002,65.0,71.0
400,117.62803098125002,118.30560057500003,58.0,63.0
401,118.00186248125003,118.52678421250002,53.0,65.0
402,118.37569398125002,118.88815466250003,62.0,76.0
403,118.74952548125002,119.25419800625002,53.0,65.0
404,119.12335698125003,119.64581163125003,58.0,66.0
405,119.12335698125003,119.73897925625003,65.0,72.0
406,119.86941393125002,120.01071816250003,58.0,73.0
407,119.49674343125002,120.03556286250003,53.0,63.0
408,117.62803098125002,120.13804725000003,46.0,74.0
409,119.86941393125002,120.28711545000003,62.0,75.0
410,120.24208443125002,120.74053122500003,58.0,75.0
411,120.98742543125003,121.44084120625003,50.0,55.0
412,120.61475493125003,121.44705238125003,43.0,68.0
413,120.61475493125003,121.62562366250003,67.0,65.0
414,121.36009593125003,121.75605833750002,62.0,77.0
415,121.73276643125003,121.92065447500002,58.0,75.0
416,122.10543693125003,122.61164769375003,63.0,70.0
417,122.10543693125003,122.62251725000003,60.0,67.0
418,122.47810743125002,122.88338660000002,55.0,57.0
419,122.10543693125003,122.97810701875002,48.0,74.0
420,122.85077793125002,123.02003245000003,60.0,71.0
421,122.85077793125002,123.30729929375002,63.0,73.0
422,122.85077793125002,123.32438002500002,67.0,68.0
423,123.22344843125002,123.75760948125003,60.0,74.0
424,123.59611893125003,124.36475183750002,57.0,72.0
425,123.96878943125003,124.40823006250002,48.0,64.0
426,124.34145993125003,125.17841576250002,53.0,79.0
427,125.45947143125002,125.86940898125003,53.0,76.0
428,124.71413043125003,126.17996773125003,48.0,61.0
429,125.08680093125002,126.18462611250003,60.0,71.0
430,123.59611893125003,126.22655154375002,41.0,75.0
431,126.20481243125003,126.57748293125003,53.0,78.0
432,125.83214193125002,126.63959468125003,65.0,75.0
433,126.57748293125003,127.11630236250002,58.0,65.0
434,126.95015343125003,127.45946978125002,53.0,75.0
435,126.57748293125003,127.51381756250002,46.0,71.0
436,127.32282393125003,127.69238884375002,58.0,73.0
437,127.32282393125003,127.69860001875003,62.0,75.0
438,127.69549443125003,127.95325819375003,46.0,75.0
439,128.06816493125004,128.55574216875002,63.0,70.0
440,128.06816493125004,128.58835083750003,60.0,66.0
441,128.44083543125004,128.86785371250002,55.0,60.0
442,128.81350593125003,128.99828838750003,60.0,67.0
443,128.06816493125004,129.03244985000003,48.0,74.0
444,128.81350593125003,129.25139376875003,63.0,74.0
445,128.81350593125003,129.25915773750003,67.0,69.0
446,129.18617643125003,129.66754249375003,60.0,75.0
447,129.55884693125003,129.66754249375003,60.0,67.0
448,129.55884693125003,130.28089602500003,53.0,67.0
449,129.93151743125003,130.45636171875003,48.0,64.0
450,129.55884693125003,130.51381508750003,41.0,75.0
451,130.30418793125003,130.66288328750002,57.0,75.0
452,130.67685843125003,131.04797613750003,53.0,80.0
453,131.04952893125002,131.86164006250002,58.0,67.0
454,131.79486993125002,132.24101516250005,62.0,66.0
455,132.54163799375004,132.87964397500005,65.0,74.0
456,132.16780649375005,133.30799256875002,58.0,71.0
457,131.42219943125002,133.44039122500004,53.0,63.0
458,132.91546949375004,133.98088926875005,62.0,78.0
459,133.28930099375003,134.01359952500005,70.0,75.0
460,131.04952893125002,134.01983005000002,46.0,74.0
461,133.66313249375003,134.03540636250003,53.0,70.0
462,134.41079549375004,134.91079512500005,53.0,66.0
463,134.78462699375004,135.36562345000004,62.0,72.0
464,135.15845849375003,135.65845812500004,53.0,61.0
465,135.53228999375003,136.63976581250003,65.0,73.0
466,136.27995299375004,136.68649475000004,62.0,76.0
467,135.90612149375005,136.81422051250004,53.0,52.0
468,134.03696399375005,136.84693076875004,46.0,74.0
469,136.65378449375004,137.44038827500003,70.0,72.0
470,137.40144749375003,137.88742844375003,53.0,62.0
471,137.77527899375005,138.41546543750005,62.0,74.0
472,138.14911049375004,138.65689828125005,53.0,56.0
473,138.52294199375004,139.37496628750003,65.0,74.0
474,138.89677349375003,139.57122782500005,53.0,59.0
475,137.02761599375003,139.62574491875003,46.0,75.0
476,139.27060499375003,139.82512171875004,70.0,73.0
477,139.64443649375005,140.38586896875003,58.0,75.0
478,140.01826799375004,141.06966908750005,43.0,71.0
479,140.39209949375004,141.08057250625004,50.0,50.0
480,140.76593099375003,141.24256615625004,62.0,78.0
481,141.13976249375003,141.51982451875003,58.0,75.0
482,141.88742549375004,142.56811035000004,55.0,59.0
483,142.26125699375004,142.64910717500004,63.0,73.0
484,141.51359399375005,142.86717555000004,48.0,74.0
485,142.63508849375003,143.10705076250005,60.0,75.0
486,143.00891999375003,143.69272011250004,52.0,75.0
487,143.38275149375005,143.77060167500005,55.0,61.0
488,143.00891999375003,143.80954245625003,64.0,74.0
489,143.75658299375004,144.18960448125003,67.0,77.0
490,144.13041449375004,144.59147334375004,60.0,75.0
491,145.25190899375005,145.94349726875004,57.0,79.0
492,144.87807749375003,145.96063121250003,48.0,62.0
493,145.62574049375004,145.98088041875005,53.0,77.0
494,144.50424599375003,145.99178383750004,65.0,69.0
495,144.50424599375003,146.00268725625003,41.0,66.0
496,146.37340349375003,146.78306051250004,53.0,69.0
497,145.99957199375004,146.79084866875004,62.0,71.0
498,145.99957199375004,147.37496038750004,46.0,74.0
499,147.12106649375005,147.45595721250004,53.0,69.0
500,146.74723499375003,147.54006930000003,58.0,76.0
501,147.49489799375004,147.98399420625003,63.0,70.0
502,147.86872949375004,148.33757650000004,58.0,65.0
503,148.24256099375003,148.56187540000005,67.0,77.0
504,147.49489799375004,148.61639249375003,51.0,75.0
505,148.61639249375003,149.02449188125004,58.0,75.0
506,148.99022399375005,149.63664096250005,62.0,68.0
507,149.73788699375004,150.19894584375004,62.0,60.0
508,149.73788699375004,150.19894584375004,65.0,72.0
509,149.36405549375004,150.25190530625005,53.0,68.0
510,148.99022399375005,150.30019187500005,46.0,75.0
511,150.11171849375003,150.56343155625004,58.0,69.0
512,150.48554999375006,151.08523802500002,63.0,69.0
513,151.23321299375004,151.27994193125005,63.0,30.0
514,150.85938149375005,151.30019113750004,58.0,69.0
515,150.48554999375006,151.42767018750004,51.0,68.0
516,151.23321299375004,151.74133452500004,67.0,76.0
517,151.60624146875003,152.04568210000005,58.0,74.0
518,151.97891196875003,153.01307260625003,43.0,67.0
519,151.97891196875003,153.04412848125003,62.0,69.0
520,152.35158246875002,153.04878686250004,50.0,61.0
521,153.09692346875005,153.32363135625005,58.0,75.0
522,152.72425296875005,153.50686101875004,67.0,75.0
523,153.46959396875005,154.04102206875004,63.0,71.0
524,153.84226446875005,154.32984170625005,55.0,58.0
525,154.21493496875004,154.37331993125002,60.0,68.0
526,153.46959396875005,154.52083533750005,48.0,74.0
527,154.21493496875004,154.77394071875003,67.0,66.0
528,154.58760546875004,155.04878521250004,60.0,74.0
529,154.96027596875004,156.05344276875005,65.0,71.0
530,155.70561696875004,156.15747995000004,57.0,69.0
531,156.07828746875003,156.59226220000005,53.0,78.0
532,156.45095796875003,157.04257238750003,60.0,71.0
533,156.82362846875003,157.25219954375004,53.0,78.0
534,155.33294646875004,157.31896967500003,48.0,57.0
535,154.96027596875004,157.37021186875003,41.0,75.0
536,157.19629896875003,157.56120550000003,57.0,77.0
537,157.19629896875003,157.58449740625002,60.0,72.0
538,157.56896946875003,157.71182649375004,53.0,79.0
539,157.94163996875002,158.67455861875004,62.0,70.0
540,158.31431046875002,158.79878211875004,53.0,70.0
541,157.94163996875002,159.14039674375005,46.0,73.0
542,158.68698096875005,159.20716687500004,58.0,74.0
543,159.05965146875005,159.28325376875003,50.0,62.0
544,159.43232196875005,159.61399883750005,60.0,65.0
545,159.43232196875005,159.96027184375004,65.0,71.0
546,159.43232196875005,160.27859456250005,53.0,70.0
547,159.80499246875004,160.27859456250005,60.0,74.0
548,160.17766296875004,160.50064406875003,65.0,74.0
549,160.17766296875004,160.51151362500005,69.0,77.0
550,160.55033346875004,160.72424636875004,60.0,75.0
551,160.92300396875004,161.37797253750003,62.0,67.0
552,160.92300396875004,161.49598486250005,58.0,70.0
553,161.29567446875004,161.79101567500004,53.0,70.0
554,160.92300396875004,162.03790988125004,46.0,74.0
555,161.66834496875003,162.11089118750004,62.0,74.0
556,161.66834496875003,162.67300252500004,65.0,74.0
557,162.04101546875003,162.92144952500004,58.0,77.0
558,163.15902696875003,163.51306394375004,62.0,80.0
559,162.78635646875003,163.78480285000003,53.0,61.0
560,162.41368596875003,163.81430593125003,46.0,75.0
561,163.53169746875002,164.02859146875005,58.0,78.0
562,163.90436796875002,164.45405695625004,65.0,73.0
563,164.64970896875005,164.90591993750004,62.0,59.0
564,164.64970896875005,165.07206886875002,70.0,72.0
565,164.64970896875005,165.10623033125003,65.0,75.0
566,163.90436796875002,165.23200662500003,46.0,64.0
567,164.27703846875005,165.23666500625004,53.0,61.0
568,165.02237946875005,165.82517383750005,58.0,71.0
569,166.14039096875004,166.29256475625004,58.0,70.0
570,165.76772046875004,166.38728517500005,53.0,63.0
571,166.14039096875004,166.42299943125005,62.0,76.0
572,165.39504996875004,166.44318575000003,46.0,68.0
573,166.51306146875004,166.71026627500004,57.0,76.0
574,166.88573196875004,167.36399244375005,55.0,74.0
575,167.25840246875003,167.69629030625003,50.0,70.0
576,167.63107296875003,167.72424059375004,55.0,76.0
577,166.88573196875004,167.73355735625003,43.0,65.0
578,167.63107296875003,168.02237699375004,58.0,74.0
579,168.00374346875003,168.11399182500003,55.0,77.0
580,168.37641396875003,168.84380488750003,63.0,65.0
581,168.74908446875003,168.91212781250005,54.0,74.0
582,168.37641396875003,168.97113397500004,60.0,64.0
583,169.12175496875003,169.54411486875003,67.0,81.0
584,168.37641396875003,169.69628865625003,48.0,66.0
585,169.49442546875002,169.74908364375003,60.0,76.0
586,169.86709596875005,170.34069806250005,64.0,71.0
587,169.86709596875005,170.37020114375002,60.0,73.0
588,170.23976646875005,170.60156741250003,55.0,60.0
589,169.86709596875005,170.75839958125005,48.0,75.0
590,170.61243696875005,170.96957953125005,64.0,64.0
591,170.61243696875005,171.02237451875004,67.0,74.0
592,170.98510746875004,171.45094559375005,60.0,78.0
593,171.35777796875004,172.18231145000004,65.0,76.0
594,171.73044846875004,172.31740450625003,48.0,74.0
595,171.35777796875004,172.35777714375004,41.0,75.0
596,172.10311896875004,172.79255939375003,57.0,81.0
597,172.84845996875003,173.65746551250004,58.0,62.0
598,173.59380096875003,173.95094353125003,62.0,69.0
599,173.22113046875003,174.03324160000005,53.0,72.0
600,172.84845996875003,174.26150228125005,46.0,73.0
601,173.96647146875003,174.40746489375005,58.0,76.0
602,174.33914196875003,174.80498009375003,63.0,70.0
603,174.71181246875003,175.12796119375002,58.0,69.0
604,174.33914196875003,175.34069393750005,51.0,69.0
605,175.08448296875002,175.45094229375005,65.0,75.0
606,175.45715346875005,175.79721530000003,63.0,66.0
607,175.82982396875005,176.28479253750004,58.0,64.0
608,175.82982396875005,176.31740120625005,62.0,58.0
609,176.57516496875004,176.92609635625004,65.0,74.0
610,176.57516496875004,176.94317708750003,62.0,76.0
611,176.20249446875005,176.99441928125003,53.0,71.0
612,175.82982396875005,177.20249364375005,46.0,74.0
613,176.94783546875004,177.36864257500002,58.0,74.0
614,177.32050596875004,177.78013291875004,63.0,72.0
615,177.69317646875004,178.13727548125004,58.0,70.0
616,177.32050596875004,178.32516352500005,51.0,69.0
617,178.06584696875004,178.46336216875005,65.0,76.0
618,178.43851746875004,178.78479047500002,63.0,70.0
619,178.81118796875003,179.47267810625004,65.0,71.0
620,178.81118796875003,179.48665325000005,58.0,63.0
621,179.18385846875003,179.70714996250004,53.0,65.0
622,179.55652896875003,180.06739811250003,62.0,76.0
623,179.92919946875003,180.43230464375003,53.0,65.0
624,180.30186996875003,180.82360866875004,58.0,66.0
625,180.30186996875003,180.91677629375005,65.0,72.0
626,181.04721096875005,181.18851520000004,58.0,73.0
627,180.67454046875002,181.21335990000003,53.0,63.0
628,178.81118796875003,181.31584428750003,46.0,74.0
629,181.04721096875005,181.46491248750004,62.0,75.0
630,181.41988146875005,181.91832826250004,58.0,75.0
631,182.16522246875004,182.61863824375004,50.0,55.0
632,181.79255196875005,182.62484941875005,43.0,68.0
633,181.79255196875005,182.80342070000003,67.0,65.0
634,182.53789296875004,182.93385537500004,62.0,77.0
635,182.91056346875004,183.09845151250005,58.0,75.0
636,183.28323396875004,183.78944473125003,63.0,70.0
637,183.28323396875004,183.80031428750004,60.0,67.0
638,183.65590446875004,184.06118363750005,55.0,57.0
639,183.28323396875004,184.15590405625005,48.0,74.0
640,184.02857496875004,184.19782948750003,60.0,71.0
641,184.02857496875004,184.48509633125005,63.0,73.0
642,184.02857496875004,184.50217706250004,67.0,68.0
643,184.40124546875003,184.93540651875003,60.0,74.0
644,184.77391596875003,185.54254887500002,57.0,72.0
645,185.14658646875003,185.58602710000002,48.0,64.0
646,185.51925696875003,186.35621280000004,53.0,79.0
647,186.63726846875005,187.04720601875005,53.0,76.0
648,185.89192746875005,187.35776476875003,48.0,61.0
649,186.26459796875002,187.36242315000004,60.0,71.0
650,184.77391596875003,187.40434858125005,41.0,75.0
651,187.38260946875005,187.75527996875005,53.0,78.0
652,187.00993896875002,187.81739171875003,65.0,75.0
653,188.55496875000003,188.74130400000004,58.0,65.0
654,187.80341657500003,189.08136583125003,46.0,75.0
655,188.16987590000002,189.19627256875003,53.0,75.0
656,188.55341595625003,189.41055810625005,62.0,66.0
657,188.96180071250004,189.41676928125003,58.0,71.0
658,188.55652154375002,189.78012301875003,65.0,74.0
659,189.78943978125005,190.54099195625002,55.0,63.0
660,189.32049606875003,190.81273086250005,48.0,75.0
661,190.21801085625003,191.09378653125003,60.0,77.0
662,190.77546381250005,191.37950058125003,63.0,76.0
663,191.38415896250004,192.64347469375002,65.0,74.0
664,192.48198414375003,192.71179761875004,53.0,62.0
665,192.58757411875004,192.73353673125004,57.0,53.0
666,192.66055542500004,192.84999626250004,60.0,68.0
667,191.98198455625004,193.28167292500004,48.0,62.0
668,191.37950058125003,193.38726290000005,41.0,76.0
669,192.80807083125003,194.18850447500003,65.0,75.0
670,194.77235492500003,194.96334855625003,60.0,68.0
671,195.02856589375006,195.15900056875003,62.0,79.0
672,195.32514950000004,195.45403138125005,65.0,66.0
673,195.57980767500004,195.72266470000005,70.0,65.0
674,195.84222981875004,195.94781979375003,72.0,74.0
675,196.10309916875005,196.19316120625004,74.0,77.0
676,196.39968277500003,196.55030376875004,77.0,70.0
677,196.68229123750004,196.84533458125003,82.0,63.0
678,196.98663881250005,197.11707348750002,84.0,62.0
679,197.30030315000005,197.45713531875003,86.0,73.0
680,197.63725939375004,197.74906054375003,89.0,74.0
681,198.01924665625003,198.10309751875005,94.0,69.0
682,194.46956014375004,198.43228979375004,53.0,69.0
683,194.08291450000004,198.52701021250004,46.0,75.0
