,start,end,pitch,velocity
0,18.728387925,19.11148085,59.0,96.0
1,19.160041924999998,19.471192516666665,60.0,97.0
2,19.591695925,20.33809763333333,62.0,100.0
3,20.455003925,20.75896028333333,62.0,107.0
4,20.886657924999998,21.160038791666665,67.0,112.0
5,21.318311925,21.94600878333333,69.0,117.0
6,22.181619925,22.472986374999998,67.0,112.0
7,22.613273924999998,22.859676416666666,69.0,107.0
8,23.044927925,23.307517441666665,71.0,117.0
9,23.476581924999998,23.740969999999997,72.0,122.0
10,23.908235925,24.208595166666665,74.0,122.0
11,24.339889924999998,24.622263583333332,67.0,102.0
12,24.771543924999996,25.326424468749998,69.0,122.0
13,25.622198618749998,25.917972768749998,67.0,107.0
14,26.04473311875,26.241915885416667,66.0,96.0
15,26.46726761875,27.0324075125,64.0,93.0
16,27.31233661875,27.574660120833332,66.0,122.0
17,27.73487111875,27.9936735,67.0,100.0
18,28.157405618749998,28.592993537499996,62.0,102.0
19,28.5822792625,28.746564812499997,74.0,117.0
20,28.796564762499997,28.980493149999997,76.0,93.0
21,29.010850262499996,29.234064325,74.0,96.0
22,29.439421262499998,29.716206699999997,72.0,107.0
23,29.867992262499996,30.225134762499998,71.0,122.0
24,30.7251342625,31.0644196375,72.0,112.0
25,31.153705262499997,31.442990687499996,71.0,102.0
26,31.5822762625,32.0644186375,69.0,107.0
27,32.4394182625,32.748346524999995,59.0,95.0
28,32.8679892625,33.1501318375,60.0,93.0
29,33.296560262499995,33.8787025375,62.0,102.0
30,34.1537022625,34.48048765,62.0,102.0
31,34.582273262499996,34.926915775,67.0,107.0
32,35.0108442625,35.3465582125,69.0,127.0
33,35.8679862625,36.148343125,67.0,97.0
34,36.2965572625,36.564414137499995,69.0,117.0
35,36.7251282625,37.0001279875,71.0,122.0
36,37.1536992625,37.4590561,72.0,122.0
37,37.582270262499996,37.85191285,74.0,127.0
38,38.010841262499994,38.241198175,67.0,95.0
39,38.2251267625,38.32334095,69.0,93.0
40,38.4394122625,39.034054525,69.0,107.0
41,39.296554262499996,39.6679824625,67.0,96.0
42,39.7251252625,40.119767725,66.0,89.0
43,40.1536962625,40.5358387375,64.0,95.0
44,41.0108382625,41.678694737499995,76.0,127.0
45,41.8679802625,42.2144084875,74.0,127.0
46,43.1536932625,43.305478825,69.0,97.0
47,43.3679787625,43.469764375,71.0,89.0
48,43.5822642625,43.82333545,72.0,102.0
49,44.2251207625,44.460834812499996,71.0,127.0
50,44.8679772625,45.2179769125,69.0,117.0
51,45.296548262499996,47.298331974999996,67.0,97.0
52,47.8679742625,48.219759625,67.0,99.0
53,48.296545262500004,48.534045025,69.0,100.0
54,48.725116262499995,48.925116062499995,71.0,107.0
55,48.9394017625,49.06618735,69.0,82.0
56,49.1536872625,49.326901375,71.0,93.0
57,49.3679727625,49.5144011875,69.0,89.0
58,49.582258262500005,49.867972262500004,71.0,112.0
59,50.010829262499996,50.248329025000004,74.0,122.0
60,50.4394002625,51.1179710125,69.0,99.0
61,51.7251132625,51.8965416625,69.0,99.0
62,51.939398762500005,52.0536843625,71.0,93.0
63,52.1536842625,52.32332695,72.0,102.0
64,52.367969762499996,52.4893982125,71.0,93.0
65,52.5822552625,52.7572550875,72.0,96.0
66,52.7965407625,52.903683512499995,71.0,89.0
67,53.010826262500004,53.230468900000005,72.0,117.0
68,53.4393972625,53.7286826875,76.0,127.0
69,53.8679682625,54.3001106875,71.0,117.0
70,55.1536812625,55.298323975,71.0,99.0
71,55.367966762500004,55.45189525,72.0,95.0
72,55.582252262500006,55.684037875,74.0,107.0
73,55.7965377625,55.8858233875,72.0,107.0
74,56.0108232625,56.1751088125,71.0,95.0
75,56.2251087625,56.33760865,72.0,102.0
76,56.4393942625,56.7965367625,74.0,127.0
77,57.0822507625,57.2108220625,74.0,122.0
78,57.2965362625,57.455464675,72.0,102.0
79,57.5108217625,57.6001073875,71.0,89.0
80,57.7251072625,57.850107137500004,69.0,92.0
81,57.939392762500006,58.05189265,71.0,99.0
82,58.1536782625,58.5179636125,72.0,107.0
83,58.7965347625,58.89474895,72.0,117.0
84,59.010820262500005,59.141177275000004,71.0,99.0
85,59.2251057625,59.3322485125,69.0,89.0
86,59.4393912625,59.5447483,67.0,88.0
87,59.6536767625,59.7572480875,69.0,92.0
88,59.8679622625,60.146533412500006,71.0,117.0
89,60.296533262500006,60.5501044375,76.0,122.0
90,60.725104262500004,61.517960612500005,74.0,127.0
91,61.5822462625,61.934031625,67.0,99.0
92,62.010817262500005,62.248317025,69.0,100.0
93,62.4393882625,62.639388062500004,71.0,107.0
94,62.6536737625,62.78045935,69.0,82.0
95,62.8679592625,63.041173375,71.0,93.0
96,63.082244762500004,63.2286731875,69.0,89.0
97,63.2965302625,63.582244262500005,71.0,112.0
98,63.725101262500004,63.962601025000005,74.0,122.0
99,64.15367226250001,64.8322430125,69.0,99.0
100,65.4393852625,65.6108136625,69.0,99.0
101,65.6536707625,65.7679563625,71.0,93.0
102,65.8679562625,66.03759895,72.0,102.0
103,66.0822417625,66.2036702125,71.0,93.0
104,66.2965272625,66.4715270875,72.0,96.0
105,66.5108127625,66.6179555125,71.0,89.0
106,66.72509826250001,66.9447409,72.0,117.0
107,67.1536692625,67.4429546875,76.0,127.0
108,67.5822402625,68.0143826875,71.0,117.0
109,68.86795326250001,69.01259597500001,71.0,99.0
110,69.0822387625,69.16616725,72.0,95.0
111,69.2965242625,69.398309875,74.0,107.0
112,69.5108097625,69.6000953875,72.0,107.0
113,69.7250952625,69.88938081250001,71.0,95.0
114,69.93938076250001,70.05188065,72.0,102.0
115,70.1536662625,70.5108087625,74.0,127.0
116,70.7965227625,70.9250940625,74.0,122.0
117,71.0108082625,71.169736675,72.0,102.0
118,71.2250937625,71.3143793875,71.0,89.0
119,71.43937926250001,71.5643791375,69.0,92.0
120,71.6536647625,71.76616465000001,71.0,99.0
121,71.8679502625,72.2322356125,72.0,107.0
122,72.51080676250001,72.60902095,72.0,117.0
123,72.7250922625,72.85544927500001,71.0,99.0
124,72.9393777625,73.0465205125,69.0,89.0
125,73.1536632625,73.2590203,67.0,88.0
126,73.3679487625,73.47152008750001,69.0,92.0
127,73.58223426250001,73.86080541250001,71.0,117.0
128,74.0108052625,74.2643764375,76.0,122.0
129,74.4393762625,75.23223261250001,74.0,127.0
130,75.25901830000001,75.4893752125,72.0,127.0
131,75.55187515,75.76616065,71.0,100.0
132,75.8322320125,75.9893747125,69.0,99.0
133,76.0965174625,79.434014125,71.0,122.0
134,109.58219826250001,109.96255502500001,59.0,96.0
135,110.0107692625,110.31969752500001,60.0,97.0
136,110.43934026250001,111.18041095000001,62.0,100.0
137,111.2964822625,111.598267675,62.0,107.0
138,111.72505326250001,111.99648156250001,67.0,112.0
139,112.1536242625,112.77683792500001,69.0,117.0
140,113.01076626250001,113.3000516875,67.0,112.0
141,113.4393372625,113.683979875,69.0,107.0
142,113.86790826250001,114.12862228750001,71.0,117.0
143,114.29647926250001,114.55897900000001,72.0,122.0
144,114.7250502625,115.02326425000001,74.0,122.0
145,115.15362126250001,115.43397812500001,67.0,102.0
146,115.58219226250002,116.13933456250001,69.0,122.0
147,116.43933426250001,116.73933396250001,67.0,107.0
148,116.8679052625,117.0679050625,66.0,96.0
149,117.29647626250001,117.86968997500001,64.0,93.0
150,118.1536182625,118.41968942500002,66.0,122.0
151,118.58218926250001,118.844689,67.0,100.0
152,119.01076026250001,119.4500455375,62.0,102.0
153,119.4393312625,119.60361681250001,74.0,117.0
154,119.65361676250001,119.83754515000001,76.0,93.0
155,119.86790226250001,120.09111632500002,74.0,96.0
156,120.29647326250002,120.57325870000001,72.0,107.0
157,120.7250442625,121.08218676250002,71.0,122.0
158,121.58218626250002,121.9214716375,72.0,112.0
159,122.01075726250001,122.30004268750001,71.0,102.0
160,122.43932826250001,122.92147063750001,69.0,107.0
161,123.29647026250001,123.60539852500001,59.0,95.0
162,123.72504126250001,124.00718383750001,60.0,93.0
163,124.1536122625,124.73575453750001,62.0,102.0
164,125.01075426250001,125.33753965000001,62.0,102.0
165,125.4393252625,125.78396777500001,67.0,107.0
166,125.86789626250001,126.20361021250001,69.0,127.0
167,126.72503826250001,127.005395125,67.0,97.0
168,127.15360926250001,127.4214661375,69.0,117.0
169,127.58218026250002,127.8571799875,71.0,122.0
170,128.0107512625,128.3161081,72.0,122.0
171,128.4393222625,128.70896485000003,74.0,127.0
172,128.8678932625,129.098250175,67.0,95.0
173,129.0821787625,129.18039295,69.0,93.0
174,129.29646426250002,129.891106525,69.0,107.0
175,130.1536062625,130.5250344625,67.0,96.0
176,130.5821772625,130.976819725,66.0,89.0
177,131.01074826250002,131.3928907375,64.0,95.0
178,131.8678902625,132.5357467375,76.0,127.0
179,132.7250322625,133.07146048750002,74.0,127.0
180,134.0107452625,134.162530825,69.0,97.0
181,134.2250307625,134.32681637500002,71.0,89.0
182,134.43931626250003,134.68038745,72.0,102.0
183,135.08217276250002,135.3178868125,71.0,127.0
184,135.72502926250002,136.07502891250002,69.0,117.0
185,136.1536002625,138.155383975,67.0,97.0
186,138.72502626250002,139.076811625,67.0,99.0
187,139.1535972625,139.39109702500002,69.0,100.0
188,139.5821682625,139.7821680625,71.0,107.0
189,139.7964537625,139.92323935000002,69.0,82.0
190,140.0107392625,140.18395337500002,71.0,93.0
191,140.22502476250003,140.3714531875,69.0,89.0
192,140.43931026250002,140.72502426250003,71.0,112.0
193,140.86788126250002,141.105381025,74.0,122.0
194,141.2964522625,141.9750230125,69.0,99.0
195,142.5821652625,142.7535936625,69.0,99.0
196,142.7964507625,142.91073636250002,71.0,93.0
197,143.01073626250002,143.18037895000003,72.0,102.0
198,143.2250217625,143.34645021250003,71.0,93.0
199,143.4393072625,143.6143070875,72.0,96.0
200,143.6535927625,143.7607355125,71.0,89.0
201,143.86787826250003,144.08752090000002,72.0,117.0
202,144.2964492625,144.5857346875,76.0,127.0
203,144.7250202625,145.15716268750003,71.0,117.0
204,146.01073326250003,146.15537597500003,71.0,99.0
205,146.2250187625,146.30894725000002,72.0,95.0
206,146.4393042625,146.541089875,74.0,107.0
207,146.65358976250002,146.74287538750002,72.0,107.0
208,146.8678752625,147.03216081250002,71.0,95.0
209,147.0821607625,147.19466065,72.0,102.0
210,147.2964462625,147.65358876250002,74.0,127.0
211,147.9393027625,148.0678740625,74.0,122.0
212,148.15358826250002,148.312516675,72.0,102.0
213,148.3678737625,148.4571593875,71.0,89.0
214,148.5821592625,148.7071591375,69.0,92.0
215,148.79644476250002,148.90894465000002,71.0,99.0
216,149.01073026250003,149.37501561250002,72.0,107.0
217,149.65358676250003,149.75180095000002,72.0,117.0
218,149.86787226250001,149.99822927500003,71.0,99.0
219,150.0821577625,150.1893005125,69.0,89.0
220,150.29644326250002,150.40180030000002,67.0,88.0
221,150.5107287625,150.6143000875,69.0,92.0
222,150.7250142625,151.0035854125,71.0,117.0
223,151.15358526250003,151.40715643750002,76.0,122.0
224,151.5821562625,152.37501261250003,74.0,127.0
225,152.43929826250002,152.791083625,67.0,99.0
226,152.8678692625,153.10536902500002,69.0,100.0
227,153.29644026250003,153.49644006250003,71.0,107.0
228,153.51072576250002,153.63751135,69.0,82.0
229,153.7250112625,153.898225375,71.0,93.0
230,153.93929676250002,154.08572518750003,69.0,89.0
231,154.1535822625,154.43929626250002,71.0,112.0
232,154.58215326250001,154.819653025,74.0,122.0
233,155.01072426250002,155.6892950125,69.0,99.0
234,156.29643726250004,156.4678656625,69.0,99.0
235,156.5107227625,156.6250083625,71.0,93.0
236,156.7250082625,156.89465095000003,72.0,102.0
237,156.93929376250003,157.06072221250002,71.0,93.0
238,157.1535792625,157.32857908750003,72.0,96.0
239,157.3678647625,157.47500751250004,71.0,89.0
240,157.58215026250002,157.8017929,72.0,117.0
241,158.0107212625,158.3000066875,76.0,127.0
242,158.43929226250003,158.87143468750003,71.0,117.0
243,159.72500526250002,159.86964797500002,71.0,99.0
244,159.93929076250004,160.02321925,72.0,95.0
245,160.1535762625,160.255361875,74.0,107.0
246,160.3678617625,160.45714738750002,72.0,107.0
247,160.58214726250003,160.74643281250002,71.0,95.0
248,160.7964327625,160.90893265,72.0,102.0
249,161.0107182625,161.36786076250002,74.0,127.0
250,161.6535747625,161.78214606250003,74.0,122.0
251,161.86786026250002,162.02678867500003,72.0,102.0
252,162.08214576250003,162.17143138750004,71.0,89.0
253,162.2964312625,162.4214311375,69.0,92.0
254,162.5107167625,162.62321665000002,71.0,99.0
255,162.72500226250003,163.08928761250002,72.0,107.0
256,163.36785876250002,163.46607295,72.0,117.0
257,163.58214426250004,163.71250127500002,71.0,99.0
258,163.7964297625,163.90357251250003,69.0,89.0
259,164.0107152625,164.11607230000004,67.0,88.0
260,164.22500076250003,164.3285720875,69.0,92.0
261,164.4392862625,164.7178574125,71.0,117.0
262,164.86785726250002,165.12142843750001,76.0,122.0
263,165.2964282625,166.08928461250002,74.0,127.0
264,166.1160703,166.34642721250003,72.0,127.0
265,166.40892715,166.62321265000003,71.0,100.0
266,166.68928401250002,166.84642671250003,69.0,99.0
267,166.9535694625,170.29106612500004,71.0,122.0
268,174.283046,174.563046,73.0,107.0
269,174.583046,174.73263551666665,71.0,82.0
270,174.8240533875,175.0050234583333,73.0,93.0
271,175.0479338875,175.20091889583333,71.0,89.0
272,175.2718143875,175.57032172083333,73.0,112.0
273,175.7195753875,175.96770960833334,76.0,122.0
274,176.1673363875,176.8576610125,71.0,99.0
275,177.4648032625,177.6362316625,71.0,99.0
276,177.6790887625,177.7933743625,73.0,93.0
277,177.8933742625,178.06301695,74.0,102.0
278,178.1076597625,178.2290882125,73.0,93.0
279,178.32194526249998,178.4969450875,74.0,96.0
280,178.5362307625,178.64337351249998,73.0,89.0
281,178.75051626249999,178.9701589,74.0,117.0
282,179.1790872625,179.4683726875,78.0,127.0
283,179.6076582625,180.0398006875,73.0,117.0
284,180.89337126249998,181.03801397499998,73.0,99.0
285,181.1076567625,181.19158525,74.0,95.0
286,181.3219422625,181.423727875,76.0,107.0
287,181.5362277625,181.62551338749998,74.0,107.0
288,181.7505132625,181.91479881249998,73.0,95.0
289,181.96479876249998,182.07729865,74.0,102.0
290,182.1790842625,182.53622676249998,76.0,127.0
291,182.8219407625,182.9505120625,76.0,122.0
292,183.03622626249998,183.195154675,74.0,102.0
293,183.2505117625,183.3397973875,73.0,89.0
294,183.46479726249999,183.5897971375,71.0,92.0
295,183.6790827625,183.79158264999998,73.0,99.0
296,183.8933682625,184.25765361249998,74.0,107.0
297,184.53622476249998,184.63443895,74.0,117.0
298,184.7505102625,184.88086727499999,73.0,99.0
299,184.9647957625,185.0719385125,71.0,89.0
300,185.1790812625,185.2844383,69.0,88.0
301,185.3933667625,185.49693808749998,71.0,92.0
302,185.60765226249998,185.8862234125,73.0,117.0
303,186.0362232625,186.2897944375,78.0,122.0
304,186.4647942625,187.2576506125,76.0,127.0
305,187.3219362625,187.67372162499998,69.0,99.0
306,187.75050726249998,187.988007025,71.0,100.0
307,188.17907826249998,188.37907806249999,73.0,107.0
308,188.3933637625,188.52014935,71.0,82.0
309,188.6076492625,188.780863375,73.0,93.0
310,188.8219347625,188.9683631875,71.0,89.0
311,189.0362202625,189.32193426249998,73.0,112.0
312,189.4647912625,189.702291025,76.0,122.0
313,189.8933622625,190.57193301249998,71.0,99.0
314,191.1790752625,191.3505036625,71.0,99.0
315,191.39336076249998,191.5076463625,73.0,93.0
316,191.6076462625,191.77728894999998,74.0,102.0
317,191.8219317625,191.94336021249998,73.0,93.0
318,192.0362172625,192.2112170875,74.0,96.0
319,192.2505027625,192.3576455125,73.0,89.0
320,192.4647882625,192.6844309,74.0,117.0
321,192.89335926249998,193.1826446875,78.0,127.0
322,193.3219302625,193.75407268749998,73.0,117.0
323,194.6076432625,194.752285975,73.0,99.0
324,194.8219287625,194.90585725,74.0,95.0
325,195.03621426249998,195.137999875,76.0,107.0
326,195.2504997625,195.3397853875,74.0,107.0
327,195.4647852625,195.6290708125,73.0,95.0
328,195.6790707625,195.79157064999998,74.0,102.0
329,195.8933562625,196.2504987625,76.0,127.0
330,196.53621276249999,196.6647840625,76.0,122.0
331,196.7504982625,196.909426675,74.0,102.0
332,196.9647837625,197.0540693875,73.0,89.0
333,197.17906926249998,197.3040691375,71.0,92.0
334,197.3933547625,197.50585465,73.0,99.0
335,197.60764026249998,197.9719256125,74.0,107.0
336,198.2504967625,198.34871095,74.0,117.0
337,198.4647822625,198.595139275,73.0,99.0
338,198.67906776249998,198.7862105125,71.0,89.0
339,198.8933532625,198.9987103,69.0,88.0
340,199.1076387625,199.21121008749998,71.0,92.0
341,199.3219242625,199.60049541249998,73.0,117.0
342,199.75049526249998,200.0040664375,78.0,122.0
343,200.1790662625,200.9719226125,76.0,127.0
344,201.0362082625,201.4469221375,69.0,122.0
345,201.4647792625,201.823707475,71.0,122.0
346,201.8933502625,202.0933500625,73.0,107.0
347,202.1076357625,202.23442135,71.0,82.0
348,202.32192126249998,202.495135375,73.0,93.0
349,202.5362067625,202.68263518749998,71.0,89.0
350,202.7504922625,203.0362062625,73.0,112.0
351,203.1790632625,203.416563025,76.0,122.0
352,203.6076342625,204.2862050125,71.0,99.0
353,204.8933472625,205.06477566249998,71.0,99.0
354,205.1076327625,205.2219183625,73.0,93.0
355,205.3219182625,205.49156095,74.0,102.0
356,205.5362037625,205.6576322125,73.0,93.0
357,205.7504892625,205.92548908749998,74.0,96.0
358,205.96477476249999,206.0719175125,73.0,89.0
359,206.1790602625,206.3987029,74.0,117.0
360,206.6076312625,206.89691668749998,78.0,127.0
361,207.03620226249998,207.4683446875,73.0,117.0
362,208.3219152625,208.466557975,73.0,99.0
363,208.5362007625,208.62012925,74.0,95.0
364,208.7504862625,208.85227187499999,76.0,107.0
365,208.9647717625,209.0540573875,74.0,107.0
366,209.1790572625,209.3433428125,73.0,95.0
367,209.3933427625,209.50584265,74.0,102.0
368,209.6076282625,209.9647707625,76.0,127.0
369,210.25048476249998,210.3790560625,76.0,122.0
370,210.4647702625,210.62369867499999,74.0,102.0
371,210.67905576249998,210.7683413875,73.0,89.0
372,210.8933412625,211.0183411375,71.0,92.0
373,211.1076267625,211.22012665,73.0,99.0
374,211.3219122625,211.6861976125,74.0,107.0
375,211.9647687625,212.06298295,74.0,117.0
376,212.1790542625,212.309411275,73.0,99.0
377,212.3933397625,212.50048251249999,71.0,89.0
378,212.6076252625,212.7129823,69.0,88.0
379,212.8219107625,212.9254820875,71.0,92.0
380,213.0361962625,213.3147674125,73.0,117.0
381,213.4647672625,213.7183384375,78.0,122.0
382,213.89333826249998,214.6861946125,76.0,127.0
383,214.7504802625,215.102265625,69.0,99.0
384,215.1790512625,215.416551025,71.0,100.0
385,215.6076222625,215.8076220625,73.0,107.0
386,215.8219077625,215.94869334999999,71.0,82.0
387,216.0361932625,216.209407375,73.0,93.0
388,216.2504787625,216.3969071875,71.0,89.0
389,216.4647642625,216.7504782625,73.0,112.0
390,216.8933352625,217.130835025,76.0,122.0
391,217.3219062625,218.0004770125,71.0,99.0
392,218.6076192625,218.7790476625,71.0,99.0
393,218.8219047625,218.93619036249999,73.0,93.0
394,219.03619026249999,219.20583295,74.0,102.0
395,219.2504757625,219.3719042125,73.0,93.0
396,219.4647612625,219.6397610875,74.0,96.0
397,219.67904676249998,219.7861895125,73.0,89.0
398,219.8933322625,220.11297489999998,74.0,117.0
399,220.3219032625,220.6111886875,78.0,127.0
400,220.7504742625,221.1826166875,73.0,117.0
401,222.0361872625,222.180829975,73.0,99.0
402,222.2504727625,222.33440124999998,74.0,95.0
403,222.4647582625,222.56654387499998,76.0,107.0
404,222.6790437625,222.7683293875,74.0,107.0
405,222.8933292625,223.0576148125,73.0,95.0
406,223.1076147625,223.22011465,74.0,102.0
407,223.32190026249998,223.6790427625,76.0,127.0
408,223.9647567625,224.0933280625,76.0,122.0
409,224.1790422625,224.337970675,74.0,102.0
410,224.3933277625,224.4826133875,73.0,89.0
411,224.6076132625,224.73261313749998,71.0,92.0
412,224.82189876249998,224.93439865,73.0,99.0
413,225.0361842625,225.4004696125,74.0,107.0
414,225.6790407625,225.77725494999999,74.0,117.0
415,225.8933262625,226.023683275,73.0,99.0
416,226.1076117625,226.2147545125,71.0,89.0
417,226.3218972625,226.4272543,69.0,88.0
418,226.5361827625,226.6397540875,71.0,92.0
419,226.7504682625,227.0290394125,73.0,117.0
420,227.1790392625,227.4326104375,78.0,122.0
421,227.6076102625,228.1504668625,76.0,127.0
422,228.46475226249999,228.79153765,69.0,122.0
423,228.8933232625,229.3826084875,71.0,127.0
424,229.3218942625,229.5218940625,73.0,107.0
425,229.5361797625,229.66296535,71.0,82.0
426,229.7504652625,229.923679375,73.0,93.0
427,229.9647507625,230.1111791875,71.0,89.0
428,230.1790362625,230.4647502625,73.0,112.0
429,230.60760726249998,230.845107025,76.0,122.0
430,231.0361782625,231.7147490125,71.0,99.0
431,232.3218912625,232.4933196625,71.0,99.0
432,232.5361767625,232.6504623625,73.0,93.0
433,232.7504622625,232.92010495,74.0,102.0
434,232.9647477625,233.0861762125,73.0,93.0
435,233.1790332625,233.3540330875,74.0,96.0
436,233.3933187625,233.5004615125,73.0,89.0
437,233.6076042625,233.8272469,74.0,117.0
438,234.0361752625,234.3254606875,78.0,127.0
439,234.4647462625,234.8968886875,73.0,117.0
440,235.7504592625,235.895101975,73.0,99.0
441,235.9647447625,236.04867325,74.0,95.0
442,236.1790302625,236.280815875,76.0,107.0
443,236.3933157625,236.48260138749998,74.0,107.0
444,236.6076012625,236.7718868125,73.0,95.0
445,236.82188676250001,236.93438665,74.0,102.0
446,237.0361722625,237.39331476249998,76.0,127.0
447,237.6790287625,237.8076000625,76.0,122.0
448,237.89331426249998,238.052242675,74.0,102.0
449,238.1075997625,238.1968853875,73.0,89.0
450,238.3218852625,238.4468851375,71.0,92.0
451,238.5361707625,238.64867064999999,73.0,99.0
452,238.7504562625,239.11474161249998,74.0,107.0
453,239.3933127625,239.49152695,74.0,117.0
454,239.6075982625,239.737955275,73.0,99.0
455,239.8218837625,239.9290265125,71.0,89.0
456,240.03616926249998,240.1415263,69.0,88.0
457,240.2504547625,240.3540260875,71.0,92.0
458,240.46474026250002,240.74331141250002,73.0,117.0
459,240.8933112625,241.14688243749998,78.0,122.0
460,241.3218822625,242.1147386125,76.0,127.0
461,242.17902426249998,242.53080962500002,69.0,99.0
462,242.6075952625,242.845095025,71.0,100.0
463,243.0361662625,243.2361660625,73.0,107.0
464,243.2504517625,243.37723735,71.0,82.0
465,243.4647372625,243.637951375,73.0,93.0
466,243.67902276249998,243.8254511875,71.0,89.0
467,243.8933082625,244.17902226249998,73.0,112.0
468,244.3218792625,244.559379025,76.0,122.0
469,244.7504502625,245.42902101250002,71.0,99.0
470,246.0361632625,246.2075916625,71.0,99.0
471,246.2504487625,246.3647343625,73.0,93.0
472,246.4647342625,246.63437695,74.0,102.0
473,246.6790197625,246.8004482125,73.0,93.0
474,246.8933052625,247.0683050875,74.0,120.0
475,247.1075907625,247.2147335125,73.0,119.0
476,247.32187626249998,247.5415189,74.0,116.0
477,247.75044726250002,248.03973268750002,78.0,116.0
478,248.1790182625,248.6111606875,73.0,113.0
479,249.46473126249998,249.60937397499998,73.0,113.0
480,249.6790167625,249.76294525,74.0,113.0
481,249.89330226250001,249.995087875,76.0,113.0
482,250.1075877625,250.1968733875,74.0,111.0
483,250.3218732625,250.48615881249998,73.0,111.0
484,250.5361587625,250.64865865000002,74.0,112.0
485,250.7504442625,251.1075867625,76.0,111.0
486,251.39330076250002,251.5218720625,76.0,110.0
487,251.6075862625,251.766514675,74.0,110.0
488,251.8218717625,251.9111573875,73.0,110.0
489,252.0361572625,252.1611571375,71.0,109.0
490,252.2504427625,252.36294264999998,73.0,109.0
491,252.4647282625,252.8290136125,74.0,108.0
492,253.10758476249998,253.20579895,74.0,108.0
493,253.3218702625,253.45222727499998,73.0,107.0
494,253.53615576250002,253.6432985125,71.0,106.0
495,253.7504412625,253.8557983,69.0,106.0
496,253.9647267625,254.0682980875,71.0,100.0
497,254.1790122625,254.45758341250001,73.0,100.0
498,254.6075832625,254.8611544375,78.0,100.0
499,255.03615426250002,255.5790108625,76.0,100.0
500,255.8932962625,256.216510225,69.0,101.0
501,256.3218672625,256.7718668125,71.0,101.0
502,256.7504382625,256.9504380625,73.0,101.0
503,256.9647237625,257.0909522,71.0,101.0
504,257.17783165000003,257.34981750000003,73.0,101.0
505,257.39059765,257.53598775,71.0,101.0
506,257.60336365,257.88705165000005,73.0,101.0
507,258.02889565000004,258.26471130000004,76.0,101.0
508,258.45442765,259.12818665000003,71.0,102.0
509,259.73102365,259.90123645,71.0,103.0
510,259.94378965000004,260.05726485,73.0,103.0
511,260.15655565000003,260.32499540000003,74.0,103.0
512,260.36932165,260.48988905000004,73.0,103.0
513,260.58208765,260.75584655,74.0,103.0
514,260.79485365,260.90123665000004,73.0,103.0
515,261.00761965000004,261.2257048,74.0,104.0
516,261.43315165,261.72038575,78.0,104.0
517,261.85868365000005,262.28776175,73.0,104.0
518,263.13527965000003,263.2788967,73.0,106.0
519,263.34804565,263.431379,74.0,106.0
520,263.56081165,263.6618755,76.0,106.0
521,263.77357765,263.86223015,74.0,107.0
522,263.98634365000004,264.14946425,73.0,107.0
523,264.19910965,264.3108118,74.0,107.0
524,264.41187565,264.76648565,76.0,109.0
525,265.05017365000003,265.17783325000005,76.0,109.0
526,265.26293965,265.42074110000004,74.0,109.0
527,265.47570565,265.56435815000003,73.0,109.0
528,265.68847165,265.81258515,71.0,109.0
529,265.90123765000004,266.0129398,73.0,109.0
530,266.11400365000003,266.47570585,74.0,109.0
531,266.75230165,266.8498194,74.0,111.0
532,266.96506765000004,267.0945003,73.0,111.0
533,267.17783365,267.28421665,71.0,111.0
534,267.39059965,267.4952096,69.0,111.0
535,267.60336565,267.70620255,71.0,112.0
536,267.81613165000005,268.09272745000004,73.0,112.0
537,268.24166365,268.49343675,78.0,113.0
538,268.66719565,269.45442985,76.0,114.0
539,269.51825965,269.8675505,69.0,116.0
540,269.94379165000004,270.17960730000004,71.0,116.0
541,270.36932365,270.56790525,73.0,116.0
542,270.58208965,270.7079762,71.0,116.0
543,270.79485565000004,270.96684150000004,73.0,116.0
544,271.00762165000003,271.15301175,71.0,116.0
545,271.22038765,271.50407565,73.0,103.0
546,271.64591965,271.8817353,76.0,101.0
547,272.07145165000003,272.74521065000005,71.0,92.0
548,273.34804765,273.51826045,71.0,92.0
549,273.56081365,273.67428885000004,73.0,89.0
550,273.77357965000004,273.94201940000005,74.0,86.0
551,273.98634565000003,274.10691305,73.0,86.0
552,274.19911165,274.37287055,74.0,86.0
553,274.41187765,274.51826065,73.0,83.0
554,274.62464365,274.84272880000003,74.0,83.0
555,275.05017565,275.33740975,78.0,80.0
556,275.47570765,275.90478575000003,73.0,73.0
557,276.75230365000004,276.89592070000003,73.0,73.0
558,276.96506965000003,277.048403,74.0,70.0
559,277.17783565,277.2788995,76.0,70.0
560,277.39060165,277.47925415000003,74.0,69.0
561,277.60336765,277.76648825,73.0,69.0
562,277.81613365000004,277.9278358,74.0,67.0
563,278.02889965,278.38350965,76.0,63.0
564,278.66719765000005,278.79485725,76.0,45.0
