,start,end,pitch,velocity
0,2.7571899249999996,3.2517934666666664,55.0,97.0
1,2.9730169249999996,3.303951658333333,62.0,95.0
2,3.4046709249999996,3.546757033333333,55.0,96.0
3,2.5413629249999996,3.5701382916666664,50.0,89.0
4,2.3255359249999996,3.5809296416666663,43.0,92.0
5,3.8363249249999996,4.073734624999999,67.0,85.0
6,3.1888439249999996,4.102511558333333,71.0,112.0
7,3.6204979249999996,4.293158741666666,62.0,89.0
8,4.2679789249999995,4.919057041666666,54.0,92.0
9,4.6996329249999995,4.965819558333333,66.0,117.0
10,4.4838059249999995,5.037761891666666,62.0,89.0
11,5.1312869249999995,5.285962941666666,54.0,76.0
12,4.0521519249999995,5.3758908583333325,42.0,96.0
13,4.9154599249999995,5.8075448583333324,71.0,97.0
14,5.3471139249999995,5.81653765,66.0,89.0
15,5.5629409249999995,5.823731883333333,62.0,99.0
16,6.2104219249999995,6.438838833333333,57.0,88.0
17,6.4262489249999994,6.624090341666666,60.0,93.0
18,5.9945949249999995,6.694234116666666,52.0,73.0
19,5.7787679249999995,6.980204891666666,45.0,83.0
20,6.857902924999999,7.005384708333333,52.0,93.0
21,7.073729924999999,7.437038708333333,60.0,97.0
22,6.642075924999999,7.456822849999999,64.0,100.0
23,7.289556924999999,7.492794016666666,57.0,97.0
24,7.937037924999999,8.442432816666665,52.0,88.0
25,7.505383924999999,8.6546627,40.0,76.0
26,8.152864925,8.669051166666666,59.0,92.0
27,7.721210924999999,8.719410799999999,47.0,95.0
28,8.584518925,8.829122858333333,52.0,82.0
29,8.800345924999998,9.088115258333332,64.0,97.0
30,8.368691924999998,9.187035966666667,67.0,117.0
31,9.016172925,9.273366766666665,59.0,88.0
32,9.879480925,10.120487741666667,62.0,92.0
33,9.447826925,10.196027191666666,54.0,92.0
34,9.663653924999998,10.19782575,59.0,74.0
35,10.311134925,10.52156625,54.0,102.0
36,9.231999924999998,10.744587483333332,47.0,81.0
37,10.526961924999998,10.908256291666666,62.0,102.0
38,10.095307924999998,10.913651966666666,66.0,127.0
39,10.742788925,10.937033224999999,59.0,95.0
40,11.390269924999998,11.647463766666666,57.0,88.0
41,11.606096925,11.836312391666665,60.0,99.0
42,11.174442925,11.899261933333332,52.0,99.0
43,12.037750925,12.196024058333332,52.0,90.0
44,10.958615924999998,12.235592341666665,45.0,89.0
45,12.253577924999998,12.570124191666666,60.0,117.0
46,11.821923924999998,12.580915541666666,64.0,100.0
47,12.469404925,12.706814624999998,57.0,96.0
48,13.116885924999998,13.589906766666665,50.0,89.0
49,13.332712925,13.690626033333333,57.0,78.0
50,13.764366925,13.969402574999998,50.0,96.0
51,13.548539924999998,14.152855524999998,66.0,112.0
52,12.685231924999998,14.161848316666665,38.0,74.0
53,13.980193924999998,14.327315683333332,57.0,93.0
54,14.196020925,14.347099824999999,62.0,69.0
55,12.901058925,14.411847924999998,45.0,90.0
56,15.275155924999998,16.008967724999998,50.0,89.0
57,14.411847924999998,16.03774465833333,38.0,97.0
58,14.843501924999998,16.086305733333333,45.0,63.0
59,16.138463925,17.983784774999997,50.0,57.0
60,16.138463925,18.017957383333332,38.0,57.0
61,16.138463925,18.059324224999997,45.0,65.0
62,16.138463925,18.298532483333332,62.0,75.0
63,16.138463925,18.320115183333332,66.0,88.0
64,15.706809924999998,18.34169788333333,57.0,77.0
65,19.591695925,20.848888199999998,43.0,74.0
66,20.023349924999998,20.85608243333333,50.0,35.0
67,20.455003925,20.865075225,55.0,85.0
68,20.886657924999998,21.972987158333332,67.0,77.0
69,21.749965924999998,22.23737523333333,54.0,61.0
70,21.318311925,22.449605116666664,42.0,85.0
71,22.613273924999998,22.974784149999998,62.0,76.0
72,22.181619925,23.061114949999997,67.0,93.0
73,22.829100925,23.145647191666665,59.0,85.0
74,23.908235925,24.098883108333332,52.0,59.0
75,23.476581924999998,24.257156241666664,47.0,53.0
76,23.044927925,24.296724525,40.0,66.0
77,24.339889924999998,24.77334248333333,64.0,72.0
78,23.908235925,24.796723741666664,67.0,92.0
79,25.622198618749998,25.979592383333333,50.0,63.0
80,25.19966411875,26.02712751458333,45.0,46.0
81,24.771543924999996,26.088747129166666,38.0,73.0
82,26.04473311875,26.5253661125,62.0,79.0
83,25.622198618749998,26.5253661125,66.0,102.0
84,26.46726761875,27.611631889583332,36.0,76.0
85,26.889802118749998,27.648603658333332,43.0,58.0
86,27.31233661875,27.78064568958333,48.0,58.0
87,27.31233661875,28.139800014583333,64.0,85.0
88,27.73487111875,28.176771783333333,60.0,85.0
89,28.5822792625,29.257278587499997,54.0,58.0
90,28.157405618749998,29.307278537499997,47.0,74.0
91,29.439421262499998,29.866206549999998,62.0,77.0
92,29.010850262499996,29.878706537499998,66.0,100.0
93,30.296563262499998,30.739419962499998,52.0,58.0
94,29.867992262499996,30.835848437499997,45.0,74.0
95,31.153705262499997,31.498347775,60.0,79.0
96,30.7251342625,31.519776325,64.0,99.0
97,31.3679907625,31.648347625,57.0,83.0
98,32.0108472625,32.5394181625,50.0,75.0
99,32.225132762499996,32.5715609875,57.0,85.0
100,31.5822762625,32.791203624999994,38.0,78.0
101,31.796561762499998,32.8394178625,45.0,71.0
102,32.6537037625,33.0644176375,50.0,69.0
103,32.8679892625,33.278703137499996,62.0,78.0
104,32.4394182625,33.2894174125,66.0,117.0
105,33.0822747625,33.3001316875,57.0,79.0
106,34.1537022625,34.4215591375,55.0,67.0
107,33.296560262499995,34.434059125,43.0,70.0
108,33.7251312625,34.45191625,50.0,56.0
109,34.582273262499996,35.0590585,62.0,96.0
110,34.1537022625,35.09477275,71.0,96.0
111,35.4394152625,35.9429861875,54.0,48.0
112,35.0108442625,36.2019145,42.0,85.0
113,35.8679862625,36.7179854125,71.0,82.0
114,35.8679862625,36.7322711125,66.0,90.0
115,36.2965572625,36.791199625,62.0,73.0
116,37.582270262499996,37.85191285,52.0,68.0
117,37.1536992625,37.862627125,47.0,60.0
118,36.7251282625,38.0929840375,40.0,69.0
119,38.010841262499994,38.419769425,64.0,82.0
120,37.582270262499996,38.442983687499996,67.0,96.0
121,38.8679832625,39.3876256,45.0,59.0
122,38.4394122625,39.455482675,38.0,70.0
123,39.296554262499996,39.9608393125,66.0,102.0
124,39.7251252625,40.187624799999995,62.0,62.0
125,40.5822672625,41.2019095,43.0,41.0
126,40.1536962625,41.26619515,36.0,75.0
127,41.0108382625,41.412623575,48.0,52.0
128,41.0108382625,41.753694662499996,67.0,96.0
129,41.4394092625,41.9108373625,60.0,90.0
130,42.2965512625,42.7733365,59.0,69.0
131,42.7251222625,43.225121762499995,62.0,65.0
132,42.7251222625,43.226907475,66.0,107.0
133,43.1536932625,43.4108358625,59.0,70.0
134,41.8679802625,43.5322643125,47.0,78.0
135,43.5822642625,43.80904975,57.0,86.0
136,43.5822642625,43.8108354625,60.0,75.0
137,43.5822642625,43.8251211625,45.0,89.0
138,43.5822642625,43.826906875,64.0,78.0
139,44.2251207625,44.6286917875,50.0,78.0
140,44.2251207625,44.6286917875,57.0,75.0
141,44.2251207625,44.6304775,66.0,86.0
142,44.2251207625,44.6501203375,62.0,86.0
143,45.296548262499996,46.412618574999996,62.0,69.0
144,45.296548262499996,46.6144040875,59.0,72.0
145,46.1536902625,46.641189775,55.0,85.0
146,46.5822612625,47.150117837500005,57.0,78.0
147,47.0108322625,48.3304738,59.0,74.0
148,47.0108322625,48.355473775,62.0,83.0
149,45.296548262499996,48.4019023,43.0,70.0
150,45.7251192625,48.594759249999996,50.0,59.0
151,49.1536872625,49.6215439375,55.0,96.0
152,49.3679727625,49.682258162500005,62.0,95.0
153,49.7965437625,49.9161865,55.0,92.0
154,48.725116262499995,49.92332935,43.0,90.0
155,48.9394017625,49.9251150625,50.0,72.0
156,50.2251147625,50.421543137499995,67.0,86.0
157,49.582258262500005,50.5644001375,71.0,112.0
158,50.010829262499996,50.5751144125,62.0,76.0
159,51.0822567625,51.348327925,66.0,97.0
160,50.8679712625,51.391185025,62.0,86.0
161,50.653685762500004,51.4001135875,54.0,85.0
162,50.4394002625,51.682256162499996,42.0,100.0
163,51.5108277625,51.72332755,54.0,83.0
164,51.7251132625,52.1465414125,66.0,92.0
165,51.2965422625,52.148327125,71.0,107.0
166,51.939398762500005,52.1608271125,62.0,97.0
167,52.5822552625,52.834040725,57.0,97.0
168,52.7965407625,52.9929691375,60.0,82.0
169,52.367969762499996,53.062611925,52.0,77.0
170,52.1536842625,53.35189735,45.0,83.0
171,53.2251117625,53.359040199999995,52.0,78.0
172,53.4393972625,53.785825487500006,60.0,99.0
173,53.010826262500004,53.8001111875,64.0,100.0
174,53.6536827625,53.8429682875,57.0,89.0
175,54.296539262500005,54.8215387375,52.0,82.0
176,54.5108247625,54.825110162499996,59.0,81.0
177,53.8679682625,55.16618125,40.0,79.0
178,54.0822537625,55.1965383625,47.0,79.0
179,54.9393957625,55.2393954625,52.0,82.0
180,55.1536812625,55.4393952625,64.0,92.0
181,54.725110262499996,55.5251094625,67.0,107.0
182,55.367966762500004,55.626895075,59.0,89.0
183,56.2251087625,56.434037125,62.0,102.0
184,56.0108232625,56.478679937500004,59.0,79.0
185,55.7965377625,56.5072513375,54.0,92.0
186,56.653679762500005,56.9161795,54.0,95.0
187,55.582252262500006,56.92332235000001,47.0,82.0
188,57.0822507625,57.1733221,60.0,78.0
189,56.4393942625,57.189393512500004,66.0,127.0
190,56.8679652625,57.191179225,62.0,99.0
191,57.0822507625,57.26617915,59.0,90.0
192,57.7251072625,57.975107012500004,57.0,89.0
193,57.939392762500006,58.142963987499996,60.0,99.0
194,57.5108217625,58.2286781875,52.0,65.0
195,58.3679637625,58.5179636125,52.0,79.0
196,57.2965362625,58.575106412500006,45.0,70.0
197,58.1536782625,58.8393918625,64.0,102.0
198,58.5822492625,58.8733204,60.0,92.0
199,58.7965347625,59.02510596250001,57.0,88.0
200,59.4393912625,59.9001050875,50.0,82.0
201,59.6536767625,60.0036764125,57.0,89.0
202,60.0822477625,60.28046185,50.0,93.0
203,59.010820262500005,60.555461575,38.0,72.0
204,59.2251057625,60.7143899875,45.0,85.0
205,60.5108187625,60.7643899375,57.0,97.0
206,60.296533262500006,60.784032775,62.0,99.0
207,59.8679622625,60.8572469875,66.0,127.0
208,61.1536752625,61.66617475,50.0,100.0
209,61.367960762500005,61.7572460875,57.0,112.0
210,60.725104262500004,61.9679601625,38.0,86.0
211,60.9393897625,61.987603,45.0,99.0
212,61.7965317625,62.3822454625,50.0,99.0
213,62.010817262500005,62.3929597375,62.0,122.0
214,61.5822462625,62.398316875,66.0,127.0
215,62.2251027625,62.409031150000004,57.0,100.0
216,62.8679592625,63.344744500000004,55.0,93.0
217,63.082244762500004,63.3929587375,62.0,93.0
218,62.6536737625,63.5929585375,50.0,85.0
219,62.4393882625,63.6179585125,43.0,83.0
220,63.5108157625,63.6393870625,55.0,90.0
221,63.725101262500004,63.9858152875,67.0,100.0
222,63.2965302625,64.1286722875,71.0,122.0
223,63.9393867625,64.2161722,62.0,100.0
224,64.7965287625,65.0393856625,66.0,99.0
225,64.5822432625,65.09474275,62.0,83.0
226,64.3679577625,65.10902845000001,54.0,89.0
227,64.15367226250001,65.3393853625,42.0,99.0
228,65.22509976250001,65.47509951250001,54.0,95.0
229,65.0108142625,65.8500991375,71.0,100.0
230,65.4393852625,65.8715276875,66.0,112.0
231,65.6536707625,65.8929562375,62.0,97.0
232,66.2965272625,66.559027,57.0,89.0
233,66.5108127625,66.7179554125,60.0,100.0
234,66.0822417625,66.83045530000001,52.0,69.0
235,66.9393837625,67.0679550625,52.0,66.0
236,65.8679562625,67.126883575,45.0,79.0
237,67.1536692625,67.512597475,60.0,99.0
238,66.72509826250001,67.559026,64.0,97.0
239,67.3679547625,67.5679545625,57.0,89.0
240,68.0108112625,68.5393821625,52.0,76.0
241,68.2250967625,68.55723928750001,59.0,78.0
242,67.5822402625,68.80188190000001,40.0,72.0
243,67.79652576250001,68.85188185000001,47.0,82.0
244,68.65366776249999,68.955453175,52.0,83.0
245,68.86795326250001,69.1858100875,64.0,96.0
246,68.4393822625,69.226881475,67.0,117.0
247,69.0822387625,69.33402422500001,59.0,89.0
248,69.93938076250001,70.1536662625,62.0,99.0
249,69.7250952625,70.22330905000001,59.0,71.0
250,69.5108097625,70.2715232875,54.0,82.0
251,70.36795176250001,70.5715229875,54.0,93.0
252,69.2965242625,70.6358086375,47.0,83.0
253,70.5822372625,70.88402267500001,62.0,100.0
254,70.1536662625,70.8965226625,66.0,127.0
255,70.7965227625,71.02866538750001,59.0,97.0
256,71.6536647625,71.8215217375,60.0,93.0
257,71.43937926250001,71.90009308750001,57.0,89.0
258,71.2250937625,71.91080736250001,52.0,56.0
259,72.0822357625,72.24473560000001,52.0,88.0
260,71.0108082625,72.269735575,45.0,77.0
261,72.2965212625,72.58044955,60.0,102.0
262,71.8679502625,72.6036638125,64.0,102.0
263,72.51080676250001,72.76080651250001,57.0,95.0
264,73.1536632625,73.641162775,50.0,83.0
265,73.3679487625,73.762591225,57.0,77.0
266,73.7965197625,73.9858052875,50.0,77.0
267,73.58223426250001,74.2304479,66.0,122.0
268,72.7250922625,74.29294783750001,38.0,73.0
269,74.0108052625,74.3108049625,62.0,97.0
270,72.9393777625,74.4358048375,45.0,66.0
271,74.2250907625,74.94294718750001,57.0,83.0
272,74.8679472625,75.362589625,50.0,78.0
273,75.2965182625,75.455446675,62.0,79.0
274,75.08223276250001,75.4572323875,57.0,81.0
275,75.5108037625,75.701875,50.0,90.0
276,75.2965182625,75.85187485,66.0,127.0
277,74.4393762625,75.984017575,38.0,89.0
278,75.7250892625,75.9965175625,57.0,102.0
279,74.65366176250001,76.1465174125,45.0,72.0
280,76.15366026250001,76.56615985,52.0,92.0
281,76.15366026250001,76.8322310125,68.0,112.0
282,76.15366026250001,76.8393738625,64.0,100.0
283,76.15366026250001,76.8429452875,59.0,93.0
284,76.15366026250001,77.176873525,40.0,66.0
285,76.15366026250001,77.2215163375,47.0,81.0
286,76.7965167625,77.2447306,52.0,77.0
287,77.0108022625,77.2715162875,68.0,127.0
288,77.0108022625,77.27508771250001,64.0,117.0
289,77.22508776250001,77.34115907500001,59.0,96.0
290,77.4393732625,78.5161579,59.0,99.0
291,77.4393732625,78.54115787500001,68.0,112.0
292,77.4393732625,78.54651501250001,64.0,99.0
293,77.4393732625,78.798300475,52.0,95.0
294,77.4393732625,78.8608004125,47.0,88.0
295,77.4393732625,78.862586125,40.0,72.0
296,78.72508626250001,79.4036570125,68.0,127.0
297,78.9393717625,79.40722843750001,52.0,86.0
298,78.72508626250001,79.4107998625,64.0,127.0
299,78.9393717625,79.4215141375,40.0,47.0
300,78.9393717625,79.426871275,47.0,69.0
301,79.1536572625,79.4286569875,59.0,93.0
302,79.5822282625,80.055442075,54.0,112.0
303,80.0107992625,80.055442075,54.0,117.0
304,79.5822282625,80.2447276,66.0,112.0
305,79.5822282625,80.26258472500001,63.0,127.0
306,79.5822282625,80.27865613750001,59.0,102.0
307,80.4393702625,80.67865573750001,66.0,127.0
308,79.5822282625,80.691155725,47.0,77.0
309,80.4393702625,80.7036557125,63.0,127.0
310,80.4393702625,81.698297575,59.0,97.0
311,80.86794126250001,81.8536545625,66.0,127.0
312,80.86794126250001,81.89472595000001,63.0,127.0
313,80.86794126250001,82.2072256375,54.0,127.0
314,82.1536542625,82.2072256375,54.0,82.0
315,80.86794126250001,82.576868125,47.0,76.0
316,82.1536542625,82.60543952500001,63.0,127.0
317,82.5822252625,82.60543952500001,63.0,38.0
318,82.1536542625,82.69472515000001,66.0,127.0
319,82.5822252625,82.85008213750001,59.0,117.0
320,83.01079626250001,83.69650986250001,60.0,107.0
321,83.01079626250001,83.7036527125,64.0,102.0
322,83.01079626250001,83.7072241375,67.0,96.0
323,83.43936726250001,83.96079531250001,48.0,73.0
324,83.8679382625,83.9643667375,60.0,96.0
325,83.43936726250001,83.9786524375,43.0,72.0
326,83.8679382625,84.141152275,64.0,112.0
327,83.8679382625,84.1536522625,67.0,112.0
328,83.01079626250001,84.1750808125,36.0,100.0
329,84.2965092625,85.298293975,64.0,117.0
330,84.2965092625,85.3018654,67.0,100.0
331,84.2965092625,85.3036511125,60.0,107.0
332,85.58222226250001,85.59829367500001,66.0,99.0
333,84.2965092625,85.71615070000001,48.0,99.0
334,85.58222226250001,85.71615070000001,48.0,46.0
335,84.2965092625,86.0072218375,36.0,75.0
336,84.2965092625,86.062578925,43.0,90.0
337,85.58222226250001,86.18757880000001,64.0,127.0
338,85.58222226250001,86.23757875000001,67.0,127.0
339,86.0107932625,86.2857929875,60.0,96.0
340,86.4393642625,87.12329215,68.0,122.0
341,86.4393642625,87.134006425,59.0,97.0
342,86.4393642625,87.13757785000001,64.0,122.0
343,86.8679352625,87.2572205875,52.0,92.0
344,86.8679352625,87.32507766250001,47.0,82.0
345,87.2965062625,87.555434575,64.0,127.0
346,87.2965062625,87.5572202875,68.0,127.0
347,86.4393642625,87.56436313750001,40.0,93.0
348,87.2965062625,88.584004975,59.0,99.0
349,87.72507726250001,88.80900475000001,68.0,127.0
350,87.72507726250001,88.812576175,64.0,122.0
351,87.72507726250001,89.1572186875,52.0,100.0
352,89.0107902625,89.1572186875,52.0,83.0
353,87.72507726250001,89.49471835,47.0,97.0
354,87.72507726250001,89.512575475,40.0,75.0
355,89.0107902625,89.7590038,64.0,127.0
356,89.0107902625,89.7679323625,68.0,127.0
357,89.4393612625,89.78578948750001,59.0,122.0
358,89.8679322625,90.40186030000001,52.0,99.0
359,89.8679322625,90.62328865,59.0,99.0
360,89.8679322625,90.62328865,68.0,122.0
361,89.8679322625,90.63757435000001,64.0,112.0
362,90.72507426250002,91.0143596875,52.0,86.0
363,89.8679322625,91.055431075,40.0,75.0
364,90.72507426250002,91.055431075,68.0,127.0
365,90.72507426250002,91.06614535,64.0,107.0
366,89.8679322625,91.10721673750001,47.0,88.0
367,91.1536452625,91.25721658750001,52.0,95.0
368,91.1536452625,91.25721658750001,52.0,112.0
369,91.1536452625,92.26257272500001,59.0,112.0
370,91.1536452625,92.30900125000001,68.0,127.0
371,91.1536452625,92.32328695000001,64.0,99.0
372,92.0107872625,92.4215011375,52.0,61.0
373,92.43935826250001,92.91971492500001,64.0,107.0
374,92.43935826250001,92.91971492500001,68.0,127.0
375,92.8679292625,93.08935761250001,52.0,97.0
376,91.1536452625,93.11435758750001,40.0,78.0
377,92.8679292625,93.141143275,59.0,97.0
378,91.1536452625,93.30900025000001,47.0,95.0
379,93.2965002625,93.9822138625,65.0,117.0
380,93.2965002625,93.9822138625,69.0,117.0
381,93.2965002625,94.00007098750001,60.0,117.0
382,93.2965002625,94.41971342500001,41.0,95.0
383,94.1536422625,94.44471340000001,65.0,127.0
384,94.1536422625,94.44471340000001,69.0,117.0
385,94.1536422625,94.63578463750001,53.0,92.0
386,94.5822132625,94.63578463750001,53.0,90.0
387,94.1536422625,94.6732846,48.0,88.0
388,94.5822132625,94.6732846,48.0,86.0
389,94.5822132625,94.71971312500001,60.0,75.0
390,94.5822132625,94.71971312500001,60.0,102.0
391,94.5822132625,95.698283575,69.0,107.0
392,94.5822132625,95.7036407125,65.0,127.0
393,95.8679262625,96.19649736250001,53.0,54.0
394,94.5822132625,96.2750687125,41.0,71.0
395,95.8679262625,96.32685437500001,69.0,122.0
396,95.8679262625,96.34292578750001,65.0,127.0
397,96.29649726250001,96.455425675,53.0,100.0
398,96.29649726250001,96.569711275,60.0,112.0
399,96.7250682625,97.1464964125,52.0,100.0
400,96.7250682625,97.38042475,68.0,112.0
401,96.7250682625,97.3857818875,64.0,97.0
402,96.7250682625,97.4304247,59.0,122.0
403,97.15363926250001,97.6393530625,52.0,107.0
404,97.58221026250001,97.691138725,59.0,100.0
405,96.7250682625,97.8214957375,40.0,66.0
406,97.7964957625,97.8214957375,40.0,66.0
407,97.58221026250001,97.85899570000001,64.0,127.0
408,97.7964957625,97.85899570000001,64.0,122.0
409,97.58221026250001,97.85899570000001,68.0,122.0
410,97.7964957625,97.85899570000001,68.0,127.0
411,96.7250682625,97.86613855,47.0,69.0
412,97.7964957625,97.86613855,47.0,82.0
413,97.7964957625,98.58935211250001,52.0,95.0
414,97.7964957625,98.9072089375,59.0,100.0
415,98.8679232625,99.17863723750001,52.0,65.0
416,99.51077976250001,99.7214938375,52.0,95.0
417,99.2964942625,99.7875652,64.0,107.0
418,99.2964942625,99.798279475,68.0,122.0
419,99.72506526250001,99.95542217500001,59.0,102.0
420,99.93935076250001,100.648278625,65.0,112.0
421,99.93935076250001,100.68042145000001,60.0,100.0
422,100.1536362625,100.84649271250001,69.0,102.0
423,101.01077826250001,101.1286352875,60.0,102.0
424,101.01077826250001,101.22506376250001,69.0,117.0
425,101.01077826250001,101.248278025,65.0,122.0
426,100.79649276250001,101.30006368750001,48.0,81.0
427,100.1536362625,101.30184940000001,41.0,96.0
428,101.4393492625,102.13756285000001,53.0,102.0
429,102.08220576250001,102.13756285000001,53.0,73.0
430,101.4393492625,102.5357767375,69.0,100.0
431,101.4393492625,102.5643481375,65.0,112.0
432,101.4393492625,102.58041955,60.0,102.0
433,102.9393477625,103.08041905,53.0,93.0
434,101.4393492625,103.105419025,41.0,72.0
435,101.4393492625,103.10899045000001,48.0,79.0
436,102.7250622625,103.2214903375,65.0,127.0
437,102.7250622625,103.25363316250001,69.0,127.0
438,103.15363326250001,103.41791871250001,60.0,122.0
439,103.58220426250001,109.82862658750001,50.0,107.0
440,103.58220426250001,109.8321980125,62.0,117.0
441,103.58220426250001,109.84826942500001,66.0,127.0
442,103.58220426250001,109.85898370000001,69.0,102.0
443,103.58220426250001,109.86255512500001,45.0,95.0
444,103.58220426250001,109.8821979625,38.0,72.0
445,110.43934026250001,111.6875533,43.0,74.0
446,110.8679112625,111.69469615000001,50.0,35.0
447,111.2964822625,111.7036247125,55.0,85.0
448,111.72505326250001,112.8036236125,67.0,77.0
449,112.58219526250001,113.06612335000001,54.0,61.0
450,112.1536242625,113.27683742500001,42.0,85.0
451,113.4393372625,113.79826547500001,62.0,76.0
452,113.01076626250001,113.883979675,67.0,93.0
453,113.6536227625,113.96790816250001,59.0,85.0
454,114.7250502625,114.91433578750001,52.0,59.0
455,114.29647926250001,115.0714784875,47.0,53.0
456,113.86790826250001,115.1107641625,40.0,66.0
457,115.15362126250001,115.58397797500001,64.0,72.0
458,114.7250502625,115.60719223750002,67.0,92.0
459,116.43933426250001,116.8018339,50.0,63.0
460,116.0107632625,116.85004813750001,45.0,46.0
461,115.58219226250002,116.912548075,38.0,73.0
462,116.8679052625,117.35540477500001,62.0,79.0
463,116.43933426250001,117.35540477500001,66.0,102.0
464,117.29647626250001,118.45718938750001,36.0,76.0
465,117.72504726250001,118.49468935000002,43.0,58.0
466,118.1536182625,118.6286177875,48.0,58.0
467,118.1536182625,118.99290313750001,64.0,85.0
468,118.58218926250001,119.03040310000002,60.0,85.0
469,119.4393312625,120.1143305875,54.0,58.0
470,119.01076026250001,120.1643305375,47.0,74.0
471,120.29647326250002,120.72325855000001,62.0,77.0
472,119.86790226250001,120.7357585375,66.0,100.0
473,121.15361526250001,121.5964719625,52.0,58.0
474,120.7250442625,121.69290043750001,45.0,74.0
475,122.01075726250001,122.35539977500001,60.0,79.0
476,121.58218626250002,122.376828325,64.0,99.0
477,122.22504276250001,122.50539962500001,57.0,83.0
478,122.8678992625,123.39647016250001,50.0,75.0
479,123.0821847625,123.4286129875,57.0,85.0
480,122.43932826250001,123.648255625,38.0,78.0
481,122.65361376250002,123.69646986250001,45.0,71.0
482,123.51075576250001,123.92146963750001,50.0,69.0
483,123.72504126250001,124.13575513750001,62.0,78.0
484,123.29647026250001,124.14646941250001,66.0,117.0
485,123.93932676250002,124.15718368750001,57.0,79.0
486,125.01075426250001,125.27861113750001,55.0,67.0
487,124.1536122625,125.29111112500001,43.0,70.0
488,124.58218326250001,125.30896825,50.0,56.0
489,125.4393252625,125.91611050000002,62.0,96.0
490,125.01075426250001,125.95182475000001,71.0,96.0
491,126.29646726250002,126.80003818750001,54.0,48.0
492,125.86789626250001,127.05896650000001,42.0,85.0
493,126.72503826250001,127.57503741250001,71.0,82.0
494,126.72503826250001,127.58932311250001,66.0,90.0
495,127.15360926250001,127.64825162500001,62.0,73.0
496,128.4393222625,128.70896485000003,52.0,68.0
497,128.0107512625,128.71967912500003,47.0,60.0
498,127.58218026250002,128.9500360375,40.0,69.0
499,128.8678932625,129.276821425,64.0,82.0
500,128.4393222625,129.3000356875,67.0,96.0
501,129.7250352625,130.24467760000002,45.0,59.0
502,129.29646426250002,130.312534675,38.0,70.0
503,130.1536062625,130.81789131250002,66.0,102.0
504,130.5821772625,131.0446768,62.0,62.0
505,131.43931926250002,132.0589615,43.0,41.0
506,131.01074826250002,132.12324715,36.0,75.0
507,131.8678902625,132.269675575,48.0,52.0
508,131.8678902625,132.6107466625,67.0,96.0
509,132.29646126250003,132.7678893625,60.0,90.0
510,133.1536032625,133.6303885,59.0,69.0
511,133.58217426250002,134.08217376250002,62.0,65.0
512,133.58217426250002,134.08395947500003,66.0,107.0
513,134.0107452625,134.2678878625,59.0,70.0
514,132.7250322625,134.3893163125,47.0,78.0
515,134.43931626250003,134.66610175,57.0,86.0
516,134.43931626250003,134.6678874625,60.0,75.0
517,134.43931626250003,134.68217316250002,45.0,89.0
518,134.43931626250003,134.68395887500003,64.0,78.0
519,135.08217276250002,135.4857437875,50.0,78.0
520,135.08217276250002,135.4857437875,57.0,75.0
521,135.08217276250002,135.4875295,66.0,86.0
522,135.08217276250002,135.5071723375,62.0,86.0
523,136.1536002625,137.26967057500002,62.0,69.0
524,136.1536002625,137.47145608750003,59.0,72.0
525,137.0107422625,137.498241775,55.0,85.0
526,137.4393132625,138.00716983750002,57.0,78.0
527,137.8678842625,139.1875258,59.0,74.0
528,137.8678842625,139.21252577500002,62.0,83.0
529,136.1536002625,139.25895430000003,43.0,70.0
530,136.58217126250003,139.45181125,50.0,59.0
531,140.0107392625,140.47859593750002,55.0,96.0
532,140.22502476250003,140.53931016250002,62.0,95.0
533,140.6535957625,140.77323850000002,55.0,92.0
534,139.5821682625,140.78038135000003,43.0,90.0
535,139.7964537625,140.7821670625,50.0,72.0
536,141.0821667625,141.27859513750002,67.0,86.0
537,140.43931026250002,141.4214521375,71.0,112.0
538,140.86788126250002,141.4321664125,62.0,76.0
539,141.93930876250002,142.20537992500002,66.0,97.0
540,141.72502326250003,142.248237025,62.0,86.0
541,141.5107377625,142.25716558750003,54.0,85.0
542,141.2964522625,142.5393081625,42.0,100.0
543,142.36787976250002,142.58037955000003,54.0,83.0
544,142.5821652625,143.0035934125,66.0,92.0
545,142.1535942625,143.00537912500002,71.0,107.0
546,142.7964507625,143.0178791125,62.0,97.0
547,143.4393072625,143.69109272500003,57.0,97.0
548,143.6535927625,143.8500211375,60.0,82.0
549,143.2250217625,143.919663925,52.0,77.0
550,143.01073626250002,144.20894935,45.0,83.0
551,144.08216376250002,144.2160922,52.0,78.0
552,144.2964492625,144.64287748750002,60.0,99.0
553,143.86787826250003,144.65716318750003,64.0,100.0
554,144.51073476250002,144.70002028750002,57.0,89.0
555,145.15359126250002,145.67859073750003,52.0,82.0
556,145.36787676250003,145.6821621625,59.0,81.0
557,144.7250202625,146.02323325000003,40.0,79.0
558,144.9393057625,146.05359036250002,47.0,79.0
559,145.7964477625,146.0964474625,52.0,82.0
560,146.01073326250003,146.2964472625,64.0,92.0
561,145.5821622625,146.3821614625,67.0,107.0
562,146.2250187625,146.483947075,59.0,89.0
563,147.0821607625,147.291089125,62.0,102.0
564,146.8678752625,147.33573193750001,59.0,79.0
565,146.65358976250002,147.36430333750002,54.0,92.0
566,147.51073176250003,147.7732315,54.0,95.0
567,146.4393042625,147.78037435000002,47.0,82.0
568,147.9393027625,148.03037410000002,60.0,78.0
569,147.2964462625,148.04644551250001,66.0,127.0
570,147.72501726250002,148.048231225,62.0,99.0
571,147.9393027625,148.12323115,59.0,90.0
572,148.5821592625,148.83215901250003,57.0,89.0
573,148.79644476250002,149.0000159875,60.0,99.0
574,148.3678737625,149.08573018750002,52.0,65.0
575,149.2250157625,149.37501561250002,52.0,79.0
576,148.15358826250002,149.43215841250003,45.0,70.0
577,149.01073026250003,149.69644386250002,64.0,102.0
578,149.4393012625,149.73037240000002,60.0,92.0
579,149.65358676250003,149.8821579625,57.0,88.0
580,150.29644326250002,150.75715708750002,50.0,82.0
581,150.5107287625,150.8607284125,57.0,89.0
582,150.9392997625,151.13751385,50.0,93.0
583,149.86787226250001,151.41251357500002,38.0,72.0
584,150.0821577625,151.5714419875,45.0,85.0
585,151.36787076250002,151.6214419375,57.0,97.0
586,151.15358526250003,151.64108477500002,62.0,99.0
587,150.7250142625,151.7142989875,66.0,127.0
588,152.0107272625,152.52322675000002,50.0,100.0
589,152.2250127625,152.6142980875,57.0,112.0
590,151.5821562625,152.8250121625,38.0,86.0
591,151.79644176250002,152.84465500000002,45.0,99.0
592,152.65358376250003,153.23929746250002,50.0,99.0
593,152.8678692625,153.25001173750002,62.0,122.0
594,152.43929826250002,153.25536887500002,66.0,127.0
595,153.0821547625,153.26608315000001,57.0,100.0
596,153.7250112625,154.2017965,55.0,93.0
597,153.93929676250002,154.25001073750002,62.0,93.0
598,153.51072576250002,154.45001053750002,50.0,85.0
599,153.29644026250003,154.47501051250003,43.0,83.0
600,154.3678677625,154.49643906250003,55.0,90.0
601,154.58215326250001,154.8428672875,67.0,100.0
602,154.1535822625,154.98572428750003,71.0,122.0
603,154.79643876250003,155.07322420000003,62.0,100.0
604,155.6535807625,155.89643766250003,66.0,99.0
605,155.43929526250002,155.95179475000003,62.0,83.0
606,155.2250097625,155.96608045000002,54.0,89.0
607,155.01072426250002,156.19643736250003,42.0,99.0
608,156.08215176250002,156.33215151250002,54.0,95.0
609,155.8678662625,156.70715113750003,71.0,100.0
610,156.29643726250004,156.72857968750003,66.0,112.0
611,156.5107227625,156.75000823750003,62.0,97.0
612,157.1535792625,157.41607900000002,57.0,89.0
613,157.3678647625,157.57500741250004,60.0,100.0
614,156.93929376250003,157.6875073,52.0,69.0
615,157.79643576250004,157.92500706250001,52.0,66.0
616,156.7250082625,157.98393557500003,45.0,79.0
617,158.0107212625,158.36964947500002,60.0,99.0
618,157.58215026250002,158.41607800000003,64.0,97.0
619,158.22500676250002,158.42500656250002,57.0,89.0
620,158.8678632625,159.39643416250004,52.0,76.0
621,159.08214876250003,159.41429128750002,59.0,78.0
622,158.43929226250003,159.65893390000002,40.0,72.0
623,158.6535777625,159.70893385,47.0,82.0
624,159.5107197625,159.812505175,52.0,83.0
625,159.72500526250002,160.0428620875,64.0,96.0
626,159.29643426250004,160.08393347500004,67.0,117.0
627,159.93929076250004,160.19107622500002,59.0,89.0
628,160.7964327625,161.0107182625,62.0,99.0
629,160.58214726250003,161.08036105000002,59.0,71.0
630,160.3678617625,161.12857528750004,54.0,82.0
631,161.22500376250002,161.42857498750004,54.0,93.0
632,160.1535762625,161.49286063750003,47.0,83.0
633,161.43928926250004,161.741074675,62.0,100.0
634,161.0107182625,161.7535746625,66.0,127.0
635,161.6535747625,161.8857173875,59.0,97.0
636,162.5107167625,162.67857373750002,60.0,93.0
637,162.2964312625,162.75714508750002,57.0,89.0
638,162.08214576250003,162.76785936250002,52.0,56.0
639,162.9392877625,163.10178760000002,52.0,88.0
640,161.86786026250002,163.12678757500004,45.0,77.0
641,163.1535732625,163.43750155000004,60.0,102.0
642,162.72500226250003,163.46071581250004,64.0,102.0
643,163.36785876250002,163.6178585125,57.0,95.0
644,164.0107152625,164.498214775,50.0,83.0
645,164.22500076250003,164.619643225,57.0,77.0
646,164.6535717625,164.8428572875,50.0,77.0
647,164.4392862625,165.0874999,66.0,122.0
648,163.58214426250004,165.1499998375,38.0,73.0
649,164.86785726250002,165.16785696250003,62.0,97.0
650,163.7964297625,165.29285683750004,45.0,66.0
651,165.08214276250004,165.2964282625,57.0,83.0
652,165.2964282625,165.883927675,38.0,75.0
653,165.2964282625,165.905356225,50.0,100.0
654,165.2964282625,165.91071336250002,57.0,95.0
655,165.2964282625,165.91071336250002,66.0,99.0
656,165.2964282625,165.91428478750004,62.0,99.0
657,165.2964282625,165.92321335000003,45.0,93.0
658,166.1535702625,166.2964272625,38.0,77.0
659,166.1535702625,166.298212975,50.0,107.0
660,166.1535702625,166.3160701,45.0,107.0
661,166.1535702625,166.3303558,57.0,117.0
662,166.1535702625,166.33214151250002,66.0,127.0
663,166.1535702625,166.33392722500002,62.0,112.0
664,166.4392842625,166.56785556250003,38.0,69.0
665,166.4392842625,166.5714269875,50.0,102.0
666,166.4392842625,166.59464125,45.0,95.0
667,166.4392842625,166.59464125,57.0,112.0
668,166.4392842625,166.59999838750002,62.0,102.0
669,166.4392842625,166.59999838750002,66.0,102.0
670,166.72499826250004,167.00178370000003,38.0,89.0
671,166.72499826250004,167.00356941250004,45.0,100.0
672,166.72499826250004,167.00356941250004,50.0,107.0
673,166.72499826250004,167.01249797500003,62.0,107.0
674,166.72499826250004,167.02142653750002,57.0,102.0
675,166.72499826250004,167.026783675,66.0,117.0
676,167.01071226250002,167.7928543375,59.0,100.0
677,167.01071226250002,167.81071146250002,68.0,100.0
678,167.01071226250002,167.81428288750004,64.0,102.0
679,167.01071226250002,168.07856833750003,52.0,100.0
680,167.86785426250003,168.4285679875,68.0,117.0
681,167.86785426250003,168.4303537,59.0,100.0
682,167.86785426250003,168.441067975,64.0,102.0
683,168.2964252625,168.6732106,52.0,93.0
684,167.01071226250002,168.68035345000004,40.0,72.0
685,167.01071226250002,168.7160677,47.0,97.0
686,168.72499626250004,169.04463880000003,59.0,112.0
687,168.72499626250004,169.083924475,68.0,112.0
688,168.72499626250004,169.0964244625,64.0,107.0
689,168.9392817625,169.43392412500003,40.0,72.0
690,168.9392817625,169.4392812625,52.0,117.0
691,168.9392817625,169.45713838750004,47.0,102.0
692,169.36785276250004,169.47856693750003,59.0,78.0
693,169.36785276250004,169.4857097875,68.0,81.0
694,169.36785276250004,169.4964240625,64.0,83.0
695,169.5821382625,169.85178085,59.0,102.0
696,169.5821382625,169.8821379625,68.0,122.0
697,169.5821382625,169.8928522375,64.0,117.0
698,169.5821382625,170.062494925,47.0,96.0
699,170.01070926250003,170.1035663125,59.0,88.0
700,169.7964237625,170.2392804625,40.0,74.0
701,169.7964237625,170.25356616250002,52.0,107.0
702,170.01070926250003,170.27856613750004,68.0,122.0
703,170.01070926250003,170.28570898750002,64.0,97.0
704,170.4392802625,171.183922375,59.0,127.0
705,170.4392802625,171.20177950000004,68.0,117.0
706,170.4392802625,171.21249377500004,64.0,107.0
707,171.29642226250002,171.82320745000004,68.0,127.0
708,171.29642226250002,171.826778875,64.0,122.0
709,170.4392802625,171.9928501375,40.0,92.0
710,171.7249932625,171.99999298750004,59.0,102.0
711,170.4392802625,172.00713583750002,52.0,117.0
712,171.9392787625,172.00713583750002,68.0,40.0
713,170.4392802625,172.026778675,47.0,107.0
714,171.9392787625,172.026778675,64.0,53.0
715,172.15356426250003,172.95270153750002,52.0,122.0
716,172.15356426250003,172.95916705000002,40.0,99.0
717,172.15356426250003,172.9764084166667,59.0,122.0
718,172.15356426250003,172.9828739291667,68.0,127.0
719,172.15356426250003,172.98718427083335,47.0,122.0
720,172.15356426250003,172.98718427083335,64.0,127.0
721,173.1337358875,174.330546,47.0,102.0
722,173.1337358875,174.333046,52.0,102.0
723,173.1337358875,174.335546,40.0,85.0
724,173.1337358875,174.350546,64.0,112.0
725,173.1337358875,174.355546,59.0,107.0
726,173.1337358875,174.360546,68.0,127.0
727,174.8240533875,175.31285914583333,57.0,96.0
728,175.0479338875,175.37629195416665,64.0,95.0
729,175.49569488749998,175.62069483333332,57.0,92.0
730,174.283046,175.62815751666665,45.0,90.0
731,174.583046,175.6300231875,52.0,72.0
732,175.9434558875,176.14867967916666,69.0,86.0
733,175.2718143875,176.29793334583331,73.0,112.0
734,175.7195753875,176.30912737083332,64.0,76.0
735,176.8219467625,177.088017925,68.0,97.0
736,176.6076612625,177.130875025,64.0,86.0
737,176.39121688749998,177.13980358749998,56.0,85.0
738,176.1673363875,177.42194616249998,44.0,100.0
739,177.25051776249998,177.46301755,56.0,83.0
740,177.4648032625,177.8862314125,68.0,92.0
741,177.0362322625,177.888017125,73.0,107.0
742,177.6790887625,177.90051711249998,64.0,97.0
743,178.32194526249998,178.573730725,59.0,97.0
744,178.5362307625,178.73265913749998,62.0,82.0
745,178.1076597625,178.802301925,54.0,77.0
746,177.8933742625,179.09158735,47.0,83.0
747,178.9648017625,179.09873019999998,54.0,78.0
748,179.1790872625,179.5255154875,62.0,99.0
749,178.75051626249999,179.5398011875,66.0,100.0
750,179.39337276249998,179.58265828749998,59.0,89.0
751,180.0362292625,180.5612287375,54.0,82.0
752,180.2505147625,180.56480016249998,61.0,81.0
753,179.6076582625,180.90587125,42.0,79.0
754,179.82194376249998,180.9362283625,49.0,79.0
755,180.6790857625,180.9790854625,54.0,82.0
756,180.89337126249998,181.1790852625,66.0,92.0
757,180.46480026249998,181.26479946249998,69.0,107.0
758,181.1076567625,181.366585075,61.0,89.0
759,181.96479876249998,182.173727125,64.0,102.0
760,181.7505132625,182.2183699375,61.0,79.0
761,181.5362277625,182.2469413375,56.0,92.0
762,182.3933697625,182.6558695,56.0,95.0
763,181.3219422625,182.66301235,49.0,82.0
764,182.8219407625,182.9130121,62.0,78.0
765,182.1790842625,182.9290835125,68.0,127.0
766,182.6076552625,182.93086922499998,64.0,99.0
767,182.8219407625,183.00586915,61.0,90.0
768,183.46479726249999,183.7147970125,59.0,89.0
769,183.6790827625,183.8826539875,62.0,99.0
770,183.2505117625,183.9683681875,54.0,65.0
771,184.10765376249998,184.25765361249998,54.0,79.0
772,183.03622626249998,184.3147964125,47.0,70.0
773,183.8933682625,184.5790818625,66.0,102.0
774,184.3219392625,184.61301039999998,62.0,92.0
775,184.53622476249998,184.7647959625,59.0,88.0
776,185.1790812625,185.6397950875,52.0,82.0
777,185.3933667625,185.7433664125,59.0,89.0
778,185.8219377625,186.02015185,52.0,93.0
779,184.7505102625,186.29515157499998,40.0,72.0
780,184.9647957625,186.4540799875,47.0,85.0
781,186.2505087625,186.5040799375,59.0,97.0
782,186.0362232625,186.52372277499998,64.0,99.0
783,185.60765226249998,186.5969369875,68.0,127.0
784,186.8933652625,187.40586474999998,52.0,100.0
785,187.1076507625,187.4969360875,59.0,112.0
786,186.4647942625,187.7076501625,40.0,86.0
787,186.67907976249998,187.727293,47.0,99.0
788,187.5362217625,188.1219354625,52.0,99.0
789,187.75050726249998,188.1326497375,64.0,122.0
790,187.3219362625,188.138006875,68.0,127.0
791,187.9647927625,188.14872115,59.0,100.0
792,188.6076492625,189.0844345,57.0,93.0
793,188.8219347625,189.1326487375,64.0,93.0
794,188.3933637625,189.3326485375,52.0,85.0
795,188.17907826249998,189.3576485125,45.0,83.0
796,189.25050576249998,189.3790770625,57.0,90.0
797,189.4647912625,189.7255052875,69.0,100.0
798,189.0362202625,189.8683622875,73.0,122.0
799,189.6790767625,189.95586219999998,64.0,100.0
800,190.5362187625,190.7790756625,68.0,99.0
801,190.32193326249998,190.83443275,64.0,83.0
802,190.1076477625,190.84871844999998,56.0,89.0
803,189.8933622625,191.0790753625,44.0,99.0
804,190.9647897625,191.2147895125,56.0,95.0
805,190.7505042625,191.5897891375,73.0,100.0
806,191.1790752625,191.6112176875,68.0,112.0
807,191.39336076249998,191.63264623749998,64.0,97.0
808,192.0362172625,192.29871699999998,59.0,89.0
809,192.2505027625,192.4576454125,62.0,100.0
810,191.8219317625,192.57014529999998,54.0,69.0
811,192.6790737625,192.8076450625,54.0,66.0
812,191.6076462625,192.866573575,47.0,79.0
813,192.89335926249998,193.252287475,62.0,99.0
814,192.4647882625,193.29871599999998,66.0,97.0
815,193.1076447625,193.3076445625,59.0,89.0
816,193.7505012625,194.2790721625,54.0,76.0
817,193.96478676249998,194.2969292875,61.0,78.0
818,193.3219302625,194.5415719,42.0,72.0
819,193.53621576249998,194.59157184999998,49.0,82.0
820,194.3933577625,194.695143175,54.0,83.0
821,194.6076432625,194.92550008749998,66.0,96.0
822,194.1790722625,194.966571475,69.0,117.0
823,194.8219287625,195.073714225,61.0,89.0
824,195.6790707625,195.8933562625,64.0,99.0
825,195.4647852625,195.96299905,61.0,71.0
826,195.2504997625,196.0112132875,56.0,82.0
827,196.1076417625,196.3112129875,56.0,93.0
828,195.03621426249998,196.3754986375,49.0,83.0
829,196.3219272625,196.62371267499998,64.0,100.0
830,195.8933562625,196.6362126625,68.0,127.0
831,196.53621276249999,196.76835538749998,61.0,97.0
832,197.3933547625,197.5612117375,62.0,93.0
833,197.17906926249998,197.6397830875,59.0,89.0
834,196.9647837625,197.6504973625,54.0,56.0
835,197.8219257625,197.9844256,54.0,88.0
836,196.7504982625,198.009425575,47.0,77.0
837,198.0362112625,198.32013955,62.0,102.0
838,197.60764026249998,198.3433538125,66.0,102.0
839,198.2504967625,198.50049651249998,59.0,95.0
840,198.8933532625,199.380852775,52.0,83.0
841,199.1076387625,199.502281225,59.0,77.0
842,199.5362097625,199.7254952875,52.0,77.0
843,199.3219242625,199.9701379,68.0,122.0
844,198.4647822625,200.0326378375,40.0,73.0
845,199.75049526249998,200.05049496249998,64.0,97.0
846,198.67906776249998,200.1754948375,47.0,66.0
847,199.9647807625,200.1790662625,59.0,83.0
848,200.6076372625,201.12013675,52.0,100.0
849,200.82192276249998,201.2433509125,59.0,122.0
850,201.25049376249999,201.4987078,52.0,102.0
851,200.3933517625,201.9076359625,47.0,112.0
852,200.1790662625,201.930850225,40.0,99.0
853,201.0362082625,201.945135925,68.0,127.0
854,201.4647792625,201.9558502,64.0,96.0
855,201.6790647625,201.959421625,59.0,95.0
856,202.32192126249998,202.7897779375,57.0,96.0
857,202.5362067625,202.8504921625,64.0,95.0
858,202.9647777625,203.0844205,57.0,92.0
859,201.8933502625,203.09156335,45.0,90.0
860,202.1076357625,203.09334906249998,52.0,72.0
861,203.39334876249998,203.5897771375,69.0,86.0
862,202.7504922625,203.73263413749999,73.0,112.0
863,203.1790632625,203.74334841249998,64.0,76.0
864,204.2504907625,204.516561925,68.0,97.0
865,204.0362052625,204.55941902499998,64.0,86.0
866,203.8219197625,204.5683475875,56.0,85.0
867,203.6076342625,204.8504901625,44.0,100.0
868,204.6790617625,204.89156155,56.0,83.0
869,204.8933472625,205.31477541249998,68.0,92.0
870,204.46477626249998,205.316561125,73.0,107.0
871,205.1076327625,205.3290611125,64.0,97.0
872,205.7504892625,206.002274725,59.0,97.0
873,205.96477476249999,206.1612031375,62.0,82.0
874,205.5362037625,206.23084592499998,54.0,77.0
875,205.3219182625,206.52013134999999,47.0,83.0
876,206.3933457625,206.5272742,54.0,78.0
877,206.6076312625,206.9540594875,62.0,99.0
878,206.1790602625,206.9683451875,66.0,100.0
879,206.8219167625,207.0112022875,59.0,89.0
880,207.4647732625,207.9897727375,54.0,82.0
881,207.6790587625,207.9933441625,61.0,81.0
882,207.03620226249998,208.33441525,42.0,79.0
883,207.2504877625,208.3647723625,49.0,79.0
884,208.10762976249998,208.40762946249998,54.0,82.0
885,208.3219152625,208.60762926249998,66.0,92.0
886,207.8933442625,208.6933434625,69.0,107.0
887,208.5362007625,208.795129075,61.0,89.0
888,209.3933427625,209.602271125,64.0,102.0
889,209.1790572625,209.6469139375,61.0,79.0
890,208.9647717625,209.6754853375,56.0,92.0
891,209.8219137625,210.08441349999998,56.0,95.0
892,208.7504862625,210.09155635,49.0,82.0
893,210.25048476249998,210.3415561,62.0,78.0
894,209.6076282625,210.3576275125,68.0,127.0
895,210.0361992625,210.359413225,64.0,99.0
896,210.25048476249998,210.43441315,61.0,90.0
897,210.8933412625,211.1433410125,59.0,89.0
898,211.1076267625,211.3111979875,62.0,99.0
899,210.67905576249998,211.3969121875,54.0,65.0
900,211.5361977625,211.6861976125,54.0,79.0
901,210.4647702625,211.7433404125,47.0,70.0
902,211.3219122625,212.0076258625,66.0,102.0
903,211.75048326249998,212.0415544,62.0,92.0
904,211.9647687625,212.1933399625,59.0,88.0
905,212.6076252625,213.0683390875,52.0,82.0
906,212.8219107625,213.17191041249998,59.0,89.0
907,213.2504817625,213.44869584999998,52.0,93.0
908,212.1790542625,213.723695575,40.0,72.0
909,212.3933397625,213.88262398749998,47.0,85.0
910,213.6790527625,213.9326239375,59.0,97.0
911,213.4647672625,213.952266775,64.0,99.0
912,213.0361962625,214.0254809875,68.0,127.0
913,214.3219092625,214.83440875,52.0,100.0
914,214.5361947625,214.9254800875,59.0,112.0
915,213.89333826249998,215.1361941625,40.0,86.0
916,214.1076237625,215.155837,47.0,99.0
917,214.9647657625,215.5504794625,52.0,99.0
918,215.1790512625,215.5611937375,64.0,122.0
919,214.7504802625,215.566550875,68.0,127.0
920,215.39333676249998,215.57726515,59.0,100.0
921,216.0361932625,216.5129785,57.0,93.0
922,216.2504787625,216.5611927375,64.0,93.0
923,215.8219077625,216.7611925375,52.0,85.0
924,215.6076222625,216.7861925125,45.0,83.0
925,216.6790497625,216.8076210625,57.0,90.0
926,216.8933352625,217.1540492875,69.0,100.0
927,216.4647642625,217.2969062875,73.0,122.0
928,217.1076207625,217.3844062,64.0,100.0
929,217.9647627625,218.2076196625,68.0,99.0
930,217.7504772625,218.26297675,64.0,83.0
931,217.53619176249998,218.27726245,56.0,89.0
932,217.3219062625,218.5076193625,44.0,99.0
933,218.3933337625,218.6433335125,56.0,95.0
934,218.1790482625,219.0183331375,73.0,100.0
935,218.6076192625,219.0397616875,68.0,112.0
936,218.8219047625,219.0611902375,64.0,97.0
937,219.4647612625,219.727261,59.0,89.0
938,219.67904676249998,219.8861894125,62.0,100.0
939,219.2504757625,219.9986893,54.0,69.0
940,220.1076177625,220.2361890625,54.0,66.0
941,219.03619026249999,220.295117575,47.0,79.0
942,220.3219032625,220.680831475,62.0,99.0
943,219.8933322625,220.72726,66.0,97.0
944,220.5361887625,220.7361885625,59.0,89.0
945,221.17904526249998,221.7076161625,54.0,76.0
946,221.3933307625,221.7254732875,61.0,78.0
947,220.7504742625,221.9701159,42.0,72.0
948,220.9647597625,222.02011585,49.0,82.0
949,221.8219017625,222.123687175,54.0,83.0
950,222.0361872625,222.3540440875,66.0,96.0
951,221.6076162625,222.395115475,69.0,117.0
952,222.2504727625,222.502258225,61.0,89.0
953,223.1076147625,223.32190026249998,64.0,99.0
954,222.8933292625,223.39154305,61.0,71.0
955,222.6790437625,223.4397572875,56.0,82.0
956,223.5361857625,223.7397569875,56.0,93.0
957,222.4647582625,223.8040426375,49.0,83.0
958,223.7504712625,224.052256675,64.0,100.0
959,223.32190026249998,224.0647566625,68.0,127.0
960,223.9647567625,224.1968993875,61.0,97.0
961,224.82189876249998,224.9897557375,62.0,93.0
962,224.6076132625,225.0683270875,59.0,89.0
963,224.3933277625,225.0790413625,54.0,56.0
964,225.2504697625,225.4129696,54.0,88.0
965,224.1790422625,225.437969575,47.0,77.0
966,225.4647552625,225.74868355,62.0,102.0
967,225.0361842625,225.77189781250001,66.0,102.0
968,225.6790407625,225.9290405125,59.0,95.0
969,226.3218972625,226.80939677499998,52.0,83.0
970,226.5361827625,226.930825225,59.0,77.0
971,226.96475376249998,227.15403928749998,52.0,77.0
972,226.7504682625,227.39868189999999,68.0,122.0
973,225.8933262625,227.4611818375,40.0,73.0
974,227.1790392625,227.4790389625,64.0,97.0
975,226.1076117625,227.6040388375,47.0,66.0
976,227.39332476250001,227.6076102625,59.0,83.0
977,228.0361812625,228.54868075,52.0,100.0
978,228.2504667625,228.6718949125,59.0,122.0
979,228.6790377625,228.9272518,52.0,102.0
980,227.8218957625,229.3361799625,47.0,112.0
981,227.6076102625,229.359394225,40.0,99.0
982,228.46475226249999,229.373679925,68.0,127.0
983,228.8933232625,229.3843942,64.0,96.0
984,229.1076087625,229.387965625,59.0,95.0
985,229.7504652625,230.2183219375,57.0,96.0
986,229.9647507625,230.2790361625,64.0,95.0
987,230.3933217625,230.5129645,57.0,92.0
988,229.3218942625,230.52010735,45.0,90.0
989,229.5361797625,230.5218930625,52.0,72.0
990,230.8218927625,231.01832113749998,69.0,86.0
991,230.1790362625,231.1611781375,73.0,112.0
992,230.60760726249998,231.1718924125,64.0,76.0
993,231.6790347625,231.945105925,68.0,97.0
994,231.4647492625,231.987963025,64.0,86.0
995,231.2504637625,231.9968915875,56.0,85.0
996,231.0361782625,232.2790341625,44.0,100.0
997,232.1076057625,232.32010555,56.0,83.0
998,232.3218912625,232.7433194125,68.0,92.0
999,231.8933202625,232.745105125,73.0,107.0
1000,232.5361767625,232.7576051125,64.0,97.0
1001,233.1790332625,233.430818725,59.0,97.0
1002,233.3933187625,233.5897471375,62.0,82.0
1003,232.9647477625,233.659389925,54.0,77.0
1004,232.7504622625,233.94867535,47.0,83.0
1005,233.8218897625,233.9558182,54.0,78.0
1006,234.0361752625,234.3826034875,62.0,99.0
1007,233.6076042625,234.3968891875,66.0,100.0
1008,234.25046076249998,234.4397462875,59.0,89.0
1009,234.8933172625,235.4183167375,54.0,82.0
1010,235.1076027625,235.4218881625,61.0,81.0
1011,234.4647462625,235.76295925,42.0,79.0
1012,234.6790317625,235.7933163625,49.0,79.0
1013,235.5361737625,235.8361734625,54.0,82.0
1014,235.7504592625,236.0361732625,66.0,92.0
1015,235.3218882625,236.1218874625,69.0,107.0
1016,235.9647447625,236.223673075,61.0,89.0
1017,236.82188676250001,237.030815125,64.0,102.0
1018,236.6076012625,237.0754579375,61.0,79.0
1019,236.3933157625,237.1040293375,56.0,92.0
1020,237.2504577625,237.5129575,56.0,95.0
1021,236.1790302625,237.52010035,49.0,82.0
1022,237.6790287625,237.7701001,62.0,78.0
1023,237.0361722625,237.7861715125,68.0,127.0
1024,237.4647432625,237.787957225,64.0,99.0
1025,237.6790287625,237.86295715,61.0,90.0
1026,238.3218852625,238.5718850125,59.0,89.0
1027,238.5361707625,238.7397419875,62.0,99.0
1028,238.1075997625,238.8254561875,54.0,65.0
1029,238.9647417625,239.11474161249998,54.0,79.0
1030,237.89331426249998,239.1718844125,47.0,70.0
1031,238.7504562625,239.4361698625,66.0,102.0
1032,239.1790272625,239.47009839999998,62.0,92.0
1033,239.3933127625,239.6218839625,59.0,88.0
1034,240.03616926249998,240.4968830875,52.0,82.0
1035,240.2504547625,240.6004544125,59.0,89.0
1036,240.6790257625,240.87723985,52.0,93.0
1037,239.6075982625,241.152239575,40.0,72.0
1038,239.8218837625,241.3111679875,47.0,85.0
1039,241.1075967625,241.3611679375,59.0,97.0
1040,240.8933112625,241.380810775,64.0,99.0
1041,240.46474026250002,241.45402498750002,68.0,127.0
1042,241.7504532625,242.26295275,52.0,100.0
1043,241.96473876250002,242.3540240875,59.0,112.0
1044,241.3218822625,242.56473816250002,40.0,86.0
1045,241.53616776249999,242.584381,47.0,99.0
1046,242.3933097625,242.97902346249998,52.0,99.0
1047,242.6075952625,242.98973773749998,64.0,122.0
1048,242.17902426249998,242.995094875,68.0,127.0
1049,242.8218807625,243.00580915,59.0,100.0
1050,243.4647372625,243.94152250000002,57.0,93.0
1051,243.67902276249998,243.98973673749998,64.0,93.0
1052,243.2504517625,244.18973653749998,52.0,85.0
1053,243.0361662625,244.2147365125,45.0,83.0
1054,244.10759376250002,244.2361650625,57.0,90.0
1055,244.3218792625,244.5825932875,69.0,100.0
1056,243.8933082625,244.7254502875,73.0,122.0
1057,244.5361647625,244.8129502,64.0,100.0
1058,245.3933067625,245.6361636625,68.0,99.0
1059,245.1790212625,245.69152075,64.0,83.0
1060,244.9647357625,245.70580645,56.0,89.0
1061,244.7504502625,245.9361633625,44.0,99.0
1062,245.82187776249998,246.0718775125,56.0,95.0
1063,245.60759226250002,246.4468771375,73.0,100.0
1064,246.0361632625,246.4683056875,68.0,112.0
1065,246.2504487625,246.4897342375,64.0,97.0
1066,246.8933052625,247.155805,59.0,89.0
1067,247.1075907625,247.3147334125,62.0,100.0
1068,246.6790197625,247.4272333,54.0,69.0
1069,247.5361617625,247.6647330625,54.0,66.0
1070,246.4647342625,247.723661575,47.0,79.0
1071,247.75044726250002,248.10937547499998,62.0,99.0
1072,247.32187626249998,248.155804,66.0,97.0
1073,247.9647327625,248.1647325625,59.0,89.0
1074,248.6075892625,249.1361601625,54.0,76.0
1075,248.8218747625,249.15401728749998,61.0,78.0
1076,248.1790182625,249.39865989999998,42.0,72.0
1077,248.3933037625,249.44865985,49.0,82.0
1078,249.25044576250002,249.552231175,54.0,83.0
1079,249.46473126249998,249.78258808750002,66.0,96.0
1080,249.0361602625,249.823659475,69.0,117.0
1081,249.6790167625,249.93080222499998,61.0,89.0
1082,250.5361587625,250.7504442625,64.0,99.0
1083,250.3218732625,250.82008704999998,61.0,71.0
1084,250.1075877625,250.8683012875,56.0,82.0
1085,250.96472976249999,251.1683009875,56.0,93.0
1086,249.89330226250001,251.2325866375,49.0,83.0
1087,251.1790152625,251.480800675,64.0,100.0
1088,250.7504442625,251.49330066250002,68.0,127.0
1089,251.39330076250002,251.6254433875,61.0,97.0
1090,252.2504427625,252.4182997375,62.0,93.0
1091,252.0361572625,252.49687108749998,59.0,89.0
1092,251.8218717625,252.50758536249998,54.0,56.0
1093,252.6790137625,252.84151359999998,54.0,88.0
1094,251.6075862625,252.866513575,47.0,77.0
1095,252.8932992625,253.17722755,62.0,102.0
1096,252.4647282625,253.2004418125,66.0,102.0
1097,253.10758476249998,253.3575845125,59.0,95.0
1098,253.7504412625,254.237940775,52.0,83.0
1099,253.9647267625,254.359369225,59.0,77.0
1100,254.3932977625,254.5825832875,52.0,77.0
1101,254.1790122625,254.8272259,68.0,122.0
1102,253.3218702625,254.8897258375,40.0,73.0
1103,254.6075832625,254.9075829625,64.0,97.0
1104,253.53615576250002,255.0325828375,47.0,66.0
1105,254.8218687625,255.03615426250002,59.0,83.0
1106,255.4647252625,255.97722475,52.0,100.0
1107,255.6790107625,256.1004389125,59.0,122.0
1108,256.1075817625,256.3557958,52.0,102.0
1109,255.2504397625,256.7647239625,47.0,112.0
1110,255.03615426250002,256.787938225,40.0,99.0
1111,255.8932962625,256.802223925,68.0,127.0
1112,256.3218672625,256.8129382,64.0,96.0
1113,256.5361527625,256.816509625,59.0,95.0
1114,257.17783165000003,257.64237075,57.0,96.0
1115,257.39059765,257.70265445,64.0,95.0
1116,257.81612965,257.934924,57.0,92.0
1117,256.7504382625,257.9420162,45.0,90.0
1118,256.9647237625,257.94378925,52.0,72.0
1119,258.24166165,258.43669715000004,69.0,86.0
1120,257.60336365,258.57854115000004,73.0,112.0
1121,258.02889565000004,258.58917945,64.0,76.0
1122,259.09272565000003,259.3569101,68.0,97.0
1123,258.87995965000005,259.39946330000004,64.0,86.0
1124,258.66719365,259.40832855,56.0,85.0
1125,258.45442765,259.68847045,44.0,100.0
1126,259.51825765,259.7292506,56.0,83.0
1127,259.73102365,260.14946345000004,68.0,92.0
1128,259.30549165,260.15123650000004,73.0,107.0
1129,259.94378965000004,260.16364785,64.0,97.0
1130,260.58208765,260.83208770000005,59.0,97.0
1131,260.79485365,260.98988915,62.0,82.0
1132,260.36932165,261.0590381,54.0,77.0
1133,260.15655565000003,261.34627220000004,47.0,83.0
1134,261.22038565,261.35336440000003,54.0,78.0
1135,261.43315165,261.77712335,62.0,99.0
1136,261.00761965000004,261.79130775000004,66.0,100.0
1137,261.64591765,261.83386095000003,59.0,89.0
1138,262.28421565,262.80549235,54.0,82.0
1139,262.49698165,262.80903845,61.0,81.0
1140,261.85868365000005,263.147691,42.0,79.0
1141,262.07144965000003,263.17783285,49.0,79.0
1142,262.92251365000004,263.22038605,54.0,82.0
1143,263.13527965000003,263.41896765,66.0,92.0
1144,262.70974765,263.50407405000004,69.0,107.0
1145,263.34804565,263.60513790000005,61.0,89.0
1146,264.19910965,264.4065565,64.0,102.0
1147,263.98634365000004,264.45088275,61.0,79.0
1148,263.77357765,264.47925155,56.0,92.0
1149,264.62464165,264.88528,56.0,99.0
1150,263.56081165,264.8923722,49.0,82.0
1151,265.05017365000003,265.1405992,62.0,98.0
1152,264.41187565,265.15655665,68.0,127.0
1153,264.83740765000005,265.1583297,64.0,98.0
1154,265.05017365000003,265.2327978,61.0,98.0
1155,265.68847165,265.93669865000004,59.0,95.0
1156,265.90123765000004,266.10336535000005,62.0,95.0
1157,265.47570565,266.18847175,54.0,96.0
1158,266.32676965,266.47570585,54.0,93.0
1159,265.26293965,266.53244345,47.0,97.0
1160,266.11400365000003,266.79485485000004,66.0,95.0
1161,266.53953565,266.82854280000004,62.0,93.0
1162,266.75230165,266.97925205,59.0,93.0
1163,267.39059965,267.84804655,52.0,90.0
1164,267.60336565,267.95088345,59.0,90.0
1165,268.02889765000003,268.2257062,52.0,90.0
1166,266.96506765000004,268.4987559,40.0,92.0
1167,267.17783365,268.65655735,47.0,92.0
1168,268.45442965,268.70620275000005,59.0,88.0
1169,268.24166365,268.7257063,64.0,88.0
1170,267.81613165000005,268.79840135,68.0,90.0
1171,269.09272765000003,269.60159300000004,52.0,86.0
1172,269.30549365,269.69201855,59.0,86.0
1173,268.66719565,269.90123845,40.0,87.0
1174,268.87996165000004,269.920742,47.0,87.0
1175,269.73102565,270.31258605,52.0,83.0
1176,269.94379165000004,270.32322435000003,64.0,83.0
1177,269.51825965,270.3285435,68.0,86.0
1178,270.15655765,270.3391818,59.0,83.0
1179,270.79485565000004,271.26826,57.0,81.0
1180,271.00762165000003,271.31613235000003,64.0,81.0
1181,270.58208965,271.51471395000004,52.0,81.0
1182,270.36932365,271.53953665,45.0,81.0
1183,271.43315365,271.56081325,57.0,79.0
1184,271.64591965,271.90478495,69.0,79.0
1185,271.22038765,272.04662895,73.0,79.0
1186,271.85868565000004,272.13350840000004,64.0,79.0
1187,272.70974965,272.95088445000005,68.0,78.0
1188,272.49698365,273.005849,64.0,79.0
1189,272.28421765,273.02003340000005,56.0,79.0
1190,272.07145165000003,273.24875685,44.0,79.0
1191,273.13528165,273.38350865,56.0,77.0
1192,272.92251565000004,273.75584915,73.0,77.0
1193,273.34804765,273.77712575000004,68.0,77.0
1194,273.56081365,273.79840235,64.0,76.0
1195,274.19911165,274.45975000000004,59.0,75.0
1196,274.41187765,274.61755145,62.0,75.0
1197,273.98634565000003,274.7292536,54.0,75.0
1198,274.83740965000004,274.96506925,54.0,74.0
1199,273.77357965000004,275.0235799,47.0,75.0
1200,275.05017565,275.4065587,62.0,73.0
1201,274.62464365,275.45265800000004,66.0,74.0
1202,275.26294165,275.46152325,59.0,73.0
1203,275.90123965000004,276.42606245,54.0,71.0
1204,276.11400565,276.44379295000005,61.0,71.0
1205,275.47570765,276.68670080000004,42.0,72.0
1206,275.68847365,276.7363462,49.0,72.0
1207,276.53953765,276.8391831,54.0,70.0
1208,276.75230365000004,277.06790655000003,66.0,69.0
1209,276.32677165,277.1086867,69.0,70.0
1210,276.96506965000003,277.2150697,61.0,69.0
1211,277.81613365000004,278.02889965,64.0,67.0
1212,277.60336765,278.0980486,61.0,68.0
1213,277.39060165,278.14592095,56.0,68.0
1214,278.24166565,278.44379335,56.0,65.0
1215,277.17783565,278.50762315000003,49.0,68.0
1216,278.45443165,278.7540771,64.0,65.0
1217,278.02889965,278.76648845,68.0,67.0
1218,278.66719765000005,278.89769415,61.0,61.0
