,start,end,pitch,velocity
0,7.079021218750002,7.344825750000002,77.0,108.0
1,7.423848718750002,7.556032593750002,75.0,92.0
2,7.768676218750002,8.241377250000001,75.0,94.0
3,8.458331218750002,8.652296687500002,73.0,97.0
4,8.803158718750002,9.610629781250003,75.0,102.0
5,9.837641218750003,9.954020500000002,70.0,94.0
6,10.182468718750002,11.964077468750002,70.0,94.0
7,12.596261218750003,12.808904843750003,68.0,102.0
8,12.941088718750002,13.147985218750003,73.0,100.0
9,13.285916218750003,13.836203437500004,73.0,100.0
10,13.975571218750003,14.149421750000004,75.0,97.0
11,14.320398718750003,16.340513156250005,75.0,97.0
12,18.113501218750006,18.353443687500004,77.0,97.0
13,18.458328718750003,18.650857406250005,75.0,97.0
14,18.803156218750004,19.392236531250006,75.0,105.0
15,19.492811218750006,19.686776687500004,73.0,94.0
16,19.837638718750004,20.472696031250006,75.0,100.0
17,20.527293718750006,20.767236187500004,70.0,80.0
18,20.872121218750006,22.955454031250007,70.0,97.0
19,23.285913718750006,23.448270000000004,68.0,92.0
20,23.630741218750007,23.831890593750007,68.0,100.0
21,23.975568718750004,24.545970875000005,73.0,102.0
22,24.665223718750006,24.910913312500007,73.0,82.0
23,25.010051218750007,25.231315531250004,75.0,89.0
24,25.354878718750005,28.261487187500006,75.0,102.0
25,28.458326218750006,28.662349156250006,70.0,108.0
26,28.803153718750007,29.356314500000007,73.0,102.0
27,29.492808718750005,30.327578625000008,73.0,100.0
28,30.52729121875001,30.72700381250001,68.0,97.0
29,30.872118718750006,31.123555437500006,68.0,89.0
30,31.216946218750007,31.75573918750001,75.0,102.0
31,31.895106968750007,32.08332531250001,77.0,92.0
32,32.27441721875001,32.92096878125001,73.0,84.0
33,32.97556646875001,33.74137087500001,70.0,97.0
34,33.97556621875001,34.212635125000006,70.0,100.0
35,34.32039371875001,34.88361196875001,73.0,97.0
36,35.01004871875001,35.866370343750006,73.0,102.0
37,36.04453121875001,36.265795531250006,68.0,94.0
38,36.38935871875001,36.571829937500006,68.0,89.0
39,36.73418621875001,37.30027803125001,75.0,105.0
40,37.423841218750006,37.61205956250001,77.0,102.0
41,37.76866871875001,39.31177178125001,73.0,102.0
42,39.49280621875001,39.75573718750001,70.0,97.0
43,39.83763371875001,40.37642668750001,73.0,100.0
44,40.52728871875001,41.58188615625001,73.0,102.0
45,41.90659871875001,42.17240325000001,68.0,100.0
46,42.25142621875001,42.80458700000001,75.0,73.0
47,42.94108121875001,43.20688575000001,73.0,84.0
48,43.28590871875001,44.08188553125001,77.0,108.0
49,44.32039121875001,44.550276218750014,73.0,105.0
50,44.66521871875001,47.67671221875001,73.0,105.0
51,48.80314871875001,49.05745900000001,73.0,105.0
52,49.14797621875001,49.40803362500001,77.0,111.0
53,49.49280371875001,49.68102206250001,78.0,105.0
54,49.83763121875001,50.067516218750015,80.0,114.0
55,50.18245871875001,50.39366556250001,73.0,102.0
56,50.527286218750014,50.99998725000001,82.0,117.0
57,51.216941218750016,51.39079175000001,80.0,102.0
58,51.56176871875001,52.376423687500015,80.0,114.0
59,52.59625121875001,52.81176840625001,78.0,105.0
60,52.94107871875001,53.52153834375001,77.0,108.0
61,53.630733718750015,54.12211290625001,75.0,108.0
62,54.32038871875001,54.51435418750001,68.0,102.0
63,54.66521621875001,54.87498628125001,75.0,105.0
64,55.01004371875001,55.26722756250001,77.0,92.0
65,55.35487121875001,55.51722750000001,78.0,114.0
66,55.699698718750014,55.91808946875001,68.0,111.0
67,56.044526218750015,56.50860656250001,80.0,114.0
68,56.73418121875002,56.955445531250014,78.0,108.0
69,57.07900871875001,57.798836125000015,77.0,102.0
70,57.76866371875001,58.27153715625001,75.0,105.0
71,58.458318718750014,59.008605937500015,75.0,102.0
72,59.147973718750016,59.69538737500002,73.0,102.0
73,59.83762871875001,60.05027234375002,68.0,105.0
74,60.18245621875001,60.359180312500015,73.0,105.0
75,60.52728371875001,60.74423768750002,75.0,94.0
76,60.872111218750014,61.08475484375001,77.0,102.0
77,61.216938718750015,61.43245590625001,73.0,97.0
78,61.561766218750016,62.025846562500014,78.0,108.0
79,62.25142121875002,62.44538668750001,77.0,89.0
80,62.59624871875001,63.15371984375002,75.0,102.0
81,63.28590371875001,64.00142078125002,73.0,108.0
82,64.32175613125001,64.88861625625002,73.0,117.0
83,65.01943013125002,65.23745325625002,72.0,100.0
84,65.36826713125002,65.98018536875001,73.0,105.0
85,66.06594113125001,66.87698715625002,75.0,108.0
86,67.11245213125002,67.64588204375002,78.0,108.0
87,67.81012613125002,68.00053299375001,77.0,100.0
88,68.15896313125002,68.67931165625002,77.0,102.0
89,68.85663713125003,69.29849733125002,75.0,102.0
90,69.55431113125002,70.63570583125002,77.0,102.0
91,70.94775461875003,71.20206490000002,73.0,105.0
92,71.29258211875002,71.55263952500002,77.0,111.0
93,71.63740961875003,71.82562796250002,78.0,105.0
94,71.98223711875002,72.21212211875002,80.0,114.0
95,72.32706461875001,72.53827146250002,73.0,102.0
96,72.67189211875002,73.14459315000002,82.0,117.0
97,73.36154711875002,73.53539765000002,80.0,102.0
98,73.70637461875002,74.52102958750002,80.0,114.0
99,74.74085711875001,74.95637430625003,78.0,105.0
100,75.08568461875002,75.66614424375003,77.0,108.0
101,75.77533961875002,76.26671880625003,75.0,108.0
102,76.46499461875003,76.65896008750002,68.0,102.0
103,76.80982211875002,77.01959218125002,75.0,105.0
104,77.15464961875003,77.41183346250003,77.0,92.0
105,77.49947711875002,77.66183340000002,78.0,114.0
106,77.84430461875002,78.06269536875003,68.0,111.0
107,78.18913211875002,78.65321246250002,80.0,114.0
108,78.87878711875003,79.10005143125002,78.0,108.0
109,79.22361461875002,79.94344202500002,77.0,102.0
110,79.91326961875002,80.41614305625002,75.0,105.0
111,80.60292461875002,81.15321183750002,75.0,102.0
112,81.29257961875003,83.52533768125002,73.0,102.0
113,83.70637211875002,84.21499268125002,70.0,108.0
114,84.39602711875003,84.60292361875003,73.0,100.0
115,84.74085461875002,85.88740605625003,73.0,105.0
116,86.12016461875002,86.32418755625002,68.0,102.0
117,86.46499211875002,86.97201262291668,75.0,108.0
118,87.14814893958335,87.32854661875001,73.0,102.0
119,87.48905793958335,87.97201235625002,77.0,111.0
120,88.17087593958335,89.00184162708335,73.0,102.0
121,89.19360293958334,91.56976155833335,73.0,94.0
122,100.91171324583335,101.17751777708335,77.0,108.0
123,101.25654074583336,101.38872462083336,75.0,92.0
124,101.60136824583336,102.07406927708335,75.0,94.0
125,102.29102324583336,102.48498871458335,73.0,97.0
126,102.63585074583335,103.44332180833335,75.0,102.0
127,103.67033324583336,103.78671252708335,70.0,94.0
128,104.01516074583336,105.79676949583336,70.0,94.0
129,106.42895324583336,106.64159687083335,68.0,102.0
130,106.77378074583336,106.98067724583336,73.0,100.0
131,107.11860824583336,107.66889546458336,73.0,100.0
132,107.80826324583336,107.98211377708336,75.0,97.0
133,108.15309074583335,110.17320518333335,75.0,97.0
134,111.94619324583336,112.18613571458336,77.0,97.0
135,112.29102074583335,112.48354943333337,75.0,97.0
136,112.63584824583336,113.22492855833336,75.0,105.0
137,113.32550324583336,113.51946871458335,73.0,94.0
138,113.67033074583335,114.30538805833336,75.0,100.0
139,114.35998574583336,114.59992821458336,70.0,80.0
140,114.70481324583336,116.78814605833335,70.0,97.0
141,117.11860574583336,117.28096202708336,68.0,92.0
142,117.46343324583336,117.66458262083336,68.0,100.0
143,117.80826074583337,118.37866290208336,73.0,102.0
144,118.49791574583335,118.74360533958335,73.0,82.0
145,118.84274324583336,119.06400755833336,75.0,89.0
146,119.18757074583337,122.09417921458336,75.0,102.0
147,122.29101824583336,122.49504118333337,70.0,108.0
148,122.63584574583336,123.18900652708336,73.0,102.0
149,123.32550074583335,124.16027065208337,73.0,100.0
150,124.35998324583336,124.55969583958336,68.0,97.0
151,124.70481074583336,124.95624746458336,68.0,89.0
152,125.04963824583336,125.58843121458335,75.0,102.0
153,125.72779899583335,125.91601733958336,77.0,92.0
154,126.10710924583336,126.75366080833336,73.0,84.0
155,126.80825849583337,127.57406290208337,70.0,97.0
156,127.80825824583337,128.04532715208336,70.0,100.0
157,128.15308574583338,128.71630399583336,73.0,97.0
158,128.84274074583337,129.69906237083336,73.0,102.0
159,129.87722324583336,130.09848755833337,68.0,94.0
160,130.22205074583337,130.40452196458335,68.0,89.0
161,130.56687824583338,131.13297005833337,75.0,105.0
162,131.25653324583337,131.44475158958335,77.0,102.0
163,131.60136074583335,133.14446380833337,73.0,102.0
164,133.32549824583336,133.58842921458336,70.0,97.0
165,133.67032574583337,134.20911871458335,73.0,100.0
166,134.35998074583335,135.41457818333336,73.0,102.0
167,135.73929074583336,136.00509527708337,68.0,100.0
168,136.08411824583337,136.63727902708337,75.0,73.0
169,136.77377324583335,137.03957777708337,73.0,84.0
170,137.11860074583336,137.91457755833335,77.0,108.0
171,138.15308324583336,138.38296824583335,73.0,105.0
172,138.49791074583337,141.50940424583337,73.0,105.0
173,142.63584074583338,142.89015102708336,73.0,105.0
174,142.98066824583336,143.24072565208337,77.0,111.0
175,143.32549574583336,143.51371408958337,78.0,105.0
176,143.67032324583337,143.90020824583337,80.0,114.0
177,144.01515074583335,144.22635758958336,73.0,102.0
178,144.35997824583336,144.83267927708337,82.0,117.0
179,145.04963324583338,145.22348377708337,80.0,102.0
180,145.39446074583336,146.20911571458336,80.0,114.0
181,146.42894324583335,146.64446043333336,78.0,105.0
182,146.77377074583336,147.35423037083336,77.0,108.0
183,147.46342574583338,147.95480493333338,75.0,108.0
184,148.15308074583336,148.34704621458337,68.0,102.0
185,148.49790824583337,148.70767830833336,75.0,105.0
186,148.84273574583335,149.09991958958335,77.0,92.0
187,149.18756324583336,149.34991952708336,78.0,114.0
188,149.53239074583337,149.75078149583337,68.0,111.0
189,149.87721824583338,150.34129858958337,80.0,114.0
190,150.56687324583336,150.78813755833337,78.0,108.0
191,150.91170074583337,151.63152815208338,77.0,102.0
192,151.60135574583336,152.10422918333336,75.0,105.0
193,152.29101074583338,152.84129796458336,75.0,102.0
194,152.98066574583336,153.52807940208336,73.0,102.0
195,153.67032074583338,153.88296437083335,68.0,105.0
196,154.01514824583336,154.19187233958337,73.0,105.0
197,154.35997574583337,154.57692971458337,75.0,94.0
198,154.70480324583338,154.91744687083337,77.0,102.0
199,155.04963074583338,155.26514793333337,73.0,97.0
200,155.39445824583336,155.85853858958336,78.0,108.0
201,156.08411324583335,156.2780787145834,77.0,89.0
202,156.42894074583336,156.98641187083336,75.0,102.0
203,157.11859574583337,157.83411280833337,73.0,108.0
204,158.15307824583337,158.7134229333334,73.0,117.0
205,158.84273324583336,159.05825043333337,72.0,100.0
206,159.18756074583337,159.79244565208336,73.0,105.0
207,159.87721574583338,160.67893968333337,75.0,108.0
208,160.91169824583335,161.43899696458337,78.0,108.0
209,161.60135324583337,161.78957158958337,77.0,100.0
210,161.94618074583337,162.46054843333337,77.0,102.0
211,162.63708871458337,163.08476276458336,75.0,102.0
212,163.34666726458335,164.45380901458336,77.0,102.0
213,164.77523726458335,165.03862985833337,73.0,105.0
214,165.13237976458336,165.40172473333337,77.0,111.0
215,165.48952226458337,165.68446254583336,78.0,105.0
216,165.84666476458335,166.08475976458337,80.0,114.0
217,166.20380726458336,166.41860598333335,73.0,102.0
218,166.55222663958335,167.02492767083334,82.0,117.0
219,167.24188163958334,167.41573217083334,80.0,102.0
220,167.58670913958335,168.40136410833335,80.0,114.0
221,168.62119163958334,168.83670882708336,78.0,105.0
222,168.96601913958335,169.54647876458336,77.0,108.0
223,169.65567413958334,170.14705332708334,75.0,108.0
224,170.34532913958336,170.53929460833334,68.0,102.0
225,170.69015663958334,170.89992670208335,75.0,105.0
226,171.03498413958334,171.29216798333334,77.0,92.0
227,171.37981163958335,171.54216792083335,78.0,114.0
228,171.72463913958336,171.94302988958336,68.0,111.0
229,172.06946663958334,172.53354698333334,80.0,114.0
230,172.75912163958336,172.98038595208334,78.0,108.0
231,173.10394913958334,173.82377654583334,77.0,102.0
232,173.79360413958335,174.29647757708335,75.0,105.0
233,174.48325913958334,175.03354635833335,75.0,102.0
234,175.17291413958336,177.49132414375,73.0,102.0
235,177.68108303125,178.21421514375,70.0,108.0
236,178.40397403125002,178.62084133125,73.0,100.0
237,178.76541953125002,179.96722581875,73.0,105.0
238,180.21120153125,180.42505678541667,68.0,102.0
239,180.57264703125,181.10879118958334,75.0,108.0
240,181.29553803125,181.48680294166667,73.0,102.0
241,181.65418413333336,182.15418388333336,77.0,111.0
242,182.36006613333336,183.20578932708335,73.0,102.0
243,183.39975479583336,185.78193810833335,73.0,94.0
244,205.46871479583336,205.73164576458336,70.0,97.0
245,205.81354229583334,206.35233526458336,73.0,100.0
246,206.50319729583336,207.55779473333337,73.0,102.0
247,207.52618554583336,207.77187513958336,68.0,108.0
248,207.87963373333335,208.14400148333334,68.0,111.0
249,208.22446123333336,208.82072545208337,75.0,111.0
250,208.88107026458334,209.13825410833334,77.0,111.0
251,209.24026557708336,209.95578263958336,73.0,108.0
252,209.95865620208335,211.67992013958334,68.0,108.0
253,214.77905729583335,215.03336757708337,73.0,105.0
254,215.12388479583336,215.38394220208335,77.0,111.0
255,215.46871229583337,215.65693063958335,78.0,105.0
256,215.81353979583335,216.04342479583335,80.0,114.0
257,216.15836729583336,216.36957413958336,73.0,102.0
258,216.50319479583334,216.97589582708335,82.0,117.0
259,217.19284979583335,217.36670032708335,80.0,102.0
260,217.53767729583336,218.35233226458337,80.0,114.0
261,218.57215979583336,218.78767698333337,78.0,105.0
262,218.91698729583337,219.49744692083334,77.0,108.0
263,219.60664229583335,220.09802148333335,75.0,108.0
264,220.29629729583337,220.49026276458335,68.0,102.0
265,220.64112479583335,220.85089485833336,75.0,105.0
266,220.98595229583336,221.24313613958336,77.0,92.0
267,221.33077979583337,221.49313607708336,78.0,114.0
268,221.67560729583334,221.89399804583337,68.0,111.0
269,222.02043479583335,222.48451513958335,80.0,114.0
270,222.71008979583337,222.93135410833335,78.0,108.0
271,223.05491729583335,223.77474470208335,77.0,102.0
272,223.74457229583336,224.24744573333336,75.0,105.0
273,224.43422729583335,224.98451451458337,75.0,102.0
274,225.12388229583337,225.67129595208337,73.0,102.0
275,225.81353729583336,226.02618092083335,68.0,105.0
276,226.15836479583336,226.33508888958335,73.0,105.0
277,226.50319229583334,226.72014626458335,75.0,94.0
278,226.84801979583335,227.06066342083335,77.0,102.0
279,227.19284729583336,227.40836448333334,73.0,97.0
280,227.53767479583337,228.00175513958337,78.0,108.0
281,228.22732979583336,228.42129526458336,77.0,89.0
282,228.57215729583336,229.12962842083334,75.0,102.0
283,229.26181229583335,229.97732935833335,73.0,108.0
284,230.29629479583338,230.85663948333337,73.0,117.0
285,230.98594979583336,231.20146698333338,72.0,100.0
286,231.33077729583334,231.93566220208336,73.0,105.0
287,232.02043229583336,232.82215623333337,75.0,108.0
288,233.05491479583335,233.58221351458337,78.0,108.0
289,233.74456979583334,233.93278813958335,77.0,100.0
290,234.08939729583335,234.60376498333335,77.0,102.0
291,234.77905229583337,235.21583379583336,75.0,102.0
292,235.46870729583335,236.56538129583336,77.0,102.0
293,236.88680954583336,237.15020213958337,73.0,105.0
294,237.24395204583337,237.51329701458337,77.0,111.0
295,237.60109454583338,237.79603482708336,78.0,105.0
296,237.95823704583336,238.19633204583337,80.0,114.0
297,238.31537954583337,238.53412932708338,73.0,102.0
298,238.67252204583338,239.15507507708335,82.0,117.0
299,239.37202904583336,239.54587957708335,80.0,102.0
300,239.71685654583337,240.53151151458337,80.0,114.0
301,240.75133904583336,240.96685623333337,78.0,105.0
302,241.09616654583337,241.67662617083337,77.0,108.0
303,241.78582154583336,242.27720073333336,75.0,108.0
304,242.47547654583337,242.66944201458335,68.0,102.0
305,242.82030404583335,243.03007410833337,75.0,105.0
306,243.16513154583336,243.42231538958336,77.0,92.0
307,243.50995904583337,243.67231532708337,78.0,114.0
308,243.85478654583335,244.07317729583337,68.0,111.0
309,244.19961404583336,244.66369438958336,80.0,114.0
310,244.88926904583337,245.11053335833336,78.0,108.0
311,245.23409654583335,245.95392395208336,77.0,102.0
312,245.92375154583337,246.42662498333337,75.0,105.0
313,246.61340654583336,247.16593240208334,75.0,102.0
314,247.30975840208333,249.62225608958335,73.0,102.0
315,249.80975590208334,250.33037888958333,70.0,108.0
316,250.51567291458335,250.72743751458333,73.0,100.0
317,250.86861391458334,252.04214273958334,73.0,105.0
318,252.28037791458334,252.48920133958333,68.0,102.0
319,252.63331891458333,253.15684806458333,75.0,108.0
320,253.33920091458333,253.52596552708334,73.0,102.0
321,253.69214191458335,254.19214166458335,77.0,111.0
322,254.39802391458335,255.25831760208334,73.0,102.0
323,255.45684691458334,257.82524525625,73.0,94.0
