,start,end,pitch,velocity
0,32.02256527708333,32.121962789583336,60.0,96.0
1,32.20328802708333,32.30268553958334,60.0,96.0
2,32.38401077708333,32.49846851875,60.0,90.0
3,32.564733527083334,32.926179027083336,74.0,99.0
4,32.926179027083336,33.21382940416667,72.0,90.0
5,33.28785386458333,33.57654718125,72.0,92.0
6,33.65060986458334,33.865240497916666,69.0,90.0
7,34.013365864583335,34.292990281250006,69.0,88.0
8,34.37612186458334,34.62551661458333,67.0,92.0
9,34.73887786458334,35.06384678125,67.0,91.0
10,35.101633864583334,35.41148794791667,65.0,92.0
11,35.46438986458334,37.05144736458334,69.0,92.0
12,37.82230386458333,37.92206176458333,60.0,96.0
13,38.003681864583335,38.103439764583335,60.0,96.0
14,38.18505986458334,38.29993259791667,60.0,90.0
15,38.36643786458334,38.72919386458334,74.0,99.0
16,38.72919386458334,39.01788718125,72.0,90.0
17,39.091949864583334,39.38064318125,72.0,92.0
18,39.45470586458334,39.66933649791667,69.0,90.0
19,39.817461864583336,40.09708628125,69.0,88.0
20,40.18021786458334,40.429612614583334,67.0,92.0
21,40.54297386458334,40.86794278125,67.0,91.0
22,40.905729864583336,41.21558394791667,65.0,92.0
23,41.26848586458334,42.85554336458334,67.0,92.0
24,44.170533864583334,44.46527311458334,67.0,93.0
25,44.53328986458334,44.81291428125,67.0,93.0
26,44.896045864583336,45.16206693125,67.0,96.0
27,45.25880186458333,45.55656408125,69.0,96.0
28,45.62155786458334,46.032681331250004,72.0,96.0
29,45.984313864583335,46.71284883125,69.0,90.0
30,46.89120386458334,47.05897851458334,72.0,88.0
31,47.07258186458334,47.45347566458334,74.0,94.0
32,47.43533786458334,47.82832353125001,72.0,95.0
33,47.798093864583336,48.23188958125,69.0,94.0
34,48.16084986458334,48.52360586458334,67.0,87.0
35,48.52360586458334,49.732792531250006,65.0,93.0
36,49.79325186458334,49.974629864583335,65.0,93.0
37,49.974629864583335,50.24820834791667,67.0,92.0
38,50.33738586458334,50.594338031250004,67.0,91.0
39,50.70014186458334,50.940467714583335,67.0,93.0
40,51.062897864583334,51.33194189791667,67.0,96.0
41,51.42565386458334,51.759691681250004,67.0,93.0
42,51.788409864583336,52.37486539791667,72.0,92.0
43,52.51392186458334,52.81470704791667,62.0,96.0
44,52.87667786458334,53.20769271458334,64.0,93.0
45,53.23943386458333,55.05321386458334,60.0,87.0
46,55.23459186458334,55.33434976458334,60.0,96.0
47,55.41596986458334,55.51572776458334,60.0,96.0
48,55.59734786458334,55.71222059791667,60.0,90.0
49,55.778725864583336,56.14148186458334,74.0,99.0
50,56.14148186458334,56.43009315000001,72.0,90.0
51,56.50406651041668,56.79241165000001,72.0,92.0
52,56.86638501041668,57.08075678958334,69.0,90.0
53,57.22870351041668,57.50799068750001,69.0,88.0
54,57.59102201041667,57.840115979166676,67.0,92.0
55,57.95334051041667,58.27791750000001,67.0,91.0
56,58.315659010416674,58.625139395833344,65.0,92.0
57,58.677977510416675,60.263120947916676,69.0,92.0
58,61.03304776041668,61.13268534791668,60.0,96.0
59,61.21420701041668,61.31384459791668,60.0,96.0
60,61.39536626041668,61.51010045208334,60.0,90.0
61,61.57652551041667,61.93884401041667,74.0,99.0
62,61.93884401041667,62.22718915000001,72.0,90.0
63,62.301162510416674,62.58950765000001,72.0,92.0
64,62.663481010416675,62.87785278958334,69.0,90.0
65,63.025799510416675,63.30508668750001,69.0,88.0
66,63.388118010416676,63.63721197916668,67.0,92.0
67,63.75043651041668,64.07501350000001,67.0,91.0
68,64.11275501041668,64.42223539583334,65.0,92.0
69,64.47507351041668,66.06021694791667,67.0,92.0
70,67.37362151041668,67.66800529166667,67.0,93.0
71,67.73594001041667,68.01522718750002,67.0,93.0
72,68.09825851041668,68.36395874375,67.0,96.0
73,68.46057701041667,68.75798011250001,69.0,96.0
74,68.82289551041667,69.23352314375,72.0,96.0
75,69.18521401041667,69.91287033125,69.0,90.0
76,70.09101026041668,70.25858256666668,72.0,88.0
77,70.27216951041667,70.65260393541668,74.0,94.0
78,70.63448801041667,71.02699971875,72.0,95.0
79,70.99680651041668,71.43007905000002,69.0,94.0
80,71.35912501041668,71.72144351041668,67.0,87.0
81,71.72144351041668,72.92917184375001,65.0,93.0
82,72.80839901041668,73.15411124583335,62.0,94.0
83,73.17071751041668,74.08859104375001,60.0,96.0
84,74.25767301041668,74.52488290416667,74.0,99.0
85,74.61999151041668,74.87663378125,72.0,92.0
86,74.98231001041668,75.252539225,74.0,99.0
87,75.34462851041667,75.63448331041667,69.0,93.0
88,75.70694701041668,76.0043501125,67.0,92.0
89,76.06926551041667,78.82590543125,65.0,95.0
90,78.96781351041668,79.23502340416668,72.0,99.0
91,79.33013201041668,79.55507141250001,72.0,96.0
92,79.69245051041668,79.98079565,72.0,99.0
93,80.05476901041668,80.21932199583334,74.0,98.0
94,80.23592826041667,80.76430940625,77.0,97.0
95,80.77940601041668,81.18248534166668,74.0,99.0
96,81.14172451041668,81.47535946250001,72.0,94.0
97,81.50404301041668,81.88749675625002,69.0,97.0
98,81.86636151041668,84.15198738125001,72.0,97.0
99,84.76490951041669,85.04721600833335,72.0,96.0
100,85.12722801041667,85.34612877083335,72.0,94.0
101,85.48954651041667,85.77185300833335,72.0,99.0
102,85.85186501041667,86.03604358125001,74.0,96.0
103,86.03302426041668,86.54177982083334,77.0,96.0
104,86.57650201041668,86.83616360208335,74.0,94.0
105,86.93882051041668,87.22867531041668,72.0,96.0
106,87.30113901041668,87.61061939583334,65.0,97.0
107,87.66345751041668,89.93700609791668,67.0,93.0
108,90.56200551041667,90.87752453750002,62.0,98.0
109,90.92432401041668,91.31381639791668,65.0,93.0
110,91.28664251041667,91.54781376250001,67.0,93.0
111,91.64896101041668,92.28754736666667,74.0,103.0
112,92.37359801041669,92.96538489375001,72.0,94.0
113,93.09823501041669,93.39563811250001,74.0,99.0
114,93.46055351041667,93.84551691666668,72.0,97.0
115,93.82287201041669,94.15801662291668,74.0,97.0
116,94.18519051041667,94.58977950208335,69.0,93.0
117,94.54750901041668,94.94304003958334,67.0,92.0
118,94.90982751041668,95.68428330416668,65.0,95.0
119,95.99678301041668,96.30928271666667,65.0,96.0
120,96.35910151041668,96.71538136875,67.0,92.0
121,96.72142001041668,97.12902832291668,65.0,93.0
122,97.08373851041668,97.45058599166669,67.0,96.0
123,97.44605701041668,97.85215566250001,65.0,93.0
124,97.80837551041668,98.54056081250002,67.0,93.0
125,98.53301251041668,99.28935237916667,69.0,86.0
126,99.25764951041668,102.15619751041669,72.0,92.0
127,124.74819996041668,124.84759747291668,60.0,96.0
128,124.92892271041669,125.02832022291668,60.0,96.0
129,125.10964546041669,125.22410320208336,60.0,90.0
130,125.29043368541669,125.65275218541669,74.0,99.0
131,125.65275218541669,125.94109732500002,72.0,90.0
132,126.01507068541669,126.30341582500002,72.0,92.0
133,126.37738918541669,126.59176096458336,69.0,90.0
134,126.73970768541669,127.01899486250002,69.0,88.0
135,127.10202618541669,127.3511201541667,67.0,92.0
136,127.46434468541669,127.78892167500003,67.0,91.0
137,127.82666318541669,128.13614357083335,65.0,92.0
138,128.18898168541668,129.7741251229167,69.0,92.0
139,130.5440519354167,130.6436895229167,60.0,96.0
140,130.7252111854167,130.82484877291668,60.0,96.0
141,130.90637043541668,131.02110462708336,60.0,90.0
142,131.08752968541668,131.4498481854167,74.0,99.0
143,131.4498481854167,131.73819332500003,72.0,90.0
144,131.81216668541668,132.100511825,72.0,92.0
145,132.1744851854167,132.38885696458337,69.0,90.0
146,132.5368036854167,132.81609086250003,69.0,88.0
147,132.8991221854167,133.14821615416668,67.0,92.0
148,133.2614406854167,133.58601767500002,67.0,91.0
149,133.6237591854167,133.93323957083336,65.0,92.0
150,133.9860776854167,135.57122112291668,67.0,92.0
151,136.8846256854167,137.17900946666668,67.0,93.0
152,137.24694418541668,137.52623136250003,67.0,93.0
153,137.6092626854167,137.87496291875001,67.0,96.0
154,137.97158118541668,138.26898428750002,69.0,96.0
155,138.3338996854167,138.74452731875002,72.0,96.0
156,138.69621818541668,139.42387450625003,69.0,90.0
157,139.6020144354167,139.7695867416667,72.0,88.0
158,139.7831736854167,140.1636081104167,74.0,94.0
159,140.14549218541669,140.53800389375002,72.0,95.0
160,140.5078106854167,140.94108322500003,69.0,94.0
161,140.8701291854167,141.2324476854167,67.0,87.0
162,141.2324476854167,142.44017601875004,65.0,93.0
163,142.3194031854167,142.66511542083336,62.0,94.0
164,142.68172168541668,143.59959521875004,60.0,96.0
165,143.7686771854167,144.03588707916668,74.0,99.0
166,144.13099568541668,144.38763795625002,72.0,92.0
167,144.4933141854167,144.76354340000003,74.0,99.0
168,144.85563268541668,145.14548748541668,69.0,93.0
169,145.2179511854167,145.51535428750003,67.0,92.0
170,145.58026968541668,148.33690960625003,65.0,95.0
171,148.4788176854167,148.74602757916668,72.0,99.0
172,148.8411361854167,149.06607558750002,72.0,96.0
173,149.2034546854167,149.49179982500002,72.0,99.0
174,149.5657731854167,149.73032617083337,74.0,98.0
175,149.74693243541668,150.27531358125003,77.0,97.0
176,150.2904101854167,150.6934895166667,74.0,99.0
177,150.6527286854167,150.98636363750003,72.0,94.0
178,151.01504718541668,151.39850093125003,69.0,97.0
179,151.3773656854167,153.66299155625003,72.0,97.0
180,154.2759136854167,154.55822018333336,72.0,96.0
181,154.63823218541668,154.85713294583337,72.0,94.0
182,155.0005506854167,155.28285718333336,72.0,99.0
183,155.36286918541668,155.54704775625004,74.0,96.0
184,155.5440284354167,156.05278399583335,77.0,96.0
185,156.0875061854167,156.34716777708337,74.0,94.0
186,156.4498246854167,156.7396794854167,72.0,96.0
187,156.8121431854167,157.12162357083335,65.0,97.0
188,157.1744616854167,159.4480102729167,67.0,93.0
189,160.0730096854167,160.38852871250003,62.0,98.0
190,160.4353281854167,160.82482057291668,65.0,93.0
191,160.79764668541668,161.0588179375,67.0,93.0
192,161.1599651854167,161.79855154166668,74.0,103.0
193,161.8846021854167,162.47638906875002,72.0,94.0
194,162.6092391854167,162.90664228750003,74.0,99.0
195,162.97155768541668,163.3565210916667,72.0,97.0
196,163.3338761854167,163.6690207979167,74.0,97.0
197,163.69619468541669,164.10078367708337,69.0,93.0
198,164.0585131854167,164.45404421458335,67.0,92.0
199,164.4208316854167,165.1952874791667,65.0,95.0
200,165.5077871854167,165.82028689166668,65.0,96.0
201,165.8701056854167,166.22638554375004,67.0,92.0
202,166.23242418541668,166.6400324979167,65.0,93.0
203,166.5947426854167,166.9615901666667,67.0,96.0
204,166.9570611854167,167.36315983750004,65.0,93.0
205,167.3193796854167,168.05156498750003,67.0,93.0
206,168.0440166854167,168.80035655416668,69.0,86.0
207,168.7686536854167,170.58024618541668,72.0,92.0
208,171.1237239354167,171.2233615229167,60.0,96.0
209,171.30488318541668,171.4045207729167,60.0,96.0
210,171.4860424354167,171.60077662708335,60.0,90.0
211,171.6672016854167,172.0295201854167,74.0,99.0
212,172.0295201854167,172.317865325,72.0,90.0
213,172.3918386854167,172.68018382500003,72.0,92.0
214,172.7541571854167,172.96852896458336,69.0,90.0
215,173.1164756854167,173.39576286250002,69.0,88.0
216,173.4787941854167,173.7278881541667,67.0,92.0
217,173.8411126854167,174.165689675,67.0,91.0
218,174.2034311854167,174.51291157083335,65.0,92.0
219,174.56574968541668,176.1508931229167,69.0,92.0
220,176.9208199354167,177.0204575229167,60.0,96.0
221,177.1019791854167,177.20161677291668,60.0,96.0
222,177.2831384354167,177.39787262708336,60.0,90.0
223,177.46429768541668,177.8266161854167,74.0,99.0
224,177.8266161854167,178.11496132500002,72.0,90.0
225,178.18893468541668,178.47727982500004,72.0,92.0
226,178.5512531854167,178.76562496458337,69.0,90.0
227,178.91357168541668,179.19285886250003,69.0,88.0
228,179.2758901854167,179.5249841541667,67.0,92.0
229,179.63820868541669,179.96278567500002,67.0,91.0
230,180.0005271854167,180.31000757083336,65.0,92.0
231,180.3628456854167,181.94798912291668,67.0,92.0
232,183.2613936854167,183.55577746666668,67.0,93.0
233,183.6237121854167,183.90299936250003,67.0,93.0
234,183.9860306854167,184.25173091875,67.0,96.0
235,184.34834918541668,184.64575228750002,69.0,96.0
236,184.7106676854167,185.12129531875001,72.0,96.0
237,185.0729861854167,185.80064250625003,69.0,90.0
238,185.9787824354167,186.1463547416667,72.0,88.0
239,186.1599416854167,186.5403761104167,74.0,94.0
240,186.52226018541668,186.91477189375001,72.0,95.0
241,186.8845786854167,187.31785122500003,69.0,94.0
242,187.24689718541669,187.6092156854167,67.0,87.0
243,187.6092156854167,188.81694401875004,65.0,93.0
244,188.6961711854167,189.04188342083336,62.0,94.0
245,189.0584896854167,189.97636321875,60.0,96.0
246,190.1454451854167,190.4126550791667,74.0,99.0
247,190.5077636854167,190.76440595625002,72.0,92.0
248,190.8700821854167,191.14031140000003,74.0,99.0
249,191.23240068541668,191.52225548541668,69.0,93.0
250,191.5947191854167,191.89212228750003,67.0,92.0
251,191.9570376854167,194.71367760625003,65.0,95.0
252,194.8555856854167,195.14996946666668,67.0,93.0
253,195.2179041854167,195.49719136250002,67.0,93.0
254,195.5802226854167,195.84592291875003,67.0,96.0
255,195.9425411854167,196.2399442875,69.0,96.0
256,196.30485968541672,196.71548731875004,72.0,96.0
257,196.66717818541667,197.39483450625005,69.0,90.0
258,197.5729744354167,197.7405467416667,72.0,88.0
259,197.7541336854167,198.1345681104167,74.0,94.0
260,198.11645218541668,198.50896389375004,72.0,95.0
261,198.4787706854167,198.91204322500005,69.0,94.0
262,198.8410891854167,199.2034076854167,67.0,87.0
263,199.2034076854167,200.41113601875003,65.0,93.0
264,200.2903631854167,200.63607542083338,62.0,94.0
265,200.6526816854167,201.57055521875003,60.0,96.0
266,202.10044602500002,202.59259532083337,74.0,99.0
267,202.59410498125004,203.20853677083335,72.0,96.0
268,203.17683390208336,203.76711112500004,74.0,101.0
269,203.77164010625003,204.4660838979167,69.0,94.0
270,204.39211053750003,205.73117932708337,67.0,92.0
271,205.69947645833338,209.5928906729167,65.0,94.0
