,start,end,pitch,velocity
0,27.085178829166665,27.51237685208333,62.0,99.0
1,27.744519829166663,28.046717787499997,62.0,96.0
2,28.07419032916666,28.29122340833333,60.0,78.0
3,28.403860829166664,28.844795122916665,62.0,96.0
4,29.063201829166662,29.364026160416664,62.0,86.0
5,29.392872329166664,29.697817541666662,60.0,69.0
6,29.722542829166663,30.185455156249997,62.0,72.0
7,30.381883829166664,30.894246731249996,65.0,97.0
8,31.041224829166662,31.553587731249998,58.0,96.0
9,32.35990682916666,32.761005937499995,62.0,81.0
10,33.019247829166666,33.366775481249995,62.0,93.0
11,33.348918329166665,33.6346327625,60.0,60.0
12,33.678588829166664,34.22254515416666,62.0,74.0
13,34.33792982916666,34.804963037499995,65.0,95.0
14,34.99727082916666,35.42584247916666,63.0,93.0
15,35.656611829166664,35.92721636458333,62.0,88.0
16,35.98628232916666,36.30221655833333,58.0,89.0
17,36.31595282916666,36.94644766041666,60.0,81.0
18,37.634634829166664,38.00688776875,58.0,88.0
19,38.29397582916666,38.47392097708333,67.0,99.0
20,38.62364632916666,38.81458049374999,67.0,90.0
21,38.95331682916666,39.270624685416664,67.0,102.0
22,39.612657829166665,39.791229349999995,58.0,99.0
23,39.94232832916666,40.170350424999995,58.0,89.0
24,40.27199882916666,40.642878141666664,57.0,88.0
25,40.93133982916666,41.51650496666666,67.0,102.0
26,41.590680829166665,42.30771416666666,65.0,92.0
27,42.57969232916666,42.73216493541666,65.0,85.0
28,42.90936282916666,43.20194539791666,63.0,88.0
29,43.23903332916666,43.58106647291666,62.0,78.0
30,43.56870382916666,43.91485785416666,63.0,88.0
31,43.898374329166664,44.250022862499996,62.0,69.0
32,44.22804482916666,44.958814437499996,63.0,83.0
33,45.21705632916666,45.403869612499996,58.0,89.0
34,45.54672682916666,46.10029854374999,58.0,99.0
35,46.20606782916666,46.887386862499994,62.0,95.0
36,46.86540882916666,47.92310168333333,60.0,95.0
37,48.184090829166664,48.561838277083325,62.0,96.0
38,48.84343182916666,49.083816568749995,62.0,96.0
39,49.17310232916666,49.563212420833324,60.0,58.0
40,49.50277282916666,49.93821261458333,62.0,82.0
41,50.162113829166664,50.50826785416666,62.0,89.0
42,50.49178432916666,50.803597677083324,60.0,72.0
43,50.82145482916666,51.31321332499999,62.0,78.0
44,51.48079582916666,51.95332354583333,65.0,97.0
45,52.14013682916666,52.79123606666666,58.0,93.0
46,53.45881882916666,53.84892892083332,62.0,95.0
47,54.11815982916666,54.467061108333326,62.0,93.0
48,54.44783032916666,54.75277554166666,60.0,77.0
49,54.77750082916666,55.278874714583324,62.0,88.0
50,55.43684182916666,55.96019374791666,65.0,96.0
51,56.09618282916666,56.625029256249995,63.0,93.0
52,56.75552382916666,56.87915026666666,62.0,92.0
53,57.08519432916666,57.362666999999995,58.0,89.0
54,57.41486482916666,58.23629382499999,60.0,92.0
55,58.73354682916666,59.28574491666666,58.0,100.0
56,59.39288782916666,59.56184396041666,67.0,99.0
57,59.72255832916666,59.86678917291666,67.0,93.0
58,60.05222882916666,60.55634996874999,67.0,99.0
59,60.711569829166656,61.27200967916666,58.0,102.0
60,61.37091082916666,62.02887820208333,57.0,99.0
61,62.03025182916666,62.56184551041666,67.0,107.0
62,62.689592829166656,63.33519755833333,65.0,90.0
63,63.67860432916666,63.78986812291666,65.0,100.0
64,64.00827482916665,64.32283543125,63.0,117.0
65,64.33794532916666,64.64563779583332,62.0,92.0
66,64.66761582916666,65.04536327708333,63.0,95.0
67,64.99728632916666,65.30635242291666,62.0,90.0
68,65.32695682916666,65.85305600208332,63.0,93.0
69,66.31596832916667,66.60030913541667,62.0,88.0
70,66.64563882916666,67.15525447708333,63.0,99.0
71,67.30497982916665,67.84206801875,67.0,100.0
72,67.96432082916665,68.16761763749999,65.0,99.0
73,68.29399132916666,68.41074963124998,65.0,99.0
74,68.62366182916666,68.83932128125,67.0,96.0
75,68.95333232916666,69.10855218958332,69.0,92.0
76,69.28300282916666,69.78437671458333,70.0,122.0
77,69.94234382916666,70.42998144375,69.0,122.0
78,70.60168482916666,71.18822359375,67.0,112.0
79,71.26102582916666,71.60992710833332,65.0,99.0
80,71.92036682916665,72.33520220833333,65.0,112.0
81,72.57970782916665,72.83520246666666,62.0,86.0
82,72.90937832916666,73.15388395,60.0,90.0
83,73.23904882916666,73.75827986666665,58.0,95.0
84,73.89838982916666,74.10992839999999,67.0,100.0
85,74.22806032916665,74.37641205416666,69.0,102.0
86,74.55773082916666,74.9917969875,70.0,122.0
87,75.21707182916666,75.45196206041666,69.0,100.0
88,75.54674232916666,75.72806110416666,70.0,117.0
89,75.87641282916665,76.33657790208332,72.0,122.0
90,76.53575382916665,77.05361123958332,65.0,102.0
91,77.19509482916666,78.93273308958332,74.0,122.0
92,79.17311782916666,79.35031572291666,67.0,97.0
93,79.50278832916666,79.67037083333332,69.0,102.0
94,79.83245882916665,80.32284369791665,70.0,127.0
95,80.49179982916665,80.97256930833332,69.0,112.0
96,81.15114082916665,81.61542678333332,67.0,112.0
97,81.81048182916666,82.15114134583332,65.0,102.0
98,82.46982282916666,82.82421861666666,65.0,112.0
99,83.12916382916666,83.37366945,62.0,127.0
100,83.45883432916666,83.63603222291665,60.0,90.0
101,83.78850482916665,84.2060874625,58.0,107.0
102,84.44784582916665,84.59345029999999,60.0,99.0
103,84.77751632916666,84.90114276666665,62.0,92.0
104,85.10718682916665,85.48905515833333,63.0,112.0
105,85.76652782916666,85.90938504583332,55.0,93.0
106,86.09619832916665,86.23630829166666,55.0,90.0
107,86.42586882916666,86.92449546041665,57.0,99.0
108,87.08520982916666,87.63191340833332,60.0,99.0
109,87.74455082916666,89.31185933124999,58.0,99.0
110,89.39290332916666,89.50966163124998,65.0,99.0
111,89.72257382916665,89.93823328124999,67.0,96.0
112,90.05224432916665,90.20746418958332,69.0,92.0
113,90.38191482916666,90.88328871458332,70.0,122.0
114,91.04125582916666,91.52889344375,69.0,122.0
115,91.70059682916666,92.28713559375,67.0,112.0
116,92.35993782916665,92.70883910833332,65.0,99.0
117,93.01927882916665,93.43411420833333,65.0,112.0
118,93.67861982916665,93.93411446666666,62.0,86.0
119,94.00829032916666,94.25279594999999,60.0,90.0
120,94.33796082916666,94.85719186666665,58.0,95.0
121,94.99730182916666,95.20884039999999,67.0,100.0
122,95.32697232916665,95.47532405416665,69.0,102.0
123,95.65664282916666,96.0907089875,70.0,122.0
124,96.31598382916665,96.55087406041666,69.0,100.0
125,96.64565432916666,96.82697310416665,70.0,117.0
126,96.97532482916665,97.43548990208332,72.0,122.0
127,97.63466582916665,98.15252323958332,65.0,102.0
128,98.29400682916665,100.03164508958332,74.0,122.0
129,100.27202982916666,100.44922772291666,67.0,97.0
130,100.60170032916666,100.76928283333332,69.0,102.0
131,100.93137082916665,101.42175569791665,70.0,127.0
132,101.59071182916665,102.07148130833332,69.0,112.0
133,102.25005282916665,102.71433878333332,67.0,112.0
134,102.90939382916666,103.25005334583332,65.0,102.0
135,103.56873482916666,103.92313061666665,65.0,112.0
136,104.22807582916666,104.47258144999999,62.0,127.0
137,104.55774632916665,104.73494422291665,60.0,90.0
138,104.88741682916665,105.30499946249999,58.0,107.0
139,105.54675782916665,105.69236229999998,60.0,99.0
140,105.87642832916666,106.00005476666665,62.0,92.0
141,106.20609882916665,106.58796715833331,63.0,112.0
142,106.86543982916665,107.00829704583332,55.0,93.0
143,107.19511032916665,107.33522029166666,55.0,90.0
144,107.52478082916666,108.02340746041665,57.0,99.0
145,108.18412182916666,108.73082540833332,60.0,99.0
146,108.84346282916665,110.41077133124999,58.0,99.0
147,132.57973882916664,133.00693685208333,62.0,99.0
148,133.23907982916666,133.54127778749998,62.0,96.0
149,133.56875032916665,133.78578340833332,60.0,78.0
150,133.89842082916664,134.33935512291666,62.0,96.0
151,134.55776182916665,134.85858616041665,62.0,86.0
152,134.88743232916664,135.19237754166664,60.0,69.0
153,135.21710282916666,135.68001515625,62.0,72.0
154,135.87644382916665,136.38880673124999,65.0,97.0
155,136.53578482916666,137.04814773125,58.0,96.0
156,137.85446682916665,138.2555659375,62.0,81.0
157,138.51380782916664,138.86133548125,62.0,93.0
158,138.84347832916666,139.1291927625,60.0,60.0
159,139.17314882916665,139.71710515416666,62.0,74.0
160,139.83248982916666,140.2995230375,65.0,95.0
161,140.49183082916664,140.92040247916665,63.0,93.0
162,141.15117182916666,141.4217763645833,62.0,88.0
163,141.48084232916665,141.7967765583333,58.0,89.0
164,141.81051282916664,142.44100766041666,60.0,81.0
165,143.12919482916664,143.50144776874998,58.0,88.0
166,143.78853582916665,143.96848097708332,67.0,99.0
167,144.11820632916664,144.30914049375,67.0,90.0
168,144.44787682916666,144.76518468541664,67.0,102.0
169,145.10721782916664,145.28578935,58.0,99.0
170,145.43688832916664,145.664910425,58.0,89.0
171,145.76655882916666,146.13743814166665,57.0,88.0
172,146.42589982916664,147.01106496666665,67.0,102.0
173,147.08524082916665,147.80227416666665,65.0,92.0
174,148.07425232916665,148.22672493541666,65.0,85.0
175,148.40392282916665,148.69650539791664,63.0,88.0
176,148.73359332916664,149.07562647291664,62.0,78.0
177,149.06326382916666,149.40941785416666,63.0,88.0
178,149.39293432916665,149.74458286249998,62.0,69.0
179,149.72260482916664,150.45337443749997,63.0,83.0
180,150.71161632916665,150.8984296125,58.0,89.0
181,151.04128682916664,151.59485854374998,58.0,99.0
182,151.70062782916665,152.38194686249997,62.0,95.0
183,152.35996882916666,153.4176616833333,60.0,95.0
184,153.67865082916666,154.0563982770833,62.0,96.0
185,154.33799182916664,154.57837656874997,62.0,96.0
186,154.66766232916666,155.05777242083332,60.0,58.0
187,154.99733282916665,155.4327726145833,62.0,82.0
188,155.65667382916664,156.00282785416664,62.0,89.0
189,155.98634432916666,156.2981576770833,60.0,72.0
190,156.31601482916665,156.80777332499997,62.0,78.0
191,156.97535582916666,157.44788354583332,65.0,97.0
192,157.63469682916664,158.28579606666665,58.0,93.0
193,158.95337882916664,159.34348892083332,62.0,95.0
194,159.61271982916665,159.9616211083333,62.0,93.0
195,159.94239032916664,160.24733554166664,60.0,77.0
196,160.27206082916663,160.77343471458332,62.0,88.0
197,160.93140182916665,161.45475374791664,65.0,96.0
198,161.59074282916666,162.11958925624998,63.0,93.0
199,162.25008382916664,162.37371026666665,62.0,92.0
200,162.57975432916663,162.85722699999997,58.0,89.0
201,162.90942482916665,163.73085382499997,60.0,92.0
202,164.22810682916665,164.78030491666664,58.0,100.0
203,164.88744782916666,165.05640396041665,67.0,99.0
204,165.21711832916665,165.36134917291665,67.0,93.0
205,165.54678882916664,166.05090996874998,67.0,99.0
206,166.20612982916666,166.76656967916665,58.0,102.0
207,166.86547082916664,167.52343820208333,57.0,99.0
208,167.52481182916665,168.05640551041665,67.0,107.0
209,168.18415282916664,168.8297575583333,65.0,90.0
210,169.17316432916664,169.28442812291664,65.0,100.0
211,169.50283482916666,169.81739543125,63.0,117.0
212,169.83250532916665,170.1401977958333,62.0,92.0
213,170.16217582916664,170.53992327708332,63.0,95.0
214,170.49184632916663,170.80091242291664,62.0,90.0
215,170.82151682916665,171.3476160020833,63.0,93.0
216,171.81052832916666,172.09486913541664,62.0,88.0
217,172.14019882916665,172.6498144770833,63.0,99.0
218,172.79953982916663,173.33662801875,67.0,100.0
219,173.45888082916665,173.66217763749998,65.0,99.0
220,173.78855132916664,173.90530963125,65.0,99.0
221,174.11822182916666,174.33388128124997,67.0,96.0
222,174.44789232916665,174.6031121895833,69.0,92.0
223,174.77756282916664,175.27893671458332,70.0,122.0
224,175.43690382916665,175.92454144374997,69.0,122.0
225,176.09624482916664,176.68278359374997,67.0,112.0
226,176.75558582916665,177.1044871083333,65.0,99.0
227,177.41492682916663,177.8297622083333,65.0,112.0
228,178.07426782916664,178.32976246666664,62.0,86.0
229,178.40393832916664,178.64844394999997,60.0,90.0
230,178.73360882916666,179.25283986666665,58.0,95.0
231,179.39294982916664,179.60448839999998,67.0,100.0
232,179.72262032916663,179.87097205416666,69.0,102.0
233,180.05229082916665,180.4863569875,70.0,122.0
234,180.71163182916663,180.94652206041664,69.0,100.0
235,181.04130232916665,181.22262110416665,70.0,117.0
236,181.37097282916665,181.8311379020833,72.0,122.0
237,182.03031382916666,182.5481712395833,65.0,102.0
238,182.68965482916664,184.42729308958332,74.0,122.0
239,184.66767782916665,184.84487572291664,67.0,97.0
240,184.99734832916664,185.1649308333333,69.0,102.0
241,185.32701882916663,185.81740369791663,70.0,127.0
242,185.98635982916664,186.4671293083333,69.0,112.0
243,186.64570082916666,187.1099867833333,67.0,112.0
244,187.30504182916664,187.64570134583332,65.0,102.0
245,187.96438282916665,188.31877861666663,65.0,112.0
246,188.62372382916664,188.86822944999997,62.0,127.0
247,188.95339432916666,189.13059222291665,60.0,90.0
248,189.28306482916665,189.70064746249997,58.0,107.0
249,189.94240582916663,190.08801029999998,60.0,99.0
250,190.27207632916665,190.39570276666663,62.0,92.0
251,190.60174682916664,190.98361515833332,63.0,112.0
252,191.26108782916666,191.4039450458333,55.0,93.0
253,191.59075832916665,191.73086829166664,55.0,90.0
254,191.92042882916664,192.41905546041664,57.0,99.0
255,192.57976982916665,193.1264734083333,60.0,99.0
256,193.23911082916663,194.80641933124997,58.0,99.0
257,194.88746332916665,195.00422163124998,65.0,99.0
258,195.21713382916664,195.43279328124999,67.0,96.0
259,195.54680432916663,195.7020241895833,69.0,92.0
260,195.87647482916665,196.3778487145833,70.0,122.0
261,196.53581582916664,197.02345344375,69.0,122.0
262,197.19515682916665,197.78169559375,67.0,112.0
263,197.85449782916663,198.20339910833331,65.0,99.0
264,198.51383882916664,198.92867420833332,65.0,112.0
265,199.17317982916666,199.42867446666665,62.0,86.0
266,199.50285032916665,199.74735594999999,60.0,90.0
267,199.83252082916664,200.35175186666663,58.0,95.0
268,200.49186182916665,200.70340039999996,67.0,100.0
269,200.82153232916664,200.96988405416664,69.0,102.0
270,201.15120282916664,201.58526898749997,70.0,122.0
271,201.81054382916665,202.04543406041665,69.0,100.0
272,202.14021432916664,202.32153310416663,70.0,117.0
273,202.46988482916663,202.9300499020833,72.0,122.0
274,203.12922582916664,203.6470832395833,65.0,102.0
275,203.78856682916665,205.5262050895833,74.0,122.0
276,205.76658982916663,205.94378772291665,67.0,97.0
277,206.09626032916665,206.2638428333333,69.0,102.0
278,206.42593082916665,206.91631569791664,70.0,127.0
279,207.08527182916663,207.5660413083333,69.0,112.0
280,207.74461282916664,208.2088987833333,67.0,112.0
281,208.40395382916665,208.7446133458333,65.0,102.0
282,209.06329482916664,209.41769061666665,65.0,112.0
283,209.72263582916665,209.96714144999999,74.0,127.0
284,210.05230632916664,210.22950422291663,72.0,90.0
285,210.38197682916663,210.79955946249999,70.0,107.0
286,211.04131782916664,211.18692229999996,60.0,99.0
287,211.37098832916664,211.49461476666664,62.0,92.0
288,211.70065882916663,212.0825271583333,63.0,112.0
289,212.35999982916664,212.5028570458333,55.0,93.0
290,212.68967032916663,212.82978029166665,55.0,90.0
291,213.01934082916665,213.51796746041663,57.0,99.0
292,213.67868182916663,214.2253854083333,60.0,99.0
293,214.33802282916665,215.90533133124998,58.0,99.0
294,215.98637532916663,216.10313363124996,65.0,99.0
295,216.31604582916665,216.53170528124997,67.0,96.0
296,216.64571632916665,216.8009361895833,69.0,92.0
297,216.97596680416666,217.4829115020833,70.0,122.0
298,217.64263380416665,218.13568960624997,69.0,122.0
299,218.3098937625,218.90961259374998,67.0,112.0
300,218.985912525,219.35509835,65.0,99.0
301,219.68358652499998,220.12253975,65.0,112.0
302,220.381260525,220.6516092,62.0,86.0
303,220.730097525,220.9888183,60.0,90.0
304,221.07647980416667,221.60148006666665,58.0,95.0
305,221.74314680416666,221.9570358,67.0,100.0
306,222.07648030416667,222.22648037916665,69.0,102.0
307,222.40981380416665,222.8487029125,70.0,122.0
308,223.07648080416666,223.31398092291664,69.0,100.0
309,223.40981430416664,223.59314772916665,70.0,117.0
310,223.74314780416665,224.2084258145833,72.0,122.0
311,224.40981480416664,224.93342617708333,65.0,102.0
312,225.07648180416666,226.83342712708333,74.0,122.0
313,227.07648280416666,227.25564956041666,67.0,97.0
314,227.40981630416664,227.5792608333333,69.0,102.0
315,227.74314980416665,228.23898338541665,70.0,127.0
316,228.40981680416667,228.89592815833333,69.0,112.0
317,229.07590382916663,229.54018978333332,67.0,112.0
318,229.73524482916665,230.07590434583332,65.0,102.0
319,230.39458582916663,230.74898161666664,65.0,112.0
320,231.05392682916664,231.4522786833333,74.0,117.0
321,231.38359732916663,231.65557549166664,72.0,102.0
322,231.71326782916665,232.0127185333333,70.0,107.0
323,232.37260882916664,232.51821329999999,60.0,99.0
324,232.70227932916663,232.82590576666664,62.0,92.0
325,233.03194982916665,233.4138181583333,63.0,112.0
326,233.69129082916663,233.8341480458333,55.0,93.0
327,234.02096132916665,234.16107129166664,55.0,90.0
328,234.35063182916664,234.84925846041665,57.0,99.0
329,235.00997282916663,235.55667640833332,60.0,99.0
330,235.66931382916664,237.23662233124998,58.0,99.0
331,237.64733682916665,237.79294129999997,60.0,99.0
332,237.97700732916664,238.10063376666665,62.0,92.0
333,238.31385499999996,238.74822999999998,63.0,112.0
334,239.07644970416663,239.2734194208333,55.0,93.0
335,239.53099520416663,239.72417704166665,55.0,90.0
336,240.00857099999996,240.91607099999996,57.0,99.0
337,241.23232099999996,242.47607099999996,60.0,99.0
338,242.73232099999996,246.29794599999994,58.0,99.0
