,start,end,pitch,velocity
0,22.730022127083334,23.06246848125,65.0,85.0
1,23.049170627083335,23.394914835416667,67.0,66.0
2,23.368319127083332,24.285871064583333,70.0,95.0
3,24.325764627083334,24.56246643125,72.0,88.0
4,24.644913127083335,24.9653914125,74.0,96.0
5,25.283210127083333,25.473369441666666,77.0,97.0
6,25.602358627083333,25.761932877083332,77.0,92.0
7,25.921507127083334,26.470708504166666,79.0,102.0
8,26.878952627083333,27.015920525,77.0,90.0
9,27.198101127083333,27.494643275,74.0,93.0
10,27.836398127083335,28.106344566666667,74.0,88.0
11,28.155546627083332,28.449429204166666,72.0,92.0
12,28.474695127083333,29.1302793375,70.0,89.0
13,29.43214062708333,29.562459597916668,70.0,112.0
14,29.751289127083332,29.909533591666666,70.0,100.0
15,30.070437627083333,30.220703379166668,67.0,83.0
16,30.389586127083334,30.620968789583333,67.0,97.0
17,30.708734627083334,30.922830079166665,70.0,93.0
18,31.02788312708333,32.60633841666667,72.0,97.0
19,32.94277412708333,33.10234837708333,65.0,90.0
20,33.26192262708334,33.4068692375,67.0,85.0
21,33.581071127083334,34.038517310416665,70.0,102.0
22,34.53851662708333,34.67149516875,72.0,102.0
23,34.85766512708334,35.10766478541667,74.0,117.0
24,35.49596212708333,35.634259810416665,77.0,107.0
25,35.815110627083335,35.95606788125,77.0,92.0
26,36.13425912708333,36.90021552708333,79.0,107.0
27,37.09170462708333,37.293832010416665,77.0,117.0
28,37.410853127083335,37.65420385833333,74.0,102.0
29,38.04915012708333,38.34968163125,74.0,112.0
30,38.368298627083334,38.60633021666666,72.0,96.0
31,38.68744712708333,39.376275972916666,70.0,97.0
32,39.64489262708333,39.78584988125,70.0,107.0
33,39.964041127083334,40.16749829583333,70.0,112.0
34,40.28318962708333,40.573082847916666,67.0,96.0
35,40.602338127083335,40.89223134791666,67.0,82.0
36,40.92148662708333,41.187443710416666,65.0,90.0
37,41.24063512708333,41.90153847916667,70.0,102.0
38,43.155526127083334,43.34302587083333,70.0,112.0
39,43.47467462708333,43.67281265416667,70.0,100.0
40,43.793823127083336,44.558449741666664,72.0,112.0
41,44.751268627083334,45.05312991666667,70.0,102.0
42,45.07041712708333,45.43477833125,72.0,97.0
43,45.70871412708333,45.94541593125,74.0,95.0
44,46.02786262708333,46.2366389375,75.0,100.0
45,46.347011127083334,47.115627097916665,77.0,102.0
46,47.30445662708333,47.56243499791667,79.0,107.0
47,47.62360512708333,47.9361047,77.0,102.0
48,48.26190212708333,48.50658264375,74.0,102.0
49,48.581050627083336,48.91083741041667,77.0,100.0
50,48.90019912708333,49.6595066,79.0,97.0
51,49.85764462708333,50.01987844791667,79.0,107.0
52,50.176793127083336,50.370941797916664,79.0,127.0
53,50.81509012708333,51.05977064375,77.0,112.0
54,51.134238627083334,51.335036225,74.0,100.0
55,51.45338712708333,52.095673483333336,72.0,102.0
56,52.41083262708333,52.68210885208333,70.0,100.0
57,52.729981127083335,52.98397014166667,72.0,112.0
58,53.368278127083336,53.574394866666665,65.0,93.0
59,53.68742662708333,53.94806456875,67.0,92.0
60,54.00657512708333,54.47864895,70.0,102.0
61,54.964020627083336,55.106307666666666,72.0,112.0
62,55.28316912708333,55.50391350625,74.0,112.0
63,55.921466127083335,56.05710423958333,77.0,117.0
64,56.24061462708333,56.4174760875,77.0,97.0
65,56.559763127083336,57.272528110416665,79.0,127.0
66,57.517208627083335,57.683431804166666,77.0,99.0
67,57.83635712708333,58.046463222916664,74.0,122.0
68,58.47465412708333,58.74327078125,74.0,117.0
69,58.79380262708333,59.0344937875,72.0,100.0
70,59.112951127083335,59.85098203333333,70.0,122.0
71,60.07039662708333,60.22332195,70.0,127.0
72,60.38954512708333,60.59965122291667,70.0,127.0
73,60.708693627083335,60.90550186875,67.0,97.0
74,61.02784212708333,61.28316092708333,67.0,93.0
75,61.346990627083336,61.614277495833335,65.0,83.0
76,61.66613912708333,63.22863699166667,70.0,122.0
77,76.34697012708334,76.67941648125,65.0,85.0
78,76.66611862708334,77.01186283541666,67.0,66.0
79,76.98526712708333,77.90281906458333,70.0,95.0
80,77.94271262708334,78.17941443125,72.0,88.0
81,78.26186112708334,78.5823394125,74.0,96.0
82,78.90015812708333,79.09031744166667,77.0,97.0
83,79.21930662708333,79.37888087708333,77.0,92.0
84,79.53845512708334,80.08765650416666,79.0,102.0
85,80.49590062708333,80.632868525,77.0,90.0
86,80.81504912708333,81.111591275,74.0,93.0
87,81.45334612708334,81.72329256666667,74.0,88.0
88,81.77249462708333,82.06637720416667,72.0,92.0
89,82.09164312708333,82.7472273375,70.0,89.0
90,83.04908862708334,83.17940759791666,70.0,112.0
91,83.36823712708333,83.52648159166667,70.0,100.0
92,83.68738562708333,83.83765137916667,67.0,83.0
93,84.00653412708333,84.23791678958334,67.0,97.0
94,84.32568262708334,84.53977807916667,70.0,93.0
95,84.64483112708334,86.22328641666667,72.0,97.0
96,86.55972212708333,86.71929637708334,65.0,90.0
97,86.87887062708333,87.0238172375,67.0,85.0
98,87.19801912708333,87.65546531041667,70.0,102.0
99,88.15546462708333,88.28844316874999,72.0,102.0
100,88.47461312708333,88.72461278541667,74.0,117.0
101,89.11291012708334,89.25120781041666,77.0,107.0
102,89.43205862708334,89.57301588125,77.0,92.0
103,89.75120712708333,90.51716352708333,79.0,107.0
104,90.70865262708334,90.91078001041667,77.0,117.0
105,91.02780112708334,91.27115185833333,74.0,102.0
106,91.66609812708333,91.96662963125,74.0,112.0
107,91.98524662708333,92.22327821666667,72.0,96.0
108,92.30439512708334,92.99322397291667,70.0,97.0
109,93.26184062708333,93.40279788125,70.0,107.0
110,93.58098912708333,93.78444629583333,70.0,112.0
111,93.90013762708334,94.19003084791666,67.0,96.0
112,94.21928612708334,94.50917934791667,67.0,82.0
113,94.53843462708333,94.80439171041667,65.0,90.0
114,94.85758312708333,95.51848647916667,70.0,102.0
115,96.77247412708333,96.95997387083334,70.0,112.0
116,97.09162262708334,97.28976065416667,70.0,100.0
117,97.41077112708334,98.17539774166667,72.0,112.0
118,98.36821662708333,98.67007791666667,70.0,102.0
119,98.68736512708334,99.05172633125,72.0,97.0
120,99.32566212708333,99.56236393125,74.0,95.0
121,99.64481062708333,99.8535869375,75.0,100.0
122,99.96395912708333,100.73257509791667,77.0,102.0
123,100.92140462708333,101.17938299791666,79.0,107.0
124,101.24055312708333,101.5530527,77.0,102.0
125,101.87885012708334,102.12353064375,74.0,102.0
126,102.19799862708334,102.52778541041667,77.0,100.0
127,102.51714712708333,103.2764546,79.0,97.0
128,103.47459262708334,103.63682644791666,79.0,107.0
129,103.79374112708334,103.98788979791667,79.0,127.0
130,104.43203812708333,104.67671864375,77.0,112.0
131,104.75118662708333,104.951984225,74.0,100.0
132,105.07033512708334,105.71262148333334,72.0,102.0
133,106.02778062708333,106.29905685208334,70.0,100.0
134,106.34692912708333,106.60091814166667,72.0,112.0
135,106.98522612708334,107.19134286666666,65.0,93.0
136,107.30437462708333,107.56501256874999,67.0,92.0
137,107.62352312708333,108.09559695,70.0,102.0
138,108.58096862708334,108.72325566666666,72.0,112.0
139,108.90011712708333,109.12086150625,74.0,112.0
140,109.53841412708333,109.67405223958333,77.0,117.0
141,109.85756262708334,110.0344240875,77.0,97.0
142,110.17671112708334,110.88947611041667,79.0,127.0
143,111.13415662708333,111.30037980416667,77.0,99.0
144,111.45330512708334,111.66341122291666,74.0,122.0
145,112.09160212708333,112.36021878125,74.0,117.0
146,112.41075062708333,112.6514417875,72.0,100.0
147,112.72989912708333,113.46793003333333,70.0,122.0
148,113.68734462708333,113.84026994999999,70.0,127.0
149,114.00649312708333,114.21659922291667,70.0,127.0
150,114.32564162708333,114.52244986875,67.0,97.0
151,114.64479012708333,114.90010892708334,67.0,93.0
152,114.96393862708334,115.23122549583333,65.0,83.0
153,115.28308712708333,116.84558499166667,70.0,122.0
154,117.19797812708333,117.53042448125,66.0,85.0
155,117.51712662708333,117.86287083541667,68.0,66.0
156,117.83627512708333,118.75382706458333,71.0,95.0
157,118.79372062708333,119.03042243125,73.0,88.0
158,119.11286912708333,119.4333474125,75.0,96.0
159,119.75116612708334,119.94132544166666,78.0,97.0
160,120.07031462708333,120.22988887708333,78.0,92.0
161,120.38946312708333,120.93866450416667,80.0,102.0
162,121.34690862708334,121.483876525,78.0,90.0
163,121.66605712708333,121.962599275,75.0,93.0
164,122.30435412708333,122.57430056666666,75.0,88.0
165,122.62350262708333,122.91738520416666,73.0,92.0
166,122.94265112708334,123.5982353375,71.0,89.0
167,123.90009662708333,124.03041559791667,71.0,112.0
168,124.21924512708333,124.37748959166666,71.0,100.0
169,124.53839362708334,124.68865937916667,68.0,83.0
170,124.85754212708333,125.08892478958333,68.0,97.0
171,125.17669062708333,125.39078607916666,71.0,93.0
172,125.49583912708333,127.07429441666666,73.0,97.0
173,127.41073012708333,127.57030437708333,66.0,90.0
174,127.72987862708334,127.8748252375,68.0,85.0
175,128.04902712708332,128.50647331041665,71.0,102.0
176,129.00647262708333,129.13945116874999,73.0,102.0
177,129.32562112708334,129.57562078541667,75.0,117.0
178,129.96391812708333,130.10221581041665,78.0,107.0
179,130.28306662708334,130.42402388125,78.0,92.0
180,130.60221512708333,131.36817152708332,80.0,107.0
181,131.55966062708333,131.76178801041667,78.0,117.0
182,131.87880912708334,132.12215985833333,75.0,102.0
183,132.51710612708334,132.81763763125,75.0,112.0
184,132.83625462708332,133.07428621666668,73.0,96.0
185,133.15540312708333,133.84423197291667,71.0,97.0
186,134.11284862708334,134.25380588125,71.0,107.0
187,134.43199712708332,134.63545429583334,71.0,112.0
188,134.75114562708333,135.04103884791667,68.0,96.0
189,135.07029412708334,135.36018734791668,68.0,82.0
190,135.38944262708333,135.65539971041667,66.0,90.0
191,135.70859112708334,136.36949447916666,71.0,102.0
192,137.62348212708332,137.81098187083333,71.0,112.0
193,137.94263062708333,138.14076865416666,71.0,100.0
194,138.26177912708334,139.02640574166668,73.0,112.0
195,139.21922462708332,139.52108591666666,71.0,102.0
196,139.53837312708333,139.90273433125,73.0,97.0
197,140.17667012708333,140.41337193125,75.0,95.0
198,140.49581862708334,140.7045949375,76.0,100.0
199,140.81496712708332,141.58358309791666,78.0,102.0
200,141.77241262708333,142.03039099791667,80.0,107.0
201,142.09156112708334,142.4040607,78.0,102.0
202,142.72985812708333,142.97453864375,75.0,102.0
203,143.04900662708334,143.37879341041668,78.0,100.0
204,143.36815512708333,144.1274626,80.0,97.0
205,144.32560062708333,144.48783444791667,80.0,107.0
206,144.64474912708334,144.83889779791667,80.0,127.0
207,145.28304612708334,145.52772664375,78.0,112.0
208,145.60219462708332,145.802992225,75.0,100.0
209,145.92134312708333,146.56362948333333,73.0,102.0
210,146.87878862708334,147.15006485208335,71.0,100.0
211,147.19793712708332,147.45192614166666,73.0,112.0
212,147.83623412708334,148.04235086666665,66.0,93.0
213,148.15538262708333,148.41602056874999,68.0,92.0
214,148.47453112708334,148.94660495,71.0,102.0
215,149.43197662708334,149.57426366666667,73.0,112.0
216,149.75112512708333,149.97186950625,75.0,112.0
217,150.38942212708332,150.52506023958333,78.0,117.0
218,150.70857062708333,150.8854320875,78.0,97.0
219,151.02771912708334,151.74048411041667,80.0,127.0
220,151.98516462708332,152.15138780416666,78.0,99.0
221,152.30431312708333,152.51441922291667,75.0,122.0
222,152.94261012708333,153.21122678125,75.0,117.0
223,153.26175862708334,153.5024497875,73.0,100.0
224,153.58090712708332,154.31893803333332,71.0,122.0
225,154.53835262708333,154.69127795,71.0,127.0
226,154.85750112708334,155.06760722291668,71.0,127.0
227,155.17664962708332,155.37345786875,68.0,97.0
228,155.49579812708333,155.75111692708333,68.0,93.0
229,155.81494662708334,156.08223349583332,66.0,83.0
230,156.13409512708333,157.69659299166668,71.0,122.0
