,start,end,pitch,velocity
0,42.3124323,45.53464936666666,69.0,69.0
1,42.3124323,45.54506601666667,73.0,69.0
2,45.6457603,48.7707553,68.0,68.0
3,45.6457603,48.80374135833333,71.0,73.0
4,48.9790883,52.15963876666667,69.0,65.0
5,48.9790883,52.164847091666665,73.0,63.0
6,52.312416299999995,53.66831690833333,74.0,76.0
7,52.312416299999995,53.68915020833333,69.0,72.0
8,53.9790803,55.40789745833333,71.0,66.0
9,53.9790803,55.546786125,76.0,73.0
10,55.6457443,58.005115525,73.0,70.0
11,55.6457443,58.22560128333333,69.0,72.0
12,58.1457403,58.6040729,73.0,81.0
13,58.5624063,59.019002791666665,69.0,76.0
14,58.9790723,61.390526775,71.0,75.0
15,61.479068299999994,62.060664591666665,71.0,74.0
16,62.3124003,64.67003541666666,66.0,65.0
17,62.3124003,64.713438125,69.0,73.0
18,64.8123963,65.43739529999999,69.0,76.0
19,65.2290623,65.65614495,66.0,69.0
20,65.6457283,66.43392148333334,69.0,72.0
21,62.3124003,67.3123923,88.0,81.0
22,67.72905829999999,67.8332248,86.0,81.0
23,67.8332248,67.9373913,85.0,81.0
24,67.9373913,68.04155779999999,83.0,81.0
25,68.04155779999999,68.1457243,81.0,81.0
26,66.4790603,68.14919651666666,69.0,80.0
27,68.1457243,68.2498908,78.0,81.0
28,68.2498908,68.3540573,76.0,81.0
29,68.3540573,68.4582238,74.0,81.0
30,68.4582238,68.56239029999999,73.0,81.0
31,68.56239029999999,68.6665568,71.0,81.0
32,68.6665568,68.7707233,69.0,81.0
33,68.7707233,68.87488979999999,68.0,81.0
34,68.87488979999999,68.9790563,66.0,81.0
35,68.9790563,69.18912540833333,76.0,82.0
36,68.9790563,69.70822179999999,64.0,81.0
37,69.8123883,69.95127696666667,71.0,84.0
38,70.2290543,70.30891528333333,76.0,91.0
39,70.2290543,70.32454025833333,71.0,81.0
40,71.0623863,71.1873861,71.0,78.0
41,71.47905229999999,71.62141318333333,71.0,80.0
42,71.47905229999999,71.6248854,76.0,83.0
43,71.8957183,72.03807918333332,71.0,79.0
44,73.1457163,73.27418831666667,76.0,82.0
45,73.1457163,73.27766053333333,71.0,80.0
46,74.3957143,74.515505775,71.0,84.0
47,74.8123803,74.92522734166667,76.0,84.0
48,74.8123803,74.94606064166666,71.0,83.0
49,75.2290463,75.35404609999999,71.0,87.0
50,74.81411640833333,75.61619845833333,69.0,80.0
51,75.60578180833333,75.817587025,71.0,93.0
52,75.6457123,75.817587025,71.0,95.0
53,75.6457123,75.82279534999999,75.0,95.0
54,76.06237829999999,76.24119745833333,71.0,96.0
55,76.4790443,76.63182183333333,71.0,79.0
56,76.4790443,76.64744680833333,75.0,80.0
57,76.89571029999999,77.02244620833333,71.0,81.0
58,77.7290423,77.85577820833333,71.0,81.0
59,78.1457083,78.25681923333333,75.0,86.0
60,78.1457083,78.27244420833333,71.0,84.0
61,78.9790403,79.38355354166666,66.0,80.0
62,78.9790403,79.41480349166666,78.0,71.0
63,79.6040393,80.0623719,80.0,81.0
64,79.6040393,80.08841352499999,68.0,82.0
65,80.2290383,80.75855134166666,69.0,63.0
66,80.2290383,80.76202355833333,81.0,80.0
67,80.8540373,81.348828175,71.0,78.0
68,80.8540373,81.36271704166666,83.0,81.0
69,81.47903629999999,81.76723028333333,84.0,83.0
70,81.47903629999999,81.78806358333333,72.0,80.0
71,81.88702175833333,82.02243820833333,69.0,79.0
72,81.98077160833333,82.10924362499999,71.0,79.0
73,81.8957023,82.22556288333332,83.0,79.0
74,82.09709086666666,82.30021554166666,72.0,79.0
75,82.3123683,82.35577100833333,66.0,80.0
76,82.3123683,82.38875706666666,71.0,80.0
77,82.7290343,82.838409125,66.0,70.0
78,83.1457003,83.23771404166666,66.0,74.0
79,83.1457003,83.27243620833333,71.0,81.0
80,83.5623663,83.67694945,66.0,66.0
81,83.9790323,84.07972658333333,66.0,76.0
82,83.9790323,84.09535155833333,71.0,81.0
83,84.39569829999999,84.505073125,66.0,67.0
84,84.8123643,84.92521134166667,66.0,80.0
85,84.8123643,84.94083631666666,71.0,84.0
86,82.31063219166666,85.1665304,63.0,82.0
87,85.22903029999999,85.34361344999999,66.0,76.0
88,84.8123643,85.6040297,68.0,80.0
89,85.6456963,85.7498628,74.0,77.0
90,85.6456963,85.755071125,69.0,77.0
91,86.06236229999999,86.18909820833333,69.0,76.0
92,86.4790283,86.58493090833333,74.0,81.0
93,86.4790283,86.59361145,69.0,80.0
94,86.8956943,87.03111075,69.0,75.0
95,87.3123603,87.40784625833334,74.0,82.0
96,87.3123603,87.421735125,69.0,82.0
97,87.7290263,87.85055388333333,69.0,80.0
98,87.70992910833333,88.11444234999999,65.0,81.0
99,85.62833521666666,88.23770604166667,60.0,76.0
100,88.1456923,88.24638658333333,74.0,81.0
101,88.1456923,88.26721988333333,69.0,81.0
102,88.14742840833333,88.26721988333333,69.0,81.0
103,88.5206917,88.95992710833333,71.0,81.0
104,88.97902429999999,89.11444075,65.0,70.0
105,88.97902429999999,89.119649075,72.0,70.0
106,89.3956903,89.49464847499999,65.0,71.0
107,89.3956903,89.51200955833333,72.0,73.0
108,89.81235629999999,89.92520334166666,65.0,81.0
109,89.81235629999999,89.93561999166666,72.0,82.0
110,90.2290223,90.32798047499999,65.0,83.0
111,90.2290223,90.35923042499999,72.0,83.0
112,90.64568829999999,90.7498548,65.0,85.0
113,90.64568829999999,90.7706881,72.0,85.0
114,88.93909380833333,90.87311849166666,69.0,70.0
115,91.0623543,91.18388188333333,65.0,80.0
116,91.0623543,91.21513183333333,72.0,80.0
117,90.60749391666667,91.35575660833332,67.0,83.0
118,91.4790203,91.60054788333333,65.0,80.0
119,91.484228625,91.60054788333333,65.0,80.0
120,91.4790203,91.61617285833333,72.0,80.0
121,91.8956863,92.00158890833333,72.0,80.0
122,91.8956863,92.005061125,65.0,80.0
123,92.72901829999999,92.89047637499999,71.0,68.0
124,92.72901829999999,92.90783745833333,76.0,73.0
125,93.1456843,93.26721188333333,71.0,79.0
126,93.1456843,93.27242020833333,76.0,81.0
127,93.56235029999999,93.67866955833333,71.0,82.0
128,93.56235029999999,93.67866955833333,76.0,82.0
129,93.9790163,94.09533555833333,71.0,82.0
130,93.9790163,94.098807775,76.0,82.0
131,94.39568229999999,94.5206821,71.0,82.0
132,94.39568229999999,94.52415431666667,76.0,82.0
133,93.890474775,94.70470958333333,64.0,82.0
134,94.77936224166666,94.93387588333333,71.0,82.0
135,94.8123483,94.93387588333333,71.0,82.0
136,94.8123483,94.93908420833333,76.0,82.0
137,95.22901429999999,95.34359744999999,76.0,82.0
138,95.22901429999999,95.348805775,71.0,82.0
139,95.6456803,95.880054925,81.0,82.0
140,96.0623463,96.307137575,76.0,82.0
141,96.4790123,96.69428973333333,76.0,82.0
142,96.4790123,96.69428973333333,81.0,82.0
143,96.8956783,97.07449745833333,76.0,82.0
144,97.31234429999999,97.499844,76.0,82.0
145,97.31234429999999,97.53283005833333,81.0,82.0
146,97.7290103,97.94775994999999,76.0,82.0
147,95.64220808333333,97.96859325,64.0,82.0
148,97.68387148333333,97.96859325,64.0,82.0
149,98.14567629999999,98.34532875833332,76.0,82.0
150,98.14567629999999,98.38699535833332,81.0,82.0
151,98.119634675,98.54845343333334,71.0,82.0
152,98.5623423,98.76720308333333,76.0,82.0
153,98.525884025,98.99289716666667,69.0,82.0
154,98.97900829999999,99.150883025,85.0,82.0
155,99.3956743,99.54324350833333,80.0,82.0
156,99.8123403,99.932131775,80.0,82.0
157,99.8123403,99.97206226666667,85.0,82.0
158,100.2290063,100.35400609999999,80.0,82.0
159,98.98248051666666,100.57622796666666,68.0,82.0
160,100.6456723,100.7706721,80.0,82.0
161,100.6456723,100.80886648333333,85.0,82.0
162,101.0623383,101.20469918333333,80.0,82.0
163,101.4790043,101.62657350833332,80.0,82.0
164,101.4790043,101.640462375,85.0,82.0
165,101.46164321666666,102.26372526666667,64.0,82.0
166,102.3123363,103.16823770833332,81.0,82.0
167,102.30539186666667,103.96511143333333,61.0,82.0
168,103.1456683,104.03629187499999,78.0,82.0
169,103.9790003,104.83663781666667,85.0,82.0
170,104.8123323,105.56406720833333,81.0,82.0
171,105.64566429999999,106.807120775,80.0,82.0
172,106.8956623,107.13698135833333,80.0,82.0
173,107.1039953,107.39913371666667,81.0,80.0
174,105.624831,107.63698055833333,59.0,82.0
175,107.31232829999999,107.78454976666666,80.0,87.0
176,105.62135878333333,107.97552168333333,64.0,82.0
177,107.7289943,107.9998272,76.0,81.0
178,108.14566029999999,108.786284275,76.0,94.0
179,108.9789923,109.15260313333333,85.0,87.0
180,109.3956583,109.51197755833333,85.0,80.0
181,109.8123243,110.19079591666666,85.0,85.0
182,110.6456563,110.765447775,81.0,71.0
183,110.6456563,110.79843383333333,85.0,81.0
184,111.06232229999999,111.21857204999999,85.0,87.0
185,111.4789883,112.03975129166666,85.0,86.0
186,112.3123203,113.09356905,85.0,87.0
187,113.1456523,113.90259553333333,83.0,84.0
188,113.9789843,114.86787176666667,81.0,84.0
189,114.81231629999999,115.380023725,80.0,87.0
190,115.64564829999999,115.98939775,78.0,76.0
191,115.64564829999999,116.00675883333332,74.0,74.0
192,116.47898029999999,116.72724379166667,74.0,80.0
193,116.47898029999999,116.73939655,78.0,81.0
194,117.31231229999999,117.51196475833333,74.0,81.0
195,117.31231229999999,117.51717308333333,78.0,82.0
196,117.7289783,117.88870026666666,78.0,76.0
197,117.7289783,117.89390859166666,74.0,76.0
198,118.1456443,118.33488010833332,78.0,75.0
199,118.1456443,118.36613005833333,81.0,82.0
200,118.5623103,118.70987950833333,76.0,74.0
201,118.5623103,118.74807389166666,80.0,74.0
202,119.39564229999999,119.51890599166666,80.0,70.0
203,119.39564229999999,119.53453096666667,76.0,73.0
204,119.8123083,119.932099775,76.0,79.0
205,119.8123083,119.93383588333333,80.0,82.0
206,120.22897429999999,120.38522404999999,76.0,78.0
207,120.22897429999999,120.38869626666666,80.0,85.0
208,120.6456403,120.74807069166665,80.0,83.0
209,120.6456403,120.755015125,76.0,80.0
210,121.4789723,121.93556879166665,76.0,80.0
211,121.4789723,121.95119376666666,80.0,82.0
212,122.3123043,122.546678925,81.0,84.0
213,122.7289703,122.973761575,76.0,84.0
214,123.14563629999999,123.36091373333333,76.0,83.0
215,123.14563629999999,123.36091373333333,81.0,83.0
216,123.5623023,123.74112145833332,76.0,72.0
217,123.97896829999999,124.166468,76.0,80.0
218,123.97896829999999,124.19945405833333,81.0,81.0
219,124.3956343,124.61438394999999,76.0,75.0
220,124.81230029999999,125.01195275833332,76.0,82.0
221,124.81230029999999,125.05361935833332,81.0,82.0
222,125.2289663,125.43382708333333,76.0,82.0
223,125.64563229999999,125.817507025,85.0,87.0
224,126.0622983,126.20986750833333,80.0,73.0
225,126.4789643,126.598755775,80.0,75.0
226,126.4789643,126.63868626666667,85.0,81.0
227,126.8956303,127.02063009999999,80.0,59.0
228,127.3122963,127.4372961,80.0,70.0
229,127.3122963,127.47549048333333,85.0,81.0
230,127.72896229999999,127.87132318333333,80.0,68.0
231,128.1456283,128.29319750833332,80.0,78.0
232,128.1456283,128.30708637499998,85.0,82.0
233,128.97896029999998,129.83486170833334,81.0,80.0
234,129.8122923,130.702915875,78.0,83.0
235,130.64562429999998,131.50326181666665,85.0,81.0
236,131.4789563,132.23069120833333,81.0,80.0
237,132.3122883,133.473744775,80.0,84.0
238,133.56228629999998,133.80360535833333,80.0,76.0
239,133.7706193,134.06575771666667,81.0,80.0
240,133.9789523,134.45117376666667,80.0,87.0
241,134.3956183,134.66645119999998,76.0,81.0
242,134.8122843,135.452908275,76.0,94.0
243,135.6456163,135.81922713333333,85.0,87.0
244,136.0622823,136.17860155833333,85.0,80.0
245,136.47894829999998,136.85741991666666,85.0,85.0
246,137.3122803,137.432071775,81.0,71.0
247,137.3122803,137.46505783333333,85.0,81.0
248,137.7289463,137.88519605,85.0,87.0
249,138.14561229999998,138.70637529166666,85.0,86.0
250,138.9789443,139.76019305,85.0,87.0
251,139.8122763,140.56921953333332,83.0,84.0
252,140.6456083,141.53449576666665,81.0,84.0
253,141.4789403,142.04664772499999,80.0,87.0
254,142.3122723,142.65602174999998,78.0,76.0
255,142.3122723,142.67338283333333,74.0,74.0
256,143.1456043,143.39386779166665,74.0,80.0
257,143.1456043,143.40602055,78.0,81.0
258,143.9789363,144.17858875833332,74.0,81.0
259,143.9789363,144.18379708333333,78.0,82.0
260,144.3956023,144.55532426666667,78.0,76.0
261,144.3956023,144.56053259166666,74.0,76.0
262,144.8122683,145.00150410833334,78.0,75.0
263,144.8122683,145.03275405833332,81.0,82.0
264,145.2289343,145.37650350833331,76.0,74.0
265,145.2289343,145.41469789166666,80.0,74.0
266,146.0622663,146.18552999166667,80.0,70.0
267,146.0622663,146.20115496666665,76.0,73.0
268,146.4789323,146.598723775,76.0,79.0
269,146.4789323,146.60045988333331,80.0,82.0
270,146.8955983,147.05184805,76.0,78.0
271,146.8955983,147.05532026666666,80.0,85.0
272,147.31226429999998,147.41469469166665,80.0,83.0
273,147.31226429999998,147.42163912499998,76.0,80.0
274,148.1455963,148.60219279166665,76.0,80.0
275,148.1455963,148.61781776666666,80.0,82.0
276,148.9789283,151.4789243,69.0,78.0
277,148.9789283,151.4789243,73.0,81.0
278,151.4789243,152.3122563,64.0,83.0
279,151.4789243,152.3122563,69.0,83.0
280,152.3122563,153.88169823333334,64.0,81.0
281,152.3122563,153.8955871,69.0,80.0
282,153.9789203,154.78968289166667,64.0,81.0
283,153.9789203,154.81225229999998,68.0,77.0
284,154.81225229999998,155.70982030833332,68.0,81.0
285,154.81225229999998,155.72023695833332,71.0,80.0
286,155.6455843,157.30009554166665,66.0,79.0
287,155.6455843,157.3122483,69.0,80.0
288,157.3122483,158.0414138,71.0,75.0
289,157.3122483,158.067455425,74.0,85.0
290,158.1455803,158.82960698333332,69.0,75.0
291,158.1455803,158.82960698333332,73.0,73.0
292,158.9789123,160.577868075,66.0,80.0
293,158.9789123,160.5900208333333,74.0,83.0
294,160.6455763,161.12821441666665,74.0,82.0
295,160.6455763,161.12821441666665,86.0,82.0
296,161.06224229999998,161.51710268333332,73.0,84.0
297,161.06224229999998,161.51710268333332,85.0,84.0
298,161.4789083,161.93550479166666,71.0,84.0
299,161.4789083,161.93550479166666,83.0,84.0
300,161.8955743,162.2098099083333,73.0,87.0
301,161.8955743,162.2098099083333,85.0,87.0
302,162.31224029999998,163.1455723,69.0,83.0
303,162.31224029999998,163.1455723,81.0,83.0
304,163.1455723,163.97890429999998,64.0,81.0
305,163.1455723,163.97890429999998,76.0,81.0
306,163.97890429999998,164.3955703,74.0,87.0
307,163.97890429999998,164.3955703,86.0,87.0
308,164.3955703,164.82959738333332,73.0,96.0
309,164.3955703,164.82959738333332,85.0,96.0
310,164.8122363,165.22716619166667,71.0,87.0
311,164.8122363,165.22716619166667,83.0,87.0
312,165.2289023,165.67681825,73.0,106.0
313,165.2289023,165.67681825,85.0,106.0
314,165.64556829999998,166.43549759166666,68.0,97.0
315,165.64556829999998,166.43549759166666,80.0,97.0
316,166.4789003,167.33827392499998,64.0,91.0
317,166.4789003,167.33827392499998,76.0,91.0
318,167.3122323,167.70980110833332,74.0,84.0
319,167.3122323,167.70980110833332,86.0,84.0
320,167.7288983,168.16292538333332,73.0,87.0
321,167.7288983,168.16292538333332,85.0,87.0
322,168.1455643,168.541397,71.0,82.0
323,168.1455643,168.541397,83.0,82.0
324,168.56223029999998,168.82438265833332,73.0,94.0
325,168.56223029999998,168.82438265833332,85.0,94.0
326,168.9788963,169.20979870833332,66.0,87.0
327,168.9788963,169.20979870833332,78.0,87.0
328,169.6038953,169.8295893833333,68.0,81.0
329,169.6038953,169.8295893833333,80.0,81.0
330,170.22889429999998,170.3330608,69.0,84.0
331,170.22889429999998,170.3330608,81.0,84.0
332,170.6455603,171.09521235833333,74.0,89.0
333,170.6455603,171.09521235833333,86.0,89.0
334,171.0622263,171.49798949166666,73.0,91.0
335,171.0622263,171.49798949166666,85.0,91.0
336,171.47889229999998,171.90597495,71.0,83.0
337,171.47889229999998,171.90597495,83.0,83.0
338,171.8955583,172.33479370833334,73.0,82.0
339,171.8955583,172.33479370833334,85.0,82.0
340,172.3122243,173.9788883,74.0,83.0
341,172.3122243,173.9788883,86.0,83.0
342,173.9788883,175.609094025,74.0,89.0
343,173.9788883,175.609094025,86.0,89.0
344,175.6455523,178.86776936666666,69.0,69.0
345,175.6455523,178.87818601666666,73.0,69.0
346,178.9788803,182.1038753,68.0,68.0
347,178.9788803,182.13686135833333,71.0,73.0
348,182.31220829999998,185.49275876666667,69.0,65.0
349,182.31220829999998,185.49796709166665,73.0,63.0
350,185.6455363,187.00143690833332,74.0,76.0
351,185.6455363,187.02227020833334,69.0,72.0
352,187.3122003,188.74101745833332,71.0,66.0
353,187.3122003,188.879906125,76.0,73.0
354,188.9788643,191.338235525,73.0,70.0
355,188.9788643,191.5587212833333,69.0,72.0
356,191.47886029999998,191.93719289999999,73.0,81.0
357,191.8955263,192.35212279166666,69.0,76.0
358,192.3121923,194.723646775,71.0,75.0
359,194.8121883,195.39378459166664,71.0,74.0
360,195.6455203,198.00315541666666,66.0,65.0
361,195.6455203,198.046558125,69.0,73.0
362,198.1455163,198.7705153,69.0,76.0
363,198.5621823,198.98926494999998,66.0,69.0
364,198.97884829999998,199.76704148333332,69.0,72.0
365,195.6455203,200.64551229999998,88.0,81.0
366,201.0621783,201.1663448,86.0,81.0
367,201.1663448,201.27051129999998,85.0,81.0
368,201.27051129999998,201.3746778,83.0,81.0
369,201.3746778,201.4788443,81.0,81.0
370,199.8121803,201.48231651666666,69.0,80.0
371,201.4788443,201.58301079999998,78.0,81.0
372,201.58301079999998,201.6871773,76.0,81.0
373,201.6871773,201.7913438,74.0,81.0
374,201.7913438,201.89551029999998,73.0,81.0
375,201.89551029999998,201.9996768,71.0,81.0
376,201.9996768,202.1038433,69.0,81.0
377,202.1038433,202.20800979999999,68.0,81.0
378,202.20800979999999,202.3121763,66.0,81.0
379,202.3121763,202.52224540833333,76.0,82.0
380,202.3121763,203.0413418,64.0,81.0
381,203.1455083,203.28439696666666,71.0,84.0
382,203.56217429999998,203.6420352833333,76.0,91.0
383,203.56217429999998,203.65766025833332,71.0,81.0
384,204.3955063,204.52050609999998,71.0,78.0
385,204.8121723,204.95453318333333,71.0,80.0
386,204.8121723,204.9580054,76.0,83.0
387,205.22883829999998,205.37119918333332,71.0,79.0
388,206.47883629999998,206.60730831666666,76.0,82.0
389,206.47883629999998,206.61078053333333,71.0,80.0
390,207.7288343,207.848625775,71.0,84.0
391,208.14550029999998,208.25834734166665,76.0,84.0
392,208.14550029999998,208.27918064166667,71.0,83.0
393,208.5621663,208.68716609999998,71.0,82.0
394,208.9788323,209.150707025,71.0,80.0
395,208.9788323,209.15591535,75.0,81.0
396,209.39549829999999,209.57431745833333,71.0,81.0
397,209.81216429999998,209.9649418333333,71.0,79.0
398,209.81216429999998,209.98056680833332,75.0,80.0
399,210.2288303,210.35556620833333,71.0,81.0
400,211.06216229999998,211.1888982083333,71.0,81.0
401,211.4788283,211.58993923333333,75.0,86.0
402,211.4788283,211.60556420833333,71.0,84.0
403,212.3121603,212.71667354166667,66.0,80.0
404,212.3121603,212.74792349166665,78.0,71.0
405,212.9371593,213.3954919,80.0,81.0
406,212.9371593,213.421533525,68.0,82.0
407,213.5621583,214.09167134166665,69.0,63.0
408,213.5621583,214.09514355833332,81.0,80.0
409,214.1871573,214.681948175,71.0,78.0
410,214.1871573,214.69583704166666,83.0,81.0
411,214.8121563,215.1003502833333,84.0,83.0
412,214.8121563,215.12118358333333,72.0,80.0
413,215.2288223,215.55868288333332,83.0,75.0
414,215.2288223,215.59687726666667,71.0,81.0
415,215.64548829999998,215.68889100833331,66.0,73.0
416,215.64548829999998,215.72187706666665,71.0,82.0
417,216.0621543,216.17152912499998,66.0,70.0
418,216.4788203,216.57083404166664,66.0,74.0
419,216.4788203,216.60555620833333,71.0,81.0
420,216.8954863,217.01006945,66.0,66.0
421,217.31215229999998,217.41284658333333,66.0,76.0
422,217.31215229999998,217.4284715583333,71.0,81.0
423,217.7288183,217.838193125,66.0,67.0
424,218.1454843,218.25833134166666,66.0,80.0
425,218.1454843,218.27395631666667,71.0,84.0
426,218.56215029999998,218.67673345,66.0,76.0
427,218.97881629999998,219.0829828,74.0,82.0
428,218.97881629999998,219.08819112499998,69.0,79.0
429,219.3954823,219.52221820833333,69.0,76.0
430,219.8121483,219.91805090833333,74.0,81.0
431,219.8121483,219.92673144999998,69.0,80.0
432,220.22881429999998,220.36423075,69.0,75.0
433,220.6454803,220.74096625833332,74.0,81.0
434,220.6454803,220.75485512499998,69.0,78.0
435,221.0621463,221.1836738833333,69.0,73.0
436,221.4788123,221.5795065833333,74.0,84.0
437,221.4788123,221.60033988333333,69.0,77.0
438,221.89547829999998,222.025686425,69.0,78.0
439,222.3121443,222.44756074999998,65.0,74.0
440,222.3121443,222.452769075,72.0,68.0
441,222.7288103,222.827768475,65.0,71.0
442,222.7288103,222.84512955833333,72.0,73.0
443,223.14547629999998,223.25832334166665,65.0,81.0
444,223.14547629999998,223.26873999166665,72.0,82.0
445,223.56214229999998,223.66110047499998,65.0,60.0
446,223.56214229999998,223.692350425,72.0,69.0
447,223.9788083,224.0829748,65.0,79.0
448,223.9788083,224.10380809999998,72.0,80.0
449,224.3954743,224.51700188333334,65.0,66.0
450,224.3954743,224.54825183333332,72.0,72.0
451,224.81214029999998,224.93366788333333,65.0,80.0
452,224.81214029999998,224.94929285833334,72.0,81.0
453,225.2288063,225.3347089083333,72.0,75.0
454,225.2288063,225.33818112499998,65.0,73.0
455,226.0621383,226.223596375,71.0,68.0
456,226.0621383,226.24095745833333,76.0,73.0
457,226.47880429999998,226.60033188333333,71.0,79.0
458,226.47880429999998,226.6055402083333,76.0,81.0
459,226.8954703,227.01178955833333,71.0,80.0
460,226.8954703,227.01178955833333,76.0,83.0
461,227.3121363,227.42845555833333,71.0,79.0
462,227.3121363,227.431927775,76.0,82.0
463,227.72880229999998,227.8538021,71.0,75.0
464,227.72880229999998,227.85727431666666,76.0,80.0
465,228.14546829999998,228.26699588333332,71.0,79.0
466,228.14546829999998,228.27220420833333,76.0,81.0
467,228.5621343,228.67671744999998,76.0,80.0
468,228.5621343,228.681925775,71.0,73.0
469,228.9788003,229.21317492499998,81.0,84.0
470,229.39546629999998,229.640257575,76.0,84.0
471,229.8121323,230.02740973333331,76.0,83.0
472,229.8121323,230.02740973333331,81.0,83.0
473,230.2287983,230.40761745833333,76.0,72.0
474,230.6454643,230.83296399999998,76.0,80.0
475,230.6454643,230.8659500583333,81.0,81.0
476,228.96838365,231.23747724166665,85.0,127.0
477,231.06213029999998,231.28087994999999,76.0,75.0
478,231.4787963,231.67844875833333,76.0,82.0
479,231.4787963,231.72011535833332,81.0,82.0
480,231.431921375,231.869420675,83.0,127.0
481,231.8954623,232.10032308333334,76.0,82.0
482,231.869420675,232.15761465833333,81.0,127.0
483,232.31212829999998,232.484003025,85.0,87.0
484,232.29823943333332,232.87636350833333,80.0,127.0
485,232.72879429999998,232.87636350833333,80.0,73.0
486,233.1454603,233.265251775,80.0,75.0
487,233.1454603,233.30518226666666,85.0,81.0
488,233.5621263,233.6871261,80.0,59.0
489,233.97879229999998,234.1037921,80.0,70.0
490,233.97879229999998,234.1419864833333,85.0,81.0
491,234.3954583,234.49094425833331,80.0,68.0
492,234.37115278333332,234.786082675,88.0,127.0
493,234.8121243,234.95969350833332,80.0,78.0
494,234.786082675,234.97358237499998,85.0,127.0
495,234.8121243,234.97358237499998,85.0,82.0
496,235.64545629999998,236.50135770833333,81.0,80.0
497,235.66976181666666,237.369411875,78.0,127.0
498,236.4787883,237.369411875,78.0,83.0
499,237.31212029999998,238.16975781666665,85.0,81.0
500,238.1367717583333,238.39371579166666,83.0,123.0
501,238.1454523,238.7704513,81.0,80.0
502,238.546493325,238.7704513,81.0,127.0
503,238.963159325,240.140240775,80.0,127.0
504,238.9787843,240.140240775,80.0,84.0
505,240.22878229999998,240.25829614166665,80.0,76.0
506,240.4371153,240.73225371666666,81.0,80.0
507,240.640239975,240.87287849166665,85.0,127.0
508,240.86246184166666,241.088155925,86.0,127.0
509,240.6454483,241.11766976666667,80.0,87.0
510,241.0621143,241.33294719999998,76.0,81.0
511,241.06558651666666,241.41454429166666,85.0,127.0
512,241.47878029999998,242.119404275,76.0,94.0
513,242.3121123,242.48572313333332,85.0,87.0
514,242.7287783,242.84509755833332,85.0,80.0
515,243.12634710833333,243.52391591666665,85.0,127.0
516,243.14544429999998,243.52391591666665,85.0,85.0
517,243.9787763,244.098567775,81.0,71.0
518,243.9787763,244.13155383333333,85.0,81.0
519,244.39544229999998,244.55169204999999,85.0,87.0
520,243.92842915833333,244.61245584166664,86.0,127.0
521,244.78259445833334,245.37287129166666,85.0,127.0
522,244.81210829999998,245.37287129166666,85.0,86.0
523,245.6454403,246.42668905,85.0,87.0
524,245.61592645833332,246.94578544166666,81.0,127.0
525,246.49092505833332,247.08641021666665,80.0,127.0
526,246.4787723,247.23571553333332,83.0,84.0
527,247.28259045833332,247.96835324999998,78.0,127.0
528,247.3121043,248.20099176666665,81.0,84.0
529,248.1454363,248.71314372499998,80.0,87.0
530,248.12633910833333,248.775643625,76.0,127.0
531,248.78779638333333,248.8398796333333,76.0,13.0
532,248.97182386666665,249.32251774999997,78.0,127.0
533,248.97876829999998,249.32251774999997,78.0,76.0
534,248.97876829999998,249.33987883333333,74.0,74.0
535,249.8121003,250.06036379166665,74.0,80.0
536,249.8121003,250.07251655,78.0,81.0
537,250.64543229999998,250.84508475833331,74.0,81.0
538,250.64543229999998,250.85029308333333,78.0,82.0
539,251.0620983,251.22182026666667,78.0,76.0
540,251.0620983,251.22702859166665,74.0,76.0
541,251.4787643,251.66800010833333,78.0,75.0
542,251.4787643,251.69925005833332,81.0,82.0
543,251.8954303,252.0429995083333,76.0,74.0
544,251.8954303,252.08119389166666,80.0,74.0
545,252.7287623,252.85202599166666,80.0,70.0
546,252.7287623,252.86765096666664,76.0,73.0
547,253.1454283,253.265219775,76.0,79.0
548,253.1454283,253.2669558833333,80.0,82.0
549,253.56209429999998,253.71834404999998,76.0,78.0
550,253.56209429999998,253.72181626666665,80.0,85.0
551,253.97876029999998,254.08119069166665,80.0,83.0
552,253.97876029999998,254.08813512499998,76.0,80.0
553,253.98049640833332,254.681884175,81.0,127.0
554,254.8120923,255.26868879166665,76.0,80.0
555,254.8120923,255.28431376666666,80.0,82.0
556,254.80862008333332,255.46486903333331,83.0,127.0
557,255.64716040833332,257.8294485833333,85.0,127.0
558,262.3120803,263.16798170833334,81.0,80.0
559,263.1454123,264.036035875,78.0,83.0
560,263.97874429999996,264.83638181666663,85.0,81.0
561,264.8120763,265.56381120833333,81.0,80.0
562,265.6454083,266.806864775,80.0,84.0
563,266.8954063,267.1367253583333,80.0,76.0
564,267.1037393,267.3988777166667,81.0,80.0
565,267.3120723,267.7842937666667,80.0,87.0
566,267.7287383,267.9995712,76.0,81.0
567,268.1454043,268.786028275,76.0,94.0
568,269.7738739166667,270.525608825,85.0,127.0
569,270.661025275,271.369357475,86.0,127.0
570,271.473523975,272.14192568333334,85.0,127.0
571,272.30511986666664,272.921438325,90.0,127.0
572,272.27907824166664,272.95789659999997,85.0,127.0
573,273.07942418333334,273.78081195,88.0,127.0
574,273.1054658083333,273.8103257916666,83.0,127.0
575,273.9509505666667,274.70615769166665,81.0,127.0
576,273.91970061666666,274.7408798583333,86.0,127.0
577,274.75303261666664,275.43532319166667,85.0,127.0
578,275.59504515833333,276.7287239,86.0,127.0
579,277.70962510833334,278.11240224166664,85.0,127.0
580,278.11240224166664,278.541221,86.0,127.0
581,278.53080435,280.7165647416667,88.0,127.0
582,283.9787123,284.4613504166667,74.0,82.0
583,283.9787123,284.4613504166667,86.0,82.0
584,284.3953783,284.8502386833333,73.0,84.0
585,284.3953783,284.8502386833333,85.0,84.0
586,284.81204429999997,285.26864079166666,71.0,84.0
587,284.81204429999997,285.26864079166666,83.0,84.0
588,285.2287103,285.5429459083333,73.0,87.0
589,285.2287103,285.5429459083333,85.0,87.0
590,285.6453763,286.4787083,69.0,83.0
591,285.6453763,286.4787083,81.0,83.0
592,286.4787083,287.3120403,64.0,81.0
593,286.4787083,287.3120403,76.0,81.0
594,287.3120403,287.7287063,74.0,87.0
595,287.3120403,287.7287063,86.0,87.0
596,287.7287063,288.1627333833333,73.0,96.0
597,287.7287063,288.1627333833333,85.0,96.0
598,288.14537229999996,288.56030219166666,71.0,87.0
599,288.14537229999996,288.56030219166666,83.0,87.0
600,288.5620383,289.00995424999996,73.0,106.0
601,288.5620383,289.00995424999996,85.0,106.0
602,288.9787043,289.7686335916666,68.0,97.0
603,288.9787043,289.7686335916666,80.0,97.0
604,289.8120363,290.671409925,64.0,91.0
605,289.8120363,290.671409925,76.0,91.0
606,290.6453683,291.0429371083333,74.0,84.0
607,290.6453683,291.0429371083333,86.0,84.0
608,291.0620343,291.4960613833333,73.0,87.0
609,291.0620343,291.4960613833333,85.0,87.0
610,291.4787003,291.874533,71.0,82.0
611,291.4787003,291.874533,83.0,82.0
612,291.8953663,292.15751865833334,73.0,94.0
613,291.8953663,292.15751865833334,85.0,94.0
614,292.3120323,292.54293470833335,66.0,87.0
615,292.3120323,292.54293470833335,78.0,87.0
616,292.9370313,293.16272538333334,68.0,81.0
617,292.9370313,293.16272538333334,80.0,81.0
618,293.5620303,293.66619679999997,69.0,84.0
619,293.5620303,293.66619679999997,81.0,84.0
620,293.97869629999997,294.4283483583333,74.0,89.0
621,293.97869629999997,294.4283483583333,86.0,89.0
622,294.3953623,294.8311254916666,73.0,91.0
623,294.3953623,294.8311254916666,85.0,91.0
624,294.8120283,295.23911095,71.0,83.0
625,294.8120283,295.23911095,83.0,83.0
626,295.2286943,295.6679297083333,73.0,82.0
627,295.2286943,295.6679297083333,85.0,82.0
628,295.6453603,297.31202429999996,74.0,83.0
629,295.6453603,297.31202429999996,86.0,83.0
630,297.31202429999996,297.79466241666665,74.0,82.0
631,297.31202429999996,297.79466241666665,86.0,82.0
632,297.7286903,298.1835506833333,73.0,84.0
633,297.7286903,298.1835506833333,85.0,84.0
634,298.1453563,298.60195279166663,71.0,84.0
635,298.1453563,298.60195279166663,83.0,84.0
636,298.56202229999997,298.87625790833334,73.0,87.0
637,298.56202229999997,298.87625790833334,85.0,87.0
638,298.9786883,299.8120203,69.0,83.0
639,298.9786883,299.8120203,81.0,83.0
640,299.8120203,300.6453523,64.0,81.0
641,299.8120203,300.6453523,76.0,81.0
642,300.6453523,301.0620183,74.0,87.0
643,300.6453523,301.0620183,86.0,87.0
644,301.0620183,301.4960453833333,73.0,96.0
645,301.0620183,301.4960453833333,85.0,96.0
646,301.4786843,301.89361419166664,71.0,87.0
647,301.4786843,301.89361419166664,83.0,87.0
648,301.89535029999996,302.34326625,73.0,106.0
649,301.89535029999996,302.34326625,85.0,106.0
650,302.3120163,303.10194559166666,68.0,97.0
651,302.3120163,303.10194559166666,80.0,97.0
652,303.14534829999997,304.004721925,64.0,91.0
653,303.14534829999997,304.004721925,76.0,91.0
654,303.9786803,304.3762491083333,74.0,84.0
655,303.9786803,304.3762491083333,86.0,84.0
656,304.39534629999997,304.82937338333335,73.0,87.0
657,304.39534629999997,304.82937338333335,85.0,87.0
658,304.8120123,305.20784499999996,71.0,82.0
659,304.8120123,305.20784499999996,83.0,82.0
660,305.2286783,305.4908306583333,73.0,94.0
661,305.2286783,305.4908306583333,85.0,94.0
662,305.6453443,305.8762467083333,66.0,87.0
663,305.6453443,305.8762467083333,78.0,87.0
664,306.2703433,306.4960373833333,68.0,81.0
665,306.2703433,306.4960373833333,80.0,81.0
666,306.8953423,306.9995088,69.0,84.0
667,306.8953423,306.9995088,81.0,84.0
668,307.3120083,307.7616603583333,74.0,89.0
669,307.3120083,307.7616603583333,86.0,89.0
670,307.72867429999997,308.16443749166666,73.0,91.0
671,307.72867429999997,308.16443749166666,85.0,91.0
672,308.1453403,308.57242295,71.0,83.0
673,308.1453403,308.57242295,83.0,83.0
674,308.5620063,309.00124170833334,73.0,82.0
675,308.5620063,309.00124170833334,85.0,82.0
676,308.97867229999997,310.6453363,74.0,83.0
677,308.97867229999997,310.6453363,86.0,83.0
678,310.6453363,312.275542025,74.0,89.0
679,310.6453363,312.275542025,86.0,89.0
