,start,end,pitch,velocity
0,15.645808299999999,15.932266174999999,73.0,84.0
1,16.062474299999998,16.383654341666666,73.0,84.0
2,16.4791403,16.77254260833333,73.0,83.0
3,16.8958063,17.19962525833333,73.0,83.0
4,17.3124723,17.595457958333334,73.0,81.0
5,17.7291383,18.046846125,73.0,81.0
6,18.145804299999998,18.453095474999998,71.0,82.0
7,18.562470299999998,18.90795585833333,69.0,82.0
8,18.9791363,19.307260775,73.0,85.0
9,19.3958023,19.699621258333334,69.0,82.0
10,19.8124683,20.147537208333333,73.0,84.0
11,20.2291343,20.821147241666665,71.0,86.0
12,21.4791323,21.776006825,69.0,82.0
13,21.8957983,22.183992283333332,71.0,84.0
14,22.3124643,22.63538045,73.0,81.0
15,22.729130299999998,23.046838124999997,73.0,81.0
16,23.1457963,23.444406933333333,73.0,84.0
17,23.5624623,23.857600716666667,73.0,81.0
18,23.9791283,24.2916278,73.0,82.0
19,24.3957943,24.651002225,73.0,81.0
20,24.812460299999998,25.17877915833333,73.0,81.0
21,25.229126299999997,25.484334224999998,73.0,80.0
22,25.6457923,25.975652883333332,73.0,84.0
23,26.0624583,26.454818783333334,71.0,81.0
24,26.4791243,26.80204045,69.0,76.0
25,26.895790299999998,28.229121499999998,64.0,84.0
26,28.979120299999998,29.2916198,73.0,82.0
27,29.395786299999997,29.69786915,73.0,78.0
28,29.8124523,30.11453515,73.0,81.0
29,30.2291183,30.513840066666667,73.0,79.0
30,30.6457843,30.928769958333334,73.0,80.0
31,31.0624503,31.322866549999997,73.0,82.0
32,31.479116299999998,31.753421416666665,71.0,77.0
33,31.895782299999997,32.213490125,69.0,82.0
34,32.3124483,32.63710055833333,73.0,81.0
35,32.7291143,33.078072075,76.0,82.0
36,33.1457803,33.46001590833333,73.0,80.0
37,33.5624463,34.166612,71.0,80.0
38,34.395778299999996,34.703069475,64.0,81.0
39,34.812444299999996,35.159665966666665,69.0,82.0
40,35.229110299999995,35.51209595833333,71.0,85.0
41,35.6457763,35.951331366666665,73.0,81.0
42,36.0624423,36.4374417,71.0,77.0
43,36.4791083,36.80202445,69.0,75.0
44,36.8957743,37.25688483333333,64.0,82.0
45,37.3124403,37.7291063,66.0,80.0
46,37.7291063,38.0832724,69.0,82.0
47,38.1457723,38.45479958333333,66.0,81.0
48,38.5624383,41.59368345,69.0,81.0
49,42.1040993,42.303751758333334,64.0,80.0
50,42.3124323,42.61104293333333,73.0,82.0
51,42.7290983,43.036389475,73.0,80.0
52,43.145764299999996,43.453055475,73.0,84.0
53,43.562430299999995,43.82979098333333,73.0,81.0
54,43.979096299999995,44.312429099999996,73.0,84.0
55,44.3957623,44.694372933333334,73.0,81.0
56,44.8124283,45.083261199999995,71.0,82.0
57,45.2290943,45.60582980833333,69.0,84.0
58,45.6457603,46.05895408333333,73.0,81.0
59,46.0624263,46.468675649999994,69.0,83.0
60,46.4790923,46.90791105833333,73.0,82.0
61,46.8957583,47.729090299999996,71.0,80.0
62,48.145756299999995,48.48256131666666,69.0,82.0
63,48.562422299999994,48.869713475,71.0,81.0
64,48.9790883,49.307212774999996,73.0,76.0
65,49.3957543,49.716934341666665,73.0,76.0
66,49.8124203,50.09366985,73.0,81.0
67,50.2290863,50.515544174999995,73.0,81.0
68,50.6457523,50.99644618333333,73.0,84.0
69,51.0624183,51.38186223333333,73.0,80.0
70,51.4790843,51.79852823333333,73.0,79.0
71,51.895750299999996,52.17005541666666,73.0,81.0
72,52.312416299999995,52.70477678333333,73.0,87.0
73,52.729082299999995,53.12838721666667,71.0,81.0
74,53.1457483,53.423525633333334,69.0,81.0
75,53.5624143,55.23255051666666,64.0,75.0
76,55.6457443,55.9582438,73.0,82.0
77,56.062410299999996,56.364493149999994,73.0,78.0
78,56.479076299999996,56.78115915,73.0,81.0
79,56.895742299999995,57.180464066666666,73.0,79.0
80,57.312408299999994,57.59539395833333,73.0,80.0
81,57.7290743,57.98949055,73.0,82.0
82,58.1457403,58.42004541666667,71.0,77.0
83,58.5624063,58.880114125,69.0,82.0
84,58.9790723,59.30372455833333,73.0,81.0
85,59.3957383,59.744696075,76.0,82.0
86,59.8124043,60.12663990833333,73.0,80.0
87,60.2290703,60.833236,71.0,80.0
88,61.062402299999995,61.369693475,64.0,81.0
89,61.479068299999994,61.826289966666664,69.0,82.0
90,61.895734299999994,62.17871995833333,71.0,85.0
91,62.3124003,62.61795536666666,73.0,81.0
92,62.7290663,63.1040657,71.0,77.0
93,63.1457323,63.468648449999996,69.0,75.0
94,63.5623983,63.92350883333333,64.0,82.0
95,63.9790643,64.3957303,66.0,80.0
96,64.3957303,64.7498964,69.0,82.0
97,64.8123963,65.12142358333332,66.0,81.0
98,65.2290623,67.3123923,69.0,81.0
99,67.72905829999999,68.13704375833333,71.0,81.0
100,68.1457243,68.48252931666666,69.0,83.0
101,68.56239029999999,68.88357034166667,71.0,81.0
102,68.9790563,69.34016683333333,72.0,81.0
103,69.3957223,69.78981889166667,71.0,85.0
104,69.8123883,70.20648489166666,69.0,83.0
105,70.2290543,70.87141438333333,71.0,86.0
106,71.0623863,71.45127456666667,69.0,84.0
107,71.47905229999999,71.91307938333333,71.0,80.0
108,71.8957183,72.25682883333333,69.0,81.0
109,72.31238429999999,72.70474478333333,72.0,81.0
110,72.7290503,73.14224408333332,71.0,81.0
111,73.1457163,73.484257425,69.0,82.0
112,73.5623823,74.16307578333333,71.0,81.0
113,74.3957143,74.71168601666666,69.0,82.0
114,74.8123803,75.18043526666666,71.0,82.0
115,75.2290463,75.58494850833333,69.0,84.0
116,75.6457123,76.03460056666667,72.0,81.0
117,76.06237829999999,76.48598873333333,71.0,80.0
118,76.4790443,76.942585225,69.0,80.0
119,76.89571029999999,77.52418151666666,71.0,82.0
120,77.7290423,78.03459736666666,71.0,85.0
121,78.1457083,78.51202715833332,73.0,84.0
122,78.5623743,78.7707073,71.0,81.0
123,78.7707073,79.81237229999999,66.0,82.0
124,81.0623703,81.442578025,71.0,81.0
125,81.47903629999999,81.84014683333334,69.0,82.0
126,81.8957023,82.25681283333333,71.0,80.0
127,82.3123683,82.76375646666666,72.0,80.0
128,82.7290343,83.11097813333333,71.0,82.0
129,83.1457003,83.63181063333333,69.0,80.0
130,83.5623663,84.12486539999999,71.0,86.0
131,84.39569829999999,84.74118385833333,69.0,84.0
132,84.8123643,85.23423862499999,71.0,82.0
133,85.22903029999999,85.63180743333334,69.0,83.0
134,85.6456963,86.01375126666666,72.0,82.0
135,86.06236229999999,86.463403325,71.0,85.0
136,86.4790283,86.82451385833333,69.0,81.0
137,86.8956943,87.505068325,71.0,83.0
138,87.7290263,88.11097013333332,69.0,80.0
139,88.1456923,88.57277495,71.0,80.0
140,88.5623583,88.92520494166666,69.0,81.0
141,88.97902429999999,89.42346803333334,72.0,76.0
142,89.3956903,89.84187014166666,71.0,81.0
143,89.81235629999999,90.255063925,69.0,80.0
144,90.2290223,90.66999381666666,71.0,86.0
145,90.64568829999999,91.09534035833333,72.0,81.0
146,91.0623543,91.51547857499999,71.0,79.0
147,91.4790203,91.92867235833333,69.0,81.0
148,91.8956863,93.9790163,76.0,87.0
149,94.8123483,95.150889425,78.0,87.0
150,95.22901429999999,95.5623471,76.0,91.0
151,95.6456803,97.59706606666666,85.0,83.0
152,97.7290103,98.09532915833333,76.0,91.0
153,98.14567629999999,98.567550625,78.0,86.0
154,98.5623423,98.8748418,76.0,91.0
155,98.97900829999999,99.3956743,83.0,86.0
156,99.3956743,99.69775715,81.0,81.0
157,99.8123403,100.11963147499999,80.0,83.0
158,100.2290063,101.0623383,81.0,84.0
159,101.0623383,101.39219888333332,76.0,87.0
160,101.4790043,101.81580931666666,78.0,86.0
161,101.89567029999999,102.30018354166666,76.0,91.0
162,102.3123363,102.65261353333332,83.0,81.0
163,102.72900229999999,103.1456683,81.0,85.0
164,103.1456683,103.49115385833333,80.0,75.0
165,103.56233429999999,103.84531995833333,81.0,81.0
166,103.9790003,104.29323590833333,83.0,81.0
167,104.3956663,104.74636018333332,81.0,81.0
168,104.8123323,105.20990110833333,76.0,80.0
169,105.2289983,105.61615045833332,76.0,77.0
170,105.64566429999999,105.91823330833333,71.0,81.0
171,106.0623303,106.71337092499999,73.0,82.0
172,106.8956623,107.598786175,71.0,82.0
173,107.7289943,108.06406320833332,73.0,82.0
174,108.14566029999999,108.47552088333333,74.0,87.0
175,108.5623263,108.81753422499999,76.0,85.0
176,108.9789923,109.29322790833332,80.0,84.0
177,109.3956583,109.702949475,80.0,80.0
178,109.8123243,110.11787936666666,80.0,82.0
179,110.22899029999999,110.55190644999999,80.0,85.0
180,110.6456563,110.9998224,80.0,85.0
181,111.06232229999999,111.6873213,80.0,80.0
182,111.89565429999999,112.59009763333333,81.0,81.0
183,112.72898629999999,113.51544337499999,80.0,85.0
184,113.5623183,114.35745591666667,78.0,76.0
185,114.81231629999999,115.2289823,80.0,84.0
186,115.2289823,115.8539813,78.0,81.0
187,116.0623143,116.369605475,81.0,81.0
188,116.47898029999999,116.74634098333333,81.0,78.0
189,116.8956463,117.16995141666666,81.0,81.0
190,117.31231229999999,117.61092293333333,81.0,82.0
191,117.7289783,118.04842223333333,80.0,81.0
192,118.1456443,118.42342163333333,81.0,81.0
193,118.5623103,121.4789723,83.0,83.0
194,121.4789723,121.817513425,78.0,87.0
195,121.89563829999999,122.2289711,76.0,91.0
196,122.3123043,124.26369006666665,85.0,83.0
197,124.3956343,124.76195315833333,76.0,91.0
198,124.81230029999999,125.234174625,78.0,86.0
199,125.2289663,125.5414658,76.0,91.0
200,125.64563229999999,126.0622983,83.0,86.0
201,126.0622983,126.36438115,81.0,81.0
202,126.4789643,126.78625547499999,80.0,83.0
203,126.8956303,127.72896229999999,81.0,84.0
204,127.72896229999999,128.05882288333333,76.0,87.0
205,128.1456283,128.48243331666666,78.0,86.0
206,128.5622943,128.96680754166667,76.0,91.0
207,128.97896029999998,129.31923753333334,83.0,81.0
208,129.3956263,129.8122923,81.0,85.0
209,129.8122923,130.15777785833333,80.0,75.0
210,130.2289583,130.51194395833332,81.0,81.0
211,130.64562429999998,130.95985990833333,78.0,81.0
212,131.0622903,131.41298418333332,76.0,81.0
213,131.4789563,131.87652510833334,73.0,80.0
214,131.89562229999999,132.28277445833334,73.0,77.0
215,132.3122883,132.58485730833334,71.0,81.0
216,132.7289543,133.379994925,69.0,82.0
217,133.56228629999998,134.265410175,71.0,82.0
218,134.8122843,135.14214488333332,73.0,87.0
219,135.22895029999998,135.6456163,74.0,85.0
220,135.6456163,135.95985190833332,80.0,84.0
221,136.0622823,136.36957347499998,80.0,80.0
222,136.47894829999998,136.78450336666666,80.0,82.0
223,136.8956143,137.21853045,80.0,85.0
224,137.7289463,138.3539453,77.0,80.0
225,138.5622783,138.9789443,78.0,81.0
226,138.9789443,139.76540137499998,85.0,85.0
227,139.8122763,140.60741391666667,83.0,76.0
228,140.6456083,141.4789403,81.0,84.0
229,141.4789403,141.8956063,80.0,81.0
230,141.8956063,142.5206053,81.0,81.0
231,142.72893829999998,143.036229475,81.0,81.0
232,143.1456043,143.41296498333332,81.0,78.0
233,143.5622703,143.83657541666665,81.0,81.0
234,143.9789363,144.27754693333333,81.0,82.0
235,144.3956023,144.71504623333334,83.0,81.0
236,144.8122683,145.09004563333332,85.0,81.0
237,145.2289343,148.1455963,83.0,83.0
238,175.6455523,175.94416293333333,73.0,82.0
239,176.06221829999998,176.369509475,73.0,80.0
240,176.4788843,176.786175475,73.0,84.0
241,176.8955503,177.16291098333332,73.0,81.0
242,177.3122163,177.64554909999998,73.0,84.0
243,177.72888229999998,178.02749293333332,73.0,81.0
244,178.1455483,178.4163812,71.0,82.0
245,178.5622143,178.93894980833332,69.0,84.0
246,178.9788803,179.3920740833333,73.0,81.0
247,179.39554629999998,179.80179565,69.0,83.0
248,179.8122123,180.24103105833333,73.0,82.0
249,180.2288783,181.0622103,71.0,80.0
250,181.4788763,181.81568131666666,69.0,82.0
251,181.8955423,182.202833475,71.0,81.0
252,182.31220829999998,182.640332775,73.0,76.0
253,182.7288743,183.05005434166665,73.0,76.0
254,183.1455403,183.42678984999998,73.0,81.0
255,183.56220629999999,183.84866417499998,73.0,81.0
256,183.97887229999998,184.32956618333333,73.0,84.0
257,184.3955383,184.71498223333333,73.0,80.0
258,184.8122043,185.13164823333332,73.0,79.0
259,185.22887029999998,185.50317541666666,73.0,81.0
260,185.6455363,186.03789678333334,73.0,87.0
261,186.0622023,186.46150721666666,71.0,81.0
262,186.4788683,186.75664563333333,69.0,81.0
263,186.89553429999998,188.56567051666667,64.0,75.0
264,188.9788643,189.2913638,73.0,82.0
265,189.3955303,189.69761315,73.0,78.0
266,189.81219629999998,190.11427915,73.0,81.0
267,190.2288623,190.51358406666665,73.0,79.0
268,190.6455283,190.92851395833333,73.0,80.0
269,191.0621943,191.32261054999998,73.0,82.0
270,191.47886029999998,191.75316541666666,71.0,77.0
271,191.8955263,192.21323412499999,69.0,82.0
272,192.3121923,192.63684455833334,73.0,81.0
273,192.72885829999998,193.077816075,76.0,82.0
274,193.1455243,193.45975990833333,73.0,80.0
275,193.5621903,194.16635599999998,71.0,80.0
276,194.39552229999998,194.702813475,64.0,81.0
277,194.8121883,195.15940996666666,69.0,82.0
278,195.2288543,195.51183995833333,71.0,85.0
279,195.6455203,195.95107536666666,73.0,81.0
280,196.06218629999998,196.4371857,71.0,77.0
281,196.4788523,196.80176845,69.0,75.0
282,196.8955183,197.25662883333334,64.0,82.0
283,197.31218429999998,197.7288503,66.0,80.0
284,197.7288503,198.0830164,69.0,82.0
285,198.1455163,198.45454358333333,66.0,81.0
286,198.5621823,200.64551229999998,69.0,81.0
287,201.0621783,201.4701637583333,71.0,81.0
288,201.4788443,201.81564931666665,69.0,83.0
289,201.89551029999998,202.21669034166666,71.0,81.0
290,202.3121763,202.67328683333332,72.0,81.0
291,202.7288423,203.12293889166665,71.0,85.0
292,203.1455083,203.53960489166667,69.0,83.0
293,203.56217429999998,204.2045343833333,71.0,86.0
294,204.3955063,204.78439456666666,69.0,84.0
295,204.8121723,205.24619938333333,71.0,80.0
296,205.22883829999998,205.58994883333332,69.0,81.0
297,205.6455043,206.03786478333333,72.0,81.0
298,206.0621703,206.47536408333332,71.0,81.0
299,206.47883629999998,206.817377425,69.0,82.0
300,206.8955023,207.49619578333332,71.0,81.0
301,207.7288343,208.04480601666666,69.0,82.0
302,208.14550029999998,208.51355526666666,71.0,82.0
303,208.5621663,208.91806850833333,69.0,84.0
304,208.9788323,209.36772056666666,72.0,81.0
305,209.39549829999999,209.81910873333334,71.0,80.0
306,209.81216429999998,210.275705225,69.0,80.0
307,210.2288303,210.85730151666667,71.0,82.0
308,211.06216229999998,211.36771736666665,71.0,85.0
309,211.4788283,211.84514715833333,73.0,84.0
310,211.8954943,212.10382729999998,71.0,81.0
311,212.10382729999998,213.1454923,66.0,82.0
312,214.39549029999998,214.775698025,71.0,81.0
313,214.8121563,215.17326683333332,69.0,82.0
314,215.2288223,215.58993283333334,71.0,80.0
315,215.64548829999998,216.09687646666666,72.0,80.0
316,216.0621543,216.4440981333333,71.0,82.0
317,216.4788203,216.96493063333332,69.0,80.0
318,216.8954863,217.45798539999998,71.0,86.0
319,217.7288183,218.07430385833334,69.0,84.0
320,218.1454843,218.567358625,71.0,82.0
321,218.56215029999998,218.96492743333332,69.0,83.0
322,218.97881629999998,219.34687126666665,72.0,82.0
323,219.3954823,219.79652332499998,71.0,85.0
324,219.8121483,220.15763385833333,69.0,81.0
325,220.22881429999998,220.83818832499998,71.0,83.0
326,221.0621463,221.44409013333333,69.0,80.0
327,221.4788123,221.90589495,71.0,80.0
328,221.89547829999998,222.25832494166664,69.0,81.0
329,222.3121443,222.75658803333332,72.0,76.0
330,222.7288103,223.17499014166665,71.0,81.0
331,223.14547629999998,223.58818392499998,69.0,80.0
332,223.56214229999998,224.00311381666666,71.0,86.0
333,223.9788083,224.42846035833333,72.0,81.0
334,224.3954743,224.84859857499998,71.0,79.0
335,224.81214029999998,225.2617923583333,69.0,81.0
336,225.2288063,227.3121363,76.0,87.0
337,228.14546829999998,228.48400942499998,78.0,87.0
338,228.5621343,228.8954671,76.0,91.0
339,228.9788003,230.93018606666666,85.0,83.0
340,231.06213029999998,231.42844915833334,76.0,91.0
341,231.4787963,231.90067062499998,78.0,86.0
342,231.8954623,232.2079618,76.0,91.0
343,232.31212829999998,232.72879429999998,83.0,86.0
344,232.72879429999998,233.03087714999998,81.0,81.0
345,233.1454603,233.45275147499999,80.0,83.0
346,233.5621263,234.3954583,81.0,84.0
347,234.3954583,234.72531888333333,76.0,87.0
348,234.8121243,235.14892931666665,78.0,86.0
349,235.2287903,235.63330354166666,76.0,91.0
350,235.64545629999998,235.98573353333333,83.0,81.0
351,236.0621223,236.4787883,81.0,85.0
352,236.4787883,236.82427385833333,80.0,75.0
353,236.89545429999998,237.1784399583333,81.0,81.0
354,237.31212029999998,237.62635590833332,83.0,81.0
355,237.7287863,238.07948018333332,81.0,81.0
356,238.1454523,238.54302110833333,76.0,80.0
357,238.56211829999998,238.94927045833333,76.0,77.0
358,238.9787843,239.25135330833334,71.0,81.0
359,239.3954503,240.046490925,73.0,82.0
360,240.22878229999998,240.931906175,71.0,82.0
361,241.0621143,241.39718320833333,73.0,82.0
362,241.47878029999998,241.8086408833333,74.0,87.0
363,241.89544629999997,242.15065422499998,76.0,85.0
364,242.3121123,242.62634790833332,80.0,84.0
365,242.7287783,243.03606947499998,80.0,80.0
366,243.14544429999998,243.45099936666665,80.0,82.0
367,243.5621103,243.88502645,80.0,85.0
368,243.9787763,244.33294239999998,80.0,85.0
369,244.39544229999998,245.0204413,80.0,80.0
370,245.2287743,245.9232176333333,81.0,81.0
371,246.06210629999998,246.848563375,80.0,85.0
372,246.8954383,247.69057591666666,78.0,76.0
373,248.1454363,248.5621023,80.0,84.0
374,248.5621023,249.1871013,78.0,81.0
375,249.39543429999998,249.702725475,81.0,81.0
376,249.8121003,250.07946098333332,81.0,78.0
377,250.2287663,250.50307141666664,81.0,81.0
378,250.64543229999998,250.94404293333332,81.0,82.0
379,251.0620983,251.38154223333333,80.0,81.0
380,251.4787643,251.7565416333333,81.0,81.0
381,251.8954303,254.8120923,83.0,83.0
382,254.8120923,255.150633425,78.0,87.0
383,255.22875829999998,255.56209109999998,76.0,91.0
384,255.6454243,257.59681006666665,85.0,83.0
385,257.7287543,258.0950731583333,76.0,91.0
386,258.1454203,258.567294625,78.0,86.0
387,258.5620863,258.8745858,76.0,91.0
388,258.9787523,259.39541829999996,83.0,86.0
389,259.39541829999996,259.69750115,81.0,81.0
390,259.8120843,260.11937547499997,80.0,83.0
391,260.2287503,261.0620823,81.0,84.0
392,261.0620823,261.39194288333334,76.0,87.0
393,261.4787483,261.81555331666664,78.0,86.0
394,261.89541429999997,262.29992754166665,76.0,91.0
395,262.3120803,262.6523575333333,83.0,81.0
396,262.7287463,263.1454123,81.0,85.0
397,263.1454123,263.4908978583333,80.0,75.0
398,263.5620783,263.8450639583333,81.0,81.0
399,263.97874429999996,264.29297990833334,78.0,81.0
400,264.3954103,264.74610418333333,76.0,81.0
401,264.8120763,265.20964510833335,73.0,80.0
402,265.22874229999996,265.61589445833334,73.0,77.0
403,265.6454083,265.9179773083333,71.0,81.0
404,266.0620743,266.713114925,69.0,82.0
405,266.8954063,267.598530175,71.0,82.0
406,268.1454043,268.4752648833333,73.0,87.0
407,268.56207029999996,268.9787363,74.0,85.0
408,268.9787363,269.2929719083333,80.0,84.0
409,269.3954023,269.702693475,80.0,80.0
410,269.81206829999996,270.11762336666663,80.0,82.0
411,270.2287343,270.55165045,80.0,85.0
412,271.06206629999997,271.6870653,77.0,80.0
413,271.8953983,272.3120643,78.0,81.0
414,272.3120643,273.09852137499996,85.0,85.0
415,273.1453963,273.94053391666665,83.0,76.0
416,273.9787283,274.8120603,81.0,84.0
417,274.8120603,275.2287263,80.0,81.0
418,275.2287263,275.8537253,81.0,81.0
419,276.0620583,276.369349475,81.0,81.0
420,276.4787243,276.74608498333333,81.0,78.0
421,276.8953903,277.1696954166666,81.0,81.0
422,277.3120563,277.61066693333333,81.0,82.0
423,277.7287223,278.04816623333335,83.0,81.0
424,278.1453883,278.4231656333333,85.0,81.0
425,278.5620543,281.4787163,83.0,83.0
426,282.7287143,282.973505575,78.0,81.0
427,283.1453803,283.4787131,78.0,91.0
428,283.56204629999996,283.8623930416667,81.0,82.0
429,283.9787123,284.3207256416666,83.0,80.0
430,284.3953783,284.723502775,81.0,84.0
431,284.81204429999997,285.11412715,80.0,81.0
432,285.2287103,289.0221070083333,81.0,82.0
