,start,end,pitch,velocity
0,1.4791642999999999,1.6475668083333332,40.0,82.0
1,1.4791642999999999,1.6892334083333334,52.0,81.0
2,1.4791642999999999,1.7048583833333333,56.0,73.0
3,2.3124963,2.736106733333333,57.0,76.0
4,2.3124963,2.835064908333333,61.0,76.0
5,2.7291623,3.2586753416666667,52.0,62.0
6,3.1458283,3.5781192749999997,57.0,78.0
7,3.1458283,3.6597163666666663,61.0,80.0
8,3.5624943,4.1232572916666665,52.0,60.0
9,3.9791602999999998,4.447909549999999,57.0,80.0
10,3.9791602999999998,4.498256691666667,61.0,82.0
11,4.8124923,4.977422591666667,57.0,80.0
12,2.3124963,5.020825299999999,45.0,81.0
13,4.3958262999999995,5.046866925,52.0,61.0
14,4.8124923,5.213533324999999,61.0,86.0
15,5.2291583,5.369783075,57.0,82.0
16,5.6458243,6.277767733333333,56.0,73.0
17,5.6458243,6.293392708333333,52.0,75.0
18,6.062490299999999,6.637142158333333,47.0,72.0
19,6.4791563,7.081585891666666,59.0,78.0
20,6.4791563,7.092002541666666,56.0,77.0
21,6.8958223,7.355891008333333,52.0,76.0
22,7.3124883,7.680543266666667,59.0,80.0
23,7.3124883,7.748251491666666,62.0,75.0
24,7.3124883,7.776029224999999,56.0,77.0
25,7.729154299999999,8.048598233333333,52.0,79.0
26,8.1458203,8.1874869,52.0,67.0
27,5.6458243,8.576375166666667,40.0,84.0
28,8.1458203,8.652763933333333,56.0,77.0
29,8.5624863,8.689222208333334,52.0,89.0
30,8.1458203,8.749986,61.0,80.0
31,8.979152299999999,9.522554208333332,61.0,74.0
32,8.979152299999999,9.532970858333332,57.0,75.0
33,9.8124843,10.501719308333334,61.0,82.0
34,9.8124843,10.57289975,66.0,76.0
35,10.229150299999999,10.578108075,57.0,76.0
36,8.979152299999999,10.869774275,42.0,82.0
37,9.3958183,11.013871266666666,49.0,64.0
38,10.6458163,11.091996141666666,66.0,67.0
39,10.6458163,11.362829041666666,57.0,81.0
40,10.6458163,11.38539845,61.0,81.0
41,11.4791483,11.751717308333333,57.0,82.0
42,11.0624823,11.960050308333333,42.0,79.0
43,11.4791483,12.293383108333332,61.0,86.0
44,11.4791483,12.305535866666666,66.0,81.0
45,11.8958143,12.341994141666666,49.0,75.0
46,12.7291463,13.243034366666667,45.0,72.0
47,12.312480299999999,13.279492641666666,54.0,73.0
48,12.312480299999999,13.423589633333332,57.0,75.0
49,13.1458123,14.019074791666666,50.0,86.0
50,13.9791443,14.560740591666667,62.0,80.0
51,13.9791443,14.565948916666667,54.0,71.0
52,13.9791443,14.585046108333332,57.0,76.0
53,14.8124763,15.546850124999999,54.0,65.0
54,14.395810299999999,15.548586233333333,50.0,76.0
55,13.562478299999999,15.559002883333333,45.0,70.0
56,12.312480299999999,15.560738991666666,38.0,85.0
57,14.8124763,15.574627858333333,57.0,73.0
58,15.645808299999999,16.1458075,61.0,80.0
59,15.645808299999999,16.154488041666667,57.0,76.0
60,16.4791403,16.53122355,57.0,68.0
61,16.062474299999998,16.588515125,52.0,80.0
62,15.645808299999999,16.716987141666667,45.0,82.0
63,16.4791403,16.795112016666668,61.0,83.0
64,16.4791403,16.809000883333333,64.0,82.0
65,16.8958063,17.15795865833333,57.0,73.0
66,17.3124723,17.605874608333334,57.0,69.0
67,17.3124723,17.758652141666666,64.0,79.0
68,17.3124723,17.769068791666665,61.0,68.0
69,18.145804299999998,18.29337350833333,57.0,77.0
70,17.7291383,18.326359566666667,52.0,64.0
71,17.3124723,18.428789958333333,45.0,65.0
72,18.145804299999998,18.460039908333332,61.0,84.0
73,18.145804299999998,18.527748133333333,64.0,82.0
74,18.562470299999998,18.715247833333333,57.0,75.0
75,18.9791363,19.484343825,59.0,70.0
76,18.9791363,19.510385449999998,64.0,66.0
77,19.8124683,19.94441253333333,59.0,80.0
78,19.8124683,19.987815241666667,64.0,81.0
79,19.3958023,20.048579033333333,47.0,62.0
80,19.8124683,20.1874677,68.0,72.0
81,18.9791363,20.335036908333333,40.0,81.0
82,20.2291343,20.451356166666667,59.0,70.0
83,20.645800299999998,21.022535808333334,59.0,75.0
84,20.645800299999998,21.10066068333333,64.0,79.0
85,21.0624663,21.63538205,47.0,58.0
86,21.4791323,21.64232648333333,59.0,78.0
87,20.645800299999998,21.763854066666667,40.0,76.0
88,21.4791323,21.8957983,68.0,80.0
89,21.4791323,21.942673225,64.0,82.0
90,21.8957983,22.04857583333333,59.0,82.0
91,22.3124643,22.8541301,57.0,74.0
92,22.3124643,22.88711615833333,61.0,76.0
93,23.1457963,23.29336550833333,66.0,76.0
94,23.1457963,23.300309941666665,61.0,86.0
95,22.3124643,23.758642541666667,42.0,82.0
96,22.729130299999998,23.786420274999998,49.0,62.0
97,23.5624623,23.885378449999997,57.0,76.0
98,23.9791283,24.5624607,61.0,69.0
99,23.9791283,24.612807841666665,57.0,75.0
100,24.3957943,25.078084875,49.0,69.0
101,23.9791283,25.126695908333332,42.0,82.0
102,24.812460299999998,25.262112358333333,61.0,87.0
103,24.812460299999998,25.282945658333333,66.0,80.0
104,25.229126299999997,25.512111958333332,57.0,81.0
105,25.6457923,25.899264116666664,57.0,71.0
106,25.6457923,26.168360908333334,62.0,78.0
107,26.0624583,26.32461065833333,57.0,77.0
108,26.4791243,26.671832325,57.0,80.0
109,26.895790299999998,27.09544275833333,57.0,71.0
110,26.4791243,27.107595516666667,62.0,81.0
111,26.4791243,27.159678766666666,66.0,75.0
112,25.6457923,27.164887091666664,50.0,80.0
113,27.312456299999997,27.54856703333333,59.0,76.0
114,27.312456299999997,27.640580775,64.0,81.0
115,27.312456299999997,27.7707889,52.0,85.0
116,27.7291223,28.253427016666667,59.0,81.0
117,28.1457883,28.472176666666666,40.0,82.0
118,28.1457883,28.543357108333332,68.0,69.0
119,28.1457883,28.55203765,64.0,80.0
120,28.5624543,28.69439853333333,59.0,83.0
121,28.979120299999998,29.470438958333332,64.0,78.0
122,28.979120299999998,29.472175066666665,57.0,72.0
123,28.979120299999998,29.473911174999998,61.0,67.0
124,29.8124523,29.963493725,64.0,81.0
125,29.8124523,29.980854808333333,61.0,84.0
126,29.395786299999997,30.333284799999998,52.0,71.0
127,28.979120299999998,30.376687508333333,45.0,80.0
128,30.2291183,30.737798041666665,57.0,72.0
129,30.6457843,31.013839266666665,64.0,82.0
130,30.6457843,31.046825324999997,61.0,70.0
131,31.479116299999998,31.638838266666664,57.0,76.0
132,31.0624503,31.661407675,52.0,66.0
133,30.6457843,31.71522703333333,45.0,80.0
134,31.479116299999998,31.885365649999997,61.0,83.0
135,31.479116299999998,31.921823924999998,64.0,82.0
136,31.895782299999997,32.015573775,57.0,65.0
137,32.3124483,32.513836866666665,59.0,74.0
138,32.3124483,32.902725133333334,64.0,80.0
139,32.7291143,33.03293325833333,59.0,72.0
140,33.1457803,33.50689083333333,68.0,80.0
141,33.1457803,33.62147398333333,64.0,81.0
142,32.3124483,33.79334870833333,40.0,81.0
143,33.5624463,34.08154269166666,59.0,82.0
144,33.9791123,34.49126425833333,64.0,81.0
145,34.395778299999996,34.67529174166666,59.0,78.0
146,34.395778299999996,35.00688843333333,47.0,62.0
147,34.812444299999996,35.01209675833333,59.0,82.0
148,34.812444299999996,35.03466616666667,64.0,83.0
149,34.812444299999996,35.06591611666666,68.0,75.0
150,33.9791123,35.12667990833333,40.0,83.0
151,35.6457763,36.140567175,61.0,85.0
152,36.0624423,36.49820549166667,57.0,81.0
153,36.4791083,36.95480198333333,66.0,81.0
154,36.4791083,36.956538091666665,61.0,80.0
155,35.6457763,37.05376015833333,42.0,82.0
156,36.4791083,37.18396828333333,49.0,66.0
157,36.8957743,37.42702345,57.0,80.0
158,37.3124403,37.805495066666666,61.0,80.0
159,37.3124403,37.92355043333333,42.0,74.0
160,37.7291063,37.94438373333333,57.0,75.0
161,38.1457723,38.598896575,61.0,82.0
162,38.1457723,38.61452155,66.0,81.0
163,38.5624383,38.82459065833333,57.0,81.0
164,38.979104299999996,39.163131783333334,57.0,79.0
165,38.979104299999996,39.52250620833333,62.0,81.0
166,39.395770299999995,39.578061675,57.0,69.0
167,38.979104299999996,39.75340861666667,50.0,82.0
168,39.8124363,39.859311225,57.0,62.0
169,39.8124363,40.373199291666666,66.0,73.0
170,39.8124363,40.48257411666666,62.0,81.0
171,40.2291023,40.6457683,33.0,73.0
172,40.6457683,40.900976225,57.0,74.0
173,40.6457683,41.28986449166666,66.0,77.0
174,40.6457683,41.30201725,62.0,80.0
175,41.0624343,41.32979498333333,57.0,73.0
176,41.4791003,41.713474925,57.0,81.0
177,40.6457683,41.96694674166667,38.0,81.0
178,41.8957663,42.2499324,57.0,82.0
179,41.4791003,42.25166850833333,62.0,85.0
180,41.4791003,42.274237916666664,66.0,81.0
181,42.3124323,42.812431499999995,61.0,80.0
182,42.3124323,42.821112041666666,57.0,76.0
183,43.145764299999996,43.19784755,57.0,68.0
184,42.7290983,43.255139125,52.0,80.0
185,42.3124323,43.38361114166666,45.0,82.0
186,43.145764299999996,43.46173601666666,61.0,83.0
187,43.145764299999996,43.47562488333333,64.0,82.0
188,43.562430299999995,43.824582658333334,57.0,73.0
189,43.979096299999995,44.27249860833333,57.0,69.0
190,43.979096299999995,44.425276141666664,64.0,79.0
191,43.979096299999995,44.43569279166667,61.0,68.0
192,44.8124283,44.95999750833333,57.0,77.0
193,44.3957623,44.992983566666666,52.0,64.0
194,43.979096299999995,45.09541395833333,45.0,65.0
195,44.8124283,45.126663908333335,61.0,84.0
196,44.8124283,45.19437213333333,64.0,82.0
197,45.2290943,45.38187183333333,57.0,75.0
198,45.6457603,46.150967824999995,59.0,70.0
199,45.6457603,46.17700945,64.0,66.0
200,46.4790923,46.61103653333333,59.0,80.0
201,46.4790923,46.654439241666665,64.0,81.0
202,46.0624263,46.71520303333333,47.0,62.0
203,46.4790923,46.8540917,68.0,72.0
204,45.6457603,47.00166090833333,40.0,81.0
205,46.8957583,47.11798016666666,59.0,70.0
206,47.312424299999996,47.68915980833333,59.0,75.0
207,47.312424299999996,47.76728468333333,64.0,79.0
208,47.729090299999996,48.302006049999996,47.0,58.0
209,48.145756299999995,48.308950483333334,59.0,78.0
210,47.312424299999996,48.430478066666666,40.0,76.0
211,48.145756299999995,48.562422299999994,68.0,80.0
212,48.145756299999995,48.609297225,64.0,82.0
213,48.562422299999994,48.71519983333333,59.0,82.0
214,48.9790883,49.5207541,57.0,74.0
215,48.9790883,49.55374015833333,61.0,76.0
216,49.8124203,49.95998950833333,66.0,76.0
217,49.8124203,49.96693394166667,61.0,86.0
218,48.9790883,50.425266541666666,42.0,82.0
219,49.3957543,50.453044274999996,49.0,62.0
220,50.2290863,50.552002449999996,57.0,76.0
221,50.6457523,51.229084699999994,61.0,69.0
222,50.6457523,51.279431841666664,57.0,75.0
223,51.0624183,51.744708875,49.0,69.0
224,50.6457523,51.79331990833333,42.0,82.0
225,51.4790843,51.92873635833333,61.0,87.0
226,51.4790843,51.94956965833333,66.0,80.0
227,51.895750299999996,52.178735958333334,57.0,81.0
228,52.312416299999995,52.56588811666666,57.0,71.0
229,52.312416299999995,52.83498490833333,62.0,78.0
230,52.729082299999995,52.99123465833333,57.0,77.0
231,53.1457483,53.338456324999996,57.0,80.0
232,53.5624143,53.76206675833333,57.0,71.0
233,53.1457483,53.77421951666666,62.0,81.0
234,53.1457483,53.826302766666664,66.0,75.0
235,52.312416299999995,53.83151109166666,50.0,80.0
236,53.9790803,54.21519103333333,59.0,76.0
237,53.9790803,54.307204774999995,64.0,81.0
238,53.9790803,54.4374129,52.0,85.0
239,54.3957463,54.92005101666666,59.0,81.0
240,54.8124123,55.13880066666666,40.0,82.0
241,54.8124123,55.20998110833333,68.0,69.0
242,54.8124123,55.218661649999994,64.0,80.0
243,55.2290783,55.36102253333333,59.0,83.0
244,55.6457443,56.13706295833333,64.0,78.0
245,55.6457443,56.138799066666664,57.0,72.0
246,55.6457443,56.140535175,61.0,67.0
247,56.479076299999996,56.630117725,64.0,81.0
248,56.479076299999996,56.64747880833333,61.0,84.0
249,56.062410299999996,56.9999088,52.0,71.0
250,55.6457443,57.04331150833333,45.0,80.0
251,56.895742299999995,57.40442204166666,57.0,72.0
252,57.312408299999994,57.68046326666666,64.0,82.0
253,57.312408299999994,57.713449325,61.0,70.0
254,58.1457403,58.305462266666666,57.0,76.0
255,57.7290743,58.328031675,52.0,66.0
256,57.312408299999994,58.381851033333334,45.0,80.0
257,58.1457403,58.551989649999996,61.0,83.0
258,58.1457403,58.588447925,64.0,82.0
259,58.5624063,58.682197775,57.0,65.0
260,58.9790723,59.180460866666664,59.0,74.0
261,58.9790723,59.56934913333333,64.0,80.0
262,59.3957383,59.69955725833333,59.0,72.0
263,59.8124043,60.17351483333333,68.0,80.0
264,59.8124043,60.28809798333333,64.0,81.0
265,58.9790723,60.45997270833333,40.0,81.0
266,60.2290703,60.74816669166666,59.0,82.0
267,60.645736299999996,61.15788825833333,64.0,81.0
268,61.062402299999995,61.34191574166666,59.0,78.0
269,61.062402299999995,61.67351243333333,47.0,62.0
270,61.479068299999994,61.67872075833333,59.0,82.0
271,61.479068299999994,61.701290166666666,64.0,83.0
272,61.479068299999994,61.73254011666666,68.0,75.0
273,60.645736299999996,61.79330390833333,40.0,83.0
274,62.3124003,62.807191175,61.0,85.0
275,62.7290663,63.164829491666666,57.0,81.0
276,63.1457323,63.62142598333333,66.0,81.0
277,63.1457323,63.623162091666664,61.0,80.0
278,62.3124003,63.72038415833333,42.0,82.0
279,63.1457323,63.85059228333333,49.0,66.0
280,63.5623983,64.09364744999999,57.0,80.0
281,63.9790643,64.47211906666666,61.0,80.0
282,63.9790643,64.59017443333333,42.0,74.0
283,64.3957303,64.61100773333332,57.0,75.0
284,64.8123963,65.265520575,61.0,82.0
285,64.8123963,65.28114554999999,66.0,81.0
286,65.2290623,65.49121465833333,57.0,81.0
287,65.6457283,65.82975578333333,57.0,79.0
288,65.6457283,66.18913020833332,62.0,81.0
289,66.0623943,66.244685675,57.0,69.0
290,65.6457283,66.42003261666666,50.0,82.0
291,66.4790603,66.525935225,57.0,62.0
292,66.4790603,67.03982329166666,66.0,73.0
293,66.4790603,67.14919811666667,62.0,81.0
294,66.89572629999999,67.3123923,33.0,73.0
295,67.3123923,67.56760022499999,57.0,74.0
296,67.3123923,67.95648849166666,66.0,77.0
297,67.3123923,67.96864124999999,62.0,80.0
298,67.72905829999999,67.99641898333333,57.0,73.0
299,68.1457243,68.380098925,57.0,81.0
300,67.3123923,68.63357074166666,38.0,81.0
301,68.56239029999999,68.91655639999999,57.0,82.0
302,68.1457243,68.91829250833332,62.0,85.0
303,68.1457243,68.94086191666666,66.0,81.0
304,68.9790563,69.39225008333332,68.0,77.0
305,68.9790563,69.494680475,47.0,79.0
306,68.9790563,69.51898599166667,40.0,80.0
307,69.3957223,69.70474958333332,64.0,76.0
308,69.8123883,70.05544346666666,64.0,81.0
309,69.8123883,70.21169321666666,68.0,76.0
310,69.8123883,70.26898479166667,47.0,75.0
311,69.8123883,70.307179175,40.0,77.0
312,70.2290543,70.47558168333333,64.0,80.0
313,70.6457203,70.84710886666666,64.0,76.0
314,70.6457203,71.11446955,68.0,71.0
315,70.6457203,71.13183063333334,47.0,71.0
316,70.6457203,71.17523334166667,40.0,72.0
317,71.0623863,71.24467767499999,64.0,76.0
318,71.47905229999999,71.692593625,64.0,80.0
319,71.47905229999999,71.95821819999999,68.0,74.0
320,71.47905229999999,72.11099573333333,47.0,73.0
321,71.47905229999999,72.130092925,40.0,79.0
322,71.8957183,72.244676075,64.0,82.0
323,72.31238429999999,72.7290503,60.0,80.0
324,72.31238429999999,72.86620285833332,38.0,76.0
325,72.31238429999999,72.869675075,45.0,74.0
326,72.7290503,73.036341475,57.0,79.0
327,73.1457163,73.400924225,57.0,79.0
328,73.1457163,73.62661830833333,60.0,76.0
329,73.1457163,73.749882,45.0,80.0
330,73.1457163,73.78460416666667,38.0,86.0
331,73.5623823,73.83495130833333,57.0,78.0
332,73.9790483,74.213422925,57.0,79.0
333,73.9790483,74.50161690833333,60.0,82.0
334,73.9790483,74.619672275,45.0,75.0
335,74.3957143,74.64571389999999,57.0,70.0
336,73.9790483,74.64918611666667,38.0,81.0
337,74.8123803,75.015504975,57.0,79.0
338,74.8123803,75.369671075,60.0,76.0
339,75.2290463,75.494670875,57.0,81.0
340,74.8123803,75.5832124,45.0,75.0
341,74.8123803,75.58668461666666,38.0,78.0
342,75.6457123,75.880086925,57.0,74.0
343,75.6457123,76.15265593333334,63.0,74.0
344,75.6457123,76.24814189166666,54.0,74.0
345,76.06237829999999,76.25161410833333,57.0,71.0
346,75.6457123,76.27244740833333,47.0,80.0
347,76.4790443,76.786335475,57.0,79.0
348,76.4790443,77.04327950833333,63.0,74.0
349,76.4790443,77.06584891666667,54.0,73.0
350,76.4790443,77.08147389166666,47.0,80.0
351,76.89571029999999,77.16307098333333,57.0,72.0
352,77.3123763,77.588417525,57.0,77.0
353,77.3123763,77.890500375,63.0,74.0
354,77.3123763,77.95647249166666,54.0,75.0
355,77.7290423,77.96341692499999,57.0,66.0
356,77.3123763,77.97209746666667,47.0,80.0
357,78.1457083,78.36619405833333,57.0,79.0
358,78.1457083,78.95126256666666,54.0,80.0
359,78.1457083,78.952998675,63.0,74.0
360,78.5623743,78.96515143333333,57.0,80.0
361,78.1457083,78.97209586666666,47.0,82.0
362,78.9790403,79.13702615833333,54.0,83.0
363,79.18737329999999,79.27244260833334,54.0,67.0
364,78.9790403,79.31931753333333,66.0,69.0
365,78.9790403,79.35577580833333,42.0,91.0
366,79.3957063,79.48077560833333,54.0,87.0
367,79.3957063,79.50508112499999,42.0,76.0
368,79.3957063,79.515497775,66.0,75.0
369,79.6040393,79.994663675,56.0,91.0
370,79.6040393,80.02764973333333,68.0,81.0
371,79.6040393,80.03285805833333,44.0,96.0
372,80.2290383,80.3957047,69.0,82.0
373,80.2290383,80.463412925,57.0,78.0
374,80.2290383,80.51028785,45.0,82.0
375,80.84882897499999,81.5832028,57.0,75.0
376,80.84882897499999,81.59014723333333,48.0,82.0
377,80.84882897499999,81.6040361,60.0,84.0
378,80.84882897499999,81.6040361,67.0,84.0
379,81.47903629999999,82.2082018,59.0,85.0
380,81.47903629999999,82.2082018,66.0,85.0
381,81.47903629999999,82.22035455833333,47.0,85.0
382,82.3123683,82.81757582499999,63.0,68.0
383,82.3123683,82.84361745,69.0,78.0
384,82.3123683,82.92695065,47.0,80.0
385,82.7290343,82.98771444166667,59.0,75.0
386,83.1457003,83.56583851666666,54.0,70.0
387,83.1457003,83.630074525,47.0,75.0
388,83.1457003,83.63354674166666,63.0,73.0
389,83.1457003,83.64743560833332,69.0,76.0
390,83.5623663,84.04326830833332,59.0,74.0
391,83.9790323,84.484239825,54.0,69.0
392,83.9790323,84.49292036666667,63.0,79.0
393,83.9790323,84.51028145,47.0,73.0
394,83.9790323,84.51028145,69.0,79.0
395,84.39569829999999,84.59535075833332,59.0,69.0
396,84.8123643,85.01028065,59.0,80.0
397,84.8123643,85.30541906666666,63.0,74.0
398,84.8123643,85.31583571666667,54.0,68.0
399,85.22903029999999,85.411321675,59.0,84.0
400,84.8123643,85.44083551666667,69.0,79.0
401,84.8123643,85.442571625,47.0,73.0
402,85.6456963,85.827987675,57.0,73.0
403,85.6456963,86.18041766666666,66.0,72.0
404,85.6456963,86.22034815833332,60.0,76.0
405,85.6456963,86.23770924166666,50.0,91.0
406,86.06236229999999,86.55194485,57.0,75.0
407,86.4790283,86.93388868333334,50.0,86.0
408,86.4790283,87.13874946666667,60.0,82.0
409,86.4790283,87.14916611666666,66.0,80.0
410,86.8956943,87.27763813333333,45.0,81.0
411,86.8956943,87.42867955833333,57.0,72.0
412,87.3123603,87.94777595,60.0,76.0
413,87.3123603,88.00159530833334,66.0,76.0
414,87.3123603,88.025900825,50.0,85.0
415,88.1456923,88.890482775,66.0,81.0
416,88.1456923,88.89221888333333,60.0,83.0
417,88.5623583,88.8956911,57.0,82.0
418,88.1456923,88.94430213333332,50.0,89.0
419,88.97902429999999,89.45645409166666,57.0,73.0
420,88.97902429999999,89.45819019999999,60.0,75.0
421,88.97902429999999,89.48075960833333,63.0,74.0
422,88.97902429999999,89.619648275,41.0,81.0
423,89.3956903,89.87138398333333,53.0,75.0
424,89.81235629999999,90.30888328333333,57.0,74.0
425,89.81235629999999,90.34013323333333,63.0,72.0
426,89.81235629999999,90.35054988333333,60.0,74.0
427,89.81235629999999,90.421730325,41.0,80.0
428,90.2290223,90.70992430833333,53.0,80.0
429,90.64568829999999,91.10922922499999,57.0,70.0
430,90.64568829999999,91.20471518333333,60.0,75.0
431,90.64568829999999,91.2081874,63.0,70.0
432,90.64568829999999,91.28284005833333,41.0,80.0
433,91.0623543,91.5623535,53.0,80.0
434,91.4790203,91.80367255833333,41.0,80.0
435,91.4790203,91.85575580833333,57.0,75.0
436,91.4790203,91.88700575833333,60.0,76.0
437,91.4790203,91.96165841666667,63.0,73.0
438,91.8956863,92.24117185833333,53.0,81.0
439,92.72901829999999,92.87832361666666,40.0,82.0
440,92.72901829999999,92.89047637499999,56.0,71.0
441,92.72901829999999,92.900893025,52.0,80.0
442,92.72901829999999,92.90957356666667,59.0,76.0
443,93.1456843,93.24637858333332,56.0,76.0
444,93.1456843,93.24985079999999,52.0,81.0
445,93.1456843,93.26721188333333,40.0,81.0
446,93.1456843,93.2706841,59.0,81.0
447,93.56235029999999,93.661308475,56.0,72.0
448,93.56235029999999,93.68908620833334,52.0,80.0
449,93.56235029999999,93.69082231666667,40.0,82.0
450,93.56235029999999,93.70123896666666,59.0,80.0
451,93.9790163,94.10054388333333,56.0,73.0
452,93.9790163,94.12658550833333,52.0,81.0
453,93.9790163,94.13352994166667,59.0,80.0
454,93.9790163,94.13873826666666,40.0,84.0
455,94.39568229999999,94.50679323333333,56.0,71.0
456,94.39568229999999,94.51720988333332,52.0,80.0
457,94.39568229999999,94.53457096666666,40.0,82.0
458,94.39568229999999,94.536307075,59.0,79.0
459,94.8123483,94.99811189166667,40.0,87.0
460,94.8123483,95.01200075833333,52.0,82.0
461,94.8123483,95.015472975,56.0,82.0
462,94.8123483,95.02241740833333,64.0,87.0
463,94.8123483,95.03283405833334,59.0,84.0
464,95.22901429999999,95.34012523333332,52.0,82.0
465,95.22901429999999,95.35575020833333,56.0,81.0
466,95.22901429999999,95.35748631666667,59.0,81.0
467,95.22901429999999,95.37311129166666,64.0,81.0
468,95.22901429999999,95.37658350833333,40.0,84.0
469,95.6456803,95.99116585833333,61.0,75.0
470,95.6456803,95.99811029166666,57.0,73.0
471,95.6456803,96.01547137499999,64.0,83.0
472,96.0623463,96.52588722499999,52.0,66.0
473,95.6456803,96.58144269166667,45.0,81.0
474,96.4790123,96.62137318333333,61.0,85.0
475,96.4790123,96.6248454,57.0,80.0
476,96.4790123,96.69949805833333,64.0,85.0
477,97.1040113,97.26720548333333,57.0,80.0
478,97.1040113,97.28283045833332,64.0,82.0
479,97.31234429999999,97.619635475,45.0,78.0
480,97.52067729999999,97.72727419166667,57.0,76.0
481,97.52067729999999,97.74116305833333,61.0,87.0
482,97.9373433,98.04324590833333,57.0,81.0
483,97.7290103,98.06407920833333,52.0,81.0
484,98.14567629999999,98.37310649166666,57.0,82.0
485,98.14567629999999,98.44602304166666,64.0,82.0
486,98.3540093,98.49637018333333,52.0,79.0
487,98.5623423,98.75157810833333,57.0,82.0
488,98.97900829999999,99.07970258333333,37.0,80.0
489,98.97900829999999,99.15956356666666,56.0,76.0
490,98.97900829999999,99.44602144166666,61.0,81.0
491,98.97900829999999,99.55886848333333,64.0,82.0
492,99.3956743,99.69775715,56.0,71.0
493,99.8123403,99.89046517499999,49.0,89.0
494,99.8123403,99.96164561666666,56.0,77.0
495,99.8123403,100.01199275833334,61.0,76.0
496,99.8123403,100.01720108333333,64.0,83.0
497,100.43733929999999,100.73247771666666,56.0,78.0
498,100.6456723,100.83838032499999,49.0,82.0
499,100.43733929999999,100.91650519999999,61.0,79.0
500,100.43733929999999,100.91824130833332,64.0,82.0
501,100.8540053,100.98594953333333,56.0,83.0
502,101.27067129999999,101.47032375833332,56.0,78.0
503,101.4790043,101.58664301666666,56.0,71.0
504,101.4790043,101.6040041,44.0,81.0
505,101.4790043,101.61615685833333,61.0,82.0
506,101.4790043,101.64740680833333,64.0,81.0
507,101.6873373,101.93039246666666,56.0,81.0
508,101.89567029999999,102.00157290833333,49.0,84.0
509,101.89567029999999,102.16303098333333,64.0,83.0
510,101.89567029999999,102.17865595833332,61.0,83.0
511,102.1040033,102.25851694166666,56.0,80.0
512,102.3123363,102.89219648333332,61.0,80.0
513,102.3123363,102.91997421666666,57.0,74.0
514,102.3123363,103.22552928333333,42.0,83.0
515,102.72900229999999,103.27761253333333,49.0,69.0
516,103.1456683,103.50157050833333,66.0,78.0
517,103.1456683,103.52761213333334,61.0,85.0
518,103.1456683,103.53802878333333,57.0,80.0
519,103.7706673,103.932125375,57.0,77.0
520,103.7706673,103.94427813333333,61.0,84.0
521,103.7706673,103.963375325,66.0,81.0
522,103.9790003,104.11094453333332,42.0,81.0
523,104.18733329999999,104.27413871666666,57.0,73.0
524,104.18733329999999,104.36094413333333,61.0,84.0
525,104.3956663,104.53108275,49.0,81.0
526,104.6039993,104.70990190833332,57.0,73.0
527,104.8123323,105.05017914166666,57.0,82.0
528,104.8123323,105.11788736666666,42.0,85.0
529,104.8123323,105.12135958333333,49.0,83.0
530,104.8123323,105.27413711666667,61.0,91.0
531,104.8123323,105.28802598333333,66.0,81.0
532,105.2289983,105.39219248333333,57.0,83.0
533,105.64566429999999,105.8748306,59.0,76.0
534,105.64566429999999,106.08142749166666,40.0,87.0
535,105.64566429999999,106.10226079166667,64.0,81.0
536,106.0623303,106.2289967,59.0,81.0
537,106.47899629999999,106.82100964166666,64.0,86.0
538,106.47899629999999,106.859204025,68.0,82.0
539,106.47899629999999,106.88003732499999,59.0,82.0
540,107.1039953,107.37656430833333,59.0,83.0
541,107.1039953,107.38698095833333,64.0,85.0
542,107.1039953,107.442536425,68.0,82.0
543,107.31232829999999,107.55885568333333,40.0,82.0
544,107.5206613,107.58316119999999,59.0,80.0
545,107.5206613,107.82100804166666,64.0,82.0
546,107.93732729999999,108.01024385,64.0,76.0
547,107.7289943,108.04496601666666,59.0,89.0
548,108.14566029999999,108.24635458333333,47.0,81.0
549,108.14566029999999,108.25677123333332,40.0,85.0
550,108.14566029999999,108.27760453333333,59.0,85.0
551,108.14566029999999,108.33836832499999,64.0,89.0
552,108.14566029999999,108.37482659999999,68.0,89.0
553,108.3539933,108.42343763333332,47.0,74.0
554,108.3539933,108.45642369166666,40.0,76.0
555,108.5623263,108.66475669166667,59.0,82.0
556,108.5623263,108.87656190833333,68.0,80.0
557,108.77065929999999,108.97378397499999,59.0,81.0
558,108.5623263,108.9789923,64.0,83.0
559,108.9789923,109.13003372499999,61.0,75.0
560,108.9789923,109.140450375,65.0,80.0
561,108.9789923,109.1456587,37.0,82.0
562,108.9789923,109.14739480833333,56.0,74.0
563,109.3956583,109.56232469999999,65.0,79.0
564,109.3956583,109.56753302499999,61.0,69.0
565,109.3956583,109.57447745833333,56.0,68.0
566,109.3956583,109.59531075833333,37.0,68.0
567,109.8123243,109.91301858333333,56.0,76.0
568,109.8123243,109.91301858333333,61.0,81.0
569,109.8123243,109.94774075,65.0,81.0
570,109.8123243,110.08489330833333,37.0,86.0
571,110.22899029999999,110.32274015,56.0,73.0
572,110.22899029999999,110.33489290833333,61.0,78.0
573,110.22899029999999,110.34878177499999,37.0,78.0
574,110.43732329999999,110.5414898,56.0,80.0
575,110.6456563,110.71683674166667,56.0,73.0
576,110.6456563,110.79496161666667,37.0,80.0
577,110.6456563,110.84704486666666,61.0,86.0
578,110.6456563,110.87655870833333,65.0,80.0
579,111.06232229999999,111.17690544999999,65.0,78.0
580,111.06232229999999,111.202947075,61.0,73.0
581,111.2706553,111.36440515,56.0,75.0
582,111.4789883,111.75676563333333,56.0,83.0
583,111.4789883,111.76023785,37.0,82.0
584,111.4789883,111.77586282499999,65.0,81.0
585,111.4789883,111.78975169166667,61.0,81.0
586,111.89565429999999,112.24808429166666,56.0,81.0
587,111.89565429999999,112.27933424166666,37.0,80.0
588,111.89565429999999,112.28107035,65.0,81.0
589,111.89565429999999,112.28454256666666,61.0,74.0
590,112.3123203,112.53454216666667,57.0,79.0
591,112.3123203,112.69947245833333,42.0,85.0
592,112.3123203,112.75850014166666,61.0,82.0
593,112.3123203,112.76370846666666,66.0,77.0
594,112.72898629999999,112.81405560833333,57.0,75.0
595,113.1456523,113.35398529999999,59.0,76.0
596,113.1456523,113.61440155,64.0,80.0
597,113.1456523,113.61787376666666,68.0,76.0
598,113.1456523,113.77412351666666,40.0,84.0
599,113.5623183,113.82794287499999,59.0,80.0
600,113.9789843,114.23592833333333,57.0,80.0
601,113.9789843,114.61266384166666,62.0,73.0
602,113.9789843,114.62481659999999,38.0,77.0
603,114.3956503,114.66821930833333,57.0,81.0
604,114.81231629999999,115.03280205833333,56.0,75.0
605,114.81231629999999,115.54321790833333,64.0,84.0
606,114.81231629999999,115.55189845,61.0,78.0
607,115.2289823,115.59703726666666,56.0,81.0
608,114.81231629999999,115.60050948333333,37.0,81.0
609,115.64564829999999,115.83835632499999,57.0,80.0
610,115.64564829999999,116.17342523333333,66.0,76.0
611,115.64564829999999,116.19946685833332,62.0,81.0
612,115.64564829999999,116.27411951666666,38.0,84.0
613,116.0623143,116.27932784166666,57.0,75.0
614,116.47898029999999,116.62828561666666,57.0,82.0
615,116.47898029999999,116.7289799,62.0,86.0
616,116.47898029999999,116.98418782499999,66.0,82.0
617,116.8956463,116.98766004166666,62.0,44.0
618,116.8956463,117.16821530833333,57.0,84.0
619,117.31231229999999,117.48592313333333,57.0,81.0
620,117.31231229999999,117.81925593333332,66.0,80.0
621,117.31231229999999,117.838353125,62.0,82.0
622,117.31231229999999,117.848769775,38.0,86.0
623,117.7289783,117.98592233333333,57.0,73.0
624,118.1456443,118.30883848333333,50.0,80.0
625,118.1456443,118.33314399999999,54.0,71.0
626,118.1456443,118.359185625,57.0,75.0
627,118.1456443,118.38696335833333,38.0,83.0
628,118.5623103,119.14217048333333,52.0,81.0
629,118.5623103,119.14217048333333,56.0,76.0
630,119.39564229999999,119.50328101666666,56.0,51.0
631,119.39564229999999,119.52411431666665,52.0,72.0
632,119.39564229999999,119.55710037499999,59.0,71.0
633,119.8123083,119.93036366666666,59.0,89.0
634,119.8123083,119.93383588333333,52.0,85.0
635,118.9789763,119.942516425,47.0,74.0
636,119.8123083,119.95466918333332,56.0,85.0
637,119.8123083,119.973766375,64.0,85.0
638,118.5623103,120.005016325,40.0,89.0
639,120.22897429999999,120.35571020833333,47.0,51.0
640,120.4373073,120.58487650833332,52.0,81.0
641,120.6456403,121.32966698333333,64.0,81.0
642,120.6456403,121.33661141666666,56.0,76.0
643,120.6456403,121.33834752499999,52.0,82.0
644,120.6456403,121.34529195833333,59.0,76.0
645,121.4789723,121.588347125,52.0,82.0
646,121.4789723,121.713346925,47.0,75.0
647,121.4789723,121.89737440833333,64.0,81.0
648,121.4789723,121.90431884166667,56.0,79.0
649,121.68730529999999,121.93904100833333,52.0,87.0
650,121.4789723,121.94077711666667,59.0,80.0
651,120.6456403,122.20292947499999,40.0,82.0
652,122.1039713,122.30188765,52.0,89.0
653,121.89563829999999,122.3123043,47.0,82.0
654,122.3123043,122.65778985833333,61.0,75.0
655,122.3123043,122.66473429166666,57.0,73.0
656,122.3123043,122.68209537499999,64.0,83.0
657,122.7289703,123.19251122499999,52.0,66.0
658,122.3123043,123.24806669166666,45.0,81.0
659,123.14563629999999,123.28799718333333,61.0,85.0
660,123.14563629999999,123.2914694,57.0,80.0
661,123.14563629999999,123.36612205833333,64.0,85.0
662,123.7706353,123.93382948333333,57.0,80.0
663,123.7706353,123.94945445833332,64.0,82.0
664,123.97896829999999,124.286259475,45.0,78.0
665,124.18730129999999,124.39389819166666,57.0,76.0
666,124.18730129999999,124.40778705833333,61.0,87.0
667,124.6039673,124.70986990833333,57.0,81.0
668,124.3956343,124.73070320833332,52.0,81.0
669,124.81230029999999,125.03973049166666,57.0,82.0
670,124.81230029999999,125.11264704166666,64.0,82.0
671,125.0206333,125.16299418333332,52.0,79.0
672,125.2289663,125.41820210833333,57.0,82.0
673,125.64563229999999,125.74632658333333,37.0,80.0
674,125.64563229999999,125.82618756666666,56.0,76.0
675,125.64563229999999,126.11264544166666,61.0,81.0
676,125.64563229999999,126.22549248333333,64.0,82.0
677,126.0622983,126.36438115,56.0,71.0
678,126.4789643,126.55708917499999,49.0,89.0
679,126.4789643,126.62826961666666,56.0,77.0
680,126.4789643,126.67861675833333,61.0,76.0
681,126.4789643,126.68382508333333,64.0,83.0
682,127.10396329999999,127.39910171666666,56.0,78.0
683,127.3122963,127.50500432499999,49.0,82.0
684,127.10396329999999,127.58312919999999,61.0,79.0
685,127.10396329999999,127.58486530833332,64.0,82.0
686,127.5206293,127.65257353333332,56.0,83.0
687,127.93729529999999,128.13694775833332,56.0,78.0
688,128.1456283,128.25326701666665,56.0,71.0
689,128.1456283,128.27062809999998,44.0,81.0
690,128.1456283,128.28278085833333,61.0,82.0
691,128.1456283,128.3140308083333,64.0,81.0
692,128.35396129999998,128.59701646666667,56.0,81.0
693,128.5622943,128.66819690833333,49.0,84.0
694,128.5622943,128.82965498333334,64.0,83.0
695,128.5622943,128.84527995833332,61.0,83.0
696,128.7706273,128.92514094166665,56.0,80.0
697,128.97896029999998,129.55882048333334,61.0,80.0
698,128.97896029999998,129.58659821666666,57.0,74.0
699,128.97896029999998,129.89215328333333,42.0,83.0
700,129.3956263,129.94423653333334,49.0,69.0
701,129.8122923,130.16819450833333,66.0,78.0
702,129.8122923,130.19423613333333,61.0,85.0
703,129.8122923,130.20465278333333,57.0,80.0
704,130.4372913,130.59874937499998,57.0,77.0
705,130.4372913,130.61090213333333,61.0,84.0
706,130.4372913,130.629999325,66.0,81.0
707,130.64562429999998,130.77756853333332,42.0,81.0
708,130.8539573,130.94076271666665,57.0,73.0
709,130.8539573,131.02756813333332,61.0,84.0
710,131.0622903,131.19770674999998,49.0,81.0
711,131.27062329999998,131.37652590833332,57.0,73.0
712,131.4789563,131.71680314166667,57.0,82.0
713,131.4789563,131.78451136666666,42.0,85.0
714,131.4789563,131.78798358333333,49.0,83.0
715,131.4789563,131.94076111666666,61.0,91.0
716,131.4789563,131.95464998333333,66.0,81.0
717,131.89562229999999,132.05881648333332,57.0,83.0
718,132.3122883,132.54145459999998,59.0,76.0
719,132.3122883,132.74805149166667,40.0,87.0
720,132.3122883,132.76888479166666,64.0,81.0
721,132.7289543,132.8956207,59.0,81.0
722,133.1456203,133.48763364166666,64.0,86.0
723,133.1456203,133.52582802499998,68.0,82.0
724,133.1456203,133.546661325,59.0,82.0
725,133.7706193,134.04318830833333,59.0,83.0
726,133.7706193,134.05360495833332,64.0,85.0
727,133.7706193,134.109160425,68.0,82.0
728,133.9789523,134.22547968333333,40.0,82.0
729,134.18728529999998,134.2497852,59.0,80.0
730,134.18728529999998,134.48763204166667,64.0,82.0
731,134.6039513,134.67686785,64.0,76.0
732,134.3956183,134.71159001666666,59.0,89.0
733,134.8122843,134.9129785833333,47.0,81.0
734,134.8122843,134.92339523333334,40.0,85.0
735,134.8122843,134.94422853333333,59.0,85.0
736,134.8122843,135.004992325,64.0,89.0
737,134.8122843,135.0414506,68.0,89.0
738,135.0206173,135.09006163333333,47.0,74.0
739,135.0206173,135.12304769166667,40.0,76.0
740,135.22895029999998,135.33138069166665,59.0,82.0
741,135.22895029999998,135.54318590833333,68.0,80.0
742,135.4372833,135.640407975,59.0,81.0
743,135.22895029999998,135.6456163,64.0,83.0
744,135.6456163,135.796657725,61.0,75.0
745,135.6456163,135.80707437499998,65.0,80.0
746,135.6456163,135.8122827,37.0,82.0
747,135.6456163,135.81401880833332,56.0,74.0
748,136.0622823,136.2289487,65.0,79.0
749,136.0622823,136.234157025,61.0,69.0
750,136.0622823,136.24110145833333,56.0,68.0
751,136.0622823,136.26193475833333,37.0,68.0
752,136.47894829999998,136.57964258333334,56.0,76.0
753,136.47894829999998,136.57964258333334,61.0,81.0
754,136.47894829999998,136.61436475,65.0,81.0
755,136.47894829999998,136.75151730833332,37.0,86.0
756,136.8956143,136.98936415,56.0,73.0
757,136.8956143,137.00151690833331,61.0,78.0
758,136.8956143,137.015405775,37.0,78.0
759,137.1039473,137.2081138,56.0,80.0
760,137.3122803,137.38346074166665,56.0,73.0
761,137.3122803,137.46158561666667,37.0,80.0
762,137.3122803,137.51366886666665,61.0,86.0
763,137.3122803,137.54318270833332,65.0,80.0
764,137.7289463,137.84352945,65.0,78.0
765,137.7289463,137.86957107499998,61.0,73.0
766,137.9372793,138.03102915,56.0,75.0
767,138.14561229999998,138.42338963333333,56.0,83.0
768,138.14561229999998,138.42686185,37.0,82.0
769,138.14561229999998,138.442486825,65.0,81.0
770,138.14561229999998,138.45637569166666,61.0,81.0
771,138.5622783,138.91470829166667,56.0,81.0
772,138.5622783,138.94595824166666,37.0,80.0
773,138.5622783,138.94769435,65.0,81.0
774,138.5622783,138.95116656666667,61.0,74.0
775,138.9789443,139.20116616666667,57.0,79.0
776,138.9789443,139.36609645833332,42.0,85.0
777,138.9789443,139.42512414166666,61.0,82.0
778,138.9789443,139.43033246666667,66.0,77.0
779,139.3956103,139.48067960833333,57.0,75.0
780,139.8122763,140.0206093,59.0,76.0
781,139.8122763,140.28102554999998,64.0,80.0
782,139.8122763,140.28449776666665,68.0,76.0
783,139.8122763,140.44074751666665,40.0,84.0
784,140.2289423,140.494566875,59.0,80.0
785,140.6456083,140.90255233333332,57.0,80.0
786,140.6456083,141.27928784166667,62.0,73.0
787,140.6456083,141.2914406,38.0,77.0
788,141.06227429999998,141.33484330833332,57.0,81.0
789,141.4789403,141.69942605833333,56.0,75.0
790,141.4789403,142.20984190833332,64.0,84.0
791,141.4789403,142.21852245,61.0,78.0
792,141.8956063,142.26366126666667,56.0,81.0
793,141.4789403,142.26713348333334,37.0,81.0
794,142.3122723,142.504980325,57.0,80.0
795,142.3122723,142.84004923333333,66.0,76.0
796,142.3122723,142.86609085833334,62.0,81.0
797,142.3122723,142.94074351666666,38.0,84.0
798,142.72893829999998,142.94595184166667,57.0,75.0
799,143.1456043,143.29490961666667,57.0,82.0
800,143.1456043,143.3956039,62.0,86.0
801,143.1456043,143.650811825,66.0,82.0
802,143.5622703,143.65428404166667,62.0,44.0
803,143.5622703,143.83483930833333,57.0,84.0
804,143.9789363,144.15254713333331,57.0,81.0
805,143.9789363,144.48587993333334,66.0,80.0
806,143.9789363,144.50497712499998,62.0,82.0
807,143.9789363,144.515393775,38.0,86.0
808,144.3956023,144.65254633333333,57.0,73.0
809,144.8122683,144.97546248333333,50.0,80.0
810,144.8122683,144.999768,54.0,71.0
811,144.8122683,145.025809625,57.0,75.0
812,144.8122683,145.05358735833332,38.0,83.0
813,145.2289343,145.80879448333332,52.0,81.0
814,145.2289343,145.80879448333332,56.0,76.0
815,146.0622663,146.16990501666666,56.0,51.0
816,146.0622663,146.19073831666665,52.0,72.0
817,146.0622663,146.223724375,59.0,71.0
818,146.4789323,146.59698766666665,59.0,89.0
819,146.4789323,146.60045988333331,52.0,85.0
820,145.64560029999998,146.609140425,47.0,74.0
821,146.4789323,146.62129318333334,56.0,85.0
822,146.4789323,146.64039037499998,64.0,85.0
823,145.2289343,146.671640325,40.0,89.0
824,146.8955983,147.02233420833332,47.0,51.0
825,147.1039313,147.25150050833332,52.0,81.0
826,147.31226429999998,147.99629098333332,64.0,81.0
827,147.31226429999998,148.00323541666666,56.0,76.0
828,147.31226429999998,148.004971525,52.0,82.0
829,147.31226429999998,148.01191595833333,59.0,76.0
830,148.1455963,148.254971125,52.0,82.0
831,148.1455963,148.37997092499998,47.0,75.0
832,148.1455963,148.56399840833333,64.0,81.0
833,148.1455963,148.57094284166666,56.0,79.0
834,148.3539293,148.60566500833332,52.0,87.0
835,148.1455963,148.60740111666667,59.0,80.0
836,147.31226429999998,148.869553475,40.0,82.0
837,148.7705953,148.96851164999998,52.0,89.0
838,148.5622623,148.9789283,47.0,82.0
839,148.9789283,149.4789275,61.0,80.0
840,148.9789283,149.48760804166665,57.0,76.0
841,149.8122603,149.86434355,57.0,68.0
842,149.3955943,149.921635125,52.0,80.0
843,148.9789283,150.05010714166667,45.0,82.0
844,149.8122603,150.12823201666666,61.0,83.0
845,149.8122603,150.14212088333332,64.0,82.0
846,150.22892629999998,150.49107865833332,57.0,73.0
847,150.6455923,150.93899460833333,57.0,69.0
848,150.6455923,151.09177214166667,64.0,79.0
849,150.6455923,151.10218879166666,61.0,68.0
850,151.4789243,151.62649350833334,57.0,77.0
851,151.0622583,151.65947956666665,52.0,64.0
852,150.6455923,151.76190995833332,45.0,65.0
853,151.4789243,151.79315990833334,61.0,84.0
854,151.4789243,151.86086813333333,64.0,82.0
855,151.89559029999998,152.04836783333332,57.0,75.0
856,152.3122563,152.817463825,59.0,70.0
857,152.3122563,152.84350544999998,64.0,66.0
858,153.1455883,153.27753253333333,59.0,80.0
859,153.1455883,153.32093524166666,64.0,81.0
860,152.7289223,153.38169903333332,47.0,62.0
861,153.1455883,153.5205877,68.0,72.0
862,152.3122563,153.66815690833332,40.0,81.0
863,153.5622543,153.78447616666665,59.0,70.0
864,153.9789203,154.35565580833332,59.0,75.0
865,153.9789203,154.43378068333334,64.0,79.0
866,154.3955863,154.96850204999998,47.0,58.0
867,154.81225229999998,154.97544648333331,59.0,78.0
868,153.9789203,155.09697406666666,40.0,76.0
869,154.81225229999998,155.2289183,68.0,80.0
870,154.81225229999998,155.275793225,64.0,82.0
871,155.2289183,155.38169583333334,59.0,82.0
872,155.6455843,156.1872501,57.0,74.0
873,155.6455843,156.22023615833334,61.0,76.0
874,156.47891629999998,156.62648550833333,66.0,76.0
875,156.47891629999998,156.63342994166666,61.0,86.0
876,155.6455843,157.09176254166667,42.0,82.0
877,156.0622503,157.119540275,49.0,62.0
878,156.8955823,157.21849845,57.0,76.0
879,157.3122483,157.89558069999998,61.0,69.0
880,157.3122483,157.94592784166667,57.0,75.0
881,157.72891429999999,158.41120487499998,49.0,69.0
882,157.3122483,158.45981590833333,42.0,82.0
883,158.1455803,158.59523235833333,61.0,87.0
884,158.1455803,158.61606565833333,66.0,80.0
885,158.5622463,158.84523195833333,57.0,81.0
886,158.9789123,159.23238411666665,57.0,71.0
887,158.9789123,159.50148090833332,62.0,78.0
888,159.39557829999998,159.65773065833332,57.0,77.0
889,159.8122443,160.004952325,57.0,80.0
890,160.2289103,160.42856275833333,57.0,71.0
891,159.8122443,160.44071551666667,62.0,81.0
892,159.8122443,160.49279876666665,66.0,75.0
893,158.9789123,160.49800709166666,50.0,80.0
894,160.6455763,160.88168703333332,59.0,76.0
895,160.6455763,160.973700775,64.0,81.0
896,160.6455763,161.1039089,52.0,85.0
897,161.06224229999998,161.58654701666666,59.0,81.0
898,161.4789083,161.80529666666666,40.0,82.0
899,161.4789083,161.87647710833332,68.0,69.0
900,161.4789083,161.88515765,64.0,80.0
901,161.8955743,162.02751853333334,59.0,83.0
902,162.31224029999998,162.80355895833333,64.0,78.0
903,162.31224029999998,162.80529506666667,57.0,72.0
904,162.31224029999998,162.807031175,61.0,67.0
905,163.1455723,163.296613725,64.0,81.0
906,163.1455723,163.3139748083333,61.0,84.0
907,162.7289063,163.66640479999998,52.0,71.0
908,162.31224029999998,163.7098075083333,45.0,80.0
909,163.5622383,164.07091804166666,57.0,72.0
910,163.97890429999998,164.34695926666666,64.0,82.0
911,163.97890429999998,164.379945325,61.0,70.0
912,164.8122363,164.97195826666666,57.0,76.0
913,164.3955703,164.994527675,52.0,66.0
914,163.97890429999998,165.04834703333333,45.0,80.0
915,164.8122363,165.21848565,61.0,83.0
916,164.8122363,165.254943925,64.0,82.0
917,165.2289023,165.348693775,57.0,65.0
918,165.64556829999998,165.84695686666666,59.0,74.0
919,165.64556829999998,166.23584513333333,64.0,80.0
920,166.0622343,166.36605325833332,59.0,72.0
921,166.4789003,166.84001083333334,68.0,80.0
922,166.4789003,166.95459398333333,64.0,81.0
923,165.64556829999998,167.12646870833333,40.0,81.0
924,166.89556629999998,167.41466269166665,59.0,82.0
925,167.3122323,167.82438425833334,64.0,81.0
926,167.7288983,168.00841174166666,59.0,78.0
927,167.7288983,168.34000843333334,47.0,62.0
928,168.1455643,168.34521675833332,59.0,82.0
929,168.1455643,168.36778616666666,64.0,83.0
930,168.1455643,168.39903611666665,68.0,75.0
931,167.3122323,168.45979990833334,40.0,83.0
932,168.9788963,169.47368717499998,61.0,85.0
933,169.3955623,169.83132549166666,57.0,81.0
934,169.8122283,170.28792198333332,66.0,81.0
935,169.8122283,170.28965809166667,61.0,80.0
936,168.9788963,170.38688015833333,42.0,82.0
937,169.8122283,170.51708828333332,49.0,66.0
938,170.22889429999998,170.76014345,57.0,80.0
939,170.6455603,171.13861506666666,61.0,80.0
940,170.6455603,171.2566704333333,42.0,74.0
941,171.0622263,171.27750373333333,57.0,75.0
942,171.47889229999998,171.932016575,61.0,82.0
943,171.47889229999998,171.94764155,66.0,81.0
944,171.8955583,172.15771065833331,57.0,81.0
945,172.3122243,172.49625178333332,57.0,79.0
946,172.3122243,172.85562620833332,62.0,81.0
947,172.7288903,172.911181675,57.0,69.0
948,172.3122243,173.08652861666667,50.0,82.0
949,173.14555629999998,173.19243122499998,57.0,62.0
950,173.14555629999998,173.70631929166666,66.0,73.0
951,173.14555629999998,173.81569411666666,62.0,81.0
952,173.5622223,173.9788883,33.0,73.0
953,173.9788883,174.234096225,57.0,74.0
954,173.9788883,174.62298449166667,66.0,77.0
955,173.9788883,174.63513724999999,62.0,80.0
956,174.3955543,174.66291498333334,57.0,73.0
957,174.81222029999998,175.046594925,57.0,81.0
958,173.9788883,175.30006674166665,38.0,81.0
959,175.2288863,175.58305239999999,57.0,82.0
960,174.81222029999998,175.58478850833333,62.0,85.0
961,174.81222029999998,175.60735791666667,66.0,81.0
962,175.6455523,176.14555149999998,61.0,80.0
963,175.6455523,176.15423204166666,57.0,76.0
964,176.4788843,176.53096754999999,57.0,68.0
965,176.06221829999998,176.58825912499998,52.0,80.0
966,175.6455523,176.71673114166666,45.0,82.0
967,176.4788843,176.79485601666667,61.0,83.0
968,176.4788843,176.80874488333333,64.0,82.0
969,176.8955503,177.15770265833333,57.0,73.0
970,177.3122163,177.60561860833332,57.0,69.0
971,177.3122163,177.75839614166665,64.0,79.0
972,177.3122163,177.76881279166665,61.0,68.0
973,178.1455483,178.29311750833332,57.0,77.0
974,177.72888229999998,178.32610356666666,52.0,64.0
975,177.3122163,178.42853395833333,45.0,65.0
976,178.1455483,178.45978390833332,61.0,84.0
977,178.1455483,178.5274921333333,64.0,82.0
978,178.5622143,178.71499183333333,57.0,75.0
979,178.9788803,179.484087825,59.0,70.0
980,178.9788803,179.51012945,64.0,66.0
981,179.8122123,179.9441565333333,59.0,80.0
982,179.8122123,179.98755924166664,64.0,81.0
983,179.39554629999998,180.04832303333333,47.0,62.0
984,179.8122123,180.18721169999998,68.0,72.0
985,178.9788803,180.33478090833333,40.0,81.0
986,180.2288783,180.45110016666666,59.0,70.0
987,180.64554429999998,181.02227980833334,59.0,75.0
988,180.64554429999998,181.10040468333332,64.0,79.0
989,181.0622103,181.63512605,47.0,58.0
990,181.4788763,181.64207048333333,59.0,78.0
991,180.64554429999998,181.76359806666665,40.0,76.0
992,181.4788763,181.8955423,68.0,80.0
993,181.4788763,181.94241722499999,64.0,82.0
994,181.8955423,182.04831983333332,59.0,82.0
995,182.31220829999998,182.85387409999998,57.0,74.0
996,182.31220829999998,182.88686015833332,61.0,76.0
997,183.1455403,183.29310950833332,66.0,76.0
998,183.1455403,183.30005394166665,61.0,86.0
999,182.31220829999998,183.75838654166665,42.0,82.0
1000,182.7288743,183.786164275,49.0,62.0
1001,183.56220629999999,183.88512244999998,57.0,76.0
1002,183.97887229999998,184.5622047,61.0,69.0
1003,183.97887229999998,184.61255184166666,57.0,75.0
1004,184.3955383,185.077828875,49.0,69.0
1005,183.97887229999998,185.12643990833334,42.0,82.0
1006,184.8122043,185.26185635833332,61.0,87.0
1007,184.8122043,185.2826896583333,66.0,80.0
1008,185.22887029999998,185.5118559583333,57.0,81.0
1009,185.6455363,185.89900811666666,57.0,71.0
1010,185.6455363,186.16810490833333,62.0,78.0
1011,186.0622023,186.32435465833333,57.0,77.0
1012,186.4788683,186.671576325,57.0,80.0
1013,186.89553429999998,187.0951867583333,57.0,71.0
1014,186.4788683,187.10733951666666,62.0,81.0
1015,186.4788683,187.15942276666667,66.0,75.0
1016,185.6455363,187.16463109166665,50.0,80.0
1017,187.3122003,187.54831103333333,59.0,76.0
1018,187.3122003,187.64032477499998,64.0,81.0
1019,187.3122003,187.77053289999998,52.0,85.0
1020,187.7288663,188.25317101666667,59.0,81.0
1021,188.14553229999999,188.47192066666665,40.0,82.0
1022,188.14553229999999,188.54310110833333,68.0,69.0
1023,188.14553229999999,188.55178164999998,64.0,80.0
1024,188.56219829999998,188.69414253333332,59.0,83.0
1025,188.9788643,189.4701829583333,64.0,78.0
1026,188.9788643,189.47191906666666,57.0,72.0
1027,188.9788643,189.473655175,61.0,67.0
1028,189.81219629999998,189.963237725,64.0,81.0
1029,189.81219629999998,189.98059880833333,61.0,84.0
1030,189.3955303,190.3330288,52.0,71.0
1031,188.9788643,190.37643150833333,45.0,80.0
1032,190.2288623,190.73754204166667,57.0,72.0
1033,190.6455283,191.01358326666667,64.0,82.0
1034,190.6455283,191.04656932499998,61.0,70.0
1035,191.47886029999998,191.63858226666665,57.0,76.0
1036,191.0621943,191.66115167499999,52.0,66.0
1037,190.6455283,191.7149710333333,45.0,80.0
1038,191.47886029999998,191.88510965,61.0,83.0
1039,191.47886029999998,191.921567925,64.0,82.0
1040,191.8955263,192.015317775,57.0,65.0
1041,192.3121923,192.51358086666667,59.0,74.0
1042,192.3121923,192.9024691333333,64.0,80.0
1043,192.72885829999998,193.03267725833334,59.0,72.0
1044,193.1455243,193.50663483333332,68.0,80.0
1045,193.1455243,193.62121798333334,64.0,81.0
1046,192.3121923,193.79309270833332,40.0,81.0
1047,193.5621903,194.08128669166666,59.0,82.0
1048,193.9788563,194.49100825833332,64.0,81.0
1049,194.39552229999998,194.67503574166665,59.0,78.0
1050,194.39552229999998,195.00663243333332,47.0,62.0
1051,194.8121883,195.01184075833334,59.0,82.0
1052,194.8121883,195.03441016666665,64.0,83.0
1053,194.8121883,195.06566011666666,68.0,75.0
1054,193.9788563,195.12642390833332,40.0,83.0
1055,195.6455203,196.140311175,61.0,85.0
1056,196.06218629999998,196.49794949166665,57.0,81.0
1057,196.4788523,196.95454598333333,66.0,81.0
1058,196.4788523,196.95628209166665,61.0,80.0
1059,195.6455203,197.0535041583333,42.0,82.0
1060,196.4788523,197.18371228333334,49.0,66.0
1061,196.8955183,197.42676745,57.0,80.0
1062,197.31218429999998,197.80523906666664,61.0,80.0
1063,197.31218429999998,197.92329443333333,42.0,74.0
1064,197.7288503,197.94412773333332,57.0,75.0
1065,198.1455163,198.598640575,61.0,82.0
1066,198.1455163,198.61426555,66.0,81.0
1067,198.5621823,198.82433465833333,57.0,81.0
1068,198.97884829999998,199.16287578333333,57.0,79.0
1069,198.97884829999998,199.52225020833333,62.0,81.0
1070,199.3955143,199.57780567499998,57.0,69.0
1071,198.97884829999998,199.75315261666665,50.0,82.0
1072,199.8121803,199.859055225,57.0,62.0
1073,199.8121803,200.37294329166664,66.0,73.0
1074,199.8121803,200.48231811666665,62.0,81.0
1075,200.2288463,200.64551229999998,33.0,73.0
1076,200.64551229999998,200.900720225,57.0,74.0
1077,200.64551229999998,201.28960849166666,66.0,77.0
1078,200.64551229999998,201.30176125,62.0,80.0
1079,201.0621783,201.32953898333332,57.0,73.0
1080,201.4788443,201.71321892499998,57.0,81.0
1081,200.64551229999998,201.96669074166667,38.0,81.0
1082,201.89551029999998,202.2496764,57.0,82.0
1083,201.4788443,202.25141250833332,62.0,85.0
1084,201.4788443,202.27398191666666,66.0,81.0
1085,202.3121763,202.72537008333333,68.0,77.0
1086,202.3121763,202.827800475,47.0,79.0
1087,202.3121763,202.85210599166666,40.0,80.0
1088,202.7288423,203.03786958333333,64.0,76.0
1089,203.1455083,203.38856346666665,64.0,81.0
1090,203.1455083,203.54481321666665,68.0,76.0
1091,203.1455083,203.60210479166665,47.0,75.0
1092,203.1455083,203.640299175,40.0,77.0
1093,203.56217429999998,203.8087016833333,64.0,80.0
1094,203.9788403,204.18022886666665,64.0,76.0
1095,203.9788403,204.44758955,68.0,71.0
1096,203.9788403,204.46495063333333,47.0,71.0
1097,203.9788403,204.50835334166666,40.0,72.0
1098,204.3955063,204.577797675,64.0,76.0
1099,204.8121723,205.02571362499998,64.0,80.0
1100,204.8121723,205.29133819999998,68.0,74.0
1101,204.8121723,205.44411573333332,47.0,73.0
1102,204.8121723,205.463212925,40.0,79.0
1103,205.22883829999998,205.57779607499998,64.0,82.0
1104,205.6455043,206.0621703,60.0,80.0
1105,205.6455043,206.19932285833332,38.0,76.0
1106,205.6455043,206.20279507499998,45.0,74.0
1107,206.0621703,206.36946147499998,57.0,79.0
1108,206.47883629999998,206.734044225,57.0,79.0
1109,206.47883629999998,206.95973830833333,60.0,76.0
1110,206.47883629999998,207.083002,45.0,80.0
1111,206.47883629999998,207.11772416666665,38.0,86.0
1112,206.8955023,207.1680713083333,57.0,78.0
1113,207.3121683,207.54654292499998,57.0,79.0
1114,207.3121683,207.83473690833333,60.0,82.0
1115,207.3121683,207.95279227499998,45.0,75.0
1116,207.7288343,207.97883389999998,57.0,70.0
1117,207.3121683,207.98230611666665,38.0,81.0
1118,208.14550029999998,208.34862497499998,57.0,79.0
1119,208.14550029999998,208.702791075,60.0,76.0
1120,208.5621663,208.82779087499998,57.0,81.0
1121,208.14550029999998,208.9163324,45.0,75.0
1122,208.14550029999998,208.91980461666665,38.0,78.0
1123,208.9788323,209.21320692499998,57.0,74.0
1124,208.9788323,209.48577593333331,63.0,74.0
1125,208.9788323,209.58126189166666,54.0,74.0
1126,209.39549829999999,209.58473410833332,57.0,71.0
1127,208.9788323,209.60556740833331,47.0,80.0
1128,209.81216429999998,210.119455475,57.0,79.0
1129,209.81216429999998,210.37639950833332,63.0,74.0
1130,209.81216429999998,210.39896891666666,54.0,73.0
1131,209.81216429999998,210.41459389166667,47.0,80.0
1132,210.2288303,210.49619098333332,57.0,72.0
1133,210.6454963,210.921537525,57.0,77.0
1134,210.6454963,211.223620375,63.0,74.0
1135,210.6454963,211.28959249166667,54.0,75.0
1136,211.06216229999998,211.296536925,57.0,66.0
1137,210.6454963,211.30521746666665,47.0,80.0
1138,211.4788283,211.69931405833333,57.0,79.0
1139,211.4788283,212.28438256666666,54.0,80.0
1140,211.4788283,212.28611867499998,63.0,74.0
1141,211.8954943,212.29827143333333,57.0,80.0
1142,211.4788283,212.30521586666666,47.0,82.0
1143,212.3121603,212.47014615833334,54.0,83.0
1144,212.5204933,212.60556260833332,54.0,67.0
1145,212.3121603,212.6524375333333,66.0,69.0
1146,212.3121603,212.6888958083333,42.0,91.0
1147,212.72882629999998,212.81389560833333,54.0,87.0
1148,212.72882629999998,212.83820112499998,42.0,76.0
1149,212.72882629999998,212.84861777499998,66.0,75.0
1150,212.9371593,213.32778367499998,56.0,91.0
1151,212.9371593,213.3607697333333,68.0,81.0
1152,212.9371593,213.36597805833333,44.0,96.0
1153,213.5621583,213.7288247,69.0,82.0
1154,213.5621583,213.79653292499998,57.0,78.0
1155,213.5621583,213.84340784999998,45.0,82.0
1156,213.97882429999999,214.713198125,57.0,75.0
1157,213.97882429999999,214.72014255833332,48.0,82.0
1158,213.97882429999999,214.73403142499998,60.0,84.0
1159,213.97882429999999,214.73403142499998,67.0,84.0
1160,214.8121563,215.5413218,59.0,85.0
1161,214.8121563,215.5413218,66.0,85.0
1162,214.8121563,215.55347455833333,47.0,85.0
1163,215.64548829999998,216.15069582499999,63.0,68.0
1164,215.64548829999998,216.17673745,69.0,78.0
1165,215.64548829999998,216.26007065,47.0,80.0
1166,216.0621543,216.32083444166665,59.0,75.0
1167,216.4788203,216.89895851666665,54.0,70.0
1168,216.4788203,216.96319452499998,47.0,75.0
1169,216.4788203,216.96666674166664,63.0,73.0
1170,216.4788203,216.98055560833333,69.0,76.0
1171,216.8954863,217.37638830833333,59.0,74.0
1172,217.31215229999998,217.81735982499998,54.0,69.0
1173,217.31215229999998,217.82604036666666,63.0,79.0
1174,217.31215229999998,217.84340145,47.0,73.0
1175,217.31215229999998,217.84340145,69.0,79.0
1176,217.7288183,217.92847075833333,59.0,69.0
1177,218.1454843,218.34340064999998,59.0,80.0
1178,218.1454843,218.63853906666665,63.0,74.0
1179,218.1454843,218.64895571666665,54.0,68.0
1180,218.56215029999998,218.744441675,59.0,84.0
1181,218.1454843,218.77395551666666,69.0,79.0
1182,218.1454843,218.77569162499998,47.0,73.0
1183,218.97881629999998,219.16110767499998,57.0,73.0
1184,218.97881629999998,219.51353766666665,66.0,72.0
1185,218.97881629999998,219.55346815833332,60.0,76.0
1186,218.97881629999998,219.57082924166664,50.0,91.0
1187,219.3954823,219.88506485,57.0,75.0
1188,219.8121483,220.26700868333333,50.0,86.0
1189,219.8121483,220.47186946666665,60.0,82.0
1190,219.8121483,220.48228611666664,66.0,80.0
1191,220.22881429999998,220.61075813333332,45.0,81.0
1192,220.22881429999998,220.76179955833334,57.0,72.0
1193,220.6454803,221.28089595,60.0,76.0
1194,220.6454803,221.33471530833333,66.0,76.0
1195,220.6454803,221.359020825,50.0,85.0
1196,221.4788123,222.223602775,66.0,81.0
1197,221.4788123,222.22533888333334,60.0,83.0
1198,221.89547829999998,222.2288111,57.0,82.0
1199,221.4788123,222.27742213333332,50.0,89.0
1200,222.3121443,222.78957409166665,57.0,73.0
1201,222.3121443,222.7913102,60.0,75.0
1202,222.3121443,222.8138796083333,63.0,74.0
1203,222.3121443,222.95276827499998,41.0,81.0
1204,222.7288103,223.20450398333332,53.0,75.0
1205,223.14547629999998,223.6420032833333,57.0,74.0
1206,223.14547629999998,223.67325323333333,63.0,72.0
1207,223.14547629999998,223.68366988333332,60.0,74.0
1208,223.14547629999998,223.75485032499998,41.0,80.0
1209,223.56214229999998,224.04304430833332,53.0,80.0
1210,223.9788083,224.442349225,57.0,70.0
1211,223.9788083,224.53783518333333,60.0,75.0
1212,223.9788083,224.5413074,63.0,70.0
1213,223.9788083,224.61596005833331,41.0,80.0
1214,224.3954743,224.89547349999998,53.0,80.0
1215,224.81214029999998,225.13679255833333,41.0,80.0
1216,224.81214029999998,225.18887580833334,57.0,75.0
1217,224.81214029999998,225.22012575833332,60.0,76.0
1218,224.81214029999998,225.29477841666665,63.0,73.0
1219,225.2288063,225.5742918583333,53.0,81.0
1220,226.0621383,226.21144361666666,40.0,82.0
1221,226.0621383,226.223596375,56.0,71.0
1222,226.0621383,226.234013025,52.0,80.0
1223,226.0621383,226.24269356666665,59.0,76.0
1224,226.47880429999998,226.57949858333333,56.0,76.0
1225,226.47880429999998,226.5829708,52.0,81.0
1226,226.47880429999998,226.60033188333333,40.0,81.0
1227,226.47880429999998,226.6038041,59.0,81.0
1228,226.8954703,226.99442847499998,56.0,72.0
1229,226.8954703,227.02220620833333,52.0,80.0
1230,226.8954703,227.02394231666665,40.0,82.0
1231,226.8954703,227.03435896666664,59.0,80.0
1232,227.3121363,227.4336638833333,56.0,73.0
1233,227.3121363,227.45970550833331,52.0,81.0
1234,227.3121363,227.46664994166665,59.0,80.0
1235,227.3121363,227.47185826666666,40.0,84.0
1236,227.72880229999998,227.83991323333333,56.0,71.0
1237,227.72880229999998,227.85032988333333,52.0,80.0
1238,227.72880229999998,227.86769096666666,40.0,82.0
1239,227.72880229999998,227.86942707499998,59.0,79.0
1240,228.14546829999998,228.33123189166665,40.0,87.0
1241,228.14546829999998,228.3451207583333,52.0,82.0
1242,228.14546829999998,228.348592975,56.0,82.0
1243,228.14546829999998,228.35553740833333,64.0,87.0
1244,228.14546829999998,228.36595405833333,59.0,84.0
1245,228.5621343,228.67324523333332,52.0,82.0
1246,228.5621343,228.68887020833333,56.0,81.0
1247,228.5621343,228.69060631666665,59.0,81.0
1248,228.5621343,228.70623129166665,64.0,81.0
1249,228.5621343,228.70970350833332,40.0,84.0
1250,228.9788003,229.32428585833333,61.0,75.0
1251,228.9788003,229.33123029166666,57.0,73.0
1252,228.9788003,229.34859137499998,64.0,83.0
1253,229.39546629999998,229.859007225,52.0,66.0
1254,228.9788003,229.91456269166665,45.0,81.0
1255,229.8121323,229.9544931833333,61.0,85.0
1256,229.8121323,229.95796539999998,57.0,80.0
1257,229.8121323,230.03261805833333,64.0,85.0
1258,230.43713129999998,230.60032548333334,57.0,80.0
1259,230.43713129999998,230.61595045833332,64.0,82.0
1260,230.6454643,230.952755475,45.0,78.0
1261,230.8537973,231.06039419166666,57.0,76.0
1262,230.8537973,231.07428305833332,61.0,87.0
1263,231.2704633,231.37636590833333,57.0,81.0
1264,231.06213029999998,231.39719920833332,52.0,81.0
1265,231.4787963,231.70622649166665,57.0,82.0
1266,231.4787963,231.77914304166666,64.0,82.0
1267,231.68712929999998,231.82949018333332,52.0,79.0
1268,231.8954623,232.08469810833333,57.0,82.0
1269,232.31212829999998,232.4128225833333,37.0,80.0
1270,232.31212829999998,232.49268356666664,56.0,76.0
1271,232.31212829999998,232.77914144166667,61.0,81.0
1272,232.31212829999998,232.89198848333334,64.0,82.0
1273,232.72879429999998,233.03087714999998,56.0,71.0
1274,233.1454603,233.22358517499998,49.0,89.0
1275,233.1454603,233.29476561666667,56.0,77.0
1276,233.1454603,233.34511275833333,61.0,76.0
1277,233.1454603,233.3503210833333,64.0,83.0
1278,233.7704593,234.06559771666664,56.0,78.0
1279,233.97879229999998,234.17150032499998,49.0,82.0
1280,233.7704593,234.2496252,61.0,79.0
1281,233.7704593,234.25136130833332,64.0,82.0
1282,234.1871253,234.31906953333333,56.0,83.0
1283,234.60379129999998,234.80344375833332,56.0,78.0
1284,234.8121243,234.91976301666665,56.0,71.0
1285,234.8121243,234.93712409999998,44.0,81.0
1286,234.8121243,234.94927685833332,61.0,82.0
1287,234.8121243,234.9805268083333,64.0,81.0
1288,235.02045729999998,235.26351246666667,56.0,81.0
1289,235.2287903,235.33469290833332,49.0,84.0
1290,235.2287903,235.49615098333334,64.0,83.0
1291,235.2287903,235.51177595833332,61.0,83.0
1292,235.4371233,235.59163694166665,56.0,80.0
1293,235.64545629999998,236.22531648333333,61.0,80.0
1294,235.64545629999998,236.25309421666665,57.0,74.0
1295,235.64545629999998,236.55864928333332,42.0,83.0
1296,236.0621223,236.61073253333333,49.0,69.0
1297,236.4787883,236.83469050833332,66.0,78.0
1298,236.4787883,236.86073213333333,61.0,85.0
1299,236.4787883,236.87114878333333,57.0,80.0
1300,237.1037873,237.26524537499998,57.0,77.0
1301,237.1037873,237.27739813333332,61.0,84.0
1302,237.1037873,237.296495325,66.0,81.0
1303,237.31212029999998,237.44406453333332,42.0,81.0
1304,237.52045329999999,237.60725871666665,57.0,73.0
1305,237.52045329999999,237.6940641333333,61.0,84.0
1306,237.7287863,237.86420274999998,49.0,81.0
1307,237.93711929999998,238.04302190833332,57.0,73.0
1308,238.1454523,238.38329914166667,57.0,82.0
1309,238.1454523,238.45100736666666,42.0,85.0
1310,238.1454523,238.45447958333332,49.0,83.0
1311,238.1454523,238.60725711666666,61.0,91.0
1312,238.1454523,238.62114598333332,66.0,81.0
1313,238.56211829999998,238.7253124833333,57.0,83.0
1314,238.9787843,239.20795059999998,59.0,76.0
1315,238.9787843,239.41454749166667,40.0,87.0
1316,238.9787843,239.43538079166666,64.0,81.0
1317,239.3954503,239.5621167,59.0,81.0
1318,239.81211629999999,240.15412964166666,64.0,86.0
1319,239.81211629999999,240.19232402499998,68.0,82.0
1320,239.81211629999999,240.213157325,59.0,82.0
1321,240.4371153,240.70968430833332,59.0,83.0
1322,240.4371153,240.72010095833332,64.0,85.0
1323,240.4371153,240.775656425,68.0,82.0
1324,240.6454483,240.89197568333333,40.0,82.0
1325,240.85378129999998,240.9162812,59.0,80.0
1326,240.85378129999998,241.15412804166667,64.0,82.0
1327,241.2704473,241.34336385,64.0,76.0
1328,241.0621143,241.37808601666666,59.0,89.0
1329,241.47878029999998,241.5794745833333,47.0,81.0
1330,241.47878029999998,241.58989123333333,40.0,85.0
1331,241.47878029999998,241.61072453333333,59.0,85.0
1332,241.47878029999998,241.67148832499998,64.0,89.0
1333,241.47878029999998,241.70794659999999,68.0,89.0
1334,241.6871133,241.75655763333333,47.0,74.0
1335,241.6871133,241.78954369166667,40.0,76.0
1336,241.89544629999997,241.99787669166665,59.0,82.0
1337,241.89544629999997,242.20968190833332,68.0,80.0
1338,242.10377929999999,242.30690397499998,59.0,81.0
1339,241.89544629999997,242.3121123,64.0,83.0
1340,242.3121123,242.46315372499998,61.0,75.0
1341,242.3121123,242.47357037499998,65.0,80.0
1342,242.3121123,242.4787787,37.0,82.0
1343,242.3121123,242.4805148083333,56.0,74.0
1344,242.7287783,242.89544469999998,65.0,79.0
1345,242.7287783,242.900653025,61.0,69.0
1346,242.7287783,242.90759745833333,56.0,68.0
1347,242.7287783,242.92843075833332,37.0,68.0
1348,243.14544429999998,243.24613858333333,56.0,76.0
1349,243.14544429999998,243.24613858333333,61.0,81.0
1350,243.14544429999998,243.28086075,65.0,81.0
1351,243.14544429999998,243.41801330833331,37.0,86.0
1352,243.5621103,243.65586015,56.0,73.0
1353,243.5621103,243.6680129083333,61.0,78.0
1354,243.5621103,243.681901775,37.0,78.0
1355,243.77044329999998,243.8746098,56.0,80.0
1356,243.9787763,244.04995674166665,56.0,73.0
1357,243.9787763,244.12808161666666,37.0,80.0
1358,243.9787763,244.18016486666664,61.0,86.0
1359,243.9787763,244.2096787083333,65.0,80.0
1360,244.39544229999998,244.51002545,65.0,78.0
1361,244.39544229999998,244.53606707499998,61.0,73.0
1362,244.6037753,244.69752515,56.0,75.0
1363,244.81210829999998,245.08988563333332,56.0,83.0
1364,244.81210829999998,245.09335785,37.0,82.0
1365,244.81210829999998,245.108982825,65.0,81.0
1366,244.81210829999998,245.12287169166666,61.0,81.0
1367,245.2287743,245.58120429166667,56.0,81.0
1368,245.2287743,245.61245424166665,37.0,80.0
1369,245.2287743,245.61419035,65.0,81.0
1370,245.2287743,245.61766256666667,61.0,74.0
1371,245.6454403,245.86766216666666,57.0,79.0
1372,245.6454403,246.0325924583333,42.0,85.0
1373,245.6454403,246.09162014166665,61.0,82.0
1374,245.6454403,246.09682846666666,66.0,77.0
1375,246.06210629999998,246.14717560833333,57.0,75.0
1376,246.4787723,246.68710529999998,59.0,76.0
1377,246.4787723,246.94752154999998,64.0,80.0
1378,246.4787723,246.95099376666664,68.0,76.0
1379,246.4787723,247.10724351666664,40.0,84.0
1380,246.8954383,247.161062875,59.0,80.0
1381,247.3121043,247.5690483333333,57.0,80.0
1382,247.3121043,247.94578384166667,62.0,73.0
1383,247.3121043,247.95793659999998,38.0,77.0
1384,247.72877029999998,248.0013393083333,57.0,81.0
1385,248.1454363,248.36592205833333,56.0,75.0
1386,248.1454363,248.8763379083333,64.0,84.0
1387,248.1454363,248.88501845,61.0,78.0
1388,248.5621023,248.93015726666667,56.0,81.0
1389,248.1454363,248.93362948333333,37.0,81.0
1390,248.97876829999998,249.171476325,57.0,80.0
1391,248.97876829999998,249.50654523333333,66.0,76.0
1392,248.97876829999998,249.53258685833333,62.0,81.0
1393,248.97876829999998,249.60723951666665,38.0,84.0
1394,249.39543429999998,249.61244784166666,57.0,75.0
1395,249.8121003,249.96140561666667,57.0,82.0
1396,249.8121003,250.0620999,62.0,86.0
1397,249.8121003,250.317307825,66.0,82.0
1398,250.2287663,250.32078004166667,62.0,44.0
1399,250.2287663,250.50133530833332,57.0,84.0
1400,250.64543229999998,250.8190431333333,57.0,81.0
1401,250.64543229999998,251.15237593333333,66.0,80.0
1402,250.64543229999998,251.17147312499998,62.0,82.0
1403,250.64543229999998,251.181889775,38.0,86.0
1404,251.0620983,251.31904233333333,57.0,73.0
1405,251.4787643,251.64195848333333,50.0,80.0
1406,251.4787643,251.66626399999998,54.0,71.0
1407,251.4787643,251.692305625,57.0,75.0
1408,251.4787643,251.7200833583333,38.0,83.0
1409,251.8954303,252.4752904833333,52.0,81.0
1410,251.8954303,252.4752904833333,56.0,76.0
1411,252.7287623,252.83640101666666,56.0,51.0
1412,252.7287623,252.85723431666665,52.0,72.0
1413,252.7287623,252.89022037499998,59.0,71.0
1414,253.1454283,253.26348366666664,59.0,89.0
1415,253.1454283,253.2669558833333,52.0,85.0
1416,252.31209629999998,253.275636425,47.0,74.0
1417,253.1454283,253.28778918333333,56.0,85.0
1418,253.1454283,253.30688637499998,64.0,85.0
1419,251.8954303,253.338136325,40.0,89.0
1420,253.56209429999998,253.68883020833331,47.0,51.0
1421,253.7704273,253.91799650833332,52.0,81.0
1422,253.97876029999998,254.66278698333332,64.0,81.0
1423,253.97876029999998,254.66973141666665,56.0,76.0
1424,253.97876029999998,254.671467525,52.0,82.0
1425,253.97876029999998,254.67841195833333,59.0,76.0
1426,254.8120923,254.921467125,52.0,82.0
1427,254.8120923,255.04646692499998,47.0,75.0
1428,254.8120923,255.23049440833333,64.0,81.0
1429,254.8120923,255.23743884166666,56.0,79.0
1430,255.0204253,255.2721610083333,52.0,87.0
1431,254.8120923,255.27389711666666,59.0,80.0
1432,253.97876029999998,255.536049475,40.0,82.0
1433,255.4370913,255.63500764999998,52.0,89.0
1434,255.22875829999998,255.6454243,47.0,82.0
1435,255.6454243,255.91972941666666,57.0,70.0
1436,255.6454243,256.2426455666667,64.0,80.0
1437,256.06209029999997,256.28083995,57.0,66.0
1438,256.4787563,256.9804916083333,61.0,68.0
1439,256.4787563,256.9856999333333,64.0,78.0
1440,256.8954223,257.082922,57.0,35.0
1441,257.31208829999997,257.707921,61.0,67.0
1442,257.31208829999997,257.82250415,64.0,77.0
1443,255.6454243,258.00826774166666,45.0,80.0
1444,257.7287543,258.2044479833333,57.0,62.0
1445,258.1454203,258.29298950833333,61.0,72.0
1446,258.1454203,258.37111438333335,64.0,80.0
1447,258.9787523,259.44923765833335,61.0,71.0
1448,258.9787523,259.44923765833335,64.0,75.0
1449,258.9787523,259.56902913333334,37.0,71.0
1450,259.39541829999996,259.7409038583333,56.0,66.0
1451,259.8120843,259.9127785833333,61.0,74.0
1452,259.8120843,259.9440285333333,64.0,82.0
1453,260.2287503,260.494374875,56.0,54.0
1454,260.64541629999997,260.76347166666665,61.0,72.0
1455,260.64541629999997,260.79124939999997,64.0,80.0
1456,261.0620823,261.54992874166663,56.0,71.0
1457,261.4787483,261.75131730833334,61.0,78.0
1458,261.4787483,261.75131730833334,64.0,82.0
1459,261.89541429999997,261.9856919333333,37.0,83.0
1460,262.3120803,262.6679825083333,57.0,69.0
1461,262.3120803,262.692288025,61.0,76.0
1462,262.3120803,262.73569073333334,54.0,73.0
1463,263.1454123,263.2304816083333,54.0,75.0
1464,263.1454123,263.233953825,61.0,68.0
1465,262.7287463,264.17839675833335,49.0,61.0
1466,263.97874429999996,264.36589645833334,57.0,69.0
1467,263.97874429999996,264.36589645833334,61.0,69.0
1468,264.3954103,264.87284009166666,49.0,45.0
1469,264.8120763,264.89714560833335,57.0,73.0
1470,264.8120763,264.9336038833333,61.0,74.0
1471,262.3120803,264.96138161666664,42.0,69.0
1472,265.6454083,266.025616025,56.0,67.0
1473,265.6454083,266.04297710833333,52.0,73.0
1474,265.6454083,266.06033819166663,59.0,74.0
1475,266.47874029999997,266.61415675,56.0,68.0
1476,266.47874029999997,266.70096216666667,59.0,75.0
1477,266.8954063,267.1367253583333,52.0,78.0
1478,266.0620743,267.46484983333335,47.0,61.0
1479,267.3120723,267.6245718,64.0,82.0
1480,267.3120723,267.6471412083333,52.0,77.0
1481,267.3120723,267.68533559166667,59.0,77.0
1482,267.3120723,267.69575224166664,56.0,79.0
1483,267.7287383,268.28429296666667,47.0,69.0
1484,265.6454083,268.8120699,40.0,76.0
1485,268.1454043,268.85200039166665,52.0,81.0
1486,268.1454043,268.87283369166664,56.0,81.0
1487,268.56207029999996,268.88325034166667,47.0,78.0
1488,268.1454043,268.90581975,59.0,80.0
1489,268.9787363,269.129777725,61.0,75.0
1490,268.9787363,269.14019437499996,65.0,80.0
1491,268.9787363,269.1454027,37.0,82.0
1492,268.9787363,269.1471388083333,56.0,74.0
1493,269.3954023,269.5620687,65.0,79.0
1494,269.3954023,269.567277025,61.0,69.0
1495,269.3954023,269.57422145833334,56.0,68.0
1496,269.3954023,269.59505475833333,37.0,68.0
1497,269.81206829999996,269.91276258333335,56.0,76.0
1498,269.81206829999996,269.91276258333335,61.0,81.0
1499,269.81206829999996,269.94748475,65.0,81.0
1500,269.81206829999996,270.0846373083333,37.0,86.0
1501,270.2287343,270.32248415,56.0,73.0
1502,270.2287343,270.3346369083333,61.0,78.0
1503,270.2287343,270.348525775,37.0,78.0
1504,270.43706729999997,270.5412338,56.0,80.0
1505,270.6454003,270.71658074166663,56.0,73.0
1506,270.6454003,270.79470561666665,37.0,80.0
1507,270.6454003,270.84678886666666,61.0,86.0
1508,270.6454003,270.8763027083333,65.0,80.0
1509,271.06206629999997,271.17664945,65.0,78.0
1510,271.06206629999997,271.20269107499996,61.0,73.0
1511,271.2703993,271.36414915,56.0,75.0
1512,271.4787323,271.75650963333334,56.0,83.0
1513,271.4787323,271.75998185,37.0,82.0
1514,271.4787323,271.775606825,65.0,81.0
1515,271.4787323,271.7894956916667,61.0,81.0
1516,271.8953983,272.2478282916667,56.0,81.0
1517,271.8953983,272.27907824166664,37.0,80.0
1518,271.8953983,272.28081435,65.0,81.0
1519,271.8953983,272.28428656666665,61.0,74.0
1520,272.3120643,272.5342861666667,57.0,79.0
1521,272.3120643,272.6992164583333,42.0,85.0
1522,272.3120643,272.75824414166664,61.0,82.0
1523,272.3120643,272.76345246666665,66.0,77.0
1524,272.7287303,272.81379960833334,57.0,75.0
1525,273.1453963,273.3537293,59.0,76.0
1526,273.1453963,273.61414555,64.0,80.0
1527,273.1453963,273.6176177666666,68.0,76.0
1528,273.1453963,273.77386751666666,40.0,84.0
1529,273.5620623,273.827686875,59.0,80.0
1530,273.9787283,274.2356723333333,57.0,80.0
1531,273.9787283,274.61240784166665,62.0,73.0
1532,273.9787283,274.6245606,38.0,77.0
1533,274.39539429999996,274.6679633083333,57.0,81.0
1534,274.8120603,275.0325460583333,56.0,75.0
1535,274.8120603,275.5429619083333,64.0,84.0
1536,274.8120603,275.55164245,61.0,78.0
1537,275.2287263,275.59678126666665,56.0,81.0
1538,274.8120603,275.60025348333335,37.0,81.0
1539,275.64539229999997,275.83810032499997,57.0,80.0
1540,275.64539229999997,276.17316923333334,66.0,76.0
1541,275.64539229999997,276.19921085833334,62.0,81.0
1542,275.64539229999997,276.27386351666667,38.0,84.0
1543,276.0620583,276.2790718416667,57.0,75.0
1544,276.4787243,276.62802961666665,57.0,82.0
1545,276.4787243,276.7287239,62.0,86.0
1546,276.4787243,276.983931825,66.0,82.0
1547,276.8953903,276.98740404166665,62.0,44.0
1548,276.8953903,277.1679593083333,57.0,84.0
1549,277.3120563,277.4856671333333,57.0,81.0
1550,277.3120563,277.8189999333333,66.0,80.0
1551,277.3120563,277.838097125,62.0,82.0
1552,277.3120563,277.848513775,38.0,86.0
1553,277.7287223,277.9856663333333,57.0,73.0
1554,278.1453883,278.30858248333334,50.0,80.0
1555,278.1453883,278.33288799999997,54.0,71.0
1556,278.1453883,278.358929625,57.0,75.0
1557,278.1453883,278.3867073583333,38.0,83.0
1558,278.5620543,279.1419144833333,52.0,81.0
1559,278.5620543,279.1419144833333,56.0,76.0
1560,279.3953863,279.50302501666664,56.0,51.0
1561,279.3953863,279.52385831666663,52.0,72.0
1562,279.3953863,279.55684437499997,59.0,71.0
1563,279.8120523,279.93010766666663,59.0,89.0
1564,279.8120523,279.9335798833333,52.0,85.0
1565,278.97872029999996,279.942260425,47.0,74.0
1566,279.8120523,279.9544131833333,56.0,85.0
1567,279.8120523,279.973510375,64.0,85.0
1568,278.5620543,280.004760325,40.0,89.0
1569,280.22871829999997,280.3554542083333,47.0,51.0
1570,280.4370513,280.58462050833333,52.0,81.0
1571,280.6453843,281.32941098333333,64.0,81.0
1572,280.6453843,281.33635541666666,56.0,76.0
1573,280.6453843,281.338091525,52.0,82.0
1574,280.6453843,281.3450359583333,59.0,76.0
1575,281.4787163,281.588091125,52.0,82.0
1576,281.4787163,281.71309092499996,47.0,75.0
1577,281.4787163,281.8971184083333,64.0,81.0
1578,281.4787163,281.90406284166664,56.0,79.0
1579,281.6870493,281.9387850083333,52.0,87.0
1580,281.4787163,281.9405211166667,59.0,80.0
1581,280.6453843,282.202673475,40.0,82.0
1582,282.1037153,282.30163165,52.0,89.0
1583,281.8953823,282.3120483,47.0,82.0
1584,282.3120483,282.79989474166666,57.0,76.0
1585,282.3120483,282.87281129166666,62.0,77.0
1586,282.3120483,282.96656114166666,66.0,78.0
1587,282.3120483,283.29468561666664,38.0,87.0
1588,282.7287143,283.32419945833334,45.0,66.0
1589,283.1453803,283.34676886666665,57.0,80.0
1590,283.1453803,283.44225482499996,62.0,80.0
1591,283.56204629999996,284.01864279166665,64.0,82.0
1592,283.56204629999996,284.08982323333333,59.0,80.0
1593,283.56204629999996,284.97871069999997,40.0,83.0
1594,284.81204429999997,285.55857088333335,64.0,81.0
1595,284.81204429999997,285.55857088333335,68.0,80.0
1596,285.2287103,285.598501375,59.0,79.0
1597,285.6453763,286.1453755,61.0,80.0
1598,285.6453763,286.15405604166665,57.0,76.0
1599,286.4787083,286.53079155,57.0,68.0
1600,286.0620423,286.58808312499997,52.0,80.0
1601,285.6453763,286.7165551416667,45.0,82.0
1602,286.4787083,286.79468001666663,61.0,83.0
1603,286.4787083,286.8085688833333,64.0,82.0
1604,286.8953743,287.1575266583333,57.0,73.0
1605,287.3120403,287.6054426083333,57.0,69.0
1606,287.3120403,287.75822014166664,64.0,79.0
1607,287.3120403,287.76863679166667,61.0,68.0
1608,288.14537229999996,288.29294150833334,57.0,77.0
1609,287.7287063,288.3259275666667,52.0,64.0
1610,287.3120403,288.4283579583333,45.0,65.0
1611,288.14537229999996,288.45960790833334,61.0,84.0
1612,288.14537229999996,288.52731613333333,64.0,82.0
1613,288.5620383,288.7148158333333,57.0,75.0
1614,288.9787043,289.483911825,59.0,70.0
1615,288.9787043,289.50995345,64.0,66.0
1616,289.8120363,289.94398053333333,59.0,80.0
1617,289.8120363,289.98738324166663,64.0,81.0
1618,289.39537029999997,290.0481470333333,47.0,62.0
1619,289.8120363,290.18703569999997,68.0,72.0
1620,288.9787043,290.33460490833335,40.0,81.0
1621,290.2287023,290.45092416666665,59.0,70.0
1622,290.6453683,291.0221038083333,59.0,75.0
1623,290.6453683,291.10022868333334,64.0,79.0
1624,291.0620343,291.63495005,47.0,58.0
1625,291.4787003,291.6418944833333,59.0,78.0
1626,290.6453683,291.76342206666664,40.0,76.0
1627,291.4787003,291.8953663,68.0,80.0
1628,291.4787003,291.942241225,64.0,82.0
1629,291.8953663,292.0481438333333,59.0,82.0
1630,292.3120323,292.8536981,57.0,74.0
1631,292.3120323,292.8866841583333,61.0,76.0
1632,293.1453643,293.2929335083333,66.0,76.0
1633,293.1453643,293.29987794166664,61.0,86.0
1634,292.3120323,293.75821054166664,42.0,82.0
1635,292.72869829999996,293.78598827499997,49.0,62.0
1636,293.5620303,293.88494645,57.0,76.0
1637,293.97869629999997,294.5620287,61.0,69.0
1638,293.97869629999997,294.6123758416667,57.0,75.0
1639,294.3953623,295.077652875,49.0,69.0
1640,293.97869629999997,295.1262639083333,42.0,82.0
1641,294.8120283,295.2616803583333,61.0,87.0
1642,294.8120283,295.2825136583333,66.0,80.0
1643,295.2286943,295.51167995833333,57.0,81.0
1644,295.6453603,295.89883211666665,57.0,71.0
1645,295.6453603,296.1679289083333,62.0,78.0
1646,296.0620263,296.3241786583333,57.0,77.0
1647,296.4786923,296.671400325,57.0,80.0
1648,296.8953583,297.09501075833333,57.0,71.0
1649,296.4786923,297.1071635166667,62.0,81.0
1650,296.4786923,297.1592467666666,66.0,75.0
1651,295.6453603,297.16445509166664,50.0,80.0
1652,297.31202429999996,297.5481350333333,59.0,76.0
1653,297.31202429999996,297.640148775,64.0,81.0
1654,297.31202429999996,297.77035689999997,52.0,85.0
1655,297.7286903,298.25299501666666,59.0,81.0
1656,298.1453563,298.47174466666667,40.0,82.0
1657,298.1453563,298.5429251083333,68.0,69.0
1658,298.1453563,298.55160565,64.0,80.0
1659,298.56202229999997,298.6939665333333,59.0,83.0
1660,298.9786883,299.47000695833333,64.0,78.0
1661,298.9786883,299.47174306666665,57.0,72.0
1662,298.9786883,299.47347917499997,61.0,67.0
1663,299.8120203,299.963061725,64.0,81.0
1664,299.8120203,299.98042280833334,61.0,84.0
1665,299.3953543,300.3328528,52.0,71.0
1666,298.9786883,300.3762555083333,45.0,80.0
1667,300.2286863,300.73736604166663,57.0,72.0
1668,300.6453523,301.01340726666666,64.0,82.0
1669,300.6453523,301.046393325,61.0,70.0
1670,301.4786843,301.63840626666666,57.0,76.0
1671,301.0620183,301.660975675,52.0,66.0
1672,300.6453523,301.7147950333333,45.0,80.0
1673,301.4786843,301.88493365,61.0,83.0
1674,301.4786843,301.92139192499997,64.0,82.0
1675,301.89535029999996,302.01514177499996,57.0,65.0
1676,302.3120163,302.51340486666663,59.0,74.0
1677,302.3120163,302.90229313333333,64.0,80.0
1678,302.7286823,303.0325012583333,59.0,72.0
1679,303.14534829999997,303.50645883333334,68.0,80.0
1680,303.14534829999997,303.6210419833333,64.0,81.0
1681,302.3120163,303.79291670833334,40.0,81.0
1682,303.5620143,304.08111069166665,59.0,82.0
1683,303.9786803,304.49083225833334,64.0,81.0
1684,304.39534629999997,304.67485974166664,59.0,78.0
1685,304.39534629999997,305.0064564333333,47.0,62.0
1686,304.8120123,305.0116647583333,59.0,82.0
1687,304.8120123,305.03423416666664,64.0,83.0
1688,304.8120123,305.06548411666665,68.0,75.0
1689,303.9786803,305.1262479083333,40.0,83.0
1690,305.6453443,306.140135175,61.0,85.0
1691,306.0620103,306.49777349166663,57.0,81.0
1692,306.47867629999996,306.9543699833333,66.0,81.0
1693,306.47867629999996,306.95610609166664,61.0,80.0
1694,305.6453443,307.05332815833333,42.0,82.0
1695,306.47867629999996,307.1835362833333,49.0,66.0
1696,306.8953423,307.42659145,57.0,80.0
1697,307.3120083,307.80506306666666,61.0,80.0
1698,307.3120083,307.92311843333334,42.0,74.0
1699,307.72867429999997,307.94395173333334,57.0,75.0
1700,308.1453403,308.598464575,61.0,82.0
1701,308.1453403,308.61408954999996,66.0,81.0
1702,308.5620063,308.8241586583333,57.0,81.0
1703,308.97867229999997,309.1626997833333,57.0,79.0
1704,308.97867229999997,309.5220742083333,62.0,81.0
1705,309.3953383,309.57762967499997,57.0,69.0
1706,308.97867229999997,309.7529766166667,50.0,82.0
1707,309.8120043,309.858879225,57.0,62.0
1708,309.8120043,310.37276729166666,66.0,73.0
1709,309.8120043,310.48214211666664,62.0,81.0
1710,310.2286703,310.6453363,33.0,73.0
1711,310.6453363,311.9231120333333,57.0,74.0
1712,310.6453363,312.31200029999997,66.0,77.0
1713,310.6453363,312.3258891666666,62.0,80.0
1714,310.6453363,312.93699929999997,38.0,81.0
