,start,end,pitch,velocity
0,18.049034689583333,18.164540916666667,65.0,83.0
1,18.23890793958333,18.371819214583333,65.0,86.0
2,18.428781189583333,18.561692464583334,67.0,82.0
3,18.618654439583334,18.881312435416667,69.0,86.0
4,18.998400939583334,19.261058935416667,69.0,85.0
5,19.378147439583334,19.656628206249998,69.0,85.0
6,19.757893939583333,19.92245075625,70.0,85.0
7,19.94776718958333,20.97624729375,69.0,81.0
8,21.087006689583333,21.265804,69.0,85.0
9,21.27687993958333,21.443019033333332,67.0,80.0
10,21.466753189583333,21.62339862083333,65.0,81.0
11,21.656626439583334,21.952512254166667,67.0,81.0
12,22.036372939583334,22.27687905625,67.0,84.0
13,22.416119439583333,22.71358753125,67.0,84.0
14,22.795865939583333,22.916118997916666,70.0,82.0
15,22.98573918958333,23.95725731875,69.0,85.0
16,24.31485193958333,24.605990922916664,67.0,85.0
17,24.694598439583334,25.075927216666667,65.0,85.0
18,25.074344939583334,25.246813141666667,64.0,81.0
19,25.26421818958333,25.968331491666667,65.0,84.0
20,26.02371118958333,26.213584439583332,64.0,88.0
21,26.213584439583332,26.60598915625,65.0,83.0
22,26.593330939583332,26.974659716666665,64.0,85.0
23,26.97307743958333,27.305355627083333,62.0,81.0
24,27.35282393958333,27.490482045833332,60.0,79.0
25,27.542697189583333,29.321176631249998,60.0,82.0
26,30.200922689583333,30.35756812083333,65.0,85.0
27,30.39079593958333,30.547441370833333,67.0,80.0
28,30.580669189583332,30.73256778958333,69.0,81.0
29,30.770542439583334,31.354402683333333,70.0,86.0
30,31.530035439583333,31.87497184375,62.0,86.0
31,31.909781939583333,32.07750331041667,65.0,83.0
32,32.09965518958333,33.359147747916666,64.0,87.0
33,33.61864118958333,33.775286620833334,60.0,82.0
34,33.808514439583334,34.10756480833333,69.0,86.0
35,34.18826093958333,34.44775438125,70.0,84.0
36,34.56800743958333,34.85281731458333,69.0,86.0
37,34.94775393958333,35.09490570833333,67.0,80.0
38,35.137627189583334,35.602816652083334,65.0,83.0
39,35.707246939583335,36.0474365125,65.0,85.0
40,36.08699343958333,36.39553747083333,64.0,86.0
41,36.466739939583334,36.75471436875,65.0,86.0
42,36.84648643958333,37.177182349999995,70.0,84.0
43,37.22623293958333,37.607561716666666,69.0,85.0
44,37.60597943958333,37.95408039791666,67.0,81.0
45,37.98572593958333,38.10123216666666,65.0,79.0
46,38.17559918958333,38.69775062708333,70.0,73.0
47,38.74521893958333,39.11072494583333,69.0,82.0
48,39.124965439583335,39.50629421666667,67.0,81.0
49,39.50471193958333,39.818002802083335,65.0,81.0
50,39.884458439583334,41.96893656666666,67.0,79.0
51,42.34930234791666,42.46451687916666,65.0,83.0
52,42.53869609791666,42.671271722916664,65.0,86.0
53,42.728089847916664,42.860665472916665,67.0,82.0
54,42.917483597916664,43.179478285416664,69.0,86.0
55,43.29627109791666,43.558265785416665,69.0,85.0
56,43.67505859791666,43.95283609791666,69.0,85.0
57,44.05384609791666,44.21798734791666,70.0,85.0
58,44.24323984791666,45.26912266041666,69.0,81.0
59,45.37960234791666,45.55794812916666,69.0,85.0
60,45.56899609791666,45.734715629166665,67.0,80.0
61,45.75838984791666,45.914639691666665,65.0,81.0
62,45.94778359791666,46.242922191666665,67.0,81.0
63,46.32657109791666,46.566469847916665,67.0,84.0
64,46.705358597916664,47.002075472916665,67.0,84.0
65,47.084146097916665,47.20409547291666,70.0,82.0
66,47.273539847916666,48.24260453541666,69.0,85.0
67,48.599296097916664,48.88969984791666,67.0,85.0
68,48.978083597916665,49.358449379166665,65.0,85.0
69,49.35687109791667,49.52890375416666,64.0,81.0
70,49.54626484791666,50.24860000416666,65.0,84.0
71,50.30383984791666,50.493233597916664,64.0,88.0
72,50.493233597916664,50.88464734791666,65.0,83.0
73,50.872021097916665,51.252386879166664,64.0,85.0
74,51.25080859791666,51.58224766041666,65.0,81.0
75,51.62959609791666,51.76690656666666,74.0,79.0
76,51.81898984791666,53.33413984791666,72.0,82.0
77,53.52353359791666,53.880225160416664,72.0,87.0
78,53.90232109791666,54.285843441666664,70.0,86.0
79,54.28110859791666,54.598343129166665,69.0,85.0
80,54.659896097916665,54.958191254166664,72.0,87.0
81,55.03868359791666,55.34487016041666,72.0,86.0
82,55.41747109791666,55.79625859791666,74.0,86.0
83,55.79625859791666,56.17504609791666,70.0,82.0
84,56.17504609791666,56.446510472916664,69.0,86.0
85,56.553833597916665,57.31140859791667,67.0,84.0
86,57.50080234791666,57.64284766041666,67.0,84.0
87,57.69019609791666,57.80541062916666,69.0,87.0
88,57.87958984791666,58.00269578541666,70.0,86.0
89,58.06898359791666,58.33097828541666,70.0,85.0
90,58.447771097916664,58.705030941666664,72.0,87.0
91,58.82655859791666,59.11064922291666,69.0,86.0
92,59.20534609791666,59.35212625416666,67.0,80.0
93,59.39473984791667,59.858754535416665,65.0,83.0
94,59.96292109791666,60.30225156666666,65.0,85.0
95,60.341708597916664,60.649473441666665,64.0,86.0
96,60.720496097916666,61.007743285416666,65.0,86.0
97,61.09928359791667,61.42914437916666,70.0,84.0
98,61.47807109791666,61.85843687916666,69.0,85.0
99,61.85685859791666,62.20408047291666,70.0,81.0
100,62.235646097916664,62.57339828541666,62.0,81.0
101,62.61443359791666,63.26942031666667,65.0,83.0
102,63.37200859791666,63.69555625416666,64.0,85.0
103,63.75079609791666,63.87074547291667,65.0,80.0
104,63.94018984791666,66.57487691458333,65.0,84.0
105,67.16664854374999,67.43405337083333,70.0,86.0
106,67.54639504375,67.82962264166666,70.0,91.0
107,67.92614154374999,68.17455904583332,70.0,89.0
108,68.30588804374999,68.44512842708332,70.0,88.0
109,68.49576129375,68.91981155208333,69.0,86.0
110,69.06538104375,69.35810230416666,64.0,90.0
111,69.44512754374999,69.72677286458332,69.0,87.0
112,69.82487404374999,70.10810164166666,67.0,80.0
113,70.20462054375,70.51791140625,67.0,85.0
114,70.58436704374999,70.70462010208333,65.0,85.0
115,70.77424029375,71.40398657291666,65.0,86.0
116,71.53373329374999,71.65082179791666,65.0,86.0
117,71.72360654375,72.03847968333332,70.0,83.0
118,72.10335304374999,72.42771984583332,69.0,86.0
119,72.48309954374999,72.78847902083332,67.0,85.0
120,72.86284604375,73.20303561666665,69.0,86.0
121,73.24259254374999,73.63183270625,70.0,86.0
122,73.62233904374999,73.74892121041665,69.0,87.0
123,73.81221229375,74.31854096041666,70.0,84.0
124,74.38183204375,74.652401425,74.0,92.0
125,74.76157854374999,75.05429980416666,74.0,90.0
126,75.14132504374999,75.52107154375,76.0,85.0
127,75.52107154375,75.90081804375,72.0,86.0
128,75.90081804375,76.18562791874999,70.0,87.0
129,76.28056454374999,76.65239965833332,70.0,86.0
130,76.66031104374999,76.82486786041666,72.0,84.0
131,76.85018429374999,77.88815806041666,69.0,86.0
132,79.31853654374999,79.60018186458332,74.0,87.0
133,79.69828304375,79.97992836458333,74.0,92.0
134,80.07802954374999,80.31853566041666,74.0,89.0
135,80.45777604374999,80.59543414999999,74.0,91.0
136,80.64764929374999,81.09068687708333,73.0,87.0
137,81.21726904375,81.40714229374998,74.0,86.0
138,81.40714229374998,81.97676204374999,76.0,94.0
139,82.16663529374999,82.30271112291666,69.0,91.0
140,82.35650854375,82.61916653958332,76.0,85.0
141,82.73625504374999,83.07644461666666,77.0,80.0
142,83.11600154374999,83.43245696041666,76.0,89.0
143,83.49574804374998,83.86600088124999,72.0,75.0
144,83.87549454375,84.73783555416665,65.0,80.0
145,85.39448054374999,85.66188537083332,70.0,78.0
146,85.77422704374999,85.92296108958332,69.0,85.0
147,85.96410029375,86.59542884999999,67.0,84.0
148,86.72359329374999,86.89922605,65.0,85.0
149,86.91346654374999,87.32802313958332,70.0,85.0
150,87.29321304374999,87.60650390625,69.0,85.0
151,87.67295954374998,87.99257951458333,70.0,87.0
152,88.05270604374999,88.32169314791666,72.0,87.0
153,88.43245254374999,91.89762722291665,72.0,90.0
154,93.74105972291665,93.89257472291665,69.0,86.0
155,93.93045347291665,94.01568066041665,72.0,86.0
156,94.11984722291665,94.23506175416665,72.0,88.0
157,94.30924097291665,94.43392519166665,76.0,87.0
158,94.49863472291665,94.76220769166665,77.0,88.0
159,94.87742222291665,94.98632362916665,77.0,86.0
160,95.06681597291666,95.54187862916665,77.0,89.0
161,95.63499722291665,95.82439097291665,72.0,87.0
162,95.82439097291665,96.34048894166665,72.0,87.0
163,96.96075347291665,97.06018519166665,72.0,89.0
164,97.15014722291664,97.27325316041664,72.0,86.0
165,97.33954097291665,97.45002066041666,77.0,85.0
166,97.52893472291665,97.77356831666665,79.0,81.0
167,97.90772222291665,98.00241909791666,79.0,81.0
168,98.09711597291665,98.62450116041666,79.0,86.0
169,98.66558831041665,98.85522131041665,72.0,87.0
170,98.85522131041665,99.48575103541665,73.0,87.0
171,99.80338631041666,100.10205828541666,79.0,88.0
172,100.18265231041666,100.47026236041665,81.0,87.0
173,100.56191831041666,100.90009716041665,79.0,87.0
174,100.94118431041666,101.04232191041666,77.0,85.0
175,101.13081731041666,101.72658098541666,77.0,86.0
176,101.88934931041666,102.03789516041665,77.0,87.0
177,102.07898231041665,102.36185153541666,76.0,91.0
178,102.45824831041665,102.80274826041665,77.0,86.0
179,102.83751431041665,103.19149591041665,76.0,89.0
180,103.21678031041665,103.59604631041665,72.0,86.0
181,103.59604631041665,104.23447741041666,74.0,87.0
182,104.35457831041666,105.90956891041665,79.0,86.0
183,106.06127531041666,106.16241291041666,67.0,87.0
184,106.25090831041666,106.35520646041665,67.0,86.0
185,106.44054131041665,106.55274083541666,69.0,88.0
186,106.63017431041666,106.93832793541665,70.0,86.0
187,107.00944031041665,107.31601366041666,69.0,89.0
188,107.38870631041665,107.67157553541665,70.0,87.0
189,107.76797231041665,107.95760531041665,74.0,86.0
190,107.95760531041665,108.90577031041666,72.0,86.0
191,109.09540331041666,109.21708448541665,70.0,94.0
192,109.28503631041666,109.40513721041665,69.0,89.0
193,109.47466931041666,109.60741241041666,70.0,88.0
194,109.66430231041666,109.93610961041665,72.0,85.0
195,110.04356831041666,110.30589396041665,72.0,91.0
196,110.42283431041666,110.69938243541665,79.0,89.0
197,110.80210031041665,110.91746038541666,76.0,90.0
198,110.99173331041666,111.43895113541666,77.0,88.0
199,111.56063231041665,111.84982263541666,77.0,86.0
200,111.93989831041665,112.23224918541666,77.0,86.0
201,112.31916431041665,112.57042803541665,72.0,87.0
202,112.69843031041665,113.03660916041666,70.0,87.0
203,113.07769631041666,113.19463666041665,69.0,84.0
204,113.26732931041666,113.83622831041666,70.0,87.0
205,113.83622831041666,114.13964111041665,72.0,91.0
206,114.21549431041666,114.54735206041666,74.0,96.0
207,114.59476031041666,114.87604926041665,81.0,87.0
208,114.97402631041666,115.27743911041665,79.0,87.0
209,115.35329231041666,115.46707211041665,77.0,84.0
210,115.54292531041665,118.00815431041666,79.0,89.0
211,118.00815431041666,118.15986071041665,69.0,86.0
212,118.19778731041666,118.28312216041665,72.0,86.0
213,118.38742031041666,118.50278038541666,72.0,88.0
214,118.57705331041666,118.70189503541665,76.0,87.0
215,118.76668631041666,119.03059223541666,77.0,88.0
216,119.14595231041665,119.25499128541665,77.0,86.0
217,119.33558531041666,119.81124808541665,77.0,89.0
218,119.90448431041665,120.09411731041665,72.0,87.0
219,120.09411731041665,120.61086723541666,72.0,87.0
220,121.23191531041665,121.33147263541666,72.0,89.0
221,121.42154831041665,121.54480976041665,72.0,86.0
222,121.61118131041665,121.72180056041665,77.0,85.0
223,121.80081431041665,122.04575693541665,79.0,81.0
224,122.18008031041666,122.27489681041665,79.0,81.0
225,122.36971331041666,122.89752516041665,79.0,86.0
226,122.93861231041666,123.12824531041666,72.0,87.0
227,123.12824531041666,123.75877503541665,73.0,87.0
228,124.07641031041666,124.37508228541665,79.0,88.0
229,124.45567631041665,124.74328636041665,81.0,87.0
230,124.83494231041665,125.17312116041666,79.0,87.0
231,125.21420831041665,125.31534591041665,77.0,85.0
232,125.40384131041665,125.99960498541665,77.0,86.0
233,126.16237331041665,126.31091916041666,77.0,87.0
234,126.35200631041666,126.63487553541665,76.0,91.0
235,126.73127231041666,127.07577226041666,77.0,86.0
236,127.11053831041666,127.46451991041666,76.0,89.0
237,127.48980431041666,127.86907031041665,72.0,86.0
238,127.86907031041665,128.24833631041665,74.0,87.0
239,128.24833631041665,128.62760231041665,81.0,86.0
240,128.62760231041665,130.18259291041664,81.0,86.0
241,130.33429931041667,130.47336351041665,69.0,90.0
242,130.52393231041665,130.67721898541666,70.0,90.0
243,130.71356531041664,130.81944373541666,72.0,85.0
244,130.90319831041666,131.24453771041664,74.0,101.0
245,131.28246431041666,131.55427161041666,72.0,87.0
246,131.66173031041666,131.94776008541666,74.0,96.0
247,132.04099631041666,132.17373941041666,77.0,85.0
248,132.23062931041665,133.27361081041664,76.0,89.0
249,133.36842731041665,133.49010848541667,76.0,94.0
250,133.55806031041666,133.67816121041665,76.0,89.0
251,133.74769331041665,133.88043641041665,74.0,88.0
252,133.93732631041667,134.20913361041664,73.0,85.0
253,134.31659231041664,134.57891796041665,73.0,91.0
254,134.69585831041667,134.97240643541664,81.0,89.0
255,135.07512431041664,135.19048438541665,79.0,90.0
256,135.26475731041666,135.71197513541665,77.0,88.0
257,135.83365631041664,136.12284663541666,77.0,86.0
258,136.21292231041664,136.50527318541666,76.0,86.0
259,136.59218831041665,136.84345203541665,72.0,87.0
260,136.97145431041665,137.30963316041664,70.0,87.0
261,137.35072031041665,137.46766066041664,69.0,84.0
262,137.54035331041666,138.10925231041665,70.0,87.0
263,138.10925231041665,138.41266511041664,72.0,91.0
264,138.48851831041665,138.82037606041666,74.0,96.0
265,138.86778431041665,139.14907326041666,81.0,87.0
266,139.24705031041665,139.55046311041664,79.0,87.0
267,139.62631631041666,139.74009611041666,77.0,84.0
268,139.81594931041667,141.14338031041666,79.0,89.0
269,141.33301331041665,141.45469448541667,77.0,87.0
270,141.52264631041666,142.16107741041665,77.0,87.0
271,142.28117831041666,142.61777688541665,76.0,89.0
272,142.66044431041666,142.78528603541665,77.0,87.0
273,142.85007731041665,145.8984297875,77.0,84.0
274,157.66850452916665,157.7846724708333,65.0,83.0
275,157.85946552916664,157.99313822916665,65.0,86.0
276,158.05042652916663,158.18409922916663,67.0,82.0
277,158.24138752916664,158.50555024583332,69.0,86.0
278,158.62318262499997,158.8858406208333,69.0,85.0
279,159.00292912499995,159.28140989166664,69.0,85.0
280,159.38267562499996,159.54723244166664,70.0,85.0
281,159.57254887499997,160.60102897916664,69.0,81.0
282,160.7117002833333,160.8902713583333,69.0,85.0
283,160.9013332833333,161.0672621583333,67.0,80.0
284,161.0909662833333,161.2474135083333,65.0,81.0
285,161.2805992833333,161.5761107083333,67.0,81.0
286,161.6598652833333,161.90006708333328,67.0,84.0
287,162.0391312833333,162.3362229833333,67.0,84.0
288,162.4183972833333,162.5384981833333,70.0,82.0
289,162.6080302833333,163.5783191333333,69.0,85.0
290,163.9354612833333,164.2262318833333,67.0,85.0
291,164.3147272833333,164.6955735583333,65.0,85.0
292,164.6939932833333,164.8662432583333,64.0,81.0
293,164.88362628333329,165.5868486583333,65.0,84.0
294,165.6421582833333,165.8317912833333,64.0,88.0
295,165.8317912833333,166.2236994833333,65.0,83.0
296,166.2110572833333,166.59190355833329,64.0,85.0
297,166.5903232833333,166.9221810333333,65.0,81.0
298,166.9695892833333,167.1070732083333,74.0,79.0
299,167.1592222833333,168.6762862833333,72.0,82.0
300,168.86591928333328,169.2230614333333,72.0,87.0
301,169.24518528333329,169.62919210833329,70.0,86.0
302,169.6244512833333,169.9420865583333,69.0,85.0
303,170.0037172833333,170.3023892583333,72.0,87.0
304,170.3829832833333,170.6895566333333,72.0,86.0
305,170.7622492833333,171.1415152833333,74.0,86.0
306,171.1415152833333,171.5207812833333,70.0,82.0
307,171.5207812833333,171.7925885833333,69.0,86.0
308,171.9000472833333,172.6585792833333,67.0,84.0
309,172.84821228333328,172.9904370333333,67.0,84.0
310,173.0378452833333,173.1532053583333,69.0,87.0
311,173.22747828333328,173.35073973333328,70.0,86.0
312,173.4171112833333,173.6794369333333,70.0,85.0
313,173.7963772833333,174.0539621083333,72.0,87.0
314,174.1756432833333,174.4600927833333,69.0,86.0
315,174.5549092833333,174.7018748583333,67.0,80.0
316,174.7445422833333,175.2091431333333,65.0,83.0
317,175.3134412833333,175.6532004083333,65.0,85.0
318,175.6927072833333,176.0008609083333,64.0,86.0
319,176.0719732833333,176.3595833333333,65.0,86.0
320,176.4512392833333,176.78151675833328,70.0,84.0
321,176.8305052833333,177.2113515583333,69.0,85.0
322,177.20977128333328,177.5574317833333,70.0,81.0
323,177.5890372833333,177.9272161333333,62.0,81.0
324,177.96830328333328,178.6241174083333,65.0,83.0
325,178.7268352833333,179.0507916583333,64.0,85.0
326,179.1061012833333,179.2262021833333,65.0,80.0
327,179.2957342833333,181.9284724333333,65.0,84.0
328,182.5194952833333,182.7865617583333,70.0,86.0
329,182.8987612833333,183.18163050833328,70.0,91.0
330,183.2780272833333,183.52613045833328,70.0,89.0
331,183.6572932833333,183.79635748333328,70.0,88.0
332,183.8469262833333,184.2704399833333,69.0,86.0
333,184.4158252833333,184.7081761583333,64.0,90.0
334,184.7950912833333,185.07638023333328,69.0,87.0
335,185.1743572833333,185.4572265083333,67.0,80.0
336,185.5536232833333,185.8665177333333,67.0,85.0
337,185.93288928333328,186.0529901833333,65.0,85.0
338,186.1225222833333,186.7514717333333,65.0,86.0
339,186.8810542833333,186.9979946333333,65.0,86.0
340,187.07068728333329,187.38516200833328,70.0,83.0
341,187.4499532833333,187.7739096583333,69.0,86.0
342,187.8292192833333,188.1342123583333,67.0,85.0
343,188.2084852833333,188.5482444083333,69.0,86.0
344,188.5877512833333,188.9764989333333,70.0,86.0
345,188.9670172833333,189.09343928333328,69.0,87.0
346,189.1566502833333,189.6623382833333,70.0,84.0
347,189.7255492833333,189.9957763083333,74.0,92.0
348,190.1048152833333,190.3971661583333,74.0,90.0
349,190.4840812833333,190.8633472833333,76.0,85.0
350,190.8633472833333,191.2426132833333,72.0,86.0
351,191.2426132833333,191.5270627833333,70.0,87.0
352,191.6218792833333,191.99324390833328,70.0,86.0
353,192.0011452833333,192.16549388333328,72.0,84.0
354,192.1907782833333,193.2274386833333,69.0,86.0
355,194.65600728333328,194.93729623333329,74.0,87.0
356,195.0352732833333,195.3165622333333,74.0,92.0
357,195.41453928333328,195.6547410833333,74.0,89.0
358,195.79380528333328,195.93128920833328,74.0,91.0
359,195.9834382833333,196.4259152833333,73.0,87.0
360,196.5523372833333,196.7419702833333,74.0,86.0
361,196.7419702833333,197.3108692833333,76.0,94.0
362,197.5005022833333,197.6364059333333,69.0,91.0
363,197.6901352833333,197.9524609333333,76.0,85.0
364,198.0694012833333,198.4091604083333,77.0,80.0
365,198.4486672833333,198.7647222833333,76.0,89.0
366,198.8279332833333,199.1977176333333,72.0,75.0
367,199.2071992833333,200.0684491583333,65.0,80.0
368,200.7242632833333,200.99132975833328,70.0,78.0
369,201.1035292833333,201.25207513333328,69.0,85.0
370,201.2931622833333,201.9236920083333,67.0,84.0
371,202.0516942833333,202.2271048083333,65.0,85.0
372,202.2413272833333,202.6553593333333,70.0,85.0
373,202.62059328333328,202.9334877333333,69.0,85.0
374,202.9998592833333,203.3190748333333,70.0,87.0
375,203.37912528333328,203.6477720333333,72.0,87.0
376,203.7583912833333,207.2223540833333,72.0,90.0
377,209.0681152833333,209.2198216833333,69.0,86.0
378,209.25774828333329,209.3430831333333,72.0,86.0
379,209.4473812833333,209.56274135833328,72.0,88.0
380,209.6370142833333,209.7618560083333,76.0,87.0
381,209.8266472833333,210.0905532083333,77.0,88.0
382,210.2059132833333,210.31495225833328,77.0,86.0
383,210.3955462833333,210.8712090583333,77.0,89.0
384,210.9644452833333,211.1540782833333,72.0,87.0
385,211.1540782833333,211.6708282083333,72.0,87.0
386,212.2918762833333,212.3914336083333,72.0,89.0
387,212.4815092833333,212.60477073333328,72.0,86.0
388,212.6711422833333,212.78176153333328,77.0,85.0
389,212.86077528333328,213.1057179083333,79.0,81.0
390,213.24004128333328,213.3348577833333,79.0,81.0
391,213.4296742833333,213.9574861333333,79.0,86.0
392,213.9985732833333,214.1882062833333,72.0,87.0
393,214.1882062833333,214.8187360083333,73.0,87.0
394,215.1363712833333,215.43504325833328,79.0,88.0
395,215.5156372833333,215.8032473333333,81.0,87.0
396,215.8949032833333,216.23308213333328,79.0,87.0
397,216.2741692833333,216.37530688333328,77.0,85.0
398,216.46380228333328,217.05956595833328,77.0,86.0
399,217.22233428333328,217.3708801333333,77.0,87.0
400,217.4119672833333,217.6948365083333,76.0,91.0
401,217.7912332833333,218.1357332333333,77.0,86.0
402,218.1704992833333,218.5244808833333,76.0,89.0
403,218.5497652833333,218.9290312833333,72.0,86.0
404,218.9290312833333,219.5674623833333,74.0,87.0
405,219.6875632833333,221.2425538833333,79.0,86.0
406,221.3942602833333,221.49539788333328,67.0,87.0
407,221.58389328333328,221.6881914333333,67.0,86.0
408,221.7735262833333,221.8857258083333,69.0,88.0
409,221.96315928333328,222.2713129083333,70.0,86.0
410,222.34242528333328,222.6489986333333,69.0,89.0
411,222.72169128333329,223.0045605083333,70.0,87.0
412,223.1009572833333,223.2905902833333,74.0,86.0
413,223.2905902833333,224.2387552833333,72.0,86.0
414,224.42838828333328,224.5500694583333,70.0,94.0
415,224.6180212833333,224.7381221833333,69.0,89.0
416,224.8076542833333,224.94039738333328,70.0,88.0
417,224.9972872833333,225.2690945833333,72.0,85.0
418,225.3765532833333,225.63887893333327,72.0,91.0
419,225.7558192833333,226.0323674083333,79.0,89.0
420,226.1350852833333,226.2504453583333,76.0,90.0
421,226.3247182833333,226.7719361083333,77.0,88.0
422,226.8936172833333,227.1828076083333,77.0,86.0
423,227.27288328333327,227.56523415833328,77.0,86.0
424,227.6521492833333,227.9034130083333,72.0,87.0
425,228.03141528333327,228.3695941333333,70.0,87.0
426,228.4106812833333,228.5276216333333,69.0,84.0
427,228.6003142833333,229.1692132833333,70.0,87.0
428,229.1692132833333,229.4726260833333,72.0,91.0
429,229.54847928333328,229.8803370333333,74.0,96.0
430,229.9277452833333,230.20903423333328,81.0,87.0
431,230.30701128333328,230.6104240833333,79.0,87.0
432,230.6862772833333,230.8000570833333,77.0,84.0
433,230.8759102833333,233.3411392833333,79.0,89.0
434,233.3411392833333,233.4928456833333,69.0,86.0
435,233.5307722833333,233.6161071333333,72.0,86.0
436,233.7204052833333,233.83576535833328,72.0,88.0
437,233.91003828333328,234.0348800083333,76.0,87.0
438,234.0996712833333,234.3635772083333,77.0,88.0
439,234.4789372833333,234.5879762583333,77.0,86.0
440,234.66857028333328,235.1442330583333,77.0,89.0
441,235.2374692833333,235.42710228333328,72.0,87.0
442,235.42710228333328,235.94385220833328,72.0,87.0
443,236.5649002833333,236.6644576083333,72.0,89.0
444,236.75453328333327,236.8777947333333,72.0,86.0
445,236.9441662833333,237.0547855333333,77.0,85.0
446,237.1337992833333,237.3787419083333,79.0,81.0
447,237.51306528333328,237.6078817833333,79.0,81.0
448,237.7026982833333,238.2305101333333,79.0,86.0
449,238.27159728333328,238.4612302833333,72.0,87.0
450,238.4612302833333,239.0917600083333,73.0,87.0
451,239.4093952833333,239.7080672583333,79.0,88.0
452,239.78866128333328,240.0762713333333,81.0,87.0
453,240.1679272833333,240.50610613333328,79.0,87.0
454,240.54719328333329,240.6483308833333,77.0,85.0
455,240.7368262833333,241.3325899583333,77.0,86.0
456,241.4953582833333,241.6439041333333,77.0,87.0
457,241.6849912833333,241.96786050833327,76.0,91.0
458,242.0642572833333,242.4087572333333,77.0,86.0
459,242.4435232833333,242.7975048833333,76.0,89.0
460,242.8227892833333,243.2020552833333,72.0,86.0
461,243.2020552833333,243.5813212833333,74.0,87.0
462,243.5813212833333,243.9605872833333,81.0,86.0
463,243.9605872833333,245.5165962958333,81.0,86.0
464,245.6685910958333,245.80791966249996,69.0,90.0
465,245.8585845958333,246.01216267499996,70.0,90.0
466,246.0485780958333,246.15465779999997,72.0,85.0
467,246.2385715958333,246.5805598958333,74.0,101.0
468,246.6185585958333,246.89088261249998,72.0,87.0
469,246.9985455958333,247.28511912499997,74.0,96.0
470,247.3785325958333,247.5115280458333,77.0,85.0
471,247.5685260958333,248.6134903458333,76.0,89.0
472,248.7084870958333,248.83039959166663,76.0,94.0
473,248.8984805958333,249.01880981249997,76.0,89.0
474,249.0884740958333,249.2214695458333,74.0,88.0
475,249.2784675958333,249.55079161249998,73.0,85.0
476,249.6584545958333,249.92127893749998,73.0,91.0
477,250.0384415958333,250.31551544999996,81.0,89.0
478,250.4184285958333,250.53400797499995,79.0,90.0
479,250.6084220958333,251.05649009999996,77.0,88.0
480,251.1784025958333,251.4681426833333,77.0,86.0
481,251.5583895958333,251.85129624166663,76.0,86.0
482,251.9383765958333,252.1901179833333,72.0,87.0
483,252.3183635958333,252.65718533749995,70.0,87.0
484,252.6983505958333,252.81551325416663,69.0,84.0
485,252.8883440958333,253.4583245958333,70.0,87.0
486,253.4583245958333,253.7623141958333,72.0,91.0
487,253.8383115958333,254.17080022083329,74.0,96.0
488,254.2182985958333,254.50012228749998,81.0,87.0
489,254.5982855958333,254.9022751958333,79.0,87.0
490,254.9782725958333,255.0922686958333,77.0,84.0
491,255.1682660958333,256.4982205958333,79.0,89.0
492,256.6882140958333,256.81012659166663,77.0,87.0
493,256.8782075958333,257.51785237916664,77.0,87.0
494,257.6381815958333,257.97542005833327,76.0,89.0
495,258.0181685958333,258.14324765,77.0,87.0
496,258.2081620958333,261.26070627916664,77.0,84.0
497,284.95444606875,285.10624866874997,69.0,86.0
498,285.14419931875,285.22958828125,72.0,86.0
499,285.33395256874996,285.44938579583334,72.0,88.0
500,285.52370581875,285.6486267083333,76.0,87.0
501,285.71345906875,285.97753234166663,77.0,88.0
502,286.09296556875,286.2020736875,77.0,86.0
503,286.28271881874997,286.7586832208333,77.0,89.0
504,286.85197856875,287.04173181875,72.0,87.0
505,287.04173181875,287.558809425,72.0,87.0
506,288.18025131875,288.279871775,72.0,89.0
507,288.37000456875,288.49334418125,72.0,86.0
508,288.55975781875,288.6704472145833,77.0,85.0
509,288.74951106875,288.99460901666663,79.0,81.0
510,289.12901756875,289.22389419374997,79.0,81.0
511,289.31877081875,289.8469173645833,79.0,86.0
512,289.88803056874997,290.07778381875,72.0,87.0
513,290.07778381875,290.708713375,73.0,87.0
514,291.02655006875,291.3254114375,79.0,88.0
515,291.40605656875,291.69384899791663,81.0,87.0
516,291.78556306875,292.1239563645833,79.0,87.0
517,292.16506956874997,292.26627130208334,77.0,85.0
518,292.35482281875,292.95096427916667,77.0,86.0
519,293.11383581875,293.26247586458334,77.0,87.0
520,293.30358906875,293.58663766666666,76.0,91.0
521,293.68309556875,294.02781397291665,77.0,86.0
522,294.06260206875,294.41680813541666,76.0,89.0
523,294.44210856875,294.82161506874996,72.0,86.0
524,294.82161506874996,295.46045101041665,74.0,87.0
525,295.58062806875,297.13660471875,79.0,86.0
526,297.28840731875,297.3896090520833,67.0,87.0
527,297.47816056875,297.58252485624996,67.0,86.0
528,297.66791381875,297.78018449166666,69.0,88.0
529,297.85766706875,298.1660161,70.0,86.0
530,298.23717356875,298.5439413229167,69.0,89.0
531,298.61668006875,298.89972866666665,70.0,87.0
532,298.99618656875,299.18593981875,74.0,86.0
533,299.18593981875,300.13470606875,72.0,86.0
534,300.32445931875,300.4462176541667,70.0,94.0
535,300.51421256875,300.63438962708335,69.0,89.0
536,300.70396581874996,300.83679309375,70.0,88.0
537,300.89371906875,301.16569872708334,72.0,85.0
538,301.27322556875,301.5357175645833,72.0,91.0
539,301.65273206874997,301.9294555583333,79.0,89.0
540,302.03223856875,302.14767179583333,76.0,90.0
541,302.22199181875,302.6694932333333,77.0,88.0
542,302.79125156875,303.080625275,77.0,86.0
543,303.17075806875,303.4632943291667,77.0,86.0
544,303.55026456875,303.801687625,72.0,87.0
545,303.92977106875,304.2681643645833,70.0,87.0
546,304.30927756874996,304.4262920729167,69.0,84.0
547,304.49903081875,305.06829056875,70.0,87.0
548,305.06829056875,305.37189576875,72.0,91.0
549,305.44779706875,305.77986525625,74.0,96.0
550,305.82730356875,306.1087708895833,81.0,87.0
551,306.20681006875,306.51041526874997,79.0,87.0
552,306.58631656874996,306.70016851875,77.0,84.0
553,306.77606981875,309.24286206875,79.0,89.0
554,309.24286206875,309.39466466875,69.0,86.0
555,309.43261531875,309.51800428125,72.0,86.0
556,309.62236856875,309.7378017958333,72.0,88.0
557,309.81212181875,309.9370427083333,76.0,87.0
558,310.00187506875,310.2659483416667,77.0,88.0
559,310.38138156875,310.4904896875,77.0,86.0
560,310.57113481875,311.04709922083333,77.0,89.0
561,311.14039456874997,311.33014781875,72.0,87.0
562,311.33014781875,311.847225425,72.0,87.0
563,312.46866731874997,312.568287775,72.0,89.0
564,312.65842056875,312.78176018125,72.0,86.0
565,312.84817381874996,312.95886321458335,77.0,85.0
566,313.03792706875,313.28302501666667,79.0,81.0
567,313.41743356874997,313.51231019375,79.0,81.0
568,313.60718681875,314.1353333645833,79.0,86.0
569,314.17644656875,314.36619981875,72.0,87.0
570,314.36619981875,314.997129375,73.0,87.0
571,315.31496606875,315.6138274375,79.0,88.0
572,315.69447256875,315.9822649979167,81.0,87.0
573,316.07397906874996,316.41237236458335,79.0,87.0
574,316.45348556875,316.5546873020833,77.0,85.0
575,316.64323881875,317.23938027916665,77.0,86.0
576,317.40225181874996,317.5508918645833,77.0,87.0
577,317.59200506875,317.87505366666664,76.0,91.0
578,317.97151156875,318.31622997291663,77.0,86.0
579,318.35101806874997,318.70522413541664,76.0,89.0
580,318.73052456874996,319.11003106875,72.0,86.0
581,319.11003106875,319.48953756875,74.0,87.0
582,319.48953756875,319.86904406875,81.0,86.0
583,319.86904406875,321.42502071875,81.0,86.0
584,321.57682331875,321.7159757020833,69.0,90.0
585,321.76657656875,321.91996044583334,70.0,90.0
586,321.95632981874996,322.0622753833333,72.0,85.0
587,322.14608306875,322.48763891875,74.0,101.0
588,322.52558956875,322.79756922708333,72.0,87.0
589,322.90509606874997,323.1913072208333,74.0,96.0
590,323.28460256874996,323.41742984374997,77.0,85.0
591,323.47435581875,324.51799869375,76.0,89.0
592,324.61287531874996,324.73463365416666,76.0,94.0
593,324.80262856875,324.92280562708333,76.0,89.0
594,324.99238181875,325.12520909374996,74.0,88.0
595,325.18213506875,325.4541147270833,73.0,85.0
596,325.56164156875,325.82413356458335,73.0,91.0
597,325.94114806875,326.21787155833334,81.0,89.0
598,326.32065456875,326.4360877958333,79.0,90.0
599,326.51040781874997,326.95790923333334,77.0,88.0
600,327.07966756875,327.3688414833333,77.0,86.0
601,327.4588603958333,327.75102704166665,76.0,86.0
602,327.8378873958333,328.0889927833333,72.0,87.0
603,328.2169143958333,328.5548801375,70.0,87.0
604,328.5959234520833,328.71264257291665,69.0,84.0
605,328.78519770208334,329.35302045208334,70.0,87.0
606,329.35302045208334,329.6558592520833,72.0,91.0
607,329.7315689520833,330.0627988895833,74.0,96.0
608,330.11011745208333,330.39087425624996,81.0,87.0
609,330.4886659520833,330.7915047520833,79.0,87.0
610,330.8672144520833,330.9807790020833,77.0,84.0
611,331.0564887020833,332.3814084520833,79.0,89.0
612,332.57068270208333,332.69213367916666,77.0,87.0
613,332.7599569520833,333.39718026041663,77.0,87.0
614,333.5170539520833,333.8530157458333,76.0,89.0
615,333.8956024520833,334.02020799999997,77.0,87.0
616,334.0848767020833,337.1274602708333,77.0,84.0
