,start,end,pitch,velocity
0,0.3908224395833333,1.2405052333333333,69.0,79.0
1,0.7705689395833333,1.2499988958333332,60.0,70.0
2,0.3908224395833333,1.3306950270833333,53.0,80.0
3,1.1503154395833333,1.3971506645833334,65.0,76.0
4,1.9098084395833332,2.3433523604166666,64.0,78.0
5,1.9098084395833332,2.7262634145833333,67.0,75.0
6,2.2895549395833332,2.80537726875,60.0,72.0
7,1.9098084395833332,2.85284558125,52.0,85.0
8,2.669301439583333,3.006326458333333,64.0,81.0
9,3.428794439583333,4.178793777083333,65.0,79.0
10,3.808540939583333,4.294300004166667,57.0,65.0
11,3.428794439583333,4.363920195833333,50.0,81.0
12,4.188287439583333,4.47626186875,62.0,85.0
13,4.947780439583333,5.191451110416667,60.0,76.0
14,4.947780439583333,5.5158179125,65.0,78.0
15,5.327526939583334,5.759488583333333,60.0,80.0
16,4.947780439583333,5.879741641666667,53.0,80.0
17,5.707273439583333,6.068032614583333,63.0,76.0
18,6.0870199395833335,6.398728525,60.0,61.0
19,6.466766439583333,6.990500154166666,58.0,74.0
20,6.466766439583333,7.289550522916667,65.0,82.0
21,7.226259439583333,7.607588216666667,58.0,85.0
22,6.466766439583333,7.802208297916667,46.0,79.0
23,6.8465129395833335,7.821195622916666,53.0,64.0
24,7.6060059395833335,7.999992933333333,62.0,79.0
25,7.985752439583333,8.770561872916666,60.0,83.0
26,7.985752439583333,9.0379667,45.0,74.0
27,8.365498939583333,9.039548977083333,52.0,80.0
28,8.745245439583334,9.210434902083334,57.0,80.0
29,9.124991939583333,9.4651815125,60.0,81.0
30,9.504738439583333,10.291130149999999,62.0,80.0
31,10.264231439583334,10.75157278125,58.0,88.0
32,9.884484939583333,11.210433135416666,50.0,74.0
33,10.643977939583333,11.234167291666667,62.0,85.0
34,11.023724439583333,11.462015191666666,67.0,85.0
35,11.403470939583332,12.050622266666666,50.0,67.0
36,11.783217439583334,12.151888,58.0,74.0
37,9.504738439583333,12.362330852083334,43.0,85.0
38,11.783217439583334,12.530052222916666,62.0,80.0
39,12.162963939583333,12.6075838,55.0,86.0
40,12.542710439583333,13.069608708333332,60.0,85.0
41,12.922456939583332,13.38131729375,55.0,80.0
42,13.302203439583334,13.705684095833332,62.0,78.0
43,13.681949939583333,14.0031521875,55.0,77.0
44,14.061696439583333,14.8101135,64.0,82.0
45,14.441442939583332,14.849670427083332,55.0,69.0
46,12.542710439583333,14.9715057625,48.0,85.0
47,14.821189439583334,15.050619616666665,60.0,79.0
48,15.580682439583333,15.69777094375,36.0,81.0
49,15.580682439583333,15.843340435416666,55.0,75.0
50,15.580682439583333,16.0727706125,64.0,81.0
51,16.719921939583333,17.153465860416667,60.0,75.0
52,16.719921939583333,17.191440510416665,67.0,75.0
53,15.960428939583332,17.846503222916667,48.0,70.0
54,16.340175439583334,17.859161439583332,55.0,80.0
55,18.618654439583334,19.30536269375,65.0,81.0
56,18.998400939583334,19.43827396875,60.0,75.0
57,19.378147439583334,19.748400277083334,67.0,84.0
58,19.757893939583333,20.2120074625,60.0,75.0
59,20.137640439583333,20.954095414583332,69.0,82.0
60,20.517386939583332,20.984158679166665,60.0,72.0
61,20.89713343958333,21.13763955625,65.0,83.0
62,18.618654439583334,21.68510742708333,53.0,76.0
63,21.656626439583334,22.278461333333333,64.0,86.0
64,22.036372939583334,22.351246079166668,60.0,74.0
65,22.416119439583333,23.033207502083332,67.0,75.0
66,21.656626439583334,23.05061255,52.0,86.0
67,22.795865939583333,23.204093427083333,64.0,86.0
68,23.555358939583332,24.00472563125,61.0,78.0
69,23.175612439583333,24.2183330375,49.0,90.0
70,24.31485193958333,24.468332816666667,61.0,70.0
71,23.93510543958333,24.496813804166667,64.0,85.0
72,24.694598439583334,25.506306583333334,62.0,79.0
73,25.074344939583334,25.582255883333332,57.0,74.0
74,24.694598439583334,25.947761889583333,50.0,82.0
75,25.833837939583333,26.311685618749998,57.0,78.0
76,25.454091439583333,26.332255220833332,65.0,82.0
77,26.213584439583332,26.849659827083332,62.0,85.0
78,26.593330939583332,27.039533077083334,57.0,78.0
79,26.213584439583332,27.2563050375,50.0,85.0
80,26.97307743958333,27.780038752083332,65.0,84.0
81,27.732570439583334,28.522126704166666,60.0,80.0
82,28.492063439583333,28.93193646875,55.0,86.0
83,28.871809939583333,29.101240116666666,60.0,90.0
84,28.112316939583334,29.35440445,52.0,78.0
85,29.251556439583332,29.98731528333333,64.0,88.0
86,27.732570439583334,30.161365762499997,45.0,83.0
87,29.631302939583332,30.170859425,52.0,69.0
88,30.01104943958333,30.189846749999997,60.0,84.0
89,30.01104943958333,30.21991001458333,57.0,81.0
90,30.770542439583334,31.604402462499998,62.0,83.0
91,30.770542439583334,31.7563010625,46.0,79.0
92,31.150288939583334,31.78161749583333,53.0,73.0
93,31.530035439583333,31.816427591666667,58.0,85.0
94,32.289528439583336,32.77370522708333,60.0,75.0
95,32.289528439583336,33.090160643749996,64.0,85.0
96,32.66927493958333,33.155034004166666,55.0,80.0
97,32.289528439583336,33.16610994375,48.0,86.0
98,33.049021439583335,33.246806075,60.0,87.0
99,33.808514439583334,34.28477984166666,57.0,80.0
100,34.56800743958333,34.765792075,57.0,83.0
101,34.56800743958333,34.9651589875,61.0,86.0
102,34.18826093958333,35.1645259,52.0,78.0
103,33.808514439583334,35.202500549999996,45.0,86.0
104,34.94775393958333,35.41610795625,57.0,81.0
105,35.32750043958333,36.060094729166664,50.0,85.0
106,35.32750043958333,36.13604402916666,62.0,83.0
107,35.707246939583335,36.21199332916667,57.0,71.0
108,36.08699343958333,36.57749933541667,65.0,76.0
109,36.84648643958333,37.67559963125,58.0,82.0
110,37.22623293958333,38.41294075208333,53.0,84.0
111,37.98572593958333,39.028446537499995,58.0,77.0
112,37.60597943958333,39.07116801875,61.0,87.0
113,38.365472439583336,39.360724725,65.0,70.0
114,36.84648643958333,39.37971205,46.0,78.0
115,39.884458439583334,40.44458452708333,60.0,81.0
116,39.884458439583334,40.69616658333333,65.0,82.0
117,40.64395143958333,41.07878594166666,60.0,89.0
118,39.884458439583334,41.20978328541666,48.0,86.0
119,40.26420493958333,41.27764937916666,55.0,82.0
120,41.023546097916665,41.408646722916664,65.0,87.0
121,41.40233359791666,41.937370941666664,60.0,77.0
122,41.40233359791666,42.234087816666666,64.0,86.0
123,42.15990859791666,42.830678129166664,60.0,86.0
124,41.40233359791666,42.840147816666665,48.0,86.0
125,41.78112109791666,42.844882660416665,55.0,70.0
126,42.917483597916664,43.60245766041666,65.0,81.0
127,43.29627109791666,43.73503328541666,60.0,75.0
128,43.67505859791666,44.04437641041666,67.0,84.0
129,44.05384609791666,44.50681281666666,60.0,75.0
130,44.43263359791666,45.247026722916665,69.0,82.0
131,44.811421097916664,45.277014066666666,60.0,72.0
132,45.190208597916666,45.43010734791666,65.0,83.0
133,42.917483597916664,45.976192660416665,53.0,76.0
134,45.94778359791666,46.56804812916666,64.0,86.0
135,46.32657109791666,46.64064906666666,60.0,74.0
136,46.705358597916664,47.320888285416665,67.0,75.0
137,45.94778359791666,47.33824937916666,52.0,86.0
138,47.084146097916665,47.49134266041666,64.0,86.0
139,47.84172109791666,48.289952972916666,61.0,78.0
140,47.46293359791666,48.50302094166666,49.0,90.0
141,48.599296097916664,48.752389379166665,61.0,70.0
142,48.22050859791666,48.78079844166666,64.0,85.0
143,48.978083597916665,49.78774187916666,62.0,79.0
144,49.35687109791667,49.86349937916666,57.0,74.0
145,48.978083597916665,50.22808234791666,50.0,82.0
146,50.11444609791666,50.59108703541666,57.0,78.0
147,49.73565859791666,50.61160469166666,65.0,82.0
148,50.493233597916664,51.12770266041666,62.0,85.0
149,50.872021097916665,51.31709641041666,57.0,78.0
150,50.493233597916664,51.53332094166666,50.0,85.0
151,51.25080859791666,52.05573203541666,65.0,84.0
152,52.00838359791666,52.79594594166666,60.0,80.0
153,52.765958597916665,53.20472078541666,55.0,86.0
154,53.144746097916666,53.37359687916666,60.0,90.0
155,52.387171097916664,53.62612187916666,52.0,78.0
156,53.52353359791666,54.25743437916666,64.0,88.0
157,52.00838359791666,54.43104531666666,45.0,83.0
158,53.90232109791666,54.44051500416666,52.0,69.0
159,54.28110859791666,54.459454379166665,60.0,84.0
160,54.28110859791666,54.489441722916666,57.0,81.0
161,55.03868359791666,55.870437816666666,62.0,83.0
162,55.03868359791666,56.02195281666666,46.0,79.0
163,55.41747109791666,56.04720531666666,53.0,73.0
164,55.79625859791666,56.081927504166664,58.0,85.0
165,56.553833597916665,57.036787660416664,60.0,75.0
166,56.553833597916665,57.35244391041667,64.0,85.0
167,56.932621097916666,57.41715344166666,55.0,80.0
168,56.553833597916665,57.42820141041666,48.0,86.0
169,57.31140859791667,57.508693754166664,60.0,87.0
170,58.06898359791666,58.54404625416666,57.0,80.0
171,58.82655859791666,59.02384375416666,57.0,83.0
172,58.82655859791666,59.222707191666665,61.0,86.0
173,58.447771097916664,59.421570629166666,52.0,78.0
174,58.06898359791666,59.459449379166664,45.0,86.0
175,59.20534609791666,59.67251734791667,57.0,81.0
176,59.58413359791666,60.314877816666666,50.0,85.0
177,59.58413359791666,60.39063531666666,62.0,83.0
178,59.96292109791666,60.46639281666666,57.0,71.0
179,60.341708597916664,60.83097578541666,65.0,76.0
180,61.09928359791667,61.62642953541666,58.0,83.0
181,61.47807109791666,61.92630297291666,53.0,82.0
182,61.09928359791667,62.07466141041667,46.0,86.0
183,61.85685859791666,62.08255281666666,58.0,69.0
184,62.235646097916664,62.33981266041666,53.0,88.0
185,61.85685859791666,62.415570160416664,65.0,89.0
186,62.61443359791666,63.13526641041666,60.0,78.0
187,62.61443359791666,63.22049359791666,64.0,83.0
188,62.99322109791666,63.48406656666666,55.0,78.0
189,62.61443359791666,63.52036703541666,48.0,86.0
190,63.37200859791666,64.17535375416666,60.0,86.0
191,64.12958359791666,64.72835955833332,65.0,85.0
192,64.50842304374999,65.09070101041665,48.0,69.0
193,64.88816954375,65.17297941874999,60.0,84.0
194,64.88816954375,65.49892849791665,65.0,77.0
195,65.26791604374999,65.60652333958332,60.0,86.0
196,65.64766254374999,65.79639658958332,60.0,67.0
197,65.64766254374999,66.12076339166666,67.0,74.0
198,66.02740904375,66.27899109999998,60.0,70.0
199,65.64766254374999,67.11285112291665,48.0,83.0
200,64.12958359791666,67.15082577291666,41.0,81.0
201,66.40715554375,67.15557260416666,65.0,86.0
202,66.78690204374999,67.15715488125,60.0,86.0
203,66.40715554375,67.15873715833332,69.0,85.0
204,67.16664854374999,67.95620480833333,62.0,80.0
205,67.16664854374999,68.01000222916666,55.0,79.0
206,67.54639504375,68.17297676874999,50.0,72.0
207,67.16664854374999,68.23152102083333,43.0,86.0
208,67.92614154374999,68.28531844166666,58.0,87.0
209,68.68563454374998,69.07487470624999,57.0,80.0
210,68.68563454374998,69.20620370416665,61.0,69.0
211,69.44512754374999,69.69670959999999,57.0,87.0
212,69.06538104375,69.77424117708333,52.0,81.0
213,68.68563454374998,69.86126641666665,45.0,85.0
214,69.82487404374999,70.10810164166666,61.0,92.0
215,70.20462054375,70.82487316041666,62.0,86.0
216,70.58436704374999,71.04955650624998,57.0,81.0
217,70.96411354374999,71.06063244583332,62.0,80.0
218,70.20462054375,71.20936649166666,50.0,86.0
219,70.96411354374999,71.2251892625,65.0,85.0
220,71.72360654375,72.04322651458332,60.0,70.0
221,71.72360654375,72.43404895416666,63.0,75.0
222,72.48309954374999,72.71569427499999,53.0,79.0
223,72.48309954374999,72.81854228541665,57.0,77.0
224,72.10335304374999,72.82645367083333,48.0,75.0
225,71.72360654375,72.88974475416666,41.0,85.0
226,73.24259254374999,73.73151616249999,62.0,82.0
227,73.24259254374999,74.01474376041666,46.0,84.0
228,73.62233904374999,74.06695890416665,53.0,85.0
229,74.00208554374998,74.28056631041666,58.0,92.0
230,74.38183204375,74.538477475,53.0,86.0
231,74.76157854374999,74.95461634791666,55.0,71.0
232,74.76157854374999,75.24100849999999,60.0,78.0
233,75.14132504374999,75.57328668749999,55.0,80.0
234,75.52107154375,75.62075499999999,60.0,86.0
235,74.76157854374999,75.67929925208333,48.0,85.0
236,75.52107154375,75.69037519166666,64.0,90.0
237,76.28056454374999,77.03056388124999,57.0,76.0
238,76.28056454374999,77.10809545833332,60.0,81.0
239,77.04005754375,77.63341145,65.0,86.0
240,77.41980404374999,77.66663926874999,57.0,77.0
241,76.66031104374999,77.94353775833332,48.0,71.0
242,76.28056454374999,77.95619597499999,41.0,83.0
243,77.79955054374999,77.95619597499999,60.0,79.0
244,77.79955054374999,77.96410736041666,57.0,81.0
245,78.55904354375,78.9720178625,57.0,81.0
246,78.55904354375,79.02423300624999,61.0,82.0
247,78.55904354375,79.22518219583333,45.0,86.0
248,78.93879004374999,79.24258724375,52.0,83.0
249,79.31853654374999,80.04638400208333,65.0,87.0
250,79.31853654374999,80.36758624999999,50.0,89.0
251,80.07802954374999,80.54638356041666,62.0,86.0
252,79.69828304375,80.83752254375,57.0,77.0
253,80.45777604374999,80.87391491666665,65.0,79.0
254,80.83752254375,81.6112560375,64.0,87.0
255,81.59701554374999,81.86758492499999,61.0,85.0
256,80.83752254375,82.171382125,49.0,83.0
257,81.21726904375,82.41188824166666,57.0,68.0
258,82.35650854375,83.15081163958332,64.0,86.0
259,83.11600154374999,83.57011506666666,60.0,87.0
260,82.35650854375,83.57960872916667,48.0,85.0
261,82.73625504374999,83.64922892083332,57.0,73.0
262,83.49574804374998,83.98150710833332,64.0,86.0
263,83.87549454375,84.74100010833332,62.0,83.0
264,84.25524104374999,84.93720246666666,53.0,71.0
265,84.63498754374999,84.93720246666666,59.0,79.0
266,83.87549454375,84.93878474374999,47.0,85.0
267,85.39448054374999,85.67612586458333,58.0,75.0
268,85.39448054374999,85.85334089791665,62.0,80.0
269,85.77422704374999,86.40080876874998,58.0,85.0
270,86.15397354375,86.78213754583332,65.0,84.0
271,85.39448054374999,86.79163120833333,46.0,74.0
272,87.29321304374999,87.7441620125,53.0,74.0
273,86.91346654374999,87.96884535833333,46.0,89.0
274,87.67295954374998,88.03846554999998,58.0,81.0
275,87.67295954374998,88.0764402,61.0,83.0
276,88.05270604374999,88.1523895,53.0,80.0
277,88.43245254374999,88.86283191041666,60.0,82.0
278,88.81219904374998,89.24732524166666,55.0,80.0
279,89.19194554375,89.65397045208333,60.0,86.0
280,89.19194554375,89.67612233124999,65.0,84.0
281,88.43245254374999,89.76947667916666,48.0,86.0
282,89.57169204374999,90.01314735,55.0,87.0
283,89.95143854374999,90.39289385,64.0,87.0
284,89.95143854374999,90.39447612708332,60.0,85.0
285,90.33118504375,90.55745066666665,55.0,81.0
286,90.71075972291665,90.86069644166665,55.0,86.0
287,90.71075972291665,91.33575909791665,60.0,86.0
288,89.95143854374999,91.35154191041666,48.0,87.0
289,91.08954722291665,91.35627675416666,55.0,76.0
290,91.46833472291665,91.73348597291665,55.0,86.0
291,91.46833472291665,92.03493769166666,60.0,85.0
292,91.84712222291665,92.04598566041665,55.0,71.0
293,92.22590972291665,92.73411628541665,62.0,77.0
294,92.60469722291666,92.77830816041666,55.0,70.0
295,92.98348472291666,94.32344550416666,55.0,86.0
296,92.98348472291666,94.35501112916666,64.0,87.0
297,92.98348472291666,94.35974597291666,60.0,85.0
298,91.46833472291665,94.37395050416666,48.0,92.0
299,94.49863472291665,94.89793987916666,65.0,84.0
300,94.49863472291665,94.90425300416665,57.0,81.0
301,95.25620972291665,95.44718175416665,60.0,88.0
302,95.25620972291665,95.44718175416665,65.0,85.0
303,95.25620972291665,95.44876003541665,57.0,85.0
304,94.49863472291665,95.92066612916665,41.0,86.0
305,94.87742222291665,95.93013581666665,48.0,69.0
306,95.82439097291665,96.08480737916665,57.0,75.0
307,96.01378472291665,96.44465550416665,65.0,86.0
308,96.01378472291665,96.50147362916665,60.0,86.0
309,96.58196597291665,96.70822847291664,57.0,79.0
310,96.77135972291666,96.80134706666665,57.0,68.0
311,96.39257222291666,96.90393534791664,48.0,76.0
312,96.01378472291665,96.98758425416665,41.0,85.0
313,96.77135972291666,97.04282409791665,60.0,91.0
314,97.15014722291664,97.30324050416665,57.0,80.0
315,96.77135972291666,97.34743237916665,65.0,88.0
316,97.52893472291665,97.80513394166665,55.0,85.0
317,97.52893472291665,97.98505800416665,64.0,86.0
318,97.90772222291665,98.09553769166665,55.0,77.0
319,98.28650972291665,98.52178328541666,55.0,87.0
320,98.28650972291665,98.54074658541666,60.0,87.0
321,97.52893472291665,98.86154241041666,48.0,89.0
322,98.85522131041665,99.00692771041666,55.0,71.0
323,99.04485431041665,99.43202168541666,57.0,85.0
324,99.04485431041665,99.49523268541665,61.0,92.0
325,99.42412031041665,99.89346198541665,52.0,90.0
326,99.80338631041666,99.92980831041666,57.0,89.0
327,99.80338631041666,99.99934041041665,61.0,99.0
328,99.04485431041665,100.11153993541666,45.0,86.0
329,99.99301931041666,100.18739313541666,52.0,89.0
330,100.18265231041666,100.43391603541666,57.0,87.0
331,100.37228531041666,100.48290456041666,61.0,92.0
332,100.56191831041666,100.79737928541665,57.0,71.0
333,100.56191831041666,101.00913613541665,62.0,87.0
334,100.94118431041666,101.07550768541665,57.0,79.0
335,101.32045031041666,101.44529203541666,57.0,86.0
336,101.32045031041666,101.52430578541666,62.0,87.0
337,101.32045031041666,101.61596173541666,65.0,84.0
338,101.51008331041666,101.76766813541666,57.0,84.0
339,100.56191831041666,101.89725068541665,50.0,88.0
340,101.69971631041666,101.92253508541665,62.0,83.0
341,101.88934931041666,102.13271166041666,65.0,86.0
342,102.07898231041665,102.62891801041665,64.0,89.0
343,102.45824831041665,102.70003038541665,55.0,84.0
344,102.83751431041665,102.99712208541665,55.0,91.0
345,102.07898231041665,103.04611061041666,48.0,92.0
346,102.83751431041665,103.12196381041666,60.0,94.0
347,103.21678031041665,103.37954863541665,55.0,81.0
348,103.59604631041665,104.05906688541666,59.0,84.0
349,103.59604631041665,104.07170908541666,62.0,85.0
350,104.16494531041666,104.64850946041666,65.0,89.0
351,103.59604631041665,104.96930528541665,47.0,86.0
352,103.97531231041665,104.97562638541666,53.0,75.0
353,104.54421131041666,105.18264241041666,59.0,86.0
354,104.73384431041666,105.40862173541666,62.0,85.0
355,104.92347731041666,105.69781206041665,65.0,85.0
356,105.49237631041666,105.76260333541666,59.0,77.0
357,105.68200931041666,105.78156663541665,62.0,85.0
358,105.30274331041666,105.91272946041666,53.0,80.0
359,105.87164231041666,106.11974548541666,59.0,82.0
360,105.87164231041666,106.14502988541666,65.0,84.0
361,105.11311031041666,106.14661016041666,47.0,88.0
362,105.87164231041666,106.14819043541665,71.0,86.0
363,105.87164231041666,106.15135098541666,62.0,86.0
364,106.06127531041666,106.21930281041665,53.0,81.0
365,106.25090831041666,106.38207113541665,47.0,81.0
366,106.63017431041666,107.11057791041665,58.0,79.0
367,106.63017431041666,107.16430726041665,55.0,78.0
368,107.00944031041665,107.44401593541666,50.0,73.0
369,107.38870631041665,107.45191731041666,55.0,77.0
370,107.38870631041665,107.78061451041665,58.0,89.0
371,107.57833931041665,107.91493788541666,50.0,85.0
372,107.38870631041665,107.98288971041666,62.0,87.0
373,106.63017431041666,108.04452043541666,43.0,85.0
374,107.76797231041665,108.06980483541665,55.0,85.0
375,107.95760531041665,108.09350896041666,58.0,81.0
376,108.14723831041665,108.37163736041666,55.0,81.0
377,108.14723831041665,108.58813503541666,60.0,86.0
378,108.52650431041666,108.67346988541665,55.0,86.0
379,108.14723831041665,109.06221753541665,48.0,88.0
380,108.90577031041666,109.08750193541665,55.0,88.0
381,108.90577031041666,109.30083906041665,60.0,89.0
382,109.28503631041666,109.40197666041665,55.0,87.0
383,108.90577031041666,109.41145831041666,64.0,89.0
384,109.66430231041666,109.88079998541666,57.0,86.0
385,109.66430231041666,110.02934583541665,61.0,92.0
386,110.04356831041666,110.31379533541666,57.0,86.0
387,109.85393531041666,110.31537561041665,52.0,87.0
388,110.23320131041666,110.58244208541666,61.0,94.0
389,110.42283431041666,110.77997646041666,52.0,85.0
390,109.66430231041666,110.78155673541666,45.0,86.0
391,110.61246731041666,110.82422416041666,57.0,75.0
392,110.80210031041665,110.96012781041665,61.0,82.0
393,110.99173331041666,111.09603146041665,57.0,78.0
394,111.18136631041665,111.26196033541666,57.0,76.0
395,111.18136631041665,111.63806578541666,62.0,86.0
396,111.56063231041665,111.75342586041666,57.0,82.0
397,111.18136631041665,112.05051756041665,50.0,89.0
398,111.93989831041665,112.07264141041665,57.0,87.0
399,111.93989831041665,112.10266663541665,62.0,87.0
400,112.12953131041665,112.26701523541665,50.0,87.0
401,111.93989831041665,112.28913908541665,65.0,87.0
402,112.31916431041665,112.35235008541666,65.0,57.0
403,112.31916431041665,112.56884776041666,64.0,96.0
404,112.50879731041665,112.70001058541665,57.0,73.0
405,112.69843031041665,113.27523068541666,62.0,83.0
406,113.07769631041666,113.55968018541665,50.0,81.0
407,113.45696231041666,113.61182926041666,55.0,79.0
408,113.45696231041666,113.61498981041666,58.0,91.0
409,113.45696231041666,113.62921228541666,62.0,86.0
410,112.69843031041665,113.66713888541665,43.0,86.0
411,114.21549431041666,114.54577178541666,67.0,86.0
412,114.59476031041666,114.79071441041665,55.0,87.0
413,114.40512731041666,114.82231991041665,50.0,76.0
414,114.78439331041665,115.06568226041665,62.0,87.0
415,114.97402631041666,115.22687031041666,50.0,85.0
416,114.21549431041666,115.24425333541666,43.0,87.0
417,115.16365931041665,115.36435423541666,58.0,88.0
418,115.35329231041666,115.50657898541665,55.0,87.0
419,115.73255831041665,115.88742526041665,55.0,87.0
420,115.73255831041665,116.13868898541665,60.0,87.0
421,116.11182431041665,116.20189998541666,55.0,85.0
422,116.30145731041665,116.57642516041665,55.0,86.0
423,116.30145731041665,116.73129211041666,62.0,90.0
424,116.68072331041665,116.82294806041665,60.0,91.0
425,116.87035631041665,116.96517281041665,55.0,87.0
426,115.73255831041665,117.01732188541666,48.0,92.0
427,117.05998931041665,117.31757413541666,55.0,88.0
428,117.05998931041665,117.52142961041665,64.0,90.0
429,117.43925531041666,117.60202363541666,55.0,90.0
430,117.62888831041666,117.83274378541665,62.0,86.0
431,117.81852131041666,117.92281946041666,55.0,87.0
432,118.00815431041666,118.17882401041666,60.0,86.0
433,118.19778731041666,118.37161756041665,55.0,75.0
434,118.38742031041666,118.55967028541666,58.0,85.0
435,117.24962231041665,118.56599138541665,48.0,94.0
436,118.57705331041666,118.74614273541665,55.0,85.0
437,118.76668631041666,119.16649588541665,65.0,84.0
438,118.76668631041666,119.17281698541666,57.0,81.0
439,119.52521831041665,119.71643158541666,60.0,88.0
440,119.52521831041665,119.71643158541666,65.0,85.0
441,119.52521831041665,119.71801186041665,57.0,85.0
442,118.76668631041666,120.19051408541665,41.0,86.0
443,119.14595231041665,120.19999573541665,48.0,69.0
444,120.09411731041665,120.35486268541666,57.0,75.0
445,120.28375031041665,120.71516538541665,65.0,86.0
446,120.28375031041665,120.77205528541666,60.0,86.0
447,120.85264931041665,120.97907131041666,57.0,79.0
448,121.04228231041665,121.07230753541666,57.0,68.0
449,120.66301631041665,121.17502541041665,48.0,76.0
450,120.28375031041665,121.25877998541665,41.0,85.0
451,121.04228231041665,121.31408961041666,60.0,91.0
452,121.42154831041665,121.57483498541666,57.0,80.0
453,121.04228231041665,121.61908268541666,65.0,88.0
454,121.80081431041665,122.07736243541666,55.0,85.0
455,121.80081431041665,122.25751378541665,64.0,86.0
456,122.18008031041666,122.36813303541666,55.0,77.0
457,122.55934631041666,122.79480728541665,55.0,87.0
458,122.55934631041666,122.81377058541665,60.0,87.0
459,121.80081431041665,123.13456641041665,48.0,89.0
460,123.12824531041666,123.27995171041665,55.0,71.0
461,123.31787831041666,123.70504568541665,57.0,85.0
462,123.31787831041666,123.76825668541666,61.0,92.0
463,123.69714431041666,124.16648598541666,52.0,90.0
464,124.07641031041666,124.20283231041665,57.0,89.0
465,124.07641031041666,124.27236441041666,61.0,99.0
466,123.31787831041666,124.38456393541665,45.0,86.0
467,124.26604331041665,124.46041713541666,52.0,89.0
468,124.45567631041665,124.70694003541665,57.0,87.0
469,124.64530931041665,124.75592856041665,61.0,92.0
470,124.83494231041665,125.07040328541666,57.0,71.0
471,124.83494231041665,125.28216013541666,62.0,87.0
472,125.21420831041665,125.34853168541665,57.0,79.0
473,125.59347431041665,125.71831603541665,57.0,86.0
474,125.59347431041665,125.79732978541665,62.0,87.0
475,125.59347431041665,125.88898573541665,65.0,84.0
476,125.78310731041665,126.04069213541666,57.0,84.0
477,124.83494231041665,126.17027468541666,50.0,88.0
478,125.97274031041665,126.19555908541665,62.0,83.0
479,126.16237331041665,126.40573566041665,65.0,86.0
480,126.35200631041666,126.90194201041666,64.0,89.0
481,126.73127231041666,126.97305438541665,55.0,84.0
482,127.11053831041666,127.27014608541666,55.0,91.0
483,126.35200631041666,127.31913461041665,48.0,92.0
484,127.11053831041666,127.39498781041665,60.0,94.0
485,127.48980431041666,127.65257263541665,55.0,81.0
486,127.86907031041665,128.33209088541665,59.0,84.0
487,127.86907031041665,128.34473308541666,62.0,85.0
488,128.43796931041666,128.92153346041664,65.0,89.0
489,127.86907031041665,129.24232928541664,47.0,86.0
490,128.24833631041665,129.24865038541665,53.0,75.0
491,128.81723531041666,129.45566641041665,59.0,86.0
492,129.00686831041665,129.68164573541665,62.0,85.0
493,129.19650131041666,129.97083606041664,65.0,85.0
494,129.76540031041665,130.03562733541665,59.0,77.0
495,129.95503331041664,130.05459063541664,62.0,85.0
496,129.57576731041667,130.18575346041666,53.0,80.0
497,130.14466631041665,130.39276948541666,59.0,82.0
498,130.14466631041665,130.41805388541667,65.0,84.0
499,129.38613431041665,130.41963416041665,47.0,88.0
500,130.14466631041665,130.42121443541666,71.0,86.0
501,130.14466631041665,130.42437498541665,62.0,86.0
502,130.33429931041667,130.49232681041667,53.0,81.0
503,130.52393231041665,130.65509513541664,47.0,81.0
504,130.90319831041666,131.33461338541665,65.0,86.0
505,131.28246431041666,131.40256521041664,55.0,87.0
506,131.09283131041667,131.57481518541664,50.0,85.0
507,131.47209731041664,131.71387938541665,62.0,85.0
508,131.47209731041664,131.74706516041664,55.0,87.0
509,131.66173031041666,131.90825321041666,50.0,87.0
510,131.85136331041664,131.97620503541665,55.0,86.0
511,131.85136331041664,132.08208346041664,58.0,86.0
512,130.90319831041666,132.09156511041664,43.0,86.0
513,131.85136331041664,132.11684951041667,62.0,89.0
514,132.04099631041666,132.17848023541666,50.0,85.0
515,132.42026231041666,132.63043888541665,57.0,86.0
516,132.42026231041666,132.73473703541666,61.0,81.0
517,132.60989531041665,133.04763148541664,52.0,85.0
518,132.79952831041666,133.07923698541666,55.0,89.0
519,132.98916131041665,133.17247321041665,61.0,92.0
520,133.17879431041666,133.46324381041666,52.0,84.0
521,132.42026231041666,133.61811076041664,45.0,87.0
522,133.36842731041665,133.70976671041666,57.0,85.0
523,133.36842731041665,133.88517723541665,64.0,87.0
524,133.74769331041665,133.92626438541666,57.0,88.0
525,133.93732631041667,133.98315428541665,61.0,76.0
526,133.93732631041667,133.98315428541665,61.0,92.0
527,133.93732631041667,134.15382398541664,57.0,86.0
528,134.31659231041664,134.58681933541666,57.0,86.0
529,134.12695931041665,134.58839961041664,52.0,87.0
530,134.50622531041665,134.85546608541665,61.0,94.0
531,134.69585831041667,135.05300046041665,52.0,85.0
532,133.93732631041667,135.05458073541666,45.0,86.0
533,134.88549131041665,135.09724816041665,57.0,75.0
534,135.07512431041664,135.23315181041664,61.0,82.0
535,135.26475731041666,135.36905546041666,57.0,78.0
536,135.45439031041667,135.53498433541665,57.0,76.0
537,135.45439031041667,135.91108978541666,62.0,86.0
538,135.83365631041664,136.02644986041665,57.0,82.0
539,135.45439031041667,136.32354156041666,50.0,89.0
540,136.21292231041664,136.34566541041664,57.0,87.0
541,136.21292231041664,136.37569063541665,62.0,87.0
542,136.40255531041666,136.54003923541666,50.0,87.0
543,136.21292231041664,136.56216308541667,65.0,87.0
544,136.59218831041665,136.62537408541664,65.0,57.0
545,136.59218831041665,136.84187176041667,64.0,96.0
546,136.78182131041666,136.97303458541666,57.0,73.0
547,136.97145431041665,137.54825468541665,62.0,83.0
548,137.35072031041665,137.83270418541665,50.0,81.0
549,137.72998631041665,137.88485326041666,55.0,79.0
550,137.72998631041665,137.88801381041665,58.0,91.0
551,137.72998631041665,137.90223628541665,62.0,86.0
552,136.97145431041665,137.94016288541667,43.0,86.0
553,138.48851831041665,138.81879578541665,67.0,86.0
554,138.86778431041665,139.06373841041665,55.0,87.0
555,138.67815131041664,139.09534391041666,50.0,76.0
556,139.05741731041667,139.33870626041664,62.0,87.0
557,139.24705031041665,139.49989431041666,50.0,85.0
558,138.48851831041665,139.51727733541665,43.0,87.0
559,139.43668331041664,139.63737823541666,58.0,88.0
560,139.62631631041666,139.77960298541666,55.0,87.0
561,140.00558231041666,140.16044926041667,55.0,87.0
562,140.00558231041666,140.41171298541667,60.0,87.0
563,140.38484831041666,140.47492398541664,55.0,85.0
564,140.57448131041664,140.84944916041667,55.0,86.0
565,140.57448131041664,141.00431611041665,62.0,90.0
566,140.95374731041665,141.09597206041667,60.0,91.0
567,141.14338031041666,141.23819681041664,55.0,87.0
568,140.00558231041666,141.29034588541666,48.0,92.0
569,141.33301331041665,141.59059813541666,55.0,88.0
570,141.33301331041665,141.79445361041667,64.0,90.0
571,141.71227931041665,141.87504763541665,55.0,90.0
572,141.90191231041666,142.10576778541665,62.0,86.0
573,142.09154531041665,142.19584346041665,55.0,87.0
574,142.28117831041666,142.45184801041665,60.0,86.0
575,142.47081131041665,142.64464156041666,55.0,75.0
576,142.66044431041666,142.83269428541666,58.0,85.0
577,141.52264631041666,142.83901538541664,48.0,94.0
578,142.85007731041665,143.01916673541666,55.0,85.0
579,143.03971031041664,143.88831798541665,69.0,79.0
580,143.41897631041667,143.89779963541665,60.0,70.0
581,143.03971031041664,143.97839366041666,53.0,80.0
582,143.79824231041664,144.04476521041664,65.0,76.0
583,144.55677431041664,144.98976966041664,64.0,78.0
584,144.55677431041664,145.37219621041666,67.0,75.0
585,144.93604031041664,145.45120996041666,60.0,72.0
586,144.55677431041664,145.49861821041665,52.0,85.0
587,145.31530631041664,145.65190488541666,64.0,81.0
588,146.07406254375,146.82406188124997,65.0,79.0
589,146.45380904374997,146.9395681083333,57.0,65.0
590,146.07406254375,147.00918829999998,50.0,81.0
591,146.83355554374998,147.12152997291665,62.0,85.0
592,147.59304854374997,147.83671921458333,60.0,76.0
593,147.59304854374997,148.16108601666664,65.0,78.0
594,147.97279504374998,148.40475668749997,60.0,80.0
595,147.59304854374997,148.5250097458333,53.0,80.0
596,148.35254154375,148.71330071875,63.0,76.0
597,148.73228804374997,149.04399662916666,60.0,61.0
598,149.11203454374999,149.63576825833331,58.0,74.0
599,149.11203454374999,149.9348186270833,65.0,82.0
600,149.87152754374998,150.2528563208333,58.0,85.0
601,149.11203454374999,150.4474764020833,46.0,79.0
602,149.49178104375,150.46646372708332,53.0,64.0
603,150.25127404375,150.64526103749998,62.0,79.0
604,150.63102054374997,151.41582997708332,60.0,83.0
605,150.63102054374997,151.68323480416666,45.0,74.0
606,151.01076704374998,151.68481708124997,52.0,80.0
607,151.39051354375,151.85570300625,57.0,80.0
608,151.77026004374997,152.11044961666664,60.0,81.0
609,152.15000654374998,152.93639825416665,62.0,80.0
610,152.90949954374997,153.39684088541665,58.0,88.0
611,152.52975304375,153.8557012395833,50.0,74.0
612,153.28924604374998,153.87943539583333,62.0,85.0
613,153.66899254375,154.10728329583333,67.0,85.0
614,154.04873904374998,154.69589037083333,50.0,67.0
615,154.42848554374999,154.79715610416665,58.0,74.0
616,152.15000654374998,155.00759895624998,43.0,85.0
617,154.42848554374999,155.1753203270833,62.0,80.0
618,154.80823204374997,155.25285190416665,55.0,86.0
619,155.14209250833332,155.25285190416665,55.0,65.0
620,155.21013042291665,156.21083556249997,60.0,78.0
621,155.25285190416665,156.2140182458333,64.0,80.0
622,155.19430765208332,156.22993166249998,48.0,86.0
623,156.2665325208333,158.09657543749998,55.0,77.0
624,156.33496021249996,158.11089751249997,60.0,81.0
625,156.31904679583332,158.13158495416664,48.0,85.0
626,158.24138752916664,158.93014437916662,65.0,81.0
627,158.62318262499997,159.06305565416662,60.0,75.0
628,159.00292912499995,159.37318196249996,67.0,84.0
629,159.38267562499996,159.83678914791662,60.0,75.0
630,159.76242212499997,160.57887709999997,69.0,82.0
631,160.14216862499995,160.6089403645833,60.0,72.0
632,160.52191512499996,160.7622690833333,65.0,83.0
633,158.24138752916664,161.3090442333333,53.0,76.0
634,161.2805992833333,161.9016473583333,64.0,86.0
635,161.6598652833333,161.9743400083333,60.0,74.0
636,162.0391312833333,162.6554385333333,67.0,75.0
637,161.2805992833333,162.67282155833328,52.0,86.0
638,162.4183972833333,162.8261082333333,64.0,86.0
639,163.1769292833333,163.6257273833333,61.0,78.0
640,162.7976632833333,163.8390645083333,49.0,90.0
641,163.9354612833333,164.0887479583333,61.0,70.0
642,163.5561952833333,164.1171929083333,64.0,85.0
643,164.3147272833333,165.1254083583333,62.0,79.0
644,164.6939932833333,165.2012615583333,57.0,74.0
645,164.3147272833333,165.5663050833333,50.0,82.0
646,165.4525252833333,165.9297683333333,57.0,78.0
647,165.0732592833333,165.9503119083333,65.0,82.0
648,165.8317912833333,166.4670618333333,62.0,85.0
649,166.2110572833333,166.6566948333333,57.0,78.0
650,165.8317912833333,166.8731925083333,50.0,85.0
651,166.5903232833333,167.3962635333333,65.0,84.0
652,167.3488552833333,168.13741250833328,60.0,80.0
653,168.1073872833333,168.5467037333333,55.0,86.0
654,168.48665328333328,168.7157931583333,60.0,90.0
655,167.7281212833333,168.9686371583333,52.0,78.0
656,168.86591928333328,169.6007471583333,64.0,88.0
657,167.3488552833333,169.7745774083333,45.0,83.0
658,169.24518528333329,169.7840590583333,52.0,69.0
659,169.6244512833333,169.8030223583333,60.0,84.0
660,169.6244512833333,169.8330475833333,57.0,81.0
661,170.3829832833333,171.2157882083333,62.0,83.0
662,170.3829832833333,171.3674946083333,46.0,79.0
663,170.7622492833333,171.3927790083333,53.0,73.0
664,171.1415152833333,171.4275450583333,58.0,85.0
665,171.9000472833333,172.3836114333333,60.0,75.0
666,171.9000472833333,172.6996664333333,64.0,85.0
667,172.2793132833333,172.76445770833328,55.0,80.0
668,171.9000472833333,172.7755196333333,48.0,86.0
669,172.6585792833333,172.8561136583333,60.0,87.0
670,173.4171112833333,173.8927740583333,57.0,80.0
671,174.1756432833333,174.3731776583333,57.0,83.0
672,174.1756432833333,174.5722923083333,61.0,86.0
673,173.7963772833333,174.7714069583333,52.0,78.0
674,173.4171112833333,174.8093335583333,45.0,86.0
675,174.5549092833333,175.0226706833333,57.0,81.0
676,174.9341752833333,175.6658426083333,50.0,85.0
677,174.9341752833333,175.7416958083333,62.0,83.0
678,175.3134412833333,175.8175490083333,57.0,71.0
679,175.6927072833333,176.1825925333333,65.0,76.0
680,176.4512392833333,176.9790511333333,58.0,83.0
681,176.8305052833333,177.27930338333329,53.0,82.0
682,176.4512392833333,177.4278492333333,46.0,86.0
683,177.20977128333328,177.4357506083333,58.0,69.0
684,177.5890372833333,177.6933354333333,53.0,88.0
685,177.20977128333328,177.7691886333333,65.0,89.0
686,177.96830328333328,178.48979403333328,60.0,78.0
687,177.96830328333328,178.5751288833333,64.0,83.0
688,178.34756928333329,178.83903480833328,55.0,78.0
689,177.96830328333328,178.8753811333333,48.0,86.0
690,178.7268352833333,179.5311952583333,60.0,86.0
691,179.4853672833333,180.0842915083333,65.0,85.0
692,179.8646332833333,180.4461744833333,48.0,69.0
693,180.2438992833333,180.52834878333329,60.0,84.0
694,180.2438992833333,180.8538854333333,65.0,77.0
695,180.6231652833333,180.96134413333328,60.0,86.0
696,181.0024312833333,181.1509771333333,60.0,67.0
697,181.0024312833333,181.4749335083333,67.0,74.0
698,181.3816972833333,181.6329610083333,60.0,70.0
699,181.0024312833333,182.4657659333333,48.0,83.0
700,179.4853672833333,182.5036925333333,41.0,81.0
701,181.7609632833333,182.5084333583333,65.0,86.0
702,182.1402292833333,182.5100136333333,60.0,86.0
703,181.7609632833333,182.51159390833328,69.0,85.0
704,182.5194952833333,183.3080525083333,62.0,80.0
705,182.5194952833333,183.3617818583333,55.0,79.0
706,182.8987612833333,183.5245501833333,50.0,72.0
707,182.5194952833333,183.5830203583333,43.0,86.0
708,183.2780272833333,183.6367497083333,58.0,87.0
709,184.0365592833333,184.4253069333333,57.0,80.0
710,184.0365592833333,184.5564697583333,61.0,69.0
711,184.7950912833333,185.0463550083333,57.0,87.0
712,184.4158252833333,185.1237884833333,52.0,81.0
713,184.0365592833333,185.2107036083333,45.0,85.0
714,185.1743572833333,185.4572265083333,61.0,92.0
715,185.5536232833333,186.1730910833333,62.0,86.0
716,185.93288928333328,186.3974901333333,57.0,81.0
717,186.3121552833333,186.4085520583333,62.0,80.0
718,185.5536232833333,186.5570979083333,50.0,86.0
719,186.3121552833333,186.5729006583333,65.0,85.0
720,187.07068728333329,187.38990283333328,60.0,70.0
721,187.07068728333329,187.7802307583333,63.0,75.0
722,187.8292192833333,188.0615197083333,53.0,79.0
723,187.8292192833333,188.1642375833333,57.0,77.0
724,187.4499532833333,188.1721389583333,48.0,75.0
725,187.07068728333329,188.2353499583333,41.0,85.0
726,188.5877512833333,189.0760562583333,62.0,82.0
727,188.5877512833333,189.35892548333328,46.0,84.0
728,188.9670172833333,189.4110745583333,53.0,85.0
729,189.3462832833333,189.6244116833333,58.0,92.0
730,189.7255492833333,189.8819965083333,53.0,86.0
731,190.1048152833333,190.2976088333333,55.0,71.0
732,190.1048152833333,190.5836386083333,60.0,78.0
733,190.4840812833333,190.9154963583333,55.0,80.0
734,190.8633472833333,190.9629046083333,60.0,86.0
735,190.1048152833333,191.0213747833333,48.0,85.0
736,190.8633472833333,191.0324367083333,64.0,90.0
737,191.6218792833333,192.3709296333333,57.0,76.0
738,191.6218792833333,192.4483631083333,60.0,81.0
739,192.3804112833333,192.97301440833328,65.0,86.0
740,192.7596772833333,193.0062001833333,57.0,77.0
741,192.0011452833333,193.28274830833328,48.0,71.0
742,191.6218792833333,193.2953905083333,41.0,83.0
743,193.1389432833333,193.2953905083333,60.0,79.0
744,193.1389432833333,193.3032918833333,57.0,81.0
745,193.89747528333328,194.3099270583333,57.0,81.0
746,193.89747528333328,194.3620761333333,61.0,82.0
747,193.89747528333328,194.56277105833328,45.0,86.0
748,194.2767412833333,194.5801540833333,52.0,83.0
749,194.65600728333328,195.3829337833333,65.0,87.0
750,194.65600728333328,195.7037296083333,50.0,89.0
751,195.41453928333328,195.8823006833333,62.0,86.0
752,195.0352732833333,196.1730712833333,57.0,77.0
753,195.79380528333328,196.2094176083333,65.0,79.0
754,196.1730712833333,196.94582575833329,64.0,87.0
755,196.9316032833333,197.20183030833329,61.0,85.0
756,196.1730712833333,197.5052431083333,49.0,83.0
757,196.5523372833333,197.7454449083333,57.0,68.0
758,197.6901352833333,198.4834333333333,64.0,86.0
759,198.4486672833333,198.9022062083333,60.0,87.0
760,197.6901352833333,198.9116878583333,48.0,85.0
761,198.0694012833333,198.9812199583333,57.0,73.0
762,198.8279332833333,199.3130777083333,64.0,86.0
763,199.2071992833333,200.07160970833328,62.0,83.0
764,199.5864652833333,200.2675638083333,53.0,71.0
765,199.9657312833333,200.2675638083333,59.0,79.0
766,199.2071992833333,200.2691440833333,47.0,85.0
767,200.7242632833333,201.0055522333333,58.0,75.0
768,200.7242632833333,201.1825430333333,62.0,80.0
769,201.1035292833333,201.7293181833333,58.0,85.0
770,201.4827952833333,202.1101644583333,65.0,84.0
771,200.7242632833333,202.11964610833328,46.0,74.0
772,202.62059328333328,203.0709716583333,53.0,74.0
773,202.2413272833333,203.29537070833328,46.0,89.0
774,202.9998592833333,203.36490280833328,58.0,81.0
775,202.9998592833333,203.4028294083333,61.0,83.0
776,203.37912528333328,203.4786826083333,53.0,80.0
777,203.7583912833333,204.1882260833333,60.0,82.0
778,204.13765728333328,204.5722329083333,55.0,80.0
779,204.51692328333328,204.9783635833333,60.0,86.0
780,204.51692328333328,205.0004874333333,65.0,84.0
781,203.7583912833333,205.0937236583333,48.0,86.0
782,204.89618928333329,205.3370860083333,55.0,87.0
783,205.2754552833333,205.7163520083333,64.0,87.0
784,205.2754552833333,205.7179322833333,60.0,85.0
785,205.6547212833333,205.88070060833329,55.0,81.0
786,206.0339872833333,206.1841134083333,55.0,86.0
787,206.0339872833333,206.6597761833333,60.0,86.0
788,205.2754552833333,206.6755789333333,48.0,87.0
789,206.4132532833333,206.6803197583333,55.0,76.0
790,206.7925192833333,207.0580054833333,55.0,86.0
791,206.7925192833333,207.3598380083333,60.0,85.0
792,207.1717852833333,207.3708999333333,55.0,71.0
793,207.5510512833333,208.0598998333333,62.0,77.0
794,207.9303172833333,208.1041475333333,55.0,70.0
795,208.3095832833333,209.6512367583333,55.0,86.0
796,208.3095832833333,209.6828422583333,64.0,87.0
797,208.3095832833333,209.6875830833333,60.0,85.0
798,206.7925192833333,209.7018055583333,48.0,92.0
799,209.8266472833333,210.22645685833328,65.0,84.0
800,209.8266472833333,210.2327779583333,57.0,81.0
801,210.5851792833333,210.7763925583333,60.0,88.0
802,210.5851792833333,210.7763925583333,65.0,85.0
803,210.5851792833333,210.7779728333333,57.0,85.0
804,209.8266472833333,211.25047505833328,41.0,86.0
805,210.2059132833333,211.25995670833328,48.0,69.0
806,211.1540782833333,211.4148236583333,57.0,75.0
807,211.34371128333328,211.7751263583333,65.0,86.0
808,211.34371128333328,211.83201625833328,60.0,86.0
809,211.9126102833333,212.03903228333328,57.0,79.0
810,212.10224328333328,212.1322685083333,57.0,68.0
811,211.7229772833333,212.2349863833333,48.0,76.0
812,211.34371128333328,212.3187409583333,41.0,85.0
813,212.10224328333328,212.3740505833333,60.0,91.0
814,212.4815092833333,212.63479595833329,57.0,80.0
815,212.10224328333328,212.67904365833328,65.0,88.0
816,212.86077528333328,213.1373234083333,55.0,85.0
817,212.86077528333328,213.3174747583333,64.0,86.0
818,213.24004128333328,213.4280940083333,55.0,77.0
819,213.61930728333328,213.8547682583333,55.0,87.0
820,213.61930728333328,213.8737315583333,60.0,87.0
821,212.86077528333328,214.1945273833333,48.0,89.0
822,214.1882062833333,214.3399126833333,55.0,71.0
823,214.3778392833333,214.76500665833328,57.0,85.0
824,214.3778392833333,214.8282176583333,61.0,92.0
825,214.7571052833333,215.2264469583333,52.0,90.0
826,215.1363712833333,215.26279328333328,57.0,89.0
827,215.1363712833333,215.33232538333328,61.0,99.0
828,214.3778392833333,215.44452490833328,45.0,86.0
829,215.3260042833333,215.5203781083333,52.0,89.0
830,215.5156372833333,215.7669010083333,57.0,87.0
831,215.70527028333328,215.8158895333333,61.0,92.0
832,215.8949032833333,216.1303642583333,57.0,71.0
833,215.8949032833333,216.3421211083333,62.0,87.0
834,216.2741692833333,216.4084926583333,57.0,79.0
835,216.6534352833333,216.7782770083333,57.0,86.0
836,216.6534352833333,216.8572907583333,62.0,87.0
837,216.6534352833333,216.9489467083333,65.0,84.0
838,216.8430682833333,217.1006531083333,57.0,84.0
839,215.8949032833333,217.2302356583333,50.0,88.0
840,217.0327012833333,217.2555200583333,62.0,83.0
841,217.22233428333328,217.4656966333333,65.0,86.0
842,217.4119672833333,217.9619029833333,64.0,89.0
843,217.7912332833333,218.0330153583333,55.0,84.0
844,218.1704992833333,218.33010705833328,55.0,91.0
845,217.4119672833333,218.3790955833333,48.0,92.0
846,218.1704992833333,218.4549487833333,60.0,94.0
847,218.5497652833333,218.7125336083333,55.0,81.0
848,218.9290312833333,219.3920518583333,59.0,84.0
849,218.9290312833333,219.4046940583333,62.0,85.0
850,219.4979302833333,219.9814944333333,65.0,89.0
851,218.9290312833333,220.3022902583333,47.0,86.0
852,219.3082972833333,220.30861135833328,53.0,75.0
853,219.8771962833333,220.5156273833333,59.0,86.0
854,220.06682928333328,220.74160670833328,62.0,85.0
855,220.2564622833333,221.0307970333333,65.0,85.0
856,220.82536128333328,221.09558830833328,59.0,77.0
857,221.0149942833333,221.1145516083333,62.0,85.0
858,220.6357282833333,221.2457144333333,53.0,80.0
859,221.2046272833333,221.4527304583333,59.0,82.0
860,221.2046272833333,221.4780148583333,65.0,84.0
861,220.4460952833333,221.4795951333333,47.0,88.0
862,221.2046272833333,221.48117540833329,71.0,86.0
863,221.2046272833333,221.4843359583333,62.0,86.0
864,221.3942602833333,221.5522877833333,53.0,81.0
865,221.58389328333328,221.7150561083333,47.0,81.0
866,221.96315928333328,222.4435628833333,58.0,79.0
867,221.96315928333328,222.4972922333333,55.0,78.0
868,222.34242528333328,222.7770009083333,50.0,73.0
869,222.72169128333329,222.78490228333328,55.0,77.0
870,222.72169128333329,223.1135994833333,58.0,89.0
871,222.9113242833333,223.24792285833328,50.0,85.0
872,222.72169128333329,223.31587468333328,62.0,87.0
873,221.96315928333328,223.3775054083333,43.0,85.0
874,223.1009572833333,223.4027898083333,55.0,85.0
875,223.2905902833333,223.4264939333333,58.0,81.0
876,223.4802232833333,223.7046223333333,55.0,81.0
877,223.4802232833333,223.92112000833328,60.0,86.0
878,223.8594892833333,224.00645485833329,55.0,86.0
879,223.4802232833333,224.39520250833328,48.0,88.0
880,224.2387552833333,224.4204869083333,55.0,88.0
881,224.2387552833333,224.6338240333333,60.0,89.0
882,224.6180212833333,224.73496163333328,55.0,87.0
883,224.2387552833333,224.74444328333328,64.0,89.0
884,224.9972872833333,225.2137849583333,57.0,86.0
885,224.9972872833333,225.3623308083333,61.0,92.0
886,225.3765532833333,225.6467803083333,57.0,86.0
887,225.18692028333328,225.6483605833333,52.0,87.0
888,225.5661862833333,225.9154270583333,61.0,94.0
889,225.7558192833333,226.11296143333328,52.0,85.0
890,224.9972872833333,226.1145417083333,45.0,86.0
891,225.94545228333328,226.1572091333333,57.0,75.0
892,226.1350852833333,226.2931127833333,61.0,82.0
893,226.3247182833333,226.4290164333333,57.0,78.0
894,226.5143512833333,226.5949453083333,57.0,76.0
895,226.5143512833333,226.9710507583333,62.0,86.0
896,226.8936172833333,227.08641083333328,57.0,82.0
897,226.5143512833333,227.38350253333329,50.0,89.0
898,227.27288328333327,227.4056263833333,57.0,87.0
899,227.27288328333327,227.43565160833327,62.0,87.0
900,227.4625162833333,227.6000002083333,50.0,87.0
901,227.27288328333327,227.6221240583333,65.0,87.0
902,227.6521492833333,227.6853350583333,65.0,57.0
903,227.6521492833333,227.9018327333333,64.0,96.0
904,227.8417822833333,228.0329955583333,57.0,73.0
905,228.03141528333327,228.60821565833328,62.0,83.0
906,228.4106812833333,228.89266515833327,50.0,81.0
907,228.78994728333328,228.9448142333333,55.0,79.0
908,228.78994728333328,228.94797478333328,58.0,91.0
909,228.78994728333328,228.96219725833328,62.0,86.0
910,228.03141528333327,229.0001238583333,43.0,86.0
911,229.54847928333328,229.87875675833328,67.0,86.0
912,229.9277452833333,230.1236993833333,55.0,87.0
913,229.7381122833333,230.1553048833333,50.0,76.0
914,230.1173782833333,230.3986672333333,62.0,87.0
915,230.30701128333328,230.5598552833333,50.0,85.0
916,229.54847928333328,230.57723830833328,43.0,87.0
917,230.4966442833333,230.6973392083333,58.0,88.0
918,230.6862772833333,230.8395639583333,55.0,87.0
919,231.06554328333328,231.2204102333333,55.0,87.0
920,231.06554328333328,231.4716739583333,60.0,87.0
921,231.4448092833333,231.5348849583333,55.0,85.0
922,231.63444228333327,231.9094101333333,55.0,86.0
923,231.63444228333327,232.0642770833333,62.0,90.0
924,232.0137082833333,232.1559330333333,60.0,91.0
925,232.2033412833333,232.2981577833333,55.0,87.0
926,231.06554328333328,232.35030685833328,48.0,92.0
927,232.39297428333327,232.6505591083333,55.0,88.0
928,232.39297428333327,232.8544145833333,64.0,90.0
929,232.7722402833333,232.9350086083333,55.0,90.0
930,232.9618732833333,233.16572875833327,62.0,86.0
931,233.15150628333328,233.2558044333333,55.0,87.0
932,233.3411392833333,233.5118089833333,60.0,86.0
933,233.5307722833333,233.7046025333333,55.0,75.0
934,233.7204052833333,233.8926552583333,58.0,85.0
935,232.5826072833333,233.8989763583333,48.0,94.0
936,233.91003828333328,234.0791277083333,55.0,85.0
937,234.0996712833333,234.4994808583333,65.0,84.0
938,234.0996712833333,234.50580195833328,57.0,81.0
939,234.8582032833333,235.0494165583333,60.0,88.0
940,234.8582032833333,235.0494165583333,65.0,85.0
941,234.8582032833333,235.05099683333327,57.0,85.0
942,234.0996712833333,235.5234990583333,41.0,86.0
943,234.4789372833333,235.5329807083333,48.0,69.0
944,235.42710228333328,235.68784765833328,57.0,75.0
945,235.6167352833333,236.0481503583333,65.0,86.0
946,235.6167352833333,236.1050402583333,60.0,86.0
947,236.1856342833333,236.31205628333328,57.0,79.0
948,236.3752672833333,236.40529250833328,57.0,68.0
949,235.99600128333327,236.50801038333327,48.0,76.0
950,235.6167352833333,236.59176495833327,41.0,85.0
951,236.3752672833333,236.64707458333328,60.0,91.0
952,236.75453328333327,236.90781995833328,57.0,80.0
953,236.3752672833333,236.9520676583333,65.0,88.0
954,237.1337992833333,237.41034740833328,55.0,85.0
955,237.1337992833333,237.5904987583333,64.0,86.0
956,237.51306528333328,237.7011180083333,55.0,77.0
957,237.8923312833333,238.12779225833327,55.0,87.0
958,237.8923312833333,238.1467555583333,60.0,87.0
959,237.1337992833333,238.46755138333327,48.0,89.0
960,238.4612302833333,238.6129366833333,55.0,71.0
961,238.6508632833333,239.0380306583333,57.0,85.0
962,238.6508632833333,239.1012416583333,61.0,92.0
963,239.03012928333328,239.4994709583333,52.0,90.0
964,239.4093952833333,239.5358172833333,57.0,89.0
965,239.4093952833333,239.6053493833333,61.0,99.0
966,238.6508632833333,239.7175489083333,45.0,86.0
967,239.5990282833333,239.79340210833328,52.0,89.0
968,239.78866128333328,240.03992500833328,57.0,87.0
969,239.9782942833333,240.0889135333333,61.0,92.0
970,240.1679272833333,240.40338825833328,57.0,71.0
971,240.1679272833333,240.6151451083333,62.0,87.0
972,240.54719328333329,240.6815166583333,57.0,79.0
973,240.9264592833333,241.0513010083333,57.0,86.0
974,240.9264592833333,241.1303147583333,62.0,87.0
975,240.9264592833333,241.2219707083333,65.0,84.0
976,241.11609228333327,241.3736771083333,57.0,84.0
977,240.1679272833333,241.5032596583333,50.0,88.0
978,241.3057252833333,241.5285440583333,62.0,83.0
979,241.4953582833333,241.7387206333333,65.0,86.0
980,241.6849912833333,242.2349269833333,64.0,89.0
981,242.0642572833333,242.3060393583333,55.0,84.0
982,242.4435232833333,242.6031310583333,55.0,91.0
983,241.6849912833333,242.65211958333327,48.0,92.0
984,242.4435232833333,242.72797278333329,60.0,94.0
985,242.8227892833333,242.9855576083333,55.0,81.0
986,243.2020552833333,243.6650758583333,59.0,84.0
987,243.2020552833333,243.6777180583333,62.0,85.0
988,243.7709542833333,244.2545184333333,65.0,89.0
989,243.2020552833333,244.5753142583333,47.0,86.0
990,243.5813212833333,244.5816353583333,53.0,75.0
991,244.15022028333328,244.78865138333327,59.0,86.0
992,244.3398532833333,245.01469679999997,62.0,85.0
993,244.5294862833333,245.30443688749997,65.0,85.0
994,245.0986105958333,245.3693513333333,59.0,77.0
995,245.2886040958333,245.3883506833333,62.0,85.0
996,244.90875228333329,245.51976285416663,53.0,80.0
997,245.4785975958333,245.72717242499996,59.0,82.0
998,245.4785975958333,245.75250489166663,65.0,84.0
999,244.71911928333327,245.75408817083328,47.0,88.0
1000,245.4785975958333,245.75567144999997,71.0,86.0
1001,245.4785975958333,245.7588380083333,62.0,86.0
1002,245.6685910958333,245.82691901249996,53.0,81.0
1003,245.8585845958333,245.98999676666662,47.0,81.0
1004,246.2385715958333,246.6708068083333,65.0,86.0
1005,246.6185585958333,246.73888781249997,55.0,87.0
1006,246.4285650958333,246.91146524166663,50.0,85.0
1007,246.8085520958333,247.0507938083333,62.0,85.0
1008,246.8085520958333,247.0840426708333,55.0,87.0
1009,246.9985455958333,247.2455371458333,50.0,87.0
1010,247.1885390958333,247.31361814999997,55.0,86.0
1011,247.1885390958333,247.41969785416663,58.0,86.0
1012,246.2385715958333,247.42919752916663,43.0,86.0
1013,247.1885390958333,247.4545299958333,62.0,89.0
1014,247.3785325958333,247.5162778833333,50.0,85.0
1015,247.7585195958333,247.96909572499996,57.0,86.0
1016,247.7585195958333,248.07359214999997,61.0,81.0
1017,247.9485130958333,248.38708142499996,52.0,85.0
1018,248.1385065958333,248.4187470083333,55.0,89.0
1019,248.3285000958333,248.51216047916662,61.0,92.0
1020,248.5184935958333,248.80348384583328,52.0,84.0
1021,247.7585195958333,248.95864520416663,45.0,87.0
1022,248.7084870958333,249.0504753958333,57.0,85.0
1023,248.7084870958333,249.2262193833333,64.0,87.0
1024,249.0884740958333,249.26738464166664,57.0,88.0
1025,249.2784675958333,249.32438269166664,61.0,76.0
1026,249.2784675958333,249.32438269166664,61.0,92.0
1027,249.2784675958333,249.49537684166663,57.0,86.0
1028,249.6584545958333,249.9291953333333,57.0,86.0
1029,249.4684610958333,249.93077861249998,52.0,87.0
1030,249.8484480958333,250.19835279166662,61.0,94.0
1031,250.0384415958333,250.39626268749996,52.0,85.0
1032,249.2784675958333,250.39784596666664,45.0,86.0
1033,250.2284350958333,250.44059450416663,57.0,75.0
1034,250.4184285958333,250.57675651249997,61.0,82.0
1035,250.6084220958333,250.71291852083328,57.0,78.0
1036,250.7984155958333,250.8791628333333,57.0,76.0
1037,250.7984155958333,251.25598327499998,62.0,86.0
1038,251.1784025958333,251.37156265416664,57.0,82.0
1039,250.7984155958333,251.66921913749997,50.0,89.0
1040,251.5583895958333,251.6913850458333,57.0,87.0
1041,251.5583895958333,251.72146734999995,62.0,87.0
1042,251.7483830958333,251.8861283833333,50.0,87.0
1043,251.5583895958333,251.90829429166664,65.0,87.0
1044,251.9383765958333,251.9716254583333,65.0,57.0
1045,251.9383765958333,252.18853470416664,64.0,96.0
1046,252.1283700958333,252.31994687499997,57.0,73.0
1047,252.3183635958333,252.89626049166662,62.0,83.0
1048,252.6983505958333,253.18125074166664,50.0,81.0
1049,253.0783375958333,253.23349895416663,55.0,79.0
1050,253.0783375958333,253.23666551249997,58.0,91.0
1051,253.0783375958333,253.25091502499995,62.0,86.0
1052,252.3183635958333,253.28891372499996,43.0,86.0
1053,253.8383115958333,254.16921694166663,67.0,86.0
1054,254.2182985958333,254.41462521249997,55.0,87.0
1055,254.0283050958333,254.4462907958333,50.0,76.0
1056,254.4082920958333,254.69011578749996,62.0,87.0
1057,254.5982855958333,254.85161026249997,50.0,85.0
1058,253.8383115958333,254.8690263333333,43.0,87.0
1059,254.7882790958333,254.98935554999997,58.0,88.0
1060,254.9782725958333,255.13185067499995,55.0,87.0
1061,255.3582595958333,255.51342095416663,55.0,87.0
1062,255.3582595958333,255.76516234166664,60.0,87.0
1063,255.7382465958333,255.8284935083333,55.0,85.0
1064,255.9282400958333,256.2037306708333,55.0,86.0
1065,255.9282400958333,256.3588920291666,62.0,90.0
1066,256.3082270958333,256.4507222208333,60.0,91.0
1067,256.4982205958333,256.5932173458333,55.0,87.0
1068,255.3582595958333,256.6454655583333,48.0,92.0
1069,256.6882140958333,256.94628859999995,55.0,88.0
1070,256.6882140958333,257.15053161249995,64.0,90.0
1071,257.0682010958333,257.23127884999997,55.0,90.0
1072,257.2581945958333,257.4624376083333,62.0,86.0
1073,257.4481880958333,257.5526845208333,55.0,87.0
1074,257.6381815958333,257.8091757458333,60.0,86.0
1075,257.8281750958333,258.00233580416665,55.0,75.0
1076,258.0181685958333,258.19074602499995,58.0,85.0
1077,256.8782075958333,258.1970791416666,48.0,94.0
1078,258.2081620958333,258.3775729666666,55.0,85.0
1079,258.3981555958333,258.7717844270833,57.0,83.0
1080,258.3981555958333,258.8097590770833,53.0,85.0
1081,258.77811353541665,259.25912576875,48.0,74.0
1082,259.1578600354166,259.2796953708333,53.0,90.0
1083,259.1578600354166,259.36197377916665,57.0,99.0
1084,259.1578600354166,259.4221003083333,65.0,87.0
1085,259.3477332854166,259.472733175,48.0,84.0
1086,258.3981555958333,259.5834925708333,41.0,88.0
1087,259.5376065354166,259.73855572499997,53.0,94.0
1088,259.9173530354166,260.0961503458333,53.0,85.0
1089,259.9173530354166,260.1626059833333,63.0,86.0
1090,259.9173530354166,260.16577053749995,57.0,81.0
1091,260.29709953541663,260.4126057625,53.0,85.0
1092,260.10722628541663,260.5043778333333,48.0,85.0
1093,260.48697278541664,260.53127654375,57.0,86.0
1094,259.9173530354166,260.6230486145833,41.0,89.0
1095,260.48697278541664,260.73064345625,60.0,92.0
1096,260.48697278541664,260.73539028749997,53.0,94.0
1097,260.67684603541665,260.8983648270833,48.0,89.0
1098,260.67684603541665,260.9347572,41.0,57.0
1099,260.86671928541665,261.0075419458333,53.0,91.0
1100,260.86671928541665,261.0755798604166,57.0,91.0
1101,261.05659253541666,261.1705164854166,41.0,72.0
1102,261.05659253541666,261.2116556895833,48.0,86.0
1103,261.4363390354166,261.80974044375,55.0,85.0
1104,261.4363390354166,261.8460409125,58.0,85.0
1105,261.81605356874996,262.24376778749996,50.0,86.0
1106,261.4363390354166,262.28322481875,43.0,88.0
1107,262.19484106875,262.341621225,55.0,87.0
1108,262.19484106875,262.36529544375,58.0,99.0
1109,262.19484106875,262.3858131,62.0,88.0
1110,262.38423481875,262.4962927875,50.0,87.0
1111,262.57362856875,262.87823685,55.0,84.0
1112,262.76302231874996,262.88454997499997,58.0,96.0
1113,262.95241606875,263.17968856875,55.0,85.0
1114,262.95241606875,263.2980596625,60.0,89.0
1115,263.33120356874997,263.41958731874996,55.0,86.0
1116,262.95241606875,263.578993725,48.0,92.0
1117,263.52059731875,263.74155669375,64.0,87.0
1118,263.52059731875,263.75102638124997,60.0,90.0
1119,263.52059731875,263.75418294375,55.0,92.0
1120,263.70999106874996,264.0051296625,48.0,87.0
1121,263.89938481875,264.00670794375,55.0,87.0
1122,263.89938481875,264.11087450624996,60.0,90.0
1123,264.46756606875,264.80531825624996,57.0,86.0
1124,264.84635356875,265.14149216249996,52.0,78.0
1125,265.03574731875,265.2614415375,55.0,92.0
1126,265.03574731875,265.28827231875,60.0,91.0
1127,265.22514106874996,265.43663075625,52.0,85.0
1128,264.46756606875,265.50923169375,45.0,87.0
1129,265.41453481875,265.62602450624996,55.0,87.0
1130,265.60392856875,265.66390325624997,45.0,48.0
1131,265.41453481875,265.70493856875,64.0,86.0
1132,265.60392856875,265.7664915375,52.0,86.0
1133,265.79332231875,265.977981225,55.0,79.0
1134,265.98271606875,266.32835966249996,62.0,78.0
1135,266.55089731875,266.735556225,57.0,86.0
1136,266.36150356875,266.8334096625,53.0,82.0
1137,265.98271606875,266.9154802875,50.0,101.0
1138,266.92968481875,267.06226044375,57.0,88.0
1139,266.92968481875,267.20272747499996,65.0,88.0
1140,267.49786606875,267.76301731875,61.0,87.0
1141,267.49786606875,267.9114416645833,64.0,89.0
1142,267.87665356875,268.13123917916664,55.0,78.0
1143,267.49786606875,268.25616006875,49.0,87.0
1144,268.06640681875,268.317829875,61.0,101.0
1145,268.06640681875,268.3779184041667,64.0,91.0
1146,268.06640681875,268.4395882104167,67.0,86.0
1147,268.25616006875,268.47753886041664,55.0,81.0
1148,268.44591331875,268.47753886041664,64.0,73.0
1149,268.44591331875,268.6704546645833,61.0,101.0
1150,268.63566656874997,268.8791832395833,64.0,85.0
1151,268.82541981875,268.8902521791667,61.0,83.0
1152,268.9914539125,269.15116289791666,61.0,78.0
1153,268.9882913583333,269.1622318375,57.0,76.0
1154,268.9946164666666,269.18120716249996,69.0,77.0
1155,268.9914539125,269.1922761020833,45.0,86.0
1156,269.26185229375,269.36621658125,61.0,73.0
1157,269.2760837875,269.37570424374996,45.0,79.0
1158,269.266596125,269.37570424374996,52.0,83.0
1159,269.26975867916667,269.380448075,57.0,73.0
1160,269.2681774020833,269.3915170145833,69.0,79.0
1161,269.49904385625,269.62554602291664,61.0,76.0
1162,269.50220641041665,269.63503368541666,52.0,86.0
1163,269.50536896458334,269.63503368541666,57.0,81.0
1164,269.49746257916667,269.64610262499997,45.0,82.0
1165,269.5006251333333,269.64610262499997,69.0,82.0
1166,269.72674775625,269.8453435375,61.0,92.0
1167,269.7235852020833,269.91017589791664,69.0,86.0
1168,269.7283290333333,269.9149197291666,45.0,86.0
1169,269.7346541416667,269.92756994583334,52.0,94.0
1170,269.73307286458333,270.0129589083333,57.0,91.0
1171,269.96710187291666,270.22959386875,47.0,85.0
1172,269.97342698125,270.2833572895833,59.0,85.0
1173,270.21378109791664,270.42250967291665,49.0,89.0
1174,270.2248500375,270.443066275,61.0,89.0
1175,270.48417947916664,270.8352229916666,57.0,87.0
1176,270.47943564791666,270.9111242916667,65.0,86.0
1177,270.84471065416665,271.09613371041667,45.0,75.0
1178,271.0486953979167,271.277980575,57.0,90.0
1179,271.04395156666664,271.33490654999997,62.0,91.0
1180,270.48734203333333,271.34597548958334,38.0,91.0
1181,271.21631076874996,271.35230059791667,45.0,84.0
1182,271.42503934375,271.55470406458335,57.0,96.0
1183,272.03541229791665,272.2093527770833,60.0,87.0
1184,272.03066846666667,272.3611553770833,63.0,96.0
1185,272.2140966083333,272.50030776041666,55.0,90.0
1186,272.03541229791665,272.64262269791664,48.0,90.0
1187,272.3911996416667,272.64894780624996,60.0,86.0
1188,272.5603962895833,272.6789920708333,63.0,92.0
1189,272.76279975625,272.8924644770833,60.0,90.0
1190,272.76438103333334,273.03161686041665,65.0,92.0
1191,272.9794347166667,273.19923223125,60.0,91.0
1192,272.7691248645833,273.30834035,53.0,87.0
1193,273.1533751958333,273.33838461458333,63.0,89.0
1194,273.3399658916667,273.54711318958334,60.0,79.0
1195,273.56925106874996,273.76849198125,53.0,82.0
1196,273.56925106874996,273.96140778541667,58.0,81.0
1197,273.94875756875,274.03730908541667,53.0,74.0
1198,274.13851081875,274.2745006479166,53.0,92.0
1199,274.13851081875,274.3061261895833,62.0,90.0
1200,273.56925106874996,274.38835259791665,46.0,96.0
1201,274.51801731874997,274.6097313895833,53.0,85.0
1202,274.51801731874997,274.693539075,58.0,91.0
1203,274.70777056875,274.91808042083335,53.0,81.0
1204,274.89752381874996,275.02718853958334,58.0,88.0
1205,275.08727706875,275.21377923541667,55.0,86.0
1206,275.08727706875,275.32604990833335,60.0,87.0
1207,275.27703031875,275.51738443541666,55.0,85.0
1208,275.46678356875,275.58379807291664,60.0,85.0
1209,275.08727706875,275.7292755645833,48.0,86.0
1210,275.65653681875,275.8810781645833,55.0,91.0
1211,275.65653681875,275.88582199583334,60.0,88.0
1212,275.65653681875,275.89689093541665,64.0,89.0
1213,275.84629006874997,276.1451514375,48.0,87.0
1214,276.03604331875,276.1467327145833,55.0,85.0
1215,276.03604331875,276.2558408333333,60.0,92.0
1216,276.60530306875,276.89942060625,57.0,87.0
1217,276.60530306875,277.01169127916666,60.0,78.0
1218,277.17456281874996,277.25520795,65.0,82.0
1219,276.98480956875,277.2631143354167,52.0,81.0
1220,277.17456281874996,277.4038479958333,55.0,94.0
1221,277.36431606875,277.62206423333333,52.0,85.0
1222,277.55406931875,277.7580540625,57.0,89.0
1223,276.60530306875,277.86083707291664,45.0,87.0
1224,277.74382256875,277.95413242083333,52.0,85.0
1225,277.93357581875,278.05059032291666,57.0,85.0
1226,278.12332906874997,278.37000829375,57.0,85.0
1227,278.12332906874997,278.4617223645833,62.0,86.0
1228,278.50283556875,278.5550177125,57.0,72.0
1229,278.12332906874997,278.7748152270833,50.0,90.0
1230,278.69258881875,278.92345527291667,57.0,87.0
1231,278.69258881875,278.98670635625,65.0,87.0
1232,278.88234206875,279.12744001666664,50.0,85.0
1233,279.07209531875,279.23496685833334,57.0,87.0
1234,279.07209531875,279.2982179416667,64.0,91.0
1235,279.26184856875,279.48955246875,62.0,80.0
1236,279.45160181874996,279.59549803333334,57.0,72.0
1237,279.64135506875,280.04932455625,58.0,75.0
1238,279.64135506875,280.10783180833334,51.0,80.0
1239,280.21061481875,280.3197229375,58.0,71.0
1240,280.02086156875,280.38139274375,46.0,72.0
1241,280.21061481875,280.4161808395833,51.0,75.0
1242,280.21061481875,280.46678170625,55.0,82.0
1243,280.40036806874997,280.64546601666666,46.0,66.0
1244,280.59012131875,280.68816049791667,58.0,72.0
1245,280.59012131875,280.74983030416666,55.0,86.0
1246,280.59012131875,280.77354946041663,51.0,87.0
1247,279.64135506875,280.83047543541664,39.0,86.0
1248,280.59012131875,280.83047543541664,63.0,81.0
1249,280.96962781875,281.10561764791663,51.0,85.0
1250,281.15938106875,281.4993556416666,51.0,85.0
1251,281.15938106875,281.51833096666667,55.0,85.0
1252,281.15938106875,281.5436314,58.0,84.0
1253,281.72864081874997,281.83300510624997,51.0,85.0
1254,281.53888756875,281.95634471874996,46.0,78.0
1255,281.15938106875,282.03224601875,39.0,90.0
1256,281.91839406875,282.11289115,51.0,85.0
1257,281.91839406875,282.1192162583333,55.0,88.0
1258,281.91839406875,282.1492605229167,58.0,90.0
1259,281.91839406875,282.22358054583333,63.0,86.0
1260,282.10814731875,282.22990565416666,46.0,86.0
1261,282.29790056875,282.38170825416665,39.0,84.0
1262,282.67740706875,282.76279603125,36.0,86.0
1263,282.67740706875,282.84027860833334,48.0,85.0
1264,282.67740706875,282.8782292583333,52.0,86.0
1265,283.43642006875,283.5992916083333,60.0,88.0
1266,283.62617331875,283.7542567625,62.0,88.0
1267,283.81592656875,283.92977851874997,64.0,87.0
1268,283.24666681875,284.05944323958335,55.0,85.0
1269,284.00567981874997,284.09106878125,60.0,85.0
1270,283.05691356874996,284.1084628291667,48.0,87.0
1271,284.19543306875,284.446856125,61.0,82.0
1272,284.19543306875,284.52591997916664,65.0,82.0
1273,284.19543306875,284.55912679791663,68.0,76.0
1274,284.19543306875,284.598658725,37.0,92.0
1275,284.38518631875,284.712510675,44.0,85.0
1276,284.57493956875,284.8089685770833,61.0,89.0
1277,284.76469281875,284.8706383833333,65.0,85.0
1278,284.95444606875,285.4145977,63.0,86.0
1279,284.95444606875,285.5822130708333,67.0,89.0
1280,284.95444606875,285.6960650208333,39.0,102.0
1281,285.33395256874996,285.71345906875,46.0,85.0
1282,285.71345906875,286.11352217083333,65.0,84.0
1283,285.71345906875,286.11984727916666,57.0,81.0
1284,286.47247206875,286.6638065958333,60.0,88.0
1285,286.47247206875,286.6638065958333,65.0,85.0
1286,286.47247206875,286.66538787291665,57.0,85.0
1287,285.71345906875,287.13818972083334,41.0,86.0
1288,286.09296556875,287.1476773833333,48.0,69.0
1289,287.04173181875,287.3026425375,57.0,75.0
1290,287.23148506875,287.6631737125,65.0,86.0
1291,287.23148506875,287.7200996875,60.0,86.0
1292,287.80074481875,287.9272469854167,57.0,79.0
1293,287.99049806874996,288.0205423333333,57.0,68.0
1294,287.61099156874997,288.12332534374997,48.0,76.0
1295,287.23148506875,288.20713302916664,41.0,85.0
1296,287.99049806874996,288.2624777270833,60.0,91.0
1297,288.37000456875,288.52338844583335,57.0,80.0
1298,287.99049806874996,288.56766420416665,65.0,88.0
1299,288.74951106875,289.02623455833333,55.0,85.0
1300,288.74951106875,289.20650014583333,64.0,86.0
1301,289.12901756875,289.31718954166666,55.0,77.0
1302,289.50852406875,289.74413435416665,55.0,87.0
1303,289.50852406875,289.76310967916663,60.0,87.0
1304,288.74951106875,290.0841089270833,48.0,89.0
1305,290.07778381875,290.22958641875,55.0,71.0
1306,290.26753706875,290.6549499541667,57.0,85.0
1307,290.26753706875,290.71820103749997,61.0,92.0
1308,290.64704356875,291.1166828625,52.0,90.0
1309,291.02655006875,291.1530522354167,57.0,89.0
1310,291.02655006875,291.22262842708335,61.0,99.0
1311,290.26753706875,291.3348991,45.0,86.0
1312,291.21630331874997,291.41080039999997,52.0,89.0
1313,291.40605656875,291.657479625,57.0,87.0
1314,291.59580981875,291.70649921458335,61.0,92.0
1315,291.78556306875,292.02117335416665,57.0,71.0
1316,291.78556306875,292.2330644833333,62.0,87.0
1317,292.16506956874997,292.2994781208333,57.0,79.0
1318,292.54457606874996,292.6694969583333,57.0,86.0
1319,292.54457606874996,292.7485608125,62.0,87.0
1320,292.54457606874996,292.84027488333334,65.0,84.0
1321,292.73432931875,292.99207748333333,57.0,84.0
1322,291.78556306875,293.12174220416665,50.0,88.0
1323,292.92408256875,293.14704263749996,62.0,83.0
1324,293.11383581875,293.3573524895833,65.0,86.0
1325,293.30358906875,293.85387349375,64.0,89.0
1326,293.68309556875,293.9250309625,55.0,84.0
1327,294.06260206875,294.22231105416665,55.0,91.0
1328,293.30358906875,294.27133064375,48.0,92.0
1329,294.06260206875,294.34723194375,60.0,94.0
1330,294.44210856875,294.60498010833334,55.0,81.0
1331,294.82161506874996,295.2849292541666,59.0,84.0
1332,294.82161506874996,295.29757947083334,62.0,85.0
1333,295.39087481875,295.87474560625,65.0,89.0
1334,294.82161506874996,296.19574485416666,47.0,86.0
1335,295.20112156875,296.2020699625,53.0,75.0
1336,295.77038131874997,296.40921726041665,59.0,86.0
1337,295.96013456875,296.6353398833333,62.0,85.0
1338,296.14988781875,296.92471358958335,65.0,85.0
1339,296.71914756875,296.98954595,59.0,77.0
1340,296.90890081875,297.00852127499996,62.0,85.0
1341,296.52939431875,297.13976727291663,53.0,80.0
1342,297.09865406874997,297.3469145708333,59.0,82.0
1343,297.09865406874997,297.37221500416666,65.0,84.0
1344,296.33964106875,297.37379628125,47.0,88.0
1345,297.09865406874997,297.3753775583333,71.0,86.0
1346,297.09865406874997,297.3785401125,62.0,86.0
1347,297.28840731875,297.4465350270833,53.0,81.0
1348,297.47816056875,297.6094065666667,47.0,81.0
1349,297.85766706875,298.3383753020833,58.0,79.0
1350,297.85766706875,298.3921387229167,55.0,78.0
1351,298.23717356875,298.67202476666665,50.0,73.0
1352,298.61668006875,298.6799311520833,55.0,77.0
1353,298.61668006875,299.00883678541663,58.0,89.0
1354,298.80643331875,299.1432453375,50.0,85.0
1355,298.61668006875,299.2112402520833,62.0,87.0
1356,297.85766706875,299.2729100583333,43.0,85.0
1357,298.99618656875,299.2982104916667,55.0,85.0
1358,299.18593981875,299.32192964791665,58.0,81.0
1359,299.37569306874997,299.6002344145833,55.0,81.0
1360,299.37569306874997,299.816869375,60.0,86.0
1361,299.75519956874996,299.9022583375,55.0,86.0
1362,299.37569306874997,300.2912525,48.0,88.0
1363,300.13470606875,300.3165529333333,55.0,88.0
1364,300.13470606875,300.5300253395833,60.0,89.0
1365,300.51421256875,300.63122707291666,55.0,87.0
1366,300.13470606875,300.6407147354166,64.0,89.0
1367,300.89371906875,301.1103540291667,57.0,86.0
1368,300.89371906875,301.258994075,61.0,92.0
1369,301.27322556875,301.54362395,57.0,86.0
1370,301.08347231875,301.54520522708333,52.0,87.0
1371,301.46297881875,301.81244105416664,61.0,94.0
1372,301.65273206874997,302.01010068958334,52.0,85.0
1373,300.89371906875,302.01168196666663,45.0,86.0
1374,301.84248531875,302.05437644791664,57.0,75.0
1375,302.03223856875,302.19036627708334,61.0,82.0
1376,302.22199181875,302.32635610625,57.0,78.0
1377,302.41174506875,302.4923902,57.0,76.0
1378,302.41174506875,302.86873414583334,62.0,86.0
1379,302.79125156875,302.98416737291666,57.0,82.0
1380,302.41174506875,303.2814474645833,50.0,89.0
1381,303.17075806875,303.30358534375,57.0,87.0
1382,303.17075806875,303.3336296083333,62.0,87.0
1383,303.36051131875,303.498082425,50.0,87.0
1384,303.17075806875,303.5202203041666,65.0,87.0
1385,303.55026456875,303.58347138749997,65.0,57.0
1386,303.55026456875,303.80010634791665,64.0,96.0
1387,303.74001781875,303.9313523458333,57.0,73.0
1388,303.92977106875,304.50693720416666,62.0,83.0
1389,304.30927756874996,304.79156707916667,50.0,81.0
1390,304.68878406875,304.84374922291664,55.0,79.0
1391,304.68878406875,304.84691177708333,58.0,91.0
1392,304.68878406875,304.86114327083334,62.0,86.0
1393,303.92977106875,304.8990939208333,43.0,86.0
1394,305.44779706875,305.77828397916664,67.0,86.0
1395,305.82730356875,306.02338192708334,55.0,87.0
1396,305.63755031874996,306.05500746875,50.0,76.0
1397,306.01705681875,306.2985241395833,62.0,87.0
1398,306.20681006875,306.45981440208334,50.0,85.0
1399,305.44779706875,306.47720845,43.0,87.0
1400,306.39656331875,306.59738550833333,58.0,88.0
1401,306.58631656874996,306.7397004458333,55.0,87.0
1402,306.96582306875,307.12078822291664,55.0,87.0
1403,306.96582306875,307.37221127916666,60.0,87.0
1404,307.34532956875,307.4354623625,55.0,85.0
1405,307.53508281874997,307.81022503124996,55.0,86.0
1406,307.53508281874997,307.96519018541665,62.0,90.0
1407,307.91458931875,308.05690425625,60.0,91.0
1408,308.10434256875,308.19921919374997,55.0,87.0
1409,306.96582306875,308.2514013375,48.0,92.0
1410,308.29409581875,308.5518439833333,55.0,88.0
1411,308.29409581875,308.7558287270833,64.0,90.0
1412,308.67360231875,308.8364738583333,55.0,90.0
1413,308.86335556874997,309.0673403125,62.0,86.0
1414,309.05310881875,309.15747310625,55.0,87.0
1415,309.24286206875,309.41363999375,60.0,86.0
1416,309.43261531875,309.60655579791666,55.0,75.0
1417,309.62236856875,309.79472777083333,58.0,85.0
1418,308.48384906875,309.80105287916666,48.0,94.0
1419,309.81212181875,309.98131846666666,55.0,85.0
1420,310.00187506875,310.4019381708333,65.0,84.0
1421,310.00187506875,310.40826327916665,57.0,81.0
1422,310.76088806875,310.9522225958333,60.0,88.0
1423,310.76088806875,310.9522225958333,65.0,85.0
1424,310.76088806875,310.95380387291664,57.0,85.0
1425,310.00187506875,311.4266057208333,41.0,86.0
1426,310.38138156875,311.43609338333334,48.0,69.0
1427,311.33014781875,311.5910585375,57.0,75.0
1428,311.51990106874996,311.9515897125,65.0,86.0
1429,311.51990106874996,312.0085156875,60.0,86.0
1430,312.08916081875,312.21566298541666,57.0,79.0
1431,312.27891406875,312.3089583333333,57.0,68.0
1432,311.89940756875,312.41174134375,48.0,76.0
1433,311.51990106874996,312.4955490291667,41.0,85.0
1434,312.27891406875,312.55089372708335,60.0,91.0
1435,312.65842056875,312.81180444583333,57.0,80.0
1436,312.27891406875,312.85608020416663,65.0,88.0
1437,313.03792706875,313.3146505583333,55.0,85.0
1438,313.03792706875,313.4949161458333,64.0,86.0
1439,313.41743356874997,313.60560554166665,55.0,77.0
1440,313.79694006875,314.03255035416663,55.0,87.0
1441,313.79694006875,314.0515256791667,60.0,87.0
1442,313.03792706875,314.3725249270833,48.0,89.0
1443,314.36619981875,314.51800241875,55.0,71.0
1444,314.55595306875,314.94336595416667,57.0,85.0
1445,314.55595306875,315.0066170375,61.0,92.0
1446,314.93545956875,315.4050988625,52.0,90.0
1447,315.31496606875,315.44146823541666,57.0,89.0
1448,315.31496606875,315.51104442708333,61.0,99.0
1449,314.55595306875,315.6233151,45.0,86.0
1450,315.50471931875,315.6992164,52.0,89.0
1451,315.69447256875,315.945895625,57.0,87.0
1452,315.88422581875,315.99491521458333,61.0,92.0
1453,316.07397906874996,316.30958935416663,57.0,71.0
1454,316.07397906874996,316.52148048333333,62.0,87.0
1455,316.45348556875,316.5878941208333,57.0,79.0
1456,316.83299206875,316.95791295833334,57.0,86.0
1457,316.83299206875,317.0369768125,62.0,87.0
1458,316.83299206875,317.1286908833333,65.0,84.0
1459,317.02274531874997,317.2804934833333,57.0,84.0
1460,316.07397906874996,317.41015820416663,50.0,88.0
1461,317.21249856875,317.4354586375,62.0,83.0
1462,317.40225181874996,317.6457684895833,65.0,86.0
1463,317.59200506875,318.14228949375,64.0,89.0
1464,317.97151156875,318.2134469625,55.0,84.0
1465,318.35101806874997,318.51072705416664,55.0,91.0
1466,317.59200506875,318.55974664375,48.0,92.0
1467,318.35101806874997,318.63564794375,60.0,94.0
1468,318.73052456874996,318.8933961083333,55.0,81.0
1469,319.11003106875,319.57334525416667,59.0,84.0
1470,319.11003106875,319.5859954708333,62.0,85.0
1471,319.67929081875,320.16316160625,65.0,89.0
1472,319.11003106875,320.48416085416665,47.0,86.0
1473,319.48953756875,320.4904859625,53.0,75.0
1474,320.05879731875,320.69763326041664,59.0,86.0
1475,320.24855056875,320.92375588333334,62.0,85.0
1476,320.43830381875,321.21312958958333,65.0,85.0
1477,321.00756356875,321.27796194999996,59.0,77.0
1478,321.19731681875,321.296937275,62.0,85.0
1479,320.81781031875,321.42818327291667,53.0,80.0
1480,321.38707006875,321.63533057083333,59.0,82.0
1481,321.38707006875,321.66063100416665,65.0,84.0
1482,320.62805706874997,321.66221228125,47.0,88.0
1483,321.38707006875,321.66379355833334,71.0,86.0
1484,321.38707006875,321.6669561125,62.0,86.0
1485,321.57682331875,321.7349510270833,53.0,81.0
1486,321.76657656875,321.89782256666666,47.0,81.0
1487,322.14608306875,322.5777717125,65.0,86.0
1488,322.52558956875,322.64576662708333,55.0,87.0
1489,322.33583631875,322.81812582916666,50.0,85.0
1490,322.71534281875,322.9572782125,62.0,85.0
1491,322.71534281875,322.99048503125,55.0,87.0
1492,322.90509606874997,323.15177529375,50.0,87.0
1493,323.09484931875,323.21977020833333,55.0,86.0
1494,323.09484931875,323.3257157729166,58.0,86.0
1495,322.14608306875,323.33520343541664,43.0,86.0
1496,323.09484931875,323.36050386875,62.0,89.0
1497,323.28460256874996,323.422173675,50.0,85.0
1498,323.66410906875,323.8744189208333,57.0,86.0
1499,323.66410906875,323.9787832083333,61.0,81.0
1500,323.85386231875,324.2918760708333,52.0,85.0
1501,324.04361556875,324.32350161249997,55.0,89.0
1502,324.23336881874997,324.41679696041666,61.0,92.0
1503,324.42312206875,324.70775194375,52.0,84.0
1504,323.66410906875,324.86271709791663,45.0,87.0
1505,324.61287531874996,324.95443116875,57.0,85.0
1506,324.61287531874996,325.129952925,64.0,87.0
1507,324.99238181875,325.17106612916666,57.0,88.0
1508,325.18213506875,325.2279921041667,61.0,76.0
1509,325.18213506875,325.2279921041667,61.0,92.0
1510,325.18213506875,325.39877002916666,57.0,86.0
1511,325.56164156875,325.83203994999997,57.0,86.0
1512,325.37188831875,325.8336212270833,52.0,87.0
1513,325.75139481875,326.1008570541667,61.0,94.0
1514,325.94114806875,326.2985166895833,52.0,85.0
1515,325.18213506875,326.30009796666667,45.0,86.0
1516,326.13090131875,326.3427924479167,57.0,75.0
1517,326.32065456875,326.4787822770833,61.0,82.0
1518,326.51040781874997,326.61477210625,57.0,78.0
1519,326.70016106875,326.7808062,57.0,76.0
1520,326.70016106875,327.1571501458333,62.0,86.0
1521,327.07966756875,327.27250545416666,57.0,82.0
1522,326.70016106875,327.5694099375,50.0,89.0
1523,327.4588603958333,327.5915198458333,57.0,87.0
1524,327.4588603958333,327.62152614999997,62.0,87.0
1525,327.6483738958333,327.78577118333334,50.0,87.0
1526,327.4588603958333,327.8078810916667,65.0,87.0
1527,327.8378873958333,327.8710522583333,65.0,57.0
1528,327.8378873958333,328.08741350416665,64.0,96.0
1529,328.0274008958333,328.218493675,57.0,73.0
1530,328.2169143958333,328.79308412916663,62.0,83.0
1531,328.5959234520833,329.07699550416663,50.0,81.0
1532,328.9744719520833,329.12904592291665,55.0,79.0
1533,328.9744719520833,329.13220049374996,58.0,91.0
1534,328.9744719520833,329.1463960625,62.0,86.0
1535,328.2169143958333,329.1842509125,43.0,86.0
1536,329.7315689520833,330.06122160416663,67.0,86.0
1537,330.11011745208333,330.30570084375,55.0,87.0
1538,329.9208432020833,330.33724655208334,50.0,76.0
1539,330.2993917020833,330.58014850625,62.0,87.0
1540,330.4886659520833,330.74103161874996,50.0,85.0
1541,329.7315689520833,330.7583817583333,43.0,87.0
1542,330.67794020208333,330.87825545,58.0,88.0
1543,330.8672144520833,331.0202111375,55.0,87.0
1544,331.24576295208334,331.40033692291667,55.0,87.0
1545,331.24576295208334,331.65112530416667,60.0,87.0
1546,331.6243114520833,331.7142167208333,55.0,85.0
1547,331.8135857020833,332.08803336458334,55.0,86.0
1548,331.8135857020833,332.24260733541666,62.0,90.0
1549,332.1921342020833,332.3340898895833,60.0,91.0
1550,332.3814084520833,332.4760455770833,55.0,87.0
1551,331.24576295208334,332.5280959958333,48.0,92.0
1552,332.57068270208333,332.82778022499997,55.0,88.0
1553,332.57068270208333,333.03125004375,64.0,90.0
1554,332.9492312020833,333.1116916,55.0,90.0
1555,333.13850545208334,333.3419752708333,62.0,86.0
1556,333.3277797020833,333.4318805395833,55.0,87.0
1557,333.5170539520833,333.6874007770833,60.0,86.0
1558,333.70632820208334,333.8798295979166,55.0,75.0
1559,333.8956024520833,334.0675265625,58.0,85.0
1560,332.7599569520833,334.07383570416664,48.0,94.0
1561,334.0848767020833,334.2536462416667,55.0,85.0
1562,334.2741509520833,335.1211532208333,69.0,79.0
1563,334.6526994520833,335.13061693333333,60.0,70.0
1564,334.2741509520833,335.2110584895833,53.0,80.0
1565,335.03124795208333,335.2773044770833,65.0,76.0
1566,335.7883449520833,336.22052115624996,64.0,78.0
1567,335.7883449520833,336.6022242270833,67.0,75.0
1568,336.1668934520833,336.6810884979167,60.0,72.0
1569,335.7883449520833,336.72840706041666,52.0,85.0
1570,336.5454419520833,336.8814037458333,64.0,81.0
1571,337.3025389520833,338.05017223958333,65.0,79.0
1572,337.6810874520833,338.16531407499997,57.0,65.0
1573,337.3025389520833,338.23471463333334,50.0,81.0
1574,338.05963595208334,338.34670189791666,62.0,85.0
1575,338.8167329520833,339.05963490625,60.0,76.0
1576,338.8167329520833,339.3829784166667,65.0,78.0
1577,339.1952814520833,339.62588037083333,60.0,80.0
1578,338.8167329520833,339.7457540625,53.0,80.0
1579,339.5738299520833,339.9334510270833,63.0,76.0
1580,339.95237845208334,340.26310367916665,60.0,61.0
1581,340.3309269520833,340.853008425,58.0,74.0
1582,340.3309269520833,341.15111536874997,65.0,82.0
1583,341.0880239520833,341.46814973749997,58.0,85.0
1584,340.3309269520833,341.66215584375,46.0,79.0
1585,340.7094754520833,341.68108326875,53.0,64.0
1586,341.4665724520833,341.8593165208333,62.0,79.0
1587,341.84512095208333,342.62745451874997,60.0,83.0
1588,341.84512095208333,342.8940157541667,45.0,74.0
1589,342.2236694520833,342.89559303958333,52.0,80.0
1590,342.6022179520833,343.0659398645833,57.0,80.0
1591,342.9807664520833,343.3198828166666,60.0,81.0
1592,344.1164119520833,344.4886513104166,58.0,79.0
1593,343.73786345208333,344.63376156875,50.0,80.0
1594,344.1164119520833,344.6873892729167,62.0,84.0
1595,343.3593149520833,344.81830396249995,43.0,86.0
1596,344.4949604520833,344.96183693541667,55.0,83.0
1597,344.8735089520833,345.32618986666665,60.0,87.0
1598,345.2520574520833,345.70316108124996,55.0,85.0
1599,346.0091544520833,346.38454838125,55.0,80.0
1600,345.63060595208333,346.39558937916667,60.0,81.0
1601,344.8735089520833,346.40032123541664,48.0,85.0
1602,345.63060595208333,346.4050530916667,64.0,87.0
1603,346.3877029520833,347.2347052208333,69.0,79.0
1604,346.76625145208334,347.2441689333333,60.0,70.0
1605,346.3877029520833,347.32461048958334,53.0,80.0
1606,347.1447999520833,347.39085647708333,65.0,76.0
1607,347.9018969520833,348.33407315625,64.0,78.0
1608,347.9018969520833,348.7157762270833,67.0,75.0
1609,348.2804454520833,348.79464049791665,60.0,72.0
1610,347.9018969520833,348.8419590604166,52.0,85.0
1611,348.65899395208334,348.9949557458333,64.0,81.0
1612,349.4160909520833,350.1637242395833,65.0,79.0
1613,349.7946394520833,350.278866075,57.0,65.0
1614,349.4160909520833,350.3482666333333,50.0,81.0
1615,350.1731879520833,350.46025389791663,62.0,85.0
1616,350.9302849520833,351.17318690624995,60.0,76.0
1617,350.9302849520833,351.49653041666664,65.0,78.0
1618,351.3088334520833,351.7394323708333,60.0,80.0
1619,350.9302849520833,351.85930606249997,53.0,80.0
1620,351.68738195208334,352.0470030270833,63.0,76.0
1621,352.0659304520833,352.3766556791667,60.0,61.0
1622,352.44447895208333,352.96674012499994,58.0,74.0
1623,352.44447895208333,353.26579049375,65.0,82.0
1624,353.20249941041664,353.58417928125,58.0,85.0
1625,352.44447895208333,353.77904613124997,46.0,79.0
1626,352.8230274520833,353.79805753125,53.0,64.0
1627,353.58259499791666,353.9772542104166,62.0,79.0
1628,353.9629138729166,354.75436099999996,60.0,83.0
1629,353.9629138729166,355.0248472604166,45.0,74.0
1630,354.34532287291665,355.0264477708333,52.0,80.0
1631,354.7287528333333,355.1993028958333,57.0,80.0
1632,355.1128753333333,355.45718037708326,60.0,81.0
1633,356.27285057708326,356.7802359770833,58.0,87.0
1634,355.8553815770833,357.1752258770833,50.0,70.0
1635,355.44433517708325,357.20733887708326,43.0,86.0
1636,356.6758687270833,357.22981797708326,62.0,85.0
1637,357.4995671770833,357.91864182708326,55.0,75.0
1638,357.09654902708326,357.92827572708325,67.0,85.0
1639,358.6267334770833,358.8932713770833,36.0,83.0
1640,358.4725910770833,359.06186462708325,55.0,68.0
1641,358.5753526770833,359.2593595770833,60.0,78.0
1642,358.67490297708326,359.39423417708326,64.0,85.0
1643,360.3110603270833,361.12994182708326,60.0,55.0
1644,360.42666712708325,361.16526612708327,64.0,78.0
1645,359.5676443770833,361.7930752770833,55.0,84.0
1646,359.1228793270833,361.8540899770833,48.0,79.0
1647,362.23462902708326,362.64246412708326,60.0,60.0
1648,362.34702452708325,362.69384492708326,41.0,85.0
1649,362.3422075770833,363.0631444270833,65.0,71.0
1650,362.44818047708327,363.2991749770833,69.0,78.0
1651,363.4838247270833,363.66526317708326,67.0,69.0
1652,363.6604462270833,363.8996880770833,69.0,74.0
1653,364.1437468770833,365.2917866270833,69.0,75.0
1654,363.8467016270833,365.3014205270833,65.0,73.0
1655,363.02139752708325,365.34959002708325,53.0,73.0
1656,363.2895410770833,365.34959002708325,60.0,69.0
