,start,end,pitch,velocity
0,10.982304741666667,11.368173175,64.0,127.0
1,11.634476741666667,12.058388541666668,59.0,127.0
2,12.286648741666667,12.626321658333334,62.0,127.0
3,12.938820741666667,13.188820008333334,59.0,127.0
4,13.264906741666668,13.706481533333333,57.0,127.0
5,13.917078741666668,14.040719683333334,55.0,112.0
6,14.243164741666668,14.498598775000001,57.0,127.0
7,14.569250741666668,14.823326083333335,55.0,102.0
8,14.895336741666668,15.190172833333333,57.0,127.0
9,15.221422741666668,15.354574525,57.0,127.0
10,15.384465741666668,15.516258833333334,55.0,100.0
11,15.547508741666668,15.745877725000001,57.0,122.0
12,15.873594741666667,16.046148583333334,59.0,112.0
13,15.873594741666667,16.046148583333334,59.0,127.0
14,16.19968074166667,16.629027308333335,64.0,122.0
15,16.85185274166667,17.1847322,59.0,117.0
16,17.50402474166667,17.865436725000002,62.0,127.0
17,18.15619674166667,18.44559806666667,59.0,127.0
18,18.48228274166667,18.760814533333335,57.0,102.0
19,19.13445474166667,19.3205955,55.0,112.0
20,19.460540741666666,19.667061875,57.0,117.0
21,19.786626741666666,19.970050116666666,55.0,96.0
22,20.112712741666666,20.340972941666667,58.0,127.0
23,20.438798741666666,20.590972208333334,57.0,122.0
24,20.601841741666668,20.76352605,55.0,99.0
25,20.764884741666666,21.04205784166667,57.0,127.0
26,21.090970741666666,21.324665708333335,59.0,127.0
27,21.417056741666666,21.728197133333335,52.0,117.0
28,21.743142741666666,22.048848366666668,54.0,122.0
29,22.069228741666667,22.36134745,55.0,99.0
30,22.395314741666667,22.73770504166667,52.0,112.0
31,22.721400741666667,23.03118244166667,58.0,127.0
32,23.047486741666667,23.383083583333335,57.0,122.0
33,23.373572741666667,23.707810891666668,55.0,112.0
34,23.699658741666667,24.025744741666667,57.0,122.0
35,24.025744741666667,24.311069991666667,57.0,112.0
36,24.351830741666667,24.711884033333334,52.0,102.0
37,31.85180874166667,32.237677175,64.0,127.0
38,32.503980741666666,32.927892541666665,59.0,127.0
39,33.156152741666666,33.49582565833334,62.0,127.0
40,33.80832474166667,34.05832400833334,59.0,127.0
41,34.13441074166667,34.57598553333334,57.0,127.0
42,34.78658274166667,34.910223683333335,55.0,112.0
43,35.11266874166667,35.368102775000004,57.0,127.0
44,35.43875474166667,35.692830083333334,55.0,102.0
45,35.76484074166667,36.059676833333334,57.0,127.0
46,36.09092674166667,36.224078525,57.0,127.0
47,36.253969741666666,36.38576283333334,55.0,100.0
48,36.41701274166667,36.615381725,57.0,122.0
49,36.74309874166667,36.91565258333333,59.0,112.0
50,36.74309874166667,36.91565258333333,59.0,127.0
51,37.06918474166667,37.498531308333334,64.0,122.0
52,37.72135674166667,38.0542362,59.0,117.0
53,38.37352874166667,38.734940725,62.0,127.0
54,39.02570074166667,39.31510206666667,59.0,127.0
55,39.35178674166667,39.63031853333334,57.0,102.0
56,40.00395874166667,40.1900995,55.0,112.0
57,40.33004474166667,40.536565875,57.0,117.0
58,40.656130741666665,40.83955411666667,55.0,96.0
59,40.98221674166667,41.21047694166667,58.0,127.0
60,41.308302741666665,41.46047620833333,57.0,122.0
61,41.47134574166667,41.63303005,55.0,99.0
62,41.63438874166667,41.91156184166667,57.0,127.0
63,41.960474741666665,42.194169708333334,59.0,127.0
64,42.28656074166667,42.59770113333334,52.0,117.0
65,42.612646741666666,42.91835236666667,54.0,122.0
66,42.93873274166667,43.23085145,55.0,99.0
67,43.264818741666666,43.60720904166667,52.0,112.0
68,43.59090474166667,43.90068644166667,58.0,127.0
69,43.916990741666666,44.25258758333334,57.0,122.0
70,44.24307674166667,44.57731489166667,55.0,112.0
71,44.569162741666666,44.89524874166667,57.0,122.0
72,44.89524874166667,45.18057399166667,57.0,112.0
73,45.221334741666666,45.58138803333333,52.0,102.0
74,53.37348474166667,53.539245125,64.0,127.0
75,53.69957074166667,53.869407200000005,64.0,112.0
76,53.86261374166667,53.869407200000005,64.0,127.0
77,54.35174274166667,54.55554649166667,62.0,112.0
78,54.677828741666666,54.8965781,62.0,127.0
79,55.00391474166667,55.53108710833334,60.0,127.0
80,55.982172741666666,56.198204716666666,64.0,117.0
81,56.30825874166667,56.3802694,64.0,112.0
82,56.47130174166667,56.73624661666667,64.0,117.0
83,56.96043074166667,57.17782140833334,62.0,122.0
84,57.28651674166667,57.446842358333335,62.0,122.0
85,57.61260274166667,57.85309116666667,64.0,127.0
86,57.93868874166667,59.310967325,59.0,117.0
87,59.56911874166667,59.877541750000006,60.0,127.0
88,59.89520474166667,60.21721466666667,59.0,96.0
89,60.22129074166667,61.707699425,57.0,102.0
90,63.80823674166667,63.91421469166667,64.0,127.0
91,63.97127974166667,64.14247489166667,64.0,127.0
92,64.29736574166667,64.50796295,64.0,127.0
93,64.78649474166667,64.97127680833334,62.0,122.0
94,65.11258074166668,65.351710475,62.0,127.0
95,65.54736207500001,66.22127314166667,60.0,112.0
96,66.41692474166668,66.533772225,64.0,127.0
97,66.57996774166666,66.73214120833333,64.0,102.0
98,66.90605374166667,67.13974870833334,64.0,127.0
99,67.39518274166667,67.55822574166667,62.0,117.0
100,67.72126874166668,67.903333425,62.0,127.0
101,68.04735474166667,68.12751755000001,64.0,122.0
102,68.37344074166667,69.34354659166667,59.0,127.0
103,70.00387074166667,70.267456925,60.0,127.0
104,70.32995674166666,70.650607975,59.0,127.0
105,70.65604274166667,72.02832132500001,57.0,97.0
106,74.56907474166667,74.69950914166667,55.0,97.0
107,74.89516074166667,75.07314935000001,58.0,96.0
108,75.22124674166668,75.34760506666667,57.0,95.0
109,75.38428974166666,75.50385460833334,55.0,76.0
110,75.54733274166666,75.79869070000001,57.0,127.0
111,75.87341874166667,76.18863520833334,59.0,127.0
112,79.78645074166667,79.92911336666667,55.0,107.0
113,80.11253674166667,80.28237320000001,58.0,127.0
114,80.43862274166668,80.58264405833334,57.0,112.0
115,80.60166574166666,80.69677415833334,55.0,96.0
116,80.76470874166667,81.01063193333334,57.0,127.0
117,81.09079474166667,81.35981569166667,59.0,127.0
118,85.00382674166667,85.13018506666667,55.0,117.0
119,85.32991274166667,85.520129575,58.0,127.0
120,85.65599874166666,85.79186790833333,57.0,99.0
121,85.81904174166667,85.96985651666667,55.0,102.0
122,85.98208474166667,86.25925784166667,57.0,127.0
123,86.30817074166667,86.62066982500001,59.0,102.0
124,90.22120274166667,90.37881097500001,55.0,102.0
125,90.54728874166668,90.74022295833333,58.0,127.0
126,90.87337474166667,91.01875475,57.0,127.0
127,91.03641774166667,91.1573413,55.0,95.0
128,91.19946074166667,91.43723178333333,57.0,127.0
129,91.52554674166667,91.74293740833333,59.0,127.0
130,94.78640674166667,96.79183564166667,71.0,127.0
131,97.06900874166666,97.27417118333334,71.0,127.0
132,97.72118074166667,97.93177795000001,64.0,127.0
133,98.37335274166666,98.56492826666667,67.0,127.0
134,98.69943874166667,98.85432959166667,69.0,127.0
135,99.02552474166667,99.21574157500001,71.0,127.0
136,99.35161074166668,99.62742515000001,69.0,127.0
137,100.00378274166667,100.14236929166667,67.0,122.0
138,100.32986874166667,100.479324825,69.0,127.0
139,100.65595474166668,100.83122596666666,67.0,117.0
140,100.98204074166667,101.17361626666667,70.0,127.0
141,101.30812674166667,101.44399590833333,69.0,127.0
142,101.47116974166667,101.58394115,67.0,102.0
143,101.63421274166667,101.88013593333334,69.0,127.0
144,101.96029874166668,102.16002641666667,71.0,127.0
145,102.28638474166667,102.50649279166667,71.0,127.0
146,102.93855674166667,103.18855600833334,64.0,122.0
147,103.59072874166667,103.79996725833334,67.0,127.0
148,103.91681474166667,104.08393381666667,69.0,127.0
149,104.24290074166667,104.465726175,71.0,127.0
150,104.56898674166668,104.8203447,69.0,127.0
151,105.22115874166667,105.40322342500001,67.0,117.0
152,105.54724474166667,105.75784195,69.0,127.0
153,105.87333074166668,106.06762365,67.0,112.0
154,106.19941674166667,106.39506834166667,70.0,127.0
155,106.52550274166667,106.66544798333334,69.0,127.0
156,106.68854574166667,106.82033883333334,67.0,100.0
157,106.85158874166667,107.08392501666667,69.0,127.0
158,107.17767474166668,107.408652325,71.0,127.0
159,107.50376074166667,107.78500991666667,71.0,122.0
160,107.82984674166667,108.256475925,76.0,127.0
161,108.48201874166668,108.80810474166667,71.0,122.0
162,108.80810474166667,109.18174495000001,74.0,127.0
163,109.46027674166668,109.74288460833334,71.0,127.0
164,109.78636274166666,110.27141566666667,69.0,117.0
165,110.43853474166667,110.63690372500001,67.0,112.0
166,110.76462074166668,110.97657664166667,69.0,127.0
167,111.09070674166666,111.26190189166667,67.0,102.0
168,111.41679274166667,111.71162883333334,71.0,127.0
169,111.74287874166667,111.89097613333334,69.0,122.0
170,111.90592174166667,112.03499745,67.0,107.0
171,112.06896474166668,112.31217055,69.0,127.0
172,112.39505074166667,112.63010440000001,71.0,127.0
173,112.72113674166667,113.03907059166667,71.0,117.0
174,113.04722274166667,113.62330800833334,76.0,127.0
175,113.69939474166667,114.0485785,71.0,122.0
176,114.02548074166667,114.42629478333333,74.0,127.0
177,114.67765274166668,114.97384752500001,71.0,127.0
178,115.00373874166667,115.34612904166667,69.0,127.0
179,115.65591074166667,115.82438850833334,67.0,112.0
180,115.98199674166668,116.17493095833333,69.0,122.0
181,116.30808274166667,116.48878873333334,67.0,112.0
182,116.63416874166667,116.90862445833334,71.0,127.0
183,116.96025474166667,117.09884129166667,69.0,117.0
184,117.12329774166668,117.25373214166667,67.0,102.0
185,117.28634074166668,117.52275309166667,69.0,127.0
186,117.61242674166667,117.90318675833333,71.0,122.0
187,117.93851274166667,118.18443593333333,71.0,127.0
188,118.59068474166668,118.89095560000001,64.0,122.0
189,119.24285674166667,119.46432348333335,67.0,127.0
190,119.56894274166667,119.76867041666667,69.0,127.0
191,119.89502874166668,120.12736501666667,71.0,127.0
192,120.22111474166667,120.51595083333333,69.0,127.0
193,120.87328674166667,121.01866675000001,67.0,127.0
194,121.19937274166668,121.38415480833334,69.0,122.0
195,121.52545874166667,121.691219125,67.0,112.0
196,121.85154474166667,122.06350064166668,71.0,127.0
197,122.17763074166668,122.30942383333334,69.0,117.0
198,122.34067374166668,122.46567337500001,67.0,99.0
199,122.50371674166668,122.72790086666667,69.0,127.0
200,122.82980274166667,123.00507396666667,71.0,127.0
201,123.15588874166667,123.41268146666667,71.0,122.0
202,123.80806074166667,124.05126655000001,64.0,122.0
203,124.46023274166667,124.67218864166668,67.0,127.0
204,124.78631874166668,124.92898136666668,69.0,127.0
205,125.11240474166667,125.30941503333334,71.0,127.0
206,125.43849074166667,125.74012029166667,69.0,127.0
207,126.09066274166668,126.27136873333333,67.0,127.0
208,126.41674874166667,126.60560688333334,69.0,127.0
209,126.74283474166667,126.92218204166667,67.0,127.0
210,127.06892074166667,127.26728972500001,70.0,127.0
211,127.39500674166668,127.53766936666668,69.0,127.0
212,127.55804974166668,127.69391890833334,67.0,112.0
213,127.72109274166667,127.92217910833334,69.0,127.0
214,128.04717874166667,128.22244996666666,71.0,127.0
215,128.37326474166667,128.71973111666668,64.0,127.0
216,128.69935074166668,128.94119785833334,66.0,127.0
217,129.02543674166668,129.30804460833335,67.0,122.0
218,129.35152274166668,129.61375023333335,64.0,107.0
219,129.67760874166666,129.94119492500002,70.0,127.0
220,130.00369474166666,130.3039656,69.0,122.0
221,130.32978074166667,130.601519075,67.0,122.0
222,130.65586674166667,130.8909204,69.0,127.0
223,131.30803874166668,132.52135040000002,64.0,112.0
224,139.46018874166668,139.56616669166667,64.0,127.0
225,139.62323174166667,139.79442689166666,64.0,127.0
226,139.94931774166668,140.15991495,64.0,127.0
227,140.43844674166667,140.62322880833335,62.0,122.0
228,140.76453274166667,141.003662475,62.0,127.0
229,141.19931407500002,141.87322514166667,60.0,112.0
230,142.06887674166668,142.185724225,64.0,127.0
231,142.23191974166667,142.38409320833333,64.0,102.0
232,142.55800574166668,142.79170070833334,64.0,127.0
233,143.04713474166667,143.21017774166668,62.0,117.0
234,143.37322074166667,143.555285425,62.0,127.0
235,143.69930674166667,143.77946955000002,64.0,122.0
236,144.02539274166668,144.99549859166666,59.0,127.0
237,145.65582274166667,145.919408925,60.0,127.0
238,145.98190874166667,146.302559975,59.0,127.0
239,146.30799474166668,147.680273325,57.0,97.0
240,149.8949407416667,150.00091869166667,64.0,127.0
241,150.05798374166667,150.22917889166666,64.0,127.0
242,150.38406974166668,150.59466695,64.0,127.0
243,150.87319874166667,151.05798080833333,62.0,122.0
244,151.19928474166667,151.438414475,62.0,127.0
245,151.634066075,152.30797714166667,60.0,112.0
246,152.50362874166666,152.620476225,64.0,127.0
247,152.66667174166668,152.81884520833333,64.0,102.0
248,152.99275774166668,153.22645270833334,64.0,127.0
249,153.48188674166667,153.6449297416667,62.0,117.0
250,153.80797274166667,153.990037425,62.0,127.0
251,154.13405874166668,154.21422155000002,64.0,122.0
252,154.46014474166668,155.43025059166666,59.0,127.0
253,156.09057474166667,156.354160925,60.0,127.0
254,156.41666074166667,156.737311975,59.0,127.0
255,156.74274674166668,158.115025325,57.0,97.0
256,160.65577874166667,160.78621314166668,55.0,97.0
257,160.98186474166667,161.15985335000002,58.0,96.0
258,161.30795074166667,161.43430906666669,57.0,95.0
259,161.47099374166666,161.59055860833334,55.0,76.0
260,161.63403674166668,161.8853947,57.0,127.0
261,161.96012274166668,162.27533920833335,55.0,127.0
262,165.87315474166667,166.01581736666668,55.0,107.0
263,166.19924074166667,166.36907720000002,58.0,127.0
264,166.52532674166667,166.66934805833333,57.0,112.0
265,166.68836974166666,166.78347815833334,55.0,96.0
266,166.85141274166668,167.09733593333334,57.0,127.0
267,167.17749874166668,167.44651969166668,59.0,127.0
268,171.09053074166667,171.21688906666668,55.0,117.0
269,171.41661674166667,171.606833575,58.0,127.0
270,171.74270274166668,171.87857190833333,57.0,99.0
271,171.90574574166666,172.05656051666668,55.0,102.0
272,172.06878874166668,172.34596184166668,57.0,127.0
273,172.39487474166668,172.70737382500002,59.0,102.0
274,176.30790674166667,176.46551497500002,55.0,102.0
275,176.63399274166667,176.82692695833333,58.0,127.0
276,176.96007874166668,177.10545875,57.0,127.0
277,177.12312174166667,177.2440453,55.0,95.0
278,177.28616474166668,177.52393578333334,57.0,127.0
279,177.61225074166668,177.82964140833334,59.0,127.0
280,183.15571274166666,183.541581175,64.0,127.0
281,183.80788474166667,184.23179654166668,59.0,127.0
282,184.46005674166668,184.79972965833335,62.0,127.0
283,185.11222874166668,185.36222800833335,59.0,127.0
284,185.4383147416667,185.87988953333334,57.0,127.0
285,186.09048674166667,186.21412768333334,55.0,112.0
286,186.41657274166667,186.672006775,57.0,127.0
287,186.74265874166667,186.99673408333334,55.0,102.0
288,187.06874474166668,187.36358083333334,57.0,127.0
289,187.39483074166668,187.527982525,57.0,127.0
290,187.55787374166667,187.68966683333335,55.0,100.0
291,187.72091674166668,187.919285725,57.0,122.0
292,188.0470027416667,188.21955658333334,59.0,112.0
293,188.0470027416667,188.21955658333334,59.0,127.0
294,188.37308874166666,188.80243530833334,64.0,122.0
295,189.02526074166667,189.3581402,59.0,117.0
296,189.67743274166668,190.03884472500002,62.0,127.0
297,190.32960474166669,190.61900606666669,59.0,127.0
298,190.6556907416667,190.93422253333335,57.0,102.0
299,191.30786274166667,191.49400350000002,55.0,112.0
300,191.63394874166667,191.840469875,57.0,117.0
301,191.96003474166668,192.14345811666666,55.0,96.0
302,192.28612074166668,192.51438094166667,58.0,127.0
303,192.61220674166668,192.76438020833334,57.0,122.0
304,192.77524974166667,192.93693405000002,55.0,99.0
305,192.9382927416667,193.21546584166668,57.0,127.0
306,193.26437874166666,193.49807370833335,59.0,127.0
307,193.59046474166666,193.90160513333333,52.0,117.0
308,193.91655074166667,194.22225636666667,54.0,122.0
309,194.24263674166667,194.53475545,55.0,99.0
310,194.56872274166668,194.91111304166668,52.0,112.0
311,194.89480874166668,195.20459044166668,58.0,127.0
312,195.22089474166668,195.55649158333335,57.0,122.0
313,195.5469807416667,195.88121889166666,55.0,112.0
314,195.87306674166666,196.19915274166667,57.0,122.0
315,196.19915274166667,196.48447799166667,57.0,112.0
316,196.52523874166667,196.88529203333334,52.0,102.0
317,214.45996874166667,214.66513118333333,71.0,127.0
318,215.11214074166668,215.32273795,64.0,127.0
319,215.76431274166669,215.95588826666668,67.0,127.0
320,216.0903987416667,216.24528959166668,69.0,127.0
321,216.41648474166666,216.60670157500002,71.0,127.0
322,216.74257074166667,217.01838515,69.0,127.0
323,217.39474274166668,217.5333292916667,67.0,122.0
324,217.72082874166668,217.870284825,69.0,127.0
325,218.04691474166668,218.22218596666667,67.0,117.0
326,218.3730007416667,218.56457626666668,70.0,127.0
327,218.6990867416667,218.83495590833334,69.0,127.0
328,218.86212974166668,218.97490115000002,67.0,102.0
329,219.02517274166667,219.27109593333336,69.0,127.0
330,219.35125874166667,219.5509864166667,71.0,127.0
331,219.67734474166667,219.89745279166667,71.0,127.0
332,220.32951674166668,220.57951600833334,64.0,122.0
333,220.9816887416667,221.19092725833335,67.0,127.0
334,221.30777474166666,221.47489381666668,69.0,127.0
335,221.63386074166667,221.85668617500002,71.0,127.0
336,221.95994674166667,222.2113047,69.0,127.0
337,222.61211874166668,222.794183425,67.0,117.0
338,222.93820474166668,223.14880195,69.0,127.0
339,223.26429074166668,223.45858365,67.0,112.0
340,223.5903767416667,223.78602834166668,70.0,127.0
341,223.91646274166666,224.05640798333334,69.0,127.0
342,224.07950574166668,224.21129883333333,67.0,100.0
343,224.24254874166667,224.4748850166667,69.0,127.0
344,224.56863474166667,224.799612325,71.0,127.0
345,224.89472074166667,225.17596991666667,71.0,122.0
346,225.22080674166668,225.647435925,76.0,127.0
347,225.87297874166669,226.1990647416667,71.0,122.0
348,226.1990647416667,226.57270495,74.0,127.0
349,226.85123674166667,227.13384460833333,71.0,127.0
350,227.17732274166667,227.6623756666667,69.0,117.0
351,227.82949474166668,228.027863725,67.0,112.0
352,228.15558074166668,228.36753664166667,69.0,127.0
353,228.4816667416667,228.65286189166667,67.0,102.0
354,228.8077527416667,229.10258883333336,71.0,127.0
355,229.13383874166666,229.28193613333335,69.0,122.0
356,229.29688174166668,229.42595745,67.0,107.0
357,229.45992474166667,229.70313055,69.0,127.0
358,229.78601074166667,230.0210644,71.0,127.0
359,230.11209674166668,230.43003059166668,71.0,117.0
360,230.43818274166668,231.01426800833335,76.0,127.0
361,231.0903547416667,231.4395385,71.0,122.0
362,231.4164407416667,231.81725478333334,74.0,127.0
363,232.06861274166667,232.364807525,71.0,127.0
364,232.39469874166667,232.73708904166668,69.0,127.0
365,233.04687074166668,233.21534850833334,67.0,112.0
366,233.37295674166668,233.56589095833334,69.0,122.0
367,233.6990427416667,233.87974873333334,67.0,112.0
368,234.0251287416667,234.29958445833336,71.0,127.0
369,234.35121474166667,234.48980129166668,69.0,117.0
370,234.51425774166668,234.64469214166667,67.0,102.0
371,234.67730074166667,234.91371309166666,69.0,127.0
372,235.00338674166667,235.29414675833334,71.0,122.0
373,235.32947274166668,235.57539593333334,71.0,127.0
374,235.98164474166668,236.28191560000002,64.0,122.0
375,236.63381674166666,236.85528348333335,67.0,127.0
376,236.95990274166667,237.1596304166667,69.0,127.0
377,237.28598874166667,237.51832501666667,71.0,127.0
378,237.61207474166667,237.90691083333334,69.0,127.0
379,238.26424674166668,238.40962675,67.0,127.0
380,238.59033274166669,238.77511480833334,69.0,122.0
381,238.9164187416667,239.082179125,67.0,112.0
382,239.24250474166666,239.45446064166669,71.0,127.0
383,239.56859074166667,239.70038383333335,69.0,117.0
384,239.73163374166668,239.856633375,67.0,99.0
385,239.89467674166667,240.11886086666667,69.0,127.0
386,240.22076274166668,240.39603396666666,71.0,127.0
387,240.54684874166668,240.80364146666668,71.0,122.0
388,241.1990207416667,241.44222655000002,64.0,122.0
389,241.85119274166667,242.0631486416667,67.0,127.0
390,242.17727874166667,242.31994136666668,69.0,127.0
391,242.50336474166667,242.70037503333336,71.0,127.0
392,242.82945074166668,243.13108029166668,69.0,127.0
393,243.48162274166668,243.66232873333334,67.0,127.0
394,243.8077087416667,243.99656688333334,69.0,127.0
395,244.1337947416667,244.31314204166668,67.0,127.0
396,244.45988074166667,244.65824972500002,70.0,127.0
397,244.78596674166667,244.92862936666668,69.0,127.0
398,244.94900974166669,245.08487890833334,67.0,112.0
399,245.11205274166667,245.31313910833333,69.0,127.0
400,245.43813874166668,245.61340996666667,71.0,127.0
401,245.76422474166668,246.1106911166667,64.0,127.0
402,246.09031074166668,246.33215785833335,66.0,127.0
403,246.4163967416667,246.69900460833335,67.0,122.0
404,246.7424827416667,247.00471023333336,64.0,107.0
405,247.06856874166667,247.332154925,70.0,127.0
406,247.39465474166667,247.6949256,69.0,122.0
407,247.72074074166667,247.992479075,67.0,122.0
408,248.04682674166668,248.2818804,69.0,127.0
409,248.69899874166668,249.91231040000002,64.0,112.0
410,253.9163747416667,254.60251403333334,69.0,122.0
411,254.56854674166667,261.77232995833333,71.0,122.0
