,start,end,pitch,velocity
0,0.5475527416666667,0.652172,38.0,99.0
1,0.5475527416666667,0.652172,50.0,99.0
2,0.7105957416666667,0.7989107000000001,40.0,82.0
3,0.7105957416666667,0.7989107000000001,52.0,82.0
4,0.8736387416666667,0.9565189333333334,40.0,69.0
5,0.8736387416666667,0.9565189333333334,52.0,69.0
6,1.0366817416666667,1.1277140833333335,40.0,73.0
7,1.0366817416666667,1.1277140833333335,52.0,73.0
8,1.1997247416666668,1.3749959666666667,40.0,83.0
9,1.1997247416666668,1.3749959666666667,52.0,79.0
10,1.1997247416666668,1.3749959666666667,52.0,83.0
11,1.5258107416666666,1.5951040166666668,40.0,93.0
12,1.5258107416666666,1.5951040166666668,52.0,93.0
13,1.6888537416666667,1.7622230916666668,40.0,92.0
14,1.6888537416666667,1.7622230916666668,52.0,92.0
15,1.8518967416666667,1.9076031,52.0,97.0
16,1.8518967416666667,1.9320595500000002,40.0,97.0
17,1.1997247416666668,1.9578746916666667,67.0,75.0
18,1.1997247416666668,1.9592333833333335,64.0,82.0
19,1.1997247416666668,1.9877659083333334,71.0,78.0
20,2.014939741666667,2.1046133916666667,43.0,88.0
21,2.014939741666667,2.1046133916666667,55.0,88.0
22,2.177982741666667,2.2717324666666667,43.0,72.0
23,2.177982741666667,2.2717324666666667,55.0,72.0
24,2.341025741666667,2.4388515416666667,43.0,75.0
25,2.341025741666667,2.4388515416666667,55.0,75.0
26,2.504068741666667,2.832872125,43.0,88.0
27,2.8301547416666666,2.832872125,43.0,92.0
28,2.504068741666667,2.832872125,55.0,74.0
29,2.504068741666667,2.832872125,55.0,88.0
30,2.8301547416666666,2.832872125,55.0,92.0
31,2.9931977416666666,3.095099616666667,43.0,82.0
32,2.9931977416666666,3.095099616666667,55.0,82.0
33,3.1562407416666667,3.258142616666667,43.0,97.0
34,3.1562407416666667,3.258142616666667,55.0,97.0
35,2.504068741666667,3.294827291666667,74.0,86.0
36,2.504068741666667,3.3233598166666667,67.0,85.0
37,2.504068741666667,3.343740191666667,62.0,75.0
38,2.504068741666667,3.387218325,71.0,92.0
39,3.3192837416666667,3.423903,45.0,95.0
40,3.3192837416666667,3.423903,57.0,95.0
41,3.482326741666667,3.5801525416666666,45.0,85.0
42,3.482326741666667,3.5801525416666666,57.0,85.0
43,3.645369741666667,3.7364020833333336,45.0,78.0
44,3.645369741666667,3.7364020833333336,57.0,78.0
45,3.808412741666667,4.057053316666667,45.0,90.0
46,3.808412741666667,4.057053316666667,57.0,69.0
47,3.808412741666667,4.057053316666667,57.0,90.0
48,4.1344987416666665,4.210585475,45.0,93.0
49,4.1344987416666665,4.210585475,57.0,93.0
50,4.297541741666667,4.3722697833333335,45.0,72.0
51,4.297541741666667,4.3722697833333335,57.0,72.0
52,3.808412741666667,4.482323808333334,61.0,78.0
53,4.460584741666667,4.489117266666667,57.0,95.0
54,3.808412741666667,4.525801941666667,73.0,97.0
55,3.808412741666667,4.529878016666667,64.0,58.0
56,3.808412741666667,4.544823625,76.0,82.0
57,3.808412741666667,4.552975775,69.0,78.0
58,4.460584741666667,4.559769233333333,45.0,95.0
59,4.623627741666667,4.720094850000001,47.0,88.0
60,4.623627741666667,4.720094850000001,59.0,88.0
61,4.786670741666667,4.880420466666667,47.0,79.0
62,4.786670741666667,4.880420466666667,59.0,79.0
63,4.949713741666667,5.0407460833333335,47.0,76.0
64,4.949713741666667,5.0407460833333335,59.0,76.0
65,5.112756741666667,5.365473391666667,47.0,88.0
66,5.112756741666667,5.365473391666667,59.0,77.0
67,5.112756741666667,5.365473391666667,59.0,88.0
68,5.438842741666667,5.514929475000001,47.0,99.0
69,5.438842741666667,5.514929475000001,59.0,99.0
70,5.601885741666667,5.703787616666667,47.0,93.0
71,5.601885741666667,5.703787616666667,59.0,93.0
72,5.112756741666667,5.707863691666667,66.0,63.0
73,5.112756741666667,5.7391136000000005,75.0,96.0
74,5.112756741666667,5.7540592083333335,78.0,90.0
75,5.112756741666667,5.762211358333333,71.0,78.0
76,5.764928741666667,5.869548,38.0,99.0
77,5.764928741666667,5.869548,50.0,99.0
78,5.927971741666667,6.0162867,40.0,82.0
79,5.927971741666667,6.0162867,52.0,82.0
80,6.091014741666667,6.173894933333334,40.0,69.0
81,6.091014741666667,6.173894933333334,52.0,69.0
82,6.254057741666667,6.345090083333334,40.0,73.0
83,6.254057741666667,6.345090083333334,52.0,73.0
84,6.417100741666667,6.592371966666667,40.0,83.0
85,6.417100741666667,6.592371966666667,52.0,76.0
86,6.417100741666667,6.592371966666667,52.0,83.0
87,6.743186741666667,6.812480016666667,40.0,93.0
88,6.743186741666667,6.812480016666667,52.0,93.0
89,6.906229741666667,6.979599091666667,40.0,92.0
90,6.906229741666667,6.979599091666667,52.0,92.0
91,6.417100741666667,7.016283766666667,59.0,74.0
92,6.417100741666667,7.061120591666667,64.0,88.0
93,6.417100741666667,7.0760662000000005,67.0,89.0
94,6.417100741666667,7.080142275,71.0,86.0
95,7.069272741666667,7.149435550000001,40.0,97.0
96,7.069272741666667,7.149435550000001,52.0,97.0
97,7.232315741666667,7.321989391666667,43.0,88.0
98,7.232315741666667,7.321989391666667,55.0,88.0
99,7.395358741666667,7.489108466666667,43.0,72.0
100,7.395358741666667,7.489108466666667,55.0,72.0
101,7.558401741666667,7.656227541666667,43.0,75.0
102,7.558401741666667,7.656227541666667,55.0,75.0
103,7.721444741666667,8.050248125,43.0,88.0
104,8.047530741666668,8.050248125,43.0,92.0
105,7.721444741666667,8.050248125,55.0,62.0
106,7.721444741666667,8.050248125,55.0,88.0
107,8.047530741666668,8.050248125,55.0,92.0
108,8.210573741666668,8.312475616666667,43.0,82.0
109,8.210573741666668,8.312475616666667,55.0,82.0
110,7.721444741666667,8.395355808333333,59.0,64.0
111,7.721444741666667,8.403507958333334,74.0,78.0
112,8.373616741666668,8.407584033333334,55.0,97.0
113,7.721444741666667,8.408942725000001,62.0,57.0
114,7.721444741666667,8.411660108333333,67.0,76.0
115,7.721444741666667,8.42117095,71.0,82.0
116,8.373616741666668,8.475518616666667,43.0,97.0
117,8.536659741666668,8.641279,45.0,95.0
118,8.536659741666668,8.641279,57.0,95.0
119,8.699702741666668,8.797528541666667,45.0,85.0
120,8.699702741666668,8.797528541666667,57.0,85.0
121,8.862745741666668,8.953778083333333,45.0,78.0
122,8.862745741666668,8.953778083333333,57.0,78.0
123,9.025788741666666,9.274429316666668,45.0,90.0
124,9.025788741666666,9.274429316666668,57.0,64.0
125,9.025788741666666,9.274429316666668,57.0,90.0
126,9.351874741666666,9.427961475,45.0,93.0
127,9.351874741666666,9.427961475,57.0,93.0
128,9.514917741666666,9.589645783333333,45.0,72.0
129,9.514917741666666,9.589645783333333,57.0,72.0
130,9.025788741666666,9.646710833333334,61.0,88.0
131,9.025788741666666,9.665732516666667,64.0,66.0
132,9.025788741666666,9.6684499,73.0,93.0
133,9.025788741666666,9.671167283333334,76.0,77.0
134,9.025788741666666,9.699699808333333,69.0,79.0
135,9.677960741666666,9.777145233333334,45.0,95.0
136,9.677960741666666,9.777145233333334,57.0,95.0
137,9.841003741666666,9.93747085,47.0,88.0
138,9.841003741666666,9.93747085,59.0,88.0
139,10.004046741666667,10.097796466666667,47.0,79.0
140,10.004046741666667,10.097796466666667,59.0,79.0
141,10.167089741666667,10.258122083333333,47.0,76.0
142,10.167089741666667,10.258122083333333,59.0,76.0
143,10.330132741666667,10.582849391666667,47.0,88.0
144,10.330132741666667,10.582849391666667,59.0,56.0
145,10.330132741666667,10.582849391666667,59.0,88.0
146,10.656218741666667,10.732305475,47.0,99.0
147,10.656218741666667,10.732305475,59.0,99.0
148,10.819261741666667,10.921163616666668,47.0,93.0
149,10.819261741666667,10.921163616666668,59.0,93.0
150,10.330132741666667,10.970076516666667,63.0,63.0
151,10.330132741666667,10.971435208333334,66.0,55.0
152,10.330132741666667,10.976869975,75.0,93.0
153,10.330132741666667,10.986380816666667,71.0,73.0
154,10.330132741666667,10.994532966666668,78.0,79.0
155,10.982304741666667,11.086924,38.0,99.0
156,10.982304741666667,11.086924,50.0,99.0
157,11.145347741666667,11.2336627,40.0,82.0
158,11.145347741666667,11.2336627,52.0,82.0
159,11.308390741666667,11.391270933333335,40.0,69.0
160,11.308390741666667,11.391270933333335,52.0,69.0
161,11.471433741666667,11.562466083333334,40.0,73.0
162,11.471433741666667,11.562466083333334,52.0,73.0
163,11.634476741666667,11.809747966666666,40.0,83.0
164,11.634476741666667,11.809747966666666,52.0,79.0
165,11.634476741666667,11.809747966666666,52.0,83.0
166,11.960562741666667,12.029856016666667,40.0,93.0
167,11.960562741666667,12.029856016666667,52.0,93.0
168,12.123605741666667,12.196975091666667,40.0,92.0
169,12.123605741666667,12.196975091666667,52.0,92.0
170,12.286648741666667,12.3423551,52.0,97.0
171,12.286648741666667,12.366811550000001,40.0,97.0
172,11.634476741666667,12.392626691666667,67.0,75.0
173,11.634476741666667,12.393985383333334,64.0,82.0
174,11.634476741666667,12.422517908333333,71.0,78.0
175,12.449691741666667,12.539365391666667,43.0,88.0
176,12.449691741666667,12.539365391666667,55.0,88.0
177,12.612734741666667,12.706484466666668,43.0,72.0
178,12.612734741666667,12.706484466666668,55.0,72.0
179,12.775777741666667,12.873603541666668,43.0,75.0
180,12.775777741666667,12.873603541666668,55.0,75.0
181,12.938820741666667,13.267624125000001,43.0,88.0
182,13.264906741666668,13.267624125000001,43.0,92.0
183,12.938820741666667,13.267624125000001,55.0,74.0
184,12.938820741666667,13.267624125000001,55.0,88.0
185,13.264906741666668,13.267624125000001,55.0,92.0
186,13.427949741666668,13.529851616666667,43.0,82.0
187,13.427949741666668,13.529851616666667,55.0,82.0
188,13.590992741666668,13.692894616666667,43.0,97.0
189,13.590992741666668,13.692894616666667,55.0,97.0
190,12.938820741666667,13.729579291666667,74.0,86.0
191,12.938820741666667,13.758111816666668,67.0,85.0
192,12.938820741666667,13.778492191666666,62.0,75.0
193,12.938820741666667,13.821970325,71.0,92.0
194,13.754035741666668,13.858655,45.0,95.0
195,13.754035741666668,13.858655,57.0,95.0
196,13.917078741666668,14.014904541666667,45.0,85.0
197,13.917078741666668,14.014904541666667,57.0,85.0
198,14.080121741666668,14.171154083333334,45.0,78.0
199,14.080121741666668,14.171154083333334,57.0,78.0
200,14.243164741666668,14.491805316666667,45.0,90.0
201,14.243164741666668,14.491805316666667,57.0,69.0
202,14.243164741666668,14.491805316666667,57.0,90.0
203,14.569250741666668,14.645337475,45.0,93.0
204,14.569250741666668,14.645337475,57.0,93.0
205,14.732293741666668,14.807021783333335,45.0,72.0
206,14.732293741666668,14.807021783333335,57.0,72.0
207,14.243164741666668,14.917075808333333,61.0,78.0
208,14.895336741666668,14.923869266666667,57.0,95.0
209,14.243164741666668,14.960553941666667,73.0,97.0
210,14.243164741666668,14.964630016666668,64.0,58.0
211,14.243164741666668,14.979575625,76.0,82.0
212,14.243164741666668,14.987727775000002,69.0,78.0
213,14.895336741666668,14.994521233333334,45.0,95.0
214,15.058379741666668,15.15484685,47.0,88.0
215,15.058379741666668,15.15484685,59.0,88.0
216,15.221422741666668,15.315172466666667,47.0,79.0
217,15.221422741666668,15.315172466666667,59.0,79.0
218,15.384465741666668,15.475498083333335,47.0,76.0
219,15.384465741666668,15.475498083333335,59.0,76.0
220,15.547508741666668,15.800225391666668,47.0,88.0
221,15.547508741666668,15.800225391666668,59.0,77.0
222,15.547508741666668,15.800225391666668,59.0,88.0
223,15.873594741666667,15.949681475,47.0,99.0
224,15.873594741666667,15.949681475,59.0,99.0
225,16.036637741666667,16.138539616666666,47.0,93.0
226,16.036637741666667,16.138539616666666,59.0,93.0
227,15.547508741666668,16.142615691666666,66.0,63.0
228,15.547508741666668,16.1738656,75.0,96.0
229,15.547508741666668,16.188811208333334,78.0,90.0
230,15.547508741666668,16.196963358333335,71.0,78.0
231,16.19968074166667,16.3043,38.0,99.0
232,16.19968074166667,16.3043,50.0,99.0
233,16.362723741666667,16.4510387,40.0,82.0
234,16.362723741666667,16.4510387,52.0,82.0
235,16.52576674166667,16.608646933333333,40.0,69.0
236,16.52576674166667,16.608646933333333,52.0,69.0
237,16.688809741666667,16.779842083333335,40.0,73.0
238,16.688809741666667,16.779842083333335,52.0,73.0
239,16.85185274166667,17.027123966666668,40.0,83.0
240,16.85185274166667,17.027123966666668,52.0,76.0
241,16.85185274166667,17.027123966666668,52.0,83.0
242,17.17793874166667,17.24723201666667,40.0,93.0
243,17.17793874166667,17.24723201666667,52.0,93.0
244,17.340981741666667,17.414351091666667,40.0,92.0
245,17.340981741666667,17.414351091666667,52.0,92.0
246,16.85185274166667,17.451035766666667,59.0,74.0
247,16.85185274166667,17.495872591666668,64.0,88.0
248,16.85185274166667,17.5108182,67.0,89.0
249,16.85185274166667,17.514894275,71.0,86.0
250,17.50402474166667,17.58418755,40.0,97.0
251,17.50402474166667,17.58418755,52.0,97.0
252,17.667067741666667,17.75674139166667,43.0,88.0
253,17.667067741666667,17.75674139166667,55.0,88.0
254,17.83011074166667,17.923860466666667,43.0,72.0
255,17.83011074166667,17.923860466666667,55.0,72.0
256,17.993153741666667,18.090979541666666,43.0,75.0
257,17.993153741666667,18.090979541666666,55.0,75.0
258,18.15619674166667,18.485000125,43.0,88.0
259,18.48228274166667,18.485000125,43.0,92.0
260,18.15619674166667,18.485000125,55.0,62.0
261,18.15619674166667,18.485000125,55.0,88.0
262,18.48228274166667,18.485000125,55.0,92.0
263,18.645325741666667,18.747227616666667,43.0,82.0
264,18.645325741666667,18.747227616666667,55.0,82.0
265,18.15619674166667,18.830107808333334,59.0,64.0
266,18.15619674166667,18.838259958333335,74.0,78.0
267,18.80836874166667,18.842336033333336,55.0,97.0
268,18.15619674166667,18.843694725000002,62.0,57.0
269,18.15619674166667,18.846412108333332,67.0,76.0
270,18.15619674166667,18.85592295,71.0,82.0
271,18.80836874166667,18.91027061666667,43.0,97.0
272,18.971411741666667,19.076031,45.0,95.0
273,18.971411741666667,19.076031,57.0,95.0
274,19.13445474166667,19.23228054166667,45.0,85.0
275,19.13445474166667,19.23228054166667,57.0,85.0
276,19.297497741666668,19.388530083333332,45.0,78.0
277,19.297497741666668,19.388530083333332,57.0,78.0
278,19.460540741666666,19.70918131666667,45.0,90.0
279,19.460540741666666,19.70918131666667,57.0,64.0
280,19.460540741666666,19.70918131666667,57.0,90.0
281,19.786626741666666,19.862713475,45.0,93.0
282,19.786626741666666,19.862713475,57.0,93.0
283,19.949669741666668,20.024397783333335,45.0,72.0
284,19.949669741666668,20.024397783333335,57.0,72.0
285,19.460540741666666,20.081462833333333,61.0,88.0
286,19.460540741666666,20.10048451666667,64.0,66.0
287,19.460540741666666,20.103201900000002,73.0,93.0
288,19.460540741666666,20.105919283333336,76.0,77.0
289,19.460540741666666,20.134451808333335,69.0,79.0
290,20.112712741666666,20.211897233333335,45.0,95.0
291,20.112712741666666,20.211897233333335,57.0,95.0
292,20.275755741666668,20.37222285,47.0,88.0
293,20.275755741666668,20.37222285,59.0,88.0
294,20.438798741666666,20.532548466666668,47.0,79.0
295,20.438798741666666,20.532548466666668,59.0,79.0
296,20.601841741666668,20.692874083333333,47.0,76.0
297,20.601841741666668,20.692874083333333,59.0,76.0
298,20.764884741666666,21.017601391666666,47.0,88.0
299,20.764884741666666,21.017601391666666,59.0,56.0
300,20.764884741666666,21.017601391666666,59.0,88.0
301,21.090970741666666,21.167057475,47.0,99.0
302,21.090970741666666,21.167057475,59.0,99.0
303,21.254013741666668,21.355915616666667,47.0,93.0
304,21.254013741666668,21.355915616666667,59.0,93.0
305,20.764884741666666,21.40482851666667,63.0,63.0
306,20.764884741666666,21.406187208333336,66.0,55.0
307,20.764884741666666,21.411621975,75.0,93.0
308,20.764884741666666,21.417056741666666,71.0,73.0
309,20.764884741666666,21.417056741666666,78.0,79.0
310,21.417056741666666,21.521676,38.0,99.0
311,21.417056741666666,21.521676,50.0,99.0
312,21.580099741666668,21.6684147,40.0,82.0
313,21.580099741666668,21.6684147,52.0,82.0
314,21.743142741666666,21.826022933333334,40.0,69.0
315,21.743142741666666,21.826022933333334,52.0,69.0
316,21.90618574166667,21.997218083333333,40.0,73.0
317,21.90618574166667,21.997218083333333,52.0,73.0
318,22.069228741666667,22.244499966666666,40.0,83.0
319,22.069228741666667,22.244499966666666,52.0,79.0
320,22.069228741666667,22.244499966666666,52.0,83.0
321,22.395314741666667,22.464608016666666,40.0,93.0
322,22.395314741666667,22.464608016666666,52.0,93.0
323,22.55835774166667,22.63172709166667,40.0,92.0
324,22.55835774166667,22.63172709166667,52.0,92.0
325,22.721400741666667,22.777107100000002,52.0,97.0
326,22.721400741666667,22.80156355,40.0,97.0
327,22.069228741666667,22.827378691666667,67.0,75.0
328,22.069228741666667,22.828737383333333,64.0,82.0
329,22.069228741666667,22.857269908333333,71.0,78.0
330,22.88444374166667,22.974117391666667,43.0,88.0
331,22.88444374166667,22.974117391666667,55.0,88.0
332,23.047486741666667,23.14123646666667,43.0,72.0
333,23.047486741666667,23.14123646666667,55.0,72.0
334,23.21052974166667,23.308355541666668,43.0,75.0
335,23.21052974166667,23.308355541666668,55.0,75.0
336,23.373572741666667,23.702376125,43.0,88.0
337,23.699658741666667,23.702376125,43.0,92.0
338,23.373572741666667,23.702376125,55.0,74.0
339,23.373572741666667,23.702376125,55.0,88.0
340,23.699658741666667,23.702376125,55.0,92.0
341,23.86270174166667,23.96460361666667,43.0,82.0
342,23.86270174166667,23.96460361666667,55.0,82.0
343,24.025744741666667,24.127646616666667,43.0,97.0
344,24.025744741666667,24.127646616666667,55.0,97.0
345,23.373572741666667,24.164331291666667,74.0,86.0
346,23.373572741666667,24.19286381666667,67.0,85.0
347,23.373572741666667,24.213244191666668,62.0,75.0
348,23.373572741666667,24.256722325000002,71.0,92.0
349,24.18878774166667,24.293407000000002,45.0,95.0
350,24.18878774166667,24.293407000000002,57.0,95.0
351,24.351830741666667,24.449656541666666,45.0,85.0
352,24.351830741666667,24.449656541666666,57.0,85.0
353,24.51487374166667,24.605906083333334,45.0,78.0
354,24.51487374166667,24.605906083333334,57.0,78.0
355,24.677916741666667,24.926557316666667,45.0,90.0
356,24.677916741666667,24.926557316666667,57.0,69.0
357,24.677916741666667,24.926557316666667,57.0,90.0
358,25.004002741666667,25.080089475,45.0,93.0
359,25.004002741666667,25.080089475,57.0,93.0
360,25.16704574166667,25.241773783333336,45.0,72.0
361,25.16704574166667,25.241773783333336,57.0,72.0
362,24.677916741666667,25.351827808333333,61.0,78.0
363,25.330088741666668,25.358621266666667,57.0,95.0
364,24.677916741666667,25.395305941666667,73.0,97.0
365,24.677916741666667,25.399382016666667,64.0,58.0
366,24.677916741666667,25.414327625000002,76.0,82.0
367,24.677916741666667,25.422479775000003,69.0,78.0
368,25.330088741666668,25.429273233333333,45.0,95.0
369,25.49313174166667,25.58959885,47.0,88.0
370,25.49313174166667,25.58959885,59.0,88.0
371,25.656174741666668,25.749924466666666,47.0,79.0
372,25.656174741666668,25.749924466666666,59.0,79.0
373,25.81921774166667,25.910250083333334,47.0,76.0
374,25.81921774166667,25.910250083333334,59.0,76.0
375,25.982260741666668,26.234977391666668,47.0,88.0
376,25.982260741666668,26.234977391666668,59.0,77.0
377,25.982260741666668,26.234977391666668,59.0,88.0
378,26.308346741666668,26.384433475,47.0,99.0
379,26.308346741666668,26.384433475,59.0,99.0
380,26.471389741666666,26.57329161666667,47.0,93.0
381,26.471389741666666,26.57329161666667,59.0,93.0
382,25.982260741666668,26.57736769166667,66.0,63.0
383,25.982260741666668,26.608617600000002,75.0,96.0
384,25.982260741666668,26.623563208333334,78.0,90.0
385,25.982260741666668,26.631715358333334,71.0,78.0
386,26.634432741666668,26.739052,38.0,99.0
387,26.634432741666668,26.739052,50.0,99.0
388,26.797475741666666,26.8857907,40.0,82.0
389,26.797475741666666,26.8857907,52.0,82.0
390,26.960518741666668,27.043398933333336,40.0,69.0
391,26.960518741666668,27.043398933333336,52.0,69.0
392,27.123561741666666,27.214594083333335,40.0,73.0
393,27.123561741666666,27.214594083333335,52.0,73.0
394,27.286604741666668,27.461875966666668,40.0,83.0
395,27.286604741666668,27.461875966666668,52.0,76.0
396,27.286604741666668,27.461875966666668,52.0,83.0
397,27.61269074166667,27.681984016666668,40.0,93.0
398,27.61269074166667,27.681984016666668,52.0,93.0
399,27.775733741666667,27.849103091666667,40.0,92.0
400,27.775733741666667,27.849103091666667,52.0,92.0
401,27.286604741666668,27.885787766666667,59.0,74.0
402,27.286604741666668,27.930624591666668,64.0,88.0
403,27.286604741666668,27.945570200000002,67.0,89.0
404,27.286604741666668,27.949646275000003,71.0,86.0
405,27.93877674166667,28.018939550000002,40.0,97.0
406,27.93877674166667,28.018939550000002,52.0,97.0
407,28.101819741666667,28.19149339166667,43.0,88.0
408,28.101819741666667,28.19149339166667,55.0,88.0
409,28.26486274166667,28.358612466666667,43.0,72.0
410,28.26486274166667,28.358612466666667,55.0,72.0
411,28.427905741666667,28.52573154166667,43.0,75.0
412,28.427905741666667,28.52573154166667,55.0,75.0
413,28.59094874166667,28.919752125000002,43.0,88.0
414,28.91703474166667,28.919752125000002,43.0,92.0
415,28.59094874166667,28.919752125000002,55.0,62.0
416,28.59094874166667,28.919752125000002,55.0,88.0
417,28.91703474166667,28.919752125000002,55.0,92.0
418,29.080077741666667,29.181979616666666,43.0,82.0
419,29.080077741666667,29.181979616666666,55.0,82.0
420,28.59094874166667,29.264859808333334,59.0,64.0
421,28.59094874166667,29.273011958333335,74.0,78.0
422,29.24312074166667,29.277088033333335,55.0,97.0
423,28.59094874166667,29.278446725000002,62.0,57.0
424,28.59094874166667,29.281164108333336,67.0,76.0
425,28.59094874166667,29.29067495,71.0,82.0
426,29.24312074166667,29.345022616666668,43.0,97.0
427,29.406163741666667,29.510783,45.0,95.0
428,29.406163741666667,29.510783,57.0,95.0
429,29.56920674166667,29.667032541666668,45.0,85.0
430,29.56920674166667,29.667032541666668,57.0,85.0
431,29.732249741666667,29.823282083333336,45.0,78.0
432,29.732249741666667,29.823282083333336,57.0,78.0
433,29.89529274166667,30.14393331666667,45.0,90.0
434,29.89529274166667,30.14393331666667,57.0,64.0
435,29.89529274166667,30.14393331666667,57.0,90.0
436,30.22137874166667,30.297465475000003,45.0,93.0
437,30.22137874166667,30.297465475000003,57.0,93.0
438,30.384421741666667,30.459149783333334,45.0,72.0
439,30.384421741666667,30.459149783333334,57.0,72.0
440,29.89529274166667,30.516214833333336,61.0,88.0
441,29.89529274166667,30.535236516666668,64.0,66.0
442,29.89529274166667,30.5379539,73.0,93.0
443,29.89529274166667,30.540671283333335,76.0,77.0
444,29.89529274166667,30.569203808333334,69.0,79.0
445,30.54746474166667,30.646649233333335,45.0,95.0
446,30.54746474166667,30.646649233333335,57.0,95.0
447,30.710507741666667,30.806974850000003,47.0,88.0
448,30.710507741666667,30.806974850000003,59.0,88.0
449,30.87355074166667,30.967300466666668,47.0,79.0
450,30.87355074166667,30.967300466666668,59.0,79.0
451,31.036593741666668,31.127626083333336,47.0,76.0
452,31.036593741666668,31.127626083333336,59.0,76.0
453,31.19963674166667,31.45235339166667,47.0,88.0
454,31.19963674166667,31.45235339166667,59.0,56.0
455,31.19963674166667,31.45235339166667,59.0,88.0
456,31.52572274166667,31.601809475000003,47.0,99.0
457,31.52572274166667,31.601809475000003,59.0,99.0
458,31.688765741666668,31.790667616666667,47.0,93.0
459,31.688765741666668,31.790667616666667,59.0,93.0
460,31.19963674166667,31.83958051666667,63.0,63.0
461,31.19963674166667,31.840939208333335,66.0,55.0
462,31.19963674166667,31.846373975000002,75.0,93.0
463,31.19963674166667,31.85180874166667,71.0,73.0
464,31.19963674166667,31.85180874166667,78.0,79.0
465,31.85180874166667,31.956428000000002,38.0,99.0
466,31.85180874166667,31.956428000000002,50.0,99.0
467,32.01485174166667,32.1031667,40.0,82.0
468,32.01485174166667,32.1031667,52.0,82.0
469,32.17789474166667,32.26077493333334,40.0,69.0
470,32.17789474166667,32.26077493333334,52.0,69.0
471,32.34093774166667,32.43197008333333,40.0,73.0
472,32.34093774166667,32.43197008333333,52.0,73.0
473,32.503980741666666,32.67925196666667,40.0,83.0
474,32.503980741666666,32.67925196666667,52.0,79.0
475,32.503980741666666,32.67925196666667,52.0,83.0
476,32.83006674166667,32.89936001666667,40.0,93.0
477,32.83006674166667,32.89936001666667,52.0,93.0
478,32.99310974166667,33.066479091666665,40.0,92.0
479,32.99310974166667,33.066479091666665,52.0,92.0
480,33.156152741666666,33.2118591,52.0,97.0
481,33.156152741666666,33.23631555,40.0,97.0
482,32.503980741666666,33.26213069166667,67.0,75.0
483,32.503980741666666,33.26348938333334,64.0,82.0
484,32.503980741666666,33.29202190833333,71.0,78.0
485,33.31919574166667,33.40886939166667,43.0,88.0
486,33.31919574166667,33.40886939166667,55.0,88.0
487,33.48223874166667,33.575988466666665,43.0,72.0
488,33.48223874166667,33.575988466666665,55.0,72.0
489,33.645281741666665,33.74310754166667,43.0,75.0
490,33.645281741666665,33.74310754166667,55.0,75.0
491,33.80832474166667,34.137128125000004,43.0,88.0
492,34.13441074166667,34.137128125000004,43.0,92.0
493,33.80832474166667,34.137128125000004,55.0,74.0
494,33.80832474166667,34.137128125000004,55.0,88.0
495,34.13441074166667,34.137128125000004,55.0,92.0
496,34.297453741666665,34.39935561666667,43.0,82.0
497,34.297453741666665,34.39935561666667,55.0,82.0
498,34.46049674166667,34.56239861666667,43.0,97.0
499,34.46049674166667,34.56239861666667,55.0,97.0
500,33.80832474166667,34.599083291666666,74.0,86.0
501,33.80832474166667,34.62761581666667,67.0,85.0
502,33.80832474166667,34.64799619166667,62.0,75.0
503,33.80832474166667,34.691474325,71.0,92.0
504,34.62353974166667,34.728159000000005,45.0,95.0
505,34.62353974166667,34.728159000000005,57.0,95.0
506,34.78658274166667,34.884408541666666,45.0,85.0
507,34.78658274166667,34.884408541666666,57.0,85.0
508,34.949625741666665,35.040658083333334,45.0,78.0
509,34.949625741666665,35.040658083333334,57.0,78.0
510,35.11266874166667,35.36130931666667,45.0,90.0
511,35.11266874166667,35.36130931666667,57.0,69.0
512,35.11266874166667,35.36130931666667,57.0,90.0
513,35.43875474166667,35.514841475000004,45.0,93.0
514,35.43875474166667,35.514841475000004,57.0,93.0
515,35.601797741666665,35.67652578333333,45.0,72.0
516,35.601797741666665,35.67652578333333,57.0,72.0
517,35.11266874166667,35.786579808333336,61.0,78.0
518,35.76484074166667,35.79337326666667,57.0,95.0
519,35.11266874166667,35.83005794166667,73.0,97.0
520,35.11266874166667,35.83413401666667,64.0,58.0
521,35.11266874166667,35.849079625,76.0,82.0
522,35.11266874166667,35.857231775,69.0,78.0
523,35.76484074166667,35.86402523333334,45.0,95.0
524,35.92788374166667,36.024350850000005,47.0,88.0
525,35.92788374166667,36.024350850000005,59.0,88.0
526,36.09092674166667,36.184676466666666,47.0,79.0
527,36.09092674166667,36.184676466666666,59.0,79.0
528,36.253969741666666,36.345002083333334,47.0,76.0
529,36.253969741666666,36.345002083333334,59.0,76.0
530,36.41701274166667,36.66972939166667,47.0,88.0
531,36.41701274166667,36.66972939166667,59.0,77.0
532,36.41701274166667,36.66972939166667,59.0,88.0
533,36.74309874166667,36.819185475000005,47.0,99.0
534,36.74309874166667,36.819185475000005,59.0,99.0
535,36.906141741666666,37.00804361666667,47.0,93.0
536,36.906141741666666,37.00804361666667,59.0,93.0
537,36.41701274166667,37.01211969166667,66.0,63.0
538,36.41701274166667,37.0433696,75.0,96.0
539,36.41701274166667,37.05831520833333,78.0,90.0
540,36.41701274166667,37.066467358333334,71.0,78.0
541,37.06918474166667,37.173804000000004,38.0,99.0
542,37.06918474166667,37.173804000000004,50.0,99.0
543,37.23222774166667,37.320542700000004,40.0,82.0
544,37.23222774166667,37.320542700000004,52.0,82.0
545,37.39527074166667,37.47815093333333,40.0,69.0
546,37.39527074166667,37.47815093333333,52.0,69.0
547,37.558313741666666,37.649346083333334,40.0,73.0
548,37.558313741666666,37.649346083333334,52.0,73.0
549,37.72135674166667,37.89662796666667,40.0,83.0
550,37.72135674166667,37.89662796666667,52.0,76.0
551,37.72135674166667,37.89662796666667,52.0,83.0
552,38.04744274166667,38.11673601666667,40.0,93.0
553,38.04744274166667,38.11673601666667,52.0,93.0
554,38.210485741666666,38.283855091666666,40.0,92.0
555,38.210485741666666,38.283855091666666,52.0,92.0
556,37.72135674166667,38.32053976666667,59.0,74.0
557,37.72135674166667,38.36537659166667,64.0,88.0
558,37.72135674166667,38.3803222,67.0,89.0
559,37.72135674166667,38.384398275,71.0,86.0
560,38.37352874166667,38.45369155,40.0,97.0
561,38.37352874166667,38.45369155,52.0,97.0
562,38.53657174166667,38.62624539166667,43.0,88.0
563,38.53657174166667,38.62624539166667,55.0,88.0
564,38.69961474166667,38.79336446666667,43.0,72.0
565,38.69961474166667,38.79336446666667,55.0,72.0
566,38.862657741666666,38.96048354166667,43.0,75.0
567,38.862657741666666,38.96048354166667,55.0,75.0
568,39.02570074166667,39.354504125,43.0,88.0
569,39.35178674166667,39.354504125,43.0,92.0
570,39.02570074166667,39.354504125,55.0,62.0
571,39.02570074166667,39.354504125,55.0,88.0
572,39.35178674166667,39.354504125,55.0,92.0
573,39.51482974166667,39.61673161666667,43.0,82.0
574,39.51482974166667,39.61673161666667,55.0,82.0
575,39.02570074166667,39.69961180833334,59.0,64.0
576,39.02570074166667,39.70776395833334,74.0,78.0
577,39.67787274166667,39.71184003333334,55.0,97.0
578,39.02570074166667,39.713198725000005,62.0,57.0
579,39.02570074166667,39.71591610833333,67.0,76.0
580,39.02570074166667,39.72542695,71.0,82.0
581,39.67787274166667,39.77977461666667,43.0,97.0
582,39.84091574166667,39.945535,45.0,95.0
583,39.84091574166667,39.945535,57.0,95.0
584,40.00395874166667,40.10178454166667,45.0,85.0
585,40.00395874166667,40.10178454166667,57.0,85.0
586,40.16700174166667,40.258034083333335,45.0,78.0
587,40.16700174166667,40.258034083333335,57.0,78.0
588,40.33004474166667,40.57868531666667,45.0,90.0
589,40.33004474166667,40.57868531666667,57.0,64.0
590,40.33004474166667,40.57868531666667,57.0,90.0
591,40.656130741666665,40.732217475,45.0,93.0
592,40.656130741666665,40.732217475,57.0,93.0
593,40.81917374166667,40.893901783333334,45.0,72.0
594,40.81917374166667,40.893901783333334,57.0,72.0
595,40.33004474166667,40.95096683333333,61.0,88.0
596,40.33004474166667,40.96998851666667,64.0,66.0
597,40.33004474166667,40.9727059,73.0,93.0
598,40.33004474166667,40.975423283333335,76.0,77.0
599,40.33004474166667,41.00395580833334,69.0,79.0
600,40.98221674166667,41.08140123333334,45.0,95.0
601,40.98221674166667,41.08140123333334,57.0,95.0
602,41.14525974166667,41.24172685,47.0,88.0
603,41.14525974166667,41.24172685,59.0,88.0
604,41.308302741666665,41.40205246666667,47.0,79.0
605,41.308302741666665,41.40205246666667,59.0,79.0
606,41.47134574166667,41.562378083333336,47.0,76.0
607,41.47134574166667,41.562378083333336,59.0,76.0
608,41.63438874166667,41.887105391666665,47.0,88.0
609,41.63438874166667,41.887105391666665,59.0,56.0
610,41.63438874166667,41.887105391666665,59.0,88.0
611,41.960474741666665,42.036561475,47.0,99.0
612,41.960474741666665,42.036561475,59.0,99.0
613,42.12351774166667,42.22541961666667,47.0,93.0
614,42.12351774166667,42.22541961666667,59.0,93.0
615,41.63438874166667,42.27433251666667,63.0,63.0
616,41.63438874166667,42.275691208333335,66.0,55.0
617,41.63438874166667,42.281125975,75.0,93.0
618,41.63438874166667,42.28656074166667,71.0,73.0
619,41.63438874166667,42.28656074166667,78.0,79.0
620,42.28656074166667,42.39118,38.0,99.0
621,42.28656074166667,42.39118,50.0,99.0
622,42.44960374166667,42.5379187,40.0,82.0
623,42.44960374166667,42.5379187,52.0,82.0
624,42.612646741666666,42.69552693333333,40.0,69.0
625,42.612646741666666,42.69552693333333,52.0,69.0
626,42.77568974166667,42.866722083333336,40.0,73.0
627,42.77568974166667,42.866722083333336,52.0,73.0
628,42.93873274166667,43.114003966666665,40.0,83.0
629,42.93873274166667,43.114003966666665,52.0,79.0
630,42.93873274166667,43.114003966666665,52.0,83.0
631,43.264818741666666,43.334112016666666,40.0,93.0
632,43.264818741666666,43.334112016666666,52.0,93.0
633,43.42786174166667,43.50123109166667,40.0,92.0
634,43.42786174166667,43.50123109166667,52.0,92.0
635,43.59090474166667,43.6466111,52.0,97.0
636,43.59090474166667,43.671067550000004,40.0,97.0
637,42.93873274166667,43.696882691666666,67.0,75.0
638,42.93873274166667,43.69824138333333,64.0,82.0
639,42.93873274166667,43.726773908333335,71.0,78.0
640,43.75394774166667,43.843621391666666,43.0,88.0
641,43.75394774166667,43.843621391666666,55.0,88.0
642,43.916990741666666,44.01074046666667,43.0,72.0
643,43.916990741666666,44.01074046666667,55.0,72.0
644,44.08003374166667,44.17785954166667,43.0,75.0
645,44.08003374166667,44.17785954166667,55.0,75.0
646,44.24307674166667,44.571880125,43.0,88.0
647,44.569162741666666,44.571880125,43.0,92.0
648,44.24307674166667,44.571880125,55.0,74.0
649,44.24307674166667,44.571880125,55.0,88.0
650,44.569162741666666,44.571880125,55.0,92.0
651,44.73220574166667,44.83410761666667,43.0,82.0
652,44.73220574166667,44.83410761666667,55.0,82.0
653,44.89524874166667,44.997150616666666,43.0,97.0
654,44.89524874166667,44.997150616666666,55.0,97.0
655,44.24307674166667,45.03383529166667,74.0,86.0
656,44.24307674166667,45.06236781666667,67.0,85.0
657,44.24307674166667,45.08274819166667,62.0,75.0
658,44.24307674166667,45.126226325000005,71.0,92.0
659,45.05829174166667,45.162911,45.0,95.0
660,45.05829174166667,45.162911,57.0,95.0
661,45.221334741666666,45.31916054166667,45.0,85.0
662,45.221334741666666,45.31916054166667,57.0,85.0
663,45.38437774166667,45.47541008333334,45.0,78.0
664,45.38437774166667,45.47541008333334,57.0,78.0
665,45.54742074166667,45.796061316666666,45.0,90.0
666,45.54742074166667,45.796061316666666,57.0,69.0
667,45.54742074166667,45.796061316666666,57.0,90.0
668,45.87350674166667,45.949593475,45.0,93.0
669,45.87350674166667,45.949593475,57.0,93.0
670,46.03654974166667,46.111277783333335,45.0,72.0
671,46.03654974166667,46.111277783333335,57.0,72.0
672,45.54742074166667,46.22133180833333,61.0,78.0
673,46.19959274166667,46.228125266666666,57.0,95.0
674,45.54742074166667,46.26480994166667,73.0,97.0
675,45.54742074166667,46.26888601666667,64.0,58.0
676,45.54742074166667,46.283831625000005,76.0,82.0
677,45.54742074166667,46.291983775000006,69.0,78.0
678,46.19959274166667,46.29877723333333,45.0,95.0
679,46.36263574166667,46.45910285,47.0,88.0
680,46.36263574166667,46.45910285,59.0,88.0
681,46.52567874166667,46.61942846666667,47.0,79.0
682,46.52567874166667,46.61942846666667,59.0,79.0
683,46.68872174166667,46.77975408333334,47.0,76.0
684,46.68872174166667,46.77975408333334,59.0,76.0
685,46.85176474166667,47.10448139166667,47.0,88.0
686,46.85176474166667,47.10448139166667,59.0,77.0
687,46.85176474166667,47.10448139166667,59.0,88.0
688,47.17785074166667,47.253937475,47.0,99.0
689,47.17785074166667,47.253937475,59.0,99.0
690,47.34089374166667,47.44279561666667,47.0,93.0
691,47.34089374166667,47.44279561666667,59.0,93.0
692,46.85176474166667,47.44687169166667,66.0,63.0
693,46.85176474166667,47.4781216,75.0,96.0
694,46.85176474166667,47.493067208333336,78.0,90.0
695,46.85176474166667,47.50121935833334,71.0,78.0
696,47.50393674166667,47.608556,38.0,99.0
697,47.50393674166667,47.608556,50.0,99.0
698,47.666979741666665,47.7552947,40.0,82.0
699,47.666979741666665,47.7552947,52.0,82.0
700,47.83002274166667,47.912902933333335,40.0,69.0
701,47.83002274166667,47.912902933333335,52.0,69.0
702,47.99306574166667,48.08409808333334,40.0,73.0
703,47.99306574166667,48.08409808333334,52.0,73.0
704,48.15610874166667,48.33137996666667,40.0,83.0
705,48.15610874166667,48.33137996666667,52.0,76.0
706,48.15610874166667,48.33137996666667,52.0,83.0
707,48.48219474166667,48.55148801666667,40.0,93.0
708,48.48219474166667,48.55148801666667,52.0,93.0
709,48.64523774166667,48.71860709166667,40.0,92.0
710,48.64523774166667,48.71860709166667,52.0,92.0
711,48.15610874166667,48.755291766666666,59.0,74.0
712,48.15610874166667,48.80012859166667,64.0,88.0
713,48.15610874166667,48.815074200000005,67.0,89.0
714,48.15610874166667,48.819150275000005,71.0,86.0
715,48.80828074166667,48.888443550000005,40.0,97.0
716,48.80828074166667,48.888443550000005,52.0,97.0
717,48.971323741666666,49.06099739166667,43.0,88.0
718,48.971323741666666,49.06099739166667,55.0,88.0
719,49.13436674166667,49.22811646666667,43.0,72.0
720,49.13436674166667,49.22811646666667,55.0,72.0
721,49.29740974166667,49.39523554166667,43.0,75.0
722,49.29740974166667,49.39523554166667,55.0,75.0
723,49.46045274166667,49.789256125,43.0,88.0
724,49.78653874166667,49.789256125,43.0,92.0
725,49.46045274166667,49.789256125,55.0,62.0
726,49.46045274166667,49.789256125,55.0,88.0
727,49.78653874166667,49.789256125,55.0,92.0
728,49.94958174166667,50.051483616666665,43.0,82.0
729,49.94958174166667,50.051483616666665,55.0,82.0
730,49.46045274166667,50.13436380833333,59.0,64.0
731,49.46045274166667,50.142515958333334,74.0,78.0
732,50.11262474166667,50.146592033333334,55.0,97.0
733,49.46045274166667,50.147950725,62.0,57.0
734,49.46045274166667,50.150668108333335,67.0,76.0
735,49.46045274166667,50.16017895,71.0,82.0
736,50.11262474166667,50.21452661666667,43.0,97.0
737,50.275667741666666,50.380287,45.0,95.0
738,50.275667741666666,50.380287,57.0,95.0
739,50.43871074166667,50.53653654166667,45.0,85.0
740,50.43871074166667,50.53653654166667,57.0,85.0
741,50.60175374166667,50.69278608333334,45.0,78.0
742,50.60175374166667,50.69278608333334,57.0,78.0
743,50.76479674166667,51.01343731666667,45.0,90.0
744,50.76479674166667,51.01343731666667,57.0,64.0
745,50.76479674166667,51.01343731666667,57.0,90.0
746,51.09088274166667,51.166969475,45.0,93.0
747,51.09088274166667,51.166969475,57.0,93.0
748,51.25392574166667,51.32865378333334,45.0,72.0
749,51.25392574166667,51.32865378333334,57.0,72.0
750,50.76479674166667,51.385718833333335,61.0,88.0
751,50.76479674166667,51.40474051666667,64.0,66.0
752,50.76479674166667,51.407457900000004,73.0,93.0
753,50.76479674166667,51.41017528333334,76.0,77.0
754,50.76479674166667,51.438707808333334,69.0,79.0
755,51.41696874166667,51.516153233333334,45.0,95.0
756,51.41696874166667,51.516153233333334,57.0,95.0
757,51.58001174166667,51.67647885,47.0,88.0
758,51.58001174166667,51.67647885,59.0,88.0
759,51.74305474166667,51.83680446666667,47.0,79.0
760,51.74305474166667,51.83680446666667,59.0,79.0
761,51.90609774166667,51.99713008333334,47.0,76.0
762,51.90609774166667,51.99713008333334,59.0,76.0
763,52.06914074166667,52.32185739166667,47.0,88.0
764,52.06914074166667,52.32185739166667,59.0,56.0
765,52.06914074166667,52.32185739166667,59.0,88.0
766,52.39522674166667,52.471313475,47.0,99.0
767,52.39522674166667,52.471313475,59.0,99.0
768,52.55826974166667,52.660171616666666,47.0,93.0
769,52.55826974166667,52.660171616666666,59.0,93.0
770,52.06914074166667,52.70908451666667,63.0,63.0
771,52.06914074166667,52.71044320833334,66.0,55.0
772,52.06914074166667,52.715877975000005,75.0,93.0
773,52.06914074166667,52.72131274166667,71.0,73.0
774,52.06914074166667,52.72131274166667,78.0,79.0
775,53.21044174166667,53.52158213333333,48.0,86.0
776,53.37348474166667,53.960439541666666,64.0,93.0
777,53.37348474166667,53.96587430833333,60.0,96.0
778,53.37348474166667,53.969950383333334,55.0,95.0
779,53.86261374166667,54.19277581666667,48.0,59.0
780,54.02565674166667,54.46723153333333,60.0,79.0
781,54.02565674166667,54.487611908333335,55.0,48.0
782,54.02565674166667,54.51614443333334,64.0,83.0
783,54.35174274166667,54.74848070833334,48.0,85.0
784,54.84087174166667,55.035164650000006,48.0,74.0
785,54.677828741666666,55.04603418333333,60.0,97.0
786,52.72131274166667,55.18462073333333,36.0,95.0
787,54.677828741666666,55.30146821666667,64.0,95.0
788,53.04739874166667,55.31777251666667,43.0,65.0
789,55.00391474166667,55.33543550833333,55.0,93.0
790,55.16695774166667,55.40065270833333,60.0,100.0
791,55.982172741666666,56.560975391666666,60.0,83.0
792,55.982172741666666,56.560975391666666,64.0,78.0
793,55.982172741666666,56.575921,55.0,92.0
794,56.47130174166667,56.74983353333334,48.0,83.0
795,56.634344741666666,56.81776811666667,64.0,93.0
796,56.634344741666666,57.14385411666667,60.0,97.0
797,56.96043074166667,57.30689711666667,48.0,97.0
798,55.330000741666666,57.53923339166667,36.0,90.0
799,55.65608674166667,57.57320068333333,43.0,64.0
800,57.28651674166667,57.62483096666667,60.0,107.0
801,57.44955974166667,57.65064610833333,48.0,69.0
802,57.61260274166667,57.839504250000005,55.0,96.0
803,57.28651674166667,57.880265,64.0,97.0
804,57.77564574166667,57.93733005,60.0,93.0
805,58.59086074166667,59.15471778333334,71.0,88.0
806,58.59086074166667,59.161511241666666,67.0,96.0
807,58.59086074166667,59.17781554166667,62.0,93.0
808,59.07998974166667,59.262054425,55.0,83.0
809,59.24303274166667,59.28379349166667,62.0,47.0
810,59.24303274166667,59.46993425,67.0,78.0
811,59.24303274166667,59.4780864,71.0,78.0
812,59.40607574166667,59.88025913333333,55.0,93.0
813,59.56911874166667,59.956345866666666,62.0,95.0
814,59.89520474166667,60.154714850000005,71.0,102.0
815,59.89520474166667,60.16558438333334,67.0,97.0
816,60.05824774166667,60.17781260833333,55.0,92.0
817,58.26477474166667,60.199551675,50.0,88.0
818,57.93868874166667,60.23759504166667,43.0,75.0
819,60.22129074166667,60.45770309166667,67.0,97.0
820,60.22129074166667,60.49031169166667,71.0,96.0
821,60.38433374166667,60.52699636666667,62.0,100.0
822,60.54737674166667,60.945473400000004,66.0,107.0
823,60.54737674166667,60.95226685833334,62.0,99.0
824,60.87346274166667,61.324548375000006,54.0,70.0
825,61.19954874166667,61.48079791666667,62.0,100.0
826,61.19954874166667,61.59492801666667,66.0,107.0
827,61.52563474166667,61.77835139166667,57.0,34.0
828,61.688677741666666,61.95498130833334,54.0,92.0
829,61.85172074166667,62.229437025,62.0,112.0
830,61.85172074166667,62.27291515833333,66.0,107.0
831,62.17780674166667,62.514762275,54.0,100.0
832,62.66693574166667,62.79737014166667,54.0,97.0
833,60.54737674166667,62.83948958333334,42.0,96.0
834,62.50389274166667,63.06639109166667,66.0,127.0
835,62.82997874166667,63.14111913333333,62.0,127.0
836,62.99302174166667,63.169651658333336,57.0,102.0
837,63.80823674166667,64.332691725,64.0,93.0
838,63.80823674166667,64.34356125833334,60.0,96.0
839,64.29736574166667,64.52970201666668,48.0,81.0
840,63.80823674166667,64.55008239166666,55.0,72.0
841,64.62345174166667,64.80687511666667,48.0,93.0
842,64.46040874166667,64.86122278333333,64.0,90.0
843,64.78649474166667,65.12752635,55.0,82.0
844,64.94953774166667,65.2008957,48.0,92.0
845,63.15606474166667,65.57861198333333,36.0,75.0
846,63.48215074166667,65.718557225,43.0,43.0
847,65.43866674166667,66.11529519166668,55.0,99.0
848,65.11258074166668,66.13839295,60.0,85.0
849,65.11258074166668,66.16420809166667,64.0,99.0
850,66.25388174166667,66.6193698,48.0,89.0
851,66.41692474166668,66.96855355833334,64.0,93.0
852,66.41692474166668,66.97398832500001,60.0,100.0
853,66.41692474166668,67.00387954166666,55.0,90.0
854,66.90605374166667,67.19137899166667,48.0,85.0
855,67.06909674166667,67.5976278,60.0,92.0
856,67.06909674166667,67.5976278,64.0,90.0
857,67.39518274166667,67.74164911666666,48.0,90.0
858,66.09083874166667,67.94545286666667,43.0,62.0
859,65.76475274166667,67.97398539166667,36.0,77.0
860,67.88431174166666,68.06773511666667,48.0,88.0
861,67.72126874166668,68.06773511666667,60.0,96.0
862,68.04735474166667,68.30822354166666,55.0,92.0
863,67.72126874166668,68.35577775,64.0,92.0
864,68.21039774166667,68.36664728333334,60.0,96.0
865,69.02561274166666,69.61256754166666,67.0,96.0
866,69.51474174166667,69.71039334166667,55.0,86.0
867,69.02561274166666,69.851697275,62.0,95.0
868,69.84082774166667,70.10713130833334,55.0,89.0
869,70.00387074166667,70.41283693333334,62.0,74.0
870,68.69952674166667,70.42370646666667,50.0,57.0
871,68.37344074166667,70.48077151666666,43.0,81.0
872,70.32995674166666,70.70087956666667,67.0,100.0
873,70.81908574166667,70.99571565833334,67.0,90.0
874,69.67778474166667,71.00386780833334,71.0,100.0
875,70.65604274166667,71.04462855833334,62.0,102.0
876,71.30821474166667,71.90739776666668,54.0,74.0
877,71.79734374166667,72.11935366666667,57.0,52.0
878,71.63430074166666,72.1302232,66.0,107.0
879,71.63430074166666,72.15332095833334,62.0,99.0
880,72.12342974166667,72.44543966666667,54.0,58.0
881,72.28647274166667,72.57859145,62.0,96.0
882,72.44951574166667,72.74706921666667,57.0,38.0
883,72.28647274166667,72.77152566666668,66.0,102.0
884,72.61255874166667,72.94815558333333,54.0,95.0
885,72.93864474166666,73.16011148333334,66.0,127.0
886,72.93864474166666,73.16690494166667,62.0,117.0
887,73.26473074166667,73.3856543,62.0,102.0
888,73.26473074166667,73.38701299166667,66.0,122.0
889,73.26473074166667,73.4182629,57.0,86.0
890,73.42777374166667,73.569077675,62.0,107.0
891,73.42777374166667,73.57994720833334,57.0,89.0
892,73.42777374166667,73.58674066666667,66.0,117.0
893,73.10168774166667,73.62342534166667,54.0,107.0
894,70.98212874166667,73.658751325,42.0,112.0
895,76.19950474166667,76.304124,38.0,99.0
896,76.19950474166667,76.304124,50.0,99.0
897,76.36254774166667,76.4508627,40.0,82.0
898,76.36254774166667,76.4508627,52.0,82.0
899,76.52559074166668,76.60847093333334,40.0,69.0
900,76.52559074166668,76.60847093333334,52.0,69.0
901,76.68863374166666,76.77966608333334,40.0,73.0
902,76.68863374166666,76.77966608333334,52.0,73.0
903,76.85167674166667,77.02694796666667,40.0,83.0
904,76.85167674166667,77.02694796666667,52.0,79.0
905,76.85167674166667,77.02694796666667,52.0,83.0
906,77.17776274166667,77.24705601666668,40.0,93.0
907,77.17776274166667,77.24705601666668,52.0,93.0
908,77.34080574166667,77.41417509166666,40.0,92.0
909,77.34080574166667,77.41417509166666,52.0,92.0
910,77.50384874166667,77.5595551,52.0,97.0
911,77.50384874166667,77.58401155,40.0,97.0
912,76.85167674166667,77.60982669166667,67.0,75.0
913,76.85167674166667,77.61118538333334,64.0,82.0
914,76.85167674166667,77.63971790833334,71.0,78.0
915,77.66689174166667,77.75656539166667,43.0,88.0
916,77.66689174166667,77.75656539166667,55.0,88.0
917,77.82993474166668,77.92368446666667,43.0,72.0
918,77.82993474166668,77.92368446666667,55.0,72.0
919,77.99297774166666,78.09080354166667,43.0,75.0
920,77.99297774166666,78.09080354166667,55.0,75.0
921,78.15602074166667,78.484824125,43.0,88.0
922,78.48210674166667,78.484824125,43.0,92.0
923,78.15602074166667,78.484824125,55.0,74.0
924,78.15602074166667,78.484824125,55.0,88.0
925,78.48210674166667,78.484824125,55.0,92.0
926,78.64514974166667,78.74705161666667,43.0,82.0
927,78.64514974166667,78.74705161666667,55.0,82.0
928,78.80819274166667,78.91009461666667,43.0,97.0
929,78.80819274166667,78.91009461666667,55.0,97.0
930,78.15602074166667,78.94677929166667,74.0,86.0
931,78.15602074166667,78.97531181666668,67.0,85.0
932,78.15602074166667,78.99569219166668,62.0,75.0
933,78.15602074166667,79.039170325,71.0,92.0
934,78.97123574166667,79.075855,45.0,95.0
935,78.97123574166667,79.075855,57.0,95.0
936,79.13427874166668,79.23210454166667,45.0,85.0
937,79.13427874166668,79.23210454166667,57.0,85.0
938,79.29732174166666,79.38835408333334,45.0,78.0
939,79.29732174166666,79.38835408333334,57.0,78.0
940,79.46036474166667,79.70900531666668,45.0,90.0
941,79.46036474166667,79.70900531666668,57.0,69.0
942,79.46036474166667,79.70900531666668,57.0,90.0
943,79.78645074166667,79.86253747500001,45.0,93.0
944,79.78645074166667,79.86253747500001,57.0,93.0
945,79.94949374166667,80.02422178333333,45.0,72.0
946,79.94949374166667,80.02422178333333,57.0,72.0
947,79.46036474166667,80.13427580833334,61.0,78.0
948,80.11253674166667,80.14106926666668,57.0,95.0
949,79.46036474166667,80.17775394166667,73.0,97.0
950,79.46036474166667,80.18183001666667,64.0,58.0
951,79.46036474166667,80.196775625,76.0,82.0
952,79.46036474166667,80.204927775,69.0,78.0
953,80.11253674166667,80.21172123333334,45.0,95.0
954,80.27557974166668,80.37204685,47.0,88.0
955,80.27557974166668,80.37204685,59.0,88.0
956,80.43862274166668,80.53237246666667,47.0,79.0
957,80.43862274166668,80.53237246666667,59.0,79.0
958,80.60166574166666,80.69269808333334,47.0,76.0
959,80.60166574166666,80.69269808333334,59.0,76.0
960,80.76470874166667,81.01742539166668,47.0,88.0
961,80.76470874166667,81.01742539166668,59.0,77.0
962,80.76470874166667,81.01742539166668,59.0,88.0
963,81.09079474166667,81.166881475,47.0,99.0
964,81.09079474166667,81.166881475,59.0,99.0
965,81.25383774166667,81.35573961666667,47.0,93.0
966,81.25383774166667,81.35573961666667,59.0,93.0
967,80.76470874166667,81.35981569166667,66.0,63.0
968,80.76470874166667,81.3910656,75.0,96.0
969,80.76470874166667,81.40601120833334,78.0,90.0
970,80.76470874166667,81.41416335833334,71.0,78.0
971,81.41688074166667,81.5215,38.0,99.0
972,81.41688074166667,81.5215,50.0,99.0
973,81.57992374166668,81.6682387,40.0,82.0
974,81.57992374166668,81.6682387,52.0,82.0
975,81.74296674166668,81.82584693333334,40.0,69.0
976,81.74296674166668,81.82584693333334,52.0,69.0
977,81.90600974166667,81.99704208333334,40.0,73.0
978,81.90600974166667,81.99704208333334,52.0,73.0
979,82.06905274166667,82.24432396666667,40.0,83.0
980,82.06905274166667,82.24432396666667,52.0,76.0
981,82.06905274166667,82.24432396666667,52.0,83.0
982,82.39513874166667,82.46443201666668,40.0,93.0
983,82.39513874166667,82.46443201666668,52.0,93.0
984,82.55818174166667,82.63155109166667,40.0,92.0
985,82.55818174166667,82.63155109166667,52.0,92.0
986,82.06905274166667,82.66823576666667,59.0,74.0
987,82.06905274166667,82.71307259166667,64.0,88.0
988,82.06905274166667,82.72801820000001,67.0,89.0
989,82.06905274166667,82.73209427500001,71.0,86.0
990,82.72122474166667,82.80138755,40.0,97.0
991,82.72122474166667,82.80138755,52.0,97.0
992,82.88426774166668,82.97394139166667,43.0,88.0
993,82.88426774166668,82.97394139166667,55.0,88.0
994,83.04731074166666,83.14106046666667,43.0,72.0
995,83.04731074166666,83.14106046666667,55.0,72.0
996,83.21035374166667,83.30817954166668,43.0,75.0
997,83.21035374166667,83.30817954166668,55.0,75.0
998,83.37339674166667,83.702200125,43.0,88.0
999,83.69948274166667,83.702200125,43.0,92.0
1000,83.37339674166667,83.702200125,55.0,62.0
1001,83.37339674166667,83.702200125,55.0,88.0
1002,83.69948274166667,83.702200125,55.0,92.0
1003,83.86252574166667,83.96442761666667,43.0,82.0
1004,83.86252574166667,83.96442761666667,55.0,82.0
1005,83.37339674166667,84.04730780833334,59.0,64.0
1006,83.37339674166667,84.05545995833334,74.0,78.0
1007,84.02556874166667,84.05953603333333,55.0,97.0
1008,83.37339674166667,84.060894725,62.0,57.0
1009,83.37339674166667,84.06361210833333,67.0,76.0
1010,83.37339674166667,84.07312295,71.0,82.0
1011,84.02556874166667,84.12747061666667,43.0,97.0
1012,84.18861174166668,84.293231,45.0,95.0
1013,84.18861174166668,84.293231,57.0,95.0
1014,84.35165474166666,84.44948054166667,45.0,85.0
1015,84.35165474166666,84.44948054166667,57.0,85.0
1016,84.51469774166667,84.60573008333334,45.0,78.0
1017,84.51469774166667,84.60573008333334,57.0,78.0
1018,84.67774074166667,84.92638131666666,45.0,90.0
1019,84.67774074166667,84.92638131666666,57.0,64.0
1020,84.67774074166667,84.92638131666666,57.0,90.0
1021,85.00382674166667,85.079913475,45.0,93.0
1022,85.00382674166667,85.079913475,57.0,93.0
1023,85.16686974166667,85.24159778333333,45.0,72.0
1024,85.16686974166667,85.24159778333333,57.0,72.0
1025,84.67774074166667,85.29866283333334,61.0,88.0
1026,84.67774074166667,85.31768451666667,64.0,66.0
1027,84.67774074166667,85.32040190000001,73.0,93.0
1028,84.67774074166667,85.32311928333334,76.0,77.0
1029,84.67774074166667,85.35165180833334,69.0,79.0
1030,85.32991274166667,85.42909723333334,45.0,95.0
1031,85.32991274166667,85.42909723333334,57.0,95.0
1032,85.49295574166668,85.58942285,47.0,88.0
1033,85.49295574166668,85.58942285,59.0,88.0
1034,85.65599874166666,85.74974846666667,47.0,79.0
1035,85.65599874166666,85.74974846666667,59.0,79.0
1036,85.81904174166667,85.91007408333334,47.0,76.0
1037,85.81904174166667,85.91007408333334,59.0,76.0
1038,85.98208474166667,86.23480139166666,47.0,88.0
1039,85.98208474166667,86.23480139166666,59.0,56.0
1040,85.98208474166667,86.23480139166666,59.0,88.0
1041,86.30817074166667,86.384257475,47.0,99.0
1042,86.30817074166667,86.384257475,59.0,99.0
1043,86.47121374166667,86.57311561666667,47.0,93.0
1044,86.47121374166667,86.57311561666667,59.0,93.0
1045,85.98208474166667,86.62202851666667,63.0,63.0
1046,85.98208474166667,86.62338720833334,66.0,55.0
1047,85.98208474166667,86.62882197500001,75.0,93.0
1048,85.98208474166667,86.63425674166668,71.0,73.0
1049,85.98208474166667,86.63425674166668,78.0,79.0
1050,86.63425674166668,86.738876,38.0,99.0
1051,86.63425674166668,86.738876,50.0,99.0
1052,86.79729974166668,86.8856147,40.0,82.0
1053,86.79729974166668,86.8856147,52.0,82.0
1054,86.96034274166666,87.04322293333334,40.0,69.0
1055,86.96034274166666,87.04322293333334,52.0,69.0
1056,87.12338574166667,87.21441808333334,40.0,73.0
1057,87.12338574166667,87.21441808333334,52.0,73.0
1058,87.28642874166667,87.46169996666667,40.0,83.0
1059,87.28642874166667,87.46169996666667,52.0,79.0
1060,87.28642874166667,87.46169996666667,52.0,83.0
1061,87.61251474166667,87.68180801666666,40.0,93.0
1062,87.61251474166667,87.68180801666666,52.0,93.0
1063,87.77555774166667,87.84892709166667,40.0,92.0
1064,87.77555774166667,87.84892709166667,52.0,92.0
1065,87.93860074166668,87.9943071,52.0,97.0
1066,87.93860074166668,88.01876355,40.0,97.0
1067,87.28642874166667,88.04457869166667,67.0,75.0
1068,87.28642874166667,88.04593738333334,64.0,82.0
1069,87.28642874166667,88.07446990833334,71.0,78.0
1070,88.10164374166668,88.19131739166667,43.0,88.0
1071,88.10164374166668,88.19131739166667,55.0,88.0
1072,88.26468674166667,88.35843646666667,43.0,72.0
1073,88.26468674166667,88.35843646666667,55.0,72.0
1074,88.42772974166667,88.52555554166668,43.0,75.0
1075,88.42772974166667,88.52555554166668,55.0,75.0
1076,88.59077274166667,88.919576125,43.0,88.0
1077,88.91685874166667,88.919576125,43.0,92.0
1078,88.59077274166667,88.919576125,55.0,74.0
1079,88.59077274166667,88.919576125,55.0,88.0
1080,88.91685874166667,88.919576125,55.0,92.0
1081,89.07990174166667,89.18180361666667,43.0,82.0
1082,89.07990174166667,89.18180361666667,55.0,82.0
1083,89.24294474166668,89.34484661666667,43.0,97.0
1084,89.24294474166668,89.34484661666667,55.0,97.0
1085,88.59077274166667,89.38153129166668,74.0,86.0
1086,88.59077274166667,89.41006381666666,67.0,85.0
1087,88.59077274166667,89.43044419166667,62.0,75.0
1088,88.59077274166667,89.473922325,71.0,92.0
1089,89.40598774166666,89.51060700000001,45.0,95.0
1090,89.40598774166666,89.51060700000001,57.0,95.0
1091,89.56903074166667,89.66685654166668,45.0,85.0
1092,89.56903074166667,89.66685654166668,57.0,85.0
1093,89.73207374166667,89.82310608333334,45.0,78.0
1094,89.73207374166667,89.82310608333334,57.0,78.0
1095,89.89511674166667,90.14375731666667,45.0,90.0
1096,89.89511674166667,90.14375731666667,57.0,69.0
1097,89.89511674166667,90.14375731666667,57.0,90.0
1098,90.22120274166667,90.297289475,45.0,93.0
1099,90.22120274166667,90.297289475,57.0,93.0
1100,90.38424574166667,90.45897378333333,45.0,72.0
1101,90.38424574166667,90.45897378333333,57.0,72.0
1102,89.89511674166667,90.56902780833333,61.0,78.0
1103,90.54728874166668,90.57582126666667,57.0,95.0
1104,89.89511674166667,90.61250594166667,73.0,97.0
1105,89.89511674166667,90.61658201666667,64.0,58.0
1106,89.89511674166667,90.631527625,76.0,82.0
1107,89.89511674166667,90.639679775,69.0,78.0
1108,90.54728874166668,90.64647323333334,45.0,95.0
1109,90.71033174166666,90.80679885,47.0,88.0
1110,90.71033174166666,90.80679885,59.0,88.0
1111,90.87337474166667,90.96712446666668,47.0,79.0
1112,90.87337474166667,90.96712446666668,59.0,79.0
1113,91.03641774166667,91.12745008333334,47.0,76.0
1114,91.03641774166667,91.12745008333334,59.0,76.0
1115,91.19946074166667,91.45217739166667,47.0,88.0
1116,91.19946074166667,91.45217739166667,59.0,77.0
1117,91.19946074166667,91.45217739166667,59.0,88.0
1118,91.52554674166667,91.601633475,47.0,99.0
1119,91.52554674166667,91.601633475,59.0,99.0
1120,91.68858974166668,91.79049161666667,47.0,93.0
1121,91.68858974166668,91.79049161666667,59.0,93.0
1122,91.19946074166667,91.79456769166667,66.0,63.0
1123,91.19946074166667,91.82581760000001,75.0,96.0
1124,91.19946074166667,91.84076320833334,78.0,90.0
1125,91.19946074166667,91.84891535833334,71.0,78.0
1126,91.85163274166668,91.956252,38.0,99.0
1127,91.85163274166668,91.956252,50.0,99.0
1128,92.01467574166666,92.1029907,40.0,82.0
1129,92.01467574166666,92.1029907,52.0,82.0
1130,92.17771874166667,92.26059893333334,40.0,69.0
1131,92.17771874166667,92.26059893333334,52.0,69.0
1132,92.34076174166667,92.43179408333334,40.0,73.0
1133,92.34076174166667,92.43179408333334,52.0,73.0
1134,92.50380474166667,92.67907596666667,40.0,83.0
1135,92.50380474166667,92.67907596666667,52.0,76.0
1136,92.50380474166667,92.67907596666667,52.0,83.0
1137,92.82989074166667,92.89918401666667,40.0,93.0
1138,92.82989074166667,92.89918401666667,52.0,93.0
1139,92.99293374166668,93.06630309166667,40.0,92.0
1140,92.99293374166668,93.06630309166667,52.0,92.0
1141,92.50380474166667,93.10298776666667,59.0,74.0
1142,92.50380474166667,93.14782459166668,64.0,88.0
1143,92.50380474166667,93.16277020000001,67.0,89.0
1144,92.50380474166667,93.166846275,71.0,86.0
1145,93.15597674166668,93.23613955,40.0,97.0
1146,93.15597674166668,93.23613955,52.0,97.0
1147,93.31901974166666,93.40869339166667,43.0,88.0
1148,93.31901974166666,93.40869339166667,55.0,88.0
1149,93.48206274166667,93.57581246666668,43.0,72.0
1150,93.48206274166667,93.57581246666668,55.0,72.0
1151,93.64510574166667,93.74293154166666,43.0,75.0
1152,93.64510574166667,93.74293154166666,55.0,75.0
1153,93.80814874166667,94.13695212500001,43.0,88.0
1154,94.13423474166667,94.13695212500001,43.0,92.0
1155,93.80814874166667,94.13695212500001,55.0,62.0
1156,93.80814874166667,94.13695212500001,55.0,88.0
1157,94.13423474166667,94.13695212500001,55.0,92.0
1158,94.29727774166668,94.39917961666667,43.0,82.0
1159,94.29727774166668,94.39917961666667,55.0,82.0
1160,93.80814874166667,94.48205980833333,59.0,64.0
1161,93.80814874166667,94.49021195833333,74.0,78.0
1162,94.46032074166668,94.49428803333333,55.0,97.0
1163,93.80814874166667,94.495646725,62.0,57.0
1164,93.80814874166667,94.49836410833333,67.0,76.0
1165,93.80814874166667,94.50787495,71.0,82.0
1166,94.46032074166668,94.56222261666667,43.0,97.0
1167,94.62336374166667,94.72798300000001,45.0,95.0
1168,94.62336374166667,94.72798300000001,57.0,95.0
1169,94.78640674166667,94.88423254166668,45.0,85.0
1170,94.78640674166667,94.88423254166668,57.0,85.0
1171,94.94944974166667,95.04048208333334,45.0,78.0
1172,94.94944974166667,95.04048208333334,57.0,78.0
1173,95.11249274166667,95.36113331666667,45.0,90.0
1174,95.11249274166667,95.36113331666667,57.0,64.0
1175,95.11249274166667,95.36113331666667,57.0,90.0
1176,95.43857874166667,95.514665475,45.0,93.0
1177,95.43857874166667,95.514665475,57.0,93.0
1178,95.60162174166668,95.67634978333334,45.0,72.0
1179,95.60162174166668,95.67634978333334,57.0,72.0
1180,95.11249274166667,95.73341483333334,61.0,88.0
1181,95.11249274166667,95.75243651666668,64.0,66.0
1182,95.11249274166667,95.75515390000001,73.0,93.0
1183,95.11249274166667,95.75787128333334,76.0,77.0
1184,95.11249274166667,95.78640380833333,69.0,79.0
1185,95.76466474166668,95.86384923333334,45.0,95.0
1186,95.76466474166668,95.86384923333334,57.0,95.0
1187,95.92770774166667,96.02417485000001,47.0,88.0
1188,95.92770774166667,96.02417485000001,59.0,88.0
1189,96.09075074166667,96.18450046666668,47.0,79.0
1190,96.09075074166667,96.18450046666668,59.0,79.0
1191,96.25379374166667,96.34482608333333,47.0,76.0
1192,96.25379374166667,96.34482608333333,59.0,76.0
1193,96.41683674166667,96.66955339166667,47.0,88.0
1194,96.41683674166667,96.66955339166667,59.0,56.0
1195,96.41683674166667,96.66955339166667,59.0,88.0
1196,96.74292274166667,96.819009475,47.0,99.0
1197,96.74292274166667,96.819009475,59.0,99.0
1198,96.90596574166668,97.00786761666667,47.0,93.0
1199,96.90596574166668,97.00786761666667,59.0,93.0
1200,96.41683674166667,97.05678051666668,63.0,63.0
1201,96.41683674166667,97.05813920833334,66.0,55.0
1202,96.41683674166667,97.06357397500001,75.0,93.0
1203,96.41683674166667,97.06900874166666,71.0,73.0
1204,96.41683674166667,97.06900874166666,78.0,79.0
1205,97.06900874166666,97.17362800000001,38.0,99.0
1206,97.06900874166666,97.17362800000001,50.0,99.0
1207,97.23205174166667,97.32036670000001,40.0,82.0
1208,97.23205174166667,97.32036670000001,52.0,82.0
1209,97.39509474166667,97.47797493333334,40.0,69.0
1210,97.39509474166667,97.47797493333334,52.0,69.0
1211,97.55813774166667,97.64917008333333,40.0,73.0
1212,97.55813774166667,97.64917008333333,52.0,73.0
1213,97.72118074166667,97.89645196666667,40.0,83.0
1214,97.72118074166667,97.89645196666667,52.0,79.0
1215,97.72118074166667,97.89645196666667,52.0,83.0
1216,98.04726674166668,98.11656001666667,40.0,93.0
1217,98.04726674166668,98.11656001666667,52.0,93.0
1218,98.21030974166668,98.28367909166667,40.0,92.0
1219,98.21030974166668,98.28367909166667,52.0,92.0
1220,98.37335274166666,98.4290591,52.0,97.0
1221,98.37335274166666,98.45351555,40.0,97.0
1222,97.72118074166667,98.47933069166668,67.0,75.0
1223,97.72118074166667,98.48068938333334,64.0,82.0
1224,97.72118074166667,98.50922190833334,71.0,78.0
1225,98.53639574166667,98.62606939166668,43.0,88.0
1226,98.53639574166667,98.62606939166668,55.0,88.0
1227,98.69943874166667,98.79318846666668,43.0,72.0
1228,98.69943874166667,98.79318846666668,55.0,72.0
1229,98.86248174166667,98.96030754166667,43.0,75.0
1230,98.86248174166667,98.96030754166667,55.0,75.0
1231,99.02552474166667,99.35432812500001,43.0,88.0
1232,99.35161074166668,99.35432812500001,43.0,92.0
1233,99.02552474166667,99.35432812500001,55.0,74.0
1234,99.02552474166667,99.35432812500001,55.0,88.0
1235,99.35161074166668,99.35432812500001,55.0,92.0
1236,99.51465374166668,99.61655561666667,43.0,82.0
1237,99.51465374166668,99.61655561666667,55.0,82.0
1238,99.67769674166667,99.77959861666668,43.0,97.0
1239,99.67769674166667,99.77959861666668,55.0,97.0
1240,99.02552474166667,99.81628329166666,74.0,86.0
1241,99.02552474166667,99.84481581666667,67.0,85.0
1242,99.02552474166667,99.86519619166667,62.0,75.0
1243,99.02552474166667,99.908674325,71.0,92.0
1244,99.84073974166667,99.94535900000001,45.0,95.0
1245,99.84073974166667,99.94535900000001,57.0,95.0
1246,100.00378274166667,100.10160854166666,45.0,85.0
1247,100.00378274166667,100.10160854166666,57.0,85.0
1248,100.16682574166667,100.25785808333333,45.0,78.0
1249,100.16682574166667,100.25785808333333,57.0,78.0
1250,100.32986874166667,100.57850931666667,45.0,90.0
1251,100.32986874166667,100.57850931666667,57.0,69.0
1252,100.32986874166667,100.57850931666667,57.0,90.0
1253,100.65595474166668,100.732041475,45.0,93.0
1254,100.65595474166668,100.732041475,57.0,93.0
1255,100.81899774166668,100.89372578333334,45.0,72.0
1256,100.81899774166668,100.89372578333334,57.0,72.0
1257,100.32986874166667,101.00377980833333,61.0,78.0
1258,100.98204074166667,101.01057326666667,57.0,95.0
1259,100.32986874166667,101.04725794166667,73.0,97.0
1260,100.32986874166667,101.05133401666667,64.0,58.0
1261,100.32986874166667,101.066279625,76.0,82.0
1262,100.32986874166667,101.07443177500001,69.0,78.0
1263,100.98204074166667,101.08122523333334,45.0,95.0
1264,101.14508374166667,101.24155085000001,47.0,88.0
1265,101.14508374166667,101.24155085000001,59.0,88.0
1266,101.30812674166667,101.40187646666668,47.0,79.0
1267,101.30812674166667,101.40187646666668,59.0,79.0
1268,101.47116974166667,101.56220208333333,47.0,76.0
1269,101.47116974166667,101.56220208333333,59.0,76.0
1270,101.63421274166667,101.88692939166667,47.0,88.0
1271,101.63421274166667,101.88692939166667,59.0,77.0
1272,101.63421274166667,101.88692939166667,59.0,88.0
1273,101.96029874166668,102.036385475,47.0,99.0
1274,101.96029874166668,102.036385475,59.0,99.0
1275,102.12334174166668,102.22524361666667,47.0,93.0
1276,102.12334174166668,102.22524361666667,59.0,93.0
1277,101.63421274166667,102.22931969166667,66.0,63.0
1278,101.63421274166667,102.26056960000001,75.0,96.0
1279,101.63421274166667,102.27551520833333,78.0,90.0
1280,101.63421274166667,102.28366735833333,71.0,78.0
1281,102.28638474166667,102.39100400000001,38.0,99.0
1282,102.28638474166667,102.39100400000001,50.0,99.0
1283,102.44942774166667,102.53774270000001,40.0,82.0
1284,102.44942774166667,102.53774270000001,52.0,82.0
1285,102.61247074166667,102.69535093333334,40.0,69.0
1286,102.61247074166667,102.69535093333334,52.0,69.0
1287,102.77551374166667,102.86654608333333,40.0,73.0
1288,102.77551374166667,102.86654608333333,52.0,73.0
1289,102.93855674166667,103.11382796666668,40.0,83.0
1290,102.93855674166667,103.11382796666668,52.0,76.0
1291,102.93855674166667,103.11382796666668,52.0,83.0
1292,103.26464274166668,103.33393601666667,40.0,93.0
1293,103.26464274166668,103.33393601666667,52.0,93.0
1294,103.42768574166666,103.50105509166667,40.0,92.0
1295,103.42768574166666,103.50105509166667,52.0,92.0
1296,102.93855674166667,103.53773976666668,59.0,74.0
1297,102.93855674166667,103.58257659166667,64.0,88.0
1298,102.93855674166667,103.5975222,67.0,89.0
1299,102.93855674166667,103.601598275,71.0,86.0
1300,103.59072874166667,103.67089155000001,40.0,97.0
1301,103.59072874166667,103.67089155000001,52.0,97.0
1302,103.75377174166667,103.84344539166668,43.0,88.0
1303,103.75377174166667,103.84344539166668,55.0,88.0
1304,103.91681474166667,104.01056446666666,43.0,72.0
1305,103.91681474166667,104.01056446666666,55.0,72.0
1306,104.07985774166667,104.17768354166667,43.0,75.0
1307,104.07985774166667,104.17768354166667,55.0,75.0
1308,104.24290074166667,104.57170412500001,43.0,88.0
1309,104.56898674166668,104.57170412500001,43.0,92.0
1310,104.24290074166667,104.57170412500001,55.0,62.0
1311,104.24290074166667,104.57170412500001,55.0,88.0
1312,104.56898674166668,104.57170412500001,55.0,92.0
1313,104.73202974166666,104.83393161666667,43.0,82.0
1314,104.73202974166666,104.83393161666667,55.0,82.0
1315,104.24290074166667,104.91681180833334,59.0,64.0
1316,104.24290074166667,104.92496395833334,74.0,78.0
1317,104.89507274166667,104.92904003333334,55.0,97.0
1318,104.24290074166667,104.930398725,62.0,57.0
1319,104.24290074166667,104.93311610833334,67.0,76.0
1320,104.24290074166667,104.94262695,71.0,82.0
1321,104.89507274166667,104.99697461666668,43.0,97.0
1322,105.05811574166667,105.162735,45.0,95.0
1323,105.05811574166667,105.162735,57.0,95.0
1324,105.22115874166667,105.31898454166667,45.0,85.0
1325,105.22115874166667,105.31898454166667,57.0,85.0
1326,105.38420174166667,105.47523408333333,45.0,78.0
1327,105.38420174166667,105.47523408333333,57.0,78.0
1328,105.54724474166667,105.79588531666667,45.0,90.0
1329,105.54724474166667,105.79588531666667,57.0,64.0
1330,105.54724474166667,105.79588531666667,57.0,90.0
1331,105.87333074166668,105.949417475,45.0,93.0
1332,105.87333074166668,105.949417475,57.0,93.0
1333,106.03637374166667,106.11110178333334,45.0,72.0
1334,106.03637374166667,106.11110178333334,57.0,72.0
1335,105.54724474166667,106.16816683333334,61.0,88.0
1336,105.54724474166667,106.18718851666667,64.0,66.0
1337,105.54724474166667,106.1899059,73.0,93.0
1338,105.54724474166667,106.19262328333333,76.0,77.0
1339,105.54724474166667,106.22115580833334,69.0,79.0
1340,106.19941674166667,106.29860123333334,45.0,95.0
1341,106.19941674166667,106.29860123333334,57.0,95.0
1342,106.36245974166667,106.45892685000001,47.0,88.0
1343,106.36245974166667,106.45892685000001,59.0,88.0
1344,106.52550274166667,106.61925246666667,47.0,79.0
1345,106.52550274166667,106.61925246666667,59.0,79.0
1346,106.68854574166667,106.77957808333333,47.0,76.0
1347,106.68854574166667,106.77957808333333,59.0,76.0
1348,106.85158874166667,107.10430539166667,47.0,88.0
1349,106.85158874166667,107.10430539166667,59.0,56.0
1350,106.85158874166667,107.10430539166667,59.0,88.0
1351,107.17767474166668,107.253761475,47.0,99.0
1352,107.17767474166668,107.253761475,59.0,99.0
1353,107.34071774166667,107.44261961666668,47.0,93.0
1354,107.34071774166667,107.44261961666668,59.0,93.0
1355,106.85158874166667,107.49153251666667,63.0,63.0
1356,106.85158874166667,107.49289120833333,66.0,55.0
1357,106.85158874166667,107.498325975,75.0,93.0
1358,106.85158874166667,107.50376074166667,71.0,73.0
1359,106.85158874166667,107.50376074166667,78.0,79.0
1360,107.50376074166667,107.60838000000001,38.0,99.0
1361,107.50376074166667,107.60838000000001,50.0,99.0
1362,107.66680374166667,107.75511870000001,40.0,82.0
1363,107.66680374166667,107.75511870000001,52.0,82.0
1364,107.82984674166667,107.91272693333333,40.0,69.0
1365,107.82984674166667,107.91272693333333,52.0,69.0
1366,107.99288974166667,108.08392208333333,40.0,73.0
1367,107.99288974166667,108.08392208333333,52.0,73.0
1368,108.15593274166667,108.33120396666668,40.0,83.0
1369,108.15593274166667,108.33120396666668,52.0,79.0
1370,108.15593274166667,108.33120396666668,52.0,83.0
1371,108.48201874166668,108.55131201666667,40.0,93.0
1372,108.48201874166668,108.55131201666667,52.0,93.0
1373,108.64506174166667,108.71843109166667,40.0,92.0
1374,108.64506174166667,108.71843109166667,52.0,92.0
1375,108.80810474166667,108.8638111,52.0,97.0
1376,108.80810474166667,108.88826755000001,40.0,97.0
1377,108.15593274166667,108.91408269166668,67.0,75.0
1378,108.15593274166667,108.91544138333335,64.0,82.0
1379,108.15593274166667,108.94397390833333,71.0,78.0
1380,108.97114774166667,109.06082139166668,43.0,88.0
1381,108.97114774166667,109.06082139166668,55.0,88.0
1382,109.13419074166667,109.22794046666667,43.0,72.0
1383,109.13419074166667,109.22794046666667,55.0,72.0
1384,109.29723374166667,109.39505954166667,43.0,75.0
1385,109.29723374166667,109.39505954166667,55.0,75.0
1386,109.46027674166668,109.789080125,43.0,88.0
1387,109.78636274166666,109.789080125,43.0,92.0
1388,109.46027674166668,109.789080125,55.0,74.0
1389,109.46027674166668,109.789080125,55.0,88.0
1390,109.78636274166666,109.789080125,55.0,92.0
1391,109.94940574166667,110.05130761666668,43.0,82.0
1392,109.94940574166667,110.05130761666668,55.0,82.0
1393,110.11244874166667,110.21435061666668,43.0,97.0
1394,110.11244874166667,110.21435061666668,55.0,97.0
1395,109.46027674166668,110.25103529166667,74.0,86.0
1396,109.46027674166668,110.27956781666667,67.0,85.0
1397,109.46027674166668,110.29994819166667,62.0,75.0
1398,109.46027674166668,110.34342632500001,71.0,92.0
1399,110.27549174166667,110.380111,45.0,95.0
1400,110.27549174166667,110.380111,57.0,95.0
1401,110.43853474166667,110.53636054166667,45.0,85.0
1402,110.43853474166667,110.53636054166667,57.0,85.0
1403,110.60157774166667,110.69261008333334,45.0,78.0
1404,110.60157774166667,110.69261008333334,57.0,78.0
1405,110.76462074166668,111.01326131666667,45.0,90.0
1406,110.76462074166668,111.01326131666667,57.0,69.0
1407,110.76462074166668,111.01326131666667,57.0,90.0
1408,111.09070674166666,111.166793475,45.0,93.0
1409,111.09070674166666,111.166793475,57.0,93.0
1410,111.25374974166667,111.32847778333334,45.0,72.0
1411,111.25374974166667,111.32847778333334,57.0,72.0
1412,110.76462074166668,111.43853180833334,61.0,78.0
1413,111.41679274166667,111.44532526666667,57.0,95.0
1414,110.76462074166668,111.48200994166667,73.0,97.0
1415,110.76462074166668,111.48608601666668,64.0,58.0
1416,110.76462074166668,111.50103162500001,76.0,82.0
1417,110.76462074166668,111.50918377500001,69.0,78.0
1418,111.41679274166667,111.51597723333334,45.0,95.0
1419,111.57983574166667,111.67630285,47.0,88.0
1420,111.57983574166667,111.67630285,59.0,88.0
1421,111.74287874166667,111.83662846666667,47.0,79.0
1422,111.74287874166667,111.83662846666667,59.0,79.0
1423,111.90592174166667,111.99695408333334,47.0,76.0
1424,111.90592174166667,111.99695408333334,59.0,76.0
1425,112.06896474166668,112.32168139166667,47.0,88.0
1426,112.06896474166668,112.32168139166667,59.0,77.0
1427,112.06896474166668,112.32168139166667,59.0,88.0
1428,112.39505074166667,112.471137475,47.0,99.0
1429,112.39505074166667,112.471137475,59.0,99.0
1430,112.55809374166667,112.65999561666668,47.0,93.0
1431,112.55809374166667,112.65999561666668,59.0,93.0
1432,112.06896474166668,112.66407169166668,66.0,63.0
1433,112.06896474166668,112.6953216,75.0,96.0
1434,112.06896474166668,112.71026720833333,78.0,90.0
1435,112.06896474166668,112.71841935833334,71.0,78.0
1436,112.72113674166667,112.825756,38.0,99.0
1437,112.72113674166667,112.825756,50.0,99.0
1438,112.88417974166667,112.9724947,40.0,82.0
1439,112.88417974166667,112.9724947,52.0,82.0
1440,113.04722274166667,113.13010293333333,40.0,69.0
1441,113.04722274166667,113.13010293333333,52.0,69.0
1442,113.21026574166667,113.30129808333334,40.0,73.0
1443,113.21026574166667,113.30129808333334,52.0,73.0
1444,113.37330874166668,113.54857996666667,40.0,83.0
1445,113.37330874166668,113.54857996666667,52.0,76.0
1446,113.37330874166668,113.54857996666667,52.0,83.0
1447,113.69939474166667,113.76868801666667,40.0,93.0
1448,113.69939474166667,113.76868801666667,52.0,93.0
1449,113.86243774166667,113.93580709166667,40.0,92.0
1450,113.86243774166667,113.93580709166667,52.0,92.0
1451,113.37330874166668,113.97249176666668,59.0,74.0
1452,113.37330874166668,114.01732859166667,64.0,88.0
1453,113.37330874166668,114.0322742,67.0,89.0
1454,113.37330874166668,114.036350275,71.0,86.0
1455,114.02548074166667,114.10564355000001,40.0,97.0
1456,114.02548074166667,114.10564355000001,52.0,97.0
1457,114.18852374166667,114.27819739166667,43.0,88.0
1458,114.18852374166667,114.27819739166667,55.0,88.0
1459,114.35156674166667,114.44531646666667,43.0,72.0
1460,114.35156674166667,114.44531646666667,55.0,72.0
1461,114.51460974166667,114.61243554166667,43.0,75.0
1462,114.51460974166667,114.61243554166667,55.0,75.0
1463,114.67765274166668,115.006456125,43.0,88.0
1464,115.00373874166667,115.006456125,43.0,92.0
1465,114.67765274166668,115.006456125,55.0,62.0
1466,114.67765274166668,115.006456125,55.0,88.0
1467,115.00373874166667,115.006456125,55.0,92.0
1468,115.16678174166667,115.26868361666668,43.0,82.0
1469,115.16678174166667,115.26868361666668,55.0,82.0
1470,114.67765274166668,115.35156380833334,59.0,64.0
1471,114.67765274166668,115.35971595833334,74.0,78.0
1472,115.32982474166667,115.36379203333334,55.0,97.0
1473,114.67765274166668,115.365150725,62.0,57.0
1474,114.67765274166668,115.36786810833334,67.0,76.0
1475,114.67765274166668,115.37737895000001,71.0,82.0
1476,115.32982474166667,115.43172661666667,43.0,97.0
1477,115.49286774166667,115.597487,45.0,95.0
1478,115.49286774166667,115.597487,57.0,95.0
1479,115.65591074166667,115.75373654166667,45.0,85.0
1480,115.65591074166667,115.75373654166667,57.0,85.0
1481,115.81895374166668,115.90998608333334,45.0,78.0
1482,115.81895374166668,115.90998608333334,57.0,78.0
1483,115.98199674166668,116.23063731666667,45.0,90.0
1484,115.98199674166668,116.23063731666667,57.0,64.0
1485,115.98199674166668,116.23063731666667,57.0,90.0
1486,116.30808274166667,116.38416947500001,45.0,93.0
1487,116.30808274166667,116.38416947500001,57.0,93.0
1488,116.47112574166667,116.54585378333334,45.0,72.0
1489,116.47112574166667,116.54585378333334,57.0,72.0
1490,115.98199674166668,116.60291883333333,61.0,88.0
1491,115.98199674166668,116.62194051666667,64.0,66.0
1492,115.98199674166668,116.6246579,73.0,93.0
1493,115.98199674166668,116.62737528333334,76.0,77.0
1494,115.98199674166668,116.65590780833334,69.0,79.0
1495,116.63416874166667,116.73335323333333,45.0,95.0
1496,116.63416874166667,116.73335323333333,57.0,95.0
1497,116.79721174166667,116.89367885,47.0,88.0
1498,116.79721174166667,116.89367885,59.0,88.0
1499,116.96025474166667,117.05400446666667,47.0,79.0
1500,116.96025474166667,117.05400446666667,59.0,79.0
1501,117.12329774166668,117.21433008333334,47.0,76.0
1502,117.12329774166668,117.21433008333334,59.0,76.0
1503,117.28634074166668,117.53905739166667,47.0,88.0
1504,117.28634074166668,117.53905739166667,59.0,56.0
1505,117.28634074166668,117.53905739166667,59.0,88.0
1506,117.61242674166667,117.68851347500001,47.0,99.0
1507,117.61242674166667,117.68851347500001,59.0,99.0
1508,117.77546974166667,117.87737161666668,47.0,93.0
1509,117.77546974166667,117.87737161666668,59.0,93.0
1510,117.28634074166668,117.92628451666667,63.0,63.0
1511,117.28634074166668,117.92764320833334,66.0,55.0
1512,117.28634074166668,117.933077975,75.0,93.0
1513,117.28634074166668,117.93851274166667,71.0,73.0
1514,117.28634074166668,117.93851274166667,78.0,79.0
1515,117.93851274166667,118.043132,38.0,99.0
1516,117.93851274166667,118.043132,50.0,99.0
1517,118.10155574166667,118.1898707,40.0,82.0
1518,118.10155574166667,118.1898707,52.0,82.0
1519,118.26459874166667,118.34747893333333,40.0,69.0
1520,118.26459874166667,118.34747893333333,52.0,69.0
1521,118.42764174166668,118.51867408333334,40.0,73.0
1522,118.42764174166668,118.51867408333334,52.0,73.0
1523,118.59068474166668,118.76595596666667,40.0,83.0
1524,118.59068474166668,118.76595596666667,52.0,79.0
1525,118.59068474166668,118.76595596666667,52.0,83.0
1526,118.91677074166667,118.98606401666667,40.0,93.0
1527,118.91677074166667,118.98606401666667,52.0,93.0
1528,119.07981374166667,119.15318309166668,40.0,92.0
1529,119.07981374166667,119.15318309166668,52.0,92.0
1530,119.24285674166667,119.29856310000001,52.0,97.0
1531,119.24285674166667,119.32301955000001,40.0,97.0
1532,118.59068474166668,119.34883469166667,67.0,75.0
1533,118.59068474166668,119.35019338333333,64.0,82.0
1534,118.59068474166668,119.37872590833334,71.0,78.0
1535,119.40589974166667,119.49557339166667,43.0,88.0
1536,119.40589974166667,119.49557339166667,55.0,88.0
1537,119.56894274166667,119.66269246666667,43.0,72.0
1538,119.56894274166667,119.66269246666667,55.0,72.0
1539,119.73198574166668,119.82981154166667,43.0,75.0
1540,119.73198574166668,119.82981154166667,55.0,75.0
1541,119.89502874166668,120.223832125,43.0,88.0
1542,120.22111474166667,120.223832125,43.0,92.0
1543,119.89502874166668,120.223832125,55.0,74.0
1544,119.89502874166668,120.223832125,55.0,88.0
1545,120.22111474166667,120.223832125,55.0,92.0
1546,120.38415774166667,120.48605961666667,43.0,82.0
1547,120.38415774166667,120.48605961666667,55.0,82.0
1548,120.54720074166667,120.64910261666667,43.0,97.0
1549,120.54720074166667,120.64910261666667,55.0,97.0
1550,119.89502874166668,120.68578729166667,74.0,86.0
1551,119.89502874166668,120.71431981666667,67.0,85.0
1552,119.89502874166668,120.73470019166668,62.0,75.0
1553,119.89502874166668,120.778178325,71.0,92.0
1554,120.71024374166667,120.814863,45.0,95.0
1555,120.71024374166667,120.814863,57.0,95.0
1556,120.87328674166667,120.97111254166667,45.0,85.0
1557,120.87328674166667,120.97111254166667,57.0,85.0
1558,121.03632974166668,121.12736208333334,45.0,78.0
1559,121.03632974166668,121.12736208333334,57.0,78.0
1560,121.19937274166668,121.44801331666667,45.0,90.0
1561,121.19937274166668,121.44801331666667,57.0,69.0
1562,121.19937274166668,121.44801331666667,57.0,90.0
1563,121.52545874166667,121.60154547500001,45.0,93.0
1564,121.52545874166667,121.60154547500001,57.0,93.0
1565,121.68850174166667,121.76322978333334,45.0,72.0
1566,121.68850174166667,121.76322978333334,57.0,72.0
1567,121.19937274166668,121.87328380833334,61.0,78.0
1568,121.85154474166667,121.88007726666667,57.0,95.0
1569,121.19937274166668,121.91676194166668,73.0,97.0
1570,121.19937274166668,121.92083801666668,64.0,58.0
1571,121.19937274166668,121.935783625,76.0,82.0
1572,121.19937274166668,121.943935775,69.0,78.0
1573,121.85154474166667,121.95072923333333,45.0,95.0
1574,122.01458774166667,122.11105485,47.0,88.0
1575,122.01458774166667,122.11105485,59.0,88.0
1576,122.17763074166668,122.27138046666667,47.0,79.0
1577,122.17763074166668,122.27138046666667,59.0,79.0
1578,122.34067374166668,122.43170608333334,47.0,76.0
1579,122.34067374166668,122.43170608333334,59.0,76.0
1580,122.50371674166668,122.75643339166668,47.0,88.0
1581,122.50371674166668,122.75643339166668,59.0,77.0
1582,122.50371674166668,122.75643339166668,59.0,88.0
1583,122.82980274166667,122.90588947500001,47.0,99.0
1584,122.82980274166667,122.90588947500001,59.0,99.0
1585,122.99284574166667,123.09474761666667,47.0,93.0
1586,122.99284574166667,123.09474761666667,59.0,93.0
1587,122.50371674166668,123.09882369166667,66.0,63.0
1588,122.50371674166668,123.1300736,75.0,96.0
1589,122.50371674166668,123.14501920833334,78.0,90.0
1590,122.50371674166668,123.15317135833334,71.0,78.0
1591,123.15588874166667,123.260508,38.0,99.0
1592,123.15588874166667,123.260508,50.0,99.0
1593,123.31893174166667,123.4072467,40.0,82.0
1594,123.31893174166667,123.4072467,52.0,82.0
1595,123.48197474166668,123.56485493333334,40.0,69.0
1596,123.48197474166668,123.56485493333334,52.0,69.0
1597,123.64501774166668,123.73605008333334,40.0,73.0
1598,123.64501774166668,123.73605008333334,52.0,73.0
1599,123.80806074166667,123.98333196666667,40.0,83.0
1600,123.80806074166667,123.98333196666667,52.0,76.0
1601,123.80806074166667,123.98333196666667,52.0,83.0
1602,124.13414674166667,124.20344001666668,40.0,93.0
1603,124.13414674166667,124.20344001666668,52.0,93.0
1604,124.29718974166667,124.37055909166668,40.0,92.0
1605,124.29718974166667,124.37055909166668,52.0,92.0
1606,123.80806074166667,124.40724376666667,59.0,74.0
1607,123.80806074166667,124.45208059166667,64.0,88.0
1608,123.80806074166667,124.4670262,67.0,89.0
1609,123.80806074166667,124.471102275,71.0,86.0
1610,124.46023274166667,124.54039555,40.0,97.0
1611,124.46023274166667,124.54039555,52.0,97.0
1612,124.62327574166667,124.71294939166667,43.0,88.0
1613,124.62327574166667,124.71294939166667,55.0,88.0
1614,124.78631874166668,124.88006846666667,43.0,72.0
1615,124.78631874166668,124.88006846666667,55.0,72.0
1616,124.94936174166668,125.04718754166667,43.0,75.0
1617,124.94936174166668,125.04718754166667,55.0,75.0
1618,125.11240474166667,125.441208125,43.0,88.0
1619,125.43849074166667,125.441208125,43.0,92.0
1620,125.11240474166667,125.441208125,55.0,62.0
1621,125.11240474166667,125.441208125,55.0,88.0
1622,125.43849074166667,125.441208125,55.0,92.0
1623,125.60153374166667,125.70343561666667,43.0,82.0
1624,125.60153374166667,125.70343561666667,55.0,82.0
1625,125.11240474166667,125.78631580833334,59.0,64.0
1626,125.11240474166667,125.79446795833334,74.0,78.0
1627,125.76457674166667,125.79854403333334,55.0,97.0
1628,125.11240474166667,125.79990272500001,62.0,57.0
1629,125.11240474166667,125.80262010833334,67.0,76.0
1630,125.11240474166667,125.81213095000001,71.0,82.0
1631,125.76457674166667,125.86647861666667,43.0,97.0
1632,125.92761974166667,126.032239,45.0,95.0
1633,125.92761974166667,126.032239,57.0,95.0
1634,126.09066274166668,126.18848854166667,45.0,85.0
1635,126.09066274166668,126.18848854166667,57.0,85.0
1636,126.25370574166668,126.34473808333334,45.0,78.0
1637,126.25370574166668,126.34473808333334,57.0,78.0
1638,126.41674874166667,126.66538931666668,45.0,90.0
1639,126.41674874166667,126.66538931666668,57.0,64.0
1640,126.41674874166667,126.66538931666668,57.0,90.0
1641,126.74283474166667,126.81892147500001,45.0,93.0
1642,126.74283474166667,126.81892147500001,57.0,93.0
1643,126.90587774166667,126.98060578333335,45.0,72.0
1644,126.90587774166667,126.98060578333335,57.0,72.0
1645,126.41674874166667,127.03767083333334,61.0,88.0
1646,126.41674874166667,127.05669251666667,64.0,66.0
1647,126.41674874166667,127.0594099,73.0,93.0
1648,126.41674874166667,127.06212728333334,76.0,77.0
1649,126.41674874166667,127.09065980833334,69.0,79.0
1650,127.06892074166667,127.16810523333334,45.0,95.0
1651,127.06892074166667,127.16810523333334,57.0,95.0
1652,127.23196374166668,127.32843085,47.0,88.0
1653,127.23196374166668,127.32843085,59.0,88.0
1654,127.39500674166668,127.48875646666667,47.0,79.0
1655,127.39500674166668,127.48875646666667,59.0,79.0
1656,127.55804974166668,127.64908208333334,47.0,76.0
1657,127.55804974166668,127.64908208333334,59.0,76.0
1658,127.72109274166667,127.97380939166668,47.0,88.0
1659,127.72109274166667,127.97380939166668,59.0,56.0
1660,127.72109274166667,127.97380939166668,59.0,88.0
1661,128.04717874166667,128.123265475,47.0,99.0
1662,128.04717874166667,128.123265475,59.0,99.0
1663,128.2102217416667,128.31212361666667,47.0,93.0
1664,128.2102217416667,128.31212361666667,59.0,93.0
1665,127.72109274166667,128.36103651666667,63.0,63.0
1666,127.72109274166667,128.36239520833334,66.0,55.0
1667,127.72109274166667,128.367829975,75.0,93.0
1668,127.72109274166667,128.37326474166667,71.0,73.0
1669,127.72109274166667,128.37326474166667,78.0,79.0
1670,128.37326474166667,128.47788400000002,38.0,99.0
1671,128.37326474166667,128.47788400000002,50.0,99.0
1672,128.53630774166666,128.6246227,40.0,82.0
1673,128.53630774166666,128.6246227,52.0,82.0
1674,128.69935074166668,128.78223093333335,40.0,69.0
1675,128.69935074166668,128.78223093333335,52.0,69.0
1676,128.86239374166666,128.95342608333334,40.0,73.0
1677,128.86239374166666,128.95342608333334,52.0,73.0
1678,129.02543674166668,129.20070796666667,40.0,83.0
1679,129.02543674166668,129.20070796666667,52.0,79.0
1680,129.02543674166668,129.20070796666667,52.0,83.0
1681,129.35152274166668,129.42081601666666,40.0,93.0
1682,129.35152274166668,129.42081601666666,52.0,93.0
1683,129.51456574166667,129.58793509166668,40.0,92.0
1684,129.51456574166667,129.58793509166668,52.0,92.0
1685,129.67760874166666,129.7333151,52.0,97.0
1686,129.67760874166666,129.75777155,40.0,97.0
1687,129.02543674166668,129.78358669166667,67.0,75.0
1688,129.02543674166668,129.78494538333334,64.0,82.0
1689,129.02543674166668,129.81347790833334,71.0,78.0
1690,129.84065174166668,129.93032539166668,43.0,88.0
1691,129.84065174166668,129.93032539166668,55.0,88.0
1692,130.00369474166666,130.09744446666667,43.0,72.0
1693,130.00369474166666,130.09744446666667,55.0,72.0
1694,130.16673774166668,130.26456354166666,43.0,75.0
1695,130.16673774166668,130.26456354166666,55.0,75.0
1696,130.32978074166667,130.658584125,43.0,88.0
1697,130.65586674166667,130.658584125,43.0,92.0
1698,130.32978074166667,130.658584125,55.0,74.0
1699,130.32978074166667,130.658584125,55.0,88.0
1700,130.65586674166667,130.658584125,55.0,92.0
1701,130.81890974166666,130.92081161666667,43.0,82.0
1702,130.81890974166666,130.92081161666667,55.0,82.0
1703,130.98195274166667,131.08385461666668,43.0,97.0
1704,130.98195274166667,131.08385461666668,55.0,97.0
1705,130.32978074166667,131.12053929166666,74.0,86.0
1706,130.32978074166667,131.14907181666666,67.0,85.0
1707,130.32978074166667,131.16945219166666,62.0,75.0
1708,130.32978074166667,131.212930325,71.0,92.0
1709,131.14499574166666,131.249615,45.0,95.0
1710,131.14499574166666,131.249615,57.0,95.0
1711,131.30803874166668,131.40586454166666,45.0,85.0
1712,131.30803874166668,131.40586454166666,57.0,85.0
1713,131.47108174166667,131.56211408333334,45.0,78.0
1714,131.47108174166667,131.56211408333334,57.0,78.0
1715,131.63412474166668,131.88276531666668,45.0,90.0
1716,131.63412474166668,131.88276531666668,57.0,69.0
1717,131.63412474166668,131.88276531666668,57.0,90.0
1718,131.96021074166669,132.036297475,45.0,93.0
1719,131.96021074166669,132.036297475,57.0,93.0
1720,132.12325374166667,132.19798178333335,45.0,72.0
1721,132.12325374166667,132.19798178333335,57.0,72.0
1722,131.63412474166668,132.30803580833333,61.0,78.0
1723,132.28629674166666,132.31482926666666,57.0,95.0
1724,131.63412474166668,132.35151394166667,73.0,97.0
1725,131.63412474166668,132.35559001666667,64.0,58.0
1726,131.63412474166668,132.370535625,76.0,82.0
1727,131.63412474166668,132.378687775,69.0,78.0
1728,132.28629674166666,132.38548123333334,45.0,95.0
1729,132.44933974166668,132.54580685000002,47.0,88.0
1730,132.44933974166668,132.54580685000002,59.0,88.0
1731,132.61238274166666,132.70613246666667,47.0,79.0
1732,132.61238274166666,132.70613246666667,59.0,79.0
1733,132.77542574166668,132.86645808333333,47.0,76.0
1734,132.77542574166668,132.86645808333333,59.0,76.0
1735,132.93846874166667,133.19118539166666,47.0,88.0
1736,132.93846874166667,133.19118539166666,59.0,77.0
1737,132.93846874166667,133.19118539166666,59.0,88.0
1738,133.26455474166667,133.340641475,47.0,99.0
1739,133.26455474166667,133.340641475,59.0,99.0
1740,133.42759774166666,133.52949961666667,47.0,93.0
1741,133.42759774166666,133.52949961666667,59.0,93.0
1742,132.93846874166667,133.53357569166667,66.0,63.0
1743,132.93846874166667,133.5648256,75.0,96.0
1744,132.93846874166667,133.57977120833334,78.0,90.0
1745,132.93846874166667,133.58792335833334,71.0,78.0
1746,133.59064074166668,133.69526000000002,38.0,99.0
1747,133.59064074166668,133.69526000000002,50.0,99.0
1748,133.75368374166666,133.8419987,40.0,82.0
1749,133.75368374166666,133.8419987,52.0,82.0
1750,133.91672674166668,133.99960693333333,40.0,69.0
1751,133.91672674166668,133.99960693333333,52.0,69.0
1752,134.07976974166667,134.17080208333334,40.0,73.0
1753,134.07976974166667,134.17080208333334,52.0,73.0
1754,134.24281274166668,134.41808396666667,40.0,83.0
1755,134.24281274166668,134.41808396666667,52.0,76.0
1756,134.24281274166668,134.41808396666667,52.0,83.0
1757,134.5688987416667,134.63819201666666,40.0,93.0
1758,134.5688987416667,134.63819201666666,52.0,93.0
1759,134.73194174166667,134.80531109166668,40.0,92.0
1760,134.73194174166667,134.80531109166668,52.0,92.0
1761,134.24281274166668,134.84199576666668,59.0,74.0
1762,134.24281274166668,134.88683259166666,64.0,88.0
1763,134.24281274166668,134.9017782,67.0,89.0
1764,134.24281274166668,134.905854275,71.0,86.0
1765,134.89498474166666,134.97514755,40.0,97.0
1766,134.89498474166666,134.97514755,52.0,97.0
1767,135.05802774166668,135.1477013916667,43.0,88.0
1768,135.05802774166668,135.1477013916667,55.0,88.0
1769,135.22107074166667,135.31482046666667,43.0,72.0
1770,135.22107074166667,135.31482046666667,55.0,72.0
1771,135.38411374166668,135.48193954166666,43.0,75.0
1772,135.38411374166668,135.48193954166666,55.0,75.0
1773,135.54715674166667,135.875960125,43.0,88.0
1774,135.87324274166667,135.875960125,43.0,92.0
1775,135.54715674166667,135.875960125,55.0,62.0
1776,135.54715674166667,135.875960125,55.0,88.0
1777,135.87324274166667,135.875960125,55.0,92.0
1778,136.03628574166666,136.13818761666667,43.0,82.0
1779,136.03628574166666,136.13818761666667,55.0,82.0
1780,135.54715674166667,136.22106780833334,59.0,64.0
1781,135.54715674166667,136.22921995833335,74.0,78.0
1782,136.19932874166668,136.23329603333335,55.0,97.0
1783,135.54715674166667,136.234654725,62.0,57.0
1784,135.54715674166667,136.23737210833335,67.0,76.0
1785,135.54715674166667,136.24688295,71.0,82.0
1786,136.19932874166668,136.3012306166667,43.0,97.0
1787,136.36237174166666,136.466991,45.0,95.0
1788,136.36237174166666,136.466991,57.0,95.0
1789,136.52541474166668,136.62324054166666,45.0,85.0
1790,136.52541474166668,136.62324054166666,57.0,85.0
1791,136.68845774166667,136.77949008333334,45.0,78.0
1792,136.68845774166667,136.77949008333334,57.0,78.0
1793,136.85150074166668,137.10014131666668,45.0,90.0
1794,136.85150074166668,137.10014131666668,57.0,64.0
1795,136.85150074166668,137.10014131666668,57.0,90.0
1796,137.1775867416667,137.253673475,45.0,93.0
1797,137.1775867416667,137.253673475,57.0,93.0
1798,137.34062974166667,137.41535778333335,45.0,72.0
1799,137.34062974166667,137.41535778333335,57.0,72.0
1800,136.85150074166668,137.47242283333333,61.0,88.0
1801,136.85150074166668,137.49144451666666,64.0,66.0
1802,136.85150074166668,137.4941619,73.0,93.0
1803,136.85150074166668,137.49687928333333,76.0,77.0
1804,136.85150074166668,137.52541180833333,69.0,79.0
1805,137.50367274166666,137.60285723333334,45.0,95.0
1806,137.50367274166666,137.60285723333334,57.0,95.0
1807,137.66671574166668,137.76318285,47.0,88.0
1808,137.66671574166668,137.76318285,59.0,88.0
1809,137.82975874166667,137.92350846666668,47.0,79.0
1810,137.82975874166667,137.92350846666668,59.0,79.0
1811,137.99280174166668,138.08383408333333,47.0,76.0
1812,137.99280174166668,138.08383408333333,59.0,76.0
1813,138.15584474166667,138.40856139166667,47.0,88.0
1814,138.15584474166667,138.40856139166667,59.0,56.0
1815,138.15584474166667,138.40856139166667,59.0,88.0
1816,138.48193074166667,138.558017475,47.0,99.0
1817,138.48193074166667,138.558017475,59.0,99.0
1818,138.64497374166666,138.74687561666667,47.0,93.0
1819,138.64497374166666,138.74687561666667,59.0,93.0
1820,138.15584474166667,138.79578851666668,63.0,63.0
1821,138.15584474166667,138.79714720833334,66.0,55.0
1822,138.15584474166667,138.802581975,75.0,93.0
1823,138.15584474166667,138.80801674166668,71.0,73.0
1824,138.15584474166667,138.80801674166668,78.0,79.0
1825,139.29714574166667,139.60828613333334,48.0,86.0
1826,139.46018874166668,140.04714354166668,64.0,93.0
1827,139.46018874166668,140.05257830833335,60.0,96.0
1828,139.46018874166668,140.05665438333335,55.0,95.0
1829,139.94931774166668,140.27947981666668,48.0,59.0
1830,140.11236074166666,140.55393553333334,60.0,79.0
1831,140.11236074166666,140.57431590833335,55.0,48.0
1832,140.11236074166666,140.60284843333335,64.0,83.0
1833,140.43844674166667,140.83518470833334,48.0,85.0
1834,140.9275757416667,141.12186865,48.0,74.0
1835,140.76453274166667,141.13273818333334,60.0,97.0
1836,138.80801674166668,141.27132473333333,36.0,95.0
1837,140.76453274166667,141.38817221666667,64.0,95.0
1838,139.13410274166668,141.40447651666668,43.0,65.0
1839,141.09061874166667,141.42213950833334,55.0,93.0
1840,141.25366174166666,141.48735670833335,60.0,100.0
1841,142.06887674166668,142.64767939166668,60.0,83.0
1842,142.06887674166668,142.64767939166668,64.0,78.0
1843,142.06887674166668,142.66262500000002,55.0,92.0
1844,142.55800574166668,142.83653753333334,48.0,83.0
1845,142.72104874166666,142.90447211666668,64.0,93.0
1846,142.72104874166666,143.23055811666669,60.0,97.0
1847,143.04713474166667,143.39360111666667,48.0,97.0
1848,141.41670474166668,143.62593739166667,36.0,90.0
1849,141.74279074166668,143.65990468333334,43.0,64.0
1850,143.37322074166667,143.71153496666668,60.0,107.0
1851,143.5362637416667,143.73735010833335,48.0,69.0
1852,143.69930674166667,143.92620825,55.0,96.0
1853,143.37322074166667,143.966969,64.0,97.0
1854,143.86234974166666,144.02403405,60.0,93.0
1855,144.67756474166669,145.24142178333335,71.0,88.0
1856,144.67756474166669,145.24821524166668,67.0,96.0
1857,144.67756474166669,145.2645195416667,62.0,93.0
1858,145.16669374166668,145.348758425,55.0,83.0
1859,145.32973674166666,145.37049749166667,62.0,47.0
1860,145.32973674166666,145.55663825000002,67.0,78.0
1861,145.32973674166666,145.5647904,71.0,78.0
1862,145.65582274166667,146.04304986666668,62.0,95.0
1863,146.14495174166666,146.26451660833334,55.0,92.0
1864,144.35147874166668,146.286255675,50.0,88.0
1865,144.02539274166668,146.32429904166668,43.0,75.0
1866,146.47103774166666,146.61370036666668,62.0,100.0
1867,146.63408074166668,147.0321774,66.0,107.0
1868,146.63408074166668,147.03897085833333,62.0,99.0
1869,146.96016674166668,147.411252375,54.0,70.0
1870,147.2862527416667,147.56750191666669,62.0,100.0
1871,147.2862527416667,147.68163201666667,66.0,107.0
1872,147.61233874166666,147.8650553916667,57.0,34.0
1873,147.77538174166668,148.04168530833334,54.0,92.0
1874,147.93842474166667,148.316141025,62.0,112.0
1875,147.93842474166667,148.35961915833335,66.0,107.0
1876,148.26451074166667,148.601466275,54.0,100.0
1877,148.75363974166666,148.88407414166667,54.0,97.0
1878,146.63408074166668,148.92619358333334,42.0,96.0
1879,148.59059674166667,149.15309509166667,66.0,127.0
1880,148.91668274166668,149.22782313333335,62.0,127.0
1881,149.07972574166666,149.25635565833335,57.0,102.0
1882,149.8949407416667,150.41939572500002,64.0,93.0
1883,149.8949407416667,150.43026525833335,60.0,96.0
1884,150.38406974166668,150.61640601666667,48.0,81.0
1885,149.8949407416667,150.63678639166667,55.0,72.0
1886,150.71015574166668,150.89357911666667,48.0,93.0
1887,150.54711274166667,150.94792678333334,64.0,90.0
1888,150.87319874166667,151.21423035,55.0,82.0
1889,151.0362417416667,151.28759970000002,48.0,92.0
1890,149.24276874166668,151.66531598333333,36.0,75.0
1891,149.56885474166668,151.805261225,43.0,43.0
1892,151.52537074166668,152.2019991916667,55.0,99.0
1893,151.19928474166667,152.22509695,60.0,85.0
1894,151.19928474166667,152.25091209166666,64.0,99.0
1895,152.34058574166667,152.7060738,48.0,89.0
1896,152.50362874166666,153.05525755833335,64.0,93.0
1897,152.50362874166666,153.06069232500002,60.0,100.0
1898,152.50362874166666,153.09058354166666,55.0,90.0
1899,152.99275774166668,153.27808299166668,48.0,85.0
1900,153.15580074166667,153.6843318,60.0,92.0
1901,153.15580074166667,153.6843318,64.0,90.0
1902,153.48188674166667,153.82835311666668,48.0,90.0
1903,152.17754274166668,154.03215686666667,43.0,62.0
1904,151.85145674166668,154.06068939166667,36.0,77.0
1905,153.97101574166666,154.15443911666668,48.0,88.0
1906,153.80797274166667,154.15443911666668,60.0,96.0
1907,154.13405874166668,154.39492754166668,55.0,92.0
1908,153.80797274166667,154.44248175,64.0,92.0
1909,154.29710174166667,154.45335128333335,60.0,96.0
1910,155.11231674166666,155.69927154166666,67.0,96.0
1911,155.60144574166668,155.79709734166667,55.0,86.0
1912,155.11231674166666,155.93840127500002,62.0,95.0
1913,155.92753174166668,156.19383530833335,55.0,89.0
1914,156.09057474166667,156.49954093333335,62.0,74.0
1915,154.78623074166669,156.51041046666668,50.0,57.0
1916,154.46014474166668,156.56747551666666,43.0,81.0
1917,156.41666074166667,156.78758356666668,67.0,100.0
1918,156.74274674166668,157.06883274166668,62.0,102.0
1919,156.90578974166667,157.06883274166668,67.0,90.0
1920,155.76448874166667,157.06883274166668,71.0,100.0
1921,157.128615175,157.31747331666668,38.0,55.0
1922,157.128615175,157.31883200833335,50.0,76.0
1923,157.128615175,157.32562546666668,45.0,58.0
1924,157.128615175,157.34736453333335,66.0,100.0
1925,157.128615175,157.35415799166668,62.0,102.0
1926,157.128615175,157.37453836666668,57.0,92.0
1927,157.454701175,157.65307015833335,38.0,56.0
1928,157.454701175,157.66801576666668,50.0,71.0
1929,157.454701175,157.67209184166668,62.0,90.0
1930,157.454701175,157.68024399166669,45.0,66.0
1931,157.454701175,157.68296137500002,57.0,72.0
1932,157.454701175,157.6883961416667,66.0,88.0
1933,157.780787175,157.96556924166669,38.0,61.0
1934,157.780787175,157.96964531666669,50.0,68.0
1935,157.780787175,157.98459092500002,45.0,64.0
1936,157.780787175,157.9900256916667,57.0,68.0
1937,157.780787175,157.9900256916667,62.0,72.0
1938,157.780787175,158.00632999166666,66.0,73.0
1939,158.106873175,158.302524775,50.0,88.0
1940,158.106873175,158.33649206666666,45.0,61.0
1941,158.106873175,158.3473616,57.0,69.0
1942,158.106873175,158.3473616,62.0,70.0
1943,158.106873175,158.351437675,38.0,63.0
1944,158.106873175,158.3636659,66.0,72.0
1945,158.432959175,158.612306475,50.0,95.0
1946,158.432959175,158.620458625,45.0,69.0
1947,158.432959175,158.628610775,38.0,66.0
1948,158.432959175,158.65034984166667,62.0,96.0
1949,158.432959175,158.669371525,66.0,100.0
1950,158.432959175,158.6734476,57.0,85.0
1951,158.759045175,158.77263209166668,36.0,58.0
1952,158.759045175,158.95197939166667,38.0,53.0
1953,158.759045175,158.966925,50.0,88.0
1954,158.759045175,158.98051191666667,45.0,82.0
1955,158.759045175,158.98866406666667,62.0,93.0
1956,158.759045175,158.99817490833334,57.0,72.0
1957,158.759045175,159.003609675,66.0,95.0
1958,159.08513117500001,159.24681548333334,50.0,83.0
1959,159.08513117500001,159.25089155833334,45.0,69.0
1960,159.08513117500001,159.2604024,38.0,62.0
1961,159.08513117500001,159.272630625,62.0,96.0
1962,159.08513117500001,159.29844576666667,57.0,86.0
1963,159.08513117500001,159.305239225,66.0,96.0
1964,159.41121717500002,159.60415139166668,50.0,93.0
1965,159.41121717500002,159.61230354166668,38.0,69.0
1966,159.41121717500002,159.61773830833334,62.0,93.0
1967,159.41121717500002,159.623173075,45.0,83.0
1968,159.41121717500002,159.62453176666668,57.0,82.0
1969,159.41121717500002,159.62860784166668,66.0,97.0
1970,159.737303175,159.95741122500002,50.0,96.0
1971,159.737303175,159.96420468333335,62.0,102.0
1972,159.737303175,159.97235683333335,45.0,77.0
1973,159.737303175,159.97235683333335,57.0,99.0
1974,159.737303175,159.98050898333335,66.0,107.0
1975,159.737303175,159.98458505833335,38.0,77.0
1976,162.28620874166668,162.390828,38.0,99.0
1977,162.28620874166668,162.390828,50.0,99.0
1978,162.44925174166667,162.5375667,40.0,82.0
1979,162.44925174166667,162.5375667,52.0,82.0
1980,162.6122947416667,162.69517493333333,40.0,69.0
1981,162.6122947416667,162.69517493333333,52.0,69.0
1982,162.77533774166668,162.86637008333335,40.0,73.0
1983,162.77533774166668,162.86637008333335,52.0,73.0
1984,162.93838074166666,163.11365196666668,40.0,83.0
1985,162.93838074166666,163.11365196666668,52.0,79.0
1986,162.93838074166666,163.11365196666668,52.0,83.0
1987,163.26446674166667,163.33376001666667,40.0,93.0
1988,163.26446674166667,163.33376001666667,52.0,93.0
1989,163.42750974166668,163.50087909166666,40.0,92.0
1990,163.42750974166668,163.50087909166666,52.0,92.0
1991,163.59055274166667,163.6462591,52.0,97.0
1992,163.59055274166667,163.67071555,40.0,97.0
1993,163.7535957416667,163.84326939166667,43.0,88.0
1994,163.7535957416667,163.84326939166667,55.0,88.0
1995,163.91663874166667,164.01038846666668,43.0,72.0
1996,163.91663874166667,164.01038846666668,55.0,72.0
1997,164.07968174166666,164.17750754166667,43.0,75.0
1998,164.07968174166666,164.17750754166667,55.0,75.0
1999,164.24272474166668,164.57152812500001,43.0,88.0
2000,164.56881074166668,164.57152812500001,43.0,92.0
2001,164.24272474166668,164.57152812500001,55.0,74.0
2002,164.24272474166668,164.57152812500001,55.0,88.0
2003,164.56881074166668,164.57152812500001,55.0,92.0
2004,164.73185374166667,164.83375561666668,43.0,82.0
2005,164.73185374166667,164.83375561666668,55.0,82.0
2006,164.89489674166668,164.99679861666667,43.0,97.0
2007,164.89489674166668,164.99679861666667,55.0,97.0
2008,165.05793974166667,165.16255900000002,45.0,95.0
2009,165.05793974166667,165.16255900000002,57.0,95.0
2010,165.2209827416667,165.31880854166667,45.0,85.0
2011,165.2209827416667,165.31880854166667,57.0,85.0
2012,165.38402574166668,165.47505808333335,45.0,78.0
2013,165.38402574166668,165.47505808333335,57.0,78.0
2014,165.54706874166666,165.7957093166667,45.0,90.0
2015,165.54706874166666,165.7957093166667,57.0,69.0
2016,165.54706874166666,165.7957093166667,57.0,90.0
2017,165.87315474166667,165.949241475,45.0,93.0
2018,165.87315474166667,165.949241475,57.0,93.0
2019,166.03619774166668,166.11092578333333,45.0,72.0
2020,166.03619774166668,166.11092578333333,57.0,72.0
2021,166.19924074166667,166.22777326666667,57.0,95.0
2022,166.19924074166667,166.29842523333335,45.0,95.0
2023,166.3622837416667,166.45875085,47.0,88.0
2024,166.3622837416667,166.45875085,59.0,88.0
2025,166.52532674166667,166.61907646666668,47.0,79.0
2026,166.52532674166667,166.61907646666668,59.0,79.0
2027,166.68836974166666,166.77940208333334,47.0,76.0
2028,166.68836974166666,166.77940208333334,59.0,76.0
2029,166.85141274166668,167.10412939166667,47.0,88.0
2030,166.85141274166668,167.10412939166667,59.0,77.0
2031,166.85141274166668,167.10412939166667,59.0,88.0
2032,167.17749874166668,167.253585475,47.0,99.0
2033,167.17749874166668,167.253585475,59.0,99.0
2034,167.34054174166667,167.44244361666668,47.0,93.0
2035,167.34054174166667,167.44244361666668,59.0,93.0
2036,167.50358474166669,167.608204,38.0,99.0
2037,167.50358474166669,167.608204,50.0,99.0
2038,167.66662774166667,167.75494270000002,40.0,82.0
2039,167.66662774166667,167.75494270000002,52.0,82.0
2040,167.82967074166666,167.91255093333334,40.0,69.0
2041,167.82967074166666,167.91255093333334,52.0,69.0
2042,167.99271374166668,168.08374608333335,40.0,73.0
2043,167.99271374166668,168.08374608333335,52.0,73.0
2044,168.15575674166666,168.33102796666668,40.0,83.0
2045,168.15575674166666,168.33102796666668,52.0,76.0
2046,168.15575674166666,168.33102796666668,52.0,83.0
2047,168.48184274166667,168.55113601666667,40.0,93.0
2048,168.48184274166667,168.55113601666667,52.0,93.0
2049,168.64488574166668,168.71825509166666,40.0,92.0
2050,168.64488574166668,168.71825509166666,52.0,92.0
2051,168.80792874166667,168.88809155,40.0,97.0
2052,168.80792874166667,168.88809155,52.0,97.0
2053,168.9709717416667,169.06064539166667,43.0,88.0
2054,168.9709717416667,169.06064539166667,55.0,88.0
2055,169.13401474166668,169.22776446666668,43.0,72.0
2056,169.13401474166668,169.22776446666668,55.0,72.0
2057,169.29705774166666,169.39488354166667,43.0,75.0
2058,169.29705774166666,169.39488354166667,55.0,75.0
2059,169.46010074166668,169.78890412500002,43.0,88.0
2060,169.78618674166668,169.78890412500002,43.0,92.0
2061,169.46010074166668,169.78890412500002,55.0,62.0
2062,169.46010074166668,169.78890412500002,55.0,88.0
2063,169.78618674166668,169.78890412500002,55.0,92.0
2064,169.94922974166667,170.05113161666668,43.0,82.0
2065,169.94922974166667,170.05113161666668,55.0,82.0
2066,170.1122727416667,170.14624003333333,55.0,97.0
2067,170.1122727416667,170.21417461666667,43.0,97.0
2068,170.27531574166667,170.37993500000002,45.0,95.0
2069,170.27531574166667,170.37993500000002,57.0,95.0
2070,170.43835874166666,170.53618454166667,45.0,85.0
2071,170.43835874166666,170.53618454166667,57.0,85.0
2072,170.60140174166668,170.69243408333335,45.0,78.0
2073,170.60140174166668,170.69243408333335,57.0,78.0
2074,170.76444474166667,171.01308531666666,45.0,90.0
2075,170.76444474166667,171.01308531666666,57.0,64.0
2076,170.76444474166667,171.01308531666666,57.0,90.0
2077,171.09053074166667,171.166617475,45.0,93.0
2078,171.09053074166667,171.166617475,57.0,93.0
2079,171.25357374166668,171.32830178333333,45.0,72.0
2080,171.25357374166668,171.32830178333333,57.0,72.0
2081,171.41661674166667,171.51580123333335,45.0,95.0
2082,171.41661674166667,171.51580123333335,57.0,95.0
2083,171.5796597416667,171.67612685,47.0,88.0
2084,171.5796597416667,171.67612685,59.0,88.0
2085,171.74270274166668,171.83645246666669,47.0,79.0
2086,171.74270274166668,171.83645246666669,59.0,79.0
2087,171.90574574166666,171.99677808333334,47.0,76.0
2088,171.90574574166666,171.99677808333334,59.0,76.0
2089,172.06878874166668,172.32150539166668,47.0,88.0
2090,172.06878874166668,172.32150539166668,59.0,56.0
2091,172.06878874166668,172.32150539166668,59.0,88.0
2092,172.39487474166668,172.470961475,47.0,99.0
2093,172.39487474166668,172.470961475,59.0,99.0
2094,172.55791774166667,172.65981961666668,47.0,93.0
2095,172.55791774166667,172.65981961666668,59.0,93.0
2096,172.7209607416667,172.82558,38.0,99.0
2097,172.7209607416667,172.82558,50.0,99.0
2098,172.88400374166667,172.97231870000002,40.0,82.0
2099,172.88400374166667,172.97231870000002,52.0,82.0
2100,173.04704674166666,173.12992693333334,40.0,69.0
2101,173.04704674166666,173.12992693333334,52.0,69.0
2102,173.21008974166668,173.30112208333335,40.0,73.0
2103,173.21008974166668,173.30112208333335,52.0,73.0
2104,173.37313274166667,173.54840396666668,40.0,83.0
2105,173.37313274166667,173.54840396666668,52.0,79.0
2106,173.37313274166667,173.54840396666668,52.0,83.0
2107,173.69921874166667,173.76851201666668,40.0,93.0
2108,173.69921874166667,173.76851201666668,52.0,93.0
2109,173.86226174166669,173.93563109166666,40.0,92.0
2110,173.86226174166669,173.93563109166666,52.0,92.0
2111,174.02530474166667,174.0810111,52.0,97.0
2112,174.02530474166667,174.10546755000001,40.0,97.0
2113,174.18834774166666,174.27802139166667,43.0,88.0
2114,174.18834774166666,174.27802139166667,55.0,88.0
2115,174.35139074166668,174.4451404666667,43.0,72.0
2116,174.35139074166668,174.4451404666667,55.0,72.0
2117,174.51443374166666,174.61225954166667,43.0,75.0
2118,174.51443374166666,174.61225954166667,55.0,75.0
2119,174.67747674166668,175.00628012500002,43.0,88.0
2120,175.00356274166668,175.00628012500002,43.0,92.0
2121,174.67747674166668,175.00628012500002,55.0,74.0
2122,174.67747674166668,175.00628012500002,55.0,88.0
2123,175.00356274166668,175.00628012500002,55.0,92.0
2124,175.16660574166667,175.26850761666668,43.0,82.0
2125,175.16660574166667,175.26850761666668,55.0,82.0
2126,175.3296487416667,175.43155061666667,43.0,97.0
2127,175.3296487416667,175.43155061666667,55.0,97.0
2128,175.49269174166668,175.59731100000002,45.0,95.0
2129,175.49269174166668,175.59731100000002,57.0,95.0
2130,175.65573474166666,175.75356054166667,45.0,85.0
2131,175.65573474166666,175.75356054166667,57.0,85.0
2132,175.81877774166668,175.90981008333335,45.0,78.0
2133,175.81877774166668,175.90981008333335,57.0,78.0
2134,175.98182074166667,176.23046131666666,45.0,90.0
2135,175.98182074166667,176.23046131666666,57.0,69.0
2136,175.98182074166667,176.23046131666666,57.0,90.0
2137,176.30790674166667,176.383993475,45.0,93.0
2138,176.30790674166667,176.383993475,57.0,93.0
2139,176.4709497416667,176.54567778333333,45.0,72.0
2140,176.4709497416667,176.54567778333333,57.0,72.0
2141,176.63399274166667,176.66252526666668,57.0,95.0
2142,176.63399274166667,176.73317723333335,45.0,95.0
2143,176.79703574166666,176.89350285,47.0,88.0
2144,176.79703574166666,176.89350285,59.0,88.0
2145,176.96007874166668,177.0538284666667,47.0,79.0
2146,176.96007874166668,177.0538284666667,59.0,79.0
2147,177.12312174166667,177.21415408333334,47.0,76.0
2148,177.12312174166667,177.21415408333334,59.0,76.0
2149,177.28616474166668,177.53888139166668,47.0,88.0
2150,177.28616474166668,177.53888139166668,59.0,77.0
2151,177.28616474166668,177.53888139166668,59.0,88.0
2152,177.61225074166668,177.688337475,47.0,99.0
2153,177.61225074166668,177.688337475,59.0,99.0
2154,177.77529374166667,177.87719561666668,47.0,93.0
2155,177.77529374166667,177.87719561666668,59.0,93.0
2156,177.9383367416667,178.042956,38.0,99.0
2157,177.9383367416667,178.042956,50.0,99.0
2158,178.10137974166668,178.18969470000002,40.0,82.0
2159,178.10137974166668,178.18969470000002,52.0,82.0
2160,178.26442274166666,178.34730293333334,40.0,69.0
2161,178.26442274166666,178.34730293333334,52.0,69.0
2162,178.42746574166668,178.51849808333336,40.0,73.0
2163,178.42746574166668,178.51849808333336,52.0,73.0
2164,178.59050874166667,178.76577996666668,40.0,83.0
2165,178.59050874166667,178.76577996666668,52.0,76.0
2166,178.59050874166667,178.76577996666668,52.0,83.0
2167,178.91659474166667,178.98588801666668,40.0,93.0
2168,178.91659474166667,178.98588801666668,52.0,93.0
2169,179.0796377416667,179.15300709166667,40.0,92.0
2170,179.0796377416667,179.15300709166667,52.0,92.0
2171,179.24268074166667,179.32284355000002,40.0,97.0
2172,179.24268074166667,179.32284355000002,52.0,97.0
2173,179.40572374166666,179.49539739166667,43.0,88.0
2174,179.40572374166666,179.49539739166667,55.0,88.0
2175,179.56876674166668,179.6625164666667,43.0,72.0
2176,179.56876674166668,179.6625164666667,55.0,72.0
2177,179.73180974166667,179.82963554166668,43.0,75.0
2178,179.73180974166667,179.82963554166668,55.0,75.0
2179,179.89485274166668,180.22365612500002,43.0,88.0
2180,180.22093874166669,180.22365612500002,43.0,92.0
2181,179.89485274166668,180.22365612500002,55.0,62.0
2182,179.89485274166668,180.22365612500002,55.0,88.0
2183,180.22093874166669,180.22365612500002,55.0,92.0
2184,180.38398174166667,180.48588361666668,43.0,82.0
2185,180.38398174166667,180.48588361666668,55.0,82.0
2186,180.54702474166666,180.58099203333333,55.0,97.0
2187,180.54702474166666,180.64892661666667,43.0,97.0
2188,180.71006774166668,180.81468700000002,45.0,95.0
2189,180.71006774166668,180.81468700000002,57.0,95.0
2190,180.87311074166666,180.97093654166667,45.0,85.0
2191,180.87311074166666,180.97093654166667,57.0,85.0
2192,181.03615374166668,181.12718608333333,45.0,78.0
2193,181.03615374166668,181.12718608333333,57.0,78.0
2194,181.19919674166667,181.44783731666666,45.0,90.0
2195,181.19919674166667,181.44783731666666,57.0,64.0
2196,181.19919674166667,181.44783731666666,57.0,90.0
2197,181.52528274166667,181.601369475,45.0,93.0
2198,181.52528274166667,181.601369475,57.0,93.0
2199,181.6883257416667,181.76305378333333,45.0,72.0
2200,181.6883257416667,181.76305378333333,57.0,72.0
2201,181.85136874166668,181.95055323333335,45.0,95.0
2202,181.85136874166668,181.95055323333335,57.0,95.0
2203,182.01441174166666,182.11087885,47.0,88.0
2204,182.01441174166666,182.11087885,59.0,88.0
2205,182.17745474166668,182.2712044666667,47.0,79.0
2206,182.17745474166668,182.2712044666667,59.0,79.0
2207,182.34049774166667,182.43153008333334,47.0,76.0
2208,182.34049774166667,182.43153008333334,59.0,76.0
2209,182.50354074166668,182.75625739166668,47.0,88.0
2210,182.50354074166668,182.75625739166668,59.0,56.0
2211,182.50354074166668,182.75625739166668,59.0,88.0
2212,182.8296267416667,182.905713475,47.0,99.0
2213,182.8296267416667,182.905713475,59.0,99.0
2214,182.99266974166667,183.09457161666668,47.0,93.0
2215,182.99266974166667,183.09457161666668,59.0,93.0
2216,183.15571274166666,184.731795075,52.0,52.0
2217,183.15571274166666,184.83097956666668,40.0,48.0
2218,183.15571274166666,185.12717435000002,59.0,58.0
2219,183.15571274166666,185.1407612666667,64.0,64.0
2220,183.15571274166666,185.1611416416667,67.0,63.0
2221,185.76440074166666,187.39211335833335,61.0,52.0
2222,185.76440074166666,187.43559149166668,64.0,58.0
2223,185.76440074166666,187.57553673333334,57.0,58.0
2224,185.76440074166666,187.71819935833335,45.0,61.0
2225,187.72091674166668,188.15433938333334,57.0,102.0
2226,188.0470027416667,188.2494478,55.0,82.0
2227,188.21004574166668,188.33912145000002,54.0,58.0
2228,189.02526074166667,190.01574696666668,55.0,45.0
2229,188.37308874166666,190.04427949166669,52.0,68.0
2230,189.02526074166667,190.05514902500002,59.0,38.0
2231,188.37308874166666,190.1244423,40.0,75.0
2232,190.98177674166666,193.55649745,61.0,54.0
2233,190.98177674166666,193.55785614166666,52.0,51.0
2234,190.98177674166666,193.57008436666666,45.0,38.0
2235,190.98177674166666,193.57416044166666,57.0,56.0
2236,190.98177674166666,193.58367128333333,64.0,59.0
2237,193.59046474166666,193.695084,38.0,99.0
2238,193.59046474166666,193.695084,50.0,99.0
2239,193.75350774166668,193.84182270000002,40.0,82.0
2240,193.75350774166668,193.84182270000002,52.0,82.0
2241,193.91655074166667,193.99943093333334,40.0,69.0
2242,193.91655074166667,193.99943093333334,52.0,69.0
2243,194.07959374166668,194.17062608333333,40.0,73.0
2244,194.07959374166668,194.17062608333333,52.0,73.0
2245,194.24263674166667,194.4179079666667,40.0,83.0
2246,194.24263674166667,194.4179079666667,52.0,79.0
2247,194.24263674166667,194.4179079666667,52.0,83.0
2248,194.56872274166668,194.63801601666668,40.0,93.0
2249,194.56872274166668,194.63801601666668,52.0,93.0
2250,194.73176574166666,194.80513509166667,40.0,92.0
2251,194.73176574166666,194.80513509166667,52.0,92.0
2252,194.89480874166668,194.95051510000002,52.0,97.0
2253,194.89480874166668,194.97497155000002,40.0,97.0
2254,195.05785174166667,195.14752539166668,43.0,88.0
2255,195.05785174166667,195.14752539166668,55.0,88.0
2256,195.22089474166668,195.31464446666666,43.0,72.0
2257,195.22089474166668,195.31464446666666,55.0,72.0
2258,195.38393774166667,195.48176354166668,43.0,75.0
2259,195.38393774166667,195.48176354166668,55.0,75.0
2260,195.5469807416667,195.875784125,43.0,88.0
2261,195.87306674166666,195.875784125,43.0,92.0
2262,195.5469807416667,195.875784125,55.0,74.0
2263,195.5469807416667,195.875784125,55.0,88.0
2264,195.87306674166666,195.875784125,55.0,92.0
2265,196.03610974166668,196.1380116166667,43.0,82.0
2266,196.03610974166668,196.1380116166667,55.0,82.0
2267,196.19915274166667,196.30105461666668,43.0,97.0
2268,196.19915274166667,196.30105461666668,55.0,97.0
2269,196.36219574166668,196.466815,45.0,95.0
2270,196.36219574166668,196.466815,57.0,95.0
2271,196.52523874166667,196.62306454166668,45.0,85.0
2272,196.52523874166667,196.62306454166668,57.0,85.0
2273,196.68828174166669,196.77931408333333,45.0,78.0
2274,196.68828174166669,196.77931408333333,57.0,78.0
2275,196.85132474166667,197.09996531666667,45.0,90.0
2276,196.85132474166667,197.09996531666667,57.0,69.0
2277,196.85132474166667,197.09996531666667,57.0,90.0
2278,197.17741074166668,197.25349747500002,45.0,93.0
2279,197.17741074166668,197.25349747500002,57.0,93.0
2280,197.34045374166666,197.41518178333334,45.0,72.0
2281,197.34045374166666,197.41518178333334,57.0,72.0
2282,197.50349674166668,197.53202926666668,57.0,95.0
2283,197.50349674166668,197.60268123333333,45.0,95.0
2284,197.66653974166667,197.76300685,47.0,88.0
2285,197.66653974166667,197.76300685,59.0,88.0
2286,197.82958274166668,197.92333246666666,47.0,79.0
2287,197.82958274166668,197.92333246666666,59.0,79.0
2288,197.99262574166667,198.08365808333335,47.0,76.0
2289,197.99262574166667,198.08365808333335,59.0,76.0
2290,198.1556687416667,198.40838539166668,47.0,88.0
2291,198.1556687416667,198.40838539166668,59.0,77.0
2292,198.1556687416667,198.40838539166668,59.0,88.0
2293,198.48175474166666,198.557841475,47.0,99.0
2294,198.48175474166666,198.557841475,59.0,99.0
2295,198.64479774166668,198.7466996166667,47.0,93.0
2296,198.64479774166668,198.7466996166667,59.0,93.0
2297,198.80784074166667,198.91246,38.0,99.0
2298,198.80784074166667,198.91246,50.0,99.0
2299,198.97088374166668,199.0591987,40.0,82.0
2300,198.97088374166668,199.0591987,52.0,82.0
2301,199.13392674166667,199.21680693333334,40.0,69.0
2302,199.13392674166667,199.21680693333334,52.0,69.0
2303,199.2969697416667,199.38800208333333,40.0,73.0
2304,199.2969697416667,199.38800208333333,52.0,73.0
2305,199.46001274166667,199.63528396666666,40.0,83.0
2306,199.46001274166667,199.63528396666666,52.0,76.0
2307,199.46001274166667,199.63528396666666,52.0,83.0
2308,199.78609874166668,199.85539201666668,40.0,93.0
2309,199.78609874166668,199.85539201666668,52.0,93.0
2310,199.94914174166666,200.02251109166667,40.0,92.0
2311,199.94914174166666,200.02251109166667,52.0,92.0
2312,200.11218474166668,200.19234755000002,40.0,97.0
2313,200.11218474166668,200.19234755000002,52.0,97.0
2314,200.27522774166667,200.36490139166668,43.0,88.0
2315,200.27522774166667,200.36490139166668,55.0,88.0
2316,200.43827074166668,200.53202046666667,43.0,72.0
2317,200.43827074166668,200.53202046666667,55.0,72.0
2318,200.60131374166667,200.69913954166668,43.0,75.0
2319,200.60131374166667,200.69913954166668,55.0,75.0
2320,200.7643567416667,201.093160125,43.0,88.0
2321,201.09044274166666,201.093160125,43.0,92.0
2322,200.7643567416667,201.093160125,55.0,62.0
2323,200.7643567416667,201.093160125,55.0,88.0
2324,201.09044274166666,201.093160125,55.0,92.0
2325,201.25348574166668,201.3553876166667,43.0,82.0
2326,201.25348574166668,201.3553876166667,55.0,82.0
2327,201.41652874166667,201.45049603333334,55.0,97.0
2328,201.41652874166667,201.51843061666668,43.0,97.0
2329,201.57957174166668,201.684191,45.0,95.0
2330,201.57957174166668,201.684191,57.0,95.0
2331,201.74261474166667,201.84044054166668,45.0,85.0
2332,201.74261474166667,201.84044054166668,57.0,85.0
2333,201.9056577416667,201.99669008333333,45.0,78.0
2334,201.9056577416667,201.99669008333333,57.0,78.0
2335,202.06870074166667,202.31734131666667,45.0,90.0
2336,202.06870074166667,202.31734131666667,57.0,64.0
2337,202.06870074166667,202.31734131666667,57.0,90.0
2338,202.39478674166668,202.47087347500002,45.0,93.0
2339,202.39478674166668,202.47087347500002,57.0,93.0
2340,202.55782974166667,202.63255778333334,45.0,72.0
2341,202.55782974166667,202.63255778333334,57.0,72.0
2342,202.72087274166668,202.82005723333333,45.0,95.0
2343,202.72087274166668,202.82005723333333,57.0,95.0
2344,202.88391574166667,202.98038285,47.0,88.0
2345,202.88391574166667,202.98038285,59.0,88.0
2346,203.04695874166669,203.14070846666667,47.0,79.0
2347,203.04695874166669,203.14070846666667,59.0,79.0
2348,203.21000174166667,203.30103408333335,47.0,76.0
2349,203.21000174166667,203.30103408333335,59.0,76.0
2350,203.3730447416667,203.62576139166669,47.0,88.0
2351,203.3730447416667,203.62576139166669,59.0,56.0
2352,203.3730447416667,203.62576139166669,59.0,88.0
2353,203.69913074166666,203.775217475,47.0,99.0
2354,203.69913074166666,203.775217475,59.0,99.0
2355,203.86217374166668,203.96407561666666,47.0,93.0
2356,203.86217374166668,203.96407561666666,59.0,93.0
2357,204.02521674166667,204.256194325,66.0,85.0
2358,204.02521674166667,204.28200946666666,47.0,100.0
2359,204.02521674166667,204.28472685,63.0,89.0
2360,204.02521674166667,204.28744423333333,59.0,83.0
2361,204.35130274166667,204.42195470833335,66.0,56.0
2362,204.35130274166667,204.42874816666668,63.0,63.0
2363,204.35130274166667,204.44233508333335,59.0,62.0
2364,204.35130274166667,204.45184592500001,47.0,71.0
2365,204.5143457416667,204.58499770833333,63.0,72.0
2366,204.5143457416667,204.59314985833333,59.0,57.0
2367,204.5143457416667,204.59722593333333,66.0,71.0
2368,204.5143457416667,204.6026607,47.0,72.0
2369,204.67738874166668,204.8200513666667,47.0,78.0
2370,204.67738874166668,204.82956220833333,59.0,77.0
2371,204.67738874166668,204.834996975,63.0,97.0
2372,204.67738874166668,204.84858389166666,66.0,95.0
2373,205.00347474166668,205.0849962416667,66.0,89.0
2374,205.00347474166668,205.08771362500002,59.0,67.0
2375,205.00347474166668,205.09043100833335,63.0,99.0
2376,205.00347474166668,205.09858315833335,47.0,93.0
2377,205.16651774166667,205.42602785,47.0,73.0
2378,205.16651774166667,205.42874523333333,66.0,92.0
2379,205.16651774166667,205.430103925,59.0,74.0
2380,205.16651774166667,205.43553869166666,63.0,95.0
2381,205.49260374166667,205.56189701666668,66.0,57.0
2382,205.49260374166667,205.57548393333335,59.0,59.0
2383,205.49260374166667,205.58227739166668,63.0,68.0
2384,205.49260374166667,205.58907085,47.0,72.0
2385,205.6556467416667,205.75347254166667,66.0,78.0
2386,205.6556467416667,205.75754861666667,63.0,83.0
2387,205.6556467416667,205.76162469166667,47.0,69.0
2388,205.6556467416667,205.764342075,59.0,68.0
2389,205.9817327416667,206.07819985,59.0,70.0
2390,205.9817327416667,206.090428075,63.0,88.0
2391,205.9817327416667,206.09314545833334,66.0,88.0
2392,205.9817327416667,206.11624321666667,47.0,95.0
2393,206.30781874166667,206.35401425833334,66.0,74.0
2394,206.30781874166667,206.37031855833334,59.0,58.0
2395,206.30781874166667,206.37167725,63.0,90.0
2396,206.30781874166667,206.392057625,47.0,75.0
2397,206.47086174166668,206.54694847500002,66.0,61.0
2398,206.47086174166668,206.55510062500002,63.0,64.0
2399,206.47086174166668,206.5564593166667,47.0,66.0
2400,206.47086174166668,206.5564593166667,59.0,56.0
2401,206.63390474166667,206.83499110833336,66.0,100.0
2402,206.63390474166667,206.8499367166667,59.0,85.0
2403,206.63390474166667,206.85401279166666,63.0,102.0
2404,206.63390474166667,206.8689584,47.0,86.0
2405,206.95999074166667,207.027925325,66.0,72.0
2406,206.95999074166667,207.0320014,63.0,82.0
2407,206.95999074166667,207.04151224166668,59.0,61.0
2408,206.95999074166667,207.06461000000002,47.0,70.0
2409,207.1230337416667,207.182816175,59.0,41.0
2410,207.1230337416667,207.20183785833333,66.0,72.0
2411,207.1230337416667,207.20591393333333,63.0,78.0
2412,207.1230337416667,207.227653,47.0,67.0
2413,207.28607674166668,207.45047843333333,66.0,93.0
2414,207.28607674166668,207.45455450833333,47.0,75.0
2415,207.28607674166668,207.45727189166666,59.0,83.0
2416,207.28607674166668,207.45727189166666,63.0,99.0
2417,207.61216274166668,207.6814560166667,66.0,112.0
2418,207.61216274166668,207.68824947500002,59.0,85.0
2419,207.61216274166668,207.6896081666667,63.0,127.0
2420,207.61216274166668,207.70455377500002,47.0,90.0
2421,207.77520574166667,207.97357472500002,63.0,107.0
2422,207.77520574166667,207.98036818333335,59.0,82.0
2423,207.77520574166667,207.98580295000002,66.0,100.0
2424,207.77520574166667,208.0034659416667,47.0,89.0
2425,208.10129174166667,208.17466109166668,59.0,52.0
2426,208.10129174166667,208.18009585833335,66.0,63.0
2427,208.10129174166667,208.19096539166668,63.0,74.0
2428,208.10129174166667,208.21813922500002,47.0,76.0
2429,208.2643347416667,208.36351923333334,66.0,82.0
2430,208.2643347416667,208.368954,63.0,82.0
2431,208.2643347416667,208.37031269166667,59.0,65.0
2432,208.2643347416667,208.38389960833334,47.0,66.0
2433,208.59042074166666,208.68960523333334,63.0,99.0
2434,208.59042074166666,208.69368130833334,66.0,99.0
2435,208.59042074166666,208.70590953333334,59.0,85.0
2436,208.59042074166666,208.71677906666667,47.0,99.0
2437,208.91650674166667,208.98987609166667,66.0,63.0
2438,208.91650674166667,208.99802824166667,59.0,58.0
2439,208.91650674166667,209.00346300833334,47.0,68.0
2440,208.91650674166667,209.01025646666668,63.0,81.0
2441,209.07954974166668,209.11759310833335,66.0,31.0
2442,209.07954974166668,209.15835385833336,63.0,40.0
2443,209.07954974166668,209.17601685,47.0,67.0
2444,209.24259274166667,209.35400545833335,47.0,85.0
2445,209.24259274166667,209.35536415,63.0,82.0
2446,209.24259274166667,209.36215760833335,59.0,77.0
2447,209.24259274166667,209.36215760833335,66.0,89.0
2448,209.56867874166667,209.62574379166668,66.0,90.0
2449,209.56867874166667,209.62710248333335,59.0,69.0
2450,209.56867874166667,209.62981986666668,63.0,99.0
2451,209.56867874166667,209.65291762500001,47.0,89.0
2452,209.7317217416667,209.80644978333333,59.0,56.0
2453,209.7317217416667,209.81731931666667,63.0,76.0
2454,209.7317217416667,209.81731931666667,66.0,68.0
2455,209.7317217416667,209.81867800833334,47.0,72.0
2456,209.89476474166668,209.96949278333335,63.0,100.0
2457,209.89476474166668,209.97628624166668,66.0,102.0
2458,209.89476474166668,209.97900362500002,59.0,77.0
2459,209.89476474166668,209.98715577500002,47.0,90.0
2460,210.22085074166668,210.28335055833335,47.0,95.0
2461,210.22085074166668,210.28335055833335,66.0,112.0
2462,210.22085074166668,210.2860679416667,59.0,78.0
2463,210.22085074166668,210.28742663333335,63.0,117.0
2464,210.38389374166667,210.60536048333336,66.0,112.0
2465,210.38389374166667,210.6189474,59.0,78.0
2466,210.38389374166667,210.62030609166666,63.0,117.0
2467,210.38389374166667,210.639327775,47.0,93.0
2468,210.70997974166667,210.79557731666668,59.0,69.0
2469,210.70997974166667,210.79557731666668,63.0,89.0
2470,210.70997974166667,210.79557731666668,66.0,85.0
2471,210.70997974166667,210.81324030833335,47.0,81.0
2472,210.8730227416667,210.95862031666667,63.0,99.0
2473,210.8730227416667,210.96269639166667,59.0,71.0
2474,210.8730227416667,210.96948985,66.0,90.0
2475,210.8730227416667,210.97900069166667,47.0,83.0
2476,211.19910874166666,211.28470631666667,59.0,85.0
2477,211.19910874166666,211.28878239166667,63.0,127.0
2478,211.19910874166666,211.29014108333334,66.0,112.0
2479,211.19910874166666,211.30236930833334,47.0,102.0
2480,211.52519474166667,211.57274895,66.0,95.0
2481,211.52519474166667,211.58225979166667,63.0,117.0
2482,211.52519474166667,211.59177063333334,59.0,79.0
2483,211.52519474166667,211.60535755,47.0,92.0
2484,211.68823774166668,211.76296578333336,63.0,102.0
2485,211.68823774166668,211.76975924166666,66.0,99.0
2486,211.68823774166668,211.77519400833333,59.0,61.0
2487,211.68823774166668,211.796933075,47.0,86.0
2488,211.85128074166667,211.96948691666668,63.0,127.0
2489,211.85128074166667,211.98035645000002,66.0,127.0
2490,211.85128074166667,211.98850860000002,59.0,93.0
2491,211.85128074166667,211.99258467500002,47.0,117.0
2492,212.17736674166667,212.24258394166668,66.0,89.0
2493,212.17736674166667,212.24394263333335,47.0,89.0
2494,212.17736674166667,212.25073609166668,63.0,99.0
2495,212.17736674166667,212.26296431666668,59.0,78.0
2496,212.3404097416667,212.57818078333335,66.0,82.0
2497,212.3404097416667,212.59040900833335,47.0,78.0
2498,212.3404097416667,212.59448508333335,63.0,88.0
2499,212.3404097416667,212.59584377500002,59.0,66.0
2500,212.66649574166667,212.750734625,59.0,64.0
2501,212.66649574166667,212.750734625,63.0,68.0
2502,212.66649574166667,212.75209331666667,66.0,67.0
2503,212.66649574166667,212.76975630833334,47.0,81.0
2504,212.82953874166668,212.93687538333333,63.0,88.0
2505,212.82953874166668,212.93687538333333,66.0,82.0
2506,212.82953874166668,212.95317968333333,59.0,66.0
2507,212.82953874166668,212.95725575833333,47.0,66.0
2508,213.15562474166668,213.248015775,63.0,122.0
2509,213.15562474166668,213.25209185,59.0,81.0
2510,213.15562474166668,213.256167925,66.0,100.0
2511,213.15562474166668,213.264320075,47.0,97.0
2512,213.80779674166666,213.95861151666668,58.0,127.0
2513,213.80779674166666,213.99122011666668,46.0,127.0
2514,213.80779674166666,214.01295918333335,70.0,127.0
2515,213.97083974166668,214.14611096666667,57.0,96.0
2516,213.97083974166668,214.17056741666667,69.0,97.0
2517,213.97083974166668,214.18687171666667,45.0,76.0
2518,214.13388274166667,214.24393676666668,67.0,122.0
2519,214.13388274166667,214.26839321666668,55.0,107.0
2520,214.13388274166667,214.28062144166668,43.0,112.0
2521,214.29692574166668,214.50888164166668,38.0,93.0
2522,214.45996874166667,214.50888164166668,38.0,99.0
2523,214.29692574166668,214.51024033333334,50.0,99.0
2524,214.45996874166667,214.51024033333334,50.0,99.0
2525,214.29692574166668,214.5156751,62.0,112.0
2526,214.45996874166667,214.7113267,40.0,99.0
2527,214.6230117416667,214.7113267,40.0,82.0
2528,214.45996874166667,214.7113267,52.0,102.0
2529,214.6230117416667,214.7113267,52.0,82.0
2530,214.45996874166667,214.71676146666667,64.0,127.0
2531,214.78605474166667,214.85534801666668,40.0,69.0
2532,214.78605474166667,214.86893493333335,52.0,69.0
2533,214.94909774166666,215.04013008333334,40.0,73.0
2534,214.94909774166666,215.04013008333334,52.0,73.0
2535,215.11214074166668,215.28741196666667,40.0,83.0
2536,215.11214074166668,215.28741196666667,52.0,79.0
2537,215.11214074166668,215.28741196666667,52.0,83.0
2538,215.43822674166668,215.5075200166667,40.0,93.0
2539,215.43822674166668,215.5075200166667,52.0,93.0
2540,215.60126974166667,215.67463909166668,40.0,92.0
2541,215.60126974166667,215.67463909166668,52.0,92.0
2542,215.76431274166669,215.8200191,52.0,97.0
2543,215.76431274166669,215.84447555,40.0,97.0
2544,215.11214074166668,215.87029069166667,67.0,75.0
2545,215.11214074166668,215.87164938333333,64.0,82.0
2546,215.11214074166668,215.90018190833334,71.0,78.0
2547,215.92735574166667,216.01702939166668,43.0,88.0
2548,215.92735574166667,216.01702939166668,55.0,88.0
2549,216.0903987416667,216.18414846666667,43.0,72.0
2550,216.0903987416667,216.18414846666667,55.0,72.0
2551,216.25344174166668,216.3512675416667,43.0,75.0
2552,216.25344174166668,216.3512675416667,55.0,75.0
2553,216.41648474166666,216.745288125,43.0,88.0
2554,216.74257074166667,216.745288125,43.0,92.0
2555,216.41648474166666,216.745288125,55.0,74.0
2556,216.41648474166666,216.745288125,55.0,88.0
2557,216.74257074166667,216.745288125,55.0,92.0
2558,216.90561374166668,217.00751561666667,43.0,82.0
2559,216.90561374166668,217.00751561666667,55.0,82.0
2560,217.06865674166667,217.17055861666668,43.0,97.0
2561,217.06865674166667,217.17055861666668,55.0,97.0
2562,216.41648474166666,217.20724329166669,74.0,86.0
2563,216.41648474166666,217.2357758166667,67.0,85.0
2564,216.41648474166666,217.2561561916667,62.0,75.0
2565,216.41648474166666,217.299634325,71.0,92.0
2566,217.2316997416667,217.336319,45.0,95.0
2567,217.2316997416667,217.336319,57.0,95.0
2568,217.39474274166668,217.49256854166669,45.0,85.0
2569,217.39474274166668,217.49256854166669,57.0,85.0
2570,217.55778574166666,217.64881808333334,45.0,78.0
2571,217.55778574166666,217.64881808333334,57.0,78.0
2572,217.72082874166668,217.96946931666668,45.0,90.0
2573,217.72082874166668,217.96946931666668,57.0,69.0
2574,217.72082874166668,217.96946931666668,57.0,90.0
2575,218.04691474166668,218.12300147500002,45.0,93.0
2576,218.04691474166668,218.12300147500002,57.0,93.0
2577,218.20995774166667,218.28468578333334,45.0,72.0
2578,218.20995774166667,218.28468578333334,57.0,72.0
2579,217.72082874166668,218.39473980833336,61.0,78.0
2580,218.3730007416667,218.4015332666667,57.0,95.0
2581,217.72082874166668,218.43821794166666,73.0,97.0
2582,217.72082874166668,218.44229401666666,64.0,58.0
2583,217.72082874166668,218.457239625,76.0,82.0
2584,217.72082874166668,218.465391775,69.0,78.0
2585,218.3730007416667,218.47218523333333,45.0,95.0
2586,218.53604374166667,218.63251085000002,47.0,88.0
2587,218.53604374166667,218.63251085000002,59.0,88.0
2588,218.6990867416667,218.79283646666667,47.0,79.0
2589,218.6990867416667,218.79283646666667,59.0,79.0
2590,218.86212974166668,218.95316208333335,47.0,76.0
2591,218.86212974166668,218.95316208333335,59.0,76.0
2592,219.02517274166667,219.2778893916667,47.0,88.0
2593,219.02517274166667,219.2778893916667,59.0,77.0
2594,219.02517274166667,219.2778893916667,59.0,88.0
2595,219.35125874166667,219.427345475,47.0,99.0
2596,219.35125874166667,219.427345475,59.0,99.0
2597,219.51430174166669,219.61620361666667,47.0,93.0
2598,219.51430174166669,219.61620361666667,59.0,93.0
2599,219.02517274166667,219.62027969166667,66.0,63.0
2600,219.02517274166667,219.6515296,75.0,96.0
2601,219.02517274166667,219.66647520833334,78.0,90.0
2602,219.02517274166667,219.67462735833334,71.0,78.0
2603,219.67734474166667,219.78196400000002,38.0,99.0
2604,219.67734474166667,219.78196400000002,50.0,99.0
2605,219.8403877416667,219.9287027,40.0,82.0
2606,219.8403877416667,219.9287027,52.0,82.0
2607,220.00343074166668,220.08631093333335,40.0,69.0
2608,220.00343074166668,220.08631093333335,52.0,69.0
2609,220.16647374166666,220.25750608333334,40.0,73.0
2610,220.16647374166666,220.25750608333334,52.0,73.0
2611,220.32951674166668,220.50478796666667,40.0,83.0
2612,220.32951674166668,220.50478796666667,52.0,76.0
2613,220.32951674166668,220.50478796666667,52.0,83.0
2614,220.65560274166668,220.7248960166667,40.0,93.0
2615,220.65560274166668,220.7248960166667,52.0,93.0
2616,220.81864574166667,220.89201509166668,40.0,92.0
2617,220.81864574166667,220.89201509166668,52.0,92.0
2618,220.32951674166668,220.92869976666668,59.0,74.0
2619,220.32951674166668,220.9735365916667,64.0,88.0
2620,220.32951674166668,220.98848220000002,67.0,89.0
2621,220.32951674166668,220.99255827500002,71.0,86.0
2622,220.9816887416667,221.06185155,40.0,97.0
2623,220.9816887416667,221.06185155,52.0,97.0
2624,221.14473174166667,221.23440539166668,43.0,88.0
2625,221.14473174166667,221.23440539166668,55.0,88.0
2626,221.30777474166666,221.40152446666667,43.0,72.0
2627,221.30777474166666,221.40152446666667,55.0,72.0
2628,221.47081774166668,221.5686435416667,43.0,75.0
2629,221.47081774166668,221.5686435416667,55.0,75.0
2630,221.63386074166667,221.962664125,43.0,88.0
2631,221.95994674166667,221.962664125,43.0,92.0
2632,221.63386074166667,221.962664125,55.0,62.0
2633,221.63386074166667,221.962664125,55.0,88.0
2634,221.95994674166667,221.962664125,55.0,92.0
2635,222.1229897416667,222.22489161666667,43.0,82.0
2636,222.1229897416667,222.22489161666667,55.0,82.0
2637,221.63386074166667,222.30777180833334,59.0,64.0
2638,221.63386074166667,222.31592395833334,74.0,78.0
2639,222.28603274166667,222.32000003333334,55.0,97.0
2640,221.63386074166667,222.321358725,62.0,57.0
2641,221.63386074166667,222.32407610833334,67.0,76.0
2642,221.63386074166667,222.33358695,71.0,82.0
2643,222.28603274166667,222.38793461666668,43.0,97.0
2644,222.4490757416667,222.553695,45.0,95.0
2645,222.4490757416667,222.553695,57.0,95.0
2646,222.61211874166668,222.7099445416667,45.0,85.0
2647,222.61211874166668,222.7099445416667,57.0,85.0
2648,222.77516174166666,222.86619408333334,45.0,78.0
2649,222.77516174166666,222.86619408333334,57.0,78.0
2650,222.93820474166668,223.18684531666668,45.0,90.0
2651,222.93820474166668,223.18684531666668,57.0,64.0
2652,222.93820474166668,223.18684531666668,57.0,90.0
2653,223.26429074166668,223.340377475,45.0,93.0
2654,223.26429074166668,223.340377475,57.0,93.0
2655,223.42733374166667,223.50206178333335,45.0,72.0
2656,223.42733374166667,223.50206178333335,57.0,72.0
2657,222.93820474166668,223.55912683333335,61.0,88.0
2658,222.93820474166668,223.5781485166667,64.0,66.0
2659,222.93820474166668,223.58086590000002,73.0,93.0
2660,222.93820474166668,223.58358328333335,76.0,77.0
2661,222.93820474166668,223.61211580833336,69.0,79.0
2662,223.5903767416667,223.68956123333334,45.0,95.0
2663,223.5903767416667,223.68956123333334,57.0,95.0
2664,223.75341974166668,223.84988685000002,47.0,88.0
2665,223.75341974166668,223.84988685000002,59.0,88.0
2666,223.91646274166666,224.01021246666667,47.0,79.0
2667,223.91646274166666,224.01021246666667,59.0,79.0
2668,224.07950574166668,224.17053808333335,47.0,76.0
2669,224.07950574166668,224.17053808333335,59.0,76.0
2670,224.24254874166667,224.49526539166666,47.0,88.0
2671,224.24254874166667,224.49526539166666,59.0,56.0
2672,224.24254874166667,224.49526539166666,59.0,88.0
2673,224.56863474166667,224.644721475,47.0,99.0
2674,224.56863474166667,224.644721475,59.0,99.0
2675,224.7316777416667,224.83357961666667,47.0,93.0
2676,224.7316777416667,224.83357961666667,59.0,93.0
2677,224.24254874166667,224.88249251666667,63.0,63.0
2678,224.24254874166667,224.88385120833334,66.0,55.0
2679,224.24254874166667,224.889285975,75.0,93.0
2680,224.24254874166667,224.89472074166667,71.0,73.0
2681,224.24254874166667,224.89472074166667,78.0,79.0
2682,224.89472074166667,224.99934000000002,38.0,99.0
2683,224.89472074166667,224.99934000000002,50.0,99.0
2684,225.0577637416667,225.1460787,40.0,82.0
2685,225.0577637416667,225.1460787,52.0,82.0
2686,225.22080674166668,225.30368693333335,40.0,69.0
2687,225.22080674166668,225.30368693333335,52.0,69.0
2688,225.38384974166667,225.47488208333334,40.0,73.0
2689,225.38384974166667,225.47488208333334,52.0,73.0
2690,225.54689274166668,225.72216396666667,40.0,83.0
2691,225.54689274166668,225.72216396666667,52.0,79.0
2692,225.54689274166668,225.72216396666667,52.0,83.0
2693,225.87297874166669,225.94227201666666,40.0,93.0
2694,225.87297874166669,225.94227201666666,52.0,93.0
2695,226.03602174166667,226.10939109166668,40.0,92.0
2696,226.03602174166667,226.10939109166668,52.0,92.0
2697,226.1990647416667,226.2547711,52.0,97.0
2698,226.1990647416667,226.27922755,40.0,97.0
2699,225.54689274166668,226.30504269166667,67.0,75.0
2700,225.54689274166668,226.30640138333334,64.0,82.0
2701,225.54689274166668,226.33493390833334,71.0,78.0
2702,226.36210774166668,226.45178139166669,43.0,88.0
2703,226.36210774166668,226.45178139166669,55.0,88.0
2704,226.52515074166666,226.61890046666667,43.0,72.0
2705,226.52515074166666,226.61890046666667,55.0,72.0
2706,226.68819374166668,226.7860195416667,43.0,75.0
2707,226.68819374166668,226.7860195416667,55.0,75.0
2708,226.85123674166667,227.180040125,43.0,88.0
2709,227.17732274166667,227.180040125,43.0,92.0
2710,226.85123674166667,227.180040125,55.0,74.0
2711,226.85123674166667,227.180040125,55.0,88.0
2712,227.17732274166667,227.180040125,55.0,92.0
2713,227.3403657416667,227.44226761666667,43.0,82.0
2714,227.3403657416667,227.44226761666667,55.0,82.0
2715,227.50340874166668,227.60531061666669,43.0,97.0
2716,227.50340874166668,227.60531061666669,55.0,97.0
2717,226.85123674166667,227.6419952916667,74.0,86.0
2718,226.85123674166667,227.67052781666666,67.0,85.0
2719,226.85123674166667,227.69090819166667,62.0,75.0
2720,226.85123674166667,227.734386325,71.0,92.0
2721,227.6664517416667,227.771071,45.0,95.0
2722,227.6664517416667,227.771071,57.0,95.0
2723,227.82949474166668,227.9273205416667,45.0,85.0
2724,227.82949474166668,227.9273205416667,57.0,85.0
2725,227.99253774166667,228.08357008333334,45.0,78.0
2726,227.99253774166667,228.08357008333334,57.0,78.0
2727,228.15558074166668,228.40422131666668,45.0,90.0
2728,228.15558074166668,228.40422131666668,57.0,69.0
2729,228.15558074166668,228.40422131666668,57.0,90.0
2730,228.4816667416667,228.557753475,45.0,93.0
2731,228.4816667416667,228.557753475,57.0,93.0
2732,228.64470974166667,228.71943778333335,45.0,72.0
2733,228.64470974166667,228.71943778333335,57.0,72.0
2734,228.15558074166668,228.82949180833333,61.0,78.0
2735,228.8077527416667,228.83628526666666,57.0,95.0
2736,228.15558074166668,228.87296994166667,73.0,97.0
2737,228.15558074166668,228.87704601666667,64.0,58.0
2738,228.15558074166668,228.891991625,76.0,82.0
2739,228.15558074166668,228.900143775,69.0,78.0
2740,228.8077527416667,228.90693723333334,45.0,95.0
2741,228.97079574166668,229.06726285000002,47.0,88.0
2742,228.97079574166668,229.06726285000002,59.0,88.0
2743,229.13383874166666,229.22758846666667,47.0,79.0
2744,229.13383874166666,229.22758846666667,59.0,79.0
2745,229.29688174166668,229.38791408333336,47.0,76.0
2746,229.29688174166668,229.38791408333336,59.0,76.0
2747,229.45992474166667,229.71264139166666,47.0,88.0
2748,229.45992474166667,229.71264139166666,59.0,77.0
2749,229.45992474166667,229.71264139166666,59.0,88.0
2750,229.78601074166667,229.862097475,47.0,99.0
2751,229.78601074166667,229.862097475,59.0,99.0
2752,229.9490537416667,230.05095561666667,47.0,93.0
2753,229.9490537416667,230.05095561666667,59.0,93.0
2754,229.45992474166667,230.05503169166667,66.0,63.0
2755,229.45992474166667,230.0862816,75.0,96.0
2756,229.45992474166667,230.10122720833334,78.0,90.0
2757,229.45992474166667,230.10937935833334,71.0,78.0
2758,230.11209674166668,230.21671600000002,38.0,99.0
2759,230.11209674166668,230.21671600000002,50.0,99.0
2760,230.27513974166666,230.3634547,40.0,82.0
2761,230.27513974166666,230.3634547,52.0,82.0
2762,230.43818274166668,230.52106293333335,40.0,69.0
2763,230.43818274166668,230.52106293333335,52.0,69.0
2764,230.60122574166667,230.69225808333334,40.0,73.0
2765,230.60122574166667,230.69225808333334,52.0,73.0
2766,230.76426874166668,230.93953996666667,40.0,83.0
2767,230.76426874166668,230.93953996666667,52.0,76.0
2768,230.76426874166668,230.93953996666667,52.0,83.0
2769,231.0903547416667,231.15964801666667,40.0,93.0
2770,231.0903547416667,231.15964801666667,52.0,93.0
2771,231.25339774166667,231.32676709166668,40.0,92.0
2772,231.25339774166667,231.32676709166668,52.0,92.0
2773,230.76426874166668,231.36345176666669,59.0,74.0
2774,230.76426874166668,231.4082885916667,64.0,88.0
2775,230.76426874166668,231.42323420000002,67.0,89.0
2776,230.76426874166668,231.427310275,71.0,86.0
2777,231.4164407416667,231.49660355,40.0,97.0
2778,231.4164407416667,231.49660355,52.0,97.0
2779,231.57948374166668,231.6691573916667,43.0,88.0
2780,231.57948374166668,231.6691573916667,55.0,88.0
2781,231.74252674166667,231.83627646666667,43.0,72.0
2782,231.74252674166667,231.83627646666667,55.0,72.0
2783,231.90556974166668,232.0033955416667,43.0,75.0
2784,231.90556974166668,232.0033955416667,55.0,75.0
2785,232.06861274166667,232.397416125,43.0,88.0
2786,232.39469874166667,232.397416125,43.0,92.0
2787,232.06861274166667,232.397416125,55.0,62.0
2788,232.06861274166667,232.397416125,55.0,88.0
2789,232.39469874166667,232.397416125,55.0,92.0
2790,232.5577417416667,232.65964361666667,43.0,82.0
2791,232.5577417416667,232.65964361666667,55.0,82.0
2792,232.06861274166667,232.74252380833335,59.0,64.0
2793,232.06861274166667,232.75067595833335,74.0,78.0
2794,232.72078474166668,232.75475203333335,55.0,97.0
2795,232.06861274166667,232.756110725,62.0,57.0
2796,232.06861274166667,232.75882810833335,67.0,76.0
2797,232.06861274166667,232.76833895000001,71.0,82.0
2798,232.72078474166668,232.8226866166667,43.0,97.0
2799,232.88382774166666,232.988447,45.0,95.0
2800,232.88382774166666,232.988447,57.0,95.0
2801,233.04687074166668,233.1446965416667,45.0,85.0
2802,233.04687074166668,233.1446965416667,57.0,85.0
2803,233.20991374166667,233.30094608333334,45.0,78.0
2804,233.20991374166667,233.30094608333334,57.0,78.0
2805,233.37295674166668,233.62159731666668,45.0,90.0
2806,233.37295674166668,233.62159731666668,57.0,64.0
2807,233.37295674166668,233.62159731666668,57.0,90.0
2808,233.6990427416667,233.775129475,45.0,93.0
2809,233.6990427416667,233.775129475,57.0,93.0
2810,233.86208574166668,233.93681378333335,45.0,72.0
2811,233.86208574166668,233.93681378333335,57.0,72.0
2812,233.37295674166668,233.99387883333335,61.0,88.0
2813,233.37295674166668,234.0129005166667,64.0,66.0
2814,233.37295674166668,234.01561790000002,73.0,93.0
2815,233.37295674166668,234.01833528333336,76.0,77.0
2816,233.37295674166668,234.04686780833333,69.0,79.0
2817,234.0251287416667,234.12431323333334,45.0,95.0
2818,234.0251287416667,234.12431323333334,57.0,95.0
2819,234.18817174166668,234.28463885000002,47.0,88.0
2820,234.18817174166668,234.28463885000002,59.0,88.0
2821,234.35121474166667,234.44496446666668,47.0,79.0
2822,234.35121474166667,234.44496446666668,59.0,79.0
2823,234.51425774166668,234.60529008333336,47.0,76.0
2824,234.51425774166668,234.60529008333336,59.0,76.0
2825,234.67730074166667,234.93001739166667,47.0,88.0
2826,234.67730074166667,234.93001739166667,59.0,56.0
2827,234.67730074166667,234.93001739166667,59.0,88.0
2828,235.00338674166667,235.07947347500001,47.0,99.0
2829,235.00338674166667,235.07947347500001,59.0,99.0
2830,235.1664297416667,235.26833161666667,47.0,93.0
2831,235.1664297416667,235.26833161666667,59.0,93.0
2832,234.67730074166667,235.31724451666668,63.0,63.0
2833,234.67730074166667,235.31860320833334,66.0,55.0
2834,234.67730074166667,235.324037975,75.0,93.0
2835,234.67730074166667,235.32947274166668,71.0,73.0
2836,234.67730074166667,235.32947274166668,78.0,79.0
2837,235.32947274166668,235.43409200000002,38.0,99.0
2838,235.32947274166668,235.43409200000002,50.0,99.0
2839,235.49251574166667,235.5808307,40.0,82.0
2840,235.49251574166667,235.5808307,52.0,82.0
2841,235.65555874166668,235.73843893333336,40.0,69.0
2842,235.65555874166668,235.73843893333336,52.0,69.0
2843,235.81860174166667,235.90963408333334,40.0,73.0
2844,235.81860174166667,235.90963408333334,52.0,73.0
2845,235.98164474166668,236.15691596666667,40.0,83.0
2846,235.98164474166668,236.15691596666667,52.0,79.0
2847,235.98164474166668,236.15691596666667,52.0,83.0
2848,236.3077307416667,236.37702401666667,40.0,93.0
2849,236.3077307416667,236.37702401666667,52.0,93.0
2850,236.47077374166668,236.54414309166668,40.0,92.0
2851,236.47077374166668,236.54414309166668,52.0,92.0
2852,236.63381674166666,236.6895231,52.0,97.0
2853,236.63381674166666,236.71397955,40.0,97.0
2854,235.98164474166668,236.73979469166667,67.0,75.0
2855,235.98164474166668,236.74115338333334,64.0,82.0
2856,235.98164474166668,236.76968590833334,71.0,78.0
2857,236.79685974166668,236.8865333916667,43.0,88.0
2858,236.79685974166668,236.8865333916667,55.0,88.0
2859,236.95990274166667,237.05365246666668,43.0,72.0
2860,236.95990274166667,237.05365246666668,55.0,72.0
2861,237.12294574166668,237.22077154166666,43.0,75.0
2862,237.12294574166668,237.22077154166666,55.0,75.0
2863,237.28598874166667,237.614792125,43.0,88.0
2864,237.61207474166667,237.614792125,43.0,92.0
2865,237.28598874166667,237.614792125,55.0,74.0
2866,237.28598874166667,237.614792125,55.0,88.0
2867,237.61207474166667,237.614792125,55.0,92.0
2868,237.7751177416667,237.87701961666667,43.0,82.0
2869,237.7751177416667,237.87701961666667,55.0,82.0
2870,237.93816074166668,238.0400626166667,43.0,97.0
2871,237.93816074166668,238.0400626166667,55.0,97.0
2872,237.28598874166667,238.07674729166666,74.0,86.0
2873,237.28598874166667,238.10527981666667,67.0,85.0
2874,237.28598874166667,238.12566019166667,62.0,75.0
2875,237.28598874166667,238.169138325,71.0,92.0
2876,238.10120374166667,238.205823,45.0,95.0
2877,238.10120374166667,238.205823,57.0,95.0
2878,238.26424674166668,238.3620725416667,45.0,85.0
2879,238.26424674166668,238.3620725416667,57.0,85.0
2880,238.42728974166667,238.51832208333335,45.0,78.0
2881,238.42728974166667,238.51832208333335,57.0,78.0
2882,238.59033274166669,238.83897331666668,45.0,90.0
2883,238.59033274166669,238.83897331666668,57.0,69.0
2884,238.59033274166669,238.83897331666668,57.0,90.0
2885,238.9164187416667,238.992505475,45.0,93.0
2886,238.9164187416667,238.992505475,57.0,93.0
2887,239.07946174166668,239.15418978333335,45.0,72.0
2888,239.07946174166668,239.15418978333335,57.0,72.0
2889,238.59033274166669,239.26424380833333,61.0,78.0
2890,239.24250474166666,239.27103726666667,57.0,95.0
2891,238.59033274166669,239.30772194166667,73.0,97.0
2892,238.59033274166669,239.31179801666667,64.0,58.0
2893,238.59033274166669,239.326743625,76.0,82.0
2894,238.59033274166669,239.334895775,69.0,78.0
2895,239.24250474166666,239.34168923333334,45.0,95.0
2896,239.40554774166668,239.50201485000002,47.0,88.0
2897,239.40554774166668,239.50201485000002,59.0,88.0
2898,239.56859074166667,239.66234046666668,47.0,79.0
2899,239.56859074166667,239.66234046666668,59.0,79.0
2900,239.73163374166668,239.82266608333333,47.0,76.0
2901,239.73163374166668,239.82266608333333,59.0,76.0
2902,239.89467674166667,240.14739339166667,47.0,88.0
2903,239.89467674166667,240.14739339166667,59.0,77.0
2904,239.89467674166667,240.14739339166667,59.0,88.0
2905,240.22076274166668,240.29684947500002,47.0,99.0
2906,240.22076274166668,240.29684947500002,59.0,99.0
2907,240.3838057416667,240.48570761666667,47.0,93.0
2908,240.3838057416667,240.48570761666667,59.0,93.0
2909,239.89467674166667,240.48978369166667,66.0,63.0
2910,239.89467674166667,240.5210336,75.0,96.0
2911,239.89467674166667,240.53597920833334,78.0,90.0
2912,239.89467674166667,240.54413135833335,71.0,78.0
2913,240.54684874166668,240.65146800000002,38.0,99.0
2914,240.54684874166668,240.65146800000002,50.0,99.0
2915,240.70989174166667,240.7982067,40.0,82.0
2916,240.70989174166667,240.7982067,52.0,82.0
2917,240.87293474166668,240.95581493333336,40.0,69.0
2918,240.87293474166668,240.95581493333336,52.0,69.0
2919,241.03597774166667,241.12701008333335,40.0,73.0
2920,241.03597774166667,241.12701008333335,52.0,73.0
2921,241.1990207416667,241.37429196666668,40.0,83.0
2922,241.1990207416667,241.37429196666668,52.0,76.0
2923,241.1990207416667,241.37429196666668,52.0,83.0
2924,241.5251067416667,241.59440001666667,40.0,93.0
2925,241.5251067416667,241.59440001666667,52.0,93.0
2926,241.68814974166668,241.76151909166668,40.0,92.0
2927,241.68814974166668,241.76151909166668,52.0,92.0
2928,241.1990207416667,241.7982037666667,59.0,74.0
2929,241.1990207416667,241.84304059166666,64.0,88.0
2930,241.1990207416667,241.8579862,67.0,89.0
2931,241.1990207416667,241.862062275,71.0,86.0
2932,241.85119274166667,241.93135555,40.0,97.0
2933,241.85119274166667,241.93135555,52.0,97.0
2934,242.01423574166668,242.1039093916667,43.0,88.0
2935,242.01423574166668,242.1039093916667,55.0,88.0
2936,242.17727874166667,242.27102846666668,43.0,72.0
2937,242.17727874166667,242.27102846666668,55.0,72.0
2938,242.34032174166668,242.43814754166667,43.0,75.0
2939,242.34032174166668,242.43814754166667,55.0,75.0
2940,242.50336474166667,242.832168125,43.0,88.0
2941,242.82945074166668,242.832168125,43.0,92.0
2942,242.50336474166667,242.832168125,55.0,62.0
2943,242.50336474166667,242.832168125,55.0,88.0
2944,242.82945074166668,242.832168125,55.0,92.0
2945,242.99249374166666,243.09439561666667,43.0,82.0
2946,242.99249374166666,243.09439561666667,55.0,82.0
2947,242.50336474166667,243.17727580833335,59.0,64.0
2948,242.50336474166667,243.18542795833335,74.0,78.0
2949,243.15553674166668,243.18950403333335,55.0,97.0
2950,242.50336474166667,243.19086272500002,62.0,57.0
2951,242.50336474166667,243.19358010833335,67.0,76.0
2952,242.50336474166667,243.20309095000002,71.0,82.0
2953,243.15553674166668,243.2574386166667,43.0,97.0
2954,243.31857974166667,243.423199,45.0,95.0
2955,243.31857974166667,243.423199,57.0,95.0
2956,243.48162274166668,243.57944854166666,45.0,85.0
2957,243.48162274166668,243.57944854166666,57.0,85.0
2958,243.64466574166667,243.73569808333335,45.0,78.0
2959,243.64466574166667,243.73569808333335,57.0,78.0
2960,243.8077087416667,244.05634931666668,45.0,90.0
2961,243.8077087416667,244.05634931666668,57.0,64.0
2962,243.8077087416667,244.05634931666668,57.0,90.0
2963,244.1337947416667,244.209881475,45.0,93.0
2964,244.1337947416667,244.209881475,57.0,93.0
2965,244.29683774166668,244.37156578333335,45.0,72.0
2966,244.29683774166668,244.37156578333335,57.0,72.0
2967,243.8077087416667,244.42863083333336,61.0,88.0
2968,243.8077087416667,244.44765251666666,64.0,66.0
2969,243.8077087416667,244.4503699,73.0,93.0
2970,243.8077087416667,244.45308728333333,76.0,77.0
2971,243.8077087416667,244.48161980833333,69.0,79.0
2972,244.45988074166667,244.55906523333334,45.0,95.0
2973,244.45988074166667,244.55906523333334,57.0,95.0
2974,244.62292374166668,244.71939085000002,47.0,88.0
2975,244.62292374166668,244.71939085000002,59.0,88.0
2976,244.78596674166667,244.87971646666668,47.0,79.0
2977,244.78596674166667,244.87971646666668,59.0,79.0
2978,244.94900974166669,245.04004208333333,47.0,76.0
2979,244.94900974166669,245.04004208333333,59.0,76.0
2980,245.11205274166667,245.36476939166667,47.0,88.0
2981,245.11205274166667,245.36476939166667,59.0,56.0
2982,245.11205274166667,245.36476939166667,59.0,88.0
2983,245.43813874166668,245.51422547500002,47.0,99.0
2984,245.43813874166668,245.51422547500002,59.0,99.0
2985,245.60118174166666,245.70308361666667,47.0,93.0
2986,245.60118174166666,245.70308361666667,59.0,93.0
2987,245.11205274166667,245.75199651666668,63.0,63.0
2988,245.11205274166667,245.75335520833335,66.0,55.0
2989,245.11205274166667,245.758789975,75.0,93.0
2990,245.11205274166667,245.76422474166668,71.0,73.0
2991,245.11205274166667,245.76422474166668,78.0,79.0
2992,245.76422474166668,245.86884400000002,38.0,99.0
2993,245.76422474166668,245.86884400000002,50.0,99.0
2994,245.92726774166667,246.0155827,40.0,82.0
2995,245.92726774166667,246.0155827,52.0,82.0
2996,246.09031074166668,246.17319093333333,40.0,69.0
2997,246.09031074166668,246.17319093333333,52.0,69.0
2998,246.25335374166667,246.34438608333335,40.0,73.0
2999,246.25335374166667,246.34438608333335,52.0,73.0
3000,246.4163967416667,246.59166796666668,40.0,83.0
3001,246.4163967416667,246.59166796666668,52.0,79.0
3002,246.4163967416667,246.59166796666668,52.0,83.0
3003,246.7424827416667,246.81177601666667,40.0,93.0
3004,246.7424827416667,246.81177601666667,52.0,93.0
3005,246.90552574166668,246.9788950916667,40.0,92.0
3006,246.90552574166668,246.9788950916667,52.0,92.0
3007,247.06856874166667,247.1242751,52.0,97.0
3008,247.06856874166667,247.14873155,40.0,97.0
3009,246.4163967416667,247.17454669166668,67.0,75.0
3010,246.4163967416667,247.17590538333334,64.0,82.0
3011,246.4163967416667,247.20443790833335,71.0,78.0
3012,247.23161174166668,247.3212853916667,43.0,88.0
3013,247.23161174166668,247.3212853916667,55.0,88.0
3014,247.39465474166667,247.48840446666668,43.0,72.0
3015,247.39465474166667,247.48840446666668,55.0,72.0
3016,247.5576977416667,247.65552354166667,43.0,75.0
3017,247.5576977416667,247.65552354166667,55.0,75.0
3018,247.72074074166667,248.049544125,43.0,88.0
3019,248.04682674166668,248.049544125,43.0,92.0
3020,247.72074074166667,248.049544125,55.0,74.0
3021,247.72074074166667,248.049544125,55.0,88.0
3022,248.04682674166668,248.049544125,55.0,92.0
3023,248.20986974166667,248.31177161666668,43.0,82.0
3024,248.20986974166667,248.31177161666668,55.0,82.0
3025,248.37291274166668,248.4748146166667,43.0,97.0
3026,248.37291274166668,248.4748146166667,55.0,97.0
3027,247.72074074166667,248.51149929166667,74.0,86.0
3028,247.72074074166667,248.54003181666667,67.0,85.0
3029,247.72074074166667,248.56041219166667,62.0,75.0
3030,247.72074074166667,248.603890325,71.0,92.0
3031,248.53595574166667,248.640575,45.0,95.0
3032,248.53595574166667,248.640575,57.0,95.0
3033,248.69899874166668,248.79682454166667,45.0,85.0
3034,248.69899874166668,248.79682454166667,57.0,85.0
3035,248.86204174166667,248.95307408333335,45.0,78.0
3036,248.86204174166667,248.95307408333335,57.0,78.0
3037,249.0250847416667,249.27372531666668,45.0,90.0
3038,249.0250847416667,249.27372531666668,57.0,69.0
3039,249.0250847416667,249.27372531666668,57.0,90.0
3040,249.35117074166666,249.427257475,45.0,93.0
3041,249.35117074166666,249.427257475,57.0,93.0
3042,249.51421374166668,249.58894178333335,45.0,72.0
3043,249.51421374166668,249.58894178333335,57.0,72.0
3044,249.0250847416667,249.69899580833334,61.0,78.0
3045,249.67725674166667,249.70578926666667,57.0,95.0
3046,249.0250847416667,249.74247394166667,73.0,97.0
3047,249.0250847416667,249.74655001666667,64.0,58.0
3048,249.0250847416667,249.761495625,76.0,82.0
3049,249.0250847416667,249.769647775,69.0,78.0
3050,249.67725674166667,249.77644123333334,45.0,95.0
3051,249.84029974166668,249.93676685,47.0,88.0
3052,249.84029974166668,249.93676685,59.0,88.0
3053,250.00334274166667,250.09709246666668,47.0,79.0
3054,250.00334274166667,250.09709246666668,59.0,79.0
3055,250.1663857416667,250.25741808333333,47.0,76.0
3056,250.1663857416667,250.25741808333333,59.0,76.0
3057,250.32942874166667,250.58214539166667,47.0,88.0
3058,250.32942874166667,250.58214539166667,59.0,77.0
3059,250.32942874166667,250.58214539166667,59.0,88.0
3060,250.65551474166668,250.73160147500002,47.0,99.0
3061,250.65551474166668,250.73160147500002,59.0,99.0
3062,250.81855774166667,250.92045961666668,47.0,93.0
3063,250.81855774166667,250.92045961666668,59.0,93.0
3064,250.32942874166667,250.92453569166668,66.0,63.0
3065,250.32942874166667,250.9557856,75.0,96.0
3066,250.32942874166667,250.97073120833335,78.0,90.0
3067,250.32942874166667,250.97888335833335,71.0,78.0
3068,250.98160074166668,251.08622,38.0,99.0
3069,250.98160074166668,251.08622,50.0,99.0
3070,251.14464374166667,251.2329587,40.0,82.0
3071,251.14464374166667,251.2329587,52.0,82.0
3072,251.30768674166669,251.39056693333333,40.0,69.0
3073,251.30768674166669,251.39056693333333,52.0,69.0
3074,251.47072974166667,251.56176208333335,40.0,73.0
3075,251.47072974166667,251.56176208333335,52.0,73.0
3076,251.6337727416667,251.80904396666668,40.0,83.0
3077,251.6337727416667,251.80904396666668,52.0,76.0
3078,251.6337727416667,251.80904396666668,52.0,83.0
3079,251.95985874166666,252.02915201666667,40.0,93.0
3080,251.95985874166666,252.02915201666667,52.0,93.0
3081,252.12290174166668,252.1962710916667,40.0,92.0
3082,252.12290174166668,252.1962710916667,52.0,92.0
3083,251.6337727416667,252.2329557666667,59.0,74.0
3084,251.6337727416667,252.27779259166667,64.0,88.0
3085,251.6337727416667,252.2927382,67.0,89.0
3086,251.6337727416667,252.296814275,71.0,86.0
3087,252.28594474166667,252.36610755,40.0,97.0
3088,252.28594474166667,252.36610755,52.0,97.0
3089,252.44898774166668,252.53866139166666,43.0,88.0
3090,252.44898774166668,252.53866139166666,55.0,88.0
3091,252.61203074166667,252.70578046666668,43.0,72.0
3092,252.61203074166667,252.70578046666668,55.0,72.0
3093,252.7750737416667,252.87289954166667,43.0,75.0
3094,252.7750737416667,252.87289954166667,55.0,75.0
3095,252.93811674166668,253.266920125,43.0,88.0
3096,253.26420274166668,253.266920125,43.0,92.0
3097,252.93811674166668,253.266920125,55.0,62.0
3098,252.93811674166668,253.266920125,55.0,88.0
3099,253.26420274166668,253.266920125,55.0,92.0
3100,253.42724574166667,253.52914761666668,43.0,82.0
3101,253.42724574166667,253.52914761666668,55.0,82.0
3102,252.93811674166668,253.61202780833335,59.0,64.0
3103,252.93811674166668,253.62017995833335,74.0,78.0
3104,253.59028874166668,253.62425603333335,55.0,97.0
3105,252.93811674166668,253.62561472500002,62.0,57.0
3106,252.93811674166668,253.62833210833335,67.0,76.0
3107,252.93811674166668,253.63784295000002,71.0,82.0
3108,253.59028874166668,253.69219061666666,43.0,97.0
3109,253.75333174166667,253.857951,45.0,95.0
3110,253.75333174166667,253.857951,57.0,95.0
3111,253.9163747416667,254.01420054166667,45.0,85.0
3112,253.9163747416667,254.01420054166667,57.0,85.0
3113,254.07941774166667,254.17045008333335,45.0,78.0
3114,254.07941774166667,254.17045008333335,57.0,78.0
3115,254.2424607416667,254.4911013166667,45.0,90.0
3116,254.2424607416667,254.4911013166667,57.0,64.0
3117,254.2424607416667,254.4911013166667,57.0,90.0
3118,254.56854674166667,254.644633475,45.0,93.0
3119,254.56854674166667,254.644633475,57.0,93.0
3120,254.73158974166668,254.80631778333336,45.0,72.0
3121,254.73158974166668,254.80631778333336,57.0,72.0
3122,254.2424607416667,254.86338283333333,61.0,88.0
3123,254.2424607416667,254.88240451666667,64.0,66.0
3124,254.2424607416667,254.8851219,73.0,93.0
3125,254.2424607416667,254.88783928333334,76.0,77.0
3126,254.2424607416667,254.91637180833334,69.0,79.0
3127,254.89463274166667,254.99381723333335,45.0,95.0
3128,254.89463274166667,254.99381723333335,57.0,95.0
3129,255.05767574166669,255.15414285,47.0,88.0
3130,255.05767574166669,255.15414285,59.0,88.0
3131,255.22071874166667,255.31446846666668,47.0,79.0
3132,255.22071874166667,255.31446846666668,59.0,79.0
3133,255.3837617416667,255.47479408333334,47.0,76.0
3134,255.3837617416667,255.47479408333334,59.0,76.0
3135,255.54680474166668,255.79952139166667,47.0,88.0
3136,255.54680474166668,255.79952139166667,59.0,56.0
3137,255.54680474166668,255.79952139166667,59.0,88.0
3138,255.87289074166668,255.94897747500002,47.0,99.0
3139,255.87289074166668,255.94897747500002,59.0,99.0
3140,256.03593374166667,256.1378356166667,47.0,93.0
3141,256.03593374166667,256.1378356166667,59.0,93.0
3142,255.54680474166668,256.1867485166667,63.0,63.0
3143,255.54680474166668,256.18810720833335,66.0,55.0
3144,255.54680474166668,256.193541975,75.0,93.0
3145,255.54680474166668,256.1989767416667,71.0,73.0
3146,255.54680474166668,256.1989767416667,78.0,79.0
3147,256.1989767416667,256.50468236666666,28.0,107.0
3148,256.1989767416667,256.50468236666666,40.0,107.0
3149,256.52506274166666,256.780496775,30.0,100.0
3150,256.52506274166666,256.780496775,42.0,100.0
3151,256.8511487416667,257.106582775,31.0,97.0
3152,256.8511487416667,257.106582775,43.0,97.0
3153,257.17723474166667,257.45576653333336,28.0,92.0
3154,257.17723474166667,257.45576653333336,40.0,92.0
3155,257.5033207416667,257.78456991666667,34.0,127.0
3156,257.5033207416667,257.78456991666667,46.0,127.0
3157,257.8294067416667,258.1188080666667,33.0,97.0
3158,257.8294067416667,258.1188080666667,45.0,97.0
3159,258.1554927416667,258.533209025,31.0,96.0
3160,258.1554927416667,258.533209025,43.0,96.0
3161,258.4815787416667,258.75467576666665,33.0,102.0
3162,258.4815787416667,258.75467576666665,45.0,102.0
3163,258.80766474166666,259.185381025,28.0,99.0
3164,258.80766474166666,259.185381025,40.0,99.0
3165,259.1337507416667,259.46798889166666,30.0,107.0
3166,259.1337507416667,259.46798889166666,42.0,107.0
3167,259.45983674166666,259.7736945166667,31.0,89.0
3168,259.45983674166666,259.7736945166667,43.0,89.0
3169,259.7859227416667,260.12016089166667,28.0,86.0
3170,259.7859227416667,260.12016089166667,40.0,86.0
3171,260.11200874166667,260.4340186666667,34.0,122.0
3172,260.11200874166667,260.4340186666667,46.0,122.0
3173,260.4380947416667,260.74923513333334,33.0,93.0
3174,260.4380947416667,260.74923513333334,45.0,93.0
3175,260.7641807416667,261.1133645,31.0,102.0
3176,260.7641807416667,261.1133645,43.0,102.0
3177,261.09026674166665,261.38917890833335,33.0,97.0
3178,261.09026674166665,261.38917890833335,45.0,97.0
3179,261.4163527416667,261.78999295,28.0,99.0
3180,261.4163527416667,261.78999295,40.0,99.0
3181,261.74243874166666,262.1378180166667,30.0,107.0
3182,261.74243874166666,262.1378180166667,42.0,107.0
3183,262.0685247416667,262.35384999166666,31.0,92.0
3184,262.0685247416667,262.35384999166666,43.0,92.0
3185,262.39461074166667,262.7206967416667,28.0,92.0
3186,262.39461074166667,262.7206967416667,40.0,92.0
3187,262.7206967416667,263.08075003333335,34.0,117.0
3188,262.7206967416667,263.08075003333335,46.0,117.0
3189,263.0467827416667,263.36335790000004,33.0,99.0
3190,263.0467827416667,263.36335790000004,45.0,99.0
3191,263.37286874166665,263.685367825,31.0,112.0
3192,263.37286874166665,263.685367825,43.0,112.0
3193,263.6989547416667,263.7519437166667,33.0,112.0
3194,263.6989547416667,263.7519437166667,45.0,112.0
3195,263.8619977416667,264.288626925,33.0,122.0
3196,263.8619977416667,264.288626925,45.0,122.0
