,start,end,pitch,velocity
0,35.749964845833325,36.10441655208333,59.0,84.0
1,36.160923345833325,36.424621716666664,66.0,79.0
2,36.57188184583333,36.880100720833326,66.0,80.0
3,36.98284034583333,37.08557997083333,59.0,81.0
4,37.18831959583333,37.344141360416664,59.0,77.0
5,37.39379884583333,37.678045141666665,66.0,79.0
6,37.80475734583333,38.719140008333326,66.0,79.0
7,39.03763284583333,39.40235851458333,66.0,81.0
8,39.44859134583333,39.777358145833325,59.0,92.0
9,39.85954984583333,40.08728934791666,62.0,82.0
10,40.06502909583333,40.196878281249994,64.0,80.0
11,40.27050834583333,40.62324772499999,66.0,79.0
12,40.68146684583333,41.914342345833326,64.0,80.0
13,42.325300845833326,42.65235531875,59.0,83.0
14,42.736259345833325,43.001670043749996,64.0,79.0
15,43.147217845833325,43.73283370833333,64.0,78.0
16,43.76365559583333,43.96571019166666,59.0,79.0
17,43.96913484583333,44.24653183333333,64.0,79.0
18,44.38009334583333,45.07872279583333,64.0,79.0
19,45.61296884583333,45.898927468749996,62.0,82.0
20,46.02392734583333,46.299612006249994,62.0,80.0
21,46.43488584583333,46.75851566458333,64.0,80.0
22,46.84584434583333,46.96057026041666,62.0,85.0
23,47.051323595833324,47.18317278124999,64.0,78.0
24,47.25680284583333,47.52221354374999,66.0,78.0
25,47.66776134583333,48.61981520416666,66.0,77.0
26,48.900636845833326,49.26365018749999,66.0,81.0
27,49.311595345833325,49.592416987499995,71.0,79.0
28,49.722553845833325,49.95714265624999,71.0,79.0
29,50.133512345833324,50.27392316666666,69.0,78.0
30,50.33899159583333,50.46399147291666,66.0,80.0
31,50.544470845833324,50.835566449999995,71.0,80.0
32,50.95542934583332,51.65577112291666,71.0,79.0
33,52.18830484583333,52.46570183333333,71.0,79.0
34,52.59926334583333,53.10097518124999,69.0,78.0
35,53.42118034583333,53.566728147916656,66.0,78.0
36,53.626659595833324,53.74652249166666,64.0,78.0
37,53.83213884583333,54.977685664583326,66.0,81.0
38,55.475972845833326,55.75850681458333,59.0,78.0
39,55.886931345833325,56.15234204374999,64.0,78.0
40,56.297889845833325,56.63693060833332,64.0,80.0
41,56.708848345833324,56.82871124166666,62.0,81.0
42,56.91432759583333,57.04446445416666,59.0,78.0
43,57.119806845833324,57.417751758333324,66.0,77.0
44,57.53076534583332,58.36124398124999,64.0,79.0
45,58.76364084583332,59.071859720833324,66.0,79.0
46,59.17459934583333,59.27391431666666,64.0,72.0
47,59.380078595833325,59.520489416666656,66.0,82.0
48,59.58555784583333,59.861242506249994,64.0,79.0
49,59.99651634583333,60.378365285416656,62.0,82.0
50,60.40747484583333,61.902336389583326,59.0,80.0
51,62.051308845833326,62.40576055208332,59.0,84.0
52,62.462267345833325,62.72596571666666,66.0,79.0
53,62.873225845833325,63.181444720833326,66.0,80.0
54,63.284184345833324,63.38692397083332,59.0,81.0
55,63.48966359583333,63.64548536041666,59.0,77.0
56,63.695142845833324,63.97938914166666,66.0,79.0
57,64.10610134583332,65.02048400833333,66.0,79.0
58,65.33897684583333,65.70370251458333,66.0,81.0
59,65.74993534583332,66.07870214583332,59.0,92.0
60,66.16089384583333,66.38863334791665,62.0,82.0
61,66.36637309583332,66.49822228125,64.0,80.0
62,66.57185234583332,66.92459172499998,66.0,79.0
63,66.98281084583333,68.21568634583332,64.0,80.0
64,68.62664484583333,68.95369931875,59.0,83.0
65,69.03760334583332,69.30301404375,64.0,79.0
66,69.44856184583332,70.03417770833332,64.0,78.0
67,70.06499959583333,70.26705419166666,59.0,79.0
68,70.27047884583332,70.54787583333332,64.0,79.0
69,70.68143734583333,71.38006679583333,64.0,79.0
70,71.91431284583332,72.20027146874999,62.0,82.0
71,72.32527134583333,72.60095600624999,62.0,80.0
72,72.73622984583332,73.05985966458333,64.0,80.0
73,73.14718834583333,73.26191426041666,62.0,85.0
74,73.35266759583332,73.48451678125,64.0,78.0
75,73.55814684583332,73.82355754374998,66.0,78.0
76,73.96910534583333,74.92115920416666,66.0,77.0
77,75.20198084583332,75.56499418749999,66.0,81.0
78,75.61293934583333,75.89376098749999,71.0,79.0
79,76.02389784583332,76.25848665624999,71.0,79.0
80,76.43485634583332,76.57526716666666,69.0,78.0
81,76.64033559583332,76.76533547291666,66.0,80.0
82,76.84581484583332,77.13691044999999,73.0,80.0
83,77.25677334583332,77.95711512291666,71.0,79.0
84,78.48964884583333,78.76704583333333,73.0,79.0
85,78.90060734583332,79.31156584583333,73.0,78.0
86,79.31156584583333,79.72252434583332,71.0,79.0
87,79.72252434583332,79.86807214791665,69.0,78.0
88,79.92800359583332,80.04786649166665,66.0,78.0
89,80.13348284583333,81.27902966458332,66.0,81.0
90,81.77731684583333,82.28930264374999,66.0,80.0
91,82.39375459583333,82.52560378124998,71.0,80.0
92,82.59923384583333,82.89546643124999,71.0,78.0
93,83.01019234583332,83.42115084583332,66.0,75.0
94,83.42115084583332,83.79615047708332,66.0,78.0
95,83.83210934583332,83.97423249375,62.0,79.0
96,84.03758859583333,84.23108155624999,66.0,79.0
97,84.24306784583332,84.89032748333332,64.0,84.0
98,85.06498484583332,85.40402560833333,66.0,79.0
99,85.47594334583331,85.63347743749999,64.0,80.0
100,85.68142259583333,85.86806624791666,66.0,79.0
101,85.88690184583332,86.27388776666666,64.0,82.0
102,86.29786034583333,86.45881909166665,62.0,82.0
103,86.50333959583332,86.64888739791665,59.0,83.0
104,86.70881884583332,88.12491334375,59.0,78.0
105,91.64032084583332,92.03244374791666,74.0,87.0
106,92.05127934583332,92.39716941666666,71.0,82.0
107,92.46223784583331,92.75847043124999,74.0,85.0
108,92.87319634583332,92.98620993333333,76.0,83.0
109,93.07867559583332,93.19853849166665,78.0,79.0
110,93.28415484583333,94.61634531666665,78.0,81.0
111,94.92798884583333,95.27216658958332,78.0,83.0
112,95.33894734583332,95.46908420416665,76.0,82.0
113,95.54442659583331,95.69511137916665,78.0,92.0
114,95.74990584583333,96.12319314999999,76.0,89.0
115,96.16086434583332,96.29100120416665,74.0,83.0
116,96.36634359583331,96.50846674374999,71.0,79.0
117,96.57182284583332,97.81839696249999,71.0,79.0
118,98.21565684583332,98.52216339374999,71.0,82.0
119,98.62661534583332,98.94168352916665,71.0,85.0
120,99.03757384583332,99.44510769166665,74.0,82.0
121,99.44853234583331,99.77558681874999,71.0,84.0
122,99.85949084583332,100.18483299166665,78.0,80.0
123,100.27044934583331,101.20537993333332,76.0,85.0
124,101.50332484583332,101.81668070208332,74.0,78.0
125,101.91428334583333,102.18654335208332,71.0,80.0
126,102.32524184583332,102.63174839374999,71.0,80.0
127,102.73620034583332,103.03928223958332,69.0,79.0
128,103.14715884583332,104.53585611041666,66.0,87.0
129,104.79099284583332,105.07866379583332,74.0,85.0
130,105.20195134583332,105.31667726041665,74.0,80.0
131,105.40743059583332,105.52729349166665,74.0,81.0
132,105.61290984583331,105.89886846874998,76.0,80.0
133,106.02386834583332,106.31153929583331,78.0,82.0
134,106.43482684583331,107.70879819583332,78.0,81.0
135,108.07866084583331,108.36633179583332,78.0,83.0
136,108.48961934583332,108.76016702499999,78.0,82.0
137,108.90057784583333,109.24818024374999,76.0,79.0
138,109.31153634583332,109.52044024999998,74.0,82.0
139,109.51701559583331,109.63174151041665,71.0,66.0
140,109.72249484583332,110.88345260833331,71.0,79.0
141,111.36632884583332,111.64715048749999,66.0,69.0
142,111.77728734583332,112.02557477291666,71.0,79.0
143,112.18824584583332,112.53242358958332,74.0,82.0
144,112.59920434583331,112.92797114583333,71.0,82.0
145,113.01016284583332,113.35947757083332,78.0,82.0
146,113.42112134583331,114.33379168124999,76.0,87.0
147,114.65399684583332,114.96221572083331,69.0,80.0
148,115.06495534583331,115.37659887499998,71.0,84.0
149,115.47591384583332,115.77214643124998,74.0,82.0
150,115.88687234583332,116.02385851249998,76.0,80.0
151,116.09235159583332,116.19166656666665,74.0,79.0
152,116.29783084583332,117.65228156874998,71.0,80.0
153,150.8183448458333,151.17279655208333,59.0,84.0
154,151.2293033458333,151.49300171666664,66.0,79.0
155,151.64026184583332,151.94848072083332,66.0,80.0
156,152.05122034583331,152.1539599708333,59.0,81.0
157,152.2566995958333,152.41252136041663,59.0,77.0
158,152.4621788458333,152.74642514166663,66.0,79.0
159,152.8731373458333,153.7875200083333,66.0,79.0
160,154.1060128458333,154.4707385145833,66.0,81.0
161,154.51697134583333,154.8457381458333,59.0,92.0
162,154.92792984583332,155.15566934791664,62.0,82.0
163,155.13340909583331,155.26525828124997,64.0,80.0
164,155.3388883458333,155.691627725,66.0,79.0
165,155.7498468458333,156.9827223458333,64.0,80.0
166,157.3936808458333,157.72073531874997,59.0,83.0
167,157.80463934583332,158.07005004374997,64.0,79.0
168,158.21559784583332,158.8012137083333,64.0,78.0
169,158.8320355958333,159.03409019166665,59.0,79.0
170,159.0375148458333,159.31491183333333,64.0,79.0
171,159.44847334583332,160.14710279583332,64.0,79.0
172,160.6813488458333,160.96730746874996,62.0,82.0
173,161.09230734583332,161.36799200624998,62.0,80.0
174,161.5032658458333,161.8268956645833,64.0,80.0
175,161.9142243458333,162.02895026041665,62.0,85.0
176,162.1197035958333,162.25155278124998,64.0,78.0
177,162.32518284583333,162.59059354374997,66.0,78.0
178,162.73614134583332,163.68819520416665,66.0,77.0
179,163.96901684583332,164.33203018749998,66.0,81.0
180,164.37997534583332,164.66079698749996,71.0,79.0
181,164.7909338458333,165.02552265625,71.0,79.0
182,165.2018923458333,165.34230316666665,69.0,78.0
183,165.40737159583333,165.53237147291665,66.0,80.0
184,165.61285084583332,165.90394644999998,71.0,80.0
185,166.0238093458333,166.72415112291665,71.0,79.0
186,167.25668484583332,167.53408183333332,71.0,79.0
187,167.6676433458333,168.16935518124998,69.0,78.0
188,168.4895603458333,168.63510814791664,66.0,78.0
189,168.69503959583332,168.81490249166666,64.0,78.0
190,168.90051884583332,170.04606566458332,66.0,81.0
191,170.54435284583332,170.8268868145833,59.0,78.0
192,170.9553113458333,171.22072204375,64.0,78.0
193,171.3662698458333,171.70531060833332,64.0,80.0
194,171.77722834583332,171.89709124166666,62.0,81.0
195,171.98270759583332,172.11284445416663,59.0,78.0
196,172.18818684583331,172.4861317583333,66.0,77.0
197,172.5991453458333,173.42962398125,64.0,79.0
198,173.8320208458333,174.1402397208333,66.0,79.0
199,174.2429793458333,174.34229431666665,64.0,72.0
200,174.4484585958333,174.58886941666665,66.0,82.0
201,174.6539378458333,174.92962250624998,64.0,79.0
202,175.06489634583332,175.44674528541665,62.0,82.0
203,175.4758548458333,176.97071638958332,59.0,80.0
204,177.1196888458333,177.4741405520833,59.0,84.0
205,177.5306473458333,177.79434571666664,66.0,79.0
206,177.94160584583332,178.24982472083332,66.0,80.0
207,178.35256434583331,178.4553039708333,59.0,81.0
208,178.5580435958333,178.71386536041663,59.0,77.0
209,178.7635228458333,179.04776914166663,66.0,79.0
210,179.1744813458333,180.0888640083333,66.0,79.0
211,180.4073568458333,180.7720825145833,66.0,81.0
212,180.8183153458333,181.1470821458333,59.0,92.0
213,181.22927384583332,181.45701334791664,62.0,82.0
214,181.43475309583332,181.56660228124997,64.0,80.0
215,181.6402323458333,181.992971725,66.0,79.0
216,182.0511908458333,183.2840663458333,64.0,80.0
217,183.6950248458333,184.02207931874997,59.0,83.0
218,184.10598334583332,184.37139404374997,64.0,79.0
219,184.51694184583332,185.1025577083333,64.0,78.0
220,185.1333795958333,185.33543419166665,59.0,79.0
221,185.3388588458333,185.6162558333333,64.0,79.0
222,185.74981734583332,186.44844679583332,64.0,79.0
223,186.9826928458333,187.26865146874997,62.0,82.0
224,187.39365134583332,187.66933600624998,62.0,80.0
225,187.8046098458333,188.1282396645833,64.0,80.0
226,188.2155683458333,188.33029426041665,62.0,85.0
227,188.4210475958333,188.55289678124998,64.0,78.0
228,188.6265268458333,188.89193754374998,66.0,78.0
229,189.03748534583332,189.98953920416665,66.0,77.0
230,190.2703608458333,190.63337418749998,66.0,81.0
231,190.68131934583332,190.96214098749996,71.0,79.0
232,191.0922778458333,191.32686665624996,71.0,79.0
233,191.5032363458333,191.64364716666665,69.0,78.0
234,191.7087155958333,191.83371547291665,66.0,80.0
235,191.91419484583332,192.20529044999998,73.0,80.0
236,192.32515334583331,193.02549512291665,71.0,79.0
237,193.55802884583332,193.83542583333332,73.0,79.0
238,193.9689873458333,194.3799458458333,73.0,78.0
239,194.3799458458333,194.7909043458333,71.0,79.0
240,194.7909043458333,194.93645214791664,69.0,78.0
241,194.9963835958333,195.11624649166663,66.0,78.0
242,195.20186284583332,196.3474096645833,66.0,81.0
243,196.84569684583332,197.35768264374997,66.0,80.0
244,197.4621345958333,197.59398378124996,71.0,80.0
245,197.6676138458333,197.96384643124998,71.0,78.0
246,198.0785723458333,198.48953084583331,66.0,75.0
247,198.48953084583331,198.86453047708332,66.0,78.0
248,198.9004893458333,199.04261249374997,62.0,79.0
249,199.1059685958333,199.29946155624998,66.0,79.0
250,199.3114478458333,199.9587074833333,64.0,84.0
251,200.1333648458333,200.4724056083333,66.0,79.0
252,200.5443233458333,200.70185743749997,64.0,80.0
253,200.7498025958333,200.93644624791665,66.0,79.0
254,200.9552818458333,201.34226776666665,64.0,82.0
255,201.36624034583332,201.52719909166663,62.0,82.0
256,201.57171959583331,201.71726739791663,59.0,83.0
257,201.7771988458333,203.19329334374999,59.0,78.0
258,206.7087008458333,207.10082374791665,74.0,87.0
259,207.1196593458333,207.46554941666665,71.0,82.0
260,207.53061784583332,207.82685043124997,74.0,85.0
261,207.9415763458333,208.05458993333332,76.0,83.0
262,208.1470555958333,208.26691849166664,78.0,79.0
263,208.3525348458333,209.68472531666663,78.0,81.0
264,209.9963688458333,210.3405465895833,78.0,83.0
265,210.4073273458333,210.53746420416664,76.0,82.0
266,210.61280659583332,210.76349137916665,78.0,92.0
267,210.81828584583332,211.19157314999998,76.0,89.0
268,211.2292443458333,211.35938120416665,74.0,83.0
269,211.4347235958333,211.57684674374997,71.0,79.0
270,211.6402028458333,212.88677696249997,71.0,79.0
271,213.2840368458333,213.59054339374998,71.0,82.0
272,213.6949953458333,214.01006352916664,71.0,85.0
273,214.1059538458333,214.51348769166663,74.0,82.0
274,214.5169123458333,214.84396681874998,71.0,84.0
275,214.9278708458333,215.25321299166663,78.0,80.0
276,215.33882934583332,216.2737599333333,76.0,85.0
277,216.5717048458333,216.8850607020833,74.0,78.0
278,216.98266334583332,217.2549233520833,71.0,80.0
279,217.3936218458333,217.70012839374996,71.0,80.0
280,217.8045803458333,218.1076622395833,69.0,79.0
281,218.2155388458333,219.60423611041665,66.0,87.0
282,219.8593728458333,220.1470437958333,74.0,85.0
283,220.2703313458333,220.38505726041663,74.0,80.0
284,220.4758105958333,220.59567349166664,74.0,81.0
285,220.6812898458333,220.96724846874997,76.0,80.0
286,221.0922483458333,221.3799192958333,78.0,82.0
287,221.5032068458333,222.7771781958333,78.0,81.0
288,223.14704084583332,223.4347117958333,78.0,83.0
289,223.5579993458333,223.82854702499998,78.0,82.0
290,223.9689578458333,224.31656024374996,76.0,79.0
291,224.3799163458333,224.58882024999997,74.0,82.0
292,224.5853955958333,224.70012151041664,71.0,66.0
293,224.79087484583332,225.9518326083333,71.0,79.0
294,226.4347088458333,226.71553048749996,66.0,69.0
295,226.8456673458333,227.09395477291665,71.0,79.0
296,227.2566258458333,227.6008035895833,74.0,82.0
297,227.6675843458333,227.9963511458333,71.0,82.0
298,228.0785428458333,228.4278575708333,78.0,82.0
299,228.4895013458333,229.40217168124997,76.0,87.0
300,229.7223768458333,230.0305957208333,69.0,80.0
301,230.1333353458333,230.44497887499998,71.0,84.0
302,230.5442938458333,230.84052643124997,74.0,82.0
303,230.95525234583332,231.09223851249996,76.0,80.0
304,231.1607315958333,231.26004656666663,74.0,79.0
305,231.3662108458333,232.72066156874996,71.0,80.0
306,233.0100448458333,233.40216774791662,74.0,87.0
307,233.4210033458333,233.76689341666665,71.0,82.0
308,233.8319618458333,234.12819443124997,74.0,85.0
309,234.2429203458333,234.3559339333333,76.0,83.0
310,234.4483995958333,234.56826249166664,78.0,79.0
311,234.6538788458333,235.98606931666663,78.0,81.0
312,236.2977128458333,236.6418905895833,78.0,83.0
313,236.7086713458333,236.83880820416664,76.0,82.0
314,236.9141505958333,237.06483537916662,78.0,92.0
315,237.1196298458333,237.49291714999998,76.0,89.0
316,237.5305883458333,237.66072520416662,74.0,83.0
317,237.7360675958333,237.87819074374997,71.0,79.0
318,237.9415468458333,239.18812096249997,71.0,79.0
319,239.5853808458333,239.89188739374995,71.0,82.0
320,239.9963393458333,240.31140752916664,71.0,85.0
321,240.4072978458333,240.81483169166663,74.0,82.0
322,240.8182563458333,241.14531081874998,71.0,84.0
323,241.2292148458333,241.55455699166663,78.0,80.0
324,241.6401733458333,242.5751039333333,76.0,85.0
325,242.8730488458333,243.1864047020833,74.0,78.0
326,243.2840073458333,243.5562673520833,71.0,80.0
327,243.6949658458333,244.00147239374996,71.0,80.0
328,244.1059243458333,244.4090062395833,69.0,79.0
329,244.5168828458333,245.90558011041662,66.0,87.0
330,246.1607168458333,246.4483877958333,74.0,85.0
331,246.5716753458333,246.68640126041663,74.0,80.0
332,246.7771545958333,246.89701749166665,74.0,81.0
333,246.9826338458333,247.26859246874997,76.0,80.0
334,247.3935923458333,247.6812632958333,78.0,82.0
335,247.8045508458333,249.0785221958333,78.0,81.0
336,249.4483848458333,249.7360557958333,78.0,83.0
337,249.8593433458333,250.12989102499998,78.0,82.0
338,250.2703018458333,250.61790424374996,76.0,79.0
339,250.6812603458333,250.89016424999997,74.0,82.0
340,250.8867395958333,251.00146551041664,71.0,66.0
341,251.0922188458333,252.2531766083333,71.0,79.0
342,252.7360528458333,253.01687448749996,66.0,69.0
343,253.1470113458333,253.39529877291665,71.0,79.0
344,253.5579698458333,253.9021475895833,74.0,82.0
345,253.9689283458333,254.2976951458333,71.0,82.0
346,254.3798868458333,254.7292015708333,78.0,82.0
347,254.7908453458333,255.70351568124997,76.0,87.0
348,256.0237208458333,256.3319397208333,69.0,80.0
349,256.4346793458333,256.746322875,71.0,84.0
350,256.8456378458333,257.14187043124997,74.0,82.0
351,257.2565963458333,257.39358251249996,76.0,80.0
352,257.4620755958333,257.56139056666666,74.0,79.0
353,257.6675548458333,259.02200556875,71.0,80.0
