,start,end,pitch,velocity
0,3.1438325249999997,3.7996537979166662,66.0,69.0
1,2.986298433333333,3.8732838624999997,59.0,74.0
2,3.0719147874999995,3.926366002083333,62.0,70.0
3,4.2020506625,4.464036706249999,59.0,61.0
4,4.465749033333333,5.053077222916666,62.0,56.0
5,3.9143797124999993,5.128419614583333,54.0,32.0
6,3.006846358333333,6.368144422916666,47.0,74.0
7,5.227734585416666,6.398966310416665,66.0,65.0
8,4.7362967125,6.424651216666666,71.0,69.0
9,4.977734831249999,6.493144299999999,59.0,64.0
10,6.869856258333332,7.065061545833332,66.0,64.0
11,6.787664558333333,7.440061177083332,62.0,71.0
12,6.702048204166665,7.4880063354166655,59.0,68.0
13,7.011979406249999,7.888690872916666,71.0,40.0
14,6.707185185416666,8.64553944375,54.0,58.0
15,6.554788074999999,8.864717310416665,47.0,70.0
16,8.7020462375,9.910949158333333,59.0,34.0
17,9.440059210416665,9.979442241666666,62.0,67.0
18,9.878414943749998,10.138688660416665,64.0,75.0
19,10.208894070833331,10.513688291666666,66.0,73.0
20,10.801359241666665,11.542796868749999,62.0,69.0
21,10.462318479166665,11.551358504166664,64.0,67.0
22,11.196906797916665,11.785947314583332,54.0,54.0
23,11.683207689583332,13.239713008333332,59.0,32.0
24,14.049643718749998,14.320191397916664,52.0,69.0
25,14.273958566666664,14.571903479166664,55.0,70.0
26,14.487999452083331,14.82704021458333,57.0,69.0
27,14.748273168749998,15.04793040833333,59.0,73.0
28,15.159231668749998,15.537655954166665,62.0,67.0
29,15.510258720833331,15.917792566666664,52.0,66.0
30,13.835602833333331,16.229436095833332,47.0,62.0
31,16.17806628333333,16.345874337499996,52.0,65.0
32,15.842450174999998,16.51197006458333,64.0,70.0
33,17.090736618749997,17.630119649999997,67.0,67.0
34,16.986284666666663,17.650667574999996,64.0,57.0
35,17.22087347708333,17.958886449999998,76.0,64.0
36,17.582174491666663,18.015393243749998,71.0,72.0
37,17.874982422916663,18.159228718749997,67.0,70.0
38,18.092447962499996,18.392105202083332,64.0,70.0
39,18.328749099999996,18.794502066666663,71.0,67.0
40,18.558200929166663,19.044501820833332,67.0,44.0
41,16.611285035416664,19.236282454166663,47.0,57.0
42,13.539370247916665,19.292789247916666,40.0,81.0
43,18.907515654166666,19.318474154166665,64.0,65.0
44,19.311624845833332,20.407514179166665,62.0,73.0
45,19.311624845833332,20.434911412499996,59.0,68.0
46,19.311624845833332,20.787650791666664,47.0,71.0
47,20.54450034583333,20.839020604166663,54.0,56.0
48,20.74997959583333,21.06847243333333,59.0,71.0
49,20.74997959583333,21.116417591666664,62.0,73.0
50,21.36641734583333,21.460595335416663,59.0,62.0
51,21.57189659583333,21.655800622916665,62.0,70.0
52,21.57189659583333,21.67463622083333,59.0,73.0
53,21.16093809583333,21.683197856249997,54.0,60.0
54,21.77737584583333,21.999978366666664,59.0,79.0
55,21.77737584583333,22.02223861875,62.0,80.0
56,22.18833434583333,22.56847095833333,54.0,68.0
57,20.95545884583333,22.621553097916664,47.0,73.0
58,22.59929284583333,22.621553097916664,47.0,79.0
59,22.59929284583333,22.996552729166662,59.0,78.0
60,22.59929284583333,23.006826691666664,62.0,79.0
61,23.010251345833332,23.29792229583333,54.0,63.0
62,23.21573059583333,23.429771481249997,59.0,79.0
63,23.21573059583333,23.47257965833333,62.0,79.0
64,23.21573059583333,23.525661797916662,66.0,79.0
65,23.62668909583333,23.751688972916664,59.0,76.0
66,23.42120984583333,23.77566155208333,54.0,73.0
67,23.83216834583333,24.071894137499996,62.0,74.0
68,24.03764759583333,24.138674893749997,59.0,71.0
69,24.24312684583333,24.666071635416664,59.0,78.0
70,24.24312684583333,24.688331887499995,62.0,78.0
71,24.65408534583333,24.912646735416665,54.0,59.0
72,24.85956459583333,25.073605481249995,59.0,79.0
73,24.85956459583333,25.07531780833333,62.0,83.0
74,24.85956459583333,25.109564349999996,66.0,81.0
75,25.27052309583333,25.390385991666662,59.0,78.0
76,25.06504384583333,25.513673541666662,54.0,71.0
77,24.24312684583333,25.612988512499996,47.0,79.0
78,25.47600234583333,25.638673418749995,62.0,76.0
79,25.68148159583333,25.787645874999995,59.0,78.0
80,25.88696084583333,26.320179597916663,59.0,78.0
81,25.88696084583333,26.34415217708333,62.0,76.0
82,26.50339859583333,26.604425893749998,59.0,75.0
83,26.708877845833328,26.86298728333333,59.0,78.0
84,26.708877845833328,26.989699487499998,66.0,78.0
85,26.91435709583333,27.029083010416663,59.0,75.0
86,27.11983634583333,27.270521129166664,62.0,78.0
87,25.88696084583333,27.395521006249997,47.0,79.0
88,26.708877845833328,27.421205912499996,54.0,70.0
89,27.32531559583333,27.712301516666663,59.0,79.0
90,27.94175334583333,28.19860240833333,59.0,78.0
91,27.73627409583333,28.23113662291666,54.0,63.0
92,28.14723259583333,28.494834993749997,62.0,79.0
93,28.55819109583333,28.823601793749997,59.0,81.0
94,28.35271184583333,28.83558808333333,54.0,80.0
95,28.76367034583333,28.874971606249996,62.0,82.0
96,27.53079484583333,28.919492110416662,47.0,78.0
97,29.17462884583333,29.55990243958333,57.0,76.0
98,29.17462884583333,29.77223099791666,61.0,78.0
99,29.79106659583333,30.07360056458333,57.0,80.0
100,29.17462884583333,30.215723712499997,42.0,87.0
101,29.58558734583333,30.25853188958333,49.0,60.0
102,29.996545845833328,30.303052393749997,66.0,82.0
103,30.202025095833328,30.441750887499996,61.0,83.0
104,30.407504345833328,30.647230137499996,57.0,82.0
105,30.61298359583333,30.72086020208333,61.0,85.0
106,30.81846284583333,31.150654299999996,59.0,74.0
107,30.81846284583333,31.46058550208333,64.0,77.0
108,30.81846284583333,31.52736625833333,52.0,83.0
109,31.43490059583333,31.546201856249997,59.0,74.0
110,31.64037984583333,31.75510576041666,52.0,82.0
111,31.64037984583333,31.761955068749995,59.0,78.0
112,31.64037984583333,31.849283749999994,64.0,81.0
113,31.64037984583333,31.895516581249996,67.0,79.0
114,31.84585909583333,31.90407821666666,52.0,74.0
115,31.84585909583333,31.910927524999995,59.0,66.0
116,32.05133834583333,32.21914639999999,64.0,83.0
117,32.256817595833326,32.36469420208333,59.0,78.0
118,32.46229684583333,32.852707420833326,57.0,72.0
119,32.46229684583333,32.98113195208333,61.0,69.0
120,33.07873459583333,33.2054468,57.0,80.0
121,32.46229684583333,33.35784391041666,42.0,83.0
122,32.87325534583333,33.39722743333333,49.0,63.0
123,33.28421384583333,33.5033917125,66.0,87.0
124,33.48969309583333,33.63010391666666,61.0,85.0
125,33.69517234583333,33.93318581041666,57.0,80.0
126,33.90065159583333,33.99482958541666,61.0,79.0
127,34.10613084583333,34.551335887499995,59.0,73.0
128,34.10613084583333,34.64380154999999,62.0,78.0
129,34.72256859583333,34.81674658541666,59.0,78.0
130,34.10613084583333,34.87325337916666,47.0,80.0
131,34.51708934583333,34.883527341666664,54.0,74.0
132,34.928047845833326,35.62154031458333,54.0,84.0
133,34.928047845833326,35.64380056666666,47.0,79.0
134,34.928047845833326,35.64893754791666,59.0,82.0
135,34.928047845833326,35.65236220208333,62.0,83.0
136,34.928047845833326,35.65921151041666,66.0,80.0
137,36.160923345833325,36.433183352083326,54.0,69.0
138,36.36640259583333,36.6472242375,59.0,84.0
139,36.98284034583333,37.099278587499995,59.0,79.0
140,35.749964845833325,37.19003192291666,47.0,79.0
141,36.57188184583333,37.20886752083333,54.0,69.0
142,37.18831959583333,37.72427797291666,59.0,80.0
143,36.98284034583333,37.746538224999995,62.0,79.0
144,38.01023659583333,38.13009949166666,59.0,82.0
145,37.80475734583333,38.30989383541666,54.0,74.0
146,38.21571584583333,38.393797862499994,59.0,81.0
147,38.21571584583333,38.440030693749996,66.0,82.0
148,37.39379884583333,38.81845497916666,47.0,79.0
149,38.62667434583333,38.919482277083326,54.0,58.0
150,38.832153595833326,39.157495741666665,59.0,80.0
151,39.44859134583333,39.68660481041666,59.0,78.0
152,39.654070595833325,39.76194720208333,62.0,70.0
153,39.243112095833325,39.960577143749994,54.0,66.0
154,39.85954984583333,40.207152243749995,59.0,82.0
155,39.85954984583333,40.251672747916665,66.0,82.0
156,40.27050834583333,40.390371241666664,54.0,73.0
157,39.03763284583333,40.41263149374999,47.0,80.0
158,40.47598759583333,41.073589747916664,62.0,76.0
159,41.29790459583333,41.42290447291666,64.0,80.0
160,41.503383845833326,41.53078107916666,64.0,66.0
161,41.09242534583333,41.59242485416666,47.0,71.0
162,41.503383845833326,41.68317818958333,59.0,80.0
163,41.503383845833326,41.765369889583326,67.0,80.0
164,41.914342345833326,42.07530109166666,59.0,78.0
165,41.70886309583333,42.08557505416666,47.0,78.0
166,40.68146684583333,42.150643483333326,40.0,80.0
167,42.11982159583333,42.42632814374999,59.0,63.0
168,42.11982159583333,42.787629158333324,64.0,78.0
169,42.94173859583333,43.04619054791666,59.0,79.0
170,42.736259345833325,43.253382124999995,47.0,67.0
171,43.147217845833325,43.27735470416666,59.0,81.0
172,43.147217845833325,43.35269709583333,64.0,80.0
173,43.35269709583333,43.50851886041666,47.0,71.0
174,42.325300845833326,43.54447772916666,40.0,80.0
175,43.558176345833324,43.700299493749995,59.0,80.0
176,44.38009334583333,44.72084643541666,52.0,79.0
177,44.17461409583333,44.86125725624999,47.0,75.0
178,44.79105184583333,45.00680505833333,52.0,79.0
179,43.96913484583333,45.11639399166666,40.0,81.0
180,44.996531095833326,45.13865424375,47.0,78.0
181,44.79105184583333,45.44344846458333,64.0,82.0
182,45.20201034583333,45.44858544583333,52.0,84.0
183,45.407489595833326,45.70714683541666,59.0,78.0
184,46.02392734583333,46.28248873541666,55.0,73.0
185,46.229406595833325,46.33214622083333,59.0,72.0
186,45.818448095833325,46.55646106875,50.0,72.0
187,45.61296884583333,46.763652645833325,43.0,79.0
188,46.43488584583333,46.84926899999999,55.0,79.0
189,46.84584434583333,46.89207717708333,43.0,59.0
190,46.84584434583333,46.993104474999996,50.0,80.0
191,46.43488584583333,47.13522762291666,62.0,79.0
192,46.43488584583333,47.142076931249996,59.0,79.0
193,47.051323595833324,47.229405612499995,55.0,81.0
194,47.25680284583333,47.72598046666666,61.0,70.0
195,47.462282095833324,47.963993931249995,49.0,67.0
196,47.66776134583333,47.97598022083333,54.0,79.0
197,47.87324059583333,48.22255532083333,66.0,80.0
198,47.25680284583333,48.294473058333324,42.0,84.0
199,48.07871984583333,48.323582618749995,49.0,74.0
200,48.28419909583333,48.38865104791666,54.0,78.0
201,48.28419909583333,48.52906186874999,61.0,73.0
202,48.489678345833326,48.74823973541666,54.0,87.0
203,48.69515759583333,48.85611634166666,61.0,76.0
204,49.51707459583333,49.62323887499999,59.0,79.0
205,49.311595345833325,49.82186881666666,54.0,76.0
206,48.900636845833326,49.943444039583326,47.0,81.0
207,49.722553845833325,49.95543032916666,62.0,79.0
208,49.722553845833325,49.98282756249999,59.0,80.0
209,49.722553845833325,50.01878643124999,66.0,78.0
210,50.133512345833324,50.42289562291666,54.0,68.0
211,50.33899159583333,50.63693650833333,59.0,78.0
212,50.33899159583333,50.66604606874999,62.0,79.0
213,50.95542934583332,51.12837438124999,59.0,78.0
214,50.74995009583333,51.44344256458333,54.0,61.0
215,51.36638784583332,51.544469862499994,59.0,80.0
216,51.36638784583332,51.58899036666666,66.0,79.0
217,50.544470845833324,51.63693552499999,47.0,78.0
218,51.571867095833326,51.791044962499996,54.0,72.0
219,51.77734634583333,51.93488043749999,59.0,83.0
220,51.982825595833326,52.43316761874999,62.0,64.0
221,52.59926334583333,52.72426322291666,59.0,71.0
222,52.804742595833325,52.936591781249994,62.0,78.0
223,52.393784095833325,52.94172876249999,54.0,60.0
224,53.01022184583333,53.24823531041666,54.0,73.0
225,52.18830484583333,53.313303739583326,47.0,80.0
226,53.215701095833325,53.321865374999994,59.0,74.0
227,53.215701095833325,53.45713921458333,62.0,79.0
228,53.215701095833325,53.52905695208332,66.0,79.0
229,53.42118034583333,53.54618022291666,59.0,72.0
230,53.83213884583333,54.05474136666666,57.0,71.0
231,53.83213884583333,54.26022061666666,61.0,73.0
232,54.24309734583333,54.503371062499994,57.0,68.0
233,54.44857659583332,54.55816552916666,61.0,76.0
234,54.65405584583333,54.85953509583332,57.0,78.0
235,54.037618095833324,54.94857610416666,49.0,59.0
236,53.83213884583333,55.01364453333333,42.0,77.0
237,54.65405584583333,55.02734314999999,61.0,87.0
238,54.65405584583333,55.30645246458332,66.0,80.0
239,55.065014345833326,55.31330177291666,49.0,67.0
240,55.27049359583333,55.60610970416666,57.0,78.0
241,55.475972845833326,55.702000020833324,55.0,73.0
242,55.475972845833326,55.895492981249994,59.0,74.0
243,55.886931345833325,56.16090367916666,55.0,73.0
244,56.09241059583333,56.22425978124999,64.0,82.0
245,56.297889845833325,56.51364305833333,59.0,84.0
246,55.68145209583333,56.86467011041666,47.0,65.0
247,55.475972845833326,56.95028646458333,40.0,82.0
248,56.708848345833324,56.99309464166666,55.0,78.0
249,56.91432759583333,57.37836823541666,59.0,83.0
250,57.53076534583332,57.63692962499999,55.0,74.0
251,57.32528609583333,57.79960069791666,47.0,67.0
252,57.73624459583333,57.98624434999999,55.0,78.0
253,57.119806845833324,58.05302510624999,40.0,81.0
254,57.73624459583333,58.20028523541666,59.0,79.0
255,57.94172384583332,58.232819449999994,47.0,82.0
256,57.73624459583333,58.241381085416656,64.0,80.0
257,58.35268234583332,58.609531408333325,55.0,68.0
258,58.558161595833326,58.707134052083326,59.0,69.0
259,59.17459934583333,59.475968912499994,57.0,81.0
260,59.380078595833325,59.48281822083332,61.0,81.0
261,59.58555784583333,59.63692765833333,66.0,84.0
262,58.969120095833325,59.72596866666666,49.0,71.0
263,58.76364084583332,59.91774929999999,42.0,79.0
264,59.791037095833325,60.04274917708332,61.0,69.0
265,59.99651634583333,60.273913333333326,57.0,80.0
266,60.201995595833324,60.35439270624999,61.0,80.0
267,60.81843334583333,60.931446933333326,59.0,79.0
268,60.612954095833324,61.051309829166655,54.0,42.0
269,61.02391259583332,61.24309046249999,59.0,80.0
270,61.02391259583332,61.28247398541666,62.0,81.0
271,61.43487109583332,61.60267914999999,59.0,70.0
272,60.40747484583333,61.92117198749999,47.0,82.0
273,61.640350345833326,61.928021295833325,59.0,78.0
274,61.43487109583332,61.928021295833325,66.0,74.0
275,61.22939184583333,61.94000758541666,54.0,75.0
276,61.84582959583332,61.99480205208332,62.0,79.0
277,62.462267345833325,62.734527352083326,54.0,69.0
278,62.66774659583332,62.94856823749999,59.0,84.0
279,63.284184345833324,63.40062258749999,59.0,79.0
280,62.051308845833326,63.49137592291666,47.0,79.0
281,62.873225845833325,63.51021152083332,54.0,69.0
282,63.48966359583333,64.02562197291665,59.0,80.0
283,63.284184345833324,64.047882225,62.0,79.0
284,64.31158059583332,64.43144349166666,59.0,82.0
285,64.10610134583332,64.61123783541666,54.0,74.0
286,64.51705984583333,64.6951418625,59.0,81.0
287,64.51705984583333,64.74137469374999,66.0,82.0
288,63.695142845833324,65.11979897916666,47.0,79.0
289,64.92801834583332,65.22082627708332,54.0,58.0
290,65.13349759583332,65.45883974166665,59.0,80.0
291,65.74993534583332,65.98794881041665,59.0,78.0
292,65.95541459583332,66.06329120208332,62.0,70.0
293,65.54445609583333,66.26192114374999,54.0,66.0
294,66.16089384583333,66.50849624374999,59.0,82.0
295,66.16089384583333,66.55301674791666,66.0,82.0
296,66.57185234583332,66.69171524166666,54.0,73.0
297,65.33897684583333,66.71397549374998,47.0,80.0
298,66.77733159583333,67.37493374791666,62.0,76.0
299,67.59924859583333,67.72424847291666,64.0,80.0
300,67.80472784583333,67.83212507916666,64.0,66.0
301,67.39376934583332,67.89376885416665,47.0,71.0
302,67.80472784583333,67.98452218958333,59.0,80.0
303,67.80472784583333,68.06671388958333,67.0,80.0
304,68.21568634583332,68.37664509166666,59.0,78.0
305,68.01020709583332,68.38691905416665,47.0,78.0
306,66.98281084583333,68.45198748333333,40.0,80.0
307,68.42116559583333,68.72767214374998,59.0,63.0
308,68.42116559583333,69.08897315833332,64.0,78.0
309,69.24308259583333,69.34753454791665,59.0,79.0
310,69.03760334583332,69.55472612499999,47.0,67.0
311,69.44856184583332,69.57869870416665,59.0,81.0
312,69.44856184583332,69.65404109583332,64.0,80.0
313,69.65404109583332,69.80986286041666,47.0,71.0
314,68.62664484583333,69.84582172916666,40.0,80.0
315,69.85952034583332,70.00164349375,59.0,80.0
316,70.68143734583333,71.02219043541666,52.0,79.0
317,70.47595809583332,71.16260125624999,47.0,75.0
318,71.09239584583332,71.30814905833333,52.0,79.0
319,70.27047884583332,71.41773799166666,40.0,81.0
320,71.29787509583332,71.43999824375,47.0,78.0
321,71.09239584583332,71.74479246458333,64.0,82.0
322,71.50335434583333,71.74992944583332,52.0,84.0
323,71.70883359583333,72.00849083541665,59.0,78.0
324,72.32527134583333,72.58383273541666,55.0,73.0
325,72.53075059583333,72.63349022083332,59.0,72.0
326,72.11979209583332,72.85780506875,50.0,72.0
327,71.91431284583332,73.06499664583332,43.0,79.0
328,72.73622984583332,73.15061299999999,55.0,79.0
329,73.14718834583333,73.19342117708332,43.0,59.0
330,73.14718834583333,73.294448475,50.0,80.0
331,72.73622984583332,73.43657162291666,62.0,79.0
332,72.73622984583332,73.44342093124999,59.0,79.0
333,73.35266759583332,73.53074961249999,55.0,81.0
334,73.55814684583332,74.02732446666666,61.0,70.0
335,73.76362609583332,74.26533793124999,49.0,67.0
336,73.96910534583333,74.27732422083332,54.0,79.0
337,74.17458459583332,74.52389932083332,66.0,80.0
338,73.55814684583332,74.59581705833332,42.0,84.0
339,74.38006384583332,74.62492661875,49.0,74.0
340,74.58554309583333,74.68999504791665,54.0,78.0
341,74.58554309583333,74.83040586874999,61.0,73.0
342,74.79102234583333,75.04958373541666,54.0,87.0
343,74.99650159583332,75.15746034166666,61.0,76.0
344,75.61293934583333,75.74821318541666,59.0,80.0
345,75.40746009583333,75.90574727708332,54.0,68.0
346,75.81841859583332,76.10951419999999,62.0,78.0
347,75.20198084583332,76.67800679166666,47.0,79.0
348,76.02389784583332,76.67971911874999,54.0,71.0
349,76.43485634583332,76.91430792916665,66.0,87.0
350,76.64033559583332,77.01019824583332,59.0,80.0
351,77.25677334583332,77.4759512125,59.0,79.0
352,77.05129409583333,77.73964958333332,54.0,73.0
353,77.66773184583332,78.05300543958332,59.0,80.0
354,77.66773184583332,78.07697801874998,62.0,78.0
355,76.84581484583332,78.13177248541666,47.0,78.0
356,78.07869034583332,78.2464984,54.0,72.0
357,77.66773184583332,78.36636129583333,66.0,79.0
358,78.28416959583332,78.45711463125,59.0,85.0
359,78.90060734583332,79.10951124999998,61.0,78.0
360,79.10608659583332,79.28759326666666,57.0,78.0
361,78.69512809583333,79.47937389999998,49.0,68.0
362,78.48964884583333,79.59238748749999,42.0,85.0
363,79.51704509583332,79.73793528958332,49.0,69.0
364,79.31156584583333,79.75677088749998,66.0,87.0
365,79.72252434583332,79.96225013749999,61.0,84.0
366,79.92800359583332,80.10266095833332,57.0,79.0
367,80.54444134583332,80.78759179166666,62.0,76.0
368,80.74992059583332,80.85437254791665,59.0,79.0
369,80.33896209583332,81.02389292916665,54.0,79.0
370,80.95539984583333,81.17800236666666,59.0,80.0
371,80.95539984583333,81.22252287083332,62.0,79.0
372,80.13348284583333,81.39204325208333,47.0,79.0
373,81.16087909583332,81.41944048541666,54.0,72.0
374,80.95539984583333,81.46909797083332,66.0,80.0
375,81.36635834583332,81.65745394999999,59.0,80.0
376,81.57183759583332,81.70368678124998,62.0,75.0
377,81.77731684583333,82.05813848749999,59.0,74.0
378,81.77731684583333,82.21909723333333,62.0,77.0
379,82.18827534583332,82.32526151249999,59.0,79.0
380,81.98279609583332,82.45026138958332,54.0,64.0
381,82.39375459583333,82.70882277916665,59.0,75.0
382,82.39375459583333,82.85779523541666,66.0,81.0
383,82.59923384583333,82.89204177708332,54.0,79.0
384,81.77731684583333,82.98108278541666,47.0,80.0
385,83.01019234583332,83.25505511875,62.0,85.0
386,83.21567159583333,83.35265776249999,59.0,79.0
387,83.42115084583332,83.46909600416666,59.0,63.0
388,83.42115084583332,83.85094494375,64.0,78.0
389,83.83210934583332,84.09580771666666,59.0,75.0
390,84.03758859583333,84.13690356666666,64.0,78.0
391,83.62663009583332,84.29786231249999,47.0,71.0
392,84.24306784583332,84.48621829166666,59.0,79.0
393,84.24306784583332,84.60265653333332,64.0,83.0
394,83.42115084583332,84.60779351458332,40.0,81.0
395,84.44854709583332,84.61635514999999,47.0,77.0
396,84.24306784583332,84.64717703749999,67.0,76.0
397,84.65402634583332,84.95197125833332,59.0,80.0
398,84.85950559583333,84.98621779999999,64.0,79.0
399,85.06498484583332,85.32012158124999,57.0,76.0
400,85.06498484583332,85.52731315833333,61.0,77.0
401,85.47594334583331,85.73621706249999,57.0,74.0
402,85.68142259583333,85.78929920208333,61.0,79.0
403,85.27046409583332,85.95710725624998,49.0,73.0
404,85.06498484583332,86.07012084374999,42.0,80.0
405,85.88690184583332,86.10094273124999,57.0,80.0
406,85.88690184583332,86.21053166458333,61.0,84.0
407,86.09238109583332,86.21224399166665,49.0,79.0
408,85.88690184583332,86.35607946666666,66.0,79.0
409,86.29786034583333,86.54957242708332,57.0,80.0
410,86.50333959583332,86.61464085624999,61.0,65.0
411,86.70881884583332,87.07868149583332,62.0,79.0
412,86.70881884583332,87.08381847708333,59.0,76.0
413,87.32525659583332,87.42799622083332,59.0,81.0
414,87.11977734583333,87.60779056458333,54.0,75.0
415,87.53073584583332,87.73450276874999,59.0,79.0
416,87.53073584583332,87.76018767499998,66.0,80.0
417,87.94169434583333,88.21395435208332,59.0,78.0
418,88.14717359583332,88.30984466874999,62.0,77.0
419,86.70881884583332,88.34922819166665,47.0,80.0
420,87.73621509583332,88.35436517291666,54.0,79.0
421,88.35265284583332,88.35436517291666,54.0,80.0
422,88.35265284583332,88.76703599999999,66.0,80.0
423,88.76361134583333,88.93141939999998,52.0,79.0
424,88.76361134583333,88.93141939999998,64.0,79.0
425,88.96909059583332,89.09751512708333,57.0,80.0
426,88.96909059583332,89.09751512708333,69.0,80.0
427,89.17456984583332,89.55128180416665,52.0,84.0
428,89.17456984583332,89.55128180416665,64.0,84.0
429,89.58552834583332,89.74135011041666,50.0,79.0
430,89.58552834583332,89.74135011041666,62.0,79.0
431,89.79100759583332,89.89374722083332,47.0,80.0
432,89.79100759583332,89.89374722083332,59.0,80.0
433,89.99648684583332,90.34751389791666,47.0,84.0
434,89.99648684583332,90.34751389791666,59.0,84.0
435,90.81840384583332,91.49134838958332,59.0,69.0
436,90.81840384583332,91.50675933333332,62.0,70.0
437,90.81840384583332,91.50847166041666,66.0,67.0
438,90.81840384583332,91.57354008958332,47.0,79.0
439,91.64032084583332,92.04614236458332,59.0,78.0
440,91.64032084583332,92.15059431666666,62.0,76.0
441,92.25675859583332,92.35778589374999,59.0,77.0
442,91.64032084583332,92.55641583541666,47.0,79.0
443,92.05127934583332,92.57696376041666,54.0,68.0
444,92.46223784583331,92.85436074791666,59.0,80.0
445,92.46223784583331,92.90230590624999,62.0,83.0
446,92.46223784583331,92.93141546666665,66.0,78.0
447,92.87319634583332,93.21394943541665,54.0,72.0
448,93.07867559583332,93.58381208541665,59.0,83.0
449,93.90059259583332,94.02559247291666,59.0,79.0
450,93.69511334583332,94.15572933124999,54.0,75.0
451,94.10607184583333,94.31668807708333,59.0,80.0
452,94.10607184583333,94.38175650624999,62.0,80.0
453,93.28415484583333,94.38518116041665,47.0,79.0
454,94.31155109583332,94.44168795416665,54.0,73.0
455,94.10607184583333,94.45024958958332,66.0,79.0
456,94.51703034583332,94.6540165125,59.0,80.0
457,94.92798884583333,95.33381036458331,57.0,79.0
458,94.92798884583333,95.55812521249999,61.0,73.0
459,95.54442659583331,95.64545389374999,57.0,78.0
460,95.33894734583332,95.78586471458333,49.0,71.0
461,94.92798884583333,95.84750848958332,42.0,81.0
462,95.74990584583333,95.95367276874998,57.0,79.0
463,95.74990584583333,96.04442610416666,61.0,84.0
464,95.95538509583332,96.06668635624999,49.0,77.0
465,95.74990584583333,96.12319314999999,66.0,78.0
466,96.16086434583332,96.39545315624999,57.0,80.0
467,96.36634359583331,96.47250787499999,61.0,76.0
468,96.57182284583332,96.95367178541666,62.0,70.0
469,96.57182284583332,96.96394574791665,59.0,59.0
470,97.18826059583333,97.29442487499999,59.0,79.0
471,96.98278134583332,97.52901368541666,54.0,76.0
472,96.57182284583332,97.54271230208332,47.0,70.0
473,97.39373984583332,97.77216413125,59.0,79.0
474,97.39373984583332,97.79956136458333,62.0,79.0
475,97.39373984583332,97.90401331666665,66.0,81.0
476,97.80469834583332,98.11462954791665,54.0,74.0
477,98.01017759583333,98.34579370416665,59.0,87.0
478,98.62661534583332,98.75332754999998,59.0,79.0
479,98.83209459583333,98.92627258541665,62.0,71.0
480,98.42113609583332,99.09236831249999,54.0,67.0
481,99.03757384583332,99.26360102083332,59.0,80.0
482,99.03757384583332,99.28072429166666,62.0,80.0
483,98.21565684583332,99.28243661874998,47.0,79.0
484,99.03757384583332,99.39031322499999,66.0,79.0
485,99.24305309583332,99.40401184166666,54.0,69.0
486,99.44853234583331,99.71051838958331,59.0,84.0
487,99.85949084583332,100.08038103958332,59.0,78.0
488,99.85949084583332,100.11633990833332,64.0,78.0
489,100.27044934583331,100.54099702499998,59.0,80.0
490,100.47592859583332,100.57181891249999,64.0,76.0
491,100.06497009583332,100.78414747083332,47.0,73.0
492,99.85949084583332,100.88517476874999,40.0,81.0
493,100.68140784583332,100.92455829166666,59.0,79.0
494,100.68140784583332,101.01188697291666,64.0,83.0
495,100.68140784583332,101.02558558958332,67.0,79.0
496,101.09236634583333,101.21051691458332,40.0,80.0
497,101.50332484583332,101.90400938333332,55.0,73.0
498,101.50332484583332,101.95537919583332,59.0,77.0
499,102.11976259583332,102.21907756666666,55.0,74.0
500,101.91428334583333,102.39544725624998,50.0,72.0
501,101.50332484583332,102.57524159999998,43.0,79.0
502,102.32524184583332,102.68996751458332,55.0,80.0
503,102.32524184583332,102.75332361666665,59.0,79.0
504,102.32524184583332,102.81325506458332,62.0,78.0
505,102.73620034583332,102.86120022291665,50.0,79.0
506,102.94167959583332,103.01188500624998,55.0,78.0
507,103.14715884583332,103.63345973749999,61.0,85.0
508,103.76359659583332,103.85263760416666,57.0,79.0
509,103.55811734583332,104.05811685416666,49.0,79.0
510,103.14715884583332,104.07010314374999,42.0,80.0
511,103.96907584583332,104.16770578749998,57.0,80.0
512,103.96907584583332,104.21736327291666,61.0,87.0
513,104.17455509583331,104.29613031874999,49.0,82.0
514,103.96907584583332,104.33037686041665,66.0,79.0
515,104.38003434583332,104.62147246458332,57.0,82.0
516,104.58551359583332,104.68825322083332,61.0,83.0
517,104.79099284583332,105.19681436458332,59.0,78.0
518,104.79099284583332,105.30126631666666,62.0,76.0
519,105.40743059583332,105.50845789374999,59.0,77.0
520,104.79099284583332,105.70708783541666,47.0,79.0
521,105.20195134583332,105.72763576041665,54.0,68.0
522,105.61290984583331,106.00503274791666,59.0,80.0
523,105.61290984583331,106.05297790624999,62.0,83.0
524,105.61290984583331,106.08208746666665,66.0,78.0
525,106.02386834583332,106.36462143541665,54.0,72.0
526,106.22934759583332,106.73448408541665,59.0,83.0
527,107.05126459583332,107.17626447291666,59.0,79.0
528,106.84578534583332,107.30640133124999,54.0,75.0
529,107.25674384583331,107.46736007708331,59.0,80.0
530,107.25674384583331,107.53242850624999,62.0,80.0
531,106.43482684583331,107.53585316041665,47.0,79.0
532,107.46222309583332,107.59235995416665,54.0,73.0
533,107.25674384583331,107.60092158958332,66.0,79.0
534,107.66770234583332,107.80468851249998,59.0,80.0
535,108.07866084583331,108.48448236458331,57.0,79.0
536,108.07866084583331,108.70879721249999,61.0,73.0
537,108.69509859583331,108.79612589374999,57.0,78.0
538,108.48961934583332,108.93653671458331,49.0,71.0
539,108.07866084583331,108.99818048958332,42.0,81.0
540,108.90057784583333,109.10434476874998,57.0,79.0
541,108.90057784583333,109.19509810416665,61.0,84.0
542,109.10605709583332,109.21735835624999,49.0,77.0
543,108.90057784583333,109.27386514999999,66.0,78.0
544,109.31153634583332,109.54612515624999,57.0,80.0
545,109.51701559583331,109.62317987499999,61.0,76.0
546,109.72249484583332,110.10434378541665,62.0,70.0
547,109.72249484583332,110.11461774791665,59.0,59.0
548,110.33893259583331,110.44509687499999,59.0,79.0
549,110.13345334583332,110.67968568541666,54.0,76.0
550,109.72249484583332,110.69338430208332,47.0,70.0
551,110.54441184583332,110.92283613124998,59.0,79.0
552,110.54441184583332,110.95023336458331,62.0,79.0
553,110.54441184583332,111.05468531666665,66.0,81.0
554,110.95537034583332,111.26530154791665,54.0,74.0
555,111.16084959583331,111.49646570416665,59.0,87.0
556,111.77728734583332,111.90399954999998,59.0,79.0
557,111.98276659583331,112.07694458541665,62.0,71.0
558,111.57180809583332,112.24304031249999,54.0,67.0
559,112.18824584583332,112.41427302083332,59.0,80.0
560,112.18824584583332,112.43139629166666,62.0,80.0
561,111.36632884583332,112.43310861874998,47.0,79.0
562,112.18824584583332,112.54098522499999,66.0,79.0
563,112.39372509583332,112.55468384166664,54.0,69.0
564,112.59920434583331,112.86119038958331,59.0,84.0
565,113.01016284583332,113.23105303958332,59.0,78.0
566,113.01016284583332,113.26701190833332,64.0,78.0
567,113.42112134583331,113.69166902499998,59.0,80.0
568,113.62660059583332,113.72249091249998,64.0,76.0
569,113.21564209583332,113.93481947083332,47.0,73.0
570,113.01016284583332,114.03584676874999,40.0,81.0
571,113.83207984583332,114.07523029166666,59.0,79.0
572,113.83207984583332,114.16255897291666,64.0,83.0
573,113.83207984583332,114.17625758958332,67.0,79.0
574,114.24303834583331,114.36118891458332,40.0,80.0
575,114.65399684583332,114.88858565624999,57.0,78.0
576,114.65399684583332,115.08550327083331,61.0,78.0
577,115.06495534583331,115.32522906249999,57.0,72.0
578,115.27043459583332,115.36461258541665,61.0,78.0
579,114.85947609583332,115.57180416249999,49.0,75.0
580,114.65399684583332,115.60433837708332,42.0,80.0
581,115.47591384583332,115.70707800208332,57.0,79.0
582,115.47591384583332,115.78584504791665,61.0,85.0
583,115.47591384583332,115.78755737499999,66.0,79.0
584,115.68139309583331,115.81666693541665,49.0,75.0
585,115.88687234583332,116.12317348333332,57.0,80.0
586,116.09235159583332,116.20365285624999,61.0,78.0
587,116.29783084583332,116.70707701874998,59.0,78.0
588,116.29783084583332,116.85262482083331,62.0,80.0
589,116.29783084583332,116.97077538958332,47.0,78.0
590,116.70878934583332,116.99988494999998,54.0,72.0
591,116.91426859583332,117.04954243541665,59.0,80.0
592,117.11974784583332,117.84234987499998,59.0,77.0
593,117.11974784583332,117.85947314583332,62.0,80.0
594,117.11974784583332,117.86118547291665,66.0,72.0
595,117.11974784583332,117.88515805208331,47.0,80.0
596,120.61289509583332,120.85090856041666,59.0,78.0
597,120.81837434583332,121.07008642708331,54.0,76.0
598,121.02385359583332,121.19337397708331,57.0,75.0
599,121.22933284583331,121.73618166249999,59.0,78.0
600,121.22933284583331,121.74131864374998,62.0,78.0
601,121.64029134583332,122.18309903124998,54.0,72.0
602,122.05124984583331,122.26186607708331,62.0,79.0
603,121.22933284583331,122.27556469374998,47.0,80.0
604,122.05124984583331,122.28070167499999,66.0,80.0
605,122.05124984583331,122.29097563749998,59.0,79.0
606,122.66768759583331,123.00844068541664,59.0,78.0
607,122.66768759583331,123.10775565624998,62.0,78.0
608,123.28412534583332,123.43481012916665,59.0,80.0
609,123.07864609583332,123.55981000624999,54.0,70.0
610,122.87316684583331,123.56323466041665,47.0,74.0
611,123.69508384583332,123.90398774999998,47.0,76.0
612,123.69508384583332,123.93994661874999,54.0,79.0
613,123.69508384583332,123.96734385208332,59.0,79.0
614,123.69508384583332,123.98960410416665,62.0,78.0
615,124.10604234583332,124.28926134374998,59.0,78.0
616,124.51700084583332,124.85604160833331,59.0,73.0
617,124.51700084583332,124.86631557083332,62.0,78.0
618,124.92795934583332,125.09919205416665,59.0,78.0
619,124.92795934583332,125.11802765208331,62.0,76.0
620,125.33891784583332,125.49302728333332,59.0,79.0
621,125.33891784583332,125.49645193749998,66.0,79.0
622,124.51700084583332,126.01186238958331,47.0,78.0
623,125.95535559583331,126.15398553749998,66.0,78.0
624,125.95535559583331,126.15569786458332,59.0,79.0
625,126.36631409583332,126.51186189791665,59.0,78.0
626,126.57179334583331,126.86460127708331,54.0,72.0
627,126.77727259583331,126.89199851041666,59.0,79.0
628,126.98275184583332,127.18138178749999,59.0,79.0
629,126.98275184583332,127.18651876874998,62.0,87.0
630,126.16083484583332,127.24131323541665,47.0,77.0
631,127.18823109583332,127.33035424374998,54.0,71.0
632,127.39371034583331,127.68480594999998,59.0,74.0
633,127.59918959583332,127.74131274374999,62.0,74.0
634,127.80466884583332,127.90569614374998,40.0,80.0
635,127.80466884583332,128.12487401041665,59.0,78.0
636,127.80466884583332,128.12829866458333,64.0,79.0
637,128.21562734583333,128.38857238125,64.0,80.0
638,128.21562734583333,128.4005586708333,59.0,75.0
639,128.62658584583332,128.83035276874998,67.0,73.0
640,128.62658584583332,128.8663116375,59.0,74.0
641,128.62658584583332,129.28240711874997,52.0,69.0
642,129.2430235958333,129.53240687291665,59.0,75.0
643,129.2430235958333,129.55637945208332,64.0,77.0
644,129.65398209583333,129.77213266458332,59.0,74.0
645,129.85946134583332,129.93822839166666,64.0,74.0
646,129.4485028458333,130.12487204374997,52.0,72.0
647,130.06494059583332,130.14370764166665,59.0,75.0
648,130.27041984583332,130.51185796458333,59.0,78.0
649,130.27041984583332,130.53240588958332,64.0,82.0
650,130.27041984583332,130.8149398583333,52.0,80.0
651,130.6813783458333,130.85432338124997,62.0,78.0
652,131.09233684583333,131.26014489999997,59.0,73.0
653,131.09233684583333,131.26014489999997,64.0,74.0
654,131.50329534583332,131.63856918541666,64.0,66.0
655,131.50329534583332,131.65226780208332,59.0,65.0
656,131.09233684583333,132.05637699374998,52.0,70.0
657,131.91425384583331,132.30637674791666,67.0,72.0
658,131.91425384583331,132.34918492499997,64.0,79.0
659,131.91425384583331,132.3508972520833,59.0,77.0
660,132.3252123458333,132.41939033541664,52.0,53.0
661,132.5306915958333,132.84062279791664,59.0,79.0
662,132.5306915958333,132.90740355416665,64.0,80.0
663,133.14712934583332,133.2550059520833,59.0,82.0
664,132.94165009583332,133.43651262291664,47.0,75.0
665,133.35260859583332,133.6351425645833,59.0,81.0
666,132.73617084583333,133.68993703124997,40.0,80.0
667,133.35260859583332,133.7361698625,64.0,82.0
668,133.5580878458333,133.76014244166666,47.0,75.0
669,133.7635670958333,133.9125395520833,59.0,82.0
670,133.9690463458333,134.09918320416665,64.0,78.0
671,134.38000484583333,134.64199088958333,59.0,75.0
672,134.38000484583333,134.6522648520833,62.0,76.0
673,134.79096334583332,134.93308649374998,59.0,62.0
674,134.79096334583332,134.9399358020833,62.0,66.0
675,135.2019218458333,135.53240097291666,59.0,73.0
676,135.2019218458333,135.5409626083333,62.0,73.0
677,135.2019218458333,135.57007216875,66.0,69.0
678,134.38000484583333,135.84575682916665,47.0,81.0
679,135.81835959583333,136.09404425625,59.0,78.0
680,135.81835959583333,136.11116752708332,62.0,78.0
681,135.81835959583333,136.14027708749998,66.0,72.0
682,136.43479734583332,136.54609860624998,59.0,78.0
683,136.22931809583332,136.69849571666666,54.0,62.0
684,136.6402765958333,136.88856402291665,59.0,78.0
685,136.6402765958333,136.89883798541666,62.0,78.0
686,137.0512350958333,137.17281031874998,59.0,74.0
687,136.8457558458333,137.198495225,54.0,68.0
688,136.02383884583332,137.29952252291665,47.0,77.0
689,137.0512350958333,137.3423307,62.0,73.0
690,137.0512350958333,137.3697279333333,66.0,69.0
691,137.2567143458333,137.39198818541664,59.0,73.0
692,137.66767284583332,137.9399328520833,62.0,70.0
693,137.66767284583332,137.94506983333332,59.0,72.0
694,138.07863134583332,138.2567133625,59.0,65.0
695,138.07863134583332,138.2686996520833,62.0,70.0
696,137.66767284583332,138.66082255416666,47.0,75.0
697,138.4895898458333,138.8800004208333,66.0,70.0
698,138.4895898458333,138.88684972916664,59.0,74.0
699,138.4895898458333,138.89198671041666,62.0,76.0
700,138.90054834583333,139.22589049166666,54.0,54.0
701,139.10602759583332,139.36116433125,59.0,74.0
702,139.10602759583332,139.42280810625,62.0,73.0
703,139.10602759583332,139.4347943958333,66.0,72.0
704,139.7224653458333,139.82691729791665,59.0,77.0
705,139.51698609583332,139.95705415625,54.0,67.0
706,139.9279445958333,140.18650598541666,59.0,79.0
707,139.9279445958333,140.19164296666665,62.0,79.0
708,139.31150684583332,140.28239630208333,47.0,79.0
709,140.1334238458333,140.4108208333333,54.0,74.0
710,140.3389030958333,140.4930125333333,59.0,76.0
711,140.3389030958333,140.53753303749997,62.0,76.0
712,140.3389030958333,140.61972473749998,66.0,77.0
713,140.54438234583333,140.67623153124998,59.0,75.0
714,140.95534084583332,141.1539707875,59.0,69.0
715,140.95534084583332,141.24472412291664,64.0,75.0
716,141.3662993458333,141.62314840833332,59.0,75.0
717,140.95534084583332,141.83718929375,52.0,60.0
718,141.7772578458333,141.97246313333332,64.0,80.0
719,141.7772578458333,141.97588778749997,67.0,77.0
720,141.7772578458333,141.97931244166665,59.0,77.0
721,142.39369559583332,142.64198302291663,59.0,78.0
722,142.39369559583332,142.67451723749997,64.0,79.0
723,142.8046540958333,142.93992793541665,59.0,75.0
724,142.59917484583332,143.05122919583332,40.0,79.0
725,143.0101333458333,143.07691410208332,64.0,66.0
726,143.2156125958333,143.30979058541664,59.0,81.0
727,143.4210918458333,143.60088618958332,59.0,78.0
728,143.4210918458333,143.70705046874997,64.0,78.0
729,143.4210918458333,143.74129701041664,67.0,71.0
730,143.4210918458333,143.8371873270833,52.0,83.0
731,143.83205034583332,143.98958443749999,59.0,77.0
732,144.24300884583332,144.40054293749998,59.0,78.0
733,144.24300884583332,144.47417300208332,64.0,78.0
734,144.24300884583332,144.56150168333332,52.0,84.0
735,144.6539673458333,144.7875288583333,59.0,72.0
736,145.0649258458333,145.19677503124998,59.0,78.0
737,145.0649258458333,145.28581603958332,64.0,80.0
738,145.0649258458333,145.40054195416664,67.0,79.0
739,145.47588434583332,145.7738292583333,59.0,78.0
740,145.68136359583332,145.9638975645833,64.0,79.0
741,145.8868428458333,146.26013014999998,40.0,83.0
742,146.0923220958333,146.33204788749998,59.0,78.0
743,146.2978013458333,146.54266411874997,64.0,79.0
744,146.5032805958333,146.60944487499998,67.0,76.0
745,146.70875984583333,146.87314324583332,59.0,80.0
746,146.70875984583333,147.00156777708332,67.0,79.0
747,146.70875984583333,147.0409513,64.0,82.0
748,147.11971834583332,147.25499218541665,59.0,78.0
749,147.5306768458333,147.91595043958333,59.0,75.0
750,147.5306768458333,147.97588188749998,62.0,74.0
751,147.9416353458333,148.4656074333333,54.0,49.0
752,148.35259384583333,148.70704555208331,59.0,79.0
753,148.35259384583333,148.71560718749998,62.0,78.0
754,148.35259384583333,148.72416882291665,66.0,78.0
755,147.5306768458333,148.98101788541663,47.0,80.0
756,148.76355234583332,148.99814115624997,54.0,48.0
757,148.96903159583331,149.29437374166665,59.0,75.0
758,148.96903159583331,149.35944217083332,62.0,73.0
759,148.96903159583331,149.4056750020833,66.0,74.0
760,149.5854693458333,149.73101714791665,59.0,77.0
761,149.99642784583332,150.20019476874998,59.0,79.0
762,149.99642784583332,150.42279728958331,62.0,79.0
763,149.3799900958333,150.472454775,54.0,57.0
764,149.1745108458333,150.51697527916664,47.0,78.0
765,149.99642784583332,150.5255369145833,66.0,78.0
766,151.2293033458333,151.5015633520833,54.0,69.0
767,151.43478259583333,151.71560423749997,59.0,84.0
768,152.05122034583331,152.16765858749997,59.0,79.0
769,150.8183448458333,152.25841192291665,47.0,79.0
770,151.64026184583332,152.2772475208333,54.0,69.0
771,152.2566995958333,152.79265797291666,59.0,80.0
772,152.05122034583331,152.81491822499999,62.0,79.0
773,153.07861659583332,153.19847949166666,59.0,82.0
774,152.8731373458333,153.37827383541665,54.0,74.0
775,153.28409584583332,153.46217786249997,59.0,81.0
776,153.28409584583332,153.50841069374997,66.0,82.0
777,152.4621788458333,153.88683497916665,47.0,79.0
778,153.6950543458333,153.9878622770833,54.0,58.0
779,153.9005335958333,154.22587574166664,59.0,80.0
780,154.51697134583333,154.75498481041666,59.0,78.0
781,154.72245059583332,154.8303272020833,62.0,70.0
782,154.3114920958333,155.02895714374998,54.0,66.0
783,154.92792984583332,155.27553224374998,59.0,82.0
784,154.92792984583332,155.32005274791663,66.0,82.0
785,155.3388883458333,155.45875124166665,54.0,73.0
786,154.1060128458333,155.48101149374997,47.0,80.0
787,155.5443675958333,156.14196974791665,62.0,76.0
788,156.36628459583332,156.49128447291665,64.0,80.0
789,156.57176384583332,156.59916107916663,64.0,66.0
790,156.16080534583332,156.66080485416666,47.0,71.0
791,156.57176384583332,156.7515581895833,59.0,80.0
792,156.57176384583332,156.83374988958332,67.0,80.0
793,156.9827223458333,157.14368109166665,59.0,78.0
794,156.7772430958333,157.15395505416666,47.0,78.0
795,155.7498468458333,157.2190234833333,40.0,80.0
796,157.1882015958333,157.49470814375,59.0,63.0
797,157.1882015958333,157.8560091583333,64.0,78.0
798,158.01011859583332,158.11457054791666,59.0,79.0
799,157.80463934583332,158.321762125,47.0,67.0
800,158.21559784583332,158.34573470416666,59.0,81.0
801,158.21559784583332,158.4210770958333,64.0,80.0
802,158.4210770958333,158.57689886041663,47.0,71.0
803,157.3936808458333,158.61285772916665,40.0,80.0
804,158.6265563458333,158.76867949374997,59.0,80.0
805,159.44847334583332,159.78922643541665,52.0,79.0
806,159.24299409583332,159.92963725624998,47.0,75.0
807,159.8594318458333,160.07518505833332,52.0,79.0
808,159.0375148458333,160.18477399166665,40.0,81.0
809,160.0649110958333,160.20703424374997,47.0,78.0
810,159.8594318458333,160.51182846458332,64.0,82.0
811,160.2703903458333,160.5169654458333,52.0,84.0
812,160.4758695958333,160.77552683541666,59.0,78.0
813,161.09230734583332,161.35086873541664,55.0,73.0
814,161.29778659583332,161.4005262208333,59.0,72.0
815,160.88682809583332,161.62484106875,50.0,72.0
816,160.6813488458333,161.83203264583332,43.0,79.0
817,161.5032658458333,161.91764899999998,55.0,79.0
818,161.9142243458333,161.9604571770833,43.0,59.0
819,161.9142243458333,162.061484475,50.0,80.0
820,161.5032658458333,162.20360762291665,62.0,79.0
821,161.5032658458333,162.21045693124998,59.0,79.0
822,162.1197035958333,162.29778561249998,55.0,81.0
823,162.32518284583333,162.79436046666663,61.0,70.0
824,162.53066209583332,163.03237393125,49.0,67.0
825,162.73614134583332,163.0443602208333,54.0,79.0
826,162.9416205958333,163.2909353208333,66.0,80.0
827,162.32518284583333,163.36285305833331,42.0,84.0
828,163.1470998458333,163.39196261874997,49.0,74.0
829,163.3525790958333,163.45703104791664,54.0,78.0
830,163.3525790958333,163.59744186874997,61.0,73.0
831,163.5580583458333,163.81661973541665,54.0,87.0
832,163.7635375958333,163.92449634166664,61.0,76.0
833,164.5854545958333,164.691618875,59.0,79.0
834,164.37997534583332,164.89024881666666,54.0,76.0
835,163.96901684583332,165.0118240395833,47.0,81.0
836,164.7909338458333,165.02381032916665,62.0,79.0
837,164.7909338458333,165.05120756249997,59.0,80.0
838,164.7909338458333,165.08716643124998,66.0,78.0
839,165.2018923458333,165.49127562291665,54.0,68.0
840,165.40737159583333,165.7053165083333,59.0,78.0
841,165.40737159583333,165.73442606874997,62.0,79.0
842,166.0238093458333,166.19675438124997,59.0,78.0
843,165.81833009583332,166.5118225645833,54.0,61.0
844,166.4347678458333,166.61284986249998,59.0,80.0
845,166.4347678458333,166.65737036666664,66.0,79.0
846,165.61285084583332,166.70531552499997,47.0,78.0
847,166.6402470958333,166.8594249625,54.0,72.0
848,166.8457263458333,167.0032604375,59.0,83.0
849,167.05120559583332,167.50154761874998,62.0,64.0
850,167.6676433458333,167.79264322291664,59.0,71.0
851,167.8731225958333,168.00497178124996,62.0,78.0
852,167.46216409583332,168.01010876249998,54.0,60.0
853,168.0786018458333,168.31661531041664,54.0,73.0
854,167.25668484583332,168.3816837395833,47.0,80.0
855,168.2840810958333,168.39024537499998,59.0,74.0
856,168.2840810958333,168.5255192145833,62.0,79.0
857,168.2840810958333,168.5974369520833,66.0,79.0
858,168.4895603458333,168.61456022291665,59.0,72.0
859,168.90051884583332,169.12312136666665,57.0,71.0
860,168.90051884583332,169.32860061666665,61.0,73.0
861,169.3114773458333,169.57175106249997,57.0,68.0
862,169.5169565958333,169.62654552916663,61.0,76.0
863,169.7224358458333,169.9279150958333,57.0,78.0
864,169.1059980958333,170.01695610416664,49.0,59.0
865,168.90051884583332,170.0820245333333,42.0,77.0
866,169.7224358458333,170.09572314999997,61.0,87.0
867,169.7224358458333,170.3748324645833,66.0,80.0
868,170.13339434583332,170.38168177291664,49.0,67.0
869,170.33887359583332,170.67448970416663,57.0,78.0
870,170.54435284583332,170.7703800208333,55.0,73.0
871,170.54435284583332,170.96387298124998,59.0,74.0
872,170.9553113458333,171.22928367916666,55.0,73.0
873,171.1607905958333,171.29263978125,64.0,82.0
874,171.3662698458333,171.5820230583333,59.0,84.0
875,170.7498320958333,171.93305011041664,47.0,65.0
876,170.54435284583332,172.0186664645833,40.0,82.0
877,171.77722834583332,172.06147464166665,55.0,78.0
878,171.98270759583332,172.44674823541663,59.0,83.0
879,172.5991453458333,172.70530962499998,55.0,74.0
880,172.3936660958333,172.86798069791664,47.0,67.0
881,172.8046245958333,173.05462434999998,55.0,78.0
882,172.18818684583331,173.12140510624997,40.0,81.0
883,172.8046245958333,173.26866523541665,59.0,79.0
884,173.0101038458333,173.30119944999998,47.0,82.0
885,172.8046245958333,173.30976108541665,64.0,80.0
886,173.42106234583332,173.6779114083333,55.0,68.0
887,173.62654159583332,173.7755140520833,59.0,69.0
888,174.2429793458333,174.54434891249997,57.0,81.0
889,174.4484585958333,174.5511982208333,61.0,81.0
890,174.6539378458333,174.7053076583333,66.0,84.0
891,174.0375000958333,174.79434866666665,49.0,71.0
892,173.8320208458333,174.9861293,42.0,79.0
893,174.85941709583332,175.1111291770833,61.0,69.0
894,175.06489634583332,175.34229333333332,57.0,80.0
895,175.27037559583331,175.42277270625,61.0,80.0
896,175.8868133458333,175.9998269333333,59.0,79.0
897,175.6813340958333,176.11968982916665,54.0,42.0
898,176.0922925958333,176.31147046249998,59.0,80.0
899,176.0922925958333,176.35085398541665,62.0,81.0
900,176.50325109583332,176.67105915,59.0,70.0
901,175.4758548458333,176.98955198749996,47.0,82.0
902,176.70873034583332,176.99640129583332,59.0,78.0
903,176.50325109583332,176.99640129583332,66.0,74.0
904,176.2977718458333,177.00838758541664,54.0,75.0
905,176.9142095958333,177.0631820520833,62.0,79.0
906,177.5306473458333,177.8029073520833,54.0,69.0
907,177.7361265958333,178.01694823749997,59.0,84.0
908,178.35256434583331,178.46900258749997,59.0,79.0
909,177.1196888458333,178.55975592291665,47.0,79.0
910,177.94160584583332,178.5785915208333,54.0,69.0
911,178.5580435958333,179.09400197291663,59.0,80.0
912,178.35256434583331,179.11626222499999,62.0,79.0
913,179.3799605958333,179.49982349166663,59.0,82.0
914,179.1744813458333,179.67961783541665,54.0,74.0
915,179.58543984583332,179.76352186249997,59.0,81.0
916,179.58543984583332,179.80975469374997,66.0,82.0
917,178.7635228458333,180.18817897916665,47.0,79.0
918,179.9963983458333,180.2892062770833,54.0,58.0
919,180.2018775958333,180.52721974166664,59.0,80.0
920,180.8183153458333,181.05632881041663,59.0,78.0
921,181.02379459583332,181.1316712020833,62.0,70.0
922,180.6128360958333,181.33030114374998,54.0,66.0
923,181.22927384583332,181.57687624374998,59.0,82.0
924,181.22927384583332,181.62139674791663,66.0,82.0
925,181.6402323458333,181.76009524166665,54.0,73.0
926,180.4073568458333,181.78235549374998,47.0,80.0
927,181.8457115958333,182.44331374791665,62.0,76.0
928,182.66762859583332,182.79262847291665,64.0,80.0
929,182.87310784583332,182.90050507916663,64.0,66.0
930,182.4621493458333,182.96214885416666,47.0,71.0
931,182.87310784583332,183.0529021895833,59.0,80.0
932,182.87310784583332,183.13509388958332,67.0,80.0
933,183.2840663458333,183.44502509166665,59.0,78.0
934,183.0785870958333,183.45529905416663,47.0,78.0
935,182.0511908458333,183.5203674833333,40.0,80.0
936,183.4895455958333,183.79605214375,59.0,63.0
937,183.4895455958333,184.1573531583333,64.0,78.0
938,184.31146259583332,184.41591454791663,59.0,79.0
939,184.10598334583332,184.62310612499996,47.0,67.0
940,184.51694184583332,184.64707870416663,59.0,81.0
941,184.51694184583332,184.7224210958333,64.0,80.0
942,184.7224210958333,184.87824286041663,47.0,71.0
943,183.6950248458333,184.91420172916665,40.0,80.0
944,184.9279003458333,185.07002349374997,59.0,80.0
945,185.74981734583332,186.09057043541665,52.0,79.0
946,185.5443380958333,186.23098125624998,47.0,75.0
947,186.1607758458333,186.37652905833332,52.0,79.0
948,185.3388588458333,186.48611799166665,40.0,81.0
949,186.3662550958333,186.50837824374997,47.0,78.0
950,186.1607758458333,186.81317246458332,64.0,82.0
951,186.5717343458333,186.8183094458333,52.0,84.0
952,186.7772135958333,187.07687083541663,59.0,78.0
953,187.39365134583332,187.65221273541664,55.0,73.0
954,187.59913059583332,187.7018702208333,59.0,72.0
955,187.1881720958333,187.92618506875,50.0,72.0
956,186.9826928458333,188.1333766458333,43.0,79.0
957,187.8046098458333,188.21899299999998,55.0,79.0
958,188.2155683458333,188.2618011770833,43.0,59.0
959,188.2155683458333,188.362828475,50.0,80.0
960,187.8046098458333,188.50495162291665,62.0,79.0
961,187.8046098458333,188.51180093124998,59.0,79.0
962,188.4210475958333,188.59912961249998,55.0,81.0
963,188.6265268458333,189.09570446666663,61.0,70.0
964,188.83200609583332,189.33371793124996,49.0,67.0
965,189.03748534583332,189.3457042208333,54.0,79.0
966,189.2429645958333,189.5922793208333,66.0,80.0
967,188.6265268458333,189.66419705833331,42.0,84.0
968,189.4484438458333,189.69330661874997,49.0,74.0
969,189.6539230958333,189.75837504791664,54.0,78.0
970,189.6539230958333,189.89878586874997,61.0,73.0
971,189.8594023458333,190.11796373541665,54.0,87.0
972,190.0648815958333,190.22584034166664,61.0,76.0
973,190.68131934583332,190.81659318541665,59.0,80.0
974,190.47584009583332,190.9741272770833,54.0,68.0
975,190.8867985958333,191.17789419999997,62.0,78.0
976,190.2703608458333,191.74638679166665,47.0,79.0
977,191.0922778458333,191.74809911874996,54.0,71.0
978,191.5032363458333,191.98268792916664,66.0,87.0
979,191.7087155958333,192.0785782458333,59.0,80.0
980,192.32515334583331,192.54433121249997,59.0,79.0
981,192.11967409583332,192.8080295833333,54.0,73.0
982,192.7361118458333,193.12138543958332,59.0,80.0
983,192.7361118458333,193.14535801875,62.0,78.0
984,191.91419484583332,193.20015248541665,47.0,78.0
985,193.1470703458333,193.31487839999997,54.0,72.0
986,192.7361118458333,193.4347412958333,66.0,79.0
987,193.3525495958333,193.52549463124998,59.0,85.0
988,193.9689873458333,194.17789125,61.0,78.0
989,194.1744665958333,194.35597326666664,57.0,78.0
990,193.76350809583332,194.54775389999998,49.0,68.0
991,193.55802884583332,194.66076748749998,42.0,85.0
992,194.5854250958333,194.8063152895833,49.0,69.0
993,194.3799458458333,194.82515088749997,66.0,87.0
994,194.7909043458333,195.03063013749997,61.0,84.0
995,194.9963835958333,195.1710409583333,57.0,79.0
996,195.6128213458333,195.85597179166663,62.0,76.0
997,195.8183005958333,195.92275254791664,59.0,79.0
998,195.40734209583331,196.09227292916665,54.0,79.0
999,196.0237798458333,196.24638236666664,59.0,80.0
1000,196.0237798458333,196.29090287083332,62.0,79.0
1001,195.20186284583332,196.4604232520833,47.0,79.0
1002,196.2292590958333,196.48782048541665,54.0,72.0
1003,196.0237798458333,196.5374779708333,66.0,80.0
1004,196.4347383458333,196.72583394999998,59.0,80.0
1005,196.64021759583332,196.77206678124998,62.0,75.0
1006,196.84569684583332,197.12651848749996,59.0,74.0
1007,196.84569684583332,197.2874772333333,62.0,77.0
1008,197.2566553458333,197.39364151249998,59.0,79.0
1009,197.0511760958333,197.5186413895833,54.0,64.0
1010,197.4621345958333,197.77720277916663,59.0,75.0
1011,197.4621345958333,197.92617523541665,66.0,81.0
1012,197.6676138458333,197.9604217770833,54.0,79.0
1013,196.84569684583332,198.04946278541664,47.0,80.0
1014,198.0785723458333,198.32343511874998,62.0,85.0
1015,198.28405159583332,198.42103776249996,59.0,79.0
1016,198.48953084583331,198.53747600416665,59.0,63.0
1017,198.48953084583331,198.91932494374998,64.0,78.0
1018,198.9004893458333,199.16418771666665,59.0,75.0
1019,199.1059685958333,199.20528356666665,64.0,78.0
1020,198.6950100958333,199.36624231249996,47.0,71.0
1021,199.3114478458333,199.55459829166665,59.0,79.0
1022,199.3114478458333,199.6710365333333,64.0,83.0
1023,198.48953084583331,199.6761735145833,40.0,81.0
1024,199.5169270958333,199.68473514999997,47.0,77.0
1025,199.3114478458333,199.71555703749996,67.0,76.0
1026,199.72240634583332,200.0203512583333,59.0,80.0
1027,199.92788559583332,200.05459779999998,64.0,79.0
1028,200.1333648458333,200.38850158124998,57.0,76.0
1029,200.1333648458333,200.59569315833332,61.0,77.0
1030,200.5443233458333,200.80459706249997,57.0,74.0
1031,200.7498025958333,200.85767920208332,61.0,79.0
1032,200.3388440958333,201.02548725624996,49.0,73.0
1033,200.1333648458333,201.13850084374997,42.0,80.0
1034,200.9552818458333,201.16932273124996,57.0,80.0
1035,200.9552818458333,201.27891166458332,61.0,84.0
1036,201.1607610958333,201.28062399166663,49.0,79.0
1037,200.9552818458333,201.42445946666663,66.0,79.0
1038,201.36624034583332,201.6179524270833,57.0,80.0
1039,201.57171959583331,201.68302085624998,61.0,65.0
1040,201.7771988458333,202.1470614958333,62.0,79.0
1041,201.7771988458333,202.15219847708332,59.0,76.0
1042,202.3936365958333,202.4963762208333,59.0,81.0
1043,202.1881573458333,202.67617056458332,54.0,75.0
1044,202.5991158458333,202.80288276874998,59.0,79.0
1045,202.5991158458333,202.82856767499996,66.0,80.0
1046,203.01007434583332,203.2823343520833,59.0,78.0
1047,203.2155535958333,203.37822466874997,62.0,77.0
1048,201.7771988458333,203.41760819166663,47.0,80.0
1049,202.8045950958333,203.42274517291665,54.0,79.0
1050,203.4210328458333,203.42274517291665,54.0,80.0
1051,203.4210328458333,203.83541599999998,66.0,80.0
1052,203.8319913458333,203.99979939999997,52.0,79.0
1053,203.8319913458333,203.99979939999997,64.0,79.0
1054,204.0374705958333,204.1658951270833,57.0,80.0
1055,204.0374705958333,204.1658951270833,69.0,80.0
1056,204.2429498458333,204.61966180416664,52.0,84.0
1057,204.2429498458333,204.61966180416664,64.0,84.0
1058,204.65390834583332,204.80973011041664,50.0,79.0
1059,204.65390834583332,204.80973011041664,62.0,79.0
1060,204.8593875958333,204.9621272208333,47.0,80.0
1061,204.8593875958333,204.9621272208333,59.0,80.0
1062,205.0648668458333,205.41589389791665,47.0,84.0
1063,205.0648668458333,205.41589389791665,59.0,84.0
1064,205.8867838458333,206.5597283895833,59.0,69.0
1065,205.8867838458333,206.5751393333333,62.0,70.0
1066,205.8867838458333,206.57685166041665,66.0,67.0
1067,205.8867838458333,206.6419200895833,47.0,79.0
1068,206.7087008458333,207.1145223645833,59.0,78.0
1069,206.7087008458333,207.21897431666665,62.0,76.0
1070,207.3251385958333,207.42616589374998,59.0,77.0
1071,206.7087008458333,207.62479583541665,47.0,79.0
1072,207.1196593458333,207.64534376041664,54.0,68.0
1073,207.53061784583332,207.92274074791663,59.0,80.0
1074,207.53061784583332,207.97068590624997,62.0,83.0
1075,207.53061784583332,207.99979546666663,66.0,78.0
1076,207.9415763458333,208.28232943541664,54.0,72.0
1077,208.1470555958333,208.65219208541663,59.0,83.0
1078,208.9689725958333,209.09397247291665,59.0,79.0
1079,208.7634933458333,209.22410933124996,54.0,75.0
1080,209.17445184583332,209.3850680770833,59.0,80.0
1081,209.17445184583332,209.45013650624998,62.0,80.0
1082,208.3525348458333,209.45356116041663,47.0,79.0
1083,209.3799310958333,209.51006795416663,54.0,73.0
1084,209.17445184583332,209.5186295895833,66.0,79.0
1085,209.5854103458333,209.72239651249998,59.0,80.0
1086,209.9963688458333,210.4021903645833,57.0,79.0
1087,209.9963688458333,210.62650521249998,61.0,73.0
1088,210.61280659583332,210.71383389374998,57.0,78.0
1089,210.4073273458333,210.8542447145833,49.0,71.0
1090,209.9963688458333,210.9158884895833,42.0,81.0
1091,210.81828584583332,211.02205276874997,57.0,79.0
1092,210.81828584583332,211.11280610416665,61.0,84.0
1093,211.0237650958333,211.13506635624998,49.0,77.0
1094,210.81828584583332,211.19157314999998,66.0,78.0
1095,211.2292443458333,211.46383315624996,57.0,80.0
1096,211.4347235958333,211.54088787499998,61.0,76.0
1097,211.6402028458333,212.02205178541664,62.0,70.0
1098,211.6402028458333,212.03232574791664,59.0,59.0
1099,212.25664059583332,212.36280487499997,59.0,79.0
1100,212.0511613458333,212.59739368541665,54.0,76.0
1101,211.6402028458333,212.6110923020833,47.0,70.0
1102,212.4621198458333,212.84054413124997,59.0,79.0
1103,212.4621198458333,212.86794136458332,62.0,79.0
1104,212.4621198458333,212.97239331666663,66.0,81.0
1105,212.8730783458333,213.18300954791664,54.0,74.0
1106,213.0785575958333,213.41417370416664,59.0,87.0
1107,213.6949953458333,213.82170754999999,59.0,79.0
1108,213.90047459583332,213.99465258541665,62.0,71.0
1109,213.4895160958333,214.16074831249998,54.0,67.0
1110,214.1059538458333,214.3319810208333,59.0,80.0
1111,214.1059538458333,214.34910429166663,62.0,80.0
1112,213.2840368458333,214.35081661874997,47.0,79.0
1113,214.1059538458333,214.45869322499996,66.0,79.0
1114,214.3114330958333,214.47239184166665,54.0,69.0
1115,214.5169123458333,214.7788983895833,59.0,84.0
1116,214.9278708458333,215.1487610395833,59.0,78.0
1117,214.9278708458333,215.1847199083333,64.0,78.0
1118,215.33882934583332,215.60937702499996,59.0,80.0
1119,215.54430859583331,215.64019891249998,64.0,76.0
1120,215.1333500958333,215.8525274708333,47.0,73.0
1121,214.9278708458333,215.95355476874997,40.0,81.0
1122,215.7497878458333,215.99293829166663,59.0,79.0
1123,215.7497878458333,216.08026697291663,64.0,83.0
1124,215.7497878458333,216.0939655895833,67.0,79.0
1125,216.1607463458333,216.2788969145833,40.0,80.0
1126,216.5717048458333,216.9723893833333,55.0,73.0
1127,216.5717048458333,217.0237591958333,59.0,77.0
1128,217.1881425958333,217.28745756666663,55.0,74.0
1129,216.98266334583332,217.46382725624997,50.0,72.0
1130,216.5717048458333,217.64362159999996,43.0,79.0
1131,217.3936218458333,217.7583475145833,55.0,80.0
1132,217.3936218458333,217.82170361666664,59.0,79.0
1133,217.3936218458333,217.8816350645833,62.0,78.0
1134,217.8045803458333,217.92958022291663,50.0,79.0
1135,218.0100595958333,218.08026500624996,55.0,78.0
1136,218.2155388458333,218.70183973749997,61.0,85.0
1137,218.8319765958333,218.92101760416665,57.0,79.0
1138,218.62649734583331,219.12649685416665,49.0,79.0
1139,218.2155388458333,219.13848314374997,42.0,80.0
1140,219.0374558458333,219.23608578749997,57.0,80.0
1141,219.0374558458333,219.28574327291665,61.0,87.0
1142,219.2429350958333,219.36451031874998,49.0,82.0
1143,219.0374558458333,219.39875686041663,66.0,79.0
1144,219.4484143458333,219.6898524645833,57.0,82.0
1145,219.6538935958333,219.7566332208333,61.0,83.0
1146,219.8593728458333,220.2651943645833,59.0,78.0
1147,219.8593728458333,220.36964631666663,62.0,76.0
1148,220.4758105958333,220.57683789374997,59.0,77.0
1149,219.8593728458333,220.77546783541663,47.0,79.0
1150,220.2703313458333,220.79601576041665,54.0,68.0
1151,220.6812898458333,221.07341274791665,59.0,80.0
1152,220.6812898458333,221.12135790624998,62.0,83.0
1153,220.6812898458333,221.15046746666664,66.0,78.0
1154,221.0922483458333,221.43300143541663,54.0,72.0
1155,221.2977275958333,221.80286408541664,59.0,83.0
1156,222.1196445958333,222.24464447291663,59.0,79.0
1157,221.9141653458333,222.37478133124998,54.0,75.0
1158,222.3251238458333,222.5357400770833,59.0,80.0
1159,222.3251238458333,222.60080850624996,62.0,80.0
1160,221.5032068458333,222.60423316041664,47.0,79.0
1161,222.5306030958333,222.66073995416664,54.0,73.0
1162,222.3251238458333,222.6693015895833,66.0,79.0
1163,222.7360823458333,222.87306851249997,59.0,80.0
1164,223.14704084583332,223.5528623645833,57.0,79.0
1165,223.14704084583332,223.77717721249996,61.0,73.0
1166,223.7634785958333,223.86450589374996,57.0,78.0
1167,223.5579993458333,224.00491671458332,49.0,71.0
1168,223.14704084583332,224.0665604895833,42.0,81.0
1169,223.9689578458333,224.17272476874996,57.0,79.0
1170,223.9689578458333,224.26347810416664,61.0,84.0
1171,224.1744370958333,224.28573835624996,49.0,77.0
1172,223.9689578458333,224.34224514999997,66.0,78.0
1173,224.3799163458333,224.61450515624998,57.0,80.0
1174,224.5853955958333,224.69155987499997,61.0,76.0
1175,224.79087484583332,225.17272378541665,62.0,70.0
1176,224.79087484583332,225.18299774791663,59.0,59.0
1177,225.4073125958333,225.51347687499998,59.0,79.0
1178,225.2018333458333,225.74806568541663,54.0,76.0
1179,224.79087484583332,225.7617643020833,47.0,70.0
1180,225.6127918458333,225.99121613124996,59.0,79.0
1181,225.6127918458333,226.0186133645833,62.0,79.0
1182,225.6127918458333,226.12306531666664,66.0,81.0
1183,226.0237503458333,226.33368154791663,54.0,74.0
1184,226.22922959583332,226.56484570416663,59.0,87.0
1185,226.8456673458333,226.97237954999997,59.0,79.0
1186,227.0511465958333,227.14532458541663,62.0,71.0
1187,226.6401880958333,227.31142031249996,54.0,67.0
1188,227.2566258458333,227.4826530208333,59.0,80.0
1189,227.2566258458333,227.49977629166665,62.0,80.0
1190,226.4347088458333,227.50148861874996,47.0,79.0
1191,227.2566258458333,227.60936522499998,66.0,79.0
1192,227.4621050958333,227.62306384166664,54.0,69.0
1193,227.6675843458333,227.9295703895833,59.0,84.0
1194,228.0785428458333,228.2994330395833,59.0,78.0
1195,228.0785428458333,228.3353919083333,64.0,78.0
1196,228.4895013458333,228.76004902499997,59.0,80.0
1197,228.6949805958333,228.79087091249997,64.0,76.0
1198,228.2840220958333,229.0031994708333,47.0,73.0
1199,228.0785428458333,229.10422676874998,40.0,81.0
1200,228.9004598458333,229.14361029166665,59.0,79.0
1201,228.9004598458333,229.23093897291665,64.0,83.0
1202,228.9004598458333,229.2446375895833,67.0,79.0
1203,229.3114183458333,229.4295689145833,40.0,80.0
1204,229.7223768458333,229.95696565624996,57.0,78.0
1205,229.7223768458333,230.1538832708333,61.0,78.0
1206,230.1333353458333,230.39360906249996,57.0,72.0
1207,230.3388145958333,230.43299258541663,61.0,78.0
1208,229.9278560958333,230.64018416249996,49.0,75.0
1209,229.7223768458333,230.6727183770833,42.0,80.0
1210,230.5442938458333,230.7754580020833,57.0,79.0
1211,230.5442938458333,230.85422504791663,61.0,85.0
1212,230.5442938458333,230.85593737499997,66.0,79.0
1213,230.7497730958333,230.88504693541663,49.0,75.0
1214,230.95525234583332,231.1915534833333,57.0,80.0
1215,231.1607315958333,231.27203285624998,61.0,78.0
1216,231.3662108458333,231.77545701874996,59.0,78.0
1217,231.3662108458333,231.9210048208333,62.0,80.0
1218,231.3662108458333,232.0391553895833,47.0,78.0
1219,231.7771693458333,232.06826494999996,54.0,72.0
1220,231.9826485958333,232.11792243541663,59.0,80.0
1221,232.1881278458333,232.91072987499996,59.0,77.0
1222,232.1881278458333,232.9278531458333,62.0,80.0
1223,232.1881278458333,232.92956547291664,66.0,72.0
1224,232.1881278458333,232.9535380520833,47.0,80.0
1225,233.0100448458333,233.4158663645833,59.0,78.0
1226,233.0100448458333,233.52031831666665,62.0,76.0
1227,233.6264825958333,233.72750989374998,59.0,77.0
1228,233.0100448458333,233.92613983541665,47.0,79.0
1229,233.4210033458333,233.94668776041664,54.0,68.0
1230,233.8319618458333,234.22408474791663,59.0,80.0
1231,233.8319618458333,234.27202990624997,62.0,83.0
1232,233.8319618458333,234.30113946666663,66.0,78.0
1233,234.2429203458333,234.58367343541664,54.0,72.0
1234,234.4483995958333,234.95353608541663,59.0,83.0
1235,235.2703165958333,235.39531647291665,59.0,79.0
1236,235.0648373458333,235.52545333124996,54.0,75.0
1237,235.4757958458333,235.6864120770833,59.0,80.0
1238,235.4757958458333,235.75148050624998,62.0,80.0
1239,234.6538788458333,235.75490516041663,47.0,79.0
1240,235.6812750958333,235.81141195416663,54.0,73.0
1241,235.4757958458333,235.8199735895833,66.0,79.0
1242,235.8867543458333,236.02374051249996,59.0,80.0
1243,236.2977128458333,236.7035343645833,57.0,79.0
1244,236.2977128458333,236.92784921249998,61.0,73.0
1245,236.9141505958333,237.01517789374998,57.0,78.0
1246,236.7086713458333,237.1555887145833,49.0,71.0
1247,236.2977128458333,237.2172324895833,42.0,81.0
1248,237.1196298458333,237.32339676874997,57.0,79.0
1249,237.1196298458333,237.41415010416662,61.0,84.0
1250,237.3251090958333,237.43641035624998,49.0,77.0
1251,237.1196298458333,237.49291714999998,66.0,78.0
1252,237.5305883458333,237.76517715624996,57.0,80.0
1253,237.7360675958333,237.84223187499998,61.0,76.0
1254,237.9415468458333,238.32339578541664,62.0,70.0
1255,237.9415468458333,238.33366974791664,59.0,59.0
1256,238.5579845958333,238.66414887499997,59.0,79.0
1257,238.3525053458333,238.89873768541665,54.0,76.0
1258,237.9415468458333,238.9124363020833,47.0,70.0
1259,238.76346384583331,239.14188813124997,59.0,79.0
1260,238.76346384583331,239.1692853645833,62.0,79.0
1261,238.76346384583331,239.27373731666663,66.0,81.0
1262,239.1744223458333,239.48435354791664,54.0,74.0
1263,239.3799015958333,239.71551770416664,59.0,87.0
1264,239.9963393458333,240.12305154999996,59.0,79.0
1265,240.2018185958333,240.29599658541665,62.0,71.0
1266,239.7908600958333,240.46209231249998,54.0,67.0
1267,240.4072978458333,240.6333250208333,59.0,80.0
1268,240.4072978458333,240.65044829166663,62.0,80.0
1269,239.5853808458333,240.65216061874997,47.0,79.0
1270,240.4072978458333,240.76003722499996,66.0,79.0
1271,240.6127770958333,240.77373584166662,54.0,69.0
1272,240.8182563458333,241.0802423895833,59.0,84.0
1273,241.2292148458333,241.4501050395833,59.0,78.0
1274,241.2292148458333,241.4860639083333,64.0,78.0
1275,241.6401733458333,241.91072102499996,59.0,80.0
1276,241.84565259583331,241.94154291249995,64.0,76.0
1277,241.4346940958333,242.1538714708333,47.0,73.0
1278,241.2292148458333,242.25489876874997,40.0,81.0
1279,242.0511318458333,242.29428229166663,59.0,79.0
1280,242.0511318458333,242.38161097291663,64.0,83.0
1281,242.0511318458333,242.3953095895833,67.0,79.0
1282,242.4620903458333,242.5802409145833,40.0,80.0
1283,242.8730488458333,243.2737333833333,55.0,73.0
1284,242.8730488458333,243.3251031958333,59.0,77.0
1285,243.4894865958333,243.58880156666663,55.0,74.0
1286,243.2840073458333,243.76517125624997,50.0,72.0
1287,242.8730488458333,243.94496559999996,43.0,79.0
1288,243.6949658458333,244.0596915145833,55.0,80.0
1289,243.6949658458333,244.12304761666664,59.0,79.0
1290,243.6949658458333,244.1829790645833,62.0,78.0
1291,244.1059243458333,244.23092422291663,50.0,79.0
1292,244.3114035958333,244.38160900624996,55.0,78.0
1293,244.5168828458333,245.00318373749997,61.0,85.0
1294,245.1333205958333,245.22236160416662,57.0,79.0
1295,244.92784134583331,245.42784085416665,49.0,79.0
1296,244.5168828458333,245.43982714374997,42.0,80.0
1297,245.3387998458333,245.53742978749997,57.0,80.0
1298,245.3387998458333,245.58708727291665,61.0,87.0
1299,245.5442790958333,245.66585431874998,49.0,82.0
1300,245.3387998458333,245.70010086041663,66.0,79.0
1301,245.7497583458333,245.9911964645833,57.0,82.0
1302,245.9552375958333,246.0579772208333,61.0,83.0
1303,246.1607168458333,246.5665383645833,59.0,78.0
1304,246.1607168458333,246.67099031666663,62.0,76.0
1305,246.7771545958333,246.87818189374997,59.0,77.0
1306,246.1607168458333,247.07681183541663,47.0,79.0
1307,246.5716753458333,247.09735976041662,54.0,68.0
1308,246.9826338458333,247.37475674791662,59.0,80.0
1309,246.9826338458333,247.42270190624996,62.0,83.0
1310,246.9826338458333,247.45181146666664,66.0,78.0
1311,247.3935923458333,247.73434543541663,54.0,72.0
1312,247.5990715958333,248.10420808541664,59.0,83.0
1313,248.4209885958333,248.54598847291663,59.0,79.0
1314,248.2155093458333,248.67612533124998,54.0,75.0
1315,248.6264678458333,248.8370840770833,59.0,80.0
1316,248.6264678458333,248.90215250624996,62.0,80.0
1317,247.8045508458333,248.90557716041664,47.0,79.0
1318,248.8319470958333,248.96208395416664,54.0,73.0
1319,248.6264678458333,248.9706455895833,66.0,79.0
1320,249.0374263458333,249.17441251249997,59.0,80.0
1321,249.4483848458333,249.8542063645833,57.0,79.0
1322,249.4483848458333,250.07852121249996,61.0,73.0
1323,250.0648225958333,250.16584989374996,57.0,78.0
1324,249.8593433458333,250.3062607145833,49.0,71.0
1325,249.4483848458333,250.3679044895833,42.0,81.0
1326,250.2703018458333,250.47406876874996,57.0,79.0
1327,250.2703018458333,250.56482210416664,61.0,84.0
1328,250.4757810958333,250.58708235624997,49.0,77.0
1329,250.2703018458333,250.64358914999997,66.0,78.0
1330,250.6812603458333,250.91584915624998,57.0,80.0
1331,250.8867395958333,250.99290387499997,61.0,76.0
1332,251.0922188458333,251.47406778541662,62.0,70.0
1333,251.0922188458333,251.48434174791663,59.0,59.0
1334,251.7086565958333,251.81482087499995,59.0,79.0
1335,251.5031773458333,252.04940968541663,54.0,76.0
1336,251.0922188458333,252.0631083020833,47.0,70.0
1337,251.9141358458333,252.29256013124996,59.0,79.0
1338,251.9141358458333,252.3199573645833,62.0,79.0
1339,251.9141358458333,252.42440931666664,66.0,81.0
1340,252.3250943458333,252.63502554791663,54.0,74.0
1341,252.5305735958333,252.86618970416663,59.0,87.0
1342,253.1470113458333,253.27372354999997,59.0,79.0
1343,253.3524905958333,253.44666858541663,62.0,71.0
1344,252.9415320958333,253.61276431249996,54.0,67.0
1345,253.5579698458333,253.7839970208333,59.0,80.0
1346,253.5579698458333,253.80112029166662,62.0,80.0
1347,252.7360528458333,253.80283261874996,47.0,79.0
1348,253.5579698458333,253.91070922499998,66.0,79.0
1349,253.7634490958333,253.92440784166664,54.0,69.0
1350,253.9689283458333,254.2309143895833,59.0,84.0
1351,254.3798868458333,254.6007770395833,59.0,78.0
1352,254.3798868458333,254.6367359083333,64.0,78.0
1353,254.7908453458333,255.06139302499997,59.0,80.0
1354,254.9963245958333,255.09221491249997,64.0,76.0
1355,254.5853660958333,255.3045434708333,47.0,73.0
1356,254.3798868458333,255.40557076874995,40.0,81.0
1357,255.2018038458333,255.44495429166662,59.0,79.0
1358,255.2018038458333,255.53228297291662,64.0,83.0
1359,255.2018038458333,255.5459815895833,67.0,79.0
1360,255.6127623458333,255.73091291458329,40.0,80.0
1361,256.0237208458333,256.25830965625,57.0,78.0
1362,256.0237208458333,256.4552272708333,61.0,78.0
1363,256.4346793458333,256.69495306249996,57.0,72.0
1364,256.6401585958333,256.73433658541666,61.0,78.0
1365,256.2292000958333,256.9415281625,49.0,75.0
1366,256.0237208458333,256.97406237708327,42.0,80.0
1367,256.8456378458333,257.0768020020833,57.0,79.0
1368,256.8456378458333,257.15556904791663,61.0,85.0
1369,256.8456378458333,257.15728137499997,66.0,79.0
1370,257.0511170958333,257.1863909354166,49.0,75.0
1371,257.2565963458333,257.4928974833333,57.0,80.0
1372,257.4620755958333,257.57337685625,61.0,78.0
1373,257.6675548458333,258.07680101874996,59.0,78.0
1374,257.6675548458333,258.2223488208333,62.0,80.0
1375,257.6675548458333,258.3404993895833,47.0,78.0
1376,258.0785133458333,258.36960895,54.0,72.0
1377,258.2839925958333,258.41926643541666,59.0,80.0
1378,258.4894718458333,259.212073875,59.0,77.0
1379,258.4894718458333,259.2291971458333,62.0,80.0
1380,258.4894718458333,259.2309094729166,66.0,72.0
1381,258.4894718458333,259.2548820520833,47.0,80.0
1382,261.9826190958333,262.2206325604166,59.0,78.0
1383,262.1880983458333,262.4398104270833,54.0,76.0
1384,262.3935775958333,262.5630979770833,57.0,75.0
1385,262.5990568458333,263.1059056625,59.0,78.0
1386,262.5990568458333,263.11104264374995,62.0,78.0
1387,263.0100153458333,263.55282303124994,54.0,72.0
1388,263.4209738458333,263.6315900770833,62.0,79.0
1389,262.5990568458333,263.64528869375,47.0,80.0
1390,263.4209738458333,263.65042567499995,66.0,80.0
1391,263.4209738458333,263.6606996375,59.0,79.0
1392,264.0374115958333,264.3781646854166,59.0,78.0
1393,264.0374115958333,264.47747965624995,62.0,78.0
1394,264.6538493458333,264.80453412916665,59.0,80.0
1395,264.4483700958333,264.92953400625,54.0,70.0
1396,264.2428908458333,264.93295866041666,47.0,74.0
1397,265.0648078458333,265.27371174999996,47.0,76.0
1398,265.0648078458333,265.30967061875,54.0,79.0
1399,265.0648078458333,265.3370678520833,59.0,79.0
1400,265.0648078458333,265.35932810416665,62.0,78.0
1401,265.4757663458333,265.65898534375,59.0,78.0
1402,265.88672484583327,266.2257656083333,59.0,73.0
1403,265.88672484583327,266.23603957083327,62.0,78.0
1404,266.2976833458333,266.46891605416664,59.0,78.0
1405,266.2976833458333,266.4877516520833,62.0,76.0
1406,266.7086418458333,266.8627512833333,59.0,79.0
1407,266.7086418458333,266.8661759375,66.0,79.0
1408,265.88672484583327,267.3815863895833,47.0,78.0
1409,267.3250795958333,267.52370953749994,66.0,78.0
1410,267.3250795958333,267.5254218645833,59.0,79.0
1411,267.7360380958333,267.88158589791664,59.0,78.0
1412,267.9415173458333,268.2343252770833,54.0,72.0
1413,268.1469965958333,268.26172251041663,59.0,79.0
1414,268.3524758458333,268.5511057875,59.0,79.0
1415,268.3524758458333,268.55624276874994,62.0,87.0
1416,267.5305588458333,268.61103723541663,47.0,77.0
1417,268.5579550958333,268.70007824374994,54.0,71.0
1418,268.7634343458333,269.05452994999996,59.0,74.0
1419,268.96891359583327,269.11103674375,62.0,74.0
1420,269.1743928458333,269.27542014374995,40.0,80.0
1421,269.1743928458333,269.4945980104166,59.0,78.0
1422,269.1743928458333,269.4980226645833,64.0,79.0
1423,269.5853513458333,269.75829638125,64.0,80.0
1424,269.5853513458333,269.7702826708333,59.0,75.0
1425,269.9963098458333,270.20007676874997,67.0,73.0
1426,269.9963098458333,270.2360356375,59.0,74.0
1427,269.9963098458333,270.65213111875,52.0,69.0
1428,270.6127475958333,270.90213087291664,59.0,75.0
1429,270.6127475958333,270.9261034520833,64.0,77.0
1430,271.0237060958333,271.1418566645833,59.0,74.0
1431,271.2291853458333,271.3079523916666,64.0,74.0
1432,270.8182268458333,271.49459604374994,52.0,72.0
1433,271.4346645958333,271.5134316416666,59.0,75.0
1434,271.6401438458333,271.8815819645833,59.0,78.0
1435,271.6401438458333,271.9021298895833,64.0,82.0
1436,271.6401438458333,272.1846638583333,52.0,80.0
1437,272.05110234583327,272.22404738125,62.0,78.0
1438,272.4620608458333,272.62986889999996,59.0,73.0
1439,272.4620608458333,272.62986889999996,64.0,74.0
1440,272.8730193458333,273.0082931854166,64.0,66.0
1441,272.8730193458333,273.0219918020833,59.0,65.0
1442,272.4620608458333,273.42610099374997,52.0,70.0
1443,273.2839778458333,273.6761007479166,67.0,72.0
1444,273.2839778458333,273.71890892499994,64.0,79.0
1445,273.2839778458333,273.7206212520833,59.0,77.0
1446,273.6949363458333,273.7891143354166,52.0,53.0
1447,273.9004155958333,274.21034679791666,59.0,79.0
1448,273.9004155958333,274.2771275541666,64.0,80.0
1449,274.5168533458333,274.62472995208327,59.0,82.0
1450,274.3113740958333,274.80623662291663,47.0,75.0
1451,274.7223325958333,275.0048665645833,59.0,81.0
1452,274.1058948458333,275.05966103124996,40.0,80.0
1453,274.7223325958333,275.10589386249995,64.0,82.0
1454,274.9278118458333,275.12986644166665,47.0,75.0
1455,275.1332910958333,275.2822635520833,59.0,82.0
1456,275.3387703458333,275.4689072041666,64.0,78.0
1457,275.7497288458333,276.0117148895833,59.0,75.0
1458,275.7497288458333,276.02198885208327,62.0,76.0
1459,276.1606873458333,276.30281049375,59.0,62.0
1460,276.1606873458333,276.3096598020833,62.0,66.0
1461,276.5716458458333,276.9021249729166,59.0,73.0
1462,276.5716458458333,276.9106866083333,62.0,73.0
1463,276.5716458458333,276.93979616875,66.0,69.0
1464,275.7497288458333,277.2154808291666,47.0,81.0
1465,277.1880835958333,277.46376825625,59.0,78.0
1466,277.3935628458333,277.46376825625,59.0,74.0
1467,277.1880835958333,277.4808915270833,62.0,78.0
1468,277.3935628458333,277.4808915270833,62.0,74.0
1469,277.1880835958333,277.5100010875,66.0,72.0
1470,277.3935628458333,277.5100010875,66.0,71.0
1471,277.3935628458333,277.96719241874996,47.0,80.0
1472,278.2154798458333,278.75143822291665,59.0,69.0
1473,278.2154798458333,278.76856149375,62.0,79.0
1474,278.2154798458333,278.77369847499995,66.0,66.0
1475,278.2154798458333,278.7856847645833,47.0,79.0
1476,278.2154798458333,278.8165066520833,71.0,72.0
