,start,end,pitch,velocity
0,28.032066562500003,28.282066312500003,71.0,80.0
1,28.437471562500004,28.731390187500004,71.0,81.0
2,28.842876562500003,28.971254812500003,72.0,73.0
3,29.045579062500003,30.515172187500003,71.0,79.0
4,30.667199062500003,30.831050250000004,71.0,79.0
5,30.869901562500004,31.173955312500002,69.0,76.0
6,31.275306562500003,31.54726575,69.0,80.0
7,31.680711562500004,31.834427625000004,69.0,78.0
8,31.8834140625,32.469562125,71.0,75.0
9,32.491521562500004,33.733074375,69.0,78.0
10,34.9239515625,35.256721500000005,67.0,78.0
11,35.3293565625,35.452667250000005,67.0,74.0
12,35.532059062500004,35.993207250000005,67.0,78.0
13,36.140166562500006,36.429017625,67.0,78.0
14,36.5455715625,36.8192199375,67.0,74.0
15,36.9509765625,37.2246249375,67.0,75.0
16,37.356381562500005,37.702665,67.0,78.0
17,37.761786562500006,37.9611106875,67.0,78.0
18,38.1671915625,38.373272437500006,67.0,80.0
19,38.5725965625,39.270231,71.0,77.0
20,39.38340656250001,40.560770250000004,69.0,78.0
21,41.00502656250001,41.25502631250001,71.0,80.0
22,41.4104315625,41.704350187500005,71.0,81.0
23,41.8158365625,41.9442148125,72.0,73.0
24,42.018539062500004,43.48813218750001,71.0,79.0
25,43.640159062500004,43.804010250000005,71.0,79.0
26,43.842861562500005,44.146915312500006,69.0,76.0
27,44.24826656250001,44.52022575,69.0,80.0
28,44.6536715625,44.807387625000004,69.0,78.0
29,44.8563740625,45.442522125,71.0,75.0
30,45.464481562500005,46.706034375,69.0,78.0
31,47.8969115625,48.229681500000005,67.0,78.0
32,48.3023165625,48.425627250000005,67.0,74.0
33,48.505019062500004,48.966167250000005,67.0,78.0
34,49.11312656250001,49.40197762500001,67.0,78.0
35,49.5185315625,49.7921799375,67.0,74.0
36,49.9239365625,50.197584937500004,67.0,75.0
37,50.329341562500005,50.675625000000004,67.0,78.0
38,50.73474656250001,51.136773187500005,67.0,78.0
39,51.5455565625,52.243191,67.0,77.0
40,52.35636656250001,53.533730250000005,69.0,78.0
41,54.18068906250001,54.293864625000005,71.0,79.0
42,54.3833915625,54.72967500000001,71.0,79.0
43,54.7887965625,54.9070396875,76.0,78.0
44,54.991499062500004,55.3935256875,76.0,81.0
45,55.396904062500006,55.798930687500004,71.0,83.0
46,55.80230906250001,55.901971125,71.0,79.0
47,56.0050115625,56.298930187500005,71.0,80.0
48,56.410416562500004,56.760078375000006,71.0,80.0
49,56.815821562500005,57.162105000000004,69.0,77.0
50,57.22122656250001,57.825955687500006,67.0,78.0
51,58.032036562500004,59.221224562500005,64.0,82.0
52,60.8698715625,61.20095231250001,69.0,79.0
53,61.275276562500004,61.41885750000001,69.0,79.0
54,61.477979062500005,62.010073125000005,71.0,77.0
55,62.08608656250001,62.678991375,69.0,82.0
56,62.896896562500004,63.226288125,62.0,81.0
57,63.302301562500006,63.640139062500005,74.0,82.0
58,63.70770656250001,64.037098125,72.0,78.0
59,64.11311156250001,64.4475706875,71.0,83.0
60,64.51851656250001,64.7178406875,72.0,84.0
61,64.72121906250001,65.3259481875,71.0,80.0
62,65.3293265625,65.6350695,67.0,79.0
63,65.7347315625,65.86142062500001,67.0,79.0
64,65.9374340625,66.64182525000001,69.0,80.0
65,66.95094656250001,67.28371650000001,71.0,84.0
66,67.35635156250001,67.6570269375,71.0,83.0
67,67.76175656250001,67.9002699375,71.0,79.0
68,67.96445906250001,68.51006662500001,69.0,79.0
69,68.5725665625,68.861417625,71.0,78.0
70,68.9779715625,69.300606375,71.0,79.0
71,69.3833765625,69.7313491875,71.0,84.0
72,69.7887815625,70.19080818750001,78.0,79.0
73,70.19418656250001,70.59621318750001,79.0,79.0
74,70.59959156250001,71.0016181875,79.0,79.0
75,71.00499656250001,71.6097256875,76.0,79.0
76,71.8158065625,72.54215718750001,64.0,82.0
77,72.6266165625,73.3107375,69.0,80.0
78,73.84283156250001,74.1637771875,71.0,83.0
79,74.24823656250001,74.4171553125,72.0,78.0
80,74.45093906250001,74.95938450000001,71.0,85.0
81,75.0590465625,75.756681,69.0,85.0
82,75.8698565625,76.189113,62.0,80.0
83,76.2752615625,76.6266125625,74.0,84.0
84,76.68066656250001,76.99147706250001,72.0,82.0
85,77.08607156250001,77.41715231250001,71.0,82.0
86,77.49147656250001,77.6908006875,72.0,74.0
87,77.69417906250001,78.2989081875,71.0,78.0
88,78.3022865625,78.7043131875,62.0,80.0
89,78.7076915625,78.9070156875,62.0,79.0
90,78.9103940625,79.31242068750001,69.0,79.0
91,79.92390656250001,80.25667650000001,71.0,84.0
92,80.32931156250001,80.62998693750001,71.0,83.0
93,80.73471656250001,80.87322993750001,71.0,79.0
94,80.93741906250001,81.48302662500001,69.0,79.0
95,81.5455265625,81.834377625,71.0,78.0
96,81.9509315625,82.273566375,71.0,79.0
97,82.3563365625,82.7043091875,71.0,84.0
98,82.7617415625,83.16376818750001,78.0,79.0
99,83.16714656250001,83.56917318750001,79.0,79.0
100,83.57255156250001,83.9745781875,79.0,79.0
101,83.97795656250001,84.5826856875,76.0,79.0
102,84.7887665625,85.51511718750001,64.0,82.0
103,85.5995765625,86.2836975,69.0,80.0
104,86.81579156250001,87.1367371875,71.0,83.0
105,87.22119656250001,87.3901153125,72.0,78.0
106,87.42389906250001,87.93234450000001,71.0,85.0
107,88.0320065625,88.4340331875,69.0,85.0
108,88.4374115625,88.83943818750001,62.0,79.0
109,88.8428165625,89.162073,62.0,80.0
110,89.2482215625,89.59957256250001,74.0,84.0
111,89.65362656250001,90.25835568750001,72.0,82.0
112,90.46443656250001,91.2718681875,71.0,82.0
113,91.2752465625,92.48808318750001,69.0,79.0
114,92.4914615625,92.7482180625,74.0,84.0
115,92.89686656250001,93.20767706250001,72.0,80.0
116,93.30227156250001,93.62659556250001,71.0,82.0
117,93.70767656250001,94.7178106875,72.0,79.0
118,94.9238915625,95.26341825000002,67.0,79.0
119,95.3292965625,98.22118556250001,67.0,81.0
120,109.11306656250001,109.36306631250001,71.0,80.0
121,109.51847156250001,109.81239018750001,71.0,81.0
122,109.92387656250001,110.05225481250001,72.0,73.0
123,110.12657906250001,111.59617218750002,71.0,79.0
124,111.7481990625,111.91205025000001,71.0,79.0
125,111.95090156250001,112.25495531250002,69.0,76.0
126,112.35630656250001,112.62826575000001,69.0,80.0
127,112.76171156250001,112.915427625,69.0,78.0
128,112.96441406250001,113.55056212500001,71.0,75.0
129,113.57252156250001,114.814074375,69.0,78.0
130,116.00495156250001,116.33772150000001,67.0,78.0
131,116.41035656250001,116.53366725000001,67.0,74.0
132,116.61305906250001,117.07420725000001,67.0,78.0
133,117.22116656250002,117.51001762500002,67.0,78.0
134,117.6265715625,117.90021993750001,67.0,74.0
135,118.0319765625,118.30562493750001,67.0,75.0
136,118.43738156250001,118.78366500000001,67.0,78.0
137,118.84278656250001,119.04211068750001,67.0,78.0
138,119.24819156250001,119.45427243750001,67.0,80.0
139,119.65359656250001,120.35123100000001,71.0,77.0
140,120.46440656250002,121.64177025000001,69.0,78.0
141,122.08602656250001,122.33602631250001,71.0,80.0
142,122.49143156250001,122.78535018750001,71.0,81.0
143,122.89683656250001,123.02521481250001,72.0,73.0
144,123.09953906250001,124.56913218750002,71.0,79.0
145,124.7211590625,124.88501025000001,71.0,79.0
146,124.92386156250001,125.22791531250002,69.0,76.0
147,125.32926656250001,125.60122575000001,69.0,80.0
148,125.73467156250001,125.88838762500001,69.0,78.0
149,125.93737406250001,126.52352212500001,71.0,75.0
150,126.54548156250002,127.787034375,69.0,78.0
151,128.9779115625,129.31068150000002,67.0,78.0
152,129.3833165625,129.50662725,67.0,74.0
153,129.58601906250001,130.04716725,67.0,78.0
154,130.1941265625,130.48297762500002,67.0,78.0
155,130.5995315625,130.8731799375,67.0,74.0
156,131.0049365625,131.2785849375,67.0,75.0
157,131.4103415625,131.756625,67.0,78.0
158,131.8157465625,132.2177731875,67.0,78.0
159,132.6265565625,133.324191,67.0,77.0
160,133.43736656250002,134.61473025,69.0,78.0
161,135.2616890625,135.37486462500001,71.0,79.0
162,135.46439156250003,135.810675,71.0,79.0
163,135.8697965625,135.98803968750002,76.0,78.0
164,136.07249906250001,136.4745256875,76.0,81.0
165,136.47790406250002,136.8799306875,71.0,83.0
166,136.88330906250002,136.982971125,71.0,79.0
167,137.0860115625,137.3799301875,71.0,80.0
168,137.4914165625,137.84107837500002,71.0,80.0
169,137.8968215625,138.243105,69.0,77.0
170,138.3022265625,138.90695568750002,67.0,78.0
171,139.1130365625,140.30222456250002,64.0,82.0
172,141.95087156250003,142.2819523125,69.0,79.0
173,142.3562765625,142.49985750000002,69.0,79.0
174,142.55897906250001,143.091073125,71.0,77.0
175,143.1670865625,143.75999137500003,69.0,82.0
176,143.9778965625,144.307288125,62.0,81.0
177,144.3833015625,144.72113906250001,74.0,82.0
178,144.7887065625,145.11809812500002,72.0,78.0
179,145.1941115625,145.5285706875,71.0,83.0
180,145.5995165625,145.79884068750002,72.0,84.0
181,145.8022190625,146.4069481875,71.0,80.0
182,146.41032656250002,146.7160695,67.0,79.0
183,146.81573156250002,146.942420625,67.0,79.0
184,147.0184340625,147.72282525,69.0,80.0
185,148.03194656250002,148.36471650000001,71.0,84.0
186,148.43735156250003,148.73802693750002,71.0,83.0
187,148.8427565625,148.9812699375,71.0,79.0
188,149.04545906250002,149.59106662500002,69.0,79.0
189,149.6535665625,149.94241762500002,71.0,78.0
190,150.0589715625,150.38160637500002,71.0,79.0
191,150.4643765625,150.81234918750002,71.0,84.0
192,150.8697815625,151.2718081875,78.0,79.0
193,151.2751865625,151.6772131875,79.0,79.0
194,151.6805915625,152.0826181875,79.0,79.0
195,152.08599656250001,152.69072568750002,76.0,79.0
196,152.89680656250002,153.62315718750003,64.0,82.0
197,153.70761656250002,154.3917375,69.0,80.0
198,154.92383156250003,155.2447771875,71.0,83.0
199,155.3292365625,155.49815531250002,72.0,78.0
200,155.53193906250002,156.04038450000002,71.0,85.0
201,156.1400465625,156.837681,69.0,85.0
202,156.9508565625,157.270113,62.0,80.0
203,157.3562615625,157.7076125625,74.0,84.0
204,157.7616665625,158.0724770625,72.0,82.0
205,158.1670715625,158.49815231250003,71.0,82.0
206,158.57247656250001,158.77180068750002,72.0,74.0
207,158.7751790625,159.3799081875,71.0,78.0
208,159.38328656250002,159.7853131875,62.0,80.0
209,159.78869156250002,159.98801568750002,62.0,79.0
210,159.9913940625,160.39342068750003,69.0,79.0
211,161.00490656250003,161.33767650000001,71.0,84.0
212,161.41031156250003,161.71098693750002,71.0,83.0
213,161.8157165625,161.9542299375,71.0,79.0
214,162.01841906250002,162.56402662500003,69.0,79.0
215,162.6265265625,162.91537762500002,71.0,78.0
216,163.0319315625,163.35456637500002,71.0,79.0
217,163.4373365625,163.78530918750002,71.0,84.0
218,163.8427415625,164.24476818750003,78.0,79.0
219,164.2481465625,164.6501731875,79.0,79.0
220,164.6535515625,165.0555781875,79.0,79.0
221,165.05895656250001,165.66368568750002,76.0,79.0
222,165.86976656250002,166.59611718750003,64.0,82.0
223,166.68057656250002,167.3646975,69.0,80.0
224,167.89679156250003,168.2177371875,71.0,83.0
225,168.30219656250003,168.47111531250002,72.0,78.0
226,168.50489906250002,169.01334450000002,71.0,85.0
227,169.1130065625,169.51503318750002,69.0,85.0
228,169.5184115625,169.92043818750003,62.0,79.0
229,169.9238165625,170.243073,62.0,80.0
230,170.3292215625,170.6805725625,74.0,84.0
231,170.7346265625,171.33935568750002,72.0,82.0
232,171.54543656250002,172.3528681875,71.0,82.0
233,172.35624656250002,173.5690831875,69.0,79.0
234,173.57246156250002,173.82921806250002,74.0,84.0
235,173.97786656250003,174.28867706250003,72.0,80.0
236,174.38327156250003,174.70759556250002,71.0,82.0
237,174.78867656250003,175.7988106875,72.0,79.0
238,176.0048915625,176.34441825000002,67.0,79.0
239,176.4102965625,179.30218556250003,67.0,81.0
240,203.36972906250003,203.48290462500003,71.0,79.0
241,203.57243156250001,203.91871500000002,71.0,79.0
242,203.97783656250002,204.0960796875,76.0,78.0
243,204.18053906250003,204.58256568750002,76.0,81.0
244,204.5859440625,204.98797068750002,71.0,83.0
245,204.9913490625,205.09101112500002,71.0,79.0
246,205.19405156250002,205.48797018750003,71.0,80.0
247,205.59945656250002,205.949118375,71.0,80.0
248,206.00486156250003,206.35114500000003,69.0,77.0
249,206.41026656250003,207.0149956875,67.0,78.0
250,207.22107656250003,208.41026456250003,64.0,82.0
251,210.05891156250001,210.38999231250003,69.0,79.0
252,210.46431656250002,210.6078975,69.0,79.0
253,210.66701906250003,211.19911312500003,71.0,77.0
254,211.27512656250002,211.86803137500002,69.0,82.0
255,212.08593656250002,212.41532812500003,62.0,81.0
256,212.49134156250003,212.82917906250003,74.0,82.0
257,212.89674656250003,213.226138125,72.0,78.0
258,213.30215156250003,213.63661068750002,71.0,83.0
259,213.70755656250003,213.9068806875,72.0,84.0
260,213.91025906250002,214.51498818750002,71.0,80.0
261,214.5183665625,214.82410950000002,67.0,79.0
262,214.9237715625,215.05046062500003,67.0,79.0
263,215.12647406250002,215.83086525000002,69.0,80.0
264,216.1399865625,216.47275650000003,71.0,84.0
265,216.54539156250001,216.8460669375,71.0,83.0
266,216.95079656250002,217.08930993750002,71.0,79.0
267,217.15349906250003,217.699106625,69.0,79.0
268,217.76160656250002,218.050457625,71.0,78.0
269,218.16701156250002,218.489646375,71.0,79.0
270,218.57241656250002,218.9203891875,71.0,84.0
271,218.97782156250003,219.37984818750002,78.0,79.0
272,219.38322656250003,219.78525318750002,79.0,79.0
273,219.78863156250003,220.19065818750002,79.0,79.0
274,220.19403656250003,220.7987656875,76.0,79.0
275,221.0048465625,221.73119718750002,64.0,82.0
276,221.8156565625,222.49977750000002,69.0,80.0
277,223.03187156250002,223.35281718750002,71.0,83.0
278,223.43727656250002,223.6061953125,72.0,78.0
279,223.63997906250003,224.14842450000003,71.0,85.0
280,224.24808656250002,224.94572100000002,69.0,85.0
281,225.05889656250002,225.37815300000003,62.0,80.0
282,225.46430156250003,225.81565256250002,74.0,84.0
283,225.86970656250003,226.18051706250003,72.0,82.0
284,226.27511156250003,226.6061923125,71.0,82.0
285,226.68051656250003,226.8798406875,72.0,74.0
286,226.88321906250002,227.48794818750002,71.0,78.0
287,227.4913265625,227.89335318750003,62.0,80.0
288,227.8967315625,228.0960556875,62.0,79.0
289,228.09943406250002,228.5014606875,69.0,79.0
290,229.1129465625,229.44571650000003,71.0,84.0
291,229.51835156250002,229.8190269375,71.0,83.0
292,229.92375656250002,230.06226993750002,71.0,79.0
293,230.12645906250003,230.672066625,69.0,79.0
294,230.73456656250002,231.023417625,71.0,78.0
295,231.13997156250002,231.462606375,71.0,79.0
296,231.54537656250002,231.8933491875,71.0,84.0
297,231.95078156250003,232.35280818750002,78.0,79.0
298,232.35618656250003,232.75821318750002,79.0,79.0
299,232.76159156250003,233.16361818750002,79.0,79.0
300,233.16699656250003,233.7717256875,76.0,79.0
301,233.9778065625,234.70415718750002,64.0,82.0
302,234.7886165625,235.47273750000002,69.0,80.0
303,236.00483156250002,236.32577718750002,71.0,83.0
304,236.41023656250002,236.57915531250003,72.0,78.0
305,236.61293906250003,237.12138450000003,71.0,85.0
306,237.22104656250002,237.6230731875,69.0,85.0
307,237.62645156250002,238.0284781875,62.0,79.0
308,238.03185656250002,238.35111300000003,62.0,80.0
309,238.43726156250003,238.78861256250002,74.0,84.0
310,238.84266656250003,239.44739568750003,72.0,82.0
311,239.65347656250003,240.46090818750002,71.0,82.0
312,240.46428656250004,241.67712318750003,69.0,79.0
313,241.6805015625,241.93725806250004,74.0,84.0
314,242.0859065625,242.39671706250002,72.0,80.0
315,242.49131156250002,242.81563556250003,71.0,82.0
316,242.89671656250002,243.90685068750003,72.0,79.0
317,244.11293156250002,244.45245825000003,67.0,79.0
318,244.51833656250002,247.41022556250002,67.0,81.0
