,start,end,pitch,velocity
0,0.0591215625,0.6047291250000001,59.0,78.0
1,0.0591215625,0.6300669375000001,55.0,74.0
2,0.4645265625,1.1300664375,50.0,69.0
3,0.8699315625,1.3581067500000001,59.0,73.0
4,0.8699315625,1.368241875,62.0,78.0
5,1.2753365625000002,1.6824307500000002,55.0,73.0
6,1.6807415625000002,1.8631738125000001,59.0,76.0
7,1.6807415625000002,1.9239845625000003,62.0,76.0
8,2.0861465625,2.260132875,55.0,66.0
9,1.2753365625000002,2.5101326250000002,50.0,36.0
10,2.4915515625,2.6604703125,55.0,80.0
11,0.0591215625,2.7753350625000004,43.0,79.0
12,2.4915515625,2.942564625,59.0,84.0
13,2.4915515625,2.9577673125,62.0,79.0
14,2.8969565625,3.5895234375000005,55.0,83.0
15,3.3023615625000002,3.7685773125,62.0,74.0
16,3.3023615625000002,3.7736448750000005,59.0,78.0
17,3.7077665625000003,3.78378,55.0,61.0
18,4.113171562500001,4.285468687500001,55.0,78.0
19,4.113171562500001,4.322630812500001,59.0,80.0
20,4.113171562500001,4.3631713125000005,62.0,79.0
21,3.3023615625000002,4.8091168125,40.0,81.0
22,4.518576562500001,4.9594545000000005,55.0,71.0
23,4.923981562500001,5.1368191875,59.0,68.0
24,4.923981562500001,5.361481125,62.0,71.0
25,5.329386562500001,5.4915485625,55.0,67.0
26,5.734791562500001,5.8986427500000005,55.0,80.0
27,4.923981562500001,5.976345375,40.0,65.0
28,5.734791562500001,6.1368181875,59.0,81.0
29,5.734791562500001,6.1368181875,62.0,79.0
30,6.140196562500001,6.2483045625,55.0,78.0
31,6.545601562500001,7.172290125000001,57.0,77.0
32,6.545601562500001,7.214519812500001,62.0,75.0
33,7.356411562500001,7.582762687500001,57.0,80.0
34,7.356411562500001,7.896951562500001,62.0,81.0
35,6.545601562500001,8.0253298125,47.0,81.0
36,7.761816562500001,8.1469513125,54.0,68.0
37,8.1672215625,8.675667,59.0,77.0
38,8.1672215625,8.6891805,62.0,78.0
39,8.1672215625,8.694248062500002,66.0,73.0
40,8.5726265625,9.087828750000002,54.0,67.0
41,8.1672215625,9.179044875,47.0,79.0
42,8.9780315625,9.184112437500001,59.0,78.0
43,8.9780315625,9.2651934375,62.0,79.0
44,8.9780315625,9.4104635625,66.0,74.0
45,9.3834365625,9.54728775,47.0,79.0
46,9.3834365625,9.565868812500002,59.0,79.0
47,9.7888415625,10.0135035,55.0,74.0
48,9.7888415625,10.336138312500001,60.0,73.0
49,10.1942465625,10.412151750000001,55.0,69.0
50,9.7888415625,10.685800125,48.0,81.0
51,10.5996515625,10.743232500000001,55.0,80.0
52,10.5996515625,11.121610500000001,64.0,80.0
53,11.005056562500002,11.211137437500001,55.0,75.0
54,10.5996515625,11.310799500000002,60.0,82.0
55,11.410461562500002,11.8057314375,62.0,73.0
56,11.410461562500002,11.9053935,57.0,74.0
57,11.815866562500002,12.314176875000001,45.0,66.0
58,11.410461562500002,12.3732984375,38.0,81.0
59,12.221271562500002,12.405393000000002,57.0,78.0
60,12.221271562500002,12.586136062500001,66.0,78.0
61,12.221271562500002,12.589514437500002,62.0,80.0
62,12.626676562500002,12.729717,57.0,79.0
63,13.032081562500002,13.444243312500001,62.0,78.0
64,13.032081562500002,13.445932500000001,59.0,73.0
65,13.032081562500002,13.467891937500001,55.0,73.0
66,13.842891562500002,13.988161687500002,55.0,79.0
67,13.842891562500002,14.043904875,59.0,80.0
68,13.842891562500002,14.0675535,62.0,80.0
69,13.437486562500002,14.457755812500002,50.0,68.0
70,13.032081562500002,14.496607125,43.0,79.0
71,14.248296562500002,14.5219449375,55.0,72.0
72,14.653701562500002,14.915525625,55.0,74.0
73,14.653701562500002,15.003363375000001,62.0,72.0
74,14.653701562500002,15.005052562500001,59.0,71.0
75,15.059106562500002,15.570930375000001,50.0,64.0
76,14.653701562500002,15.641876250000001,43.0,76.0
77,15.464511562500002,15.665524875000001,55.0,78.0
78,15.464511562500002,15.849646312500001,59.0,80.0
79,15.869916562500002,16.081065000000002,43.0,79.0
80,15.464511562500002,16.096267687500003,62.0,79.0
81,16.2753215625,16.523632125000002,55.0,71.0
82,16.2753215625,16.844577750000003,59.0,78.0
83,16.680726562500002,16.915523625000002,55.0,67.0
84,17.0861315625,17.2297125,55.0,78.0
85,17.0861315625,17.298969187500003,59.0,80.0
86,17.0861315625,17.346266437500002,62.0,78.0
87,16.680726562500002,17.646941812500003,47.0,70.0
88,16.2753215625,17.760117375,40.0,80.0
89,17.491536562500002,17.84457675,55.0,73.0
90,17.8969415625,18.376670812500002,55.0,77.0
91,17.8969415625,18.439170750000002,59.0,77.0
92,18.302346562500002,18.8395081875,47.0,67.0
93,18.7077515625,18.8597784375,55.0,79.0
94,17.8969415625,18.908764875000003,40.0,80.0
95,18.7077515625,19.0405215,62.0,78.0
96,18.7077515625,19.155386250000003,59.0,80.0
97,19.113156562500002,19.239845625,55.0,78.0
98,19.5185615625,20.0895069375,59.0,71.0
99,19.5185615625,20.155385250000002,62.0,77.0
100,19.923966562500002,20.527006500000002,54.0,68.0
101,20.3293715625,20.530384875000003,59.0,80.0
102,19.5185615625,20.7482900625,47.0,79.0
103,20.3293715625,20.81079,62.0,81.0
104,20.3293715625,20.981397937500002,66.0,78.0
105,20.734776562500002,21.035451937500003,59.0,73.0
106,21.1401815625,21.648627,62.0,78.0
107,21.1401815625,21.6570729375,59.0,78.0
108,21.545586562500002,21.962815875,54.0,60.0
109,21.1401815625,22.097950875000002,47.0,74.0
110,21.9509915625,22.097950875000002,59.0,79.0
111,21.9509915625,22.297275000000003,62.0,79.0
112,21.9509915625,22.305720937500002,66.0,77.0
113,22.356396562500002,22.4509910625,59.0,68.0
114,22.7618015625,23.003355375,55.0,74.0
115,22.7618015625,23.167206562500002,60.0,72.0
116,22.7618015625,23.532071062500002,64.0,78.0
117,23.5726115625,23.741530312500004,60.0,78.0
118,22.7618015625,23.832746437500003,48.0,72.0
119,23.167206562500002,23.856395062500003,55.0,80.0
120,23.978016562500002,25.962811875000003,53.0,72.0
121,23.978016562500002,25.971257812500003,57.0,73.0
122,23.978016562500002,25.974636187500003,41.0,79.0
123,27.6266615625,28.2415258125,59.0,70.0
124,27.6266615625,28.265174437500004,62.0,73.0
125,27.6266615625,28.445917500000004,55.0,68.0
126,28.437471562500004,28.581052500000002,59.0,72.0
127,28.437471562500004,28.611457875000003,62.0,74.0
128,29.248281562500004,29.501659687500002,62.0,66.0
129,29.248281562500004,29.518551562500004,59.0,65.0
130,30.059091562500004,30.151996875000002,55.0,62.0
131,28.032066562500003,30.1874698125,50.0,53.0
132,27.6266615625,30.408753375000003,43.0,77.0
133,30.059091562500004,30.510104625000004,59.0,73.0
134,30.059091562500004,30.562469437500003,62.0,72.0
135,30.464496562500003,30.624969375000003,55.0,73.0
136,30.869901562500004,31.518549562500002,62.0,68.0
137,30.869901562500004,31.700981812500004,57.0,62.0
138,31.680711562500004,31.812468187500002,62.0,72.0
139,31.680711562500004,31.8563870625,66.0,69.0
140,31.275306562500003,31.923954562500004,45.0,50.0
141,30.869901562500004,32.035440937500006,38.0,72.0
142,32.491521562500004,32.631724125000005,62.0,67.0
143,32.491521562500004,32.6891565,66.0,66.0
144,32.896926562500006,33.4171963125,57.0,64.0
145,33.3023315625,33.422263875000006,62.0,71.0
146,33.3023315625,33.619898812500004,66.0,71.0
147,33.7077365625,34.128344250000005,62.0,78.0
148,34.113141562500005,34.518546562500006,64.0,78.0
149,34.113141562500005,34.874965125,60.0,71.0
150,34.9239515625,35.03374875,64.0,73.0
151,34.9239515625,35.0726000625,67.0,69.0
152,35.734761562500005,35.915504625000004,64.0,75.0
153,35.734761562500005,35.962801875000004,67.0,69.0
154,36.140166562500006,36.334423125,60.0,63.0
155,36.5455715625,36.6621255,64.0,76.0
156,36.5455715625,36.6705714375,60.0,74.0
157,36.5455715625,36.71955787500001,67.0,73.0
158,34.518546562500006,36.726314625,55.0,59.0
159,34.113141562500005,36.864828,48.0,78.0
160,37.356381562500005,37.866516187500004,67.0,72.0
161,37.356381562500005,37.871583750000006,64.0,74.0
162,37.761786562500006,38.233069875000005,59.0,65.0
163,38.1671915625,38.3530021875,64.0,78.0
164,38.1671915625,38.435772375000006,67.0,76.0
165,37.356381562500005,38.4948939375,52.0,72.0
166,38.5725965625,38.96786643750001,59.0,65.0
167,38.978001562500005,39.526987500000004,62.0,64.0
168,38.978001562500005,39.5523253125,66.0,70.0
169,39.38340656250001,39.9307033125,54.0,61.0
170,39.7888115625,40.1232706875,57.0,71.0
171,39.7888115625,40.246581375000005,62.0,76.0
172,38.978001562500005,40.263473250000004,47.0,74.0
173,39.7888115625,40.297257,66.0,73.0
174,40.1942165625,40.3901623125,54.0,65.0
175,41.00502656250001,41.491512562500006,55.0,73.0
176,41.4104315625,41.51347200000001,59.0,71.0
177,41.4104315625,41.56076925000001,62.0,76.0
178,42.221241562500005,42.38340356250001,59.0,61.0
179,42.221241562500005,42.471241312500005,62.0,65.0
180,42.62664656250001,42.922254375,55.0,59.0
181,40.599621562500005,43.1975919375,43.0,78.0
182,43.0320515625,43.231375687500005,59.0,79.0
183,43.0320515625,43.26853781250001,62.0,74.0
184,43.4374565625,43.540497,55.0,78.0
185,43.842861562500005,44.320901625000005,66.0,73.0
186,43.842861562500005,44.327658375000006,62.0,74.0
187,44.24826656250001,44.508401437500005,57.0,61.0
188,44.6536715625,44.760090375000004,62.0,69.0
189,44.6536715625,44.7786714375,66.0,67.0
190,45.464481562500005,45.6334003125,62.0,73.0
191,45.464481562500005,45.6874543125,66.0,69.0
192,45.86988656250001,46.10468362500001,57.0,65.0
193,46.2752915625,46.4458995,62.0,78.0
194,46.2752915625,46.59792637500001,66.0,72.0
195,43.842861562500005,46.700966812500006,50.0,77.0
196,46.6806965625,47.0590745625,62.0,78.0
197,47.086101562500005,47.484749812500006,64.0,74.0
198,47.086101562500005,47.591168625,60.0,69.0
199,47.8969115625,48.102992437500006,60.0,67.0
200,47.8969115625,48.143532937500005,64.0,74.0
201,47.8969115625,48.206032875000005,67.0,72.0
202,48.707721562500005,48.8513025,64.0,68.0
203,48.707721562500005,48.891843,67.0,62.0
204,49.11312656250001,49.293869625000006,60.0,66.0
205,49.5185315625,49.670558437500006,60.0,73.0
206,47.49150656250001,49.6975854375,55.0,61.0
207,49.5185315625,49.73136918750001,64.0,78.0
208,47.086101562500005,49.760085375,48.0,79.0
209,49.5185315625,49.837788,67.0,73.0
210,49.9239365625,50.03711212500001,60.0,70.0
211,50.329341562500005,50.80400325000001,62.0,68.0
212,50.329341562500005,50.85130050000001,55.0,72.0
213,50.73474656250001,51.25839468750001,50.0,72.0
214,50.329341562500005,51.29893518750001,43.0,78.0
215,51.1401515625,51.4847458125,59.0,78.0
216,51.1401515625,51.5219079375,62.0,78.0
217,51.5455565625,51.591164625000005,55.0,67.0
218,51.950961562500005,52.46616375000001,66.0,70.0
219,51.950961562500005,52.4881231875,62.0,74.0
220,52.35636656250001,52.658731125,57.0,63.0
221,51.950961562500005,53.032041562500005,50.0,78.0
222,52.7617715625,53.18575762500001,62.0,80.0
223,52.7617715625,53.211095437500006,66.0,78.0
224,53.1671765625,53.2854196875,57.0,78.0
225,53.572581562500005,53.87494612500001,59.0,68.0
226,53.572581562500005,54.04048650000001,64.0,72.0
227,53.97798656250001,54.410418562500006,59.0,78.0
228,54.3833915625,54.46278337500001,64.0,79.0
229,54.3833915625,54.50163468750001,67.0,78.0
230,54.7887965625,55.04217468750001,59.0,72.0
231,55.194201562500005,55.297242000000004,64.0,70.0
232,55.194201562500005,55.3293365625,67.0,68.0
233,55.59960656250001,55.773592875000006,59.0,66.0
234,53.572581562500005,55.793863125,40.0,80.0
235,56.0050115625,56.158727625000004,59.0,78.0
236,56.0050115625,56.165484375000005,40.0,79.0
237,56.0050115625,56.24149781250001,64.0,82.0
238,56.0050115625,56.46109218750001,67.0,78.0
239,56.410416562500004,56.582713687500004,59.0,78.0
240,56.815821562500005,57.01683487500001,60.0,72.0
241,56.815821562500005,57.231361687500005,67.0,72.0
242,56.815821562500005,57.24318600000001,64.0,75.0
243,57.22122656250001,57.363118312500006,60.0,71.0
244,57.6266315625,57.7347395625,60.0,73.0
245,57.6266315625,57.760077375,64.0,75.0
246,57.6266315625,57.812442187500004,67.0,70.0
247,58.032036562500004,58.22291475000001,60.0,62.0
248,58.437441562500005,58.5658198125,60.0,72.0
249,58.437441562500005,58.773589875000006,64.0,77.0
250,58.437441562500005,58.86649518750001,67.0,71.0
251,58.84284656250001,59.393521687500005,55.0,57.0
252,59.2482515625,59.4188595,64.0,82.0
253,59.2482515625,59.423927062500006,60.0,78.0
254,56.815821562500005,59.45264325000001,48.0,80.0
255,59.2482515625,59.457710812500004,67.0,77.0
256,59.653656562500004,59.834399625,59.0,80.0
257,59.653656562500004,59.85973743750001,47.0,79.0
258,60.059061562500005,60.4779800625,57.0,76.0
259,60.059061562500005,60.483047625000005,60.0,76.0
260,60.8698715625,61.00331737500001,57.0,76.0
261,60.8698715625,61.344533250000005,60.0,81.0
262,60.059061562500005,61.4881141875,45.0,79.0
263,61.275276562500004,61.49149256250001,57.0,77.0
264,60.8698715625,61.54385737500001,64.0,80.0
265,60.46446656250001,61.570884375000006,52.0,61.0
266,61.680681562500006,62.21953237500001,59.0,75.0
267,61.680681562500006,62.239802625,62.0,78.0
268,62.08608656250001,62.65872112500001,54.0,63.0
269,62.4914915625,62.660410312500005,59.0,78.0
270,61.680681562500006,62.7414913125,47.0,80.0
271,62.4914915625,62.863112812500006,62.0,79.0
272,62.4914915625,62.976288375,66.0,76.0
273,62.896896562500004,63.185747625000005,47.0,81.0
274,63.302301562500006,63.709395750000006,60.0,74.0
275,63.302301562500006,63.74655787500001,64.0,75.0
276,63.302301562500006,64.23811143750001,48.0,81.0
277,63.70770656250001,64.2566925,55.0,71.0
278,64.11311156250001,64.2921654375,60.0,80.0
279,64.11311156250001,64.37155725000001,64.0,89.0
280,64.11311156250001,64.41040856250001,67.0,79.0
281,64.51851656250001,64.9205431875,48.0,80.0
282,64.92392156250001,65.2752725625,57.0,74.0
283,64.92392156250001,65.49317775,62.0,77.0
284,65.7347315625,65.9374340625,57.0,83.0
285,65.7347315625,66.0455420625,62.0,81.0
286,66.1401365625,66.40871737500001,57.0,80.0
287,66.3428390625,66.47797406250001,62.0,79.0
288,65.3293265625,66.52189293750001,45.0,78.0
289,64.92392156250001,66.5455415625,38.0,94.0
290,66.5455415625,67.08777075,62.0,78.0
291,66.5455415625,67.124932875,55.0,74.0
292,66.95094656250001,67.422229875,50.0,78.0
293,67.35635156250001,67.5860810625,55.0,80.0
294,67.35635156250001,67.6080405,59.0,82.0
295,67.35635156250001,67.651959375,62.0,81.0
296,66.5455415625,67.65364856250001,43.0,80.0
297,67.55905406250001,67.82594568750001,50.0,79.0
298,67.76175656250001,68.307364125,55.0,80.0
299,67.96445906250001,68.469526125,59.0,81.0
300,68.5725665625,68.746552875,55.0,73.0
301,68.3698640625,69.1029714375,50.0,68.0
302,68.16716156250001,69.2313496875,43.0,79.0
303,69.3833765625,69.60972768750001,43.0,81.0
304,68.9779715625,69.624930375,59.0,87.0
305,68.9779715625,69.64857900000001,55.0,82.0
306,68.9779715625,69.65195737500001,62.0,79.0
307,69.7887815625,70.2702,55.0,77.0
308,69.7887815625,70.3090513125,59.0,78.0
309,70.19418656250001,70.67729418750001,47.0,73.0
310,69.7887815625,70.783713,40.0,80.0
311,70.59959156250001,70.83101025,55.0,78.0
312,70.59959156250001,70.85465887500001,59.0,79.0
313,70.80229406250001,70.89351018750001,47.0,81.0
314,70.59959156250001,70.91040206250001,64.0,82.0
315,71.00499656250001,71.273577375,55.0,80.0
316,71.20769906250001,71.69587425,59.0,79.0
317,71.8158065625,72.0674955,55.0,79.0
318,72.0185090625,72.1299954375,59.0,79.0
319,71.6131040625,72.2955358125,47.0,78.0
320,71.41040156250001,72.42560325000001,40.0,79.0
321,72.2212115625,72.5522923125,55.0,78.0
322,72.2212115625,72.584386875,59.0,80.0
323,72.2212115625,72.66208950000001,64.0,80.0
324,72.6266165625,72.74992725000001,40.0,81.0
325,73.0320215625,73.45262925,59.0,76.0
326,73.0320215625,73.47289950000001,62.0,78.0
327,73.43742656250001,73.8799936875,54.0,66.0
328,73.84283156250001,74.04046650000001,59.0,79.0
329,73.0320215625,74.06749350000001,47.0,83.0
330,73.84283156250001,74.07931781250001,62.0,79.0
331,73.84283156250001,74.08945293750001,66.0,78.0
332,74.24823656250001,74.37661481250001,59.0,79.0
333,74.04553406250001,74.4272904375,54.0,71.0
334,74.45093906250001,74.564114625,59.0,67.0
335,74.45093906250001,74.57087137500001,62.0,74.0
336,74.45093906250001,74.577628125,71.0,77.0
337,74.45093906250001,74.6029659375,66.0,70.0
338,74.65364156250001,74.98810068750001,71.0,78.0
339,74.65364156250001,75.03708712500001,59.0,73.0
340,74.65364156250001,75.04046550000001,66.0,69.0
341,74.65364156250001,75.05397900000001,62.0,78.0
342,75.0590465625,75.33269493750001,54.0,68.0
343,75.2617490625,75.5286406875,59.0,83.0
344,75.4644515625,75.69587025000001,54.0,80.0
345,74.65364156250001,75.75161343750001,47.0,80.0
346,75.6671540625,75.85465387500001,59.0,78.0
347,75.6671540625,75.928978125,62.0,78.0
348,75.8698565625,76.0286401875,47.0,79.0
349,75.6671540625,76.1485725,66.0,80.0
350,76.0725590625,76.192491375,59.0,79.0
351,76.2752615625,76.51681537500001,60.0,78.0
352,76.2752615625,76.59620718750001,64.0,79.0
353,76.68066656250001,76.787085375,60.0,79.0
354,76.4779640625,76.92728793750001,55.0,80.0
355,76.88336906250001,77.15870662500001,60.0,84.0
356,76.88336906250001,77.162085,64.0,95.0
357,77.08607156250001,77.347895625,55.0,79.0
358,76.2752615625,77.36140912500001,48.0,82.0
359,77.28877406250001,77.462760375,60.0,82.0
360,77.28877406250001,77.7347195625,64.0,84.0
361,77.69417906250001,77.79046275,60.0,79.0
362,77.89688156250001,77.93573287500001,62.0,55.0
363,77.89688156250001,78.293840625,66.0,74.0
364,78.3022865625,78.40870537500001,62.0,80.0
365,78.0995840625,78.5657998125,57.0,78.0
366,78.5049890625,78.773569875,62.0,81.0
367,78.5049890625,78.8630968125,66.0,81.0
368,78.7076915625,78.99485343750001,57.0,74.0
369,77.89688156250001,79.04215068750001,50.0,81.0
370,78.9103940625,79.08438037500001,62.0,79.0
371,79.1130965625,79.27694775,67.0,69.0
372,79.5185015625,80.0049875625,62.0,78.0
373,79.5185015625,80.1637711875,67.0,73.0
374,80.12660906250001,80.2279603125,62.0,74.0
375,79.92390656250001,80.3799871875,50.0,78.0
376,80.32931156250001,80.5421491875,62.0,81.0
377,80.32931156250001,80.62323018750001,67.0,80.0
378,80.32931156250001,80.65194637500001,71.0,80.0
379,80.53201406250001,80.88167587500001,50.0,74.0
380,79.5185015625,80.9644460625,43.0,74.0
381,80.73471656250001,81.1198513125,62.0,78.0
382,80.93741906250001,81.53876981250001,67.0,78.0
383,81.5455265625,81.67390481250001,62.0,67.0
384,81.34282406250001,82.07930981250001,50.0,68.0
385,81.14012156250001,82.20262050000001,43.0,79.0
386,81.9509315625,82.4171473125,62.0,78.0
387,82.3563365625,82.55734987500001,43.0,78.0
388,81.9509315625,82.64180925000001,67.0,78.0
389,82.7617415625,83.199241125,64.0,78.0
390,82.7617415625,83.212754625,67.0,75.0
391,83.16714656250001,83.65363256250001,47.0,71.0
392,82.7617415625,83.8157945625,40.0,78.0
393,83.57255156250001,84.03707812500001,64.0,79.0
394,83.57255156250001,84.03876731250001,67.0,83.0
395,83.57255156250001,84.0404565,71.0,78.0
396,83.97795656250001,84.2380914375,47.0,66.0
397,84.18065906250001,84.28032112500001,64.0,74.0
398,84.18065906250001,84.28032112500001,67.0,74.0
399,84.18065906250001,84.293834625,71.0,78.0
400,84.38336156250001,84.5691721875,64.0,78.0
401,84.38336156250001,84.63673968750001,67.0,74.0
402,84.38336156250001,84.6772801875,71.0,78.0
403,84.7887665625,84.86815837500001,64.0,78.0
404,84.58606406250001,85.08099600000001,47.0,75.0
405,84.9914690625,85.26511743750001,64.0,81.0
406,84.9914690625,85.29552281250001,69.0,81.0
407,85.1941715625,85.41545512500001,47.0,79.0
408,84.38336156250001,85.4610631875,40.0,79.0
409,85.3968740625,85.577617125,64.0,82.0
410,85.3968740625,85.5826846875,67.0,80.0
411,86.0049815625,86.4340351875,59.0,76.0
412,86.0049815625,86.455994625,62.0,78.0
413,86.0049815625,86.60464312500001,66.0,70.0
414,86.61308906250001,86.7617375625,59.0,79.0
415,86.41038656250001,86.92052118750001,54.0,70.0
416,86.81579156250001,87.29383162500001,66.0,81.0
417,86.0049815625,87.361399125,47.0,79.0
418,87.01849406250001,87.37660181250001,54.0,71.0
419,87.22119656250001,87.82423650000001,59.0,80.0
420,87.42389906250001,87.9863985,62.0,78.0
421,87.82930406250001,88.28538468750001,54.0,81.0
422,88.0320065625,88.44416831250001,59.0,79.0
423,87.62660156250001,88.59450600000001,47.0,76.0
424,88.2347090625,88.61308706250001,62.0,79.0
425,88.4374115625,88.63335731250001,54.0,80.0
426,88.6401140625,89.057343375,59.0,79.0
427,88.8428165625,89.0759244375,62.0,75.0
428,89.0455190625,89.16882975000001,66.0,64.0
429,89.2482215625,89.6434914375,57.0,78.0
430,89.2482215625,89.84788312500001,60.0,83.0
431,89.85632906250001,90.35295018750001,57.0,71.0
432,90.05903156250001,90.38335556250001,60.0,75.0
433,90.26173406250001,90.4137609375,64.0,72.0
434,90.46443656250001,90.5353824375,60.0,70.0
435,90.46443656250001,90.6299769375,64.0,80.0
436,89.2482215625,90.69754443750001,45.0,78.0
437,89.65362656250001,90.72626062500001,52.0,67.0
438,90.86984156250001,91.7279488125,60.0,71.0
439,90.86984156250001,91.74821906250001,57.0,64.0
440,90.86984156250001,91.85801625,45.0,75.0
441,92.28538068750001,92.86815037500001,53.0,67.0
442,92.45936700000001,93.1975419375,65.0,78.0
443,92.35970493750001,93.24315000000001,57.0,73.0
444,92.395177875,93.33098775,60.0,70.0
445,93.30227156250001,93.597879375,53.0,79.0
446,93.70767656250001,93.87659531250002,57.0,79.0
447,93.70767656250001,94.04889243750002,60.0,80.0
448,94.5184865625,94.678959375,53.0,61.0
449,92.84956931250001,94.94754018750001,48.0,73.0
450,94.9238915625,95.16206700000001,53.0,79.0
451,94.9238915625,95.28875606250001,57.0,80.0
452,94.9238915625,95.570850375,65.0,76.0
453,94.9238915625,95.5826746875,60.0,79.0
454,95.3292965625,95.6265935625,53.0,81.0
455,92.442475125,95.65868812500001,41.0,80.0
456,95.5319990625,95.67220162500001,57.0,74.0
457,95.1265940625,95.68233675,48.0,81.0
458,95.7347015625,96.23132268750001,59.0,72.0
459,95.7347015625,96.324228,62.0,75.0
460,96.14010656250001,96.68402493750001,50.0,71.0
461,96.54551156250001,96.901930125,59.0,76.0
462,96.54551156250001,96.94584900000001,62.0,78.0
463,96.54551156250001,96.94584900000001,67.0,75.0
464,95.7347015625,97.185713625,43.0,79.0
465,96.95091656250001,97.22625412500001,50.0,68.0
466,97.15361906250001,97.27355137500001,59.0,71.0
467,97.35632156250001,97.91882100000001,59.0,77.0
468,97.35632156250001,97.9610506875,62.0,76.0
469,97.76172656250002,98.2279423125,50.0,66.0
470,98.1671315625,98.42050968750002,59.0,78.0
471,97.35632156250001,98.47625287500001,43.0,78.0
472,98.3698340625,98.537063625,50.0,67.0
473,98.1671315625,98.57422575000001,62.0,81.0
474,98.1671315625,98.63841487500001,67.0,75.0
475,98.5725365625,98.78537418750001,43.0,71.0
476,98.7752390625,98.908684875,59.0,80.0
477,98.9779415625,99.18909000000001,59.0,78.0
478,98.9779415625,99.41881950000001,64.0,79.0
479,99.38334656250001,99.59449500000001,59.0,76.0
480,98.9779415625,99.82760287500001,52.0,83.0
481,99.78875156250001,99.9813189375,59.0,78.0
482,99.78875156250001,100.0674675,64.0,79.0
483,99.78875156250001,100.26848081250002,67.0,74.0
484,100.19415656250001,100.47287250000001,59.0,76.0
485,100.59956156250001,100.807331625,59.0,75.0
486,100.59956156250001,101.07591243750001,67.0,72.0
487,100.59956156250001,101.09956106250002,64.0,76.0
488,101.00496656250002,101.19246637500001,59.0,78.0
489,100.59956156250001,101.52354712500001,52.0,69.0
490,101.4103715625,101.5522633125,59.0,81.0
491,101.4103715625,101.81408737500001,67.0,78.0
492,101.4103715625,101.83097925000001,64.0,82.0
493,101.8157765625,101.93401968750001,59.0,78.0
494,102.2211815625,102.68401893750001,59.0,78.0
495,102.2211815625,102.69246487500001,62.0,74.0
496,102.2211815625,102.69753243750002,66.0,71.0
497,102.62658656250001,103.0944915,54.0,61.0
498,103.03199156250001,103.29043725000001,59.0,79.0
499,103.03199156250001,103.35969393750001,62.0,79.0
500,102.2211815625,103.47455868750001,47.0,78.0
501,103.03199156250001,103.55901806250002,66.0,79.0
502,103.23469406250001,103.70766656250001,54.0,74.0
503,103.43739656250001,103.71611250000001,59.0,79.0
504,103.64009906250001,104.17894987500001,62.0,72.0
505,104.24820656250002,104.46611175000001,59.0,74.0
506,104.4509090625,104.55226031250001,62.0,66.0
507,104.04550406250002,104.7448276875,54.0,72.0
508,104.6536115625,104.89347618750001,59.0,78.0
509,103.84280156250001,104.9036113125,47.0,74.0
510,104.6536115625,104.928949125,62.0,80.0
511,104.8563140625,104.98300312500001,54.0,69.0
512,104.6536115625,104.98469231250002,66.0,76.0
513,105.0590165625,105.25834068750001,47.0,77.0
514,105.46442156250001,105.96442106250001,64.0,79.0
515,105.46442156250001,105.97455618750001,60.0,75.0
516,105.86982656250001,106.34110987500001,55.0,73.0
517,106.27523156250001,106.428947625,60.0,78.0
518,106.27523156250001,106.50327187500001,64.0,81.0
519,105.46442156250001,106.523542125,48.0,81.0
520,106.27523156250001,106.53367725000001,67.0,77.0
521,106.47793406250001,106.59110962500002,55.0,79.0
522,106.68063656250001,108.65360756250001,60.0,70.0
523,106.68063656250001,108.66881025,63.0,70.0
524,106.68063656250001,108.67049943750001,67.0,74.0
525,106.68063656250001,108.685702125,48.0,78.0
526,108.70766156250001,109.3225258125,59.0,70.0
527,108.70766156250001,109.34617443750001,62.0,73.0
528,108.70766156250001,109.52691750000001,55.0,68.0
529,109.51847156250001,109.66205250000002,59.0,72.0
530,109.51847156250001,109.69245787500002,62.0,74.0
531,110.32928156250001,110.58265968750001,62.0,66.0
532,110.32928156250001,110.59955156250001,59.0,65.0
533,111.1400915625,111.23299687500001,55.0,62.0
534,109.11306656250001,111.26846981250002,50.0,53.0
535,108.70766156250001,111.489753375,43.0,77.0
536,111.1400915625,111.59110462500001,59.0,73.0
537,111.1400915625,111.64346943750002,62.0,72.0
538,111.5454965625,111.70596937500001,55.0,73.0
539,111.95090156250001,112.59954956250002,62.0,68.0
540,111.95090156250001,112.7819818125,57.0,62.0
541,112.76171156250001,112.8934681875,62.0,72.0
542,112.76171156250001,112.93738706250001,66.0,69.0
543,112.35630656250001,113.0049545625,45.0,50.0
544,111.95090156250001,113.11644093750002,38.0,72.0
545,113.57252156250001,113.71272412500001,62.0,67.0
546,113.57252156250001,113.77015650000001,66.0,66.0
547,113.97792656250002,114.49819631250001,57.0,64.0
548,114.3833315625,114.50326387500002,62.0,71.0
549,114.3833315625,114.70089881250001,66.0,71.0
550,114.7887365625,115.20934425000002,62.0,78.0
551,115.19414156250001,115.59954656250001,64.0,78.0
552,115.19414156250001,115.955965125,60.0,71.0
553,116.00495156250001,116.11474875,64.0,73.0
554,116.00495156250001,116.1536000625,67.0,69.0
555,116.81576156250001,116.99650462500001,64.0,75.0
556,116.81576156250001,117.04380187500001,67.0,69.0
557,117.22116656250002,117.415423125,60.0,63.0
558,117.6265715625,117.7431255,64.0,76.0
559,117.6265715625,117.7515714375,60.0,74.0
560,117.6265715625,117.80055787500001,67.0,73.0
561,115.59954656250001,117.807314625,55.0,59.0
562,115.19414156250001,117.945828,48.0,78.0
563,118.43738156250001,118.94751618750001,67.0,72.0
564,118.43738156250001,118.95258375000002,64.0,74.0
565,118.84278656250001,119.31406987500002,59.0,65.0
566,119.24819156250001,119.43400218750001,64.0,78.0
567,119.24819156250001,119.51677237500002,67.0,76.0
568,118.43738156250001,119.57589393750001,52.0,72.0
569,119.65359656250001,120.04886643750001,59.0,65.0
570,120.05900156250001,120.60798750000001,62.0,64.0
571,120.05900156250001,120.6333253125,66.0,70.0
572,120.46440656250002,121.01170331250002,54.0,61.0
573,120.8698115625,121.20427068750001,57.0,71.0
574,120.8698115625,121.32758137500001,62.0,76.0
575,120.05900156250001,121.34447325000001,47.0,74.0
576,120.8698115625,121.378257,66.0,73.0
577,121.2752165625,121.47116231250001,54.0,65.0
578,121.68062156250001,122.0758914375,59.0,74.0
579,121.68062156250001,122.07926981250002,55.0,74.0
580,122.49143156250001,122.58264768750001,62.0,75.0
581,122.49143156250001,122.59447200000001,55.0,74.0
582,122.08602656250001,122.60798550000001,50.0,55.0
583,121.68062156250001,122.64683681250001,43.0,75.0
584,123.09953906250001,123.47960625000002,55.0,73.0
585,123.09953906250001,123.75325462500001,62.0,70.0
586,123.70764656250002,123.98467331250001,55.0,69.0
587,123.91034906250002,124.00663275000001,59.0,66.0
588,123.50494406250002,124.2296055,50.0,59.0
589,124.1130515625,124.28365950000001,55.0,67.0
590,123.30224156250001,124.39683506250002,43.0,73.0
591,124.1130515625,124.49142956250002,67.0,72.0
592,124.1130515625,124.52859168750001,59.0,70.0
593,124.1130515625,124.54717275000002,62.0,68.0
594,124.5184565625,124.60967268750001,55.0,72.0
595,124.92386156250001,125.35122600000001,57.0,65.0
596,124.92386156250001,125.35291518750002,62.0,68.0
597,125.73467156250001,125.83433362500001,57.0,74.0
598,125.73467156250001,125.85798225,66.0,73.0
599,125.32926656250001,126.2752115625,45.0,27.0
600,124.92386156250001,126.39852225000001,38.0,74.0
601,126.34277906250001,126.66372468750001,57.0,66.0
602,126.34277906250001,126.69075168750001,62.0,70.0
603,126.95088656250002,127.20426468750001,57.0,73.0
604,127.15358906250002,127.25156193750001,62.0,68.0
605,126.74818406250002,127.58433187500002,45.0,59.0
606,126.54548156250002,127.62318318750002,38.0,74.0
607,127.5589940625,127.64683181250001,57.0,68.0
608,127.5589940625,127.82250731250001,62.0,75.0
609,127.5589940625,127.88838562500001,66.0,74.0
610,127.7616965625,127.93737206250002,57.0,67.0
611,128.16710156250002,128.40696618750002,55.0,65.0
612,128.16710156250002,128.69243887500002,60.0,65.0
613,128.57250656250002,128.773519875,55.0,63.0
614,128.9779115625,129.07926281250002,55.0,75.0
615,128.9779115625,129.08095200000002,64.0,75.0
616,128.16710156250002,129.18399243750002,48.0,72.0
617,129.58601906250001,129.81912693750002,55.0,62.0
618,129.58601906250001,129.9035863125,60.0,67.0
619,129.99142406250002,130.151896875,55.0,74.0
620,130.1941265625,130.2295995,60.0,57.0
621,129.7887215625,130.57419375,48.0,67.0
622,130.39682906250002,130.63838287500002,64.0,78.0
623,130.39682906250002,130.6434504375,55.0,78.0
624,130.5995315625,130.753247625,48.0,52.0
625,130.80223406250002,130.9035853125,55.0,75.0
626,130.80223406250002,131.037031125,60.0,78.0
627,131.0049365625,131.1434499375,55.0,72.0
628,131.4103415625,131.7346655625,55.0,69.0
629,131.4103415625,131.7616925625,59.0,69.0
630,131.8157465625,132.12148950000002,50.0,58.0
631,132.01844906250003,132.29209743750002,55.0,74.0
632,131.4103415625,132.3562865625,43.0,74.0
633,132.2211515625,132.381624375,50.0,65.0
634,132.4238540625,132.58770525,55.0,76.0
635,132.4238540625,132.65358356250002,59.0,76.0
636,133.03196156250002,133.3056099375,57.0,67.0
637,133.03196156250002,133.3123666875,62.0,70.0
638,133.43736656250002,133.7447986875,45.0,54.0
639,133.6400690625,133.87824450000002,57.0,78.0
640,133.6400690625,133.88500125000002,66.0,68.0
641,133.84277156250002,134.04885243750002,45.0,65.0
642,133.03196156250002,134.05392,38.0,76.0
643,134.0454740625,134.14344693750002,57.0,75.0
644,134.0454740625,134.2414198125,62.0,76.0
645,134.24817656250002,134.3562845625,57.0,67.0
646,134.65358156250002,135.03871631250001,59.0,68.0
647,134.65358156250002,135.06067575,64.0,75.0
648,135.46439156250003,135.5539185,59.0,75.0
649,135.46439156250003,135.577567125,67.0,70.0
650,135.05898656250002,135.6299319375,47.0,57.0
651,134.65358156250002,135.9069586875,40.0,75.0
652,136.07249906250001,136.3393906875,59.0,69.0
653,136.07249906250001,136.3562825625,64.0,73.0
654,136.47790406250002,136.8900658125,47.0,58.0
655,136.6806065625,136.9306063125,59.0,74.0
656,136.2752015625,136.93567387500002,40.0,75.0
657,136.88330906250002,136.9745251875,64.0,72.0
658,137.0860115625,137.50324087500002,38.0,76.0
659,137.0860115625,137.51337600000002,62.0,76.0
660,137.0860115625,137.5420921875,57.0,74.0
661,137.8968215625,138.12486187500002,55.0,69.0
662,137.8968215625,138.3258751875,60.0,72.0
663,138.3022265625,138.46607775,55.0,64.0
664,137.8968215625,138.82925306250002,48.0,76.0
665,138.7076315625,138.8512125,60.0,76.0
666,138.7076315625,138.87148275,64.0,76.0
667,138.7076315625,138.895131375,55.0,74.0
668,139.3157390625,139.55560368750002,55.0,71.0
669,139.3157390625,139.6029009375,60.0,75.0
670,139.7211440625,139.97790056250003,55.0,75.0
671,139.92384656250002,140.0049275625,60.0,67.0
672,140.1265490625,140.307292125,64.0,78.0
673,140.1265490625,140.34445425,55.0,76.0
674,140.5319540625,140.624859375,55.0,74.0
675,140.5319540625,140.6603323125,60.0,76.0
676,139.51844156250002,141.0403995,48.0,74.0
677,140.9373590625,141.04546706250002,59.0,73.0
678,141.14006156250002,141.5387098125,60.0,69.0
679,141.14006156250002,141.540399,57.0,63.0
680,141.54546656250002,142.02688500000002,52.0,65.0
681,141.14006156250002,142.07924981250002,45.0,75.0
682,141.95087156250003,142.24141181250002,57.0,70.0
683,141.95087156250003,142.3224928125,60.0,77.0
684,141.95087156250003,142.35458737500002,64.0,76.0
685,142.3562765625,142.5454655625,45.0,74.0
686,142.7616815625,143.18904600000002,57.0,73.0
687,142.7616815625,143.20762706250002,62.0,74.0
688,143.1670865625,143.44073493750003,54.0,59.0
689,143.36978906250002,143.69073468750003,57.0,75.0
690,143.77519406250002,143.9238425625,54.0,72.0
691,142.7616815625,143.976207375,47.0,75.0
692,143.36978906250002,143.99985600000002,62.0,76.0
693,143.36978906250002,144.06911268750002,66.0,75.0
694,143.9778965625,144.14681531250002,57.0,67.0
695,144.3833015625,144.71269312500002,55.0,70.0
696,144.3833015625,144.787017375,60.0,70.0
697,144.99140906250003,145.253233125,55.0,74.0
698,145.1941115625,145.3799221875,60.0,74.0
699,144.7887065625,145.38667893750002,43.0,72.0
700,144.3833015625,145.3900573125,36.0,74.0
701,145.3968140625,145.50661125000002,64.0,75.0
702,145.5995165625,145.7701245,55.0,77.0
703,146.00492156250002,146.39850225,57.0,73.0
704,146.00492156250002,146.4508670625,62.0,75.0
705,146.6130290625,146.71438031250003,57.0,71.0
706,146.41032656250002,146.86809637500002,45.0,64.0
707,146.81573156250002,147.04208268750003,57.0,75.0
708,146.81573156250002,147.08431237500002,62.0,81.0
709,146.81573156250002,147.31742025000003,66.0,75.0
710,147.22113656250002,147.52012275,57.0,76.0
711,147.4238390625,147.56066325,62.0,74.0
712,146.00492156250002,147.58431187500003,38.0,81.0
713,147.0184340625,147.594447,45.0,76.0
714,147.62654156250002,148.16877075000002,62.0,78.0
715,147.62654156250002,148.205932875,55.0,74.0
716,148.03194656250002,148.50322987500002,50.0,78.0
717,148.43735156250003,148.66708106250002,55.0,80.0
718,148.43735156250003,148.6890405,59.0,82.0
719,148.43735156250003,148.732959375,62.0,81.0
720,147.62654156250002,148.7346485625,43.0,80.0
721,148.6400540625,148.9069456875,50.0,79.0
722,148.8427565625,149.388364125,55.0,80.0
723,149.04545906250002,149.550526125,59.0,81.0
724,149.6535665625,149.827552875,55.0,73.0
725,149.45086406250002,150.18397143750002,50.0,68.0
726,149.2481615625,150.31234968750002,43.0,79.0
727,150.4643765625,150.69072768750002,43.0,81.0
728,150.0589715625,150.705930375,59.0,87.0
729,150.0589715625,150.729579,55.0,82.0
730,150.0589715625,150.732957375,62.0,79.0
731,150.8697815625,151.3512,55.0,77.0
732,150.8697815625,151.39005131250002,59.0,78.0
733,151.2751865625,151.7582941875,47.0,73.0
734,150.8697815625,151.86471300000002,40.0,80.0
735,151.6805915625,151.91201025,55.0,78.0
736,151.6805915625,151.935658875,59.0,79.0
737,151.88329406250003,151.97451018750002,47.0,81.0
738,151.6805915625,151.99140206250001,64.0,82.0
739,152.08599656250001,152.35457737500002,55.0,80.0
740,152.2886990625,152.77687425000002,59.0,79.0
741,152.89680656250002,153.14849550000002,55.0,79.0
742,153.0995090625,153.2109954375,59.0,79.0
743,152.6941040625,153.3765358125,47.0,78.0
744,152.49140156250002,153.50660325,40.0,79.0
745,153.30221156250002,153.6332923125,55.0,78.0
746,153.30221156250002,153.66538687500002,59.0,80.0
747,153.30221156250002,153.74308950000002,64.0,80.0
748,153.70761656250002,153.83092725,40.0,81.0
749,154.11302156250002,154.53362925000002,59.0,76.0
750,154.11302156250002,154.5538995,62.0,78.0
751,154.51842656250003,154.9609936875,54.0,66.0
752,154.92383156250003,155.12146650000003,59.0,79.0
753,154.11302156250002,155.1484935,47.0,83.0
754,154.92383156250003,155.1603178125,62.0,79.0
755,154.92383156250003,155.17045293750002,66.0,78.0
756,155.3292365625,155.45761481250003,59.0,79.0
757,155.1265340625,155.50829043750002,54.0,71.0
758,155.53193906250002,155.64511462500002,59.0,67.0
759,155.53193906250002,155.651871375,62.0,74.0
760,155.53193906250002,155.658628125,71.0,77.0
761,155.53193906250002,155.6839659375,66.0,70.0
762,155.7346415625,156.06910068750003,71.0,78.0
763,155.7346415625,156.11808712500002,59.0,73.0
764,155.7346415625,156.12146550000003,66.0,69.0
765,155.7346415625,156.13497900000002,62.0,78.0
766,156.1400465625,156.41369493750003,54.0,68.0
767,156.34274906250002,156.60964068750002,59.0,83.0
768,156.5454515625,156.77687025,54.0,80.0
769,155.7346415625,156.83261343750002,47.0,80.0
770,156.74815406250002,156.935653875,59.0,78.0
771,156.74815406250002,157.009978125,62.0,78.0
772,156.9508565625,157.10964018750002,47.0,79.0
773,156.74815406250002,157.22957250000002,66.0,80.0
774,157.15355906250002,157.27349137500002,59.0,79.0
775,157.3562615625,157.597815375,60.0,78.0
776,157.3562615625,157.67720718750002,64.0,79.0
777,157.7616665625,157.86808537500002,60.0,79.0
778,157.55896406250002,158.0082879375,55.0,80.0
779,157.96436906250003,158.23970662500003,60.0,84.0
780,157.96436906250003,158.243085,64.0,95.0
781,158.1670715625,158.42889562500002,55.0,79.0
782,157.3562615625,158.442409125,48.0,82.0
783,158.36977406250003,158.543760375,60.0,82.0
784,158.36977406250003,158.81571956250002,64.0,84.0
785,158.7751790625,158.87146275,60.0,79.0
786,158.97788156250002,159.016732875,62.0,55.0
787,158.97788156250002,159.37484062500002,66.0,74.0
788,159.38328656250002,159.48970537500003,62.0,80.0
789,159.1805840625,159.6467998125,57.0,78.0
790,159.5859890625,159.854569875,62.0,81.0
791,159.5859890625,159.94409681250002,66.0,81.0
792,159.78869156250002,160.0758534375,57.0,74.0
793,158.97788156250002,160.12315068750002,50.0,81.0
794,159.9913940625,160.165380375,62.0,79.0
795,160.19409656250002,160.35794775000002,67.0,69.0
796,160.59950156250002,161.0859875625,62.0,78.0
797,160.59950156250002,161.24477118750002,67.0,73.0
798,161.2076090625,161.3089603125,62.0,74.0
799,161.00490656250003,161.46098718750002,50.0,78.0
800,161.41031156250003,161.62314918750002,62.0,81.0
801,161.41031156250003,161.7042301875,67.0,80.0
802,161.41031156250003,161.732946375,71.0,80.0
803,161.6130140625,161.962675875,50.0,74.0
804,160.59950156250002,162.04544606250002,43.0,74.0
805,161.8157165625,162.20085131250002,62.0,78.0
806,162.01841906250002,162.6197698125,67.0,78.0
807,162.6265265625,162.7549048125,62.0,67.0
808,162.42382406250002,163.1603098125,50.0,68.0
809,162.2211215625,163.2836205,43.0,79.0
810,163.0319315625,163.4981473125,62.0,78.0
811,163.4373365625,163.63834987500002,43.0,78.0
812,163.0319315625,163.72280925,67.0,78.0
813,163.8427415625,164.280241125,64.0,78.0
814,163.8427415625,164.29375462500002,67.0,75.0
815,164.2481465625,164.73463256250002,47.0,71.0
816,163.8427415625,164.89679456250002,40.0,78.0
817,164.6535515625,165.118078125,64.0,79.0
818,164.6535515625,165.11976731250002,67.0,83.0
819,164.6535515625,165.12145650000002,71.0,78.0
820,165.05895656250001,165.31909143750002,47.0,66.0
821,165.2616590625,165.36132112500002,64.0,74.0
822,165.2616590625,165.36132112500002,67.0,74.0
823,165.2616590625,165.374834625,71.0,78.0
824,165.46436156250002,165.6501721875,64.0,78.0
825,165.46436156250002,165.71773968750003,67.0,74.0
826,165.46436156250002,165.75828018750002,71.0,78.0
827,165.86976656250002,165.94915837500002,64.0,78.0
828,165.6670640625,166.16199600000002,47.0,75.0
829,166.0724690625,166.34611743750003,64.0,81.0
830,166.0724690625,166.3765228125,69.0,81.0
831,166.27517156250002,166.496455125,47.0,79.0
832,165.46436156250002,166.54206318750002,40.0,79.0
833,166.4778740625,166.658617125,64.0,82.0
834,166.4778740625,166.66368468750002,67.0,80.0
835,167.08598156250002,167.51503518750002,59.0,76.0
836,167.08598156250002,167.536994625,62.0,78.0
837,167.08598156250002,167.685643125,66.0,70.0
838,167.6940890625,167.84273756250002,59.0,79.0
839,167.49138656250003,168.0015211875,54.0,70.0
840,167.89679156250003,168.374831625,66.0,81.0
841,167.08598156250002,168.442399125,47.0,79.0
842,168.0994940625,168.4576018125,54.0,71.0
843,168.30219656250003,168.9052365,59.0,80.0
844,168.50489906250002,169.06739850000002,62.0,78.0
845,168.91030406250002,169.36638468750002,54.0,81.0
846,169.1130065625,169.52516831250003,59.0,79.0
847,168.7076015625,169.675506,47.0,76.0
848,169.31570906250002,169.69408706250002,62.0,79.0
849,169.5184115625,169.71435731250003,54.0,80.0
850,169.72111406250002,170.138343375,59.0,79.0
851,169.9238165625,170.1569244375,62.0,75.0
852,170.12651906250002,170.24982975,66.0,64.0
853,170.3292215625,170.7244914375,57.0,78.0
854,170.3292215625,170.92888312500003,60.0,83.0
855,170.93732906250003,171.43395018750002,57.0,71.0
856,171.1400315625,171.4643555625,60.0,75.0
857,171.34273406250003,171.49476093750002,64.0,72.0
858,171.54543656250002,171.61638243750002,60.0,70.0
859,171.54543656250002,171.71097693750002,64.0,80.0
860,170.3292215625,171.77854443750002,45.0,78.0
861,170.7346265625,171.80726062500003,52.0,67.0
862,171.95084156250002,172.8089488125,60.0,71.0
863,171.95084156250002,172.82921906250002,57.0,64.0
864,171.95084156250002,172.93901625,45.0,75.0
865,173.36638068750003,173.94915037500002,53.0,67.0
866,173.540367,174.27854193750002,65.0,78.0
867,173.44070493750002,174.32415,57.0,73.0
868,173.47617787500002,174.41198775,60.0,70.0
869,174.38327156250003,174.678879375,53.0,79.0
870,174.78867656250003,174.95759531250002,57.0,79.0
871,174.78867656250003,175.12989243750002,60.0,80.0
872,175.5994865625,175.75995937500002,53.0,61.0
873,173.9305693125,176.02854018750003,48.0,73.0
874,176.0048915625,176.24306700000002,53.0,79.0
875,176.0048915625,176.36975606250002,57.0,80.0
876,176.0048915625,176.651850375,65.0,76.0
877,176.0048915625,176.66367468750002,60.0,79.0
878,176.4102965625,176.70759356250002,53.0,81.0
879,173.523475125,176.73968812500001,41.0,80.0
880,176.61299906250002,176.753201625,57.0,74.0
881,176.20759406250002,176.76333675,48.0,81.0
882,176.8157015625,177.13157962500003,59.0,74.0
883,176.8157015625,177.47955225,64.0,78.0
884,177.6265115625,177.8325924375,59.0,81.0
885,177.2211065625,177.84272756250002,47.0,74.0
886,176.8157015625,177.969416625,40.0,81.0
887,177.6265115625,178.10961918750002,64.0,85.0
888,177.6265115625,178.13664618750002,67.0,80.0
889,178.03191656250002,178.28360550000002,59.0,82.0
890,178.43732156250002,178.9238075625,60.0,77.0
891,178.43732156250002,178.94069943750003,64.0,79.0
892,178.84272656250002,179.320766625,55.0,73.0
893,179.24813156250002,179.44914487500003,60.0,80.0
894,179.24813156250002,179.51502318750002,64.0,85.0
895,179.24813156250002,179.5555636875,67.0,80.0
896,178.43732156250002,179.58596906250003,48.0,82.0
897,179.4508340625,179.60961768750002,55.0,75.0
898,179.65353656250002,179.80218506250003,60.0,80.0
899,180.05894156250002,180.5015086875,62.0,75.0
900,180.05894156250002,180.53191406250002,59.0,72.0
901,180.46434656250003,181.06738650000003,50.0,78.0
902,180.86975156250003,181.27684575,59.0,77.0
903,180.86975156250003,181.29711600000002,62.0,78.0
904,180.05894156250002,181.3562375625,43.0,75.0
905,181.27515656250003,181.4136699375,50.0,82.0
906,181.47785906250002,181.59103462500002,57.0,80.0
907,181.6805615625,181.861304625,57.0,78.0
908,181.6805615625,182.08427737500003,62.0,79.0
909,182.0859665625,182.20927725,57.0,80.0
910,181.6805615625,182.293736625,50.0,89.0
911,182.4913715625,182.75657400000003,59.0,74.0
912,182.4913715625,183.24306,63.0,74.0
913,182.8967765625,183.26333025000002,59.0,80.0
914,182.4913715625,183.26333025000002,66.0,66.0
915,182.4913715625,183.27684375,51.0,79.0
916,183.3021815625,183.61805962500003,59.0,74.0
917,183.3021815625,183.96603225,64.0,78.0
918,184.1129915625,184.3190724375,59.0,81.0
919,183.7075865625,184.32920756250002,47.0,74.0
920,183.3021815625,184.455896625,40.0,81.0
921,184.1129915625,184.59609918750002,64.0,85.0
922,184.1129915625,184.62312618750002,67.0,80.0
923,184.51839656250002,184.77008550000002,59.0,82.0
924,184.92380156250002,185.4102875625,60.0,77.0
925,184.92380156250002,185.42717943750003,64.0,79.0
926,185.32920656250002,185.807246625,55.0,73.0
927,185.73461156250002,185.93562487500003,60.0,80.0
928,185.73461156250002,186.00150318750002,64.0,85.0
929,185.73461156250002,186.0420436875,67.0,80.0
930,184.92380156250002,186.07244906250003,48.0,82.0
931,185.9373140625,186.09609768750002,55.0,75.0
932,186.14001656250002,186.28866506250003,60.0,80.0
933,186.54542156250002,186.9879886875,62.0,75.0
934,186.54542156250002,187.01839406250002,59.0,72.0
935,186.95082656250003,187.55386650000003,50.0,78.0
936,187.35623156250003,187.76332575,59.0,77.0
937,187.35623156250003,187.78359600000002,62.0,78.0
938,186.54542156250002,187.8427175625,43.0,75.0
939,187.76163656250003,187.9001499375,50.0,82.0
940,187.96433906250002,188.07751462500002,57.0,80.0
941,188.1670415625,188.347784625,57.0,78.0
942,188.1670415625,188.57075737500003,62.0,79.0
943,188.5724465625,188.69575725,57.0,80.0
944,188.1670415625,188.780216625,50.0,89.0
945,188.9778515625,189.24305400000003,59.0,74.0
946,188.9778515625,189.72954000000001,63.0,74.0
947,188.9778515625,189.74981025000002,47.0,66.0
948,189.3832565625,189.74981025000002,59.0,80.0
949,188.9778515625,189.76332375,51.0,79.0
950,189.7886615625,190.10453962500003,59.0,74.0
951,189.7886615625,190.45251225,64.0,78.0
952,190.5994715625,190.8055524375,59.0,81.0
953,190.1940665625,190.81568756250002,47.0,74.0
954,189.7886615625,190.942376625,40.0,81.0
955,190.5994715625,191.08257918750002,64.0,85.0
956,190.5994715625,191.10960618750002,67.0,80.0
957,191.00487656250002,191.25656550000002,59.0,82.0
958,191.41028156250002,191.89676756250003,60.0,77.0
959,191.41028156250002,191.91365943750003,64.0,79.0
960,191.81568656250002,192.293726625,55.0,73.0
961,192.22109156250002,192.42210487500003,60.0,80.0
962,192.22109156250002,192.48798318750002,64.0,85.0
963,192.22109156250002,192.5285236875,67.0,80.0
964,191.41028156250002,192.55892906250003,48.0,82.0
965,192.4237940625,192.58257768750002,55.0,75.0
966,192.62649656250002,192.77514506250003,60.0,80.0
967,193.03190156250002,193.4744686875,62.0,75.0
968,193.03190156250002,193.50487406250002,59.0,72.0
969,193.43730656250003,194.04034650000003,50.0,78.0
970,193.84271156250003,194.24980575,59.0,77.0
971,193.84271156250003,194.27007600000002,62.0,78.0
972,193.03190156250002,194.3291975625,43.0,75.0
973,194.24811656250003,194.3866299375,50.0,82.0
974,194.45081906250002,194.56399462500002,57.0,80.0
975,194.6535215625,194.83426462500003,57.0,78.0
976,194.6535215625,195.05723737500003,62.0,79.0
977,195.0589265625,195.18223725000001,57.0,80.0
978,194.6535215625,195.266696625,50.0,89.0
979,195.4643315625,195.72953400000003,59.0,74.0
980,195.4643315625,196.21602000000001,63.0,74.0
981,195.8697365625,196.23629025000002,59.0,80.0
982,195.4643315625,196.23629025000002,66.0,66.0
983,195.4643315625,196.24980375,51.0,79.0
984,196.2751415625,196.59101962500003,59.0,74.0
985,196.2751415625,196.93899225,64.0,78.0
986,197.08595156250001,197.2920324375,59.0,81.0
987,196.6805465625,197.30216756250002,47.0,74.0
988,196.2751415625,197.428856625,40.0,81.0
989,197.08595156250001,197.56905918750002,64.0,85.0
990,197.08595156250001,197.59608618750002,67.0,80.0
991,197.49135656250002,197.74304550000002,59.0,82.0
992,197.89676156250002,198.38324756250003,60.0,77.0
993,197.89676156250002,198.40013943750003,64.0,79.0
994,198.30216656250002,198.780206625,55.0,73.0
995,198.70757156250002,198.90858487500003,60.0,80.0
996,198.70757156250002,198.97446318750002,64.0,85.0
997,198.70757156250002,199.0150036875,67.0,80.0
998,197.89676156250002,199.04540906250003,48.0,82.0
999,198.9102740625,199.06905768750002,55.0,75.0
1000,199.11297656250002,199.26162506250003,60.0,80.0
1001,199.51838156250002,199.9609486875,62.0,75.0
1002,199.51838156250002,199.99135406250002,59.0,72.0
1003,199.92378656250003,200.52682650000003,50.0,78.0
1004,200.32919156250003,200.73628575,59.0,77.0
1005,200.32919156250003,200.75655600000002,62.0,78.0
1006,199.51838156250002,200.8156775625,43.0,75.0
1007,200.73459656250003,200.8731099375,50.0,82.0
1008,200.93729906250002,201.05047462500002,57.0,80.0
1009,201.14000156250003,201.32074462500003,57.0,78.0
1010,201.14000156250003,201.54371737500003,62.0,79.0
1011,201.5454065625,201.66871725000001,57.0,80.0
1012,201.14000156250003,201.753176625,50.0,89.0
1013,201.9508115625,202.21601400000003,59.0,74.0
1014,201.9508115625,202.70250000000001,63.0,74.0
1015,201.9508115625,202.72277025000002,47.0,66.0
1016,202.3562165625,202.72277025000002,59.0,80.0
1017,201.9508115625,202.73628375,51.0,79.0
1018,202.5893244375,202.86804037500002,52.0,62.0
1019,202.6501351875,203.5183775625,55.0,67.0
1020,202.7345945625,203.7177016875,59.0,71.0
1021,203.50655325000002,205.0690516875,52.0,75.0
1022,203.1231076875,205.11465975000002,47.0,64.0
1023,203.90351231250003,205.13324081250002,55.0,73.0
1024,203.9052015,205.15857862500002,59.0,75.0
1025,202.69912162500003,205.16871375000002,40.0,80.0
1026,203.91026906250002,205.2835785,64.0,78.0
1027,205.9322265,206.47952325000003,60.0,73.0
1028,205.95418593750003,206.82918506250002,64.0,76.0
1029,207.19067118750002,208.57918331250002,67.0,71.0
1030,207.18560362500003,208.6028319375,64.0,73.0
1031,206.78019862500003,208.651818375,60.0,78.0
1032,206.3359423125,208.66702106250003,55.0,69.0
1033,205.99472643750002,208.76161556250003,48.0,82.0
1034,209.12310168750003,209.591006625,57.0,59.0
1035,209.21093943750003,209.89168200000003,61.0,62.0
1036,209.28019612500003,210.10451962500002,64.0,71.0
1037,210.023438625,210.50823543750002,57.0,80.0
1038,209.23289887500002,210.6078975,45.0,80.0
1039,209.61465525000003,210.6602623125,52.0,73.0
1040,210.8055324375,211.01837006250003,59.0,70.0
1041,210.84607293750003,211.6670180625,63.0,73.0
1042,210.9001269375,211.71769368750003,66.0,73.0
1043,211.27681575000003,212.080869,54.0,79.0
1044,212.03357175000002,212.25823368750002,63.0,84.0
1045,211.6264775625,212.280193125,59.0,83.0
1046,210.85789725,212.31059850000003,47.0,80.0
1047,212.43053081250002,212.73965212500002,60.0,75.0
1048,212.43728756250002,212.7447196875,64.0,81.0
1049,212.85789525,213.07411125000002,64.0,78.0
1050,212.864652,213.07917881250003,60.0,73.0
1051,212.44742268750002,213.4440433125,48.0,81.0
1052,213.2447191875,213.597759375,60.0,81.0
1053,213.24640837500002,213.75654300000002,64.0,84.0
1054,213.24134081250003,213.75992137500003,67.0,80.0
1055,213.68559712500002,213.864651,60.0,79.0
1056,214.05215081250003,214.486272,62.0,73.0
1057,214.05721837500002,214.56904218750003,66.0,78.0
1058,214.665325875,214.820731125,62.0,81.0
1059,214.46431256250003,214.96262287500002,57.0,74.0
1060,214.89167700000002,215.13323081250002,62.0,75.0
1061,214.0622859375,215.24978475000003,50.0,82.0
1062,214.88492025000002,215.27174418750002,66.0,94.0
1063,215.07410925000002,215.3291765625,57.0,79.0
1064,214.89674456250003,215.48627100000002,69.0,74.0
1065,215.27343337500002,215.5183655625,54.0,92.0
1066,215.47275750000003,215.621406,59.0,79.0
1067,215.4676899375,215.62647356250002,57.0,74.0
1068,215.7345815625,216.27681075,62.0,78.0
1069,215.7345815625,216.31397287500002,55.0,74.0
1070,216.1399865625,216.61126987500003,50.0,78.0
1071,216.54539156250001,216.7751210625,55.0,80.0
1072,216.54539156250001,216.79708050000002,59.0,82.0
1073,216.54539156250001,216.84099937500002,62.0,81.0
1074,215.7345815625,216.84268856250003,43.0,80.0
1075,216.74809406250003,217.01498568750003,50.0,79.0
1076,216.95079656250002,217.49640412500003,55.0,80.0
1077,217.15349906250003,217.65856612500002,59.0,81.0
1078,217.76160656250002,217.93559287500003,55.0,73.0
1079,217.5589040625,218.2920114375,50.0,68.0
1080,217.35620156250002,218.4203896875,43.0,79.0
1081,218.57241656250002,218.79876768750003,43.0,81.0
1082,218.16701156250002,218.81397037500003,59.0,87.0
1083,218.16701156250002,218.83761900000002,55.0,82.0
1084,218.16701156250002,218.84099737500003,62.0,79.0
1085,218.97782156250003,219.45924000000002,55.0,77.0
1086,218.97782156250003,219.4980913125,59.0,78.0
1087,219.38322656250003,219.86633418750003,47.0,73.0
1088,218.97782156250003,219.972753,40.0,80.0
1089,219.78863156250003,220.02005025000003,55.0,78.0
1090,219.78863156250003,220.04369887500002,59.0,79.0
1091,219.99133406250002,220.08255018750003,47.0,81.0
1092,219.78863156250003,220.09944206250003,64.0,82.0
1093,220.19403656250003,220.462617375,55.0,80.0
1094,220.39673906250002,220.88491425,59.0,79.0
1095,221.0048465625,221.2565355,55.0,79.0
1096,221.20754906250002,221.31903543750002,59.0,79.0
1097,220.80214406250002,221.48457581250003,47.0,78.0
1098,220.59944156250003,221.61464325000003,40.0,79.0
1099,221.4102515625,221.74133231250002,55.0,78.0
1100,221.4102515625,221.773426875,59.0,80.0
1101,221.4102515625,221.8511295,64.0,80.0
1102,221.8156565625,221.93896725000002,40.0,81.0
1103,222.2210615625,222.64166925,59.0,76.0
1104,222.2210615625,222.66193950000002,62.0,78.0
1105,222.6264665625,223.06903368750002,54.0,66.0
1106,223.03187156250002,223.2295065,59.0,79.0
1107,222.2210615625,223.25653350000002,47.0,83.0
1108,223.03187156250002,223.26835781250003,62.0,79.0
1109,223.03187156250002,223.27849293750003,66.0,78.0
1110,223.43727656250002,223.56565481250001,59.0,79.0
1111,223.23457406250003,223.6163304375,54.0,71.0
1112,223.63997906250003,223.753154625,59.0,67.0
1113,223.63997906250003,223.75991137500003,62.0,74.0
1114,223.63997906250003,223.76666812500002,71.0,77.0
1115,223.63997906250003,223.79200593750002,66.0,70.0
1116,223.84268156250002,224.1771406875,71.0,78.0
1117,223.84268156250002,224.22612712500003,59.0,73.0
1118,223.84268156250002,224.22950550000002,66.0,69.0
1119,223.84268156250002,224.24301900000003,62.0,78.0
1120,224.24808656250002,224.5217349375,54.0,68.0
1121,224.4507890625,224.7176806875,59.0,83.0
1122,224.65349156250002,224.88491025000002,54.0,80.0
1123,223.84268156250002,224.94065343750003,47.0,80.0
1124,224.8561940625,225.04369387500003,59.0,78.0
1125,224.8561940625,225.11801812500002,62.0,78.0
1126,225.05889656250002,225.2176801875,47.0,79.0
1127,224.8561940625,225.33761250000003,66.0,80.0
1128,225.2615990625,225.381531375,59.0,79.0
1129,225.46430156250003,225.70585537500003,60.0,78.0
1130,225.46430156250003,225.78524718750003,64.0,79.0
1131,225.86970656250003,225.976125375,60.0,79.0
1132,225.6670040625,226.11632793750002,55.0,80.0
1133,226.07240906250001,226.347746625,60.0,84.0
1134,226.07240906250001,226.35112500000002,64.0,95.0
1135,226.27511156250003,226.536935625,55.0,79.0
1136,225.46430156250003,226.55044912500003,48.0,82.0
1137,226.47781406250002,226.65180037500002,60.0,82.0
1138,226.47781406250002,226.9237595625,64.0,84.0
1139,226.88321906250002,226.97950275000002,60.0,79.0
1140,227.08592156250003,227.12477287500002,62.0,55.0
1141,227.08592156250003,227.482880625,66.0,74.0
1142,227.4913265625,227.59774537500002,62.0,80.0
1143,227.28862406250002,227.75483981250002,57.0,78.0
1144,227.69402906250002,227.96260987500003,62.0,81.0
1145,227.69402906250002,228.0521368125,66.0,81.0
1146,227.8967315625,228.18389343750002,57.0,74.0
1147,227.08592156250003,228.23119068750003,50.0,81.0
1148,228.09943406250002,228.27342037500003,62.0,79.0
1149,228.3021365625,228.46598775,67.0,69.0
1150,228.7075415625,229.19402756250003,62.0,78.0
1151,228.7075415625,229.3528111875,67.0,73.0
1152,229.31564906250003,229.41700031250002,62.0,74.0
1153,229.1129465625,229.5690271875,50.0,78.0
1154,229.51835156250002,229.7311891875,62.0,81.0
1155,229.51835156250002,229.81227018750002,67.0,80.0
1156,229.51835156250002,229.84098637500003,71.0,80.0
1157,229.72105406250003,230.07071587500002,50.0,74.0
1158,228.7075415625,230.1534860625,43.0,74.0
1159,229.92375656250002,230.3088913125,62.0,78.0
1160,230.12645906250003,230.72780981250003,67.0,78.0
1161,230.73456656250002,230.86294481250002,62.0,67.0
1162,230.53186406250003,231.26834981250002,50.0,68.0
1163,230.32916156250002,231.39166050000003,43.0,79.0
1164,231.13997156250002,231.60618731250003,62.0,78.0
1165,231.54537656250002,231.74638987500003,43.0,78.0
1166,231.13997156250002,231.83084925000003,67.0,78.0
1167,231.95078156250003,232.38828112500002,64.0,78.0
1168,231.95078156250003,232.401794625,67.0,75.0
1169,232.35618656250003,232.8426725625,47.0,71.0
1170,231.95078156250003,233.0048345625,40.0,78.0
1171,232.76159156250003,233.22611812500003,64.0,79.0
1172,232.76159156250003,233.22780731250003,67.0,83.0
1173,232.76159156250003,233.2294965,71.0,78.0
1174,233.16699656250003,233.4271314375,47.0,66.0
1175,233.36969906250002,233.46936112500003,64.0,74.0
1176,233.36969906250002,233.46936112500003,67.0,74.0
1177,233.36969906250002,233.48287462500002,71.0,78.0
1178,233.57240156250003,233.75821218750002,64.0,78.0
1179,233.57240156250003,233.82577968750002,67.0,74.0
1180,233.57240156250003,233.8663201875,71.0,78.0
1181,233.9778065625,234.057198375,64.0,78.0
1182,233.77510406250002,234.27003600000003,47.0,75.0
1183,234.18050906250002,234.45415743750002,64.0,81.0
1184,234.18050906250002,234.48456281250003,69.0,81.0
1185,234.3832115625,234.60449512500003,47.0,79.0
1186,233.57240156250003,234.6501031875,40.0,79.0
1187,234.58591406250002,234.76665712500002,64.0,82.0
1188,234.58591406250002,234.7717246875,67.0,80.0
1189,235.1940215625,235.62307518750004,59.0,76.0
1190,235.1940215625,235.64503462500002,62.0,78.0
1191,235.1940215625,235.79368312500003,66.0,70.0
1192,235.80212906250003,235.9507775625,59.0,79.0
1193,235.5994265625,236.10956118750002,54.0,70.0
1194,236.00483156250002,236.48287162500003,66.0,81.0
1195,235.1940215625,236.55043912500003,47.0,79.0
1196,236.20753406250003,236.56564181250002,54.0,71.0
1197,236.41023656250002,237.01327650000002,59.0,80.0
1198,236.61293906250003,237.1754385,62.0,78.0
1199,237.01834406250003,237.47442468750003,54.0,81.0
1200,237.22104656250002,237.63320831250002,59.0,79.0
1201,236.81564156250002,237.78354600000003,47.0,76.0
1202,237.4237490625,237.80212706250003,62.0,79.0
1203,237.62645156250002,237.82239731250002,54.0,80.0
1204,237.8291540625,238.24638337500002,59.0,79.0
1205,238.03185656250002,238.26496443750003,62.0,75.0
1206,238.2345590625,238.35786975000002,66.0,64.0
1207,238.43726156250003,238.83253143750002,57.0,78.0
1208,238.43726156250003,239.03692312500002,60.0,83.0
1209,239.04536906250001,239.54199018750003,57.0,71.0
1210,239.24807156250003,239.57239556250002,60.0,75.0
1211,239.45077406250002,239.60280093750004,64.0,72.0
1212,239.65347656250003,239.7244224375,60.0,70.0
1213,239.65347656250003,239.8190169375,64.0,80.0
1214,238.43726156250003,239.88658443750003,45.0,78.0
1215,238.84266656250003,239.91530062500001,52.0,67.0
1216,240.05888156250003,240.91698881250002,60.0,71.0
1217,240.05888156250003,240.93725906250003,57.0,64.0
1218,240.05888156250003,241.04705625000003,45.0,75.0
1219,241.47442068750001,242.05719037500003,53.0,67.0
1220,241.64840700000002,242.3865819375,65.0,78.0
1221,241.54874493750003,242.43219000000002,57.0,73.0
1222,241.58421787500004,242.52002775000003,60.0,70.0
1223,242.49131156250002,242.78691937500002,53.0,79.0
1224,242.89671656250002,243.06563531250004,57.0,79.0
1225,242.89671656250002,243.23793243750004,60.0,80.0
1226,243.70752656250002,243.867999375,53.0,61.0
1227,242.03860931250003,244.13658018750002,48.0,73.0
1228,244.11293156250002,244.351107,53.0,79.0
1229,244.11293156250002,244.47779606250003,57.0,80.0
1230,244.11293156250002,244.75989037500003,65.0,76.0
1231,244.11293156250002,244.7717146875,60.0,79.0
1232,244.51833656250002,244.8156335625,53.0,81.0
1233,241.63151512500002,244.84772812500003,41.0,80.0
1234,244.7210390625,244.86124162500002,57.0,74.0
1235,244.3156340625,244.87137675000002,48.0,81.0
1236,244.92374156250003,245.42036268750002,59.0,72.0
1237,244.92374156250003,245.513268,62.0,75.0
1238,245.32914656250003,245.87306493750003,50.0,71.0
1239,245.73455156250003,246.090970125,59.0,76.0
1240,245.73455156250003,246.13488900000002,62.0,78.0
1241,245.73455156250003,246.13488900000002,67.0,75.0
1242,244.92374156250003,246.374753625,43.0,79.0
1243,246.13995656250003,246.41529412500003,50.0,68.0
1244,246.34265906250002,246.46259137500002,59.0,71.0
1245,246.54536156250003,247.107861,59.0,77.0
1246,246.54536156250003,247.1500906875,62.0,76.0
1247,246.95076656250004,247.4169823125,50.0,66.0
1248,247.3561715625,247.60954968750002,59.0,78.0
1249,246.54536156250003,247.66529287500003,43.0,78.0
1250,247.55887406250002,247.72610362500004,50.0,67.0
1251,247.3561715625,247.76326575000002,62.0,81.0
1252,247.3561715625,247.82745487500003,67.0,75.0
1253,247.7615765625,247.97441418750003,43.0,71.0
1254,247.96427906250003,248.097724875,59.0,80.0
1255,248.1669815625,248.37813000000003,59.0,78.0
1256,248.1669815625,248.60785950000002,64.0,79.0
1257,248.57238656250001,248.78353500000003,59.0,76.0
1258,248.1669815625,249.01664287500003,52.0,83.0
1259,248.97779156250002,249.17035893750003,59.0,78.0
1260,248.97779156250002,249.25650750000003,64.0,79.0
1261,248.97779156250002,249.45752081250004,67.0,74.0
1262,249.38319656250002,249.66191250000003,59.0,76.0
1263,249.78860156250002,249.99637162500002,59.0,75.0
1264,249.78860156250002,250.26495243750003,67.0,72.0
1265,249.78860156250002,250.28860106250002,64.0,76.0
1266,250.19400656250002,250.38150637500001,59.0,78.0
1267,249.78860156250002,250.71258712500003,52.0,69.0
1268,250.59941156250002,250.7413033125,59.0,81.0
1269,250.59941156250002,251.00312737500002,67.0,78.0
1270,250.59941156250002,251.02001925000002,64.0,82.0
1271,251.00481656250003,251.12305968750002,59.0,78.0
1272,251.27677575,251.48792418750003,59.0,67.0
1273,251.33927568750002,251.53859981250002,62.0,69.0
1274,251.36968106250004,251.58082950000002,66.0,66.0
1275,251.89332918750003,254.60785350000003,54.0,69.0
1276,251.40177562500003,254.66359668750002,47.0,73.0
1277,253.03521993750002,254.712583125,59.0,61.0
1278,252.38150437500002,254.712583125,66.0,76.0
1279,251.449072875,254.73792093750004,71.0,78.0
