,start,end,pitch,velocity
0,2.4350625,2.790581625,61.0,80.0
1,2.0454525,3.024347625,54.0,74.0
2,2.8246725,3.459412125,63.0,86.0
3,2.8246725,3.4870095,59.0,80.0
4,1.6558425,4.4805150000000005,47.0,85.0
5,3.2142825,4.621748625,54.0,67.0
6,3.6038925,5.128241625,59.0,86.0
7,3.6038925,5.137981875,66.0,84.0
8,5.5519425,5.84739675,61.0,72.0
9,5.9415525,6.6006427500000004,61.0,81.0
10,5.9415525,6.800317875,66.0,86.0
11,5.1623325,6.94479825,54.0,68.0
12,6.7207725,7.339278375,61.0,85.0
13,4.7727225,7.753239,47.0,86.0
14,7.1103825,7.78245975,54.0,62.0
15,8.668822500000001,8.956159875,59.0,86.0
16,9.0584325,9.706159125000001,64.0,80.0
17,9.0584325,9.719146125,59.0,85.0
18,8.2792125,9.959405625,54.0,73.0
19,9.8376525,10.43830125,59.0,85.0
20,7.8896025000000005,10.780833375,47.0,85.0
21,10.2272625,10.870119,54.0,60.0
22,9.8376525,11.23050825,66.0,79.0
23,10.6168725,11.857131,59.0,78.0
24,11.785702500000001,12.051936,61.0,74.0
25,12.1753125,12.21752025,63.0,78.0
26,11.3960925,13.63635,54.0,69.0
27,11.0064825,13.9934925,47.0,85.0
28,12.1753125,14.163946875,59.0,84.0
29,12.1753125,14.186674125,66.0,84.0
30,14.1233625,14.186674125,66.0,81.0
31,14.1233625,14.31492075,47.0,85.0
32,14.1233625,14.922063,71.0,83.0
33,15.2921925,15.422062500000001,66.0,85.0
34,15.2921925,15.43829625,75.0,84.0
35,14.902582500000001,15.44478975,63.0,74.0
36,14.5129725,16.586022375,54.0,69.0
37,16.461022500000002,16.611996375,66.0,85.0
38,16.461022500000002,16.667191125,71.0,86.0
39,17.2402425,17.426930625,42.0,79.0
40,17.2402425,17.720761500000002,66.0,76.0
41,17.2402425,18.017839125000002,70.0,81.0
42,18.4090725,18.55517625,61.0,85.0
43,18.4090725,18.602254125,70.0,84.0
44,18.0194625,19.2532275,58.0,70.0
45,19.1882925,19.673681625,61.0,81.0
46,19.5779025,19.920434625000002,58.0,75.0
47,19.1882925,19.974006,66.0,78.0
48,17.629852500000002,19.97725275,49.0,52.0
49,19.9675125,20.090889,61.0,87.0
50,20.3571225,20.910693375,59.0,83.0
51,20.3571225,20.926927125,64.0,83.0
52,21.1363425,21.316537125,59.0,87.0
53,20.7467325,21.576277125,47.0,68.0
54,20.3571225,21.644458875,40.0,84.0
55,21.1363425,21.874978125000002,64.0,89.0
56,21.9155625,22.49673075,61.0,80.0
57,21.9155625,22.521081375,66.0,80.0
58,22.3051725,22.894457625,49.0,70.0
59,22.6947825,22.904197875,61.0,86.0
60,21.9155625,23.19802875,42.0,84.0
61,23.0843925,23.33439225,61.0,65.0
62,22.6947825,23.34737925,66.0,85.0
63,23.4740025,24.259716,66.0,79.0
64,24.2532225,24.446404125,61.0,85.0
65,23.863612500000002,24.7207545,54.0,68.0
66,24.6428325,25.141208625,59.0,86.0
67,24.6428325,25.189909875,66.0,85.0
68,25.032442500000002,25.569779625,54.0,68.0
69,25.4220525,26.180168625,59.0,80.0
70,25.4220525,26.202895875,63.0,84.0
71,23.4740025,26.423674875,47.0,85.0
72,26.2012725,26.5389345,54.0,79.0
73,26.5908825,27.17854425,66.0,79.0
74,26.5908825,27.290557125,59.0,84.0
75,27.3701025,27.53568675,59.0,42.0
76,27.3701025,27.5389335,63.0,79.0
77,26.9804925,28.056790125,54.0,71.0
78,27.7597125,28.30191975,59.0,85.0
79,27.7597125,28.540555875,71.0,83.0
80,28.5389325,29.056789125,54.0,63.0
81,26.5908825,29.147698125,47.0,87.0
82,28.9285425,29.2791915,59.0,85.0
83,28.9285425,29.3701005,66.0,80.0
84,29.3181525,29.491853625,47.0,85.0
85,29.7077625,29.939905125,42.0,84.0
86,29.7077625,30.532437,66.0,79.0
87,29.7077625,30.597372,61.0,78.0
88,30.4869825,31.19802075,58.0,88.0
89,30.8765925,31.498345125,61.0,86.0
90,30.8765925,31.683409875000002,70.0,86.0
91,31.6558125,32.15256525,58.0,63.0
92,30.097372500000002,32.259708,49.0,74.0
93,32.0454225,32.485357125,61.0,86.0
94,32.0454225,32.66555175,66.0,86.0
95,32.4350325,32.670421875,49.0,86.0
96,32.8246425,32.936655375,40.0,85.0
97,32.8246425,33.183408375,64.0,83.0
98,32.8246425,33.426914625,68.0,85.0
99,33.6038625,33.952888125,56.0,85.0
100,33.2142525,33.998342625,47.0,76.0
101,33.9934725,34.124965875,59.0,93.0
102,34.3830825,35.025939,66.0,83.0
103,34.3830825,35.02918575,70.0,84.0
104,34.7726925,35.285679,49.0,70.0
105,34.3830825,35.329510125,42.0,83.0
106,35.1623025,35.3960685,66.0,90.0
107,35.1623025,35.400938625,61.0,90.0
108,35.1623025,35.415549,70.0,88.0
109,35.9415225,36.439898625,66.0,80.0
110,35.9415225,36.501586875,59.0,79.0
111,36.3311325,36.780807375,54.0,63.0
112,36.7207425,37.193144625,66.0,86.0
113,36.7207425,37.336001625,59.0,86.0
114,37.1103525,37.592494875,54.0,75.0
115,37.4999625,37.884702375,63.0,87.0
116,37.4999625,37.985351625,59.0,85.0
117,37.8895725,38.36684475,54.0,69.0
118,38.2791825,39.025935000000004,63.0,100.0
119,38.2791825,39.040545375,59.0,88.0
120,38.2791825,39.04866225,66.0,90.0
121,35.9415225,39.056779125,47.0,87.0
122,38.6687925,39.07463625,54.0,85.0
123,39.0584025,39.157428375,40.0,84.0
124,39.0584025,39.361973625,64.0,83.0
125,39.0584025,39.978856125,71.0,83.0
126,39.8376225,40.298661,56.0,79.0
127,40.2272325,41.0843745,68.0,85.0
128,40.2272325,41.13307575,64.0,86.0
129,40.2272325,41.162296500000004,59.0,86.0
130,39.448012500000004,41.50969875,47.0,63.0
131,41.0064525,41.53567275,56.0,63.0
132,41.3960625,41.576257125,59.0,89.0
133,41.3960625,41.589244125,64.0,90.0
134,41.3960625,41.68827,68.0,86.0
135,41.785672500000004,41.896062,47.0,84.0
136,42.1752825,42.28891875,39.0,85.0
137,42.1752825,42.590866500000004,63.0,85.0
138,42.1752825,42.818139,66.0,81.0
139,42.954502500000004,43.439891625,58.0,89.0
140,43.3441125,44.245085625,61.0,90.0
141,43.3441125,44.25644925,66.0,88.0
142,42.5648925,44.636319,51.0,79.0
143,44.123332500000004,44.657422875,58.0,73.0
144,44.5129425,44.715864375,61.0,91.0
145,44.5129425,44.745085125,66.0,95.0
146,44.9025525,44.99670825,51.0,85.0
147,45.2921625,45.413915625,37.0,86.0
148,45.2921625,45.978850125,59.0,88.0
149,45.2921625,45.98372025,64.0,86.0
150,46.0713825,46.478849625,56.0,87.0
151,45.6817725,46.51618725,49.0,82.0
152,46.4609925,46.6817715,59.0,87.0
153,46.4609925,46.7986545,64.0,88.0
154,46.8506025,47.441511,61.0,86.0
155,46.8506025,47.459368125000005,66.0,84.0
156,47.2402125,47.774302875000004,49.0,77.0
157,47.6298225,47.797030125,61.0,87.0
158,47.6298225,47.803523625000004,66.0,87.0
159,46.8506025,47.881445625,42.0,84.0
160,48.0194325,48.209367375,61.0,81.0
161,48.0194325,48.301899750000004,64.0,85.0
162,48.4090425,48.982093875000004,63.0,84.0
163,48.4090425,48.99670425,59.0,86.0
164,48.7986525,49.267807875,54.0,69.0
165,49.1882625,49.504820625,63.0,98.0
166,49.1882625,49.558392,59.0,90.0
167,49.1882625,49.569755625,66.0,90.0
168,48.4090425,49.84085925,47.0,86.0
169,49.5778725,49.863586500000004,54.0,80.0
170,49.9674825,50.339235375,66.0,85.0
171,49.9674825,50.34085875,63.0,91.0
172,49.9674825,50.348975625,59.0,86.0
173,49.9674825,50.478845625,71.0,85.0
174,50.3570925,50.712611625,54.0,75.0
175,50.7467025,50.956117875000004,73.0,93.0
176,50.7467025,51.012936,54.0,79.0
177,49.9674825,51.116832,47.0,88.0
178,51.1363125,51.456117375,75.0,101.0
179,51.5259225,51.610338,40.0,85.0
180,51.5259225,51.920402625,68.0,84.0
181,51.5259225,52.137934875,71.0,85.0
182,52.6947525,52.97721975,64.0,98.0
183,53.4739725,53.620076250000004,64.0,79.0
184,52.3051425,53.680141125,59.0,91.0
185,51.9155325,53.7337125,52.0,75.0
186,53.8635825,54.1233225,64.0,89.0
187,53.8635825,54.243452250000004,59.0,86.0
188,53.8635825,54.25643925,52.0,85.0
189,53.8635825,54.280789875,68.0,93.0
190,54.253192500000004,54.3051405,64.0,68.0
191,54.6428025,55.19475,63.0,83.0
192,54.6428025,55.245074625,66.0,80.0
193,55.422022500000004,55.5778665,63.0,93.0
194,55.422022500000004,55.93825575,66.0,91.0
195,55.8116325,56.056762125,63.0,78.0
196,55.0324125,56.34085275,58.0,71.0
197,56.2012425,56.608709625,63.0,83.0
198,56.2012425,56.6168265,66.0,78.0
199,56.590852500000004,57.01617675,58.0,67.0
200,54.6428025,57.090852,51.0,90.0
201,56.9804625,57.157410375,63.0,93.0
202,56.9804625,57.21747525,70.0,91.0
203,57.3700725,57.469098375,66.0,85.0
204,57.3700725,57.485332125,63.0,86.0
205,57.759682500000004,58.0064355,37.0,86.0
206,57.759682500000004,58.676889375,61.0,77.0
207,57.759682500000004,58.696369875,64.0,76.0
208,58.928512500000004,59.155785,61.0,85.0
209,59.3181225,59.9285115,64.0,75.0
210,59.3181225,59.930134875,61.0,78.0
211,58.5389025,60.22396575,56.0,90.0
212,58.1492925,60.274290375,49.0,83.0
213,60.0973425,60.727212,61.0,90.0
214,60.0973425,60.80188725,64.0,100.0
215,60.8765625,61.103835000000004,42.0,85.0
216,60.8765625,61.780782375,61.0,85.0
217,60.8765625,61.878184875,66.0,82.0
218,60.8765625,61.9025355,70.0,85.0
219,62.0453925,62.301885750000004,61.0,90.0
220,62.4350025,62.602210125,61.0,91.0
221,62.4350025,62.602210125,66.0,86.0
222,62.4350025,62.693119125,73.0,95.0
223,61.2661725,63.017794125,49.0,85.0
224,61.6557825,63.04214475,58.0,91.0
225,62.8246125,63.2012355,75.0,98.0
226,63.2142225,63.597339,58.0,82.0
227,63.2142225,63.598962375,54.0,78.0
228,63.2142225,63.62655975,49.0,82.0
229,63.2142225,63.634676625000004,73.0,100.0
230,63.6038325,64.154156625,71.0,101.0
231,63.9934425,64.3181175,59.0,86.0
232,63.9934425,64.3440915,63.0,93.0
233,64.3830525,64.881428625,54.0,72.0
234,64.7726625,64.991818125,66.0,90.0
235,65.1622725,65.465843625,63.0,84.0
236,64.7726625,65.48370075,59.0,90.0
237,65.5518825,65.637921375,59.0,71.0
238,65.5518825,65.64116812500001,63.0,82.0
239,65.1622725,65.777531625,54.0,78.0
240,65.5518825,66.189868875,71.0,90.0
241,65.9414925,66.2401935,59.0,75.0
242,66.3311025,66.608699625,54.0,81.0
243,63.9934425,66.63305025,47.0,89.0
244,66.3311025,66.73532287500001,63.0,98.0
245,66.3311025,66.82947862500001,66.0,87.0
246,66.7207125,66.835972125,59.0,86.0
247,67.1103225,67.319737875,63.0,83.0
248,67.1103225,67.322984625,39.0,86.0
249,67.1103225,67.602205125,66.0,80.0
250,67.4999325,67.777529625,63.0,77.0
251,67.8895425,68.202853875,63.0,98.0
252,67.8895425,68.219087625,70.0,88.0
253,68.6687625,68.7986325,63.0,84.0
254,68.6687625,69.004801125,75.0,91.0
255,68.6687625,69.0843465,66.0,85.0
256,68.6687625,69.102203625,70.0,85.0
257,69.0583725,69.309995625,63.0,86.0
258,69.4479825,69.602203125,63.0,95.0
259,67.4999325,69.62817712500001,51.0,73.0
260,68.2791525,69.68661862500001,58.0,76.0
261,69.4479825,69.71421600000001,66.0,91.0
262,69.8375925,69.9025275,66.0,30.0
263,69.4479825,69.97720275,70.0,89.0
264,69.8375925,69.99018975,63.0,88.0
265,70.2272025,70.415514,63.0,87.0
266,70.2272025,70.735318875,68.0,85.0
267,70.6168125,70.8765525,63.0,84.0
268,71.0064225,71.384668875,71.0,82.0
269,71.0064225,71.623305,63.0,88.0
270,70.2272025,71.68499325,44.0,84.0
271,71.3960325,71.69798025,68.0,74.0
272,71.7856425,71.91226575,63.0,81.0
273,71.7856425,72.23694075,68.0,79.0
274,71.7856425,72.40739512500001,75.0,93.0
275,72.1752525,72.423628875,63.0,86.0
276,72.5648625,72.689862375,63.0,90.0
277,72.5648625,72.973953,71.0,90.0
278,72.5648625,72.99018675,68.0,93.0
279,71.7856425,73.038888,44.0,86.0
280,72.95447250000001,73.1233035,63.0,90.0
281,73.3440825,73.52265375,63.0,86.0
282,73.3440825,73.644406875,39.0,79.0
283,73.7336925,73.96421175,63.0,82.0
284,73.3440825,73.985315625,70.0,85.0
285,74.12330250000001,74.287263375,63.0,88.0
286,74.12330250000001,74.53563975,66.0,80.0
287,74.5129125,74.741808375,63.0,86.0
288,74.12330250000001,74.787262875,51.0,78.0
289,74.12330250000001,74.818107,58.0,79.0
290,74.9025225,75.514534875,63.0,91.0
291,74.9025225,75.51615825,70.0,85.0
292,75.6817425,75.85382025,63.0,98.0
293,75.29213250000001,75.871677375,58.0,83.0
294,74.9025225,75.96420975,51.0,90.0
295,75.6817425,76.051872,66.0,88.0
296,76.0713525,76.194729,63.0,86.0
297,76.46096250000001,76.86355950000001,64.0,84.0
298,76.46096250000001,77.10057225,68.0,85.0
299,77.2401825,77.58758475,68.0,86.0
300,76.8505725,77.7986235,47.0,78.0
301,76.46096250000001,77.904142875,40.0,85.0
302,77.62979250000001,77.90738962500001,64.0,86.0
303,78.0194025,78.29537625,64.0,85.0
304,78.0194025,78.69310312500001,71.0,87.0
305,78.4090125,78.93823275,47.0,73.0
306,78.79862250000001,78.94472625,64.0,86.0
307,78.0194025,79.001544375,40.0,83.0
308,78.79862250000001,79.196349375,68.0,89.0
309,79.1882325,79.272648,64.0,89.0
310,79.5778425,80.121673125,59.0,84.0
311,79.5778425,80.13303675,63.0,85.0
312,80.3570625,80.54212725000001,66.0,84.0
313,80.3570625,80.576218125,59.0,86.0
314,79.96745250000001,80.9284905,54.0,82.0
315,79.5778425,80.960958,47.0,86.0
316,80.7466725,80.986932,63.0,84.0
317,80.7466725,81.011282625,59.0,69.0
318,81.13628250000001,81.36030825,59.0,67.0
319,81.13628250000001,81.49180162500001,63.0,85.0
320,81.13628250000001,81.727191,71.0,88.0
321,81.5258925,82.05835950000001,54.0,70.0
322,81.13628250000001,82.103814,47.0,86.0
323,81.9155025,82.131411375,63.0,95.0
324,81.9155025,82.1362815,59.0,85.0
325,81.9155025,82.183359375,66.0,86.0
326,82.3051125,82.43011237500001,47.0,85.0
327,82.6947225,82.83433275,37.0,86.0
328,82.6947225,83.319721875,59.0,85.0
329,82.6947225,83.33433225,64.0,81.0
330,83.4739425,83.852188875,64.0,86.0
331,83.4739425,83.89926675,68.0,87.0
332,83.8635525,84.413876625,56.0,75.0
333,84.2531625,84.6038115,61.0,85.0
334,84.2531625,84.67524,68.0,88.0
335,84.2531625,84.676863375,64.0,89.0
336,84.6427725,85.18984987500001,56.0,73.0
337,83.0843325,85.19472,49.0,77.0
338,85.0323825,85.303486125,59.0,90.0
339,85.0323825,85.384654875,64.0,90.0
340,85.0323825,85.521018375,68.0,86.0
341,85.4219925,85.558356,49.0,86.0
342,85.8116025,86.0973165,61.0,85.0
343,85.8116025,86.361926625,66.0,84.0
344,86.5908225,86.9544585,70.0,87.0
345,86.2012125,87.13952325,49.0,76.0
346,86.5908225,87.1882245,61.0,88.0
347,85.8116025,87.21095175,42.0,86.0
348,86.9804325,87.23043225,66.0,88.0
349,87.3700425,87.58108125,61.0,86.0
350,87.3700425,87.842444625,66.0,87.0
351,87.3700425,87.84731475,73.0,95.0
352,87.7596525,87.917119875,61.0,90.0
353,88.1492625,88.335950625,61.0,89.0
354,87.3700425,88.796989125,42.0,85.0
355,88.1492625,88.82783325,49.0,80.0
356,88.1492625,88.8635475,70.0,86.0
357,88.5388725,88.878157875,61.0,80.0
358,88.1492625,88.88627475,66.0,85.0
359,89.7077025,90.063221625,61.0,80.0
360,89.3180925,90.296987625,54.0,74.0
361,90.0973125,90.732052125,63.0,86.0
362,90.0973125,90.75964950000001,59.0,80.0
363,88.9284825,91.753155,47.0,85.0
364,90.4869225,91.894388625,54.0,67.0
365,90.8765325,92.400881625,59.0,86.0
366,90.8765325,92.410621875,66.0,84.0
367,92.8245825,93.12003675,61.0,72.0
368,93.2141925,93.87328275,61.0,81.0
369,93.2141925,94.072957875,66.0,86.0
370,92.4349725,94.21743825,54.0,68.0
371,93.9934125,94.611918375,61.0,85.0
372,92.0453625,95.025879,47.0,86.0
373,94.3830225,95.05509975,54.0,62.0
374,95.9414625,96.228799875,59.0,86.0
375,96.3310725,96.97879912500001,64.0,80.0
376,96.3310725,96.991786125,59.0,85.0
377,95.5518525,97.232045625,54.0,73.0
378,97.1102925,97.71094125,59.0,85.0
379,95.1622425,98.053473375,47.0,85.0
380,97.4999025,98.142759,54.0,60.0
381,97.1102925,98.50314825,66.0,79.0
382,97.8895125,99.129771,59.0,78.0
383,99.05834250000001,99.32457600000001,61.0,74.0
384,99.4479525,99.49016025,63.0,78.0
385,98.6687325,100.90899,54.0,69.0
386,98.2791225,101.2661325,47.0,85.0
387,99.4479525,101.436586875,59.0,84.0
388,99.4479525,101.459314125,66.0,84.0
389,101.39600250000001,101.495028375,40.0,84.0
390,101.39600250000001,101.699573625,64.0,83.0
391,101.39600250000001,102.316456125,71.0,83.0
392,102.1752225,102.636261,56.0,79.0
393,102.56483250000001,103.4219745,68.0,85.0
394,102.56483250000001,103.47067575,64.0,86.0
395,102.56483250000001,103.4998965,59.0,86.0
396,101.7856125,103.84729875000001,47.0,63.0
397,103.3440525,103.87327275,56.0,63.0
398,103.73366250000001,103.913857125,59.0,89.0
399,103.73366250000001,103.926844125,64.0,90.0
400,103.73366250000001,104.02587,68.0,86.0
401,104.1232725,104.233662,47.0,84.0
402,104.5128825,104.62651875,39.0,85.0
403,104.5128825,104.9284665,63.0,85.0
404,104.5128825,105.155739,66.0,81.0
405,105.2921025,105.777491625,58.0,89.0
406,105.6817125,106.582685625,61.0,90.0
407,105.6817125,106.59404925,66.0,88.0
408,104.90249250000001,106.97391900000001,51.0,79.0
409,106.4609325,106.995022875,58.0,73.0
410,106.8505425,107.053464375,61.0,91.0
411,106.8505425,107.082685125,66.0,95.0
412,107.24015250000001,107.33430825,51.0,85.0
413,107.6297625,107.751515625,37.0,86.0
414,107.6297625,108.316450125,59.0,88.0
415,107.6297625,108.32132025,64.0,86.0
416,108.40898250000001,108.816449625,56.0,87.0
417,108.0193725,108.85378725,49.0,82.0
418,108.7985925,109.0193715,59.0,87.0
419,108.7985925,109.1362545,64.0,88.0
420,109.1882025,109.779111,61.0,86.0
421,109.1882025,109.796968125,66.0,84.0
422,109.57781250000001,110.111902875,49.0,77.0
423,109.9674225,110.134630125,61.0,87.0
424,109.9674225,110.141123625,66.0,87.0
425,109.1882025,110.219045625,42.0,84.0
426,110.3570325,110.54696737500001,61.0,81.0
427,110.3570325,110.63949975,64.0,85.0
428,110.74664250000001,111.319693875,63.0,84.0
429,110.74664250000001,111.33430425,59.0,86.0
430,111.1362525,111.605407875,54.0,69.0
431,111.5258625,111.842420625,63.0,98.0
432,111.5258625,111.895992,59.0,90.0
433,111.5258625,111.90735562500001,66.0,90.0
434,110.74664250000001,112.17845925,47.0,86.0
435,111.9154725,112.2011865,54.0,80.0
436,112.3050825,112.676835375,66.0,85.0
437,112.3050825,112.67845875,63.0,91.0
438,112.3050825,112.686575625,59.0,86.0
439,112.3050825,112.816445625,71.0,85.0
440,112.6946925,113.050211625,54.0,75.0
441,113.0843025,113.293717875,73.0,93.0
442,113.0843025,113.350536,54.0,79.0
443,112.3050825,113.454432,47.0,88.0
444,113.4739125,113.793717375,75.0,101.0
445,113.8635225,113.94793800000001,40.0,85.0
446,113.8635225,114.258002625,68.0,84.0
447,113.8635225,114.47553487500001,71.0,85.0
448,115.0323525,115.31481975,64.0,98.0
449,115.8115725,115.95767625,64.0,79.0
450,114.6427425,116.017741125,59.0,91.0
451,114.2531325,116.0713125,52.0,75.0
452,116.2011825,116.46092250000001,64.0,89.0
453,116.2011825,116.58105225,59.0,86.0
454,116.2011825,116.59403925000001,52.0,85.0
455,116.2011825,116.618389875,68.0,93.0
456,116.5907925,116.6427405,64.0,68.0
457,116.9804025,117.53235000000001,63.0,83.0
458,116.9804025,117.582674625,66.0,80.0
459,117.7596225,117.91546650000001,63.0,93.0
460,117.7596225,118.27585575,66.0,91.0
461,118.1492325,118.394362125,63.0,78.0
462,117.3700125,118.67845275,58.0,71.0
463,118.5388425,118.946309625,63.0,83.0
464,118.5388425,118.9544265,66.0,78.0
465,118.9284525,119.35377675000001,58.0,67.0
466,116.9804025,119.42845200000001,51.0,90.0
467,119.3180625,119.495010375,63.0,93.0
468,119.3180625,119.55507525,70.0,91.0
469,119.7076725,119.806698375,66.0,85.0
470,119.7076725,119.82293212500001,63.0,86.0
471,120.0972825,120.3440355,37.0,86.0
472,120.0972825,121.014489375,61.0,77.0
473,120.0972825,121.033969875,64.0,76.0
474,121.2661125,121.493385,61.0,85.0
475,121.6557225,122.26611150000001,64.0,75.0
476,121.6557225,122.267734875,61.0,78.0
477,120.8765025,122.56156575,56.0,90.0
478,120.4868925,122.611890375,49.0,83.0
479,122.4349425,123.064812,61.0,90.0
480,122.4349425,123.13948725,64.0,100.0
481,123.2141625,123.441435,42.0,85.0
482,123.2141625,124.118382375,61.0,85.0
483,123.2141625,124.215784875,66.0,82.0
484,123.2141625,124.24013550000001,70.0,85.0
485,124.3829925,124.63948575,61.0,90.0
486,124.7726025,124.93981012500001,61.0,91.0
487,124.7726025,124.93981012500001,66.0,86.0
488,124.7726025,125.030719125,73.0,95.0
489,123.6037725,125.355394125,49.0,85.0
490,123.9933825,125.37974475,58.0,91.0
491,125.16221250000001,125.5388355,75.0,98.0
492,125.5518225,125.934939,58.0,82.0
493,125.5518225,125.93656237500001,54.0,78.0
494,125.5518225,125.96415975000001,49.0,82.0
495,125.5518225,125.972276625,73.0,100.0
496,125.9414325,126.49175662500001,71.0,101.0
497,126.33104250000001,126.65571750000001,59.0,86.0
498,126.33104250000001,126.6816915,63.0,93.0
499,126.7206525,127.219028625,54.0,72.0
500,127.1102625,127.329418125,66.0,90.0
501,127.49987250000001,127.803443625,63.0,84.0
502,127.1102625,127.82130075,59.0,90.0
503,127.8894825,127.975521375,59.0,71.0
504,127.8894825,127.978768125,63.0,82.0
505,127.49987250000001,128.115131625,54.0,78.0
506,127.8894825,128.527468875,71.0,90.0
507,128.2790925,128.5777935,59.0,75.0
508,128.6687025,128.946299625,54.0,81.0
509,126.33104250000001,128.97065025,47.0,89.0
510,128.6687025,129.072922875,63.0,98.0
511,128.6687025,129.16707862500002,66.0,87.0
512,129.0583125,129.173572125,59.0,86.0
513,129.4479225,129.657337875,63.0,83.0
514,129.4479225,129.660584625,39.0,86.0
515,129.4479225,129.939805125,66.0,80.0
516,129.8375325,130.115129625,63.0,77.0
517,130.2271425,130.540453875,63.0,98.0
518,130.2271425,130.556687625,70.0,88.0
519,131.0063625,131.1362325,63.0,84.0
520,131.0063625,131.342401125,75.0,91.0
521,131.0063625,131.4219465,66.0,85.0
522,131.0063625,131.439803625,70.0,85.0
523,131.3959725,131.647595625,63.0,86.0
524,131.7855825,131.939803125,63.0,95.0
525,129.8375325,131.96577712500002,51.0,73.0
526,130.6167525,132.024218625,58.0,76.0
527,131.7855825,132.051816,66.0,91.0
528,132.1751925,132.2401275,66.0,30.0
529,131.7855825,132.31480275,70.0,89.0
530,132.1751925,132.32778975,63.0,88.0
531,132.5648025,132.753114,63.0,87.0
532,132.5648025,133.072918875,68.0,85.0
533,132.9544125,133.2141525,63.0,84.0
534,133.3440225,133.722268875,71.0,82.0
535,133.3440225,133.960905,63.0,88.0
536,132.5648025,134.02259325,44.0,84.0
537,133.7336325,134.03558025,68.0,74.0
538,134.1232425,134.24986575,63.0,81.0
539,134.1232425,134.57454075,68.0,79.0
540,134.1232425,134.744995125,75.0,93.0
541,134.5128525,134.761228875,63.0,86.0
542,134.9024625,135.027462375,63.0,90.0
543,134.9024625,135.311553,71.0,90.0
544,134.9024625,135.32778675,68.0,93.0
545,134.1232425,135.376488,44.0,86.0
546,135.2920725,135.4609035,63.0,90.0
547,135.6816825,135.86025375,63.0,86.0
548,135.6816825,135.982006875,39.0,79.0
549,136.0712925,136.30181175,63.0,82.0
550,135.6816825,136.322915625,70.0,85.0
551,136.4609025,136.624863375,63.0,88.0
552,136.4609025,136.87323975,66.0,80.0
553,136.8505125,137.079408375,63.0,86.0
554,136.4609025,137.124862875,51.0,78.0
555,136.4609025,137.155707,58.0,79.0
556,137.2401225,137.852134875,63.0,91.0
557,137.2401225,137.85375825,70.0,85.0
558,138.0193425,138.19142025,63.0,98.0
559,137.62973250000002,138.209277375,58.0,83.0
560,137.2401225,138.30180975,51.0,90.0
561,138.0193425,138.389472,66.0,88.0
562,138.4089525,138.532329,63.0,86.0
563,138.7985625,139.20115950000002,64.0,84.0
564,138.7985625,139.43817225,68.0,85.0
565,139.5777825,139.92518475,68.0,86.0
566,139.1881725,140.1362235,47.0,78.0
567,138.7985625,140.241742875,40.0,85.0
568,139.96739250000002,140.24498962500002,64.0,86.0
569,140.3570025,140.63297625,64.0,85.0
570,140.3570025,141.030703125,71.0,87.0
571,140.7466125,141.27583275,47.0,73.0
572,141.1362225,141.28232625,64.0,86.0
573,140.3570025,141.339144375,40.0,83.0
574,141.1362225,141.533949375,68.0,89.0
575,141.5258325,141.610248,64.0,89.0
576,141.9154425,142.459273125,59.0,84.0
577,141.9154425,142.47063675,63.0,85.0
578,142.6946625,142.87972725,66.0,84.0
579,142.6946625,142.913818125,59.0,86.0
580,142.30505250000002,143.2660905,54.0,82.0
581,141.9154425,143.298558,47.0,86.0
582,143.0842725,143.324532,63.0,84.0
583,143.0842725,143.34888262500002,59.0,69.0
584,143.4738825,143.69790825,59.0,67.0
585,143.4738825,143.829401625,63.0,85.0
586,143.4738825,144.064791,71.0,88.0
587,143.8634925,144.3959595,54.0,70.0
588,143.4738825,144.441414,47.0,86.0
589,144.2531025,144.469011375,63.0,95.0
590,144.2531025,144.4738815,59.0,85.0
591,144.2531025,144.520959375,66.0,86.0
592,144.64271250000002,144.767712375,47.0,85.0
593,145.0323225,145.17193275,37.0,86.0
594,145.0323225,145.657321875,59.0,85.0
595,145.0323225,145.67193225,64.0,81.0
596,145.8115425,146.189788875,64.0,86.0
597,145.8115425,146.23686675,68.0,87.0
598,146.2011525,146.751476625,56.0,75.0
599,146.5907625,146.94141150000002,61.0,85.0
600,146.5907625,147.01284,68.0,88.0
601,146.5907625,147.014463375,64.0,89.0
602,146.98037250000002,147.527449875,56.0,73.0
603,145.4219325,147.53232,49.0,77.0
604,147.3699825,147.64108612500002,59.0,90.0
605,147.3699825,147.722254875,64.0,90.0
606,147.3699825,147.858618375,68.0,86.0
607,147.7595925,147.895956,49.0,86.0
608,148.1492025,148.4349165,61.0,85.0
609,148.1492025,148.699526625,66.0,84.0
610,148.9284225,149.2920585,70.0,87.0
611,148.5388125,149.47712325,49.0,76.0
612,148.9284225,149.5258245,61.0,88.0
613,148.1492025,149.54855175,42.0,86.0
614,149.31803250000002,149.56803225000002,66.0,88.0
615,149.7076425,149.91868125,61.0,86.0
616,149.7076425,150.180044625,66.0,87.0
617,149.7076425,150.18491475,73.0,95.0
618,150.0972525,150.254719875,61.0,90.0
619,150.4868625,150.673550625,61.0,89.0
620,149.7076425,151.134589125,42.0,85.0
621,150.4868625,151.16543325,49.0,80.0
622,150.4868625,151.2011475,70.0,86.0
623,150.8764725,151.215757875,61.0,80.0
624,150.4868625,151.22387475,66.0,85.0
625,151.2660825,151.38621225,59.0,80.0
626,151.2660825,151.70601712500002,68.0,84.0
627,151.2660825,151.7076405,64.0,85.0
628,151.2660825,151.913809125,40.0,85.0
629,151.65569250000001,152.0193285,59.0,70.0
630,152.0453025,152.46738,68.0,86.0
631,152.0453025,152.480367,64.0,85.0
632,152.0453025,152.51121112500002,40.0,83.0
633,152.4349125,152.858613375,59.0,85.0
634,152.8245225,153.31478175,68.0,85.0
635,152.8245225,153.322898625,64.0,85.0
636,152.8245225,153.384586875,40.0,84.0
637,153.2141325,153.69140475,59.0,69.0
638,153.6037425,154.0582875,64.0,85.0
639,153.6037425,154.064781,68.0,88.0
640,153.99335250000001,154.16543025000001,59.0,84.0
641,153.6037425,154.259586,40.0,84.0
642,154.3829625,154.881338625,66.0,84.0
643,154.3829625,154.882962,70.0,89.0
644,154.3829625,154.965754125,40.0,80.0
645,154.7725725,155.2271175,61.0,78.0
646,155.1621825,155.634584625,40.0,81.0
647,155.1621825,155.64594825,70.0,86.0
648,155.1621825,155.657311875,66.0,84.0
649,155.5517925,155.99822062500002,61.0,84.0
650,155.9414025,156.433285125,70.0,85.0
651,155.9414025,156.449518875,40.0,80.0
652,155.9414025,156.462505875,66.0,79.0
653,156.3310125,156.770947125,61.0,79.0
654,156.7206225,157.0193235,40.0,83.0
655,156.7206225,157.25633625,70.0,89.0
656,156.7206225,157.298544,66.0,84.0
657,157.1102325,157.3439985,61.0,80.0
658,157.4998425,157.986855,70.0,90.0
659,157.4998425,158.001465375,66.0,84.0
660,157.4998425,158.059906875,39.0,87.0
661,157.8894525,158.15243925000001,63.0,82.0
662,158.2790625,158.47062075,63.0,87.0
663,158.2790625,158.766075,66.0,82.0
664,158.2790625,158.766075,70.0,83.0
665,158.2790625,158.822893125,39.0,85.0
666,158.6686725,159.012828,63.0,82.0
667,159.0582825,159.514450875,70.0,84.0
668,159.0582825,159.519321,66.0,84.0
669,159.0582825,159.595619625,39.0,79.0
670,159.4478925,159.751463625,63.0,80.0
671,159.8375025,160.03555425,39.0,84.0
672,159.8375025,160.270943625,66.0,85.0
673,159.8375025,160.2790605,70.0,87.0
674,160.2271125,160.39919025,63.0,86.0
675,160.6167225,160.816397625,63.0,86.0
676,160.6167225,161.064774,68.0,85.0
677,161.0063325,161.2660725,63.0,85.0
678,160.6167225,161.285553,44.0,84.0
679,161.3959425,161.605357875,44.0,77.0
680,161.3959425,161.891071875,71.0,90.0
681,161.3959425,161.92516275,68.0,87.0
682,161.7855525,162.21087675,63.0,89.0
683,162.1751625,162.63295425,44.0,83.0
684,162.1751625,162.66542175,71.0,85.0
685,162.1751625,162.699512625,68.0,85.0
686,162.5647725,162.920291625,63.0,85.0
687,162.9543825,163.066395375,44.0,85.0
688,162.9543825,163.363473,68.0,85.0
689,162.9543825,163.36671975000002,71.0,93.0
690,163.3439925,163.485226125,63.0,71.0
691,163.73360250000002,163.80178425,61.0,76.0
692,163.73360250000002,164.209251375,64.0,85.0
693,163.73360250000002,164.21087475000002,68.0,87.0
694,163.73360250000002,164.290420125,49.0,87.0
695,164.1232125,164.368342125,61.0,84.0
696,164.5128225,164.740095,68.0,84.0
697,164.5128225,164.77580925,64.0,84.0
698,164.5128225,165.033925875,56.0,73.0
699,164.5128225,165.072886875,49.0,83.0
700,164.9024325,165.345613875,61.0,86.0
701,165.2920425,165.686522625,73.0,89.0
702,165.2920425,165.71736675,64.0,84.0
703,165.2920425,165.751457625,68.0,86.0
704,165.2920425,165.783925125,49.0,85.0
705,165.6816525,165.907301625,61.0,79.0
706,166.07126250000002,166.118340375,61.0,78.0
707,166.07126250000002,166.238470125,49.0,85.0
708,166.07126250000002,166.504703625,64.0,95.0
709,166.07126250000002,166.52256075,68.0,89.0
710,166.4608725,166.670287875,61.0,86.0
711,166.8504825,166.923534375,59.0,81.0
712,166.8504825,167.280676875,68.0,81.0
713,166.8504825,167.332624875,64.0,84.0
714,166.8504825,167.439767625,40.0,84.0
715,167.2400925,167.454378,59.0,83.0
716,167.6297025,167.968987875,68.0,87.0
717,167.6297025,168.069637125,64.0,86.0
718,167.6297025,168.157299375,40.0,82.0
719,168.0193125,168.29203950000002,59.0,87.0
720,168.40892250000002,168.624831375,59.0,89.0
721,168.40892250000002,168.947883,40.0,84.0
722,168.40892250000002,168.988467375,64.0,91.0
723,168.40892250000002,169.007947875,67.0,88.0
724,168.7985325,169.056649125,59.0,85.0
725,169.1881425,169.368337125,59.0,88.0
726,169.1881425,169.37483062500002,40.0,84.0
727,169.1881425,169.595609625,67.0,90.0
728,169.1881425,169.61346675000001,64.0,93.0
729,169.5777525,169.7206095,59.0,85.0
730,169.9673625,170.154050625,61.0,90.0
731,169.9673625,170.44138800000002,70.0,88.0
732,169.9673625,170.47060875,66.0,88.0
733,169.9673625,170.532297,42.0,84.0
734,170.3569725,170.58749175,61.0,80.0
735,170.74658250000002,170.874829125,61.0,85.0
736,170.74658250000002,171.189763875,42.0,81.0
737,170.74658250000002,171.24658200000002,70.0,86.0
738,170.74658250000002,171.2530755,66.0,85.0
739,171.1361925,171.345607875,61.0,84.0
740,171.5258025,171.58099725,40.0,84.0
741,171.5258025,171.74982825,61.0,86.0
742,171.9154125,172.05502275,61.0,81.0
743,171.5258025,172.07775,42.0,84.0
744,171.5258025,172.116711,70.0,85.0
745,171.5258025,172.121581125,66.0,85.0
746,172.3050225,172.441386,61.0,98.0
747,172.3050225,172.566385875,42.0,85.0
748,172.3050225,172.6686585,66.0,90.0
749,172.3050225,172.7076195,70.0,93.0
750,172.6946325,172.74333375,61.0,77.0
751,173.08424250000002,173.32287862500002,67.0,85.0
752,173.08424250000002,173.324502,71.0,85.0
753,173.08424250000002,173.345605875,74.0,84.0
754,173.08424250000002,173.352099375,43.0,95.0
755,173.8634625,174.040410375,67.0,93.0
756,173.8634625,174.066384375,71.0,91.0
757,173.8634625,174.095605125,43.0,91.0
758,173.8634625,174.10047525000002,74.0,91.0
759,173.8634625,174.108592125,50.0,93.0
760,174.2530725,174.478721625,67.0,85.0
761,174.6426825,175.91216175,43.0,86.0
762,174.6426825,175.9283955,50.0,85.0
763,174.6426825,175.986837,71.0,95.0
764,174.6426825,176.037161625,74.0,88.0
765,174.6426825,176.053395375,67.0,86.0
766,174.6426825,176.05501875000002,79.0,84.0
767,176.2011225,176.5257975,60.0,86.0
768,176.2011225,176.5517715,64.0,93.0
769,176.5907325,177.089108625,55.0,72.0
770,176.9803425,177.199498125,67.0,90.0
771,177.3699525,177.673523625,64.0,84.0
772,176.9803425,177.69138075,60.0,90.0
773,177.75956250000002,177.845601375,60.0,71.0
774,177.75956250000002,177.84884812500002,64.0,82.0
775,177.3699525,177.985211625,55.0,78.0
776,177.75956250000002,178.397548875,72.0,90.0
777,178.1491725,178.44787350000001,60.0,75.0
778,178.5387825,178.816379625,55.0,81.0
779,176.2011225,178.84073025,48.0,89.0
780,178.5387825,178.943002875,64.0,98.0
781,178.5387825,179.03715862500002,67.0,87.0
782,178.9283925,179.043652125,60.0,86.0
783,179.3180025,179.527417875,64.0,83.0
784,179.3180025,179.53066462500001,40.0,86.0
785,179.3180025,179.809885125,67.0,80.0
786,179.7076125,179.985209625,64.0,77.0
787,180.09722250000002,180.410533875,64.0,98.0
788,180.09722250000002,180.426767625,71.0,88.0
789,180.8764425,181.0063125,64.0,84.0
790,180.8764425,181.212481125,76.0,91.0
791,180.8764425,181.2920265,67.0,85.0
792,180.8764425,181.309883625,71.0,85.0
793,181.2660525,181.517675625,64.0,86.0
794,181.6556625,181.809883125,64.0,95.0
795,179.7076125,181.835857125,52.0,73.0
796,180.4868325,181.894298625,59.0,76.0
797,181.6556625,181.921896,67.0,91.0
798,182.0452725,182.1102075,67.0,30.0
799,181.6556625,182.18488275,71.0,89.0
800,182.0452725,182.19786975,64.0,88.0
801,182.43488250000001,182.623194,64.0,87.0
802,182.43488250000001,182.942998875,69.0,85.0
803,182.8244925,183.0842325,64.0,84.0
804,183.2141025,183.592348875,72.0,82.0
805,183.2141025,183.830985,64.0,88.0
806,182.43488250000001,183.89267325,45.0,84.0
807,183.6037125,183.90566025,69.0,74.0
808,183.9933225,184.11994575,64.0,81.0
809,183.9933225,184.44462075,69.0,79.0
810,183.9933225,184.615075125,76.0,93.0
811,184.3829325,184.631308875,64.0,86.0
812,184.77254250000001,184.897542375,64.0,90.0
813,184.77254250000001,185.181633,72.0,90.0
814,184.77254250000001,185.19786675,69.0,93.0
815,183.9933225,185.246568,45.0,86.0
816,185.1621525,185.3309835,64.0,90.0
817,185.5517625,185.73033375,64.0,86.0
818,185.5517625,185.852086875,40.0,79.0
819,185.9413725,186.17189175000001,64.0,82.0
820,185.5517625,186.192995625,71.0,85.0
821,186.3309825,186.494943375,64.0,88.0
822,186.3309825,186.74331975,67.0,80.0
823,186.7205925,186.94948837500002,64.0,86.0
824,186.3309825,186.994942875,52.0,78.0
825,186.3309825,187.025787,59.0,79.0
826,187.1102025,187.722214875,64.0,91.0
827,187.1102025,187.72383825,71.0,85.0
828,187.8894225,188.06150025,64.0,98.0
829,187.4998125,188.079357375,59.0,83.0
830,187.1102025,188.17188975,52.0,90.0
831,187.8894225,188.259552,67.0,88.0
832,188.2790325,188.402409,64.0,86.0
833,188.6686425,189.0712395,65.0,84.0
834,188.6686425,189.30825225,69.0,85.0
835,189.4478625,189.79526475,69.0,86.0
836,189.0582525,190.0063035,48.0,78.0
837,188.6686425,190.111822875,41.0,85.0
838,189.83747250000002,190.11506962500002,65.0,86.0
839,190.2270825,190.50305625000001,65.0,85.0
840,190.2270825,190.900783125,72.0,87.0
841,190.6166925,191.14591275,48.0,73.0
842,191.0063025,191.15240625,65.0,86.0
843,190.2270825,191.209224375,41.0,83.0
844,191.0063025,191.404029375,69.0,89.0
845,191.3959125,191.48032800000001,65.0,89.0
846,191.7855225,192.329353125,60.0,84.0
847,191.7855225,192.34071675,64.0,85.0
848,192.5647425,192.74980725,67.0,84.0
849,192.5647425,192.783898125,60.0,86.0
850,192.17513250000002,193.1361705,55.0,82.0
851,191.7855225,193.16863800000002,48.0,86.0
852,192.9543525,193.194612,64.0,84.0
853,192.9543525,193.21896262500002,60.0,69.0
854,193.3439625,193.56798825,60.0,67.0
855,193.3439625,193.699481625,64.0,85.0
856,193.3439625,193.93487100000002,72.0,88.0
857,193.7335725,194.2660395,55.0,70.0
858,193.3439625,194.311494,48.0,86.0
859,194.1231825,194.339091375,64.0,95.0
860,194.1231825,194.3439615,60.0,85.0
861,194.1231825,194.391039375,67.0,86.0
862,194.51279250000002,194.637792375,48.0,85.0
863,194.9024025,195.04201275,38.0,86.0
864,194.9024025,195.527401875,60.0,85.0
865,194.9024025,195.54201225,65.0,81.0
866,195.6816225,196.059868875,65.0,86.0
867,195.6816225,196.10694675,69.0,87.0
868,196.0712325,196.621556625,57.0,75.0
869,196.4608425,196.81149150000002,62.0,85.0
870,196.4608425,196.88292,69.0,88.0
871,196.4608425,196.884543375,65.0,89.0
872,196.85045250000002,197.397529875,57.0,73.0
873,195.2920125,197.4024,50.0,77.0
874,197.2400625,197.51116612500002,60.0,90.0
875,197.2400625,197.592334875,65.0,90.0
876,197.2400625,197.728698375,69.0,86.0
877,197.6296725,197.766036,50.0,86.0
878,198.0192825,198.30499650000002,62.0,85.0
879,198.0192825,198.569606625,67.0,84.0
880,198.7985025,199.1621385,71.0,87.0
881,198.4088925,199.34720325,50.0,76.0
882,198.7985025,199.3959045,62.0,88.0
883,198.0192825,199.41863175,43.0,86.0
884,199.18811250000002,199.43811225000002,67.0,88.0
885,199.5777225,199.78876125,62.0,86.0
886,199.5777225,200.050124625,67.0,87.0
887,199.5777225,200.05499475,74.0,95.0
888,199.9673325,200.124799875,62.0,90.0
889,200.3569425,200.543630625,62.0,89.0
890,199.5777225,201.004669125,43.0,85.0
891,200.3569425,201.03551325,50.0,80.0
892,200.3569425,201.0712275,71.0,86.0
893,200.7465525,201.085837875,62.0,80.0
894,200.3569425,201.09395475,67.0,85.0
895,201.9153825,202.270901625,62.0,80.0
896,201.52577250000002,202.504667625,55.0,74.0
897,202.3049925,202.939732125,64.0,86.0
898,202.3049925,202.9673295,60.0,80.0
899,201.1361625,203.960835,48.0,85.0
900,202.6946025,204.10206862500002,55.0,67.0
901,203.0842125,204.608561625,60.0,86.0
902,203.0842125,204.61830187500001,67.0,84.0
903,205.0322625,205.32771675,62.0,72.0
904,205.4218725,206.08096275,62.0,81.0
905,205.4218725,206.280637875,67.0,86.0
906,204.6426525,206.42511825,55.0,68.0
907,206.20109250000002,206.819598375,62.0,85.0
908,204.2530425,207.233559,48.0,86.0
909,206.5907025,207.26277975,55.0,62.0
910,208.1491425,208.436479875,60.0,86.0
911,208.53875250000002,209.186479125,65.0,80.0
912,208.53875250000002,209.19946612500001,60.0,85.0
913,207.7595325,209.439725625,55.0,73.0
914,209.3179725,209.925643525,60.0,85.0
915,207.3699225,210.29163606041666,48.0,85.0
916,209.70969673333332,210.39055676875,55.0,60.0
917,209.3179725,210.79386346875,67.0,79.0
918,210.11394830625,211.51401241041665,60.0,78.0
919,211.43192289375,211.73789291041666,62.0,74.0
920,211.87968389375,211.92819133541667,64.0,78.0
921,210.98416189375,213.55878764375,55.0,69.0
922,210.54163566875,213.96923522708335,48.0,85.0
923,211.87968389375,214.16513066458333,60.0,84.0
924,211.87968389375,214.19125005625,67.0,84.0
