,start,end,pitch,velocity
0,10.9675,12.83,64.0,127.0
1,13.3675,13.967500000000001,62.0,97.0
2,13.967500000000001,14.123750000000001,64.0,100.0
3,14.1175,14.2675,62.0,69.0
4,14.2675,14.42,64.0,71.0
5,14.4175,14.5725,62.0,71.0
6,14.5675,14.74125,64.0,71.0
7,14.717500000000001,14.885,62.0,76.0
8,14.8675,15.03875,64.0,81.0
9,15.0175,15.79125,62.0,89.0
10,15.7675,17.0225,60.0,100.0
11,16.9675,17.8475,57.0,97.0
12,18.017500000000002,18.16625,62.0,83.0
13,18.1675,20.580000000000002,67.0,102.0
14,20.5675,21.2425,81.0,127.0
15,21.4675,21.68,79.0,122.0
16,21.767500000000002,22.3175,81.0,112.0
17,22.3675,22.8725,88.0,117.0
18,22.9675,23.47875,86.0,127.0
19,23.5675,23.845,88.0,112.0
20,23.8675,24.145,79.0,99.0
21,24.1675,24.92,76.0,117.0
22,25.3675,26.0375,74.0,117.0
23,26.267500000000002,26.53375,76.0,117.0
24,26.5675,27.1525,79.0,127.0
25,27.4675,27.68375,76.0,107.0
26,27.767500000000002,28.0275,84.0,127.0
27,28.0675,28.25625,83.0,127.0
28,28.3675,28.525000000000002,81.0,127.0
29,28.6675,28.81625,76.0,112.0
30,28.9675,29.42625,81.0,127.0
31,33.7675,35.16875,57.0,97.0
32,37.3675,38.54875,55.0,117.0
33,38.5675,39.71875,64.0,117.0
34,43.667500000000004,43.86875,64.0,97.0
35,43.9675,44.29875,62.0,90.0
36,44.2675,44.585,64.0,97.0
37,44.5675,46.11,62.0,85.0
38,48.167500000000004,48.472500000000004,69.0,102.0
39,48.4675,48.755,72.0,102.0
40,48.7675,49.073750000000004,71.0,89.0
41,49.0675,49.38,67.0,82.0
42,49.3675,50.04125,69.0,107.0
43,53.5675,53.7275,72.0,122.0
44,53.7175,53.878750000000004,74.0,76.0
45,53.8675,54.02,72.0,90.0
46,54.0175,54.165,71.0,95.0
47,54.167500000000004,55.515,67.0,97.0
48,58.0675,58.2075,76.0,117.0
49,58.2175,58.3775,79.0,90.0
50,58.3675,59.10375,76.0,122.0
51,66.1675,66.4075,72.0,127.0
52,66.1675,66.4675,60.0,127.0
53,66.4675,66.6925,71.0,117.0
54,66.4675,66.7325,59.0,112.0
55,66.7675,67.06,55.0,100.0
56,66.7675,67.065,67.0,97.0
57,67.0675,67.31875,59.0,112.0
58,67.0675,67.3225,71.0,117.0
59,67.3675,67.845,57.0,127.0
60,67.3675,68.44,69.0,127.0
61,72.4675,72.63250000000001,72.0,112.0
62,72.7675,73.00875,72.0,102.0
63,73.0675,73.37875,71.0,107.0
64,73.3675,74.08625,67.0,96.0
65,76.9675,78.16,76.0,127.0
66,106.9675,111.7675,69.0,120.0
67,111.7675,111.90125,76.0,107.0
68,111.9175,112.05375000000001,79.0,92.0
69,112.0675,114.1675,76.0,97.0
70,115.0675,115.4325,76.0,102.0
71,115.6675,115.8,74.0,93.0
72,115.8175,115.98125,76.0,70.0
73,115.9675,116.1275,74.0,72.0
74,116.1175,116.27375,76.0,73.0
75,116.2675,116.875,74.0,95.0
76,116.8675,118.69500000000001,72.0,117.0
77,119.8675,123.535,79.0,117.0
78,124.06750000000001,124.3275,81.0,112.0
79,124.5175,124.715,81.0,107.0
80,124.67750000000001,124.875,79.0,59.0
81,124.9675,125.1575,76.0,72.0
82,125.2675,125.4375,79.0,93.0
83,125.4175,125.56625,81.0,73.0
84,125.56750000000001,125.87625,76.0,78.0
85,125.8675,126.16375000000001,74.0,93.0
86,126.1675,128.5925,72.0,90.0
87,132.7675,134.16875,57.0,97.0
88,136.3675,137.54875,55.0,117.0
89,137.5675,138.71875,64.0,117.0
90,142.6675,142.86875,64.0,97.0
91,142.9675,143.29875,62.0,90.0
92,143.2675,143.585,64.0,97.0
93,143.5675,145.11,62.0,85.0
94,147.1675,147.4725,69.0,102.0
95,147.4675,147.755,72.0,102.0
96,147.7675,148.07375,71.0,89.0
97,148.0675,148.38,67.0,82.0
98,148.3675,149.04125,69.0,107.0
99,152.5675,152.7275,72.0,122.0
100,152.7175,152.87875,74.0,76.0
101,152.8675,153.02,72.0,90.0
102,153.0175,153.165,71.0,95.0
103,153.1675,154.51500000000001,67.0,97.0
104,157.0675,157.2075,76.0,117.0
105,157.2175,157.3775,79.0,90.0
106,157.3675,158.10375,76.0,122.0
107,165.1675,165.4075,72.0,127.0
108,165.1675,165.4675,60.0,127.0
109,165.4675,165.6925,71.0,117.0
110,165.4675,165.73250000000002,59.0,112.0
111,165.7675,166.06,55.0,100.0
112,165.7675,166.065,67.0,97.0
113,166.0675,166.31875,59.0,112.0
114,166.0675,166.3225,71.0,117.0
115,166.3675,166.845,57.0,127.0
116,166.3675,167.44,69.0,127.0
117,171.4675,171.6325,72.0,112.0
118,171.7675,172.00875,72.0,102.0
119,172.0675,172.37875,71.0,107.0
120,172.3675,173.08625,67.0,96.0
121,175.9675,177.16,76.0,127.0
122,205.3675,206.34375,64.0,112.0
123,206.2675,206.50375,67.0,99.0
124,206.5675,207.17000000000002,69.0,112.0
125,207.16750000000002,207.70375,76.0,127.0
126,207.7675,208.84625,74.0,127.0
127,208.9675,209.38,76.0,127.0
128,210.16750000000002,210.95125000000002,62.0,122.0
129,211.0675,211.32,64.0,122.0
130,211.3675,211.94625,67.0,107.0
131,211.9675,212.37375,62.0,112.0
132,212.5675,212.84125,72.0,127.0
133,212.8675,213.135,71.0,100.0
134,213.16750000000002,213.4375,69.0,127.0
135,213.4675,213.81875,64.0,102.0
136,213.7675,214.49,69.0,127.0
