,start,end,pitch,velocity
0,30.1675,30.431250000000002,57.0,112.0
1,30.4675,30.63875,64.0,99.0
2,30.767500000000002,30.97875,64.0,127.0
3,31.0675,31.20625,64.0,127.0
4,31.3675,31.55,64.0,112.0
5,31.6675,31.86,64.0,117.0
6,31.9675,32.1025,62.0,122.0
7,32.2675,32.441250000000004,60.0,102.0
8,32.5675,32.70125,62.0,127.0
9,32.8675,33.0725,62.0,102.0
10,33.167500000000004,33.42625,60.0,112.0
11,33.4675,33.69,59.0,89.0
12,33.7675,34.13375,57.0,112.0
13,34.9675,35.08375,59.0,107.0
14,35.2675,35.386250000000004,59.0,95.0
15,35.5675,35.74125,59.0,102.0
16,35.8675,36.075,60.0,112.0
17,36.167500000000004,36.39625,62.0,127.0
18,36.4675,36.59875,55.0,100.0
19,36.7675,36.893750000000004,55.0,99.0
20,37.0675,37.185,55.0,112.0
21,37.3675,37.61125,60.0,107.0
22,37.667500000000004,37.86,59.0,90.0
23,37.9675,38.16375,60.0,127.0
24,38.2675,38.425000000000004,62.0,107.0
25,38.5675,39.11875,64.0,127.0
26,39.7675,39.925000000000004,57.0,112.0
27,40.0675,40.19625,69.0,127.0
28,40.3675,40.49,69.0,117.0
29,40.667500000000004,40.88375,67.0,112.0
30,40.9675,41.09125,69.0,102.0
31,41.2675,41.5125,69.0,112.0
32,41.5675,41.74375,67.0,122.0
33,41.8675,42.14,64.0,127.0
34,42.167500000000004,42.39125,62.0,122.0
35,42.4675,42.706250000000004,62.0,100.0
36,42.7675,43.10375,57.0,112.0
37,43.0675,43.27125,64.0,122.0
38,43.3675,44.13375,62.0,117.0
39,44.5675,44.84125,55.0,102.0
40,44.8675,45.0325,67.0,112.0
41,45.167500000000004,45.325,67.0,122.0
42,45.4675,45.60875,67.0,127.0
43,45.7675,45.93875,67.0,127.0
44,46.0675,46.32625,67.0,122.0
45,46.3675,46.555,64.0,102.0
46,46.667500000000004,46.83375,62.0,100.0
47,46.9675,47.191250000000004,60.0,107.0
48,47.2675,47.49625,59.0,100.0
49,47.5675,47.816250000000004,55.0,96.0
50,47.8675,48.011250000000004,59.0,99.0
51,48.167500000000004,48.956250000000004,57.0,117.0
52,49.3675,49.61625,57.0,112.0
53,49.667500000000004,49.815,64.0,127.0
54,49.9675,50.11625,64.0,112.0
55,50.2675,50.410000000000004,64.0,112.0
56,50.5675,50.745000000000005,64.0,102.0
57,50.8675,51.0,64.0,122.0
58,51.167500000000004,51.32875,62.0,127.0
59,51.4675,51.6,60.0,95.0
60,51.7675,51.88875,62.0,127.0
61,52.0675,52.23125,62.0,127.0
62,52.3675,52.57,60.0,127.0
63,52.667500000000004,52.93375,59.0,95.0
64,52.9675,53.67375,57.0,96.0
65,54.167500000000004,54.32125,59.0,112.0
66,54.4675,54.61,59.0,100.0
67,54.7675,54.910000000000004,59.0,102.0
68,55.0675,55.25,60.0,112.0
69,55.3675,55.54875,62.0,117.0
70,55.667500000000004,55.816250000000004,55.0,102.0
71,55.9675,56.11125,55.0,99.0
72,56.2675,56.40375,55.0,107.0
73,56.5675,56.7075,60.0,122.0
74,56.8675,56.99875,59.0,117.0
75,57.167500000000004,57.315,60.0,127.0
76,57.4675,57.6,62.0,127.0
77,57.7675,58.26375,64.0,117.0
78,58.9675,59.21,57.0,112.0
79,59.2675,59.42625,69.0,112.0
80,59.5675,59.725,69.0,122.0
81,59.8675,60.005,67.0,127.0
82,60.167500000000004,60.35875,69.0,127.0
83,60.4675,60.667500000000004,69.0,127.0
84,60.7675,60.9275,67.0,127.0
85,61.0675,61.27125,64.0,117.0
86,61.3675,61.52125,62.0,112.0
87,61.667500000000004,61.84125,62.0,117.0
88,61.9675,62.205,57.0,107.0
89,62.2675,62.425000000000004,64.0,117.0
90,62.5675,63.21,62.0,127.0
91,63.7675,63.97875,55.0,117.0
92,64.0675,64.21000000000001,67.0,112.0
93,64.3675,64.50750000000001,67.0,117.0
94,64.6675,64.7925,67.0,127.0
95,64.9675,65.105,67.0,127.0
96,65.2675,65.3375,67.0,122.0
97,65.4175,65.5325,67.0,99.0
98,65.5675,65.75625,64.0,127.0
99,65.8675,66.01375,62.0,117.0
100,66.1675,66.34,60.0,112.0
101,66.4675,66.72375,59.0,112.0
102,66.7675,67.02375,55.0,102.0
103,67.0675,67.25625,59.0,112.0
104,67.3675,68.01875,57.0,100.0
105,68.5675,69.00875,64.0,117.0
106,69.1675,69.49,69.0,127.0
107,69.7675,69.97875,72.0,127.0
108,70.0675,70.23125,71.0,127.0
109,70.3675,70.79,69.0,127.0
110,70.9675,71.22500000000001,69.0,127.0
111,71.2675,71.57625,67.0,100.0
112,71.5675,71.85375,62.0,122.0
113,71.8675,72.13625,67.0,112.0
114,72.1675,72.665,64.0,127.0
115,73.3675,73.665,57.0,122.0
116,73.6675,73.79875,62.0,117.0
117,73.9675,74.115,62.0,97.0
118,74.2675,74.42875000000001,64.0,112.0
119,74.5675,74.7075,67.0,127.0
120,74.8675,74.98875,67.0,127.0
121,75.1675,75.31625,67.0,122.0
122,75.4675,75.59875,69.0,127.0
123,75.7675,75.92125,67.0,127.0
124,76.0275,76.16250000000001,64.0,127.0
125,76.33,76.45875,64.0,107.0
126,76.6225,76.75125,62.0,117.0
127,76.9425,77.78750000000001,64.0,127.0
128,78.1675,78.52625,64.0,117.0
129,78.7675,79.05625,69.0,127.0
130,79.3675,79.6125,72.0,127.0
131,79.6675,79.89375,71.0,127.0
132,79.9675,80.1725,69.0,127.0
133,80.5675,80.83,69.0,127.0
134,80.8675,81.10875,67.0,112.0
135,81.0175,81.10875,67.0,127.0
136,81.1675,81.37875,62.0,117.0
137,81.4675,81.6125,67.0,102.0
138,81.7675,82.3725,64.0,127.0
139,82.9675,83.09375,62.0,112.0
140,83.2675,83.38625,62.0,112.0
141,83.4175,83.52125,62.0,97.0
142,83.5675,83.7075,62.0,107.0
143,83.8675,84.0325,64.0,127.0
144,84.1675,84.3675,67.0,127.0
145,84.4675,84.59625,67.0,112.0
146,84.7675,84.94875,67.0,117.0
147,85.0675,85.25875,64.0,107.0
148,85.3675,85.60625,72.0,127.0
149,85.6675,85.8475,71.0,117.0
150,85.9675,86.0825,69.0,127.0
151,86.2675,86.38625,67.0,117.0
152,86.5675,87.3675,69.0,127.0
153,87.7675,88.20875,64.0,117.0
154,88.3675,88.69,69.0,127.0
155,88.9675,89.17875000000001,72.0,127.0
156,89.2675,89.43125,71.0,127.0
157,89.5675,89.99,69.0,127.0
158,90.1675,90.425,69.0,127.0
159,90.4675,90.77625,67.0,100.0
160,90.7675,91.05375000000001,62.0,122.0
161,91.0675,91.33625,67.0,112.0
162,91.3675,91.865,64.0,127.0
163,92.5675,92.865,57.0,122.0
164,92.8675,92.99875,62.0,117.0
165,93.1675,93.315,62.0,97.0
166,93.4675,93.62875,64.0,112.0
167,93.7675,93.9075,67.0,127.0
168,94.0675,94.18875,67.0,127.0
169,94.3675,94.51625,67.0,122.0
170,94.6675,94.79875,69.0,127.0
171,94.9675,95.12125,67.0,127.0
172,95.2275,95.3625,64.0,127.0
173,95.53,95.65875,64.0,107.0
174,95.8225,95.95125,62.0,117.0
175,96.1425,96.9875,64.0,127.0
176,97.3675,97.72625000000001,64.0,117.0
177,97.9675,98.25625000000001,69.0,127.0
178,98.5675,98.8125,72.0,127.0
179,98.8675,99.09375,71.0,127.0
180,99.1675,99.3725,69.0,127.0
181,99.7675,100.03,69.0,127.0
182,100.0675,100.22875,76.0,127.0
183,100.3675,100.51375,74.0,127.0
184,100.6675,100.77375,72.0,127.0
185,100.9675,101.7775,74.0,127.0
186,102.1675,102.26125,71.0,127.0
187,102.4675,102.56625,71.0,122.0
188,102.7675,102.87625,71.0,122.0
189,103.0675,103.1875,72.0,127.0
190,103.3675,103.505,74.0,127.0
191,103.6675,103.75625000000001,74.0,127.0
192,103.9675,104.09625,74.0,127.0
193,104.2675,104.43875,76.0,127.0
194,104.5675,104.75125,72.0,127.0
195,104.8675,105.01625,71.0,112.0
196,105.1675,105.28875000000001,69.0,127.0
197,105.4675,105.58500000000001,67.0,112.0
198,105.7675,106.97875,69.0,127.0
199,128.5675,128.83125,57.0,112.0
200,128.8675,129.03875,64.0,99.0
201,129.1675,129.37875,64.0,127.0
202,129.4675,129.60625,64.0,127.0
203,129.7675,129.95,64.0,112.0
204,130.0675,130.26,64.0,117.0
205,130.3675,130.5025,62.0,122.0
206,130.6675,130.84125,60.0,102.0
207,130.9675,131.10125,62.0,127.0
208,131.2675,131.4725,62.0,102.0
209,131.5675,131.82625000000002,60.0,112.0
210,131.8675,132.09,59.0,89.0
211,132.1675,132.53375,57.0,112.0
212,133.3675,133.48375000000001,59.0,107.0
213,133.6675,133.78625,59.0,95.0
214,133.9675,134.14125,59.0,102.0
215,134.2675,134.475,60.0,112.0
216,134.5675,134.79625000000001,62.0,127.0
217,134.8675,134.99875,55.0,100.0
218,135.1675,135.29375,55.0,99.0
219,135.4675,135.585,55.0,112.0
220,135.7675,136.01125,60.0,107.0
221,136.0675,136.26,59.0,90.0
222,136.3675,136.56375,60.0,127.0
223,136.6675,136.82500000000002,62.0,107.0
224,136.9675,137.51875,64.0,127.0
225,138.1675,138.32500000000002,57.0,112.0
226,138.4675,138.59625,69.0,127.0
227,138.7675,138.89000000000001,69.0,117.0
228,139.0675,139.28375,67.0,112.0
229,139.3675,139.49125,69.0,102.0
230,139.6675,139.9125,69.0,112.0
231,139.9675,140.14375,67.0,122.0
232,140.2675,140.54,64.0,127.0
233,140.5675,140.79125,62.0,122.0
234,140.8675,141.10625000000002,62.0,100.0
235,141.1675,141.50375,57.0,112.0
236,141.4675,141.67125000000001,64.0,122.0
237,141.7675,142.53375,62.0,117.0
238,142.9675,143.24125,55.0,102.0
239,143.2675,143.4325,67.0,112.0
240,143.5675,143.725,67.0,122.0
241,143.8675,144.00875,67.0,127.0
242,144.1675,144.33875,67.0,127.0
243,144.4675,144.72625,67.0,122.0
244,144.7675,144.955,64.0,102.0
245,145.0675,145.23375000000001,62.0,100.0
246,145.3675,145.59125,60.0,107.0
247,145.6675,145.89625,59.0,100.0
248,145.9675,146.21625,55.0,96.0
249,146.2675,146.41125,59.0,99.0
250,146.5675,147.35625000000002,57.0,117.0
251,147.7675,148.01625,57.0,112.0
252,148.0675,148.215,64.0,127.0
253,148.3675,148.51625,64.0,112.0
254,148.6675,148.81,64.0,112.0
255,148.9675,149.145,64.0,102.0
256,149.2675,149.4,64.0,122.0
257,149.5675,149.72875,62.0,127.0
258,149.8675,150.0,60.0,95.0
259,150.1675,150.28875,62.0,127.0
260,150.4675,150.63125,62.0,127.0
261,150.7675,150.97,60.0,127.0
262,151.0675,151.33375,59.0,95.0
263,151.3675,152.07375,57.0,96.0
264,152.5675,152.72125,59.0,112.0
265,152.8675,153.01,59.0,100.0
266,153.1675,153.31,59.0,102.0
267,153.4675,153.65,60.0,112.0
268,153.7675,153.94875,62.0,117.0
269,154.0675,154.21625,55.0,102.0
270,154.3675,154.51125,55.0,99.0
271,154.6675,154.80375,55.0,107.0
272,154.9675,155.10750000000002,60.0,122.0
273,155.2675,155.39875,59.0,117.0
274,155.5675,155.715,60.0,127.0
275,155.8675,156.0,62.0,127.0
276,156.1675,156.66375,64.0,117.0
277,157.3675,157.61,57.0,112.0
278,157.6675,157.82625000000002,69.0,112.0
279,157.9675,158.125,69.0,122.0
280,158.2675,158.405,67.0,127.0
281,158.5675,158.75875,69.0,127.0
282,158.8675,159.0675,69.0,127.0
283,159.1675,159.32750000000001,67.0,127.0
284,159.4675,159.67125000000001,64.0,117.0
285,159.7675,159.92125000000001,62.0,112.0
286,160.0675,160.24125,62.0,117.0
287,160.3675,160.605,57.0,107.0
288,160.6675,160.82500000000002,64.0,117.0
289,160.9675,161.61,62.0,127.0
290,162.1675,162.37875,55.0,117.0
291,162.4675,162.61,67.0,112.0
292,162.7675,162.9075,67.0,117.0
293,163.0675,163.1925,67.0,127.0
294,163.3675,163.505,67.0,127.0
295,163.6675,163.7375,67.0,122.0
296,163.8175,163.9325,67.0,99.0
297,163.9675,164.15625,64.0,127.0
298,164.2675,164.41375,62.0,117.0
299,164.5675,164.74,60.0,112.0
300,164.8675,165.12375,59.0,112.0
301,165.1675,165.42375,55.0,102.0
302,165.4675,165.65625,59.0,112.0
303,165.7675,166.41875000000002,57.0,100.0
304,166.9675,167.40875,64.0,117.0
305,167.5675,167.89000000000001,69.0,127.0
306,168.1675,168.37875,72.0,127.0
307,168.4675,168.63125,71.0,127.0
308,168.7675,169.19,69.0,127.0
309,169.3675,169.625,69.0,127.0
310,169.6675,169.97625,67.0,100.0
311,169.9675,170.25375,62.0,122.0
312,170.2675,170.53625,67.0,112.0
313,170.5675,171.065,64.0,127.0
314,171.7675,172.065,57.0,122.0
315,172.0675,172.19875,62.0,117.0
316,172.3675,172.51500000000001,62.0,97.0
317,172.6675,172.82875,64.0,112.0
318,172.9675,173.10750000000002,67.0,127.0
319,173.2675,173.38875000000002,67.0,127.0
320,173.5675,173.71625,67.0,122.0
321,173.8675,173.99875,69.0,127.0
322,174.1675,174.32125,67.0,127.0
323,174.4275,174.5625,64.0,127.0
324,174.73,174.85875000000001,64.0,107.0
325,175.0225,175.15125,62.0,117.0
326,175.3425,176.1875,64.0,127.0
327,176.5675,176.92625,64.0,117.0
328,177.1675,177.45625,69.0,127.0
329,177.7675,178.01250000000002,72.0,127.0
330,178.0675,178.29375000000002,71.0,127.0
331,178.3675,178.5725,69.0,127.0
332,178.9675,179.23,69.0,127.0
333,179.2675,179.50875,67.0,112.0
334,179.4175,179.50875,67.0,127.0
335,179.5675,179.77875,62.0,117.0
336,179.8675,180.01250000000002,67.0,102.0
337,180.1675,180.7725,64.0,127.0
338,181.3675,181.49375,62.0,112.0
339,181.6675,181.78625,62.0,112.0
340,181.8175,181.92125000000001,62.0,97.0
341,181.9675,182.10750000000002,62.0,107.0
342,182.2675,182.4325,64.0,127.0
343,182.5675,182.7675,67.0,127.0
344,182.8675,182.99625,67.0,112.0
345,183.1675,183.34875,67.0,117.0
346,183.4675,183.65875,64.0,107.0
347,183.7675,184.00625,72.0,127.0
348,184.0675,184.2475,71.0,117.0
349,184.3675,184.48250000000002,69.0,127.0
350,184.6675,184.78625,67.0,117.0
351,184.9675,185.7675,69.0,127.0
352,186.1675,186.60875000000001,64.0,117.0
353,186.7675,187.09,69.0,127.0
354,187.3675,187.57875,72.0,127.0
355,187.6675,187.83125,71.0,127.0
356,187.9675,188.39000000000001,69.0,127.0
357,188.5675,188.82500000000002,69.0,127.0
358,188.8675,189.17625,67.0,100.0
359,189.1675,189.45375,62.0,122.0
360,189.4675,189.73625,67.0,112.0
361,189.7675,190.26500000000001,64.0,127.0
362,190.9675,191.26500000000001,57.0,122.0
363,191.2675,191.39875,62.0,117.0
364,191.5675,191.715,62.0,97.0
365,191.8675,192.02875,64.0,112.0
366,192.16750000000002,192.3075,67.0,127.0
367,192.4675,192.58875,67.0,127.0
368,192.7675,192.91625,67.0,122.0
369,193.0675,193.19875000000002,69.0,127.0
370,193.3675,193.52125,67.0,127.0
371,193.6275,193.76250000000002,64.0,127.0
372,193.93,194.05875,64.0,107.0
373,194.2225,194.35125,62.0,117.0
374,194.54250000000002,195.38750000000002,64.0,127.0
375,195.7675,196.12625,64.0,117.0
376,196.3675,196.65625,69.0,127.0
377,196.9675,197.2125,72.0,127.0
378,197.2675,197.49375,71.0,127.0
379,197.5675,197.7725,69.0,127.0
380,198.16750000000002,198.43,69.0,127.0
381,198.4675,198.62875,76.0,127.0
382,198.7675,198.91375,74.0,127.0
383,199.0675,199.17375,72.0,127.0
384,199.3675,200.1775,74.0,127.0
385,200.5675,200.66125,71.0,127.0
386,200.8675,200.96625,71.0,122.0
387,201.16750000000002,201.27625,71.0,122.0
388,201.4675,201.5875,72.0,127.0
389,201.7675,201.905,74.0,127.0
390,202.0675,202.15625,74.0,127.0
391,202.3675,202.49625,74.0,127.0
392,202.66750000000002,202.83875,76.0,127.0
393,202.9675,203.15125,72.0,127.0
394,203.2675,203.41625,71.0,112.0
395,203.5675,203.68875,69.0,127.0
396,203.8675,203.985,67.0,112.0
397,204.16750000000002,205.37875,69.0,127.0
