,start,end,pitch,velocity
0,11.544923545833331,11.952432912499999,72.0,114.0
1,12.207988595833331,12.546877654166666,72.0,116.0
2,12.874655595833332,13.224655770833332,79.0,116.0
3,13.541322595833332,13.935767237499999,79.0,114.0
4,14.207989595833332,14.553823102083332,81.0,116.0
5,14.874656595833333,15.237156777083332,81.0,119.0
6,15.541323595833333,16.162157239583333,79.0,119.0
7,16.874657595833334,17.259380010416663,77.0,116.0
8,17.54132459583333,17.935769237499997,77.0,114.0
9,18.20799159583333,18.523269531249998,76.0,116.0
10,18.87465859583333,19.303825477083333,76.0,113.0
11,19.54132559583333,19.851047972916668,74.0,114.0
12,20.207992595833332,20.669103937499997,74.0,116.0
13,20.874659595833332,21.517715472916663,72.0,114.0
14,22.207993595833333,22.5524382125,79.0,116.0
15,22.874660595833333,23.255216341666667,79.0,114.0
16,23.54132759583333,23.874661095833332,77.0,114.0
17,24.207994595833334,24.607994795833335,77.0,116.0
18,24.87466159583333,25.19827286875,76.0,116.0
19,25.541328595833335,25.906606556249997,76.0,114.0
20,26.20799559583333,26.898273718749998,74.0,116.0
21,27.541329595833332,27.841329745833335,79.0,117.0
22,28.207996595833333,28.574663445833334,79.0,117.0
23,28.874663595833333,29.249663783333332,77.0,114.0
24,29.541330595833333,29.941330795833334,77.0,114.0
25,30.207997595833334,30.571886666666664,76.0,116.0
26,30.874664595833334,31.3357759375,76.0,116.0
27,31.541331595833334,32.51494319375,74.0,117.0
28,32.874665595833335,33.27883246458333,72.0,102.0
29,33.54133259583333,33.94966613333334,72.0,114.0
30,34.20799959583333,34.52883308958333,79.0,117.0
31,34.87466659583333,35.15800007083333,79.0,114.0
32,35.541333595833336,35.90800044583334,81.0,117.0
33,36.20800059583333,36.57883411458333,81.0,110.0
34,36.87466759583333,37.577445725000004,79.0,117.0
35,38.20800159583334,38.52327953125,77.0,116.0
36,38.874668595833334,39.23300210833334,77.0,114.0
37,39.54133559583333,39.864946868749996,76.0,116.0
38,40.208002595833335,40.54689165416667,76.0,116.0
39,40.87466959583333,41.217725322916664,74.0,116.0
40,41.54133659583333,41.913559004166665,74.0,114.0
41,42.20800359583333,42.860781700000004,72.0,119.0
42,43.54133759583333,43.88994888125,79.0,113.0
43,44.20800459583333,44.591338120833335,79.0,116.0
44,44.874671595833334,45.24967178333333,77.0,116.0
45,45.54133859583333,45.92328323125,77.0,116.0
46,46.208005595833335,46.55383910208333,76.0,110.0
47,46.87467259583333,47.28439502291667,76.0,114.0
48,47.541339595833335,48.145506564583336,74.0,116.0
49,48.874673595833336,49.22050710208333,79.0,113.0
50,49.54134059583333,49.95939636041667,79.0,108.0
51,50.20800759583334,50.54967443333334,77.0,117.0
52,50.87467459583333,51.2024525375,77.0,116.0
53,51.54134159583333,51.877452875,76.0,114.0
54,52.208008595833334,52.55384210208334,76.0,114.0
55,52.87467559583333,53.599675958333336,74.0,117.0
56,54.277454075,54.60800979583333,72.0,116.0
57,54.944121075,55.249676783333335,72.0,114.0
58,55.610788075,55.95662158125,79.0,116.0
59,56.277455075,56.601066347916664,79.0,116.0
60,56.944122075,57.238566666666664,81.0,116.0
61,57.610789075,57.93023367916667,81.0,114.0
62,58.277456075,58.910789725,79.0,120.0
63,59.610790075,59.9357902375,77.0,116.0
64,60.277457075,60.65940171041667,77.0,116.0
65,60.944124075,61.283013133333334,76.0,117.0
66,61.610791075,61.94829124375,76.0,114.0
67,62.277458075,62.651069372916666,74.0,116.0
68,62.944125075,63.366347508333334,74.0,117.0
69,63.610792075,64.3024590875,72.0,117.0
