,start,end,pitch,velocity
0,24.1046875,24.4359375,65.0,97.0
1,24.4796875,24.8390625,67.0,95.0
2,24.8546875,25.234375,65.0,89.0
3,25.2296875,25.520312500000003,74.0,99.0
4,25.6046875,25.9828125,74.0,97.0
5,27.1046875,27.465625000000003,67.0,99.0
6,27.4796875,27.731250000000003,70.0,100.0
7,27.8546875,28.046875,72.0,102.0
8,28.0421875,28.2484375,70.0,102.0
9,28.2296875,28.634375000000002,67.0,97.0
10,28.6046875,29.7921875,65.0,89.0
11,30.1046875,30.503125,65.0,96.0
12,30.4796875,30.798437500000002,67.0,95.0
13,30.8546875,31.065625,65.0,96.0
14,31.2296875,31.590625000000003,79.0,117.0
15,31.6046875,31.7875,77.0,117.0
16,31.9796875,32.1734375,74.0,122.0
17,32.354687500000004,32.5921875,72.0,117.0
18,32.729687500000004,32.854687500000004,70.0,107.0
19,32.917187500000004,34.1859375,72.0,99.0
20,36.104687500000004,36.35625,74.0,100.0
21,36.479687500000004,36.760937500000004,74.0,100.0
22,36.854687500000004,37.1328125,72.0,107.0
23,37.229687500000004,37.540625,74.0,117.0
24,37.604687500000004,38.509375000000006,77.0,100.0
25,39.104687500000004,39.4375,69.0,102.0
26,39.479687500000004,39.767187500000006,70.0,97.0
27,39.854687500000004,40.2015625,72.0,107.0
28,40.229687500000004,40.3875,69.0,89.0
29,40.417187500000004,40.671875,70.0,112.0
30,42.104687500000004,42.503125000000004,67.0,107.0
31,42.479687500000004,42.8046875,65.0,83.0
32,42.854687500000004,43.1453125,67.0,95.0
33,43.229687500000004,43.459375,74.0,102.0
34,43.604687500000004,43.845312500000006,67.0,100.0
35,43.979687500000004,44.146875,65.0,107.0
36,44.354687500000004,44.5140625,67.0,95.0
37,44.542187500000004,44.7859375,70.0,107.0
38,45.104687500000004,45.35,72.0,99.0
39,45.479687500000004,45.6328125,70.0,100.0
40,45.854687500000004,46.0703125,72.0,97.0
41,46.042187500000004,46.203125,74.0,102.0
42,46.296875,46.548437500000006,77.0,127.0
43,48.104687500000004,48.4359375,65.0,97.0
44,48.479687500000004,48.839062500000004,67.0,95.0
45,48.854687500000004,49.234375,65.0,89.0
46,49.229687500000004,49.5203125,74.0,99.0
47,49.604687500000004,49.9828125,74.0,97.0
48,51.104687500000004,51.465625,67.0,99.0
49,51.479687500000004,51.73125,70.0,100.0
50,51.854687500000004,52.046875,72.0,102.0
51,52.042187500000004,52.2484375,70.0,102.0
52,52.229687500000004,52.634375000000006,67.0,97.0
53,52.604687500000004,53.792187500000004,65.0,89.0
54,54.104687500000004,54.503125000000004,65.0,96.0
55,54.479687500000004,54.798437500000006,67.0,95.0
56,54.854687500000004,55.065625000000004,65.0,96.0
57,55.229687500000004,55.590625,79.0,117.0
58,55.604687500000004,55.7875,77.0,117.0
59,55.979687500000004,56.173437500000006,74.0,122.0
60,56.354687500000004,56.5921875,72.0,117.0
61,56.729687500000004,56.854687500000004,70.0,107.0
62,56.917187500000004,58.1859375,72.0,99.0
63,60.104687500000004,60.35625,74.0,100.0
64,60.479687500000004,60.760937500000004,74.0,100.0
65,60.854687500000004,61.1328125,72.0,107.0
66,61.229687500000004,61.540625000000006,74.0,117.0
67,61.604687500000004,62.509375000000006,77.0,100.0
68,63.10455671041667,63.43695341666667,69.0,102.0
69,63.47908821041667,63.766229027083334,70.0,97.0
70,63.853619710416666,64.20006134791667,72.0,107.0
71,64.22815121041667,64.38576655,69.0,89.0
72,64.41541696041666,64.66978627083333,70.0,112.0
73,66.10080871041667,66.49874842916667,67.0,107.0
74,66.47534021041666,66.79993417708333,65.0,83.0
75,66.84987171041666,67.14013362291666,67.0,95.0
76,67.22440321041667,67.45380375416667,74.0,102.0
77,67.59893471041667,67.83925908958334,67.0,100.0
78,67.97346621041666,68.1404448375,65.0,107.0
79,68.34799771041666,68.50717359791666,67.0,95.0
80,68.53526346041667,68.77870893541666,70.0,107.0
81,69.09706071041667,69.29525029583333,77.0,122.0
82,69.28432646041666,69.70567439791667,79.0,97.0
83,69.84560432083333,69.96516960000001,77.0,122.0
84,70.21827532083334,70.44187792083333,74.0,127.0
85,70.59094632083334,70.75088429166667,74.0,127.0
86,70.77728182083334,72.51486035833334,72.0,112.0
87,73.57231432083334,73.88597907916667,65.0,102.0
88,73.94498532083334,74.20119663333334,67.0,99.0
89,74.31765632083334,74.5816316125,70.0,127.0
90,74.69032732083333,74.99467530416666,72.0,102.0
91,75.06299832083333,75.24467543333334,74.0,127.0
92,75.43566932083334,75.67790547083334,77.0,117.0
93,75.80834032083334,75.98380625,79.0,122.0
94,76.18101132083333,76.33629090416667,77.0,127.0
95,76.55368232083333,76.72914825000001,70.0,122.0
96,76.92635332083333,77.09560806666667,69.0,102.0
97,77.29902432083334,77.41548400833334,70.0,127.0
98,77.67169532083334,77.837844475,72.0,127.0
99,77.85803082083333,77.94964577500001,74.0,112.0
100,78.04436632083333,78.27418010416667,74.0,127.0
101,79.53505032083334,79.82387034583334,79.0,127.0
102,79.90772132083333,80.0692120875,77.0,127.0
103,80.28039232083333,80.40772157916666,77.0,127.0
104,80.65306332083334,80.79436774166666,77.0,122.0
105,80.83939882083334,80.9589641,79.0,112.0
106,81.02573432083334,81.24933692083334,77.0,127.0
107,81.39840532083333,81.56610727083333,74.0,112.0
108,81.58474082083333,81.68567255,77.0,112.0
109,81.77107632083333,81.9418838625,77.0,127.0
110,82.33008282083334,82.42946175416667,70.0,122.0
111,82.51641832083334,82.65151155833334,72.0,107.0
112,82.88908932083334,83.0319465375,70.0,122.0
113,83.26176032083333,83.44343743333333,72.0,102.0
114,83.63443132083333,83.92325134583334,74.0,117.0
115,84.00710232083334,84.29281675416667,72.0,127.0
116,85.49830571041667,85.7401906375,65.0,102.0
117,85.87283721041666,86.10847994583334,67.0,96.0
118,86.24736871041667,86.41746843333333,70.0,127.0
119,86.62190021041667,86.86846678125,72.0,127.0
120,86.99643171041667,87.19618184375,74.0,127.0
121,87.37096321041666,87.60972704166667,77.0,127.0
122,87.74549471041666,88.01859059583333,79.0,127.0
123,88.12002621041667,88.33694237083333,77.0,127.0
124,88.49455771041667,88.71459496666667,70.0,117.0
125,88.86908921041666,89.11409523333333,69.0,107.0
126,89.24362071041666,89.457415775,70.0,117.0
127,89.61815221041667,89.78981248125,74.0,122.0
128,89.99268371041667,90.39998671666666,74.0,127.0
129,91.49080971041667,91.59692696875,79.0,127.0
130,91.86534121041666,91.99954833125,77.0,100.0
131,92.23987271041666,92.39904859791666,79.0,127.0
132,92.98893571041667,93.17620146041666,77.0,122.0
133,93.36346721041667,93.65685021875,77.0,122.0
134,93.73799871041666,94.01577623958333,77.0,127.0
135,94.48706171041667,94.74455211666667,72.0,117.0
136,94.86159321041667,95.19555046458333,70.0,127.0
137,95.23612471041666,95.57320306041666,67.0,102.0
138,95.61065621041666,95.93837127291667,72.0,122.0
139,95.98518771041667,97.28044248124999,70.0,127.0
140,121.45332971041667,121.78416586875,65.0,97.0
141,121.82786121041667,122.18678723125001,67.0,95.0
142,122.20239271041666,122.58160585416667,65.0,89.0
143,122.57692421041666,122.86718612291666,74.0,99.0
144,122.95145571041667,123.32910830624999,74.0,97.0
145,124.44958171041667,124.81006827916667,67.0,99.0
146,124.82411321041667,125.075361425,70.0,100.0
147,125.19864471041666,125.39059210416667,72.0,102.0
148,125.38591046041667,125.59190278541666,70.0,102.0
149,125.57317621041668,125.97735812083333,67.0,97.0
150,125.94770771041667,127.13372412708333,65.0,89.0
151,127.44583371041666,127.84377342916667,65.0,96.0
152,127.82036521041667,128.13871698541666,67.0,95.0
153,128.19489671041666,128.40557067916666,65.0,96.0
154,128.56942821041667,128.92991477916667,79.0,117.0
155,128.94395971041666,129.12654381666667,77.0,117.0
156,129.31849121041665,129.51199915208332,74.0,122.0
157,129.69302271041667,129.93022599375,72.0,117.0
158,130.06755421041666,130.19239804375,70.0,107.0
159,130.25481996041668,131.52198486875,72.0,99.0
160,133.43833771041668,133.689585925,74.0,100.0
161,133.81286921041666,134.09376783541666,74.0,100.0
162,134.18740071041668,134.46517823958334,72.0,107.0
163,134.56193221041667,134.87248124583334,74.0,117.0
164,134.93646371041666,135.84002095416668,77.0,100.0
165,136.43458971041667,136.76698641666667,69.0,102.0
166,136.80912121041666,137.09626202708333,70.0,97.0
167,137.18365271041665,137.53009434791667,72.0,107.0
168,137.55818421041667,137.71579954999999,69.0,89.0
169,137.74544996041666,137.99981927083334,70.0,112.0
170,139.43084171041667,139.82878142916667,67.0,107.0
171,139.80537321041666,140.12996717708333,65.0,83.0
172,140.17990471041668,140.47016662291668,67.0,95.0
173,140.55443621041667,140.78383675416666,74.0,102.0
174,140.92896771041666,141.16929208958334,67.0,100.0
175,141.30349921041667,141.4704778375,65.0,107.0
176,141.67803071041666,141.83720659791666,67.0,95.0
177,141.86529646041666,142.10874193541667,70.0,107.0
178,142.42709371041667,142.67209973333334,72.0,99.0
179,142.80162521041666,142.95455890624999,70.0,100.0
180,143.17615671041665,143.39151232291667,72.0,97.0
181,143.36342246041667,143.52415889583332,74.0,102.0
182,143.61779177083332,143.86903998541666,77.0,127.0
183,145.42334571041667,145.75418186874998,65.0,97.0
184,145.79787721041666,146.15680323125,67.0,95.0
185,146.17240871041668,146.55162185416665,65.0,89.0
186,146.54694021041666,146.83720212291666,74.0,99.0
187,146.92147171041665,147.29912430625,74.0,97.0
188,148.41959771041667,148.78008427916666,67.0,99.0
189,148.79412921041666,149.045377425,70.0,100.0
190,149.16866071041667,149.36060810416666,72.0,102.0
191,149.35592646041667,149.56191878541665,70.0,102.0
192,149.54319221041666,149.94737412083333,67.0,97.0
193,149.91772371041668,151.1037401270833,65.0,89.0
194,151.41584971041667,151.81378942916666,65.0,96.0
195,151.79038121041668,152.10873298541668,67.0,95.0
196,152.16491271041667,152.37558667916664,65.0,96.0
197,152.53944421041666,152.89993077916665,79.0,117.0
198,152.91397571041665,153.09655981666668,77.0,117.0
199,153.28850721041667,153.48201515208333,74.0,122.0
200,153.66303871041669,153.90024199375,72.0,117.0
201,154.03757021041667,154.16241404375,70.0,107.0
202,154.22483596041667,155.49200086874998,72.0,99.0
203,157.40835371041666,157.659601925,74.0,100.0
204,157.78288521041668,158.06378383541667,74.0,100.0
205,158.15741671041667,158.43519423958332,72.0,107.0
206,158.53194821041666,158.84249724583333,74.0,117.0
207,158.90647971041665,159.81003695416666,77.0,100.0
208,160.40460571041666,160.73700241666666,69.0,102.0
209,160.77913721041665,161.06627802708334,70.0,97.0
210,161.15366871041667,161.50011034791666,72.0,107.0
211,161.52820021041668,161.68581555,69.0,89.0
212,161.71546596041668,161.96983527083333,70.0,112.0
213,163.40085771041666,163.79879742916665,67.0,107.0
214,163.77538921041668,164.09998317708335,65.0,83.0
215,164.14992071041667,164.44018262291667,67.0,95.0
216,164.52445221041665,164.75385275416664,74.0,102.0
217,164.89898371041664,165.13930808958332,67.0,100.0
218,165.27351521041666,165.44049383750001,65.0,107.0
219,165.64804671041668,165.80722259791668,67.0,95.0
220,165.83531246041667,166.07875793541666,70.0,107.0
221,166.39710971041666,166.59529929583334,77.0,122.0
222,166.58437546041665,167.00572339791665,79.0,97.0
223,167.14617271041666,167.2663349,77.0,122.0
224,167.52070421041668,167.74542311041665,74.0,127.0
225,167.89523571041667,168.05597214583332,74.0,127.0
226,168.08250146041667,169.82875457916668,72.0,112.0
227,170.89148771041667,171.20671838958333,65.0,102.0
228,171.26601921041666,171.52350961666667,67.0,99.0
229,171.64055071041668,171.90584385625,70.0,127.0
230,172.01508221041667,172.32094960208332,72.0,102.0
231,172.38961371041665,172.57219781666666,74.0,127.0
232,172.76414521041667,173.00759068541666,77.0,117.0
233,173.13867671041666,173.315018625,79.0,122.0
234,173.51320821041668,173.6692630020833,77.0,127.0
235,173.88773971041667,174.064081625,70.0,122.0
236,174.26227121041666,174.43237093333335,69.0,102.0
237,174.63680271041665,174.75384380416665,70.0,127.0
238,175.01133421041666,175.17831283750002,72.0,127.0
239,175.19859996041666,175.2906722875,74.0,112.0
240,175.38586571041668,175.61682680208332,74.0,127.0
241,176.88399171041667,177.17425362291667,79.0,127.0
242,177.25852321041668,177.42082019375,77.0,127.0
243,177.63305471041667,177.7610196395833,77.0,127.0
244,178.00758621041666,178.14959607083333,77.0,122.0
245,178.19485196041666,178.31501415,79.0,112.0
246,178.38211771041665,178.60683661041668,77.0,127.0
247,178.75664921041667,178.92518838541667,74.0,112.0
248,178.94391496041666,179.045350575,77.0,112.0
249,179.13118071041666,179.30284098125,77.0,127.0
250,179.69297796041667,179.7928530270833,70.0,122.0
251,179.88024371041666,180.01601137916668,72.0,107.0
252,180.25477521041665,180.39834561875,70.0,122.0
253,180.62930671041667,180.81189081666668,72.0,102.0
254,181.00383821041666,181.29410012291666,74.0,117.0
255,181.37836971041668,181.6655105270833,72.0,127.0
256,182.87649571041666,183.1183806375,65.0,102.0
257,183.25102721041668,183.48666994583334,67.0,96.0
258,183.62555871041667,183.79565843333333,70.0,127.0
259,184.00009021041666,184.24665678125,72.0,127.0
260,184.37462171041665,184.57437184375,74.0,127.0
261,184.74915321041667,184.98791704166666,77.0,127.0
262,185.12368471041668,185.39678059583332,79.0,127.0
263,185.49821621041667,185.71513237083332,77.0,127.0
264,185.87274771041666,186.09278496666667,70.0,117.0
265,186.24727921041665,186.49228523333335,69.0,107.0
266,186.62181071041667,186.835605775,70.0,117.0
267,186.99634221041669,187.16800248125,74.0,122.0
268,187.37087371041667,187.77817671666668,74.0,127.0
269,188.86899971041666,188.97511696875,79.0,127.0
270,189.24353121041668,189.37773833125,77.0,100.0
271,189.61806271041667,189.77723859791666,79.0,127.0
272,190.36712571041664,190.55439146041667,77.0,122.0
273,190.74165721041666,191.03504021875,77.0,122.0
274,191.11618871041668,191.39396623958334,77.0,127.0
275,191.86525171041666,192.12274211666664,72.0,117.0
276,192.23978321041665,192.57374046458335,70.0,127.0
277,192.61431471041666,192.95139306041665,67.0,102.0
278,192.98884621041668,193.31656127291666,72.0,122.0
279,193.36337771041667,194.65863248124998,70.0,127.0
280,194.86150371041668,195.17673438958332,65.0,102.0
281,195.23603521041667,195.49352561666666,67.0,99.0
282,195.61056671041666,195.87585985625,70.0,127.0
283,195.98509821041665,196.29096560208333,72.0,102.0
284,196.35962971041667,196.54221381666667,74.0,127.0
285,196.73416121041666,196.97760668541667,77.0,117.0
286,197.10869271041668,197.28503462499998,79.0,122.0
287,197.48322421041667,197.63927900208333,77.0,127.0
288,197.85775571041665,198.03409762500002,70.0,122.0
289,198.23228721041664,198.40238693333333,69.0,102.0
290,198.60681871041666,198.72385980416666,70.0,127.0
291,198.98135021041668,199.1483288375,72.0,127.0
292,199.16861596041667,199.2606882875,74.0,112.0
293,199.35588171041667,199.5868428020833,74.0,127.0
294,200.85400771041668,201.14426962291668,79.0,127.0
295,201.22853921041667,201.39083619374998,77.0,127.0
296,201.60307071041666,201.73103563958333,77.0,127.0
297,201.97760221041665,202.11961207083334,77.0,122.0
298,202.16486796041664,202.28503015,79.0,112.0
299,202.35213371041667,202.57685261041667,77.0,127.0
300,202.72666521041668,202.89520438541666,74.0,112.0
301,202.91393096041668,203.015366575,77.0,112.0
302,203.10119671041667,203.27285698125002,77.0,127.0
303,203.66299396041666,203.76286902708333,70.0,122.0
304,203.85025971041665,203.98602737916667,72.0,107.0
305,204.22479121041667,204.36836161875,70.0,122.0
306,204.59932271041666,204.78190681666666,72.0,102.0
307,204.97385421041668,205.26411612291668,74.0,117.0
308,205.34838571041666,205.63552652708333,72.0,127.0
309,206.84651171041668,207.0883966375,65.0,102.0
310,207.22104321041667,207.45668594583333,67.0,96.0
311,207.59557471041666,207.76567443333334,70.0,127.0
312,207.97010621041665,208.21667278125,72.0,127.0
313,208.34463771041666,208.54438784375,74.0,127.0
314,208.71916921041668,208.95793304166665,77.0,127.0
315,209.09370071041667,209.36679659583334,79.0,127.0
316,209.46823221041666,209.68514837083333,77.0,127.0
317,209.84276371041665,210.06280096666666,70.0,117.0
318,210.21729521041667,210.46230123333333,69.0,107.0
319,210.59182671041668,210.805621775,70.0,117.0
320,210.96635821041667,211.13801848125001,74.0,122.0
321,211.34088971041666,211.74819271666667,74.0,127.0
322,212.83901571041667,212.94513296875,79.0,127.0
323,213.21354721041666,213.34775433125,77.0,100.0
324,213.58807871041665,213.74725459791665,79.0,127.0
325,214.3371417104167,214.52440746041668,77.0,122.0
326,214.71167321041668,215.00505621874998,77.0,122.0
327,215.08620471041667,215.36398223958332,77.0,127.0
328,215.83526771041664,216.0927581166667,72.0,117.0
329,216.2097992104167,216.54375646458334,70.0,127.0
330,216.58433071041668,216.92140906041664,67.0,102.0
331,216.95886221041667,217.28657727291665,72.0,122.0
332,217.33339371041666,218.62864848125002,70.0,127.0
333,218.83151971041667,218.93763696874998,79.0,127.0
334,219.20605121041666,219.34025833124997,77.0,100.0
335,219.58058271041665,219.73975859791665,79.0,127.0
336,220.32964571041668,220.51691146041668,77.0,122.0
337,220.70417721041667,220.99756021874998,77.0,122.0
338,221.07870871041666,221.35648623958332,77.0,127.0
339,221.82777171041664,222.08526211666668,72.0,117.0
340,222.2023032104167,222.53626046458334,70.0,127.0
341,222.57683471041668,222.9139130604167,67.0,102.0
342,222.95136621041667,223.27908127291664,72.0,122.0
343,223.32589771041665,224.62115248125002,70.0,127.0
