,start,end,pitch,velocity
0,0.1046875,0.3359375,53.0,75.0
1,0.1046875,0.34218750000000003,62.0,65.0
2,0.1046875,0.3515625,58.0,78.0
3,0.1046875,0.5796875,46.0,127.0
4,0.47968750000000004,0.8109375000000001,53.0,71.0
5,0.47968750000000004,0.8390625,58.0,72.0
6,0.47968750000000004,0.8578125000000001,62.0,75.0
7,0.8546875,0.9906250000000001,46.0,100.0
8,1.2296875,1.3359375,53.0,52.0
9,1.2296875,1.35,58.0,59.0
10,1.2296875,1.3578125,62.0,62.0
11,1.7921875,2.0203125,53.0,42.0
12,1.4171875,2.0375,46.0,82.0
13,1.7921875,2.059375,58.0,43.0
14,1.7921875,2.075,62.0,64.0
15,2.1671875000000003,2.3265625,46.0,92.0
16,2.3546875000000003,2.4890625,53.0,67.0
17,2.3546875000000003,2.496875,62.0,78.0
18,2.3546875000000003,2.4984375,58.0,88.0
19,2.5421875000000003,2.6640625,46.0,89.0
20,2.7296875000000003,2.8265625,58.0,102.0
21,2.7296875000000003,2.9890625,62.0,85.0
22,2.9171875000000003,3.0140625,58.0,70.0
23,3.1046875000000003,3.3046875,58.0,97.0
24,3.1046875000000003,3.309375,62.0,83.0
25,3.1046875000000003,3.359375,43.0,93.0
26,3.4796875000000003,3.734375,62.0,89.0
27,3.4796875000000003,3.7421875,58.0,107.0
28,3.8546875000000003,4.040625,58.0,100.0
29,3.8546875000000003,4.0453125000000005,62.0,93.0
30,4.2296875,4.3640625,58.0,57.0
31,4.2296875,4.403125,62.0,58.0
32,4.4171875,4.596875,43.0,72.0
33,4.7921875,4.95,43.0,88.0
34,4.979687500000001,5.040625,58.0,26.0
35,4.979687500000001,5.090625,55.0,35.0
36,4.979687500000001,5.120312500000001,62.0,56.0
37,5.167187500000001,5.3140625,43.0,90.0
38,5.354687500000001,5.510937500000001,58.0,117.0
39,5.354687500000001,5.510937500000001,62.0,97.0
40,5.542187500000001,5.651562500000001,43.0,96.0
41,5.729687500000001,5.890625,58.0,112.0
42,5.917187500000001,5.9750000000000005,55.0,62.0
43,6.104687500000001,6.3359375,55.0,73.0
44,6.104687500000001,6.3484375,58.0,100.0
45,6.104687500000001,6.3515625,63.0,100.0
46,6.104687500000001,6.359375,51.0,71.0
47,6.479687500000001,6.6609375,55.0,75.0
48,6.479687500000001,6.68125,51.0,29.0
49,6.479687500000001,6.74375,63.0,100.0
50,6.479687500000001,6.753125000000001,58.0,99.0
51,6.854687500000001,7.059375,58.0,100.0
52,6.854687500000001,7.2421875,63.0,100.0
53,7.417187500000001,7.68125,58.0,95.0
54,7.417187500000001,7.6890625,63.0,92.0
55,7.229687500000001,7.8640625,51.0,51.0
56,7.792187500000001,8.171875,63.0,92.0
57,7.792187500000001,8.176562500000001,58.0,93.0
58,8.1671875,8.36875,51.0,56.0
59,8.3546875,8.6265625,58.0,112.0
60,6.104687500000001,8.64375,39.0,69.0
61,8.5421875,8.65625,51.0,82.0
62,8.3546875,8.7328125,63.0,107.0
63,8.7296875,8.890625,55.0,96.0
64,8.9171875,9.009375,57.0,58.0
65,9.1046875,9.35,60.0,79.0
66,9.1046875,9.3546875,53.0,74.0
67,9.1046875,9.3578125,57.0,72.0
68,9.1046875,9.379687500000001,41.0,82.0
69,9.4796875,9.7375,53.0,90.0
70,9.4796875,9.7375,57.0,89.0
71,9.4796875,9.7375,60.0,88.0
72,9.8546875,10.0,57.0,99.0
73,9.4796875,10.029687500000001,41.0,92.0
74,9.8546875,10.165625,60.0,95.0
75,10.0421875,10.21875,53.0,43.0
76,10.4171875,10.634375,53.0,93.0
77,10.4171875,10.6421875,57.0,96.0
78,10.4171875,10.6421875,60.0,97.0
79,10.7921875,10.910937500000001,57.0,88.0
80,10.7921875,10.934375000000001,53.0,90.0
81,10.7921875,10.935937500000001,60.0,79.0
82,10.2296875,11.0109375,41.0,100.0
83,11.1671875,11.34375,41.0,88.0
84,11.3546875,11.5171875,57.0,95.0
85,11.3546875,11.534375,60.0,93.0
86,11.5421875,11.7296875,41.0,102.0
87,11.7296875,11.84375,57.0,100.0
88,11.7296875,11.935937500000001,60.0,93.0
89,11.9171875,12.006250000000001,53.0,41.0
90,12.1046875,12.2359375,62.0,96.0
91,12.1046875,12.240625000000001,46.0,117.0
92,12.1046875,12.2515625,53.0,76.0
93,12.1046875,12.2515625,58.0,117.0
94,12.4796875,12.7109375,62.0,96.0
95,12.4796875,12.721875,58.0,112.0
96,12.4796875,12.7921875,53.0,83.0
97,12.4796875,12.9328125,46.0,127.0
98,12.8546875,13.2125,58.0,127.0
99,12.8546875,13.225000000000001,62.0,100.0
100,13.4171875,13.560937500000001,58.0,100.0
101,13.4171875,13.5796875,62.0,85.0
102,13.2296875,13.940625,46.0,95.0
103,13.7921875,13.973437500000001,58.0,107.0
104,13.9796875,14.107812500000001,53.0,38.0
105,13.7921875,14.14375,62.0,93.0
106,14.1671875,14.3625,46.0,107.0
107,14.3546875,14.5484375,58.0,127.0
108,14.3546875,14.55625,62.0,99.0
109,14.5421875,14.90625,46.0,107.0
110,14.7296875,14.971875,62.0,96.0
111,14.7296875,14.982812500000001,58.0,127.0
112,15.1046875,15.24375,58.0,107.0
113,15.1046875,15.2515625,55.0,95.0
114,15.1046875,15.254687500000001,62.0,88.0
115,15.1046875,15.2734375,43.0,88.0
116,15.4796875,16.0609375,55.0,89.0
117,15.4796875,16.064062500000002,62.0,92.0
118,15.4796875,16.0703125,58.0,122.0
119,15.4796875,16.25625,43.0,100.0
120,16.2296875,16.371875,58.0,122.0
121,16.2296875,16.471875,62.0,97.0
122,16.2296875,16.475,55.0,100.0
123,16.4171875,16.5921875,43.0,97.0
124,16.7921875,17.1125,55.0,88.0
125,16.7921875,17.126562500000002,58.0,122.0
126,16.7921875,17.126562500000002,62.0,96.0
127,17.1671875,17.328125,43.0,99.0
128,17.3546875,17.521875,55.0,92.0
129,17.3546875,17.5421875,62.0,95.0
130,17.3546875,17.54375,58.0,122.0
131,17.5421875,17.6296875,43.0,97.0
132,17.7296875,17.78125,62.0,70.0
133,17.7296875,17.89375,58.0,107.0
134,17.9171875,17.96875,55.0,31.0
135,18.1046875,18.2484375,39.0,102.0
136,18.1046875,18.251562500000002,51.0,73.0
137,18.1046875,18.2875,55.0,92.0
138,18.1046875,18.3015625,58.0,127.0
139,18.1046875,18.321875000000002,63.0,117.0
140,18.4796875,18.6609375,55.0,81.0
141,18.4796875,18.7390625,63.0,107.0
142,18.4796875,18.7421875,58.0,112.0
143,18.8546875,19.0921875,58.0,127.0
144,18.8546875,19.1015625,63.0,127.0
145,18.4796875,19.196875000000002,51.0,95.0
146,18.4796875,19.223437500000003,39.0,97.0
147,19.2296875,19.431250000000002,55.0,69.0
148,19.2296875,19.4515625,58.0,95.0
149,19.2296875,19.493750000000002,63.0,82.0
150,19.4171875,19.6015625,39.0,82.0
151,19.4171875,19.6015625,51.0,96.0
152,19.7921875,19.9359375,39.0,78.0
153,19.7921875,19.965625000000003,51.0,93.0
154,20.1671875,20.2578125,39.0,78.0
155,20.1671875,20.329687500000002,51.0,90.0
156,20.3546875,20.734375,63.0,117.0
157,20.3546875,20.740625,58.0,127.0
158,20.7296875,20.890625,55.0,97.0
159,20.9171875,20.950000000000003,57.0,40.0
160,21.1046875,21.26875,53.0,100.0
161,21.1046875,21.2796875,41.0,56.0
162,21.1046875,21.2890625,48.0,72.0
163,21.1046875,21.290625000000002,57.0,96.0
164,21.1046875,21.3125,60.0,90.0
165,21.4796875,21.9375,53.0,89.0
166,21.4796875,21.942187500000003,57.0,96.0
167,21.4796875,21.9609375,60.0,92.0
168,22.0421875,22.146875,60.0,38.0
169,22.0421875,22.173437500000002,57.0,56.0
170,21.4796875,22.334375,48.0,89.0
171,21.4796875,22.3390625,41.0,75.0
172,22.6046875,23.78125,57.0,99.0
173,22.6046875,23.803125,60.0,99.0
174,22.6046875,23.892187500000002,41.0,69.0
175,22.6046875,23.946875000000002,48.0,90.0
176,22.6046875,23.9671875,53.0,93.0
177,24.1046875,24.6359375,62.0,82.0
178,24.1046875,24.6390625,58.0,77.0
179,24.8546875,24.942187500000003,58.0,92.0
180,24.8546875,24.94375,53.0,81.0
181,24.8546875,24.946875000000002,62.0,82.0
182,24.1046875,24.984375,46.0,59.0
183,25.4171875,25.4875,53.0,67.0
184,25.4171875,25.489062500000003,62.0,69.0
185,25.4171875,25.493750000000002,58.0,90.0
186,25.7921875,25.878125,58.0,88.0
187,25.7921875,25.88125,53.0,69.0
188,25.7921875,25.896875,62.0,73.0
189,26.1671875,26.3671875,46.0,86.0
190,26.3546875,26.629687500000003,53.0,72.0
191,26.3546875,26.6390625,58.0,96.0
192,26.3546875,26.770312500000003,62.0,79.0
193,26.7296875,26.879687500000003,58.0,72.0
194,27.1046875,27.3234375,55.0,73.0
195,27.1046875,27.5625,63.0,72.0
196,27.1046875,27.564062500000002,60.0,73.0
197,27.4796875,27.668750000000003,55.0,55.0
198,27.8546875,27.939062500000002,60.0,85.0
199,27.8546875,27.950000000000003,63.0,83.0
200,27.8546875,27.953125,55.0,78.0
201,27.1046875,28.231250000000003,36.0,63.0
202,27.1046875,28.2921875,48.0,74.0
203,28.6046875,28.984375,57.0,64.0
204,28.6046875,29.043750000000003,60.0,68.0
205,28.6046875,29.0609375,53.0,64.0
206,28.9796875,29.4203125,48.0,48.0
207,29.3546875,29.564062500000002,60.0,93.0
208,29.3546875,29.565625,57.0,95.0
209,28.6046875,29.584375,41.0,53.0
210,29.5421875,29.721875,48.0,76.0
211,29.7296875,29.865625,53.0,76.0
212,30.1046875,30.540625000000002,62.0,74.0
213,30.1046875,30.548437500000002,58.0,90.0
214,30.1046875,30.5625,55.0,81.0
215,30.8546875,30.9484375,58.0,92.0
216,30.8546875,30.953125,55.0,76.0
217,30.8546875,30.954687500000002,62.0,70.0
218,30.4796875,30.9828125,50.0,26.0
219,31.4171875,31.50625,62.0,58.0
220,31.4171875,31.517187500000002,58.0,82.0
221,31.4171875,31.5265625,55.0,69.0
222,31.2296875,31.8671875,50.0,55.0
223,31.7921875,31.876562500000002,58.0,89.0
224,31.7921875,31.8828125,62.0,70.0
225,31.7921875,31.895312500000003,55.0,70.0
226,32.167187500000004,32.40625,50.0,41.0
227,30.1046875,32.434375,43.0,66.0
228,32.354687500000004,32.4671875,55.0,69.0
229,32.354687500000004,32.4765625,58.0,93.0
230,32.354687500000004,32.478125,62.0,76.0
231,32.729687500000004,32.771875,58.0,90.0
232,32.729687500000004,32.7875,62.0,61.0
233,32.729687500000004,32.840625,55.0,85.0
234,33.104687500000004,33.5359375,57.0,77.0
235,33.104687500000004,33.5390625,53.0,82.0
236,33.104687500000004,33.5703125,60.0,73.0
237,33.854687500000004,33.925000000000004,57.0,92.0
238,33.854687500000004,33.9296875,53.0,85.0
239,33.854687500000004,33.940625000000004,60.0,82.0
240,34.417187500000004,34.475,57.0,90.0
241,34.417187500000004,34.4859375,53.0,82.0
242,34.417187500000004,34.487500000000004,60.0,81.0
243,34.792187500000004,34.853125,57.0,82.0
244,34.792187500000004,34.862500000000004,53.0,78.0
245,34.792187500000004,34.870312500000004,60.0,72.0
246,35.167187500000004,35.417187500000004,48.0,63.0
247,35.354687500000004,35.46875,53.0,85.0
248,35.354687500000004,35.478125,57.0,96.0
249,35.354687500000004,35.496875,60.0,92.0
250,33.104687500000004,35.6140625,41.0,66.0
251,35.542187500000004,35.659375000000004,48.0,73.0
252,35.729687500000004,35.884375,53.0,92.0
253,36.104687500000004,36.471875000000004,53.0,78.0
254,36.104687500000004,36.4859375,58.0,92.0
255,36.104687500000004,36.4890625,62.0,73.0
256,36.854687500000004,36.95,58.0,96.0
257,36.854687500000004,36.9546875,53.0,82.0
258,36.854687500000004,36.9546875,62.0,73.0
259,36.104687500000004,37.121875,46.0,100.0
260,37.417187500000004,37.4890625,62.0,68.0
261,37.417187500000004,37.4984375,53.0,63.0
262,37.417187500000004,37.503125000000004,58.0,83.0
263,37.792187500000004,37.885937500000004,53.0,58.0
264,37.792187500000004,37.8875,62.0,71.0
265,37.792187500000004,37.890625,58.0,81.0
266,38.167187500000004,38.3109375,46.0,90.0
267,38.354687500000004,38.510937500000004,58.0,95.0
268,38.354687500000004,38.5203125,62.0,73.0
269,38.542187500000004,38.615625,46.0,95.0
270,38.729687500000004,38.8515625,53.0,77.0
271,39.104687500000004,39.501562500000006,54.0,93.0
272,39.104687500000004,39.503125000000004,57.0,82.0
273,39.104687500000004,39.5140625,50.0,83.0
274,39.479687500000004,39.921875,45.0,58.0
275,39.104687500000004,39.95,38.0,72.0
276,39.854687500000004,39.975,54.0,97.0
277,39.854687500000004,39.9828125,57.0,82.0
278,40.604687500000004,40.971875000000004,55.0,76.0
279,40.604687500000004,40.990625,62.0,79.0
280,40.604687500000004,41.0125,58.0,95.0
281,40.979687500000004,41.365625,50.0,39.0
282,41.354687500000004,41.532812500000006,62.0,86.0
283,41.354687500000004,41.5390625,58.0,100.0
284,40.604687500000004,41.5828125,43.0,66.0
285,41.542187500000004,41.635937500000004,50.0,73.0
286,41.729687500000004,41.8796875,58.0,102.0
287,41.729687500000004,41.909375000000004,62.0,59.0
288,41.917187500000004,42.028125,55.0,66.0
289,42.104687500000004,42.454687500000006,55.0,50.0
290,42.104687500000004,42.465625,63.0,89.0
291,42.104687500000004,42.4734375,60.0,83.0
292,42.854687500000004,42.9765625,60.0,96.0
293,42.854687500000004,42.985937500000006,63.0,97.0
294,42.104687500000004,43.03125,48.0,76.0
295,43.417187500000004,43.510937500000004,63.0,75.0
296,43.417187500000004,43.517187500000006,60.0,82.0
297,43.979687500000004,44.056250000000006,55.0,51.0
298,43.979687500000004,44.0609375,58.0,82.0
299,43.979687500000004,44.1015625,63.0,76.0
300,44.354687500000004,44.673437500000006,51.0,78.0
301,43.604687500000004,44.7,39.0,82.0
302,44.354687500000004,44.7875,63.0,100.0
303,44.354687500000004,44.814062500000006,58.0,107.0
304,44.729687500000004,44.9359375,55.0,68.0
305,45.104687500000004,45.579687500000006,55.0,85.0
306,45.104687500000004,45.6015625,60.0,92.0
307,45.104687500000004,45.60625,63.0,93.0
308,45.104687500000004,45.84375,48.0,85.0
309,45.854687500000004,46.00625,60.0,102.0
310,45.854687500000004,46.018750000000004,63.0,117.0
311,46.042187500000004,46.1375,60.0,88.0
312,46.229687500000004,46.282812500000006,63.0,58.0
313,46.792187500000004,46.946875000000006,57.0,81.0
314,46.792187500000004,46.948437500000004,53.0,73.0
315,46.604687500000004,46.954687500000006,41.0,72.0
316,46.792187500000004,46.964062500000004,60.0,82.0
317,47.167187500000004,47.4046875,57.0,88.0
318,47.167187500000004,47.5671875,60.0,88.0
319,47.354687500000004,48.0515625,41.0,73.0
320,47.729687500000004,48.059375,57.0,93.0
321,47.729687500000004,48.0609375,53.0,88.0
322,47.729687500000004,48.0703125,60.0,96.0
323,48.104687500000004,48.635937500000004,62.0,82.0
324,48.104687500000004,48.6390625,58.0,77.0
325,48.854687500000004,48.9421875,58.0,92.0
326,48.854687500000004,48.94375,53.0,81.0
327,48.854687500000004,48.946875000000006,62.0,82.0
328,48.104687500000004,48.984375,46.0,59.0
329,49.417187500000004,49.487500000000004,53.0,67.0
330,49.417187500000004,49.4890625,62.0,69.0
331,49.417187500000004,49.493750000000006,58.0,90.0
332,49.792187500000004,49.878125000000004,58.0,88.0
333,49.792187500000004,49.88125,53.0,69.0
334,49.792187500000004,49.896875,62.0,73.0
335,50.167187500000004,50.3671875,46.0,86.0
336,50.354687500000004,50.6296875,53.0,72.0
337,50.354687500000004,50.6390625,58.0,96.0
338,50.354687500000004,50.7703125,62.0,79.0
339,50.729687500000004,50.8796875,58.0,72.0
340,51.104687500000004,51.323437500000004,55.0,73.0
341,51.104687500000004,51.5625,63.0,72.0
342,51.104687500000004,51.564062500000006,60.0,73.0
343,51.479687500000004,51.66875,55.0,55.0
344,51.854687500000004,51.939062500000006,60.0,85.0
345,51.854687500000004,51.95,63.0,83.0
346,51.854687500000004,51.953125,55.0,78.0
347,51.104687500000004,52.23125,36.0,63.0
348,51.104687500000004,52.292187500000004,48.0,74.0
349,52.604687500000004,52.984375,57.0,64.0
350,52.604687500000004,53.04375,60.0,68.0
351,52.604687500000004,53.0609375,53.0,64.0
352,52.979687500000004,53.4203125,48.0,48.0
353,53.354687500000004,53.564062500000006,60.0,93.0
354,53.354687500000004,53.565625000000004,57.0,95.0
355,52.604687500000004,53.584375,41.0,53.0
356,53.542187500000004,53.721875000000004,48.0,76.0
357,53.729687500000004,53.865625,53.0,76.0
358,54.104687500000004,54.540625000000006,62.0,74.0
359,54.104687500000004,54.548437500000006,58.0,90.0
360,54.104687500000004,54.5625,55.0,81.0
361,54.854687500000004,54.948437500000004,58.0,92.0
362,54.854687500000004,54.953125,55.0,76.0
363,54.854687500000004,54.954687500000006,62.0,70.0
364,54.479687500000004,54.9828125,50.0,26.0
365,55.417187500000004,55.50625,62.0,58.0
366,55.417187500000004,55.517187500000006,58.0,82.0
367,55.417187500000004,55.526562500000004,55.0,69.0
368,55.229687500000004,55.8671875,50.0,55.0
369,55.792187500000004,55.876562500000006,58.0,89.0
370,55.792187500000004,55.8828125,62.0,70.0
371,55.792187500000004,55.8953125,55.0,70.0
372,56.167187500000004,56.40625,50.0,41.0
373,54.104687500000004,56.434375,43.0,66.0
374,56.354687500000004,56.4671875,55.0,69.0
375,56.354687500000004,56.4765625,58.0,93.0
376,56.354687500000004,56.478125000000006,62.0,76.0
377,56.729687500000004,56.771875,58.0,90.0
378,56.729687500000004,56.7875,62.0,61.0
379,56.729687500000004,56.840625,55.0,85.0
380,57.104687500000004,57.5359375,57.0,77.0
381,57.104687500000004,57.5390625,53.0,82.0
382,57.104687500000004,57.5703125,60.0,73.0
383,57.854687500000004,57.925000000000004,57.0,92.0
384,57.854687500000004,57.9296875,53.0,85.0
385,57.854687500000004,57.940625000000004,60.0,82.0
386,58.417187500000004,58.475,57.0,90.0
387,58.417187500000004,58.485937500000006,53.0,82.0
388,58.417187500000004,58.487500000000004,60.0,81.0
389,58.792187500000004,58.853125000000006,57.0,82.0
390,58.792187500000004,58.862500000000004,53.0,78.0
391,58.792187500000004,58.870312500000004,60.0,72.0
392,59.167187500000004,59.417187500000004,48.0,63.0
393,59.354687500000004,59.46875,53.0,85.0
394,59.354687500000004,59.478125000000006,57.0,96.0
395,59.354687500000004,59.496875,60.0,92.0
396,57.104687500000004,59.6140625,41.0,66.0
397,59.542187500000004,59.659375000000004,48.0,73.0
398,59.729687500000004,59.884375000000006,53.0,92.0
399,60.104687500000004,60.471875000000004,53.0,78.0
400,60.104687500000004,60.485937500000006,58.0,92.0
401,60.104687500000004,60.4890625,62.0,73.0
402,60.854687500000004,60.95,58.0,96.0
403,60.854687500000004,60.954687500000006,53.0,82.0
404,60.854687500000004,60.954687500000006,62.0,73.0
405,60.104687500000004,61.121875,46.0,100.0
406,61.417187500000004,61.4890625,62.0,68.0
407,61.417187500000004,61.4984375,53.0,63.0
408,61.417187500000004,61.503125000000004,58.0,83.0
409,61.792187500000004,61.885937500000004,53.0,58.0
410,61.792187500000004,61.8875,62.0,71.0
411,61.792187500000004,61.890625,58.0,81.0
412,62.167187500000004,62.3109375,46.0,90.0
413,62.354687500000004,62.510937500000004,58.0,95.0
414,62.354687500000004,62.5203125,62.0,73.0
415,62.542187500000004,62.615625,46.0,95.0
416,62.729687500000004,62.8515625,53.0,77.0
417,63.10455671041667,63.50093588125,54.0,93.0
418,63.10455671041667,63.50249642916667,57.0,82.0
419,63.10455671041667,63.51342026458333,50.0,83.0
420,63.47908821041667,63.920723270833335,45.0,58.0
421,63.10455671041667,63.94881313333333,38.0,72.0
422,63.853619710416666,63.9737819,54.0,97.0
423,63.853619710416666,63.98158463958333,57.0,82.0
424,64.60268271041667,64.96941147083334,55.0,76.0
425,64.60268271041667,64.98813804583334,62.0,79.0
426,64.60268271041667,65.00998571666666,58.0,95.0
427,64.97721421041666,65.36266954583333,50.0,39.0
428,65.35174571041667,65.52964817291667,62.0,86.0
429,65.35174571041667,65.53589036458334,58.0,100.0
430,64.60268271041667,65.57958570625,43.0,66.0
431,65.53901146041666,65.63264433541667,50.0,73.0
432,65.72627721041667,65.87608981041667,58.0,102.0
433,65.72627721041667,65.90574022083334,62.0,59.0
434,65.91354296041666,66.0243418625,55.0,66.0
435,66.10080871041667,66.45037144375,55.0,50.0
436,66.10080871041667,66.46129527916666,63.0,89.0
437,66.10080871041667,66.46909801875,60.0,83.0
438,66.84987171041666,66.97159444791667,60.0,96.0
439,66.84987171041666,66.98095773541667,63.0,97.0
440,66.10080871041667,67.026213625,48.0,76.0
441,67.41166896041666,67.50530183541667,63.0,75.0
442,67.41166896041666,67.51154402708333,60.0,82.0
443,67.97346621041666,68.04993305833334,55.0,51.0
444,67.97346621041666,68.05461470208333,58.0,82.0
445,67.97346621041666,68.09518894791667,63.0,76.0
446,68.34799771041666,68.66634948541666,51.0,78.0
447,67.59893471041667,68.6928788,39.0,82.0
448,68.34799771041666,68.78026948333333,63.0,100.0
449,68.34799771041666,68.80679879791667,58.0,107.0
450,68.72252921041667,68.92852153541666,55.0,68.0
451,69.09706071041667,69.57146727708333,55.0,85.0
452,69.09706071041667,69.59331494791667,60.0,92.0
453,69.09706071041667,69.59799659166667,63.0,93.0
454,69.09706071041667,69.83473475000001,48.0,85.0
455,69.84560432083333,69.99622551666667,60.0,102.0
456,69.84560432083333,70.00864788333334,63.0,117.0
457,70.03193982083333,70.12666036666667,60.0,88.0
458,70.21827532083334,70.27107037916667,63.0,58.0
459,70.77728182083334,70.93100860833334,57.0,81.0
460,70.77728182083334,70.93256140416668,53.0,73.0
461,70.59094632083334,70.9387725875,41.0,72.0
462,70.77728182083334,70.9480893625,60.0,82.0
463,71.14995282083333,71.3859777875,57.0,88.0
464,71.14995282083333,71.54746855416667,60.0,88.0
465,71.33628832083333,72.0288352625,41.0,73.0
466,71.70895932083333,72.03659924166666,57.0,93.0
467,71.70895932083333,72.0381520375,53.0,88.0
468,71.70895932083333,72.0474688125,60.0,96.0
469,72.08163032083334,72.68722069583333,60.0,92.0
470,72.08163032083334,72.68877349166667,53.0,90.0
471,72.08163032083334,72.70430145,57.0,97.0
472,72.08163032083334,72.8952953375,48.0,65.0
473,72.08163032083334,72.9046121125,41.0,58.0
474,72.82697232083333,73.11113395833334,60.0,99.0
475,72.82697232083333,73.12976750833333,57.0,100.0
476,73.01330782083333,73.328525375,41.0,47.0
477,73.01330782083333,73.42324592083334,48.0,67.0
478,73.19964332083333,73.45740742916666,53.0,77.0
479,73.57231432083334,73.98691080833333,58.0,122.0
480,73.57231432083334,74.13753200416667,62.0,97.0
481,73.57231432083334,74.17324630833333,53.0,102.0
482,73.57231432083334,74.5164141875,46.0,127.0
483,74.31765632083334,74.8890851875,62.0,97.0
484,74.31765632083334,74.90306035,58.0,127.0
485,74.31765632083334,74.90461314583334,53.0,99.0
486,74.87666282083333,75.1499548875,46.0,117.0
487,75.06299832083333,75.2710729625,53.0,100.0
488,75.06299832083333,75.27883694166667,62.0,96.0
489,75.06299832083333,75.285048125,58.0,122.0
490,75.43566932083334,75.60026567916667,53.0,93.0
491,75.43566932083334,75.60958245416667,58.0,102.0
492,75.43566932083334,75.6157936375,62.0,88.0
493,75.43566932083334,75.91548323333333,46.0,117.0
494,75.80834032083334,75.9651727,53.0,92.0
495,75.80834032083334,75.99157022916667,62.0,100.0
496,75.80834032083334,75.99467582083334,58.0,122.0
497,75.99467582083334,76.14840260833334,46.0,107.0
498,76.18101132083333,76.36268843333333,53.0,95.0
499,76.18101132083333,76.40771951250001,62.0,96.0
500,76.18101132083333,76.42945865416667,58.0,127.0
501,76.55368232083333,76.80989363333333,62.0,100.0
502,76.55368232083333,76.81921040833333,55.0,100.0
503,76.55368232083333,76.82386879583333,58.0,127.0
504,76.92635332083333,77.05057698750001,55.0,86.0
505,76.92635332083333,77.05212978333334,58.0,102.0
506,76.92635332083333,77.06144655833333,62.0,88.0
507,76.55368232083333,77.43567035416667,43.0,95.0
508,77.29902432083334,77.7539935,55.0,102.0
509,77.29902432083334,77.7866022125,58.0,122.0
510,77.29902432083334,77.81765812916667,62.0,100.0
511,77.85803082083333,78.07231664583334,43.0,86.0
512,78.04436632083333,78.23536020833333,55.0,92.0
513,78.04436632083333,78.24001859583333,58.0,112.0
514,78.04436632083333,78.2431241875,62.0,97.0
515,78.41703732083333,78.60337282083333,62.0,90.0
516,78.41703732083333,78.6157951875,58.0,102.0
517,78.23070182083333,78.6251119625,43.0,96.0
518,78.78970832083334,79.12200662916666,62.0,100.0
519,78.78970832083334,79.18256566666668,58.0,127.0
520,79.16237932083334,79.34871482083334,55.0,96.0
521,79.53505032083334,79.97449154166667,58.0,122.0
522,79.53505032083334,80.03970896666667,63.0,117.0
523,79.90772132083333,80.0645537,55.0,36.0
524,79.53505032083334,80.28505070833333,51.0,85.0
525,80.46672782083334,80.5816347125,51.0,97.0
526,79.53505032083334,80.58474030416667,39.0,95.0
527,80.28039232083333,80.61734901666667,58.0,122.0
528,80.28039232083333,80.64219375,63.0,127.0
529,80.65306332083334,80.707411175,55.0,96.0
530,81.02573432083334,81.07852937916667,50.0,100.0
531,81.02573432083334,81.0847405625,53.0,99.0
532,81.02573432083334,81.09095174583334,57.0,96.0
533,81.02573432083334,81.12511325416666,45.0,61.0
534,81.77107632083333,81.9884677375,57.0,112.0
535,81.77107632083333,82.07542430416667,50.0,83.0
536,81.77107632083333,82.13908893333334,65.0,102.0
537,81.58474082083333,82.14064172916667,45.0,37.0
538,81.77107632083333,82.14685291250001,62.0,112.0
539,81.02573432083334,82.16393366666667,38.0,85.0
540,82.14374732083334,82.23380947916667,57.0,90.0
541,82.51641832083334,83.06766084166667,55.0,99.0
542,82.51641832083334,83.08629439166667,60.0,112.0
543,82.51641832083334,83.0971639625,63.0,117.0
544,82.88908932083334,83.30523860416668,43.0,62.0
545,82.51641832083334,83.45741259583333,36.0,83.0
546,83.44809582083333,83.55834432500001,43.0,96.0
547,83.26176032083333,83.6049282,63.0,127.0
548,83.26176032083333,83.60648099583334,60.0,127.0
549,83.63443132083333,83.7772885375,55.0,82.0
550,83.82076682083334,84.05834458333334,57.0,43.0
551,84.00710232083334,84.08318931666668,53.0,40.0
552,83.82076682083334,84.08784770416666,60.0,57.0
553,84.37977332083334,84.52418333333334,65.0,99.0
554,84.37977332083334,84.53505290416666,53.0,99.0
555,84.56610882083334,84.80834497083333,48.0,93.0
556,84.75244432083333,84.9232518625,67.0,96.0
557,84.75244432083333,84.93101584166666,55.0,96.0
558,84.93877982083333,85.17325199166666,48.0,107.0
559,84.00710232083334,85.20896629583333,41.0,90.0
560,85.12511532083333,85.24468060000001,57.0,100.0
561,85.49830571041667,85.91185090833334,58.0,127.0
562,85.49830571041667,86.03669474166666,62.0,100.0
563,85.87283721041666,86.39406021458333,53.0,30.0
564,86.24736871041667,86.4518004875,58.0,127.0
565,86.24736871041667,86.45492158333333,65.0,93.0
566,86.24736871041667,86.45960322708333,62.0,102.0
567,86.62190021041667,86.67495883958334,58.0,26.0
568,86.80916596041666,86.94649417708334,58.0,122.0
569,86.80916596041666,86.95117582083333,62.0,99.0
570,86.80916596041666,86.95273636875,65.0,90.0
571,86.62190021041667,87.25548266458333,53.0,67.0
572,87.18369746041667,87.47551992083334,62.0,93.0
573,87.18369746041667,87.47864101666667,58.0,112.0
574,87.18369746041667,87.48644375625,65.0,90.0
575,87.55822896041667,87.77046347708334,53.0,74.0
576,87.74549471041666,87.93900265208333,65.0,92.0
577,87.74549471041666,87.94212374791667,58.0,127.0
578,85.87283721041666,88.03887771875,50.0,57.0
579,85.49830571041667,88.04043826666667,46.0,122.0
580,87.74549471041666,88.05136210208333,62.0,100.0
581,87.93276046041666,88.071649225,53.0,90.0
582,88.12002621041667,88.20585634583334,62.0,36.0
583,88.12002621041667,88.333821275,57.0,102.0
584,88.49455771041667,88.9237083875,58.0,112.0
585,88.49455771041667,88.93463222291666,55.0,100.0
586,88.49455771041667,89.00017523541666,62.0,97.0
587,88.86908921041666,89.39499385833334,50.0,74.0
588,89.24362071041666,89.57601741666667,55.0,102.0
589,89.24362071041666,89.60098618333333,58.0,127.0
590,89.24362071041666,89.60098618333333,62.0,93.0
591,89.80541796041666,89.95523056041667,55.0,93.0
592,89.61815221041667,89.9911231625,50.0,63.0
593,89.80541796041666,90.05354507916667,58.0,127.0
594,89.80541796041666,90.06134781875,62.0,97.0
595,90.17994946041667,90.44836370208333,55.0,92.0
596,90.17994946041667,90.53575438541667,58.0,112.0
597,90.17994946041667,90.54667822083333,62.0,90.0
598,90.55448096041667,90.73238342291667,50.0,86.0
599,88.49455771041667,90.7589127375,43.0,73.0
600,90.74174671041666,91.03200862291666,58.0,127.0
601,90.74174671041666,91.067901225,62.0,107.0
602,91.11627821041667,91.34099711041667,55.0,117.0
603,91.49080971041667,91.84193299166667,58.0,112.0
604,91.49080971041667,91.84349353958333,55.0,90.0
605,91.49080971041667,91.85129627916666,63.0,97.0
606,91.86534121041666,92.24455435416667,51.0,69.0
607,92.23987271041666,92.491120925,58.0,127.0
608,91.49080971041667,92.49736311666666,39.0,100.0
609,92.23987271041666,92.53169517083333,63.0,127.0
610,92.42713846041667,92.53481626666667,51.0,89.0
611,92.61440421041667,92.75953516666667,57.0,56.0
612,92.98893571041667,93.57414117916667,57.0,100.0
613,92.98893571041667,93.58818611041667,65.0,95.0
614,92.98893571041667,93.60223104166667,62.0,99.0
615,92.98893571041667,93.75048309375,50.0,88.0
616,92.98893571041667,94.11565130625,38.0,58.0
617,93.73799871041666,94.11565130625,65.0,100.0
618,93.73799871041666,94.12657514166666,62.0,112.0
619,92.98893571041667,94.14218062083333,45.0,68.0
620,93.92526446041667,94.18899705833333,50.0,99.0
621,94.11253021041666,94.22488966041666,57.0,99.0
622,94.48706171041667,94.67432746041666,36.0,77.0
623,94.48706171041667,94.76952088333333,60.0,102.0
624,94.48706171041667,94.7851263625,63.0,117.0
625,94.48706171041667,94.813216225,55.0,95.0
626,95.23612471041666,95.50922059583333,39.0,66.0
627,95.23612471041666,95.54667374583333,55.0,99.0
628,95.23612471041666,95.54667374583333,63.0,122.0
629,95.23612471041666,95.54979484166667,58.0,127.0
630,95.23612471041666,95.58880853958334,51.0,83.0
631,95.98518771041667,96.35659811458333,58.0,127.0
632,95.98518771041667,96.35659811458333,65.0,95.0
633,95.98518771041667,96.37532468958334,62.0,102.0
634,96.35971921041667,96.76546166874999,53.0,58.0
635,96.35971921041667,96.8637761875,50.0,58.0
636,96.73425071041666,96.94024303541667,58.0,117.0
637,96.73425071041666,96.94960632291667,65.0,86.0
638,96.73425071041666,96.96365125416666,62.0,99.0
639,96.92151646041667,97.03855755416666,50.0,46.0
640,96.92151646041667,97.04792084166667,53.0,95.0
641,95.98518771041667,97.06508686875,46.0,102.0
642,97.10878221041666,97.19773344166667,65.0,42.0
643,97.10878221041666,97.26171590625,62.0,68.0
644,97.10878221041666,97.3038507,58.0,122.0
645,97.48331371041667,97.8001049375,58.0,117.0
646,97.48331371041667,97.809468225,62.0,96.0
647,97.48331371041667,97.8188315125,65.0,89.0
648,97.48331371041667,97.83599753958333,53.0,95.0
649,97.85784521041667,97.92494877083334,53.0,67.0
650,97.85784521041667,97.93275151041667,65.0,72.0
651,97.85784521041667,97.94367534583333,62.0,89.0
652,97.85784521041667,97.959280825,58.0,112.0
653,98.23237671041667,98.39155259791667,62.0,97.0
654,98.23237671041667,98.41496081666666,65.0,89.0
655,98.23237671041667,98.41652136458333,53.0,97.0
656,98.23237671041667,98.42120300833334,58.0,127.0
657,97.48331371041667,98.47894328125,46.0,117.0
658,98.79417396041667,99.02825614791666,46.0,89.0
659,99.16870546041666,99.3356840875,46.0,72.0
660,99.54323696041666,99.7102155875,46.0,96.0
661,99.73050271041666,99.87719421458334,62.0,75.0
662,99.73050271041666,99.88655750208333,58.0,97.0
663,99.73050271041666,99.89436024166666,65.0,69.0
664,99.91776846041667,100.0472939375,46.0,100.0
665,100.10503421041666,100.25952845416667,62.0,96.0
666,100.10503421041666,100.27981557708333,58.0,117.0
667,100.10503421041666,100.29229996041667,65.0,85.0
668,100.47956571041667,100.64342324166667,55.0,107.0
669,100.47956571041667,100.64966543333333,62.0,99.0
670,100.47956571041667,100.67151310416666,58.0,127.0
671,100.47956571041667,100.69648187083334,43.0,72.0
672,100.85409721041667,101.64373445625,55.0,97.0
673,100.85409721041667,101.64373445625,62.0,97.0
674,100.85409721041667,101.65153719583333,58.0,127.0
675,101.79042596041667,101.8824982875,62.0,72.0
676,101.79042596041667,101.89342212291666,55.0,69.0
677,101.79042596041667,101.90746705416666,58.0,77.0
678,101.60316021041666,102.28980129375,50.0,58.0
679,102.16495746041667,102.34442047083333,58.0,102.0
680,102.16495746041667,102.50827800208333,62.0,88.0
681,102.53948896041666,102.6971043,50.0,81.0
682,100.85409721041667,102.69866484791666,43.0,81.0
683,102.72675471041667,102.92650484375,62.0,96.0
684,102.72675471041667,102.93430758333334,58.0,117.0
685,103.10128621041667,103.18399525,62.0,82.0
686,103.10128621041667,103.19491908541667,58.0,112.0
687,103.47581771041666,103.6053431875,55.0,89.0
688,103.47581771041666,103.61470647499999,39.0,92.0
689,103.47581771041666,103.63343305000001,51.0,82.0
690,103.47581771041666,103.65059907708333,58.0,122.0
691,103.47581771041666,103.65996236458334,63.0,112.0
692,103.85034921041667,104.11252126041667,58.0,96.0
693,103.85034921041667,104.11876345208333,63.0,92.0
694,103.85034921041667,104.52450591041666,51.0,95.0
695,104.22488071041667,104.65091029166666,58.0,102.0
696,104.22488071041667,104.68368179791666,63.0,97.0
697,104.78667796041667,104.88967412291666,55.0,78.0
698,104.78667796041667,104.93180891666667,58.0,81.0
699,104.78667796041667,104.98330699791667,63.0,69.0
700,104.59941221041666,105.37968616875,51.0,66.0
701,105.16120946041667,105.52637767291667,58.0,85.0
702,105.16120946041667,105.54042260416666,63.0,85.0
703,105.53574096041666,105.86969821458334,51.0,76.0
704,103.85034921041667,105.9087119125,39.0,100.0
705,105.72300671041667,106.06320615625,58.0,127.0
706,105.72300671041667,106.09441711458334,63.0,127.0
707,106.09753821041667,106.28168286458333,55.0,100.0
708,106.28480396041667,106.33474149375,57.0,38.0
709,106.28480396041667,106.348786425,60.0,58.0
710,106.47206971041666,106.648411625,53.0,100.0
711,106.47206971041666,106.65465381666667,57.0,97.0
712,106.47206971041666,106.67181984375,60.0,95.0
713,106.84660121041667,107.64404119583332,53.0,99.0
714,106.84660121041667,107.67837324999999,57.0,100.0
715,106.84660121041667,107.6877365375,60.0,100.0
716,107.78292996041667,107.98892228541666,53.0,72.0
717,107.78292996041667,108.02325433958333,57.0,75.0
718,107.78292996041667,108.04042036666667,60.0,72.0
719,107.59566421041666,108.32912173125,48.0,58.0
720,108.15746146041667,108.51794802916666,57.0,100.0
721,108.15746146041667,108.5397957,60.0,95.0
722,108.53199296041666,108.74890912083333,48.0,96.0
723,108.71925871041667,108.93617487083333,57.0,102.0
724,108.71925871041667,108.94553815833333,60.0,97.0
725,106.47206971041666,108.96582528125,41.0,81.0
726,108.90652446041666,109.01420226666667,48.0,86.0
727,109.09379021041667,109.2139524,60.0,99.0
728,109.09379021041667,109.21863404375,57.0,107.0
729,109.28105596041667,109.40121815,53.0,79.0
730,109.46832171041666,109.63998198125,53.0,74.0
731,109.46832171041666,109.64310307708334,58.0,122.0
732,109.46832171041666,109.64310307708334,62.0,107.0
733,109.46832171041666,109.67587458333333,46.0,107.0
734,109.84285321041666,110.68867018125,62.0,95.0
735,109.84285321041666,110.69023072916667,53.0,96.0
736,109.84285321041666,110.7120784,58.0,122.0
737,110.77918196041666,110.86969373958334,53.0,78.0
738,110.77918196041666,110.89622305416667,58.0,92.0
739,110.77918196041666,110.92275236875,62.0,83.0
740,109.84285321041666,111.32693427916666,46.0,107.0
741,111.15371346041667,111.50015509791666,58.0,99.0
742,111.15371346041667,111.50171564583333,62.0,85.0
743,111.52824496041666,111.70770797083333,46.0,100.0
744,111.71551071041667,111.76232714791666,53.0,50.0
745,111.71551071041667,111.90433700833333,58.0,117.0
746,111.71551071041667,111.91682139166667,62.0,96.0
747,112.09004221041667,112.3132005625,62.0,95.0
748,112.09004221041667,112.32568494583333,58.0,122.0
749,112.46457371041666,112.59253863958332,55.0,92.0
750,112.46457371041666,112.59565973541666,58.0,112.0
751,112.46457371041666,112.63623398125,62.0,86.0
752,112.83910521041666,113.37281259791666,55.0,100.0
753,112.83910521041666,113.59128930624999,58.0,127.0
754,112.83910521041666,113.60065259375,62.0,99.0
755,113.77543396041666,113.83317423333332,55.0,72.0
756,113.77543396041666,113.88467231458333,62.0,86.0
757,113.77543396041666,113.8862328625,58.0,102.0
758,113.21363671041667,114.20770573333333,50.0,63.0
759,114.14996546041667,114.4854832625,58.0,112.0
760,114.14996546041667,114.4854832625,62.0,88.0
761,114.52449696041667,114.67274901249999,50.0,92.0
762,112.46457371041666,114.67587010833333,43.0,73.0
763,114.71176271041666,114.98017695208333,62.0,96.0
764,114.71176271041666,115.09565749791666,58.0,122.0
765,115.08629421041667,115.29540763125,55.0,95.0
766,115.46082571041667,115.61844105,58.0,107.0
767,115.46082571041667,115.6278043375,55.0,86.0
768,115.46082571041667,115.64028872083333,63.0,112.0
769,115.83535721041667,116.07568158958333,58.0,99.0
770,115.83535721041667,116.07568158958333,63.0,102.0
771,115.46082571041667,116.29259775,51.0,89.0
772,116.20988871041666,116.59222295000001,58.0,102.0
773,116.20988871041666,116.61875226458334,63.0,99.0
774,116.77168596041666,116.82942623333334,55.0,70.0
775,116.77168596041666,116.95895171041667,58.0,112.0
776,116.77168596041666,116.99640486041666,63.0,97.0
777,116.58442021041667,117.2944695125,51.0,72.0
778,117.14621746041666,117.51762786458333,58.0,107.0
779,117.14621746041666,117.53479389166667,63.0,100.0
780,115.46082571041667,117.73610457291667,39.0,92.0
781,117.52074896041667,117.81101087291667,51.0,65.0
782,117.70801471041666,118.0622590875,58.0,122.0
783,117.70801471041666,118.07006182708332,63.0,127.0
784,118.08254621041667,118.22923771458333,55.0,97.0
785,118.45707771041666,118.5866031875,53.0,92.0
786,118.45707771041666,118.5866031875,57.0,90.0
787,118.45707771041666,118.60376921458334,60.0,85.0
788,118.83160921041667,119.2420333125,53.0,97.0
789,118.83160921041667,119.24515440833333,57.0,97.0
790,118.83160921041667,119.25763879166666,60.0,96.0
791,119.20614071041666,119.46363111666668,48.0,65.0
792,119.39340646041666,119.49952371875,53.0,89.0
793,119.39340646041666,119.51044755416666,57.0,95.0
794,119.39340646041666,119.54477960833333,60.0,92.0
795,119.76793796041667,119.869373575,60.0,59.0
796,119.76793796041667,119.88185795833334,53.0,48.0
797,119.76793796041667,119.88497905416666,57.0,67.0
798,119.76793796041667,119.95052206666666,48.0,42.0
799,119.95520371041667,121.28479053541668,57.0,99.0
800,119.95520371041667,121.29103272708333,53.0,88.0
801,119.95520371041667,121.31444094583333,48.0,81.0
802,119.95520371041667,121.31444094583333,60.0,97.0
803,118.45707771041666,121.40183162916667,41.0,81.0
804,121.45332971041667,121.98391600208333,62.0,82.0
805,121.45332971041667,121.98703709791667,58.0,77.0
806,122.20239271041666,122.28978339375,58.0,92.0
807,122.20239271041666,122.29134394166667,53.0,81.0
808,122.20239271041666,122.2944650375,62.0,82.0
809,121.45332971041667,122.33191818750001,46.0,59.0
810,122.76418996041667,122.83441461666666,53.0,67.0
811,122.76418996041667,122.83597516458333,62.0,69.0
812,122.76418996041667,122.84065680833334,58.0,90.0
813,123.13872146041666,123.22455159583333,58.0,88.0
814,123.13872146041666,123.22767269166667,53.0,69.0
815,123.13872146041666,123.24327817083334,62.0,73.0
816,123.51325296041666,123.71300309374999,46.0,86.0
817,123.70051871041667,123.97517514375,53.0,72.0
818,123.70051871041667,123.98453843125,58.0,96.0
819,123.70051871041667,124.11562445625,62.0,79.0
820,124.07505021041666,124.22486281041667,58.0,72.0
821,124.44958171041667,124.66805841875001,55.0,73.0
822,124.44958171041667,124.90682225,63.0,72.0
823,124.44958171041667,124.90838279791666,60.0,73.0
824,124.82411321041667,125.01293950833333,55.0,55.0
825,125.19864471041666,125.28291429791668,60.0,85.0
826,125.19864471041666,125.29383813333334,63.0,83.0
827,125.19864471041666,125.29695922916667,55.0,78.0
828,124.44958171041667,125.57473675833333,36.0,63.0
829,124.44958171041667,125.63559812708334,48.0,74.0
830,125.94770771041667,126.32692085416667,57.0,64.0
831,125.94770771041667,126.386221675,60.0,68.0
832,125.94770771041667,126.40338770208334,53.0,64.0
833,126.32223921041667,126.76231372291667,48.0,48.0
834,126.69677071041667,126.90588413124999,60.0,93.0
835,126.69677071041667,126.90744467916667,57.0,95.0
836,125.94770771041667,126.92617125416666,41.0,53.0
837,126.88403646041667,127.06349947083334,48.0,76.0
838,127.07130221041666,127.20706987916667,53.0,76.0
839,127.44583371041666,127.88122657916666,62.0,74.0
840,127.44583371041666,127.88902931875,58.0,90.0
841,127.44583371041666,127.90307425,55.0,81.0
842,128.19489671041666,128.28852958541665,58.0,92.0
843,128.19489671041666,128.29321122916667,55.0,76.0
844,128.19489671041666,128.29477177708333,62.0,70.0
845,127.82036521041667,128.32286163958332,50.0,26.0
846,128.75669396041667,128.84564519166668,62.0,58.0
847,128.75669396041667,128.85656902708334,58.0,82.0
848,128.75669396041667,128.86593231458335,55.0,69.0
849,128.56942821041667,129.20613176041667,50.0,55.0
850,129.13122546041666,129.21549504791668,58.0,89.0
851,129.13122546041666,129.22173723958332,62.0,70.0
852,129.13122546041666,129.23422162291666,55.0,70.0
853,129.50575696041668,129.74452079166667,50.0,41.0
854,127.44583371041666,129.77261065416667,43.0,66.0
855,129.69302271041667,129.80538216041666,55.0,69.0
856,129.69302271041667,129.81474544791666,58.0,93.0
857,129.69302271041667,129.81630599583332,62.0,76.0
858,130.06755421041666,130.10968900416668,58.0,90.0
859,130.06755421041666,130.12529448333333,62.0,61.0
860,130.06755421041666,130.1783531125,55.0,85.0
861,130.44208571041668,130.87279693541666,57.0,77.0
862,130.44208571041668,130.87591803125,53.0,82.0
863,130.44208571041668,130.90712898958333,60.0,73.0
864,131.19114871041666,131.26137336666667,57.0,92.0
865,131.19114871041666,131.26605501041666,53.0,85.0
866,131.19114871041666,131.27697884583333,60.0,82.0
867,131.75294596041667,131.81068623333334,57.0,90.0
868,131.75294596041667,131.82161006875,53.0,82.0
869,131.75294596041667,131.82317061666666,60.0,81.0
870,132.12747746041666,132.18833882916667,57.0,82.0
871,132.12747746041666,132.19770211666668,53.0,78.0
872,132.12747746041666,132.20550485625,60.0,72.0
873,132.50200896041667,132.75169662708333,48.0,63.0
874,132.68927471041667,132.80319470833334,53.0,85.0
875,132.68927471041667,132.81255799583334,57.0,96.0
876,132.68927471041667,132.83128457083333,60.0,92.0
877,130.44208571041668,132.94832566458334,41.0,66.0
878,132.87654046041666,132.99358155416667,48.0,73.0
879,133.06380621041666,133.21830045416667,53.0,92.0
880,133.43833771041668,133.80506647083334,53.0,78.0
881,133.43833771041668,133.81911140208334,58.0,92.0
882,133.43833771041668,133.82223249791667,62.0,73.0
883,134.18740071041668,134.28259413333333,58.0,96.0
884,134.18740071041668,134.28727577708332,53.0,82.0
885,134.18740071041668,134.28727577708332,62.0,73.0
886,133.43833771041668,134.45425440416668,46.0,100.0
887,134.74919796041667,134.82098316458334,62.0,68.0
888,134.74919796041667,134.83034645208335,53.0,63.0
889,134.74919796041667,134.83502809583334,58.0,83.0
890,135.12372946041666,135.21736233541668,53.0,58.0
891,135.12372946041666,135.21892288333333,62.0,71.0
892,135.12372946041666,135.22204397916667,58.0,81.0
893,135.49826096041667,135.64183136875,46.0,90.0
894,135.68552671041667,135.84158150208333,58.0,95.0
895,135.68552671041667,135.85094478958334,62.0,73.0
896,135.87279246041666,135.9461382125,46.0,95.0
897,136.06005821041666,136.18178094791665,53.0,77.0
898,136.43458971041667,136.83096888125,54.0,93.0
899,136.43458971041667,136.83252942916667,57.0,82.0
900,136.43458971041667,136.84345326458333,50.0,83.0
901,136.80912121041666,137.25075627083334,45.0,58.0
902,136.43458971041667,137.27884613333333,38.0,72.0
903,137.18365271041665,137.3038149,54.0,97.0
904,137.18365271041665,137.31161763958335,57.0,82.0
905,137.93271571041666,138.29944447083332,55.0,76.0
906,137.93271571041666,138.31817104583334,62.0,79.0
907,137.93271571041666,138.34001871666666,58.0,95.0
908,138.30724721041668,138.69270254583333,50.0,39.0
909,138.68177871041667,138.85968117291668,62.0,86.0
910,138.68177871041667,138.86592336458332,58.0,100.0
911,137.93271571041666,138.90961870625,43.0,66.0
912,138.86904446041666,138.96267733541666,50.0,73.0
913,139.05631021041665,139.20612281041667,58.0,102.0
914,139.05631021041665,139.23577322083332,62.0,59.0
915,139.24357596041665,139.3543748625,55.0,66.0
916,139.43084171041667,139.78040444375,55.0,50.0
917,139.43084171041667,139.79132827916666,63.0,89.0
918,139.43084171041667,139.79913101875,60.0,83.0
919,140.17990471041668,140.30162744791667,60.0,96.0
920,140.17990471041668,140.31099073541668,63.0,97.0
921,139.43084171041667,140.35624662499998,48.0,76.0
922,140.74170196041666,140.83533483541666,63.0,75.0
923,140.74170196041666,140.84157702708333,60.0,82.0
924,141.30349921041667,141.37996605833334,55.0,51.0
925,141.30349921041667,141.38464770208333,58.0,82.0
926,141.30349921041667,141.42522194791667,63.0,76.0
927,141.67803071041666,141.99638248541666,51.0,78.0
928,140.92896771041666,142.0229118,39.0,82.0
929,141.67803071041666,142.11030248333333,63.0,100.0
930,141.67803071041666,142.13683179791667,58.0,107.0
931,142.05256221041668,142.25855453541666,55.0,68.0
932,142.42709371041667,142.90150027708333,55.0,85.0
933,142.42709371041667,142.92334794791668,60.0,92.0
934,142.42709371041667,142.92802959166667,63.0,93.0
935,142.42709371041667,143.16523287500002,48.0,85.0
936,143.17615671041665,143.32752985833332,60.0,102.0
937,143.17615671041665,143.34001424166667,63.0,117.0
938,143.36342246041667,143.45861588333332,60.0,88.0
939,143.55068821041667,143.60374683958332,63.0,58.0
940,144.11248546041668,144.26697970416666,57.0,81.0
941,144.11248546041668,144.26854025208334,53.0,73.0
942,143.92521971041666,144.27478244374998,41.0,72.0
943,144.11248546041668,144.28414573125,60.0,82.0
944,144.48701696041667,144.72422024374998,57.0,88.0
945,144.48701696041667,144.88651722708335,60.0,88.0
946,144.67428271041666,145.37028708125,41.0,73.0
947,145.04881421041665,145.37808982083334,57.0,93.0
948,145.04881421041665,145.37965036875,53.0,88.0
949,145.04881421041665,145.38901365625,60.0,96.0
950,145.42334571041667,145.95393200208332,62.0,82.0
951,145.42334571041667,145.95705309791666,58.0,77.0
952,146.17240871041668,146.25979939375,58.0,92.0
953,146.17240871041668,146.26135994166665,53.0,81.0
954,146.17240871041668,146.2644810375,62.0,82.0
955,145.42334571041667,146.3019341875,46.0,59.0
956,146.73420596041666,146.80443061666665,53.0,67.0
957,146.73420596041666,146.80599116458333,62.0,69.0
958,146.73420596041666,146.81067280833332,58.0,90.0
959,147.10873746041665,147.19456759583335,58.0,88.0
960,147.10873746041665,147.19768869166666,53.0,69.0
961,147.10873746041665,147.21329417083334,62.0,73.0
962,147.48326896041667,147.68301909375,46.0,86.0
963,147.67053471041666,147.94519114375,53.0,72.0
964,147.67053471041666,147.95455443125,58.0,96.0
965,147.67053471041666,148.08564045625,62.0,79.0
966,148.04506621041668,148.19487881041667,58.0,72.0
967,148.41959771041667,148.63807441875,55.0,73.0
968,148.41959771041667,148.87683825,63.0,72.0
969,148.41959771041667,148.87839879791667,60.0,73.0
970,148.79412921041666,148.98295550833333,55.0,55.0
971,149.16866071041667,149.25293029791666,60.0,85.0
972,149.16866071041667,149.26385413333333,63.0,83.0
973,149.16866071041667,149.26697522916666,55.0,78.0
974,148.41959771041667,149.54475275833335,36.0,63.0
975,148.41959771041667,149.60561412708333,48.0,74.0
976,149.91772371041668,150.29693685416666,57.0,64.0
977,149.91772371041668,150.356237675,60.0,68.0
978,149.91772371041668,150.37340370208335,53.0,64.0
979,150.29225521041667,150.73232972291666,48.0,48.0
980,150.66678671041666,150.87590013124998,60.0,93.0
981,150.66678671041666,150.87746067916666,57.0,95.0
982,149.91772371041668,150.89618725416665,41.0,53.0
983,150.85405246041665,151.03351547083332,48.0,76.0
984,151.04131821041665,151.17708587916667,53.0,76.0
985,151.41584971041667,151.85124257916667,62.0,74.0
986,151.41584971041667,151.85904531875,58.0,90.0
987,151.41584971041667,151.87309025000002,55.0,81.0
988,152.16491271041667,152.25854558541667,58.0,92.0
989,152.16491271041667,152.26322722916666,55.0,76.0
990,152.16491271041667,152.2647877770833,62.0,70.0
991,151.79038121041668,152.29287763958334,50.0,26.0
992,152.72670996041666,152.81566119166666,62.0,58.0
993,152.72670996041666,152.82658502708333,58.0,82.0
994,152.72670996041666,152.83594831458333,55.0,69.0
995,152.53944421041666,153.17614776041665,50.0,55.0
996,153.10124146041665,153.18551104791666,58.0,89.0
997,153.10124146041665,153.19175323958333,62.0,70.0
998,153.10124146041665,153.20423762291665,55.0,70.0
999,153.47577296041666,153.71453679166666,50.0,41.0
1000,151.41584971041667,153.74262665416666,43.0,66.0
1001,153.66303871041669,153.77539816041667,55.0,69.0
1002,153.66303871041669,153.78476144791665,58.0,93.0
1003,153.66303871041669,153.78632199583333,62.0,76.0
1004,154.03757021041667,154.07970500416667,58.0,90.0
1005,154.03757021041667,154.09531048333332,62.0,61.0
1006,154.03757021041667,154.1483691125,55.0,85.0
1007,154.41210171041666,154.84281293541665,57.0,77.0
1008,154.41210171041666,154.84593403125,53.0,82.0
1009,154.41210171041666,154.87714498958331,60.0,73.0
1010,155.16116471041667,155.23138936666666,57.0,92.0
1011,155.16116471041667,155.23607101041665,53.0,85.0
1012,155.16116471041667,155.24699484583334,60.0,82.0
1013,155.72296196041668,155.78070223333333,57.0,90.0
1014,155.72296196041668,155.79162606875,53.0,82.0
1015,155.72296196041668,155.79318661666667,60.0,81.0
1016,156.09749346041667,156.15835482916668,57.0,82.0
1017,156.09749346041667,156.16771811666666,53.0,78.0
1018,156.09749346041667,156.17552085625,60.0,72.0
1019,156.47202496041666,156.72171262708332,48.0,63.0
1020,156.65929071041666,156.77321070833335,53.0,85.0
1021,156.65929071041666,156.78257399583333,57.0,96.0
1022,156.65929071041666,156.80130057083335,60.0,92.0
1023,154.41210171041666,156.91834166458335,41.0,66.0
1024,156.84655646041665,156.96359755416665,48.0,73.0
1025,157.03382221041664,157.18831645416668,53.0,92.0
1026,157.40835371041666,157.77508247083333,53.0,78.0
1027,157.40835371041666,157.78912740208335,58.0,92.0
1028,157.40835371041666,157.79224849791666,62.0,73.0
1029,158.15741671041667,158.25261013333335,58.0,96.0
1030,158.15741671041667,158.25729177708334,53.0,82.0
1031,158.15741671041667,158.25729177708334,62.0,73.0
1032,157.40835371041666,158.42427040416666,46.0,100.0
1033,158.71921396041665,158.79099916458333,62.0,68.0
1034,158.71921396041665,158.80036245208333,53.0,63.0
1035,158.71921396041665,158.80504409583335,58.0,83.0
1036,159.09374546041667,159.18737833541667,53.0,58.0
1037,159.09374546041667,159.18893888333332,62.0,71.0
1038,159.09374546041667,159.1920599791667,58.0,81.0
1039,159.46827696041666,159.61184736874998,46.0,90.0
1040,159.65554271041668,159.81159750208332,58.0,95.0
1041,159.65554271041668,159.82096078958335,62.0,73.0
1042,159.84280846041668,159.9161542125,46.0,95.0
1043,160.03007421041667,160.15179694791667,53.0,77.0
1044,160.40460571041666,160.80098488125,54.0,93.0
1045,160.40460571041666,160.80254542916668,57.0,82.0
1046,160.40460571041666,160.81346926458332,50.0,83.0
1047,160.77913721041665,161.22077227083332,45.0,58.0
1048,160.40460571041666,161.24886213333332,38.0,72.0
1049,161.15366871041667,161.2738309,54.0,97.0
1050,161.15366871041667,161.28163363958333,57.0,82.0
1051,161.90273171041667,162.26946047083334,55.0,76.0
1052,161.90273171041667,162.28818704583333,62.0,79.0
1053,161.90273171041667,162.31003471666668,58.0,95.0
1054,162.27726321041666,162.66271854583334,50.0,39.0
1055,162.65179471041665,162.82969717291667,62.0,86.0
1056,162.65179471041665,162.83593936458334,58.0,100.0
1057,161.90273171041667,162.87963470625,43.0,66.0
1058,162.83906046041665,162.93269333541667,50.0,73.0
1059,163.02632621041667,163.17613881041666,58.0,102.0
1060,163.02632621041667,163.20578922083334,62.0,59.0
1061,163.21359196041666,163.3243908625,55.0,66.0
1062,163.40085771041666,163.75042044375,55.0,50.0
1063,163.40085771041666,163.76134427916668,63.0,89.0
1064,163.40085771041666,163.76914701875,60.0,83.0
1065,164.14992071041667,164.27164344791666,60.0,96.0
1066,164.14992071041667,164.28100673541667,63.0,97.0
1067,163.40085771041666,164.326262625,48.0,76.0
1068,164.71171796041665,164.80535083541668,63.0,75.0
1069,164.71171796041665,164.81159302708335,60.0,82.0
1070,165.27351521041666,165.34998205833332,55.0,51.0
1071,165.27351521041666,165.35466370208331,58.0,82.0
1072,165.27351521041666,165.39523794791666,63.0,76.0
1073,165.64804671041668,165.96639848541668,51.0,78.0
1074,164.89898371041664,165.99292780000002,39.0,82.0
1075,165.64804671041668,166.08031848333331,63.0,100.0
1076,165.64804671041668,166.10684779791666,58.0,107.0
1077,166.02257821041667,166.22857053541668,55.0,68.0
1078,166.39710971041666,166.87151627708334,55.0,85.0
1079,166.39710971041666,166.89336394791667,60.0,92.0
1080,166.39710971041666,166.89804559166666,63.0,93.0
1081,166.39710971041666,167.135248875,48.0,85.0
1082,167.14617271041666,167.29754585833334,60.0,102.0
1083,167.14617271041666,167.31003024166665,63.0,117.0
1084,167.33343846041666,167.42863188333334,60.0,88.0
1085,167.52070421041668,167.57376283958334,63.0,58.0
1086,168.08250146041667,168.23699570416665,57.0,81.0
1087,168.08250146041667,168.23855625208333,53.0,73.0
1088,167.89523571041667,168.24479844375,41.0,72.0
1089,168.08250146041667,168.25416173125,60.0,82.0
1090,168.45703296041665,168.69423624375,57.0,88.0
1091,168.45703296041665,168.85653322708333,60.0,88.0
1092,168.64429871041665,169.34030308125,41.0,73.0
1093,169.01883021041667,169.34810582083333,57.0,93.0
1094,169.01883021041667,169.34966636874998,53.0,88.0
1095,169.01883021041667,169.35902965625002,60.0,96.0
1096,169.39336171041668,170.00197539791668,60.0,92.0
1097,169.39336171041668,170.00353594583333,53.0,90.0
1098,169.39336171041668,170.019141425,57.0,97.0
1099,169.39336171041668,170.21108881875,48.0,65.0
1100,169.39336171041668,170.22045210624998,41.0,58.0
1101,170.14242471041666,170.42800497916664,60.0,99.0
1102,170.14242471041666,170.44673155416666,57.0,100.0
1103,170.32969046041666,170.6464816875,41.0,47.0
1104,170.32969046041666,170.74167511041668,48.0,67.0
1105,170.51695621041665,170.77600716458335,53.0,77.0
1106,170.89148771041667,171.30815400416668,58.0,122.0
1107,170.89148771041667,171.45952715208333,62.0,97.0
1108,170.89148771041667,171.49541975416668,53.0,102.0
1109,170.89148771041667,171.84030084375001,46.0,127.0
1110,171.64055071041668,172.21483234375,62.0,97.0
1111,171.64055071041668,172.228877275,58.0,127.0
1112,171.64055071041668,172.23043782291666,53.0,99.0
1113,172.20234796041666,172.47700439375,46.0,117.0
1114,172.38961371041665,172.59872713125,53.0,100.0
1115,172.38961371041665,172.60652987083333,62.0,96.0
1116,172.38961371041665,172.6127720625,58.0,122.0
1117,172.76414521041667,172.9295632895833,53.0,93.0
1118,172.76414521041667,172.93892657708335,58.0,102.0
1119,172.76414521041667,172.94516876875,62.0,88.0
1120,172.76414521041667,173.24635451666666,46.0,117.0
1121,173.13867671041666,173.29629204999998,53.0,92.0
1122,173.13867671041666,173.32282136458332,62.0,100.0
1123,173.13867671041666,173.32594246041668,58.0,122.0
1124,173.32594246041668,173.48043670416666,46.0,107.0
1125,173.51320821041668,173.69579231666665,53.0,95.0
1126,173.51320821041668,173.74104820625,62.0,96.0
1127,173.51320821041668,173.76289587708334,58.0,127.0
1128,173.88773971041667,174.14523011666665,62.0,100.0
1129,173.88773971041667,174.15459340416666,55.0,100.0
1130,173.88773971041667,174.15927504791665,58.0,127.0
1131,174.26227121041666,174.38711504375,55.0,86.0
1132,174.26227121041666,174.38867559166667,58.0,102.0
1133,174.26227121041666,174.39803887916668,62.0,88.0
1134,173.88773971041667,174.77413092708332,43.0,95.0
1135,174.63680271041665,175.09404325,55.0,102.0
1136,174.63680271041665,175.12681475624998,58.0,122.0
1137,174.63680271041665,175.15802571458335,62.0,100.0
1138,175.19859996041666,175.41395557291668,43.0,86.0
1139,175.38586571041668,175.57781310416667,55.0,92.0
1140,175.38586571041668,175.58249474791666,58.0,112.0
1141,175.38586571041668,175.58561584375,62.0,97.0
1142,175.76039721041667,175.94766296041666,62.0,90.0
1143,175.76039721041667,175.96014734375,58.0,102.0
1144,175.57313146041668,175.96951063125,43.0,96.0
1145,176.13492871041666,176.46888596458334,62.0,100.0
1146,176.13492871041666,176.52974733333332,58.0,127.0
1147,176.50946021041665,176.69672596041667,55.0,96.0
1148,176.88399171041667,177.32562677083334,58.0,122.0
1149,176.88399171041667,177.39116978333334,63.0,117.0
1150,177.25852321041668,177.41613855,55.0,36.0
1151,176.88399171041667,177.63773635416666,51.0,85.0
1152,177.82032046041667,177.93580100625002,51.0,97.0
1153,176.88399171041667,177.93892210208332,39.0,95.0
1154,177.63305471041667,177.97169360833334,58.0,122.0
1155,177.63305471041667,177.996662375,63.0,127.0
1156,178.00758621041666,178.0622053875,55.0,96.0
1157,178.38211771041665,178.43517633958334,50.0,100.0
1158,178.38211771041665,178.44141853125,53.0,99.0
1159,178.38211771041665,178.44766072291668,57.0,96.0
1160,178.38211771041665,178.48199277708335,45.0,61.0
1161,179.13118071041666,179.34965741874998,57.0,112.0
1162,179.13118071041666,179.43704810208334,50.0,83.0
1163,179.13118071041666,179.50103056666666,65.0,102.0
1164,178.94391496041666,179.5025911145833,45.0,37.0
1165,179.13118071041666,179.50883330624998,62.0,112.0
1166,178.38211771041665,179.52599933333335,38.0,85.0
1167,179.50571221041668,179.59622398958334,57.0,90.0
1168,179.88024371041666,180.43423822083332,55.0,99.0
1169,179.88024371041666,180.45296479583334,60.0,112.0
1170,179.88024371041666,180.46388863125,63.0,117.0
1171,180.25477521041665,180.67300205208335,43.0,62.0
1172,179.88024371041666,180.82593574791667,36.0,83.0
1173,180.81657246041667,180.9273713625,43.0,96.0
1174,180.62930671041667,180.97418779999998,63.0,127.0
1175,180.62930671041667,180.97574834791666,60.0,127.0
1176,181.00383821041666,181.14740861874998,55.0,82.0
1177,181.19110396041668,181.42986779166665,57.0,43.0
1178,181.37836971041668,181.45483655833334,53.0,40.0
1179,181.19110396041668,181.45951820208333,60.0,57.0
1180,181.75290121041667,181.89803216666667,65.0,99.0
1181,181.75290121041667,181.90895600208333,53.0,99.0
1182,181.94016696041666,182.18361243541665,48.0,93.0
1183,182.12743271041666,182.29909298125,67.0,96.0
1184,182.12743271041666,182.30689572083332,55.0,96.0
1185,182.31469846041665,182.5503411958333,48.0,107.0
1186,181.37836971041668,182.58623379791666,41.0,90.0
1187,182.50196421041665,182.6221264,57.0,100.0
1188,182.87649571041666,183.2900409083333,58.0,127.0
1189,182.87649571041666,183.41488474166667,62.0,100.0
1190,183.25102721041668,183.77225021458332,53.0,30.0
1191,183.62555871041667,183.8299904875,58.0,127.0
1192,183.62555871041667,183.83311158333333,65.0,93.0
1193,183.62555871041667,183.83779322708332,62.0,102.0
1194,184.00009021041666,184.05314883958334,58.0,26.0
1195,184.18735596041665,184.32468417708333,58.0,122.0
1196,184.18735596041665,184.32936582083335,62.0,99.0
1197,184.18735596041665,184.33092636875,65.0,90.0
1198,184.00009021041666,184.63367266458334,53.0,67.0
1199,184.56188746041667,184.85370992083332,62.0,93.0
1200,184.56188746041667,184.85683101666666,58.0,112.0
1201,184.56188746041667,184.86463375625,65.0,90.0
1202,184.93641896041666,185.14865347708331,53.0,74.0
1203,185.12368471041668,185.31719265208335,65.0,92.0
1204,185.12368471041668,185.32031374791666,58.0,127.0
1205,183.25102721041668,185.41706771875,50.0,57.0
1206,182.87649571041666,185.41862826666664,46.0,122.0
1207,185.12368471041668,185.42955210208333,62.0,100.0
1208,185.31095046041668,185.449839225,53.0,90.0
1209,185.49821621041667,185.58404634583331,62.0,36.0
1210,185.49821621041667,185.712011275,57.0,102.0
1211,185.87274771041666,186.3018983875,58.0,112.0
1212,185.87274771041666,186.31282222291668,55.0,100.0
1213,185.87274771041666,186.37836523541665,62.0,97.0
1214,186.24727921041665,186.7731838583333,50.0,74.0
1215,186.62181071041667,186.95420741666666,55.0,102.0
1216,186.62181071041667,186.97917618333332,58.0,127.0
1217,186.62181071041667,186.97917618333332,62.0,93.0
1218,187.18360796041668,187.33342056041667,55.0,93.0
1219,186.99634221041669,187.3693131625,50.0,63.0
1220,187.18360796041668,187.43173507916669,58.0,127.0
1221,187.18360796041668,187.43953781875,62.0,97.0
1222,187.55813946041667,187.82655370208334,55.0,92.0
1223,187.55813946041667,187.91394438541667,58.0,112.0
1224,187.55813946041667,187.92486822083333,62.0,90.0
1225,187.93267096041666,188.11057342291667,50.0,86.0
1226,185.87274771041666,188.13710273750002,43.0,73.0
1227,188.11993671041665,188.41019862291665,58.0,127.0
1228,188.11993671041665,188.446091225,62.0,107.0
1229,188.49446821041667,188.71918711041667,55.0,117.0
1230,188.86899971041666,189.22012299166667,58.0,112.0
1231,188.86899971041666,189.22168353958332,55.0,90.0
1232,188.86899971041666,189.22948627916668,63.0,97.0
1233,189.24353121041668,189.62274435416668,51.0,69.0
1234,189.61806271041667,189.86931092499998,58.0,127.0
1235,188.86899971041666,189.87555311666665,39.0,100.0
1236,189.61806271041667,189.90988517083332,63.0,127.0
1237,189.80532846041666,189.91300626666668,51.0,89.0
1238,189.99259421041666,190.13772516666666,57.0,56.0
1239,190.36712571041664,190.95233117916666,57.0,100.0
1240,190.36712571041664,190.96637611041666,65.0,95.0
1241,190.36712571041664,190.98042104166666,62.0,99.0
1242,190.36712571041664,191.12867309375,50.0,88.0
1243,190.36712571041664,191.49384130625,38.0,58.0
1244,191.11618871041668,191.49384130625,65.0,100.0
1245,191.11618871041668,191.50476514166667,62.0,112.0
1246,190.36712571041664,191.52037062083332,45.0,68.0
1247,191.30345446041667,191.56718705833333,50.0,99.0
1248,191.49072021041667,191.60307966041665,57.0,99.0
1249,191.86525171041666,192.05251746041665,36.0,77.0
1250,191.86525171041666,192.14771088333333,60.0,102.0
1251,191.86525171041666,192.16331636249998,63.0,117.0
1252,191.86525171041666,192.19140622499998,55.0,95.0
1253,192.61431471041666,192.88741059583333,39.0,66.0
1254,192.61431471041666,192.92486374583333,55.0,99.0
1255,192.61431471041666,192.92486374583333,63.0,122.0
1256,192.61431471041666,192.92798484166667,58.0,127.0
1257,192.61431471041666,192.96699853958333,51.0,83.0
1258,193.36337771041667,193.73478811458332,58.0,127.0
1259,193.36337771041667,193.73478811458332,65.0,95.0
1260,193.36337771041667,193.7535146895833,62.0,102.0
1261,193.73790921041666,194.14365166875,53.0,58.0
1262,193.73790921041666,194.2419661875,50.0,58.0
1263,194.11244071041665,194.31843303541666,58.0,117.0
1264,194.11244071041665,194.32779632291667,65.0,86.0
1265,194.11244071041665,194.34184125416667,62.0,99.0
1266,194.29970646041664,194.41674755416665,50.0,46.0
1267,194.29970646041664,194.42611084166668,53.0,95.0
1268,193.36337771041667,194.44327686875,46.0,102.0
1269,194.48697221041667,194.57592344166665,65.0,42.0
1270,194.48697221041667,194.63990590625,62.0,68.0
1271,194.48697221041667,194.68204070000002,58.0,122.0
1272,194.86150371041668,195.27817000416667,58.0,122.0
1273,194.86150371041668,195.42954315208334,62.0,97.0
1274,194.86150371041668,195.46543575416666,53.0,102.0
1275,194.86150371041668,195.81031684375,46.0,127.0
1276,195.61056671041666,196.18484834375,62.0,97.0
1277,195.61056671041666,196.198893275,58.0,127.0
1278,195.61056671041666,196.20045382291667,53.0,99.0
1279,196.17236396041665,196.44702039375,46.0,117.0
1280,196.35962971041667,196.56874313125002,53.0,100.0
1281,196.35962971041667,196.57654587083334,62.0,96.0
1282,196.35962971041667,196.58278806250001,58.0,122.0
1283,196.73416121041666,196.89957928958333,53.0,93.0
1284,196.73416121041666,196.90894257708334,58.0,102.0
1285,196.73416121041666,196.91518476875,62.0,88.0
1286,196.73416121041666,197.21637051666664,46.0,117.0
1287,197.10869271041668,197.26630805,53.0,92.0
1288,197.10869271041668,197.29283736458333,62.0,100.0
1289,197.10869271041668,197.29595846041667,58.0,122.0
1290,197.29595846041667,197.45045270416665,46.0,107.0
1291,197.48322421041667,197.66580831666667,53.0,95.0
1292,197.48322421041667,197.71106420625,62.0,96.0
1293,197.48322421041667,197.73291187708332,58.0,127.0
1294,197.85775571041665,198.11524611666667,62.0,100.0
1295,197.85775571041665,198.12460940416668,55.0,100.0
1296,197.85775571041665,198.12929104791667,58.0,127.0
1297,198.23228721041664,198.35713104375,55.0,86.0
1298,198.23228721041664,198.35869159166668,58.0,102.0
1299,198.23228721041664,198.36805487916666,62.0,88.0
1300,197.85775571041665,198.74414692708334,43.0,95.0
1301,198.60681871041666,199.06405925,55.0,102.0
1302,198.60681871041666,199.09683075625,58.0,122.0
1303,198.60681871041666,199.12804171458333,62.0,100.0
1304,199.16861596041667,199.38397157291666,43.0,86.0
1305,199.35588171041667,199.54782910416668,55.0,92.0
1306,199.35588171041667,199.55251074791667,58.0,112.0
1307,199.35588171041667,199.55563184375,62.0,97.0
1308,199.73041321041666,199.91767896041665,62.0,90.0
1309,199.73041321041666,199.93016334375,58.0,102.0
1310,199.54314746041666,199.93952663125,43.0,96.0
1311,200.10494471041665,200.43890196458335,62.0,100.0
1312,200.10494471041665,200.49976333333333,58.0,127.0
1313,200.47947621041666,200.66674196041666,55.0,96.0
1314,200.85400771041668,201.29564277083333,58.0,122.0
1315,200.85400771041668,201.36118578333333,63.0,117.0
1316,201.22853921041667,201.38615455000001,55.0,36.0
1317,200.85400771041668,201.60775235416668,51.0,85.0
1318,201.79033646041665,201.90581700625,51.0,97.0
1319,200.85400771041668,201.9089381020833,39.0,95.0
1320,201.60307071041666,201.94170960833333,58.0,122.0
1321,201.60307071041666,201.96667837500001,63.0,127.0
1322,201.97760221041665,202.0322213875,55.0,96.0
1323,202.35213371041667,202.40519233958332,50.0,100.0
1324,202.35213371041667,202.41143453125,53.0,99.0
1325,202.35213371041667,202.41767672291667,57.0,96.0
1326,202.35213371041667,202.45200877708334,45.0,61.0
1327,203.10119671041667,203.31967341875,57.0,112.0
1328,203.10119671041667,203.40706410208332,50.0,83.0
1329,203.10119671041667,203.47104656666664,65.0,102.0
1330,202.91393096041668,203.47260711458333,45.0,37.0
1331,203.10119671041667,203.47884930625,62.0,112.0
1332,202.35213371041667,203.49601533333333,38.0,85.0
1333,203.47572821041666,203.56623998958332,57.0,90.0
1334,203.85025971041665,204.40425422083334,55.0,99.0
1335,203.85025971041665,204.42298079583333,60.0,112.0
1336,203.85025971041665,204.43390463125002,63.0,117.0
1337,204.22479121041667,204.64301805208333,43.0,62.0
1338,203.85025971041665,204.79595174791666,36.0,83.0
1339,204.78658846041668,204.8973873625,43.0,96.0
1340,204.59932271041666,204.9442038,63.0,127.0
1341,204.59932271041666,204.94576434791668,60.0,127.0
1342,204.97385421041668,205.11742461875,55.0,82.0
1343,205.16111996041667,205.39988379166667,57.0,43.0
1344,205.34838571041666,205.42485255833333,53.0,40.0
1345,205.16111996041667,205.42953420208335,60.0,57.0
1346,205.72291721041665,205.86804816666665,65.0,99.0
1347,205.72291721041665,205.87897200208334,53.0,99.0
1348,205.91018296041665,206.15362843541666,48.0,93.0
1349,206.09744871041664,206.26910898124999,67.0,96.0
1350,206.09744871041664,206.2769117208333,55.0,96.0
1351,206.28471446041667,206.52035719583333,48.0,107.0
1352,205.34838571041666,206.55624979791668,41.0,90.0
1353,206.47198021041666,206.5921424,57.0,100.0
1354,206.84651171041668,207.26005690833333,58.0,127.0
1355,206.84651171041668,207.38490074166668,62.0,100.0
1356,207.22104321041667,207.7422662145833,53.0,30.0
1357,207.59557471041666,207.8000064875,58.0,127.0
1358,207.59557471041666,207.80312758333332,65.0,93.0
1359,207.59557471041666,207.80780922708334,62.0,102.0
1360,207.97010621041665,208.02316483958333,58.0,26.0
1361,208.15737196041667,208.2947001770833,58.0,122.0
1362,208.15737196041667,208.29938182083333,62.0,99.0
1363,208.15737196041667,208.30094236875,65.0,90.0
1364,207.97010621041665,208.60368866458333,53.0,67.0
1365,208.53190346041666,208.82372592083334,62.0,93.0
1366,208.53190346041666,208.82684701666665,58.0,112.0
1367,208.53190346041666,208.83464975625,65.0,90.0
1368,208.90643496041668,209.11866947708333,53.0,74.0
1369,209.09370071041667,209.28720865208334,65.0,92.0
1370,209.09370071041667,209.29032974791664,58.0,127.0
1371,207.22104321041667,209.38708371874998,50.0,57.0
1372,206.84651171041668,209.38864426666666,46.0,122.0
1373,209.09370071041667,209.39956810208332,62.0,100.0
1374,209.28096646041666,209.419855225,53.0,90.0
1375,209.46823221041666,209.55406234583333,62.0,36.0
1376,209.46823221041666,209.682027275,57.0,102.0
1377,209.84276371041665,210.2719143875,58.0,112.0
1378,209.84276371041665,210.28283822291667,55.0,100.0
1379,209.84276371041665,210.34838123541667,62.0,97.0
1380,210.21729521041667,210.74319985833333,50.0,74.0
1381,210.59182671041668,210.92422341666668,55.0,102.0
1382,210.59182671041668,210.9491921833333,58.0,127.0
1383,210.59182671041668,210.9491921833333,62.0,93.0
1384,211.15362396041667,211.30343656041669,55.0,93.0
1385,210.96635821041667,211.3393291625,50.0,63.0
1386,211.15362396041667,211.40175107916667,58.0,127.0
1387,211.15362396041667,211.40955381875,62.0,97.0
1388,211.52815546041666,211.79656970208333,55.0,92.0
1389,211.52815546041666,211.88396038541666,58.0,112.0
1390,211.52815546041666,211.89488422083332,62.0,90.0
1391,211.90268696041664,212.08058942291666,50.0,86.0
1392,209.84276371041665,212.1071187375,43.0,73.0
1393,212.08995271041667,212.38021462291667,58.0,127.0
1394,212.08995271041667,212.416107225,62.0,107.0
1395,212.46448421041666,212.68920311041666,55.0,117.0
1396,212.83901571041667,213.19013899166666,58.0,112.0
1397,212.83901571041667,213.19169953958334,55.0,90.0
1398,212.83901571041667,213.19950227916667,63.0,97.0
1399,213.21354721041666,213.59276035416667,51.0,69.0
1400,213.58807871041665,213.83932692500002,58.0,127.0
1401,212.83901571041667,213.84556911666664,39.0,100.0
1402,213.58807871041665,213.8799011708333,63.0,127.0
1403,213.77534446041665,213.88302226666667,51.0,89.0
1404,213.96261021041664,214.10774116666664,57.0,56.0
1405,214.3371417104167,214.92234717916665,57.0,100.0
1406,214.3371417104167,214.93639211041665,65.0,95.0
1407,214.3371417104167,214.95043704166665,62.0,99.0
1408,214.3371417104167,215.09868909375,50.0,88.0
1409,214.3371417104167,215.46385730625002,38.0,58.0
1410,215.08620471041667,215.46385730625002,65.0,100.0
1411,215.08620471041667,215.47478114166665,62.0,112.0
1412,214.3371417104167,215.4903866208333,45.0,68.0
1413,215.27347046041666,215.53720305833332,50.0,99.0
1414,215.46073621041666,215.57309566041664,57.0,99.0
1415,215.83526771041664,216.02253346041664,36.0,77.0
1416,215.83526771041664,216.11772688333332,60.0,102.0
1417,215.83526771041664,216.13333236249997,63.0,117.0
1418,215.83526771041664,216.16142222500002,55.0,95.0
1419,216.58433071041668,216.85742659583332,39.0,66.0
1420,216.58433071041668,216.89487974583335,55.0,99.0
1421,216.58433071041668,216.89487974583335,63.0,122.0
1422,216.58433071041668,216.89800084166666,58.0,127.0
1423,216.58433071041668,216.93701453958334,51.0,83.0
1424,217.33339371041666,217.70480411458334,58.0,127.0
1425,217.33339371041666,217.70480411458334,65.0,95.0
1426,217.33339371041666,217.72353068958336,62.0,102.0
1427,217.70792521041665,218.11366766875,53.0,58.0
1428,217.70792521041665,218.21198218749998,50.0,58.0
1429,218.08245671041664,218.28844903541665,58.0,117.0
1430,218.08245671041664,218.29781232291668,65.0,86.0
1431,218.08245671041664,218.31185725416668,62.0,99.0
1432,218.2697224604167,218.3867635541667,50.0,46.0
1433,218.2697224604167,218.39612684166667,53.0,95.0
1434,217.33339371041666,218.41329286874998,46.0,102.0
1435,218.45698821041668,218.5459394416667,65.0,42.0
1436,218.45698821041668,218.60992190625,62.0,68.0
1437,218.45698821041668,218.6520567,58.0,122.0
1438,218.83151971041667,219.18264299166668,58.0,112.0
1439,218.83151971041667,219.18420353958334,55.0,90.0
1440,218.83151971041667,219.19200627916666,63.0,97.0
1441,219.20605121041666,219.58526435416667,51.0,69.0
1442,219.58058271041665,219.83183092500002,58.0,127.0
1443,218.83151971041667,219.8380731166667,39.0,100.0
1444,219.58058271041665,219.8724051708333,63.0,127.0
1445,219.76784846041664,219.87552626666667,51.0,89.0
1446,219.95511421041664,220.10024516666664,57.0,56.0
1447,220.32964571041668,220.91485117916665,57.0,100.0
1448,220.32964571041668,220.92889611041664,65.0,95.0
1449,220.32964571041668,220.94294104166664,62.0,99.0
1450,220.32964571041668,221.09119309375,50.0,88.0
1451,220.32964571041668,221.45636130625002,38.0,58.0
1452,221.07870871041666,221.45636130625002,65.0,100.0
1453,221.07870871041666,221.46728514166665,62.0,112.0
1454,220.32964571041668,221.4828906208333,45.0,68.0
1455,221.26597446041666,221.52970705833332,50.0,99.0
1456,221.45324021041665,221.56559966041664,57.0,99.0
1457,221.82777171041664,222.01503746041664,36.0,77.0
1458,221.82777171041664,222.11023088333332,60.0,102.0
1459,221.82777171041664,222.12583636250002,63.0,117.0
1460,221.82777171041664,222.15392622500002,55.0,95.0
1461,222.57683471041668,222.8499305958333,39.0,66.0
1462,222.57683471041668,222.88738374583335,55.0,99.0
1463,222.57683471041668,222.88738374583335,63.0,122.0
1464,222.57683471041668,222.89050484166665,58.0,127.0
1465,222.57683471041668,222.92951853958334,51.0,83.0
1466,223.32589771041665,223.69730811458334,58.0,127.0
1467,223.32589771041665,223.69730811458334,65.0,95.0
1468,223.32589771041665,223.71603468958335,62.0,102.0
1469,223.70042921041664,224.10617166875,53.0,58.0
1470,223.70042921041664,224.20448618749998,50.0,58.0
1471,224.0749607104167,224.28095303541664,58.0,117.0
1472,224.0749607104167,224.29031632291668,65.0,86.0
1473,224.0749607104167,224.30436125416668,62.0,99.0
1474,224.26222646041668,224.3792675541667,50.0,46.0
1475,224.26222646041668,224.38863084166667,53.0,95.0
1476,223.32589771041665,224.40579686874997,46.0,102.0
1477,224.44949221041668,224.5384434416667,65.0,42.0
1478,224.44949221041668,224.60242590625,62.0,68.0
1479,224.44949221041668,224.6445607,58.0,122.0
1480,224.82402371041667,224.95510973541667,62.0,96.0
1481,224.82402371041667,224.9597913791667,46.0,117.0
1482,224.82402371041667,224.97071521458332,53.0,76.0
1483,224.82402371041667,224.97071521458332,58.0,117.0
1484,225.19855521041666,225.42951630208336,62.0,96.0
1485,225.19855521041666,225.4404401375,58.0,112.0
1486,225.19855521041666,225.51066479374998,53.0,83.0
1487,225.19855521041666,225.65111410625002,46.0,127.0
1488,225.57308671041665,225.93045218333333,58.0,127.0
1489,225.57308671041665,225.94293656666667,62.0,100.0
1490,226.1348839604167,226.27845436874998,58.0,100.0
1491,226.1348839604167,226.29718094375,62.0,85.0
1492,225.94761821041664,226.65766751249998,46.0,95.0
1493,226.50941546041668,226.69043901875,58.0,107.0
1494,226.69668121041667,226.8246461395833,53.0,38.0
1495,226.50941546041668,226.8605387416667,62.0,93.0
1496,226.88394696041667,227.07901544999999,46.0,107.0
1497,227.07121271041666,227.26472065208333,58.0,127.0
1498,227.07121271041666,227.27252339166665,62.0,99.0
1499,227.25847846041665,227.622086125,46.0,107.0
1500,227.44574421041665,227.68762913749998,62.0,96.0
1501,227.44574421041665,227.69855297291667,58.0,127.0
1502,227.82027571041664,227.95916447500002,58.0,107.0
1503,227.82027571041664,227.96696721458335,55.0,95.0
1504,227.82027571041664,227.97008831041666,62.0,88.0
1505,227.82027571041664,227.98881488541667,43.0,88.0
1506,228.19480721041668,228.77533103541668,55.0,89.0
1507,228.19480721041668,228.77845213125,62.0,92.0
1508,228.19480721041668,228.78469432291666,58.0,122.0
1509,228.19480721041668,228.970399525,43.0,100.0
1510,228.94387021041666,229.08588007083335,58.0,122.0
1511,228.94387021041666,229.1857551375,62.0,97.0
1512,228.94387021041666,229.1888762333333,55.0,100.0
1513,229.13113596041666,229.3059173270833,43.0,97.0
1514,229.50566746041665,229.82557978333335,55.0,88.0
1515,229.50566746041665,229.83962471458335,58.0,122.0
1516,229.50566746041665,229.83962471458335,62.0,96.0
1517,229.8801989604167,230.04093539583334,43.0,99.0
1518,230.0674647104167,230.2344433375,55.0,92.0
1519,230.0674647104167,230.25473046041668,62.0,95.0
1520,230.0674647104167,230.25629100833333,58.0,122.0
1521,230.25473046041668,230.34212114374998,43.0,97.0
1522,230.44199621041668,230.49349429166665,62.0,70.0
1523,230.44199621041668,230.60585374166664,58.0,107.0
1524,230.62926196041667,230.68076004166664,55.0,31.0
1525,230.81652771041666,230.96009811875,39.0,102.0
1526,230.81652771041666,230.96321921458332,51.0,73.0
1527,230.81652771041666,230.99911181666664,55.0,92.0
1528,230.81652771041666,231.01315674791664,58.0,127.0
1529,230.81652771041666,231.0334438708333,63.0,117.0
1530,231.19105921041665,231.37208276874998,55.0,81.0
1531,231.19105921041665,231.45011016458335,63.0,107.0
1532,231.19105921041665,231.45323126041666,58.0,112.0
1533,231.56559071041664,231.80279399375002,58.0,127.0
1534,231.56559071041664,231.81215728125,63.0,127.0
1535,231.19105921041665,231.90735070416667,51.0,95.0
1536,231.19105921041665,231.93388001875002,39.0,97.0
1537,231.9401222104167,232.14143289166668,55.0,69.0
1538,231.9401222104167,232.16172001458335,58.0,95.0
1539,231.9401222104167,232.20385480833335,63.0,82.0
1540,232.12738796041668,232.3115326145833,39.0,82.0
1541,232.12738796041668,232.3115326145833,51.0,96.0
1542,232.50191946041667,232.64548986875002,39.0,78.0
1543,232.50191946041667,232.67514027916667,51.0,93.0
1544,232.87645096041666,232.96696273958332,39.0,78.0
1545,232.87645096041666,233.03874794375002,51.0,90.0
1546,233.06371671041666,233.44292985416666,63.0,117.0
1547,233.06371671041666,233.44917204583334,58.0,127.0
1548,233.43824821041665,233.59898464583335,55.0,97.0
1549,233.62551396041664,233.65828546666665,57.0,40.0
1550,233.8127797104167,233.97663724166665,53.0,100.0
1551,233.8127797104167,233.98756107708334,41.0,56.0
1552,233.8127797104167,233.99692436458332,48.0,72.0
1553,233.8127797104167,233.99848491249998,57.0,96.0
1554,233.8127797104167,234.02033258333336,60.0,90.0
1555,234.18731121041668,234.64455175,53.0,89.0
1556,234.18731121041668,234.64923339375002,57.0,96.0
1557,234.18731121041668,234.66795996874998,60.0,92.0
1558,234.74910846041666,234.85366517083332,60.0,38.0
1559,234.74910846041666,234.88019448541667,57.0,56.0
1560,234.18731121041668,235.04093092083332,48.0,89.0
1561,234.18731121041668,235.04561256458334,41.0,75.0
1562,235.31090571041665,235.52001913125002,41.0,55.0
1563,235.31090571041665,235.52782187083335,53.0,89.0
1564,235.31090571041665,235.54030625416664,65.0,96.0
1565,235.31090571041665,235.54186680208335,69.0,90.0
1566,235.31090571041665,235.55123008958333,60.0,93.0
1567,235.68543721041664,236.06621090208336,65.0,100.0
1568,235.68543721041664,236.08337692916666,69.0,93.0
1569,235.68543721041664,236.1130273395833,60.0,96.0
1570,235.68543721041664,236.12551172291666,53.0,96.0
1571,235.68543721041664,236.16764651666665,41.0,76.0
1572,236.80903171041666,242.8452310520833,46.0,112.0
1573,236.80903171041666,242.86551817499998,34.0,112.0
1574,236.80903171041666,242.87019981875,58.0,117.0
1575,236.80903171041666,242.87956310624998,62.0,100.0
1576,236.80903171041666,242.8811236541667,65.0,92.0
