,start,end,pitch,velocity
0,1.6732431041666669,2.0899091458333334,75.0,115.0
1,2.199558104166667,2.5263120000000003,77.0,112.0
2,2.725873104166667,3.2149074583333337,79.0,123.0
3,3.252188104166667,3.396924729166667,77.0,104.0
4,3.515345604166667,3.9320116458333336,79.0,123.0
5,4.041660604166667,4.460519625000001,84.0,115.0
6,4.5679756041666675,6.2061310416666675,79.0,120.0
7,6.410078104166668,6.6337619791666675,77.0,101.0
8,6.673235604166667,6.831130104166667,75.0,115.0
9,6.936393104166667,7.353059145833334,77.0,112.0
10,7.462708104166667,7.603058770833334,75.0,115.0
11,7.725865604166668,8.1249878125,77.0,112.0
12,8.252180604166668,8.660074729166668,82.0,115.0
13,8.778495604166668,10.394721250000002,77.0,112.0
14,10.620598104166667,10.820159208333335,72.0,109.0
15,10.883755604166668,11.026299250000001,74.0,120.0
16,11.146913104166668,12.392525270833334,75.0,115.0
17,12.725858104166667,12.8947175,74.0,117.0
18,12.989015604166667,13.135945208333334,75.0,112.0
19,13.252173104166667,15.353047145833335,77.0,109.0
20,25.88373310416667,26.14031166666667,87.0,115.0
21,26.146890604166668,26.366188520833337,86.0,117.0
22,26.41004810416667,26.609609208333335,82.0,112.0
23,26.673205604166668,27.458292145833337,77.0,106.0
24,27.19952060416667,27.964870333333337,74.0,101.0
25,27.98899310416667,29.471447020833335,75.0,101.0
26,54.04158560416667,54.352988645833335,72.0,82.0
27,54.30474310416667,55.40342566666667,75.0,99.0
28,56.14684560416667,57.43631735416667,71.0,93.0
29,56.41000310416667,57.440703312500005,75.0,94.0
30,59.83105060416667,60.08543618750001,60.0,96.0
31,60.094208104166675,60.37052347916667,62.0,110.0
32,60.357365604166674,61.40122368750001,65.0,106.0
33,66.40998810416667,66.68849645833333,67.0,104.0
34,66.67314560416668,66.91875927083333,70.0,104.0
35,66.93630310416667,67.32884637500001,65.0,96.0
36,67.46261810416668,67.89902095833334,63.0,109.0
37,67.98893310416668,69.08322970833333,67.0,107.0
38,85.881450125,86.15557252083335,79.0,117.0
39,86.26960743750001,86.49987025,80.0,115.0
40,86.60951920833334,86.79811541666668,82.0,109.0
41,86.92750118750001,88.34635870833334,84.0,115.0
42,88.44065681250001,88.9274981875,79.0,117.0
43,88.97793670833335,90.24109270833334,77.0,109.0
44,90.58100447916668,90.79810941666668,79.0,120.0
45,90.83977602083334,90.98451264583335,80.0,115.0
46,91.0985475625,91.48451189583334,82.0,115.0
47,91.60731872916668,91.79372195833334,84.0,112.0
48,91.88363410416667,92.54810679166667,82.0,115.0
49,92.46258060416667,92.9143343125,80.0,115.0
50,92.98889560416667,94.45599866666667,79.0,123.0
51,94.80248937500001,95.0590679375,67.0,117.0
52,95.05687495833334,95.27617287500001,68.0,109.0
53,95.35512012500001,95.78275106250001,70.0,115.0
54,95.87047022916667,96.03713664583334,63.0,112.0
55,96.16213645833334,96.78932850000001,63.0,118.0
56,96.96038087500001,97.15994197916667,67.0,120.0
57,97.22792433333335,97.38801181250001,68.0,112.0
58,97.48450289583334,97.83318658333334,58.0,109.0
59,97.83318658333334,98.12046685416668,59.0,97.0
60,98.21695793750001,98.49546629166667,65.0,112.0
61,97.49108183333334,98.49546629166667,70.0,115.0
62,98.52616800000001,98.7301150625,63.0,102.0
63,98.87923764583334,99.09634258333334,70.0,99.0
64,99.14239514583335,99.42309647916667,68.0,105.0
65,99.56783310416668,99.85730635416668,63.0,123.0
66,99.96914829166667,100.14897258333335,65.0,118.0
67,100.29151622916667,100.434059875,63.0,112.0
68,100.62046310416667,100.85291889583334,70.0,118.0
69,100.98669062500001,101.50861966666668,68.0,115.0
70,101.67309310416668,103.18844170833334,82.0,106.0
71,101.78493504166667,103.19940660416668,94.0,118.0
72,102.95817889583334,103.32002045833335,60.0,105.0
73,103.34633620833334,103.73230054166667,62.0,105.0
74,103.81124779166667,105.36607002083335,63.0,102.0
75,106.3879983125,106.81343627083335,63.0,105.0
76,106.90334841666667,107.32440041666668,65.0,105.0
77,107.40992660416667,107.89896095833335,63.0,89.0
78,107.90553989583334,109.08536268750001,58.0,89.0
79,110.58097447916667,111.06562287500002,62.0,99.0
80,111.08974564583335,111.5853589375,63.0,100.0
81,111.65553427083334,112.144568625,67.0,112.0
82,112.2037790625,113.28711077083334,60.0,108.0
83,114.27833735416668,115.31123054166667,62.0,96.0
84,115.30903756250001,115.76079127083334,63.0,105.0
85,115.86824725000001,116.23666775000001,65.0,92.0
86,116.37921139583334,118.34631370833334,67.0,90.0
87,119.55683820833335,119.98666212500001,67.0,99.0
88,120.06780235416667,120.20815302083335,68.0,97.0
89,120.32657389583335,120.48227541666668,70.0,94.0
90,120.61385416666668,122.43183389583335,72.0,105.0
91,122.71911416666667,124.11604189583335,71.0,87.0
92,125.86603927083334,126.38358235416668,65.0,84.0
93,126.36384554166668,126.85287989583334,67.0,96.0
94,126.92086225000001,127.74542241666668,63.0,78.0
95,135.03707814583333,135.42523545833333,65.0,105.0
96,135.55681420833335,136.01076089583336,67.0,102.0
97,136.12040985416667,136.53488291666667,68.0,111.0
98,136.67084762500002,137.29584668750002,70.0,108.0
99,137.48444289583335,137.99540704166668,72.0,111.0
100,138.2519856041667,138.56338864583336,72.0,82.0
101,138.51514310416667,139.61382566666668,75.0,99.0
102,140.35724560416668,141.64671735416667,71.0,93.0
103,140.62040310416668,141.65110331250003,75.0,94.0
104,144.04145060416667,144.29583618750002,60.0,96.0
105,144.30460810416668,144.58092347916667,62.0,110.0
106,144.56776560416668,145.6116236875,65.0,106.0
107,150.6203881041667,150.89889645833335,67.0,104.0
108,150.88354560416667,151.12915927083336,70.0,104.0
109,151.14670310416668,151.539246375,65.0,96.0
110,151.6730181041667,152.10942095833335,63.0,109.0
111,152.19933310416667,153.29362970833336,67.0,107.0
112,153.25634906250002,153.5611731666667,63.0,109.0
113,153.62915552083334,153.88573408333335,65.0,109.0
114,153.97345325,154.1861722291667,67.0,113.0
115,154.2826633125,155.52169654166667,63.0,106.0
116,154.27827735416668,155.53924037500002,68.0,101.0
117,160.88353060416668,161.25414408333336,70.0,104.0
118,161.14668810416669,161.31993345833334,74.0,113.0
119,161.4098456041667,161.73221354166668,75.0,112.0
120,161.67300310416667,161.89668697916667,74.0,120.0
121,161.93616060416667,162.09624808333334,70.0,109.0
122,162.19931810416668,162.65765075000002,67.0,117.0
123,162.7256331041667,164.5085251666667,63.0,94.0
124,162.7256331041667,164.54580581250002,68.0,94.0
125,171.1466731041667,172.78482854166668,87.0,114.0
126,172.95149495833334,173.17298585416668,91.0,99.0
127,173.25193310416668,174.2628965,89.0,111.0
128,174.3089490625,174.66421168750003,89.0,111.0
129,174.81991320833336,175.22780733333335,87.0,111.0
130,175.35719310416667,176.86815575000003,82.0,117.0
131,176.91859427083335,177.33964627083336,86.0,102.0
132,177.4558741666667,178.08745216666668,86.0,109.0
133,178.22999581250002,178.96464383333335,82.0,117.0
134,178.98218766666668,179.20148558333335,79.0,109.0
135,179.26069602083334,179.39666072916668,80.0,92.0
136,179.55674820833335,181.1049915,82.0,114.0
137,181.64227139583335,182.59841031250002,83.0,109.0
138,182.736568,183.10937445833335,82.0,108.0
139,183.2584970416667,183.65542627083335,80.0,108.0
140,183.7826190625,184.4492847291667,82.0,102.0
141,184.30454810416668,184.58305645833335,79.0,104.0
142,184.5677056041667,184.81331927083335,82.0,104.0
143,184.8308631041667,185.22340637500002,77.0,96.0
144,185.35717810416668,185.79358095833334,75.0,109.0
145,185.8834931041667,186.97778970833335,79.0,107.0
146,186.9405090625,187.24533316666668,75.0,109.0
147,187.31331552083336,187.56989408333334,77.0,109.0
148,187.65761325000003,187.87033222916668,79.0,113.0
149,187.96682331250003,189.2058565416667,75.0,106.0
150,187.9624373541667,189.223400375,80.0,101.0
151,194.56769060416667,194.93830408333335,70.0,104.0
152,194.83084810416668,195.00409345833336,74.0,113.0
153,195.09400560416668,195.41637354166667,75.0,112.0
154,195.3571631041667,195.5808469791667,74.0,120.0
155,195.6203206041667,195.78040808333336,70.0,109.0
156,195.88347810416667,196.34181075,67.0,117.0
157,196.40979310416668,198.19268516666668,63.0,94.0
158,196.40979310416668,198.2299658125,68.0,94.0
159,211.78696302083335,212.24090970833336,84.0,101.0
160,211.48213891666668,212.28915525000002,75.0,96.0
161,212.03038370833335,212.49968125,89.0,89.0
162,212.29573418750002,212.84617195833334,94.0,109.0
163,212.54134785416667,213.1115224375,84.0,101.0
164,212.83959302083335,214.03038070833335,89.0,94.0
165,213.1005575416667,214.06985433333335,94.0,106.0
166,213.99529304166668,214.5281869791667,84.0,101.0
167,213.6334514791667,214.64222189583336,75.0,82.0
168,214.27380139583335,214.8373970416667,89.0,89.0
169,214.54353783333335,215.13125625,94.0,109.0
170,214.80669533333335,215.433887375,84.0,104.0
171,215.12029135416668,215.76722020833336,89.0,87.0
172,215.41415056250003,215.85932533333335,94.0,104.0
173,216.48432439583334,216.90976235416667,82.0,94.0
174,216.17292135416668,217.1071304791667,75.0,94.0
175,216.7562538125,217.30888456250003,87.0,87.0
176,217.0413411041667,217.65098931250003,94.0,109.0
177,217.30888456250003,217.8439714791667,82.0,89.0
178,217.62905952083335,218.31984795833336,87.0,91.0
179,217.90098893750002,218.40098818750002,94.0,94.0
180,218.55668970833335,219.30449560416668,75.0,94.0
181,218.8746716875,219.39440775000003,82.0,96.0
182,219.15756600000003,219.67949504166668,87.0,99.0
183,219.42730243750003,219.9360736041667,94.0,109.0
184,219.67949504166668,220.20800302083336,82.0,96.0
185,219.94484552083335,220.46238860416668,87.0,96.0
186,220.21896791666668,220.47773945833336,94.0,104.0
187,221.11589639583335,221.7036148125,82.0,85.0
188,221.41852752083335,221.9558074166667,87.0,89.0
189,220.82861612500002,222.00185997916668,75.0,66.0
190,221.69484289583335,222.39659622916668,94.0,106.0
191,221.97993018750003,222.86370079166667,82.0,80.0
192,222.3242279166667,222.97115677083335,87.0,94.0
193,222.6334379791667,222.9952795416667,94.0,99.0
194,223.31984045833335,223.907558875,82.0,85.0
195,223.62247158333335,224.1597514791667,87.0,89.0
196,223.03256018750002,224.20580404166668,75.0,66.0
197,223.89878695833335,224.60054029166668,94.0,106.0
198,224.18387425000003,225.06764485416667,82.0,80.0
199,224.5281719791667,225.17510083333335,87.0,94.0
200,224.8373820416667,225.7321175416667,94.0,99.0
201,226.08957314583336,226.41194108333335,80.0,99.0
202,225.82641564583335,226.5413268541667,75.0,87.0
203,225.52159154166668,226.75185285416669,68.0,80.0
204,226.36808150000002,226.98650162500002,87.0,106.0
205,226.93825608333336,227.28255381250003,80.0,104.0
206,226.6663266666667,227.33518531250002,75.0,101.0
207,227.2057995416667,228.0084299166667,87.0,99.0
208,228.34614870833335,228.66193770833334,80.0,106.0
209,227.74746539583336,228.80448135416668,68.0,74.0
210,228.04132460416668,228.81544625,75.0,99.0
211,228.6246570625,229.30009464583335,87.0,104.0
212,228.92070925000002,230.0062339375,75.0,96.0
213,229.23649825,230.749653875,80.0,99.0
214,229.5939538541667,231.44263529166668,87.0,89.0
