,start,end,pitch,velocity
0,18.51532310416667,18.881550625000003,63.0,109.0
1,19.04163810416667,19.366199020833335,65.0,104.0
2,19.56795310416667,19.706110791666667,67.0,110.0
3,19.831110604166668,19.92979466666667,67.0,110.0
4,20.09426810416667,20.2170749375,67.0,113.0
5,20.357425604166668,20.5065481875,68.0,101.0
6,20.62058310416667,20.918828270833334,67.0,117.0
7,21.14689810416667,21.267511958333337,63.0,106.0
8,21.41005560416667,21.826721645833334,65.0,120.0
9,21.93637060416667,22.8749656875,67.0,106.0
10,23.252158104166668,23.394701750000003,65.0,106.0
11,23.51531560416667,23.635929458333337,63.0,106.0
12,23.778473104166668,23.888122062500003,65.0,109.0
13,24.04163060416667,24.135928708333335,65.0,109.0
14,24.30478810416667,24.42320897916667,65.0,106.0
15,24.56794560416667,24.6775945625,67.0,123.0
16,24.83110310416667,25.111804437500002,65.0,109.0
17,25.35741810416667,25.48899685416667,62.0,107.0
18,25.620575604166667,26.039434625000002,65.0,104.0
19,26.146890604166668,26.97583672916667,63.0,112.0
20,27.46267810416667,27.578906000000003,60.0,106.0
21,27.72583560416667,27.842063500000002,62.0,113.0
22,27.98899310416667,29.056973958333337,63.0,109.0
23,29.567938104166668,29.675394083333337,62.0,117.0
24,29.83109560416667,29.980218187500004,63.0,106.0
25,30.09425310416667,30.300393145833336,67.0,120.0
26,30.35741060416667,31.306970583333335,65.0,104.0
27,31.67319810416667,31.826706645833337,63.0,101.0
28,31.93635560416667,32.096443083333334,65.0,104.0
29,32.19951310416667,32.346442708333335,67.0,113.0
30,32.46267060416667,32.58328445833334,67.0,110.0
31,32.725828104166666,32.842056,67.0,110.0
32,32.98898560416667,33.13591520833334,68.0,104.0
33,33.25214310416667,33.64687935416667,67.0,120.0
34,33.77845810416667,33.934159625,63.0,106.0
35,34.04161560416667,34.440737812500004,65.0,109.0
36,34.56793060416667,35.55477122916667,67.0,117.0
37,35.88371810416667,36.02187579166667,60.0,106.0
38,36.14687560416667,36.28941925,60.0,106.0
39,36.41003310416667,36.52845397916667,67.0,117.0
40,36.67319060416667,36.78503254166667,67.0,117.0
41,36.93634810416667,37.063540895833334,67.0,117.0
42,37.19950560416667,37.34643520833334,68.0,109.0
43,37.46266310416667,37.81573275,70.0,106.0
44,37.98897810416667,38.15345154166667,67.0,113.0
45,38.25213560416667,38.366170520833336,63.0,104.0
46,38.51529310416667,38.9275731875,67.0,117.0
47,39.04160810416667,39.67537908333334,65.0,112.0
48,39.83108060416667,40.0986240625,70.0,112.0
49,40.35739560416667,40.530640958333336,67.0,117.0
50,40.62055310416667,40.72800908333334,65.0,104.0
51,40.88371060416667,40.988973604166674,65.0,104.0
52,41.14686810416667,41.26967493750001,65.0,106.0
53,41.41002560416667,41.552569250000005,67.0,117.0
54,41.67318310416667,41.91221783333334,65.0,112.0
55,42.19949810416667,42.328883875,58.0,106.0
56,42.46265560416667,42.828883125000004,65.0,106.0
57,42.98897060416667,43.78502204166667,63.0,106.0
58,44.30475810416667,44.44291579166667,60.0,109.0
59,44.56791560416667,44.703880312500004,62.0,113.0
60,44.83107310416667,46.249930625000005,63.0,112.0
61,46.67317560416667,46.809140312500006,62.0,107.0
62,46.93633310416667,47.25431508333334,63.0,109.0
63,47.46264810416667,47.59422685416667,62.0,113.0
64,47.72580560416667,48.09203312500001,62.0,117.0
65,48.25212060416667,48.61615514583334,65.0,106.0
66,48.778435604166674,49.201680583333335,65.0,106.0
67,49.30475060416667,51.7433434375,63.0,106.0
68,52.199483104166674,52.47141252083334,67.0,120.0
69,52.72579810416667,52.9407100625,68.0,112.0
70,52.98895560416667,53.18413075,70.0,109.0
71,53.252113104166675,54.363953541666675,72.0,109.0
72,54.83105810416667,54.97579472916667,67.0,104.0
73,55.09421560416667,56.05035452083334,65.0,117.0
74,56.93631810416667,57.07886175000001,67.0,120.0
75,57.19947560416667,57.331054354166675,68.0,109.0
76,57.46263310416667,57.86175531250001,70.0,109.0
77,57.988948104166674,58.17096537500001,72.0,101.0
78,58.25210560416667,58.857367854166675,70.0,106.0
79,59.041578104166675,59.19727962500001,68.0,99.0
80,59.30473560416667,60.35297964583334,67.0,113.0
81,61.14683810416667,61.28280281250001,67.0,117.0
82,61.409995604166674,61.52622350000001,68.0,99.0
83,61.67315310416667,62.008678916666675,70.0,109.0
84,62.19946810416667,62.33323983333334,63.0,109.0
85,62.462625604166675,62.78280056250001,63.0,109.0
86,63.25209810416667,63.38586983333334,67.0,117.0
87,63.515255604166676,63.633676479166674,68.0,109.0
88,63.778413104166674,64.118324875,70.0,109.0
89,64.30472810416667,64.45165770833334,68.0,106.0
90,64.56788560416668,65.20384956250001,67.0,113.0
91,65.35735810416668,65.78060308333333,65.0,109.0
92,65.88367310416668,67.30691658333333,67.0,120.0
93,67.46261810416668,67.62709154166667,68.0,112.0
94,67.72577560416667,68.78498454166667,70.0,112.0
95,68.986738625,69.26743995833334,67.0,120.0
96,69.36393104166667,69.57665002083334,68.0,109.0
97,69.72577260416668,69.92533370833334,70.0,109.0
98,70.05252650000001,71.52620850000001,72.0,109.0
99,71.67313810416667,72.05033052083334,75.0,112.0
100,72.19945310416668,73.2959426875,71.0,117.0
101,73.77839810416667,74.11173093750001,75.0,112.0
102,74.30471310416668,74.64901083333334,70.0,112.0
103,74.83102810416668,75.18409775,72.0,112.0
104,75.35734310416667,75.75427233333335,70.0,109.0
105,75.88365810416667,76.05251750000001,68.0,104.0
106,76.14681560416668,77.22356837500001,67.0,110.0
107,77.98891810416667,78.14900558333333,67.0,113.0
108,78.25207560416668,78.37707541666667,68.0,106.0
109,78.51523310416667,78.77839060416667,70.0,112.0
110,79.04154810416668,79.16654791666667,63.0,104.0
111,79.30470560416667,80.13365172916667,63.0,109.0
112,80.35733560416668,80.52180904166667,63.0,106.0
113,80.62049310416667,81.67093012500001,65.0,106.0
114,82.19943810416667,82.67531458333335,63.0,109.0
115,82.72575310416667,83.22794533333334,65.0,106.0
116,83.25206810416667,86.66653666666667,63.0,106.0
117,102.72572310416668,103.09195062500001,63.0,109.0
118,103.25203810416667,103.57659902083334,65.0,104.0
119,103.77835310416667,103.91651079166668,67.0,110.0
120,104.04151060416667,104.14019466666667,67.0,110.0
121,104.30466810416668,104.42747493750001,67.0,113.0
122,104.56782560416667,104.71694818750001,68.0,101.0
123,104.83098310416668,105.12922827083334,67.0,117.0
124,105.35729810416667,105.47791195833334,63.0,106.0
125,105.62045560416668,106.03712164583334,65.0,120.0
126,106.14677060416668,107.08536568750002,67.0,106.0
127,107.46255810416667,107.60510175,65.0,106.0
128,107.72571560416668,107.84632945833334,63.0,106.0
129,107.98887310416667,108.09852206250001,65.0,109.0
130,108.25203060416668,108.34632870833335,65.0,109.0
131,108.51518810416668,108.63360897916668,65.0,106.0
132,108.77834560416667,108.88799456250001,67.0,123.0
133,109.04150310416668,109.3222044375,65.0,109.0
134,109.56781810416668,109.69939685416668,62.0,107.0
135,109.83097560416668,110.249834625,65.0,104.0
136,110.35729060416668,111.18623672916668,63.0,112.0
137,111.67307810416668,111.78930600000001,60.0,106.0
138,111.93623560416668,112.05246350000002,62.0,113.0
139,112.19939310416667,113.26737395833334,63.0,109.0
140,113.77833810416668,113.88579408333334,62.0,117.0
141,114.04149560416667,114.19061818750001,63.0,106.0
142,114.30465310416668,114.51079314583335,67.0,120.0
143,114.56781060416668,115.51737058333335,65.0,104.0
144,115.88359810416668,116.03710664583335,63.0,101.0
145,116.14675560416667,116.30684308333335,65.0,104.0
146,116.40991310416668,116.55684270833335,67.0,113.0
147,116.67307060416668,116.79368445833335,67.0,110.0
148,116.93622810416667,117.052456,67.0,110.0
149,117.19938560416668,117.34631520833334,68.0,104.0
150,117.46254310416667,117.85727935416668,67.0,120.0
151,117.98885810416668,118.14455962500001,63.0,106.0
152,118.25201560416667,118.65113781250001,65.0,109.0
153,118.77833060416668,119.76517122916668,67.0,117.0
154,120.09411810416668,120.23227579166668,60.0,106.0
155,120.35727560416667,120.49981925000002,60.0,106.0
156,120.62043310416668,120.73885397916668,67.0,117.0
157,120.88359060416667,120.99543254166667,67.0,117.0
158,121.14674810416668,121.27394089583335,67.0,117.0
159,121.40990560416668,121.55683520833334,68.0,109.0
160,121.67306310416667,122.02613275000002,70.0,106.0
161,122.19937810416668,122.36385154166668,67.0,113.0
162,122.46253560416667,122.57657052083334,63.0,104.0
163,122.72569310416668,123.13797318750001,67.0,117.0
164,123.25200810416668,123.88577908333335,65.0,112.0
165,124.04148060416668,124.30902406250001,70.0,112.0
166,124.56779560416668,124.74104095833334,67.0,117.0
167,124.83095310416668,124.93840908333334,65.0,104.0
168,125.09411060416667,125.19937360416668,65.0,104.0
169,125.35726810416668,125.4800749375,65.0,106.0
170,125.62042560416668,125.76296925000001,67.0,117.0
171,125.88358310416668,126.12261783333335,65.0,112.0
172,126.40989810416667,126.53928387500001,58.0,106.0
173,126.67305560416668,127.03928312500001,65.0,106.0
174,127.19937060416667,127.99542204166667,63.0,106.0
175,128.5151581041667,128.65331579166667,60.0,109.0
176,128.77831560416666,128.9142803125,62.0,113.0
177,129.04147310416667,130.460330625,63.0,112.0
178,130.88357560416668,131.0195403125,62.0,107.0
179,131.14673310416669,131.46471508333335,63.0,109.0
180,131.67304810416667,131.80462685416668,62.0,113.0
181,131.93620560416667,132.30243312500002,62.0,117.0
182,132.46252060416668,132.82655514583334,65.0,106.0
183,132.98883560416667,133.41208058333333,65.0,106.0
184,133.51515060416668,135.9537434375,63.0,106.0
185,136.40988310416668,136.68181252083335,67.0,120.0
186,136.9361981041667,137.1511100625,68.0,112.0
187,137.19935560416667,137.39453075,70.0,109.0
188,137.46251310416667,138.57435354166668,72.0,109.0
189,139.04145810416668,139.1861947291667,67.0,104.0
190,139.30461560416668,140.26075452083336,65.0,117.0
191,141.14671810416667,141.28926175,67.0,120.0
192,141.40987560416667,141.5414543541667,68.0,109.0
193,141.67303310416668,142.0721553125,70.0,109.0
194,142.1993481041667,142.381365375,72.0,101.0
195,142.46250560416667,143.06776785416668,70.0,106.0
196,143.25197810416668,143.40767962500001,68.0,99.0
197,143.5151356041667,144.56337964583335,67.0,113.0
198,145.35723810416667,145.49320281250002,67.0,117.0
199,145.62039560416667,145.7366235,68.0,99.0
200,145.88355310416668,146.2190789166667,70.0,109.0
201,146.4098681041667,146.54363983333334,63.0,109.0
202,146.67302560416667,146.99320056250002,63.0,109.0
203,147.46249810416668,147.59626983333334,67.0,117.0
204,147.7256556041667,147.8440764791667,68.0,109.0
205,147.98881310416667,148.328724875,70.0,109.0
206,148.51512810416668,148.66205770833335,68.0,106.0
207,148.77828560416668,149.4142495625,67.0,113.0
208,149.56775810416667,149.99100308333334,65.0,109.0
209,150.09407310416668,151.51731658333335,67.0,120.0
210,151.6730181041667,151.83749154166668,68.0,112.0
211,151.9361756041667,152.99538454166668,70.0,112.0
212,153.197138625,153.47783995833333,67.0,120.0
213,153.57433104166668,153.78705002083333,68.0,109.0
214,153.93617260416667,154.13573370833333,70.0,109.0
215,154.26292650000002,155.73660850000002,72.0,109.0
216,155.8835381041667,156.26073052083333,75.0,112.0
217,156.40985310416667,157.50634268750002,71.0,117.0
218,157.98879810416668,158.32213093750002,75.0,112.0
219,158.5151131041667,158.85941083333336,70.0,112.0
220,159.04142810416667,159.39449775000003,72.0,112.0
221,159.56774310416668,159.96467233333334,70.0,109.0
222,160.0940581041667,160.26291750000001,68.0,104.0
223,160.35721560416667,161.433968375,67.0,110.0
224,162.19931810416668,162.35940558333334,67.0,113.0
225,162.46247560416668,162.58747541666668,68.0,106.0
226,162.7256331041667,162.9887906041667,70.0,112.0
227,163.25194810416667,163.3769479166667,63.0,104.0
228,163.51510560416668,164.3440517291667,63.0,109.0
229,164.56773560416667,164.7322090416667,63.0,106.0
230,164.83089310416668,165.881330125,65.0,106.0
231,166.40983810416668,166.88571458333334,63.0,109.0
232,166.9361531041667,167.43834533333336,65.0,106.0
233,167.46246810416667,169.56334214583336,63.0,106.0
234,170.09404310416667,170.36597252083334,67.0,120.0
235,170.62035810416668,170.8352700625,68.0,112.0
236,170.8835156041667,171.07869075000002,70.0,109.0
237,171.1466731041667,172.25851354166667,72.0,109.0
238,172.72561810416667,172.87035472916668,67.0,104.0
239,172.98877560416668,173.94491452083335,65.0,117.0
240,174.8308781041667,174.97342175000003,67.0,120.0
241,175.0940356041667,175.22561435416668,68.0,109.0
242,175.35719310416667,175.75631531250002,70.0,109.0
243,175.88350810416668,176.06552537500002,72.0,101.0
244,176.14666560416669,176.7519278541667,70.0,106.0
245,176.93613810416667,177.091839625,68.0,99.0
246,177.19929560416668,178.24753964583334,67.0,113.0
247,179.0413981041667,179.1773628125,67.0,117.0
248,179.3045556041667,179.42078350000003,68.0,99.0
249,179.56771310416667,179.90323891666668,70.0,109.0
250,180.09402810416668,180.22779983333334,63.0,109.0
251,180.3571856041667,180.6773605625,63.0,109.0
252,181.14665810416668,181.28042983333336,67.0,117.0
253,181.40981560416668,181.52823647916668,68.0,109.0
254,181.6729731041667,182.01288487500003,70.0,109.0
255,182.19928810416667,182.34621770833334,68.0,106.0
256,182.46244560416667,183.09840956250002,67.0,113.0
257,183.2519181041667,183.67516308333336,65.0,109.0
258,183.77823310416667,185.20147658333335,67.0,120.0
259,185.35717810416668,185.52165154166667,68.0,112.0
260,185.62033560416668,186.67954454166667,70.0,112.0
261,186.88129862500003,187.16199995833335,67.0,120.0
262,187.25849104166667,187.47121002083335,68.0,109.0
263,187.6203326041667,187.81989370833335,70.0,109.0
264,187.9470865,189.4207685,72.0,109.0
265,189.56769810416668,189.94489052083335,75.0,112.0
266,190.0940131041667,191.19050268750001,71.0,117.0
267,191.6729581041667,192.0062909375,75.0,112.0
268,192.19927310416668,192.54357083333335,70.0,112.0
269,192.7255881041667,193.07865775000002,72.0,112.0
270,193.25190310416667,193.64883233333336,70.0,109.0
271,193.77821810416668,193.9470775,68.0,104.0
272,194.0413756041667,195.11812837500003,67.0,110.0
273,195.88347810416667,196.04356558333336,67.0,113.0
274,196.14663560416668,196.2716354166667,68.0,106.0
275,196.40979310416668,196.6729506041667,70.0,112.0
276,196.9361081041667,197.06110791666669,63.0,104.0
277,197.1992656041667,198.02821172916669,63.0,109.0
278,198.2518956041667,198.41636904166668,63.0,106.0
279,198.5150531041667,199.56549012500003,65.0,106.0
280,200.09399810416667,200.56987458333336,63.0,109.0
281,200.62031310416668,201.12250533333335,65.0,106.0
282,204.30451810416668,204.51065814583336,67.0,113.0
283,201.1466281041667,204.56109666666669,63.0,106.0
284,204.5874124166667,204.77600862500003,68.0,106.0
285,204.9996925,205.44486727083336,70.0,112.0
286,205.92512970833334,206.08741016666667,63.0,96.0
287,206.24969062500003,206.77161966666668,63.0,106.0
288,207.0852156875,207.22995231250002,63.0,106.0
289,207.35275914583335,207.8439864791667,65.0,109.0
290,209.9295096666667,210.144421625,63.0,109.0
291,210.3746844375,212.65318979166668,63.0,96.0
