,start,end,pitch,velocity
0,31.981028625,32.1154981875,71.0,92.0
1,32.208301125,32.4829220625,71.0,88.0
2,32.662846125,32.787846,71.0,88.0
3,32.890118625,33.140118375,71.0,89.0
4,33.344663625,33.481027125,70.0,89.0
5,33.571936125,34.632541125,68.0,90.0
6,35.162843625,35.3162525625,63.0,92.0
7,35.390116125,35.526479625,68.0,79.0
8,35.617388625,36.6211755,66.0,87.0
9,36.981023625,37.2973111875,64.0,85.0
10,37.435568625,38.806779375,63.0,88.0
11,39.253748625,39.3844303125,71.0,88.0
12,39.481021125,39.6154906875,71.0,84.0
13,39.708293625,39.829505625,71.0,87.0
14,39.935566125,40.060566,71.0,87.0
15,40.162838625,40.4696565,71.0,94.0
16,40.617383625,40.9867014375,73.0,92.0
17,41.071928625,42.0151095,68.0,85.0
18,42.890108625,43.0094266875,73.0,94.0
19,43.117381125,43.223441625,73.0,87.0
20,43.344653625,43.4791231875,73.0,87.0
21,43.571926125,43.7177593125,73.0,88.0
22,43.799198625,44.132531625,73.0,92.0
23,44.253743625,44.6609401875,71.0,87.0
24,44.708288625,45.0889700625,68.0,84.0
25,45.162833625,46.2063931875,70.0,83.0
26,46.299196125,46.473438375,63.0,88.0
27,46.526468625,46.6514685,75.0,86.0
28,46.753741125,46.867377375,75.0,94.0
29,46.981013625,47.09843775,75.0,87.0
30,47.208286125,47.3238163125,75.0,86.0
31,47.435558625,47.5624524375,75.0,88.0
32,47.662831125,47.7897249375,71.0,84.0
33,47.890103625,48.0094216875,70.0,82.0
34,48.117376125,48.2366941875,68.0,88.0
35,48.344648625,49.268890125,75.0,90.0
36,49.708283625,49.8389653125,71.0,87.0
37,49.935556125,50.0757075,73.0,94.0
38,50.162828625,50.49237375,75.0,89.0
39,50.617373625,50.7632068125,78.0,85.0
40,50.844646125,51.352221375,78.0,87.0
41,51.526463625,51.79540275,75.0,87.0
42,51.981008625,52.9847955,71.0,86.0
43,53.344643625,53.49237075,68.0,85.0
44,53.571916125,53.7025978125,70.0,85.0
45,53.799188625,54.981005625,71.0,85.0
46,55.162823625,55.3086568125,71.0,87.0
47,55.390096125,55.776459375,75.0,87.0
48,55.844641125,56.62873125,73.0,90.0
49,57.435548625,57.5605485,73.0,99.0
50,57.662821125,57.7821391875,75.0,84.0
51,57.890093625,58.0094116875,73.0,87.0
52,58.117366125,58.2366841875,71.0,88.0
53,58.344638625,58.496153625,68.0,88.0
54,58.571911125,59.215849875,76.0,85.0
55,59.253728625,60.29539425,75.0,90.0
56,61.071908625,61.2063781875,71.0,92.0
57,61.299181125,61.5738020625,71.0,88.0
58,61.753726125,61.878726,71.0,88.0
59,61.980998625,62.230998375,71.0,89.0
60,62.435543625,62.571907125,70.0,89.0
61,62.662816125,63.723421125,68.0,90.0
62,64.253723625,64.4071325625,63.0,92.0
63,64.480996125,64.617359625,68.0,79.0
64,64.708268625,65.7120555,66.0,87.0
65,66.071903625,66.3881911875,64.0,85.0
66,66.526448625,67.897659375,63.0,88.0
67,68.344628625,68.4753103125,71.0,88.0
68,68.571901125,68.7063706875,71.0,84.0
69,68.799173625,68.920385625,71.0,87.0
70,69.026446125,69.151446,71.0,87.0
71,69.253718625,69.5605365,71.0,94.0
72,69.708263625,70.0775814375,73.0,92.0
73,70.162808625,71.1059895,68.0,85.0
74,71.980988625,72.1003066875,73.0,94.0
75,72.208261125,72.314321625,73.0,87.0
76,72.435533625,72.5700031875,73.0,87.0
77,72.662806125,72.8086393125,73.0,88.0
78,72.890078625,73.223411625,73.0,92.0
79,73.344623625,73.7518201875,71.0,87.0
80,73.79916862500001,74.1798500625,68.0,84.0
81,74.253713625,75.2972731875,70.0,83.0
82,75.390076125,75.564318375,63.0,88.0
83,75.617348625,75.7423485,75.0,86.0
84,75.844621125,75.958257375,75.0,94.0
85,76.071893625,76.18931775,75.0,87.0
86,76.299166125,76.4146963125,75.0,86.0
87,76.526438625,76.6533324375,75.0,88.0
88,76.753711125,76.8806049375,71.0,84.0
89,76.980983625,77.10030168750001,70.0,82.0
90,77.208256125,77.3275741875,68.0,88.0
91,77.435528625,78.359770125,75.0,90.0
92,78.799163625,78.9298453125,71.0,87.0
93,79.026436125,79.1665875,73.0,94.0
94,79.253708625,79.58325375,75.0,89.0
95,79.708253625,79.8540868125,78.0,85.0
96,79.935526125,80.443101375,78.0,87.0
97,80.617343625,80.88628275,75.0,87.0
98,81.071888625,82.0756755,71.0,86.0
99,82.435523625,82.58325075,68.0,85.0
100,82.662796125,82.7934778125,70.0,85.0
101,82.890068625,84.07188562500001,71.0,85.0
102,84.253703625,84.3995368125,71.0,87.0
103,84.480976125,84.867339375,75.0,87.0
104,84.935521125,85.71961125,73.0,90.0
105,86.526428625,86.6514285,73.0,99.0
106,86.753701125,86.8730191875,75.0,84.0
107,86.980973625,87.1002916875,73.0,87.0
108,87.208246125,87.3275641875,71.0,88.0
109,87.435518625,87.587033625,70.0,88.0
110,87.662791125,88.306729875,71.0,85.0
111,88.344608625,90.162788625,68.0,90.0
112,91.753696125,91.91657475,75.0,94.0
113,91.980968625,92.0964988125,80.0,90.0
114,92.208241125,92.768846625,80.0,85.0
115,92.890058625,93.223391625,80.0,87.0
116,93.344603625,93.4752853125,75.0,90.0
117,93.571876125,93.9241485,75.0,99.0
118,94.026421125,94.8616475625,73.0,92.0
119,94.935511125,95.05293525,71.0,88.0
120,95.162783625,95.29535925,71.0,90.0
121,95.390056125,95.5207378125,73.0,100.0
122,95.617328625,96.1911916875,75.0,92.0
123,96.29914612500001,96.4714944375,76.0,90.0
124,96.526418625,96.8767970625,75.0,87.0
125,96.980963625,97.41656925,73.0,92.0
126,97.435508625,98.6684619375,71.0,89.0
127,98.799143625,98.927931375,68.0,90.0
128,99.026416125,99.1608856875,70.0,85.0
129,99.253688625,99.3786885,71.0,87.0
130,99.480961125,99.8351274375,71.0,86.0
131,99.935506125,100.0661878125,71.0,85.0
132,100.162778625,100.47717225,71.0,87.0
133,100.617323625,100.738535625,73.0,94.0
134,100.844596125,101.177929125,73.0,92.0
135,101.299141125,102.12111,68.0,87.0
136,102.435503625,102.5605035,68.0,94.0
137,102.662776125,102.7934578125,70.0,89.0
138,102.890048625,103.0093666875,71.0,86.0
139,103.117321125,103.4108814375,71.0,85.0
140,103.571866125,103.68929025,71.0,89.0
141,103.799138625,104.12678981250001,71.0,89.0
142,104.253683625,104.5889105625,76.0,88.0
143,104.708228625,105.867318375,75.0,88.0
144,106.299136125,106.465802625,75.0,86.0
145,106.526408625,106.6457266875,80.0,87.0
146,106.753681125,107.3010290625,80.0,84.0
147,107.435498625,107.7820891875,80.0,87.0
148,107.890043625,108.0055738125,75.0,87.0
149,108.117316125,108.480952125,75.0,88.0
150,108.571861125,109.3692088125,73.0,88.0
151,109.480951125,109.5699661875,71.0,94.0
152,109.708223625,109.8313295625,71.0,94.0
153,109.935496125,110.060496,73.0,90.0
154,110.162768625,110.7442074375,75.0,87.0
155,110.844586125,111.011252625,76.0,85.0
156,111.071858625,111.412767375,75.0,92.0
157,111.526403625,111.8616305625,73.0,87.0
158,111.980948625,113.03776575,71.0,86.0
159,113.344583625,113.4752653125,68.0,88.0
160,113.571856125,113.7120075,70.0,85.0
161,113.799128625,113.905189125,71.0,85.0
162,114.026401125,114.363522,71.0,84.0
163,114.480946125,114.605946,71.0,85.0
164,114.708218625,115.0207183125,71.0,88.0
165,115.162763625,115.272612,73.0,89.0
166,115.390036125,115.768823625,73.0,90.0
167,115.844581125,116.587004625,68.0,89.0
168,116.980943625,117.109731375,68.0,90.0
169,117.208216125,117.344579625,70.0,87.0
170,117.435488625,117.549124875,71.0,87.0
171,117.662761125,117.9525335625,71.0,89.0
172,118.117306125,118.2441999375,71.0,86.0
173,118.344578625,118.67791162500001,71.0,92.0
174,118.79912362500001,119.121093,76.0,85.0
175,119.253668625,120.450637125,75.0,88.0
176,120.617303625,121.0453335,71.0,89.0
177,121.071848625,123.7896489375,68.0,90.0
178,139.253648625,139.3881181875,71.0,92.0
179,139.480921125,139.7555420625,71.0,88.0
180,139.935466125,140.060466,71.0,88.0
181,140.162738625,140.412738375,71.0,89.0
182,140.617283625,140.753647125,70.0,89.0
183,140.844556125,141.905161125,68.0,90.0
184,142.435463625,142.5888725625,63.0,92.0
185,142.662736125,142.799099625,68.0,79.0
186,142.890008625,143.8937955,66.0,87.0
187,144.253643625,144.5699311875,64.0,85.0
188,144.708188625,146.079399375,63.0,88.0
189,146.526368625,146.6570503125,71.0,88.0
190,146.753641125,146.8881106875,71.0,84.0
191,146.980913625,147.102125625,71.0,87.0
192,147.208186125,147.333186,71.0,87.0
193,147.435458625,147.7422765,71.0,94.0
194,147.890003625,148.2593214375,73.0,92.0
195,148.344548625,149.2877295,68.0,85.0
196,150.162728625,150.2820466875,73.0,94.0
197,150.390001125,150.496061625,73.0,87.0
198,150.617273625,150.7517431875,73.0,87.0
199,150.844546125,150.9903793125,73.0,88.0
200,151.071818625,151.405151625,73.0,92.0
201,151.526363625,151.9335601875,71.0,87.0
202,151.980908625,152.3615900625,68.0,84.0
203,152.435453625,153.4790131875,70.0,83.0
204,153.571816125,153.746058375,63.0,88.0
205,153.799088625,153.9240885,75.0,86.0
206,154.026361125,154.139997375,75.0,94.0
207,154.253633625,154.37105775,75.0,87.0
208,154.480906125,154.5964363125,75.0,86.0
209,154.708178625,154.8350724375,75.0,88.0
210,154.93545112500001,155.0623449375,71.0,84.0
211,155.162723625,155.2820416875,70.0,82.0
212,155.389996125,155.5093141875,68.0,88.0
213,155.617268625,156.541510125,75.0,90.0
214,156.980903625,157.1115853125,71.0,87.0
215,157.208176125,157.3483275,73.0,94.0
216,157.435448625,157.76499375,75.0,89.0
217,157.889993625,158.0358268125,78.0,85.0
218,158.117266125,158.624841375,78.0,87.0
219,158.799083625,159.06802275,75.0,87.0
220,159.253628625,160.2574155,71.0,86.0
221,160.617263625,160.76499075,68.0,85.0
222,160.844536125,160.9752178125,70.0,85.0
223,161.071808625,162.253625625,71.0,85.0
224,162.435443625,162.5812768125,71.0,87.0
225,162.662716125,163.049079375,75.0,87.0
226,163.117261125,163.90135125,73.0,90.0
227,164.708168625,164.8331685,73.0,99.0
228,164.935441125,165.0547591875,75.0,84.0
229,165.162713625,165.2820316875,73.0,87.0
230,165.389986125,165.5093041875,71.0,88.0
231,165.617258625,165.768773625,70.0,88.0
232,165.844531125,166.488469875,71.0,85.0
233,166.526348625,168.344528625,68.0,90.0
234,169.935436125,170.09831475000001,75.0,94.0
235,170.162708625,170.2782388125,80.0,90.0
236,170.389981125,170.950586625,80.0,85.0
237,171.071798625,171.405131625,80.0,87.0
238,171.526343625,171.6570253125,75.0,90.0
239,171.753616125,172.1058885,75.0,99.0
240,172.208161125,173.0433875625,73.0,92.0
241,173.117251125,173.23467525,71.0,88.0
242,173.344523625,173.47709925,71.0,90.0
243,173.571796125,173.7024778125,73.0,100.0
244,173.799068625,174.3729316875,75.0,92.0
245,174.480886125,174.6532344375,76.0,90.0
246,174.708158625,175.0585370625,75.0,87.0
247,175.162703625,175.59830925,73.0,92.0
248,175.617248625,176.8502019375,71.0,89.0
249,176.980883625,177.109671375,68.0,90.0
250,177.208156125,177.3426256875,70.0,85.0
251,177.43542862500001,177.5604285,71.0,87.0
252,177.662701125,178.0168674375,71.0,86.0
253,178.117246125,178.2479278125,71.0,85.0
254,178.344518625,178.65891225000001,71.0,87.0
255,178.799063625,178.920275625,73.0,94.0
256,179.026336125,179.359669125,73.0,92.0
257,179.480881125,180.30285,68.0,87.0
258,180.61724362500001,180.7422435,68.0,94.0
259,180.844516125,180.9751978125,70.0,89.0
260,181.071788625,181.1911066875,71.0,86.0
261,181.299061125,181.59262143750001,71.0,85.0
262,181.753606125,181.87103025,71.0,89.0
263,181.980878625,182.3085298125,71.0,89.0
264,182.435423625,182.7706505625,76.0,88.0
265,182.889968625,184.049058375,75.0,88.0
266,184.480876125,184.647542625,75.0,86.0
267,184.708148625,184.8274666875,80.0,87.0
268,184.935421125,185.4827690625,80.0,84.0
269,185.617238625,185.9638291875,80.0,87.0
270,186.071783625,186.1873138125,75.0,87.0
271,186.299056125,186.662692125,75.0,88.0
272,186.753601125,187.5509488125,73.0,88.0
273,187.662691125,187.7517061875,71.0,94.0
274,187.889963625,188.0130695625,71.0,94.0
275,188.117236125,188.242236,73.0,90.0
276,188.344508625,188.9259474375,75.0,87.0
277,189.026326125,189.192992625,76.0,85.0
278,189.253598625,189.594507375,75.0,92.0
279,189.708143625,190.0433705625,73.0,87.0
280,190.162688625,191.21950575,71.0,86.0
281,191.526323625,191.6570053125,68.0,88.0
282,191.753596125,191.8937475,70.0,85.0
283,191.980868625,192.086929125,71.0,85.0
284,192.208141125,192.545262,71.0,84.0
285,192.662686125,192.787686,71.0,85.0
286,192.889958625,193.2024583125,71.0,88.0
287,193.344503625,193.454352,73.0,89.0
288,193.571776125,193.950563625,73.0,90.0
289,194.026321125,194.768744625,68.0,89.0
290,195.162683625,195.29147137500001,68.0,90.0
291,195.389956125,195.526319625,70.0,87.0
292,195.617228625,195.730864875,71.0,87.0
293,195.844501125,196.1342735625,71.0,89.0
294,196.299046125,196.4259399375,71.0,86.0
295,196.526318625,196.859651625,71.0,92.0
296,196.980863625,197.302833,76.0,85.0
297,197.435408625,198.632377125,75.0,88.0
298,198.799043625,199.2270735,71.0,89.0
299,199.253588625,201.9713889375,68.0,90.0
300,220.844476125,221.00735475,76.0,94.0
301,221.071748625,221.1872788125,81.0,90.0
302,221.299021125,221.859626625,81.0,85.0
303,221.980838625,222.314171625,81.0,87.0
304,222.43538362500001,222.5660653125,76.0,90.0
305,222.662656125,223.0149285,76.0,99.0
306,223.117201125,223.9524275625,74.0,92.0
307,224.026291125,224.14371525,72.0,88.0
308,224.253563625,224.38613925,72.0,90.0
309,224.480836125,224.6115178125,74.0,100.0
310,224.708108625,225.2819716875,76.0,92.0
311,225.389926125,225.5622744375,77.0,90.0
312,225.61719862500001,225.9675770625,76.0,87.0
313,226.071743625,226.50734925,74.0,92.0
314,226.526288625,227.7592419375,72.0,89.0
315,227.889923625,228.018711375,69.0,90.0
316,228.117196125,228.2516656875,71.0,85.0
317,228.344468625,228.4694685,72.0,87.0
318,228.571741125,228.9259074375,72.0,86.0
319,229.026286125,229.1569678125,72.0,85.0
320,229.253558625,229.56795225,72.0,87.0
321,229.708103625,229.829315625,74.0,94.0
322,229.935376125,230.268709125,74.0,92.0
323,230.389921125,231.21189,69.0,87.0
324,231.526283625,231.6512835,69.0,94.0
325,231.753556125,231.8842378125,71.0,89.0
326,231.980828625,232.1001466875,72.0,86.0
327,232.208101125,232.5016614375,72.0,85.0
328,232.662646125,232.78007025,72.0,89.0
329,232.889918625,233.2175698125,72.0,89.0
330,233.344463625,233.6796905625,77.0,88.0
331,233.799008625,234.958098375,76.0,88.0
332,235.389916125,235.556582625,76.0,86.0
333,235.617188625,235.7365066875,81.0,87.0
334,235.844461125,236.3918090625,81.0,84.0
335,236.526278625,236.8728691875,81.0,87.0
336,236.980823625,237.0963538125,76.0,87.0
337,237.208096125,237.571732125,76.0,88.0
338,237.662641125,238.4599888125,74.0,88.0
339,238.571731125,238.6607461875,72.0,94.0
340,238.799003625,238.9221095625,72.0,94.0
341,239.026276125,239.151276,74.0,90.0
342,239.253548625,239.8349874375,76.0,87.0
343,239.935366125,240.102032625,77.0,85.0
344,240.162638625,240.503547375,76.0,92.0
345,240.617183625,240.9524105625,74.0,87.0
346,241.071728625,242.12854575,72.0,86.0
347,242.435363625,242.5660453125,69.0,88.0
348,242.662636125,242.8027875,71.0,85.0
349,242.889908625,242.995969125,72.0,85.0
350,243.117181125,243.454302,72.0,84.0
351,243.571726125,243.696726,72.0,85.0
352,243.798998625,244.1114983125,72.0,88.0
353,244.253543625,244.363392,74.0,89.0
354,244.480816125,244.859603625,74.0,90.0
355,244.93536112500001,245.677784625,69.0,89.0
356,246.071723625,246.200511375,69.0,90.0
357,246.298996125,246.435359625,71.0,87.0
358,246.526268625,246.639904875,72.0,87.0
359,246.753541125,247.0433135625,72.0,89.0
360,247.208086125,247.3349799375,72.0,86.0
361,247.435358625,247.768691625,72.0,92.0
362,247.889903625,248.211873,77.0,85.0
363,248.344448625,249.541417125,76.0,88.0
364,249.708083625,250.1361135,72.0,89.0
365,250.162628625,252.8804289375,69.0,90.0
366,253.3614890625,253.53762525,69.0,88.0
367,253.6039130625,253.7667916875,71.0,85.0
368,253.882321875,254.0698216875,72.0,83.0
369,254.1683064375,254.4561849375,72.0,87.0
370,254.586866625,254.7478513125,72.0,86.0
371,254.897472375,255.253532625,72.0,90.0
372,255.3880021875,255.7743654375,74.0,83.0
373,255.8880016875,257.3463335625,71.0,84.0
374,257.9239845,258.3084538125,71.0,84.0
375,258.49216575,259.4599678125,71.0,87.0
376,259.9864824375,260.9523905625,72.0,83.0
377,261.1057995,264.905038125,69.0,83.0
