,start,end,pitch,velocity
0,3.117421125,3.382572375,63.0,77.0
1,2.890148625,3.4223450625,68.0,81.0
2,3.344693625,3.6571933125,56.0,70.0
3,3.571966125,3.8124961875,63.0,75.0
4,3.799238625,4.208329125,68.0,84.0
5,4.026511125,4.2878745,63.0,76.0
6,4.253783625,4.640146875,56.0,73.0
7,4.481056125,4.7177983125,63.0,72.0
8,4.708328625,5.094691875,68.0,81.0
9,4.935601125,5.2064341875,63.0,73.0
10,5.162873625,5.4090855,56.0,64.0
11,5.390146125,5.594691375,63.0,75.0
12,5.617418625,5.950751625,68.0,82.0
13,5.844691125,6.117418125,63.0,77.0
14,2.890148625,6.2405240625,44.0,82.0
15,6.071963625,6.382569375,56.0,77.0
16,6.299236125,6.5605995,63.0,79.0
17,6.753781125,7.0511293125,63.0,75.0
18,6.526508625,7.0662808125,68.0,81.0
19,7.208326125,7.43181075,63.0,75.0
20,6.981053625,7.44696225,56.0,72.0
21,7.435598625,7.814386125,68.0,83.0
22,7.662871125,7.9109769375,63.0,70.0
23,7.890143625,8.1496130625,56.0,68.0
24,8.117416125,8.299234125,63.0,69.0
25,8.344688625,8.6230974375,68.0,75.0
26,8.571961125,8.7973396875,63.0,68.0
27,8.799233625,9.0587030625,56.0,56.0
28,9.026506125,9.2556725625,63.0,70.0
29,9.253778625,9.4905208125,68.0,80.0
30,9.481051125,9.7253690625,63.0,72.0
31,6.526508625,9.920444625,44.0,78.0
32,9.708323625,10.011353625,56.0,67.0
33,9.935596125,10.1988534375,63.0,74.0
34,10.162868625,10.52271675,68.0,80.0
35,10.390141125,10.6344590625,63.0,73.0
36,10.617413625,10.9033981875,56.0,69.0
37,10.844686125,11.0473374375,63.0,74.0
38,11.071958625,11.3844583125,68.0,79.0
39,11.299231125,11.549230875,63.0,76.0
40,11.526503625,11.8011245625,56.0,78.0
41,11.753776125,11.9564274375,63.0,76.0
42,11.981048625,12.29544225,68.0,78.0
43,12.208321125,12.4261239375,63.0,75.0
44,12.435593625,12.7140024375,56.0,75.0
45,12.662866125,12.9071840625,63.0,75.0
46,10.162868625,13.147714125,44.0,80.0
47,12.890138625,13.412865375,68.0,83.0
48,13.117411125,13.41665325,63.0,78.0
49,13.344683625,13.685592375,56.0,77.0
50,13.571956125,13.7670316875,63.0,71.0
51,13.799228625,14.223470625000001,68.0,80.0
52,14.026501125,14.291652375,63.0,76.0
53,14.253773625000001,14.54544,56.0,72.0
54,14.481046125,14.7424095,63.0,78.0
55,14.935591125,15.140136375,63.0,75.0
56,14.708318625,15.231045375,68.0,83.0
57,15.162863625,15.4299088125,56.0,71.0
58,15.390136125,15.609832875,63.0,73.0
59,15.617408625,15.988620375,68.0,77.0
60,15.844681125,16.1041505625,63.0,76.0
61,16.071953625,16.26513525,68.0,30.0
62,16.071953625,16.3920290625,56.0,79.0
63,16.299226125,16.678013625,63.0,79.0
64,16.753771125,17.0700586875,56.0,85.0
65,16.981043625,17.26513425,63.0,84.0
66,13.799228625,17.3503614375,44.0,84.0
67,16.526498625,17.3503614375,51.0,83.0
68,17.208316125,17.3806644375,68.0,84.0
69,17.435588625,17.939376,63.0,84.0
70,17.435588625,18.1571788125,56.0,84.0
71,17.890133625,18.162860625,59.0,82.0
72,18.117406125,18.215890875,63.0,75.0
73,17.662861125,18.4677845625,51.0,84.0
74,18.344678625,18.606042,56.0,90.0
75,18.344678625,18.62876925,68.0,87.0
76,18.799223625,19.0814203125,63.0,85.0
77,18.571951125000002,19.0927839375,51.0,84.0
78,17.435588625,19.155283875,44.0,84.0
79,19.026496125,19.178011125,56.0,78.0
80,19.253768625,19.4942986875,56.0,84.0
81,19.253768625,19.678010625,61.0,86.0
82,19.708313625,19.9905103125,56.0,83.0
83,19.935586125,20.0132375625,61.0,73.0
84,19.481041125,20.268919125,52.0,72.0
85,20.162858625,20.4450553125,56.0,92.0
86,20.162858625,20.50755525,64.0,89.0
87,19.253768625,20.59846425,49.0,84.0
88,20.390131125,20.6836914375,52.0,76.0
89,20.617403625,20.784070125,56.0,84.0
90,21.071948625,21.5397511875,54.0,83.0
91,21.071948625,21.556796625,58.0,81.0
92,21.526493625,21.852250875,61.0,79.0
93,21.753766125,21.8995993125,58.0,83.0
94,21.981038625,22.484826,66.0,86.0
95,21.299221125,22.496189625,49.0,80.0
96,22.208311125,22.526492625,61.0,82.0
97,21.071948625,22.556795625,42.0,85.0
98,22.435583625,22.696947,58.0,84.0
99,22.662856125,22.7859620625,54.0,87.0
100,22.890128625,23.147704125,56.0,84.0
101,22.890128625,23.363613,59.0,86.0
102,23.344673625,23.6382339375,63.0,83.0
103,23.571946125,23.685582375,59.0,82.0
104,23.799218625,24.06815775,68.0,90.0
105,24.026491125,24.3011120625,63.0,84.0
106,23.117401125,24.3276271875,51.0,80.0
107,22.890128625,24.420430125,44.0,85.0
108,24.253763625,24.4412634375,59.0,84.0
109,24.481036125,24.579520875,56.0,84.0
110,24.708308625,24.9242175,56.0,84.0
111,24.708308625,25.208308125,61.0,84.0
112,25.390126125,25.465883625,61.0,76.0
113,25.162853625,25.473459375,56.0,83.0
114,25.617398625,25.9071710625,56.0,88.0
115,25.617398625,25.935580125,64.0,86.0
116,24.708308625,26.238610125,49.0,85.0
117,24.935581125,26.2480798125,52.0,71.0
118,26.071943625,26.3124736875,61.0,88.0
119,26.299216125,26.393913,56.0,85.0
120,26.526488625,26.897700375,54.0,84.0
121,26.526488625,27.0170184375,58.0,87.0
122,26.981033625,27.28027575,61.0,83.0
123,27.208306125,27.374972625,58.0,84.0
124,27.435578625,27.5208058125,58.0,59.0
125,26.753761125,27.804896437500002,49.0,79.0
126,26.526488625,27.87118425,42.0,84.0
127,27.435578625,27.96209325,66.0,85.0
128,27.662851125,27.981032625,61.0,80.0
129,27.890123625,28.1761081875,58.0,79.0
130,28.117396125,28.253759625,54.0,84.0
131,28.344668625,28.935577125000002,59.0,83.0
132,28.344668625,29.0018649375,56.0,83.0
133,29.253758625,29.7026218125,63.0,83.0
134,29.253758625,29.7423945,56.0,83.0
135,29.708303625,29.8124701875,59.0,77.0
136,30.162848625,30.4090605,68.0,76.0
137,30.162848625,30.4696665,56.0,71.0
138,28.799213625,31.367392875,51.0,70.0
139,28.344668625,31.518907875,44.0,84.0
140,31.071938625,31.8768620625,59.0,77.0
141,31.526483625,31.901483250000002,56.0,73.0
142,31.071938625,31.9071650625,63.0,78.0
143,32.435573625,33.147694125,51.0,71.0
144,32.662846125,33.212088,59.0,78.0
145,33.117391125,33.47723925,56.0,71.0
146,31.981028625,33.606027,44.0,83.0
147,33.799208625,34.060572,63.0,75.0
148,34.253753625,34.571935125,56.0,76.0
149,34.026481125,34.99238925,51.0,79.0
150,34.481026125,35.018904375,63.0,83.0
151,33.799208625,35.2291314375,44.0,76.0
152,36.071933625,36.7783723125,61.0,77.0
153,36.299206125,36.7859480625,58.0,78.0
154,35.844661125,37.1117053125,49.0,75.0
155,35.617388625,37.2575385,42.0,78.0
156,36.753751125,37.5624624375,66.0,83.0
157,37.890113625,38.3995828125,54.0,77.0
158,38.117386125,38.4147343125,61.0,83.0
159,37.662841125,38.8048854375,51.0,65.0
160,37.435568625,38.8238248125,47.0,79.0
161,38.799203625,38.9791276875,54.0,78.0
162,38.571931125,39.041627625,63.0,84.0
163,39.253748625,39.518899875,56.0,75.0
164,39.253748625,39.602233125,59.0,78.0
165,39.708293625,39.8692783125,56.0,81.0
166,39.935566125,40.526474625,63.0,85.0
167,39.253748625,40.8844288125,44.0,81.0
168,39.481021125,40.9147318125,51.0,76.0
169,41.526473625,41.81056425,51.0,69.0
170,41.071928625,41.829503625,59.0,76.0
171,41.753746125,42.2632153125,56.0,79.0
172,42.208291125,42.443139375,59.0,88.0
173,41.981018625,42.454503,51.0,78.0
174,41.071928625,42.49238175,44.0,83.0
175,42.890108625,43.3654869375,56.0,76.0
176,42.890108625,43.9791226875,64.0,78.0
177,43.344653625,44.041622625,52.0,66.0
178,43.571926125,44.0738195625,56.0,80.0
179,42.890108625,44.2707890625,49.0,83.0
180,44.026471125,44.3351829375,61.0,83.0
181,44.253743625,44.3995768125,56.0,73.0
182,44.708288625,44.909046000000004,58.0,77.0
183,44.708288625,45.666621,63.0,84.0
184,45.162833625,45.7423785,58.0,77.0
185,44.708288625,45.96207525,51.0,84.0
186,45.617378625,45.97722675,67.0,84.0
187,45.844651125,46.0851811875,63.0,83.0
188,46.071923625,46.170408375,58.0,84.0
189,46.526468625,47.041619625,59.0,78.0
190,46.526468625,47.05298325,56.0,76.0
191,46.981013625,47.2063921875,63.0,83.0
192,47.208286125,47.4601798125,68.0,84.0
193,47.662831125,47.7404825625,63.0,88.0
194,46.526468625,48.1874518125,44.0,84.0
195,46.753741125,48.208285125,51.0,75.0
196,48.799193625,49.087072125,56.0,84.0
197,49.026466125,49.162829625,59.0,89.0
198,48.571921125,49.5548746875,51.0,78.0
199,48.344648625,49.5927534375,44.0,83.0
200,49.481011125,49.70449575,56.0,81.0
201,49.481011125,49.738586625,63.0,87.0
202,49.708283625,49.8806319375,44.0,76.0
203,50.162828625,50.3919950625,54.0,84.0
204,50.162828625,50.6950250625,59.0,84.0
205,50.617373625,50.8048734375,54.0,75.0
206,50.162828625,51.6211605,47.0,89.0
207,50.844646125,52.18934175,63.0,84.0
208,52.208281125,52.473432375,59.0,77.0
209,52.435553625,52.746159375,54.0,83.0
210,52.662826125,53.1722953125,66.0,82.0
211,53.117371125,53.4033556875,63.0,85.0
212,51.981008625,53.4090375,47.0,79.0
213,53.344643625,53.6003251875,59.0,80.0
214,53.571916125,53.9071430625,54.0,77.0
215,54.253733625,54.5889605625,52.0,74.0
216,53.799188625,55.011308625,40.0,84.0
217,54.026461125,55.0662328125,47.0,76.0
218,54.481006125,55.0851721875,59.0,84.0
219,55.617368625,56.12873175,58.0,76.0
220,55.617368625,56.1722923125,54.0,76.0
221,56.071913625,56.329489125,61.0,80.0
222,56.299186125,56.84085225,66.0,87.0
223,56.753731125,56.878731,61.0,89.0
224,55.844641125,56.939337,49.0,77.0
225,55.617368625,56.9601703125,42.0,83.0
226,56.981003625,57.0738065625,54.0,82.0
227,57.435548625,57.632518125,56.0,76.0
228,57.435548625,58.1230479375,61.0,84.0
229,57.890093625,58.1495630625,56.0,75.0
230,57.435548625,58.5321384375,49.0,84.0
231,58.117366125,58.5889565625,64.0,85.0
232,58.571911125,58.852213875,61.0,84.0
233,59.253728625,59.4753193125,58.0,78.0
234,59.253728625,59.556758625,63.0,83.0
235,59.708273625,59.827591687500004,58.0,85.0
236,59.935546125,60.102212625,67.0,100.0
237,59.481001125,60.5359243125,46.0,78.0
238,59.253728625,60.5605455,39.0,85.0
239,60.390091125,60.62872725,63.0,86.0
240,60.617363625,60.8957724375,58.0,85.0
241,60.844636125,61.05296925,63.0,85.0
242,61.526453625,62.238574125,51.0,71.0
243,61.753726125,62.302968,59.0,78.0
244,62.208271125,62.56811925,56.0,71.0
245,61.071908625,62.696907,44.0,83.0
246,62.890088625,63.151452,63.0,75.0
247,63.344633625,63.662815125,56.0,76.0
248,63.117361125,64.08326925,51.0,79.0
249,63.571906125,64.109784375,63.0,83.0
250,62.890088625,64.3200114375,44.0,76.0
251,65.162813625,65.8692523125,61.0,77.0
252,65.390086125,65.8768280625,58.0,78.0
253,64.935541125,66.2025853125,49.0,75.0
254,64.708268625,66.3484185,42.0,78.0
255,65.844631125,66.6533424375,66.0,83.0
256,66.980993625,67.4904628125,54.0,77.0
257,67.208266125,67.5056143125,61.0,83.0
258,66.753721125,67.8957654375,51.0,65.0
259,66.526448625,67.9147048125,47.0,79.0
260,67.890083625,68.0700076875,54.0,78.0
261,67.662811125,68.132507625,63.0,84.0
262,68.344628625,68.609779875,56.0,75.0
263,68.344628625,68.693113125,59.0,78.0
264,68.799173625,68.9601583125,56.0,81.0
265,69.026446125,69.617354625,63.0,85.0
266,68.344628625,69.9753088125,44.0,81.0
267,68.571901125,70.0056118125,51.0,76.0
268,70.617353625,70.90144425,51.0,69.0
269,70.162808625,70.920383625,59.0,76.0
270,70.844626125,71.35409531250001,56.0,79.0
271,71.299171125,71.534019375,59.0,88.0
272,71.071898625,71.545383,51.0,78.0
273,70.162808625,71.58326175,44.0,83.0
274,71.980988625,72.4563669375,56.0,76.0
275,71.980988625,73.0700026875,64.0,78.0
276,72.435533625,73.132502625,52.0,66.0
277,72.662806125,73.1646995625,56.0,80.0
278,71.980988625,73.3616690625,49.0,83.0
279,73.117351125,73.4260629375,61.0,83.0
280,73.344623625,73.4904568125,56.0,73.0
281,73.79916862500001,73.999926,58.0,77.0
282,73.79916862500001,74.757501,63.0,84.0
283,74.253713625,74.8332585,58.0,77.0
284,73.79916862500001,75.05295525,51.0,84.0
285,74.708258625,75.06810675,67.0,84.0
286,74.935531125,75.1760611875,63.0,83.0
287,75.162803625,75.261288375,58.0,84.0
288,75.617348625,76.132499625,59.0,78.0
289,75.617348625,76.14386325,56.0,76.0
290,76.071893625,76.2972721875,63.0,83.0
291,76.299166125,76.5510598125,68.0,84.0
292,76.753711125,76.8313625625,63.0,88.0
293,75.617348625,77.2783318125,44.0,84.0
294,75.844621125,77.299165125,51.0,75.0
295,77.890073625,78.177952125,56.0,84.0
296,78.117346125,78.253709625,59.0,89.0
297,77.662801125,78.6457546875,51.0,78.0
298,77.435528625,78.6836334375,44.0,83.0
299,78.571891125,78.79537575,56.0,81.0
300,78.571891125,78.829466625,63.0,87.0
301,78.799163625,78.9715119375,44.0,76.0
302,79.253708625,79.4828750625,54.0,84.0
303,79.253708625,79.7859050625,59.0,84.0
304,79.708253625,79.8957534375,54.0,75.0
305,79.253708625,80.7120405,47.0,89.0
306,79.935526125,81.28022175,63.0,84.0
307,81.299161125,81.564312375,59.0,77.0
308,81.526433625,81.837039375,54.0,83.0
309,81.753706125,82.2631753125,66.0,82.0
310,82.208251125,82.4942356875,63.0,85.0
311,81.071888625,82.4999175,47.0,79.0
312,82.435523625,82.6912051875,59.0,80.0
313,82.662796125,82.9980230625,54.0,77.0
314,83.344613625,83.6798405625,52.0,74.0
315,82.890068625,84.102188625,40.0,84.0
316,83.117341125,84.1571128125,47.0,76.0
317,83.571886125,84.1760521875,59.0,84.0
318,84.708248625,85.21961175,58.0,76.0
319,84.708248625,85.2631723125,54.0,76.0
320,85.162793625,85.420369125,61.0,80.0
321,85.390066125,85.93173225,66.0,87.0
322,85.844611125,85.969611,61.0,89.0
323,84.935521125,86.030217,49.0,77.0
324,84.708248625,86.0510503125,42.0,83.0
325,86.071883625,86.1646865625,54.0,82.0
326,86.526428625,86.821882875,61.0,81.0
327,86.526428625,86.8692313125,49.0,86.0
328,86.753701125,86.8919585625,56.0,77.0
329,86.526428625,87.087034125,68.0,79.0
330,86.980973625,87.3048369375,61.0,84.0
331,87.208246125,87.374912625,64.0,83.0
332,87.435518625,87.8635485,67.0,85.0
333,87.662791125,88.030215,46.0,81.0
334,87.435518625,88.0358968125,39.0,86.0
335,87.890063625,88.12869975,63.0,89.0
336,88.117336125,88.2404420625,67.0,89.0
337,88.344608625,88.5737750625,63.0,84.0
338,88.344608625,88.6040780625,68.0,84.0
339,88.799153625,88.9241535,63.0,83.0
340,88.571881125,89.132486625,51.0,78.0
341,89.026426125,89.2555925625,63.0,83.0
342,89.026426125,89.3313500625,71.0,86.0
343,89.253698625,89.662789125,51.0,76.0
344,89.480971125,89.6646830625,63.0,90.0
345,89.480971125,89.7177133125,70.0,87.0
346,88.344608625,89.9222585625,44.0,84.0
347,90.162788625,90.5283185625,63.0,85.0
348,90.162788625,90.67415175000001,67.0,79.0
349,90.844606125,91.079454375,75.0,90.0
350,90.844606125,91.14384825,63.0,90.0
351,90.617333625,91.37112075,46.0,74.0
352,91.299151125,91.571878125,63.0,92.0
353,91.299151125,91.632484125,67.0,97.0
354,90.162788625,91.6684689375,39.0,87.0
355,91.299151125,91.9108929375,70.0,88.0
356,91.526423625,91.9184686875,46.0,87.0
357,91.753696125,91.9752868125,63.0,94.0
358,91.980968625,92.2328623125,59.0,84.0
359,91.980968625,92.4601348125,63.0,87.0
360,92.435513625,92.5813468125,59.0,86.0
361,92.208241125,92.71960425,51.0,83.0
362,92.662786125,93.3805884375,59.0,84.0
363,91.980968625,93.624906375,44.0,85.0
364,93.344603625,93.63627,51.0,76.0
365,92.662786125,93.6571033125,63.0,90.0
366,92.662786125,93.7896789375,68.0,85.0
367,93.571876125,93.852178875,59.0,85.0
368,94.253693625,94.390057125,56.0,84.0
369,94.026421125,94.549147875,52.0,81.0
370,93.799148625,94.609753875,49.0,94.0
371,94.480966125,94.757481,56.0,94.0
372,94.480966125,94.7707385625,64.0,87.0
373,94.708238625,94.776420375,49.0,62.0
374,94.708238625,95.0131625625,52.0,79.0
375,94.935511125,95.1230109375,56.0,87.0
376,94.935511125,95.1230109375,61.0,86.0
377,95.617328625,96.06051,54.0,83.0
378,95.617328625,96.1457371875,59.0,84.0
379,96.071873625,96.412782375,51.0,68.0
380,96.29914612500001,96.556721625,63.0,89.0
381,96.29914612500001,96.5737670625,54.0,88.0
382,96.753691125,96.958236375,54.0,87.0
383,95.617328625,97.12869075,47.0,86.0
384,96.526418625,97.28020575,51.0,73.0
385,96.753691125,97.3275541875,59.0,92.0
386,97.208236125,97.3578571875,54.0,78.0
387,97.435508625,97.6684629375,56.0,82.0
388,97.435508625,97.753690125,59.0,82.0
389,97.89005362500001,97.9980080625,56.0,85.0
390,97.662781125,98.212023,51.0,78.0
391,98.117326125,98.4336136875,56.0,88.0
392,98.117326125,98.4336136875,63.0,87.0
393,97.435508625,98.6646740625,44.0,84.0
394,98.344598625,98.6760376875,51.0,85.0
395,98.571871125,98.7726285,56.0,86.0
396,98.571871125,98.7896739375,59.0,89.0
397,99.253688625,99.5207338125,56.0,80.0
398,99.253688625,99.74990025,59.0,84.0
399,99.253688625,99.867324375,64.0,79.0
400,99.708233625,100.018839375,56.0,77.0
401,99.935506125,100.1911876875,59.0,89.0
402,99.480961125,100.4942176875,47.0,76.0
403,100.390051125,100.5661873125,56.0,84.0
404,99.253688625,100.7593689375,40.0,84.0
405,100.390051125,100.7820961875,64.0,83.0
406,100.617323625,100.82565675,47.0,86.0
407,100.844596125,100.93171725,64.0,53.0
408,100.844596125,100.9752778125,56.0,83.0
409,101.071868625,101.2934593125,56.0,84.0
410,101.071868625,101.4677015625,59.0,85.0
411,101.526413625,101.6305801875,56.0,87.0
412,101.299141125,101.8654284375,51.0,78.0
413,101.753686125,102.0737615625,56.0,90.0
414,101.753686125,102.0775494375,63.0,89.0
415,101.980958625,102.272625,51.0,83.0
416,102.208231125,102.450655125,56.0,86.0
417,102.208231125,102.4677005625,59.0,89.0
418,102.208231125,102.4752763125,63.0,90.0
419,101.071868625,102.4980035625,44.0,87.0
420,102.435503625,102.5661853125,51.0,76.0
421,102.890048625,103.1230029375,54.0,84.0
422,102.890048625,103.4184571875,59.0,85.0
423,103.344593625,103.4942146875,54.0,83.0
424,103.571866125,103.852168875,54.0,94.0
425,103.571866125,104.087017125,63.0,89.0
426,104.026411125,104.329441125,54.0,80.0
427,102.890048625,104.3843653125,47.0,89.0
428,104.253683625,104.609743875,61.0,86.0
429,104.708228625,104.7972436875,39.0,87.0
430,104.708228625,105.0320919375,63.0,86.0
431,105.162773625,105.5055763125,58.0,89.0
432,105.390046125,105.640045875,61.0,89.0
433,105.844591125,105.874894125,71.0,79.0
434,104.935501125,105.9108789375,51.0,71.0
435,105.617318625,105.9676970625,55.0,84.0
436,105.844591125,106.1002726875,61.0,97.0
437,106.071863625,106.193075625,58.0,85.0
438,105.844591125,106.3464845625,67.0,94.0
439,106.299136125,106.3957269375,61.0,85.0
440,106.526408625,106.7783023125,59.0,84.0
441,106.526408625,107.0055748125,63.0,87.0
442,106.980953625,107.1267868125,59.0,86.0
443,106.753681125,107.26504425,51.0,83.0
444,107.208226125,107.9260284375,59.0,84.0
445,106.526408625,108.170346375,44.0,85.0
446,107.890043625,108.18171,51.0,76.0
447,107.208226125,108.2025433125,63.0,90.0
448,107.208226125,108.3351189375,68.0,85.0
449,108.117316125,108.397618875,59.0,85.0
450,108.799133625,108.935497125,56.0,84.0
451,108.571861125,109.094587875,52.0,81.0
452,108.344588625,109.155193875,49.0,94.0
453,109.026406125,109.302921,56.0,94.0
454,109.026406125,109.3161785625,64.0,87.0
455,109.253678625,109.321860375,49.0,62.0
456,109.253678625,109.5586025625,52.0,79.0
457,109.480951125,109.6684509375,56.0,87.0
458,109.480951125,109.6684509375,61.0,86.0
459,110.162768625,110.60595,54.0,83.0
460,110.162768625,110.6911771875,59.0,84.0
461,110.617313625,110.958222375,51.0,68.0
462,110.844586125,111.102161625,63.0,89.0
463,110.844586125,111.1192070625,54.0,88.0
464,111.299131125,111.503676375,54.0,87.0
465,110.162768625,111.67413075,47.0,86.0
466,111.071858625,111.82564575,51.0,73.0
467,111.299131125,111.8729941875,59.0,92.0
468,111.753676125,111.9032971875,54.0,78.0
469,111.980948625,112.2139029375,56.0,82.0
470,111.980948625,112.299130125,59.0,82.0
471,112.435493625,112.5434480625,56.0,85.0
472,112.208221125,112.757463,51.0,78.0
473,112.662766125,112.9790536875,56.0,88.0
474,112.662766125,112.9790536875,63.0,87.0
475,111.980948625,113.2101140625,44.0,84.0
476,112.890038625,113.2214776875,51.0,85.0
477,113.117311125,113.3180685,56.0,86.0
478,113.117311125,113.3351139375,59.0,89.0
479,113.799128625,114.0661738125,56.0,80.0
480,113.799128625,114.29534025,59.0,84.0
481,113.799128625,114.412764375,64.0,79.0
482,114.253673625,114.564279375,56.0,77.0
483,114.480946125,114.7366276875,59.0,89.0
484,114.026401125,115.0396576875,47.0,76.0
485,114.935491125,115.1116273125,56.0,84.0
486,113.799128625,115.3048089375,40.0,84.0
487,114.935491125,115.3275361875,64.0,83.0
488,115.162763625,115.37109675,47.0,86.0
489,115.390036125,115.47715725,64.0,53.0
490,115.390036125,115.5207178125,56.0,83.0
491,115.617308625,115.8388993125,56.0,84.0
492,115.617308625,116.0131415625,59.0,85.0
493,116.071853625,116.1760201875,56.0,87.0
494,115.844581125,116.4108684375,51.0,78.0
495,116.299126125,116.6192015625,56.0,90.0
496,116.299126125,116.6229894375,63.0,89.0
497,116.526398625,116.818065,51.0,83.0
498,116.753671125,116.996095125,56.0,86.0
499,116.753671125,117.0131405625,59.0,89.0
500,116.753671125,117.0207163125,63.0,90.0
501,115.617308625,117.0434435625,44.0,87.0
502,116.980943625,117.1116253125,51.0,76.0
503,117.435488625,117.6684429375,54.0,84.0
504,117.435488625,117.9638971875,59.0,85.0
505,117.890033625,118.0396546875,54.0,83.0
506,118.117306125,118.397608875,54.0,94.0
507,118.117306125,118.632457125,63.0,89.0
508,118.571851125,118.874881125,54.0,80.0
509,117.435488625,118.9298053125,47.0,89.0
510,118.79912362500001,119.155183875,61.0,86.0
511,119.253668625,119.3426836875,39.0,87.0
512,119.253668625,119.5775319375,63.0,86.0
513,119.708213625,120.0510163125,58.0,89.0
514,119.935486125,120.185485875,61.0,89.0
515,120.39003112500001,120.420334125,71.0,79.0
516,119.480941125,120.4563189375,51.0,71.0
517,120.162758625,120.51313706250001,55.0,84.0
518,120.39003112500001,120.6457126875,61.0,97.0
519,120.617303625,120.738515625,58.0,85.0
520,120.39003112500001,120.8919245625,67.0,94.0
521,120.844576125,120.9411669375,61.0,85.0
522,121.071848625,121.336999875,56.0,77.0
523,121.526393625,121.624878375,56.0,87.0
524,121.071848625,121.836999375,68.0,84.0
525,121.753666125,122.02260525,63.0,85.0
526,121.753666125,122.0472264375,56.0,90.0
527,121.299121125,122.3957109375,51.0,73.0
528,121.071848625,122.6570743125,44.0,85.0
529,122.208211125,122.693059125,56.0,83.0
530,122.208211125,122.6987409375,59.0,79.0
531,122.890028625,124.291542375,59.0,82.0
532,122.890028625,124.3351029375,56.0,80.0
533,122.890028625,124.405178625,44.0,83.0
534,124.708208625,125.211996,56.0,78.0
535,125.162753625,125.723359125,52.0,84.0
536,125.390026125,125.9411619375,59.0,82.0
537,125.844571125,126.3464645625,56.0,78.0
538,124.935481125,127.0396456875,47.0,78.0
539,126.753661125,127.185478875,59.0,74.0
540,126.299116125,127.208206125,64.0,84.0
541,126.980933625,127.2631303125,52.0,79.0
542,127.208206125,127.4866149375,47.0,84.0
543,127.435478625,127.6646450625,52.0,83.0
544,127.435478625,127.7290389375,56.0,87.0
545,124.708208625,127.746084375,40.0,83.0
546,127.435478625,127.7517661875,59.0,84.0
547,127.662751125,127.7934328125,47.0,85.0
548,127.890023625,128.193053625,52.0,87.0
549,128.117296125,128.3502504375,56.0,79.0
550,128.799113625,129.03774975,59.0,76.0
551,129.026386125,129.412749375,56.0,84.0
552,129.480931125,129.6116128125,63.0,83.0
553,129.708203625,129.7858550625,56.0,55.0
554,129.935476125,130.071839625,59.0,83.0
555,130.390021125,130.5623694375,56.0,79.0
556,130.844566125,130.9600963125,56.0,84.0
557,131.071838625,131.1457021875,56.0,78.0
558,128.571841125,131.1532779375,51.0,68.0
559,131.071838625,131.3237323125,59.0,89.0
560,131.071838625,131.3313080625,63.0,90.0
561,131.299111125,131.5282775625,51.0,89.0
562,128.344568625,131.5604745,44.0,85.0
563,131.526383625,131.636232,56.0,83.0
564,131.980928625,132.2593374375,56.0,76.0
565,131.980928625,132.4695645,59.0,78.0
566,132.43547362500001,132.8843368125,56.0,82.0
567,132.662746125,132.9032761875,64.0,86.0
568,133.117291125,133.2707000625,56.0,84.0
569,133.117291125,133.37107875,59.0,87.0
570,132.208201125,133.624866375,47.0,84.0
571,131.980928625,133.6305481875,40.0,85.0
572,133.571836125,134.0964568125,56.0,79.0
573,134.253653625,134.39191106250001,56.0,84.0
574,134.026381125,134.6153956875,47.0,83.0
575,134.480926125,134.791531875,59.0,92.0
576,134.480926125,134.79531975,56.0,92.0
577,134.708198625,135.033955875,47.0,83.0
578,133.799108625,135.056683125,40.0,79.0
579,134.935471125,135.1229709375,56.0,86.0
580,134.935471125,135.2025163125,64.0,84.0
581,135.162743625,135.34077375,40.0,78.0
582,135.617288625,135.7063036875,39.0,85.0
583,135.617288625,135.848349,58.0,83.0
584,135.617288625,135.8805459375,63.0,84.0
585,135.844561125,135.9260004375,51.0,70.0
586,136.071833625,136.43168175,58.0,87.0
587,136.299106125,136.545318,61.0,92.0
588,136.526378625,136.9525145625,55.0,81.0
589,136.753651125,136.9790296875,63.0,87.0
590,136.753651125,137.0131205625,67.0,85.0
591,137.208196125,137.2593324375,71.0,78.0
592,136.980923625,137.268802125,58.0,81.0
593,136.071833625,137.306680875,51.0,55.0
594,137.208196125,137.6949380625,63.0,92.0
595,137.890013625,137.9941801875,63.0,85.0
596,137.662741125,138.1797860625,58.0,89.0
597,138.117286125,138.4146343125,63.0,97.0
598,138.117286125,138.450619125,75.0,84.0
599,138.344558625,138.7138764375,58.0,87.0
600,138.571831125,138.969558,63.0,88.0
601,137.435468625,138.9714519375,51.0,88.0
602,138.799103625,139.09834575,55.0,75.0
603,138.571831125,139.2063001875,67.0,87.0
604,138.571831125,139.238497125,70.0,84.0
605,139.026376125,139.2555425625,58.0,87.0
606,139.708193625,140.420314125,51.0,71.0
607,139.935466125,140.484708,59.0,78.0
608,140.390011125,140.74985925000001,56.0,71.0
609,139.253648625,140.878647,44.0,83.0
610,141.071828625,141.333192,63.0,75.0
611,141.526373625,141.844555125,56.0,76.0
612,141.299101125,142.26500925,51.0,79.0
613,141.753646125,142.291524375,63.0,83.0
614,141.071828625,142.5017514375,44.0,76.0
615,143.344553625,144.0509923125,61.0,77.0
616,143.571826125,144.0585680625,58.0,78.0
617,143.117281125,144.3843253125,49.0,75.0
618,142.890008625,144.5301585,42.0,78.0
619,144.026371125,144.8350824375,66.0,83.0
620,145.162733625,145.6722028125,54.0,77.0
621,145.390006125,145.6873543125,61.0,83.0
622,144.935461125,146.0775054375,51.0,65.0
623,144.708188625,146.0964448125,47.0,79.0
624,146.071823625,146.2517476875,54.0,78.0
625,145.844551125,146.314247625,63.0,84.0
626,146.526368625,146.791519875,56.0,75.0
627,146.526368625,146.874853125,59.0,78.0
628,146.980913625,147.1418983125,56.0,81.0
629,147.208186125,147.799094625,63.0,85.0
630,146.526368625,148.1570488125,44.0,81.0
631,146.753641125,148.1873518125,51.0,76.0
632,148.799093625,149.08318425,51.0,69.0
633,148.344548625,149.102123625,59.0,76.0
634,149.026366125,149.5358353125,56.0,79.0
635,149.480911125,149.715759375,59.0,88.0
636,149.253638625,149.727123,51.0,78.0
637,148.344548625,149.76500175,44.0,83.0
638,150.162728625,150.6381069375,56.0,76.0
639,150.162728625,151.2517426875,64.0,78.0
640,150.617273625,151.314242625,52.0,66.0
641,150.844546125,151.3464395625,56.0,80.0
642,150.162728625,151.5434090625,49.0,83.0
643,151.299091125,151.6078029375,61.0,83.0
644,151.526363625,151.6721968125,56.0,73.0
645,151.980908625,152.181666,58.0,77.0
646,151.980908625,152.939241,63.0,84.0
647,152.435453625,153.0149985,58.0,77.0
648,151.980908625,153.23469525,51.0,84.0
649,152.889998625,153.24984675,67.0,84.0
650,153.117271125,153.3578011875,63.0,83.0
651,153.344543625,153.443028375,58.0,84.0
652,153.799088625,154.314239625,59.0,78.0
653,153.799088625,154.32560325,56.0,76.0
654,154.253633625,154.4790121875,63.0,83.0
655,154.480906125,154.7327998125,68.0,84.0
656,154.93545112500001,155.0131025625,63.0,88.0
657,153.799088625,155.4600718125,44.0,84.0
658,154.026361125,155.480905125,51.0,75.0
659,156.071813625,156.359692125,56.0,84.0
660,156.299086125,156.435449625,59.0,89.0
661,155.844541125,156.8274946875,51.0,78.0
662,155.617268625,156.8653734375,44.0,83.0
663,156.753631125,156.97711575,56.0,81.0
664,156.753631125,157.011206625,63.0,87.0
665,156.980903625,157.1532519375,44.0,76.0
666,157.435448625,157.6646150625,54.0,84.0
667,157.435448625,157.9676450625,59.0,84.0
668,157.889993625,158.0774934375,54.0,75.0
669,157.435448625,158.8937805,47.0,89.0
670,158.117266125,159.46196175,63.0,84.0
671,159.480901125,159.746052375,59.0,77.0
672,159.708173625,160.018779375,54.0,83.0
673,159.935446125,160.4449153125,66.0,82.0
674,160.389991125,160.6759756875,63.0,85.0
675,159.253628625,160.6816575,47.0,79.0
676,160.617263625,160.8729451875,59.0,80.0
677,160.844536125,161.1797630625,54.0,77.0
678,161.526353625,161.8615805625,52.0,74.0
679,161.071808625,162.283928625,40.0,84.0
680,161.299081125,162.3388528125,47.0,76.0
681,161.753626125,162.3577921875,59.0,84.0
682,162.889988625,163.40135175,58.0,76.0
683,162.889988625,163.4449123125,54.0,76.0
684,163.344533625,163.602109125,61.0,80.0
685,163.571806125,164.11347225,66.0,87.0
686,164.026351125,164.151351,61.0,89.0
687,163.117261125,164.211957,49.0,77.0
688,162.889988625,164.2327903125,42.0,83.0
689,164.253623625,164.3464265625,54.0,82.0
690,164.708168625,165.003622875,61.0,81.0
691,164.708168625,165.0509713125,49.0,86.0
692,164.935441125,165.0736985625,56.0,77.0
693,164.708168625,165.268774125,68.0,79.0
694,165.162713625,165.4865769375,61.0,84.0
695,165.389986125,165.556652625,64.0,83.0
696,165.617258625,166.0452885,67.0,85.0
697,165.844531125,166.211955,46.0,81.0
698,165.617258625,166.2176368125,39.0,86.0
699,166.071803625,166.31043975,63.0,89.0
700,166.299076125,166.4221820625,67.0,89.0
701,166.526348625,166.7555150625,63.0,84.0
702,166.526348625,166.7858180625,68.0,84.0
703,166.980893625,167.1058935,63.0,83.0
704,166.753621125,167.314226625,51.0,78.0
705,167.208166125,167.4373325625,63.0,83.0
706,167.208166125,167.5130900625,71.0,86.0
707,167.435438625,167.844529125,51.0,76.0
708,167.662711125,167.8464230625,63.0,90.0
709,167.662711125,167.89945331250001,70.0,87.0
710,166.526348625,168.1039985625,44.0,84.0
711,168.344528625,168.7100585625,63.0,85.0
712,168.344528625,168.85589175,67.0,79.0
713,169.026346125,169.261194375,75.0,90.0
714,169.026346125,169.32558825,63.0,90.0
715,168.799073625,169.55286075,46.0,74.0
716,169.480891125,169.753618125,63.0,92.0
717,169.480891125,169.814224125,67.0,97.0
718,168.344528625,169.8502089375,39.0,87.0
719,169.480891125,170.0926329375,70.0,88.0
720,169.708163625,170.10020868750001,46.0,87.0
721,169.935436125,170.1570268125,63.0,94.0
722,170.162708625,170.4146023125,59.0,84.0
723,170.162708625,170.6418748125,63.0,87.0
724,170.617253625,170.7630868125,59.0,86.0
725,170.389981125,170.90134425,51.0,83.0
726,170.844526125,171.5623284375,59.0,84.0
727,170.162708625,171.806646375,44.0,85.0
728,171.526343625,171.81801,51.0,76.0
729,170.844526125,171.8388433125,63.0,90.0
730,170.844526125,171.9714189375,68.0,85.0
731,171.753616125,172.033918875,59.0,85.0
732,172.435433625,172.571797125,56.0,84.0
733,172.208161125,172.730887875,52.0,81.0
734,171.980888625,172.791493875,49.0,94.0
735,172.662706125,172.939221,56.0,94.0
736,172.662706125,172.9524785625,64.0,87.0
737,172.889978625,172.958160375,49.0,62.0
738,172.889978625,173.1949025625,52.0,79.0
739,173.117251125,173.3047509375,56.0,87.0
740,173.117251125,173.3047509375,61.0,86.0
741,173.799068625,174.24225,54.0,83.0
742,173.799068625,174.3274771875,59.0,84.0
743,174.253613625,174.594522375,51.0,68.0
744,174.480886125,174.738461625,63.0,89.0
745,174.480886125,174.7555070625,54.0,88.0
746,174.935431125,175.139976375,54.0,87.0
747,173.799068625,175.31043075,47.0,86.0
748,174.708158625,175.46194575,51.0,73.0
749,174.935431125,175.5092941875,59.0,92.0
750,175.389976125,175.5395971875,54.0,78.0
751,175.617248625,175.8502029375,56.0,82.0
752,175.617248625,175.935430125,59.0,82.0
753,176.071793625,176.1797480625,56.0,85.0
754,175.844521125,176.393763,51.0,78.0
755,176.299066125,176.6153536875,56.0,88.0
756,176.299066125,176.6153536875,63.0,87.0
757,175.617248625,176.8464140625,44.0,84.0
758,176.526338625,176.8577776875,51.0,85.0
759,176.753611125,176.9543685,56.0,86.0
760,176.753611125,176.9714139375,59.0,89.0
761,177.43542862500001,177.7024738125,56.0,80.0
762,177.43542862500001,177.93164025,59.0,84.0
763,177.43542862500001,178.049064375,64.0,79.0
764,177.889973625,178.200579375,56.0,77.0
765,178.117246125,178.3729276875,59.0,89.0
766,177.662701125,178.6759576875,47.0,76.0
767,178.571791125,178.7479273125,56.0,84.0
768,177.43542862500001,178.9411089375,40.0,84.0
769,178.571791125,178.9638361875,64.0,83.0
770,178.799063625,179.00739675,47.0,86.0
771,179.026336125,179.11345725,64.0,53.0
772,179.026336125,179.1570178125,56.0,83.0
773,179.253608625,179.4751993125,56.0,84.0
774,179.253608625,179.6494415625,59.0,85.0
775,179.708153625,179.8123201875,56.0,87.0
776,179.480881125,180.0471684375,51.0,78.0
777,179.935426125,180.2555015625,56.0,90.0
778,179.935426125,180.2592894375,63.0,89.0
779,180.162698625,180.454365,51.0,83.0
780,180.389971125,180.632395125,56.0,86.0
781,180.389971125,180.6494405625,59.0,89.0
782,180.389971125,180.6570163125,63.0,90.0
783,179.253608625,180.6797435625,44.0,87.0
784,180.61724362500001,180.7479253125,51.0,76.0
785,181.071788625,181.3047429375,54.0,84.0
786,181.071788625,181.6001971875,59.0,85.0
787,181.526333625,181.6759546875,54.0,83.0
788,181.753606125,182.033908875,54.0,94.0
789,181.753606125,182.268757125,63.0,89.0
790,182.208151125,182.511181125,54.0,80.0
791,181.071788625,182.5661053125,47.0,89.0
792,182.435423625,182.791483875,61.0,86.0
793,182.889968625,182.9789836875,39.0,87.0
794,182.889968625,183.2138319375,63.0,86.0
795,183.344513625,183.6873163125,58.0,89.0
796,183.571786125,183.821785875,61.0,89.0
797,184.026331125,184.056634125,71.0,79.0
798,183.117241125,184.0926189375,51.0,71.0
799,183.799058625,184.1494370625,55.0,84.0
800,184.026331125,184.2820126875,61.0,97.0
801,184.253603625,184.374815625,58.0,85.0
802,184.026331125,184.52822456250001,67.0,94.0
803,184.480876125,184.5774669375,61.0,85.0
804,184.708148625,184.9600423125,59.0,84.0
805,184.708148625,185.1873148125,63.0,87.0
806,185.162693625,185.3085268125,59.0,86.0
807,184.935421125,185.44678425,51.0,83.0
808,185.389966125,186.1077684375,59.0,84.0
809,184.708148625,186.352086375,44.0,85.0
810,186.071783625,186.36345,51.0,76.0
811,185.389966125,186.3842833125,63.0,90.0
812,185.389966125,186.5168589375,68.0,85.0
813,186.299056125,186.579358875,59.0,85.0
814,186.980873625,187.117237125,56.0,84.0
815,186.753601125,187.276327875,52.0,81.0
816,186.526328625,187.336933875,49.0,94.0
817,187.208146125,187.484661,56.0,94.0
818,187.208146125,187.4979185625,64.0,87.0
819,187.435418625,187.503600375,49.0,62.0
820,187.435418625,187.7403425625,52.0,79.0
821,187.662691125,187.8501909375,56.0,87.0
822,187.662691125,187.8501909375,61.0,86.0
823,188.344508625,188.78769,54.0,83.0
824,188.344508625,188.8729171875,59.0,84.0
825,188.799053625,189.139962375,51.0,68.0
826,189.026326125,189.283901625,63.0,89.0
827,189.026326125,189.3009470625,54.0,88.0
828,189.480871125,189.685416375,54.0,87.0
829,188.344508625,189.85587075,47.0,86.0
830,189.253598625,190.00738575,51.0,73.0
831,189.480871125,190.0547341875,59.0,92.0
832,189.935416125,190.0850371875,54.0,78.0
833,190.162688625,190.3956429375,56.0,82.0
834,190.162688625,190.480870125,59.0,82.0
835,190.617233625,190.7251880625,56.0,85.0
836,190.389961125,190.939203,51.0,78.0
837,190.844506125,191.1607936875,56.0,88.0
838,190.844506125,191.1607936875,63.0,87.0
839,190.162688625,191.3918540625,44.0,84.0
840,191.071778625,191.4032176875,51.0,85.0
841,191.299051125,191.4998085,56.0,86.0
842,191.299051125,191.5168539375,59.0,89.0
843,191.980868625,192.2479138125,56.0,80.0
844,191.980868625,192.47708025,59.0,84.0
845,191.980868625,192.594504375,64.0,79.0
846,192.435413625,192.746019375,56.0,77.0
847,192.662686125,192.9183676875,59.0,89.0
848,192.208141125,193.2213976875,47.0,76.0
849,193.117231125,193.2933673125,56.0,84.0
850,191.980868625,193.4865489375,40.0,84.0
851,193.117231125,193.5092761875,64.0,83.0
852,193.344503625,193.55283675,47.0,86.0
853,193.571776125,193.65889725,64.0,53.0
854,193.571776125,193.7024578125,56.0,83.0
855,193.799048625,194.0206393125,56.0,84.0
856,193.799048625,194.1948815625,59.0,85.0
857,194.253593625,194.3577601875,56.0,87.0
858,194.026321125,194.5926084375,51.0,78.0
859,194.480866125,194.80094156250001,56.0,90.0
860,194.480866125,194.8047294375,63.0,89.0
861,194.708138625,194.999805,51.0,83.0
862,194.935411125,195.177835125,56.0,86.0
863,194.935411125,195.1948805625,59.0,89.0
864,194.935411125,195.2024563125,63.0,90.0
865,193.799048625,195.2251835625,44.0,87.0
866,195.162683625,195.2933653125,51.0,76.0
867,195.617228625,195.8501829375,54.0,84.0
868,195.617228625,196.1456371875,59.0,85.0
869,196.071773625,196.2213946875,54.0,83.0
870,196.299046125,196.579348875,54.0,94.0
871,196.299046125,196.814197125,63.0,89.0
872,196.753591125,197.056621125,54.0,80.0
873,195.617228625,197.1115453125,47.0,89.0
874,196.980863625,197.336923875,61.0,86.0
875,197.435408625,197.5244236875,39.0,87.0
876,197.435408625,197.7592719375,63.0,86.0
877,197.889953625,198.2327563125,58.0,89.0
878,198.117226125,198.367225875,61.0,89.0
879,198.571771125,198.602074125,71.0,79.0
880,197.662681125,198.6380589375,51.0,71.0
881,198.344498625,198.6948770625,55.0,84.0
882,198.571771125,198.8274526875,61.0,97.0
883,198.799043625,198.920255625,58.0,85.0
884,198.571771125,199.0736645625,67.0,94.0
885,199.026316125,199.1229069375,61.0,85.0
886,199.253588625,199.518739875,56.0,77.0
887,199.708133625,199.806618375,56.0,87.0
888,199.253588625,200.018739375,68.0,84.0
889,199.93540612500001,200.20434525,63.0,85.0
890,199.93540612500001,200.2289664375,56.0,90.0
891,199.480861125,200.5774509375,51.0,73.0
892,199.253588625,200.8388143125,44.0,85.0
893,200.389951125,200.874799125,56.0,83.0
894,200.389951125,200.8804809375,59.0,79.0
895,201.071768625,201.3653289375,63.0,84.0
896,201.071768625,201.3729046875,56.0,82.0
897,201.526313625,201.59828325,59.0,81.0
898,201.526313625,201.6153286875,63.0,84.0
899,201.526313625,201.6380559375,56.0,79.0
900,201.753586125,201.8653284375,59.0,83.0
901,201.753586125,201.8804799375,63.0,85.0
902,201.753586125,201.88616175,56.0,80.0
903,201.071768625,201.91646475,44.0,85.0
904,201.299041125,201.920252625,51.0,84.0
905,201.980858625,202.079343375,51.0,90.0
906,201.980858625,202.0888130625,59.0,97.0
907,201.980858625,202.0926009375,44.0,85.0
908,201.980858625,202.0963888125,56.0,89.0
909,201.980858625,202.09828275,63.0,94.0
910,202.208131125,202.3179795,44.0,89.0
911,202.208131125,202.3179795,51.0,94.0
912,202.208131125,202.3426006875,59.0,97.0
913,202.208131125,202.344494625,56.0,90.0
914,202.208131125,202.35585825,63.0,92.0
915,202.435403625,202.4713884375,68.0,84.0
916,202.435403625,202.53767625,51.0,94.0
917,202.435403625,202.5622974375,44.0,92.0
918,202.435403625,202.5622974375,56.0,92.0
919,202.435403625,202.5622974375,63.0,94.0
920,202.435403625,202.5698731875,59.0,92.0
921,202.662676125,202.799039625,51.0,92.0
922,202.662676125,202.799039625,56.0,85.0
923,202.662676125,202.799039625,59.0,88.0
924,202.662676125,202.8009335625,63.0,89.0
925,202.662676125,202.814191125,44.0,85.0
926,202.889948625,203.109645375,56.0,85.0
927,202.889948625,203.43161475,64.0,84.0
928,203.344493625,203.44676625,56.0,89.0
929,202.889948625,203.7119175,49.0,90.0
930,203.571766125,203.8122961875,56.0,100.0
931,203.571766125,203.814190125,64.0,97.0
932,204.026311125,204.151311,56.0,88.0
933,203.799038625,204.1872958125,49.0,85.0
934,204.026311125,204.37100775,61.0,90.0
935,204.480856125,204.5698711875,56.0,87.0
936,204.708128625,204.84070425,58.0,84.0
937,204.708128625,204.973279875,63.0,88.0
938,204.935401125,205.211916,58.0,85.0
939,205.162673625,205.302825,63.0,83.0
940,205.389946125,205.6304761875,63.0,86.0
941,205.389946125,205.6456276875,58.0,79.0
942,205.389946125,205.677824625,67.0,83.0
943,205.844491125,205.9713849375,58.0,90.0
944,204.708128625,205.996006125,51.0,97.0
945,205.844491125,206.0736575625,63.0,104.0
946,205.844491125,206.2933543125,67.0,92.0
947,206.071763625,206.37100575,58.0,83.0
948,206.299036125,206.4088845,63.0,82.0
949,206.526308625,206.579338875,59.0,84.0
950,206.526308625,206.6948690625,56.0,86.0
951,206.526308625,206.806611375,61.0,83.0
952,206.753581125,207.0357778125,56.0,83.0
953,206.980853625,207.0925959375,61.0,83.0
954,206.526308625,207.3009290625,49.0,90.0
955,207.208126125,207.454338,64.0,97.0
956,207.208126125,207.458125875,61.0,89.0
957,207.208126125,207.496004625,56.0,92.0
958,207.435398625,207.5925954375,49.0,79.0
959,207.662671125,207.844489125,56.0,99.0
960,207.662671125,207.97706475,64.0,99.0
961,207.662671125,207.999792,61.0,99.0
962,208.117216125,208.200549375,56.0,79.0
963,208.344488625,208.473276375,58.0,87.0
964,208.344488625,208.605852,63.0,90.0
965,208.571761125,208.8634275,58.0,84.0
966,208.799033625,208.908882,63.0,79.0
967,208.344488625,209.06797275,51.0,90.0
968,209.026306125,209.291457375,67.0,92.0
969,209.026306125,209.29524525,63.0,100.0
970,209.026306125,209.3274421875,58.0,90.0
971,209.253578625,209.3880481875,51.0,71.0
972,209.480851125,209.594487375,58.0,89.0
973,209.480851125,209.7289569375,63.0,97.0
974,209.480851125,209.7781993125,67.0,92.0
975,210.162668625,210.4297138125,52.0,86.0
976,210.162668625,210.4562289375,56.0,89.0
977,210.617213625,210.7175923125,59.0,78.0
978,210.389941125,210.9600163125,47.0,77.0
979,210.844486125,211.0622889375,64.0,88.0
980,210.844486125,211.086910125,52.0,90.0
981,211.071758625,211.363425,47.0,83.0
982,211.299031125,211.49221275,52.0,85.0
983,211.299031125,211.5300915,56.0,89.0
984,211.299031125,211.5547126875,59.0,89.0
985,210.162668625,211.6797125625,40.0,87.0
986,211.526303625,211.7403185625,47.0,81.0
987,211.753576125,211.92213656250001,52.0,89.0
988,211.980848625,212.200545375,52.0,84.0
989,211.980848625,212.2895604375,56.0,97.0
990,211.980848625,212.314181625,59.0,92.0
991,212.435393625,212.50736325,52.0,84.0
992,212.662666125,212.7744084375,64.0,82.0
993,212.662666125,212.783878125,52.0,86.0
994,212.208121125,212.89940831250001,47.0,83.0
995,212.889938625,212.988423375,52.0,94.0
996,212.889938625,213.08312025,64.0,86.0
997,213.117211125,213.4221350625,47.0,92.0
998,211.980848625,213.4334986875,40.0,86.0
999,213.344483625,213.4638016875,64.0,84.0
1000,213.344483625,213.609634875,68.0,84.0
1001,213.571756125,213.67402875,40.0,74.0
1002,213.571756125,213.6797105625,47.0,88.0
1003,213.571756125,213.6816045,64.0,83.0
1004,213.799028625,214.056604125,66.0,84.0
1005,213.799028625,214.1380434375,70.0,89.0
1006,214.253573625,214.336906875,66.0,72.0
1007,214.480846125,214.5963763125,66.0,86.0
1008,214.480846125,214.61152781250001,70.0,92.0
1009,214.026301125,214.9789516875,49.0,86.0
1010,214.935391125,215.10016368750001,66.0,85.0
1011,214.935391125,215.14372425,70.0,89.0
1012,213.799028625,215.238421125,42.0,88.0
1013,215.162663625,215.26493625,49.0,81.0
1014,215.389936125,215.5300875,61.0,84.0
1015,215.617208625,215.8634205,61.0,90.0
1016,215.617208625,215.939178,66.0,84.0
1017,216.071753625,216.170238375,61.0,84.0
1018,215.844481125,216.393723,49.0,82.0
1019,216.299026125,216.602056125,61.0,89.0
1020,216.299026125,216.602056125,66.0,94.0
1021,216.299026125,216.609631875,70.0,89.0
1022,215.617208625,216.817965,42.0,86.0
1023,216.526298625,216.8387983125,49.0,84.0
1024,216.753571125,216.8842528125,61.0,92.0
1025,216.753571125,216.9031921875,66.0,90.0
1026,216.753571125,216.9297073125,70.0,94.0
1027,216.980843625,217.079328375,42.0,85.0
1028,217.435388625,217.6834944375,50.0,83.0
1029,217.435388625,217.6910701875,43.0,97.0
1030,217.435388625,217.7554640625,79.0,79.0
1031,217.435388625,217.7706155625,67.0,83.0
1032,217.889933625,217.9600093125,79.0,83.0
1033,217.889933625,217.988418375,67.0,87.0
1034,217.889933625,218.0149335,50.0,88.0
1035,217.889933625,218.0281910625,43.0,97.0
1036,218.344478625,218.382357375,69.0,72.0
1037,218.344478625,218.4221300625,67.0,67.0
1038,218.344478625,218.4259179375,43.0,90.0
1039,218.344478625,218.4259179375,50.0,85.0
1040,218.344478625,218.427811875,55.0,85.0
1041,218.571751125,218.6494025625,50.0,81.0
1042,218.571751125,218.655084375,43.0,83.0
1043,218.571751125,218.6683419375,55.0,89.0
1044,218.571751125,218.6872813125,67.0,75.0
1045,218.799023625,218.84069025,55.0,71.0
1046,218.799023625,218.8539478125,43.0,79.0
1047,218.799023625,218.8539478125,50.0,74.0
1048,219.026296125,219.1115233125,50.0,83.0
1049,219.026296125,219.1190990625,43.0,84.0
1050,219.026296125,219.124780875,67.0,76.0
1051,219.026296125,219.132356625,55.0,85.0
1052,219.253568625,219.6512955,65.0,68.0
1053,219.253568625,219.905083125,67.0,85.0
1054,219.253568625,220.0092496875,50.0,99.0
1055,219.253568625,220.0149315,43.0,109.0
1056,219.253568625,220.03765875,55.0,97.0
1057,220.162658625,220.90129425,43.0,119.0
1058,220.162658625,220.9221275625,50.0,94.0
1059,220.162658625,220.939173,59.0,97.0
1060,220.162658625,220.973263875,62.0,97.0
1061,220.162658625,220.97705175,55.0,94.0
1062,220.162658625,220.999779,67.0,86.0
1063,221.071748625,221.3236423125,60.0,84.0
1064,221.071748625,221.5509148125,64.0,87.0
1065,221.526293625,221.6721268125,60.0,86.0
1066,221.299021125,221.81038425,52.0,83.0
1067,221.753566125,222.4713684375,60.0,84.0
1068,221.071748625,222.715686375,45.0,85.0
1069,222.43538362500001,222.72705,52.0,76.0
1070,221.753566125,222.7478833125,64.0,90.0
1071,221.753566125,222.8804589375,69.0,85.0
1072,222.662656125,222.942958875,60.0,85.0
1073,223.344473625,223.480837125,57.0,84.0
1074,223.117201125,223.639927875,53.0,81.0
1075,222.889928625,223.700533875,50.0,94.0
1076,223.571746125,223.848261,57.0,94.0
1077,223.571746125,223.8615185625,65.0,87.0
1078,223.799018625,223.867200375,50.0,62.0
1079,223.799018625,224.1039425625,53.0,79.0
1080,224.026291125,224.2137909375,57.0,87.0
1081,224.026291125,224.2137909375,62.0,86.0
1082,224.708108625,225.15129,55.0,83.0
1083,224.708108625,225.2365171875,60.0,84.0
1084,225.162653625,225.503562375,52.0,68.0
1085,225.389926125,225.647501625,64.0,89.0
1086,225.389926125,225.6645470625,55.0,88.0
1087,225.844471125,226.049016375,55.0,87.0
1088,224.708108625,226.21947075,48.0,86.0
1089,225.61719862500001,226.37098575,52.0,73.0
1090,225.844471125,226.4183341875,60.0,92.0
1091,226.299016125,226.4486371875,55.0,78.0
1092,226.526288625,226.7592429375,57.0,82.0
1093,226.526288625,226.844470125,60.0,82.0
1094,226.980833625,227.0887880625,57.0,85.0
1095,226.753561125,227.302803,52.0,78.0
1096,227.208106125,227.5243936875,57.0,88.0
1097,227.208106125,227.5243936875,64.0,87.0
1098,226.526288625,227.7554540625,45.0,84.0
1099,227.435378625,227.7668176875,52.0,85.0
1100,227.662651125,227.8634085,57.0,86.0
1101,227.662651125,227.8804539375,60.0,89.0
1102,228.344468625,228.6115138125,57.0,80.0
1103,228.344468625,228.84068025,60.0,84.0
1104,228.344468625,228.958104375,65.0,79.0
1105,228.799013625,229.109619375,57.0,77.0
1106,229.026286125,229.2819676875,60.0,89.0
1107,228.571741125,229.5849976875,48.0,76.0
1108,229.480831125,229.6569673125,57.0,84.0
1109,228.344468625,229.8501489375,41.0,84.0
1110,229.480831125,229.8728761875,65.0,83.0
1111,229.708103625,229.91643675,48.0,86.0
1112,229.935376125,230.02249725,65.0,53.0
1113,229.935376125,230.0660578125,57.0,83.0
1114,230.162648625,230.3842393125,57.0,84.0
1115,230.162648625,230.5584815625,60.0,85.0
1116,230.617193625,230.7213601875,57.0,87.0
1117,230.389921125,230.9562084375,52.0,78.0
1118,230.844466125,231.1645415625,57.0,90.0
1119,230.844466125,231.1683294375,64.0,89.0
1120,231.071738625,231.363405,52.0,83.0
1121,231.299011125,231.541435125,57.0,86.0
1122,231.299011125,231.5584805625,60.0,89.0
1123,231.299011125,231.5660563125,64.0,90.0
1124,230.162648625,231.5887835625,45.0,87.0
1125,231.526283625,231.6569653125,52.0,76.0
1126,231.980828625,232.2137829375,55.0,84.0
1127,231.980828625,232.5092371875,60.0,85.0
1128,232.435373625,232.5849946875,55.0,83.0
1129,232.662646125,232.942948875,55.0,94.0
1130,232.662646125,233.177797125,64.0,89.0
1131,233.117191125,233.420221125,55.0,80.0
1132,231.980828625,233.4751453125,48.0,89.0
1133,233.344463625,233.700523875,62.0,86.0
1134,233.799008625,233.8880236875,40.0,87.0
1135,233.799008625,234.1228719375,64.0,86.0
1136,234.253553625,234.5963563125,59.0,89.0
1137,234.480826125,234.730825875,62.0,89.0
1138,234.935371125,234.965674125,72.0,79.0
1139,234.026281125,235.0016589375,52.0,71.0
1140,234.708098625,235.0584770625,56.0,84.0
1141,234.935371125,235.1910526875,62.0,97.0
1142,235.162643625,235.283855625,59.0,85.0
1143,234.935371125,235.4372645625,68.0,94.0
1144,235.389916125,235.4865069375,62.0,85.0
1145,235.617188625,235.8690823125,60.0,84.0
1146,235.617188625,236.0963548125,64.0,87.0
1147,236.071733625,236.2175668125,60.0,86.0
1148,235.844461125,236.35582425,52.0,83.0
1149,236.299006125,237.0168084375,60.0,84.0
1150,235.617188625,237.261126375,45.0,85.0
1151,236.980823625,237.27249,52.0,76.0
1152,236.299006125,237.2933233125,64.0,90.0
1153,236.299006125,237.4258989375,69.0,85.0
1154,237.208096125,237.488398875,60.0,85.0
1155,237.889913625,238.026277125,57.0,84.0
1156,237.662641125,238.185367875,53.0,81.0
1157,237.435368625,238.245973875,50.0,94.0
1158,238.117186125,238.393701,57.0,94.0
1159,238.117186125,238.4069585625,65.0,87.0
1160,238.344458625,238.412640375,50.0,62.0
1161,238.344458625,238.6493825625,53.0,79.0
1162,238.571731125,238.7592309375,57.0,87.0
1163,238.571731125,238.7592309375,62.0,86.0
1164,239.253548625,239.69673,55.0,83.0
1165,239.253548625,239.7819571875,60.0,84.0
1166,239.708093625,240.049002375,52.0,68.0
1167,239.935366125,240.192941625,64.0,89.0
1168,239.935366125,240.2099870625,55.0,88.0
1169,240.389911125,240.594456375,55.0,87.0
1170,239.253548625,240.76491075,48.0,86.0
1171,240.162638625,240.91642575,52.0,73.0
1172,240.389911125,240.9637741875,60.0,92.0
1173,240.844456125,240.9940771875,55.0,78.0
1174,241.071728625,241.3046829375,57.0,82.0
1175,241.071728625,241.389910125,60.0,82.0
1176,241.526273625,241.6342280625,57.0,85.0
1177,241.299001125,241.848243,52.0,78.0
1178,241.753546125,242.0698336875,57.0,88.0
1179,241.753546125,242.0698336875,64.0,87.0
1180,241.071728625,242.3008940625,45.0,84.0
1181,241.980818625,242.3122576875,52.0,85.0
1182,242.208091125,242.4088485,57.0,86.0
1183,242.208091125,242.4258939375,60.0,89.0
1184,242.889908625,243.1569538125,57.0,80.0
1185,242.889908625,243.38612025,60.0,84.0
1186,242.889908625,243.503544375,65.0,79.0
1187,243.344453625,243.655059375,57.0,77.0
1188,243.571726125,243.8274076875,60.0,89.0
1189,243.117181125,244.1304376875,48.0,76.0
1190,244.026271125,244.20240731250001,57.0,84.0
1191,242.889908625,244.3955889375,41.0,84.0
1192,244.026271125,244.4183161875,65.0,83.0
1193,244.253543625,244.46187675,48.0,86.0
1194,244.480816125,244.56793725,65.0,53.0
1195,244.480816125,244.6114978125,57.0,83.0
1196,244.708088625,244.9296793125,57.0,84.0
1197,244.708088625,245.1039215625,60.0,85.0
1198,245.162633625,245.2668001875,57.0,87.0
1199,244.93536112500001,245.5016484375,52.0,78.0
1200,245.389906125,245.7099815625,57.0,90.0
1201,245.389906125,245.7137694375,64.0,89.0
1202,245.617178625,245.908845,52.0,83.0
1203,245.844451125,246.086875125,57.0,86.0
1204,245.844451125,246.1039205625,60.0,89.0
1205,245.844451125,246.1114963125,64.0,90.0
1206,244.708088625,246.1342235625,45.0,87.0
1207,246.071723625,246.2024053125,52.0,76.0
1208,246.526268625,246.7592229375,55.0,84.0
1209,246.526268625,247.0546771875,60.0,85.0
1210,246.980813625,247.1304346875,55.0,83.0
1211,247.208086125,247.488388875,55.0,94.0
1212,247.208086125,247.723237125,64.0,89.0
1213,247.662631125,247.965661125,55.0,80.0
1214,246.526268625,248.0205853125,48.0,89.0
1215,247.889903625,248.245963875,62.0,86.0
1216,248.344448625,248.4334636875,40.0,87.0
1217,248.344448625,248.6683119375,64.0,86.0
1218,248.798993625,249.1417963125,59.0,89.0
1219,249.026266125,249.276265875,62.0,89.0
1220,249.480811125,249.511114125,72.0,79.0
1221,248.571721125,249.5470989375,52.0,71.0
1222,249.253538625,249.6039170625,56.0,84.0
1223,249.480811125,249.7364926875,62.0,97.0
1224,249.708083625,249.82929562500001,59.0,85.0
1225,249.480811125,249.9827045625,68.0,94.0
1226,249.935356125,250.0319469375,62.0,85.0
1227,250.162628625,250.427779875,57.0,77.0
1228,250.617173625,250.715658375,57.0,87.0
1229,250.162628625,250.927779375,69.0,84.0
1230,250.844446125,251.11338525,64.0,85.0
1231,250.844446125,251.1380064375,57.0,90.0
1232,250.389901125,251.4864909375,52.0,73.0
1233,250.162628625,251.7478543125,45.0,85.0
1234,251.29899112500001,251.78383912500001,57.0,83.0
1235,251.29899112500001,251.7895209375,60.0,79.0
1236,251.980808625,252.723232125,60.0,74.0
1237,251.980808625,252.7421715,57.0,73.0
1238,251.980808625,253.2061861875,45.0,76.0
1239,252.889898625,253.662625125,60.0,79.0
1240,252.889898625,253.6720948125,57.0,70.0
1241,252.889898625,253.6986099375,64.0,80.0
1242,253.9107309375,255.1683054375,41.0,88.0
1243,253.9372460625,256.1380014375,57.0,72.0
1244,253.8577006875,256.1493650625,53.0,76.0
1245,254.00732175,256.1758801875,60.0,77.0
1246,254.05277625,256.1796680625,65.0,77.0
1247,256.575501,256.9675460625,52.0,71.0
1248,256.74974325,257.05277325,56.0,78.0
1249,256.8936825,257.0925459375,59.0,77.0
1250,257.0395156875,257.2023943125,64.0,73.0
1251,256.3917890625,259.4258769375,47.0,82.0
1252,256.0925469375,259.47701325,40.0,80.0
1253,263.117161125,263.382312375,64.0,77.0
1254,262.889888625,263.4220850625,69.0,81.0
1255,263.344433625,263.6569333125,57.0,70.0
1256,263.571706125,263.8122361875,64.0,75.0
1257,263.798978625,264.208069125,69.0,84.0
1258,264.026251125,264.2876145,64.0,76.0
1259,264.253523625,264.639886875,57.0,73.0
1260,264.480796125,264.7175383125,64.0,72.0
1261,264.708068625,265.094431875,69.0,81.0
1262,264.935341125,265.2061741875,64.0,73.0
1263,265.162613625,265.4088255,57.0,64.0
1264,265.389886125,265.594431375,64.0,75.0
1265,265.617158625,265.950491625,69.0,82.0
1266,265.844431125,266.117158125,64.0,77.0
1267,262.889888625,266.2402640625,45.0,82.0
1268,266.071703625,266.382309375,57.0,77.0
1269,266.298976125,266.5603395,64.0,79.0
1270,266.753521125,267.0508693125,64.0,75.0
1271,266.526248625,267.0660208125,69.0,81.0
1272,267.208066125,267.43155075,64.0,75.0
1273,266.980793625,267.44670225,57.0,72.0
1274,267.435338625,267.814126125,69.0,83.0
1275,267.662611125,267.9107169375,64.0,70.0
1276,267.889883625,268.1493530625,57.0,68.0
1277,268.117156125,268.298974125,64.0,69.0
1278,268.344428625,268.6228374375,69.0,75.0
1279,268.571701125,268.7970796875,64.0,68.0
1280,268.798973625,269.0584430625,57.0,56.0
1281,269.026246125,269.2554125625,64.0,70.0
1282,269.253518625,269.4902608125,69.0,80.0
1283,269.480791125,269.7251090625,64.0,72.0
1284,266.526248625,269.920184625,45.0,78.0
1285,269.708063625,270.011093625,57.0,67.0
1286,269.935336125,270.1985934375,64.0,74.0
1287,270.162608625,270.52245675,69.0,80.0
1288,270.389881125,270.6341990625,64.0,73.0
1289,270.617153625,270.9031381875,57.0,69.0
1290,270.844426125,271.0470774375,64.0,74.0
1291,271.071698625,271.3841983125,69.0,79.0
1292,271.298971125,271.548970875,64.0,76.0
1293,271.526243625,271.8008645625,57.0,78.0
1294,271.753516125,271.9561674375,64.0,76.0
1295,271.980788625,272.29518225,69.0,78.0
1296,272.20806112500003,272.4258639375,64.0,75.0
1297,272.435333625,272.7137424375,57.0,75.0
1298,272.662606125,272.9069240625,64.0,75.0
1299,270.162608625,273.147454125,45.0,80.0
1300,272.889878625,273.412605375,69.0,83.0
1301,273.117151125,273.41639325,64.0,78.0
1302,273.344423625,273.685332375,57.0,77.0
1303,273.571696125,273.7667716875,64.0,71.0
1304,273.798968625,274.223210625,69.0,80.0
1305,274.026241125,274.291392375,64.0,76.0
1306,274.253513625,274.54518,57.0,72.0
1307,274.480786125,274.7421495,64.0,78.0
1308,274.935331125,275.13987637500003,64.0,75.0
1309,274.708058625,275.230785375,69.0,83.0
1310,275.162603625,275.4296488125,57.0,71.0
1311,275.389876125,275.609572875,64.0,73.0
1312,275.617148625,275.988360375,69.0,77.0
1313,275.844421125,276.1038905625,64.0,76.0
1314,276.071693625,276.26487525,69.0,30.0
1315,276.071693625,276.3917690625,57.0,79.0
1316,276.298966125,276.677753625,64.0,79.0
1317,276.753511125,277.0697986875,57.0,85.0
1318,276.980783625,277.26487425,64.0,84.0
1319,273.798968625,277.3501014375,45.0,84.0
1320,276.526238625,277.3501014375,52.0,83.0
1321,277.208056125,277.3804044375,69.0,84.0
1322,277.40123775,278.5584335625,45.0,76.0
1323,277.268662125,278.6341910625,60.0,77.0
1324,277.3652529375,278.647448625,64.0,78.0
1325,277.427752875,278.6985849375,69.0,81.0
