,start,end,pitch,velocity
0,23.595312500000002,23.970312500000002,69.0,86.0
1,23.970312500000002,24.387500000000003,71.0,86.0
2,24.345312500000002,25.46875,72.0,95.0
3,25.470312500000002,25.84375,72.0,96.0
4,25.845312500000002,26.231250000000003,72.0,91.0
5,26.220312500000002,26.6015625,71.0,81.0
6,26.595312500000002,26.970312500000002,69.0,65.0
7,26.970312500000002,27.4140625,72.0,87.0
8,27.345312500000002,28.470312500000002,71.0,96.0
9,28.470312500000002,28.84375,67.0,90.0
10,28.845312500000002,29.595312500000002,67.0,97.0
11,29.595312500000002,29.989062500000003,69.0,105.0
12,29.970312500000002,30.379687500000003,71.0,90.0
13,30.345312500000002,31.09375,72.0,98.0
14,31.095312500000002,31.46875,72.0,97.0
15,31.470312500000002,31.84375,72.0,92.0
16,31.845312500000002,32.21875,72.0,92.0
17,32.2203125,32.59375,72.0,91.0
18,32.5953125,32.96875,72.0,96.0
19,32.9703125,33.370312500000004,72.0,90.0
20,33.3453125,33.71875,76.0,97.0
21,33.7203125,34.09375,76.0,93.0
22,34.0953125,34.8453125,76.0,101.0
23,34.8453125,35.665625,74.0,89.0
24,35.5953125,35.9703125,69.0,95.0
25,35.9703125,36.38125,71.0,92.0
26,36.3453125,37.46875,72.0,97.0
27,37.4703125,37.84375,72.0,100.0
28,37.8453125,38.229687500000004,72.0,97.0
29,38.2203125,38.595312500000006,71.0,93.0
30,38.595312500000006,38.970312500000006,69.0,86.0
31,38.970312500000006,39.407812500000006,72.0,96.0
32,39.345312500000006,40.470312500000006,71.0,99.0
33,40.470312500000006,40.84375,67.0,93.0
34,40.845312500000006,41.595312500000006,67.0,97.0
35,41.595312500000006,42.0203125,69.0,101.0
36,41.970312500000006,42.3671875,71.0,92.0
37,42.345312500000006,43.470312500000006,72.0,95.0
38,43.470312500000006,43.845312500000006,69.0,93.0
39,43.845312500000006,44.2546875,76.0,90.0
40,44.220312500000006,44.63125,74.0,95.0
41,44.595312500000006,44.970312500000006,72.0,97.0
42,44.970312500000006,45.354687500000004,74.0,94.0
43,45.345312500000006,46.54375,71.0,100.0
44,46.470312500000006,47.728125000000006,69.0,95.0
45,47.595312500000006,47.728125000000006,69.0,97.0
46,47.970312500000006,48.390625,71.0,91.0
47,48.345312500000006,49.84375,72.0,93.0
48,49.845312500000006,50.2796875,72.0,106.0
49,50.220312500000006,50.618750000000006,71.0,93.0
50,50.595312500000006,50.970312500000006,69.0,90.0
51,50.970312500000006,51.385937500000004,72.0,97.0
52,51.345312500000006,52.09375,71.0,98.0
53,52.095312500000006,52.470312500000006,71.0,98.0
54,52.470312500000006,52.84375,67.0,87.0
55,52.845312500000006,53.595312500000006,67.0,92.0
56,53.595312500000006,54.0,69.0,103.0
57,53.970312500000006,54.360937500000006,71.0,98.0
58,54.345312500000006,55.09375,72.0,98.0
59,55.095312500000006,55.46875,72.0,105.0
60,55.470312500000006,55.84375,72.0,100.0
61,55.845312500000006,56.21875,72.0,97.0
62,56.220312500000006,56.59375,72.0,101.0
63,56.595312500000006,56.96875,72.0,98.0
64,56.970312500000006,57.345312500000006,72.0,97.0
65,57.345312500000006,57.71875,76.0,100.0
66,57.720312500000006,58.09375,76.0,97.0
67,58.095312500000006,58.503125000000004,76.0,103.0
68,58.470312500000006,58.84375,74.0,90.0
69,58.845312500000006,59.595312500000006,74.0,97.0
70,59.595312500000006,59.985937500000006,69.0,106.0
71,59.970312500000006,60.401562500000004,71.0,90.0
72,60.345312500000006,61.46875,72.0,101.0
73,61.470312500000006,61.84375,72.0,100.0
74,61.845312500000006,62.220312500000006,72.0,99.0
75,62.220312500000006,62.595312500000006,71.0,97.0
76,62.595312500000006,62.970312500000006,69.0,85.0
77,62.970312500000006,63.345312500000006,72.0,93.0
78,63.345312500000006,64.4703125,71.0,97.0
79,64.4703125,64.84375,67.0,81.0
80,64.8453125,65.5953125,67.0,97.0
81,65.5953125,65.99375,69.0,97.0
82,65.9703125,66.378125,71.0,92.0
83,66.3453125,67.8453125,72.0,96.0
84,67.8453125,68.2203125,76.0,106.0
85,68.2203125,68.5953125,74.0,90.0
86,68.5953125,68.9703125,72.0,95.0
87,68.9703125,69.3453125,74.0,90.0
88,69.3453125,69.92031250000001,71.0,101.0
89,69.9078125,70.46875,69.0,87.0
90,70.4703125,72.3453125,69.0,92.0
91,72.3453125,73.46875,76.0,106.0
92,73.4703125,73.84375,76.0,108.0
93,73.8453125,74.5953125,76.0,106.0
94,74.5953125,74.9703125,74.0,105.0
95,74.9703125,75.3453125,72.0,91.0
96,75.3453125,76.0953125,76.0,108.0
97,76.0953125,77.59375,74.0,103.0
98,77.5953125,78.00312500000001,74.0,109.0
99,77.9703125,78.36562500000001,76.0,95.0
100,78.3453125,79.46875,77.0,99.0
101,79.4703125,79.8453125,77.0,109.0
102,79.8453125,80.5953125,79.0,93.0
103,80.5953125,80.9703125,74.0,99.0
104,80.9703125,81.7203125,77.0,105.0
105,81.7203125,83.96875,76.0,103.0
106,83.9703125,84.35468750000001,76.0,103.0
107,84.3453125,85.4703125,77.0,103.0
108,85.4703125,85.8875,76.0,105.0
109,85.8453125,86.59375,74.0,105.0
110,86.5953125,86.9703125,74.0,109.0
111,86.9703125,87.34375,76.0,99.0
112,87.3453125,88.0953125,76.0,109.0
113,88.0953125,88.8453125,74.0,106.0
114,88.8453125,89.5953125,72.0,101.0
115,89.5953125,89.9703125,69.0,93.0
116,89.9703125,90.38125000000001,71.0,93.0
117,90.3453125,90.71875,72.0,97.0
118,90.7203125,91.46875,72.0,100.0
119,91.4703125,91.85000000000001,72.0,109.0
120,91.8453125,92.21875,71.0,92.0
121,92.2203125,92.5953125,71.0,85.0
122,92.5953125,93.34687500000001,72.0,95.0
123,93.3453125,96.04375,69.0,87.0
124,119.5953125,119.915625,69.0,86.0
125,119.9703125,120.3875,71.0,86.0
126,120.3453125,121.1421875,72.0,95.0
127,121.4703125,121.7359375,72.0,96.0
128,121.8453125,122.23125,72.0,91.0
129,122.2203125,122.6015625,71.0,81.0
130,122.5953125,122.92031250000001,69.0,65.0
131,122.9703125,123.4140625,72.0,87.0
132,123.3453125,124.02968750000001,71.0,96.0
133,124.0953125,124.44375000000001,71.0,96.0
134,124.4703125,124.77968750000001,67.0,90.0
135,124.8453125,125.41718750000001,67.0,97.0
136,125.5953125,125.9890625,69.0,105.0
137,125.9703125,126.3796875,71.0,90.0
138,126.3453125,127.01406250000001,72.0,98.0
139,127.4703125,127.79218750000001,72.0,92.0
140,127.8453125,128.1203125,72.0,92.0
141,128.2203125,128.509375,72.0,91.0
142,128.5953125,128.8625,72.0,96.0
143,128.9703125,129.3703125,72.0,90.0
144,129.3453125,129.63125,76.0,97.0
145,129.7203125,129.94218750000002,76.0,93.0
146,130.0953125,130.8109375,76.0,101.0
147,130.8453125,131.55625,74.0,89.0
148,131.5953125,132.040625,69.0,95.0
149,131.9703125,132.38125,71.0,92.0
150,132.3453125,133.2515625,72.0,97.0
151,133.4703125,133.70781250000002,72.0,100.0
152,133.8453125,134.2296875,72.0,97.0
153,134.2203125,134.59062500000002,71.0,93.0
154,134.5953125,134.9296875,69.0,86.0
155,134.9703125,135.4078125,72.0,96.0
156,135.3453125,135.6734375,71.0,99.0
157,135.7203125,136.0765625,71.0,99.0
158,136.0953125,136.478125,71.0,99.0
159,136.4703125,136.7921875,67.0,93.0
160,136.8453125,137.2609375,67.0,97.0
161,137.5953125,138.02031250000002,69.0,101.0
162,137.9703125,138.3671875,71.0,92.0
163,138.3453125,139.146875,72.0,95.0
164,139.8453125,140.2765625,76.0,90.0
165,140.2203125,140.63125,74.0,95.0
166,140.5953125,140.96875,72.0,97.0
167,140.9703125,141.3546875,74.0,94.0
168,141.3453125,142.06875,72.0,100.0
169,142.0953125,142.41093750000002,69.0,100.0
170,142.4703125,143.56718750000002,69.0,95.0
171,143.5953125,143.9671875,69.0,95.0
172,143.9703125,144.390625,71.0,91.0
173,144.3453125,145.303125,72.0,93.0
174,145.8453125,146.2796875,72.0,106.0
175,146.2203125,146.61875,71.0,93.0
176,146.5953125,146.9640625,69.0,90.0
177,146.9703125,147.38750000000002,72.0,97.0
178,147.3453125,147.9609375,71.0,98.0
179,148.0953125,148.440625,71.0,98.0
180,148.4703125,148.77031250000002,67.0,87.0
181,148.8453125,149.30625,67.0,92.0
182,149.5953125,150.0,69.0,103.0
183,149.9703125,150.3609375,71.0,98.0
184,150.3453125,150.83281250000002,72.0,98.0
185,151.0953125,151.328125,72.0,105.0
186,151.4703125,151.734375,72.0,100.0
187,151.8453125,152.103125,72.0,97.0
188,152.2203125,152.46875,72.0,101.0
189,152.5953125,152.8296875,72.0,98.0
190,152.9703125,153.303125,72.0,97.0
191,153.3453125,153.6125,76.0,100.0
192,153.7203125,153.9625,76.0,97.0
193,154.0953125,154.503125,76.0,103.0
194,154.4703125,154.74062500000002,74.0,90.0
195,154.8453125,155.2671875,74.0,97.0
196,155.5953125,155.9859375,69.0,106.0
197,155.9703125,156.4015625,71.0,90.0
198,156.3453125,156.9,72.0,101.0
199,157.4703125,157.68593750000002,72.0,100.0
200,157.8453125,158.1734375,72.0,99.0
201,158.2203125,158.5796875,71.0,97.0
202,158.5953125,158.921875,69.0,85.0
203,158.9703125,159.34375,72.0,93.0
204,159.3453125,160.45156250000002,71.0,97.0
205,160.4703125,160.75625000000002,67.0,81.0
206,160.8453125,161.27968750000002,67.0,97.0
207,161.5953125,161.99375,69.0,97.0
208,161.9703125,162.378125,71.0,92.0
209,162.3453125,163.096875,72.0,96.0
210,163.8453125,164.20781250000002,76.0,106.0
211,164.2203125,164.55,74.0,90.0
212,164.5953125,164.95000000000002,72.0,95.0
213,164.9703125,165.284375,74.0,90.0
214,165.3453125,165.7375,71.0,101.0
215,165.7203125,166.4453125,69.0,87.0
216,166.4703125,167.8703125,69.0,92.0
217,168.3453125,169.18437500000002,76.0,106.0
218,169.4703125,169.75625000000002,76.0,108.0
219,169.8453125,170.409375,76.0,106.0
220,170.5953125,170.971875,74.0,105.0
221,170.9703125,171.3609375,72.0,91.0
222,171.3453125,172.109375,76.0,108.0
223,172.0953125,173.18125,74.0,103.0
224,173.5953125,174.003125,74.0,109.0
225,173.9703125,174.36562500000002,76.0,95.0
226,174.3453125,175.19375000000002,77.0,99.0
227,175.4703125,175.84062500000002,77.0,109.0
228,175.8453125,176.55156250000002,79.0,93.0
229,176.5953125,176.95937500000002,74.0,99.0
230,176.9703125,177.6796875,77.0,105.0
231,177.7203125,179.4453125,76.0,103.0
232,179.9703125,180.3546875,76.0,103.0
233,180.3453125,181.4453125,77.0,103.0
234,181.4703125,181.88750000000002,76.0,105.0
235,181.8453125,182.546875,74.0,105.0
236,182.5953125,182.94218750000002,74.0,109.0
237,182.9703125,183.23906250000002,76.0,99.0
238,183.3453125,184.003125,76.0,109.0
239,184.0953125,184.7984375,74.0,106.0
240,184.8453125,185.37968750000002,72.0,101.0
241,185.5953125,185.9234375,69.0,93.0
242,185.9703125,186.38125000000002,71.0,93.0
243,186.3453125,186.62187500000002,72.0,97.0
244,186.7203125,187.0953125,72.0,100.0
245,187.4703125,187.85000000000002,72.0,109.0
246,187.8453125,188.203125,71.0,92.0
247,188.2203125,188.59375,71.0,85.0
248,188.5953125,188.90468750000002,72.0,95.0
249,188.9703125,189.33125,69.0,95.0
250,189.3453125,191.4640625,69.0,87.0
251,192.3453125,193.18437500000002,76.0,106.0
252,193.4703125,193.75625000000002,76.0,108.0
253,193.8453125,194.409375,76.0,106.0
254,194.5953125,194.971875,74.0,105.0
255,194.9703125,195.3609375,72.0,91.0
256,195.3453125,196.1109375,76.0,108.0
257,196.0953125,197.1796875,74.0,103.0
258,197.5953125,198.003125,74.0,109.0
259,197.9703125,198.36562500000002,76.0,95.0
260,198.3453125,199.19375000000002,77.0,99.0
261,199.4703125,199.84062500000002,77.0,109.0
262,199.8453125,200.55156250000002,79.0,93.0
263,200.5953125,200.95937500000002,74.0,99.0
264,200.9703125,201.6796875,77.0,105.0
265,201.7203125,203.4453125,76.0,103.0
266,203.9703125,204.3546875,76.0,103.0
267,204.3453125,205.446875,77.0,103.0
268,205.4703125,205.88750000000002,76.0,105.0
269,205.8453125,206.5015625,74.0,105.0
270,206.5953125,206.984375,74.0,109.0
271,206.9703125,207.32656250000002,76.0,99.0
272,207.3453125,208.13906250000002,76.0,109.0
273,208.0953125,208.8,74.0,106.0
274,208.8453125,209.37968750000002,72.0,101.0
275,209.5953125,210.01250000000002,69.0,93.0
276,209.9703125,210.37968750000002,71.0,93.0
277,210.3453125,210.62187500000002,72.0,97.0
278,210.7203125,211.0953125,72.0,100.0
279,211.4703125,211.85000000000002,72.0,109.0
280,211.8453125,212.203125,71.0,92.0
281,212.2203125,212.59375,71.0,85.0
282,212.5953125,212.90468750000002,72.0,95.0
283,212.9703125,213.33281250000002,69.0,95.0
284,213.3453125,215.55625,69.0,87.0
