,start,end,pitch,velocity
0,1.2644909833333335,1.452896516666667,77.0,108.0
1,1.4818819833333337,1.708330941666667,79.0,99.0
2,1.6992729833333335,1.8188380333333336,80.0,102.0
3,1.9166639833333337,2.0688376833333337,82.0,102.0
4,2.1340549833333338,2.447460341666667,79.0,102.0
5,2.5688369833333335,2.7119527250000006,75.0,87.0
6,2.7862279833333337,3.4347778000000004,75.0,97.0
7,3.655791983333334,3.8514438833333338,82.0,102.0
8,4.090573983333334,4.244559275,82.0,111.0
9,4.307964983333334,4.5307907583333344,80.0,102.0
10,4.960137983333334,5.099630541666667,79.0,105.0
11,5.068833483333334,5.182963758333334,77.0,97.0
12,5.1775289833333344,5.320644725000001,75.0,78.0
13,5.394919983333335,5.510861850000001,73.0,94.0
14,5.612310983333334,6.0072379666666675,72.0,92.0
15,6.699265983333334,6.956512000000001,70.0,92.0
16,6.9166569833333345,7.101439333333334,72.0,89.0
17,7.134047983333335,7.259047808333334,77.0,105.0
18,7.351438983333335,7.884046933333335,79.0,93.0
19,8.003611983333334,8.514480833333335,79.0,105.0
20,8.655784983333335,8.795277541666668,82.0,102.0
21,8.873175983333335,9.663029950000002,80.0,105.0
22,10.177521983333335,10.320637725000001,72.0,62.0
23,10.394912983333334,10.521724400000002,77.0,100.0
24,11.264476983333335,11.467375250000002,55.0,102.0
25,11.481867983333336,11.740925591666668,58.0,76.0
26,11.699258983333335,11.889476108333335,61.0,87.0
27,11.916649983333334,12.130417800000002,65.0,87.0
28,12.134040983333335,12.347808800000003,67.0,93.0
29,12.351431983333335,12.539837516666669,70.0,94.0
30,10.612303983333335,12.565199800000002,79.0,112.0
31,12.568822983333336,12.798895125000001,73.0,100.0
32,12.786213983333335,13.048894775000003,70.0,82.0
33,13.003604983333336,13.286213283333336,67.0,96.0
34,13.220995983333335,13.416647883333335,64.0,74.0
35,13.438386983333336,14.324255308333335,70.0,90.0
36,13.438386983333336,14.326066900000002,67.0,65.0
37,14.307950983333335,14.668457725000001,68.0,71.0
38,14.742732983333335,14.992732633333336,60.0,105.0
39,15.177514983333335,15.338746641666669,65.0,78.0
40,15.394905983333336,15.563384008333335,67.0,82.0
41,15.612296983333335,15.923890750000002,68.0,89.0
42,16.047078983333336,16.405774133333335,72.0,100.0
43,16.481860983333338,16.80070111666667,63.0,69.0
44,16.916642983333336,17.280772908333336,75.0,89.0
45,17.351424983333334,17.682946258333335,68.0,80.0
46,17.786206983333336,18.155771683333334,70.0,73.0
47,18.655770983333337,18.965553158333336,70.0,87.0
48,19.090552983333335,19.269900558333337,65.0,82.0
49,19.307943983333335,19.44200176666667,68.0,71.0
50,19.525334983333337,20.195623900000005,72.0,84.0
51,20.394898983333338,20.585116108333338,65.0,78.0
52,20.612289983333337,20.737289808333337,67.0,85.0
53,20.829680983333336,20.965550358333335,68.0,69.0
54,21.047071983333336,21.157579075000005,72.0,87.0
55,21.26446298333334,21.945621450000004,72.0,87.0
56,26.04706498333334,26.320615325000006,72.0,102.0
57,26.481846983333337,27.342353025000005,76.0,87.0
58,26.481846983333337,27.36046894166667,72.0,92.0
59,27.351410983333338,27.664816341666672,84.0,102.0
60,27.786192983333336,27.920250766666673,82.0,92.0
61,28.00358398333334,28.266264775000003,84.0,97.0
62,28.22097498333334,28.581481725000003,68.0,71.0
63,28.655756983333337,28.905756633333336,60.0,105.0
64,29.09053898333334,29.25177064166667,65.0,78.0
65,29.307929983333338,29.476408008333337,67.0,82.0
66,29.525320983333337,29.836914750000005,68.0,89.0
67,29.96010298333334,30.31879813333334,72.0,100.0
68,30.394884983333338,30.713725116666673,63.0,69.0
69,30.82966698333334,31.19379690833334,75.0,89.0
70,31.264448983333338,31.595970258333338,68.0,80.0
71,31.699230983333337,32.06879568333334,70.0,73.0
72,32.56879498333334,32.878577158333336,70.0,87.0
73,33.00357698333334,33.18292455833334,65.0,82.0
74,33.22096798333334,33.35502576666667,68.0,71.0
75,33.43835898333334,34.10864790000001,72.0,84.0
76,34.30792298333334,34.49814010833334,65.0,78.0
77,34.52531398333334,34.65031380833334,67.0,85.0
78,34.74270498333334,34.87857435833334,68.0,69.0
79,34.96009598333334,35.07060307500001,72.0,87.0
80,35.17748698333334,35.858645450000004,72.0,87.0
81,38.65574298333334,41.135811975,60.0,92.0
82,41.26443498333334,41.597767850000004,60.0,92.0
83,41.699216983333336,42.05428895000001,58.0,87.0
84,42.13399898333334,43.67747508333334,56.0,87.0
85,42.13399898333334,43.68834463333334,68.0,97.0
86,43.87312698333334,45.22638595833334,70.0,89.0
87,46.04703698333334,46.45464510833334,63.0,55.0
88,46.48181898333334,46.980006691666674,68.0,97.0
89,46.91660098333334,47.38580322500001,67.0,72.0
90,47.35138298333334,48.17203400833334,68.0,87.0
91,48.22094698333334,48.985438666666674,72.0,102.0
92,49.09051098333334,50.253552833333345,68.0,94.0
93,49.09051098333334,50.257176016666676,65.0,87.0
94,50.39485698333334,50.79521874166667,68.0,84.0
95,50.82963898333334,52.43289760833334,63.0,84.0
96,50.82963898333334,52.44195556666668,67.0,79.0
97,52.56876698333334,53.87492457500001,72.0,84.0
98,52.56876698333334,53.93833028333334,65.0,82.0
99,53.87311298333334,54.240866091666675,70.0,69.0
100,54.30789498333334,55.20825604166667,72.0,87.0
101,54.30789498333334,55.235429916666675,65.0,80.0
102,55.177458983333345,55.94195066666668,70.0,76.0
103,56.04702298333334,57.159340266666675,65.0,76.0
104,56.04702298333334,57.35680375833334,68.0,82.0
105,57.351368983333344,57.789774166666675,65.0,73.0
106,57.78615098333334,59.291583658333344,63.0,71.0
107,57.78615098333334,59.36404732500001,70.0,84.0
108,59.525278983333344,60.302451808333345,72.0,97.0
109,60.39484298333334,61.208247641666674,70.0,102.0
110,61.264406983333345,62.02708707500001,65.0,89.0
111,61.264406983333345,62.15571008333335,68.0,92.0
112,62.13397098333334,62.66839052500001,65.0,80.0
113,62.56875298333334,62.92020176666668,68.0,102.0
114,63.003534983333346,64.25896800833334,65.0,92.0
115,63.003534983333346,64.28976506666667,70.0,89.0
116,64.30788098333335,64.77889481666668,68.0,76.0
117,64.74266298333335,66.28070430833334,70.0,76.0
118,66.48179098333334,69.10135253333334,65.0,73.0
119,66.48179098333334,69.11403367500002,68.0,84.0
120,71.30424800000002,71.63033450000002,77.0,112.0
121,72.56873898333335,73.34228862500001,77.0,102.0
122,73.43830298333334,74.972721125,75.0,57.0
123,73.43830298333334,75.00351818333334,80.0,100.0
124,75.17743098333335,75.68467665000001,79.0,109.0
125,75.61221298333335,75.94916903333335,72.0,76.0
126,76.04699498333335,76.72271867500001,72.0,97.0
127,76.04699498333335,76.78793597500001,79.0,85.0
128,76.91655898333335,77.19373250833334,77.0,78.0
129,76.91655898333335,77.19373250833334,77.0,80.0
130,79.09046898333335,79.44010617500001,70.0,102.0
131,79.52525098333335,80.10858350000001,75.0,100.0
132,79.52525098333335,80.12307623333335,79.0,102.0
133,80.39481498333335,81.46003088333335,80.0,92.0
134,80.39481498333335,81.47814680000002,75.0,82.0
135,81.69916098333334,82.05966772500001,82.0,97.0
136,82.13394298333334,82.91473899166668,84.0,111.0
137,83.00350698333335,83.39118760000001,80.0,108.0
138,83.43828898333335,83.73901320000002,80.0,105.0
139,83.65567998333334,83.82234641666668,79.0,82.0
140,83.87307098333335,85.40205435000001,80.0,97.0
141,85.61219898333334,86.04335780000001,80.0,100.0
142,86.04698098333334,86.34770520000001,77.0,94.0
143,86.48176298333334,87.11763165833335,77.0,89.0
144,86.48176298333334,87.19371850833335,80.0,92.0
145,87.35132698333335,88.25168804166668,80.0,97.0
146,87.35132698333335,88.27161555,75.0,84.0
147,88.22089098333335,88.66291935000001,84.0,108.0
148,88.65567298333335,88.99625221666668,82.0,97.0
149,89.09045498333334,89.80784528333335,84.0,111.0
150,89.96001898333334,90.41472849166668,84.0,102.0
151,90.39480098333335,90.57958333333335,82.0,82.0
152,90.61219198333335,90.74262658333335,80.0,87.0
153,90.82958298333335,92.20820424166668,77.0,92.0
154,90.82958298333335,92.26798676666668,82.0,94.0
155,92.56871098333335,93.94370905833335,75.0,84.0
156,92.56871098333335,94.15204210000002,82.0,84.0
157,94.30783898333335,94.81508465000002,80.0,92.0
158,94.74262098333335,95.04334520000002,77.0,58.0
159,95.17740298333335,95.60675020833335,77.0,100.0
160,95.17740298333335,95.62305453333335,80.0,108.0
161,95.61218498333335,95.99986560000002,79.0,99.0
162,96.04696698333335,97.51797941666668,77.0,87.0
163,98.00348598333335,98.22631175833335,72.0,82.0
164,98.22087698333335,98.43826798333335,73.0,82.0
165,98.43826798333335,98.66109375833335,72.0,94.0
166,98.65565898333335,98.95094842500002,80.0,102.0
167,97.78609498333334,99.03609323333335,60.0,89.0
168,98.87304998333335,99.06870188333335,72.0,92.0
169,99.09044098333335,99.28428129166669,73.0,71.0
170,99.30783198333334,99.46906364166668,72.0,78.0
171,99.09044098333335,99.48536796666669,58.0,94.0
172,99.74261398333334,99.98717885833335,72.0,84.0
173,99.96000498333335,100.22449736666668,73.0,94.0
174,100.17739598333335,100.44007677500002,72.0,94.0
175,100.61217798333335,100.79696033333335,72.0,71.0
176,100.39478698333335,100.85493126666668,80.0,105.0
177,100.82956898333335,101.03609043333334,73.0,80.0
178,100.82956898333335,101.15746707500001,58.0,78.0
179,99.52522298333335,101.16833662500001,60.0,97.0
180,101.04695998333335,101.19551050000001,72.0,97.0
181,101.26435098333334,102.13391498333336,80.0,111.0
182,102.35130598333335,102.47811740000002,72.0,111.0
183,102.56869698333335,102.68826203333334,73.0,117.0
184,102.78608798333335,103.21724680000001,75.0,102.0
185,101.26435098333334,103.25529022500001,60.0,89.0
186,103.22086998333334,103.44188416666668,72.0,102.0
187,103.43826098333335,103.61760855833334,70.0,108.0
188,103.65565198333334,103.79514454166669,68.0,94.0
189,103.87304298333335,104.00710076666668,70.0,114.0
190,104.09043398333336,104.22811495000002,72.0,108.0
191,104.30782498333335,104.44731754166668,68.0,105.0
192,104.52521598333335,105.17376580000001,70.0,114.0
193,104.74260698333335,105.85492426666669,58.0,94.0
194,106.04695298333336,106.23717010833334,72.0,111.0
195,106.26434398333335,106.40745972500001,70.0,97.0
196,106.04695298333336,106.41289450000002,58.0,89.0
197,106.48173498333335,106.91832857500002,72.0,108.0
198,107.13390798333334,107.59405226666668,77.0,111.0
199,107.78608098333335,107.92919672500001,72.0,108.0
200,106.48173498333335,107.99803720833334,58.0,89.0
201,108.00347198333336,108.13752976666669,70.0,84.0
202,108.22086298333335,108.86941280000002,72.0,114.0
203,108.87303598333335,109.00709376666669,70.0,114.0
204,109.09042698333334,109.21542680833335,72.0,102.0
205,109.52520898333336,109.68825223333334,72.0,94.0
206,109.30781798333335,109.73897680000002,79.0,109.0
207,108.22086298333335,109.83861434166668,60.0,105.0
208,109.74259998333335,110.39114980000002,70.0,78.0
209,110.82955498333335,110.99622141666669,70.0,92.0
210,109.95999098333336,111.51795981666669,60.0,82.0
211,109.95999098333336,111.53064095833335,67.0,74.0
212,111.69911898333335,112.05962572500002,68.0,71.0
213,111.04694598333334,112.11216188333336,72.0,111.0
214,112.13390098333335,112.38390063333335,60.0,105.0
215,112.56868298333335,112.72991464166668,65.0,78.0
216,112.78607398333335,112.95455200833335,67.0,82.0
217,113.00346498333334,113.31505875000002,68.0,89.0
218,113.43824698333336,113.79694213333335,72.0,100.0
219,113.87302898333336,114.19186911666668,63.0,69.0
220,114.30781098333335,114.67194090833335,75.0,89.0
221,114.74259298333335,115.07411425833335,68.0,80.0
222,115.17737498333335,115.54693968333335,70.0,73.0
223,116.04693898333335,116.35672115833336,70.0,87.0
224,116.48172098333335,116.66106855833335,65.0,82.0
225,116.69911198333335,116.83316976666669,68.0,71.0
226,116.91650298333334,117.58679190000002,72.0,84.0
227,117.78606698333336,117.97628410833335,65.0,78.0
228,118.00345798333335,118.12845780833335,67.0,85.0
229,118.22084898333335,118.35671835833335,68.0,69.0
230,118.43823998333335,118.54874707500002,72.0,87.0
231,118.65563098333335,119.33678945000001,72.0,87.0
232,123.43823298333335,123.71178332500001,72.0,102.0
233,123.87301498333335,124.73352102500002,76.0,87.0
234,123.87301498333335,124.75163694166669,72.0,92.0
235,124.74257898333336,125.05598434166669,84.0,102.0
236,125.17736098333336,125.31141876666669,82.0,92.0
237,125.39475198333335,125.65743277500002,84.0,97.0
238,125.61214298333336,125.97264972500003,68.0,71.0
239,126.04692498333335,126.29692463333335,60.0,105.0
240,126.48170698333335,126.64293864166669,65.0,78.0
241,126.69909798333336,126.86757600833336,67.0,82.0
242,126.91648898333335,127.22808275000001,68.0,89.0
243,127.35127098333335,127.70996613333335,72.0,100.0
244,127.78605298333335,128.1048931166667,63.0,69.0
245,128.22083498333336,128.58496490833335,75.0,89.0
246,128.65561698333335,128.98713825833335,68.0,80.0
247,129.09039898333336,129.45996368333334,70.0,73.0
248,129.95996298333336,130.26974515833336,70.0,87.0
249,130.39474498333337,130.57409255833335,66.0,82.0
250,130.61213598333336,130.7461937666667,70.0,71.0
251,130.82952698333335,131.49981590000002,72.0,84.0
252,131.69909098333335,131.88930810833335,65.0,78.0
253,131.9128588,132.037858625,65.0,85.0
254,132.1538004916667,132.28966986666669,67.0,69.0
255,132.374814675,132.4853217666667,72.0,87.0
256,132.56865498333335,133.24981345000003,72.0,87.0
257,136.04691098333336,138.52697997500002,60.0,92.0
258,138.65560298333335,138.98893585000002,60.0,92.0
259,139.09038498333337,139.44545695000002,58.0,87.0
260,139.52516698333335,141.06864308333334,56.0,87.0
261,139.52516698333335,141.07951263333337,68.0,97.0
262,141.26429498333334,142.61755395833336,70.0,89.0
263,143.43820498333335,143.84581310833335,63.0,55.0
264,143.87298698333336,144.37117469166668,68.0,97.0
265,144.30776898333335,144.776971225,67.0,72.0
266,144.74255098333336,145.56320200833335,68.0,87.0
267,145.61211498333336,146.3766066666667,72.0,102.0
268,146.48167898333335,147.64472083333337,68.0,94.0
269,146.48167898333335,147.6483440166667,65.0,87.0
270,147.78602498333336,148.1863867416667,68.0,84.0
271,148.22080698333335,149.82406560833337,63.0,84.0
272,148.22080698333335,149.8331235666667,67.0,79.0
273,149.95993498333337,151.26609257500002,72.0,84.0
274,149.95993498333337,151.32949828333335,65.0,82.0
275,151.26428098333335,151.6320340916667,70.0,69.0
276,151.69906298333336,152.59942404166668,72.0,87.0
277,151.69906298333336,152.6265979166667,65.0,80.0
278,152.56862698333336,153.33311866666668,70.0,76.0
279,153.43819098333336,154.5505082666667,65.0,76.0
280,153.43819098333336,154.74797175833336,68.0,82.0
281,154.74253698333337,155.18094216666668,65.0,73.0
282,155.17731898333335,156.68275165833336,63.0,71.0
283,155.17731898333335,156.75521532500002,70.0,84.0
284,156.91644698333334,157.69361980833335,72.0,97.0
285,157.78601098333337,158.5994156416667,70.0,102.0
286,158.65557498333337,159.41825507500002,65.0,89.0
287,158.65557498333337,159.54687808333335,68.0,92.0
288,159.52513898333336,160.05955852500003,65.0,80.0
289,159.95992098333335,160.3113697666667,68.0,102.0
290,160.39470298333336,161.65013600833336,65.0,92.0
291,160.39470298333336,161.68093306666668,70.0,89.0
292,161.69904898333337,162.1700628166667,68.0,76.0
293,162.13383098333335,163.67187230833335,70.0,76.0
294,163.87295898333335,166.49252053333336,65.0,73.0
295,163.87295898333335,166.50520167500002,68.0,84.0
296,167.35121498333336,168.6972275916667,80.0,97.0
297,168.69541600000002,168.6972275916667,80.0,105.0
298,169.95990698333335,170.73345662500003,77.0,102.0
299,170.82947098333335,172.36388912500001,75.0,57.0
300,170.82947098333335,172.39468618333336,80.0,100.0
301,172.56859898333337,173.07584465000002,79.0,109.0
302,173.00338098333336,173.34033703333336,72.0,76.0
303,173.43816298333337,174.11388667500003,72.0,97.0
304,173.43816298333337,174.17910397500003,79.0,85.0
305,174.30772698333337,174.58490050833336,77.0,78.0
306,174.30772698333337,174.58490050833336,77.0,80.0
307,176.48163698333337,176.83127417500003,70.0,102.0
308,176.91641898333336,177.49975150000003,75.0,100.0
309,176.91641898333336,177.51424423333336,79.0,102.0
310,177.78598298333335,178.85119888333335,80.0,92.0
311,177.78598298333335,178.86931480000004,75.0,82.0
312,179.09032898333336,179.45083572500002,82.0,97.0
313,179.52511098333335,180.3059069916667,84.0,111.0
314,180.39467498333337,180.78235560000002,80.0,108.0
315,180.82945698333336,181.13018120000004,80.0,105.0
316,181.04684798333335,181.2135144166667,79.0,82.0
317,181.26423898333337,182.79322235000004,80.0,97.0
318,183.00336698333336,183.43452580000002,80.0,100.0
319,183.43814898333335,183.73887320000003,77.0,94.0
320,183.87293098333336,184.50879965833337,77.0,89.0
321,183.87293098333336,184.58488650833337,80.0,92.0
322,184.74249498333336,185.6428560416667,80.0,97.0
323,184.74249498333336,185.66278355000003,75.0,84.0
324,185.61205898333336,186.05408735000003,84.0,108.0
325,186.04684098333337,186.3874202166667,82.0,97.0
326,186.48162298333335,187.19901328333336,84.0,111.0
327,187.35118698333335,187.8058964916667,84.0,102.0
328,187.78596898333336,187.97075133333337,82.0,82.0
329,188.00335998333335,188.13379458333335,80.0,87.0
330,188.22075098333337,189.59937224166669,77.0,92.0
331,188.22075098333337,189.6591547666667,82.0,94.0
332,189.95987898333337,191.33487705833338,75.0,84.0
333,189.95987898333337,191.54321010000004,82.0,84.0
334,191.69900698333336,192.20625265000004,80.0,92.0
335,192.13378898333337,192.43451320000003,77.0,58.0
336,192.56857098333336,192.99791820833337,77.0,100.0
337,192.56857098333336,193.01422253333337,80.0,108.0
338,193.00335298333337,193.39103360000004,79.0,99.0
339,193.43813498333336,194.90914741666668,77.0,87.0
340,195.17726298333335,196.5232755916667,80.0,97.0
341,196.52146400000004,196.5232755916667,80.0,105.0
342,197.78595498333337,198.55950462500005,77.0,102.0
343,198.65551898333337,200.18993712500003,75.0,57.0
344,198.65551898333337,200.22073418333338,80.0,100.0
345,200.39464698333336,200.90189265000004,79.0,109.0
346,200.82942898333337,201.16638503333337,72.0,76.0
347,201.26421098333336,201.93993467500002,72.0,97.0
348,201.26421098333336,202.00515197500002,79.0,85.0
349,202.13377498333335,202.41094850833338,77.0,78.0
350,202.13377498333335,202.41094850833338,77.0,80.0
351,204.30768498333336,204.65732217500002,70.0,102.0
352,204.74246698333337,205.32579950000004,75.0,100.0
353,204.74246698333337,205.34029223333337,79.0,102.0
354,205.61203098333337,206.67724688333337,80.0,92.0
355,205.61203098333337,206.69536280000003,75.0,82.0
356,206.91637698333338,207.27688372500003,82.0,97.0
357,207.35115898333336,208.1319549916667,84.0,111.0
358,208.22072298333336,208.60840360000003,80.0,108.0
359,208.65550498333337,208.95622920000002,80.0,105.0
360,208.87289598333336,209.0395624166667,79.0,82.0
361,209.09028698333336,210.61927035000002,80.0,97.0
362,210.82941498333338,211.26057380000003,80.0,100.0
363,211.26419698333336,211.56492120000004,77.0,94.0
364,211.69897898333338,212.33484765833336,77.0,89.0
365,211.69897898333338,212.41093450833336,80.0,92.0
366,212.56854298333337,213.4689040416667,80.0,97.0
367,212.56854298333337,213.48883155000004,75.0,84.0
368,213.43810698333337,213.88013535000005,84.0,108.0
369,213.87288898333335,214.2134682166667,82.0,97.0
370,214.30767098333337,215.02506128333337,84.0,111.0
371,215.17723498333336,215.6319444916667,84.0,102.0
372,215.61201698333338,215.79679933333335,82.0,82.0
373,215.82940798333337,215.95984258333337,80.0,87.0
374,216.04679898333336,217.4254202416667,77.0,92.0
375,216.04679898333336,217.4852027666667,82.0,94.0
376,217.78592698333335,219.16092505833336,75.0,84.0
377,217.78592698333335,219.36925810000002,82.0,84.0
378,219.52505498333338,220.03230065000002,80.0,92.0
379,219.95983698333336,220.26056120000004,77.0,58.0
380,220.39461898333337,220.82396620833336,77.0,100.0
381,220.39461898333337,220.84027053333338,80.0,108.0
382,220.82940098333336,221.21708160000003,79.0,99.0
383,221.26418298333337,222.7351954166667,77.0,87.0
384,223.22070198333336,223.44352775833337,72.0,82.0
385,223.43809298333338,223.65548398333337,73.0,82.0
386,223.65548398333337,223.87830975833336,72.0,94.0
387,223.87287498333336,224.16816442500004,80.0,102.0
388,223.00331098333336,224.25330923333337,60.0,89.0
389,224.09026598333338,224.28591788333335,72.0,92.0
390,224.30765698333337,224.5014972916667,73.0,71.0
391,224.52504798333337,224.68627964166672,72.0,78.0
392,224.30765698333337,224.7025839666667,58.0,94.0
393,224.95982998333338,225.20439485833336,72.0,84.0
394,225.17722098333337,225.4417133666667,73.0,94.0
395,225.39461198333336,225.65729277500003,72.0,94.0
396,225.82939398333338,226.01417633333338,72.0,71.0
397,225.61200298333335,226.0721472666667,80.0,105.0
398,226.04678498333337,226.25330643333336,73.0,80.0
399,226.04678498333337,226.37468307500004,58.0,78.0
400,224.74243898333336,226.38555262500003,60.0,97.0
401,226.26417598333336,226.41272650000005,72.0,97.0
402,226.48156698333338,227.35113098333338,80.0,111.0
403,227.56852198333337,227.69533340000004,72.0,111.0
404,227.78591298333336,227.90547803333337,73.0,117.0
405,228.00330398333338,228.43446280000003,75.0,102.0
406,226.48156698333338,228.47250622500005,60.0,89.0
407,228.43808598333337,228.6591001666667,72.0,102.0
408,228.65547698333336,228.83482455833337,70.0,108.0
409,228.87286798333338,229.0123605416667,68.0,94.0
410,229.09025898333337,229.2243167666667,70.0,114.0
411,229.30764998333336,229.44533095000003,72.0,108.0
412,229.52504098333335,229.6645335416667,68.0,105.0
413,229.74243198333338,230.39098180000005,70.0,114.0
414,229.95982298333337,231.0721402666667,58.0,94.0
415,231.26416898333338,231.45438610833338,72.0,111.0
416,231.48155998333337,231.62467572500003,70.0,97.0
417,231.26416898333338,231.63011050000003,58.0,89.0
418,231.69895098333336,232.13554457500004,72.0,108.0
419,232.35112398333337,232.8112682666667,77.0,111.0
420,233.00329698333337,233.14641272500003,72.0,108.0
421,231.69895098333336,233.21525320833337,58.0,89.0
422,233.22068798333336,233.3547457666667,70.0,84.0
423,233.43807898333338,234.08662880000003,72.0,114.0
424,234.09025198333336,234.2243097666667,70.0,114.0
425,234.30764298333338,234.43264280833338,72.0,102.0
426,234.74242498333336,234.90546823333338,72.0,94.0
427,234.52503398333337,234.95619280000003,79.0,109.0
428,233.43807898333338,235.0558303416667,60.0,105.0
429,234.95981598333336,235.60836580000003,70.0,78.0
430,235.82937998333338,235.98336527500004,65.0,100.0
431,236.04677098333337,236.2134374166667,70.0,92.0
432,235.17720698333338,236.7351758166667,60.0,82.0
433,235.17720698333338,236.74785695833336,67.0,74.0
434,236.26416198333337,237.32937788333336,72.0,111.0
