,start,end,pitch,velocity
0,13.458314491666668,13.574256358333335,72.0,92.0
1,13.675705491666669,13.791647358333336,72.0,87.0
2,13.893096491666668,14.034400641666668,72.0,92.0
3,14.11048749166667,14.220994583333336,77.0,87.0
4,14.327878491666668,14.438385583333336,77.0,94.0
5,14.54526949166667,14.673892500000003,77.0,92.0
6,14.762660491666669,14.887660316666668,75.0,80.0
7,14.98005149166667,15.425703041666669,77.0,94.0
8,15.632224491666669,15.766282275000002,75.0,87.0
9,15.849615491666668,16.21918019166667,75.0,84.0
10,16.28439749166667,16.835121358333335,72.0,105.0
11,16.936570491666668,17.03983121666667,70.0,84.0
12,17.15396149166667,17.286207683333338,70.0,94.0
13,17.37135249166667,17.49091754166667,68.0,92.0
14,17.58874349166667,17.699250583333335,70.0,100.0
15,17.80613449166667,17.914829991666668,70.0,94.0
16,18.02352549166667,18.128597808333335,70.0,100.0
17,18.24091649166667,18.356858358333337,70.0,97.0
18,18.45830749166667,18.766278075000002,70.0,102.0
19,18.893089491666668,19.070625475000003,70.0,89.0
20,19.11048049166667,19.244538275000004,72.0,84.0
21,19.32787149166667,19.655769583333335,68.0,100.0
22,19.76265349166667,20.199247083333336,65.0,105.0
23,20.849608491666668,20.983666275000004,65.0,97.0
24,21.06699949166667,22.163012450000004,68.0,100.0
25,22.58873649166667,22.74091019166667,65.0,108.0
26,22.806127491666672,23.124967625000004,77.0,105.0
27,23.24090949166667,23.358662950000003,75.0,94.0
28,23.45830049166667,23.56880758333334,75.0,87.0
29,23.67569149166667,23.961922975000004,75.0,100.0
30,24.11047349166667,24.249966050000005,75.0,105.0
31,24.32786449166667,24.443806358333337,77.0,94.0
32,24.54525549166667,24.885834725000002,75.0,111.0
33,24.98003749166667,25.095979358333338,70.0,100.0
34,25.19742849166667,26.92749853333334,72.0,102.0
35,27.588729491666673,27.746337966666673,72.0,102.0
36,27.80612049166667,27.93112031666667,75.0,97.0
37,28.02351149166667,28.307931383333337,77.0,105.0
38,28.45829349166667,28.586916500000005,77.0,102.0
39,28.675684491666672,28.77894521666667,75.0,100.0
40,28.89307549166667,29.394886383333336,77.0,105.0
41,29.545248491666673,29.652132400000006,75.0,100.0
42,29.762639491666672,30.130392600000004,75.0,102.0
43,30.19742149166667,30.717348300000005,72.0,108.0
44,31.06698549166667,31.219159191666673,70.0,100.0
45,31.28437649166667,31.43111541666667,68.0,82.0
46,31.501767491666673,31.606839808333337,70.0,94.0
47,31.719158491666672,31.829665583333338,70.0,94.0
48,31.93654949166667,32.09415796666667,70.0,102.0
49,32.153940491666674,32.27531713333334,68.0,92.0
50,32.37133149166667,32.956475600000005,70.0,102.0
51,33.02350449166667,33.17205500833334,75.0,100.0
52,33.24089549166667,33.56698199166667,70.0,82.0
53,33.67567749166667,34.237270908333336,72.0,100.0
54,34.54524149166667,34.68835723333334,65.0,97.0
55,34.76263249166667,34.87857435833334,67.0,102.0
56,34.98002349166667,35.41118230833334,68.0,80.0
57,35.41480549166667,35.845964308333336,68.0,93.0
58,36.28436949166667,36.40031135833334,70.0,89.0
59,36.50176049166667,36.632195091666674,72.0,94.0
60,36.71915149166667,37.32965788333334,70.0,114.0
61,37.588715491666676,37.93291790833334,67.0,99.0
62,38.023497491666674,38.130381400000005,63.0,92.0
63,38.240888491666674,41.06334830833334,65.0,97.0
64,41.501753491666676,41.62675331666667,72.0,105.0
65,41.719144491666675,41.8477675,72.0,97.0
66,41.936535491666675,42.1955931,77.0,100.0
67,42.37131749166667,43.037983225000005,77.0,105.0
68,43.24088149166667,43.38399723333334,77.0,111.0
69,43.458272491666676,43.565156400000006,75.0,94.0
70,43.675663491666675,44.03073545833334,77.0,105.0
71,44.54522749166667,44.708270741666674,75.0,87.0
72,44.76261849166667,45.21008163333334,70.0,102.0
73,45.414791491666676,45.595950658333344,72.0,108.0
74,45.632182491666676,45.84413871666668,70.0,78.0
75,45.849573491666675,48.001744391666676,72.0,100.0
76,48.45826549166667,48.58688850000001,72.0,92.0
77,48.67565649166667,48.80790268333334,72.0,97.0
78,48.89304749166667,49.54340890000001,77.0,105.0
79,49.762611491666675,50.38398743333334,77.0,111.0
80,50.41478449166667,50.51804521666667,75.0,53.0
81,50.63217549166667,51.23000074166667,77.0,102.0
82,51.501739491666676,51.74086959166667,75.0,105.0
83,51.936521491666674,52.06876768333334,75.0,100.0
84,52.153912491666674,52.29340505000001,77.0,102.0
85,52.37130349166667,52.67021611666667,75.0,105.0
86,52.80608549166668,52.931085316666675,70.0,100.0
87,53.02347649166668,55.05427075000001,72.0,97.0
88,55.414777491666676,55.54883527500001,72.0,108.0
89,55.632168491666675,55.75354513333334,70.0,105.0
90,55.849559491666675,55.96912454166667,68.0,100.0
91,56.066950491666674,56.44557315000001,68.0,100.0
92,56.71912349166668,56.996297016666674,68.0,108.0
93,57.15390549166668,57.28434009166668,68.0,102.0
94,57.371296491666676,57.48723835833334,65.0,92.0
95,57.588687491666676,57.84231032500001,70.0,102.0
96,58.023469491666674,58.153904091666675,75.0,87.0
97,58.24086049166667,58.61767155833334,70.0,102.0
98,58.89303349166668,59.008975358333345,68.0,102.0
99,59.11042449166668,59.210062033333344,70.0,105.0
100,59.32781549166668,59.63035130000001,72.0,105.0
101,59.762597491666675,60.02527828333334,75.0,92.0
102,60.19737949166667,60.481799383333346,70.0,108.0
103,60.63216149166668,60.76621927500001,70.0,105.0
104,60.84955249166668,60.978175500000006,72.0,92.0
105,61.06694349166668,61.38397203333334,70.0,114.0
106,61.501725491666676,62.008971158333345,68.0,105.0
107,62.37128949166668,62.49085454166668,65.0,105.0
108,62.58868049166668,62.681071666666675,68.0,100.0
109,62.80607149166668,63.106795708333344,72.0,102.0
110,63.24085349166668,63.34230262500001,70.0,87.0
111,63.458244491666676,64.26259119166667,70.0,100.0
112,64.54519949166668,64.97635830833335,70.0,105.0
113,64.97998149166668,65.092300175,70.0,89.0
114,65.19737249166668,65.73903840000001,72.0,102.0
115,65.84954549166667,66.25171884166667,68.0,111.0
116,66.28432749166667,68.53251275000001,65.0,108.0
117,68.89301949166668,69.05968592500001,72.0,102.0
118,69.11041049166668,69.42019266666668,80.0,111.0
119,69.54519249166668,69.65751117500001,72.0,117.0
120,69.76258349166667,70.41656808333335,77.0,97.0
121,70.63214749166667,70.93106011666667,77.0,105.0
122,71.06692949166668,71.17743658333335,75.0,97.0
123,71.30424800000002,72.14120335000001,77.0,108.0
124,72.15388449166667,72.33504365833335,72.0,105.0
125,72.37127549166668,72.66113015833335,80.0,105.0
126,72.80605749166668,72.91294140000001,77.0,94.0
127,73.02344849166668,73.12489762500002,75.0,102.0
128,73.24083949166668,73.57054917500001,77.0,105.0
129,73.67562149166667,73.88938930833335,75.0,111.0
130,73.89301249166668,74.97634430833334,72.0,114.0
131,75.84953149166668,76.19011072500001,64.0,111.0
132,76.28431349166668,76.44735674166668,72.0,108.0
133,76.50170449166667,76.63938545833335,68.0,73.0
134,76.71909549166668,77.24264548333335,70.0,105.0
135,77.37126849166668,77.494456725,70.0,92.0
136,77.58865949166668,77.88032575000001,70.0,102.0
137,78.02344149166667,78.18104996666668,70.0,102.0
138,78.24083249166668,78.38032505000001,68.0,89.0
139,78.45822349166667,79.06148351666668,70.0,114.0
140,79.32778749166668,79.61764215833334,75.0,102.0
141,79.76256949166668,79.90206205000001,77.0,100.0
142,79.97996049166667,80.10496031666668,75.0,108.0
143,80.19735149166668,82.54336270000002,72.0,111.0
144,82.80604349166668,82.97270992500002,72.0,102.0
145,83.02343449166668,83.33321666666669,80.0,111.0
146,83.45821649166668,83.57053517500002,72.0,117.0
147,83.67560749166668,84.32959208333335,77.0,97.0
148,84.54517149166668,84.84408411666668,77.0,105.0
149,84.97995349166668,85.09046058333335,75.0,97.0
150,85.19734449166668,86.03429984166668,77.0,108.0
151,86.06690849166668,86.24806765833334,72.0,105.0
152,86.28429949166669,86.57415415833334,80.0,105.0
153,86.71908149166669,86.82596540000002,77.0,94.0
154,86.93647249166668,87.03792162500001,75.0,102.0
155,87.15386349166668,87.48357317500002,77.0,105.0
156,87.58864549166668,87.80241330833334,75.0,111.0
157,87.80603649166667,89.32415030833334,72.0,114.0
158,89.76255549166667,90.10313472500002,64.0,111.0
159,90.19733749166669,90.36038074166667,72.0,108.0
160,90.41472849166668,90.55240945833334,68.0,73.0
161,90.63211949166669,91.15566948333334,70.0,105.0
162,91.50168349166668,91.79334975000002,70.0,102.0
163,91.93646549166668,92.09407396666668,68.0,102.0
164,92.15385649166669,92.97450751666668,70.0,114.0
165,93.24081149166668,93.55965162500001,68.0,108.0
166,93.67559349166667,93.83863674166668,70.0,94.0
167,93.89298449166668,94.07233206666668,68.0,94.0
168,94.11037549166669,97.30058841666668,65.0,102.0
169,110.84948249166668,110.96542435833335,70.0,92.0
170,111.06687349166668,111.18281535833336,72.0,87.0
171,111.28426449166669,111.42556864166669,72.0,92.0
172,111.50165549166668,111.61216258333334,77.0,87.0
173,111.71904649166669,111.82955358333335,77.0,94.0
174,111.93643749166668,112.06506050000002,77.0,92.0
175,112.15382849166669,112.27882831666669,75.0,80.0
176,112.37121949166668,112.81687104166669,77.0,94.0
177,113.02339249166668,113.15745027500002,75.0,87.0
178,113.24078349166669,113.61034819166669,75.0,84.0
179,113.42375425000002,113.97447811666669,72.0,105.0
180,114.32773849166668,114.43099921666668,70.0,84.0
181,114.54512949166669,114.67737568333335,70.0,94.0
182,114.76252049166668,114.88208554166668,68.0,92.0
183,114.97991149166668,115.09041858333335,70.0,100.0
184,115.19730249166669,115.30599799166669,70.0,94.0
185,115.41469349166668,115.51976580833335,70.0,100.0
186,115.63208449166669,115.74802635833335,70.0,97.0
187,115.84947549166668,116.15744607500002,70.0,102.0
188,116.28425749166668,116.46179347500002,70.0,89.0
189,116.50164849166669,116.63570627500002,72.0,84.0
190,116.71903949166669,117.04693758333335,68.0,100.0
191,117.15382149166669,117.59041508333335,65.0,105.0
192,118.24077649166668,118.37483427500001,65.0,97.0
193,118.45816749166669,119.55418045000002,68.0,100.0
194,119.97990449166669,120.13207819166668,65.0,108.0
195,120.19729549166668,120.51613562500002,77.0,105.0
196,120.63207749166669,120.74983095000002,75.0,94.0
197,120.84946849166668,120.95997558333335,75.0,87.0
198,121.06685949166669,121.35309097500001,75.0,100.0
199,121.50164149166669,121.64113405000002,75.0,105.0
200,121.71903249166668,121.83497435833335,77.0,94.0
201,121.93642349166669,122.27700272500002,75.0,111.0
202,122.37120549166669,122.48714735833335,70.0,100.0
203,122.58859649166669,124.31866653333336,72.0,102.0
204,124.97989749166669,125.13750596666668,72.0,102.0
205,125.19728849166668,125.32228831666669,75.0,97.0
206,125.41467949166669,125.69909938333335,77.0,105.0
207,125.84946149166669,125.97808450000002,77.0,102.0
208,126.06685249166668,126.17011321666669,75.0,100.0
209,126.28424349166669,126.78605438333335,77.0,105.0
210,126.93641649166669,127.04330040000002,75.0,100.0
211,127.15380749166668,127.52156060000002,75.0,102.0
212,127.58858949166668,128.10851630000002,72.0,108.0
213,128.45815349166668,128.6103271916667,70.0,100.0
214,128.6755444916667,128.8222834166667,68.0,82.0
215,128.8929354916667,128.99800780833334,70.0,94.0
216,129.11032649166668,129.22083358333336,70.0,94.0
217,129.32771749166668,129.4853259666667,70.0,102.0
218,129.5451084916667,129.66648513333337,68.0,92.0
219,129.7624994916667,130.34764360000003,70.0,102.0
220,130.4146724916667,130.56322300833335,75.0,100.0
221,130.63206349166668,130.9581499916667,70.0,82.0
222,131.0668454916667,131.62843890833335,72.0,100.0
223,131.9128588,132.0559745416667,65.0,97.0
224,132.15198890000002,132.2679307666667,67.0,102.0
225,132.37119149166668,132.80235030833336,68.0,80.0
226,132.8059734916667,133.23713230833334,68.0,93.0
227,133.6755374916667,133.79147935833336,70.0,89.0
228,133.89292849166668,134.02336309166668,72.0,94.0
229,134.1103194916667,134.72082588333336,70.0,114.0
230,134.9798834916667,135.32408590833336,67.0,99.0
231,135.41466549166668,135.52154940000003,63.0,92.0
232,135.63205649166667,138.45451630833335,65.0,97.0
233,138.8929214916667,139.0179213166667,72.0,105.0
234,139.1103124916667,139.23893550000003,72.0,97.0
235,139.32770349166668,139.58676110000002,77.0,100.0
236,139.7624854916667,140.42915122500003,77.0,105.0
237,140.6320494916667,140.77516523333335,77.0,111.0
238,140.84944049166668,140.95632440000003,75.0,94.0
239,141.06683149166668,141.42190345833336,77.0,105.0
240,141.9363954916667,142.0994387416667,75.0,87.0
241,142.1537864916667,142.60124963333337,70.0,102.0
242,142.8059594916667,142.98711865833334,72.0,108.0
243,143.0233504916667,143.23530671666668,70.0,78.0
244,143.24074149166668,145.3929123916667,72.0,100.0
245,145.8494334916667,145.97805650000004,72.0,92.0
246,146.0668244916667,146.19907068333336,72.0,97.0
247,146.28421549166669,146.93457690000002,77.0,105.0
248,147.15377949166668,147.77515543333337,77.0,111.0
249,147.8059524916667,147.9092132166667,75.0,53.0
250,148.02334349166668,148.62116874166668,77.0,102.0
251,148.89290749166668,149.1320375916667,75.0,105.0
252,149.3276894916667,149.45993568333336,75.0,100.0
253,149.54508049166668,149.68457305,77.0,102.0
254,149.7624714916667,150.0613841166667,75.0,105.0
255,150.1972534916667,150.3222533166667,70.0,100.0
256,150.41464449166668,152.44543875000002,72.0,97.0
257,152.80594549166668,152.94000327500004,72.0,108.0
258,153.0233364916667,153.14471313333337,70.0,105.0
259,153.2407274916667,153.3602925416667,68.0,100.0
260,153.45811849166668,153.83674115000002,68.0,100.0
261,154.1102914916667,154.38746501666668,68.0,108.0
262,154.5450734916667,154.6755080916667,68.0,102.0
263,154.7624644916667,154.87840635833336,65.0,92.0
264,154.97985549166668,155.23347832500002,70.0,102.0
265,155.4146374916667,155.5450720916667,75.0,87.0
266,155.6320284916667,156.00883955833336,70.0,102.0
267,156.2842014916667,156.40014335833337,68.0,102.0
268,156.50159249166668,156.60123003333337,70.0,105.0
269,156.7189834916667,157.02151930000002,72.0,105.0
270,157.1537654916667,157.41644628333336,75.0,92.0
271,157.5885474916667,157.87296738333336,70.0,108.0
272,158.0233294916667,158.15738727500002,70.0,105.0
273,158.24072049166668,158.3693435,72.0,92.0
274,158.4581114916667,158.77514003333337,70.0,114.0
275,158.89289349166668,159.40013915833336,68.0,105.0
276,159.76245749166668,159.8820225416667,65.0,105.0
277,159.9798484916667,160.0722396666667,68.0,100.0
278,160.1972394916667,160.49796370833334,72.0,102.0
279,160.6320214916667,160.73347062500002,70.0,87.0
280,160.8494124916667,161.6537591916667,70.0,100.0
281,161.9363674916667,162.36752630833337,70.0,105.0
282,162.3711494916667,162.483468175,70.0,89.0
283,162.5885404916667,163.13020640000002,72.0,102.0
284,163.2407134916667,163.6428868416667,68.0,111.0
285,163.67549549166668,165.92368075000002,65.0,108.0
286,166.2841874916667,166.45085392500002,72.0,102.0
287,166.5015784916667,166.8113606666667,80.0,111.0
288,166.9363604916667,167.04867917500002,72.0,117.0
289,167.1537514916667,167.80773608333337,77.0,97.0
290,168.0233154916667,168.32222811666668,77.0,105.0
291,168.4580974916667,168.56860458333335,75.0,97.0
292,168.6754884916667,169.51244384166668,77.0,108.0
293,169.5450524916667,169.72621165833337,72.0,105.0
294,169.7624434916667,170.05229815833337,80.0,105.0
295,170.1972254916667,170.30410940000002,77.0,94.0
296,170.4146164916667,170.51606562500004,75.0,102.0
297,170.63200749166668,170.96171717500002,77.0,105.0
298,171.0667894916667,171.28055730833336,75.0,111.0
299,171.2841804916667,172.36751230833335,72.0,114.0
300,173.2406994916667,173.58127872500003,64.0,111.0
301,173.6754814916667,173.8385247416667,72.0,108.0
302,173.8928724916667,174.03055345833337,68.0,73.0
303,174.1102634916667,174.63381348333337,70.0,105.0
304,174.7624364916667,174.885624725,70.0,92.0
305,174.9798274916667,175.27149375000002,70.0,102.0
306,175.41460949166668,175.5722179666667,70.0,102.0
307,175.6320004916667,175.77149305000003,68.0,89.0
308,175.8493914916667,176.4526515166667,70.0,114.0
309,176.7189554916667,177.00881015833335,75.0,102.0
310,177.1537374916667,177.29323005000003,77.0,100.0
311,177.3711284916667,177.4961283166667,75.0,108.0
312,177.5885194916667,179.93453070000004,72.0,111.0
313,180.1972114916667,180.36387792500003,72.0,102.0
314,180.4146024916667,180.7243846666667,80.0,111.0
315,180.84938449166668,180.96170317500003,72.0,117.0
316,181.0667754916667,181.72076008333337,77.0,97.0
317,181.9363394916667,182.2352521166667,77.0,105.0
318,182.37112149166668,182.48162858333336,75.0,97.0
319,182.5885124916667,183.4254678416667,77.0,108.0
320,183.4580764916667,183.63923565833335,72.0,105.0
321,183.6754674916667,183.96532215833335,80.0,105.0
322,184.1102494916667,184.21713340000002,77.0,94.0
323,184.3276404916667,184.42908962500002,75.0,102.0
324,184.5450314916667,184.87474117500003,77.0,105.0
325,184.9798134916667,185.19358130833336,75.0,111.0
326,185.1972044916667,186.71531830833337,72.0,114.0
327,187.15372349166668,187.49430272500004,64.0,111.0
328,187.5885054916667,187.7515487416667,72.0,108.0
329,187.8058964916667,187.94357745833335,68.0,73.0
330,188.0232874916667,188.54683748333338,70.0,105.0
331,188.8928514916667,189.18451775000003,70.0,102.0
332,189.3276334916667,189.4852419666667,68.0,102.0
333,189.5450244916667,190.3656755166667,70.0,114.0
334,190.6319794916667,190.95081962500004,67.0,108.0
335,191.0667614916667,191.2298047416667,70.0,94.0
336,191.2841524916667,191.46350006666668,68.0,94.0
337,191.5015434916667,194.10661230833335,65.0,102.0
338,194.11023549166669,194.27690192500003,72.0,102.0
339,194.3276264916667,194.6374086666667,80.0,111.0
340,194.7624084916667,194.87472717500003,72.0,117.0
341,194.9797994916667,195.63378408333335,77.0,97.0
342,195.8493634916667,196.1482761166667,77.0,105.0
343,196.2841454916667,196.39465258333337,75.0,97.0
344,196.50153649166668,197.3384918416667,77.0,108.0
345,197.3711004916667,197.55225965833336,72.0,105.0
346,197.5884914916667,197.87834615833336,80.0,105.0
347,198.02327349166669,198.13015740000003,77.0,94.0
348,198.2406644916667,198.34211362500002,75.0,102.0
349,198.4580554916667,198.78776517500003,77.0,105.0
350,198.8928374916667,199.10660530833337,75.0,111.0
351,199.1102284916667,200.19356030833336,72.0,114.0
352,201.0667474916667,201.40732672500002,64.0,111.0
353,201.5015294916667,201.6645727416667,72.0,108.0
354,201.7189204916667,201.85660145833336,68.0,73.0
355,201.9363114916667,202.45986148333336,70.0,105.0
356,202.5884844916667,202.71167272500003,70.0,92.0
357,202.8058754916667,203.09754175000003,70.0,102.0
358,203.2406574916667,203.39826596666668,70.0,102.0
359,203.4580484916667,203.59754105000002,68.0,89.0
360,203.6754394916667,204.2786995166667,70.0,114.0
361,204.5450034916667,204.83485815833336,75.0,102.0
362,204.9797854916667,205.11927805000002,77.0,100.0
363,205.1971764916667,205.32217631666668,75.0,108.0
364,205.4145674916667,207.76057870000002,72.0,111.0
365,208.0232594916667,208.18992592500004,72.0,102.0
366,208.2406504916667,208.5504326666667,80.0,111.0
367,208.6754324916667,208.78775117500004,72.0,117.0
368,208.8928234916667,209.54680808333336,77.0,97.0
369,209.7623874916667,210.0613001166667,77.0,105.0
370,210.1971694916667,210.30767658333338,75.0,97.0
371,210.4145604916667,211.2515158416667,77.0,108.0
372,211.2841244916667,211.46528365833336,72.0,105.0
373,211.5015154916667,211.79137015833336,80.0,105.0
374,211.9362974916667,212.04318140000004,77.0,94.0
375,212.1536884916667,212.25513762500003,75.0,102.0
376,212.3710794916667,212.70078917500004,77.0,105.0
377,212.8058614916667,213.01962930833338,75.0,111.0
378,213.0232524916667,214.54136630833338,72.0,114.0
379,214.9797714916667,215.32035072500003,64.0,111.0
380,215.4145534916667,215.5775967416667,72.0,108.0
381,215.6319444916667,215.76962545833337,68.0,73.0
382,215.8493354916667,216.37288548333336,70.0,105.0
383,216.7188994916667,217.01056575000004,70.0,102.0
384,217.1536814916667,217.3112899666667,68.0,102.0
385,217.3710724916667,218.1917235166667,70.0,114.0
386,218.4580274916667,218.77686762500002,67.0,108.0
387,218.8928094916667,219.0558527416667,70.0,94.0
388,219.1102004916667,219.2895480666667,68.0,94.0
389,219.3275914916667,222.5178044166667,65.0,102.0
