,start,end,pitch,velocity
0,1.9365914916666669,2.5380399250000005,60.0,69.0
1,1.9365914916666669,2.550721066666667,63.0,76.0
2,2.371373491666667,3.023546491666667,55.0,37.0
3,1.9365914916666669,3.6050674166666674,48.0,62.0
4,2.806155491666667,3.623183333333334,67.0,82.0
5,3.240937491666667,3.6467340250000007,60.0,58.0
6,4.110501491666668,4.681152866666667,56.0,53.0
7,3.6757194916666673,5.246369466666668,49.0,76.0
8,4.545283491666668,5.405789533333334,61.0,82.0
9,4.980065491666667,5.7101369333333345,56.0,60.0
10,5.849629491666668,6.369556300000001,51.0,45.0
11,6.284411491666668,6.6014400333333345,60.0,87.0
12,6.501802491666668,7.030787258333334,51.0,71.0
13,5.414847491666667,7.096004558333335,44.0,57.0
14,6.719193491666668,7.132236391666668,56.0,69.0
15,6.936584491666668,7.144917533333334,63.0,73.0
16,7.153975491666667,7.8079600833333345,63.0,78.0
17,7.588757491666668,8.192017516666668,55.0,48.0
18,8.023539491666668,8.313394158333335,60.0,84.0
19,8.023539491666668,8.552524258333335,67.0,52.0
20,7.153975491666667,8.599625641666668,48.0,80.0
21,8.458321491666668,8.786219583333335,63.0,84.0
22,8.458321491666668,8.795277541666668,60.0,46.0
23,8.893103491666668,9.494551925000001,61.0,62.0
24,8.893103491666668,9.565204000000001,65.0,73.0
25,9.327885491666668,9.998174408333336,56.0,62.0
26,9.762667491666669,10.067014891666668,61.0,78.0
27,8.893103491666668,10.119551050000002,49.0,87.0
28,9.762667491666669,10.208319041666668,68.0,84.0
29,10.197449491666669,10.349623191666668,61.0,73.0
30,10.63223149166667,11.364114525000002,60.0,62.0
31,10.63223149166667,11.373172483333335,64.0,57.0
32,11.067013491666668,11.87136019166667,55.0,61.0
33,11.501795491666668,12.095997558333336,67.0,31.0
34,10.63223149166667,12.103243925000001,48.0,84.0
35,11.501795491666668,12.193823508333335,60.0,76.0
36,12.371359491666668,12.894909483333336,72.0,73.0
37,12.371359491666668,12.923894950000003,64.0,52.0
38,12.371359491666668,12.927518133333335,67.0,48.0
39,12.371359491666668,12.97461951666667,60.0,64.0
40,12.806141491666668,14.005415175000001,55.0,34.0
41,12.371359491666668,14.032589050000002,48.0,76.0
42,13.240923491666669,14.048893375000002,64.0,38.0
43,13.240923491666669,14.054328150000002,60.0,67.0
44,13.240923491666669,14.057951333333335,67.0,59.0
45,14.11048749166667,15.599615841666669,41.0,89.0
46,14.54526949166667,15.64852881666667,48.0,71.0
47,14.98005149166667,15.811572066666669,53.0,67.0
48,14.98005149166667,15.81700684166667,60.0,80.0
49,15.849615491666668,17.260845400000004,44.0,67.0
50,16.28439749166667,17.369540900000004,51.0,80.0
51,16.71917949166667,17.38222204166667,56.0,71.0
52,16.71917949166667,17.440192975000002,60.0,92.0
53,18.02352549166667,18.530771158333337,53.0,80.0
54,17.58874349166667,19.228233950000003,46.0,64.0
55,18.45830749166667,19.34961059166667,61.0,92.0
56,18.893089491666668,19.353233775000003,53.0,66.0
57,18.45830749166667,19.418451075000004,58.0,80.0
58,19.76265349166667,20.641275450000002,48.0,76.0
59,20.19743549166667,20.646710225000003,56.0,69.0
60,19.32787149166667,20.652145000000004,41.0,80.0
61,20.19743549166667,20.65395659166667,60.0,84.0
62,20.19743549166667,20.67026091666667,53.0,67.0
63,21.06699949166667,22.09960674166667,53.0,82.0
64,21.06699949166667,22.34417161666667,37.0,87.0
65,21.93656349166667,22.39851936666667,49.0,84.0
66,21.50178149166667,22.42025846666667,44.0,55.0
67,22.37134549166667,22.822431816666672,56.0,67.0
68,22.806127491666672,24.15395169166667,55.0,61.0
69,23.67569149166667,24.19742989166667,51.0,78.0
70,22.806127491666672,24.260835600000004,39.0,84.0
71,23.24090949166667,24.34416881666667,46.0,67.0
72,24.11047349166667,24.34960359166667,58.0,89.0
73,24.54525549166667,26.074238858333338,56.0,76.0
74,24.54525549166667,26.108659100000004,44.0,73.0
75,24.98003749166667,26.128586608333336,48.0,37.0
76,25.84960149166667,26.249963250000004,51.0,69.0
77,25.41481949166667,26.403948541666672,60.0,97.0
78,26.719165491666672,27.184744550000005,52.0,102.0
79,27.15394749166667,27.62677291666667,60.0,100.0
80,27.588729491666673,27.994526025000006,58.0,84.0
81,26.28438349166667,28.028946266666672,36.0,92.0
82,28.02351149166667,29.512639841666672,41.0,89.0
83,28.45829349166667,29.561552816666673,48.0,71.0
84,28.89307549166667,29.72459606666667,53.0,67.0
85,28.89307549166667,29.73003084166667,60.0,80.0
86,29.762639491666672,31.173869400000005,44.0,67.0
87,30.19742149166667,31.282564900000004,51.0,80.0
88,30.632203491666672,31.295246041666672,56.0,71.0
89,30.632203491666672,31.353216975000006,60.0,92.0
90,31.93654949166667,32.44379515833334,53.0,80.0
91,31.501767491666673,33.14125795,46.0,64.0
92,32.37133149166667,33.262634591666675,61.0,92.0
93,32.80611349166667,33.26625777500001,53.0,66.0
94,32.37133149166667,33.33147507500001,58.0,80.0
95,33.67567749166667,34.55429945,48.0,76.0
96,34.110459491666674,34.55973422500001,56.0,69.0
97,33.24089549166667,34.565169000000004,41.0,80.0
98,34.110459491666674,34.56698059166667,60.0,84.0
99,34.110459491666674,34.58328491666667,53.0,67.0
100,34.98002349166667,36.01263074166667,53.0,82.0
101,34.98002349166667,36.25719561666667,37.0,87.0
102,35.849587491666675,36.31154336666667,49.0,84.0
103,35.41480549166667,36.333282466666674,44.0,55.0
104,36.28436949166667,36.73545581666667,56.0,67.0
105,36.71915149166667,38.06697569166667,55.0,61.0
106,37.588715491666676,38.11045389166667,51.0,78.0
107,36.71915149166667,38.17385960000001,39.0,84.0
108,37.15393349166667,38.257192816666674,46.0,67.0
109,38.023497491666674,38.26262759166667,58.0,89.0
110,38.45827949166667,39.112264083333336,56.0,89.0
111,38.45827949166667,39.17023501666667,53.0,82.0
112,38.89306149166667,39.48182878333334,48.0,52.0
113,39.32784349166667,39.75719071666667,60.0,82.0
114,39.32784349166667,39.87856735833334,53.0,82.0
115,39.762625491666675,40.31334935833334,48.0,62.0
116,40.197407491666674,40.67023291666667,60.0,80.0
117,40.197407491666674,40.757189316666675,53.0,78.0
118,40.63218949166667,41.170232216666676,48.0,71.0
119,41.06697149166667,41.30791318333334,56.0,111.0
120,41.06697149166667,41.32421750833334,53.0,102.0
121,38.45827949166667,41.88218774166668,41.0,97.0
122,41.501753491666676,41.88943410833334,55.0,105.0
123,41.28436249166667,41.912984800000004,48.0,84.0
124,41.936535491666675,42.31334655833334,68.0,84.0
125,41.936535491666675,42.452839116666674,37.0,86.0
126,42.153926491666674,42.489070950000006,44.0,77.0
127,42.37131749166667,42.664795341666675,61.0,85.0
128,42.58870849166667,42.833273366666674,65.0,76.0
129,42.80609949166667,43.09233097500001,68.0,85.0
130,43.02349049166667,43.46551885833334,61.0,85.0
131,43.24088149166667,43.50899705833334,65.0,70.0
132,43.458272491666676,43.66298235000001,68.0,79.0
133,44.110445491666674,44.37312628333334,63.0,86.0
134,43.893054491666675,44.41479289166667,58.0,77.0
135,43.675663491666675,44.605010016666675,51.0,98.0
136,44.32783649166667,44.76443008333334,70.0,86.0
137,44.54522749166667,44.84595170833334,58.0,83.0
138,44.76261849166667,45.01442973333334,63.0,88.0
139,44.98000949166667,45.28798007500001,70.0,78.0
140,45.19740049166668,45.42203785833334,63.0,89.0
141,45.849573491666675,46.09776155000001,53.0,87.0
142,46.066964491666674,46.41297850000001,60.0,80.0
143,46.28435549166667,46.52710877500001,56.0,72.0
144,46.50174649166667,46.80971707500001,53.0,88.0
145,45.632182491666676,47.023484891666676,48.0,76.0
146,45.414791491666676,47.03616603333334,41.0,86.0
147,46.93652849166667,47.04341240000001,56.0,86.0
148,46.71913749166667,47.175658591666675,60.0,84.0
149,47.15391949166668,47.85862865000001,65.0,87.0
150,47.588701491666676,47.887614116666676,53.0,89.0
151,47.806092491666675,48.27167155000001,60.0,86.0
152,48.023483491666674,48.27529473333334,56.0,85.0
153,48.24087449166667,48.48725095833334,53.0,86.0
154,47.37131049166668,48.60319282500001,48.0,79.0
155,47.15391949166668,48.63942465833334,41.0,85.0
156,48.45826549166667,48.82239541666667,65.0,86.0
157,48.67565649166667,48.87311998333334,53.0,88.0
158,49.32782949166668,49.60500301666667,49.0,84.0
159,49.762611491666675,50.00536477500001,53.0,69.0
160,49.545220491666676,50.01804591666667,56.0,80.0
161,49.980002491666674,50.15753847500001,49.0,90.0
162,48.89304749166667,50.16478484166667,37.0,90.0
163,49.11043849166668,50.213697816666674,44.0,83.0
164,50.41478449166667,50.565146600000006,49.0,91.0
165,50.19739349166667,50.65753777500001,61.0,85.0
166,51.06695749166668,51.527101775000006,51.0,89.0
167,51.28434849166668,51.54884087500001,55.0,81.0
168,51.501739491666676,51.75717391666667,63.0,86.0
169,51.719130491666675,51.911159208333345,55.0,84.0
170,50.63217549166667,51.96731855000001,39.0,98.0
171,50.84956649166667,51.97456491666667,46.0,79.0
172,51.936521491666674,52.153912491666674,51.0,95.0
173,52.153912491666674,52.29159345833334,55.0,78.0
174,52.80608549166668,52.99267943333334,56.0,89.0
175,53.02347649166668,53.22637475833334,53.0,87.0
176,53.24086749166668,53.53796852500001,60.0,85.0
177,53.458258491666676,53.67383790000001,56.0,85.0
178,53.675649491666675,53.96550415833334,53.0,85.0
179,52.37130349166667,53.98543166666668,41.0,87.0
180,52.58869449166667,53.98724325833334,48.0,83.0
181,54.54521349166667,54.715503108333344,56.0,85.0
182,53.893040491666675,54.744488575000005,65.0,90.0
183,54.76260449166668,54.88398113333334,53.0,85.0
184,54.32782249166667,55.08144462500001,48.0,84.0
185,54.97999549166668,55.38579202500001,56.0,95.0
186,55.19738649166668,55.63398008333334,48.0,84.0
187,54.110431491666674,55.644849633333344,41.0,87.0
188,54.97999549166668,55.673835100000005,60.0,91.0
189,55.414777491666676,55.72455966666668,53.0,85.0
190,55.632168491666675,55.82600880000001,56.0,87.0
191,56.28434149166667,56.69013802500001,49.0,86.0
192,56.50173249166667,56.749920550000006,53.0,75.0
193,56.71912349166668,56.99267383333334,61.0,88.0
194,55.849559491666675,57.17926777500001,37.0,95.0
195,56.93651449166668,57.22818075000001,56.0,83.0
196,56.066950491666674,57.23361552500001,44.0,80.0
197,57.15390549166668,57.40752832500001,53.0,84.0
198,57.371296491666676,57.54339770000001,49.0,93.0
199,58.023469491666674,58.338686441666674,51.0,86.0
200,58.24086049166667,58.50716446666667,55.0,79.0
201,58.45825149166667,58.70825114166668,63.0,85.0
202,58.67564249166668,59.08868539166667,58.0,78.0
203,58.89303349166668,59.13759836666667,55.0,79.0
204,57.588687491666676,59.193757708333344,39.0,91.0
205,57.806078491666675,59.213685216666676,46.0,72.0
206,59.11042449166668,59.26984455833334,51.0,88.0
207,59.32781549166668,59.63578607500001,56.0,75.0
208,59.32781549166668,59.78977136666668,44.0,89.0
209,59.32781549166668,59.78977136666668,63.0,80.0
210,59.762597491666675,60.04158260833334,56.0,85.0
211,59.545206491666676,60.12491582500001,51.0,86.0
212,59.979988491666674,60.311509766666674,63.0,78.0
213,60.41477049166667,60.854987266666676,51.0,77.0
214,60.19737949166667,60.92745093333334,43.0,84.0
215,60.63216149166668,60.95100162500001,55.0,83.0
216,60.84955249166668,61.06513190000001,58.0,71.0
217,61.719116491666675,61.84773950000001,56.0,87.0
218,61.501725491666676,62.03252185000001,53.0,87.0
219,61.936507491666674,62.210057833333344,65.0,86.0
220,62.15389849166667,62.40027495833334,60.0,73.0
221,62.37128949166668,62.69194121666668,56.0,82.0
222,62.58868049166668,62.85317287500001,53.0,84.0
223,61.28433449166668,62.96911474166668,48.0,80.0
224,61.06694349166668,63.003534983333346,41.0,87.0
225,62.80607149166668,63.09230297500001,58.0,88.0
226,63.458244491666676,63.69012822500001,61.0,86.0
227,63.24085349166668,63.71367891666667,58.0,75.0
228,63.02346249166668,63.81512805000001,53.0,85.0
229,63.675635491666675,64.08143202500001,65.0,86.0
230,63.893026491666674,64.16295365,61.0,85.0
231,62.80607149166668,64.24266368333335,46.0,88.0
232,64.11041749166668,64.39302579166667,58.0,84.0
233,64.32780849166667,64.61585156666668,53.0,89.0
234,64.97998149166668,65.36766210833335,51.0,84.0
235,65.19737249166668,65.45461850833334,55.0,76.0
236,64.54519949166668,65.64302404166668,39.0,84.0
237,64.76259049166667,65.69374860833334,46.0,84.0
238,65.41476349166668,65.85135708333334,63.0,84.0
239,65.63215449166668,65.88034255000001,55.0,85.0
240,65.84954549166667,65.96186417500002,51.0,91.0
241,66.28432749166667,67.05606554166668,56.0,84.0
242,66.28432749166667,67.13396398333335,53.0,84.0
243,67.15389149166668,67.43287660833334,60.0,83.0
244,67.58867349166668,67.99628161666668,56.0,87.0
245,67.37128249166668,68.29157105833335,53.0,84.0
246,68.24084649166667,68.29157105833335,53.0,77.0
247,68.02345549166668,68.43830998333334,56.0,30.0
248,67.80606449166667,68.57055617500001,60.0,84.0
249,68.02345549166668,68.63396188333334,65.0,87.0
250,68.89301949166668,69.66294595000001,56.0,85.0
251,66.71910949166667,69.67200390833334,48.0,85.0
252,66.28432749166667,69.67743868333335,41.0,85.0
253,68.89301949166668,69.68287345833335,60.0,83.0
254,69.32780149166668,69.70642415000002,53.0,88.0
255,68.89301949166668,69.70823574166668,65.0,85.0
256,69.76258349166667,70.21004663333335,65.0,94.0
257,69.76258349166667,70.24627846666668,68.0,100.0
258,70.41475649166668,70.50714766666668,65.0,51.0
259,70.19736549166667,70.67924887500001,60.0,89.0
260,70.63214749166667,70.864031225,65.0,102.0
261,70.63214749166667,70.89120510000001,68.0,108.0
262,69.76258349166667,70.92019056666668,53.0,105.0
263,69.77164145,70.929248525,41.0,92.0
264,70.63214749166667,70.96910354166668,72.0,100.0
265,70.84953849166668,71.00714696666668,60.0,80.0
266,71.06692949166668,71.33323346666668,65.0,92.0
267,71.28432049166668,71.37852325833335,68.0,82.0
268,71.50171149166668,72.01620352500001,61.0,100.0
269,71.50171149166668,72.0216383,49.0,94.0
270,71.51076945000001,72.03069625833335,37.0,81.0
271,71.50171149166668,72.04337740000001,65.0,105.0
272,71.93649349166668,72.40026095833335,56.0,80.0
273,72.37127549166668,72.81330385833334,61.0,102.0
274,72.37127549166668,72.853158875,65.0,111.0
275,72.37127549166668,72.88757911666667,68.0,105.0
276,72.80605749166668,72.99989780000001,49.0,82.0
277,72.81511545000001,73.00895575833334,37.0,69.0
278,73.02344849166668,73.11221648333334,61.0,94.0
279,73.24083949166668,73.44373775833334,63.0,94.0
280,73.24083949166668,73.81692564166667,68.0,100.0
281,73.67562149166667,73.89120090000002,63.0,76.0
282,73.24083949166668,74.17743238333334,44.0,80.0
283,73.24083949166668,74.17743238333334,56.0,80.0
284,74.11040349166667,74.32235971666668,63.0,108.0
285,74.11040349166667,74.39120020000001,68.0,111.0
286,74.11040349166667,74.40931611666667,72.0,102.0
287,74.32779449166668,74.4129393,56.0,73.0
288,74.76257649166668,74.842286525,68.0,100.0
289,74.54518549166667,74.84409811666667,63.0,102.0
290,74.97996749166668,75.28793807500001,60.0,97.0
291,74.97996749166668,75.31692354166668,64.0,102.0
292,75.41474949166668,75.67199550833334,60.0,100.0
293,74.97996749166668,75.71185052500002,48.0,100.0
294,74.99808340833334,75.72996644166668,36.0,87.0
295,75.84953149166668,76.07960363333335,60.0,102.0
296,75.84953149166668,76.16293685000001,64.0,112.0
297,76.06692249166667,76.20641505000002,55.0,87.0
298,75.84953149166668,76.39119740000001,67.0,102.0
299,76.28431349166668,76.57054497500002,60.0,108.0
300,76.50170449166667,76.62670431666668,64.0,44.0
301,76.71909549166668,77.17561659166668,61.0,94.0
302,76.71909549166668,77.23902230000002,58.0,87.0
303,77.15387749166668,77.64119565000001,53.0,69.0
304,76.71909549166668,77.72634045833334,46.0,94.0
305,76.73721140833335,77.74445637500001,34.0,81.0
306,77.58865949166668,77.92561554166667,58.0,100.0
307,77.58865949166668,77.93829668333335,61.0,108.0
308,77.58865949166668,77.97452851666668,65.0,97.0
309,78.02344149166667,78.11764425833334,53.0,92.0
310,78.45822349166667,78.93648369166668,63.0,92.0
311,78.45822349166667,79.01438213333334,67.0,85.0
312,79.11039649166668,79.21365721666668,63.0,89.0
313,78.89300549166668,79.35858455000002,58.0,105.0
314,79.32778749166668,79.55785963333335,63.0,105.0
315,79.32778749166668,79.55785963333335,70.0,105.0
316,78.45822349166667,79.58865669166669,51.0,102.0
317,78.46909304166668,79.59952624166668,39.0,89.0
318,79.54517849166668,79.65568558333335,58.0,102.0
319,79.76256949166668,79.99445322500002,63.0,87.0
320,80.19372830833335,80.34046723333334,32.0,87.0
321,80.19735149166668,80.34409041666667,44.0,100.0
322,80.19735149166668,81.10133573333334,63.0,94.0
323,80.19735149166668,81.15387189166668,68.0,97.0
324,80.84952449166668,81.18466895000002,56.0,60.0
325,80.63213349166668,81.21727760000002,51.0,71.0
326,81.06691549166668,81.29698763333334,60.0,117.0
327,81.28430649166668,81.64843641666668,63.0,114.0
328,81.50169749166668,81.71365371666668,68.0,111.0
329,81.71908849166668,81.79698693333334,72.0,94.0
330,81.93647949166667,82.39481218333334,64.0,93.0
331,81.93647949166667,82.42923242500001,60.0,92.0
332,81.93647949166667,82.42923242500001,67.0,93.0
333,82.58865249166668,82.67198570833335,64.0,72.0
334,82.58865249166668,82.68285525833335,67.0,35.0
335,82.58865249166668,82.71002913333335,60.0,82.0
336,82.58865249166668,82.71002913333335,72.0,84.0
337,82.37126149166669,82.89118830000001,55.0,70.0
338,82.80604349166668,82.9998838,72.0,97.0
339,82.80604349166668,83.03249245,64.0,109.0
340,82.80604349166668,83.04698518333335,60.0,111.0
341,82.80604349166668,83.04698518333335,67.0,105.0
342,81.93466790000001,83.16111545833334,36.0,92.0
343,81.93647949166667,83.16292705000001,48.0,105.0
344,83.02343449166668,83.30060801666669,55.0,74.0
345,83.24082549166668,83.56691199166669,60.0,100.0
346,83.24082549166668,83.57234676666668,64.0,105.0
347,83.24082549166668,83.6303177,70.0,97.0
348,83.67560749166668,84.12307063333334,65.0,94.0
349,83.67560749166668,84.15930246666667,68.0,100.0
350,84.32778049166669,84.42017166666668,65.0,51.0
351,84.11038949166668,84.592272875,60.0,89.0
352,84.54517149166668,84.77705522500001,65.0,102.0
353,84.54517149166668,84.80422910000001,68.0,108.0
354,83.67560749166668,84.83321456666668,53.0,105.0
355,83.68285385833335,84.84046093333335,41.0,92.0
356,84.54517149166668,84.88212754166668,72.0,100.0
357,84.76256249166669,84.92017096666667,60.0,80.0
358,84.97995349166668,85.24625746666668,65.0,92.0
359,85.19734449166668,85.29154725833335,68.0,82.0
360,85.41473549166668,85.92922752500002,61.0,100.0
361,85.41473549166668,85.93466230000001,49.0,94.0
362,85.42560504166669,85.94553185000001,37.0,81.0
363,85.41473549166668,85.95640140000002,65.0,105.0
364,85.84951749166667,86.31328495833334,56.0,80.0
365,86.28429949166669,86.72632785833335,61.0,102.0
366,86.28429949166669,86.76618287500001,65.0,111.0
367,86.28429949166669,86.80060311666668,68.0,105.0
368,86.71908149166669,86.9129218,49.0,82.0
369,86.72995104166668,86.92379135000002,37.0,69.0
370,86.93647249166668,87.02524048333335,61.0,94.0
371,87.15386349166668,87.35676175833335,63.0,94.0
372,87.15386349166668,87.72994964166668,68.0,100.0
373,87.58864549166668,87.80422490000001,63.0,76.0
374,87.15386349166668,88.09045638333335,44.0,80.0
375,87.15386349166668,88.09045638333335,56.0,80.0
376,88.02342749166668,88.23538371666668,63.0,108.0
377,88.02342749166668,88.30422420000001,68.0,111.0
378,88.02342749166668,88.32234011666668,72.0,102.0
379,88.24081849166669,88.32596330000001,56.0,73.0
380,88.67560049166669,88.75531052500001,68.0,100.0
381,88.45820949166668,88.75712211666668,63.0,102.0
382,88.89299149166668,89.20096207500002,60.0,97.0
383,88.89299149166668,89.22994754166668,64.0,102.0
384,89.32777349166668,89.58501950833335,60.0,100.0
385,88.88393353333335,89.61762815833335,36.0,87.0
386,88.89299149166668,89.62487452500001,48.0,100.0
387,89.76255549166667,89.99262763333334,60.0,102.0
388,89.76255549166667,90.07596085000002,64.0,112.0
389,89.97994649166668,90.11943905000001,55.0,87.0
390,89.76255549166667,90.30422140000002,67.0,102.0
391,90.19733749166669,90.48356897500001,60.0,108.0
392,90.41472849166668,90.53972831666668,64.0,44.0
393,90.63211949166669,91.08864059166667,61.0,94.0
394,90.63211949166669,91.15204630000001,58.0,87.0
395,91.06690149166668,91.55421965000001,53.0,69.0
396,90.63211949166669,91.63936445833335,46.0,94.0
397,90.65385859166668,91.66291515000002,34.0,81.0
398,91.50168349166668,91.83863954166668,58.0,100.0
399,91.50168349166668,91.85132068333334,61.0,108.0
400,91.50168349166668,91.88755251666669,65.0,97.0
401,91.93646549166668,92.03066825833335,53.0,92.0
402,92.37124749166668,92.84950769166669,63.0,92.0
403,92.37124749166668,92.92740613333335,67.0,85.0
404,93.02342049166668,93.12668121666668,63.0,89.0
405,92.80602949166668,93.27160855000001,58.0,105.0
406,93.24081149166668,93.47088363333334,63.0,105.0
407,93.24081149166668,93.47088363333334,68.0,105.0
408,92.37124749166668,93.50168069166668,51.0,102.0
409,92.39298659166668,93.52341979166668,39.0,89.0
410,93.45820249166668,93.56870958333334,58.0,102.0
411,93.67559349166667,93.90747722500001,63.0,87.0
412,94.11037549166669,94.31327375833335,60.0,92.0
413,94.11037549166669,94.32595490000001,65.0,82.0
414,94.11037549166669,94.37305628333336,68.0,94.0
415,94.11037549166669,94.78972236666668,53.0,102.0
416,94.11581026666668,94.79515714166668,41.0,92.0
417,94.54515749166669,94.79515714166668,65.0,78.0
418,95.19733049166668,95.25167824166668,41.0,50.0
419,95.19733049166668,95.25167824166668,53.0,60.0
420,94.97993949166668,95.38030125000002,68.0,114.0
421,94.97993949166668,95.38935920833335,65.0,105.0
422,94.97993949166668,95.43646059166669,72.0,105.0
423,95.41472149166668,95.70095297500002,60.0,84.0
424,95.63211249166667,95.75348913333335,65.0,100.0
425,95.84950349166668,96.34044483333335,68.0,94.0
426,95.84950349166668,96.37486507500002,65.0,94.0
427,96.28428549166668,96.85131368333334,60.0,76.0
428,95.84950349166668,96.92377735000001,41.0,92.0
429,95.84950349166668,96.92377735000001,53.0,102.0
430,96.71906749166668,97.53790692500002,68.0,108.0
431,96.71906749166668,97.53971851666668,65.0,100.0
432,96.71906749166668,97.55058806666668,72.0,102.0
433,97.15384949166668,97.55421125000001,41.0,87.0
434,97.15384949166668,97.55421125000001,53.0,97.0
435,97.15384949166668,97.56689239166668,60.0,94.0
436,97.58863149166667,98.30058701666668,56.0,82.0
437,97.58863149166667,98.32051452500002,61.0,92.0
438,98.45819549166669,98.95094842500002,61.0,102.0
439,98.45819549166669,98.98355707500002,56.0,105.0
440,97.58863149166667,99.21725240000002,37.0,94.0
441,98.89297749166668,99.43645499166668,53.0,60.0
442,99.32775949166668,99.92196155833335,61.0,97.0
443,99.32775949166668,99.94732384166669,56.0,78.0
444,100.19732349166668,100.42377245000002,53.0,84.0
445,100.19732349166668,100.63029390000001,56.0,94.0
446,99.32775949166668,100.73355462500001,37.0,84.0
447,100.63210549166668,100.82051102500002,53.0,67.0
448,100.19732349166668,100.85130808333335,61.0,94.0
449,101.06688749166668,101.72449526666668,60.0,94.0
450,101.06688749166668,101.74261118333335,56.0,92.0
451,101.06688749166668,101.83681395000002,51.0,94.0
452,101.06688749166668,102.24804525833335,44.0,78.0
453,101.93645149166669,102.57956653333335,60.0,105.0
454,101.93645149166669,102.63572587500002,56.0,100.0
455,102.37123349166669,102.77703002500002,39.0,53.0
456,102.80601549166668,103.48173918333335,51.0,80.0
457,102.80601549166668,103.48536236666668,56.0,89.0
458,102.80601549166668,103.49442032500002,60.0,94.0
459,103.67557949166668,103.94369505833335,51.0,100.0
460,103.67557949166668,103.96724575000002,56.0,108.0
461,103.67557949166668,104.00166599166668,60.0,100.0
462,102.80601549166668,104.17376720000001,44.0,82.0
463,104.54514349166668,105.10673690833335,58.0,94.0
464,104.54514349166668,105.14659192500001,61.0,92.0
465,104.54514349166668,105.49985230000001,46.0,94.0
466,105.41470749166669,106.09586595833335,61.0,100.0
467,105.41470749166669,106.11760505833335,58.0,111.0
468,105.41470749166669,106.12303983333335,53.0,97.0
469,105.84948949166669,106.31869173333335,41.0,100.0
470,106.28427149166669,106.93825608333336,58.0,92.0
471,106.28427149166669,106.93825608333336,61.0,94.0
472,106.28427149166669,106.94731404166669,53.0,84.0
473,106.28427149166669,107.24984985000002,46.0,102.0
474,107.15383549166668,107.35492216666668,58.0,105.0
475,107.15383549166668,107.35492216666668,61.0,102.0
476,107.15383549166668,107.38028445000002,53.0,105.0
477,108.02339949166668,108.72629705833334,55.0,85.0
478,108.02339949166668,108.78245640000002,48.0,89.0
479,108.89296349166668,109.20999203333335,52.0,105.0
480,108.89296349166668,109.26977455833335,55.0,105.0
481,108.89296349166668,109.36760050833335,60.0,94.0
482,108.02339949166668,109.60310742500002,36.0,94.0
483,109.76252749166669,111.34767020000001,36.0,97.0
484,109.32774549166669,111.38752521666669,48.0,108.0
485,109.76252749166669,111.42556864166669,60.0,102.0
486,111.50165549166668,112.99078384166668,41.0,89.0
487,111.93643749166668,113.03969681666669,48.0,71.0
488,112.37121949166668,113.20274006666668,53.0,67.0
489,112.37121949166668,113.20817484166669,60.0,80.0
490,113.24078349166669,114.65201340000002,44.0,67.0
491,113.67556549166669,114.76070890000001,51.0,80.0
492,114.11034749166669,114.77339004166669,56.0,71.0
493,114.11034749166669,114.83136097500002,60.0,92.0
494,115.41469349166668,115.92193915833334,53.0,80.0
495,114.97991149166668,116.61940195000003,46.0,64.0
496,115.84947549166668,116.74077859166668,61.0,92.0
497,116.28425749166668,116.74440177500001,53.0,66.0
498,115.84947549166668,116.80961907500001,58.0,80.0
499,117.15382149166669,118.03244345000002,48.0,76.0
500,117.58860349166669,118.03787822500001,56.0,69.0
501,116.71903949166669,118.04331300000001,41.0,80.0
502,117.58860349166669,118.04512459166669,60.0,84.0
503,117.58860349166669,118.06142891666669,53.0,67.0
504,118.45816749166669,119.49077474166668,53.0,82.0
505,118.45816749166669,119.73533961666668,37.0,87.0
506,119.32773149166668,119.78968736666668,49.0,84.0
507,118.89294949166668,119.81142646666669,44.0,55.0
508,119.76251349166668,120.21359981666669,56.0,67.0
509,120.19729549166668,121.54511969166668,55.0,61.0
510,121.06685949166669,121.58859789166668,51.0,78.0
511,120.19729549166668,121.65200360000001,39.0,84.0
512,120.63207749166669,121.73533681666669,46.0,67.0
513,121.50164149166669,121.74077159166669,58.0,89.0
514,121.93642349166669,123.46540685833335,56.0,76.0
515,121.93642349166669,123.49982710000002,44.0,73.0
516,122.37120549166669,123.51975460833336,48.0,37.0
517,123.24076949166668,123.64113125000002,51.0,69.0
518,122.80598749166668,123.79511654166669,60.0,97.0
519,124.11033349166668,124.57591255000001,52.0,102.0
520,124.54511549166669,125.01794091666669,60.0,100.0
521,124.97989749166669,125.38569402500002,58.0,84.0
522,123.67555149166668,125.42011426666669,36.0,92.0
523,125.41467949166669,126.90380784166669,41.0,89.0
524,125.84946149166669,126.95272081666668,48.0,71.0
525,126.28424349166669,127.11576406666669,53.0,67.0
526,126.28424349166669,127.12119884166668,60.0,80.0
527,127.15380749166668,128.56503740000002,44.0,67.0
528,127.58858949166668,128.67373290000003,51.0,80.0
529,128.0233714916667,128.6864140416667,56.0,71.0
530,128.0233714916667,128.74438497500003,60.0,92.0
531,129.32771749166668,129.83496315833335,53.0,80.0
532,128.8929354916667,130.53242595000003,46.0,64.0
533,129.7624994916667,130.65380259166668,61.0,92.0
534,130.1972814916667,130.657425775,53.0,66.0
535,129.7624994916667,130.722643075,58.0,80.0
536,131.0668454916667,131.94546745000002,48.0,76.0
537,131.50162749166668,131.95090222500002,56.0,69.0
538,130.63206349166668,131.95633700000002,41.0,80.0
539,131.50162749166668,131.95814859166668,60.0,84.0
540,131.50162749166668,131.97445291666668,53.0,67.0
541,132.37119149166668,133.4037987416667,53.0,82.0
542,132.37119149166668,133.6483636166667,37.0,87.0
543,133.24075549166668,133.70271136666668,49.0,84.0
544,132.8059734916667,133.7244504666667,44.0,55.0
545,133.6755374916667,134.1266238166667,56.0,67.0
546,134.1103194916667,135.4581436916667,55.0,61.0
547,134.9798834916667,135.5016218916667,51.0,78.0
548,134.1103194916667,135.5650276,39.0,84.0
549,134.54510149166668,135.6483608166667,46.0,67.0
550,135.41466549166668,135.6537955916667,58.0,89.0
551,135.8494474916667,136.50343208333337,56.0,89.0
552,135.8494474916667,136.5614030166667,53.0,82.0
553,136.28422949166668,136.87299678333335,48.0,52.0
554,136.7190114916667,137.14835871666668,60.0,82.0
555,136.7190114916667,137.26973535833335,53.0,82.0
556,137.15379349166668,137.70451735833336,48.0,62.0
557,137.5885754916667,138.06140091666668,60.0,80.0
558,137.5885754916667,138.14835731666668,53.0,78.0
559,138.0233574916667,138.5614002166667,48.0,71.0
560,138.45813949166669,138.69908118333336,56.0,111.0
561,138.45813949166669,138.71538550833336,53.0,102.0
562,135.8494474916667,139.27335574166668,41.0,97.0
563,138.8929214916667,139.28060210833337,55.0,105.0
564,138.67553049166668,139.30415280000003,48.0,84.0
565,139.32770349166668,139.70451455833336,68.0,84.0
566,139.32770349166668,139.8440071166667,37.0,86.0
567,139.54509449166667,139.88023895000003,44.0,77.0
568,139.7624854916667,140.05596334166668,61.0,85.0
569,139.9798764916667,140.2244413666667,65.0,76.0
570,140.19726749166668,140.48349897500003,68.0,85.0
571,140.4146584916667,140.85668685833335,61.0,85.0
572,140.6320494916667,140.90016505833336,65.0,70.0
573,140.84944049166668,141.05415035000001,68.0,79.0
574,141.5016134916667,141.76429428333336,63.0,86.0
575,141.2842224916667,141.8059608916667,58.0,77.0
576,141.06683149166668,141.99617801666668,51.0,98.0
577,141.71900449166668,142.15559808333336,70.0,86.0
578,141.9363954916667,142.23711970833335,58.0,83.0
579,142.1537864916667,142.40559773333337,63.0,88.0
580,142.37117749166669,142.67914807500003,70.0,78.0
581,142.58856849166668,142.81320585833336,63.0,89.0
582,143.24074149166668,143.48892955000002,53.0,87.0
583,143.4581324916667,143.80414650000003,60.0,80.0
584,143.6755234916667,143.918276775,56.0,72.0
585,143.8929144916667,144.20088507500003,53.0,88.0
586,143.0233504916667,144.4146528916667,48.0,76.0
587,142.8059594916667,144.42733403333335,41.0,86.0
588,144.3276964916667,144.43458040000002,56.0,86.0
589,144.11030549166668,144.56682659166668,60.0,84.0
590,144.5450874916667,145.24979665000004,65.0,87.0
591,144.97986949166668,145.2787821166667,53.0,89.0
592,145.1972604916667,145.66283955000003,60.0,86.0
593,145.4146514916667,145.66646273333336,56.0,85.0
594,145.63204249166668,145.87841895833336,53.0,86.0
595,144.76247849166668,145.99436082500003,48.0,79.0
596,144.5450874916667,146.03059265833335,41.0,85.0
597,145.8494334916667,146.2135634166667,65.0,86.0
598,146.0668244916667,146.26428798333336,53.0,88.0
599,146.7189974916667,146.9961710166667,49.0,84.0
600,147.15377949166668,147.39653277500003,53.0,69.0
601,146.9363884916667,147.4092139166667,56.0,80.0
602,147.3711704916667,147.54870647500002,49.0,90.0
603,146.28421549166669,147.55595284166668,37.0,90.0
604,146.50160649166668,147.6048658166667,44.0,83.0
605,147.8059524916667,147.9563146,49.0,91.0
606,147.5885614916667,148.04870577500003,61.0,85.0
607,148.4581254916667,148.91826977500003,51.0,89.0
608,148.67551649166668,148.94000887500002,55.0,81.0
609,148.89290749166668,149.14834191666668,63.0,86.0
610,149.1102984916667,149.30232720833337,55.0,84.0
611,148.02334349166668,149.35848655,39.0,98.0
612,148.2407344916667,149.3657329166667,46.0,79.0
613,149.3276894916667,149.54508049166668,51.0,95.0
614,149.54508049166668,149.68276145833335,55.0,78.0
615,150.1972534916667,150.38384743333336,56.0,89.0
616,150.41464449166668,150.61754275833334,53.0,87.0
617,150.6320354916667,150.92913652500002,60.0,85.0
618,150.8494264916667,151.06500590000002,56.0,85.0
619,151.06681749166668,151.35667215833337,53.0,85.0
620,149.7624714916667,151.3765996666667,41.0,87.0
621,149.9798624916667,151.37841125833336,48.0,83.0
622,151.93638149166668,152.10667110833336,56.0,85.0
623,151.2842084916667,152.135656575,65.0,90.0
624,152.1537724916667,152.27514913333334,53.0,85.0
625,151.7189904916667,152.472612625,48.0,84.0
626,152.3711634916667,152.77696002500002,56.0,95.0
627,152.58855449166668,153.02514808333336,48.0,84.0
628,151.5015994916667,153.03601763333336,41.0,87.0
629,152.3711634916667,153.0650031,60.0,91.0
630,152.80594549166668,153.1157276666667,53.0,85.0
631,153.0233364916667,153.21717680000003,56.0,87.0
632,153.6755094916667,154.08130602500003,49.0,86.0
633,153.8929004916667,154.14108855000003,53.0,75.0
634,154.1102914916667,154.38384183333335,61.0,88.0
635,153.2407274916667,154.57043577500002,37.0,95.0
636,154.32768249166668,154.61934875000003,56.0,83.0
637,153.45811849166668,154.62478352500003,44.0,80.0
638,154.5450734916667,154.79869632500004,53.0,84.0
639,154.7624644916667,154.93456570000004,49.0,93.0
640,155.4146374916667,155.7298544416667,51.0,86.0
641,155.6320284916667,155.8983324666667,55.0,79.0
642,155.84941949166668,156.0994191416667,63.0,85.0
643,156.0668104916667,156.4798533916667,58.0,78.0
644,156.2842014916667,156.5287663666667,55.0,79.0
645,154.97985549166668,156.58492570833334,39.0,91.0
646,155.1972464916667,156.6048532166667,46.0,72.0
647,156.50159249166668,156.66101255833337,51.0,88.0
648,156.7189834916667,157.02695407500002,56.0,75.0
649,156.7189834916667,157.18093936666668,44.0,89.0
650,156.7189834916667,157.18093936666668,63.0,80.0
651,157.1537654916667,157.43275060833335,56.0,85.0
652,156.9363744916667,157.51608382500004,51.0,86.0
653,157.37115649166668,157.70267776666668,63.0,78.0
654,157.8059384916667,158.2461552666667,51.0,77.0
655,157.5885474916667,158.31861893333337,43.0,84.0
656,158.0233294916667,158.34216962500003,55.0,83.0
657,158.24072049166668,158.45629990000003,58.0,71.0
658,159.1102844916667,159.23890750000004,56.0,87.0
659,158.89289349166668,159.42368985000002,53.0,87.0
660,159.3276754916667,159.60122583333336,65.0,86.0
661,159.5450664916667,159.79144295833336,60.0,73.0
662,159.76245749166668,160.08310921666668,56.0,82.0
663,159.9798484916667,160.24434087500003,53.0,84.0
664,158.6755024916667,160.36028274166668,48.0,80.0
665,158.4581114916667,160.39470298333336,41.0,87.0
666,160.1972394916667,160.48347097500002,58.0,88.0
667,160.8494124916667,161.08129622500002,61.0,86.0
668,160.6320214916667,161.1048469166667,58.0,75.0
669,160.41463049166668,161.20629605000002,53.0,85.0
670,161.0668034916667,161.47260002500002,65.0,86.0
671,161.28419449166668,161.55412165,61.0,85.0
672,160.1972394916667,161.63383168333337,46.0,88.0
673,161.5015854916667,161.7841937916667,58.0,84.0
674,161.7189764916667,162.00701956666668,53.0,89.0
675,162.3711494916667,162.75883010833337,51.0,84.0
676,162.5885404916667,162.84578650833336,55.0,76.0
677,161.9363674916667,163.0341920416667,39.0,84.0
678,162.15375849166668,163.08491660833337,46.0,84.0
679,162.80593149166668,163.24252508333336,63.0,84.0
680,163.0233224916667,163.27151055000002,55.0,85.0
681,163.2407134916667,163.35303217500004,51.0,91.0
682,163.67549549166668,164.4472335416667,56.0,84.0
683,163.67549549166668,164.52513198333335,53.0,84.0
684,164.5450594916667,164.82404460833337,60.0,83.0
685,164.9798414916667,165.3874496166667,56.0,87.0
686,164.7624504916667,165.68273905833337,53.0,84.0
687,165.6320144916667,165.68273905833337,53.0,77.0
688,165.4146234916667,165.82947798333336,56.0,30.0
689,165.19723249166668,165.96172417500003,60.0,84.0
690,165.4146234916667,166.02512988333336,65.0,87.0
691,166.2841874916667,167.05411395000002,56.0,85.0
692,164.1102774916667,167.06317190833337,48.0,85.0
693,163.67549549166668,167.06860668333337,41.0,85.0
694,166.2841874916667,167.07404145833337,60.0,83.0
695,166.71896949166668,167.09759215000003,53.0,88.0
696,166.2841874916667,167.0994037416667,65.0,85.0
697,167.1537514916667,167.60121463333337,65.0,94.0
698,167.1537514916667,167.6374464666667,68.0,100.0
699,167.8059244916667,167.8983156666667,65.0,51.0
700,167.58853349166668,168.07041687500003,60.0,89.0
701,168.0233154916667,168.255199225,65.0,102.0
702,168.0233154916667,168.28237310000003,68.0,108.0
703,167.1537514916667,168.31135856666668,53.0,105.0
704,167.15737467500003,168.31498175000002,41.0,92.0
705,168.0233154916667,168.3602715416667,72.0,100.0
706,168.24070649166669,168.3983149666667,60.0,80.0
707,168.4580974916667,168.7244014666667,65.0,92.0
708,168.6754884916667,168.76969125833335,68.0,82.0
709,168.8928794916667,169.40737152500003,61.0,100.0
710,168.8928794916667,169.41280630000003,49.0,94.0
711,168.89650267500002,169.41642948333336,37.0,81.0
712,168.8928794916667,169.43454540000002,65.0,105.0
713,169.3276614916667,169.79142895833337,56.0,80.0
714,169.7624434916667,170.20447185833336,61.0,102.0
715,169.7624434916667,170.244326875,65.0,111.0
716,169.7624434916667,170.2787471166667,68.0,105.0
717,170.1972254916667,170.39106580000004,49.0,82.0
718,170.20084867500003,170.39468898333337,37.0,69.0
719,170.4146164916667,170.50338448333335,61.0,94.0
720,170.63200749166668,170.83490575833335,63.0,94.0
721,170.63200749166668,171.2080936416667,68.0,100.0
722,171.0667894916667,171.28236890000002,63.0,76.0
723,170.63200749166668,171.56860038333335,56.0,80.0
724,171.50157149166668,171.7135277166667,63.0,108.0
725,171.50157149166668,171.78236820000004,68.0,111.0
726,171.50157149166668,171.8004841166667,72.0,102.0
727,171.7189624916667,171.80410730000003,56.0,73.0
728,172.15374449166669,172.233454525,68.0,100.0
729,171.9363534916667,172.2352661166667,63.0,102.0
730,172.3711354916667,172.67910607500002,60.0,97.0
731,172.3711354916667,172.7080915416667,64.0,102.0
732,172.8059174916667,173.06316350833336,60.0,100.0
733,172.3711354916667,173.10301852500004,48.0,100.0
734,172.37475867500004,173.10845330000004,36.0,87.0
735,173.2406994916667,173.47077163333336,60.0,102.0
736,173.2406994916667,173.55410485000002,64.0,112.0
737,173.4580904916667,173.59758305000003,55.0,87.0
738,173.2406994916667,173.78236540000003,67.0,102.0
739,173.6754814916667,173.96171297500004,60.0,108.0
740,173.8928724916667,174.01787231666668,64.0,44.0
741,174.1102634916667,174.5667845916667,61.0,94.0
742,174.1102634916667,174.63019030000004,58.0,87.0
743,174.54504549166668,175.03236365000004,53.0,69.0
744,174.1102634916667,175.11750845833336,46.0,94.0
745,174.11388667500003,175.12294323333336,34.0,81.0
746,174.9798274916667,175.3167835416667,58.0,100.0
747,174.9798274916667,175.32946468333336,61.0,108.0
748,174.9798274916667,175.3656965166667,65.0,97.0
749,175.41460949166668,175.50881225833336,53.0,92.0
750,175.8493914916667,176.3276516916667,63.0,92.0
751,175.8493914916667,176.40555013333335,67.0,85.0
752,176.5015644916667,176.60482521666668,63.0,89.0
753,176.2841734916667,176.74975255000004,58.0,105.0
754,176.7189554916667,176.94902763333337,63.0,105.0
755,176.7189554916667,176.94902763333337,70.0,105.0
756,175.8493914916667,176.9798246916667,51.0,102.0
757,175.85301467500003,176.98344787500002,39.0,89.0
758,176.93634649166668,177.04685358333336,58.0,102.0
759,177.1537374916667,177.38562122500002,63.0,87.0
760,177.5885194916667,177.73525841666668,44.0,100.0
761,177.59214267500002,177.73888160000004,32.0,87.0
762,177.5885194916667,178.49250373333336,63.0,94.0
763,177.5885194916667,178.5450398916667,68.0,97.0
764,178.2406924916667,178.57583695000002,56.0,60.0
765,178.0233014916667,178.60844560000004,51.0,71.0
766,178.45808349166668,178.68815563333337,60.0,117.0
767,178.6754744916667,179.0396044166667,63.0,114.0
768,178.8928654916667,179.1048217166667,68.0,111.0
769,179.1102564916667,179.18815493333335,72.0,94.0
770,179.32764749166668,179.78598018333335,64.0,93.0
771,179.32764749166668,179.82040042500003,60.0,92.0
772,179.32764749166668,179.82040042500003,67.0,93.0
773,179.9798204916667,180.06315370833337,64.0,72.0
774,179.9798204916667,180.07402325833337,67.0,35.0
775,179.9798204916667,180.10119713333336,60.0,82.0
776,179.9798204916667,180.10119713333336,72.0,84.0
777,179.7624294916667,180.28235630000003,55.0,70.0
778,180.1972114916667,180.39105180000004,72.0,97.0
779,180.1972114916667,180.42366045000003,64.0,109.0
780,180.1972114916667,180.43815318333336,60.0,111.0
781,180.1972114916667,180.43815318333336,67.0,105.0
782,179.32764749166668,180.55409505000003,48.0,105.0
783,179.33127067500004,180.55771823333336,36.0,92.0
784,180.4146024916667,180.6917760166667,55.0,74.0
785,180.6319934916667,180.9580799916667,60.0,100.0
786,180.6319934916667,180.9635147666667,64.0,105.0
787,180.6319934916667,181.02148570000003,70.0,97.0
788,181.0667754916667,181.51423863333335,65.0,94.0
789,181.0667754916667,181.5504704666667,68.0,100.0
790,181.7189484916667,181.8113396666667,65.0,51.0
791,181.5015574916667,181.98344087500004,60.0,89.0
792,181.9363394916667,182.16822322500002,65.0,102.0
793,181.9363394916667,182.19539710000004,68.0,108.0
794,181.0667754916667,182.2243825666667,53.0,105.0
795,181.07039867500004,182.22800575000002,41.0,92.0
796,181.9363394916667,182.2732955416667,72.0,100.0
797,182.1537304916667,182.31133896666668,60.0,80.0
798,182.37112149166668,182.63742546666668,65.0,92.0
799,182.5885124916667,182.68271525833336,68.0,82.0
800,182.8059034916667,183.32039552500004,61.0,100.0
801,182.8059034916667,183.32583030000004,49.0,94.0
802,182.80952667500003,183.32945348333337,37.0,81.0
803,182.8059034916667,183.34756940000003,65.0,105.0
804,183.24068549166668,183.70445295833335,56.0,80.0
805,183.6754674916667,184.11749585833337,61.0,102.0
806,183.6754674916667,184.15735087500002,65.0,111.0
807,183.6754674916667,184.1917711166667,68.0,105.0
808,184.1102494916667,184.30408980000004,49.0,82.0
809,184.11387267500004,184.30771298333337,37.0,69.0
810,184.3276404916667,184.41640848333336,61.0,94.0
811,184.5450314916667,184.74792975833336,63.0,94.0
812,184.5450314916667,185.1211176416667,68.0,100.0
813,184.9798134916667,185.19539290000003,63.0,76.0
814,184.5450314916667,185.48162438333335,56.0,80.0
815,185.4145954916667,185.62655171666668,63.0,108.0
816,185.4145954916667,185.69539220000001,68.0,111.0
817,185.4145954916667,185.7135081166667,72.0,102.0
818,185.6319864916667,185.71713130000003,56.0,73.0
819,186.0667684916667,186.14647852500002,68.0,100.0
820,185.8493774916667,186.1482901166667,63.0,102.0
821,186.28415949166668,186.59213007500003,60.0,97.0
822,186.28415949166668,186.62111554166668,64.0,102.0
823,186.7189414916667,186.97618750833337,60.0,100.0
824,186.28415949166668,187.01604252500002,48.0,100.0
825,186.28778267500002,187.02147730000002,36.0,87.0
826,187.15372349166668,187.38379563333336,60.0,102.0
827,187.15372349166668,187.46712885000002,64.0,112.0
828,187.3711144916667,187.51060705000003,55.0,87.0
829,187.15372349166668,187.69538940000004,67.0,102.0
830,187.5885054916667,187.87473697500002,60.0,108.0
831,187.8058964916667,187.9308963166667,64.0,44.0
832,188.0232874916667,188.47980859166668,61.0,94.0
833,188.0232874916667,188.54321430000002,58.0,87.0
834,188.4580694916667,188.94538765000004,53.0,69.0
835,188.0232874916667,189.03053245833337,46.0,94.0
836,188.02691067500004,189.03596723333337,34.0,81.0
837,188.8928514916667,189.2298075416667,58.0,100.0
838,188.8928514916667,189.24248868333336,61.0,108.0
839,188.8928514916667,189.2787205166667,65.0,97.0
840,189.3276334916667,189.42183625833337,53.0,92.0
841,189.7624154916667,190.2406756916667,63.0,92.0
842,189.7624154916667,190.31857413333336,67.0,85.0
843,190.4145884916667,190.5178492166667,63.0,89.0
844,190.19719749166669,190.66277655000002,58.0,105.0
845,190.65190700000002,190.86205163333335,63.0,105.0
846,190.6319794916667,190.86205163333335,70.0,105.0
847,189.7624154916667,190.8928486916667,51.0,102.0
848,189.76603867500003,190.89647187500003,39.0,89.0
849,190.8493704916667,190.95987758333337,58.0,102.0
850,191.0667614916667,191.29864522500003,63.0,87.0
851,191.5015434916667,191.70444175833336,60.0,92.0
852,191.5015434916667,191.71712290000002,65.0,82.0
853,191.5015434916667,191.76422428333336,68.0,94.0
854,191.5015434916667,192.1808903666667,41.0,92.0
855,191.5015434916667,192.1808903666667,53.0,102.0
856,191.9363254916667,192.18632514166669,65.0,78.0
857,192.58849849166668,192.6428462416667,41.0,50.0
858,192.58849849166668,192.6428462416667,53.0,60.0
859,192.3711074916667,192.77146925000002,68.0,114.0
860,192.3711074916667,192.78052720833335,65.0,105.0
861,192.3711074916667,192.8276285916667,72.0,105.0
862,192.8058894916667,193.09212097500003,60.0,84.0
863,193.0232804916667,193.14465713333337,65.0,100.0
864,193.2406714916667,193.73161283333337,68.0,94.0
865,193.2406714916667,193.76603307500002,65.0,94.0
866,193.6754534916667,194.24248168333335,60.0,76.0
867,193.2406714916667,194.31494535000002,41.0,92.0
868,193.2406714916667,194.31494535000002,53.0,102.0
869,194.11023549166669,194.92907492500004,68.0,108.0
870,194.11023549166669,194.9308865166667,65.0,100.0
871,194.11023549166669,194.9417560666667,72.0,102.0
872,194.5450174916667,194.94537925000003,41.0,87.0
873,194.5450174916667,194.94537925000003,53.0,97.0
874,194.5450174916667,194.9580603916667,60.0,94.0
875,194.9797994916667,195.42726263333336,65.0,94.0
876,194.9797994916667,195.4634944666667,68.0,100.0
877,195.6319724916667,195.7243636666667,65.0,51.0
878,195.4145814916667,195.89646487500002,60.0,89.0
879,195.8493634916667,196.08124722500003,65.0,102.0
880,195.8493634916667,196.10842110000004,68.0,108.0
881,194.9797994916667,196.1374065666667,53.0,105.0
882,194.98161108333338,196.13921815833336,41.0,92.0
883,195.8493634916667,196.1863195416667,72.0,100.0
884,196.0667544916667,196.2243629666667,60.0,80.0
885,196.2841454916667,196.5504494666667,65.0,92.0
886,196.50153649166668,196.59573925833337,68.0,82.0
887,196.7189274916667,197.23341952500004,61.0,100.0
888,196.7189274916667,197.23885430000004,49.0,94.0
889,196.72073908333337,197.2406658916667,37.0,81.0
890,196.7189274916667,197.26059340000003,65.0,105.0
891,197.1537094916667,197.61747695833336,56.0,80.0
892,197.5884914916667,198.03051985833338,61.0,102.0
893,197.5884914916667,198.07037487500003,65.0,111.0
894,197.5884914916667,198.1047951166667,68.0,105.0
895,198.02327349166669,198.21711380000002,49.0,82.0
896,198.02508508333335,198.2189253916667,37.0,69.0
897,198.2406644916667,198.32943248333336,61.0,94.0
898,198.4580554916667,198.66095375833336,63.0,94.0
899,198.4580554916667,199.0341416416667,68.0,100.0
900,198.8928374916667,199.10841690000004,63.0,76.0
901,198.4580554916667,199.39464838333336,56.0,80.0
902,199.3276194916667,199.5395757166667,63.0,108.0
903,199.3276194916667,199.60841620000002,68.0,111.0
904,199.3276194916667,199.6265321166667,72.0,102.0
905,199.5450104916667,199.63015530000004,56.0,73.0
906,199.9797924916667,200.05950252500003,68.0,100.0
907,199.7624014916667,200.0613141166667,63.0,102.0
908,200.1971834916667,200.50515407500004,60.0,97.0
909,200.1971834916667,200.5341395416667,64.0,102.0
910,200.6319654916667,200.88921150833337,60.0,100.0
911,200.1971834916667,200.92906652500002,48.0,100.0
912,200.19899508333336,200.9308781166667,36.0,87.0
913,201.0667474916667,201.29681963333337,60.0,102.0
914,201.0667474916667,201.38015285000003,64.0,112.0
915,201.2841384916667,201.42363105000004,55.0,87.0
916,201.0667474916667,201.60841340000002,67.0,102.0
917,201.5015294916667,201.78776097500003,60.0,108.0
918,201.7189204916667,201.8439203166667,64.0,44.0
919,201.9363114916667,202.3928325916667,61.0,94.0
920,201.9363114916667,202.45623830000002,58.0,87.0
921,202.3710934916667,202.85841165000002,53.0,69.0
922,201.9363114916667,202.94355645833338,46.0,94.0
923,201.93812308333335,202.94536805000004,34.0,81.0
924,202.8058754916667,203.1428315416667,58.0,100.0
925,202.8058754916667,203.15551268333337,61.0,108.0
926,202.8058754916667,203.1917445166667,65.0,97.0
927,203.2406574916667,203.33486025833338,53.0,92.0
928,203.6754394916667,204.1536996916667,63.0,92.0
929,203.6754394916667,204.23159813333336,67.0,85.0
930,204.32761249166668,204.4308732166667,63.0,89.0
931,204.1102214916667,204.57580055000003,58.0,105.0
932,204.5450034916667,204.77507563333336,63.0,105.0
933,204.5450034916667,204.77507563333336,70.0,105.0
934,203.6754394916667,204.8058726916667,51.0,102.0
935,203.67725108333337,204.80768428333337,39.0,89.0
936,204.7623944916667,204.87290158333337,58.0,102.0
937,204.9797854916667,205.21166922500004,63.0,87.0
938,205.41637908333337,205.5613064166667,32.0,87.0
939,205.4145674916667,205.5613064166667,44.0,100.0
940,205.4145674916667,206.31855173333338,63.0,94.0
941,205.4145674916667,206.3710878916667,68.0,97.0
942,206.0667404916667,206.40188495000004,56.0,60.0
943,205.8493494916667,206.43449360000002,51.0,71.0
944,206.2841314916667,206.51420363333335,60.0,117.0
945,206.5015224916667,206.8656524166667,63.0,114.0
946,206.7189134916667,206.9308697166667,68.0,111.0
947,206.9363044916667,207.01420293333337,72.0,94.0
948,207.1536954916667,207.61202818333336,64.0,93.0
949,207.1536954916667,207.64644842500005,60.0,92.0
950,207.1536954916667,207.64644842500005,67.0,93.0
951,207.8058684916667,207.88920170833336,64.0,72.0
952,207.8058684916667,207.90007125833336,67.0,35.0
953,207.8058684916667,207.92724513333337,60.0,82.0
954,207.8058684916667,207.92724513333337,72.0,84.0
955,207.5884774916667,208.10840430000005,55.0,70.0
956,208.0232594916667,208.21709980000003,72.0,97.0
957,208.0232594916667,208.24970845000004,64.0,109.0
958,208.0232594916667,208.26420118333337,60.0,111.0
959,208.0232594916667,208.26420118333337,67.0,105.0
960,207.1536954916667,208.38014305000004,48.0,105.0
961,207.15550708333336,208.3819546416667,36.0,92.0
962,208.2406504916667,208.5178240166667,55.0,74.0
963,208.4580414916667,208.7841279916667,60.0,100.0
964,208.4580414916667,208.7895627666667,64.0,105.0
965,208.4580414916667,208.84753370000004,70.0,97.0
966,208.8928234916667,209.34028663333336,65.0,94.0
967,208.8928234916667,209.3765184666667,68.0,100.0
968,209.5449964916667,209.6373876666667,65.0,51.0
969,209.3276054916667,209.80948887500003,60.0,89.0
970,209.7623874916667,209.99427122500003,65.0,102.0
971,209.7623874916667,210.02144510000002,68.0,108.0
972,208.8928234916667,210.0504305666667,53.0,105.0
973,208.89463508333336,210.05224215833337,41.0,92.0
974,209.7623874916667,210.0993435416667,72.0,100.0
975,209.9797784916667,210.1373869666667,60.0,80.0
976,210.1971694916667,210.4634734666667,65.0,92.0
977,210.4145604916667,210.50876325833337,68.0,82.0
978,210.6319514916667,211.14644352500002,61.0,100.0
979,210.6319514916667,211.15187830000002,49.0,94.0
980,210.63376308333338,211.1536898916667,37.0,81.0
981,210.6319514916667,211.17361740000004,65.0,105.0
982,211.0667334916667,211.53050095833336,56.0,80.0
983,211.5015154916667,211.94354385833336,61.0,102.0
984,211.5015154916667,211.98339887500003,65.0,111.0
985,211.5015154916667,212.0178191166667,68.0,105.0
986,211.9362974916667,212.13013780000003,49.0,82.0
987,211.93810908333336,212.1319493916667,37.0,69.0
988,212.1536884916667,212.24245648333337,61.0,94.0
989,212.3710794916667,212.57397775833337,63.0,94.0
990,212.3710794916667,212.9471656416667,68.0,100.0
991,212.8058614916667,213.02144090000004,63.0,76.0
992,212.3710794916667,213.30767238333337,56.0,80.0
993,213.2406434916667,213.4525997166667,63.0,108.0
994,213.2406434916667,213.52144020000003,68.0,111.0
995,213.2406434916667,213.5395561166667,72.0,102.0
996,213.4580344916667,213.54317930000002,56.0,73.0
997,213.8928164916667,213.97252652500003,68.0,100.0
998,213.6754254916667,213.9743381166667,63.0,102.0
999,214.1102074916667,214.41817807500004,60.0,97.0
1000,214.1102074916667,214.4471635416667,64.0,102.0
1001,214.5449894916667,214.80223550833335,60.0,100.0
1002,214.1102074916667,214.84209052500003,48.0,100.0
1003,214.11201908333337,214.8439021166667,36.0,87.0
1004,214.9797714916667,215.20984363333338,60.0,102.0
1005,214.9797714916667,215.29317685000004,64.0,112.0
1006,215.1971624916667,215.33665505000005,55.0,87.0
1007,214.9797714916667,215.52143740000002,67.0,102.0
1008,215.4145534916667,215.70078497500003,60.0,108.0
1009,215.6319444916667,215.7569443166667,64.0,44.0
1010,215.8493354916667,216.3058565916667,61.0,94.0
1011,215.8493354916667,216.36926230000003,58.0,87.0
1012,216.2841174916667,216.77143565000003,53.0,69.0
1013,215.8493354916667,216.85658045833335,46.0,94.0
1014,215.85114708333336,216.85839205000002,34.0,81.0
1015,216.7188994916667,217.0558555416667,58.0,100.0
1016,216.7188994916667,217.06853668333338,61.0,108.0
1017,216.7188994916667,217.1047685166667,65.0,97.0
1018,217.1536814916667,217.24788425833336,53.0,92.0
1019,217.5884634916667,218.0667236916667,63.0,92.0
1020,217.5884634916667,218.14462213333337,67.0,85.0
1021,218.2406364916667,218.3438972166667,63.0,89.0
1022,218.0232454916667,218.48882455000003,58.0,105.0
1023,218.4580274916667,218.68809963333337,63.0,105.0
1024,218.4580274916667,218.68809963333337,70.0,105.0
1025,217.5884634916667,218.7188966916667,51.0,102.0
1026,217.59027508333338,218.72070828333338,39.0,89.0
1027,218.6754184916667,218.78592558333338,58.0,102.0
1028,218.8928094916667,219.12469322500004,63.0,87.0
1029,219.3275914916667,219.53048975833337,60.0,92.0
1030,219.3275914916667,219.54317090000004,65.0,82.0
1031,219.3275914916667,219.59027228333338,68.0,94.0
1032,219.3275914916667,220.0069383666667,41.0,92.0
1033,219.3275914916667,220.0069383666667,53.0,102.0
1034,219.7623734916667,220.0123731416667,65.0,78.0
1035,220.4145464916667,220.4688942416667,41.0,50.0
1036,220.4145464916667,220.4688942416667,53.0,60.0
1037,220.1971554916667,220.59751725000004,68.0,114.0
1038,220.1971554916667,220.60657520833337,65.0,105.0
1039,220.1971554916667,220.6536765916667,72.0,105.0
1040,220.6319374916667,220.91816897500004,60.0,84.0
1041,220.8493284916667,220.97070513333335,65.0,100.0
1042,221.0667194916667,221.55766083333336,68.0,94.0
1043,221.0667194916667,221.59208107500004,65.0,94.0
1044,221.5015014916667,222.06852968333337,60.0,76.0
1045,221.0667194916667,222.14099335000003,41.0,92.0
1046,221.0667194916667,222.14099335000003,53.0,102.0
1047,221.9362834916667,222.75512292500002,68.0,108.0
1048,221.9362834916667,222.7569345166667,65.0,100.0
1049,221.9362834916667,222.7678040666667,72.0,102.0
1050,222.3710654916667,222.77142725000004,41.0,87.0
1051,222.3710654916667,222.77142725000004,53.0,97.0
1052,222.3710654916667,222.7841083916667,60.0,94.0
1053,222.8058474916667,223.5178030166667,56.0,82.0
1054,222.8058474916667,223.53773052500003,61.0,92.0
1055,223.6754114916667,224.16816442500004,61.0,102.0
1056,223.6754114916667,224.20077307500003,56.0,105.0
1057,222.8058474916667,224.43446840000004,37.0,94.0
1058,224.1101934916667,224.6536709916667,53.0,60.0
1059,224.5449754916667,225.13917755833336,61.0,97.0
1060,224.5449754916667,225.1645398416667,56.0,78.0
1061,225.41453949166672,225.64098845000004,53.0,84.0
1062,225.41453949166672,225.84750990000003,56.0,94.0
1063,224.5449754916667,225.95077062500005,37.0,84.0
1064,225.8493214916667,226.03772702500004,53.0,67.0
1065,225.41453949166672,226.06852408333336,61.0,94.0
1066,226.2841034916667,226.94171126666672,60.0,94.0
1067,226.2841034916667,226.95982718333337,56.0,92.0
1068,226.2841034916667,227.05402995000003,51.0,94.0
1069,226.2841034916667,227.46526125833336,44.0,78.0
1070,227.1536674916667,227.79678253333336,60.0,105.0
1071,227.1536674916667,227.85294187500003,56.0,100.0
1072,227.5884494916667,227.99424602500002,39.0,53.0
1073,228.0232314916667,228.69895518333337,51.0,80.0
1074,228.0232314916667,228.7025783666667,56.0,89.0
1075,228.0232314916667,228.71163632500003,60.0,94.0
1076,228.8927954916667,229.16091105833337,51.0,100.0
1077,228.8927954916667,229.18446175000003,56.0,108.0
1078,228.8927954916667,229.2188819916667,60.0,100.0
1079,228.0232314916667,229.39098320000002,44.0,82.0
1080,229.7623594916667,230.32395290833338,58.0,94.0
1081,229.7623594916667,230.36380792500003,61.0,92.0
1082,229.7623594916667,230.71706830000002,46.0,94.0
1083,230.6319234916667,231.31308195833336,61.0,100.0
1084,230.6319234916667,231.33482105833338,58.0,111.0
1085,230.6319234916667,231.34025583333337,53.0,97.0
1086,231.0667054916667,231.53590773333337,41.0,100.0
1087,231.5014874916667,232.15547208333336,58.0,92.0
1088,231.5014874916667,232.15547208333336,61.0,94.0
1089,231.5014874916667,232.1645300416667,53.0,84.0
1090,231.5014874916667,232.46706585000004,46.0,102.0
1091,232.3710514916667,232.5721381666667,58.0,105.0
1092,232.3710514916667,232.5721381666667,61.0,102.0
1093,232.3710514916667,232.59750045000004,53.0,105.0
1094,233.24061549166672,233.94351305833337,55.0,85.0
1095,233.24061549166672,233.99967240000004,48.0,89.0
1096,234.1101794916667,234.42720803333336,52.0,105.0
1097,234.1101794916667,234.48699055833336,55.0,105.0
1098,234.1101794916667,234.58481650833338,60.0,94.0
1099,233.24061549166672,234.82032342500003,36.0,94.0
1100,234.9797434916667,236.56488620000005,36.0,97.0
1101,234.5449614916667,236.6047412166667,48.0,108.0
1102,234.9797434916667,236.6427846416667,60.0,102.0
1103,236.64097305000004,239.26053460000003,53.0,92.0
1104,236.61742235833336,239.34386781666672,65.0,47.0
1105,236.68263965833336,239.34749100000005,68.0,71.0
1106,236.78590038333337,239.34749100000005,72.0,80.0
1107,236.7188714916667,239.55401245000004,41.0,92.0
