,start,end,pitch,velocity
0,36.01373948125,36.2841525875,78.0,112.0
1,36.25772123125,36.8859742375,81.0,97.0
2,36.989666481250005,37.337340475000005,81.0,112.0
3,37.477629981250004,37.825303975000004,81.0,112.0
4,37.96559348125,38.44542425625,81.0,107.0
5,38.45355698125,38.839861418750004,78.0,112.0
6,38.94152048125,39.6023043875,76.0,102.0
7,39.91744748125,40.378979625,76.0,112.0
8,40.40541098125,40.840511768750005,81.0,99.0
9,40.89337448125,41.38947070625,78.0,107.0
10,41.38133798125,41.7574765125,76.0,102.0
11,41.869301481250005,42.43452586875,76.0,102.0
12,42.60124673125,42.83709575625,73.0,107.0
13,42.845228481250004,43.412486050000005,71.0,102.0
14,43.82115548125,44.31318534375,71.0,102.0
15,44.30911898125,44.7991156625,73.0,117.0
16,44.79708248125,45.262680987500005,76.0,78.0
17,45.28504598125,45.722179950000005,76.0,100.0
18,45.77300948125,46.00885850625,71.0,95.0
19,46.01699123125,46.263006162500005,73.0,107.0
20,46.26097298125,46.53545245,71.0,107.0
21,46.50495473125,46.6859078625,69.0,95.0
22,46.748936481250006,47.2877295125,66.0,112.0
23,47.48088173125,47.71266439375,66.0,117.0
24,47.724863481250004,48.0684711125,71.0,97.0
25,48.212826981250004,48.418178287500005,71.0,112.0
26,48.45680873125,48.68045866875,69.0,92.0
27,48.70079048125,49.070829468750006,66.0,97.0
28,48.94477223125,49.070829468750006,66.0,96.0
29,49.18875398125,49.43680209375,69.0,86.0
30,49.432735731250006,49.66451839375,66.0,107.0
31,49.67671748125,50.73193855,64.0,97.0
32,51.62857148125,52.395080812500005,76.0,95.0
33,52.604498481250005,52.994869281250004,76.0,127.0
34,53.092461981250004,53.466567331250005,76.0,112.0
35,53.58042548125,54.121251693750004,73.0,117.0
36,54.06838898125,54.46282614375,71.0,90.0
37,54.55635248125,55.1439418625,66.0,99.0
38,55.04431598125,55.202904118750006,64.0,99.0
39,55.53227948125,55.83319030625,76.0,112.0
40,56.02024298125,56.123935225000004,76.0,117.0
41,56.26422473125,56.39028196875,76.0,97.0
42,56.50820648125,56.78065276875,78.0,117.0
43,56.996169981250006,57.232019006250006,76.0,102.0
44,57.24015173125,57.50853165625,73.0,95.0
45,57.484133481250005,58.096121037500005,76.0,99.0
46,58.21607873125,58.445828212500004,78.0,107.0
47,58.460060481250004,59.051716225,76.0,100.0
48,59.19200573125,59.425821575,66.0,92.0
49,59.43598748125,59.877187812500004,76.0,96.0
50,59.92395098125,60.33871995625,78.0,96.0
51,60.41191448125,60.792119375000006,81.0,96.0
52,60.89987798125,61.139793368750006,81.0,112.0
53,61.38784148125,61.615557781250004,78.0,117.0
54,61.63182323125,61.86767225625,81.0,79.0
55,61.875804981250006,62.129952637500004,78.0,107.0
56,62.11978673125,62.36783484375,76.0,97.0
57,62.363768481250005,62.589451600000004,73.0,122.0
58,62.60775023125,62.841566075,71.0,85.0
59,62.851731981250005,63.02658556875,69.0,96.0
60,63.09571373125,63.280733225000006,69.0,90.0
61,63.339695481250004,63.601975862500005,71.0,102.0
62,63.82765898125,64.04724255625,71.0,95.0
63,64.07164073125,64.31562248125,73.0,99.0
64,64.31562248125,64.549438325,71.0,95.0
65,64.55960423125,64.6836282875,69.0,100.0
66,64.80358598125001,65.06789954375,69.0,102.0
67,65.29154948125,66.91402811875,66.0,99.0
68,67.24340348125,67.99568054375,69.0,100.0
69,68.21933048125,68.52634085,69.0,99.0
70,68.70729398125,69.00007208125,69.0,102.0
71,69.19525748125,69.494135125,69.0,102.0
72,69.68322098125,69.87434001875,69.0,100.0
73,69.92720273125,70.15288585,66.0,122.0
74,70.17118448125001,70.7669065875,64.0,99.0
75,71.14711148125001,71.51715046875,76.0,112.0
76,71.63507498125,71.8485590125,78.0,127.0
77,71.87905673125,72.07220895,81.0,96.0
78,72.12303848125,72.45241384375001,78.0,127.0
79,72.36702023125001,72.47884520000001,76.0,96.0
80,72.61100198125,72.85295055,76.0,96.0
81,72.85498373125,73.09489911875,73.0,97.0
82,73.09896548125,73.92037070625,76.0,97.0
83,73.83091073125,74.097257475,73.0,107.0
84,74.07489248125,74.66858140625,71.0,107.0
85,75.05081948125,75.54691570625,71.0,102.0
86,75.53878298125001,76.02268011875,73.0,122.0
87,76.02674648125,76.42525000625001,76.0,100.0
88,76.51470998125001,76.7932558125,76.0,100.0
89,77.00267348125,77.24665523125,71.0,122.0
90,77.24665523125,77.5252010625,73.0,95.0
91,77.49063698125,77.7203864625,71.0,97.0
92,77.73461873125001,77.98266684375001,69.0,97.0
93,77.97860048125,78.56415668125,66.0,117.0
94,78.95452748125,79.26153785000001,71.0,117.0
95,79.44249098125,79.67427364375,71.0,117.0
96,79.68647273125,79.93045448125001,69.0,95.0
97,79.93045448125001,80.29032756250001,66.0,97.0
98,80.41841798125,80.65426700625001,69.0,100.0
99,80.66239973125,80.8840164875,66.0,107.0
100,80.90638148125001,82.46379831875001,64.0,102.0
101,82.85823548125,83.58611436875,76.0,112.0
102,83.83416248125,84.116774675,76.0,117.0
103,84.32212598125001,84.41971868125,76.0,112.0
104,84.56610773125,84.71452996250001,76.0,97.0
105,84.81008948125,85.17199574375,73.0,117.0
106,85.29805298125001,85.515603375,73.0,127.0
107,85.54203473125,85.775850575,71.0,97.0
108,85.78601648125,85.99746733125001,69.0,96.0
109,86.02999823125,86.2678804375,66.0,95.0
110,86.27397998125001,86.56269171875,64.0,99.0
111,86.76194348125,87.08318611875,76.0,117.0
112,87.24990698125,87.3657983125,76.0,122.0
113,87.49388873125001,87.64434414375,76.0,99.0
114,87.73787048125,87.94728815,78.0,117.0
115,87.98185223125,88.07741175000001,76.0,100.0
116,88.22583398125,88.38848848125001,76.0,93.0
117,88.46981573125001,88.7646270125,73.0,122.0
118,88.71379748125,89.29935368125001,76.0,93.0
119,89.44574273125001,89.66735948750001,78.0,122.0
120,89.68972448125001,90.29561249375,76.0,102.0
121,90.66565148125001,91.143449075,76.0,107.0
122,91.15361498125,91.62531303125,78.0,127.0
123,91.64157848125001,91.9770533875,81.0,100.0
124,92.12954198125,92.43858553125,81.0,112.0
125,92.61750548125,92.8431886,78.0,127.0
126,92.86148723125001,93.0668385375,81.0,96.0
127,93.10546898125,93.323019375,78.0,117.0
128,93.10546898125,93.323019375,78.0,127.0
129,93.59343248125,93.83944741250001,73.0,100.0
130,93.83741423125001,94.03259963125001,71.0,72.0
131,94.08139598125,94.380273625,69.0,95.0
132,94.56935948125,94.982095275,71.0,102.0
133,95.05732298125001,95.3846651625,73.0,112.0
134,95.54528648125,95.80146731875,71.0,117.0
135,95.78926823125,95.92142501250001,69.0,97.0
136,96.03324998125001,96.28536445625001,69.0,102.0
137,96.27723173125,96.56187710625001,66.0,99.0
138,96.52121348125,98.17012347500001,69.0,96.0
139,98.47306748125,99.22534454375,81.0,122.0
140,99.44899448125001,100.21143745,81.0,117.0
141,100.42492148125001,100.83562409375,76.0,127.0
142,100.91288498125,101.28902351250001,73.0,127.0
143,101.40084848125001,102.01893558125,76.0,117.0
144,102.37677548125001,102.65125495000001,81.0,127.0
145,102.86473898125,102.95623213750001,81.0,117.0
146,103.10872073125,103.23681115000001,81.0,96.0
147,103.35270248125,103.667845575,78.0,122.0
148,103.84066598125,104.10091318125001,76.0,100.0
149,104.08464773125,104.26153450000001,73.0,96.0
150,104.32862948125,104.952816125,76.0,100.0
151,105.06057473125,105.29235739375001,78.0,117.0
152,105.30455648125,106.24185303750001,76.0,112.0
153,106.28048348125,106.969731925,71.0,107.0
154,107.01242873125001,107.30317365,73.0,127.0
155,107.25641048125,107.68744490625001,76.0,107.0
156,108.23233748125,108.71216825625001,66.0,117.0
157,108.72030098125,108.96631591250001,64.0,92.0
158,108.96428273125001,109.23876220000001,66.0,102.0
159,109.20826448125001,109.7877211375,69.0,97.0
160,110.18419148125001,110.48103594375,69.0,100.0
161,110.67215498125,110.8043117625,69.0,102.0
162,110.91613673125,111.1255544,73.0,127.0
163,111.16011848125001,111.33903843125,71.0,122.0
164,111.40410023125,111.507792475,69.0,93.0
165,111.64808198125,111.82700193125001,69.0,92.0
166,111.89206373125,112.12994593750001,66.0,96.0
167,112.13604548125001,112.72160168125001,64.0,102.0
168,112.86799073125,113.07130885625,66.0,107.0
169,113.11197248125,113.68939595625001,64.0,99.0
170,114.08789948125,114.84017654375,81.0,122.0
171,115.06382648125,115.82626945000001,81.0,117.0
172,116.03975348125,116.45045609375,76.0,127.0
173,116.52771698125001,116.9038555125,73.0,127.0
174,117.01568048125,117.63376758125001,76.0,117.0
175,117.99160748125,118.26608695,81.0,127.0
176,118.47957098125,118.5710641375,81.0,117.0
177,118.72355273125001,118.85164315,81.0,96.0
178,118.96753448125,119.120023075,78.0,127.0
179,119.21151623125,119.36603800625001,76.0,100.0
180,119.45549798125,119.63238475,81.0,99.0
181,119.69947973125001,119.93126239375,78.0,117.0
182,119.94346148125001,120.70183808750001,76.0,99.0
183,120.67540673125,120.95598574375,78.0,112.0
184,120.91938848125001,121.8566850375,76.0,112.0
185,121.89531548125001,122.58456392500001,71.0,107.0
186,122.62726073125,122.91800565000001,73.0,127.0
187,122.87124248125001,123.30227690625,76.0,100.0
188,122.87124248125001,123.30227690625,76.0,107.0
189,123.84716948125,124.32700025625,66.0,117.0
190,124.33513298125001,124.5811479125,64.0,92.0
191,124.57911473125,124.8535942,66.0,102.0
192,124.82309648125,125.4025531375,69.0,97.0
193,125.79902348125,125.886450275,71.0,100.0
194,126.04300523125,126.11213339375,71.0,95.0
195,126.28698698125001,126.45574102500001,71.0,112.0
196,126.53096873125,126.73428685625001,69.0,99.0
197,126.77495048125,126.94573770625,66.0,117.0
198,127.01893223125,127.20395172500001,66.0,107.0
199,127.26291398125001,127.48656391875001,69.0,92.0
200,127.50689573125001,127.74274475625,66.0,102.0
201,127.75087748125,128.72477130000001,64.0,99.0
202,149.22127148125,149.4916845875,78.0,112.0
203,149.46525323125002,150.0935062375,81.0,97.0
204,150.19719848125,150.544872475,81.0,112.0
205,150.68516198125002,151.032835975,81.0,112.0
206,151.17312548125,151.65295625625,81.0,107.0
207,151.66108898125,152.04739341875,78.0,112.0
208,152.14905248125,152.8098363875,76.0,102.0
209,153.12497948125,153.586511625,76.0,112.0
210,153.61294298125,153.85285836875002,78.0,112.0
211,153.85692473125002,154.02567877500002,81.0,97.0
212,154.10090648125,154.31235733125,76.0,112.0
213,154.34488823125,154.45468001875,76.0,95.0
214,154.58886998125,154.74949130000002,76.0,93.0
215,154.83285173125,155.0707339375,73.0,112.0
216,155.07683348125002,155.67865513125,76.0,102.0
217,155.80877873125002,156.04462775625,73.0,107.0
218,156.05276048125,156.62001805,71.0,102.0
219,157.02868748125002,157.52071734375,71.0,102.0
220,157.51665098125,158.0066476625,73.0,117.0
221,158.00461448125,158.47021298750002,76.0,78.0
222,158.49257798125,158.92971195,76.0,100.0
223,158.98054148125001,159.21639050625,71.0,95.0
224,159.22452323125,159.47053816250002,73.0,107.0
225,159.46850498125002,159.74298445,71.0,107.0
226,159.71248673125,159.8934398625,69.0,95.0
227,159.95646848125,160.69451327500002,66.0,112.0
228,160.93239548125,161.2760031125,71.0,97.0
229,161.42035898125002,161.6257102875,71.0,112.0
230,161.66434073125,161.88799066875,69.0,92.0
231,161.90832248125,162.27836146875,66.0,97.0
232,162.39628598125,162.64433409375002,69.0,86.0
233,162.64026773125002,162.87205039375002,66.0,107.0
234,162.88424948125,164.64701762500002,64.0,97.0
235,164.83610348125,165.6026128125,76.0,95.0
236,165.81203048125002,166.20240128125002,76.0,127.0
237,166.29999398125,166.67409933125,76.0,112.0
238,166.78795748125,167.32878369375,73.0,117.0
239,167.27592098125,167.67035814375,71.0,90.0
240,167.76388448125002,168.3514738625,66.0,99.0
241,168.25184798125,168.41043611875,64.0,99.0
242,168.73981148125,169.04072230625002,76.0,112.0
243,169.22777498125,169.331467225,76.0,117.0
244,169.47175673125,169.59781396875002,76.0,97.0
245,169.71573848125,169.98818476875002,78.0,117.0
246,170.20370198125002,170.43955100625,76.0,102.0
247,170.44768373125,170.71606365625001,73.0,95.0
248,170.69166548125,171.348383025,76.0,99.0
249,171.42361073125,171.65336021250002,78.0,107.0
250,171.66759248125,172.25924822500002,76.0,100.0
251,172.39953773125,172.633353575,66.0,92.0
252,172.64351948125,173.0847198125,76.0,96.0
253,173.13148298125,173.54625195625002,78.0,96.0
254,173.61944648125,173.999651375,81.0,96.0
255,174.10740998125002,174.34732536875,81.0,112.0
256,174.59537348125002,174.82308978125002,78.0,117.0
257,174.83935523125,175.07520425625,81.0,79.0
258,175.08333698125,175.3374846375,78.0,107.0
259,175.32731873125002,175.57536684375,76.0,97.0
260,175.57130048125,175.7969836,73.0,122.0
261,175.81528223125,176.04909807500002,71.0,85.0
262,176.05926398125,176.23411756875,69.0,96.0
263,176.54722748125002,176.8095078625,71.0,102.0
264,177.03519098125,177.25477455625,71.0,95.0
265,177.27917273125001,177.52315448125,73.0,99.0
266,177.52315448125,177.756970325,71.0,95.0
267,177.76713623125002,177.88709392500002,69.0,97.0
268,178.01111798125,178.16360657500002,69.0,96.0
269,178.25509973125,178.45435149375,66.0,102.0
270,178.49908148125002,180.45093548125,69.0,99.0
271,180.45093548125,181.20321254375,81.0,122.0
272,181.42686248125,182.59390851875,81.0,117.0
273,182.40278948125,182.81349209375,76.0,127.0
274,182.89075298125002,183.2668915125,73.0,127.0
275,183.37871648125,183.99680358125002,76.0,117.0
276,184.35464348125,184.62912295,81.0,127.0
277,184.84260698125001,184.9341001375,81.0,117.0
278,185.08658873125,185.21467915,81.0,96.0
279,185.33057048125002,185.645713575,78.0,122.0
280,185.81853398125,186.07878118125,76.0,100.0
281,186.06251573125002,186.2394025,73.0,96.0
282,186.30649748125,187.02624364375,76.0,100.0
283,187.03844273125,187.27022539375,78.0,117.0
284,187.28242448125002,188.21972103750002,76.0,112.0
285,188.25835148125,188.94759992500002,71.0,107.0
286,188.99029673125,189.28104165000002,73.0,127.0
287,189.23427848125002,189.66531290625002,76.0,107.0
288,190.21020548125,190.69003625625,66.0,117.0
289,190.69816898125,190.94418391250002,64.0,92.0
290,190.94215073125,191.2166302,66.0,102.0
291,191.18613248125,192.16205948125,69.0,97.0
292,192.16205948125,192.45890394375002,69.0,100.0
293,192.65002298125,192.78217976250002,69.0,102.0
294,192.89400473125002,193.1034224,73.0,127.0
295,193.13798648125,193.31690643125,71.0,122.0
296,193.38196823125,193.485660475,69.0,93.0
297,193.62594998125002,193.80486993125,69.0,92.0
298,193.86993173125,194.1078139375,66.0,96.0
299,194.11391348125,194.73200058125002,64.0,102.0
300,194.84585873125002,195.04917685625,66.0,107.0
301,195.08984048125,196.06576748125002,64.0,99.0
302,196.06576748125002,196.81804454375,81.0,122.0
303,197.04169448125,197.80413745,81.0,117.0
304,198.01762148125002,198.42832409375,76.0,127.0
305,198.50558498125,198.8817235125,73.0,127.0
306,198.99354848125,199.61163558125,76.0,117.0
307,199.96947548125002,200.24395495000002,81.0,127.0
308,200.45743898125002,200.5489321375,81.0,117.0
309,200.70142073125,200.82951115,81.0,96.0
310,200.94540248125,201.097891075,78.0,127.0
311,201.18938423125002,201.34390600625002,76.0,100.0
312,201.43336598125,201.61025275,81.0,99.0
313,201.67734773125002,201.90913039375002,78.0,117.0
314,201.92132948125,202.67970608750002,76.0,99.0
315,202.65327473125,202.93385374375,78.0,112.0
316,202.89725648125,203.8345530375,76.0,112.0
317,203.87318348125,204.562431925,71.0,107.0
318,204.60512873125,204.89587365,73.0,127.0
319,204.84911048125002,205.28014490625,76.0,100.0
320,204.84911048125002,205.28014490625,76.0,107.0
321,205.82503748125,206.21134191875,66.0,117.0
322,206.31300098125,206.5590159125,64.0,92.0
323,206.55698273125,206.8314622,66.0,102.0
324,206.80096448125002,207.77689148125,69.0,105.0
325,207.77689148125,207.86431827500002,71.0,100.0
326,208.02087323125002,208.09000139375001,71.0,95.0
327,208.26485498125,208.433609025,71.0,112.0
328,208.50883673125,208.71215485625,69.0,99.0
329,208.75281848125002,208.92360570625002,66.0,117.0
330,208.99680023125,209.181819725,64.0,107.0
331,209.24078198125002,209.46443191875002,69.0,92.0
332,209.48476373125,209.72061275625,66.0,102.0
333,209.72874548125,210.70263930000002,64.0,99.0
334,211.68059948125,212.43287654375,81.0,122.0
335,212.65652648125,213.82357251875,81.0,117.0
336,213.63245348125,214.04315609375,76.0,127.0
337,214.12041698125,214.4965555125,73.0,127.0
338,214.60838048125,215.22646758125,76.0,117.0
339,215.58430748125002,215.85878695000002,81.0,127.0
340,216.07227098125,216.1637641375,81.0,117.0
341,216.31625273125002,216.44434315,81.0,96.0
342,216.56023448125,216.87537757500002,78.0,122.0
343,217.04819798125,217.30844518125002,76.0,100.0
344,217.29217973125,217.4690665,73.0,96.0
345,217.53616148125002,218.25590764375002,76.0,100.0
346,218.26810673125001,218.49988939375,78.0,117.0
347,218.51208848125,219.4493850375,76.0,112.0
348,219.48801548125002,220.177263925,71.0,107.0
349,220.21996073125,220.51070565,73.0,127.0
350,220.46394248125,220.89497690625,76.0,107.0
351,221.43986948125,221.91970025625,66.0,117.0
352,221.92783298125002,222.1738479125,64.0,92.0
353,222.17181473125,222.4462942,66.0,102.0
354,222.41579648125,223.39172348125,69.0,97.0
355,223.39172348125,223.68856794375,69.0,100.0
356,223.87968698125002,224.0118437625,69.0,102.0
357,224.12366873125,224.3330864,73.0,127.0
358,224.36765048125002,224.54657043125002,71.0,122.0
359,224.61163223125,224.71532447500002,69.0,93.0
360,224.85561398125,225.03453393125002,69.0,92.0
361,225.09959573125002,225.3374779375,66.0,96.0
362,225.34357748125,225.96166458125,64.0,102.0
363,226.07552273125,226.27884085625,66.0,107.0
364,226.31950448125002,227.29543148125,64.0,99.0
365,227.29543148125,228.04770854375002,81.0,122.0
366,228.27135848125002,229.03380145,81.0,117.0
367,229.24728548125,229.65798809375002,76.0,127.0
368,229.73524898125,230.11138751250002,73.0,127.0
369,230.22321248125002,230.84129958125,76.0,117.0
370,231.19913948125,231.47361895,81.0,127.0
371,231.68710298125,231.77859613750002,81.0,117.0
372,231.93108473125002,232.05917515000002,81.0,96.0
373,232.17506648125,232.32755507500002,78.0,127.0
374,232.41904823125,232.57357000625,76.0,100.0
375,232.66302998125002,232.83991675000001,81.0,99.0
376,232.90701173125,233.13879439375,78.0,117.0
377,233.15099348125,233.9093700875,76.0,99.0
378,233.88293873125002,234.16351774375002,78.0,112.0
379,234.12692048125,235.06421703750001,76.0,112.0
380,235.10284748125002,235.792095925,71.0,107.0
381,235.83479273125002,236.12553765,73.0,127.0
382,236.07877448125,236.50980890625002,76.0,100.0
383,236.07877448125,236.50980890625002,76.0,107.0
384,237.05470148125002,237.44100591875002,66.0,117.0
385,237.54266498125,237.78867991250002,64.0,92.0
386,237.78664673125002,238.06112620000002,66.0,102.0
387,238.03062848125,239.00655548125002,69.0,105.0
388,239.00655548125002,239.093982275,71.0,100.0
389,239.25053723125,239.31966539375,71.0,95.0
390,239.49451898125002,239.66327302500002,71.0,112.0
391,239.73850073125,239.94181885625002,69.0,99.0
392,239.98248248125,240.15326970625,66.0,117.0
393,240.22646423125002,240.411483725,64.0,107.0
394,240.47044598125,240.69409591875,69.0,92.0
395,240.71442773125,240.95027675625002,66.0,102.0
396,240.95840948125002,241.9323033,64.0,99.0
397,242.91026348125,243.599511925,71.0,107.0
398,243.64220873125,243.93295365,73.0,127.0
399,243.88619048125,244.31722490625,76.0,100.0
400,243.88619048125,244.31722490625,76.0,107.0
401,244.86211748125,245.24842191875,66.0,117.0
402,245.35008098125002,245.5960959125,64.0,92.0
403,245.59406273125,245.8685422,66.0,102.0
404,245.83804448125002,246.81397148125,69.0,105.0
405,247.32909611250003,247.62692212500002,83.0,102.0
406,247.85083511250002,248.4204001875,83.0,117.0
407,248.37257411250002,249.05735655,81.0,122.0
408,249.15518261250003,249.7290955125,78.0,127.0
409,249.67692161250002,250.2464866875,76.0,112.0
410,250.19866061250002,251.02909518750002,81.0,100.0
411,250.9812691125,252.16321132500002,78.0,112.0
412,252.02474711250002,252.16321132500002,78.0,127.0
413,252.27409842916668,256.23780837083336,76.0,85.0
