,start,end,pitch,velocity
0,1.61231273125,1.911190375,59.0,73.0
1,1.36833098125,1.9254226437500002,57.0,69.0
2,2.10027623125,2.3076607187500002,57.0,47.0
3,0.8803674812500001,2.70616424375,45.0,82.0
4,2.34425798125,2.80782330625,59.0,38.0
5,2.5882397312500003,2.81392285,61.0,38.0
6,1.12434923125,2.85661965625,52.0,55.0
7,1.8562944812500002,2.90948236875,64.0,86.0
8,3.5641667312500003,3.8833761875,59.0,62.0
9,3.32018498125,3.90167481875,57.0,76.0
10,3.07620323125,4.14972293125,52.0,32.0
11,2.83222148125,4.15378929375,45.0,61.0
12,4.0521302312500005,4.16598838125,57.0,66.0
13,3.8081484812500004,4.721046862500001,64.0,96.0
14,4.29611198125,4.7373123125,61.0,37.0
15,4.54009373125,4.7820423000000005,59.0,58.0
16,5.02805723125,5.391996675000001,54.0,59.0
17,5.51602073125,5.855562,54.0,52.0
18,5.272038981250001,6.3394591375000005,57.0,70.0
19,4.78407548125,6.59360679375,42.0,92.0
20,6.0039842312500005,6.64240314375,54.0,52.0
21,6.491947731250001,6.94331396875,57.0,67.0
22,6.24796598125,7.101902106250001,61.0,48.0
23,5.76000248125,7.10800165,66.0,100.0
24,7.46787473125,7.7708187375,61.0,58.0
25,6.97991123125,7.82571463125,54.0,88.0
26,7.223892981250001,7.8826437062500005,57.0,70.0
27,7.9558382312500004,8.22828451875,54.0,58.0
28,6.73592948125,8.26488178125,42.0,89.0
29,8.44380173125,8.645086675,61.0,90.0
30,7.711856481250001,8.6898166625,66.0,99.0
31,8.19981998125,8.73454665,57.0,79.0
32,9.17574698125,9.734871825,50.0,75.0
33,9.907692231250001,10.11101035625,50.0,57.0
34,8.687783481250001,10.45665116875,38.0,66.0
35,10.151673981250001,10.690467012500001,64.0,56.0
36,8.93176523125,10.71689836875,45.0,53.0
37,10.39565573125,10.7473960875,62.0,53.0
38,9.66371048125,10.769761081250001,66.0,117.0
39,9.41972873125,10.938515125,57.0,76.0
40,11.12760098125,11.6338631125,50.0,57.0
41,11.371582731250001,11.78228534375,57.0,75.0
42,11.85954623125,12.07506344375,50.0,70.0
43,11.61556448125,12.26618248125,66.0,99.0
44,10.63963748125,12.28651429375,38.0,64.0
45,10.88361923125,12.4796665125,45.0,61.0
46,12.10352798125,12.591491481250001,62.0,77.0
47,12.34750973125,12.65248691875,57.0,72.0
48,13.07945498125,13.5003235,52.0,71.0
49,13.32343673125,13.624347556250001,56.0,72.0
50,13.56741848125,13.80936705,59.0,72.0
51,13.811400231250001,14.197704668750001,52.0,71.0
52,12.591491481250001,14.409155518750001,40.0,63.0
53,12.83547323125,14.63280545625,47.0,38.0
54,14.055381981250001,15.358651162500001,59.0,79.0
55,14.29936373125,15.362717525,64.0,77.0
56,14.54334548125,15.452177500000001,68.0,63.0
57,15.275290731250001,15.608732456250001,47.0,67.0
58,14.54334548125,15.858813750000001,40.0,68.0
59,15.76325423125,15.89134465,47.0,93.0
60,15.51927248125,16.013335525000002,64.0,100.0
61,16.007235981250002,16.57246036875,59.0,93.0
62,17.22714473125,17.4690933,59.0,83.0
63,16.98316298125,17.5056905625,57.0,89.0
64,16.73918123125,17.5626196375,52.0,69.0
65,16.49519948125,18.290498525,45.0,88.0
66,17.71510823125,18.41452258125,52.0,86.0
67,18.203071731250002,18.43078803125,59.0,96.0
68,17.47112648125,18.447053481250002,64.0,112.0
69,17.95908998125,18.4775512,61.0,99.0
70,19.17899873125,19.364018225000002,59.0,88.0
71,18.93501698125,19.5226063625,57.0,96.0
72,19.66696223125,19.86011445,57.0,97.0
73,18.69103523125,19.9048444375,52.0,63.0
74,18.447053481250002,19.93127579375,45.0,93.0
75,19.91094398125,20.337912043750002,61.0,117.0
76,20.15492573125,20.344011587500002,59.0,75.0
77,19.42298048125,20.344011587500002,64.0,117.0
78,20.642889231250003,21.03732639375,54.0,86.0
79,20.886870981250002,21.504958081250003,57.0,78.0
80,21.130852731250002,22.116945637500002,54.0,77.0
81,21.86279798125,22.4259891875,61.0,107.0
82,22.10677973125,22.44022145625,57.0,83.0
83,21.37483448125,22.46258645,66.0,117.0
84,22.35076148125,22.714700925000002,54.0,112.0
85,20.39890748125,23.19656488125,42.0,93.0
86,22.59474323125,23.24536123125,57.0,81.0
87,22.83872498125,23.32262211875,66.0,100.0
88,23.082706731250003,23.33075484375,61.0,102.0
89,23.570670231250002,23.932576493750002,57.0,75.0
90,23.81465198125,24.196890056250002,64.0,88.0
91,23.326688481250002,24.2477195875,40.0,72.0
92,24.05863373125,24.29854911875,57.0,89.0
93,24.79057898125,25.315139743750002,50.0,79.0
94,25.03456073125,25.6018183,57.0,75.0
95,25.522524231250003,25.654681012500003,50.0,64.0
96,24.30261548125,26.087748618750002,38.0,88.0
97,25.27854248125,26.2727681125,66.0,102.0
98,24.54659723125,26.29106674375,45.0,46.0
99,25.766505981250003,26.2971662875,62.0,81.0
100,26.010487731250002,26.38052671875,57.0,88.0
101,26.74243298125,27.23852920625,50.0,79.0
102,26.98641473125,27.332055543750002,57.0,83.0
103,27.47437823125,27.66143090625,50.0,86.0
104,27.23039648125,27.9318440125,66.0,112.0
105,26.254469481250002,28.0416358,38.0,85.0
106,27.71835998125,28.1392285,62.0,83.0
107,26.49845123125,28.21038984375,45.0,53.0
108,27.96234173125,28.228688475000002,57.0,76.0
109,28.694286981250002,29.235113193750003,52.0,81.0
110,28.93826873125,29.318473625000003,59.0,76.0
111,29.42623223125,29.73934214375,52.0,72.0
112,28.206323481250003,29.96299208125,40.0,77.0
113,29.18225048125,30.028053881250003,68.0,97.0
114,28.450305231250002,30.174442931250002,47.0,43.0
115,29.91419573125,30.2252724625,64.0,81.0
116,29.67021398125,30.25577018125,59.0,76.0
117,30.646140981250003,31.21543173125,52.0,78.0
118,30.890122731250003,31.30489170625,59.0,66.0
119,30.15817748125,31.498043925,40.0,70.0
120,30.40215923125,31.54074073125,47.0,56.0
121,31.378086231250002,31.8274192875,52.0,67.0
122,31.62206798125,32.1079983,64.0,71.0
123,31.134104481250002,32.124263750000004,68.0,100.0
124,31.86604973125,32.12629693125,59.0,77.0
125,32.84197673125,33.173385275,59.0,59.0
126,32.597994981250004,33.189650725,57.0,73.0
127,32.35401323125,33.22014844375,52.0,47.0
128,32.110031481250005,33.83823554375,45.0,74.0
129,33.32994023125,34.0598523,52.0,35.0
130,34.06188548125,34.5762803375,57.0,69.0
131,33.57392198125,34.79789709375,61.0,73.0
132,33.08595848125,34.8283948125,64.0,86.0
133,34.54984898125,35.125239275,52.0,61.0
134,34.793830731250004,35.157770175,59.0,55.0
135,34.06188548125,35.74535955625,45.0,66.0
136,35.281794231250004,35.920213143750004,52.0,46.0
137,35.03781248125,36.01373948125,64.0,90.0
138,36.01373948125,36.6175943125,45.0,96.0
139,36.74568473125,36.881907875,45.0,93.0
140,36.50170298125,36.9998323875,61.0,92.0
141,36.50170298125,37.00999829375,57.0,89.0
142,36.50170298125,37.093358725,64.0,83.0
143,36.989666481250005,37.7155121875,45.0,66.0
144,37.477629981250004,37.92492985625,57.0,85.0
145,37.477629981250004,37.9310294,61.0,96.0
146,37.477629981250004,37.951361212500004,64.0,85.0
147,37.96559348125,38.51048605625,45.0,96.0
148,38.69753873125,38.77479961875,45.0,96.0
149,38.45355698125,38.839861418750004,57.0,85.0
150,38.45355698125,39.006582281250004,61.0,99.0
151,38.45355698125,39.05537863125,64.0,89.0
152,38.94152048125,39.3339244625,45.0,93.0
153,39.18550223125,39.380687631250005,57.0,86.0
154,39.18550223125,39.437616706250004,61.0,99.0
155,39.18550223125,39.478280331250005,64.0,90.0
156,39.42948398125,39.8218879625,44.0,112.0
157,39.673465731250005,39.95811110625,61.0,99.0
158,39.673465731250005,39.992675187500005,64.0,85.0
159,39.91744748125,40.494870956250004,42.0,100.0
160,40.64939273125,40.718520893750004,54.0,88.0
161,40.64939273125,40.73478634375,42.0,85.0
162,40.40541098125,40.773416787500004,57.0,86.0
163,40.40541098125,40.7815495125,61.0,112.0
164,40.89337448125,41.322375725,54.0,92.0
165,40.89337448125,41.49316295,42.0,62.0
166,41.13735623125,41.49316295,57.0,81.0
167,41.13735623125,41.523660668750004,66.0,85.0
168,41.13735623125,41.5297602125,61.0,96.0
169,41.62531973125,41.787974231250004,57.0,66.0
170,41.62531973125,41.7900074125,66.0,92.0
171,41.62531973125,41.8347374,61.0,102.0
172,41.869301481250005,42.4528245,40.0,85.0
173,42.60124673125,42.719171243750004,40.0,78.0
174,42.357264981250005,42.912323462500005,59.0,85.0
175,42.357264981250005,42.93468845625,68.0,107.0
176,42.357264981250005,42.948920725,64.0,95.0
177,43.08921023125,43.37995515,59.0,90.0
178,43.08921023125,43.4165524125,68.0,97.0
179,43.08921023125,43.420618775,64.0,95.0
180,42.845228481250004,43.5629414625,40.0,81.0
181,43.33319198125,43.650368256250005,47.0,90.0
182,43.57717373125,43.817089118750005,59.0,85.0
183,43.57717373125,43.83742093125,68.0,92.0
184,43.57717373125,43.845553656250004,64.0,90.0
185,43.82115548125,44.37011441875,40.0,96.0
186,44.553100731250005,44.65882615625,40.0,83.0
187,44.30911898125,44.9048410875,59.0,79.0
188,44.30911898125,44.90890745,68.0,75.0
189,44.30911898125,44.917040175000004,64.0,78.0
190,44.79708248125,45.39077140625,40.0,83.0
191,45.041064231250004,45.39483776875,59.0,77.0
192,45.041064231250004,45.400937312500005,64.0,89.0
193,45.041064231250004,45.405003675,68.0,93.0
194,45.529027731250004,45.7018481375,64.0,86.0
195,45.529027731250004,45.72421313125,68.0,81.0
196,45.529027731250004,45.78927493125,59.0,83.0
197,45.77300948125,46.3443334125,42.0,97.0
198,46.50495473125,46.584248800000005,42.0,70.0
199,46.50495473125,46.592381525,54.0,88.0
200,46.26097298125,46.79773283125,61.0,99.0
201,46.26097298125,46.805865556250005,57.0,85.0
202,46.26097298125,46.80993191875,66.0,93.0
203,46.748936481250006,47.275530425,54.0,74.0
204,46.99291823125,47.34262540625,66.0,95.0
205,46.99291823125,47.348724950000005,57.0,82.0
206,46.99291823125,47.356857675,61.0,100.0
207,46.748936481250006,47.373123125,42.0,61.0
208,47.48088173125,47.698432125000004,66.0,86.0
209,47.48088173125,47.7187639375,57.0,83.0
210,47.48088173125,47.72079711875,61.0,102.0
211,47.724863481250004,48.300253775,38.0,90.0
212,48.45680873125,48.56253415625,50.0,72.0
213,48.45680873125,48.5686337,45.0,53.0
214,48.212826981250004,48.74145410625,57.0,89.0
215,48.212826981250004,48.74552046875,62.0,96.0
216,48.212826981250004,48.74958683125,66.0,97.0
217,48.70079048125,49.162322625,50.0,71.0
218,48.94477223125,49.30261213125,57.0,82.0
219,48.94477223125,49.31481121875,62.0,88.0
220,48.94477223125,49.31481121875,66.0,86.0
221,48.70079048125,49.5648925125,45.0,66.0
222,49.432735731250006,49.56692569375,62.0,86.0
223,49.432735731250006,49.599456593750006,66.0,82.0
224,49.432735731250006,49.601489775000005,57.0,76.0
225,49.67671748125,50.2927714,40.0,81.0
226,50.408662731250004,50.49405634375,52.0,74.0
227,50.408662731250004,50.5164213375,47.0,61.0
228,50.16468098125,50.675009475,59.0,86.0
229,50.16468098125,50.685175381250005,68.0,99.0
230,50.16468098125,50.697374468750006,64.0,95.0
231,50.65264448125,51.242267043750005,47.0,73.0
232,50.89662623125,51.25243295,59.0,79.0
233,50.89662623125,51.25853249375,64.0,85.0
234,50.89662623125,51.2646320375,68.0,89.0
235,51.38458973125,51.51268015,68.0,76.0
236,50.65264448125,51.535045143750004,52.0,74.0
237,51.38458973125,51.5818083125,64.0,89.0
238,51.38458973125,51.661102381250004,59.0,83.0
239,51.62857148125,52.24665858125,45.0,82.0
240,52.36051673125,52.4764080625,52.0,76.0
241,52.116534981250005,52.68379255,57.0,83.0
242,52.116534981250005,52.687858912500005,61.0,99.0
243,52.116534981250005,52.687858912500005,64.0,89.0
244,52.84848023125,53.214452856250006,57.0,75.0
245,52.84848023125,53.214452856250006,61.0,86.0
246,52.84848023125,53.216486037500005,64.0,75.0
247,52.604498481250005,53.2652823875,52.0,86.0
248,53.33644373125,53.51129731875,64.0,77.0
249,53.33644373125,53.5255295875,61.0,90.0
250,53.33644373125,53.56009366875,57.0,81.0
251,53.58042548125,54.12938441875,42.0,100.0
252,54.312370731250006,54.399797525000004,42.0,82.0
253,54.312370731250006,54.40589706875,54.0,81.0
254,54.06838898125,54.6153147375,61.0,107.0
255,54.06838898125,54.627513825,57.0,89.0
256,54.06838898125,54.6315801875,66.0,96.0
257,54.55635248125,55.009751900000005,42.0,68.0
258,54.55635248125,55.082946425,54.0,74.0
259,54.800334231250005,55.148008225000005,61.0,95.0
260,54.800334231250005,55.15817413125,66.0,88.0
261,54.800334231250005,55.16630685625,57.0,82.0
262,55.288297731250005,55.44891905,66.0,77.0
263,55.288297731250005,55.495682218750005,61.0,97.0
264,55.288297731250005,55.5343126625,57.0,77.0
265,55.53227948125,56.11376931875,45.0,82.0
266,56.26422473125,56.402481056250004,52.0,79.0
267,56.02024298125,56.554969650000004,57.0,83.0
268,56.02024298125,56.563102375,61.0,97.0
269,56.02024298125,56.579367825000006,64.0,86.0
270,56.75218823125,57.12629358125,57.0,75.0
271,56.75218823125,57.13035994375,61.0,93.0
272,56.75218823125,57.136459487500005,64.0,78.0
273,57.24015173125,57.45973530625,61.0,92.0
274,56.50820648125,57.482100300000006,52.0,68.0
275,57.24015173125,57.506498475,57.0,79.0
276,57.24015173125,57.522763925,64.0,77.0
277,57.484133481250005,58.081888768750005,45.0,90.0
278,58.21607873125,58.31163825,52.0,69.0
279,58.21607873125,58.317737793750005,45.0,59.0
280,57.972096981250004,58.529188643750004,57.0,88.0
281,57.972096981250004,58.53325500625,61.0,100.0
282,57.972096981250004,58.53732136875,64.0,89.0
283,58.460060481250004,58.929725350000005,52.0,83.0
284,58.460060481250004,58.95209034375,45.0,70.0
285,58.70404223125,59.039517137500006,64.0,86.0
286,58.70404223125,59.0476498625,61.0,99.0
287,58.70404223125,59.053749406250006,57.0,82.0
288,59.19200573125,59.405489762500004,64.0,81.0
289,59.19200573125,59.43598748125,61.0,97.0
290,59.19200573125,59.4664852,57.0,83.0
291,59.43598748125,59.978846875,42.0,83.0
292,60.167932731250005,60.2472268,54.0,82.0
293,60.167932731250005,60.251293162500005,42.0,74.0
294,59.92395098125,60.448511743750004,57.0,86.0
295,59.92395098125,60.448511743750004,61.0,107.0
296,59.92395098125,60.4790094625,66.0,100.0
297,60.41191448125,60.930375700000006,54.0,79.0
298,60.41191448125,60.99747068125,42.0,79.0
299,60.655896231250004,60.9995038625,61.0,100.0
300,60.655896231250004,61.001537043750005,57.0,82.0
301,60.655896231250004,61.00966976875,66.0,89.0
302,61.143859731250004,61.389874662500006,66.0,92.0
303,61.143859731250004,61.406140112500005,57.0,83.0
304,61.143859731250004,61.41223965625,61.0,112.0
305,61.38784148125,61.963231775000004,50.0,68.0
306,62.11978673125,62.2316117,50.0,73.0
307,61.875804981250006,62.408498468750004,66.0,89.0
308,61.875804981250006,62.4145980125,57.0,86.0
309,61.875804981250006,62.42476391875,62.0,93.0
310,62.363768481250005,62.713475656250004,50.0,71.0
311,62.60775023125,62.95745740625,62.0,97.0
312,62.60775023125,62.961523768750006,57.0,88.0
313,62.60775023125,62.963556950000005,66.0,99.0
314,63.09571373125,63.3010650375,62.0,95.0
315,63.09571373125,63.309197762500006,57.0,90.0
316,63.09571373125,63.309197762500006,66.0,89.0
317,63.339695481250004,63.88458805625,40.0,56.0
318,63.339695481250004,63.8866212375,52.0,69.0
319,63.339695481250004,63.90085350625,47.0,69.0
320,64.07164073125,64.126536625,40.0,42.0
321,64.07164073125,64.159067525,52.0,74.0
322,64.07164073125,64.16110070625,47.0,81.0
323,63.82765898125,64.272925675,59.0,86.0
324,63.82765898125,64.3420538375,68.0,97.0
325,63.82765898125,64.35628610625,64.0,93.0
326,64.31562248125,64.79545325625,40.0,53.0
327,64.31562248125,64.83001733750001,47.0,72.0
328,64.31562248125,64.8666146,52.0,77.0
329,64.55960423125,64.89101277500001,64.0,88.0
330,64.55960423125,64.8950791375,59.0,82.0
331,64.55960423125,64.9032118625,68.0,90.0
332,65.04756773125,65.22242131875001,64.0,78.0
333,65.04756773125,65.22242131875001,68.0,73.0
334,65.04756773125,65.35864446250001,59.0,85.0
335,65.29154948125,65.84457478125,42.0,90.0
336,66.02349473125,66.1231206125,42.0,78.0
337,66.02349473125,66.1231206125,54.0,78.0
338,65.77951298125001,66.1475187875,61.0,99.0
339,65.77951298125001,66.17395014375,57.0,90.0
340,66.26747648125,66.66801318750001,44.0,102.0
341,66.51145823125,66.88759676250001,59.0,89.0
342,66.51145823125,66.88962994375001,52.0,85.0
343,66.51145823125,66.88962994375001,56.0,96.0
344,66.99942173125001,67.16614259375001,52.0,79.0
345,66.99942173125001,67.17834168125,56.0,97.0
346,66.99942173125001,67.19054076875,59.0,90.0
347,67.24340348125,67.82895968125,45.0,97.0
348,67.97534873125001,68.0749746125,52.0,96.0
349,67.73136698125,68.14206959375001,57.0,88.0
350,67.73136698125,68.25999410625,64.0,79.0
351,67.73136698125,68.274226375,61.0,96.0
352,68.46331223125,68.82115213125,57.0,72.0
353,68.46331223125,68.82928485625,64.0,79.0
354,68.46331223125,68.83945076250001,61.0,92.0
355,68.21933048125,69.1240961375,52.0,82.0
356,68.95127573125,69.20135702500001,61.0,100.0
357,68.95127573125,69.23185474375,57.0,86.0
358,68.95127573125,69.2379542875,64.0,83.0
359,69.19525748125,69.819444125,45.0,86.0
360,69.92720273125,70.0390277,52.0,90.0
361,69.68322098125,70.20778174375,57.0,86.0
362,69.68322098125,70.21794765,61.0,112.0
363,69.68322098125,70.2220140125,64.0,86.0
364,70.17118448125001,70.66728070625,52.0,83.0
365,70.41516623125,70.77707249375,61.0,102.0
366,70.41516623125,70.78113885625001,57.0,86.0
367,70.41516623125,70.78520521875001,64.0,88.0
368,70.90312973125,71.0759501375,64.0,78.0
369,70.90312973125,71.10644785625,61.0,99.0
370,70.90312973125,71.1410119375,57.0,85.0
371,71.14711148125001,71.68793769375,42.0,92.0
372,71.87905673125,71.94411853125,54.0,73.0
373,71.87905673125,71.94818489375001,42.0,58.0
374,71.63507498125,72.12710484375,57.0,86.0
375,71.63507498125,72.161668925,61.0,102.0
376,71.63507498125,72.1820007375,66.0,100.0
377,72.36702023125001,72.72486013125,57.0,79.0
378,72.36702023125001,72.7350260375,66.0,89.0
379,72.36702023125001,72.73705921875,61.0,100.0
380,72.12303848125,72.89361417500001,54.0,82.0
381,72.12303848125,72.93631098125,42.0,62.0
382,72.85498373125,73.0196714125,57.0,79.0
383,72.85498373125,73.0196714125,61.0,100.0
384,72.85498373125,73.023737775,66.0,85.0
385,73.09896548125,73.6540239625,40.0,89.0
386,73.83091073125,73.902072075,52.0,66.0
387,73.83091073125,73.92037070625,47.0,62.0
388,73.58692898125,74.06269339375001,59.0,92.0
389,73.58692898125,74.09115793125001,68.0,97.0
390,73.58692898125,74.09522429375001,64.0,97.0
391,74.31887423125,74.65231595625,59.0,86.0
392,74.31887423125,74.66044868125,68.0,90.0
393,74.31887423125,74.67264776875,64.0,93.0
394,74.07489248125,74.85970044375,52.0,74.0
395,74.07489248125,74.877999075,47.0,74.0
396,74.80683773125,75.01218903750001,59.0,88.0
397,74.80683773125,75.02235494375,64.0,92.0
398,74.80683773125,75.02235494375,68.0,95.0
399,75.05081948125,75.59571205625001,40.0,55.0
400,75.05081948125,75.642475225,52.0,79.0
401,75.05081948125,75.65670749375,47.0,72.0
402,75.78276473125,75.88442379375,52.0,58.0
403,75.78276473125,75.886456975,47.0,60.0
404,75.53878298125001,76.07350965,59.0,86.0
405,75.53878298125001,76.0857087375,64.0,92.0
406,75.53878298125001,76.0857087375,68.0,95.0
407,76.27072823125,76.62856813125,59.0,82.0
408,76.27072823125,76.634667675,68.0,93.0
409,76.27072823125,76.6387340375,64.0,89.0
410,76.02674648125,76.74649264375,47.0,79.0
411,76.02674648125,76.76275809375001,52.0,70.0
412,76.75869173125001,76.97827530625,59.0,83.0
413,76.75869173125001,76.98437485000001,64.0,89.0
414,76.75869173125001,77.0006403,68.0,89.0
415,77.00267348125,77.55163241875,42.0,95.0
416,77.73461873125001,77.8098464375,54.0,76.0
417,77.73461873125001,77.82814506875,42.0,67.0
418,77.49063698125,78.01316456250001,57.0,88.0
419,77.49063698125,78.01519774375001,61.0,97.0
420,77.49063698125,78.01926410625,66.0,92.0
421,77.97860048125,78.43403308125,54.0,72.0
422,78.22258223125,78.59668758125001,66.0,92.0
423,78.22258223125,78.60075394375001,57.0,79.0
424,78.22258223125,78.602787125,61.0,99.0
425,77.97860048125,78.65768301875,42.0,78.0
426,78.71054573125001,78.96672656875,66.0,92.0
427,78.71054573125001,78.98705838125001,57.0,82.0
428,78.71054573125001,78.993157925,61.0,100.0
429,78.95452748125,79.52381823125,50.0,58.0
430,79.68647273125,79.7779658875,50.0,69.0
431,79.44249098125,79.97925083125,57.0,86.0
432,79.44249098125,79.99144991875,66.0,90.0
433,79.44249098125,79.99551628125,62.0,93.0
434,80.17443623125,80.5505747625,57.0,74.0
435,80.17443623125,80.55667430625,66.0,86.0
436,80.17443623125,80.56277385,62.0,88.0
437,79.93045448125001,80.71932880625,50.0,65.0
438,80.66239973125,80.87588376250001,62.0,89.0
439,80.66239973125,80.87995012500001,57.0,81.0
440,80.66239973125,80.88604966875,66.0,86.0
441,80.90638148125001,81.50616995,52.0,72.0
442,81.39434498125,81.7216871625,59.0,86.0
443,81.63832673125,81.75625124375,52.0,83.0
444,81.39434498125,81.92703846875,68.0,92.0
445,81.39434498125,81.93720437500001,64.0,92.0
446,82.12629023125001,82.4698978625,59.0,81.0
447,82.12629023125001,82.48413013125,64.0,83.0
448,82.12629023125001,82.49632921875,68.0,85.0
449,81.88230848125,82.6935478,52.0,85.0
450,82.61425373125,82.7464105125,68.0,72.0
451,82.61425373125,82.8196050375,64.0,92.0
452,82.61425373125,82.89483274375,59.0,90.0
453,82.85823548125,83.4783557625,45.0,82.0
454,83.59018073125,83.69590615625,52.0,82.0
455,83.34619898125,83.73250341875,57.0,85.0
456,83.34619898125,83.7345366,61.0,95.0
457,83.34619898125,83.88295883125001,64.0,82.0
458,83.83416248125,84.34245779375,52.0,78.0
459,84.07814423125001,84.43598413125001,61.0,95.0
460,84.07814423125001,84.442083675,64.0,79.0
461,84.07814423125001,84.44411685625,57.0,78.0
462,84.56610773125,84.8080563,61.0,93.0
463,84.56610773125,84.832454475,64.0,81.0
464,84.56610773125,84.83448765625,57.0,74.0
465,84.81008948125,85.37734705,42.0,89.0
466,85.54203473125,85.60709653125001,54.0,79.0
467,85.54203473125,85.6091297125,42.0,60.0
468,85.29805298125001,85.68639060000001,61.0,97.0
469,85.29805298125001,85.70468923125,57.0,81.0
470,85.29805298125001,85.76975103125001,66.0,77.0
471,85.78601648125,86.231283175,42.0,74.0
472,85.78601648125,86.24144908125001,54.0,64.0
473,86.02999823125,86.377672225,61.0,97.0
474,86.02999823125,86.38580495000001,57.0,79.0
475,86.02999823125,86.41223630625001,66.0,92.0
476,86.51796173125,86.7233130375,61.0,100.0
477,86.51796173125,86.7273794,66.0,81.0
478,86.51796173125,86.7639766625,57.0,78.0
479,86.76194348125,87.36173195,45.0,77.0
480,87.49388873125001,87.58741506875,52.0,83.0
481,87.24990698125,87.646377325,57.0,88.0
482,87.24990698125,87.66060959375001,61.0,100.0
483,87.24990698125,87.77446774375001,64.0,85.0
484,87.98185223125,88.3213935,57.0,82.0
485,87.98185223125,88.33155940625001,61.0,95.0
486,87.98185223125,88.33765895,64.0,86.0
487,87.73787048125,88.622304325,52.0,72.0
488,88.46981573125001,88.68533294375,61.0,93.0
489,88.46981573125001,88.69346566875001,57.0,81.0
490,88.46981573125001,88.703631575,64.0,85.0
491,88.71379748125,89.24445778750001,45.0,82.0
492,89.44574273125001,89.5372358875,52.0,92.0
493,89.20176098125,89.6185631375,57.0,93.0
494,89.20176098125,89.6836249375,61.0,99.0
495,89.20176098125,89.70598993125,64.0,93.0
496,89.68972448125001,90.0089339375,52.0,85.0
497,89.93370623125,90.1878538875,57.0,89.0
498,89.93370623125,90.216318425,61.0,107.0
499,89.93370623125,90.2366502375,64.0,93.0
500,90.17768798125,90.56805878125,44.0,96.0
501,90.42166973125,90.671751025,61.0,99.0
502,90.66565148125001,91.1841127,42.0,95.0
503,91.39759673125,91.46875807500001,54.0,79.0
504,91.15361498125,91.47079125625001,61.0,112.0
505,91.15361498125,91.47892398125,57.0,81.0
506,91.15361498125,91.47892398125,66.0,97.0
507,91.39759673125,91.485023525,42.0,77.0
508,91.64157848125001,92.00348474375001,54.0,77.0
509,91.64157848125001,92.07667926875,42.0,71.0
510,91.88556023125001,92.21493559375,61.0,107.0
511,91.88556023125001,92.216968775,57.0,88.0
512,91.88556023125001,92.216968775,66.0,96.0
513,92.12954198125,92.379623275,54.0,76.0
514,92.12954198125,92.3836896375,42.0,48.0
515,92.37352373125,92.54431095625,61.0,112.0
516,92.37352373125,92.5504105,57.0,88.0
517,92.37352373125,92.58090821875001,66.0,97.0
518,92.61750548125,93.18679623125,50.0,89.0
519,93.34945073125,93.44907661250001,50.0,82.0
520,93.10546898125,93.45110979375,62.0,90.0
521,93.10546898125,93.59749884375,66.0,89.0
522,93.10546898125,93.60969793125001,57.0,77.0
523,93.59343248125,94.09766143125,50.0,88.0
524,93.83741423125001,94.152557325,66.0,90.0
525,93.83741423125001,94.15865686875,62.0,92.0
526,93.83741423125001,94.16882277500001,57.0,75.0
527,94.32537773125,94.4575345125,66.0,81.0
528,94.32537773125,94.55106085,57.0,77.0
529,94.32537773125,94.61815583125001,62.0,95.0
530,94.56935948125,95.1528825,40.0,66.0
531,95.30130473125,95.3805988,52.0,63.0
532,95.30130473125,95.40703015625,47.0,51.0
533,95.05732298125001,95.55341920625,59.0,85.0
534,95.05732298125001,95.567651475,68.0,93.0
535,95.05732298125001,95.57375101875,64.0,95.0
536,95.78926823125,96.14100858750001,59.0,77.0
537,95.78926823125,96.15117449375,68.0,77.0
538,95.78926823125,96.15930721875,64.0,81.0
539,95.54528648125,96.17353948750001,52.0,61.0
540,95.54528648125,96.3768576125,47.0,70.0
541,96.27723173125,96.45208531875001,64.0,79.0
542,96.27723173125,96.4541185,59.0,81.0
543,96.27723173125,96.4541185,68.0,74.0
544,96.52121348125,97.05390696875,54.0,79.0
545,96.52121348125,97.10270331875,42.0,83.0
546,97.00917698125001,97.30805462500001,61.0,107.0
547,97.00917698125001,97.30805462500001,66.0,95.0
548,97.00917698125001,97.34871825,57.0,88.0
549,97.25315873125001,97.42191277500001,42.0,93.0
550,97.49714048125,98.105061675,44.0,112.0
551,97.98510398125,98.39580659375001,52.0,74.0
552,97.98510398125,98.4019061375,56.0,97.0
553,97.98510398125,98.41207204375,59.0,89.0
554,98.47306748125,99.06269004375001,45.0,70.0
555,98.96103098125,99.22737772500001,57.0,93.0
556,98.96103098125,99.24160999375,61.0,117.0
557,98.96103098125,99.26600816875,64.0,96.0
558,99.20501273125001,99.3209040625,52.0,86.0
559,99.44899448125001,99.77430348125,52.0,102.0
560,99.69297623125,100.0040529625,61.0,117.0
561,99.69297623125,100.00811932500001,57.0,95.0
562,99.69297623125,100.01625205,64.0,95.0
563,100.18093973125,100.39442376250001,61.0,117.0
564,100.18093973125,100.39849012500001,64.0,86.0
565,100.18093973125,100.40662285,57.0,92.0
566,100.42492148125001,100.95558178750001,50.0,95.0
567,101.15686673125,101.27072488125,50.0,92.0
568,100.91288498125,101.34595258750001,57.0,95.0
569,100.91288498125,101.3662844,62.0,102.0
570,100.91288498125,101.38051666875,66.0,102.0
571,101.64483023125,101.9396415125,59.0,99.0
572,101.64483023125,101.9396415125,68.0,107.0
573,101.64483023125,101.9477742375,64.0,97.0
574,101.40084848125001,102.01080285625001,52.0,122.0
575,102.13279373125,102.34831094375001,64.0,117.0
576,102.13279373125,102.36051003125,68.0,112.0
577,102.13279373125,102.40117365625001,59.0,97.0
578,102.62075723125001,102.7203831125,66.0,33.0
579,102.86473898125,103.14125163125,66.0,122.0
580,103.10872073125,103.14125163125,66.0,96.0
581,102.86473898125,103.15548390000001,61.0,127.0
582,103.10872073125,103.15548390000001,61.0,92.0
583,102.86473898125,103.15751708125,57.0,102.0
584,103.10872073125,103.15751708125,57.0,90.0
585,102.37677548125001,103.23274478750001,42.0,117.0
586,103.59668423125001,103.9402918625,66.0,100.0
587,103.59668423125001,103.95452413125001,57.0,95.0
588,103.59668423125001,103.95452413125001,61.0,122.0
589,103.35270248125,104.01551956875001,42.0,66.0
590,103.35270248125,104.03991774375001,54.0,66.0
591,104.08464773125,104.2493354125,61.0,122.0
592,104.08464773125,104.25543495625,57.0,97.0
593,104.08464773125,104.29609858125,66.0,107.0
594,104.32862948125,104.8023607125,49.0,88.0
595,105.06057473125,105.15003470625001,49.0,39.0
596,104.81659298125001,105.16630015625,64.0,107.0
597,104.81659298125001,105.17849924375001,68.0,107.0
598,105.06057473125,105.18256560625001,56.0,85.0
599,104.81659298125001,105.23949468125001,61.0,112.0
600,105.30455648125,105.75185635625,56.0,93.0
601,105.30455648125,105.84944905625001,49.0,92.0
602,105.54853823125,105.87181405000001,64.0,112.0
603,105.54853823125,105.88197995625,61.0,102.0
604,105.54853823125,105.88604631875,68.0,122.0
605,106.03650173125,106.14629351875,64.0,93.0
606,106.03650173125,106.22965395,68.0,117.0
607,106.03650173125,106.23981985625001,61.0,102.0
608,106.28048348125,106.85180741250001,47.0,88.0
609,107.01242873125001,107.18118277500001,47.0,89.0
610,106.76844698125001,107.21168049375001,62.0,122.0
611,106.76844698125001,107.2259127625,66.0,117.0
612,106.76844698125001,107.23811185000001,59.0,97.0
613,107.25641048125,108.04325162500001,45.0,85.0
614,107.74437398125,108.1652425,64.0,102.0
615,107.74437398125,108.16727568125,61.0,127.0
616,107.98835573125001,108.21403885000001,57.0,90.0
617,108.23233748125,108.8036614125,44.0,100.0
618,108.72030098125,108.96224955000001,52.0,86.0
619,108.72030098125,108.96631591250001,56.0,96.0
620,108.72030098125,108.978515,59.0,89.0
621,108.96428273125001,109.10457223750001,44.0,107.0
622,109.45224623125,109.84668339375,54.0,89.0
623,109.20826448125001,109.96867426875001,42.0,100.0
624,109.69622798125,110.15979330625001,66.0,122.0
625,109.94020973125001,110.21468920000001,57.0,89.0
626,109.69622798125,110.21672238125001,61.0,127.0
627,110.18419148125001,110.74941586875,50.0,93.0
628,110.91613673125,111.01779579375001,50.0,93.0
629,110.67215498125,111.04626033125001,57.0,90.0
630,110.67215498125,111.19061620000001,62.0,99.0
631,110.67215498125,111.198748925,66.0,99.0
632,111.16011848125001,111.57895381875001,50.0,95.0
633,111.40410023125,111.73957513750001,57.0,99.0
634,111.40410023125,111.74364150000001,62.0,102.0
635,111.40410023125,111.74974104375,66.0,107.0
636,111.89206373125,112.06691731875,62.0,100.0
637,111.89206373125,112.07301686250001,57.0,99.0
638,111.89206373125,112.093348675,66.0,99.0
639,112.13604548125001,112.65653988125001,40.0,59.0
640,112.13604548125001,112.69313714375001,52.0,88.0
641,112.13604548125001,112.72566804375,47.0,85.0
642,112.86799073125,112.96355025000001,52.0,85.0
643,112.86799073125,112.97168297500001,47.0,88.0
644,112.62400898125,113.17703428125,59.0,96.0
645,112.62400898125,113.19736609375,64.0,112.0
646,112.62400898125,113.199399275,68.0,112.0
647,113.35595423125001,113.70566140625,59.0,95.0
648,113.35595423125001,113.71786049375001,68.0,102.0
649,113.35595423125001,113.72192685625001,64.0,100.0
650,113.11197248125,113.9272781625,47.0,86.0
651,113.11197248125,113.93337770625,52.0,85.0
652,113.84391773125,114.03503676875,59.0,96.0
653,113.84391773125,114.04926903750001,64.0,102.0
654,113.84391773125,114.05536858125001,68.0,102.0
655,114.08789948125,114.71411930625001,45.0,97.0
656,114.81984473125,114.93980242500001,52.0,99.0
657,114.57586298125001,115.0739923875,57.0,93.0
658,114.57586298125001,115.0983905625,61.0,107.0
659,114.57586298125001,115.102456925,64.0,89.0
660,115.30780823125001,115.655482225,57.0,92.0
661,115.30780823125001,115.671747675,61.0,107.0
662,115.30780823125001,115.67784721875,64.0,92.0
663,115.06382648125,115.92386215,52.0,99.0
664,115.79577173125,115.99705667500001,64.0,86.0
665,115.79577173125,116.06415165625,57.0,86.0
666,115.79577173125,116.08651665000001,61.0,107.0
667,116.28373523125,116.60497786875001,57.0,90.0
668,116.28373523125,116.60701105000001,66.0,100.0
669,116.28373523125,116.615143775,62.0,99.0
670,116.03975348125,116.74933373750001,50.0,96.0
671,116.77169873125001,116.96485095,62.0,96.0
672,116.77169873125001,116.96891731250001,57.0,92.0
673,116.77169873125001,116.97298367500001,66.0,99.0
674,117.25966223125,117.3714872,59.0,89.0
675,117.25966223125,117.37758674375,68.0,99.0
676,117.25966223125,117.38775265000001,64.0,100.0
677,117.01568048125,117.54430760625,52.0,112.0
678,117.50364398125001,117.80455480625001,64.0,112.0
679,117.50364398125001,117.83505252500001,68.0,112.0
680,117.50364398125001,118.00787293125,59.0,100.0
681,117.99160748125,118.55479868750001,42.0,95.0
682,118.72355273125001,118.76014999375,42.0,36.0
683,118.72355273125001,118.77844862500001,54.0,69.0
684,118.47957098125,118.97566720625001,61.0,117.0
685,118.47957098125,118.98379993125,57.0,96.0
686,118.47957098125,118.99193265625,66.0,99.0
687,118.96753448125,119.50836069375,54.0,83.0
688,119.21151623125,119.54902431875,57.0,92.0
689,119.21151623125,119.5510575,61.0,122.0
690,119.21151623125,119.55715704375001,66.0,100.0
691,118.96753448125,119.66898201250001,42.0,78.0
692,119.69947973125001,119.89466513125001,61.0,122.0
693,119.69947973125001,119.91093058125,57.0,96.0
694,119.69947973125001,119.93126239375,66.0,99.0
695,119.94346148125001,120.55748221875001,49.0,82.0
696,120.67540673125,120.77909897500001,49.0,63.0
697,120.43142498125,120.9376871125,64.0,112.0
698,120.43142498125,120.94581983750001,61.0,112.0
699,120.43142498125,120.94785301875001,68.0,112.0
700,120.91938848125001,121.30772610000001,49.0,95.0
701,121.16337023125,121.30975928125001,64.0,100.0
702,121.40735198125,121.47241378125001,64.0,21.0
703,121.16337023125,121.50697786250001,68.0,112.0
704,121.16337023125,121.50901104375001,61.0,102.0
705,121.65133373125,121.77739096875001,64.0,90.0
706,121.40735198125,121.7997559625,49.0,100.0
707,121.65133373125,121.83635322500001,68.0,96.0
708,121.65133373125,121.8729504875,61.0,102.0
709,121.89531548125001,122.45647350625,47.0,96.0
710,122.38327898125,122.74111888125,66.0,107.0
711,122.38327898125,122.74925160625,62.0,97.0
712,122.62726073125,122.76958341875,47.0,95.0
713,122.38327898125,122.77771614375001,59.0,93.0
714,123.11522423125001,123.4669645875,64.0,90.0
715,123.11522423125001,123.47306413125001,57.0,92.0
716,123.11522423125001,123.47306413125001,61.0,99.0
717,122.87124248125001,123.5808227375,45.0,86.0
718,123.60318773125,123.78820722500001,61.0,102.0
719,123.60318773125,123.79430676875,64.0,89.0
720,123.60318773125,123.8248044875,57.0,90.0
721,124.09115123125001,124.4916879375,52.0,82.0
722,124.09115123125001,124.49778748125,59.0,90.0
723,124.09115123125001,124.4998206625,56.0,95.0
724,123.84716948125,124.50998656875001,44.0,96.0
725,124.57911473125,124.6584088,52.0,81.0
726,124.57911473125,124.6909397,59.0,88.0
727,124.57911473125,124.6950060625,56.0,97.0
728,125.06707823125001,125.11994094375001,57.0,69.0
729,125.06707823125001,125.12197412500001,58.0,41.0
730,125.06707823125001,125.29886089375,54.0,37.0
731,125.06707823125001,125.35578996875,61.0,90.0
732,125.31105998125001,125.52657719375,54.0,66.0
733,124.82309648125,125.58350626875,42.0,88.0
734,125.55504173125,125.740061225,57.0,90.0
735,125.55504173125,125.75429349375001,61.0,102.0
736,125.79902348125,126.3866128625,40.0,92.0
737,126.53096873125,126.59603053125001,52.0,66.0
738,126.53096873125,126.62042870625001,47.0,75.0
739,126.28698698125001,126.76681775625,59.0,83.0
740,126.28698698125001,126.77495048125,64.0,95.0
741,126.28698698125001,126.78714956875001,68.0,96.0
742,127.01893223125,127.34627441250001,64.0,95.0
743,127.01893223125,127.35237395625,59.0,85.0
744,127.01893223125,127.3544071375,68.0,97.0
745,126.77495048125,127.54755935625,52.0,64.0
746,126.77495048125,127.578057075,47.0,76.0
747,127.50689573125001,127.71834658125,64.0,95.0
748,127.50689573125001,127.73664521250001,59.0,85.0
749,127.50689573125001,127.74274475625,68.0,97.0
750,127.75087748125,128.25917279375,40.0,59.0
751,127.75087748125,128.293736875,52.0,95.0
752,127.75087748125,128.3018696,47.0,70.0
753,128.48282273125,128.5661831625,52.0,79.0
754,128.48282273125,128.5743158875,47.0,89.0
755,128.23884098125,128.619045875,59.0,78.0
756,128.23884098125,128.619045875,64.0,93.0
757,128.23884098125,128.63734450625,68.0,96.0
758,128.97078623125,129.318460225,64.0,99.0
759,128.97078623125,129.32455976875,59.0,81.0
760,128.97078623125,129.32455976875,68.0,97.0
761,128.72680448125,129.39775429375,40.0,76.0
762,128.72680448125,129.40995338125,47.0,86.0
763,128.72680448125,129.44045110000002,52.0,90.0
764,129.45874973125,129.6559683125,64.0,95.0
765,129.45874973125,129.6884992125,59.0,83.0
766,129.45874973125,129.69459875625,68.0,99.0
767,130.43467673125,130.71118938125,59.0,95.0
768,129.94671323125002,130.82301435,52.0,86.0
769,130.19069498125,130.8270807125,57.0,92.0
770,129.70273148125,131.5346277875,45.0,83.0
771,130.92264023125,131.676950475,52.0,69.0
772,131.16662198125002,131.6891495625,61.0,83.0
773,131.41060373125,131.693215925,59.0,72.0
774,130.67865848125,131.7135477375,64.0,97.0
775,132.14254898125,132.56545068125,57.0,97.0
776,131.65458548125,132.6935411,45.0,77.0
777,132.38653073125002,132.70370700625,59.0,97.0
778,131.89856723125,132.7057401875,52.0,92.0
779,132.87449423125,133.5393445,44.0,112.0
780,133.36245773125,133.60643948125,59.0,89.0
781,133.11847598125001,133.61457220625002,61.0,117.0
782,132.63051248125,133.64303674375,64.0,107.0
783,133.85042123125,134.22046021875002,54.0,67.0
784,134.33838473125002,134.6453951,54.0,75.0
785,134.09440298125,134.8080496,57.0,89.0
786,133.60643948125,135.41190443125,42.0,100.0
787,134.82634823125,135.61522255625002,54.0,76.0
788,134.58236648125,135.93646519375,66.0,127.0
789,135.07032998125,135.971029275,61.0,100.0
790,135.31431173125,135.97306245625,57.0,90.0
791,136.04625698125,136.33496871875002,57.0,93.0
792,136.29023873125,136.46102595625,66.0,93.0
793,136.29023873125,136.46915868125,61.0,78.0
794,135.80227523125,136.6094481875,54.0,90.0
795,136.77820223125002,136.90019310625001,54.0,99.0
796,135.55829348125002,136.9876199,42.0,83.0
797,136.53422048125,137.06691396875001,61.0,96.0
798,136.53422048125,137.1950043875,66.0,100.0
799,137.26616573125,137.46541749375,61.0,97.0
800,137.02218398125,138.10383640625,57.0,96.0
801,137.51014748125002,138.12416821875001,62.0,90.0
802,137.51014748125002,138.25022545625,66.0,97.0
803,137.99811098125,138.56333536875002,50.0,90.0
804,138.24209273125,138.581634,57.0,81.0
805,138.73005623125002,138.93337435625,50.0,72.0
806,138.48607448125,139.01266842500002,62.0,97.0
807,137.51014748125002,139.19362155625,38.0,75.0
808,139.21801973125,139.500631925,62.0,97.0
809,137.75412923125,139.50469828750002,45.0,55.0
810,138.48607448125,139.581959175,66.0,112.0
811,138.97403798125,139.94183225625,57.0,93.0
812,139.94996498125002,140.50705664375002,50.0,93.0
813,140.19394673125,140.58025116875,57.0,77.0
814,140.68191023125001,140.90556016875001,50.0,81.0
815,140.43792848125,140.9889206,62.0,74.0
816,139.46200148125,141.21053735625,38.0,85.0
817,140.43792848125,141.32032914375,66.0,122.0
818,139.70598323125,141.34676050000002,45.0,61.0
819,140.92589198125,141.43012093125,57.0,95.0
820,141.16987373125,142.07667256875,62.0,99.0
821,141.90181898125002,142.45281110000002,52.0,89.0
822,142.14580073125,142.4812756375,59.0,82.0
823,142.63376423125,142.9448409625,52.0,93.0
824,142.38978248125,142.96720595625,64.0,92.0
825,141.41385548125,143.24981815,40.0,82.0
826,141.65783723125,143.42263855625,47.0,81.0
827,142.87774598125,143.86587206875,59.0,90.0
828,142.38978248125,144.18304834375002,68.0,102.0
829,143.12172773125002,144.217612425,64.0,88.0
830,143.85367298125,144.41076464375,52.0,95.0
831,144.09765473125,144.41889736875,59.0,82.0
832,143.36570948125,144.81333453125,40.0,85.0
833,143.60969123125,144.87026360625,47.0,69.0
834,144.34163648125002,144.92719268125,68.0,107.0
835,144.34163648125002,144.9861549375,64.0,93.0
836,144.58561823125,145.25656804375,52.0,85.0
837,144.82959998125,145.36229346875,59.0,99.0
838,145.07358173125002,145.36432665,68.0,97.0
839,145.07358173125002,145.37855891875,64.0,70.0
840,146.04950873125,146.33822046875,59.0,93.0
841,145.80552698125,146.413448175,57.0,95.0
842,145.56154523125,146.4337799875,52.0,86.0
843,145.31756348125,147.11489570625,45.0,88.0
844,146.53747223125,147.27348384375,52.0,68.0
845,147.02543573125,147.324313375,59.0,65.0
846,146.78145398125,147.38734199375,61.0,102.0
847,146.29349048125002,147.44020470625,64.0,99.0
848,147.75738098125,148.26567629375,57.0,69.0
849,148.00136273125,148.3287049125,59.0,67.0
850,147.51339923125002,149.01388699375002,52.0,69.0
851,148.24534448125002,149.22533784375,64.0,86.0
852,147.26941748125,149.23550375000002,45.0,83.0
853,149.22127148125,149.23550375000002,45.0,97.0
854,149.95321673125,150.0528426125,52.0,96.0
855,149.70923498125,150.11993759375,57.0,88.0
856,149.70923498125,150.23786210625002,64.0,79.0
857,149.70923498125,150.252094375,61.0,96.0
858,150.44118023125,150.79902013125002,57.0,72.0
859,150.44118023125,150.80715285625,64.0,79.0
860,150.44118023125,150.8173187625,61.0,92.0
861,150.19719848125,151.1019641375,52.0,82.0
862,150.92914373125,151.179225025,61.0,100.0
863,150.92914373125,151.20972274375,57.0,86.0
864,150.92914373125,151.2158222875,64.0,83.0
865,151.17312548125,151.79731212500002,45.0,86.0
866,151.90507073125002,152.01689570000002,52.0,90.0
867,151.66108898125,152.18564974375002,57.0,86.0
868,151.66108898125,152.19581565000001,61.0,112.0
869,151.66108898125,152.1998820125,64.0,86.0
870,152.14905248125,152.64514870625,52.0,83.0
871,152.39303423125,152.75494049375,61.0,102.0
872,152.39303423125,152.75900685625,57.0,86.0
873,152.39303423125,152.76307321875,64.0,88.0
874,152.88099773125,153.0538181375,64.0,78.0
875,152.88099773125,153.08431585625002,61.0,99.0
876,152.88099773125,153.1188799375,57.0,85.0
877,153.12497948125,153.66580569375,42.0,92.0
878,153.85692473125002,153.92198653125,54.0,73.0
879,153.85692473125002,153.92605289375,42.0,58.0
880,153.61294298125,154.10497284375,57.0,86.0
881,153.61294298125,154.13953692500002,61.0,102.0
882,153.61294298125,154.1598687375,66.0,100.0
883,154.34488823125,154.70272813125,57.0,79.0
884,154.34488823125,154.7128940375,66.0,89.0
885,154.34488823125,154.71492721875,61.0,100.0
886,154.10090648125,154.871482175,54.0,82.0
887,154.10090648125,154.91417898125002,42.0,62.0
888,154.83285173125,154.9975394125,57.0,79.0
889,154.83285173125,154.9975394125,61.0,100.0
890,154.83285173125,155.001605775,66.0,85.0
891,155.07683348125002,155.63189196250002,40.0,89.0
892,155.80877873125002,155.879940075,52.0,66.0
893,155.80877873125002,155.89823870625,47.0,62.0
894,155.56479698125,156.04056139375,59.0,92.0
895,155.56479698125,156.06902593125,68.0,97.0
896,155.56479698125,156.07309229375,64.0,97.0
897,156.29674223125,156.63018395625,59.0,86.0
898,156.29674223125,156.63831668125002,68.0,90.0
899,156.29674223125,156.65051576875,64.0,93.0
900,156.05276048125,156.83756844375,52.0,74.0
901,156.05276048125,156.85586707500002,47.0,74.0
902,156.78470573125,156.9900570375,59.0,88.0
903,156.78470573125,157.00022294375,64.0,92.0
904,156.78470573125,157.00022294375,68.0,95.0
905,157.02868748125002,157.57358005625,40.0,55.0
906,157.02868748125002,157.620343225,52.0,79.0
907,157.02868748125002,157.63457549375002,47.0,72.0
908,157.76063273125,157.86229179375002,52.0,58.0
909,157.76063273125,157.86432497500002,47.0,60.0
910,157.51665098125,158.05137765,59.0,86.0
911,157.51665098125,158.0635767375,64.0,92.0
912,157.51665098125,158.0635767375,68.0,95.0
913,158.24859623125002,158.60643613125,59.0,82.0
914,158.24859623125002,158.612535675,68.0,93.0
915,158.24859623125002,158.6166020375,64.0,89.0
916,158.00461448125,158.72436064375,47.0,79.0
917,158.00461448125,158.74062609375,52.0,70.0
918,158.73655973125,158.95614330625,59.0,83.0
919,158.73655973125,158.96224285,64.0,89.0
920,158.73655973125,158.97850830000002,68.0,89.0
921,158.98054148125001,159.52950041875002,42.0,95.0
922,159.71248673125,159.7877144375,54.0,76.0
923,159.71248673125,159.80601306875002,42.0,67.0
924,159.46850498125002,159.9910325625,57.0,88.0
925,159.46850498125002,159.99306574375,61.0,97.0
926,159.46850498125002,159.99713210625,66.0,92.0
927,159.95646848125,160.41190108125,54.0,72.0
928,160.20045023125002,160.57455558125,66.0,92.0
929,160.20045023125002,160.57862194375,57.0,79.0
930,160.20045023125002,160.58065512500002,61.0,99.0
931,159.95646848125,160.63555101875002,42.0,78.0
932,160.68841373125,160.94459456875,66.0,92.0
933,160.68841373125,160.96492638125,57.0,82.0
934,160.68841373125,160.97102592500002,61.0,100.0
935,160.93239548125,161.50168623125,50.0,58.0
936,161.66434073125,161.75583388750002,50.0,69.0
937,161.42035898125002,161.95711883125,57.0,86.0
938,161.42035898125002,161.96931791875,66.0,90.0
939,161.42035898125002,161.97338428125002,62.0,93.0
940,162.15230423125,162.52844276250002,57.0,74.0
941,162.15230423125,162.53454230625002,66.0,86.0
942,162.15230423125,162.54064185000001,62.0,88.0
943,161.90832248125,162.69719680625002,50.0,65.0
944,162.64026773125002,162.8537517625,62.0,89.0
945,162.64026773125002,162.857818125,57.0,81.0
946,162.64026773125002,162.86391766875002,66.0,86.0
947,162.88424948125,163.48403795000002,52.0,72.0
948,163.37221298125002,163.69955516250002,59.0,86.0
949,163.61619473125,163.73411924375,52.0,83.0
950,163.37221298125002,163.90490646875,68.0,92.0
951,163.37221298125002,163.915072375,64.0,92.0
952,164.10415823125,164.4477658625,59.0,81.0
953,164.10415823125,164.46199813125,64.0,83.0
954,164.10415823125,164.47419721875002,68.0,85.0
955,163.86017648125,164.6714158,52.0,85.0
956,164.59212173125002,164.7242785125,68.0,72.0
957,164.59212173125002,164.7974730375,64.0,92.0
958,164.59212173125002,164.87270074375002,59.0,90.0
959,164.83610348125,165.4562237625,45.0,82.0
960,165.56804873125,165.67377415625,52.0,82.0
961,165.32406698125,165.71037141875001,57.0,85.0
962,165.32406698125,165.7124046,61.0,95.0
963,165.32406698125,165.86082683125,64.0,82.0
964,165.81203048125002,166.32032579375002,52.0,78.0
965,166.05601223125,166.41385213125,61.0,95.0
966,166.05601223125,166.41995167500002,64.0,79.0
967,166.05601223125,166.42198485625002,57.0,78.0
968,166.54397573125001,166.7859243,61.0,93.0
969,166.54397573125001,166.81032247500002,64.0,81.0
970,166.54397573125001,166.81235565625002,57.0,74.0
971,166.78795748125,167.35521505,42.0,89.0
972,167.51990273125,167.58496453125,54.0,79.0
973,167.51990273125,167.5869977125,42.0,60.0
974,167.27592098125,167.6642586,61.0,97.0
975,167.27592098125,167.68255723125,57.0,81.0
976,167.27592098125,167.74761903125,66.0,77.0
977,167.76388448125002,168.20915117500002,42.0,74.0
978,167.76388448125002,168.21931708125,54.0,64.0
979,168.00786623125,168.355540225,61.0,97.0
980,168.00786623125,168.36367295,57.0,79.0
981,168.00786623125,168.39010430625,66.0,92.0
982,168.49582973125,168.70118103750002,61.0,100.0
983,168.49582973125,168.70524740000002,66.0,81.0
984,168.49582973125,168.7418446625,57.0,78.0
985,168.73981148125,169.33959995,45.0,77.0
986,169.47175673125,169.56528306875,52.0,83.0
987,169.22777498125,169.624245325,57.0,88.0
988,169.22777498125,169.63847759375,61.0,100.0
989,169.22777498125,169.75233574375,64.0,85.0
990,169.95972023125,170.2992615,57.0,82.0
991,169.95972023125,170.30942740625,61.0,95.0
992,169.95972023125,170.31552695000002,64.0,86.0
993,169.71573848125,170.60017232500002,52.0,72.0
994,170.44768373125,170.66320094375,61.0,93.0
995,170.44768373125,170.67133366875,57.0,81.0
996,170.44768373125,170.681499575,64.0,85.0
997,170.69166548125,171.2223257875,45.0,82.0
998,171.42361073125,171.5151038875,52.0,92.0
999,171.17962898125,171.59643113750002,57.0,93.0
1000,171.17962898125,171.66149293750001,61.0,99.0
1001,171.17962898125,171.68385793125,64.0,93.0
1002,171.66759248125,171.98680193750002,52.0,85.0
1003,171.91157423125,172.1657218875,57.0,89.0
1004,171.91157423125,172.194186425,61.0,107.0
1005,171.91157423125,172.21451823750002,64.0,93.0
1006,172.15555598125002,172.54592678125002,44.0,96.0
1007,172.39953773125,172.64961902500002,61.0,99.0
1008,172.64351948125,173.16198070000002,42.0,95.0
1009,173.37546473125002,173.446626075,54.0,79.0
1010,173.13148298125,173.44865925625,61.0,112.0
1011,173.13148298125,173.45679198125,57.0,81.0
1012,173.13148298125,173.45679198125,66.0,97.0
1013,173.37546473125002,173.462891525,42.0,77.0
1014,173.61944648125,173.98135274375,54.0,77.0
1015,173.61944648125,174.05454726875,42.0,71.0
1016,173.86342823125,174.19280359375,61.0,107.0
1017,173.86342823125,174.194836775,57.0,88.0
1018,173.86342823125,174.194836775,66.0,96.0
1019,174.10740998125002,174.357491275,54.0,76.0
1020,174.10740998125002,174.3615576375,42.0,48.0
1021,174.35139173125,174.52217895625,61.0,112.0
1022,174.35139173125,174.5282785,57.0,88.0
1023,174.35139173125,174.55877621875,66.0,97.0
1024,174.59537348125002,175.16466423125001,50.0,89.0
1025,175.32731873125002,175.4269446125,50.0,82.0
1026,175.08333698125,175.42897779375002,62.0,90.0
1027,175.08333698125,175.57536684375,66.0,89.0
1028,175.08333698125,175.58756593125,57.0,77.0
1029,175.57130048125,176.07552943125,50.0,88.0
1030,175.81528223125,176.130425325,66.0,90.0
1031,175.81528223125,176.13652486875,62.0,92.0
1032,175.81528223125,176.146690775,57.0,75.0
1033,176.30324573125,176.43540251250002,66.0,81.0
1034,176.30324573125,176.52892885,57.0,77.0
1035,176.30324573125,176.59602383125,62.0,95.0
1036,176.54722748125002,177.1307505,40.0,66.0
1037,177.27917273125001,177.3584668,52.0,63.0
1038,177.27917273125001,177.38489815625002,47.0,51.0
1039,177.03519098125,177.53128720625,59.0,85.0
1040,177.03519098125,177.54551947500002,68.0,93.0
1041,177.03519098125,177.55161901875002,64.0,95.0
1042,177.76713623125002,178.1188765875,59.0,77.0
1043,177.76713623125002,178.12904249375,68.0,77.0
1044,177.76713623125002,178.13717521875,64.0,81.0
1045,177.52315448125,178.1514074875,52.0,61.0
1046,177.52315448125,178.3547256125,47.0,70.0
1047,178.25509973125,178.42995331875,64.0,79.0
1048,178.25509973125,178.43198650000002,59.0,81.0
1049,178.25509973125,178.43198650000002,68.0,74.0
1050,178.49908148125002,179.03177496875,54.0,79.0
1051,178.49908148125002,179.08057131875,42.0,83.0
1052,178.98704498125,179.285922625,61.0,107.0
1053,178.98704498125,179.285922625,66.0,95.0
1054,178.98704498125,179.32658625000002,57.0,88.0
1055,179.23102673125,179.399780775,42.0,93.0
1056,179.47500848125,180.082929675,44.0,112.0
1057,179.96297198125,180.37367459375,52.0,74.0
1058,179.96297198125,180.37977413750002,56.0,97.0
1059,179.96297198125,180.38994004375002,59.0,89.0
1060,180.45093548125,181.04055804375,45.0,70.0
1061,180.93889898125002,181.205245725,57.0,93.0
1062,180.93889898125002,181.21947799375002,61.0,117.0
1063,180.93889898125002,181.24387616875,64.0,96.0
1064,181.18288073125,181.2987720625,52.0,86.0
1065,181.42686248125,181.75217148125,52.0,102.0
1066,181.67084423125002,181.9819209625,61.0,117.0
1067,181.67084423125002,181.985987325,57.0,95.0
1068,181.67084423125002,181.99412005000002,64.0,95.0
1069,182.15880773125002,182.3722917625,61.0,117.0
1070,182.15880773125002,182.376358125,64.0,86.0
1071,182.15880773125002,182.38449085000002,57.0,92.0
1072,182.40278948125,182.9334497875,50.0,95.0
1073,183.13473473125,183.24859288125,50.0,92.0
1074,182.89075298125002,183.3238205875,57.0,95.0
1075,182.89075298125002,183.3441524,62.0,102.0
1076,182.89075298125002,183.35838466875,66.0,102.0
1077,183.62269823125,183.9175095125,59.0,99.0
1078,183.62269823125,183.9175095125,68.0,107.0
1079,183.62269823125,183.9256422375,64.0,97.0
1080,183.37871648125,183.98867085625,52.0,122.0
1081,184.11066173125002,184.32617894375,64.0,117.0
1082,184.11066173125002,184.33837803125002,68.0,112.0
1083,184.11066173125002,184.37904165625,59.0,97.0
1084,184.59862523125,184.6982511125,66.0,33.0
1085,184.84260698125001,185.11911963125002,66.0,122.0
1086,185.08658873125,185.11911963125002,66.0,96.0
1087,184.84260698125001,185.1333519,61.0,127.0
1088,185.08658873125,185.1333519,61.0,92.0
1089,184.84260698125001,185.13538508125,57.0,102.0
1090,185.08658873125,185.13538508125,57.0,90.0
1091,184.35464348125,185.2106127875,42.0,117.0
1092,185.57455223125,185.9181598625,66.0,100.0
1093,185.57455223125,185.93239213125,57.0,95.0
1094,185.57455223125,185.93239213125,61.0,122.0
1095,185.33057048125002,185.99338756875,42.0,66.0
1096,185.33057048125002,186.01778574375,54.0,66.0
1097,186.06251573125002,186.22720341250002,61.0,122.0
1098,186.06251573125002,186.23330295625001,57.0,97.0
1099,186.06251573125002,186.27396658125002,66.0,107.0
1100,186.30649748125,186.78022871250002,49.0,88.0
1101,187.03844273125,187.12790270625,49.0,39.0
1102,186.79446098125,187.14416815625,64.0,107.0
1103,186.79446098125,187.15636724375,68.0,107.0
1104,187.03844273125,187.16043360625,56.0,85.0
1105,186.79446098125,187.21736268125,61.0,112.0
1106,187.28242448125002,187.72972435625002,56.0,93.0
1107,187.28242448125002,187.82731705625,49.0,92.0
1108,187.52640623125,187.84968205,64.0,112.0
1109,187.52640623125,187.85984795625,61.0,102.0
1110,187.52640623125,187.86391431875,68.0,122.0
1111,188.01436973125,188.12416151875001,64.0,93.0
1112,188.01436973125,188.20752195,68.0,117.0
1113,188.01436973125,188.21768785625,61.0,102.0
1114,188.25835148125,188.8296754125,47.0,88.0
1115,188.99029673125,189.159050775,47.0,89.0
1116,188.74631498125,189.18954849375,62.0,122.0
1117,188.74631498125,189.2037807625,66.0,117.0
1118,188.74631498125,189.21597985,59.0,97.0
1119,189.23427848125002,190.021119625,45.0,85.0
1120,189.72224198125002,190.1431105,64.0,102.0
1121,189.72224198125002,190.14514368125,61.0,127.0
1122,189.96622373125,190.19190685,57.0,90.0
1123,190.21020548125,190.78152941250002,44.0,100.0
1124,190.69816898125,190.94011755,52.0,86.0
1125,190.69816898125,190.94418391250002,56.0,96.0
1126,190.69816898125,190.95638300000002,59.0,89.0
1127,190.94215073125,191.0824402375,44.0,107.0
1128,191.43011423125,191.82455139375,54.0,89.0
1129,191.18613248125,191.94654226875002,42.0,100.0
1130,191.67409598125002,192.13766130625,66.0,122.0
1131,191.91807773125,192.1925572,57.0,89.0
1132,191.67409598125002,192.19459038125,61.0,127.0
1133,192.16205948125,192.72728386875002,50.0,93.0
1134,192.89400473125002,192.99566379375,50.0,93.0
1135,192.65002298125,193.02412833125,57.0,90.0
1136,192.65002298125,193.1684842,62.0,99.0
1137,192.65002298125,193.17661692500002,66.0,99.0
1138,193.13798648125,193.55682181875,50.0,95.0
1139,193.38196823125,193.7174431375,57.0,99.0
1140,193.38196823125,193.7215095,62.0,102.0
1141,193.38196823125,193.72760904375002,66.0,107.0
1142,193.86993173125,194.04478531875,62.0,100.0
1143,193.86993173125,194.0508848625,57.0,99.0
1144,193.86993173125,194.07121667500002,66.0,99.0
1145,194.11391348125,194.63440788125,40.0,59.0
1146,194.11391348125,194.67100514375002,52.0,88.0
1147,194.11391348125,194.70353604375,47.0,85.0
1148,194.84585873125002,194.94141825,52.0,85.0
1149,194.84585873125002,194.94955097500002,47.0,88.0
1150,194.60187698125,195.15490228125,59.0,96.0
1151,194.60187698125,195.17523409375002,64.0,112.0
1152,194.60187698125,195.17726727500002,68.0,112.0
1153,195.33382223125,195.68352940625002,59.0,95.0
1154,195.33382223125,195.69572849375,68.0,102.0
1155,195.33382223125,195.69979485625,64.0,100.0
1156,195.08984048125,195.90514616250002,47.0,86.0
1157,195.08984048125,195.91124570625,52.0,85.0
1158,195.82178573125,196.01290476875002,59.0,96.0
1159,195.82178573125,196.0271370375,64.0,102.0
1160,195.82178573125,196.03323658125,68.0,102.0
1161,196.06576748125002,196.69198730625,45.0,97.0
1162,196.79771273125002,196.917670425,52.0,99.0
1163,196.55373098125,197.0518603875,57.0,93.0
1164,196.55373098125,197.07625856250002,61.0,107.0
1165,196.55373098125,197.080324925,64.0,89.0
1166,197.28567623125002,197.63335022500002,57.0,92.0
1167,197.28567623125002,197.649615675,61.0,107.0
1168,197.28567623125002,197.65571521875,64.0,92.0
1169,197.04169448125,197.90173015000002,52.0,99.0
1170,197.77363973125,197.974924675,64.0,86.0
1171,197.77363973125,198.04201965625,57.0,86.0
1172,197.77363973125,198.06438465000002,61.0,107.0
1173,198.26160323125,198.58284586875,57.0,90.0
1174,198.26160323125,198.58487905,66.0,100.0
1175,198.26160323125,198.593011775,62.0,99.0
1176,198.01762148125002,198.7272017375,50.0,96.0
1177,198.74956673125,198.94271895,62.0,96.0
1178,198.74956673125,198.9467853125,57.0,92.0
1179,198.74956673125,198.950851675,66.0,99.0
1180,199.23753023125002,199.34935520000002,59.0,89.0
1181,199.23753023125002,199.35545474375002,68.0,99.0
1182,199.23753023125002,199.36562065,64.0,100.0
1183,198.99354848125,199.52217560625002,52.0,112.0
1184,199.48151198125,199.78242280625,64.0,112.0
1185,199.48151198125,199.812920525,68.0,112.0
1186,199.48151198125,199.98574093125,59.0,100.0
1187,199.96947548125002,200.5326666875,42.0,95.0
1188,200.70142073125,200.73801799375002,42.0,36.0
1189,200.70142073125,200.756316625,54.0,69.0
1190,200.45743898125002,200.95353520625,61.0,117.0
1191,200.45743898125002,200.96166793125002,57.0,96.0
1192,200.45743898125002,200.96980065625002,66.0,99.0
1193,200.94540248125,201.48622869375,54.0,83.0
1194,201.18938423125002,201.52689231875001,57.0,92.0
1195,201.18938423125002,201.5289255,61.0,122.0
1196,201.18938423125002,201.53502504375,66.0,100.0
1197,200.94540248125,201.6468500125,42.0,78.0
1198,201.67734773125002,201.87253313125,61.0,122.0
1199,201.67734773125002,201.88879858125,57.0,96.0
1200,201.67734773125002,201.90913039375002,66.0,99.0
1201,201.92132948125,202.53535021875,49.0,82.0
1202,202.65327473125,202.756966975,49.0,63.0
1203,202.40929298125002,202.91555511250002,64.0,112.0
1204,202.40929298125002,202.9236878375,61.0,112.0
1205,202.40929298125002,202.92572101875,68.0,112.0
1206,202.89725648125,203.2855941,49.0,95.0
1207,203.14123823125001,203.28762728125,64.0,100.0
1208,203.38521998125,203.45028178125,64.0,21.0
1209,203.14123823125001,203.4848458625,68.0,112.0
1210,203.14123823125001,203.48687904375,61.0,102.0
1211,203.62920173125002,203.75525896875,64.0,90.0
1212,203.38521998125,203.7776239625,49.0,100.0
1213,203.62920173125002,203.814221225,68.0,96.0
1214,203.62920173125002,203.85081848750002,61.0,102.0
1215,203.87318348125,204.43434150625,47.0,96.0
1216,204.36114698125002,204.71898688125,66.0,107.0
1217,204.36114698125002,204.72711960625,62.0,97.0
1218,204.60512873125,204.74745141875002,47.0,95.0
1219,204.36114698125002,204.75558414375,59.0,93.0
1220,205.09309223125,205.4448325875,64.0,90.0
1221,205.09309223125,205.45093213125,57.0,92.0
1222,205.09309223125,205.45093213125,61.0,99.0
1223,204.84911048125002,205.5586907375,45.0,86.0
1224,205.58105573125002,205.766075225,61.0,102.0
1225,205.58105573125002,205.77217476875,64.0,89.0
1226,205.58105573125002,205.80267248750002,57.0,90.0
1227,206.06901923125,206.46955593750002,52.0,82.0
1228,206.06901923125,206.47565548125002,59.0,90.0
1229,206.06901923125,206.47768866250001,56.0,95.0
1230,205.82503748125,206.48785456875,44.0,96.0
1231,206.55698273125,206.63627680000002,52.0,81.0
1232,206.55698273125,206.6688077,59.0,88.0
1233,206.55698273125,206.6728740625,56.0,97.0
1234,207.04494623125,207.09780894375,57.0,69.0
1235,207.04494623125,207.099842125,58.0,41.0
1236,207.04494623125,207.27672889375,54.0,37.0
1237,207.04494623125,207.33365796875,61.0,90.0
1238,207.28892798125,207.50444519375,54.0,66.0
1239,206.80096448125002,207.56137426875,42.0,88.0
1240,207.53290973125002,207.717929225,57.0,90.0
1241,207.53290973125002,207.73216149375,61.0,102.0
1242,207.77689148125,208.36448086250002,40.0,92.0
1243,208.50883673125,208.57389853125002,52.0,66.0
1244,208.50883673125,208.59829670625,47.0,75.0
1245,208.26485498125,208.74468575625002,59.0,83.0
1246,208.26485498125,208.75281848125002,64.0,95.0
1247,208.26485498125,208.76501756875,68.0,96.0
1248,208.99680023125,209.3241424125,64.0,95.0
1249,208.99680023125,209.33024195625,59.0,85.0
1250,208.99680023125,209.3322751375,68.0,97.0
1251,208.75281848125002,209.52542735625002,52.0,64.0
1252,208.75281848125002,209.555925075,47.0,76.0
1253,209.48476373125,209.69621458125002,64.0,95.0
1254,209.48476373125,209.7145132125,59.0,85.0
1255,209.48476373125,209.72061275625,68.0,97.0
1256,209.72874548125,210.23704079375,40.0,59.0
1257,209.72874548125,210.271604875,52.0,95.0
1258,209.72874548125,210.2797376,47.0,70.0
1259,210.46069073125,210.5440511625,52.0,79.0
1260,210.46069073125,210.5521838875,47.0,89.0
1261,210.21670898125,210.596913875,59.0,78.0
1262,210.21670898125,210.596913875,64.0,93.0
1263,210.21670898125,210.61521250625,68.0,96.0
1264,210.94865423125,211.296328225,64.0,99.0
1265,210.94865423125,211.30242776875002,59.0,81.0
1266,210.94865423125,211.30242776875002,68.0,97.0
1267,210.70467248125001,211.37562229375,40.0,76.0
1268,210.70467248125001,211.38782138125,47.0,86.0
1269,210.70467248125001,211.41831910000002,52.0,90.0
1270,211.43661773125,211.63383631250002,64.0,95.0
1271,211.43661773125,211.6663672125,59.0,83.0
1272,211.43661773125,211.67246675625,68.0,99.0
1273,211.68059948125,212.27022204375,45.0,70.0
1274,212.16856298125,212.434909725,57.0,93.0
1275,212.16856298125,212.44914199375,61.0,117.0
1276,212.16856298125,212.47354016875002,64.0,96.0
1277,212.41254473125002,212.52843606250002,52.0,86.0
1278,212.65652648125,212.98183548125002,52.0,102.0
1279,212.90050823125,213.2115849625,61.0,117.0
1280,212.90050823125,213.215651325,57.0,95.0
1281,212.90050823125,213.22378405,64.0,95.0
1282,213.38847173125,213.6019557625,61.0,117.0
1283,213.38847173125,213.606022125,64.0,86.0
1284,213.38847173125,213.61415485,57.0,92.0
1285,213.63245348125,214.1631137875,50.0,95.0
1286,214.36439873125002,214.47825688125002,50.0,92.0
1287,214.12041698125,214.5534845875,57.0,95.0
1288,214.12041698125,214.5738164,62.0,102.0
1289,214.12041698125,214.58804866875002,66.0,102.0
1290,214.85236223125,215.14717351250002,59.0,99.0
1291,214.85236223125,215.14717351250002,68.0,107.0
1292,214.85236223125,215.1553062375,64.0,97.0
1293,214.60838048125,215.21833485625,52.0,122.0
1294,215.34032573125,215.55584294375,64.0,117.0
1295,215.34032573125,215.56804203125,68.0,112.0
1296,215.34032573125,215.60870565625,59.0,97.0
1297,215.82828923125,215.92791511250002,66.0,33.0
1298,216.07227098125,216.34878363125,66.0,122.0
1299,216.31625273125002,216.34878363125,66.0,96.0
1300,216.07227098125,216.36301590000002,61.0,127.0
1301,216.31625273125002,216.36301590000002,61.0,92.0
1302,216.07227098125,216.36504908125002,57.0,102.0
1303,216.31625273125002,216.36504908125002,57.0,90.0
1304,215.58430748125002,216.4402767875,42.0,117.0
1305,216.80421623125002,217.14782386250002,66.0,100.0
1306,216.80421623125002,217.16205613125,57.0,95.0
1307,216.80421623125002,217.16205613125,61.0,122.0
1308,216.56023448125,217.22305156875,42.0,66.0
1309,216.56023448125,217.24744974375,54.0,66.0
1310,217.29217973125,217.4568674125,61.0,122.0
1311,217.29217973125,217.46296695625,57.0,97.0
1312,217.29217973125,217.50363058125,66.0,107.0
1313,217.53616148125002,218.0098927125,49.0,88.0
1314,218.26810673125001,218.35756670625,49.0,39.0
1315,218.02412498125,218.37383215625002,64.0,107.0
1316,218.02412498125,218.38603124375,68.0,107.0
1317,218.26810673125001,218.39009760625,56.0,85.0
1318,218.02412498125,218.44702668125,61.0,112.0
1319,218.51208848125,218.95938835625,56.0,93.0
1320,218.51208848125,219.05698105625,49.0,92.0
1321,218.75607023125002,219.07934605,64.0,112.0
1322,218.75607023125002,219.08951195625002,61.0,102.0
1323,218.75607023125002,219.09357831875002,68.0,122.0
1324,219.24403373125,219.35382551875,64.0,93.0
1325,219.24403373125,219.43718595,68.0,117.0
1326,219.24403373125,219.44735185625,61.0,102.0
1327,219.48801548125002,220.0593394125,47.0,88.0
1328,220.21996073125,220.388714775,47.0,89.0
1329,219.97597898125002,220.41921249375002,62.0,122.0
1330,219.97597898125002,220.43344476250002,66.0,117.0
1331,219.97597898125002,220.44564385,59.0,97.0
1332,220.46394248125,221.250783625,45.0,85.0
1333,220.95190598125,221.37277450000002,64.0,102.0
1334,220.95190598125,221.37480768125002,61.0,127.0
1335,221.19588773125,221.42157085000002,57.0,90.0
1336,221.43986948125,222.0111934125,44.0,100.0
1337,221.92783298125002,222.16978155,52.0,86.0
1338,221.92783298125002,222.1738479125,56.0,96.0
1339,221.92783298125002,222.186047,59.0,89.0
1340,222.17181473125,222.31210423750002,44.0,107.0
1341,222.65977823125002,223.05421539375,54.0,89.0
1342,222.41579648125,223.17620626875,42.0,100.0
1343,222.90375998125,223.36732530625002,66.0,122.0
1344,223.14774173125002,223.42222120000002,57.0,89.0
1345,222.90375998125,223.42425438125002,61.0,127.0
1346,223.39172348125,223.95694786875,50.0,93.0
1347,224.12366873125,224.22532779375,50.0,93.0
1348,223.87968698125002,224.25379233125,57.0,90.0
1349,223.87968698125002,224.3981482,62.0,99.0
1350,223.87968698125002,224.406280925,66.0,99.0
1351,224.36765048125002,224.78648581875,50.0,95.0
1352,224.61163223125,224.9471071375,57.0,99.0
1353,224.61163223125,224.9511735,62.0,102.0
1354,224.61163223125,224.95727304375,66.0,107.0
1355,225.09959573125002,225.27444931875002,62.0,100.0
1356,225.09959573125002,225.2805488625,57.0,99.0
1357,225.09959573125002,225.300880675,66.0,99.0
1358,225.34357748125,225.86407188125,40.0,59.0
1359,225.34357748125,225.90066914375,52.0,88.0
1360,225.34357748125,225.93320004375002,47.0,85.0
1361,226.07552273125,226.17108225,52.0,85.0
1362,226.07552273125,226.179214975,47.0,88.0
1363,225.83154098125001,226.38456628125002,59.0,96.0
1364,225.83154098125001,226.40489809375,64.0,112.0
1365,225.83154098125001,226.406931275,68.0,112.0
1366,226.56348623125,226.91319340625,59.0,95.0
1367,226.56348623125,226.92539249375002,68.0,102.0
1368,226.56348623125,226.92945885625002,64.0,100.0
1369,226.31950448125002,227.1348101625,47.0,86.0
1370,226.31950448125002,227.14090970625,52.0,85.0
1371,227.05144973125002,227.24256876875,59.0,96.0
1372,227.05144973125002,227.2568010375,64.0,102.0
1373,227.05144973125002,227.26290058125002,68.0,102.0
1374,227.29543148125,227.92165130625,45.0,97.0
1375,228.02737673125,228.147334425,52.0,99.0
1376,227.78339498125,228.2815243875,57.0,93.0
1377,227.78339498125,228.3059225625,61.0,107.0
1378,227.78339498125,228.309988925,64.0,89.0
1379,228.51534023125,228.863014225,57.0,92.0
1380,228.51534023125,228.87927967500002,61.0,107.0
1381,228.51534023125,228.88537921875002,64.0,92.0
1382,228.27135848125002,229.13139415,52.0,99.0
1383,229.00330373125,229.204588675,64.0,86.0
1384,229.00330373125,229.27168365625002,57.0,86.0
1385,229.00330373125,229.29404865,61.0,107.0
1386,229.49126723125002,229.81250986875,57.0,90.0
1387,229.49126723125002,229.81454305,66.0,100.0
1388,229.49126723125002,229.82267577500002,62.0,99.0
1389,229.24728548125,229.9568657375,50.0,96.0
1390,229.97923073125,230.17238295,62.0,96.0
1391,229.97923073125,230.1764493125,57.0,92.0
1392,229.97923073125,230.180515675,66.0,99.0
1393,230.46719423125,230.5790192,59.0,89.0
1394,230.46719423125,230.58511874375,68.0,99.0
1395,230.46719423125,230.59528465,64.0,100.0
1396,230.22321248125002,230.75183960625,52.0,112.0
1397,230.71117598125002,231.01208680625,64.0,112.0
1398,230.71117598125002,231.04258452500002,68.0,112.0
1399,230.71117598125002,231.21540493125002,59.0,100.0
1400,231.19913948125,231.7623306875,42.0,95.0
1401,231.93108473125002,231.96768199375,42.0,36.0
1402,231.93108473125002,231.98598062500002,54.0,69.0
1403,231.68710298125,232.18319920625,61.0,117.0
1404,231.68710298125,232.19133193125,57.0,96.0
1405,231.68710298125,232.19946465625,66.0,99.0
1406,232.17506648125,232.71589269375002,54.0,83.0
1407,232.41904823125,232.75655631875,57.0,92.0
1408,232.41904823125,232.7585895,61.0,122.0
1409,232.41904823125,232.76468904375002,66.0,100.0
1410,232.17506648125,232.87651401250002,42.0,78.0
1411,232.90701173125,233.10219713125002,61.0,122.0
1412,232.90701173125,233.11846258125001,57.0,96.0
1413,232.90701173125,233.13879439375,66.0,99.0
1414,233.15099348125,233.76501421875,49.0,82.0
1415,233.88293873125002,233.986630975,49.0,63.0
1416,233.63895698125,234.1452191125,64.0,112.0
1417,233.63895698125,234.1533518375,61.0,112.0
1418,233.63895698125,234.15538501875002,68.0,112.0
1419,234.12692048125,234.5152581,49.0,95.0
1420,234.37090223125,234.51729128125,64.0,100.0
1421,234.61488398125002,234.67994578125,64.0,21.0
1422,234.37090223125,234.71450986250002,68.0,112.0
1423,234.37090223125,234.71654304375002,61.0,102.0
1424,234.85886573125,234.98492296875,64.0,90.0
1425,234.61488398125002,235.00728796250002,49.0,100.0
1426,234.85886573125,235.043885225,68.0,96.0
1427,234.85886573125,235.0804824875,61.0,102.0
1428,235.10284748125002,235.66400550625002,47.0,96.0
1429,235.59081098125,235.94865088125002,66.0,107.0
1430,235.59081098125,235.95678360625,62.0,97.0
1431,235.83479273125002,235.97711541875,47.0,95.0
1432,235.59081098125,235.98524814375,59.0,93.0
1433,236.32275623125,236.67449658750002,64.0,90.0
1434,236.32275623125,236.68059613125,57.0,92.0
1435,236.32275623125,236.68059613125,61.0,99.0
1436,236.07877448125,236.78835473750001,45.0,86.0
1437,236.81071973125,236.99573922500002,61.0,102.0
1438,236.81071973125,237.00183876875002,64.0,89.0
1439,236.81071973125,237.0323364875,57.0,90.0
1440,237.29868323125,237.6992199375,52.0,82.0
1441,237.29868323125,237.70531948125,59.0,90.0
1442,237.29868323125,237.7073526625,56.0,95.0
1443,237.05470148125002,237.71751856875002,44.0,96.0
1444,237.78664673125002,237.8659408,52.0,81.0
1445,237.78664673125002,237.89847170000002,59.0,88.0
1446,237.78664673125002,237.9025380625,56.0,97.0
1447,238.27461023125002,238.32747294375002,57.0,69.0
1448,238.27461023125002,238.32950612500002,58.0,41.0
1449,238.27461023125002,238.50639289375002,54.0,37.0
1450,238.27461023125002,238.56332196875002,61.0,90.0
1451,238.51859198125,238.73410919375002,54.0,66.0
1452,238.03062848125,238.79103826875001,42.0,88.0
1453,238.76257373125,238.94759322500002,57.0,90.0
1454,238.76257373125,238.96182549375,61.0,102.0
1455,239.00655548125002,239.5941448625,40.0,92.0
1456,239.73850073125,239.80356253125,52.0,66.0
1457,239.73850073125,239.82796070625002,47.0,75.0
1458,239.49451898125002,239.97434975625,59.0,83.0
1459,239.49451898125002,239.98248248125,64.0,95.0
1460,239.49451898125002,239.99468156875002,68.0,96.0
1461,240.22646423125002,240.55380641250002,64.0,95.0
1462,240.22646423125002,240.55990595625002,59.0,85.0
1463,240.22646423125002,240.56193913750002,68.0,97.0
1464,239.98248248125,240.75509135625,52.0,64.0
1465,239.98248248125,240.78558907500002,47.0,76.0
1466,240.71442773125,240.92587858125,64.0,95.0
1467,240.71442773125,240.94417721250002,59.0,85.0
1468,240.71442773125,240.95027675625002,68.0,97.0
1469,240.95840948125002,241.46670479375,40.0,59.0
1470,240.95840948125002,241.50126887500002,52.0,95.0
1471,240.95840948125002,241.50940160000002,47.0,70.0
1472,241.69035473125,241.77371516250003,52.0,79.0
1473,241.69035473125,241.78184788750002,47.0,89.0
1474,241.44637298125002,241.826577875,59.0,78.0
1475,241.44637298125002,241.826577875,64.0,93.0
1476,241.44637298125002,241.84487650625002,68.0,96.0
1477,242.17831823125002,242.525992225,64.0,99.0
1478,242.17831823125002,242.53209176875,59.0,81.0
1479,242.17831823125002,242.53209176875,68.0,97.0
1480,241.93433648125,242.60528629375,40.0,76.0
1481,241.93433648125,242.61748538125002,47.0,86.0
1482,241.93433648125,242.6479831,52.0,90.0
1483,242.66628173125002,242.8635003125,64.0,95.0
1484,242.66628173125002,242.89603121250002,59.0,83.0
1485,242.66628173125002,242.90213075625002,68.0,99.0
1486,242.91026348125,243.4937865,47.0,107.0
1487,243.64220873125,243.7418346125,47.0,99.0
1488,243.39822698125002,243.87805775625,62.0,100.0
1489,243.39822698125002,243.88822366250002,66.0,102.0
1490,243.39822698125002,243.90042275000002,59.0,92.0
1491,244.13017223125001,244.50021121875002,61.0,107.0
1492,243.88619048125,244.50224440000002,45.0,97.0
1493,244.13017223125001,244.50224440000002,57.0,95.0
1494,244.13017223125001,244.50224440000002,64.0,97.0
1495,244.61813573125002,244.81332113125,61.0,99.0
1496,244.61813573125002,244.819420675,64.0,89.0
1497,244.61813573125002,244.84991839375002,57.0,90.0
1498,244.86211748125,245.43140823125,44.0,97.0
1499,245.35008098125002,245.62659363125002,52.0,83.0
1500,245.35008098125002,245.6408259,56.0,96.0
1501,245.59406273125,245.67335680000002,44.0,102.0
1502,245.35008098125002,245.68148952500002,59.0,92.0
1503,246.08202623125,246.69604696875,54.0,90.0
1504,245.83804448125002,246.7143456,42.0,100.0
1505,246.32600798125,246.72654468750002,61.0,112.0
1506,246.32600798125,246.73671059375002,57.0,88.0
1507,246.79160648750002,248.3856175875,40.0,89.0
1508,246.79363966875002,248.4899653875,56.0,102.0
1509,246.79770603125002,248.49213930000002,52.0,99.0
1510,246.79567285000002,248.5204001625,59.0,99.0
1511,249.05518263750002,252.0160514625,57.0,97.0
1512,249.05518263750002,252.02474711250002,62.0,102.0
1513,249.05518263750002,252.02474711250002,66.0,117.0
1514,249.15518261250003,252.21563068333333,38.0,93.0
1515,252.75796942916668,253.034179125,61.0,96.0
1516,252.27409842916668,253.06845332083336,52.0,82.0
1517,252.51603392916667,253.08256622500002,57.0,72.0
1518,252.02474711250002,253.81845337083334,45.0,96.0
1519,253.48377592916668,253.93538886250002,57.0,67.0
1520,253.24184042916667,253.9656308,52.0,55.0
1521,252.9999049291667,254.01805015833335,64.0,102.0
1522,253.72571142916667,254.050308225,61.0,88.0
1523,254.45151792916667,254.727727625,57.0,93.0
1524,254.2095824291667,254.81643730833335,52.0,83.0
1525,253.96764692916668,254.99184054583336,45.0,83.0
1526,254.69345342916668,255.04022764583334,59.0,100.0
1527,254.93538892916666,255.8305502791667,64.0,96.0
1528,255.17732442916667,255.83861479583334,44.0,99.0
1529,255.66119542916667,255.92329222083333,59.0,72.0
1530,255.41925992916669,255.9434535125,61.0,117.0
1531,256.14506642916666,256.53417935833335,54.0,74.0
1532,256.6289374291667,256.94546970833335,54.0,74.0
1533,256.3870019291667,256.9555503541667,57.0,86.0
1534,255.90313092916668,257.65668808333334,42.0,88.0
1535,257.11400502083336,257.68311085416667,54.0,74.0
1536,257.60181002083334,258.0977451041667,57.0,88.0
1537,257.35790752083335,258.0977451041667,61.0,122.0
1538,256.8708729291667,258.2806719791667,66.0,122.0
1539,258.0896150208334,258.3721354166667,54.0,83.0
1540,257.8457125208334,258.74205420833334,42.0,102.0
1541,258.33351752083337,258.8274200833334,57.0,90.0
1542,258.57742002083336,258.97985914583336,66.0,127.0
1543,259.06522502083334,259.4107535625,57.0,73.0
1544,258.82132252083335,259.71563168750004,40.0,93.0
1545,259.3091275208334,259.77254227083336,66.0,100.0
1546,259.5530300208334,259.87010327083334,57.0,90.0
1547,260.28473752083335,260.8233555416667,50.0,95.0
1548,260.52864002083334,260.8904287291667,57.0,83.0
1549,259.79693252083337,261.5997785,38.0,77.0
1550,260.04083502083336,261.8294533541667,45.0,59.0
1551,261.0164450208334,262.02051031250005,50.0,71.0
1552,261.50425002083335,262.3274209583334,57.0,90.0
1553,260.7725425208334,262.4473396875,66.0,127.0
1554,261.26034752083336,262.50221775000006,62.0,85.0
1555,262.2359575208334,262.8172584791667,50.0,88.0
1556,262.96766502083335,263.2136000416667,50.0,71.0
1557,262.47986002083337,263.22782768750005,57.0,77.0
1558,261.74815252083334,263.50425052083335,38.0,72.0
1559,262.72376252083336,263.5570960625,66.0,127.0
1560,261.9920550208334,263.6871773958334,45.0,63.0
1561,263.21156752083334,263.70953512500006,62.0,85.0
1562,263.4554700208334,263.7501855416667,57.0,86.0
1563,264.18717752083336,264.70343781250006,52.0,86.0
1564,264.43108002083335,264.8274215833334,59.0,83.0
1565,264.9188850208334,265.19124281250004,52.0,90.0
1566,263.6993725208334,265.4087225416667,40.0,86.0
1567,264.67498252083334,265.61807218750005,68.0,127.0
1568,263.94327502083337,265.63026731250005,47.0,53.0
1569,265.40669002083337,265.65059252083336,59.0,82.0
1570,265.1627875208334,265.65059252083336,64.0,77.0
1571,265.65059252083336,266.00425114583334,50.0,88.0
1572,265.65059252083336,266.2278284375,54.0,90.0
1573,265.65059252083336,266.47376345833334,61.0,81.0
1574,265.65059252083336,266.54490168750004,57.0,77.0
1575,266.3823000208334,266.9392107291667,54.0,93.0
1576,266.6262025208334,266.94124325,57.0,74.0
1577,266.87010502083336,267.00425139583336,61.0,55.0
1578,267.11400752083335,267.4005929583334,64.0,85.0
1579,267.6018125208334,267.71766620833336,66.0,66.0
1580,268.0896175208334,268.2034386875,69.0,68.0
1581,266.13839752083334,269.13636575000004,50.0,93.0
1582,265.89449502083335,269.2136015416667,45.0,62.0
1583,269.0652275208334,269.2136015416667,45.0,93.0
1584,265.65059252083336,269.21766658333337,38.0,82.0
1585,268.82132502083334,269.23595927083335,76.0,66.0
1586,269.0652275208334,269.8172602291667,57.0,78.0
1587,269.0652275208334,270.2075042291667,64.0,96.0
1588,269.0652275208334,270.3497806875,61.0,96.0
1589,270.5286425208334,270.5936831875,64.0,70.0
1590,270.28474002083334,270.68717914583334,59.0,71.0
1591,270.5286425208334,270.7501872916667,61.0,70.0
1592,270.7725450208334,271.2196996041667,69.0,72.0
1593,271.01644752083337,271.29083783333334,71.0,55.0
1594,271.26035002083336,271.47986227083334,73.0,78.0
1595,271.74815502083334,272.22376489583337,81.0,58.0
1596,271.9920575208334,272.3497811875,83.0,48.0
1597,272.2359600208334,272.54693570833336,85.0,81.0
1598,272.47986252083336,272.58961864583335,88.0,64.0
1599,272.72376502083335,272.8091308958334,93.0,73.0
1600,270.04083752083335,274.3375865625,57.0,79.0
1601,269.79693502083336,274.39246462500006,52.0,61.0
