,start,end,pitch,velocity
0,23.384791666666665,24.060717829166666,74.0,90.0
1,24.125532666666665,25.228452791666665,76.0,86.0
2,25.250888666666665,26.020118666666665,69.0,78.0
3,26.020118666666665,28.497239385416666,71.0,83.0
4,28.99336566666667,29.2576062875,71.0,76.0
5,29.373112666666668,29.809087491666666,71.0,83.0
6,29.73896566666667,30.10634305416667,72.0,83.0
7,30.104818666666667,30.530122779166668,74.0,84.0
8,30.470671666666668,30.822805179166668,71.0,84.0
9,30.83652466666667,30.975243929166666,69.0,76.0
10,31.202377666666667,31.80755950416667,67.0,86.0
11,31.56823066666667,31.86396184166667,69.0,90.0
12,31.934083666666666,32.129205266666666,71.0,80.0
13,32.11701016666667,33.260300791666666,69.0,83.0
14,34.823422666666666,35.08104415416666,69.0,94.0
15,35.18927566666667,35.58409202916666,69.0,86.0
16,35.55512866666666,35.92098166666666,71.0,86.0
17,35.92098166666666,36.224779266666665,74.0,94.0
18,36.300728666666664,36.670981991666665,71.0,83.0
19,36.680475666666666,37.02383024583333,69.0,83.0
20,37.06022266666666,37.79388505208333,67.0,76.0
21,37.801415166666665,40.48894112916666,69.0,82.0
22,40.701904166666665,40.93029930833333,69.0,84.0
23,41.072274666666665,41.37011427708333,69.0,83.0
24,41.442645166666665,41.79141072083333,71.0,83.0
25,41.813015666666665,42.14789232708333,74.0,84.0
26,42.183386166666665,42.541410983333336,76.0,83.0
27,42.553756666666665,42.82484079166667,74.0,90.0
28,42.91520216666667,43.21038265833333,71.0,82.0
29,43.27664766666666,44.098936179166664,69.0,82.0
30,44.36098416666667,45.049236639583334,71.0,84.0
31,45.083875166666665,45.507049083333335,64.0,83.0
32,45.44532066666667,45.7169257,67.0,83.0
33,45.81569116666667,46.55643216666667,64.0,81.0
34,46.55643216666667,47.794031635416665,62.0,86.0
35,49.896113666666665,50.68033907291667,74.0,90.0
36,50.61039866666666,52.00474251041666,76.0,91.0
37,52.03896866666666,52.51069438541666,69.0,101.0
38,52.57468241666666,53.57424160833333,71.0,82.0
39,55.345847166666665,55.591217622916666,71.0,83.0
40,55.716217666666665,56.12516842708333,71.0,82.0
41,56.086588166666665,56.463056216666665,72.0,81.0
42,56.456958666666665,56.71915331666666,74.0,78.0
43,56.82281166666667,56.92342124166667,71.0,82.0
44,56.82281166666667,56.94018950416667,72.0,81.0
45,57.00573816666667,57.155128141666665,71.0,46.0
46,57.18866466666667,57.60329806666667,69.0,90.0
47,57.55451766666666,57.883785366666665,67.0,93.0
48,57.92037066666666,58.245065204166664,69.0,82.0
49,58.286223666666665,58.557564641666666,71.0,80.0
50,58.469150166666665,59.920367066666664,69.0,80.0
51,61.21304766666667,61.43255946666667,69.0,90.0
52,61.57890066666667,61.902070816666665,69.0,83.0
53,61.944753666666664,62.298411566666665,71.0,90.0
54,62.310606666666665,62.583472029166664,74.0,93.0
55,62.676459666666666,62.955422579166665,71.0,86.0
56,63.04231266666667,63.388348629166664,69.0,81.0
57,63.40816566666667,63.801457641666666,67.0,84.0
58,63.77401866666666,64.06060351666666,69.0,84.0
59,64.13987166666666,64.36700540416666,71.0,82.0
60,64.32279816666667,66.01272751041667,69.0,80.0
61,67.03185366666666,67.26508495416667,69.0,76.0
62,67.39770666666666,67.82910832916666,69.0,82.0
63,67.76355966666667,68.13398582916666,71.0,86.0
64,68.12941266666667,68.39008292916667,74.0,83.0
65,68.49526566666667,68.74526521666667,76.0,83.0
66,68.86111866666666,69.06538659166667,74.0,95.0
67,69.22697166666666,69.55319059166666,71.0,84.0
68,69.59282466666666,69.93428746666666,69.0,86.0
69,70.69038366666666,71.03489524166666,71.0,83.0
70,71.05623666666666,71.50135781666667,69.0,86.0
71,71.60501616666666,72.07300312916666,67.0,84.0
72,72.15379566666667,72.78031892916667,76.0,90.0
73,72.88550166666667,75.80165495416666,74.0,95.0
74,76.17817866666667,76.96476261666666,74.0,99.0
75,76.90988466666667,77.60043220416667,76.0,100.0
76,77.64159066666666,78.13244344166667,78.0,98.0
77,78.19037016666667,79.59128227916666,79.0,96.0
78,79.47085566666667,79.59128227916666,79.0,98.0
79,79.83670866666667,80.22390309166667,79.0,99.0
80,80.38548816666666,80.94951154166667,78.0,98.0
81,80.93426766666667,81.39615707916667,71.0,98.0
82,81.30012066666666,82.82755694166667,74.0,100.0
83,84.22694466666667,84.78182171666667,76.0,93.0
84,84.77572416666666,85.24675990416667,74.0,94.0
85,85.32450366666666,85.69188105416666,72.0,98.0
86,85.69035666666667,86.28791656666667,69.0,90.0
87,86.78791566666666,87.00437869166666,71.0,91.0
88,86.97084216666667,87.14614672916667,72.0,91.0
89,87.15376866666666,87.64004827916666,74.0,86.0
90,87.70254816666667,88.18577900416666,71.0,96.0
91,88.25132766666667,88.64157086666667,69.0,80.0
92,88.61718066666667,89.35345982916667,67.0,91.0
93,89.34888666666666,89.35345982916667,67.0,98.0
94,89.53181316666667,90.06230001666667,79.0,100.0
95,90.08059266666666,90.51809187916666,76.0,95.0
96,92.27571066666667,92.44186890416667,79.0,98.0
97,92.45863716666666,92.94186800416666,81.0,95.0
98,93.00741666666667,95.033779925,74.0,104.0
99,95.02974766666667,95.033779925,74.0,101.0
100,95.51361866666667,95.94910256666667,76.0,98.0
101,95.99748966666667,96.36644130416667,78.0,100.0
102,96.48136066666667,96.59568972916668,79.0,95.0
103,96.66428716666667,96.83044540416667,81.0,90.0
104,96.66428716666667,97.64599271666667,79.0,98.0
105,97.57891966666668,97.64599271666667,79.0,98.0
106,97.94477266666668,98.41275962916667,79.0,98.0
107,98.49355216666667,98.99507565416667,78.0,91.0
108,99.04233166666667,99.49202597916667,71.0,100.0
109,99.40818466666667,100.69934087916667,74.0,98.0
110,102.33500866666668,102.79842246666668,76.0,90.0
111,102.88378816666668,103.42342134166668,74.0,84.0
112,103.43256766666667,103.81366454166667,72.0,106.0
113,103.79842066666667,104.41427321666667,69.0,98.0
114,104.89597966666668,105.14293044166668,71.0,90.0
115,105.07890616666667,105.29384480416668,72.0,90.0
116,105.26183266666668,105.74201472916667,74.0,86.0
117,105.81061216666667,106.41884277916668,71.0,84.0
118,106.35939166666668,106.82280546666668,78.0,95.0
119,106.72524466666667,107.37006057916668,76.0,98.0
120,107.45695066666667,107.85481580416668,76.0,95.0
121,107.82280366666667,108.15969330416668,78.0,99.0
122,108.18865666666667,110.15054337916668,79.0,101.0
123,110.38377466666668,110.52249392916667,79.0,101.0
124,110.56670116666668,111.12157821666668,81.0,93.0
125,111.11548066666668,111.14291964166668,76.0,80.0
126,111.29840716666668,114.03010956666668,74.0,83.0
127,115.87156966666667,116.35632489166667,74.0,90.0
128,116.42034916666668,117.11394547916667,72.0,98.0
129,117.15205516666668,118.02857797916667,71.0,93.0
130,119.16424666666668,119.49046559166668,71.0,83.0
131,119.53009966666667,119.73284320416667,72.0,84.0
132,119.71302616666668,123.32734892916667,71.0,80.0
133,146.23736866666667,147.04072087916668,74.0,90.0
134,146.9690746666667,148.39742575416668,76.0,91.0
135,148.43248666666668,148.91571750416668,69.0,101.0
136,148.98126616666667,149.97516681666667,71.0,82.0
137,151.72516366666667,151.96754127916668,71.0,83.0
138,152.0910166666667,152.49497935416667,71.0,82.0
139,152.45686966666668,152.82882021666668,72.0,81.0
140,152.8227226666667,153.0849173166667,74.0,78.0
141,153.18857566666668,153.3059535041667,72.0,81.0
142,153.3715021666667,153.52089214166668,71.0,46.0
143,153.5544286666667,153.96906206666668,69.0,90.0
144,153.92028166666668,154.24954936666668,67.0,93.0
145,154.28613466666667,154.6108292041667,69.0,82.0
146,154.65198766666668,154.92332864166667,71.0,80.0
147,154.8349141666667,156.28613106666668,69.0,80.0
148,157.5788116666667,157.7983234666667,69.0,90.0
149,157.94466466666668,158.2678348166667,69.0,83.0
150,158.31051766666667,158.6641755666667,71.0,90.0
151,158.67637066666668,158.94923602916668,74.0,93.0
152,159.0422236666667,159.3211865791667,71.0,86.0
153,159.4080766666667,159.75411262916668,69.0,81.0
154,159.77392966666667,160.16722164166669,67.0,84.0
155,160.1397826666667,160.4263675166667,69.0,84.0
156,160.5056356666667,160.73276940416667,71.0,82.0
157,160.68856216666669,162.39740055416667,69.0,80.0
158,163.4324596666667,163.66569095416668,69.0,76.0
159,163.79831266666667,164.22971432916668,69.0,82.0
160,164.1641656666667,164.5345918291667,71.0,86.0
161,164.5300186666667,164.7906889291667,74.0,83.0
162,164.8958716666667,165.1458712166667,76.0,83.0
163,165.26172466666668,165.4659925916667,74.0,95.0
164,165.6275776666667,165.95379659166667,71.0,84.0
165,165.99343066666668,166.3348934666667,69.0,86.0
166,167.0909896666667,167.43550124166669,71.0,83.0
167,167.4568426666667,167.9019638166667,69.0,86.0
168,168.00562216666668,168.47360912916668,67.0,84.0
169,168.5544016666667,169.18092492916668,76.0,90.0
170,169.28610766666668,172.2022609541667,74.0,95.0
171,172.5787846666667,173.36536861666667,74.0,99.0
172,173.31049066666668,174.0010382041667,76.0,100.0
173,174.04219666666668,174.5330494416667,78.0,98.0
174,174.59097616666668,175.9918882791667,79.0,96.0
175,175.87146166666668,175.9918882791667,79.0,98.0
176,176.2373146666667,176.6245090916667,79.0,99.0
177,176.7860941666667,177.3501175416667,78.0,98.0
178,177.33487366666668,177.79676307916668,71.0,98.0
179,177.7007266666667,179.22816294166668,74.0,100.0
180,180.6275506666667,181.1824277166667,76.0,93.0
181,181.17633016666667,181.6473659041667,74.0,94.0
182,181.7251096666667,182.0924870541667,72.0,98.0
183,182.09096266666668,182.68852256666668,69.0,90.0
184,183.1885216666667,183.4049846916667,71.0,91.0
185,183.3714481666667,183.54675272916668,72.0,91.0
186,183.5543746666667,184.0406542791667,74.0,86.0
187,184.10315416666668,184.5863850041667,71.0,96.0
188,184.6519336666667,185.0421768666667,69.0,80.0
189,185.0177866666667,185.75406582916668,67.0,91.0
190,185.7494926666667,185.75406582916668,67.0,98.0
191,185.9324191666667,186.4629060166667,79.0,100.0
192,186.48119866666667,186.9186978791667,76.0,95.0
193,188.6763166666667,188.8424749041667,79.0,98.0
194,188.8592431666667,189.3424740041667,81.0,95.0
195,189.40802266666668,191.2967787916667,74.0,104.0
196,191.29357366666667,191.2967787916667,74.0,101.0
197,191.83124991666668,192.10676016666667,76.0,98.0
198,192.44349491666668,192.67691332291668,78.0,100.0
199,192.74961741666667,192.84528069791668,79.0,95.0
200,192.74961741666667,192.88864805208334,81.0,90.0
201,192.90267866666667,193.88438421666666,79.0,98.0
202,194.00023766666666,194.19231049166666,79.0,98.0
203,194.36609066666668,194.83407762916667,79.0,98.0
204,194.91487016666667,195.41639365416668,78.0,91.0
205,195.46364966666667,195.91334397916668,71.0,100.0
206,195.82950266666668,197.12065887916668,74.0,98.0
207,198.75632666666667,199.21974046666668,76.0,90.0
208,199.30510616666666,199.84473934166667,74.0,84.0
209,199.85388566666668,200.23498254166668,72.0,106.0
210,200.21973866666667,200.83559121666667,69.0,98.0
211,201.31729766666666,201.56424844166668,71.0,90.0
212,201.50022416666667,201.71516280416668,72.0,90.0
213,201.68315066666668,202.16333272916668,74.0,86.0
214,202.23193016666667,202.84016077916667,71.0,84.0
215,202.78070966666667,203.24412346666668,78.0,95.0
216,203.14656266666668,203.7913785791667,76.0,98.0
217,203.87826866666668,204.27613380416668,76.0,95.0
218,204.24412166666667,204.58101130416668,78.0,99.0
219,204.6099746666667,206.57186137916668,79.0,101.0
220,206.80509266666667,206.94381192916669,79.0,101.0
221,206.98801916666667,207.5428962166667,81.0,93.0
222,207.53679866666667,210.45142756666667,74.0,83.0
223,211.92703466666669,212.73343565416667,76.0,95.0
224,212.6587406666667,213.34623942916667,78.0,98.0
225,213.39044666666666,217.3096469291667,79.0,104.0
