,start,end,pitch,velocity
0,2.3010416666666664,2.955362883333333,62.0,74.0
1,2.3010416666666664,2.955362883333333,71.0,78.0
2,2.3010416666666664,2.9615357249999996,67.0,76.0
3,4.077335166666666,4.443150216666667,62.0,75.0
4,4.077335166666666,4.476282720833333,72.0,86.0
5,4.407005666666667,4.657005470833333,71.0,82.0
6,2.3010416666666664,4.962728122916666,55.0,68.0
7,4.768451166666667,5.018450970833333,67.0,80.0
8,5.129896666666666,5.649958577083333,62.0,78.0
9,5.129896666666666,5.703970941666666,67.0,73.0
10,5.129896666666666,5.781131462499999,71.0,84.0
11,6.241008166666666,7.427736977083333,67.0,78.0
12,5.870637666666666,7.48020613125,62.0,55.0
13,7.352119666666667,7.566625914583333,74.0,72.0
14,6.611378666666666,7.602119754166666,71.0,76.0
15,5.129896666666666,7.657675329166667,53.0,79.0
16,8.092860666666667,8.778798166666666,64.0,75.0
17,8.092860666666667,8.825673166666666,67.0,76.0
18,9.217860666666667,9.750673166666667,62.0,69.0
19,8.842860666666667,10.438173166666667,60.0,83.0
20,8.092860666666667,10.555360666666667,48.0,74.0
21,9.592860666666667,10.595985666666667,67.0,75.0
22,8.467860666666667,10.608485666666667,55.0,60.0
23,11.092860666666667,11.461610666666667,66.0,70.0
24,11.092860666666667,11.485048166666667,62.0,51.0
25,11.092860666666667,11.530360666666667,69.0,61.0
26,12.217860666666667,13.391156108333334,74.0,78.0
27,11.842860666666667,13.480644720833334,62.0,68.0
28,11.092860666666667,13.50763335,50.0,58.0
29,11.467860666666667,13.540303795833333,57.0,46.0
30,14.024678666666667,14.602991466666666,67.0,73.0
31,14.024678666666667,14.82738888125,64.0,61.0
32,14.024678666666667,14.883111729166666,72.0,50.0
33,15.109015166666666,16.309122954166668,62.0,71.0
34,15.109015166666666,16.322204341666666,67.0,78.0
35,14.747569666666667,16.471913554166665,60.0,62.0
36,14.386124166666667,16.530053054166665,55.0,68.0
37,16.168134666666667,16.547494904166665,64.0,81.0
38,14.024678666666667,16.554762341666667,48.0,84.0
39,16.865808666666666,17.27720125,61.0,80.0
40,16.865808666666666,17.342074695833332,64.0,67.0
41,16.865808666666666,17.411694979166665,69.0,80.0
42,17.625302666666666,18.172771258333334,61.0,79.0
43,18.005049666666665,18.506820354166667,67.0,77.0
44,18.384796666666666,18.533606041666665,69.0,75.0
45,19.099081666666667,19.163069697916665,73.0,77.0
46,19.099081666666667,19.180926822916668,85.0,78.0
47,16.865808666666666,19.274676729166668,45.0,79.0
48,17.245555666666668,19.657116822916667,57.0,55.0
49,19.813366666666667,20.221104354166666,86.0,69.0
50,19.813366666666667,20.332711385416665,74.0,61.0
51,20.884794166666666,21.231520010416666,67.0,69.0
52,21.241936666666668,21.329734197916665,69.0,75.0
53,21.956221666666664,22.291042760416666,81.0,69.0
54,19.813366666666667,22.862470760416667,50.0,57.0
55,20.170509166666665,22.886280260416665,57.0,59.0
56,20.527651666666667,22.933899260416666,62.0,57.0
57,22.313364166666666,23.002351572916666,79.0,57.0
58,21.599079166666666,23.018720604166667,74.0,57.0
59,22.670506666666668,23.064851510416666,86.0,48.0
60,25.635503666666665,26.031336604166665,67.0,65.0
61,25.635503666666665,26.034541729166666,62.0,53.0
62,25.635503666666665,26.047362229166666,71.0,70.0
63,26.404733666666665,26.843835791666663,69.0,56.0
64,26.789348666666665,26.899925479166665,67.0,57.0
65,26.020118666666665,26.999284354166665,59.0,38.0
66,26.789348666666665,27.269276166666664,71.0,85.0
67,26.789348666666665,27.306776166666666,62.0,54.0
68,25.635503666666665,28.265917604166667,55.0,62.0
69,28.268791166666666,28.464193416666667,64.0,54.0
70,28.268791166666666,28.569078447916667,72.0,63.0
71,28.613618666666667,29.017099854166666,62.0,57.0
72,28.613618666666667,29.053492275,71.0,79.0
73,29.373112666666668,29.89597757916667,62.0,53.0
74,29.73896566666667,30.107867441666667,67.0,74.0
75,28.99336566666667,30.139879579166667,59.0,60.0
76,28.613618666666667,30.30756220416667,55.0,78.0
77,30.104818666666667,30.31061097916667,62.0,50.0
78,30.104818666666667,30.356342604166667,69.0,66.0
79,30.83652466666667,31.170365529166666,64.0,63.0
80,30.83652466666667,31.356340804166667,67.0,81.0
81,31.56823066666667,32.00725426666667,60.0,60.0
82,31.56823066666667,32.33347319166667,69.0,51.0
83,32.29993666666667,32.905118504166666,57.0,50.0
84,32.66578966666667,33.04536215416667,60.0,47.0
85,32.66578966666667,33.22066671666667,67.0,63.0
86,33.21456916666667,33.29078854166667,64.0,18.0
87,31.934083666666666,33.97402272916666,52.0,57.0
88,31.56823066666667,33.98385418541667,45.0,66.0
89,33.763348666666666,34.14655807291666,60.0,72.0
90,34.10042716666666,34.457569666666664,67.0,81.0
91,33.39749566666667,34.47891109166667,57.0,31.0
92,34.457569666666664,34.61305719166666,64.0,60.0
93,34.640496166666665,35.375250941666664,66.0,54.0
94,34.823422666666666,35.55512866666666,57.0,45.0
95,35.18927566666667,35.574945704166666,62.0,60.0
96,35.55512866666666,36.31496917916666,64.0,59.0
97,35.55512866666666,36.33395652916666,69.0,53.0
98,34.457569666666664,36.90832386666666,50.0,79.0
99,36.300728666666664,36.96686819583333,57.0,47.0
100,36.680475666666666,37.045982154166666,60.0,39.0
101,36.680475666666666,37.29756454166666,67.0,85.0
102,37.06022266666666,37.43838738749999,64.0,70.0
103,37.43996966666666,38.147800437499995,60.0,63.0
104,37.43996966666666,38.28183647708333,67.0,72.0
105,37.801415166666665,38.63424583958333,52.0,57.0
106,38.16286066666666,38.664366297916665,57.0,47.0
107,38.52430616666666,38.93846246875,64.0,63.0
108,38.52430616666666,39.09207680625,60.0,60.0
109,39.247197166666666,39.82249792083333,52.0,21.0
110,39.60864266666666,39.91285929583333,55.0,66.0
111,37.43996966666666,39.94749782291666,45.0,60.0
112,39.60864266666666,40.06195556458333,60.0,79.0
113,39.97008816666666,40.32701559791666,64.0,68.0
114,40.331533666666665,40.7235091125,62.0,60.0
115,40.331533666666665,40.792953581249996,66.0,53.0
116,40.701904166666665,41.072274666666665,67.0,79.0
117,40.701904166666665,41.0938796125,64.0,76.0
118,41.072274666666665,41.17412655416666,69.0,77.0
119,40.701904166666665,41.967336708333335,57.0,31.0
120,41.442645166666665,41.99665770625,62.0,50.0
121,41.813015666666665,42.044497229166666,74.0,74.0
122,41.813015666666665,42.100052804166666,69.0,57.0
123,41.813015666666665,42.18955900833333,78.0,74.0
124,42.553756666666665,42.58990121666667,74.0,66.0
125,42.553756666666665,42.612491560416665,69.0,39.0
126,42.183386166666665,42.61550360625,57.0,41.0
127,42.553756666666665,42.63658792708333,79.0,101.0
128,40.331533666666665,42.64562406458333,50.0,68.0
129,43.27664766666666,43.65315339583333,60.0,79.0
130,43.27664766666666,43.6953220375,64.0,69.0
131,44.36098416666667,44.522128618749996,64.0,21.0
132,43.999538666666666,44.57333339791666,57.0,38.0
133,44.36098416666667,44.76761035416666,72.0,68.0
134,43.638093166666664,45.139598014583335,52.0,60.0
135,45.083875166666665,45.46229598125,60.0,63.0
136,45.083875166666665,45.55334539583333,67.0,77.0
137,45.44532066666667,45.60581455,52.0,85.0
138,43.27664766666666,45.64748123125,45.0,70.0
139,46.18606166666667,46.57186427083333,38.0,82.0
140,46.18606166666667,46.93760513958333,57.0,62.0
141,46.55643216666667,46.96846934791667,50.0,47.0
142,46.18606166666667,46.99007429375,62.0,86.0
143,46.18606166666667,47.11816075833333,66.0,63.0
144,48.02468616666667,48.46813810416667,62.0,91.0
145,47.66754366666667,48.706233104166664,60.0,47.0
146,48.381828666666664,48.74641163541666,64.0,81.0
147,48.738971166666666,48.898197197916666,69.0,70.0
148,49.09611366666667,49.77278033333334,74.0,77.0
149,47.29717316666667,49.801113666666666,57.0,57.0
150,48.91754241666667,50.01664926041666,62.0,44.0
151,46.92680266666667,50.22795857291666,52.0,86.0
152,52.21753991666667,52.622301416666666,71.0,91.0
153,52.57468241666666,53.00942659583333,62.0,56.0
154,52.93843891666667,53.31498225833333,67.0,85.0
155,53.123624166666666,53.87671085,69.0,76.0
156,53.864365166666666,54.37825423541666,62.0,69.0
157,54.234735666666666,54.521772804166666,74.0,72.0
158,54.605106166666666,54.710044475,69.0,41.0
159,52.21753991666667,54.77794573333333,55.0,72.0
160,54.605106166666666,55.3674521125,71.0,92.0
161,55.345847166666665,55.77948929375,62.0,63.0
162,55.716217666666665,56.12362521666667,69.0,68.0
163,56.086588166666665,56.56671456666667,67.0,96.0
164,56.456958666666665,56.68561679166667,62.0,68.0
165,56.82281166666667,57.267932816666665,62.0,69.0
166,54.975476666666665,57.505737266666664,55.0,94.0
167,57.18866466666667,57.51488359166667,67.0,96.0
168,57.55451766666666,57.90969995416667,71.0,84.0
169,57.92037066666666,58.38988201666667,72.0,97.0
170,57.92037066666666,58.444759966666666,64.0,45.0
171,58.652076666666666,59.066710066666666,57.0,47.0
172,59.01792966666667,59.216100041666664,60.0,72.0
173,59.01792966666667,59.24201462916667,64.0,90.0
174,59.38378266666667,59.806038004166666,57.0,39.0
175,58.286223666666665,59.807562391666664,52.0,77.0
176,59.74963566666666,60.037744904166665,72.0,94.0
177,59.74963566666666,60.05756194166666,64.0,70.0
178,60.115488666666664,60.363963829166664,52.0,84.0
179,60.298415166666665,60.411219841666664,62.0,68.0
180,60.298415166666665,60.415793004166666,71.0,99.0
181,60.481341666666665,60.56670736666666,52.0,79.0
182,57.92037066666666,60.58957317916666,45.0,81.0
183,60.84719466666667,61.22981592916666,38.0,88.0
184,61.21304766666667,61.59719331666667,50.0,60.0
185,60.84719466666667,61.93560734166667,60.0,74.0
186,60.84719466666667,62.01030232916666,69.0,53.0
187,61.944753666666664,62.35481390416667,55.0,79.0
188,62.310606666666665,62.59109396666667,62.0,72.0
189,62.310606666666665,62.61548416666667,67.0,91.0
190,62.676459666666666,62.784691179166664,55.0,79.0
191,61.57890066666667,62.795361891666666,52.0,81.0
192,62.676459666666666,62.81517892916666,62.0,60.0
193,62.676459666666666,62.89444707916667,66.0,68.0
194,62.676459666666666,62.978288391666666,69.0,68.0
195,63.04231266666667,63.084995516666666,66.0,41.0
196,63.04231266666667,63.19475141666667,62.0,78.0
197,63.04231266666667,63.209995291666665,71.0,96.0
198,63.40816566666667,63.53773860416666,72.0,50.0
199,63.40816566666667,63.540787379166666,74.0,56.0
200,63.77401866666666,64.28926164166667,72.0,72.0
201,63.77401866666666,64.38377366666667,64.0,72.0
202,64.50572466666667,64.94474826666666,57.0,44.0
203,64.87157766666667,65.19017465416667,64.0,88.0
204,64.87157766666667,65.35647816666666,60.0,77.0
205,64.87157766666667,65.41004954166667,67.0,92.0
206,64.13987166666666,65.69725163541666,52.0,82.0
207,65.59457316666666,65.89963238541667,64.0,85.0
208,65.59457316666666,65.96510851041667,57.0,48.0
209,65.59457316666666,66.00379894791666,59.0,65.0
210,65.95171566666667,66.03207272916667,60.0,88.0
211,65.95171566666667,66.06481079166667,67.0,85.0
212,65.95171566666667,66.14070357291666,52.0,94.0
213,63.77401866666666,66.17492972916666,45.0,68.0
214,66.30885816666667,66.65111972916667,67.0,88.0
215,66.66600066666666,67.04404876666666,38.0,72.0
216,67.03185366666666,67.46325532916666,50.0,65.0
217,66.66600066666666,67.75441334166666,66.0,63.0
218,66.66600066666666,67.78032792916666,62.0,72.0
219,68.12941266666667,68.24679050416667,62.0,77.0
220,68.12941266666667,68.27118070416667,69.0,96.0
221,68.12941266666667,68.55928994166666,57.0,59.0
222,68.49526566666667,68.87026499166666,62.0,63.0
223,68.49526566666667,68.91447222916666,72.0,86.0
224,68.86111866666666,69.11111821666667,57.0,60.0
225,67.39770666666666,69.12026454166666,52.0,85.0
226,67.76355966666667,69.20105707916666,54.0,56.0
227,68.86111866666666,69.21630095416666,71.0,91.0
228,69.22697166666666,69.59130027916666,67.0,69.0
229,69.59130027916666,69.83367789166667,64.0,86.0
230,69.59130027916666,69.89008022916666,72.0,97.0
231,69.95867766666666,70.05318969166666,64.0,60.0
232,69.95867766666666,70.12636029166666,71.0,84.0
233,70.14160416666667,70.42971340416666,64.0,82.0
234,70.14160416666667,70.55623756666667,72.0,91.0
235,70.32453066666666,70.62635939166667,57.0,47.0
236,69.59130027916666,70.80166395416666,45.0,88.0
237,70.69038366666666,70.84587119166666,57.0,45.0
238,70.69038366666666,70.88855404166667,67.0,96.0
239,69.95867766666666,71.11111461666667,52.0,50.0
240,71.05623666666666,71.45715057916667,69.0,90.0
241,71.05623666666666,71.48763832916666,64.0,86.0
242,71.05623666666666,71.50745536666666,61.0,81.0
243,71.05623666666666,71.55928454166666,45.0,72.0
244,71.60501616666666,71.81385725416666,61.0,90.0
245,71.60501616666666,71.91751560416667,67.0,97.0
246,71.42208966666666,71.93275947916666,57.0,45.0
247,71.78794266666667,72.15379566666667,49.0,53.0
248,72.15379566666667,72.21172239166667,64.0,79.0
249,72.15379566666667,72.27727105416666,69.0,81.0
250,72.51964866666667,72.77117260416667,62.0,81.0
251,72.51964866666667,72.82300177916666,66.0,99.0
252,72.88550166666667,73.10196469166667,64.0,82.0
253,72.88550166666667,73.16446457916666,67.0,85.0
254,72.88550166666667,73.33062281666666,57.0,47.0
255,73.25135466666666,73.38245199166667,64.0,88.0
256,73.25135466666666,73.44647626666666,69.0,69.0
257,73.25135466666666,73.47696401666667,62.0,66.0
258,72.51964866666667,73.70104897916666,50.0,90.0
259,73.61720766666666,73.86110966666666,57.0,53.0
260,73.80013416666667,73.98306066666666,62.0,92.0
261,73.98306066666666,74.19190175416666,64.0,68.0
262,74.16598716666667,74.28488939166667,66.0,90.0
263,74.34891366666666,74.52879139166666,69.0,82.0
264,74.53184016666667,74.67360820416667,74.0,68.0
265,74.34891366666666,74.76507145416666,57.0,60.0
266,74.71476666666666,74.92055897916666,76.0,90.0
267,74.71476666666666,74.94799795416667,62.0,78.0
268,74.89769316666667,75.03488804166666,78.0,63.0
269,73.98306066666666,75.11263180416667,50.0,84.0
270,75.08061966666666,75.16293659166666,57.0,70.0
271,75.08061966666666,75.35805819166666,74.0,62.0
272,75.26354616666666,75.37939961666666,78.0,63.0
273,75.44647266666666,75.72848435416667,50.0,90.0
274,75.44647266666666,75.75592332916666,69.0,72.0
275,75.44647266666666,75.76811842916666,74.0,86.0
276,75.44647266666666,75.78336230416666,81.0,92.0
277,76.17817866666667,76.26354436666666,74.0,65.0
278,76.17817866666667,76.26506875416666,88.0,84.0
279,76.17817866666667,76.27269069166667,86.0,81.0
280,76.17817866666667,76.32451986666666,50.0,113.0
281,76.54403166666667,76.64006807916667,76.0,84.0
282,76.54403166666667,76.64159246666667,88.0,96.0
283,76.54403166666667,76.68884847916667,50.0,79.0
284,76.90988466666667,77.00439669166667,78.0,77.0
285,76.90988466666667,77.06994535416666,90.0,78.0
286,76.90988466666667,77.07299412916666,50.0,107.0
287,77.27573766666666,77.37787162916666,79.0,88.0
288,77.27573766666666,77.39463989166666,91.0,82.0
289,77.27573766666666,77.39616427916667,50.0,106.0
290,75.44647266666666,77.39768866666667,38.0,85.0
291,77.64159066666666,77.69341984166667,51.0,63.0
292,77.64159066666666,77.73305391666666,81.0,84.0
293,77.64159066666666,77.78488309166667,93.0,99.0
294,77.64159066666666,78.09433375416667,39.0,78.0
295,78.00744366666666,78.11567517916666,84.0,63.0
296,78.00744366666666,78.13091905416667,96.0,77.0
297,78.00744366666666,78.14768731666666,51.0,109.0
298,78.37329666666666,78.44494287916666,83.0,86.0
299,78.37329666666666,78.46323552916667,95.0,90.0
300,78.73914966666666,79.18427081666667,52.0,79.0
301,79.10500266666666,79.32908762916666,59.0,82.0
302,79.10500266666666,79.35957537916667,67.0,97.0
303,79.10500266666666,79.37481925416667,64.0,88.0
304,79.47085566666667,79.70561134166667,59.0,63.0
305,79.47085566666667,79.76963561666666,66.0,105.0
306,79.47085566666667,79.88091590416667,52.0,57.0
307,79.83670866666667,79.89920855416666,64.0,90.0
308,79.83670866666667,79.94036701666667,59.0,94.0
309,79.83670866666667,79.98304986666666,67.0,107.0
310,80.20256166666667,80.48762212916667,52.0,60.0
311,80.38548816666666,80.52115865416667,67.0,96.0
312,80.38548816666666,80.57756099166666,62.0,96.0
313,80.38548816666666,80.84585319166666,71.0,107.0
314,78.37329666666666,80.88548726666667,40.0,106.0
315,80.56841466666667,80.92664572916667,52.0,88.0
316,80.93426766666667,81.03030407916667,69.0,103.0
317,80.93426766666667,81.03640162916666,62.0,79.0
318,81.30012066666666,81.64920540416666,62.0,91.0
319,81.30012066666666,81.66292489166666,66.0,86.0
320,81.30012066666666,81.67816876666666,69.0,90.0
321,81.66597366666666,82.13396062916667,59.0,42.0
322,82.03182666666666,82.22085071666666,62.0,85.0
323,82.03182666666666,82.26505795416666,66.0,70.0
324,82.03182666666666,82.29859447916667,69.0,92.0
325,82.39767966666666,82.48304536666666,59.0,38.0
326,82.39767966666666,82.68426451666667,62.0,81.0
327,82.39767966666666,82.69036206666667,71.0,101.0
328,82.58060616666667,82.74676440416667,59.0,54.0
329,82.76353266666666,82.95865426666666,69.0,101.0
330,82.76353266666666,83.15834902916666,62.0,92.0
331,83.12938566666666,83.31840971666666,59.0,50.0
332,83.31231216666666,83.48304356666667,62.0,103.0
333,83.31231216666666,83.53944590416667,66.0,103.0
334,83.49523866666667,83.70407975416666,59.0,91.0
335,81.30012066666666,83.80164055416667,47.0,86.0
336,83.67816516666667,83.81840881666666,62.0,106.0
337,83.86109166666667,84.08822540416666,66.0,99.0
338,84.04401816666666,84.15834722916667,67.0,107.0
339,84.22694466666667,84.62480980416666,67.0,101.0
340,84.22694466666667,84.65834632916666,64.0,99.0
341,84.59279766666667,85.00590667916666,55.0,85.0
342,84.95865066666667,85.19188195416666,60.0,84.0
343,84.95865066666667,85.22999164166666,62.0,84.0
344,84.95865066666667,85.29249152916667,64.0,79.0
345,84.95865066666667,85.30316224166667,67.0,99.0
346,85.32450366666666,85.39462549166666,55.0,97.0
347,84.22694466666667,85.41444252916666,48.0,85.0
348,85.69035666666667,86.10194129166666,69.0,96.0
349,85.69035666666667,86.10499006666666,62.0,96.0
350,85.69035666666667,86.33974574166666,66.0,94.0
351,86.05620966666666,86.46322112916667,50.0,53.0
352,86.42206266666666,86.54096489166666,69.0,92.0
353,85.69035666666667,86.65986711666666,38.0,97.0
354,86.42206266666666,86.74065965416666,62.0,81.0
355,86.60498916666667,86.84279361666667,50.0,76.0
356,86.78791566666666,87.01352501666666,72.0,88.0
357,87.15376866666666,87.38547556666667,66.0,74.0
358,87.15376866666666,87.39767066666667,62.0,92.0
359,87.15376866666666,87.40224382916666,69.0,94.0
360,87.51962166666667,87.58364594166667,66.0,19.0
361,87.15376866666666,87.74065785416667,59.0,62.0
362,87.70254816666667,88.10651085416666,66.0,88.0
363,87.70254816666667,88.12937666666667,62.0,91.0
364,87.70254816666667,88.16291319166666,74.0,101.0
365,87.15376866666666,88.20102287916666,47.0,74.0
366,87.88547466666667,88.39004692916666,59.0,63.0
367,88.25132766666667,88.47693701666667,69.0,82.0
368,88.43425416666666,88.75285115416666,71.0,86.0
369,88.61718066666667,88.89919235416667,62.0,84.0
370,88.61718066666667,89.01657019166666,67.0,91.0
371,89.16596016666666,89.47845960416666,64.0,72.0
372,89.34888666666666,89.63242274166666,67.0,101.0
373,88.61718066666667,89.67815436666666,52.0,90.0
374,89.53181316666667,89.68120314166666,54.0,2.0
375,88.98303366666667,89.69187385416666,59.0,69.0
376,89.53181316666667,89.77876394166667,69.0,65.0
377,89.89766616666667,90.00742206666666,74.0,77.0
378,89.71473966666667,90.07754389166666,71.0,79.0
379,90.08059266666666,90.51199432916667,67.0,86.0
380,90.08059266666666,90.57906737916667,72.0,90.0
381,90.08059266666666,90.61412829166667,64.0,79.0
382,90.08059266666666,90.94492037916666,57.0,70.0
383,90.81229866666666,91.08668841666666,67.0,99.0
384,90.81229866666666,91.11260300416666,72.0,91.0
385,90.81229866666666,91.20101747916667,64.0,84.0
386,90.08059266666666,91.21778574166666,45.0,63.0
387,91.17815166666666,91.59888261666667,57.0,79.0
388,91.54400466666667,91.90985766666667,67.0,96.0
389,91.54400466666667,91.93119909166667,64.0,74.0
390,91.54400466666667,91.95863806666667,61.0,66.0
391,91.54400466666667,92.04552815416667,69.0,85.0
392,92.27571066666667,92.66290509166666,64.0,86.0
393,92.27571066666667,92.66595386666667,69.0,72.0
394,92.27571066666667,92.68881967916667,67.0,88.0
395,92.27571066666667,92.71320987916667,61.0,63.0
396,92.64156366666667,92.78333170416667,37.0,56.0
397,91.54400466666667,92.78333170416667,49.0,56.0
398,93.00741666666667,93.16607035416668,50.0,65.0
399,93.00741666666667,93.27504460416667,62.0,77.0
400,93.00741666666667,93.49299310416667,66.0,57.0
401,93.39203166666667,93.52985204166667,50.0,31.0
402,93.39203166666667,93.62600579166667,62.0,62.0
403,93.39203166666667,93.73337747916668,67.0,99.0
404,93.77664666666666,93.87440297916667,69.0,81.0
405,93.77664666666666,93.88081322916668,62.0,84.0
406,93.77664666666666,94.00260797916667,50.0,60.0
407,94.16126166666668,94.21574879166667,66.0,39.0
408,94.16126166666668,94.28305641666667,62.0,79.0
409,93.00741666666667,94.30549229166667,38.0,78.0
410,94.16126166666668,94.37279991666666,50.0,76.0
411,94.16126166666668,94.40965885416666,74.0,84.0
412,94.54587666666667,94.622489575,76.0,77.0
413,94.54587666666667,94.66079602916668,64.0,72.0
414,94.54587666666667,94.84426378333333,50.0,65.0
415,94.78781216666667,94.84829604166667,78.0,76.0
416,94.78781216666667,94.87248959166668,66.0,78.0
417,95.02974766666667,95.10434444583333,79.0,82.0
418,95.02974766666667,95.1245057375,67.0,70.0
419,94.54587666666667,95.13458638333334,38.0,96.0
420,95.02974766666667,95.17692509583334,50.0,76.0
421,95.27168316666668,95.36845736666668,69.0,60.0
422,95.27168316666668,95.36845736666668,81.0,91.0
423,95.27168316666668,95.37450575416668,50.0,59.0
424,95.27168316666668,95.40474769166667,38.0,78.0
425,95.51361866666667,95.60434447916667,71.0,63.0
426,95.51361866666667,95.61442512500001,83.0,103.0
427,95.51361866666667,95.7898283625,50.0,76.0
428,95.51361866666667,95.832167075,38.0,79.0
429,95.75555416666667,95.8503122375,72.0,60.0
430,95.75555416666667,95.87047352916667,84.0,94.0
431,95.99748966666667,96.10837677083335,74.0,62.0
432,95.99748966666667,96.1406348375,50.0,86.0
433,95.99748966666667,96.1406348375,86.0,99.0
434,95.99748966666667,96.3039413,38.0,82.0
435,96.23942516666668,96.34426388333334,75.0,41.0
436,96.23942516666668,96.37652195000001,50.0,90.0
437,96.48136066666667,96.62007992916668,88.0,106.0
438,96.48136066666667,96.67495787916667,76.0,81.0
439,96.84721366666668,97.34263960416668,52.0,63.0
440,97.21306666666668,97.51946855416668,55.0,82.0
441,97.21306666666668,97.52709049166667,59.0,81.0
442,97.21306666666668,97.63227322916667,64.0,99.0
443,97.57891966666668,97.92952879166667,52.0,63.0
444,97.94477266666668,98.26489404166668,55.0,77.0
445,97.94477266666668,98.42952789166668,62.0,92.0
446,98.31062566666668,98.53166185416667,52.0,57.0
447,98.49355216666667,98.63684459166667,59.0,86.0
448,98.49355216666667,98.64294214166668,55.0,86.0
449,98.49355216666667,98.67495427916667,64.0,96.0
450,98.67647866666667,98.92647821666668,52.0,65.0
451,96.48136066666667,98.94172209166668,40.0,107.0
452,99.04233166666667,99.30300192916667,66.0,90.0
453,99.40818466666667,99.45086751666668,66.0,30.0
454,99.40818466666667,99.56062341666667,62.0,84.0
455,99.40818466666667,99.57739167916668,67.0,85.0
456,99.77403766666667,100.02708599166668,59.0,45.0
457,99.95696416666668,100.25421972916668,66.0,62.0
458,99.95696416666668,100.34263420416667,62.0,79.0
459,99.95696416666668,100.36092685416668,74.0,90.0
460,100.50574366666667,100.75879199166667,69.0,85.0
461,100.50574366666667,100.85787717916668,62.0,78.0
462,101.05452316666667,101.30147394166667,62.0,70.0
463,101.23744966666668,101.38074209166668,64.0,72.0
464,100.87159666666668,101.46763217916667,59.0,54.0
465,101.42037616666667,101.68561959166668,66.0,68.0
466,101.60330266666668,101.74049754166667,59.0,60.0
467,101.60330266666668,101.74049754166667,62.0,50.0
468,101.60330266666668,101.81824130416668,69.0,56.0
469,101.78622916666667,101.81824130416668,69.0,57.0
470,101.60330266666668,101.88836312916668,67.0,54.0
471,101.78622916666667,101.96915566666668,59.0,59.0
472,101.78622916666667,101.96915566666668,71.0,68.0
473,101.78622916666667,101.98287515416668,62.0,50.0
474,99.40818466666667,102.07891156666668,47.0,91.0
475,102.15208216666667,102.29689897916667,67.0,82.0
476,102.33500866666668,102.64750810416668,67.0,68.0
477,102.33500866666668,102.68409340416667,69.0,69.0
478,102.33500866666668,102.69781289166667,64.0,82.0
479,102.33500866666668,102.73592257916667,62.0,74.0
480,102.33500866666668,103.12159261666667,55.0,91.0
481,102.70086166666667,103.13836087916667,60.0,42.0
482,103.06671466666667,103.22677535416668,69.0,72.0
483,103.06671466666667,103.34872635416667,67.0,94.0
484,102.33500866666668,103.40360430416668,48.0,70.0
485,103.06671466666667,103.42951889166667,64.0,76.0
486,103.06671466666667,103.43256766666667,62.0,68.0
487,103.43256766666667,103.49811632916668,48.0,27.0
488,103.43256766666667,103.50878704166668,55.0,99.0
489,103.79842066666667,104.04079827916668,60.0,77.0
490,103.79842066666667,104.11701765416667,67.0,96.0
491,103.79842066666667,104.25116375416667,64.0,91.0
492,103.79842066666667,104.63530940416668,50.0,60.0
493,104.53012666666667,104.88835772916667,69.0,91.0
494,104.53012666666667,104.88988211666668,66.0,57.0
495,103.79842066666667,104.91274792916667,38.0,69.0
496,104.53012666666667,104.92341864166667,62.0,81.0
497,104.89597966666668,105.04689402916668,50.0,81.0
498,105.26183266666668,105.69018555416667,62.0,53.0
499,105.26183266666668,105.70542942916667,74.0,68.0
500,105.26183266666668,105.72677085416667,66.0,56.0
501,105.26183266666668,105.83500236666667,59.0,54.0
502,105.26183266666668,106.15359935416667,47.0,77.0
503,105.81061216666667,106.23439189166668,62.0,97.0
504,105.81061216666667,106.25878209166667,71.0,90.0
505,105.99353866666668,106.33805024166668,59.0,54.0
506,106.35939166666668,106.67646426666667,69.0,84.0
507,106.72524466666667,107.01182951666668,62.0,90.0
508,106.72524466666667,107.22067060416667,67.0,94.0
509,107.45695066666667,107.66579175416668,64.0,66.0
510,107.45695066666667,107.71457215416667,67.0,79.0
511,106.72524466666667,107.72524286666668,59.0,68.0
512,106.72524466666667,107.78621836666667,52.0,82.0
513,107.63987716666668,107.88377916666667,69.0,66.0
514,107.82280366666667,108.02859597916668,71.0,78.0
515,108.00573016666668,108.09871780416668,74.0,86.0
516,108.18865666666667,108.74810687916667,64.0,91.0
517,108.18865666666667,108.78164340416667,69.0,88.0
518,108.18865666666667,108.78469217916668,60.0,82.0
519,108.18865666666667,109.11548426666667,57.0,65.0
520,108.18865666666667,109.20542312916668,45.0,63.0
521,108.92036266666668,109.32737412916667,60.0,78.0
522,108.92036266666668,109.35023994166667,64.0,92.0
523,108.92036266666668,109.38530085416667,69.0,91.0
524,109.28621566666668,109.38834962916667,57.0,54.0
525,109.28621566666668,109.40206911666668,45.0,39.0
526,109.65206866666668,110.00115340416667,67.0,69.0
527,109.65206866666668,110.22066520416668,64.0,101.0
528,109.65206866666668,110.25115295416668,61.0,69.0
529,109.65206866666668,110.25725050416668,69.0,91.0
530,109.65206866666668,110.61243279166668,49.0,50.0
531,110.38377466666668,110.77706664166668,64.0,103.0
532,110.38377466666668,110.81365194166668,61.0,57.0
533,109.65206866666668,110.83042020416667,37.0,81.0
534,110.38377466666668,110.84566407916668,69.0,85.0
535,110.74962766666668,110.87005427916668,49.0,69.0
536,111.11548066666668,111.31365104166667,69.0,81.0
537,111.11548066666668,111.36395582916668,62.0,82.0
538,111.11548066666668,111.46304101666668,66.0,72.0
539,111.11548066666668,111.50724825416668,50.0,59.0
540,111.48133366666667,111.86090615416668,67.0,85.0
541,111.84718666666667,111.86090615416668,67.0,63.0
542,111.48133366666667,111.89444267916667,64.0,70.0
543,111.84718666666667,111.91730849166667,62.0,82.0
544,111.66426016666668,111.93255236666667,50.0,60.0
545,111.84718666666667,111.95694256666668,69.0,68.0
546,112.21303966666667,112.31669801666668,71.0,47.0
547,112.21303966666667,112.34566137916667,83.0,56.0
548,112.03011316666668,112.39444177916667,50.0,23.0
549,112.57889266666668,112.66120959166668,73.0,47.0
550,112.57889266666668,112.72218509166667,85.0,68.0
551,112.94474566666668,113.05297717916667,74.0,79.0
552,112.94474566666668,113.08498931666668,86.0,65.0
553,112.57889266666668,113.15206236666668,50.0,42.0
554,113.31059866666668,113.38376926666668,76.0,79.0
555,113.31059866666668,113.41578140416668,88.0,99.0
556,113.31059866666668,113.53315924166668,50.0,47.0
557,113.67645166666668,113.74047594166667,78.0,56.0
558,111.11548066666668,113.79078072916667,38.0,84.0
559,113.67645166666668,113.79078072916667,90.0,68.0
560,113.67645166666668,113.84260990416668,50.0,53.0
561,114.04230466666668,114.11699965416668,81.0,68.0
562,114.04230466666668,114.12309720416667,93.0,82.0
563,114.04230466666668,114.12614597916668,38.0,79.0
564,114.04230466666668,114.12767036666668,50.0,92.0
565,122.09107066666668,122.73283780416668,67.0,79.0
566,122.09107066666668,123.42490972916667,62.0,77.0
567,122.82277666666668,123.70387264166668,55.0,53.0
568,122.09107066666668,123.95692096666667,66.0,48.0
569,123.18862966666669,124.20082296666668,67.0,84.0
570,123.92033566666669,124.56972474166668,55.0,57.0
571,122.09107066666668,124.57734667916668,43.0,74.0
572,122.45692366666668,124.59106616666668,50.0,70.0
573,122.09107066666668,124.61698075416668,59.0,59.0
574,123.55448266666667,124.64137095416667,62.0,72.0
575,124.28618866666667,124.66728554166667,66.0,77.0
576,125.01789466666668,125.31819900416667,55.0,63.0
577,125.01789466666668,125.43252806666668,60.0,70.0
578,124.65204166666668,125.47521091666668,67.0,94.0
579,125.01789466666668,125.50569866666667,64.0,77.0
580,125.38374766666668,126.33648985416667,55.0,60.0
581,125.74960066666668,126.34411179166668,60.0,41.0
582,126.11545366666668,126.49350176666668,62.0,63.0
583,126.11545366666668,127.03161055416668,67.0,88.0
584,125.01789466666668,127.47673170416668,48.0,66.0
585,126.84715966666668,127.48587802916668,55.0,59.0
586,127.21301266666669,127.66423136666668,60.0,69.0
587,127.21301266666669,127.78465797916668,67.0,90.0
588,127.94471866666669,128.28923024166667,64.0,60.0
589,127.94471866666669,128.39441297916667,55.0,65.0
590,127.94471866666669,128.63526620416667,60.0,70.0
591,127.94471866666669,128.75416842916667,67.0,74.0
592,128.31057166666668,129.5651425791667,52.0,60.0
593,129.04227766666668,129.92032486666668,67.0,74.0
594,129.04227766666668,129.94471506666667,60.0,72.0
595,128.67642466666666,130.0026417916667,57.0,34.0
596,130.13983666666667,130.1855682916667,60.0,38.0
597,130.13983666666667,130.27855592916669,64.0,82.0
598,127.94471866666669,130.47520191666666,45.0,74.0
599,129.77398366666668,130.47520191666666,52.0,63.0
600,130.50568966666668,130.6322138291667,66.0,47.0
601,130.87154266666667,131.1291641541667,66.0,45.0
602,130.87154266666667,131.31971259166667,67.0,88.0
603,130.87154266666667,131.32123697916668,62.0,68.0
604,130.87154266666667,131.39745635416668,59.0,56.0
605,131.23739566666669,131.65355345416668,66.0,56.0
606,131.60324866666667,131.85324821666669,67.0,81.0
607,131.23739566666669,132.01940645416667,50.0,45.0
608,131.9691016666667,132.19471101666667,55.0,63.0
609,131.9691016666667,132.40812526666667,57.0,50.0
610,131.9691016666667,132.4416617916667,62.0,60.0
611,132.51788116666668,132.7251978666667,55.0,53.0
612,132.7008076666667,132.77092949166666,58.0,48.0
613,132.7008076666667,132.90202681666668,59.0,56.0
614,132.88373416666667,133.1062947416667,62.0,84.0
615,133.06666066666668,133.30294072916666,67.0,96.0
616,130.87154266666667,133.31513582916668,43.0,63.0
617,133.24958716666669,133.34257480416667,66.0,34.0
618,132.33495466666668,133.3440991916667,50.0,68.0
619,133.06666066666668,133.38525765416668,55.0,66.0
620,133.4325136666667,133.71604974166667,66.0,72.0
621,133.79836666666668,134.20385374166668,69.0,76.0
622,133.79836666666668,134.23586587916668,62.0,69.0
623,133.79836666666668,134.2587316916667,66.0,48.0
624,134.16421966666667,134.6215359166667,59.0,65.0
625,134.53007266666668,134.7069016166667,62.0,74.0
626,134.53007266666668,134.72214549166668,66.0,60.0
627,134.53007266666668,134.7724502791667,74.0,90.0
628,134.89592566666667,135.1535471541667,59.0,42.0
629,135.2617786666667,135.3425712041667,78.0,48.0
630,135.2617786666667,135.3639126291667,90.0,70.0
631,135.2617786666667,135.45690026666668,59.0,44.0
632,135.62763166666667,135.70232665416668,86.0,91.0
633,135.62763166666667,135.71147297916667,74.0,72.0
634,135.62763166666667,135.98586272916668,59.0,42.0
635,135.9934846666667,136.0849479166667,83.0,101.0
636,135.9934846666667,136.09714301666668,71.0,81.0
637,133.79836666666668,136.41574000416668,47.0,81.0
638,136.35933766666668,136.49500815416667,59.0,54.0
639,136.7251906666667,137.24500680416668,62.0,79.0
640,136.7251906666667,137.2495799666667,67.0,86.0
641,136.7251906666667,137.2678726166667,71.0,96.0
642,137.4568966666667,137.7297620291667,62.0,78.0
643,137.4568966666667,137.8761032291667,69.0,91.0
644,137.09104366666668,137.88220077916668,59.0,65.0
645,137.82274966666668,138.28768785416668,62.0,53.0
646,137.82274966666668,138.41421201666668,67.0,82.0
647,138.18860266666667,138.5026264916667,59.0,82.0
648,138.37152916666668,138.59256535416668,66.0,69.0
649,138.55445566666668,138.85323561666667,67.0,79.0
650,138.7373821666667,138.9294549916667,62.0,60.0
651,138.9203086666667,139.12610097916667,59.0,60.0
652,136.7251906666667,139.16116189166667,52.0,91.0
653,139.10323516666668,139.1931740291667,57.0,41.0
654,139.10323516666668,139.21451545416667,55.0,63.0
655,139.65201466666667,139.77701444166667,52.0,54.0
656,139.65201466666667,139.9965262416667,61.0,31.0
657,139.65201466666667,140.02701399166668,55.0,47.0
658,139.65201466666667,140.1687820291667,67.0,72.0
659,140.0178676666667,140.5925617541667,52.0,53.0
660,140.38372066666668,140.7876833541667,61.0,88.0
661,140.38372066666668,140.80445161666668,55.0,90.0
662,140.38372066666668,140.98585372916668,67.0,91.0
663,140.7495736666667,141.10780472916667,52.0,85.0
664,139.65201466666667,141.1443900291667,45.0,72.0
665,141.11542666666668,141.53158445416668,64.0,88.0
666,141.4812796666667,141.63981596666667,67.0,69.0
667,141.11542666666668,141.91268132916667,55.0,82.0
668,141.4812796666667,142.11542486666667,61.0,57.0
669,141.84713266666668,142.17944914166668,49.0,39.0
670,141.84713266666668,142.17944914166668,67.0,94.0
671,141.84713266666668,142.19164424166667,37.0,42.0
672,142.57883866666668,142.66877752916668,38.0,51.0
673,142.57883866666668,142.71450915416668,50.0,57.0
674,142.9446916666667,143.5346296291667,50.0,3.0
675,142.57883866666668,143.54987350416667,62.0,63.0
676,142.57883866666668,143.6611537916667,66.0,35.0
677,142.57883866666668,143.66267817916668,69.0,77.0
678,143.85932416666668,144.06816525416667,64.0,60.0
679,144.0422506666667,144.16572605416667,66.0,72.0
680,144.2251771666667,144.43706702916668,69.0,68.0
681,144.40810366666668,144.62609107916668,74.0,60.0
682,144.59103016666668,144.7983468666667,76.0,86.0
683,144.7739566666667,144.82883461666668,78.0,45.0
684,143.67639766666667,144.83950532916668,62.0,70.0
685,144.95688316666667,145.0437732541667,81.0,44.0
686,145.13980966666668,145.4248701291667,86.0,53.0
687,145.3227361666667,145.57273571666667,90.0,34.0
688,145.5056626666667,145.6108454041667,93.0,70.0
689,143.49347116666667,146.2648076416667,59.0,56.0
690,143.3105446666667,146.2831002916667,57.0,42.0
691,148.43248666666668,148.8471200666667,71.0,91.0
692,148.7983396666667,149.23431449166668,62.0,56.0
693,149.16419266666668,149.5361432166667,67.0,85.0
694,149.5300456666667,150.27394676666668,69.0,76.0
695,150.26175166666667,150.7693727041667,62.0,69.0
696,150.62760466666668,150.91114074166669,74.0,72.0
697,148.43248666666668,150.9812625666667,55.0,72.0
698,150.9934576666667,151.0971160166667,69.0,41.0
699,150.9934576666667,151.74650509166668,71.0,92.0
700,151.72516366666667,152.15351655416669,62.0,63.0
701,152.0910166666667,152.4934549666667,69.0,68.0
702,152.45686966666668,152.93247856666667,67.0,96.0
703,152.8227226666667,153.05138079166667,62.0,68.0
704,153.18857566666668,153.63369681666668,62.0,69.0
705,151.3593106666667,153.87150126666668,55.0,94.0
706,153.5544286666667,153.88064759166667,67.0,96.0
707,153.92028166666668,154.2754639541667,71.0,84.0
708,154.28613466666667,154.75564601666667,72.0,97.0
709,154.28613466666667,154.8105239666667,64.0,45.0
710,155.0178406666667,155.43247406666669,57.0,47.0
711,155.3836936666667,155.58186404166668,60.0,72.0
712,155.3836936666667,155.6077786291667,64.0,90.0
713,155.74954666666667,156.1718020041667,57.0,39.0
714,154.65198766666668,156.17332639166668,52.0,77.0
715,156.1153996666667,156.4035089041667,72.0,94.0
716,156.1153996666667,156.4233259416667,64.0,70.0
717,156.48125266666668,156.72972782916668,52.0,84.0
718,156.66417916666668,156.7769838416667,62.0,68.0
719,156.66417916666668,156.7815570041667,71.0,99.0
720,156.8471056666667,156.93247136666668,52.0,79.0
721,154.28613466666667,156.9553371791667,45.0,81.0
722,157.21295866666668,157.5955799291667,38.0,88.0
723,157.5788116666667,157.9629573166667,50.0,60.0
724,157.21295866666668,158.30137134166668,60.0,74.0
725,157.21295866666668,158.3760663291667,69.0,53.0
726,158.31051766666667,158.7205779041667,55.0,79.0
727,158.67637066666668,158.9568579666667,62.0,72.0
728,158.67637066666668,158.9812481666667,67.0,91.0
729,159.0422236666667,159.15045517916667,55.0,79.0
730,157.94466466666668,159.1611258916667,52.0,81.0
731,159.0422236666667,159.1809429291667,62.0,60.0
732,159.0422236666667,159.26021107916668,66.0,68.0
733,159.0422236666667,159.34405239166668,69.0,68.0
734,159.4080766666667,159.4507595166667,66.0,41.0
735,159.4080766666667,159.56051541666668,62.0,78.0
736,159.4080766666667,159.57575929166669,71.0,96.0
737,159.77392966666667,159.90350260416668,72.0,50.0
738,159.77392966666667,159.90655137916667,74.0,56.0
739,160.1397826666667,160.65502564166667,72.0,72.0
740,160.1397826666667,160.7495376666667,64.0,72.0
741,160.87148866666666,161.3105122666667,57.0,44.0
742,161.23734166666668,161.55593865416668,64.0,88.0
743,161.23734166666668,161.7251456666667,60.0,77.0
744,161.23734166666668,161.78002361666668,67.0,92.0
745,160.5056356666667,162.07423040416668,52.0,82.0
746,161.96904766666668,162.2815471041667,64.0,85.0
747,161.96904766666668,162.34862015416667,57.0,48.0
748,161.96904766666668,162.3882542291667,59.0,65.0
749,162.33490066666667,162.41721759166668,60.0,88.0
750,162.33490066666667,162.4507541166667,67.0,85.0
751,162.33490066666667,162.52849787916668,52.0,94.0
752,160.1397826666667,162.56355879166668,45.0,68.0
753,162.70075366666669,163.0513627916667,67.0,88.0
754,163.0666066666667,163.4446547666667,38.0,72.0
755,163.4324596666667,163.8638613291667,50.0,65.0
756,163.0666066666667,164.15501934166667,66.0,63.0
757,163.0666066666667,164.18093392916668,62.0,72.0
758,164.5300186666667,164.6473965041667,62.0,77.0
759,164.5300186666667,164.6717867041667,69.0,96.0
760,164.5300186666667,164.95989594166667,57.0,59.0
761,164.8958716666667,165.2708709916667,62.0,63.0
762,164.8958716666667,165.3150782291667,72.0,86.0
763,165.26172466666668,165.5117242166667,57.0,60.0
764,163.79831266666667,165.52087054166668,52.0,85.0
765,164.1641656666667,165.60166307916668,54.0,56.0
766,165.26172466666668,165.61690695416667,71.0,91.0
767,165.6275776666667,165.9919062791667,67.0,69.0
768,165.99343066666668,166.23428389166668,64.0,86.0
769,165.99343066666668,166.29068622916668,72.0,97.0
770,166.35928366666667,166.4537956916667,64.0,60.0
771,166.35928366666667,166.52696629166667,71.0,84.0
772,166.54221016666668,166.8303194041667,64.0,82.0
773,166.54221016666668,166.9568435666667,72.0,91.0
774,166.72513666666669,167.0269653916667,57.0,47.0
775,165.99343066666668,167.2022699541667,45.0,88.0
776,167.0909896666667,167.24647719166668,57.0,45.0
777,167.0909896666667,167.2891600416667,67.0,96.0
778,166.35928366666667,167.5117206166667,52.0,50.0
779,167.4568426666667,167.85775657916668,69.0,90.0
780,167.4568426666667,167.8882443291667,64.0,86.0
781,167.4568426666667,167.9080613666667,61.0,81.0
782,167.4568426666667,167.95989054166668,45.0,72.0
783,168.00562216666668,168.21446325416667,61.0,90.0
784,168.00562216666668,168.3181216041667,67.0,97.0
785,167.82269566666668,168.33336547916667,57.0,45.0
786,168.1885486666667,168.5544016666667,49.0,53.0
787,168.5544016666667,168.6123283916667,64.0,79.0
788,168.5544016666667,168.6778770541667,69.0,81.0
789,168.9202546666667,169.1717786041667,62.0,81.0
790,168.9202546666667,169.22360777916668,66.0,99.0
791,169.28610766666668,169.50257069166668,64.0,82.0
792,169.28610766666668,169.56507057916667,67.0,85.0
793,169.28610766666668,169.7312288166667,57.0,47.0
794,169.6519606666667,169.78305799166668,64.0,88.0
795,169.6519606666667,169.8470822666667,69.0,69.0
796,169.6519606666667,169.87757001666668,62.0,66.0
797,168.9202546666667,170.10165497916668,50.0,90.0
798,170.01781366666668,170.2617156666667,57.0,53.0
799,170.2007401666667,170.38366666666667,62.0,92.0
800,170.38366666666667,170.5925077541667,64.0,68.0
801,170.56659316666668,170.68549539166668,66.0,90.0
802,170.74951966666669,170.92939739166667,69.0,82.0
803,170.9324461666667,171.0742142041667,74.0,68.0
804,170.74951966666669,171.16567745416668,57.0,60.0
805,171.1153726666667,171.32116497916667,76.0,90.0
806,171.1153726666667,171.3486039541667,62.0,78.0
807,171.29829916666668,171.4354940416667,78.0,63.0
808,170.38366666666667,171.5132378041667,50.0,84.0
809,171.4812256666667,171.5635425916667,57.0,70.0
810,171.4812256666667,171.7586641916667,74.0,62.0
811,171.66415216666667,171.7800056166667,78.0,63.0
812,171.84707866666668,172.1290903541667,50.0,90.0
813,171.84707866666668,172.1565293291667,69.0,72.0
814,171.84707866666668,172.16872442916667,74.0,86.0
815,171.84707866666668,172.18396830416668,81.0,92.0
816,172.5787846666667,172.6641503666667,74.0,65.0
817,172.5787846666667,172.66567475416667,88.0,84.0
818,172.5787846666667,172.67329669166668,86.0,81.0
819,172.5787846666667,172.7251258666667,50.0,113.0
820,172.9446376666667,173.0406740791667,76.0,84.0
821,172.9446376666667,173.0421984666667,88.0,96.0
822,172.9446376666667,173.0894544791667,50.0,79.0
823,173.31049066666668,173.40500269166668,78.0,77.0
824,173.31049066666668,173.47055135416667,90.0,78.0
825,173.31049066666668,173.4736001291667,50.0,107.0
826,173.6763436666667,173.77847762916667,79.0,88.0
827,173.6763436666667,173.7952458916667,91.0,82.0
828,173.6763436666667,173.7967702791667,50.0,106.0
829,171.84707866666668,173.7982946666667,38.0,85.0
830,174.04219666666668,174.09402584166668,51.0,63.0
831,174.04219666666668,174.1336599166667,81.0,84.0
832,174.04219666666668,174.18548909166668,93.0,99.0
833,174.04219666666668,174.4949397541667,39.0,78.0
834,174.40804966666667,174.5162811791667,84.0,63.0
835,174.40804966666667,174.5315250541667,96.0,77.0
836,174.40804966666667,174.54829331666667,51.0,109.0
837,174.7739026666667,174.8455488791667,83.0,86.0
838,174.7739026666667,174.86384152916668,95.0,90.0
839,175.1397556666667,175.58487681666668,52.0,79.0
840,175.5056086666667,175.7296936291667,59.0,82.0
841,175.5056086666667,175.76018137916668,67.0,97.0
842,175.5056086666667,175.7754252541667,64.0,88.0
843,175.87146166666668,176.1062173416667,59.0,63.0
844,175.87146166666668,176.1702416166667,66.0,105.0
845,175.87146166666668,176.2815219041667,52.0,57.0
846,176.2373146666667,176.2998145541667,64.0,90.0
847,176.2373146666667,176.34097301666668,59.0,94.0
848,176.2373146666667,176.3836558666667,67.0,107.0
849,176.6031676666667,176.8882281291667,52.0,60.0
850,176.7860941666667,176.92176465416668,67.0,96.0
851,176.7860941666667,176.97816699166668,62.0,96.0
852,176.7860941666667,177.2464591916667,71.0,107.0
853,174.7739026666667,177.28609326666668,40.0,106.0
854,176.9690206666667,177.32725172916668,52.0,88.0
855,177.33487366666668,177.4309100791667,69.0,103.0
856,177.33487366666668,177.4370076291667,62.0,79.0
857,177.7007266666667,178.0498114041667,62.0,91.0
858,177.7007266666667,178.0635308916667,66.0,86.0
859,177.7007266666667,178.0787747666667,69.0,90.0
860,178.06657966666668,178.5345666291667,59.0,42.0
861,178.43243266666667,178.62145671666667,62.0,85.0
862,178.43243266666667,178.6656639541667,66.0,70.0
863,178.43243266666667,178.69920047916668,69.0,92.0
864,178.7982856666667,178.8836513666667,59.0,38.0
865,178.7982856666667,179.08487051666668,62.0,81.0
866,178.7982856666667,179.09096806666668,71.0,101.0
867,178.9812121666667,179.14737040416668,59.0,54.0
868,179.1641386666667,179.3592602666667,69.0,101.0
869,179.1641386666667,179.55895502916667,62.0,92.0
870,179.5299916666667,179.7190157166667,59.0,50.0
871,179.71291816666667,179.8836495666667,62.0,103.0
872,179.71291816666667,179.9400519041667,66.0,103.0
873,179.89584466666668,180.1046857541667,59.0,91.0
874,177.7007266666667,180.2022465541667,47.0,86.0
875,180.07877116666668,180.2190148166667,62.0,106.0
876,180.2616976666667,180.4888314041667,66.0,99.0
877,180.4446241666667,180.5589532291667,67.0,107.0
878,180.6275506666667,181.0254158041667,67.0,101.0
879,180.6275506666667,181.0589523291667,64.0,99.0
880,180.9934036666667,181.4065126791667,55.0,85.0
881,181.35925666666668,181.5924879541667,60.0,84.0
882,181.35925666666668,181.63059764166667,62.0,84.0
883,181.35925666666668,181.6930975291667,64.0,79.0
884,181.35925666666668,181.7037682416667,67.0,99.0
885,181.7251096666667,181.7952314916667,55.0,97.0
886,180.6275506666667,181.8150485291667,48.0,85.0
887,182.09096266666668,182.5025472916667,69.0,96.0
888,182.09096266666668,182.50559606666667,62.0,96.0
889,182.09096266666668,182.7403517416667,66.0,94.0
890,182.45681566666667,182.86382712916668,50.0,53.0
891,182.8226686666667,182.9415708916667,69.0,92.0
892,182.09096266666668,183.06047311666669,38.0,97.0
893,182.8226686666667,183.1412656541667,62.0,81.0
894,183.0055951666667,183.2433996166667,50.0,76.0
895,183.1885216666667,183.4141310166667,72.0,88.0
896,183.5543746666667,183.7860815666667,66.0,74.0
897,183.5543746666667,183.7982766666667,62.0,92.0
898,183.5543746666667,183.8028498291667,69.0,94.0
899,183.92022766666668,183.98425194166668,66.0,19.0
900,183.5543746666667,184.1412638541667,59.0,62.0
901,184.10315416666668,184.5071168541667,66.0,88.0
902,184.10315416666668,184.52998266666668,62.0,91.0
903,184.10315416666668,184.56351919166667,74.0,101.0
904,183.5543746666667,184.6016288791667,47.0,74.0
905,184.2860806666667,184.7906529291667,59.0,63.0
906,184.6519336666667,184.8775430166667,69.0,82.0
907,184.8348601666667,185.1534571541667,71.0,86.0
908,185.0177866666667,185.29979835416668,62.0,84.0
909,185.0177866666667,185.41717619166667,67.0,91.0
910,185.5665661666667,185.87906560416667,64.0,72.0
911,185.7494926666667,186.03302874166667,67.0,101.0
912,185.0177866666667,186.0787603666667,52.0,90.0
913,185.9324191666667,186.0818091416667,54.0,2.0
914,185.38363966666668,186.0924798541667,59.0,69.0
915,185.9324191666667,186.1793699416667,69.0,65.0
916,186.2982721666667,186.4080280666667,74.0,77.0
917,186.11534566666668,186.4781498916667,71.0,79.0
918,186.48119866666667,186.9126003291667,67.0,86.0
919,186.48119866666667,186.97967337916668,72.0,90.0
920,186.48119866666667,187.01473429166668,64.0,79.0
921,186.48119866666667,187.3455263791667,57.0,70.0
922,187.2129046666667,187.48729441666669,67.0,99.0
923,187.2129046666667,187.5132090041667,72.0,91.0
924,187.2129046666667,187.60162347916668,64.0,84.0
925,186.48119866666667,187.6183917416667,45.0,63.0
926,187.5787576666667,187.9994886166667,57.0,79.0
927,187.94461066666668,188.3104636666667,67.0,96.0
928,187.94461066666668,188.3318050916667,64.0,74.0
929,187.94461066666668,188.3592440666667,61.0,66.0
930,187.94461066666668,188.44613415416669,69.0,85.0
931,188.6763166666667,189.0635110916667,64.0,86.0
932,188.6763166666667,189.0665598666667,69.0,72.0
933,188.6763166666667,189.0894256791667,67.0,88.0
934,188.6763166666667,189.11381587916668,61.0,63.0
935,189.0421696666667,189.18393770416668,37.0,56.0
936,187.94461066666668,189.18393770416668,49.0,56.0
937,189.40802266666668,189.6000954916667,69.0,79.0
938,189.40802266666668,189.64277834166668,62.0,83.0
939,189.40802266666668,189.6686929291667,66.0,84.0
940,189.40802266666668,189.8241804541667,50.0,90.0
941,189.9568021666667,190.13515550416668,50.0,68.0
942,189.7738756666667,190.14774147916668,67.0,81.0
943,189.7738756666667,190.1974209166667,64.0,84.0
944,190.13972866666668,190.21985679166667,62.0,90.0
945,190.13972866666668,190.2599208541667,69.0,93.0
946,190.33203616666668,190.56120260416668,50.0,61.0
947,190.52434366666668,190.62690766666668,71.0,81.0
948,190.52434366666668,190.64774097916668,83.0,73.0
949,190.90895866666668,191.00831754166668,74.0,77.0
950,190.90895866666668,191.0259457291667,86.0,93.0
951,190.90895866666668,191.08844566666667,50.0,72.0
952,191.29357366666667,191.3528684791667,76.0,72.0
953,191.29357366666667,191.3737017916667,88.0,95.0
954,191.29357366666667,191.4394068541667,50.0,78.0
955,191.83124991666668,191.92308666666668,76.0,84.0
956,191.83124991666668,191.94349483333335,88.0,96.0
957,191.83124991666668,192.00471933333333,50.0,86.0
958,192.29043366666667,192.39502552083334,78.0,94.0
959,192.29043366666667,192.39502552083334,90.0,94.0
960,192.29043366666667,192.40267858333334,50.0,98.0
961,189.40802266666668,192.42946430208335,38.0,90.0
962,192.90267866666667,193.04139792916666,91.0,106.0
963,192.90267866666667,193.09627587916668,76.0,81.0
964,193.26853166666666,193.76395760416668,52.0,63.0
965,193.63438466666668,193.94078655416666,55.0,82.0
966,193.63438466666668,193.94840849166667,59.0,81.0
967,193.63438466666668,194.05359122916667,64.0,99.0
968,194.00023766666666,194.35084679166667,52.0,63.0
969,194.36609066666668,194.68621204166666,55.0,77.0
970,194.36609066666668,194.85084589166667,62.0,92.0
971,194.73194366666667,194.95297985416667,52.0,57.0
972,194.91487016666667,195.05816259166667,59.0,86.0
973,194.91487016666667,195.06426014166667,55.0,86.0
974,194.91487016666667,195.09627227916667,64.0,96.0
975,195.09779666666668,195.34779621666667,52.0,65.0
976,192.90267866666667,195.36304009166668,40.0,107.0
977,195.46364966666667,195.72431992916668,66.0,90.0
978,195.82950266666668,195.98194141666667,62.0,84.0
979,195.82950266666668,195.99870967916667,67.0,85.0
980,196.19535566666667,196.44840399166668,59.0,45.0
981,196.37828216666668,196.67553772916668,66.0,62.0
982,196.37828216666668,196.76395220416669,62.0,79.0
983,196.37828216666668,196.78224485416666,74.0,90.0
984,196.92706166666667,197.18010999166668,69.0,85.0
985,196.92706166666667,197.27919517916666,62.0,78.0
986,197.47584116666667,197.72279194166669,62.0,70.0
987,197.65876766666668,197.80206009166668,64.0,72.0
988,197.29291466666666,197.88895017916667,59.0,54.0
989,197.84169416666668,198.10693759166668,66.0,68.0
990,198.02462066666666,198.16181554166667,59.0,60.0
991,198.02462066666666,198.16181554166667,62.0,50.0
992,198.02462066666666,198.23955930416668,69.0,56.0
993,198.20754716666667,198.23955930416668,69.0,57.0
994,198.02462066666666,198.30968112916668,67.0,54.0
995,198.20754716666667,198.39047366666668,59.0,59.0
996,198.20754716666667,198.39047366666668,71.0,68.0
997,198.20754716666667,198.40419315416668,62.0,50.0
998,195.82950266666668,198.50022956666666,47.0,91.0
999,198.5734001666667,198.71821697916667,67.0,82.0
1000,198.75632666666667,199.06882610416667,67.0,68.0
1001,198.75632666666667,199.1054114041667,69.0,69.0
1002,198.75632666666667,199.11913089166669,64.0,82.0
1003,198.75632666666667,199.15724057916668,62.0,74.0
1004,198.75632666666667,199.5429106166667,55.0,91.0
1005,199.12217966666668,199.55967887916668,60.0,42.0
1006,199.48803266666667,199.64809335416666,69.0,72.0
1007,199.48803266666667,199.77004435416669,67.0,94.0
1008,198.75632666666667,199.82492230416668,48.0,70.0
1009,199.48803266666667,199.8508368916667,64.0,76.0
1010,199.48803266666667,199.85388566666668,62.0,68.0
1011,199.85388566666668,199.91943432916668,48.0,27.0
1012,199.85388566666668,199.93010504166668,55.0,99.0
1013,200.21973866666667,200.46211627916668,60.0,77.0
1014,200.21973866666667,200.53833565416667,67.0,96.0
1015,200.21973866666667,200.67248175416668,64.0,91.0
1016,200.21973866666667,201.05662740416668,50.0,60.0
1017,200.95144466666667,201.30967572916668,69.0,91.0
1018,200.95144466666667,201.31120011666667,66.0,57.0
1019,200.21973866666667,201.33406592916668,38.0,69.0
1020,200.95144466666667,201.34473664166669,62.0,81.0
1021,201.31729766666666,201.46821202916666,50.0,81.0
1022,201.68315066666668,202.1115035541667,62.0,53.0
1023,201.68315066666668,202.12674742916667,74.0,68.0
1024,201.68315066666668,202.14808885416667,66.0,56.0
1025,201.68315066666668,202.25632036666667,59.0,54.0
1026,201.68315066666668,202.57491735416667,47.0,77.0
1027,202.23193016666667,202.65570989166667,62.0,97.0
1028,202.23193016666667,202.68010009166667,71.0,90.0
1029,202.41485666666668,202.75936824166666,59.0,54.0
1030,202.78070966666667,203.09778226666668,69.0,84.0
1031,203.14656266666668,203.43314751666668,62.0,90.0
1032,203.14656266666668,203.64198860416667,67.0,94.0
1033,203.87826866666668,204.08710975416668,64.0,66.0
1034,203.87826866666668,204.13589015416667,67.0,79.0
1035,203.14656266666668,204.14656086666668,59.0,68.0
1036,203.14656266666668,204.2075363666667,52.0,82.0
1037,204.06119516666666,204.30509716666668,69.0,66.0
1038,204.24412166666667,204.44991397916667,71.0,78.0
1039,204.42704816666668,204.52003580416667,74.0,86.0
1040,204.6099746666667,205.16942487916668,64.0,91.0
1041,204.6099746666667,205.20296140416667,69.0,88.0
1042,204.6099746666667,205.20601017916667,60.0,82.0
1043,204.6099746666667,205.53680226666668,57.0,65.0
1044,204.6099746666667,205.62674112916667,45.0,63.0
1045,205.34168066666666,205.74869212916667,60.0,78.0
1046,205.34168066666666,205.77155794166669,64.0,92.0
1047,205.34168066666666,205.8066188541667,69.0,91.0
1048,205.70753366666668,205.80966762916668,57.0,54.0
1049,205.70753366666668,205.82338711666668,45.0,39.0
1050,206.07338666666666,206.42247140416669,67.0,69.0
1051,206.07338666666666,206.64198320416668,64.0,101.0
1052,206.07338666666666,206.67247095416667,61.0,69.0
1053,206.07338666666666,206.67856850416666,69.0,91.0
1054,206.07338666666666,207.03375079166668,49.0,50.0
1055,206.80509266666667,207.19838464166668,64.0,103.0
1056,206.80509266666667,207.2349699416667,61.0,57.0
1057,206.07338666666666,207.25173820416668,37.0,81.0
1058,206.80509266666667,207.26698207916667,69.0,85.0
1059,207.17094566666668,207.29137227916667,49.0,69.0
1060,207.53679866666667,207.7349690416667,69.0,81.0
1061,207.53679866666667,207.78527382916667,62.0,82.0
1062,207.53679866666667,207.88435901666668,66.0,72.0
1063,207.53679866666667,207.92856625416667,50.0,59.0
1064,207.90265166666669,208.28222415416667,67.0,85.0
1065,208.26850466666667,208.28222415416667,67.0,63.0
1066,207.90265166666669,208.3157606791667,64.0,70.0
1067,208.26850466666667,208.33862649166667,62.0,82.0
1068,208.08557816666666,208.35387036666668,50.0,60.0
1069,208.26850466666667,208.37826056666668,69.0,68.0
1070,208.6343576666667,208.73801601666668,71.0,47.0
1071,208.6343576666667,208.76697937916668,83.0,56.0
1072,208.45143116666668,208.81575977916668,50.0,23.0
1073,209.00021066666667,209.0825275916667,73.0,47.0
1074,209.00021066666667,209.14350309166667,85.0,68.0
1075,209.36606366666666,209.4742951791667,74.0,79.0
1076,209.36606366666666,209.50630731666666,86.0,65.0
1077,209.00021066666667,209.57338036666667,50.0,42.0
1078,209.73191666666668,209.80508726666667,76.0,79.0
1079,209.73191666666668,209.83709940416668,88.0,99.0
1080,209.73191666666668,209.95447724166667,50.0,47.0
1081,210.09776966666666,210.16179394166667,78.0,56.0
1082,207.53679866666667,210.21209872916668,38.0,84.0
1083,210.09776966666666,210.21209872916668,90.0,68.0
1084,210.09776966666666,210.26392790416668,50.0,53.0
1085,210.46362266666668,210.5383176541667,81.0,68.0
1086,210.46362266666668,210.54441520416668,93.0,82.0
1087,210.46362266666668,210.54746397916668,38.0,79.0
1088,210.46362266666668,210.54898836666666,50.0,92.0
1089,212.6587406666667,212.9072158291667,66.0,84.0
1090,212.6587406666667,212.91941092916667,69.0,83.0
1091,212.6587406666667,212.9209353166667,42.0,81.0
1092,212.6587406666667,212.9209353166667,62.0,78.0
1093,213.39044666666666,213.78373864166667,67.0,84.0
1094,213.39044666666666,213.79440935416667,71.0,94.0
1095,213.39044666666666,213.80508006666668,62.0,84.0
1096,213.93922616666669,214.22885979166668,62.0,78.0
1097,213.93922616666669,214.44532281666667,69.0,82.0
1098,214.48800566666668,214.74562715416667,62.0,78.0
1099,214.48800566666668,214.7517247041667,71.0,86.0
1100,214.85385866666667,214.88891957916667,62.0,54.0
1101,214.85385866666667,214.94989507916668,67.0,79.0
1102,214.85385866666667,214.99562670416668,74.0,84.0
1103,215.21971166666668,215.3218456291667,88.0,90.0
1104,215.21971166666668,215.33404072916667,76.0,69.0
1105,215.76849116666668,215.85690564166669,78.0,75.0
1106,215.76849116666668,215.8919665541667,90.0,94.0
1107,213.39044666666666,215.9239786916667,55.0,81.0
1108,216.31727066666667,216.39806320416668,79.0,76.0
1109,216.31727066666667,216.4102583041667,91.0,90.0
1110,216.31727066666667,216.60537990416668,55.0,77.0
1111,216.86605016666667,216.9666597416667,81.0,79.0
1112,216.86605016666667,217.0123913666667,93.0,94.0
1113,216.86605016666667,217.0337327916667,55.0,71.0
1114,217.96360916666669,218.49409601666667,83.0,59.0
1115,217.96360916666669,219.21208252916668,95.0,82.0
1116,217.96360916666669,219.29897261666667,55.0,84.0
1117,213.39044666666666,220.09775166666668,43.0,86.0
