,start,end,pitch,velocity
0,28.2334104375,28.7447735625,75.0,66.0
1,28.7788644375,29.355000225,77.0,66.0
2,29.3243184375,29.8970451375,80.0,93.0
3,29.8697724375,30.4061355375,82.0,85.0
4,30.415226437500003,31.67545245,77.0,96.0
5,32.5970424375,32.909542125,84.0,97.0
6,33.1424964375,33.48454155,84.0,97.0
7,33.6879504375,33.9743137875,84.0,90.0
8,33.9606774375,34.282268025,82.0,62.0
9,34.2334044375,34.4902223625,80.0,75.0
10,34.5061314375,34.75726755,75.0,63.0
11,34.778858437500006,36.2799933,77.0,66.0
12,36.9606744375,37.559537475,75.0,87.0
13,37.5061284375,38.034537,77.0,90.0
14,38.0515824375,38.6470363875,80.0,91.0
15,38.5970364375,39.1333995375,82.0,72.0
16,39.1424904375,40.418625525,77.0,76.0
17,41.4606699375,41.9163513,84.0,95.0
18,41.869760437500005,42.3708963,82.0,85.0
19,42.4152144375,42.759532275,84.0,90.0
20,42.6879414375,43.0152138375,82.0,64.0
21,42.960668437500004,43.195895475,80.0,66.0
22,43.2333954375,43.5083951625,75.0,66.0
23,43.5061224375,45.0743026875,77.0,73.0
24,47.869754437500006,48.31407217500001,72.0,77.0
25,48.4152084375,48.950435175,72.0,81.0
26,48.960662437500005,49.50012802500001,75.0,79.0
27,49.503506406250004,50.010263593750004,72.0,65.0
28,50.04404740625001,51.17017448958334,77.0,84.0
29,51.125129406250004,51.723102887500005,80.0,101.0
30,52.206211406250006,52.605044400000004,77.0,100.0
31,52.749362437500004,53.31072551250001,77.0,92.0
32,53.2948164375,53.864134050000004,80.0,103.0
33,53.8402704375,54.11754288750001,77.0,89.0
34,54.112997437500006,54.416406225,80.0,95.0
35,54.38572443750001,55.480041525000004,82.0,93.0
36,56.56754043750001,57.01640362500001,75.0,96.0
37,57.11299443750001,57.584584875000004,77.0,90.0
38,57.658448437500006,58.21412970000001,80.0,83.0
39,58.203902437500005,58.578902062500006,77.0,71.0
40,58.749356437500005,59.02208343750001,72.0,84.0
41,59.02208343750001,60.177764100000005,70.0,65.0
42,59.840264437500004,60.24821857500001,72.0,96.0
43,60.3857184375,60.760718062500004,72.0,89.0
44,60.93117243750001,61.481171887500004,75.0,94.0
45,61.4766264375,61.9766259375,77.0,100.0
46,62.02208043750001,62.5902616875,80.0,101.0
47,62.56753443750001,62.820943275000005,82.0,90.0
48,62.840261437500004,63.115261162500005,75.0,90.0
49,63.11298843750001,64.49594160000001,77.0,100.0
50,66.3857124375,66.79162343541667,84.0,97.0
51,66.93382534375,67.48428434375,84.0,98.0
52,67.48428434375,68.19185351666667,82.0,99.0
53,68.58520234375001,69.02442275416666,82.0,105.0
54,69.13566134375,69.47739431250001,84.0,105.0
55,69.6782870625,70.16489394583334,80.0,103.0
56,70.2140010625,70.59234907500002,77.0,98.0
57,70.74971506250002,71.16600948333334,84.0,99.0
58,71.28542906250001,71.80440200000001,84.0,106.0
59,71.82114306250001,72.44044045,82.0,105.0
60,72.9074854375,73.42566673750001,82.0,108.0
61,73.4529394375,73.9961207125,84.0,99.0
62,73.9983934375,74.5074838375,80.0,108.0
63,74.5438474375,75.9711187375,77.0,96.0
64,85.45292743750001,85.9051997125,80.0,100.0
65,85.9983814375,86.5904263,80.0,100.0
66,86.54383543750001,87.097243975,77.0,95.0
67,87.0892894375,87.99042490000001,82.0,108.0
68,88.1801974375,88.45974261250001,80.0,103.0
69,88.4529244375,88.9961057125,82.0,97.0
70,88.99837843750001,89.9267866,84.0,106.0
71,90.3620134375,90.7824675625,82.0,99.0
72,90.9074674375,91.3688306125,82.0,97.0
73,91.45292143750001,91.77678475,80.0,97.0
74,91.9983754375,92.1165571375,80.0,97.0
75,92.2711024375,92.5722385,80.0,86.0
76,92.54382943750001,92.8165564375,82.0,86.0
77,92.8165564375,93.160874275,84.0,93.0
78,93.0892834375,93.3597377125,82.0,93.0
79,93.3620104375,93.6722374,80.0,87.0
80,93.63473743750001,93.842691775,84.0,103.0
81,93.90746443750001,94.6813273,84.0,105.0
82,94.7256454375,95.00405425,84.0,105.0
83,94.99837243750001,95.28473578750001,82.0,80.0
84,95.2710994375,95.49496285000001,80.0,90.0
85,95.5438264375,95.77564438750001,75.0,82.0
86,95.8165534375,96.865416025,77.0,93.0
87,96.9074614375,97.2210974875,84.0,108.0
88,97.18018843750001,97.47450632500001,82.0,94.0
89,97.4529154375,97.7074606375,80.0,97.0
90,97.7256424375,97.9915512625,75.0,89.0
91,97.9983694375,98.70745963750001,77.0,101.0
92,99.0892774375,99.34609536250001,84.0,109.0
93,99.3620044375,99.69950410000001,82.0,91.0
94,99.63473143750001,99.842685775,80.0,97.0
95,99.9074584375,100.206321775,75.0,87.0
96,100.1801854375,102.2267743,77.0,101.0
97,111.0892654375,111.6006285625,75.0,66.0
98,111.6347194375,112.210855225,77.0,66.0
99,112.1801734375,112.751763775,80.0,93.0
100,112.72562743750001,113.2619905375,82.0,85.0
101,113.27108143750002,114.53130745000001,77.0,96.0
102,115.45289743750001,115.7665334875,84.0,97.0
103,115.9983514375,116.34039655000001,84.0,97.0
104,116.5438054375,116.83016878750001,84.0,90.0
105,116.8165324375,117.138123025,82.0,62.0
106,117.0892594375,117.344941,80.0,75.0
107,117.36198643750001,117.61312255000001,75.0,63.0
108,117.63471343750001,119.1369846625,77.0,66.0
109,119.81652943750001,120.4142561125,75.0,87.0
110,120.36198343750002,120.890392,77.0,90.0
111,120.90743743750001,121.50402775,80.0,91.0
112,121.4528914375,121.98811817500001,82.0,72.0
113,121.9983454375,123.274480525,77.0,76.0
114,124.1801614375,124.59834283750001,84.0,95.0
115,124.72561543750001,125.30856940000001,82.0,85.0
116,125.27106943750002,125.615387275,84.0,90.0
117,125.5437964375,125.8710688375,82.0,64.0
118,125.81652343750001,126.051750475,80.0,66.0
119,126.0892504375,126.365386525,75.0,66.0
120,126.3619774375,127.92620081250001,77.0,73.0
121,129.6003070625,129.99894564791668,84.0,97.0
122,130.13858540625,130.67912640625002,84.0,98.0
123,130.67912640625002,131.3739468166667,82.0,99.0
124,131.76020840625,132.19151507916666,82.0,105.0
125,132.30074940625002,132.63858753125,84.0,105.0
126,132.84129040625,133.33444148750002,80.0,103.0
127,133.38444143750002,133.769668325,77.0,98.0
128,133.92989543750002,134.35375865,84.0,99.0
129,134.4753494375,135.003758,84.0,106.0
130,135.0208034375,135.64466645000002,82.0,105.0
131,136.11171143750002,136.6298927375,82.0,108.0
132,136.6571654375,137.20034671250002,84.0,99.0
133,137.2026194375,137.71170983750002,80.0,108.0
134,137.7480734375,139.17648110000002,77.0,96.0
135,148.6571534375,149.1094257125,80.0,100.0
136,149.2026074375,149.79465230000002,80.0,100.0
137,149.7480614375,150.301469975,77.0,95.0
138,150.29351543750002,151.1946509,82.0,108.0
139,151.3844234375,151.6639686125,80.0,103.0
140,151.6571504375,152.2003317125,82.0,97.0
141,152.2026044375,153.13101260000002,84.0,106.0
142,153.5662394375,153.9616935875,82.0,99.0
143,154.1116934375,154.57419297500002,82.0,97.0
144,154.65714743750002,154.98101075000002,80.0,97.0
145,155.20260143750002,155.3207831375,80.0,97.0
146,155.47532843750002,155.7764645,80.0,86.0
147,155.7480554375,156.0207824375,82.0,86.0
148,156.0207824375,156.365100275,84.0,93.0
149,156.2935094375,156.56396371250003,82.0,93.0
150,156.5662364375,156.8764634,80.0,87.0
151,156.8389634375,157.046917775,84.0,103.0
152,157.11169043750002,157.88555330000003,84.0,105.0
153,157.92987143750003,158.20828025,84.0,105.0
154,158.2025984375,158.48896178750002,82.0,80.0
155,158.4753254375,158.69918885,80.0,90.0
156,158.7480524375,158.9798703875,75.0,82.0
157,159.0207794375,160.069642025,77.0,93.0
158,160.11168743750002,160.4253234875,84.0,108.0
159,160.38441443750003,160.678732325,82.0,94.0
160,160.6571414375,160.9116866375,80.0,97.0
161,160.9298684375,161.1957772625,75.0,89.0
162,161.2025954375,161.9116856375,77.0,101.0
163,162.29350343750002,162.55032136250003,84.0,109.0
164,162.56623043750002,162.90373010000002,82.0,91.0
165,162.83895743750003,163.046911775,80.0,97.0
166,163.1116844375,163.410547775,75.0,87.0
167,163.3844114375,165.43100030000002,77.0,101.0
168,174.29349143750002,174.8048545625,75.0,66.0
169,174.8389454375,175.41508122500002,77.0,66.0
170,175.3843994375,175.9571261375,80.0,93.0
171,175.92985343750001,176.46621653750003,82.0,85.0
172,176.47530743750002,177.73553345000002,77.0,96.0
173,178.65712343750002,178.969623125,84.0,97.0
174,179.2025774375,179.5434861875,84.0,97.0
175,179.7480314375,180.03439478750002,84.0,90.0
176,180.0207584375,180.3434853875,82.0,62.0
177,180.2934854375,180.549167,80.0,75.0
178,180.5662124375,180.81734855000002,75.0,63.0
179,180.83893943750002,182.34121066250003,77.0,66.0
180,183.02075543750001,183.6184821125,75.0,87.0
181,183.56620943750002,184.09575436250003,77.0,90.0
182,184.1116634375,184.7071173875,80.0,91.0
183,184.6571174375,185.19348053750002,82.0,72.0
184,185.2025714375,186.478706525,77.0,76.0
185,187.3843874375,187.8389324375,84.0,95.0
186,187.92984143750002,188.4321136625,82.0,85.0
187,188.47529543750002,188.81961327500002,84.0,90.0
188,188.74802243750003,189.07529483750002,82.0,64.0
189,189.0207494375,189.255976475,80.0,66.0
190,189.2934764375,189.56847616250002,75.0,66.0
191,189.5662034375,191.13438368750002,77.0,73.0
192,191.7480194375,192.34574611250002,75.0,87.0
193,192.2934734375,192.82301836250002,77.0,90.0
194,192.83892743750002,193.43551775000003,80.0,91.0
195,193.38438143750002,193.9207445375,82.0,72.0
196,193.9298354375,195.20483416250002,77.0,76.0
197,196.11165143750003,196.56733280000003,84.0,95.0
198,196.6571054375,197.15937766250002,82.0,85.0
199,197.2025594375,197.545294525,84.0,90.0
200,197.4749820625,197.7952943916667,82.0,64.0
201,197.74283906250002,197.97386572500002,80.0,66.0
202,198.01069606250002,198.28078520416668,75.0,66.0
203,198.2785530625,199.8187308125,77.0,73.0
