,start,end,pitch,velocity
0,3.0170424375000002,3.2829512625,65.0,78.0
1,3.0170424375000002,3.5761327875,56.0,93.0
2,3.0170424375000002,3.5772691500000002,60.0,97.0
3,3.0170424375000002,3.5965873125,41.0,80.0
4,3.5624964375,3.6659054250000005,65.0,85.0
5,3.5624964375,3.6693145125,53.0,85.0
6,4.1079504375,4.3647683625,68.0,82.0
7,4.1079504375,4.7079498375,63.0,97.0
8,4.1079504375,4.7170407375000005,60.0,88.0
9,4.1079504375,4.7261316375,44.0,82.0
10,4.653404437500001,4.7522679750000005,68.0,97.0
11,4.653404437500001,4.759086150000001,56.0,88.0
12,5.1988584375,5.564767162500001,70.0,85.0
13,5.1988584375,5.7170397375,65.0,95.0
14,5.7443124375000005,5.8102214625,65.0,59.0
15,5.1988584375,5.827266900000001,46.0,80.0
16,5.1988584375,5.8306759875,61.0,82.0
17,5.7443124375000005,5.8511305125,58.0,82.0
18,5.7443124375000005,5.852266875000001,70.0,93.0
19,6.289766437500001,6.6988569375,72.0,91.0
20,6.289766437500001,6.7374932625,67.0,91.0
21,6.289766437500001,6.774993225,60.0,91.0
22,6.289766437500001,6.7818114000000005,48.0,88.0
23,6.289766437500001,6.801129562500001,63.0,95.0
24,6.8352204375,6.8749931250000005,56.0,78.0
25,6.8352204375,6.8909022,72.0,35.0
26,6.8352204375,6.9556748625,48.0,62.0
27,7.380674437500001,7.495447050000001,41.0,85.0
28,7.380674437500001,7.501128862500001,65.0,66.0
29,7.4465834625000005,7.526128837500001,77.0,63.0
30,7.523856112500001,7.609083300000001,65.0,44.0
31,7.5147652125,7.611356025000001,53.0,82.0
32,7.596583312500001,7.6579468875000005,77.0,63.0
33,7.598856037500001,7.685219587500001,41.0,80.0
34,7.664765062500001,7.743174075000001,65.0,54.0
35,7.6806741375000005,7.7545377,53.0,61.0
36,7.73181045,7.7897649375,77.0,61.0
37,7.760219512500001,7.815901275000001,41.0,76.0
38,7.793174025000001,7.8795375750000005,65.0,53.0
39,7.8193103625000004,7.893173925000001,53.0,59.0
40,7.859083050000001,7.915901175000001,77.0,60.0
41,7.876128487500001,7.934082975000001,41.0,70.0
42,7.915901175000001,8.0034010875,65.0,47.0
43,7.9806738375,8.0443101375,77.0,69.0
44,8.04090105,8.12271915,65.0,54.0
45,7.971582937500001,8.149991850000001,41.0,72.0
46,8.0988555375,8.167037287500001,77.0,67.0
47,7.939764787500001,8.242037212500001,53.0,49.0
48,8.1988554375,8.278400812500001,41.0,76.0
49,8.215900875,8.2943098875,77.0,61.0
50,8.167037287500001,8.3602189125,65.0,55.0
51,8.3272644,8.403400687500001,41.0,80.0
52,8.334082575,8.414764312500001,77.0,57.0
53,8.3011280625,8.494309687500001,53.0,44.0
54,8.411355225000001,8.494309687500001,65.0,63.0
55,8.4352188375,8.523855112500001,41.0,59.0
56,8.464764262500001,8.5420369125,77.0,55.0
57,8.5329460125,8.6170368375,65.0,49.0
58,8.535218737500001,8.620445925,53.0,39.0
59,8.581809600000001,8.664764062500002,77.0,47.0
60,8.652264075000001,8.7522640125,65.0,48.0
61,8.710218562500001,8.828652939583334,77.0,52.0
62,8.80643070625,8.911986314583332,65.0,51.0
63,8.6738549625,8.956430781249999,53.0,36.0
64,8.880041854166667,8.995319689583333,77.0,55.0
65,8.98143079375,9.096708629166667,65.0,59.0
66,9.063375279166667,9.178653114583334,77.0,57.0
67,8.548855087500002,9.232819808333334,41.0,58.0
68,9.261986489583332,9.413375454166667,77.0,69.0
69,9.159208660416667,9.588375541666666,65.0,51.0
70,7.40453805,9.591153320833333,68.0,46.0
71,9.5355977375,9.6522644625,77.0,64.0
72,9.182819783333333,9.65643113125,53.0,67.0
73,19.386152843749997,19.678231852083332,41.0,76.0
74,19.386152843749997,19.678231852083332,65.0,62.0
75,19.683182343749998,19.826746602083333,41.0,62.0
76,19.683182343749998,19.826746602083333,65.0,69.0
77,19.831697093749998,19.975261352083333,41.0,72.0
78,19.831697093749998,19.975261352083333,65.0,72.0
79,19.98021184375,20.56932035208333,44.0,60.0
80,19.98021184375,20.56932035208333,65.0,97.0
81,19.98021184375,20.56932035208333,68.0,97.0
82,20.57427084375,20.8652359875,41.0,80.0
83,20.57427084375,20.8652359875,65.0,80.0
84,20.8697814375,21.001599487500002,41.0,93.0
85,20.8697814375,21.001599487500002,65.0,62.0
86,21.0061449375,21.1379629875,41.0,88.0
87,21.0061449375,21.1379629875,65.0,73.0
88,21.142508437500002,21.6834169875,46.0,76.0
89,21.142508437500002,21.6834169875,60.0,85.0
90,21.142508437500002,21.6834169875,65.0,85.0
91,21.142508437500002,21.6834169875,70.0,85.0
92,23.3243244375,23.3709153,61.0,88.0
93,23.3243244375,23.38455165,49.0,93.0
94,23.3243244375,23.38455165,56.0,93.0
95,23.3243244375,23.3890971,37.0,67.0
96,23.3243244375,23.40273345,65.0,91.0
97,23.4606879375,23.7675058125,58.0,93.0
98,23.4606879375,23.777733075,39.0,70.0
99,23.4606879375,23.777733075,63.0,95.0
100,23.4606879375,23.7947785125,67.0,78.0
101,23.8697784375,24.02091465,68.0,76.0
102,23.8697784375,24.027732825,63.0,70.0
103,23.8697784375,24.0311419125,56.0,69.0
104,23.8697784375,24.039096450000002,44.0,75.0
105,24.1425054375,24.2038690125,63.0,62.0
106,24.1425054375,24.205005375,68.0,70.0
107,24.1425054375,24.3447779625,56.0,70.0
108,24.2788689375,24.3470506875,63.0,54.0
109,24.2788689375,24.35727795,68.0,75.0
110,24.1425054375,24.3697779375,44.0,69.0
111,24.415232437500002,24.75727755,51.0,76.0
112,24.415232437500002,24.75727755,68.0,73.0
113,24.415232437500002,24.7890957,63.0,82.0
114,24.9606864375,25.136822625,70.0,64.0
115,24.9606864375,25.1527317,63.0,82.0
116,24.9606864375,25.1527317,67.0,78.0
117,24.9606864375,25.1709135,51.0,75.0
118,24.9606864375,25.20273165,39.0,75.0
119,25.2334134375,25.2720497625,70.0,51.0
120,25.2334134375,25.286822475,67.0,61.0
121,25.2334134375,25.3345497,51.0,67.0
122,25.2334134375,25.3629587625,39.0,76.0
123,25.2334134375,25.4015950875,63.0,55.0
124,25.3697769375,25.409549625,67.0,53.0
125,25.3697769375,25.41182235,70.0,54.0
126,25.5061404375,25.924321837500003,63.0,76.0
127,25.5061404375,25.9402309125,67.0,75.0
128,25.5061404375,25.950458175,70.0,72.0
129,25.5061404375,25.9902308625,46.0,63.0
130,28.2334104375,28.527728325,60.0,75.0
131,28.2334104375,28.5515919375,63.0,78.0
132,28.2334104375,28.5538646625,68.0,80.0
133,28.6425009375,28.8402280125,56.0,63.0
134,28.2334104375,28.92090975,44.0,73.0
135,28.5061374375,28.977727875,51.0,62.0
136,28.6425009375,28.999318762500003,67.0,69.0
137,28.6425009375,29.1084095625,60.0,85.0
138,29.0515914375,29.405000175,68.0,76.0
139,29.3243184375,29.6174999625,37.0,70.0
140,29.3243184375,29.641363575,56.0,72.0
141,29.3243184375,29.669772637500003,49.0,85.0
142,29.3243184375,29.7527271,65.0,76.0
143,29.3243184375,29.7811361625,61.0,76.0
144,29.8697724375,30.070908600000003,58.0,85.0
145,29.8697724375,30.0799995,63.0,67.0
146,29.8697724375,30.0799995,67.0,76.0
147,29.8697724375,30.086817675,51.0,78.0
148,29.8697724375,30.2447720625,39.0,72.0
149,30.1424994375,30.308408362500003,51.0,64.0
150,30.415226437500003,30.6652261875,60.0,78.0
151,30.415226437500003,30.695907975,65.0,72.0
152,30.415226437500003,30.7061352375,68.0,78.0
153,30.8243169375,30.98454405,58.0,76.0
154,30.8243169375,31.2015892875,67.0,75.0
155,30.415226437500003,31.3197709875,41.0,73.0
156,30.960680437500002,31.3561345875,53.0,56.0
157,31.2334074375,31.361816400000002,60.0,73.0
158,31.2334074375,31.3890891,68.0,82.0
159,30.6879534375,31.482270825,48.0,66.0
160,31.506134437500002,31.629997950000003,60.0,72.0
161,31.506134437500002,31.667497912500004,67.0,67.0
162,31.506134437500002,31.709543325,41.0,66.0
163,32.0515884375,32.07545205,49.0,52.0
164,32.0515884375,32.118633825,56.0,76.0
165,32.0515884375,32.132270175,61.0,76.0
166,32.0515884375,32.1470428875,65.0,80.0
167,32.0515884375,32.1538610625,37.0,82.0
168,32.1879519375,32.5709061,39.0,97.0
169,32.1879519375,32.577724275,67.0,78.0
170,32.1879519375,32.5890879,58.0,91.0
171,32.1879519375,32.5981788,63.0,95.0
172,32.5970424375,32.5981788,63.0,91.0
173,32.5970424375,32.94817845,68.0,78.0
174,32.5970424375,32.9743147875,60.0,88.0
175,32.5970424375,33.233405437500004,56.0,95.0
176,33.1424964375,33.3424962375,63.0,82.0
177,32.5970424375,33.3788598375,44.0,75.0
178,33.1424964375,33.386814375,60.0,75.0
179,33.4152234375,33.5061324375,51.0,61.0
180,33.1424964375,33.601586887500005,68.0,80.0
181,33.6879504375,33.7243140375,51.0,54.0
182,33.6879504375,33.9674956125,56.0,97.0
183,33.6879504375,34.1470408875,37.0,69.0
184,33.6879504375,34.1629499625,65.0,75.0
185,33.6879504375,34.204995375,61.0,82.0
186,33.6879504375,34.2970407375,49.0,45.0
187,34.2334044375,34.4606769375,67.0,73.0
188,34.2334044375,34.4652223875,58.0,75.0
189,34.2334044375,34.47544965,63.0,76.0
190,34.2334044375,34.509540525000006,39.0,73.0
191,34.642494937500004,34.6993130625,63.0,43.0
192,34.778858437500006,34.904994675,60.0,85.0
193,34.778858437500006,34.9072674,56.0,80.0
194,34.778858437500006,34.911812850000004,65.0,76.0
195,34.778858437500006,34.93908555,53.0,69.0
196,34.778858437500006,34.948176450000005,41.0,73.0
197,35.0515854375,35.1038581125,60.0,88.0
198,35.0515854375,35.13908535,41.0,66.0
199,35.0515854375,35.141358075,56.0,75.0
200,35.0515854375,35.143630800000004,53.0,63.0
201,35.0515854375,35.154994425,65.0,70.0
202,35.1879489375,35.242494337500005,41.0,49.0
203,35.1879489375,35.25726705,60.0,70.0
204,35.1879489375,35.2856761125,53.0,48.0
205,35.3243124375,35.6720393625,68.0,85.0
206,35.3243124375,35.7152211375,60.0,93.0
207,35.3243124375,35.72999385,44.0,106.0
208,35.3243124375,35.7402211125,63.0,93.0
209,35.869766437500004,35.994766312500005,63.0,70.0
210,35.869766437500004,36.0084026625,60.0,85.0
211,35.869766437500004,36.0152208375,56.0,67.0
212,35.869766437500004,36.039084450000004,53.0,67.0
213,35.869766437500004,36.04817535,41.0,73.0
214,36.1424934375,36.2061297375,60.0,75.0
215,36.1424934375,36.218629725,56.0,72.0
216,36.1424934375,36.339084150000005,53.0,66.0
217,36.2788569375,36.3470386875,60.0,75.0
218,36.1424934375,36.352720500000004,41.0,78.0
219,36.1424934375,36.35726595,63.0,75.0
220,36.2788569375,36.3618114,56.0,58.0
221,36.415220437500004,36.782265525,53.0,70.0
222,36.415220437500004,36.8743108875,56.0,76.0
223,36.415220437500004,36.8788563375,60.0,88.0
224,36.415220437500004,36.916356300000004,65.0,78.0
225,36.415220437500004,36.933401737500006,41.0,76.0
226,36.9606744375,37.0981743,68.0,69.0
227,36.9606744375,37.102719750000006,60.0,66.0
228,36.9606744375,37.1038561125,63.0,70.0
229,37.23340143750001,37.35726495,68.0,63.0
230,37.23340143750001,37.372037662500006,60.0,61.0
231,37.23340143750001,37.3788558375,63.0,69.0
232,37.5061284375,37.6174919625,60.0,62.0
233,37.5061284375,37.624310137500004,68.0,76.0
234,37.5061284375,37.627719225,63.0,66.0
235,36.9606744375,37.659537375,44.0,67.0
236,37.7788554375,37.843628100000004,63.0,44.0
237,37.7788554375,37.9129462125,60.0,59.0
238,37.7788554375,37.9402189125,68.0,73.0
239,38.0515824375,38.1788550375,56.0,73.0
240,38.0515824375,38.18453685,65.0,67.0
241,38.0515824375,38.187945937500004,61.0,62.0
242,38.0515824375,38.3606730375,37.0,67.0
243,38.0515824375,38.445900225,49.0,70.0
244,38.324309437500006,38.4674911125,61.0,67.0
245,38.324309437500006,38.477718375,56.0,70.0
246,38.324309437500006,38.5265819625,65.0,66.0
247,38.5970364375,38.7356726625,51.0,75.0
248,38.5970364375,38.7424908375,58.0,72.0
249,38.5970364375,38.7424908375,67.0,76.0
250,38.5970364375,38.761809,63.0,72.0
251,38.5970364375,38.96635425,39.0,72.0
252,38.8697634375,38.987945137500006,63.0,63.0
253,38.8697634375,39.000445125,58.0,64.0
254,38.8697634375,39.0061269375,51.0,82.0
255,38.8697634375,39.0083996625,67.0,64.0
256,39.1424904375,39.441353775,60.0,75.0
257,39.1424904375,39.4493083125,56.0,76.0
258,39.1424904375,39.457262850000006,65.0,73.0
259,39.1424904375,39.518626425,53.0,73.0
260,39.551580937500006,39.803853412500004,65.0,73.0
261,39.551580937500006,39.8163534,60.0,85.0
262,39.551580937500006,39.8197624875,56.0,78.0
263,39.551580937500006,39.95726235,53.0,64.0
264,39.9606714375,40.084534950000005,56.0,70.0
265,39.9606714375,40.084534950000005,65.0,75.0
266,39.9606714375,40.086807675,60.0,61.0
267,40.2333984375,40.3379437875,53.0,73.0
268,40.2333984375,40.34021651250001,60.0,62.0
269,40.2333984375,40.3583983125,56.0,72.0
270,39.1424904375,40.3606710375,41.0,75.0
271,40.2333984375,40.373171025000005,65.0,75.0
272,40.77885243750001,40.845897825,61.0,88.0
273,40.77885243750001,40.850443275,56.0,82.0
274,40.77885243750001,40.8697614375,37.0,75.0
275,40.77885243750001,40.8765796125,65.0,88.0
276,41.0515794375,41.195897475,65.0,42.0
277,40.9152159375,41.241351975,39.0,106.0
278,40.9152159375,41.2470337875,58.0,93.0
279,40.9152159375,41.256124687500005,63.0,99.0
280,41.3243064375,41.600442525000005,68.0,80.0
281,41.3243064375,41.6015788875,60.0,85.0
282,41.3243064375,41.609533425,63.0,82.0
283,41.3243064375,41.7265787625,56.0,80.0
284,41.733396937500004,41.994760312500006,60.0,76.0
285,41.3243064375,42.02544210000001,44.0,70.0
286,41.869760437500005,42.05726025,56.0,64.0
287,41.733396937500004,42.0618057,67.0,78.0
288,42.1424874375,42.2856691125,60.0,76.0
289,42.1424874375,42.31975998750001,68.0,73.0
290,42.4152144375,42.6538505625,51.0,60.0
291,42.4152144375,42.7788504375,56.0,85.0
292,42.4152144375,42.7993049625,37.0,63.0
293,42.4152144375,42.81407767500001,49.0,62.0
294,42.4152144375,42.8197594875,39.0,67.0
295,42.4152144375,42.8618049,65.0,82.0
296,42.4152144375,42.866350350000005,61.0,88.0
297,42.960668437500004,43.172031862500006,67.0,73.0
298,42.960668437500004,43.20271365000001,58.0,82.0
299,42.960668437500004,43.2174863625,63.0,69.0
300,42.960668437500004,43.22771362500001,39.0,76.0
301,43.3697589375,43.479986100000005,63.0,45.0
302,43.5061224375,43.760667637500006,60.0,82.0
303,43.5061224375,43.7833948875,65.0,91.0
304,43.5061224375,43.80271305,68.0,82.0
305,43.9152129375,44.0765764125,58.0,88.0
306,43.9152129375,44.24816715,67.0,78.0
307,43.5061224375,44.307258000000004,41.0,76.0
308,44.0515764375,44.41180335,53.0,72.0
309,43.7788494375,44.4652123875,48.0,53.0
310,44.32430343750001,44.4652123875,60.0,78.0
311,44.32430343750001,44.482257825000005,68.0,75.0
312,44.5970304375,44.751575737500005,60.0,73.0
313,44.5970304375,44.877711975,67.0,76.0
314,44.7333939375,45.125439,48.0,64.0
315,45.0061209375,45.259529775000004,58.0,76.0
316,45.0061209375,45.2856661125,63.0,69.0
317,45.0061209375,45.395893275000006,53.0,75.0
318,44.5970304375,45.518620425,41.0,75.0
319,45.415211437500005,45.5424840375,48.0,69.0
320,45.415211437500005,45.55725675,63.0,61.0
321,45.55157493750001,45.55725675,63.0,72.0
322,45.415211437500005,45.5674840125,60.0,69.0
323,45.415211437500005,45.5674840125,60.0,69.0
324,45.415211437500005,45.72657476250001,36.0,78.0
325,45.6879384375,46.3379377875,60.0,76.0
326,45.6879384375,46.37884683750001,65.0,97.0
327,46.506119437500004,46.919755387500004,60.0,70.0
328,46.506119437500004,46.9652098875,68.0,75.0
329,46.506119437500004,47.44816395,53.0,49.0
330,47.3243004375,47.46634575,58.0,69.0
331,47.3243004375,47.48452755,63.0,69.0
332,45.55157493750001,47.5015729875,41.0,53.0
333,47.869754437500006,48.427708425000006,68.0,69.0
334,47.869754437500006,48.460662937500004,60.0,58.0
335,47.869754437500006,48.4652083875,63.0,64.0
336,47.869754437500006,48.779980800000004,44.0,66.0
337,48.6879354375,48.9833896875,68.0,70.0
338,48.960662437500005,49.52602894791667,58.0,63.0
339,48.960662437500005,49.53503796458334,67.0,72.0
340,48.960662437500005,49.621749750000006,55.0,60.0
341,49.503506406250004,49.68706512083334,63.0,48.0
342,49.773776906250006,50.00575908541667,67.0,61.0
343,50.04404740625001,50.38751616666667,68.0,61.0
344,50.04404740625001,50.40891258125001,63.0,57.0
345,50.04404740625001,50.42017385208334,60.0,50.0
346,50.584588406250006,50.95395808958334,60.0,56.0
347,50.314317906250004,51.07557981458334,56.0,59.0
348,50.85485890625001,51.25688627500001,68.0,60.0
349,51.125129406250004,51.51364325000001,67.0,66.0
350,51.395399906250006,51.685940693750005,56.0,40.0
351,50.04404740625001,51.75913895416667,53.0,55.0
352,51.66567040625001,51.87287778958334,63.0,62.0
353,52.07107615625001,52.33008538541667,56.0,45.0
354,52.206211406250006,52.33008538541667,56.0,61.0
355,52.206211406250006,52.503908137500005,37.0,69.0
356,52.47663543750001,52.841407800000006,49.0,52.0
357,52.206211406250006,53.068680300000004,61.0,62.0
358,52.206211406250006,53.10049845,65.0,60.0
359,53.2948164375,53.724361462500006,56.0,53.0
360,53.56754343750001,53.90504310000001,61.0,66.0
361,53.02208943750001,53.90958855000001,53.0,59.0
362,52.749362437500004,53.93004307500001,51.0,67.0
363,53.8402704375,54.11072471250001,65.0,53.0
364,54.112997437500006,54.47322435000001,68.0,69.0
365,54.38572443750001,54.87663303750001,39.0,48.0
366,54.658451437500005,54.895951200000006,46.0,55.0
367,54.93117843750001,55.265269012500006,51.0,49.0
368,54.38572443750001,55.5379960125,67.0,59.0
369,54.38572443750001,55.56413235000001,63.0,60.0
370,55.203905437500005,56.12094997500001,53.0,64.0
371,55.47663243750001,56.139131775,55.0,72.0
372,56.02208643750001,56.225495325000004,63.0,70.0
373,56.56754043750001,57.17322165,75.0,60.0
374,57.11299443750001,57.47322135,63.0,55.0
375,57.38572143750001,57.653902987500004,68.0,58.0
376,57.658448437500006,58.01981171250001,70.0,64.0
377,56.8402674375,58.13799341250001,60.0,54.0
378,56.56754043750001,58.23231150000001,56.0,48.0
379,58.203902437500005,58.29367507500001,63.0,60.0
380,58.749356437500005,59.236855950000006,70.0,66.0
381,58.749356437500005,59.29140135000001,62.0,63.0
382,59.02208343750001,59.81753718750001,53.0,43.0
383,59.294810437500004,59.9414007,58.0,57.0
384,59.56753743750001,59.95049160000001,60.0,51.0
385,58.749356437500005,60.201627712500006,46.0,61.0
386,59.840264437500004,60.30730942500001,65.0,58.0
387,60.11299143750001,60.522081937500005,53.0,49.0
388,60.3857184375,60.680036325,62.0,72.0
389,60.658445437500006,61.05162686250001,60.0,52.0
390,60.93117243750001,61.23117213750001,63.0,64.0
391,60.93117243750001,61.86639877500001,49.0,64.0
392,61.4766264375,61.87889876250001,61.0,58.0
393,61.749353437500005,61.937989612500004,63.0,49.0
394,61.749353437500005,62.10958035000001,68.0,51.0
395,62.02208043750001,62.41639822500001,70.0,66.0
396,61.203899437500006,62.42889821250001,56.0,59.0
397,62.56753443750001,62.92207953750001,51.0,69.0
398,62.56753443750001,63.06185212500001,68.0,64.0
399,63.11185207500001,63.478897162500004,65.0,56.0
400,63.9311694375,64.19935098750001,55.0,48.0
401,64.2038964375,64.3038963375,56.0,67.0
402,64.47662343750001,64.73798681250001,60.0,66.0
403,63.65844243750001,64.98457747500001,53.0,66.0
404,64.74935043750001,65.025486525,65.0,28.0
405,63.11185207500001,65.0470774125,41.0,67.0
406,65.0220774375,65.26866810000001,67.0,49.0
407,63.38571543750001,65.277759,48.0,56.0
408,65.293668075,65.5584405375,61.0,80.0
409,65.293668075,65.5607132625,37.0,72.0
410,65.293668075,65.56525871250001,53.0,82.0
411,65.293668075,65.57662233750001,56.0,85.0
412,65.293668075,65.5948041375,49.0,88.0
413,65.84025843750001,65.9720764875,55.0,88.0
414,65.84025843750001,65.9857128375,63.0,85.0
415,65.84025843750001,65.989121925,39.0,82.0
416,65.84025843750001,66.00162191250001,58.0,88.0
417,65.84025843750001,66.02321280000001,51.0,88.0
418,66.3857124375,66.69414632083334,63.0,78.0
419,66.3857124375,66.70561421666667,60.0,72.0
420,66.3857124375,66.70561421666667,68.0,73.0
421,66.3857124375,66.76066011666667,51.0,63.0
422,66.3857124375,66.96822903125,56.0,64.0
423,66.79621059375,67.00836666666667,68.0,75.0
424,66.79621059375,67.05423825000001,63.0,78.0
425,66.3857124375,67.10125662291667,44.0,63.0
426,66.79621059375,67.10355020208334,60.0,76.0
427,66.93382534375,67.14024746875,51.0,70.0
428,67.20905484375001,67.43382560208335,68.0,73.0
429,67.48428434375,67.78130284583334,58.0,80.0
430,67.48428434375,67.78474321458334,67.0,78.0
431,67.48428434375,67.83749553541668,51.0,76.0
432,67.62189909375,68.03359655416668,46.0,43.0
433,67.48428434375,68.06111950416667,39.0,73.0
434,67.89712859375001,68.08520208541667,51.0,88.0
435,67.89712859375001,68.27327557708334,58.0,80.0
436,67.89712859375001,68.30423889583334,63.0,88.0
437,68.30997284375,68.51410138958335,68.0,85.0
438,68.58520234375001,68.92465206041668,61.0,75.0
439,68.58520234375001,68.95102822083334,65.0,70.0
440,68.72281709375001,69.19070724375001,53.0,63.0
441,68.99804659375,69.20332192916668,58.0,82.0
442,68.58520234375001,69.29965225416667,46.0,82.0
443,68.99804659375,69.32373483541667,60.0,93.0
444,68.99804659375,69.45618896666667,63.0,78.0
445,69.41043006250001,69.55105498750001,65.0,80.0
446,69.6782870625,69.76422451666667,63.0,59.0
447,69.6782870625,69.89368873333335,60.0,80.0
448,69.6782870625,69.95618870000001,56.0,69.0
449,69.94614406250001,70.33453671250001,48.0,60.0
450,69.6782870625,70.3881081125,41.0,76.0
451,70.2140010625,70.39368846666667,53.0,57.0
452,70.2140010625,70.40038489166668,55.0,95.0
453,70.34792956250001,70.58230443750001,56.0,63.0
454,70.48185806250001,70.65708118333335,58.0,64.0
455,70.6157865625,70.72739364583335,60.0,53.0
456,70.74971506250002,71.01422385000001,56.0,85.0
457,70.74971506250002,71.04658990416668,68.0,76.0
458,70.74971506250002,71.05105418750001,60.0,75.0
459,70.74971506250002,71.06333096666667,63.0,80.0
460,70.74971506250002,71.20618803333335,51.0,72.0
461,71.1515005625,71.39703614583334,56.0,80.0
462,71.28542906250001,71.43609862500001,51.0,75.0
463,70.74971506250002,71.46958075,44.0,72.0
464,71.1515005625,71.53542892916667,67.0,76.0
465,71.1515005625,71.610205675,60.0,82.0
466,71.5532860625,71.72404490000001,68.0,80.0
467,71.82114306250001,72.1938497875,63.0,58.0
468,71.82114306250001,72.2824860625,70.0,91.0
469,71.82114306250001,72.310895125,58.0,66.0
470,71.82114306250001,72.42225865,39.0,78.0
471,72.0893044375,72.4802131375,46.0,75.0
472,72.36203143750001,72.5506676125,51.0,93.0
473,72.49839493750001,72.6847583875,58.0,99.0
474,72.6347584375,72.8552127625,63.0,70.0
475,72.7711219375,72.8552127625,67.0,44.0
476,72.7711219375,72.91203088750001,65.0,70.0
477,72.9074854375,73.1324852125,58.0,78.0
478,72.9074854375,73.24498510000001,61.0,56.0
479,72.9074854375,73.30634867500001,68.0,75.0
480,73.3165759375,73.52566663750001,58.0,85.0
481,73.0438489375,73.5540757,53.0,70.0
482,72.9074854375,73.61430291250001,46.0,70.0
483,73.3165759375,73.6188483625,60.0,85.0
484,73.3165759375,73.65293923750001,63.0,80.0
485,73.7256664375,73.8347572375,61.0,61.0
486,73.7256664375,73.97680255,65.0,93.0
487,73.9983934375,74.406347575,60.0,80.0
488,73.9983934375,74.42225665000001,41.0,82.0
489,74.2711204375,74.5438474375,48.0,55.0
490,74.5438474375,74.8995289,53.0,72.0
491,73.9983934375,74.9847560875,68.0,80.0
492,75.3620284375,75.5813464,60.0,85.0
493,75.6347554375,75.679073575,60.0,43.0
494,75.0893014375,75.6961190125,56.0,63.0
495,74.81657443750001,75.7211189875,55.0,70.0
496,75.6347554375,75.83816432500001,65.0,95.0
497,75.90748243750001,76.1529367375,67.0,60.0
498,76.1802094375,76.2688457125,63.0,66.0
499,76.1802094375,76.2733911625,60.0,63.0
500,76.1802094375,76.3086184,68.0,69.0
501,76.1802094375,76.85179967500001,44.0,55.0
502,76.9983904375,77.1233903125,44.0,75.0
503,76.7256634375,77.3279355625,60.0,61.0
504,76.7256634375,77.333617375,63.0,64.0
505,76.7256634375,77.3552082625,68.0,72.0
506,77.5438444375,77.6211170875,60.0,37.0
507,77.27111743750001,77.9188440625,53.0,63.0
508,78.0892984375,78.2597528125,53.0,67.0
509,77.8165714375,78.3938435875,63.0,72.0
510,77.8165714375,78.40066176250001,60.0,72.0
511,77.8165714375,78.41202538750001,68.0,73.0
512,78.36202543750001,79.0267975,48.0,63.0
513,78.9074794375,79.251797275,58.0,58.0
514,78.9074794375,79.27793361250001,67.0,70.0
515,78.9074794375,79.30861540000001,63.0,67.0
516,79.1802064375,79.32566083750001,48.0,60.0
517,79.45293343750001,79.829069425,68.0,62.0
518,79.45293343750001,79.83134215,60.0,61.0
519,79.45293343750001,79.8483875875,65.0,59.0
520,79.45293343750001,80.1267964,53.0,70.0
521,80.2711144375,80.469977875,53.0,60.0
522,79.9983874375,80.6074777375,60.0,63.0
523,79.9983874375,80.6256595375,65.0,66.0
524,79.9983874375,80.63134135,68.0,67.0
525,80.5438414375,81.2267953,48.0,75.0
526,81.3620224375,81.4983859375,48.0,64.0
527,81.0892954375,81.4983859375,63.0,58.0
528,81.0892954375,81.5506586125,58.0,61.0
529,81.0892954375,81.642703975,67.0,61.0
530,81.90747643750001,81.9756581875,68.0,48.0
531,81.90747643750001,81.99611271250001,60.0,60.0
532,81.90747643750001,81.99611271250001,65.0,55.0
533,81.6347494375,82.31315785000001,53.0,72.0
534,82.1802034375,82.5756575875,60.0,61.0
535,82.1802034375,82.592703025,68.0,62.0
536,82.4529304375,82.6086121,53.0,63.0
537,82.1802034375,82.647248425,65.0,52.0
538,82.7256574375,82.82224825,63.0,63.0
539,82.7256574375,82.8358846,58.0,61.0
540,82.7256574375,82.8722482,67.0,69.0
541,82.7256574375,83.3256568375,48.0,51.0
542,83.2711114375,83.5552020625,58.0,49.0
543,83.5438384375,83.74270187500001,48.0,60.0
544,83.2711114375,83.7642927625,67.0,59.0
545,83.2711114375,83.78702001250001,63.0,48.0
546,83.8165654375,83.9142926125,65.0,61.0
547,83.8165654375,83.924519875,60.0,61.0
548,83.8165654375,83.94042895,68.0,61.0
549,83.8165654375,83.9665652875,53.0,63.0
550,84.36201943750001,84.6870191125,60.0,61.0
551,84.36201943750001,84.7267918,53.0,76.0
552,84.36201943750001,84.774519025,68.0,66.0
553,84.36201943750001,84.79497355000001,65.0,61.0
554,84.9074734375,85.424518375,63.0,61.0
555,84.9074734375,85.4302001875,60.0,53.0
556,84.9074734375,85.4483819875,68.0,62.0
557,85.45292743750001,85.76088167500001,56.0,58.0
558,84.9074734375,85.7801998375,44.0,51.0
559,85.1802004375,85.8483815875,51.0,57.0
560,85.9983814375,86.5870172125,60.0,61.0
561,85.9983814375,86.6074717375,41.0,70.0
562,85.7256544375,86.617699,68.0,67.0
563,86.2711084375,86.656335325,48.0,61.0
564,86.54383543750001,86.7256534375,53.0,58.0
565,86.54383543750001,86.7847442875,65.0,63.0
566,86.9529259375,87.0267895,68.0,33.0
567,87.0892894375,87.3665618875,58.0,63.0
568,87.0892894375,87.592698025,61.0,63.0
569,87.0892894375,87.6188343625,65.0,64.0
570,87.6347434375,87.81315235000001,58.0,63.0
571,87.3620164375,87.829061425,53.0,50.0
572,87.0892894375,87.869970475,46.0,67.0
573,87.90747043750001,88.124515675,65.0,48.0
574,88.04383393750001,88.1892883375,67.0,49.0
575,88.1801974375,88.68474238750001,68.0,55.0
576,88.1801974375,88.79837863750001,63.0,72.0
577,88.1801974375,88.801787725,39.0,75.0
578,88.4529244375,88.84951495,46.0,63.0
579,88.7256514375,89.079060175,51.0,62.0
580,88.99837843750001,89.1358783,58.0,55.0
581,89.27110543750001,89.78133220000001,68.0,64.0
582,89.27110543750001,89.8301957875,60.0,61.0
583,89.27110543750001,89.8529230375,63.0,67.0
584,89.8165594375,89.924513875,56.0,73.0
585,89.5438324375,89.94269567500001,51.0,60.0
586,89.27110543750001,89.94496840000001,44.0,70.0
587,90.08928643750001,90.256331725,68.0,58.0
588,90.3620134375,90.9233765125,58.0,64.0
589,90.3620134375,90.9392855875,63.0,69.0
590,90.3620134375,90.98360372500001,67.0,62.0
591,90.9074674375,91.11314905,51.0,57.0
592,90.3620134375,91.115421775,39.0,75.0
593,90.6347404375,91.13133085000001,46.0,62.0
594,91.45292143750001,91.6892848375,58.0,44.0
595,91.72564843750001,92.03132995,65.0,26.0
596,91.45292143750001,92.03587540000001,61.0,73.0
597,91.45292143750001,92.20292068750001,37.0,58.0
598,91.72564843750001,92.30292058750001,44.0,64.0
599,91.9983754375,92.406329575,49.0,85.0
600,92.2711024375,92.46769315,68.0,60.0
601,92.54382943750001,93.056328925,67.0,64.0
602,92.54382943750001,93.0620107375,58.0,59.0
603,92.54382943750001,93.083601625,63.0,63.0
604,92.54382943750001,93.133601575,39.0,70.0
605,92.8165564375,93.15178337500001,46.0,62.0
606,93.0892834375,93.2756468875,51.0,64.0
607,93.63473743750001,93.85405540000001,60.0,60.0
608,93.63473743750001,93.88587355,68.0,70.0
609,93.3620104375,93.89041900000001,63.0,67.0
610,93.90746443750001,94.29496405,51.0,49.0
611,93.63473743750001,94.31314585000001,44.0,66.0
612,94.1801914375,94.37337306250001,56.0,58.0
613,94.4529184375,94.6506455125,75.0,67.0
614,94.7256454375,95.047236025,72.0,70.0
615,94.7256454375,95.0597360125,63.0,60.0
616,94.99837243750001,95.1710995375,70.0,67.0
617,94.7256454375,95.33132665000001,51.0,55.0
618,94.99837243750001,95.3483720875,55.0,59.0
619,95.2710994375,95.451781075,68.0,62.0
620,95.5438264375,95.8358716,63.0,53.0
621,95.8165534375,96.4710982375,68.0,64.0
622,95.8165534375,96.49496185000001,60.0,61.0
623,95.8165534375,96.50632547500001,41.0,62.0
624,96.36200743750001,96.529052725,53.0,59.0
625,96.08928043750001,96.54496180000001,48.0,59.0
626,96.6347344375,96.8688251125,68.0,69.0
627,96.9074614375,97.44950635000001,63.0,70.0
628,96.9074614375,97.47223360000001,67.0,75.0
629,96.9074614375,97.542688075,58.0,63.0
630,96.9074614375,97.5688244125,39.0,67.0
631,97.18018843750001,97.62450617500001,46.0,59.0
632,97.4529154375,97.647233425,51.0,52.0
633,97.7256424375,98.0074603375,63.0,62.0
634,97.9983694375,98.347232725,60.0,60.0
635,97.9983694375,98.36655088750001,65.0,66.0
636,97.9983694375,98.6506415125,41.0,72.0
637,98.2710964375,98.665414225,48.0,61.0
638,98.54382343750001,98.72677780000001,53.0,56.0
639,98.81655043750001,98.9870048125,63.0,60.0
640,99.0892774375,99.2256409375,63.0,42.0
641,99.0892774375,99.397231675,72.0,69.0
642,99.3620044375,99.63814052500001,70.0,64.0
643,99.0892774375,99.6688223125,37.0,69.0
644,99.3620044375,99.6813223,44.0,56.0
645,99.63473143750001,99.8756402875,68.0,61.0
646,99.63473143750001,99.956322025,39.0,59.0
647,99.9074584375,100.25973081250001,63.0,56.0
648,100.1801854375,100.4074579375,41.0,66.0
649,100.4529124375,100.6801849375,41.0,66.0
650,100.4529124375,100.71313945,48.0,57.0
651,100.7256394375,100.9529119375,41.0,66.0
652,100.1801854375,100.979048275,65.0,70.0
653,100.7256394375,101.05404820000001,53.0,59.0
654,100.99836643750001,101.0960936125,55.0,55.0
655,100.99836643750001,101.22563893750001,41.0,66.0
656,101.27109343750001,101.388138775,60.0,49.0
657,101.27109343750001,101.4029114875,41.0,75.0
658,101.27109343750001,101.54950225,65.0,69.0
659,101.5438204375,101.54950225,65.0,49.0
660,101.5438204375,101.67563848750001,60.0,51.0
661,101.5438204375,101.6904112,41.0,70.0
662,101.8165474375,101.947229125,60.0,61.0
663,101.8165474375,101.9551836625,41.0,82.0
664,101.8165474375,101.9620018375,65.0,55.0
665,102.08927443750001,102.19836523750001,60.0,64.0
666,102.08927443750001,102.20291068750001,65.0,62.0
667,102.08927443750001,102.2097288625,41.0,95.0
668,102.3620014375,102.6301829875,41.0,76.0
669,102.3620014375,102.6301829875,65.0,62.0
670,102.6347284375,102.76654648750001,41.0,62.0
671,102.6347284375,102.76654648750001,65.0,69.0
672,102.7710919375,102.90290998750001,41.0,72.0
673,102.7710919375,102.90290998750001,65.0,72.0
674,102.9074554375,103.4483639875,44.0,60.0
675,102.9074554375,103.4483639875,65.0,97.0
676,102.9074554375,103.4483639875,68.0,97.0
677,103.45290943750001,103.7210909875,41.0,80.0
678,103.45290943750001,103.7210909875,65.0,80.0
679,103.7256364375,103.85745448750001,41.0,93.0
680,103.7256364375,103.85745448750001,65.0,62.0
681,103.8619999375,103.99381798750001,41.0,88.0
682,103.8619999375,103.99381798750001,65.0,73.0
683,103.9983634375,104.5392719875,46.0,76.0
684,103.9983634375,104.5392719875,60.0,85.0
685,103.9983634375,104.5392719875,65.0,85.0
686,103.9983634375,104.5392719875,70.0,85.0
687,106.18017943750002,106.2267703,61.0,88.0
688,106.18017943750002,106.24040665000001,49.0,93.0
689,106.18017943750002,106.24040665000001,56.0,93.0
690,106.18017943750002,106.2449521,37.0,67.0
691,106.18017943750002,106.25858845,65.0,91.0
692,106.3165429375,106.62336081250001,58.0,93.0
693,106.3165429375,106.633588075,39.0,70.0
694,106.3165429375,106.633588075,63.0,95.0
695,106.3165429375,106.65063351250001,67.0,78.0
696,106.72563343750001,106.87676965,68.0,76.0
697,106.72563343750001,106.883587825,63.0,70.0
698,106.72563343750001,106.8869969125,56.0,69.0
699,106.72563343750001,106.89495145000001,44.0,75.0
700,106.9983604375,107.0597240125,63.0,62.0
701,106.9983604375,107.060860375,68.0,70.0
702,106.9983604375,107.20063296250001,56.0,70.0
703,107.13472393750001,107.2029056875,63.0,54.0
704,107.13472393750001,107.21313295,68.0,75.0
705,106.9983604375,107.2256329375,44.0,69.0
706,107.2710874375,107.61313255,51.0,76.0
707,107.2710874375,107.61313255,68.0,73.0
708,107.2710874375,107.64495070000001,63.0,82.0
709,107.8165414375,107.992677625,70.0,64.0
710,107.8165414375,108.0085867,63.0,82.0
711,107.8165414375,108.0085867,67.0,78.0
712,107.8165414375,108.0267685,51.0,75.0
713,107.8165414375,108.05858665,39.0,75.0
714,108.08926843750001,108.12790476250001,70.0,51.0
715,108.08926843750001,108.142677475,67.0,61.0
716,108.08926843750001,108.1904047,51.0,67.0
717,108.08926843750001,108.2188137625,39.0,76.0
718,108.08926843750001,108.2574500875,63.0,55.0
719,108.2256319375,108.265404625,67.0,53.0
720,108.2256319375,108.26767735000001,70.0,54.0
721,108.36199543750001,108.78017683750001,63.0,76.0
722,108.36199543750001,108.7960859125,67.0,75.0
723,108.36199543750001,108.80631317500001,70.0,72.0
724,108.36199543750001,108.8460858625,46.0,63.0
725,111.0892654375,111.383583325,60.0,75.0
726,111.0892654375,111.4074469375,63.0,78.0
727,111.0892654375,111.40971966250001,68.0,80.0
728,111.49835593750001,111.6960830125,56.0,63.0
729,111.0892654375,111.77676475000001,44.0,73.0
730,111.3619924375,111.833582875,51.0,62.0
731,111.49835593750001,111.85517376250002,67.0,69.0
732,111.49835593750001,111.9642645625,60.0,85.0
733,111.9074464375,112.260855175,68.0,76.0
734,112.1801734375,112.4733549625,37.0,70.0
735,112.1801734375,112.497218575,56.0,72.0
736,112.1801734375,112.52562763750001,49.0,85.0
737,112.1801734375,112.6085821,65.0,76.0
738,112.1801734375,112.63699116250001,61.0,76.0
739,112.72562743750001,112.92676360000002,58.0,85.0
740,112.72562743750001,112.9358545,63.0,67.0
741,112.72562743750001,112.9358545,67.0,76.0
742,112.72562743750001,112.94267267500001,51.0,78.0
743,112.72562743750001,113.1006270625,39.0,72.0
744,112.99835443750001,113.16426336250001,51.0,64.0
745,113.27108143750002,113.52108118750002,60.0,78.0
746,113.27108143750002,113.551762975,65.0,72.0
747,113.27108143750002,113.5619902375,68.0,78.0
748,113.6801719375,113.84039905,58.0,76.0
749,113.6801719375,114.0574442875,67.0,75.0
750,113.27108143750002,114.17562598750001,41.0,73.0
751,113.81653543750001,114.2119895875,53.0,56.0
752,114.0892624375,114.2176714,60.0,73.0
753,114.0892624375,114.2449441,68.0,82.0
754,113.5438084375,114.338125825,48.0,66.0
755,114.3619894375,114.48585295000001,60.0,72.0
756,114.3619894375,114.5233529125,67.0,67.0
757,114.3619894375,114.565398325,41.0,66.0
758,114.9074434375,114.93130705000002,49.0,52.0
759,114.9074434375,114.97448882500001,56.0,76.0
760,114.9074434375,114.98812517500001,61.0,76.0
761,114.9074434375,115.00289788750001,65.0,80.0
762,114.9074434375,115.0097160625,37.0,82.0
763,115.04380693750001,115.42676110000001,39.0,97.0
764,115.04380693750001,115.433579275,67.0,78.0
765,115.04380693750001,115.4449429,58.0,91.0
766,115.04380693750001,115.4540338,63.0,95.0
767,115.45289743750001,115.4540338,63.0,91.0
768,115.45289743750001,115.80403345,68.0,78.0
769,115.45289743750001,115.83016978750001,60.0,88.0
770,115.45289743750001,116.0892604375,56.0,95.0
771,115.9983514375,116.1983512375,63.0,82.0
772,115.45289743750001,116.23471483750001,44.0,75.0
773,115.9983514375,116.242669375,60.0,75.0
774,116.27107843750001,116.3619874375,51.0,61.0
775,115.9983514375,116.45744188750001,68.0,80.0
776,116.5438054375,116.58016903750001,51.0,54.0
777,116.5438054375,116.82335061250001,56.0,97.0
778,116.5438054375,117.0028958875,37.0,69.0
779,116.5438054375,117.01880496250001,65.0,75.0
780,116.5438054375,117.060850375,61.0,82.0
781,116.5438054375,117.1528957375,49.0,45.0
782,117.0892594375,117.3165319375,67.0,73.0
783,117.0892594375,117.3210773875,58.0,75.0
784,117.0892594375,117.33130465,63.0,76.0
785,117.0892594375,117.365395525,39.0,73.0
786,117.49834993750001,117.5551680625,63.0,43.0
787,117.63471343750001,117.760849675,60.0,85.0
788,117.63471343750001,117.76312240000001,56.0,80.0
789,117.63471343750001,117.76766785000001,65.0,76.0
790,117.63471343750001,117.79494055,53.0,69.0
791,117.63471343750001,117.80403145,41.0,73.0
792,117.90744043750001,117.9597131125,60.0,88.0
793,117.90744043750001,117.99494035000001,41.0,66.0
794,117.90744043750001,117.997213075,56.0,75.0
795,117.90744043750001,117.9994858,53.0,63.0
796,117.90744043750001,118.010849425,65.0,70.0
797,118.0438039375,118.0983493375,41.0,49.0
798,118.0438039375,118.11312205000002,60.0,70.0
799,118.0438039375,118.1415311125,53.0,48.0
800,118.1801674375,118.5278943625,68.0,85.0
801,118.1801674375,118.5710761375,60.0,93.0
802,118.1801674375,118.58584885,44.0,106.0
803,118.1801674375,118.59607611250001,63.0,93.0
804,118.7256214375,118.85062131250001,63.0,70.0
805,118.7256214375,118.86425766250001,60.0,85.0
806,118.7256214375,118.8710758375,56.0,67.0
807,118.7256214375,118.89493945000001,53.0,67.0
808,118.7256214375,118.90403035,41.0,73.0
809,118.9983484375,119.06198473750001,60.0,75.0
810,118.9983484375,119.074484725,56.0,72.0
811,118.9983484375,119.19493915000001,53.0,66.0
812,119.13471193750001,119.20289368750001,60.0,75.0
813,118.9983484375,119.20857550000001,41.0,78.0
814,118.9983484375,119.21312095,63.0,75.0
815,119.13471193750001,119.21766640000001,56.0,58.0
816,119.2710754375,119.638120525,53.0,70.0
817,119.2710754375,119.73016588750001,56.0,76.0
818,119.2710754375,119.73471133750002,60.0,88.0
819,119.2710754375,119.77221130000001,65.0,78.0
820,119.2710754375,119.78925673750001,41.0,76.0
821,119.81652943750001,119.9540293,68.0,69.0
822,119.81652943750001,119.95857475,60.0,66.0
823,119.81652943750001,119.9597111125,63.0,70.0
824,120.08925643750001,120.21311995,68.0,63.0
825,120.08925643750001,120.22789266250001,60.0,61.0
826,120.08925643750001,120.2347108375,63.0,69.0
827,120.36198343750002,120.47334696250002,60.0,62.0
828,120.36198343750002,120.48016513750001,68.0,76.0
829,120.36198343750002,120.48357422500001,63.0,66.0
830,119.81652943750001,120.515392375,44.0,67.0
831,120.6347104375,120.69948310000001,63.0,44.0
832,120.6347104375,120.76880121250001,60.0,59.0
833,120.6347104375,120.7960739125,68.0,73.0
834,120.90743743750001,121.0347100375,56.0,73.0
835,120.90743743750001,121.04039185,65.0,67.0
836,120.90743743750001,121.04380093750001,61.0,62.0
837,120.90743743750001,121.21652803750001,37.0,67.0
838,120.90743743750001,121.30175522500001,49.0,70.0
839,121.1801644375,121.3233461125,61.0,67.0
840,121.1801644375,121.33357337500001,56.0,70.0
841,121.1801644375,121.38243696250001,65.0,66.0
842,121.4528914375,121.5915276625,51.0,75.0
843,121.4528914375,121.5983458375,58.0,72.0
844,121.4528914375,121.5983458375,67.0,76.0
845,121.4528914375,121.617664,63.0,72.0
846,121.4528914375,121.82220925000001,39.0,72.0
847,121.7256184375,121.84380013750001,63.0,63.0
848,121.7256184375,121.856300125,58.0,64.0
849,121.7256184375,121.8619819375,51.0,82.0
850,121.7256184375,121.8642546625,67.0,64.0
851,121.9983454375,122.297208775,60.0,75.0
852,121.9983454375,122.30516331250001,56.0,76.0
853,121.9983454375,122.31311785,65.0,73.0
854,121.9983454375,122.374481425,53.0,73.0
855,122.4074359375,122.65970841250001,65.0,73.0
856,122.4074359375,122.67220840000002,60.0,85.0
857,122.4074359375,122.6756174875,56.0,78.0
858,122.4074359375,122.81311735,53.0,64.0
859,122.81652643750002,122.94038995,56.0,70.0
860,122.81652643750002,122.94038995,65.0,75.0
861,122.81652643750002,122.94266267500001,60.0,61.0
862,123.0892534375,123.19379878750001,53.0,73.0
863,123.0892534375,123.1960715125,60.0,62.0
864,123.0892534375,123.2142533125,56.0,72.0
865,121.9983454375,123.2165260375,41.0,75.0
866,123.0892534375,123.229026025,65.0,75.0
867,123.6347074375,123.701752825,61.0,88.0
868,123.6347074375,123.70629827500001,56.0,82.0
869,123.6347074375,123.72561643750001,37.0,75.0
870,123.6347074375,123.73243461250001,65.0,88.0
871,123.9074344375,124.051752475,65.0,42.0
872,123.77107093750001,124.097206975,39.0,106.0
873,123.77107093750001,124.1028887875,58.0,93.0
874,123.77107093750001,124.1119796875,63.0,99.0
875,124.1801614375,124.456297525,68.0,80.0
876,124.1801614375,124.4574338875,60.0,85.0
877,124.1801614375,124.46538842500001,63.0,82.0
878,124.1801614375,124.58243376250002,56.0,80.0
879,124.58925193750001,124.8506153125,60.0,76.0
880,124.1801614375,124.88129710000001,44.0,70.0
881,124.72561543750001,124.91311525,56.0,64.0
882,124.58925193750001,124.9176607,67.0,78.0
883,124.99834243750001,125.14152411250001,60.0,76.0
884,124.99834243750001,125.17561498750001,68.0,73.0
885,125.27106943750002,125.50970556250002,51.0,60.0
886,125.27106943750002,125.6347054375,56.0,85.0
887,125.27106943750002,125.65515996250001,37.0,63.0
888,125.27106943750002,125.66993267500001,49.0,62.0
889,125.27106943750002,125.67561448750001,39.0,67.0
890,125.27106943750002,125.7176599,65.0,82.0
891,125.27106943750002,125.72220535000001,61.0,88.0
892,125.81652343750001,126.0278868625,67.0,73.0
893,125.81652343750001,126.05856865000001,58.0,82.0
894,125.81652343750001,126.0733413625,63.0,69.0
895,125.81652343750001,126.083568625,39.0,76.0
896,126.22561393750001,126.33584110000001,63.0,45.0
897,126.3619774375,126.6165226375,60.0,82.0
898,126.3619774375,126.6392498875,65.0,91.0
899,126.3619774375,126.65856805000001,68.0,82.0
900,126.7710679375,126.93243141250001,58.0,88.0
901,126.7710679375,127.10402215,67.0,78.0
902,126.3619774375,127.16311300000001,41.0,76.0
903,126.90743143750001,127.26765835,53.0,72.0
904,126.6347044375,127.32106738750001,48.0,53.0
905,127.18015843750001,127.32106738750001,60.0,78.0
906,127.18015843750001,127.33811282500001,68.0,75.0
907,127.45288543750002,127.60743073750001,60.0,73.0
908,127.45288543750002,127.73312055833335,67.0,76.0
909,127.5892489375,127.97642400000002,48.0,64.0
910,127.85923656250002,128.10812035833334,58.0,76.0
911,127.85923656250002,128.13378998750002,63.0,69.0
912,127.85923656250002,128.24204885833336,53.0,75.0
913,127.45288543750002,128.36258450833336,41.0,75.0
914,128.26102206250002,128.38602199583335,48.0,69.0
915,128.26102206250002,128.4005309166667,63.0,61.0
916,128.39495056250001,128.4005309166667,63.0,72.0
917,128.26102206250002,128.41057555416668,60.0,69.0
918,128.26102206250002,128.41057555416668,60.0,69.0
919,128.26102206250002,128.56682547083335,36.0,78.0
920,128.5288790625,128.78780749583336,61.0,80.0
921,128.5288790625,128.79003963750003,37.0,72.0
922,128.5288790625,128.79450392083334,53.0,82.0
923,128.5288790625,128.80566462916667,56.0,85.0
924,128.5288790625,128.8235217625,49.0,88.0
925,128.5288790625,129.16727157916668,60.0,76.0
926,129.06459306250002,129.19405727916669,55.0,88.0
927,129.06459306250002,129.2074501291667,63.0,85.0
928,128.5288790625,129.2074501291667,65.0,97.0
929,129.06459306250002,129.21079834166667,39.0,82.0
930,129.06459306250002,129.22307512083336,58.0,88.0
931,129.06459306250002,129.24428046666668,51.0,88.0
932,129.33245006250002,129.73869984583334,60.0,70.0
933,129.6003070625,129.73869984583334,60.0,72.0
934,129.33245006250002,129.78334267916668,68.0,75.0
935,129.6003070625,129.78334267916668,68.0,73.0
936,129.6003070625,129.90322484583334,63.0,78.0
937,129.6003070625,129.96854021666667,51.0,63.0
938,129.6003070625,130.17236921875002,56.0,64.0
939,130.00345015625,130.2117836666667,68.0,75.0
940,130.00345015625,130.25682875,63.0,78.0
941,130.13858540625,130.25682875,63.0,69.0
942,129.33245006250002,130.26133325833334,53.0,49.0
943,130.13858540625,130.27935129166667,58.0,69.0
944,129.6003070625,130.30299996041668,44.0,63.0
945,130.00345015625,130.30525221458333,60.0,76.0
946,128.39495056250001,130.31426123125001,41.0,53.0
947,130.13858540625,130.34128828125,51.0,70.0
948,130.40885590625,130.62957681458334,68.0,73.0
949,130.67912640625002,130.97079332083334,58.0,80.0
950,130.67912640625002,130.97417170208334,67.0,78.0
951,130.67912640625002,131.0259735479167,51.0,76.0
952,130.81426165625,131.2185412791667,46.0,43.0
953,130.67912640625002,131.24556832916667,39.0,73.0
954,131.08453215625002,131.2692169979167,51.0,88.0
955,131.08453215625002,131.45390183958335,58.0,80.0
956,131.08453215625002,131.48430727083334,63.0,88.0
957,131.48993790625002,131.69038852708334,68.0,85.0
958,131.76020840625,132.09354202291667,61.0,75.0
959,131.76020840625,132.11944294583336,65.0,70.0
960,131.89534365625002,132.35480350625002,53.0,63.0
961,132.16561415625,132.36719090416668,58.0,82.0
962,131.76020840625,132.46178557916667,46.0,82.0
963,132.16561415625,132.4854342479167,60.0,93.0
964,132.16561415625,132.61719111666667,63.0,78.0
965,132.57101990625,132.71291191875002,65.0,80.0
966,132.84129040625,132.92800219166668,63.0,59.0
967,132.84129040625,133.05863293333334,60.0,80.0
968,132.84129040625,133.1219417,56.0,69.0
969,133.1117144375,133.50716858750002,48.0,60.0
970,132.84129040625,133.5617139875,41.0,76.0
971,133.38444143750002,133.5673958,53.0,57.0
972,133.38444143750002,133.57421397500002,55.0,95.0
973,133.5208049375,133.7594410625,56.0,63.0
974,133.65716843750002,133.83557735000002,58.0,64.0
975,133.7935319375,133.90716818750002,60.0,53.0
976,133.92989543750002,134.19921335,56.0,85.0
977,133.92989543750002,134.2321678625,68.0,76.0
978,133.92989543750002,134.2367133125,60.0,75.0
979,133.92989543750002,134.2492133,63.0,80.0
980,133.92989543750002,134.3946677,51.0,72.0
981,134.3389859375,134.5889856875,56.0,80.0
982,134.4753494375,134.62875837500002,51.0,75.0
983,133.92989543750002,134.66284925000002,44.0,72.0
984,134.3389859375,134.72989463750002,67.0,76.0
985,134.3389859375,134.80603092500002,60.0,82.0
986,134.7480764375,134.9219399,68.0,80.0
987,135.0208034375,135.3980757875,63.0,58.0
988,135.0208034375,135.4867120625,70.0,91.0
989,135.0208034375,135.515121125,58.0,66.0
990,135.0208034375,135.62648465,39.0,78.0
991,135.2935304375,135.68443913750002,46.0,75.0
992,135.5662574375,135.7548936125,51.0,93.0
993,135.7026209375,135.88898438750002,58.0,99.0
994,135.83898443750002,136.0594387625,63.0,70.0
995,135.9753479375,136.0594387625,67.0,44.0
996,135.9753479375,136.11625688750001,65.0,70.0
997,136.11171143750002,136.3367112125,58.0,78.0
998,136.11171143750002,136.4492111,61.0,56.0
999,136.11171143750002,136.51057467500002,68.0,75.0
1000,136.5208019375,136.7298926375,58.0,85.0
1001,136.2480749375,136.7583017,53.0,70.0
1002,136.11171143750002,136.8185289125,46.0,70.0
1003,136.5208019375,136.82307436250002,60.0,85.0
1004,136.5208019375,136.8571652375,63.0,80.0
1005,136.9298924375,137.03898323750002,61.0,61.0
1006,136.9298924375,137.18102855,65.0,93.0
1007,137.2026194375,137.61057357500002,60.0,80.0
1008,137.2026194375,137.62648265,41.0,82.0
1009,137.4753464375,137.7480734375,48.0,55.0
1010,137.7480734375,138.1037549,53.0,72.0
1011,137.2026194375,138.18898208750002,68.0,80.0
1012,138.56625443750002,138.7855724,60.0,85.0
1013,138.83898143750002,138.88329957500002,60.0,43.0
1014,138.29352743750002,138.9003450125,56.0,63.0
1015,138.02080043750001,138.9253449875,55.0,70.0
1016,138.83898143750002,139.042390325,65.0,95.0
1017,139.1117084375,139.3571627375,67.0,60.0
1018,139.3844354375,139.4730717125,63.0,66.0
1019,139.3844354375,139.47761716250002,60.0,63.0
1020,139.3844354375,139.5128444,68.0,69.0
1021,139.3844354375,140.056025675,44.0,55.0
1022,140.2026164375,140.3276163125,44.0,75.0
1023,139.9298894375,140.53216156250002,60.0,61.0
1024,139.9298894375,140.53784337500002,63.0,64.0
1025,139.9298894375,140.55943426250002,68.0,72.0
1026,140.74807043750002,140.82534308750002,60.0,37.0
1027,140.47534343750002,141.1230700625,53.0,63.0
1028,141.29352443750003,141.46397881250002,53.0,67.0
1029,141.02079743750002,141.59806958750002,63.0,72.0
1030,141.02079743750002,141.6048877625,60.0,72.0
1031,141.02079743750002,141.6162513875,68.0,73.0
1032,141.5662514375,142.23102350000002,48.0,63.0
1033,142.1117054375,142.456023275,58.0,58.0
1034,142.1117054375,142.4821596125,67.0,70.0
1035,142.1117054375,142.5128414,63.0,67.0
1036,142.3844324375,142.52988683750002,48.0,60.0
1037,142.6571594375,143.033295425,68.0,62.0
1038,142.6571594375,143.03556815000002,60.0,61.0
1039,142.6571594375,143.05261358750002,65.0,59.0
1040,142.6571594375,143.33102240000002,53.0,70.0
1041,143.47534043750002,143.67420387500002,53.0,60.0
1042,143.20261343750002,143.8117037375,60.0,63.0
1043,143.20261343750002,143.82988553750002,65.0,66.0
1044,143.20261343750002,143.83556735000002,68.0,67.0
1045,143.74806743750003,144.4310213,48.0,75.0
1046,144.5662484375,144.70261193750002,48.0,64.0
1047,144.2935214375,144.70261193750002,63.0,58.0
1048,144.2935214375,144.7548846125,58.0,61.0
1049,144.2935214375,144.84692997500002,67.0,61.0
1050,145.1117024375,145.17988418750002,68.0,48.0
1051,145.1117024375,145.2003387125,60.0,60.0
1052,145.1117024375,145.2003387125,65.0,55.0
1053,144.8389754375,145.51738385000002,53.0,72.0
1054,145.38442943750002,145.77988358750002,60.0,61.0
1055,145.38442943750002,145.796929025,68.0,62.0
1056,145.65715643750002,145.81283810000002,53.0,63.0
1057,145.38442943750002,145.85147442500002,65.0,52.0
1058,145.92988343750002,146.02647425,63.0,63.0
1059,145.92988343750002,146.04011060000002,58.0,61.0
1060,145.92988343750002,146.0764742,67.0,69.0
1061,145.92988343750002,146.5298828375,48.0,51.0
1062,146.4753374375,146.7594280625,58.0,49.0
1063,146.7480644375,146.946927875,48.0,60.0
1064,146.4753374375,146.96851876250003,67.0,59.0
1065,146.4753374375,146.9912460125,63.0,48.0
1066,147.0207914375,147.1185186125,65.0,61.0
1067,147.0207914375,147.12874587500002,60.0,61.0
1068,147.0207914375,147.14465495000002,68.0,61.0
1069,147.0207914375,147.1707912875,53.0,63.0
1070,147.56624543750002,147.8912451125,60.0,61.0
1071,147.56624543750002,147.9310178,53.0,76.0
1072,147.56624543750002,147.97874502500002,68.0,66.0
1073,147.56624543750002,147.99919955000001,65.0,61.0
1074,148.11169943750002,148.628744375,63.0,61.0
1075,148.11169943750002,148.63442618750003,60.0,53.0
1076,148.11169943750002,148.6526079875,68.0,62.0
1077,148.6571534375,148.965107675,56.0,58.0
1078,148.11169943750002,148.9844258375,44.0,51.0
1079,148.3844264375,149.0526075875,51.0,57.0
1080,149.2026074375,149.7912432125,60.0,61.0
1081,149.2026074375,149.81169773750003,41.0,70.0
1082,148.9298804375,149.82192500000002,68.0,67.0
1083,149.4753344375,149.86056132500002,48.0,61.0
1084,149.7480614375,149.9298794375,53.0,58.0
1085,149.7480614375,149.98897028750002,65.0,63.0
1086,150.1571519375,150.2310155,68.0,33.0
1087,150.29351543750002,150.57078788750002,58.0,63.0
1088,150.29351543750002,150.796924025,61.0,63.0
1089,150.29351543750002,150.8230603625,65.0,64.0
1090,150.8389694375,151.01737835,58.0,63.0
1091,150.56624243750002,151.03328742500003,53.0,50.0
1092,150.29351543750002,151.074196475,46.0,67.0
1093,151.1116964375,151.328741675,65.0,48.0
1094,151.24805993750002,151.39351433750002,67.0,49.0
1095,151.3844234375,151.8889683875,68.0,55.0
1096,151.3844234375,152.0026046375,63.0,72.0
1097,151.3844234375,152.006013725,39.0,75.0
1098,151.6571504375,152.05374095000002,46.0,63.0
1099,151.9298774375,152.283286175,51.0,62.0
1100,152.2026044375,152.3401043,58.0,55.0
1101,152.47533143750002,152.9855582,68.0,64.0
1102,152.47533143750002,153.0344217875,60.0,61.0
1103,152.47533143750002,153.0571490375,63.0,67.0
1104,153.02078543750002,153.128739875,56.0,73.0
1105,152.74805843750002,153.14692167500002,51.0,60.0
1106,152.47533143750002,153.1491944,44.0,70.0
1107,153.2935124375,153.460557725,68.0,58.0
1108,153.5662394375,154.1276025125,58.0,64.0
1109,153.5662394375,154.1435115875,63.0,69.0
1110,153.5662394375,154.187829725,67.0,62.0
1111,154.1116934375,154.31737505,51.0,57.0
1112,153.5662394375,154.31964777500002,39.0,75.0
1113,153.8389664375,154.33555685000002,46.0,62.0
1114,154.65714743750002,154.8935108375,58.0,44.0
1115,154.92987443750002,155.23555595000002,65.0,26.0
1116,154.65714743750002,155.24010140000001,61.0,73.0
1117,154.65714743750002,155.40714668750002,37.0,58.0
1118,154.92987443750002,155.50714658750002,44.0,64.0
1119,155.20260143750002,155.610555575,49.0,85.0
1120,155.47532843750002,155.67191915,68.0,60.0
1121,155.7480554375,156.260554925,67.0,64.0
1122,155.7480554375,156.2662367375,58.0,59.0
1123,155.7480554375,156.287827625,63.0,63.0
1124,155.7480554375,156.337827575,39.0,70.0
1125,156.0207824375,156.356009375,46.0,62.0
1126,156.2935094375,156.47987288750002,51.0,64.0
1127,156.8389634375,157.0582814,60.0,60.0
1128,156.8389634375,157.09009955000002,68.0,70.0
1129,156.5662364375,157.094645,63.0,67.0
1130,157.11169043750002,157.49919005,51.0,49.0
1131,156.8389634375,157.51737185000002,44.0,66.0
1132,157.38441743750002,157.5775990625,56.0,58.0
1133,157.65714443750002,157.8548715125,75.0,67.0
1134,157.92987143750003,158.25146202500002,72.0,70.0
1135,157.92987143750003,158.2639620125,63.0,60.0
1136,158.2025984375,158.3753255375,70.0,67.0
1137,157.92987143750003,158.53555265,51.0,55.0
1138,158.2025984375,158.5525980875,55.0,59.0
1139,158.4753254375,158.65600707500002,68.0,62.0
1140,158.7480524375,159.04009760000002,63.0,53.0
1141,159.0207794375,159.6753242375,68.0,64.0
1142,159.0207794375,159.69918785000002,60.0,61.0
1143,159.0207794375,159.71055147500002,41.0,62.0
1144,159.56623343750002,159.73327872500002,53.0,59.0
1145,159.2935064375,159.74918780000002,48.0,59.0
1146,159.83896043750002,160.07305111250002,68.0,69.0
1147,160.11168743750002,160.65373235,63.0,70.0
1148,160.11168743750002,160.67645960000002,67.0,75.0
1149,160.11168743750002,160.746914075,58.0,63.0
1150,160.11168743750002,160.77305041250003,39.0,67.0
1151,160.38441443750003,160.82873217500003,46.0,59.0
1152,160.6571414375,160.851459425,51.0,52.0
1153,160.9298684375,161.2116863375,63.0,62.0
1154,161.2025954375,161.551458725,60.0,60.0
1155,161.2025954375,161.57077688750002,65.0,66.0
1156,161.2025954375,161.85486751250002,41.0,72.0
1157,161.4753224375,161.869640225,48.0,61.0
1158,161.74804943750001,161.9310038,53.0,56.0
1159,162.02077643750002,162.1912308125,63.0,60.0
1160,162.29350343750002,162.4298669375,63.0,42.0
1161,162.29350343750002,162.601457675,72.0,69.0
1162,162.56623043750002,162.84236652500002,70.0,64.0
1163,162.29350343750002,162.8730483125,37.0,69.0
1164,162.56623043750002,162.8855483,44.0,56.0
1165,162.83895743750003,163.0798662875,68.0,61.0
1166,162.83895743750003,163.16054802500003,39.0,59.0
1167,163.1116844375,163.46395681250002,63.0,56.0
1168,163.3844114375,163.6116839375,41.0,66.0
1169,163.6571384375,163.8844109375,41.0,66.0
1170,163.6571384375,163.91736545,48.0,57.0
1171,163.9298654375,164.1571379375,41.0,66.0
1172,163.3844114375,164.183274275,65.0,70.0
1173,163.9298654375,164.25827420000002,53.0,59.0
1174,164.20259243750002,164.3003196125,55.0,55.0
1175,164.20259243750002,164.4298649375,41.0,66.0
1176,164.47531943750002,164.59236477500002,60.0,49.0
1177,164.47531943750002,164.6071374875,41.0,75.0
1178,164.47531943750002,164.75372825000002,65.0,69.0
1179,164.74804643750002,164.75372825000002,65.0,49.0
1180,164.74804643750002,164.87986448750002,60.0,51.0
1181,164.74804643750002,164.8946372,41.0,70.0
1182,165.0207734375,165.151455125,60.0,61.0
1183,165.0207734375,165.15940966250002,41.0,82.0
1184,165.0207734375,165.1662278375,65.0,55.0
1185,165.29350043750003,165.40259123750002,60.0,64.0
1186,165.29350043750003,165.4071366875,65.0,62.0
1187,165.29350043750003,165.41395486250002,41.0,95.0
1188,165.5662274375,165.8344089875,41.0,76.0
1189,165.5662274375,165.8344089875,65.0,62.0
1190,165.8389544375,165.97077248750003,41.0,62.0
1191,165.8389544375,165.97077248750003,65.0,69.0
1192,165.97531793750002,166.10713598750002,41.0,72.0
1193,165.97531793750002,166.10713598750002,65.0,72.0
1194,166.1116814375,166.65258998750002,44.0,60.0
1195,166.1116814375,166.65258998750002,65.0,97.0
1196,166.1116814375,166.65258998750002,68.0,97.0
1197,166.65713543750002,166.92531698750003,41.0,80.0
1198,166.65713543750002,166.92531698750003,65.0,80.0
1199,166.92986243750002,167.0616804875,41.0,93.0
1200,166.92986243750002,167.0616804875,65.0,62.0
1201,167.0662259375,167.1980439875,41.0,88.0
1202,167.0662259375,167.1980439875,65.0,73.0
1203,167.20258943750002,167.7434979875,46.0,76.0
1204,167.20258943750002,167.7434979875,60.0,85.0
1205,167.20258943750002,167.7434979875,65.0,85.0
1206,167.20258943750002,167.7434979875,70.0,85.0
1207,169.38440543750002,169.4309963,61.0,88.0
1208,169.38440543750002,169.44463265000002,49.0,93.0
1209,169.38440543750002,169.44463265000002,56.0,93.0
1210,169.38440543750002,169.4491781,37.0,67.0
1211,169.38440543750002,169.46281445,65.0,91.0
1212,169.5207689375,169.82758681250002,58.0,93.0
1213,169.5207689375,169.837814075,39.0,70.0
1214,169.5207689375,169.837814075,63.0,95.0
1215,169.5207689375,169.8548595125,67.0,78.0
1216,169.9298594375,170.08099565,68.0,76.0
1217,169.9298594375,170.087813825,63.0,70.0
1218,169.9298594375,170.09122291250003,56.0,69.0
1219,169.9298594375,170.09917745,44.0,75.0
1220,170.2025864375,170.2639500125,63.0,62.0
1221,170.2025864375,170.265086375,68.0,70.0
1222,170.2025864375,170.40485896250001,56.0,70.0
1223,170.33894993750002,170.4071316875,63.0,54.0
1224,170.33894993750002,170.41735895000002,68.0,75.0
1225,170.2025864375,170.4298589375,44.0,69.0
1226,170.4753134375,170.81735855000002,51.0,76.0
1227,170.4753134375,170.81735855000002,68.0,73.0
1228,170.4753134375,170.84917670000002,63.0,82.0
1229,171.0207674375,171.196903625,70.0,64.0
1230,171.0207674375,171.21281270000003,63.0,82.0
1231,171.0207674375,171.21281270000003,67.0,78.0
1232,171.0207674375,171.2309945,51.0,75.0
1233,171.0207674375,171.26281265,39.0,75.0
1234,171.29349443750002,171.33213076250001,70.0,51.0
1235,171.29349443750002,171.346903475,67.0,61.0
1236,171.29349443750002,171.39463070000002,51.0,67.0
1237,171.29349443750002,171.42303976250003,39.0,76.0
1238,171.29349443750002,171.46167608750002,63.0,55.0
1239,171.4298579375,171.469630625,67.0,53.0
1240,171.4298579375,171.47190335000002,70.0,54.0
1241,171.56622143750002,171.9844028375,63.0,76.0
1242,171.56622143750002,172.00031191250002,67.0,75.0
1243,171.56622143750002,172.01053917500002,70.0,72.0
1244,171.56622143750002,172.0503118625,46.0,63.0
1245,174.29349143750002,174.58780932500002,60.0,75.0
1246,174.29349143750002,174.6116729375,63.0,78.0
1247,174.29349143750002,174.61394566250002,68.0,80.0
1248,174.7025819375,174.90030901250003,56.0,63.0
1249,174.29349143750002,174.98099075000002,44.0,73.0
1250,174.56621843750003,175.037808875,51.0,62.0
1251,174.7025819375,175.05939976250002,67.0,69.0
1252,174.7025819375,175.1684905625,60.0,85.0
1253,175.1116724375,175.46508117500002,68.0,76.0
1254,175.3843994375,175.67758096250003,37.0,70.0
1255,175.3843994375,175.701444575,56.0,72.0
1256,175.3843994375,175.7298536375,49.0,85.0
1257,175.3843994375,175.8128081,65.0,76.0
1258,175.3843994375,175.84121716250002,61.0,76.0
1259,175.92985343750001,176.13098960000002,58.0,85.0
1260,175.92985343750001,176.1400805,63.0,67.0
1261,175.92985343750001,176.1400805,67.0,76.0
1262,175.92985343750001,176.14689867500002,51.0,78.0
1263,175.92985343750001,176.3048530625,39.0,72.0
1264,176.20258043750002,176.36848936250001,51.0,64.0
1265,176.47530743750002,176.72530718750002,60.0,78.0
1266,176.47530743750002,176.755988975,65.0,72.0
1267,176.47530743750002,176.7662162375,68.0,78.0
1268,176.8843979375,177.04462505,58.0,76.0
1269,176.8843979375,177.2616702875,67.0,75.0
1270,176.47530743750002,177.37985198750002,41.0,73.0
1271,177.02076143750003,177.4162155875,53.0,56.0
1272,177.2934884375,177.4218974,60.0,73.0
1273,177.2934884375,177.4491701,68.0,82.0
1274,176.74803443750002,177.54235182500003,48.0,66.0
1275,177.5662154375,177.69007895000001,60.0,72.0
1276,177.5662154375,177.7275789125,67.0,67.0
1277,177.5662154375,177.76962432500002,41.0,66.0
1278,178.1116694375,178.13553305000002,49.0,52.0
1279,178.1116694375,178.17871482500001,56.0,76.0
1280,178.1116694375,178.192351175,61.0,76.0
1281,178.1116694375,178.20712388750002,65.0,80.0
1282,178.1116694375,178.21394206250002,37.0,82.0
1283,178.2480329375,178.63098710000003,39.0,97.0
1284,178.2480329375,178.637805275,67.0,78.0
1285,178.2480329375,178.6491689,58.0,91.0
1286,178.2480329375,178.6582598,63.0,95.0
1287,178.65712343750002,178.6582598,63.0,91.0
1288,178.65712343750002,179.00825945000003,68.0,78.0
1289,178.65712343750002,179.03439578750002,60.0,88.0
1290,178.65712343750002,179.2934864375,56.0,95.0
1291,179.2025774375,179.4025772375,63.0,82.0
1292,178.65712343750002,179.4389408375,44.0,75.0
1293,179.2025774375,179.446895375,60.0,75.0
1294,179.47530443750003,179.5662134375,51.0,61.0
1295,179.2025774375,179.66166788750002,68.0,80.0
1296,179.7480314375,179.78439503750002,51.0,54.0
1297,179.7480314375,180.0275766125,56.0,97.0
1298,179.7480314375,180.20712188750002,37.0,69.0
1299,179.7480314375,180.22303096250002,65.0,75.0
1300,179.7480314375,180.265076375,61.0,82.0
1301,179.7480314375,180.35712173750002,49.0,45.0
1302,180.2934854375,180.5207579375,67.0,73.0
1303,180.2934854375,180.5253033875,58.0,75.0
1304,180.2934854375,180.53553065,63.0,76.0
1305,180.2934854375,180.569621525,39.0,73.0
1306,180.7025759375,180.7593940625,63.0,43.0
1307,180.83893943750002,180.965075675,60.0,85.0
1308,180.83893943750002,180.96734840000002,56.0,80.0
1309,180.83893943750002,180.97189385000001,65.0,76.0
1310,180.83893943750002,180.99916655,53.0,69.0
1311,180.83893943750002,181.00825745000003,41.0,73.0
1312,181.11166643750002,181.16393911250003,60.0,88.0
1313,181.11166643750002,181.19916635,41.0,66.0
1314,181.11166643750002,181.20143907500002,56.0,75.0
1315,181.11166643750002,181.2037118,53.0,63.0
1316,181.11166643750002,181.215075425,65.0,70.0
1317,181.2480299375,181.3025753375,41.0,49.0
1318,181.2480299375,181.31734805000002,60.0,70.0
1319,181.2480299375,181.34575711250002,53.0,48.0
1320,181.38439343750002,181.7321203625,68.0,85.0
1321,181.38439343750002,181.7753021375,60.0,93.0
1322,181.38439343750002,181.79007485000002,44.0,106.0
1323,181.38439343750002,181.80030211250002,63.0,93.0
1324,181.92984743750003,182.05484731250002,63.0,70.0
1325,181.92984743750003,182.0684836625,60.0,85.0
1326,181.92984743750003,182.0753018375,56.0,67.0
1327,181.92984743750003,182.09916545000002,53.0,67.0
1328,181.92984743750003,182.10825635,41.0,73.0
1329,182.2025744375,182.26621073750002,60.0,75.0
1330,182.2025744375,182.27871072500002,56.0,72.0
1331,182.2025744375,182.39916515000002,53.0,66.0
1332,182.33893793750002,182.40711968750003,60.0,75.0
1333,182.2025744375,182.4128015,41.0,78.0
1334,182.2025744375,182.41734695000002,63.0,75.0
1335,182.33893793750002,182.42189240000002,56.0,58.0
1336,182.4753014375,182.842346525,53.0,70.0
1337,182.4753014375,182.9343918875,56.0,76.0
1338,182.4753014375,182.93893733750002,60.0,88.0
1339,182.4753014375,182.97643730000001,65.0,78.0
1340,182.4753014375,182.99348273750002,41.0,76.0
1341,183.02075543750001,183.1582553,68.0,69.0
1342,183.02075543750001,183.16280075000003,60.0,66.0
1343,183.02075543750001,183.1639371125,63.0,70.0
1344,183.29348243750002,183.41734595000003,68.0,63.0
1345,183.29348243750002,183.43211866250002,60.0,61.0
1346,183.29348243750002,183.43893683750002,63.0,69.0
1347,183.56620943750002,183.67757296250002,60.0,62.0
1348,183.56620943750002,183.68439113750003,68.0,76.0
1349,183.56620943750002,183.68780022500002,63.0,66.0
1350,183.02075543750001,183.719618375,44.0,67.0
1351,183.83893643750002,183.90370910000001,63.0,44.0
1352,183.83893643750002,183.97302721250003,60.0,59.0
1353,183.83893643750002,184.0002999125,68.0,73.0
1354,184.1116634375,184.23893603750003,56.0,73.0
1355,184.1116634375,184.24461785,65.0,67.0
1356,184.1116634375,184.24802693750001,61.0,62.0
1357,184.1116634375,184.42075403750002,37.0,67.0
1358,184.1116634375,184.50598122500003,49.0,70.0
1359,184.38439043750003,184.52757211250002,61.0,67.0
1360,184.38439043750003,184.53779937500002,56.0,70.0
1361,184.38439043750003,184.58666296250001,65.0,66.0
1362,184.6571174375,184.7957536625,51.0,75.0
1363,184.6571174375,184.8025718375,58.0,72.0
1364,184.6571174375,184.8025718375,67.0,76.0
1365,184.6571174375,184.82189000000002,63.0,72.0
1366,184.6571174375,185.02643525000002,39.0,72.0
1367,184.9298444375,185.04802613750002,63.0,63.0
1368,184.9298444375,185.06052612500002,58.0,64.0
1369,184.9298444375,185.06620793750002,51.0,82.0
1370,184.9298444375,185.0684806625,67.0,64.0
1371,185.201435075,185.48325297500003,60.0,70.0
1372,185.201435075,185.5298438375,68.0,76.0
1373,185.6116619375,185.69802548750002,68.0,49.0
1374,185.6116619375,185.89916165000002,60.0,70.0
1375,185.6116619375,185.91961617500002,67.0,64.0
1376,185.74802543750002,186.07188875000003,53.0,37.0
1377,185.201435075,186.10825235000001,41.0,76.0
1378,185.33893493750003,186.25370675000002,48.0,47.0
1379,186.02075243750002,186.30484306250003,63.0,73.0
1380,186.29347943750003,186.58097915000002,60.0,70.0
1381,186.29347943750003,186.6002973125,65.0,70.0
1382,186.4298429375,186.69916085,48.0,63.0
1383,186.70256993750002,186.97529693750002,58.0,66.0
1384,186.70256993750002,186.99234237500002,53.0,70.0
1385,186.70256993750002,187.04688777500002,63.0,67.0
1386,186.29347943750003,187.155978575,41.0,61.0
1387,186.97529693750002,187.205978525,48.0,40.0
1388,187.1116604375,187.22984213750001,60.0,54.0
1389,187.1116604375,187.3218875,63.0,67.0
1390,187.3843874375,188.0400686,68.0,70.0
1391,187.3843874375,188.0889321875,63.0,76.0
1392,187.3843874375,188.0957503625,60.0,72.0
1393,187.92984143750002,188.11847761250002,56.0,60.0
1394,187.3843874375,188.1957502625,44.0,72.0
1395,188.20256843750002,188.428704575,68.0,73.0
1396,188.47529543750002,188.73779517500003,63.0,72.0
1397,188.47529543750002,188.86393141250002,58.0,64.0
1398,188.47529543750002,188.8764314,67.0,76.0
1399,189.0207494375,189.16847656250002,63.0,70.0
1400,189.0207494375,189.17529473750002,58.0,75.0
1401,188.47529543750002,189.18552200000002,39.0,75.0
1402,188.47529543750002,189.187794725,51.0,78.0
1403,189.5662034375,189.72415782500002,60.0,75.0
1404,189.5662034375,189.72643055000003,41.0,88.0
1405,189.5662034375,189.73438508750002,65.0,76.0
1406,189.8389304375,189.8889303875,60.0,56.0
1407,189.8389304375,189.9002940125,65.0,72.0
1408,189.8389304375,189.91506672500003,41.0,72.0
1409,189.9752939375,190.0162029875,60.0,49.0
1410,189.9752939375,190.05711203750002,41.0,70.0
1411,189.9752939375,190.065066575,65.0,76.0
1412,190.1116574375,190.47870252500002,68.0,70.0
1413,190.1116574375,190.487793425,63.0,66.0
1414,190.1116574375,190.49006615000002,60.0,76.0
1415,190.1116574375,190.52529338750003,44.0,82.0
1416,190.65711143750002,190.75824770000003,60.0,69.0
1417,190.65711143750002,190.76961132500003,65.0,82.0
1418,190.65711143750002,190.7889294875,41.0,76.0
1419,190.92983843750002,190.9934747375,60.0,55.0
1420,190.92983843750002,191.00256563750003,65.0,78.0
1421,190.92983843750002,191.0275656125,41.0,72.0
1422,191.0662019375,191.1321109625,65.0,67.0
1423,191.0662019375,191.1389291375,60.0,54.0
1424,191.20256543750003,191.59120141250003,68.0,75.0
1425,191.20256543750003,191.5980195875,41.0,95.0
1426,191.20256543750003,191.64461045000002,60.0,73.0
1427,191.20256543750003,191.6491559,65.0,73.0
1428,191.7480194375,192.0366555125,68.0,73.0
1429,191.7480194375,192.0548373125,60.0,73.0
1430,191.7480194375,192.05597367500002,63.0,67.0
1431,192.15710993750002,192.3491552,68.0,70.0
1432,192.15710993750002,192.38324607500002,56.0,63.0
1433,192.15710993750002,192.4480187375,63.0,76.0
1434,191.7480194375,192.4764278,44.0,70.0
1435,192.15710993750002,192.47870052500002,60.0,76.0
1436,192.0207464375,192.49915505,51.0,62.0
1437,192.56620043750002,192.8037002,68.0,70.0
1438,192.83892743750002,193.09460900000002,63.0,72.0
1439,192.83892743750002,193.119608975,58.0,69.0
1440,192.83892743750002,193.13892713750002,67.0,73.0
1441,192.83892743750002,193.24460885000002,51.0,82.0
1442,192.83892743750002,193.4752904375,39.0,73.0
1443,193.2480179375,193.5480176375,58.0,75.0
1444,193.2480179375,193.5752903375,63.0,80.0
1445,193.38438143750002,193.59119941250003,51.0,58.0
1446,193.65710843750003,193.8480173375,58.0,62.0
1447,193.9298354375,194.06847166250003,58.0,54.0
1448,193.9298354375,194.2298351375,60.0,70.0
1449,193.9298354375,194.23892603750002,63.0,75.0
1450,194.33892593750002,194.52074393750001,60.0,67.0
1451,194.33892593750002,194.7071073875,65.0,64.0
1452,194.33892593750002,194.824152725,48.0,66.0
1453,194.7480164375,194.946879875,63.0,63.0
1454,194.7480164375,194.96733440000003,58.0,67.0
1455,194.7480164375,195.0980160875,53.0,61.0
1456,195.02074343750002,195.16619783750002,60.0,80.0
1457,195.02074343750002,195.2071068875,65.0,72.0
1458,195.15710693750003,195.3184704125,53.0,54.0
1459,195.4298339375,195.59006105000003,53.0,67.0
1460,195.29347043750002,195.61619738750002,60.0,66.0
1461,195.29347043750002,195.6684700625,65.0,66.0
1462,195.02074343750002,195.674151875,48.0,61.0
1463,193.9298354375,195.67869732500003,41.0,75.0
1464,196.11165143750003,196.47756016250003,68.0,76.0
1465,196.11165143750003,196.49006015,60.0,69.0
1466,196.11165143750003,196.51733285,63.0,72.0
1467,196.11165143750003,196.75369625000002,56.0,67.0
1468,196.11165143750003,196.83210526250002,51.0,69.0
1469,196.11165143750003,196.83551435,44.0,61.0
1470,196.52074193750002,196.85483251250002,60.0,63.0
1471,196.9298324375,197.3048320625,68.0,72.0
1472,197.2025594375,197.5653838,63.0,70.0
1473,197.2025594375,197.58212486250002,58.0,67.0
1474,197.2025594375,197.598865925,67.0,70.0
1475,197.2025594375,197.83212472916668,51.0,72.0
1476,197.74283906250002,198.01516034583335,58.0,63.0
1477,197.2025594375,198.05757103750003,39.0,70.0
1478,197.74283906250002,198.19596382083336,63.0,70.0
1479,198.01069606250002,198.19707989166668,51.0,85.0
1480,198.2785530625,198.64574036666667,60.0,66.0
1481,198.2785530625,198.69373141250003,65.0,70.0
1482,198.81426706250002,199.08435620416668,60.0,70.0
1483,199.08212406250001,199.08435620416668,60.0,53.0
1484,198.81426706250002,199.24172219166667,68.0,76.0
1485,199.08212406250001,199.31984715000002,67.0,69.0
1486,199.3499810625,199.66582910833336,53.0,56.0
1487,199.3499810625,199.79417725416667,63.0,69.0
1488,199.88569506250002,200.0051146416667,53.0,69.0
1489,198.2785530625,200.01404320833336,41.0,75.0
1490,199.88569506250002,200.03859676666667,65.0,72.0
1491,198.5464100625,200.06761460833334,48.0,48.0
1492,200.4214090625,200.8589088291667,53.0,55.0
1493,200.4214090625,201.02520338333335,63.0,64.0
1494,200.4214090625,201.11002476666667,60.0,61.0
1495,200.4214090625,201.11560512083335,68.0,62.0
1496,200.95712306250002,201.121185475,53.0,78.0
1497,200.4214090625,201.1669443791667,41.0,69.0
1498,201.49283706250003,201.8257711,51.0,52.0
1499,201.49283706250003,202.050770875,67.0,66.0
1500,201.49283706250003,202.0712254,63.0,63.0
1501,202.0337254375,202.150770775,51.0,64.0
1502,201.49283706250003,202.1723616625,58.0,60.0
1503,201.49283706250003,202.191679825,39.0,64.0
1504,202.57917943750002,202.90645183750001,49.0,67.0
1505,202.57917943750002,203.1223607125,56.0,63.0
1506,202.57917943750002,203.22122425,65.0,62.0
1507,203.1246334375,203.2257697,49.0,85.0
1508,202.57917943750002,203.2359969625,61.0,67.0
1509,202.57917943750002,203.268951475,37.0,73.0
1510,203.6700874375,203.96667805,48.0,73.0
1511,203.6700874375,204.2973595375,67.0,63.0
1512,203.6700874375,204.3132686125,36.0,73.0
1513,204.2155414375,204.3348595,48.0,91.0
1514,203.6700874375,204.3359958625,58.0,64.0
1515,203.6700874375,204.341677675,63.0,75.0
1516,204.76099543750001,206.4700846375,60.0,88.0
1517,204.76099543750001,206.4803119,65.0,88.0
1518,204.76099543750001,206.4950846125,68.0,76.0
1519,204.76099543750001,206.8519024375,41.0,72.0
1520,204.76099543750001,206.8621297,53.0,82.0
1521,206.9428114375,207.22690206250002,89.0,62.0
1522,206.9428114375,207.3564473875,53.0,72.0
1523,206.9428114375,207.3564473875,77.0,58.0
1524,206.9428114375,207.3609928375,41.0,73.0
