,start,end,pitch,velocity
0,19.727224,19.968890666666667,69.0,93.0
1,19.977224,20.468890666666667,71.0,82.0
2,20.477224,20.718890666666667,69.0,76.0
3,20.727224,21.718890666666667,71.0,77.0
4,21.727224,21.968890666666667,67.0,91.0
5,21.977224,22.218890666666667,69.0,69.0
6,22.227224,22.468890666666667,71.0,80.0
7,22.477224,22.718890666666667,72.0,88.0
8,22.727224,23.218890666666667,74.0,73.0
9,23.227224,23.468890666666667,72.0,80.0
10,23.477224,24.218890666666667,72.0,85.0
11,24.227224,24.468890666666667,72.0,69.0
12,24.477224,25.218890666666667,71.0,66.0
13,25.227224,25.468890666666667,69.0,66.0
14,25.477224,25.968890666666667,67.0,76.0
15,25.977224,27.468890666666667,69.0,63.0
16,27.477224,27.718890666666667,62.0,82.0
17,27.727224,27.968890666666667,69.0,76.0
18,27.977224,28.468890666666667,71.0,85.0
19,28.477224,28.718890666666667,69.0,80.0
20,28.727224,29.718890666666667,71.0,73.0
21,29.727224,30.218890666666667,67.0,91.0
22,30.227224,30.718890666666667,76.0,69.0
23,30.727224,31.218890666666667,74.0,97.0
24,31.227224,31.468890666666667,72.0,78.0
25,31.477224,32.21889066666667,72.0,88.0
26,32.227224,32.46889066666667,72.0,61.0
27,32.477224,32.71889066666667,74.0,69.0
28,32.727224,33.21889066666667,71.0,67.0
29,33.227224,33.46889066666667,69.0,66.0
30,33.477224,34.21889066666667,71.0,85.0
31,34.227224,34.46889066666667,69.0,93.0
32,34.477224,35.46889066666667,67.0,95.0
33,35.477224,35.71889066666667,67.0,82.0
34,35.727224,35.96889066666667,79.0,70.0
35,35.977224,36.222456808333334,79.0,75.0
36,36.230931375,36.47669380833333,78.0,99.0
37,36.485168375,36.73093080833333,79.0,70.0
38,36.739405375,37.23940480833333,78.0,101.0
39,37.247879375,37.49364180833334,74.0,85.0
40,37.502116375,38.510589808333336,74.0,95.0
41,38.519064375,38.76482680833333,67.0,97.0
42,38.773301375,39.27330080833333,76.0,99.0
43,39.281775375,39.527537808333335,74.0,85.0
44,39.536012375,39.78177480833333,74.0,93.0
45,39.790249375,40.283233306250004,74.0,93.0
46,40.29143003125,40.529135056250006,74.0,97.0
47,40.53733178125,42.289381750000004,74.0,88.0
48,42.25864403125,42.498398237500005,69.0,88.0
49,42.50454578125,42.729955718750006,71.0,66.0
50,42.75044753125,42.96766074375,72.0,76.0
51,42.996349281250005,43.23542033333334,71.0,82.0
52,43.245837,43.49375366666667,72.0,76.0
53,43.49375366666667,45.722920333333334,79.0,80.0
54,45.745837,46.11250366666667,67.0,91.0
55,45.995837,46.36250366666667,69.0,82.0
56,46.495837,46.73750366666667,71.0,85.0
57,46.745837,47.48750366666667,71.0,93.0
58,47.495837,47.61250366666667,72.0,70.0
59,47.745837,47.86250366666667,71.0,69.0
60,47.745837,49.73750366666667,69.0,93.0
61,49.745837,50.23750366666667,71.0,85.0
62,50.245837,50.48750366666667,69.0,73.0
63,50.495837,51.73750366666667,67.0,64.0
64,51.745837,51.98750366666667,69.0,93.0
65,51.995837,52.48750366666667,71.0,82.0
66,52.495837,52.73750366666667,69.0,76.0
67,52.745837,53.73750366666667,71.0,77.0
68,53.745837,53.98750366666667,67.0,91.0
69,53.995837,54.23750366666667,69.0,69.0
70,54.245837,54.48750366666667,71.0,80.0
71,54.495837,54.73542033333334,72.0,88.0
72,54.745837,55.23750366666667,74.0,73.0
73,55.245837,55.48750366666667,72.0,80.0
74,55.495837,56.23750366666667,72.0,85.0
75,56.245837,56.48750366666667,72.0,69.0
76,56.495837,57.23750366666667,71.0,66.0
77,57.245837,57.48750366666667,69.0,66.0
78,57.495837,57.98750366666667,67.0,76.0
79,57.995837,59.48750366666667,69.0,63.0
80,59.495837,59.73750366666667,62.0,82.0
81,59.745837,59.98750366666667,69.0,76.0
82,59.995837,60.48750366666667,71.0,85.0
83,60.495837,60.73750366666667,69.0,80.0
84,60.745837,61.73750366666667,71.0,73.0
85,61.745837,62.23750366666667,67.0,91.0
86,62.245837,62.73750366666667,76.0,69.0
87,62.745837,63.23750366666667,74.0,97.0
88,63.245837,63.48750366666667,72.0,78.0
89,63.495837,64.23750366666667,72.0,88.0
90,64.245837,64.48750366666667,72.0,61.0
91,64.495837,64.73750366666667,74.0,69.0
92,64.745837,65.23750366666667,71.0,67.0
93,65.245837,65.48750366666667,69.0,66.0
94,65.495837,66.23750366666667,71.0,85.0
95,66.245837,66.48750366666667,69.0,93.0
96,66.495837,67.48750366666667,67.0,95.0
97,67.495837,67.73750366666667,67.0,82.0
98,67.745837,68.23750366666667,79.0,70.0
99,68.245837,68.48750366666667,78.0,99.0
100,68.495837,69.23750366666667,78.0,101.0
101,69.245837,69.73750366666667,74.0,85.0
102,69.745837,69.98750366666667,74.0,95.0
103,69.995837,70.48750366666667,71.0,95.0
104,70.495837,70.73750366666667,67.0,97.0
105,70.745837,71.23750366666667,76.0,99.0
106,71.245837,71.48750366666667,74.0,85.0
107,71.495837,71.98750366666667,74.0,93.0
108,71.995837,72.24106980833332,72.0,93.0
109,72.249544375,72.49530680833332,74.0,97.0
110,72.50378137499999,72.74954380833333,72.0,88.0
111,72.75801837499999,74.31522,74.0,88.0
112,74.283440375,74.53132145,69.0,88.0
113,74.537677375,74.77072795833332,71.0,66.0
114,74.79191437499999,75.01649039166666,72.0,76.0
115,75.046151375,75.28626433333332,71.0,82.0
116,75.29668099999999,75.54459766666666,72.0,76.0
117,75.54459766666666,77.60501433333333,79.0,80.0
118,77.54668099999999,77.77584766666666,76.0,101.0
119,77.79668099999999,78.196681,79.0,91.0
120,78.29668099999999,78.67376433333332,81.0,103.0
121,78.79668099999999,81.56334766666666,81.0,99.0
122,81.79668099999999,82.22584766666665,79.0,99.0
123,82.29668099999999,82.696681,81.0,97.0
124,82.79668099999999,83.15501433333333,83.0,103.0
125,83.29668099999999,83.59668099999999,83.0,103.0
126,83.79668099999999,84.11959766666666,83.0,106.0
127,84.29668099999999,84.45709766666666,83.0,99.0
128,84.54668099999999,85.19876433333333,84.0,109.0
129,85.29668099999999,85.64876433333333,83.0,99.0
130,85.54668099999999,85.64876433333333,83.0,97.0
131,86.04668099999999,86.452931025,83.0,97.0
132,86.77349556249999,87.05575364583332,81.0,106.0
133,87.0154310625,87.48922141666665,79.0,93.0
134,87.74123756249999,88.14674833333333,79.0,97.0
135,88.232165,88.49883166666666,76.0,106.0
136,88.482165,89.93714276666667,83.0,101.0
137,90.252820375,90.36934566666666,74.0,99.0
138,90.50705737499999,90.70197240833333,74.0,95.0
139,90.76129437499999,91.00493816666666,76.0,95.0
140,91.015531375,91.29939433333332,79.0,101.0
141,91.516061,91.62856099999999,79.0,80.0
142,91.766061,92.15981099999999,79.0,97.0
143,92.266061,92.49522766666666,76.0,91.0
144,92.516061,92.93272766666666,74.0,97.0
145,92.766061,92.93272766666666,74.0,103.0
146,93.016061,93.25147766666666,83.0,97.0
147,93.516061,93.80356099999999,83.0,93.0
148,93.766061,93.80356099999999,83.0,106.0
149,94.266061,94.57022766666665,81.0,103.0
150,94.516061,94.82439433333333,79.0,101.0
151,95.266061,95.36814433333333,79.0,99.0
152,95.516061,95.62856099999999,79.0,93.0
153,95.766061,96.19939433333333,79.0,99.0
154,96.266061,96.49314433333333,76.0,103.0
155,96.516061,97.55772766666666,81.0,101.0
156,97.766061,98.23272766666666,79.0,101.0
157,98.266061,98.62647766666666,81.0,97.0
158,98.766061,99.03481099999999,83.0,103.0
159,99.266061,99.46814433333333,83.0,106.0
160,99.516061,99.68689433333333,83.0,99.0
161,99.766061,100.06397766666666,83.0,97.0
162,100.266061,100.43897766666666,83.0,91.0
163,100.516061,100.79522766666666,83.0,80.0
164,100.766061,101.328561,84.0,97.0
165,101.266061,101.50564433333332,83.0,95.0
166,101.516061,101.95147766666666,83.0,97.0
167,102.016061,102.45147766666666,83.0,97.0
168,102.766061,102.98272766666666,81.0,101.0
169,103.016061,103.57022766666665,79.0,88.0
170,103.766061,104.32439433333333,79.0,99.0
171,104.266061,104.422311,81.0,99.0
172,104.516061,105.666061,81.0,97.0
173,106.266061,106.372311,74.0,99.0
174,106.516061,106.703561,74.0,97.0
175,106.766061,107.06397766666666,76.0,95.0
176,107.016061,107.30147766666666,79.0,101.0
177,107.516061,107.61189433333332,79.0,60.0
178,107.766061,108.13272766666665,79.0,82.0
179,108.266061,108.43689433333333,76.0,85.0
180,108.516061,108.69314433333332,74.0,97.0
181,108.766061,109.016061,74.0,85.0
182,109.266061,109.49939433333333,83.0,88.0
183,109.516061,109.91606099999998,83.0,85.0
184,109.766061,109.91606099999998,83.0,97.0
185,110.266061,110.70147766666666,81.0,97.0
186,110.516061,110.95147766666666,79.0,97.0
187,111.26397766666666,111.71189433333333,76.0,99.0
188,111.766061,113.38897766666666,79.0,82.0
189,115.766061,116.00772766666665,69.0,93.0
190,116.016061,116.25772766666665,71.0,82.0
191,116.266061,116.50772766666665,69.0,82.0
192,116.516061,117.75772766666665,71.0,77.0
193,117.766061,118.00772766666665,67.0,91.0
194,118.016061,118.25772766666665,69.0,69.0
195,118.266061,118.50772766666665,71.0,80.0
196,118.516061,118.75772766666665,72.0,88.0
197,118.766061,119.25772766666665,74.0,73.0
198,119.266061,119.50772766666665,72.0,80.0
199,119.516061,120.00772766666665,72.0,85.0
200,120.016061,120.75772766666665,79.0,77.0
201,120.766061,121.25772766666665,72.0,85.0
202,121.266061,121.50772766666665,71.0,66.0
203,121.516061,122.00772766666665,69.0,76.0
204,122.016061,123.75772766666665,71.0,63.0
205,123.766061,124.00772766666665,69.0,76.0
206,124.016061,124.50772766666665,71.0,85.0
207,124.516061,124.75772766666665,69.0,80.0
208,124.766061,125.75772766666665,71.0,73.0
209,125.766061,126.25772766666665,67.0,91.0
210,126.266061,126.75772766666665,76.0,69.0
211,126.766061,127.25772766666665,74.0,97.0
212,127.266061,127.50772766666665,72.0,78.0
213,127.516061,128.25772766666665,72.0,88.0
214,128.26606099999998,128.50772766666665,72.0,87.0
215,128.51606099999998,128.75772766666665,74.0,69.0
216,128.76606099999998,129.25772766666665,71.0,67.0
217,129.26606099999998,129.50772766666665,69.0,66.0
218,129.51606099999998,130.25772766666665,71.0,85.0
219,130.26606099999998,130.50772766666665,69.0,83.0
220,130.51606099999998,131.50772766666665,67.0,85.0
221,131.51606099999998,131.75772766666665,67.0,82.0
222,131.76606099999998,132.25772766666665,79.0,70.0
223,132.26606099999998,132.50772766666665,78.0,84.0
224,132.51606099999998,133.25772766666665,78.0,70.0
225,133.26606099999998,133.75772766666665,76.0,85.0
226,133.76606099999998,134.00772766666665,74.0,81.0
227,134.01606099999998,134.50772766666665,71.0,81.0
228,134.51606099999998,134.75772766666665,67.0,83.0
229,134.76606099999998,135.25772766666665,76.0,85.0
230,135.26606099999998,135.50772766666665,74.0,85.0
231,135.51606099999998,136.00772766666665,74.0,93.0
232,136.01606099999998,136.25772766666665,74.0,97.0
233,136.26606099999998,136.50772766666665,72.0,88.0
234,136.51606099999998,138.25772766666665,74.0,88.0
235,138.26606099999998,138.50772766666665,69.0,88.0
236,138.51606099999998,138.75772766666665,71.0,66.0
237,138.76397766666668,139.00772766666665,72.0,76.0
238,139.01606099999998,139.25772766666665,71.0,82.0
239,139.26606099999998,139.50772766666665,72.0,76.0
240,139.51606099999998,141.50772766666665,79.0,80.0
241,141.51606099999998,141.75772766666665,76.0,101.0
242,141.76606099999998,142.25772766666665,79.0,91.0
243,142.26606099999998,142.75772766666665,81.0,103.0
244,142.76606099999998,145.75772766666665,81.0,99.0
245,145.76606099999998,146.25772766666665,79.0,99.0
246,146.26606099999998,146.75772766666665,81.0,97.0
247,146.76606099999998,147.25772766666665,83.0,103.0
248,147.26606099999998,147.75772766666665,83.0,103.0
249,147.76606099999998,148.2612938083333,83.0,106.0
250,148.26976837499998,148.51553080833332,83.0,99.0
251,148.52400537499997,149.27824180833332,84.0,109.0
252,149.28671637499997,149.5324788083333,83.0,99.0
253,149.540953375,150.04095280833332,83.0,97.0
254,150.049427375,150.8036638083333,83.0,97.0
255,150.812138375,151.0579008083333,81.0,106.0
256,151.06637537499998,151.82061180833333,79.0,93.0
257,151.82908637499997,152.32551966666665,79.0,97.0
258,152.33385299999998,152.57551966666665,76.0,106.0
259,152.58385299999998,154.32551966666665,83.0,101.0
260,154.33385299999998,154.57551966666665,74.0,99.0
261,154.58385299999998,154.82551966666665,74.0,95.0
262,154.83385299999998,155.07551966666665,76.0,95.0
263,155.08385299999998,155.57551966666665,79.0,101.0
264,155.58385299999998,155.82551966666665,79.0,80.0
265,155.83385299999998,156.32551966666665,79.0,97.0
266,156.33385299999998,156.57551966666665,76.0,91.0
267,156.58385299999998,156.82551966666665,74.0,97.0
268,156.83385299999998,157.07551966666665,74.0,103.0
269,157.08385299999998,157.57551966666665,83.0,97.0
270,157.58385299999998,157.82551966666665,83.0,93.0
271,157.83385299999998,158.32551966666665,83.0,106.0
272,158.33385299999998,158.57551966666665,81.0,103.0
273,158.58385299999998,159.32551966666665,79.0,101.0
274,159.33385299999998,159.57551966666665,79.0,99.0
275,159.58385299999998,159.82551966666665,79.0,93.0
276,159.83385299999998,160.07551966666665,79.0,99.0
277,160.08385299999998,160.82551966666665,83.0,103.0
278,160.83385299999998,161.32551966666665,83.0,101.0
279,161.33385299999998,161.82551966666665,81.0,101.0
280,161.83385299999998,162.32551966666665,79.0,101.0
281,162.33385299999998,162.82551966666665,81.0,97.0
282,162.83385299999998,163.32551966666665,83.0,103.0
283,163.33385299999998,163.57551966666665,83.0,106.0
284,163.58385299999998,163.82551966666665,83.0,99.0
285,163.83385299999998,164.32551966666665,83.0,97.0
286,164.33385299999998,164.57551966666665,83.0,91.0
287,164.58385299999998,164.82551966666665,83.0,80.0
288,164.83385299999998,165.32551966666665,84.0,97.0
289,165.33385299999998,165.57551966666665,83.0,95.0
290,165.58385299999998,166.07551966666665,83.0,97.0
291,166.08385299999998,166.82551966666665,83.0,97.0
292,166.83385299999998,167.07551966666665,81.0,101.0
293,167.08385299999998,167.82551966666665,79.0,88.0
294,167.83385299999998,168.32551966666665,79.0,99.0
295,168.33385299999998,168.57551966666665,81.0,99.0
296,168.58385299999998,170.32551966666665,81.0,97.0
297,170.33385299999998,170.57551966666665,74.0,99.0
298,170.58385299999998,170.82551966666665,74.0,97.0
299,170.83385299999998,171.07551966666665,76.0,95.0
300,171.33385299999998,171.58385299999998,79.0,101.0
301,171.58385299999998,171.82551966666665,79.0,60.0
302,171.83385299999998,172.32551966666665,79.0,82.0
303,172.33385299999998,172.57551966666665,76.0,85.0
304,172.58385299999998,172.82551966666665,74.0,97.0
305,172.83385299999998,173.32551966666665,74.0,85.0
306,173.08385299999998,173.32551966666665,83.0,88.0
307,173.58385299999998,173.82551966666665,83.0,85.0
308,173.83385299999998,174.32551966666665,83.0,97.0
309,174.33385299999998,174.57551966666665,81.0,97.0
310,174.58385299999998,175.32551966666665,79.0,97.0
311,175.33385299999998,175.82551966666665,76.0,99.0
312,175.83385299999998,178.82551966666665,79.0,82.0
313,195.83385299999998,196.32551966666665,79.0,70.0
314,196.33385299999998,196.57551966666665,78.0,84.0
315,196.58385299999998,197.32551966666665,78.0,70.0
316,197.33385299999998,197.82551966666665,76.0,85.0
317,197.83385299999998,198.07551966666665,74.0,81.0
318,198.08385299999998,198.57551966666665,71.0,81.0
319,198.58385299999998,198.82551966666665,67.0,83.0
320,198.83385299999998,199.32551966666665,76.0,85.0
321,199.33385299999998,199.57551966666665,74.0,85.0
322,199.58385299999998,200.07551966666665,74.0,93.0
323,200.08385299999998,200.32551966666665,72.0,97.0
324,200.33385299999998,200.57551966666665,74.0,88.0
325,200.58385299999998,200.82551966666665,72.0,88.0
326,200.83385299999998,202.32551966666665,74.0,88.0
327,202.33385299999998,202.57551966666665,69.0,88.0
328,202.58385299999998,202.82551966666665,71.0,66.0
329,202.83385299999998,203.07551966666665,72.0,76.0
330,203.08385299999998,203.32551966666665,71.0,82.0
331,203.33385299999998,203.57551966666665,72.0,76.0
332,203.58385299999998,205.57551966666665,79.0,80.0
333,205.58385299999998,205.82551966666665,76.0,101.0
334,205.83385299999998,206.32551966666665,79.0,91.0
335,206.33385299999998,206.82551966666665,81.0,103.0
336,206.83385299999998,208.82551966666665,81.0,99.0
337,208.83385299999998,209.82551966666665,80.0,99.0
338,209.83385299999998,210.82551966666665,82.0,97.0
339,210.83385299999998,211.32551966666665,84.0,103.0
340,211.33385299999998,211.82551966666665,84.0,103.0
341,211.83385299999998,212.32551966666665,84.0,106.0
342,212.33385299999998,212.57551966666665,84.0,99.0
343,212.58385299999998,213.32551966666665,85.0,109.0
344,213.33385299999998,213.57551966666665,84.0,99.0
345,213.58385299999998,214.07551966666665,84.0,97.0
346,214.08385299999998,214.82551966666665,84.0,97.0
347,214.83385299999998,215.07551966666665,82.0,106.0
348,215.08385299999998,215.82551966666665,80.0,93.0
349,215.83385299999998,216.32551966666665,80.0,97.0
350,216.33385299999998,216.57551966666665,77.0,106.0
351,216.58385299999998,218.32551966666665,84.0,101.0
352,218.33385299999998,218.57551966666665,75.0,99.0
353,218.58385299999998,218.82551966666665,75.0,95.0
354,218.83385299999998,219.07551966666665,77.0,95.0
355,219.08385299999998,219.57551966666665,80.0,101.0
356,219.58385299999998,219.82551966666665,80.0,80.0
357,219.83385299999998,220.32551966666665,80.0,97.0
358,220.33385299999998,220.57551966666665,77.0,91.0
359,220.58385299999998,220.82551966666665,75.0,97.0
360,220.83385299999998,221.07551966666665,75.0,103.0
361,221.08385299999998,221.57551966666665,84.0,97.0
362,221.58385299999998,221.82551966666665,84.0,93.0
363,221.83385299999998,222.32551966666665,84.0,106.0
364,222.33385299999998,222.57551966666665,82.0,103.0
365,222.58385299999998,223.32551966666665,80.0,101.0
366,223.33385299999998,223.57551966666665,80.0,99.0
367,223.58385299999998,223.82551966666665,80.0,93.0
368,223.83385299999998,224.07551966666665,80.0,99.0
369,224.08385299999998,224.82551966666665,84.0,103.0
370,224.83385299999998,225.3290858083333,84.0,101.0
371,225.33756037499998,225.8375598083333,82.0,101.0
372,225.846034375,226.34603380833332,80.0,101.0
373,226.35450837499997,226.85450780833332,82.0,97.0
374,226.86298237499997,227.35941566666665,84.0,103.0
375,227.36774899999998,227.60941566666665,84.0,106.0
376,227.61774899999998,227.85941566666665,84.0,99.0
377,227.86774899999998,228.35941566666665,84.0,97.0
378,228.36774899999998,228.60941566666665,84.0,91.0
379,228.61774899999998,228.85941566666665,84.0,80.0
380,228.86774899999998,229.35941566666665,85.0,97.0
381,229.36774899999998,229.60941566666665,84.0,95.0
382,229.61774899999998,230.10941566666665,84.0,97.0
383,230.11774899999998,230.85941566666665,84.0,97.0
384,230.86774899999998,231.10941566666665,82.0,101.0
385,231.11774899999998,231.85941566666665,80.0,88.0
386,231.86774899999998,232.35941566666665,80.0,99.0
387,232.36774899999998,232.60941566666665,82.0,99.0
388,232.61774899999998,234.35941566666665,82.0,97.0
389,234.36774899999998,234.60941566666665,75.0,99.0
390,234.61774899999998,234.85941566666665,75.0,97.0
391,234.86774899999998,235.35941566666665,77.0,95.0
392,235.36774899999998,235.60941566666665,80.0,101.0
393,235.61774899999998,235.85941566666665,80.0,60.0
394,235.86774899999998,236.35941566666665,80.0,82.0
395,236.36774899999998,236.60941566666665,77.0,85.0
396,236.61774899999998,236.85733233333332,75.0,97.0
397,236.86774899999998,237.10941566666665,75.0,85.0
398,237.11774899999998,237.60941566666665,84.0,88.0
399,237.61774899999998,237.85941566666665,84.0,85.0
400,237.86774899999998,238.35941566666665,84.0,97.0
401,238.36774899999998,238.60941566666665,82.0,97.0
402,238.61774899999998,239.35941566666665,80.0,97.0
403,239.36774899999998,239.85941566666665,77.0,99.0
404,239.86774899999998,242.36774899999998,80.0,82.0
405,242.36774899999998,242.61774899999998,75.0,80.0
406,242.61774899999998,242.86774899999998,75.0,91.0
407,242.86774899999998,243.11774899999998,77.0,78.0
408,243.11774899999998,243.61566566666664,80.0,82.0
409,243.61774899999998,243.86774899999998,80.0,67.0
410,243.86774899999998,244.39066566666665,80.0,82.0
411,244.39066566666665,244.64066566666665,77.0,69.0
412,244.61774899999998,245.355249,75.0,59.0
413,245.35733233333332,245.61774899999998,75.0,63.0
414,245.61774899999998,246.105249,84.0,78.0
415,246.105249,246.5323323333333,87.0,89.0
416,246.5323323333333,246.92191566666665,84.0,74.0
417,246.92191566666665,247.45316566666665,82.0,71.0
418,247.45316566666665,247.92191566666665,80.0,72.0
419,247.92191566666665,249.92399899999998,77.0,75.0
420,249.92399899999998,250.28649899999996,80.0,90.0
421,250.28649899999996,251.27816566666664,82.0,88.0
422,251.27816566666664,255.07608233333332,80.0,87.0
