,start,end,pitch,velocity
0,2.71875,2.997916666666667,40.0,67.0
1,2.96875,3.26875,52.0,46.0
2,2.71875,3.4479166666666665,62.0,63.0
3,2.71875,3.502083333333333,67.0,69.0
4,2.71875,3.527083333333333,71.0,67.0
5,3.46875,4.070833333333333,59.0,72.0
6,3.21875,4.122916666666667,55.0,51.0
7,3.96875,4.50625,62.0,75.0
8,4.71875,5.025,66.0,62.0
9,4.71875,5.025,69.0,72.0
10,4.71875,5.064583333333333,62.0,62.0
11,5.46875,5.564583333333333,62.0,55.0
12,5.46875,5.852083333333333,57.0,59.0
13,5.46875,6.020833333333333,66.0,64.0
14,5.96875,6.08125,67.0,67.0
15,4.71875,6.125,50.0,58.0
16,4.71875,6.145833333333333,38.0,63.0
17,6.71875,7.20625,48.0,49.0
18,6.71875,7.302083333333333,64.0,63.0
19,6.71875,7.320833333333333,60.0,67.0
20,6.71875,7.48125,55.0,58.0
21,6.71875,7.8,67.0,44.0
22,6.71875,7.95625,36.0,57.0
23,7.46875,8.083333333333334,48.0,43.0
24,7.96875,8.18125,55.0,75.0
25,8.71875,9.0125,62.0,72.0
26,8.71875,9.025,66.0,75.0
27,8.71875,9.05625,57.0,67.0
28,9.46875,10.120833333333334,57.0,44.0
29,8.71875,10.252083333333333,47.0,63.0
30,10.21875,10.55,67.0,75.0
31,10.71875,10.94375,55.0,66.0
32,10.71875,10.99375,60.0,70.0
33,10.71875,11.089583333333334,64.0,66.0
34,10.71875,11.133333333333333,67.0,44.0
35,11.46875,11.90625,59.0,48.0
36,11.96875,12.0375,60.0,70.0
37,11.21875,12.36875,57.0,58.0
38,10.71875,12.370833333333334,45.0,67.0
39,10.96875,12.570833333333333,52.0,56.0
40,12.46875,12.679166666666667,64.0,54.0
41,12.71875,13.03125,72.0,72.0
42,13.46875,13.558333333333334,71.0,63.0
43,13.46875,13.570833333333333,64.0,64.0
44,13.96875,14.079166666666666,69.0,47.0
45,13.96875,14.110416666666666,62.0,60.0
46,13.21875,14.202083333333333,57.0,47.0
47,12.71875,14.291666666666666,45.0,58.0
48,12.96875,14.320833333333333,52.0,51.0
49,14.716666666666667,15.21875,66.0,70.0
50,14.716666666666667,15.299999999999999,57.0,66.0
51,14.716666666666667,15.354166666666666,62.0,67.0
52,15.96875,16.133333333333333,57.0,40.0
53,14.716666666666667,16.197916666666668,54.0,67.0
54,14.716666666666667,16.25625,42.0,61.0
55,16.21875,16.464583333333334,62.0,60.0
56,16.46875,16.577083333333334,66.0,57.0
57,16.71875,17.104166666666668,67.0,72.0
58,16.71875,17.122916666666665,40.0,64.0
59,16.71875,17.154166666666665,59.0,63.0
60,16.71875,17.15833333333333,62.0,67.0
61,16.71875,17.1625,52.0,55.0
62,17.71875,18.23125,42.0,60.0
63,17.71875,18.239583333333332,57.0,62.0
64,17.71875,18.241666666666667,54.0,56.0
65,17.71875,18.254166666666666,66.0,61.0
66,17.71875,18.414583333333333,62.0,64.0
67,18.722457375,19.535557333333333,59.0,64.0
68,18.722457375,19.537640666666665,57.0,66.0
69,18.722457375,19.550140666666667,62.0,62.0
70,18.722457375,19.589724,67.0,57.0
71,19.727224,20.07305733333333,57.0,52.0
72,19.977224,20.137640666666666,59.0,64.0
73,19.477224,20.143890666666667,55.0,40.0
74,18.722457375,20.308474,43.0,58.0
75,20.227224,20.458474,62.0,53.0
76,20.477224,21.170974,67.0,56.0
77,20.727224,21.233474,59.0,47.0
78,20.727224,21.237640666666667,57.0,48.0
79,20.727224,21.237640666666667,62.0,62.0
80,21.477224,21.868890666666665,57.0,60.0
81,21.477224,21.88555733333333,62.0,67.0
82,21.227224,21.985557333333333,55.0,47.0
83,20.977224,22.281390666666667,50.0,29.0
84,21.977224,22.308474,59.0,64.0
85,21.977224,22.329307333333333,62.0,67.0
86,22.227224,22.333474,55.0,44.0
87,20.727224,22.414724,43.0,55.0
88,22.727224,23.037640666666668,55.0,59.0
89,22.727224,23.181390666666665,64.0,62.0
90,22.727224,23.239724,60.0,70.0
91,23.477224,23.900140666666665,59.0,60.0
92,23.227224,24.018890666666667,55.0,56.0
93,22.727224,24.320974,43.0,63.0
94,23.977224,24.335557333333334,60.0,67.0
95,24.227224,24.437640666666667,55.0,44.0
96,22.977224,24.450140666666666,52.0,57.0
97,24.477224,24.827224,60.0,40.0
98,24.977224,25.079307333333333,38.0,52.0
99,24.477224,25.141807333333333,67.0,61.0
100,25.727224,25.991807333333334,50.0,47.0
101,25.727224,26.19805733333333,66.0,75.0
102,25.727224,26.208474,38.0,47.0
103,25.727224,26.220974,62.0,67.0
104,25.727224,26.235557333333333,57.0,54.0
105,26.227224,26.350140666666668,50.0,43.0
106,26.727224,27.127224,62.0,53.0
107,26.727224,27.175140666666664,57.0,48.0
108,26.727224,27.200140666666666,59.0,53.0
109,26.727224,27.200140666666666,67.0,54.0
110,27.477224,27.689724,57.0,54.0
111,27.227224,28.060557333333335,55.0,49.0
112,27.977224,28.108474,59.0,66.0
113,26.727224,28.443890666666668,43.0,59.0
114,28.227224,28.452224,55.0,37.0
115,26.977224,28.623057333333335,50.0,42.0
116,28.477224,28.660557333333333,59.0,49.0
117,28.727224,28.841807333333335,59.0,43.0
118,28.727224,28.906390666666667,67.0,70.0
119,29.477224,29.583474,62.0,49.0
120,29.477224,29.618890666666665,71.0,63.0
121,29.227224,30.002224,55.0,45.0
122,29.977224,30.129307333333333,62.0,60.0
123,29.977224,30.129307333333333,69.0,67.0
124,28.977224,30.350140666666668,50.0,59.0
125,30.227224,30.370974,55.0,40.0
126,28.727224,30.387640666666666,43.0,55.0
127,30.727224,31.008474,60.0,69.0
128,30.727224,31.056390666666665,64.0,61.0
129,31.227224,31.564724,55.0,48.0
130,31.477224,31.881390666666668,60.0,63.0
131,31.977224,32.045974,60.0,44.0
132,30.977224,32.09805733333333,52.0,54.0
133,30.727224,32.10639066666667,43.0,72.0
134,31.977224,32.145973999999995,64.0,60.0
135,32.72514066666667,33.10014066666667,38.0,54.0
136,32.72514066666667,33.13555733333333,50.0,47.0
137,32.72514066666667,33.164724,69.0,62.0
138,32.72514066666667,33.16889066666667,66.0,72.0
139,32.72514066666667,33.20430733333333,62.0,61.0
140,33.727224,34.227224,71.0,47.0
141,33.727224,34.23139066666667,63.0,66.0
142,33.727224,34.25430733333333,66.0,63.0
143,33.727224,34.258474,51.0,56.0
144,33.727224,34.264724,39.0,59.0
145,34.727224,34.929307333333334,40.0,67.0
146,34.727224,35.25014066666667,59.0,60.0
147,34.977224,35.28555733333333,52.0,49.0
148,34.727224,35.28764066666666,64.0,59.0
149,34.727224,35.295974,67.0,57.0
150,35.477224,35.702224,59.0,52.0
151,35.727224,36.116524725,64.0,72.0
152,35.227224,36.27542285,54.0,55.0
153,35.977224,36.305083833333335,66.0,66.0
154,36.230931375,36.688557975,67.0,61.0
155,36.739405375,37.046608416666665,62.0,66.0
156,36.739405375,37.061438908333336,69.0,66.0
157,36.739405375,37.124998158333334,66.0,72.0
158,37.247879375,37.61440438333333,62.0,45.0
159,37.502116375,38.036014075,66.0,73.0
160,36.739405375,38.33050526666667,50.0,66.0
161,36.993642375,38.366522175,57.0,48.0
162,38.010590375,38.584742266666666,69.0,75.0
163,38.773301375,39.256351675,64.0,72.0
164,38.773301375,39.2881313,67.0,66.0
165,39.536012375,39.953384783333334,62.0,63.0
166,39.281775375,40.0967578125,60.0,49.0
167,40.044486375,40.34880710625001,64.0,80.0
168,40.29143003125,40.3672497375,60.0,39.0
169,38.773301375,40.418479268750005,48.0,62.0
170,39.027538375,40.539380962500005,55.0,48.0
171,40.783233531250005,41.1049549875,62.0,56.0
172,40.783233531250005,41.113151712500006,69.0,46.0
173,40.783233531250005,41.145938612500004,66.0,64.0
174,41.27503703125,41.6541355625,62.0,46.0
175,42.012742281250006,42.156184968750004,66.0,58.0
176,41.52093878125,42.156184968750004,69.0,64.0
177,41.02913528125001,42.242250581250005,59.0,40.0
178,40.783233531250005,42.3098735625,47.0,58.0
179,42.75044753125,43.23542033333334,64.0,59.0
180,42.75044753125,43.24375366666667,67.0,54.0
181,42.75044753125,43.27917033333333,60.0,60.0
182,43.495837,43.854170333333336,59.0,64.0
183,43.245837,44.07500366666667,57.0,47.0
184,43.995837,44.08542033333333,67.0,47.0
185,43.995837,44.34167033333333,64.0,70.0
186,43.995837,44.447920333333336,60.0,70.0
187,42.75044753125,44.64792033333333,45.0,61.0
188,44.495837,44.70000366666667,57.0,30.0
189,42.996349281250005,44.80625366666667,52.0,31.0
190,45.495837,45.827087,59.0,67.0
191,45.745837,45.910420333333334,60.0,72.0
192,44.995837,45.99375366666667,52.0,56.0
193,45.245837,46.135420333333336,57.0,46.0
194,45.995837,46.21042033333333,59.0,75.0
195,45.995837,46.256253666666666,60.0,69.0
196,44.745837,46.30000366666667,45.0,54.0
197,45.995837,46.30625366666667,64.0,72.0
198,46.245837,46.39167033333334,52.0,51.0
199,46.495837,46.658337,62.0,66.0
200,46.74375366666667,47.189587,53.0,64.0
201,46.74375366666667,47.483337,60.0,70.0
202,46.74375366666667,47.50000366666667,65.0,69.0
203,46.74375366666667,47.52500366666667,57.0,63.0
204,47.495837,47.96042033333333,53.0,36.0
205,47.745837,48.258337000000004,65.0,75.0
206,46.74375366666667,48.32500366666667,41.0,62.0
207,47.745837,48.333337,60.0,76.0
208,47.745837,48.33542033333333,57.0,70.0
209,48.245837,48.34167033333333,53.0,58.0
210,48.745837,49.120837,62.0,70.0
211,48.745837,49.13750366666667,57.0,55.0
212,48.745837,49.18750366666667,66.0,69.0
213,48.745837,49.214587,54.0,69.0
214,49.495837,49.702087,54.0,46.0
215,48.745837,49.756253666666666,42.0,73.0
216,50.245837,50.36667033333333,38.0,67.0
217,49.745837,50.36875366666667,62.0,49.0
218,49.995837,50.379170333333334,74.0,73.0
219,50.245837,50.38750366666667,50.0,59.0
220,50.745837,51.14792033333333,43.0,69.0
221,50.995837,51.233337000000006,50.0,49.0
222,51.245837,51.541670333333336,55.0,52.0
223,50.745837,51.71667033333333,71.0,64.0
224,50.745837,51.760420333333336,62.0,57.0
225,50.745837,51.777087,67.0,66.0
226,51.995837,52.164587,62.0,60.0
227,51.745837,52.21667033333333,59.0,63.0
228,51.495837,52.25000366666667,57.0,63.0
229,52.245837,52.42500366666667,67.0,56.0
230,52.495837,52.71042033333333,71.0,58.0
231,52.745837,53.041670333333336,62.0,59.0
232,52.745837,53.07500366666667,67.0,70.0
233,53.245837,53.39792033333333,62.0,48.0
234,53.495837,53.850003666666666,67.0,51.0
235,52.995837,54.08750366666667,59.0,55.0
236,53.995837,54.379170333333334,71.0,60.0
237,54.245837,54.40000366666667,59.0,54.0
238,52.745837,54.42917033333333,55.0,56.0
239,54.495837,54.62292033333333,64.0,37.0
240,54.745837,55.058337,64.0,69.0
241,54.745837,55.11875366666667,72.0,76.0
242,55.245837,55.783337,64.0,56.0
243,54.995837,56.037503666666666,60.0,59.0
244,55.995837,56.316670333333334,64.0,67.0
245,55.495837,56.318753666666666,67.0,67.0
246,55.995837,56.347920333333334,72.0,72.0
247,56.245837,56.352087,60.0,53.0
248,54.745837,56.38750366666667,55.0,50.0
249,56.495837,56.595837,64.0,47.0
250,56.745837,57.02292033333333,69.0,56.0
251,56.745837,57.058337,62.0,55.0
252,56.745837,57.064587,66.0,56.0
253,56.995837,57.25000366666667,57.0,50.0
254,56.745837,57.27292033333333,50.0,64.0
255,57.245837,57.566670333333334,62.0,48.0
256,57.495837,57.89167033333334,67.0,64.0
257,57.995837,58.191670333333334,62.0,69.0
258,57.995837,58.191670333333334,69.0,82.0
259,58.495837,58.58125366666667,42.0,49.0
260,58.745837,59.264587000000006,60.0,56.0
261,58.745837,59.27917033333333,67.0,66.0
262,59.495837,59.708337,59.0,59.0
263,59.745837,59.90417033333333,60.0,64.0
264,59.245837,60.004170333333334,55.0,55.0
265,59.995837,60.24792033333333,59.0,60.0
266,59.995837,60.377087,67.0,70.0
267,58.745837,60.408337,43.0,70.0
268,60.245837,60.506253666666666,55.0,40.0
269,58.995837,60.620837,50.0,51.0
270,60.495837,60.65417033333333,59.0,49.0
271,60.745837,61.070837,59.0,58.0
272,60.745837,61.145837,62.0,69.0
273,61.245837,61.658337,55.0,47.0
274,61.495837,61.970837,57.0,63.0
275,61.495837,61.977087,59.0,67.0
276,61.495837,61.979170333333336,62.0,70.0
277,60.995837,62.239587,50.0,46.0
278,60.745837,62.258337,43.0,62.0
279,61.995837,62.258337,55.0,50.0
280,62.245837,62.48125366666667,57.0,51.0
281,62.495837,62.827087000000006,67.0,59.0
282,62.745837,63.097920333333334,64.0,64.0
283,62.745837,63.114587,60.0,64.0
284,62.745837,63.127087,55.0,61.0
285,63.495837,63.683337,55.0,59.0
286,62.745837,64.01042033333334,43.0,51.0
287,63.245837,64.039587,52.0,62.0
288,62.745837,64.077087,48.0,50.0
289,63.745837,64.077087,60.0,59.0
290,63.995837,64.283337,64.0,54.0
291,64.245837,64.489587,55.0,59.0
292,64.495837,64.63125366666667,64.0,67.0
293,64.745837,65.07292033333334,57.0,53.0
294,64.745837,65.09375366666667,62.0,64.0
295,64.745837,65.09375366666667,66.0,80.0
296,64.745837,65.252087,38.0,66.0
297,64.995837,65.31667033333333,50.0,49.0
298,65.245837,65.43542033333333,57.0,57.0
299,65.745837,65.95000366666667,65.0,35.0
300,65.745837,66.21875366666667,63.0,57.0
301,65.745837,66.43750366666667,39.0,69.0
302,66.245837,66.44792033333334,51.0,64.0
303,66.745837,67.28750366666667,59.0,64.0
304,66.995837,67.31667033333333,52.0,53.0
305,66.745837,67.320837,64.0,73.0
306,66.745837,67.36042033333334,40.0,67.0
307,67.495837,67.84375366666667,59.0,61.0
308,67.745837,68.095837,64.0,64.0
309,67.245837,68.114587,55.0,56.0
310,67.995837,68.32917033333334,67.0,85.0
311,68.745837,69.08125366666667,69.0,60.0
312,68.745837,69.08750366666666,62.0,67.0
313,68.745837,69.214587,66.0,76.0
314,69.245837,69.41667033333334,62.0,46.0
315,69.495837,69.82292033333334,62.0,67.0
316,69.495837,69.91250366666667,69.0,75.0
317,69.995837,70.289587,62.0,70.0
318,70.245837,70.31875366666667,57.0,43.0
319,69.995837,70.35417033333334,67.0,69.0
320,68.745837,70.358337,50.0,64.0
321,70.495837,70.727087,66.0,57.0
322,70.745837,71.24167033333333,62.0,61.0
323,70.745837,71.25625366666667,64.0,75.0
324,70.745837,71.26042033333334,67.0,70.0
325,71.245837,71.714587,60.0,44.0
326,71.495837,71.97917033333334,62.0,72.0
327,71.995837,72.10759538333333,62.0,57.0
328,72.249544375,72.35971374166667,60.0,60.0
329,71.995837,72.36395102499999,64.0,76.0
330,71.995837,72.36395102499999,67.0,75.0
331,70.745837,72.376662875,48.0,70.0
332,70.995837,72.42962891666666,55.0,56.0
333,72.50378137499999,72.62666259166666,62.0,45.0
334,72.75801837499999,73.26861101666667,59.0,59.0
335,72.75801837499999,73.49742431666667,69.0,64.0
336,72.75801837499999,73.50378024166666,62.0,63.0
337,72.75801837499999,73.50378024166666,66.0,72.0
338,73.52072937499999,73.98047461666665,59.0,42.0
339,72.75801837499999,73.99530510833333,47.0,66.0
340,73.77496637499999,74.27708444999999,69.0,70.0
341,73.77496637499999,74.28132173333333,66.0,75.0
342,73.77496637499999,74.31098271666666,62.0,72.0
343,74.28132173333333,74.893609175,46.0,64.0
344,74.79191437499999,75.27168099999999,57.0,63.0
345,74.79191437499999,75.49459766666666,60.0,70.0
346,74.79191437499999,75.56126433333333,67.0,64.0
347,74.79191437499999,75.571681,64.0,69.0
348,75.54668099999999,76.09459766666666,57.0,36.0
349,75.79668099999999,76.36543099999999,67.0,63.0
350,75.79668099999999,76.384181,64.0,69.0
351,75.79668099999999,76.38626433333333,60.0,78.0
352,76.54668099999999,76.88209766666665,59.0,64.0
353,76.29668099999999,77.01959766666666,57.0,36.0
354,76.79668099999999,77.102931,60.0,78.0
355,76.79668099999999,77.14251433333332,64.0,67.0
356,77.04668099999999,77.340431,59.0,61.0
357,77.29668099999999,77.43209766666666,60.0,69.0
358,77.54668099999999,78.04459766666666,67.0,88.0
359,77.54668099999999,78.05501433333333,60.0,80.0
360,78.04459766666666,78.26959766666666,57.0,69.0
361,74.79191437499999,78.36543099999999,45.0,62.0
362,78.29668099999999,78.415431,67.0,70.0
363,78.29668099999999,78.46959766666666,59.0,82.0
364,78.54668099999999,78.64876433333333,60.0,46.0
365,78.54668099999999,78.67793099999999,64.0,53.0
366,78.79668099999999,79.121681,50.0,73.0
367,78.79668099999999,79.22584766666665,64.0,95.0
368,78.79668099999999,79.24043099999999,60.0,78.0
369,78.79668099999999,79.24251433333333,57.0,61.0
370,79.29668099999999,79.67793099999999,50.0,46.0
371,79.54668099999999,80.03626433333332,57.0,93.0
372,79.54668099999999,80.03626433333332,64.0,82.0
373,79.54668099999999,80.040431,60.0,85.0
374,78.79668099999999,80.18834766666666,38.0,73.0
375,80.04668099999999,80.21126433333333,50.0,54.0
376,80.29668099999999,80.48418099999999,57.0,73.0
377,80.54668099999999,80.67168099999999,64.0,47.0
378,80.79668099999999,80.84668099999999,60.0,53.0
379,80.79668099999999,80.86543099999999,62.0,64.0
380,80.79668099999999,80.884181,57.0,73.0
381,80.79668099999999,80.89251433333332,50.0,70.0
382,80.79668099999999,80.90709766666666,66.0,69.0
383,80.79668099999999,80.91126433333332,38.0,67.0
384,81.04668099999999,81.28418099999999,50.0,85.0
385,81.04668099999999,81.48418099999999,60.0,63.0
386,81.04668099999999,81.48418099999999,62.0,66.0
387,81.04668099999999,81.52168099999999,66.0,78.0
388,81.04668099999999,81.52584766666666,57.0,70.0
389,81.54668099999999,81.81543099999999,50.0,72.0
390,81.04668099999999,82.11543099999999,38.0,73.0
391,82.04668099999999,82.14459766666666,50.0,35.0
392,82.04668099999999,82.25293099999999,60.0,55.0
393,82.04668099999999,82.30293099999999,62.0,88.0
394,82.04668099999999,82.30709766666666,57.0,76.0
395,82.04668099999999,82.31334766666666,66.0,85.0
396,82.29668099999999,82.42584766666666,42.0,72.0
397,82.79459766666666,83.27584766666666,59.0,76.0
398,82.79459766666666,83.28209766666666,57.0,75.0
399,82.79459766666666,83.29668099999999,62.0,72.0
400,82.79459766666666,83.30501433333333,67.0,70.0
401,83.54668099999999,83.76334766666666,57.0,78.0
402,83.79668099999999,83.84876433333332,57.0,39.0
403,83.79668099999999,83.93626433333333,59.0,70.0
404,82.79459766666666,84.14251433333332,43.0,70.0
405,83.29668099999999,84.19043099999999,55.0,76.0
406,83.04668099999999,84.23626433333332,50.0,69.0
407,84.04668099999999,84.38001433333332,59.0,66.0
408,84.04668099999999,84.39876433333333,67.0,36.0
409,84.04668099999999,84.40918099999999,62.0,82.0
410,84.29668099999999,84.49459766666666,45.0,61.0
411,84.79668099999999,85.09251433333333,62.0,73.0
412,84.79668099999999,85.10709766666666,69.0,78.0
413,84.79668099999999,85.121681,66.0,95.0
414,85.29668099999999,85.45293099999999,62.0,57.0
415,85.54668099999999,85.88626433333333,74.0,82.0
416,85.54668099999999,85.89668099999999,66.0,73.0
417,85.54668099999999,85.92793099999999,62.0,55.0
418,85.04668099999999,86.08801164583332,59.0,46.0
419,84.79668099999999,86.32591488749999,47.0,78.0
420,86.04668099999999,86.37430198749999,62.0,69.0
421,86.04668099999999,86.39647940833332,71.0,91.0
422,86.2896245625,86.45897941249999,59.0,75.0
423,86.53156006249999,86.62631813333333,69.0,49.0
424,86.6525278125,86.82188266249999,71.0,73.0
425,86.77349556249999,86.97510847916666,62.0,76.0
426,86.77349556249999,87.27147946666666,67.0,91.0
427,87.49930206249999,87.856156925,67.0,91.0
428,87.0154310625,88.06341499999999,59.0,69.0
429,87.2573665625,88.138415,64.0,49.0
430,86.77349556249999,88.34883166666665,52.0,70.0
431,87.98317306249999,88.46966499999999,69.0,93.0
432,88.482165,88.62174833333333,71.0,67.0
433,88.232165,88.62383166666666,59.0,69.0
434,88.732165,89.00508166666665,62.0,66.0
435,88.732165,89.17655040833333,71.0,75.0
436,88.732165,89.25070286666666,67.0,69.0
437,89.49010937499999,89.81426155,67.0,73.0
438,89.74434637499999,89.96468510833333,69.0,76.0
439,89.235872375,90.30154913333332,62.0,73.0
440,89.998583375,90.33968468333333,71.0,82.0
441,88.98008166666666,90.35663381666666,59.0,64.0
442,88.732165,90.405362575,50.0,58.0
443,90.252820375,90.47951503333333,74.0,49.0
444,90.50705737499999,90.70620969166666,79.0,61.0
445,90.76129437499999,91.16814433333333,76.0,73.0
446,90.76129437499999,91.18689433333333,72.0,76.0
447,90.76129437499999,91.22231099999999,67.0,61.0
448,91.516061,91.86606099999999,62.0,73.0
449,91.516061,91.91814433333333,67.0,82.0
450,91.266061,92.03064433333333,60.0,58.0
451,92.016061,92.39314433333332,69.0,70.0
452,92.266061,92.403561,60.0,66.0
453,91.015531375,92.40981099999999,55.0,64.0
454,92.016061,92.422311,64.0,85.0
455,90.76129437499999,92.43064433333333,48.0,72.0
456,92.516061,92.62439433333333,62.0,49.0
457,92.766061,93.08689433333333,62.0,67.0
458,92.766061,93.09314433333333,66.0,85.0
459,92.766061,93.10147766666665,69.0,70.0
460,93.016061,93.416061,59.0,59.0
461,93.266061,93.62647766666666,62.0,72.0
462,93.516061,93.82647766666666,74.0,73.0
463,93.766061,93.93272766666666,59.0,43.0
464,94.016061,94.33064433333332,67.0,85.0
465,94.016061,94.33064433333332,71.0,82.0
466,94.016061,94.34939433333332,62.0,61.0
467,94.266061,94.353561,59.0,69.0
468,92.766061,94.391061,47.0,73.0
469,94.516061,94.79314433333333,46.0,76.0
470,94.766061,95.17856099999999,67.0,54.0
471,94.766061,95.19522766666665,64.0,67.0
472,94.766061,95.21397766666666,60.0,69.0
473,95.516061,95.634811,64.0,54.0
474,95.516061,95.89522766666666,59.0,85.0
475,95.016061,96.07647766666666,52.0,55.0
476,95.766061,96.13272766666665,60.0,67.0
477,95.266061,96.28272766666666,57.0,85.0
478,96.016061,96.297311,64.0,88.0
479,96.266061,96.328561,52.0,75.0
480,94.766061,96.35564433333333,45.0,80.0
481,96.266061,96.55564433333333,67.0,76.0
482,96.516061,96.58897766666666,55.0,33.0
483,96.766061,97.059811,55.0,67.0
484,96.766061,97.09314433333333,60.0,70.0
485,96.766061,97.10564433333333,64.0,72.0
486,96.766061,97.40147766666666,38.0,76.0
487,97.266061,97.52231099999999,55.0,93.0
488,97.016061,97.54522766666666,50.0,62.0
489,97.516061,97.65981099999999,64.0,56.0
490,97.516061,97.69939433333333,60.0,62.0
491,97.766061,97.85772766666666,50.0,47.0
492,97.766061,98.07022766666665,38.0,72.0
493,97.766061,98.12856099999999,57.0,82.0
494,97.766061,98.15564433333333,66.0,88.0
495,97.766061,98.17022766666666,62.0,75.0
496,98.016061,98.30564433333333,40.0,66.0
497,98.266061,98.42647766666666,42.0,82.0
498,98.516061,98.66814433333333,62.0,61.0
499,98.766061,99.25772766666665,67.0,64.0
500,98.766061,99.29939433333332,57.0,91.0
501,98.766061,99.30772766666666,62.0,66.0
502,98.766061,99.32022766666665,59.0,78.0
503,99.516061,99.72022766666666,57.0,76.0
504,99.766061,99.93897766666666,59.0,73.0
505,100.016061,100.10564433333333,59.0,59.0
506,99.266061,100.22022766666666,55.0,82.0
507,100.016061,100.29939433333332,62.0,85.0
508,100.266061,100.40147766666666,67.0,80.0
509,98.766061,100.46814433333333,43.0,76.0
510,99.016061,100.50356099999999,50.0,75.0
511,100.516061,100.747311,55.0,82.0
512,100.766061,101.528561,63.0,78.0
513,100.766061,101.541061,66.0,91.0
514,101.516061,102.06397766666666,59.0,49.0
515,100.766061,102.26814433333332,47.0,70.0
516,102.016061,102.30564433333333,71.0,80.0
517,102.016061,102.36397766666666,63.0,97.0
518,102.266061,102.41814433333333,59.0,62.0
519,102.016061,102.509811,66.0,97.0
520,102.516061,102.69106099999999,71.0,72.0
521,102.766061,103.078561,71.0,66.0
522,102.766061,103.11397766666666,62.0,85.0
523,102.766061,103.14731099999999,67.0,78.0
524,103.266061,103.59314433333333,62.0,66.0
525,103.516061,103.81397766666666,67.0,66.0
526,103.016061,104.078561,59.0,66.0
527,104.016061,104.328561,62.0,76.0
528,104.016061,104.36814433333333,69.0,88.0
529,102.766061,104.43272766666666,52.0,69.0
530,104.266061,104.43272766666666,59.0,73.0
531,104.516061,104.64939433333333,71.0,54.0
532,104.766061,105.14731099999999,57.0,66.0
533,104.766061,105.34731099999999,64.0,73.0
534,104.766061,105.51397766666666,61.0,69.0
535,104.766061,105.52439433333333,69.0,69.0
536,105.766061,106.03064433333333,67.0,80.0
537,105.51397766666666,106.10147766666665,57.0,57.0
538,105.766061,106.20564433333332,61.0,80.0
539,104.766061,106.309811,45.0,62.0
540,106.016061,106.38064433333332,64.0,78.0
541,106.016061,106.42022766666666,69.0,72.0
542,106.76397766666666,107.29522766666666,60.0,69.0
543,106.76397766666666,107.32647766666666,69.0,64.0
544,106.76397766666666,107.33064433333332,64.0,72.0
545,107.516061,107.734811,60.0,76.0
546,107.266061,108.03689433333332,57.0,78.0
547,107.766061,108.23064433333333,64.0,70.0
548,106.76397766666666,108.32439433333333,45.0,76.0
549,107.016061,108.37439433333333,52.0,61.0
550,108.016061,108.39939433333333,67.0,85.0
551,108.266061,108.48689433333332,57.0,66.0
552,108.516061,108.672311,60.0,56.0
553,108.766061,109.209811,64.0,67.0
554,108.766061,109.29106099999998,69.0,75.0
555,109.516061,109.76397766666666,67.0,66.0
556,109.766061,109.91189433333332,69.0,69.0
557,110.016061,110.18064433333333,72.0,72.0
558,109.266061,110.28689433333332,62.0,62.0
559,109.016061,110.35772766666666,57.0,56.0
560,108.766061,110.36189433333332,50.0,70.0
561,110.266061,110.48689433333332,74.0,69.0
562,110.516061,110.76397766666666,76.0,59.0
563,110.766061,111.091061,74.0,72.0
564,111.516061,111.81189433333333,60.0,70.0
565,111.766061,111.94731099999998,62.0,56.0
566,112.016061,112.18689433333333,64.0,75.0
567,111.266061,112.334811,55.0,64.0
568,112.266061,112.453561,67.0,59.0
569,110.766061,112.516061,43.0,69.0
570,111.016061,112.53689433333332,50.0,61.0
571,112.516061,112.69106099999999,71.0,76.0
572,112.766061,113.09939433333332,62.0,73.0
573,112.766061,113.147311,67.0,70.0
574,113.266061,113.39314433333332,62.0,61.0
575,113.016061,113.88272766666665,52.0,60.0
576,113.516061,114.016061,71.0,70.0
577,113.516061,114.01814433333332,62.0,69.0
578,113.516061,114.03689433333332,67.0,76.0
579,112.766061,114.14939433333333,40.0,66.0
580,114.016061,114.21814433333333,52.0,44.0
581,114.266061,114.43272766666666,62.0,82.0
582,114.266061,114.44939433333333,74.0,70.0
583,114.516061,114.70147766666666,69.0,61.0
584,114.76397766666666,115.57439433333333,59.0,64.0
585,114.76397766666666,115.57647766666666,57.0,66.0
586,114.76397766666666,115.58897766666666,62.0,62.0
587,114.76397766666666,115.62856099999999,67.0,57.0
588,115.766061,116.11189433333332,57.0,52.0
589,116.016061,116.17647766666666,59.0,64.0
590,115.516061,116.18272766666666,55.0,40.0
591,114.76397766666666,116.34731099999999,43.0,58.0
592,116.266061,116.497311,62.0,53.0
593,116.516061,117.20981099999999,67.0,56.0
594,116.766061,117.27231099999999,59.0,47.0
595,116.766061,117.27647766666666,57.0,48.0
596,116.766061,117.27647766666666,62.0,62.0
597,117.516061,117.90772766666666,57.0,60.0
598,117.516061,117.92439433333332,62.0,67.0
599,117.266061,118.02439433333333,55.0,47.0
600,117.016061,118.32022766666665,50.0,29.0
601,118.016061,118.34731099999999,59.0,64.0
602,118.016061,118.36814433333333,62.0,67.0
603,118.266061,118.372311,55.0,44.0
604,116.766061,118.453561,43.0,55.0
605,118.766061,119.07647766666666,55.0,59.0
606,118.766061,119.22022766666666,64.0,62.0
607,118.766061,119.278561,60.0,70.0
608,119.516061,119.93897766666666,59.0,60.0
609,119.266061,120.05772766666666,55.0,56.0
610,118.766061,120.359811,43.0,63.0
611,120.016061,120.37439433333333,60.0,67.0
612,120.266061,120.47647766666665,55.0,44.0
613,119.016061,120.48897766666666,52.0,57.0
614,120.516061,120.86606099999999,60.0,40.0
615,121.016061,121.11814433333333,38.0,52.0
616,120.516061,121.18064433333333,67.0,61.0
617,121.766061,122.03064433333333,50.0,47.0
618,121.766061,122.23689433333332,66.0,75.0
619,121.766061,122.247311,38.0,47.0
620,121.766061,122.25981099999998,62.0,67.0
621,121.766061,122.27439433333333,57.0,54.0
622,122.266061,122.38897766666666,50.0,43.0
623,122.766061,123.16606099999998,62.0,53.0
624,122.766061,123.21397766666666,57.0,48.0
625,122.766061,123.23897766666666,59.0,53.0
626,122.766061,123.23897766666666,67.0,54.0
627,123.516061,123.72856099999998,57.0,54.0
628,123.266061,124.09939433333332,55.0,49.0
629,124.016061,124.147311,59.0,66.0
630,122.766061,124.48272766666666,43.0,59.0
631,124.266061,124.491061,55.0,37.0
632,123.016061,124.66189433333332,50.0,42.0
633,124.516061,124.69939433333332,59.0,49.0
634,124.766061,124.88064433333332,59.0,43.0
635,124.766061,124.94522766666665,67.0,70.0
636,125.516061,125.622311,62.0,49.0
637,125.516061,125.65772766666666,71.0,63.0
638,125.266061,126.04106099999998,55.0,45.0
639,126.016061,126.16814433333332,62.0,60.0
640,126.016061,126.16814433333332,69.0,67.0
641,125.016061,126.38897766666666,50.0,59.0
642,126.266061,126.40981099999999,55.0,40.0
643,124.766061,126.42647766666666,43.0,55.0
644,126.766061,127.047311,60.0,69.0
645,126.766061,127.09522766666666,64.0,61.0
646,127.266061,127.60356099999998,55.0,48.0
647,127.516061,127.92022766666666,60.0,63.0
648,128.01606099999998,128.084811,60.0,44.0
649,127.016061,128.13689433333332,52.0,54.0
650,126.766061,128.14522766666664,43.0,72.0
651,128.01606099999998,128.184811,64.0,60.0
652,128.76397766666668,129.13897766666668,38.0,54.0
653,128.76397766666668,129.17439433333334,50.0,47.0
654,128.76397766666668,129.20356099999998,69.0,62.0
655,128.76397766666668,129.20772766666664,66.0,72.0
656,128.76397766666668,129.24314433333333,62.0,61.0
657,129.76606099999998,130.26606099999998,71.0,47.0
658,129.76606099999998,130.27022766666664,63.0,66.0
659,129.76606099999998,130.29314433333332,66.0,63.0
660,129.76606099999998,130.29731099999998,51.0,56.0
661,129.76606099999998,130.303561,39.0,59.0
662,130.76606099999998,130.96814433333333,40.0,67.0
663,130.76606099999998,131.28897766666665,59.0,60.0
664,131.01606099999998,131.32439433333332,52.0,49.0
665,130.76606099999998,131.32647766666668,64.0,59.0
666,130.76606099999998,131.334811,67.0,57.0
667,131.51606099999998,131.741061,59.0,52.0
668,131.76606099999998,132.153561,64.0,72.0
669,131.26606099999998,132.309811,54.0,55.0
670,132.01606099999998,132.33897766666666,66.0,66.0
671,132.26606099999998,132.716061,67.0,61.0
672,132.76606099999998,133.06814433333332,62.0,66.0
673,132.76606099999998,133.08272766666664,69.0,66.0
674,132.76606099999998,133.14522766666664,66.0,72.0
675,133.26606099999998,133.62647766666666,62.0,45.0
676,133.51606099999998,134.04106099999998,66.0,73.0
677,132.76606099999998,134.33064433333334,50.0,66.0
678,133.01606099999998,134.366061,57.0,48.0
679,134.01606099999998,134.58064433333334,67.0,75.0
680,134.76606099999998,135.241061,64.0,72.0
681,134.76606099999998,135.272311,67.0,66.0
682,135.51606099999998,135.92647766666664,62.0,63.0
683,135.26606099999998,136.06814433333332,60.0,49.0
684,136.01606099999998,136.32439433333332,64.0,80.0
685,136.26606099999998,136.34314433333333,60.0,39.0
686,134.76606099999998,136.39522766666664,48.0,62.0
687,135.01606099999998,136.51814433333334,55.0,48.0
688,136.76606099999998,137.09314433333333,62.0,56.0
689,136.76606099999998,137.10147766666665,69.0,46.0
690,136.76606099999998,137.13481099999998,66.0,64.0
691,137.26606099999998,137.65147766666666,62.0,46.0
692,138.01606099999998,138.16189433333332,66.0,58.0
693,137.51606099999998,138.16189433333332,69.0,64.0
694,137.01606099999998,138.24939433333333,59.0,40.0
695,136.76606099999998,138.31814433333332,47.0,58.0
696,138.76606099999998,139.25564433333332,64.0,59.0
697,138.76606099999998,139.26397766666668,67.0,54.0
698,138.76606099999998,139.29939433333334,60.0,60.0
699,139.51606099999998,139.87439433333333,59.0,64.0
700,139.26606099999998,140.09522766666666,57.0,47.0
701,140.01606099999998,140.10564433333332,67.0,47.0
702,140.01606099999998,140.36189433333334,64.0,70.0
703,140.01606099999998,140.46814433333333,60.0,70.0
704,138.76606099999998,140.66814433333332,45.0,61.0
705,140.51606099999998,140.72022766666666,57.0,30.0
706,139.01606099999998,140.82647766666668,52.0,31.0
707,141.51606099999998,141.847311,59.0,67.0
708,141.76606099999998,141.93064433333333,60.0,72.0
709,141.01606099999998,142.01397766666668,52.0,56.0
710,141.26606099999998,142.15564433333333,57.0,46.0
711,142.01606099999998,142.23064433333332,59.0,75.0
712,142.01606099999998,142.27647766666666,60.0,69.0
713,140.76606099999998,142.32022766666665,45.0,54.0
714,142.01606099999998,142.32647766666668,64.0,72.0
715,142.26606099999998,142.41189433333332,52.0,51.0
716,142.51606099999998,142.678561,62.0,66.0
717,142.76397766666668,143.209811,53.0,64.0
718,142.76397766666668,143.503561,60.0,70.0
719,142.76397766666668,143.52022766666664,65.0,69.0
720,142.76397766666668,143.54522766666668,57.0,63.0
721,143.51606099999998,143.98064433333332,53.0,36.0
722,143.76606099999998,144.278561,65.0,75.0
723,142.76397766666668,144.34522766666666,41.0,62.0
724,143.76606099999998,144.35356099999998,60.0,76.0
725,143.76606099999998,144.35564433333332,57.0,70.0
726,144.26606099999998,144.36189433333334,53.0,58.0
727,144.76606099999998,145.14106099999998,62.0,70.0
728,144.76606099999998,145.15772766666666,57.0,55.0
729,144.76606099999998,145.20772766666664,66.0,69.0
730,144.76606099999998,145.23481099999998,54.0,69.0
731,145.51606099999998,145.722311,54.0,46.0
732,144.76606099999998,145.77647766666666,42.0,73.0
733,146.26606099999998,146.38689433333332,38.0,67.0
734,145.76606099999998,146.38897766666668,62.0,49.0
735,146.01606099999998,146.39939433333333,74.0,73.0
736,146.26606099999998,146.40772766666666,50.0,59.0
737,146.76397766666668,147.24522766666666,59.0,76.0
738,146.76397766666668,147.25147766666666,57.0,75.0
739,146.76397766666668,147.26606099999998,62.0,72.0
740,146.76397766666668,147.27439433333333,67.0,70.0
741,147.51606099999998,147.73272766666668,57.0,78.0
742,147.76606099999998,147.81814433333332,57.0,39.0
743,147.76606099999998,147.90564433333333,59.0,70.0
744,146.76397766666668,148.11298889166665,43.0,70.0
745,147.26606099999998,148.16171764999999,55.0,76.0
746,147.01606099999998,148.20832776666666,50.0,69.0
747,148.01606099999998,148.35451404166665,59.0,66.0
748,148.01606099999998,148.37358181666664,67.0,36.0
749,148.01606099999998,148.384175025,62.0,82.0
750,148.26976837499998,148.47103933333332,45.0,61.0
751,148.778242375,149.07908949166665,62.0,73.0
752,148.778242375,149.0939199833333,69.0,78.0
753,148.778242375,149.10875047499997,66.0,95.0
754,149.28671637499997,149.44561449999998,62.0,57.0
755,149.540953375,149.88629196666665,74.0,82.0
756,149.540953375,149.89688517499997,66.0,73.0
757,149.540953375,149.92866479999998,62.0,55.0
758,149.03247937499998,150.09180020833332,59.0,46.0
759,148.778242375,150.34179992499998,47.0,78.0
760,150.049427375,150.39264732499998,62.0,69.0
761,150.049427375,150.41595238333332,71.0,91.0
762,150.30366437499998,150.481630275,59.0,75.0
763,150.55790137499997,150.65747753333332,69.0,49.0
764,150.55790137499997,150.73586727499998,71.0,73.0
765,150.812138375,151.02400254166665,62.0,76.0
766,150.812138375,151.33544286666665,67.0,91.0
767,151.57484937499999,151.94984895,67.0,91.0
768,151.06637537499998,152.165103,59.0,69.0
769,151.32061237499997,152.24010299999998,64.0,49.0
770,150.812138375,152.45051966666665,52.0,70.0
771,152.083323375,152.571353,69.0,93.0
772,152.58385299999998,152.7234363333333,71.0,67.0
773,152.33385299999998,152.72551966666666,59.0,69.0
774,152.83385299999998,153.10676966666665,62.0,66.0
775,152.83385299999998,153.27551966666664,71.0,75.0
776,152.83385299999998,153.3484363333333,67.0,69.0
777,153.58385299999998,153.90260299999997,67.0,73.0
778,153.83385299999998,154.05051966666664,69.0,76.0
779,153.33385299999998,154.38176966666666,62.0,73.0
780,154.08385299999998,154.41926966666665,71.0,82.0
781,153.08176966666664,154.4359363333333,59.0,64.0
782,152.83385299999998,154.48385299999998,50.0,58.0
783,154.33385299999998,154.55676966666664,74.0,49.0
784,154.58385299999998,154.7796863333333,79.0,61.0
785,154.83385299999998,155.2359363333333,76.0,73.0
786,154.83385299999998,155.2546863333333,72.0,76.0
787,154.83385299999998,155.290103,67.0,61.0
788,155.58385299999998,155.93385299999997,62.0,73.0
789,155.58385299999998,155.9859363333333,67.0,82.0
790,155.33385299999998,156.0984363333333,60.0,58.0
791,156.08385299999998,156.4609363333333,69.0,70.0
792,156.33385299999998,156.47135299999997,60.0,66.0
793,155.08385299999998,156.477603,55.0,64.0
794,156.08385299999998,156.49010299999998,64.0,85.0
795,154.83385299999998,156.4984363333333,48.0,72.0
796,156.58385299999998,156.6921863333333,62.0,49.0
797,156.83385299999998,157.1546863333333,62.0,67.0
798,156.83385299999998,157.1609363333333,66.0,85.0
799,156.83385299999998,157.16926966666665,69.0,70.0
800,157.08385299999998,157.48385299999998,59.0,59.0
801,157.33385299999998,157.69426966666666,62.0,72.0
802,157.58385299999998,157.89426966666664,74.0,73.0
803,157.83385299999998,158.00051966666663,59.0,43.0
804,158.08385299999998,158.3984363333333,67.0,85.0
805,158.08385299999998,158.3984363333333,71.0,82.0
806,158.08385299999998,158.41718633333332,62.0,61.0
807,158.33385299999998,158.42135299999998,59.0,69.0
808,156.83385299999998,158.45885299999998,47.0,73.0
809,158.58385299999998,158.8609363333333,46.0,76.0
810,158.83385299999998,159.24635299999997,67.0,54.0
811,158.83385299999998,159.26301966666665,64.0,67.0
812,158.83385299999998,159.28176966666663,60.0,69.0
813,159.58385299999998,159.70260299999998,64.0,54.0
814,159.58385299999998,159.96301966666664,59.0,85.0
815,159.08385299999998,160.14426966666664,52.0,55.0
816,159.83385299999998,160.20051966666665,60.0,67.0
817,159.33385299999998,160.35051966666663,57.0,85.0
818,160.08385299999998,160.36510299999998,64.0,88.0
819,160.33385299999998,160.39635299999998,52.0,75.0
820,158.83385299999998,160.4234363333333,45.0,80.0
821,160.33385299999998,160.6234363333333,67.0,76.0
822,160.58385299999998,160.65676966666663,55.0,33.0
823,160.83385299999998,161.12760299999997,55.0,67.0
824,160.83385299999998,161.1609363333333,60.0,70.0
825,160.83385299999998,161.1734363333333,64.0,72.0
826,160.83385299999998,161.46926966666663,38.0,76.0
827,161.33385299999998,161.59010299999997,55.0,93.0
828,161.08385299999998,161.61301966666664,50.0,62.0
829,161.58385299999998,161.727603,64.0,56.0
830,161.58385299999998,161.7671863333333,60.0,62.0
831,161.83385299999998,161.92551966666664,50.0,47.0
832,161.83385299999998,162.13801966666665,38.0,72.0
833,161.83385299999998,162.196353,57.0,82.0
834,161.83385299999998,162.2234363333333,66.0,88.0
835,161.83385299999998,162.23801966666664,62.0,75.0
836,162.08385299999998,162.3734363333333,40.0,66.0
837,162.33385299999998,162.49426966666664,42.0,82.0
838,162.58385299999998,162.7359363333333,62.0,61.0
839,162.83385299999998,163.32551966666665,67.0,64.0
840,162.83385299999998,163.3671863333333,57.0,91.0
841,162.83385299999998,163.37551966666663,62.0,66.0
842,162.83385299999998,163.38801966666665,59.0,78.0
843,163.58385299999998,163.78801966666663,57.0,76.0
844,163.83385299999998,164.00676966666663,59.0,73.0
845,164.08385299999998,164.1734363333333,59.0,59.0
846,163.33385299999998,164.28801966666663,55.0,82.0
847,164.08385299999998,164.3671863333333,62.0,85.0
848,164.33385299999998,164.46926966666663,67.0,80.0
849,162.83385299999998,164.5359363333333,43.0,76.0
850,163.08385299999998,164.571353,50.0,75.0
851,164.58385299999998,164.81510299999997,55.0,82.0
852,164.83385299999998,165.59635299999997,63.0,78.0
853,164.83385299999998,165.60885299999998,66.0,91.0
854,165.58385299999998,166.13176966666663,59.0,49.0
855,164.83385299999998,166.3359363333333,47.0,70.0
856,166.08385299999998,166.3734363333333,71.0,80.0
857,166.08385299999998,166.43176966666664,63.0,97.0
858,166.33385299999998,166.4859363333333,59.0,62.0
859,166.08385299999998,166.57760299999998,66.0,97.0
860,166.58385299999998,166.758853,71.0,72.0
861,166.83385299999998,167.14635299999998,71.0,66.0
862,166.83385299999998,167.18176966666664,62.0,85.0
863,166.83385299999998,167.21510299999997,67.0,78.0
864,167.33385299999998,167.6609363333333,62.0,66.0
865,167.58385299999998,167.88176966666663,67.0,66.0
866,167.08385299999998,168.14635299999998,59.0,66.0
867,168.08385299999998,168.39635299999998,62.0,76.0
868,168.08385299999998,168.4359363333333,69.0,88.0
869,166.83385299999998,168.50051966666663,52.0,69.0
870,168.33385299999998,168.50051966666663,59.0,73.0
871,168.58385299999998,168.7171863333333,71.0,54.0
872,168.83385299999998,169.21510299999997,57.0,66.0
873,168.83385299999998,169.415103,64.0,73.0
874,168.83385299999998,169.58176966666664,61.0,69.0
875,168.83385299999998,169.5921863333333,69.0,69.0
876,169.83385299999998,170.09843633333332,67.0,80.0
877,169.58176966666664,170.16926966666665,57.0,57.0
878,169.83385299999998,170.2734363333333,61.0,80.0
879,168.83385299999998,170.37760299999997,45.0,62.0
880,170.08385299999998,170.44843633333332,64.0,78.0
881,170.08385299999998,170.48801966666664,69.0,72.0
882,170.83176966666664,171.36301966666664,60.0,69.0
883,170.83176966666664,171.39426966666664,69.0,64.0
884,170.83176966666664,171.3984363333333,64.0,72.0
885,171.58385299999998,171.80260299999998,60.0,76.0
886,171.33385299999998,172.10468633333332,57.0,78.0
887,171.83385299999998,172.2984363333333,64.0,70.0
888,170.83176966666664,172.3921863333333,45.0,76.0
889,171.08385299999998,172.44218633333332,52.0,61.0
890,172.08385299999998,172.4671863333333,67.0,85.0
891,172.33385299999998,172.5546863333333,57.0,66.0
892,172.58385299999998,172.74010299999998,60.0,56.0
893,172.83385299999998,173.27760299999997,64.0,67.0
894,172.83385299999998,173.35885299999998,69.0,75.0
895,173.58385299999998,173.83176966666664,67.0,66.0
896,173.83385299999998,173.97968633333332,69.0,69.0
897,174.08385299999998,174.2484363333333,72.0,72.0
898,173.33385299999998,174.35468633333332,62.0,62.0
899,173.08385299999998,174.42551966666664,57.0,56.0
900,172.83385299999998,174.4296863333333,50.0,70.0
901,174.33385299999998,174.5546863333333,74.0,69.0
902,174.58385299999998,174.83176966666664,76.0,59.0
903,174.83385299999998,175.15885299999997,74.0,72.0
904,175.58385299999998,175.87968633333332,60.0,70.0
905,175.83385299999998,176.01510299999998,62.0,56.0
906,176.08385299999998,176.25468633333332,64.0,75.0
907,175.33385299999998,176.40260299999997,55.0,64.0
908,176.33385299999998,176.52135299999998,67.0,59.0
909,174.83385299999998,176.58385299999998,43.0,69.0
910,175.08385299999998,176.60468633333332,50.0,61.0
911,176.58385299999998,176.758853,71.0,76.0
912,176.83176966666664,177.09635299999997,59.0,80.0
913,176.83176966666664,177.11926966666664,67.0,76.0
914,176.83176966666664,177.1234363333333,62.0,82.0
915,177.08385299999998,177.22343633333332,55.0,51.0
916,176.83176966666664,177.25051966666663,43.0,75.0
917,177.33385299999998,177.58801966666664,59.0,54.0
918,177.58385299999998,177.87551966666663,67.0,70.0
919,177.83385299999998,178.0921863333333,38.0,70.0
920,177.83385299999998,178.11301966666664,50.0,66.0
921,177.83385299999998,178.20051966666665,62.0,72.0
922,177.83385299999998,178.2109363333333,57.0,93.0
923,177.83385299999998,178.25260299999997,66.0,76.0
924,178.33385299999998,178.45885299999998,62.0,75.0
925,178.33385299999998,178.4609363333333,66.0,78.0
926,178.33385299999998,178.508853,39.0,78.0
927,178.83385299999998,179.30260299999998,62.0,91.0
928,178.83385299999998,179.34010299999997,67.0,82.0
929,178.83385299999998,179.38801966666665,59.0,85.0
930,179.58385299999998,179.77551966666664,59.0,85.0
931,179.83385299999998,179.89010299999998,62.0,38.0
932,179.33385299999998,180.0921863333333,52.0,78.0
933,178.83385299999998,180.415103,40.0,73.0
934,179.08385299999998,180.446353,47.0,66.0
935,180.33385299999998,180.446353,52.0,61.0
936,180.08385299999998,180.477603,57.0,82.0
937,180.08385299999998,180.48385299999998,66.0,103.0
938,180.58385299999998,180.75468633333332,67.0,75.0
939,180.83385299999998,181.08385299999998,38.0,80.0
940,181.08385299999998,181.38593633333332,50.0,66.0
941,180.83385299999998,181.62551966666663,62.0,95.0
942,180.83385299999998,181.62760299999997,66.0,97.0
943,180.83385299999998,181.64010299999998,57.0,91.0
944,181.33385299999998,181.65051966666664,52.0,62.0
945,181.83385299999998,182.008853,57.0,82.0
946,181.58385299999998,182.3734363333333,54.0,95.0
947,182.08385299999998,182.39635299999998,62.0,93.0
948,182.33385299999998,182.60468633333332,66.0,76.0
949,182.58385299999998,182.77551966666664,67.0,78.0
950,182.83385299999998,183.09635299999997,60.0,80.0
951,182.83385299999998,183.20051966666665,64.0,88.0
952,183.58385299999998,183.70051966666665,62.0,82.0
953,183.58385299999998,183.70676966666664,67.0,91.0
954,183.33385299999998,184.10468633333332,60.0,58.0
955,184.33385299999998,184.3921863333333,60.0,61.0
956,184.08385299999998,184.3921863333333,62.0,58.0
957,183.08385299999998,184.41301966666663,55.0,67.0
958,184.08385299999998,184.41926966666665,72.0,88.0
959,182.83385299999998,184.45260299999998,48.0,67.0
960,184.58385299999998,184.79218633333332,67.0,64.0
961,184.83385299999998,184.94426966666663,69.0,66.0
962,184.83385299999998,185.24010299999998,62.0,88.0
963,184.83385299999998,185.27760299999997,67.0,75.0
964,184.83385299999998,185.3046863333333,71.0,88.0
965,184.83385299999998,185.3109363333333,43.0,64.0
966,185.08385299999998,185.34635299999997,50.0,46.0
967,185.33385299999998,185.477603,62.0,59.0
968,185.33385299999998,185.54218633333332,69.0,66.0
969,185.33385299999998,185.61301966666664,55.0,64.0
970,185.58385299999998,185.88176966666663,71.0,91.0
971,185.58385299999998,185.91093633333332,62.0,66.0
972,185.58385299999998,185.9859363333333,57.0,59.0
973,185.83385299999998,185.9859363333333,59.0,70.0
974,186.08385299999998,186.23385299999998,62.0,69.0
975,186.08385299999998,186.27135299999998,74.0,85.0
976,186.33385299999998,186.5171863333333,69.0,80.0
977,186.58385299999998,186.79426966666665,71.0,85.0
978,186.83385299999998,187.21301966666664,64.0,78.0
979,186.83385299999998,187.26093633333332,45.0,72.0
980,186.83385299999998,187.28801966666663,72.0,75.0
981,187.08385299999998,187.3359363333333,52.0,54.0
982,187.33385299999998,187.45260299999998,64.0,66.0
983,187.33385299999998,187.54218633333332,71.0,69.0
984,187.33385299999998,187.70676966666664,57.0,67.0
985,187.58385299999998,187.91926966666665,59.0,67.0
986,187.58385299999998,187.946353,64.0,88.0
987,187.83385299999998,187.95885299999998,60.0,75.0
988,187.58385299999998,187.96510299999997,72.0,73.0
989,188.08385299999998,188.25051966666663,64.0,85.0
990,188.33385299999998,188.48801966666664,67.0,72.0
991,188.58385299999998,189.19843633333332,72.0,76.0
992,188.58385299999998,189.21510299999997,64.0,88.0
993,189.08385299999998,189.80260299999998,52.0,59.0
994,189.33385299999998,189.8734363333333,57.0,91.0
995,189.83385299999998,189.9984363333333,59.0,91.0
996,189.83385299999998,190.008853,64.0,93.0
997,188.83385299999998,190.19843633333332,45.0,67.0
998,190.08385299999998,190.26510299999998,60.0,95.0
999,190.33385299999998,190.43385299999997,52.0,66.0
1000,190.33385299999998,190.47551966666663,62.0,80.0
1001,190.58385299999998,190.71301966666664,64.0,88.0
1002,190.83385299999998,191.1234363333333,64.0,93.0
1003,190.83385299999998,191.1421863333333,55.0,91.0
1004,190.83385299999998,191.16718633333332,60.0,88.0
1005,191.33385299999998,191.47968633333332,55.0,78.0
1006,191.58385299999998,191.92135299999998,60.0,99.0
1007,191.08385299999998,192.11301966666664,50.0,72.0
1008,192.08385299999998,192.290103,64.0,106.0
1009,190.83385299999998,192.4046863333333,38.0,73.0
1010,192.33385299999998,192.48176966666665,50.0,69.0
1011,192.58385299999998,192.70885299999998,55.0,72.0
1012,192.83385299999998,192.92551966666664,55.0,93.0
1013,192.83385299999998,193.12968633333332,60.0,99.0
1014,192.83385299999998,193.1484363333333,67.0,78.0
1015,192.83385299999998,193.21510299999997,38.0,76.0
1016,193.08385299999998,193.26926966666664,50.0,85.0
1017,193.33385299999998,193.53593633333332,55.0,91.0
1018,193.58385299999998,193.73385299999998,60.0,75.0
1019,193.83385299999998,194.24426966666664,57.0,82.0
1020,193.83385299999998,194.2671863333333,60.0,88.0
1021,193.83385299999998,194.3734363333333,66.0,82.0
1022,194.33385299999998,194.49010299999998,57.0,75.0
1023,194.08385299999998,194.53801966666663,39.0,109.0
1024,194.58385299999998,194.69010299999997,62.0,49.0
1025,194.83385299999998,195.21301966666664,52.0,95.0
1026,194.83385299999998,195.60676966666665,67.0,82.0
1027,194.83385299999998,195.65885299999997,59.0,99.0
1028,194.83385299999998,195.67551966666664,55.0,93.0
1029,195.58385299999998,196.07760299999998,52.0,66.0
1030,195.83385299999998,196.17760299999998,55.0,95.0
1031,195.83385299999998,196.20051966666665,59.0,97.0
1032,195.83385299999998,196.20260299999998,62.0,91.0
1033,195.83385299999998,196.2109363333333,67.0,76.0
1034,194.83385299999998,196.33385299999998,40.0,76.0
1035,196.33385299999998,196.41093633333332,67.0,45.0
1036,196.08385299999998,196.49426966666664,52.0,76.0
1037,196.33385299999998,196.508853,55.0,88.0
1038,196.58385299999998,196.74010299999998,59.0,67.0
1039,196.83385299999998,197.45885299999998,50.0,88.0
1040,196.83385299999998,197.62135299999997,66.0,73.0
1041,196.83385299999998,197.633853,62.0,75.0
1042,196.83385299999998,197.63801966666665,57.0,75.0
1043,197.58385299999998,197.96510299999997,50.0,72.0
1044,197.83385299999998,198.16093633333332,57.0,72.0
1045,197.83385299999998,198.17135299999998,62.0,97.0
1046,197.83385299999998,198.18176966666664,66.0,97.0
1047,198.08385299999998,198.41718633333332,50.0,72.0
1048,198.33385299999998,198.5796863333333,57.0,78.0
1049,198.83385299999998,199.24426966666664,60.0,82.0
1050,198.83385299999998,199.30260299999998,64.0,93.0
1051,199.58385299999998,199.93176966666664,60.0,73.0
1052,199.83385299999998,200.13176966666663,62.0,91.0
1053,199.83385299999998,200.15676966666663,67.0,99.0
1054,200.08385299999998,200.31301966666663,60.0,56.0
1055,199.33385299999998,200.36301966666664,55.0,48.0
1056,198.83385299999998,200.36510299999998,48.0,85.0
1057,200.33385299999998,200.48385299999998,64.0,78.0
1058,200.58385299999998,200.98176966666665,71.0,76.0
1059,200.58385299999998,201.01510299999998,62.0,76.0
1060,200.58385299999998,201.05885299999997,67.0,85.0
1061,201.58385299999998,201.95676966666664,62.0,95.0
1062,201.83385299999998,202.01093633333332,72.0,82.0
1063,202.08385299999998,202.13593633333332,72.0,49.0
1064,202.08385299999998,202.290103,71.0,85.0
1065,201.33385299999998,202.42135299999998,55.0,76.0
1066,200.83385299999998,202.42551966666664,43.0,70.0
1067,201.08385299999998,202.4296863333333,50.0,53.0
1068,202.33385299999998,202.54635299999998,67.0,85.0
1069,202.58385299999998,202.70885299999998,62.0,80.0
1070,202.83385299999998,203.13801966666665,67.0,78.0
1071,202.83385299999998,203.1421863333333,72.0,75.0
1072,202.83385299999998,203.19218633333332,64.0,93.0
1073,203.33385299999998,203.75260299999997,57.0,69.0
1074,203.58385299999998,203.883853,67.0,91.0
1075,203.58385299999998,204.0234363333333,60.0,82.0
1076,203.58385299999998,204.15885299999997,64.0,85.0
1077,202.83385299999998,204.47343633333332,45.0,70.0
1078,204.33385299999998,204.47343633333332,60.0,75.0
1079,204.08385299999998,204.5171863333333,57.0,66.0
1080,203.08385299999998,204.71926966666663,52.0,64.0
1081,204.58385299999998,204.89010299999998,60.0,91.0
1082,204.58385299999998,204.91093633333332,69.0,76.0
1083,205.08385299999998,205.1484363333333,64.0,50.0
1084,205.33385299999998,205.42760299999998,64.0,80.0
1085,205.33385299999998,205.47968633333332,72.0,73.0
1086,205.58385299999998,205.73176966666665,62.0,91.0
1087,205.58385299999998,205.91093633333332,71.0,85.0
1088,205.83385299999998,206.05051966666664,57.0,45.0
1089,206.08385299999998,206.15676966666663,67.0,93.0
1090,205.08385299999998,206.15885299999997,52.0,48.0
1091,206.08385299999998,206.23801966666664,64.0,91.0
1092,206.08385299999998,206.33385299999998,72.0,88.0
1093,204.83385299999998,206.41093633333332,45.0,63.0
1094,206.33385299999998,206.4234363333333,57.0,91.0
1095,206.33385299999998,206.44426966666663,52.0,63.0
1096,206.83385299999998,206.9046863333333,64.0,46.0
1097,206.83385299999998,206.93801966666663,69.0,56.0
1098,206.83385299999998,207.07343633333332,50.0,66.0
1099,206.83385299999998,207.23385299999998,60.0,85.0
1100,207.08385299999998,207.2984363333333,64.0,44.0
1101,207.33385299999998,207.6734363333333,50.0,93.0
1102,207.58385299999998,207.88801966666665,67.0,103.0
1103,207.58385299999998,208.00051966666663,60.0,95.0
1104,207.58385299999998,208.0921863333333,64.0,95.0
1105,206.83385299999998,208.196353,38.0,75.0
1106,208.08385299999998,208.23801966666664,50.0,66.0
1107,208.33385299999998,208.4984363333333,60.0,101.0
1108,208.58385299999998,208.72968633333332,67.0,69.0
1109,208.58385299999998,208.7421863333333,64.0,76.0
1110,208.83385299999998,209.14426966666664,56.0,85.0
1111,208.83385299999998,209.15051966666664,65.0,91.0
1112,208.83385299999998,209.165103,61.0,93.0
1113,208.83385299999998,209.43176966666664,37.0,85.0
1114,209.33385299999998,209.64426966666664,56.0,97.0
1115,209.58385299999998,209.75051966666663,65.0,69.0
1116,209.08385299999998,209.8046863333333,49.0,95.0
1117,209.83385299999998,210.17760299999998,58.0,76.0
1118,209.83385299999998,210.19426966666663,67.0,101.0
1119,209.83385299999998,210.21510299999997,63.0,78.0
1120,210.33385299999998,210.57760299999998,58.0,88.0
1121,209.83385299999998,210.58801966666664,39.0,91.0
1122,210.08385299999998,210.59843633333332,51.0,95.0
1123,210.83385299999998,211.31301966666663,60.0,76.0
1124,210.83385299999998,211.31926966666663,58.0,75.0
1125,210.83385299999998,211.33385299999998,63.0,72.0
1126,210.83385299999998,211.3421863333333,68.0,70.0
1127,211.58385299999998,211.80051966666664,58.0,78.0
1128,211.83385299999998,211.88593633333332,58.0,39.0
1129,211.83385299999998,211.97343633333332,60.0,70.0
1130,210.83385299999998,212.1796863333333,44.0,70.0
1131,211.33385299999998,212.227603,56.0,76.0
1132,211.08385299999998,212.2734363333333,51.0,69.0
1133,212.08385299999998,212.41718633333332,60.0,66.0
1134,212.08385299999998,212.4359363333333,68.0,36.0
1135,212.08385299999998,212.446353,63.0,82.0
1136,212.33385299999998,212.53176966666663,46.0,61.0
1137,212.83385299999998,213.12968633333332,63.0,73.0
1138,212.83385299999998,213.14426966666664,70.0,78.0
1139,212.83385299999998,213.15885299999997,67.0,95.0
1140,213.33385299999998,213.49010299999998,63.0,57.0
1141,213.58385299999998,213.9234363333333,75.0,82.0
1142,213.58385299999998,213.93385299999997,67.0,73.0
1143,213.58385299999998,213.96510299999997,63.0,55.0
1144,213.08385299999998,214.12551966666663,60.0,46.0
1145,212.83385299999998,214.37135299999997,48.0,78.0
1146,214.08385299999998,214.42135299999998,63.0,69.0
1147,214.08385299999998,214.44426966666663,72.0,91.0
1148,214.33385299999998,214.508853,60.0,75.0
1149,214.58385299999998,214.68176966666664,70.0,49.0
1150,214.58385299999998,214.758853,72.0,73.0
1151,214.83385299999998,215.04218633333332,63.0,76.0
1152,214.83385299999998,215.34843633333332,68.0,91.0
1153,215.58385299999998,215.95260299999998,68.0,91.0
1154,215.08385299999998,216.165103,60.0,69.0
1155,215.33385299999998,216.24010299999998,65.0,49.0
1156,214.83385299999998,216.45051966666665,53.0,70.0
1157,216.08385299999998,216.571353,70.0,93.0
1158,216.58385299999998,216.72343633333332,72.0,67.0
1159,216.33385299999998,216.72551966666663,60.0,69.0
1160,216.83385299999998,217.10676966666665,63.0,66.0
1161,216.83385299999998,217.27551966666664,72.0,75.0
1162,216.83385299999998,217.34843633333332,68.0,69.0
1163,217.58385299999998,217.90260299999997,68.0,73.0
1164,217.83385299999998,218.05051966666664,70.0,76.0
1165,217.33385299999998,218.38176966666663,63.0,73.0
1166,218.08385299999998,218.41926966666665,72.0,82.0
1167,217.08176966666664,218.4359363333333,60.0,64.0
1168,216.83385299999998,218.48385299999998,51.0,58.0
1169,218.33385299999998,218.55676966666664,75.0,49.0
1170,218.58385299999998,218.7796863333333,80.0,61.0
1171,218.83385299999998,219.2359363333333,77.0,73.0
1172,218.83385299999998,219.25468633333332,73.0,76.0
1173,218.83385299999998,219.290103,68.0,61.0
1174,219.58385299999998,219.93385299999997,63.0,73.0
1175,219.58385299999998,219.9859363333333,68.0,82.0
1176,219.33385299999998,220.09843633333332,61.0,58.0
1177,220.08385299999998,220.4609363333333,70.0,70.0
1178,220.33385299999998,220.47135299999997,61.0,66.0
1179,219.08385299999998,220.477603,56.0,64.0
1180,220.08385299999998,220.49010299999998,65.0,85.0
1181,218.83385299999998,220.4984363333333,49.0,72.0
1182,220.58385299999998,220.69218633333332,63.0,49.0
1183,220.83385299999998,221.1546863333333,63.0,67.0
1184,220.83385299999998,221.16093633333332,67.0,85.0
1185,220.83385299999998,221.16926966666665,70.0,70.0
1186,221.08385299999998,221.48385299999998,60.0,59.0
1187,221.33385299999998,221.69426966666663,63.0,72.0
1188,221.58385299999998,221.89426966666664,75.0,73.0
1189,221.83385299999998,222.00051966666666,60.0,43.0
1190,222.08385299999998,222.3984363333333,68.0,85.0
1191,222.08385299999998,222.3984363333333,72.0,82.0
1192,222.08385299999998,222.4171863333333,63.0,61.0
1193,222.33385299999998,222.42135299999998,60.0,69.0
1194,220.83385299999998,222.45885299999998,48.0,73.0
1195,222.58385299999998,222.8609363333333,47.0,76.0
1196,222.83385299999998,223.24635299999997,68.0,54.0
1197,222.83385299999998,223.26301966666665,65.0,67.0
1198,222.83385299999998,223.28176966666666,61.0,69.0
1199,223.58385299999998,223.70260299999998,65.0,54.0
1200,223.58385299999998,223.96301966666664,60.0,85.0
1201,223.08385299999998,224.14426966666664,53.0,55.0
1202,223.83385299999998,224.20051966666665,61.0,67.0
1203,223.33385299999998,224.35051966666663,58.0,85.0
1204,224.08385299999998,224.36510299999998,65.0,88.0
1205,224.33385299999998,224.39635299999998,53.0,75.0
1206,222.83385299999998,224.4234363333333,46.0,80.0
1207,224.33385299999998,224.6234363333333,68.0,76.0
1208,224.58385299999998,224.65676966666666,56.0,33.0
1209,224.83385299999998,225.12781484999996,56.0,67.0
1210,224.83385299999998,225.16171311666665,61.0,70.0
1211,224.83385299999998,225.17442496666663,65.0,72.0
1212,224.83385299999998,225.47527208333332,39.0,76.0
1213,225.33756037499998,225.59815329999998,56.0,93.0
1214,225.08385299999998,225.6214583583333,51.0,62.0
1215,225.59179737499997,225.73798365,65.0,56.0
1216,225.59179737499997,225.77823784166665,61.0,62.0
1217,225.846034375,225.9392546083333,51.0,47.0
1218,225.846034375,226.1553560583333,39.0,72.0
1219,225.846034375,226.21467802499998,58.0,82.0
1220,225.846034375,226.24222036666663,67.0,88.0
1221,225.846034375,226.25705085833332,63.0,75.0
1222,226.10027137499998,226.39476256666666,41.0,66.0
1223,226.35450837499997,226.5176437833333,43.0,82.0
1224,226.60874537499998,226.76340621666665,63.0,61.0
1225,226.86298237499997,227.35941566666665,68.0,64.0
1226,226.86298237499997,227.4010823333333,58.0,91.0
1227,226.86298237499997,227.40941566666663,63.0,66.0
1228,226.86298237499997,227.42191566666665,60.0,78.0
1229,227.61774899999998,227.82191566666665,58.0,76.0
1230,227.86774899999998,228.04066566666665,60.0,73.0
1231,228.11774899999998,228.2073323333333,60.0,59.0
1232,227.36774899999998,228.32191566666665,56.0,82.0
1233,228.11774899999998,228.4010823333333,63.0,85.0
1234,228.36774899999998,228.50316566666663,68.0,80.0
1235,226.86298237499997,228.5698323333333,44.0,76.0
1236,227.117219375,228.605249,51.0,75.0
1237,228.61774899999998,228.84899899999996,56.0,82.0
1238,228.86774899999998,229.63024899999996,64.0,78.0
1239,228.86774899999998,229.64274899999998,67.0,91.0
1240,229.61774899999998,230.16566566666665,60.0,49.0
1241,228.86774899999998,230.3698323333333,48.0,70.0
1242,230.11774899999998,230.4073323333333,72.0,80.0
1243,230.11774899999998,230.46566566666664,64.0,97.0
1244,230.36774899999998,230.5198323333333,60.0,62.0
1245,230.11774899999998,230.61149899999998,67.0,97.0
1246,230.61774899999998,230.792749,72.0,72.0
1247,230.86774899999998,231.18024899999998,72.0,66.0
1248,230.86774899999998,231.21566566666664,63.0,85.0
1249,230.86774899999998,231.24899899999997,68.0,78.0
1250,231.36774899999998,231.6948323333333,63.0,66.0
1251,231.61774899999998,231.91566566666665,68.0,66.0
1252,231.11774899999998,232.18024899999998,60.0,66.0
1253,232.11774899999998,232.43024899999998,63.0,76.0
1254,232.11774899999998,232.4698323333333,70.0,88.0
1255,230.86774899999998,232.53441566666663,53.0,69.0
1256,232.36774899999998,232.53441566666663,60.0,73.0
1257,232.61774899999998,232.7510823333333,72.0,54.0
1258,232.86774899999998,233.24899899999997,58.0,66.0
1259,232.86774899999998,233.448999,65.0,73.0
1260,232.86774899999998,233.61566566666664,62.0,69.0
1261,232.86774899999998,233.6260823333333,70.0,69.0
1262,233.86774899999998,234.1323323333333,68.0,80.0
1263,233.61566566666664,234.20316566666665,58.0,57.0
1264,233.86774899999998,234.3073323333333,62.0,80.0
1265,232.86774899999998,234.41149899999996,46.0,62.0
1266,234.11774899999998,234.48233233333332,65.0,78.0
1267,234.11774899999998,234.52191566666664,70.0,72.0
1268,234.86566566666664,235.39691566666664,61.0,69.0
1269,234.86566566666664,235.42816566666664,70.0,64.0
1270,234.86566566666664,235.4323323333333,65.0,72.0
1271,235.61774899999998,235.83649899999998,61.0,76.0
1272,235.36774899999998,236.13858233333332,58.0,78.0
1273,235.86774899999998,236.3323323333333,65.0,70.0
1274,234.86566566666664,236.4260823333333,46.0,76.0
1275,235.11774899999998,236.4760823333333,53.0,61.0
1276,236.11774899999998,236.5010823333333,68.0,85.0
1277,236.36774899999998,236.5885823333333,58.0,66.0
1278,236.61774899999998,236.77399899999998,61.0,56.0
1279,236.86774899999998,237.31149899999997,65.0,67.0
1280,236.86774899999998,237.39274899999998,70.0,75.0
1281,237.61774899999998,237.86566566666664,68.0,66.0
1282,237.86774899999998,238.01358233333332,70.0,69.0
1283,238.11774899999998,238.2823323333333,73.0,72.0
1284,237.36774899999998,238.38858233333332,63.0,62.0
1285,237.11774899999998,238.45941566666664,58.0,56.0
1286,236.86774899999998,238.4635823333333,51.0,70.0
1287,238.36774899999998,238.5885823333333,75.0,69.0
1288,238.61774899999998,238.86566566666664,77.0,59.0
1289,238.86774899999998,239.19274899999996,75.0,72.0
1290,239.61774899999998,239.9135823333333,61.0,70.0
1291,239.86774899999998,240.04899899999998,63.0,56.0
1292,240.11774899999998,240.2885823333333,65.0,75.0
1293,239.36774899999998,240.43649899999997,56.0,64.0
1294,240.36774899999998,240.55524899999998,68.0,59.0
1295,238.86774899999998,240.61774899999998,44.0,69.0
1296,239.11774899999998,240.63858233333332,51.0,61.0
1297,240.61774899999998,240.792749,72.0,76.0
1298,240.86774899999998,241.3635823333333,60.0,62.0
1299,240.86774899999998,241.40941566666663,63.0,69.0
1300,240.86774899999998,241.64066566666665,68.0,63.0
1301,240.86774899999998,241.95941566666664,56.0,57.0
1302,241.86774899999998,242.08649899999998,68.0,70.0
1303,241.86774899999998,242.4010823333333,63.0,95.0
1304,241.86774899999998,242.5385823333333,58.0,91.0
1305,240.86774899999998,242.9323323333333,44.0,59.0
1306,242.86774899999998,243.39899899999998,61.0,67.0
1307,242.36774899999998,243.4573323333333,56.0,72.0
1308,242.86774899999998,243.4760823333333,65.0,62.0
1309,242.86774899999998,243.7135823333333,68.0,35.0
1310,242.86774899999998,244.32191566666665,49.0,64.0
1311,243.86774899999998,244.38858233333332,56.0,57.0
1312,243.86774899999998,244.417749,61.0,73.0
1313,243.86774899999998,244.48441566666665,65.0,67.0
1314,244.86774899999998,245.37399899999997,67.0,61.0
1315,244.86774899999998,245.3948323333333,63.0,67.0
1316,244.86774899999998,245.40316566666664,58.0,58.0
1317,244.86774899999998,245.46149899999998,48.0,60.0
1318,246.11774899999998,246.4760823333333,56.0,54.0
1319,246.36774899999998,246.72191566666663,63.0,75.0
1320,246.86774899999998,247.480249,65.0,63.0
1321,246.86774899999998,247.51566566666665,56.0,56.0
1322,246.86774899999998,247.59066566666664,61.0,69.0
1323,246.86774899999998,248.33649899999998,53.0,59.0
1324,246.86774899999998,248.38024899999996,41.0,60.0
1325,248.11774899999998,248.46774899999997,56.0,56.0
1326,248.36774899999998,248.636499,61.0,67.0
1327,248.61774899999998,249.28024899999997,68.0,67.0
1328,248.86774899999998,249.31774899999996,56.0,63.0
1329,248.86774899999998,249.36149899999998,65.0,67.0
1330,248.86774899999998,249.39066566666665,61.0,67.0
1331,249.86774899999998,250.06566566666663,63.0,70.0
1332,249.86774899999998,250.13441566666665,58.0,63.0
1333,249.86774899999998,250.230249,67.0,69.0
1334,248.86774899999998,250.3073323333333,39.0,63.0
1335,248.86774899999998,250.40524899999997,51.0,53.0
1336,250.86774899999998,251.28649899999996,63.0,66.0
1337,250.86774899999998,251.31774899999996,68.0,76.0
1338,250.86774899999998,251.3823323333333,65.0,62.0
1339,251.61774899999998,252.18649899999997,63.0,85.0
1340,251.11774899999998,252.29066566666665,56.0,58.0
1341,252.11774899999998,252.3698323333333,68.0,85.0
1342,251.36774899999998,252.38441566666665,61.0,66.0
1343,250.86774899999998,252.4448323333333,49.0,70.0
1344,252.61774899999998,252.78024899999997,68.0,55.0
1345,252.61774899999998,252.78441566666663,63.0,58.0
1346,252.86774899999998,253.46566566666664,70.0,60.0
1347,253.61774899999998,253.9073323333333,63.0,70.0
1348,253.36774899999998,254.02816566666664,60.0,53.0
1349,253.61774899999998,254.042749,68.0,63.0
1350,253.11774899999998,254.11149899999998,56.0,52.0
1351,252.86774899999998,254.27191566666664,48.0,59.0
1352,254.11774899999998,254.28649899999996,70.0,59.0
1353,254.36774899999998,254.54691566666665,72.0,62.0
1354,254.61774899999998,254.7198323333333,75.0,63.0
1355,254.61774899999998,254.73649899999998,72.0,24.0
1356,254.86774899999998,255.1260823333333,65.0,60.0
1357,254.86774899999998,255.43024899999998,73.0,75.0
1358,255.36774899999998,255.49066566666664,63.0,49.0
1359,255.36774899999998,255.605249,72.0,61.0
1360,255.61774899999998,255.77816566666664,70.0,62.0
1361,255.61774899999998,255.80941566666664,63.0,61.0
1362,255.86774899999998,256.13441566666665,58.0,37.0
1363,255.11774899999998,256.2031656666666,53.0,47.0
1364,256.117749,256.273999,63.0,62.0
1365,256.117749,256.273999,68.0,73.0
1366,254.86774899999998,256.305249,46.0,64.0
1367,256.617749,256.85524899999996,61.0,48.0
1368,256.867749,257.15524899999997,65.0,58.0
1369,256.867749,257.273999,68.0,45.0
1370,257.367749,257.5573323333333,61.0,54.0
1371,257.367749,257.78441566666663,70.0,72.0
1372,256.867749,257.892749,39.0,59.0
1373,256.867749,257.93441566666667,51.0,41.0
1374,257.867749,258.2635823333333,67.0,70.0
1375,257.867749,258.3198323333333,61.0,49.0
1376,257.867749,258.3635823333333,43.0,50.0
1377,258.867749,259.10316566666665,61.0,52.0
1378,258.867749,259.3948323333333,63.0,69.0
1379,258.867749,259.461499,68.0,40.0
1380,259.867749,260.18858233333333,68.0,45.0
1381,260.117749,260.30316566666664,73.0,62.0
1382,260.367749,260.617749,75.0,53.0
1383,259.367749,261.4031656666666,51.0,31.0
1384,260.867749,261.56566566666663,80.0,42.0
1385,260.867749,261.59274899999997,68.0,44.0
1386,259.617749,261.61566566666664,56.0,56.0
1387,258.867749,261.6948323333333,44.0,63.0
