,start,end,pitch,velocity
0,16.916938552083334,17.457847102083335,70.0,84.0
1,17.462392552083333,17.73057410208333,71.0,90.0
2,17.735119552083333,19.912390102083336,73.0,91.0
3,19.91693555208333,20.185117102083332,78.0,80.0
4,20.189662552083334,20.73057110208333,77.0,82.0
5,20.735116552083333,21.003298102083335,70.0,84.0
6,21.007843552083333,21.821479102083334,75.0,72.0
7,21.826024552083332,22.639660102083333,73.0,83.0
8,22.644205552083335,23.730568102083332,70.0,80.0
9,23.735113552083334,24.003295102083335,68.0,73.0
10,24.007840552083334,24.27602210208333,70.0,77.0
11,24.280567552083333,26.457838102083336,71.0,83.0
12,26.46238355208333,26.730565102083332,71.0,79.0
13,26.735110552083334,27.276019102083332,70.0,80.0
14,27.280564552083334,27.548746102083335,66.0,72.0
15,27.553291552083337,28.912381102083337,70.0,78.0
16,28.916926552083332,29.185108102083333,68.0,73.0
17,29.189653552083335,30.276016102083332,68.0,78.0
18,30.280561552083334,30.548743102083336,70.0,83.0
19,30.553288552083337,30.82147010208333,71.0,82.0
20,30.826015552083334,33.00328610208334,73.0,83.0
21,33.00783155208333,33.27601310208333,78.0,83.0
22,33.280558552083335,33.82146710208333,77.0,78.0
23,33.826012552083334,34.094194102083335,70.0,73.0
24,34.09873955208334,35.185102102083334,73.0,82.0
25,35.189647552083336,35.730556102083334,77.0,78.0
26,35.735101552083336,36.957827602083334,75.0,83.0
27,36.962373052083336,37.094191102083336,75.0,69.0
28,37.09873655208334,37.36691810208333,77.0,79.0
29,37.371463552083334,38.730553102083334,78.0,82.0
30,38.735098552083336,39.00328010208334,70.0,82.0
31,39.00782555208333,39.54873410208334,71.0,90.0
32,39.55327955208333,39.82146110208333,78.0,82.0
33,39.826006552083335,40.639642102083336,77.0,80.0
34,40.64418755208334,41.185096102083335,75.0,90.0
35,41.18964155208334,43.09418510208334,73.0,90.0
36,43.09873055208334,43.639639102083336,70.0,84.0
37,43.64418455208334,43.91236610208334,71.0,73.0
38,43.916911552083334,46.09418210208334,73.0,90.0
39,46.09872755208334,46.36690910208334,78.0,86.0
40,46.371454552083335,46.77599960208334,77.0,78.0
41,46.78054505208334,47.185090102083336,70.0,63.0
42,47.18963555208334,48.00327110208334,75.0,79.0
43,48.007816552083334,48.821452102083335,73.0,83.0
44,48.82599755208334,49.91236010208334,70.0,78.0
45,49.916905552083335,50.18508710208334,68.0,84.0
46,50.18963255208334,50.45781410208334,70.0,82.0
47,50.462359552083335,52.63963010208334,71.0,90.0
48,52.64417555208334,52.91235710208334,71.0,79.0
49,52.916902552083336,53.45781110208334,70.0,82.0
50,53.462356552083335,53.73053810208334,66.0,83.0
51,53.73508355208334,55.09417310208334,70.0,84.0
52,55.09871855208334,55.366900102083335,71.0,81.0
53,55.37144555208334,56.45780810208334,68.0,84.0
54,56.462353552083336,56.73053510208334,70.0,82.0
55,56.73508055208334,57.00326210208334,71.0,84.0
56,57.007807552083335,59.18507810208334,73.0,86.0
57,59.18962355208334,59.45780510208334,78.0,93.0
58,59.462350552083336,60.00325910208334,77.0,84.0
59,60.007804552083336,60.27598610208334,70.0,86.0
60,60.28053155208334,61.366894102083336,73.0,84.0
61,61.37143955208334,61.912348102083335,77.0,98.0
62,61.91689355208334,63.00325610208334,75.0,95.0
63,63.007801552083336,63.27598310208334,75.0,90.0
64,63.28052855208334,63.54871010208334,77.0,84.0
65,63.553255552083336,64.91234510208334,78.0,90.0
66,64.91689055208333,65.18507210208334,70.0,83.0
67,65.18961755208333,65.73052610208333,71.0,98.0
68,65.73507155208334,66.27598010208334,78.0,90.0
69,66.28052555208333,66.54870710208334,75.0,76.0
70,66.55325255208334,66.82143410208333,77.0,80.0
71,66.82597955208334,72.54870110208334,78.0,86.0
72,72.55324655208334,72.82142810208333,73.0,94.0
73,72.82597355208334,73.09415510208333,78.0,84.0
74,73.09870055208333,73.36688210208334,80.0,82.0
75,73.37142755208333,73.91233610208334,82.0,93.0
76,73.91688155208334,74.45779010208334,75.0,94.0
77,74.46233555208335,74.73051710208334,82.0,94.0
78,74.73506255208333,75.00324410208334,75.0,79.0
79,75.00778955208334,75.82142510208334,80.0,91.0
80,75.82597055208333,76.09415210208334,77.0,84.0
81,76.09869755208334,76.36687910208335,78.0,82.0
82,76.37142455208334,76.63960610208333,80.0,82.0
83,76.64415155208334,77.45778710208334,80.0,84.0
84,77.46233255208334,78.00324110208334,73.0,101.0
85,78.00778655208335,78.27596810208334,73.0,98.0
86,78.28051355208333,78.82142210208335,80.0,84.0
87,78.82596755208334,79.36687610208334,78.0,84.0
88,79.37142155208333,79.63960310208334,77.0,84.0
89,79.64414855208334,79.91233010208335,78.0,80.0
90,79.91687555208334,80.73051110208334,71.0,90.0
91,80.73505655208334,81.00323810208334,78.0,95.0
92,81.00778355208334,81.27596510208333,77.0,90.0
93,81.28051055208334,81.54869210208334,78.0,86.0
94,81.55323755208335,82.36687310208335,80.0,83.0
95,82.37141855208334,82.63960010208334,73.0,91.0
96,82.64414555208334,82.91232710208334,78.0,84.0
97,82.91687255208333,83.18505410208334,80.0,76.0
98,83.18959955208334,83.45778110208335,83.0,91.0
99,83.46232655208334,83.73050810208333,82.0,82.0
100,83.73505355208334,84.00323510208334,80.0,79.0
101,84.00778055208335,84.27596210208334,83.0,94.0
102,84.28050755208334,84.54868910208334,82.0,83.0
103,84.55323455208334,84.82141610208333,80.0,82.0
104,84.82596155208334,85.63959710208334,82.0,90.0
105,85.64414255208334,85.91232410208335,82.0,95.0
106,85.91686955208334,86.18505110208334,80.0,80.0
107,86.18959655208334,86.45777810208334,78.0,83.0
108,86.46232355208333,87.00323210208335,82.0,91.0
109,87.00777755208334,87.54868610208334,87.0,75.0
110,87.55323155208335,87.82141310208334,82.0,84.0
111,87.82595855208334,88.09414010208334,78.0,86.0
112,88.09868555208334,88.91232110208334,80.0,81.0
113,88.91686655208333,89.18504810208334,77.0,101.0
114,89.18959355208334,89.45777510208335,78.0,86.0
115,89.46232055208334,89.73050210208334,80.0,83.0
116,89.73504755208334,90.27595610208334,80.0,84.0
117,90.28050155208334,90.54868310208334,85.0,91.0
118,90.55322855208334,90.82141010208333,83.0,90.0
119,90.82595555208334,91.09413710208334,82.0,90.0
120,91.09868255208335,91.36686410208334,80.0,81.0
121,91.37140955208334,92.18504510208334,78.0,98.0
122,92.18959055208335,92.45777210208334,75.0,86.0
123,92.46231755208333,92.73049910208334,77.0,81.0
124,92.73504455208334,93.00322610208335,78.0,80.0
125,93.00777155208334,93.82140710208334,71.0,83.0
126,93.82595255208334,94.09413410208334,77.0,90.0
127,94.09867955208334,94.36686110208333,78.0,83.0
128,94.37140655208334,94.63958810208334,80.0,79.0
129,94.64413355208335,94.91231510208334,82.0,79.0
130,94.91686055208334,95.18504210208334,80.0,71.0
131,95.18958755208334,95.45776910208335,78.0,79.0
132,95.46231455208334,95.86685960208334,77.0,80.0
133,95.87140505208335,96.13958660208334,78.0,75.0
134,96.14413205208334,96.54867710208335,80.0,73.0
135,96.55322255208334,97.91231210208335,78.0,78.0
136,111.79645655208334,112.33736510208334,70.0,84.0
137,112.34191055208335,112.61009210208334,71.0,73.0
138,112.61463755208335,114.79190810208334,73.0,90.0
139,114.79645355208335,115.06463510208334,78.0,86.0
140,115.06918055208335,115.47372560208335,77.0,78.0
141,115.47827105208334,115.88281610208335,70.0,63.0
142,115.88736155208335,116.70099710208335,75.0,79.0
143,116.70554255208334,117.51917810208334,73.0,83.0
144,117.52372355208334,118.62005439375001,70.0,78.0
145,118.62464155208335,118.89528389375,68.0,84.0
146,118.89987105208334,119.17051339375,70.0,82.0
147,119.17510055208334,121.35237110208334,71.0,90.0
148,121.35691655208333,121.62509810208334,71.0,79.0
149,121.62964355208334,122.17055210208333,70.0,82.0
150,122.17509755208333,122.44327910208334,66.0,83.0
151,122.44782455208333,123.80691410208334,70.0,84.0
152,123.81145955208333,124.07964110208334,71.0,81.0
153,124.08418655208334,125.17054910208334,68.0,84.0
154,125.17509455208334,125.44327610208333,70.0,82.0
155,125.44782155208334,125.71600310208333,71.0,84.0
156,125.72054855208333,127.89781910208333,73.0,86.0
157,127.90236455208334,128.17054610208334,78.0,93.0
158,128.17509155208333,128.71600010208334,77.0,84.0
159,128.72054555208334,128.98872710208335,70.0,86.0
160,128.99327255208334,130.07963510208333,73.0,84.0
161,130.08418055208332,130.62508910208334,77.0,98.0
162,130.62963455208333,131.71599710208335,78.0,95.0
163,131.72054255208334,131.98872410208332,75.0,90.0
164,131.99326955208335,132.26145110208333,77.0,84.0
165,132.26599655208332,133.07963210208334,78.0,90.0
166,133.08417755208333,133.89781310208335,82.0,90.0
167,133.90235855208334,134.44326710208333,78.0,90.0
168,134.44781255208335,135.26144810208334,75.0,90.0
169,135.26599355208333,135.53417510208334,77.0,80.0
170,135.53872055208333,141.26144210208332,78.0,86.0
171,147.81143555208334,148.07961710208335,73.0,94.0
172,148.08416255208334,148.35234410208335,78.0,84.0
173,148.35688955208335,148.62507110208333,80.0,82.0
174,148.62961655208335,149.17052510208333,82.0,93.0
175,149.17507055208333,149.71597910208334,75.0,94.0
176,149.72052455208333,149.98870610208334,82.0,94.0
177,149.99325155208334,150.26143310208334,78.0,79.0
178,150.26597855208334,151.07961410208333,80.0,91.0
179,151.08415955208335,151.35234110208333,77.0,84.0
180,151.35688655208332,151.62506810208333,78.0,82.0
181,151.62961355208336,151.89779510208334,80.0,82.0
182,151.90234055208333,152.71597610208335,80.0,84.0
183,152.44779455208334,152.98870310208335,73.0,101.0
184,153.26597555208335,153.53415710208333,73.0,98.0
185,153.53870255208335,154.07961110208333,80.0,84.0
186,154.08415655208333,154.62506510208334,78.0,84.0
187,154.62961055208334,154.89779210208334,77.0,84.0
188,154.90233755208334,155.17051910208335,78.0,80.0
189,155.17506455208334,155.98870010208333,71.0,90.0
190,155.99324555208335,156.26142710208333,78.0,95.0
191,156.26597255208333,156.53415410208333,77.0,90.0
192,156.53869955208333,156.80688110208334,78.0,86.0
193,156.81142655208333,157.62506210208335,80.0,83.0
194,157.62960755208334,157.89778910208332,73.0,91.0
195,157.90233455208335,158.17051610208335,78.0,84.0
196,158.17506155208335,158.44324310208333,80.0,76.0
197,158.44778855208335,158.71597010208333,83.0,91.0
198,158.72051555208333,158.98869710208334,82.0,82.0
199,158.99324255208333,159.26142410208334,80.0,79.0
200,159.26596955208333,159.53415110208334,83.0,94.0
201,159.53869655208334,159.80687810208335,82.0,83.0
202,159.81142355208334,160.07960510208335,80.0,82.0
203,160.08415055208334,160.89778610208333,82.0,90.0
204,160.90233155208335,161.17051310208333,82.0,95.0
205,161.17505855208333,161.44324010208334,80.0,80.0
206,161.44778555208333,161.71596710208334,78.0,83.0
207,161.72051255208333,162.26142110208335,82.0,91.0
208,162.26596655208334,162.80687510208332,87.0,75.0
209,162.81142055208335,163.07960210208336,82.0,84.0
210,163.08414755208332,163.35232910208333,78.0,86.0
211,163.35687455208335,164.17051010208334,80.0,81.0
212,164.17505555208334,164.44323710208334,77.0,101.0
213,164.44778255208334,164.71596410208335,78.0,86.0
214,164.72050955208334,164.98869110208335,80.0,83.0
215,164.99323655208335,165.53414510208333,80.0,84.0
216,165.53869055208332,165.80687210208333,85.0,91.0
217,165.81141755208336,166.07959910208334,83.0,90.0
218,166.08414455208333,166.35232610208334,82.0,90.0
219,166.35687155208333,166.62505310208334,80.0,81.0
220,166.62959855208334,167.44323410208335,78.0,98.0
221,167.44777955208335,167.71596110208333,75.0,86.0
222,167.72050655208335,167.98868810208333,77.0,81.0
223,167.99323355208332,168.26141510208333,78.0,80.0
224,168.26596055208336,169.07959610208334,71.0,83.0
225,169.08414155208334,169.35232310208335,77.0,90.0
226,169.35686855208334,169.62505010208335,78.0,83.0
227,169.62959555208334,169.89777710208335,80.0,79.0
228,169.90232255208335,170.17050410208333,82.0,79.0
229,170.17504955208335,170.44323110208333,80.0,71.0
230,170.44777655208333,170.71595810208333,78.0,79.0
231,170.72050355208336,171.12504860208333,77.0,80.0
232,171.12959405208335,171.39777560208336,78.0,75.0
233,171.40232105208332,171.80686610208335,80.0,73.0
234,171.81141155208334,173.17050110208334,78.0,78.0
235,184.62958055208333,185.12276187708335,83.0,103.0
236,185.31139805208335,185.50571603958335,82.0,78.0
237,185.44776155208334,185.95230650208333,83.0,94.0
238,186.12957905208333,186.31707886458332,82.0,76.0
239,186.26594255208335,186.78185112708334,83.0,83.0
240,186.94776005208334,187.17162346458335,82.0,82.0
241,187.08412355208333,187.40457777708335,83.0,82.0
242,187.35685055208336,187.59321395208335,85.0,83.0
243,187.62957755208333,187.81253191458336,80.0,84.0
244,187.90230455208334,188.55457662708335,82.0,90.0
245,188.96253076458333,189.24434866458336,85.0,94.0
246,189.23298503958335,189.57503015208334,89.0,99.0
247,189.52843928958333,190.44093837708334,87.0,100.0
248,190.34662028958334,191.03980141458334,82.0,100.0
249,196.90229555208333,197.17047710208334,74.0,94.0
250,197.17502255208336,197.44320410208334,79.0,84.0
251,197.44774955208334,197.71593110208335,81.0,82.0
252,198.53865755208335,199.07956610208333,83.0,93.0
253,198.81138455208333,199.35229310208334,76.0,94.0
254,199.62956555208336,199.89774710208334,83.0,94.0
255,199.90229255208334,200.17047410208335,79.0,79.0
256,200.17501955208334,200.98865510208333,81.0,91.0
257,200.99320055208335,201.26138210208336,78.0,84.0
258,201.26592755208333,201.53410910208333,79.0,82.0
259,201.53865455208336,201.80683610208334,81.0,82.0
260,201.81138155208333,202.62501710208335,81.0,84.0
261,202.35683555208334,202.89774410208332,74.0,101.0
262,203.17501655208335,203.44319810208333,74.0,98.0
263,203.44774355208335,203.98865210208334,84.0,84.0
264,203.99319755208336,204.53410610208334,83.0,84.0
265,204.53865155208334,204.80683310208335,78.0,84.0
266,204.81137855208334,205.07956010208335,79.0,80.0
267,205.08410555208334,205.89774110208333,72.0,90.0
268,205.90228655208335,206.17046810208336,79.0,95.0
269,206.17501355208333,206.44319510208334,78.0,90.0
270,206.44774055208336,206.71592210208334,79.0,86.0
271,206.72046755208333,207.53410310208335,81.0,83.0
272,207.53864855208334,207.80683010208332,74.0,91.0
273,207.81137555208335,208.07955710208336,79.0,84.0
274,208.08410255208332,208.35228410208333,81.0,76.0
275,208.35682955208335,208.62501110208336,84.0,91.0
276,208.62955655208333,208.89773810208334,83.0,82.0
277,208.90228355208336,209.17046510208334,82.0,79.0
278,209.17501055208334,209.44319210208334,83.0,94.0
279,209.44773755208334,209.71591910208335,86.0,83.0
280,209.72046455208334,209.98864610208335,81.0,82.0
281,209.99319155208335,210.80682710208333,83.0,90.0
282,210.81137255208336,211.07955410208336,83.0,95.0
283,211.08409955208333,211.35228110208334,81.0,80.0
284,211.35682655208336,211.62500810208334,79.0,83.0
285,211.62955355208334,212.17046210208335,83.0,91.0
286,212.17500755208334,212.71591610208333,88.0,75.0
287,212.72046155208335,212.98864310208336,83.0,84.0
288,212.99318855208332,213.26137010208333,79.0,86.0
289,213.26591555208336,214.07955110208334,81.0,81.0
290,214.08409655208334,214.35227810208335,81.0,101.0
291,214.35682355208334,214.62500510208335,83.0,86.0
292,214.62955055208334,214.89773210208335,84.0,83.0
293,214.90227755208335,215.44318610208336,83.0,84.0
294,215.44773155208333,215.71591310208333,86.0,91.0
295,215.72045855208336,215.98864010208334,86.0,90.0
296,215.99318555208333,216.26136710208334,78.0,90.0
297,216.26591255208336,216.53409410208334,81.0,81.0
298,217.35682055208335,217.62500210208333,78.0,81.0
299,216.81136655208334,217.62500210208333,79.0,98.0
300,217.90227455208333,218.17045610208334,79.0,80.0
301,218.17500155208336,218.98863710208335,72.0,83.0
302,218.99318255208334,219.26136410208335,78.0,90.0
303,219.26590955208334,219.53409110208332,79.0,83.0
304,219.53863655208335,219.80681810208335,81.0,79.0
305,219.81136355208335,220.07954510208333,84.0,79.0
306,220.08409055208335,220.35227210208336,83.0,71.0
307,220.35681755208333,220.62499910208334,79.0,79.0
308,220.62954455208336,221.03408960208333,78.0,80.0
309,220.90227155208333,221.17045310208334,79.0,75.0
310,221.17499855208334,221.57954360208333,81.0,73.0
311,221.72045255208334,223.07954210208334,83.0,78.0
312,227.31135605208334,227.90908272708333,78.0,98.0
313,228.26590055208334,229.20453597708334,79.0,75.0
314,228.81135455208334,229.22158141458334,72.0,93.0
315,230.85680705208335,231.12498860208336,78.0,79.0
316,231.12953405208333,231.39771560208334,79.0,75.0
317,231.40226105208336,231.80680610208333,81.0,79.0
318,231.81135155208335,232.07953310208336,83.0,91.0
319,232.08407855208333,232.37498735208334,81.0,78.0
320,232.37953280208336,233.03407760208336,79.0,78.0
321,233.03862305208332,233.44316810208335,78.0,86.0
322,233.44771355208334,234.26134910208333,79.0,73.0
323,234.26589455208335,235.07953010208334,81.0,86.0
324,235.08407555208333,235.35225710208334,79.0,86.0
