,start,end,pitch,velocity
0,0.5447250520833333,0.8772940312499999,78.0,82.0
1,0.8199545520833333,1.07339505,80.0,76.0
2,1.0951840520833334,1.4369273479166667,82.0,75.0
3,1.3704135520833334,2.030964352083333,75.0,74.0
4,2.1961020520833334,2.6204141979166664,73.0,75.0
5,1.9208725520833332,2.6238545666666666,71.0,60.0
6,2.4713315520833334,2.8153684270833335,78.0,77.0
7,2.7465610520833335,3.416879627083333,68.0,50.0
8,3.155719052083333,3.480495664583333,71.0,1.0
9,3.825361552083333,4.01509359375,73.0,71.0
10,1.6456430520833334,4.069781064583333,66.0,71.0
11,3.825361552083333,4.085406056249999,78.0,76.0
12,1.3704135520833334,4.21598634375,59.0,79.0
13,4.093218552083333,4.328709497916666,80.0,62.0
14,4.628932552083333,4.983290533333332,73.0,78.0
15,4.628932552083333,4.997052008333332,68.0,73.0
16,5.179391552083333,5.511960531249999,68.0,58.0
17,5.454621052083333,5.704621181249999,80.0,68.0
18,4.904162052083333,6.060125952083332,65.0,71.0
19,5.729850552083333,6.07618100625,77.0,76.0
20,6.005080052083333,6.263107708333333,75.0,68.0
21,6.280309552083333,6.650722587499999,68.0,62.0
22,6.280309552083333,6.742465754166666,73.0,77.0
23,6.830768552083333,7.241319222916665,65.0,71.0
24,7.105998052083333,7.258521066666666,78.0,78.0
25,4.628932552083333,7.269988962499999,58.0,73.0
26,7.381227552083333,7.569301043749999,80.0,57.0
27,7.656457052083333,7.928246183333332,82.0,62.0
28,7.931686552083333,8.2481282625,75.0,77.0
29,8.201957052083333,8.33258779375,77.0,53.0
30,8.472227552083332,8.803308914583333,78.0,84.0
31,8.472227552083332,8.848353997916666,71.0,78.0
32,8.742498052083333,9.034164966666665,68.0,73.0
33,7.931686552083333,9.05556138125,56.0,75.0
34,8.201957052083333,9.089345193749999,63.0,72.0
35,9.012768552083333,9.233489460416667,77.0,79.0
36,9.283039052083332,9.545426662499999,78.0,79.0
37,9.553309552083332,9.899900114583332,68.0,83.0
38,9.553309552083332,9.908991014583332,77.0,84.0
39,9.826036552083332,10.165808939583332,65.0,76.0
40,10.098763552083332,10.370354189583333,68.0,82.0
41,10.098763552083332,10.502172239583333,73.0,96.0
42,10.371490552083333,10.536263114583333,65.0,71.0
43,9.553309552083332,10.648763002083333,46.0,75.0
44,9.553309552083332,10.648763002083333,58.0,75.0
45,10.644217552083333,10.879444589583333,68.0,82.0
46,10.916944552083333,11.077171664583332,73.0,83.0
47,11.189671552083333,11.508989414583333,66.0,91.0
48,11.189671552083333,11.578307527083332,71.0,94.0
49,11.735125552083332,12.046488877083332,66.0,79.0
50,12.007852552083332,12.111261539583332,71.0,94.0
51,12.280579552083333,12.521488402083332,73.0,80.0
52,11.462398552083332,12.602170139583333,64.0,83.0
53,12.553306552083333,12.783988139583332,78.0,83.0
54,12.826033552083333,12.885124402083333,78.0,33.0
55,12.826033552083333,13.120351439583333,73.0,78.0
56,12.826033552083333,13.147624139583332,83.0,84.0
57,13.098760552083332,13.729441739583333,64.0,17.0
58,11.189671552083333,13.945350614583333,40.0,98.0
59,11.189671552083333,13.945350614583333,52.0,98.0
60,14.326032052083333,14.686258964583333,73.0,57.0
61,14.326032052083333,14.712395302083333,78.0,79.0
62,14.462395552083333,14.733986189583334,85.0,73.0
63,15.280576552083332,15.648758002083333,66.0,69.0
64,15.553303552083332,15.794212402083332,71.0,68.0
65,15.007849552083332,15.920348639583333,61.0,61.0
66,16.098757552083335,16.71580238958333,61.0,11.0
67,14.735122552083332,16.770347789583333,56.0,60.0
68,16.098757552083335,16.805575027083332,68.0,69.0
69,15.826030552083333,16.812393202083335,73.0,61.0
70,16.098757552083335,16.824893189583335,65.0,68.0
71,14.462395552083333,16.901029477083334,49.0,79.0
72,17.735119552083333,18.21239180208333,78.0,72.0
73,18.553300552083336,18.755573077083334,68.0,54.0
74,18.826027552083332,19.23398168958333,70.0,59.0
75,19.098754552083335,19.349890664583334,73.0,63.0
76,18.280573552083332,19.719208477083335,66.0,57.0
77,19.37148155208333,19.806708389583335,78.0,59.0
78,19.91693555208333,20.31125333958333,66.0,19.0
79,17.735119552083333,20.465798639583333,54.0,62.0
80,20.189662552083334,20.497616789583333,78.0,75.0
81,18.007846552083333,20.539662202083335,61.0,58.0
82,21.007843552083333,21.41352496458333,68.0,51.0
83,21.007843552083333,21.454434014583335,73.0,76.0
84,21.007843552083333,21.830570002083334,53.0,71.0
85,21.553297552083333,21.883979039583334,65.0,68.0
86,21.280570552083333,21.937388077083334,61.0,46.0
87,21.826024552083332,22.12716061458333,68.0,68.0
88,22.098751552083336,22.372614914583334,70.0,69.0
89,22.37147855208333,23.601022777083333,73.0,75.0
90,22.644205552083335,23.63056820208333,51.0,60.0
91,22.644205552083335,23.854431614583333,67.0,32.0
92,22.644205552083335,23.904431564583334,63.0,32.0
93,24.007840552083334,24.308976614583333,73.0,69.0
94,24.280567552083333,24.461249189583334,44.0,42.0
95,24.553294552083333,24.813521564583333,56.0,57.0
96,24.280567552083333,25.103294002083334,71.0,76.0
97,24.280567552083333,25.179430289583333,63.0,62.0
98,24.826021552083333,25.233975689583332,58.0,57.0
99,25.098748552083336,25.436248214583333,59.0,78.0
100,25.371475552083332,25.606702589583335,63.0,60.0
101,25.644202552083335,26.235111052083333,66.0,73.0
102,25.91692955208333,26.235111052083333,66.0,68.0
103,25.91692955208333,26.277156464583335,71.0,73.0
104,25.91692955208333,26.288520089583336,63.0,55.0
105,26.46238355208333,26.73738327708333,73.0,62.0
106,27.00783755208333,27.099882914583333,71.0,74.0
107,25.91692955208333,27.116928352083335,44.0,30.0
108,25.91692955208333,27.287382727083333,56.0,48.0
109,27.280564552083334,27.50215523958333,70.0,63.0
110,27.553291552083337,27.880563952083335,61.0,62.0
111,27.553291552083337,27.998745652083336,68.0,72.0
112,28.371472552083333,28.624881389583336,66.0,59.0
113,28.644199552083336,28.72374492708333,68.0,60.0
114,29.189653552083335,29.541925927083334,85.0,75.0
115,28.916926552083332,29.566925902083334,73.0,50.0
116,30.00783455208333,30.123743527083334,83.0,78.0
117,27.553291552083337,30.219197977083333,49.0,23.0
118,27.826018552083333,30.261243389583335,56.0,54.0
119,28.098745552083336,30.271470652083337,61.0,58.0
120,30.553288552083337,30.860106427083338,73.0,69.0
121,30.826015552083334,31.193060639583337,82.0,62.0
122,31.644196552083336,32.033968889583335,70.0,54.0
123,31.371469552083333,32.089650652083336,66.0,59.0
124,31.916923552083333,32.120332439583336,73.0,54.0
125,30.826015552083334,32.19874145208333,54.0,54.0
126,31.098742552083337,32.38851398958334,61.0,56.0
127,32.189650552083336,32.44987756458333,77.0,57.0
128,32.46237755208333,32.811240839583334,70.0,38.0
129,32.46237755208333,32.85669533958333,78.0,72.0
130,33.00783155208333,33.216922252083336,70.0,67.0
131,33.00783155208333,33.223740427083335,77.0,70.0
132,32.735104552083335,33.51692195208334,61.0,53.0
133,33.280558552083335,33.599876414583335,66.0,48.0
134,32.46237755208333,33.76123988958334,54.0,62.0
135,33.55328555208333,33.780558052083336,68.0,45.0
136,33.55328555208333,33.85328525208333,73.0,75.0
137,33.826012552083334,34.06464867708333,75.0,68.0
138,33.826012552083334,34.11692135208333,61.0,49.0
139,34.09873955208334,34.639648102083335,65.0,68.0
140,34.09873955208334,34.945329614583336,73.0,80.0
141,34.91692055208333,35.271465652083336,65.0,68.0
142,34.64419355208334,35.279420189583334,61.0,12.0
143,34.09873955208334,35.33169286458333,53.0,76.0
144,35.189647552083336,35.433965489583336,68.0,61.0
145,35.735101552083336,36.224873789583334,66.0,63.0
146,35.735101552083336,36.23510105208334,61.0,62.0
147,35.735101552083336,36.268055564583335,70.0,63.0
148,35.46237455208333,36.27260101458334,73.0,68.0
149,35.735101552083336,36.580555252083336,58.0,53.0
150,36.55328255208333,36.89191857708334,61.0,62.0
151,36.55328255208333,36.91464582708333,73.0,67.0
152,35.735101552083336,36.931691264583336,51.0,51.0
153,36.826009552083335,36.96578213958333,58.0,59.0
154,37.371463552083334,37.58850878958334,44.0,76.0
155,37.64419055208334,37.91919027708334,56.0,55.0
156,37.371463552083334,38.222599064583335,63.0,62.0
157,37.09873655208334,38.222599064583335,66.0,76.0
158,37.371463552083334,38.222599064583335,66.0,75.0
159,37.371463552083334,38.27032628958334,71.0,73.0
160,37.91691755208333,38.40555342708333,58.0,58.0
161,38.18964455208334,38.504416964583335,59.0,79.0
162,38.46237155208333,39.03850733958333,61.0,71.0
163,38.735098552083336,39.52827957708333,66.0,75.0
164,39.00782555208333,39.637370377083336,73.0,79.0
165,39.55327955208333,39.877142864583334,61.0,55.0
166,39.826006552083335,40.071460852083334,71.0,84.0
167,39.826006552083335,40.11123353958334,66.0,77.0
168,40.09873355208334,40.26123338958333,61.0,52.0
169,39.280552552083336,40.36805146458334,56.0,50.0
170,39.00782555208333,40.41805141458333,49.0,79.0
171,40.64418755208334,41.00100537708334,61.0,69.0
172,40.64418755208334,41.022596264583335,68.0,76.0
173,41.18964155208334,41.49077761458334,61.0,61.0
174,41.46236855208333,41.77145915208334,66.0,82.0
175,41.73509555208334,41.89645902708334,68.0,76.0
176,42.00782255208334,42.45441301458334,70.0,72.0
177,42.280549552083336,42.78395813958333,78.0,73.0
178,40.916914552083334,43.14873050208334,58.0,69.0
179,43.09873055208334,43.22600315208334,73.0,76.0
180,43.09873055208334,43.264639477083335,77.0,72.0
181,43.09873055208334,43.277139464583335,68.0,62.0
182,43.371457552083335,43.56236645208334,58.0,59.0
183,40.64418755208334,43.62600275208334,54.0,76.0
184,43.64418455208334,43.721457202083336,66.0,43.0
185,43.64418455208334,44.01804781458333,73.0,48.0
186,43.916911552083334,44.397592889583336,70.0,72.0
187,43.916911552083334,44.466911002083336,78.0,82.0
188,44.462365552083334,44.793047039583335,66.0,58.0
189,44.73509255208334,45.07941038958334,68.0,71.0
190,44.73509255208334,45.09531946458333,73.0,76.0
191,45.00781955208334,45.27827382708334,66.0,54.0
192,43.916911552083334,45.34645557708334,54.0,73.0
193,45.28054655208334,45.54759173958334,70.0,63.0
194,45.55327355208334,45.681682514583336,68.0,62.0
195,45.55327355208334,45.713500664583336,73.0,80.0
196,44.18963855208334,45.927136814583335,61.0,69.0
197,46.371454552083335,46.71236330208334,73.0,81.0
198,46.371454552083335,46.71463602708334,80.0,78.0
199,46.09872755208334,46.88963585208334,54.0,63.0
200,46.64418155208334,47.00099937708334,61.0,61.0
201,46.916908552083335,47.205544627083334,77.0,78.0
202,47.18963555208334,47.63963510208334,53.0,78.0
203,47.18963555208334,47.75440771458334,73.0,80.0
204,47.18963555208334,47.75895316458334,68.0,72.0
205,47.73508955208334,48.200998177083335,65.0,75.0
206,48.007816552083334,48.20895271458334,68.0,75.0
207,47.462362552083334,48.245316314583334,61.0,52.0
208,48.28054355208334,48.531679664583336,73.0,73.0
209,48.55327055208334,48.782815777083336,77.0,62.0
210,48.82599755208334,49.089633652083336,79.0,83.0
211,48.82599755208334,49.11349726458334,73.0,62.0
212,48.82599755208334,49.12599725208334,70.0,69.0
213,49.64417855208334,49.848723802083335,75.0,82.0
214,49.64417855208334,49.88849648958334,67.0,80.0
215,49.235088052083334,49.972587314583336,58.0,46.0
216,48.82599755208334,50.061223589583335,51.0,71.0
217,49.916905552083335,50.08395083958334,63.0,72.0
218,50.18963255208334,50.423723227083336,68.0,59.0
219,50.462359552083335,50.69758658958334,44.0,78.0
220,50.73508655208334,50.99758628958334,56.0,55.0
221,50.462359552083335,51.05213168958334,63.0,73.0
222,50.462359552083335,51.15440431458334,66.0,76.0
223,50.462359552083335,51.41122223958334,71.0,82.0
224,51.007813552083334,51.54190392708334,58.0,63.0
225,51.28054055208334,51.646449277083335,59.0,75.0
226,52.09872155208334,52.51803931458334,71.0,84.0
227,51.82599455208334,52.629402839583335,66.0,73.0
228,51.55326755208334,53.016902452083336,61.0,73.0
229,52.916902552083336,53.255538577083335,66.0,76.0
230,52.916902552083336,53.274856739583335,73.0,80.0
231,52.64417555208334,53.281674914583334,59.0,54.0
232,53.18962955208334,53.38281117708334,61.0,68.0
233,53.462356552083335,53.61690185208334,68.0,72.0
234,53.73508355208334,54.144174052083336,70.0,75.0
235,53.73508355208334,54.29985571458334,66.0,79.0
236,54.55326455208334,54.858946064583336,66.0,78.0
237,54.82599155208334,54.910082377083334,68.0,75.0
238,54.28053755208334,55.02940043958334,61.0,73.0
239,53.73508355208334,55.07485493958334,49.0,55.0
240,54.007810552083335,55.28962745208334,56.0,68.0
241,55.09871855208334,55.30894561458334,73.0,78.0
242,55.37144555208334,55.71576338958334,78.0,55.0
243,55.37144555208334,55.72599065208334,85.0,75.0
244,55.37144555208334,55.743036089583335,73.0,56.0
245,55.916899552083336,56.14758113958334,83.0,83.0
246,55.916899552083336,56.17712656458334,73.0,74.0
247,56.18962655208334,56.45212628958334,61.0,58.0
248,55.37144555208334,56.62939883958334,49.0,78.0
249,55.64417255208334,56.63508065208334,56.0,59.0
250,56.462353552083336,56.74076236458334,82.0,75.0
251,56.462353552083336,56.81121683958334,73.0,71.0
252,56.73508055208334,57.03735297708334,61.0,50.0
253,56.73508055208334,57.08735292708334,80.0,73.0
254,57.007807552083335,57.48848888958334,78.0,81.0
255,57.007807552083335,57.53735247708334,73.0,73.0
256,58.09871555208334,58.21235180208334,70.0,70.0
257,58.09871555208334,58.25894266458334,78.0,81.0
258,57.82598855208334,58.30098807708334,66.0,59.0
259,57.007807552083335,58.33053350208334,54.0,78.0
260,57.553261552083335,58.33394258958334,61.0,62.0
261,58.37144255208334,58.51348786458334,68.0,59.0
262,58.37144255208334,58.65780590208334,77.0,71.0
263,58.64416955208334,59.080532752083336,68.0,70.0
264,58.64416955208334,59.224850789583336,73.0,79.0
265,58.91689655208334,59.48280507708334,61.0,60.0
266,59.18962355208334,59.58962315208334,66.0,69.0
267,59.462350552083336,59.74985026458334,75.0,79.0
268,59.462350552083336,59.77257751458334,68.0,58.0
269,58.64416955208334,59.79303203958334,54.0,76.0
270,59.73507755208334,59.89416830208334,61.0,75.0
271,60.28053155208334,60.65666753958334,65.0,82.0
272,60.28053155208334,60.67030388958334,68.0,82.0
273,60.28053155208334,60.853258252083336,73.0,84.0
274,60.82598555208334,61.30325780208334,65.0,75.0
275,60.553258552083335,61.361212289583335,61.0,72.0
276,60.28053155208334,61.43280312708334,53.0,84.0
277,61.09871255208334,61.43962130208334,68.0,82.0
278,61.37143955208334,61.49984851458334,73.0,90.0
279,61.91689355208334,62.25552957708334,70.0,72.0
280,61.91689355208334,62.25780230208334,63.0,77.0
281,61.91689355208334,62.29075681458334,67.0,79.0
282,62.46234755208334,62.57371107708334,63.0,79.0
283,62.46234755208334,62.59757468958334,68.0,71.0
284,61.91689355208334,63.07484693958334,51.0,79.0
285,62.73507455208334,63.10325600208334,58.0,75.0
286,63.007801552083336,63.12939233958334,63.0,82.0
287,63.007801552083336,63.14871050208334,70.0,84.0
288,63.553255552083336,63.74416445208334,44.0,79.0
289,63.82598255208334,64.19643672708334,56.0,43.0
290,63.553255552083336,64.20666398958333,63.0,73.0
291,63.553255552083336,64.40098197708333,66.0,82.0
292,63.553255552083336,64.56575453958334,71.0,83.0
293,64.64416355208334,64.91575418958334,63.0,83.0
294,64.37143655208334,64.92484508958333,59.0,82.0
295,64.09870955208333,64.93734507708334,58.0,72.0
296,64.91689055208333,65.11120853958333,66.0,78.0
297,65.18961755208333,65.58052625208333,66.0,82.0
298,65.18961755208333,65.58848078958333,73.0,86.0
299,65.73507155208334,66.02029853958334,66.0,82.0
300,65.73507155208334,66.07598030208334,71.0,86.0
301,66.00779855208333,66.28052555208333,61.0,68.0
302,66.28052555208333,66.39757088958333,66.0,84.0
303,66.28052555208333,66.42825267708334,73.0,86.0
304,65.18961755208333,66.43734357708334,49.0,84.0
305,65.46234455208334,66.50211623958333,56.0,78.0
306,66.55325255208334,66.82029773958334,61.0,57.0
307,66.82597955208334,67.10325200208334,66.0,82.0
308,66.82597955208334,67.16688830208334,70.0,80.0
309,67.37143355208333,67.67256961458334,66.0,71.0
310,67.64416055208333,67.78506950208333,70.0,75.0
311,67.64416055208333,67.96234205208333,78.0,84.0
312,67.09870655208333,68.02825107708334,61.0,72.0
313,67.91688755208334,68.06461467708334,68.0,75.0
314,67.91688755208334,68.15666003958333,77.0,79.0
315,66.82597955208334,68.21915997708334,54.0,83.0
316,68.18961455208334,68.28961445208334,70.0,60.0
317,68.18961455208334,68.48393243958334,61.0,68.0
318,68.18961455208334,68.50325060208334,78.0,74.0
319,68.46234155208333,68.95552287708334,68.0,71.0
320,68.46234155208333,68.98620466458334,73.0,80.0
321,69.00779555208334,69.25779530208334,66.0,79.0
322,68.73506855208333,69.26688620208334,61.0,71.0
323,69.28052255208334,69.58279497708334,68.0,78.0
324,69.28052255208334,69.62029493958333,71.0,90.0
325,68.46234155208333,69.66347671458334,54.0,78.0
326,69.55324955208333,69.90893101458333,61.0,74.0
327,69.82597655208333,69.95893096458333,71.0,78.0
328,69.82597655208333,69.96915822708334,66.0,79.0
329,69.82597655208333,69.99870365208334,75.0,84.0
330,70.09870355208334,70.54756673958333,68.0,75.0
331,70.09870355208334,70.64188482708333,65.0,76.0
332,70.09870355208334,70.70893021458333,73.0,81.0
333,70.64415755208334,71.01233900208334,61.0,75.0
334,70.91688455208333,71.45097492708334,71.0,84.0
335,70.09870355208334,71.46574763958334,49.0,80.0
336,70.91688455208333,71.46688400208333,63.0,76.0
337,71.46233855208334,71.58847478958333,61.0,62.0
338,70.37143055208334,71.74529281458334,56.0,72.0
339,71.73506555208334,72.28961045208334,73.0,83.0
340,71.73506555208334,72.34870130208334,65.0,79.0
341,71.73506555208334,72.37370127708334,68.0,81.0
342,72.28051955208333,72.56347381458333,61.0,91.0
343,72.82597355208334,72.97370067708333,61.0,82.0
344,72.55324655208334,72.98960975208334,71.0,91.0
345,72.00779255208333,72.99301883958334,56.0,76.0
346,72.82597355208334,73.04529151458334,73.0,82.0
347,72.55324655208334,73.07142785208333,65.0,82.0
348,71.73506555208334,73.09415510208333,49.0,84.0
349,73.09870055208333,73.18392773958334,54.0,84.0
350,73.37142755208333,73.78279077708333,78.0,80.0
351,73.37142755208333,73.78619986458334,47.0,86.0
352,73.64415455208334,73.88051795208334,54.0,79.0
353,73.91688155208334,74.23279032708334,59.0,69.0
354,73.91688155208334,74.24983576458334,73.0,82.0
355,73.64415455208334,74.26688120208334,66.0,60.0
356,74.18960855208334,74.58506270208333,61.0,79.0
357,74.46233555208335,74.59301723958333,63.0,83.0
358,74.18960855208334,74.60551722708334,78.0,80.0
359,74.46233555208335,74.80097157708335,66.0,71.0
360,74.73506255208333,75.10438036458333,73.0,82.0
361,75.00778955208334,75.36233465208333,77.0,84.0
362,75.28051655208334,75.59756168958334,66.0,70.0
363,75.55324355208334,75.88392503958335,73.0,83.0
364,75.82597055208333,76.17369747708334,59.0,78.0
365,75.00778955208334,76.21915197708334,47.0,83.0
366,75.82597055208333,76.23051560208334,77.0,86.0
367,75.28051655208334,76.31915187708334,54.0,74.0
368,76.09869755208334,76.41119723958334,68.0,59.0
369,76.37142455208334,76.74301508958334,73.0,83.0
370,76.64415155208334,77.19756008958333,77.0,95.0
371,77.18960555208334,77.52937793958334,58.0,79.0
372,77.46233255208334,77.77937768958334,68.0,75.0
373,76.64415155208334,77.83846853958335,46.0,83.0
374,76.91687855208333,77.84528671458334,53.0,83.0
375,77.46233255208334,77.87710486458334,73.0,84.0
376,78.00778655208335,78.08733192708334,73.0,34.0
377,78.00778655208335,78.10210463958335,77.0,79.0
378,77.73505955208334,78.21574088958334,58.0,60.0
379,78.28051355208333,78.63051320208334,66.0,72.0
380,78.28051355208333,78.63846773958333,70.0,83.0
381,78.28051355208333,78.72596765208334,73.0,84.0
382,78.82596755208334,78.95892196458334,70.0,73.0
383,78.82596755208334,79.16346721458333,78.0,81.0
384,78.82596755208334,79.19073991458335,66.0,74.0
385,79.09869455208334,79.41346696458334,63.0,62.0
386,78.55324055208334,79.47596690208334,58.0,75.0
387,79.37142155208333,79.47823962708334,77.0,84.0
388,79.37142155208333,79.50323960208334,66.0,76.0
389,78.28051355208333,79.53164866458334,51.0,79.0
390,79.64414855208334,79.88619376458334,75.0,78.0
391,79.91687555208334,80.25664793958335,73.0,81.0
392,79.91687555208334,80.28619336458334,66.0,56.0
393,80.46232955208335,80.78505650208334,56.0,73.0
394,80.73505655208334,81.03846533958334,59.0,80.0
395,80.73505655208334,81.06687440208334,66.0,83.0
396,80.73505655208334,81.07482893958334,63.0,79.0
397,80.18960255208334,81.12482888958334,51.0,78.0
398,79.91687555208334,81.14414705208334,44.0,82.0
399,81.00778355208334,81.47596490208333,56.0,74.0
400,81.28051055208334,81.50096487708333,66.0,78.0
401,81.55323755208335,81.91460082708333,61.0,79.0
402,81.55323755208335,81.99869165208334,65.0,84.0
403,82.09869155208334,82.14982786458334,66.0,77.0
404,82.09869155208334,82.16460057708333,61.0,75.0
405,82.09869155208334,82.16800966458334,63.0,78.0
406,82.09869155208334,82.21119143958335,68.0,81.0
407,81.82596455208333,82.71232730208334,56.0,71.0
408,81.55323755208335,82.78505450208334,49.0,80.0
409,82.64414555208334,82.82482718958335,65.0,76.0
410,82.64414555208334,82.92937253958334,71.0,90.0
411,82.64414555208334,82.96687250208333,61.0,78.0
412,82.91687255208333,83.14073596458334,68.0,77.0
413,83.18959955208334,83.67937178958334,42.0,80.0
414,83.46232655208334,83.74528081458334,49.0,80.0
415,83.73505355208334,84.08505320208334,54.0,76.0
416,83.18959955208334,84.19073491458335,66.0,80.0
417,83.18959955208334,84.19755308958334,70.0,83.0
418,83.18959955208334,84.26459847708334,61.0,78.0
419,84.00778055208335,84.39528016458334,56.0,78.0
420,84.28050755208334,84.41800741458334,58.0,91.0
421,84.55323455208334,84.75891616458334,70.0,83.0
422,84.82596155208334,85.23505205208335,61.0,82.0
423,84.82596155208334,85.27141565208333,64.0,90.0
424,84.82596155208334,85.30209743958333,68.0,82.0
425,84.82596155208334,85.32709741458333,42.0,81.0
426,85.09868855208335,85.38618826458334,49.0,78.0
427,85.37141555208333,85.40891551458334,64.0,59.0
428,85.37141555208333,85.64641527708334,61.0,83.0
429,85.37141555208333,85.64641527708334,70.0,90.0
430,85.37141555208333,85.70096067708334,52.0,69.0
431,85.91686955208334,86.03959670208334,71.0,90.0
432,85.91686955208334,86.05664213958335,63.0,80.0
433,85.64414255208334,86.22596015208335,54.0,75.0
434,86.18959655208334,86.30436916458333,56.0,78.0
435,86.18959655208334,86.30664188958335,64.0,72.0
436,86.18959655208334,86.31573278958334,73.0,83.0
437,86.46232355208333,86.89300493958334,75.0,83.0
438,86.46232355208333,87.04073206458334,66.0,74.0
439,87.00777755208334,87.32482268958334,59.0,81.0
440,87.28050455208334,87.61800421458334,63.0,72.0
441,87.28050455208334,87.63164056458334,66.0,73.0
442,87.28050455208334,87.64641327708334,71.0,83.0
443,86.73505055208334,87.67482233958334,54.0,78.0
444,86.46232355208333,87.81686765208335,47.0,82.0
445,87.55323155208335,87.84414035208334,59.0,78.0
446,87.82595855208334,87.95550387708334,68.0,79.0
447,88.09868555208334,88.64300318958334,61.0,75.0
448,88.09868555208334,88.64641227708334,65.0,79.0
449,88.09868555208334,88.65323045208333,68.0,79.0
450,88.91686655208333,89.16232085208334,65.0,84.0
451,88.91686655208333,89.20891171458334,61.0,82.0
452,88.91686655208333,89.22254806458334,68.0,82.0
453,88.09868555208334,89.31118433958333,47.0,80.0
454,89.18959355208334,89.33277522708335,58.0,76.0
455,88.64413955208335,89.33504795208334,56.0,78.0
456,89.18959355208334,89.44072966458334,66.0,58.0
457,89.46232055208334,89.71232030208334,68.0,78.0
458,89.73504755208334,90.09413810208333,61.0,78.0
459,89.73504755208334,90.10209263958335,65.0,94.0
460,90.00777455208335,90.31231970208334,58.0,68.0
461,90.28050155208334,90.61231940208334,65.0,75.0
462,90.28050155208334,90.66913752708334,61.0,83.0
463,90.28050155208334,90.69641022708333,73.0,90.0
464,89.73504755208334,90.86459187708334,46.0,84.0
465,90.55322855208334,90.95550087708334,58.0,69.0
466,90.82595555208334,91.06572803958333,68.0,78.0
467,91.09868255208335,91.31459142708334,70.0,82.0
468,91.37140955208334,91.90436356458333,60.0,82.0
469,91.37140955208334,91.93504535208334,66.0,75.0
470,91.91686355208334,92.49754478958334,57.0,71.0
471,92.18959055208335,92.63277192708334,60.0,81.0
472,92.46231755208333,92.73959000208335,66.0,81.0
473,91.37140955208334,92.76118088958334,45.0,81.0
474,93.00777155208334,93.37140755208334,56.0,69.0
475,93.00777155208334,93.54413465208334,63.0,81.0
476,93.00777155208334,93.57027098958334,59.0,80.0
477,93.28049855208334,94.13731587708334,51.0,78.0
478,93.82595255208334,94.17367947708334,59.0,76.0
479,93.00777155208334,94.17595220208334,44.0,76.0
480,94.09867955208334,94.51913367708335,63.0,75.0
481,93.55322555208335,94.54186092708333,56.0,68.0
482,94.37140655208334,94.63049720208335,66.0,75.0
483,94.64413355208335,94.97822412708334,61.0,70.0
484,94.64413355208335,95.08731492708334,65.0,83.0
485,94.91686055208334,95.27254201458334,56.0,53.0
486,95.18958755208334,95.32367832708334,61.0,75.0
487,95.18958755208334,95.33504195208334,66.0,80.0
488,95.46231455208334,95.77367787708334,56.0,61.0
489,94.64413355208335,95.82708691458335,49.0,75.0
490,95.73504155208335,95.84981416458334,65.0,75.0
491,95.73504155208335,95.96345041458333,61.0,71.0
492,95.73504155208335,96.07367757708334,71.0,82.0
493,96.28049555208334,96.86004042708335,75.0,90.0
494,97.09867655208335,97.29185817708334,73.0,73.0
495,96.82594955208334,97.42367622708335,71.0,75.0
496,96.28049555208334,97.45435801458333,59.0,80.0
497,97.37140355208334,97.47140345208334,73.0,23.0
498,96.55322255208334,97.55549427708334,66.0,68.0
499,97.37140355208334,97.58731242708335,75.0,75.0
500,97.64413055208334,97.96458477708335,82.0,82.0
501,97.91685755208334,98.47253881458334,59.0,71.0
502,97.91685755208334,98.57367507708334,80.0,79.0
503,98.46231155208334,98.81685665208335,73.0,56.0
504,98.73503855208334,99.02822007708335,77.0,74.0
505,98.18958455208335,99.10322000208335,68.0,60.0
506,99.00776555208334,99.27253801458335,78.0,75.0
507,99.28049255208335,99.41458332708334,80.0,69.0
508,99.55321955208335,100.16685530208333,80.0,83.0
509,100.09867355208334,100.56117308958333,73.0,76.0
510,100.37140055208334,100.58390033958334,70.0,83.0
511,99.55321955208335,100.66571843958334,58.0,82.0
512,99.82594655208334,100.70435476458334,65.0,71.0
513,100.64412755208335,100.85435461458334,75.0,82.0
514,100.91685455208334,101.15435431458334,77.0,78.0
515,101.18958155208334,101.52708121458335,69.0,81.0
516,101.18958155208334,101.62708111458335,75.0,80.0
517,102.00776255208334,102.31685315208334,73.0,84.0
518,101.73503555208335,102.34639857708333,69.0,72.0
519,101.46230855208334,102.50435296458335,63.0,76.0
520,102.28048955208334,102.55321655208334,75.0,76.0
521,101.18958155208334,102.55776200208334,57.0,80.0
522,102.55321655208334,102.76912542708334,77.0,80.0
523,102.82594355208334,103.21912497708334,66.0,80.0
524,102.82594355208334,103.26798856458335,71.0,86.0
525,102.82594355208334,103.32026123958335,75.0,84.0
526,103.37139755208334,103.81003347708334,73.0,84.0
527,103.09867055208335,103.93389698958335,63.0,76.0
528,103.64412455208334,103.95548787708334,68.0,78.0
529,103.91685155208334,104.07480593958334,75.0,84.0
530,103.91685155208334,104.08048775208334,71.0,84.0
531,102.82594355208334,104.16912402708334,56.0,78.0
532,104.18957855208335,104.45662373958334,63.0,80.0
533,104.46230555208334,104.81344156458334,68.0,80.0
534,104.46230555208334,104.81344156458334,73.0,94.0
535,104.46230555208334,104.84185062708335,77.0,91.0
536,105.00775955208334,105.18162301458334,77.0,58.0
537,105.00775955208334,105.30321380208335,68.0,50.0
538,105.00775955208334,105.34412285208334,70.0,59.0
539,104.73503255208334,105.37594100208334,65.0,81.0
540,105.28048655208335,105.59639532708334,78.0,82.0
541,105.55321355208334,105.62025893958334,65.0,80.0
542,104.46230555208334,105.62594075208334,58.0,84.0
543,105.55321355208334,105.65775890208334,77.0,86.0
544,105.82594055208334,106.01571308958334,73.0,86.0
545,106.09866755208334,106.42366722708334,66.0,94.0
546,106.09866755208334,106.43048540208335,71.0,93.0
547,106.09866755208334,106.44071266458334,75.0,86.0
548,106.64412155208335,107.00093937708334,66.0,90.0
549,106.91684855208334,107.11684835208334,71.0,84.0
550,107.18957555208334,107.23616641458334,71.0,56.0
551,106.37139455208334,107.32480268958334,59.0,79.0
552,107.18957555208334,107.35889356458334,73.0,83.0
553,107.46230255208334,107.52934793958335,59.0,59.0
554,107.46230255208334,107.61343876458334,75.0,82.0
555,106.09866755208334,107.64866600208335,47.0,93.0
556,107.73502955208335,107.85102064166668,59.0,103.0
557,107.73502955208335,107.86453416666669,66.0,80.0
558,107.73502955208335,107.86678642083335,71.0,93.0
559,107.73502955208335,107.86791254791667,47.0,94.0
560,107.73502955208335,107.88255220000002,75.0,86.0
561,108.54584105208335,108.67534566666669,59.0,86.0
562,108.54584105208335,108.86453501666668,66.0,90.0
563,108.54584105208335,108.91183235416668,71.0,86.0
564,108.54584105208335,108.91746298958334,75.0,86.0
565,108.81611155208334,108.96363420000002,59.0,79.0
566,109.08638205208335,109.17196771041668,59.0,68.0
567,109.08638205208335,109.17421996458334,66.0,91.0
568,109.08638205208335,109.18548123541667,71.0,91.0
569,108.54584105208335,109.19786863333334,47.0,94.0
570,109.08638205208335,109.20012088750002,75.0,84.0
571,109.62692305208334,109.85440072291668,77.0,90.0
572,109.62692305208334,109.88480615416668,73.0,99.0
573,109.62692305208334,109.91183320416668,68.0,86.0
574,109.62692305208334,109.92985123750002,49.0,95.0
575,109.62692305208334,109.93998638125001,61.0,94.0
576,110.43773455208334,110.69899603541668,77.0,103.0
577,110.43773455208334,110.71363568750002,73.0,94.0
578,110.43773455208334,110.73953661041668,49.0,94.0
579,110.43773455208334,110.74066273750002,68.0,95.0
580,110.43773455208334,110.74854562708335,61.0,96.0
581,110.97827555208335,112.42372865208334,61.0,106.0
582,110.97827555208335,112.43850136458335,73.0,95.0
583,110.97827555208335,112.45554680208335,68.0,86.0
584,110.97827555208335,112.47145587708334,49.0,95.0
585,110.97827555208335,112.47713768958334,77.0,94.0
586,112.61463755208335,113.09531888958335,70.0,72.0
587,112.61463755208335,113.16463700208335,78.0,82.0
588,113.16009155208334,113.49077303958335,66.0,58.0
589,113.43281855208335,113.77713638958335,68.0,71.0
590,113.43281855208335,113.79304546458334,73.0,76.0
591,113.70554555208335,113.97599982708334,66.0,54.0
592,112.61463755208335,114.04418157708335,54.0,73.0
593,113.97827255208334,114.24531773958334,70.0,63.0
594,114.25099955208334,114.37940851458335,68.0,62.0
595,114.25099955208334,114.41122666458335,73.0,80.0
596,112.88736455208334,114.62486281458335,61.0,69.0
597,115.06918055208335,115.41008930208335,73.0,81.0
598,115.06918055208335,115.41236202708335,80.0,78.0
599,114.79645355208335,115.58736185208335,54.0,63.0
600,115.34190755208334,115.69872537708335,61.0,61.0
601,115.61463455208334,115.90327062708334,77.0,78.0
602,115.88736155208335,116.33736110208335,53.0,78.0
603,115.88736155208335,116.45213371458334,73.0,80.0
604,115.88736155208335,116.45667916458335,68.0,72.0
605,116.43281555208334,116.89872417708335,65.0,75.0
606,116.70554255208334,116.90667871458335,68.0,75.0
607,116.16008855208335,116.94304231458335,61.0,52.0
608,116.97826955208335,117.22940566458334,73.0,73.0
609,117.25099655208335,117.48054177708335,77.0,62.0
610,117.52372355208334,117.78977873541668,79.0,83.0
611,117.52372355208334,117.81386131666667,73.0,62.0
612,117.52372355208334,117.82647600208334,70.0,69.0
613,118.34941205208334,118.55583417708334,75.0,82.0
614,118.34941205208334,118.59597181250001,67.0,80.0
615,117.93656780208335,118.68083424166667,58.0,46.0
616,117.52372355208334,118.77028382916667,51.0,71.0
617,118.62464155208335,118.79321962083334,63.0,72.0
618,118.89987105208334,119.13610970625001,68.0,59.0
619,119.17510055208334,119.41032758958333,44.0,78.0
620,119.44782755208334,119.71032728958333,56.0,55.0
621,119.17510055208334,119.76487268958334,63.0,73.0
622,119.17510055208334,119.86714531458334,66.0,76.0
623,119.17510055208334,120.12396323958333,71.0,82.0
624,119.72055455208334,120.25464492708333,58.0,63.0
625,119.99328155208333,120.35919027708334,59.0,75.0
626,120.81146255208334,121.23078031458334,71.0,84.0
627,120.53873555208334,121.34214383958334,66.0,73.0
628,120.26600855208333,121.72964345208334,61.0,73.0
629,121.62964355208334,121.96827957708334,66.0,76.0
630,121.62964355208334,121.98759773958334,73.0,80.0
631,121.35691655208333,121.99441591458334,59.0,54.0
632,121.90237055208334,122.09555217708333,61.0,68.0
633,122.17509755208333,122.32964285208334,68.0,72.0
634,122.44782455208333,122.85691505208334,70.0,75.0
635,122.44782455208333,123.01259671458334,66.0,79.0
636,123.26600555208334,123.57168706458333,66.0,78.0
637,123.53873255208333,123.62282337708334,68.0,75.0
638,122.99327855208334,123.74214143958334,61.0,73.0
639,122.44782455208333,123.78759593958334,49.0,55.0
640,122.72055155208334,124.00236845208333,56.0,68.0
641,123.81145955208333,124.02168661458333,73.0,78.0
642,124.08418655208334,124.42850438958334,78.0,55.0
643,124.08418655208334,124.43873165208333,85.0,75.0
644,124.08418655208334,124.45577708958334,73.0,56.0
645,124.62964055208333,124.86032213958333,83.0,83.0
646,124.62964055208333,124.88986756458334,73.0,74.0
647,124.90236755208333,125.16486728958334,61.0,58.0
648,124.08418655208334,125.34213983958334,49.0,78.0
649,124.35691355208334,125.34782165208334,56.0,59.0
650,125.17509455208334,125.45350336458334,82.0,75.0
651,125.17509455208334,125.52395783958333,73.0,71.0
652,125.44782155208334,125.75009397708334,61.0,50.0
653,125.44782155208334,125.80009392708334,80.0,73.0
654,125.72054855208333,126.20122988958333,78.0,81.0
655,125.72054855208333,126.25009347708334,73.0,73.0
656,126.81145655208334,126.92509280208334,70.0,70.0
657,126.81145655208334,126.97168366458334,78.0,81.0
658,126.53872955208334,127.01372907708334,66.0,59.0
659,125.72054855208333,127.04327450208334,54.0,78.0
660,126.26600255208334,127.04668358958334,61.0,62.0
661,127.08418355208333,127.22622886458333,68.0,59.0
662,127.08418355208333,127.37054690208333,77.0,71.0
663,127.35691055208333,127.79327375208334,68.0,70.0
664,127.35691055208333,127.93759178958334,73.0,79.0
665,127.62963755208334,128.19554607708335,61.0,60.0
666,127.90236455208334,128.30236415208333,66.0,69.0
667,128.17509155208333,128.46259126458332,75.0,79.0
668,128.17509155208333,128.48531851458333,68.0,58.0
669,127.35691055208333,128.50577303958335,54.0,76.0
670,128.44781855208333,128.60690930208332,61.0,75.0
671,128.99327255208334,129.36940853958333,65.0,82.0
672,128.99327255208334,129.38304488958335,68.0,82.0
673,128.99327255208334,129.56599925208334,73.0,84.0
674,129.53872655208335,130.01599880208335,65.0,75.0
675,129.26599955208334,130.07395328958333,61.0,72.0
676,128.99327255208334,130.14554412708333,53.0,84.0
677,129.81145355208335,130.15236230208333,68.0,82.0
678,130.08418055208332,130.21258951458333,73.0,90.0
679,130.62963455208333,130.96827057708333,70.0,72.0
680,130.62963455208333,130.97054330208334,63.0,77.0
681,130.62963455208333,131.00349781458334,67.0,79.0
682,131.17508855208334,131.28645207708334,63.0,79.0
683,131.17508855208334,131.31031568958335,68.0,71.0
684,130.62963455208333,131.78758793958335,51.0,79.0
685,131.44781555208334,131.81599700208335,58.0,75.0
686,131.72054255208334,131.84213333958334,63.0,82.0
687,131.72054255208334,131.86145150208333,70.0,84.0
688,132.26599655208332,132.45690545208333,44.0,79.0
689,132.53872355208333,132.90917772708335,56.0,43.0
690,132.26599655208332,132.91940498958334,63.0,73.0
691,132.26599655208332,133.11372297708334,66.0,82.0
692,132.26599655208332,133.27849553958333,71.0,83.0
693,133.35690455208334,133.62849518958333,63.0,83.0
694,133.08417755208333,133.63758608958335,59.0,82.0
695,132.81145055208333,133.65008607708333,58.0,72.0
696,133.62963155208334,133.82394953958334,66.0,78.0
697,133.90235855208334,134.29326725208333,66.0,82.0
698,133.90235855208334,134.30122178958334,73.0,86.0
699,134.44781255208335,134.73303953958333,66.0,82.0
700,134.44781255208335,134.78872130208333,71.0,86.0
701,134.72053955208332,134.99326655208333,61.0,68.0
702,134.99326655208333,135.11031188958333,66.0,84.0
703,134.99326655208333,135.14099367708334,73.0,86.0
704,133.90235855208334,135.15008457708333,49.0,84.0
705,134.17508555208335,135.21485723958335,56.0,78.0
706,135.26599355208333,135.53303873958333,61.0,57.0
707,135.53872055208333,135.70008402708334,64.0,79.0
708,135.53872055208333,135.71599310208333,71.0,84.0
709,135.81144755208334,135.98644737708332,71.0,83.0
710,135.94781105208335,136.15008357708334,70.0,72.0
711,136.08417455208334,136.22962895208335,71.0,84.0
712,135.81144755208334,136.24099257708335,64.0,71.0
713,135.53872055208333,136.30121978958334,59.0,84.0
714,136.35690155208334,136.48871960208334,64.0,84.0
715,136.35690155208334,136.49099232708335,71.0,91.0
716,136.62962855208335,136.80917382708333,71.0,83.0
717,136.62962855208335,136.83644652708333,64.0,78.0
718,136.76599205208333,136.94099187708335,70.0,76.0
719,136.90235555208335,137.03530996458335,64.0,61.0
720,136.90235555208335,137.04099177708335,71.0,84.0
721,136.35690155208334,137.04553722708334,59.0,81.0
722,135.53872055208333,137.13985531458334,52.0,83.0
723,137.03871905208334,137.17280982708334,70.0,76.0
724,137.17508255208332,137.29780970208333,64.0,76.0
725,137.17508255208332,137.29780970208333,71.0,86.0
726,137.44780955208333,137.62053665208333,71.0,83.0
727,137.58417305208334,137.75121833958335,70.0,75.0
728,137.72053655208333,137.88417275208334,71.0,84.0
729,137.17508255208332,137.95689995208335,59.0,79.0
730,137.44780955208333,137.95689995208335,64.0,72.0
731,137.85690005208335,137.98530901458332,70.0,75.0
732,137.99326355208333,138.12394523958335,64.0,53.0
733,137.99326355208333,138.12508160208333,59.0,54.0
734,137.99326355208333,138.12508160208333,71.0,94.0
735,138.26599055208334,138.45121763958335,64.0,76.0
736,138.26599055208334,138.49212668958333,59.0,81.0
737,138.26599055208334,138.49553577708335,70.0,79.0
738,137.17508255208332,138.62394473958335,52.0,79.0
739,138.53871755208334,138.67962650208335,68.0,83.0
740,138.81144455208334,138.92280807708335,71.0,83.0
741,138.81144455208334,138.92508080208333,63.0,78.0
742,139.08417155208335,139.25348956458333,63.0,58.0
743,139.08417155208335,139.27053500208334,71.0,71.0
744,139.22053505208333,139.36485308958333,66.0,73.0
745,139.35689855208335,139.47394388958332,63.0,59.0
746,139.35689855208335,139.48530751458333,71.0,78.0
747,139.62962555208333,139.75348906458333,63.0,82.0
748,139.62962555208333,139.75689815208335,71.0,84.0
749,139.90235255208333,140.00917062708334,71.0,78.0
750,140.03871605208334,140.16144320208335,70.0,79.0
751,140.17507955208333,140.32394303958333,71.0,79.0
752,138.81144455208334,140.36939753958333,51.0,84.0
753,139.90235255208333,140.39098842708333,63.0,75.0
754,140.31144305208335,140.43417020208335,70.0,79.0
755,140.44780655208334,140.59212458958334,71.0,98.0
756,140.44780655208334,140.59894276458334,63.0,82.0
757,140.72053355208334,140.88416975208332,71.0,86.0
758,140.85689705208333,141.02280597708335,70.0,41.0
759,140.99326055208334,141.17735127708335,71.0,91.0
760,140.72053355208334,141.19212398958334,63.0,73.0
761,141.12962405208333,141.27166936458335,70.0,72.0
762,141.26598755208335,141.41598740208335,63.0,81.0
763,140.44780655208334,141.42280557708335,51.0,86.0
764,141.26598755208335,141.43530556458333,71.0,98.0
765,141.53871455208335,141.71712346458332,51.0,94.0
766,141.53871455208335,141.72507800208334,63.0,80.0
767,141.53871455208335,141.78303248958335,70.0,75.0
768,141.81144155208335,141.96257776458333,68.0,71.0
769,142.08416855208333,142.33189557708334,62.0,91.0
770,142.08416855208333,142.42962275208333,66.0,80.0
771,142.08416855208333,142.49780450208334,71.0,94.0
772,142.62962255208333,142.98189492708335,66.0,78.0
773,142.62962255208333,143.02962215208333,69.0,74.0
774,142.90234955208334,143.25007647708333,62.0,98.0
775,143.17507655208334,143.29212188958334,66.0,84.0
776,143.17507655208334,143.30803096458334,71.0,98.0
777,142.08416855208333,143.52848528958333,50.0,99.0
778,143.44780355208334,143.55575798958333,62.0,81.0
779,143.44780355208334,143.62734882708332,70.0,68.0
780,143.72053055208335,143.83984861458333,71.0,90.0
781,143.72053055208335,143.86257586458333,66.0,82.0
782,143.72053055208335,144.28302998958333,62.0,84.0
783,144.26598455208335,144.49212068958334,66.0,82.0
784,144.26598455208335,144.69098412708334,69.0,83.0
785,144.53871155208333,144.93984751458333,62.0,91.0
786,144.81143855208333,145.12734732708333,66.0,84.0
787,145.08416555208333,145.15802911458334,62.0,86.0
788,145.08416555208333,145.18416545208333,68.0,83.0
789,143.72053055208335,145.20575633958333,50.0,99.0
790,145.62961955208334,145.78984666458334,65.0,84.0
791,145.62961955208334,145.79439211458333,73.0,86.0
792,145.62961955208334,145.79666483958334,49.0,84.0
793,145.62961955208334,145.80689210208334,68.0,86.0
794,145.62961955208334,145.80916482708335,61.0,77.0
795,145.90234655208334,146.02848278958334,65.0,78.0
796,145.90234655208334,146.03871005208333,68.0,82.0
797,145.90234655208334,146.03871005208333,73.0,76.0
798,145.90234655208334,146.05461912708333,61.0,83.0
799,145.90234655208334,146.05575548958333,49.0,86.0
800,146.17507355208335,146.29325525208333,65.0,83.0
801,146.17507355208335,146.29780070208335,68.0,84.0
802,146.17507355208335,146.32620976458333,73.0,91.0
803,146.17507355208335,146.32734612708333,61.0,86.0
804,146.17507355208335,146.33530066458334,49.0,93.0
805,146.99325455208333,147.26484518958333,61.0,86.0
806,146.99325455208333,147.45461772708333,73.0,86.0
807,146.99325455208333,147.46029953958333,68.0,84.0
808,146.99325455208333,147.46257226458334,65.0,84.0
809,147.53870855208334,147.87166276458333,61.0,91.0
810,147.81143555208334,147.87166276458333,61.0,98.0
811,147.81143555208334,148.08984436458334,73.0,80.0
812,147.81143555208334,148.15348066458333,65.0,82.0
813,147.81143555208334,148.16143520208334,66.0,84.0
814,147.81143555208334,148.16711701458334,71.0,98.0
815,146.99325455208333,148.39438951458334,49.0,90.0
816,148.35688955208335,148.55348026458333,66.0,94.0
817,148.35688955208335,148.56484388958333,73.0,90.0
818,148.62961655208335,149.04097977708335,78.0,80.0
819,148.62961655208335,149.04438886458334,47.0,86.0
820,148.90234355208332,149.13870695208334,54.0,79.0
821,149.17507055208333,149.49097932708332,59.0,69.0
822,149.17507055208333,149.50802476458335,73.0,82.0
823,148.90234355208332,149.52507020208333,66.0,60.0
824,149.44779755208333,149.84325170208334,61.0,79.0
825,149.72052455208333,149.85120623958335,63.0,83.0
826,149.44779755208333,149.86370622708333,78.0,80.0
827,149.72052455208333,150.05916057708333,66.0,71.0
828,149.99325155208334,150.36256936458335,73.0,82.0
829,150.26597855208334,150.62052365208334,77.0,84.0
830,150.53870555208334,150.85575068958335,66.0,70.0
831,150.81143255208335,151.14211403958333,73.0,83.0
832,151.08415955208335,151.43188647708334,59.0,78.0
833,150.26597855208334,151.47734097708334,47.0,83.0
834,151.08415955208335,151.48870460208335,77.0,86.0
835,150.53870555208334,151.57734087708334,54.0,74.0
836,151.35688655208332,151.66938623958333,68.0,59.0
837,151.62961355208336,152.00120408958333,73.0,83.0
838,151.90234055208333,152.45574908958332,77.0,95.0
839,152.44779455208334,152.78756693958334,58.0,79.0
840,152.72052155208334,153.03756668958334,68.0,75.0
841,151.90234055208333,153.09665753958333,46.0,83.0
842,152.17506755208333,153.10347571458334,53.0,83.0
843,152.72052155208334,153.13529386458333,73.0,84.0
844,153.26597555208335,153.34552092708333,73.0,34.0
845,153.26597555208335,153.36029363958335,77.0,79.0
846,152.99324855208334,153.47392988958333,58.0,60.0
847,153.53870255208335,153.88870220208332,66.0,72.0
848,153.53870255208335,153.89665673958334,70.0,83.0
849,153.53870255208335,153.98415665208333,73.0,84.0
850,154.08415655208333,154.21711096458336,70.0,73.0
851,154.08415655208333,154.42165621458332,78.0,81.0
852,154.08415655208333,154.44892891458335,66.0,74.0
853,154.35688355208333,154.67165596458335,63.0,62.0
854,153.81142955208333,154.73415590208333,58.0,75.0
855,154.62961055208334,154.73642862708334,77.0,84.0
856,154.62961055208334,154.76142860208336,66.0,76.0
857,153.53870255208335,154.78983766458333,51.0,79.0
858,154.90233755208334,155.14438276458333,75.0,78.0
859,155.17506455208334,155.51483693958335,73.0,81.0
860,155.17506455208334,155.54438236458333,66.0,56.0
861,155.72051855208335,156.04324550208332,56.0,73.0
862,155.99324555208335,156.29665433958334,59.0,80.0
863,155.99324555208335,156.32506340208334,66.0,83.0
864,155.99324555208335,156.33301793958333,63.0,79.0
865,155.44779155208334,156.38301788958333,51.0,78.0
866,155.17506455208334,156.40233605208334,44.0,82.0
867,156.26597255208333,156.73415390208334,56.0,74.0
868,156.53869955208333,156.75915387708335,66.0,78.0
869,156.81142655208333,157.17278982708334,61.0,79.0
870,156.81142655208333,157.25688065208334,65.0,84.0
871,157.35688055208334,157.40801686458335,66.0,77.0
872,157.35688055208334,157.42278957708334,61.0,75.0
873,157.35688055208334,157.42619866458335,63.0,78.0
874,157.35688055208334,157.46938043958335,68.0,81.0
875,157.08415355208334,157.97051630208335,56.0,71.0
876,156.81142655208333,158.04324350208333,49.0,80.0
877,157.90233455208335,158.08301618958333,65.0,76.0
878,157.90233455208335,158.18756153958333,71.0,90.0
879,157.90233455208335,158.22506150208335,61.0,78.0
880,158.17506155208335,158.39892496458333,68.0,77.0
881,158.44778855208335,158.93756078958333,42.0,80.0
882,158.72051555208333,159.00346981458335,49.0,80.0
883,158.99324255208333,159.34324220208333,54.0,76.0
884,158.44778855208335,159.44892391458333,66.0,80.0
885,158.44778855208335,159.45574208958334,70.0,83.0
886,158.44778855208335,159.52278747708334,61.0,78.0
887,159.26596955208333,159.65346916458333,56.0,78.0
888,159.53869655208334,159.67619641458333,58.0,91.0
889,159.81142355208334,160.01710516458334,70.0,83.0
890,160.08415055208334,160.49324105208333,61.0,82.0
891,160.08415055208334,160.52960465208332,64.0,90.0
892,160.08415055208334,160.56028643958334,68.0,82.0
893,160.08415055208334,160.58528641458332,42.0,81.0
894,160.35687755208335,160.64437726458334,49.0,78.0
895,160.62960455208332,160.66710451458334,64.0,59.0
896,160.62960455208332,160.90460427708334,61.0,83.0
897,160.62960455208332,160.90460427708334,70.0,90.0
898,160.62960455208332,160.95914967708333,52.0,69.0
899,161.17505855208333,161.29778570208333,71.0,90.0
900,161.17505855208333,161.31483113958333,63.0,80.0
901,160.90233155208335,161.48414915208335,54.0,75.0
902,161.44778555208333,161.56255816458332,56.0,78.0
903,161.44778555208333,161.56483088958333,64.0,72.0
904,161.44778555208333,161.57392178958332,73.0,83.0
905,161.72051255208333,162.15119393958332,75.0,83.0
906,161.72051255208333,162.29892106458334,66.0,74.0
907,162.26596655208334,162.58301168958334,59.0,81.0
908,162.53869355208334,162.87619321458334,63.0,72.0
909,162.53869355208334,162.88982956458335,66.0,73.0
910,162.53869355208334,162.90460227708334,71.0,83.0
911,161.99323955208334,162.93301133958335,54.0,78.0
912,161.72051255208333,163.07505665208333,47.0,82.0
913,162.81142055208335,163.10232935208333,59.0,78.0
914,163.08414755208332,163.21369287708333,68.0,79.0
915,163.35687455208335,163.90119218958336,61.0,75.0
916,163.35687455208335,163.90460127708334,65.0,79.0
917,163.35687455208335,163.91141945208335,68.0,79.0
918,164.17505555208334,164.42050985208334,65.0,84.0
919,164.17505555208334,164.46710071458335,61.0,82.0
920,164.17505555208334,164.48073706458334,68.0,82.0
921,163.35687455208335,164.56937333958334,47.0,80.0
922,164.44778255208334,164.59096422708333,58.0,76.0
923,163.90232855208333,164.59323695208334,56.0,78.0
924,164.44778255208334,164.69891866458335,66.0,58.0
925,164.72050955208334,164.97050930208334,68.0,78.0
926,164.99323655208335,165.35232710208334,61.0,78.0
927,164.99323655208335,165.36028163958335,65.0,94.0
928,165.26596355208335,165.57050870208334,58.0,68.0
929,165.53869055208332,165.87050840208335,65.0,75.0
930,165.53869055208332,165.92732652708332,61.0,83.0
931,165.53869055208332,165.95459922708335,73.0,90.0
932,164.99323655208335,166.12278087708333,46.0,84.0
933,165.81141755208336,166.21368987708334,58.0,69.0
934,166.08414455208333,166.32391703958334,68.0,78.0
935,166.35687155208333,166.57278042708333,70.0,82.0
936,166.62959855208334,167.16255256458334,60.0,82.0
937,166.62959855208334,167.19323435208332,66.0,75.0
938,167.17505255208334,167.75573378958333,57.0,71.0
939,167.44777955208335,167.89096092708334,60.0,81.0
940,167.72050655208335,167.99777900208335,66.0,81.0
941,166.62959855208334,168.01936988958334,45.0,81.0
942,168.26596055208336,168.62959655208334,56.0,69.0
943,168.26596055208336,168.80232365208334,63.0,81.0
944,168.26596055208336,168.82845998958334,59.0,80.0
945,168.53868755208333,169.39550487708334,51.0,78.0
946,169.08414155208334,169.43186847708336,59.0,76.0
947,168.26596055208336,169.43414120208334,44.0,76.0
948,169.35686855208334,169.77732267708333,63.0,75.0
949,168.81141455208333,169.80004992708334,56.0,68.0
950,169.62959555208334,169.88868620208333,66.0,75.0
951,169.90232255208335,170.06368602708335,61.0,86.0
952,169.90232255208335,170.06595875208333,73.0,94.0
953,169.90232255208335,170.06936783958335,49.0,90.0
954,169.90232255208335,170.06936783958335,65.0,90.0
955,169.90232255208335,170.08868600208334,68.0,90.0
956,170.17504955208335,170.33186757708333,65.0,82.0
957,170.17504955208335,170.33982211458334,68.0,84.0
958,170.17504955208335,170.34550392708334,73.0,84.0
959,170.17504955208335,170.35118573958334,49.0,90.0
960,170.17504955208335,170.35232210208335,61.0,84.0
961,171.81141155208334,171.89209328958333,63.0,53.0
962,171.81141155208334,171.90118418958335,66.0,69.0
963,171.81141155208334,171.94095687708335,70.0,62.0
964,171.53868455208334,172.19550207708335,47.0,76.0
965,172.08413855208335,172.34322920208334,63.0,57.0
966,172.08413855208335,172.37277462708334,66.0,73.0
967,172.08413855208335,172.37845643958335,70.0,57.0
968,172.62959255208335,172.71027428958334,63.0,55.0
969,172.62959255208335,172.71936518958336,66.0,69.0
970,172.62959255208335,172.75345606458333,70.0,59.0
971,172.35686555208335,173.03641032708333,47.0,76.0
972,172.90231955208333,173.19891016458334,66.0,70.0
973,172.90231955208333,173.22163741458334,63.0,63.0
974,172.90231955208333,173.25118283958335,70.0,69.0
975,173.44777355208333,173.53981891458335,61.0,58.0
976,173.44777355208333,173.56027343958334,65.0,60.0
977,173.44777355208333,173.57050070208334,68.0,71.0
978,173.17504655208333,173.81936408958333,49.0,83.0
979,173.72050055208334,174.01368207708333,61.0,63.0
980,173.72050055208334,174.03300023958334,65.0,74.0
981,173.72050055208334,174.04095477708336,68.0,76.0
982,174.26595455208334,174.36027263958334,61.0,62.0
983,174.26595455208334,174.38299988958335,65.0,71.0
984,174.26595455208334,174.42731802708334,68.0,75.0
985,173.99322755208334,174.52163611458334,49.0,79.0
986,174.53868155208335,174.66822687708333,65.0,75.0
987,174.53868155208335,174.67845413958332,61.0,59.0
988,174.53868155208335,174.72049955208334,68.0,68.0
989,175.08413555208335,175.17845363958332,61.0,58.0
990,175.08413555208335,175.18413545208335,66.0,69.0
991,175.08413555208335,175.21368087708333,70.0,69.0
992,174.81140855208335,175.49777150208334,54.0,78.0
993,175.35686255208333,175.66481678958334,61.0,58.0
994,175.35686255208333,175.68186222708334,66.0,75.0
995,175.35686255208333,175.69549857708336,70.0,63.0
996,175.90231655208333,175.97958920208333,61.0,53.0
997,175.90231655208333,176.00231645208333,66.0,63.0
998,175.90231655208333,176.01254371458333,70.0,55.0
999,175.62958955208333,176.25458892708335,54.0,71.0
1000,176.17504355208334,176.28527071458333,61.0,69.0
1001,176.17504355208334,176.29890706458335,66.0,76.0
1002,176.17504355208334,176.32845248958336,70.0,71.0
1003,176.72049755208334,176.80117928958333,66.0,73.0
1004,176.72049755208334,176.80345201458334,63.0,59.0
1005,176.72049755208334,176.83867925208335,71.0,75.0
1006,176.44777055208334,177.12049715208335,47.0,81.0
1007,176.99322455208335,177.27276972708336,71.0,78.0
1008,176.99322455208335,177.27504245208334,66.0,77.0
1009,176.99322455208335,177.28299698958335,63.0,61.0
1010,177.53867855208335,177.62049665208335,63.0,56.0
1011,177.53867855208335,177.62845118958333,66.0,73.0
1012,177.53867855208335,177.65572388958333,71.0,77.0
1013,177.26595155208335,177.84436006458333,47.0,76.0
1014,177.81140555208333,177.92504180208334,66.0,76.0
1015,177.81140555208333,177.93526906458334,63.0,58.0
1016,177.81140555208333,177.94435996458333,71.0,74.0
1017,178.35685955208334,178.45685945208334,63.0,59.0
1018,178.35685955208334,178.46254126458334,71.0,72.0
1019,178.35685955208334,178.50345031458335,68.0,63.0
1020,178.08413255208333,178.75117733958334,53.0,76.0
1021,178.62958655208334,178.89549537708334,68.0,75.0
1022,178.62958655208334,178.91254081458334,71.0,77.0
1023,178.62958655208334,178.92958625208334,63.0,71.0
1024,179.17504055208335,179.28072226458335,63.0,61.0
1025,179.17504055208335,179.30799496458334,68.0,54.0
1026,178.90231355208334,179.51481293958335,53.0,76.0
1027,179.44776755208335,179.55572198958333,71.0,71.0
1028,179.44776755208335,179.66594915208333,68.0,76.0
1029,179.44776755208335,179.68526731458334,63.0,70.0
1030,179.99322155208336,180.07163056458333,70.0,72.0
1031,179.99322155208336,180.11935778958335,65.0,69.0
1032,179.72049455208332,180.33185757708333,46.0,59.0
1033,180.26594855208333,180.53185737708333,62.0,77.0
1034,180.26594855208333,180.55458462708333,65.0,79.0
1035,180.26594855208333,180.60003912708333,70.0,74.0
1036,180.81140255208334,180.93640242708335,62.0,69.0
1037,180.81140255208334,180.94208423958332,65.0,58.0
1038,180.81140255208334,180.97617511458333,70.0,52.0
1039,180.53867555208333,181.12731132708333,46.0,73.0
1040,181.08412955208334,181.19662943958335,62.0,76.0
1041,181.08412955208334,181.20912942708333,65.0,77.0
1042,181.08412955208334,181.24549302708334,70.0,78.0
1043,181.62958355208335,181.73185617708333,70.0,61.0
1044,181.62958355208335,181.73412890208334,63.0,70.0
1045,181.62958355208335,181.74435616458334,66.0,76.0
1046,181.35685655208334,181.97503775208332,51.0,78.0
1047,181.90231055208335,182.15458302708333,63.0,76.0
1048,181.90231055208335,182.17049210208336,66.0,82.0
1049,181.90231055208335,182.20117388958334,70.0,75.0
1050,182.44776455208336,182.55344626458333,61.0,62.0
1051,182.44776455208336,182.56253716458335,70.0,71.0
1052,182.44776455208336,182.58526441458335,66.0,76.0
1053,182.17503755208332,182.87162776458334,53.0,79.0
1054,182.72049155208333,182.96026403958334,66.0,80.0
1055,182.72049155208333,183.01367307708335,61.0,78.0
1056,182.72049155208333,183.02390033958335,70.0,78.0
1057,183.26594555208334,183.38071816458336,66.0,69.0
1058,183.26594555208334,183.38185452708333,61.0,69.0
1059,183.26594555208334,183.40003632708334,70.0,68.0
1060,182.99321855208333,183.42958175208332,54.0,81.0
1061,183.53867255208334,183.79094502708335,66.0,75.0
1062,183.53867255208334,183.88753583958334,70.0,77.0
1063,183.53867255208334,183.89321765208334,61.0,74.0
1064,183.81139955208334,183.93867215208334,43.0,81.0
1065,183.81139955208334,183.93867215208334,55.0,81.0
1066,184.08412655208335,184.19889916458334,61.0,77.0
1067,184.08412655208335,184.21139915208335,44.0,81.0
1068,184.08412655208335,184.21139915208335,56.0,81.0
1069,184.08412655208335,184.21367187708336,70.0,73.0
1070,184.08412655208335,184.21594460208334,67.0,69.0
1071,184.35685355208335,184.45798981458336,61.0,72.0
1072,184.35685355208335,184.45798981458336,67.0,78.0
1073,184.35685355208335,184.48412615208332,46.0,81.0
1074,184.35685355208335,184.48412615208332,58.0,81.0
1075,184.35685355208335,184.48867160208334,70.0,72.0
1076,184.62958055208333,184.75685315208335,44.0,81.0
1077,184.62958055208333,184.75685315208335,56.0,81.0
1078,184.62958055208333,184.85798941458336,63.0,71.0
1079,184.62958055208333,184.86367122708333,66.0,83.0
1080,184.62958055208333,184.87730757708334,71.0,84.0
1081,185.44776155208334,185.58412505208332,44.0,83.0
1082,185.44776155208334,185.59207958958334,63.0,78.0
1083,185.44776155208334,185.59548867708332,66.0,83.0
1084,185.44776155208334,185.61026138958334,71.0,86.0
1085,185.44776155208334,185.61253411458335,56.0,79.0
1086,185.72048855208334,185.82503390208336,66.0,86.0
1087,185.72048855208334,185.83412480208335,46.0,90.0
1088,185.72048855208334,185.84094297708333,58.0,86.0
1089,185.72048855208334,185.86139750208332,73.0,99.0
1090,185.99321555208334,186.06367002708333,71.0,57.0
1091,185.99321555208334,186.08526091458333,59.0,75.0
1092,185.99321555208334,186.11366997708336,47.0,94.0
1093,185.99321555208334,186.12162451458335,75.0,93.0
1094,186.26594255208335,186.64207853958334,61.0,84.0
1095,186.26594255208335,186.64207853958334,73.0,90.0
1096,186.26594255208335,186.65571488958335,49.0,98.0
1097,186.26594255208335,186.66139670208332,77.0,86.0
1098,187.08412355208333,187.13980531458333,73.0,72.0
1099,187.08412355208333,187.21253251458336,49.0,90.0
1100,187.08412355208333,187.21253251458336,68.0,83.0
1101,187.08412355208333,187.23071431458334,61.0,86.0
1102,187.08412355208333,187.27844153958335,77.0,90.0
1103,187.35685055208336,187.46366862708334,63.0,76.0
1104,187.35685055208336,187.49207768958334,78.0,90.0
1105,187.35685055208336,187.50230495208334,51.0,82.0
1106,187.35685055208336,187.51366857708334,73.0,82.0
1107,187.62957755208333,187.66025933958335,61.0,52.0
1108,187.62957755208333,187.73980471458333,49.0,95.0
1109,187.62957755208333,187.79662283958334,80.0,86.0
1110,187.90230455208334,188.19548607708333,58.0,94.0
1111,187.90230455208334,188.21821332708333,80.0,54.0
1112,187.90230455208334,188.46934943958334,68.0,93.0
1113,187.90230455208334,188.50344031458334,73.0,94.0
1114,188.44775855208334,188.75798551458334,58.0,76.0
1115,188.72048555208335,189.07616701458335,68.0,86.0
1116,188.72048555208335,189.17730327708335,75.0,90.0
1117,187.90230455208334,189.18412145208333,46.0,93.0
1118,188.99321255208332,189.50571203958333,58.0,78.0
1119,189.26593955208335,189.51934838958334,77.0,83.0
1120,189.53866655208333,189.78980266458336,75.0,93.0
1121,189.53866655208333,189.81821172708334,70.0,82.0
1122,190.08412055208333,190.42616566458332,63.0,90.0
1123,189.81139355208336,190.72275627708336,58.0,76.0
1124,190.35684755208334,190.73752898958332,75.0,98.0
1125,190.35684755208334,190.78411985208334,67.0,101.0
1126,190.62957455208334,190.86252886458334,63.0,93.0
1127,189.53866655208333,190.94889241458333,51.0,90.0
1128,190.90230155208334,190.96366512708335,58.0,79.0
1129,191.17502855208335,191.46480098958335,71.0,98.0
1130,191.17502855208335,191.51821002708334,66.0,90.0
1131,191.17502855208335,191.53639182708332,63.0,84.0
1132,191.72048255208335,191.85570968958334,63.0,79.0
1133,191.44775555208332,192.04889131458333,56.0,81.0
1134,191.99320955208333,192.09661853958335,63.0,84.0
1135,191.99320955208333,192.13411850208334,70.0,86.0
1136,192.26593655208336,192.41480003958333,66.0,78.0
1137,192.26593655208336,192.43298183958336,63.0,76.0
1138,192.26593655208336,192.46820907708334,71.0,86.0
1139,191.17502855208335,192.64093617708335,44.0,96.0
1140,192.53866355208334,192.76252696458334,56.0,90.0
1141,192.67502705208335,192.85684505208334,46.0,83.0
1142,192.81139055208334,193.14207203958335,70.0,84.0
1143,192.81139055208334,193.18298108958334,61.0,84.0
1144,192.81139055208334,193.33866275208334,66.0,84.0
1145,193.35684455208334,193.70229875208332,59.0,84.0
1146,192.81139055208334,193.95229850208335,47.0,94.0
1147,193.90229855208332,193.99661663958335,59.0,98.0
1148,193.62957155208335,194.06934383958333,71.0,98.0
1149,193.62957155208335,194.11593470208334,66.0,94.0
1150,193.62957155208335,194.13070741458336,63.0,90.0
1151,194.17502555208335,194.29547997708335,48.0,101.0
1152,194.44775255208333,194.58297968958334,65.0,78.0
1153,194.44775255208333,194.58411605208335,73.0,90.0
1154,194.44775255208333,194.59434331458334,68.0,84.0
1155,194.44775255208333,194.61252511458335,49.0,90.0
1156,194.44775255208333,194.61707056458334,61.0,84.0
1157,194.72047955208336,194.84775215208333,65.0,79.0
1158,194.72047955208336,194.85797941458333,68.0,82.0
1159,194.72047955208336,194.86593395208334,73.0,82.0
1160,194.72047955208336,194.86707031458334,61.0,78.0
1161,194.72047955208336,194.87843393958335,49.0,86.0
1162,194.99320655208334,195.12502460208333,65.0,81.0
1163,194.99320655208334,195.13638822708333,73.0,84.0
1164,194.99320655208334,195.13752458958334,49.0,84.0
1165,194.99320655208334,195.13752458958334,68.0,83.0
1166,194.99320655208334,195.14888821458334,61.0,84.0
1167,195.26593355208334,195.38070616458333,49.0,96.0
1168,195.26593355208334,195.38297888958334,61.0,94.0
1169,195.26593355208334,195.39206978958333,65.0,82.0
1170,195.26593355208334,195.39434251458334,68.0,84.0
1171,195.26593355208334,195.40684250208335,73.0,90.0
1172,196.08411455208335,196.68865940208335,74.0,96.0
1173,196.08411455208335,196.72615936458334,69.0,94.0
1174,196.08411455208335,196.73297753958335,66.0,90.0
1175,196.08411455208335,196.74093207708336,50.0,86.0
1176,196.08411455208335,196.74206843958336,62.0,95.0
1177,196.90229555208333,197.00343181458334,66.0,86.0
1178,196.90229555208333,197.03070451458336,74.0,93.0
1179,196.90229555208333,197.04661358958333,69.0,94.0
1180,196.90229555208333,197.05343176458334,62.0,90.0
1181,196.90229555208333,197.07274992708335,50.0,84.0
1182,197.17502255208336,197.32615876458334,67.0,79.0
1183,197.17502255208336,197.37388598958336,71.0,84.0
1184,197.17502255208336,197.40229505208333,52.0,84.0
1185,197.44774955208334,197.52502220208333,69.0,94.0
1186,197.44774955208334,197.54434036458335,73.0,95.0
1187,197.44774955208334,197.55229490208336,54.0,98.0
1188,198.53865755208335,198.72161191458335,64.0,83.0
1189,198.53865755208335,198.74774825208334,60.0,86.0
1190,198.53865755208335,198.76138460208335,48.0,98.0
1191,198.53865755208335,198.78979366458333,71.0,84.0
1192,198.81138455208333,199.07274792708336,60.0,94.0
1193,198.81138455208333,199.07388428958336,67.0,93.0
1194,198.81138455208333,199.07502065208334,64.0,84.0
1195,198.81138455208333,199.09774790208334,48.0,98.0
1196,199.35683855208333,199.68752003958335,72.0,86.0
1197,199.35683855208333,199.72388363958333,67.0,82.0
1198,199.35683855208333,199.72502000208334,64.0,80.0
1199,199.35683855208333,199.95001977708336,48.0,99.0
1200,199.62956555208336,199.96933793958334,60.0,94.0
1201,199.90229255208334,199.99774700208334,64.0,84.0
1202,199.90229255208334,200.02047425208335,72.0,84.0
1203,200.17501955208334,200.77388258958334,66.0,86.0
1204,200.17501955208334,200.78524621458334,74.0,79.0
1205,200.17501955208334,200.79433711458336,69.0,83.0
1206,200.17501955208334,200.81479163958335,62.0,90.0
1207,200.72047355208335,201.07842773958333,57.0,82.0
1208,200.99320055208335,201.30342751458335,62.0,100.0
1209,200.99320055208335,201.31251841458334,66.0,86.0
1210,200.99320055208335,201.31592750208335,74.0,84.0
1211,200.99320055208335,201.31933658958334,69.0,90.0
1212,201.53865455208336,201.72956345208334,74.0,90.0
1213,201.53865455208336,201.73638162708335,62.0,96.0
1214,201.53865455208336,201.73979071458334,66.0,83.0
1215,201.53865455208336,201.75229070208334,69.0,90.0
1216,200.17501955208334,201.75456342708333,50.0,99.0
1217,201.26592755208333,201.78638157708335,57.0,83.0
1218,201.81138155208333,201.92388143958334,62.0,80.0
1219,201.81138155208333,201.93297233958333,66.0,83.0
1220,201.81138155208333,201.94433596458333,50.0,86.0
1221,201.81138155208333,201.94433596458333,69.0,84.0
1222,201.81138155208333,201.94774505208335,74.0,90.0
1223,202.08410855208334,202.22615386458335,62.0,96.0
1224,202.08410855208334,202.23069931458335,50.0,96.0
1225,202.08410855208334,202.23751748958335,66.0,83.0
1226,202.08410855208334,202.24547202708334,69.0,84.0
1227,202.08410855208334,202.25001747708336,74.0,90.0
1228,202.90228955208335,203.23865285208336,50.0,86.0
1229,202.90228955208335,203.25683465208334,69.0,90.0
1230,203.17501655208335,203.27160736458336,62.0,94.0
1231,202.90228955208335,203.30569823958334,66.0,84.0
1232,202.90228955208335,203.31819822708334,74.0,86.0
1233,203.44774355208335,203.91706126458334,68.0,86.0
1234,203.44774355208335,203.92387943958335,71.0,82.0
1235,203.44774355208335,204.00683390208334,74.0,86.0
1236,203.44774355208335,204.04433386458334,64.0,80.0
1237,203.99319755208336,204.34092447708335,59.0,79.0
1238,204.26592455208333,204.56819697708335,68.0,84.0
1239,204.26592455208333,204.62501510208335,64.0,84.0
1240,203.44774355208335,204.64546962708334,52.0,86.0
1241,204.26592455208333,204.66251506458335,74.0,91.0
1242,204.53865155208334,204.67728777708334,59.0,77.0
1243,204.81137855208334,204.97501475208333,64.0,78.0
1244,205.08410555208334,205.42046885208333,72.0,91.0
1245,205.08410555208334,205.46478698958333,67.0,90.0
1246,205.08410555208334,205.47955970208335,64.0,83.0
1247,205.62955955208332,205.76365032708333,64.0,78.0
1248,205.35683255208335,205.77274122708334,57.0,78.0
1249,205.62955955208332,205.79433211458334,71.0,80.0
1250,205.90228655208335,206.22387713958335,64.0,80.0
1251,205.90228655208335,206.23751348958336,67.0,84.0
1252,205.90228655208335,206.24319530208334,72.0,84.0
1253,206.44774055208336,206.59319495208334,74.0,84.0
1254,206.44774055208336,206.59546767708335,64.0,91.0
1255,205.08410555208334,206.62501310208336,45.0,90.0
1256,206.17501355208333,206.64660398958335,57.0,79.0
1257,206.72046755208333,206.96137640208335,72.0,72.0
1258,206.72046755208333,206.98978546458335,69.0,86.0
1259,206.72046755208333,206.99660363958333,74.0,93.0
1260,206.72046755208333,207.00683090208332,66.0,94.0
1261,206.72046755208333,207.01705816458335,50.0,96.0
1262,207.53864855208334,207.81137555208335,74.0,83.0
1263,207.53864855208334,207.86137550208335,69.0,86.0
1264,207.53864855208334,207.88296638958334,66.0,84.0
1265,207.53864855208334,207.92501180208336,50.0,86.0
1266,207.81137555208335,207.93637542708336,62.0,90.0
1267,208.35682955208335,208.78637457708334,72.0,84.0
1268,208.35682955208335,208.82955635208333,64.0,84.0
1269,208.35682955208335,208.84432906458335,52.0,90.0
1270,208.35682955208335,208.84887451458334,67.0,91.0
1271,209.17501055208334,209.60455557708335,51.0,99.0
1272,209.17501055208334,209.61023738958335,62.0,84.0
1273,209.17501055208334,209.65910097708334,67.0,96.0
1274,209.99319155208335,210.33978211458333,66.0,91.0
1275,209.99319155208335,210.36364572708334,69.0,93.0
1276,209.99319155208335,210.38410025208333,50.0,96.0
1277,210.26591855208335,210.39660023958334,62.0,76.0
1278,210.53864555208332,210.68978176458336,64.0,73.0
1279,210.81137255208336,211.06478138958335,72.0,91.0
1280,210.81137255208336,211.12159951458335,67.0,95.0
1281,210.81137255208336,211.14546312708336,64.0,86.0
1282,210.81137255208336,211.17955400208336,49.0,100.0
1283,211.08409955208333,211.19887216458335,61.0,90.0
1284,211.35682655208336,211.49319005208335,64.0,83.0
1285,211.62955355208334,212.02387133958334,72.0,83.0
1286,211.62955355208334,212.15568938958336,64.0,86.0
1287,211.62955355208334,212.18182572708335,67.0,91.0
1288,212.17500755208334,212.51137085208336,60.0,84.0
1289,212.44773455208335,212.78068876458335,72.0,77.0
1290,212.44773455208335,212.82159781458336,64.0,82.0
1291,212.44773455208335,212.82273417708336,67.0,86.0
1292,212.72046155208335,212.87159776458333,60.0,86.0
1293,211.62955355208334,212.92727952708333,48.0,95.0
1294,212.99318855208332,213.10568843958333,64.0,75.0
1295,213.26591555208336,213.58750613958335,62.0,95.0
1296,213.26591555208336,213.69091512708334,67.0,82.0
1297,213.26591555208336,213.73068781458335,74.0,80.0
1298,213.26591555208336,213.80000592708336,69.0,83.0
1299,213.81136955208336,214.06364202708335,62.0,86.0
1300,213.53864255208333,214.32386903958334,57.0,80.0
1301,214.08409655208334,214.42614166458333,74.0,90.0
1302,214.35682355208334,214.43864165208333,62.0,93.0
1303,214.08409655208334,214.46818707708334,67.0,93.0
1304,214.35682355208334,214.47727797708336,57.0,49.0
1305,213.26591555208336,214.48636887708335,50.0,86.0
1306,214.62955055208334,214.67045960208333,67.0,69.0
1307,214.62955055208334,214.74886861458333,72.0,84.0
1308,214.90227755208335,215.20227725208335,74.0,71.0
1309,214.90227755208335,215.22500450208332,62.0,81.0
1310,214.90227755208335,215.23409540208334,66.0,83.0
1311,214.90227755208335,215.24432266458336,69.0,81.0
1312,215.44773155208333,215.60000412708334,62.0,77.0
1313,215.17500455208335,215.78295848958334,59.0,71.0
1314,215.72045855208336,216.10000362708334,62.0,81.0
1315,215.72045855208336,216.16932173958332,69.0,84.0
1316,215.99318555208333,216.33409430208334,59.0,86.0
1317,214.90227755208335,216.35568518958334,47.0,84.0
1318,216.26591255208336,216.44204873958336,62.0,84.0
1319,216.26591255208336,216.45000327708334,74.0,84.0
1320,217.35682055208335,217.77500195208336,71.0,82.0
1321,217.35682055208335,217.80227465208333,67.0,86.0
1322,217.35682055208335,217.80568373958334,62.0,90.0
1323,217.62954755208335,217.84318370208334,59.0,80.0
1324,217.35682055208335,217.91022908958334,52.0,90.0
1325,217.90227455208333,218.03636532708333,69.0,79.0
1326,218.17500155208336,218.47841033958335,72.0,91.0
1327,218.17500155208336,218.48863760208334,64.0,84.0
1328,218.17500155208336,218.49431941458334,67.0,86.0
1329,218.17500155208336,218.54545572708335,45.0,90.0
1330,218.72045555208337,218.89090992708333,64.0,78.0
1331,218.44772855208333,219.01704616458335,57.0,79.0
1332,218.72045555208337,219.27045500208334,45.0,18.0
1333,218.99318255208334,219.29772770208336,64.0,74.0
1334,218.99318255208334,219.33636402708333,74.0,103.0
1335,218.99318255208334,219.34659128958333,67.0,90.0
1336,219.26590955208334,219.62613646458334,57.0,83.0
1337,219.53863655208335,219.66250006458336,74.0,80.0
1338,219.81136355208335,220.12954505208336,67.0,81.0
1339,219.81136355208335,220.16704501458332,60.0,83.0
1340,219.81136355208335,220.16704501458332,64.0,84.0
1341,219.81136355208335,220.17954500208333,45.0,84.0
1342,219.81136355208335,220.21818132708336,57.0,76.0
1343,220.62954455208336,220.98068056458334,63.0,86.0
1344,220.62954455208336,220.99090782708333,47.0,82.0
1345,220.62954455208336,220.99431691458335,66.0,83.0
1346,220.62954455208336,221.01590780208335,69.0,84.0
1347,220.62954455208336,221.06477138958334,59.0,75.0
1348,221.44772555208334,222.00795226458334,67.0,83.0
1349,221.44772555208334,222.02727042708335,62.0,84.0
1350,221.44772555208334,222.05113403958336,74.0,79.0
1351,221.44772555208334,222.08522491458336,71.0,79.0
1352,221.99317955208335,222.32158831458332,59.0,76.0
1353,221.44772555208334,222.62386073958334,52.0,90.0
1354,222.26590655208335,222.68067886458334,50.0,84.0
1355,222.26590655208335,222.69886066458335,66.0,84.0
1356,222.26590655208335,222.70567883958336,57.0,81.0
1357,222.26590655208335,222.72272427708333,62.0,82.0
1358,222.26590655208335,222.80340601458335,69.0,83.0
1359,223.08408755208336,223.77385958958334,64.0,80.0
1360,223.08408755208336,223.78522321458334,67.0,86.0
1361,223.08408755208336,224.02385933958334,71.0,81.0
1362,222.81136055208333,224.03635932708335,74.0,72.0
1363,223.90226855208334,224.29544997708336,64.0,59.0
1364,224.17499555208335,224.42613166458335,67.0,73.0
1365,224.44772255208335,224.53863155208336,71.0,75.0
1366,223.62954155208334,226.02385733958334,61.0,43.0
1367,224.85681305208334,226.12044815208333,73.0,39.0
1368,224.99317655208336,226.13067541458335,85.0,68.0
1369,223.08408755208336,226.22158441458333,49.0,84.0
1370,236.72043755208335,237.47952770208335,71.0,57.0
1371,237.40225505208335,237.85225460208335,67.0,42.0
1372,236.99316455208333,238.08634527708335,62.0,59.0
1373,237.67498205208335,238.40452677708333,78.0,69.0
1374,236.72043755208335,238.86134450208334,55.0,71.0
1375,238.62952655208335,238.87725357708337,62.0,14.0
1376,238.76589005208336,238.91588990208334,79.0,77.0
1377,239.03861705208334,239.29088952708335,74.0,77.0
1378,239.31134405208334,240.19202498958333,71.0,56.0
1379,240.12952505208335,240.51247921458335,78.0,76.0
1380,240.40225205208333,241.00111508958335,62.0,22.0
1381,240.67497905208336,241.03520596458333,71.0,39.0
1382,240.94770605208333,241.46702371458335,74.0,54.0
1383,241.76588705208334,241.97043230208334,67.0,63.0
1384,241.49316005208334,242.10793216458336,62.0,24.0
1385,239.58407105208335,242.16247756458336,59.0,37.0
1386,239.31134405208334,242.17497755208336,52.0,73.0
1387,242.03861405208335,242.30338651458334,69.0,71.0
1388,242.31134105208335,242.54997717708335,71.0,73.0
1389,242.58406805208335,242.90224955208333,62.0,61.0
1390,242.58406805208335,242.90338591458334,67.0,75.0
1391,242.58406805208335,243.24543102708333,55.0,59.0
1392,243.12952205208336,243.66361242708336,62.0,59.0
1393,243.40224905208333,243.70111238958333,66.0,76.0
1394,242.85679505208333,243.93065761458334,59.0,22.0
1395,243.94770305208334,244.20338461458334,69.0,61.0
1396,244.22043005208334,244.67383868958336,67.0,75.0
1397,244.22043005208334,244.82383853958333,62.0,58.0
1398,245.17497455208334,245.32270167708333,66.0,50.0
1399,244.76588405208335,245.41247431458333,59.0,34.0
1400,243.67497605208337,245.52724692708335,54.0,52.0
1401,245.72042855208335,246.12610996458335,73.0,75.0
1402,246.53860955208336,246.87042740208335,60.0,44.0
1403,246.81133655208333,247.10110898958334,78.0,76.0
1404,247.08406355208336,247.31474513958335,74.0,73.0
1405,247.35679055208334,247.59883576458336,71.0,59.0
1406,247.62951755208334,248.11019888958336,60.0,39.0
1407,247.62951755208334,248.11360797708335,67.0,60.0
1408,246.26588255208333,248.11701706458334,55.0,46.0
1409,245.99315555208335,248.16247156458334,48.0,60.0
1410,248.17497155208335,248.29542597708334,64.0,68.0
1411,249.26587955208333,249.67951550208335,66.0,53.0
1412,249.12951605208335,249.70792456458335,59.0,41.0
1413,249.26587955208333,249.71019728958333,62.0,13.0
1414,249.81133355208334,249.99656063958335,59.0,53.0
1415,249.94769705208336,250.13292413958334,62.0,58.0
1416,250.22042405208336,250.30678760208335,66.0,70.0
1417,250.35678755208335,250.59315095208333,67.0,62.0
1418,250.49315105208333,250.91701426458334,71.0,60.0
1419,249.40224305208335,251.01928688958336,50.0,57.0
1420,249.67497005208335,251.03405960208335,55.0,57.0
1421,250.76587805208334,251.06474138958333,74.0,62.0
1422,249.12951605208335,251.14201403958336,43.0,62.0
1423,251.03860505208334,251.18860490208334,78.0,57.0
