,start,end,pitch,velocity
0,23.318959687500005,23.586201000000006,59.0,90.0
1,23.663787187500006,23.850568750000004,67.0,90.0
2,24.008614687500007,24.102005468750004,67.0,84.0
3,24.181028437500007,24.481315718750007,67.0,83.0
4,24.698269687500005,24.880740906250004,67.0,86.0
5,25.043097187500006,25.247120125000006,67.0,86.0
6,25.387924687500007,25.485625812500007,67.0,85.0
7,25.560338437500008,26.005740625000005,69.0,85.0
8,26.077579687500005,26.285912968750008,67.0,84.0
9,26.422407187500006,26.510050843750005,66.0,85.0
10,26.594820937500007,26.682464593750005,66.0,78.0
11,26.767234687500007,26.849131218750006,66.0,79.0
12,26.939648437500008,27.018671406250007,66.0,81.0
13,27.112062187500005,27.341947187500008,66.0,85.0
14,27.456889687500006,27.528728750000006,67.0,83.0
15,27.629303437500006,28.071832062500008,66.0,86.0
16,28.491372187500005,28.755739937500007,64.0,87.0
17,28.836199687500006,29.008613437500006,62.0,84.0
18,29.181027187500007,29.301716812500008,64.0,87.0
19,29.525854687500008,29.666659250000006,64.0,87.0
20,29.87068218750001,30.070394781250005,64.0,87.0
21,30.215509687500006,30.303153343750008,64.0,83.0
22,30.387923437500007,30.742808406250006,64.0,87.0
23,30.905164687500008,31.113497968750007,64.0,89.0
24,31.24999218750001,31.47844040625001,66.0,83.0
25,31.594819687500006,31.77729090625001,64.0,89.0
26,31.939647187500007,32.02298050000001,63.0,83.0
27,32.112060937500004,32.204014937500006,63.0,80.0
28,32.28447468750001,32.37786546875001,63.0,82.0
29,32.456888437500005,32.54453209375001,63.0,81.0
30,32.62930218750001,32.806026281250006,63.0,84.0
31,32.97412968750001,33.07183081250001,59.0,84.0
32,33.14654343750001,33.42815256250001,57.0,83.0
33,33.49137093750001,34.09194550000001,59.0,85.0
34,34.35343968750001,34.58907181250001,59.0,87.0
35,34.69826718750001,34.85487634375001,67.0,86.0
36,35.04309468750001,35.17384178125001,67.0,85.0
37,35.38792218750001,35.54884168750001,67.0,84.0
38,35.73274968750001,35.83763471875001,67.0,80.0
39,35.90516343750001,36.274416218750005,69.0,84.0
40,36.422404687500006,36.78734712500001,67.0,84.0
41,37.11205968750001,37.28447343750001,59.0,85.0
42,37.45688718750001,37.60343887500001,66.0,82.0
43,37.80171468750001,37.92240431250001,66.0,83.0
44,38.14654218750001,38.30027778125001,66.0,85.0
45,38.49136968750001,38.576139781250006,66.0,84.0
46,38.66378343750001,39.04884081250001,67.0,83.0
47,39.181024687500006,39.481311968750006,66.0,85.0
48,39.52585218750001,39.76435787500001,64.0,84.0
49,39.87067968750001,40.06751871875001,62.0,84.0
50,40.21550718750001,41.35918506250001,64.0,87.0
51,42.28447218750001,42.49855259375001,62.0,87.0
52,42.62929968750001,42.85343756250001,62.0,85.0
53,42.97412718750001,45.201138125000014,64.0,89.0
54,45.38791968750001,45.655161000000014,59.0,90.0
55,45.73274718750001,45.91952875000001,67.0,90.0
56,46.07757468750001,46.17096546875001,67.0,84.0
57,46.24998843750001,46.55027571875001,67.0,83.0
58,46.76722968750001,46.94970090625001,67.0,86.0
59,47.112057187500014,47.31608012500001,67.0,86.0
60,47.456884687500015,47.55458581250001,67.0,85.0
61,47.62929843750001,48.07470062500001,69.0,85.0
62,48.14653968750001,48.35487296875001,67.0,84.0
63,48.49136718750001,48.57901084375001,66.0,85.0
64,48.663780937500015,48.75142459375001,66.0,78.0
65,48.83619468750001,48.918091218750014,66.0,79.0
66,49.00860843750001,49.08763140625001,66.0,81.0
67,49.18102218750001,49.41090718750001,66.0,85.0
68,49.52584968750001,49.59768875000001,67.0,83.0
69,49.69826343750001,50.14079206250001,66.0,86.0
70,50.56033218750001,50.824699937500014,64.0,87.0
71,50.90515968750001,51.077573437500014,62.0,84.0
72,51.24998718750001,51.370676812500015,64.0,87.0
73,51.59481468750001,51.73561925000001,64.0,87.0
74,51.93964218750001,52.13935478125001,64.0,87.0
75,52.284469687500014,52.372113343750016,64.0,83.0
76,52.45688343750001,52.81176840625001,64.0,87.0
77,52.974124687500016,53.182457968750015,64.0,89.0
78,53.31895218750001,53.54740040625001,66.0,83.0
79,53.66377968750001,53.84625090625001,64.0,89.0
80,54.00860718750001,54.091940500000014,63.0,83.0
81,54.181020937500016,54.27297493750001,63.0,80.0
82,54.35343468750001,54.44682546875001,63.0,82.0
83,54.52584843750001,54.61349209375001,63.0,81.0
84,54.69826218750001,54.87498628125001,63.0,84.0
85,55.043089687500014,55.140790812500015,59.0,84.0
86,55.21550343750001,55.497112562500014,57.0,83.0
87,55.56033093750001,56.16090550000001,59.0,85.0
88,56.42239968750001,56.65803181250001,59.0,87.0
89,56.76722718750001,56.92383634375001,67.0,86.0
90,57.11205468750001,57.242801781250016,67.0,85.0
91,57.456882187500014,57.61780168750001,67.0,84.0
92,57.801709687500015,57.906594718750014,67.0,80.0
93,57.97412343750001,58.34337621875002,69.0,84.0
94,58.49136468750002,58.856307125000015,67.0,84.0
95,59.18101968750001,59.353433437500016,59.0,85.0
96,59.52584718750001,59.67239887500001,66.0,82.0
97,59.87067468750001,59.99136431250002,66.0,83.0
98,60.215502187500014,60.369237781250014,66.0,85.0
99,60.560329687500015,60.64509978125002,66.0,84.0
100,60.73274343750001,61.117800812500015,67.0,83.0
101,61.24998468750002,61.55027196875002,66.0,85.0
102,61.59481218750001,61.83331787500001,64.0,84.0
103,61.93963968750001,62.13647871875001,62.0,84.0
104,62.28446718750001,63.428145062500015,64.0,87.0
105,64.35343218750002,64.56751259375001,62.0,87.0
106,64.69825968750001,64.92239756250001,62.0,85.0
107,65.04308718750002,66.76722468750002,64.0,89.0
108,67.11205218750001,67.30458087500001,59.0,87.0
109,67.45687968750002,67.71262675000001,62.0,83.0
110,67.80170718750001,68.29164959375002,64.0,87.0
111,68.49136218750002,68.72699431250001,64.0,84.0
112,68.83618968750001,69.02871837500001,62.0,84.0
113,69.18101718750002,69.42527000000001,64.0,86.0
114,69.52584468750001,69.71693659375002,66.0,84.0
115,69.87067218750002,70.09337328125001,64.0,92.0
116,70.21549968750001,70.39222378125001,62.0,85.0
117,70.56032718750002,70.98274087500002,59.0,85.0
118,71.24998218750002,71.47843040625001,59.0,81.0
119,71.59480968750002,71.84624640625002,62.0,84.0
120,71.93963718750001,72.30457962500002,62.0,87.0
121,72.62929218750001,72.82613121875002,59.0,88.0
122,72.97411968750002,73.19825756250002,62.0,84.0
123,73.31894718750002,73.82900453125002,64.0,84.0
124,74.00860218750002,74.27153315625002,64.0,87.0
125,74.35342968750001,74.60773996875002,62.0,84.0
126,74.69825718750002,74.93676287500001,64.0,87.0
127,75.04308468750001,75.29595818750002,66.0,83.0
128,75.38791218750002,75.57325696875002,64.0,87.0
129,75.73273968750001,75.97842928125002,62.0,85.0
130,76.07756718750002,76.44681996875002,59.0,85.0
131,76.76722218750002,77.01291178125001,64.0,87.0
132,77.11204968750002,77.39653237500002,62.0,85.0
133,77.45687718750001,77.99279659375001,59.0,84.0
134,78.14653218750001,78.41089993750002,59.0,85.0
135,78.49135968750002,78.71693434375001,62.0,84.0
136,78.83618718750002,79.27296868750003,64.0,84.0
137,79.52584218750002,79.76722143750001,64.0,87.0
138,79.87066968750001,80.13647421875002,62.0,84.0
139,80.21549718750002,80.45975000000001,64.0,84.0
140,80.56032468750001,80.80026715625002,66.0,83.0
141,80.90515218750002,81.16664637500001,64.0,87.0
142,81.24997968750002,81.48561181250003,62.0,84.0
143,81.59480718750002,82.01722087500002,59.0,84.0
144,82.28446218750003,82.57181843750001,64.0,84.0
145,82.62928968750002,82.73992184375003,62.0,86.0
146,82.80170343750002,82.91233559375002,59.0,85.0
147,82.97411718750001,83.42814006250002,62.0,83.0
148,83.66377218750002,83.88791006250003,59.0,85.0
149,84.00859968750002,84.22699043750002,62.0,85.0
150,84.35342718750002,84.78015121875002,64.0,85.0
151,85.04308218750002,85.29451890625002,64.0,89.0
152,85.38790968750003,85.63647284375001,62.0,84.0
153,85.73273718750002,85.94825437500002,64.0,86.0
154,86.07756468750001,86.32181750000002,64.0,82.0
155,86.42239218750002,86.63934615625001,69.0,84.0
156,86.76721968750002,87.03446100000002,69.0,84.0
157,87.11204718750002,87.63072521875002,62.0,85.0
158,87.80170218750003,88.08474809375002,66.0,86.0
159,88.14652968750002,88.32900090625002,64.0,87.0
160,88.49135718750001,88.99135706250001,64.0,89.0
161,89.18101218750002,89.37354087500002,59.0,87.0
162,89.52583968750002,89.78158675000002,62.0,83.0
163,89.87066718750002,90.36060959375003,64.0,87.0
164,90.56032218750002,90.79595431250002,64.0,84.0
165,90.90514968750003,91.09767837500002,62.0,84.0
166,91.24997718750002,91.49423000000002,64.0,86.0
167,91.59480468750002,91.78589659375002,66.0,84.0
168,91.93963218750002,92.16233328125003,64.0,92.0
169,92.28445968750002,92.46118378125003,62.0,85.0
170,92.62928718750003,93.05170087500002,59.0,85.0
171,93.31894218750003,93.54739040625002,59.0,81.0
172,93.66376968750002,93.91520640625002,62.0,84.0
173,94.00859718750002,94.37353962500002,62.0,87.0
174,94.69825218750002,94.89509121875003,59.0,88.0
175,95.04307968750003,95.26721756250002,62.0,84.0
176,95.38790718750002,95.89796453125003,64.0,84.0
177,96.07756218750002,96.34049315625002,64.0,87.0
178,96.42238968750003,96.67669996875003,62.0,84.0
179,96.76721718750002,97.00572287500002,64.0,87.0
180,97.11204468750002,97.36491818750002,66.0,83.0
181,97.45687218750003,97.64221696875002,64.0,87.0
182,97.80169968750002,98.04738928125002,62.0,85.0
183,98.14652718750003,98.51577996875002,59.0,85.0
184,98.83618218750003,99.08187178125003,64.0,87.0
185,99.18100968750002,99.46549237500003,62.0,85.0
186,99.52583718750003,100.06175659375002,59.0,84.0
187,100.21549218750002,100.47985993750002,59.0,85.0
188,100.56031968750003,100.78589434375003,62.0,84.0
189,100.90514718750002,101.34192868750003,64.0,84.0
190,101.59480218750002,101.83618143750003,64.0,87.0
191,101.93962968750003,102.20543421875003,62.0,84.0
192,102.28445718750002,102.52871000000002,64.0,84.0
193,102.62928468750002,102.86922715625002,66.0,83.0
194,102.97411218750003,103.23560637500002,64.0,87.0
195,103.31893968750002,103.55457181250003,62.0,84.0
196,103.66376718750003,104.08618087500003,59.0,84.0
197,104.35342218750003,104.64077843750003,64.0,84.0
198,104.69824968750002,104.80888184375003,62.0,86.0
199,104.87066343750003,104.98129559375002,59.0,85.0
200,105.04307718750003,105.49710006250002,62.0,83.0
201,105.73273218750002,105.95687006250003,59.0,85.0
202,106.07755968750003,106.29595043750003,62.0,85.0
203,106.42238718750002,106.84911121875002,64.0,85.0
204,107.11204218750002,107.36347890625002,64.0,89.0
205,107.45686968750003,107.70543284375003,62.0,84.0
206,107.80169718750003,108.01721437500002,64.0,86.0
207,108.14652468750002,108.39077750000003,64.0,82.0
208,108.49135218750003,108.70830615625003,69.0,84.0
209,108.83617968750002,109.10342100000003,69.0,84.0
210,109.18100718750003,109.69968521875002,62.0,85.0
211,109.87066218750003,110.15370809375003,66.0,86.0
212,110.21548968750002,110.39796090625002,64.0,87.0
213,110.56031718750003,111.06031706250003,64.0,89.0
214,135.04306968750004,135.31031100000004,59.0,90.0
215,135.38789718750004,135.57467875000003,67.0,90.0
216,135.73272468750002,135.82611546875003,67.0,84.0
217,135.90513843750003,136.20542571875004,67.0,83.0
218,136.42237968750004,136.60485090625002,67.0,86.0
219,136.76720718750002,136.97123012500003,67.0,86.0
220,137.11203468750003,137.20973581250004,67.0,85.0
221,137.28444843750003,137.72985062500004,69.0,85.0
222,137.80168968750004,138.01002296875004,67.0,84.0
223,138.14651718750002,138.23416084375003,66.0,85.0
224,138.31893093750003,138.40657459375004,66.0,78.0
225,138.49134468750003,138.57324121875004,66.0,79.0
226,138.66375843750004,138.74278140625003,66.0,81.0
227,138.83617218750004,139.06605718750004,66.0,85.0
228,139.18099968750002,139.25283875000002,67.0,83.0
229,139.35341343750002,139.79594206250005,66.0,86.0
230,140.21548218750004,140.47984993750003,64.0,87.0
231,140.56030968750002,140.73272343750003,62.0,84.0
232,140.90513718750003,141.02582681250004,64.0,87.0
233,141.24996468750004,141.39076925000003,64.0,87.0
234,141.59479218750005,141.79450478125003,64.0,87.0
235,141.93961968750003,142.02726334375004,64.0,83.0
236,142.11203343750003,142.46691840625004,64.0,87.0
237,142.62927468750004,142.83760796875004,64.0,89.0
238,142.97410218750002,143.20255040625003,66.0,83.0
239,143.31892968750003,143.50140090625004,64.0,89.0
240,143.66375718750004,143.74709050000004,63.0,83.0
241,143.83617093750004,143.92812493750003,63.0,80.0
242,144.00858468750005,144.10197546875003,63.0,82.0
243,144.18099843750002,144.26864209375003,63.0,81.0
244,144.35341218750003,144.53013628125004,63.0,84.0
245,144.69823968750003,144.79594081250002,59.0,84.0
246,144.87065343750004,145.15226256250003,57.0,83.0
247,145.21548093750005,145.81605550000003,59.0,85.0
248,146.07754968750004,146.31318181250003,59.0,87.0
249,146.42237718750005,146.57898634375005,67.0,86.0
250,146.76720468750003,146.89795178125004,67.0,85.0
251,147.11203218750003,147.27295168750004,67.0,84.0
252,147.45685968750004,147.56174471875005,67.0,80.0
253,147.62927343750005,147.99852621875004,69.0,84.0
254,148.14651468750003,148.51145712500002,67.0,84.0
255,148.83616968750005,149.00858343750002,59.0,85.0
256,149.18099718750003,149.32754887500005,66.0,82.0
257,149.52582468750003,149.64651431250005,66.0,83.0
258,149.87065218750004,150.02438778125003,66.0,85.0
259,150.21547968750002,150.30024978125005,66.0,84.0
260,150.38789343750003,150.77295081250003,67.0,83.0
261,150.90513468750004,151.20542196875004,66.0,85.0
262,151.24996218750005,151.48846787500003,64.0,84.0
263,151.59478968750003,151.79162871875005,62.0,84.0
264,151.93961718750003,153.08329506250004,64.0,87.0
265,154.00858218750002,154.22266259375004,62.0,87.0
266,154.35340968750003,154.57754756250003,62.0,85.0
267,154.69823718750004,156.92524812500002,64.0,89.0
268,157.11202968750004,157.37927100000005,59.0,90.0
269,157.45685718750005,157.64363875000004,67.0,90.0
270,157.80168468750003,157.89507546875004,67.0,84.0
271,157.97409843750003,158.27438571875004,67.0,83.0
272,158.49133968750004,158.67381090625003,67.0,86.0
273,158.83616718750002,159.04019012500004,67.0,86.0
274,159.18099468750003,159.27869581250005,67.0,85.0
275,159.35340843750004,159.79881062500004,69.0,85.0
276,159.87064968750005,160.07898296875004,67.0,84.0
277,160.21547718750003,160.30312084375004,66.0,85.0
278,160.38789093750003,160.47553459375004,66.0,78.0
279,160.56030468750004,160.64220121875005,66.0,79.0
280,160.73271843750004,160.81174140625004,66.0,81.0
281,160.90513218750004,161.13501718750004,66.0,85.0
282,161.24995968750005,161.32179875000003,67.0,83.0
283,161.42237343750003,161.86490206250005,66.0,86.0
284,162.28444218750005,162.54880993750004,64.0,87.0
285,162.62926968750003,162.80168343750003,62.0,84.0
286,162.97409718750004,163.09478681250005,64.0,87.0
287,163.31892468750004,163.45972925000004,64.0,87.0
288,163.66375218750005,163.86346478125003,64.0,87.0
289,164.00857968750003,164.09622334375004,64.0,83.0
290,164.18099343750004,164.53587840625005,64.0,87.0
291,164.69823468750005,164.90656796875004,64.0,89.0
292,165.04306218750003,165.27151040625003,66.0,83.0
293,165.38788968750004,165.57036090625004,64.0,89.0
294,165.73271718750004,165.81605050000005,63.0,83.0
295,165.90513093750005,165.99708493750003,63.0,80.0
296,166.07754468750005,166.17093546875003,63.0,82.0
297,166.24995843750003,166.33760209375004,63.0,81.0
298,166.42237218750003,166.59909628125004,63.0,84.0
299,166.76719968750004,166.86490081250005,59.0,84.0
300,166.93961343750004,167.22122256250003,57.0,83.0
301,167.28444093750005,167.88501550000004,59.0,85.0
302,168.14650968750004,168.38214181250004,59.0,87.0
303,168.49133718750005,168.64794634375005,67.0,86.0
304,168.83616468750003,168.96691178125005,67.0,85.0
305,169.18099218750004,169.34191168750004,67.0,84.0
306,169.52581968750005,169.63070471875005,67.0,80.0
307,169.69823343750005,170.06748621875005,69.0,84.0
308,170.21547468750003,170.58041712500005,67.0,84.0
309,170.90512968750005,171.07754343750005,59.0,85.0
310,171.24995718750003,171.39650887500005,66.0,82.0
311,171.59478468750004,171.71547431250005,66.0,83.0
312,171.93961218750005,172.09334778125003,66.0,85.0
313,172.28443968750005,172.36920978125005,66.0,84.0
314,172.45685343750003,172.84191081250003,67.0,83.0
315,172.97409468750004,173.27438196875005,66.0,85.0
316,173.31892218750005,173.55742787500003,64.0,84.0
317,173.66374968750003,173.86058871875005,62.0,84.0
318,174.00857718750004,175.15225506250005,64.0,87.0
319,176.07754218750003,176.29162259375005,62.0,87.0
320,176.42236968750004,176.64650756250003,62.0,85.0
321,176.76719718750005,178.49133468750003,64.0,89.0
322,178.83616218750004,179.02869087500005,59.0,87.0
323,179.18098968750004,179.43673675000005,62.0,83.0
324,179.52581718750005,180.01575959375003,64.0,87.0
325,180.21547218750004,180.45110431250004,64.0,84.0
326,180.56029968750005,180.75282837500004,62.0,84.0
327,180.90512718750006,181.14938000000004,64.0,86.0
328,181.24995468750004,181.44104659375003,66.0,84.0
329,181.59478218750004,181.81748328125005,64.0,92.0
330,181.93960968750005,182.11633378125003,62.0,85.0
331,182.28443718750003,182.70685087500004,59.0,85.0
332,182.97409218750005,183.20254040625005,59.0,81.0
333,183.31891968750006,183.57035640625006,62.0,84.0
334,183.66374718750004,184.02868962500006,62.0,87.0
335,184.35340218750005,184.55024121875005,59.0,88.0
336,184.69822968750003,184.92236756250006,62.0,84.0
337,185.04305718750004,185.55311453125003,64.0,84.0
338,185.73271218750006,185.99564315625005,64.0,87.0
339,186.07753968750004,186.33184996875005,62.0,84.0
340,186.42236718750004,186.66087287500005,64.0,87.0
341,186.76719468750005,187.02006818750004,66.0,83.0
342,187.11202218750003,187.29736696875005,64.0,87.0
343,187.45684968750004,187.70253928125004,62.0,85.0
344,187.80167718750005,188.17092996875004,59.0,85.0
345,188.49133218750003,188.73702178125004,64.0,87.0
346,188.83615968750004,189.12064237500005,62.0,85.0
347,189.18098718750005,189.71690659375005,59.0,84.0
348,189.87064218750004,190.13500993750006,59.0,85.0
349,190.21546968750005,190.44104434375004,62.0,84.0
350,190.56029718750005,190.99707868750005,64.0,84.0
351,191.24995218750004,191.49133143750004,64.0,87.0
352,191.59477968750005,191.86058421875003,62.0,84.0
353,191.93960718750006,192.18386000000004,64.0,84.0
354,192.28443468750004,192.52437715625004,66.0,83.0
355,192.62926218750005,192.89075637500005,64.0,87.0
356,192.97408968750005,193.20972181250005,62.0,84.0
357,193.31891718750003,193.74133087500005,59.0,84.0
358,194.00857218750005,194.29592843750004,64.0,84.0
359,194.35339968750006,194.46403184375004,62.0,86.0
360,194.52581343750003,194.63644559375004,59.0,85.0
361,194.69822718750004,195.15225006250006,62.0,83.0
362,195.38788218750005,195.61202006250005,59.0,85.0
363,195.73270968750003,195.95110043750006,62.0,85.0
364,196.07753718750004,196.50426121875006,64.0,85.0
365,196.76719218750006,197.01862890625006,64.0,89.0
366,197.11201968750004,197.36058284375005,62.0,84.0
367,197.45684718750005,197.67236437500006,64.0,86.0
368,197.80167468750005,198.04592750000003,64.0,82.0
369,198.14650218750003,198.36345615625004,69.0,84.0
370,198.49132968750004,198.75857100000005,69.0,84.0
371,198.83615718750005,199.35483521875005,62.0,85.0
372,199.52581218750004,199.80885809375005,66.0,86.0
373,199.87063968750005,200.05311090625005,64.0,87.0
374,200.21546718750005,200.71546706250004,64.0,89.0
375,200.90512218750004,201.09765087500006,59.0,87.0
376,201.24994968750005,201.50569675000006,62.0,83.0
377,201.59477718750006,202.08471959375004,64.0,87.0
378,202.28443218750004,202.52006431250004,64.0,84.0
379,202.62925968750005,202.82178837500004,62.0,84.0
380,202.97408718750006,203.21834000000004,64.0,86.0
381,203.31891468750004,203.51000659375003,66.0,84.0
382,203.66374218750005,203.88644328125005,64.0,92.0
383,204.00856968750006,204.18529378125004,62.0,85.0
384,204.35339718750004,204.77581087500005,59.0,85.0
385,205.04305218750005,205.27150040625006,59.0,81.0
386,205.38787968750006,205.63931640625006,62.0,84.0
387,205.73270718750004,206.09764962500006,62.0,87.0
388,206.42236218750006,206.61920121875005,59.0,88.0
389,206.76718968750004,206.99132756250006,62.0,84.0
390,207.11201718750004,207.62207453125004,64.0,84.0
391,207.80167218750006,208.06460315625006,64.0,87.0
392,208.14649968750004,208.40080996875005,62.0,84.0
393,208.49132718750005,208.72983287500006,64.0,87.0
394,208.83615468750006,209.08902818750005,66.0,83.0
395,209.18098218750006,209.36632696875006,64.0,87.0
396,209.52580968750004,209.77149928125004,62.0,85.0
397,209.87063718750005,210.23988996875005,59.0,85.0
398,210.56029218750004,210.80598178125004,64.0,87.0
399,210.90511968750005,211.18960237500005,62.0,85.0
400,211.24994718750006,211.78586659375006,59.0,84.0
401,211.93960218750004,212.20396993750006,59.0,85.0
402,212.28442968750005,212.51000434375004,62.0,84.0
403,212.62925718750006,213.06603868750005,64.0,84.0
404,213.31891218750005,213.56029143750004,64.0,87.0
405,213.66373968750005,213.92954421875004,62.0,84.0
406,214.00856718750006,214.25282000000004,64.0,84.0
407,214.35339468750004,214.59333715625004,66.0,83.0
408,214.69822218750005,214.95971637500006,64.0,87.0
409,215.04304968750006,215.27868181250005,62.0,84.0
410,215.38787718750004,215.81029087500005,59.0,84.0
411,216.07753218750005,216.36488843750004,64.0,84.0
412,216.42235968750006,216.53299184375004,62.0,86.0
413,216.59477343750004,216.70540559375004,59.0,85.0
414,216.76718718750004,217.22121006250006,62.0,83.0
415,217.45684218750006,217.68098006250005,59.0,85.0
416,217.80166968750004,218.02006043750006,62.0,85.0
417,218.14649718750005,218.57322121875006,64.0,85.0
418,218.83615218750006,219.08758890625006,64.0,89.0
419,219.18097968750004,219.42954284375006,62.0,84.0
420,219.52580718750005,219.74132437500006,64.0,86.0
421,219.87063468750006,220.11488750000007,64.0,82.0
422,220.21546218750007,220.43241615625004,69.0,84.0
423,220.56028968750005,220.82753100000005,69.0,84.0
424,220.90511718750005,221.42379521875006,62.0,85.0
425,221.59477218750004,221.87781809375005,66.0,86.0
426,221.93959968750005,222.12207090625006,64.0,87.0
427,222.28442718750006,222.78442706250004,64.0,89.0
428,223.31890968750005,223.58615100000006,59.0,90.0
429,223.66373718750006,223.85051875000005,67.0,90.0
430,224.00856468750004,224.10195546875005,67.0,84.0
431,224.18097843750004,224.48126571875005,67.0,83.0
432,224.69821968750006,224.88069090625007,67.0,86.0
433,225.04304718750006,225.24707012500005,67.0,86.0
434,225.38787468750004,225.48557581250006,67.0,85.0
435,225.56028843750005,226.00569062500006,69.0,85.0
436,226.07752968750006,226.28586296875005,67.0,84.0
437,226.42235718750004,226.51000084375005,66.0,85.0
438,226.59477093750004,226.68241459375005,66.0,78.0
439,226.76718468750005,226.84908121875006,66.0,79.0
440,226.93959843750005,227.01862140625005,66.0,81.0
441,227.11201218750006,227.34189718750005,66.0,85.0
442,227.45683968750006,227.52867875000004,67.0,83.0
443,227.62925343750004,228.07178206250006,66.0,86.0
444,228.49132218750006,228.75568993750005,64.0,87.0
445,228.83614968750007,229.00856343750004,62.0,84.0
446,229.18097718750005,229.30166681250006,64.0,87.0
447,229.52580468750006,229.66660925000005,64.0,87.0
448,229.87063218750006,230.07034478125004,64.0,87.0
449,230.21545968750004,230.30310334375005,64.0,83.0
450,230.38787343750005,230.74275840625006,64.0,87.0
451,230.90511468750006,231.11344796875005,64.0,89.0
452,231.24994218750007,231.47839040625004,66.0,83.0
453,231.59476968750005,231.77724090625006,64.0,89.0
454,231.93959718750006,232.02293050000006,63.0,83.0
455,232.11201093750006,232.20396493750005,63.0,80.0
456,232.28442468750006,232.37781546875004,63.0,82.0
457,232.45683843750007,232.54448209375005,63.0,81.0
458,232.62925218750004,232.80597628125005,63.0,84.0
459,232.97407968750005,233.07178081250007,59.0,84.0
460,233.14649343750006,233.42810256250004,57.0,83.0
461,233.49132093750006,234.09189550000005,59.0,85.0
462,234.35338968750006,234.58902181250005,59.0,87.0
463,234.69821718750006,234.85482634375006,67.0,86.0
464,235.04304468750004,235.17379178125006,67.0,85.0
465,235.38787218750005,235.54879168750006,67.0,84.0
466,235.73269968750006,235.83758471875007,67.0,80.0
467,235.90511343750006,236.27436621875006,69.0,84.0
468,236.42235468750005,236.78729712500007,67.0,84.0
469,237.11200968750006,237.28442343750007,59.0,85.0
470,237.45683718750004,237.60338887500006,66.0,82.0
471,237.80166468750005,237.92235431250006,66.0,83.0
472,238.14649218750006,238.30022778125004,66.0,85.0
473,238.49131968750007,238.57608978125006,66.0,84.0
474,238.66373343750007,239.04879081250004,67.0,83.0
475,239.18097468750005,239.48126196875006,66.0,85.0
476,239.52580218750006,239.76430787500004,64.0,84.0
477,239.87062968750007,240.06746871875006,62.0,84.0
478,240.21545718750005,241.35913506250006,64.0,87.0
479,242.28442218750007,242.49850259375006,62.0,87.0
480,242.62924968750005,242.85338756250005,62.0,85.0
481,242.97407718750006,244.69821468750007,64.0,89.0
