,start,end,pitch,velocity
0,1.9396546875000005,4.054596687500001,55.0,76.0
1,1.5948271875000004,4.086205875000001,52.0,79.0
2,2.2844821875000005,4.306033406250001,66.0,72.0
3,5.0431021875000015,6.979883312500002,59.0,79.0
4,4.698274687500001,7.004308593750002,50.0,77.0
5,4.353447187500001,7.044538468750002,47.0,77.0
6,7.456894687500002,9.571836687500003,55.0,76.0
7,7.112067187500002,9.603445875000002,52.0,79.0
8,7.801722187500002,9.823273406250003,66.0,72.0
9,10.560342187500002,12.497123312500003,62.0,79.0
10,10.215514687500002,12.521548593750003,54.0,77.0
11,9.870687187500002,12.561778468750003,47.0,77.0
12,12.524422156250003,14.762927343750004,52.0,67.0
13,12.650858906250003,14.820398593750003,59.0,66.0
14,12.587640531250003,14.824708937500004,55.0,73.0
15,12.602008343750002,14.850571000000004,40.0,66.0
16,12.682468093750003,15.297409968750003,64.0,80.0
17,15.347697312500003,17.693961093750005,47.0,83.0
18,15.389363968750004,17.787351875000006,62.0,75.0
19,15.412352468750004,17.813213937500006,66.0,38.0
20,15.306030656250003,17.834765656250003,59.0,64.0
21,18.854880343750004,19.112064187500003,52.0,75.0
22,19.199707843750005,19.420972156250006,52.0,44.0
23,18.165225343750006,19.422408937500006,40.0,85.0
24,18.510052843750003,19.505742250000004,47.0,71.0
25,18.854880343750004,19.619247968750006,55.0,78.0
26,19.544535343750006,20.841948812500004,38.0,78.0
27,19.889362843750003,20.852006281250006,45.0,71.0
28,20.579017843750005,20.948270625000006,50.0,79.0
29,20.234190343750004,20.958328093750005,54.0,76.0
30,21.271546406250007,23.551718250000004,45.0,55.0
31,20.926718906250006,23.580453875000007,38.0,83.0
32,21.616373906250004,23.590511343750006,57.0,71.0
33,21.961201406250005,23.596258468750005,62.0,70.0
34,24.008614687500007,24.221258312500005,52.0,83.0
35,24.008614687500007,24.239936468750006,55.0,77.0
36,24.353442187500004,24.432465156250007,52.0,83.0
37,24.353442187500004,24.438212281250006,55.0,83.0
38,24.353442187500004,24.438212281250006,64.0,88.0
39,23.663787187500006,24.853442062500005,40.0,85.0
40,25.043097187500006,25.504303968750005,52.0,77.0
41,25.387924687500007,25.550280968750005,59.0,77.0
42,25.043097187500006,25.561775218750007,55.0,72.0
43,25.732752187500004,25.801717687500005,52.0,83.0
44,25.732752187500004,25.824706187500006,59.0,83.0
45,25.732752187500004,25.833326875000004,55.0,87.0
46,25.732752187500004,25.862062500000008,64.0,84.0
47,25.043097187500006,25.882177437500005,40.0,86.0
48,26.077579687500005,26.323269281250006,52.0,84.0
49,26.077579687500005,26.377866968750006,55.0,85.0
50,26.077579687500005,26.403729031250005,59.0,84.0
51,26.767234687500007,26.893671437500007,59.0,74.0
52,26.767234687500007,26.923843843750006,62.0,74.0
53,27.112062187500005,27.181027687500006,59.0,83.0
54,27.112062187500005,27.185338031250005,62.0,81.0
55,27.112062187500005,27.212636875000005,66.0,83.0
56,26.422407187500006,27.528728750000006,47.0,83.0
57,27.801717187500007,28.047406781250007,59.0,74.0
58,27.801717187500007,28.09051021875001,62.0,79.0
59,28.146544687500008,28.293096375000008,59.0,75.0
60,28.491372187500005,28.801716937500007,59.0,86.0
61,28.491372187500005,28.827579000000007,62.0,88.0
62,28.491372187500005,28.834762906250006,66.0,85.0
63,27.801717187500007,28.897981281250008,47.0,83.0
64,28.836199687500006,28.949705406250008,54.0,71.0
65,29.525854687500008,29.738498312500006,52.0,83.0
66,29.525854687500008,29.757176468750007,55.0,77.0
67,29.87068218750001,29.94970515625001,52.0,83.0
68,29.87068218750001,29.955452281250007,55.0,83.0
69,29.87068218750001,29.955452281250007,64.0,88.0
70,29.181027187500007,30.370682062500006,40.0,85.0
71,30.560337187500007,31.021543968750006,52.0,77.0
72,30.905164687500008,31.067520968750006,59.0,77.0
73,30.560337187500007,31.07901521875001,55.0,72.0
74,31.24999218750001,31.318957687500006,52.0,83.0
75,31.24999218750001,31.341946187500007,59.0,83.0
76,31.24999218750001,31.35056687500001,55.0,87.0
77,31.24999218750001,31.37930250000001,64.0,84.0
78,30.560337187500007,31.399417437500006,40.0,86.0
79,31.594819687500006,31.840509281250007,52.0,84.0
80,31.594819687500006,31.895106968750007,55.0,85.0
81,31.594819687500006,31.920969031250007,59.0,84.0
82,32.28447468750001,32.410911437500005,59.0,74.0
83,32.28447468750001,32.44108384375001,63.0,74.0
84,32.62930218750001,32.69826768750001,59.0,83.0
85,32.62930218750001,32.702578031250006,63.0,81.0
86,32.62930218750001,32.72987687500001,66.0,83.0
87,31.939647187500007,33.04596875000001,47.0,83.0
88,33.31895718750001,33.564646781250005,59.0,74.0
89,33.31895718750001,33.607750218750006,63.0,79.0
90,33.663784687500005,33.810336375000006,59.0,75.0
91,34.008612187500006,34.318956937500005,59.0,86.0
92,34.008612187500006,34.34481900000001,63.0,88.0
93,34.008612187500006,34.35200290625001,66.0,85.0
94,33.31895718750001,34.415221281250005,47.0,83.0
95,34.35343968750001,34.466945406250005,54.0,71.0
96,34.69826718750001,34.92527862500001,60.0,80.0
97,34.69826718750001,34.93389931250001,64.0,83.0
98,35.04309468750001,35.19251993750001,64.0,83.0
99,35.04309468750001,35.218382000000005,60.0,75.0
100,35.38792218750001,35.45976125000001,64.0,84.0
101,35.38792218750001,35.466945156250006,67.0,83.0
102,35.38792218750001,35.48131296875001,60.0,83.0
103,35.73274968750001,35.820393343750005,64.0,80.0
104,35.73274968750001,35.83045081250001,60.0,75.0
105,36.07757718750001,36.317519656250006,60.0,71.0
106,36.07757718750001,36.34481850000001,64.0,78.0
107,36.422404687500006,36.60918625000001,60.0,87.0
108,36.07757718750001,36.89079537500001,55.0,64.0
109,36.76723218750001,36.89079537500001,60.0,83.0
110,34.69826718750001,36.920967781250006,48.0,86.0
111,36.76723218750001,36.98131259375001,64.0,84.0
112,36.76723218750001,37.16522059375001,67.0,83.0
113,37.11205968750001,37.22843896875001,60.0,81.0
114,37.45688718750001,37.65659978125001,62.0,75.0
115,37.45688718750001,37.84625490625001,66.0,78.0
116,37.80171468750001,37.923841093750006,62.0,77.0
117,38.14654218750001,38.21694446875001,62.0,79.0
118,38.14654218750001,38.23993296875001,66.0,83.0
119,38.14654218750001,38.49136968750001,69.0,84.0
120,37.45688718750001,38.68964550000001,50.0,85.0
121,38.83619718750001,39.02585231250001,62.0,64.0
122,38.83619718750001,39.04740403125001,66.0,70.0
123,39.181024687500006,39.31608212500001,62.0,71.0
124,39.181024687500006,39.32182925000001,66.0,72.0
125,39.52585218750001,39.66378318750001,62.0,82.0
126,38.83619718750001,39.71838087500001,50.0,85.0
127,39.52585218750001,39.72987512500001,66.0,83.0
128,39.52585218750001,39.75573718750001,69.0,83.0
129,39.87067968750001,39.91809346875001,66.0,60.0
130,39.87067968750001,40.034472750000006,62.0,77.0
131,40.56033468750001,40.73131165625001,59.0,72.0
132,40.56033468750001,40.73274843750001,64.0,77.0
133,40.90516218750001,40.97269090625001,64.0,85.0
134,40.90516218750001,40.98993228125001,59.0,83.0
135,40.90516218750001,41.00286331250001,67.0,83.0
136,41.24998968750001,41.31464484375001,64.0,79.0
137,41.24998968750001,41.33475978125001,59.0,74.0
138,40.21550718750001,41.46550687500001,40.0,85.0
139,41.59481718750001,41.84912746875001,59.0,73.0
140,41.59481718750001,41.91809296875001,64.0,81.0
141,41.93964468750001,42.07613890625001,59.0,76.0
142,42.28447218750001,42.43102387500001,59.0,85.0
143,42.28447218750001,42.47556409375001,64.0,89.0
144,41.59481718750001,42.50142615625001,40.0,83.0
145,42.28447218750001,42.51292040625001,67.0,87.0
146,42.62929968750001,42.81177090625001,59.0,81.0
147,42.97412718750001,43.11062140625001,59.0,72.0
148,42.97412718750001,43.15516162500001,64.0,77.0
149,43.31895468750001,43.48705809375001,59.0,71.0
150,43.66378218750001,43.78878215625001,59.0,74.0
151,43.66378218750001,43.81608100000001,67.0,78.0
152,44.35343718750001,44.53878196875001,59.0,76.0
153,44.35343718750001,44.54309231250001,64.0,78.0
154,45.04309218750001,45.19395421875001,59.0,89.0
155,45.04309218750001,45.29452890625001,64.0,90.0
156,42.97412718750001,45.39654037500001,40.0,84.0
157,45.38791968750001,45.47987368750001,64.0,44.0
158,45.38791968750001,45.61349434375001,59.0,84.0
159,46.07757468750001,46.29021831250001,52.0,83.0
160,46.07757468750001,46.308896468750014,55.0,77.0
161,46.42240218750001,46.50142515625001,52.0,83.0
162,46.42240218750001,46.507172281250014,55.0,83.0
163,46.42240218750001,46.507172281250014,64.0,88.0
164,45.73274718750001,46.92240206250001,40.0,85.0
165,47.112057187500014,47.57326396875001,52.0,77.0
166,47.456884687500015,47.61924096875001,59.0,77.0
167,47.112057187500014,47.63073521875001,55.0,72.0
168,47.80171218750001,47.87067768750001,52.0,83.0
169,47.80171218750001,47.89366618750001,59.0,83.0
170,47.80171218750001,47.90228687500001,55.0,87.0
171,47.80171218750001,47.93102250000001,64.0,84.0
172,47.112057187500014,47.95113743750001,40.0,86.0
173,48.14653968750001,48.39222928125001,52.0,84.0
174,48.14653968750001,48.44682696875001,55.0,85.0
175,48.14653968750001,48.47268903125001,59.0,84.0
176,48.83619468750001,48.962631437500015,59.0,74.0
177,48.83619468750001,48.99280384375001,62.0,74.0
178,49.18102218750001,49.24998768750001,59.0,83.0
179,49.18102218750001,49.25429803125001,62.0,81.0
180,49.18102218750001,49.28159687500001,66.0,83.0
181,48.49136718750001,49.59768875000001,47.0,83.0
182,49.870677187500014,50.116366781250015,59.0,74.0
183,49.870677187500014,50.15947021875001,62.0,79.0
184,50.215504687500015,50.36205637500001,59.0,75.0
185,50.56033218750001,50.870676937500015,59.0,86.0
186,50.56033218750001,50.89653900000001,62.0,88.0
187,50.56033218750001,50.90372290625001,66.0,85.0
188,49.870677187500014,50.966941281250016,47.0,83.0
189,50.90515968750001,51.018665406250015,54.0,71.0
190,51.59481468750001,51.80745831250001,52.0,83.0
191,51.59481468750001,51.826136468750015,55.0,77.0
192,51.93964218750001,52.01866515625001,52.0,83.0
193,51.93964218750001,52.024412281250015,55.0,83.0
194,51.93964218750001,52.024412281250015,64.0,88.0
195,51.24998718750001,52.43964206250001,40.0,85.0
196,52.629297187500015,53.09050396875001,52.0,77.0
197,52.974124687500016,53.136480968750014,59.0,77.0
198,52.629297187500015,53.14797521875001,55.0,72.0
199,53.31895218750001,53.387917687500014,52.0,83.0
200,53.31895218750001,53.41090618750001,59.0,83.0
201,53.31895218750001,53.41952687500001,55.0,87.0
202,53.31895218750001,53.44826250000001,64.0,84.0
203,52.629297187500015,53.46837743750001,40.0,86.0
204,53.66377968750001,53.90946928125001,52.0,84.0
205,53.66377968750001,53.96406696875001,55.0,85.0
206,53.66377968750001,53.989929031250014,59.0,84.0
207,54.35343468750001,54.479871437500016,59.0,74.0
208,54.35343468750001,54.51004384375001,63.0,74.0
209,54.69826218750001,54.76722768750001,59.0,83.0
210,54.69826218750001,54.77153803125001,63.0,81.0
211,54.69826218750001,54.79883687500001,66.0,83.0
212,54.00860718750001,55.11492875000001,47.0,83.0
213,55.387917187500015,55.633606781250016,59.0,74.0
214,55.387917187500015,55.67671021875001,63.0,79.0
215,55.732744687500016,55.87929637500001,59.0,75.0
216,56.07757218750001,56.387916937500016,59.0,86.0
217,56.07757218750001,56.41377900000001,63.0,88.0
218,56.07757218750001,56.42096290625001,66.0,85.0
219,55.387917187500015,56.48418128125002,47.0,83.0
220,56.42239968750001,56.535905406250016,54.0,71.0
221,56.76722718750001,56.994238625000015,60.0,80.0
222,56.76722718750001,57.002859312500014,64.0,83.0
223,57.11205468750001,57.26147993750001,64.0,83.0
224,57.11205468750001,57.28734200000002,60.0,75.0
225,57.456882187500014,57.52872125000001,64.0,84.0
226,57.456882187500014,57.53590515625002,67.0,83.0
227,57.456882187500014,57.550272968750015,60.0,83.0
228,57.801709687500015,57.88935334375002,64.0,80.0
229,57.801709687500015,57.899410812500015,60.0,75.0
230,58.146537187500016,58.38647965625001,60.0,71.0
231,58.146537187500016,58.413778500000014,64.0,78.0
232,58.49136468750002,58.67814625000001,60.0,87.0
233,58.146537187500016,58.959755375000015,55.0,64.0
234,58.83619218750001,58.959755375000015,60.0,83.0
235,56.76722718750001,58.98992778125002,48.0,86.0
236,58.83619218750001,59.050272593750016,64.0,84.0
237,58.83619218750001,59.23418059375001,67.0,83.0
238,59.18101968750001,59.29739896875002,60.0,81.0
239,59.52584718750001,59.72555978125001,62.0,75.0
240,59.52584718750001,59.915214906250014,66.0,78.0
241,59.87067468750001,59.99280109375002,62.0,77.0
242,60.215502187500014,60.28590446875001,62.0,79.0
243,60.215502187500014,60.308892968750015,66.0,83.0
244,60.215502187500014,60.560329687500015,69.0,84.0
245,59.52584718750001,60.758605500000016,50.0,85.0
246,60.905157187500016,61.09481231250002,62.0,64.0
247,60.905157187500016,61.116364031250015,66.0,70.0
248,61.24998468750002,61.38504212500001,62.0,71.0
249,61.24998468750002,61.39078925000001,66.0,72.0
250,61.59481218750001,61.73274318750001,62.0,82.0
251,60.905157187500016,61.78734087500001,50.0,85.0
252,61.59481218750001,61.79883512500002,66.0,83.0
253,61.59481218750001,61.824697187500014,69.0,83.0
254,61.93963968750001,61.98705346875001,66.0,60.0
255,61.93963968750001,62.10343275000002,62.0,77.0
256,62.629294687500014,62.80027165625002,59.0,72.0
257,62.629294687500014,62.80170843750002,64.0,77.0
258,62.974122187500015,63.04165090625001,64.0,85.0
259,62.974122187500015,63.05889228125002,59.0,83.0
260,62.974122187500015,63.071823312500015,67.0,83.0
261,63.318949687500016,63.383604843750014,64.0,79.0
262,63.318949687500016,63.40371978125002,59.0,74.0
263,62.28446718750001,63.534466875000014,40.0,85.0
264,63.66377718750002,63.91808746875002,59.0,73.0
265,63.66377718750002,63.987052968750014,64.0,81.0
266,64.00860468750001,64.14509890625001,59.0,76.0
267,64.35343218750002,64.49998387500001,59.0,85.0
268,64.35343218750002,64.54452409375001,64.0,89.0
269,63.66377718750002,64.57038615625001,40.0,83.0
270,64.35343218750002,64.58188040625002,67.0,87.0
271,64.69825968750001,64.88073090625002,59.0,81.0
272,65.04308718750002,65.17958140625001,59.0,72.0
273,65.04308718750002,65.22412162500001,64.0,77.0
274,65.38791468750001,65.55601809375001,59.0,71.0
275,65.73274218750002,65.85774215625001,59.0,74.0
276,65.73274218750002,65.88504100000002,67.0,78.0
277,66.42239718750001,66.60774196875002,59.0,76.0
278,66.42239718750001,66.61205231250001,64.0,78.0
279,67.11205218750001,67.26291421875001,59.0,89.0
280,67.11205218750001,67.36348890625001,64.0,90.0
281,65.04308718750002,67.46550037500002,40.0,84.0
282,67.45687968750002,67.54883368750002,64.0,44.0
283,67.45687968750002,67.68245434375001,59.0,84.0
284,67.80170718750001,68.06463815625001,59.0,83.0
285,67.80170718750001,68.07182206250002,64.0,84.0
286,68.14653468750002,68.40802887500001,64.0,83.0
287,68.14653468750002,68.41664956250001,59.0,78.0
288,67.80170718750001,68.50573000000001,40.0,83.0
289,67.80170718750001,68.52153459375002,52.0,83.0
290,68.49136218750002,68.62785640625002,59.0,84.0
291,68.49136218750002,68.63216675000001,64.0,88.0
292,68.49136218750002,68.65228168750002,67.0,82.0
293,68.83618968750001,69.00285631250001,64.0,76.0
294,68.83618968750001,69.00285631250001,67.0,75.0
295,68.83618968750001,69.01147700000001,59.0,74.0
296,69.18101718750002,69.46406309375001,64.0,83.0
297,69.18101718750002,69.47124700000002,59.0,77.0
298,69.18101718750002,69.48274125000002,67.0,78.0
299,69.52584468750001,69.61492512500001,67.0,73.0
300,69.52584468750001,69.77728140625001,59.0,76.0
301,69.52584468750001,69.78159175000002,64.0,83.0
302,69.18101718750002,69.85343081250002,52.0,84.0
303,69.18101718750002,69.86061471875001,40.0,84.0
304,69.87067218750002,70.01003996875002,59.0,84.0
305,69.87067218750002,70.01147675000001,64.0,89.0
306,69.87067218750002,70.01147675000001,67.0,86.0
307,70.21549968750001,70.33475253125002,67.0,76.0
308,70.21549968750001,70.33906287500001,64.0,82.0
309,70.21549968750001,70.34337321875002,59.0,77.0
310,70.21549968750001,70.52584443750001,45.0,84.0
311,70.21549968750001,70.56751109375001,57.0,81.0
312,70.56032718750002,70.80314321875002,59.0,72.0
313,70.56032718750002,70.81463746875002,62.0,76.0
314,70.90515468750002,71.11348796875002,59.0,71.0
315,70.90515468750002,71.14940750000002,62.0,74.0
316,70.56032718750002,71.35343043750002,47.0,83.0
317,71.24998218750002,71.37785571875001,59.0,82.0
318,71.24998218750002,71.38072928125001,62.0,84.0
319,71.24998218750002,71.38647640625001,66.0,82.0
320,71.59480968750002,71.71406253125002,59.0,65.0
321,71.59480968750002,71.72124643750001,62.0,74.0
322,71.93963718750001,72.21693596875002,59.0,75.0
323,71.93963718750001,72.21693596875002,59.0,81.0
324,71.93963718750001,72.21980953125002,62.0,77.0
325,72.28446468750002,72.54595887500001,59.0,74.0
326,72.28446468750002,72.54595887500001,62.0,78.0
327,71.93963718750001,72.70256803125002,47.0,86.0
328,72.62929218750001,72.73274043750001,59.0,84.0
329,72.62929218750001,72.80026915625001,62.0,88.0
330,72.62929218750001,72.80170593750002,66.0,86.0
331,72.97411968750002,73.12067137500001,66.0,69.0
332,72.97411968750002,73.12498171875002,59.0,71.0
333,72.97411968750002,73.12498171875002,62.0,73.0
334,73.31894718750002,73.54308506250001,67.0,70.0
335,73.31894718750002,73.54595862500001,64.0,75.0
336,73.31894718750002,73.54883218750001,59.0,71.0
337,73.66377468750002,73.87354475000002,67.0,73.0
338,73.66377468750002,73.89940681250002,64.0,82.0
339,73.66377468750002,73.90371715625001,59.0,74.0
340,73.31894718750002,74.06463665625002,52.0,83.0
341,73.31894718750002,74.08187803125001,40.0,81.0
342,74.00860218750002,74.12929181250001,64.0,86.0
343,74.00860218750002,74.13647571875002,59.0,84.0
344,74.00860218750002,74.13934928125002,67.0,84.0
345,74.35342968750001,74.46118828125002,67.0,69.0
346,74.35342968750001,74.46549862500002,64.0,54.0
347,74.35342968750001,74.47411931250002,59.0,67.0
348,74.69825718750002,74.96262493750002,64.0,84.0
349,74.69825718750002,74.96549850000002,67.0,78.0
350,74.69825718750002,74.96980884375002,59.0,78.0
351,75.04308468750001,75.23561337500001,67.0,74.0
352,75.04308468750001,75.27440646875002,64.0,81.0
353,75.04308468750001,75.28159037500002,59.0,77.0
354,74.69825718750002,75.42670528125002,52.0,84.0
355,74.69825718750002,75.45831446875002,40.0,87.0
356,75.38791218750002,75.51578571875002,64.0,87.0
357,75.38791218750002,75.51865928125002,59.0,84.0
358,75.38791218750002,75.52009606250002,67.0,84.0
359,75.73273968750001,75.83906150000001,67.0,72.0
360,75.73273968750001,75.84049828125002,64.0,77.0
361,75.73273968750001,75.86348678125002,59.0,72.0
362,75.73273968750001,75.99423387500002,57.0,76.0
363,75.73273968750001,75.99998100000002,45.0,82.0
364,76.07756718750002,76.34768206250001,59.0,66.0
365,76.07756718750002,76.34911884375002,66.0,66.0
366,76.07756718750002,76.37067056250002,62.0,65.0
367,76.42239468750002,76.58331418750002,59.0,75.0
368,76.42239468750002,76.58618775000002,66.0,74.0
369,76.42239468750002,76.61204981250002,62.0,71.0
370,76.07756718750002,76.77009575000002,47.0,83.0
371,76.76722218750002,76.89509571875001,59.0,83.0
372,76.76722218750002,76.89796928125001,66.0,88.0
373,76.76722218750002,76.91521065625003,62.0,85.0
374,77.11204968750002,77.23561287500002,59.0,71.0
375,77.11204968750002,77.24279678125002,66.0,67.0
376,77.11204968750002,77.25860137500001,62.0,70.0
377,77.45687718750001,77.72842884375002,59.0,72.0
378,77.45687718750001,77.74423343750001,66.0,76.0
379,77.45687718750001,77.74567021875002,62.0,76.0
380,77.80170468750002,78.02009543750002,59.0,74.0
381,77.80170468750002,78.03733681250002,66.0,77.0
382,77.80170468750002,78.04164715625002,62.0,77.0
383,78.14653218750001,78.25716434375002,59.0,82.0
384,78.14653218750001,78.26434825000001,62.0,83.0
385,78.14653218750001,78.26865859375002,66.0,80.0
386,77.45687718750001,78.38360109375002,47.0,81.0
387,78.49135968750002,78.60917575000002,59.0,75.0
388,78.49135968750002,78.61923321875003,62.0,75.0
389,78.49135968750002,78.63072746875002,66.0,77.0
390,78.83618718750002,79.08762390625002,64.0,85.0
391,78.83618718750002,79.09049746875002,60.0,78.0
392,78.83618718750002,79.09624459375001,67.0,82.0
393,79.18101468750002,79.31032500000002,67.0,74.0
394,79.18101468750002,79.34480775000002,64.0,79.0
395,79.18101468750002,79.35917556250001,60.0,73.0
396,78.83618718750002,79.60917550000002,48.0,84.0
397,79.52584218750002,79.66952031250001,60.0,87.0
398,79.52584218750002,79.67957778125002,64.0,94.0
399,79.52584218750002,79.68819846875002,67.0,89.0
400,79.87066968750001,79.99854321875002,60.0,67.0
401,79.87066968750001,80.03589953125002,64.0,74.0
402,80.21549718750002,80.49279596875002,60.0,84.0
403,80.21549718750002,80.51434768750002,64.0,85.0
404,80.56032468750001,80.69969246875002,60.0,78.0
405,80.56032468750001,80.70687637500002,67.0,77.0
406,80.56032468750001,80.71118671875001,64.0,75.0
407,80.90515218750002,81.04451996875002,64.0,92.0
408,80.90515218750002,81.05745100000001,60.0,86.0
409,80.90515218750002,81.06463490625002,67.0,86.0
410,80.21549718750002,81.07181881250001,48.0,84.0
411,81.24997968750002,81.40371528125002,67.0,73.0
412,81.24997968750002,81.40515206250002,64.0,78.0
413,81.24997968750002,81.43245090625003,60.0,76.0
414,81.24997968750002,81.52153134375001,48.0,84.0
415,81.59480718750002,81.81319793750002,59.0,74.0
416,81.59480718750002,81.83474965625003,62.0,75.0
417,81.93963468750002,82.07469212500001,59.0,71.0
418,81.93963468750002,82.09911740625002,62.0,77.0
419,81.59480718750002,82.40227825000002,47.0,83.0
420,82.28446218750003,82.42670353125001,59.0,80.0
421,82.28446218750003,82.44107134375002,62.0,82.0
422,82.28446218750003,82.44107134375002,66.0,84.0
423,82.62928968750002,82.78015171875002,59.0,76.0
424,82.62928968750002,82.79882987500002,62.0,78.0
425,82.62928968750002,82.81176090625002,66.0,77.0
426,82.97411718750001,83.25141596875002,64.0,88.0
427,82.97411718750001,83.25572631250002,60.0,84.0
428,82.97411718750001,83.36204812500002,36.0,76.0
429,82.97411718750001,83.37210559375002,48.0,83.0
430,83.31894468750002,83.49710556250002,60.0,79.0
431,83.31894468750002,83.55745037500002,64.0,84.0
432,83.66377218750002,83.93819740625003,66.0,88.0
433,83.66377218750002,83.94538131250002,62.0,82.0
434,83.66377218750002,84.14078356250002,50.0,79.0
435,83.66377218750002,84.15515137500002,38.0,78.0
436,84.00859968750002,84.20256515625002,62.0,83.0
437,84.00859968750002,84.21405940625002,66.0,84.0
438,84.35342718750002,84.60630068750002,67.0,85.0
439,84.35342718750002,84.61061103125002,64.0,85.0
440,84.35342718750002,84.63934665625003,71.0,81.0
441,84.69825468750003,84.81463396875002,64.0,74.0
442,84.69825468750003,84.82756500000002,67.0,78.0
443,84.69825468750003,84.83474890625001,71.0,72.0
444,84.35342718750002,85.06607068750002,52.0,83.0
445,84.35342718750002,85.12354193750002,40.0,81.0
446,85.04308218750002,85.16233503125002,64.0,90.0
447,85.04308218750002,85.17382928125002,67.0,88.0
448,85.04308218750002,85.18388675000001,71.0,94.0
449,85.38790968750003,85.51003609375002,67.0,72.0
450,85.38790968750003,85.51290965625002,64.0,76.0
451,85.38790968750003,85.51722000000002,71.0,75.0
452,85.73273718750002,85.96118540625002,64.0,81.0
453,85.73273718750002,85.97411643750002,67.0,77.0
454,85.73273718750002,85.98130034375002,72.0,83.0
455,86.07756468750001,86.23704740625001,67.0,80.0
456,86.07756468750001,86.24423131250002,64.0,81.0
457,86.07756468750001,86.24997843750002,72.0,82.0
458,86.42239218750002,86.57181743750002,64.0,82.0
459,86.42239218750002,86.57756456250002,67.0,77.0
460,86.42239218750002,86.59911628125002,72.0,83.0
461,85.73273718750002,86.64365650000002,48.0,80.0
462,85.73273718750002,86.72698981250002,36.0,75.0
463,86.76721968750002,86.88647253125002,67.0,69.0
464,86.76721968750002,86.91089781250002,64.0,77.0
465,86.76721968750002,86.93675987500002,72.0,79.0
466,87.11204718750002,87.34480575000002,66.0,71.0
467,87.11204718750002,87.34767931250002,62.0,75.0
468,87.11204718750002,87.36204712500002,71.0,80.0
469,87.45687468750002,87.58762178125002,62.0,73.0
470,87.45687468750002,87.59193212500001,71.0,79.0
471,87.45687468750002,87.59336890625002,66.0,75.0
472,87.11204718750002,87.91520790625002,47.0,79.0
473,87.80170218750003,87.95112743750002,62.0,79.0
474,87.80170218750003,87.95400100000002,66.0,78.0
475,87.11204718750002,87.96118490625003,59.0,77.0
476,87.80170218750003,87.97124237500002,71.0,84.0
477,88.14652968750002,88.30313884375002,62.0,77.0
478,88.14652968750002,88.30601240625002,66.0,79.0
479,88.14652968750002,88.33043768750002,71.0,80.0
480,88.14652968750002,88.44681696875003,38.0,77.0
481,88.14652968750002,88.49423075000001,50.0,83.0
482,88.49135718750001,88.73129965625002,64.0,82.0
483,88.49135718750001,88.73273643750002,67.0,83.0
484,88.49135718750001,88.73992034375001,71.0,83.0
485,88.49135718750001,88.88790881250002,40.0,84.0
486,88.49135718750001,88.91808121875002,52.0,79.0
487,88.83618468750002,88.98273637500002,71.0,79.0
488,88.83618468750002,88.98560993750002,64.0,77.0
489,88.83618468750002,88.98560993750002,67.0,75.0
490,89.18101218750002,89.31175928125002,64.0,84.0
491,89.18101218750002,89.31463284375002,67.0,82.0
492,89.18101218750002,89.32469031250002,71.0,84.0
493,89.18101218750002,89.40802362500003,47.0,77.0
494,89.18101218750002,89.44825350000002,59.0,78.0
495,89.52583968750002,89.70256378125002,64.0,83.0
496,89.52583968750002,89.70974768750003,67.0,82.0
497,89.52583968750002,89.71836837500003,71.0,84.0
498,89.52583968750002,89.73417296875002,50.0,84.0
499,89.52583968750002,89.77009250000002,62.0,74.0
500,89.87066718750002,90.13359815625002,59.0,83.0
501,89.87066718750002,90.14078206250002,64.0,84.0
502,90.21549468750003,90.47698887500002,64.0,83.0
503,90.21549468750003,90.48560956250002,59.0,78.0
504,89.87066718750002,90.57469000000002,40.0,83.0
505,89.87066718750002,90.59049459375002,52.0,83.0
506,90.56032218750002,90.69681640625002,59.0,84.0
507,90.56032218750002,90.70112675000001,64.0,88.0
508,90.56032218750002,90.72124168750003,67.0,82.0
509,90.90514968750003,91.07181631250002,64.0,76.0
510,90.90514968750003,91.07181631250002,67.0,75.0
511,90.90514968750003,91.08043700000002,59.0,74.0
512,91.24997718750002,91.53302309375002,64.0,83.0
513,91.24997718750002,91.54020700000002,59.0,77.0
514,91.24997718750002,91.55170125000002,67.0,78.0
515,91.59480468750002,91.68388512500002,67.0,73.0
516,91.59480468750002,91.84624140625002,59.0,76.0
517,91.59480468750002,91.85055175000002,64.0,83.0
518,91.24997718750002,91.92239081250003,52.0,84.0
519,91.24997718750002,91.92957471875002,40.0,84.0
520,91.93963218750002,92.07899996875003,59.0,84.0
521,91.93963218750002,92.08043675000002,64.0,89.0
522,91.93963218750002,92.08043675000002,67.0,86.0
523,92.28445968750002,92.40371253125002,67.0,76.0
524,92.28445968750002,92.40802287500003,64.0,82.0
525,92.28445968750002,92.41233321875002,59.0,77.0
526,92.28445968750002,92.59480443750002,45.0,84.0
527,92.28445968750002,92.63647109375002,57.0,81.0
528,92.62928718750003,92.87210321875003,59.0,72.0
529,92.62928718750003,92.88359746875003,62.0,76.0
530,92.97411468750002,93.18244796875003,59.0,71.0
531,92.97411468750002,93.21836750000003,62.0,74.0
532,92.62928718750003,93.42239043750003,47.0,83.0
533,93.31894218750003,93.44681571875002,59.0,82.0
534,93.31894218750003,93.44968928125002,62.0,84.0
535,93.31894218750003,93.45543640625002,66.0,82.0
536,93.66376968750002,93.78302253125003,59.0,65.0
537,93.66376968750002,93.79020643750002,62.0,74.0
538,94.00859718750002,94.28589596875003,59.0,75.0
539,94.00859718750002,94.28589596875003,59.0,81.0
540,94.00859718750002,94.28876953125003,62.0,77.0
541,94.35342468750002,94.61491887500003,59.0,74.0
542,94.35342468750002,94.61491887500003,62.0,78.0
543,94.00859718750002,94.77152803125003,47.0,86.0
544,94.69825218750002,94.80170043750002,59.0,84.0
545,94.69825218750002,94.86922915625003,62.0,88.0
546,94.69825218750002,94.87066593750002,66.0,86.0
547,95.04307968750003,95.18963137500002,66.0,69.0
548,95.04307968750003,95.19394171875003,59.0,71.0
549,95.04307968750003,95.19394171875003,62.0,73.0
550,95.38790718750002,95.61204506250002,67.0,70.0
551,95.38790718750002,95.61491862500002,64.0,75.0
552,95.38790718750002,95.61779218750003,59.0,71.0
553,95.73273468750003,95.94250475000003,67.0,73.0
554,95.73273468750003,95.96836681250002,64.0,82.0
555,95.73273468750003,95.97267715625003,59.0,74.0
556,95.38790718750002,96.13359665625002,52.0,83.0
557,95.38790718750002,96.15083803125002,40.0,81.0
558,96.07756218750002,96.19825181250002,64.0,86.0
559,96.07756218750002,96.20543571875002,59.0,84.0
560,96.07756218750002,96.20830928125002,67.0,84.0
561,96.42238968750003,96.53014828125002,67.0,69.0
562,96.42238968750003,96.53445862500003,64.0,54.0
563,96.42238968750003,96.54307931250003,59.0,67.0
564,96.76721718750002,97.03158493750003,64.0,84.0
565,96.76721718750002,97.03445850000003,67.0,78.0
566,96.76721718750002,97.03876884375002,59.0,78.0
567,97.11204468750002,97.30457337500002,67.0,74.0
568,97.11204468750002,97.34336646875002,64.0,81.0
569,97.11204468750002,97.35055037500003,59.0,77.0
570,96.76721718750002,97.49566528125003,52.0,84.0
571,96.76721718750002,97.52727446875002,40.0,87.0
572,97.45687218750003,97.58474571875003,64.0,87.0
573,97.45687218750003,97.58761928125003,59.0,84.0
574,97.45687218750003,97.58905606250002,67.0,84.0
575,97.80169968750002,97.90802150000002,67.0,72.0
576,97.80169968750002,97.90945828125002,64.0,77.0
577,97.80169968750002,97.93244678125002,59.0,72.0
578,97.80169968750002,98.06319387500002,57.0,76.0
579,97.80169968750002,98.06894100000002,45.0,82.0
580,98.14652718750003,98.41664206250002,59.0,66.0
581,98.14652718750003,98.41807884375002,66.0,66.0
582,98.14652718750003,98.43963056250003,62.0,65.0
583,98.49135468750002,98.65227418750003,59.0,75.0
584,98.49135468750002,98.65514775000003,66.0,74.0
585,98.49135468750002,98.68100981250002,62.0,71.0
586,98.14652718750003,98.83905575000003,47.0,83.0
587,98.83618218750003,98.96405571875002,59.0,83.0
588,98.83618218750003,98.96692928125002,66.0,88.0
589,98.83618218750003,98.98417065625003,62.0,85.0
590,99.18100968750002,99.30457287500002,59.0,71.0
591,99.18100968750002,99.31175678125003,66.0,67.0
592,99.18100968750002,99.32756137500003,62.0,70.0
593,99.52583718750003,99.79738884375003,59.0,72.0
594,99.52583718750003,99.81319343750002,66.0,76.0
595,99.52583718750003,99.81463021875003,62.0,76.0
596,99.87066468750002,100.08905543750002,59.0,74.0
597,99.87066468750002,100.10629681250002,66.0,77.0
598,99.87066468750002,100.11060715625003,62.0,77.0
599,100.21549218750002,100.32612434375002,59.0,82.0
600,100.21549218750002,100.33330825000003,62.0,83.0
601,100.21549218750002,100.33761859375002,66.0,80.0
602,99.52583718750003,100.45256109375002,47.0,81.0
603,100.56031968750003,100.67813575000002,59.0,75.0
604,100.56031968750003,100.68819321875003,62.0,75.0
605,100.56031968750003,100.69968746875003,66.0,77.0
606,100.90514718750002,101.15658390625002,64.0,85.0
607,100.90514718750002,101.15945746875002,60.0,78.0
608,100.90514718750002,101.16520459375002,67.0,82.0
609,101.24997468750003,101.37928500000002,67.0,74.0
610,101.24997468750003,101.41376775000002,64.0,79.0
611,101.24997468750003,101.42813556250002,60.0,73.0
612,100.90514718750002,101.67813550000002,48.0,84.0
613,101.59480218750002,101.73848031250003,60.0,87.0
614,101.59480218750002,101.74853778125002,64.0,94.0
615,101.59480218750002,101.75715846875002,67.0,89.0
616,101.93962968750003,102.06750321875002,60.0,67.0
617,101.93962968750003,102.10485953125003,64.0,74.0
618,102.28445718750002,102.56175596875002,60.0,84.0
619,102.28445718750002,102.58330768750002,64.0,85.0
620,102.62928468750002,102.76865246875002,60.0,78.0
621,102.62928468750002,102.77583637500003,67.0,77.0
622,102.62928468750002,102.78014671875002,64.0,75.0
623,102.97411218750003,103.11347996875003,64.0,92.0
624,102.97411218750003,103.12641100000002,60.0,86.0
625,102.97411218750003,103.13359490625002,67.0,86.0
626,102.28445718750002,103.14077881250003,48.0,84.0
627,103.31893968750002,103.47267528125002,67.0,73.0
628,103.31893968750002,103.47411206250003,64.0,78.0
629,103.31893968750002,103.50141090625003,60.0,76.0
630,103.31893968750002,103.59049134375003,48.0,84.0
631,103.66376718750003,103.88215793750003,59.0,74.0
632,103.66376718750003,103.90370965625003,62.0,75.0
633,104.00859468750002,104.14365212500003,59.0,71.0
634,104.00859468750002,104.16807740625002,62.0,77.0
635,103.66376718750003,104.47123825000003,47.0,83.0
636,104.35342218750003,104.49566353125003,59.0,80.0
637,104.35342218750003,104.51003134375003,62.0,82.0
638,104.35342218750003,104.51003134375003,66.0,84.0
639,104.69824968750002,104.84911171875002,59.0,76.0
640,104.69824968750002,104.86778987500003,62.0,78.0
641,104.69824968750002,104.88072090625002,66.0,77.0
642,105.04307718750003,105.32037596875003,64.0,88.0
643,105.04307718750003,105.32468631250002,60.0,84.0
644,105.04307718750003,105.43100812500002,36.0,76.0
645,105.04307718750003,105.44106559375003,48.0,83.0
646,105.38790468750003,105.56606556250003,60.0,79.0
647,105.38790468750003,105.62641037500002,64.0,84.0
648,105.73273218750002,106.00715740625003,66.0,88.0
649,105.73273218750002,106.01434131250002,62.0,82.0
650,105.73273218750002,106.20974356250002,50.0,79.0
651,105.73273218750002,106.22411137500002,38.0,78.0
652,106.07755968750003,106.27152515625002,62.0,83.0
653,106.07755968750003,106.28301940625002,66.0,84.0
654,106.42238718750002,106.67526068750003,67.0,85.0
655,106.42238718750002,106.67957103125002,64.0,85.0
656,106.42238718750002,106.70830665625003,71.0,81.0
657,106.76721468750003,106.88359396875002,64.0,74.0
658,106.76721468750003,106.89652500000003,67.0,78.0
659,106.76721468750003,106.90370890625003,71.0,72.0
660,106.42238718750002,107.13503068750002,52.0,83.0
661,106.42238718750002,107.19250193750003,40.0,81.0
662,107.11204218750002,107.23129503125003,64.0,90.0
663,107.11204218750002,107.24278928125003,67.0,88.0
664,107.11204218750002,107.25284675000003,71.0,94.0
665,107.45686968750003,107.57899609375002,67.0,72.0
666,107.45686968750003,107.58186965625002,64.0,76.0
667,107.45686968750003,107.58618000000003,71.0,75.0
668,107.80169718750003,108.03014540625003,64.0,81.0
669,107.80169718750003,108.04307643750002,67.0,77.0
670,107.80169718750003,108.05026034375003,72.0,83.0
671,108.14652468750002,108.30600740625003,67.0,80.0
672,108.14652468750002,108.31319131250002,64.0,81.0
673,108.14652468750002,108.31893843750002,72.0,82.0
674,108.49135218750003,108.64077743750002,64.0,82.0
675,108.49135218750003,108.64652456250002,67.0,77.0
676,108.49135218750003,108.66807628125002,72.0,83.0
677,107.80169718750003,108.71261650000002,48.0,80.0
678,107.80169718750003,108.79594981250003,36.0,75.0
679,108.83617968750002,108.95543253125003,67.0,69.0
680,108.83617968750002,108.97985781250003,64.0,77.0
681,108.83617968750002,109.00571987500003,72.0,79.0
682,109.18100718750003,109.41376575000002,66.0,71.0
683,109.18100718750003,109.41663931250002,62.0,75.0
684,109.18100718750003,109.43100712500002,71.0,80.0
685,109.52583468750002,109.65658178125003,62.0,73.0
686,109.52583468750002,109.66089212500003,71.0,79.0
687,109.52583468750002,109.66232890625002,66.0,75.0
688,109.18100718750003,109.98416790625002,47.0,79.0
689,109.87066218750003,110.02008743750002,62.0,79.0
690,109.87066218750003,110.02296100000002,66.0,78.0
691,109.18100718750003,110.03014490625003,59.0,77.0
692,109.87066218750003,110.04020237500002,71.0,84.0
693,110.21548968750002,110.37209884375002,62.0,77.0
694,110.21548968750002,110.37497240625002,66.0,79.0
695,110.21548968750002,110.39939768750003,71.0,80.0
696,110.21548968750002,110.51577696875003,38.0,77.0
697,110.21548968750002,110.56319075000003,50.0,83.0
698,110.56031718750003,110.80025965625002,64.0,82.0
699,110.56031718750003,110.80169643750003,67.0,83.0
700,110.56031718750003,110.80888034375003,71.0,83.0
701,110.56031718750003,110.95686881250002,40.0,84.0
702,110.56031718750003,110.98704121875002,52.0,79.0
703,110.90514468750003,111.05169637500002,71.0,79.0
704,110.90514468750003,111.05456993750002,64.0,77.0
705,110.90514468750003,111.05456993750002,67.0,75.0
706,111.24997218750002,111.38071928125002,64.0,84.0
707,111.24997218750002,111.38359284375002,67.0,82.0
708,111.24997218750002,111.39365031250003,71.0,84.0
709,111.24997218750002,111.47698362500003,47.0,77.0
710,111.24997218750002,111.51721350000003,59.0,78.0
711,111.59479968750003,111.77152378125002,64.0,83.0
712,111.59479968750003,111.77870768750003,67.0,82.0
713,111.59479968750003,111.78732837500003,71.0,84.0
714,111.59479968750003,111.80313296875002,50.0,84.0
715,111.59479968750003,111.83905250000002,62.0,74.0
716,111.93962718750002,112.04163865625003,36.0,82.0
717,111.93962718750002,112.23273056250002,48.0,74.0
718,111.93962718750002,112.25571906250002,52.0,83.0
719,112.97410968750003,113.17094871875003,60.0,85.0
720,112.62928218750002,113.52008656250003,55.0,81.0
721,113.49135093750003,113.52008656250003,55.0,72.0
722,113.31893718750003,113.87353475000003,67.0,84.0
723,113.31893718750003,113.88215543750003,64.0,85.0
724,113.31893718750003,113.90801750000003,60.0,83.0
725,112.28445468750003,114.03158068750002,48.0,85.0
726,114.00859218750003,114.10054618750003,64.0,83.0
727,114.00859218750003,114.12640825000003,60.0,81.0
728,114.69824718750003,115.09336203125002,50.0,83.0
729,114.69824718750003,115.40945390625002,54.0,83.0
730,114.69824718750003,115.45112056250002,57.0,82.0
731,115.04307468750002,115.54594812500002,45.0,72.0
732,115.38790218750003,115.56031593750002,50.0,87.0
733,114.69824718750003,115.57324696875003,38.0,88.0
734,116.07755718750003,116.36060309375003,36.0,81.0
735,116.07755718750003,116.41376400000003,55.0,87.0
736,116.07755718750003,116.79163746875003,60.0,84.0
737,116.76721218750002,117.21261437500003,38.0,88.0
738,116.76721218750002,117.55169475000002,62.0,80.0
739,116.76721218750002,117.56175221875003,57.0,79.0
740,118.49134968750003,118.73129215625003,55.0,85.0
741,118.14652218750003,118.76146456250002,52.0,78.0
742,117.80169468750003,119.00571737500003,47.0,82.0
743,118.83617718750003,119.25571731250002,55.0,90.0
744,118.83617718750003,119.27439546875003,59.0,87.0
745,118.83617718750003,119.40945290625002,52.0,84.0
746,117.45686718750002,119.54020000000003,40.0,89.0
747,119.18100468750004,119.54020000000003,47.0,78.0
748,119.52583218750003,119.62065975000003,55.0,86.0
749,119.52583218750003,119.62497009375002,59.0,85.0
750,119.52583218750003,119.71117696875002,64.0,86.0
751,120.21548718750003,120.67238362500002,59.0,83.0
752,120.21548718750003,120.78014221875003,62.0,80.0
753,121.24996968750003,121.45399262500003,62.0,83.0
754,120.90514218750003,121.48560181250002,66.0,83.0
755,120.56031468750002,121.76146381250003,54.0,74.0
756,121.59479718750003,121.96404996875003,66.0,75.0
757,121.59479718750003,121.99134881250004,71.0,84.0
758,121.59479718750003,122.08473959375003,59.0,80.0
759,121.59479718750003,122.09910740625003,62.0,84.0
760,121.93962468750003,122.22554415625002,54.0,71.0
761,120.21548718750003,122.32324528125002,47.0,85.0
762,122.28445218750002,122.39939468750003,62.0,86.0
763,122.28445218750002,122.42525675000003,59.0,84.0
764,122.97410718750002,123.07611865625003,36.0,82.0
765,122.97410718750002,123.26721056250003,48.0,74.0
766,122.97410718750002,123.29019906250002,52.0,83.0
767,124.00858968750003,124.20542871875003,60.0,85.0
768,123.66376218750003,124.55456656250003,55.0,81.0
769,124.52583093750003,124.55456656250003,55.0,72.0
770,124.35341718750003,124.90801475000004,67.0,84.0
771,124.35341718750003,124.91663543750003,64.0,85.0
772,124.35341718750003,124.94249750000003,60.0,83.0
773,123.31893468750003,125.06606068750003,48.0,85.0
774,125.04307218750003,125.13502618750003,64.0,83.0
775,125.04307218750003,125.16088825000003,60.0,81.0
776,125.73272718750003,126.12784203125003,50.0,83.0
777,125.73272718750003,126.44393390625002,54.0,83.0
778,125.73272718750003,126.48560056250003,57.0,82.0
779,126.07755468750003,126.58042812500003,45.0,72.0
780,126.42238218750003,126.59479593750002,50.0,87.0
781,125.73272718750003,126.60772696875003,38.0,88.0
782,127.11203718750004,127.39508309375003,36.0,81.0
783,127.11203718750004,127.44824400000003,55.0,87.0
784,127.11203718750004,127.82611746875003,60.0,84.0
785,127.80169218750002,128.24709437500002,38.0,88.0
786,127.80169218750002,128.58617475000003,62.0,80.0
787,127.80169218750002,128.59623221875003,57.0,79.0
788,129.52582968750002,129.76577215625002,55.0,85.0
789,129.18100218750004,129.79594456250004,52.0,78.0
790,128.83617468750003,130.04019737500002,47.0,82.0
791,129.87065718750003,130.29019731250003,55.0,90.0
792,129.87065718750003,130.30887546875002,59.0,87.0
793,129.87065718750003,130.44393290625004,52.0,84.0
794,128.49134718750003,130.57468000000003,40.0,89.0
795,130.21548468750004,130.57468000000003,47.0,78.0
796,130.56031218750002,130.65513975000002,55.0,86.0
797,130.56031218750002,130.65945009375002,59.0,85.0
798,130.56031218750002,130.74565696875004,64.0,86.0
799,131.24996718750003,131.59048434375003,48.0,81.0
800,131.24996718750003,131.62496709375003,52.0,84.0
801,131.24996718750003,131.75715096875004,36.0,82.0
802,131.59479468750004,131.83042681250004,43.0,60.0
803,131.93962218750002,132.29738071875002,50.0,83.0
804,131.93962218750002,132.32324278125003,54.0,77.0
805,131.93962218750002,132.44824275000002,38.0,89.0
806,132.28444968750003,132.54450709375004,45.0,67.0
807,132.62927718750004,132.77151853125002,40.0,85.0
808,132.62927718750004,132.86059896875003,52.0,80.0
809,132.62927718750004,132.87784034375002,55.0,83.0
810,133.66375968750003,133.89220790625004,64.0,90.0
811,133.31893218750002,134.45829971875003,59.0,80.0
812,132.97410468750004,134.49565603125004,52.0,85.0
813,134.00858718750004,135.13933403125003,64.0,85.0
814,134.00858718750004,135.14364437500004,71.0,84.0
815,134.00858718750004,135.14508115625003,67.0,84.0
816,135.77439134375004,135.98703496875004,52.0,83.0
817,135.77439134375004,136.00571312500003,55.0,77.0
818,136.11921884375002,136.19824181250004,52.0,83.0
819,136.11921884375002,136.20398893750004,55.0,83.0
820,136.11921884375002,136.20398893750004,64.0,88.0
821,135.42956384375003,136.61921871875003,40.0,85.0
822,136.80887384375004,137.27008062500002,52.0,77.0
823,137.15370134375004,137.31605762500004,59.0,77.0
824,136.80887384375004,137.32898865625003,55.0,72.0
825,137.49852884375002,137.56749434375004,52.0,83.0
826,137.49852884375002,137.59048284375004,59.0,83.0
827,137.49852884375002,137.59910353125002,55.0,87.0
828,137.49852884375002,137.62783915625002,64.0,84.0
829,136.80887384375004,137.64795409375003,40.0,86.0
830,137.84335634375003,138.08904593750003,52.0,84.0
831,137.84335634375003,138.14364362500004,55.0,85.0
832,137.84335634375003,138.16950568750002,59.0,84.0
833,138.53301134375002,138.65944809375003,59.0,74.0
834,138.53301134375002,138.68962050000005,62.0,74.0
835,138.87783884375003,138.94680434375005,59.0,83.0
836,138.87783884375003,138.95111468750002,62.0,81.0
837,138.87783884375003,138.97841353125003,66.0,83.0
838,138.18818384375004,139.29594218750003,47.0,83.0
839,139.56749384375004,139.81318343750004,59.0,74.0
840,139.56749384375004,139.85628687500002,62.0,79.0
841,139.91232134375002,140.05887303125004,59.0,75.0
842,140.25714884375003,140.56749359375004,59.0,86.0
843,140.25714884375003,140.59335565625003,62.0,88.0
844,140.25714884375003,140.60053956250005,66.0,85.0
845,139.56749384375004,140.66375793750004,47.0,83.0
846,140.60197634375004,140.71691884375002,54.0,71.0
847,141.29163134375003,141.50427496875002,52.0,83.0
848,141.29163134375003,141.52295312500004,55.0,77.0
849,141.63645884375003,141.71548181250003,52.0,83.0
850,141.63645884375003,141.72122893750003,55.0,83.0
851,141.63645884375003,141.72122893750003,64.0,88.0
852,140.94680384375005,142.13645871875002,40.0,85.0
853,142.32611384375002,142.78732062500004,52.0,77.0
854,142.67094134375003,142.83329762500003,59.0,77.0
855,142.32611384375002,142.84622865625005,55.0,72.0
856,143.01576884375004,143.08473434375003,52.0,83.0
857,143.01576884375004,143.10772284375003,59.0,83.0
858,143.01576884375004,143.11634353125004,55.0,87.0
859,143.01576884375004,143.14507915625003,64.0,84.0
860,142.32611384375002,143.16519409375005,40.0,86.0
861,143.36059634375005,143.60628593750005,52.0,84.0
862,143.36059634375005,143.66088362500003,55.0,85.0
863,143.36059634375005,143.68674568750004,59.0,84.0
864,144.05025134375003,144.17668809375004,59.0,74.0
865,144.05025134375003,144.20686050000003,63.0,74.0
866,144.39507884375004,144.46404434375003,59.0,83.0
867,144.39507884375004,144.46835468750004,63.0,81.0
868,144.39507884375004,144.49565353125004,66.0,83.0
869,143.70542384375003,144.81318218750005,47.0,83.0
870,145.08473384375003,145.33042343750003,59.0,74.0
871,145.08473384375003,145.37352687500004,63.0,79.0
872,145.42956134375004,145.57611303125003,59.0,75.0
873,145.77438884375005,146.08473359375003,59.0,86.0
874,145.77438884375005,146.11059565625004,63.0,88.0
875,145.77438884375005,146.11777956250003,66.0,85.0
876,145.08473384375003,146.18099793750002,47.0,83.0
877,146.11921634375003,146.23415884375004,54.0,71.0
878,146.46404384375003,146.69105528125004,60.0,80.0
879,146.46404384375003,146.69967596875003,64.0,83.0
880,146.80887134375004,146.95829659375005,64.0,83.0
881,146.80887134375004,146.98415865625003,60.0,75.0
882,147.15369884375002,147.22553790625003,64.0,84.0
883,147.15369884375002,147.23272181250005,67.0,83.0
884,147.15369884375002,147.24708962500003,60.0,83.0
885,147.49852634375003,147.58760678125003,64.0,80.0
886,147.49852634375003,147.59622746875004,60.0,75.0
887,147.84335384375004,148.08329631250004,60.0,71.0
888,147.84335384375004,148.11203193750003,64.0,78.0
889,148.18818134375005,148.37496290625003,60.0,87.0
890,147.84335384375004,148.65657203125002,55.0,64.0
891,148.53300884375003,148.65657203125002,60.0,83.0
892,146.46404384375003,148.68818121875003,48.0,86.0
893,148.53300884375003,148.74708925000004,64.0,84.0
894,148.53300884375003,148.93099725000005,67.0,83.0
895,148.87783634375003,148.99421562500004,60.0,81.0
896,149.22266384375004,149.42237643750005,62.0,75.0
897,149.22266384375004,149.61203156250002,66.0,78.0
898,149.56749134375005,149.68961775000002,62.0,77.0
899,149.91231884375003,149.98272112500004,62.0,79.0
900,149.91231884375003,150.00570962500004,66.0,83.0
901,149.91231884375003,150.25714634375004,69.0,84.0
902,149.22266384375004,150.45542215625002,50.0,85.0
903,150.60197384375005,150.79162896875005,62.0,64.0
904,150.60197384375005,150.81318068750002,66.0,70.0
905,150.94680134375002,151.08185878125005,62.0,71.0
906,150.94680134375002,151.08760590625005,66.0,72.0
907,151.29162884375003,151.42955984375004,62.0,82.0
908,150.60197384375005,151.48415753125005,50.0,85.0
909,151.29162884375003,151.49565178125005,66.0,83.0
910,151.29162884375003,151.52151384375003,69.0,83.0
911,151.63645634375004,151.68387012500003,66.0,60.0
912,151.63645634375004,151.80024940625003,62.0,77.0
913,152.32611134375003,152.49708831250004,59.0,72.0
914,152.32611134375003,152.49852509375003,64.0,77.0
915,152.67093884375004,152.73846756250003,64.0,85.0
916,152.67093884375004,152.75570893750003,59.0,83.0
917,152.67093884375004,152.76863996875002,67.0,83.0
918,153.01576634375004,153.08185828125005,64.0,79.0
919,153.01576634375004,153.10053643750004,59.0,74.0
920,151.98128384375005,153.23272031250005,40.0,85.0
921,153.36059384375002,153.61490412500004,59.0,73.0
922,153.36059384375002,153.68386962500003,64.0,81.0
923,153.70542134375003,153.84335234375004,59.0,76.0
924,154.05024884375004,154.19680053125003,59.0,85.0
925,154.05024884375004,154.24134075000003,64.0,89.0
926,153.36059384375002,154.26720281250005,40.0,83.0
927,154.05024884375004,154.27869706250004,67.0,87.0
928,154.39507634375005,154.57754756250003,59.0,81.0
929,154.73990384375003,154.87639806250004,59.0,72.0
930,154.73990384375003,154.92093828125005,64.0,77.0
931,155.08473134375004,155.25283475000003,59.0,71.0
932,155.42955884375004,155.55455881250003,59.0,74.0
933,155.42955884375004,155.58185765625004,67.0,78.0
934,156.11921384375003,156.30599540625005,59.0,76.0
935,156.11921384375003,156.30886896875003,64.0,78.0
936,156.80886884375005,156.95973087500005,59.0,89.0
937,156.80886884375005,157.06030556250005,64.0,90.0
938,154.73990384375003,157.16231703125004,40.0,84.0
939,157.15369634375003,157.24565034375004,64.0,44.0
940,157.15369634375003,157.37927100000005,59.0,84.0
941,157.84335134375004,158.05599496875004,52.0,83.0
942,157.84335134375004,158.07467312500003,55.0,77.0
943,158.18817884375002,158.26720181250005,52.0,83.0
944,158.18817884375002,158.27294893750005,55.0,83.0
945,158.18817884375002,158.27294893750005,64.0,88.0
946,157.49852384375004,158.68817871875004,40.0,85.0
947,158.87783384375004,159.33904062500002,52.0,77.0
948,159.22266134375005,159.38501762500005,59.0,77.0
949,158.87783384375004,159.39794865625004,55.0,72.0
950,159.56748884375003,159.63645434375005,52.0,83.0
951,159.56748884375003,159.65944284375004,59.0,83.0
952,159.56748884375003,159.66806353125003,55.0,87.0
953,159.56748884375003,159.69679915625005,64.0,84.0
954,158.87783384375004,159.71691409375003,40.0,86.0
955,159.91231634375004,160.15800593750004,52.0,84.0
956,159.91231634375004,160.21260362500004,55.0,85.0
957,159.91231634375004,160.23846568750002,59.0,84.0
958,160.60197134375005,160.72840809375003,59.0,74.0
959,160.60197134375005,160.75858050000005,62.0,74.0
960,160.94679884375003,161.01576434375005,59.0,83.0
961,160.94679884375003,161.02007468750003,62.0,81.0
962,160.94679884375003,161.04737353125003,66.0,83.0
963,160.25714384375004,161.36490218750004,47.0,83.0
964,161.63645384375005,161.88214343750005,59.0,74.0
965,161.63645384375005,161.92524687500003,62.0,79.0
966,161.98128134375003,162.12783303125005,59.0,75.0
967,162.32610884375003,162.63645359375005,59.0,86.0
968,162.32610884375003,162.66231565625003,62.0,88.0
969,162.32610884375003,162.66949956250005,66.0,85.0
970,161.63645384375005,162.73271793750004,47.0,83.0
971,162.67093634375004,162.78587884375003,54.0,71.0
972,163.36059134375003,163.57323496875003,52.0,83.0
973,163.36059134375003,163.59191312500005,55.0,77.0
974,163.70541884375004,163.78444181250003,52.0,83.0
975,163.70541884375004,163.79018893750003,55.0,83.0
976,163.70541884375004,163.79018893750003,64.0,88.0
977,163.01576384375005,164.20541871875005,40.0,85.0
978,164.39507384375003,164.85628062500004,52.0,77.0
979,164.73990134375003,164.90225762500003,59.0,77.0
980,164.39507384375003,164.91518865625005,55.0,72.0
981,165.08472884375004,165.15369434375003,52.0,83.0
982,165.08472884375004,165.17668284375003,59.0,83.0
983,165.08472884375004,165.18530353125004,55.0,87.0
984,165.08472884375004,165.21403915625004,64.0,84.0
985,164.39507384375003,165.23415409375005,40.0,86.0
986,165.42955634375005,165.67524593750005,52.0,84.0
987,165.42955634375005,165.72984362500003,55.0,85.0
988,165.42955634375005,165.75570568750004,59.0,84.0
989,166.11921134375004,166.24564809375005,59.0,74.0
990,166.11921134375004,166.27582050000004,63.0,74.0
991,166.46403884375005,166.53300434375004,59.0,83.0
992,166.46403884375005,166.53731468750004,63.0,81.0
993,166.46403884375005,166.56461353125005,66.0,83.0
994,165.77438384375003,166.88214218750005,47.0,83.0
995,167.15369384375003,167.39938343750003,59.0,74.0
996,167.15369384375003,167.44248687500004,63.0,79.0
997,167.49852134375004,167.64507303125004,59.0,75.0
998,167.84334884375005,168.15369359375003,59.0,86.0
999,167.84334884375005,168.17955565625005,63.0,88.0
1000,167.84334884375005,168.18673956250004,66.0,85.0
1001,167.15369384375003,168.24995793750003,47.0,83.0
1002,168.18817634375003,168.30311884375004,54.0,71.0
1003,168.53300384375004,168.76001528125005,60.0,80.0
1004,168.53300384375004,168.76863596875003,64.0,83.0
1005,168.87783134375005,169.02725659375005,64.0,83.0
1006,168.87783134375005,169.05311865625004,60.0,75.0
1007,169.22265884375005,169.29449790625003,64.0,84.0
1008,169.22265884375005,169.30168181250005,67.0,83.0
1009,169.22265884375005,169.31604962500003,60.0,83.0
1010,169.56748634375003,169.65656678125004,64.0,80.0
1011,169.56748634375003,169.66518746875005,60.0,75.0
1012,169.91231384375004,170.15225631250004,60.0,71.0
1013,169.91231384375004,170.18099193750004,64.0,78.0
1014,170.25714134375005,170.44392290625004,60.0,87.0
1015,169.91231384375004,170.72553203125005,55.0,64.0
1016,170.60196884375003,170.72553203125005,60.0,83.0
1017,168.53300384375004,170.75714121875004,48.0,86.0
1018,170.60196884375003,170.81604925000005,64.0,84.0
1019,170.60196884375003,170.99995725000005,67.0,83.0
1020,170.94679634375004,171.06317562500004,60.0,81.0
1021,171.29162384375005,171.49133643750005,62.0,75.0
1022,171.29162384375005,171.68099156250005,66.0,78.0
1023,171.63645134375005,171.75857775000003,62.0,77.0
1024,171.98127884375003,172.05168112500004,62.0,79.0
1025,171.98127884375003,172.07466962500004,66.0,83.0
1026,171.98127884375003,172.32610634375004,69.0,84.0
1027,171.29162384375005,172.52438215625003,50.0,85.0
1028,172.67093384375005,172.86058896875005,62.0,64.0
1029,172.67093384375005,172.88214068750005,66.0,70.0
1030,173.01576134375003,173.15081878125005,62.0,71.0
1031,173.01576134375003,173.15656590625005,66.0,72.0
1032,173.36058884375004,173.49851984375005,62.0,82.0
1033,172.67093384375005,173.55311753125005,50.0,85.0
1034,173.36058884375004,173.56461178125005,66.0,83.0
1035,173.36058884375004,173.59047384375003,69.0,83.0
1036,173.70541634375004,173.75283012500003,66.0,60.0
1037,173.70541634375004,173.86920940625004,62.0,77.0
1038,174.39507134375003,174.56604831250004,59.0,72.0
1039,174.39507134375003,174.56748509375004,64.0,77.0
1040,174.73989884375004,174.80742756250004,64.0,85.0
1041,174.73989884375004,174.82466893750004,59.0,83.0
1042,174.73989884375004,174.83759996875006,67.0,83.0
1043,175.08472634375005,175.15081828125005,64.0,79.0
1044,175.08472634375005,175.16949643750004,59.0,74.0
1045,174.05024384375005,175.30168031250005,40.0,85.0
1046,175.42955384375003,175.68386412500004,59.0,73.0
1047,175.42955384375003,175.75282962500003,64.0,81.0
1048,175.77438134375004,175.91231234375005,59.0,76.0
1049,176.11920884375004,176.26576053125004,59.0,85.0
1050,176.11920884375004,176.31030075000004,64.0,89.0
1051,175.42955384375003,176.33616281250005,40.0,83.0
1052,176.11920884375004,176.34765706250005,67.0,87.0
1053,176.46403634375005,176.64650756250003,59.0,81.0
1054,176.80886384375003,176.94535806250005,59.0,72.0
1055,176.80886384375003,176.98989828125005,64.0,77.0
1056,177.15369134375004,177.32179475000004,59.0,71.0
1057,177.49851884375005,177.62351881250004,59.0,74.0
1058,177.49851884375005,177.65081765625004,67.0,78.0
1059,178.18817384375004,178.37495540625005,59.0,76.0
1060,178.18817384375004,178.37782896875004,64.0,78.0
1061,178.87782884375005,179.02869087500005,59.0,89.0
1062,178.87782884375005,179.12926556250005,64.0,90.0
1063,176.80886384375003,179.23127703125004,40.0,84.0
1064,179.22265634375003,179.31461034375005,64.0,44.0
1065,179.22265634375003,179.44823100000005,59.0,84.0
1066,179.56748384375004,179.83041481250004,59.0,83.0
1067,179.56748384375004,179.83759871875003,64.0,84.0
1068,179.91231134375005,180.17380553125005,64.0,83.0
1069,179.91231134375005,180.18242621875004,59.0,78.0
1070,179.56748384375004,180.27150665625004,40.0,83.0
1071,179.56748384375004,180.28731125000004,52.0,83.0
1072,180.25713884375006,180.39363306250004,59.0,84.0
1073,180.25713884375006,180.39794340625005,64.0,88.0
1074,180.25713884375006,180.41805834375003,67.0,82.0
1075,180.60196634375004,180.76863296875004,64.0,76.0
1076,180.60196634375004,180.76863296875004,67.0,75.0
1077,180.60196634375004,180.77725365625005,59.0,74.0
1078,180.94679384375004,181.22983975000005,64.0,83.0
1079,180.94679384375004,181.23702365625005,59.0,77.0
1080,180.94679384375004,181.24851790625004,67.0,78.0
1081,181.29162134375005,181.38070178125005,67.0,73.0
1082,181.29162134375005,181.54305806250005,59.0,76.0
1083,181.29162134375005,181.54736840625003,64.0,83.0
1084,180.94679384375004,181.61920746875003,52.0,84.0
1085,180.94679384375004,181.62639137500005,40.0,84.0
1086,181.63644884375003,181.77581662500003,59.0,84.0
1087,181.63644884375003,181.77725340625005,64.0,89.0
1088,181.63644884375003,181.77725340625005,67.0,86.0
1089,181.98127634375004,182.10052918750003,67.0,76.0
1090,181.98127634375004,182.10627631250006,64.0,82.0
1091,181.98127634375004,182.10914987500004,59.0,77.0
1092,181.98127634375004,182.29162109375005,45.0,84.0
1093,181.98127634375004,182.33472453125003,57.0,81.0
1094,182.32610384375005,182.56891987500003,59.0,72.0
1095,182.32610384375005,182.58041412500003,62.0,76.0
1096,182.67093134375006,182.88070140625004,59.0,71.0
1097,182.67093134375006,182.91662093750006,62.0,74.0
1098,182.32610384375005,183.11920709375005,47.0,83.0
1099,183.01575884375004,183.14363237500004,59.0,82.0
1100,183.01575884375004,183.14650593750005,62.0,84.0
1101,183.01575884375004,183.15225306250005,66.0,82.0
1102,183.36058634375004,183.47983918750003,59.0,65.0
1103,183.36058634375004,183.48702309375005,62.0,74.0
1104,183.70541384375005,183.98271262500003,59.0,75.0
1105,183.70541384375005,183.98271262500003,59.0,81.0
1106,183.70541384375005,183.98558618750005,62.0,77.0
1107,184.05024134375003,184.31173553125004,59.0,74.0
1108,184.05024134375003,184.31173553125004,62.0,78.0
1109,183.70541384375005,184.46834468750004,47.0,86.0
1110,184.39506884375004,184.49851709375005,59.0,84.0
1111,184.39506884375004,184.56604581250005,62.0,88.0
1112,184.39506884375004,184.56748259375004,66.0,86.0
1113,184.73989634375005,184.88788481250003,66.0,69.0
1114,184.73989634375005,184.89075837500005,59.0,71.0
1115,184.73989634375005,184.89075837500005,62.0,73.0
1116,185.08472384375006,185.30886171875005,67.0,70.0
1117,185.08472384375006,185.31173528125004,64.0,75.0
1118,185.08472384375006,185.31460884375005,59.0,71.0
1119,185.42955134375003,185.63932140625005,67.0,73.0
1120,185.42955134375003,185.66518346875006,64.0,82.0
1121,185.42955134375003,185.66949381250004,59.0,74.0
1122,185.08472384375006,185.83041331250004,52.0,83.0
1123,185.08472384375006,185.84765468750004,40.0,81.0
1124,185.77437884375004,185.89506846875005,64.0,86.0
1125,185.77437884375004,185.90225237500005,59.0,84.0
1126,185.77437884375004,185.90512593750003,67.0,84.0
1127,186.11920634375005,186.22696493750004,67.0,69.0
1128,186.11920634375005,186.23127528125005,64.0,54.0
1129,186.11920634375005,186.23989596875003,59.0,67.0
1130,186.46403384375003,186.72840159375005,64.0,84.0
1131,186.46403384375003,186.73271193750006,67.0,78.0
1132,186.46403384375003,186.73558550000004,59.0,78.0
1133,186.80886134375004,187.00139003125005,67.0,74.0
1134,186.80886134375004,187.04018312500006,64.0,81.0
1135,186.80886134375004,187.04736703125005,59.0,77.0
1136,186.46403384375003,187.19248193750005,52.0,84.0
1137,186.46403384375003,187.22552790625005,40.0,87.0
1138,187.15368884375005,187.28156237500005,64.0,87.0
1139,187.15368884375005,187.28443593750004,59.0,84.0
1140,187.15368884375005,187.28587271875006,67.0,84.0
1141,187.49851634375005,187.60483815625005,67.0,72.0
1142,187.49851634375005,187.60627493750005,64.0,77.0
1143,187.49851634375005,187.62926343750004,59.0,72.0
1144,187.49851634375005,187.76001053125003,57.0,76.0
1145,187.49851634375005,187.76575765625003,45.0,82.0
1146,187.84334384375003,188.11345871875005,59.0,66.0
1147,187.84334384375003,188.11489550000005,66.0,66.0
1148,187.84334384375003,188.13644721875005,62.0,65.0
1149,188.18817134375004,188.34909084375005,59.0,75.0
1150,188.18817134375004,188.35196440625003,66.0,74.0
1151,188.18817134375004,188.37782646875004,62.0,71.0
1152,187.84334384375003,188.53587240625004,47.0,83.0
1153,188.53299884375005,188.66087237500005,59.0,83.0
1154,188.53299884375005,188.66374593750004,66.0,88.0
1155,188.53299884375005,188.68098731250004,62.0,85.0
1156,188.87782634375006,189.00282631250005,59.0,71.0
1157,188.87782634375006,189.00857343750005,66.0,67.0
1158,188.87782634375006,189.02437803125005,62.0,70.0
1159,189.22265384375004,189.49420550000005,59.0,72.0
1160,189.22265384375004,189.51001009375005,66.0,76.0
1161,189.22265384375004,189.51144687500005,62.0,76.0
1162,189.56748134375005,189.78587209375004,59.0,74.0
1163,189.56748134375005,189.80311346875004,66.0,77.0
1164,189.56748134375005,189.80742381250005,62.0,77.0
1165,189.91230884375005,190.02294100000003,59.0,82.0
1166,189.91230884375005,190.03012490625005,62.0,83.0
1167,189.91230884375005,190.03443525000006,66.0,80.0
1168,189.22265384375004,190.14937775000004,47.0,81.0
1169,190.25713634375003,190.37495240625003,59.0,75.0
1170,190.25713634375003,190.38500987500004,62.0,75.0
1171,190.25713634375003,190.39650412500004,66.0,77.0
1172,190.60196384375004,190.85340056250004,64.0,85.0
1173,190.60196384375004,190.85627412500006,60.0,78.0
1174,190.60196384375004,190.86202125000005,67.0,82.0
1175,190.94679134375005,191.07610165625005,67.0,74.0
1176,190.94679134375005,191.11058440625004,64.0,79.0
1177,190.94679134375005,191.12495221875005,60.0,73.0
1178,190.60196384375004,191.37495215625003,48.0,84.0
1179,191.29161884375006,191.43529696875004,60.0,87.0
1180,191.29161884375006,191.44535443750004,64.0,94.0
1181,191.29161884375006,191.45397512500006,67.0,89.0
1182,191.63644634375004,191.76431987500004,60.0,67.0
1183,191.63644634375004,191.80167618750005,64.0,74.0
1184,191.98127384375005,192.25857262500006,60.0,84.0
1185,191.98127384375005,192.28012434375003,64.0,85.0
1186,192.32610134375005,192.46546912500006,60.0,78.0
1187,192.32610134375005,192.47265303125005,67.0,77.0
1188,192.32610134375005,192.47696337500005,64.0,75.0
1189,192.67092884375003,192.81029662500003,64.0,92.0
1190,192.67092884375003,192.82322765625005,60.0,86.0
1191,192.67092884375003,192.83041156250005,67.0,86.0
1192,191.98127384375005,192.83759546875004,48.0,84.0
1193,193.01575634375004,193.16949193750006,67.0,73.0
1194,193.01575634375004,193.17092871875005,64.0,78.0
1195,193.01575634375004,193.19822756250005,60.0,76.0
1196,193.01575634375004,193.28730800000005,48.0,84.0
1197,193.36058384375005,193.57897459375005,59.0,74.0
1198,193.36058384375005,193.60052631250005,62.0,75.0
1199,193.70541134375006,193.84046878125005,59.0,71.0
1200,193.70541134375006,193.86633084375003,62.0,77.0
1201,193.36058384375005,194.16805490625003,47.0,83.0
1202,194.05023884375004,194.19248018750005,59.0,80.0
1203,194.05023884375004,194.20684800000004,62.0,82.0
1204,194.05023884375004,194.20684800000004,66.0,84.0
1205,194.39506634375005,194.54592837500005,59.0,76.0
1206,194.39506634375005,194.56460653125004,62.0,78.0
1207,194.39506634375005,194.57753756250005,66.0,77.0
1208,194.73989384375005,195.01719262500004,64.0,88.0
1209,194.73989384375005,195.02150296875004,60.0,84.0
1210,194.73989384375005,195.12782478125004,36.0,76.0
1211,194.73989384375005,195.13788225000005,48.0,83.0
1212,195.08472134375003,195.26288221875004,60.0,79.0
1213,195.08472134375003,195.32322703125004,64.0,84.0
1214,195.42954884375004,195.70397406250004,66.0,88.0
1215,195.42954884375004,195.71115796875006,62.0,82.0
1216,195.42954884375004,195.90656021875006,50.0,79.0
1217,195.42954884375004,195.92092803125004,38.0,78.0
1218,195.77437634375005,195.96834181250006,62.0,83.0
1219,195.77437634375005,195.97983606250006,66.0,84.0
1220,196.11920384375006,196.37207734375005,67.0,85.0
1221,196.11920384375006,196.37638768750006,64.0,85.0
1222,196.11920384375006,196.40512331250005,71.0,81.0
1223,196.46403134375004,196.58041062500004,64.0,74.0
1224,196.46403134375004,196.59334165625003,67.0,78.0
1225,196.46403134375004,196.60196234375005,71.0,72.0
1226,196.11920384375006,196.83184734375004,52.0,83.0
1227,196.11920384375006,196.89075537500005,40.0,81.0
1228,196.80885884375004,196.92811168750004,64.0,90.0
1229,196.80885884375004,196.93960593750003,67.0,88.0
1230,196.80885884375004,196.94966340625004,71.0,94.0
1231,197.15368634375005,197.27581275000006,67.0,72.0
1232,197.15368634375005,197.27868631250004,64.0,76.0
1233,197.15368634375005,197.28299665625005,71.0,75.0
1234,197.49851384375006,197.72696206250004,64.0,81.0
1235,197.49851384375006,197.73989309375006,67.0,77.0
1236,197.49851384375006,197.74707700000005,72.0,83.0
1237,197.84334134375004,198.00426084375005,67.0,80.0
1238,197.84334134375004,198.01000796875005,64.0,81.0
1239,197.84334134375004,198.01575509375004,72.0,82.0
1240,198.18816884375005,198.33759409375006,64.0,82.0
1241,198.18816884375005,198.34334121875006,67.0,77.0
1242,198.18816884375005,198.36489293750006,72.0,83.0
1243,197.49851384375006,198.40943315625006,48.0,80.0
1244,197.49851384375006,198.49276646875003,36.0,75.0
1245,198.53299634375006,198.65224918750005,67.0,69.0
1246,198.53299634375006,198.67667446875004,64.0,77.0
1247,198.53299634375006,198.70253653125005,72.0,79.0
1248,198.87782384375004,199.11058240625005,66.0,71.0
1249,198.87782384375004,199.11345596875006,62.0,75.0
1250,198.87782384375004,199.12782378125004,71.0,80.0
1251,199.22265134375004,199.35339843750006,62.0,73.0
1252,199.22265134375004,199.35770878125004,71.0,79.0
1253,199.22265134375004,199.35914556250006,66.0,75.0
1254,198.87782384375004,199.68098456250004,47.0,79.0
1255,199.56747884375005,199.71690409375006,62.0,79.0
1256,199.56747884375005,199.71977765625005,66.0,78.0
1257,198.87782384375004,199.72696156250004,59.0,77.0
1258,199.56747884375005,199.73701903125004,71.0,84.0
1259,199.91230634375006,200.06891550000006,62.0,77.0
1260,199.91230634375006,200.07322584375004,66.0,79.0
1261,199.91230634375006,200.09621434375003,71.0,80.0
1262,199.91230634375006,200.21259362500004,38.0,77.0
1263,199.91230634375006,200.26000740625005,50.0,83.0
1264,200.25713384375004,200.49707631250004,64.0,82.0
1265,200.25713384375004,200.49851309375003,67.0,83.0
1266,200.25713384375004,200.50569700000005,71.0,83.0
1267,200.25713384375004,200.65368546875004,40.0,84.0
1268,200.25713384375004,200.68385787500006,52.0,79.0
1269,200.60196134375005,200.74851303125004,71.0,79.0
1270,200.60196134375005,200.75282337500005,64.0,77.0
1271,200.60196134375005,200.75282337500005,67.0,75.0
1272,200.94678884375006,201.07753593750004,64.0,84.0
1273,200.94678884375006,201.08040950000006,67.0,82.0
1274,200.94678884375006,201.09046696875004,71.0,84.0
1275,200.94678884375006,201.17380028125004,47.0,77.0
1276,200.94678884375006,201.21546693750005,59.0,78.0
1277,201.29161634375004,201.46834043750005,64.0,83.0
1278,201.29161634375004,201.47552434375004,67.0,82.0
1279,201.29161634375004,201.48414503125005,71.0,84.0
1280,201.29161634375004,201.49994962500006,50.0,84.0
1281,201.29161634375004,201.53730593750004,62.0,74.0
1282,201.63644384375004,201.89937481250004,59.0,83.0
1283,201.63644384375004,201.90655871875003,64.0,84.0
1284,201.98127134375005,202.24276553125006,64.0,83.0
1285,201.98127134375005,202.25138621875004,59.0,78.0
1286,201.63644384375004,202.34046665625004,40.0,83.0
1287,201.63644384375004,202.35627125000005,52.0,83.0
1288,202.32609884375006,202.46259306250005,59.0,84.0
1289,202.32609884375006,202.46690340625005,64.0,88.0
1290,202.32609884375006,202.48701834375004,67.0,82.0
1291,202.67092634375004,202.83759296875004,64.0,76.0
1292,202.67092634375004,202.83759296875004,67.0,75.0
1293,202.67092634375004,202.84621365625006,59.0,74.0
1294,203.01575384375005,203.29879975000006,64.0,83.0
1295,203.01575384375005,203.30598365625005,59.0,77.0
1296,203.01575384375005,203.31747790625005,67.0,78.0
1297,203.36058134375006,203.44966178125006,67.0,73.0
1298,203.36058134375006,203.61201806250006,59.0,76.0
1299,203.36058134375006,203.61632840625006,64.0,83.0
1300,203.01575384375005,203.68816746875004,52.0,84.0
1301,203.01575384375005,203.69535137500006,40.0,84.0
1302,203.70540884375004,203.84477662500004,59.0,84.0
1303,203.70540884375004,203.84621340625006,64.0,89.0
1304,203.70540884375004,203.84621340625006,67.0,86.0
1305,204.05023634375004,204.16948918750006,67.0,76.0
1306,204.05023634375004,204.17523631250006,64.0,82.0
1307,204.05023634375004,204.17810987500005,59.0,77.0
1308,204.05023634375004,204.36058109375006,45.0,84.0
1309,204.05023634375004,204.40368453125004,57.0,81.0
1310,204.39506384375005,204.63787987500004,59.0,72.0
1311,204.39506384375005,204.64937412500004,62.0,76.0
1312,204.73989134375006,204.94966140625004,59.0,71.0
1313,204.73989134375006,204.98558093750006,62.0,74.0
1314,204.39506384375005,205.18816709375005,47.0,83.0
1315,205.08471884375004,205.21259237500004,59.0,82.0
1316,205.08471884375004,205.21546593750006,62.0,84.0
1317,205.08471884375004,205.22121306250006,66.0,82.0
1318,205.42954634375005,205.54879918750004,59.0,65.0
1319,205.42954634375005,205.55598309375006,62.0,74.0
1320,205.77437384375006,206.05167262500004,59.0,75.0
1321,205.77437384375006,206.05167262500004,59.0,81.0
1322,205.77437384375006,206.05454618750005,62.0,77.0
1323,206.11920134375003,206.38069553125004,59.0,74.0
1324,206.11920134375003,206.38069553125004,62.0,78.0
1325,205.77437384375006,206.53730468750004,47.0,86.0
1326,206.46402884375004,206.56747709375006,59.0,84.0
1327,206.46402884375004,206.63500581250005,62.0,88.0
1328,206.46402884375004,206.63644259375005,66.0,86.0
1329,206.80885634375005,206.95684481250004,66.0,69.0
1330,206.80885634375005,206.95971837500005,59.0,71.0
1331,206.80885634375005,206.95971837500005,62.0,73.0
1332,207.15368384375006,207.37782171875006,67.0,70.0
1333,207.15368384375006,207.38069528125004,64.0,75.0
1334,207.15368384375006,207.38356884375006,59.0,71.0
1335,207.49851134375004,207.70828140625005,67.0,73.0
1336,207.49851134375004,207.73414346875006,64.0,82.0
1337,207.49851134375004,207.73845381250004,59.0,74.0
1338,207.15368384375006,207.89937331250005,52.0,83.0
1339,207.15368384375006,207.91661468750004,40.0,81.0
1340,207.84333884375005,207.96402846875006,64.0,86.0
1341,207.84333884375005,207.97121237500005,59.0,84.0
1342,207.84333884375005,207.97408593750004,67.0,84.0
1343,208.18816634375005,208.29592493750005,67.0,69.0
1344,208.18816634375005,208.30023528125005,64.0,54.0
1345,208.18816634375005,208.30885596875004,59.0,67.0
1346,208.53299384375006,208.79736159375005,64.0,84.0
1347,208.53299384375006,208.80167193750006,67.0,78.0
1348,208.53299384375006,208.80454550000005,59.0,78.0
1349,208.87782134375004,209.07035003125006,67.0,74.0
1350,208.87782134375004,209.10914312500006,64.0,81.0
1351,208.87782134375004,209.11632703125005,59.0,77.0
1352,208.53299384375006,209.26144193750005,52.0,84.0
1353,208.53299384375006,209.29448790625005,40.0,87.0
1354,209.22264884375005,209.35052237500005,64.0,87.0
1355,209.22264884375005,209.35339593750004,59.0,84.0
1356,209.22264884375005,209.35483271875006,67.0,84.0
1357,209.56747634375006,209.67379815625006,67.0,72.0
1358,209.56747634375006,209.67523493750005,64.0,77.0
1359,209.56747634375006,209.69822343750005,59.0,72.0
1360,209.56747634375006,209.82897053125004,57.0,76.0
1361,209.56747634375006,209.83471765625006,45.0,82.0
1362,209.91230384375004,210.18241871875006,59.0,66.0
1363,209.91230384375004,210.18385550000005,66.0,66.0
1364,209.91230384375004,210.20540721875005,62.0,65.0
1365,210.25713134375005,210.41805084375005,59.0,75.0
1366,210.25713134375005,210.42092440625004,66.0,74.0
1367,210.25713134375005,210.44678646875005,62.0,71.0
1368,209.91230384375004,210.60483240625004,47.0,83.0
1369,210.60195884375005,210.72983237500006,59.0,83.0
1370,210.60195884375005,210.73270593750004,66.0,88.0
1371,210.60195884375005,210.74994731250004,62.0,85.0
1372,210.94678634375006,211.07178631250005,59.0,71.0
1373,210.94678634375006,211.07753343750005,66.0,67.0
1374,210.94678634375006,211.09333803125006,62.0,70.0
1375,211.29161384375004,211.56316550000005,59.0,72.0
1376,211.29161384375004,211.57897009375006,66.0,76.0
1377,211.29161384375004,211.58040687500005,62.0,76.0
1378,211.63644134375005,211.85483209375005,59.0,74.0
1379,211.63644134375005,211.87207346875005,66.0,77.0
1380,211.63644134375005,211.87638381250005,62.0,77.0
1381,211.98126884375006,212.09190100000006,59.0,82.0
1382,211.98126884375006,212.09908490625006,62.0,83.0
1383,211.98126884375006,212.10339525000006,66.0,80.0
1384,211.29161384375004,212.21833775000005,47.0,81.0
1385,212.32609634375004,212.44391240625006,59.0,75.0
1386,212.32609634375004,212.45396987500004,62.0,75.0
1387,212.32609634375004,212.46546412500004,66.0,77.0
1388,212.67092384375005,212.92236056250005,64.0,85.0
1389,212.67092384375005,212.92523412500006,60.0,78.0
1390,212.67092384375005,212.93098125000006,67.0,82.0
1391,213.01575134375005,213.14506165625005,67.0,74.0
1392,213.01575134375005,213.17954440625005,64.0,79.0
1393,213.01575134375005,213.19391221875006,60.0,73.0
1394,212.67092384375005,213.44391215625006,48.0,84.0
1395,213.36057884375006,213.50425696875004,60.0,87.0
1396,213.36057884375006,213.51431443750005,64.0,94.0
1397,213.36057884375006,213.52293512500006,67.0,89.0
1398,213.70540634375004,213.83327987500004,60.0,67.0
1399,213.70540634375004,213.87063618750005,64.0,74.0
1400,214.05023384375005,214.32753262500006,60.0,84.0
1401,214.05023384375005,214.34908434375006,64.0,85.0
1402,214.39506134375006,214.53442912500006,60.0,78.0
1403,214.39506134375006,214.54161303125005,67.0,77.0
1404,214.39506134375006,214.54592337500006,64.0,75.0
1405,214.73988884375004,214.87925662500004,64.0,92.0
1406,214.73988884375004,214.89218765625006,60.0,86.0
1407,214.73988884375004,214.89937156250005,67.0,86.0
1408,214.05023384375005,214.90655546875004,48.0,84.0
1409,215.08471634375005,215.23845193750006,67.0,73.0
1410,215.08471634375005,215.23988871875005,64.0,78.0
1411,215.08471634375005,215.26718756250006,60.0,76.0
1412,215.08471634375005,215.35626800000006,48.0,84.0
1413,215.42954384375005,215.64793459375005,59.0,74.0
1414,215.42954384375005,215.66948631250006,62.0,75.0
1415,215.77437134375006,215.90942878125006,59.0,71.0
1416,215.77437134375006,215.93529084375004,62.0,77.0
1417,215.42954384375005,216.23701490625004,47.0,83.0
1418,216.11919884375004,216.26144018750006,59.0,80.0
1419,216.11919884375004,216.27580800000004,62.0,82.0
1420,216.11919884375004,216.27580800000004,66.0,84.0
1421,216.46402634375005,216.61488837500005,59.0,76.0
1422,216.46402634375005,216.63356653125004,62.0,78.0
1423,216.46402634375005,216.64649756250006,66.0,77.0
1424,216.80885384375006,217.08615262500004,64.0,88.0
1425,216.80885384375006,217.09046296875005,60.0,84.0
1426,216.80885384375006,217.19678478125005,36.0,76.0
1427,216.80885384375006,217.20684225000005,48.0,83.0
1428,217.15368134375007,217.33184221875004,60.0,79.0
1429,217.15368134375007,217.39218703125005,64.0,84.0
1430,217.49850884375005,217.77293406250004,66.0,88.0
1431,217.49850884375005,217.78011796875006,62.0,82.0
1432,217.49850884375005,217.97552021875006,50.0,79.0
1433,217.49850884375005,217.98988803125005,38.0,78.0
1434,217.84333634375005,218.03730181250006,62.0,83.0
1435,217.84333634375005,218.04879606250006,66.0,84.0
1436,218.18816384375006,218.44103734375005,67.0,85.0
1437,218.18816384375006,218.44534768750006,64.0,85.0
1438,218.18816384375006,218.47408331250006,71.0,81.0
1439,218.53299134375004,218.64937062500005,64.0,74.0
1440,218.53299134375004,218.66230165625007,67.0,78.0
1441,218.53299134375004,218.67092234375005,71.0,72.0
1442,218.18816384375006,218.90080734375005,52.0,83.0
1443,218.18816384375006,218.95971537500006,40.0,81.0
1444,218.87781884375005,218.99707168750004,64.0,90.0
1445,218.87781884375005,219.00856593750007,67.0,88.0
1446,218.87781884375005,219.01862340625004,71.0,94.0
1447,219.22264634375006,219.34477275000006,67.0,72.0
1448,219.22264634375006,219.34764631250005,64.0,76.0
1449,219.22264634375006,219.35195665625005,71.0,75.0
1450,219.56747384375007,219.79592206250004,64.0,81.0
1451,219.56747384375007,219.80885309375006,67.0,77.0
1452,219.56747384375007,219.81603700000005,72.0,83.0
1453,219.91230134375004,220.07322084375005,67.0,80.0
1454,219.91230134375004,220.07896796875005,64.0,81.0
1455,219.91230134375004,220.08471509375005,72.0,82.0
1456,220.25712884375005,220.40655409375006,64.0,82.0
1457,220.25712884375005,220.41230121875006,67.0,77.0
1458,220.25712884375005,220.43385293750006,72.0,83.0
1459,219.56747384375007,220.47839315625006,48.0,80.0
1460,219.56747384375007,220.56172646875007,36.0,75.0
1461,220.60195634375006,220.72120918750005,67.0,69.0
1462,220.60195634375006,220.74563446875004,64.0,77.0
1463,220.60195634375006,220.77149653125005,72.0,79.0
1464,220.94678384375004,221.17954240625005,66.0,71.0
1465,220.94678384375004,221.18241596875006,62.0,75.0
1466,220.94678384375004,221.19678378125005,71.0,80.0
1467,221.29161134375005,221.42235843750007,62.0,73.0
1468,221.29161134375005,221.42666878125004,71.0,79.0
1469,221.29161134375005,221.42810556250006,66.0,75.0
1470,220.94678384375004,221.74994456250005,47.0,79.0
1471,221.63643884375006,221.78586409375006,62.0,79.0
1472,221.63643884375006,221.78873765625005,66.0,78.0
1473,220.94678384375004,221.79592156250004,59.0,77.0
1474,221.63643884375006,221.80597903125005,71.0,84.0
1475,221.98126634375006,222.13787550000006,62.0,77.0
1476,221.98126634375006,222.14218584375004,66.0,79.0
1477,221.98126634375006,222.16517434375004,71.0,80.0
1478,221.98126634375006,222.28155362500004,38.0,77.0
1479,221.98126634375006,222.32896740625006,50.0,83.0
1480,222.32609384375004,222.56603631250005,64.0,82.0
1481,222.32609384375004,222.56747309375007,67.0,83.0
1482,222.32609384375004,222.57465700000006,71.0,83.0
1483,222.32609384375004,222.72264546875004,40.0,84.0
1484,222.32609384375004,222.75281787500006,52.0,79.0
1485,222.67092134375005,222.81747303125005,71.0,79.0
1486,222.67092134375005,222.82178337500005,64.0,77.0
1487,222.67092134375005,222.82178337500005,67.0,75.0
1488,223.01574884375006,223.14649593750005,64.0,84.0
1489,223.01574884375006,223.14936950000006,67.0,82.0
1490,223.01574884375006,223.15942696875004,71.0,84.0
1491,223.01574884375006,223.24276028125004,47.0,77.0
1492,223.01574884375006,223.28442693750006,59.0,78.0
1493,223.36057634375004,223.53730043750005,64.0,83.0
1494,223.36057634375004,223.54448434375004,67.0,82.0
1495,223.36057634375004,223.55310503125006,71.0,84.0
1496,223.36057634375004,223.56890962500006,50.0,84.0
1497,223.36057634375004,223.60626593750004,62.0,74.0
1498,224.00856468750004,224.22120831250004,52.0,83.0
1499,224.00856468750004,224.23988646875006,55.0,77.0
1500,224.35339218750005,224.43241515625004,52.0,83.0
1501,224.35339218750005,224.43816228125004,55.0,83.0
1502,224.35339218750005,224.43816228125004,64.0,88.0
1503,223.66373718750006,224.85339206250006,40.0,85.0
1504,225.04304718750006,225.50425396875005,52.0,77.0
1505,225.38787468750004,225.55023096875004,59.0,77.0
1506,225.04304718750006,225.56172521875004,55.0,72.0
1507,225.73270218750005,225.80166768750004,52.0,83.0
1508,225.73270218750005,225.82465618750004,59.0,83.0
1509,225.73270218750005,225.83327687500005,55.0,87.0
1510,225.73270218750005,225.86201250000005,64.0,84.0
1511,225.04304718750006,225.88212743750006,40.0,86.0
1512,226.07752968750006,226.32321928125006,52.0,84.0
1513,226.07752968750006,226.37781696875007,55.0,85.0
1514,226.07752968750006,226.40367903125005,59.0,84.0
1515,226.76718468750005,226.89362143750006,59.0,74.0
1516,226.76718468750005,226.92379384375005,62.0,74.0
1517,227.11201218750006,227.18097768750005,59.0,83.0
1518,227.11201218750006,227.18528803125005,62.0,81.0
1519,227.11201218750006,227.21258687500006,66.0,83.0
1520,226.42235718750004,227.52867875000004,47.0,83.0
1521,227.80166718750004,228.04735678125004,59.0,74.0
1522,227.80166718750004,228.09046021875005,62.0,79.0
1523,228.14649468750005,228.29304637500005,59.0,75.0
1524,228.49132218750006,228.80166693750004,59.0,86.0
1525,228.49132218750006,228.82752900000006,62.0,88.0
1526,228.49132218750006,228.83471290625005,66.0,85.0
1527,227.80166718750004,228.89793128125007,47.0,83.0
1528,228.83614968750007,228.94965540625006,54.0,71.0
1529,229.52580468750006,229.73844831250005,52.0,83.0
1530,229.52580468750006,229.75712646875004,55.0,77.0
1531,229.87063218750006,229.94965515625006,52.0,83.0
1532,229.87063218750006,229.95540228125006,55.0,83.0
1533,229.87063218750006,229.95540228125006,64.0,88.0
1534,229.18097718750005,230.37063206250005,40.0,85.0
1535,230.56028718750005,231.02149396875006,52.0,77.0
1536,230.90511468750006,231.06747096875006,59.0,77.0
1537,230.56028718750005,231.07896521875006,55.0,72.0
1538,231.24994218750007,231.31890768750006,52.0,83.0
1539,231.24994218750007,231.34189618750005,59.0,83.0
1540,231.24994218750007,231.35051687500007,55.0,87.0
1541,231.24994218750007,231.37925250000006,64.0,84.0
1542,230.56028718750005,231.39936743750005,40.0,86.0
1543,231.59476968750005,231.84045928125005,52.0,84.0
1544,231.59476968750005,231.89505696875005,55.0,85.0
1545,231.59476968750005,231.92091903125007,59.0,84.0
1546,232.28442468750006,232.41086143750005,59.0,74.0
1547,232.28442468750006,232.44103384375006,63.0,74.0
1548,232.62925218750004,232.69821768750006,59.0,83.0
1549,232.62925218750004,232.70252803125007,63.0,81.0
1550,232.62925218750004,232.72982687500004,66.0,83.0
1551,231.93959718750006,233.04591875000006,47.0,83.0
1552,233.31890718750006,233.56459678125006,59.0,74.0
1553,233.31890718750006,233.60770021875007,63.0,79.0
1554,233.66373468750007,233.81028637500006,59.0,75.0
1555,234.00856218750005,234.31890693750006,59.0,86.0
1556,234.00856218750005,234.34476900000004,63.0,88.0
1557,234.00856218750005,234.35195290625006,66.0,85.0
1558,233.31890718750006,234.41517128125005,47.0,83.0
1559,234.35338968750006,234.46689540625005,54.0,71.0
1560,234.69821718750006,234.92522862500005,60.0,80.0
1561,234.69821718750006,234.93384931250006,64.0,83.0
1562,235.04304468750004,235.19246993750005,64.0,83.0
1563,235.04304468750004,235.21833200000006,60.0,75.0
1564,235.38787218750005,235.45971125000005,64.0,84.0
1565,235.38787218750005,235.46689515625005,67.0,83.0
1566,235.38787218750005,235.48126296875006,60.0,83.0
1567,235.73269968750006,235.82034334375007,64.0,80.0
1568,235.73269968750006,235.83040081250005,60.0,75.0
1569,236.07752718750007,236.31746965625007,60.0,71.0
1570,236.07752718750007,236.34476850000004,64.0,78.0
1571,236.42235468750005,236.60913625000006,60.0,87.0
1572,236.07752718750007,236.89074537500005,55.0,64.0
1573,236.76718218750005,236.89074537500005,60.0,83.0
1574,234.69821718750006,236.92091778125007,48.0,86.0
1575,236.76718218750005,236.98126259375005,64.0,84.0
1576,236.76718218750005,237.16517059375005,67.0,83.0
1577,237.11200968750006,237.22838896875007,60.0,81.0
1578,237.45683718750004,237.65654978125005,62.0,75.0
1579,237.45683718750004,237.84620490625005,66.0,78.0
1580,237.80166468750005,237.92379109375005,62.0,77.0
1581,238.14649218750006,238.21689446875007,62.0,79.0
1582,238.14649218750006,238.23988296875007,66.0,83.0
1583,238.14649218750006,238.49131968750007,69.0,84.0
1584,237.45683718750004,238.68959550000005,50.0,85.0
1585,238.83614718750005,239.02580231250005,62.0,64.0
1586,238.83614718750005,239.04735403125005,66.0,70.0
1587,239.18097468750005,239.31603212500005,62.0,71.0
1588,239.18097468750005,239.32177925000005,66.0,72.0
1589,239.52580218750006,239.66373318750004,62.0,82.0
1590,238.83614718750005,239.71833087500005,50.0,85.0
1591,239.52580218750006,239.72982512500005,66.0,83.0
1592,239.52580218750006,239.75568718750006,69.0,83.0
1593,239.87062968750007,239.91804346875006,66.0,60.0
1594,239.87062968750007,240.03442275000006,62.0,77.0
1595,240.56028468750006,240.73126165625007,59.0,72.0
1596,240.56028468750006,240.73269843750006,64.0,77.0
1597,240.90511218750007,240.97264090625006,64.0,85.0
1598,240.90511218750007,240.98988228125006,59.0,83.0
1599,240.90511218750007,241.00281331250005,67.0,83.0
1600,241.24993968750005,241.31459484375006,64.0,79.0
1601,241.24993968750005,241.33470978125007,59.0,74.0
1602,240.21545718750005,241.46545687500006,40.0,85.0
1603,241.59476718750005,241.84907746875007,59.0,73.0
1604,241.59476718750005,241.91804296875006,64.0,81.0
1605,241.93959468750006,242.07608890625005,59.0,76.0
1606,242.28442218750007,242.43097387500006,59.0,85.0
1607,242.28442218750007,242.47551409375006,64.0,89.0
1608,241.59476718750005,242.50137615625005,40.0,83.0
1609,242.28442218750007,242.51287040625004,67.0,87.0
1610,242.62924968750005,242.81172090625006,59.0,81.0
1611,242.97407718750006,243.11057140625005,59.0,72.0
1612,242.97407718750006,243.15511162500005,64.0,77.0
1613,243.31890468750007,243.48700809375006,59.0,71.0
1614,243.66373218750005,243.78873215625006,59.0,74.0
1615,243.66373218750005,243.81603100000007,67.0,78.0
1616,244.35338718750006,244.53873196875006,59.0,76.0
1617,244.35338718750006,244.54304231250006,64.0,78.0
1618,245.04304218750005,245.19390421875005,59.0,89.0
1619,245.04304218750005,245.29447890625005,64.0,90.0
1620,242.97407718750006,245.39649037500007,40.0,84.0
1621,245.38786968750006,245.47982368750004,64.0,44.0
1622,245.38786968750006,245.61344434375005,59.0,84.0
1623,246.07752468750004,246.29016831250007,52.0,83.0
1624,246.07752468750004,246.30884646875006,55.0,77.0
1625,246.42235218750005,246.50137515625005,52.0,83.0
1626,246.42235218750005,246.50712228125005,55.0,83.0
1627,246.42235218750005,246.50712228125005,64.0,88.0
1628,245.73269718750007,246.92235206250007,40.0,85.0
1629,247.11200718750007,247.57321396875005,52.0,77.0
1630,247.45683468750005,247.61919096875005,59.0,77.0
1631,247.11200718750007,247.63068521875005,55.0,72.0
1632,247.80166218750006,247.87062768750005,52.0,83.0
1633,247.80166218750006,247.89361618750007,59.0,83.0
1634,247.80166218750006,247.90223687500006,55.0,87.0
1635,247.80166218750006,247.93097250000005,64.0,84.0
1636,247.11200718750007,247.95108743750006,40.0,86.0
1637,248.14648968750006,248.39217928125007,52.0,84.0
1638,248.14648968750006,248.44677696875007,55.0,85.0
1639,248.14648968750006,248.47263903125005,59.0,84.0
1640,248.83614468750005,248.96258143750006,59.0,74.0
1641,248.83614468750005,248.99275384375005,62.0,74.0
1642,249.18097218750006,249.24993768750005,59.0,83.0
1643,249.18097218750006,249.25424803125006,62.0,81.0
1644,249.18097218750006,249.28154687500006,66.0,83.0
1645,248.49131718750007,249.59763875000007,47.0,83.0
1646,249.87062718750005,250.11631678125005,59.0,74.0
1647,249.87062718750005,250.15942021875006,62.0,79.0
1648,250.21545468750006,250.36200637500005,59.0,75.0
1649,250.56028218750006,250.87062693750005,59.0,86.0
1650,250.56028218750006,250.89648900000006,62.0,88.0
1651,250.56028218750006,250.90367290625005,66.0,85.0
1652,249.87062718750005,250.96689128125007,47.0,83.0
1653,250.90510968750007,251.01861540625006,54.0,71.0
1654,251.59476468750006,251.80740831250006,52.0,83.0
1655,251.59476468750006,251.82608646875005,55.0,77.0
1656,251.93959218750007,252.01861515625006,52.0,83.0
1657,251.93959218750007,252.02436228125006,55.0,83.0
1658,251.93959218750007,252.02436228125006,64.0,88.0
1659,251.24993718750005,252.43959206250005,40.0,85.0
1660,252.62924718750006,253.09045396875007,52.0,77.0
1661,252.97407468750006,253.13643096875006,59.0,77.0
1662,252.62924718750006,253.14792521875006,55.0,72.0
1663,253.31890218750007,253.38786768750006,52.0,83.0
1664,253.31890218750007,253.41085618750006,59.0,83.0
1665,253.31890218750007,253.41947687500007,55.0,87.0
1666,253.31890218750007,253.44821250000007,64.0,84.0
1667,252.62924718750006,253.46832743750005,40.0,86.0
1668,253.66372968750005,253.90941928125005,52.0,84.0
1669,253.66372968750005,253.96401696875006,55.0,85.0
1670,253.66372968750005,253.98987903125007,59.0,84.0
1671,254.35338468750007,254.52436165625005,59.0,72.0
1672,254.35338468750007,254.52579843750007,64.0,77.0
1673,254.69821218750005,254.76574090625007,64.0,85.0
1674,254.69821218750005,254.78298228125007,59.0,83.0
1675,254.69821218750005,254.79591331250006,67.0,83.0
1676,255.04303968750006,255.10769484375007,64.0,79.0
1677,255.04303968750006,255.12780978125005,59.0,74.0
1678,254.00855718750006,255.25855687500007,40.0,85.0
1679,255.36344190625007,259.66085462500007,40.0,78.0
1680,255.31602812500006,259.72838334375007,52.0,77.0
1681,255.37062581250007,259.7801074687501,55.0,70.0
1682,255.44821200000007,259.81027987500005,64.0,78.0
