,start,end,pitch,velocity
0,16.249966145833334,16.711503645833332,74.0,111.0
1,16.711503645833332,16.942272395833335,67.0,92.0
2,16.942272395833335,18.555730572916666,69.0,111.0
3,18.557653645833334,18.788422395833333,69.0,111.0
4,18.788422395833333,19.019191145833332,71.0,108.0
5,19.019191145833332,19.480728645833334,72.0,108.0
6,19.480728645833334,19.711497395833334,71.0,97.0
7,19.711497395833334,20.173034895833332,72.0,108.0
8,20.173034895833332,20.634572395833334,74.0,102.0
9,20.634572395833334,23.632643072916668,71.0,105.0
10,23.634566145833332,24.096103645833335,71.0,108.0
11,24.096103645833335,24.326872395833334,64.0,100.0
12,24.326872395833334,25.942253645833333,69.0,102.0
13,25.942253645833333,26.173022395833332,64.0,105.0
14,26.173022395833332,26.403791145833335,66.0,105.0
15,26.403791145833335,26.865328645833333,67.0,102.0
16,26.865328645833333,27.096097395833333,66.0,102.0
17,27.096097395833333,27.557634895833335,67.0,102.0
18,27.557634895833335,28.017249322916665,69.0,97.0
19,28.019172395833333,31.019166145833335,69.0,105.0
20,31.019166145833335,31.480703645833334,74.0,102.0
21,31.480703645833334,31.711472395833333,67.0,92.0
22,31.711472395833333,33.324930572916664,69.0,108.0
23,33.32685364583333,33.557622395833334,69.0,102.0
24,33.557622395833334,33.78839114583333,71.0,108.0
25,33.78839114583333,34.249928645833336,72.0,105.0
26,34.249928645833336,34.48069739583333,71.0,102.0
27,34.48069739583333,34.94223489583333,72.0,105.0
28,34.94223489583333,35.403772395833336,74.0,111.0
29,35.403772395833336,38.40184307291667,71.0,108.0
30,38.40376614583333,38.865303645833336,71.0,111.0
31,38.865303645833336,39.09607239583333,76.0,105.0
32,39.09607239583333,39.55760989583333,71.0,105.0
33,39.55760989583333,40.71145364583333,69.0,105.0
34,40.71145364583333,40.94222239583333,64.0,97.0
35,40.94222239583333,41.172991145833336,66.0,96.0
36,41.172991145833336,41.634528645833335,67.0,97.0
37,41.634528645833335,41.86529739583333,66.0,105.0
38,41.86529739583333,42.326834895833336,67.0,92.0
39,42.326834895833336,42.78644932291667,69.0,105.0
40,42.788372395833335,45.788366145833336,69.0,102.0
41,45.788366145833336,46.249903645833335,67.0,102.0
42,46.249903645833335,46.711441145833334,69.0,114.0
43,46.711441145833334,47.17297864583333,71.0,105.0
44,47.17297864583333,47.40182432291667,74.0,94.0
45,47.403747395833335,48.324899322916664,74.0,94.0
46,48.32682239583333,48.55566807291667,74.0,105.0
47,48.557591145833335,49.019128645833334,74.0,105.0
48,49.019128645833334,49.48066614583333,76.0,105.0
49,49.48066614583333,49.711434895833335,72.0,108.0
50,49.711434895833335,50.40374114583334,74.0,105.0
51,50.40374114583334,51.78835364583333,71.0,105.0
52,51.78835364583333,52.019122395833335,76.0,105.0
53,52.019122395833335,52.24989114583333,78.0,109.0
54,52.24989114583333,52.71142864583334,79.0,105.0
55,52.71142864583334,52.94219739583333,78.0,109.0
56,52.94219739583333,53.86527239583334,79.0,105.0
57,53.86527239583334,54.094118072916665,69.0,100.0
58,54.09604114583333,54.55757864583333,69.0,111.0
59,54.55757864583333,54.786424322916666,76.0,92.0
60,54.788347395833334,55.70949932291667,76.0,111.0
61,55.71142239583333,55.940268072916666,76.0,111.0
62,55.942191145833334,56.401805572916665,76.0,117.0
63,56.40372864583333,56.63257432291667,76.0,100.0
64,56.634497395833336,57.32680364583334,76.0,114.0
65,57.32680364583334,57.78641807291667,74.0,105.0
66,57.788341145833336,61.94217864583334,74.0,108.0
67,61.94217864583334,62.403716145833336,62.0,114.0
68,62.403716145833336,62.865253645833334,67.0,108.0
69,62.865253645833334,63.32679114583333,74.0,100.0
70,63.32679114583333,63.78832864583333,72.0,108.0
71,63.78832864583333,64.01909739583333,71.0,94.0
72,64.01909739583333,64.48063489583333,72.0,108.0
73,64.48063489583333,65.17294114583333,76.0,102.0
74,65.17294114583333,66.09601614583333,74.0,105.0
75,66.09601614583333,66.55755364583334,67.0,117.0
76,66.55755364583334,67.01909114583333,79.0,108.0
77,67.01909114583333,67.94216614583334,78.0,105.0
78,67.94216614583334,68.86524114583334,76.0,108.0
79,68.86524114583334,69.32677864583333,74.0,108.0
80,69.32677864583333,69.78831614583333,76.0,111.0
81,69.78831614583333,70.24985364583334,72.0,105.0
82,70.24985364583334,70.48062239583334,71.0,100.0
83,70.48062239583334,70.94215989583333,72.0,100.0
84,70.94215989583333,71.63446614583333,64.0,108.0
85,71.63446614583333,72.09600364583333,66.0,109.0
86,72.09600364583333,72.55754114583334,67.0,100.0
87,72.55754114583334,73.01907864583333,72.0,102.0
88,73.01907864583333,73.48061614583334,74.0,105.0
89,73.48061614583334,73.94215364583333,76.0,105.0
90,73.94215364583333,74.17292239583334,74.0,97.0
91,74.17292239583334,74.63445989583333,71.0,108.0
92,74.63445989583333,76.71137864583334,69.0,108.0
93,76.71137864583334,77.17291614583334,62.0,114.0
94,77.17291614583334,77.63445364583333,67.0,108.0
95,77.63445364583333,78.09599114583334,74.0,100.0
96,78.09599114583334,78.55752864583333,72.0,108.0
97,78.55752864583333,78.78829739583334,71.0,94.0
98,78.78829739583334,79.24983489583333,72.0,108.0
99,79.24983489583333,79.94214114583333,76.0,102.0
100,79.94214114583333,81.55559932291666,74.0,105.0
101,81.55752239583333,81.78829114583333,74.0,111.0
102,81.78829114583333,82.24790557291666,75.0,105.0
103,82.24982864583333,82.48059739583333,75.0,102.0
104,82.48059739583333,82.94213489583333,76.0,105.0
105,82.94213489583333,83.63251807291667,78.0,112.0
106,83.63444114583334,84.09597864583333,78.0,109.0
107,84.09597864583333,84.32482432291667,79.0,92.0
108,84.32674739583334,86.17097432291666,79.0,102.0
109,86.17289739583333,86.40366614583333,79.0,94.0
110,86.40366614583333,86.86520364583333,78.0,102.0
111,86.86520364583333,87.09597239583333,79.0,100.0
112,87.09597239583333,87.78827864583333,78.0,109.0
113,87.78827864583333,88.01712432291667,76.0,87.0
114,88.01904739583334,91.01711807291667,76.0,102.0
115,91.01904114583333,91.48057864583333,76.0,105.0
116,91.48057864583333,91.94211614583334,71.0,108.0
117,91.94211614583334,92.40365364583333,69.0,111.0
118,92.40365364583333,92.63442239583334,67.0,92.0
119,92.63442239583334,94.48057239583333,74.0,92.0
120,94.48057239583333,94.71134114583333,71.0,97.0
121,94.71134114583333,95.17287864583334,72.0,105.0
122,95.17287864583334,95.63441614583333,71.0,105.0
123,95.63441614583333,96.09595364583333,64.0,105.0
124,96.09595364583333,96.55749114583334,65.0,97.0
125,96.55749114583334,97.48056614583334,66.0,96.0
126,97.48056614583334,98.40364114583333,71.0,97.0
127,98.40364114583333,106.71131614583334,67.0,97.0
128,106.71131614583334,107.17285364583333,74.0,111.0
129,107.17285364583333,107.40362239583334,67.0,92.0
130,107.40362239583334,109.01708057291667,69.0,111.0
131,109.01900364583334,109.24977239583333,69.0,111.0
132,109.24977239583333,109.48054114583333,71.0,108.0
133,109.48054114583333,109.94207864583333,72.0,108.0
134,109.94207864583333,110.17284739583333,71.0,97.0
135,110.17284739583333,110.63438489583334,72.0,108.0
136,110.63438489583334,111.09592239583334,74.0,102.0
137,111.09592239583334,114.09399307291666,71.0,105.0
138,114.09591614583333,114.55745364583333,71.0,108.0
139,114.55745364583333,114.78822239583333,64.0,100.0
140,114.78822239583333,116.40360364583333,69.0,102.0
141,116.40360364583333,116.63437239583334,64.0,105.0
142,116.63437239583334,116.86514114583333,66.0,105.0
143,116.86514114583333,117.32667864583334,67.0,102.0
144,117.32667864583334,117.55744739583334,66.0,102.0
145,117.55744739583334,118.01898489583333,67.0,102.0
146,118.01898489583333,118.47859932291666,69.0,97.0
147,118.48052239583333,121.48051614583333,69.0,105.0
148,121.48051614583333,121.94205364583334,74.0,102.0
149,121.94205364583334,122.17282239583334,67.0,92.0
150,122.17282239583334,123.78628057291667,69.0,108.0
151,123.78820364583333,124.01897239583333,69.0,102.0
152,124.01897239583333,124.24974114583334,71.0,108.0
153,124.24974114583334,124.71127864583333,72.0,105.0
154,124.71127864583333,124.94204739583333,71.0,102.0
155,124.94204739583333,125.40358489583333,72.0,105.0
156,125.40358489583333,125.86512239583334,74.0,111.0
157,125.86512239583334,128.86319307291666,71.0,108.0
158,128.86511614583333,129.32665364583335,71.0,111.0
159,129.32665364583335,129.55742239583333,76.0,105.0
160,129.55742239583333,130.01895989583335,71.0,105.0
161,130.01895989583335,131.17280364583334,69.0,105.0
162,131.17280364583334,131.40357239583332,64.0,97.0
163,131.40357239583332,131.63434114583333,66.0,96.0
164,131.63434114583333,132.09587864583332,67.0,97.0
165,132.09587864583332,132.32664739583333,66.0,105.0
166,132.32664739583333,132.78818489583333,67.0,92.0
167,132.78818489583333,133.24779932291668,69.0,105.0
168,133.24972239583334,136.24971614583333,69.0,102.0
169,136.24971614583333,136.71125364583332,67.0,102.0
170,136.71125364583332,137.17279114583334,69.0,114.0
171,137.17279114583334,137.63432864583334,71.0,105.0
172,137.63432864583334,137.86317432291668,74.0,94.0
173,137.86509739583335,138.78624932291666,74.0,94.0
174,138.78817239583333,139.01701807291667,74.0,105.0
175,139.01894114583334,139.48047864583333,74.0,105.0
176,139.48047864583333,139.94201614583332,76.0,105.0
177,139.94201614583332,140.17278489583333,72.0,108.0
178,140.17278489583333,140.86509114583333,74.0,105.0
179,140.86509114583333,142.24970364583334,71.0,105.0
180,142.24970364583334,142.48047239583335,76.0,105.0
181,142.48047239583335,142.71124114583333,78.0,109.0
182,142.71124114583333,143.17277864583335,79.0,105.0
183,143.17277864583335,143.40354739583333,78.0,109.0
184,143.40354739583333,144.32662239583334,79.0,105.0
185,144.32662239583334,144.55546807291668,69.0,100.0
186,144.55739114583332,145.01892864583334,69.0,111.0
187,145.01892864583334,145.24777432291665,76.0,92.0
188,145.24969739583332,146.17084932291667,76.0,111.0
189,146.17277239583333,146.40161807291668,76.0,111.0
190,146.40354114583334,146.86315557291667,76.0,117.0
191,146.86507864583334,147.09392432291668,76.0,100.0
192,147.09584739583335,147.78815364583335,76.0,114.0
193,147.78815364583335,148.24776807291667,74.0,105.0
194,148.24969114583334,152.40352864583335,74.0,108.0
195,152.40352864583335,152.86506614583334,62.0,114.0
196,152.86506614583334,153.32660364583333,67.0,108.0
197,153.32660364583333,153.78814114583332,74.0,100.0
198,153.78814114583332,154.24967864583334,72.0,108.0
199,154.24967864583334,154.48044739583332,71.0,94.0
200,154.48044739583332,154.94198489583334,72.0,108.0
201,154.94198489583334,155.63429114583334,76.0,102.0
202,155.63429114583334,156.55736614583333,74.0,105.0
203,156.55736614583333,157.01890364583335,67.0,117.0
204,157.01890364583335,157.48044114583334,79.0,108.0
205,157.48044114583334,158.40351614583332,78.0,105.0
206,158.40351614583332,159.32659114583333,76.0,108.0
207,159.32659114583333,159.78812864583332,74.0,108.0
208,159.78812864583332,160.24966614583334,76.0,111.0
209,160.24966614583334,160.71120364583334,72.0,105.0
210,160.71120364583334,160.94197239583335,71.0,100.0
211,160.94197239583335,161.40350989583334,72.0,100.0
212,161.40350989583334,162.09581614583334,64.0,108.0
213,162.09581614583334,162.55735364583333,66.0,109.0
214,162.55735364583333,163.01889114583332,67.0,100.0
215,163.01889114583332,163.48042864583334,72.0,102.0
216,163.48042864583334,163.94196614583333,74.0,105.0
217,163.94196614583333,164.40350364583333,76.0,105.0
218,164.40350364583333,164.63427239583334,74.0,97.0
219,164.63427239583334,165.09580989583333,71.0,108.0
220,165.09580989583333,167.17272864583333,69.0,108.0
221,167.17272864583333,167.63426614583332,62.0,114.0
222,167.63426614583332,168.09580364583334,67.0,108.0
223,168.09580364583334,168.55734114583333,74.0,100.0
224,168.55734114583333,169.01887864583333,72.0,108.0
225,169.01887864583333,169.24964739583334,71.0,94.0
226,169.24964739583334,169.71118489583333,72.0,108.0
227,169.71118489583333,170.40349114583333,76.0,102.0
228,170.40349114583333,172.01694932291667,74.0,105.0
229,172.01887239583334,172.24964114583332,74.0,111.0
230,172.24964114583332,172.70925557291667,75.0,105.0
231,172.71117864583334,172.94194739583332,75.0,102.0
232,172.94194739583332,173.40348489583334,76.0,105.0
233,173.40348489583334,174.09386807291668,78.0,112.0
234,174.09579114583335,174.55732864583334,78.0,109.0
235,174.55732864583334,174.78617432291668,79.0,92.0
236,174.78809739583335,176.63232432291667,79.0,102.0
237,176.63424739583334,176.86501614583332,79.0,94.0
238,176.86501614583332,177.32655364583334,78.0,102.0
239,177.32655364583334,177.55732239583332,79.0,100.0
240,177.55732239583332,178.24962864583333,78.0,109.0
241,178.24962864583333,178.47847432291667,76.0,87.0
242,178.48039739583334,181.47846807291666,76.0,102.0
243,181.48039114583332,181.94192864583334,76.0,105.0
244,181.94192864583334,182.40346614583333,71.0,108.0
245,182.40346614583333,182.86500364583333,69.0,111.0
246,182.86500364583333,183.09577239583334,67.0,92.0
247,183.09577239583334,184.94192239583333,74.0,92.0
248,184.94192239583333,185.17269114583334,71.0,97.0
249,185.17269114583334,185.63422864583333,72.0,105.0
250,185.63422864583333,186.09576614583332,71.0,105.0
251,186.09576614583332,186.55730364583334,64.0,105.0
252,186.55730364583334,187.01884114583333,65.0,97.0
253,187.01884114583333,187.94191614583335,66.0,96.0
254,187.94191614583335,188.86499114583333,71.0,97.0
255,188.86499114583333,190.48037239583334,67.0,97.0
256,190.48037239583334,190.70921807291666,76.0,89.0
257,190.71114114583332,191.17075557291668,76.0,108.0
258,191.17267864583334,191.40344739583333,76.0,102.0
259,191.40344739583333,192.09575364583333,78.0,105.0
260,192.09575364583333,192.32652239583334,76.0,94.0
261,192.32652239583334,193.01690557291667,75.0,102.0
262,193.01882864583334,193.24959739583335,75.0,105.0
263,193.24959739583335,193.71113489583334,76.0,102.0
264,193.71113489583334,194.17267239583333,78.0,105.0
265,194.17267239583333,196.71112864583333,75.0,109.0
266,196.71112864583333,197.17266614583335,71.0,114.0
267,197.17266614583335,197.63420364583334,76.0,108.0
268,197.63420364583334,198.09574114583333,79.0,108.0
269,198.09574114583333,198.55727864583332,78.0,109.0
270,198.55727864583332,198.78612432291666,74.0,105.0
271,198.78804739583333,199.48035364583333,74.0,108.0
272,199.48035364583333,199.94189114583332,71.0,114.0
273,199.94189114583332,201.55534932291667,76.0,100.0
274,201.55727239583334,201.78611807291668,76.0,102.0
275,201.78804114583335,202.24957864583334,76.0,111.0
276,202.24957864583334,202.48034739583335,77.0,100.0
277,202.48034739583335,203.17265364583332,76.0,111.0
278,203.17265364583332,203.63419114583334,74.0,108.0
279,203.63419114583334,204.55726614583332,72.0,108.0
280,204.55726614583332,205.01880364583334,76.0,105.0
281,205.01880364583334,207.09379932291668,74.0,105.0
282,207.09572239583335,207.32649114583333,74.0,97.0
283,207.32649114583333,207.78610557291668,75.0,109.0
284,207.78802864583332,208.01879739583333,75.0,109.0
285,208.01879739583333,208.48033489583332,76.0,105.0
286,208.48033489583332,208.93994932291668,78.0,109.0
287,208.94187239583334,209.63417864583334,78.0,105.0
288,209.63417864583334,209.86302432291666,79.0,97.0
289,209.86494739583333,211.71109739583335,79.0,108.0
290,211.71109739583335,211.94186614583333,70.0,102.0
291,211.94186614583333,212.40340364583332,79.0,108.0
292,212.40340364583332,212.63224932291666,77.0,100.0
293,212.63417239583333,213.32647864583333,77.0,105.0
294,213.32647864583333,213.78801614583332,75.0,109.0
295,213.78801614583332,214.24955364583334,74.0,111.0
296,214.24955364583334,214.71109114583334,72.0,105.0
297,214.71109114583334,218.86492864583334,74.0,108.0
298,218.86492864583334,219.32646614583334,62.0,114.0
299,219.32646614583334,219.78800364583333,67.0,108.0
300,219.78800364583333,220.24954114583335,74.0,100.0
301,220.24954114583335,220.71107864583334,72.0,108.0
302,220.71107864583334,220.94184739583332,71.0,94.0
303,220.94184739583332,221.40338489583334,72.0,108.0
304,221.40338489583334,222.09569114583334,76.0,102.0
305,222.09569114583334,223.01876614583333,74.0,105.0
306,223.01876614583333,223.48030364583335,67.0,117.0
307,223.48030364583335,223.94184114583334,79.0,108.0
308,223.94184114583334,224.86491614583335,78.0,105.0
309,224.86491614583335,225.78799114583333,76.0,108.0
310,225.78799114583333,226.24952864583332,74.0,108.0
311,226.24952864583332,226.71106614583334,76.0,111.0
312,226.71106614583334,227.17260364583333,72.0,105.0
313,227.17260364583333,227.40337239583334,71.0,100.0
314,227.40337239583334,227.86490989583334,72.0,100.0
315,227.86490989583334,228.55721614583334,64.0,108.0
316,228.55721614583334,229.01875364583333,66.0,109.0
317,229.01875364583333,229.48029114583335,67.0,100.0
318,229.48029114583335,229.94182864583334,72.0,102.0
319,229.94182864583334,230.40336614583333,74.0,105.0
320,230.40336614583333,230.86490364583332,76.0,105.0
321,230.86490364583332,231.09567239583333,74.0,97.0
322,231.09567239583333,231.55720989583332,71.0,108.0
323,231.55720989583332,233.63412864583333,69.0,108.0
324,233.63412864583333,234.09566614583335,62.0,114.0
325,234.09566614583335,234.55720364583334,67.0,108.0
326,234.55720364583334,235.01874114583333,74.0,100.0
327,235.01874114583333,235.48027864583332,72.0,108.0
328,235.48027864583332,235.71104739583333,71.0,94.0
329,235.71104739583333,236.17258489583332,72.0,108.0
330,236.17258489583332,236.86489114583333,76.0,102.0
331,236.86489114583333,238.47834932291667,74.0,105.0
332,238.48027239583334,238.71104114583335,74.0,111.0
333,238.71104114583335,239.17065557291667,75.0,105.0
334,239.17257864583334,239.40334739583332,75.0,102.0
335,239.40334739583332,239.86488489583334,76.0,105.0
336,239.86488489583334,240.55526807291668,78.0,112.0
337,240.55719114583334,241.01872864583333,78.0,109.0
338,241.01872864583333,241.24757432291668,79.0,92.0
339,241.24949739583334,243.09372432291667,79.0,102.0
340,243.09564739583334,243.32641614583335,79.0,94.0
341,243.32641614583335,243.78795364583334,78.0,102.0
342,243.78795364583334,244.01872239583332,79.0,100.0
343,244.01872239583332,244.71102864583332,78.0,109.0
344,244.71102864583332,244.93987432291667,76.0,87.0
345,244.94179739583333,247.93986807291668,76.0,102.0
346,247.94179114583335,248.40332864583334,76.0,105.0
347,248.40332864583334,248.86486614583333,71.0,108.0
348,248.86486614583333,249.32640364583332,69.0,111.0
349,249.32640364583332,249.55717239583333,67.0,92.0
350,249.55717239583333,251.40332239583333,74.0,92.0
351,251.40332239583333,251.63409114583334,71.0,97.0
352,251.63409114583334,252.09562864583333,72.0,105.0
353,252.09562864583333,252.55716614583332,71.0,105.0
354,252.55716614583332,253.01870364583334,64.0,105.0
355,253.01870364583334,253.48024114583333,65.0,97.0
356,253.48024114583333,254.40331614583334,66.0,96.0
357,254.40331614583334,255.32639114583333,71.0,97.0
358,255.32639114583333,262.4802223958333,67.0,97.0
359,262.4802223958333,262.71099114583336,71.0,89.0
360,262.71099114583336,263.17674123958335,72.0,100.0
361,263.17674123958335,263.6622339854167,71.0,105.0
362,263.6622339854167,264.1540369854167,64.0,102.0
363,264.1540369854167,264.6458399854167,65.0,97.0
364,264.6458399854167,267.7228940395834,66.0,90.0
365,267.7228940395834,268.6603940395834,71.0,92.0
366,268.6603940395834,271.90466397083344,67.0,94.0
