,start,end,pitch,velocity
0,67.495,67.77833333333334,66.0,100.0
1,67.89500000000001,68.13833333333334,64.0,90.0
2,68.295,68.53833333333334,66.0,112.0
3,68.69500000000001,68.9,64.0,90.0
4,69.095,69.31166666666667,66.0,112.0
5,69.495,69.72666666666667,64.0,93.0
6,69.89500000000001,70.47500000000001,66.0,112.0
7,70.69500000000001,71.26,68.0,112.0
8,71.495,72.295,68.0,112.0
9,72.295,73.60833333333333,61.0,95.0
10,73.89500000000001,74.12333333333333,66.0,117.0
11,74.295,74.5,64.0,92.0
12,74.69500000000001,74.92833333333334,66.0,122.0
13,75.095,75.36833333333334,64.0,93.0
14,75.495,75.86500000000001,66.0,117.0
15,75.89500000000001,76.15833333333333,68.0,112.0
16,76.295,76.525,68.0,112.0
17,76.495,77.31166666666667,71.0,96.0
18,77.495,77.855,66.0,107.0
19,77.89500000000001,79.60666666666667,68.0,112.0
20,80.295,80.57000000000001,66.0,102.0
21,80.69500000000001,80.92666666666668,64.0,85.0
22,81.095,81.42500000000001,66.0,99.0
23,81.495,81.72500000000001,64.0,78.0
24,81.89500000000001,82.17500000000001,66.0,100.0
25,82.295,82.51666666666667,64.0,79.0
26,82.69500000000001,83.12333333333333,66.0,107.0
27,83.495,84.10666666666667,68.0,122.0
28,84.295,85.095,68.0,122.0
29,85.095,86.37166666666667,61.0,93.0
30,86.69500000000001,86.98833333333334,61.0,100.0
31,87.095,87.36833333333334,59.0,86.0
32,87.495,87.87333333333333,61.0,96.0
33,88.295,88.58666666666667,64.0,97.0
34,88.69500000000001,88.95666666666668,68.0,99.0
35,89.095,89.64166666666667,66.0,107.0
36,89.495,89.74833333333333,64.0,97.0
37,89.89500000000001,90.15666666666667,61.0,102.0
38,90.295,90.54333333333334,59.0,85.0
39,90.69500000000001,92.37833333333334,61.0,100.0
40,93.09500000000001,93.38333333333334,68.0,100.0
41,93.495,93.72333333333334,71.0,97.0
42,93.89500000000001,94.61833333333334,73.0,127.0
43,95.09500000000001,95.35000000000001,75.0,122.0
44,95.495,95.80000000000001,76.0,112.0
45,95.89500000000001,96.25166666666668,75.0,127.0
46,96.295,96.66833333333334,73.0,112.0
47,96.69500000000001,97.13166666666667,71.0,112.0
48,97.09500000000001,98.66000000000001,68.0,96.0
49,99.495,99.79333333333334,68.0,117.0
50,99.89500000000001,100.215,71.0,100.0
51,100.295,100.96166666666667,73.0,112.0
52,101.495,101.76333333333334,75.0,127.0
53,101.89500000000001,102.16000000000001,76.0,127.0
54,102.295,102.55333333333334,75.0,127.0
55,102.69500000000001,102.91333333333334,73.0,122.0
56,103.09500000000001,103.47833333333334,71.0,100.0
57,103.495,105.53,73.0,112.0
58,105.89500000000001,106.12333333333333,68.0,122.0
59,106.295,106.54666666666667,71.0,102.0
60,106.69500000000001,106.92,73.0,127.0
61,107.09500000000001,107.41333333333334,71.0,112.0
62,107.495,107.67166666666667,73.0,127.0
63,107.89500000000001,108.24666666666667,80.0,127.0
64,108.295,109.33333333333334,78.0,127.0
65,109.89500000000001,110.16666666666667,78.0,127.0
66,110.295,110.59666666666668,76.0,102.0
67,110.69500000000001,110.93,75.0,122.0
68,111.09500000000001,111.37500000000001,73.0,122.0
69,111.495,112.15666666666668,68.0,107.0
70,112.295,112.53166666666668,68.0,122.0
71,112.69500000000001,112.97000000000001,71.0,102.0
72,113.09500000000001,113.39,73.0,117.0
73,113.495,113.775,71.0,107.0
74,113.89500000000001,114.08333333333334,73.0,117.0
75,114.295,114.60333333333334,80.0,122.0
76,114.69500000000001,115.27166666666668,78.0,127.0
77,115.09500000000001,115.61000000000001,76.0,112.0
78,115.89500000000001,116.09,73.0,122.0
79,116.09500000000001,116.29833333333335,71.0,89.0
80,116.295,118.36833333333334,73.0,122.0
81,144.29500000000002,144.57833333333335,66.0,100.0
82,144.69500000000002,144.93833333333333,64.0,90.0
83,145.095,145.33833333333334,66.0,112.0
84,145.495,145.70000000000002,64.0,90.0
85,145.895,146.11166666666668,66.0,112.0
86,146.29500000000002,146.52666666666667,64.0,93.0
87,146.69500000000002,147.275,66.0,112.0
88,147.495,148.06,68.0,112.0
89,148.29500000000002,149.095,68.0,112.0
90,149.095,150.40833333333333,61.0,95.0
91,150.69500000000002,150.92333333333335,66.0,117.0
92,151.095,151.3,64.0,92.0
93,151.495,151.72833333333335,66.0,122.0
94,151.895,152.16833333333335,64.0,93.0
95,152.29500000000002,152.66500000000002,66.0,117.0
96,152.69500000000002,152.95833333333334,68.0,112.0
97,153.095,153.32500000000002,68.0,112.0
98,153.29500000000002,154.11166666666668,71.0,96.0
99,154.29500000000002,154.655,66.0,107.0
100,154.69500000000002,156.40666666666667,68.0,112.0
101,157.095,157.37,66.0,102.0
102,157.495,157.7266666666667,64.0,85.0
103,157.895,158.22500000000002,66.0,99.0
104,158.29500000000002,158.525,64.0,78.0
105,158.69500000000002,158.97500000000002,66.0,100.0
106,159.095,159.31666666666666,64.0,79.0
107,159.495,159.92333333333335,66.0,107.0
108,160.29500000000002,160.90666666666667,68.0,122.0
109,161.095,161.895,68.0,122.0
110,161.895,163.17166666666668,61.0,93.0
111,163.495,163.78833333333336,61.0,100.0
112,163.895,164.16833333333335,59.0,86.0
113,164.29500000000002,164.67333333333335,61.0,96.0
114,165.095,165.38666666666668,64.0,97.0
115,165.495,165.7566666666667,68.0,99.0
116,165.895,166.4416666666667,66.0,107.0
117,166.29500000000002,166.54833333333335,64.0,97.0
118,166.69500000000002,166.95666666666668,61.0,102.0
119,167.095,167.34333333333333,59.0,85.0
120,167.495,169.17833333333334,61.0,100.0
121,169.895,170.18333333333334,68.0,100.0
122,170.29500000000002,170.52333333333334,71.0,97.0
123,170.69500000000002,171.41833333333335,73.0,127.0
124,171.895,172.15,75.0,122.0
125,172.29500000000002,172.60000000000002,76.0,112.0
126,172.69500000000002,173.05166666666668,75.0,127.0
127,173.095,173.46833333333333,73.0,112.0
128,173.495,173.93166666666667,71.0,112.0
129,173.895,175.46,68.0,96.0
130,176.29500000000002,176.59333333333333,68.0,117.0
131,176.69500000000002,177.01500000000001,71.0,100.0
132,177.095,177.76166666666668,73.0,112.0
133,178.29500000000002,178.56333333333333,75.0,127.0
134,178.69500000000002,178.96,76.0,127.0
135,179.095,179.35333333333335,75.0,127.0
136,179.495,179.71333333333334,73.0,122.0
137,179.895,180.27833333333334,71.0,100.0
138,180.29500000000002,182.33,73.0,112.0
139,182.69500000000002,182.92333333333335,68.0,122.0
140,183.095,183.3466666666667,71.0,102.0
141,183.495,183.72,73.0,127.0
142,183.895,184.21333333333334,71.0,112.0
143,184.29500000000002,184.4716666666667,73.0,127.0
144,184.69500000000002,185.04666666666668,80.0,127.0
145,185.095,186.13333333333335,78.0,127.0
146,186.69500000000002,186.96666666666667,78.0,127.0
147,187.095,187.39666666666668,76.0,102.0
148,187.495,187.73000000000002,75.0,122.0
149,187.895,188.175,73.0,122.0
150,188.29500000000002,188.95666666666668,68.0,107.0
151,189.095,189.33166666666668,68.0,122.0
152,189.495,189.77,71.0,102.0
153,189.895,190.19000000000003,73.0,117.0
154,190.29500000000002,190.57500000000002,71.0,107.0
155,190.69500000000002,190.88333333333335,73.0,117.0
156,191.095,191.40333333333334,80.0,122.0
157,191.495,192.0716666666667,78.0,127.0
158,191.895,192.41000000000003,76.0,112.0
159,192.69500000000002,192.89000000000001,73.0,122.0
160,192.895,193.09833333333336,71.0,89.0
161,193.095,195.16833333333335,73.0,122.0
162,196.29500000000002,196.60833333333335,73.0,127.0
163,196.69500000000002,197.03500000000003,80.0,122.0
164,197.095,197.44333333333336,78.0,127.0
165,197.495,197.72,76.0,100.0
166,197.895,198.96,73.0,112.0
167,199.29500000000002,199.375,73.0,117.0
168,199.495,199.75333333333336,73.0,122.0
169,199.895,200.21,80.0,107.0
170,200.29500000000002,200.55166666666668,78.0,122.0
171,200.69500000000002,200.96333333333334,76.0,100.0
172,201.095,202.2216666666667,73.0,122.0
173,202.69500000000002,202.97333333333336,73.0,122.0
174,203.095,203.35000000000002,76.0,99.0
175,203.495,203.77833333333334,78.0,127.0
176,203.895,204.24666666666667,76.0,117.0
177,204.29500000000002,204.70833333333334,75.0,122.0
178,204.69500000000002,204.99666666666667,73.0,122.0
179,205.09500000000003,205.43666666666667,71.0,107.0
180,205.495,205.82666666666668,66.0,112.0
181,205.895,207.26000000000002,68.0,117.0
182,209.09500000000003,209.40833333333336,73.0,127.0
183,209.495,209.835,80.0,122.0
184,209.895,210.24333333333334,78.0,127.0
185,210.29500000000002,210.52,76.0,100.0
186,210.69500000000002,211.21333333333334,73.0,112.0
187,211.495,211.70833333333334,71.0,112.0
188,211.895,212.04000000000002,73.0,117.0
189,212.29500000000002,212.55333333333334,73.0,122.0
190,212.69500000000002,213.01000000000002,80.0,107.0
191,213.09500000000003,213.3516666666667,78.0,122.0
192,213.495,213.76333333333335,76.0,100.0
193,213.895,215.02166666666668,73.0,122.0
194,215.495,215.77333333333334,73.0,122.0
195,215.895,216.15,76.0,99.0
196,216.29500000000002,216.57833333333335,78.0,127.0
197,216.69500000000002,217.04666666666668,76.0,117.0
198,217.09500000000003,217.50833333333335,75.0,122.0
199,217.495,217.76666666666668,71.0,107.0
200,217.895,218.18166666666667,68.0,100.0
201,218.29500000000002,218.93333333333334,73.0,112.0
202,219.09500000000003,221.51000000000002,73.0,127.0
203,233.895,234.12333333333333,68.0,122.0
204,234.29500000000002,234.54666666666668,71.0,102.0
205,234.69500000000002,234.92000000000002,73.0,127.0
206,235.09500000000003,235.41333333333336,71.0,112.0
207,235.495,235.67166666666668,73.0,127.0
208,235.895,236.24666666666667,80.0,127.0
209,236.29500000000002,237.33333333333334,78.0,127.0
210,237.895,238.16666666666669,78.0,127.0
211,238.29500000000002,238.5966666666667,76.0,102.0
212,238.69500000000002,238.93,75.0,122.0
213,239.09500000000003,239.37500000000003,73.0,122.0
214,239.495,240.1566666666667,68.0,107.0
215,240.29500000000002,240.5316666666667,68.0,122.0
216,240.69500000000002,240.97000000000003,71.0,102.0
217,241.09500000000003,241.39000000000001,73.0,117.0
218,241.495,241.775,71.0,107.0
219,241.895,242.08333333333334,73.0,117.0
220,242.29500000000002,242.60333333333335,80.0,122.0
221,242.69500000000002,243.27166666666668,78.0,127.0
222,243.09500000000003,243.61,76.0,112.0
223,243.895,244.09,73.0,122.0
224,244.09500000000003,244.29833333333335,71.0,89.0
225,244.29500000000002,245.895,73.0,122.0
226,246.69500000000002,246.95833333333334,68.0,112.0
227,247.09500000000003,247.35500000000002,71.0,90.0
228,247.495,247.77833333333334,73.0,122.0
229,247.895,248.19833333333335,71.0,102.0
230,248.29500000000002,248.49666666666667,73.0,122.0
231,248.82833333333335,249.13666666666668,80.0,127.0
232,249.22833333333335,250.10000000000002,78.0,127.0
233,249.94500000000002,251.38333333333335,76.0,122.0
234,252.27166666666668,253.315624175,73.0,117.0
235,253.47534614166668,254.23923380833335,71.0,122.0
236,254.37638636666668,258.4783306666667,73.0,127.0
