,start,end,pitch,velocity
0,47.872,48.138,67.0,102.0
1,48.352000000000004,48.454,67.0,92.0
2,48.592,48.684,67.0,72.0
3,48.832,49.052,67.0,97.0
4,49.072,49.322,71.0,97.0
5,49.312,49.774,74.0,96.0
6,49.792,50.752,71.0,112.0
7,51.712,52.278,69.0,112.0
8,52.432,52.676,67.0,97.0
9,52.672000000000004,53.104,71.0,117.0
10,53.152,53.6,69.0,97.0
11,53.632,54.492000000000004,67.0,95.0
12,55.312,55.442,67.0,97.0
13,55.552,55.812,67.0,93.0
14,56.032000000000004,56.132,67.0,95.0
15,56.272,56.36,67.0,99.0
16,56.512,56.762,67.0,96.0
17,56.752,56.97,71.0,102.0
18,56.992000000000004,57.42,74.0,97.0
19,57.472,58.254,71.0,112.0
20,58.912,59.120000000000005,67.0,117.0
21,59.152,59.258,69.0,96.0
22,59.392,59.816,69.0,112.0
23,60.112,60.316,67.0,122.0
24,60.352000000000004,60.79,64.0,95.0
25,60.832,61.13,67.0,100.0
26,61.312000000000005,62.266,67.0,107.0
27,63.232,63.79,72.0,112.0
28,63.952,64.06400000000001,72.0,107.0
29,64.19200000000001,64.654,72.0,107.0
30,64.912,65.116,69.0,102.0
31,65.152,65.926,71.0,127.0
32,66.592,66.82600000000001,67.0,112.0
33,66.83200000000001,67.102,69.0,100.0
34,67.072,67.574,72.0,102.0
35,67.792,67.92,72.0,117.0
36,68.032,68.364,72.0,112.0
37,68.512,68.932,74.0,122.0
38,68.992,69.682,71.0,122.0
39,70.912,71.476,69.0,122.0
40,71.632,71.886,67.0,96.0
41,71.872,72.294,71.0,127.0
42,72.352,72.818,69.0,112.0
43,72.83200000000001,73.758,67.0,102.0
44,74.752,75.208,69.0,100.0
45,75.47200000000001,75.672,67.0,100.0
46,75.712,76.166,64.0,97.0
47,76.19200000000001,76.638,69.0,97.0
48,76.672,77.628,67.0,99.0
49,86.032,86.098,67.0,107.0
50,86.272,86.538,67.0,102.0
51,86.752,86.854,67.0,92.0
52,86.992,87.084,67.0,72.0
53,87.232,87.452,67.0,97.0
54,87.712,87.912,74.0,112.0
55,87.952,88.048,69.0,95.0
56,88.19200000000001,89.142,71.0,112.0
57,89.872,89.946,71.0,112.0
58,90.112,90.678,69.0,112.0
59,90.83200000000001,91.07600000000001,67.0,97.0
60,91.072,91.504,71.0,117.0
61,91.552,92.0,69.0,97.0
62,92.032,92.892,67.0,95.0
63,93.71437725,93.84489928125001,67.0,97.0
64,93.955341,94.21638506250001,67.0,93.0
65,94.4372685,94.5376700625,67.0,95.0
66,94.67823225000001,94.766585625,67.0,99.0
67,94.919196,95.17019990625,67.0,96.0
68,95.16015975,95.37903515625001,71.0,102.0
69,95.40112350000001,95.83084218750001,74.0,97.0
70,95.88305100000001,96.66819121875001,71.0,112.0
71,97.3288335,97.53766875000001,67.0,117.0
72,97.56979725000001,97.67622290625,69.0,96.0
73,97.810761,98.236463625,69.0,112.0
74,98.53365225,98.73847143750001,67.0,122.0
75,98.77461600000001,99.21437484375001,64.0,95.0
76,99.2565435,99.55574015625001,67.0,100.0
77,99.738471,100.69630190625,67.0,107.0
78,101.66618100000001,102.22642171875,72.0,112.0
79,102.38907225,102.50152200000001,72.0,107.0
80,102.630036,103.09389121875,72.0,107.0
81,103.35292725000001,103.5577464375,69.0,102.0
82,103.59389100000001,104.37099909375,71.0,127.0
83,105.0396735,105.27461315625001,67.0,112.0
84,105.28063725000001,105.55172146875,69.0,100.0
85,105.521601,106.02561684375,72.0,102.0
86,106.24449225000001,106.37300625,72.0,117.0
87,106.485456,106.8187891875,72.0,112.0
88,106.96738350000001,107.38907006250001,74.0,122.0
89,107.44931100000001,108.14208178125,71.0,122.0
90,109.37702100000001,109.94328581250001,69.0,122.0
91,110.09991225,110.35493221875001,67.0,96.0
92,110.34087600000001,110.76457059375001,71.0,127.0
93,110.8228035,111.29067478125,69.0,112.0
94,111.304731,112.23444946875,67.0,102.0
95,113.23244100000001,113.690272125,69.0,100.0
96,113.95533225000001,114.156135375,67.0,100.0
97,114.196296,114.65211909375,64.0,97.0
98,114.6782235,115.12601446875001,69.0,97.0
99,115.16015100000001,116.11998993750001,67.0,99.0
100,132.509541,133.10405500000002,64.0,100.0
101,133.23005500000002,133.334055,64.0,93.0
102,133.470055,133.906055,64.0,95.0
103,133.95005500000002,134.382055,71.0,107.0
104,134.430055,135.392055,69.0,117.0
105,135.870055,136.042055,69.0,100.0
106,136.11005500000002,136.244055,71.0,102.0
107,136.350055,136.844055,72.0,127.0
108,137.070055,137.17005500000002,72.0,122.0
109,137.310055,137.594055,69.0,112.0
110,137.55005500000001,137.780055,71.0,99.0
111,137.790055,138.190055,69.0,92.0
112,138.270055,138.8861502625,67.0,95.0
113,140.17583286666667,140.65797574791668,64.0,99.0
114,140.89011861666665,140.97940433541666,64.0,96.0
115,141.12821386666667,141.44964245416668,64.0,102.0
116,141.60440436666667,141.96551549583333,71.0,117.0
117,142.08059486666667,142.90003935208333,69.0,122.0
118,143.50916636666668,143.7194838375,69.0,107.0
119,143.74726161666666,143.8623409875,71.0,93.0
120,143.98535686666668,144.51313467083332,72.0,122.0
121,144.69964261666667,144.898055325,71.0,102.0
122,144.93773786666668,145.3385315375,72.0,122.0
123,145.41392836666665,145.71551568333334,74.0,112.0
124,145.89011886666665,146.41392841666666,74.0,127.0
125,155.46545973333335,156.05820170833334,76.0,127.0
126,156.19126623333332,156.30013720833333,76.0,107.0
127,156.43320173333333,156.95134692916668,76.0,122.0
128,157.15900823333334,157.37070179583333,72.0,102.0
129,157.40094373333332,158.2739276625,74.0,122.0
130,159.33642773333332,159.7981213125,74.0,122.0
131,160.06223423333333,160.15094391666668,74.0,107.0
132,160.30416973333334,160.7537665375,74.0,127.0
133,161.02997623333334,161.19933108333333,69.0,99.0
134,161.27191173333333,161.96142790833335,71.0,127.0
135,162.72352473333333,162.83844409583332,69.0,99.0
136,162.96546023333335,163.06626669166667,71.0,97.0
137,163.20739573333333,163.68320221666667,72.0,122.0
138,163.93320223333333,164.0440893375,72.0,107.0
139,164.17513773333334,164.4916700125,72.0,102.0
140,164.65900873333334,164.98360552916665,74.0,117.0
141,165.14287973333333,165.72957332083334,71.0,112.0
142,166.59449273333334,166.69529919166666,69.0,99.0
143,166.83642823333332,166.93118630416666,71.0,107.0
144,167.07836373333333,167.59650892916667,72.0,122.0
145,167.80417023333334,167.9150573375,72.0,122.0
146,168.04610573333332,168.37876704583334,72.0,122.0
147,168.52997673333334,168.88078320833333,74.0,117.0
148,169.01384773333334,169.63481551666666,71.0,127.0
149,186.25042786666666,186.51431676875,67.0,102.0
150,186.72661836666666,186.82780884791666,67.0,92.0
151,186.96471361666667,187.0559834625,67.0,72.0
152,187.20280886666666,187.42106284583332,67.0,97.0
153,187.44090411666667,187.68892000208334,71.0,97.0
154,187.67899936666666,188.13733272291665,74.0,96.0
155,188.15518986666666,189.10757086666666,71.0,112.0
156,190.05995186666667,190.62145983125,69.0,112.0
157,190.77423761666665,191.01630112083333,67.0,97.0
158,191.01233286666667,191.44090431666666,71.0,117.0
159,191.48852336666667,191.93296783333332,69.0,97.0
160,191.96471386666667,192.8178885125,67.0,95.0
161,193.63138061666666,193.76034887708335,67.0,97.0
162,193.86947586666668,194.12846000000002,67.0,93.0
163,194.34846000000002,194.44846,67.0,95.0
164,194.58846000000003,194.67646000000002,67.0,99.0
165,194.82846,195.07846,67.0,96.0
166,195.06846000000002,195.28646,71.0,102.0
167,195.30846000000003,195.73646000000002,74.0,97.0
168,195.78846000000001,196.5757342375,71.0,112.0
169,197.23904073333333,197.44871816666668,67.0,117.0
170,197.48097623333334,197.58783107916668,69.0,96.0
171,197.72291173333335,198.15033111666668,69.0,112.0
172,198.44871823333332,198.65436340833332,67.0,122.0
173,198.69065373333333,199.13218602083333,64.0,95.0
174,199.17452473333333,199.47492797916667,67.0,100.0
175,199.65839573333332,200.62008934583332,67.0,107.0
176,201.59387973333332,202.15637977083333,72.0,112.0
177,202.31968623333333,202.43258946666666,72.0,107.0
178,202.56162173333334,203.02734757083334,72.0,107.0
179,203.28742823333334,203.49307340833334,69.0,102.0
180,203.52936373333333,204.30960572083333,71.0,127.0
181,204.98097673333334,205.21686384583333,67.0,112.0
182,205.22291223333335,205.49508967083332,69.0,100.0
183,205.46484773333333,205.97089615416667,72.0,102.0
184,206.19065423333333,206.3196865,72.0,117.0
185,206.43258973333334,206.767267175,72.0,112.0
186,206.91646073333334,207.33984785833334,74.0,122.0
187,207.40033173333333,208.09589629583334,71.0,122.0
188,209.33581573333333,209.90436415833332,69.0,122.0
189,210.06162223333334,210.3176706375,67.0,96.0
190,210.30355773333332,210.7289609875,71.0,127.0
191,210.78742873333334,211.25718682916667,69.0,112.0
192,211.27129973333334,212.2047675375,67.0,102.0
193,213.20678373333334,213.66646118333333,69.0,100.0
194,213.93259023333334,214.13420315,67.0,100.0
195,214.17452573333333,214.63218705416668,64.0,97.0
196,214.65839673333335,215.1079935375,69.0,97.0
197,215.14226773333334,216.105977475,67.0,99.0
198,224.46075261666667,224.52622881041665,67.0,107.0
199,224.69884786666665,224.96273676875,67.0,102.0
200,225.17503836666666,225.27622884791666,67.0,92.0
201,225.41313361666667,225.5044034625,67.0,72.0
202,225.65122886666666,225.86948284583332,67.0,97.0
203,226.12741936666666,226.325832075,74.0,112.0
204,226.36551461666667,226.46075271666666,69.0,95.0
205,226.60360986666666,227.54607023124998,71.0,112.0
206,228.27027661666668,228.34368931875,71.0,112.0
207,228.50837186666666,229.06987983125,69.0,112.0
208,229.22265761666665,229.46472112083333,67.0,97.0
209,229.46075286666667,229.88932431666666,71.0,117.0
210,229.93694336666667,230.38138783333332,69.0,97.0
211,230.41313386666667,231.2663085125,67.0,95.0
212,232.07980061666666,232.20876887708334,67.0,97.0
213,232.31789586666667,232.57688000000002,67.0,93.0
214,232.79688000000002,232.89688,67.0,95.0
215,233.03688000000002,233.12488000000002,67.0,99.0
216,233.27688,233.52688,67.0,96.0
217,233.51688000000001,233.73488,71.0,102.0
218,233.75688000000002,234.18488000000002,74.0,97.0
219,234.23688,235.0241542375,71.0,112.0
220,235.68746073333332,235.89713816666668,67.0,117.0
221,235.92939623333334,236.03625107916668,69.0,96.0
222,236.17133173333335,236.59875111666668,69.0,112.0
223,236.89713823333332,237.10278340833332,67.0,122.0
224,237.13907373333333,237.58060602083333,64.0,95.0
225,237.62294473333333,237.92334797916666,67.0,100.0
226,238.10681573333332,239.06850934583332,67.0,107.0
227,240.04229973333332,240.60479977083332,72.0,112.0
228,240.76810623333333,240.88100946666665,72.0,107.0
229,241.01004173333334,241.47576757083334,72.0,107.0
230,241.73584823333334,241.94149340833334,69.0,102.0
231,241.97778373333333,242.75802572083333,71.0,127.0
232,243.42939673333333,243.66528384583333,67.0,112.0
233,243.67133223333335,243.94350967083332,69.0,100.0
234,243.91326773333333,244.41931615416667,72.0,102.0
235,244.63907423333333,244.7681065,72.0,117.0
236,244.88100973333334,245.215687175,72.0,112.0
237,245.36488073333334,245.78826785833334,74.0,122.0
238,245.84875173333333,246.54431629583334,71.0,122.0
239,247.78423573333333,248.349268,69.0,122.0
240,248.505268,248.759268,67.0,96.0
241,248.74526799999998,249.16726799999998,71.0,127.0
242,249.225268,249.69126799999998,69.0,112.0
243,249.705268,250.63126799999998,67.0,102.0
244,251.62526799999998,252.081268,69.0,100.0
245,252.34526799999998,252.545268,67.0,100.0
246,252.58526799999999,253.039268,64.0,97.0
247,253.06526799999997,253.511268,69.0,97.0
248,253.545268,254.50126799999998,67.0,99.0
249,270.825268,271.413268,76.0,127.0
250,271.54526799999996,271.65326799999997,76.0,107.0
251,271.785268,272.299268,76.0,122.0
252,272.505268,272.715268,72.0,102.0
253,272.745268,273.611268,74.0,122.0
254,274.66526799999997,275.123268,74.0,122.0
255,275.385268,275.47326799999996,74.0,107.0
256,275.625268,276.071268,74.0,127.0
257,276.345268,276.513268,69.0,99.0
258,276.585268,277.269268,71.0,127.0
259,278.025268,278.139268,69.0,99.0
260,278.265268,278.365268,71.0,97.0
261,278.505268,278.977268,72.0,122.0
262,279.22526799999997,279.335268,72.0,107.0
263,279.465268,279.779268,72.0,102.0
264,279.945268,280.267268,74.0,117.0
265,280.42526799999996,281.007268,71.0,112.0
266,281.865268,281.965268,69.0,99.0
267,282.10526799999997,282.19926799999996,71.0,107.0
268,282.345268,282.859268,72.0,122.0
269,283.065268,283.17526799999996,72.0,122.0
270,283.305268,283.635268,72.0,122.0
271,283.785268,284.133268,74.0,117.0
272,284.265268,284.881268,71.0,127.0
273,289.54526799999996,289.655268,69.0,102.0
274,289.785268,289.869268,71.0,107.0
275,290.025268,290.56926799999997,72.0,127.0
276,290.745268,290.841268,72.0,127.0
277,290.985268,291.303268,72.0,117.0
278,291.465268,291.785268,74.0,122.0
279,291.945268,293.273268,71.0,127.0
