,start,end,pitch,velocity
0,2.512,2.744,59.0,59.0
1,2.2720000000000002,2.818,55.0,77.0
2,2.032,2.858,50.0,42.0
3,1.792,3.182,43.0,95.0
4,2.992,3.212,50.0,39.0
5,3.472,3.702,55.0,80.0
6,3.232,3.72,59.0,89.0
7,2.7520000000000002,3.722,62.0,99.0
8,4.192,4.95,52.0,74.0
9,3.712,4.954,40.0,72.0
10,3.952,4.994,47.0,35.0
11,4.432,5.126,59.0,69.0
12,4.672,5.612,67.0,99.0
13,5.152,5.622,64.0,99.0
14,5.392,5.64,59.0,89.0
15,6.112,6.732,52.0,60.0
16,6.832,6.978,52.0,60.0
17,5.632,7.0520000000000005,45.0,86.0
18,6.5920000000000005,7.526,64.0,99.0
19,7.072,7.53,60.0,96.0
20,7.312,7.542,57.0,66.0
21,8.032,8.4,55.0,84.0
22,8.272,8.502,59.0,71.0
23,7.792,8.58,50.0,45.0
24,8.992,9.324,57.0,95.0
25,7.5520000000000005,9.364,43.0,75.0
26,8.752,9.468,50.0,35.0
27,9.232,9.546,59.0,87.0
28,8.512,9.594,62.0,99.0
29,9.952,10.464,50.0,59.0
30,10.192,10.532,55.0,75.0
31,9.472,11.044,43.0,99.0
32,10.912,11.136000000000001,55.0,89.0
33,10.672,11.138,59.0,84.0
34,10.432,11.156,62.0,99.0
35,11.152000000000001,11.324,42.0,89.0
36,11.872,12.466000000000001,52.0,74.0
37,11.392,12.818,40.0,71.0
38,12.112,12.844,55.0,69.0
39,11.632,12.872,47.0,50.0
40,12.592,12.98,52.0,69.0
41,13.072000000000001,13.27,55.0,81.0
42,12.832,13.282,59.0,86.0
43,12.352,13.346,64.0,99.0
44,13.792,14.086,57.0,95.0
45,13.552,14.4,52.0,54.0
46,14.512,14.744,52.0,63.0
47,13.312000000000001,14.782,45.0,81.0
48,14.032,14.876,61.0,75.0
49,14.992,15.24,61.0,84.0
50,14.272,15.276,64.0,99.0
51,14.752,15.278,57.0,86.0
52,15.712,16.048000000000002,55.0,90.0
53,15.952,16.16,59.0,66.0
54,15.472,16.332,50.0,66.0
55,16.432,16.684,50.0,63.0
56,15.232000000000001,16.852,43.0,71.0
57,16.672,17.082,59.0,99.0
58,16.192,17.098,62.0,99.0
59,16.912,17.17,55.0,95.0
60,17.632,18.188,48.0,99.0
61,17.152,18.406,36.0,99.0
62,17.392,18.438,43.0,51.0
63,17.872,18.466,55.0,99.0
64,18.352,18.61,48.0,99.0
65,18.112000000000002,19.068,64.0,99.0
66,18.592,19.072,60.0,99.0
67,18.832,19.084,55.0,99.0
68,19.552,19.81,55.0,96.0
69,19.792,20.014,59.0,99.0
70,19.312,20.14,50.0,51.0
71,19.072,20.734,43.0,77.0
72,20.272000000000002,20.948,50.0,99.0
73,20.512,20.948,59.0,99.0
74,20.032,20.966,62.0,99.0
75,20.752,20.978,55.0,95.0
76,21.472,22.036,48.0,96.0
77,20.992,22.244,36.0,95.0
78,21.232,22.292,43.0,59.0
79,21.712,22.37,55.0,89.0
80,22.192,22.426000000000002,48.0,65.0
81,22.432000000000002,22.888,60.0,93.0
82,21.952,22.902,64.0,99.0
83,22.672,22.914,55.0,99.0
84,23.392,23.688,55.0,93.0
85,23.632,23.854,59.0,99.0
86,23.152,23.98,50.0,42.0
87,22.912,24.32,43.0,81.0
88,24.112000000000002,24.742,50.0,69.0
89,24.352,24.776,59.0,95.0
90,24.592,24.836000000000002,55.0,96.0
91,23.872,24.838,62.0,99.0
92,25.312,25.82,52.0,74.0
93,25.072,26.122,49.0,99.0
94,25.552,26.164,57.0,78.0
95,26.032,26.182000000000002,52.0,63.0
96,24.832,26.192,45.0,90.0
97,26.272000000000002,26.718,61.0,99.0
98,25.792,26.728,64.0,99.0
99,26.512,26.754,57.0,99.0
100,27.232,27.826,52.0,80.0
101,26.752,28.188,40.0,75.0
102,26.992,28.228,47.0,39.0
103,27.472,28.254,59.0,95.0
104,27.952,28.342000000000002,52.0,65.0
105,28.192,28.584,64.0,99.0
106,27.712,28.592000000000002,67.0,99.0
107,28.432000000000002,28.69,59.0,95.0
108,28.672,29.48,45.0,84.0
109,29.152,29.490000000000002,64.0,99.0
110,28.912,29.586000000000002,52.0,33.0
111,29.392,29.632,57.0,99.0
112,29.632,30.076,48.0,99.0
113,29.872,30.580000000000002,60.0,99.0
114,30.112000000000002,30.584,64.0,99.0
115,30.352,30.61,67.0,93.0
116,31.072,31.652,55.0,99.0
117,30.592000000000002,32.394,43.0,99.0
118,31.792,32.438,55.0,89.0
119,32.272,32.466,67.0,53.0
120,32.032000000000004,32.47,69.0,80.0
121,31.552,32.508,71.0,99.0
122,31.312,32.534,62.0,99.0
123,30.832,32.56,50.0,44.0
124,33.232,33.58,57.0,63.0
125,32.992,33.884,55.0,66.0
126,33.472,34.046,62.0,99.0
127,32.512,34.312,43.0,72.0
128,33.952,34.442,59.0,60.0
129,33.712,34.446,57.0,75.0
130,34.192,34.464,62.0,75.0
131,32.752,34.496,50.0,30.0
132,35.152,35.480000000000004,62.0,66.0
133,34.912,35.834,55.0,59.0
134,35.392,35.934,72.0,99.0
135,34.432,36.164,43.0,30.0
136,35.632,36.22,71.0,89.0
137,35.872,36.274,69.0,86.0
138,34.672000000000004,36.314,50.0,59.0
139,36.112,36.364,67.0,71.0
140,36.832,37.438,55.0,72.0
141,36.352000000000004,38.102000000000004,43.0,80.0
142,37.312,38.13,71.0,99.0
143,37.792,38.216,69.0,66.0
144,36.592,38.294000000000004,50.0,39.0
145,37.552,38.368,55.0,71.0
146,37.072,38.578,62.0,59.0
147,38.032000000000004,38.83,67.0,42.0
148,38.992,39.346000000000004,72.0,99.0
149,39.232,39.518,71.0,99.0
150,38.752,39.716,55.0,56.0
151,39.472,39.812,69.0,96.0
152,38.272,40.06,43.0,53.0
153,39.712,40.12,67.0,62.0
154,39.952,40.142,69.0,59.0
155,38.512,40.236000000000004,50.0,59.0
156,40.912,41.208,62.0,47.0
157,40.672000000000004,41.284,55.0,66.0
158,41.392,41.694,55.0,50.0
159,41.152,41.696,67.0,51.0
160,41.632,41.952,62.0,75.0
161,42.112,42.422000000000004,72.0,99.0
162,42.352000000000004,42.626,71.0,86.0
163,42.592,42.83,69.0,59.0
164,41.872,43.162,55.0,63.0
165,42.832,43.19,72.0,80.0
166,43.072,43.606,71.0,63.0
167,43.312,43.616,55.0,69.0
168,40.192,43.836,43.0,75.0
169,43.552,44.0,69.0,65.0
170,43.792,44.026,71.0,74.0
171,40.432,44.09,50.0,32.0
172,44.752,45.056,57.0,51.0
173,44.512,45.072,55.0,59.0
174,44.992000000000004,45.5,59.0,81.0
175,45.472,45.768,57.0,42.0
176,45.712,45.936,59.0,54.0
177,45.232,46.064,55.0,36.0
178,45.952,46.516,60.0,99.0
179,44.272,47.054,50.0,44.0
180,46.192,47.208,55.0,44.0
181,46.432,47.302,59.0,57.0
182,46.672000000000004,47.612,57.0,68.0
183,44.032000000000004,47.684,43.0,77.0
184,47.392,47.858000000000004,59.0,63.0
185,47.152,47.868,50.0,60.0
186,48.352000000000004,48.912,62.0,81.0
187,48.592,48.93,55.0,59.0
188,48.352000000000004,49.134,67.0,75.0
189,49.072,49.268,55.0,81.0
190,48.112,49.324,50.0,44.0
191,48.832,49.342,59.0,86.0
192,47.872,49.358000000000004,43.0,84.0
193,49.312,49.834,67.0,78.0
194,49.312,49.844,62.0,75.0
195,50.272,50.626,55.0,74.0
196,50.512,50.864000000000004,52.0,68.0
197,50.272,51.056000000000004,59.0,71.0
198,50.752,51.278,55.0,65.0
199,49.792,51.29,40.0,81.0
200,50.032000000000004,51.346000000000004,47.0,45.0
201,50.992000000000004,51.392,52.0,66.0
202,51.232,51.68,59.0,80.0
203,51.232,51.702,64.0,83.0
204,51.712,52.506,45.0,84.0
205,51.952,52.64,52.0,72.0
206,52.432,52.89,57.0,75.0
207,52.192,52.93,64.0,75.0
208,52.192,52.946,60.0,75.0
209,52.912,53.234,52.0,51.0
210,52.672000000000004,53.264,45.0,68.0
211,53.152,53.604,60.0,77.0
212,53.152,53.608000000000004,64.0,77.0
213,53.392,53.648,57.0,69.0
214,53.872,54.230000000000004,50.0,36.0
215,54.112,54.728,59.0,75.0
216,54.352000000000004,54.738,50.0,60.0
217,54.112,54.918,62.0,77.0
218,54.592,55.07,55.0,75.0
219,54.832,55.076,50.0,48.0
220,53.632,55.120000000000005,43.0,66.0
221,55.312,55.532000000000004,55.0,71.0
222,55.072,55.552,59.0,60.0
223,55.072,55.578,62.0,71.0
224,56.272,56.444,55.0,59.0
225,56.032000000000004,56.534,59.0,71.0
226,56.032000000000004,56.554,62.0,78.0
227,55.792,56.622,50.0,30.0
228,55.552,56.956,43.0,83.0
229,56.752,56.962,50.0,72.0
230,56.512,57.058,55.0,99.0
231,56.992000000000004,57.44,62.0,77.0
232,56.992000000000004,57.446,59.0,74.0
233,57.232,57.474000000000004,55.0,77.0
234,57.952,58.456,64.0,59.0
235,57.952,58.482,59.0,69.0
236,58.192,58.552,52.0,74.0
237,57.472,58.882,40.0,75.0
238,57.712,58.894,47.0,24.0
239,58.432,58.948,55.0,65.0
240,58.672000000000004,59.07,52.0,66.0
241,58.912,59.34,59.0,65.0
242,59.152,59.402,55.0,56.0
243,58.912,59.448,64.0,68.0
244,59.392,60.158,45.0,71.0
245,59.632,60.324,52.0,59.0
246,59.872,60.65,64.0,77.0
247,59.872,60.684000000000005,61.0,80.0
248,60.112,60.724000000000004,57.0,54.0
249,60.592,60.910000000000004,52.0,32.0
250,60.352000000000004,60.932,45.0,66.0
251,60.832,61.302,64.0,74.0
252,60.832,61.308,61.0,84.0
253,61.072,61.328,57.0,45.0
254,61.552,61.944,50.0,60.0
255,62.032000000000004,62.368,50.0,59.0
256,61.792,62.38,59.0,77.0
257,61.792,62.498000000000005,62.0,62.0
258,62.272,62.692,55.0,83.0
259,61.312000000000005,62.774,43.0,65.0
260,62.512,62.81,50.0,60.0
261,62.992000000000004,63.172000000000004,55.0,66.0
262,62.752,63.176,59.0,80.0
263,62.752,63.188,62.0,81.0
264,63.952,64.336,55.0,80.0
265,63.712,64.414,60.0,80.0
266,63.712,64.512,64.0,80.0
267,63.472,64.524,43.0,29.0
268,63.232,64.536,36.0,95.0
269,64.19200000000001,64.686,48.0,65.0
270,64.432,64.75,55.0,65.0
271,64.672,65.114,60.0,77.0
272,64.912,65.126,55.0,86.0
273,64.672,65.126,64.0,75.0
274,65.872,66.184,59.0,63.0
275,65.632,66.20400000000001,67.0,90.0
276,65.632,66.206,62.0,83.0
277,66.112,66.426,55.0,83.0
278,65.392,66.46000000000001,50.0,30.0
279,65.152,66.486,43.0,81.0
280,66.352,66.61,59.0,80.0
281,66.592,67.04,67.0,95.0
282,66.592,67.06,62.0,84.0
283,66.83200000000001,67.078,59.0,71.0
284,67.552,68.108,64.0,78.0
285,67.552,68.14,60.0,84.0
286,67.792,68.144,55.0,44.0
287,67.072,68.37,36.0,83.0
288,67.312,68.39,43.0,33.0
289,68.032,68.54,48.0,80.0
290,68.272,68.556,55.0,66.0
291,68.512,68.96000000000001,60.0,75.0
292,68.512,68.96000000000001,64.0,75.0
293,68.752,68.97200000000001,55.0,66.0
294,69.232,69.802,50.0,59.0
295,69.47200000000001,70.05,62.0,81.0
296,69.712,70.08200000000001,55.0,80.0
297,69.47200000000001,70.084,59.0,83.0
298,70.19200000000001,70.404,55.0,75.0
299,68.992,70.508,43.0,75.0
300,69.952,70.602,50.0,99.0
301,70.432,70.852,59.0,80.0
302,70.432,70.87,62.0,87.0
303,70.672,70.88,55.0,77.0
304,71.152,71.71000000000001,52.0,60.0
305,71.392,71.928,64.0,77.0
306,71.392,71.964,61.0,80.0
307,71.872,72.276,52.0,60.0
308,70.912,72.31400000000001,45.0,75.0
309,71.632,72.33,57.0,77.0
310,72.352,72.868,64.0,84.0
311,72.112,72.87,61.0,62.0
312,72.592,72.9,57.0,59.0
313,72.83200000000001,73.672,43.0,78.0
314,73.072,73.794,50.0,59.0
315,73.312,74.08200000000001,62.0,83.0
316,73.312,74.09,59.0,78.0
317,73.552,74.106,55.0,77.0
318,73.792,74.436,43.0,68.0
319,74.272,74.726,59.0,72.0
320,74.272,74.72800000000001,62.0,80.0
321,74.032,74.74,50.0,44.0
322,74.512,74.75,55.0,80.0
323,74.992,75.316,52.0,51.0
324,74.752,75.432,45.0,62.0
325,75.232,75.622,64.0,83.0
326,75.232,75.636,61.0,86.0
327,75.47200000000001,75.774,57.0,69.0
328,75.712,76.226,55.0,72.0
329,75.712,76.598,36.0,71.0
330,75.712,76.634,60.0,78.0
331,75.712,76.642,64.0,69.0
332,76.432,76.644,55.0,89.0
333,76.19200000000001,76.654,48.0,68.0
334,77.152,77.458,55.0,96.0
335,76.912,77.752,50.0,38.0
336,77.392,77.928,59.0,77.0
337,77.392,77.952,62.0,78.0
338,77.632,78.156,55.0,72.0
339,77.872,78.47200000000001,50.0,53.0
340,78.112,78.568,59.0,66.0
341,76.672,78.59400000000001,43.0,59.0
342,78.112,78.60000000000001,62.0,74.0
343,79.072,79.482,66.0,81.0
344,79.072,79.494,62.0,87.0
345,79.072,79.526,57.0,95.0
346,79.552,79.766,57.0,71.0
347,79.552,79.926,62.0,93.0
348,79.552,80.06,66.0,99.0
349,79.792,80.422,50.0,50.0
350,80.032,80.69800000000001,57.0,54.0
351,80.272,80.94800000000001,66.0,95.0
352,80.272,80.996,62.0,84.0
353,80.992,81.382,57.0,50.0
354,81.232,81.388,62.0,65.0
355,81.232,81.412,66.0,60.0
356,80.752,81.56,50.0,59.0
357,81.712,81.836,50.0,75.0
358,78.592,81.874,38.0,99.0
359,81.47200000000001,81.938,66.0,99.0
360,81.47200000000001,81.96000000000001,62.0,99.0
361,81.952,82.404,57.0,96.0
362,82.432,82.96600000000001,60.0,89.0
363,82.432,82.986,64.0,89.0
364,83.392,83.918,60.0,83.0
365,83.392,83.92,64.0,75.0
366,83.392,83.928,55.0,80.0
367,84.112,84.456,55.0,54.0
368,84.112,84.458,60.0,81.0
369,84.112,84.458,64.0,80.0
370,83.872,84.882,48.0,59.0
371,84.592,85.136,60.0,63.0
372,84.592,85.15,64.0,57.0
373,84.83200000000001,85.2,55.0,44.0
374,85.072,85.436,48.0,56.0
375,85.312,85.868,60.0,99.0
376,85.312,85.868,64.0,86.0
377,82.912,86.242,43.0,35.0
378,82.432,86.26,36.0,62.0
379,85.552,86.268,48.0,84.0
380,85.792,86.282,55.0,99.0
381,86.032,86.29,60.0,96.0
382,86.032,86.31400000000001,64.0,96.0
383,86.752,87.312,62.0,81.0
384,86.992,87.33,55.0,59.0
385,86.752,87.534,67.0,75.0
386,87.47200000000001,87.668,55.0,81.0
387,86.512,87.724,50.0,44.0
388,87.232,87.742,59.0,86.0
389,86.272,87.758,43.0,84.0
390,87.712,88.23400000000001,67.0,78.0
391,87.712,88.244,62.0,75.0
392,88.672,89.026,55.0,74.0
393,88.912,89.264,52.0,68.0
394,88.672,89.456,59.0,71.0
395,89.152,89.678,55.0,65.0
396,88.19200000000001,89.69,40.0,81.0
397,88.432,89.746,47.0,45.0
398,89.392,89.792,52.0,66.0
399,89.632,90.08,59.0,80.0
400,89.632,90.102,64.0,83.0
401,90.112,90.906,45.0,84.0
402,90.352,91.04,52.0,72.0
403,90.83200000000001,91.29,57.0,75.0
404,90.592,91.33,64.0,75.0
405,90.592,91.346,60.0,75.0
406,91.312,91.634,52.0,51.0
407,91.072,91.664,45.0,68.0
408,91.552,92.004,60.0,77.0
409,91.552,92.008,64.0,77.0
410,91.792,92.048,57.0,69.0
411,92.272,92.63,50.0,36.0
412,92.512,93.128032125,59.0,75.0
413,92.752,93.13807228125,50.0,60.0
414,92.512,93.31879509375,62.0,77.0
415,92.992,93.47140546875,55.0,75.0
416,93.23244975,93.4774295625,50.0,48.0
417,92.032,93.52160625,43.0,66.0
418,93.71437725,93.9352606875,55.0,71.0
419,93.4734135,93.955341,59.0,60.0
420,93.4734135,93.98144540625,62.0,71.0
421,94.67823225000001,94.8509229375,55.0,59.0
422,94.4372685,94.94128434375,59.0,71.0
423,94.4372685,94.96136465625,62.0,78.0
424,94.19630475000001,95.02963771875001,50.0,30.0
425,93.955341,95.3649789375,43.0,83.0
426,95.16015975,95.37100303125,50.0,72.0
427,94.919196,95.46738853125001,55.0,99.0
428,95.40112350000001,95.85092250000001,62.0,77.0
429,95.40112350000001,95.85694659375001,59.0,74.0
430,95.64208725,95.88505903125001,55.0,77.0
431,96.3649785,96.871002375,64.0,59.0
432,96.3649785,96.89710678125,59.0,69.0
433,96.60594225,96.967387875,52.0,74.0
434,95.88305100000001,97.29871303125,40.0,75.0
435,96.12401475,97.31076121875,47.0,24.0
436,96.846906,97.3649780625,55.0,65.0
437,97.08786975000001,97.48746796875001,52.0,66.0
438,97.3288335,97.7585521875,59.0,65.0
439,97.56979725000001,97.82080115625,55.0,56.0
440,97.3288335,97.86698587500001,64.0,68.0
441,97.810761,98.57983696875,45.0,71.0
442,98.05172475,98.74650356250001,52.0,59.0
443,98.29268850000001,99.07381265625,64.0,77.0
444,98.29268850000001,99.10794918750001,61.0,80.0
445,98.53365225,99.14810981250001,57.0,54.0
446,99.01557975,99.33485671875,52.0,32.0
447,98.77461600000001,99.3569450625,45.0,66.0
448,99.2565435,99.72843084375,64.0,74.0
449,99.2565435,99.7344549375,61.0,84.0
450,99.49750725000001,99.75453525,57.0,45.0
451,99.97943475000001,100.37300887500001,50.0,60.0
452,100.46136225000001,100.79871150000001,50.0,59.0
453,100.2203985,100.81075968750001,59.0,77.0
454,100.2203985,100.92923353125,62.0,62.0
455,100.702326,101.12401256250001,55.0,83.0
456,99.738471,101.20634184375001,43.0,65.0
457,100.94328975,101.24248640625001,50.0,60.0
458,101.42521725,101.60594006250001,55.0,66.0
459,101.18425350000001,101.60995612500001,59.0,80.0
460,101.18425350000001,101.62200431250001,62.0,81.0
461,102.38907225,102.77461425000001,55.0,80.0
462,102.1481085,102.85292746875001,60.0,80.0
463,102.1481085,102.95132100000001,64.0,80.0
464,101.90714475,102.9633691875,43.0,29.0
465,101.66618100000001,102.975417375,36.0,95.0
466,102.630036,103.12601971875,48.0,65.0
467,102.87099975000001,103.19027671875,55.0,65.0
468,103.1119635,103.55573840625,60.0,77.0
469,103.35292725000001,103.56778659375,55.0,86.0
470,103.1119635,103.56778659375,64.0,75.0
471,104.31678225,104.630035125,59.0,63.0
472,104.07581850000001,104.6501154375,67.0,90.0
473,104.07581850000001,104.65212346875,62.0,83.0
474,104.55774600000001,104.87300690625001,55.0,83.0
475,103.83485475,104.90714343750001,50.0,30.0
476,103.59389100000001,104.93324784375001,43.0,81.0
477,104.79870975,105.05774578125,59.0,80.0
478,105.0396735,105.4894725,67.0,95.0
479,105.0396735,105.5095528125,62.0,84.0
480,105.28063725000001,105.52762509375,59.0,71.0
481,106.0035285,106.56176118750001,64.0,78.0
482,106.0035285,106.59388968750001,60.0,84.0
483,106.24449225000001,106.59790575000001,55.0,44.0
484,105.521601,106.82481328125,36.0,83.0
485,105.76256475000001,106.84489359375,43.0,33.0
486,106.485456,106.99549593750001,48.0,80.0
487,106.72641975,107.01156018750001,55.0,66.0
488,106.96738350000001,107.41718250000001,60.0,75.0
489,106.96738350000001,107.41718250000001,64.0,75.0
490,107.20834725,107.42923068750001,55.0,66.0
491,107.69027475,108.26256365625001,50.0,59.0
492,107.9312385,108.51155953125,62.0,81.0
493,108.17220225000001,108.54368803125001,55.0,80.0
494,107.9312385,108.54569606250001,59.0,83.0
495,108.65412975000001,108.8669810625,55.0,75.0
496,107.44931100000001,108.9713986875,43.0,75.0
497,108.413166,109.06577615625001,50.0,99.0
498,108.8950935,109.31678006250002,59.0,80.0
499,108.8950935,109.33485234375001,62.0,87.0
500,109.13605725000001,109.34489250000001,55.0,77.0
501,109.61798475,110.17822546875001,52.0,60.0
502,109.85894850000001,110.397100875,64.0,77.0
503,109.85894850000001,110.4332454375,61.0,80.0
504,110.34087600000001,110.74649831250001,52.0,60.0
505,109.37702100000001,110.78465090625001,45.0,75.0
506,110.09991225,110.80071515625,57.0,77.0
507,110.8228035,111.3408755625,64.0,84.0
508,110.58183975,111.34288359375,61.0,62.0
509,111.06376725000001,111.3730040625,57.0,59.0
510,111.304731,112.148104125,43.0,78.0
511,111.54569475000001,112.27059403125,50.0,59.0
512,111.78665850000002,112.55975053125,62.0,83.0
513,111.78665850000002,112.56778265625,59.0,78.0
514,112.02762225000001,112.58384690625,55.0,77.0
515,112.268586,112.9151720625,43.0,68.0
516,112.75051350000001,113.20633659375001,59.0,72.0
517,112.75051350000001,113.20834462500001,62.0,80.0
518,112.50954975,113.22039281250001,50.0,44.0
519,112.99147725,113.23043296875001,55.0,80.0
520,113.47340475000001,113.7987058125,52.0,51.0
521,113.23244100000001,113.915171625,45.0,62.0
522,113.7143685,114.10593459375,64.0,83.0
523,113.7143685,114.1199908125,61.0,86.0
524,113.95533225000001,114.25854496875002,57.0,69.0
525,114.196296,114.71236003125,55.0,72.0
526,114.196296,115.08585384375002,36.0,71.0
527,114.196296,115.12199840625001,60.0,78.0
528,114.196296,115.13003053125001,64.0,69.0
529,114.91918725000001,115.13203856250001,55.0,89.0
530,114.6782235,115.14207871875001,48.0,68.0
531,115.64207850000001,115.94930728125001,55.0,96.0
532,115.40111475,116.244487875,50.0,38.0
533,115.88304225,116.42119462500001,59.0,77.0
534,115.88304225,116.44529100000001,62.0,78.0
535,116.12400600000001,116.6501101875,55.0,72.0
536,116.36496975,116.96737912500001,50.0,53.0
537,116.6059335,117.063764625,59.0,66.0
538,115.16015100000001,117.087861,43.0,59.0
539,116.6059335,117.087861,62.0,74.0
540,117.81075225000001,118.07982843750001,59.0,83.0
541,117.56978850000002,118.14408543750001,55.0,69.0
542,117.32882475000001,118.22641471875001,50.0,63.0
543,117.087861,118.42320178125001,43.0,99.0
544,118.051716,119.02962721875001,62.0,99.0
545,118.53364350000001,119.03565131250001,59.0,83.0
546,119.4974985,120.29468690625,50.0,78.0
547,119.25653475000001,120.3207913125,45.0,36.0
548,119.01557100000001,120.39910453125,38.0,87.0
549,119.73846225000001,120.48344184375,57.0,89.0
550,120.4613535,120.91516856250001,62.0,84.0
551,119.979426,120.94528903125001,66.0,99.0
552,121.42520850000001,121.97340103125,48.0,84.0
553,120.94328100000001,122.26054950000001,36.0,90.0
554,121.18424475,122.30071012500001,43.0,60.0
555,121.66617225000002,122.30071012500001,55.0,75.0
556,122.14809975,122.42721609375,48.0,93.0
557,122.3890635,122.8589428125,60.0,99.0
558,121.90713600000001,122.870991,64.0,99.0
559,122.63002725000001,122.88103115625,55.0,84.0
560,123.35291850000002,123.666171375,55.0,99.0
561,123.59388225000001,123.7906693125,59.0,99.0
562,123.11195475000001,123.89107087500001,50.0,32.0
563,122.870991,124.70432353125001,43.0,78.0
564,124.55773725,124.81476525000001,55.0,99.0
565,124.07580975,124.81677328125001,50.0,95.0
566,124.31677350000001,124.84689375,59.0,80.0
567,123.83484600000001,124.8750061875,62.0,99.0
568,125.52159225000001,125.690266875,59.0,50.0
569,125.03966475000001,125.85090937500001,50.0,75.0
570,125.2806285,125.88102984375001,55.0,54.0
571,126.00351975000001,126.1681783125,50.0,75.0
572,124.79870100000001,126.2444835,43.0,71.0
573,125.76255600000002,126.69026643750001,62.0,99.0
574,126.2444835,126.71235478125001,59.0,99.0
575,126.48544725,126.73042706250001,55.0,99.0
576,127.20833850000001,127.76054709375,50.0,99.0
577,127.44930225000002,128.0798240625,57.0,99.0
578,127.93122975,128.099904375,50.0,99.0
579,126.96737475,128.19829790625002,45.0,75.0
580,126.72641100000001,128.21637018750002,38.0,89.0
581,127.69026600000001,128.53966321875,66.0,99.0
582,128.1721935,128.56375959375,62.0,99.0
583,128.41315725,128.6822334375,57.0,99.0
584,129.13604850000002,129.7143615,48.0,96.0
585,128.89508475000002,129.9995019375,43.0,90.0
586,128.654121,130.02159028125,36.0,83.0
587,129.37701225,130.09387940625,55.0,95.0
588,129.85893975000002,130.20231309375,48.0,99.0
589,130.0999035,130.53765431250002,60.0,99.0
590,129.617976,130.54568643750002,64.0,99.0
591,130.34086725,130.56978281250002,55.0,99.0
592,130.82279475,131.06978259375,55.0,99.0
593,131.30472225,131.49950128125002,59.0,99.0
594,130.82279475,131.65612771875,50.0,50.0
595,130.34086725,131.8388585625,43.0,74.0
596,131.78664975,131.98142878125,50.0,99.0
597,132.0276135,132.46938037500001,59.0,99.0
598,132.26857725000002,132.47138840625001,55.0,99.0
599,131.54568600000002,132.4974928125,62.0,99.0
600,132.990055,133.582055,52.0,99.0
601,132.509541,133.86005500000002,40.0,99.0
602,132.750055,133.888055,47.0,99.0
603,133.23005500000002,134.002055,59.0,93.0
604,133.710055,134.026055,52.0,53.0
605,133.95005500000002,134.370055,64.0,81.0
606,133.470055,134.40805500000002,67.0,99.0
607,134.190055,134.470055,59.0,95.0
608,135.150055,135.284055,60.0,30.0
609,134.67005500000002,135.534055,52.0,78.0
610,134.910055,135.768055,57.0,69.0
611,135.630055,135.776055,52.0,51.0
612,134.430055,136.008055,45.0,96.0
613,135.870055,136.338055,60.0,99.0
614,136.11005500000002,136.35405500000002,57.0,99.0
615,135.39005500000002,136.35405500000002,64.0,99.0
616,136.590055,137.15205500000002,55.0,90.0
617,136.83005500000002,137.32405500000002,64.0,99.0
618,137.070055,137.364055,60.0,99.0
619,137.55005500000001,137.740055,60.0,71.0
620,137.310055,138.180055,55.0,80.0
621,136.350055,138.232055,48.0,99.0
622,138.030055,138.290055,60.0,87.0
623,137.790055,138.29405500000001,64.0,99.0
624,138.98535661666668,139.26908678958333,59.0,93.0
625,138.74726136666666,139.60440426666668,55.0,99.0
626,139.22345186666666,139.77503919583333,65.0,99.0
627,139.46154711666668,139.80480110208333,59.0,83.0
628,138.50916611666668,139.92781698125,50.0,86.0
629,138.270055,139.95956301458332,43.0,93.0
630,139.69964236666667,139.96551539583334,64.0,57.0
631,139.69964236666667,139.97345190416667,62.0,57.0
632,139.93773761666665,140.29884874583334,59.0,80.0
633,140.65202336666667,141.25122974583334,48.0,99.0
634,140.17583286666667,141.47742023333333,36.0,99.0
635,140.41392811666665,141.49130912291668,43.0,90.0
636,140.89011861666665,141.59249960416668,55.0,95.0
637,141.36630911666666,141.612340875,48.0,95.0
638,141.60440436666667,142.04686470625,60.0,99.0
639,141.84249961666666,142.08456312083334,55.0,99.0
640,141.12821386666667,142.10837264583333,64.0,99.0
641,142.55678536666667,142.8861504625,57.0,99.0
642,142.79488061666666,143.08456317083332,61.0,99.0
643,142.31869011666666,143.10440444166667,52.0,39.0
644,143.27107111666666,143.421864775,52.0,68.0
645,142.08059486666667,143.46154731666667,45.0,95.0
646,143.50916636666668,143.85242035208333,61.0,99.0
647,143.03297586666667,143.98932512083334,64.0,99.0
648,143.74726161666666,144.00718226458332,57.0,99.0
649,144.46154736666668,145.05083311041668,48.0,99.0
650,144.69964261666667,145.33257915625,55.0,99.0
651,145.17583311666667,145.4099601125,48.0,93.0
652,143.98535686666668,145.79289663958332,36.0,84.0
653,145.41392836666665,145.83257918125,60.0,99.0
654,144.93773786666668,145.87226172291668,64.0,99.0
655,145.65202361666667,145.90003950208333,55.0,99.0
656,144.22345211666666,145.94170617083333,43.0,72.0
657,146.36630936666666,146.89408717083333,50.0,96.0
658,146.60440461666667,147.15797607291665,57.0,99.0
659,146.12821411666667,147.79488086666666,45.0,99.0
660,147.08059511666667,147.84051578958332,50.0,99.0
661,147.31869036666666,147.87027769583332,62.0,99.0
662,145.89011886666665,147.87226182291667,38.0,99.0
663,147.55678561666667,147.8861507125,57.0,99.0
664,146.84249986666666,147.91194436458332,66.0,99.0
665,147.79488086666666,148.79884917083334,46.0,65.0
666,147.79488086666666,148.81273806041668,58.0,86.0
667,147.79488086666666,148.85242060208333,61.0,80.0
668,147.79488086666666,148.85440472916667,64.0,71.0
669,151.611008,151.985008,53.0,99.0
670,153.531008,153.62100800000002,59.0,35.0
671,153.531008,153.63300800000002,62.0,30.0
672,153.531008,153.651008,55.0,50.0
673,153.531008,153.767878975,43.0,59.0
674,152.09100800000002,154.929169375,50.0,99.0
675,153.77191123333333,154.929169375,50.0,53.0
676,153.77191123333333,155.3827984375,62.0,56.0
677,153.77191123333333,155.40900811666666,57.0,66.0
678,155.46545973333335,156.3021533375,48.0,80.0
679,155.94933073333334,156.39287915,64.0,90.0
680,155.94933073333334,156.39489527916666,67.0,99.0
681,156.43320173333333,157.3182824375,47.0,99.0
682,156.91707273333333,157.493685675,62.0,80.0
683,156.91707273333333,157.4997340625,66.0,63.0
684,157.40094373333332,158.46344380416667,50.0,99.0
685,157.88481473333334,158.74368575833333,57.0,89.0
686,158.36868573333334,159.16102449583335,66.0,99.0
687,158.85255673333333,159.19126643333334,62.0,99.0
688,159.09449223333334,159.35457289583334,57.0,86.0
689,159.33642773333332,159.86666970416667,43.0,99.0
690,159.57836323333333,159.87876647916667,55.0,89.0
691,159.82029873333335,160.1610245625,62.0,99.0
692,160.06223423333333,160.27191166666665,55.0,99.0
693,160.78804073333333,161.0440891375,54.0,93.0
694,160.30416973333334,161.23158915,42.0,99.0
695,161.02997623333334,161.31223431666666,59.0,87.0
696,161.75578273333332,162.02796017083332,52.0,86.0
697,161.51384723333334,162.11868598333334,47.0,51.0
698,161.27191173333333,162.12473437083332,40.0,80.0
699,162.23965373333334,163.11868605,38.0,80.0
700,162.23965373333334,163.18925057083334,62.0,99.0
701,162.23965373333334,163.20537960416667,66.0,99.0
702,162.23965373333334,163.24368605833334,57.0,90.0
703,163.69126673333332,164.2739280625,48.0,87.0
704,163.93320223333333,164.52997646666665,55.0,95.0
705,163.20739573333333,164.558202275,36.0,95.0
706,163.44933123333334,164.58441195416665,43.0,75.0
707,164.41707323333333,164.72957325416667,48.0,86.0
708,164.17513773333334,165.10054102083333,64.0,99.0
709,164.65900873333334,165.12473457083334,60.0,99.0
710,164.90094423333335,165.15900876666666,55.0,99.0
711,165.62675073333332,165.92312172083334,55.0,99.0
712,165.86868623333334,166.14691205833333,59.0,99.0
713,165.38481523333334,166.15900883333333,50.0,72.0
714,166.35255723333333,166.47755724166666,50.0,84.0
715,165.14287973333333,166.517879825,43.0,72.0
716,166.11062173333335,166.95537985416667,62.0,99.0
717,166.59449273333334,166.977557275,59.0,95.0
718,166.83642823333332,167.10658954166666,55.0,99.0
719,167.56223473333333,168.11868638333334,48.0,99.0
720,167.32029923333334,168.45537995416666,43.0,72.0
721,167.07836373333333,168.46747672916666,36.0,90.0
722,167.80417023333334,168.51586382916668,55.0,99.0
723,168.28804123333333,168.6166702875,48.0,95.0
724,168.04610573333332,168.97755740833333,64.0,99.0
725,168.52997673333334,169.00779934583335,60.0,99.0
726,168.77191223333332,169.03602515416668,55.0,99.0
727,169.49771873333333,169.7900574625,55.0,74.0
728,169.73965423333334,169.99973489583334,59.0,87.0
729,169.25578323333335,170.05820264166667,50.0,51.0
730,169.01384773333334,170.6368317125,43.0,71.0
731,170.22352523333333,170.65699300416668,50.0,57.0
732,170.46546073333334,170.97352528333334,59.0,78.0
733,170.70739623333333,171.00376722083334,55.0,99.0
734,169.98158973333332,171.03804141666666,62.0,99.0
735,171.430364,171.70636399999998,55.0,90.0
736,171.670364,171.912364,59.0,99.0
737,171.190364,171.954364,50.0,84.0
738,172.150364,172.292364,50.0,72.0
739,170.94933173333334,172.342364,43.0,93.0
740,171.910364,172.812364,62.0,99.0
741,172.390364,172.854364,59.0,99.0
742,172.630364,172.954364,55.0,95.0
743,173.35036399999998,173.934364,52.0,77.0
744,173.590364,174.108364,55.0,77.0
745,172.870364,174.27236399999998,40.0,74.0
746,173.110364,174.30236399999998,47.0,63.0
747,174.07036399999998,174.336364,52.0,78.0
748,174.310364,174.750364,59.0,99.0
749,174.550364,174.752364,55.0,86.0
750,173.830364,174.806364,64.0,99.0
751,175.270364,175.574364,57.0,99.0
752,175.51036399999998,175.722364,60.0,99.0
753,175.030364,175.85636399999999,52.0,65.0
754,175.990364,176.25436399999998,52.0,66.0
755,174.79036399999998,176.28436399999998,45.0,90.0
756,176.23036399999998,176.702364,60.0,99.0
757,176.470364,176.704364,57.0,96.0
758,175.750364,176.720364,64.0,99.0
759,177.190364,177.508364,55.0,96.0
760,177.430364,177.656364,59.0,99.0
761,176.95036399999998,177.75436399999998,50.0,71.0
762,176.710364,178.51036399999998,43.0,80.0
763,177.910364,178.61836399999999,50.0,84.0
764,178.150364,178.648364,59.0,86.0
765,178.390364,178.672364,55.0,99.0
766,177.670364,178.686364,62.0,99.0
767,179.34566561666668,179.62939578958333,59.0,93.0
768,178.86947511666668,179.67304658541667,50.0,90.0
769,179.10757036666666,179.73653865208334,55.0,71.0
770,179.82185611666668,179.98852279166667,50.0,84.0
771,178.630364,180.06391962083333,43.0,90.0
772,179.58376086666667,180.5083640875,62.0,99.0
773,180.29804661666665,180.544078375,55.0,99.0
774,180.05995136666667,180.544078375,59.0,99.0
775,181.01233236666667,181.61153874583334,52.0,99.0
776,181.25042761666666,182.03018956041666,55.0,99.0
777,180.53614186666667,182.21868163333335,40.0,84.0
778,180.77423711666665,182.33772925833333,47.0,60.0
779,181.96471336666667,182.35757052916668,59.0,80.0
780,181.48852286666667,182.41511021458334,64.0,99.0
781,181.72661811666666,182.44090386666667,52.0,89.0
782,182.20280861666666,182.44090386666667,55.0,86.0
783,183.15518961666666,183.43891978958334,64.0,99.0
784,182.67899911666666,183.45082455208333,55.0,84.0
785,182.91709436666667,183.49050709375,60.0,81.0
786,183.63138011666666,183.79011028333332,55.0,75.0
787,182.44090386666667,183.8416975875,48.0,95.0
788,183.39328486666668,184.305983325,67.0,99.0
789,183.86947536666668,184.34963412083334,64.0,99.0
790,184.10757061666666,184.38336428125,60.0,99.0
791,184.82185636666668,185.16114209791667,55.0,80.0
792,185.05995161666667,185.28415797708334,59.0,89.0
793,184.58376111666666,185.37344369583334,50.0,47.0
794,185.53614211666667,186.29804691666666,50.0,84.0
795,185.77423736666665,186.30003104375,59.0,77.0
796,185.29804686666665,186.32384056875,62.0,99.0
797,184.34566586666668,186.32582469583335,43.0,83.0
798,186.25042786666666,186.32582469583335,43.0,84.0
799,186.01233261666667,186.33574533125,55.0,80.0
800,186.72661836666666,187.28217395000001,62.0,81.0
801,186.96471361666667,187.30003109375,55.0,59.0
802,186.72661836666666,187.50241205625,67.0,75.0
803,187.44090411666667,187.63534857083334,55.0,81.0
804,186.48852311666667,187.69090412916665,50.0,44.0
805,187.20280886666666,187.70876127291666,59.0,86.0
806,187.67899936666666,188.19685653541666,67.0,78.0
807,187.67899936666666,188.20677717083333,62.0,75.0
808,188.63138036666666,188.98257086041667,55.0,74.0
809,188.86947561666668,189.21868198333334,52.0,68.0
810,188.63138036666666,189.40915818333335,59.0,71.0
811,189.10757086666666,189.62939628958333,55.0,65.0
812,188.15518986666666,189.64130105208332,40.0,81.0
813,188.39328511666668,189.69685661041666,47.0,45.0
814,189.34566611666668,189.74249153333332,52.0,66.0
815,189.58376136666666,190.02820583333335,59.0,80.0
816,189.58376136666666,190.05003123125,64.0,83.0
817,190.05995186666667,190.84765031875,45.0,84.0
818,190.29804711666668,190.98058683333335,52.0,72.0
819,190.77423761666665,191.22860271875,57.0,75.0
820,190.53614236666667,191.26828526041666,64.0,75.0
821,190.53614236666667,191.28415827708332,60.0,75.0
822,191.25042811666665,191.56987257708334,52.0,51.0
823,191.01233286666667,191.59963448333335,45.0,68.0
824,191.48852336666667,191.9369360875,60.0,77.0
825,191.48852336666667,191.94090434166668,64.0,77.0
826,191.72661861666666,191.98058688333333,57.0,69.0
827,192.20280911666666,192.55796786458333,50.0,36.0
828,192.44090436666667,193.05201550833334,59.0,75.0
829,192.67899961666666,193.06193614375,50.0,60.0
830,192.44090436666667,193.24050758125,62.0,77.0
831,192.91709486666667,193.39130123958333,55.0,75.0
832,193.15519011666666,193.39725362083334,50.0,48.0
833,191.96471386666667,193.44090441666665,43.0,66.0
834,193.63138061666666,193.84963459583332,55.0,71.0
835,193.39328536666667,193.86947586666668,59.0,60.0
836,193.39328536666667,193.89526951875,62.0,71.0
837,194.58846000000003,194.76046000000002,55.0,59.0
838,194.34846000000002,194.85046000000003,59.0,71.0
839,194.34846000000002,194.87046,62.0,78.0
840,194.10846,194.93846000000002,50.0,30.0
841,193.86947586666668,195.27246000000002,43.0,83.0
842,195.06846000000002,195.27846000000002,50.0,72.0
843,194.82846,195.37446,55.0,99.0
844,195.30846000000003,195.75646,62.0,77.0
845,195.30846000000003,195.76246,59.0,74.0
846,195.54846,195.79046000000002,55.0,77.0
847,196.27129873333334,196.77936328333334,64.0,59.0
848,196.27129873333334,196.8055729625,59.0,69.0
849,196.51323423333332,196.87613748333334,52.0,74.0
850,195.78846000000001,197.20879879583333,40.0,75.0
851,196.02936323333333,197.22089557083333,47.0,24.0
852,196.75516973333333,197.27533105833334,55.0,65.0
853,196.99710523333334,197.3983149375,52.0,66.0
854,197.23904073333333,197.670492375,59.0,65.0
855,197.48097623333334,197.73299237916666,55.0,56.0
856,197.23904073333333,197.77936335,64.0,68.0
857,197.72291173333335,198.49508920416667,45.0,71.0
858,197.96484723333333,198.662427925,52.0,59.0
859,198.20678273333334,198.99105697916667,64.0,77.0
860,198.20678273333334,199.025331175,61.0,80.0
861,198.44871823333332,199.06565375833333,57.0,54.0
862,198.93258923333335,199.25315377083334,52.0,32.0
863,198.69065373333333,199.27533119166668,45.0,66.0
864,199.17452473333333,199.6483150875,64.0,74.0
865,199.17452473333333,199.654363475,61.0,84.0
866,199.41646023333334,199.67452476666668,57.0,45.0
867,199.90033123333333,200.29549255,50.0,60.0
868,200.38420223333333,200.72291193333334,50.0,59.0
869,200.14226673333334,200.73500870833334,59.0,77.0
870,200.14226673333334,200.85396032916668,62.0,62.0
871,200.62613773333334,201.04952485833334,55.0,83.0
872,199.65839573333332,201.13218615416667,43.0,65.0
873,200.86807323333335,201.16847647916666,50.0,60.0
874,201.35194423333334,201.53339585833334,55.0,66.0
875,201.11000873333333,201.53742811666666,59.0,80.0
876,201.11000873333333,201.54952489166666,62.0,81.0
877,202.31968623333333,202.70678303333332,55.0,80.0
878,202.07775073333335,202.78541207083333,60.0,80.0
879,202.07775073333335,202.8842024,64.0,80.0
880,201.83581523333334,202.896299175,43.0,29.0
881,201.59387973333332,202.90839595,36.0,95.0
882,202.56162173333334,203.0596056375,48.0,65.0
883,202.80355723333332,203.12412177083334,55.0,65.0
884,203.04549273333333,203.49105727916668,60.0,77.0
885,203.28742823333334,203.50315405416666,55.0,86.0
886,203.04549273333333,203.50315405416666,64.0,75.0
887,204.25517023333333,204.56968638333333,59.0,63.0
888,204.01323473333332,204.589847675,67.0,90.0
889,204.01323473333332,204.59186380416668,62.0,83.0
890,204.49710573333334,204.8136380125,55.0,83.0
891,203.77129923333334,204.84791220833333,50.0,30.0
892,203.52936373333333,204.8741218875,43.0,81.0
893,204.73904123333332,204.99912189583333,59.0,80.0
894,204.98097673333334,205.43258966666667,67.0,95.0
895,204.98097673333334,205.45275095833333,62.0,84.0
896,205.22291223333335,205.47089612083334,59.0,71.0
897,205.94871873333332,206.50920264166666,64.0,78.0
898,205.94871873333332,206.54146070833335,60.0,84.0
899,206.19065423333333,206.54549296666667,55.0,44.0
900,205.46484773333333,206.7733155625,36.0,83.0
901,205.70678323333334,206.79347685416667,43.0,33.0
902,206.43258973333334,206.94468654166667,48.0,80.0
903,206.67452523333333,206.960815575,55.0,66.0
904,206.91646073333334,207.36807366666667,60.0,75.0
905,206.91646073333334,207.36807366666667,64.0,75.0
906,207.15839623333335,207.38017044166668,55.0,66.0
907,207.64226723333334,208.21686404583335,50.0,59.0
908,207.88420273333332,208.4668640625,62.0,81.0
909,208.12613823333334,208.49912212916666,55.0,80.0
910,207.88420273333332,208.50113825833333,59.0,83.0
911,208.61000923333333,208.823718925,55.0,75.0
912,207.40033173333333,208.92855764166666,43.0,75.0
913,208.36807373333335,209.0233157125,50.0,99.0
914,208.85194473333334,209.27533185833335,59.0,80.0
915,208.85194473333334,209.29347702083334,62.0,87.0
916,209.09388023333332,209.30355766666668,55.0,77.0
917,209.57775123333334,210.14025127083335,52.0,60.0
918,209.81968673333333,210.36000935,64.0,77.0
919,209.81968673333333,210.396299675,61.0,80.0
920,210.30355773333332,210.710815825,52.0,60.0
921,209.33581573333333,210.74912227916667,45.0,75.0
922,210.06162223333334,210.7652513125,57.0,77.0
923,210.78742873333334,211.30759005833335,64.0,84.0
924,210.54549323333333,211.3096061875,61.0,62.0
925,211.02936423333333,211.339848125,57.0,59.0
926,211.27129973333334,212.11807398333335,43.0,78.0
927,211.51323523333335,212.24105786249999,50.0,59.0
928,211.75517073333333,212.5313804625,62.0,83.0
929,211.75517073333333,212.53944497916666,59.0,78.0
930,211.99710623333334,212.55557401250002,55.0,77.0
931,212.23904173333332,212.888235325,43.0,68.0
932,212.72291273333335,213.18057405416667,59.0,72.0
933,212.72291273333335,213.18259018333333,62.0,80.0
934,212.48097723333333,213.19468695833334,50.0,44.0
935,212.96484823333333,213.20476760416668,55.0,80.0
936,213.44871923333335,213.77533215833333,52.0,51.0
937,213.20678373333334,213.89226765,45.0,62.0
938,213.69065473333333,214.08379992083334,64.0,83.0
939,213.69065473333333,214.097912825,61.0,86.0
940,213.93259023333334,214.2370257375,57.0,69.0
941,214.17452573333333,214.69267092916667,55.0,72.0
942,214.17452573333333,215.06767095416666,36.0,71.0
943,214.17452573333333,215.10396127916667,60.0,78.0
944,214.17452573333333,215.11202579583335,64.0,69.0
945,214.90033223333333,215.114041925,55.0,89.0
946,214.65839673333335,215.12412257083332,48.0,68.0
947,215.62613873333333,215.93460649583335,55.0,96.0
948,215.38420323333332,216.23097748333333,50.0,38.0
949,215.86807423333335,216.40839685,59.0,77.0
950,215.86807423333335,216.4325904,62.0,78.0
951,216.11000973333333,216.638235575,55.0,72.0
952,216.35194523333334,216.95678398333334,50.0,53.0
953,216.59388073333332,217.05355818333334,59.0,66.0
954,215.14226773333334,217.0797678625,43.0,59.0
955,216.59388073333332,217.08581625,62.0,74.0
956,217.55599036666666,217.96273641875,66.0,81.0
957,217.55599036666666,217.97464118125,62.0,87.0
958,217.55599036666666,218.00638721458333,57.0,95.0
959,218.03218086666666,218.24448246458334,57.0,71.0
960,218.03218086666666,218.40321263125,62.0,93.0
961,218.03218086666666,218.53614914583332,66.0,99.0
962,218.27027611666668,218.89527614791666,50.0,50.0
963,218.50837136666667,219.16908568541666,57.0,54.0
964,218.74646661666665,219.41710157083332,66.0,95.0
965,218.74646661666665,219.46472062083333,62.0,84.0
966,219.46075236666667,219.84765714791666,57.0,50.0
967,219.69884761666665,219.85360952916668,62.0,65.0
968,219.69884761666665,219.87741905416667,66.0,60.0
969,219.22265711666665,220.02424445833333,50.0,59.0
970,220.17503811666666,220.29805399583333,50.0,75.0
971,217.07775173333334,220.33575241041666,38.0,99.0
972,219.93694286666667,220.39924447708333,66.0,99.0
973,219.93694286666667,220.421069875,62.0,99.0
974,220.41313336666667,220.8615460875,57.0,96.0
975,220.88932386666667,221.41908579791667,60.0,89.0
976,220.88932386666667,221.43892706875,64.0,89.0
977,221.84170486666667,222.36353028958334,60.0,83.0
978,221.84170486666667,222.36551441666666,64.0,75.0
979,221.84170486666667,222.373450925,55.0,80.0
980,222.55599061666666,222.897260475,55.0,54.0
981,222.55599061666666,222.89924460208334,60.0,81.0
982,222.55599061666666,222.89924460208334,64.0,80.0
983,222.31789536666668,223.31987954375,48.0,59.0
984,223.03218111666666,223.57186368333333,60.0,63.0
985,223.03218111666666,223.58575257291668,64.0,57.0
986,223.27027636666668,223.63535575,55.0,44.0
987,223.50837161666666,223.86948274583332,48.0,56.0
988,223.74646686666665,224.29805419583334,60.0,99.0
989,223.74646686666665,224.29805419583334,64.0,86.0
990,221.36551436666667,224.66908596041665,43.0,35.0
991,220.88932386666667,224.68694310416666,36.0,62.0
992,223.98456211666667,224.6948796125,48.0,84.0
993,224.22265736666665,224.70876850208333,55.0,99.0
994,224.46075261666667,224.71670501041666,60.0,96.0
995,224.46075261666667,224.74051453541668,64.0,96.0
996,225.17503836666666,225.73059395,62.0,81.0
997,225.41313361666667,225.74845109375,55.0,59.0
998,225.17503836666666,225.95083205625,67.0,75.0
999,225.88932411666667,226.08376857083334,55.0,81.0
1000,224.93694311666667,226.13932412916665,50.0,44.0
1001,225.65122886666666,226.15718127291666,59.0,86.0
1002,224.69884786666665,226.17305428958332,43.0,84.0
1003,226.12741936666666,226.64527653541666,67.0,78.0
1004,226.12741936666666,226.65519717083333,62.0,75.0
1005,227.07980036666666,227.43099086041667,55.0,74.0
1006,227.31789561666668,227.66710198333334,52.0,68.0
1007,227.07980036666666,227.85757818333335,59.0,71.0
1008,227.55599086666666,228.07781628958332,55.0,65.0
1009,226.60360986666666,228.08972105208332,40.0,81.0
1010,226.84170511666667,228.14527661041666,47.0,45.0
1011,227.79408611666668,228.19091153333332,52.0,66.0
1012,228.03218136666666,228.47662583333334,59.0,80.0
1013,228.03218136666666,228.49845123125,64.0,83.0
1014,228.50837186666666,229.29607031875,45.0,84.0
1015,228.74646711666668,229.42900683333335,52.0,72.0
1016,229.22265761666665,229.67702271875,57.0,75.0
1017,228.98456236666667,229.71670526041666,64.0,75.0
1018,228.98456236666667,229.73257827708332,60.0,75.0
1019,229.69884811666665,230.01829257708334,52.0,51.0
1020,229.46075286666667,230.04805448333335,45.0,68.0
1021,229.93694336666667,230.38535608749999,60.0,77.0
1022,229.93694336666667,230.38932434166668,64.0,77.0
1023,230.17503861666665,230.42900688333333,57.0,69.0
1024,230.65122911666666,231.00638786458333,50.0,36.0
1025,230.88932436666667,231.50043550833334,59.0,75.0
1026,231.12741961666666,231.51035614375,50.0,60.0
1027,230.88932436666667,231.68892758125,62.0,77.0
1028,231.36551486666667,231.83972123958333,55.0,75.0
1029,231.60361011666666,231.84567362083334,50.0,48.0
1030,230.41313386666667,231.88932441666665,43.0,66.0
1031,232.07980061666666,232.29805459583332,55.0,71.0
1032,231.84170536666667,232.31789586666667,59.0,60.0
1033,231.84170536666667,232.34368951875,62.0,71.0
1034,233.03688000000002,233.20888000000002,55.0,59.0
1035,232.79688000000002,233.29888000000003,59.0,71.0
1036,232.79688000000002,233.31888,62.0,78.0
1037,232.55688,233.38688000000002,50.0,30.0
1038,232.31789586666667,233.72088000000002,43.0,83.0
1039,233.51688000000001,233.72688000000002,50.0,72.0
1040,233.27688,233.82288,55.0,99.0
1041,233.75688000000002,234.20488,62.0,77.0
1042,233.75688000000002,234.21088,59.0,74.0
1043,233.99688,234.23888000000002,55.0,77.0
1044,234.71971873333334,235.22778328333334,64.0,59.0
1045,234.71971873333334,235.2539929625,59.0,69.0
1046,234.96165423333332,235.32455748333334,52.0,74.0
1047,234.23688,235.65721879583333,40.0,75.0
1048,234.47778323333333,235.66931557083333,47.0,24.0
1049,235.20358973333333,235.72375105833333,55.0,65.0
1050,235.44552523333334,235.8467349375,52.0,66.0
1051,235.68746073333332,236.118912375,59.0,65.0
1052,235.92939623333334,236.18141237916666,55.0,56.0
1053,235.68746073333332,236.22778335,64.0,68.0
1054,236.17133173333335,236.94350920416667,45.0,71.0
1055,236.41326723333333,237.110847925,52.0,59.0
1056,236.65520273333334,237.43947697916667,64.0,77.0
1057,236.65520273333334,237.473751175,61.0,80.0
1058,236.89713823333332,237.51407375833332,57.0,54.0
1059,237.38100923333334,237.70157377083333,52.0,32.0
1060,237.13907373333333,237.72375119166668,45.0,66.0
1061,237.62294473333333,238.0967350875,64.0,74.0
1062,237.62294473333333,238.102783475,61.0,84.0
1063,237.86488023333334,238.12294476666668,57.0,45.0
1064,238.34875123333333,238.74391255,50.0,60.0
1065,238.83262223333332,239.17133193333333,50.0,59.0
1066,238.59068673333334,239.18342870833334,59.0,77.0
1067,238.59068673333334,239.30238032916668,62.0,62.0
1068,239.07455773333334,239.49794485833334,55.0,83.0
1069,238.10681573333332,239.58060615416667,43.0,65.0
1070,239.31649323333335,239.61689647916666,50.0,60.0
1071,239.80036423333334,239.98181585833333,55.0,66.0
1072,239.55842873333333,239.98584811666666,59.0,80.0
1073,239.55842873333333,239.99794489166666,62.0,81.0
1074,240.76810623333333,241.15520303333332,55.0,80.0
1075,240.52617073333334,241.23383207083333,60.0,80.0
1076,240.52617073333334,241.3326224,64.0,80.0
1077,240.28423523333333,241.344719175,43.0,29.0
1078,240.04229973333332,241.35681595,36.0,95.0
1079,241.01004173333334,241.5080256375,48.0,65.0
1080,241.25197723333332,241.57254177083334,55.0,65.0
1081,241.49391273333333,241.93947727916668,60.0,77.0
1082,241.73584823333334,241.95157405416666,55.0,86.0
1083,241.49391273333333,241.95157405416666,64.0,75.0
1084,242.70359023333333,243.01810638333333,59.0,63.0
1085,242.46165473333332,243.038267675,67.0,90.0
1086,242.46165473333332,243.04028380416668,62.0,83.0
1087,242.94552573333334,243.2620580125,55.0,83.0
1088,242.21971923333334,243.29633220833333,50.0,30.0
1089,241.97778373333333,243.3225418875,43.0,81.0
1090,243.18746123333332,243.44754189583333,59.0,80.0
1091,243.42939673333333,243.88100966666667,67.0,95.0
1092,243.42939673333333,243.90117095833332,62.0,84.0
1093,243.67133223333335,243.91931612083334,59.0,71.0
1094,244.39713873333332,244.95762264166666,64.0,78.0
1095,244.39713873333332,244.98988070833335,60.0,84.0
1096,244.63907423333333,244.99391296666667,55.0,44.0
1097,243.91326773333333,245.2217355625,36.0,83.0
1098,244.15520323333334,245.24189685416667,43.0,33.0
1099,244.88100973333334,245.39310654166667,48.0,80.0
1100,245.12294523333333,245.409235575,55.0,66.0
1101,245.36488073333334,245.81649366666667,60.0,75.0
1102,245.36488073333334,245.81649366666667,64.0,75.0
1103,245.60681623333335,245.82859044166668,55.0,66.0
1104,246.09068723333334,246.66528404583335,50.0,59.0
1105,246.33262273333332,246.9152840625,62.0,81.0
1106,246.57455823333333,246.94754212916666,55.0,80.0
1107,246.33262273333332,246.94955825833333,59.0,83.0
1108,247.05842923333333,247.272138925,55.0,75.0
1109,245.84875173333333,247.37697764166666,43.0,75.0
1110,246.81649373333335,247.4717357125,50.0,99.0
1111,247.30036473333334,247.72375185833334,59.0,80.0
1112,247.30036473333334,247.74189702083333,62.0,87.0
1113,247.54230023333332,247.75197766666668,55.0,77.0
1114,248.02526799999998,248.58326799999998,52.0,60.0
1115,248.265268,248.801268,64.0,77.0
1116,248.265268,248.837268,61.0,80.0
1117,248.74526799999998,249.14926799999998,52.0,60.0
1118,247.78423573333333,249.187268,45.0,75.0
1119,248.505268,249.20326799999998,57.0,77.0
1120,249.225268,249.741268,64.0,84.0
1121,248.985268,249.743268,61.0,62.0
1122,249.46526799999998,249.773268,57.0,59.0
1123,249.705268,250.545268,43.0,78.0
1124,249.945268,250.66726799999998,50.0,59.0
1125,250.18526799999998,250.955268,62.0,83.0
1126,250.18526799999998,250.963268,59.0,78.0
1127,250.425268,250.979268,55.0,77.0
1128,250.665268,251.30926799999997,43.0,68.0
1129,251.145268,251.599268,59.0,72.0
1130,251.145268,251.60126799999998,62.0,80.0
1131,250.90526799999998,251.61326799999998,50.0,44.0
1132,251.385268,251.623268,55.0,80.0
1133,251.865268,252.189268,52.0,51.0
1134,251.62526799999998,252.30526799999998,45.0,62.0
1135,252.105268,252.49526799999998,64.0,83.0
1136,252.105268,252.509268,61.0,86.0
1137,252.34526799999998,252.647268,57.0,69.0
1138,252.58526799999999,253.099268,55.0,72.0
1139,252.58526799999999,253.47126799999998,36.0,71.0
1140,252.58526799999999,253.50726799999998,60.0,78.0
1141,252.58526799999999,253.515268,64.0,69.0
1142,253.30526799999998,253.517268,55.0,89.0
1143,253.06526799999997,253.527268,48.0,68.0
1144,254.02526799999998,254.331268,55.0,96.0
1145,253.78526799999997,254.62526799999998,50.0,38.0
1146,254.265268,254.801268,59.0,77.0
1147,254.265268,254.825268,62.0,78.0
1148,254.505268,255.029268,55.0,72.0
1149,254.74526799999998,255.34526799999998,50.0,53.0
1150,254.985268,255.44126799999998,59.0,66.0
1151,253.545268,255.46526799999998,43.0,59.0
1152,254.985268,255.46526799999998,62.0,74.0
1153,256.185268,256.469268,59.0,89.0
1154,255.945268,256.499268,55.0,99.0
1155,256.42526799999996,256.947268,62.0,95.0
1156,256.42526799999996,257.005268,67.0,99.0
1157,255.705268,257.373268,50.0,33.0
1158,257.145268,257.39126799999997,62.0,81.0
1159,256.66526799999997,257.399268,55.0,89.0
1160,256.905268,257.40326799999997,59.0,99.0
1161,255.46526799999998,257.42526799999996,43.0,84.0
1162,257.145268,257.42526799999996,67.0,83.0
1163,257.865268,258.659268,50.0,78.0
1164,257.625268,258.685268,45.0,36.0
1165,257.385268,258.763268,38.0,87.0
1166,258.10526799999997,258.847268,57.0,89.0
1167,258.825268,259.277268,62.0,84.0
1168,258.345268,259.30726799999997,66.0,99.0
1169,259.785268,260.33126799999997,48.0,84.0
1170,259.305268,260.61726799999997,36.0,90.0
1171,259.54526799999996,260.657268,43.0,60.0
1172,260.025268,260.657268,55.0,75.0
1173,260.505268,260.78326799999996,48.0,93.0
1174,260.745268,261.21326799999997,60.0,99.0
1175,260.265268,261.22526799999997,64.0,99.0
1176,260.98526799999996,261.23526799999996,55.0,84.0
1177,261.705268,262.017268,55.0,99.0
1178,261.945268,262.14126799999997,59.0,99.0
1179,261.465268,262.241268,50.0,32.0
1180,261.22526799999997,263.051268,43.0,78.0
1181,262.905268,263.161268,55.0,99.0
1182,262.42526799999996,263.163268,50.0,95.0
1183,262.66526799999997,263.193268,59.0,80.0
1184,262.185268,263.221268,62.0,99.0
1185,263.865268,264.03326799999996,59.0,50.0
1186,263.385268,264.193268,50.0,75.0
1187,263.625268,264.22326799999996,55.0,54.0
1188,264.345268,264.50926799999996,50.0,75.0
1189,263.145268,264.585268,43.0,71.0
1190,264.10526799999997,265.029268,62.0,99.0
1191,264.585268,265.051268,59.0,99.0
1192,264.825268,265.06926799999997,55.0,99.0
1193,265.54526799999996,266.095268,50.0,99.0
1194,265.785268,266.413268,57.0,99.0
1195,266.265268,266.433268,50.0,99.0
1196,265.305268,266.531268,45.0,75.0
1197,265.065268,266.549268,38.0,89.0
1198,266.025268,266.871268,66.0,99.0
1199,266.505268,266.895268,62.0,99.0
1200,266.745268,267.013268,57.0,99.0
1201,267.465268,268.041268,48.0,96.0
1202,267.22526799999997,268.325268,43.0,90.0
1203,266.98526799999996,268.347268,36.0,83.0
1204,267.705268,268.419268,55.0,95.0
1205,268.185268,268.527268,48.0,99.0
1206,268.42526799999996,268.861268,60.0,99.0
1207,267.945268,268.869268,64.0,99.0
1208,268.66526799999997,268.893268,55.0,99.0
1209,269.145268,269.39126799999997,55.0,99.0
1210,269.625268,269.81926799999997,59.0,99.0
1211,269.145268,269.97526799999997,50.0,50.0
1212,268.66526799999997,270.157268,43.0,74.0
1213,270.10526799999997,270.299268,50.0,99.0
1214,270.345268,270.785268,59.0,99.0
1215,270.585268,270.787268,55.0,99.0
1216,269.865268,270.813268,62.0,99.0
1217,270.825268,271.369268,55.0,99.0
1218,270.825268,271.589268,64.0,99.0
1219,271.305268,271.59326799999997,48.0,96.0
1220,270.825268,271.657268,36.0,99.0
1221,271.54526799999996,271.66526799999997,55.0,99.0
1222,271.065268,271.681268,43.0,65.0
1223,270.825268,271.733268,60.0,99.0
1224,271.785268,272.017268,59.0,99.0
1225,271.785268,272.17726799999997,35.0,99.0
1226,271.785268,272.317268,62.0,99.0
1227,271.785268,272.359268,66.0,99.0
1228,272.265268,272.579268,59.0,99.0
1229,272.505268,272.609268,66.0,35.0
1230,272.505268,272.62926799999997,62.0,45.0
1231,272.745268,273.293268,57.0,99.0
1232,272.745268,273.539268,62.0,99.0
1233,272.745268,273.539268,66.0,99.0
1234,273.465268,273.65126799999996,57.0,71.0
1235,273.22526799999997,273.803268,50.0,99.0
1236,272.745268,274.04526799999996,38.0,96.0
1237,272.98526799999996,274.079268,45.0,56.0
1238,273.945268,274.255268,50.0,83.0
1239,273.705268,274.273268,62.0,99.0
1240,273.705268,274.275268,66.0,99.0
1241,274.185268,274.66526799999997,57.0,99.0
1242,274.905268,275.123268,55.0,71.0
1243,275.145268,275.409268,59.0,99.0
1244,275.145268,275.435268,62.0,99.0
1245,275.385268,275.503268,55.0,99.0
1246,274.66526799999997,275.519268,43.0,99.0
1247,275.865268,276.12926799999997,54.0,81.0
1248,275.625268,276.457268,42.0,99.0
1249,276.10526799999997,276.559268,57.0,95.0
1250,276.345268,276.583268,54.0,57.0
1251,276.825268,277.101268,52.0,78.0
1252,276.585268,277.437268,40.0,99.0
1253,277.065268,277.479268,59.0,99.0
1254,277.305268,277.487268,52.0,99.0
1255,277.065268,277.489268,55.0,99.0
1256,278.025268,278.219268,50.0,99.0
1257,277.54526799999996,278.287268,38.0,99.0
1258,277.785268,278.389268,45.0,84.0
1259,278.025268,278.455268,66.0,99.0
1260,278.025268,278.491268,62.0,99.0
1261,278.265268,278.539268,57.0,99.0
1262,279.22526799999997,279.423268,55.0,95.0
1263,278.98526799999996,279.585268,48.0,99.0
1264,279.465268,279.683268,55.0,71.0
1265,278.505268,279.823268,36.0,99.0
1266,278.745268,279.859268,43.0,69.0
1267,279.705268,279.995268,48.0,99.0
1268,279.465268,280.059268,60.0,99.0
1269,279.465268,280.067268,64.0,99.0
1270,280.185268,280.285268,64.0,59.0
1271,280.185268,280.315268,60.0,77.0
1272,279.945268,280.515268,55.0,99.0
1273,280.42526799999996,280.607268,59.0,99.0
1274,280.42526799999996,280.759268,62.0,99.0
1275,280.905268,281.09326799999997,55.0,99.0
1276,281.145268,281.303268,59.0,93.0
1277,281.145268,281.309268,62.0,86.0
1278,280.66526799999997,281.47526799999997,50.0,65.0
1279,281.625268,281.825268,50.0,80.0
1280,280.42526799999996,281.859268,43.0,93.0
1281,281.385268,281.917268,59.0,99.0
1282,281.385268,282.12726799999996,62.0,99.0
1283,282.10526799999997,282.243268,59.0,59.0
1284,281.865268,282.931268,55.0,99.0
1285,282.345268,283.107268,64.0,99.0
1286,282.345268,283.109268,60.0,99.0
1287,282.825268,283.37726799999996,48.0,99.0
1288,283.065268,283.40326799999997,55.0,62.0
1289,282.345268,283.649268,36.0,77.0
1290,282.585268,283.711268,43.0,39.0
1291,283.305268,283.79526799999996,64.0,99.0
1292,283.305268,283.827268,60.0,99.0
1293,283.54526799999996,283.865268,48.0,77.0
1294,283.785268,284.297268,55.0,99.0
1295,284.265268,284.639268,59.0,75.0
1296,284.265268,284.875268,62.0,71.0
1297,284.745268,285.375268,55.0,87.0
1298,285.22526799999997,286.197268,59.0,84.0
1299,285.22526799999997,286.22326799999996,62.0,86.0
1300,285.705268,286.277268,55.0,77.0
1301,284.505268,286.287268,50.0,59.0
1302,284.265268,286.29526799999996,43.0,78.0
1303,286.66526799999997,286.917268,60.0,89.0
1304,286.905268,287.18926799999997,64.0,93.0
1305,286.42526799999996,287.19926799999996,55.0,48.0
1306,286.185268,287.465268,48.0,99.0
1307,287.385268,287.515268,55.0,51.0
1308,287.145268,288.031268,67.0,99.0
1309,287.625268,288.059268,64.0,90.0
1310,287.865268,288.143268,60.0,95.0
1311,288.585268,288.905268,55.0,95.0
1312,288.825268,289.14126799999997,59.0,99.0
1313,288.345268,289.15326799999997,50.0,50.0
1314,289.305268,289.421268,50.0,47.0
1315,288.10526799999997,289.435268,43.0,86.0
1316,289.54526799999996,289.92526799999996,59.0,99.0
1317,289.065268,289.935268,62.0,99.0
1318,289.785268,290.023268,55.0,95.0
1319,290.505268,291.09326799999997,48.0,72.0
1320,290.025268,291.339268,36.0,89.0
1321,290.265268,291.339268,43.0,42.0
1322,290.745268,291.437268,55.0,78.0
1323,291.22526799999997,291.461268,48.0,60.0
1324,291.465268,291.923268,60.0,99.0
1325,290.985268,291.929268,64.0,99.0
1326,291.705268,291.94926799999996,55.0,89.0
1327,292.42526799999996,292.785268,55.0,99.0
1328,292.66526799999997,292.847268,59.0,96.0
1329,292.185268,293.015268,50.0,65.0
1330,291.945268,293.47526799999997,43.0,78.0
1331,293.145268,293.727268,50.0,44.0
1332,293.385268,293.793268,59.0,99.0
1333,292.905268,293.797268,62.0,99.0
1334,293.625268,293.821268,55.0,86.0
1335,293.873268,294.305268,64.0,78.0
1336,293.869268,294.329268,60.0,86.0
1337,293.86726799999997,294.953268,55.0,80.0
1338,294.371268,294.971268,60.0,56.0
1339,294.389268,294.979268,64.0,78.0
1340,295.087268,295.61726799999997,60.0,84.0
1341,295.089268,295.649268,64.0,89.0
1342,293.871268,296.47526799999997,36.0,80.0
1343,294.421268,296.499268,43.0,42.0
1344,295.091268,296.54526799999996,48.0,53.0
1345,295.801268,296.685268,60.0,87.0
1346,295.805268,296.719268,64.0,81.0
1347,295.803268,296.72526799999997,55.0,86.0
1348,297.443268,297.801268,55.0,56.0
1349,297.347268,297.881268,59.0,75.0
1350,297.22526799999997,297.935268,62.0,84.0
1351,298.301268,300.027268,55.0,51.0
1352,298.063268,300.037268,50.0,51.0
1353,298.731268,300.049268,62.0,63.0
1354,298.489268,300.059268,59.0,54.0
1355,298.985268,300.073268,67.0,44.0
1356,299.265268,300.085268,71.0,26.0
1357,297.487268,300.139268,43.0,99.0
