,start,end,pitch,velocity
0,19.97772008125,20.794500099999997,58.0,89.0
1,20.799637081249998,21.157513441666662,58.0,102.0
2,21.210595581249997,21.616417099999996,65.0,83.0
3,21.621554081249997,22.28936164375,63.0,97.0
4,22.443471081249996,22.756826937499998,61.0,102.0
5,22.854429581249995,23.239703174999995,60.0,72.0
6,23.26538808125,23.674634254166662,58.0,92.0
7,23.676346581249998,24.046209231249996,61.0,90.0
8,24.087305081249998,24.48456496458333,60.0,89.0
9,24.498263581249997,24.938331641666664,56.0,90.0
10,24.909222081249997,25.453742093749998,53.0,82.0
11,25.731139081249996,26.09244009583333,53.0,95.0
12,26.142097581249995,26.505110922916664,56.0,89.0
13,26.553056081249995,27.479425033333328,58.0,99.0
14,27.785931581249997,28.099287437499996,61.0,100.0
15,28.196890081249997,28.56332807708333,63.0,90.0
16,28.607848581249996,28.80476619583333,65.0,79.0
17,28.813327831249996,29.01538242708333,63.0,97.0
18,29.018807081249996,29.402368347916664,61.0,82.0
19,29.429765581249995,29.818463829166664,63.0,95.0
20,29.840724081249995,31.178051533333328,65.0,96.0
21,31.073599581249997,31.178051533333328,65.0,100.0
22,31.279078831249997,31.39894172708333,63.0,92.0
23,31.484558081249997,32.229420362499994,63.0,99.0
24,33.12839208125,33.94517209999999,58.0,89.0
25,33.95030908125,34.30818544166666,58.0,102.0
26,34.36126758125,34.76708909999999,65.0,83.0
27,34.77222608125,35.44003364375,63.0,97.0
28,35.594143081249996,35.907498937499994,61.0,102.0
29,36.005101581249995,36.390375174999996,60.0,72.0
30,36.416060081249995,36.82530625416666,58.0,92.0
31,36.827018581249995,37.196881231249996,61.0,90.0
32,37.237977081249994,37.589004133333326,63.0,99.0
33,37.648935581249994,37.99482565208333,60.0,107.0
34,38.05989408124999,38.823591960416664,56.0,92.0
35,38.88181108124999,39.19859159166666,53.0,96.0
36,39.29276958124999,39.594139147916664,56.0,97.0
37,39.70372808124999,40.35098771875,58.0,93.0
38,40.93660358125,41.28934296041666,61.0,117.0
39,41.34756208125,41.696876806249996,60.0,122.0
40,41.758520581249996,41.9074930375,61.0,112.0
41,41.96399983124999,42.176328389583325,60.0,93.0
42,42.169479081249996,42.48625959166666,58.0,96.0
43,42.580437581249996,42.98797142708333,56.0,107.0
44,42.991396081249995,44.803038135416664,58.0,99.0
45,45.04618858124999,45.38522934374999,58.0,107.0
46,45.45714708124999,45.703722181249994,61.0,102.0
47,45.86810558124999,46.18831074583333,65.0,100.0
48,46.27906408124999,47.080433156249995,66.0,122.0
49,47.51193958124999,47.65919971041666,63.0,112.0
50,47.717418831249994,47.866391287499994,65.0,89.0
51,47.92289808125,48.13351431249999,66.0,127.0
52,48.33385658125,48.63522614791666,70.0,127.0
53,48.744815081249996,48.977691564583324,68.0,127.0
54,49.155773581249996,49.398924027083325,66.0,127.0
55,49.566732081249995,50.15406027083333,65.0,127.0
56,50.799607581249994,50.948580037499994,61.0,127.0
57,51.00508683124999,51.16090859583333,63.0,112.0
58,51.21056608124999,51.24823727708333,63.0,53.0
59,51.21056608124999,51.46056583541666,65.0,97.0
60,51.62152458124999,52.027346099999995,68.0,127.0
61,52.03248308124999,52.38522246041666,66.0,117.0
62,52.44344158124999,52.80987957708333,65.0,117.0
63,52.85440008124999,53.58042676458333,63.0,117.0
64,54.08727558124999,54.21056313124999,59.0,92.0
65,54.292754831249994,54.433165652083325,61.0,107.0
66,54.49823408124999,54.86467207708333,63.0,102.0
67,54.90919258124999,55.16604164374999,66.0,117.0
68,55.320151081249996,55.582137124999996,65.0,117.0
69,55.731109581249996,55.93316417708333,63.0,122.0
70,56.142068081249995,56.32528707916666,63.0,127.0
71,56.34754733124999,57.90405264999999,65.0,107.0
72,58.60781908124999,58.977681731249994,65.0,107.0
73,59.01877758124999,59.35953067083332,68.0,127.0
74,59.84069458124999,59.948571187499994,65.0,89.0
75,59.42973608124999,60.00850263541666,70.0,127.0
76,60.046173831249995,60.24480377291666,65.0,99.0
77,60.457132331249994,60.98110441874999,68.0,122.0
78,61.07357008124999,61.69685713958332,63.0,117.0
79,61.89548708124999,62.21397991874999,63.0,122.0
80,62.30644558124999,62.58041791458332,65.0,100.0
81,62.71740408124999,63.041033899999995,68.0,122.0
82,63.128362581249995,63.239663841666655,63.0,107.0
83,63.33384183124999,63.61123881874999,63.0,93.0
84,63.74480033124999,64.21911493333333,65.0,99.0
85,64.36123808125,65.08384011041666,58.0,100.0
86,65.18315508124999,65.5376067875,65.0,112.0
87,65.59411358124999,65.88863383958332,68.0,117.0
88,66.00507208124999,66.39377032916666,70.0,127.0
89,66.41603058124998,66.50849624374999,65.0,107.0
90,66.62150983125,66.84753700625,65.0,93.0
91,67.03246833124999,67.53589249375,73.0,127.0
92,67.64890608124999,68.06500156249999,72.0,127.0
93,68.05986458125,68.38863138125,68.0,122.0
94,68.47082308124999,68.77732962916666,63.0,127.0
95,68.88178158125,69.17287718541665,60.0,107.0
96,69.29274008124999,69.61294524583333,63.0,127.0
97,69.70369858125,69.79616424374998,61.0,102.0
98,69.90917783124999,70.39890337708333,61.0,122.0
99,70.32013633124998,70.5102046375,65.0,122.0
100,70.73109483124999,71.20198477916665,65.0,127.0
101,71.75849108124999,72.12835373124999,65.0,107.0
102,72.16944958124999,72.51020267083332,68.0,127.0
103,72.99136658124999,73.0992431875,65.0,89.0
104,72.58040808124998,73.15917463541666,70.0,127.0
105,73.19684583124999,73.39547577291665,65.0,99.0
106,73.60780433125,74.13177641875,68.0,122.0
107,74.22424208125,74.84752913958333,63.0,117.0
108,75.04615908125,75.36465191874998,63.0,122.0
109,75.45711758124999,75.73108991458332,65.0,100.0
110,75.86807608125,76.19170589999999,68.0,122.0
111,76.27903458124999,76.38006187916666,72.0,117.0
112,76.48451383124998,76.72252729583332,72.0,97.0
113,76.89547233124999,77.52389637083333,73.0,127.0
114,77.51191008125,78.03074518749999,70.0,117.0
115,78.33382708124999,78.57526519999999,70.0,127.0
116,78.74478558124999,78.965675775,68.0,127.0
117,79.15574408124999,79.42115477916666,66.0,127.0
118,79.56670258124998,79.69683943958333,68.0,127.0
119,79.77218183125,79.99992133333332,70.0,127.0
120,80.38861958124998,80.6814275125,73.0,127.0
121,80.79957808124999,81.29101595416665,73.0,127.0
122,81.21053658124998,81.48793356875,72.0,107.0
123,81.62149508124999,82.11464528124999,72.0,112.0
124,82.23793283124999,84.74820433541666,70.0,117.0
125,125.18309608124999,125.99987609999998,58.0,89.0
126,126.00501308124998,126.36288944166665,58.0,102.0
127,126.41597158124998,126.82179309999998,65.0,83.0
128,126.82693008124998,127.49473764374999,63.0,97.0
129,127.64884708124998,127.96220293749998,61.0,102.0
130,128.05980558124998,128.445079175,60.0,72.0
131,128.47076408125,128.88001025416665,58.0,92.0
132,128.88172258125,129.25158523124998,61.0,90.0
133,129.29268108124998,129.64370813333332,63.0,99.0
134,129.70363958124997,130.04952965208332,60.0,107.0
135,130.11459808125,130.87829596041664,56.0,92.0
136,130.93651508124998,131.25329559166664,53.0,96.0
137,131.34747358124997,131.64884314791664,56.0,97.0
138,131.75843208125,132.40569171874998,58.0,93.0
139,132.99130758124997,133.34404696041665,61.0,117.0
140,133.40226608125,133.75158080625,60.0,122.0
141,133.81322458124998,133.96219703749998,61.0,112.0
142,134.01870383124998,134.2310323895833,60.0,93.0
143,134.22418308124998,134.54096359166664,58.0,96.0
144,134.63514158124997,135.0426754270833,56.0,107.0
145,135.04610008125,136.85774213541666,58.0,99.0
146,137.10089258124998,137.43993334374997,58.0,107.0
147,137.51185108124997,137.75842618124997,61.0,102.0
148,137.92280958125,138.2430147458333,65.0,100.0
149,138.33376808124999,139.13513715624998,66.0,122.0
150,139.56664358125,139.71390371041664,63.0,112.0
151,139.77212283125,139.92109528749998,65.0,89.0
152,139.97760208124998,140.18821831249997,66.0,127.0
153,140.38856058124998,140.68993014791664,70.0,127.0
154,140.79951908124997,141.0323955645833,68.0,127.0
155,141.21047758125,141.4536280270833,66.0,127.0
156,141.62143608124998,142.2087642708333,65.0,127.0
157,142.85431158125,143.00328403749998,61.0,127.0
158,143.05979083124998,143.2156125958333,63.0,112.0
159,143.26527008124998,143.3029412770833,63.0,53.0
160,143.26527008124998,143.51526983541666,65.0,97.0
161,143.67622858124997,144.08205009999998,68.0,127.0
162,144.08718708125,144.43992646041664,66.0,117.0
163,144.49814558125,144.86458357708332,65.0,117.0
164,144.90910408124998,145.63513076458332,63.0,117.0
165,146.14197958124998,146.26526713124997,59.0,92.0
166,146.34745883124998,146.4878696520833,61.0,107.0
167,146.55293808124998,146.9193760770833,63.0,102.0
168,146.96389658124997,147.22074564374998,66.0,117.0
169,147.37485508125,147.636841125,65.0,117.0
170,147.78581358124998,147.9878681770833,63.0,122.0
171,148.19677208124997,148.37999107916664,63.0,127.0
172,148.40225133124997,149.95875664999997,65.0,107.0
173,150.66252308125,151.03238573124997,65.0,107.0
174,151.07348158124998,151.4142346708333,68.0,127.0
175,151.89539858125,152.00327518749998,65.0,89.0
176,151.48444008124997,152.06320663541663,70.0,127.0
177,152.10087783125,152.29950777291666,65.0,99.0
178,152.51183633124998,153.03580841874998,68.0,122.0
179,153.12827408124997,153.75156113958332,63.0,117.0
180,153.95019108124998,154.26868391874999,63.0,122.0
181,154.36114958124998,154.63512191458332,65.0,100.0
182,154.77210808124997,155.0957379,68.0,122.0
183,155.18306658125,155.29436784166666,63.0,107.0
184,155.38854583124998,155.66594281874998,63.0,93.0
185,155.79950433124998,156.2738189333333,65.0,99.0
186,156.41594208124997,157.13854411041663,58.0,100.0
187,157.23785908124998,157.59231078749997,65.0,112.0
188,157.64881758124997,157.9433378395833,68.0,117.0
189,158.05977608125,158.44847432916666,70.0,127.0
190,158.47073458124999,158.56320024374998,65.0,107.0
191,158.67621383124998,158.90224100624997,65.0,93.0
192,159.08717233124997,159.59059649374998,73.0,127.0
193,159.70361008125,160.11970556249997,72.0,127.0
194,160.11456858124998,160.44333538124997,68.0,122.0
195,160.52552708124998,160.83203362916666,63.0,127.0
196,160.93648558124997,161.22758118541665,60.0,107.0
197,161.34744408125,161.6676492458333,63.0,127.0
198,161.75840258124998,161.85086824374997,61.0,102.0
199,161.96388183124998,162.4536073770833,61.0,122.0
200,162.37484033124997,162.56490863749997,65.0,122.0
201,162.78579883125,163.25668877916664,65.0,127.0
202,163.81319508124997,164.18305773125,65.0,107.0
203,164.22415358124996,164.56490667083332,68.0,127.0
204,165.04607058124998,165.15394718749997,65.0,89.0
205,164.63511208124999,165.21387863541665,70.0,127.0
206,165.25154983124997,165.45017977291664,65.0,99.0
207,165.66250833124997,166.18648041874997,68.0,122.0
208,166.27894608124998,166.9022331395833,63.0,117.0
209,167.10086308124997,167.41935591874997,63.0,122.0
210,167.51182158125,167.7857939145833,65.0,100.0
211,167.92278008124998,168.24640989999997,68.0,122.0
212,168.33373858124997,168.43476587916663,72.0,117.0
213,168.53921783124997,168.7772312958333,72.0,97.0
214,168.95017633124996,169.5786003708333,73.0,127.0
215,169.56661408124998,170.0854491875,70.0,117.0
216,170.38853108124997,170.62996919999998,70.0,127.0
217,170.79948958125,171.02037977499998,68.0,127.0
218,171.21044808124998,171.47585877916666,66.0,127.0
219,171.62140658124997,171.75154343958332,68.0,127.0
220,171.82688583124997,172.05462533333332,70.0,127.0
221,172.44332358124998,172.73613151249998,73.0,127.0
222,172.85428208124998,173.34571995416664,73.0,127.0
223,173.26524058124997,173.54263756874997,72.0,107.0
224,173.67619908125,174.16934928124996,72.0,112.0
225,174.29263683124998,176.80290833541665,70.0,117.0
226,176.96386708125,177.22927777916664,65.0,112.0
227,177.37482558124998,177.53920898124997,65.0,100.0
228,177.78578408124997,178.0648933958333,68.0,127.0
229,178.19674258124996,178.29776987916665,66.0,102.0
230,178.40222183125,178.65907089374997,66.0,107.0
231,178.81318033124998,179.19331694374998,65.0,112.0
232,179.22413883124997,179.4005085208333,65.0,112.0
233,179.84057658124996,180.26694602499998,56.0,117.0
234,180.25153508124998,180.64194565625,61.0,112.0
235,180.66249358124998,180.99126038125,68.0,102.0
236,181.07345208124997,181.48269825416665,68.0,127.0
237,181.48441058125,181.59057486041664,66.0,127.0
238,181.68988983124999,181.93646493125,66.0,127.0
239,182.10084833124998,182.29434129166665,65.0,127.0
240,182.51180683124997,183.01009401249996,61.0,127.0
241,183.95016158124997,184.1984490083333,66.0,127.0
242,184.36112008124996,184.66077732083332,66.0,127.0
243,184.77207858124999,184.87310587916664,64.0,127.0
244,184.97755783124998,185.17105079166663,64.0,122.0
245,185.59399558124997,185.85598162499997,63.0,127.0
246,186.00495408124996,186.2686524520833,63.0,127.0
247,186.41591258124998,186.66591233541664,61.0,127.0
248,186.82687108124998,187.0683092,61.0,127.0
249,187.23782958124997,187.46899373749997,63.0,117.0
250,187.64878808124996,187.8765275833333,63.0,122.0
251,187.85426733124999,188.10426708541664,61.0,112.0
252,188.05974658124998,189.36796447291664,63.0,122.0
253,190.11453908124997,190.25837455624998,61.0,127.0
254,190.32001833124997,190.51864827291664,63.0,122.0
255,190.73097683124996,191.02892174374998,65.0,127.0
256,191.14193533124998,191.28405847916665,63.0,127.0
257,191.34741458124998,192.95357738541665,65.0,112.0
258,193.40220708124997,193.77206973124999,65.0,107.0
259,193.81316558124996,194.15391867083332,68.0,127.0
260,194.63508258124997,194.74295918749996,65.0,89.0
261,194.22412408124998,194.80289063541665,70.0,127.0
262,194.84056183124997,195.03919177291664,65.0,99.0
263,195.25152033124996,195.77549241874996,68.0,122.0
264,195.86795808124998,196.4912451395833,63.0,117.0
265,196.68987508124997,197.00836791874997,63.0,122.0
266,197.10083358125,197.3748059145833,65.0,100.0
267,197.51179208124998,197.83542189999997,68.0,122.0
268,197.92275058124997,198.03405184166664,63.0,107.0
269,198.12822983124997,198.40562681874997,63.0,93.0
270,198.53918833124996,199.0135029333333,65.0,99.0
271,199.15562608124998,199.87822811041664,58.0,100.0
272,199.97754308124996,200.33199478749998,65.0,112.0
273,200.38850158124998,200.68302183958332,68.0,117.0
274,200.79946008124998,201.18815832916664,70.0,127.0
275,201.21041858124997,201.30288424375,65.0,107.0
276,201.41589783124996,201.64192500624998,65.0,93.0
277,201.82685633124999,202.33028049374997,73.0,127.0
278,202.44329408124997,202.85938956249998,72.0,127.0
279,202.85425258124997,203.18301938124998,68.0,122.0
280,203.26521108125,203.57171762916664,63.0,127.0
281,203.67616958124998,203.96726518541664,60.0,107.0
282,204.08712808124997,204.4073332458333,63.0,127.0
283,204.49808658124996,204.59055224374998,61.0,102.0
284,204.70356583124996,205.1932913770833,61.0,122.0
285,205.11452433124998,205.30459263749998,65.0,122.0
286,205.52548283124997,205.99637277916665,65.0,127.0
287,206.55287908124998,206.92274173124997,65.0,107.0
288,206.96383758124998,207.3045906708333,68.0,127.0
289,207.78575458124996,207.89363118749998,65.0,89.0
290,207.37479608124997,207.95356263541663,70.0,127.0
291,207.99123383124999,208.18986377291665,65.0,99.0
292,208.40219233124998,208.92616441874998,68.0,122.0
293,209.01863008124997,209.6419171395833,63.0,117.0
294,209.84054708124998,210.15903991874998,63.0,122.0
295,210.25150558124997,210.5254779145833,65.0,100.0
296,210.66246408124996,210.9860939,68.0,122.0
297,211.07342258125,211.17444987916664,72.0,117.0
298,211.27890183124998,211.51691529583331,72.0,97.0
299,211.68986033124997,212.3182843708333,73.0,127.0
300,212.30629808124996,212.82513318749997,70.0,117.0
301,213.12821508124998,213.36965319999996,70.0,127.0
302,213.53917358124997,213.76006377499996,68.0,127.0
303,213.95013208124996,214.21554277916664,66.0,127.0
304,214.36109058124998,214.4912274395833,68.0,127.0
305,214.56656983124998,214.7943093333333,70.0,127.0
306,215.18300758124997,215.47581551249996,73.0,127.0
307,215.59396608124996,216.08540395416665,73.0,127.0
308,216.00492458124998,216.28232156874998,72.0,107.0
309,216.41588308124997,216.90903328124998,72.0,112.0
310,217.03232083124996,218.88163408124998,70.0,117.0
