,start,end,pitch,velocity
0,1.0736290812499998,1.1027386416666665,61.0,37.0
1,0.6626705812499999,1.4520533666666664,53.0,37.0
2,1.0736290812499998,1.4794505999999998,58.0,47.0
3,0.25171208124999994,1.5171217958333332,46.0,59.0
4,1.0736290812499998,1.9982857062499997,65.0,66.0
5,1.4845875812499998,2.0188336312499997,61.0,69.0
6,1.0736290812499998,2.0188336312499997,70.0,66.0
7,2.3065045812499996,2.9777367979166662,56.0,58.0
8,1.8955460812499998,3.0907503854166665,44.0,59.0
9,2.7174630812499996,3.558215679166666,68.0,66.0
10,2.7174630812499996,3.5787636041666664,63.0,68.0
11,3.1284215812499996,3.5856129124999994,60.0,50.0
12,3.5393800812499996,4.775680235416666,42.0,69.0
13,3.9503385812499996,4.943488289583333,54.0,59.0
14,4.361297081249999,5.1934880437499995,61.0,81.0
15,4.77225558125,5.1934880437499995,66.0,40.0
16,5.183214081249999,6.279103414583332,44.0,62.0
17,5.59417258125,6.477733356249999,56.0,67.0
18,6.621568831249999,6.686637260416666,46.0,29.0
19,6.005131081249999,6.835609716666665,63.0,72.0
20,6.416089581249999,6.871568585416666,60.0,65.0
21,7.648965081249999,7.885266218749999,65.0,73.0
22,7.238006581249999,7.999992133333333,58.0,63.0
23,6.827048081249999,8.066772889583332,46.0,79.0
24,7.648965081249999,8.114718047916666,70.0,73.0
25,7.854444331249999,8.457183464583332,61.0,77.0
26,8.059923581249999,8.462320445833333,65.0,64.0
27,8.265402831249999,8.529101202083332,70.0,68.0
28,9.29279908125,9.436634556249999,60.0,72.0
29,8.88184058125,9.731154814583332,56.0,82.0
30,8.470882081249998,9.763689029166665,44.0,83.0
31,9.703757581249999,10.075332558333333,60.0,70.0
32,9.29279908125,10.085606520833332,63.0,102.0
33,10.525674581249998,11.176358872916666,54.0,82.0
34,10.93663308125,11.856152724999998,61.0,97.0
35,11.347591581249999,12.570193118749998,54.0,69.0
36,10.114716081249998,12.690056014583332,42.0,88.0
37,11.758550081249998,13.405808735416665,66.0,54.0
38,11.758550081249998,13.416082697916664,70.0,85.0
39,13.813342581249998,14.392109135416664,46.0,58.0
40,14.224301081249997,14.948615437499997,58.0,71.0
41,14.635259581249999,15.195190537499998,46.0,53.0
42,15.046218081249998,15.606149037499998,61.0,66.0
43,15.046218081249998,15.791080362499997,58.0,66.0
44,14.224301081249997,15.794505016666665,53.0,60.0
45,15.457176581249998,16.020532191666664,46.0,67.0
46,13.402384081249998,16.570189185416666,34.0,66.0
47,15.868135081249997,16.707175352083333,61.0,100.0
48,15.868135081249997,16.98457233958333,58.0,72.0
49,16.27909358125,17.25512001875,53.0,68.0
50,17.101010581249998,17.72772229375,46.0,95.0
51,17.922927581249997,18.563337910416664,46.0,93.0
52,17.511969081249998,18.883543075,58.0,89.0
53,18.744844581249996,19.714021710416663,46.0,89.0
54,16.69005208125,19.94861052083333,34.0,74.0
55,18.333886081249997,19.986281716666664,61.0,102.0
56,19.155803081249996,19.989706370833332,58.0,99.0
57,19.56676158125,19.998268006249997,53.0,85.0
58,20.799637081249998,20.9588835,61.0,26.0
59,20.388678581249998,21.349294074999996,58.0,44.0
60,19.97772008125,21.421211812499998,46.0,69.0
61,21.210595581249997,21.72600603333333,61.0,48.0
62,20.799637081249998,21.748266285416666,68.0,67.0
63,22.032512581249996,22.6746352375,56.0,55.0
64,21.621554081249997,22.79963511458333,44.0,52.0
65,22.443471081249996,23.255114118749997,63.0,71.0
66,23.26538808125,24.010250362499995,42.0,68.0
67,23.676346581249998,24.133537912499996,54.0,58.0
68,24.087305081249998,24.575318299999996,44.0,35.0
69,24.498263581249997,24.84929063333333,63.0,34.0
70,24.498263581249997,24.888674156249998,56.0,53.0
71,25.320180581249996,25.765385622916664,61.0,62.0
72,24.909222081249997,25.99997443333333,49.0,37.0
73,25.731139081249996,26.537645137499997,65.0,67.0
74,26.142097581249995,26.55990538958333,68.0,46.0
75,26.553056081249995,27.77736994583333,42.0,44.0
76,26.964014581249998,28.13867096041666,54.0,62.0
77,27.785931581249997,28.237985931249995,66.0,67.0
78,27.374973081249998,28.249972220833328,70.0,71.0
79,28.196890081249997,29.398943693749995,44.0,60.0
80,28.607848581249996,29.707162568749997,56.0,65.0
81,29.429765581249995,29.77223099791666,63.0,41.0
82,29.018807081249996,29.85955967916666,68.0,86.0
83,30.251682581249995,30.78250397708333,61.0,72.0
84,29.840724081249995,30.92291479791666,49.0,92.0
85,31.073599581249997,31.484558081249997,61.0,85.0
86,30.662641081249998,31.494832043749994,68.0,79.0
87,31.484558081249997,32.72428288958333,41.0,69.0
88,31.895516581249996,32.765378739583326,48.0,58.0
89,32.30647508124999,32.92120050416666,53.0,61.0
90,32.30647508124999,33.15750164166666,65.0,65.0
91,32.30647508124999,33.16606327708333,69.0,67.0
92,32.71743358125,33.169487931249996,60.0,65.0
93,33.53935058125,34.22428141458333,58.0,54.0
94,33.12839208125,34.446883935416665,46.0,60.0
95,34.155788331249994,34.66092482083333,65.0,21.0
96,33.95030908125,34.79277400624999,70.0,69.0
97,34.36126758125,34.89893828541666,61.0,64.0
98,35.183184581249996,35.69345805208333,56.0,53.0
99,34.77222608125,35.94517013333333,44.0,68.0
100,35.594143081249996,36.44688196874999,68.0,89.0
101,36.005101581249995,36.45715593124999,63.0,63.0
102,36.416060081249995,37.10441556874999,42.0,78.0
103,36.827018581249995,37.256812679166664,54.0,70.0
104,37.237977081249994,37.772223131249994,44.0,82.0
105,37.648935581249994,38.097565277083326,56.0,73.0
106,38.05989408124999,39.008523285416665,49.0,69.0
107,39.29276958124999,39.56160493333333,65.0,42.0
108,38.88181108124999,39.72085135208333,68.0,69.0
109,38.47085258124999,39.996536012499995,61.0,63.0
110,40.52564508125,40.63865866875,61.0,35.0
111,39.70372808124999,41.20715126041666,42.0,56.0
112,40.93660358125,41.35098673541666,66.0,37.0
113,40.52564508125,41.369822333333325,70.0,96.0
114,40.11468658125,41.380096295833326,54.0,60.0
115,41.34756208125,42.66434160833333,44.0,45.0
116,41.758520581249996,42.929752306249995,56.0,89.0
117,42.169479081249996,42.96399884791666,68.0,96.0
118,42.580437581249996,43.01536866041666,60.0,82.0
119,43.402354581249995,43.99139509791666,58.0,85.0
120,43.813313081249994,44.5170795125,65.0,73.0
121,42.991396081249995,44.568449324999996,46.0,88.0
122,44.224271581249994,44.67975058541666,58.0,56.0
123,44.63523008124999,45.26536644791666,70.0,68.0
124,44.63523008124999,45.35098280208333,65.0,73.0
125,45.04618858124999,45.51707852916666,58.0,97.0
126,44.63523008124999,45.57872230416666,61.0,61.0
127,45.662626331249996,45.75509199374999,58.0,97.0
128,44.63523008124999,45.76879061041666,46.0,86.0
129,45.45714708124999,46.16433816666666,70.0,127.0
130,46.073584831249995,46.23454357708333,65.0,56.0
131,45.86810558124999,46.33214622083333,61.0,112.0
132,46.895501831249994,47.09413177291666,63.0,35.0
133,46.69002258124999,47.24139190208333,58.0,76.0
134,46.27906408124999,47.48796700208333,39.0,95.0
135,46.484543331249995,47.68145996249999,51.0,79.0
136,47.10098108124999,47.92632273541666,66.0,107.0
137,47.51193958124999,47.928035062499994,58.0,69.0
138,48.33385658125,48.97426691041666,56.0,75.0
139,48.744815081249996,49.505088306249995,68.0,127.0
140,49.155773581249996,49.53591019374999,63.0,88.0
141,47.92289808125,49.56501975416666,44.0,92.0
142,49.977690581249995,50.554744808333325,56.0,85.0
143,49.566732081249995,51.05988129791666,49.0,75.0
144,50.388649081249994,51.071867587499995,65.0,73.0
145,50.799607581249994,51.169470231249996,61.0,55.0
146,51.21056608124999,52.33385264791666,42.0,88.0
147,51.62152458124999,52.44001692708333,54.0,78.0
148,52.44344158124999,52.81159190416666,58.0,107.0
149,52.03248308124999,52.89549593124999,66.0,117.0
150,53.26535858124999,53.72939922083333,59.0,75.0
151,52.85440008124999,54.39378212916666,47.0,96.0
152,53.67631708124999,54.441727287499994,66.0,117.0
153,53.67631708124999,54.44686426874999,63.0,95.0
154,54.08727558124999,54.63008326666666,59.0,79.0
155,54.49823408124999,55.150630699999994,45.0,95.0
156,54.90919258124999,55.33727435208333,57.0,77.0
157,55.320151081249996,56.03932845624999,42.0,99.0
158,55.731109581249996,56.09925990416666,54.0,97.0
159,56.963985081249994,57.31672446041666,53.0,100.0
160,56.553026581249995,57.594121447916656,48.0,66.0
161,56.142068081249995,57.679737802083324,41.0,88.0
162,57.374943581249994,57.72768296041666,60.0,88.0
163,57.374943581249994,57.734532268749994,57.0,85.0
164,57.78590208124999,58.50336712916666,60.0,89.0
165,57.78590208124999,58.511928764583324,57.0,100.0
166,57.78590208124999,58.51706574583333,53.0,112.0
167,57.78590208124999,58.713983360416655,41.0,90.0
168,58.81329833124999,58.95713380624999,41.0,79.0
169,58.60781908124999,59.07870902916666,57.0,99.0
170,59.01877758124999,59.30473620416666,53.0,92.0
171,58.60781908124999,59.35953067083332,60.0,100.0
172,59.224256831249996,59.369804633333324,57.0,97.0
173,59.635215331249995,60.19685861458333,54.0,86.0
174,59.84069458124999,60.23452981041666,58.0,78.0
175,60.046173831249995,60.26706402499999,61.0,122.0
176,59.42973608124999,60.90918668124999,42.0,107.0
177,60.66261158124999,60.94172089583333,58.0,92.0
178,60.868090831249994,61.078707062499994,61.0,78.0
179,60.457132331249994,61.09411800624999,54.0,78.0
180,60.25165308124999,61.09411800624999,66.0,92.0
181,61.27904933124999,61.95028154791666,56.0,89.0
182,61.69000783124999,62.01021299583333,63.0,97.0
183,61.48452858124999,62.01192532291666,60.0,77.0
184,62.10096633124999,62.303020927083324,56.0,86.0
185,61.07357008124999,62.46569199999999,44.0,99.0
186,61.89548708124999,62.72939037083332,68.0,117.0
187,62.30644558124999,62.74651364166666,63.0,112.0
188,62.51192483124999,62.76363691249999,60.0,90.0
189,63.128362581249995,63.43486912916666,53.0,83.0
190,63.33384183124999,63.58041693124999,56.0,71.0
191,62.92288333124999,63.61980045416666,48.0,69.0
192,62.71740408124999,63.91260838541666,41.0,79.0
193,63.74480033124999,63.94685492708332,48.0,77.0
194,63.950279581249994,64.28589568958333,56.0,100.0
195,63.539321081249994,64.29103267083333,60.0,92.0
196,64.15575883125,64.31671757708332,53.0,76.0
197,64.97767583125,65.12493596041666,65.0,53.0
198,65.18315508124999,65.24479885624999,65.0,37.0
199,64.56671733124999,65.26534678124999,58.0,88.0
200,64.77219658124999,65.26705910833333,61.0,88.0
201,65.38863433124999,65.57527798333332,58.0,86.0
202,64.36123808125,65.63863408541665,46.0,88.0
203,65.79959283125,65.98281182916666,65.0,72.0
204,65.18315508124999,65.98452415624999,70.0,95.0
205,65.59411358124999,66.00335975416665,61.0,86.0
206,66.21055133124999,66.85438631458332,54.0,68.0
207,66.62150983125,66.87150958541666,61.0,86.0
208,66.41603058124998,66.89205751041666,58.0,59.0
209,66.00507208124999,67.34924884166666,42.0,82.0
210,67.23794758125,67.54959111041666,58.0,88.0
211,67.44342683125,67.61979652083332,61.0,97.0
212,67.03246833124999,67.65061840833333,54.0,78.0
213,66.82698908124999,67.65061840833333,66.0,97.0
214,67.85438533124999,68.52390522083333,56.0,92.0
215,68.26534383125,68.53246685625,63.0,112.0
216,68.05986458125,68.57869968749999,60.0,77.0
217,67.64890608124999,68.83383642291666,44.0,92.0
218,68.67630233124999,68.98965818749998,56.0,100.0
219,68.88178158125,69.19856209166666,63.0,127.0
220,68.47082308124999,69.26534284791666,68.0,127.0
221,69.08726083124999,69.28417844583332,60.0,117.0
222,69.49821933124998,69.76534235624999,61.0,86.0
223,69.90917783124999,70.03931468958332,68.0,95.0
224,69.70369858125,70.05815028749998,65.0,97.0
225,69.29274008124999,70.1917118,49.0,100.0
226,70.32013633124998,70.48280740416666,49.0,83.0
227,70.11465708124999,70.89547823125,68.0,127.0
228,70.73109483124999,70.90061521249999,65.0,59.0
229,70.52561558125,70.92801244583332,61.0,107.0
230,71.34753258125,71.84581976249999,53.0,93.0
231,71.55301183124999,71.94342240625,60.0,79.0
232,70.93657408124999,72.06670995625,41.0,82.0
233,71.14205333125,72.06842228333332,48.0,64.0
234,71.96397033125,72.09410718958333,53.0,93.0
235,72.16944958124999,72.49479172708332,65.0,100.0
236,71.75849108124999,72.49650405416666,69.0,127.0
237,72.37492883124999,72.58554506249999,60.0,102.0
238,73.19684583124999,73.38862646458333,61.0,102.0
239,72.78588733125,73.42287300624999,54.0,82.0
240,72.99136658124999,73.43999627708332,58.0,83.0
241,72.58040808124998,74.03246144791666,42.0,102.0
242,73.60780433125,74.17115994166666,54.0,90.0
243,73.81328358124999,74.17800924999999,58.0,95.0
244,74.01876283124999,74.21568044583333,61.0,122.0
245,73.40232508124998,74.23280371666665,66.0,112.0
246,74.42972133125,75.05814537083333,56.0,97.0
247,74.84067983124999,75.09067958541665,63.0,112.0
248,74.63520058124999,75.12321379999999,60.0,75.0
249,75.25163833124999,75.41602173124998,56.0,93.0
250,74.22424208125,75.48622714166666,44.0,100.0
251,75.45711758124999,75.7807474,63.0,122.0
252,75.04615908125,75.80129532499998,68.0,127.0
253,75.66259683124999,76.02561017291666,60.0,100.0
254,76.27903458124999,76.78245874374998,53.0,92.0
255,76.48451383124998,76.96225308749999,60.0,82.0
256,75.86807608125,77.01362289999999,41.0,83.0
257,76.07355533124999,77.01362289999999,48.0,76.0
258,76.89547233124999,77.12492416041665,53.0,92.0
259,76.68999308125,77.47081423124999,68.0,127.0
260,77.10095158124999,77.54101964166665,65.0,102.0
261,77.30643083124998,77.54444429583333,60.0,89.0
262,78.12834783125,78.37834758541666,65.0,71.0
263,77.92286858124999,78.42286808958332,61.0,89.0
264,77.71738933124999,78.4417036875,58.0,90.0
265,78.53930633124999,78.69341576874999,58.0,99.0
266,77.51191008125,78.76190885208332,46.0,99.0
267,78.33382708124999,79.12149753958332,70.0,117.0
268,78.74478558124999,79.14889477291666,61.0,102.0
269,78.95026483125,79.15231942708333,65.0,65.0
270,79.77218183125,79.95197617499998,61.0,86.0
271,79.36122333124999,80.03074322083333,54.0,82.0
272,79.56670258124998,80.07183907083332,58.0,76.0
273,79.15574408124999,80.63348235416666,42.0,92.0
274,80.38861958124998,80.67286587708332,58.0,97.0
275,79.97766108124999,80.73793430624998,66.0,122.0
276,80.18314033124999,80.75334525,54.0,95.0
277,80.59409883125,80.77560550208332,61.0,102.0
278,81.41601583125,81.59581017499998,63.0,112.0
279,81.00505733124999,81.67115256666665,56.0,95.0
280,81.21053658124998,81.72081005208332,60.0,81.0
281,81.82697433124999,82.04272754374999,56.0,99.0
282,80.79957808124999,82.21567257916665,44.0,99.0
283,81.62149508124999,82.33211082083332,68.0,122.0
284,82.03245358125,82.36122038124999,63.0,117.0
285,82.23793283124999,82.44683673541665,60.0,99.0
286,82.85437058125,83.34409612708332,58.0,93.0
287,83.26532908124999,83.72594506666665,65.0,77.0
288,82.44341208124999,84.02217765208333,46.0,112.0
289,83.67628758125,84.09238306249999,63.0,95.0
290,84.08724608124999,84.83039603541665,61.0,97.0
291,84.90916308124999,85.16087516249999,58.0,89.0
292,84.08724608124999,85.65916234374998,46.0,90.0
293,84.90916308124999,85.68484724999999,61.0,86.0
294,85.32012158124999,85.73792938958333,58.0,66.0
295,86.14203858124999,86.67970928541665,66.0,46.0
296,86.75847633125,87.07525684166666,66.0,58.0
297,86.55299708124998,87.30984565208333,73.0,86.0
298,86.96395558124999,87.34409219374999,70.0,39.0
299,87.16943483124999,87.39374967916666,66.0,52.0
300,85.73108008124998,87.41772225833333,54.0,95.0
301,87.78587258124999,88.38518706041665,68.0,43.0
302,87.37491408124998,88.96052896041665,56.0,55.0
303,88.19683108124998,88.98621386666666,75.0,79.0
304,88.60778958124999,89.05641927708332,68.0,52.0
305,89.42970658124999,89.93826772499999,65.0,34.0
306,89.01874808124998,90.15744559166666,53.0,47.0
307,90.25162358124999,90.54956849374999,68.0,52.0
308,89.84066508125,90.63689717499999,72.0,74.0
309,90.45710283124998,90.73278749166666,65.0,44.0
310,90.66258208125,91.54614285624999,58.0,68.0
311,91.07354058124999,91.60093732291665,65.0,52.0
312,91.68997833124999,91.88347129166665,70.0,78.0
313,91.89545758124999,92.24990928749999,65.0,89.0
314,91.48449908125,92.29271746458332,73.0,122.0
315,92.10093683124998,92.30470375416665,70.0,89.0
316,92.71737458124998,93.23792201458332,51.0,72.0
317,92.92285383124998,93.27730553749998,63.0,44.0
318,92.30641608124999,93.51531900208332,39.0,99.0
319,93.33381233124999,93.81840089583332,51.0,95.0
320,93.12833308124999,93.86120907291665,70.0,102.0
321,93.74477083125,93.90915423124999,66.0,40.0
322,93.53929158124998,93.96737335208331,63.0,83.0
323,94.36120858124998,94.87833136041665,56.0,90.0
324,93.95025008124999,95.01018054583332,44.0,102.0
325,94.77216708124999,95.53757728749999,68.0,112.0
326,95.18312558124998,95.54442659583331,63.0,92.0
327,95.79956333124998,96.44853529583332,49.0,72.0
328,96.00504258124998,96.51189139791666,53.0,58.0
329,96.21052183124999,96.70024737708331,56.0,76.0
330,95.59408408124999,96.79613769374998,37.0,93.0
331,96.62148033124998,96.88860335624999,49.0,88.0
332,96.41600108124999,97.16086336249998,61.0,112.0
333,96.82695958124998,97.23963040833333,53.0,86.0
334,97.03243883124999,97.27216462291665,56.0,97.0
335,97.64887658125,97.83723256041665,53.0,83.0
336,97.85435583124999,98.11120489374998,56.0,97.0
337,97.44339733124998,98.14887608958333,48.0,73.0
338,97.23791808124999,98.37832791874999,41.0,71.0
339,98.26531433124998,98.45367031041665,48.0,85.0
340,98.47079358124999,98.78928641874998,53.0,97.0
341,98.05983508124999,98.82866994166665,60.0,107.0
342,98.67627283124999,98.86462881041665,56.0,127.0
343,99.08723133124998,99.77729914583333,54.0,107.0
344,99.49818983124999,99.78757310833332,61.0,90.0
345,99.29271058124999,99.80469637916666,58.0,75.0
346,98.88175208124999,100.42284645624999,42.0,117.0
347,99.90914833124998,100.58209287499999,54.0,99.0
348,100.11462758124999,100.76873652708332,58.0,92.0
349,100.32010683124999,100.81154470416665,61.0,83.0
350,99.70366908124998,100.85606520833332,66.0,102.0
351,101.14202383124999,101.30983188541666,61.0,68.0
352,100.73106533124998,101.41257151041665,54.0,74.0
353,100.93654458124999,101.48448924791666,58.0,55.0
354,100.52558608124998,101.71394107708332,42.0,92.0
355,101.55298233124999,101.72763969374999,54.0,93.0
356,101.34750308124998,102.07352976458331,66.0,122.0
357,101.75846158124999,102.09579001666665,61.0,93.0
358,101.96394083124999,102.19852964166665,58.0,100.0
359,102.58037858124999,102.92284399791666,53.0,86.0
360,102.78585783124998,103.03585758541665,56.0,72.0
361,102.37489933124999,103.07695343541666,48.0,53.0
362,103.19681633124999,103.36633671249999,48.0,77.0
363,102.16942008124998,103.39373394583332,41.0,68.0
364,102.99133708124998,103.76188426874998,60.0,96.0
365,103.40229558124999,103.76702124999998,56.0,102.0
366,103.60777483124998,103.80126779166665,53.0,70.0
367,104.01873333124999,104.64715737083331,54.0,60.0
368,104.42969183124998,104.70708881874998,61.0,66.0
369,104.22421258124999,104.78414353749999,57.0,53.0
370,103.81325408124998,104.98962278749998,42.0,82.0
371,104.84065033124999,105.08037612291665,54.0,83.0
372,104.63517108125,105.26017046666665,66.0,107.0
373,105.04612958124999,105.27900606458331,57.0,88.0
374,105.25160883124998,105.40400594166665,61.0,92.0
375,106.27900508124999,106.33037489374999,66.0,92.0
376,106.27900508124999,106.41941590208332,63.0,127.0
377,105.86804658124998,106.43653917291665,59.0,82.0
378,105.45708808124999,106.58551162916665,47.0,95.0
379,106.68996358124998,107.39715466666665,56.0,96.0
380,106.68996358124998,107.49304498333332,61.0,96.0
381,106.68996358124998,107.49646963749998,64.0,88.0
382,107.51188058124998,107.60777089791665,64.0,34.0
383,107.51188058124998,107.90057882916665,56.0,93.0
384,106.68996358124998,108.14715392916665,44.0,95.0
385,108.33379758124998,109.42968691458331,66.0,85.0
386,108.33379758124998,109.45708414791665,62.0,88.0
387,108.33379758124998,109.45879647499999,59.0,85.0
388,108.33379758124998,109.46564578333331,55.0,81.0
389,108.33379758124998,109.85605635833332,43.0,77.0
390,109.97763158124998,110.73105549791666,43.0,56.0
391,109.56667308124999,110.83893210416664,66.0,93.0
392,110.79954858124998,111.24475362291665,43.0,64.0
393,110.38859008124999,111.26701387499999,55.0,90.0
394,109.56667308124999,111.60262998333332,59.0,93.0
395,109.56667308124999,112.02043779166665,62.0,92.0
396,111.21050708124999,112.02215011874999,66.0,107.0
397,111.62146558124998,112.06324596874998,55.0,92.0
398,111.82694483124999,112.06838294999999,59.0,69.0
399,111.41598633124998,112.09920483749998,43.0,72.0
400,112.03242408124999,112.67968371874998,63.0,100.0
401,112.03242408124999,112.68482069999999,61.0,102.0
402,112.03242408124999,112.72762887708332,56.0,88.0
403,112.85434108124998,113.08550523749999,61.0,112.0
404,112.85434108124998,113.09920385416665,63.0,122.0
405,112.85434108124998,113.28242285208331,56.0,59.0
406,112.03242408124999,113.64714852083331,44.0,112.0
407,113.67625808124998,114.33892866249998,63.0,95.0
408,113.67625808124998,114.36461356874999,60.0,96.0
409,113.67625808124998,114.38858614791666,56.0,83.0
410,113.67625808124998,114.51016137083332,44.0,67.0
411,114.49817508124998,115.24303736249999,60.0,112.0
412,114.49817508124998,115.25844830624999,63.0,127.0
413,114.70365433124998,115.27557157708331,44.0,96.0
414,114.90913358124999,115.30468113749998,56.0,97.0
415,115.32009208124998,116.02728316666665,70.0,107.0
416,115.32009208124998,116.03413247499998,53.0,63.0
417,115.32009208124998,116.03926945624998,65.0,85.0
418,115.32009208124998,116.04783109166665,72.0,92.0
419,115.32009208124998,116.08036530624999,46.0,74.0
420,116.14200908124998,116.27557059374999,46.0,41.0
421,116.14200908124998,116.41940606874998,53.0,82.0
422,116.14200908124998,116.42111839583332,70.0,112.0
423,116.14200908124998,116.42454304999998,72.0,86.0
424,116.14200908124998,116.45878959166666,65.0,81.0
425,115.32009208124998,116.52557034791666,41.0,61.0
426,116.55296758124999,117.71392534374998,72.0,97.0
427,116.55296758124999,117.72248697916665,65.0,88.0
428,116.55296758124999,117.72591163333331,69.0,95.0
429,117.78584308124998,118.03070585416665,65.0,75.0
430,117.78584308124998,118.56323957708332,69.0,81.0
431,116.55296758124999,118.56495190416665,45.0,89.0
432,117.78584308124998,118.57522586666666,53.0,59.0
433,117.78584308124998,118.57693819374998,72.0,86.0
434,116.55296758124999,118.58892448333332,41.0,44.0
435,119.22419783124998,119.33892374583331,70.0,32.0
436,119.42967708124998,119.49474551041665,70.0,35.0
437,119.01871858124998,119.51529343541665,58.0,53.0
438,119.84063558124998,120.09748464374998,70.0,39.0
439,119.63515633124999,120.13344351249998,58.0,50.0
440,120.45707333124999,120.71221006666666,58.0,42.0
441,119.42967708124998,120.80638805624999,77.0,66.0
442,120.04611483124998,121.13857951041665,73.0,66.0
443,120.86803183124998,121.14714114583332,58.0,56.0
444,121.07351108124999,121.50501750624998,70.0,51.0
445,118.60776008124998,121.79097612916665,46.0,61.0
446,121.27899033124999,121.92282531458332,58.0,58.0
447,121.68994883124998,122.24645513333331,70.0,37.0
448,121.48446958124998,122.55124935416666,73.0,40.0
449,122.30638658124998,122.76700256666665,58.0,42.0
450,122.51186583124998,122.79782445416664,70.0,41.0
451,123.12830358124998,123.74987831249999,58.0,42.0
452,122.71734508124999,125.13686324999999,73.0,63.0
453,123.33378283124998,125.15398652083331,70.0,44.0
454,121.89542808124999,125.17624677291666,46.0,58.0
455,125.59405458124998,126.27898541458332,58.0,54.0
456,125.18309608124999,126.50158793541665,46.0,60.0
457,126.21049233124998,126.71562882083332,65.0,21.0
458,126.00501308124998,126.84747800624999,70.0,69.0
459,126.41597158124998,126.95364228541665,61.0,64.0
460,127.23788858124998,127.74816205208332,56.0,53.0
461,126.82693008124998,127.99987413333332,44.0,68.0
462,127.64884708124998,128.50158596875,68.0,89.0
463,128.05980558124998,128.51185993124997,63.0,63.0
464,128.47076408125,129.15911956875,42.0,78.0
465,128.88172258125,129.31151667916666,54.0,70.0
466,129.29268108124998,129.82692713125,44.0,82.0
467,129.70363958124997,130.15226927708332,56.0,73.0
468,130.11459808125,131.06322728541664,49.0,69.0
469,131.34747358124997,131.61630893333333,65.0,42.0
470,130.93651508124998,131.7755553520833,68.0,69.0
471,130.52555658125,132.0512400125,61.0,63.0
472,132.58034908124998,132.69336266874998,61.0,35.0
473,131.75843208125,133.26185526041664,42.0,56.0
474,132.99130758124997,133.40569073541664,66.0,37.0
475,132.58034908124998,133.42452633333332,70.0,96.0
476,132.16939058124998,133.43480029583333,54.0,60.0
477,133.40226608125,134.71904560833332,44.0,45.0
478,133.81322458124998,134.98445630625,56.0,89.0
479,134.22418308124998,135.01870284791664,68.0,96.0
480,134.63514158124997,135.07007266041666,60.0,82.0
481,135.45705858124998,136.04609909791665,58.0,85.0
482,135.86801708124997,136.5717835125,65.0,73.0
483,135.04610008125,136.62315332499998,46.0,88.0
484,136.27897558125,136.73445458541664,58.0,56.0
485,136.68993408125,137.32007044791663,70.0,68.0
486,136.68993408125,137.40568680208332,65.0,73.0
487,137.10089258124998,137.57178252916665,58.0,97.0
488,136.68993408125,137.63342630416665,61.0,61.0
489,137.71733033124997,137.80979599375,58.0,97.0
490,136.68993408125,137.82349461041665,46.0,86.0
491,137.51185108124997,138.21904216666664,70.0,127.0
492,138.12828883125,138.2892475770833,65.0,56.0
493,137.92280958125,138.3868502208333,61.0,112.0
494,138.95020583124997,139.14883577291664,63.0,35.0
495,138.74472658124998,139.29609590208332,58.0,76.0
496,138.33376808124999,139.54267100208332,39.0,95.0
497,138.53924733124998,139.73616396249997,51.0,79.0
498,139.15568508124997,139.98102673541663,66.0,107.0
499,139.56664358125,139.98273906249997,58.0,69.0
500,140.38856058124998,141.02897091041666,56.0,75.0
501,140.79951908124997,141.55979230625,68.0,127.0
502,141.21047758125,141.59061419374999,63.0,88.0
503,139.97760208124998,141.61972375416664,44.0,92.0
504,142.03239458124997,142.60944880833333,56.0,85.0
505,141.62143608124998,143.11458529791665,49.0,75.0
506,142.44335308124997,143.12657158749997,65.0,73.0
507,142.85431158125,143.22417423124998,61.0,55.0
508,143.26527008124998,144.38855664791666,42.0,88.0
509,143.67622858124997,144.4947209270833,54.0,78.0
510,144.49814558125,144.86629590416663,58.0,107.0
511,144.08718708125,144.95019993124998,66.0,117.0
512,145.32006258124997,145.78410322083332,59.0,75.0
513,144.90910408124998,146.44848612916664,47.0,96.0
514,145.73102108125,146.49643128749997,66.0,117.0
515,145.73102108125,146.50156826875,63.0,95.0
516,146.14197958124998,146.68478726666666,59.0,79.0
517,146.55293808124998,147.20533469999998,45.0,95.0
518,146.96389658124997,147.39197835208333,57.0,77.0
519,147.37485508125,148.09403245624998,42.0,99.0
520,147.78581358124998,148.15396390416666,54.0,97.0
521,149.01868908125,149.37142846041664,53.0,100.0
522,148.60773058124997,149.64882544791664,48.0,66.0
523,148.19677208124997,149.73444180208332,41.0,88.0
524,149.42964758124998,149.78238696041666,60.0,88.0
525,149.42964758124998,149.78923626875,57.0,85.0
526,149.84060608124997,150.55807112916665,60.0,89.0
527,149.84060608124997,150.56663276458332,57.0,100.0
528,149.84060608124997,150.5717697458333,53.0,112.0
529,149.84060608124997,150.76868736041664,41.0,90.0
530,150.86800233124998,151.01183780624999,41.0,79.0
531,150.66252308125,151.13341302916663,57.0,99.0
532,151.07348158124998,151.35944020416665,53.0,92.0
533,150.66252308125,151.4142346708333,60.0,100.0
534,151.27896083124998,151.42450863333332,57.0,97.0
535,151.68991933124997,152.25156261458332,54.0,86.0
536,151.89539858125,152.28923381041665,58.0,78.0
537,152.10087783125,152.32176802499998,61.0,122.0
538,151.48444008124997,152.96389068124998,42.0,107.0
539,152.71731558124998,152.99642489583331,58.0,92.0
540,152.92279483124997,153.1334110625,61.0,78.0
541,152.51183633124998,153.14882200625,54.0,78.0
542,152.30635708124998,153.14882200625,66.0,92.0
543,153.33375333124997,154.00498554791665,56.0,89.0
544,153.74471183125,154.0649169958333,63.0,97.0
545,153.53923258125,154.06662932291664,60.0,77.0
546,154.15567033124998,154.35772492708332,56.0,86.0
547,153.12827408124997,154.52039599999998,44.0,99.0
548,153.95019108124998,154.78409437083332,68.0,117.0
549,154.36114958124998,154.80121764166665,63.0,112.0
550,154.56662883124997,154.8183409125,60.0,90.0
551,155.18306658125,155.48957312916664,53.0,83.0
552,155.38854583124998,155.63512093125,56.0,71.0
553,154.97758733125,155.67450445416665,48.0,69.0
554,154.77210808124997,155.96731238541665,41.0,79.0
555,155.79950433124998,156.00155892708332,48.0,77.0
556,156.00498358124997,156.3405996895833,56.0,100.0
557,155.59402508124998,156.3457366708333,60.0,92.0
558,156.21046283124997,156.3714215770833,53.0,76.0
559,157.03237983124998,157.17963996041664,65.0,53.0
560,157.23785908124998,157.29950285624997,65.0,37.0
561,156.62142133125,157.32005078125,58.0,88.0
562,156.82690058125,157.3217631083333,61.0,88.0
563,157.44333833124998,157.62998198333332,58.0,86.0
564,156.41594208124997,157.69333808541666,46.0,88.0
565,157.85429683124997,158.03751582916664,65.0,72.0
566,157.23785908124998,158.03922815624998,70.0,95.0
567,157.64881758124997,158.05806375416665,61.0,86.0
568,158.26525533125,158.90909031458332,54.0,68.0
569,158.67621383124998,158.92621358541663,61.0,86.0
570,158.47073458124999,158.94676151041665,58.0,59.0
571,158.05977608125,159.40395284166664,42.0,82.0
572,159.29265158124997,159.60429511041664,58.0,88.0
573,159.49813083124997,159.6745005208333,61.0,97.0
574,159.08717233124997,159.7053224083333,54.0,78.0
575,158.88169308124998,159.7053224083333,66.0,97.0
576,159.90908933125,160.5786092208333,56.0,92.0
577,160.32004783124998,160.58717085624997,63.0,112.0
578,160.11456858124998,160.6334036875,60.0,77.0
579,159.70361008125,160.88854042291663,44.0,92.0
580,160.73100633124997,161.04436218749998,56.0,100.0
581,160.93648558124997,161.25326609166663,63.0,127.0
582,160.52552708124998,161.32004684791664,68.0,127.0
583,161.14196483124996,161.33888244583332,60.0,117.0
584,161.55292333124999,161.82004635624997,61.0,86.0
585,161.96388183124998,162.09401868958332,68.0,95.0
586,161.75840258124998,162.11285428749997,65.0,97.0
587,161.34744408125,162.24641579999997,49.0,100.0
588,162.37484033124997,162.53751140416665,49.0,83.0
589,162.16936108124997,162.95018223124998,68.0,127.0
590,162.78579883125,162.95531921249997,65.0,59.0
591,162.58031958124997,162.98271644583332,61.0,107.0
592,163.40223658124998,163.90052376249997,53.0,93.0
593,163.60771583124998,163.99812640624998,60.0,79.0
594,162.99127808125,164.12141395624997,41.0,82.0
595,163.19675733124998,164.1231262833333,48.0,64.0
596,164.01867433124997,164.1488111895833,53.0,93.0
597,164.22415358124996,164.54949572708333,65.0,100.0
598,163.81319508124997,164.55120805416664,69.0,127.0
599,164.42963283125,164.64024906249998,60.0,102.0
600,165.25154983124997,165.4433304645833,61.0,102.0
601,164.84059133124998,165.47757700625,54.0,82.0
602,165.04607058124998,165.49470027708333,58.0,83.0
603,164.63511208124999,166.08716544791665,42.0,102.0
604,165.66250833124997,166.22586394166663,54.0,90.0
605,165.86798758125,166.23271325,58.0,95.0
606,166.07346683125,166.27038444583332,61.0,122.0
607,165.45702908124997,166.28750771666665,66.0,112.0
608,166.48442533124998,167.11284937083332,56.0,97.0
609,166.89538383124997,167.14538358541665,63.0,112.0
610,166.68990458124998,167.1779178,60.0,75.0
611,167.30634233124997,167.47072573124998,56.0,93.0
612,166.27894608124998,167.54093114166665,44.0,100.0
613,167.51182158125,167.83545139999998,63.0,122.0
614,167.10086308124997,167.85599932499997,68.0,127.0
615,167.71730083125,168.08031417291664,60.0,100.0
616,168.33373858124997,168.83716274374999,53.0,92.0
617,168.53921783124997,169.01695708749997,60.0,82.0
618,167.92278008124998,169.0683269,41.0,83.0
619,168.12825933124998,169.0683269,48.0,76.0
620,168.95017633124996,169.17962816041666,53.0,92.0
621,168.74469708124997,169.52551823124998,68.0,127.0
622,169.15565558125,169.59572364166664,65.0,102.0
623,169.36113483124998,169.59914829583332,60.0,89.0
624,170.18305183124997,170.43305158541665,65.0,71.0
625,169.97757258124997,170.4775720895833,61.0,89.0
626,169.77209333124998,170.49640768749998,58.0,90.0
627,170.59401033125,170.74811976874997,58.0,99.0
628,169.56661408124998,170.81661285208332,46.0,99.0
629,170.38853108124997,171.1762015395833,70.0,117.0
630,170.79948958125,171.20359877291665,61.0,102.0
631,171.00496883124998,171.2070234270833,65.0,65.0
632,171.82688583124997,172.00668017499999,61.0,86.0
633,171.41592733124997,172.08544722083332,54.0,82.0
634,171.62140658124997,172.12654307083332,58.0,76.0
635,171.21044808124998,172.68818635416665,42.0,92.0
636,172.44332358124998,172.7275698770833,58.0,97.0
637,172.03236508124996,172.79263830624998,66.0,122.0
638,172.23784433125,172.80804924999998,54.0,95.0
639,172.64880283124998,172.8303095020833,61.0,102.0
640,173.47071983124997,173.65051417499998,63.0,112.0
641,173.05976133124997,173.72585656666664,56.0,95.0
642,173.26524058124997,173.7755140520833,60.0,81.0
643,173.88167833125,174.09743154374996,56.0,99.0
644,172.85428208124998,174.27037657916665,44.0,99.0
645,173.67619908125,174.3868148208333,68.0,122.0
646,174.08715758124998,174.41592438124997,63.0,117.0
647,174.29263683124998,174.50154073541665,60.0,99.0
648,174.90907458124997,175.39880012708332,58.0,93.0
649,175.32003308125,175.78064906666665,65.0,77.0
650,174.49811608124998,176.0768816520833,46.0,112.0
651,175.73099158124998,176.14708706249996,63.0,95.0
652,176.14195008124997,176.88510003541666,61.0,97.0
653,176.96386708125,177.21557916249998,58.0,89.0
654,176.14195008124997,177.71386634374997,46.0,90.0
655,176.96386708125,177.73955124999998,61.0,86.0
656,177.37482558124998,177.78578408124997,58.0,66.0
657,177.78578408124997,178.49468749374998,66.0,100.0
658,177.78578408124997,178.5426326520833,59.0,95.0
659,177.78578408124997,178.54605730624996,63.0,112.0
660,178.19674258124996,178.85427618125,54.0,76.0
661,178.60770108124999,179.16763203749997,63.0,112.0
662,178.60770108124999,179.18133065416663,66.0,107.0
663,178.60770108124999,179.29091958749999,59.0,92.0
664,179.01865958124998,179.5597549395833,54.0,97.0
665,179.42961808124997,180.0734530645833,66.0,117.0
666,179.42961808124997,180.09228866249998,63.0,117.0
667,179.84057658124996,180.34228841666663,54.0,112.0
668,180.45701433124998,180.82516465416666,54.0,96.0
669,180.25153508124998,180.87995912083332,66.0,127.0
670,177.78578408124997,180.88852075625,47.0,92.0
671,180.66249358124998,180.91934264374999,63.0,112.0
672,180.86797283124997,181.02721924999997,59.0,93.0
673,181.48441058125,182.08030040625,58.0,82.0
674,181.89536908124998,182.32173852499997,65.0,122.0
675,181.89536908124998,182.54776569999999,61.0,122.0
676,182.30632758124997,182.89708042499998,58.0,95.0
677,182.71728608124997,183.14879250624998,65.0,117.0
678,182.71728608124997,183.19844999166665,70.0,117.0
679,182.71728608124997,183.38509364374997,61.0,112.0
680,183.12824458125,183.5871482395833,58.0,100.0
681,181.07345208124997,183.89023013333332,46.0,127.0
682,183.74468233124998,183.89707944166665,58.0,112.0
683,183.53920308124998,183.92961365624998,65.0,102.0
684,183.53920308124998,183.92961365624998,70.0,127.0
685,183.95016158124997,184.0546135333333,61.0,102.0
686,184.36112008124996,185.0357769520833,57.0,127.0
687,184.36112008124996,185.08029745624998,64.0,97.0
688,184.36112008124996,185.08543443749997,61.0,127.0
689,184.77207858124999,185.28406437916664,52.0,38.0
690,185.18303708124998,185.65050237499997,57.0,99.0
691,185.18303708124998,185.76694061666663,61.0,117.0
692,185.18303708124998,185.87995420416664,64.0,96.0
693,185.79947483124997,185.92447470833332,57.0,74.0
694,185.59399558124997,186.20529634999997,52.0,72.0
695,186.00495408124996,186.47926868333332,57.0,100.0
696,186.00495408124996,186.67961095208332,61.0,127.0
697,186.00495408124996,186.68303560624997,64.0,97.0
698,186.41591258124998,186.8388573708333,52.0,86.0
699,187.03235033124997,187.13166530208332,52.0,86.0
700,184.36112008124996,187.1573502083333,45.0,89.0
701,186.82687108124998,187.2857747395833,61.0,127.0
702,187.23782958124997,187.28748706666664,57.0,90.0
703,186.82687108124998,187.29091172083332,64.0,102.0
704,187.64878808124996,188.07858217916663,60.0,112.0
705,187.64878808124996,188.08371916041665,63.0,127.0
706,188.05974658124998,188.57002005208332,56.0,112.0
707,188.47070508124997,188.96214295416664,60.0,102.0
708,188.47070508124997,188.98440320624997,63.0,127.0
709,188.47070508124997,189.12310169999998,68.0,122.0
710,189.08714283124996,189.17960849374998,60.0,45.0
711,187.64878808124996,189.20015641874997,44.0,99.0
712,188.88166358124997,189.20871805416664,56.0,117.0
713,189.29262208125,189.97926524166664,60.0,97.0
714,189.29262208125,189.98097756874998,68.0,100.0
715,189.29262208125,189.99125153125,63.0,127.0
716,189.29262208125,190.14193631458332,56.0,56.0
717,190.11453908124997,190.28919644374997,60.0,95.0
718,190.32001833124997,190.46042915208332,56.0,112.0
719,189.29262208125,190.48782638541664,44.0,102.0
720,190.11453908124997,190.5426208520833,63.0,127.0
721,190.11453908124997,190.55974412291664,68.0,127.0
722,190.52549758124997,190.59399066458332,60.0,95.0
723,190.93645608125,191.43474326249998,65.0,97.0
724,190.93645608125,191.5905650270833,72.0,99.0
725,190.93645608125,191.60940062499998,70.0,122.0
726,191.34741458124998,191.91761949999997,53.0,38.0
727,191.75837308124997,192.27207120624996,70.0,127.0
728,192.16933158124996,192.39707108333332,53.0,83.0
729,190.93645608125,192.4073450458333,41.0,73.0
730,191.75837308124997,192.4176190083333,72.0,112.0
731,191.75837308124997,192.4433039145833,65.0,95.0
732,192.58029008124998,194.18474055833332,41.0,74.0
733,192.58029008124998,194.1950145208333,69.0,102.0
734,192.58029008124998,194.2155624458333,72.0,100.0
735,192.58029008124998,194.21727477291665,65.0,96.0
736,194.22412408124998,195.5443282625,70.0,69.0
737,194.22412408124998,195.5563145520833,66.0,62.0
738,194.22412408124998,195.5563145520833,73.0,60.0
739,194.22412408124998,195.63679392499998,54.0,83.0
740,194.63508258124997,195.72583493333332,58.0,58.0
741,195.04604108124997,195.74124587708332,61.0,42.0
742,195.86795808124998,196.01693053749997,68.0,32.0
743,195.86795808124998,196.54603960624996,75.0,41.0
744,195.86795808124998,197.45870994166663,72.0,53.0
745,195.86795808124998,197.58542214583332,56.0,63.0
746,197.92275058124997,198.4638459395833,65.0,52.0
747,197.51179208124998,198.6076814145833,53.0,67.0
748,198.33370908124996,199.10425626874996,72.0,60.0
749,198.33370908124996,199.48439288124996,68.0,56.0
750,199.56658458124997,200.18644698541664,65.0,42.0
751,199.15562608124998,200.29946057291664,58.0,61.0
752,199.97754308124996,200.71041907291664,73.0,117.0
753,200.18302233125,200.76350121249996,70.0,47.0
754,200.38850158124998,200.80117240833331,65.0,58.0
755,201.21041858124997,201.7720618645833,61.0,75.0
756,202.23781483124998,202.39192426874996,66.0,67.0
757,200.79946008124998,202.39534892291664,54.0,117.0
758,201.62137708124996,202.42103382916665,70.0,82.0
759,202.03233558124998,202.42617081041664,61.0,71.0
760,202.85425258124997,203.47925196666665,63.0,73.0
761,202.44329408124997,203.9655528583333,56.0,63.0
762,203.67616958124998,203.98781311041665,68.0,43.0
763,203.26521108125,204.01349801666663,72.0,73.0
764,203.88164883124998,204.13336091249997,63.0,76.0
765,204.08712808124997,205.04603124791663,49.0,78.0
766,204.49808658124996,205.14020923749996,61.0,81.0
767,205.11452433124998,205.34055150624997,49.0,95.0
768,205.32000358124998,205.58370195208332,61.0,97.0
769,205.52548283124997,205.6504827083333,65.0,70.0
770,204.90904508124999,205.7480853520833,68.0,127.0
771,206.14192058124996,206.3491121583333,65.0,112.0
772,206.55287908124998,206.57856398749996,70.0,59.0
773,206.34739983124996,206.60767354791665,69.0,122.0
774,205.93644133124997,206.64020776249998,60.0,77.0
775,206.75835833124998,206.86623493749997,60.0,100.0
776,205.73096208124997,206.87822122708332,53.0,72.0
777,206.55287908124998,207.30116601666663,72.0,112.0
778,206.96383758124998,207.3200016145833,69.0,127.0
779,207.16931683124997,207.3816453895833,65.0,112.0
780,207.99123383124999,208.20185006249997,61.0,96.0
781,207.58027533124996,208.22582264166664,54.0,97.0
782,207.78575458124996,208.29260339791665,58.0,85.0
783,207.37479608124997,208.72582214999997,42.0,107.0
784,208.60767158124997,208.89705485833332,58.0,95.0
785,208.40219233124998,208.91417812916663,54.0,96.0
786,208.81315083124997,208.98267121249998,61.0,99.0
787,208.19671308124998,208.98267121249998,66.0,127.0
788,209.22410933124996,209.87479362291663,56.0,102.0
789,209.63506783124998,209.90219085624997,63.0,127.0
790,209.42958858124996,209.91760179999997,60.0,74.0
791,210.04602633124998,210.1967111145833,56.0,97.0
792,209.01863008124997,210.25664256249996,44.0,90.0
793,209.84054708124998,210.6076696145833,68.0,127.0
794,210.25150558124997,210.62821753958332,63.0,122.0
795,210.45698483124997,210.6898613145833,60.0,100.0
796,211.07342258125,211.39705239999998,53.0,100.0
797,211.27890183124998,211.53917554791664,56.0,92.0
798,210.86794333124996,211.55801114583332,48.0,82.0
799,210.66246408124996,211.7943122833333,41.0,72.0
800,211.68986033124997,211.83540813333332,48.0,86.0
801,211.89533958124997,212.23780499791664,56.0,107.0
802,211.48438108124998,212.2669145583333,60.0,102.0
803,212.10081883124997,212.27033921249998,53.0,86.0
804,212.30629808124996,212.39876374374998,46.0,127.0
805,212.30629808124996,212.39876374374998,58.0,127.0
806,212.51177733124996,212.62992789999998,48.0,99.0
807,212.51177733124996,212.62992789999998,60.0,99.0
808,212.71725658124998,212.8062975895833,49.0,127.0
809,212.71725658124998,212.8062975895833,61.0,127.0
810,212.92273583124998,213.29773546249996,51.0,127.0
811,212.92273583124998,213.29773546249996,63.0,127.0
812,213.33369433124997,213.46040653541664,49.0,127.0
813,213.33369433124997,213.46040653541664,61.0,127.0
814,213.53917358124997,213.68814603749996,48.0,117.0
815,213.53917358124997,213.68814603749996,60.0,117.0
816,213.74465283124997,213.9312964833333,44.0,127.0
817,213.74465283124997,213.9312964833333,56.0,127.0
818,214.36109058124998,214.8097202770833,54.0,93.0
819,214.56656983124998,214.9278708458333,61.0,95.0
820,213.95013208124996,215.36108959791665,42.0,100.0
821,214.77204908124997,215.4004731208333,70.0,127.0
822,214.15561133124996,215.44156897083332,49.0,75.0
823,215.18300758124997,215.45697991458331,61.0,117.0
824,214.97752833124997,215.56143186666665,54.0,102.0
825,215.38848683124996,215.59739073541664,66.0,117.0
826,216.21040383124998,216.46211591249997,72.0,57.0
827,215.79944533124998,216.4997871083333,56.0,107.0
828,216.00492458124998,216.58026648124996,68.0,78.0
829,216.62136233124997,217.08540297083331,56.0,99.0
830,216.62136233124997,217.1316358020833,51.0,51.0
831,215.59396608124996,217.2189644833333,44.0,83.0
832,216.82684158124997,217.22581379166664,68.0,117.0
833,217.03232083124996,217.22752611874998,72.0,72.0
834,216.41588308124997,217.2600603333333,75.0,99.0
835,217.44327933124998,218.0922512958333,53.0,75.0
836,217.64875858124998,218.1847169583333,58.0,74.0
837,217.85423783124997,218.1847169583333,63.0,88.0
838,218.05971708124997,218.41930576874998,65.0,78.0
839,218.47067558124996,218.57683986041664,65.0,60.0
840,217.23780008124996,218.62307269166664,46.0,102.0
841,218.47067558124996,218.78916841874997,58.0,68.0
842,218.26519633124997,218.8062916895833,53.0,73.0
843,218.88163408124998,219.75492089374998,58.0,96.0
844,218.88163408124998,220.51005713749998,46.0,63.0
845,218.88163408124998,220.51005713749998,61.0,55.0
846,218.67615483124996,220.55115298749996,65.0,61.0
847,220.11450958124996,220.57512556666663,58.0,57.0
848,220.73094733124998,221.36793300624998,54.0,75.0
849,220.93642658124998,221.44327539791664,58.0,79.0
850,221.14190583124997,221.6573162833333,61.0,66.0
851,220.52546808124998,221.75149427291663,42.0,79.0
852,221.55286433124996,222.12135692291665,54.0,67.0
853,221.75834358124996,222.14704182916662,58.0,48.0
854,221.96382283124996,222.15902811874997,61.0,66.0
855,221.34738508124997,222.16930208124998,66.0,76.0
856,222.37478133124998,223.04601354791663,56.0,74.0
857,222.78573983124997,223.09738336041664,63.0,69.0
858,222.58026058124997,223.11450663124998,60.0,58.0
859,222.16930208124998,223.40217758124996,44.0,44.0
860,223.19669833124996,223.7275197270833,56.0,70.0
861,223.40217758124996,223.82341004374996,63.0,63.0
862,222.99121908124997,223.82854702499998,68.0,117.0
863,223.60765683124998,223.8508072770833,60.0,68.0
864,224.01861533124998,224.68471056666664,58.0,81.0
865,224.22409458124997,224.7343680520833,61.0,59.0
866,224.42957383124997,224.9090254145833,65.0,61.0
867,223.81313608124998,225.37820303541665,46.0,55.0
868,224.84053233124996,225.57512064999997,58.0,77.0
869,225.04601158124996,225.73779172291663,61.0,44.0
870,225.25149083124998,225.87820254374998,65.0,58.0
871,224.63505308124996,225.9466956270833,70.0,72.0
872,225.66244933124997,226.29258569791665,58.0,68.0
873,225.86792858124997,226.42785953749998,61.0,55.0
874,226.07340783124997,226.55970872291664,65.0,59.0
875,226.48436633124996,226.7121058333333,58.0,88.0
876,225.45697008124998,226.75148935624998,46.0,63.0
877,226.27888708124996,227.1230643333333,70.0,95.0
878,226.89532483124998,227.1282013145833,65.0,65.0
879,226.68984558124998,227.15559854791664,61.0,93.0
880,227.30628333124997,227.97237856666663,54.0,62.0
881,227.71724183124996,227.99292649166662,61.0,73.0
882,227.51176258124997,228.02546070624996,58.0,63.0
883,227.10080408124998,228.46895342083332,42.0,82.0
884,228.33367958124998,228.68299430624998,58.0,75.0
885,228.12820033124996,228.70182990416663,54.0,77.0
886,228.53915883124998,228.73778877291664,61.0,53.0
887,227.92272108124996,228.73778877291664,66.0,100.0
888,228.95011733124997,229.64189747291664,56.0,86.0
889,229.36107583124996,229.65217143541665,63.0,86.0
890,229.15559658124997,229.68984263124997,60.0,63.0
891,228.74463808124997,230.1127874208333,44.0,67.0
892,229.97751358124998,230.36621182916664,63.0,78.0
893,229.77203433124998,230.36792415624996,56.0,77.0
894,229.56655508124996,230.36792415624996,68.0,122.0
895,230.18299283124998,230.38847208124997,60.0,66.0
896,230.59395133124997,231.26518354791665,58.0,81.0
897,230.79943058124996,231.33710128541662,61.0,62.0
898,231.00490983124996,231.3507999020833,65.0,55.0
899,231.41586833124998,231.58538871249996,58.0,78.0
900,230.38847208124997,231.64703248749996,46.0,76.0
901,231.82682683124997,232.02031979166662,65.0,72.0
902,231.62134758124998,232.06655262291665,61.0,74.0
903,231.21038908124996,232.08196356666664,70.0,69.0
904,232.23778533124997,232.87819566041662,56.0,69.0
905,232.44326458124996,232.94497641666663,60.0,40.0
906,233.05970233124998,233.1744282458333,56.0,82.0
907,232.03230608124997,233.21894874999998,44.0,68.0
908,232.64874383124996,233.2206610770833,63.0,63.0
909,233.26518158124998,233.59737303541664,60.0,81.0
910,232.85422308124996,233.60251001666663,68.0,112.0
911,233.47066083124997,233.67614008124997,63.0,64.0
912,233.88161933124996,234.51175569791664,54.0,40.0
913,234.08709858124996,234.5819611083333,58.0,55.0
914,234.29257783124996,234.60079670624998,61.0,61.0
915,233.67614008124997,234.91928954374998,42.0,63.0
916,234.70353633124998,235.22065911041665,54.0,68.0
917,234.90901558124997,235.30456313749997,58.0,69.0
918,235.11449483124997,235.31826175416663,61.0,52.0
919,234.49805708124998,235.34394666041663,66.0,95.0
920,235.52545333124996,236.17271296874998,56.0,61.0
921,235.73093258124996,236.26517863124997,60.0,58.0
922,235.93641183124996,236.42271272291663,63.0,92.0
923,235.31997408124997,236.65558920624997,44.0,79.0
924,236.14189108124998,236.88675336249997,68.0,107.0
925,236.34737033124998,236.91757524999997,56.0,68.0
926,236.55284958124997,236.9346985208333,60.0,76.0
927,236.75832883124997,236.9346985208333,63.0,68.0
928,237.16928733124996,237.8285332583333,58.0,60.0
929,237.58024583124998,237.8799030708333,65.0,68.0
930,237.37476658124996,237.9466838270833,61.0,63.0
931,237.99120433124997,238.11277955416662,58.0,72.0
932,236.96380808124997,238.16072471249996,46.0,89.0
933,238.40216283124997,238.62134069791662,65.0,64.0
934,238.19668358124997,238.6812721458333,61.0,82.0
935,237.78572508124998,238.8096966770833,70.0,76.0
936,239.01860058124996,239.45524398749995,61.0,63.0
937,238.81312133124996,239.52716172499996,56.0,58.0
938,239.63503833124997,239.88675041249996,56.0,61.0
939,239.42955908124998,239.94325720624997,63.0,82.0
940,238.60764208124996,239.9501065145833,44.0,74.0
941,239.84051758124997,240.20866790416665,60.0,66.0
942,240.04599683124997,240.27716098749997,63.0,64.0
943,240.45695533124996,241.1059272958333,54.0,55.0
944,240.86791383124998,241.1675710708333,61.0,56.0
945,240.66243458124995,241.2035299395833,58.0,55.0
946,240.25147608124996,241.73606366249996,42.0,82.0
947,241.27887233124997,241.80284441874997,54.0,69.0
948,241.68983083124996,241.80284441874997,54.0,25.0
949,241.48435158124997,241.8199676895833,58.0,63.0
950,241.07339308124998,241.88846077291663,66.0,93.0
951,241.68983083124996,241.89531008124996,61.0,42.0
952,242.10078933124996,242.7548982770833,54.0,53.0
953,242.51174783124998,242.81311739791664,61.0,73.0
954,242.30626858124998,242.82852834166664,58.0,45.0
955,241.89531008124996,243.17441841249996,42.0,61.0
956,242.92270633124997,243.4638016895833,54.0,79.0
957,242.71722708124997,243.46722634374996,66.0,96.0
958,243.12818558124997,243.4894865958333,58.0,64.0
959,243.33366483124996,243.5665413145833,61.0,71.0
960,243.74462333124995,244.39017064166663,56.0,60.0
961,244.15558183124998,244.5374307708333,63.0,63.0
962,243.95010258124998,244.54428007916664,60.0,46.0
963,243.53914408124996,245.01859468124997,44.0,74.0
964,244.56654033124997,245.28400537916664,56.0,75.0
965,244.77201958124996,245.49462161041663,60.0,47.0
966,244.97749883124996,245.69496387916664,63.0,50.0
967,244.36106108124997,245.86962124166664,68.0,93.0
968,245.38845733124998,246.79085321249997,56.0,53.0
969,245.79941583124997,246.80455182916663,63.0,58.0
970,245.59393658124998,246.84051069791664,60.0,41.0
971,245.18297808124996,246.84564767916663,44.0,58.0
972,246.00489508124997,246.85078466041662,68.0,68.0
973,246.80626415624997,248.7497553958333,58.0,69.0
974,250.11790473541663,251.92783446249996,58.0,24.0
975,252.0528343395833,254.28570885624995,58.0,35.0
976,246.7720176145833,254.2874211833333,61.0,68.0
977,246.83023673541663,254.2925581645833,70.0,67.0
978,246.6949628958333,254.29427049166662,65.0,58.0
979,246.8490723333333,254.3490649583333,46.0,75.0
980,246.84736000624997,254.41242106041662,34.0,62.0
