,start,end,pitch,velocity
0,32.9240473375,33.064875541666666,63.0,112.0
1,33.1620668375,33.54488153333333,63.0,107.0
2,33.6381058375,33.77496705,63.0,97.0
3,33.8761253375,34.00505256666667,63.0,89.0
4,34.1141448375,34.409685716666665,71.0,93.0
5,34.3521643375,34.58820034166667,70.0,100.0
6,34.5901838375,35.960779458333334,71.0,96.0
7,36.0183008375,36.204749445833336,73.0,117.0
8,36.2563203375,36.4586369125,71.0,89.0
9,36.4943398375,37.035834200000004,70.0,107.0
10,37.4464178375,37.603114008333336,66.0,92.0
11,37.6844373375,37.9938626875,66.0,107.0
12,38.1604763375,38.3627929125,63.0,99.0
13,38.3984958375,39.91983714166667,68.0,93.0
14,40.5406713375,40.691417020833335,63.0,112.0
15,40.7786908375,41.143654070833335,63.0,99.0
16,41.2547298375,41.375723083333334,63.0,93.0
17,41.4927493375,41.619693070833335,63.0,97.0
18,41.7307688375,41.97870581666667,71.0,96.0
19,41.9687883375,42.1770554,70.0,96.0
20,42.2068078375,43.3969053375,71.0,112.0
21,43.6349248375,43.878894825,73.0,112.0
22,43.8729443375,44.13674928333334,71.0,90.0
23,44.1109638375,44.7655174625,70.0,112.0
24,45.0630418375,45.4200710875,70.0,107.0
25,45.5390808375,45.75528188333333,71.0,99.0
26,45.7771003375,46.04288877916667,73.0,97.0
27,46.0151198375,47.7526621875,68.0,92.0
28,48.1572953375,48.29812354166667,63.0,112.0
29,48.3953148375,48.778129533333335,63.0,107.0
30,48.8713538375,49.008215050000004,63.0,97.0
31,49.1093733375,49.238300566666666,63.0,89.0
32,49.3473928375,49.64293371666667,71.0,93.0
33,49.5854123375,49.82144834166667,70.0,100.0
34,49.8234318375,51.19402745833334,71.0,96.0
35,51.2515488375,51.43799744583333,73.0,117.0
36,51.4895683375,51.6918849125,71.0,89.0
37,51.7275878375,52.2690822,70.0,107.0
38,52.6796658375,52.83636200833333,66.0,92.0
39,52.917685337500004,53.2271106875,66.0,107.0
40,53.393724337500004,53.5960409125,63.0,99.0
41,53.631743837500004,55.153085141666665,68.0,93.0
42,55.773919337500004,55.92466502083334,63.0,112.0
43,56.011938837500004,56.37690207083333,63.0,99.0
44,56.487977837500004,56.60897108333334,63.0,93.0
45,56.725997337500004,56.85294107083333,63.0,97.0
46,56.964016837500004,57.21195381666667,71.0,96.0
47,57.202036337500004,57.410303400000004,73.0,96.0
48,57.440055837500005,58.630153337500005,71.0,112.0
49,58.868172837500005,59.0942913625,68.0,112.0
50,59.1061923375,59.254954525,70.0,102.0
51,59.3442118375,59.60206629583333,71.0,96.0
52,59.5822313375,59.70322458333334,73.0,122.0
53,59.8202508375,59.93132660416667,73.0,122.0
54,60.0582703375,60.183230575,73.0,122.0
55,60.2962898375,60.44108503333334,73.0,127.0
56,60.5343093375,60.71877445,71.0,122.0
57,60.7723288375,61.036133783333334,70.0,122.0
58,61.2483678375,62.80541206666667,68.0,112.0
59,62.6764848375,62.80541206666667,68.0,112.0
60,62.9145043375,63.077150995833335,70.0,117.0
61,63.1525238375,64.33865434583333,71.0,97.0
62,64.8186603375,65.181640075,75.0,127.0
63,65.2946993375,65.60015769583333,75.0,127.0
64,65.7707383375,66.1872724625,76.0,127.0
65,66.2467773375,66.58992211666667,73.0,97.0
66,66.7228163375,66.966786325,71.0,112.0
67,66.9608358375,67.47852825,73.0,127.0
68,67.6748943375,68.05969252916667,70.0,127.0
69,68.1509333375,68.61308786666667,71.0,112.0
70,68.6269723375,68.9006947625,73.0,122.0
71,68.8649918375,69.75558146666667,75.0,127.0
72,70.53112833750001,70.7929497875,68.0,127.0
73,70.7691478375,70.98138189166667,70.0,102.0
74,71.00716733750001,71.37808105833334,71.0,107.0
75,71.48320633750001,71.68750640833333,73.0,117.0
76,71.7212258375,72.4590862875,71.0,122.0
77,72.91132333750001,73.37744485833333,70.0,127.0
78,73.38736233750001,73.6848867125,71.0,90.0
79,73.6253818375,74.0538169375,70.0,107.0
80,74.33944033750001,74.75994145416666,63.0,112.0
81,74.81547933750001,76.06904870416666,68.0,122.0
82,78.6237913375,78.72693312083334,75.0,127.0
83,78.8618108375,78.9748701,75.0,117.0
84,79.0998303375,79.20297212083334,75.0,127.0
85,79.3378498375,79.43107414166667,75.0,107.0
86,79.5758693375,79.6829781125,75.0,127.0
87,79.8138888375,80.06777630416667,75.0,127.0
88,80.2899278375,80.6231551375,73.0,127.0
89,80.7659668375,80.8611746375,73.0,127.0
90,81.0039863375,81.10316112916666,73.0,117.0
91,81.2420058375,81.33126315,73.0,127.0
92,81.4800253375,81.70416036666667,80.0,127.0
93,81.7180448375,82.03738766666667,78.0,127.0
94,82.1940838375,82.5392121125,73.0,127.0
95,82.6701228375,82.77921510833333,73.0,102.0
96,82.9081423375,83.01326761666667,73.0,117.0
97,83.1461618375,83.24533662916667,73.0,107.0
98,83.3841813375,83.70154067083334,73.0,127.0
99,83.8602203375,84.104190325,73.0,127.0
100,84.0982398375,84.3362593375,71.0,93.0
101,84.3362593375,84.50683997916667,73.0,127.0
102,84.5742788375,84.98684597083333,75.0,127.0
103,85.0503178375,85.62553162916667,75.0,122.0
104,86.2404153375,86.95050684583333,68.0,127.0
105,87.1924933375,87.35513999583334,68.0,116.0
106,87.4305128375,87.56340705833334,68.0,116.0
107,87.6685323375,87.8470469625,71.0,116.0
108,87.9065518375,88.40440929166667,73.0,117.0
109,89.3346688375,89.53500191666667,73.0,127.0
110,89.5726883375,89.76707092916666,71.0,95.0
111,89.5726883375,89.79682336666667,73.0,117.0
112,90.0487273375,90.17765456666667,75.0,122.0
113,90.2867468375,90.41369057083334,75.0,97.0
114,90.5247663375,90.63584210416667,75.0,117.0
115,90.7627858375,90.88179558750001,75.0,122.0
116,91.0008053375,91.11783159166667,75.0,122.0
117,91.2388248375,91.37568605,75.0,127.0
118,91.4768443375,91.65734245833333,78.0,127.0
119,91.7148638375,92.9049613375,75.0,127.0
120,93.8570393375,93.97406559166667,75.0,127.0
121,94.0950588375,94.20613460416666,75.0,102.0
122,94.3330783375,94.44217060833334,75.0,127.0
123,94.5710978375,94.68217360416666,75.0,127.0
124,94.8091173375,94.9162261125,75.0,127.0
125,95.0471368375,95.33077674166667,75.0,127.0
126,95.5231758375,95.85045265000001,73.0,127.0
127,95.9992148375,96.09243914166667,73.0,107.0
128,96.2372343375,96.3324421375,73.0,102.0
129,96.4752538375,96.56252765416667,73.0,122.0
130,96.7132733375,96.90368893750001,80.0,127.0
131,96.9512928375,97.25873469166667,78.0,117.0
132,97.4273318375,97.76452612916667,80.0,127.0
133,97.9033708375,97.99659514166667,78.0,127.0
134,98.1413903375,98.24651561666667,78.0,117.0
135,98.3794098375,98.45874967083334,78.0,127.0
136,98.6174293375,98.92883818333334,78.0,127.0
137,99.0934683375,99.19264312916667,75.0,127.0
138,99.3314878375,99.45446457916667,75.0,127.0
139,99.5695073375,99.789675375,73.0,127.0
140,99.8075268375,100.04752983333333,75.0,112.0
141,100.2835658375,100.85679613333333,75.0,127.0
142,101.4736633375,102.08656355000001,68.0,127.0
143,102.1877218375,102.27499565416667,68.0,23.0
144,102.4257413375,102.53483360833333,68.0,127.0
145,102.6637608375,102.78078709166667,68.0,127.0
146,102.9017803375,103.10806390416667,80.0,127.0
147,103.13979983750001,103.70707964583333,78.0,127.0
148,104.3298973375,104.526263425,70.0,127.0
149,104.56791683750001,104.84560625416667,70.0,127.0
150,105.04395583750001,105.27999184166667,66.0,107.0
151,105.51999483750001,106.22810285,68.0,127.0
152,141.71389345625005,141.8547664791667,63.0,112.0
153,141.95198870625003,142.33492523333337,63.0,107.0
154,142.42817920625004,142.56508397500005,63.0,97.0
155,142.66627445625002,142.7952427166667,63.0,89.0
156,142.90436970625004,143.2000046416667,71.0,93.0
157,143.14246495625002,143.3785760791667,70.0,100.0
158,143.38056020625004,144.75159202083336,71.0,96.0
159,144.80913170625004,144.99563965208338,73.0,117.0
160,145.04722695625003,145.24960791875003,71.0,89.0
161,145.28532220625004,145.82698890000003,70.0,107.0
162,146.23770320625005,146.39444924583336,66.0,92.0
163,146.47579845625003,146.78532228125005,66.0,107.0
164,146.95198895625003,147.15436991875004,63.0,99.0
165,147.19008420625005,148.7119096791667,68.0,93.0
166,149.33294145625004,149.48373511458337,63.0,112.0
167,149.57103670625003,149.93611608958338,63.0,99.0
168,150.04722720625003,150.16825895833338,63.0,93.0
169,150.28532245625004,150.41230658958338,63.0,97.0
170,150.52341770625003,150.7714335916667,71.0,96.0
171,150.76151295625004,150.96984630000003,70.0,96.0
172,150.99960820625003,152.19008445625005,71.0,112.0
173,152.42817970625003,152.67222733750003,73.0,112.0
174,152.66627495625005,152.93016385833337,71.0,90.0
175,152.90437020625004,153.55913214375005,70.0,112.0
176,153.85675120625004,154.21389408125003,70.0,107.0
177,154.33294170625004,154.54921155833338,71.0,99.0
178,154.57103695625003,154.8369099854167,73.0,97.0
179,154.80913220625004,156.54722753125003,68.0,92.0
180,156.95198945625003,157.0928624791667,63.0,112.0
181,157.19008470625005,157.57302123333338,63.0,107.0
182,157.66627520625002,157.80317997500003,63.0,97.0
183,157.90437045625004,158.0333387166667,63.0,89.0
184,158.14246570625005,158.4381006416667,71.0,93.0
185,158.38056095625004,158.6166720791667,70.0,100.0
186,158.61865620625002,159.98968802083337,71.0,96.0
187,160.04722770625003,160.23373565208337,73.0,117.0
188,160.28532295625004,160.48770391875004,71.0,89.0
189,160.52341820625003,161.06508490000004,70.0,107.0
190,161.47579920625003,161.63254524583337,66.0,92.0
191,161.71389445625005,162.02341828125003,66.0,107.0
192,162.19008495625005,162.39246591875005,63.0,99.0
193,162.42818020625003,163.9500056791667,68.0,93.0
194,164.57103745625002,164.72183111458338,63.0,112.0
195,164.80913270625004,165.17421208958336,63.0,99.0
196,165.28532320625004,165.40635495833337,63.0,93.0
197,165.52341845625003,165.65040258958336,63.0,97.0
198,165.76151370625004,166.0095295916667,71.0,96.0
199,165.99960895625003,166.20794230000004,73.0,96.0
200,166.23770420625004,167.42818045625003,71.0,112.0
201,167.66627570625005,167.89246619375004,68.0,112.0
202,167.90437095625003,168.05318048750004,70.0,102.0
203,168.14246620625005,168.40040272708336,71.0,96.0
204,168.38056145625004,168.50159320833336,73.0,122.0
205,168.61865670625002,168.7297678229167,73.0,122.0
206,168.85675195625004,168.98175196250003,73.0,122.0
207,169.09484720625005,169.23968848333337,73.0,127.0
208,169.33294245625004,169.51746627500003,71.0,122.0
209,169.57103770625002,169.83492660833338,70.0,122.0
210,170.04722820625003,171.6047679666667,68.0,112.0
211,171.47579970625003,171.6047679666667,68.0,112.0
212,171.71389495625004,171.87659337708337,70.0,117.0
213,171.95199020625003,173.13849820208338,71.0,97.0
214,173.61865695625005,173.98175221250003,75.0,127.0
215,174.09484745625002,174.40040302708337,75.0,127.0
216,174.57103795625005,174.98770464375002,76.0,127.0
217,175.04722845625002,175.3904824416667,73.0,97.0
218,175.52341895625003,175.76746658750005,71.0,112.0
219,175.76151420625004,176.27937137500004,73.0,127.0
220,176.47579995625003,176.8607206104167,70.0,127.0
221,176.95199045625003,177.4142920666667,71.0,112.0
222,177.42818095625003,177.70199049375003,73.0,122.0
223,177.66627620625005,178.5571492666667,75.0,127.0
224,179.33294295625004,179.59484773125004,68.0,127.0
225,179.57103820625002,179.7833398041667,70.0,102.0
226,179.80913345625004,180.18016522083337,71.0,107.0
227,180.28532395625004,180.48968904583336,73.0,117.0
228,180.52341920625003,181.26151448125003,71.0,122.0
229,181.71389545625004,182.18016532083337,70.0,127.0
230,182.19008595625004,182.48770501875003,71.0,90.0
231,182.42818120625003,182.85675265625002,70.0,107.0
232,183.14246695625002,183.5631018979167,63.0,112.0
233,183.61865745625005,184.8726257729167,68.0,122.0
234,187.42818145625003,187.53135606458338,75.0,127.0
235,187.66627670625004,187.77937195000004,75.0,117.0
236,187.90437195625003,188.00754656458338,75.0,127.0
237,188.14246720625005,188.23572117916672,75.0,107.0
238,188.38056245625003,188.48770531875005,75.0,127.0
239,188.61865770625002,188.8726259729167,75.0,127.0
240,189.09484820625005,189.42818155625002,73.0,127.0
241,189.57103870625002,189.66627680625004,73.0,127.0
242,189.80913395625004,189.9083403104167,73.0,117.0
243,190.04722920625005,190.13651492500003,73.0,127.0
244,190.28532445625004,190.5095308166667,80.0,127.0
245,190.52341970625002,190.8428641666667,78.0,127.0
246,190.99961020625003,191.34484831875005,73.0,127.0
247,191.47580070625003,191.58492769583336,73.0,102.0
248,191.71389595625004,191.8190546916667,73.0,117.0
249,191.95199120625003,192.0511975604167,73.0,107.0
250,192.19008645625004,192.5075467895834,73.0,127.0
251,192.66627695625004,192.91032458750004,73.0,127.0
252,192.90437220625003,193.14246745625005,71.0,93.0
253,193.14246745625005,193.3131023854167,73.0,127.0
254,193.38056270625003,193.79326113958336,75.0,127.0
255,193.85675320625003,194.4321500604167,75.0,122.0
256,195.04722945625002,195.75754695208337,68.0,127.0
257,195.99961045625002,196.16230887708338,68.0,116.0
258,196.23770570625004,196.37064222083336,68.0,116.0
259,196.47580095625003,196.65437239375004,71.0,116.0
260,196.71389620625004,197.2119121041667,73.0,117.0
261,198.14246770625005,198.3428645416667,73.0,127.0
262,198.38056295625003,198.5750074104167,71.0,95.0
263,198.38056295625003,198.6047693166667,73.0,117.0
264,198.85675345625003,198.98572171666672,75.0,122.0
265,199.09484870625005,199.22183283958339,75.0,97.0
266,199.33294395625003,199.4440550729167,75.0,117.0
267,199.57103920625002,199.69008683125003,75.0,122.0
268,199.80913445625004,199.9261979541667,75.0,122.0
269,200.04722970625005,200.18413447500004,75.0,127.0
270,200.28532495625004,200.46588052083337,78.0,127.0
271,200.52342020625002,201.71389645625004,75.0,127.0
272,202.66627745625004,202.7833409541667,75.0,127.0
273,202.90437270625003,203.0154838229167,75.0,102.0
274,203.14246795625004,203.25159494583338,75.0,127.0
275,203.38056320625003,203.4916743229167,75.0,127.0
276,203.61865845625005,203.72580131875003,75.0,127.0
277,203.85675370625003,204.1404838791667,75.0,127.0
278,204.33294420625003,204.66032517500003,73.0,127.0
279,204.80913470625003,204.9023886791667,73.0,107.0
280,205.04722995625002,205.14246805625004,73.0,102.0
281,205.28532520625004,205.37262679791672,73.0,122.0
282,205.52342045625005,205.71389665625003,80.0,127.0
283,205.76151570625004,206.0690554041667,78.0,117.0
284,206.23770620625004,206.5750078104167,80.0,127.0
285,206.71389670625004,206.80715067916668,78.0,127.0
286,206.95199195625003,207.05715069166672,78.0,117.0
287,207.19008720625004,207.26945228958337,78.0,127.0
288,207.42818245625006,207.7396904083334,78.0,127.0
289,207.90437295625003,208.00357931041668,75.0,127.0
290,208.14246820625004,208.2654840854167,75.0,127.0
291,208.38056345625003,208.60080156250004,73.0,127.0
292,208.61865870625002,208.85873808333338,75.0,112.0
293,209.09484920625005,209.66826193333338,75.0,127.0
294,210.28532545625004,210.89842072500005,68.0,127.0
295,210.99961120625005,211.08691279791668,68.0,23.0
296,211.23770645625004,211.34683344583337,68.0,127.0
297,211.47580170625002,211.59286520416669,68.0,127.0
298,211.71389695625004,211.9202461729167,80.0,127.0
299,211.95199220625005,212.51945255208335,78.0,127.0
300,213.14246845625001,213.33889703750003,70.0,127.0
301,213.38056370625003,213.6583414979167,70.0,127.0
302,213.85675420625003,214.0928653291667,66.0,107.0
303,214.33294470625003,215.04127807500004,68.0,127.0
304,217.90437345625003,218.00754806458337,75.0,127.0
305,218.14246870625004,218.25556395000004,75.0,117.0
306,218.38056395625003,218.48373856458335,75.0,127.0
307,218.61865920625002,218.7119131791667,75.0,107.0
308,218.85675445625003,218.96389731875004,75.0,127.0
309,219.09484970625005,219.34881797291672,75.0,127.0
310,219.57104020625002,219.90437355625005,73.0,127.0
311,220.04723070625005,220.14246880625004,73.0,127.0
312,220.28532595625003,220.38453231041672,73.0,117.0
313,220.52342120625002,220.61270692500005,73.0,127.0
314,220.76151645625004,220.9857228166667,80.0,127.0
315,220.99961170625005,221.3190561666667,78.0,127.0
316,221.47580220625002,221.82104031875002,73.0,127.0
317,221.95199270625005,222.06111969583338,73.0,102.0
318,222.19008795625004,222.2952466916667,73.0,117.0
319,222.42818320625003,222.5273895604167,73.0,107.0
320,222.66627845625004,222.98373878958336,73.0,127.0
321,223.14246895625004,223.38651658750004,73.0,127.0
322,223.38056420625003,223.61865945625004,71.0,93.0
323,223.61865945625004,223.7892943854167,73.0,127.0
324,223.85675470625003,224.26945313958336,75.0,127.0
325,224.33294520625003,224.90834206041671,75.0,122.0
326,225.52342145625005,226.23373895208337,68.0,127.0
327,226.47580245625005,226.63850087708337,68.0,116.0
328,226.71389770625004,226.8468342208334,68.0,116.0
329,226.95199295625002,227.13056439375003,71.0,116.0
330,227.19008820625004,227.6881041041667,73.0,117.0
331,228.61865970625004,228.8190565416667,73.0,127.0
332,228.85675495625003,229.0511994104167,71.0,95.0
333,228.85675495625003,229.0809613166667,73.0,117.0
334,229.33294545625003,229.4619137166667,75.0,122.0
335,229.57104070625002,229.69802483958335,75.0,97.0
336,229.80913595625003,229.9202470729167,75.0,117.0
337,230.04723120625005,230.16627883125005,75.0,122.0
338,230.28532645625003,230.40238995416672,75.0,122.0
339,230.52342170625002,230.66032647500003,75.0,127.0
340,230.76151695625003,230.94207252083336,78.0,127.0
341,230.99961220625005,232.19008845625004,75.0,127.0
342,233.14246945625004,233.2595329541667,75.0,127.0
343,233.38056470625003,233.4916758229167,75.0,102.0
344,233.61865995625004,233.72778694583337,75.0,127.0
345,233.85675520625006,233.9678663229167,75.0,127.0
346,234.09485045625001,234.20199331875006,75.0,127.0
347,234.33294570625003,234.6166758791667,75.0,127.0
348,234.80913620625003,235.13651717500005,73.0,127.0
349,235.28532670625003,235.3785806791667,73.0,107.0
350,235.52342195625005,235.61866005625004,73.0,102.0
351,235.76151720625003,235.8488187979167,73.0,122.0
352,235.99961245625002,236.19008865625005,80.0,127.0
353,236.23770770625003,236.5452474041667,78.0,117.0
354,236.71389820625004,237.0511998104167,80.0,127.0
355,237.19008870625004,237.2833426791667,78.0,127.0
356,237.42818395625005,237.5333426916667,78.0,117.0
357,237.66627920625004,237.74564428958337,78.0,127.0
358,237.90437445625003,238.21588240833336,78.0,127.0
359,238.38056495625005,238.4797713104167,75.0,127.0
360,238.61866020625004,238.7416760854167,75.0,127.0
361,238.85675545625003,239.07699356250004,73.0,127.0
362,239.09485070625004,239.33493008333338,75.0,112.0
363,239.57104120625002,240.14445393333335,75.0,127.0
364,240.76151745625003,241.37461272500002,68.0,127.0
365,241.47580320625002,241.5631047979167,68.0,23.0
366,241.71389845625004,241.82302544583337,68.0,127.0
367,241.95199370625005,242.0690572041667,68.0,127.0
368,242.19008895625004,242.3964381729167,80.0,127.0
369,242.42818420625002,242.99564455208338,78.0,127.0
370,243.61866045625004,243.81508903750003,70.0,127.0
371,243.85675570625006,244.13453349791672,70.0,127.0
372,244.33294620625003,244.5690573291667,66.0,107.0
373,244.80913670625003,245.51747007500003,68.0,127.0
