,start,end,pitch,velocity
0,3.4096293375,4.752456016666667,56.0,42.0
1,2.9335903375,4.8377463375000005,51.0,29.0
2,2.4575513375,4.9329541375,44.0,73.0
3,3.4096293375,6.232143908333334,63.0,45.0
4,3.4096293375,6.345203170833334,59.0,43.0
5,7.2179413375,8.279111608333334,52.0,49.0
6,6.7419023375,8.659942808333334,47.0,51.0
7,6.2658633375,8.675810775,40.0,75.0
8,7.2179413375,9.590202354166667,64.0,58.0
9,7.2179413375,9.804419904166666,59.0,56.0
10,11.0262533375,12.706274308333334,64.0,66.0
11,11.0262533375,13.031567625000001,49.0,45.0
12,11.0262533375,13.083138516666667,56.0,52.0
13,10.0741753375,13.247768670833334,37.0,73.0
14,10.5502143375,13.2755376125,44.0,38.0
15,13.1684288375,13.428266791666667,49.0,57.0
16,12.9304093375,13.87653685,64.0,66.0
17,11.0262533375,13.886454329166668,61.0,69.0
18,13.4064483375,13.908272783333334,56.0,60.0
19,15.786643337500001,16.615744595833334,63.0,77.0
20,15.786643337500001,16.6673154875,58.0,67.0
21,15.310604337500001,16.827978650000002,51.0,38.0
22,14.8345653375,16.885500029166668,55.0,71.0
23,13.8824873375,17.06599815,39.0,89.0
24,14.3585263375,17.073932133333333,46.0,38.0
25,16.9767408375,17.1909583875,51.0,93.0
26,17.2147603375,17.6610469,55.0,71.0
27,16.7387213375,17.6907993375,63.0,117.0
28,18.4048578375,18.628992866666668,59.0,82.0
29,18.1668383375,18.704365708333334,56.0,89.0
30,18.4048578375,19.267678525,63.0,83.0
31,17.6907993375,19.454127133333333,44.0,95.0
32,17.9288188375,19.654460212500002,51.0,71.0
33,18.8808968375,19.688179641666668,56.0,67.0
34,19.1189163375,19.955951579166666,59.0,71.0
35,19.3569358375,20.116614741666666,63.0,65.0
36,20.0709943375,20.5648848,56.0,83.0
37,19.8329748375,20.848524704166667,51.0,57.0
38,19.5949553375,20.955633479166668,44.0,50.0
39,20.3090138375,21.530847270833334,63.0,117.0
40,21.0230723375,21.532830766666667,59.0,53.0
41,21.9751503375,22.455156329166666,52.0,58.0
42,21.4991113375,23.2842575875,40.0,69.0
43,23.1652478375,23.466739204166668,52.0,41.0
44,21.7371308375,23.478640179166668,47.0,46.0
45,22.2131698375,23.928893733333332,59.0,88.0
46,22.9272283375,23.98443161666667,56.0,58.0
47,23.4032673375,24.5160085,40.0,65.0
48,23.8793063375,24.5160085,47.0,45.0
49,24.3553453375,25.335192279166666,59.0,102.0
50,24.8313843375,25.3431262625,56.0,74.0
51,26.2595013375,26.79901220416667,56.0,112.0
52,26.4975208375,27.457532820833332,49.0,39.0
53,26.7355403375,28.135888395833334,52.0,64.0
54,27.687618337500002,28.153739858333335,49.0,37.0
55,25.7834623375,28.177541808333334,44.0,60.0
56,25.3074233375,28.2112612375,37.0,81.0
57,28.639696337500002,29.145487775,52.0,45.0
58,28.163657337500002,29.165322733333333,56.0,95.0
59,27.2115793375,29.167306229166666,61.0,93.0
60,30.305832837500002,30.6985650125,55.0,67.0
61,30.543852337500002,33.003387170833335,58.0,65.0
62,29.115735337500002,33.027189120833334,39.0,66.0
63,29.591774337500002,33.03909009583334,46.0,57.0
64,30.067813337500002,33.049007575,51.0,90.0
65,30.781871837500002,33.05297456666667,55.0,46.0
66,31.0198913375,33.058925054166664,63.0,93.0
67,33.4000863375,34.195468166666664,51.0,41.0
68,33.8761253375,34.36009832083334,63.0,75.0
69,33.8761253375,35.177298604166666,56.0,66.0
70,34.8282033375,35.405400625,68.0,68.0
71,34.8282033375,35.599783216666665,63.0,70.0
72,35.3042423375,35.786231825,56.0,52.0
73,34.8282033375,35.95681246666667,59.0,66.0
74,34.3521643375,35.9944988875,51.0,37.0
75,32.9240473375,36.15912904166667,44.0,69.0
76,35.7802813375,36.74624380833333,68.0,102.0
77,36.2563203375,36.783930229166664,63.0,56.0
78,36.7323593375,37.7974966,42.0,76.0
79,37.2083983375,37.864935458333335,49.0,65.0
80,38.1604763375,38.571059975000004,54.0,53.0
81,37.6844373375,38.648416312500004,58.0,71.0
82,37.6844373375,38.664284279166665,63.0,78.0
83,39.8266128375,40.04876437083333,56.0,69.0
84,38.6365153375,40.19752655833334,44.0,82.0
85,39.5885933375,40.53472085,63.0,117.0
86,39.1125543375,40.5882752375,51.0,58.0
87,40.0646323375,40.60811019583333,61.0,76.0
88,40.3026518375,40.62001117083334,59.0,44.0
89,41.4927493375,42.77408764583333,56.0,93.0
90,42.4448273375,43.00615665833333,68.0,92.0
91,42.4448273375,43.23822567083334,63.0,85.0
92,42.9208663375,43.61310638333333,56.0,77.0
93,41.9687883375,43.66864426666667,59.0,68.0
94,41.0167103375,43.6825287375,51.0,65.0
95,40.5406713375,43.740050116666666,44.0,76.0
96,43.3969053375,44.261709520833335,68.0,100.0
97,43.8729443375,44.307329925,63.0,97.0
98,44.1109638375,44.354933825,59.0,66.0
99,44.8250223375,45.320896295833336,54.0,72.0
100,44.3489833375,45.54106433333333,42.0,82.0
101,45.7771003375,46.163882025,54.0,63.0
102,45.3010613375,46.24917234583334,58.0,86.0
103,45.3010613375,46.259089825000004,61.0,90.0
104,47.2052173375,47.671338858333336,56.0,56.0
105,47.2052173375,47.758612675,63.0,107.0
106,46.2531393375,48.00853315,44.0,92.0
107,47.9192758375,48.20886622916667,63.0,77.0
108,47.6812563375,48.224734195833335,59.0,78.0
109,46.7291783375,48.240602162500004,51.0,58.0
110,48.6333343375,49.230366583333335,51.0,46.0
111,48.1572953375,49.95632605833333,44.0,90.0
112,49.5854123375,50.077319304166664,51.0,31.0
113,49.1093733375,50.476001966666665,63.0,99.0
114,49.1093733375,50.65451659166667,59.0,82.0
115,49.1093733375,50.9540244625,56.0,74.0
116,50.5374903375,51.088902179166666,51.0,60.0
117,50.0614513375,51.152374045833334,44.0,81.0
118,51.0135293375,51.9656073375,68.0,102.0
119,51.0135293375,51.98544229583334,63.0,102.0
120,51.4895683375,51.9894092875,59.0,75.0
121,52.4416463375,52.949421270833334,54.0,82.0
122,51.9656073375,53.002975658333334,42.0,90.0
123,53.393724337500004,53.8102584625,54.0,88.0
124,52.917685337500004,53.82612642916667,58.0,50.0
125,52.917685337500004,53.8400109,61.0,86.0
126,54.821841337500004,55.35540171666667,63.0,69.0
127,55.059860837500004,55.3811871625,56.0,81.0
128,53.869763337500004,55.57755325,44.0,96.0
129,54.345802337500004,55.82350673333333,51.0,52.0
130,55.535899837500004,55.87111063333334,63.0,77.0
131,55.297880337500004,55.904830062500004,59.0,79.0
132,54.821841337500004,55.9167310375,68.0,107.0
133,56.249958337500004,57.04335667083333,51.0,64.0
134,55.773919337500004,57.48369274583334,44.0,92.0
135,57.202036337500004,57.717745254166665,51.0,63.0
136,56.725997337500004,58.350480425,68.0,99.0
137,56.725997337500004,58.691641708333336,56.0,78.0
138,58.154114337500005,58.94751267083333,51.0,69.0
139,58.868172837500005,59.00900104166667,56.0,68.0
140,57.678075337500005,59.0109845375,44.0,90.0
141,58.630153337500005,59.461238091666665,68.0,99.0
142,58.630153337500005,59.47908955416667,63.0,100.0
143,59.1061923375,59.57628085,59.0,77.0
144,60.0582703375,60.57992974166667,54.0,92.0
145,59.5822313375,60.6414181125,42.0,95.0
146,61.0103483375,61.36936108333334,54.0,81.0
147,60.5343093375,61.43283295,58.0,107.0
148,60.5343093375,61.444733925,61.0,96.0
149,61.9624263375,62.539623625000004,56.0,127.0
150,62.2004458375,62.87681791666667,59.0,102.0
151,62.6764848375,62.88276840416667,56.0,58.0
152,61.7244068375,62.8907023875,51.0,75.0
153,61.4863873375,62.95814124583333,44.0,93.0
154,63.1525238375,63.35682390833333,59.0,85.0
155,62.4384653375,63.362774395833334,68.0,127.0
156,62.9145043375,63.368724883333336,63.0,95.0
157,63.8665823375,64.54295441666667,54.0,92.0
158,63.3905433375,64.69766709166667,47.0,85.0
159,65.0566798375,65.17370609166667,59.0,75.0
160,64.8186603375,65.24114495,63.0,96.0
161,64.3426213375,65.3066003125,66.0,122.0
162,65.7707383375,66.34396863333333,44.0,35.0
163,65.2946993375,66.66926195,37.0,93.0
164,66.2467773375,66.7466182875,49.0,75.0
165,66.2467773375,66.87356202083333,56.0,90.0
166,66.7228163375,67.13141647916667,52.0,76.0
167,66.9608358375,67.17108639583334,56.0,63.0
168,66.2467773375,67.20282232916666,61.0,100.0
169,67.6748943375,68.2639926,49.0,35.0
170,67.1988553375,68.55754998333333,42.0,102.0
171,68.3889528375,68.56945095833333,49.0,69.0
172,68.1509333375,69.06929190833334,58.0,99.0
173,68.6269723375,69.07722589166667,54.0,95.0
174,68.1509333375,69.08912686666667,61.0,88.0
175,69.57905033750001,70.4002176125,51.0,69.0
176,70.2931088375,70.4002176125,56.0,88.0
177,69.1030113375,70.453772,44.0,92.0
178,70.05508933750001,70.6144351625,63.0,127.0
179,70.7691478375,71.00915083333334,63.0,102.0
180,70.53112833750001,71.04088676666667,59.0,95.0
181,71.7212258375,72.05048614583333,59.0,92.0
182,71.48320633750001,72.09809004583333,52.0,93.0
183,72.1972648375,72.4233833625,52.0,92.0
184,71.00716733750001,72.43330084166666,40.0,89.0
185,71.95924533750001,72.51065717916667,64.0,112.0
186,71.2451868375,72.52850864166666,47.0,93.0
187,72.6733038375,72.90735634583334,64.0,90.0
188,72.43528433750001,72.93115829583334,59.0,96.0
189,73.38736233750001,73.95067515416667,51.0,90.0
190,73.6253818375,73.95464214583333,54.0,88.0
191,73.86340133750001,74.28588595000001,58.0,122.0
192,72.91132333750001,74.38109375,39.0,88.0
193,74.1014208375,74.39101122916666,51.0,99.0
194,73.1493428375,74.4108461875,46.0,63.0
195,74.33944033750001,74.72820552083334,58.0,39.0
196,74.5774598375,74.78175990833334,54.0,100.0
197,74.33944033750001,74.78175990833334,63.0,122.0
198,75.29151833750001,75.79929327083333,56.0,107.0
199,75.5295378375,75.85879814583333,59.0,90.0
200,75.76755733750001,76.25748080833334,63.0,122.0
201,76.0055768375,76.29715072500001,56.0,102.0
202,74.81547933750001,76.48359933333333,44.0,86.0
203,76.24359633750001,76.61847705,59.0,95.0
204,75.0534988375,76.63831200833333,51.0,35.0
205,76.4816158375,76.64029550416667,68.0,102.0
206,76.71963533750001,77.01914320833333,59.0,102.0
207,76.71963533750001,77.02707719166666,44.0,127.0
208,76.71963533750001,77.03104418333334,56.0,112.0
209,76.71963533750001,77.03501117500001,63.0,99.0
210,79.0998303375,79.69884607916667,56.0,100.0
211,79.3378498375,79.85355875416667,59.0,96.0
212,78.6237913375,79.90711314166667,44.0,107.0
213,78.8618108375,79.91703062083333,51.0,67.0
214,79.8138888375,79.9269481,56.0,112.0
215,79.5758693375,80.48827742083334,68.0,127.0
216,80.2899278375,80.56166676666666,59.0,102.0
217,80.0519083375,80.56960075,63.0,127.0
218,81.0039863375,81.57324964166666,54.0,96.0
219,81.2420058375,81.60696907083333,58.0,99.0
220,81.7180448375,81.9203614125,54.0,90.0
221,80.7659668375,82.02945368333333,49.0,99.0
222,80.5279473375,82.0691236,42.0,86.0
223,81.9560643375,82.13259546666667,61.0,112.0
224,81.4800253375,82.40631789166667,68.0,122.0
225,82.1940838375,82.47375675,58.0,107.0
226,82.9081423375,83.47542214583333,49.0,95.0
227,82.4321033375,83.72534262083333,37.0,97.0
228,82.6701228375,83.77294652083333,44.0,97.0
229,83.1461618375,83.87608830416667,52.0,78.0
230,83.6222008375,83.90385724583334,49.0,100.0
231,84.0982398375,84.3243583625,52.0,102.0
232,83.8602203375,84.342209825,56.0,107.0
233,83.3841813375,84.3541108,61.0,127.0
234,85.0503178375,85.32602375833333,59.0,95.0
235,84.8122983375,85.3478422125,56.0,97.0
236,85.5263568375,85.63544910833333,56.0,107.0
237,84.5742788375,85.6691685375,51.0,99.0
238,84.3362593375,85.70883845416667,44.0,82.0
239,85.2883373375,85.80801324583334,63.0,112.0
240,86.0023958375,86.23843184166667,63.0,127.0
241,85.2883373375,86.27413476666666,68.0,127.0
242,85.7643763375,86.30983769166667,59.0,99.0
243,86.9544738375,87.25993219583333,59.0,81.0
244,86.7164543375,87.30158560833334,52.0,95.0
245,87.4305128375,87.62291193333334,52.0,96.0
246,86.2404153375,87.64671388333333,40.0,81.0
247,87.1924933375,87.68440030416667,64.0,88.0
248,86.4784348375,87.7042352625,47.0,96.0
249,87.6685323375,88.1802742625,59.0,97.0
250,87.9065518375,88.18820824583334,64.0,92.0
251,87.1924933375,88.19415873333334,68.0,99.0
252,88.8586298375,89.11053380833333,58.0,90.0
253,88.6206103375,89.16607169166667,54.0,95.0
254,88.1445713375,89.39615720833334,42.0,81.0
255,88.3825908375,89.435827125,49.0,77.0
256,89.0966493375,89.578638825,61.0,117.0
257,89.3346688375,89.59847378333333,54.0,95.0
258,89.5726883375,89.87219620833334,58.0,107.0
259,89.8107078375,90.03484286666666,61.0,127.0
260,89.0966493375,90.04476034583334,66.0,112.0
261,90.5247663375,90.7865877875,59.0,97.0
262,90.7627858375,91.07022769166667,63.0,127.0
263,90.2867468375,91.07419468333333,54.0,95.0
264,90.0487273375,91.31221418333334,47.0,90.0
265,91.2388248375,91.34990060416666,54.0,99.0
266,91.4768443375,91.91519691666667,63.0,127.0
267,91.0008053375,91.92709789166666,66.0,117.0
268,91.7148638375,91.95089984166667,59.0,100.0
269,92.6669418375,92.85537394166667,55.0,81.0
270,92.4289223375,92.98430117083333,51.0,102.0
271,91.9528833375,93.37504985,39.0,90.0
272,92.1909028375,93.39488480833333,46.0,99.0
273,92.9049613375,93.40083529583333,58.0,127.0
274,93.1429808375,93.47025765000001,51.0,127.0
275,93.3810003375,93.696376175,55.0,117.0
276,93.6190198375,93.862989825,58.0,127.0
277,92.9049613375,93.886791775,63.0,127.0
278,94.5710978375,94.81308432916667,59.0,96.0
279,94.3330783375,94.886473675,56.0,107.0
280,95.0471368375,95.2375524375,56.0,117.0
281,94.0950588375,95.3030078,51.0,97.0
282,94.8091173375,95.31887576666666,63.0,107.0
283,93.8570393375,95.34267771666667,44.0,100.0
284,95.2851563375,95.59854867916667,59.0,112.0
285,94.8091173375,95.7314429,68.0,127.0
286,95.5231758375,95.79491476666666,63.0,127.0
287,96.4752538375,96.74897626250001,58.0,100.0
288,96.2372343375,96.78269569166667,54.0,99.0
289,96.7132733375,97.09807152916667,61.0,100.0
290,96.9512928375,97.123856975,54.0,99.0
291,95.9992148375,97.17939485833334,49.0,85.0
292,95.7611953375,97.20914729583333,42.0,92.0
293,97.1893123375,97.50270467916667,58.0,117.0
294,96.7132733375,97.64551637916666,66.0,117.0
295,97.4273318375,97.6653513375,61.0,102.0
296,98.3794098375,98.68685169166667,58.0,92.0
297,98.1413903375,98.75429055000001,51.0,90.0
298,97.6653513375,99.09148484166667,39.0,86.0
299,97.9033708375,99.09743532916667,46.0,47.0
300,98.6174293375,99.1053693125,63.0,95.0
301,98.8554488375,99.2065276,51.0,102.0
302,99.0934683375,99.36917425833333,58.0,102.0
303,98.6174293375,99.57744132083333,66.0,102.0
304,99.3314878375,99.623061725,63.0,122.0
305,100.2835658375,100.55133777500001,59.0,96.0
306,100.0455463375,100.59695817916666,56.0,90.0
307,99.8075268375,100.85679613333333,51.0,93.0
308,100.7596048375,100.86869710833334,56.0,100.0
309,99.5695073375,100.9024165375,44.0,85.0
310,100.5215853375,101.07299717916666,63.0,72.0
311,100.9976243375,101.50738276666667,59.0,102.0
312,101.2356438375,101.51730024583334,63.0,127.0
313,100.5215853375,101.52920122083333,68.0,117.0
314,102.1877218375,102.52491612916667,59.0,88.0
315,101.9497023375,102.53681710416667,52.0,99.0
316,101.4736633375,102.80855603333333,40.0,89.0
317,102.6637608375,102.81649001666666,52.0,100.0
318,101.7116828375,102.86806090833333,47.0,102.0
319,102.4257413375,102.92954927916666,64.0,95.0
320,102.4257413375,103.39765429583333,68.0,127.0
321,102.9017803375,103.40360478333334,59.0,96.0
322,103.13979983750001,103.40558827916666,64.0,95.0
323,103.8538583375,104.37353424583334,54.0,102.0
324,104.09187783750001,104.4429566,58.0,90.0
325,103.3778193375,104.65717415,42.0,95.0
326,103.61583883750001,104.6631246375,49.0,89.0
327,104.56791683750001,104.7464314625,54.0,102.0
328,104.8059363375,105.08759274583333,58.0,112.0
329,104.3298973375,105.21453647916667,66.0,127.0
330,105.04395583750001,105.26610737083334,61.0,107.0
331,105.7580143375,106.3054591875,56.0,112.0
332,105.99603383750001,106.60496705833333,59.0,99.0
333,105.2819753375,106.79736615416667,44.0,99.0
334,106.2340533375,106.92629338333333,68.0,127.0
335,106.7100923375,107.02150118333334,63.0,100.0
336,106.47207283750001,107.03538565416667,56.0,99.0
337,105.51999483750001,107.096874025,51.0,65.0
338,107.1861313375,109.0426834375,63.0,92.0
339,107.1861313375,109.06648538750001,51.0,72.0
340,107.1861313375,109.06648538750001,68.0,90.0
341,107.1861313375,109.07441937083334,56.0,85.0
342,106.94811183750001,109.08433685,59.0,85.0
343,107.1861313375,109.10020481666668,44.0,65.0
344,109.0902873375,109.10020481666668,44.0,122.0
345,109.32830683750001,109.36599325833333,71.0,96.0
346,109.32830683750001,109.38582821666667,75.0,96.0
347,109.4473165875,109.49293699166667,75.0,96.0
348,109.4473165875,109.50285447083334,71.0,96.0
349,109.5663263375,109.60401275833334,75.0,96.0
350,109.5663263375,109.62781470833333,71.0,96.0
351,110.0423653375,110.12170517083334,70.0,96.0
352,110.0423653375,110.13360614583334,75.0,96.0
353,110.28038483750001,110.3517906875,70.0,96.0
354,110.28038483750001,110.36567515833333,75.0,96.0
355,109.80434583750001,110.40336157916667,42.0,122.0
356,110.74448293750001,110.81318518750001,71.0,96.0
357,110.74448293750001,110.82272716666668,75.0,96.0
358,110.9734904375,111.03837589583334,71.0,96.0
359,110.9734904375,111.04600947916667,75.0,96.0
360,110.51547543750002,111.16814681250001,44.0,127.0
361,111.43150543750001,111.50784127083334,71.0,96.0
362,111.43150543750001,111.52120004166667,75.0,96.0
363,111.66051293750002,111.72539839583334,75.0,96.0
364,111.66051293750002,111.7292151875,71.0,96.0
365,111.20249793750001,111.78646706250001,44.0,127.0
366,112.1185279375,112.19295537500001,75.0,96.0
367,112.1185279375,112.20058895833334,71.0,96.0
368,111.88952043750001,112.32463468750001,40.0,100.0
369,112.34753543750001,112.59562689583335,42.0,127.0
370,112.57654293750001,112.64142839583334,75.0,96.0
371,112.57654293750001,112.64333679166667,71.0,96.0
372,113.03455793750001,113.07081745833334,71.0,96.0
373,113.03455793750001,113.08990141666668,75.0,96.0
374,112.8055504375,113.18341281250001,44.0,127.0
375,113.14906168750001,113.19295479166668,75.0,96.0
376,113.14906168750001,113.20249677083335,71.0,96.0
377,113.2635654375,113.29982495833335,75.0,96.0
378,113.2635654375,113.32272570833334,71.0,96.0
379,113.72158043750001,113.79791627083334,70.0,96.0
380,113.72158043750001,113.80936664583334,75.0,96.0
381,113.49257293750001,113.94677114583334,42.0,127.0
382,113.9505879375,114.0192901875,70.0,96.0
383,113.9505879375,114.03264895833334,75.0,96.0
384,114.4086029375,114.47730518750001,71.0,96.0
385,114.4086029375,114.48684716666668,75.0,96.0
386,114.63761043750002,114.70249589583334,71.0,96.0
387,114.63761043750002,114.71012947916668,75.0,96.0
388,114.17959543750001,114.8437171875,44.0,127.0
389,115.0956254375,115.17196127083335,71.0,96.0
390,115.0956254375,115.18532004166667,75.0,96.0
391,114.86661793750001,115.29982379166668,44.0,127.0
392,115.32463293750001,115.38951839583335,75.0,96.0
393,115.32463293750001,115.39333518750001,71.0,96.0
394,115.7826479375,115.85707537500001,75.0,96.0
395,115.7826479375,115.86470895833334,71.0,96.0
396,115.55364043750001,115.96012875000001,40.0,122.0
397,116.01165543750001,116.29982320833334,42.0,127.0
398,116.2406629375,116.30554839583334,75.0,96.0
399,116.2406629375,116.30745679166668,71.0,96.0
400,116.69867793750001,116.73493745833335,71.0,96.0
401,116.69867793750001,116.75402141666667,75.0,96.0
402,116.8131816875,116.85707479166668,75.0,96.0
403,116.8131816875,116.86661677083335,71.0,96.0
404,116.46967043750001,116.95631137500001,44.0,127.0
405,116.9276854375,116.96394495833334,75.0,96.0
406,116.9276854375,116.98684570833335,71.0,96.0
407,117.3857004375,117.46203627083334,70.0,96.0
408,117.3857004375,117.47348664583335,75.0,96.0
409,117.15669293750001,117.59180718750001,42.0,127.0
410,117.61470793750001,117.68341018750002,70.0,96.0
411,117.61470793750001,117.69676895833334,75.0,96.0
412,118.0727229375,118.1414251875,71.0,96.0
413,118.0727229375,118.15096716666667,75.0,96.0
414,118.30173043750001,118.36661589583335,71.0,96.0
415,118.30173043750001,118.37424947916668,75.0,96.0
416,117.84371543750001,118.37997466666667,44.0,127.0
417,118.75974543750002,118.83608127083335,71.0,97.0
418,118.75974543750002,118.84944004166668,75.0,97.0
419,118.5307379375,119.00592850000001,44.0,127.0
420,118.98875293750001,119.05363839583335,75.0,97.0
421,118.98875293750001,119.05745518750001,71.0,97.0
422,119.44676793750001,119.521195375,75.0,97.0
423,119.44676793750001,119.52882895833335,71.0,97.0
424,119.2177604375,119.54791291666668,40.0,112.0
425,119.90478293750002,119.96966839583334,75.0,97.0
426,119.90478293750002,119.97157679166668,71.0,97.0
427,119.67577543750001,120.04027904166668,42.0,127.0
428,120.3627979375,120.39905745833335,71.0,97.0
429,120.3627979375,120.41814141666667,75.0,97.0
430,120.47730168750002,120.52119479166667,75.0,97.0
431,120.47730168750002,120.53073677083334,71.0,97.0
432,120.59180543750001,120.62806495833334,75.0,97.0
433,120.59180543750001,120.65096570833335,71.0,97.0
434,120.13379043750001,120.69676720833334,44.0,127.0
435,121.04982043750002,121.12615627083335,70.0,97.0
436,121.04982043750002,121.13760664583334,75.0,97.0
437,120.82081293750001,121.23111804166668,42.0,127.0
438,121.27882793750001,121.34753018750001,70.0,97.0
439,121.27882793750001,121.36088895833335,75.0,97.0
440,121.73684293750001,121.8055451875,71.0,97.0
441,121.73684293750001,121.81508716666667,75.0,97.0
442,121.96585043750001,122.03073589583335,71.0,97.0
443,121.5078354375,122.03836947916668,44.0,127.0
444,121.96585043750001,122.03836947916668,75.0,97.0
445,122.42386543750001,122.50020127083334,71.0,97.0
446,122.42386543750001,122.51356004166668,75.0,97.0
447,122.1948579375,122.64333095833334,44.0,127.0
448,122.6528729375,122.71775839583334,75.0,97.0
449,122.6528729375,122.72157518750001,71.0,97.0
450,123.11088793750001,123.18531537500002,75.0,97.0
451,123.11088793750001,123.19294895833335,71.0,97.0
452,122.8818804375,123.22157489583334,40.0,112.0
453,123.56890293750001,123.63378839583334,75.0,98.0
454,123.56890293750001,123.63569679166667,71.0,98.0
455,123.3398954375,123.67958989583335,42.0,127.0
456,124.0269179375,124.06317745833334,71.0,98.0
457,124.0269179375,124.08226141666668,75.0,98.0
458,124.14142168750001,124.18531479166667,75.0,98.0
459,124.14142168750001,124.19485677083334,71.0,98.0
460,123.79791043750001,124.28264297916668,44.0,127.0
461,124.25592543750001,124.29218495833334,75.0,98.0
462,124.25592543750001,124.31508570833334,71.0,98.0
463,124.71394043750001,124.79027627083335,70.0,98.0
464,124.71394043750001,124.80172664583334,75.0,98.0
465,124.4849329375,124.857070125,42.0,127.0
466,124.94294793750001,125.01165018750001,70.0,98.0
467,124.94294793750001,125.02500895833334,75.0,98.0
468,124.94294793750001,125.07462725,42.0,107.0
469,125.1719554375,125.34180266666668,42.0,122.0
470,125.40096293750001,125.46966518750001,71.0,98.0
471,125.40096293750001,125.47920716666667,75.0,98.0
472,125.6299704375,125.69485589583334,71.0,98.0
473,125.6299704375,125.70248947916667,75.0,98.0
474,125.40096293750001,125.75019937500001,40.0,122.0
475,125.85897793750001,125.95439772916667,40.0,93.0
476,126.08798543750001,126.16432127083334,71.0,98.0
477,126.08798543750001,126.17768004166668,75.0,98.0
478,126.08798543750001,126.20821437500001,40.0,97.0
479,126.3169929375,126.38187839583334,75.0,98.0
480,126.3169929375,126.3856951875,71.0,98.0
481,126.3169929375,126.48684016666667,39.0,127.0
482,126.54600043750001,126.66813777083334,39.0,107.0
483,126.7750079375,126.84943537500001,75.0,98.0
484,126.7750079375,126.85706895833334,71.0,98.0
485,126.7750079375,126.91432083333333,39.0,100.0
486,127.00401543750002,127.23302293750001,37.0,127.0
487,127.23302293750001,127.29790839583335,75.0,98.0
488,127.23302293750001,127.29981679166667,71.0,98.0
489,127.69103793750001,127.72729745833334,71.0,98.0
490,127.4620304375,127.73683943750001,39.0,122.0
491,127.69103793750001,127.74638141666668,75.0,98.0
492,127.80554168750001,127.84943479166668,75.0,98.0
493,127.80554168750001,127.85897677083335,71.0,98.0
494,127.92004543750001,127.95630495833333,75.0,98.0
495,127.92004543750001,127.97920570833334,71.0,98.0
496,127.92004543750001,128.00783164583333,44.0,127.0
497,128.14905293750002,128.2406559375,44.0,117.0
498,128.3780604375,128.45439627083334,70.0,98.0
499,128.3780604375,128.45630466666668,44.0,127.0
500,128.3780604375,128.46584664583335,75.0,98.0
501,128.6070679375,128.6757701875,70.0,98.0
502,128.6070679375,128.68912895833336,75.0,98.0
503,128.6070679375,128.79218233333336,42.0,127.0
504,128.8360754375,128.93531202083335,42.0,127.0
505,129.0650829375,129.1337851875,71.0,98.0
506,129.0650829375,129.14332716666667,75.0,98.0
507,129.0650829375,129.15286914583334,42.0,127.0
508,129.29409043750002,129.35897589583334,71.0,98.0
509,129.29409043750002,129.36660947916667,75.0,98.0
510,129.29409043750002,129.39332702083334,42.0,127.0
511,129.5230979375,129.69485356250001,40.0,99.0
512,129.7521054375,129.82844127083334,71.0,98.0
513,129.7521054375,129.8418000416667,75.0,98.0
514,129.7521054375,129.85706720833335,40.0,95.0
515,129.9811129375,130.04599839583335,75.0,98.0
516,129.9811129375,130.0498151875,71.0,98.0
517,129.9811129375,130.08607470833334,40.0,127.0
518,130.2101204375,130.30935702083335,40.0,117.0
519,130.43912793750002,130.513555375,75.0,98.0
520,130.43912793750002,130.52118895833334,71.0,98.0
521,130.43912793750002,130.67004383333335,39.0,127.0
522,130.8971429375,130.96202839583333,75.0,98.0
523,130.8971429375,130.96393679166667,71.0,98.0
524,131.1261504375,131.35324954166668,37.0,127.0
525,131.3551579375,131.39141745833334,71.0,98.0
526,131.3551579375,131.41050141666668,75.0,98.0
527,131.4696616875,131.51355479166668,75.0,98.0
528,131.4696616875,131.52309677083335,71.0,98.0
529,131.58416543750002,131.62042495833333,75.0,98.0
530,131.58416543750002,131.64332570833335,71.0,98.0
531,131.58416543750002,131.85897443750002,39.0,127.0
532,132.0421804375,132.11851627083334,70.0,98.0
533,132.0421804375,132.12996664583335,75.0,98.0
534,132.2711879375,132.3398901875,70.0,98.0
535,132.2711879375,132.35324895833335,75.0,98.0
536,132.0421804375,132.37042452083335,32.0,127.0
537,132.0421804375,132.37042452083335,44.0,127.0
538,132.72920293750002,132.79790518750002,71.0,98.0
539,132.72920293750002,132.8074471666667,75.0,98.0
540,132.95821043750001,133.02309589583334,71.0,98.0
541,132.95821043750001,133.03072947916667,75.0,98.0
542,132.72920293750002,133.14523322916668,36.0,127.0
543,132.72920293750002,133.14523322916668,48.0,127.0
544,133.4162254375,133.49256127083333,71.0,98.0
545,133.4162254375,133.50592004166668,75.0,98.0
546,133.6452329375,133.71011839583335,75.0,98.0
547,133.6452329375,133.7139351875,71.0,98.0
548,133.4162254375,133.88759920833334,36.0,122.0
549,133.4162254375,133.88759920833334,48.0,122.0
550,134.10324793750002,134.177675375,75.0,98.0
551,134.10324793750002,134.18530895833334,71.0,98.0
552,134.10324793750002,134.46393475000002,42.0,127.0
553,134.10324793750002,134.46393475000002,54.0,127.0
554,134.5612629375,134.62614839583335,75.0,98.0
555,134.5612629375,134.62805679166667,71.0,98.0
556,135.01927793750002,135.05553745833333,71.0,98.0
557,135.01927793750002,135.07462141666667,75.0,98.0
558,135.1337816875,135.17767479166667,75.0,98.0
559,135.1337816875,135.18721677083334,71.0,98.0
560,135.24828543750002,135.28454495833336,75.0,98.0
561,135.24828543750002,135.30744570833335,71.0,98.0
562,134.7902704375,135.41622427083334,45.0,127.0
563,134.7902704375,135.41622427083334,57.0,127.0
564,135.7063004375,135.78263627083334,70.0,98.0
565,135.7063004375,135.79408664583335,75.0,98.0
566,135.9353079375,136.0040101875,70.0,98.0
567,135.4772929375,136.0154605625,48.0,127.0
568,135.4772929375,136.0154605625,60.0,127.0
569,135.9353079375,136.01736895833335,75.0,98.0
570,136.39332293750002,136.46202518750002,71.0,98.0
571,136.39332293750002,136.4715671666667,75.0,98.0
572,136.6223304375,136.68721589583333,71.0,99.0
573,136.16431543750002,136.69294108333335,51.0,127.0
574,136.16431543750002,136.69294108333335,63.0,127.0
575,136.6223304375,136.6948494791667,75.0,99.0
576,136.6223304375,137.0574446875,54.0,127.0
577,136.6223304375,137.0574446875,66.0,127.0
578,137.0803454375,137.79599387500002,56.0,127.0
579,137.0803454375,137.79599387500002,68.0,127.0
580,138.45439043750002,139.49493724583337,32.0,102.0
581,138.45439043750002,139.49493724583337,44.0,102.0
582,138.45439043750002,139.53339878750003,56.0,92.0
583,142.19008395625005,142.9857189166667,51.0,41.0
584,142.66627445625002,143.15040146458338,63.0,75.0
585,142.66627445625002,143.9678618229167,56.0,66.0
586,143.61865545625002,144.19603643750003,68.0,68.0
587,143.61865545625002,144.3904808916667,63.0,70.0
588,144.09484595625003,144.57698883750004,56.0,52.0
589,143.61865545625002,144.7476237666667,59.0,66.0
590,143.14246495625002,144.78532218125002,51.0,37.0
591,141.71389345625005,144.9500047291667,44.0,69.0
592,144.57103645625003,145.53730634583337,68.0,102.0
593,145.04722695625003,145.5750047604167,63.0,56.0
594,145.52341745625003,146.58889370000003,42.0,76.0
595,145.99960795625003,146.65635402083336,49.0,65.0
596,146.95198895625003,147.36270326250005,54.0,53.0
597,146.47579845625003,147.44008421875003,58.0,71.0
598,146.47579845625003,147.4559572354167,63.0,78.0
599,148.61865570625002,148.84087793958338,56.0,69.0
600,147.42817945625004,148.98968747083336,44.0,82.0
601,148.38056045625004,149.32698907500003,63.0,117.0
602,147.90436995625004,149.38056050625005,51.0,58.0
603,148.85675095625004,149.40040177708337,61.0,76.0
604,149.09484620625003,149.41230653958337,59.0,44.0
605,150.28532245625004,151.56706855208336,56.0,93.0
606,151.23770345625005,151.79921142083336,68.0,92.0
607,151.23770345625005,152.03135428958336,63.0,85.0
608,151.71389395625005,152.40635430833336,56.0,77.0
609,150.76151295625004,152.4619098666667,59.0,68.0
610,149.80913195625004,152.47579875625004,51.0,65.0
611,149.33294145625004,152.5333384416667,44.0,76.0
612,152.19008445625005,153.05516386458336,68.0,100.0
613,152.66627495625005,153.10079878750003,63.0,97.0
614,152.90437020625004,153.14841783750003,59.0,66.0
615,153.61865595625002,154.11468772708338,54.0,72.0
616,153.14246545625002,154.33492583333336,42.0,82.0
617,154.57103695625003,154.95794173750005,54.0,63.0
618,154.09484645625002,155.04325920208336,58.0,86.0
619,154.09484645625002,155.05317983750004,61.0,90.0
620,155.99960845625003,156.46587832083338,56.0,56.0
621,155.99960845625003,156.55317991250004,63.0,107.0
622,155.04722745625003,156.80317992500002,44.0,92.0
623,156.71389420625005,157.0035767604167,63.0,77.0
624,156.47579895625003,157.01944977708337,59.0,78.0
625,155.52341795625003,157.03532279375003,51.0,58.0
626,157.42817995625003,158.02540220833336,51.0,46.0
627,156.95198945625003,158.75159272083337,44.0,90.0
628,158.38056095625004,158.8726244729167,51.0,31.0
629,157.90437045625004,159.27143401666672,63.0,99.0
630,157.90437045625004,159.4500054541667,59.0,82.0
631,157.90437045625004,159.74960864375004,56.0,74.0
632,159.33294195625004,159.8845292854167,51.0,60.0
633,158.85675145625004,159.94802135208337,44.0,81.0
634,159.80913245625004,160.76151345625004,68.0,102.0
635,159.80913245625004,160.78135472708337,63.0,102.0
636,160.28532295625004,160.78532298125003,59.0,75.0
637,161.23770395625004,161.74564048958337,54.0,82.0
638,160.76151345625004,161.79921192083336,42.0,90.0
639,162.19008495625005,162.60675164375004,54.0,88.0
640,161.71389445625005,162.6226246604167,58.0,50.0
641,161.71389445625005,162.63651355000005,61.0,86.0
642,163.61865645625005,164.1523866416667,63.0,69.0
643,163.85675170625004,164.17818029375005,56.0,81.0
644,162.66627545625005,164.37460887500004,44.0,96.0
645,163.14246595625002,164.62064063333338,51.0,52.0
646,164.33294220625004,164.66825968333336,63.0,77.0
647,164.09484695625002,164.70198984375003,59.0,79.0
648,163.61865645625005,164.71389460625005,68.0,107.0
649,165.04722795625003,165.84087878958337,51.0,64.0
650,164.57103745625002,166.28135500208336,44.0,92.0
651,165.99960895625003,166.5154819979167,51.0,63.0
652,165.52341845625003,167.14841853750005,68.0,99.0
653,165.52341845625003,167.48968839583335,56.0,78.0
654,166.95198995625003,167.74564078958338,51.0,69.0
655,167.66627570625005,167.8071487291667,56.0,68.0
656,166.47579945625003,167.80913285625005,44.0,90.0
657,167.42818045625003,168.2595297041667,68.0,99.0
658,167.42818045625003,168.27738684791672,63.0,100.0
659,167.90437095625003,168.37460907500002,59.0,77.0
660,168.85675195625004,169.3785773791667,54.0,92.0
661,168.38056145625004,169.44008531875005,42.0,95.0
662,169.80913295625004,170.16825995833338,54.0,81.0
663,169.33294245625004,170.23175202500005,58.0,107.0
664,169.33294245625004,170.24365678750004,61.0,96.0
665,170.76151395625004,171.33889493750004,56.0,127.0
666,170.99960920625003,171.6761965416667,59.0,102.0
667,171.47579970625003,171.6821489229167,56.0,58.0
668,170.52341870625003,171.69008543125003,51.0,75.0
669,170.28532345625004,171.75754575208336,44.0,93.0
670,171.95199020625003,172.15635529583338,59.0,85.0
671,171.23770445625004,172.16230767708336,68.0,127.0
672,171.71389495625004,172.16826005833337,63.0,95.0
673,172.66627595625005,173.3428632916667,54.0,92.0
674,172.19008545625005,173.4976252041667,47.0,85.0
675,173.85675220625004,173.9738157041667,59.0,75.0
676,173.61865695625005,174.04127602500003,63.0,96.0
677,173.14246645625005,174.10675221875005,66.0,122.0
678,174.57103795625005,175.14445068333336,44.0,35.0
679,174.09484745625002,175.46984752500003,37.0,93.0
680,175.04722845625002,175.54722848125004,49.0,75.0
681,175.04722845625002,175.67421261458338,56.0,90.0
682,175.52341895625003,175.9321491354167,52.0,76.0
683,175.76151420625004,175.97183167708337,56.0,63.0
684,175.04722845625002,176.0035777104167,61.0,100.0
685,176.47579995625003,177.06508570000003,49.0,35.0
686,175.99960945625003,177.35873650833338,42.0,102.0
687,177.19008570625004,177.37064127083337,49.0,69.0
688,176.95199045625003,177.87064129583337,58.0,99.0
689,177.42818095625003,177.8785778041667,54.0,95.0
690,176.95199045625003,177.89048256666672,61.0,88.0
691,178.38056195625003,179.20199056875003,51.0,69.0
692,179.09484770625005,179.20199056875003,56.0,88.0
693,177.90437145625003,179.25556200000003,44.0,92.0
694,178.85675245625004,179.41627629375003,63.0,127.0
695,179.57103820625002,179.81111758333338,63.0,102.0
696,179.33294295625004,179.8428636166667,59.0,95.0
697,180.52341920625003,180.85278430208336,59.0,92.0
698,180.28532395625004,180.90040335208337,52.0,93.0
699,180.99960970625003,181.22580019375005,52.0,92.0
700,179.80913345625004,181.2357208291667,40.0,89.0
701,180.76151445625004,181.3131017854167,64.0,112.0
702,180.04722870625005,181.3309589291667,47.0,93.0
703,181.47580020625003,181.70992720208338,64.0,90.0
704,181.23770495625004,181.73373672708337,59.0,96.0
705,182.19008595625004,182.7535780479167,51.0,90.0
706,182.42818120625003,182.75754630208337,54.0,88.0
707,182.66627645625005,183.08889552500003,58.0,122.0
708,181.71389545625004,183.18413362500004,39.0,88.0
709,182.90437170625003,183.1940542604167,51.0,99.0
710,181.95199070625003,183.21389553125005,46.0,63.0
711,183.14246695625002,183.53135586458336,58.0,39.0
712,183.38056220625003,183.58492729583338,54.0,100.0
713,183.14246695625002,183.58492729583338,63.0,122.0
714,184.09484795625002,184.60278448958337,56.0,107.0
715,184.33294320625004,184.66230830208337,59.0,90.0
716,184.57103845625005,185.06111784583337,63.0,122.0
717,184.80913370625004,185.10080038750004,56.0,102.0
718,183.61865745625005,185.28730833333339,44.0,86.0
719,185.04722895625002,185.42222897500005,59.0,95.0
720,183.85675270625003,185.44207024583338,51.0,35.0
721,185.28532420625004,185.4440543729167,68.0,102.0
722,185.52341945625005,185.82302264583336,59.0,102.0
723,185.52341945625005,185.8309591541667,44.0,127.0
724,185.52341945625005,185.83492740833339,56.0,112.0
725,185.52341945625005,185.83889566250002,63.0,99.0
726,187.90437195625003,188.5035783354167,56.0,100.0
727,188.14246720625005,188.6583402479167,59.0,96.0
728,187.42818145625003,188.7119116791667,44.0,107.0
729,187.66627670625004,188.72183231458337,51.0,67.0
730,188.61865770625002,188.73175295000004,56.0,112.0
731,188.38056245625003,189.29326091458336,68.0,127.0
732,189.09484820625005,189.3666736166667,59.0,102.0
733,188.85675295625003,189.37461012500003,63.0,127.0
734,189.80913395625004,190.3785784291667,54.0,96.0
735,190.04722920625005,190.41230858958338,58.0,99.0
736,190.52341970625002,190.72580066875003,54.0,90.0
737,189.57103870625002,190.83492765833336,49.0,99.0
738,189.33294345625004,190.87461020000003,42.0,86.0
739,190.76151495625004,190.9381022666667,61.0,112.0
740,190.28532445625004,191.2119118041667,68.0,122.0
741,190.99961020625003,191.27937212500004,58.0,107.0
742,191.71389595625004,192.28135630208337,49.0,95.0
743,191.23770545625004,192.53135631458338,37.0,97.0
744,191.47580070625003,192.57897536458336,44.0,97.0
745,191.95199120625003,192.6821499729167,52.0,78.0
746,192.42818170625003,192.70992775208336,49.0,100.0
747,192.90437220625003,193.13056269375005,52.0,102.0
748,192.66627695625004,193.14841983750003,56.0,107.0
749,192.19008645625004,193.16032460000002,61.0,127.0
750,193.85675320625003,194.13254687083338,59.0,95.0
751,193.61865795625005,194.15437226875002,56.0,97.0
752,194.33294370625003,194.44207069583337,56.0,107.0
753,193.38056270625003,194.47580085625003,51.0,99.0
754,193.14246745625005,194.5154833979167,44.0,82.0
755,194.09484845625002,194.61468975208336,63.0,112.0
756,194.80913420625004,195.0452453291667,63.0,127.0
757,194.09484845625002,195.0809596166667,68.0,127.0
758,194.57103895625005,195.1166739041667,59.0,99.0
759,195.76151520625004,196.06707077708336,59.0,81.0
760,195.52341995625005,196.10873744583336,52.0,95.0
761,196.23770570625004,196.43016603333336,52.0,96.0
762,195.04722945625002,196.45397555833335,40.0,81.0
763,195.99961045625002,196.49167397291671,64.0,88.0
764,195.28532470625004,196.51151524375004,47.0,96.0
765,196.47580095625003,196.98770574375004,59.0,97.0
766,196.71389620625004,196.99564225208337,64.0,92.0
767,195.99961045625002,197.00159463333335,68.0,99.0
768,197.66627720625004,197.91826134583337,58.0,90.0
769,197.42818195625003,197.9738169041667,54.0,95.0
770,196.95199145625003,198.20397564583337,42.0,81.0
771,197.19008670625004,198.24365818750005,49.0,77.0
772,197.90437245625003,198.38651533750004,61.0,117.0
773,198.14246770625005,198.40635660833337,54.0,95.0
774,198.38056295625003,198.68016614583337,58.0,107.0
775,198.61865820625005,198.84286456666672,61.0,127.0
776,197.90437245625003,198.85278520208337,66.0,112.0
777,199.33294395625003,199.59484873125004,59.0,97.0
778,199.57103920625002,199.87857890416672,63.0,127.0
779,199.09484870625005,199.88254715833335,54.0,95.0
780,198.85675345625003,200.12064240833337,47.0,90.0
781,200.04722970625005,200.1583408229167,54.0,99.0
782,200.28532495625004,200.7238170416667,63.0,127.0
783,199.80913445625004,200.7357218041667,66.0,117.0
784,200.52342020625002,200.7595313291667,59.0,100.0
785,201.47580120625003,201.6642932791667,55.0,81.0
786,201.23770595625004,201.79326153958337,51.0,102.0
787,200.76151545625004,202.18413457500003,39.0,90.0
788,200.99961070625005,202.20397584583338,46.0,99.0
789,201.71389645625004,202.20992822708337,58.0,127.0
790,201.95199170625003,202.27937267500005,51.0,127.0
791,202.19008695625004,202.50556316250004,55.0,117.0
792,202.42818220625003,202.67222983750003,58.0,127.0
793,201.71389645625004,202.69603936250004,63.0,127.0
794,203.38056320625003,203.6226267104167,59.0,96.0
795,203.14246795625004,203.69603941250003,56.0,107.0
796,203.85675370625003,204.04722990625004,56.0,117.0
797,202.90437270625003,204.11270610000003,51.0,97.0
798,203.61865845625005,204.12857911666669,63.0,107.0
799,202.66627745625004,204.1523886416667,44.0,100.0
800,204.09484895625002,204.4083410354167,59.0,112.0
801,203.61865845625005,204.54127755000002,68.0,127.0
802,204.33294420625003,204.60476961666672,63.0,127.0
803,205.28532520625004,205.55913474375004,58.0,100.0
804,205.04722995625002,205.5928649041667,54.0,99.0
805,205.52342045625005,205.9083411104167,61.0,100.0
806,205.76151570625004,205.93413476250004,54.0,99.0
807,204.80913470625003,205.98969032083338,49.0,85.0
808,204.57103945625005,206.01945222708338,42.0,92.0
809,205.99961095625002,206.3131030354167,58.0,117.0
810,205.52342045625005,206.4559601854167,66.0,117.0
811,206.23770620625004,206.47580145625005,61.0,102.0
812,207.19008720625004,207.4976269041667,58.0,92.0
813,206.95199195625003,207.56508722500004,51.0,90.0
814,206.47580145625005,207.90238882916668,39.0,86.0
815,206.71389670625004,207.90834121041672,46.0,47.0
816,207.42818245625006,207.91627771875005,63.0,95.0
817,207.66627770625004,208.01746820000005,51.0,102.0
818,207.90437295625003,208.18016662083338,58.0,102.0
819,207.42818245625006,208.3884999645834,66.0,102.0
820,208.14246820625004,208.43413488750002,63.0,122.0
821,209.09484920625005,209.36270636250003,59.0,96.0
822,208.85675395625003,209.4083412854167,56.0,90.0
823,208.61865870625002,209.66826193333338,51.0,93.0
824,209.57103970625002,209.68016669583335,56.0,100.0
825,208.38056345625003,209.71389685625002,44.0,85.0
826,209.33294445625003,209.8845317854167,63.0,72.0
827,209.80913495625003,210.3190556166667,59.0,102.0
828,210.04723020625005,210.32897625208335,63.0,127.0
829,209.33294445625003,210.34088101458337,68.0,117.0
830,210.99961120625005,211.33691281041672,59.0,88.0
831,210.76151595625004,211.3488175729167,52.0,99.0
832,210.28532545625004,211.62064298333337,40.0,89.0
833,211.47580170625002,211.6285794916667,52.0,100.0
834,210.52342070625002,211.68016679583337,47.0,102.0
835,211.23770645625004,211.74167473541672,64.0,95.0
836,211.23770645625004,212.20992872708337,68.0,127.0
837,211.71389695625004,212.21588110833335,59.0,96.0
838,211.95199220625005,212.2178652354167,64.0,95.0
839,212.66627795625004,213.18611925208336,54.0,102.0
840,212.90437320625006,213.25556370000004,58.0,90.0
841,212.19008745625004,213.46984942500004,42.0,95.0
842,212.42818270625003,213.47580180625005,49.0,89.0
843,213.38056370625003,213.55913514375004,54.0,102.0
844,213.61865895625004,213.90040500208337,58.0,112.0
845,213.14246845625001,214.02738913541668,66.0,127.0
846,213.85675420625003,214.07897643958336,61.0,107.0
847,214.09484945625002,214.91627806875005,63.0,127.0
848,214.80913520625003,215.11270665000004,56.0,93.0
849,214.09484945625002,215.1345320479167,59.0,100.0
850,215.28532570625003,215.41429396666672,56.0,122.0
851,214.57103995625005,215.41627809375004,51.0,75.0
852,214.09484945625002,215.4321511104167,44.0,95.0
853,215.04723045625002,215.47381777916672,66.0,127.0
854,215.76151620625004,216.48373846458338,51.0,122.0
855,215.76151620625004,216.54723053125002,58.0,112.0
856,215.76151620625004,216.79127816250002,39.0,127.0
857,215.76151620625004,216.80516705208336,54.0,127.0
858,216.95199245625003,217.20992897708336,59.0,112.0
859,216.95199245625003,217.28730993333338,56.0,127.0
860,216.95199245625003,217.40040517708337,40.0,117.0
861,216.95199245625003,217.44802422708335,52.0,117.0
862,217.42818295625005,217.89445282083335,42.0,117.0
863,217.42818295625005,217.89445282083335,54.0,122.0
864,217.42818295625005,217.91230996458336,58.0,127.0
865,218.38056395625003,218.9797703354167,56.0,100.0
866,218.61865920625002,219.1345322479167,59.0,96.0
867,217.90437345625003,219.18810367916672,44.0,107.0
868,218.14246870625004,219.19802431458336,51.0,67.0
869,219.09484970625005,219.20794495000004,56.0,112.0
870,218.85675445625003,219.76945291458338,68.0,127.0
871,219.57104020625002,219.8428656166667,59.0,102.0
872,219.33294495625003,219.85080212500003,63.0,127.0
873,220.28532595625003,220.8547704291667,54.0,96.0
874,220.52342120625002,220.88850058958337,58.0,99.0
875,220.99961170625005,221.20199266875005,54.0,90.0
876,220.04723070625005,221.31111965833338,49.0,99.0
877,219.80913545625003,221.35080220000003,42.0,86.0
878,221.23770695625004,221.4142942666667,61.0,112.0
879,220.76151645625004,221.6881038041667,68.0,122.0
880,221.47580220625002,221.75556412500003,58.0,107.0
881,222.19008795625004,222.75754830208336,49.0,95.0
882,221.71389745625004,223.00754831458337,37.0,97.0
883,221.95199270625005,223.05516736458338,44.0,97.0
884,222.42818320625003,223.1583419729167,52.0,78.0
885,222.90437370625006,223.18611975208336,49.0,100.0
886,223.38056420625003,223.60675469375002,52.0,102.0
887,223.14246895625004,223.62461183750003,56.0,107.0
888,222.66627845625004,223.63651660000005,61.0,127.0
889,224.33294520625003,224.60873887083335,59.0,95.0
890,224.09484995625002,224.63056426875005,56.0,97.0
891,224.80913570625003,224.91826269583336,56.0,107.0
892,223.85675470625003,224.95199285625003,51.0,99.0
893,223.61865945625004,224.9916753979167,44.0,82.0
894,224.57104045625005,225.09088175208336,63.0,112.0
895,225.28532620625003,225.5214373291667,63.0,127.0
896,224.57104045625005,225.55715161666672,68.0,127.0
897,225.04723095625002,225.5928659041667,59.0,99.0
898,226.23770720625004,226.54326277708338,59.0,81.0
899,225.99961195625002,226.58492944583338,52.0,95.0
900,226.71389770625004,226.90635803333336,52.0,96.0
901,225.52342145625005,226.93016755833338,40.0,81.0
902,226.47580245625005,226.96786597291668,64.0,88.0
903,225.76151670625003,226.98770724375004,47.0,96.0
904,226.95199295625002,227.46389774375004,59.0,97.0
905,227.19008820625004,227.47183425208337,64.0,92.0
906,226.47580245625005,227.47778663333338,68.0,99.0
907,228.14246920625004,228.39445334583337,58.0,90.0
908,227.90437395625003,228.4500089041667,54.0,95.0
909,227.42818345625005,228.68016764583336,42.0,81.0
910,227.66627870625004,228.71985018750001,49.0,77.0
911,228.38056445625006,228.86270733750004,61.0,117.0
912,228.61865970625004,228.88254860833337,54.0,95.0
913,228.85675495625003,229.15635814583337,58.0,107.0
914,229.09485020625004,229.3190565666667,61.0,127.0
915,228.38056445625006,229.32897720208337,66.0,112.0
916,229.80913595625003,230.07104073125004,59.0,97.0
917,230.04723120625005,230.35477090416668,63.0,127.0
918,229.57104070625002,230.35873915833338,54.0,95.0
919,229.33294545625003,230.59683440833336,47.0,90.0
920,230.52342170625002,230.6345328229167,54.0,99.0
921,230.76151695625003,231.2000090416667,63.0,127.0
922,230.28532645625003,231.2119138041667,66.0,117.0
923,230.99961220625005,231.23572332916672,59.0,100.0
924,231.95199320625005,232.14048527916668,55.0,81.0
925,231.71389795625004,232.26945353958337,51.0,102.0
926,231.23770745625004,232.66032657500006,39.0,90.0
927,231.47580270625002,232.68016784583335,46.0,99.0
928,232.19008845625004,232.68612022708336,58.0,127.0
929,232.42818370625002,232.75556467500002,51.0,127.0
930,232.66627895625004,232.98175516250004,55.0,117.0
931,232.90437420625005,233.14842183750005,58.0,127.0
932,232.19008845625004,233.17223136250004,63.0,127.0
933,233.85675520625006,234.0988187104167,59.0,96.0
934,233.61865995625004,234.17223141250003,56.0,107.0
935,234.33294570625003,234.52342190625004,56.0,117.0
936,233.38056470625003,234.58889810000005,51.0,97.0
937,234.09485045625001,234.6047711166667,63.0,107.0
938,233.14246945625004,234.6285806416667,44.0,100.0
939,234.57104095625004,234.88453303541672,59.0,112.0
940,234.09485045625001,235.01746955000004,68.0,127.0
941,234.80913620625003,235.08096161666668,63.0,127.0
942,235.76151720625003,236.03532674375003,58.0,100.0
943,235.52342195625005,236.0690569041667,54.0,99.0
944,235.99961245625002,236.3845331104167,61.0,100.0
945,236.23770770625003,236.41032676250003,54.0,99.0
946,235.28532670625003,236.46588232083337,49.0,85.0
947,235.04723145625002,236.49564422708337,42.0,92.0
948,236.47580295625005,236.7892950354167,58.0,117.0
949,235.99961245625002,236.9321521854167,66.0,117.0
950,236.71389820625004,236.95199345625002,61.0,102.0
951,237.66627920625004,237.9738189041667,58.0,92.0
952,237.42818395625005,238.04127922500004,51.0,90.0
953,236.95199345625002,238.3785808291667,39.0,86.0
954,237.19008870625004,238.3845332104167,46.0,47.0
955,237.90437445625003,238.39246971875002,63.0,95.0
956,238.14246970625004,238.49366020000002,51.0,102.0
957,238.38056495625005,238.65635862083337,58.0,102.0
958,237.90437445625003,238.86469196458336,66.0,102.0
959,238.61866020625004,238.91032688750005,63.0,122.0
960,239.57104120625002,239.83889836250003,59.0,96.0
961,239.33294595625003,239.8845332854167,56.0,90.0
962,239.09485070625004,240.14445393333335,51.0,93.0
963,240.04723170625005,240.15635869583338,56.0,100.0
964,238.85675545625003,240.19008885625004,44.0,85.0
965,239.80913645625003,240.3607237854167,63.0,72.0
966,240.28532695625003,240.7952476166667,59.0,102.0
967,240.52342220625002,240.80516825208338,63.0,127.0
968,239.80913645625003,240.81707301458337,68.0,117.0
969,241.47580320625002,241.8131048104167,59.0,88.0
970,241.23770795625003,241.8250095729167,52.0,99.0
971,240.76151745625003,242.09683498333337,40.0,89.0
972,241.95199370625005,242.1047714916667,52.0,100.0
973,240.99961270625005,242.15635879583337,47.0,102.0
974,241.71389845625004,242.2178667354167,64.0,95.0
975,241.71389845625004,242.68612072708336,68.0,127.0
976,242.19008895625004,242.69207310833337,59.0,96.0
977,242.42818420625002,242.69405723541672,64.0,95.0
978,243.14246995625004,243.66231125208338,54.0,102.0
979,243.38056520625003,243.73175570000004,58.0,90.0
980,242.66627945625004,243.94604142500003,42.0,95.0
981,242.90437470625005,243.95199380625002,49.0,89.0
982,243.85675570625006,244.03532714375004,54.0,102.0
983,244.09485095625004,244.37659700208337,58.0,112.0
984,243.61866045625004,244.5035811354167,66.0,127.0
985,244.33294620625003,244.55516843958338,61.0,107.0
986,245.52342245625005,245.88850183958337,56.0,61.0
987,244.50754938958337,245.94008914375001,44.0,107.0
988,245.04723195625002,245.9678669229167,51.0,63.0
989,245.52342245625005,246.4916764729167,68.0,99.0
990,245.99961295625002,246.51945425208336,63.0,96.0
991,246.95199395625002,247.56112097083337,49.0,63.0
992,246.47580345625005,247.61866065625003,42.0,93.0
993,247.90437495625002,248.2000098916667,54.0,75.0
994,248.14247020625004,248.3309622791667,58.0,47.0
995,247.42818445625005,248.39247021875002,61.0,122.0
996,248.85675595625003,249.48374011458338,52.0,83.0
997,248.61866070625004,249.70794647500003,47.0,55.0
998,248.38056545625005,249.7357242541667,40.0,96.0
999,249.80913695625003,250.27342269375004,64.0,59.0
1000,249.09485120625004,250.41032746250005,68.0,99.0
1001,250.76151795625003,251.31707353958336,51.0,68.0
1002,250.99961320625005,251.9500100791667,55.0,82.0
1003,250.28532745625003,252.0928672291667,39.0,72.0
1004,250.52342270625002,252.23770850625004,46.0,38.0
1005,252.19008945625004,253.55318476250005,39.0,76.0
1006,251.47580370625002,253.7476292166667,51.0,63.0
1007,252.19008945625004,254.2595340041667,55.0,73.0
1008,251.71389895625003,254.3309625791667,63.0,90.0
1009,251.95199420625005,254.34088321458336,58.0,63.0
1010,255.35874040833338,255.74961344375004,59.0,68.0
1011,255.5988197854167,255.9678674229167,63.0,67.0
1012,255.87461345000003,256.08493092083336,68.0,69.0
1013,256.2000102916667,256.8309627041667,71.0,81.0
1014,256.5928674541667,257.06508970000004,75.0,90.0
1015,256.9738198541667,257.41628019375,80.0,68.0
1016,257.40040717708337,258.44207389583335,83.0,72.0
1017,257.85675640625004,258.5492167583334,87.0,55.0
1018,258.30318500000004,258.7714389916667,92.0,58.0
1019,259.23374060208334,259.83294698125,99.0,61.0
1020,255.09683563333337,259.85874063333335,56.0,95.0
1021,254.78135942708337,259.91628031875007,51.0,69.0
1022,254.29326416458338,260.0769946125,44.0,93.0
