,start,end,pitch,velocity
0,1.3090256833333334,1.9548579833333333,58.0,96.0
1,2.142357683333333,2.4461766416666664,55.0,88.0
2,2.5590236833333333,2.7673566833333334,57.0,88.0
3,2.7673566833333334,3.3454807583333332,58.0,95.0
4,4.434020683333333,4.637145358333333,58.0,88.0
5,4.642353683333333,4.887144958333333,57.0,72.0
6,5.059019683333333,5.2499915999999995,55.0,88.0
7,5.475685683333333,5.687490899999999,55.0,78.0
8,5.892351683333333,6.092004141666666,53.0,76.0
9,6.309017683333333,7.201377366666667,53.0,79.0
10,7.975681683333333,8.5624863,58.0,99.0
11,8.809013683333333,8.951374566666667,58.0,112.0
12,9.017346683333333,9.574637458333333,60.0,93.0
13,9.642345683333334,10.461788816666667,58.0,90.0
14,11.100676683333333,11.282968058333333,58.0,100.0
15,11.309009683333333,11.618036966666667,57.0,75.0
16,11.725675683333332,11.975675283333333,55.0,86.0
17,12.142341683333333,12.503452216666666,55.0,83.0
18,12.559007683333332,12.935743191666665,53.0,95.0
19,12.975673683333333,13.446159041666666,62.0,92.0
20,14.642337683333333,15.11455915,62.0,102.0
21,15.267336683333333,15.71872485,60.0,100.0
22,15.892335683333332,15.982613316666665,58.0,96.0
23,16.100668683333332,16.55205685,58.0,100.0
24,16.72566768333333,17.206569691666665,60.0,97.0
25,17.767332683333333,17.869763074999998,53.0,85.0
26,17.975665683333332,18.26038745,53.0,89.0
27,18.39233168333333,18.675317341666666,53.0,93.0
28,18.80899768333333,19.15621935,60.0,100.0
29,19.225663683333334,19.55205205,63.0,97.0
30,19.642329683333333,19.75691283333333,63.0,117.0
31,19.850662683333333,20.243023166666667,63.0,102.0
32,20.267328683333332,21.07288295,62.0,102.0
33,21.308993683333334,21.6249654,62.0,107.0
34,21.725659683333333,21.8332984,60.0,93.0
35,21.933992683333333,22.366283658333334,60.0,93.0
36,22.558991683333332,22.651005424999997,58.0,92.0
37,22.76732468333333,23.17357403333333,58.0,93.0
38,23.18399068333333,23.32982378333333,53.0,85.0
39,24.642321683333332,24.9374601,60.0,90.0
40,25.05898768333333,25.164890291666666,58.0,76.0
41,25.26732068333333,25.770792099999998,58.0,112.0
42,25.892319683333334,26.03815278333333,57.0,85.0
43,26.100652683333333,26.871484783333333,58.0,92.0
44,27.975649683333334,28.536412674999998,58.0,97.0
45,28.808981683333332,29.116272858333332,55.0,85.0
46,29.22564768333333,29.369744675,57.0,73.0
47,29.43398068333333,30.493006766666664,58.0,89.0
48,31.100644683333332,31.31939433333333,58.0,96.0
49,31.30897768333333,31.656199349999998,57.0,79.0
50,31.72564368333333,31.996476583333333,55.0,79.0
51,32.14230968333333,32.380156525,55.0,85.0
52,32.55897568333333,32.80203085,53.0,75.0
53,32.97564168333333,33.75341821666667,53.0,83.0
54,34.64230568333333,35.32633236666666,58.0,96.0
55,35.47563768333333,35.696123441666664,58.0,99.0
56,35.683970683333335,36.31591411666666,60.0,85.0
57,36.30896968333333,37.1874405,58.0,79.0
58,37.76730068333333,37.900981025,58.0,99.0
59,37.975633683333335,38.35584140833333,57.0,77.0
60,38.392299683333334,38.671813125,55.0,85.0
61,38.808965683333334,38.97042375833333,55.0,68.0
62,39.22563168333333,39.581533891666666,53.0,90.0
63,39.64229768333333,40.34194934166666,62.0,97.0
64,41.30896168333333,41.57979458333333,62.0,97.0
65,41.72562768333333,41.817641425,60.0,73.0
66,41.93396068333333,42.3124323,60.0,89.0
67,42.558959683333335,42.650973425,58.0,96.0
68,42.76729268333333,43.1040977,58.0,89.0
69,43.18395868333333,43.97562408333333,60.0,90.0
70,44.43395668333333,44.53812318333333,53.0,85.0
71,44.64228968333333,44.815900516666666,53.0,83.0
72,45.05895568333333,45.269024791666666,53.0,83.0
73,45.47562168333333,45.77249620833333,60.0,83.0
74,45.89228768333333,46.19089831666666,63.0,100.0
75,46.30895368333333,46.7707585,63.0,112.0
76,46.72561968333333,46.84020283333333,62.0,102.0
77,46.93395268333333,47.45652129166666,62.0,88.0
78,47.97561768333333,48.28290885833333,62.0,96.0
79,48.39228368333333,48.49124185833333,60.0,78.0
80,48.60061668333333,49.04332430833333,60.0,92.0
81,49.22561568333333,49.31936553333333,58.0,89.0
82,49.433948683333334,49.852350791666666,58.0,95.0
83,49.85061468333333,50.56936353333333,60.0,95.0
84,51.308945683333334,51.80894488333333,58.0,102.0
85,51.93394468333333,53.036373475,57.0,88.0
86,53.80894168333333,54.11449675,58.0,97.0
87,54.22560768333333,54.54505161666666,60.0,95.0
88,54.64227368333333,55.05373135833333,62.0,100.0
89,55.05893968333333,55.14748120833333,67.0,102.0
90,55.26727268333333,55.53810558333333,67.0,93.0
91,55.68393868333333,56.216923941666664,70.0,112.0
92,56.30893768333333,56.64747880833333,69.0,122.0
93,56.72560368333333,56.81935353333333,67.0,117.0
94,56.93393668333333,57.265533375,67.0,112.0
95,57.55893568333333,57.808935283333334,65.0,102.0
96,57.97560168333333,58.16483749166667,65.0,100.0
97,58.39226768333333,58.661364475,60.0,88.0
98,58.80893368333333,59.06934993333333,60.0,96.0
99,59.22559968333333,59.499904799999996,63.0,112.0
100,59.64226568333333,60.17525094166666,63.0,117.0
101,60.26726468333333,60.753375016666666,62.0,112.0
102,60.89226368333333,60.998166291666664,58.0,107.0
103,61.10059668333333,61.227332591666666,60.0,86.0
104,61.30892968333333,61.52247100833333,62.0,97.0
105,61.72559568333333,61.82455385833333,62.0,93.0
106,61.93392868333333,62.213442125,62.0,93.0
107,62.350594683333334,62.895732699999996,67.0,102.0
108,62.97559368333333,63.425245741666664,65.0,107.0
109,63.39225968333333,63.47732899166667,63.0,93.0
110,63.60059268333333,63.80892568333333,63.0,112.0
111,64.22559168333333,64.61274384166667,62.0,112.0
112,64.64225768333333,64.94607664166666,60.0,97.0
113,65.05892368333333,65.33496490833333,60.0,97.0
114,65.47558968333333,65.73600593333333,60.0,102.0
115,65.89225568333333,66.13183863333333,60.0,97.0
116,66.30892168333332,66.65961556666666,60.0,102.0
117,66.93392068333333,67.150934225,58.0,99.0
118,67.55891968333333,67.703016675,58.0,117.0
119,67.76725268333333,67.911349675,60.0,85.0
120,67.97558568333334,68.348848975,62.0,102.0
121,68.39225168333333,68.4998904,67.0,97.0
122,68.60058468333332,68.98600073333333,67.0,102.0
123,69.22558368333333,69.51204155833334,70.0,112.0
124,69.64224968333333,70.13704055833333,69.0,107.0
125,70.26724868333334,70.6665536,67.0,90.0
126,70.89224768333332,71.16134447499999,65.0,107.0
127,71.30891368333333,71.63530204999999,65.0,95.0
128,71.72557968333334,72.02939864166666,60.0,92.0
129,72.14224568333333,72.42349523333333,60.0,97.0
130,72.55891168333333,72.79849463333333,63.0,102.0
131,72.97557768333333,73.50682683333334,63.0,117.0
132,73.60057668333333,74.0832148,62.0,102.0
133,74.22557568333333,74.36099213333333,58.0,107.0
134,74.43390868333333,74.55890848333333,60.0,93.0
135,74.64224168333332,75.03633827499999,62.0,99.0
136,75.05890768333333,75.15612974999999,62.0,100.0
137,75.26724068333333,75.57105964166666,62.0,100.0
138,75.68390668333333,76.17522534166666,67.0,112.0
139,76.30890568333334,76.58494690833334,65.0,107.0
140,76.72557168333333,76.81758542499999,63.0,99.0
141,76.93390468333332,77.12834881666666,63.0,107.0
142,77.55890368333333,77.82105604166667,62.0,99.0
143,77.97556968333333,78.21168041666667,60.0,102.0
144,78.39223568333333,78.60056868333334,60.0,100.0
145,78.80890168333333,79.05195685,60.0,99.0
146,79.22556768333332,79.38181743333332,60.0,102.0
147,79.64223368333333,80.109246825,60.0,96.0
148,80.26723268333333,80.53806558333333,58.0,102.0
149,94.64220968333333,95.202972675,58.0,97.0
150,95.47554168333333,95.78283285833334,55.0,85.0
151,95.89220768333333,96.036304675,57.0,73.0
152,96.10054068333334,97.15956676666666,58.0,89.0
153,97.76720468333333,97.98595433333332,58.0,96.0
154,97.97553768333333,98.32275935,57.0,79.0
155,98.39220368333334,98.66303658333332,55.0,79.0
156,98.80886968333333,99.046716525,55.0,85.0
157,99.22553568333333,99.46859085,53.0,75.0
158,99.64220168333333,100.41997821666666,53.0,83.0
159,101.30886568333332,101.99289236666667,58.0,96.0
160,102.14219768333332,102.36268344166666,58.0,99.0
161,102.35053068333333,102.98247411666667,60.0,85.0
162,102.97552968333333,103.8540005,58.0,79.0
163,104.43386068333332,104.567541025,58.0,99.0
164,104.64219368333333,105.02240140833332,57.0,77.0
165,105.05885968333332,105.33837312499999,55.0,85.0
166,105.47552568333333,105.63698375833333,55.0,68.0
167,105.89219168333332,106.24809389166666,53.0,90.0
168,106.30885768333333,107.00850934166667,62.0,97.0
169,107.97552168333333,108.24635458333333,62.0,97.0
170,108.39218768333333,108.484201425,60.0,73.0
171,108.60052068333333,108.9789923,60.0,89.0
172,109.22551968333333,109.317533425,58.0,96.0
173,109.43385268333333,109.7706577,58.0,89.0
174,109.85051868333333,110.64218408333333,60.0,90.0
175,111.10051668333332,111.20468318333333,53.0,85.0
176,111.30884968333334,111.48246051666666,53.0,83.0
177,111.72551568333333,111.93558479166666,53.0,83.0
178,112.14218168333333,112.43905620833333,60.0,83.0
179,112.55884768333333,112.85745831666667,63.0,100.0
180,112.97551368333333,113.43731849999999,63.0,112.0
181,113.39217968333332,113.50676283333333,62.0,102.0
182,113.60051268333333,114.12308129166667,62.0,88.0
183,114.64217768333333,114.94946885833333,62.0,96.0
184,115.05884368333332,115.15780185833333,60.0,78.0
185,115.26717668333333,115.70988430833333,60.0,92.0
186,115.89217568333333,115.98592553333333,58.0,89.0
187,116.10050868333333,116.51891079166666,58.0,95.0
188,116.51717468333332,117.23592353333333,60.0,95.0
189,117.97550568333332,118.47550488333333,58.0,102.0
190,118.60050468333333,119.702933475,57.0,88.0
191,120.47550168333333,120.78105674999999,58.0,97.0
192,120.89216768333333,121.21161161666666,60.0,95.0
193,121.30883368333333,121.72029135833333,62.0,100.0
194,121.72549968333333,121.81404120833332,67.0,102.0
195,121.93383268333332,122.20466558333332,67.0,93.0
196,122.35049868333333,122.88348394166665,70.0,112.0
197,122.97549768333333,123.31403880833332,69.0,122.0
198,123.39216368333332,123.48591353333333,67.0,117.0
199,123.60049668333333,123.932093375,67.0,112.0
200,124.22549568333332,124.47549528333333,65.0,102.0
201,124.64216168333333,124.83139749166666,65.0,100.0
202,125.05882768333333,125.32792447499999,60.0,88.0
203,125.47549368333333,125.73590993333333,60.0,96.0
204,125.89215968333333,126.1664648,63.0,112.0
205,126.30882568333332,126.84181094166667,63.0,117.0
206,126.93382468333333,127.41993501666666,62.0,112.0
207,127.55882368333333,127.66472629166667,58.0,107.0
208,127.76715668333333,127.89389259166666,60.0,86.0
209,127.97548968333332,128.18903100833333,62.0,97.0
210,128.39215568333333,128.49111385833334,62.0,93.0
211,128.60048868333334,128.880002125,62.0,93.0
212,129.01715468333333,129.5622927,67.0,102.0
213,129.64215368333333,130.09180574166666,65.0,107.0
214,130.05881968333333,130.14388899166667,63.0,93.0
215,130.26715268333334,130.47548568333332,63.0,112.0
216,130.89215168333334,131.27930384166666,62.0,112.0
217,131.30881768333333,131.61263664166665,60.0,97.0
218,131.72548368333332,132.00152490833332,60.0,97.0
219,132.14214968333332,132.40256593333334,60.0,102.0
220,132.55881568333334,132.79839863333333,60.0,97.0
221,132.97548168333333,133.32617556666665,60.0,102.0
222,133.60048068333333,133.817494225,58.0,99.0
223,134.22547968333333,134.369576675,58.0,117.0
224,134.43381268333331,134.577909675,60.0,85.0
225,134.64214568333333,135.01540897499999,62.0,102.0
226,135.05881168333332,135.1664504,67.0,97.0
227,135.26714468333333,135.65256073333333,67.0,102.0
228,135.89214368333333,136.17860155833333,70.0,112.0
229,136.30880968333332,136.80360055833333,69.0,107.0
230,136.93380868333333,137.3331136,67.0,90.0
231,137.55880768333333,137.827904475,65.0,107.0
232,137.97547368333332,138.30186204999998,65.0,95.0
233,138.39213968333334,138.69595864166666,60.0,92.0
234,138.80880568333333,139.09005523333332,60.0,97.0
235,139.22547168333332,139.46505463333332,63.0,102.0
236,139.64213768333332,140.17338683333332,63.0,117.0
237,140.26713668333332,140.74977479999998,62.0,102.0
238,140.89213568333332,141.02755213333333,58.0,107.0
239,141.10046868333333,141.22546848333332,60.0,93.0
240,141.30880168333331,141.702898275,62.0,99.0
241,141.72546768333333,141.82268975,62.0,100.0
242,141.93380068333332,142.23761964166667,62.0,100.0
243,142.35046668333334,142.84178534166665,67.0,112.0
244,142.97546568333334,143.25150690833334,65.0,107.0
245,143.39213168333333,143.48414542499998,63.0,99.0
246,143.6004646833333,143.79490881666666,63.0,107.0
247,144.22546368333332,144.48761604166666,62.0,99.0
248,144.64212968333334,144.87824041666667,60.0,102.0
249,145.05879568333333,145.26712868333334,60.0,100.0
250,145.47546168333332,145.71851685,60.0,99.0
251,145.8921276833333,146.04837743333331,60.0,102.0
252,146.30879368333333,146.775806825,60.0,96.0
253,146.93379268333334,147.20462558333332,58.0,102.0
254,147.97545768333333,148.38691535833334,62.0,100.0
255,148.39212368333332,148.48066520833333,67.0,102.0
256,148.60045668333333,148.87128958333332,67.0,93.0
257,149.01712268333333,149.55010794166665,70.0,112.0
258,149.64212168333333,149.98066280833334,69.0,122.0
259,150.05878768333332,150.15253753333332,67.0,117.0
260,150.26712068333333,150.598717375,67.0,112.0
261,150.89211968333333,151.14211928333333,65.0,102.0
262,151.30878568333333,151.49802149166666,65.0,100.0
263,151.72545168333332,151.994548475,60.0,88.0
264,152.14211768333334,152.40253393333333,60.0,96.0
265,152.55878368333333,152.83308879999998,63.0,112.0
266,152.97544968333332,153.50843494166665,63.0,117.0
267,153.60044868333333,154.08655901666665,62.0,112.0
268,154.22544768333333,154.33135029166667,58.0,107.0
269,154.43378068333334,154.56051659166667,60.0,86.0
270,154.64211368333332,154.85565500833331,62.0,97.0
271,155.0587796833333,155.15773785833332,62.0,93.0
272,155.26711268333332,155.546626125,62.0,93.0
273,155.68377868333332,156.22891669999998,67.0,102.0
274,156.30877768333332,156.75842974166665,65.0,107.0
275,156.72544368333334,156.81051299166666,63.0,93.0
276,156.93377668333332,157.14210968333333,63.0,112.0
277,157.55877568333332,157.94592784166667,62.0,112.0
278,157.97544168333332,158.27926064166667,60.0,97.0
279,158.39210768333334,158.66814890833334,60.0,97.0
280,158.80877368333333,159.06918993333332,60.0,102.0
281,159.22543968333332,159.46502263333332,60.0,97.0
282,159.6421056833333,159.99279956666666,60.0,102.0
283,160.26710468333332,160.484118225,58.0,99.0
284,160.89210368333332,161.036200675,58.0,117.0
285,161.10043668333333,161.24453367499999,60.0,85.0
286,161.30876968333334,161.682032975,62.0,102.0
287,161.72543568333333,161.8330744,67.0,97.0
288,161.9337686833333,162.31918473333332,67.0,102.0
289,162.55876768333331,162.84522555833334,70.0,112.0
290,162.97543368333334,163.4702245583333,69.0,107.0
291,163.60043268333334,163.9997376,67.0,90.0
292,164.2254316833333,164.49452847499998,65.0,107.0
293,164.64209768333333,164.96848605,65.0,95.0
294,165.05876368333332,165.36258264166665,60.0,92.0
295,165.47542968333332,165.75667923333333,60.0,97.0
296,165.89209568333334,166.13167863333334,63.0,102.0
297,166.30876168333333,166.84001083333334,63.0,117.0
298,166.93376068333333,167.4163988,62.0,102.0
299,167.55875968333334,167.69417613333331,58.0,107.0
300,167.76709268333332,167.89209248333333,60.0,93.0
301,167.97542568333333,168.36952227499998,62.0,99.0
302,168.39209168333332,168.48931374999998,62.0,100.0
303,168.60042468333333,168.90424364166665,62.0,100.0
304,169.01709068333332,169.50840934166666,67.0,112.0
305,169.64208968333332,169.91813090833332,65.0,107.0
306,170.05875568333332,170.150769425,63.0,99.0
307,170.26708868333333,170.46153281666665,63.0,107.0
308,170.89208768333333,171.15424004166667,62.0,99.0
309,171.30875368333332,171.54486441666666,60.0,102.0
310,171.7254196833333,171.93375268333332,60.0,100.0
311,172.14208568333333,172.38514085,60.0,99.0
312,172.55875168333333,172.71500143333333,60.0,102.0
313,172.97541768333332,173.442430825,60.0,96.0
314,173.60041668333332,173.87124958333334,58.0,102.0
315,174.64208168333332,175.2879139833333,58.0,96.0
316,175.47541368333333,175.77923264166665,55.0,88.0
317,175.89207968333332,176.10041268333333,57.0,88.0
318,176.10041268333333,176.67853675833334,58.0,95.0
319,177.76707668333333,177.97020135833333,58.0,88.0
320,177.97540968333334,178.22020095833332,57.0,72.0
321,178.39207568333333,178.5830476,55.0,88.0
322,178.80874168333332,179.0205469,55.0,78.0
323,179.22540768333332,179.42506014166665,53.0,76.0
324,179.64207368333334,180.53443336666666,53.0,79.0
325,181.30873768333333,181.8955423,58.0,99.0
326,182.14206968333332,182.32609716666667,55.0,90.0
327,182.35040268333333,182.60734671666665,57.0,83.0
328,182.55873568333334,182.69067991666665,58.0,96.0
329,182.76706868333332,183.17505414166666,60.0,107.0
330,183.1837346833333,184.21151081666665,58.0,88.0
331,184.43373268333332,184.61602405833332,58.0,100.0
332,184.64206568333333,184.95109296666666,57.0,75.0
333,185.05873168333332,185.30873128333332,55.0,86.0
334,185.4753976833333,185.83650821666666,55.0,83.0
335,185.89206368333333,186.26879919166666,53.0,95.0
336,186.30872968333333,186.77921504166665,62.0,92.0
337,187.97539368333332,188.22539328333332,62.0,102.0
338,188.39205968333331,188.49101785833332,60.0,96.0
339,188.60039268333333,189.05178085,60.0,100.0
340,189.22539168333333,189.31566931666666,58.0,96.0
341,189.43372468333334,189.88511284999998,58.0,100.0
342,189.85039068333333,190.33129269166665,60.0,97.0
343,191.10038868333334,191.20281907499998,53.0,85.0
344,191.30872168333332,191.59344345,53.0,89.0
345,191.72538768333334,192.00837334166667,53.0,93.0
346,192.14205368333333,192.48927534999999,60.0,100.0
347,192.55871968333332,192.88510804999999,63.0,97.0
348,192.97538568333331,193.52052369999998,63.0,117.0
349,193.60038468333332,194.40593894999998,62.0,102.0
350,194.6420496833333,194.95802139999998,62.0,107.0
351,195.05871568333333,195.1663544,60.0,93.0
352,195.26704868333331,195.69933965833332,60.0,93.0
353,195.89204768333332,195.984061425,58.0,92.0
354,196.10038068333333,196.50663003333332,58.0,93.0
355,196.51704668333332,196.66287978333332,53.0,85.0
356,197.76704468333332,197.96669714166666,53.0,78.0
357,197.97537768333333,198.27051609999998,60.0,90.0
358,198.39204368333333,198.49794629166666,58.0,76.0
359,198.60037668333334,199.1038481,58.0,82.0
360,199.2253756833333,199.37120878333332,57.0,85.0
361,199.43370868333332,200.20454078333333,58.0,92.0
362,200.05870768333332,200.28787398333333,57.0,88.0
363,200.26704068333333,202.74446727499998,55.0,74.0
