,start,end,pitch,velocity
0,1.3090256833333334,2.1649270916666667,62.0,66.0
1,1.3090256833333334,2.171871525,58.0,62.0
2,1.3090256833333334,2.1753437416666666,43.0,51.0
3,1.3090256833333334,2.1770798499999997,55.0,61.0
4,2.975689683333333,3.8420077416666665,39.0,56.0
5,2.975689683333333,3.8611049333333334,51.0,51.0
6,2.975689683333333,3.907979858333333,58.0,60.0
7,2.975689683333333,3.9322853749999997,63.0,59.0
8,2.975689683333333,3.9461742416666663,55.0,60.0
9,4.642353683333333,5.32290815,57.0,58.0
10,4.642353683333333,5.328116475,41.0,50.0
11,4.642353683333333,5.397560808333333,60.0,59.0
12,4.642353683333333,5.407977458333333,53.0,53.0
13,6.309017683333333,7.3333216,46.0,47.0
14,6.309017683333333,7.354154899999999,53.0,49.0
15,6.309017683333333,7.383668741666666,58.0,51.0
16,6.309017683333333,7.401029824999999,62.0,53.0
17,7.975681683333333,8.548597433333333,58.0,64.0
18,7.975681683333333,8.605889008333333,55.0,62.0
19,7.975681683333333,8.637138958333333,62.0,63.0
20,7.975681683333333,8.663180583333332,43.0,63.0
21,9.642345683333334,10.44789995,51.0,44.0
22,9.642345683333334,10.461788816666667,39.0,54.0
23,9.642345683333334,10.591996941666666,63.0,65.0
24,9.642345683333334,10.611094133333333,58.0,54.0
25,9.642345683333334,10.619774675,55.0,57.0
26,11.309009683333333,11.845467158333333,57.0,58.0
27,11.309009683333333,11.852411591666666,41.0,47.0
28,11.309009683333333,11.866300458333333,53.0,52.0
29,11.309009683333333,11.873244891666666,60.0,60.0
30,12.975673683333333,13.991297058333332,46.0,50.0
31,12.975673683333333,14.189213408333332,53.0,63.0
32,12.975673683333333,14.26039385,58.0,63.0
33,12.975673683333333,14.28122715,62.0,63.0
34,15.059003683333332,15.595461158333332,50.0,59.0
35,14.642337683333333,15.666641599999998,43.0,73.0
36,15.475669683333333,16.3333072,62.0,83.0
37,15.892335683333332,16.362821041666667,58.0,59.0
38,16.72566768333333,17.5208053,46.0,60.0
39,16.30900168333333,17.5416386,39.0,65.0
40,17.142333683333334,17.567680225,51.0,44.0
41,17.142333683333334,17.991290658333334,63.0,89.0
42,17.558999683333333,18.012123958333333,58.0,60.0
43,17.975665683333332,18.8958031,41.0,63.0
44,18.39233168333333,18.921844725,48.0,68.0
45,18.80899768333333,19.6249686,60.0,82.0
46,19.225663683333334,19.631913033333333,57.0,56.0
47,20.058995683333332,20.477397791666665,58.0,78.0
48,20.475661683333332,21.010383049999998,57.0,77.0
49,19.642329683333333,21.223924375,46.0,79.0
50,20.89232768333333,21.692673624999998,58.0,75.0
51,21.725659683333333,22.2082978,50.0,61.0
52,21.308993683333334,22.453089074999998,43.0,60.0
53,22.142325683333333,22.940935516666666,62.0,81.0
54,22.558991683333332,23.048574233333333,55.0,63.0
55,23.39232368333333,23.946142241666667,46.0,56.0
56,22.97565768333333,23.958295,39.0,57.0
57,24.225655683333333,24.71871045,58.0,42.0
58,23.808989683333333,24.736071533333334,63.0,92.0
59,24.642321683333332,25.581556291666665,41.0,63.0
60,25.05898768333333,25.654472841666667,48.0,55.0
61,25.892319683333334,26.28120795,57.0,55.0
62,25.47565368333333,26.29336070833333,60.0,88.0
63,26.725651683333332,27.21870645,53.0,64.0
64,26.308985683333333,27.763844466666665,46.0,67.0
65,27.55898368333333,27.916622,58.0,43.0
66,27.14231768333333,27.92356643333333,62.0,85.0
67,28.392315683333333,29.112800641666666,50.0,59.0
68,27.975649683333334,29.22564768333333,43.0,66.0
69,28.808981683333332,29.62148038333333,62.0,86.0
70,29.22564768333333,29.628424816666666,58.0,62.0
71,29.64231368333333,30.692659225,39.0,72.0
72,30.05897968333333,30.71002030833333,51.0,59.0
73,30.892311683333332,31.352380391666664,58.0,40.0
74,30.475645683333333,31.366269258333332,63.0,95.0
75,31.30897768333333,32.38189263333333,41.0,67.0
76,31.72564368333333,32.51904519166666,48.0,58.0
77,32.55897568333333,32.88536405,57.0,55.0
78,32.14230968333333,32.89925291666667,60.0,77.0
79,32.97564168333333,33.76036265,46.0,83.0
80,33.39230768333333,33.80202925,53.0,69.0
81,33.808973683333335,34.598902975,45.0,72.0
82,34.225639683333334,34.66313898333333,57.0,57.0
83,35.05897168333333,35.548554233333334,50.0,62.0
84,34.64230568333333,35.617998566666664,43.0,67.0
85,35.47563768333333,36.086747816666666,62.0,82.0
86,35.89230368333333,36.76035785,55.0,71.0
87,36.72563568333333,37.53813438333333,46.0,52.0
88,37.14230168333333,37.57285655,51.0,44.0
89,36.30896968333333,37.59542595833333,39.0,71.0
90,37.55896768333333,38.017300283333334,58.0,45.0
91,37.14230168333333,38.03292525833333,63.0,79.0
92,37.975633683333335,38.843687849999995,41.0,60.0
93,38.392299683333334,38.944382133333335,48.0,61.0
94,39.22563168333333,39.56938113333333,57.0,67.0
95,38.808965683333334,39.588478325,60.0,82.0
96,40.05896368333333,40.65792105833333,53.0,59.0
97,39.64229768333333,40.95653169166666,46.0,75.0
98,40.89229568333333,41.29333670833333,58.0,66.0
99,40.47562968333333,41.328058874999996,62.0,85.0
100,41.72562768333333,42.190904716666665,50.0,58.0
101,41.30896168333333,42.248196291666666,43.0,62.0
102,42.14229368333333,42.805487066666664,62.0,78.0
103,42.558959683333335,43.003403416666664,55.0,61.0
104,43.39229168333333,44.130137725,46.0,31.0
105,43.80895768333333,44.19090151666666,51.0,38.0
106,42.975625683333334,44.20131816666667,39.0,56.0
107,43.80895768333333,44.69090071666666,63.0,85.0
108,44.22562368333333,44.69784515,58.0,58.0
109,44.64228968333333,45.571107641666664,41.0,61.0
110,45.05895568333333,45.630135325,48.0,59.0
111,45.47562168333333,46.275967625,60.0,72.0
112,45.89228768333333,46.28117595,57.0,63.0
113,46.30895368333333,47.071105241666665,46.0,83.0
114,46.72561968333333,47.11103573333333,53.0,68.0
115,47.142285683333334,47.9582566,45.0,69.0
116,47.55895168333333,47.984298224999996,57.0,58.0
117,48.39228368333333,48.90617175,50.0,55.0
118,47.97561768333333,48.94436613333333,43.0,63.0
119,48.80894968333333,49.61624005833333,62.0,78.0
120,49.22561568333333,49.64228168333333,55.0,67.0
121,50.05894768333333,50.770752099999996,46.0,58.0
122,50.47561368333333,50.78984929166666,51.0,56.0
123,49.64228168333333,50.821099241666666,39.0,88.0
124,50.47561368333333,51.33498730833333,58.0,69.0
125,50.47561368333333,51.35582060833333,63.0,66.0
126,50.89227968333333,51.380126125,55.0,52.0
127,51.725611683333334,52.2082498,48.0,56.0
128,52.55894368333333,54.484287824999996,48.0,55.0
129,52.14227768333333,54.53116275,53.0,86.0
130,52.97560968333333,54.539843291666664,57.0,62.0
131,52.97560968333333,54.55894048333333,60.0,61.0
132,51.308945683333334,54.57456545833333,41.0,64.0
133,54.85060668333333,55.21171721666666,50.0,72.0
134,55.26727268333333,55.51206395833333,50.0,66.0
135,55.05893968333333,55.59192494166666,55.0,69.0
136,55.68393868333333,55.80199405,50.0,53.0
137,54.64227368333333,55.859285625,43.0,70.0
138,55.47560568333333,56.069354733333334,62.0,85.0
139,55.892271683333334,56.20997950833333,58.0,72.0
140,56.10060468333333,56.4165764,55.0,63.0
141,56.72560368333333,57.14921411666666,51.0,68.0
142,56.93393668333333,57.29331110833333,55.0,70.0
143,56.51727068333333,57.421783125,46.0,31.0
144,56.30893768333333,57.489491349999994,39.0,70.0
145,57.35060268333333,57.546782924999995,51.0,64.0
146,57.14226968333333,57.890532375,63.0,86.0
147,57.55893568333333,57.909629566666666,58.0,77.0
148,57.76726868333333,57.96171281666666,55.0,77.0
149,58.39226768333333,58.88532245,53.0,63.0
150,58.60060068333333,59.10059988333333,57.0,74.0
151,58.183934683333334,59.17872475833333,48.0,59.0
152,57.97560168333333,59.275946825,41.0,67.0
153,59.01726668333333,59.32629396666666,53.0,77.0
154,58.80893368333333,59.520738099999996,65.0,82.0
155,59.22559968333333,59.54330750833333,60.0,77.0
156,59.43393268333333,59.588446325,57.0,79.0
157,60.05893168333333,60.37316729166666,53.0,86.0
158,59.64226568333333,60.41483389166667,46.0,93.0
159,59.85059868333333,60.461708816666665,50.0,70.0
160,60.26726468333333,60.58670861666666,58.0,96.0
161,60.68393068333333,61.00163850833333,57.0,82.0
162,60.89226368333333,61.15962436666666,58.0,72.0
163,60.47559768333333,61.26726308333333,45.0,76.0
164,61.10059668333333,61.33670741666666,62.0,83.0
165,61.72559568333333,61.93913700833333,55.0,78.0
166,61.93392868333333,62.161358875,58.0,64.0
167,61.51726268333333,62.180456066666665,50.0,61.0
168,62.350594683333334,62.45476118333333,50.0,56.0
169,61.30892968333333,62.48080280833333,43.0,72.0
170,62.14226168333333,62.90614935,62.0,72.0
171,62.55892768333333,62.94087151666666,58.0,82.0
172,62.76726068333333,63.008579741666665,55.0,73.0
173,63.39225968333333,63.82975898333333,51.0,82.0
174,63.60059268333333,63.992953166666666,55.0,67.0
175,63.18392668333333,64.06586971666667,46.0,56.0
176,62.97559368333333,64.10232799166667,39.0,82.0
177,64.01725868333332,64.2082306,51.0,73.0
178,63.80892568333333,64.51204955833333,63.0,93.0
179,64.22559168333333,64.57107724166666,58.0,79.0
180,64.43392468333333,64.61795216666667,55.0,69.0
181,65.05892368333333,65.432186975,53.0,69.0
182,65.26725668333333,65.51031185,57.0,73.0
183,64.85059068333334,65.78808918333333,48.0,45.0
184,64.64225768333333,65.81065859166667,41.0,56.0
185,65.47558968333333,65.88357514166667,60.0,86.0
186,65.68392268333334,65.97211666666666,53.0,79.0
187,65.89225568333333,66.19781075,57.0,73.0
188,66.10058868333333,66.23600513333334,60.0,76.0
189,66.72558768333333,67.06933713333333,53.0,82.0
190,66.30892168333332,67.09190654166666,46.0,97.0
191,66.51725468333333,67.12662870833333,50.0,56.0
192,66.93392068333333,67.25510072499999,58.0,93.0
193,67.35058668333333,67.7498916,57.0,71.0
194,67.14225368333334,67.89919691666667,45.0,72.0
195,67.55891968333333,67.92871075833332,58.0,83.0
196,67.76725268333333,67.94954405833333,62.0,65.0
197,68.39225168333333,68.63357074166666,55.0,88.0
198,68.18391868333333,68.84190374166667,50.0,56.0
199,68.60058468333332,68.87662590833332,58.0,74.0
200,69.01725068333333,69.130097725,50.0,65.0
201,67.97558568333334,69.17523654166666,43.0,75.0
202,68.80891768333333,69.41829170833333,62.0,82.0
203,69.22558368333333,69.59363865,58.0,89.0
204,69.43391668333334,69.692596825,55.0,67.0
205,70.05891568333332,70.47210946666667,51.0,88.0
206,70.26724868333334,70.60058148333333,55.0,69.0
207,69.85058268333333,70.744678475,46.0,43.0
208,69.64224968333333,70.796761725,39.0,89.0
209,70.68391468333333,70.86446995,51.0,82.0
210,70.89224768333332,71.23946935,58.0,71.0
211,70.47558168333333,71.24467767499999,63.0,97.0
212,71.10058068333333,71.296760925,55.0,76.0
213,71.72557968333334,72.17696785,53.0,76.0
214,71.93391268333333,72.286342675,57.0,68.0
215,71.51724668333333,72.5623839,48.0,62.0
216,72.35057868333332,72.61273104166666,53.0,85.0
217,71.30891368333333,72.6457171,41.0,72.0
218,72.14224568333333,72.81064739166666,65.0,85.0
219,72.55891168333333,72.85578620833333,60.0,76.0
220,72.76724468333333,72.94779994999999,57.0,81.0
221,73.18391068333332,73.67870155833333,53.0,73.0
222,72.97557768333333,73.75335421666666,46.0,92.0
223,73.39224368333333,73.90265953333333,62.0,86.0
224,73.60057668333333,73.94432613333333,58.0,86.0
225,74.01724268333334,74.46863085,57.0,60.0
226,73.80890968333333,74.55890848333333,45.0,56.0
227,74.22557568333333,74.57974178333333,62.0,76.0
228,74.43390868333333,74.65265833333333,58.0,75.0
229,75.05890768333333,75.34362945,55.0,64.0
230,75.26724068333333,75.47036535833332,58.0,70.0
231,74.85057468333333,75.50161530833333,50.0,45.0
232,75.68390668333333,75.82105924166666,50.0,46.0
233,74.64224168333332,75.86272584166666,43.0,69.0
234,75.47557368333332,76.09536435833333,62.0,76.0
235,75.89223968333333,76.21168361666666,58.0,71.0
236,76.10057268333333,76.3540445,55.0,73.0
237,76.72557168333333,77.13355714166666,51.0,75.0
238,76.93390468333332,77.34709846666667,55.0,70.0
239,76.51723868333333,77.42348723333333,46.0,35.0
240,76.30890568333334,77.48425102499999,39.0,72.0
241,77.35057068333333,77.55890368333333,51.0,70.0
242,77.55890368333333,77.88008372499999,58.0,90.0
243,77.14223768333333,77.88355594166666,63.0,95.0
244,77.76723668333332,77.90959756666666,55.0,73.0
245,78.39223568333333,78.82799887499999,53.0,75.0
246,78.60056868333334,79.03112354999999,57.0,62.0
247,78.18390268333333,79.17348443333333,48.0,47.0
248,77.97556968333333,79.32105364166667,41.0,63.0
249,79.01723468333333,79.44431733333333,53.0,83.0
250,78.80890168333333,79.53980329166666,65.0,82.0
251,79.22556768333332,79.57278935,60.0,68.0
252,79.43390068333333,79.61271984166666,57.0,76.0
253,80.26723268333333,80.51376006666666,58.0,73.0
254,80.05889968333332,80.52417671666666,53.0,66.0
255,80.47556568333333,81.01896759166667,65.0,76.0
256,80.89223168333334,81.1665368,58.0,77.0
257,80.68389868333333,81.17868955833333,53.0,77.0
258,79.85056668333333,81.20646729166667,50.0,59.0
259,79.64223368333333,81.27938384166666,46.0,83.0
260,81.10056468333333,81.34188374166666,62.0,72.0
261,81.30889768333333,81.55889728333332,79.0,63.0
262,81.51723068333332,81.7707025,81.0,56.0
263,81.72556368333333,81.96861885,79.0,56.0
264,81.72556368333333,82.20646569166666,50.0,55.0
265,81.30889768333333,82.244660075,43.0,72.0
266,81.93389668333333,82.39222928333334,82.0,86.0
267,82.35056268333334,82.61618725833333,79.0,51.0
268,82.55889568333333,82.80021474166666,81.0,58.0
269,82.14222968333333,82.994658875,62.0,62.0
270,82.76722868333333,83.00333941666666,82.0,81.0
271,82.14222968333333,83.03979769166666,55.0,41.0
272,82.14222968333333,83.04326990833333,58.0,63.0
273,82.97556168333332,83.24118625833333,75.0,74.0
274,83.18389468333334,83.44778314999999,79.0,53.0
275,83.39222768333333,83.69951885833333,75.0,56.0
276,83.39222768333333,83.958199,46.0,40.0
277,83.60056068333333,84.0206989,82.0,52.0
278,82.97556168333332,84.06583771666666,39.0,62.0
279,83.80889368333332,84.09187934166667,51.0,55.0
280,84.01722668333333,84.46687874166666,79.0,67.0
281,83.80889368333332,84.70472558333333,63.0,59.0
282,83.80889368333332,84.73944775,58.0,65.0
283,84.64222568333334,84.87660030833332,81.0,55.0
284,84.85055868333333,85.17347483333333,77.0,41.0
285,85.05889168333333,85.275905225,81.0,42.0
286,84.64222568333334,85.55194645,41.0,68.0
287,85.05889168333333,85.61444635,48.0,66.0
288,85.26722468333332,85.6873629,84.0,63.0
289,85.68389068333333,86.06930673333333,81.0,49.0
290,85.47555768333334,86.28805638333333,57.0,66.0
291,85.47555768333334,86.30888968333333,60.0,64.0
292,85.89222368333333,86.400903425,53.0,65.0
293,86.30888968333333,86.58145869166667,82.0,79.0
294,86.51722268333333,86.85055548333332,77.0,45.0
295,86.72555568333333,86.93041646666666,82.0,60.0
296,86.72555568333333,87.19604104166666,53.0,66.0
297,86.93388868333334,87.30888808333333,86.0,67.0
298,87.35055468333333,87.75854014166666,84.0,58.0
299,86.30888968333333,87.77763733333333,46.0,93.0
300,87.76722068333333,88.015484175,82.0,75.0
301,87.55888768333332,88.025900825,57.0,83.0
302,87.14222168333333,88.05367855833333,58.0,75.0
303,87.14222168333333,88.06409520833333,62.0,78.0
304,87.97555368333333,88.22555328333333,79.0,63.0
305,88.18388668333333,88.4373585,81.0,56.0
306,88.39221968333332,88.63527485,79.0,56.0
307,88.39221968333332,88.87312169166667,50.0,55.0
308,87.97555368333333,88.911316075,43.0,72.0
309,88.60055268333333,89.05888528333332,82.0,86.0
310,89.01721868333333,89.28284325833333,79.0,51.0
311,89.22555168333334,89.46687074166667,81.0,58.0
312,88.80888568333333,89.661314875,62.0,62.0
313,89.43388468333333,89.66999541666667,82.0,81.0
314,88.80888568333333,89.70645369166667,55.0,41.0
315,88.80888568333333,89.70992590833333,58.0,63.0
316,89.64221768333333,89.90784225833333,75.0,74.0
317,89.85055068333332,90.11443915,79.0,53.0
318,90.05888368333333,90.36617485833332,75.0,56.0
319,90.05888368333333,90.624855,46.0,40.0
320,90.26721668333333,90.6873549,82.0,52.0
321,89.64221768333333,90.73249371666667,39.0,62.0
322,90.47554968333333,90.75853534166666,51.0,55.0
323,90.68388268333332,91.13353474166667,79.0,67.0
324,90.47554968333333,91.37138158333333,63.0,59.0
325,90.47554968333333,91.40610375,58.0,65.0
326,91.30888168333333,91.54325630833333,81.0,55.0
327,91.51721468333334,91.84013083333333,77.0,41.0
328,91.72554768333333,91.94256122499999,81.0,42.0
329,91.30888168333333,92.21860244999999,41.0,68.0
330,91.72554768333333,92.28110235,48.0,66.0
331,91.93388068333333,92.3540189,84.0,63.0
332,92.35054668333333,92.73596273333332,81.0,49.0
333,92.14221368333332,92.95471238333333,57.0,66.0
334,92.14221368333332,92.97554568333332,60.0,64.0
335,92.55887968333333,93.067559425,53.0,65.0
336,92.97554568333332,93.24811469166666,82.0,79.0
337,93.18387868333333,93.51721148333333,77.0,45.0
338,93.39221168333333,93.59707246666666,82.0,60.0
339,93.39221168333333,93.86269704166666,53.0,66.0
340,93.60054468333333,93.97554408333333,86.0,67.0
341,94.01721068333333,94.42519614166666,84.0,58.0
342,92.97554568333332,94.44429333333333,46.0,93.0
343,94.43387668333332,94.682140175,82.0,75.0
344,94.22554368333333,94.692556825,55.0,83.0
345,93.80887768333334,94.72033455833333,58.0,75.0
346,93.80887768333334,94.73075120833333,62.0,78.0
347,95.05887568333333,95.77936064166666,50.0,59.0
348,94.64220968333333,95.89220768333333,43.0,66.0
349,95.47554168333333,96.28804038333332,62.0,86.0
350,95.89220768333333,96.29498481666666,58.0,62.0
351,96.30887368333333,97.35921922499999,39.0,72.0
352,96.72553968333332,97.37658030833333,51.0,59.0
353,97.55887168333332,98.01894039166666,58.0,40.0
354,97.14220568333333,98.03282925833332,63.0,95.0
355,97.97553768333333,99.04845263333333,41.0,67.0
356,98.39220368333334,99.18560519166667,48.0,58.0
357,99.22553568333333,99.55192405,57.0,55.0
358,98.80886968333333,99.56581291666666,60.0,77.0
359,99.64220168333333,100.42692265,46.0,83.0
360,100.05886768333333,100.46858925,53.0,69.0
361,100.47553368333332,101.26546297499999,45.0,72.0
362,100.89219968333333,101.32969898333333,57.0,57.0
363,101.72553168333333,102.21511423333332,50.0,62.0
364,101.30886568333332,102.28455856666666,43.0,67.0
365,102.14219768333332,102.75330781666666,62.0,82.0
366,102.55886368333333,103.42691785,55.0,71.0
367,103.39219568333333,104.20469438333333,46.0,52.0
368,103.80886168333333,104.23941655,51.0,44.0
369,102.97552968333333,104.26198595833333,39.0,71.0
370,104.22552768333333,104.68386028333333,58.0,45.0
371,103.80886168333333,104.69948525833333,63.0,79.0
372,104.64219368333333,105.51024785,41.0,60.0
373,105.05885968333332,105.61094213333332,48.0,61.0
374,105.89219168333332,106.23594113333333,57.0,67.0
375,105.47552568333333,106.255038325,60.0,82.0
376,106.72552368333332,107.32448105833333,53.0,59.0
377,106.30885768333333,107.62309169166666,46.0,75.0
378,107.55885568333333,107.95989670833333,58.0,66.0
379,107.14218968333333,107.994618875,62.0,85.0
380,108.39218768333333,108.85746471666666,50.0,58.0
381,107.97552168333333,108.91475629166666,43.0,62.0
382,108.80885368333333,109.47204706666666,62.0,78.0
383,109.22551968333333,109.66996341666666,55.0,61.0
384,110.05885168333333,110.796697725,46.0,31.0
385,110.47551768333332,110.85746151666666,51.0,38.0
386,109.64218568333332,110.86787816666666,39.0,56.0
387,110.47551768333332,111.35746071666667,63.0,85.0
388,110.89218368333333,111.36440515,58.0,58.0
389,111.30884968333334,112.23766764166666,41.0,61.0
390,111.72551568333333,112.296695325,48.0,59.0
391,112.14218168333333,112.942527625,60.0,72.0
392,112.55884768333333,112.94773595,57.0,63.0
393,112.97551368333333,113.73766524166666,46.0,83.0
394,113.39217968333332,113.77759573333333,53.0,68.0
395,113.80884568333333,114.62481659999999,45.0,69.0
396,114.22551168333332,114.650858225,57.0,58.0
397,115.05884368333332,115.57273174999999,50.0,55.0
398,114.64217768333333,115.61092613333332,43.0,63.0
399,115.47550968333333,116.28280005833332,62.0,78.0
400,115.89217568333333,116.30884168333333,55.0,67.0
401,116.72550768333333,117.4373121,46.0,58.0
402,117.14217368333333,117.45640929166666,51.0,56.0
403,116.30884168333333,117.48765924166666,39.0,88.0
404,117.14217368333333,118.00154730833333,58.0,69.0
405,117.14217368333333,118.02238060833332,63.0,66.0
406,117.55883968333333,118.046686125,55.0,52.0
407,118.39217168333333,118.8748098,48.0,56.0
408,119.22550368333333,121.150847825,48.0,55.0
409,118.80883768333332,121.19772275,53.0,86.0
410,119.64216968333332,121.20640329166666,57.0,62.0
411,119.64216968333332,121.22550048333333,60.0,61.0
412,117.97550568333332,121.24112545833333,41.0,64.0
413,121.51716668333333,121.87827721666666,50.0,72.0
414,121.93383268333332,122.17862395833333,50.0,66.0
415,121.72549968333333,122.25848494166667,55.0,69.0
416,122.35049868333333,122.46855405,50.0,53.0
417,121.30883368333333,122.52584562499999,43.0,70.0
418,122.14216568333333,122.73591473333333,62.0,85.0
419,122.55883168333332,122.87653950833332,58.0,72.0
420,122.76716468333333,123.0831364,55.0,63.0
421,123.39216368333332,123.81577411666666,51.0,68.0
422,123.60049668333333,123.95987110833333,55.0,70.0
423,123.18383068333333,124.088343125,46.0,31.0
424,122.97549768333333,124.15605135,39.0,70.0
425,124.01716268333332,124.21334292499999,51.0,64.0
426,123.80882968333333,124.557092375,63.0,86.0
427,124.22549568333332,124.57618956666666,58.0,77.0
428,124.43382868333333,124.62827281666667,55.0,77.0
429,125.05882768333333,125.55188245,53.0,63.0
430,125.26716068333333,125.76715988333332,57.0,74.0
431,124.85049468333332,125.84528475833332,48.0,59.0
432,124.64216168333333,125.942506825,41.0,67.0
433,125.68382668333332,125.99285396666666,53.0,77.0
434,125.47549368333333,126.18729809999999,65.0,82.0
435,125.89215968333333,126.20986750833333,60.0,77.0
436,126.10049268333333,126.255006325,57.0,79.0
437,126.72549168333333,127.03972729166667,53.0,86.0
438,126.30882568333332,127.08139389166666,46.0,93.0
439,126.51715868333332,127.12826881666666,50.0,70.0
440,126.93382468333333,127.25326861666666,58.0,96.0
441,127.35049068333333,127.66819850833333,57.0,82.0
442,127.55882368333333,127.82618436666667,58.0,72.0
443,127.14215768333332,127.93382308333332,45.0,76.0
444,127.76715668333333,128.00326741666666,62.0,83.0
445,128.39215568333333,128.60569700833332,55.0,78.0
446,128.60048868333334,128.827918875,58.0,64.0
447,128.18382268333332,128.84701606666667,50.0,61.0
448,129.01715468333333,129.12132118333332,50.0,56.0
449,127.97548968333332,129.14736280833333,43.0,72.0
450,128.80882168333332,129.57270935,62.0,72.0
451,129.22548768333334,129.60743151666665,58.0,82.0
452,129.43382068333332,129.67513974166667,55.0,73.0
453,130.05881968333333,130.49631898333334,51.0,82.0
454,130.26715268333334,130.65951316666667,55.0,67.0
455,129.85048668333332,130.73242971666667,46.0,56.0
456,129.64215368333333,130.76888799166667,39.0,82.0
457,130.68381868333333,130.87479059999998,51.0,73.0
458,130.47548568333332,131.17860955833333,63.0,93.0
459,130.89215168333334,131.23763724166665,58.0,79.0
460,131.10048468333332,131.28451216666667,55.0,69.0
461,131.72548368333332,132.09874697499998,53.0,69.0
462,131.93381668333333,132.17687185,57.0,73.0
463,131.51715068333334,132.45464918333332,48.0,45.0
464,131.30881768333333,132.47721859166666,41.0,56.0
465,132.14214968333332,132.55013514166666,60.0,86.0
466,132.35048268333333,132.63867666666667,53.0,79.0
467,132.55881568333334,132.86437075,57.0,73.0
468,132.76714868333332,132.90256513333333,60.0,76.0
469,133.39214768333332,133.73589713333334,53.0,82.0
470,132.97548168333333,133.75846654166665,46.0,97.0
471,133.18381468333334,133.79318870833333,50.0,56.0
472,133.60048068333333,133.92166072499998,58.0,93.0
473,134.01714668333332,134.4164516,57.0,71.0
474,133.80881368333334,134.56575691666666,45.0,72.0
475,134.22547968333333,134.59527075833333,58.0,83.0
476,134.43381268333331,134.61610405833332,62.0,65.0
477,135.05881168333332,135.30013074166666,55.0,88.0
478,134.85047868333334,135.50846374166667,50.0,56.0
479,135.26714468333333,135.54318590833333,58.0,74.0
480,135.68381068333332,135.796657725,50.0,65.0
481,134.64214568333333,135.84179654166667,43.0,75.0
482,135.47547768333334,136.08485170833333,62.0,82.0
483,135.89214368333333,136.26019865,58.0,89.0
484,136.10047668333334,136.35915682499999,55.0,67.0
485,136.72547568333331,137.13866946666667,51.0,88.0
486,136.93380868333333,137.26714148333332,55.0,69.0
487,136.51714268333333,137.411238475,46.0,43.0
488,136.30880968333332,137.463321725,39.0,89.0
489,137.35047468333332,137.53102995,51.0,82.0
490,137.55880768333333,137.90602934999998,58.0,71.0
491,137.14214168333334,137.911237675,63.0,97.0
492,137.76714068333334,137.963320925,55.0,76.0
493,138.39213968333334,138.84352785,53.0,76.0
494,138.60047268333332,138.952902675,57.0,68.0
495,138.18380668333333,139.2289439,48.0,62.0
496,139.01713868333331,139.27929104166665,53.0,85.0
497,137.97547368333332,139.3122771,41.0,72.0
498,138.80880568333333,139.47720739166667,65.0,85.0
499,139.22547168333332,139.52234620833332,60.0,76.0
500,139.43380468333334,139.61435995,57.0,81.0
501,139.85047068333333,140.34526155833333,53.0,73.0
502,139.64213768333332,140.41991421666665,46.0,92.0
503,140.05880368333334,140.56921953333332,62.0,86.0
504,140.26713668333332,140.61088613333334,58.0,86.0
505,140.68380268333334,141.13519085,57.0,60.0
506,140.47546968333333,141.22546848333332,45.0,56.0
507,140.89213568333332,141.24630178333334,62.0,76.0
508,141.10046868333333,141.31921833333334,58.0,75.0
509,141.72546768333333,142.01018944999998,55.0,64.0
510,141.93380068333332,142.13692535833331,58.0,70.0
511,141.51713468333332,142.16817530833333,50.0,45.0
512,142.35046668333334,142.48761924166666,50.0,46.0
513,141.30880168333331,142.52928584166665,43.0,69.0
514,142.14213368333333,142.76192435833332,62.0,76.0
515,142.55879968333332,142.87824361666665,58.0,71.0
516,142.76713268333333,143.0206045,55.0,73.0
517,143.39213168333333,143.80011714166665,51.0,75.0
518,143.6004646833333,144.01365846666667,55.0,70.0
519,143.18379868333332,144.09004723333334,46.0,35.0
520,142.97546568333334,144.150811025,39.0,72.0
521,144.01713068333333,144.22546368333332,51.0,70.0
522,144.22546368333332,144.546643725,58.0,90.0
523,143.80879768333332,144.55011594166666,63.0,95.0
524,144.43379668333333,144.57615756666667,55.0,73.0
525,145.05879568333333,145.494558875,53.0,75.0
526,145.26712868333334,145.69768355,57.0,62.0
527,144.85046268333332,145.84004443333333,48.0,47.0
528,144.64212968333334,145.98761364166666,41.0,63.0
529,145.68379468333333,146.11087733333332,53.0,83.0
530,145.47546168333332,146.20636329166666,65.0,82.0
531,145.8921276833333,146.23934935,60.0,68.0
532,146.10046068333332,146.27927984166666,57.0,76.0
533,146.93379268333334,147.18032006666667,58.0,73.0
534,146.72545968333333,147.19073671666666,53.0,66.0
535,147.14212568333332,147.68552759166667,65.0,76.0
536,147.55879168333334,147.8330968,58.0,77.0
537,147.35045868333333,147.84524955833334,53.0,77.0
538,146.51712668333332,147.87302729166666,50.0,59.0
539,146.30879368333333,147.94594384166666,46.0,83.0
540,147.76712468333332,147.97545768333333,62.0,72.0
541,148.21156841666667,148.57267894999998,50.0,72.0
542,148.62823441666666,148.87302569166667,50.0,66.0
543,148.41990141666665,148.952886675,55.0,69.0
544,149.04490041666665,149.16295578333333,50.0,53.0
545,148.00323541666666,149.22024735833332,43.0,70.0
546,148.83656741666667,149.43031646666665,62.0,85.0
547,149.25323341666666,149.57094124166667,58.0,72.0
548,149.46156641666667,149.77753813333334,55.0,63.0
549,150.08656541666667,150.51017585,51.0,68.0
550,150.29489841666665,150.65427284166665,55.0,70.0
551,149.87823241666666,150.78274485833333,46.0,31.0
552,149.66989941666665,150.85045308333332,39.0,70.0
553,150.71156441666665,150.9077446583333,51.0,64.0
554,150.50323141666667,151.25149410833333,63.0,86.0
555,150.91989741666666,151.2705913,58.0,77.0
556,151.12823041666667,151.32267455,55.0,77.0
557,151.75322941666667,152.24628418333333,53.0,63.0
558,151.96156241666665,152.46156161666667,57.0,74.0
559,151.54489641666666,152.53968649166666,48.0,59.0
560,151.33656341666665,152.63690855833332,41.0,67.0
561,152.37822841666667,152.68725569999998,53.0,77.0
562,152.16989541666666,152.88169983333333,65.0,82.0
563,152.58656141666665,152.90426924166667,60.0,77.0
564,152.79489441666666,152.94940805833332,57.0,79.0
565,153.41989341666667,153.734129025,53.0,86.0
566,153.00322741666665,153.775795625,46.0,93.0
567,153.21156041666666,153.82267055,50.0,70.0
568,153.62822641666665,153.94767034999998,58.0,96.0
569,154.04489241666667,154.36260024166666,57.0,82.0
570,154.25322541666665,154.5205861,58.0,72.0
571,153.83655941666666,154.62822481666666,45.0,76.0
572,154.46155841666666,154.69766915,62.0,83.0
573,155.08655741666666,155.30009874166666,55.0,78.0
574,155.29489041666665,155.52232060833333,58.0,64.0
575,154.87822441666665,155.5414178,50.0,61.0
576,155.71155641666667,155.81572291666666,50.0,56.0
577,154.66989141666667,155.84176454166666,43.0,72.0
578,155.50322341666666,156.26711108333333,62.0,72.0
579,155.91988941666665,156.30183325,58.0,82.0
580,156.12822241666666,156.369541475,55.0,73.0
581,156.75322141666666,157.19072071666665,51.0,82.0
582,156.96155441666667,157.3539149,55.0,67.0
583,156.54488841666665,157.42683144999998,46.0,56.0
584,156.33655541666667,157.46328972499998,39.0,82.0
585,157.37822041666666,157.56919233333332,51.0,73.0
586,157.16988741666665,157.87301129166667,63.0,93.0
587,157.58655341666665,157.93203897499998,58.0,79.0
588,157.79488641666666,157.97891389999998,55.0,69.0
589,158.41988541666666,158.79314870833332,53.0,69.0
590,158.62821841666667,158.87127358333333,57.0,73.0
591,158.21155241666665,159.14905091666665,48.0,45.0
592,158.00321941666667,159.171620325,41.0,56.0
593,158.83655141666665,159.244536875,60.0,86.0
594,159.04488441666666,159.3330784,53.0,79.0
595,159.25321741666667,159.5587724833333,57.0,73.0
596,159.46155041666665,159.59696686666666,60.0,76.0
597,160.08654941666666,160.43029886666665,53.0,82.0
598,159.66988341666666,160.452868275,46.0,97.0
599,159.87821641666665,160.48759044166667,50.0,56.0
600,160.29488241666667,160.61606245833332,58.0,93.0
601,160.71154841666666,161.11085333333332,57.0,71.0
602,160.50321541666665,161.26015865,45.0,72.0
603,160.91988141666667,161.28967249166666,58.0,83.0
604,161.12821441666665,161.31050579166666,62.0,65.0
605,161.75321341666665,161.994532475,55.0,88.0
606,161.54488041666667,162.20286547499998,50.0,56.0
607,161.96154641666666,162.23758764166666,58.0,74.0
608,162.37821241666666,162.49105945833332,50.0,65.0
609,161.33654741666666,162.536198275,43.0,75.0
610,162.16987941666665,162.77925344166667,62.0,82.0
611,162.58654541666667,162.95460038333331,58.0,89.0
612,162.79487841666665,163.05355855833332,55.0,67.0
613,163.41987741666665,163.8330712,51.0,88.0
614,163.62821041666666,163.96154321666666,55.0,69.0
615,163.21154441666667,164.1056402083333,46.0,43.0
616,163.00321141666666,164.15772345833332,39.0,89.0
617,164.04487641666665,164.2254316833333,51.0,82.0
618,164.25320941666666,164.60043108333332,58.0,71.0
619,163.83654341666667,164.60563940833333,63.0,97.0
620,164.46154241666665,164.6577226583333,55.0,76.0
621,165.08654141666665,165.53792958333332,53.0,76.0
622,165.29487441666666,165.64730440833333,57.0,68.0
623,164.87820841666667,165.92334563333333,48.0,62.0
624,165.71154041666665,165.973692775,53.0,85.0
625,164.66987541666666,166.00667883333332,41.0,72.0
626,165.50320741666667,166.171609125,65.0,85.0
627,165.91987341666666,166.21674794166665,60.0,76.0
628,166.12820641666667,166.30876168333333,57.0,81.0
629,166.54487241666666,167.03966329166667,53.0,73.0
630,166.33653941666665,167.11431595,46.0,92.0
631,166.75320541666665,167.26362126666666,62.0,86.0
632,166.96153841666666,167.30528786666665,58.0,86.0
633,167.37820441666665,167.82959258333332,57.0,60.0
634,167.16987141666667,167.91987021666665,45.0,56.0
635,167.58653741666666,167.94070351666667,62.0,76.0
636,167.79487041666667,168.01362006666665,58.0,75.0
637,168.41986941666667,168.70459118333332,55.0,64.0
638,168.62820241666665,168.83132709166665,58.0,70.0
639,168.21153641666666,168.86257704166667,50.0,45.0
640,169.04486841666665,169.182020975,50.0,46.0
641,168.00320341666665,169.22368757499999,43.0,69.0
642,168.83653541666666,169.45632609166665,62.0,76.0
643,169.25320141666666,169.57264535,58.0,71.0
644,169.46153441666667,169.71500623333333,55.0,73.0
645,170.08653341666667,170.49451887499998,51.0,75.0
646,170.29486641666665,170.7080602,55.0,70.0
647,169.87820041666666,170.78444896666664,46.0,35.0
648,169.66986741666665,170.84521275833333,39.0,72.0
649,170.71153241666667,170.91986541666665,51.0,70.0
650,170.91986541666665,171.24104545833333,58.0,90.0
651,170.50319941666666,171.244517675,63.0,95.0
652,171.12819841666666,171.2705593,55.0,73.0
653,171.75319741666667,172.18896060833333,53.0,75.0
654,171.96153041666665,172.39208528333333,57.0,62.0
655,171.54486441666666,172.53444616666667,48.0,47.0
656,171.33653141666665,172.682015375,41.0,63.0
657,172.37819641666667,172.80527906666666,53.0,83.0
658,172.16986341666666,172.900765025,65.0,82.0
659,172.58652941666665,172.93375108333333,60.0,68.0
660,172.79486241666666,172.973681575,57.0,76.0
661,173.62819441666664,173.8747218,58.0,73.0
662,173.41986141666666,173.88513845,53.0,66.0
663,173.83652741666666,174.37992932499998,65.0,76.0
664,174.25319341666665,174.52749853333333,58.0,77.0
665,174.04486041666667,174.53965129166667,53.0,77.0
666,173.21152841666665,174.567429025,50.0,59.0
667,173.00319541666667,174.640345575,46.0,83.0
668,174.46152641666666,174.66985941666667,62.0,72.0
669,175.05874768333334,175.72194106666666,50.0,65.0
670,174.64208168333332,175.75839934166666,43.0,68.0
671,175.47541368333333,176.3920788833333,62.0,86.0
672,175.89207968333332,176.50145370833332,55.0,63.0
673,176.3087456833333,177.21499423333333,39.0,71.0
674,176.72541168333333,177.23061920833334,46.0,31.0
675,177.55874368333332,178.06915953333333,55.0,64.0
676,177.14207768333333,178.07263175,63.0,102.0
677,177.97540968333334,178.88860266666666,41.0,72.0
678,178.39207568333333,178.94589424166665,48.0,65.0
679,178.80874168333332,179.41290738333333,60.0,92.0
680,179.22540768333332,179.65249033333333,53.0,70.0
681,180.05873968333333,180.34172534166666,53.0,76.0
682,179.64207368333334,180.42505854166666,46.0,85.0
683,180.47540568333332,181.23582113333333,45.0,63.0
684,180.8920716833333,181.338251525,57.0,66.0
685,180.26707268333334,181.39033477499999,62.0,67.0
686,181.72540368333333,182.1872085,50.0,65.0
687,181.30873768333333,182.25144450833332,43.0,68.0
688,182.14206968333332,182.640332775,62.0,92.0
689,183.39206768333332,183.90421964166666,46.0,35.0
690,182.97540168333333,184.046580525,39.0,82.0
691,182.55873568333334,184.08477490833332,55.0,83.0
692,183.80873368333332,184.09692766666666,51.0,55.0
693,183.80873368333332,184.57435745833334,63.0,102.0
694,184.22539968333334,184.702829475,55.0,89.0
695,184.64206568333333,185.67331403333333,41.0,83.0
696,185.05873168333332,185.73234171666667,48.0,67.0
697,185.4753976833333,185.97192466666667,57.0,79.0
698,185.89206368333333,186.58477090833333,53.0,69.0
699,186.30872968333333,187.63164423333333,46.0,107.0
700,186.72539568333332,187.8868521583333,53.0,75.0
701,187.14206168333334,187.91636599999998,58.0,42.0
702,187.14206168333334,187.931990975,62.0,39.0
703,188.39205968333331,188.72712859166666,55.0,72.0
704,188.60039268333333,188.85212839166667,58.0,72.0
705,188.18372668333333,189.15421124166664,50.0,75.0
706,187.97539368333332,189.254905525,43.0,89.0
707,188.80872568333334,189.59344665,62.0,81.0
708,189.22539168333333,189.59518275833332,58.0,76.0
709,189.43372468333334,189.62296049166665,55.0,63.0
710,190.0587236833333,190.49795909166664,51.0,71.0
711,189.85039068333333,190.88337514166665,46.0,35.0
712,189.64205768333332,190.88511125,39.0,76.0
713,190.68372268333331,190.90594455,51.0,59.0
714,190.89205568333333,191.26011065,58.0,54.0
715,190.26705668333332,191.26011065,63.0,99.0
716,191.10038868333334,191.306985575,55.0,56.0
717,191.72538768333334,191.94413733333332,53.0,83.0
718,191.51705468333333,192.15420644166664,48.0,68.0
719,191.30872168333332,192.51010864999998,41.0,66.0
720,192.3503866833333,192.54830303333333,48.0,55.0
721,192.55871968333332,192.90767745833332,60.0,65.0
722,191.93372068333332,192.92330243333333,57.0,92.0
723,192.76705268333333,192.94413573333333,53.0,73.0
724,192.97538568333331,193.54482921666667,46.0,86.0
725,193.39205168333334,193.671565125,53.0,88.0
726,193.18371868333332,193.78267605833332,50.0,69.0
727,193.60038468333332,193.99100905833333,58.0,97.0
728,194.01705068333334,194.44934165833334,57.0,78.0
729,193.80871768333333,194.55177204999998,45.0,85.0
730,194.22538368333332,194.640313575,58.0,95.0
731,194.43371668333333,194.64725800833332,62.0,72.0
732,195.05871568333333,195.34517355833333,55.0,77.0
733,194.85038268333332,195.55524266666666,50.0,55.0
734,195.68371468333333,195.82607556666665,50.0,61.0
735,194.6420496833333,195.85211719166665,43.0,70.0
736,195.89204768333332,196.192394425,58.0,89.0
737,195.26704868333331,196.23926935,62.0,90.0
738,196.10038068333333,196.30350535833333,55.0,50.0
739,196.72537968333333,197.22017055833334,51.0,69.0
740,196.51704668333332,197.42329523333333,46.0,29.0
741,196.30871368333334,197.49273956666667,39.0,78.0
742,197.35037868333333,197.55176724999998,51.0,81.0
743,197.5587116833333,197.98579433333333,58.0,45.0
744,196.9337126833333,197.98926655,63.0,90.0
745,198.39204368333333,198.99100105833332,48.0,44.0
746,197.97537768333333,199.00141770833332,41.0,67.0
747,198.80870968333332,199.23926455,57.0,58.0
748,198.80870968333332,199.29482001666665,60.0,58.0
749,198.80870968333332,199.43370868333332,53.0,43.0
750,199.64204168333333,203.661132475,46.0,34.0
751,199.64204168333333,203.69238242499998,53.0,37.0
752,199.64204168333333,203.70627129166667,58.0,50.0
753,199.64204168333333,203.73752124166666,62.0,56.0
