,start,end,pitch,velocity
0,18.3308731875,18.6691083125,70.0,83.0
1,18.624990687500002,19.120088479166668,75.0,92.0
2,19.213225687500003,19.672784281250003,75.0,90.0
3,19.8014606875,20.30758788541667,75.0,89.0
4,20.3896956875,20.607832833333333,77.0,88.0
5,20.6838131875,20.94484246875,79.0,85.0
6,20.977930687500002,21.860283187500002,77.0,90.0
7,21.860283187500002,22.1544006875,79.0,85.0
8,22.1544006875,22.803910166666668,75.0,89.0
9,22.7426356875,23.074743364583334,74.0,86.0
10,23.0367531875,23.25611582291667,75.0,89.0
11,23.330870687500003,23.81984103125,75.0,89.0
12,24.213223187500002,24.42890935416667,75.0,86.0
13,24.5073406875,24.69484059375,75.0,87.0
14,24.801458187500003,25.011016906250003,75.0,92.0
15,25.095575687500002,25.308810875000002,77.0,85.0
16,25.3896931875,25.593124458333335,75.0,85.0
17,25.683810687500003,26.26714372916667,74.0,85.0
18,26.2720456875,26.759790541666668,72.0,86.0
19,26.8602806875,27.343123583333334,74.0,86.0
20,27.448515687500002,28.045329114583335,70.0,87.0
21,28.036750687500003,28.62376019791667,72.0,86.0
22,28.919103187500003,29.096799177083337,72.0,87.0
23,29.2132206875,29.41787744791667,72.0,86.0
24,29.507338187500004,29.769592958333334,72.0,86.0
25,29.801455687500003,30.019592833333334,77.0,85.0
26,30.0955731875,30.3308671875,75.0,83.0
27,30.389690687500003,30.957092364583335,70.0,89.0
28,31.272043187500003,31.45464113541667,74.0,85.0
29,31.566160687500002,31.985278125,75.0,91.0
30,32.1543956875,32.34312108333334,77.0,86.0
31,32.448513187500005,32.63447004583333,79.0,86.0
32,32.742049495833335,33.183369739583334,80.0,86.0
33,33.32884649583333,33.74082688958333,79.0,87.0
34,33.915643495833336,34.42420089583333,77.0,86.0
35,34.50244049583333,34.78972652708333,75.0,88.0
36,34.795838995833336,35.01344288333333,77.0,87.0
37,35.08923749583333,37.14302699583333,77.0,87.0
38,38.02322249583333,38.226156458333335,70.0,78.0
39,38.31662099583333,38.493882589583336,75.0,91.0
40,38.610019495833335,38.78728108958333,75.0,89.0
41,38.90341799583334,39.10146198333334,75.0,87.0
42,39.19681649583333,39.404640433333334,77.0,87.0
43,39.490214995833334,39.75305115208333,79.0,85.0
44,39.783613495833336,40.663808995833335,77.0,85.0
45,40.663808995833335,40.95720749583333,79.0,82.0
46,40.95720749583333,41.512219658333336,75.0,84.0
47,41.544004495833335,41.742048483333335,74.0,81.0
48,41.83740299583333,42.00366214583333,75.0,87.0
49,42.13080149583333,42.59779410833333,75.0,89.0
50,43.01099699583334,43.146693802083334,75.0,90.0
51,43.30439549583333,43.486547064583334,75.0,86.0
52,43.597793995833335,43.80684042708333,75.0,86.0
53,43.89119249583334,44.11613134583334,77.0,85.0
54,44.18459099583333,44.420532289583335,75.0,86.0
55,44.477989495833334,45.06111901458333,74.0,85.0
56,45.06478649583333,45.627133620833334,72.0,86.0
57,45.651583495833336,46.16869835208333,74.0,83.0
58,46.23838049583333,46.798282633333336,70.0,86.0
59,46.82517749583333,47.31661998333333,72.0,85.0
60,47.411974495833334,47.650360777083336,72.0,85.0
61,47.705372995833336,47.876522120833336,80.0,83.0
62,47.99877149583334,48.16503064583333,80.0,82.0
63,48.29216999583333,48.47921153958333,80.0,85.0
64,48.585568495833336,48.84840465208333,79.0,86.0
65,48.87896699583334,49.14302564583333,77.0,86.0
66,49.17236549583333,49.68092289583333,75.0,88.0
67,49.75916249583334,50.05256099583333,72.0,79.0
68,50.05256099583333,50.345959495833334,74.0,86.0
69,50.345959495833334,50.93275649583333,75.0,86.0
70,50.93275649583333,51.22737748958333,77.0,85.0
71,51.22615499583333,51.447426364583336,79.0,85.0
72,51.519553495833335,52.03911333958334,80.0,83.0
73,52.10635049583334,52.38996904583334,79.0,88.0
74,52.399748995833335,52.66503013958334,75.0,86.0
75,52.69314749583333,53.22859975833333,80.0,80.0
76,53.279944495833334,53.54033566458334,79.0,81.0
77,53.573342995833336,53.82517670833333,80.0,85.0
78,53.86674149583334,55.38385623958334,82.0,83.0
79,55.62713249583334,55.841068902083336,70.0,87.0
80,55.92053099583333,56.10146007083333,72.0,86.0
81,56.213929495833334,56.37652116458334,75.0,90.0
82,56.507327995833336,56.94375826458334,79.0,89.0
83,57.094355675,57.60415934166667,77.0,87.0
84,57.68259067500001,57.860286664583334,75.0,87.0
85,57.976708175000006,58.181364935416674,77.0,81.0
86,58.270825675000005,58.51224712291667,79.0,85.0
87,58.564943175,60.05391301875,77.0,87.0
88,60.329648175,60.53307944583334,70.0,87.0
89,60.623765675,60.80636362291667,72.0,85.0
90,60.91788317500001,61.079647800000004,75.0,88.0
91,61.212000675000006,61.66298084166667,79.0,89.0
92,61.800235675,62.29043150833334,77.0,85.0
93,62.38847067500001,62.575970581250004,75.0,86.0
94,62.68258817500001,62.89704885208334,77.0,81.0
95,62.976705675000005,63.207097716666674,79.0,84.0
96,63.270823175000004,64.68748913333334,77.0,90.0
97,65.03552817500001,65.24508689375,79.0,81.0
98,65.32964567500001,65.506116175,82.0,85.0
99,65.62376317500001,66.07719432083334,82.0,85.0
100,66.211998175,66.40072357083334,75.0,86.0
101,66.506115675,66.68871362291667,75.0,87.0
102,66.800233175,66.97792916458334,75.0,88.0
103,67.094350675,67.31861526875001,75.0,86.0
104,67.388468175,67.60660532083334,74.0,78.0
105,67.68258567500001,67.92768359166666,75.0,90.0
106,67.97670317500001,68.43503627916667,82.0,88.0
107,68.56493817500001,68.76224199791668,75.0,87.0
108,68.85905567500001,69.07229086250001,74.0,81.0
109,69.153173175,69.60905530000001,75.0,79.0
110,69.741408175,69.92278063333333,77.0,86.0
111,70.035525675,70.24998635208334,79.0,81.0
112,70.329643175,70.84557428958334,80.0,79.0
113,70.917878175,71.17400549791667,79.0,85.0
114,71.21199567500001,71.39091715416667,77.0,85.0
115,71.50611317500001,72.07474034166667,77.0,88.0
116,72.09434817500001,72.40317155000001,75.0,87.0
117,72.388465675,72.57106362291667,77.0,86.0
118,72.682583175,73.270818175,77.0,89.0
119,73.270818175,73.49263178958334,75.0,92.0
120,73.564935675,73.77939635208334,79.0,87.0
121,73.85905317500001,74.22302358125,77.0,89.0
122,74.44728817500001,74.66174885208333,70.0,87.0
123,74.74140567500001,74.92277813333334,72.0,86.0
124,75.03552317500001,75.19851328958333,75.0,90.0
125,75.32964067500001,75.76714045625,79.0,89.0
126,75.917875675,76.42767934166667,77.0,87.0
127,76.506110675,76.68380666458334,75.0,87.0
128,76.800228175,77.00488493541667,77.0,81.0
129,77.094345675,77.33576712291668,79.0,85.0
130,77.388463175,78.87743301875,77.0,87.0
131,79.153168175,79.35659944583334,70.0,87.0
132,79.447285675,79.62988362291668,72.0,85.0
133,79.741403175,79.9031678,75.0,88.0
134,80.035520675,80.48650084166667,79.0,89.0
135,80.62375567500001,81.11395150833334,77.0,85.0
136,81.21199067500001,81.39949058125,75.0,86.0
137,81.50610817500001,81.72056885208335,77.0,81.0
138,81.80022567500001,82.03061771666667,79.0,84.0
139,82.094343175,83.51100913333335,77.0,90.0
140,83.859048175,84.06860689375,79.0,81.0
141,84.15316567500001,84.329636175,82.0,85.0
142,84.44728317500001,84.90071432083334,84.0,85.0
143,85.035518175,85.22424357083334,84.0,86.0
144,85.329635675,85.51223362291667,84.0,87.0
145,85.623753175,85.80144916458335,82.0,88.0
146,85.917870675,86.14213526875001,80.0,86.0
147,86.211988175,86.43012532083334,82.0,78.0
148,86.50610567500001,86.80022317500001,84.0,90.0
149,86.80022317500001,87.25855627916667,82.0,88.0
150,87.38845817500001,87.58576199791668,70.0,87.0
151,87.68257567500001,87.89581086250001,72.0,81.0
152,87.97669317500001,88.43257530000001,75.0,79.0
153,88.564928175,88.74630063333333,75.0,86.0
154,88.859045675,89.07350635208334,77.0,81.0
155,89.153163175,89.447280675,79.0,79.0
156,89.447280675,90.035515675,80.0,85.0
157,90.035515675,90.21443715416667,79.0,85.0
158,90.329633175,90.89826034166667,77.0,88.0
159,90.91786817500001,91.50511754583334,75.0,87.0
160,91.50511754583334,91.93665783958333,80.0,87.0
161,92.09191454583333,92.34374825833333,79.0,86.0
162,92.38531304583334,92.54912720833335,77.0,86.0
163,92.67871154583334,93.19338141458334,77.0,86.0
164,93.26550854583334,93.51489727083334,79.0,86.0
165,93.55890704583334,93.76795347708334,75.0,87.0
166,93.85230554583333,95.96721973333334,75.0,87.0
167,112.33928797083334,112.67719189583335,70.0,83.0
168,112.63311747083334,113.12773046250001,75.0,92.0
169,113.22077647083334,113.67988506458335,75.0,90.0
170,113.80843547083334,114.31406706875,75.0,89.0
171,114.39609447083335,114.61401801666668,77.0,88.0
172,114.68992397083335,114.95069765208335,79.0,85.0
173,114.98375347083335,115.86524197083335,77.0,90.0
174,115.86524197083335,116.15907147083334,79.0,85.0
175,116.15907147083334,116.80794495,75.0,89.0
176,116.74673047083334,117.07851294791668,74.0,86.0
177,117.04055997083334,117.25970780625,75.0,89.0
178,117.33438947083334,117.82288101458334,75.0,89.0
179,118.21587797083335,118.43135293750001,75.0,86.0
180,118.50970747083335,118.69702377708334,75.0,87.0
181,118.80353697083335,119.01289048958334,75.0,92.0
182,119.09736647083335,119.31039285833334,77.0,85.0
183,119.39119597083335,119.59442804166667,75.0,85.0
184,119.68502547083335,120.26778731250002,74.0,85.0
185,120.27268447083334,120.75995172500001,72.0,86.0
186,120.86034347083334,121.34271356666667,74.0,86.0
187,121.44800247083334,122.04423149791668,70.0,87.0
188,122.03566147083335,122.62209618125001,72.0,86.0
189,122.91714997083335,123.09467196041668,72.0,87.0
190,123.21097947083335,123.41543583125001,72.0,86.0
191,123.50480897083335,123.76680694166669,72.0,86.0
192,123.79863847083334,124.01656201666668,77.0,85.0
193,124.09246797083335,124.32753157083334,75.0,83.0
194,124.38629747083334,124.95314354791668,70.0,89.0
195,125.26778597083334,125.45020511875,74.0,85.0
196,125.56161547083335,125.98032250833334,75.0,91.0
197,126.14927447083335,126.33781506666668,77.0,86.0
198,126.44310397083335,126.62919598750001,79.0,86.0
199,126.73693347083335,127.17890201041668,80.0,86.0
200,127.32459247083335,127.73717806041668,79.0,87.0
201,127.91225147083335,128.42155593750002,77.0,86.0
202,128.49991047083336,128.7876185229167,75.0,88.0
203,128.79373997083334,129.0116635166667,77.0,87.0
204,129.08756947083336,131.14437597083335,77.0,87.0
205,132.02586447083334,132.22909654166668,70.0,78.0
206,132.31969397083336,132.49721596041667,75.0,91.0
207,132.61352347083334,132.79104546041668,75.0,89.0
208,132.90735297083336,133.10568788333336,75.0,87.0
209,133.20118247083334,133.40931170000002,77.0,87.0
210,133.49501197083333,133.75823423125001,79.0,85.0
211,133.78884147083335,134.67032997083334,77.0,85.0
212,134.67032997083334,134.96415947083335,79.0,82.0
213,134.96415947083335,135.51998694166667,75.0,84.0
214,135.55181847083335,135.75015338333336,74.0,81.0
215,135.84564797083334,136.0121513541667,75.0,87.0
216,136.13947747083336,136.6071560916667,75.0,89.0
217,137.02096597083334,137.15686211458336,75.0,90.0
218,137.31479547083336,137.49721461875,75.0,86.0
219,137.60862497083335,137.81797848958334,75.0,86.0
220,137.90245447083333,138.12772375416668,77.0,85.0
221,138.19628397083335,138.4325718604167,75.0,86.0
222,138.49011347083334,139.07409960208335,74.0,85.0
223,139.07777247083334,139.6409456791667,72.0,86.0
224,139.66543147083334,140.18330596458335,74.0,83.0
225,140.25309047083334,140.8138151,70.0,86.0
226,140.84074947083334,141.33291388333333,72.0,85.0
227,141.42840847083335,141.66714493958335,72.0,85.0
228,141.72223797083336,141.89363851250002,80.0,83.0
229,142.01606747083335,142.18257085416667,80.0,82.0
230,142.30989697083334,142.49721327708335,80.0,85.0
231,142.60372647083335,142.86694873125,79.0,86.0
232,142.89755597083334,143.16200252083334,77.0,86.0
233,143.19138547083335,143.70068993750002,75.0,88.0
234,143.77904447083336,144.07287397083334,72.0,79.0
235,144.07287397083334,144.36670347083336,74.0,86.0
236,144.36670347083336,144.95436247083336,75.0,86.0
237,144.95436247083336,145.2494162604167,77.0,85.0
238,145.24819197083335,145.46978838541668,79.0,85.0
239,145.54202147083333,146.06234454375002,80.0,83.0
240,146.12968047083336,146.41371565416668,79.0,88.0
241,146.42350997083335,146.68918081041667,75.0,86.0
242,146.71733947083334,147.25357830833335,80.0,80.0
243,147.30499847083334,147.56577215208335,79.0,81.0
244,147.59882797083336,147.85103162500002,80.0,85.0
245,147.89265747083334,149.41200084375,82.0,83.0
246,149.65563447083335,149.86988514791668,70.0,87.0
247,149.94946397083334,150.1306588291667,72.0,86.0
248,150.24329347083335,150.40612398541668,75.0,90.0
249,150.53712297083334,150.97419435208334,79.0,89.0
250,151.12478197083334,151.6340864375,77.0,87.0
251,151.71244097083334,151.88996296041668,75.0,87.0
252,152.00627047083336,152.21072683125,77.0,81.0
253,152.30009997083334,152.54128501875002,79.0,85.0
254,152.59392947083336,154.08144131458334,77.0,87.0
255,154.35690647083334,154.56013854166667,70.0,87.0
256,154.65073597083335,154.83315511875003,72.0,85.0
257,154.94456547083334,155.10617169583335,75.0,88.0
258,155.23839497083335,155.68893353750002,79.0,89.0
259,155.82605397083336,156.31576980416668,77.0,85.0
260,156.41371297083333,156.60102927708334,75.0,86.0
261,156.70754247083335,156.92179314791667,77.0,81.0
262,157.00137197083336,157.23153841250002,79.0,84.0
263,157.29520147083335,158.71048022916668,77.0,90.0
264,159.05817847083335,159.26753198958335,79.0,81.0
265,159.35200797083334,159.52830567083333,82.0,85.0
266,159.64583747083336,160.0988246166667,82.0,85.0
267,160.23349647083336,160.4220370666667,75.0,86.0
268,160.52732597083335,160.70974511875002,75.0,87.0
269,160.82115547083333,160.99867746041667,75.0,88.0
270,161.11498497083335,161.33902996458335,75.0,86.0
271,161.40881447083336,161.62673801666668,74.0,78.0
272,161.70264397083335,161.9475018875,75.0,90.0
273,161.99647347083334,162.454357775,82.0,88.0
274,162.58413247083334,162.78124309375002,75.0,87.0
275,162.87796197083335,163.09098835833333,74.0,81.0
276,163.17179147083334,163.62722719583334,75.0,79.0
277,163.75945047083334,163.94064532916667,77.0,86.0
278,164.05327997083336,164.2675306479167,79.0,81.0
279,164.34710947083335,164.8625353854167,80.0,79.0
280,164.93476847083335,165.19064499375003,79.0,85.0
281,165.22859797083333,165.40734425000002,77.0,85.0
282,165.52242747083335,166.0904978375,77.0,88.0
283,166.11008647083335,166.41860744583335,75.0,87.0
284,166.40391597083334,166.58633511875001,77.0,86.0
285,166.69774547083335,167.28540447083336,77.0,89.0
286,167.28540447083336,167.5070008854167,75.0,92.0
287,167.57923397083334,167.79348464791667,79.0,87.0
288,167.87306347083336,168.23667747708333,77.0,89.0
289,168.46072247083333,168.6749731479167,70.0,87.0
290,168.75455197083335,168.93574682916667,72.0,86.0
291,169.04838147083336,169.2112119854167,75.0,90.0
292,169.34221097083335,169.77928235208336,79.0,89.0
293,169.92986997083335,170.43917443750001,77.0,87.0
294,170.51752897083335,170.69505096041667,75.0,87.0
295,170.81135847083334,171.01581483125,77.0,81.0
296,171.10518797083336,171.34637301875,79.0,85.0
297,171.39901747083334,172.88652931458336,77.0,87.0
298,173.16199447083335,173.3652265416667,70.0,87.0
299,173.45582397083336,173.63824311875,72.0,85.0
300,173.74965347083335,173.91125969583334,75.0,88.0
301,174.04348297083334,174.49402153750003,79.0,89.0
302,174.63114197083337,175.1208578041667,77.0,85.0
303,175.21880097083334,175.40611727708335,75.0,86.0
304,175.51263047083336,175.72688114791669,77.0,81.0
305,175.80645997083334,176.03662641250003,79.0,84.0
306,176.10028947083333,177.5155682291667,77.0,90.0
307,177.86326647083337,178.07261998958336,79.0,81.0
308,178.15709597083335,178.33339367083335,82.0,85.0
309,178.45092547083334,178.90391261666667,84.0,85.0
310,179.03858447083334,179.2271250666667,84.0,86.0
311,179.33241397083333,179.51483311875,84.0,87.0
312,179.62624347083334,179.80376546041668,82.0,88.0
313,179.92007297083336,180.14411796458336,80.0,86.0
314,180.21390247083335,180.43182601666666,82.0,78.0
315,180.50773197083333,180.80156147083335,84.0,90.0
316,180.80156147083335,181.25944577500002,82.0,88.0
317,181.38922047083335,181.58633109375,70.0,87.0
318,181.68304997083334,181.89607635833335,72.0,81.0
319,181.97687947083335,182.43231519583335,75.0,79.0
320,182.56453847083336,182.74573332916668,75.0,86.0
321,182.85836797083334,183.07261864791667,77.0,81.0
322,183.15219747083336,183.44602697083334,79.0,79.0
323,183.44602697083334,184.03368597083335,80.0,85.0
324,184.03368597083335,184.21243225,79.0,85.0
325,184.32751547083336,184.89558583750002,77.0,88.0
326,184.91517447083334,185.50283347083337,75.0,87.0
327,185.50283347083337,185.93500769375,80.0,87.0
328,186.09049247083334,186.34269612500003,79.0,86.0
329,186.38432197083335,186.548376775,77.0,86.0
330,186.67815147083337,187.1935773854167,77.0,86.0
331,187.26581047083334,187.51556554583334,79.0,86.0
332,187.55963997083336,187.76899348958335,75.0,87.0
333,187.85346947083335,189.97149045000003,75.0,87.0
334,206.07089847083336,206.28514914791668,70.0,87.0
335,206.36472797083337,206.54592282916667,72.0,86.0
336,206.65855747083333,206.82138798541666,75.0,90.0
337,206.95238697083335,207.38945835208335,79.0,89.0
338,207.54004597083335,208.0493504375,77.0,87.0
339,208.12770497083335,208.3052269604167,75.0,87.0
340,208.42153447083336,208.62599083125002,77.0,81.0
341,208.71536397083335,208.95654901875002,79.0,85.0
342,209.00919347083334,210.49670531458335,77.0,87.0
343,210.77217047083334,210.97540254166668,70.0,87.0
344,211.06599997083333,211.24841911875,72.0,85.0
345,211.35982947083335,211.52143569583336,75.0,88.0
346,211.65365897083336,212.1041975375,79.0,89.0
347,212.24131797083334,212.73103380416669,77.0,85.0
348,212.82897697083337,213.01629327708335,75.0,86.0
349,213.12280647083335,213.33705714791668,77.0,81.0
350,213.41663597083334,213.64680241250002,79.0,84.0
351,213.71046547083336,215.12574422916668,77.0,90.0
352,215.47344247083333,215.68279598958335,79.0,81.0
353,215.76727197083335,215.94356967083337,82.0,85.0
354,216.06110147083336,216.5140886166667,84.0,85.0
355,216.64876047083334,216.83730106666667,84.0,86.0
356,216.94258997083335,217.12500911875003,84.0,87.0
357,217.23641947083337,217.41394146041668,82.0,88.0
358,217.53024897083336,217.75429396458335,80.0,86.0
359,217.82407847083334,218.0420020166667,82.0,78.0
360,218.11790797083336,218.41173747083334,84.0,90.0
361,218.41173747083334,218.869621775,82.0,88.0
362,218.99939647083335,219.19650709375003,70.0,87.0
363,219.29322597083336,219.50625235833337,72.0,81.0
364,219.58705547083335,220.04249119583335,75.0,79.0
365,220.17471447083335,220.35590932916668,75.0,86.0
366,220.46854397083337,220.6827946479167,77.0,81.0
367,220.76237347083335,221.05620297083334,79.0,79.0
368,221.05620297083334,221.64386197083337,80.0,85.0
369,221.64386197083337,221.82260825000003,79.0,85.0
370,221.93769147083336,222.50576183750002,77.0,88.0
371,222.52535047083336,223.11300947083333,75.0,87.0
372,223.11300947083333,223.54518369375,80.0,87.0
373,223.70066847083336,223.952872125,79.0,86.0
374,223.99449797083335,224.15855277500003,77.0,86.0
375,224.28832747083334,224.80375338541668,77.0,86.0
376,224.87598647083337,225.12574154583336,79.0,86.0
377,225.16981597083335,225.37916948958335,75.0,87.0
378,225.46364547083334,227.58166645,75.0,87.0
