,start,end,pitch,velocity
0,0.117647,1.8664206354166668,63.0,73.0
1,0.06004898958333334,2.053920541666667,58.0,62.0
2,0.18259794791666667,2.0588225,67.0,70.0
3,0.1495097291666667,2.3664203854166668,51.0,76.0
4,2.2512243645833334,2.484067385416667,58.0,59.0
5,2.3051459062500004,4.3897036875,62.0,71.0
6,2.377449791666667,4.491419322916667,50.0,73.0
7,2.388479197916667,4.62132121875,65.0,74.0
8,4.7463211562500005,6.133575364583334,60.0,76.0
9,4.67279178125,6.21690865625,56.0,69.0
10,4.781860354166667,6.337006635416667,63.0,80.0
11,4.784311333333334,6.425241885416667,44.0,85.0
12,6.539212416666667,6.787986802083334,58.0,72.0
13,6.502447729166668,6.8039181666666675,55.0,73.0
14,6.54043790625,6.807594635416667,62.0,78.0
15,6.534310458333334,6.906859291666668,43.0,72.0
16,7.0330847187500005,7.476711947916667,53.0,69.0
17,7.1691140625,7.623770697916667,60.0,75.0
18,7.116418010416667,7.740192208333334,56.0,78.0
19,7.41543746875,7.942397989583334,48.0,72.0
20,7.73896671875,8.187495906250001,53.0,82.0
21,7.132349375,8.198525312500001,41.0,74.0
22,8.00367246875,8.286760562500001,56.0,77.0
23,8.296564479166667,8.5073486875,53.0,82.0
24,8.281858604166667,8.616417260416668,58.0,74.0
25,8.627446666666668,8.811270104166667,53.0,84.0
26,8.906858291666667,9.192397364583334,53.0,84.0
27,8.307593885416667,9.506122697916668,46.0,83.0
28,9.243867927083334,9.526956020833333,53.0,85.0
29,8.895828885416668,9.528181510416667,58.0,79.0
30,9.5073481875,9.528181510416667,58.0,75.0
31,8.901956333333334,9.542887385416668,62.0,80.0
32,9.5073481875,9.867642125000001,63.0,73.0
33,9.8014656875,9.973034229166668,58.0,79.0
34,10.0955831875,10.204651760416667,58.0,74.0
35,10.0955831875,10.300239947916667,63.0,85.0
36,10.0955831875,10.417886947916667,67.0,80.0
37,10.389700687500001,10.62131821875,58.0,63.0
38,9.5073481875,10.752445604166667,51.0,81.0
39,10.389700687500001,11.061268979166668,63.0,78.0
40,10.9779356875,11.133572864583334,58.0,69.0
41,11.272053187500001,11.339455114583334,58.0,70.0
42,11.272053187500001,11.593131458333334,63.0,85.0
43,11.272053187500001,11.598033416666668,67.0,85.0
44,11.272053187500001,11.642151041666667,51.0,78.0
45,11.566170687500001,11.712003947916667,58.0,83.0
46,11.8602881875,12.0220528125,58.0,73.0
47,11.8602881875,12.229160552083334,62.0,78.0
48,12.1544056875,12.305140906250001,58.0,74.0
49,12.448523187500001,12.506121197916668,58.0,57.0
50,12.448523187500001,12.615189770833334,62.0,77.0
51,12.448523187500001,12.6396995625,65.0,84.0
52,12.742640687500002,12.9926405625,58.0,76.0
53,12.742640687500002,13.283081593750001,62.0,81.0
54,13.624993187500001,13.666659833333334,58.0,69.0
55,13.3308756875,13.749993125000001,53.0,62.0
56,13.624993187500001,13.9338165625,62.0,90.0
57,13.624993187500001,13.969355760416668,65.0,89.0
58,11.8602881875,14.04043415625,46.0,80.0
59,13.919110687500002,14.06984590625,58.0,79.0
60,14.2132281875,14.522051562500002,56.0,80.0
61,14.2132281875,14.653178947916668,60.0,81.0
62,14.2132281875,14.6691103125,63.0,81.0
63,14.2132281875,14.807590635416668,44.0,85.0
64,14.5073456875,14.813718083333335,51.0,73.0
65,14.801463187500001,14.887247458333334,56.0,83.0
66,15.095580687500002,15.653178447916668,58.0,80.0
67,15.095580687500002,15.834550906250001,62.0,85.0
68,15.683815687500001,15.953423395833335,50.0,74.0
69,15.095580687500002,16.02450179166667,43.0,83.0
70,15.977933187500001,16.071070395833335,58.0,83.0
71,15.977933187500001,16.224256593750003,67.0,83.0
72,15.977933187500001,16.256119322916668,62.0,91.0
73,16.272050687500002,16.350482020833333,58.0,70.0
74,16.5661681875,16.84803079166667,58.0,90.0
75,16.860285687500003,17.044109125000002,53.0,94.0
76,16.5661681875,17.31861879166667,46.0,86.0
77,17.1544031875,17.379893270833335,60.0,88.0
78,17.4485206875,17.79778521875,58.0,88.0
79,18.0367556875,18.20954971875,58.0,54.0
80,18.3308731875,18.42523588541667,58.0,78.0
81,17.4485206875,18.8896964375,53.0,85.0
82,18.624990687500002,18.9191081875,58.0,86.0
83,17.4485206875,18.924010145833336,46.0,89.0
84,18.3308731875,18.926461125000003,62.0,78.0
85,18.3308731875,18.953421895833333,70.0,84.0
86,18.9191081875,19.0661669375,58.0,75.0
87,18.9191081875,19.252441354166667,63.0,80.0
88,19.213225687500003,19.567392177083335,58.0,81.0
89,19.507343187500002,19.60905882291667,63.0,81.0
90,19.507343187500002,19.644598020833335,67.0,79.0
91,19.8014606875,20.3602839375,58.0,85.0
92,19.8014606875,20.431362333333336,63.0,86.0
93,19.8014606875,20.45464663541667,67.0,85.0
94,20.6838131875,20.9338130625,63.0,84.0
95,20.3896956875,21.012244395833335,55.0,69.0
96,18.9191081875,21.03920516666667,51.0,87.0
97,20.6838131875,21.129891395833337,67.0,79.0
98,20.977930687500002,21.312489343750002,58.0,73.0
99,21.2720481875,21.624989187500002,62.0,85.0
100,21.2720481875,21.745087166666668,65.0,85.0
101,21.5661656875,21.926459625000003,58.0,79.0
102,22.1544006875,22.787978802083334,62.0,85.0
103,22.1544006875,22.805135656250002,65.0,86.0
104,21.2720481875,22.85292975,50.0,82.0
105,22.7426356875,22.930135593750002,58.0,80.0
106,23.0367531875,23.296556979166667,62.0,87.0
107,23.0367531875,23.401949083333335,65.0,87.0
108,23.330870687500003,23.404400062500002,58.0,70.0
109,23.6249881875,24.040429156250003,60.0,83.0
110,23.6249881875,24.082095802083334,63.0,81.0
111,24.213223187500002,24.376213302083336,60.0,76.0
112,24.213223187500002,24.379889770833334,63.0,77.0
113,23.9191056875,24.718124895833334,55.0,71.0
114,24.5073406875,24.968124770833334,60.0,81.0
115,24.5073406875,24.974252218750003,63.0,84.0
116,24.801458187500003,25.131114885416668,55.0,69.0
117,23.6249881875,25.435036302083336,48.0,80.0
118,25.095575687500002,25.449742177083333,63.0,85.0
119,25.095575687500002,25.46935001041667,67.0,86.0
120,25.3896931875,25.62008522916667,60.0,79.0
121,25.9779281875,26.30758488541667,58.0,75.0
122,25.9779281875,26.401947583333335,62.0,74.0
123,26.566163187500003,26.75611407291667,58.0,86.0
124,26.2720456875,26.953417895833336,53.0,72.0
125,26.8602806875,27.176457000000003,58.0,81.0
126,26.8602806875,27.261015781250002,62.0,87.0
127,26.8602806875,27.269594208333334,65.0,88.0
128,27.154398187500004,27.52449604166667,53.0,77.0
129,27.448515687500002,27.536750937500003,58.0,76.0
130,27.448515687500002,27.824740989583336,70.0,79.0
131,27.448515687500002,27.84189784375,62.0,81.0
132,27.448515687500002,27.860280187500003,65.0,85.0
133,27.7426331875,27.866407635416667,53.0,81.0
134,25.9779281875,27.882339,46.0,84.0
135,28.330868187500002,28.696064083333336,56.0,76.0
136,28.330868187500002,28.740181708333335,60.0,79.0
137,28.6249856875,29.033073718750003,51.0,68.0
138,28.919103187500003,29.598024416666668,63.0,81.0
139,29.2132206875,29.64214204166667,56.0,84.0
140,29.507338187500004,29.780622364583337,51.0,77.0
141,29.801455687500003,30.11273004166667,56.0,86.0
142,29.801455687500003,30.17155354166667,60.0,89.0
143,28.330868187500002,30.328416208333337,44.0,85.0
144,29.801455687500003,30.3308671875,63.0,86.0
145,30.0955731875,30.34189659375,51.0,73.0
146,30.683808187500002,31.017141354166668,58.0,78.0
147,30.683808187500002,31.12375894791667,62.0,80.0
148,30.683808187500002,31.226700072916667,43.0,86.0
149,30.9779256875,31.247533395833337,50.0,71.0
150,31.272043187500003,31.382337250000003,62.0,74.0
151,31.272043187500003,31.393366656250002,58.0,78.0
152,31.272043187500003,31.485278375000004,67.0,78.0
153,31.566160687500002,32.19606233333334,60.0,85.0
154,31.566160687500002,32.22915055208333,63.0,87.0
155,32.1543956875,32.486503364583335,55.0,73.0
156,32.448513187500005,32.59535024583333,60.0,80.0
157,31.566160687500002,32.63569253958333,48.0,80.0
158,32.448513187500005,32.80317418333333,63.0,85.0
159,32.448513187500005,32.81784410833333,67.0,85.0
160,32.742049495833335,32.913198620833334,60.0,74.0
161,33.03544799583333,33.40464110833334,60.0,78.0
162,33.03544799583333,33.41442105833333,65.0,84.0
163,33.32884649583333,33.735936914583334,48.0,69.0
164,33.622244995833334,33.73715940833333,60.0,79.0
165,33.03544799583333,33.82395646458333,41.0,85.0
166,33.915643495833336,34.51833291458333,68.0,85.0
167,33.915643495833336,34.56234268958333,65.0,90.0
168,33.915643495833336,34.570900145833335,60.0,86.0
169,34.50244049583333,34.65036223958333,53.0,82.0
170,34.795838995833336,34.937648270833336,65.0,83.0
171,34.795838995833336,34.966988120833335,60.0,75.0
172,35.38263599583333,35.70781933333333,58.0,76.0
173,35.38263599583333,35.746939133333335,62.0,79.0
174,35.96943299583333,36.11001977708333,58.0,81.0
175,35.676034495833335,36.34962855208333,53.0,77.0
176,36.26283149583333,36.584347352083334,65.0,87.0
177,36.26283149583333,36.597794783333335,58.0,84.0
178,36.26283149583333,36.625912139583335,62.0,85.0
179,36.849628495833336,37.034225052083336,58.0,80.0
180,37.14302699583333,37.22371158333333,58.0,74.0
181,37.43642549583333,37.702929133333335,58.0,80.0
182,37.14302699583333,37.71026409583333,62.0,87.0
183,37.14302699583333,37.72371152708333,70.0,86.0
184,36.556229995833334,37.744493920833335,53.0,81.0
185,35.38263599583333,37.76283132708333,46.0,86.0
186,37.729823995833335,37.87652324583333,58.0,75.0
187,37.729823995833335,38.06234229583333,63.0,80.0
188,38.02322249583333,38.37652318958333,58.0,81.0
189,38.31662099583333,38.41808797708333,63.0,81.0
190,38.31662099583333,38.453540295833335,67.0,79.0
191,38.610019495833335,39.16747664583333,58.0,85.0
192,38.610019495833335,39.23838128333333,63.0,86.0
193,38.610019495833335,39.261608664583335,67.0,85.0
194,39.490214995833334,39.73960372083334,63.0,84.0
195,39.19681649583333,39.81784332083333,55.0,69.0
196,37.729823995833335,39.844738183333334,51.0,87.0
197,39.490214995833334,39.93520272083333,67.0,79.0
198,39.783613495833336,40.11735428958333,58.0,73.0
199,40.07701199583333,40.42909019583333,62.0,85.0
200,40.07701199583333,40.548894583333336,65.0,85.0
201,40.37041049583333,40.72982365833333,58.0,79.0
202,40.95720749583333,41.58923676458333,62.0,85.0
203,40.95720749583333,41.60635167708333,65.0,86.0
204,40.07701199583333,41.654028933333336,50.0,82.0
205,41.544004495833335,41.73104603958333,58.0,80.0
206,41.83740299583333,42.096571670833335,62.0,87.0
207,41.83740299583333,42.20170613333333,65.0,87.0
208,42.13080149583333,42.20415112083333,58.0,70.0
209,42.424199995833334,42.83862537708333,60.0,83.0
210,42.424199995833334,42.88019016458333,63.0,81.0
211,43.01099699583334,43.173588664583335,60.0,76.0
212,43.01099699583334,43.17725614583333,63.0,77.0
213,42.717598495833336,43.514664420833334,55.0,71.0
214,43.30439549583333,43.76405314583333,60.0,81.0
215,43.30439549583333,43.770165614583334,63.0,84.0
216,43.597793995833335,43.926644814583334,55.0,69.0
217,42.424199995833334,44.22982326458333,48.0,80.0
218,43.89119249583334,44.24449318958334,63.0,85.0
219,43.89119249583334,44.264053089583335,67.0,86.0
220,44.18459099583333,44.41441982083333,60.0,79.0
221,44.77138799583334,45.100238814583335,58.0,75.0
222,44.77138799583334,45.19437083333334,62.0,74.0
223,45.358184995833334,45.54767152708334,58.0,86.0
224,45.06478649583333,45.74449302083333,53.0,72.0
225,45.651583495833336,45.966986883333334,58.0,81.0
226,45.651583495833336,46.051338952083334,62.0,87.0
227,45.651583495833336,46.05989640833333,65.0,88.0
228,45.94498199583333,46.31417510833333,53.0,77.0
229,46.23838049583333,46.32640004583334,58.0,76.0
230,46.23838049583333,46.61368607708334,70.0,79.0
231,46.23838049583333,46.630800989583335,62.0,81.0
232,46.23838049583333,46.64913839583333,65.0,85.0
233,46.531778995833335,46.65525086458334,53.0,81.0
234,44.77138799583334,46.671143283333336,46.0,84.0
235,47.11857599583333,47.482879133333334,56.0,76.0
236,47.11857599583333,47.52688890833333,60.0,79.0
237,47.411974495833334,47.819064914583336,51.0,68.0
238,47.705372995833336,48.38263453333333,63.0,81.0
239,47.99877149583334,48.42664430833334,56.0,84.0
240,48.29216999583333,48.56478610208333,51.0,77.0
241,48.585568495833336,48.896081908333336,56.0,86.0
242,48.585568495833336,48.954761608333335,60.0,89.0
243,47.11857599583333,49.111240808333335,44.0,85.0
244,48.585568495833336,49.113685795833334,63.0,86.0
245,48.87896699583334,49.124688239583335,51.0,73.0
246,49.465763995833335,49.79828229583333,58.0,78.0
247,49.465763995833335,49.904639252083335,62.0,80.0
248,49.465763995833335,50.00732872708333,43.0,86.0
249,49.75916249583334,50.02811112083333,50.0,71.0
250,50.05256099583333,50.162585433333334,62.0,74.0
251,50.05256099583333,50.173587877083335,58.0,78.0
252,50.05256099583333,50.26527490833334,67.0,78.0
253,50.345959495833334,50.97432128333334,60.0,85.0
254,50.345959495833334,51.00732861458333,63.0,87.0
255,50.93275649583333,51.264052302083336,55.0,73.0
256,51.22615499583333,51.37285424583334,60.0,80.0
257,50.345959495833334,51.41319653958334,48.0,80.0
258,51.22615499583333,51.58067818333333,63.0,85.0
259,51.22615499583333,51.59534810833333,67.0,85.0
260,51.519553495833335,51.690702620833335,60.0,74.0
261,51.81295199583333,52.18214510833333,60.0,78.0
262,51.81295199583333,52.19192505833334,65.0,84.0
263,52.10635049583334,52.513440914583335,48.0,69.0
264,52.399748995833335,52.514663408333334,60.0,79.0
265,51.81295199583333,52.60146046458333,41.0,85.0
266,52.69314749583333,53.29583691458333,68.0,85.0
267,52.69314749583333,53.33984668958334,65.0,90.0
268,52.69314749583333,53.348404145833335,60.0,86.0
269,53.279944495833334,53.42786623958334,53.0,82.0
270,53.573342995833336,53.715152270833336,65.0,83.0
271,53.573342995833336,53.744492120833335,60.0,75.0
272,54.16013999583333,54.48532333333333,58.0,76.0
273,54.16013999583333,54.524443133333335,62.0,79.0
274,54.74693699583334,54.88752377708333,58.0,81.0
275,54.453538495833335,55.12713255208334,53.0,77.0
276,55.04033549583333,55.361851352083335,65.0,87.0
277,55.04033549583333,55.375298783333335,58.0,84.0
278,55.04033549583333,55.403416139583335,62.0,85.0
279,55.62713249583334,55.81172905208334,58.0,80.0
280,55.92053099583333,56.001215583333334,58.0,74.0
281,56.213929495833334,56.480433133333335,58.0,80.0
282,55.92053099583333,56.48776809583333,62.0,87.0
283,55.92053099583333,56.50121552708333,70.0,86.0
284,55.333733995833335,56.521997920833336,53.0,81.0
285,54.16013999583333,56.54033532708333,46.0,86.0
286,56.507327995833336,56.647914777083336,58.0,82.0
287,56.507327995833336,56.809283952083334,63.0,86.0
288,56.80072649583333,56.919308389583335,58.0,82.0
289,56.507327995833336,57.357835935416674,51.0,91.0
290,57.094355675,57.425237862500005,62.0,91.0
291,57.388473175,57.764698477083336,58.0,85.0
292,57.68259067500001,57.99141405,63.0,86.0
293,57.976708175000006,58.15930612291667,58.0,84.0
294,57.68259067500001,58.48651184166667,51.0,82.0
295,58.270825675000005,58.57107062291667,62.0,92.0
296,58.564943175,58.783080320833335,63.0,85.0
297,58.859060675,59.19116835208334,62.0,87.0
298,59.15317817500001,59.32597220625001,58.0,86.0
299,59.44729567500001,59.74999160208334,62.0,92.0
300,59.741413175000005,59.908079758333336,58.0,86.0
301,58.859060675,60.16298159166667,46.0,87.0
302,60.035530675000004,60.337001112500005,62.0,88.0
303,60.035530675000004,60.340677581250006,58.0,86.0
304,60.035530675000004,60.34190307083334,65.0,91.0
305,60.329648175,60.734059737500004,53.0,78.0
306,60.623765675,60.86396163333334,58.0,86.0
307,60.623765675,60.926461602083336,62.0,92.0
308,60.91788317500001,61.0722948625,50.0,84.0
309,61.212000675000006,61.51959856041667,60.0,79.0
310,61.212000675000006,61.52327502916667,63.0,85.0
311,61.506118175000005,61.85660819583334,55.0,72.0
312,61.800235675,62.10660807083334,58.0,82.0
313,61.800235675,62.20709821666667,62.0,85.0
314,62.094353175,62.56126470625001,55.0,78.0
315,62.38847067500001,62.787980279166675,60.0,85.0
316,62.38847067500001,62.79165674791667,63.0,89.0
317,62.68258817500001,63.011019383333334,55.0,85.0
318,62.976705675000005,63.15440166458334,58.0,86.0
319,62.976705675000005,63.15807813333334,62.0,87.0
320,61.212000675000006,63.27327415416667,48.0,89.0
321,63.270823175000004,63.575970081250006,63.0,84.0
322,63.564940675,63.883567966666675,58.0,77.0
323,63.564940675,63.905626779166674,62.0,88.0
324,63.859058175,64.22915602916667,53.0,77.0
325,64.153175675,64.41665593541667,65.0,88.0
326,64.153175675,64.48038139375001,58.0,82.0
327,64.447293175,64.77694987291667,53.0,80.0
328,63.564940675,64.83822435208334,46.0,85.0
329,64.741410675,65.09067520625001,58.0,84.0
330,64.741410675,65.14459674791667,62.0,91.0
331,65.03552817500001,65.43748875833333,53.0,78.0
332,65.32964567500001,65.49631225833333,58.0,86.0
333,65.32964567500001,65.66542982083334,62.0,91.0
334,65.62376317500001,65.770821925,46.0,85.0
335,65.62376317500001,65.79900818541667,58.0,86.0
336,65.917880675,66.26224324791667,60.0,80.0
337,65.917880675,66.27572363333334,56.0,84.0
338,66.211998175,66.61150777916667,51.0,81.0
339,66.506115675,66.79042925833333,63.0,85.0
340,66.506115675,66.84680177916667,56.0,86.0
341,65.917880675,67.16665456041667,44.0,86.0
342,66.800233175,67.16910553958334,51.0,80.0
343,67.094350675,67.4914093,56.0,86.0
344,67.094350675,67.506115175,60.0,86.0
345,67.388468175,67.89827184166667,51.0,79.0
346,67.68258567500001,67.94484044583334,56.0,88.0
347,67.68258567500001,68.05390901875,60.0,87.0
348,67.97670317500001,68.1458207375,44.0,85.0
349,68.27082067500001,68.53920289375,62.0,79.0
350,68.27082067500001,68.75243808125,58.0,78.0
351,68.56493817500001,68.94606543541667,50.0,68.0
352,68.27082067500001,69.06493792500001,43.0,85.0
353,68.85905567500001,69.1972908,62.0,82.0
354,69.153173175,69.26224174791668,58.0,66.0
355,69.153173175,69.28184958125,50.0,80.0
356,68.85905567500001,69.3222907375,65.0,87.0
357,69.447290675,69.71322191458334,60.0,85.0
358,69.447290675,69.72302583125,63.0,81.0
359,69.741408175,70.094349175,55.0,81.0
360,70.035525675,70.16787855000001,60.0,85.0
361,69.447290675,70.21812362291666,48.0,85.0
362,70.035525675,70.39949608125,67.0,86.0
363,70.035525675,70.41420195625001,63.0,86.0
364,70.329643175,70.56003521666668,60.0,86.0
365,70.623760675,70.87621152916667,60.0,82.0
366,70.623760675,70.94851541458334,65.0,86.0
367,71.21199567500001,71.3369956125,60.0,86.0
368,70.917878175,71.40439753958334,48.0,72.0
369,71.21199567500001,71.57106412291667,68.0,85.0
370,71.50611317500001,71.67277975833333,60.0,86.0
371,71.80023067500001,71.99875998750001,60.0,81.0
372,71.80023067500001,72.14459324791667,65.0,86.0
373,72.09434817500001,72.24998535208334,60.0,85.0
374,72.388465675,72.46689700833333,60.0,77.0
375,71.80023067500001,72.47547543541667,48.0,78.0
376,70.623760675,72.48527935208334,41.0,87.0
377,72.388465675,72.61150477916667,65.0,89.0
378,72.388465675,72.62498516458334,68.0,85.0
379,72.682583175,72.83331839375,60.0,86.0
380,72.976700675,73.30635737291666,58.0,85.0
381,72.976700675,73.33822010208334,62.0,79.0
382,73.564935675,73.72302383125,62.0,86.0
383,73.564935675,73.91174922708333,65.0,86.0
384,73.85905317500001,73.9840531125,58.0,89.0
385,73.270818175,74.24753337291668,53.0,80.0
386,74.15317067500001,74.34067058125001,58.0,92.0
387,74.15317067500001,74.48772933125001,70.0,86.0
388,74.15317067500001,74.49508226875001,62.0,94.0
389,74.44728817500001,74.58209202916667,58.0,75.0
390,74.44728817500001,74.83944484166668,53.0,87.0
391,74.74140567500001,74.91542519583334,58.0,83.0
392,74.74140567500001,75.300228925,65.0,87.0
393,75.03552317500001,75.30267990416667,58.0,81.0
394,72.976700675,75.32964067500001,46.0,86.0
395,75.03552317500001,75.32964067500001,53.0,88.0
396,75.32964067500001,75.47057197708334,58.0,82.0
397,75.32964067500001,75.63233660208334,63.0,86.0
398,75.623758175,75.74263066458334,58.0,82.0
399,75.32964067500001,76.18135593541668,51.0,91.0
400,75.917875675,76.24875786250001,62.0,91.0
401,76.211993175,76.58821847708333,58.0,85.0
402,76.506110675,76.81493405,63.0,86.0
403,76.800228175,76.98282612291668,58.0,84.0
404,76.506110675,77.31003184166667,51.0,82.0
405,77.094345675,77.39459062291667,62.0,92.0
406,77.388463175,77.60660032083334,63.0,85.0
407,77.682580675,78.01468835208334,62.0,87.0
408,77.97669817500001,78.14949220625,58.0,86.0
409,78.27081567500001,78.57351160208334,62.0,92.0
410,78.56493317500001,78.73159975833335,58.0,86.0
411,77.682580675,78.98650159166667,46.0,87.0
412,78.859050675,79.1605211125,62.0,88.0
413,78.859050675,79.16419758125001,58.0,86.0
414,78.859050675,79.16542307083334,65.0,91.0
415,79.153168175,79.5575797375,53.0,78.0
416,79.447285675,79.68748163333333,58.0,86.0
417,79.447285675,79.74998160208334,62.0,92.0
418,79.741403175,79.8958148625,50.0,84.0
419,80.035520675,80.34311856041667,60.0,79.0
420,80.035520675,80.34679502916667,63.0,85.0
421,80.32963817500001,80.68012819583333,55.0,72.0
422,80.62375567500001,80.93012807083335,58.0,82.0
423,80.62375567500001,81.03061821666667,62.0,85.0
424,80.91787317500001,81.38478470625,55.0,78.0
425,81.21199067500001,81.61150027916668,60.0,85.0
426,81.21199067500001,81.61517674791668,63.0,89.0
427,81.50610817500001,81.83453938333334,55.0,85.0
428,81.80022567500001,81.97792166458333,58.0,86.0
429,81.80022567500001,81.98159813333334,62.0,87.0
430,80.035520675,82.09679415416667,48.0,89.0
431,82.094343175,82.39949008125001,63.0,84.0
432,82.388460675,82.70708796666668,58.0,77.0
433,82.388460675,82.72914677916667,62.0,88.0
434,82.682578175,83.05267602916668,53.0,77.0
435,82.976695675,83.24017593541667,65.0,88.0
436,82.976695675,83.30390139375001,58.0,82.0
437,83.270813175,83.60046987291668,53.0,80.0
438,82.388460675,83.66174435208333,46.0,85.0
439,83.564930675,83.91419520625001,58.0,84.0
440,83.564930675,83.96811674791667,62.0,91.0
441,83.859048175,84.26100875833333,53.0,78.0
442,84.15316567500001,84.31983225833334,58.0,86.0
443,84.15316567500001,84.48894982083334,62.0,91.0
444,84.44728317500001,84.59434192500001,46.0,85.0
445,84.44728317500001,84.62252818541667,58.0,86.0
446,84.74140067500001,85.08576324791667,60.0,80.0
447,84.74140067500001,85.09924363333334,56.0,84.0
448,85.035518175,85.43502777916667,51.0,81.0
449,85.329635675,85.61394925833334,63.0,85.0
450,85.329635675,85.67032177916667,56.0,86.0
451,84.74140067500001,85.99017456041668,44.0,86.0
452,85.623753175,85.99262553958334,51.0,80.0
453,85.917870675,86.3149293,56.0,86.0
454,85.917870675,86.329635175,60.0,86.0
455,86.211988175,86.72179184166667,51.0,79.0
456,86.50610567500001,86.76836044583334,56.0,88.0
457,86.50610567500001,86.87742901875001,60.0,87.0
458,86.80022317500001,86.9693407375,44.0,85.0
459,87.09434067500001,87.36272289375,62.0,79.0
460,87.09434067500001,87.57595808125001,58.0,78.0
461,87.38845817500001,87.76958543541667,50.0,68.0
462,87.09434067500001,87.88845792500001,43.0,85.0
463,87.68257567500001,88.0208108,62.0,82.0
464,87.97669317500001,88.08576174791668,58.0,66.0
465,87.97669317500001,88.10536958125,50.0,80.0
466,87.68257567500001,88.1458107375,65.0,87.0
467,88.270810675,88.53674191458333,60.0,85.0
468,88.270810675,88.54654583125,63.0,81.0
469,88.564928175,88.917869175,55.0,81.0
470,88.859045675,88.99139855000001,60.0,85.0
471,88.270810675,89.04164362291667,48.0,85.0
472,88.859045675,89.22301608125001,67.0,86.0
473,88.859045675,89.23772195625,63.0,86.0
474,89.153163175,89.38355521666668,60.0,86.0
475,89.447280675,89.69973152916668,60.0,82.0
476,89.447280675,89.77203541458334,65.0,86.0
477,90.035515675,90.1605156125,60.0,86.0
478,89.741398175,90.22791753958333,48.0,72.0
479,90.035515675,90.39458412291668,68.0,85.0
480,90.329633175,90.49629975833335,60.0,86.0
481,90.623750675,90.8222799875,60.0,81.0
482,90.623750675,90.96811324791668,65.0,86.0
483,90.91786817500001,91.07350535208334,60.0,85.0
484,91.21171904583333,91.28995864583334,60.0,77.0
485,90.623750675,91.29851610208334,48.0,78.0
486,89.447280675,91.30829605208334,41.0,87.0
487,91.21171904583333,91.43421290833334,65.0,89.0
488,91.21171904583333,91.44766033958334,68.0,85.0
489,91.50511754583334,91.65548427708333,60.0,86.0
490,91.79851604583334,92.12736686458334,58.0,85.0
491,91.79851604583334,92.15915170208334,62.0,79.0
492,92.38531304583334,92.54301473958334,62.0,86.0
493,92.38531304583334,92.73127877708333,65.0,86.0
494,92.67871154583334,92.80340590833333,58.0,89.0
495,92.09191454583333,93.06624206458334,53.0,80.0
496,92.97211004583333,93.15915158958335,58.0,92.0
497,92.97211004583333,93.30585083958334,70.0,86.0
498,92.97211004583333,93.31318580208334,62.0,94.0
499,93.26550854583334,93.39998285833335,58.0,75.0
500,93.26550854583334,93.65670654583334,53.0,87.0
501,93.55890704583334,93.73250115833333,58.0,83.0
502,93.55890704583334,94.11636419583334,65.0,87.0
503,93.85230554583333,94.11880918333334,58.0,81.0
504,91.79851604583334,94.14570404583334,46.0,86.0
505,93.85230554583333,94.14570404583334,53.0,88.0
506,94.14570404583334,94.52100962708334,58.0,77.0
507,94.14570404583334,94.69949371458334,67.0,80.0
508,94.73250104583335,94.88286777708333,58.0,88.0
509,94.43910254583334,95.14081395833334,46.0,73.0
510,95.02589954583334,95.46477480208334,63.0,88.0
511,95.02589954583334,95.46599729583333,58.0,87.0
512,95.31929804583334,95.82785544583334,46.0,78.0
513,95.61269654583334,95.83152292708334,58.0,80.0
514,94.14570404583334,95.87553270208333,39.0,86.0
515,95.61269654583334,96.07235419583334,63.0,87.0
516,95.61269654583334,96.18482362083334,67.0,88.0
517,96.49289204583334,96.79118052083334,62.0,81.0
518,96.49289204583334,97.06257413333334,65.0,85.0
519,96.78629054583334,97.20560590208333,58.0,85.0
520,97.07968904583333,97.24594819583334,62.0,87.0
521,97.37308754583334,97.80218285208333,62.0,74.0
522,97.37308754583334,97.81074030833334,70.0,86.0
523,97.95988454583333,98.31929770833334,65.0,86.0
524,98.25328304583334,98.61147371458334,58.0,86.0
525,96.49289204583334,98.65426099583334,50.0,80.0
526,98.54668154583334,98.71660817708334,62.0,89.0
527,98.84008004583333,99.22272058958333,60.0,75.0
528,98.84008004583333,99.48188926458334,63.0,83.0
529,99.42687704583334,99.56868632083334,60.0,86.0
530,99.13347854583334,99.88164472083334,55.0,73.0
531,99.72027554583335,100.12125349583334,60.0,87.0
532,99.72027554583335,100.19093563958334,67.0,86.0
533,100.30707254583334,100.44521433958334,60.0,86.0
534,100.01367404583334,100.49044660833334,55.0,71.0
535,100.30707254583334,100.62492092083335,63.0,85.0
536,98.84008004583333,101.04301378333334,48.0,85.0
537,100.89386954583334,101.18604555208334,63.0,79.0
538,100.60047104583334,101.23127782083334,60.0,81.0
539,101.77406504583334,101.92565427083333,58.0,87.0
540,101.48066654583334,102.16404055208334,53.0,80.0
541,102.06746354583333,102.50144882708334,65.0,88.0
542,102.65426054583334,102.70071530833334,65.0,74.0
543,102.06746354583333,102.80340478333333,58.0,86.0
544,102.36086204583334,102.85108203958333,53.0,78.0
545,102.65426054583334,103.27284238333334,62.0,88.0
546,102.94765904583335,103.38531180833334,53.0,78.0
547,101.18726804583333,103.40364921458334,46.0,86.0
548,103.24105754583334,103.40609420208334,58.0,86.0
549,103.53445604583334,104.18115523958335,60.0,82.0
550,103.53445604583334,104.20193763333334,56.0,81.0
551,104.12125304583334,104.24594740833334,63.0,77.0
552,104.41465154583334,104.86452924583334,68.0,84.0
553,104.41465154583334,104.90120405833333,56.0,85.0
554,103.82785454583333,105.15548275833333,51.0,76.0
555,105.00144854583334,105.34985926458334,56.0,85.0
556,105.00144854583334,105.38164410208334,63.0,85.0
557,103.53445604583334,105.54423577083334,44.0,84.0
558,105.29484704583334,105.56746315208333,51.0,83.0
559,105.58824554583335,105.70315995833334,56.0,77.0
560,105.88164404583334,106.22883227083334,58.0,83.0
561,105.88164404583334,106.44276867708334,43.0,86.0
562,106.17504254583334,106.46966353958334,50.0,68.0
563,105.88164404583334,106.52712074583334,62.0,85.0
564,106.46844104583334,106.59802538333334,58.0,82.0
565,106.76183954583334,107.25694951458334,63.0,89.0
566,106.76183954583334,107.48922332708334,60.0,85.0
567,107.34863654583334,107.59680277708334,55.0,75.0
568,106.76183954583334,107.75694945833334,48.0,88.0
569,107.64203504583334,107.79362427083333,60.0,80.0
570,107.64203504583334,108.03078805833334,67.0,86.0
571,107.64203504583334,108.09802521458334,63.0,85.0
572,107.93543354583335,108.13592252083333,60.0,79.0
573,108.22883204583334,108.56624032083334,60.0,83.0
574,108.22883204583334,108.77773173958334,65.0,84.0
575,108.81562904583333,108.92320849583334,60.0,76.0
576,109.10902754583334,109.52956539583334,60.0,88.0
577,109.10902754583334,109.59069008333334,68.0,82.0
578,108.52223054583334,109.70193701458334,48.0,70.0
579,108.22883204583334,109.74839177708334,41.0,87.0
580,109.69582454583335,109.85352623958335,60.0,86.0
581,109.69582454583335,109.99411302083334,65.0,87.0
582,109.98922304583334,110.24227925208334,60.0,85.0
583,110.28262154583334,111.20926868541667,65.0,74.0
584,111.16396997083335,111.74061036458335,58.0,85.0
585,111.45779947083335,111.80427342291668,65.0,86.0
586,112.04545847083335,112.52782856666668,65.0,81.0
587,111.75162897083335,112.83634954166668,70.0,87.0
588,112.33928797083334,112.87430251875001,58.0,86.0
589,112.63311747083334,112.87430251875001,65.0,81.0
590,110.87014047083335,112.88776970416669,53.0,78.0
591,110.57631097083335,112.90980691666668,46.0,86.0
592,112.92694697083334,113.07386172083335,58.0,75.0
593,112.92694697083334,113.25995373750001,63.0,80.0
594,113.22077647083334,113.57459616041668,58.0,81.0
595,113.51460597083334,113.61622200625001,63.0,81.0
596,113.51460597083334,113.65172640416668,67.0,79.0
597,113.80843547083334,114.36671152083335,58.0,85.0
598,113.80843547083334,114.43772031666668,63.0,86.0
599,113.80843547083334,114.46098181875001,67.0,85.0
600,114.68992397083335,114.93967904583334,63.0,84.0
601,114.39609447083335,115.01803357916668,55.0,69.0
602,112.92694697083334,115.04496795000001,51.0,87.0
603,114.68992397083335,115.13556537916668,67.0,79.0
604,114.98375347083335,115.31798452708334,58.0,73.0
605,115.27758297083335,115.63017837083335,62.0,85.0
606,115.27758297083335,115.75015875000001,65.0,85.0
607,115.57141247083335,115.93135360833335,58.0,79.0
608,116.15907147083334,116.79202918541668,62.0,85.0
609,116.15907147083334,116.80916923958334,65.0,86.0
610,115.27758297083335,116.85691653333335,50.0,82.0
611,116.74673047083334,116.93404677708335,58.0,80.0
612,117.04055997083334,117.30010936250001,62.0,87.0
613,117.04055997083334,117.40539826666668,65.0,87.0
614,117.33438947083334,117.40784684583335,58.0,70.0
615,117.62821897083334,118.04325313958334,60.0,83.0
616,117.62821897083334,118.08487898541668,63.0,81.0
617,118.21587797083335,118.37870848541668,60.0,76.0
618,118.21587797083335,118.38238135416668,63.0,77.0
619,117.92204847083335,118.72028527916667,55.0,71.0
620,118.50970747083335,118.97004035416668,60.0,81.0
621,118.50970747083335,118.97616180208334,63.0,84.0
622,118.80353697083335,119.13287086875002,55.0,69.0
623,117.62821897083334,119.43649468541668,48.0,80.0
624,119.09736647083335,119.45118616041668,63.0,85.0
625,119.09736647083335,119.47077479375001,67.0,86.0
626,119.39119597083335,119.62136241250002,60.0,79.0
627,119.97885497083334,120.30818886875001,58.0,75.0
628,119.97885497083334,120.40245916666667,62.0,74.0
629,120.56651397083334,120.75627885625002,58.0,86.0
630,120.27268447083334,120.95338947916667,53.0,72.0
631,120.86034347083334,121.17621018333335,58.0,81.0
632,120.86034347083334,121.26068616458335,62.0,87.0
633,120.86034347083334,121.26925619166668,65.0,88.0
634,121.15417297083334,121.52390842500002,53.0,77.0
635,121.44800247083334,121.53615132083334,58.0,76.0
636,121.44800247083334,121.82385937291667,70.0,79.0
637,121.44800247083334,121.84099942708335,62.0,81.0
638,121.44800247083334,121.85936377083334,65.0,85.0
639,121.74183197083335,121.86548521875001,53.0,81.0
640,119.97885497083334,121.88140098333335,46.0,84.0
641,122.32949097083335,122.69432926666668,56.0,76.0
642,122.32949097083335,122.73840369166668,60.0,79.0
643,122.62332047083335,123.03100890208334,51.0,68.0
644,122.91714997083335,123.59540640000002,63.0,81.0
645,123.21097947083335,123.639480825,56.0,84.0
646,123.50480897083335,123.77782554791668,51.0,77.0
647,123.79863847083334,124.10960802500001,56.0,86.0
648,123.79863847083334,124.16837392500001,60.0,89.0
649,122.32949097083335,124.32508299166668,44.0,85.0
650,123.79863847083334,124.32753157083334,63.0,86.0
651,124.09246797083335,124.33855017708335,51.0,73.0
652,124.68012697083334,125.01313373750001,58.0,78.0
653,124.68012697083334,125.11964693125002,62.0,80.0
654,124.68012697083334,125.22248725625002,43.0,86.0
655,124.97395647083334,125.24330017916668,50.0,71.0
656,125.26778597083334,125.37797203333335,62.0,74.0
657,125.26778597083334,125.38899063958334,58.0,78.0
658,125.26778597083334,125.48081235833334,67.0,78.0
659,125.56161547083335,126.19090031666668,60.0,85.0
660,125.56161547083335,126.22395613541669,63.0,87.0
661,126.14927447083335,126.48105694791668,55.0,73.0
662,126.44310397083335,126.59001872083334,60.0,80.0
663,125.56161547083335,126.63042027708335,48.0,80.0
664,126.44310397083335,126.79814795000001,63.0,85.0
665,126.44310397083335,126.81283942500002,67.0,85.0
666,126.73693347083335,126.9083340125,60.0,74.0
667,127.03076297083335,127.40049842500001,60.0,78.0
668,127.03076297083335,127.41029274166668,65.0,84.0
669,127.32459247083335,127.73228090208335,48.0,69.0
670,127.61842197083334,127.73350519166668,60.0,79.0
671,127.03076297083335,127.82042975208334,41.0,85.0
672,127.91225147083335,128.51582623541668,68.0,85.0
673,127.91225147083335,128.55990066041667,65.0,90.0
674,127.91225147083335,128.56847068750002,60.0,86.0
675,128.49991047083336,128.64804951041668,53.0,82.0
676,128.79373997083334,128.93575756250002,65.0,83.0
677,128.79373997083334,128.9651405125,60.0,75.0
678,129.38139897083335,129.70706,58.0,76.0
679,129.38139897083335,129.74623726666667,62.0,79.0
680,129.96905797083335,130.10985127291667,58.0,81.0
681,129.67522847083336,130.34981203125002,53.0,77.0
682,130.26288747083333,130.58487563125001,65.0,87.0
683,130.26288747083333,130.59834281666667,58.0,84.0
684,130.26288747083333,130.62650147708334,62.0,85.0
685,130.85054647083334,131.03541419791668,58.0,80.0
686,131.14437597083335,131.22517908333336,58.0,74.0
687,131.43820547083334,131.7051006,58.0,80.0
688,131.14437597083335,131.7124463375,62.0,87.0
689,131.14437597083335,131.72591352291667,70.0,86.0
690,130.55671697083335,131.74672644583336,53.0,81.0
691,129.38139897083335,131.76509078958335,46.0,86.0
692,131.73203497083335,131.87894972083336,58.0,75.0
693,131.73203497083335,132.06504173750002,63.0,80.0
694,132.02586447083334,132.37968416041667,58.0,81.0
695,132.31969397083336,132.42131000625002,63.0,81.0
696,132.31969397083336,132.45681440416666,67.0,79.0
697,132.61352347083334,133.17179952083336,58.0,85.0
698,132.61352347083334,133.24280831666667,63.0,86.0
699,132.61352347083334,133.26606981875,67.0,85.0
700,133.49501197083333,133.74476704583336,63.0,84.0
701,133.20118247083334,133.8231215791667,55.0,69.0
702,131.73203497083335,133.85005595,51.0,87.0
703,133.49501197083333,133.9406533791667,67.0,79.0
704,133.78884147083335,134.12307252708334,58.0,73.0
705,134.08267097083336,134.43526637083335,62.0,85.0
706,134.08267097083336,134.55524675,65.0,85.0
707,134.37650047083335,134.73644160833334,58.0,79.0
708,134.96415947083335,135.5971171854167,62.0,85.0
709,134.96415947083335,135.61425723958334,65.0,86.0
710,134.08267097083336,135.66200453333335,50.0,82.0
711,135.55181847083335,135.73913477708334,58.0,80.0
712,135.84564797083334,136.1051973625,62.0,87.0
713,135.84564797083334,136.2104862666667,65.0,87.0
714,136.13947747083336,136.21293484583333,58.0,70.0
715,136.43330697083334,136.84834113958334,60.0,83.0
716,136.43330697083334,136.8899669854167,63.0,81.0
717,137.02096597083334,137.18379648541668,60.0,76.0
718,137.02096597083334,137.1874693541667,63.0,77.0
719,136.72713647083336,137.52537327916667,55.0,71.0
720,137.31479547083336,137.77512835416667,60.0,81.0
721,137.31479547083336,137.78124980208335,63.0,84.0
722,137.60862497083335,137.93795886875,55.0,69.0
723,136.43330697083334,138.2415826854167,48.0,80.0
724,137.90245447083333,138.2562741604167,63.0,85.0
725,137.90245447083333,138.27586279375,67.0,86.0
726,138.19628397083335,138.4264504125,60.0,79.0
727,138.78394297083335,139.11327686875,58.0,75.0
728,138.78394297083335,139.20754716666667,62.0,74.0
729,139.37160197083335,139.56136685625,58.0,86.0
730,139.07777247083334,139.7584774791667,53.0,72.0
731,139.66543147083334,139.98129818333334,58.0,81.0
732,139.66543147083334,140.06577416458333,62.0,87.0
733,139.66543147083334,140.07434419166668,65.0,88.0
734,139.95926097083336,140.328996425,53.0,77.0
735,140.25309047083334,140.34123932083335,58.0,76.0
736,140.25309047083334,140.62894737291668,70.0,79.0
737,140.25309047083334,140.64608742708336,62.0,81.0
738,140.25309047083334,140.66445177083335,65.0,85.0
739,140.54691997083336,140.67057321875,53.0,81.0
740,138.78394297083335,140.68648898333333,46.0,84.0
741,141.13457897083333,141.49941726666668,56.0,76.0
742,141.13457897083333,141.54349169166667,60.0,79.0
743,141.42840847083335,141.83609690208334,51.0,68.0
744,141.72223797083336,142.4004944,63.0,81.0
745,142.01606747083335,142.444568825,56.0,84.0
746,142.30989697083334,142.5829135479167,51.0,77.0
747,142.60372647083335,142.914696025,56.0,86.0
748,142.60372647083335,142.973461925,60.0,89.0
749,141.13457897083333,143.1301709916667,44.0,85.0
750,142.60372647083335,143.13261957083336,63.0,86.0
751,142.89755597083334,143.14363817708335,51.0,73.0
752,143.48521497083334,143.8182217375,58.0,78.0
753,143.48521497083334,143.92473493125001,62.0,80.0
754,143.48521497083334,144.02757525625003,43.0,86.0
755,143.77904447083336,144.0483881791667,50.0,71.0
756,144.07287397083334,144.18306003333333,62.0,74.0
757,144.07287397083334,144.19407863958335,58.0,78.0
758,144.07287397083334,144.28590035833335,67.0,78.0
759,144.36670347083336,144.99598831666668,60.0,85.0
760,144.36670347083336,145.02904413541668,63.0,87.0
761,144.95436247083336,145.28614494791668,55.0,73.0
762,145.24819197083335,145.39510672083335,60.0,80.0
763,144.36670347083336,145.43550827708336,48.0,80.0
764,145.24819197083335,145.60323595,63.0,85.0
765,145.24819197083335,145.617927425,67.0,85.0
766,145.54202147083333,145.71342201250002,60.0,74.0
767,145.83585097083335,146.205586425,60.0,78.0
768,145.83585097083335,146.21538074166668,65.0,84.0
769,146.12968047083336,146.53736890208336,48.0,69.0
770,146.42350997083335,146.53859319166668,60.0,79.0
771,145.83585097083335,146.62551775208334,41.0,85.0
772,146.71733947083334,147.3209142354167,68.0,85.0
773,146.71733947083334,147.36498866041669,65.0,90.0
774,146.71733947083334,147.3735586875,60.0,86.0
775,147.30499847083334,147.4531375104167,53.0,82.0
776,147.59882797083336,147.7408455625,65.0,83.0
777,147.59882797083336,147.7702285125,60.0,75.0
778,148.18648697083336,148.51214800000002,58.0,76.0
779,148.18648697083336,148.55132526666668,62.0,79.0
780,148.77414597083333,148.91493927291668,58.0,81.0
781,148.48031647083334,149.15490003125,53.0,77.0
782,149.06797547083335,149.38996363125,65.0,87.0
783,149.06797547083335,149.40343081666668,58.0,84.0
784,149.06797547083335,149.43158947708335,62.0,85.0
785,149.65563447083335,149.8405021979167,58.0,80.0
786,149.94946397083334,150.03026708333334,58.0,74.0
787,150.24329347083335,150.51018860000002,58.0,80.0
788,149.94946397083334,150.51753433750002,62.0,87.0
789,149.94946397083334,150.53100152291668,70.0,86.0
790,149.36180497083336,150.55181444583334,53.0,81.0
791,148.18648697083336,150.57017878958334,46.0,86.0
792,150.53712297083334,150.6779162729167,58.0,82.0
793,150.53712297083334,150.83952249791668,63.0,86.0
794,150.83095247083335,150.9497085604167,58.0,82.0
795,150.53712297083334,151.38800423125002,51.0,91.0
796,151.12478197083334,151.45534015833334,62.0,91.0
797,151.41861147083335,151.7944683729167,58.0,85.0
798,151.71244097083334,152.02096194583333,63.0,86.0
799,152.00627047083336,152.18868961875,58.0,84.0
800,151.71244097083334,152.51557493750002,51.0,82.0
801,152.30009997083334,152.60005091875001,62.0,92.0
802,152.59392947083336,152.81185301666667,63.0,85.0
803,152.88775897083335,153.2195414479167,62.0,87.0
804,153.18158847083333,153.35421330208334,58.0,86.0
805,153.47541797083335,153.7778174979167,62.0,92.0
806,153.76924747083336,153.93575085416668,58.0,86.0
807,152.88775897083335,154.19040308750002,46.0,87.0
808,154.06307697083335,154.36425220833334,62.0,88.0
809,154.06307697083335,154.36792507708336,58.0,86.0
810,154.06307697083335,154.36914936666668,65.0,91.0
811,154.35690647083334,154.76092203333334,53.0,78.0
812,154.65073597083335,154.89069672916668,58.0,86.0
813,154.65073597083335,154.9531354979167,62.0,92.0
814,154.94456547083334,155.09882595833335,50.0,84.0
815,155.23839497083335,155.54569165625003,60.0,79.0
816,155.23839497083335,155.54936452500002,63.0,85.0
817,155.53222447083334,155.8823712916667,55.0,72.0
818,155.82605397083336,156.13212636666668,58.0,82.0
819,155.82605397083336,156.23251811250003,62.0,85.0
820,156.11988347083334,156.58633780208334,55.0,78.0
821,156.41371297083333,156.81283137500003,60.0,85.0
822,156.41371297083333,156.81650424375002,63.0,89.0
823,156.70754247083335,157.03565207916668,55.0,85.0
824,157.00137197083336,157.17889396041667,58.0,86.0
825,157.00137197083336,157.1825668291667,62.0,87.0
826,155.23839497083335,157.29765005000002,48.0,89.0
827,157.29520147083335,157.60004957708335,63.0,84.0
828,157.58903097083333,157.90734626250003,58.0,77.0
829,157.58903097083333,157.929383475,62.0,88.0
830,157.88286047083335,158.252595925,53.0,77.0
831,158.17668997083337,158.43991223125002,65.0,88.0
832,158.17668997083337,158.50357528958335,58.0,82.0
833,158.47051947083335,158.79985336875,53.0,80.0
834,157.58903097083333,158.86106784791667,46.0,85.0
835,158.76434897083334,159.11327150208336,58.0,84.0
836,158.76434897083334,159.16714024375,62.0,91.0
837,159.05817847083335,159.4597454541667,53.0,78.0
838,159.35200797083334,159.5185113541667,58.0,86.0
839,159.35200797083334,159.68746331666668,62.0,91.0
840,159.64583747083336,159.79275222083334,46.0,85.0
841,159.64583747083336,159.82091088125003,58.0,86.0
842,159.93966697083334,160.28369234375,60.0,80.0
843,159.93966697083334,160.2971595291667,56.0,84.0
844,160.23349647083336,160.632614875,51.0,81.0
845,160.52732597083335,160.8113611541667,63.0,85.0
846,160.52732597083335,160.86767847500002,56.0,86.0
847,159.93966697083334,161.18721805625,44.0,86.0
848,160.82115547083333,161.18966663541667,51.0,80.0
849,161.11498497083335,161.51165479583335,56.0,86.0
850,161.11498497083335,161.52634627083336,60.0,86.0
851,161.40881447083336,161.91811893750003,51.0,79.0
852,161.70264397083335,161.96464194166668,56.0,88.0
853,161.70264397083335,162.07360371458336,60.0,87.0
854,161.99647347083334,162.16542543333335,44.0,85.0
855,162.29030297083335,162.55842238958334,62.0,79.0
856,162.29030297083335,162.77144877708335,58.0,78.0
857,162.58413247083334,162.96488653125002,50.0,68.0
858,162.29030297083335,163.08364262083336,43.0,85.0
859,162.87796197083335,163.21586589583336,62.0,82.0
860,163.17179147083334,163.28075324375,58.0,66.0
861,163.17179147083334,163.30034187708335,50.0,80.0
862,162.87796197083335,163.34074343333336,65.0,87.0
863,163.46562097083336,163.73129181041668,60.0,85.0
864,163.46562097083336,163.74108612708335,63.0,81.0
865,163.75945047083334,164.11204587083336,55.0,81.0
866,164.05327997083336,164.18550324583333,60.0,85.0
867,163.46562097083336,164.23569911875,48.0,85.0
868,164.05327997083336,164.41689397708336,67.0,86.0
869,164.05327997083336,164.43158545208334,63.0,86.0
870,164.34710947083335,164.5772759125,60.0,86.0
871,164.64093897083336,164.89314262500002,60.0,82.0
872,164.64093897083336,164.96537571041668,65.0,86.0
873,165.22859797083333,165.35347550833336,60.0,86.0
874,164.93476847083335,165.42081143541668,48.0,72.0
875,165.22859797083333,165.58731481875003,68.0,85.0
876,165.52242747083335,165.6889308541667,60.0,86.0
877,165.81625697083336,166.01459188333334,60.0,81.0
878,165.81625697083336,166.16028234375,65.0,86.0
879,166.11008647083335,166.26557124791668,60.0,85.0
880,166.40391597083334,166.48227050416668,60.0,77.0
881,165.81625697083336,166.49084053125,48.0,78.0
882,164.64093897083336,166.50063484791667,41.0,87.0
883,166.40391597083334,166.62673667500002,65.0,89.0
884,166.40391597083334,166.64020386041668,68.0,85.0
885,166.69774547083335,166.84833308958335,60.0,86.0
886,166.99157497083334,167.32090886875002,58.0,85.0
887,166.99157497083334,167.35274039791668,62.0,79.0
888,167.57923397083334,167.73716732708334,62.0,86.0
889,167.57923397083334,167.92570792291667,65.0,86.0
890,167.87306347083336,167.99794100833336,58.0,89.0
891,167.28540447083336,168.26116326875,53.0,80.0
892,168.16689297083335,168.35420927708336,58.0,92.0
893,168.16689297083335,168.50112402708334,70.0,86.0
894,168.16689297083335,168.50846976458334,62.0,94.0
895,168.46072247083333,168.59539432500003,58.0,75.0
896,168.46072247083333,168.8524951375,53.0,87.0
897,168.75455197083335,168.92840109166667,58.0,83.0
898,168.75455197083335,169.31282802083336,65.0,87.0
899,169.04838147083336,169.3152766,58.0,81.0
900,166.99157497083334,169.34221097083335,46.0,86.0
901,169.04838147083336,169.34221097083335,53.0,88.0
902,169.34221097083335,169.48300427291667,58.0,82.0
903,169.34221097083335,169.6446104979167,63.0,86.0
904,169.63604047083334,169.75479656041668,58.0,82.0
905,169.34221097083335,170.19309223125,51.0,91.0
906,169.92986997083335,170.26042815833335,62.0,91.0
907,170.22369947083334,170.59955637291668,58.0,85.0
908,170.51752897083335,170.82604994583335,63.0,86.0
909,170.81135847083334,170.99377761875002,58.0,84.0
910,170.51752897083335,171.3206629375,51.0,82.0
911,171.10518797083336,171.40513891875003,62.0,92.0
912,171.39901747083334,171.6169410166667,63.0,85.0
913,171.69284697083336,172.02462944791668,62.0,87.0
914,171.98667647083334,172.15930130208335,58.0,86.0
915,172.28050597083336,172.58290549791667,62.0,92.0
916,172.57433547083335,172.74083885416667,58.0,86.0
917,171.69284697083336,172.9954910875,46.0,87.0
918,172.86816497083333,173.16934020833335,62.0,88.0
919,172.86816497083333,173.17301307708334,58.0,86.0
920,172.86816497083333,173.1742373666667,65.0,91.0
921,173.16199447083335,173.56601003333336,53.0,78.0
922,173.45582397083336,173.6957847291667,58.0,86.0
923,173.45582397083336,173.75822349791667,62.0,92.0
924,173.74965347083335,173.90391395833336,50.0,84.0
925,174.04348297083334,174.35077965625,60.0,79.0
926,174.04348297083334,174.354452525,63.0,85.0
927,174.33731247083335,174.6874592916667,55.0,72.0
928,174.63114197083337,174.9372143666667,58.0,82.0
929,174.63114197083337,175.03760611250001,62.0,85.0
930,174.92497147083336,175.39142580208335,55.0,78.0
931,175.21880097083334,175.617919375,60.0,85.0
932,175.21880097083334,175.62159224375,63.0,89.0
933,175.51263047083336,175.84074007916666,55.0,85.0
934,175.80645997083334,175.98398196041668,58.0,86.0
935,175.80645997083334,175.98765482916667,62.0,87.0
936,174.04348297083334,176.10273805000003,48.0,89.0
937,176.10028947083333,176.40513757708334,63.0,84.0
938,176.39411897083335,176.7124342625,58.0,77.0
939,176.39411897083335,176.73447147500002,62.0,88.0
940,176.68794847083336,177.05768392500002,53.0,77.0
941,176.98177797083335,177.24500023125,65.0,88.0
942,176.98177797083335,177.30866328958336,58.0,82.0
943,177.27560747083334,177.60494136875002,53.0,80.0
944,176.39411897083335,177.66615584791668,46.0,85.0
945,177.56943697083335,177.91835950208335,58.0,84.0
946,177.56943697083335,177.97222824375,62.0,91.0
947,177.86326647083337,178.26483345416668,53.0,78.0
948,178.15709597083335,178.32359935416667,58.0,86.0
949,178.15709597083335,178.49255131666666,62.0,91.0
950,178.45092547083334,178.59784022083335,46.0,85.0
951,178.45092547083334,178.62599888125,58.0,86.0
952,178.74475497083336,179.08878034375002,60.0,80.0
953,178.74475497083336,179.10224752916668,56.0,84.0
954,179.03858447083334,179.437702875,51.0,81.0
955,179.33241397083333,179.61644915416667,63.0,85.0
956,179.33241397083333,179.672766475,56.0,86.0
957,178.74475497083336,179.99230605625002,44.0,86.0
958,179.62624347083334,179.99475463541668,51.0,80.0
959,179.92007297083336,180.31674279583336,56.0,86.0
960,179.92007297083336,180.33143427083337,60.0,86.0
961,180.21390247083335,180.7232069375,51.0,79.0
962,180.50773197083333,180.7697299416667,56.0,88.0
963,180.50773197083333,180.87869171458334,60.0,87.0
964,180.80156147083335,180.97051343333334,44.0,85.0
965,181.09539097083336,181.36351038958335,62.0,79.0
966,181.09539097083336,181.57653677708333,58.0,78.0
967,181.38922047083335,181.76997453125,50.0,68.0
968,181.09539097083336,181.88873062083334,43.0,85.0
969,181.68304997083334,182.02095389583334,62.0,82.0
970,181.97687947083335,182.08584124375,58.0,66.0
971,181.97687947083335,182.10542987708334,50.0,80.0
972,181.68304997083334,182.14583143333334,65.0,87.0
973,182.27070897083337,182.5363798104167,60.0,85.0
974,182.27070897083337,182.54617412708336,63.0,81.0
975,182.56453847083336,182.91713387083337,55.0,81.0
976,182.85836797083334,182.99059124583334,60.0,85.0
977,182.27070897083337,183.04078711875002,48.0,85.0
978,182.85836797083334,183.22198197708335,67.0,86.0
979,182.85836797083334,183.23667345208335,63.0,86.0
980,183.15219747083336,183.3823639125,60.0,86.0
981,183.44602697083334,183.698230625,60.0,82.0
982,183.44602697083334,183.77046371041666,65.0,86.0
983,184.03368597083335,184.15856350833334,60.0,86.0
984,183.73985647083333,184.2258994354167,48.0,72.0
985,184.03368597083335,184.39240281875,68.0,85.0
986,184.32751547083336,184.49401885416668,60.0,86.0
987,184.62134497083335,184.81967988333335,60.0,81.0
988,184.62134497083335,184.96537034375,65.0,86.0
989,184.91517447083334,185.0706592479167,60.0,85.0
990,185.20900397083335,185.28735850416666,60.0,77.0
991,184.62134497083335,185.29592853125,48.0,78.0
992,183.44602697083334,185.30572284791668,41.0,87.0
993,185.20900397083335,185.43182467500003,65.0,89.0
994,185.20900397083335,185.4452918604167,68.0,85.0
995,185.50283347083337,185.65342108958333,60.0,86.0
996,185.79666297083335,186.12599686875,58.0,85.0
997,185.79666297083335,186.1578283979167,62.0,79.0
998,186.38432197083335,186.54225532708335,62.0,86.0
999,186.38432197083335,186.73079592291668,65.0,86.0
1000,186.67815147083337,186.80302900833334,58.0,89.0
1001,186.09049247083334,187.06625126875002,53.0,80.0
1002,186.97198097083333,187.15929727708334,58.0,92.0
1003,186.97198097083333,187.30621202708335,70.0,86.0
1004,186.97198097083333,187.31355776458335,62.0,94.0
1005,187.26581047083334,187.400482325,58.0,75.0
1006,187.26581047083334,187.6575831375,53.0,87.0
1007,187.55963997083336,187.73348909166668,58.0,83.0
1008,187.55963997083336,188.11791602083335,65.0,87.0
1009,187.85346947083335,188.12036460000002,58.0,81.0
1010,185.79666297083335,188.14729897083333,46.0,86.0
1011,187.85346947083335,188.14729897083333,53.0,88.0
1012,188.14729897083333,188.28809227291669,58.0,82.0
1013,188.14729897083333,188.4496984979167,63.0,86.0
1014,188.44112847083335,188.55988456041666,58.0,82.0
1015,188.14729897083333,188.99818023125002,51.0,91.0
1016,188.73495797083336,189.06551615833337,62.0,91.0
1017,189.02878747083335,189.40464437291666,58.0,85.0
1018,189.32261697083334,189.63113794583336,63.0,86.0
1019,189.61644647083335,189.79886561875003,58.0,84.0
1020,189.32261697083334,190.12575093750002,51.0,82.0
1021,189.91027597083337,190.21022691875,62.0,92.0
1022,190.20410547083335,190.42202901666667,63.0,85.0
1023,190.49793497083334,190.82971744791666,62.0,87.0
1024,190.79176447083336,190.96438930208336,58.0,86.0
1025,191.08559397083334,191.38799349791668,62.0,92.0
1026,191.37942347083333,191.54592685416668,58.0,86.0
1027,190.49793497083334,191.8005790875,46.0,87.0
1028,191.67325297083335,191.97442820833334,62.0,88.0
1029,191.67325297083335,191.97810107708335,58.0,86.0
1030,191.67325297083335,191.97932536666667,65.0,91.0
1031,191.96708247083336,192.37109803333334,53.0,78.0
1032,192.26091197083335,192.5008727291667,58.0,86.0
1033,192.26091197083335,192.5633114979167,62.0,92.0
1034,192.55474147083333,192.70900195833335,50.0,84.0
1035,192.84857097083335,193.15586765625,60.0,79.0
1036,192.84857097083335,193.159540525,63.0,85.0
1037,193.14240047083337,193.49254729166668,55.0,72.0
1038,193.43622997083335,193.74230236666668,58.0,82.0
1039,193.43622997083335,193.8426941125,62.0,85.0
1040,193.73005947083334,194.19651380208336,55.0,78.0
1041,194.02388897083335,194.423007375,60.0,85.0
1042,194.02388897083335,194.42668024375,63.0,89.0
1043,194.31771847083337,194.64582807916668,55.0,85.0
1044,194.61154797083336,194.78906996041667,58.0,86.0
1045,194.61154797083336,194.79274282916668,62.0,87.0
1046,192.84857097083335,194.90782605,48.0,89.0
1047,194.90537747083334,195.21022557708335,63.0,84.0
1048,195.19920697083336,195.51752226250002,58.0,77.0
1049,195.19920697083336,195.53955947500003,62.0,88.0
1050,195.49303647083335,195.862771925,53.0,77.0
1051,195.78686597083333,196.05008823125002,65.0,88.0
1052,195.78686597083333,196.11375128958335,58.0,82.0
1053,196.08069547083335,196.41002936875003,53.0,80.0
1054,195.19920697083336,196.4712438479167,46.0,85.0
1055,196.37452497083336,196.72344750208333,58.0,84.0
1056,196.37452497083336,196.77731624375002,62.0,91.0
1057,196.66835447083335,197.0699214541667,53.0,78.0
1058,196.96218397083334,197.1286873541667,58.0,86.0
1059,196.96218397083334,197.29763931666668,62.0,91.0
1060,197.25601347083335,197.40292822083336,46.0,85.0
1061,197.25601347083335,197.43108688125,58.0,86.0
1062,197.54984297083337,197.89386834375,60.0,80.0
1063,197.54984297083337,197.9073355291667,56.0,84.0
1064,197.84367247083335,198.24279087500003,51.0,81.0
1065,198.13750197083334,198.42153715416669,63.0,85.0
1066,198.13750197083334,198.47785447500002,56.0,86.0
1067,197.54984297083337,198.79739405625003,44.0,86.0
1068,198.43133147083336,198.79984263541667,51.0,80.0
1069,198.72516097083334,199.12183079583335,56.0,86.0
1070,198.72516097083334,199.13652227083335,60.0,86.0
1071,199.01899047083333,199.52829493750002,51.0,79.0
1072,199.31281997083335,199.57481794166668,56.0,88.0
1073,199.31281997083335,199.68377971458335,60.0,87.0
1074,199.60664947083336,199.77560143333335,44.0,85.0
1075,199.90047897083335,200.16859838958334,62.0,79.0
1076,199.90047897083335,200.38162477708335,58.0,78.0
1077,200.19430847083333,200.57506253125,50.0,68.0
1078,199.90047897083335,200.69381862083335,43.0,85.0
1079,200.48813797083335,200.82604189583336,62.0,82.0
1080,200.78196747083337,200.89092924375,58.0,66.0
1081,200.78196747083337,200.91051787708335,50.0,80.0
1082,200.48813797083335,200.95091943333335,65.0,87.0
1083,201.07579697083335,201.3414678104167,60.0,85.0
1084,201.07579697083335,201.35126212708334,63.0,81.0
1085,201.36962647083334,201.72222187083335,55.0,81.0
1086,201.66345597083335,201.79567924583336,60.0,85.0
1087,201.07579697083335,201.84587511875003,48.0,85.0
1088,201.66345597083335,202.02706997708333,67.0,86.0
1089,201.66345597083335,202.04176145208334,63.0,86.0
1090,201.95728547083337,202.18745191250002,60.0,86.0
1091,202.25111497083336,202.50331862500002,60.0,82.0
1092,202.25111497083336,202.57555171041668,65.0,86.0
1093,202.83877397083336,202.96365150833336,60.0,86.0
1094,202.54494447083334,203.03098743541668,48.0,72.0
1095,202.83877397083336,203.19749081875,68.0,85.0
1096,203.13260347083335,203.29910685416667,60.0,86.0
1097,203.42643297083333,203.62476788333333,60.0,81.0
1098,203.42643297083333,203.77045834375002,65.0,86.0
1099,203.72026247083335,203.87574724791668,60.0,85.0
1100,204.01409197083336,204.09244650416667,60.0,77.0
1101,203.42643297083333,204.10101653125002,48.0,78.0
1102,202.25111497083336,204.1108108479167,41.0,87.0
1103,204.01409197083336,204.236912675,65.0,89.0
1104,204.01409197083336,204.25037986041667,68.0,85.0
1105,204.30792147083335,204.45850908958334,60.0,86.0
1106,204.60175097083334,204.93108486875002,58.0,85.0
1107,204.60175097083334,204.96291639791667,62.0,79.0
1108,205.18940997083337,205.34734332708337,62.0,86.0
1109,205.18940997083337,205.5358839229167,65.0,86.0
1110,205.48323947083335,205.60811700833335,58.0,89.0
1111,204.89558047083335,205.87133926875003,53.0,80.0
1112,205.77706897083334,205.96438527708335,58.0,92.0
1113,205.77706897083334,206.11130002708336,70.0,86.0
1114,205.77706897083334,206.11864576458333,62.0,94.0
1115,206.07089847083336,206.205570325,58.0,75.0
1116,206.07089847083336,206.46267113750002,53.0,87.0
1117,206.36472797083337,206.5385770916667,58.0,83.0
1118,206.36472797083337,206.92300402083333,65.0,87.0
1119,206.65855747083333,206.92545260000003,58.0,81.0
1120,204.60175097083334,206.95238697083335,46.0,86.0
1121,206.65855747083333,206.95238697083335,53.0,88.0
1122,206.95238697083335,207.0931802729167,58.0,82.0
1123,206.95238697083335,207.25478649791668,63.0,86.0
1124,207.24621647083336,207.36497256041667,58.0,82.0
1125,206.95238697083335,207.80326823125,51.0,91.0
1126,207.54004597083335,207.87060415833335,62.0,91.0
1127,207.83387547083333,208.20973237291668,58.0,85.0
1128,208.12770497083335,208.43622594583337,63.0,86.0
1129,208.42153447083336,208.60395361875,58.0,84.0
1130,208.12770497083335,208.93083893750003,51.0,82.0
1131,208.71536397083335,209.01531491875002,62.0,92.0
1132,209.00919347083334,209.22711701666668,63.0,85.0
1133,209.30302297083335,209.63480544791668,62.0,87.0
1134,209.59685247083337,209.76947730208335,58.0,86.0
1135,209.89068197083336,210.1930814979167,62.0,92.0
1136,210.18451147083334,210.3510148541667,58.0,86.0
1137,209.30302297083335,210.60566708750002,46.0,87.0
1138,210.47834097083336,210.77951620833335,62.0,88.0
1139,210.47834097083336,210.78318907708336,58.0,86.0
1140,210.47834097083336,210.78441336666668,65.0,91.0
1141,210.77217047083334,211.17618603333335,53.0,78.0
1142,211.06599997083333,211.30596072916669,58.0,86.0
1143,211.06599997083333,211.3683994979167,62.0,92.0
1144,211.35982947083335,211.51408995833333,50.0,84.0
1145,211.65365897083336,211.96095565625,60.0,79.0
1146,211.65365897083336,211.96462852500002,63.0,85.0
1147,211.94748847083335,212.29763529166667,55.0,72.0
1148,212.24131797083334,212.5473903666667,58.0,82.0
1149,212.24131797083334,212.6477821125,62.0,85.0
1150,212.53514747083335,213.00160180208337,55.0,78.0
1151,212.82897697083337,213.228095375,60.0,85.0
1152,212.82897697083337,213.23176824375003,63.0,89.0
1153,213.12280647083335,213.4509160791667,55.0,85.0
1154,213.41663597083334,213.59415796041668,58.0,86.0
1155,213.41663597083334,213.5978308291667,62.0,87.0
1156,211.65365897083336,213.71291405000002,48.0,89.0
1157,213.71046547083336,214.01531357708336,63.0,84.0
1158,214.00429497083337,214.3226102625,58.0,77.0
1159,214.00429497083337,214.34464747500002,62.0,88.0
1160,214.29812447083336,214.66785992500002,53.0,77.0
1161,214.59195397083334,214.85517623125003,65.0,88.0
1162,214.59195397083334,214.91883928958333,58.0,82.0
1163,214.88578347083336,215.21511736875001,53.0,80.0
1164,214.00429497083337,215.27633184791668,46.0,85.0
1165,215.17961297083335,215.52853550208334,58.0,84.0
1166,215.17961297083335,215.58240424375003,62.0,91.0
1167,215.47344247083333,215.87500945416667,53.0,78.0
1168,215.76727197083335,215.9337753541667,58.0,86.0
1169,215.76727197083335,216.1027273166667,62.0,91.0
1170,216.06110147083336,216.20801622083337,46.0,85.0
1171,216.06110147083336,216.23617488125,58.0,86.0
1172,216.35493097083335,216.69895634375,60.0,80.0
1173,216.35493097083335,216.7124235291667,56.0,84.0
1174,216.64876047083334,217.04787887500004,51.0,81.0
1175,216.94258997083335,217.2266251541667,63.0,85.0
1176,216.94258997083335,217.28294247500003,56.0,86.0
1177,216.35493097083335,217.60248205625,44.0,86.0
1178,217.23641947083337,217.60493063541668,51.0,80.0
1179,217.53024897083336,217.92691879583333,56.0,86.0
1180,217.53024897083336,217.94161027083334,60.0,86.0
1181,217.82407847083334,218.3333829375,51.0,79.0
1182,218.11790797083336,218.37990594166666,56.0,88.0
1183,218.11790797083336,218.48886771458336,60.0,87.0
1184,218.41173747083334,218.58068943333336,44.0,85.0
1185,218.70556697083333,218.97368638958335,62.0,79.0
1186,218.70556697083333,219.18671277708336,58.0,78.0
1187,218.99939647083335,219.38015053125002,50.0,68.0
1188,218.70556697083333,219.49890662083334,43.0,85.0
1189,219.29322597083336,219.63112989583334,62.0,82.0
1190,219.58705547083335,219.69601724375002,58.0,66.0
1191,219.58705547083335,219.71560587708336,50.0,80.0
1192,219.29322597083336,219.75600743333337,65.0,87.0
1193,219.88088497083334,220.1465558104167,60.0,85.0
1194,219.88088497083334,220.15635012708336,63.0,81.0
1195,220.17471447083335,220.52730987083334,55.0,81.0
1196,220.46854397083337,220.60076724583337,60.0,85.0
1197,219.88088497083334,220.65096311875,48.0,85.0
1198,220.46854397083337,220.83215797708334,67.0,86.0
1199,220.46854397083337,220.84684945208335,63.0,86.0
1200,220.76237347083335,220.99253991250004,60.0,86.0
1201,221.05620297083334,221.30840662500003,60.0,82.0
1202,221.05620297083334,221.3806397104167,65.0,86.0
1203,221.64386197083337,221.76873950833334,60.0,86.0
1204,221.35003247083336,221.8360754354167,48.0,72.0
1205,221.64386197083337,222.00257881875,68.0,85.0
1206,221.93769147083336,222.10419485416668,60.0,86.0
1207,222.23152097083334,222.42985588333335,60.0,81.0
1208,222.23152097083334,222.57554634375003,65.0,86.0
1209,222.52535047083336,222.6808352479167,60.0,85.0
1210,222.81917997083335,222.89753450416669,60.0,77.0
1211,222.23152097083334,222.90610453125004,48.0,78.0
1212,221.05620297083334,222.91589884791668,41.0,87.0
1213,222.81917997083335,223.042000675,65.0,89.0
1214,222.81917997083335,223.05546786041668,68.0,85.0
1215,223.11300947083333,223.26359708958336,60.0,86.0
1216,223.40683897083335,223.73617286875003,58.0,85.0
1217,223.40683897083335,223.76800439791668,62.0,79.0
1218,223.99449797083335,224.15243132708335,62.0,86.0
1219,223.99449797083335,224.34097192291668,65.0,86.0
1220,224.28832747083334,224.41320500833336,58.0,89.0
1221,223.70066847083336,224.67642726875002,53.0,80.0
1222,224.58215697083335,224.76947327708336,58.0,92.0
1223,224.58215697083335,224.91638802708337,70.0,86.0
1224,224.58215697083335,224.92373376458335,62.0,94.0
1225,224.87598647083337,225.010658325,58.0,75.0
1226,224.87598647083337,225.26775913750004,53.0,87.0
1227,225.16981597083335,225.34366509166668,58.0,83.0
1228,225.16981597083335,225.72809202083334,65.0,87.0
1229,225.46364547083334,225.7305406,58.0,81.0
1230,225.64973748750003,225.7305406,58.0,70.0
1231,223.40683897083335,225.75747497083336,46.0,86.0
1232,225.46364547083334,225.75747497083336,53.0,88.0
1233,225.73788633750002,226.74792524375002,63.0,78.0
1234,225.83215663541668,226.76384100833337,67.0,73.0
1235,225.70605480833336,226.7650652979167,39.0,86.0
