,start,end,pitch,velocity
0,19.3965375,19.797399275,65.0,112.0
1,19.887916450000002,20.239209295833334,67.0,86.0
2,20.40515745,21.168087925000002,74.0,98.0
3,21.43963945,21.732742683333335,74.0,90.0
4,21.95688045,22.11205275,72.0,98.0
5,22.21550095,22.896534933333335,70.0,86.0
6,24.02584445,24.22412016666667,74.0,98.0
7,24.28446495,24.409464858333333,77.0,90.0
8,24.54308545,24.797395608333336,79.0,112.0
9,25.06032645,25.331877975,79.0,111.0
10,25.57756745,25.803860387500002,79.0,111.0
11,26.094808450000002,26.277997970833333,77.0,98.0
12,26.35342895,26.8900664875,74.0,79.0
13,28.681013450000002,28.915927070833334,82.0,114.0
14,29.19825445,29.306012991666666,79.0,104.0
15,29.45687495,30.036615904166666,79.0,104.0
16,30.49135695,30.603425833333336,77.0,98.0
17,30.749977450000003,30.98704624166667,79.0,100.0
18,31.26721845,31.368511479166667,77.0,98.0
19,31.52583895,31.915924870833333,77.0,95.0
20,32.30170045,32.394372795833334,74.0,98.0
21,32.560320950000005,32.65945880833333,74.0,85.0
22,32.818941450000004,33.584027095833335,72.0,98.0
23,33.85342345,34.18747492916667,72.0,104.0
24,34.37066445,34.62497460833333,70.0,54.0
25,34.88790545,35.288767225,72.0,87.0
26,36.95686945,37.241352,77.0,93.0
27,37.474110450000005,37.726265437500004,77.0,76.0
28,37.99135145,38.219799558333335,77.0,83.0
29,38.7995405125,38.9547128125,65.0,87.0
30,39.02583345,39.711177775,67.0,70.0
31,41.09479745,41.31678004583333,72.0,79.0
32,41.61203845,41.70686596666667,72.0,77.0
33,41.87065895,42.394365462500005,72.0,81.0
34,42.646520450000004,42.924537487500004,70.0,69.0
35,43.16376145,43.8943643625,67.0,90.0
36,45.232725450000004,45.43962185,72.0,87.0
37,45.74996645,45.840483625000005,72.0,79.0
38,46.00858695,46.08832827083334,72.0,67.0
39,46.26720745,46.3447936,72.0,75.0
40,46.52582795,46.616345125,72.0,69.0
41,46.78444845,46.89867250416667,70.0,73.0
42,47.04306895,47.1659136875,72.0,79.0
43,47.301689450000005,47.439620383333335,70.0,76.0
44,47.560309950000004,47.838326987500004,70.0,74.0
45,48.07755095,48.198240516666665,70.0,85.0
46,48.33617145,48.61849882916667,70.0,81.0
47,48.85341245,49.140050170833334,67.0,83.0
48,49.37065345,51.400824375,65.0,90.0
49,52.99134045,53.19608167916667,74.0,100.0
50,53.24996095,53.36418500416667,72.0,62.0
51,53.50858145,56.103407133333334,74.0,111.0
52,56.35340695,56.465475833333336,74.0,87.0
53,56.61202745,56.756423895833336,74.0,85.0
54,56.870647950000006,56.97840649166667,77.0,98.0
55,57.129268450000005,57.2779752375,77.0,104.0
56,57.387888950000004,57.504268175,82.0,76.0
57,57.64650945,57.99349195416667,79.0,108.0
58,58.16375045,58.45900885416667,79.0,98.0
59,58.68099145,58.887887850000006,79.0,108.0
60,59.19823245,59.342628895833336,77.0,104.0
61,59.456852950000005,60.84478296666667,74.0,72.0
62,61.784437450000006,62.03443726666667,82.0,87.0
63,62.301678450000004,62.40081630833333,79.0,90.0
64,62.56029895,62.66374715,79.0,93.0
65,62.81891945,62.9999538,79.0,90.0
66,63.33616045,63.446074162500004,77.0,98.0
67,63.59478095,63.72840154166667,77.0,93.0
68,63.85340145,64.073228875,79.0,100.0
69,64.37064245,64.46331479583334,77.0,95.0
70,64.37064245,64.46331479583334,77.0,104.0
71,64.62926295,64.70469392916667,77.0,111.0
72,64.88788345,65.00210750416667,77.0,114.0
73,65.40512445,65.70684836666666,77.0,81.0
74,65.66374495000001,66.01719296666667,74.0,70.0
75,66.18098595000001,66.83400271250001,72.0,74.0
76,70.06029345,70.38572424583333,77.0,83.0
77,70.57753445,70.67882747916667,77.0,68.0
78,70.83615495000001,71.19391330833334,77.0,83.0
79,71.87063695,72.01718856666668,65.0,85.0
80,72.12925745,72.969774075,67.0,87.0
81,74.19822145,74.56029015,72.0,86.0
82,74.71546245,74.999945,74.0,93.0
83,75.23270345,75.46115155833334,72.0,93.0
84,75.49132395000001,75.81244440416667,70.0,93.0
85,76.26718545,77.728391275,67.0,86.0
86,77.81890845000001,77.9158911375,67.0,81.0
87,78.07752895,78.20468402916667,67.0,77.0
88,78.33614945000001,78.633563025,65.0,104.0
89,78.85339045,78.95683865000001,77.0,108.0
90,79.11201095,79.20683846666667,77.0,108.0
91,79.37063145,79.59045887500001,77.0,112.0
92,79.88787245,80.21976875833333,74.0,114.0
93,80.40511345,80.90080274166667,72.0,114.0
94,80.92235445,81.72838834166667,67.0,83.0
95,81.69821595,81.72838834166667,67.0,74.0
96,81.95683645,82.280112075,72.0,98.0
97,82.47407745000001,85.4676097375,70.0,93.0
98,85.83614395000001,85.91804044166668,77.0,79.0
99,86.09476445,86.237005725,79.0,76.0
100,86.35338495,86.43743661250001,77.0,90.0
101,86.61200545,86.89864317083334,79.0,81.0
102,86.87062595,86.961143125,77.0,104.0
103,87.12924645,87.21760845416667,77.0,93.0
104,87.12924645,87.21760845416667,77.0,95.0
105,87.38786695,87.4719186125,77.0,104.0
106,87.64648745000001,88.03657337083334,79.0,95.0
107,88.16372845000001,88.43096963333333,77.0,114.0
108,88.68096945,88.83614175000001,79.0,86.0
109,88.93958995,89.04088297916667,77.0,98.0
110,89.19821045,89.32536552916667,74.0,79.0
111,89.45683095,89.63355495833333,77.0,114.0
112,89.97407195000001,90.08614083333333,77.0,87.0
113,90.23269245,90.37062338333334,77.0,90.0
114,90.49131295000001,90.6012266625,79.0,98.0
115,90.74993345,90.9245022875,82.0,90.0
116,91.00855395,91.10553663750001,79.0,83.0
117,91.26717445,91.3641571375,79.0,90.0
118,91.52579495,91.62277763750001,79.0,93.0
119,91.78441545,92.03441526666667,77.0,100.0
120,92.56027695,92.702518225,72.0,72.0
121,92.81889745000001,94.80812012916667,74.0,95.0
122,94.88786145,95.18743019583334,82.0,71.0
123,95.40510245,95.50639547916667,79.0,86.0
124,95.66372295000001,95.76286080833334,79.0,87.0
125,95.92234345,96.1486363875,79.0,93.0
126,96.43958445,96.5494981625,79.0,90.0
127,96.69820495,96.82104968750001,79.0,93.0
128,96.95682545000001,97.22622180416667,77.0,111.0
129,97.21544595,97.30811829583334,74.0,73.0
130,97.47406645000001,97.56889396666666,74.0,86.0
131,97.73268695,97.9137213,74.0,90.0
132,98.24992795,98.38354854166667,67.0,62.0
133,98.50854845,98.68311728750001,67.0,67.0
134,98.76716895,98.92665159166667,70.0,70.0
135,99.02578945,99.29303063333333,72.0,90.0
136,99.54303045,99.95682325,74.0,86.0
137,100.06027145,100.26285750833334,72.0,93.0
138,100.31889195000001,100.5839779625,72.0,100.0
139,100.83613295,100.99777076250001,67.0,83.0
140,101.09475345,102.30164911666667,72.0,108.0
141,102.38785595,102.50639034583334,77.0,111.0
142,102.64647645000001,102.79733840833333,79.0,111.0
143,102.90509695,103.01285549166667,77.0,98.0
144,103.16371745000001,103.28871735833334,79.0,111.0
145,103.42233795,103.512855125,77.0,95.0
146,103.68095845,103.77363079583334,77.0,86.0
147,103.93957895,104.05164783333333,77.0,111.0
148,104.19819945,104.48052682916668,79.0,108.0
149,104.71544045,104.85983689583334,77.0,93.0
150,105.23268145,105.45035370416667,79.0,114.0
151,105.49130195000001,105.74776727916667,77.0,70.0
152,105.74992245,105.92664645833334,74.0,74.0
153,106.00854295,106.2930255,77.0,111.0
154,106.52578395,106.66155971250001,77.0,75.0
155,106.78440445000001,106.92880089583333,77.0,70.0
156,107.04302495,107.16155934583334,79.0,83.0
157,107.30164545000001,107.59043834166667,82.0,111.0
158,107.56026595,107.65509346666667,79.0,100.0
159,107.81888645000001,107.90509328333334,79.0,111.0
160,108.07750695,108.193886175,79.0,114.0
161,108.33612745,108.70035132083333,77.0,111.0
162,109.11198895000001,109.2477647125,72.0,81.0
163,109.37060945,110.90078074166667,74.0,86.0
164,111.43957345,111.55164233333333,82.0,98.0
165,111.69819395,111.78440078333334,79.0,98.0
166,111.95681445000001,112.04302128333333,79.0,93.0
167,112.21543495,112.3124176375,79.0,104.0
168,112.47405545000001,112.668020825,79.0,104.0
169,112.99129645000001,113.24560660833333,79.0,112.0
170,113.50853745,113.62922701666668,77.0,122.0
171,113.76715795,113.8641406375,74.0,81.0
172,114.02577845,114.11845079583334,74.0,93.0
173,114.28439895000001,114.40293334583333,74.0,111.0
174,114.80163995000001,114.91586400416666,67.0,68.0
175,115.06026045,115.21112240833334,67.0,77.0
176,115.31888095000001,115.44819120000001,70.0,74.0
177,115.57750145,115.95034600416668,74.0,77.0
178,116.09474245,116.40939739166667,72.0,104.0
179,116.61198345000001,118.3964649,72.0,108.0
180,118.68094745,118.84905077500001,72.0,81.0
181,118.93956795000001,119.5925847125,74.0,90.0
182,121.26715245000001,121.62922115,67.0,77.0
183,121.78439345000001,124.02792628750001,70.0,93.0
184,141.95679245,142.16153367916667,74.0,100.0
185,142.21541295,142.32963700416667,72.0,62.0
186,142.47403345,145.06885913333335,74.0,111.0
187,145.31885895,145.43092783333333,74.0,87.0
188,145.57747945,145.72187589583334,74.0,85.0
189,145.83609995,145.94385849166667,77.0,98.0
190,146.09472045,146.24342723750001,77.0,104.0
191,146.35334095000002,146.469720175,82.0,76.0
192,146.61196145,146.95894395416667,79.0,108.0
193,147.12920245,147.42446085416668,79.0,98.0
194,147.64644345,147.85333985,79.0,108.0
195,148.16368445,148.30808089583334,77.0,104.0
196,148.42230495,149.81023496666668,74.0,72.0
197,150.74988945,150.99988926666668,82.0,87.0
198,151.26713045,151.36626830833333,79.0,90.0
199,151.52575095,151.62919915,79.0,93.0
200,151.78437145,151.9654058,79.0,90.0
201,152.30161245,152.4115261625,77.0,98.0
202,152.56023295,152.69385354166667,77.0,93.0
203,152.81885345,153.038680875,79.0,100.0
204,153.33609445000002,153.42876679583333,77.0,95.0
205,153.33609445000002,153.42876679583333,77.0,104.0
206,153.59471495,153.67014592916667,77.0,111.0
207,153.85333545,153.96755950416667,77.0,114.0
208,154.37057645000002,154.67230036666666,77.0,81.0
209,154.62919695,154.98264496666667,74.0,70.0
210,155.14643795,155.7994547125,72.0,74.0
211,159.02574545000002,159.35117624583333,77.0,83.0
212,159.54298645,159.64427947916667,77.0,68.0
213,159.80160695,160.15936530833335,77.0,83.0
214,160.83608895,160.98264056666667,65.0,85.0
215,161.09470945,161.935226075,67.0,87.0
216,163.16367345,163.52574215,72.0,86.0
217,163.68091445000002,163.965397,74.0,93.0
218,164.19815545,164.42660355833334,72.0,93.0
219,164.45677595,164.77789640416668,70.0,93.0
220,165.23263745,166.693843275,67.0,86.0
221,166.78436045,166.8813431375,67.0,81.0
222,167.04298095000001,167.17013602916668,67.0,77.0
223,167.30160145,167.599015025,65.0,104.0
224,167.81884245,167.92229065,77.0,108.0
225,168.07746295,168.17229046666668,77.0,108.0
226,168.33608345000002,168.555910875,77.0,112.0
227,168.85332445,169.18522075833334,74.0,114.0
228,169.37056545000002,169.86625474166667,72.0,114.0
229,169.88780645,170.6938403416667,67.0,83.0
230,170.66366795000002,170.6938403416667,67.0,74.0
231,170.92228845,171.245564075,72.0,98.0
232,171.43952945,174.4330617375,70.0,93.0
233,174.80159595,174.88349244166668,77.0,79.0
234,175.06021645,175.20245772500002,79.0,76.0
235,175.31883695000002,175.4028886125,77.0,90.0
236,175.57745745,175.86409517083334,79.0,81.0
237,175.83607795,175.926595125,77.0,104.0
238,176.09469845,176.18306045416668,77.0,93.0
239,176.09469845,176.18306045416668,77.0,95.0
240,176.35331895000002,176.43737061250002,77.0,104.0
241,176.61193945,177.00202537083334,79.0,95.0
242,177.12918045,177.39642163333335,77.0,114.0
243,177.64642145000002,177.80159375,79.0,86.0
244,177.90504195,178.00633497916667,77.0,98.0
245,178.16366245,178.29081752916667,74.0,79.0
246,178.42228295,178.59900695833335,77.0,114.0
247,178.93952395,179.05159283333333,77.0,87.0
248,179.19814445,179.33607538333334,77.0,90.0
249,179.45676495,179.5666786625,79.0,98.0
250,179.71538545,179.88995428750002,82.0,90.0
251,179.97400595000002,180.0709886375,79.0,83.0
252,180.23262645,180.3296091375,79.0,90.0
253,180.49124695,180.5882296375,79.0,93.0
254,180.74986745,180.99986726666668,77.0,100.0
255,181.52572895,181.667970225,72.0,72.0
256,181.78434945,183.77357212916667,74.0,95.0
257,183.85331345,184.15288219583334,82.0,71.0
258,184.37055445000001,184.47184747916668,79.0,86.0
259,184.62917495000002,184.72831280833333,79.0,87.0
260,184.88779545,185.1140883875,79.0,93.0
261,185.40503645,185.5149501625,79.0,90.0
262,185.66365695000002,185.78650168750002,79.0,93.0
263,185.92227745,186.19167380416667,77.0,111.0
264,186.18089795,186.27357029583334,74.0,73.0
265,186.43951845,186.53434596666668,74.0,86.0
266,186.69813895000001,186.87917330000002,74.0,90.0
267,187.21537995,187.34900054166667,67.0,62.0
268,187.47400045,187.6485692875,67.0,67.0
269,187.73262095,187.89210359166668,70.0,70.0
270,187.99124145000002,188.25848263333333,72.0,90.0
271,188.50848245,188.92227525,74.0,86.0
272,189.02572345000002,189.22830950833335,72.0,93.0
273,189.28434395000002,189.5494299625,72.0,100.0
274,189.80158495,189.9632227625,67.0,83.0
275,190.06020545,191.26710111666668,72.0,108.0
276,191.35330795000002,191.47184234583335,77.0,111.0
277,191.61192845,191.76279040833333,79.0,111.0
278,191.87054895,191.97830749166667,77.0,98.0
279,192.12916945,192.25416935833334,79.0,111.0
280,192.38778995,192.47830712500001,77.0,95.0
281,192.64641045000002,192.73908279583335,77.0,86.0
282,192.90503095,193.01709983333333,77.0,111.0
283,193.16365145,193.44597882916668,79.0,108.0
284,193.68089245000002,193.82528889583335,77.0,93.0
285,194.19813345,194.41580570416667,79.0,114.0
286,194.45675395,194.71321927916668,77.0,70.0
287,194.71537445,194.89209845833335,74.0,74.0
288,194.97399495000002,195.2584775,77.0,111.0
289,195.49123595,195.6270117125,77.0,75.0
290,195.74985645,195.89425289583335,77.0,70.0
291,196.00847695000002,196.12701134583335,79.0,83.0
292,196.26709745,196.55589034166667,82.0,111.0
293,196.52571795,196.62054546666667,79.0,100.0
294,196.78433845,196.87054528333334,79.0,111.0
295,197.04295895,197.15933817500002,79.0,114.0
296,197.30157945000002,197.66580332083333,77.0,111.0
297,198.07744095,198.2132167125,72.0,81.0
298,198.33606145000002,199.86623274166666,74.0,86.0
299,200.40502545,200.51709433333335,82.0,98.0
300,200.66364595000002,200.74985278333335,79.0,98.0
301,200.92226645,201.00847328333333,79.0,93.0
302,201.18088695,201.2778696375,79.0,104.0
303,201.43950745,201.633472825,79.0,104.0
304,201.95674845000002,202.21105860833333,79.0,112.0
305,202.47398945,202.59467901666667,77.0,122.0
306,202.73260995,202.8295926375,74.0,81.0
307,202.99123045000002,203.08390279583335,74.0,93.0
308,203.24985095,203.36838534583333,74.0,111.0
309,203.76709195,203.88131600416668,67.0,68.0
310,204.02571245000001,204.17657440833335,67.0,77.0
311,204.28433295000002,204.4136432,70.0,74.0
312,204.54295345,204.91579800416667,74.0,77.0
313,205.06019445,205.3748493916667,72.0,104.0
314,205.57743545,207.3619169,72.0,108.0
315,207.64639945000002,207.814502775,72.0,81.0
316,207.90501995,208.5580367125,74.0,90.0
317,210.23260445,210.59467315,67.0,77.0
318,210.74984545,211.78432745,70.0,93.0
319,212.04294795,212.12484444166668,77.0,79.0
320,212.30156845000002,212.443809725,79.0,76.0
321,212.56018895,212.6442406125,77.0,90.0
322,212.81880945,213.10544717083334,79.0,81.0
323,213.07742995,213.167947125,77.0,104.0
324,213.33605045000002,213.42441245416668,77.0,93.0
325,213.33605045000002,213.42441245416668,77.0,95.0
326,213.59467095000002,213.6787226125,77.0,104.0
327,213.85329145,214.24337737083334,79.0,95.0
328,214.37053245,214.63777363333335,77.0,114.0
329,214.88777345,215.04294575,79.0,86.0
330,215.14639395,215.24768697916667,77.0,98.0
331,215.40501445,215.53216952916668,74.0,79.0
332,215.66363495000002,215.84035895833335,77.0,114.0
333,216.18087595,216.29294483333334,77.0,87.0
334,216.43949645,216.57742738333334,77.0,90.0
335,216.69811695,216.80803066250002,79.0,98.0
336,216.95673745000002,217.1313062875,82.0,90.0
337,217.21535795,217.3123406375,79.0,83.0
338,217.47397845,217.5709611375,79.0,90.0
339,217.73259895,217.8295816375,79.0,93.0
340,217.99121945000002,218.24121926666666,77.0,100.0
341,218.76708095,218.909322225,72.0,72.0
342,219.02570145,221.01492412916667,74.0,95.0
343,221.09466545,221.39423419583335,82.0,71.0
344,221.61190645000002,221.71319947916666,79.0,86.0
345,221.87052695,221.96966480833333,79.0,87.0
346,222.12914745,222.3554403875,79.0,93.0
347,222.64638845000002,222.75630216250002,79.0,90.0
348,222.90500895,223.0278536875,79.0,93.0
349,223.16362945,223.43302580416668,77.0,111.0
350,223.42224995,223.51492229583334,74.0,73.0
351,223.68087045000001,223.77569796666668,74.0,86.0
352,223.93949095000002,224.1205253,74.0,90.0
353,224.45673195,224.59035254166668,67.0,62.0
354,224.71535245,224.88992128750002,67.0,67.0
355,224.97397295000002,225.1334555916667,70.0,70.0
356,225.23259345,225.49983463333334,72.0,90.0
357,225.74983445,226.16362725000002,74.0,86.0
358,226.26707545000002,226.46966150833333,72.0,93.0
359,226.52569595,226.7907819625,72.0,100.0
360,227.04293695,227.20457476250002,67.0,83.0
361,227.30155745000002,228.5084531166667,72.0,108.0
362,228.59465995000002,228.71319434583333,77.0,111.0
363,228.85328045,229.00414240833334,79.0,111.0
364,229.11190095,229.21965949166668,77.0,98.0
365,229.37052145,229.49552135833335,79.0,111.0
366,229.62914195000002,229.71965912500002,77.0,95.0
367,229.88776245,229.98043479583333,77.0,86.0
368,230.14638295,230.25845183333334,77.0,111.0
369,230.40500345,230.68733082916668,79.0,108.0
370,230.92224445000002,231.06664089583333,77.0,93.0
371,231.43948545,231.65715770416668,79.0,114.0
372,231.69810595,231.9545712791667,77.0,70.0
373,231.95672645000002,232.13345045833333,74.0,74.0
374,232.21534695,232.4998295,77.0,111.0
375,232.73258795,232.8683637125,77.0,75.0
376,232.99120845000002,233.13560489583335,77.0,70.0
377,233.24982895000002,233.36836334583333,79.0,83.0
378,233.50844945,233.79724234166667,82.0,111.0
379,233.76706995,233.86189746666668,79.0,100.0
380,234.02569045,234.11189728333335,79.0,111.0
381,234.28431095000002,234.40069017500002,79.0,114.0
382,234.54293145,234.90715532083334,77.0,111.0
383,235.31879295000002,235.45456871250002,72.0,81.0
384,235.57741345000002,237.10758474166667,74.0,86.0
385,237.64637745000002,237.75844633333335,82.0,98.0
386,237.90499795000002,237.99120478333333,79.0,98.0
387,238.16361845,238.24982528333334,79.0,93.0
388,238.42223895,238.5192216375,79.0,104.0
389,238.68085945,238.87482482500002,79.0,104.0
390,239.19810045,239.45241060833334,79.0,112.0
391,239.71534145,239.83603101666668,77.0,122.0
392,239.97396195000002,240.07094463750002,74.0,81.0
393,240.23258245,240.32525479583333,74.0,93.0
394,240.49120295,240.60973734583334,74.0,111.0
395,241.00844395000001,241.12266800416668,67.0,68.0
396,241.26706445000002,241.41792640833333,67.0,77.0
397,241.52568495,241.6549952,70.0,74.0
398,241.78430545,242.15715000416668,74.0,77.0
399,242.30154645000002,242.61620139166666,72.0,104.0
400,242.81878745,244.60326890000002,72.0,108.0
401,244.88775145,245.055854775,72.0,81.0
402,245.40499245,246.6205088,74.0,90.0
403,247.47395645,248.47826605833333,67.0,77.0
404,248.76705895,250.68947133333333,70.0,93.0
