,start,end,pitch,velocity
0,38.319194083333336,38.44268779166667,75.0,110.0
1,38.68063908333333,38.96075895833334,77.0,90.0
2,39.042084083333336,39.34931233333334,78.0,119.0
3,39.40352908333333,39.7363596875,77.0,113.0
4,39.764974083333335,40.13846725,75.0,113.0
5,40.12641908333333,40.4456955,77.0,110.0
6,40.487864083333335,40.88093552083333,78.0,113.0
7,40.84930908333334,41.19870591666667,80.0,108.0
8,41.210754083333335,41.54810275,82.0,113.0
9,41.57219908333334,41.9321380625,78.0,113.0
10,41.933644083333334,42.3929804375,75.0,114.0
11,44.10231408333333,44.40050620833333,78.0,113.0
12,44.463759083333336,44.77249335416667,80.0,104.0
13,44.82520408333333,45.171588875000005,82.0,113.0
14,45.186649083333336,45.48032314583333,80.0,104.0
15,45.54809408333333,45.89598489583334,78.0,108.0
16,45.909539083333335,46.3056225625,80.0,104.0
17,46.27098408333333,46.58423641666667,82.0,108.0
18,46.632429083333335,46.99538010416667,80.0,91.0
19,46.99387408333334,47.34327091666667,78.0,104.0
20,47.355319083333335,47.69266775,80.0,100.0
21,47.71676408333334,48.392967437500005,82.0,113.0
22,49.88543408333334,50.18362620833334,82.0,114.0
23,50.24687908333333,50.570673562500005,85.0,113.0
24,50.608324083333336,51.017961750000005,87.0,113.0
25,51.331214083333336,51.49988841666667,78.0,107.0
26,51.69265908333333,51.905008020833336,82.0,102.0
27,52.054104083333335,52.38994672916667,80.0,107.0
28,52.776994083333335,53.05410191666667,80.0,107.0
29,53.13843908333334,53.49084795833333,82.0,98.0
30,53.499884083333335,53.671570458333335,85.0,108.0
31,53.86132908333334,54.02548535416667,73.0,87.0
32,54.222774083333334,54.42307485416667,73.0,93.0
33,54.58421908333334,54.81464027083334,80.0,104.0
34,54.945664083333334,55.118856479166666,78.0,102.0
35,55.66855408333333,55.86132475,75.0,110.0
36,56.02999908333334,56.34776947916667,82.0,113.0
37,56.39144408333333,56.72578070833333,80.0,110.0
38,56.752889083333336,56.97879220833334,75.0,104.0
39,57.11433408333333,57.33120108333333,80.0,108.0
40,57.475779083333336,57.74686283333334,82.0,113.0
41,57.83722408333333,58.01493454166667,80.0,114.0
42,58.198669083333336,58.43059629166667,75.0,108.0
43,58.56011408333334,58.870354375000005,80.0,104.0
44,58.921559083333335,59.249871625000004,78.0,104.0
45,59.28300408333334,59.764930750000005,77.0,110.0
46,64.34323408333334,64.46672779166667,75.0,110.0
47,64.70467908333333,64.98479895833333,77.0,90.0
48,65.06612408333334,65.37335233333333,78.0,119.0
49,65.42756908333334,65.7603996875,77.0,113.0
50,65.78901408333334,66.16250725,75.0,113.0
51,66.15045908333333,66.4697355,77.0,110.0
52,66.51190408333333,66.90497552083333,78.0,113.0
53,66.87334908333334,67.22274591666667,80.0,108.0
54,67.23479408333334,67.57214275,82.0,113.0
55,67.59623908333333,67.9561780625,78.0,113.0
56,67.95768408333333,68.4170204375,75.0,114.0
57,70.12635408333334,70.42454620833334,78.0,113.0
58,70.48779908333334,70.79653335416667,80.0,104.0
59,70.84924408333333,71.195628875,82.0,113.0
60,71.21068908333334,71.50436314583334,80.0,104.0
61,71.57213408333334,71.92002489583334,78.0,108.0
62,71.93357908333334,72.3296625625,80.0,104.0
63,72.29502408333333,72.60827641666667,82.0,108.0
64,72.65646908333333,73.01942010416667,80.0,91.0
65,73.01791408333334,73.36731091666667,78.0,104.0
66,73.37935908333334,73.71670775,85.0,100.0
67,73.74080408333333,73.99080354166666,85.0,113.0
68,74.46369408333334,74.71369354166667,82.0,113.0
69,75.90947408333334,76.20766620833334,82.0,114.0
70,76.27091908333334,76.5947135625,85.0,113.0
71,76.63236408333334,76.90344783333333,87.0,113.0
72,76.99380908333333,77.16248341666667,78.0,107.0
73,77.35525408333334,77.52392841666666,78.0,107.0
74,77.71669908333334,77.92904802083333,82.0,102.0
75,78.07814408333334,78.41398672916667,80.0,107.0
76,78.80103408333333,79.07814191666667,80.0,107.0
77,79.16247908333334,79.51488795833333,82.0,98.0
78,79.52392408333334,79.69561045833333,85.0,108.0
79,79.88536908333333,80.04952535416668,73.0,87.0
80,80.24681408333333,80.44711485416667,73.0,93.0
81,80.60825908333334,80.83868027083334,80.0,104.0
82,80.96970408333334,81.14289647916667,78.0,102.0
83,81.69259408333333,81.89741291666667,82.0,117.0
84,82.05403908333334,82.30403854166667,80.0,108.0
85,82.41548408333334,82.63385710416667,75.0,107.0
86,82.77692908333334,82.94409739583334,80.0,110.0
87,83.13837408333333,83.36126516666667,80.0,113.0
88,83.49981908333334,83.76638477083334,82.0,116.0
89,83.86126408333334,84.20463683333334,80.0,110.0
90,84.22270908333334,84.49078079166667,78.0,110.0
91,84.58415408333333,84.83415354166667,70.0,108.0
92,84.94559908333333,85.1790323125,78.0,102.0
93,85.30704408333334,85.581139875,78.0,100.0
94,85.66848908333334,85.98927152083334,77.0,98.0
95,86.02993408333333,86.31155997916667,75.0,108.0
96,87.47571408333333,87.78896641666667,90.0,119.0
97,87.83715908333333,88.17300172916667,89.0,114.0
98,88.19860408333334,89.06306004166667,87.0,117.0
99,89.28293908333333,89.54950477083334,85.0,113.0
100,89.64438408333334,90.10070839583334,87.0,117.0
101,90.00582908333334,90.34167172916666,85.0,117.0
102,90.36727408333334,90.7001046875,82.0,117.0
103,90.72871908333333,91.03293529166667,80.0,117.0
104,91.09016408333333,91.4501030625,82.0,120.0
105,93.25883408333334,93.50280945833333,75.0,117.0
106,93.62027908333333,93.903411,82.0,117.0
107,93.98172408333333,94.3235908125,80.0,120.0
108,95.06605908333334,95.32358864583334,78.0,116.0
109,95.42750408333333,95.719672125,80.0,117.0
110,95.78894908333334,96.026900375,82.0,114.0
111,96.15039408333334,96.3838273125,85.0,117.0
112,96.51183908333334,96.75732047916667,87.0,114.0
113,96.87328408333333,97.32057227083334,82.0,119.0
114,99.04195408333334,99.29195354166667,90.0,119.0
115,99.40339908333334,99.587133625,89.0,113.0
116,99.76484408333334,100.63381810416666,87.0,120.0
117,100.84917908333334,101.08562435416667,85.0,117.0
118,101.21062408333334,101.50580416666666,87.0,114.0
119,101.57206908333333,101.91242979166667,85.0,114.0
120,101.93351408333334,102.15038108333334,75.0,116.0
121,102.29495908333334,102.52236822916667,82.0,117.0
122,102.65640408333334,102.9169456875,82.0,117.0
123,103.01784908333333,103.35519775,80.0,116.0
124,104.82507408333333,105.03290495833333,75.0,117.0
125,105.18651908333334,105.42145833333333,82.0,117.0
126,105.54796408333334,105.840132125,80.0,120.0
127,106.63229908333334,106.89133466666667,78.0,116.0
128,106.99374408333334,107.31603254166667,80.0,114.0
129,107.35518908333334,107.70910397916667,78.0,113.0
130,107.71663408333333,108.06753693750001,75.0,116.0
131,108.07807908333334,108.4199458125,73.0,114.0
132,108.43952408333334,108.89434237500001,75.0,114.0
133,136.63223408333334,136.75572779166666,75.0,110.0
134,136.99367908333335,137.27379895833334,77.0,90.0
135,137.35512408333335,137.66235233333333,78.0,119.0
136,137.71656908333333,138.0493996875,77.0,113.0
137,138.07801408333333,138.45150725,75.0,113.0
138,138.43945908333333,138.7587355,77.0,110.0
139,138.80090408333334,139.19397552083333,78.0,113.0
140,139.16234908333334,139.51174591666668,80.0,108.0
141,139.52379408333334,139.86114275,82.0,113.0
142,139.88523908333335,140.2451780625,78.0,113.0
143,140.24668408333335,140.7060204375,75.0,114.0
144,142.41535408333334,142.71354620833333,78.0,113.0
145,142.77679908333334,143.08553335416667,80.0,104.0
146,143.13824408333335,143.484628875,82.0,113.0
147,143.49968908333335,143.79336314583333,80.0,104.0
148,143.86113408333333,144.20902489583335,78.0,108.0
149,144.22257908333333,144.6186625625,80.0,104.0
150,144.58402408333333,144.89727641666667,82.0,108.0
151,144.94546908333334,145.3084201041667,80.0,91.0
152,145.30691408333334,145.65631091666668,78.0,104.0
153,145.66835908333334,146.00570775,80.0,100.0
154,146.02980408333335,146.27980354166667,82.0,113.0
155,148.19847408333334,148.49666620833335,82.0,114.0
156,148.55991908333334,148.8837135625,85.0,113.0
157,148.92136408333334,149.19244783333335,75.0,113.0
158,149.28280908333335,149.45148341666666,87.0,107.0
159,149.64425408333335,149.81292841666667,78.0,107.0
160,150.00569908333333,150.21804802083335,82.0,102.0
161,150.36714408333333,150.70298672916667,80.0,107.0
162,151.09003408333334,151.36714191666667,80.0,107.0
163,151.45147908333334,151.80388795833335,82.0,98.0
164,151.81292408333334,151.98461045833335,85.0,108.0
165,152.17436908333335,152.33852535416668,73.0,87.0
166,152.53581408333335,152.73611485416666,73.0,93.0
167,152.89725908333335,153.12768027083334,80.0,104.0
168,153.25870408333333,153.43189647916668,78.0,102.0
169,153.98159408333333,154.18641291666668,82.0,117.0
170,154.34303908333334,154.59303854166666,80.0,108.0
171,154.70448408333334,154.92285710416667,75.0,107.0
172,155.06592908333334,155.23309739583334,80.0,110.0
173,155.42737408333335,155.65026516666668,80.0,113.0
174,155.78881908333335,156.05538477083334,82.0,116.0
175,156.15026408333333,156.49363683333334,80.0,110.0
176,156.51170908333333,156.77978079166667,78.0,110.0
177,156.87315408333333,157.12315354166668,70.0,108.0
178,157.23459908333334,157.46803231250001,78.0,102.0
179,157.59604408333334,157.870139875,78.0,100.0
180,157.95748908333334,158.27827152083333,77.0,98.0
181,158.31893408333335,158.60055997916666,75.0,108.0
182,159.76471408333333,160.07796641666667,90.0,119.0
183,160.12615908333333,160.46200172916667,89.0,114.0
184,160.48760408333334,161.35206004166668,87.0,117.0
185,161.57193908333335,161.83850477083334,85.0,113.0
186,161.93338408333335,162.38970839583334,87.0,117.0
187,162.29482908333333,162.63067172916666,85.0,117.0
188,162.65627408333333,162.9891046875,82.0,117.0
189,163.01771908333333,163.32193529166668,80.0,117.0
190,163.37916408333334,163.7391030625,82.0,120.0
191,165.54783408333333,165.79180945833335,75.0,117.0
192,165.90927908333333,166.192411,82.0,117.0
193,166.27072408333333,166.6125908125,80.0,120.0
194,167.35505908333334,167.61258864583334,78.0,116.0
195,167.71650408333335,168.008672125,80.0,117.0
196,168.07794908333335,168.315900375,82.0,114.0
197,168.43939408333333,168.6728273125,85.0,117.0
198,168.80083908333333,169.04632047916667,87.0,114.0
199,169.16228408333333,169.60957227083333,82.0,119.0
200,171.33095408333335,171.58095354166667,90.0,119.0
201,171.69239908333333,171.876133625,89.0,113.0
202,172.05384408333333,172.92281810416668,87.0,120.0
203,173.13817908333334,173.37462435416668,85.0,117.0
204,173.49962408333334,173.79480416666667,87.0,114.0
205,173.86106908333335,174.20142979166667,85.0,114.0
206,174.22251408333335,174.43938108333333,75.0,116.0
207,174.58395908333333,174.81136822916667,82.0,117.0
208,174.94540408333333,175.20594568750002,82.0,117.0
209,175.30684908333333,175.64419775000002,80.0,116.0
210,177.11407408333335,177.32190495833333,75.0,117.0
211,177.47551908333335,177.71045833333335,82.0,117.0
212,177.83696408333333,178.129132125,80.0,120.0
213,178.92129908333334,179.18033466666668,78.0,116.0
214,179.28274408333334,179.60503254166667,80.0,114.0
215,179.64418908333334,179.99810397916667,78.0,113.0
216,180.00563408333335,180.3565369375,75.0,116.0
217,180.36707908333335,180.70894581250002,73.0,114.0
218,180.72852408333333,181.183342375,75.0,114.0
219,208.92123408333333,209.23298039583335,70.0,116.0
220,209.28267908333333,209.538702625,73.0,110.0
221,209.64412408333334,210.0402075625,78.0,117.0
222,210.00556908333334,210.5100860625,75.0,114.0
223,210.72845908333335,210.96791639583333,73.0,116.0
224,211.08990408333335,211.41219254166668,75.0,117.0
225,211.45134908333335,211.79170979166668,73.0,116.0
226,211.81279408333333,212.16219091666667,70.0,116.0
227,212.17423908333333,212.49652754166667,68.0,116.0
228,212.53568408333334,212.97845420833335,70.0,119.0
229,214.70435408333333,214.9558595625,63.0,113.0
230,215.06579908333333,215.34290691666666,70.0,117.0
231,215.42724408333333,215.9935079166667,68.0,116.0
232,216.51157908333334,216.785674875,66.0,113.0
233,216.87302408333335,217.19079447916667,68.0,113.0
234,217.23446908333335,217.517601,70.0,114.0
235,217.59591408333335,217.88657610416666,73.0,116.0
236,217.95735908333333,218.24802110416667,75.0,104.0
237,218.31880408333333,218.8052488125,70.0,114.0
238,220.48747408333335,220.82482275,70.0,117.0
239,220.84891908333333,221.15614733333334,73.0,113.0
240,221.21036408333333,221.52662845833333,78.0,114.0
241,221.57180908333333,221.854941,75.0,117.0
242,222.29469908333334,222.58987916666666,73.0,116.0
243,222.65614408333334,222.98144458333334,75.0,114.0
244,223.01758908333335,223.36547989583335,73.0,110.0
245,223.37903408333335,223.54620239583335,63.0,91.0
246,223.74047908333335,223.9829484375,70.0,116.0
247,224.10192408333333,224.39559814583333,70.0,114.0
248,224.46336908333333,224.80674183333335,68.0,116.0
249,226.27059408333335,226.45282260416667,63.0,116.0
250,226.63203908333335,226.91517100000002,70.0,117.0
251,226.99348408333333,227.7464945,68.0,119.0
252,228.07781908333334,228.33233660416667,66.0,114.0
253,228.43926408333334,228.76908264583335,68.0,119.0
254,228.80070908333335,229.16817816666668,66.0,117.0
255,229.16215408333335,229.5130569375,63.0,117.0
256,229.52359908333335,229.82630927083335,61.0,108.0
257,229.88504408333336,230.3805249375,63.0,116.0
258,232.05371408333335,232.36696641666668,90.0,119.0
259,232.41515908333335,232.7510017291667,89.0,114.0
260,232.77660408333335,233.64106004166666,87.0,117.0
261,233.86093908333334,234.12750477083335,85.0,113.0
262,234.22238408333334,234.67870839583335,87.0,117.0
263,234.58382908333334,234.91967172916668,85.0,117.0
264,234.94527408333335,235.27810468750002,82.0,117.0
265,235.30671908333335,235.61093529166666,80.0,117.0
266,235.66816408333335,236.0281030625,82.0,120.0
267,237.83683408333334,238.08080945833333,75.0,117.0
268,238.19827908333335,238.481411,82.0,117.0
269,238.55972408333335,238.90159081250002,80.0,120.0
270,239.28261408333333,239.54014364583335,80.0,116.0
271,239.64405908333333,239.90158864583333,78.0,116.0
272,240.00550408333334,240.29767212500002,80.0,117.0
273,240.36694908333334,240.604900375,82.0,114.0
274,240.72839408333334,240.96182731250002,85.0,117.0
275,241.08983908333335,241.33532047916668,87.0,114.0
276,241.81272908333335,242.26001727083334,89.0,119.0
277,243.61995408333334,243.8699535416667,90.0,119.0
278,243.98139908333334,244.165133625,89.0,113.0
279,244.34284408333335,245.21181810416667,87.0,120.0
280,245.42717908333333,245.66362435416667,85.0,117.0
281,245.78862408333333,246.08380416666668,87.0,114.0
282,246.15006908333334,246.49042979166668,85.0,114.0
283,246.51151408333334,246.72838108333335,75.0,116.0
284,246.87295908333334,247.10036822916666,82.0,117.0
285,247.23440408333335,247.4949456875,82.0,117.0
286,247.59584908333335,247.93319775,80.0,116.0
287,249.22235158333334,249.43018245833335,75.0,117.0
288,249.40307408333334,249.63801333333333,82.0,117.0
289,250.12596408333334,250.418132125,80.0,120.0
290,250.84885408333335,251.141022125,80.0,120.0
291,251.21029908333335,251.46933466666667,78.0,116.0
292,251.57174408333333,251.8940325416667,80.0,114.0
293,251.93318908333333,252.2871039791667,78.0,113.0
294,252.29463408333334,252.6455369375,75.0,116.0
295,252.65607908333334,252.9979458125,73.0,114.0
296,253.01752408333334,253.472342375,75.0,114.0
297,255.18619408333333,255.47986814583334,75.0,113.0
298,255.54763908333334,255.82625293750002,82.0,116.0
299,255.90908408333334,256.29613143750004,80.0,117.0
300,256.9934190833333,257.267514875,78.0,113.0
301,257.3548640833333,257.647032125,80.0,110.0
302,257.71630908333333,258.008477125,78.0,110.0
303,258.07775408333333,258.33528364583333,75.0,113.0
304,258.43919908333334,258.7358851875,73.0,104.0
305,259.16208908333334,259.526546125,75.0,100.0
306,260.96931408333336,261.225337625,75.0,104.0
307,261.33075908333336,261.6289512083333,82.0,107.0
308,261.69220408333337,262.06870929166666,80.0,102.0
309,262.7765390833333,263.05967100000004,78.0,92.0
310,263.1379840833333,263.4512364166667,80.0,92.0
311,263.4994290833333,263.9241269583333,78.0,93.0
312,264.04159658333333,264.4828606875,75.0,98.0
313,264.58376408333334,265.33075041666666,73.0,87.0
314,265.12593158333334,265.7193037916667,75.0,89.0
