,start,end,pitch,velocity
0,15.909604083333335,16.810204541666668,51.0,87.0
1,15.909604083333335,16.894541708333335,63.0,68.0
2,15.909604083333335,16.914119979166667,66.0,82.0
3,15.909604083333335,16.930686208333334,70.0,81.0
4,16.987915,17.888515458333334,51.0,87.0
5,16.987915,17.972852625,63.0,68.0
6,16.987915,17.992430895833333,66.0,82.0
7,16.987915,18.008997125,70.0,81.0
8,18.801164083333333,19.704776583333334,54.0,88.0
9,18.801164083333333,19.710800666666668,70.0,84.0
10,18.801164083333333,19.762005375,66.0,85.0
11,18.801164083333333,19.780077625,61.0,84.0
12,19.879475,21.5059775,54.0,88.0
13,19.879475,21.512001583333333,70.0,84.0
14,19.879475,21.563206291666667,66.0,85.0
15,19.879475,21.581278541666666,61.0,84.0
16,21.692724083333335,22.712300187500002,61.0,82.0
17,21.692724083333335,22.7303724375,68.0,87.0
18,21.692724083333335,22.768022958333333,65.0,87.0
19,21.692724083333335,22.777059083333334,49.0,82.0
20,22.771035,22.777059083333334,49.0,82.0
21,22.771035,24.332778604166666,61.0,82.0
22,22.771035,24.35085085416667,68.0,87.0
23,22.771035,24.388501375,65.0,87.0
24,24.584284083333333,25.656570916666666,65.0,87.0
25,24.584284083333333,25.656570916666666,68.0,86.0
26,24.584284083333333,25.656570916666666,73.0,86.0
27,24.584284083333333,25.668619083333333,49.0,82.0
28,25.662595,25.668619083333333,49.0,82.0
29,25.662595,26.734881833333333,65.0,87.0
30,25.662595,26.734881833333333,68.0,86.0
31,25.662595,26.734881833333333,73.0,86.0
32,28.198734083333335,29.310177458333335,63.0,77.0
33,28.554155,29.63849,70.0,73.0
34,29.644514083333334,29.90957375,63.0,79.0
35,28.554155,30.027043375,75.0,88.0
36,28.921624083333334,30.027043375,75.0,88.0
37,27.837289083333335,30.057163791666667,58.0,82.0
38,27.475844083333335,30.0677059375,51.0,87.0
39,30.005959083333334,30.359873979166668,70.0,85.0
40,28.560179083333335,30.435175020833334,66.0,78.0
41,31.451739083333333,32.26649635416667,70.0,87.0
42,31.08427,32.4532429375,61.0,83.0
43,32.174629083333336,32.4532429375,61.0,73.0
44,31.445715,32.53005,73.0,84.0
45,31.445715,32.537580104166665,66.0,86.0
46,32.53607408333333,32.537580104166665,66.0,89.0
47,30.367404083333334,33.07824158333334,54.0,92.0
48,32.897519083333336,33.240891833333336,70.0,88.0
49,34.343299083333335,34.743900625,63.0,88.0
50,34.337275,34.86287627083333,65.0,88.0
51,33.98185408333333,35.021008458333334,61.0,81.0
52,34.343299083333335,35.2092610625,68.0,90.0
53,35.066189083333335,35.70474191666667,61.0,74.0
54,33.620409083333335,35.789079083333334,56.0,78.0
55,33.25896408333333,35.798115208333336,49.0,89.0
56,35.783055000000004,35.798115208333336,49.0,73.0
57,35.42763408333334,36.04811466666667,68.0,96.0
58,36.15052408333334,36.676125354166665,63.0,82.0
59,36.15052408333334,36.781546812500004,70.0,84.0
60,36.15052408333334,36.83726958333334,66.0,83.0
61,36.15052408333334,37.23485908333333,51.0,84.0
62,37.228835000000004,37.23485908333333,51.0,73.0
63,36.87341408333334,37.266485520833335,65.0,83.0
64,36.511969083333334,38.646000604166666,58.0,75.0
65,37.23485908333333,38.691181229166666,66.0,87.0
66,39.764974083333335,40.84930908333334,63.0,80.0
67,40.120395,41.204730000000005,66.0,86.0
68,40.120395,41.204730000000005,70.0,73.0
69,39.40352908333333,41.346295958333336,58.0,74.0
70,39.042084083333336,41.389970562500004,51.0,87.0
71,41.204730000000005,41.927620000000005,66.0,73.0
72,41.204730000000005,41.927620000000005,70.0,73.0
73,43.011955,44.081229791666665,66.0,87.0
74,43.01797908333334,44.10231408333333,71.0,90.0
75,44.09629,44.10231408333333,71.0,73.0
76,42.656534083333334,44.3493015,59.0,81.0
77,41.933644083333334,44.385446,47.0,79.0
78,42.29508908333334,44.385446,54.0,70.0
79,44.09629,44.999902500000005,66.0,73.0
80,45.54809408333333,46.41104402083334,61.0,86.0
81,45.909539083333335,46.870380375,68.0,86.0
82,45.909539083333335,46.97730785416667,63.0,86.0
83,46.632429083333335,47.049596854166666,61.0,81.0
84,45.186649083333336,47.07821125,56.0,80.0
85,44.82520408333333,47.141464125,49.0,98.0
86,46.99387408333334,47.376403375,65.0,94.0
87,46.98785,47.88995647916667,68.0,83.0
88,48.801099083333334,49.183628375000005,56.0,80.0
89,48.795075000000004,49.3372425,61.0,73.0
90,48.795075000000004,49.3372425,66.0,73.0
91,48.43965408333334,49.88543408333334,54.0,86.0
92,49.52398908333333,49.88543408333334,61.0,84.0
93,47.71676408333334,50.01193983333334,42.0,87.0
94,48.078209083333334,50.04959035416667,49.0,82.0
95,49.88543408333334,50.26043327083333,66.0,88.0
96,49.87941,50.267963375,70.0,86.0
97,50.240855,50.6023,54.0,73.0
98,50.608324083333336,51.677598875,47.0,79.0
99,51.331214083333336,51.7272975625,59.0,77.0
100,50.96976908333333,52.0074174375,54.0,72.0
101,51.69265908333333,52.03753785416667,71.0,76.0
102,51.686635,52.2288025,66.0,73.0
103,51.69265908333333,52.3327179375,63.0,85.0
104,52.054104083333335,53.13994510416667,49.0,86.0
105,52.77097,53.21223410416667,65.0,75.0
106,52.776994083333335,53.477293770833334,61.0,86.0
107,52.77097,53.493860000000005,68.0,73.0
108,52.41554908333333,53.5254864375,56.0,83.0
109,53.499884083333335,54.23331622916667,54.0,86.0
110,53.86132908333334,54.275484812500004,66.0,75.0
111,54.222774083333334,54.97879654166667,53.0,87.0
112,54.58421908333334,55.002892875,65.0,77.0
113,55.30710908333334,56.023975,58.0,81.0
114,54.945664083333334,56.0465653125,51.0,86.0
115,55.662530000000004,56.06764960416667,65.0,88.0
116,55.66855408333333,56.37487785416667,63.0,86.0
117,57.10831,57.526983791666666,59.0,75.0
118,57.11433408333333,57.91854920833334,56.0,79.0
119,57.83722408333333,58.234813583333334,63.0,78.0
120,56.39144408333333,58.682101770833334,44.0,81.0
121,58.55409,58.74535464583334,63.0,86.0
122,58.198669083333336,58.90047479166667,56.0,74.0
123,58.56011408333334,59.22426927083333,59.0,81.0
124,56.752889083333336,59.24685958333333,51.0,77.0
125,60.367339083333334,60.82818145833333,63.0,83.0
126,60.72878408333334,62.98028522916667,62.0,86.0
127,59.27698,63.63088622916667,46.0,79.0
128,60.00589408333334,63.724259520833336,58.0,79.0
129,59.644449083333335,63.74082575,53.0,68.0
130,65.06612408333334,65.7513635625,70.0,86.0
131,65.06612408333334,65.83419470833334,63.0,83.0
132,65.78901408333334,66.13238683333334,65.0,83.0
133,65.06612408333334,66.15045908333333,51.0,82.0
134,66.144435,66.15045908333333,51.0,73.0
135,65.42756908333334,66.641421875,58.0,68.0
136,66.15045908333333,66.87033704166667,70.0,89.0
137,66.51190408333333,66.92756583333333,66.0,74.0
138,66.15045908333333,66.92907185416666,63.0,88.0
139,67.23479408333334,67.6308775625,63.0,86.0
140,66.86732500000001,67.7709375,51.0,73.0
141,67.23479408333334,67.79503383333333,70.0,84.0
142,67.7709375,67.95166,51.0,73.0
143,67.95166,68.31310500000001,63.0,73.0
144,67.95166,68.31310500000001,71.0,73.0
145,67.95768408333333,69.04201908333333,47.0,83.0
146,69.035995,69.04201908333333,47.0,73.0
147,68.68057408333334,69.73478866666667,59.0,76.0
148,69.04201908333333,70.05858314583334,63.0,83.0
149,69.04201908333333,70.12635408333334,71.0,81.0
150,70.12033,70.12635408333334,71.0,81.0
151,70.12033,70.39141375,63.0,88.0
152,69.76490908333334,70.39442579166666,66.0,84.0
153,68.31912908333334,70.50135327083333,54.0,40.0
154,70.481775,70.92755716666667,59.0,79.0
155,70.84322,71.204665,61.0,73.0
156,70.84322,71.204665,68.0,73.0
157,71.93357908333334,72.3206264375,63.0,82.0
158,71.57213408333334,72.37634920833334,61.0,83.0
159,72.29502408333333,72.66851725000001,65.0,86.0
160,71.93357908333334,72.68056541666667,68.0,86.0
161,72.65646908333333,73.01791408333334,61.0,85.0
162,73.01189000000001,73.01791408333334,61.0,73.0
163,71.21068908333334,73.16399810416667,56.0,77.0
164,70.84924408333333,73.273937625,49.0,88.0
165,73.01791408333334,73.3507446875,68.0,113.0
166,73.5540575,73.73478,49.0,73.0
167,73.74080408333333,74.09923704166667,66.0,77.0
168,73.74080408333333,74.40044120833333,61.0,71.0
169,74.82513908333334,75.21369245833334,58.0,83.0
170,74.46369408333334,75.261885125,54.0,81.0
171,75.18658408333333,75.51790866666667,61.0,87.0
172,74.82513908333334,75.52995683333333,66.0,84.0
173,73.74080408333333,75.54802908333333,42.0,76.0
174,75.542005,75.54802908333333,42.0,73.0
175,74.10224908333333,75.96820889583334,49.0,78.0
176,75.54802908333333,76.11278689583334,54.0,88.0
177,75.90947408333334,76.23176254166667,70.0,87.0
178,75.90947408333334,76.29049735416667,61.0,86.0
179,76.4456175,76.62634,42.0,73.0
180,76.27091908333334,76.63688214583334,66.0,84.0
181,76.63236408333334,77.35073602083334,70.0,87.0
182,76.63236408333334,77.45916952083334,63.0,85.0
183,77.35525408333334,77.71368704166667,59.0,80.0
184,76.63236408333334,77.71669908333334,47.0,81.0
185,76.99380908333333,77.85675902083334,54.0,74.0
186,77.71669908333334,77.92001189583334,63.0,83.0
187,77.71669908333334,77.999831,70.0,86.0
188,78.07814408333334,78.41248070833333,65.0,86.0
189,78.07814408333334,78.42302285416667,61.0,86.0
190,78.07814408333334,78.43205897916667,68.0,84.0
191,78.07814408333334,79.1700091875,49.0,84.0
192,78.80103408333333,79.17151520833333,61.0,87.0
193,78.80103408333333,79.183563375,68.0,87.0
194,78.43958908333333,79.2648885,56.0,73.0
195,79.16247908333334,79.47874345833334,65.0,85.0
196,79.52392408333334,80.09018791666666,70.0,85.0
197,79.52392408333334,80.1459106875,61.0,84.0
198,79.52392408333334,80.1730190625,66.0,86.0
199,79.52392408333334,80.26036827083334,54.0,83.0
200,80.24681408333333,80.93355958333333,68.0,87.0
201,80.24681408333333,80.93807764583333,65.0,91.0
202,80.24681408333333,80.96518602083334,53.0,87.0
203,80.96970408333334,81.25886008333333,63.0,81.0
204,80.96970408333334,81.73325664583334,70.0,85.0
205,81.69259408333333,81.92301527083333,63.0,86.0
206,81.33114908333333,82.00584641666667,58.0,77.0
207,80.96970408333334,82.06006316666667,51.0,87.0
208,80.96970408333334,82.08114745833333,66.0,86.0
209,82.05403908333334,82.67000160416667,65.0,85.0
210,82.41548408333334,83.55704787500001,44.0,85.0
211,83.49981908333334,83.80704733333333,68.0,70.0
212,83.13837408333333,83.81005937500001,56.0,86.0
213,82.77692908333334,83.86126408333334,51.0,80.0
214,83.49981908333334,83.88987847916667,59.0,85.0
215,83.86126408333334,84.95764725000001,46.0,87.0
216,84.22270908333334,84.99379175,53.0,81.0
217,84.94559908333333,85.31758622916666,65.0,81.0
218,84.58415408333333,85.34770664583334,58.0,86.0
219,86.02993408333333,86.39589714583333,63.0,94.0
220,85.66848908333334,86.44710185416668,58.0,84.0
221,86.39137908333333,86.7784264375,65.0,94.0
222,86.75282408333334,87.11426908333334,66.0,94.0
223,87.11426908333334,87.424509375,70.0,82.0
224,87.46969,87.6504125,70.0,73.0
225,87.47571408333333,87.78896641666667,75.0,108.0
226,87.47571408333333,87.83264102083334,63.0,84.0
227,85.30704408333334,87.86577347916666,51.0,88.0
228,87.831135,87.86577347916666,51.0,73.0
229,86.75282408333334,87.86727950000001,58.0,80.0
230,88.0118575,88.19258,39.0,73.0
231,88.19860408333334,88.5043263125,75.0,89.0
232,88.19860408333334,88.56004908333334,51.0,84.0
233,88.55402500000001,88.56004908333334,51.0,73.0
234,88.19860408333334,89.1368550625,70.0,100.0
235,88.56004908333334,89.28293908333333,58.0,76.0
236,88.91547,89.6067335625,66.0,96.0
237,88.91547,89.629323875,75.0,98.0
238,88.92149408333334,89.7151670625,63.0,81.0
239,89.64438408333334,90.0314314375,58.0,90.0
240,90.00582908333334,90.4470931875,63.0,88.0
241,89.99980500000001,90.722695,51.0,73.0
242,90.36727408333334,90.794984,66.0,102.0
243,90.36125,90.85070677083334,70.0,88.0
244,90.722695,91.08414,51.0,73.0
245,90.36727408333334,91.3145611875,75.0,88.0
246,91.09016408333333,91.45160908333334,42.0,92.0
247,91.44558500000001,91.45160908333334,42.0,73.0
248,91.81305408333334,92.23473991666667,58.0,88.0
249,91.80703,92.56907654166667,61.0,94.0
250,91.45160908333334,92.69407627083334,54.0,87.0
251,92.3491975,92.7106425,42.0,73.0
252,91.81305408333334,92.89287102083334,66.0,88.0
253,92.89136500000001,93.4335325,42.0,73.0
254,93.25281,93.587146625,61.0,91.0
255,93.25883408333334,93.6278091875,58.0,93.0
256,92.89738908333334,93.65642358333334,54.0,86.0
257,93.25883408333334,93.9395555,66.0,91.0
258,93.614255,93.9757,42.0,73.0
259,93.98172408333333,94.34316908333334,44.0,96.0
260,94.337145,94.34316908333334,44.0,73.0
261,94.70461408333334,95.04798683333334,68.0,91.0
262,94.69859000000001,95.060035,63.0,73.0
263,94.70461408333334,95.11575777083334,59.0,103.0
264,95.06605908333334,95.57057606250001,56.0,81.0
265,94.34316908333334,96.424489875,51.0,86.0
266,95.78894908333334,96.43503202083333,56.0,80.0
267,96.15039408333334,96.49979091666667,59.0,97.0
268,95.782925,96.505815,44.0,73.0
269,96.15039408333334,96.514851125,68.0,94.0
270,96.14437000000001,96.6865375,63.0,73.0
271,96.505815,96.86726,44.0,73.0
272,96.87328408333333,97.23472908333333,46.0,91.0
273,97.228705,97.23472908333333,46.0,78.0
274,97.59015000000001,97.951595,62.0,78.0
275,97.59015000000001,97.951595,65.0,78.0
276,97.59617408333334,98.06304054166667,58.0,107.0
277,98.1323175,98.31304,46.0,78.0
278,98.31304,98.674485,46.0,78.0
279,98.68050908333333,99.108219,58.0,88.0
280,99.04195408333334,99.2934595625,62.0,113.0
281,99.04195408333334,99.29496558333334,65.0,107.0
282,98.674485,99.397375,46.0,78.0
283,97.23472908333333,99.40490510416667,53.0,84.0
284,99.40339908333334,99.78291633333333,58.0,87.0
285,99.76484408333334,100.12628908333333,51.0,85.0
286,100.120265,100.12628908333333,51.0,78.0
287,100.48773408333334,101.02237147916667,70.0,94.0
288,100.48773408333334,101.04947985416668,65.0,100.0
289,100.12628908333333,101.36875627083333,58.0,84.0
290,101.2046,101.566045,51.0,78.0
291,101.21062408333334,101.58110520833334,63.0,98.0
292,101.21062408333334,101.58562327083334,70.0,94.0
293,101.21062408333334,101.5976714375,66.0,107.0
294,101.57206908333333,102.09616433333333,58.0,86.0
295,101.93351408333334,102.34917583333333,63.0,107.0
296,101.566045,102.65038,51.0,78.0
297,101.93351408333334,102.731705125,70.0,98.0
298,102.65640408333334,103.01784908333333,44.0,88.0
299,103.011825,103.01784908333333,44.0,78.0
300,102.65640408333334,103.19857158333333,59.0,97.0
301,102.65640408333334,103.37929408333333,68.0,96.0
302,103.37327,103.37929408333333,68.0,102.0
303,103.37327,104.01634089583334,59.0,100.0
304,103.37929408333333,104.2091115625,56.0,78.0
305,104.10218408333334,104.4350146875,63.0,100.0
306,104.09616,104.457605,44.0,78.0
307,104.82507408333333,105.17296489583333,59.0,100.0
308,103.01784908333333,105.19706122916666,51.0,74.0
309,104.82507408333333,105.37627770833333,68.0,98.0
310,104.46362908333333,105.424470375,56.0,86.0
311,105.18651908333334,105.49374733333333,63.0,81.0
312,104.457605,105.54194,44.0,78.0
313,105.54796408333334,105.90187897916667,61.0,88.0
314,105.54796408333334,105.90940908333334,49.0,88.0
315,105.903385,105.90940908333334,49.0,78.0
316,106.27085408333333,106.67898572916667,68.0,87.0
317,106.26483,106.725672375,65.0,90.0
318,106.27085408333333,106.86422629166667,61.0,89.0
319,106.26483,106.98772000000001,49.0,78.0
320,106.98772000000001,107.349165,49.0,78.0
321,106.98772000000001,107.45006839583334,61.0,96.0
322,107.71061,108.026874375,65.0,86.0
323,107.71663408333333,108.06603091666668,63.0,91.0
324,107.71663408333333,108.10066939583334,68.0,107.0
325,107.349165,108.43350000000001,49.0,78.0
326,108.07807908333334,108.50880104166667,56.0,75.0
327,108.43952408333334,108.7452463125,63.0,92.0
328,108.43952408333334,108.77988479166667,66.0,87.0
329,108.43952408333334,108.80096908333334,51.0,84.0
330,108.794945,108.80096908333334,51.0,78.0
331,109.15639,109.6985575,51.0,78.0
332,109.15639,109.81301508333334,70.0,90.0
333,109.6985575,109.87928000000001,51.0,78.0
334,109.15639,109.87928000000001,66.0,88.0
335,109.16241408333333,109.88530408333334,63.0,86.0
336,109.87928000000001,109.88530408333334,63.0,98.0
337,108.80096908333334,110.9500608125,58.0,77.0
338,109.87928000000001,111.32506000000001,51.0,78.0
339,111.33108408333334,111.97867304166667,63.0,96.0
340,111.69252908333334,112.23921464583334,58.0,83.0
341,112.05397408333334,112.80849052083333,63.0,87.0
342,112.409395,112.88529758333334,67.0,87.0
343,112.409395,112.95156250000001,70.0,78.0
344,111.33108408333334,113.13830908333334,51.0,86.0
345,113.13228500000001,113.13830908333334,51.0,78.0
346,113.13830908333334,113.58559727083333,63.0,102.0
347,113.49373,113.70005485416667,70.0,91.0
348,113.49975408333334,113.82354856250001,67.0,87.0
349,113.855175,114.21662,58.0,74.0
350,114.22264408333334,114.94402806250001,59.0,89.0
351,114.94553408333334,115.63227958333334,56.0,73.0
352,115.300955,115.92294160416667,63.0,72.0
353,114.22264408333334,116.02986908333334,44.0,78.0
354,116.02384500000001,116.02986908333334,44.0,78.0
355,115.30697908333333,116.02986908333334,59.0,86.0
356,115.30697908333333,116.0825798125,68.0,93.0
357,116.02986908333334,116.39131408333334,56.0,84.0
358,114.58408908333334,116.55547035416667,51.0,70.0
359,116.39131408333334,116.62173527083334,68.0,91.0
360,116.746735,117.026854875,56.0,88.0
361,116.39131408333334,117.0494451875,63.0,83.0
362,117.83709408333334,118.5765503125,58.0,92.0
363,118.19853908333334,118.79040527083333,62.0,97.0
364,118.19853908333334,118.83257385416667,65.0,96.0
365,117.11420408333333,118.92142908333334,46.0,93.0
366,118.915405,118.92142908333334,46.0,78.0
367,118.92142908333334,119.38829554166666,58.0,84.0
368,117.47564908333334,119.68498164583333,53.0,78.0
369,119.28287408333334,119.87775231250001,62.0,97.0
370,119.64431908333334,120.03287245833334,58.0,81.0
371,119.28287408333334,120.20154679166667,70.0,90.0
372,120.72865408333334,121.09311112500001,65.0,88.0
373,120.36720908333334,121.58708595833333,58.0,88.0
374,120.00576408333333,121.81298908333333,51.0,88.0
375,121.806965,121.81298908333333,51.0,78.0
376,121.09009908333334,121.92744666666667,63.0,87.0
377,121.09009908333334,122.10666314583334,66.0,104.0
378,121.81298908333333,122.3626866875,58.0,87.0
379,122.16841000000001,122.4937105,63.0,81.0
380,122.16841000000001,122.72262566666667,66.0,88.0
381,122.529855,122.88527591666667,65.0,98.0
382,123.97563500000001,124.34611612500001,70.0,88.0
383,123.25876908333333,124.51479045833334,58.0,81.0
384,122.89732408333333,124.70454908333333,51.0,87.0
385,124.698525,124.70454908333333,51.0,78.0
386,123.98165908333334,124.7482236875,67.0,106.0
387,123.62021408333334,124.74972970833333,63.0,86.0
388,124.70454908333333,125.17141554166668,58.0,88.0
389,125.05997,125.42141500000001,67.0,78.0
390,125.06599408333334,125.53888462500001,63.0,102.0
391,125.42141500000001,125.78286,51.0,78.0
392,125.78888408333334,126.60364135416667,59.0,95.0
393,126.86719500000001,127.22713397916667,63.0,88.0
394,126.51177408333334,127.27532664583333,56.0,75.0
395,126.87321908333334,127.28586879166667,59.0,89.0
396,125.78888408333334,127.41538658333334,44.0,84.0
397,126.87321908333334,127.53436222916667,68.0,91.0
398,127.590085,128.1322525,44.0,78.0
399,127.95153,128.2813485625,63.0,82.0
400,126.15032908333333,128.31899908333332,51.0,76.0
401,127.95755408333333,128.32502316666668,59.0,100.0
402,127.59610908333333,128.5614684375,56.0,86.0
403,127.95755408333333,128.59610691666668,68.0,88.0
404,128.312975,128.67442,44.0,78.0
405,128.68044408333333,129.02984091666667,61.0,86.0
406,128.68044408333333,129.22261158333333,65.0,88.0
407,128.68044408333333,129.22261158333333,68.0,82.0
408,128.68044408333333,129.40333408333333,49.0,87.0
409,129.39731,129.40333408333333,49.0,78.0
410,129.04188908333333,129.58405658333334,56.0,77.0
411,129.39731,129.74670683333335,61.0,86.0
412,129.39731,129.9394775,65.0,88.0
413,129.39731,129.9394775,68.0,82.0
414,129.758755,130.1202,56.0,78.0
415,130.12622408333334,130.48766908333334,65.0,83.0
416,130.12622408333334,130.55694604166666,68.0,87.0
417,130.12622408333334,130.57050022916667,61.0,87.0
418,130.1202,130.84309000000002,49.0,78.0
419,130.48766908333334,130.9379693125,56.0,82.0
420,130.84911408333335,131.2903781875,61.0,96.0
421,130.84911408333335,131.48616089583334,68.0,90.0
422,130.84309000000002,131.56598,49.0,78.0
423,130.84309000000002,131.56598,65.0,78.0
424,131.21055908333335,131.6156786875,56.0,81.0
425,131.57200408333333,132.062966875,70.0,87.0
426,131.57200408333333,132.19850875,63.0,81.0
427,131.57200408333333,132.20001477083335,66.0,84.0
428,132.29489408333333,132.6729053125,65.0,80.0
429,131.93344908333333,133.14880789583333,58.0,74.0
430,131.57200408333333,133.37922908333334,51.0,84.0
431,133.373205,133.37922908333334,51.0,78.0
432,132.65633908333334,133.59157802083334,70.0,85.0
433,132.65633908333334,133.73314397916667,63.0,82.0
434,134.096095,134.2768175,58.0,68.0
435,133.73465000000002,134.2768175,70.0,78.0
436,133.74067408333335,134.40934733333333,65.0,84.0
437,134.46356408333332,136.76175187500002,70.0,79.0
438,134.46356408333332,136.76325789583333,63.0,78.0
439,134.46356408333332,136.78735422916668,66.0,78.0
440,134.46356408333332,136.81898066666668,51.0,77.0
441,134.46356408333332,136.82349872916666,58.0,76.0
442,137.35512408333335,138.12319470833333,63.0,83.0
443,138.07199,138.12319470833333,63.0,88.0
444,137.35512408333335,138.25873658333333,51.0,82.0
445,138.07801408333333,138.42138683333334,65.0,83.0
446,138.07199,138.79186795833334,70.0,89.0
447,137.71656908333333,138.930421875,58.0,68.0
448,139.16234908333334,139.64276972916667,58.0,78.0
449,138.433435,139.87921500000002,51.0,78.0
450,139.52379408333334,139.9198775625,63.0,86.0
451,139.51777,139.93343175,66.0,74.0
452,139.52379408333334,140.08403383333334,70.0,84.0
453,140.05993750000002,140.24066,51.0,78.0
454,140.24668408333335,141.69246408333333,47.0,83.0
455,141.68644,141.69246408333333,47.0,78.0
456,141.324995,141.95451170833334,66.0,84.0
457,140.96355,141.9801140625,63.0,83.0
458,140.96957408333333,142.02378866666666,59.0,76.0
459,140.96355,142.09607766666667,71.0,81.0
460,140.60812908333332,142.79035327083335,54.0,40.0
461,142.41535408333334,142.86113625000002,59.0,79.0
462,143.85511,144.24215735416666,63.0,82.0
463,143.85511,144.60209633333335,68.0,86.0
464,143.86113408333333,144.66534920833334,61.0,83.0
465,143.13824408333335,144.76474658333333,49.0,88.0
466,144.94546908333334,145.36263685416668,61.0,85.0
467,143.49968908333335,145.45299810416668,56.0,77.0
468,145.30691408333334,145.6397446875,68.0,113.0
469,144.939445,145.662335,49.0,78.0
470,145.30089,145.67438316666667,65.0,86.0
471,145.84305750000001,146.02378000000002,49.0,78.0
472,145.30089,146.04486429166667,63.0,73.0
473,146.02980408333335,146.38823704166668,66.0,77.0
474,146.02980408333335,146.68944120833333,61.0,71.0
475,146.74667,147.135223375,58.0,83.0
476,146.74667,147.45148775,66.0,84.0
477,146.75269408333335,147.550885125,54.0,81.0
478,146.02980408333335,148.255702875,42.0,76.0
479,146.39124908333335,148.25720889583334,49.0,78.0
480,147.83702908333333,148.40178689583334,54.0,88.0
481,148.19847408333334,148.52076254166667,70.0,87.0
482,148.19245,148.5584130625,66.0,84.0
483,148.19847408333334,148.57949735416668,61.0,86.0
484,148.7346175,148.91534000000001,42.0,78.0
485,148.92136408333334,149.63973602083334,70.0,87.0
486,148.92136408333334,149.74816952083333,63.0,85.0
487,149.64425408333335,150.00268704166666,59.0,80.0
488,148.92136408333334,150.00569908333333,47.0,81.0
489,149.28280908333335,150.14575902083334,54.0,74.0
490,150.00569908333333,150.20901189583333,63.0,83.0
491,150.00569908333333,150.28883100000002,70.0,86.0
492,150.36714408333333,150.70148070833335,65.0,86.0
493,150.36714408333333,150.71202285416666,61.0,86.0
494,150.36714408333333,150.72105897916668,68.0,84.0
495,150.36714408333333,151.45900918750002,49.0,84.0
496,151.09003408333334,151.46051520833333,61.0,87.0
497,151.09003408333334,151.472563375,68.0,87.0
498,150.72858908333333,151.5538885,56.0,73.0
499,151.45147908333334,151.76774345833334,65.0,85.0
500,151.6261775,151.8069,49.0,78.0
501,151.81292408333334,152.37918791666667,70.0,85.0
502,151.81292408333334,152.4349106875,61.0,84.0
503,151.81292408333334,152.46201906250002,66.0,86.0
504,151.81292408333334,152.54936827083333,54.0,83.0
505,152.53581408333335,153.22255958333335,68.0,87.0
506,152.53581408333335,153.22707764583333,65.0,91.0
507,152.53581408333335,153.25418602083334,53.0,87.0
508,153.25870408333333,153.54786008333335,63.0,81.0
509,153.25870408333333,153.62014908333333,66.0,86.0
510,153.98159408333333,154.21201527083335,63.0,86.0
511,153.62014908333333,154.29484641666667,58.0,77.0
512,153.97557,154.38370164583333,70.0,85.0
513,153.25870408333333,154.52376158333334,51.0,87.0
514,153.97557,154.59153252083334,65.0,85.0
515,155.42135000000002,155.72857825,68.0,70.0
516,155.42135000000002,155.81140939583335,59.0,85.0
517,154.70448408333334,155.846047875,44.0,85.0
518,155.42135000000002,155.9635175,63.0,78.0
519,155.06592908333334,156.15026408333333,51.0,80.0
520,155.782795,156.45448029166667,56.0,86.0
521,156.86713,157.23911714583335,65.0,81.0
522,156.15026408333333,157.24664725,46.0,87.0
523,156.51170908333333,157.28279175,53.0,81.0
524,157.4092975,157.59002,46.0,78.0
525,156.87315408333333,157.63670664583333,58.0,86.0
526,158.31893408333335,158.68489714583333,63.0,94.0
527,157.95748908333334,158.73610185416666,58.0,84.0
528,158.68037908333335,159.06742643750002,65.0,94.0
529,159.04182408333335,159.40326908333333,66.0,94.0
530,159.40326908333333,159.713509375,70.0,82.0
531,159.76471408333333,160.07796641666667,75.0,108.0
532,159.75869,160.120135,70.0,78.0
533,159.76471408333333,160.12164102083335,63.0,84.0
534,157.59604408333334,160.15477347916666,51.0,88.0
535,159.04182408333335,160.1562795,58.0,80.0
536,160.3008575,160.48158,51.0,78.0
537,160.48760408333334,160.7933263125,75.0,89.0
538,160.48760408333334,160.84904908333334,51.0,84.0
539,160.843025,160.84904908333334,51.0,73.0
540,160.48760408333334,161.4258550625,70.0,100.0
541,160.84904908333334,161.57193908333335,58.0,76.0
542,161.20447000000001,161.8957335625,66.0,96.0
543,161.20447000000001,161.918323875,75.0,98.0
544,161.21049408333334,162.00416706250002,63.0,81.0
545,161.93338408333335,162.32043143750002,58.0,90.0
546,162.29482908333333,162.73609318750002,63.0,88.0
547,162.288805,163.011695,51.0,73.0
548,162.65627408333333,163.08398400000002,66.0,102.0
549,162.65025,163.13970677083333,70.0,88.0
550,163.011695,163.37314,51.0,73.0
551,162.65627408333333,163.60356118750002,75.0,88.0
552,163.37916408333334,163.74060908333334,42.0,92.0
553,163.734585,163.74060908333334,42.0,73.0
554,164.10205408333334,164.52373991666667,58.0,88.0
555,164.09603,164.85807654166666,61.0,94.0
556,163.74060908333334,164.98307627083335,54.0,87.0
557,164.63819750000002,164.9996425,42.0,73.0
558,164.10205408333334,165.18187102083334,66.0,88.0
559,165.180365,165.7225325,42.0,73.0
560,165.54181,165.87614662500002,61.0,91.0
561,165.54783408333333,165.9168091875,58.0,93.0
562,165.18638908333335,165.94542358333334,54.0,86.0
563,165.54783408333333,166.2285555,66.0,91.0
564,165.903255,166.2647,42.0,73.0
565,166.27072408333333,166.63216908333334,44.0,96.0
566,166.626145,166.63216908333334,44.0,73.0
567,166.99361408333334,167.33698683333333,68.0,91.0
568,166.98759,167.34903500000001,63.0,73.0
569,166.99361408333334,167.40475777083333,59.0,103.0
570,167.35505908333334,167.8595760625,56.0,81.0
571,166.63216908333334,168.713489875,51.0,86.0
572,168.07794908333335,168.72403202083333,56.0,80.0
573,168.43939408333333,168.78879091666667,59.0,97.0
574,168.071925,168.794815,44.0,73.0
575,168.43939408333333,168.803851125,68.0,94.0
576,168.43337,168.9755375,63.0,73.0
577,168.794815,169.15626,44.0,73.0
578,169.16228408333333,169.52372908333334,46.0,91.0
579,169.517705,169.52372908333334,46.0,78.0
580,169.87915,170.240595,62.0,78.0
581,169.87915,170.240595,65.0,78.0
582,169.88517408333334,170.35204054166667,58.0,107.0
583,170.42131750000001,170.60204000000002,46.0,78.0
584,170.60806408333335,170.9273405,62.0,109.0
585,170.60806408333335,170.93336458333334,65.0,100.0
586,170.60204000000002,170.96348500000002,46.0,78.0
587,170.96950908333335,171.397219,58.0,88.0
588,170.96950908333335,171.397219,58.0,88.0
589,171.33095408333335,171.58245956250002,62.0,113.0
590,171.33095408333335,171.58245956250002,62.0,113.0
591,171.33095408333335,171.58396558333334,65.0,107.0
592,171.33095408333335,171.58396558333334,65.0,107.0
593,170.96348500000002,171.686375,46.0,78.0
594,169.52372908333334,171.69390510416667,53.0,84.0
595,171.69239908333333,172.07191633333335,58.0,87.0
596,171.69239908333333,172.07191633333335,58.0,87.0
597,172.05384408333333,172.36860243750002,63.0,90.0
598,172.05384408333333,172.41528908333333,51.0,85.0
599,172.05384408333333,172.41528908333333,51.0,85.0
600,172.409265,172.41528908333333,51.0,78.0
601,172.05384408333333,172.48908410416666,70.0,96.0
602,172.05384408333333,172.69691497916668,66.0,100.0
603,172.77673408333334,173.31137147916667,70.0,94.0
604,172.77673408333334,173.31137147916667,70.0,94.0
605,172.77673408333334,173.33847985416668,65.0,100.0
606,172.77673408333334,173.33847985416668,65.0,100.0
607,172.41528908333333,173.65775627083335,58.0,84.0
608,172.41528908333333,173.65775627083335,58.0,84.0
609,173.49360000000001,173.85504500000002,51.0,78.0
610,173.49962408333334,173.87010520833334,63.0,98.0
611,173.49962408333334,173.87010520833334,63.0,98.0
612,173.49962408333334,173.87462327083335,70.0,94.0
613,173.49962408333334,173.87462327083335,70.0,94.0
614,173.49962408333334,173.8866714375,66.0,107.0
615,173.49962408333334,173.8866714375,66.0,107.0
616,173.86106908333335,174.38516433333334,58.0,86.0
617,173.86106908333335,174.38516433333334,58.0,86.0
618,173.85504500000002,174.41829679166668,51.0,78.0
619,174.22251408333335,174.63817583333335,63.0,107.0
620,174.22251408333335,174.63817583333335,63.0,107.0
621,174.22251408333335,175.020705125,70.0,98.0
622,174.22251408333335,175.020705125,70.0,98.0
623,174.94540408333333,175.30684908333333,44.0,88.0
624,174.94540408333333,175.30684908333333,44.0,88.0
625,175.300825,175.30684908333333,44.0,78.0
626,174.94540408333333,175.48757158333333,59.0,97.0
627,174.94540408333333,175.48757158333333,59.0,97.0
628,174.94540408333333,175.66829408333334,68.0,96.0
629,174.94540408333333,175.66829408333334,68.0,96.0
630,175.66227,175.66829408333334,68.0,102.0
631,175.66227,175.8746189375,59.0,100.0
632,176.02973908333334,176.30534089583335,59.0,100.0
633,176.02973908333334,176.38214795833335,68.0,102.0
634,175.66829408333334,176.49811156250001,56.0,78.0
635,175.66829408333334,176.49811156250001,56.0,78.0
636,176.39118408333334,176.72401468750002,63.0,100.0
637,176.39118408333334,176.72401468750002,63.0,100.0
638,176.38516,176.74660500000002,44.0,78.0
639,176.74660500000002,177.4469046875,44.0,78.0
640,177.11407408333335,177.46196489583335,59.0,100.0
641,177.11407408333335,177.46196489583335,59.0,100.0
642,175.30684908333333,177.48606122916667,51.0,74.0
643,175.30684908333333,177.48606122916667,51.0,74.0
644,177.11407408333335,177.66527770833335,68.0,98.0
645,177.11407408333335,177.66527770833335,68.0,98.0
646,176.75262908333335,177.713470375,56.0,86.0
647,176.75262908333335,177.713470375,56.0,86.0
648,177.47551908333335,177.78274733333333,63.0,81.0
649,177.47551908333335,177.78274733333333,63.0,81.0
650,177.83696408333333,178.19087897916668,61.0,88.0
651,177.83696408333333,178.19087897916668,61.0,88.0
652,177.83696408333333,178.19840908333333,49.0,88.0
653,177.83696408333333,178.19840908333333,49.0,88.0
654,178.192385,178.19840908333333,49.0,78.0
655,177.83696408333333,178.25413185416667,68.0,88.0
656,177.83696408333333,178.29780645833333,65.0,90.0
657,178.19840908333333,178.5899745,56.0,77.0
658,178.55985408333333,178.96798572916668,68.0,87.0
659,178.55985408333333,178.96798572916668,68.0,87.0
660,178.55383,179.014672375,65.0,90.0
661,178.55985408333333,179.15322629166667,61.0,89.0
662,178.55985408333333,179.15322629166667,61.0,89.0
663,178.55383,179.27672,49.0,78.0
664,178.92129908333334,179.35051502083334,56.0,77.0
665,179.27672,179.63816500000001,49.0,78.0
666,179.28274408333334,179.701417875,68.0,98.0
667,179.27672,179.73906839583333,61.0,96.0
668,179.28274408333334,179.7450924791667,63.0,96.0
669,179.64418908333334,180.04780266666668,56.0,83.0
670,179.99961000000002,180.315874375,65.0,86.0
671,180.00563408333335,180.35503091666666,63.0,91.0
672,180.00563408333335,180.35503091666666,63.0,91.0
673,180.00563408333335,180.38966939583335,68.0,107.0
674,180.00563408333335,180.38966939583335,68.0,107.0
675,179.63816500000001,180.40021154166666,49.0,78.0
676,180.36707908333335,180.68334345833333,65.0,86.0
677,180.36707908333335,180.79780104166667,56.0,75.0
678,180.36707908333335,180.79780104166667,56.0,75.0
679,180.72852408333333,181.03424631250002,63.0,92.0
680,180.72852408333333,181.03424631250002,63.0,92.0
681,180.72852408333333,181.06888479166668,66.0,87.0
682,180.72852408333333,181.06888479166668,66.0,87.0
683,180.72852408333333,181.08996908333333,51.0,84.0
684,180.72852408333333,181.08996908333333,51.0,84.0
685,181.083945,181.08996908333333,51.0,78.0
686,181.44539,181.68334129166666,70.0,90.0
687,181.44539,181.74960620833335,65.0,88.0
688,181.9875575,181.99358158333334,51.0,78.0
689,181.45141408333333,182.17430408333334,63.0,86.0
690,182.89117000000002,183.0854466875,66.0,102.0
691,182.89117000000002,183.13665139583333,70.0,98.0
692,181.08996908333333,183.2390608125,58.0,77.0
693,181.08996908333333,183.2390608125,58.0,77.0
694,182.89117000000002,183.25261500000002,63.0,78.0
695,182.529725,183.4333375,51.0,78.0
696,183.62008408333335,183.98152908333333,51.0,87.0
697,183.62008408333335,183.9890591875,70.0,89.0
698,183.62008408333335,184.02670970833333,63.0,91.0
699,183.62008408333335,184.0432759375,66.0,88.0
700,184.34297408333333,184.48905810416667,63.0,87.0
701,184.34297408333333,184.49207014583334,70.0,89.0
702,184.34297408333333,184.6968889791667,66.0,88.0
703,184.1562275,184.8791175,51.0,78.0
704,184.88514158333334,184.93333425,70.0,81.0
705,184.88514158333334,184.942370375,66.0,86.0
706,184.88514158333334,184.94990047916667,63.0,86.0
707,184.70441908333333,185.37459835416666,58.0,68.0
708,185.24658658333334,185.574899125,70.0,88.0
709,185.24658658333334,185.60501954166668,63.0,88.0
710,185.24658658333334,185.60803158333334,66.0,88.0
711,185.60803158333334,185.86254910416667,58.0,79.0
712,185.78875408333334,186.2751988125,70.0,108.0
713,185.78875408333334,186.28724697916667,63.0,108.0
714,185.78875408333334,186.29477708333334,66.0,110.0
715,184.8791175,186.50562,51.0,78.0
716,186.51164408333335,186.76465558333334,63.0,84.0
717,186.51164408333335,186.76616160416668,70.0,86.0
718,186.51164408333335,186.7721856875,66.0,84.0
719,186.87308908333333,186.92881185416667,66.0,74.0
720,187.23453408333333,187.580918875,70.0,83.0
721,187.23453408333333,187.62459347916666,63.0,94.0
722,187.23453408333333,187.70893064583333,66.0,96.0
723,187.77670158333333,187.83995445833335,63.0,88.0
724,187.77670158333333,187.84146047916667,66.0,80.0
725,187.77670158333333,187.8474845625,70.0,87.0
726,187.59597908333333,188.16073689583334,58.0,67.0
727,188.13814658333334,188.44688085416666,70.0,89.0
728,188.13814658333334,188.46947116666666,63.0,89.0
729,188.13814658333334,188.4980855625,66.0,88.0
730,188.31886908333334,188.63663947916666,58.0,84.0
731,186.51164408333335,189.10953002083335,51.0,83.0
732,189.04175908333335,189.3926619375,58.0,68.0
733,188.68031408333334,189.49356533333335,63.0,91.0
734,188.68031408333334,189.54778208333335,70.0,94.0
735,188.68031408333334,189.568866375,66.0,100.0
736,189.76464908333335,189.83543206250002,63.0,78.0
737,190.12609408333333,190.53573175,70.0,92.0
738,190.48753908333333,190.53573175,70.0,87.0
739,190.12609408333333,190.55681604166668,63.0,102.0
740,190.48753908333333,190.55681604166668,63.0,89.0
741,190.12609408333333,190.57790033333333,66.0,108.0
742,190.66826158333333,190.70440608333334,66.0,86.0
743,190.48753908333333,191.07940527083335,58.0,74.0
744,191.02970658333334,191.4257900625,63.0,91.0
745,191.02970658333334,191.42880210416666,70.0,88.0
746,191.39115158333334,191.638139,58.0,81.0
747,191.57187408333334,191.900186625,63.0,96.0
748,191.57187408333334,191.99657195833333,70.0,85.0
749,192.11404158333335,192.16374027083333,66.0,52.0
750,191.75259658333334,192.17428241666667,58.0,87.0
751,189.40320408333335,192.17880047916668,51.0,87.0
752,191.93331908333334,192.20139079166668,65.0,86.0
753,192.29476408333335,192.74958237500002,70.0,87.0
754,192.29476408333335,192.75560645833335,63.0,88.0
755,192.29476408333335,192.77669075,66.0,88.0
756,192.65620908333335,192.97548550000002,58.0,77.0
757,193.01765408333333,193.43030379166666,70.0,96.0
758,193.01765408333333,193.45138808333334,63.0,104.0
759,193.55982158333333,193.59446006250002,70.0,78.0
760,193.55982158333333,193.598978125,66.0,86.0
761,193.55982158333333,193.635122625,63.0,89.0
762,193.37909908333333,194.02970008333335,58.0,69.0
763,193.92126658333333,194.25259116666666,63.0,91.0
764,193.92126658333333,194.32488016666667,70.0,90.0
765,194.46343408333334,194.53873512500002,63.0,107.0
766,194.46343408333334,194.68180710416667,70.0,88.0
767,194.64415658333334,194.746566,65.0,88.0
768,195.00560158333334,195.06885445833333,70.0,72.0
769,194.82487908333334,195.07789058333333,66.0,87.0
770,194.28271158333334,195.08240864583334,58.0,86.0
771,192.29476408333335,195.08692670833335,51.0,84.0
772,195.00560158333334,195.13210733333335,65.0,79.0
773,195.18632408333335,195.5914436875,70.0,87.0
774,195.18632408333335,195.60800991666667,66.0,87.0
775,195.18632408333335,195.614034,63.0,88.0
776,195.54776908333335,195.91222612500002,58.0,64.0
777,195.90921408333335,196.34294808333334,63.0,104.0
778,195.90921408333335,196.36102033333333,70.0,96.0
779,196.45138158333333,196.49806822916668,66.0,87.0
780,196.45138158333333,196.5176465,63.0,88.0
781,196.45138158333333,196.52065854166668,70.0,86.0
782,196.27065908333333,196.83541689583333,58.0,70.0
783,196.81282658333333,197.15318729166668,63.0,87.0
784,196.81282658333333,197.17427158333334,70.0,88.0
785,196.81282658333333,197.177283625,66.0,89.0
786,197.17427158333334,197.39565664583333,58.0,81.0
787,195.18632408333335,197.87457127083334,51.0,87.0
788,197.35499408333334,197.88059535416667,63.0,98.0
789,197.35499408333334,197.900173625,66.0,100.0
790,197.35499408333334,197.91071577083335,70.0,92.0
791,197.71643908333334,198.12306470833335,58.0,82.0
792,198.07788408333334,198.26463066666668,63.0,86.0
793,198.07788408333334,198.27216077083335,70.0,88.0
794,198.07788408333334,198.279690875,66.0,87.0
795,198.43932908333335,198.49956991666667,63.0,81.0
796,198.43932908333335,198.50107593750002,66.0,81.0
797,198.43932908333335,198.52216022916667,70.0,83.0
798,198.80077408333335,199.1968575625,70.0,98.0
799,198.80077408333335,199.22245991666668,63.0,104.0
800,198.80077408333335,199.22547195833334,66.0,107.0
801,199.34294158333333,199.40619445833335,63.0,84.0
802,199.34294158333333,199.4092065,66.0,86.0
803,199.70438658333333,199.75860333333335,63.0,88.0
804,199.70438658333333,199.779687625,66.0,90.0
805,199.70438658333333,199.79022977083335,70.0,88.0
806,199.16221908333333,199.88962714583334,58.0,72.0
807,199.88510908333333,199.88962714583334,58.0,76.0
808,198.07788408333334,200.7450469791667,51.0,83.0
809,200.24655408333334,200.75257708333334,63.0,100.0
810,200.24655408333334,200.76462525,70.0,92.0
811,200.24655408333334,200.79022760416666,66.0,102.0
812,200.60799908333334,201.00107052083334,58.0,74.0
813,200.96944408333334,201.35799745833333,63.0,88.0
814,200.96944408333334,201.3745636875,66.0,87.0
815,200.96944408333334,201.3745636875,70.0,85.0
816,201.33088908333335,201.77516522916667,58.0,65.0
817,201.69233408333335,202.14715237500002,63.0,92.0
818,201.69233408333335,202.14715237500002,70.0,88.0
819,201.69233408333335,202.15468247916667,66.0,91.0
820,202.23450158333333,202.30227252083333,63.0,87.0
821,202.23450158333333,202.30679058333334,66.0,87.0
822,202.23450158333333,202.31281466666667,70.0,83.0
823,202.05377908333335,202.57335627083333,58.0,81.0
824,202.59594658333333,202.94082535416666,70.0,84.0
825,202.59594658333333,202.9513675,63.0,88.0
826,202.59594658333333,202.99203006250002,66.0,88.0
827,202.95739158333333,203.17877664583335,58.0,73.0
828,203.13811408333333,203.683293625,63.0,89.0
829,203.13811408333333,203.68781168750002,70.0,90.0
830,200.96944408333334,203.69232975,51.0,84.0
831,203.13811408333333,203.75407660416667,66.0,89.0
832,203.49955908333334,203.918232875,58.0,76.0
833,203.86100408333334,204.3203404375,63.0,87.0
834,203.86100408333334,204.3564849375,70.0,88.0
835,203.86100408333334,204.36401504166668,66.0,84.0
836,204.40317158333335,204.58991816666668,58.0,71.0
837,204.58389408333335,204.99353175000002,70.0,87.0
838,204.58389408333335,204.9980498125,63.0,89.0
839,204.58389408333335,205.0251581875,66.0,90.0
840,205.12606158333335,205.18630241666668,66.0,87.0
841,205.12606158333335,205.19082047916666,63.0,87.0
842,205.12606158333335,205.21341079166666,70.0,87.0
843,204.94533908333335,205.52967516666666,58.0,73.0
844,205.48750658333333,205.84593954166667,63.0,89.0
845,205.48750658333333,205.88208404166667,66.0,91.0
846,205.48750658333333,205.88208404166667,70.0,89.0
847,205.84895158333333,206.07334868750002,58.0,84.0
848,206.02967408333333,206.4980465625,63.0,104.0
849,206.02967408333333,206.520636875,70.0,98.0
850,206.02967408333333,206.53117902083335,66.0,107.0
851,203.86100408333334,206.7510580625,51.0,80.0
852,206.39111908333334,206.76611827083335,58.0,84.0
853,206.75256408333334,206.83087716666668,63.0,90.0
854,206.75256408333334,206.83388920833335,66.0,92.0
855,206.75256408333334,206.85346747916668,70.0,91.0
856,209.64412408333334,210.0492436875,63.0,88.0
857,209.64412408333334,210.478459625,70.0,88.0
858,210.36701408333334,211.10797633333334,63.0,85.0
859,210.72845908333335,211.1245425625,65.0,86.0
860,210.72845908333335,211.48598756250001,70.0,88.0
861,211.08990408333335,211.50255379166668,66.0,88.0
862,211.45134908333335,211.89110716666667,63.0,86.0
863,210.00556908333334,211.95436004166666,58.0,72.0
864,209.64412408333334,212.11550427083333,51.0,86.0
865,211.81279408333333,212.592912875,66.0,104.0
866,211.81279408333333,212.62604533333334,70.0,91.0
867,213.25857408333334,213.7179104375,66.0,91.0
868,213.25857408333334,213.758573,73.0,100.0
869,213.80074158333335,214.10947585416667,70.0,98.0
870,213.80074158333335,214.12303004166668,66.0,88.0
871,212.89712908333334,214.27664416666667,61.0,85.0
872,214.16218658333335,214.51459545833333,66.0,91.0
873,214.16218658333335,214.52664362500002,70.0,89.0
874,214.52363158333335,214.906160875,61.0,84.0
875,212.53568408333334,215.00555825,54.0,83.0
876,214.70435408333333,215.41368989583333,70.0,110.0
877,214.70435408333333,215.4167019375,66.0,110.0
878,216.15013408333334,216.70886781250002,68.0,92.0
879,216.15013408333334,216.77513272916667,59.0,88.0
880,216.51157908333334,216.99501177083334,56.0,78.0
881,217.05374658333335,217.13657772916667,68.0,30.0
882,216.87302408333335,217.28266175000002,63.0,90.0
883,215.42724408333333,217.9633831666667,44.0,96.0
884,217.59591408333335,217.9648891875,59.0,100.0
885,217.23446908333335,218.13808158333333,56.0,84.0
886,215.78868908333334,218.32482816666666,51.0,82.0
887,217.95735908333333,218.37753889583334,63.0,88.0
888,217.59591408333335,218.46338208333333,68.0,88.0
889,219.04169408333334,219.180248,62.0,97.0
890,219.22241658333334,219.46789797916668,63.0,91.0
891,219.40313908333334,219.61247597916667,65.0,91.0
892,219.58386158333334,219.66669272916667,68.0,88.0
893,219.76458408333335,219.96036679166667,70.0,100.0
894,219.94530658333335,220.08536652083333,74.0,88.0
895,220.12602908333335,220.3594623125,75.0,100.0
896,220.30675158333335,220.41066702083333,77.0,94.0
897,220.48747408333335,220.68626883333334,80.0,102.0
898,220.66819658333335,220.8549431666667,77.0,88.0
899,218.31880408333333,220.9106659375,46.0,89.0
900,218.68024908333334,220.915184,53.0,85.0
901,220.84891908333333,221.0552439375,82.0,91.0
902,218.86097158333334,221.06428006250002,58.0,88.0
903,221.02964158333333,221.17723162500002,75.0,87.0
904,221.21036408333333,221.4513274166667,78.0,98.0
905,221.21036408333333,221.45584547916667,82.0,98.0
906,221.21036408333333,221.46789364583333,75.0,93.0
907,221.93325408333334,222.5100600625,70.0,93.0
908,221.93325408333334,222.55975875000001,65.0,91.0
909,222.29469908333334,222.83084250000002,63.0,79.0
910,222.65614408333334,223.0431914375,70.0,96.0
911,222.65614408333334,223.2329500625,66.0,96.0
912,223.01758908333335,223.39710633333334,63.0,86.0
913,221.57180908333333,223.4588531875,58.0,74.0
914,221.21036408333333,223.53867229166667,51.0,90.0
915,223.37903408333335,223.73144295833333,65.0,104.0
916,223.37903408333335,223.75855133333334,70.0,100.0
917,223.74047908333335,223.92421362500002,66.0,86.0
918,224.10192408333333,224.25704422916667,42.0,87.0
919,224.82481408333334,225.22240358333335,68.0,93.0
920,224.82481408333334,225.24047583333333,59.0,97.0
921,225.18625908333334,225.2751143125,63.0,89.0
922,225.18625908333334,225.91366714583333,56.0,81.0
923,225.72842658333334,226.110955875,68.0,93.0
924,225.72842658333334,226.12902812500002,59.0,100.0
925,226.08987158333335,226.345895125,56.0,88.0
926,224.10192408333333,226.64107520833335,44.0,87.0
927,224.46336908333333,226.65011133333334,51.0,84.0
928,226.27059408333335,226.6621595,59.0,100.0
929,226.63203908333335,226.88203854166667,56.0,84.0
930,226.27059408333335,226.89559272916668,68.0,102.0
931,226.63203908333335,226.92270110416666,63.0,81.0
932,227.71637408333333,228.19077064583334,70.0,107.0
933,227.71637408333333,228.30372220833334,61.0,102.0
934,228.25854158333334,228.3970955,65.0,90.0
935,228.07781908333334,228.66215516666668,58.0,83.0
936,228.61998658333334,228.92269677083334,61.0,86.0
937,228.61998658333334,228.9437810625,70.0,86.0
938,228.80070908333335,229.02811822916667,58.0,88.0
939,226.99348408333333,229.544683375,46.0,94.0
940,227.35492908333333,229.5672736875,53.0,84.0
941,229.16215408333335,229.6305265625,70.0,108.0
942,229.16215408333335,229.84136947916667,65.0,116.0
943,229.52359908333335,229.8835380625,58.0,88.0
944,229.88504408333336,230.09889904166667,63.0,92.0
945,229.88504408333336,230.385043,66.0,98.0
946,229.88504408333336,230.7058254375,70.0,91.0
947,230.78865658333333,230.9136563125,65.0,90.0
948,230.96937908333334,231.10492095833334,66.0,90.0
949,231.15010158333334,231.22540262500002,70.0,90.0
950,231.33082408333334,231.54166700000002,75.0,100.0
951,231.51154658333334,231.62148610416668,77.0,89.0
952,231.87299158333335,232.05823214583333,82.0,63.0
953,232.05371408333335,232.28865333333334,87.0,82.0
954,232.23443658333335,232.44829154166666,89.0,88.0
955,230.60793408333333,232.52208656250002,63.0,102.0
956,229.88504408333336,232.59738760416667,51.0,88.0
957,230.24648908333333,232.62298995833333,58.0,84.0
958,232.41515908333335,232.67871272916668,90.0,102.0
959,232.77660408333335,232.9016038125,90.0,94.0
960,232.77660408333335,232.942266375,82.0,96.0
961,233.49949408333333,233.84286683333335,70.0,108.0
962,233.49949408333333,234.11093854166668,66.0,98.0
963,233.86093908333334,234.26455266666667,63.0,83.0
964,232.77660408333335,234.71485289583333,51.0,96.0
965,234.58382908333334,234.731419125,63.0,89.0
966,234.22238408333334,234.75250341666668,70.0,100.0
967,234.22238408333334,234.84888875000001,65.0,96.0
968,233.13804908333333,234.86997304166667,58.0,81.0
969,234.94527408333335,235.23443008333334,53.0,87.0
970,235.12599658333335,235.24497222916668,65.0,88.0
971,234.94527408333335,235.29918897916667,66.0,104.0
972,234.94527408333335,235.30069500000002,70.0,107.0
973,235.66816408333335,235.90460935416667,66.0,94.0
974,235.66816408333335,235.951296,70.0,91.0
975,235.66816408333335,236.03262112500002,61.0,91.0
976,236.39105408333333,236.72840275000001,66.0,104.0
977,236.39105408333333,236.82478808333335,58.0,102.0
978,236.39105408333333,236.84436635416668,61.0,113.0
979,236.93322158333334,236.9934624166667,61.0,94.0
980,236.93322158333334,237.00701660416667,58.0,92.0
981,236.93322158333334,237.01153466666668,66.0,94.0
982,236.75249908333333,237.2750883125,54.0,80.0
983,237.29466658333334,237.60189483333335,58.0,100.0
984,237.29466658333334,237.60189483333335,66.0,102.0
985,237.29466658333334,237.64255739583334,61.0,108.0
986,237.65611158333334,237.92267727083333,54.0,89.0
987,237.83683408333334,238.2238814375,58.0,113.0
988,235.66816408333335,238.2314115416667,42.0,89.0
989,237.83683408333334,238.42418220833335,66.0,108.0
990,238.19827908333335,238.45129058333333,54.0,86.0
991,236.02960908333336,238.544663875,49.0,77.0
992,237.83683408333334,238.55219397916667,61.0,116.0
993,239.28261408333333,239.65911929166668,68.0,107.0
994,239.28261408333333,239.73291431250001,59.0,97.0
995,239.82478158333333,239.900082625,59.0,90.0
996,239.82478158333333,239.91966089583335,68.0,108.0
997,239.64405908333333,240.19827475,56.0,83.0
998,240.18622658333334,240.52357525000002,68.0,91.0
999,240.18622658333334,240.61092445833333,59.0,88.0
1000,240.36694908333334,240.62146660416667,56.0,93.0
1001,238.55972408333335,241.10941735416668,44.0,93.0
1002,240.72839408333334,241.147067875,59.0,100.0
1003,238.92116908333335,241.38953722916668,51.0,84.0
1004,241.08983908333335,241.40158539583334,56.0,88.0
1005,240.72839408333334,241.89104216666667,68.0,108.0
1006,241.99345158333335,242.13351152083334,62.0,86.0
1007,242.17417408333336,242.45579997916667,63.0,94.0
1008,242.35489658333333,242.47236620833334,65.0,91.0
1009,242.53561908333333,242.68320912500002,68.0,104.0
1010,241.81272908333335,242.69375127083333,58.0,98.0
1011,242.71634158333333,242.81573895833336,63.0,88.0
1012,242.89706408333333,243.30218368750002,70.0,114.0
1013,242.89706408333333,243.34585829166667,63.0,114.0
1014,243.25850908333334,243.48591822916669,58.0,86.0
1015,243.43923158333334,243.49495435416668,70.0,96.0
1016,243.43923158333334,243.77658025,63.0,108.0
1017,243.43923158333334,243.7991705625,68.0,110.0
1018,241.27056158333335,244.07326635416666,46.0,87.0
1019,243.80067658333334,244.08832656250001,58.0,98.0
1020,243.98139908333334,244.21332629166668,70.0,110.0
1021,243.98139908333334,244.22989252083335,63.0,116.0
1022,241.63200658333335,244.24645875000002,53.0,88.0
1023,244.16212158333335,244.31724172916668,58.0,85.0
1024,244.34284408333335,244.69977102083334,63.0,107.0
1025,244.34284408333335,244.74043358333336,70.0,104.0
1026,244.34284408333335,244.88049352083334,66.0,108.0
1027,244.70428908333335,245.08380633333334,58.0,79.0
1028,245.06573408333335,245.42717908333333,70.0,108.0
1029,245.06573408333335,245.45880552083335,63.0,113.0
1030,245.06573408333335,245.46332358333333,66.0,114.0
1031,245.60790158333333,245.66362435416667,70.0,78.0
1032,245.60790158333333,245.67266047916667,66.0,90.0
1033,245.60790158333333,245.6816966041667,63.0,88.0
1034,245.42717908333333,246.0672379375,58.0,81.0
1035,245.96934658333333,246.29615310416668,70.0,100.0
1036,245.96934658333333,246.3232614791667,63.0,100.0
1037,245.96934658333333,246.3232614791667,66.0,108.0
1038,246.51151408333334,246.53259837500002,69.0,97.0
1039,246.33079158333334,246.6365138125,58.0,87.0
1040,244.34284408333335,246.96934441666667,51.0,87.0
1041,246.87295908333334,246.984404625,58.0,86.0
1042,246.51151408333334,247.28259675,66.0,117.0
1043,246.51151408333334,247.29313889583335,70.0,100.0
1044,246.51151408333334,247.29615093750002,63.0,114.0
1045,247.95729408333335,248.30518489583335,68.0,104.0
1046,247.95729408333335,248.37295583333335,59.0,97.0
1047,248.49946158333333,248.5431361875,68.0,88.0
1048,248.31873908333336,248.57928068750002,56.0,83.0
1049,248.49946158333333,248.58982283333333,63.0,100.0
1050,248.86090658333333,249.24343587500002,68.0,100.0
1051,248.86090658333333,249.26903822916668,59.0,103.0
1052,249.04162908333333,249.29464058333335,56.0,87.0
1053,247.23440408333335,249.77656725,44.0,108.0
1054,249.40307408333334,249.77957929166666,59.0,103.0
1055,249.40307408333334,249.80668766666668,68.0,108.0
1056,249.76451908333334,249.99494027083335,56.0,80.0
1057,247.59584908333335,250.08680754166667,51.0,83.0
1058,250.12596408333334,250.40156589583333,58.0,87.0
1059,250.12596408333334,250.44373447916666,65.0,94.0
1060,250.12596408333334,250.4452405,62.0,87.0
1061,250.84885408333335,250.96331166666667,62.0,95.0
1062,250.84885408333335,251.0943354791667,65.0,91.0
1063,251.21029908333335,251.65005716666667,58.0,84.0
1064,251.57174408333333,251.78710506250002,61.0,94.0
1065,251.57174408333333,251.83077966666667,65.0,107.0
1066,251.57174408333333,251.8488519166667,70.0,96.0
1067,251.93318908333333,252.34583879166667,58.0,81.0
1068,252.29463408333334,252.52204322916668,62.0,100.0
1069,250.12596408333334,252.66812725,46.0,87.0
1070,252.29463408333334,252.69975368750002,70.0,98.0
1071,250.48740908333335,252.70577777083335,53.0,84.0
1072,252.65607908333334,253.0069819375,58.0,80.0
1073,253.01752408333334,253.21029475,63.0,88.0
1074,253.01752408333334,253.32475233333335,70.0,90.0
1075,253.01752408333334,253.35788479166666,66.0,93.0
1076,253.74041408333335,253.93017270833334,65.0,88.0
1077,253.92113658333335,254.00396772916667,66.0,96.0
1078,254.10185908333335,254.2795695416667,70.0,88.0
1079,254.28258158333335,254.41511141666666,75.0,88.0
1080,254.46330408333336,254.60185800000002,77.0,88.0
1081,254.64402658333333,254.72535170833333,78.0,94.0
1082,254.82474908333333,255.07173650000001,82.0,86.0
1083,255.00547158333333,255.11089304166669,87.0,87.0
1084,253.55969158333335,255.44824170833334,63.0,98.0
1085,255.18619408333333,255.50245845833334,89.0,104.0
1086,253.37896908333335,255.53408489583333,58.0,84.0
1087,253.01752408333334,255.5642053125,51.0,88.0
1088,255.54763908333334,255.857879375,90.0,100.0
1089,255.54763908333334,255.89251785416667,82.0,84.0
1090,256.8126965833333,257.177153625,56.0,77.0
1091,256.6319740833333,257.19673189583335,68.0,88.0
1092,255.90908408333334,257.37444235416666,44.0,88.0
1093,256.6319740833333,257.39100858333336,59.0,89.0
1094,256.2705290833333,257.4919119791667,51.0,73.0
1095,257.3548640833333,258.4286569375,46.0,86.0
1096,257.71630908333333,258.5099820625,53.0,83.0
1097,258.07775408333333,258.7569694791667,58.0,91.0
1098,258.43919908333334,258.7885959166667,62.0,88.0
1099,259.52353408333335,260.2931107291667,63.0,84.0
1100,259.16208908333334,260.3172070625,58.0,80.0
1101,259.88497908333335,260.33076125,65.0,86.0
1102,260.24642408333335,260.62292929166665,66.0,92.0
1103,260.60786908333336,261.08828972916666,58.0,87.0
1104,258.80064408333334,261.19220516666667,51.0,84.0
1105,260.96931408333336,261.66208366666666,70.0,91.0
1106,261.69220408333337,262.74039458333334,44.0,81.0
1107,262.4150940833333,263.09129743750003,56.0,80.0
1108,262.05364908333337,263.0958155,51.0,71.0
1109,262.7765390833333,263.2072610416667,59.0,81.0
1110,261.69220408333337,263.27955004166665,68.0,83.0
1111,263.1379840833333,264.32171645833336,62.0,82.0
1112,263.4994290833333,264.4286439375,53.0,82.0
1113,263.1379840833333,264.4316559791667,46.0,81.0
1114,263.86087408333333,264.785570875,58.0,85.0
1115,264.40304158333333,265.03858237500003,63.0,78.0
1116,265.84882158333335,266.23737495833336,65.0,74.0
1117,266.21026658333335,266.3834589791667,66.0,80.0
1118,266.57171158333335,267.71026333333333,70.0,81.0
1119,265.48737658333334,267.7177934375,63.0,83.0
1120,265.12593158333334,267.74339579166667,58.0,68.0
1121,267.47532408333336,267.758456,75.0,83.0
1122,267.11387908333336,267.7735162083333,78.0,80.0
1123,264.76448658333334,267.7900824375,51.0,83.0
