,start,end,pitch,velocity
0,33.940958645833334,34.772555535416664,64.0,83.0
1,34.77429164583333,35.48262469583333,71.0,73.0
2,35.60762464583333,35.97741616458333,71.0,73.0
3,36.02429114583333,36.37672156041666,69.0,73.0
4,36.44095764583333,37.060749064583334,73.0,76.0
5,37.27429064583333,38.048595891666665,64.0,76.0
6,38.10762364583333,38.81074836458333,71.0,72.0
7,38.94095664583333,39.348942593749996,71.0,73.0
8,39.35762314583333,39.729150775,69.0,76.0
9,39.77428964583333,40.38192829166667,73.0,74.0
10,40.60762264583333,41.34199735208333,66.0,74.0
11,41.440955645833334,42.16144146875,73.0,74.0
12,42.27428864583333,42.657969047916666,73.0,69.0
13,42.69095514583333,43.12151052916666,71.0,73.0
14,43.10762164583333,43.8020658125,74.0,76.0
15,43.94095464583333,44.710051560416666,65.0,76.0
16,44.77428764583333,45.489565137499994,73.0,74.0
17,45.60762064583333,45.984356606249996,73.0,74.0
18,46.024287145833334,46.41143976875,71.0,77.0
19,46.44095364583333,46.88887013333333,69.0,73.0
20,46.85762014583333,47.27428664583333,65.0,76.0
21,47.27428664583333,48.105883535416666,64.0,83.0
22,48.10761964583333,48.81595269583333,71.0,73.0
23,48.94095264583333,49.31074416458333,71.0,73.0
24,49.35761914583333,49.710049560416664,69.0,73.0
25,49.77428564583333,50.39407706458333,73.0,76.0
26,50.607618645833334,51.381923891666666,64.0,76.0
27,51.44095164583333,52.14407636458333,71.0,72.0
28,52.27428464583333,52.68227059375,71.0,73.0
29,52.69095114583333,53.062478774999995,69.0,76.0
30,53.10761764583333,53.71525629166666,73.0,74.0
31,53.94095064583333,54.67532535208333,66.0,74.0
32,54.77428364583333,55.49476946875,73.0,74.0
33,55.60761664583333,55.99129704791666,73.0,69.0
34,56.02428314583333,56.454838529166665,71.0,73.0
35,56.44094964583333,57.1353938125,74.0,76.0
36,57.27428264583333,58.04337956041666,65.0,76.0
37,58.10761564583333,58.73261539583333,73.0,74.0
38,58.73261539583333,58.94094864583333,74.0,73.0
39,58.94094864583333,59.31768460625,73.0,74.0
40,59.35761514583333,59.744767768749995,71.0,77.0
41,59.774281645833334,60.22219813333333,69.0,73.0
42,60.19094814583333,60.60761464583333,78.0,76.0
43,60.60761464583333,60.928795072916664,78.0,75.0
44,61.02428114583333,61.33851713124999,73.0,71.0
45,61.44094764583333,61.807266943749994,73.0,74.0
46,61.85761414583333,62.15448902708333,69.0,68.0
47,62.27428064583333,62.684002704166666,69.0,74.0
48,62.69094714583333,62.979141475,66.0,75.0
49,63.10761364583333,63.46698850208333,69.0,75.0
50,63.52428014583333,63.835043910416665,76.0,78.0
51,63.94094664583333,64.2603909625,76.0,77.0
52,64.35761314583333,64.64407136458333,71.0,73.0
53,64.77427964583333,65.09025174166666,71.0,78.0
54,65.19094614583334,65.55379322291667,68.0,73.0
55,65.60761264583333,65.96004306041667,68.0,72.0
56,66.02427914583333,66.36802900833332,64.0,83.0
57,66.44094564583332,66.74302885833333,68.0,79.0
58,66.85761214583333,67.35761194583333,69.0,72.0
59,67.69094514583333,68.07115332708332,66.0,73.0
60,68.10761164583333,68.47045872291666,69.0,72.0
61,68.52427814583334,68.96351408125,66.0,75.0
62,68.94094464583333,69.38365280208333,69.0,72.0
63,69.35761114583333,69.61802770833333,66.0,73.0
64,69.56594439583333,69.98261089583333,69.0,72.0
65,69.98261089583333,70.17011082083333,71.0,70.0
66,70.19094414583333,70.56594399583334,73.0,74.0
67,70.60761064583333,70.86629109791666,74.0,76.0
68,70.81594389583333,72.63017928125,71.0,74.0
69,73.10760964583334,73.53816502916666,73.0,76.0
70,73.52427614583333,73.96698430208333,74.0,83.0
71,73.94094264583333,74.19615087708333,76.0,76.0
72,74.2187203125,74.43052578333332,74.0,78.0
73,74.49649797916666,74.69267845625,73.0,74.0
74,74.77427564583333,74.98260889583332,73.0,73.0
75,75.0520533125,75.21524769166666,74.0,78.0
76,75.32983097916666,75.51212257291667,76.0,73.0
77,75.60760864583332,75.78469190833333,76.0,76.0
78,75.88538631249999,76.06767790625,74.0,75.0
79,76.16316397916667,76.32462224791666,73.0,73.0
80,76.44094164583333,76.78642761875,73.0,75.0
81,76.86976091874999,77.21351078125,81.0,73.0
82,77.27427464583333,77.49649677916666,76.0,74.0
83,77.5520523125,77.76559389375,74.0,73.0
84,77.82982997916666,78.00691324166667,73.0,72.0
85,78.10760764583333,78.3228853375,73.0,74.0
86,78.38538531249999,78.56767690625,74.0,74.0
87,78.66316297916666,78.84545457291667,76.0,73.0
88,78.94094064583332,79.14232945416666,76.0,73.0
89,79.2187183125,79.44614877708332,74.0,76.0
90,79.49649597916667,79.70309311874999,73.0,72.0
91,79.77427364583333,80.03989853958333,73.0,74.0
92,80.19094014583332,80.3333012,69.0,76.0
93,80.39927339583333,80.54510667083333,71.0,70.0
94,80.60760664583333,80.94267595625,73.0,74.0
95,81.02427314583333,81.31246747499999,76.0,78.0
96,81.44093964583332,81.74302285833333,76.0,76.0
97,81.85760614583333,81.97739776458333,69.0,73.0
98,82.06593939583333,82.20656433958332,71.0,73.0
99,82.27427264583334,82.60934195624999,73.0,72.0
100,82.69093914583333,82.99128624791666,76.0,74.0
101,83.10760564583333,83.44614717708333,76.0,77.0
102,83.52427214583332,83.72218873333333,69.0,70.0
103,83.73260539583333,84.14579967499999,71.0,74.0
104,84.35760514583333,84.51906341458333,69.0,70.0
105,84.56593839583333,84.94267435625,71.0,73.0
106,85.19093814583333,85.34024364166666,69.0,74.0
107,85.39927139583332,85.73260459583332,71.0,73.0
108,85.60760464583333,86.04336836041666,73.0,74.0
109,86.02427114583332,86.2395488375,71.0,72.0
110,86.23260439583333,86.50864595208333,73.0,72.0
111,86.44093764583333,86.76559029375,74.0,78.0
112,86.85760414583333,87.07288183749999,73.0,73.0
113,87.06593739583333,87.2812150875,74.0,81.0
114,87.27427064583333,87.52947887708333,76.0,76.0
115,87.55204831249999,87.76385378333333,74.0,78.0
116,87.82982597916666,88.02600645625,73.0,74.0
117,88.10760364583332,88.31593689583333,73.0,73.0
118,88.3853813125,88.54857569166666,74.0,78.0
119,88.66315897916667,88.84545057291666,76.0,73.0
120,88.94093664583333,89.11801990833332,76.0,76.0
121,89.2187143125,89.40100590624999,74.0,75.0
122,89.49649197916666,89.65795024791666,73.0,73.0
123,89.77426964583333,90.11975561874999,73.0,75.0
124,90.20308891875,90.54683878124999,81.0,73.0
125,90.60760264583332,90.82982477916666,76.0,74.0
126,90.88538031249999,91.09892189374999,74.0,73.0
127,91.16315797916666,91.34024124166666,73.0,72.0
128,91.44093564583333,91.65621333749999,73.0,74.0
129,91.7187133125,91.90100490625,74.0,74.0
130,91.99649097916667,92.17878257291666,76.0,73.0
131,92.27426864583333,92.47565745416667,76.0,73.0
132,92.5520463125,92.77947677708333,74.0,76.0
133,92.82982397916666,93.03642111875,73.0,72.0
134,93.10760164583333,93.37322653958333,73.0,74.0
135,93.52426814583333,93.66662919999999,69.0,76.0
136,93.73260139583333,93.87843467083333,71.0,70.0
137,93.94093464583332,94.27600395625,73.0,74.0
138,94.35760114583333,94.645795475,76.0,78.0
139,94.77426764583333,95.07635085833333,76.0,76.0
140,95.19093414583332,95.31072576458332,69.0,73.0
141,95.39926739583333,95.53989233958333,71.0,73.0
142,95.60760064583333,95.94266995625,73.0,72.0
143,96.02426714583333,96.32461424791666,76.0,74.0
144,96.44093364583333,96.77947517708333,76.0,77.0
145,96.85760014583333,97.05551673333333,69.0,70.0
146,97.06593339583333,97.479127675,71.0,74.0
147,97.69093314583333,97.85239141458332,69.0,70.0
148,97.89926639583332,98.27600235624999,71.0,73.0
149,98.52426614583332,98.67357164166665,69.0,74.0
150,98.73259939583333,98.96002986041667,71.0,73.0
151,98.94093264583333,99.37669636041666,73.0,74.0
152,99.35759914583333,99.82982117916666,74.0,72.0
153,99.77426564583332,100.21870991249999,76.0,78.0
154,100.19093214583333,100.59023754166667,81.0,73.0
155,100.60759864583333,101.00864015208333,69.0,72.0
156,101.02426514583333,101.41315387916666,64.0,76.0
157,101.44093164583333,101.83155648958333,73.0,71.0
158,101.85759814583332,102.26384798333333,69.0,73.0
159,102.27426464583333,102.64926449583332,74.0,81.0
160,102.69093114583333,102.88016718124999,73.0,73.0
161,102.89926439583333,103.14752818541666,69.0,69.0
162,103.10759764583332,103.29509757083333,71.0,73.0
163,103.31593089583333,103.54162525,73.0,73.0
164,103.52426414583333,103.82634735833332,71.0,76.0
165,103.94093064583333,104.35065270416666,69.0,71.0
166,104.35759714583332,104.68572201458333,64.0,74.0
167,104.77426364583333,105.16141626874999,73.0,63.0
168,105.19093014583333,105.60586053541667,69.0,73.0
169,105.60759664583333,106.06592979583333,74.0,81.0
170,106.02426314583333,106.21870751249999,73.0,76.0
171,106.23259639583333,106.4478740875,69.0,66.0
172,106.44092964583332,106.65794344791667,71.0,74.0
173,106.64926289583333,106.89752668541666,73.0,72.0
174,106.85759614583333,107.22738766458333,71.0,73.0
175,107.27426264583333,107.67530415208333,69.0,72.0
176,107.69092914583332,108.07981787916665,64.0,76.0
177,108.10759564583333,108.49822048958333,73.0,71.0
178,108.52426214583333,108.93051198333333,69.0,73.0
179,108.94092864583332,109.31592849583333,74.0,81.0
180,109.35759514583333,109.54683118125,73.0,73.0
181,109.56592839583332,109.81419218541666,69.0,69.0
182,109.77426164583333,109.96176157083333,71.0,73.0
183,109.98259489583333,110.20828924999999,73.0,73.0
184,110.19092814583333,110.49301135833333,71.0,76.0
185,110.60759464583333,111.01731670416666,69.0,71.0
186,111.02426114583332,111.35238601458333,64.0,74.0
187,111.44092764583333,111.82808026875,73.0,63.0
188,111.85759414583333,112.27252453541666,69.0,73.0
189,112.27426064583332,112.73259379583332,74.0,81.0
190,112.69092714583333,112.8853715125,73.0,76.0
191,112.89926039583332,113.1145380875,69.0,66.0
192,113.10759364583333,113.32460744791666,71.0,74.0
193,113.31592689583333,113.56419068541666,73.0,72.0
194,113.52426014583332,113.89405166458333,78.0,73.0
195,113.94092664583333,114.20655153958333,78.0,75.0
196,114.35759314583333,114.77425964583333,73.0,65.0
197,114.77425964583333,115.13189839166667,73.0,74.0
198,115.19092614583333,115.4687038125,69.0,66.0
199,115.60759264583332,115.92009252083332,69.0,75.0
200,116.02425914583333,116.35585623541667,66.0,75.0
201,116.44092564583333,116.83155048958332,69.0,73.0
202,116.85759214583332,117.18050868333333,76.0,68.0
203,117.27425864583333,117.562452975,76.0,76.0
204,117.69092514583333,117.99995279999999,71.0,68.0
205,118.10759164583332,118.42182763125,71.0,76.0
206,118.52425814583333,118.84717468333332,68.0,72.0
207,118.94092464583332,119.29682728124999,68.0,74.0
208,119.35759114583333,119.69092434583332,64.0,78.0
209,119.77425764583333,120.10759084583333,68.0,74.0
210,120.19092414583332,120.60759064583333,69.0,81.0
211,121.02425714583333,121.35932645624999,66.0,74.0
212,121.44092364583332,121.75342352083332,69.0,72.0
213,121.85759014583333,122.18918723541665,66.0,78.0
214,122.27425664583333,122.63363150208333,69.0,73.0
215,122.69092314583332,122.8332842,66.0,78.0
216,122.89925639583333,123.2395340375,69.0,76.0
217,123.31592289583332,123.54335336041666,71.0,72.0
218,123.52425614583332,123.75863105208333,73.0,77.0
219,123.73258939583333,123.87842267083333,74.0,83.0
220,123.94092264583333,125.65967195833332,71.0,74.0
221,126.44092164583333,126.87147702916666,73.0,76.0
222,126.85758814583333,127.30029630208332,74.0,83.0
223,127.27425464583332,127.52946287708333,76.0,76.0
224,127.55203231249999,127.76383778333333,74.0,78.0
225,127.82980997916665,128.02599045624999,73.0,74.0
226,128.10758764583332,128.31592089583333,73.0,73.0
227,128.3853653125,128.54855969166667,74.0,78.0
228,128.66314297916665,128.84543457291667,76.0,73.0
229,128.94092064583333,129.11800390833332,76.0,76.0
230,129.21869831249998,129.40098990625,74.0,75.0
231,129.49647597916666,129.65793424791667,73.0,73.0
232,129.77425364583334,130.11973961875,73.0,75.0
233,130.20307291875,130.54682278125,81.0,73.0
234,130.60758664583332,130.82980877916665,76.0,74.0
235,130.8853643125,131.09890589375,74.0,73.0
236,131.16314197916665,131.34022524166667,73.0,72.0
237,131.44091964583333,131.6561973375,73.0,74.0
238,131.71869731249998,131.90098890625,74.0,74.0
239,131.99647497916666,132.17876657291666,76.0,73.0
240,132.27425264583331,132.47564145416666,76.0,73.0
241,132.5520303125,132.77946077708333,74.0,76.0
242,132.82980797916667,133.03640511875,73.0,72.0
243,133.10758564583332,133.37321053958334,73.0,74.0
244,133.52425214583332,133.6666132,69.0,76.0
245,133.73258539583333,133.87841867083333,71.0,70.0
246,133.94091864583334,134.27598795625,73.0,74.0
247,134.35758514583333,134.64577947499998,76.0,78.0
248,134.77425164583332,135.07633485833333,76.0,76.0
249,135.19091814583334,135.31070976458332,69.0,73.0
250,135.39925139583332,135.53987633958332,71.0,73.0
251,135.60758464583333,135.94265395624998,73.0,72.0
252,136.02425114583332,136.32459824791667,76.0,74.0
253,136.44091764583334,136.77945917708334,76.0,77.0
254,136.85758414583333,137.05550073333333,69.0,70.0
255,137.06591739583334,137.47911167499998,71.0,74.0
256,137.69091714583334,137.85237541458332,69.0,70.0
257,137.89925039583332,138.27598635625,71.0,73.0
258,138.52425014583332,138.67355564166667,69.0,74.0
259,138.73258339583333,139.06591659583333,71.0,73.0
260,138.9409166458333,139.37668036041666,73.0,74.0
261,139.35758314583333,139.5728608375,71.0,72.0
262,139.5659163958333,139.84195795208333,73.0,72.0
263,139.77424964583332,140.09890229375,74.0,78.0
264,140.1909161458333,140.40619383749998,73.0,73.0
265,140.39924939583332,140.6145270875,74.0,81.0
266,140.60758264583333,140.8627908770833,76.0,76.0
267,140.88536031249998,141.09716578333334,74.0,78.0
268,141.16313797916666,141.35931845624998,73.0,74.0
269,141.44091564583331,141.64924889583332,73.0,73.0
270,141.7186933125,141.88188769166666,74.0,78.0
271,141.99647097916665,142.17876257291667,76.0,73.0
272,142.27424864583332,142.45133190833332,76.0,76.0
273,142.5520263125,142.73431790625,74.0,75.0
274,142.82980397916666,142.99126224791667,73.0,73.0
275,143.10758164583333,143.45306761875,73.0,75.0
276,143.53640091875,143.88015078125,81.0,73.0
277,143.94091464583332,144.16313677916665,76.0,74.0
278,144.2186923125,144.43223389374998,74.0,73.0
279,144.49646997916665,144.67355324166667,73.0,72.0
280,144.77424764583333,144.9895253375,73.0,74.0
281,145.05202531249998,145.23431690625,74.0,74.0
282,145.32980297916666,145.51209457291665,76.0,73.0
283,145.60758064583334,145.80896945416666,76.0,73.0
284,145.8853583125,146.11278877708332,74.0,76.0
285,146.16313597916667,146.36973311875,73.0,72.0
286,146.44091364583332,146.70653853958333,73.0,74.0
287,146.85758014583334,146.9999412,69.0,76.0
288,147.06591339583332,147.21174667083332,71.0,70.0
289,147.27424664583333,147.60931595625,73.0,74.0
290,147.69091314583332,147.97910747499998,76.0,78.0
291,148.1075796458333,148.40966285833332,76.0,76.0
292,148.52424614583333,148.64403776458332,69.0,73.0
293,148.7325793958333,148.87320433958334,71.0,73.0
294,148.94091264583332,149.27598195624998,73.0,72.0
295,149.3575791458333,149.65792624791666,76.0,74.0
296,149.77424564583333,150.11278717708333,76.0,77.0
297,150.19091214583332,150.38882873333333,69.0,70.0
298,150.39924539583333,150.81243967499998,71.0,74.0
299,151.02424514583333,151.18570341458332,69.0,70.0
300,151.23257839583331,151.60931435625,71.0,73.0
301,151.85757814583332,152.00688364166666,69.0,74.0
302,152.06591139583333,152.29334186041666,71.0,73.0
303,152.27424464583333,152.71000836041665,73.0,74.0
304,152.69091114583333,153.16313317916666,74.0,72.0
305,153.10757764583332,153.55202191249998,76.0,78.0
306,153.52424414583334,155.60757664583332,81.0,73.0
307,179.77423364583333,180.20478902916665,73.0,76.0
308,180.19090014583333,180.63360830208333,74.0,83.0
309,180.60756664583332,180.86277487708333,76.0,76.0
310,180.8853443125,181.09714978333332,74.0,78.0
311,181.16312197916665,181.35930245625,73.0,74.0
312,181.44089964583333,181.64923289583334,73.0,73.0
313,181.71867731249998,181.88187169166665,74.0,78.0
314,181.99645497916666,182.17874657291665,76.0,73.0
315,182.27423264583334,182.45131590833333,76.0,76.0
316,182.5520103125,182.73430190624998,74.0,75.0
317,182.82978797916667,182.99124624791665,73.0,73.0
318,183.10756564583332,183.45305161874998,73.0,75.0
319,183.53638491875,183.88013478124998,81.0,73.0
320,183.94089864583333,184.16312077916666,76.0,74.0
321,184.21867631249998,184.43221789375,74.0,73.0
322,184.49645397916666,184.67353724166665,73.0,72.0
323,184.7742316458333,184.98950933749998,73.0,74.0
324,185.0520093125,185.23430090624998,74.0,74.0
325,185.32978697916667,185.51207857291666,76.0,73.0
326,185.60756464583332,185.80895345416667,76.0,73.0
327,185.8853423125,186.11277277708334,74.0,76.0
328,186.16311997916665,186.36971711875,73.0,72.0
329,186.44089764583333,186.70652253958332,73.0,74.0
330,186.85756414583332,186.99992519999998,69.0,76.0
331,187.06589739583333,187.21173067083333,71.0,70.0
332,187.2742306458333,187.60929995625,73.0,74.0
333,187.69089714583333,187.979091475,76.0,78.0
334,188.10756364583332,188.40964685833333,76.0,76.0
335,188.52423014583331,188.64402176458333,69.0,73.0
336,188.73256339583332,188.87318833958332,71.0,73.0
337,188.94089664583333,189.27596595625,73.0,72.0
338,189.35756314583332,189.65791024791665,76.0,74.0
339,189.77422964583332,190.11277117708332,76.0,77.0
340,190.19089614583334,190.3888127333333,69.0,70.0
341,190.39922939583332,190.812423675,71.0,74.0
342,191.02422914583332,191.18568741458333,69.0,70.0
343,191.23256239583333,191.60929835624998,71.0,73.0
344,191.85756214583333,192.00686764166664,69.0,74.0
345,192.06589539583334,192.39922859583334,71.0,73.0
346,192.27422864583332,192.70999236041666,73.0,74.0
347,192.6908951458333,192.90617283749998,71.0,72.0
348,192.89922839583332,193.1752699520833,73.0,72.0
349,193.10756164583333,193.43221429374998,74.0,78.0
350,193.52422814583332,193.7395058375,73.0,73.0
351,193.73256139583333,193.9478390875,74.0,81.0
352,193.9408946458333,194.19610287708332,76.0,76.0
353,194.2186723125,194.43047778333332,74.0,78.0
354,194.49644997916667,194.69263045625,73.0,74.0
355,194.77422764583332,194.98256089583333,73.0,73.0
356,195.0520053125,195.21519969166667,74.0,78.0
357,195.32978297916665,195.51207457291665,76.0,73.0
358,195.60756064583333,195.78464390833332,76.0,76.0
359,195.88533831249998,196.06762990624998,74.0,75.0
360,196.16311597916666,196.32457424791664,73.0,73.0
361,196.4408936458333,196.78637961874998,73.0,75.0
362,196.86971291875,197.21346278125,81.0,73.0
363,197.27422664583332,197.49644877916666,76.0,74.0
364,197.5520043125,197.76554589375,74.0,73.0
365,197.82978197916665,198.00686524166665,73.0,72.0
366,198.10755964583333,198.32283733749998,73.0,74.0
367,198.38533731249998,198.56762890624998,74.0,74.0
368,198.66311497916666,198.84540657291666,76.0,73.0
369,198.94089264583332,199.14228145416666,76.0,73.0
370,199.2186703125,199.44610077708333,74.0,76.0
371,199.49644797916665,199.70304511875,73.0,72.0
372,199.77422564583333,200.0398505395833,73.0,74.0
373,200.19089214583332,200.3332532,69.0,76.0
374,200.39922539583333,200.54505867083333,71.0,70.0
375,200.60755864583334,200.94262795625,73.0,74.0
376,201.02422514583333,201.31241947499998,76.0,78.0
377,201.44089164583332,201.74297485833333,76.0,76.0
378,201.8575581458333,201.97734976458332,69.0,73.0
379,202.06589139583332,202.20651633958332,71.0,73.0
380,202.27422464583333,202.60929395624999,73.0,72.0
381,202.69089114583332,202.99123824791667,76.0,74.0
382,203.1075576458333,203.4460991770833,76.0,77.0
383,203.52422414583333,203.72214073333333,69.0,70.0
384,203.7325573958333,204.14575167499999,71.0,74.0
385,204.3575571458333,204.51901541458332,69.0,70.0
386,204.56589039583332,204.94262635625,71.0,73.0
387,205.19089014583332,205.34019564166667,69.0,74.0
388,205.39922339583333,205.62665386041667,71.0,73.0
389,205.6075566458333,206.04332036041666,73.0,74.0
390,206.02422314583333,206.49644517916664,74.0,72.0
391,206.44088964583332,206.8853339125,76.0,78.0
392,207.27422264583333,207.67526415208332,69.0,72.0
393,207.69088914583332,208.07977787916664,64.0,76.0
394,208.10755564583332,208.49818048958332,73.0,71.0
395,208.52422214583333,208.93047198333332,69.0,73.0
396,206.8575561458333,208.94088864583333,81.0,73.0
397,208.94088864583333,209.31588849583332,74.0,81.0
398,209.35755514583332,209.54679118125,73.0,73.0
399,209.56588839583333,209.81415218541665,69.0,69.0
400,209.77422164583334,209.96172157083333,71.0,73.0
401,209.98255489583332,210.20824925,73.0,73.0
402,210.19088814583333,210.49297135833334,71.0,76.0
403,210.60755464583332,211.01727670416665,69.0,71.0
404,211.0242211458333,211.35234601458333,64.0,74.0
405,211.44088764583333,211.82804026875,73.0,63.0
406,211.85755414583332,212.27248453541665,69.0,73.0
407,212.2742206458333,212.73255379583333,74.0,81.0
408,212.69088714583333,212.8853315125,73.0,76.0
409,212.8992203958333,213.11449808749998,69.0,66.0
410,213.10755364583332,213.32456744791665,71.0,74.0
411,213.31588689583333,213.56415068541665,73.0,72.0
412,213.5242201458333,213.89401166458333,71.0,73.0
413,213.94088664583333,214.3419281520833,69.0,72.0
414,214.35755314583332,214.74644187916667,64.0,76.0
415,214.7742196458333,215.16484448958332,73.0,71.0
416,215.19088614583333,215.59713598333332,69.0,73.0
417,215.60755264583332,215.98255249583332,74.0,81.0
418,216.0242191458333,216.21345518125,73.0,73.0
419,216.23255239583332,216.48081618541664,69.0,69.0
420,216.44088564583333,216.62838557083333,71.0,73.0
421,216.64921889583331,216.87491325,73.0,73.0
422,216.85755214583332,217.15963535833333,71.0,76.0
423,217.27421864583332,217.68394070416664,68.0,71.0
424,217.69088514583333,218.01901001458333,64.0,74.0
425,218.10755164583333,218.49470426874998,69.0,63.0
426,218.52421814583332,218.93914853541665,64.0,73.0
427,218.94088464583334,219.39921779583332,71.0,81.0
428,219.35755114583333,219.55199551249999,69.0,76.0
429,219.5658843958333,219.78116208749998,68.0,66.0
430,219.77421764583332,220.1908841458333,69.0,74.0
431,220.1908841458333,220.60755064583333,71.0,72.0
432,220.60755064583333,221.0085921520833,69.0,72.0
433,221.02421714583332,221.41310587916666,64.0,76.0
434,221.4408836458333,221.8315084895833,73.0,71.0
435,221.85755014583333,222.2637999833333,69.0,73.0
436,222.27421664583332,222.64921649583331,74.0,81.0
437,222.6908831458333,222.88011918125,73.0,73.0
438,222.89921639583332,223.14748018541667,69.0,69.0
439,223.10754964583333,223.29504957083333,71.0,73.0
440,223.3158828958333,223.54157725,73.0,73.0
441,223.52421614583332,223.82629935833333,71.0,76.0
442,223.9408826458333,224.35060470416664,69.0,71.0
443,224.35754914583333,224.68567401458333,64.0,74.0
444,224.77421564583332,225.16136826874998,73.0,63.0
445,225.1908821458333,225.60581253541665,69.0,73.0
446,225.60754864583333,226.06588179583332,74.0,81.0
447,226.02421514583332,226.21865951249998,73.0,76.0
448,226.23254839583333,226.44782608749998,69.0,66.0
449,226.44088164583331,226.65789544791664,71.0,74.0
450,226.64921489583332,226.89747868541664,73.0,72.0
451,226.85754814583333,227.22733966458333,71.0,73.0
452,227.27421464583333,227.67525615208334,69.0,72.0
453,227.69088114583332,228.07976987916666,64.0,76.0
454,228.1075476458333,228.4981724895833,73.0,71.0
455,228.52421414583333,228.9304639833333,69.0,73.0
456,228.94088064583332,229.3158804958333,74.0,81.0
457,229.3575471458333,229.54678318125,73.0,73.0
458,229.56588039583332,229.81414418541667,69.0,69.0
459,229.77421364583333,229.96171357083333,71.0,73.0
460,229.9825468958333,230.20824125,73.0,73.0
461,230.19088014583332,230.49296335833333,71.0,76.0
462,230.6075466458333,231.01726870416667,68.0,71.0
463,231.02421314583333,231.35233801458332,64.0,74.0
464,231.44087964583332,231.82803226874998,69.0,63.0
465,231.8575461458333,232.27247653541664,64.0,73.0
466,232.27421264583333,232.73254579583332,74.0,81.0
467,232.69087914583332,232.88532351249998,73.0,76.0
468,232.89921239583333,233.11449008749997,69.0,66.0
469,233.1075456458333,233.31587889583332,71.0,74.0
470,233.31587889583332,233.52421214583333,73.0,73.0
471,233.52421214583333,233.94087864583332,71.0,72.0
472,233.94087864583332,234.34192015208333,69.0,72.0
473,234.3575451458333,234.74643387916666,64.0,76.0
474,234.77421164583333,235.1648364895833,73.0,71.0
475,235.19087814583332,235.5971279833333,69.0,73.0
476,235.60754464583331,235.9825444958333,74.0,81.0
477,236.02421114583333,236.21344718125,73.0,73.0
478,236.23254439583332,236.48080818541666,69.0,69.0
479,236.44087764583333,236.62837757083332,71.0,73.0
480,236.64921089583333,236.87490524999998,73.0,73.0
481,236.85754414583332,237.15962735833332,71.0,76.0
482,237.2742106458333,237.68393270416666,69.0,71.0
483,237.69087714583333,238.01900201458332,64.0,74.0
484,238.10754364583332,238.49469626874998,73.0,63.0
485,238.5242101458333,238.93914053541664,69.0,73.0
486,239.0033766208333,239.48080698541665,74.0,76.0
487,239.44955699791666,239.72039022291665,73.0,68.0
488,239.64747358541666,239.93566791458332,69.0,61.0
489,239.90268181666664,240.17004282083332,71.0,70.0
490,240.13358450208332,240.42177883124998,73.0,71.0
491,240.3853205125,240.72386204375,71.0,73.0
492,240.91136196875,241.3436534625,69.0,70.0
493,241.33670902083333,241.7394866375,64.0,65.0
494,241.7811532875,242.24990309999998,73.0,74.0
495,242.20650033958333,242.4148335895833,69.0,69.0
496,242.60927795625,243.13705552291665,69.0,79.0
497,243.0832361,243.6648330895833,64.0,58.0
498,243.62316643958331,244.187402325,73.0,69.0
499,244.12490234999999,246.94260955624998,69.0,60.0
