,start,end,pitch,velocity
0,7.690969145833333,8.206593939583334,52.0,57.0
1,8.107635645833334,8.673607641666667,57.0,66.0
2,8.524302145833333,8.979163074999999,52.0,41.0
3,8.940968645833333,9.317704606249999,57.0,56.0
4,9.357635145833333,9.914926589583333,52.0,44.0
5,9.774301645833333,10.034718208333333,57.0,62.0
6,7.274302645833333,10.253468120833332,45.0,70.0
7,9.774301645833333,10.612842977083332,64.0,72.0
8,10.190968145833333,10.621523529166666,57.0,66.0
9,11.024301145833332,11.487842627083333,49.0,43.0
10,11.440967645833332,11.979161874999999,54.0,63.0
11,11.440967645833332,12.069439616666665,57.0,61.0
12,11.857634145833332,12.486106116666665,49.0,48.0
13,12.274300645833332,12.81770320625,57.0,60.0
14,12.690967145833334,13.21353638125,49.0,30.0
15,10.607634645833333,13.251730810416666,42.0,68.0
16,13.107633645833333,14.107633245833332,54.0,63.0
17,13.107633645833333,14.234369306249999,57.0,66.0
18,14.357633145833333,14.842007952083332,45.0,54.0
19,14.774299645833333,15.322910537499999,50.0,62.0
20,14.774299645833333,15.357632745833332,57.0,58.0
21,15.607632645833332,16.159715758333334,57.0,59.0
22,15.607632645833332,16.180549083333332,50.0,61.0
23,16.440965645833334,16.58159058958333,50.0,72.0
24,13.940966645833333,17.043395960416667,38.0,74.0
25,16.024299145833332,17.100687604166666,45.0,44.0
26,16.857632145833332,17.371520829166666,50.0,72.0
27,16.440965645833334,17.409715258333332,57.0,65.0
28,17.69096514583333,18.217006602083334,47.0,57.0
29,18.107631645833333,18.711798070833332,59.0,66.0
30,18.107631645833333,18.743048058333333,52.0,69.0
31,18.52429814583333,19.024297945833332,47.0,54.0
32,18.940964645833333,19.361103366666665,59.0,62.0
33,18.940964645833333,19.43054778333333,52.0,65.0
34,19.35763114583333,19.840269841666665,47.0,53.0
35,19.774297645833332,20.524297345833332,52.0,72.0
36,19.774297645833332,20.531241787499997,59.0,68.0
37,17.274298645833333,20.574644547916666,40.0,73.0
38,20.190964145833334,20.607630645833332,47.0,63.0
39,21.024297145833334,21.539921939583333,52.0,57.0
40,21.44096364583333,22.006935641666665,57.0,66.0
41,21.857630145833333,22.312491075,52.0,41.0
42,22.27429664583333,22.65103260625,57.0,56.0
43,22.690963145833333,23.248254589583333,52.0,44.0
44,23.10762964583333,23.368046208333332,57.0,62.0
45,20.607630645833332,23.58679612083333,45.0,70.0
46,23.10762964583333,23.946170977083334,64.0,72.0
47,23.524296145833333,23.954851529166664,57.0,66.0
48,24.357629145833332,24.821170627083333,49.0,43.0
49,24.77429564583333,25.312489874999997,54.0,63.0
50,24.77429564583333,25.402767616666665,57.0,61.0
51,25.190962145833332,25.819434116666667,49.0,48.0
52,25.607628645833334,26.15103120625,57.0,60.0
53,26.02429514583333,26.54686438125,49.0,30.0
54,23.94096264583333,26.585058810416665,42.0,68.0
55,26.440961645833333,27.440961245833332,54.0,63.0
56,26.440961645833333,27.567697306249997,57.0,66.0
57,27.69096114583333,28.175335952083334,45.0,54.0
58,28.107627645833333,28.6562385375,50.0,62.0
59,28.107627645833333,28.690960745833333,57.0,58.0
60,28.940960645833332,29.493043758333332,57.0,59.0
61,28.940960645833332,29.51387708333333,50.0,61.0
62,29.774293645833332,29.914918589583333,50.0,72.0
63,27.274294645833333,30.376723960416665,38.0,74.0
64,29.35762714583333,30.434015604166664,45.0,44.0
65,30.190960145833333,30.704848829166664,50.0,72.0
66,29.774293645833332,30.74304325833333,57.0,65.0
67,31.024293145833333,31.550334602083332,47.0,57.0
68,31.44095964583333,32.045126070833334,59.0,66.0
69,31.44095964583333,32.07637605833333,52.0,69.0
70,31.857626145833333,32.357625945833334,47.0,54.0
71,32.274292645833334,32.69443136666666,59.0,62.0
72,32.274292645833334,32.76387578333333,52.0,65.0
73,32.69095914583333,33.17359784166666,47.0,53.0
74,33.10762564583333,33.857625345833334,52.0,72.0
75,33.10762564583333,33.864569787499995,59.0,68.0
76,30.60762664583333,33.907972547916664,40.0,73.0
77,33.52429214583333,33.940958645833334,47.0,63.0
78,33.940958645833334,34.366305697916665,64.0,72.0
79,33.940958645833334,34.395819575,57.0,62.0
80,34.35762514583333,34.87324993958333,52.0,62.0
81,34.77429164583333,35.37845807083333,64.0,74.0
82,34.77429164583333,35.411444168749995,57.0,67.0
83,34.77429164583333,35.44269415625,61.0,72.0
84,35.190958145833335,35.673596841666665,52.0,71.0
85,33.940958645833334,35.8229023375,45.0,73.0
86,35.60762464583333,36.095471672916666,64.0,74.0
87,35.60762464583333,36.13366610208333,57.0,68.0
88,35.60762464583333,36.15797164791667,61.0,72.0
89,36.02429114583333,36.647554785416666,45.0,57.0
90,36.857624145833334,37.03644351875,45.0,73.0
91,36.44095764583333,37.187485124999995,64.0,76.0
92,36.44095764583333,37.210054560416665,57.0,72.0
93,37.27429064583333,37.6770682625,57.0,40.0
94,37.27429064583333,37.81422098541667,66.0,62.0
95,36.44095764583333,37.852415414583334,61.0,76.0
96,37.69095714583333,38.277762466666665,49.0,56.0
97,38.10762364583333,38.477415164583334,66.0,72.0
98,38.10762364583333,38.480887385416665,61.0,73.0
99,37.27429064583333,38.77255393541667,42.0,70.0
100,38.524290145833334,39.00345662083333,49.0,46.0
101,38.94095664583333,39.512136972916664,57.0,66.0
102,38.94095664583333,39.51908141458333,66.0,61.0
103,38.94095664583333,39.53470640833333,61.0,61.0
104,39.35762314583333,39.901025706249996,49.0,60.0
105,38.94095664583333,39.93922013541666,42.0,61.0
106,39.77428964583333,40.13019228125,61.0,77.0
107,39.77428964583333,40.17533115208333,66.0,69.0
108,40.19095614583333,40.75519203125,57.0,74.0
109,40.60762264583333,41.005191931249996,66.0,59.0
110,40.60762264583333,41.0104002625,62.0,65.0
111,41.02428914583333,41.46005286041667,45.0,44.0
112,40.60762264583333,41.58678892083333,38.0,72.0
113,41.440955645833334,41.58852503125,62.0,69.0
114,41.440955645833334,41.61630279791667,66.0,65.0
115,41.85762214583333,42.44442746666667,57.0,74.0
116,42.27428864583333,42.744774568749996,62.0,69.0
117,42.69095514583333,42.98609391666666,57.0,72.0
118,42.27428864583333,43.270816024999995,50.0,68.0
119,43.10762164583333,43.54512147083333,66.0,74.0
120,43.52428814583333,43.77949637708333,57.0,73.0
121,43.10762164583333,43.84199635208333,62.0,73.0
122,43.94095464583333,44.434010004166666,62.0,71.0
123,43.94095464583333,44.470468322916666,65.0,69.0
124,44.35762114583333,44.87498205,57.0,64.0
125,44.77428764583333,44.93053758333333,62.0,74.0
126,44.77428764583333,45.282967997916664,65.0,73.0
127,45.19095414583333,45.668384510416665,57.0,62.0
128,43.94095464583333,46.0103982625,38.0,73.0
129,45.60762064583333,46.02602325625,62.0,66.0
130,45.60762064583333,46.06942601666666,65.0,70.0
131,46.024287145833334,46.137134322916665,57.0,65.0
132,46.44095364583333,46.64755078541666,59.0,68.0
133,46.44095364583333,47.15102280625,64.0,72.0
134,46.44095364583333,47.21352278125,40.0,74.0
135,46.85762014583333,47.22741166458333,59.0,74.0
136,47.27428664583333,47.69963369791667,64.0,72.0
137,47.27428664583333,47.729147575,57.0,62.0
138,47.69095314583333,48.20657793958333,52.0,62.0
139,48.10761964583333,48.711786070833334,64.0,74.0
140,48.10761964583333,48.744772168749996,57.0,67.0
141,48.10761964583333,48.77602215625,61.0,72.0
142,48.52428614583333,49.00692484166667,52.0,71.0
143,47.27428664583333,49.1562303375,45.0,73.0
144,48.94095264583333,49.42879967291666,64.0,74.0
145,48.94095264583333,49.46699410208333,57.0,68.0
146,48.94095264583333,49.49129964791666,61.0,72.0
147,49.35761914583333,49.98088278541666,45.0,57.0
148,50.19095214583333,50.36977151875,45.0,73.0
149,49.77428564583333,50.520813125,64.0,76.0
150,49.77428564583333,50.54338256041667,57.0,72.0
151,50.607618645833334,51.010396262499995,57.0,40.0
152,50.607618645833334,51.14754898541666,66.0,62.0
153,49.77428564583333,51.18574341458333,61.0,76.0
154,51.02428514583333,51.61109046666667,49.0,56.0
155,51.44095164583333,51.81074316458333,66.0,72.0
156,51.44095164583333,51.81421538541667,61.0,73.0
157,50.607618645833334,52.10588193541666,42.0,70.0
158,51.85761814583333,52.33678462083333,49.0,46.0
159,52.27428464583333,52.845464972916666,57.0,66.0
160,52.27428464583333,52.85240941458333,66.0,61.0
161,52.27428464583333,52.86803440833333,61.0,61.0
162,52.69095114583333,53.23435370625,49.0,60.0
163,52.27428464583333,53.27254813541666,42.0,61.0
164,53.10761764583333,53.46352028125,61.0,77.0
165,53.10761764583333,53.50865915208333,66.0,69.0
166,53.52428414583333,54.08852003125,57.0,74.0
167,53.94095064583333,54.33851993125,66.0,59.0
168,53.94095064583333,54.343728262499994,62.0,65.0
169,54.35761714583333,54.79338086041666,45.0,44.0
170,53.94095064583333,54.92011692083333,38.0,72.0
171,54.77428364583333,54.921853031249995,62.0,69.0
172,54.77428364583333,54.94963079791666,66.0,65.0
173,55.190950145833334,55.77775546666666,57.0,74.0
174,55.60761664583333,56.07810256875,62.0,69.0
175,56.02428314583333,56.31942191666666,57.0,72.0
176,55.60761664583333,56.604144025,50.0,68.0
177,56.44094964583333,56.87844947083333,66.0,74.0
178,56.85761614583333,57.11282437708333,57.0,73.0
179,56.44094964583333,57.17532435208333,62.0,73.0
180,57.27428264583333,57.76733800416666,62.0,71.0
181,57.27428264583333,57.80379632291666,65.0,69.0
182,57.69094914583333,58.208310049999994,57.0,64.0
183,58.10761564583333,58.26386558333333,62.0,74.0
184,58.10761564583333,58.616295997916666,65.0,73.0
185,58.52428214583333,59.00171251041667,57.0,62.0
186,57.27428264583333,59.3437262625,38.0,73.0
187,58.94094864583333,59.359351256249994,62.0,66.0
188,58.94094864583333,59.40275401666666,65.0,70.0
189,59.35761514583333,59.47046232291666,57.0,65.0
190,59.774281645833334,59.980878785416664,59.0,68.0
191,59.774281645833334,60.48435080625,64.0,72.0
192,59.774281645833334,60.546850781249994,40.0,74.0
193,60.19094814583333,60.56073966458333,59.0,74.0
194,60.60761464583333,61.13191999166666,66.0,66.0
195,60.60761464583333,61.14060054375,62.0,68.0
196,61.02428114583333,61.55032260208333,57.0,65.0
197,61.44094764583333,62.07810016875,62.0,74.0
198,61.44094764583333,62.09198905208333,66.0,73.0
199,60.60761464583333,62.17358624166666,50.0,73.0
200,61.85761414583333,62.38886393333333,57.0,70.0
201,62.27428064583333,62.81594709583333,62.0,66.0
202,62.27428064583333,62.83504431041666,66.0,64.0
203,62.69094714583333,63.18573861458333,57.0,64.0
204,62.27428064583333,63.29511357083333,50.0,75.0
205,63.10761364583333,63.42184963125,62.0,72.0
206,63.10761364583333,63.43400240416666,66.0,73.0
207,63.52428014583333,64.06073826458334,57.0,70.0
208,63.94094664583333,64.24997429999999,61.0,59.0
209,63.94094664583333,64.34198815208333,64.0,65.0
210,64.35761314583333,64.64059914375,56.0,63.0
211,64.77427964583333,64.97740456458332,61.0,74.0
212,64.77427964583333,64.98261289583333,64.0,75.0
213,63.94094664583333,65.46525159166666,49.0,65.0
214,65.60761264583333,66.04337636041666,64.0,72.0
215,65.60761264583333,66.09893189374999,61.0,66.0
216,66.02427914583333,66.21351518125,56.0,57.0
217,65.60761264583333,66.57636225833333,49.0,66.0
218,66.44094564583332,66.57983447916666,56.0,72.0
219,66.44094564583332,66.8333066,61.0,74.0
220,66.85761214583333,66.89407046458334,61.0,40.0
221,66.44094564583332,66.91490378958333,64.0,76.0
222,66.85761214583333,66.979139875,56.0,73.0
223,67.27427864583333,67.8333062,62.0,63.0
224,67.27427864583333,67.9166395,59.0,65.0
225,68.10761164583333,68.62844477083333,66.0,68.0
226,68.10761164583333,68.63018088125,62.0,70.0
227,67.27427864583333,68.69962529791667,47.0,73.0
228,67.69094514583333,68.85761134583333,54.0,57.0
229,68.52427814583334,69.53122218749999,59.0,66.0
230,68.94094464583333,69.54858329166666,66.0,63.0
231,68.94094464583333,69.56420828541667,62.0,66.0
232,69.35761114583333,69.84024984166666,54.0,52.0
233,68.94094464583333,70.03469420833333,47.0,73.0
234,69.77427764583334,70.27427744583333,62.0,72.0
235,69.77427764583334,70.28816632916666,66.0,73.0
236,70.19094414583333,70.66490228958332,59.0,75.0
237,70.60761064583333,71.0103882625,64.0,71.0
238,71.44094364583333,71.74823518958333,56.0,71.0
239,71.44094364583333,71.91837401041666,59.0,70.0
240,71.85761014583333,72.31073496458333,52.0,74.0
241,72.27427664583333,72.71177647083333,56.0,56.0
242,72.27427664583333,72.729137575,64.0,67.0
243,72.27427664583333,72.75170701041667,59.0,62.0
244,72.69094314583333,73.19788738749999,52.0,72.0
245,73.10760964583334,73.82288713749999,56.0,72.0
246,73.52427614583333,73.83156768958332,52.0,73.0
247,71.02427714583332,73.8333038,47.0,55.0
248,73.10760964583334,73.85760934583332,59.0,72.0
249,70.60761064583333,73.87323433958333,40.0,73.0
250,74.35760914583332,74.91142836875,52.0,60.0
251,74.77427564583333,75.20135880833332,57.0,72.0
252,73.94094264583333,75.43226149374999,45.0,69.0
253,75.19094214583333,75.5103864625,52.0,67.0
254,74.77427564583333,75.74128914791666,61.0,76.0
255,75.39927539583333,75.80726134375,57.0,73.0
256,74.77427564583333,75.94962239791666,64.0,77.0
257,76.02427514583333,76.48087218541666,57.0,72.0
258,75.60760864583332,76.75691374166666,45.0,73.0
259,75.81594189583333,76.75691374166666,52.0,63.0
260,76.23260839583332,76.94094144583333,61.0,66.0
261,76.44094164583333,77.20309411875,69.0,74.0
262,76.85760814583332,77.66837171041666,57.0,72.0
263,78.10760764583333,78.51385748333333,66.0,76.0
264,78.52427414583333,78.78642681875,61.0,77.0
265,77.27427464583333,78.78989903958333,42.0,79.0
266,77.69094114583334,78.86628789791666,49.0,58.0
267,78.73260739583333,79.18920443541666,57.0,72.0
268,79.56594039583332,79.68573201458332,61.0,83.0
269,79.35760714583333,79.770801425,57.0,72.0
270,78.94094064583332,80.0103846625,42.0,74.0
271,79.14927389583333,80.03295409791666,49.0,61.0
272,79.77427364583333,80.07809296875,66.0,74.0
273,79.98260689583333,80.27253733541666,57.0,72.0
274,80.19094014583332,80.3228845375,61.0,76.0
275,80.60760664583333,81.14753698541666,62.0,73.0
276,81.02427314583333,81.50343962083333,57.0,73.0
277,81.44093964583332,81.94093944583332,66.0,74.0
278,80.60760664583333,82.02600885625,50.0,72.0
279,81.85760614583333,82.08677272083332,62.0,72.0
280,82.06593939583333,82.36281427708333,57.0,74.0
281,82.48260589583333,82.67010582083333,57.0,72.0
282,82.69093914583333,82.92010572083333,62.0,67.0
283,82.27427264583334,82.94961959791667,38.0,78.0
284,82.89927239583334,83.18399450416666,57.0,74.0
285,83.10760564583333,83.57809156875,66.0,73.0
286,83.52427214583332,83.73781372708333,57.0,73.0
287,83.94093864583333,84.31767460625,59.0,68.0
288,83.94093864583333,84.31767460625,64.0,73.0
289,84.77427164583332,85.00864655208333,59.0,73.0
290,84.35760514583333,85.46697970208334,47.0,58.0
291,83.94093864583333,85.4999658,40.0,73.0
292,84.77427164583332,85.59718798333333,68.0,70.0
293,85.19093814583333,85.66489628958333,59.0,75.0
294,85.60760464583333,86.12670166041666,64.0,74.0
295,86.23260439583333,86.45656263958332,59.0,76.0
296,86.02427114583332,86.50517373125,47.0,61.0
297,86.44093764583333,86.85239581458333,64.0,81.0
298,85.60760464583333,87.08156238958333,40.0,73.0
299,86.64927089583333,87.10239571458332,47.0,68.0
300,86.85760414583333,87.13364570208333,59.0,77.0
301,87.06593739583333,87.31072896458333,64.0,76.0
302,87.69093714583333,88.24475636874999,52.0,60.0
303,88.10760364583332,88.53468680833333,57.0,72.0
304,87.27427064583333,88.76558949375,45.0,69.0
305,88.52427014583333,88.84371446249999,52.0,67.0
306,88.10760364583332,89.07461714791665,61.0,76.0
307,88.73260339583332,89.14058934375,57.0,73.0
308,88.10760364583332,89.28295039791666,64.0,77.0
309,89.35760314583332,89.81420018541667,57.0,72.0
310,88.94093664583333,90.09024174166666,45.0,73.0
311,89.14926989583333,90.09024174166666,52.0,63.0
312,89.56593639583333,90.27426944583333,61.0,66.0
313,89.77426964583333,90.53642211875,69.0,74.0
314,90.19093614583333,91.00169971041666,57.0,72.0
315,91.44093564583333,91.84718548333333,66.0,76.0
316,91.85760214583333,92.11975481875,61.0,77.0
317,90.60760264583332,92.12322703958333,42.0,79.0
318,91.02426914583333,92.19961589791666,49.0,58.0
319,92.06593539583334,92.52253243541666,57.0,72.0
320,92.89926839583333,93.01906001458333,61.0,83.0
321,92.69093514583332,93.104129425,57.0,72.0
322,92.27426864583333,93.3437126625,42.0,74.0
323,92.48260189583333,93.36628209791667,49.0,61.0
324,93.10760164583333,93.41142096875,66.0,74.0
325,93.31593489583332,93.60586533541667,57.0,72.0
326,93.52426814583333,93.6562125375,61.0,76.0
327,93.94093464583332,94.48086498541666,62.0,73.0
328,94.35760114583333,94.83676762083333,57.0,73.0
329,94.77426764583333,95.27426744583333,66.0,74.0
330,93.94093464583332,95.35933685625,50.0,72.0
331,95.19093414583332,95.42010072083333,62.0,72.0
332,95.39926739583333,95.69614227708333,57.0,74.0
333,95.81593389583333,96.00343382083332,57.0,72.0
334,96.02426714583333,96.25343372083333,62.0,67.0
335,95.60760064583333,96.28294759791666,38.0,78.0
336,96.23260039583333,96.51732250416666,57.0,74.0
337,96.44093364583333,96.91141956874999,66.0,73.0
338,96.85760014583333,97.07114172708333,57.0,73.0
339,97.27426664583332,97.65100260624999,59.0,68.0
340,97.27426664583332,97.65100260624999,64.0,73.0
341,98.10759964583333,98.34197455208333,59.0,73.0
342,97.69093314583333,98.80030770208333,47.0,58.0
343,97.27426664583332,98.83329379999999,40.0,73.0
344,98.10759964583333,98.93051598333332,68.0,70.0
345,98.52426614583332,98.99822428958333,59.0,75.0
346,98.94093264583333,99.46002966041667,64.0,74.0
347,99.56593239583333,99.78989063958333,59.0,76.0
348,99.35759914583333,99.83850173124999,47.0,61.0
349,99.77426564583332,100.18572381458333,64.0,81.0
350,98.94093264583333,100.41489038958333,40.0,73.0
351,99.98259889583333,100.43572371458333,47.0,68.0
352,100.19093214583333,100.46697370208332,59.0,77.0
353,100.39926539583332,100.64405696458333,64.0,76.0
354,101.02426514583333,101.57808436875,52.0,60.0
355,101.44093164583333,101.86801480833333,57.0,72.0
356,100.60759864583333,102.09891749375,45.0,69.0
357,101.85759814583332,102.1770424625,52.0,67.0
358,101.44093164583333,102.40794514791666,61.0,76.0
359,102.06593139583333,102.47391734374999,57.0,73.0
360,101.44093164583333,102.61627839791666,64.0,77.0
361,102.69093114583333,103.14752818541666,57.0,72.0
362,102.27426464583333,103.42356974166667,45.0,73.0
363,102.48259789583332,103.42356974166667,52.0,63.0
364,102.89926439583333,103.60759744583333,61.0,66.0
365,103.10759764583332,103.86975011874999,69.0,74.0
366,103.52426414583333,104.33502771041667,57.0,72.0
367,104.77426364583333,105.18051348333333,66.0,76.0
368,105.19093014583333,105.45308281874999,61.0,77.0
369,103.94093064583333,105.45655503958332,42.0,79.0
370,104.35759714583332,105.53294389791667,49.0,58.0
371,105.39926339583333,105.85586043541666,57.0,72.0
372,106.23259639583333,106.35238801458333,61.0,83.0
373,106.02426314583333,106.43745742499999,57.0,72.0
374,105.60759664583333,106.67704066249999,42.0,74.0
375,105.81592989583332,106.69961009791666,49.0,61.0
376,106.44092964583332,106.74474896874999,66.0,74.0
377,106.64926289583333,106.93919333541666,57.0,72.0
378,106.85759614583333,106.98954053749999,61.0,76.0
379,107.27426264583333,107.81419298541667,62.0,73.0
380,107.69092914583332,108.17009562083332,57.0,73.0
381,108.10759564583333,108.60759544583333,66.0,74.0
382,107.27426264583333,108.69266485624999,50.0,72.0
383,108.52426214583333,108.75342872083333,62.0,72.0
384,108.73259539583333,109.02947027708333,57.0,74.0
385,109.14926189583333,109.33676182083333,57.0,72.0
386,109.35759514583333,109.58676172083332,62.0,67.0
387,108.94092864583332,109.61627559791665,38.0,78.0
388,109.56592839583332,109.85065050416667,57.0,74.0
389,109.77426164583333,110.24474756875,66.0,73.0
390,110.19092814583333,110.40446972708332,57.0,73.0
391,110.60759464583333,110.98433060625,59.0,68.0
392,110.60759464583333,110.98433060625,64.0,73.0
393,111.44092764583333,111.67530255208332,59.0,73.0
394,111.02426114583332,112.13363570208332,47.0,58.0
395,110.60759464583333,112.16662179999999,40.0,73.0
396,111.44092764583333,112.26384398333333,68.0,70.0
397,111.85759414583333,112.33155228958333,59.0,75.0
398,112.27426064583332,112.79335766041666,64.0,74.0
399,112.89926039583332,113.12321863958333,59.0,76.0
400,112.69092714583333,113.17182973125,47.0,61.0
401,113.10759364583333,113.51905181458332,64.0,81.0
402,112.27426064583332,113.74821838958333,40.0,73.0
403,113.31592689583333,113.76905171458333,47.0,68.0
404,113.52426014583332,113.80030170208333,59.0,77.0
405,113.73259339583333,113.97738496458332,64.0,76.0
406,113.94092664583333,114.46523199166666,66.0,66.0
407,113.94092664583333,114.47391254374999,62.0,68.0
408,114.35759314583333,114.88363460208333,57.0,65.0
409,114.77425964583333,115.41141216874999,62.0,74.0
410,114.77425964583333,115.42530105208333,66.0,73.0
411,113.94092664583333,115.50689824166666,50.0,73.0
412,115.19092614583333,115.72217593333333,57.0,70.0
413,115.60759264583332,116.14925909583333,62.0,66.0
414,115.60759264583332,116.16835631041666,66.0,64.0
415,116.02425914583333,116.51905061458332,57.0,64.0
416,115.60759264583332,116.62842557083333,50.0,75.0
417,116.44092564583333,116.75516163124999,62.0,72.0
418,116.44092564583333,116.76731440416665,66.0,73.0
419,116.85759214583332,117.39405026458333,57.0,70.0
420,117.27425864583333,117.5832863,61.0,59.0
421,117.27425864583333,117.67530015208332,64.0,65.0
422,117.69092514583333,117.97391114374999,56.0,63.0
423,118.10759164583332,118.31071656458333,61.0,74.0
424,118.10759164583332,118.31592489583333,64.0,75.0
425,117.27425864583333,118.79856359166666,49.0,65.0
426,118.94092464583332,119.37668836041667,64.0,72.0
427,118.94092464583332,119.43224389375,61.0,66.0
428,119.35759114583333,119.54682718125,56.0,57.0
429,118.94092464583332,119.90967425833333,49.0,66.0
430,119.77425764583333,119.91314647916666,56.0,72.0
431,119.77425764583333,120.16661859999999,61.0,74.0
432,120.19092414583332,120.22738246458333,61.0,40.0
433,119.77425764583333,120.24821578958333,64.0,76.0
434,120.19092414583332,120.312451875,56.0,73.0
435,120.60759064583333,121.16661819999999,62.0,63.0
436,120.60759064583333,121.2499515,59.0,65.0
437,121.44092364583332,121.96175677083333,66.0,68.0
438,121.44092364583332,121.96349288124999,62.0,70.0
439,120.60759064583333,122.03293729791666,47.0,73.0
440,121.02425714583333,122.19092334583333,54.0,57.0
441,121.85759014583333,122.8645341875,59.0,66.0
442,122.27425664583333,122.88189529166667,66.0,63.0
443,122.27425664583333,122.89752028541666,62.0,66.0
444,122.69092314583332,123.17356184166665,54.0,52.0
445,122.27425664583333,123.36800620833333,47.0,73.0
446,123.10758964583333,123.60758944583333,62.0,72.0
447,123.10758964583333,123.62147832916666,66.0,73.0
448,123.52425614583332,123.99821428958333,59.0,75.0
449,123.94092264583333,124.3437002625,64.0,71.0
450,124.77425564583332,125.08154718958333,56.0,71.0
451,124.77425564583332,125.25168601041666,59.0,70.0
452,125.19092214583333,125.64404696458332,52.0,74.0
453,125.60758864583333,126.04508847083332,56.0,56.0
454,125.60758864583333,126.06244957499999,64.0,67.0
455,125.60758864583333,126.08501901041666,59.0,62.0
456,126.02425514583332,126.5311993875,52.0,72.0
457,126.44092164583333,127.1561991375,56.0,72.0
458,126.85758814583333,127.16487968958333,52.0,73.0
459,124.35758914583333,127.16661579999999,47.0,55.0
460,126.44092164583333,127.19092134583333,59.0,72.0
461,123.94092264583333,127.20654633958333,40.0,73.0
462,127.69092114583333,128.24474036875,52.0,60.0
463,128.10758764583332,128.53467080833332,57.0,72.0
464,127.27425464583332,128.76557349375,45.0,69.0
465,128.52425414583334,128.8436984625,52.0,67.0
466,128.10758764583332,129.07460114791667,61.0,76.0
467,128.73258739583332,129.14057334375,57.0,73.0
468,128.10758764583332,129.28293439791665,64.0,77.0
469,129.35758714583332,129.81418418541665,57.0,72.0
470,128.94092064583333,130.09022574166667,45.0,73.0
471,129.14925389583334,130.09022574166667,52.0,63.0
472,129.56592039583333,130.27425344583332,61.0,66.0
473,129.77425364583334,130.53640611875,69.0,74.0
474,130.19092014583333,131.00168371041667,57.0,72.0
475,131.44091964583333,131.84716948333332,66.0,76.0
476,131.85758614583332,132.11973881875,61.0,77.0
477,130.60758664583332,132.12321103958334,42.0,79.0
478,131.0242531458333,132.19959989791667,49.0,58.0
479,132.06591939583333,132.52251643541666,57.0,72.0
480,132.89925239583332,133.01904401458333,61.0,83.0
481,132.69091914583333,133.10411342499998,57.0,72.0
482,132.27425264583331,133.34369666249998,42.0,74.0
483,132.48258589583332,133.36626609791665,49.0,61.0
484,133.10758564583332,133.41140496875,66.0,74.0
485,133.31591889583333,133.60584933541665,57.0,72.0
486,133.52425214583332,133.6561965375,61.0,76.0
487,133.94091864583334,134.48084898541666,62.0,73.0
488,134.35758514583333,134.83675162083333,57.0,73.0
489,134.77425164583332,135.27425144583333,66.0,74.0
490,133.94091864583334,135.35932085624998,50.0,72.0
491,135.19091814583334,135.42008472083333,62.0,72.0
492,135.39925139583332,135.69612627708332,57.0,74.0
493,135.81591789583334,136.00341782083333,57.0,72.0
494,136.02425114583332,136.2534177208333,62.0,67.0
495,135.60758464583333,136.28293159791667,38.0,78.0
496,136.23258439583333,136.51730650416667,57.0,74.0
497,136.44091764583334,136.91140356875,66.0,73.0
498,136.85758414583333,137.0711257270833,57.0,73.0
499,137.27425064583332,137.65098660625,59.0,68.0
500,137.27425064583332,137.65098660625,64.0,73.0
501,138.10758364583333,138.34195855208333,59.0,73.0
502,137.69091714583334,138.8002917020833,47.0,58.0
503,137.27425064583332,138.8332778,40.0,73.0
504,138.10758364583333,138.93049998333333,68.0,70.0
505,138.52425014583332,138.99820828958332,59.0,75.0
506,138.9409166458333,139.46001366041665,64.0,74.0
507,139.5659163958333,139.78987463958333,59.0,76.0
508,139.35758314583333,139.83848573125,47.0,61.0
509,139.77424964583332,140.18570781458334,64.0,81.0
510,138.9409166458333,140.41487438958333,40.0,73.0
511,139.98258289583333,140.43570771458332,47.0,68.0
512,140.1909161458333,140.46695770208333,59.0,77.0
513,140.39924939583332,140.64404096458333,64.0,76.0
514,141.02424914583332,141.57806836875,52.0,60.0
515,141.44091564583331,141.86799880833334,57.0,72.0
516,140.60758264583333,142.09890149375,45.0,69.0
517,141.85758214583333,142.17702646249998,52.0,67.0
518,141.44091564583331,142.40792914791666,61.0,76.0
519,142.06591539583331,142.47390134375,57.0,73.0
520,141.44091564583331,142.61626239791667,64.0,77.0
521,142.69091514583332,143.14751218541667,57.0,72.0
522,142.27424864583332,143.42355374166667,45.0,73.0
523,142.48258189583333,143.42355374166667,52.0,63.0
524,142.89924839583333,143.60758144583332,61.0,66.0
525,143.10758164583333,143.86973411875,69.0,74.0
526,143.52424814583333,144.33501171041667,57.0,72.0
527,144.77424764583333,145.1804974833333,66.0,76.0
528,145.19091414583332,145.45306681875,61.0,77.0
529,143.94091464583332,145.45653903958333,42.0,79.0
530,144.35758114583334,145.53292789791666,49.0,58.0
531,145.39924739583333,145.85584443541666,57.0,72.0
532,146.23258039583334,146.35237201458332,61.0,83.0
533,146.02424714583333,146.437441425,57.0,72.0
534,145.60758064583334,146.6770246625,42.0,74.0
535,145.81591389583332,146.69959409791664,49.0,61.0
536,146.44091364583332,146.74473296875,66.0,74.0
537,146.64924689583333,146.93917733541667,57.0,72.0
538,146.85758014583334,146.9895245375,61.0,76.0
539,147.27424664583333,147.81417698541665,62.0,73.0
540,147.69091314583332,148.17007962083332,57.0,73.0
541,148.1075796458333,148.60757944583332,66.0,74.0
542,147.27424664583333,148.69264885625,50.0,72.0
543,148.52424614583333,148.75341272083332,62.0,72.0
544,148.7325793958333,149.02945427708332,57.0,74.0
545,149.14924589583333,149.33674582083333,57.0,72.0
546,149.3575791458333,149.58674572083333,62.0,67.0
547,148.94091264583332,149.61625959791667,38.0,78.0
548,149.56591239583332,149.85063450416666,57.0,74.0
549,149.77424564583333,150.24473156874998,66.0,73.0
550,150.19091214583332,150.40445372708334,57.0,73.0
551,150.6075786458333,150.98431460625,59.0,68.0
552,150.6075786458333,150.98431460625,64.0,73.0
553,151.44091164583332,151.67528655208332,59.0,73.0
554,151.02424514583333,152.13361970208334,47.0,58.0
555,150.6075786458333,152.16660579999999,40.0,73.0
556,151.44091164583332,152.26382798333333,68.0,70.0
557,151.85757814583332,152.3315362895833,59.0,75.0
558,152.27424464583333,152.79334166041667,64.0,74.0
559,152.89924439583334,153.12320263958333,59.0,76.0
560,152.69091114583333,153.17181373124998,47.0,61.0
561,153.10757764583332,153.51903581458333,64.0,81.0
562,152.27424464583333,153.74820238958333,40.0,73.0
563,153.31591089583333,153.76903571458334,47.0,68.0
564,153.52424414583334,153.80028570208333,59.0,77.0
565,153.73257739583332,153.97736896458332,64.0,76.0
566,153.94091064583333,154.24646607916665,57.0,72.0
567,153.94091064583333,154.29854939166665,61.0,73.0
568,154.35757714583332,154.4461187770833,57.0,67.0
569,154.56591039583333,154.67354924166665,61.0,58.0
570,154.77424364583334,155.18222959374998,57.0,75.0
571,154.77424364583334,155.23604901666667,61.0,71.0
572,153.94091064583333,155.47736836458333,45.0,64.0
573,155.19091014583333,155.47736836458333,52.0,71.0
574,155.39924339583334,155.78813212916666,57.0,79.0
575,156.02424314583334,156.11625699791665,57.0,72.0
576,156.23257639583332,156.30549303333333,64.0,67.0
577,156.23257639583332,156.31417358541665,61.0,61.0
578,156.23257639583332,156.32632635833332,57.0,66.0
579,155.81590989583333,156.50514573125,52.0,67.0
580,156.44090964583333,156.68049288333333,57.0,72.0
581,156.44090964583333,156.74125674791665,61.0,76.0
582,156.64924289583334,156.77424284583333,52.0,72.0
583,155.60757664583332,156.77771506666664,45.0,74.0
584,156.44090964583333,156.91660389999998,64.0,76.0
585,156.85757614583332,157.00340942083332,57.0,77.0
586,157.2742426458333,157.60757584583334,58.0,61.0
587,157.2742426458333,157.61799250833332,62.0,72.0
588,157.8992423958333,157.98257569583333,58.0,54.0
589,157.69090914583333,158.38014498125,53.0,65.0
590,158.10757564583332,158.46000606041665,58.0,74.0
591,158.10757564583332,158.48257549583332,65.0,72.0
592,157.2742426458333,158.7169504020833,46.0,76.0
593,158.5242421458333,158.74472816875,53.0,60.0
594,158.73257539583332,159.11625579791666,58.0,73.0
595,158.73257539583332,159.23778352708334,62.0,72.0
596,159.35757514583332,159.45653343958332,58.0,72.0
597,159.56590839583333,159.6666028,58.0,70.0
598,159.56590839583333,159.6752833520833,65.0,67.0
599,159.56590839583333,159.68049168333332,62.0,72.0
600,159.1492418958333,159.86278327708334,53.0,65.0
601,159.7742416458333,160.02597765624998,58.0,72.0
602,158.94090864583333,160.07632485833332,46.0,65.0
603,159.7742416458333,160.11972761875,62.0,72.0
604,159.98257489583332,160.15792204791666,53.0,69.0
605,159.7742416458333,160.16486648958332,65.0,70.0
606,160.19090814583333,160.24472756875,62.0,51.0
607,160.19090814583333,160.33847753125,58.0,73.0
608,160.60757464583332,160.91313007916665,57.0,72.0
609,160.60757464583332,160.96521339166665,61.0,73.0
610,161.02424114583332,161.1127827770833,57.0,67.0
611,161.23257439583332,161.34021324166665,61.0,58.0
612,161.44090764583333,161.84889359374998,57.0,75.0
613,161.44090764583333,161.90271301666667,61.0,71.0
614,160.60757464583332,162.14403236458332,45.0,64.0
615,161.85757414583333,162.14403236458332,52.0,71.0
616,162.06590739583334,162.45479612916665,57.0,79.0
617,162.69090714583334,162.78292099791665,57.0,72.0
618,162.89924039583332,162.97215703333333,64.0,67.0
619,162.89924039583332,162.98083758541665,61.0,61.0
620,162.89924039583332,162.99299035833332,57.0,66.0
621,162.48257389583333,163.17180973125,52.0,67.0
622,163.10757364583333,163.34715688333333,57.0,72.0
623,163.10757364583333,163.40792074791665,61.0,76.0
624,163.31590689583334,163.44090684583333,52.0,72.0
625,162.27424064583332,163.44437906666667,45.0,74.0
626,163.10757364583333,163.58326789999998,64.0,76.0
627,163.52424014583332,163.67007342083332,57.0,77.0
628,163.94090664583334,164.27423984583334,58.0,61.0
629,163.94090664583334,164.2846565083333,62.0,72.0
630,164.56590639583334,164.64923969583333,58.0,54.0
631,164.35757314583333,165.04680898125,53.0,65.0
632,164.77423964583332,165.12667006041667,58.0,74.0
633,164.77423964583332,165.1492394958333,65.0,72.0
634,163.94090664583334,165.38361440208334,46.0,76.0
635,165.19090614583334,165.41139216874998,53.0,60.0
636,165.39923939583332,165.78291979791666,58.0,73.0
637,165.39923939583332,165.90444752708333,62.0,72.0
638,166.02423914583332,166.12319743958332,58.0,72.0
639,166.23257239583333,166.3332668,58.0,70.0
640,166.23257239583333,166.34194735208334,65.0,67.0
641,166.23257239583333,166.3471556833333,62.0,72.0
642,165.8159058958333,166.52944727708334,53.0,65.0
643,166.4409056458333,166.69264165625,58.0,72.0
644,165.60757264583333,166.74298885833332,46.0,65.0
645,166.4409056458333,166.78639161875,62.0,72.0
646,166.64923889583332,166.82458604791665,53.0,69.0
647,166.4409056458333,166.83153048958332,65.0,70.0
648,166.85757214583333,166.91139156875,62.0,51.0
649,166.85757214583333,167.00514153125,58.0,73.0
650,167.27423864583332,167.57979407916665,57.0,72.0
651,167.27423864583332,167.63187739166665,61.0,73.0
652,167.6909051458333,167.77944677708334,57.0,67.0
653,167.89923839583332,168.00687724166667,61.0,58.0
654,168.10757164583333,168.51555759375,57.0,75.0
655,168.10757164583333,168.56937701666666,61.0,71.0
656,167.27423864583332,168.81069636458332,45.0,64.0
657,168.52423814583332,168.81069636458332,52.0,71.0
658,168.73257139583333,169.12146012916665,57.0,79.0
659,169.35757114583333,169.44958499791665,57.0,72.0
660,169.56590439583331,169.63882103333333,64.0,67.0
661,169.56590439583331,169.64750158541665,61.0,61.0
662,169.56590439583331,169.6596543583333,57.0,66.0
663,169.14923789583332,169.83847373125,52.0,67.0
664,169.77423764583332,170.01382088333332,57.0,72.0
665,169.77423764583332,170.07458474791665,61.0,76.0
666,169.98257089583333,170.10757084583332,52.0,72.0
667,168.9409046458333,170.11104306666667,45.0,74.0
668,169.77423764583332,170.24993189999998,64.0,76.0
669,170.19090414583331,170.33673742083332,57.0,77.0
670,170.60757064583333,170.94090384583333,58.0,61.0
671,170.60757064583333,170.9513205083333,62.0,72.0
672,171.23257039583333,171.31590369583333,58.0,54.0
673,171.02423714583333,171.71347298125,53.0,65.0
674,171.44090364583332,171.79333406041667,58.0,74.0
675,171.44090364583332,171.8159034958333,65.0,72.0
676,170.60757064583333,172.05027840208334,46.0,76.0
677,171.85757014583334,172.07805616874998,53.0,60.0
678,172.06590339583332,172.44958379791666,58.0,73.0
679,172.06590339583332,172.57111152708333,62.0,72.0
680,172.69090314583332,172.78986143958332,58.0,72.0
681,172.89923639583333,172.9999308,58.0,70.0
682,172.89923639583333,173.00861135208334,65.0,67.0
683,172.89923639583333,173.01381968333334,62.0,72.0
684,172.48256989583334,173.19611127708333,53.0,65.0
685,173.10756964583334,173.35930565625,58.0,72.0
686,172.27423664583333,173.40965285833332,46.0,65.0
687,173.10756964583334,173.45305561875,62.0,72.0
688,173.31590289583332,173.49125004791665,53.0,69.0
689,173.10756964583334,173.4981944895833,65.0,70.0
690,173.52423614583333,173.57805556875,62.0,51.0
691,173.52423614583333,173.67180553125,58.0,73.0
692,173.94090264583332,174.24645807916664,57.0,72.0
693,173.94090264583332,174.29854139166665,61.0,73.0
694,174.35756914583334,174.44611077708333,57.0,67.0
695,174.56590239583332,174.67354124166667,61.0,58.0
696,174.77423564583333,175.18222159375,57.0,75.0
697,174.77423564583333,175.23604101666666,61.0,71.0
698,173.94090264583332,175.47736036458332,45.0,64.0
699,175.19090214583332,175.47736036458332,52.0,71.0
700,175.39923539583333,175.78812412916665,57.0,79.0
701,176.02423514583333,176.11624899791667,57.0,72.0
702,176.2325683958333,176.30548503333333,64.0,67.0
703,176.2325683958333,176.31416558541665,61.0,61.0
704,176.2325683958333,176.3263183583333,57.0,66.0
705,175.81590189583332,176.50513773125,52.0,67.0
706,176.44090164583332,176.68048488333332,57.0,72.0
707,176.44090164583332,176.74124874791667,61.0,76.0
708,176.64923489583333,176.77423484583332,52.0,72.0
709,175.6075686458333,176.77770706666666,45.0,74.0
710,176.44090164583332,176.9165959,64.0,76.0
711,176.8575681458333,177.0034014208333,57.0,77.0
712,177.27423464583333,177.60756784583333,58.0,61.0
713,177.27423464583333,177.61798450833334,62.0,72.0
714,177.89923439583333,177.98256769583332,58.0,54.0
715,177.69090114583332,178.38013698125,53.0,65.0
716,178.1075676458333,178.45999806041667,58.0,74.0
717,178.1075676458333,178.48256749583334,65.0,72.0
718,177.27423464583333,178.71694240208333,46.0,76.0
719,178.52423414583333,178.74472016874998,53.0,60.0
720,178.7325673958333,179.11624779791666,58.0,73.0
721,178.7325673958333,179.23777552708333,62.0,72.0
722,179.35756714583331,179.45652543958332,58.0,72.0
723,179.56590039583332,179.66659479999998,58.0,70.0
724,179.56590039583332,179.67527535208333,65.0,67.0
725,179.56590039583332,179.68048368333334,62.0,72.0
726,179.14923389583333,179.86277527708333,53.0,65.0
727,179.77423364583333,180.02596965625,58.0,72.0
728,178.94090064583332,180.0763168583333,46.0,65.0
729,179.77423364583333,180.11971961875,62.0,72.0
730,179.98256689583332,180.15791404791665,53.0,69.0
731,179.77423364583333,180.1648584895833,65.0,70.0
732,180.19090014583333,180.24471956874999,62.0,51.0
733,180.19090014583333,180.33846953124998,58.0,73.0
734,181.02423314583334,181.57805236874998,52.0,60.0
735,181.44089964583333,181.86798280833332,57.0,72.0
736,180.60756664583332,182.09888549375,45.0,69.0
737,181.85756614583332,182.1770104625,52.0,67.0
738,181.44089964583333,182.40791314791664,61.0,76.0
739,182.06589939583333,182.47388534375,57.0,73.0
740,181.44089964583333,182.61624639791665,64.0,77.0
741,182.69089914583333,183.14749618541666,57.0,72.0
742,182.27423264583334,183.42353774166665,45.0,73.0
743,182.48256589583332,183.42353774166665,52.0,63.0
744,182.89923239583334,183.60756544583333,61.0,66.0
745,183.10756564583332,183.86971811875,69.0,74.0
746,183.5242321458333,184.33499571041665,57.0,72.0
747,184.7742316458333,185.18048148333332,66.0,76.0
748,185.19089814583333,185.45305081875,61.0,77.0
749,183.94089864583333,185.45652303958332,42.0,79.0
750,184.35756514583332,185.53291189791665,49.0,58.0
751,185.3992313958333,185.85582843541667,57.0,72.0
752,186.23256439583332,186.35235601458334,61.0,83.0
753,186.0242311458333,186.437425425,57.0,72.0
754,185.60756464583332,186.6770086625,42.0,74.0
755,185.81589789583333,186.69957809791666,49.0,61.0
756,186.44089764583333,186.74471696875,66.0,74.0
757,186.6492308958333,186.93916133541666,57.0,72.0
758,186.85756414583332,186.9895085375,61.0,76.0
759,187.2742306458333,187.81416098541666,62.0,73.0
760,187.69089714583333,188.17006362083333,57.0,73.0
761,188.10756364583332,188.60756344583334,66.0,74.0
762,187.2742306458333,188.69263285625,50.0,72.0
763,188.52423014583331,188.75339672083334,62.0,72.0
764,188.73256339583332,189.02943827708333,57.0,74.0
765,189.14922989583332,189.3367298208333,57.0,72.0
766,189.35756314583332,189.58672972083332,62.0,67.0
767,188.94089664583333,189.61624359791665,38.0,78.0
768,189.56589639583333,189.85061850416665,57.0,74.0
769,189.77422964583332,190.24471556875,66.0,73.0
770,190.19089614583334,190.40443772708332,57.0,73.0
771,190.60756264583333,190.98429860624998,59.0,68.0
772,190.60756264583333,190.98429860624998,64.0,73.0
773,191.44089564583334,191.67527055208333,59.0,73.0
774,191.02422914583332,192.13360370208332,47.0,58.0
775,190.60756264583333,192.1665898,40.0,73.0
776,191.44089564583334,192.2638119833333,68.0,70.0
777,191.85756214583333,192.33152028958332,59.0,75.0
778,192.27422864583332,192.79332566041666,64.0,74.0
779,192.89922839583332,193.1231866395833,59.0,76.0
780,192.6908951458333,193.17179773125,47.0,61.0
781,193.10756164583333,193.51901981458332,64.0,81.0
782,192.27422864583332,193.7481863895833,40.0,73.0
783,193.3158948958333,193.76901971458332,47.0,68.0
784,193.52422814583332,193.8002697020833,59.0,77.0
785,193.73256139583333,193.97735296458333,64.0,76.0
786,194.35756114583333,194.91138036875,52.0,60.0
787,194.77422764583332,195.20131080833332,57.0,72.0
788,193.9408946458333,195.43221349375,45.0,69.0
789,195.1908941458333,195.5103384625,52.0,67.0
790,194.77422764583332,195.74124114791667,61.0,76.0
791,195.39922739583332,195.80721334375,57.0,73.0
792,194.77422764583332,195.94957439791665,64.0,77.0
793,196.02422714583332,196.48082418541665,57.0,72.0
794,195.60756064583333,196.75686574166664,45.0,73.0
795,195.8158938958333,196.75686574166664,52.0,63.0
796,196.23256039583333,196.94089344583332,61.0,66.0
797,196.4408936458333,197.20304611875,69.0,74.0
798,196.85756014583333,197.66832371041664,57.0,72.0
799,198.10755964583333,198.51380948333332,66.0,76.0
800,198.52422614583332,198.78637881875,61.0,77.0
801,197.27422664583332,198.7898510395833,42.0,79.0
802,197.69089314583331,198.86623989791664,49.0,58.0
803,198.73255939583333,199.18915643541666,57.0,72.0
804,199.56589239583332,199.68568401458333,61.0,83.0
805,199.35755914583333,199.77075342499998,57.0,72.0
806,198.94089264583332,200.01033666249998,42.0,74.0
807,199.14922589583333,200.03290609791665,49.0,61.0
808,199.77422564583333,200.07804496875,66.0,74.0
809,199.98255889583334,200.27248933541665,57.0,72.0
810,200.19089214583332,200.3228365375,61.0,76.0
811,200.60755864583334,201.14748898541666,62.0,73.0
812,201.02422514583333,201.50339162083333,57.0,73.0
813,201.44089164583332,201.94089144583333,66.0,74.0
814,200.60755864583334,202.02596085624998,50.0,72.0
815,201.8575581458333,202.08672472083333,62.0,72.0
816,202.06589139583332,202.36276627708332,57.0,74.0
817,202.4825578958333,202.67005782083334,57.0,72.0
818,202.69089114583332,202.9200577208333,62.0,67.0
819,202.27422464583333,202.94957159791664,38.0,78.0
820,202.89922439583333,203.18394650416667,57.0,74.0
821,203.1075576458333,203.57804356875,66.0,73.0
822,203.52422414583333,203.7377657270833,57.0,73.0
823,203.94089064583332,204.31762660625,59.0,68.0
824,203.94089064583332,204.31762660625,64.0,73.0
825,204.77422364583333,205.00859855208333,59.0,73.0
826,204.3575571458333,205.46693170208331,47.0,58.0
827,203.94089064583332,205.4999178,40.0,73.0
828,204.77422364583333,205.59713998333334,68.0,70.0
829,205.19089014583332,205.66484828958332,59.0,75.0
830,205.6075566458333,206.12665366041665,64.0,74.0
831,206.2325563958333,206.45651463958333,59.0,76.0
832,206.02422314583333,206.50512573125,47.0,61.0
833,206.44088964583332,206.8523478145833,64.0,81.0
834,205.6075566458333,207.08151438958333,40.0,73.0
835,206.64922289583333,207.10234771458332,47.0,68.0
836,206.8575561458333,207.13359770208334,59.0,77.0
837,207.06588939583332,207.31068096458333,64.0,76.0
838,207.69088914583332,208.24470836875,52.0,60.0
839,208.10755564583332,208.5346388083333,57.0,72.0
840,207.27422264583333,208.76554149375,45.0,69.0
841,208.52422214583333,208.84366646249998,52.0,67.0
842,208.10755564583332,209.07456914791666,61.0,76.0
843,208.73255539583332,209.14054134375,57.0,73.0
844,208.10755564583332,209.28290239791664,64.0,77.0
845,209.35755514583332,209.81415218541665,57.0,72.0
846,208.94088864583333,210.09019374166667,45.0,73.0
847,209.14922189583334,210.09019374166667,52.0,63.0
848,209.56588839583333,210.27422144583332,61.0,66.0
849,209.77422164583334,210.53637411875,69.0,74.0
850,210.19088814583333,211.00165171041667,57.0,72.0
851,211.44088764583333,211.8471374833333,66.0,76.0
852,211.85755414583332,212.11970681875,61.0,77.0
853,210.60755464583332,212.12317903958333,42.0,79.0
854,211.0242211458333,212.19956789791667,49.0,58.0
855,212.06588739583333,212.52248443541666,57.0,72.0
856,212.8992203958333,213.01901201458332,61.0,83.0
857,212.69088714583333,213.10408142499998,57.0,72.0
858,212.2742206458333,213.34366466249998,42.0,74.0
859,212.48255389583332,213.36623409791665,49.0,61.0
860,213.10755364583332,213.41137296875,66.0,74.0
861,213.31588689583333,213.60581733541665,57.0,72.0
862,213.5242201458333,213.6561645375,61.0,76.0
863,213.94088664583333,214.48081698541665,62.0,73.0
864,214.35755314583332,214.83671962083332,57.0,73.0
865,214.7742196458333,215.27421944583332,66.0,74.0
866,213.94088664583333,215.35928885624998,50.0,72.0
867,215.19088614583333,215.42005272083333,62.0,72.0
868,215.3992193958333,215.69609427708332,57.0,74.0
869,215.81588589583333,216.00338582083333,57.0,72.0
870,216.0242191458333,216.25338572083334,62.0,67.0
871,215.60755264583332,216.28289959791667,38.0,78.0
872,216.23255239583332,216.51727450416666,57.0,74.0
873,216.44088564583333,216.91137156874998,66.0,73.0
874,216.85755214583332,217.0710937270833,57.0,73.0
875,217.27421864583332,217.65095460625,59.0,68.0
876,217.27421864583332,217.65095460625,64.0,73.0
877,218.10755164583333,218.34192655208332,59.0,73.0
878,217.69088514583333,218.8002597020833,47.0,58.0
879,217.27421864583332,218.8332458,40.0,73.0
880,218.10755164583333,218.93046798333333,68.0,70.0
881,218.52421814583332,218.9981762895833,59.0,75.0
882,218.94088464583334,219.45998166041664,64.0,74.0
883,219.5658843958333,219.78984263958333,59.0,76.0
884,219.35755114583333,219.83845373124998,47.0,61.0
885,219.77421764583332,220.18567581458333,64.0,81.0
886,218.94088464583334,220.41484238958333,40.0,73.0
887,219.98255089583333,220.4356757145833,47.0,68.0
888,220.1908841458333,220.46692570208333,59.0,77.0
889,220.39921739583332,220.64400896458332,64.0,76.0
890,221.02421714583332,221.57803636875,52.0,60.0
891,221.4408836458333,221.86796680833334,57.0,72.0
892,220.60755064583333,222.09886949375,45.0,69.0
893,221.85755014583333,222.17699446249998,52.0,67.0
894,221.4408836458333,222.40789714791666,61.0,76.0
895,222.0658833958333,222.47386934374998,57.0,73.0
896,221.4408836458333,222.61623039791667,64.0,77.0
897,222.6908831458333,223.14748018541667,57.0,72.0
898,222.27421664583332,223.42352174166666,45.0,73.0
899,222.48254989583333,223.42352174166666,52.0,63.0
900,222.89921639583332,223.6075494458333,61.0,66.0
901,223.10754964583333,223.86970211874998,69.0,74.0
902,223.52421614583332,224.33497971041666,57.0,72.0
903,224.77421564583332,225.1804654833333,66.0,76.0
904,225.1908821458333,225.45303481874998,61.0,77.0
905,223.9408826458333,225.45650703958333,42.0,79.0
906,224.35754914583333,225.53289589791666,49.0,58.0
907,225.39921539583332,225.85581243541665,57.0,72.0
908,226.23254839583333,226.35234001458332,61.0,83.0
909,226.02421514583332,226.437409425,57.0,72.0
910,225.60754864583333,226.6769926625,42.0,74.0
911,225.81588189583331,226.69956209791667,49.0,61.0
912,226.44088164583331,226.74470096874998,66.0,74.0
913,226.64921489583332,226.93914533541667,57.0,72.0
914,226.85754814583333,226.98949253749998,61.0,76.0
915,227.27421464583333,227.81414498541665,62.0,73.0
916,227.69088114583332,228.17004762083332,57.0,73.0
917,228.1075476458333,228.60754744583332,66.0,74.0
918,227.27421464583333,228.69261685625,50.0,72.0
919,228.52421414583333,228.75338072083332,62.0,72.0
920,228.7325473958333,229.0294222770833,57.0,74.0
921,229.14921389583333,229.33671382083332,57.0,72.0
922,229.3575471458333,229.58671372083333,62.0,67.0
923,228.94088064583332,229.61622759791666,38.0,78.0
924,229.56588039583332,229.85060250416666,57.0,74.0
925,229.77421364583333,230.24469956874998,66.0,73.0
926,230.19088014583332,230.40442172708333,57.0,73.0
927,230.6075466458333,230.98428260625,59.0,68.0
928,230.6075466458333,230.98428260625,64.0,73.0
929,231.44087964583332,231.67525455208332,59.0,73.0
930,231.02421314583333,232.13358770208333,47.0,58.0
931,230.6075466458333,232.16657379999998,40.0,73.0
932,231.44087964583332,232.26379598333332,68.0,70.0
933,231.8575461458333,232.3315042895833,59.0,75.0
934,232.27421264583333,232.79330966041667,64.0,74.0
935,232.89921239583333,233.12317063958332,59.0,76.0
936,232.69087914583332,233.17178173124998,47.0,61.0
937,233.1075456458333,233.51900381458333,64.0,81.0
938,232.27421264583333,233.74817038958332,40.0,73.0
939,233.31587889583332,233.76900371458333,47.0,68.0
940,233.52421214583333,233.80025370208332,59.0,77.0
941,233.7325453958333,233.97733696458332,64.0,76.0
942,234.37317013958332,234.88879493333332,52.0,68.0
943,234.7794199770833,235.52073912499998,61.0,72.0
944,235.22907257499998,235.78289179791665,52.0,57.0
945,235.61448908749998,236.18740552499997,57.0,56.0
946,235.59886409375,236.29851659166664,61.0,67.0
947,236.020738925,236.58150258958332,52.0,63.0
948,236.45476652916665,236.63879423333333,57.0,67.0
949,233.95129530833333,236.78983583958333,45.0,74.0
950,236.44955819791664,237.2742106458333,61.0,69.0
951,236.45650263958333,237.34886339374998,64.0,73.0
952,236.8471274833333,237.37490505,57.0,64.0
953,237.67872437291666,238.26726580416664,49.0,54.0
954,238.12143252916664,238.74296005833332,61.0,76.0
955,238.53636291875,239.20476542916666,49.0,52.0
956,239.00164051041665,239.72386244375,61.0,69.0
957,239.01205717291666,239.93914013541666,66.0,61.0
958,239.4356681145833,240.01726510416665,49.0,37.0
959,237.2742106458333,240.07976507916666,42.0,74.0
960,239.87143182916665,240.65962595833332,57.0,69.0
961,240.34538997291665,240.79157035,61.0,78.0
962,241.7811532875,242.28462530833332,54.0,78.0
963,241.30025070208333,242.91136116874998,45.0,60.0
964,242.65094460625,243.23601381666666,62.0,74.0
965,242.23601421666666,243.26379158333333,57.0,72.0
966,243.06761110624998,243.67698586249998,45.0,56.0
967,240.83844533125,243.76899971458332,38.0,74.0
968,244.08670792083333,244.69261045624998,50.0,66.0
969,243.55545813333333,244.73948543749998,54.0,62.0
970,243.5658747958333,245.20823524999997,57.0,64.0
971,245.16309637916666,245.35233241458332,59.0,64.0
972,245.27073522499998,247.41309547916666,61.0,73.0
973,245.06413808541666,247.47733156458332,52.0,61.0
974,244.895735375,247.53462320833333,45.0,74.0
