,start,end,pitch,velocity
0,33.14486202083333,33.45849835833333,73.0,82.0
1,33.40622563541666,33.71758924583333,76.0,76.0
2,33.692589247916665,34.076680124999996,80.0,75.0
3,34.26077101875,34.64713462291667,78.0,81.0
4,34.813043699999994,35.09713458541666,75.0,76.0
5,35.09713458541666,36.37213447916666,71.0,69.0
6,37.29713440208333,37.60622528541666,68.0,76.0
7,37.5812252875,37.894861625,71.0,75.0
8,37.878952535416666,38.53349793541666,75.0,80.0
9,38.6721342875,39.14486152083333,75.0,81.0
10,39.15167970208333,39.453952404166664,73.0,70.0
11,39.422134225,40.80167956458333,76.0,71.0
12,41.55849768333333,41.840315841666666,66.0,71.0
13,41.85395220416667,42.149406725,69.0,78.0
14,42.140315816666664,42.74258849375,73.0,81.0
15,42.99940665416666,43.463042979166666,73.0,80.0
16,43.46758843333333,43.66077023541666,71.0,70.0
17,43.75395204583333,44.65622469791667,71.0,76.0
18,44.61077015625,44.876679225000004,66.0,68.0
19,44.85395195416667,45.16531556458333,69.0,70.0
20,45.13122465833333,46.71531543541667,68.0,75.0
21,46.75849725,47.060769952083334,68.0,71.0
22,47.0175881375,47.29258811458333,69.0,72.0
23,47.31076993125,49.415315210416665,71.0,80.0
24,50.36531513125,50.533496935416665,73.0,84.0
25,50.64258783541666,50.90849690416667,76.0,70.0
26,50.89713326875,51.576678666666666,80.0,73.0
27,51.753951379166665,52.097133168750005,78.0,76.0
28,52.22440588541667,52.513042225,75.0,73.0
29,52.51758767916667,53.767587575,71.0,72.0
30,54.749405675000006,54.994860200000005,68.0,78.0
31,55.0084965625,55.3221329,71.0,78.0
32,55.297132902083334,55.87440558125,75.0,77.0
33,56.0721328375,56.6312237,75.0,80.0
34,56.619860064583335,56.917587312500004,73.0,72.0
35,56.89713276875,57.97895086041667,76.0,72.0
36,59.05622349791667,59.24031439166667,69.0,69.0
37,59.324405293750004,59.517587095833335,69.0,81.0
38,59.59258708958333,60.22440521875,73.0,81.0
39,60.4903142875,60.894859708333335,73.0,82.0
40,60.94031425,61.156223322916674,71.0,71.0
41,61.24713240625,61.85849599166667,71.0,75.0
42,62.06985961041667,62.328950497916665,66.0,74.0
43,62.3175868625,62.622132291666674,69.0,72.0
44,62.60167774791667,63.9539503625,68.0,76.0
45,64.2266776125,64.51076849791667,68.0,73.0
46,64.49258668125,64.77667756666668,69.0,71.0
47,64.77667756666668,66.83824186874999,71.0,75.0
48,67.79313343749999,68.07703142083332,73.0,80.0
49,68.03889587083331,68.32703113749999,76.0,79.0
50,68.29525151249999,68.85881019583333,80.0,80.0
51,69.03889473749999,69.49536967499999,80.0,72.0
52,69.50375893333333,69.69251724583333,78.0,73.0
53,69.78270177291665,70.87674512499999,78.0,79.0
54,71.80799512499999,71.99549512499999,71.0,79.0
55,72.10591179166666,72.31424512499999,71.0,78.0
56,72.34132845833332,72.97257845833332,75.0,75.0
57,73.08507845833333,73.570495125,75.0,80.0
58,73.57466179166666,73.74132845833333,73.0,75.0
59,73.84132845833332,75.01216179166666,76.0,81.0
60,75.75174512499999,75.92466179166665,69.0,74.0
61,76.01007845833333,76.21216179166666,69.0,73.0
62,76.24966179166665,76.85591179166666,73.0,81.0
63,77.02257845833333,77.36841179166666,73.0,82.0
64,77.48716179166665,77.66632845833333,71.0,65.0
65,77.75382845833332,78.257995125,71.0,75.0
66,78.50382845833332,78.67882845833333,66.0,76.0
67,78.74549512499999,79.00591179166665,69.0,80.0
68,79.007995125,80.289245125,68.0,75.0
69,80.52049512499998,80.74549512499999,68.0,76.0
70,80.78507845833332,81.08091179166665,69.0,74.0
71,81.070495125,82.37049512499999,71.0,75.0
72,83.76424512499999,84.04757845833332,73.0,82.0
73,84.01216179166666,84.28299512499999,76.0,71.0
74,84.257995125,84.86424512499998,80.0,75.0
75,85.04132845833333,85.48924512499998,80.0,78.0
76,85.539245125,85.67674512499998,78.0,74.0
77,85.79132845833333,86.78507845833332,78.0,81.0
78,87.76007845833333,87.97257845833332,71.0,72.0
79,88.01424512499999,88.19757845833333,71.0,74.0
80,88.28716179166665,88.87466179166665,75.0,80.0
81,89.00174512499999,89.44757845833333,75.0,78.0
82,89.48299512499999,89.65591179166665,73.0,75.0
83,89.74966179166665,90.74966179166665,76.0,81.0
84,91.72049512499999,91.90174512499999,69.0,72.0
85,91.98091179166666,92.22466179166665,69.0,72.0
86,92.24132845833333,92.86007845833332,73.0,82.0
87,93.00174512499999,93.47049512499999,73.0,85.0
88,93.49757845833332,93.65799512499999,71.0,73.0
89,93.74966179166665,94.34132845833332,71.0,76.0
90,94.52257845833333,94.70591179166665,71.0,82.0
91,94.77466179166666,94.93091179166666,80.0,78.0
92,95.06007845833332,95.83716179166666,80.0,82.0
93,96.04341179166666,96.54966179166665,80.0,73.0
94,96.52882845833332,96.80591179166666,78.0,71.0
95,96.77674512499999,98.97882845833333,80.0,76.0
96,100.99757845833332,102.03507845833332,76.0,67.0
97,101.99757845833332,102.72466179166665,78.0,78.0
98,102.99757845833332,103.22257845833332,80.0,78.0
99,103.24757845833332,103.45174512499999,78.0,72.0
100,103.49757845833332,103.73091179166666,80.0,75.0
101,103.74757845833332,104.06216179166665,78.0,75.0
102,103.99757845833332,104.28091179166665,80.0,79.0
103,104.24757845833332,104.47466179166665,85.0,80.0
104,104.49757845833332,104.74757845833332,85.0,73.0
105,104.74757845833332,104.99757845833332,85.0,73.0
106,104.99757845833332,105.24757845833332,85.0,73.0
107,105.24757845833332,105.37882845833332,80.0,71.0
108,105.49757845833332,105.62257845833332,80.0,76.0
109,105.74757845833332,105.88507845833331,80.0,81.0
110,105.99757845833332,106.18716179166665,80.0,81.0
111,106.24757845833332,106.38299512499998,78.0,80.0
112,106.49757845833332,106.71216179166666,78.0,80.0
113,106.74757845833332,106.92466179166665,76.0,78.0
114,106.99757845833332,107.176745125,78.0,76.0
115,107.24757845833332,107.38507845833331,76.0,76.0
116,107.49757845833332,107.676745125,78.0,78.0
117,107.74757845833332,107.90382845833332,76.0,76.0
118,107.99757845833332,108.14341179166665,78.0,81.0
119,108.24757845833332,108.39341179166665,83.0,80.0
120,108.49757845833332,108.62466179166665,83.0,82.0
121,108.74757845833332,108.89966179166666,83.0,77.0
122,108.99757845833332,109.14132845833332,83.0,81.0
123,109.24757845833332,109.36841179166666,78.0,63.0
124,109.49757845833332,109.62257845833332,78.0,77.0
125,109.74757845833332,109.87257845833332,78.0,80.0
126,109.99757845833332,110.24757845833332,78.0,81.0
127,110.24757845833332,110.39966179166666,76.0,75.0
128,110.49757845833332,110.69341179166665,76.0,78.0
129,110.74757845833332,110.926745125,73.0,84.0
130,110.99757845833332,111.40174512499999,76.0,80.0
131,111.49757845833332,111.96841179166665,76.0,80.0
132,113.99757845833332,114.19132845833332,75.0,81.0
133,114.24757845833332,114.71007845833333,76.0,81.0
134,114.74757845833332,116.51841179166665,71.0,82.0
135,116.99757845833332,117.91007845833332,80.0,77.0
136,117.99757845833332,118.88924512499999,78.0,81.0
137,118.99757845833332,119.19341179166665,80.0,78.0
138,119.24757845833332,119.395495125,78.0,77.0
139,119.49757845833332,119.707995125,80.0,81.0
140,119.74757845833332,120.01007845833331,78.0,80.0
141,119.99757845833332,120.15174512499999,80.0,81.0
142,120.24757845833332,120.37674512499999,85.0,80.0
143,120.49757845833332,120.66216179166665,85.0,80.0
144,120.74757845833332,120.87466179166665,85.0,80.0
145,120.99757845833332,121.11841179166666,85.0,84.0
146,121.24757845833332,121.36632845833333,80.0,80.0
147,121.49757845833332,121.61007845833332,80.0,78.0
148,121.74757845833332,121.87882845833332,80.0,80.0
149,121.99757845833332,122.18091179166666,80.0,80.0
150,122.24757845833332,122.37466179166665,78.0,75.0
151,122.49757845833332,122.707995125,78.0,80.0
152,122.74757845833332,122.92882845833333,76.0,76.0
153,122.99757845833332,123.19132845833332,78.0,71.0
154,123.24757845833332,123.38507845833331,76.0,76.0
155,123.49757845833332,123.71216179166666,78.0,80.0
156,123.74757845833332,123.88507845833331,76.0,75.0
157,123.99757845833332,124.13299512499998,78.0,80.0
158,124.24757845833332,124.39757845833333,83.0,80.0
159,124.49757845833332,124.61632845833333,83.0,81.0
160,124.74757845833332,124.87882845833332,83.0,82.0
161,124.99757845833332,125.19132845833332,83.0,83.0
162,125.24757845833332,125.33507845833333,78.0,77.0
163,125.49757845833332,125.62674512499999,78.0,81.0
164,125.74757845833332,125.88299512499998,78.0,78.0
165,125.99757845833332,126.16007845833332,78.0,80.0
166,126.24757845833332,126.38507845833331,76.0,76.0
167,126.49757845833332,126.66424512499998,76.0,77.0
168,126.74757845833332,126.957995125,73.0,82.0
169,126.99757845833332,128.22257845833332,76.0,75.0
170,128.74757845833332,128.94132845833332,75.0,80.0
171,128.99757845833332,130.30591179166666,76.0,80.0
172,130.49757845833332,130.9163284583333,81.0,84.0
173,130.99757845833332,133.3850784583333,80.0,76.0
174,143.74757845833332,144.026745125,73.0,80.0
175,143.99757845833332,144.28299512499999,76.0,79.0
176,144.24757845833332,144.80382845833333,80.0,80.0
177,144.99757845833332,145.44966179166664,80.0,72.0
178,145.49757845833332,145.68507845833332,78.0,73.0
179,145.74757845833332,146.839245125,78.0,79.0
180,147.74757845833332,147.93716179166665,71.0,79.0
181,147.99757845833332,148.20799512499997,71.0,78.0
182,148.24757845833332,148.87882845833332,75.0,75.0
183,148.99757845833332,149.4850784583333,75.0,80.0
184,149.49757845833332,149.66424512499998,73.0,75.0
185,149.74757845833332,150.920495125,76.0,81.0
186,151.74757845833332,151.920495125,69.0,74.0
187,151.99757845833332,152.201745125,69.0,73.0
188,152.24757845833332,152.85591179166664,73.0,81.0
189,152.99757845833332,153.34341179166665,73.0,82.0
190,153.49757845833332,153.67674512499997,71.0,65.0
191,153.74757845833332,154.25174512499999,71.0,75.0
192,154.49757845833332,154.6725784583333,66.0,76.0
193,154.74757845833332,155.00799512499998,69.0,80.0
194,154.99757845833332,156.28091179166665,68.0,75.0
195,156.49757845833332,156.72257845833332,68.0,76.0
196,156.74757845833332,157.04341179166664,69.0,74.0
197,156.99757845833332,158.29966179166667,71.0,75.0
198,159.74757845833332,160.03299512499999,73.0,82.0
199,159.99757845833332,160.27049512499997,76.0,71.0
200,160.24757845833332,160.85591179166664,80.0,75.0
201,160.99757845833332,161.44549512499998,80.0,78.0
202,161.49757845833332,161.63716179166664,78.0,74.0
203,161.74757845833332,162.74132845833333,78.0,81.0
204,163.74757845833332,163.96007845833333,71.0,72.0
205,163.99757845833332,164.18091179166666,71.0,74.0
206,164.24757845833332,164.83716179166666,75.0,80.0
207,164.99757845833332,165.44549512499998,75.0,78.0
208,165.49757845833332,165.670495125,73.0,75.0
209,165.74757845833332,166.74757845833332,76.0,81.0
210,167.74757845833332,167.93091179166666,69.0,72.0
211,167.99757845833332,168.24341179166666,69.0,72.0
212,168.24757845833332,168.86632845833333,73.0,82.0
213,168.99757845833332,169.46841179166665,73.0,85.0
214,169.49757845833332,169.66007845833332,71.0,73.0
215,169.74757845833332,170.339245125,71.0,76.0
216,170.49757845833332,170.68091179166666,71.0,82.0
217,170.74757845833332,170.90591179166665,80.0,78.0
218,170.99757845833332,171.77466179166666,80.0,82.0
219,171.99757845833332,172.50382845833332,80.0,73.0
220,172.49757845833332,172.77466179166666,78.0,71.0
221,172.74757845833332,173.99757845833332,80.0,76.0
222,173.99757845833332,174.49757845833332,76.0,67.0
223,174.49757845833332,174.99757845833332,78.0,67.0
224,174.99757845833332,175.22257845833332,80.0,78.0
225,175.24757845833332,175.451745125,78.0,72.0
226,175.49757845833332,175.73091179166664,80.0,75.0
227,175.74757845833332,176.06216179166665,78.0,75.0
228,175.99757845833332,176.28091179166665,80.0,79.0
229,176.24757845833332,176.47466179166665,85.0,80.0
230,176.49757845833332,176.74757845833332,85.0,73.0
231,176.74757845833332,176.99757845833332,85.0,73.0
232,176.99757845833332,177.24757845833332,85.0,73.0
233,177.24757845833332,177.37882845833332,80.0,71.0
234,177.49757845833332,177.62257845833332,80.0,76.0
235,177.74757845833332,177.88507845833334,80.0,81.0
236,177.99757845833332,178.18716179166665,80.0,81.0
237,178.24757845833332,178.38299512499998,78.0,80.0
238,178.49757845833332,178.71216179166666,78.0,80.0
239,178.74757845833332,178.92466179166667,76.0,78.0
240,178.99757845833332,179.17674512499997,78.0,76.0
241,179.24757845833332,179.38507845833334,76.0,76.0
242,179.49757845833332,179.67674512499997,78.0,78.0
243,179.74757845833332,179.90382845833332,76.0,76.0
244,179.99757845833332,180.14341179166667,78.0,81.0
245,180.24757845833332,180.39341179166667,83.0,80.0
246,180.49757845833332,180.62466179166665,83.0,82.0
247,180.74757845833332,180.89966179166666,83.0,77.0
248,180.99757845833332,181.1413284583333,83.0,81.0
249,181.24757845833332,181.36841179166666,78.0,63.0
250,181.49757845833332,181.62257845833332,78.0,77.0
251,181.74757845833332,181.87257845833332,78.0,80.0
252,181.99757845833332,182.24757845833332,78.0,81.0
253,182.24757845833332,182.39966179166666,76.0,75.0
254,182.49757845833332,182.69341179166665,76.0,78.0
255,182.74757845833332,182.92674512499997,73.0,84.0
256,182.99757845833332,183.401745125,76.0,80.0
257,183.49757845833332,183.96841179166665,76.0,80.0
258,185.99757845833332,186.19132845833332,75.0,81.0
259,186.24757845833332,186.71007845833333,76.0,81.0
260,186.74757845833332,188.51841179166667,71.0,82.0
261,188.99757845833332,189.91007845833332,80.0,77.0
262,189.99757845833332,190.889245125,78.0,81.0
263,190.99757845833332,191.19341179166665,80.0,78.0
264,191.24757845833332,191.39549512499997,78.0,77.0
265,191.49757845833332,191.70799512499997,80.0,81.0
266,191.74757845833332,192.01007845833334,78.0,80.0
267,191.99757845833332,192.151745125,80.0,81.0
268,192.24757845833332,192.37674512499999,85.0,80.0
269,192.49757845833332,192.66216179166665,85.0,80.0
270,192.74757845833332,192.87466179166665,85.0,80.0
271,192.99757845833332,193.11841179166666,85.0,84.0
272,193.24757845833332,193.36632845833333,80.0,80.0
273,193.49757845833332,193.6100784583333,80.0,78.0
274,193.74757845833332,193.87882845833332,80.0,80.0
275,193.99757845833332,194.18091179166666,80.0,80.0
276,194.24757845833332,194.37466179166665,78.0,75.0
277,194.49757845833332,194.70799512499997,78.0,80.0
278,194.74757845833332,194.92882845833333,76.0,76.0
279,194.99757845833332,195.19132845833332,78.0,71.0
280,195.24757845833332,195.38507845833334,76.0,76.0
281,195.49757845833332,195.71216179166666,78.0,80.0
282,195.74757845833332,195.88507845833334,76.0,75.0
283,195.99757845833332,196.13299512499998,78.0,80.0
284,196.24757845833332,196.39757845833333,83.0,80.0
285,196.49757845833332,196.61632845833333,83.0,81.0
286,196.74757845833332,196.87882845833332,83.0,82.0
287,196.99757845833332,197.19132845833332,83.0,83.0
288,197.24757845833332,197.33507845833333,78.0,77.0
289,197.49757845833332,197.62674512499999,78.0,81.0
290,197.74757845833332,197.88299512499998,78.0,78.0
291,197.99757845833332,198.16007845833332,78.0,80.0
292,198.24757845833332,198.38507845833334,76.0,76.0
293,198.4975784583333,198.66424512499998,76.0,77.0
294,198.7475784583333,198.95799512499997,73.0,82.0
295,198.9975784583333,200.22257845833332,76.0,75.0
296,200.7475784583333,200.94132845833332,75.0,80.0
297,200.9975784583333,202.30591179166663,76.0,80.0
298,202.4975784583333,202.91632845833334,81.0,84.0
299,202.9975784583333,205.38507845833334,80.0,76.0
300,221.9975784583333,222.4975784583333,76.0,67.0
301,222.4975784583333,222.9975784583333,78.0,67.0
302,222.9975784583333,223.22257845833332,80.0,78.0
303,223.2475784583333,223.451745125,78.0,72.0
304,223.4975784583333,223.73091179166664,80.0,75.0
305,223.7475784583333,224.06216179166665,78.0,75.0
306,223.9975784583333,224.28091179166665,80.0,79.0
307,224.2475784583333,224.47466179166668,85.0,80.0
308,224.4975784583333,224.7475784583333,85.0,73.0
309,224.7475784583333,224.9975784583333,85.0,73.0
310,224.9975784583333,225.2475784583333,85.0,73.0
311,225.2475784583333,225.37882845833332,80.0,71.0
312,225.4975784583333,225.6225784583333,80.0,76.0
313,225.7475784583333,225.88507845833334,80.0,81.0
314,225.9975784583333,226.18716179166665,80.0,81.0
315,226.2475784583333,226.38299512499998,78.0,80.0
316,226.4975784583333,226.71216179166663,78.0,80.0
317,226.7475784583333,226.92466179166667,76.0,78.0
318,226.9975784583333,227.17674512499997,78.0,76.0
319,227.2475784583333,227.38507845833334,76.0,76.0
320,227.4975784583333,227.67674512499997,78.0,78.0
321,227.7475784583333,227.9038284583333,76.0,76.0
322,227.9975784583333,228.14341179166667,78.0,81.0
323,228.2475784583333,228.39341179166667,83.0,80.0
324,228.4975784583333,228.62466179166665,83.0,82.0
325,228.7475784583333,228.89966179166663,83.0,77.0
326,228.9975784583333,229.1413284583333,83.0,81.0
327,229.2475784583333,229.36841179166663,78.0,63.0
328,229.4975784583333,229.6225784583333,78.0,77.0
329,229.7475784583333,229.8725784583333,78.0,80.0
330,229.9975784583333,230.2475784583333,78.0,81.0
331,230.2475784583333,230.39966179166663,76.0,75.0
332,230.4975784583333,230.69341179166668,76.0,78.0
333,230.7475784583333,230.92674512499997,73.0,84.0
334,230.9975784583333,231.401745125,76.0,80.0
335,231.4975784583333,231.96841179166665,76.0,80.0
336,233.9975784583333,234.19132845833332,75.0,81.0
337,234.2475784583333,234.71007845833333,76.0,81.0
338,234.7475784583333,236.51841179166667,71.0,82.0
339,236.9975784583333,237.91007845833332,80.0,77.0
340,237.9975784583333,238.889245125,78.0,81.0
341,238.9975784583333,239.19341179166668,80.0,78.0
342,239.2475784583333,239.39549512499997,78.0,77.0
343,239.4975784583333,239.70799512499997,80.0,81.0
344,239.7475784583333,240.01007845833334,78.0,80.0
345,239.9975784583333,240.151745125,80.0,81.0
346,240.2475784583333,240.376745125,85.0,80.0
347,240.4975784583333,240.66216179166668,85.0,80.0
348,240.7475784583333,240.87466179166665,85.0,80.0
349,240.9975784583333,241.11841179166663,85.0,84.0
350,241.2475784583333,241.36632845833333,80.0,80.0
351,241.4975784583333,241.6100784583333,80.0,78.0
352,241.7475784583333,241.87882845833332,80.0,80.0
353,241.9975784583333,242.18091179166663,80.0,80.0
354,242.2475784583333,242.37466179166665,78.0,75.0
355,242.4975784583333,242.70799512499997,78.0,80.0
356,242.7475784583333,242.92882845833333,76.0,76.0
357,242.9975784583333,243.19132845833332,78.0,71.0
358,243.2475784583333,243.38507845833334,76.0,76.0
359,243.4975784583333,243.71216179166663,78.0,80.0
360,243.7475784583333,243.88507845833334,76.0,75.0
361,243.9975784583333,244.13299512499998,78.0,80.0
362,244.2475784583333,244.39757845833333,83.0,80.0
363,244.4975784583333,244.61632845833333,83.0,81.0
364,244.7475784583333,244.87882845833332,83.0,82.0
365,244.9975784583333,245.19132845833332,83.0,83.0
366,245.2475784583333,245.33507845833333,78.0,77.0
367,245.4975784583333,245.626745125,78.0,81.0
368,245.7475784583333,245.88299512499998,78.0,78.0
369,245.9975784583333,246.16007845833332,78.0,80.0
370,246.2475784583333,246.38507845833334,76.0,76.0
371,246.4975784583333,246.66424512499998,76.0,77.0
372,246.7475784583333,246.95799512499997,73.0,82.0
373,246.9975784583333,248.22257845833332,76.0,75.0
374,248.7475784583333,248.94132845833332,75.0,80.0
375,248.9975784583333,250.30591179166663,76.0,80.0
376,250.4975784583333,250.91632845833334,81.0,84.0
377,250.9975784583333,253.38507845833334,80.0,76.0
378,256.526745125,256.8475784583333,73.0,82.0
379,256.826745125,257.139245125,76.0,75.0
380,257.1225784583333,257.8100784583333,80.0,71.0
381,258.0975784583333,258.4413284583333,78.0,75.0
382,258.6309117916667,258.90591179166665,75.0,70.0
383,258.91632845833334,259.964245125,71.0,59.0
384,260.389245125,260.6288284583333,68.0,66.0
385,260.639245125,260.9434117916667,71.0,72.0
386,260.93091179166663,261.507995125,75.0,75.0
387,261.63507845833334,262.151745125,75.0,77.0
388,262.14549512499997,262.476745125,73.0,76.0
389,262.44757845833334,264.0225784583333,76.0,70.0
390,264.445495125,264.632995125,69.0,68.0
391,264.732995125,264.9434117916667,69.0,72.0
392,265.04341179166664,265.682995125,73.0,80.0
393,265.8809117916667,266.26007845833334,73.0,80.0
394,266.38716179166664,266.5538284583333,71.0,72.0
395,266.6788284583333,267.4121617916667,71.0,74.0
396,267.964245125,268.23091179166664,66.0,78.0
397,268.214245125,268.5788284583333,69.0,69.0
398,268.5225784583333,269.3496617916667,68.0,72.0
399,270.751745125,271.370495125,68.0,67.0
400,271.13716179166664,272.10591179166664,66.0,43.0
