,start,end,pitch,velocity
0,31.12152635416667,31.351685095833336,71.0,56.0
1,31.359621604166666,31.589780345833333,72.0,75.0
2,31.597716854166666,32.05156304583333,74.0,76.0
3,32.059255354166666,32.51310154583334,71.0,55.0
4,32.52079385416667,32.9362861125,74.0,76.0
5,32.94332835416667,33.358820612500004,71.0,57.0
6,33.36586285416667,33.84166933750001,74.0,77.0
7,33.84973385416667,34.3255403375,71.0,56.0
8,34.33360485416667,34.81721162916667,74.0,61.0
9,34.825408354166676,35.309015129166674,83.0,73.0
10,35.31721185416667,35.65327757916667,81.0,56.0
11,35.661474304166674,36.04672037916667,79.0,76.0
12,36.05491710416667,38.185941095833336,76.0,62.0
13,38.19351685416667,38.64048659583334,76.0,60.0
14,38.64806235416667,39.09503209583334,83.0,75.0
15,39.55715335416667,39.77685034583334,79.0,61.0
16,39.32988060416667,39.77685034583334,81.0,71.0
17,39.78442610416667,40.7294408375,81.0,60.0
18,40.737505354166665,40.9713763375,74.0,62.0
19,40.97944085416667,41.46304762916667,74.0,69.0
20,41.47124435416667,41.95485112916667,71.0,72.0
21,41.96304785416667,42.182744845833334,74.0,80.0
22,42.190320604166665,42.86456309583333,81.0,72.0
23,42.872138854166664,43.319108595833335,81.0,56.0
24,43.326684354166666,44.24948384583333,78.0,60.0
25,44.25742035416667,45.678055345833336,79.0,69.0
26,45.685991854166666,45.99131986041667,79.0,63.0
27,45.999516585416664,46.319188860416666,81.0,73.0
28,46.327385585416664,46.66140212916667,83.0,79.0
29,46.669598854166665,47.34384134583333,83.0,82.0
30,47.351417104166664,48.0062254875,76.0,73.0
31,48.01347185416666,49.31057148749999,81.0,76.0
32,49.31781785416666,49.680105579166664,79.0,38.0
33,49.68858014583333,49.94493578749999,81.0,67.0
34,49.953410354166664,50.3262912875,83.0,76.0
35,50.33476585416666,51.29444333749999,83.0,84.0
36,51.30250785416666,51.756354045833326,74.0,60.0
37,51.764046354166666,53.17002934583333,79.0,69.0
38,53.177965854166665,53.52121983958333,79.0,62.0
39,53.52915634791666,53.81288652083333,81.0,71.0
40,53.82082302916666,54.12241034583333,83.0,72.0
41,54.13034685416666,54.814962295833325,81.0,79.0
42,54.82265460416666,55.04573154583333,76.0,60.0
43,55.05342385416666,55.51436135416666,78.0,59.0
44,55.52217385416666,55.98311135416666,79.0,71.0
45,55.99092385416666,56.44092389166666,79.0,55.0
46,56.4486162,56.906308545833326,78.0,64.0
47,56.91400085416666,57.36784704583333,79.0,64.0
48,57.37553935416666,57.829385545833325,81.0,64.0
49,57.83707785416666,58.31015481666666,83.0,71.0
50,58.29861635416666,58.68515484791666,81.0,62.0
51,58.76015485416666,59.273616435416656,79.0,73.0
52,59.22169335416666,59.887078024999994,74.0,62.0
53,61.09811235416666,61.335817379166656,71.0,56.0
54,61.344014104166654,61.58171912916666,72.0,75.0
55,61.589915854166655,62.07352262916665,74.0,76.0
56,62.08171935416666,62.56532612916666,71.0,55.0
57,62.573522854166654,63.034460354166654,74.0,76.0
58,63.042272854166654,63.503210354166654,71.0,57.0
59,63.511022854166654,63.971960354166654,74.0,77.0
60,63.979772854166654,64.44071035416665,71.0,56.0
61,64.44852285416665,64.88882117083332,74.0,61.0
62,64.89628385416665,65.33658217083332,83.0,73.0
63,65.34404485416665,65.67469003749999,81.0,56.0
64,65.68275455416665,66.0617868375,79.0,76.0
65,66.06985135416666,68.13484448749999,76.0,62.0
66,68.14209085416665,68.60302835416665,76.0,60.0
67,68.61084085416665,69.07177835416665,83.0,75.0
68,69.07959085416665,69.54052835416665,81.0,71.0
69,69.54834085416665,69.77490335416665,79.0,61.0
70,69.78271585416665,70.71240335416665,81.0,60.0
71,70.72021585416665,70.94677835416665,74.0,62.0
72,70.95459085416665,71.41552835416665,74.0,69.0
73,71.42334085416665,71.88427835416665,71.0,72.0
74,71.89209085416665,72.35302835416665,74.0,80.0
75,72.36084085416665,72.82177835416665,81.0,72.0
76,72.82959085416665,73.31319762916665,81.0,56.0
77,73.32139435416666,73.80500112916666,79.0,76.0
78,73.81319785416666,74.27413535416666,81.0,61.0
79,74.28194785416666,75.68038535416666,83.0,80.0
80,75.68819785416666,75.97921347916666,83.0,63.0
81,75.98702597916666,76.29171347916666,84.0,73.0
82,76.29952597916666,76.61788535416666,86.0,79.0
83,76.62569785416666,77.55538535416666,86.0,82.0
84,77.56319785416666,78.00349617083333,79.0,73.0
85,78.01095885416666,79.38840735416666,81.0,76.0
86,79.39621985416666,79.68918860416666,83.0,67.0
87,79.69700110416666,79.95871985416666,84.0,67.0
88,79.96653235416666,80.32590735416666,86.0,76.0
89,80.33371985416666,80.80637610416666,86.0,84.0
90,80.81418860416666,81.26926672916666,78.0,71.0
91,81.27707922916666,81.69504797916666,81.0,73.0
92,81.70286047916666,81.96653235416666,78.0,68.0
93,81.97434485416666,83.13840735416666,79.0,57.0
94,83.14621985416666,83.51340735416666,83.0,78.0
95,83.52121985416666,83.77707922916666,84.0,73.0
96,83.78489172916666,84.07590735416666,86.0,76.0
97,84.08371985416666,84.54465735416666,86.0,80.0
98,84.55246985416666,84.77903235416666,79.0,73.0
99,84.78684485416666,85.24778235416666,88.0,81.0
100,85.25559485416666,85.95090735416666,86.0,79.0
101,85.95871985416666,86.41965735416666,83.0,80.0
102,86.42746985416666,86.65403235416666,84.0,76.0
103,86.66184485416666,87.59153235416666,83.0,80.0
104,87.59934485416666,87.82590735416666,79.0,63.0
105,87.83371985416666,90.19989935416666,81.0,79.0
106,90.20771185416666,90.66864935416666,74.0,82.0
107,90.67646185416666,91.13739935416666,88.0,95.0
108,91.14521185416666,91.60614935416666,83.0,86.0
109,91.61396185416666,92.06780804583333,83.0,84.0
110,92.07550035416666,92.99088504583332,84.0,82.0
111,92.99857735416666,94.21435228749999,86.0,86.0
112,94.22282685416666,94.4685892875,74.0,78.0
113,94.47706385416666,94.9045994875,88.0,93.0
114,94.91184585416666,95.33938148749999,83.0,80.0
115,95.34662785416666,95.79359759583332,83.0,83.0
116,95.80117335416665,96.70268859583332,84.0,84.0
117,96.71026435416665,97.67343017083331,83.0,82.0
118,97.68205085416665,97.99670579583332,79.0,83.0
119,98.00532647916665,98.50007310416665,79.0,90.0
120,98.50788560416665,99.12897935416665,91.0,93.0
121,99.13679185416665,99.58376159583331,90.0,103.0
122,99.59133735416664,99.8110343458333,91.0,83.0
123,99.81861010416665,100.26557984583332,90.0,78.0
124,100.27315560416665,100.72012534583331,86.0,72.0
125,100.72770110416664,100.94739809583331,86.0,71.0
126,100.95497385416664,101.40194359583332,90.0,78.0
127,101.40951935416665,101.62921634583331,91.0,82.0
128,101.63679210416664,102.3110345958333,90.0,78.0
129,102.31861035416665,102.53830734583332,81.0,76.0
130,102.54588310416665,105.57419392083331,83.0,82.0
131,105.58154685416665,106.05735333749998,83.0,91.0
132,106.06541785416664,106.54122433749998,84.0,95.0
133,106.54928885416665,107.02509533749998,86.0,91.0
134,107.03315985416664,107.50896633749998,84.0,93.0
135,107.51703085416665,108.00869752083331,84.0,86.0
136,108.01703085416665,108.25869752083331,83.0,61.0
137,108.26703085416665,108.74359335416665,84.0,83.0
138,108.75140585416665,109.91546835416665,74.0,61.0
139,109.92328085416665,110.14984335416665,83.0,90.0
140,110.15765585416665,110.38421835416665,81.0,82.0
141,110.39203085416665,110.83232917083332,83.0,83.0
142,110.83979185416665,111.05620967083331,81.0,83.0
143,111.06367235416666,111.50397067083331,83.0,84.0
144,111.51143335416666,112.17561217083332,89.0,91.0
145,112.18307485416665,113.60370984583332,88.0,94.0
146,113.61164635416665,113.84180509583331,88.0,82.0
147,113.84974160416665,114.07990034583331,90.0,86.0
148,114.08783685416665,114.54877435416665,91.0,90.0
149,114.55658685416665,114.78314935416665,88.0,83.0
150,114.79096185416665,115.25189935416665,88.0,84.0
151,115.25971185416665,115.72064935416665,90.0,105.0
152,115.72846185416665,116.42377435416665,91.0,83.0
153,116.43158685416665,116.89252435416665,90.0,84.0
154,116.90033685416665,117.39200352083331,88.0,90.0
155,117.40033685416665,117.89200352083331,90.0,84.0
156,117.90033685416665,118.75033600416666,88.0,84.0
157,118.75747885416665,119.24108562916665,83.0,84.0
158,120.23288935416664,120.71649612916664,74.0,82.0
159,120.72469285416665,121.19294684583332,88.0,95.0
160,121.20088335416665,121.66913734583332,83.0,86.0
161,119.24928235416665,121.66913734583332,86.0,84.0
162,121.67707385416665,122.11737217083332,83.0,84.0
163,122.12483485416665,123.01289417083332,84.0,82.0
164,123.94430835416665,124.17446709583332,74.0,78.0
165,123.02035685416665,124.17446709583332,86.0,86.0
166,124.42049885416665,124.86746859583332,88.0,93.0
167,124.87504435416665,125.32201409583332,83.0,80.0
168,125.32958985416666,125.79052735416666,83.0,83.0
169,125.79833985416666,126.71372454583333,84.0,84.0
170,126.72141685416666,127.65120934583332,83.0,82.0
171,127.89724110416665,128.1869236583333,79.0,83.0
172,128.13533635416664,128.1869236583333,79.0,90.0
173,128.60755859999998,129.2385110125,91.0,93.0
174,129.08771735416664,129.5559713458333,90.0,103.0
175,129.56390785416664,129.79406659583333,91.0,83.0
176,129.80200310416666,130.26317529583332,90.0,78.0
177,130.27086760416665,130.7247137958333,86.0,72.0
178,130.73240610416664,130.95548304583332,86.0,71.0
179,130.96317535416665,131.4170215458333,90.0,78.0
180,131.42471385416664,131.64779079583332,91.0,82.0
181,131.65548310416665,132.3400985458333,90.0,78.0
182,132.57856010416666,132.8016370458333,81.0,76.0
183,132.80932935416664,135.64400683749997,83.0,82.0
184,135.65207135416662,136.12787783749997,83.0,91.0
185,136.13594235416664,136.36981333749998,84.0,95.0
186,136.37787785416663,137.09561983749998,86.0,91.0
187,137.10368435416663,137.33755533749996,84.0,93.0
188,137.34561985416664,138.0345250958333,83.0,86.0
189,138.04210085416662,138.26179784583329,79.0,61.0
190,138.26937360416662,139.3981615958333,81.0,83.0
191,139.40573735416663,139.88154383749998,83.0,93.0
192,139.88960835416663,140.12347933749996,84.0,84.0
193,140.13154385416664,140.84928583749996,83.0,86.0
194,140.85735035416664,141.09122133749997,84.0,90.0
195,141.09928585416662,141.80215885416663,83.0,82.0
196,141.80997135416663,142.03653385416663,78.0,83.0
197,142.04434635416663,143.20840885416663,79.0,82.0
198,143.21622135416663,143.67715885416663,83.0,84.0
199,143.68497135416663,144.14590885416663,84.0,75.0
200,144.15372135416663,144.61465885416663,86.0,83.0
201,144.62247135416663,145.08340885416663,84.0,81.0
202,145.09122135416663,145.55215885416663,84.0,56.0
203,145.55997135416663,146.02090885416663,91.0,75.0
204,146.02872135416663,146.95840885416663,90.0,75.0
205,146.96622135416663,147.42715885416663,81.0,79.0
206,147.43497135416663,150.92636598749996,84.0,83.0
207,150.93361235416663,151.57853898749997,83.0,81.0
208,151.58578535416663,155.31539892083327,79.0,75.0
209,162.38681685416665,162.61337935416665,71.0,56.0
210,162.62119185416665,162.84775435416665,72.0,75.0
211,162.85556685416665,163.31650435416665,74.0,76.0
212,163.32431685416665,163.78525435416665,71.0,55.0
213,163.79306685416665,164.26132084583332,74.0,76.0
214,164.26925735416665,164.73751134583333,71.0,57.0
215,164.74544785416666,165.21370184583333,74.0,77.0
216,165.22163835416666,165.68989234583333,71.0,56.0
217,165.69782885416666,166.16608284583333,74.0,61.0
218,166.17401935416666,166.64227334583333,83.0,73.0
219,166.65020985416666,167.10405604583332,81.0,56.0
220,167.11174835416665,167.33482529583333,79.0,76.0
221,167.34251760416666,169.39318884583335,76.0,62.0
222,169.40112535416668,169.88473212916668,76.0,60.0
223,169.89292885416668,170.37653562916668,83.0,75.0
224,170.3847323541667,170.82503067083334,81.0,71.0
225,170.8324933541667,171.04891117083335,79.0,61.0
226,171.05637385416668,171.98660359583334,81.0,60.0
227,171.99454010416667,172.22469884583336,74.0,62.0
228,172.2326353541667,172.68648154583335,74.0,69.0
229,172.69417385416668,173.14802004583336,71.0,72.0
230,173.1557123541667,173.37878929583334,74.0,80.0
231,173.38648160416668,174.07109704583337,81.0,72.0
232,174.0787893541667,174.54704334583337,81.0,56.0
233,174.5549798541667,175.50697683750005,78.0,60.0
234,175.5150413541667,176.95858983750003,79.0,69.0
235,176.9666543541667,177.20052533750004,79.0,63.0
236,177.20858985416672,177.68439633750003,81.0,73.0
237,177.6924608541667,177.92633183750004,83.0,79.0
238,177.9343963541667,178.61901179583336,83.0,82.0
239,178.6267041041667,179.31131954583336,76.0,73.0
240,179.3190118541667,180.69593504583335,81.0,76.0
241,180.70362735416668,180.92670429583336,79.0,38.0
242,180.9343966041667,181.15747354583337,81.0,67.0
243,181.1651658541667,181.61901204583336,83.0,76.0
244,181.6267043541667,182.58638183750003,83.0,84.0
245,182.59444635416668,183.04829254583333,74.0,60.0
246,183.05598485416667,184.39252242083336,79.0,69.0
247,184.39987535416668,184.62643785416668,79.0,62.0
248,184.63425035416668,185.09518785416668,81.0,71.0
249,185.10300035416668,185.32956285416668,83.0,72.0
250,185.33737535416668,186.04372459583334,83.0,79.0
251,186.05166110416667,186.28181984583335,76.0,60.0
252,186.28975635416668,186.75801034583336,78.0,59.0
253,186.76594685416669,187.23420084583336,79.0,71.0
254,187.2421373541667,187.71039134583336,79.0,55.0
255,187.7183278541667,188.18658184583336,78.0,64.0
256,188.1945183541667,188.66277234583336,79.0,64.0
257,188.6707088541667,189.13896284583336,81.0,64.0
258,189.1468993541667,189.61515334583333,83.0,71.0
259,189.6230898541667,190.09134384583334,81.0,62.0
260,190.0992803541667,190.5207085041667,79.0,73.0
261,190.5278513541667,192.34775334583338,74.0,62.0
262,192.3556898541667,192.58584859583337,71.0,56.0
263,192.5937851041667,192.82394384583338,72.0,75.0
264,192.8318803541667,193.28572654583337,74.0,76.0
265,193.2934188541667,193.7472650458334,71.0,55.0
266,193.75495735416672,194.23856412916672,74.0,76.0
267,194.24676085416672,194.73036762916672,71.0,57.0
268,194.73856435416673,195.22217112916672,74.0,77.0
269,195.23036785416673,195.71397462916673,71.0,56.0
270,195.72217135416673,196.18310885416673,74.0,61.0
271,196.19092135416673,196.65185885416673,83.0,73.0
272,196.65967135416673,197.12060885416673,81.0,56.0
273,197.12842135416673,197.35498385416673,79.0,76.0
274,197.36279635416673,199.3807526708334,76.0,62.0
275,199.38821535416673,199.84915285416673,76.0,60.0
276,199.85696535416673,200.31790285416673,83.0,75.0
277,200.32571535416673,200.8173820208334,81.0,71.0
278,200.82571535416673,201.0673820208334,79.0,61.0
279,201.07571535416673,202.02102785416673,81.0,60.0
280,202.02884035416673,202.25540285416673,74.0,62.0
281,202.26321535416673,202.72415285416673,74.0,69.0
282,202.73196535416673,203.19290285416673,71.0,72.0
283,203.20071535416673,203.6476850958334,74.0,80.0
284,203.65526085416673,204.1022305958334,81.0,72.0
285,204.10980635416672,204.5780603458334,81.0,56.0
286,204.58599685416672,205.0542508458334,79.0,76.0
287,205.06218735416672,205.5304413458334,81.0,61.0
288,205.53837785416673,206.9590128458334,83.0,80.0
289,206.96694935416673,207.19710809583339,83.0,63.0
290,207.20504460416672,207.6732985958334,84.0,73.0
291,207.68123510416672,207.9113938458334,86.0,79.0
292,207.91933035416673,208.86377484583338,86.0,82.0
293,208.87171135416673,209.3055344208334,79.0,73.0
294,209.31288735416675,210.6985078458334,81.0,76.0
295,210.70644435416673,210.9366030958334,83.0,67.0
296,210.94453960416672,211.1746983458334,84.0,67.0
297,211.18263485416674,211.6508888458334,86.0,76.0
298,211.65882535416674,212.1270793458334,86.0,84.0
299,212.13501585416674,212.6032698458334,78.0,71.0
300,212.61120635416674,213.0515046708334,81.0,73.0
301,213.05896735416675,213.2753851708334,78.0,68.0
302,213.28284785416673,214.3947876708334,79.0,57.0
303,214.40225035416674,214.86318785416674,83.0,78.0
304,214.87100035416674,215.09756285416674,84.0,73.0
305,215.10537535416674,215.33193785416674,86.0,76.0
306,215.33975035416674,215.81555683750008,86.0,80.0
307,215.82362135416673,216.05749233750007,79.0,73.0
308,216.06555685416674,216.54136333750006,88.0,81.0
309,216.54942785416674,217.26716983750006,86.0,79.0
310,217.27523435416674,217.7155326708334,83.0,80.0
311,217.72299535416676,217.9394131708334,84.0,76.0
312,217.94687585416673,218.8349351708334,83.0,80.0
313,218.84239785416673,219.0588156708334,79.0,63.0
314,219.06627835416674,221.50174634583342,81.0,79.0
315,221.50968285416675,221.97793684583343,74.0,82.0
316,221.98587335416676,222.4261716708334,88.0,95.0
317,222.43363435416677,222.87393267083343,83.0,86.0
318,222.88139535416676,223.3352415458334,83.0,84.0
319,223.34293385416674,224.25831854583342,84.0,82.0
320,224.26601085416675,225.41216479583343,86.0,86.0
321,225.41985710416677,225.6429340458334,74.0,78.0
322,225.65062635416675,226.10447254583343,88.0,93.0
323,226.11216485416676,226.56601104583342,83.0,80.0
324,226.57370335416675,227.07370278750008,83.0,83.0
325,227.08217735416676,228.05890534583344,84.0,84.0
326,228.06684185416677,228.99000209583343,83.0,82.0
327,228.99757785416676,229.21727484583343,79.0,83.0
328,229.22485060416676,229.67182034583342,79.0,90.0
329,229.67939610416676,230.35363859583344,91.0,93.0
330,230.36121435416678,230.82946834583345,90.0,103.0
331,230.83740485416678,231.06756359583343,91.0,83.0
332,231.07550010416676,231.54375409583344,90.0,78.0
333,231.55169060416677,232.01994459583344,86.0,72.0
334,232.02788110416677,232.25803984583345,86.0,71.0
335,232.26597635416678,232.73423034583345,90.0,78.0
336,232.74216685416678,232.97232559583344,91.0,82.0
337,232.98026210416677,233.63384961250011,90.0,78.0
338,233.6408918541668,233.8451168625001,81.0,76.0
339,233.8521591041668,236.91263284583346,83.0,82.0
340,236.9205693541668,237.38882334583346,83.0,91.0
341,237.3967598541668,237.62691859583344,84.0,95.0
342,237.63485510416677,238.34120434583343,86.0,91.0
343,238.3491408541668,238.57929959583345,84.0,93.0
344,238.58723610416678,239.2862688541668,84.0,86.0
345,239.2940813541668,239.5206438541668,79.0,61.0
346,239.5284563541668,240.6925188541668,81.0,83.0
347,240.7003313541668,241.1612688541668,83.0,84.0
348,241.1690813541668,241.3956438541668,84.0,86.0
349,241.4034563541668,242.0987688541668,83.0,93.0
350,242.1065813541668,242.3331438541668,84.0,90.0
351,242.3409563541668,243.0362688541668,83.0,93.0
352,243.0440813541668,243.2706438541668,78.0,79.0
353,243.2784563541668,244.4425188541668,79.0,77.0
354,244.4503313541668,244.9112688541668,83.0,91.0
355,244.9190813541668,245.1456438541668,84.0,82.0
356,245.1534563541668,245.8487688541668,86.0,83.0
357,245.8565813541668,246.0831438541668,84.0,98.0
358,246.0909563541668,246.5518938541668,84.0,98.0
359,246.5597063541668,247.2550188541668,91.0,83.0
360,247.7315813541668,247.9581438541668,81.0,83.0
361,247.2628313541668,247.9581438541668,90.0,105.0
362,248.2003313541668,249.1300188541668,84.0,83.0
363,249.59936985416678,249.82244679583346,79.0,83.0
364,249.1378313541668,252.88081084583348,83.0,95.0
365,262.76824185416683,263.2336265083335,74.0,61.0
366,263.2297803541668,263.5951650000001,88.0,83.0
367,263.6913188541668,264.0297804208335,83.0,95.0
368,264.1528573541668,264.5490112333335,83.0,90.0
369,264.6143958541668,265.21631898125014,84.0,86.0
370,265.5374728541668,266.15670367500013,86.0,80.0
371,266.69131910416684,266.81054988333347,74.0,71.0
372,266.9220883541668,267.51247301875014,88.0,90.0
373,267.38362685416683,267.71824226666683,83.0,82.0
374,267.8451653541668,268.2067038458335,83.0,84.0
375,268.3067038541668,268.9932423729168,84.0,84.0
376,269.2297808541668,269.97048602083345,83.0,84.0
377,270.4413193541668,270.54965268750016,79.0,93.0
378,270.6913193541668,271.13298602083347,79.0,95.0
379,271.1913193541668,271.53715268750017,91.0,90.0
380,271.6913193541668,272.0490116916668,90.0,106.0
381,272.1528578541668,272.28170401875013,91.0,82.0
382,272.3836271041668,272.60670404583345,90.0,83.0
383,272.8286818541668,273.1269225416668,86.0,93.0
384,273.26684785416677,273.3862507875001,86.0,83.0
385,273.4907283541668,273.7929670291668,90.0,101.0
386,273.9384893541668,274.08774302083344,91.0,83.0
387,274.16236985416674,274.2817727875001,90.0,110.0
388,275.13625035416675,275.4535580520834,81.0,86.0
389,275.38625035416675,276.1958658062501,83.0,94.0
390,276.3093273541667,277.61560124791674,86.0,100.0
391,278.21601135416677,278.63983947916677,83.0,100.0
392,278.68476135416677,279.04218322916677,84.0,94.0
393,279.15351135416677,279.53437072916677,86.0,93.0
394,279.62226135416677,279.73944885416677,84.0,98.0
395,280.09101135416677,280.70233947916677,84.0,94.0
396,280.55976135416677,280.71601135416677,83.0,95.0
397,280.79413635416677,281.35468322916677,84.0,100.0
398,281.49726135416677,281.63202697916677,74.0,86.0
399,282.43476135416677,282.66913635416677,83.0,95.0
400,282.66913635416677,282.84101135416677,81.0,90.0
401,282.90351135416677,283.28046447916677,83.0,98.0
402,283.37226135416677,283.53632385416677,81.0,86.0
403,283.60663635416677,283.81757385416677,83.0,91.0
404,284.07538635416677,284.64179260416677,90.0,106.0
405,284.77851135416677,285.49530822916677,88.0,95.0
406,286.18476135416677,286.34687072916677,88.0,91.0
407,286.41913635416677,286.55976135416677,90.0,98.0
408,286.65351135416677,287.10077697916677,91.0,98.0
409,287.12226135416677,287.21796447916677,88.0,93.0
410,287.35663635416677,287.71796447916677,88.0,98.0
411,287.82538635416677,288.13788635416677,90.0,105.0
412,288.29413635416677,288.80585510416677,91.0,94.0
413,288.99726135416677,289.40155822916677,90.0,98.0
414,289.46601135416677,289.91327697916677,88.0,93.0
415,289.93476135416677,290.36640197916677,90.0,106.0
416,290.40351135416677,291.09882385416677,88.0,98.0
417,291.10663635416677,291.75507385416677,83.0,100.0
418,291.80976135416677,292.54999572916677,86.0,90.0
419,292.74726135416677,293.21991760416677,74.0,61.0
420,293.21601135416677,293.58710510416677,88.0,83.0
421,293.68476135416677,294.02851135416677,83.0,95.0
422,294.15351135416677,294.55585510416677,83.0,90.0
423,294.62226135416677,295.23358947916677,84.0,86.0
424,295.55976135416677,296.18866760416677,86.0,80.0
425,296.73163635416677,296.85273010416677,74.0,71.0
426,296.96601135416677,297.56562072916677,88.0,90.0
427,297.43476135416677,297.77460510416677,83.0,82.0
428,297.90351135416677,298.27069885416677,83.0,84.0
429,298.37226135416677,299.06952697916677,84.0,84.0
430,299.30976135416677,300.04023010416677,83.0,84.0
431,300.48163635416677,300.58319885416677,79.0,93.0
432,300.71601135416677,301.1175265458334,79.0,95.0
433,301.17055685416676,301.4849508250001,91.0,90.0
434,301.62510235416676,301.98838360416676,90.0,106.0
435,302.09385235416676,302.22471172916676,91.0,82.0
436,302.32822735416676,302.55478985416676,90.0,83.0
437,302.79697735416676,303.11924297916676,86.0,93.0
438,303.26572735416676,303.39072735416676,86.0,83.0
439,303.50010235416676,303.81650860416676,90.0,101.0
440,303.96885235416676,304.12510235416676,91.0,83.0
441,304.20322735416676,304.32822735416676,90.0,110.0
442,305.14072735416676,305.44346172916676,81.0,86.0
443,305.37510235416676,306.19736797916676,83.0,94.0
444,306.31260235416676,307.61533672916676,86.0,100.0
445,308.18760235416676,308.61143047916676,83.0,100.0
446,308.65635235416676,309.01377422916676,84.0,94.0
447,308.89072735416676,309.27158672916676,86.0,93.0
448,309.59385235416676,309.71103985416676,84.0,98.0
449,309.82822735416676,310.43955547916676,83.0,94.0
450,310.53135235416676,310.68760235416676,79.0,95.0
451,310.76572735416676,311.32627422916676,81.0,100.0
452,311.93760235416676,312.49814922916676,83.0,100.0
453,312.40635235416676,312.64268047916676,84.0,95.0
454,312.87510235416676,313.25205547916676,83.0,98.0
455,313.34385235416676,313.50791485416676,84.0,86.0
456,313.57822735416676,313.78916485416676,83.0,91.0
457,314.28135235416676,314.45322735416676,78.0,84.0
458,314.51572735416676,315.52549297916676,79.0,90.0
459,315.68760235416676,316.08213360416676,83.0,98.0
460,316.15635235416676,316.44346172916676,84.0,90.0
461,316.39072735416676,317.02744610416676,86.0,84.0
462,317.09385235416676,317.28525860416676,84.0,93.0
463,317.32822735416676,317.86338360416676,84.0,90.0
464,318.03135235416676,318.30869610416676,90.0,78.0
465,318.50010235416676,319.23447735416676,90.0,91.0
466,319.43760235416676,319.83018047916676,81.0,86.0
467,319.90635235416676,320.94736797916676,84.0,82.0
468,322.13451935416674,322.53520389166675,83.0,82.0
469,322.75095710416673,323.84449567083345,79.0,84.0
