,start,end,pitch,velocity
0,0.4356061041666667,0.69886370625,74.0,51.0
1,0.6628788541666667,1.28977285625,88.0,72.0
2,1.1174243541666666,1.5549243979166667,86.0,76.0
3,1.5719698541666667,2.2090666708333333,83.0,68.0
4,1.5719698541666667,2.465115075,67.0,61.0
5,2.0558408541666666,2.5074537875000003,74.0,59.0
6,2.2977763541666665,3.0235828541666665,84.0,69.0
7,2.539711854166667,3.1566473791666665,79.0,39.0
8,4.402975854166667,4.682826479166668,83.0,38.0
9,3.0235828541666665,4.703348858333333,81.0,49.0
10,3.0235828541666665,4.716408554166668,86.0,63.0
11,5.0746173541666675,5.276109804166667,74.0,46.0
12,5.298497854166667,5.671414520833334,81.0,69.0
13,5.298497854166667,6.098497854166667,66.0,65.0
14,5.798497854166667,6.2568311875000004,74.0,72.0
15,6.298497854166667,6.398107229166667,78.0,72.0
16,6.767247854166667,6.866857229166667,81.0,54.0
17,5.298497854166667,7.390294729166667,86.0,71.0
18,7.235997854166667,7.607091604166667,93.0,60.0
19,7.235997854166667,7.788732229166667,81.0,56.0
20,7.704747854166667,8.068029104166667,91.0,83.0
21,8.173497854166667,8.286401087500002,74.0,75.0
22,8.173497854166667,8.578739816666667,90.0,73.0
23,8.899304354166667,9.076723720833334,67.0,1.0
24,8.657368854166668,9.117046304166667,86.0,57.0
25,9.602778354166666,10.03162454375,71.0,54.0
26,9.141239854166667,10.11239378125,64.0,72.0
27,10.064316854166666,10.56239381875,76.0,59.0
28,9.141239854166667,10.95470154375,91.0,74.0
29,10.525855354166668,12.0548673,78.0,22.0
30,10.987393854166667,12.1259879375,90.0,63.0
31,12.427711854166667,12.931242089583334,83.0,56.0
32,12.875472854166667,13.694703691666666,62.0,62.0
33,13.337011354166666,13.756242158333333,71.0,54.0
34,13.798549854166666,14.228877916666665,74.0,56.0
35,12.875472854166667,14.482976391666666,86.0,73.0
36,14.290353354166665,14.881421454166665,78.0,47.0
37,15.223332854166665,15.592817754166665,78.0,79.0
38,14.782156854166665,15.802568495833333,79.0,63.0
39,15.664508854166666,15.802568495833333,79.0,78.0
40,16.112269854166666,16.5115234125,78.0,94.0
41,16.560030854166666,17.319796479166666,76.0,93.0
42,16.560030854166666,17.413546479166666,48.0,79.0
43,17.028780854166666,17.483858979166666,55.0,62.0
44,17.497530854166666,18.005727804166664,60.0,72.0
45,17.989334354166665,18.102039322916667,64.0,75.0
46,18.481137854166665,18.626299154166666,74.0,73.0
47,18.481137854166665,18.70896045,69.0,53.0
48,18.481137854166665,19.124283058333333,78.0,84.0
49,18.481137854166665,19.804940495833332,50.0,76.0
50,19.206944354166666,19.820092012499998,74.0,84.0
51,18.965008854166665,19.87122838125,57.0,69.0
52,19.448879854166666,20.293576908333332,62.0,61.0
53,19.903425354166664,20.369334491666667,69.0,71.0
54,20.357970854166666,20.481076927083333,78.0,69.0
55,20.357970854166666,20.532213295833333,74.0,50.0
56,20.357970854166666,21.085243654166668,81.0,75.0
57,21.039789104166665,21.619334616666666,79.0,76.0
58,21.267061854166666,21.738652810416667,71.0,72.0
59,20.812516354166664,21.806834635416667,66.0,68.0
60,20.357970854166666,21.833349789583334,59.0,82.0
61,21.721607354166665,22.14395588125,78.0,76.0
62,22.176152854166666,23.5713142375,80.0,78.0
63,22.176152854166666,23.660023920833332,52.0,78.0
64,23.627765854166668,24.11365298333333,59.0,6.0
65,24.595507854166666,25.004782075,64.0,47.0
66,24.111636854166665,25.012846591666666,72.0,74.0
67,25.079378854166666,25.53130196875,71.0,69.0
68,25.540917354166666,25.615917360416667,72.0,63.0
69,26.002455854166666,26.669763602083332,72.0,53.0
70,24.595507854166666,26.83514823125,67.0,59.0
71,26.002455854166666,27.15238468333333,79.0,53.0
72,24.111636854166665,27.18016245833333,60.0,72.0
73,27.758866104166664,28.141716170833334,74.0,24.0
74,28.036643854166666,28.7630921125,78.0,57.0
75,28.254034854166665,29.071062695833334,81.0,69.0
76,31.597716854166666,31.993870733333335,43.0,76.0
77,31.597716854166666,33.73683062083334,67.0,73.0
78,31.597716854166666,33.96666934583334,62.0,57.0
79,32.059255354166666,33.97876612083334,55.0,56.0
80,31.597716854166666,33.982798379166674,71.0,82.0
81,35.13688390416667,36.403277916666674,64.0,51.0
82,35.16967080416667,36.46065499166667,67.0,69.0
83,35.28032659166667,36.54467142291667,74.0,73.0
84,37.20450778541667,37.69351680416667,86.0,48.0
85,37.28442585416667,37.77116832708334,79.0,42.0
86,37.28442585416667,37.82798651458334,74.0,35.0
87,35.31721185416667,38.21056231041667,59.0,47.0
88,35.31721185416667,38.32041080625,48.0,20.0
89,35.31721185416667,38.322304745833335,55.0,45.0
90,39.10260785416667,39.49844122708334,72.0,79.0
91,39.10260785416667,39.502229106250006,64.0,63.0
92,39.10260785416667,40.18710209166667,45.0,75.0
93,39.55715335416667,40.3181504875,52.0,61.0
94,40.01169885416667,40.37056984583334,60.0,78.0
95,40.01169885416667,40.43105372083333,57.0,62.0
96,40.01169885416667,40.47137630416667,67.0,78.0
97,40.49556985416667,40.999932666666666,64.0,79.0
98,40.97944085416667,41.51632634166667,60.0,68.0
99,40.97944085416667,41.67616247916667,67.0,77.0
100,40.97944085416667,42.37403274375,50.0,5.0
101,41.96304785416667,42.41948729375,69.0,63.0
102,40.97944085416667,42.42327517291667,57.0,30.0
103,41.96304785416667,42.43085093125,60.0,24.0
104,42.872138854166664,43.226305556250004,62.0,69.0
105,42.872138854166664,43.275547985416665,67.0,53.0
106,43.326684354166666,43.924087004166665,50.0,62.0
107,43.78122985416667,44.235594956250004,60.0,83.0
108,43.78122985416667,44.271309243750004,55.0,62.0
109,44.25742035416667,45.15424579583333,62.0,79.0
110,44.73361085416667,45.20384897291667,59.0,59.0
111,44.73361085416667,45.237579133333334,67.0,59.0
112,42.872138854166664,45.25345215,43.0,73.0
113,44.73361085416667,45.27329342083333,55.0,40.0
114,46.669598854166665,47.120356475,64.0,63.0
115,46.669598854166665,47.14687162916667,72.0,78.0
116,46.669598854166665,47.81419677083333,45.0,60.0
117,47.57868985416666,48.02434140416666,60.0,58.0
118,47.12414435416667,48.05876164583333,57.0,44.0
119,47.57868985416666,48.08955870416666,67.0,61.0
120,48.01347185416666,48.49173205416666,69.0,69.0
121,48.44825385416666,48.82325332916666,62.0,51.0
122,48.44825385416666,48.83593447083333,66.0,79.0
123,49.31781785416666,49.639851387499995,74.0,73.0
124,48.44825385416666,49.78603766249999,50.0,31.0
125,48.44825385416666,49.845359629166666,57.0,51.0
126,50.33476585416666,50.68758845833333,62.0,60.0
127,50.33476585416666,51.15129816666666,69.0,73.0
128,50.33476585416666,51.51212325625,47.0,82.0
129,51.30250785416666,51.7717386625,66.0,79.0
130,50.81863685416666,51.83520020624999,59.0,43.0
131,52.22558485416666,52.6978071,62.0,54.0
132,52.22558485416666,52.709711862499994,67.0,71.0
133,52.22558485416666,53.77121985208333,52.0,68.0
134,52.701775354166664,53.77121985208333,59.0,56.0
135,53.65415635416666,54.052965897916664,71.0,68.0
136,54.13034685416666,54.55726996666666,45.0,63.0
137,54.13034685416666,54.988039233333325,64.0,57.0
138,54.59188535416666,55.10420510416666,57.0,61.0
139,54.13034685416666,55.18037697916666,72.0,81.0
140,55.99092385416666,56.825539308333326,72.0,58.0
141,55.99092385416666,56.95823162708333,67.0,50.0
142,55.52217385416666,56.98900086041666,64.0,45.0
143,55.05342385416666,57.27169319166666,60.0,60.0
144,56.91400085416666,57.285154731249996,71.0,75.0
145,57.37553935416666,57.83323169999999,67.0,75.0
146,57.83707785416666,58.27361635208332,60.0,32.0
147,57.83707785416666,58.35246251249999,69.0,68.0
148,58.76015485416666,59.137077962499994,67.0,68.0
149,58.76015485416666,59.21400104583333,62.0,53.0
150,58.29861635416666,59.27746258958333,57.0,67.0
151,59.45246260416666,59.51015491666666,69.0,46.0
152,59.22169335416666,59.73515493541666,67.0,48.0
153,59.68323185416666,60.51400115416666,66.0,17.0
154,59.68323185416666,60.55630884999999,57.0,49.0
155,59.68323185416666,60.56015500416666,62.0,40.0
156,59.68323185416666,60.57746269791666,69.0,58.0
157,57.83707785416666,60.70466955416666,50.0,69.0
158,61.589915854166655,62.038686547916654,69.0,69.0
159,61.589915854166655,62.10835871041665,71.0,78.0
160,61.589915854166655,62.137047247916655,67.0,80.0
161,61.589915854166655,62.15548987916666,62.0,70.0
162,62.573522854166654,63.102819729166654,71.0,59.0
163,62.573522854166654,63.106725979166654,67.0,68.0
164,62.573522854166654,63.153600979166654,62.0,56.0
165,63.511022854166654,63.942663479166654,71.0,63.0
166,63.511022854166654,64.02469472916665,67.0,71.0
167,63.511022854166654,64.09110097916665,62.0,60.0
168,61.589915854166655,64.59031383749999,55.0,68.0
169,64.44852285416665,64.86643312083332,71.0,80.0
170,64.44852285416665,64.89628385416665,67.0,76.0
171,64.44852285416665,64.90747787916665,62.0,76.0
172,64.89628385416665,65.39444808333332,55.0,67.0
173,65.34404485416665,65.74323842916665,71.0,73.0
174,65.34404485416665,65.77348036666666,64.0,72.0
175,65.34404485416665,65.79364165833331,62.0,61.0
176,65.34404485416665,65.79565778749999,67.0,70.0
177,66.31178685416666,66.75768218333332,71.0,71.0
178,66.31178685416666,66.77633889166665,64.0,51.0
179,66.31178685416666,66.81551797916666,62.0,48.0
180,66.31178685416666,66.82111499166666,67.0,45.0
181,65.82791585416665,67.58439218749999,60.0,36.0
182,67.20730885416666,67.74535227916665,71.0,61.0
183,67.20730885416666,67.7598450125,64.0,51.0
184,67.20730885416666,67.77977252083332,67.0,37.0
185,67.20730885416666,67.79064207083333,62.0,41.0
186,67.92469985416666,68.33935647916665,60.0,35.0
187,65.34404485416665,68.35498147916665,48.0,78.0
188,68.14209085416665,68.55029397916665,62.0,70.0
189,68.14209085416665,68.56396585416665,71.0,72.0
190,68.14209085416665,68.57568460416665,67.0,75.0
191,68.14209085416665,68.58935647916665,64.0,76.0
192,68.61084085416665,68.89795022916665,48.0,82.0
193,69.07959085416665,69.59912210416665,64.0,67.0
194,69.07959085416665,69.61670022916665,60.0,78.0
195,69.07959085416665,69.69287210416665,67.0,76.0
196,69.54834085416665,70.19482522916665,57.0,27.0
197,70.01709085416665,70.42138772916665,71.0,75.0
198,70.01709085416665,70.48388772916665,64.0,75.0
199,70.01709085416665,70.48974710416665,60.0,69.0
200,69.07959085416665,70.49755960416665,45.0,80.0
201,70.01709085416665,70.55420022916665,67.0,68.0
202,70.48584085416665,70.97607522916665,57.0,59.0
203,70.95459085416665,71.41748147916665,69.0,76.0
204,70.95459085416665,71.42529397916665,66.0,81.0
205,70.95459085416665,71.49951272916665,62.0,71.0
206,70.95459085416665,72.14599710416665,50.0,77.0
207,71.89209085416665,72.26904397916665,69.0,69.0
208,71.89209085416665,72.27880960416665,66.0,76.0
209,71.89209085416665,72.33935647916665,62.0,71.0
210,72.36084085416665,72.82373147916665,50.0,63.0
211,72.82959085416665,73.21893529166665,69.0,44.0
212,72.82959085416665,73.31114844791665,67.0,68.0
213,72.82959085416665,73.33368944166665,62.0,59.0
214,72.82959085416665,73.34803371041666,71.0,77.0
215,73.32139435416666,73.95577597916666,55.0,18.0
216,73.81319785416666,74.22921347916666,67.0,69.0
217,73.81319785416666,74.23897910416666,71.0,70.0
218,73.81319785416666,74.25265097916666,69.0,67.0
219,73.81319785416666,74.26827597916666,62.0,55.0
220,74.28194785416666,74.98116660416666,55.0,51.0
221,74.75069785416666,75.20772910416666,67.0,79.0
222,74.75069785416666,75.27413535416666,62.0,60.0
223,74.75069785416666,75.28390097916666,71.0,71.0
224,74.75069785416666,75.43038535416666,74.0,63.0
225,75.21944785416666,75.86593222916666,55.0,53.0
226,75.92257285416666,75.96358847916666,47.0,57.0
227,72.82959085416665,76.09835410416666,43.0,77.0
228,75.68819785416666,76.10421347916666,62.0,60.0
229,75.68819785416666,76.10616660416666,67.0,75.0
230,75.68819785416666,76.13741660416666,71.0,73.0
231,76.15694785416666,76.62374472916666,55.0,76.0
232,76.86007285416666,77.05343222916666,70.0,30.0
233,76.62569785416666,77.13155722916666,64.0,62.0
234,76.62569785416666,77.13741660416666,71.0,99.0
235,77.09444785416666,77.60424261249999,55.0,69.0
236,77.32882285416666,77.77775,60.0,54.0
237,77.32882285416666,77.84491415,67.0,72.0
238,77.32882285416666,77.9736454375,64.0,38.0
239,76.62569785416666,78.07066032083333,48.0,68.0
240,77.56319785416666,78.07066032083333,72.0,72.0
241,78.01095885416666,78.4046154,55.0,65.0
242,78.45871985416666,78.92746985416666,62.0,62.0
243,78.45871985416666,78.93528235416666,66.0,53.0
244,78.45871985416666,78.95090735416666,69.0,78.0
245,78.92746985416666,79.64426672916666,57.0,51.0
246,79.39621985416666,79.75364172916666,62.0,48.0
247,79.39621985416666,79.76731360416666,74.0,78.0
248,79.39621985416666,79.82786047916666,66.0,53.0
249,78.45871985416666,79.90403235416666,50.0,70.0
250,79.86496985416666,80.28879797916666,69.0,72.0
251,80.33371985416666,80.81614172916666,47.0,62.0
252,80.33371985416666,80.92746985416666,62.0,60.0
253,80.33371985416666,80.93137610416666,66.0,68.0
254,80.80246985416666,81.37668860416666,59.0,51.0
255,81.27121985416666,81.41770422916666,62.0,68.0
256,81.27121985416666,81.48801672916666,66.0,35.0
257,81.27121985416666,81.66965735416666,74.0,76.0
258,81.73996985416666,82.12864172916666,69.0,78.0
259,82.20871985416666,82.65403235416666,40.0,81.0
260,82.67746985416666,82.77121985416666,52.0,66.0
261,82.20871985416666,83.39231360416666,67.0,84.0
262,82.20871985416666,83.43918860416666,62.0,62.0
263,83.38059485416666,83.64426672916666,59.0,77.0
264,83.14621985416666,83.68918860416666,55.0,77.0
265,83.61496985416666,83.84543860416666,67.0,94.0
266,83.84934485416666,83.94895422916666,69.0,60.0
267,84.08371985416666,84.60715735416666,64.0,65.0
268,84.08371985416666,84.64036047916666,60.0,37.0
269,84.55246985416666,85.19114172916666,57.0,45.0
270,85.02121985416666,85.45090735416666,67.0,81.0
271,85.02121985416666,85.48606360416666,60.0,66.0
272,85.02121985416666,85.48996985416666,64.0,85.0
273,85.48996985416666,85.91770422916666,57.0,47.0
274,85.95871985416666,86.09543860416666,57.0,26.0
275,85.95871985416666,86.25559485416666,67.0,88.0
276,85.95871985416666,86.36301672916666,60.0,79.0
277,85.95871985416666,86.59934485416666,64.0,84.0
278,86.66184485416666,86.93723547916666,57.0,54.0
279,86.89621985416666,87.21457922916666,67.0,74.0
280,86.89621985416666,87.22043860416666,60.0,60.0
281,86.89621985416666,87.25559485416666,64.0,81.0
282,87.13059485416666,87.27317297916666,57.0,57.0
283,84.08371985416666,87.29856360416666,45.0,77.0
284,87.36496985416666,87.54856360416666,60.0,65.0
285,87.59934485416666,87.74192297916666,64.0,68.0
286,87.83371985416666,88.19895422916666,67.0,91.0
287,87.83371985416666,88.25364172916666,50.0,60.0
288,87.83371985416666,88.35129797916666,60.0,81.0
289,87.83371985416666,88.49192297916666,64.0,78.0
290,88.53684485416666,88.93251018749999,50.0,54.0
291,88.77121985416666,89.27525214583332,60.0,82.0
292,88.77121985416666,89.27525214583332,64.0,92.0
293,88.77121985416666,89.28734892083332,67.0,84.0
294,87.83371985416666,89.35186505416667,38.0,82.0
295,89.25509085416665,89.38412312083332,50.0,78.0
296,89.73896185416666,89.95575872916666,50.0,76.0
297,89.73896185416666,90.04755560416666,62.0,91.0
298,89.73896185416666,90.08661810416666,66.0,119.0
299,90.20771185416666,90.45185247916666,50.0,78.0
300,90.20771185416666,90.54169622916666,64.0,92.0
301,90.20771185416666,90.56903997916666,67.0,97.0
302,90.67646185416666,90.69989935416666,64.0,44.0
303,90.67646185416666,90.76630560416666,62.0,92.0
304,90.67646185416666,90.78388372916666,69.0,86.0
305,89.73896185416666,91.02607122916666,38.0,97.0
306,90.67646185416666,91.05536810416666,50.0,96.0
307,91.14521185416666,91.23700872916666,66.0,105.0
308,91.14521185416666,91.24677435416666,62.0,74.0
309,91.14521185416666,91.27411810416666,42.0,119.0
310,91.14521185416666,91.29560247916666,72.0,97.0
311,91.61396185416666,92.094731125,71.0,92.0
312,91.61396185416666,92.11588497291666,62.0,92.0
313,91.61396185416666,92.11588497291666,67.0,106.0
314,92.07550035416666,92.79280810624999,55.0,50.0
315,92.53703885416667,93.02165427916665,71.0,94.0
316,92.53703885416667,93.03896197291667,67.0,96.0
317,92.53703885416667,93.06973120625,62.0,79.0
318,93.46011585416666,94.21647092916666,69.0,33.0
319,91.61396185416666,94.98793270416665,43.0,96.0
320,92.99857735416666,95.00967180416666,55.0,31.0
321,95.34662785416666,95.84662790416665,66.0,47.0
322,95.34662785416666,95.84662790416665,69.0,68.0
323,95.34662785416666,95.88261275624998,62.0,62.0
324,95.80117335416665,96.89397649374999,59.0,60.0
325,96.71026435416665,97.09284014999999,74.0,79.0
326,96.25571885416666,97.16912019583332,62.0,50.0
327,97.16480985416665,97.68420602499998,59.0,72.0
328,95.34662785416666,97.99024028333332,47.0,70.0
329,97.68205085416665,97.99024028333332,62.0,84.0
330,97.68205085416665,98.02687818749999,66.0,127.0
331,98.19929185416665,98.25788560416665,62.0,85.0
332,98.19929185416665,98.27936997916665,64.0,117.0
333,98.19929185416665,98.30476060416665,67.0,127.0
334,98.19929185416665,98.31647935416665,59.0,68.0
335,98.66804185416665,98.72077622916665,67.0,96.0
336,98.66804185416665,98.73835435416665,59.0,122.0
337,98.19929185416665,98.75007310416665,47.0,92.0
338,98.66804185416665,98.75593247916665,62.0,91.0
339,98.66804185416665,98.79108872916665,71.0,111.0
340,99.13679185416665,99.23717065208331,36.0,117.0
341,99.13679185416665,100.08186770624998,72.0,106.0
342,99.13679185416665,100.11406467916665,67.0,107.0
343,99.13679185416665,100.15383741041664,64.0,99.0
344,100.04588285416665,100.34133742916664,60.0,119.0
345,100.27315560416665,100.55535260208332,72.0,107.0
346,100.27315560416665,100.60459503124999,64.0,107.0
347,99.59133735416664,100.64436776249998,48.0,60.0
348,99.81861010416665,100.66520109791665,55.0,92.0
349,100.50042835416664,100.66898897708332,60.0,92.0
350,100.50042835416664,100.67467079583331,67.0,97.0
351,100.72770110416664,100.88489808958332,69.0,96.0
352,100.95497385416664,101.20497387916664,62.0,88.0
353,100.95497385416664,101.40951935416665,66.0,105.0
354,100.95497385416664,101.42467087083331,69.0,88.0
355,101.40951935416665,101.70118604999998,62.0,85.0
356,101.63679210416664,101.97770122916664,66.0,102.0
357,101.63679210416664,101.98527698749997,72.0,101.0
358,101.18224660416665,102.03262547708331,57.0,72.0
359,101.86406485416664,102.20497397916665,62.0,72.0
360,102.09133760416664,102.42088309166664,67.0,103.0
361,102.31861035416665,102.43035278958331,57.0,96.0
362,100.95497385416664,102.46633764166664,50.0,92.0
363,102.31861035416665,102.63868614374998,69.0,78.0
364,102.54588310416665,102.69739827083332,71.0,94.0
365,102.77315585416665,103.16298592083331,43.0,91.0
366,103.02739285416665,103.27527392916664,50.0,79.0
367,103.28162985416665,103.57612104583332,55.0,78.0
368,102.77315585416665,103.77739200416664,71.0,97.0
369,102.77315585416665,103.78798521249998,62.0,94.0
370,102.77315585416665,103.79010385416665,67.0,99.0
371,103.79010385416665,104.14995237499998,59.0,78.0
372,103.53586685416664,104.16131601249998,57.0,60.0
373,104.01737660416664,104.17646752916664,62.0,77.0
374,104.24464935416664,104.43025543333331,67.0,91.0
375,104.47192210416665,104.58366453958331,71.0,86.0
376,104.69919485416665,105.20470902083332,69.0,94.0
377,104.69919485416665,105.22676782083332,62.0,72.0
378,104.69919485416665,105.22676782083332,65.0,88.0
379,104.69919485416665,105.50617928749998,43.0,91.0
380,105.14037085416665,105.51720868749999,55.0,107.0
381,105.36095885416665,105.54110572083331,59.0,72.0
382,104.91978285416666,105.66017589166664,50.0,78.0
383,105.58154685416665,105.87388558333332,59.0,85.0
384,105.58154685416665,105.89807913333331,62.0,96.0
385,105.58154685416665,105.93235332916665,65.0,97.0
386,105.58154685416665,106.01703075416664,43.0,99.0
387,105.82348235416664,106.03315978749998,55.0,66.0
388,106.06541785416664,106.12791785833332,62.0,82.0
389,106.06541785416664,106.14404689166665,59.0,79.0
390,106.06541785416664,106.18436947499998,67.0,77.0
391,106.30735335416665,106.40211142499997,47.0,90.0
392,106.54928885416665,106.96259533333331,71.0,106.0
393,106.54928885416665,107.03114372499998,64.0,60.0
394,106.54928885416665,107.03315985416664,67.0,99.0
395,107.03315985416664,107.59828085416665,55.0,60.0
396,107.51703085416665,107.80869752083332,60.0,90.0
397,107.51703085416665,107.81078085416665,64.0,90.0
398,107.51703085416665,107.82744752083332,67.0,103.0
399,107.51703085416665,107.85036418749998,71.0,101.0
400,106.54928885416665,107.97953085416665,48.0,92.0
401,107.76703085416665,108.24619752083332,55.0,101.0
402,108.01703085416665,108.30453085416664,64.0,86.0
403,108.26703085416665,108.43994752083331,67.0,92.0
404,108.51703085416665,109.00726522916665,69.0,77.0
405,108.51703085416665,109.04632772916665,66.0,93.0
406,108.51703085416665,109.06390585416665,62.0,79.0
407,109.22015585416665,109.53656210416665,62.0,84.0
408,109.45453085416665,109.75921835416665,66.0,105.0
409,108.98578085416665,109.94671835416665,57.0,77.0
410,109.68890585416665,109.96624960416665,67.0,86.0
411,108.51703085416665,110.02484335416665,50.0,90.0
412,109.92328085416665,110.06195272916665,69.0,84.0
413,110.15765585416665,110.33343710416665,62.0,47.0
414,110.39203085416665,110.71665757916665,62.0,78.0
415,110.39203085416665,110.71665757916665,66.0,78.0
416,110.39203085416665,110.72412026249998,74.0,96.0
417,110.83979185416665,110.96106045833332,62.0,63.0
418,110.61591135416666,111.12523949166665,59.0,60.0
419,111.06367235416666,111.35844834583331,69.0,82.0
420,111.06367235416666,111.37150804166664,62.0,91.0
421,111.28755285416665,111.55807512499999,59.0,53.0
422,111.73531385416665,111.83046306666665,59.0,62.0
423,111.51143335416666,111.83606007916664,62.0,77.0
424,110.39203085416665,111.83792574999998,47.0,79.0
425,112.18307485416665,112.41323359583332,59.0,101.0
426,112.18307485416665,112.41918597708332,56.0,85.0
427,112.18307485416665,112.45093201041665,64.0,97.0
428,112.65926535416665,112.94299552708331,52.0,47.0
429,112.89736060416665,113.24061458958332,64.0,91.0
430,112.89736060416665,113.25847173333331,68.0,85.0
431,113.13545585416665,113.41521777291665,52.0,54.0
432,112.18307485416665,113.63942413333332,40.0,99.0
433,113.37355110416665,113.67117016666664,64.0,84.0
434,113.37355110416665,113.76640826666664,69.0,91.0
435,113.61164635416665,113.80609080833331,52.0,72.0
436,113.84974160416665,113.96085272083332,64.0,68.0
437,113.84974160416665,114.03029716874998,71.0,90.0
438,114.08783685416665,114.55658685416665,45.0,69.0
439,114.32221185416665,114.56830560416665,52.0,72.0
440,114.55658685416665,114.85541497916665,57.0,60.0
441,114.08783685416665,115.08978997916665,67.0,107.0
442,114.08783685416665,115.09955560416665,72.0,77.0
443,114.08783685416665,115.11322747916665,64.0,96.0
444,115.02533685416665,115.32416497916665,60.0,74.0
445,114.79096185416665,115.34369622916665,59.0,63.0
446,115.25971185416665,115.43353997916665,64.0,90.0
447,115.49408685416665,115.68158685416665,67.0,97.0
448,115.72846185416665,115.94135247916665,71.0,86.0
449,115.96283685416665,116.39447747916665,67.0,77.0
450,115.96283685416665,116.63080560416665,72.0,84.0
451,115.96283685416665,116.74994622916665,64.0,84.0
452,116.66596185416665,116.90450352083332,57.0,60.0
453,116.90033685416665,117.17742018749999,67.0,85.0
454,116.90033685416665,117.20242018749998,64.0,76.0
455,116.90033685416665,117.22533685416666,72.0,103.0
456,115.96283685416665,117.33158685416666,45.0,84.0
457,117.15033685416665,117.39617018749999,57.0,56.0
458,116.43158685416665,117.44408685416666,52.0,90.0
459,117.40033685416665,117.57742018749998,62.0,91.0
460,117.40033685416665,117.61075352083331,71.0,85.0
461,117.65033685416665,117.76908685416666,47.0,81.0
462,117.90033685416665,118.17890800416666,60.0,53.0
463,117.90033685416665,118.50569339166665,67.0,84.0
464,117.90033685416665,118.55747905416665,64.0,69.0
465,118.75747885416665,118.96649534166664,62.0,66.0
466,119.00338060416665,119.18370855416664,64.0,85.0
467,118.54319335416665,119.27592171041665,60.0,84.0
468,117.90033685416665,119.32100369791665,48.0,76.0
469,118.32890785416666,119.35379059791664,55.0,84.0
470,119.24928235416665,119.46034802291665,67.0,91.0
471,119.49518410416665,119.70215141041665,69.0,90.0
472,119.74108585416666,119.93575807291666,62.0,76.0
473,119.74108585416666,120.13247947291664,66.0,109.0
474,119.98698760416664,120.19805327291665,57.0,81.0
475,119.74108585416666,120.22469262916665,50.0,85.0
476,120.23288935416664,120.30665987916665,68.0,54.0
477,120.23288935416664,120.33944677916665,67.0,81.0
478,120.23288935416664,120.35379104791664,64.0,94.0
479,120.72469285416665,120.80802619166664,66.0,83.0
480,120.72469285416665,120.82191508124998,62.0,81.0
481,120.72469285416665,120.84770873333332,69.0,85.0
482,120.96278810416665,121.14532779583331,50.0,77.0
483,121.20088335416665,121.34572463124998,66.0,105.0
484,121.20088335416665,121.36358177499999,50.0,41.0
485,120.72469285416665,121.44889923958331,38.0,97.0
486,121.20088335416665,121.49056590833331,72.0,111.0
487,121.20088335416665,121.50643892499998,62.0,85.0
488,121.43897860416665,121.54612146666665,42.0,96.0
489,121.67707385416665,122.06326771666664,71.0,92.0
490,121.67707385416665,122.08192442499998,67.0,101.0
491,121.67707385416665,122.09684979166666,62.0,90.0
492,121.67707385416665,122.26476016666665,43.0,96.0
493,122.12483485416665,122.35990937916665,50.0,86.0
494,122.34871535416666,122.65468537083332,55.0,79.0
495,122.79647635416666,122.96065538749998,59.0,84.0
496,122.57259585416665,122.98117776666665,57.0,62.0
497,123.02035685416665,123.18453588749999,62.0,91.0
498,123.24423735416666,123.43267010833331,67.0,88.0
499,123.46811785416665,123.48795912499999,67.0,45.0
500,123.46811785416665,123.73200675624999,62.0,81.0
501,123.70621310416665,123.73200675624999,62.0,86.0
502,123.46811785416665,123.76176866249999,69.0,90.0
503,123.70621310416665,123.83319723749999,71.0,97.0
504,123.94430835416665,124.18637185833332,55.0,72.0
505,124.18240360416665,124.37287980416664,69.0,99.0
506,124.18240360416665,124.50951401458332,62.0,99.0
507,124.42049885416665,124.65724130208332,55.0,63.0
508,123.46811785416665,124.89398374999999,43.0,91.0
509,124.64777160416665,124.97352921249998,62.0,92.0
510,123.70621310416665,124.99436254791665,50.0,76.0
511,124.64777160416665,125.01898376249999,67.0,107.0
512,124.87504435416665,125.03602921874999,55.0,84.0
513,125.10231710416666,125.24625651249998,66.0,88.0
514,125.32958985416666,125.66357422916666,67.0,77.0
515,125.32958985416666,125.66943360416666,62.0,91.0
516,125.56396485416666,126.08680141666666,59.0,70.0
517,125.79833985416666,126.11949372708332,62.0,66.0
518,126.02910910416665,126.21949373541666,66.0,127.0
519,126.49064760416665,126.50987837499999,66.0,29.0
520,126.25987835416666,126.51372452916665,59.0,41.0
521,126.49064760416665,126.58103222708333,62.0,78.0
522,126.49064760416665,126.60410915208332,74.0,107.0
523,126.95218610416666,127.00795533958332,78.0,86.0
524,126.72141685416666,127.02141687916665,59.0,47.0
525,126.95218610416666,127.04064764999998,66.0,93.0
526,125.32958985416666,127.063724575,47.0,90.0
527,127.18295535416665,127.27025694583332,66.0,90.0
528,127.18295535416665,127.28017758124999,78.0,81.0
529,127.42105060416665,127.47859028958332,78.0,23.0
530,127.42105060416665,127.48057441666666,66.0,35.0
531,127.42105060416665,127.52620933958332,59.0,57.0
532,127.65914585416665,127.76033633541665,67.0,92.0
533,127.65914585416665,127.76033633541665,79.0,111.0
534,127.65914585416665,127.84962205416664,59.0,59.0
535,127.89724110416665,127.98454269583331,66.0,86.0
536,127.89724110416665,127.98652682291664,78.0,90.0
537,128.13533635416664,128.39922525625,59.0,56.0
538,128.37343160416665,128.49247922916666,74.0,111.0
539,128.37343160416665,128.5123205,62.0,103.0
540,127.18295535416665,128.6432728875,47.0,77.0
541,128.61152685416664,128.7147014625,54.0,92.0
542,128.84962210416666,129.00041576249998,62.0,82.0
543,128.84962210416666,129.0480348125,60.0,53.0
544,129.08771735416664,129.21470148749998,36.0,96.0
545,129.08771735416664,129.3337491125,60.0,77.0
546,129.08771735416664,129.34168562083332,55.0,91.0
547,129.08771735416664,129.44287610208332,64.0,68.0
548,130.27086760416665,130.33048299374997,72.0,70.0
549,130.04009835416664,130.36894453541663,60.0,107.0
550,130.27086760416665,130.43817531041665,64.0,92.0
551,130.50163685416663,130.55355993541664,64.0,39.0
552,129.56390785416664,130.6381753270833,48.0,56.0
553,130.50163685416663,130.6497137895833,67.0,106.0
554,129.80200310416666,130.67471379166665,55.0,88.0
555,130.73240610416664,130.86702149999996,69.0,91.0
556,130.96317535416665,131.27471384166665,62.0,92.0
557,130.96317535416665,131.3074061520833,66.0,115.0
558,130.96317535416665,131.31702153749998,69.0,96.0
559,131.42471385416664,131.66317541249998,62.0,51.0
560,131.65548310416665,131.98048313124997,72.0,101.0
561,131.65548310416665,131.98432928541664,66.0,112.0
562,131.19394460416663,132.00932928749998,57.0,57.0
563,131.88625235416666,132.01894467291663,62.0,76.0
564,130.96317535416665,132.02663698124996,50.0,96.0
565,132.11702160416664,132.251637,66.0,109.0
566,132.34779085416665,132.49586778958331,42.0,92.0
567,132.34779085416665,132.5997139520833,69.0,79.0
568,132.57856010416666,132.79202166041665,72.0,91.0
569,132.80932935416664,133.25659497916664,43.0,90.0
570,133.04370435416664,133.30932935416664,50.0,72.0
571,133.27807935416664,133.53589185416664,55.0,70.0
572,132.80932935416664,133.65112622916664,71.0,94.0
573,132.80932935416664,133.70386060416664,67.0,92.0
574,132.80932935416664,133.77026685416664,62.0,82.0
575,133.74682935416664,134.02221997916664,59.0,81.0
576,133.51245435416664,134.04565747916664,57.0,60.0
577,133.98120435416664,134.14331372916664,62.0,103.0
578,134.21557935416664,134.37378247916664,67.0,101.0
579,134.44995435416664,134.61792310416664,69.0,96.0
580,134.68432935416664,134.95449066249998,71.0,96.0
581,134.68432935416664,134.98473259999997,62.0,96.0
582,134.92626485416665,135.17828099999997,55.0,68.0
583,135.16820035416663,135.28311971666665,62.0,94.0
584,135.16820035416663,135.28916810416663,65.0,111.0
585,134.68432935416664,135.4726358583333,43.0,90.0
586,135.41013585416664,135.5815068333333,55.0,68.0
587,135.65207135416662,135.9444100833333,62.0,101.0
588,135.65207135416662,135.95247459999996,59.0,91.0
589,135.65207135416662,135.96658750416663,65.0,101.0
590,135.89400685416663,136.0532810583333,55.0,90.0
591,135.65207135416662,136.06336170416662,43.0,97.0
592,136.13594235416664,136.21255526249996,62.0,91.0
593,136.13594235416664,136.2589262333333,67.0,92.0
594,136.13594235416664,136.26295849166664,47.0,92.0
595,136.61981335416664,137.1117488708333,72.0,81.0
596,136.61981335416664,137.12787790416664,64.0,65.0
597,136.61981335416664,137.15811984166663,67.0,101.0
598,137.34561985416664,137.47666824999996,64.0,69.0
599,137.10368435416663,137.5653779333333,60.0,92.0
600,137.58755535416662,137.86217659374995,72.0,103.0
601,137.58755535416662,137.8924796270833,64.0,82.0
602,137.58755535416662,137.90573720416663,67.0,86.0
603,137.81482810416662,138.03073721666664,60.0,66.0
604,136.61981335416664,138.15194934999997,48.0,90.0
605,136.86174885416665,138.21823723541664,55.0,88.0
606,138.04210085416662,138.3470251270833,64.0,72.0
607,138.26937360416662,138.4095251333333,69.0,84.0
608,138.26937360416662,138.41899483124996,60.0,63.0
609,138.49664635416661,139.02694943749995,62.0,84.0
610,138.49664635416661,139.0572524708333,66.0,112.0
611,138.49664635416661,139.11217671874996,69.0,77.0
612,138.95119185416664,139.52065671666662,57.0,57.0
613,139.40573735416663,139.75452769999995,62.0,63.0
614,139.40573735416663,139.86944706249997,69.0,60.0
615,139.40573735416663,139.88355996666664,72.0,101.0
616,139.40573735416663,139.92388254999997,66.0,74.0
617,138.49664635416661,139.9763019083333,50.0,85.0
618,139.88960835416663,139.99646319999997,57.0,88.0
619,140.37347935416662,140.87952777499996,66.0,93.0
620,140.37347935416662,140.89565680833329,69.0,84.0
621,140.37347935416662,140.91783422916663,62.0,94.0
622,141.09928585416662,141.1799310208333,62.0,50.0
623,140.85735035416664,141.23638263749996,59.0,63.0
624,141.34122135416663,141.56973697916663,59.0,60.0
625,141.34122135416663,141.82559635416663,69.0,91.0
626,141.34122135416663,141.84903385416663,62.0,88.0
627,140.37347935416662,141.89395572916663,47.0,86.0
628,141.80997135416663,141.89786197916663,59.0,72.0
629,142.27872135416663,142.69278385416663,52.0,82.0
630,142.27872135416663,142.71231510416663,71.0,79.0
631,142.27872135416663,142.72012760416663,62.0,78.0
632,142.27872135416663,142.72403385416663,67.0,86.0
633,142.74747135416663,143.01895572916663,52.0,17.0
634,142.98184635416663,143.29825260416663,62.0,70.0
635,142.98184635416663,143.33145572916663,69.0,76.0
636,143.21622135416663,143.49161197916663,52.0,47.0
637,142.27872135416663,143.66934635416663,40.0,99.0
638,143.45059635416663,143.69473697916663,71.0,81.0
639,143.45059635416663,143.69864322916663,67.0,103.0
640,143.45059635416663,143.75528385416663,62.0,84.0
641,143.68497135416663,143.80411197916663,52.0,86.0
642,144.15372135416663,144.91739322916663,69.0,90.0
643,144.15372135416663,144.94864322916663,64.0,91.0
644,144.15372135416663,144.97012760416663,60.0,81.0
645,144.15372135416663,145.20450260416663,57.0,63.0
646,145.09122135416663,145.65372135416663,60.0,76.0
647,145.09122135416663,145.66348697916663,64.0,92.0
648,145.55997135416663,145.68497135416663,57.0,62.0
649,145.09122135416663,145.70059635416663,69.0,90.0
650,144.15372135416663,145.74551822916663,45.0,70.0
651,146.02872135416663,146.66348697916663,66.0,51.0
652,146.02872135416663,146.67129947916663,62.0,69.0
653,146.02872135416663,146.67911197916663,69.0,45.0
654,146.02872135416663,147.14395572916663,38.0,66.0
655,146.02872135416663,147.26504947916663,50.0,54.0
656,147.78653385416663,147.95840885416663,74.0,39.0
657,147.86465885416663,147.99356510416663,76.0,53.0
658,147.90372135416663,148.07169010416663,48.0,76.0
659,147.90372135416663,148.24747135416663,83.0,97.0
660,148.13809635416663,149.08926822916663,74.0,50.0
661,148.37247135416663,149.13419010416663,76.0,86.0
662,148.60684635416663,150.07950260416663,83.0,90.0
663,148.84122135416663,150.80317775416663,71.0,69.0
664,148.84122135416663,150.87745301249996,67.0,63.0
665,148.84122135416663,150.94810508749995,60.0,30.0
666,151.47708985416662,151.6422369708333,74.0,38.0
667,151.5332491958333,151.6966724583333,78.0,53.0
668,151.58578535416663,151.85796279166664,81.0,74.0
669,152.06965635416663,152.51723702916664,74.0,53.0
670,152.31159185416664,152.52933380416664,78.0,57.0
671,152.31159185416664,154.71817765416662,81.0,91.0
672,155.32234335416663,155.6672507270833,71.0,96.0
673,155.60012110416665,155.81076923124996,67.0,79.0
674,156.09848685416662,156.3921517833333,60.0,42.0
675,155.87789885416663,156.43253640208331,64.0,60.0
676,156.54984410416665,156.91138259583332,60.0,56.0
677,157.01138260416664,157.89599806249998,71.0,72.0
678,156.78061335416663,158.15561346874998,67.0,74.0
679,157.24215185416665,158.24215193749998,72.0,86.0
680,156.31907485416664,158.2786904020833,59.0,70.0
681,155.32234335416663,158.4113827208333,48.0,76.0
682,158.93253661041663,161.75003399166664,66.0,38.0
683,158.90753660833332,161.76437826041663,62.0,41.0
684,158.99215199999998,161.76847662291664,69.0,60.0
685,159.07676739166664,161.82995206041664,74.0,60.0
686,159.08830585416663,161.93173872916665,50.0,60.0
687,162.85556685416665,163.35947310416665,71.0,70.0
688,162.85556685416665,163.40048872916665,67.0,84.0
689,162.85556685416665,163.40634810416665,62.0,62.0
690,163.79306685416665,164.32282878541665,71.0,72.0
691,163.79306685416665,164.36052719999998,67.0,77.0
692,163.79306685416665,164.38632085208332,62.0,62.0
693,162.85556685416665,165.11647961875,55.0,74.0
694,164.74544785416666,165.41013042708332,71.0,65.0
695,164.74544785416666,165.42798757083332,62.0,45.0
696,164.74544785416666,165.42997169791664,67.0,54.0
697,165.45973360416664,165.9815590270833,55.0,72.0
698,165.69782885416666,166.22759078541665,71.0,84.0
699,165.69782885416666,166.23751142083333,67.0,91.0
700,165.69782885416666,166.23949554791665,62.0,66.0
701,166.17401935416666,166.66174831666666,55.0,79.0
702,166.65020985416666,167.16367143541666,64.0,68.0
703,166.65020985416666,167.16944066666667,71.0,54.0
704,166.65020985416666,167.20213297708332,67.0,82.0
705,166.65020985416666,167.20597913125,62.0,50.0
706,167.57328685416667,168.0655945875,64.0,69.0
707,167.57328685416667,168.07136381875,71.0,54.0
708,167.57328685416667,168.09251766666665,67.0,60.0
709,167.57328685416667,168.13290228541666,62.0,42.0
710,166.65020985416666,168.63922085416667,60.0,54.0
711,168.49636385416667,168.76600644166666,64.0,68.0
712,168.49636385416667,168.76957786666668,62.0,50.0
713,168.49636385416667,168.80350640416668,67.0,72.0
714,168.49636385416667,169.03406184375,71.0,65.0
715,168.92493485416668,169.33366503333335,62.0,62.0
716,169.16303010416667,169.37533170208334,64.0,65.0
717,168.71064935416666,169.46464997291667,60.0,47.0
718,169.40112535416668,169.4933385104167,62.0,31.0
719,169.40112535416668,169.69825663541667,67.0,96.0
720,169.64702710416668,169.98309282916668,69.0,68.0
721,169.89292885416668,170.04046990416668,71.0,94.0
722,166.65020985416666,170.0712076229167,48.0,51.0
723,170.13883060416669,170.25153557291668,72.0,74.0
724,170.6086128541667,170.84741872083336,72.0,2.0
725,170.3847323541667,170.88286646666668,64.0,78.0
726,170.3847323541667,170.89592616250002,60.0,62.0
727,170.3847323541667,170.91271720000003,67.0,82.0
728,170.3847323541667,171.52827023958335,57.0,45.0
729,171.2802543541667,171.78223850625002,64.0,82.0
730,171.2802543541667,171.78223850625002,67.0,78.0
731,171.2802543541667,171.79414326875002,60.0,60.0
732,170.3847323541667,171.80803215833336,45.0,70.0
733,171.7564448541667,172.17112741458337,57.0,54.0
734,172.2326353541667,172.66917385208336,60.0,66.0
735,172.2326353541667,172.67302000625003,64.0,82.0
736,172.2326353541667,172.7018661625,67.0,85.0
737,172.69417385416668,173.3460969854167,57.0,60.0
738,173.1557123541667,173.53840469375,66.0,74.0
739,173.1557123541667,173.5826354666667,62.0,54.0
740,172.2326353541667,173.71148163125002,50.0,79.0
741,173.61725085416668,173.71148163125002,57.0,74.0
742,173.1557123541667,173.74225086458335,64.0,66.0
743,173.61725085416668,173.77494317500003,67.0,86.0
744,174.0787893541667,174.1918845979167,71.0,53.0
745,174.0787893541667,174.5192655666667,43.0,77.0
746,174.0787893541667,174.69585287708338,67.0,77.0
747,174.0787893541667,174.69982113125005,62.0,63.0
748,174.0787893541667,174.70180525833337,72.0,60.0
749,174.5549798541667,175.1460897166667,55.0,60.0
750,175.0311703541667,175.3154445666667,67.0,62.0
751,175.0311703541667,175.51302522500004,71.0,85.0
752,175.0311703541667,175.53520264583338,62.0,68.0
753,175.0311703541667,175.6239123291667,57.0,60.0
754,175.5150413541667,176.00092848333338,59.0,90.0
755,175.9989123541667,176.48681561250004,71.0,88.0
756,176.4827833541667,176.5735091666667,72.0,91.0
757,176.4827833541667,177.00496080833338,62.0,65.0
758,176.9666543541667,177.30536405416672,71.0,69.0
759,176.9666543541667,177.31342857083337,67.0,56.0
760,176.9666543541667,177.32149308750004,74.0,85.0
761,175.9989123541667,177.5170576166667,55.0,66.0
762,177.4505253541667,177.54528342500004,62.0,91.0
763,177.4505253541667,177.62794472083337,79.0,63.0
764,177.6924608541667,178.1247809854167,67.0,56.0
765,177.9343963541667,178.2228579166667,76.0,88.0
766,177.9343963541667,178.27093484375004,72.0,57.0
767,178.8574733541667,179.1632426104167,62.0,66.0
768,179.08824260416668,179.36516570416669,64.0,72.0
769,178.6267041041667,179.4517041729167,60.0,60.0
770,177.9343963541667,179.47285802083337,48.0,68.0
771,178.39593485416668,179.51131956250003,55.0,85.0
772,179.3190118541667,179.55555033541668,67.0,84.0
773,179.5497811041667,179.80170420208336,69.0,66.0
774,179.7805503541667,180.00747345000002,62.0,63.0
775,179.7805503541667,180.26708885625004,66.0,81.0
776,180.2420888541667,180.64401196458337,67.0,86.0
777,180.2420888541667,180.76516582083337,64.0,56.0
778,180.2420888541667,180.80555043958336,57.0,53.0
779,180.70362735416668,181.02862738125003,62.0,54.0
780,180.70362735416668,181.1420889291667,66.0,48.0
781,180.70362735416668,181.16901200833337,69.0,76.0
782,179.7805503541667,181.2574735541667,50.0,79.0
783,181.1651658541667,181.28824278750002,57.0,69.0
784,181.39593510416668,182.04404309166668,66.0,85.0
785,181.6267043541667,182.07831728750003,62.0,72.0
786,182.11057535416668,182.70406174791668,59.0,50.0
787,182.59444635416668,182.99829254166667,66.0,29.0
788,182.59444635416668,183.04444639166667,74.0,74.0
789,181.6267043541667,183.08290793333333,47.0,86.0
790,182.59444635416668,183.11175408958334,62.0,63.0
791,183.05598485416667,183.15406178541667,59.0,50.0
792,183.51752335416668,183.68112612083334,40.0,97.0
793,183.51752335416668,183.94399348750002,67.0,91.0
794,183.9586993541667,184.13884622083336,69.0,72.0
795,183.51752335416668,184.14436092083335,62.0,68.0
796,184.1792873541667,184.62839097916668,67.0,82.0
797,184.1792873541667,184.66550035416668,71.0,81.0
798,184.63425035416668,184.84128160416668,64.0,81.0
799,184.39987535416668,184.90573472916668,59.0,66.0
800,183.9586993541667,184.95651597916668,52.0,81.0
801,184.86862535416668,185.18893785416668,67.0,77.0
802,185.10300035416668,185.32565660416668,71.0,86.0
803,185.33737535416668,185.76594680416667,72.0,82.0
804,185.33737535416668,185.7738833125,67.0,72.0
805,185.33737535416668,185.78777220208335,64.0,74.0
806,185.81356585416668,186.36118492916668,52.0,62.0
807,186.28975635416668,186.7242801854167,60.0,72.0
808,186.28975635416668,186.74610558333336,67.0,86.0
809,186.28975635416668,186.74808971041668,64.0,76.0
810,186.28975635416668,186.7540420916667,57.0,50.0
811,187.2421373541667,187.49808974791668,57.0,63.0
812,186.76594685416669,187.59729610208336,52.0,60.0
813,187.2421373541667,187.60324848333335,67.0,77.0
814,187.2421373541667,187.7480897604167,60.0,72.0
815,187.2421373541667,187.7897564291667,64.0,79.0
816,187.95642310416667,188.08935961875002,60.0,30.0
817,187.7183278541667,188.17467708333334,57.0,50.0
818,188.1945183541667,188.46039138333336,67.0,103.0
819,188.1945183541667,188.4980897979167,60.0,81.0
820,188.1945183541667,188.4980897979167,64.0,90.0
821,185.33737535416668,188.59729615208335,45.0,72.0
822,188.43261360416668,188.61515329583335,57.0,65.0
823,188.6707088541667,188.88102632500002,60.0,69.0
824,188.90880410416668,189.06753427083333,64.0,77.0
825,189.1468993541667,189.57348667708334,50.0,60.0
826,189.1468993541667,189.61912160000003,72.0,84.0
827,189.1468993541667,189.64094699791667,62.0,65.0
828,189.1468993541667,189.64689937916668,69.0,81.0
829,189.1468993541667,189.6548358875,66.0,51.0
830,189.86118510416668,190.40820861666668,50.0,45.0
831,190.0992803541667,190.4260657416667,74.0,94.0
832,190.0992803541667,190.47427997916668,66.0,88.0
833,190.0992803541667,190.4939228166667,62.0,96.0
834,190.5278513541667,190.60820841666668,66.0,85.0
835,190.5278513541667,190.61356555416668,62.0,76.0
836,190.5278513541667,190.65820836666668,72.0,103.0
837,189.1468993541667,190.8707081541667,38.0,65.0
838,190.7421368541667,190.9207081041667,50.0,56.0
839,190.9564223541667,191.1064223666667,50.0,82.0
840,190.9564223541667,191.10834544375004,38.0,94.0
841,190.9564223541667,191.14103775416672,62.0,86.0
842,190.9564223541667,191.14873006250005,66.0,86.0
843,190.9564223541667,191.16219160208337,74.0,97.0
844,192.8318803541667,193.47418810000005,71.0,90.0
845,192.8318803541667,193.47803425416672,62.0,79.0
846,192.8318803541667,193.48572656250005,67.0,96.0
847,192.8318803541667,194.02749846041672,55.0,62.0
848,193.75495735416672,194.28364611666672,62.0,79.0
849,193.75495735416672,194.28569529791673,67.0,101.0
850,193.75495735416672,194.28569529791673,71.0,97.0
851,192.8318803541667,194.31848219791672,43.0,65.0
852,194.49266260416672,194.6647938291667,62.0,44.0
853,194.24676085416672,194.77340043541673,55.0,60.0
854,194.73856435416673,195.06438417291673,71.0,97.0
855,194.73856435416673,195.07463007916672,67.0,103.0
856,194.73856435416673,195.08692516666673,62.0,76.0
857,195.23036785416673,195.36561381666672,62.0,60.0
858,195.23036785416673,195.40454826041673,69.0,79.0
859,194.98446610416673,195.5152040479167,55.0,56.0
860,195.47626960416673,195.82764010416673,62.0,86.0
861,195.47626960416673,195.84131197916673,67.0,96.0
862,195.72217135416673,196.02881197916673,55.0,62.0
863,194.73856435416673,196.18310885416673,43.0,84.0
864,195.95654635416673,196.26123385416673,62.0,90.0
865,195.95654635416673,196.26514010416673,66.0,86.0
866,196.19092135416673,196.33935885416673,55.0,85.0
867,196.42529635416673,196.49560885416673,62.0,41.0
868,196.65967135416673,196.99756197916673,62.0,91.0
869,196.65967135416673,196.99951510416673,66.0,83.0
870,196.65967135416673,197.00537447916673,74.0,90.0
871,197.12842135416673,197.27490572916673,62.0,65.0
872,196.89404635416673,197.41943697916673,59.0,57.0
873,197.36279635416673,197.50537447916673,69.0,76.0
874,197.82105185416674,197.90500704166672,66.0,62.0
875,197.82105185416674,197.92366375000006,78.0,78.0
876,198.04493235416675,198.14567857916674,67.0,60.0
877,197.59717135416673,198.30426060000008,59.0,42.0
878,196.65967135416673,198.32105163750006,47.0,81.0
879,198.26881285416673,198.33784267500008,78.0,83.0
880,198.26881285416673,198.35276804166674,66.0,90.0
881,198.71657385416674,198.8210514208334,74.0,65.0
882,198.71657385416674,198.83037977500007,62.0,69.0
883,198.94045435416675,199.17552887916673,59.0,60.0
884,199.16433485416673,199.33784224166672,62.0,72.0
885,199.38821535416673,199.54641847916673,64.0,84.0
886,199.50540285416673,199.61868410416673,66.0,74.0
887,199.62259035416673,199.80813722916673,67.0,88.0
888,199.72805910416673,199.92141847916673,69.0,69.0
889,198.49269335416673,199.97024660416673,47.0,84.0
890,199.85696535416673,199.97024660416673,71.0,79.0
891,199.97415285416673,200.18313722916673,72.0,76.0
892,200.09134035416673,200.33196535416673,74.0,72.0
893,200.32571535416673,200.70279868750006,76.0,76.0
894,201.07571535416673,201.27571535416672,64.0,69.0
895,200.82571535416673,201.30904868750005,60.0,63.0
896,201.32571535416673,201.58352785416673,67.0,92.0
897,200.32571535416673,201.76516847916673,48.0,88.0
898,200.57571535416673,201.82180910416673,55.0,84.0
899,201.56009035416673,201.96829347916673,71.0,84.0
900,201.79446535416673,201.99563722916673,60.0,63.0
901,202.02884035416673,202.13430910416673,72.0,53.0
902,202.02884035416673,202.16555910416673,64.0,60.0
903,202.26321535416673,202.56985597916673,62.0,74.0
904,202.26321535416673,202.70266847916673,69.0,60.0
905,202.26321535416673,202.71243410416673,66.0,92.0
906,202.73196535416673,202.99563722916673,62.0,59.0
907,202.96634035416673,203.11282472916673,66.0,102.0
908,202.49759035416673,203.40147295000006,57.0,69.0
909,203.20071535416673,203.50374568750007,62.0,42.0
910,203.42798810416673,203.7442760145834,66.0,99.0
911,203.42798810416673,203.75374571250006,74.0,91.0
912,203.65526085416673,203.76510935000007,57.0,91.0
913,202.26321535416673,203.80488208125007,50.0,82.0
914,203.88253360416672,204.0624578645834,67.0,91.0
915,204.10980635416672,204.15940953125005,67.0,50.0
916,204.10980635416672,204.5502825666667,43.0,86.0
917,204.3479016041667,204.58202860000006,50.0,78.0
918,204.58599685416672,204.88560004375006,55.0,60.0
919,204.10980635416672,205.08996513333338,71.0,97.0
920,204.10980635416672,205.13956831041673,62.0,60.0
921,204.8240921041667,205.33202863750006,57.0,54.0
922,205.06218735416672,205.33401276458338,59.0,72.0
923,205.3002826041667,205.4887746770834,62.0,79.0
924,205.53837785416673,205.71893341875005,69.0,76.0
925,205.7764731041667,205.96099692291673,71.0,77.0
926,206.01456835416673,206.29829852708338,67.0,99.0
927,206.01456835416673,206.31417154375006,72.0,86.0
928,206.01456835416673,206.32012392500005,64.0,82.0
929,206.49075885416673,206.5383779041667,69.0,50.0
930,206.2526636041667,206.58004457291673,55.0,63.0
931,206.49075885416673,206.6395683854167,65.0,99.0
932,206.49075885416673,206.64552076666672,62.0,74.0
933,206.01456835416673,206.8419493479167,43.0,92.0
934,206.72885410416671,206.93321919375006,55.0,65.0
935,206.96694935416673,207.09591761458339,62.0,97.0
936,206.96694935416673,207.09988586875005,59.0,81.0
937,206.96694935416673,207.12766364791673,65.0,94.0
938,207.20504460416672,207.39552080416672,55.0,60.0
939,206.96694935416673,207.60583827500005,43.0,94.0
940,207.44313985416673,207.61377478333338,62.0,81.0
941,207.44313985416673,207.62369541875006,67.0,92.0
942,207.44313985416673,207.6316319270834,71.0,92.0
943,207.68123510416672,207.9649652770834,55.0,60.0
944,207.91933035416673,208.2982986270834,64.0,91.0
945,207.91933035416673,208.30226688125006,72.0,99.0
946,207.91933035416673,208.37964783750004,67.0,99.0
947,208.63361610416672,208.73877483958339,64.0,50.0
948,208.39552085416673,208.85187008333338,60.0,60.0
949,208.87171135416673,209.13641695416675,72.0,96.0
950,208.87171135416673,209.17685808750008,64.0,79.0
951,208.87171135416673,209.2007551208334,67.0,99.0
952,209.09229935416673,209.3275932208334,60.0,65.0
953,207.91933035416673,209.4599460208334,48.0,85.0
954,208.15742560416672,209.4820048208334,55.0,82.0
955,209.31288735416675,209.6088429208334,64.0,65.0
956,209.53347535416674,209.70443105416675,69.0,82.0
957,209.53347535416674,209.76199986250006,60.0,57.0
958,209.75406335416673,210.07152368750008,62.0,77.0
959,209.75406335416673,210.2342221083334,69.0,84.0
960,209.75406335416673,210.29771417500007,66.0,86.0
961,210.23025385416673,210.7520792770834,62.0,57.0
962,209.99215860416672,210.9663650020834,57.0,56.0
963,210.70644435416673,211.04176183125006,66.0,86.0
964,210.70644435416673,211.0556507208334,69.0,78.0
965,210.94453960416672,211.1985078708334,62.0,69.0
966,209.75406335416673,211.3056507333334,50.0,90.0
967,211.18263485416674,211.3413650208334,57.0,82.0
968,211.42073010416672,211.59930154166673,67.0,69.0
969,211.65882535416674,212.1568412520834,69.0,88.0
970,211.65882535416674,212.18858728541673,62.0,85.0
971,211.65882535416674,212.19652379375006,66.0,81.0
972,212.13501585416674,212.68396751666674,59.0,53.0
973,212.61120635416674,212.90784801666675,66.0,93.0
974,212.61120635416674,212.90971368750007,62.0,86.0
975,212.61120635416674,212.91531070000008,69.0,92.0
976,212.83508685416675,213.02725095000008,59.0,77.0
977,211.65882535416674,213.0682957083334,47.0,78.0
978,213.05896735416675,213.31269858750008,62.0,72.0
979,213.28284785416673,213.46941493750006,69.0,65.0
980,213.50672835416674,213.63732531250008,40.0,84.0
981,213.50672835416674,213.6951611083334,52.0,81.0
982,213.50672835416674,213.8518774583334,71.0,106.0
983,213.50672835416674,213.88172819166675,68.0,53.0
984,213.50672835416674,213.88919087500008,64.0,88.0
985,214.17836985416673,214.50381285416674,76.0,107.0
986,214.40225035416674,214.52334410416674,59.0,91.0
987,214.17836985416673,214.53115660416674,68.0,78.0
988,214.17836985416673,214.54092222916674,64.0,70.0
989,213.95448935416675,214.56045347916674,52.0,68.0
990,214.63662535416674,214.95498472916674,74.0,91.0
991,214.63662535416674,214.95889097916674,68.0,72.0
992,214.63662535416674,215.01162535416674,64.0,74.0
993,214.87100035416674,215.23037535416674,44.0,88.0
994,215.10537535416674,215.25771910416674,56.0,94.0
995,215.33975035416674,215.76112135000008,45.0,82.0
996,215.58168585416675,215.80144393333342,52.0,76.0
997,215.82362135416673,216.1401536333334,57.0,53.0
998,215.33975035416674,216.29942783750008,69.0,91.0
999,215.33975035416674,216.31958912916673,72.0,94.0
1000,215.33975035416674,216.37402461666673,64.0,82.0
1001,216.30749235416673,216.66837947500008,60.0,68.0
1002,216.06555685416674,216.68854076666673,59.0,66.0
1003,216.54942785416674,216.72886335000007,64.0,90.0
1004,216.79136335416675,216.97079885000008,69.0,92.0
1005,217.03329885416673,217.24902467500007,71.0,85.0
1006,217.27523435416674,217.59799540833342,72.0,88.0
1007,217.27523435416674,217.62971181250006,64.0,79.0
1008,217.72299535416676,218.01963701666674,57.0,66.0
1009,217.94687585416673,218.3088159958334,61.0,99.0
1010,217.94687585416673,218.33306971666673,64.0,111.0
1011,217.94687585416673,218.33306971666673,69.0,97.0
1012,218.17075635416674,218.47859204166673,57.0,68.0
1013,218.39463685416675,218.69314418750008,61.0,88.0
1014,217.27523435416674,218.74724864166674,45.0,76.0
1015,217.49911485416675,218.75471132500007,52.0,90.0
1016,218.39463685416675,218.81068145000006,67.0,103.0
1017,218.84239785416673,219.00471121666675,62.0,60.0
1018,218.61851735416676,219.0140395708334,57.0,92.0
1019,219.06627835416674,219.57857366666673,64.0,94.0
1020,219.06627835416674,219.59906547916674,66.0,57.0
1021,219.80398360416675,220.08472143541675,64.0,84.0
1022,220.04988535416675,220.26709856666673,66.0,83.0
1023,219.31218010416674,220.36955762916674,57.0,70.0
1024,219.06627835416674,220.58472166041673,50.0,90.0
1025,220.29578710416675,220.58472166041673,67.0,96.0
1026,219.55808185416674,220.59086920416675,62.0,77.0
1027,220.54168885416675,220.78963978541674,69.0,77.0
1028,220.78759060416675,220.99250872916673,57.0,19.0
1029,220.78759060416675,221.06920664166677,72.0,97.0
1030,221.03349235416675,221.54936539583343,71.0,90.0
1031,221.50968285416675,221.90055588958342,69.0,94.0
1032,221.27158760416674,221.9124606520834,57.0,53.0
1033,221.74777810416674,222.0716942125001,62.0,79.0
1034,221.98587335416676,222.07915689583342,67.0,107.0
1035,221.98587335416676,222.11460464166674,72.0,96.0
1036,222.43363435416677,222.46161941666676,69.0,34.0
1037,222.43363435416677,222.53811192083342,62.0,85.0
1038,222.43363435416677,222.56236564166676,76.0,103.0
1039,222.20975385416676,222.62579845000008,57.0,74.0
1040,221.03349235416675,222.62952979166676,50.0,79.0
1041,222.88139535416676,223.07754921666677,43.0,101.0
1042,222.88139535416676,223.11216460416676,55.0,90.0
1043,222.88139535416676,223.1910107645834,74.0,86.0
1044,222.88139535416676,223.2025492270834,62.0,84.0
1045,222.88139535416676,223.2025492270834,67.0,90.0
1046,222.88139535416676,223.21024153541674,71.0,94.0
1047,223.57370310416675,224.0140877562501,55.0,36.0
1048,223.80447235416676,224.12754930416676,62.0,90.0
1049,223.80447235416676,224.14485699791675,74.0,83.0
1050,223.80447235416676,224.1583185375001,67.0,84.0
1051,223.80447235416676,224.16216469166676,71.0,95.0
1052,224.26601085416675,224.68139550416674,55.0,61.0
1053,224.49678010416676,224.78908782083343,62.0,93.0
1054,224.49678010416676,224.80639551458341,69.0,90.0
1055,223.57370310416675,225.2102417020834,43.0,57.0
1056,224.95831860416675,225.32562632708343,62.0,86.0
1057,224.95831860416675,225.3544724833334,71.0,96.0
1058,224.95831860416675,225.3871647937501,67.0,90.0
1059,225.41985710416677,225.76985713333343,55.0,84.0
1060,225.41985710416677,225.79870328958341,43.0,83.0
1061,225.65062635416675,225.86408791041674,74.0,79.0
1062,225.65062635416675,225.91024176041677,71.0,98.0
1063,225.65062635416675,225.92370330000008,62.0,95.0
1064,225.65062635416675,225.9294725312501,67.0,99.0
1065,225.88139560416676,226.03139561666674,55.0,82.0
1066,225.88139560416676,226.11601100833343,43.0,84.0
1067,226.11216485416676,226.1660110125001,67.0,51.0
1068,226.11216485416676,226.25447255833342,62.0,84.0
1069,226.34293410416674,226.3967802625001,62.0,47.0
1070,226.34293410416674,226.46793411458341,69.0,79.0
1071,226.57370335416675,227.0609909375001,54.0,82.0
1072,226.57370335416675,227.10124512916676,66.0,81.0
1073,226.57370335416675,227.1881094375001,74.0,90.0
1074,226.57370335416675,227.20717721250008,62.0,91.0
1075,226.57370335416675,227.3067533708334,69.0,81.0
1076,227.33641435416675,227.79303231666677,54.0,62.0
1077,227.59065135416677,228.0033497875001,66.0,78.0
1078,227.59065135416677,228.0628736000001,74.0,86.0
1079,227.59065135416677,228.08866725208344,62.0,86.0
1080,227.59065135416677,228.10057201458343,69.0,84.0
1081,228.54303235416677,228.7437899500001,62.0,91.0
1082,228.54303235416677,228.7551535875001,66.0,78.0
1083,228.30493710416675,228.7778808625001,54.0,79.0
1084,228.54303235416677,228.7949263187501,69.0,83.0
1085,228.54303235416677,228.8176535937501,74.0,90.0
1086,229.22485060416676,229.32712334166678,74.0,72.0
1087,229.22485060416676,229.3290172812501,78.0,82.0
1088,229.22485060416676,229.3346991000001,81.0,82.0
1089,229.22485060416676,229.34227485833344,86.0,72.0
1090,229.45212335416676,229.55629003125011,86.0,95.0
1091,229.45212335416676,229.5619718500001,78.0,94.0
1092,229.45212335416676,229.5619718500001,81.0,90.0
1093,229.45212335416676,229.56575972916676,74.0,91.0
1094,228.99757785416676,229.7267445937501,54.0,61.0
1095,229.90666885416678,229.97295673958342,44.0,78.0
1096,229.90666885416678,229.98621431666677,54.0,99.0
1097,226.57370335416675,230.0278809875001,42.0,90.0
1098,230.13394160416678,230.3346992000001,71.0,83.0
1099,230.36121435416678,230.47827785208344,36.0,104.0
1100,230.36121435416678,230.52589690208345,48.0,86.0
1101,230.36121435416678,230.99415089375012,72.0,95.0
1102,230.36121435416678,231.10526201041677,64.0,84.0
1103,230.36121435416678,231.12113502708345,67.0,90.0
1104,231.07550010416676,231.3909763104168,60.0,91.0
1105,231.31359535416678,231.5635953666668,64.0,99.0
1106,231.31359535416678,231.60129378125012,67.0,99.0
1107,231.31359535416678,231.62708743333343,72.0,99.0
1108,230.83740485416678,231.78780172708343,48.0,80.0
1109,231.78978585416678,231.93264300416678,64.0,75.0
1110,231.55169060416677,231.97430967291677,60.0,90.0
1111,232.02788110416677,232.18661127083345,69.0,82.0
1112,232.26597635416678,232.6290716104168,72.0,93.0
1113,232.26597635416678,232.6727224062501,66.0,84.0
1114,232.26597635416678,232.6727224062501,69.0,79.0
1115,232.26597635416678,232.74216685416678,62.0,82.0
1116,232.98026210416677,233.1072462375001,62.0,75.0
1117,232.74216685416678,233.51413150416678,57.0,76.0
1118,233.42962460416678,233.69899034791678,74.0,100.0
1119,233.42962460416678,233.71835651250012,66.0,98.0
1120,233.6408918541668,233.73772267708344,57.0,82.0
1121,233.42962460416678,233.75356772083344,62.0,94.0
1122,232.26597635416678,233.78349724791678,50.0,90.0
1123,233.8521591041668,233.94546880625012,62.0,68.0
1124,233.8521591041668,233.99652505833345,72.0,86.0
1125,234.06342635416678,234.45033113541677,67.0,90.0
1126,234.06342635416678,234.45429938958344,62.0,82.0
1127,234.06342635416678,234.4582676437501,71.0,90.0
1128,235.01580735416678,235.0535057687501,62.0,59.0
1129,235.01580735416678,235.0535057687501,62.0,94.0
1130,234.53961685416678,235.26183911250013,55.0,69.0
1131,235.01580735416678,235.3511248312501,59.0,95.0
1132,235.01580735416678,235.35509308541677,67.0,90.0
1133,234.06342635416678,235.81937882291678,43.0,91.0
1134,235.73009310416677,235.83326771250012,62.0,83.0
1135,235.73009310416677,235.86501374583344,57.0,83.0
1136,235.49199785416678,236.01977565833346,55.0,71.0
1137,235.96818835416678,236.17652169791677,59.0,75.0
1138,235.96818835416678,236.22810900208344,57.0,61.0
1139,235.96818835416678,236.2439820187501,65.0,75.0
1140,235.96818835416678,236.28168043333343,62.0,94.0
1141,236.44437885416679,236.74001378958346,59.0,86.0
1142,236.68247410416677,236.8074741104168,62.0,81.0
1143,236.20628360416677,236.96620427708345,55.0,80.0
1144,236.9205693541668,237.17652174791678,59.0,94.0
1145,236.9205693541668,237.17652174791678,62.0,86.0
1146,236.9205693541668,237.31144238958345,65.0,90.0
1147,235.96818835416678,237.43445826875012,43.0,95.0
1148,237.3967598541668,237.4681884291668,62.0,94.0
1149,237.15866460416677,237.47612493750012,55.0,83.0
1150,237.3967598541668,237.47612493750012,59.0,99.0
1151,237.3967598541668,237.50787097083344,67.0,91.0
1152,237.8729503541668,238.32533132916677,72.0,94.0
1153,237.8729503541668,238.37295037916678,67.0,97.0
1154,237.8729503541668,238.40271228541678,64.0,84.0
1155,238.58723610416678,238.6963630937501,64.0,38.0
1156,238.3491408541668,238.8702532291668,60.0,60.0
1157,238.8253313541668,239.1651751041668,64.0,92.0
1158,238.8253313541668,239.1710344791668,72.0,99.0
1159,238.8253313541668,239.2120501041668,67.0,97.0
1160,239.0597063541668,239.3683001041668,60.0,53.0
1161,237.8729503541668,239.4444719791668,48.0,85.0
1162,238.11104560416678,239.4581438541668,55.0,81.0
1163,239.2940813541668,239.4835344791668,64.0,53.0
1164,239.7628313541668,240.2511126041668,69.0,84.0
1165,239.7628313541668,240.3214251041668,62.0,82.0
1166,239.7628313541668,240.3390032291668,66.0,74.0
1167,240.2315813541668,240.7354876041668,57.0,53.0
1168,240.7003313541668,241.0343157291668,62.0,78.0
1169,240.7003313541668,241.0753313541668,66.0,69.0
1170,240.7003313541668,241.0772844791668,69.0,88.0
1171,240.9347063541668,241.1358782291668,57.0,79.0
1172,239.7628313541668,241.1788469791668,50.0,79.0
1173,241.1690813541668,241.2608782291668,62.0,53.0
1174,241.1690813541668,241.3390032291668,67.0,72.0
1175,241.4034563541668,241.5558001041668,69.0,72.0
1176,241.6378313541668,242.1046282291668,71.0,107.0
1177,241.6378313541668,242.1475969791668,62.0,81.0
1178,241.6378313541668,242.1866594791668,66.0,81.0
1179,241.6378313541668,242.2100969791668,47.0,68.0
1180,241.6378313541668,242.2276751041668,59.0,70.0
1181,242.5753313541668,242.6358782291668,51.0,35.0
1182,242.5753313541668,243.0089251041668,69.0,76.0
1183,242.5753313541668,243.0440813541668,62.0,81.0
1184,242.5753313541668,243.1261126041668,39.0,94.0
1185,243.0440813541668,243.1808001041668,51.0,44.0
1186,243.5128313541668,243.9581438541668,71.0,92.0
1187,243.5128313541668,244.0714251041668,67.0,96.0
1188,243.5128313541668,244.0831438541668,62.0,70.0
1189,243.5128313541668,244.1319719791668,52.0,63.0
1190,243.5128313541668,244.1886126041668,40.0,97.0
1191,244.4503313541668,244.8292376041668,38.0,85.0
1192,244.4503313541668,244.8585344791668,67.0,92.0
1193,244.4503313541668,244.8663469791668,71.0,92.0
1194,244.4503313541668,244.9034563541668,62.0,79.0
1195,244.4503313541668,244.9093157291668,50.0,70.0
1196,245.3878313541668,245.9268938541668,67.0,99.0
1197,245.3878313541668,246.0714251041668,64.0,79.0
1198,245.3878313541668,246.0850969791668,72.0,86.0
1199,245.3878313541668,246.5421282291668,60.0,53.0
1200,246.3253313541668,246.8155657291668,67.0,103.0
1201,246.3253313541668,246.8546282291668,64.0,85.0
1202,246.3253313541668,246.8565813541668,72.0,85.0
1203,245.3878313541668,246.9464251041668,48.0,66.0
1204,246.7940813541668,246.9679094791668,60.0,56.0
1205,247.2628313541668,247.8604876041668,69.0,79.0
1206,247.2628313541668,247.9776751041668,62.0,81.0
1207,247.2628313541668,247.9972063541668,66.0,54.0
1208,247.2628313541668,248.3487688541668,57.0,65.0
1209,248.2003313541668,248.7022844791668,69.0,85.0
1210,248.2003313541668,248.7042376041668,62.0,77.0
1211,248.2003313541668,248.7100969791668,66.0,78.0
1212,247.2628313541668,248.7335344791668,50.0,68.0
1213,248.6690813541668,248.7491594791668,57.0,63.0
1214,249.1378313541668,249.37052368125012,67.0,81.0
1215,249.1378313541668,249.37629291250013,64.0,77.0
1216,249.1378313541668,249.3916775291668,72.0,74.0
1217,249.1378313541668,249.39936983750013,60.0,54.0
1218,249.1378313541668,249.42436983958345,48.0,63.0
1219,249.59936985416678,249.7262929416668,67.0,90.0
1220,249.59936985416678,249.73398525000013,64.0,77.0
1221,249.59936985416678,249.89167757083345,72.0,84.0
1222,249.59936985416678,249.89744680208346,48.0,74.0
1223,249.59936985416678,249.91860065000012,60.0,74.0
1224,250.0609083541668,250.26667760208346,67.0,94.0
1225,250.0609083541668,250.27244683333345,64.0,78.0
1226,250.0609083541668,250.30129298958346,72.0,85.0
1227,250.0609083541668,250.3205237604168,48.0,78.0
1228,250.0609083541668,250.32821606875012,60.0,70.0
1229,250.5224468541668,250.7782161062501,67.0,88.0
1230,250.5224468541668,250.7878314916668,64.0,76.0
1231,250.5224468541668,250.7993699541668,72.0,86.0
1232,250.5224468541668,250.8166776479168,60.0,60.0
1233,250.5224468541668,250.8224468791668,48.0,72.0
1234,250.9839853541668,251.22009647708347,64.0,77.0
1235,250.9839853541668,251.22009647708347,67.0,88.0
1236,250.9839853541668,251.23398536666681,72.0,85.0
1237,250.9839853541668,251.26176314583347,48.0,77.0
1238,250.9839853541668,251.26573140000013,60.0,62.0
1239,251.4601758541668,251.72406475625013,64.0,70.0
1240,251.4601758541668,251.73993777291682,67.0,82.0
1241,251.4601758541668,251.74985840833347,72.0,84.0
1242,251.4601758541668,251.75382666250013,60.0,70.0
1243,251.4601758541668,251.76771555208347,48.0,81.0
1244,251.9363663541668,252.2339854166668,72.0,85.0
1245,251.9363663541668,252.2399377979168,60.0,65.0
1246,251.9363663541668,252.2458901791668,48.0,77.0
1247,251.9363663541668,252.2458901791668,67.0,90.0
1248,251.9363663541668,252.25581081458347,64.0,72.0
1249,252.4125568541668,252.49787431875015,60.0,66.0
1250,252.4125568541668,252.50581082708348,67.0,94.0
1251,252.4125568541668,252.5077949541668,64.0,72.0
1252,252.4125568541668,252.53557273333348,72.0,90.0
1253,252.4125568541668,252.55144575000014,48.0,85.0
1254,252.8887473541668,253.0099012104168,66.0,60.0
1255,252.8887473541668,253.0214396729168,62.0,79.0
1256,252.8887473541668,253.0502858291668,59.0,66.0
1257,252.8887473541668,253.0560550604168,69.0,88.0
1258,252.8887473541668,253.0675935229168,47.0,81.0
1259,253.3502858541668,253.4829781729168,62.0,69.0
1260,253.3502858541668,253.49259355833348,66.0,63.0
1261,253.3502858541668,253.51951663750015,69.0,77.0
1262,253.3502858541668,253.53105510000015,59.0,65.0
1263,253.3502858541668,253.56374741041682,47.0,60.0
1264,253.81182435416682,253.9387474416668,62.0,69.0
1265,253.81182435416682,253.94643975000014,69.0,79.0
1266,253.81182435416682,253.9502859041668,59.0,62.0
1267,253.81182435416682,253.9502859041668,66.0,56.0
1268,253.81182435416682,253.98105513750014,47.0,69.0
1269,254.2733628541668,254.3829782479168,69.0,74.0
1270,254.2733628541668,254.38874747916682,62.0,63.0
1271,254.2733628541668,254.39067055625014,66.0,53.0
1272,254.2733628541668,254.42143978958347,59.0,54.0
1273,254.2733628541668,254.45413210000015,47.0,53.0
1274,254.73490135416682,254.83490136250015,62.0,76.0
1275,254.73490135416682,254.8445167479168,66.0,53.0
1276,254.73490135416682,254.8791321354168,69.0,81.0
1277,254.73490135416682,254.90990136875016,59.0,60.0
1278,254.73490135416682,254.92528598541682,47.0,66.0
1279,255.1964398541668,255.36182448333346,62.0,65.0
1280,255.1964398541668,255.37336294583346,69.0,66.0
1281,255.1964398541668,255.38874756250016,66.0,33.0
1282,255.1964398541668,255.4099014104168,59.0,50.0
1283,255.1964398541668,255.46567064583348,47.0,44.0
1284,255.6579783541668,255.90605529791682,69.0,86.0
1285,255.6579783541668,255.9214399145835,59.0,57.0
1286,255.6579783541668,255.92720914583347,62.0,78.0
1287,255.6579783541668,255.95220914791682,66.0,56.0
1288,255.6579783541668,255.98297838125015,47.0,63.0
1289,256.1195168541668,256.2156707083335,59.0,53.0
1290,256.1195168541668,256.24259378750014,66.0,50.0
1291,256.1195168541668,256.24259378750014,69.0,82.0
1292,256.1195168541668,256.2637476354168,47.0,76.0
1293,256.1195168541668,256.2637476354168,62.0,81.0
1294,256.3502861041668,256.54451688958346,46.0,39.0
1295,256.58105535416684,256.71386785416684,57.0,50.0
1296,256.58105535416684,256.73339910416684,45.0,76.0
1297,256.58105535416684,256.77441472916684,60.0,66.0
1298,256.58105535416684,256.78808660416684,64.0,88.0
1299,256.58105535416684,256.79199285416684,69.0,79.0
1300,257.04980535416684,257.18457097916684,64.0,92.0
1301,257.04980535416684,257.19043035416684,60.0,69.0
1302,257.04980535416684,257.20996160416684,45.0,76.0
1303,257.04980535416684,257.22949285416684,57.0,57.0
1304,257.04980535416684,257.28613347916684,69.0,78.0
1305,257.51855535416684,257.6414000916668,64.0,92.0
1306,257.51855535416684,257.6651069708335,60.0,77.0
1307,257.51855535416684,257.7470034625002,57.0,59.0
1308,257.51855535416684,257.7577793166668,69.0,82.0
1309,257.51855535416684,257.77717585416684,45.0,86.0
1310,258.03579635416685,258.2620892916668,57.0,47.0
1311,258.03579635416685,258.2642444625002,64.0,82.0
1312,258.03579635416685,258.26855480416685,60.0,69.0
1313,258.03579635416685,258.26855480416685,69.0,76.0
1314,258.03579635416685,258.3138133916668,45.0,78.0
1315,258.55303735416686,258.70076464166686,57.0,60.0
1316,258.55303735416686,258.71781009791687,60.0,68.0
1317,258.55303735416686,258.71781009791687,64.0,86.0
1318,258.55303735416686,258.7367494937502,45.0,62.0
1319,258.55303735416686,258.74053737291683,69.0,72.0
1320,259.00758285416686,259.14962832291684,64.0,88.0
1321,259.00758285416686,259.16667377916684,60.0,63.0
1322,259.00758285416686,259.20076469166685,57.0,45.0
1323,259.00758285416686,259.2121283291669,69.0,72.0
1324,259.00758285416686,259.2310677250002,45.0,70.0
1325,259.46212835416685,259.68940110416685,57.0,53.0
1326,259.46212835416685,259.6969768625002,60.0,77.0
1327,259.68940110416685,259.6969768625002,60.0,84.0
1328,259.46212835416685,259.7045526208335,64.0,90.0
1329,259.46212835416685,259.7140223187502,45.0,82.0
1330,259.68940110416685,259.7140223187502,45.0,88.0
1331,259.46212835416685,259.7291738354169,69.0,85.0
1332,259.68940110416685,259.78599202291684,57.0,38.0
1333,259.91667385416685,260.0265223500002,57.0,57.0
1334,259.68940110416685,260.0719769000002,67.0,90.0
1335,260.14394660416684,260.26326479791686,64.0,81.0
1336,260.14394660416684,260.29735571041687,60.0,63.0
1337,260.14394660416684,260.31818904583355,69.0,79.0
1338,260.37121935416684,260.6050903375002,50.0,74.0
1339,260.37121935416684,260.81275164166686,67.0,94.0
1340,260.37121935416684,260.8792839041668,60.0,82.0
1341,260.37121935416684,260.8873484208335,64.0,81.0
1342,261.0970258541668,261.2744452208335,60.0,77.0
1343,261.0970258541668,261.28049360833353,64.0,76.0
1344,261.3389613541668,261.47605813750016,67.0,72.0
1345,260.85509035416686,261.6756549250002,50.0,82.0
1346,261.3389613541668,261.8268646125002,64.0,97.0
1347,261.58089685416684,261.86315493750016,67.0,88.0
1348,261.82283235416685,261.9397678458335,69.0,85.0
1349,260.37121935416684,262.1111388250002,38.0,94.0
1350,262.06476785416686,262.1696065708335,72.0,91.0
1351,262.06476785416686,262.2784775458335,50.0,60.0
1352,262.3067033541668,262.36054951250014,76.0,50.0
1353,262.3067033541668,262.3932418229168,67.0,47.0
1354,262.3067033541668,262.52785721875017,50.0,65.0
1355,262.76824185416683,262.86824186250016,67.0,81.0
1356,262.76824185416683,262.89131878750015,79.0,103.0
1357,262.9990111041668,263.0490111083335,50.0,23.0
1358,263.2297803541668,263.3143957458335,69.0,74.0
1359,263.2297803541668,263.3490111333335,81.0,99.0
1360,263.2297803541668,263.43747267916683,50.0,72.0
1361,262.3067033541668,263.6740111604168,38.0,79.0
1362,263.6913188541668,263.79131886250013,72.0,76.0
1363,263.6913188541668,263.8067034791668,50.0,84.0
1364,264.1528573541668,265.1220882041668,62.0,53.0
1365,264.1528573541668,265.1317035895835,67.0,91.0
1366,264.1528573541668,265.19324205625014,74.0,74.0
1367,265.99901135416684,266.76824218750016,91.0,26.0
1368,265.99901135416684,266.8355498854168,79.0,45.0
1369,264.1528573541668,267.1855499145835,43.0,68.0
1370,264.1528573541668,267.1932422229168,55.0,59.0
1371,267.8451653541668,270.4288193541668,59.0,45.0
1372,267.8451653541668,270.4725693541668,47.0,38.0
1373,267.8451653541668,270.4829860208335,69.0,60.0
1374,267.8451653541668,270.5038193541668,66.0,37.0
1375,267.8451653541668,270.5246526875001,62.0,50.0
1376,271.6913193541668,271.9855501479168,67.0,119.0
1377,271.6913193541668,271.9893963020835,64.0,101.0
1378,271.6913193541668,271.9893963020835,72.0,113.0
1379,271.6913193541668,271.9913193791668,48.0,92.0
1380,271.6913193541668,271.9990116875001,36.0,107.0
1381,273.26684785416677,273.38998212916675,36.0,81.0
1382,273.26684785416677,273.3993104833334,67.0,101.0
1383,273.26684785416677,273.40677316666677,64.0,85.0
1384,273.26684785416677,273.4179671916668,48.0,63.0
1385,273.26684785416677,273.4235642041668,72.0,97.0
1386,273.4907283541668,273.8787878875001,50.0,101.0
1387,273.4907283541668,273.8843849000001,62.0,91.0
1388,273.4907283541668,273.9235639875001,66.0,99.0
1389,273.4907283541668,273.9272953291668,69.0,81.0
1390,273.4907283541668,274.0000564916668,38.0,88.0
1391,274.16236985416674,274.3945836875001,69.0,96.0
1392,274.16236985416674,274.4133336875001,66.0,109.0
1393,274.16236985416674,274.4154170208334,50.0,106.0
1394,274.16236985416674,274.4154170208334,62.0,86.0
1395,274.16236985416674,274.4154170208334,72.0,101.0
1396,274.16236985416674,274.4320836875001,38.0,68.0
1397,275.38625035416675,275.8381734687501,67.0,103.0
1398,275.38625035416675,275.8689427020834,71.0,107.0
1399,275.38625035416675,275.89394270416676,62.0,81.0
1400,276.07855810416675,276.28432735208344,62.0,85.0
1401,276.3093273541667,276.58625045416676,64.0,106.0
1402,276.54009660416676,276.75355816041673,66.0,94.0
1403,275.84778885416677,276.93240432916673,55.0,82.0
1404,275.38625035416675,276.9516351000001,43.0,97.0
1405,276.77086585416674,276.96317356250006,67.0,88.0
1406,277.0016351041667,277.0977889583334,69.0,72.0
1407,277.23240435416676,277.6053553416668,69.0,101.0
1408,277.23240435416676,277.64633896666675,65.0,104.0
1409,277.72420785416676,277.90658498541677,62.0,88.0
1410,277.97010960416674,278.15453591666676,65.0,77.0
1411,278.07256866666677,278.1729785479168,67.0,106.0
1412,278.21601135416677,278.34882385416677,67.0,81.0
1413,278.31366760416677,278.52851135416677,69.0,66.0
1414,277.72420785416676,278.55194885416677,55.0,92.0
1415,278.45038635416677,278.64179260416677,71.0,60.0
1416,277.23240435416676,278.67499572916677,43.0,92.0
1417,278.56757385416677,278.69062072916677,72.0,85.0
1418,277.47830610416673,278.71210510416677,50.0,60.0
1419,278.68476135416677,278.90155822916677,74.0,103.0
1420,278.68476135416677,278.94843322916677,55.0,76.0
1421,278.81757385416677,279.03632385416677,76.0,69.0
1422,278.91913635416677,279.22577697916677,78.0,72.0
1423,279.15351135416677,279.35468322916677,79.0,90.0
1424,279.62226135416677,279.89569885416677,60.0,82.0
1425,279.85663635416677,280.16913635416677,64.0,107.0
1426,279.85663635416677,280.18866760416677,72.0,97.0
1427,279.85663635416677,280.21991760416677,67.0,111.0
1428,280.09101135416677,280.34687072916677,60.0,76.0
1429,279.15351135416677,280.61640197916677,48.0,84.0
1430,280.32538635416677,280.64179260416677,64.0,96.0
1431,279.38788635416677,280.67694885416677,55.0,86.0
1432,280.32538635416677,280.75116760416677,71.0,86.0
1433,280.55976135416677,280.79413635416677,60.0,70.0
1434,280.79413635416677,280.89374572916677,64.0,60.0
1435,280.79413635416677,280.95038635416677,72.0,97.0
1436,281.02851135416677,281.32538635416677,62.0,92.0
1437,281.02851135416677,281.37421447916677,66.0,96.0
1438,281.02851135416677,281.41327697916677,69.0,84.0
1439,281.49726135416677,281.75702697916677,62.0,68.0
1440,281.26288635416677,281.77851135416677,57.0,60.0
1441,281.73163635416677,281.82733947916677,66.0,69.0
1442,281.73163635416677,281.85273010416677,78.0,81.0
1443,281.96601135416677,282.06562072916677,67.0,90.0
1444,281.96601135416677,282.07343322916677,79.0,107.0
1445,281.96601135416677,282.25312072916677,57.0,77.0
1446,282.20038635416677,282.29218322916677,69.0,70.0
1447,282.20038635416677,282.33124572916677,81.0,96.0
1448,282.20038635416677,282.42108947916677,62.0,92.0
1449,281.02851135416677,282.60468322916677,50.0,84.0
1450,282.43476135416677,282.65546447916677,57.0,84.0
1451,282.66913635416677,282.80976135416677,84.0,97.0
1452,282.66913635416677,282.82148010416677,72.0,60.0
1453,282.90351135416677,283.10663635416677,83.0,99.0
1454,282.90351135416677,283.17694885416677,71.0,86.0
1455,283.37226135416677,283.47382385416677,64.0,47.0
1456,283.13788635416677,283.62421447916677,59.0,68.0
1457,283.60663635416677,283.89179260416677,67.0,86.0
1458,283.84101135416677,284.08124572916677,59.0,54.0
1459,282.90351135416677,284.35077697916677,47.0,88.0
1460,284.07538635416677,284.36249572916677,62.0,88.0
1461,284.30976135416677,284.39569885416677,59.0,90.0
1462,284.07538635416677,284.47968322916677,69.0,111.0
1463,284.54413635416677,284.62812072916677,68.0,45.0
1464,284.54413635416677,284.67890197916677,64.0,45.0
1465,284.77851135416677,284.88593322916677,40.0,86.0
1466,284.77851135416677,284.92108947916677,52.0,99.0
1467,284.77851135416677,285.02655822916677,68.0,57.0
1468,284.77851135416677,285.03046447916677,71.0,107.0
1469,284.77851135416677,285.12421447916677,64.0,84.0
1470,285.48163635416677,285.75507385416677,76.0,107.0
1471,285.71601135416677,285.85077697916677,59.0,94.0
1472,285.24726135416677,285.88593322916677,52.0,77.0
1473,285.48163635416677,285.89179260416677,68.0,81.0
1474,285.48163635416677,285.89374572916677,64.0,86.0
1475,285.95038635416677,286.26483947916677,71.0,106.0
1476,285.95038635416677,286.27851135416677,64.0,72.0
1477,286.18476135416677,286.46015197916677,69.0,79.0
1478,286.18476135416677,286.53632385416677,44.0,77.0
1479,286.41913635416677,286.55390197916677,56.0,81.0
1480,286.41913635416677,286.61249572916677,71.0,88.0
1481,286.65351135416677,287.13983947916677,45.0,96.0
1482,286.88788635416677,287.16523010416677,52.0,81.0
1483,287.12226135416677,287.43476135416677,57.0,60.0
1484,286.65351135416677,287.64960510416677,67.0,99.0
1485,286.65351135416677,287.64960510416677,72.0,91.0
1486,286.65351135416677,287.68866760416677,64.0,82.0
1487,287.35663635416677,287.79999572916677,59.0,60.0
1488,287.59101135416677,287.80976135416677,60.0,74.0
1489,287.82538635416677,287.99140197916677,64.0,90.0
1490,288.05976135416677,288.13593322916677,72.0,78.0
1491,288.05976135416677,288.18671447916677,67.0,81.0
1492,288.29413635416677,288.41132385416677,64.0,97.0
1493,288.52851135416677,288.83905822916677,69.0,92.0
1494,288.52851135416677,288.85077697916677,61.0,78.0
1495,288.52851135416677,288.85663635416677,64.0,92.0
1496,288.99726135416677,289.06366760416677,69.0,62.0
1497,288.76288635416677,289.14960510416677,57.0,76.0
1498,288.99726135416677,289.25898010416677,61.0,85.0
1499,289.23163635416677,289.37812072916677,64.0,82.0
1500,289.23163635416677,289.45233947916677,57.0,47.0
1501,289.46601135416677,289.79023010416677,64.0,99.0
1502,289.46601135416677,289.79608947916677,61.0,109.0
1503,289.46601135416677,289.90351135416677,67.0,107.0
1504,289.70038635416677,289.98163635416677,57.0,81.0
1505,289.93476135416677,289.98554260416677,61.0,37.0
1506,288.52851135416677,289.98944885416677,45.0,82.0
1507,289.93476135416677,290.03046447916677,52.0,101.0
1508,289.93476135416677,290.05780822916677,64.0,99.0
1509,290.16913635416677,290.29218322916677,64.0,22.0
1510,289.93476135416677,290.29218322916677,69.0,81.0
1511,290.40351135416677,290.50898010416677,38.0,101.0
1512,290.40351135416677,290.79218322916677,62.0,85.0
1513,290.40351135416677,291.20819885416677,66.0,88.0
1514,290.40351135416677,291.32343322916677,69.0,79.0
1515,291.10663635416677,291.68280822916677,57.0,84.0
1516,291.57538635416677,291.78827697916677,64.0,97.0
1517,291.34101135416677,291.81366760416677,62.0,82.0
1518,291.80976135416677,291.93280822916677,66.0,93.0
1519,290.87226135416677,292.00898010416677,50.0,77.0
1520,292.04413635416677,292.24530822916677,69.0,88.0
1521,292.27851135416677,292.55976135416677,78.0,19.0
1522,292.27851135416677,292.57929260416677,69.0,60.0
1523,292.27851135416677,292.63398010416677,74.0,86.0
1524,292.74726135416677,292.86249572916677,69.0,65.0
1525,292.74726135416677,292.88202697916677,78.0,102.0
1526,292.98163635416677,293.03632385416677,79.0,31.0
1527,292.98163635416677,293.09491760416677,69.0,44.0
1528,292.51288635416677,293.24726135416677,57.0,60.0
1529,293.21601135416677,293.31562072916677,69.0,65.0
1530,293.21601135416677,293.32343322916677,79.0,101.0
1531,293.21601135416677,293.69257385416677,62.0,79.0
1532,292.27851135416677,293.75702697916677,50.0,79.0
1533,293.68476135416677,293.77265197916677,69.0,65.0
1534,293.68476135416677,293.78827697916677,57.0,74.0
1535,294.15351135416677,294.25898010416677,43.0,106.0
1536,294.15351135416677,294.56366760416677,79.0,96.0
1537,294.15351135416677,294.56757385416677,83.0,96.0
1538,294.15351135416677,294.61444885416677,74.0,72.0
1539,294.85663635416677,295.41523010416677,62.0,88.0
1540,295.09101135416677,295.60273010416677,67.0,101.0
1541,295.32538635416677,295.63202697916677,72.0,85.0
1542,294.62226135416677,295.63788635416677,55.0,85.0
1543,295.55976135416677,295.77265197916677,74.0,88.0
1544,295.55976135416677,295.88398010416677,62.0,63.0
1545,295.79413635416677,296.17890197916677,79.0,111.0
1546,296.26288635416677,296.30194885416677,78.0,31.0
1547,296.26288635416677,296.30194885416677,78.0,81.0
1548,295.79413635416677,296.31562072916677,71.0,90.0
1549,296.26288635416677,296.31562072916677,71.0,88.0
1550,296.26288635416677,296.67108947916677,62.0,63.0
1551,296.49726135416677,296.77265197916677,67.0,68.0
1552,296.73163635416677,296.87030822916677,71.0,99.0
1553,296.73163635416677,296.88202697916677,79.0,85.0
1554,296.96601135416677,297.21796447916677,71.0,92.0
1555,296.96601135416677,297.21991760416677,79.0,85.0
1556,296.96601135416677,297.23749572916677,62.0,91.0
1557,297.20038635416677,297.46015197916677,67.0,77.0
1558,296.02851135416677,297.55976135416677,55.0,86.0
1559,297.43476135416677,297.57343322916677,62.0,88.0
1560,297.43476135416677,297.70819885416677,78.0,88.0
1561,297.43476135416677,297.73944885416677,71.0,88.0
1562,297.66913635416677,297.89765197916677,76.0,90.0
1563,297.90351135416677,298.16913635416677,74.0,96.0
1564,297.90351135416677,298.21601135416677,69.0,106.0
1565,298.37226135416677,298.73554260416677,62.0,94.0
1566,298.60663635416677,298.91718322916677,66.0,92.0
1567,298.84101135416677,298.92108947916677,62.0,26.0
1568,298.13788635416677,298.94648010416677,59.0,65.0
1569,298.84101135416677,299.11249572916677,69.0,59.0
1570,299.07538635416677,299.19648010416677,72.0,96.0
1571,299.30976135416677,299.42108947916677,62.0,48.0
1572,299.30976135416677,299.56171447916677,59.0,42.0
1573,297.90351135416677,299.56366760416677,47.0,92.0
1574,299.54413635416677,299.83515197916677,66.0,74.0
1575,299.54413635416677,299.83905822916677,62.0,76.0
1576,299.54413635416677,299.87030822916677,74.0,103.0
1577,300.01288635416677,300.10663635416677,78.0,74.0
1578,300.01288635416677,300.13398010416677,66.0,90.0
1579,300.01288635416677,300.19062072916677,59.0,70.0
1580,300.24726135416677,300.33710510416677,79.0,106.0
1581,300.24726135416677,300.34687072916677,67.0,72.0
1582,300.48163635416677,300.57538635416677,66.0,44.0
1583,300.48163635416677,300.61835510416677,59.0,47.0
1584,300.71601135416677,300.86373864166677,74.0,76.0
1585,300.71601135416677,300.90161743333346,62.0,63.0
1586,300.94328410416676,300.99820835208345,59.0,2.0
1587,300.94328410416676,301.12320836458343,54.0,45.0
1588,301.17055685416676,301.3201780812501,59.0,72.0
1589,301.17055685416676,301.3372235375001,71.0,107.0
1590,299.77851135416677,301.4205568791668,47.0,90.0
1591,301.39782960416676,301.4735871875001,54.0,94.0
1592,301.39782960416676,301.49442052291676,62.0,54.0
1593,301.39782960416676,301.52093567708346,74.0,99.0
1594,301.62510235416676,301.86924297916676,76.0,101.0
1595,301.62510235416676,302.15244610416676,64.0,63.0
1596,302.32822735416676,302.50596172916676,64.0,90.0
1597,302.56260235416676,302.75596172916676,67.0,94.0
1598,302.79697735416676,303.07041485416676,72.0,70.0
1599,301.62510235416676,303.16807110416676,48.0,78.0
1600,302.09385235416676,303.18369610416676,60.0,84.0
1601,303.03135235416676,303.23057110416676,76.0,72.0
1602,301.85947735416676,303.27158672916676,55.0,74.0
1603,303.26572735416676,303.49033672916676,79.0,79.0
1604,303.26572735416676,303.56064922916676,81.0,76.0
1605,303.50010235416676,303.80674297916676,84.0,54.0
1606,303.50010235416676,303.81260235416676,78.0,56.0
1607,303.50010235416676,303.84580547916676,74.0,63.0
1608,303.73447735416676,304.23252422916676,57.0,60.0
1609,303.96885235416676,304.27744610416676,62.0,79.0
1610,304.20322735416676,304.52158672916676,66.0,74.0
1611,304.20322735416676,304.53916485416676,69.0,70.0
1612,303.50010235416676,304.55674297916676,50.0,85.0
1613,304.43760235416676,304.59580547916676,57.0,69.0
1614,304.67197735416676,304.92588360416676,66.0,99.0
1615,304.67197735416676,304.95322735416676,62.0,60.0
1616,304.67197735416676,304.96494610416676,72.0,106.0
1617,304.90635235416676,305.03721172916676,42.0,105.0
1618,305.14072735416676,305.34385235416676,67.0,72.0
1619,305.37510235416676,305.82236797916676,43.0,88.0
1620,305.60947735416676,305.86728985416676,50.0,77.0
1621,305.84385235416676,306.14268047916676,55.0,72.0
1622,305.37510235416676,306.36728985416676,71.0,99.0
1623,305.37510235416676,306.38291485416676,67.0,85.0
1624,305.37510235416676,306.41025860416676,62.0,76.0
1625,306.07822735416676,306.67393047916676,57.0,56.0
1626,306.31260235416676,306.68174297916676,59.0,70.0
1627,306.54697735416676,306.89853985416676,62.0,78.0
1628,306.78135235416676,307.03721172916676,67.0,92.0
1629,307.01572735416676,307.16611797916676,71.0,96.0
1630,307.25010235416676,307.70127422916676,71.0,106.0
1631,307.25010235416676,307.73252422916676,65.0,92.0
1632,307.25010235416676,307.73447735416676,62.0,90.0
1633,307.71885235416676,308.12900860416676,55.0,96.0
1634,307.95322735416676,308.13291485416676,59.0,84.0
1635,308.18760235416676,308.51182110416676,59.0,76.0
1636,308.18760235416676,308.53330547916676,67.0,111.0
1637,308.18760235416676,308.55478985416676,62.0,91.0
1638,308.42197735416676,308.64463360416676,55.0,63.0
1639,307.25010235416676,308.67197735416676,43.0,84.0
1640,307.48447735416676,308.74619610416676,50.0,72.0
1641,308.65635235416676,308.81064922916676,59.0,72.0
1642,308.65635235416676,308.82236797916676,65.0,88.0
1643,308.89072735416676,309.00400860416676,47.0,82.0
1644,309.12510235416676,309.64072735416676,71.0,99.0
1645,309.12510235416676,309.66025860416676,67.0,94.0
1646,309.12510235416676,309.67588360416676,64.0,78.0
1647,309.82822735416676,310.12510235416676,60.0,41.0
1648,310.06260235416676,310.33018047916676,64.0,86.0
1649,310.06260235416676,310.34971172916676,67.0,94.0
1650,310.06260235416676,310.35947735416676,71.0,103.0
1651,310.29697735416676,310.61533672916676,60.0,60.0
1652,309.59385235416676,310.62314922916676,55.0,38.0
1653,310.53135235416676,310.72666485416676,64.0,68.0
1654,309.12510235416676,310.78525860416676,48.0,90.0
1655,310.76572735416676,310.92197735416676,55.0,60.0
1656,310.76572735416676,310.96299297916676,67.0,74.0
1657,311.00010235416676,311.49033672916676,69.0,91.0
1658,311.00010235416676,311.50986797916676,66.0,69.0
1659,311.00010235416676,311.54307110416676,62.0,70.0
1660,311.70322735416676,311.87510235416676,62.0,47.0
1661,311.46885235416676,312.00791485416676,57.0,50.0
1662,311.93760235416676,312.23057110416676,62.0,90.0
1663,311.93760235416676,312.23643047916676,66.0,78.0
1664,311.93760235416676,312.27549297916676,69.0,92.0
1665,311.00010235416676,312.46103985416676,50.0,86.0
1666,312.17197735416676,312.48447735416676,57.0,76.0
1667,312.40635235416676,312.58603985416676,62.0,68.0
1668,312.40635235416676,312.66611797916676,67.0,92.0
1669,312.64072735416676,312.76572735416676,62.0,74.0
1670,312.64072735416676,312.79307110416676,69.0,92.0
1671,312.87510235416676,313.36924297916676,74.0,72.0
1672,312.87510235416676,313.38877422916676,62.0,56.0
1673,312.87510235416676,313.41025860416676,66.0,74.0
1674,313.57822735416676,313.68564922916676,62.0,50.0
1675,313.34385235416676,313.83799297916676,59.0,62.0
1676,313.81260235416676,314.11533672916676,74.0,96.0
1677,313.81260235416676,314.12705547916676,66.0,88.0
1678,313.81260235416676,314.13096172916676,62.0,76.0
1679,314.04697735416676,314.16611797916676,59.0,60.0
1680,312.87510235416676,314.18174297916676,47.0,84.0
1681,314.28135235416676,314.44736797916676,62.0,62.0
1682,314.51572735416676,314.63877422916676,39.0,39.0
1683,314.51572735416676,314.68564922916676,69.0,72.0
1684,314.75010235416676,315.02939922916676,40.0,96.0
1685,314.98447735416676,315.25596172916676,52.0,63.0
1686,314.75010235416676,315.68760235416676,71.0,91.0
1687,314.75010235416676,315.74424297916676,62.0,65.0
1688,314.75010235416676,315.75205547916676,67.0,70.0
1689,315.68760235416676,316.21299297916676,59.0,85.0
1690,315.21885235416676,316.21689922916676,54.0,93.0
1691,315.45322735416676,316.24619610416676,55.0,85.0
1692,315.92197735416676,316.33213360416676,62.0,85.0
1693,316.15635235416676,316.42197735416676,66.0,93.0
1694,316.39072735416676,316.57432110416676,67.0,65.0
1695,316.62510235416676,317.14853985416676,71.0,97.0
1696,316.62510235416676,317.23838360416676,67.0,92.0
1697,316.62510235416676,317.32627422916676,64.0,77.0
1698,316.62510235416676,317.75205547916676,60.0,57.0
1699,317.56260235416676,318.08408672916676,67.0,94.0
1700,317.56260235416676,318.09189922916676,71.0,81.0
1701,318.03135235416676,318.11924297916676,60.0,54.0
1702,317.56260235416676,318.13486797916676,64.0,68.0
1703,316.62510235416676,318.18760235416676,55.0,82.0
1704,316.62510235416676,318.19736797916676,48.0,27.0
1705,318.50010235416676,319.00010235416676,60.0,65.0
1706,318.50010235416676,319.03135235416676,64.0,72.0
1707,318.50010235416676,319.08408672916676,67.0,82.0
1708,319.67197735416676,319.92978985416676,64.0,60.0
1709,319.90635235416676,320.02744610416676,67.0,65.0
1710,320.14072735416676,320.53135235416676,69.0,39.0
1711,320.37510235416676,320.64658672916676,72.0,60.0
1712,320.60947735416676,320.86143047916676,76.0,59.0
1713,321.07822735416676,321.41362965208344,79.0,63.0
1714,321.31260235416676,321.72869783541677,81.0,39.0
1715,318.50010235416676,322.4393135750001,50.0,81.0
1716,319.43760235416676,322.5266422562501,62.0,42.0
1717,319.20322735416676,322.56945043333343,57.0,51.0
1718,322.7167105625001,323.3071824708334,62.0,63.0
1719,322.78691597291674,323.3277048500001,67.0,51.0
1720,322.6961626375001,323.3314361916668,59.0,38.0
1721,322.7064366000001,323.77173450833345,43.0,88.0
1722,323.22509295416677,323.8109135958334,50.0,50.0
1723,323.7512121291668,324.2549432541668,69.0,60.0
1724,323.7754658500001,324.47695808333344,55.0,63.0
1725,324.8500922500001,325.1971070250001,71.0,53.0
1726,324.36501783333347,325.3407636791668,59.0,47.0
1727,326.58889746666677,327.01986742916677,67.0,77.0
1728,326.5721064291668,327.14673304583346,63.0,45.0
1729,326.55344972083344,327.2717329916668,72.0,41.0
1730,327.5142702000001,328.42285189583345,69.0,79.0
1731,327.95270284583347,328.96203076666677,63.0,39.0
1732,326.5982258208335,329.5174629041668,48.0,79.0
1733,327.5068075166668,329.53229339583345,60.0,60.0
1734,327.0478524916668,329.57254758750014,55.0,82.0
1735,328.41725488333344,329.62339498750015,67.0,68.0
1736,330.3633069583335,330.8222619833335,69.0,53.0
1737,330.3539786041668,330.83718735000014,62.0,50.0
1738,330.3539786041668,331.59838105000017,47.0,60.0
1739,330.7662918583335,331.79987350000016,59.0,50.0
1740,331.1599484041668,331.8092018541668,62.0,63.0
1741,331.63196312500014,331.97711222916683,74.0,72.0
1742,332.1114405291668,332.6095746416668,62.0,47.0
1743,332.12450022500013,332.8726342291668,67.0,63.0
1744,333.13352247916686,333.47163738541684,74.0,66.0
1745,333.1437683854169,333.54745709166684,59.0,23.0
1746,332.1095748583335,333.57204726666686,52.0,63.0
1747,333.8999162666669,334.3159000604168,64.0,44.0
1748,333.94089989166685,334.3917197666668,67.0,65.0
1749,334.03926059166685,334.56794935416684,72.0,63.0
1750,334.40401485416686,334.87122817916685,71.0,66.0
1751,333.96549006666686,335.33978354583354,45.0,54.0
1752,334.39581812916686,335.4087490125002,52.0,60.0
1753,334.89376917291685,335.41736969583354,67.0,63.0
1754,334.8671298166669,335.4367662333335,57.0,34.0
1755,335.4022835000002,336.0359037250002,64.0,56.0
1756,335.9841796250002,336.44538618333354,60.0,53.0
1757,336.96262718333355,337.1195442666669,67.0,65.0
1758,336.9540065000002,337.46279825208353,62.0,45.0
1759,337.4508934895835,337.76041731458355,69.0,50.0
1760,338.04811574166683,338.2643855937502,74.0,27.0
1761,336.4259896458335,338.6830364083335,57.0,39.0
1762,335.9669382583335,338.7425602208335,50.0,63.0
1763,339.72668725416685,340.0044650458335,71.0,18.0
1764,339.6830364583335,340.03422695208354,67.0,18.0
1765,339.8239094812502,340.3239095062502,76.0,57.0
1766,340.3120047437502,340.39930633541684,74.0,78.0
1767,339.7425602708335,340.4568460208335,48.0,44.0
1768,340.9072428687502,341.18502066041685,66.0,39.0
1769,340.9151793770835,341.24851272708355,62.0,44.0
1770,340.90922699583354,341.25446510833353,72.0,33.0
1771,340.8973222333335,341.34176670000016,38.0,68.0
1772,341.4608143250002,341.5520841708335,69.0,39.0
1773,342.23462388750016,343.46478267916683,57.0,22.0
1774,342.48660802708355,343.5282747458335,67.0,45.0
1775,342.2703381750002,343.55406839791686,55.0,42.0
1776,342.3318461145835,343.5739096687502,59.0,14.0
1777,342.26636992083354,343.59176681250017,43.0,39.0
1778,342.32589373333354,343.5997033208335,62.0,57.0
