,start,end,pitch,velocity
0,15.502001143749998,15.7136944875,60.0,88.0
1,15.74393639375,15.860871764583333,65.0,88.0
2,15.985871643749999,16.104823141666667,65.0,85.0
3,16.22780689375,16.348774518749998,65.0,86.0
4,16.46974214375,16.594742022916666,65.0,85.0
5,16.711677393749998,17.112886683333333,65.0,86.0
6,17.19554789375,17.332644535416666,65.0,86.0
7,17.43748314375,17.824579543749998,65.0,88.0
8,17.92135364375,18.348772585416665,65.0,86.0
9,18.647159393749998,18.846755975,60.0,86.0
10,18.88909464375,19.5846584875,63.0,85.0
11,19.61490039375,21.425382514583333,61.0,81.0
12,23.243929143749998,23.443525724999997,58.0,85.0
13,23.48586439375,23.622961035416665,63.0,84.0
14,23.72779964375,23.868928539583333,63.0,84.0
15,23.969734893749997,24.106831535416667,63.0,84.0
16,24.21167014375,24.348766785416665,63.0,84.0
17,24.45360539375,24.8346534125,63.0,86.0
18,24.937475893749998,25.07860478958333,63.0,81.0
19,25.17941114375,25.546346272916665,63.0,85.0
20,25.663281643749997,26.104813475,65.0,87.0
21,26.38908739375,26.542313052083333,67.0,86.0
22,26.631022643749997,27.11489314375,67.0,77.0
23,27.11489314375,29.292310393749997,60.0,86.0
24,30.98585714375,31.1249699125,60.0,83.0
25,31.227792393749997,31.344727764583332,65.0,86.0
26,31.469727643749998,31.580614633333333,65.0,85.0
27,31.71166289375,31.832630518749998,65.0,85.0
28,31.95359814375,32.07456576875,65.0,86.0
29,32.19553339375,32.526178235416666,65.0,93.0
30,32.67940389375,32.80037151875,65.0,85.0
31,32.92133914375,33.29230652708333,65.0,85.0
32,33.40520964375,33.75601575625,65.0,85.0
33,34.13101539375,34.28424105208333,72.0,84.0
34,34.372950643749995,34.85682114375,72.0,83.0
35,34.85682114375,36.55036789375,70.0,79.0
36,39.45359089375,39.63302620416666,67.0,85.0
37,39.69552614375,39.84270342083333,67.0,84.0
38,39.93746139375,40.25399334583333,67.0,85.0
39,40.42133189375,40.55238015416666,67.0,80.0
40,40.66326714375,41.350766479166666,67.0,85.0
41,41.38907289375,41.719717735416666,60.0,86.0
42,41.87294339375,41.999959399999995,67.0,87.0
43,42.11487864375,42.59874914375,68.0,79.0
44,42.59874914375,44.71769870833333,67.0,84.0
45,46.46971314375,46.6814064875,60.0,88.0
46,46.711648393749996,46.82858376458333,65.0,88.0
47,46.95358364375,47.07253514166666,65.0,85.0
48,47.19551889375,47.31648651875,65.0,86.0
49,47.437454143749996,47.56245402291666,65.0,85.0
50,47.67938939375,48.08059868333333,65.0,86.0
51,48.163259893749995,48.30035653541666,65.0,86.0
52,48.40519514375,48.79229154375,65.0,88.0
53,48.889065643749994,49.31648458541667,65.0,86.0
54,49.61487139375,49.814467975,60.0,86.0
55,49.85680664375,50.5523704875,63.0,85.0
56,50.58261239375,52.39309451458333,61.0,81.0
57,54.21164114375,54.411237725,58.0,85.0
58,54.45357639375,54.590673035416664,63.0,84.0
59,54.695511643749995,54.83664053958333,63.0,84.0
60,54.93744689375,55.074543535416666,63.0,84.0
61,55.17938214375,55.31647878541666,63.0,84.0
62,55.421317393749995,55.802365412499995,63.0,86.0
63,55.905187893749996,56.04631678958333,63.0,81.0
64,56.147123143749994,56.514058272916664,63.0,85.0
65,56.630993643749996,57.072525475,65.0,87.0
66,57.356799393749995,57.51002505208333,67.0,86.0
67,57.59873464375,58.082605143749994,67.0,77.0
68,58.082605143749994,60.26002239375,60.0,86.0
69,61.953569143749995,62.0926819125,60.0,83.0
70,62.19550439375,62.31243976458333,65.0,86.0
71,62.43743964375,62.54832663333333,65.0,85.0
72,62.679374893749994,62.80034251875,65.0,85.0
73,62.92131014375,63.04227776875,65.0,86.0
74,63.163245393749996,63.493890235416664,65.0,93.0
75,63.64711589375,63.76808351875,65.0,85.0
76,63.889051143749995,64.26001852708333,65.0,85.0
77,64.37292164374999,64.72372775625,65.0,85.0
78,65.09872739375,65.25195305208332,72.0,84.0
79,65.34066264375,65.82453314375,72.0,83.0
80,65.82453314375,67.51807989375,70.0,79.0
81,70.42130289375,70.60073820416666,67.0,85.0
82,70.66323814375,70.81041542083332,67.0,84.0
83,70.90517339374999,71.22170534583333,67.0,85.0
84,71.38904389375,71.52009215416666,67.0,80.0
85,71.63097914375,72.31847847916666,67.0,85.0
86,72.35678489375,72.68742973541666,63.0,86.0
87,72.84065539375,72.9676714,67.0,87.0
88,73.08259064375,73.56646114374999,67.0,79.0
89,73.56646114374999,75.68541070833334,65.0,84.0
90,77.43742514374999,77.637021725,72.0,88.0
91,77.67936039375,77.82250541666666,77.0,86.0
92,77.92129564375,78.0362148875,72.0,87.0
93,78.16323089375,78.2902469,72.0,86.0
94,78.40516614375,78.556375675,72.0,85.0
95,78.64710139374999,78.96564947291667,72.0,88.0
96,79.13097189375,79.28822980625,68.0,85.0
97,79.37290714375,80.34064814375,65.0,90.0
98,80.34064814375,80.45758351458333,60.0,86.0
99,80.58258339375,80.76605095833332,60.0,86.0
100,80.82451864375,81.31645365208333,72.0,86.0
101,81.30838914374999,83.07854872291666,70.0,86.0
102,85.17935314374999,85.36282070833333,70.0,85.0
103,85.42128839374999,85.58056243333333,75.0,77.0
104,85.66322364375,85.77612676041666,75.0,88.0
105,85.90515889375,86.0321749,75.0,88.0
106,86.14709414375,86.27814240416666,75.0,86.0
107,86.38902939375,86.75596452291666,75.0,90.0
108,86.87289989375,86.99789977291667,75.0,85.0
109,87.11483514375,87.6168507875,75.0,89.0
110,87.84064089374999,88.32451139375,77.0,90.0
111,88.32451139375,88.46160803541666,79.0,85.0
112,88.56644664375,89.03620425416666,79.0,86.0
113,89.05031714375,90.74184776666667,72.0,93.0
114,92.92128114375,93.120877725,72.0,88.0
115,93.16321639374999,93.30636141666666,77.0,86.0
116,93.40515164374999,93.5200708875,72.0,87.0
117,93.64708689375,93.77410289999999,72.0,86.0
118,93.88902214375,94.040231675,72.0,85.0
119,94.13095739375,94.44950547291666,72.0,88.0
120,94.61482789374999,94.77208580624999,68.0,85.0
121,94.85676314375,95.82450414374999,65.0,90.0
122,95.82450414374999,95.94143951458332,60.0,86.0
123,96.06643939374999,96.24990695833333,60.0,86.0
124,96.30837464375,96.80030965208333,72.0,86.0
125,96.79224514375,98.56240472291667,70.0,86.0
126,101.38901489375,101.52611153541666,70.0,84.0
127,101.63095014375,101.77409516666665,70.0,84.0
128,101.87288539375,102.23578826875,70.0,86.0
129,102.35675589374999,102.49183640833333,70.0,85.0
130,102.59869114374999,103.17328736249999,70.0,86.0
131,103.32449689375,103.69344815,63.0,87.0
132,103.80836739374999,103.959576925,67.0,76.0
133,104.05030264375,104.43739904374999,67.0,84.0
134,104.53417314375,107.66320237708332,65.0,89.0
135,139.37284914375,139.5845424875,60.0,88.0
136,139.61478439375,139.73171976458332,65.0,88.0
137,139.85671964374998,139.97567114166665,65.0,85.0
138,140.09865489375,140.21962251875,65.0,86.0
139,140.34059014375,140.46559002291667,65.0,85.0
140,140.58252539375,140.98373468333332,65.0,86.0
141,141.06639589374998,141.20349253541667,65.0,86.0
142,141.30833114375,141.69542754375,65.0,88.0
143,141.79220164375,142.21962058541666,65.0,86.0
144,142.51800739375,142.717603975,60.0,86.0
145,142.75994264374998,143.4555064875,63.0,85.0
146,143.48574839375,145.29623051458333,61.0,81.0
147,147.11477714375,147.314373725,58.0,85.0
148,147.35671239375,147.49380903541666,63.0,84.0
149,147.59864764374998,147.73977653958332,63.0,84.0
150,147.84058289375,147.97767953541666,63.0,84.0
151,148.08251814374998,148.21961478541667,63.0,84.0
152,148.32445339375,148.70550141249998,63.0,86.0
153,148.80832389374999,148.94945278958332,63.0,81.0
154,149.05025914375,149.41719427291665,63.0,85.0
155,149.53412964375,149.97566147499998,65.0,87.0
156,150.25993539375,150.41316105208332,67.0,86.0
157,150.50187064374998,150.98574114375,67.0,77.0
158,150.98574114375,153.16315839375,60.0,86.0
159,154.85670514375,154.9958179125,60.0,83.0
160,155.09864039375,155.21557576458332,65.0,86.0
161,155.34057564375,155.45146263333334,65.0,85.0
162,155.58251089375,155.70347851875,65.0,85.0
163,155.82444614374998,155.94541376875,65.0,86.0
164,156.06638139375,156.39702623541666,65.0,93.0
165,156.55025189375,156.67121951874998,65.0,85.0
166,156.79218714375,157.16315452708332,65.0,85.0
167,157.27605764375,157.62686375625,65.0,85.0
168,158.00186339375,158.15508905208333,72.0,84.0
169,158.24379864374998,158.72766914374998,72.0,83.0
170,158.72766914374998,160.42121589375,70.0,79.0
171,163.32443889375,163.50387420416666,67.0,85.0
172,163.56637414374998,163.7135514208333,67.0,84.0
173,163.80830939375,164.12484134583332,67.0,85.0
174,164.29217989375,164.42322815416665,67.0,80.0
175,164.53411514375,165.22161447916665,67.0,85.0
176,165.25992089374998,165.59056573541665,60.0,86.0
177,165.74379139375,165.8708074,67.0,87.0
178,165.98572664374998,166.46959714374998,68.0,79.0
179,166.46959714374998,168.58854670833333,67.0,84.0
180,170.34056114375,170.5522544875,60.0,88.0
181,170.58249639374998,170.69943176458332,65.0,88.0
182,170.82443164375,170.94338314166666,65.0,85.0
183,171.06636689375,171.18733451875,65.0,86.0
184,171.30830214374998,171.43330202291665,65.0,85.0
185,171.55023739375,171.95144668333333,65.0,86.0
186,172.03410789375,172.17120453541665,65.0,86.0
187,172.27604314375,172.66313954375,65.0,88.0
188,172.75991364375,173.18733258541667,65.0,86.0
189,173.48571939375,173.68531597499998,60.0,86.0
190,173.72765464375,174.42321848749998,63.0,85.0
191,174.45346039375,176.26394251458333,61.0,81.0
192,178.08248914375,178.282085725,58.0,85.0
193,178.32442439374998,178.46152103541667,63.0,84.0
194,178.56635964375,178.70748853958332,63.0,84.0
195,178.80829489375,178.94539153541666,63.0,84.0
196,179.05023014374999,179.18732678541664,63.0,84.0
197,179.29216539375,179.6732134125,63.0,86.0
198,179.77603589375,179.91716478958332,63.0,81.0
199,180.01797114375,180.38490627291665,63.0,85.0
200,180.50184164375,180.943373475,65.0,87.0
201,181.22764739375,181.38087305208333,67.0,86.0
202,181.46958264375,181.95345314374998,67.0,77.0
203,181.95345314374998,184.13087039375,60.0,86.0
204,185.82441714375,185.96352991249998,60.0,83.0
205,186.06635239374998,186.18328776458333,65.0,86.0
206,186.30828764375,186.4191746333333,65.0,85.0
207,186.55022289375,186.67119051875,65.0,85.0
208,186.79215814375,186.91312576874998,65.0,86.0
209,187.03409339375,187.36473823541667,65.0,93.0
210,187.51796389375,187.63893151874998,65.0,85.0
211,187.75989914374998,188.13086652708333,65.0,85.0
212,188.24376964375,188.59457575624998,65.0,85.0
213,188.96957539374998,189.12280105208333,72.0,84.0
214,189.21151064375,189.69538114374998,72.0,83.0
215,189.69538114374998,191.38892789374998,70.0,79.0
216,194.29215089374998,194.47158620416667,67.0,85.0
217,194.53408614375,194.68126342083332,67.0,84.0
218,194.77602139375,195.09255334583332,67.0,85.0
219,195.25989189375,195.39094015416666,67.0,80.0
220,195.50182714374998,196.18932647916665,67.0,85.0
221,196.22763289374998,196.55827773541665,63.0,86.0
222,196.71150339374998,196.8385194,67.0,87.0
223,196.95343864375,197.43730914374999,67.0,79.0
224,197.43730914374999,199.55625870833333,65.0,84.0
225,201.30827314375,201.50786972499998,72.0,88.0
226,201.55020839374998,201.69335341666667,77.0,86.0
227,201.79214364375,201.9070628875,72.0,87.0
228,202.03407889374998,202.1610949,72.0,86.0
229,202.27601414375,202.427223675,72.0,85.0
230,202.51794939375,202.83649747291665,72.0,88.0
231,203.00181989375,203.15907780625,68.0,85.0
232,203.24375514374998,204.21149614375,65.0,90.0
233,204.21149614375,204.32843151458331,60.0,86.0
234,204.45343139374998,204.63689895833332,60.0,86.0
235,204.69536664375,205.18730165208333,72.0,86.0
236,205.17923714375,206.94939672291665,70.0,86.0
237,209.05020114375,209.2336687083333,70.0,85.0
238,209.29213639374998,209.4514104333333,75.0,77.0
239,209.53407164375,209.64697476041667,75.0,88.0
240,209.77600689374998,209.9030229,75.0,88.0
241,210.01794214375,210.14899040416665,75.0,86.0
242,210.25987739375,210.62681252291665,75.0,90.0
243,210.74374789375,210.86874777291666,75.0,85.0
244,210.98568314374998,211.4876987875,75.0,89.0
245,211.71148889375,212.19535939374998,77.0,90.0
246,212.19535939374998,212.33245603541667,79.0,85.0
247,212.43729464375,212.90705225416664,79.0,86.0
248,212.92116514375,214.61269576666666,72.0,93.0
249,216.79212914374997,216.99172572499998,72.0,88.0
250,217.03406439375,217.17720941666664,77.0,86.0
251,217.27599964375,217.3909188875,72.0,87.0
252,217.51793489374998,217.6449509,72.0,86.0
253,217.75987014375,217.911079675,72.0,85.0
254,218.00180539374998,218.32035347291665,72.0,88.0
255,218.48567589375,218.64293380625,68.0,85.0
256,218.72761114374998,219.69535214375,65.0,90.0
257,219.69535214375,219.81228751458332,60.0,86.0
258,219.93728739374998,220.12075495833332,60.0,86.0
259,220.17922264375,220.6711576520833,72.0,86.0
260,220.66309314375,222.43325272291665,70.0,86.0
261,225.25986289374998,225.39695953541664,70.0,84.0
262,225.50179814375,225.64494316666665,70.0,84.0
263,225.74373339374998,226.10663626874998,70.0,86.0
264,226.22760389375,226.3626844083333,70.0,85.0
265,226.46953914374998,227.0441353625,70.0,86.0
266,227.19534489375,227.56429615,63.0,87.0
267,227.67921539374998,227.830424925,67.0,76.0
268,227.92115064375,228.30824704375,67.0,84.0
269,228.40502114375,231.53405037708333,65.0,89.0
270,232.27598514374998,232.47558172499998,72.0,88.0
271,232.51792039375,232.66106541666664,77.0,86.0
272,232.75985564375,232.8747748875,72.0,87.0
273,233.00179089374998,233.1288069,72.0,86.0
274,233.24372614375,233.394935675,72.0,85.0
275,233.48566139374998,233.80420947291665,72.0,88.0
276,233.96953189374997,234.12678980624997,68.0,85.0
277,234.21146714374999,235.17920814374997,65.0,90.0
278,235.17920814374997,235.29614351458332,60.0,86.0
279,235.42114339375,235.60461095833332,60.0,86.0
280,235.66307864375,236.1550136520833,72.0,86.0
281,236.14694914375,237.91710872291665,70.0,86.0
282,240.01791314374998,240.20138070833332,70.0,85.0
283,240.25984839375,240.4191224333333,75.0,77.0
284,240.50178364374997,240.61468676041665,75.0,88.0
285,240.74371889374999,240.87073489999997,75.0,88.0
286,240.98565414375,241.11670240416666,75.0,86.0
287,241.22758939374998,241.59452452291666,75.0,90.0
288,241.71145989374997,241.83645977291664,75.0,85.0
289,241.95339514375,242.4554107875,75.0,89.0
290,242.67920089375,243.16307139375,77.0,90.0
291,243.16307139375,243.30016803541665,79.0,85.0
292,243.40500664375,243.87476425416665,79.0,86.0
293,243.88887714375,245.58040776666667,72.0,93.0
294,247.75984114374998,247.959437725,72.0,88.0
295,248.00177639375,248.14492141666665,77.0,86.0
296,248.24371164374998,248.3586308875,72.0,87.0
297,248.48564689375,248.61266289999998,72.0,86.0
298,248.72758214375,248.87879167499997,72.0,85.0
299,248.96951739374998,249.28806547291666,72.0,88.0
300,249.45338789374998,249.61064580624998,68.0,85.0
301,249.69532314375,250.66306414374998,65.0,90.0
302,250.66306414374998,250.77999951458332,60.0,86.0
303,250.90499939375,251.08846695833333,60.0,86.0
304,251.14693464375,251.63886965208332,72.0,86.0
305,251.63080514375,253.40096472291665,70.0,86.0
306,256.22757489375,256.3646715354167,70.0,84.0
307,256.46951014374997,256.6126551666666,70.0,84.0
308,256.71144539375,257.07434826875,70.0,86.0
309,257.19531589375,257.33039640833334,70.0,85.0
310,257.43725114374996,258.01184736249996,70.0,86.0
311,258.16305689374997,258.53200814999997,63.0,87.0
312,258.64692739375,258.798136925,67.0,76.0
313,258.88886264375,259.27595904375,67.0,84.0
314,259.37273314375,262.5017623770833,65.0,89.0
