,start,end,pitch,velocity
0,0.26008039374999997,0.57459621875,53.0,79.0
1,0.26008039374999997,0.604838125,56.0,81.0
2,0.26008039374999997,0.6088703791666666,60.0,80.0
3,0.74395089375,1.2157246312499999,53.0,81.0
4,1.22782139375,1.3911276874999998,56.0,84.0
5,1.22782139375,1.4435469916666666,60.0,84.0
6,1.22782139375,1.4899179145833332,65.0,84.0
7,1.7116918937499999,2.056449625,56.0,65.0
8,2.67943289375,2.8951584916666664,56.0,82.0
9,0.26008039374999997,2.9395132874999996,41.0,87.0
10,2.19556239375,3.062497039583333,60.0,88.0
11,2.19556239375,3.062497039583333,65.0,86.0
12,3.1633033937499997,3.467738583333333,39.0,85.0
13,3.1633033937499997,3.691528689583333,58.0,83.0
14,3.1633033937499997,3.7157222145833333,63.0,84.0
15,4.13104439375,4.3346732291666665,56.0,83.0
16,4.13104439375,4.647172927083333,61.0,82.0
17,4.61491489375,4.860882397916666,56.0,66.0
18,5.09878539375,5.272172322916666,56.0,81.0
19,5.09878539375,5.512091445833333,61.0,84.0
20,5.09878539375,5.564510749999999,65.0,85.0
21,4.13104439375,5.747978314583333,49.0,88.0
22,6.066526393749999,6.24192945,56.0,78.0
23,6.066526393749999,6.622977468749999,61.0,80.0
24,6.066526393749999,6.637090358333333,65.0,84.0
25,6.5503968937499994,6.818541795833333,56.0,68.0
26,7.0342673937499995,7.26410588125,56.0,86.0
27,7.51813789375,7.772169906249999,56.0,84.0
28,7.0342673937499995,7.8044279395833325,61.0,89.0
29,6.066526393749999,7.814508575,49.0,89.0
30,7.0342673937499995,7.814508575,65.0,87.0
31,8.00200839375,8.487895020833333,65.0,85.0
32,8.00200839375,8.540314324999999,61.0,84.0
33,8.00200839375,8.5524110875,58.0,78.0
34,8.96974939375,9.191523372916667,58.0,84.0
35,8.96974939375,9.249991058333332,61.0,88.0
36,8.96974939375,9.252007185416666,65.0,86.0
37,8.48587889375,9.286281345833332,53.0,74.0
38,8.00200839375,9.413297352083333,46.0,86.0
39,9.93749039375,10.497973722916667,61.0,79.0
40,9.93749039375,10.526199502083333,58.0,76.0
41,10.90523139375,11.098779593749999,58.0,83.0
42,9.93749039375,11.2378923625,46.0,84.0
43,10.42136089375,11.260069760416666,53.0,73.0
44,10.90523139375,11.4072470375,61.0,91.0
45,10.90523139375,11.421359927083333,65.0,88.0
46,11.389101893749999,11.683456447916667,46.0,86.0
47,11.389101893749999,11.689504829166665,58.0,85.0
48,11.872972393749999,12.582649127083332,60.0,85.0
49,12.356842893749999,13.0040196875,55.0,66.0
50,12.840713393749999,13.215713031249999,67.0,75.0
51,12.840713393749999,13.411277358333333,64.0,77.0
52,12.840713393749999,13.453616027083333,60.0,79.0
53,13.324583893749999,14.832646952083332,55.0,72.0
54,13.808454393749999,14.895146891666666,72.0,82.0
55,13.808454393749999,14.919340416666666,64.0,79.0
56,13.808454393749999,14.925388797916666,67.0,71.0
57,13.808454393749999,15.0120822625,60.0,79.0
58,11.872972393749999,15.024179024999999,48.0,85.0
59,15.74393639375,15.987887770833332,60.0,79.0
60,15.74393639375,16.256032672916668,65.0,83.0
61,16.22780689375,16.6088549125,60.0,82.0
62,15.74393639375,16.927402991666664,41.0,87.0
63,16.711677393749998,16.929419118749998,60.0,82.0
64,16.711677393749998,17.024177091666665,65.0,85.0
65,16.711677393749998,17.036273854166666,68.0,79.0
66,17.679418393749998,17.846756941666666,60.0,84.0
67,17.679418393749998,17.961676185416664,65.0,86.0
68,17.679418393749998,18.16328889375,68.0,83.0
69,18.16328889375,19.2580459,60.0,72.0
70,18.647159393749998,19.260062027083332,65.0,88.0
71,18.647159393749998,19.266110408333333,68.0,85.0
72,19.13102989375,19.40320705,48.0,86.0
73,19.61490039375,20.251996552083334,65.0,84.0
74,19.61490039375,20.3104642375,61.0,75.0
75,19.61490039375,20.33062550833333,58.0,74.0
76,20.58264139375,20.864899185416665,58.0,80.0
77,20.09877089375,20.907237854166667,53.0,73.0
78,20.58264139375,21.026189352083332,65.0,86.0
79,20.58264139375,21.040302241666666,61.0,84.0
80,21.55038239375,21.915301395833332,65.0,83.0
81,21.55038239375,21.927398158333332,58.0,76.0
82,21.55038239375,21.947559429166667,61.0,82.0
83,21.06651189375,22.756026389583333,53.0,74.0
84,19.61490039375,22.758042516666666,46.0,85.0
85,22.51812339375,22.963687479166666,61.0,89.0
86,22.51812339375,22.967719733333332,58.0,84.0
87,22.51812339375,22.979816495833333,65.0,88.0
88,23.001993893749997,23.356832260416667,49.0,77.0
89,23.48586439375,23.810460854166667,58.0,74.0
90,23.48586439375,24.133041187499998,63.0,82.0
91,23.969734893749997,24.282234591666665,58.0,78.0
92,24.45360539375,24.70965353333333,58.0,84.0
93,23.48586439375,24.719734168749998,51.0,88.0
94,24.45360539375,24.911266241666667,67.0,79.0
95,24.45360539375,24.915298495833333,63.0,85.0
96,25.42134639375,26.0927167125,67.0,83.0
97,25.42134639375,26.100781220833333,63.0,85.0
98,25.42134639375,26.108845729166664,58.0,79.0
99,26.38908739375,26.919328816666667,67.0,84.0
100,26.38908739375,26.92336107083333,63.0,86.0
101,26.38908739375,26.955619104166665,58.0,84.0
102,27.35682839375,27.967714899999997,60.0,78.0
103,27.35682839375,28.030214839583333,56.0,76.0
104,28.32456939375,28.570536897916664,56.0,84.0
105,27.840698893749998,28.578601406249998,51.0,74.0
106,28.32456939375,28.66327874375,60.0,86.0
107,28.32456939375,28.67537550625,63.0,85.0
108,27.35682839375,28.848762435416663,44.0,85.0
109,28.80843989375,29.048359016666666,56.0,73.0
110,29.292310393749997,29.6491648875,56.0,80.0
111,29.292310393749997,29.798358291666666,60.0,82.0
112,29.292310393749997,29.804406672916667,63.0,79.0
113,30.260051393749997,30.751986402083332,60.0,88.0
114,30.260051393749997,30.751986402083332,63.0,86.0
115,30.260051393749997,30.766099291666666,56.0,88.0
116,30.74392189375,31.14311505625,43.0,83.0
117,31.227792393749997,31.747953181249997,56.0,83.0
118,31.227792393749997,31.798356358333333,53.0,81.0
119,32.19553339375,32.44150089791666,60.0,84.0
120,32.19553339375,32.44553315208333,56.0,84.0
121,32.19553339375,32.449565406249995,53.0,84.0
122,31.71166289375,33.45762894791667,48.0,71.0
123,33.16327439375,33.778193154166665,56.0,85.0
124,33.16327439375,33.8104511875,60.0,85.0
125,34.13101539375,34.15722504583333,53.0,28.0
126,34.13101539375,34.48182150625,56.0,85.0
127,31.227792393749997,34.568514970833334,41.0,88.0
128,33.647144893749996,34.57456335208333,48.0,78.0
129,34.13101539375,34.60077300416666,60.0,85.0
130,34.13101539375,34.72174062916667,65.0,88.0
131,34.61488589375,34.73182126458333,53.0,80.0
132,35.09875639375,35.65520746875,61.0,78.0
133,35.09875639375,35.713675154166665,58.0,78.0
134,36.06649739375,36.31649715208333,58.0,77.0
135,36.06649739375,36.453593793749995,65.0,84.0
136,36.06649739375,36.491900208333334,61.0,84.0
137,35.09875639375,36.69754517083333,46.0,85.0
138,35.582626893749996,36.69956129791667,53.0,71.0
139,37.034238393749995,37.23786722916667,58.0,80.0
140,37.034238393749995,37.59673785,65.0,84.0
141,37.034238393749995,37.6330281375,61.0,84.0
142,37.51810889375,37.81246344791666,58.0,66.0
143,38.00197939375,38.14512441666666,58.0,84.0
144,38.00197939375,38.455607987499995,65.0,85.0
145,38.00197939375,38.48181763958333,61.0,86.0
146,38.48584989375,38.78826895625,58.0,76.0
147,38.969720393749995,39.203591135416666,58.0,84.0
148,38.969720393749995,39.441494131249996,39.0,88.0
149,38.969720393749995,39.560445629166665,63.0,84.0
150,39.45359089375,39.73383255833333,58.0,80.0
151,39.93746139375,40.15721924583333,58.0,84.0
152,39.93746139375,40.475767325,67.0,79.0
153,39.93746139375,40.50399310416667,63.0,85.0
154,40.905202393749995,41.550363060416664,67.0,84.0
155,40.905202393749995,41.562459822916665,63.0,83.0
156,41.38907289375,41.66125005,58.0,65.0
157,41.87294339375,42.034233560416666,51.0,86.0
158,41.87294339375,42.07455610208333,58.0,84.0
159,41.87294339375,42.34068487708333,67.0,81.0
160,41.87294339375,42.366894529166665,63.0,85.0
161,42.35681389375,42.457620247916665,58.0,77.0
162,42.840684393749996,43.378990325,67.0,84.0
163,42.840684393749996,43.38705483333333,64.0,79.0
164,42.840684393749996,43.40519997708333,60.0,83.0
165,43.32455489375,43.9959252125,55.0,64.0
166,43.80842539375,44.36084421458333,67.0,82.0
167,43.80842539375,44.36487646875,64.0,84.0
168,43.80842539375,44.383021612499995,60.0,84.0
169,44.292295893749994,45.00398875416666,55.0,68.0
170,44.776166393749996,45.42939156875,64.0,84.0
171,44.776166393749996,45.44350445833333,60.0,84.0
172,44.776166393749996,45.463665729166664,67.0,79.0
173,45.26003689375,45.66326231041666,55.0,59.0
174,42.840684393749996,45.74390739375,48.0,85.0
175,46.227777893749995,46.49189054166666,43.0,79.0
176,46.46971314375,46.69551937708333,44.0,85.0
177,45.74390739375,46.76809995208333,60.0,85.0
178,46.711648393749996,46.76809995208333,60.0,79.0
179,45.74390739375,46.77213220625,64.0,84.0
180,45.74390739375,46.776164460416666,67.0,84.0
181,46.711648393749996,47.223744672916666,65.0,83.0
182,47.19551889375,47.5765669125,60.0,82.0
183,46.711648393749996,47.89511499166667,41.0,87.0
184,47.67938939375,47.897131118749996,60.0,82.0
185,47.67938939375,47.991889091666664,65.0,85.0
186,47.67938939375,48.003985854166665,68.0,79.0
187,48.64713039375,48.81446894166666,60.0,84.0
188,48.64713039375,48.92938818541666,65.0,86.0
189,48.64713039375,49.13100089375,68.0,83.0
190,49.13100089375,50.2257579,60.0,72.0
191,49.61487139375,50.22777402708333,65.0,88.0
192,49.61487139375,50.23382240833333,68.0,85.0
193,50.098741893749995,50.37091905,48.0,86.0
194,50.58261239375,51.21970855208333,65.0,84.0
195,50.58261239375,51.2781762375,61.0,75.0
196,50.58261239375,51.29833750833333,58.0,74.0
197,51.550353393749994,51.83261118541667,58.0,80.0
198,51.06648289375,51.874949854166665,53.0,73.0
199,51.550353393749994,51.99390135208333,65.0,86.0
200,51.550353393749994,52.008014241666665,61.0,84.0
201,52.51809439375,52.88301339583333,65.0,83.0
202,52.51809439375,52.89511015833333,58.0,76.0
203,52.51809439375,52.915271429166665,61.0,82.0
204,52.034223893749996,53.72373838958333,53.0,74.0
205,50.58261239375,53.72575451666666,46.0,85.0
206,53.485835393749994,53.931399479166664,61.0,89.0
207,53.485835393749994,53.93543173333333,58.0,84.0
208,53.485835393749994,53.94752849583333,65.0,88.0
209,53.969705893749996,54.324544260416666,49.0,77.0
210,54.45357639375,54.77817285416666,58.0,74.0
211,54.45357639375,55.1007531875,63.0,82.0
212,54.93744689375,55.249946591666664,58.0,78.0
213,55.421317393749995,55.67736553333333,58.0,84.0
214,54.45357639375,55.68744616875,51.0,88.0
215,55.421317393749995,55.878978241666665,67.0,79.0
216,55.421317393749995,55.88301049583333,63.0,85.0
217,56.38905839375,57.0604287125,67.0,83.0
218,56.38905839375,57.06849322083333,63.0,85.0
219,56.38905839375,57.076557729166666,58.0,79.0
220,57.356799393749995,57.88704081666666,67.0,84.0
221,57.356799393749995,57.89107307083333,63.0,86.0
222,57.356799393749995,57.923331104166664,58.0,84.0
223,58.32454039375,58.935426899999996,60.0,78.0
224,58.32454039375,58.99792683958333,56.0,76.0
225,59.292281393749995,59.53824889791667,56.0,84.0
226,58.80841089374999,59.54631340625,51.0,74.0
227,59.292281393749995,59.63099074375,60.0,86.0
228,59.292281393749995,59.64308750625,63.0,85.0
229,58.32454039375,59.816474435416666,44.0,85.0
230,59.77615189375,60.016071016666665,56.0,73.0
231,60.26002239375,60.6168768875,56.0,80.0
232,60.26002239375,60.766070291666665,60.0,82.0
233,60.26002239375,60.77211867291666,63.0,79.0
234,61.227763393749996,61.71969840208333,60.0,88.0
235,61.227763393749996,61.71969840208333,63.0,86.0
236,61.227763393749996,61.73381129166666,56.0,88.0
237,61.71163389375,62.110827056249995,43.0,83.0
238,62.19550439375,62.715665181249996,56.0,83.0
239,62.19550439375,62.76606835833333,53.0,81.0
240,63.163245393749996,63.40921289791666,60.0,84.0
241,63.163245393749996,63.41324515208333,56.0,84.0
242,63.163245393749996,63.417277406249994,53.0,84.0
243,62.679374893749994,64.42534094791667,48.0,71.0
244,64.13098639374999,64.74590515416666,56.0,85.0
245,64.13098639374999,64.7781631875,60.0,85.0
246,65.09872739375,65.12493704583333,53.0,28.0
247,65.09872739375,65.44953350624999,56.0,85.0
248,62.19550439375,65.53622697083333,41.0,88.0
249,64.61485689375,65.54227535208334,48.0,78.0
250,65.09872739375,65.56848500416666,60.0,85.0
251,65.09872739375,65.68945262916667,65.0,88.0
252,65.58259789374999,65.69953326458332,53.0,80.0
253,66.06646839375,66.62291946875,61.0,78.0
254,66.06646839375,66.68138715416666,58.0,78.0
255,67.03420939374999,67.28420915208333,58.0,77.0
256,67.03420939374999,67.42130579375,65.0,84.0
257,67.03420939374999,67.45961220833333,61.0,84.0
258,66.06646839375,67.66525717083333,46.0,85.0
259,66.55033889375,67.66727329791667,53.0,71.0
260,68.00195039375,68.20557922916666,58.0,80.0
261,68.00195039375,68.56444985,65.0,84.0
262,68.00195039375,68.6007401375,61.0,84.0
263,68.48582089375,68.78017544791666,58.0,66.0
264,68.96969139375,69.11283641666667,58.0,84.0
265,68.96969139375,69.4233199875,65.0,85.0
266,68.96969139375,69.44952963958333,61.0,86.0
267,69.45356189374999,69.75598095625,58.0,76.0
268,69.93743239375,70.17130313541666,58.0,84.0
269,69.93743239375,70.40920613125,39.0,88.0
270,69.93743239375,70.52815762916666,63.0,84.0
271,70.42130289375,70.70154455833332,58.0,80.0
272,70.90517339374999,71.12493124583332,58.0,84.0
273,70.90517339374999,71.443479325,67.0,79.0
274,70.90517339374999,71.47170510416666,63.0,85.0
275,71.87291439375,72.51807506041666,67.0,84.0
276,71.87291439375,72.53017182291666,63.0,83.0
277,72.35678489375,72.62896205,58.0,65.0
278,72.84065539375,73.00194556041666,51.0,86.0
279,72.84065539375,73.04226810208333,58.0,84.0
280,72.84065539375,73.30839687708333,67.0,81.0
281,72.84065539375,73.33460652916666,63.0,85.0
282,73.32452589374999,73.42533224791666,58.0,77.0
283,73.80839639375,74.0442832625,60.0,79.0
284,73.80839639375,74.346702325,41.0,86.0
285,73.80839639375,74.36081521458333,68.0,77.0
286,73.80839639375,74.4192829,65.0,84.0
287,74.29226689375,74.54831503333332,60.0,73.0
288,74.77613739374999,75.29831430833333,60.0,86.0
289,74.77613739374999,75.33460459583333,65.0,90.0
290,74.77613739374999,75.35274973958333,68.0,84.0
291,75.50194314375,75.63903978541666,60.0,84.0
292,75.26000789375,76.08460387083333,53.0,76.0
293,75.74387839375,76.33863588333332,60.0,86.0
294,75.74387839375,76.36282940833333,68.0,87.0
295,75.74387839375,76.36484553541666,65.0,91.0
296,76.46968414375,76.59065176874999,60.0,80.0
297,76.22774889374999,76.89508695833332,53.0,80.0
298,76.71161939375,76.94549013541666,65.0,95.0
299,76.71161939375,76.96363527916667,60.0,86.0
300,76.71161939375,76.9716997875,68.0,86.0
301,77.19548989375,77.33661878958333,60.0,80.0
302,77.19548989375,77.49589282916666,65.0,85.0
303,77.19548989375,77.6128282,67.0,89.0
304,77.43742514374999,77.64710236041667,60.0,80.0
305,76.95355464375,77.68339264791666,53.0,85.0
306,77.67936039375,77.68339264791666,53.0,95.0
307,77.67936039375,77.83258605208333,60.0,82.0
308,77.67936039375,77.97774720208334,65.0,85.0
309,77.92129564375,78.17734378333333,60.0,83.0
310,78.16323089375,78.31645655208332,65.0,78.0
311,78.64710139374999,78.82452057708333,60.0,87.0
312,78.64710139374999,78.98177848958333,68.0,84.0
313,78.88903664374999,79.13097189375,60.0,73.0
314,79.13097189375,79.34669749166666,65.0,79.0
315,79.37290714375,79.53016505625,60.0,72.0
316,79.61484239375,79.96766463333333,60.0,84.0
317,79.61484239375,80.02008393749999,68.0,79.0
318,80.09871289374999,80.32048687291666,65.0,86.0
319,80.34064814375,80.44145449791667,60.0,78.0
320,80.58258339375,80.77814772083333,60.0,90.0
321,79.61484239375,80.80435737291666,41.0,89.0
322,80.58258339375,80.9878249375,68.0,85.0
323,81.06645389375,81.28621174583333,65.0,88.0
324,81.30838914374999,81.39508260833333,60.0,78.0
325,81.55032439374999,81.82250155,58.0,79.0
326,81.55032439374999,81.8587918375,61.0,83.0
327,82.03419489375,82.34669459166666,61.0,84.0
328,82.27613014375,82.38500100625,58.0,79.0
329,81.79225964375,82.81846832916666,53.0,74.0
330,82.51806539374999,82.83862959999999,65.0,88.0
331,82.51806539374999,82.91725855624999,58.0,86.0
332,81.55032439374999,83.35475813333333,46.0,85.0
333,83.00193589375,83.36887102291666,53.0,79.0
334,83.24387114375,83.41120969166666,58.0,80.0
335,83.48580639375,83.92128984374999,61.0,85.0
336,83.48580639375,83.93540273333333,58.0,77.0
337,84.21161214374999,84.37290231041666,58.0,77.0
338,83.96967689374999,84.71967616875,53.0,79.0
339,84.45354739375,84.73378905833333,68.0,84.0
340,84.45354739375,84.74386969375,61.0,87.0
341,84.45354739375,84.75395032916666,65.0,87.0
342,84.69548264375,84.95354691041666,58.0,84.0
343,83.48580639375,85.10072418749999,46.0,84.0
344,84.93741789375,85.16524025416666,53.0,83.0
345,85.17935314374999,85.32048203958333,58.0,84.0
346,85.42128839374999,85.7418526,58.0,84.0
347,85.42128839374999,85.96564270625,63.0,84.0
348,85.90515889375,86.17128766875,58.0,74.0
349,86.38902939375,86.53620667083332,58.0,85.0
350,85.42128839374999,86.85273862291666,51.0,86.0
351,86.38902939375,86.88499665625,67.0,88.0
352,86.63096464374999,86.92935145208332,58.0,75.0
353,86.87289989375,87.15112543125,63.0,84.0
354,87.11483514375,87.29427045416666,58.0,80.0
355,87.35677039375,87.64709269375,58.0,75.0
356,87.35677039375,87.83660863958333,39.0,83.0
357,87.35677039375,87.8587860375,63.0,83.0
358,87.84064089374999,88.06039874583333,58.0,71.0
359,88.32451139375,88.4878176875,58.0,85.0
360,88.32451139375,88.83257541875,67.0,84.0
361,88.56644664375,88.86080119791666,58.0,75.0
362,88.80838189375,88.97370431458333,63.0,84.0
363,89.05031714375,89.20555892916666,58.0,71.0
364,89.29225239374999,89.58055856666667,56.0,81.0
365,89.29225239374999,89.79628416458333,60.0,83.0
366,89.77612289375,90.08660646458333,56.0,83.0
367,89.53418764375,90.31846107916667,51.0,80.0
368,90.25999339375,90.53217054999999,56.0,84.0
369,90.25999339375,90.66321881041667,63.0,85.0
370,89.29225239374999,90.67934782708333,44.0,84.0
371,90.50192864374999,90.71160586041667,51.0,82.0
372,90.74386389374999,90.89104117083333,56.0,84.0
373,91.22773439375,91.8023306125,56.0,77.0
374,91.22773439375,91.92733049166667,63.0,84.0
375,91.95354014374999,92.25595920625,51.0,78.0
376,92.19547539375,92.46160416875,56.0,86.0
377,91.71160489374999,92.53821699791666,44.0,74.0
378,92.19547539375,92.54426537916666,60.0,88.0
379,92.43741064375,92.61684595416666,51.0,85.0
380,92.19547539375,92.65918462291665,63.0,86.0
381,92.67934589375,92.8426521875,56.0,89.0
382,93.16321639374999,93.45152256666667,53.0,85.0
383,93.16321639374999,93.45757094791666,56.0,84.0
384,93.88902214375,93.94950595625,56.0,66.0
385,93.64708689375,93.98781237083332,60.0,76.0
386,94.13095739375,94.30636045,65.0,91.0
387,93.40515164374999,94.50797315833333,48.0,71.0
388,94.61482789374999,94.75192453541666,60.0,78.0
389,93.16321639374999,94.93135984583333,41.0,86.0
390,94.61482789374999,94.9353921,65.0,80.0
391,94.85676314375,95.23579503541666,60.0,74.0
392,95.09869839375,95.36684329583333,65.0,84.0
393,95.09869839375,95.68337524791666,68.0,75.0
394,95.58256889375,95.91926211666666,60.0,78.0
395,95.82450414374999,95.95958465833333,65.0,80.0
396,95.34063364375,96.28014886458332,48.0,73.0
397,95.09869839375,96.36079394791666,41.0,88.0
398,96.06643939374999,96.59063243541667,68.0,85.0
399,96.06643939374999,96.63297110416666,60.0,85.0
400,96.55030989375,96.64506786666666,65.0,86.0
401,97.03418039374999,97.57853470625,58.0,73.0
402,97.03418039374999,97.7055507125,61.0,79.0
403,98.00192139375,98.11482451041667,58.0,84.0
404,98.00192139375,98.36280814166666,65.0,86.0
405,98.24385664375,98.45958224166667,58.0,76.0
406,98.48579189374999,98.63296917083333,61.0,75.0
407,97.51805089375,98.79022708333333,53.0,80.0
408,97.03418039374999,98.81038835416666,46.0,85.0
409,98.72772714374999,99.04829135,58.0,71.0
410,98.96966239375,99.45353289375,70.0,86.0
411,99.21159764375,99.46764578333332,58.0,78.0
412,99.45353289375,99.63296820416666,61.0,75.0
413,99.69546814374999,99.8103873875,58.0,62.0
414,99.93740339374999,100.52611250208332,61.0,87.0
415,99.93740339374999,100.61683822083333,58.0,79.0
416,98.96966239375,100.70756393958332,46.0,82.0
417,99.93740339374999,100.74990260833333,65.0,86.0
418,100.42127389375,100.79828965833333,53.0,82.0
419,100.90514439374999,101.16724091458333,58.0,80.0
420,100.90514439374999,101.59062760208333,63.0,79.0
421,101.38901489375,101.68135332083332,58.0,72.0
422,101.87288539375,102.03215943333333,58.0,85.0
423,101.87288539375,102.16925607499999,63.0,89.0
424,101.87288539375,102.35877202083333,67.0,89.0
425,102.11482064375,102.41925583333332,58.0,75.0
426,102.35675589374999,102.67328784583333,63.0,76.0
427,100.90514439374999,102.69748137083333,51.0,87.0
428,102.59869114374999,102.74183616666666,58.0,65.0
429,102.84062639375,103.06643262708333,58.0,73.0
430,102.84062639375,103.37490007083333,63.0,84.0
431,102.84062639375,103.59869017708333,67.0,81.0
432,103.32449689375,103.63094821041666,58.0,68.0
433,103.80836739374999,104.02812524583332,58.0,85.0
434,102.84062639375,104.03820588125,51.0,84.0
435,104.29223789375,104.4797377125,58.0,78.0
436,103.80836739374999,104.67126978541665,63.0,88.0
437,104.77610839375,105.42530131458332,65.0,84.0
438,104.77610839375,105.44949483958332,60.0,80.0
439,105.74384939375,105.895058925,60.0,84.0
440,105.74384939375,105.99586527916667,65.0,86.0
441,105.74384939375,106.06642972708333,68.0,83.0
442,105.98578464375,106.25392954583333,60.0,78.0
443,105.25997889374999,106.55634860833332,48.0,72.0
444,106.22771989374999,106.5603808625,65.0,79.0
445,104.77610839375,106.57247762499999,41.0,87.0
446,106.46965514374999,106.60675178541666,60.0,66.0
447,106.71159039375,107.32650915416666,65.0,84.0
448,106.71159039375,107.33457366249999,60.0,79.0
449,107.67933139374999,107.88094410208333,60.0,83.0
450,108.16320189375,108.57852407291666,60.0,80.0
451,107.67933139374999,108.61481436041666,65.0,87.0
452,107.19546089375,108.61884661458333,48.0,70.0
453,106.71159039375,108.62489499583333,41.0,83.0
454,107.67933139374999,108.63295950416666,68.0,84.0
455,108.64707239375,108.80029805208332,60.0,82.0
456,108.64707239375,108.94545920208333,65.0,85.0
457,108.88900764374999,109.14505578333333,60.0,83.0
458,109.13094289374999,109.28416855208333,65.0,78.0
459,109.61481339375,109.79223257708333,60.0,87.0
460,108.64707239375,109.87287766041666,53.0,95.0
461,109.61481339375,109.94949048958333,68.0,84.0
462,109.85674864375,110.09868389374999,60.0,73.0
463,110.09868389374999,110.31440949166667,65.0,79.0
464,110.34061914374999,110.49787705624999,60.0,72.0
465,110.58255439374999,110.93537663333333,60.0,84.0
466,110.58255439374999,110.9877959375,68.0,79.0
467,111.06642489375,111.28819887291667,65.0,86.0
468,111.30836014375,111.40916649791666,60.0,78.0
469,111.55029539374999,111.74585972083332,60.0,90.0
470,110.58255439374999,111.77206937291666,41.0,89.0
471,111.55029539374999,111.9555369375,68.0,85.0
472,112.03416589375,112.25392374583333,65.0,88.0
473,112.27610114375,112.36279460833333,60.0,78.0
474,112.51803639375,112.79021354999999,58.0,79.0
475,112.51803639375,112.8265038375,61.0,83.0
476,113.00190689374999,113.31440659166667,61.0,84.0
477,113.24384214374999,113.35271300625,58.0,79.0
478,112.75997164374999,113.78618032916665,53.0,74.0
479,113.48577739375,113.8063416,65.0,88.0
480,113.48577739375,113.88497055625,58.0,86.0
481,112.51803639375,114.32247013333333,46.0,85.0
482,113.96964789375,114.33658302291666,53.0,79.0
483,114.21158314374999,114.37892169166666,58.0,80.0
484,114.45351839374999,114.88900184375,61.0,85.0
485,114.45351839374999,114.90311473333333,58.0,77.0
486,115.17932414375,115.34061431041665,58.0,77.0
487,114.93738889375,115.68738816874999,53.0,79.0
488,115.42125939374999,115.70150105833332,68.0,84.0
489,115.42125939374999,115.71158169374999,61.0,87.0
490,115.42125939374999,115.72166232916666,65.0,87.0
491,115.66319464374999,115.92125891041665,58.0,84.0
492,114.45351839374999,116.0684361875,46.0,84.0
493,115.90512989375,116.13295225416665,53.0,83.0
494,116.14706514375,116.28819403958333,58.0,84.0
495,116.38900039375,116.7095646,58.0,84.0
496,116.38900039375,116.93335470625,63.0,84.0
497,116.87287089374999,117.13899966874999,58.0,74.0
498,117.35674139375,117.50391867083333,58.0,85.0
499,116.38900039375,117.82045062291667,51.0,86.0
500,117.35674139375,117.85270865624999,67.0,88.0
501,117.59867664375,117.89706345208333,58.0,75.0
502,117.84061189375,118.11883743125,63.0,84.0
503,118.08254714374999,118.26198245416666,58.0,80.0
504,118.32448239374999,118.61480469374999,58.0,75.0
505,118.32448239374999,118.80432063958332,39.0,83.0
506,118.32448239374999,118.82649803749999,63.0,83.0
507,118.80835289375,119.02811074583333,58.0,71.0
508,119.29222339374999,119.45552968749999,58.0,85.0
509,119.29222339374999,119.80028741874999,67.0,84.0
510,119.53415864374999,119.82851319791666,58.0,75.0
511,119.77609389374999,119.94141631458332,63.0,84.0
512,120.01802914375,120.17327092916666,58.0,71.0
513,120.25996439375,120.54827056666666,56.0,81.0
514,120.25996439375,120.76399616458333,60.0,83.0
515,120.74383489374999,121.05431846458333,56.0,83.0
516,120.50189964375,121.28617307916666,51.0,80.0
517,121.22770539375,121.49988255,56.0,84.0
518,121.22770539375,121.63093081041666,63.0,85.0
519,120.25996439375,121.64705982708332,44.0,84.0
520,121.46964064375,121.67931786041666,51.0,82.0
521,121.71157589375,121.85875317083332,56.0,84.0
522,122.19544639374999,122.77004261249999,56.0,77.0
523,122.19544639374999,122.89504249166666,63.0,84.0
524,122.92125214375,123.22367120624999,51.0,78.0
525,123.16318739375,123.42931616874999,56.0,86.0
526,122.67931689375,123.50592899791666,44.0,74.0
527,123.16318739375,123.51197737916667,60.0,88.0
528,123.40512264374999,123.58455795416666,51.0,85.0
529,123.16318739375,123.62689662291666,63.0,86.0
530,123.64705789374999,123.8103641875,56.0,89.0
531,124.13092839375,124.427299075,60.0,81.0
532,124.13092839375,124.63092791041666,64.0,77.0
533,124.61479889374999,124.95552437083333,60.0,84.0
534,124.85673414374999,124.98576627708333,64.0,79.0
535,124.37286364375,125.20149187499999,55.0,69.0
536,125.09866939374999,125.38697556666666,60.0,86.0
537,125.09866939374999,125.42124972708332,64.0,91.0
538,125.09866939374999,125.64503983333333,67.0,85.0
539,124.13092839375,125.91721698958332,48.0,86.0
540,125.34060464375,125.99584594583332,55.0,73.0
541,125.58253989375,126.266006975,60.0,81.0
542,125.82447514374999,126.3748778375,64.0,86.0
543,126.06641039374999,126.66721626458333,72.0,86.0
544,126.55028089375,126.88294186249999,60.0,84.0
545,126.79221614375,126.92528053125,64.0,82.0
546,126.30834564374999,127.136973875,55.0,69.0
547,127.03415139375,127.36479623541666,60.0,87.0
548,127.03415139375,127.39100588749999,64.0,90.0
549,127.27608664374999,127.42326392083332,55.0,71.0
550,126.06641039374999,127.45753808125,48.0,85.0
551,127.03415139375,127.51197351249999,67.0,87.0
552,127.51802189374999,127.92931181875,48.0,81.0
553,128.00189239374998,128.13495678125,60.0,80.0
554,128.00189239374998,128.30027920208332,65.0,85.0
555,128.24382764375,128.55834346875,60.0,84.0
556,128.48576289375,128.75189166875,65.0,78.0
557,128.72769814375,128.83858513333334,60.0,74.0
558,128.96963339375,129.0986655270833,60.0,86.0
559,128.00189239374998,129.17931061041665,53.0,91.0
560,128.96963339375,129.2539073125,65.0,89.0
561,128.96963339375,129.36479430208334,68.0,85.0
562,129.21156864374998,129.4958425625,60.0,78.0
563,129.45350389375,129.69947139791665,65.0,76.0
564,129.69543914374998,129.75995521041665,60.0,68.0
565,129.93737439375,130.20350316875,61.0,81.0
566,129.93737439375,130.39301911458332,65.0,84.0
567,130.66318014375,130.73777684583334,65.0,71.0
568,130.42124489374999,130.74987360833333,61.0,80.0
569,130.17930964375,131.00188949374999,56.0,74.0
570,129.93737439375,131.20955058333334,49.0,86.0
571,130.90511539374998,131.23172798125,61.0,85.0
572,131.14705064375,131.34059884375,56.0,81.0
573,130.90511539374998,131.3829375125,65.0,95.0
574,130.90511539374998,131.4071310375,68.0,85.0
575,131.38898589375,131.56640507708332,49.0,86.0
576,131.87285639375,132.1571303125,58.0,73.0
577,131.87285639375,132.3869688,61.0,84.0
578,132.59866214375,132.70954913333333,61.0,69.0
579,132.35672689375,132.7337426583333,58.0,77.0
580,132.84059739375,133.15914547291666,65.0,90.0
581,133.32446789374998,133.61680632083332,61.0,74.0
582,132.11479164374998,133.64704822708333,53.0,75.0
583,133.08253264375,133.64906435416665,58.0,77.0
584,131.87285639375,133.67930626041667,46.0,85.0
585,133.80833839375,133.90712862083333,61.0,71.0
586,133.56640314375,133.91519312916665,65.0,79.0
587,133.80833839375,133.95349954374998,58.0,55.0
588,133.80833839375,134.53616027083334,70.0,83.0
589,134.29220889375,134.65107951458333,58.0,76.0
590,134.53414414374998,134.65511176875,61.0,74.0
591,134.05027364375,134.90914378124998,53.0,78.0
592,133.80833839375,135.08656296458332,46.0,85.0
593,134.77607939375,135.17325642916666,58.0,86.0
594,135.01801464374998,135.19543382708332,53.0,84.0
595,134.77607939375,135.22769186041666,61.0,91.0
596,134.77607939375,135.3022885625,65.0,93.0
597,135.25994989375,135.5805141,46.0,86.0
598,135.74382039374998,136.04220720208332,60.0,82.0
599,135.74382039374998,136.56236798958332,64.0,79.0
600,136.46962614375,136.70148075833333,60.0,84.0
601,136.71156139375,137.18131900416665,67.0,86.0
602,136.22769089374998,137.44946390625,55.0,70.0
603,137.19543189375,137.52002835416667,64.0,85.0
604,136.95349664375,137.5280928625,60.0,85.0
605,135.74382039374998,137.55430251458333,48.0,86.0
606,137.43736714374998,137.61075407291665,67.0,84.0
607,137.67930239375,138.21155994375,72.0,84.0
608,137.67930239375,138.23373734166665,67.0,74.0
609,137.67930239375,138.24381797708332,64.0,79.0
610,137.67930239375,138.27002762916666,60.0,84.0
611,137.67930239375,138.76801101875,48.0,85.0
612,138.16317289375,138.79220454375,55.0,71.0
613,138.64704339374998,138.895027025,60.0,85.0
614,139.13091389375,139.4514781,60.0,84.0
615,138.64704339374998,139.4514781,64.0,86.0
616,138.64704339374998,139.4514781,67.0,83.0
617,139.61478439375,139.85873577083333,60.0,79.0
618,139.61478439375,140.12688067291666,65.0,83.0
619,140.09865489375,140.4797029125,60.0,82.0
620,139.61478439375,140.79825099166666,41.0,87.0
621,140.58252539375,140.80026711874999,60.0,82.0
622,140.58252539375,140.89502509166667,65.0,85.0
623,140.58252539375,140.90712185416666,68.0,79.0
624,141.55026639374998,141.71760494166665,60.0,84.0
625,141.55026639374998,141.83252418541664,65.0,86.0
626,141.55026639374998,142.03413689375,68.0,83.0
627,142.03413689375,143.12889389999998,60.0,72.0
628,142.51800739375,143.13091002708333,65.0,88.0
629,142.51800739375,143.13695840833333,68.0,85.0
630,143.00187789375,143.27405505,48.0,86.0
631,143.48574839375,144.12284455208334,65.0,84.0
632,143.48574839375,144.18131223749998,61.0,75.0
633,143.48574839375,144.20147350833332,58.0,74.0
634,144.45348939375,144.73574718541667,58.0,80.0
635,143.96961889374998,144.77808585416665,53.0,73.0
636,144.45348939375,144.89703735208332,65.0,86.0
637,144.45348939375,144.91115024166666,61.0,84.0
638,145.42123039375,145.78614939583332,65.0,83.0
639,145.42123039375,145.7982461583333,58.0,76.0
640,145.42123039375,145.81840742916665,61.0,82.0
641,144.93735989375,146.62687438958332,53.0,74.0
642,143.48574839375,146.62889051666667,46.0,85.0
643,146.38897139374998,146.83453547916665,61.0,89.0
644,146.38897139374998,146.83856773333332,58.0,84.0
645,146.38897139374998,146.8506644958333,65.0,88.0
646,146.87284189374998,147.22768026041666,49.0,77.0
647,147.35671239375,147.68130885416667,58.0,74.0
648,147.35671239375,148.0038891875,63.0,82.0
649,147.84058289375,148.15308259166665,58.0,78.0
650,148.32445339375,148.58050153333332,58.0,84.0
651,147.35671239375,148.59058216875,51.0,88.0
652,148.32445339375,148.78211424166665,67.0,79.0
653,148.32445339375,148.78614649583332,63.0,85.0
654,149.29219439374998,149.9635647125,67.0,83.0
655,149.29219439374998,149.97162922083334,63.0,85.0
656,149.29219439374998,149.97969372916666,58.0,79.0
657,150.25993539375,150.79017681666667,67.0,84.0
658,150.25993539375,150.79420907083332,63.0,86.0
659,150.25993539375,150.82646710416665,58.0,84.0
660,151.22767639375,151.8385629,60.0,78.0
661,151.22767639375,151.90106283958332,56.0,76.0
662,152.19541739375,152.44138489791666,56.0,84.0
663,151.71154689374998,152.44944940624998,51.0,74.0
664,152.19541739375,152.53412674375,60.0,86.0
665,152.19541739375,152.54622350625,63.0,85.0
666,151.22767639375,152.71961043541666,44.0,85.0
667,152.67928789375,152.91920701666666,56.0,73.0
668,153.16315839375,153.5200128875,56.0,80.0
669,153.16315839375,153.66920629166665,60.0,82.0
670,153.16315839375,153.67525467291665,63.0,79.0
671,154.13089939374998,154.62283440208333,60.0,88.0
672,154.13089939374998,154.62283440208333,63.0,86.0
673,154.13089939374998,154.63694729166667,56.0,88.0
674,154.61476989374998,155.01396305625,43.0,83.0
675,155.09864039375,155.61880118124998,56.0,83.0
676,155.09864039375,155.66920435833333,53.0,81.0
677,156.06638139375,156.31234889791665,60.0,84.0
678,156.06638139375,156.31638115208332,56.0,84.0
679,156.06638139375,156.32041340625,53.0,84.0
680,155.58251089375,157.32847694791667,48.0,71.0
681,157.03412239374998,157.64904115416667,56.0,85.0
682,157.03412239374998,157.6812991875,60.0,85.0
683,158.00186339375,158.02807304583334,53.0,28.0
684,158.00186339375,158.35266950624998,56.0,85.0
685,155.09864039375,158.43936297083332,41.0,88.0
686,157.51799289375,158.4454113520833,48.0,78.0
687,158.00186339375,158.47162100416665,60.0,85.0
688,158.00186339375,158.59258862916667,65.0,88.0
689,158.48573389375,158.6026692645833,53.0,80.0
690,158.96960439375,159.52605546875,61.0,78.0
691,158.96960439375,159.58452315416665,58.0,78.0
692,159.93734539374998,160.18734515208334,58.0,77.0
693,159.93734539374998,160.32444179375,65.0,84.0
694,159.93734539374998,160.36274820833333,61.0,84.0
695,158.96960439375,160.56839317083333,46.0,85.0
696,159.45347489374998,160.57040929791665,53.0,71.0
697,160.90508639375,161.10871522916665,58.0,80.0
698,160.90508639375,161.46758584999998,65.0,84.0
699,160.90508639375,161.5038761375,61.0,84.0
700,161.38895689375,161.68331144791665,58.0,66.0
701,161.87282739375,162.01597241666667,58.0,84.0
702,161.87282739375,162.3264559875,65.0,85.0
703,161.87282739375,162.35266563958334,61.0,86.0
704,162.35669789374998,162.65911695625,58.0,76.0
705,162.84056839375,163.07443913541667,58.0,84.0
706,162.84056839375,163.31234213124998,39.0,88.0
707,162.84056839375,163.43129362916665,63.0,84.0
708,163.32443889375,163.6046805583333,58.0,80.0
709,163.80830939375,164.0280672458333,58.0,84.0
710,163.80830939375,164.346615325,67.0,79.0
711,163.80830939375,164.37484110416665,63.0,85.0
712,164.77605039374998,165.42121106041665,67.0,84.0
713,164.77605039374998,165.43330782291665,63.0,83.0
714,165.25992089374998,165.53209805,58.0,65.0
715,165.74379139375,165.90508156041665,51.0,86.0
716,165.74379139375,165.94540410208333,58.0,84.0
717,165.74379139375,166.21153287708333,67.0,81.0
718,165.74379139375,166.23774252916667,63.0,85.0
719,166.22766189375,166.32846824791665,58.0,77.0
720,166.71153239375,167.24983832499998,67.0,84.0
721,166.71153239375,167.25790283333333,64.0,79.0
722,166.71153239375,167.27604797708332,60.0,83.0
723,167.19540289374999,167.8667732125,55.0,64.0
724,167.67927339374998,168.23169221458332,67.0,82.0
725,167.67927339374998,168.23572446875,64.0,84.0
726,167.67927339374998,168.25386961249998,60.0,84.0
727,168.16314389375,168.87483675416667,55.0,68.0
728,168.64701439375,169.30023956875,64.0,84.0
729,168.64701439375,169.31435245833333,60.0,84.0
730,168.64701439375,169.33451372916664,67.0,79.0
731,169.13088489375,169.53411031041665,55.0,59.0
732,166.71153239375,169.61475539375,48.0,85.0
733,170.09862589374998,170.36273854166666,43.0,79.0
734,170.34056114375,170.56636737708334,44.0,85.0
735,169.61475539375,170.63894795208333,60.0,85.0
736,170.58249639374998,170.63894795208333,60.0,79.0
737,169.61475539375,170.64298020625,64.0,84.0
738,169.61475539375,170.64701246041665,67.0,84.0
739,170.58249639374998,171.09459267291666,65.0,83.0
740,171.06636689375,171.4474149125,60.0,82.0
741,170.58249639374998,171.76596299166667,41.0,87.0
742,171.55023739375,171.76797911875,60.0,82.0
743,171.55023739375,171.86273709166665,65.0,85.0
744,171.55023739375,171.87483385416667,68.0,79.0
745,172.51797839374998,172.68531694166666,60.0,84.0
746,172.51797839374998,172.80023618541665,65.0,86.0
747,172.51797839374998,173.00184889374998,68.0,83.0
748,173.00184889374998,174.0966059,60.0,72.0
749,173.48571939375,174.09862202708334,65.0,88.0
750,173.48571939375,174.10467040833333,68.0,85.0
751,173.96958989375,174.24176705,48.0,86.0
752,174.45346039375,175.0905565520833,65.0,84.0
753,174.45346039375,175.1490242375,61.0,75.0
754,174.45346039375,175.16918550833333,58.0,74.0
755,175.42120139374998,175.70345918541665,58.0,80.0
756,174.93733089375,175.74579785416665,53.0,73.0
757,175.42120139374998,175.86474935208332,65.0,86.0
758,175.42120139374998,175.87886224166667,61.0,84.0
759,176.38894239375,176.75386139583333,65.0,83.0
760,176.38894239375,176.76595815833332,58.0,76.0
761,176.38894239375,176.78611942916666,61.0,82.0
762,175.90507189374998,177.59458638958333,53.0,74.0
763,174.45346039375,177.59660251666665,46.0,85.0
764,177.35668339375,177.80224747916665,61.0,89.0
765,177.35668339375,177.80627973333333,58.0,84.0
766,177.35668339375,177.81837649583332,65.0,88.0
767,177.84055389374998,178.19539226041667,49.0,77.0
768,178.32442439374998,178.64902085416665,58.0,74.0
769,178.32442439374998,178.9716011875,63.0,82.0
770,178.80829489375,179.12079459166665,58.0,78.0
771,179.29216539375,179.54821353333332,58.0,84.0
772,178.32442439374998,179.55829416875,51.0,88.0
773,179.29216539375,179.74982624166665,67.0,79.0
774,179.29216539375,179.75385849583333,63.0,85.0
775,180.25990639375,180.9312767125,67.0,83.0
776,180.25990639375,180.9393412208333,63.0,85.0
777,180.25990639375,180.94740572916666,58.0,79.0
778,181.22764739375,181.75788881666665,67.0,84.0
779,181.22764739375,181.76192107083332,63.0,86.0
780,181.22764739375,181.79417910416666,58.0,84.0
781,182.19538839375,182.80627489999998,60.0,78.0
782,182.19538839375,182.86877483958332,56.0,76.0
783,183.16312939374998,183.40909689791667,56.0,84.0
784,182.67925889375,183.41716140625,51.0,74.0
785,183.16312939374998,183.50183874375,60.0,86.0
786,183.16312939374998,183.51393550625,63.0,85.0
787,182.19538839375,183.68732243541666,44.0,85.0
788,183.64699989374998,183.88691901666667,56.0,73.0
789,184.13087039375,184.48772488749998,56.0,80.0
790,184.13087039375,184.63691829166666,60.0,82.0
791,184.13087039375,184.64296667291666,63.0,79.0
792,185.09861139375,185.59054640208333,60.0,88.0
793,185.09861139375,185.59054640208333,63.0,86.0
794,185.09861139375,185.60465929166665,56.0,88.0
795,185.58248189374999,185.98167505625,43.0,83.0
796,186.06635239374998,186.58651318124998,56.0,83.0
797,186.06635239374998,186.63691635833334,53.0,81.0
798,187.03409339375,187.28006089791666,60.0,84.0
799,187.03409339375,187.28409315208333,56.0,84.0
800,187.03409339375,187.28812540625,53.0,84.0
801,186.55022289375,188.29618894791665,48.0,71.0
802,188.00183439375,188.61675315416664,56.0,85.0
803,188.00183439375,188.64901118749998,60.0,85.0
804,188.96957539374998,188.99578504583332,53.0,28.0
805,188.96957539374998,189.32038150625,56.0,85.0
806,186.06635239374998,189.40707497083332,41.0,88.0
807,188.48570489374998,189.41312335208332,48.0,78.0
808,188.96957539374998,189.43933300416666,60.0,85.0
809,188.96957539374998,189.56030062916665,65.0,88.0
810,189.45344589375,189.57038126458332,53.0,80.0
811,189.93731639375,190.49376746874998,61.0,78.0
812,189.93731639375,190.55223515416665,58.0,78.0
813,190.90505739374998,191.15505715208332,58.0,77.0
814,190.90505739374998,191.29215379375,65.0,84.0
815,190.90505739374998,191.33046020833334,61.0,84.0
816,189.93731639375,191.5361051708333,46.0,85.0
817,190.42118689375,191.53812129791666,53.0,71.0
818,191.87279839375,192.07642722916665,58.0,80.0
819,191.87279839375,192.43529784999998,65.0,84.0
820,191.87279839375,192.4715881375,61.0,84.0
821,192.35666889375,192.65102344791666,58.0,66.0
822,192.84053939375,192.98368441666665,58.0,84.0
823,192.84053939375,193.2941679875,65.0,85.0
824,192.84053939375,193.3203776395833,61.0,86.0
825,193.32440989375,193.62682895625,58.0,76.0
826,193.80828039374998,194.04215113541665,58.0,84.0
827,193.80828039374998,194.28005413124998,39.0,88.0
828,193.80828039374998,194.39900562916665,63.0,84.0
829,194.29215089374998,194.57239255833332,58.0,80.0
830,194.77602139375,194.99577924583332,58.0,84.0
831,194.77602139375,195.314327325,67.0,79.0
832,194.77602139375,195.34255310416665,63.0,85.0
833,195.74376239375,196.38892306041666,67.0,84.0
834,195.74376239375,196.40101982291665,63.0,83.0
835,196.22763289374998,196.49981004999998,58.0,65.0
836,196.71150339374998,196.87279356041665,51.0,86.0
837,196.71150339374998,196.91311610208334,58.0,84.0
838,196.71150339374998,197.17924487708333,67.0,81.0
839,196.71150339374998,197.20545452916664,63.0,85.0
840,197.19537389375,197.29618024791665,58.0,77.0
841,197.67924439375,197.91513126249998,60.0,79.0
842,197.67924439375,198.217550325,41.0,86.0
843,197.67924439375,198.23166321458334,68.0,77.0
844,197.67924439375,198.29013089999998,65.0,84.0
845,198.16311489375,198.41916303333332,60.0,73.0
846,198.64698539375,199.1691623083333,60.0,86.0
847,198.64698539375,199.20545259583332,65.0,90.0
848,198.64698539375,199.2235977395833,68.0,84.0
849,199.37279114375,199.50988778541665,60.0,84.0
850,199.13085589374998,199.95545187083331,53.0,76.0
851,199.61472639374998,200.20948388333332,60.0,86.0
852,199.61472639374998,200.23367740833334,68.0,87.0
853,199.61472639374998,200.23569353541666,65.0,91.0
854,200.34053214374998,200.46149976875,60.0,80.0
855,200.09859689375,200.76593495833333,53.0,80.0
856,200.58246739375,200.81633813541666,65.0,95.0
857,200.58246739375,200.83448327916665,60.0,86.0
858,200.58246739375,200.8425477875,68.0,86.0
859,201.06633789375,201.20746678958332,60.0,80.0
860,201.06633789375,201.36674082916664,65.0,85.0
861,201.06633789375,201.4836762,67.0,89.0
862,201.30827314375,201.51795036041665,60.0,80.0
863,200.82440264374998,201.55424064791666,53.0,85.0
864,201.55020839374998,201.55424064791666,53.0,95.0
865,201.55020839374998,201.7034340520833,60.0,82.0
866,201.55020839374998,201.84859520208332,65.0,85.0
867,201.79214364375,202.04819178333332,60.0,83.0
868,202.03407889374998,202.18730455208333,65.0,78.0
869,202.51794939375,202.69536857708331,60.0,87.0
870,202.51794939375,202.85262648958332,68.0,84.0
871,202.75988464374998,203.00181989375,60.0,73.0
872,203.00181989375,203.21754549166667,65.0,79.0
873,203.24375514374998,203.40101305624998,60.0,72.0
874,203.48569039375,203.83851263333332,60.0,84.0
875,203.48569039375,203.8909319375,68.0,79.0
876,203.96956089374999,204.19133487291666,65.0,86.0
877,204.21149614375,204.31230249791665,60.0,78.0
878,204.45343139374998,204.6489957208333,60.0,90.0
879,203.48569039375,204.67520537291665,41.0,89.0
880,204.45343139374998,204.8586729375,68.0,85.0
881,204.93730189374998,205.15705974583332,65.0,88.0
882,205.17923714375,205.26593060833332,60.0,78.0
883,205.42117239375,205.69334955,58.0,79.0
884,205.42117239375,205.7296398375,61.0,83.0
885,205.90504289375,206.21754259166664,61.0,84.0
886,206.14697814374998,206.25584900625,58.0,79.0
887,205.66310764374998,206.68931632916664,53.0,74.0
888,206.38891339375,206.70947759999999,65.0,88.0
889,206.38891339375,206.78810655625,58.0,86.0
890,205.42117239375,207.22560613333332,46.0,85.0
891,206.87278389374998,207.23971902291666,53.0,79.0
892,207.11471914375,207.28205769166667,58.0,80.0
893,207.35665439374998,207.79213784375,61.0,85.0
894,207.35665439374998,207.80625073333331,58.0,77.0
895,208.08246014374998,208.24375031041666,58.0,77.0
896,207.84052489375,208.59052416875,53.0,79.0
897,208.32439539375,208.6046370583333,68.0,84.0
898,208.32439539375,208.61471769374998,61.0,87.0
899,208.32439539375,208.62479832916665,65.0,87.0
900,208.56633064374998,208.82439491041666,58.0,84.0
901,207.35665439374998,208.9715721875,46.0,84.0
902,208.80826589375,209.03608825416666,53.0,83.0
903,209.05020114375,209.19133003958333,58.0,84.0
904,209.29213639374998,209.61270059999998,58.0,84.0
905,209.29213639374998,209.83649070624998,63.0,84.0
906,209.77600689374998,210.04213566874998,58.0,74.0
907,210.25987739375,210.40705467083333,58.0,85.0
908,209.29213639374998,210.72358662291666,51.0,86.0
909,210.25987739375,210.75584465625,67.0,88.0
910,210.50181264375,210.80019945208332,58.0,75.0
911,210.74374789375,211.02197343125,63.0,84.0
912,210.98568314374998,211.16511845416665,58.0,80.0
913,211.22761839375,211.51794069374998,58.0,75.0
914,211.22761839375,211.7074566395833,39.0,83.0
915,211.22761839375,211.72963403749998,63.0,83.0
916,211.71148889375,211.93124674583333,58.0,71.0
917,212.19535939374998,212.35866568749998,58.0,85.0
918,212.19535939374998,212.70342341875,67.0,84.0
919,212.43729464375,212.73164919791665,58.0,75.0
920,212.67922989374998,212.84455231458332,63.0,84.0
921,212.92116514375,213.07640692916667,58.0,71.0
922,213.16310039375,213.45140656666666,56.0,81.0
923,213.16310039375,213.66713216458334,60.0,83.0
924,213.64697089375,213.95745446458332,56.0,83.0
925,213.40503564374998,214.18930907916666,51.0,80.0
926,214.13084139375,214.40301854999998,56.0,84.0
927,214.13084139375,214.53406681041665,63.0,85.0
928,213.16310039375,214.55019582708331,44.0,84.0
929,214.37277664375,214.58245386041665,51.0,82.0
930,214.61471189374998,214.7618891708333,56.0,84.0
931,215.09858239374998,215.67317861249998,56.0,77.0
932,215.09858239374998,215.79817849166665,63.0,84.0
933,215.82438814374999,216.12680720625,51.0,78.0
934,216.06632339375,216.33245216875,56.0,86.0
935,215.58245289375,216.40906499791666,44.0,74.0
936,216.06632339375,216.41511337916666,60.0,88.0
937,216.30825864374998,216.48769395416664,51.0,85.0
938,216.06632339375,216.53003262291665,63.0,86.0
939,216.55019389375,216.7135001875,56.0,89.0
940,217.03406439375,217.32237056666665,53.0,85.0
941,217.03406439375,217.32841894791665,56.0,84.0
942,217.75987014375,217.82035395625,56.0,66.0
943,217.51793489374998,217.85866037083332,60.0,76.0
944,218.00180539374998,218.17720845,65.0,91.0
945,217.27599964375,218.37882115833332,48.0,71.0
946,218.48567589375,218.62277253541666,60.0,78.0
947,217.03406439375,218.80220784583332,41.0,86.0
948,218.48567589375,218.8062401,65.0,80.0
949,218.72761114374998,219.10664303541665,60.0,74.0
950,218.96954639375,219.23769129583332,65.0,84.0
951,218.96954639375,219.55422324791667,68.0,75.0
952,219.45341689375,219.79011011666665,60.0,78.0
953,219.69535214375,219.8304326583333,65.0,80.0
954,219.21148164374998,220.15099686458333,48.0,73.0
955,218.96954639375,220.23164194791664,41.0,88.0
956,219.93728739374998,220.46148043541666,68.0,85.0
957,219.93728739374998,220.50381910416667,60.0,85.0
958,220.42115789374998,220.51591586666666,65.0,86.0
959,220.90502839375,221.44938270625,58.0,73.0
960,220.90502839375,221.57639871249998,61.0,79.0
961,221.87276939375,221.98567251041666,58.0,84.0
962,221.87276939375,222.23365614166664,65.0,86.0
963,222.11470464375,222.33043024166665,58.0,76.0
964,222.35663989374999,222.50381717083332,61.0,75.0
965,221.38889889375,222.66107508333332,53.0,80.0
966,220.90502839375,222.68123635416666,46.0,85.0
967,222.59857514375,222.91913935,58.0,71.0
968,222.84051039374998,223.32438089374998,70.0,86.0
969,223.08244564375,223.33849378333332,58.0,78.0
970,223.32438089374998,223.50381620416667,61.0,75.0
971,223.56631614375,223.68123538749998,58.0,62.0
972,223.80825139375,224.39696050208332,61.0,87.0
973,223.80825139375,224.48768622083333,58.0,79.0
974,222.84051039374998,224.57841193958333,46.0,82.0
975,223.80825139375,224.6207506083333,65.0,86.0
976,224.29212189375,224.6691376583333,53.0,82.0
977,224.77599239375,225.0380889145833,58.0,80.0
978,224.77599239375,225.4614756020833,63.0,79.0
979,225.25986289374998,225.55220132083332,58.0,72.0
980,225.74373339374998,225.90300743333333,58.0,85.0
981,225.74373339374998,226.040104075,63.0,89.0
982,225.74373339374998,226.22962002083332,67.0,89.0
983,225.98566864375,226.29010383333332,58.0,75.0
984,226.22760389375,226.54413584583332,63.0,76.0
985,224.77599239375,226.5683293708333,51.0,87.0
986,226.46953914374998,226.61268416666667,58.0,65.0
987,226.71147439375,226.9372806270833,58.0,73.0
988,226.71147439375,227.24574807083332,63.0,84.0
989,226.71147439375,227.4695381770833,67.0,81.0
990,227.19534489375,227.50179621041664,58.0,68.0
991,227.67921539374998,227.89897324583333,58.0,85.0
992,226.71147439375,227.90905388124997,51.0,84.0
993,228.16308589374998,228.3505857125,58.0,78.0
994,227.67921539374998,228.54211778541665,63.0,88.0
995,228.64695639374997,229.29614931458332,65.0,84.0
996,228.64695639374997,229.32034283958333,60.0,80.0
997,229.61469739375,229.765906925,60.0,84.0
998,229.61469739375,229.86671327916665,65.0,86.0
999,229.61469739375,229.9372777270833,68.0,83.0
1000,229.85663264374998,230.12477754583333,60.0,78.0
1001,229.13082689375,230.42719660833333,48.0,72.0
1002,230.09856789375,230.43122886249998,65.0,79.0
1003,228.64695639374997,230.443325625,41.0,87.0
1004,230.34050314375,230.47759978541666,60.0,66.0
1005,230.58243839374998,231.19735715416667,65.0,84.0
1006,230.58243839374998,231.2054216625,60.0,79.0
1007,231.55017939375,231.75179210208333,60.0,83.0
1008,232.03404989375,232.44937207291665,60.0,80.0
1009,231.55017939375,232.48566236041665,65.0,87.0
1010,231.06630889374998,232.48969461458333,48.0,70.0
1011,230.58243839374998,232.49574299583333,41.0,83.0
1012,231.55017939375,232.50380750416664,68.0,84.0
1013,232.51792039375,232.67114605208332,60.0,82.0
1014,232.51792039375,232.81630720208332,65.0,85.0
1015,232.75985564375,233.01590378333333,60.0,83.0
1016,233.00179089374998,233.1550165520833,65.0,78.0
1017,233.48566139374998,233.66308057708332,60.0,87.0
1018,232.51792039375,233.74372566041666,53.0,95.0
1019,233.48566139374998,233.82033848958332,68.0,84.0
1020,233.72759664375,233.96953189374997,60.0,73.0
1021,233.96953189374997,234.18525749166665,65.0,79.0
1022,234.21146714374999,234.36872505624999,60.0,72.0
1023,234.45340239375,234.80622463333333,60.0,84.0
1024,234.45340239375,234.85864393749998,68.0,79.0
1025,234.93727289375,235.15904687291666,65.0,86.0
1026,235.17920814374997,235.28001449791665,60.0,78.0
1027,235.42114339375,235.61670772083332,60.0,90.0
1028,234.45340239375,235.64291737291666,41.0,89.0
1029,235.42114339375,235.8263849375,68.0,85.0
1030,235.90501389374998,236.12477174583333,65.0,88.0
1031,236.14694914375,236.23364260833333,60.0,78.0
1032,236.38888439374998,236.66106155,58.0,79.0
1033,236.38888439374998,236.69735183749998,61.0,83.0
1034,236.87275489375,237.18525459166665,61.0,84.0
1035,237.11469014374998,237.22356100624998,58.0,79.0
1036,236.63081964375,237.65702832916665,53.0,74.0
1037,237.35662539375,237.6771896,65.0,88.0
1038,237.35662539375,237.75581855624998,58.0,86.0
1039,236.38888439374998,238.19331813333332,46.0,85.0
1040,237.84049589375,238.20743102291667,53.0,79.0
1041,238.08243114375,238.24976969166664,58.0,80.0
1042,238.32436639374998,238.75984984374998,61.0,85.0
1043,238.32436639374998,238.77396273333332,58.0,77.0
1044,239.05017214375,239.21146231041666,58.0,77.0
1045,238.80823689374998,239.55823616875,53.0,79.0
1046,239.29210739375,239.57234905833332,68.0,84.0
1047,239.29210739375,239.58242969375,61.0,87.0
1048,239.29210739375,239.59251032916666,65.0,87.0
1049,239.53404264374998,239.79210691041666,58.0,84.0
1050,238.32436639374998,239.9392841875,46.0,84.0
1051,239.77597789375,240.00380025416666,53.0,83.0
1052,240.01791314374998,240.1590420395833,58.0,84.0
1053,240.25984839375,240.5804126,58.0,84.0
1054,240.25984839375,240.80420270624998,63.0,84.0
1055,240.74371889374999,241.00984766874998,58.0,74.0
1056,241.22758939374998,241.3747666708333,58.0,85.0
1057,240.25984839375,241.69129862291666,51.0,86.0
1058,241.22758939374998,241.72355665625,67.0,88.0
1059,241.46952464375,241.76791145208333,58.0,75.0
1060,241.71145989374997,241.98968543125,63.0,84.0
1061,241.95339514375,242.13283045416665,58.0,80.0
1062,242.19533039375,242.48565269374998,58.0,75.0
1063,242.19533039375,242.67516863958332,39.0,83.0
1064,242.19533039375,242.69734603749998,63.0,83.0
1065,242.67920089375,242.8989587458333,58.0,71.0
1066,243.16307139375,243.32637768749998,58.0,85.0
1067,243.16307139375,243.67113541875,67.0,84.0
1068,243.40500664375,243.69936119791666,58.0,75.0
1069,243.64694189374998,243.81226431458333,63.0,84.0
1070,243.88887714375,244.04411892916664,58.0,71.0
1071,244.13081239374998,244.41911856666664,56.0,81.0
1072,244.13081239374998,244.6348441645833,60.0,83.0
1073,244.61468289375,244.92516646458333,56.0,83.0
1074,244.37274764375,245.15702107916664,51.0,80.0
1075,245.09855339375,245.37073055,56.0,84.0
1076,245.09855339375,245.50177881041665,63.0,85.0
1077,244.13081239374998,245.51790782708332,44.0,84.0
1078,245.34048864374998,245.55016586041666,51.0,82.0
1079,245.58242389375,245.72960117083332,56.0,84.0
1080,246.06629439374998,246.6408906125,56.0,77.0
1081,246.06629439374998,246.76589049166665,63.0,84.0
1082,246.79210014375,247.09451920625,51.0,78.0
1083,247.03403539374997,247.30016416874997,56.0,86.0
1084,246.55016489374998,247.37677699791666,44.0,74.0
1085,247.03403539374997,247.38282537916666,60.0,88.0
1086,247.27597064375,247.45540595416665,51.0,85.0
1087,247.03403539374997,247.49774462291666,63.0,86.0
1088,247.51790589375,247.6812121875,56.0,89.0
1089,248.00177639375,248.29008256666665,53.0,85.0
1090,248.00177639375,248.29613094791665,56.0,84.0
1091,248.72758214375,248.78806595625,56.0,66.0
1092,248.48564689375,248.82637237083333,60.0,76.0
1093,248.96951739374998,249.14492045,65.0,91.0
1094,248.24371164374998,249.34653315833333,48.0,71.0
1095,249.45338789374998,249.59048453541666,60.0,78.0
1096,248.00177639375,249.76991984583333,41.0,86.0
1097,249.45338789374998,249.77395209999997,65.0,80.0
1098,249.69532314375,250.07435503541666,60.0,74.0
1099,249.93725839375,250.20540329583332,65.0,84.0
1100,249.93725839375,250.52193524791664,68.0,75.0
1101,250.42112889375,250.75782211666666,60.0,78.0
1102,250.66306414374998,250.7981446583333,65.0,80.0
1103,250.17919364374998,251.1187088645833,48.0,73.0
1104,249.93725839375,251.19935394791665,41.0,88.0
1105,250.90499939375,251.42919243541667,68.0,85.0
1106,250.90499939375,251.47153110416664,60.0,85.0
1107,251.38886989374998,251.48362786666667,65.0,86.0
1108,251.87274039374998,252.41709470625,58.0,73.0
1109,251.87274039374998,252.5441107125,61.0,79.0
1110,252.84048139375,252.95338451041664,58.0,84.0
1111,252.84048139375,253.20136814166665,65.0,86.0
1112,253.08241664374998,253.29814224166665,58.0,76.0
1113,253.32435189375,253.47152917083332,61.0,75.0
1114,252.35661089374997,253.62878708333332,53.0,80.0
1115,251.87274039374998,253.64894835416666,46.0,85.0
1116,253.56628714374997,253.88685135,58.0,71.0
1117,253.80822239375,254.29209289374998,70.0,86.0
1118,254.05015764375,254.30620578333333,58.0,78.0
1119,254.29209289374998,254.47152820416665,61.0,75.0
1120,254.53402814375,254.6489473875,58.0,62.0
1121,254.77596339374998,255.36467250208332,61.0,87.0
1122,254.77596339374998,255.45539822083333,58.0,79.0
1123,253.80822239375,255.5461239395833,46.0,82.0
1124,254.77596339374998,255.58846260833332,65.0,86.0
1125,255.25983389375,255.63684965833332,53.0,82.0
1126,255.74370439375,256.00580091458335,58.0,80.0
1127,255.74370439375,256.42918760208335,63.0,79.0
1128,256.22757489375,256.5199133208333,58.0,72.0
1129,256.71144539375,256.8707194333333,58.0,85.0
1130,256.71144539375,257.007816075,63.0,89.0
1131,256.71144539375,257.1973320208333,67.0,89.0
1132,256.95338064375,257.2578158333333,58.0,75.0
1133,257.19531589375,257.5118478458333,63.0,76.0
1134,255.74370439375,257.53604137083335,51.0,87.0
1135,257.43725114374996,257.5803961666667,58.0,65.0
1136,257.67918639375,257.90499262708335,58.0,73.0
1137,257.67918639375,258.2134600708333,63.0,84.0
1138,257.67918639375,258.43725017708334,67.0,81.0
1139,258.16305689374997,258.4695082104167,58.0,68.0
1140,258.64692739375,258.8666852458333,58.0,85.0
1141,257.67918639375,258.87676588125,51.0,84.0
1142,259.13079789375,259.3182977125,58.0,78.0
1143,258.64692739375,259.5098297854166,63.0,88.0
1144,259.61466839375,260.2638613145833,65.0,84.0
1145,259.61466839375,260.2880548395833,60.0,80.0
1146,260.58240939374997,260.733618925,60.0,84.0
1147,260.58240939374997,260.8344252791667,65.0,86.0
1148,260.58240939374997,260.9049897270833,68.0,83.0
1149,260.82434464375,261.0924895458333,60.0,78.0
1150,260.09853889375,261.3949086083333,48.0,72.0
1151,261.06627989375,261.3989408625,65.0,79.0
1152,259.61466839375,261.411037625,41.0,87.0
1153,261.30821514375,261.44531178541666,60.0,66.0
1154,261.55015039374996,262.16506915416664,65.0,84.0
1155,261.55015039374996,262.1731336625,60.0,79.0
1156,262.51789139375,262.7195041020833,60.0,83.0
1157,263.00176189375,263.4170840729167,60.0,80.0
1158,262.51789139375,263.45337436041666,65.0,87.0
1159,262.03402089375,263.4574066145833,48.0,70.0
1160,261.55015039374996,263.46345499583333,41.0,83.0
1161,262.51789139375,263.4715195041667,68.0,84.0
1162,263.48563239375,263.6388580520833,60.0,82.0
1163,263.48563239375,263.7840192020833,65.0,85.0
1164,263.72756764375,263.98361578333333,60.0,83.0
1165,263.96950289374996,264.12272855208334,65.0,78.0
1166,264.45337339375,264.6307925770833,60.0,87.0
1167,263.48563239375,264.71143766041666,53.0,95.0
1168,264.45337339375,264.7880504895833,68.0,84.0
1169,264.69530864374997,264.93724389375,60.0,73.0
1170,264.93724389375,265.1529694916666,65.0,79.0
1171,265.17917914375,265.33643705624996,60.0,72.0
1172,265.42111439375,265.77393663333334,60.0,84.0
1173,265.42111439375,265.8263559375,68.0,79.0
1174,265.90498489375,266.12675887291664,65.0,86.0
1175,266.14692014375,266.24772649791663,60.0,78.0
1176,266.38885539374996,266.5844197208333,60.0,90.0
1177,265.42111439375,266.61062937291666,41.0,89.0
1178,266.38885539374996,266.7940969375,68.0,85.0
1179,266.87272589375,267.0924837458333,65.0,88.0
1180,267.11466114374997,267.2013546083333,60.0,78.0
1181,267.35659639375,267.62877355,58.0,79.0
1182,267.35659639375,267.6650638375,61.0,83.0
1183,267.84046689375,268.15296659166665,61.0,84.0
1184,268.08240214374996,268.19127300624996,58.0,79.0
1185,267.59853164375,268.6247403291666,53.0,74.0
1186,268.32433739375,268.64490159999997,65.0,88.0
1187,268.32433739375,268.72353055625,58.0,86.0
1188,267.35659639375,269.1610301333333,46.0,85.0
1189,268.80820789374997,269.17514302291664,53.0,79.0
1190,269.05014314375,269.21748169166665,58.0,80.0
1191,269.29207839375,269.72756184375,61.0,85.0
1192,269.29207839375,269.7416747333333,58.0,77.0
1193,270.01788414375,270.17917431041667,58.0,77.0
1194,269.77594889375,270.52594816875,53.0,79.0
1195,270.25981939375,270.5400610583333,68.0,84.0
1196,270.25981939375,270.55014169375,61.0,87.0
1197,270.25981939375,270.56022232916666,65.0,87.0
1198,270.50175464374996,270.75981891041664,58.0,84.0
1199,269.29207839375,270.9069961875,46.0,84.0
1200,270.74368989375,270.97151225416667,53.0,83.0
1201,270.98562514375,271.1267540395833,58.0,84.0
1202,271.22756039374997,271.5481246,58.0,84.0
1203,271.22756039374997,271.77191470624996,63.0,84.0
1204,271.71143089375,271.97755966874996,58.0,74.0
1205,272.19530139374996,272.3424786708333,58.0,85.0
1206,271.22756039374997,272.65901062291664,51.0,86.0
1207,272.19530139374996,272.69126865625,67.0,88.0
1208,272.43723664375,272.7356234520833,58.0,75.0
1209,272.67917189375,272.95739743125,63.0,84.0
1210,272.92110714374996,273.10054245416666,58.0,80.0
1211,273.16304239375,273.45336469374996,58.0,75.0
1212,273.16304239375,273.6428806395833,39.0,83.0
1213,273.16304239375,273.6650580375,63.0,83.0
1214,273.64691289374997,273.86667074583335,58.0,71.0
1215,274.13078339375,274.2940896875,58.0,85.0
1216,274.13078339375,274.63884741875,67.0,84.0
1217,274.37271864375,274.66707319791664,58.0,75.0
1218,274.61465389374996,274.77997631458334,63.0,84.0
1219,274.85658914375,275.01183092916665,58.0,71.0
1220,275.09852439375,275.3868305666667,56.0,81.0
1221,275.09852439375,275.6025561645833,60.0,83.0
1222,275.58239489375,275.8928784645833,56.0,83.0
1223,275.34045964374997,276.1247330791667,51.0,80.0
1224,276.06626539375,276.33844254999997,56.0,84.0
1225,276.06626539375,276.46949081041663,63.0,85.0
1226,275.09852439375,276.4856198270833,44.0,84.0
1227,276.30820064375,276.51787786041666,51.0,82.0
1228,276.55013589375,276.6973131708333,56.0,84.0
1229,277.03400639374996,277.60860261249996,56.0,77.0
1230,277.03400639374996,277.73360249166666,63.0,84.0
1231,277.75981214374997,278.06223120625,51.0,78.0
1232,278.00174739375,278.26787616875,56.0,86.0
1233,277.51787689375,278.34448899791664,44.0,74.0
1234,278.00174739375,278.35053737916667,60.0,88.0
1235,278.24368264375,278.4231179541666,51.0,85.0
1236,278.00174739375,278.46545662291663,63.0,86.0
1237,278.48561789375,278.6489241875,56.0,89.0
1238,278.96948839375,279.25779456666663,53.0,85.0
1239,278.96948839375,279.26384294791666,56.0,84.0
1240,279.69529414375,279.75577795625,56.0,66.0
1241,279.45335889374996,279.79408437083333,60.0,76.0
1242,279.93722939375,280.11263245,65.0,91.0
1243,279.21142364375,280.31424515833334,48.0,71.0
1244,280.42109989375,280.55819653541664,60.0,78.0
1245,278.96948839375,280.73763184583333,41.0,86.0
1246,280.42109989375,280.7416641,65.0,80.0
1247,280.66303514375,281.04206703541666,60.0,74.0
1248,280.90497039375,281.1731152958333,65.0,84.0
1249,280.90497039375,281.48964724791665,68.0,75.0
1250,281.38884089375,281.72553411666667,60.0,78.0
1251,281.63077614375,281.7658566583333,65.0,80.0
1252,281.14690564374996,282.0864208645833,48.0,73.0
1253,280.90497039375,282.1670659479166,41.0,88.0
1254,281.87271139374997,282.3969044354167,68.0,85.0
1255,281.87271139374997,282.4392431041667,60.0,85.0
1256,282.35658189375,282.4513398666667,65.0,86.0
1257,282.84045239375,283.38480670625,58.0,73.0
1258,282.84045239375,283.51182271249996,61.0,79.0
1259,283.80819339375,283.92109651041665,58.0,84.0
1260,283.80819339375,284.16908014166665,65.0,86.0
1261,284.05012864375,284.26585424166666,58.0,76.0
1262,284.29206389374997,284.4392411708333,61.0,75.0
1263,283.32432289375,284.5964990833333,53.0,80.0
1264,282.84045239375,284.61666035416664,46.0,85.0
1265,284.53399914375,284.85456335,58.0,71.0
1266,284.77593439375,285.25980489374996,70.0,86.0
1267,285.01786964375,285.27391778333333,58.0,78.0
1268,285.25980489374996,285.43924020416665,61.0,75.0
1269,285.50174014375,285.61665938749996,58.0,62.0
1270,285.74367539375,286.3323845020833,61.0,87.0
1271,285.74367539375,286.42311022083334,58.0,79.0
1272,284.77593439375,286.5138359395833,46.0,82.0
1273,285.74367539375,286.5561746083333,65.0,86.0
1274,286.22754589375,286.6045616583333,53.0,82.0
1275,286.71141639374997,286.9735129145833,58.0,80.0
1276,286.71141639374997,287.3968996020833,63.0,79.0
1277,287.19528689375,287.48762532083333,58.0,72.0
1278,287.67915739374996,287.8384314333333,58.0,85.0
1279,287.67915739374996,287.975528075,63.0,89.0
1280,287.67915739374996,288.1650440208333,67.0,89.0
1281,287.92109264375,288.22552783333333,58.0,75.0
1282,288.16302789375,288.4795598458333,63.0,76.0
1283,286.71141639374997,288.5037533708333,51.0,87.0
1284,288.40496314374997,288.5481081666667,58.0,65.0
1285,288.64689839375,288.8727046270833,58.0,73.0
1286,288.64689839375,289.1811720708333,63.0,84.0
1287,288.64689839375,289.4049621770833,67.0,81.0
1288,289.13076889375,289.4372202104166,58.0,68.0
1289,289.61463939375,289.8343972458333,58.0,85.0
1290,288.64689839375,289.84447788125,51.0,84.0
1291,290.09850989374996,290.2860097125,58.0,78.0
1292,289.61463939375,290.47754178541663,63.0,88.0
1293,290.58238039375,291.23157331458333,65.0,84.0
1294,290.58238039375,291.2557668395833,60.0,80.0
1295,291.55012139375,291.701330925,60.0,84.0
1296,291.55012139375,291.80213727916663,65.0,86.0
1297,291.55012139375,291.8727017270833,68.0,83.0
1298,291.79205664374996,292.0602015458333,60.0,78.0
1299,291.06625089375,292.3626206083333,48.0,72.0
1300,292.03399189375,292.36665286249996,65.0,79.0
1301,290.58238039375,292.378749625,41.0,87.0
1302,292.27592714375,292.41302378541667,60.0,66.0
1303,292.51786239374997,293.13278115416665,65.0,84.0
1304,292.51786239374997,293.1408456625,60.0,79.0
1305,293.48560339375,293.6872161020833,60.0,83.0
1306,293.96947389375,294.38479607291663,60.0,80.0
1307,293.48560339375,294.42108636041667,65.0,87.0
1308,293.00173289375,294.4251186145833,48.0,70.0
1309,292.51786239374997,294.43116699583334,41.0,83.0
1310,293.48560339375,294.4392315041666,68.0,84.0
1311,294.45334439375,294.6065700520833,60.0,82.0
1312,294.45334439375,294.7517312020833,65.0,85.0
1313,294.69527964375,294.95132778333334,60.0,83.0
1314,294.93721489374997,295.0904405520833,65.0,78.0
1315,295.42108539375,295.5985045770833,60.0,87.0
1316,294.45334439375,295.67914966041667,53.0,95.0
1317,295.42108539375,295.75576248958333,68.0,84.0
1318,295.66302064375,295.90495589374996,60.0,73.0
1319,295.90495589374996,296.12068149166663,65.0,79.0
1320,296.14689114375,296.30414905624997,60.0,72.0
1321,296.38882639375,296.74164863333334,60.0,84.0
1322,296.38882639375,296.79406793749996,68.0,79.0
1323,296.87269689375,297.09447087291665,65.0,86.0
1324,297.11463214375,297.21543849791664,60.0,78.0
1325,297.35656739374997,297.5521317208333,60.0,90.0
1326,296.38882639375,297.57834137291667,41.0,89.0
1327,297.35656739374997,297.7618089375,68.0,85.0
1328,297.84043789375,298.0601957458333,65.0,88.0
1329,298.08237314375,298.1690666083333,60.0,78.0
1330,298.32430839374996,298.59648555,58.0,79.0
1331,298.32430839374996,298.6327758375,61.0,83.0
1332,298.80817889375,299.12067859166666,61.0,84.0
1333,299.05011414374997,299.15898500624996,58.0,79.0
1334,298.56624364375,299.59245232916663,53.0,74.0
1335,299.29204939375,299.6126136,65.0,88.0
1336,299.29204939375,299.69124255624996,58.0,86.0
1337,298.32430839374996,300.12874213333333,46.0,85.0
1338,299.77591989375,300.14285502291665,53.0,79.0
1339,300.01785514375,300.18519369166665,58.0,80.0
1340,300.25979039375,300.69527384375,61.0,85.0
1341,300.25979039375,300.7093867333333,58.0,77.0
1342,300.98559614375,301.1468863104167,58.0,77.0
1343,300.74366089374996,301.49366016875,53.0,79.0
1344,301.22753139375,301.5077730583333,68.0,84.0
1345,301.22753139375,301.51785369375,61.0,87.0
1346,301.22753139375,301.52793432916667,65.0,87.0
1347,301.46946664374997,301.72753091041665,58.0,84.0
1348,300.25979039375,301.8747081875,46.0,84.0
1349,301.71140189375,301.9392242541667,53.0,83.0
1350,301.95333714375,302.0944660395833,58.0,84.0
1351,302.19527239375,302.5158366,58.0,84.0
1352,302.19527239375,302.73962670624996,63.0,84.0
1353,302.67914289375,302.94527166874997,58.0,74.0
1354,303.16301339374996,303.3101906708333,58.0,85.0
1355,302.19527239375,303.62672262291665,51.0,86.0
1356,303.16301339374996,303.65898065625,67.0,88.0
1357,303.40494864375,303.7033354520833,58.0,75.0
1358,303.64688389375,303.92510943125,63.0,84.0
1359,303.88881914374997,304.06825445416666,58.0,80.0
1360,304.13075439375,304.42107669374997,58.0,75.0
1361,304.13075439375,304.61059263958333,39.0,83.0
1362,304.13075439375,304.6327700375,63.0,83.0
1363,304.61462489375,304.8343827458333,58.0,71.0
1364,305.09849539375,305.2618016875,58.0,85.0
1365,305.09849539375,305.60655941875,67.0,84.0
1366,305.34043064375,305.63478519791664,58.0,75.0
1367,305.58236589374997,305.74768831458334,63.0,84.0
1368,305.82430114375,305.97954292916666,58.0,71.0
1369,306.06623639375,306.3545425666666,56.0,81.0
1370,306.06623639375,306.5702681645833,60.0,83.0
1371,306.55010689374996,306.8605904645833,56.0,83.0
1372,306.30817164375,307.0924450791666,51.0,80.0
1373,307.03397739375,307.30615455,56.0,84.0
1374,307.03397739375,307.43720281041664,63.0,85.0
1375,306.06623639375,307.45333182708333,44.0,84.0
1376,307.27591264374996,307.48558986041667,51.0,82.0
1377,307.51784789375,307.6650251708333,56.0,84.0
1378,308.00171839374997,308.57631461249997,56.0,77.0
1379,308.00171839374997,308.70131449166666,63.0,84.0
1380,308.72752414375,309.02994320625,51.0,78.0
1381,308.96945939374996,309.23558816875,56.0,86.0
1382,308.48558889375,309.31220099791665,44.0,74.0
1383,308.96945939374996,309.3182493791667,60.0,88.0
1384,309.21139464375,309.39082995416663,51.0,85.0
1385,308.96945939374996,309.43316862291664,63.0,86.0
1386,309.45332989375,309.6166361875,56.0,89.0
1387,309.93720039375,310.22550656666664,53.0,85.0
1388,309.93720039375,310.23155494791666,56.0,84.0
1389,310.66300614375,310.72348995625,56.0,66.0
1390,310.42107089374997,310.76179637083334,60.0,76.0
1391,310.90494139375,311.08034445,65.0,91.0
1392,310.17913564375,311.28195715833334,48.0,71.0
1393,311.38881189374996,311.52590853541665,60.0,78.0
1394,309.93720039375,311.70534384583334,41.0,86.0
1395,311.38881189374996,311.7093761,65.0,80.0
1396,311.63074714375,312.00977903541667,60.0,74.0
1397,311.87268239375,312.14082729583333,65.0,84.0
1398,311.87268239375,312.45735924791666,68.0,75.0
1399,312.35655289375,312.69324611666667,60.0,78.0
1400,312.59848814375,312.7335686583333,65.0,80.0
1401,312.11461764374997,313.0541328645833,48.0,73.0
1402,311.87268239375,313.13477794791663,41.0,88.0
1403,312.84042339375,313.3646164354166,68.0,85.0
1404,312.84042339375,313.4069551041666,60.0,85.0
1405,313.32429389375,313.4190518666667,65.0,86.0
1406,313.80816439374996,314.35251870625,58.0,73.0
1407,313.80816439374996,314.47953471249997,61.0,79.0
1408,314.77590539375,314.88880851041665,58.0,84.0
1409,314.77590539375,315.13679214166666,65.0,86.0
1410,315.01784064375,315.23356624166667,58.0,76.0
1411,315.25977589375,315.40695317083333,61.0,75.0
1412,314.29203489375,315.5642110833333,53.0,80.0
1413,313.80816439374996,315.58437235416665,46.0,85.0
1414,315.50171114374996,315.82227535,58.0,71.0
1415,315.74364639375,316.22751689374996,70.0,86.0
1416,315.98558164375,316.24162978333334,58.0,78.0
1417,316.22751689374996,316.40695220416666,61.0,75.0
1418,316.46945214375,316.58437138749997,58.0,62.0
1419,316.71138739375,317.3000965020833,61.0,87.0
1420,316.71138739375,317.39082222083334,58.0,79.0
1421,315.74364639375,317.4815479395833,46.0,82.0
1422,316.71138739375,317.5238866083333,65.0,86.0
1423,317.19525789375,317.5722736583333,53.0,82.0
1424,317.67912839375,317.9412249145833,58.0,80.0
1425,317.67912839375,318.3646116020833,63.0,79.0
1426,318.16299889375,318.45533732083334,58.0,72.0
1427,318.64686939374997,318.8061434333333,58.0,85.0
1428,318.64686939374997,318.943240075,63.0,89.0
1429,318.64686939374997,319.1327560208333,67.0,89.0
1430,318.88880464375,319.19323983333334,58.0,75.0
1431,319.13073989375,319.4472718458333,63.0,76.0
1432,317.67912839375,319.4714653708333,51.0,87.0
1433,319.37267514375,319.51582016666663,58.0,65.0
1434,319.61461039374996,319.8404166270833,58.0,73.0
1435,319.61461039374996,320.14888407083333,63.0,84.0
1436,319.61461039374996,320.3726741770833,67.0,81.0
1437,320.09848089375,320.40493221041663,58.0,68.0
1438,320.58235139375,320.8021092458333,58.0,85.0
1439,319.61461039374996,320.81218988125,51.0,84.0
1440,321.06622189374997,321.2537217125,58.0,78.0
1441,320.58235139375,321.44525378541664,63.0,88.0
1442,321.55009239375,322.2617852541666,56.0,84.0
1443,321.55009239375,322.43315605624997,53.0,85.0
1444,322.51783339375,322.7416235,60.0,86.0
1445,322.51783339375,322.80815569375,56.0,86.0
1446,323.00170389375,323.44121959791664,48.0,67.0
1447,321.55009239375,323.46541312291663,41.0,88.0
1448,323.48557439374997,323.96742876666667,65.0,80.0
1449,323.48557439374997,323.98154165625,56.0,83.0
1450,323.48557439374997,324.0097674354167,60.0,81.0
1451,323.96944489375,324.30008973541663,53.0,54.0
1452,324.45331539374996,324.6428313395833,53.0,73.0
1453,324.45331539374996,324.6811377541666,60.0,85.0
1454,324.45331539374996,324.68315388125,65.0,86.0
1455,324.45331539374996,324.70533127916667,56.0,89.0
1456,324.93718589375,325.25976622708333,63.0,85.0
1457,324.93718589375,325.2960565145833,51.0,84.0
1458,325.42105639375,325.53395951041665,37.0,84.0
1459,325.42105639375,325.7033141854167,49.0,87.0
1460,325.42105639375,325.82024955624996,61.0,86.0
1461,326.38879739375,326.8807324020833,61.0,78.0
1462,326.38879739375,326.88678078333334,68.0,76.0
1463,326.38879739375,326.88879691041666,65.0,84.0
1464,326.87266789374996,327.6408123125,56.0,61.0
1465,327.35653839375,327.9996829333333,68.0,79.0
1466,327.35653839375,328.15492471875,65.0,85.0
1467,325.90492689375,328.1650053541666,49.0,85.0
1468,327.35653839375,328.1650053541666,61.0,80.0
1469,328.32427939375,328.62468232916666,49.0,89.0
1470,328.32427939375,328.6468597270833,73.0,84.0
1471,328.32427939375,328.6710532520833,61.0,86.0
1472,328.80814989375,329.12669797291665,72.0,84.0
1473,328.80814989375,329.1670205145833,48.0,86.0
1474,328.80814989375,329.1670205145833,60.0,87.0
1475,329.29202039374997,329.6932296833333,70.0,81.0
1476,329.29202039374997,329.77387476666667,58.0,85.0
1477,329.77589089375,330.5400030583333,53.0,67.0
1478,330.25976139374995,330.5803256,58.0,80.0
1479,330.25976139374995,330.7214544958333,61.0,84.0
1480,330.25976139374995,330.7516964020833,65.0,86.0
1481,330.74363189375,331.3625829083333,53.0,73.0
1482,331.22750239375,331.65693746249997,65.0,80.0
1483,331.22750239375,331.66096971666667,58.0,74.0
1484,331.22750239375,331.67911486041663,61.0,71.0
1485,329.29202039374997,332.39282384791665,46.0,84.0
1486,331.71137289374997,332.4391947708333,53.0,76.0
1487,332.19524339375,332.4936302020833,58.0,84.0
1488,332.19524339375,332.4956463291667,61.0,86.0
1489,332.19524339375,332.5379849979166,65.0,85.0
1490,332.67911389374996,333.02992000625,46.0,86.0
1491,333.16298439375,333.66500003749996,64.0,75.0
1492,333.16298439375,333.8726611270833,67.0,78.0
1493,333.16298439375,333.9815319895833,60.0,83.0
1494,333.64685489375,334.06016094583333,55.0,84.0
1495,334.13072539374997,334.71540224791664,64.0,85.0
1496,334.13072539374997,334.78999895,67.0,82.0
1497,334.13072539374997,334.89080530416663,60.0,85.0
1498,334.61459589375,335.14080506249996,55.0,70.0
1499,333.16298439375,335.21136951041666,48.0,85.0
1500,335.09846639374996,335.29604684791667,60.0,83.0
1501,335.09846639374996,335.6811271208333,72.0,83.0
1502,335.09846639374996,335.77588509375,64.0,83.0
1503,335.09846639374996,335.8424172875,67.0,82.0
1504,335.58233689375,335.95128815,60.0,71.0
1505,336.06620739375,336.22346530625,64.0,85.0
1506,336.06620739375,336.23556206874997,67.0,84.0
1507,336.06620739375,336.24161045,72.0,85.0
1508,336.06620739375,336.30411038958334,60.0,84.0
1509,337.0742709354166,337.27185138958333,41.0,90.0
1510,337.0783031895833,337.79604443125,65.0,82.0
1511,337.0722548083333,337.83233471874996,68.0,80.0
1512,338.0218506645833,338.1670118145833,65.0,76.0
1513,338.15693117916663,338.30209232916667,67.0,71.0
1514,338.3444309979167,338.57023723124996,68.0,73.0
1515,338.5480598333333,338.69523711041666,72.0,66.0
1516,338.70935,338.88273692916664,77.0,77.0
1517,338.9190272166666,339.01781744375,79.0,79.0
1518,339.17507535625,339.4008815895833,80.0,69.0
1519,339.3948332083333,339.5581395020833,84.0,72.0
1520,337.86862500625,340.8585414708333,60.0,73.0
1521,337.61257686666664,340.87870274166664,53.0,85.0
