,start,end,pitch,velocity
0,16.88655421875,17.032217656249998,68.0,97.0
1,17.13626296875,17.315220906249998,71.0,75.0
2,17.38597171875,17.773020281249998,73.0,97.0
3,17.88538921875,18.033133562499998,71.0,81.0
4,18.13509796875,18.245386,68.0,77.0
5,18.38480671875,18.69694265625,68.0,96.0
6,18.88422421875,19.036130375,71.0,82.0
7,19.13393296875,20.1972760625,73.0,96.0
8,20.63218546875,20.77784890625,73.0,102.0
9,20.88189421875,21.02547675,73.0,122.0
10,21.13160296875,21.25645734375,75.0,122.0
11,21.38131171875,21.793331156249998,76.0,127.0
12,21.880729218749998,22.02431175,75.0,127.0
13,22.130437968749998,22.26361596875,73.0,107.0
14,22.380146718749998,22.713091718749997,75.0,112.0
15,22.879564218749998,23.2187519375,71.0,117.0
16,23.378981718749998,24.908447812499997,68.0,112.0
17,25.126942968749997,25.28717275,68.0,100.0
18,25.376651718749997,25.58890415625,73.0,127.0
19,25.626360468749997,25.801156593749997,73.0,117.0
20,26.125777968749997,26.233985093749997,73.0,127.0
21,26.375486718749997,26.573172812499998,73.0,122.0
22,26.625195468749997,27.060104874999997,73.0,107.0
23,27.374321718749997,27.51166153125,71.0,102.0
24,27.624030468749996,27.792583875,71.0,107.0
25,28.123447968749996,28.264949593749996,71.0,95.0
26,28.37315671875,28.753962562499996,73.0,112.0
27,28.87257421875,29.23049009375,71.0,112.0
28,29.37199171875,30.589321875,68.0,112.0
29,32.867914218749995,33.001092218749996,68.0,102.0
30,33.11762296875,33.259124593749995,71.0,93.0
31,33.367331718749995,33.71276215625,73.0,100.0
32,33.866749218749995,34.01657446875,71.0,92.0
33,34.11645796875,34.237150531249995,68.0,97.0
34,34.366166718749994,34.697030812499996,68.0,100.0
35,34.865584218749994,35.017490374999994,71.0,95.0
36,35.11529296875,35.958059999999996,73.0,102.0
37,36.61354546875,36.73007621875,73.0,112.0
38,36.86325421875,36.98810859375,73.0,100.0
39,37.11296296875,37.233655531249994,75.0,112.0
40,37.36267171875,37.668564937499994,76.0,89.0
41,37.86208921875,38.043128062499996,75.0,122.0
42,38.11179796875,38.2512186875,73.0,102.0
43,38.36150671875,38.596649125,75.0,112.0
44,38.86092421875,39.239649156249996,71.0,122.0
45,39.36034171875,40.35085309375,68.0,102.0
46,40.85859421875,41.01258128125,68.0,112.0
47,41.108302968749996,41.258128218749995,66.0,86.0
48,41.35801171875,41.74089846875,68.0,100.0
49,41.85742921875,42.086328906249996,61.0,107.0
50,42.107137968749996,42.46713475,64.0,93.0
51,42.606555468749995,42.72308621875,64.0,76.0
52,42.85626421875,42.993604031249994,64.0,71.0
53,43.105972968749995,43.241231875,66.0,75.0
54,43.35568171875,43.66365584375,68.0,102.0
55,43.85509921875,43.994519937499994,73.0,117.0
56,44.104807968749995,44.33370765625,68.0,100.0
57,44.604225468749995,45.14109928125,66.0,96.0
58,45.35335171875,45.68213490625,64.0,93.0
59,45.85276921875,46.173228781249996,64.0,97.0
60,46.35218671875,46.6580799375,63.0,93.0
61,46.85160421875,47.078422999999994,64.0,99.0
62,47.101312968749994,47.35518353125,63.0,99.0
63,47.35102171875,48.339452187499994,61.0,92.0
64,50.84694421875,50.992607656249994,68.0,97.0
65,51.09665296875,51.275610906249995,71.0,75.0
66,51.346361718749996,51.733410281249995,73.0,97.0
67,51.845779218749996,51.993523562499995,71.0,81.0
68,52.09548796875,52.20577599999999,68.0,77.0
69,52.345196718749996,52.65733265625,68.0,96.0
70,52.844614218749996,52.996520374999996,71.0,82.0
71,53.09432296875,54.1576660625,73.0,96.0
72,54.59257546875,54.73823890625,73.0,102.0
73,54.842284218749995,54.98586675,73.0,122.0
74,55.09199296875,55.21684734375,75.0,122.0
75,55.341701718749995,55.753721156249995,76.0,127.0
76,55.841119218749995,55.98470175,75.0,127.0
77,56.09082796875,56.22400596875,73.0,107.0
78,56.340536718749995,56.67348171875,75.0,112.0
79,56.839954218749995,57.1791419375,71.0,117.0
80,57.339371718749994,58.8688378125,68.0,112.0
81,59.08733296875,59.24756274999999,68.0,100.0
82,59.337041718749994,59.54929415625,73.0,127.0
83,59.58675046875,59.76154659375,73.0,117.0
84,60.08616796875,60.19437509375,73.0,127.0
85,60.335876718749994,60.533562812499994,73.0,122.0
86,60.58558546875,61.020494875,73.0,107.0
87,61.33471171874999,61.472051531249996,71.0,102.0
88,61.58442046875,61.752973874999995,71.0,107.0
89,62.08383796875,62.22533959374999,71.0,95.0
90,62.33354671874999,62.7143525625,73.0,112.0
91,62.83296421874999,63.190880093749996,71.0,112.0
92,63.33238171874999,64.549711875,68.0,112.0
93,66.82830421874999,66.96148221874999,68.0,102.0
94,67.07801296875,67.21951459374999,71.0,93.0
95,67.32772171875,67.67315215625,73.0,100.0
96,67.82713921874999,67.97696446875,71.0,92.0
97,68.07684796875,68.19754053125,68.0,97.0
98,68.32655671875,68.65742081249999,68.0,100.0
99,68.82597421874999,68.977880375,71.0,95.0
100,69.07568296875,69.91844999999999,73.0,102.0
101,70.57393546875,70.69046621874999,73.0,112.0
102,70.82364421874999,70.94849859374999,73.0,100.0
103,71.07335296875,71.19404553125,75.0,112.0
104,71.32306171875,71.6289549375,76.0,89.0
105,71.82247921874999,72.00351806249999,75.0,122.0
106,72.07218796875,72.21160868749999,73.0,102.0
107,72.32189671875,72.55703912499999,75.0,112.0
108,72.82131421874999,73.20003915625,71.0,122.0
109,73.32073171875,74.31124309375,68.0,102.0
110,74.81898421874999,74.97297128125,68.0,112.0
111,75.06869296875,75.21851821874999,66.0,86.0
112,75.31840171875,75.70128846875,68.0,100.0
113,75.81781921874999,76.04671890624999,61.0,107.0
114,76.06752796875,76.42752474999999,64.0,93.0
115,76.56694546874999,76.68347621874999,64.0,76.0
116,76.81665421874999,76.95399403124999,64.0,71.0
117,77.06636296875,77.201621875,66.0,75.0
118,77.31607171875,77.62404584375,68.0,102.0
119,77.81548921874999,77.95490993749999,73.0,117.0
120,78.06519796875,78.29409765624999,68.0,100.0
121,78.56461546874999,79.10148928125,66.0,96.0
122,79.31374171875,79.64252490624999,64.0,93.0
123,79.81315921874999,80.13361878125,64.0,97.0
124,80.31257671875,80.6184699375,63.0,93.0
125,80.81199421874999,81.03881299999999,64.0,99.0
126,81.06170296875,81.31557353125,63.0,99.0
127,81.31141171875,82.29984218749999,61.0,92.0
128,83.55879046874999,83.64410762499999,66.0,117.0
129,83.80849921875,83.91046362499999,66.0,112.0
130,84.05820796875,84.14144421875,66.0,117.0
131,84.30791671875,84.6304571875,66.0,127.0
132,84.80733421875,84.8968131875,66.0,97.0
133,85.05704296875,85.708366625,68.0,117.0
134,85.80616921875,86.057958875,66.0,107.0
135,86.55529546874999,86.88199775,64.0,107.0
136,87.05471296875,87.21078093749999,66.0,112.0
137,87.30442171874999,87.59158678124999,68.0,122.0
138,87.80383921875,87.93285540625,73.0,127.0
139,88.05354796875,88.4426774375,71.0,117.0
140,88.55296546874999,88.8838295625,68.0,127.0
141,89.05238296875,89.2667163125,66.0,112.0
142,89.30209171874999,90.09283609375,68.0,127.0
143,91.54947046874999,91.64103034374999,73.0,93.0
144,91.79917921875,91.89490090624999,73.0,99.0
145,92.04888796875,92.14460965625,73.0,112.0
146,92.29859671874999,92.60032812499999,73.0,117.0
147,92.79801421875,92.916625875,73.0,112.0
148,93.04772296875,93.490956,75.0,127.0
149,93.79684921875,94.24424406249999,75.0,122.0
150,94.29626671874999,94.50851915624999,73.0,117.0
151,94.54597546874999,95.0599593125,73.0,127.0
152,95.29510171874999,96.24815678124999,71.0,127.0
153,98.54131546875,98.6141471875,73.0,117.0
154,98.79102421875,98.91171678124999,73.0,122.0
155,99.04073296874999,99.14477828125,75.0,122.0
156,99.29044171874999,99.617144,76.0,127.0
157,99.78985921875,100.0957524375,76.0,127.0
158,100.28927671874999,100.59725084374999,76.0,127.0
159,100.78869421875,100.91354859375,76.0,127.0
160,101.28811171874999,102.29735124999999,75.0,127.0
161,102.53665546875,102.613649,75.0,127.0
162,102.78636421875,102.92370403125,75.0,127.0
163,103.03607296874999,103.23583996875,76.0,102.0
164,103.28578171874999,103.56462315625,78.0,127.0
165,103.78519921875,104.10565878125,78.0,122.0
166,104.28461671874999,104.65501803125,78.0,127.0
167,104.78403421875,105.24599540624999,75.0,127.0
168,105.28345171874999,105.93269446874999,73.0,127.0
169,106.53199546875,106.62979806249999,73.0,127.0
170,106.78170421875,106.90863949999999,73.0,127.0
171,107.03141296874999,107.15626734374999,75.0,127.0
172,107.28112171874999,107.6203094375,76.0,127.0
173,107.78053921875,107.90331268749999,69.0,102.0
174,108.03024796874999,108.55671724999999,69.0,122.0
175,109.02908296874999,109.25590174999999,76.0,127.0
176,109.27879171874999,109.62422215625,75.0,112.0
177,109.77820921874999,110.1423678125,75.0,127.0
178,110.27762671874999,110.5710345,73.0,127.0
179,110.77704421874999,111.13496009375,73.0,127.0
180,111.27646171875,112.00894071875,71.0,127.0
181,114.52267546875,114.59550718749999,73.0,117.0
182,114.77238421874999,114.89307678124999,73.0,122.0
183,115.02209296874999,115.12613828125,75.0,122.0
184,115.27180171875,115.59850399999999,76.0,127.0
185,115.77121921874999,116.07711243749999,76.0,127.0
186,116.27063671875,116.57861084375,76.0,127.0
187,116.77005421874999,116.89490859374999,76.0,127.0
188,117.26947171875,118.27871124999999,75.0,127.0
189,118.51801546875,118.59500899999999,75.0,127.0
190,118.76772421874999,118.90506403124999,75.0,127.0
191,119.01743296874999,119.21719996875,76.0,102.0
192,119.26714171875,119.54598315624999,78.0,127.0
193,119.76655921874999,120.08701878125,78.0,122.0
194,120.26597671875,120.63637803124999,78.0,127.0
195,120.76539421874999,121.22735540625,75.0,127.0
196,121.26481171875,121.91405446875,73.0,127.0
197,122.51335546874999,122.6111580625,73.0,127.0
198,122.76306421874999,122.88999949999999,73.0,127.0
199,123.01277296874999,123.13762734375,75.0,127.0
200,123.26248171875,123.6016694375,76.0,127.0
201,123.76189921874999,123.88467268749999,69.0,102.0
202,124.01160796874998,124.53807724999999,69.0,122.0
203,125.01044296874998,125.23726174999999,76.0,127.0
204,125.26015171875,125.60558215625,75.0,112.0
205,125.75956921874999,126.1237278125,75.0,127.0
206,126.25898671875,126.8645304375,76.0,127.0
207,127.00811296875,127.6136566875,75.0,117.0
208,127.75723921874999,129.90265356249998,73.0,122.0
209,154.72578421875,154.87144765624998,68.0,97.0
210,154.97549296875,155.15445090625,71.0,75.0
211,155.22520171875,155.61225028125,73.0,97.0
212,155.72461921874998,155.8723635625,71.0,81.0
213,155.97432796874998,156.08461599999998,68.0,77.0
214,156.22403671875,156.53617265625,68.0,96.0
215,156.72345421875,156.87536037499999,71.0,82.0
216,156.97316296875,158.0365060625,73.0,96.0
217,158.47141546875,158.61707890625,73.0,102.0
218,158.72112421875,158.86470674999998,73.0,122.0
219,158.97083296875,159.09568734375,75.0,122.0
220,159.22054171874998,159.63256115624998,76.0,127.0
221,159.71995921874998,159.86354175,75.0,127.0
222,159.96966796875,160.10284596875,73.0,107.0
223,160.21937671875,160.55232171875,75.0,112.0
224,160.71879421875,161.0579819375,71.0,117.0
225,161.21821171874998,162.7476778125,68.0,112.0
226,162.96617296875,163.12640274999998,68.0,100.0
227,163.21588171874998,163.42813415625,73.0,127.0
228,163.46559046874998,163.64038659374998,73.0,117.0
229,163.96500796875,164.07321509374998,73.0,127.0
230,164.21471671875,164.41240281249998,73.0,122.0
231,164.46442546875,164.899334875,73.0,107.0
232,165.21355171874998,165.35089153125,71.0,102.0
233,165.46326046874998,165.63181387499998,71.0,107.0
234,165.96267796875,166.10417959375,71.0,95.0
235,166.21238671875,166.59319256249998,73.0,112.0
236,166.71180421875,167.06972009375,71.0,112.0
237,167.21122171874998,168.42855187499998,68.0,112.0
238,170.70714421875,170.84032221874998,68.0,102.0
239,170.95685296874998,171.09835459374997,71.0,93.0
240,171.20656171874998,171.55199215624998,73.0,100.0
241,171.70597921875,171.85580446875,71.0,92.0
242,171.95568796875,172.07638053124998,68.0,97.0
243,172.20539671875,172.5362608125,68.0,100.0
244,172.70481421875,172.85672037499998,71.0,95.0
245,172.95452296874998,173.79728999999998,73.0,102.0
246,174.45277546875,174.56930621875,73.0,112.0
247,174.70248421875,174.82733859375,73.0,100.0
248,174.95219296874998,175.07288553125,75.0,112.0
249,175.20190171874998,175.5077949375,76.0,89.0
250,175.70131921875,175.88235806249997,75.0,122.0
251,175.95102796875,176.0904486875,73.0,102.0
252,176.20073671875,176.43587912499999,75.0,112.0
253,176.70015421875,177.07887915625,71.0,122.0
254,177.19957171874998,178.19008309375,68.0,102.0
255,178.69782421875,178.85181128124998,68.0,112.0
256,178.94753296874998,179.09735821874997,66.0,86.0
257,179.19724171874998,179.58012846875,68.0,100.0
258,179.69665921875,179.92555890625,61.0,107.0
259,179.94636796875,180.30636475,64.0,93.0
260,180.44578546875,180.56231621875,64.0,76.0
261,180.69549421874999,180.83283403124997,64.0,71.0
262,180.94520296874998,181.080461875,66.0,75.0
263,181.19491171874998,181.50288584375,68.0,102.0
264,181.69432921875,181.8337499375,73.0,117.0
265,181.94403796875,182.17293765624999,68.0,100.0
266,182.44345546875,182.98032928125,66.0,96.0
267,183.19258171874998,183.52136490625,64.0,93.0
268,183.69199921875,184.01245878125,64.0,97.0
269,184.19141671875,184.49730993749998,63.0,93.0
270,184.69083421874998,184.917653,64.0,99.0
271,184.94054296874998,185.19441353124998,63.0,99.0
272,185.19025171874998,186.1786821875,61.0,92.0
273,187.43763046875,187.522947625,66.0,117.0
274,187.68733921875,187.78930362499997,66.0,112.0
275,187.93704796875,188.02028421875,66.0,117.0
276,188.18675671875,188.50929718749998,66.0,127.0
277,188.68617421874998,188.77565318749998,66.0,97.0
278,188.93588296874998,189.587206625,68.0,117.0
279,189.68500921875,189.936798875,66.0,107.0
280,190.43413546875,190.76083774999998,64.0,107.0
281,190.93355296874998,191.08962093749997,66.0,112.0
282,191.18326171874997,191.47042678124998,68.0,122.0
283,191.68267921875,191.81169540624998,73.0,127.0
284,191.93238796875,192.32151743749998,71.0,117.0
285,192.43180546874999,192.76266956249998,68.0,127.0
286,192.93122296874998,193.1455563125,66.0,112.0
287,193.18093171874997,193.97167609374998,68.0,127.0
288,195.42831046875,195.51987034375,73.0,93.0
289,195.67801921875,195.77374090625,73.0,99.0
290,195.92772796875,196.02344965625,73.0,112.0
291,196.17743671875,196.47916812499997,73.0,117.0
292,196.67685421874998,196.795465875,73.0,112.0
293,196.92656296874998,197.36979599999998,75.0,127.0
294,197.67568921875,198.1230840625,75.0,122.0
295,198.17510671875,198.38735915625,73.0,117.0
296,198.42481546874998,198.93879931249998,73.0,127.0
297,199.17394171874997,200.12699678125,71.0,127.0
298,202.42015546874998,202.49298718749998,73.0,117.0
299,202.66986421874998,202.79055678125,73.0,122.0
300,202.91957296874997,203.02361828124998,75.0,122.0
301,203.16928171875,203.495984,76.0,127.0
302,203.66869921875,203.97459243749998,76.0,127.0
303,204.16811671874999,204.47609084374997,76.0,127.0
304,204.66753421874998,204.79238859375,76.0,127.0
305,205.16695171875,206.17619125,75.0,127.0
306,206.41549546874998,206.49248899999998,75.0,127.0
307,206.66520421874998,206.80254403125,75.0,127.0
308,206.91491296874997,207.11467996874998,76.0,102.0
309,207.16462171875,207.44346315624998,78.0,127.0
310,207.66403921875,207.98449878124998,78.0,122.0
311,208.16345671874998,208.53385803125,78.0,127.0
312,208.66287421874998,209.12483540624999,75.0,127.0
313,209.16229171875,209.81153446874998,73.0,127.0
314,210.41083546874998,210.50863806249998,73.0,127.0
315,210.66054421874998,210.7874795,73.0,127.0
316,210.91025296874997,211.03510734374998,75.0,127.0
317,211.15996171875,211.4991494375,76.0,127.0
318,211.65937921875,211.78215268749997,69.0,102.0
319,211.90908796875,212.43555725,69.0,122.0
320,212.90792296874997,213.13474175,76.0,127.0
321,213.15763171875,213.50306215625,75.0,112.0
322,213.65704921875,214.0212078125,75.0,127.0
323,214.15646671874998,214.4498745,73.0,127.0
324,214.65588421874997,215.01380009374998,73.0,127.0
325,215.15530171875,215.88778071874998,71.0,127.0
326,216.40384546874998,216.60153156249999,68.0,117.0
327,216.65355421874997,216.80754128125,71.0,112.0
328,216.90326296875,218.13099765624997,72.0,127.0
329,218.40151546874998,218.47434718749997,73.0,117.0
330,218.65122421874997,218.77191678124998,73.0,122.0
331,218.90093296875,219.00497828124998,75.0,122.0
332,219.15064171875,219.477344,76.0,127.0
333,219.65005921875,219.95595243749997,76.0,127.0
334,220.14947671874998,220.45745084375,76.0,127.0
335,220.64889421874997,220.77374859374999,76.0,127.0
336,221.14831171875,222.15755124999998,75.0,127.0
337,222.39685546874998,222.47384899999997,75.0,127.0
338,222.64656421874997,222.78390403125,75.0,127.0
339,222.89627296875,223.09603996874998,76.0,102.0
340,223.14598171875,223.42482315624997,78.0,127.0
341,223.64539921875,223.96585878124998,78.0,122.0
342,224.14481671874998,224.51521803125,78.0,127.0
343,224.64423421874997,225.10619540624998,75.0,127.0
344,225.14365171875,225.79289446874998,73.0,127.0
345,226.39219546874997,226.48999806249998,73.0,127.0
346,226.64190421874997,226.76883949999998,73.0,127.0
347,226.89161296875,227.01646734374998,75.0,127.0
348,227.14132171875,227.4805094375,76.0,127.0
349,227.64073921874999,227.7635126875,69.0,102.0
350,227.89044796874998,228.41691724999998,69.0,122.0
351,228.88928296875,229.11610174999998,76.0,127.0
352,229.13899171875,229.48442215625,75.0,112.0
353,229.63840921874998,230.0025678125,75.0,127.0
354,230.13782671874998,230.74337043749998,76.0,127.0
355,230.88695296875,231.4924966875,75.0,117.0
356,231.63607921874998,233.78149356249997,73.0,122.0
357,234.38287546874997,234.4557071875,73.0,117.0
358,234.63258421875,234.75327678124998,73.0,122.0
359,234.88229296875,234.98633828124997,75.0,122.0
360,235.13200171875,235.45870399999998,76.0,127.0
361,235.63141921874998,235.9373124375,76.0,127.0
362,236.13083671874998,236.43881084375,76.0,127.0
363,236.63025421875,236.75510859374998,76.0,127.0
364,236.87996296875,237.88920249999998,75.0,127.0
365,238.37821546874997,238.455209,75.0,127.0
366,238.62792421875,238.76526403124998,75.0,127.0
367,238.87763296875,239.07739996874997,76.0,102.0
368,239.12734171875,239.40618315625,78.0,127.0
369,239.62675921874998,239.94721878124997,78.0,122.0
370,240.12617671874997,240.49657803124998,78.0,127.0
371,240.62559421875,240.85657481249999,75.0,127.0
372,240.87530296875,241.52454571874998,73.0,127.0
373,242.37355546874997,242.47135806249997,73.0,127.0
374,242.62326421875,242.75019949999998,73.0,127.0
375,242.87297296875,242.99782734374998,75.0,127.0
376,243.12268171875,243.46186943749998,76.0,127.0
377,243.62209921874998,243.7448726875,69.0,102.0
378,243.87180796874998,244.39827724999998,69.0,122.0
379,244.87064296875,245.09746174999998,76.0,127.0
380,245.12035171875,245.46578215625,75.0,112.0
381,245.61976921874998,245.98392781249999,75.0,127.0
382,246.11918671874997,246.41259449999998,73.0,127.0
383,246.61860421875,246.97652009375,73.0,127.0
384,247.11802171875,247.85050071874997,71.0,127.0
385,248.36656546875,248.56425156249998,68.0,117.0
386,248.61627421875,248.77026128125,71.0,112.0
387,248.86598296875,250.09371765625,72.0,127.0
388,250.36423546875,250.4370671875,73.0,117.0
389,250.61394421875,250.73463678124998,73.0,122.0
390,250.86365296875,250.96769828125,75.0,122.0
391,251.11336171874999,251.44006399999998,76.0,127.0
392,251.61277921874998,251.9186724375,76.0,127.0
393,252.11219671874997,252.42017084375,76.0,127.0
394,252.61161421875,252.73646859374998,76.0,127.0
395,253.11103171874998,254.12027124999997,75.0,127.0
396,254.35957546875,254.436569,75.0,127.0
397,254.60928421875,254.74662403124998,75.0,127.0
398,254.85899296875,255.05875996875,76.0,102.0
399,255.10870171874998,255.38754315625,78.0,127.0
400,255.60811921874998,255.92857878125,78.0,122.0
401,256.10753671875,256.47793803125,78.0,127.0
402,256.60695421875,257.06891540624997,75.0,127.0
403,257.10637171875,257.75561446874997,73.0,127.0
404,258.35491546875,258.45271806249997,73.0,127.0
405,258.60462421874996,258.7315595,73.0,127.0
406,258.85433296875,258.97918734374997,75.0,127.0
407,259.10404171874995,259.4432294375,76.0,127.0
408,259.60345921875,259.7262326875,69.0,102.0
409,259.85316796875,260.37963725,69.0,122.0
410,260.85200296874996,261.07882175,76.0,127.0
411,261.10171171875,261.44714215625,75.0,112.0
412,261.60112921875,261.9652878125,75.0,127.0
413,262.10054671874997,262.7060904375,76.0,127.0
414,262.84967296875,263.45521668749996,75.0,117.0
415,263.59879921875,265.74421356249997,73.0,122.0
