,start,end,pitch,velocity
0,1.4046117187499998,1.4940906875,61.0,38.0
1,1.4046117187499998,2.3285340937499996,68.0,63.0
2,2.4034467187499997,2.788414375,68.0,23.0
3,1.4046117187499998,2.8341943124999998,64.0,66.0
4,1.4046117187499998,2.9195114687499997,49.0,60.0
5,3.40228171875,4.611288249999999,47.0,37.0
6,3.40228171875,4.81313615625,59.0,47.0
7,3.40228171875,4.8818060625,63.0,51.0
8,3.40228171875,4.90885784375,66.0,44.0
9,5.39995171875,6.248961468749999,61.0,50.0
10,5.39995171875,6.5298838125,64.0,58.0
11,5.39995171875,6.59023009375,68.0,63.0
12,5.39995171875,6.621443687499999,49.0,32.0
13,7.397621718749999,8.140505249999999,47.0,36.0
14,7.397621718749999,8.390214,63.0,50.0
15,7.397621718749999,8.396456718749999,59.0,57.0
16,7.397621718749999,8.45888390625,66.0,55.0
17,9.89470921875,10.602217343749999,56.0,50.0
18,9.395291718749998,10.68129178125,49.0,54.0
19,10.39412671875,11.3992044375,64.0,69.0
20,10.39412671875,11.444984374999999,68.0,65.0
21,11.14325296875,11.478278874999999,61.0,33.0
22,11.39296171875,13.195026531249999,47.0,65.0
23,11.89237921875,13.251211,54.0,58.0
24,12.39179671875,13.40727896875,63.0,72.0
25,12.89121421875,13.417683499999999,59.0,50.0
26,12.39179671875,13.4468161875,66.0,68.0
27,13.390631718749999,14.510159281249999,49.0,67.0
28,14.389466718749999,15.317550906249998,64.0,64.0
29,14.389466718749999,15.36333084375,68.0,70.0
30,13.890049218749999,15.473618875,61.0,56.0
31,15.887719218749998,16.61187459375,54.0,63.0
32,15.388301718749998,16.672220874999997,47.0,65.0
33,16.38713671875,17.392214437499998,63.0,97.0
34,16.38713671875,17.4255089375,66.0,95.0
35,16.88655421875,17.446317999999998,59.0,59.0
36,17.38597171875,19.2900009375,37.0,95.0
37,17.88538921875,19.44190709375,49.0,59.0
38,18.88422421875,19.935081874999998,64.0,52.0
39,18.38480671875,20.15773884375,68.0,99.0
40,19.13393296875,20.52814015625,61.0,54.0
41,19.38364171875,20.634266375,37.0,75.0
42,19.88305921875,20.834033374999997,49.0,59.0
43,20.38247671875,21.36050265625,68.0,100.0
44,21.13160296875,21.3709071875,64.0,49.0
45,20.88189421875,21.420848937499997,61.0,69.0
46,21.880729218749998,22.671473593749997,52.0,60.0
47,21.38131171875,22.748467124999998,45.0,77.0
48,22.130437968749998,22.981528625,57.0,63.0
49,22.879564218749998,23.381062625,61.0,69.0
50,22.380146718749998,23.4060335,64.0,100.0
51,23.129272968749998,23.4185189375,57.0,63.0
52,23.378981718749998,24.887638749999997,40.0,63.0
53,23.628690468749998,24.900124187499998,47.0,43.0
54,24.128107968749998,24.941742312499997,59.0,63.0
55,23.878399218749998,25.324629062499998,52.0,71.0
56,24.377816718749997,25.4161889375,68.0,122.0
57,24.877234218749997,25.422431656249998,64.0,62.0
58,25.876069218749997,26.65432815625,52.0,59.0
59,25.376651718749997,26.714674437499998,45.0,76.0
60,26.874904218749997,27.44507253125,61.0,62.0
61,26.375486718749997,27.465881593749998,64.0,117.0
62,27.124612968749997,27.474205218749997,57.0,59.0
63,27.873739218749996,28.5999755,54.0,54.0
64,27.374321718749997,28.6956971875,47.0,75.0
65,28.87257421875,29.322049968749997,63.0,93.0
66,28.37315671875,29.37199171875,66.0,122.0
67,29.87140921875,30.743308937499997,47.0,55.0
68,29.37199171875,30.74955165625,40.0,82.0
69,30.37082671875,30.874406031249997,52.0,62.0
70,30.37082671875,31.419603468749997,64.0,79.0
71,30.37082671875,31.482030656249997,68.0,83.0
72,30.87024421875,31.515325156249997,59.0,66.0
73,31.86907921875,32.4829465625,56.0,73.0
74,32.61820546875,32.81381065625,56.0,82.0
75,31.36966171875,32.90120871875,44.0,90.0
76,32.368496718749995,33.415192562499996,63.0,112.0
77,32.867914218749995,33.43808253125,60.0,85.0
78,32.368496718749995,33.454729781249995,68.0,100.0
79,33.367331718749995,34.900959625,37.0,86.0
80,33.866749218749995,35.0965648125,49.0,75.0
81,34.865584218749994,35.937250937499996,61.0,77.0
82,34.366166718749994,35.9871926875,64.0,76.0
83,34.366166718749994,36.032972625,68.0,93.0
84,36.11412796875,36.436668437499996,61.0,54.0
85,35.61471046875,36.65516359375,44.0,38.0
86,35.365001718749994,36.7529661875,37.0,90.0
87,35.86441921875,36.871577843749996,49.0,71.0
88,36.36383671875,37.356429,64.0,66.0
89,36.36383671875,37.39596621875,68.0,82.0
90,36.86325421875,37.47087884375,61.0,59.0
91,37.86208921875,38.546707375,52.0,58.0
92,37.36267171875,38.627862718749995,45.0,70.0
93,38.36150671875,39.37282715625,61.0,92.0
94,38.36150671875,39.39363621875,64.0,81.0
95,38.86092421875,39.48935790625,57.0,61.0
96,39.36034171875,40.827380624999996,40.0,69.0
97,39.85975921875,40.848189687499996,47.0,53.0
98,40.35917671875,41.193620124999995,52.0,58.0
99,40.35917671875,41.393387125,64.0,81.0
100,40.35917671875,41.410034374999995,68.0,73.0
101,40.85859421875,41.435005249999996,59.0,71.0
102,41.85742921875,42.48170109375,52.0,53.0
103,41.35801171875,42.5129146875,45.0,74.0
104,42.35684671875,43.3369535625,64.0,90.0
105,42.35684671875,43.361924437499994,61.0,100.0
106,42.85626421875,43.391057124999996,57.0,79.0
107,44.35451671875,44.5272319375,59.0,73.0
108,43.85509921875,44.7935879375,51.0,33.0
109,44.35451671875,44.81647790625,56.0,66.0
110,43.35568171875,44.85809603125,44.0,81.0
111,44.35451671875,44.97878859375,63.0,92.0
112,44.85393421875,45.2014455625,59.0,71.0
113,45.35335171875,45.8506883125,64.0,76.0
114,45.35335171875,46.004675375,45.0,72.0
115,45.35335171875,46.079587999999994,57.0,89.0
116,45.35335171875,46.258545937499996,61.0,96.0
117,46.35218671875,46.67680809375,47.0,67.0
118,46.35218671875,47.3988825625,59.0,81.0
119,46.35218671875,47.41344890625,63.0,96.0
120,46.35218671875,47.432177062499996,66.0,95.0
121,47.85043921875,48.428931156249995,49.0,72.0
122,48.100147968749994,48.732743468749995,61.0,76.0
123,47.35102171875,49.236322781249996,37.0,71.0
124,47.600730468749994,49.35909624999999,44.0,56.0
125,48.34985671875,50.183135125,68.0,127.0
126,48.84927421875,50.212267812499995,64.0,38.0
127,48.599565468749994,50.416196625,49.0,88.0
128,49.09898296874999,50.466138375,61.0,92.0
129,49.34869171875,50.996769468749996,37.0,62.0
130,50.59723546874999,51.344280812499996,49.0,88.0
131,51.09665296875,51.346361718749996,61.0,90.0
132,50.84694421875,51.346361718749996,64.0,49.0
133,50.34752671875,51.346361718749996,68.0,122.0
134,51.346361718749996,51.93942,37.0,86.0
135,51.59607046875,51.974795406249996,56.0,65.0
136,52.09548796875,52.22866596874999,37.0,93.0
137,51.845779218749996,52.430513874999995,61.0,73.0
138,52.09548796875,52.4346756875,56.0,23.0
139,52.59490546875,52.93617409375,56.0,81.0
140,52.345196718749996,53.19420646875,49.0,77.0
141,52.345196718749996,53.246229125,37.0,56.0
142,53.09432296875,53.493856968749995,56.0,102.0
143,52.844614218749996,53.712352124999995,64.0,95.0
144,53.344031718749996,53.9828699375,37.0,86.0
145,54.09315796875,54.20136509375,37.0,92.0
146,53.59374046875,54.403212999999994,56.0,67.0
147,53.843449218749996,54.623789062499995,64.0,85.0
148,54.342866718749995,54.78401884375,37.0,79.0
149,54.59257546875,55.2230900625,56.0,97.0
150,54.842284218749995,55.431180687499996,64.0,89.0
151,55.09199296875,55.45823246875,61.0,85.0
152,55.341701718749995,55.98886356249999,45.0,78.0
153,55.59141046875,56.0887470625,52.0,49.0
154,55.841119218749995,56.66099628124999,61.0,92.0
155,55.841119218749995,56.68180534374999,64.0,88.0
156,56.340536718749995,56.881572343749994,52.0,88.0
157,56.09082796875,56.929433187499995,45.0,85.0
158,56.59024546875,57.23948821875,57.0,70.0
159,56.839954218749995,57.3289671875,64.0,95.0
160,57.08966296875,57.339371718749994,61.0,96.0
161,57.339371718749994,57.91370184375,40.0,75.0
162,58.08849796875,58.148844249999996,40.0,39.0
163,57.58908046875,58.43809021875,59.0,66.0
164,57.838789218749994,58.45889928125,64.0,86.0
165,57.838789218749994,58.600400906249995,68.0,97.0
166,58.338206718749994,58.84802875,40.0,86.0
167,59.08733296875,59.339122624999995,64.0,68.0
168,58.837624218749994,59.343284437499996,68.0,122.0
169,58.58791546875,59.41195434375,59.0,79.0
170,59.337041718749994,59.98004175,45.0,77.0
171,60.08616796875,60.208941437499995,45.0,66.0
172,59.58675046875,60.39830390624999,57.0,78.0
173,59.836459218749994,60.52732009375,64.0,90.0
174,59.836459218749994,60.57310003124999,61.0,90.0
175,60.335876718749994,61.191129187499996,45.0,79.0
176,60.83529421874999,61.253556374999995,64.0,92.0
177,60.58558546875,61.299336312499996,57.0,82.0
178,61.08500296875,61.461647,61.0,95.0
179,61.33471171874999,61.98603537499999,47.0,76.0
180,62.08383796875,62.2149350625,47.0,72.0
181,62.33354671874999,62.65400628125,47.0,76.0
182,61.83412921874999,62.69562440625,63.0,83.0
183,61.83412921874999,62.72475709374999,66.0,90.0
184,61.58442046875,62.730999812499995,59.0,71.0
185,62.58325546875,63.02440759375,54.0,92.0
186,62.83296421874999,63.26579271874999,63.0,96.0
187,62.83296421874999,63.301168125,66.0,93.0
188,63.082672968749996,63.428103406249996,59.0,72.0
189,63.33238171874999,63.9961908125,40.0,76.0
190,64.08150796874999,64.24798046875,47.0,76.0
191,63.582090468749996,64.43110021874999,59.0,82.0
192,63.83179921874999,64.43942384374999,68.0,95.0
193,63.83179921874999,64.44150475,64.0,81.0
194,64.58092546875,64.9034659375,59.0,81.0
195,64.33121671875,65.00334943749999,40.0,81.0
196,64.83063421874999,65.24057275,64.0,86.0
197,64.83063421874999,65.2447345625,68.0,97.0
198,65.08034296874999,65.34461806249999,59.0,75.0
199,65.33005171875,65.95016178124999,44.0,100.0
200,66.07917796875,66.17698056249999,44.0,99.0
201,65.82946921874999,66.380909375,60.0,71.0
202,65.57976046875,66.41212296875,56.0,86.0
203,65.82946921874999,66.43293203124999,63.0,97.0
204,66.32888671875,66.880326875,44.0,92.0
205,66.57859546875,66.91570228124999,56.0,92.0
206,66.82830421874999,67.2424045625,60.0,79.0
207,67.07801296875,67.27153725,56.0,72.0
208,66.82830421874999,67.30483174999999,63.0,97.0
209,67.57743046875,67.95199359374999,61.0,75.0
210,67.32772171875,67.96031721874999,49.0,89.0
211,68.07684796875,68.17881237499999,49.0,81.0
212,67.82713921874999,68.411873875,68.0,93.0
213,67.82713921874999,68.45973471875,64.0,72.0
214,68.32655671875,69.2400745625,49.0,86.0
215,68.57626546875,69.37117165625,61.0,82.0
216,68.82597421874999,69.46273153125,68.0,112.0
217,69.07568296875,69.49186421875,64.0,69.0
218,69.32539171875,69.976715375,49.0,85.0
219,70.07451796875,70.20145325,49.0,67.0
220,69.57510046875,70.35752121875,61.0,66.0
221,69.82480921874999,70.376249375,68.0,112.0
222,70.32422671875,70.92352771875,49.0,95.0
223,70.57393546875,70.94849859374999,61.0,93.0
224,70.82364421874999,71.18572190625,68.0,122.0
225,71.07335296875,71.32306171875,61.0,88.0
226,71.32306171875,71.9868708125,45.0,72.0
227,72.07218796875,72.19704234375,45.0,82.0
228,71.57277046875,72.373919375,57.0,77.0
229,71.82247921874999,72.42802293749999,64.0,95.0
230,72.32189671875,72.8858223125,45.0,90.0
231,72.57160546875,73.24581909375,57.0,86.0
232,73.07102296875,73.25206181249999,61.0,96.0
233,72.82131421874999,73.272870875,64.0,89.0
234,73.32073171875,73.96997446875,40.0,71.0
235,74.06985796875,74.16557965624999,40.0,78.0
236,73.57044046875,74.446502,59.0,73.0
237,73.82014921874999,74.57968,68.0,99.0
238,74.31956671875,74.96048584374999,40.0,61.0
239,74.81898421874999,75.26013634374999,68.0,117.0
240,75.06869296875,75.26429815624999,64.0,93.0
241,74.56927546874999,75.3662625625,59.0,82.0
242,75.31840171875,75.91562181249999,45.0,79.0
243,76.06752796875,76.1819778125,45.0,72.0
244,75.56811046874999,76.46706196874999,57.0,76.0
245,75.81781921874999,76.65434353124999,64.0,93.0
246,76.31723671875,77.16208465624999,45.0,78.0
247,77.06636296875,77.27029178125,61.0,95.0
248,76.81665421874999,77.2890199375,64.0,96.0
249,76.56694546874999,77.35144712499999,57.0,72.0
250,77.31607171875,77.9382626875,44.0,81.0
251,78.06519796875,78.16300056249999,44.0,81.0
252,77.56578046874999,78.4043856875,56.0,81.0
253,77.81548921874999,78.47305559374999,63.0,107.0
254,78.31490671875,78.9412595,44.0,82.0
255,78.56461546874999,78.94334040624999,56.0,82.0
256,78.81432421874999,79.17640190624999,63.0,107.0
257,79.06403296875,79.24299090625,56.0,82.0
258,79.56345046874999,79.94425631249999,54.0,71.0
259,79.81315921874999,80.20436959374999,61.0,117.0
260,79.31374171875,80.21061231249999,42.0,90.0
261,80.06286796875,80.22517865625,54.0,102.0
262,80.31257671875,80.89523046875,47.0,70.0
263,80.56228546874999,81.2427418125,59.0,82.0
264,81.06170296875,81.25730815624999,63.0,97.0
265,80.81199421874999,81.29268356249999,66.0,107.0
266,82.06053796875,82.362269375,64.0,56.0
267,81.56112046874999,82.41429203125,49.0,86.0
268,81.81082921875,82.57036,61.0,89.0
269,82.55995546874999,83.28827265625,49.0,96.0
270,82.80966421875,83.31324353125,64.0,61.0
271,83.05937296875,83.31740534375,61.0,99.0
272,82.31024671875,83.33405259374999,68.0,122.0
273,81.31141171875,83.34861893749999,37.0,95.0
274,83.80849921875,84.75739246875,49.0,38.0
275,83.30908171875,84.79901059375,42.0,97.0
276,84.80733421875,85.26513359375,61.0,96.0
277,84.30791671875,85.32756078125,66.0,127.0
278,85.05704296875,85.35669346875,57.0,82.0
279,85.80616921875,86.5781854375,54.0,85.0
280,85.30675171875,86.64269353124999,47.0,90.0
281,86.80500421875,87.273208125,63.0,95.0
282,86.30558671874999,87.29401718749999,66.0,127.0
283,87.30442171874999,88.38025024999999,37.0,97.0
284,87.80383921875,88.64452534374999,49.0,83.0
285,88.80267421875,89.30209171874999,61.0,66.0
286,88.30325671874999,89.30209171874999,64.0,99.0
287,88.30325671874999,89.30209171874999,68.0,117.0
288,89.80150921875,90.62970990625,51.0,26.0
289,89.30209171874999,90.72335068749999,44.0,99.0
290,90.30092671874999,90.73375521874999,56.0,66.0
291,90.30092671874999,91.25814359374999,63.0,107.0
292,90.80034421875,91.26230540625,59.0,93.0
293,90.30092671874999,91.29351899999999,68.0,112.0
294,91.79917921875,92.53998184375,52.0,67.0
295,92.29859671874999,92.77096243749999,57.0,88.0
296,91.29976171874999,93.0040239375,45.0,92.0
297,92.79801421875,93.25789449999999,52.0,92.0
298,93.04772296875,93.33488803124999,64.0,89.0
299,92.29859671874999,93.34113074999999,69.0,107.0
300,92.29859671874999,93.3536161875,73.0,112.0
301,93.79684921875,94.38990749999999,54.0,90.0
302,94.54597546874999,94.73533793749999,54.0,97.0
303,93.29743171874999,94.8019269375,47.0,93.0
304,94.29626671874999,94.87059684375,63.0,127.0
305,94.29626671874999,95.11198196874999,66.0,127.0
306,95.04539296875,95.30134443749999,63.0,127.0
307,94.79568421875,95.46781693749999,59.0,97.0
308,95.79451921875,96.64977168749999,47.0,72.0
309,95.29510171874999,96.68930890624999,40.0,89.0
310,96.29393671874999,96.93069403125,52.0,95.0
311,96.79335421875,97.25323449999999,64.0,89.0
312,96.54364546875,97.28860990624999,68.0,117.0
313,97.04306296875,97.33647074999999,59.0,88.0
314,97.79218921875,98.351953,56.0,117.0
315,98.04189796874999,98.3561148125,60.0,89.0
316,98.54131546875,98.743163375,56.0,122.0
317,97.54248046875,98.76189153124999,51.0,90.0
318,97.29277171874999,98.7972669375,44.0,93.0
319,98.29160671874999,98.85553231249999,63.0,127.0
320,98.79102421875,99.21552909374999,60.0,107.0
321,99.04073296874999,99.26130903125,63.0,127.0
322,98.29160671874999,99.28211809374999,68.0,127.0
323,100.03956796874999,100.23517315625,64.0,100.0
324,99.78985921875,100.29968124999999,61.0,100.0
325,99.54015046875,100.34754209375,56.0,112.0
326,100.53898546875,100.69297253124999,56.0,107.0
327,99.29044171874999,100.73250974999999,49.0,90.0
328,100.28927671874999,101.10499196875,68.0,127.0
329,101.03840296874999,101.26522175,64.0,96.0
330,100.78869421875,101.30059715624999,61.0,127.0
331,101.78752921875,102.34105028124999,56.0,100.0
332,102.03723796874999,102.60324446874999,59.0,93.0
333,101.53782046875,102.6594289375,51.0,76.0
334,102.53665546875,102.67607618749999,56.0,92.0
335,101.28811171874999,102.72809884374999,44.0,95.0
336,102.28694671874999,103.22335453125,68.0,127.0
337,102.78636421875,103.279539,63.0,122.0
338,103.03607296874999,103.33780437499999,59.0,100.0
339,103.78519921875,104.33872028124999,54.0,99.0
340,103.53549046875,104.5405681875,49.0,33.0
341,103.28578171874999,104.62588534375,42.0,93.0
342,104.03490796874999,104.63212806249999,57.0,95.0
343,104.53432546875,104.7569824375,54.0,100.0
344,104.28461671874999,105.26680446875,66.0,127.0
345,104.78403421875,105.27096628125,61.0,122.0
346,105.03374296874999,105.27512809375,57.0,112.0
347,106.03257796874999,106.31141940625,64.0,88.0
348,105.78286921875,106.3884129375,61.0,95.0
349,105.53316046875,106.41338381249999,56.0,90.0
350,106.53199546875,106.69222524999999,56.0,93.0
351,105.28345171874999,106.72968156249999,49.0,85.0
352,106.28228671874999,107.2623935625,68.0,127.0
353,107.03141296874999,107.28320262499999,64.0,86.0
354,106.78170421875,107.30193078125,61.0,112.0
355,107.78053921875,108.01360071875,57.0,93.0
356,108.03024796874999,108.2612285625,61.0,122.0
357,107.53083046875,108.406892,52.0,59.0
358,107.28112171874999,109.1019146875,45.0,92.0
359,108.52966546875,109.2267690625,52.0,95.0
360,108.27995671874999,109.25173993749999,64.0,99.0
361,108.77937421875,109.25590174999999,61.0,117.0
362,109.02908296874999,109.32665256249999,57.0,97.0
363,110.02791796874999,110.34837753125,63.0,107.0
364,109.52850046875,110.41704743749999,54.0,95.0
365,109.77820921874999,110.46490828124999,59.0,88.0
366,110.52733546875,110.69380796875,54.0,92.0
367,109.27879171874999,110.73334518749999,47.0,81.0
368,110.27762671874999,111.07045199999999,66.0,122.0
369,110.77704421874999,111.07877562499999,63.0,127.0
370,111.02675296874999,111.41588243749999,59.0,99.0
371,111.77587921874999,112.3481284375,52.0,95.0
372,112.02558796874999,112.50835821874999,59.0,102.0
373,111.52617046875,112.6144844375,47.0,76.0
374,111.27646171875,112.64569803124999,40.0,90.0
375,112.52500546875,112.76222878124999,52.0,90.0
376,112.77471421874999,113.23667540624999,64.0,93.0
377,112.27529671875,113.25124174999999,68.0,127.0
378,113.02442296874999,113.3136689375,59.0,97.0
379,113.77354921874999,114.358283875,56.0,102.0
380,114.02325796874999,114.391578375,60.0,100.0
381,114.52267546875,114.75365606249999,56.0,112.0
382,113.52384046875,114.7786269375,51.0,38.0
383,114.27296671875,114.8327305,63.0,127.0
384,113.27413171875,114.85770137499999,44.0,96.0
385,114.77238421874999,115.23850721874999,60.0,102.0
386,115.02209296874999,115.26763990625,63.0,127.0
387,114.27296671875,115.29261078124999,68.0,127.0
388,115.77121921874999,116.31849756249999,49.0,92.0
389,116.02092796874999,116.34554934375,61.0,90.0
390,115.27180171875,116.63895712499999,37.0,88.0
391,115.52151046875,116.65768528125,44.0,82.0
392,116.27063671875,116.77421603124999,64.0,86.0
393,116.52034546875,116.7929441875,49.0,100.0
394,116.27063671875,117.21952996875,68.0,127.0
395,116.77005421874999,117.25698628125,61.0,112.0
396,117.01976296874999,117.263229,64.0,90.0
397,117.76888921874999,118.0831060625,59.0,92.0
398,118.01859796874999,118.31824846874999,63.0,102.0
399,117.51918046875,118.37443293749999,54.0,107.0
400,118.51801546875,118.68864978124999,54.0,96.0
401,117.26947171875,118.703216125,47.0,78.0
402,118.26830671875,119.1818245625,66.0,122.0
403,118.76772421874999,119.21303815625,63.0,112.0
404,119.01743296874999,119.28795078124999,59.0,99.0
405,119.76655921874999,120.301352125,54.0,95.0
406,119.51685046875,120.55106087499999,49.0,32.0
407,119.26714171875,120.6051644375,42.0,72.0
408,120.51568546875,120.62389259374999,54.0,90.0
409,120.01626796874999,120.64886346875,57.0,90.0
410,120.26597671875,121.183656375,66.0,122.0
411,120.76539421874999,121.26897353125,61.0,122.0
412,121.01510296874999,121.29186349999999,57.0,96.0
413,121.76422921874999,122.31566937499998,49.0,90.0
414,122.01393796874999,122.54248815624999,56.0,86.0
415,121.51452046874999,122.57370175,44.0,34.0
416,121.26481171875,122.64445256249999,37.0,86.0
417,122.51335546874999,122.76514512499999,49.0,100.0
418,123.01277296874999,123.264562625,56.0,93.0
419,122.76306421874999,123.264562625,61.0,112.0
420,122.26364671875,123.347798875,64.0,107.0
421,123.76189921874999,124.08652059375,57.0,96.0
422,124.01160796874998,124.1676759375,64.0,73.0
423,124.01160796874998,124.180161375,61.0,99.0
424,123.51219046874999,124.37992837499999,52.0,70.0
425,124.26131671875,124.81275687499999,61.0,127.0
426,123.26248171875,125.07911287499999,45.0,75.0
427,124.51102546874999,125.22269540625,52.0,86.0
428,124.76073421874999,125.22893812499998,57.0,97.0
429,124.26131671875,125.23518084374999,64.0,97.0
430,125.01044296874998,125.23726174999999,61.0,127.0
431,126.00927796875,126.3526275,63.0,117.0
432,125.50986046874999,126.36719384374999,54.0,93.0
433,125.75956921874999,126.41713559374999,59.0,81.0
434,125.26015171875,126.693896125,47.0,86.0
435,126.50869546874999,127.10383465624999,54.0,86.0
436,126.75840421874999,127.176666375,63.0,112.0
437,126.25898671875,127.18498999999998,66.0,127.0
438,127.00811296875,127.22452721875,59.0,90.0
439,127.50753046874999,127.85712271874999,61.0,48.0
440,127.75723921874999,128.225443125,64.0,41.0
441,128.00694796874998,128.35654021874998,61.0,19.0
442,128.25665671874998,128.391915625,68.0,97.0
443,127.25782171875,128.75191240625,49.0,93.0
444,128.75607421875,129.86727815625,66.0,88.0
445,128.75607421875,130.17317137499998,63.0,90.0
446,128.75607421875,130.48322640625,59.0,77.0
447,128.75607421875,130.62056621874999,47.0,68.0
448,130.75374421875,130.913974,59.0,59.0
449,130.25432671874998,130.938944875,66.0,95.0
450,130.50403546875,130.96599665624998,63.0,43.0
451,131.75257921875,132.537080875,56.0,62.0
452,131.25316171875,132.59742715624998,49.0,89.0
453,132.25199671874998,133.244589,64.0,81.0
454,132.25199671874998,133.29244984374998,68.0,93.0
455,132.75141421875,133.39649515624998,61.0,59.0
456,133.75024921874999,134.4140583125,54.0,69.0
457,133.25083171875,134.5888544375,47.0,69.0
458,134.24966671874998,135.29844346874998,66.0,95.0
459,134.24966671874998,135.30676709374998,63.0,88.0
460,134.74908421875,135.3296570625,59.0,72.0
461,136.24733671874998,136.81334321875,68.0,100.0
462,136.24733671874998,136.8195859375,63.0,95.0
463,135.24850171875,137.12547915624998,44.0,90.0
464,135.74791921874998,137.18998725,56.0,89.0
465,136.74675421875,137.38975424999998,59.0,76.0
466,136.99646296875,137.5104468125,63.0,34.0
467,137.74558921874998,138.45517825,56.0,83.0
468,137.24617171875,138.85263134374998,44.0,83.0
469,138.74442421875,138.87344040624998,56.0,99.0
470,138.24500671874998,139.262569875,63.0,127.0
471,138.24500671874998,139.32707796875,60.0,97.0
472,139.74325921874998,140.38001653125,52.0,59.0
473,139.24384171875,140.64221071875,45.0,93.0
474,140.49238546875,140.66718159375,52.0,67.0
475,140.24267671874998,141.30601981249998,64.0,89.0
476,140.24267671874998,141.33723340625,61.0,112.0
477,140.74209421875,141.35804246875,57.0,92.0
478,141.74092921874998,142.46924640625,49.0,36.0
479,141.24151171875,142.53583540625,42.0,95.0
480,142.24034671875,142.67317521875,54.0,68.0
481,142.73976421875,143.22669628124999,57.0,81.0
482,142.24034671875,143.232939,61.0,102.0
483,142.24034671875,143.2662335,66.0,107.0
484,143.73859921874998,144.53142449999999,54.0,82.0
485,143.23918171875,144.573042625,47.0,86.0
486,144.73743421875,145.255579875,59.0,85.0
487,144.23801671875,145.272227125,63.0,112.0
488,144.23801671875,145.2763889375,66.0,107.0
489,145.73626921874998,146.304356625,51.0,45.0
490,146.23568671875,146.7954505,56.0,95.0
491,145.23685171875,146.83082590625,44.0,97.0
492,146.23568671875,147.23452171875,60.0,92.0
493,146.23568671875,147.23452171875,63.0,112.0
494,147.23452171875,147.88792628125,37.0,95.0
495,147.98364796874998,148.10850234375,37.0,85.0
496,147.73393921874998,148.42896190624998,56.0,53.0
497,147.73393921874998,148.49555090625,61.0,61.0
498,147.73393921874998,148.62040528125,64.0,66.0
499,148.23335671875,148.78271596874998,37.0,92.0
500,148.48306546875,148.81601046875,56.0,40.0
501,148.73277421875,149.19473540624998,61.0,77.0
502,148.73277421875,149.22386809374999,64.0,82.0
503,148.98248296875,149.367450625,56.0,68.0
504,149.23219171875,149.87311084375,44.0,63.0
505,149.73160921874998,149.950104375,56.0,56.0
506,149.98131796874998,150.09368690624999,44.0,70.0
507,149.73160921874998,150.34131474999998,59.0,60.0
508,149.73160921874998,150.557729,63.0,69.0
509,150.23102671875,150.75541509375,44.0,92.0
510,150.48073546875,150.824085,56.0,82.0
511,150.73044421875,151.18408178125,59.0,69.0
512,150.73044421875,151.265237125,63.0,82.0
513,150.98015296875,151.32974521875,56.0,53.0
514,151.22986171875,151.88742809375,37.0,89.0
515,151.97898796874998,152.10592325,37.0,65.0
516,151.47957046874998,152.3930883125,56.0,47.0
517,151.72927921874998,152.397250125,61.0,67.0
518,151.72927921874998,152.563722625,64.0,72.0
519,152.22869671875,152.755166,37.0,82.0
520,152.47840546875,152.8092695625,56.0,67.0
521,152.72811421875,153.19631812499998,61.0,65.0
522,152.72811421875,153.21920809374998,64.0,76.0
523,152.97782296875,153.36487153125,56.0,61.0
524,153.47724046874998,153.7831336875,56.0,67.0
525,153.22753171875,153.90590715624998,44.0,90.0
526,153.97665796874998,154.1202405,44.0,79.0
527,153.72694921874998,154.3200075,59.0,68.0
528,153.72694921874998,154.5405835625,63.0,86.0
529,154.47607546875,154.8069395625,56.0,63.0
530,154.22636671875,155.12948003124998,44.0,99.0
531,154.72578421875,155.1731790625,59.0,69.0
532,154.72578421875,155.20855446874998,63.0,89.0
533,155.22520171875,155.81825999999998,37.0,86.0
534,155.47491046874998,155.85363540625,56.0,65.0
535,155.97432796874998,156.10750596875,37.0,93.0
536,155.72461921874998,156.309353875,61.0,73.0
537,155.97432796874998,156.3135156875,56.0,23.0
538,156.47374546875,156.81501409375,56.0,81.0
539,156.22403671875,157.07304646875,49.0,77.0
540,156.22403671875,157.12506912499998,37.0,56.0
541,156.97316296875,157.37269696874998,56.0,102.0
542,156.72345421875,157.591192125,64.0,95.0
543,157.22287171874999,157.8617099375,37.0,86.0
544,157.97199796875,158.08020509374998,37.0,92.0
545,157.47258046874998,158.282053,56.0,67.0
546,157.72228921874998,158.50262906249998,64.0,85.0
547,158.22170671875,158.66285884375,37.0,79.0
548,158.47141546875,159.1019300625,56.0,97.0
549,158.72112421875,159.31002068749999,64.0,89.0
550,158.97083296875,159.33707246875,61.0,85.0
551,159.22054171874998,159.8677035625,45.0,78.0
552,159.47025046874998,159.9675870625,52.0,49.0
553,159.71995921874998,160.53983628125,61.0,92.0
554,159.71995921874998,160.56064534375,64.0,88.0
555,160.21937671875,160.76041234374998,52.0,88.0
556,159.96966796875,160.8082731875,45.0,85.0
557,160.46908546875,161.11832821874998,57.0,70.0
558,160.71879421875,161.20780718749998,64.0,95.0
559,160.96850296875,161.21821171874998,61.0,96.0
560,161.21821171874998,161.79254184375,40.0,75.0
561,161.96733796875,162.02768425,40.0,39.0
562,161.46792046874998,162.31693021875,59.0,66.0
563,161.71762921874998,162.33773928124998,64.0,86.0
564,161.71762921874998,162.47924090625,68.0,97.0
565,162.21704671875,162.72686875,40.0,86.0
566,162.96617296875,163.21796262499998,64.0,68.0
567,162.71646421875,163.22212443749999,68.0,122.0
568,162.46675546875,163.29079434374998,59.0,79.0
569,163.21588171874998,163.85888175,45.0,77.0
570,163.96500796875,164.08778143749998,45.0,66.0
571,163.46559046874998,164.27714390625,57.0,78.0
572,163.71529921874998,164.40616009374997,64.0,90.0
573,163.71529921874998,164.45194003125,61.0,90.0
574,164.21471671875,165.0699691875,45.0,79.0
575,164.71413421875,165.13239637499998,64.0,92.0
576,164.46442546875,165.1781763125,57.0,82.0
577,164.96384296875,165.340487,61.0,95.0
578,165.21355171874998,165.864875375,47.0,76.0
579,165.96267796875,166.0937750625,47.0,72.0
580,166.21238671875,166.53284628125,47.0,76.0
581,165.71296921874998,166.57446440625,63.0,83.0
582,165.71296921874998,166.60359709374998,66.0,90.0
583,165.46326046874998,166.60983981249998,59.0,71.0
584,166.46209546875,166.90324759375,54.0,92.0
585,166.71180421875,167.14463271875,63.0,96.0
586,166.71180421875,167.180008125,66.0,93.0
587,166.96151296875,167.30694340624999,59.0,72.0
588,167.21122171874998,167.8750308125,40.0,76.0
589,167.96034796875,168.12682046875,47.0,76.0
590,167.46093046874998,168.30994021875,59.0,82.0
591,167.71063921874998,168.31826384374997,68.0,95.0
592,167.71063921874998,168.32034474999998,64.0,81.0
593,168.45976546875,168.78230593749998,59.0,81.0
594,168.21005671875,168.8821894375,40.0,81.0
595,168.70947421875,169.11941274999998,64.0,86.0
596,168.70947421875,169.12357456249998,68.0,97.0
597,168.95918296874999,169.2234580625,59.0,75.0
598,169.20889171874998,169.82900178124999,44.0,100.0
599,169.95801796875,170.05582056249997,44.0,99.0
600,169.70830921874997,170.25974937499998,60.0,71.0
601,169.45860046874998,170.29096296875,56.0,86.0
602,169.70830921874997,170.31177203125,63.0,97.0
603,170.20772671875,170.75916687499998,44.0,92.0
604,170.45743546875,170.79454228125,56.0,92.0
605,170.70714421875,171.12124456249998,60.0,79.0
606,170.95685296874998,171.15037725,56.0,72.0
607,170.70714421875,171.18367175,63.0,97.0
608,171.45627046874998,171.83083359375,61.0,75.0
609,171.20656171874998,171.83915721875,49.0,89.0
610,171.95568796875,172.05765237499998,49.0,81.0
611,171.70597921875,172.290713875,68.0,93.0
612,171.70597921875,172.33857471874998,64.0,72.0
613,172.20539671875,173.11891456249998,49.0,86.0
614,172.45510546875,173.25001165625,61.0,82.0
615,172.70481421875,173.34157153125,68.0,112.0
616,172.95452296874998,173.37070421874998,64.0,69.0
617,173.20423171874998,173.855555375,49.0,85.0
618,173.95335796875,174.08029324999998,49.0,67.0
619,173.45394046874998,174.23636121874998,61.0,66.0
620,173.70364921875,174.25508937499998,68.0,112.0
621,174.20306671875,174.80236771875,49.0,95.0
622,174.45277546875,174.82733859375,61.0,93.0
623,174.70248421875,175.06456190625,68.0,122.0
624,174.95219296874998,175.20190171874998,61.0,88.0
625,175.20190171874998,175.8657108125,45.0,72.0
626,175.95102796875,176.07588234374998,45.0,82.0
627,175.45161046874998,176.25275937499998,57.0,77.0
628,175.70131921875,176.3068629375,64.0,95.0
629,176.20073671875,176.76466231249998,45.0,90.0
630,176.45044546875,177.12465909374998,57.0,86.0
631,176.94986296874998,177.13090181249999,61.0,96.0
632,176.70015421875,177.151710875,64.0,89.0
633,177.19957171874998,177.84881446875,40.0,71.0
634,177.94869796875,178.04441965625,40.0,78.0
635,177.44928046874998,178.32534199999998,59.0,73.0
636,177.69898921875,178.45852,68.0,99.0
637,178.19840671875,178.83932584374998,40.0,61.0
638,178.69782421875,179.13897634375,68.0,117.0
639,178.94753296874998,179.14313815625,64.0,93.0
640,178.44811546875,179.2451025625,59.0,82.0
641,179.19724171874998,179.79446181249997,45.0,79.0
642,179.94636796875,180.06081781249998,45.0,72.0
643,179.44695046874998,180.34590196874998,57.0,76.0
644,179.69665921875,180.53318353125,64.0,93.0
645,180.19607671875,181.04092465624998,45.0,78.0
646,180.94520296874998,181.14913178125,61.0,95.0
647,180.69549421874999,181.1678599375,64.0,96.0
648,180.44578546875,181.230287125,57.0,72.0
649,181.19491171874998,181.81710268749998,44.0,81.0
650,181.94403796875,182.0418405625,44.0,81.0
651,181.44462046874997,182.2832256875,56.0,81.0
652,181.69432921875,182.35189559375,63.0,107.0
653,182.19374671875,182.8200995,44.0,82.0
654,182.44345546875,182.82218040625,56.0,82.0
655,182.69316421874998,183.05524190625,63.0,107.0
656,182.94287296874998,183.12183090624998,56.0,82.0
657,183.44229046874997,183.82309631249998,54.0,71.0
658,183.69199921875,184.08320959374998,61.0,117.0
659,183.19258171874998,184.0894523125,42.0,90.0
660,183.94170796875,184.10401865625,54.0,102.0
661,184.19141671875,184.77407046874998,47.0,70.0
662,184.44112546875,185.12158181249998,59.0,82.0
663,184.94054296874998,185.13614815625,63.0,97.0
664,184.69083421874998,185.1715235625,66.0,107.0
665,185.93937796875,186.24110937499998,64.0,56.0
666,185.43996046874997,186.29313203125,49.0,86.0
667,185.68966921875,186.4492,61.0,89.0
668,186.43879546875,187.16711265625,49.0,96.0
669,186.68850421874998,187.19208353124998,64.0,61.0
670,186.93821296874998,187.19624534374998,61.0,99.0
671,186.18908671875,187.21289259374998,68.0,122.0
672,185.19025171874998,187.2274589375,37.0,95.0
673,187.68733921875,188.63623246875,49.0,38.0
674,187.18792171874998,188.67785059374998,42.0,97.0
675,188.68617421874998,189.14397359375,61.0,96.0
676,188.18675671875,189.20640078124998,66.0,127.0
677,188.93588296874998,189.23553346875,57.0,82.0
678,189.68500921875,190.4570254375,54.0,85.0
679,189.18559171874998,190.52153353125,47.0,90.0
680,190.68384421874998,191.152048125,63.0,95.0
681,190.18442671875,191.1728571875,66.0,127.0
682,191.18326171874997,192.25909024999999,37.0,97.0
683,191.68267921875,192.52336534375,49.0,83.0
684,192.68151421874998,193.18093171874997,61.0,66.0
685,192.18209671875,193.18093171874997,64.0,99.0
686,192.18209671875,193.18093171874997,68.0,117.0
687,193.68034921875,194.50854990624998,51.0,26.0
688,193.18093171874997,194.60219068749998,44.0,99.0
689,194.17976671875,194.61259521875,56.0,66.0
690,194.17976671875,195.13698359375,63.0,107.0
691,194.67918421874998,195.14114540625,59.0,93.0
692,194.17976671875,195.172359,68.0,112.0
693,195.67801921875,196.41882184374998,52.0,67.0
694,196.17743671875,196.6498024375,57.0,88.0
695,195.17860171874997,196.8828639375,45.0,92.0
696,196.67685421874998,197.1367345,52.0,92.0
697,196.92656296874998,197.21372803124999,64.0,89.0
698,196.17743671875,197.21997075,69.0,107.0
699,196.17743671875,197.2324561875,73.0,112.0
700,197.67568921875,198.2687475,54.0,90.0
701,198.42481546874998,198.6141779375,54.0,97.0
702,197.17627171874997,198.68076693749998,47.0,93.0
703,198.17510671875,198.74943684374998,63.0,127.0
704,198.17510671875,198.99082196875,66.0,127.0
705,198.92423296874998,199.18018443749997,63.0,127.0
706,198.67452421874998,199.34665693749997,59.0,97.0
707,199.67335921875,200.5286116875,47.0,72.0
708,199.17394171874997,200.56814890624997,40.0,89.0
709,200.17277671875,200.80953403125,52.0,95.0
710,200.67219421874998,201.1320745,64.0,89.0
711,200.42248546874998,201.16744990625,68.0,117.0
712,200.92190296874998,201.21531075,59.0,88.0
713,201.67102921875,202.23079299999998,56.0,117.0
714,201.92073796875,202.23495481249998,60.0,89.0
715,202.42015546874998,202.622003375,56.0,122.0
716,201.42132046875,202.64073153125,51.0,90.0
717,201.17161171874997,202.67610693749998,44.0,93.0
718,202.17044671875,202.7343723125,63.0,127.0
719,202.66986421874998,203.09436909374998,60.0,107.0
720,202.91957296874997,203.14014903125,63.0,127.0
721,202.17044671875,203.16095809375,68.0,127.0
722,203.91840796875,204.11401315625,64.0,100.0
723,203.66869921875,204.17852125,61.0,100.0
724,203.41899046875,204.22638209374998,56.0,112.0
725,204.41782546874998,204.57181253124998,56.0,107.0
726,203.16928171875,204.61134975,49.0,90.0
727,204.16811671874999,204.98383196875,68.0,127.0
728,204.91724296874997,205.14406175,64.0,96.0
729,204.66753421874998,205.17943715624997,61.0,127.0
730,205.66636921875,206.21989028124997,56.0,100.0
731,205.91607796875,206.48208446874997,59.0,93.0
732,205.41666046875,206.5382689375,51.0,76.0
733,206.41549546874998,206.5549161875,56.0,92.0
734,205.16695171875,206.60693884375,44.0,95.0
735,206.16578671874998,207.10219453124998,68.0,127.0
736,206.66520421874998,207.158379,63.0,122.0
737,206.91491296874997,207.216644375,59.0,100.0
738,207.66403921875,208.21756028124997,54.0,99.0
739,207.41433046875,208.41940818749998,49.0,33.0
740,207.16462171875,208.50472534374998,42.0,93.0
741,207.91374796875,208.51096806249998,57.0,95.0
742,208.41316546874998,208.6358224375,54.0,100.0
743,208.16345671874998,209.14564446875,66.0,127.0
744,208.66287421874998,209.14980628125,61.0,122.0
745,208.91258296874997,209.15396809375,57.0,112.0
746,209.91141796875,210.19025940625,64.0,88.0
747,209.66170921875,210.2672529375,61.0,95.0
748,209.41200046875,210.2922238125,56.0,90.0
749,210.41083546874998,210.57106524999998,56.0,93.0
750,209.16229171875,210.6085215625,49.0,85.0
751,210.16112671874998,211.1412335625,68.0,127.0
752,210.91025296874997,211.162042625,64.0,86.0
753,210.66054421874998,211.18077078124998,61.0,112.0
754,211.65937921875,211.89244071874998,57.0,93.0
755,211.90908796875,212.14006856249998,61.0,122.0
756,211.40967046875,212.285732,52.0,59.0
757,211.15996171875,212.9807546875,45.0,92.0
758,212.40850546874998,213.10560906249998,52.0,95.0
759,212.15879671874998,213.1305799375,64.0,99.0
760,212.65821421874998,213.13474175,61.0,117.0
761,212.90792296874997,213.20549256249998,57.0,97.0
762,213.90675796875,214.22721753124998,63.0,107.0
763,213.40734046875,214.2958874375,54.0,95.0
764,213.65704921875,214.34374828125,59.0,88.0
765,214.40617546874998,214.57264796874998,54.0,92.0
766,213.15763171875,214.6121851875,47.0,81.0
767,214.15646671874998,214.94929199999999,66.0,122.0
768,214.65588421874997,214.957615625,63.0,127.0
769,214.90559296874997,215.29472243749998,59.0,99.0
770,215.65471921875,216.22696843749998,52.0,95.0
771,215.90442796874999,216.38719821874997,59.0,102.0
772,215.40501046875,216.49332443749998,47.0,76.0
773,215.15530171875,216.52453803125,40.0,90.0
774,216.40384546874998,216.64106878125,52.0,90.0
775,216.65355421874997,217.11551540624998,64.0,93.0
776,216.15413671874998,217.13008175,68.0,127.0
777,216.90326296875,217.19250893749998,59.0,97.0
778,217.65238921875,218.23712387499998,56.0,102.0
779,217.90209796874998,218.270418375,60.0,100.0
780,218.40151546874998,218.6324960625,56.0,112.0
781,217.40268046875,218.65746693749998,51.0,38.0
782,218.15180671874998,218.7115705,63.0,127.0
783,217.15297171875,218.73654137499997,44.0,96.0
784,218.65122421874997,219.11734721874998,60.0,102.0
785,218.90093296875,219.14647990625,63.0,127.0
786,218.15180671874998,219.17145078124997,68.0,127.0
787,219.65005921875,220.1973375625,49.0,92.0
788,219.89976796874998,220.22438934374998,61.0,90.0
789,219.15064171875,220.517797125,37.0,88.0
790,219.40035046875,220.53652528125,44.0,82.0
791,220.14947671874998,220.65305603124997,64.0,86.0
792,220.39918546874998,220.67178418749998,49.0,100.0
793,220.14947671874998,221.09836996874998,68.0,127.0
794,220.64889421874997,221.13582628125,61.0,112.0
795,220.89860296875,221.142069,64.0,90.0
796,221.64772921875,221.96194606249998,59.0,92.0
797,221.89743796874998,222.19708846875,63.0,102.0
798,221.39802046875,222.2532729375,54.0,107.0
799,222.39685546874998,222.56748978124998,54.0,96.0
800,221.14831171875,222.58205612499998,47.0,78.0
801,222.14714671874998,223.0606645625,66.0,122.0
802,222.64656421874997,223.09187815624998,63.0,112.0
803,222.89627296875,223.16679078124997,59.0,99.0
804,223.64539921875,224.180192125,54.0,95.0
805,223.39569046875,224.429900875,49.0,32.0
806,223.14598171875,224.48400443749998,42.0,72.0
807,224.39452546874998,224.50273259374998,54.0,90.0
808,223.89510796874998,224.52770346875,57.0,90.0
809,224.14481671874998,225.062496375,66.0,122.0
810,224.64423421874997,225.14781353125,61.0,122.0
811,224.89394296875,225.17070349999997,57.0,96.0
812,225.64306921875,226.194509375,49.0,90.0
813,225.89277796874998,226.42132815624998,56.0,86.0
814,225.39336046875,226.45254175,44.0,34.0
815,225.14365171875,226.5232925625,37.0,86.0
816,226.39219546874997,226.64398512499997,49.0,100.0
817,226.89161296875,227.143402625,56.0,93.0
818,226.64190421874997,227.143402625,61.0,112.0
819,226.14248671874998,227.226638875,64.0,107.0
820,227.64073921874999,227.96536059374998,57.0,96.0
821,227.89044796874998,228.04651593749998,64.0,73.0
822,227.89044796874998,228.05900137499998,61.0,99.0
823,227.39103046875,228.258768375,52.0,70.0
824,228.14015671874998,228.691596875,61.0,127.0
825,227.14132171875,228.957952875,45.0,75.0
826,228.38986546874997,229.10153540624998,52.0,86.0
827,228.63957421874997,229.10777812499998,57.0,97.0
828,228.14015671874998,229.11402084374998,64.0,97.0
829,228.88928296875,229.11610174999998,61.0,127.0
830,229.88811796874998,230.23146749999998,63.0,117.0
831,229.38870046875,230.24603384374998,54.0,93.0
832,229.63840921874998,230.29597559374997,59.0,81.0
833,229.13899171875,230.57273612499998,47.0,86.0
834,230.38753546874997,230.98267465625,54.0,86.0
835,230.63724421874997,231.055506375,63.0,112.0
836,230.13782671874998,231.06383,66.0,127.0
837,230.88695296875,231.10336721874998,59.0,90.0
838,231.63607921874998,232.07515043749999,56.0,83.0
839,231.88578796874998,232.1084449375,61.0,74.0
840,231.13666171875,232.17919575,37.0,97.0
841,231.38637046875,232.32069737499998,49.0,90.0
842,232.13549671874998,232.41641906249998,64.0,102.0
843,232.63491421875,232.72855499999997,59.0,69.0
844,232.63491421875,232.75144496874998,63.0,102.0
845,232.38520546874997,232.77017312499999,56.0,88.0
846,232.63491421875,232.7826585625,44.0,92.0
847,232.88462296875,234.0145550625,59.0,117.0
848,232.88462296875,234.0145550625,63.0,117.0
849,232.88462296875,234.0228786875,56.0,122.0
850,232.88462296875,234.23513112499998,44.0,100.0
851,234.13316671874998,234.46403081249997,56.0,117.0
852,234.13316671874998,234.5389434375,63.0,122.0
853,234.13316671874998,234.55350978124997,59.0,100.0
854,234.38287546874997,234.99050009374997,44.0,71.0
855,234.63258421875,235.08205996874997,59.0,95.0
856,234.63258421875,235.10494993749998,63.0,117.0
857,234.63258421875,235.10703084374998,56.0,117.0
858,235.13200171875,235.3962768125,61.0,127.0
859,235.13200171875,235.40668134375,56.0,122.0
860,235.13200171875,235.40876225,64.0,107.0
861,235.13200171875,235.4129240625,49.0,127.0
862,236.63025421875,236.73221862499997,54.0,127.0
863,236.63025421875,236.82377849999997,42.0,102.0
864,236.87996296875,237.9349824375,63.0,100.0
865,236.87996296875,237.95579149999998,59.0,96.0
866,236.87996296875,237.96827693749998,56.0,107.0
867,236.87996296875,238.24503746874998,44.0,117.0
868,238.12850671874997,238.3553255,56.0,99.0
869,238.37821546874997,238.57798246874998,44.0,102.0
870,238.12850671874997,238.76318312499998,59.0,102.0
871,238.12850671874997,238.7756685625,63.0,122.0
872,238.62792421875,238.7839921875,56.0,96.0
873,239.12734171875,239.46444853124999,61.0,127.0
874,240.12617671874997,240.22606021874998,61.0,79.0
875,239.12734171875,240.22814112499998,57.0,99.0
876,239.62675921874998,240.24686928124999,54.0,59.0
877,240.12617671874997,240.24686928124999,66.0,85.0
878,239.12734171875,240.27184015625,42.0,107.0
879,240.62559421875,240.70050684375,66.0,78.0
880,240.62559421875,240.75252949999998,57.0,96.0
881,240.62559421875,240.76709584374998,61.0,107.0
882,240.62559421875,240.77541946875,54.0,102.0
883,240.62559421875,240.84825118749998,42.0,81.0
884,240.87530296875,241.8470861875,49.0,76.0
885,240.87530296875,241.99899234375,64.0,92.0
886,240.87530296875,242.01563959375,61.0,97.0
887,240.87530296875,242.02396321874997,56.0,122.0
888,241.87413796874998,242.21540659374998,49.0,42.0
889,242.12384671874997,242.39020271874998,56.0,102.0
890,242.37355546874997,242.60037425,49.0,112.0
891,242.12384671874997,242.65031599999998,61.0,127.0
892,242.62326421875,242.90002474999997,56.0,112.0
893,242.12384671874997,243.0540118125,64.0,107.0
894,242.87297296875,243.15597621874997,61.0,117.0
895,243.62209921874998,243.9030215625,57.0,100.0
896,243.87180796874998,244.22972384374998,61.0,99.0
897,243.37239046874998,244.23804746874998,52.0,83.0
898,243.12268171875,244.96220284375,45.0,95.0
899,244.12151671874997,245.09121903124998,69.0,88.0
900,244.37122546874997,245.10786628124998,52.0,99.0
901,244.62093421875,245.122432625,61.0,97.0
902,244.87064296875,245.12451353125,64.0,73.0
903,245.86947796874998,246.1753711875,63.0,127.0
904,245.37006046874998,246.21282749999997,54.0,99.0
905,245.61976921874998,246.30438737499998,59.0,88.0
906,245.12035171875,246.53120615625,47.0,82.0
907,246.36889546875,246.5332870625,54.0,95.0
908,246.11918671874997,247.04727090625,66.0,122.0
909,246.61860421875,247.053513625,63.0,127.0
910,246.86831296875,247.21790521875,59.0,100.0
911,247.61743921874998,248.19593115624997,52.0,99.0
912,247.86714796874998,248.45396353125,59.0,99.0
913,247.36773046874998,248.46020624999997,47.0,70.0
914,247.11802171875,248.47477259374998,40.0,74.0
915,248.36656546875,248.57673699999998,52.0,107.0
916,248.61627421875,249.09488265624998,64.0,102.0
917,248.11685671874997,249.11152990624998,68.0,127.0
918,248.86598296875,249.15730984374997,59.0,117.0
919,249.86481796874997,250.04377590624998,63.0,107.0
920,249.86481796874997,250.04585681249998,68.0,97.0
921,249.86481796874997,250.06666587499998,60.0,60.0
922,249.61510921874998,250.15198303124998,56.0,96.0
923,249.36540046874998,250.48908984374998,51.0,78.0
924,250.36423546875,250.48908984374998,56.0,112.0
925,249.11569171874999,250.5203034375,44.0,97.0
926,250.11452671874997,250.64931962499998,63.0,127.0
927,250.61394421875,251.17370799999998,60.0,117.0
928,250.86365296875,251.20492159375,63.0,127.0
929,250.11452671874997,251.23405428125,68.0,107.0
930,251.86248796874997,252.07890221875,61.0,100.0
931,252.11219671874997,252.172543,61.0,40.0
932,251.61277921874998,252.20583749999997,49.0,107.0
933,252.11219671874997,252.49300256249998,64.0,97.0
934,251.11336171874999,252.50132618749998,37.0,90.0
935,251.36307046874998,252.52213525,44.0,72.0
936,252.36190546875,252.63866599999997,49.0,102.0
937,252.11219671874997,253.02779546874999,68.0,127.0
938,252.86132296875,253.11519353125,64.0,89.0
939,252.61161421875,253.1172744375,61.0,127.0
940,253.86015796874997,254.1743748125,63.0,122.0
941,253.61044921874998,254.23055928124998,59.0,96.0
942,253.36074046874998,254.24096381249998,54.0,99.0
943,253.11103171874998,254.48442984374998,47.0,81.0
944,254.35957546875,254.49483437499998,54.0,86.0
945,254.60928421875,255.08789265624998,63.0,102.0
946,254.10986671874997,255.09621628124998,66.0,127.0
947,254.85899296875,255.16280528124997,59.0,92.0
948,255.60811921874998,256.15539756249996,54.0,96.0
949,255.35841046874998,256.4134299375,49.0,55.0
950,255.85782796874997,256.434239,57.0,100.0
951,256.35724546874997,256.44048171875,54.0,95.0
952,255.10870171874998,256.475857125,42.0,92.0
953,256.10753671875,256.825449375,66.0,127.0
954,256.60695421875,256.96070828125,61.0,117.0
955,256.85666296874996,257.125099875,57.0,102.0
956,257.60578921875,258.18844296875,49.0,90.0
957,257.85549796875,258.3028928125,56.0,99.0
958,257.35608046875,258.48809346875,44.0,34.0
959,257.10637171875,258.52971159375,37.0,81.0
960,258.35491546875,258.65872778125,49.0,99.0
961,258.60462421874996,258.91467925,56.0,107.0
962,258.10520671874997,259.12901259374996,64.0,100.0
963,258.85433296875,259.15814528125,61.0,112.0
964,259.85316796875,260.088310375,61.0,107.0
965,259.35375046875,260.138252125,52.0,90.0
966,259.60345921875,260.14449484375,57.0,86.0
967,259.10404171874995,260.88321656249997,45.0,83.0
968,260.35258546874996,261.03720362499996,52.0,79.0
969,260.10287671875,261.06217449999997,64.0,102.0
970,260.60229421875,261.11211625,61.0,107.0
971,260.85200296874996,261.1495725625,57.0,92.0
972,261.35142046875,262.21707746875,54.0,85.0
973,261.60112921875,262.2982328125,59.0,76.0
974,261.85083796875,262.30863734375,63.0,102.0
975,262.35025546875,262.6395014375,54.0,83.0
976,261.10171171875,262.73314221875,47.0,77.0
977,262.59996421874996,263.04111634375,59.0,95.0
978,262.84967296875,263.08273446875,63.0,112.0
979,262.10054671874997,263.084815375,66.0,112.0
980,263.12019078124996,263.90885425,37.0,92.0
981,263.6050419375,263.98584778124996,61.0,58.0
982,263.600880125,264.01289956249997,49.0,44.0
983,264.0794885625,264.1211066875,68.0,55.0
984,264.083650375,264.15023937499996,64.0,57.0
985,264.07324584375,264.17312934374996,61.0,74.0
986,264.56433971875,266.4766925625,54.0,69.0
987,264.57266334375,266.54536246875,47.0,61.0
988,264.5539351875,266.697268625,66.0,97.0
989,264.55601609375,266.71599678125,63.0,102.0
990,264.558097,266.93241103124996,59.0,86.0
991,267.08639809375,267.92292240625,64.0,83.0
992,267.0843171875,267.9333269375,61.0,96.0
993,267.0843171875,267.97078324999995,45.0,75.0
994,267.088479,268.13101303125,57.0,96.0
995,268.5742460625,271.0546863125,44.0,74.0
996,268.57632696875,271.15665071875,56.0,90.0
997,268.58048878125,271.16913615625,59.0,82.0
998,268.578407875,271.241967875,63.0,89.0
999,273.1355925625,276.32978365624996,49.0,96.0
1000,273.08773171875,276.34226909374996,44.0,26.0
1001,272.9774436875,276.35683543749997,64.0,63.0
1002,272.906692875,276.36932087499997,61.0,59.0
1003,273.04195178124996,276.37140178125,68.0,47.0
1004,273.15848253125,276.3901299375,73.0,81.0
1005,272.973281875,276.410939,37.0,35.0
