,start,end,pitch,velocity
0,31.570533997916666,31.782227341666665,62.0,86.0
1,31.812469247916663,32.04835611666667,60.0,85.0
2,32.054404497916664,32.46972667708333,59.0,86.0
3,32.538274997916666,32.68948452916666,62.0,84.0
4,32.78021024791666,33.264080747916665,62.0,85.0
5,33.264080747916665,33.69553194375,66.0,85.0
6,33.74795124791667,34.4152893125,67.0,84.0
7,34.47375699791667,34.7298051375,66.0,87.0
8,34.715692247916664,35.17738535,64.0,85.0
9,35.199562747916666,35.622949435416665,62.0,84.0
10,35.68343324791667,36.318513279166666,60.0,86.0
11,37.37697999791666,37.58060883333333,62.0,86.0
12,37.61891524791667,38.298350074999995,60.0,80.0
13,38.34472099791667,39.243913677083334,59.0,82.0
14,39.312461997916664,39.52213921458333,59.0,83.0
15,39.55439724791666,39.774155099999994,57.0,82.0
16,39.796332497916666,40.30842877708333,55.0,86.0
17,40.28020299791667,40.55439628125,59.0,86.0
18,40.522138247916665,41.024153891666664,64.0,86.0
19,41.00600874791667,41.508024391666666,59.0,78.0
20,41.48987924791666,42.46568475625,62.0,89.0
21,43.42536124791666,43.61487719375,59.0,85.0
22,43.66729649791667,44.001973593749995,64.0,87.0
23,44.15116699791666,44.3104410375,62.0,80.0
24,44.393102247916666,44.695521310416666,64.0,85.0
25,44.87697274791667,45.18947244583333,55.0,83.0
26,45.36084324791666,46.820519256249995,57.0,81.0
27,47.054389997916665,47.19148663958333,62.0,84.0
28,47.29632524791666,47.465679922916664,60.0,84.0
29,47.53826049791667,47.939469787499995,59.0,84.0
30,48.02213099791666,48.264066247916666,62.0,85.0
31,48.264066247916666,48.57253369166666,62.0,86.0
32,48.74793674791666,49.068500954166666,66.0,84.0
33,49.23180724791666,49.784226068749994,67.0,84.0
34,49.95761299791666,50.141080562499994,66.0,84.0
35,50.19954824791667,50.68341874791666,64.0,86.0
36,50.68341874791666,51.05640225833333,62.0,85.0
37,51.16728924791666,52.51809439375,60.0,85.0
38,52.860835997916666,53.03422292708333,62.0,84.0
39,53.102771247916664,53.44752897916666,60.0,83.0
40,53.586641747916666,54.63301170416666,59.0,80.0
41,54.79631799791667,54.9676888,59.0,84.0
42,55.038253247916664,55.197527287499994,62.0,88.0
43,55.28018849791666,55.67736553333333,64.0,86.0
44,55.76405899791666,55.90922014791666,67.0,82.0
45,56.00599424791666,56.36284874166666,67.0,85.0
46,56.48986474791666,56.79631606458333,64.0,88.0
47,56.973735247916665,57.699540997916664,67.0,85.0
48,57.94147624791666,58.104782541666665,67.0,80.0
49,58.183411497916666,58.40316935,71.0,85.0
50,58.42534674791666,58.673330379166664,69.0,84.0
51,58.66728199791666,58.804378639583334,67.0,80.0
52,58.909217247916665,61.953569143749995,67.0,80.0
53,63.505986997916665,63.63703525833333,64.0,86.0
54,63.74792224791666,63.89308339791666,67.0,77.0
55,63.98985749791667,64.57453435208333,67.0,83.0
56,64.71566324791667,64.88905017708333,64.0,85.0
57,64.95759849791666,65.31243686458333,64.0,95.0
58,65.44146899791666,65.60880754583333,67.0,78.0
59,65.68340424791667,66.40920999791666,67.0,80.0
60,66.40920999791666,66.65920975625,55.0,85.0
61,66.65114524791666,66.84670957499999,57.0,82.0
62,66.89308049791666,67.03622552083333,59.0,85.0
63,67.13501574791667,69.02009457083334,59.0,82.0
64,71.22976985416666,71.36081811458332,64.0,95.0
65,71.47573735833333,71.63501139791666,64.0,85.0
66,71.74388226041667,71.91122080833333,64.0,88.0
67,72.00396265416666,72.3749300375,67.0,82.0
68,72.49992991666666,72.85678441041667,67.0,86.0
69,72.92130047708334,73.22371953958333,64.0,90.0
70,73.37896132499999,73.54629987291666,64.0,85.0
71,73.63904171875,73.80638026666666,69.0,85.0
72,73.89508985833334,74.21162181041666,72.0,83.0
73,74.34267007083334,74.49589572916666,69.0,79.0
74,74.59468595624999,74.92129854375,71.0,82.0
75,75.02008877083333,77.44145739791666,71.0,84.0
76,78.95960109166666,79.13903640208333,64.0,89.0
77,79.19548796041666,79.33258460208333,67.0,78.0
78,79.43943933749999,79.65516493541666,67.0,80.0
79,79.74387452708334,80.03016457291666,67.0,80.0
80,80.12089029166667,80.29226109375,64.0,86.0
81,80.395083575,80.60072853749999,64.0,85.0
82,80.67532523958333,81.68540490833333,67.0,77.0
83,81.84064669374999,81.95959819166666,64.0,88.0
84,82.0644368,82.19951731458333,67.0,85.0
85,82.32854944791666,82.93741982708333,71.0,86.0
86,83.00596814791666,83.1894357125,72.0,84.0
87,83.26806466875,83.78217707499999,69.0,88.0
88,83.76604805833333,84.2539508125,71.0,83.0
89,84.25193468541666,85.31644978541667,67.0,81.0
90,85.73983647291666,85.88499762291666,62.0,90.0
91,85.98378785,86.12088449166666,62.0,84.0
92,86.23580373541667,86.42330355416667,64.0,85.0
93,86.51402927291666,86.878948275,67.0,71.0
94,86.93539983333334,87.09669,64.0,88.0
95,87.2055608625,88.717656175,67.0,83.0
96,88.84870443541666,89.02612361874999,64.0,85.0
97,89.12088159166666,89.59668758333333,71.0,85.0
98,89.59467145625,90.06846132083332,64.0,82.0
99,90.12692900625,92.54628150625,69.0,86.0
100,94.72369875625,94.90918244791666,62.0,88.0
101,94.99385978541666,95.34668202499999,74.0,95.0
102,95.44950450625,95.78014934791666,71.0,86.0
103,95.93135887916667,96.45756804791667,69.0,84.0
104,96.91119664166666,97.23579310208333,74.0,91.0
105,97.42934130208333,97.74385712708333,66.0,77.0
106,97.84466348125,98.73780777916666,67.0,83.0
107,99.50191994375,99.64103271249999,67.0,82.0
108,99.74587132083333,100.10474194166666,62.0,88.0
109,100.24385471041666,100.42530614791666,64.0,85.0
110,100.50998348541665,100.89103150416666,67.0,84.0
111,100.98982173124999,101.26603114166666,64.0,88.0
112,101.47772448541666,102.75191680208333,67.0,85.0
113,103.35272267291666,103.59264179583333,64.0,85.0
114,103.60473855833332,104.08659293125,62.0,86.0
115,104.10272194791666,104.3224798,67.0,84.0
116,104.38094748541666,104.7458664875,69.0,88.0
117,104.86078573124999,105.217640225,71.0,84.0
118,105.33860784999999,105.86078476458333,72.0,84.0
119,105.93336533958333,106.330542375,71.0,86.0
120,106.32046173958332,106.78215484166667,69.0,79.0
121,106.78820322291666,107.39505747499999,67.0,85.0
122,107.49586382916667,107.98578271041666,64.0,91.0
123,107.95957305833333,108.29626628125,67.0,85.0
124,108.43739517708333,108.69949169791666,70.0,88.0
125,108.66723366458332,108.91723342291667,69.0,84.0
126,108.91118504166666,109.30836207708333,67.0,82.0
127,109.41320068541665,110.09465163958333,67.0,86.0
128,110.15513545208333,110.30634498333333,62.0,86.0
129,110.39303844791667,110.75795744999999,74.0,93.0
130,110.87690894791666,111.31239239791667,71.0,86.0
131,111.36682782916667,112.01803687708333,69.0,81.0
132,112.33658495625,112.78013291458333,74.0,93.0
133,112.79021354999999,113.17529382291666,66.0,85.0
134,113.29021306666667,114.2781153375,67.0,86.0
135,114.98375981666666,115.21763055833333,64.0,85.0
136,115.24384021041666,115.54625927291666,62.0,86.0
137,115.72771071041666,115.88900087708333,64.0,87.0
138,115.98779110416666,116.41117779166666,67.0,80.0
139,116.47569385833333,116.90512892708333,64.0,85.0
140,116.9635966125,118.15109546458332,67.0,86.0
141,118.83456254583332,119.03415912708333,64.0,85.0
142,119.08456230416667,119.45149743333333,62.0,86.0
143,119.58456182083333,119.75996487708333,67.0,87.0
144,119.85875510416666,120.21560959791665,69.0,86.0
145,120.32448046041667,120.66923819166666,71.0,85.0
146,120.80230257916666,121.37689879791667,72.0,85.0
147,121.27609244374999,121.62286630208332,71.0,85.0
148,121.73576941875,122.16318836041665,69.0,86.0
149,122.22367217291666,122.80834902708332,67.0,85.0
150,123.00592948124999,123.32044530625,64.0,89.0
151,123.46359032916666,123.62488049583332,67.0,86.0
152,123.72971910416666,124.11076712291666,64.0,91.0
153,124.22971862083332,125.33225678125,69.0,88.0
154,125.3744254375,127.03729009375,67.0,75.0
155,158.31878185,158.44983011041668,64.0,86.0
156,158.5607171,158.70587825,67.0,77.0
157,158.80265235000002,159.38732920416666,67.0,83.0
158,159.5284581,159.70184502916666,64.0,85.0
159,159.77039335,160.1252317166667,64.0,95.0
160,160.25426385,160.42160239791667,67.0,78.0
161,160.4961991,161.22200485000002,67.0,80.0
162,161.22200485000002,161.47200460833335,55.0,85.0
163,161.4639401,161.65950442708333,57.0,82.0
164,161.70587535,161.84902037291667,59.0,85.0
165,161.9478106,163.83288942291668,59.0,82.0
166,166.04256470625,166.17361296666667,64.0,95.0
167,166.2885322104167,166.44780625,64.0,85.0
168,166.5566771125,166.72401566041668,64.0,88.0
169,166.81675750625,167.18772488958334,67.0,82.0
170,167.31272476875,167.6695792625,67.0,86.0
171,167.73409532916668,168.03651439166669,64.0,90.0
172,168.19175617708333,168.359094725,64.0,85.0
173,168.45183657083334,168.61917511875,69.0,85.0
174,168.70788471041666,169.02441666250002,72.0,83.0
175,169.15546492291668,169.30869058125,69.0,79.0
176,169.40748080833333,169.73409339583333,71.0,82.0
177,169.83288362291668,172.25425225,71.0,84.0
178,173.77239594375,173.95183125416668,64.0,89.0
179,174.0082828125,174.1453794541667,67.0,78.0
180,174.25223418958333,174.4679597875,67.0,80.0
181,174.55666937916666,174.842959425,67.0,80.0
182,174.93368514375,175.10505594583333,64.0,86.0
183,175.20787842708333,175.41352338958333,64.0,85.0
184,175.48812009166667,176.49819976041667,67.0,77.0
185,176.65344154583335,176.77239304375001,64.0,88.0
186,176.87723165208334,177.01231216666667,67.0,85.0
187,177.14134430000001,177.75021467916667,71.0,86.0
188,177.818763,178.00223056458333,72.0,84.0
189,178.08085952083334,178.59497192708335,69.0,88.0
190,178.57884291041668,179.06674566458332,71.0,83.0
191,179.0647295375,180.1292446375,67.0,81.0
192,180.552631325,180.697792475,62.0,90.0
193,180.79658270208336,180.93367934375001,62.0,84.0
194,181.0485985875,181.23609840625,64.0,85.0
195,181.326824125,181.69174312708333,67.0,71.0
196,181.74819468541668,181.90948485208332,64.0,88.0
197,182.01835571458332,183.53045102708333,67.0,83.0
198,183.66149928750002,183.83891847083333,64.0,85.0
199,183.93367644375002,184.40948243541666,71.0,85.0
200,184.40746630833334,184.88125617291666,64.0,82.0
201,184.93972385833334,187.35907635833334,69.0,86.0
202,189.53649360833333,189.7219773,62.0,88.0
203,189.8066546375,190.15947687708334,74.0,95.0
204,190.26229935833334,190.5929442,71.0,86.0
205,190.74415373125,191.2703629,69.0,84.0
206,191.72399149375002,192.0485879541667,74.0,91.0
207,192.24213615416667,192.55665197916667,66.0,77.0
208,192.65745833333335,193.55060263125,67.0,83.0
209,194.31471479583334,194.45382756458332,67.0,82.0
210,194.55866617291667,194.91753679375,62.0,88.0
211,195.0566495625,195.238101,64.0,85.0
212,195.3227783375,195.70382635625,67.0,84.0
213,195.80261658333333,196.07882599375,64.0,88.0
214,196.2905193375,197.56471165416667,67.0,85.0
215,198.16551752499998,198.40543664791667,64.0,85.0
216,198.41753341041667,198.89938778333334,62.0,86.0
217,198.9155168,199.13527465208335,67.0,84.0
218,199.1937423375,199.55866133958335,69.0,88.0
219,199.67358058333332,200.03043507708333,71.0,84.0
220,200.15140270208332,200.67357961666667,72.0,84.0
221,200.74616019166666,201.14333722708335,71.0,86.0
222,201.13325659166668,201.59494969375,69.0,79.0
223,201.600998075,202.20785232708334,67.0,85.0
224,202.30865868125,202.7985775625,64.0,91.0
225,202.77236791041668,203.10906113333334,67.0,85.0
226,203.25019002916667,203.51228655,70.0,88.0
227,203.48002851666666,203.730028275,69.0,84.0
228,203.72397989375,204.12115692916666,67.0,82.0
229,204.2259955375,204.9074464916667,67.0,86.0
230,204.96793030416666,205.11913983541666,62.0,86.0
231,205.2058333,205.57075230208335,74.0,93.0
232,205.68970380000002,206.12518725,71.0,86.0
233,206.17962268125,206.83083172916668,69.0,81.0
234,207.14937980833332,207.59292776666666,74.0,93.0
235,207.60300840208333,207.988088675,66.0,85.0
236,208.10300791875,209.09091018958333,67.0,86.0
237,209.79655466875,210.03042541041668,64.0,85.0
238,210.0566350625,210.359054125,62.0,86.0
239,210.54050556250002,210.7017957291667,64.0,87.0
240,210.80058595625002,211.22397264375002,67.0,80.0
241,211.2884887104167,211.71792377916665,64.0,85.0
242,211.77639146458336,212.96389031666666,67.0,86.0
243,213.64735739791666,213.84695397916667,64.0,85.0
244,213.89735715625,214.26429228541667,62.0,86.0
245,214.39735667291666,214.57275972916668,67.0,87.0
246,214.67154995625,215.02840445,69.0,86.0
247,215.1372753125,215.48203304375,71.0,85.0
248,215.61509743125,216.18969365,72.0,85.0
249,216.08888729583333,216.43566115416667,71.0,85.0
250,216.54856427083334,216.9759832125,69.0,86.0
251,217.036467025,217.62114387916665,67.0,85.0
252,217.81872433333334,218.13324015833334,64.0,89.0
253,218.27638518125002,218.43767534791667,67.0,86.0
254,218.54251395625,218.92356197499998,64.0,91.0
255,219.04251347291665,220.1453349875,69.0,88.0
256,220.18767365625,221.86509138958334,67.0,75.0
257,235.98806160833334,236.1735453,62.0,88.0
258,236.2582226375,236.61104487708332,74.0,95.0
259,236.71386735833335,237.04451219999999,71.0,86.0
260,237.19572173125,237.72193090000002,69.0,84.0
261,238.17555949375,238.50015595416667,74.0,91.0
262,238.69370415416665,239.00821997916665,66.0,77.0
263,239.10902633333333,240.00217063125,67.0,83.0
264,240.76628279583332,240.90539556458333,67.0,82.0
265,241.01023417291668,241.36910479375,62.0,88.0
266,241.50821756250002,241.689669,64.0,85.0
267,241.7743463375,242.15539435624999,67.0,84.0
268,242.25418458333334,242.53039399375,64.0,88.0
269,242.74208733749998,244.01627965416668,67.0,85.0
270,244.617085525,244.85700464791665,64.0,85.0
271,244.86910141041668,245.35095578333335,62.0,86.0
272,245.3670848,245.58684265208333,67.0,84.0
273,245.6453103375,246.01022933958333,69.0,88.0
274,246.12514858333333,246.48200307708333,71.0,84.0
275,246.60297070208333,247.12514761666665,72.0,84.0
276,247.19772819166667,247.59490522708333,71.0,86.0
277,247.5848245916667,248.04651769375,69.0,79.0
278,248.05256607500002,248.65942032708335,67.0,85.0
279,248.76022668125,249.2501455625,64.0,91.0
280,249.22393591041669,249.56062913333335,67.0,85.0
281,249.70175802916668,249.96385455,70.0,88.0
282,249.93159651666667,250.181596275,69.0,84.0
283,250.17554789375,250.57272492916667,67.0,82.0
284,250.67756353750002,251.35901449166667,67.0,86.0
285,251.41949830416667,251.57070783541667,62.0,86.0
286,251.6574013,252.02232030208333,74.0,93.0
287,252.1412718,252.57675525000002,71.0,86.0
288,252.63119068125002,253.28239972916668,69.0,81.0
289,253.60094780833333,254.04449576666667,74.0,93.0
290,254.05457640208334,254.43965667499998,66.0,85.0
291,254.55457591875,255.54247818958333,67.0,86.0
292,256.24812266875,256.4819934104167,64.0,85.0
293,256.5082030625,256.810622125,62.0,86.0
294,256.9920735625,257.15336372916664,64.0,87.0
295,257.25215395625,257.67554064375,67.0,80.0
296,257.7400567104167,258.16949177916666,64.0,85.0
297,258.2279594645833,259.4154583166667,67.0,86.0
298,260.0989253979167,260.29852197916665,64.0,85.0
299,260.34892515625,260.7158602854167,62.0,86.0
300,260.84892467291667,261.02432772916666,67.0,87.0
301,261.12311795625,261.47997245,69.0,86.0
302,261.5888433125,261.93360104375,71.0,85.0
303,262.06666543125,262.64126165,72.0,85.0
304,262.54045529583334,262.8872291541667,71.0,85.0
305,263.0001322708333,263.4275512125,69.0,86.0
306,263.488035025,264.07271187916666,67.0,85.0
307,264.26424395208335,264.47392116875,72.0,87.0
308,264.50617920208333,265.83682307708335,71.0,86.0
309,265.8428714583333,267.37512804166664,67.0,85.0
310,268.35294967708336,269.53036789375,69.0,82.0
311,269.5202872583333,271.83278502291665,67.0,77.0
