,start,end,pitch,velocity
0,21.900236027083334,22.058480491666668,67.0,65.0
1,22.059810277083333,22.378958777083334,67.0,72.0
2,22.378958777083334,22.777894402083334,70.0,70.0
3,22.698107277083334,23.026564275,72.0,72.0
4,23.01725577708333,23.339063847916666,75.0,74.0
5,23.336404277083332,24.452094241666668,72.0,98.0
6,24.453424027083333,24.611668491666666,72.0,69.0
7,24.61299827708333,24.932146777083332,72.0,77.0
8,24.932146777083332,25.269912272916667,75.0,74.0
9,25.251295277083333,25.570443777083334,77.0,81.0
10,25.570443777083334,25.888262491666666,79.0,98.0
11,25.889592277083334,27.166186277083334,79.0,104.0
12,27.166186277083334,27.567781472916668,67.0,74.0
13,27.485334777083335,27.839057697916665,70.0,68.0
14,27.80448327708333,28.164855125,72.0,81.0
15,28.123631777083332,28.442780277083333,75.0,70.0
16,28.442780277083333,29.719374277083332,72.0,79.0
17,29.719374277083332,30.094373764583334,70.0,87.0
18,30.038522777083333,30.356341491666665,72.0,79.0
19,30.357671277083334,30.676819777083335,72.0,95.0
20,30.676819777083335,30.995968277083332,70.0,100.0
21,30.995968277083332,32.271232491666666,67.0,108.0
22,32.27256227708333,32.67149790208333,67.0,86.0
23,32.591710777083335,32.94011455625,70.0,73.0
24,32.91085927708333,33.23000777708333,72.0,74.0
25,33.23000777708333,33.549156277083334,75.0,76.0
26,33.549156277083334,34.82575027708333,72.0,104.0
27,34.82575027708333,35.188781695833335,70.0,75.0
28,35.144898777083334,35.462717491666666,72.0,74.0
29,35.46404727708333,35.783195777083336,72.0,86.0
30,35.783195777083336,36.10234427708333,70.0,74.0
31,36.10234427708333,37.378938277083336,67.0,90.0
32,37.378938277083336,37.69675699166667,72.0,74.0
33,37.69808677708333,38.01723527708333,72.0,74.0
34,38.01723527708333,38.176809527083336,75.0,76.0
35,38.176809527083336,38.49462824166667,77.0,83.0
36,38.49595802708333,39.772552027083336,77.0,98.0
37,39.772552027083336,39.93079649166667,74.0,85.0
38,39.932126277083334,40.25127477708333,74.0,87.0
39,40.25127477708333,40.570423277083336,72.0,77.0
40,40.570423277083336,40.88957177708333,70.0,76.0
41,40.88957177708333,41.207390491666665,72.0,67.0
42,41.20872027708333,44.87892802708333,72.0,83.0
43,44.87892802708333,45.03717249166667,67.0,65.0
44,45.03850227708333,45.357650777083336,67.0,72.0
45,45.357650777083336,45.756586402083336,70.0,70.0
46,45.67679927708333,46.005256275,72.0,72.0
47,45.99594777708333,46.317755847916665,75.0,74.0
48,46.315096277083335,47.59169027708333,72.0,98.0
49,47.59169027708333,47.95605148125,70.0,81.0
50,47.910838777083335,48.22865749166667,72.0,76.0
51,48.22998727708333,48.549135777083336,72.0,90.0
52,48.549135777083336,48.86828427708333,70.0,77.0
53,48.86828427708333,50.144878277083336,67.0,104.0
54,50.144878277083336,50.563760683333335,72.0,83.0
55,50.46402677708333,50.83902626458333,75.0,64.0
56,50.78317527708333,51.1355684125,77.0,73.0
57,51.102323777083335,51.42147227708333,79.0,85.0
58,51.42147227708333,52.698066277083335,77.0,85.0
59,52.698066277083335,53.01588499166667,74.0,83.0
60,53.01721477708333,53.336363277083336,74.0,108.0
61,53.336363277083336,53.66083091875,72.0,74.0
62,53.65551177708333,53.97466027708333,70.0,86.0
63,53.97466027708333,55.25125427708333,72.0,108.0
64,55.25125427708333,55.65018990208333,67.0,86.0
65,55.57040277708333,55.91880655625,70.0,73.0
66,55.889551277083335,56.20869977708333,72.0,74.0
67,56.20869977708333,56.527848277083336,75.0,76.0
68,56.527848277083336,57.80444227708333,72.0,104.0
69,57.80444227708333,58.16747369583333,70.0,75.0
70,58.123590777083336,58.44140949166667,72.0,74.0
71,58.442739277083334,58.76188777708333,72.0,86.0
72,58.76188777708333,59.081036277083335,70.0,74.0
73,59.081036277083335,60.35763027708333,67.0,90.0
74,60.35763027708333,60.676778777083335,72.0,71.0
75,60.676778777083335,60.99592727708333,75.0,74.0
76,60.99592727708333,61.3164055625,79.0,77.0
77,61.31507577708333,61.672788054166666,75.0,67.0
78,61.634224277083334,62.91081827708333,77.0,98.0
79,62.91081827708333,63.22863699166667,74.0,87.0
80,63.229966777083334,63.54911527708333,74.0,98.0
81,63.54911527708333,63.882891416666666,72.0,76.0
82,63.868263777083335,64.18741227708334,70.0,79.0
83,64.18741227708334,66.09166499375,72.0,86.0
84,75.67675827708334,76.03181098333333,72.0,85.0
85,75.99590677708333,76.31505527708333,75.0,73.0
86,76.31505527708333,76.63420377708333,79.0,77.0
87,76.63420377708333,76.95335227708333,75.0,75.0
88,76.95335227708333,78.22994627708333,77.0,108.0
89,78.22994627708333,78.60760533541666,72.0,81.0
90,78.54909477708333,78.86824327708334,75.0,61.0
91,78.86824327708334,79.18739177708333,77.0,85.0
92,79.18739177708333,79.50654027708333,79.0,74.0
93,79.50654027708333,80.78313427708333,72.0,87.0
94,80.78313427708333,81.10095299166666,79.0,104.0
95,81.10228277708333,81.42010149166667,79.0,108.0
96,81.42143127708333,81.73924999166667,79.0,112.0
97,81.74057977708333,82.05839849166667,79.0,114.0
98,82.05972827708334,82.69802527708333,79.0,108.0
99,82.69802527708333,83.33632227708333,75.0,87.0
100,83.33632227708333,83.65414099166667,77.0,86.0
101,83.65547077708334,83.97328949166666,77.0,81.0
102,83.97461927708333,84.13419352708333,77.0,87.0
103,84.13419352708333,84.61291627708333,79.0,86.0
104,84.61291627708333,85.88951027708333,77.0,98.0
105,85.88951027708333,86.28844590208334,72.0,100.0
106,86.20865877708333,86.52780727708333,75.0,67.0
107,86.52780727708333,86.84695577708334,77.0,73.0
108,86.84695577708334,87.16610427708333,79.0,93.0
109,87.16610427708333,88.44269827708334,77.0,112.0
110,88.44269827708334,88.76051699166666,74.0,98.0
111,88.76184677708333,89.07966549166666,74.0,100.0
112,89.08099527708333,89.40014377708333,74.0,87.0
113,89.40014377708333,89.71929227708333,70.0,100.0
114,89.71929227708333,90.99588627708333,67.0,111.0
115,90.99588627708333,91.31370499166667,74.0,69.0
116,91.31503477708333,91.63285349166667,74.0,93.0
117,91.63418327708334,91.95333177708333,74.0,98.0
118,91.95333177708333,92.27115049166666,70.0,87.0
119,92.27248027708333,92.59162877708333,70.0,95.0
120,92.59162877708333,92.90944749166667,67.0,95.0
121,92.91077727708333,93.22859599166667,67.0,100.0
122,93.22992577708334,93.54907427708334,67.0,86.0
123,93.54907427708334,93.86822277708333,70.0,95.0
124,93.86822277708333,94.18737127708333,67.0,90.0
125,94.18737127708333,94.50651977708333,70.0,86.0
126,94.50651977708333,94.82566827708334,74.0,111.0
127,94.82566827708334,97.659441,72.0,95.0
128,116.36819202708334,116.52643649166667,67.0,65.0
129,116.52776627708333,116.84691477708333,67.0,72.0
130,116.84691477708333,117.24585040208333,70.0,70.0
131,117.16606327708334,117.494520275,72.0,72.0
132,117.48521177708334,117.80701984791666,75.0,74.0
133,117.80436027708333,118.92005024166667,72.0,98.0
134,118.92138002708333,119.07962449166666,72.0,69.0
135,119.08095427708334,119.40010277708333,72.0,77.0
136,119.40010277708333,119.73786827291667,75.0,74.0
137,119.71925127708333,120.03839977708333,77.0,81.0
138,120.03839977708333,120.35621849166667,79.0,98.0
139,120.35754827708334,121.63414227708333,79.0,104.0
140,121.63414227708333,122.03573747291667,67.0,74.0
141,121.95329077708334,122.30701369791666,70.0,68.0
142,122.27243927708334,122.632811125,72.0,81.0
143,122.59158777708333,122.91073627708333,75.0,70.0
144,122.91073627708333,124.18733027708333,72.0,79.0
145,124.18733027708333,124.56232976458334,70.0,87.0
146,124.50647877708333,124.82429749166667,72.0,79.0
147,124.82562727708333,125.14477577708334,72.0,95.0
148,125.14477577708334,125.46392427708334,70.0,100.0
149,125.46392427708334,126.73918849166667,67.0,108.0
150,126.74051827708334,127.13945390208333,67.0,86.0
151,127.05966677708334,127.40807055625,70.0,73.0
152,127.37881527708333,127.69796377708333,72.0,74.0
153,127.69796377708333,128.01711227708333,75.0,76.0
154,128.01711227708333,129.29370627708334,72.0,104.0
155,129.29370627708334,129.65673769583333,70.0,75.0
156,129.61285477708333,129.93067349166665,72.0,74.0
157,129.93200327708334,130.25115177708332,72.0,86.0
158,130.25115177708332,130.57030027708333,70.0,74.0
159,130.57030027708333,131.84689427708332,67.0,90.0
160,131.84689427708332,132.16471299166668,72.0,74.0
161,132.16604277708333,132.48519127708335,72.0,74.0
162,132.48519127708335,132.64476552708334,75.0,76.0
163,132.64476552708334,132.96258424166666,77.0,83.0
164,132.96391402708332,134.24050802708334,77.0,98.0
165,134.24050802708334,134.39875249166667,74.0,85.0
166,134.40008227708333,134.71923077708334,74.0,87.0
167,134.71923077708334,135.03837927708332,72.0,77.0
168,135.03837927708332,135.35752777708333,70.0,76.0
169,135.35752777708333,135.67534649166666,72.0,67.0
170,135.67667627708335,139.34688402708332,72.0,83.0
171,139.34688402708332,139.50512849166665,67.0,65.0
172,139.50645827708334,139.82560677708332,67.0,72.0
173,139.82560677708332,140.22454240208333,70.0,70.0
174,140.14475527708333,140.473212275,72.0,72.0
175,140.46390377708335,140.78571184791667,75.0,74.0
176,140.78305227708333,142.05964627708335,72.0,98.0
177,142.05964627708335,142.42400748125,70.0,81.0
178,142.37879477708333,142.69661349166665,72.0,76.0
179,142.69794327708334,143.01709177708332,72.0,90.0
180,143.01709177708332,143.33624027708333,70.0,77.0
181,143.33624027708333,144.61283427708332,67.0,104.0
182,144.61283427708332,145.03171668333334,72.0,83.0
183,144.93198277708333,145.30698226458333,75.0,64.0
184,145.25113127708335,145.6035244125,77.0,73.0
185,145.57027977708333,145.88942827708334,79.0,85.0
186,145.88942827708334,147.16602227708333,77.0,85.0
187,147.16602227708333,147.48384099166665,74.0,83.0
188,147.48517077708334,147.80431927708332,74.0,108.0
189,147.80431927708332,148.12878691875,72.0,74.0
190,148.12346777708333,148.44261627708335,70.0,86.0
191,148.44261627708335,149.71921027708333,72.0,108.0
192,149.71921027708333,150.11814590208334,67.0,86.0
193,150.03835877708335,150.38676255625,70.0,73.0
194,150.35750727708333,150.67665577708334,72.0,74.0
195,150.67665577708334,150.99580427708332,75.0,76.0
196,150.99580427708332,152.27239827708334,72.0,104.0
197,152.27239827708334,152.63542969583332,70.0,75.0
198,152.59154677708332,152.90936549166668,72.0,74.0
199,152.91069527708333,153.22984377708335,72.0,86.0
200,153.22984377708335,153.54899227708333,70.0,74.0
201,153.54899227708333,154.82558627708335,67.0,90.0
202,154.82558627708335,155.14473477708333,72.0,71.0
203,155.14473477708333,155.46388327708334,75.0,74.0
204,155.46388327708334,155.7843615625,79.0,77.0
205,155.78303177708332,156.14074405416667,75.0,67.0
206,156.10218027708333,157.37877427708332,77.0,98.0
207,157.37877427708332,157.69659299166668,74.0,87.0
208,157.69792277708333,158.01707127708335,74.0,98.0
209,158.01707127708335,158.35084741666665,72.0,76.0
210,158.33621977708333,158.65536827708334,70.0,79.0
211,158.65536827708334,160.63674854791665,72.0,86.0
212,170.14471427708332,170.49976698333333,72.0,85.0
213,170.46386277708334,170.78301127708332,75.0,73.0
214,170.78301127708332,171.10215977708333,79.0,77.0
215,171.10215977708333,171.42130827708334,75.0,75.0
216,171.42130827708334,172.69790227708333,77.0,108.0
217,172.69790227708333,173.07556133541667,72.0,81.0
218,173.01705077708334,173.33619927708332,75.0,61.0
219,173.33619927708332,173.65534777708334,77.0,85.0
220,173.65534777708334,173.97449627708332,79.0,74.0
221,173.97449627708332,175.25109027708334,72.0,87.0
222,175.25109027708334,175.56890899166666,79.0,104.0
223,175.57023877708332,175.88805749166667,79.0,108.0
224,175.88938727708333,176.20720599166665,79.0,112.0
225,176.20853577708334,176.52635449166667,79.0,114.0
226,176.52768427708332,177.16598127708332,79.0,108.0
227,177.16598127708332,177.80427827708334,75.0,87.0
228,177.80427827708334,178.12209699166667,77.0,86.0
229,178.12342677708332,178.44124549166668,77.0,81.0
230,178.44257527708334,178.60214952708333,77.0,87.0
231,178.60214952708333,179.08087227708333,79.0,86.0
232,179.08087227708333,180.35746627708332,77.0,98.0
233,180.35746627708332,180.75640190208333,72.0,100.0
234,180.67661477708333,180.99576327708334,75.0,67.0
235,180.99576327708334,181.31491177708332,77.0,73.0
236,181.31491177708332,181.63406027708334,79.0,93.0
237,181.63406027708334,182.91065427708332,77.0,112.0
238,182.91065427708332,183.22847299166668,74.0,98.0
239,183.22980277708334,183.54762149166666,74.0,100.0
240,183.54895127708332,183.86809977708333,74.0,87.0
241,183.86809977708333,184.18724827708334,70.0,100.0
242,184.18724827708334,185.46384227708333,67.0,111.0
243,185.46384227708333,185.78166099166666,74.0,69.0
244,185.78299077708334,186.10080949166667,74.0,93.0
245,186.10213927708332,186.42128777708334,74.0,98.0
246,186.42128777708334,186.73910649166666,70.0,87.0
247,186.74043627708332,187.05958477708333,70.0,95.0
248,187.05958477708333,187.37740349166666,67.0,95.0
249,187.37873327708334,187.69655199166667,67.0,100.0
250,187.69788177708332,188.01703027708334,67.0,86.0
251,188.01703027708334,188.33617877708332,70.0,95.0
252,188.33617877708332,188.65532727708333,67.0,90.0
253,188.65532727708333,188.97447577708334,70.0,86.0
254,188.97447577708334,189.29362427708332,74.0,111.0
255,189.29362427708332,190.92527098333332,72.0,95.0
256,190.57021827708334,190.92527098333332,72.0,85.0
257,190.88936677708332,191.20851527708334,75.0,73.0
258,191.20851527708334,191.52766377708332,79.0,77.0
259,191.52766377708332,191.84681227708333,75.0,75.0
260,191.84681227708333,193.12340627708332,77.0,108.0
261,193.12340627708332,193.50106533541665,72.0,81.0
262,193.44255477708333,193.76170327708334,75.0,61.0
263,193.76170327708334,194.08085177708332,77.0,85.0
264,194.08085177708332,194.40000027708334,79.0,74.0
265,194.40000027708334,195.67659427708332,72.0,87.0
266,195.67659427708332,195.99441299166668,79.0,104.0
267,195.99574277708334,196.31356149166666,79.0,108.0
268,196.31489127708332,196.63270999166667,79.0,112.0
269,196.63403977708333,196.95185849166666,79.0,114.0
270,196.95318827708334,197.59148527708334,79.0,108.0
271,197.59148527708334,198.22978227708333,75.0,87.0
272,198.22978227708333,198.54760099166666,77.0,86.0
273,198.54893077708334,198.86674949166667,77.0,81.0
274,198.86807927708332,199.02765352708334,77.0,87.0
275,199.02765352708334,199.50637627708332,79.0,86.0
276,199.50637627708332,200.78297027708334,77.0,98.0
277,200.78297027708334,201.18190590208334,72.0,100.0
278,201.10211877708332,201.42126727708333,75.0,67.0
279,201.42126727708333,201.74041577708334,77.0,73.0
280,201.74041577708334,202.05956427708333,79.0,93.0
281,202.05956427708333,203.33615827708334,77.0,112.0
282,203.33615827708334,203.65397699166667,74.0,98.0
283,203.65530677708333,203.97312549166668,74.0,100.0
284,203.97445527708334,204.29360377708332,74.0,87.0
285,204.29360377708332,204.61275227708333,70.0,100.0
286,204.61275227708333,205.88934627708332,67.0,111.0
287,205.88934627708332,206.20716499166667,74.0,69.0
288,206.20849477708333,206.52631349166666,74.0,93.0
289,206.52764327708334,206.84679177708333,74.0,98.0
290,206.84679177708333,207.16461049166668,70.0,87.0
291,207.16594027708334,207.48508877708332,70.0,95.0
292,207.48508877708332,207.80290749166667,67.0,95.0
293,207.80423727708333,208.12205599166666,67.0,100.0
294,208.12338577708334,208.44253427708333,67.0,86.0
295,208.44253427708333,208.76168277708334,70.0,95.0
296,208.76168277708334,209.08083127708332,67.0,90.0
297,209.08083127708332,209.39997977708333,70.0,86.0
298,209.39997977708333,209.71912827708334,74.0,111.0
299,209.71912827708334,211.39465790208334,72.0,95.0
300,210.99572227708333,211.39465790208334,72.0,100.0
301,211.31487077708334,211.63401927708333,75.0,67.0
302,211.63401927708333,211.95316777708334,77.0,73.0
303,211.95316777708334,212.27231627708332,79.0,93.0
304,212.27231627708332,213.54891027708334,77.0,112.0
305,213.54891027708334,213.86672899166666,74.0,98.0
306,213.86805877708332,214.18587749166667,74.0,100.0
307,214.18720727708333,214.50635577708334,74.0,87.0
308,214.50635577708334,214.82550427708333,70.0,100.0
309,214.82550427708333,216.10209827708334,67.0,111.0
310,216.10209827708334,216.41991699166667,74.0,69.0
311,216.42124677708333,216.73906549166668,74.0,93.0
312,216.74039527708334,217.05954377708332,74.0,98.0
313,217.05954377708332,217.37736249166667,70.0,87.0
314,217.37869227708333,217.69784077708334,70.0,95.0
315,217.69784077708334,218.01698927708333,67.0,67.0
316,217.69784077708334,218.01698927708333,67.0,95.0
317,218.01698927708333,218.65528627708332,74.0,98.0
318,218.65528627708332,218.97310499166667,79.0,111.0
319,218.97443477708333,219.29225349166666,79.0,111.0
320,219.29358327708334,219.61273177708333,79.0,112.0
321,219.61273177708333,219.93188027708334,82.0,117.0
322,219.93188027708334,221.489059,84.0,122.0
