,start,end,pitch,velocity
0,4.825791277083333,5.65291780625,63.0,63.0
1,4.825791277083333,5.654247591666667,72.0,74.0
2,4.825791277083333,5.6622263041666665,67.0,76.0
3,5.144939777083334,5.94813016875,60.0,59.0
4,5.783236777083333,6.3430764375,63.0,77.0
5,6.102385277083333,6.34706579375,60.0,59.0
6,5.783236777083333,6.348395579166667,67.0,87.0
7,5.783236777083333,6.352384935416667,72.0,83.0
8,4.187494277083333,6.445469914583334,48.0,79.0
9,4.506642777083333,6.5678101729166665,55.0,65.0
10,6.421533777083333,7.126320047916667,67.0,63.0
11,6.421533777083333,7.147596614583334,63.0,67.0
12,6.740682277083334,7.183500820833333,72.0,7.0
13,7.698127777083333,8.031903916666666,60.0,62.0
14,7.378979277083333,8.522594735416666,72.0,85.0
15,7.378979277083333,8.526584091666667,63.0,85.0
16,7.378979277083333,8.53323301875,67.0,95.0
17,8.336424777083334,8.719402977083334,60.0,70.0
18,6.740682277083334,8.969402635416667,48.0,87.0
19,8.655573277083333,9.022594052083333,67.0,100.0
20,7.0598307770833335,9.025253622916667,55.0,69.0
21,8.655573277083333,9.030572764583333,72.0,90.0
22,8.655573277083333,9.046530189583333,63.0,93.0
23,8.974721777083333,9.285891564583332,60.0,64.0
24,10.251315777083333,10.632964191666666,65.0,61.0
25,9.932167277083334,10.97471904375,72.0,90.0
26,9.932167277083334,10.980038185416667,68.0,90.0
27,10.889612777083332,11.256633552083333,65.0,81.0
28,11.208761277083333,11.76461158125,68.0,108.0
29,11.208761277083333,11.76461158125,72.0,95.0
30,9.293870277083334,11.785888147916667,53.0,73.0
31,9.613018777083333,11.803175358333334,60.0,62.0
32,10.730038527083334,11.847058277083333,56.0,46.0
33,11.527909777083334,11.859026345833334,65.0,61.0
34,11.847058277083333,12.654238025,60.0,81.0
35,11.847058277083333,12.683493304166667,63.0,79.0
36,12.485355277083332,12.925514249999999,56.0,60.0
37,12.804503777083333,13.620992022916667,68.0,74.0
38,12.804503777083333,13.6356196625,60.0,65.0
39,12.804503777083333,13.64758773125,63.0,79.0
40,13.442800777083333,13.865672539583333,56.0,59.0
41,11.847058277083333,14.16620404375,44.0,93.0
42,13.761949277083334,14.18216146875,68.0,93.0
43,13.761949277083334,14.195459322916667,63.0,93.0
44,13.761949277083334,14.219395460416667,60.0,83.0
45,14.081097777083333,14.363012285416666,56.0,59.0
46,12.166206777083334,14.392267564583333,51.0,75.0
47,14.400246277083333,15.200777097916667,70.0,59.0
48,14.400246277083333,15.226043020833334,62.0,67.0
49,14.400246277083333,15.230032377083333,65.0,74.0
50,15.038543277083333,15.484021391666667,58.0,58.0
51,15.357691777083334,16.19279701875,62.0,73.0
52,15.357691777083334,16.199445945833332,70.0,87.0
53,15.357691777083334,16.206094872916665,65.0,83.0
54,15.995988777083333,16.341732985416666,58.0,63.0
55,14.719394777083334,16.38428611875,53.0,74.0
56,14.400246277083333,16.44811581875,46.0,81.0
57,16.315137277083334,16.562477364583334,70.0,85.0
58,16.315137277083334,16.6196581375,65.0,90.0
59,16.315137277083334,16.634285777083335,62.0,87.0
60,16.953434277083332,17.091731960416666,67.0,74.0
61,17.272582777083333,17.70875239375,67.0,10.0
62,16.953434277083332,17.747316170833333,58.0,64.0
63,16.953434277083332,17.753965097916666,62.0,72.0
64,17.591731277083333,17.96407119375,55.0,65.0
65,17.910879777083334,18.686144675,67.0,95.0
66,17.910879777083334,18.71407016875,58.0,81.0
67,17.910879777083334,18.720719095833335,62.0,93.0
68,18.549176777083332,18.942793260416668,55.0,76.0
69,16.953434277083332,19.143590858333333,43.0,90.0
70,17.272582777083333,19.206090772916667,50.0,79.0
71,18.868325277083333,19.20875034375,62.0,90.0
72,18.868325277083333,19.219388627083333,58.0,83.0
73,19.187473777083333,19.449441504166668,55.0,74.0
74,19.506622277083334,19.589068972916667,72.0,63.0
75,19.506622277083334,19.602366827083333,67.0,81.0
76,19.506622277083334,19.609015754166666,63.0,72.0
77,19.506622277083334,19.628962535416665,48.0,67.0
78,19.825770777083335,19.91087704375,72.0,81.0
79,19.825770777083335,19.9148664,67.0,93.0
80,19.825770777083335,19.920185541666665,63.0,70.0
81,19.825770777083335,19.94678125,48.0,85.0
82,20.144919277083332,20.224706402083335,72.0,90.0
83,20.144919277083332,20.231355329166668,67.0,93.0
84,20.144919277083332,20.244653183333334,63.0,74.0
85,20.144919277083332,20.26592975,48.0,81.0
86,20.464067777083333,20.54917404375,65.0,90.0
87,20.464067777083333,20.5611421125,62.0,79.0
88,20.464067777083333,20.583748464583334,46.0,81.0
89,20.783216277083334,21.224705035416665,72.0,98.0
90,20.783216277083334,21.230024177083333,67.0,108.0
91,20.783216277083334,21.234013533333332,63.0,87.0
92,20.783216277083334,21.247311387499998,48.0,76.0
93,22.698107277083334,23.410872260416667,60.0,60.0
94,23.01725577708333,23.454755179166668,63.0,76.0
95,23.336404277083332,23.8962439375,67.0,67.0
96,22.059810277083333,24.304488060416666,48.0,81.0
97,22.378958777083334,24.349700764583332,55.0,67.0
98,23.655552777083333,24.35501990625,60.0,61.0
99,23.974701277083334,24.61299827708333,63.0,86.0
100,24.293849777083334,24.627625916666666,67.0,77.0
101,25.570443777083334,25.936134766666665,67.0,77.0
102,25.251295277083333,25.98267725625,63.0,74.0
103,26.20874077708333,26.582410479166665,63.0,71.0
104,25.889592277083334,26.59703811875,70.0,90.0
105,24.932146777083332,26.654218891666666,58.0,59.0
106,24.61299827708333,26.730016660416666,51.0,86.0
107,26.527889277083332,26.90820790625,67.0,70.0
108,26.847037777083333,27.196771341666665,70.0,87.0
109,28.123631777083332,28.49597169375,60.0,68.0
110,27.80448327708333,28.534535470833333,56.0,76.0
111,28.442780277083333,29.140917620833335,63.0,81.0
112,28.761928777083334,29.335066291666667,56.0,65.0
113,27.485334777083335,29.40687470416667,51.0,79.0
114,29.081077277083335,29.45341719375,60.0,75.0
115,27.166186277083334,29.472034189583333,44.0,77.0
116,29.40022577708333,29.77256569375,63.0,77.0
117,30.357671277083334,30.767245185416666,58.0,64.0
118,30.676819777083335,31.24064879375,62.0,70.0
119,30.995968277083332,31.413520897916666,55.0,58.0
120,29.719374277083332,31.8909138625,43.0,83.0
121,30.038522777083333,31.9068712875,50.0,76.0
122,31.315116777083333,32.021232833333336,58.0,65.0
123,31.634265277083333,32.023892404166666,55.0,81.0
124,31.953413777083334,32.291179272916665,62.0,85.0
125,32.91085927708333,33.607666835416666,60.0,85.0
126,33.23000777708333,33.99995353333333,63.0,72.0
127,32.27256227708333,34.55979319375,48.0,73.0
128,33.549156277083334,34.579739975,51.0,90.0
129,34.187453277083335,34.59170804375,63.0,90.0
130,32.591710777083335,34.61298461041667,55.0,69.0
131,33.86830477708333,34.638250533333334,60.0,83.0
132,34.50660177708333,34.80846306666667,67.0,86.0
133,35.46404727708333,36.04383371875,63.0,70.0
134,35.783195777083336,36.81111990416667,67.0,83.0
135,36.42149277708333,36.950747372916666,63.0,83.0
136,36.740641277083334,37.078406772916665,70.0,111.0
137,35.144898777083334,37.08239612916667,58.0,65.0
138,36.10234427708333,37.14755561458333,55.0,71.0
139,34.82575027708333,37.15553432708333,51.0,85.0
140,37.05978977708333,37.37760849166666,67.0,95.0
141,38.01723527708333,38.7206917625,65.0,64.0
142,38.336383777083334,38.726010904166664,67.0,85.0
143,38.974680777083336,39.256595285416665,65.0,68.0
144,38.65553227708333,39.308456916666664,68.0,120.0
145,37.69808677708333,39.33638241041667,60.0,73.0
146,37.378938277083336,39.416169535416664,53.0,100.0
147,39.29382927708333,39.90553056875,67.0,81.0
148,39.932126277083334,40.656859329166664,43.0,79.0
149,40.25127477708333,40.729997527083334,50.0,95.0
150,40.570423277083336,40.95207169166667,58.0,70.0
151,40.88957177708333,41.192762852083334,60.0,68.0
152,41.20872027708333,42.48531427708333,48.0,85.0
153,41.527868777083334,42.48531427708333,55.0,65.0
154,41.84701727708333,42.48531427708333,60.0,73.0
155,42.166165777083336,42.535846122916666,62.0,77.0
156,42.48531427708333,42.80712234791667,51.0,69.0
157,42.80446277708333,43.11031342291667,48.0,81.0
158,43.123611277083334,43.56775960625,46.0,73.0
159,43.44275977708333,43.74861042291667,43.0,90.0
160,43.761908277083336,44.011907935416666,46.0,87.0
161,44.08105677708333,44.40020527708333,43.0,98.0
162,44.40020527708333,44.702066566666666,41.0,104.0
163,44.719353777083334,45.054459702083335,39.0,114.0
164,46.315096277083335,46.6674894125,60.0,59.0
165,45.99594777708333,46.801797739583336,67.0,76.0
166,45.67679927708333,46.82573387708333,63.0,83.0
167,46.79381902708333,46.92679756875,60.0,50.0
168,45.03850227708333,47.26190349375,48.0,86.0
169,46.953393277083336,47.32440340833333,72.0,73.0
170,45.357650777083336,47.32573319375,55.0,75.0
171,46.953393277083336,47.33238212083333,67.0,87.0
172,46.953393277083336,47.340360833333335,63.0,81.0
173,47.27254177708333,47.570413710416666,60.0,63.0
174,47.59169027708333,48.405518952083334,67.0,83.0
175,47.59169027708333,48.408178522916664,70.0,79.0
176,48.22998727708333,48.71402916875,63.0,60.0
177,48.549135777083336,49.31908153333333,67.0,76.0
178,48.549135777083336,49.32174110416667,75.0,79.0
179,48.549135777083336,49.32971981666667,70.0,93.0
180,48.86828427708333,49.43876222083333,63.0,63.0
181,47.910838777083335,49.6036556125,58.0,64.0
182,47.59169027708333,49.72067672916667,51.0,86.0
183,49.506581277083335,49.829719133333334,70.0,85.0
184,49.506581277083335,49.83902763125,75.0,83.0
185,49.506581277083335,49.844346772916666,67.0,87.0
186,50.144878277083336,50.9361006,60.0,67.0
187,50.144878277083336,50.950728239583334,63.0,76.0
188,50.46402677708333,50.973334591666664,68.0,10.0
189,50.78317527708333,51.2472703875,56.0,63.0
190,51.102323777083335,51.96003537083333,60.0,86.0
191,51.102323777083335,51.96801408333333,68.0,95.0
192,51.102323777083335,51.975992795833335,63.0,86.0
193,51.740620777083336,52.14354575833333,56.0,68.0
194,50.46402677708333,52.27120515833333,51.0,86.0
195,52.05976927708333,52.345673141666666,63.0,93.0
196,52.05976927708333,52.34700292708333,68.0,95.0
197,52.05976927708333,52.36030078125,60.0,90.0
198,50.144878277083336,52.36827949375,44.0,86.0
199,52.698066277083335,53.46269289166666,58.0,73.0
200,52.698066277083335,53.464022677083335,62.0,81.0
201,52.698066277083335,53.70737340833333,43.0,75.0
202,53.01721477708333,53.775192464583334,50.0,70.0
203,53.336363277083336,53.79114988958333,55.0,72.0
204,53.65551177708333,53.96269220833333,62.0,81.0
205,53.65551177708333,53.96402199375,67.0,79.0
206,53.65551177708333,53.96668156458333,58.0,71.0
207,54.61295727708333,54.99992483333333,72.0,74.0
208,54.61295727708333,55.03449925416667,67.0,85.0
209,54.61295727708333,55.05843539166666,63.0,93.0
210,54.293808777083335,55.164818225,55.0,76.0
211,54.932105777083336,55.17146715208333,60.0,72.0
212,53.97466027708333,55.18077565,48.0,76.0
213,55.25125427708333,56.075721235416665,63.0,77.0
214,55.25125427708333,56.08635951875,67.0,86.0
215,55.25125427708333,56.08635951875,72.0,83.0
216,55.889551277083335,56.37226338333333,60.0,64.0
217,56.20869977708333,57.045134804166665,63.0,76.0
218,56.20869977708333,57.05045394583333,67.0,86.0
219,56.20869977708333,57.057102872916666,72.0,86.0
220,56.84699677708333,57.228645191666665,60.0,59.0
221,55.25125427708333,57.5105597,48.0,87.0
222,57.16614527708333,57.519868197916665,67.0,86.0
223,57.16614527708333,57.52385755416667,63.0,86.0
224,57.16614527708333,57.526517125,72.0,81.0
225,55.57040277708333,57.54646390625,55.0,67.0
226,57.485293777083335,57.80311249166667,60.0,61.0
227,57.80444227708333,58.545132754166666,70.0,93.0
228,57.80444227708333,58.54912211041667,75.0,87.0
229,57.80444227708333,58.55045189583333,67.0,83.0
230,58.442739277083334,59.00922786458333,63.0,60.0
231,58.76188777708333,59.55443988541666,67.0,86.0
232,58.76188777708333,59.56241859791667,70.0,87.0
233,58.76188777708333,59.566407954166664,75.0,85.0
234,59.40018477708333,59.82970546666667,63.0,61.0
235,57.80444227708333,60.074385983333336,51.0,95.0
236,59.71933327708334,60.114279545833334,67.0,93.0
237,59.71933327708334,60.13289654166667,70.0,90.0
238,59.71933327708334,60.13422632708333,75.0,79.0
239,58.123590777083336,60.34965156458333,58.0,60.0
240,60.038481777083334,60.34965156458333,63.0,65.0
241,60.35763027708333,61.229969510416666,68.0,90.0
242,60.99592727708333,61.39220333125,65.0,64.0
243,61.634224277083334,61.99060676875,65.0,59.0
244,61.31507577708333,62.045127970833335,68.0,72.0
245,61.31507577708333,62.047787541666665,72.0,67.0
246,60.676778777083335,62.36427647083333,60.0,63.0
247,61.95337277708333,62.4972550125,56.0,55.0
248,60.35763027708333,62.534489004166666,53.0,85.0
249,62.59166977708333,62.91746720416667,72.0,74.0
250,62.272521277083335,62.94938205416667,68.0,104.0
251,62.91081827708333,63.60097690833333,43.0,86.0
252,63.229966777083334,63.699381029166666,50.0,83.0
253,63.54911527708333,63.95071047291667,58.0,81.0
254,63.868263777083335,64.18608249166667,62.0,68.0
255,64.18741227708334,65.31241073958333,48.0,85.0
256,64.50656077708334,65.46400627708333,55.0,69.0
257,64.82570927708333,65.46400627708333,60.0,71.0
258,65.14485777708333,65.50788919583333,62.0,75.0
259,65.46400627708333,66.05310121666666,63.0,98.0
260,65.78315477708334,66.14086705416666,60.0,63.0
261,66.26187752708333,66.64485572708334,63.0,38.0
262,66.10230327708334,66.6781003625,67.0,98.0
263,66.42145177708333,66.92810002083333,60.0,63.0
264,66.74060027708333,67.28980165416667,63.0,61.0
265,66.74060027708333,67.30176972291666,67.0,70.0
266,67.05974877708333,67.88554552083333,60.0,67.0
267,65.46400627708333,67.91214122916666,48.0,95.0
268,65.78315477708334,67.92410929791667,55.0,74.0
269,67.37889727708334,67.95868371875,67.0,86.0
270,67.37889727708334,67.98129007083334,63.0,73.0
271,68.01719427708333,68.81373574166666,68.0,87.0
272,68.65549127708333,69.079692825,65.0,59.0
273,69.45336252708333,69.63687291458334,65.0,59.0
274,69.61293677708333,69.63687291458334,65.0,65.0
275,68.97463977708334,69.88820235833333,68.0,83.0
276,68.97463977708334,69.89219171458333,72.0,81.0
277,68.33634277708333,70.09830845416667,60.0,60.0
278,68.01719427708333,70.15548922708334,53.0,81.0
279,69.93208527708333,70.23926570833333,72.0,83.0
280,69.93208527708333,70.26586141666667,68.0,76.0
281,70.57038227708334,71.11160494166667,62.0,68.0
282,70.57038227708334,71.13687086458333,65.0,70.0
283,71.20867927708333,71.7366040875,62.0,59.0
284,71.20867927708333,71.73793387291667,70.0,66.0
285,71.20867927708333,71.75788065416667,65.0,54.0
286,71.52782777708333,71.94671018333334,58.0,56.0
287,71.84697627708333,72.3589436625,62.0,63.0
288,71.84697627708333,72.366922375,65.0,67.0
289,71.84697627708333,72.37623087291666,70.0,74.0
290,72.16612477708334,72.47729456458333,58.0,59.0
291,70.57038227708334,72.813730275,46.0,75.0
292,72.48527327708334,72.83234727083334,65.0,93.0
293,72.48527327708334,72.83367705625,62.0,74.0
294,72.48527327708334,72.84032598333333,70.0,93.0
295,72.96399602708334,73.00123001875,63.0,47.0
296,70.88953077708334,73.08101714375,53.0,73.0
297,72.80442177708333,73.08367671458333,58.0,63.0
298,73.76186727708334,74.42011105833333,60.0,66.0
299,74.08101577708334,74.84298282083333,67.0,76.0
300,74.40016427708333,74.85362110416666,72.0,70.0
301,74.87888702708334,74.92409973125,72.0,40.0
302,73.12357027708333,74.99856771458333,63.0,86.0
303,74.71931277708333,75.09963140625,60.0,71.0
304,74.40016427708333,75.37356720208334,51.0,61.0
305,75.03846127708333,75.42010969166667,72.0,70.0
306,73.12357027708333,75.44404582916667,48.0,79.0
307,73.44271877708333,75.53713080833333,55.0,67.0
308,75.03846127708333,75.56106694583333,63.0,61.0
309,75.03846127708333,75.57569458541667,67.0,71.0
310,75.67675827708334,76.47064017083333,63.0,76.0
311,75.67675827708334,76.483938025,67.0,85.0
312,75.67675827708334,76.49058695208333,72.0,81.0
313,76.31505527708333,76.68473562291666,60.0,66.0
314,76.63420377708333,76.72728875625,72.0,73.0
315,76.63420377708333,76.7312781125,67.0,79.0
316,75.99590677708333,76.73659725416667,55.0,70.0
317,76.63420377708333,76.73792703958333,63.0,72.0
318,75.67675827708334,76.84165030208334,48.0,79.0
319,76.95335227708333,77.79377666041667,62.0,74.0
320,76.95335227708333,77.80441494375,65.0,81.0
321,76.95335227708333,77.81239365625,70.0,87.0
322,77.59164927708333,77.97861683333333,58.0,62.0
323,77.91079777708333,77.9998934,70.0,64.0
324,77.91079777708333,78.00255297083334,65.0,63.0
325,77.91079777708333,78.01319125416667,62.0,59.0
326,77.27250077708334,78.01851039583333,53.0,75.0
327,76.95335227708333,78.09829752083333,46.0,72.0
328,78.22994627708333,78.99856224791667,60.0,75.0
329,78.22994627708333,79.00654096041667,68.0,87.0
330,78.22994627708333,79.00787074583333,63.0,83.0
331,78.22994627708333,79.23260448125,44.0,74.0
332,79.18739177708333,79.28845546875,68.0,64.0
333,78.54909477708333,79.29909375208334,51.0,90.0
334,79.18739177708333,79.3004235375,60.0,63.0
335,79.18739177708333,79.30707246458333,63.0,65.0
336,78.86824327708334,79.50521049166666,56.0,73.0
337,79.50654027708333,80.32568809375,63.0,64.0
338,79.50654027708333,80.33100723541666,72.0,67.0
339,79.50654027708333,80.33233702083334,67.0,73.0
340,80.46398577708334,80.55973032708333,72.0,49.0
341,80.46398577708334,80.5610601125,63.0,57.0
342,80.46398577708334,80.5610601125,67.0,49.0
343,80.14483727708333,80.62223024166667,60.0,61.0
344,79.50654027708333,80.65281530625,48.0,74.0
345,79.82568877708333,80.70068758125,55.0,63.0
346,81.10228277708333,81.13951676875,67.0,45.0
347,81.42143127708333,81.91212209583334,67.0,83.0
348,81.42143127708333,81.91877102291667,75.0,77.0
349,81.42143127708333,81.92409016458333,70.0,85.0
350,81.74057977708333,82.23525995208334,63.0,60.0
351,82.05972827708334,82.58632330208333,67.0,83.0
352,82.05972827708334,82.59031265833333,75.0,76.0
353,82.05972827708334,82.59696158541666,70.0,86.0
354,82.37887677708333,83.11158854166666,63.0,64.0
355,80.78313427708333,83.16345017291667,51.0,104.0
356,81.10228277708333,83.17275867083333,58.0,62.0
357,82.69802527708333,83.2578649375,75.0,93.0
358,82.69802527708333,83.26717343541667,67.0,98.0
359,82.69802527708333,83.27515214791667,70.0,90.0
360,83.33632227708333,83.87488537083334,68.0,70.0
361,83.33632227708333,83.88951301041666,72.0,81.0
362,83.49589652708333,83.93738528541667,60.0,60.0
363,83.33632227708333,84.175416875,53.0,93.0
364,83.97461927708333,84.21265086666666,72.0,72.0
365,83.97461927708333,84.21929979375,68.0,62.0
366,84.61291627708333,85.13818151666666,62.0,71.0
367,84.61291627708333,85.15280915625,65.0,77.0
368,84.61291627708333,85.16211765416666,70.0,83.0
369,84.61291627708333,85.61823405208334,46.0,81.0
370,84.93206477708333,85.63286169166666,53.0,81.0
371,85.25121327708334,85.64217018958334,62.0,90.0
372,85.25121327708334,85.64748933125,65.0,87.0
373,85.25121327708334,85.65014890208333,70.0,98.0
374,85.57036177708333,85.82302100625,58.0,60.0
375,85.88951027708333,86.39615852083334,63.0,72.0
376,85.88951027708333,86.41211594583334,72.0,76.0
377,85.88951027708333,86.41344573125,67.0,81.0
378,86.52780727708333,86.8722217,72.0,95.0
379,86.52780727708333,86.8802004125,67.0,98.0
380,86.52780727708333,86.90014719375,63.0,90.0
381,86.84695577708334,87.01184916875,60.0,59.0
382,86.20865877708333,87.01317895416666,55.0,69.0
383,85.88951027708333,87.0397746625,48.0,85.0
384,87.16610427708333,87.74323114791666,62.0,67.0
385,87.16610427708333,87.74722050416666,65.0,74.0
386,87.16610427708333,87.74722050416666,70.0,79.0
387,87.80440127708333,88.13418806041666,70.0,95.0
388,87.80440127708333,88.13684763125,65.0,87.0
389,87.80440127708333,88.15147527083333,62.0,79.0
390,87.48525277708333,88.21929432708333,53.0,73.0
391,88.12354977708333,88.24456025,58.0,58.0
392,87.16610427708333,88.28977295416666,46.0,70.0
393,88.44269827708334,88.99322943958333,58.0,61.0
394,88.44269827708334,88.99854858125,67.0,72.0
395,88.44269827708334,89.0025379375,62.0,75.0
396,89.08099527708333,89.55572867083333,58.0,70.0
397,89.08099527708333,89.57035631041667,62.0,81.0
398,89.08099527708333,89.57035631041667,67.0,83.0
399,89.40014377708333,89.79774961666666,55.0,61.0
400,89.71929227708333,90.24455751666666,58.0,76.0
401,89.71929227708333,90.24854687291666,67.0,100.0
402,89.71929227708333,90.24987665833333,62.0,90.0
403,90.03844077708334,90.398812625,55.0,58.0
404,90.51716352708333,90.59296129583333,55.0,46.0
405,88.44269827708334,90.59961022291667,43.0,83.0
406,88.76184677708333,90.64083357083334,50.0,74.0
407,90.35758927708333,90.65679099583333,62.0,83.0
408,90.35758927708333,90.65945056666666,67.0,83.0
409,90.35758927708333,90.66875906458333,58.0,69.0
410,90.99588627708333,91.32966241666666,50.0,90.0
411,90.99588627708333,91.32966241666666,62.0,74.0
412,90.99588627708333,91.3323219875,67.0,81.0
413,90.99588627708333,91.33365177291667,43.0,51.0
414,90.99588627708333,91.34429005625,55.0,65.0
415,90.99588627708333,91.35492833958334,58.0,69.0
416,91.95333177708333,92.03976782916666,46.0,64.0
417,91.95333177708333,92.04109761458334,53.0,74.0
418,91.95333177708333,92.04508697083334,58.0,58.0
419,91.95333177708333,92.04641675625,65.0,86.0
420,91.95333177708333,92.04641675625,70.0,90.0
421,91.95333177708333,92.04907632708333,62.0,77.0
422,92.27248027708333,92.4972140125,53.0,81.0
423,92.27248027708333,92.49854379791667,65.0,95.0
424,92.27248027708333,92.49854379791667,70.0,104.0
425,92.27248027708333,92.51583100833334,58.0,67.0
426,92.27248027708333,92.51716079375,46.0,81.0
427,92.27248027708333,92.51982036458334,62.0,87.0
428,93.54907427708334,94.51050913333333,65.0,70.0
429,93.54907427708334,94.51715806041666,70.0,76.0
430,93.54907427708334,94.52912612916667,62.0,67.0
431,93.54907427708334,94.53444527083333,53.0,100.0
432,93.54907427708334,94.56237076458333,46.0,68.0
433,93.54907427708334,94.56503033541667,58.0,59.0
434,94.82566827708334,94.930721325,72.0,66.0
435,94.82566827708334,94.94002982291667,67.0,67.0
436,94.82566827708334,94.94268939375,48.0,72.0
437,94.82566827708334,94.9546574625,63.0,73.0
438,95.14481677708334,95.24588046875,72.0,87.0
439,95.14481677708334,95.25518896666667,67.0,93.0
440,95.14481677708334,95.26715703541666,48.0,83.0
441,95.14481677708334,95.26981660625,63.0,79.0
442,95.46396527708333,95.56502896875,72.0,83.0
443,95.46396527708333,95.57167789583333,67.0,93.0
444,95.46396527708333,95.57965660833334,48.0,83.0
445,95.46396527708333,95.58364596458333,63.0,79.0
446,95.78311377708333,95.86556047291667,72.0,77.0
447,95.78311377708333,95.8722094,67.0,87.0
448,95.78311377708333,95.88683703958333,63.0,75.0
449,95.78311377708333,95.89348596666666,48.0,98.0
450,96.10226227708333,97.27247344375,63.0,100.0
451,96.10226227708333,97.28311172708334,72.0,108.0
452,96.10226227708333,97.28976065416667,67.0,112.0
453,96.10226227708333,97.37885627708333,48.0,104.0
454,96.74055927708334,97.37885627708333,55.0,75.0
455,97.05970777708333,97.42938812291666,60.0,66.0
456,99.29374727708333,100.12087380625,63.0,63.0
457,99.29374727708333,100.12220359166666,72.0,74.0
458,99.29374727708333,100.13018230416667,67.0,76.0
459,99.61289577708334,100.41608616875,60.0,59.0
460,100.25119277708333,100.8110324375,63.0,77.0
461,100.57034127708333,100.81502179375,60.0,59.0
462,100.25119277708333,100.81635157916666,67.0,87.0
463,100.25119277708333,100.82034093541667,72.0,83.0
464,98.65545027708333,100.91342591458333,48.0,79.0
465,98.97459877708333,101.03576617291667,55.0,65.0
466,100.88948977708333,101.59427604791667,67.0,63.0
467,100.88948977708333,101.61555261458334,63.0,67.0
468,101.20863827708334,101.65145682083333,72.0,7.0
469,102.16608377708333,102.49985991666667,60.0,62.0
470,101.84693527708333,102.99055073541666,72.0,85.0
471,101.84693527708333,102.99454009166666,63.0,85.0
472,101.84693527708333,103.00118901875,67.0,95.0
473,102.80438077708334,103.18735897708333,60.0,70.0
474,101.20863827708334,103.43735863541667,48.0,87.0
475,103.12352927708334,103.49055005208334,67.0,100.0
476,101.52778677708334,103.49320962291667,55.0,69.0
477,103.12352927708334,103.49852876458333,72.0,90.0
478,103.12352927708334,103.51448618958334,63.0,93.0
479,103.44267777708333,103.75384756458334,60.0,64.0
480,104.71927177708334,105.10092019166666,65.0,61.0
481,104.40012327708334,105.44267504375,72.0,90.0
482,104.40012327708334,105.44799418541666,68.0,90.0
483,105.35756877708333,105.72458955208333,65.0,81.0
484,105.67671727708333,106.23256758125,68.0,108.0
485,105.67671727708333,106.23256758125,72.0,95.0
486,103.76182627708333,106.25384414791667,53.0,73.0
487,104.08097477708333,106.27113135833334,60.0,62.0
488,105.19799452708334,106.31501427708334,56.0,46.0
489,105.99586577708334,106.32698234583333,65.0,61.0
490,106.31501427708334,107.122194025,60.0,81.0
491,106.31501427708334,107.15144930416666,63.0,79.0
492,106.95331127708333,107.39347025,56.0,60.0
493,107.27245977708333,108.08894802291667,68.0,74.0
494,107.27245977708333,108.1035756625,60.0,65.0
495,107.27245977708333,108.11554373125,63.0,79.0
496,107.91075677708334,108.33362853958333,56.0,59.0
497,106.31501427708334,108.63416004375,44.0,93.0
498,108.22990527708333,108.65011746875,68.0,93.0
499,108.22990527708333,108.66341532291666,63.0,93.0
500,108.22990527708333,108.68735146041666,60.0,83.0
501,108.54905377708333,108.83096828541666,56.0,59.0
502,106.63416277708333,108.86022356458334,51.0,75.0
503,108.86820227708333,109.66873309791667,70.0,59.0
504,108.86820227708333,109.69399902083333,62.0,67.0
505,108.86820227708333,109.69798837708333,65.0,74.0
506,109.50649927708334,109.95197739166666,58.0,58.0
507,109.82564777708333,110.66075301875,62.0,73.0
508,109.82564777708333,110.66740194583333,70.0,87.0
509,109.82564777708333,110.67405087291667,65.0,83.0
510,110.46394477708333,110.80968898541667,58.0,63.0
511,109.18735077708334,110.85224211875,53.0,74.0
512,108.86820227708333,110.91607181875,46.0,81.0
513,110.78309327708334,111.03043336458333,70.0,85.0
514,110.78309327708334,111.0876141375,65.0,90.0
515,110.78309327708334,111.10224177708334,62.0,87.0
516,111.42139027708333,111.55968796041667,67.0,74.0
517,111.74053877708333,112.17670839375,67.0,10.0
518,111.42139027708333,112.21527217083333,58.0,64.0
519,111.42139027708333,112.22192109791666,62.0,72.0
520,112.05968727708333,112.43202719375,55.0,65.0
521,112.37883577708334,113.154100675,67.0,95.0
522,112.37883577708334,113.18202616875,58.0,81.0
523,112.37883577708334,113.18867509583333,62.0,93.0
524,113.01713277708333,113.41074926041667,55.0,76.0
525,111.42139027708333,113.61154685833333,43.0,90.0
526,111.74053877708333,113.67404677291667,50.0,79.0
527,113.33628127708333,113.67670634375,62.0,90.0
528,113.33628127708333,113.68734462708333,58.0,83.0
529,113.65542977708333,113.91739750416667,55.0,74.0
530,113.97457827708334,114.05702497291666,72.0,63.0
531,113.97457827708334,114.07032282708333,67.0,81.0
532,113.97457827708334,114.07697175416666,63.0,72.0
533,113.97457827708334,114.09691853541666,48.0,67.0
534,114.29372677708334,114.37883304374999,72.0,81.0
535,114.29372677708334,114.3828224,67.0,93.0
536,114.29372677708334,114.38814154166667,63.0,70.0
537,114.29372677708334,114.41473725,48.0,85.0
538,114.61287527708333,114.69266240208333,72.0,90.0
539,114.61287527708333,114.69931132916666,67.0,93.0
540,114.61287527708333,114.71260918333333,63.0,74.0
541,114.61287527708333,114.73388575,48.0,81.0
542,114.93202377708333,115.01713004375,65.0,90.0
543,114.93202377708333,115.0290981125,62.0,79.0
544,114.93202377708333,115.05170446458334,46.0,81.0
545,115.25117227708333,115.69266103541666,72.0,98.0
546,115.25117227708333,115.69798017708334,67.0,108.0
547,115.25117227708333,115.70196953333333,63.0,87.0
548,115.25117227708333,115.7152673875,48.0,76.0
549,117.16606327708334,117.87882826041667,60.0,60.0
550,117.48521177708334,117.92271117916667,63.0,76.0
551,117.80436027708333,118.3641999375,67.0,67.0
552,116.52776627708333,118.77244406041666,48.0,81.0
553,116.84691477708333,118.81765676458333,55.0,67.0
554,118.12350877708333,118.82297590625,60.0,61.0
555,118.44265727708333,119.08095427708334,63.0,86.0
556,118.76180577708334,119.09558191666666,67.0,77.0
557,120.03839977708333,120.40409076666667,67.0,77.0
558,119.71925127708333,120.45063325625,63.0,74.0
559,120.67669677708334,121.05036647916667,63.0,71.0
560,120.35754827708334,121.06499411875,70.0,90.0
561,119.40010277708333,121.12217489166666,58.0,59.0
562,119.08095427708334,121.19797266041667,51.0,86.0
563,120.99584527708333,121.37616390625,67.0,70.0
564,121.31499377708333,121.66472734166666,70.0,87.0
565,122.59158777708333,122.96392769375,60.0,68.0
566,122.27243927708334,123.00249147083333,56.0,76.0
567,122.91073627708333,123.60887362083334,63.0,81.0
568,123.22988477708333,123.80302229166666,56.0,65.0
569,121.95329077708334,123.87483070416667,51.0,79.0
570,123.54903327708334,123.92137319375,60.0,75.0
571,121.63414227708333,123.93999018958333,44.0,77.0
572,123.86818177708334,124.24052169375,63.0,77.0
573,124.82562727708333,125.23520118541667,58.0,64.0
574,125.14477577708334,125.70860479375,62.0,70.0
575,125.46392427708334,125.88147689791667,55.0,58.0
576,124.18733027708333,126.3588698625,43.0,83.0
577,124.50647877708333,126.3748272875,50.0,76.0
578,125.78307277708333,126.48918883333333,58.0,65.0
579,126.10222127708333,126.49184840416666,55.0,81.0
580,126.42136977708333,126.75913527291667,62.0,85.0
581,127.37881527708333,128.07562283541665,60.0,85.0
582,127.69796377708333,128.46790953333334,63.0,72.0
583,126.74051827708334,129.02774919375,48.0,73.0
584,128.01711227708333,129.047695975,51.0,90.0
585,128.65540927708332,129.05966404375,63.0,90.0
586,127.05966677708334,129.08094061041666,55.0,69.0
587,128.33626077708334,129.10620653333334,60.0,83.0
588,128.97455777708333,129.27641906666668,67.0,86.0
589,129.93200327708334,130.51178971875,63.0,70.0
590,130.25115177708332,131.27907590416666,67.0,83.0
591,130.88944877708335,131.41870337291667,63.0,83.0
592,131.20859727708333,131.54636277291667,70.0,111.0
593,129.61285477708333,131.55035212916667,58.0,65.0
594,130.57030027708333,131.61551161458334,55.0,71.0
595,129.29370627708334,131.62349032708335,51.0,85.0
596,131.52774577708334,131.84556449166666,67.0,95.0
597,132.48519127708335,133.1886477625,65.0,64.0
598,132.80433977708333,133.19396690416667,67.0,85.0
599,133.44263677708332,133.72455128541665,65.0,68.0
600,133.12348827708334,133.77641291666666,68.0,120.0
601,132.16604277708333,133.80433841041668,60.0,73.0
602,131.84689427708332,133.88412553541667,53.0,100.0
603,133.76178527708333,134.37348656875,67.0,81.0
604,134.40008227708333,135.12481532916667,43.0,79.0
605,134.71923077708334,135.19795352708334,50.0,95.0
606,135.03837927708332,135.42002769166666,58.0,70.0
607,135.35752777708333,135.66071885208333,60.0,68.0
608,135.67667627708335,136.95327027708333,48.0,85.0
609,135.99582477708333,136.95327027708333,55.0,65.0
610,136.31497327708334,136.95327027708333,60.0,73.0
611,136.63412177708332,137.00380212291665,62.0,77.0
612,136.95327027708333,137.27507834791666,51.0,69.0
613,137.27241877708335,137.57826942291666,48.0,81.0
614,137.59156727708333,138.03571560625,46.0,73.0
615,137.91071577708334,138.21656642291666,43.0,90.0
616,138.22986427708332,138.47986393541666,46.0,87.0
617,138.54901277708333,138.86816127708335,43.0,98.0
618,138.86816127708335,139.17002256666666,41.0,104.0
619,139.18730977708333,139.52241570208332,39.0,114.0
620,140.78305227708333,141.1354454125,60.0,59.0
621,140.46390377708335,141.26975373958334,67.0,76.0
622,140.14475527708333,141.29368987708332,63.0,83.0
623,141.26177502708333,141.39475356875,60.0,50.0
624,139.50645827708334,141.72985949375,48.0,86.0
625,141.42134927708332,141.79235940833334,72.0,73.0
626,139.82560677708332,141.79368919375,55.0,75.0
627,141.42134927708332,141.80033812083335,67.0,87.0
628,141.42134927708332,141.80831683333332,63.0,81.0
629,141.74049777708333,142.03836971041667,60.0,63.0
630,142.05964627708335,142.87347495208334,67.0,83.0
631,142.05964627708335,142.87613452291666,70.0,79.0
632,142.69794327708334,143.18198516875,63.0,60.0
633,143.01709177708332,143.78703753333332,67.0,76.0
634,143.01709177708332,143.78969710416666,75.0,79.0
635,143.01709177708332,143.79767581666667,70.0,93.0
636,143.33624027708333,143.90671822083334,63.0,63.0
637,142.37879477708333,144.0716116125,58.0,64.0
638,142.05964627708335,144.18863272916667,51.0,86.0
639,143.97453727708333,144.29767513333334,70.0,85.0
640,143.97453727708333,144.30698363125,75.0,83.0
641,143.97453727708333,144.31230277291667,67.0,87.0
642,144.61283427708332,145.4040566,60.0,67.0
643,144.61283427708332,145.41868423958334,63.0,76.0
644,144.93198277708333,145.44129059166667,68.0,10.0
645,145.25113127708335,145.7152263875,56.0,63.0
646,145.57027977708333,146.42799137083333,60.0,86.0
647,145.57027977708333,146.43597008333333,68.0,95.0
648,145.57027977708333,146.44394879583334,63.0,86.0
649,146.20857677708332,146.61150175833333,56.0,68.0
650,144.93198277708333,146.73916115833333,51.0,86.0
651,146.52772527708333,146.81362914166667,63.0,93.0
652,146.52772527708333,146.81495892708332,68.0,95.0
653,146.52772527708333,146.82825678125,60.0,90.0
654,144.61283427708332,146.83623549375,44.0,86.0
655,147.16602227708333,147.93064889166666,58.0,73.0
656,147.16602227708333,147.93197867708332,62.0,81.0
657,147.16602227708333,148.17532940833334,43.0,75.0
658,147.48517077708334,148.24314846458333,50.0,70.0
659,147.80431927708332,148.25910588958334,55.0,72.0
660,148.12346777708333,148.43064820833334,62.0,81.0
661,148.12346777708333,148.43197799375,67.0,79.0
662,148.12346777708333,148.43463756458334,58.0,71.0
663,149.08091327708334,149.46788083333334,72.0,74.0
664,149.08091327708334,149.50245525416668,67.0,85.0
665,149.08091327708334,149.52639139166666,63.0,93.0
666,148.76176477708333,149.632774225,55.0,76.0
667,149.40006177708332,149.63942315208334,60.0,72.0
668,148.44261627708335,149.64873165,48.0,76.0
669,149.71921027708333,150.54367723541665,63.0,77.0
670,149.71921027708333,150.55431551875,67.0,86.0
671,149.71921027708333,150.55431551875,72.0,83.0
672,150.35750727708333,150.84021938333333,60.0,64.0
673,150.67665577708334,151.51309080416667,63.0,76.0
674,150.67665577708334,151.51840994583333,67.0,86.0
675,150.67665577708334,151.52505887291667,72.0,86.0
676,151.31495277708333,151.69660119166667,60.0,59.0
677,149.71921027708333,151.9785157,48.0,87.0
678,151.63410127708335,151.98782419791667,67.0,86.0
679,151.63410127708335,151.99181355416667,63.0,86.0
680,151.63410127708335,151.994473125,72.0,81.0
681,150.03835877708335,152.01441990625,55.0,67.0
682,151.95324977708333,152.27106849166665,60.0,61.0
683,152.27239827708334,153.01308875416666,70.0,93.0
684,152.27239827708334,153.01707811041666,75.0,87.0
685,152.27239827708334,153.01840789583332,67.0,83.0
686,152.91069527708333,153.47718386458334,63.0,60.0
687,153.22984377708335,154.02239588541667,67.0,86.0
688,153.22984377708335,154.03037459791668,70.0,87.0
689,153.22984377708335,154.03436395416668,75.0,85.0
690,153.86814077708334,154.29766146666665,63.0,61.0
691,152.27239827708334,154.54234198333333,51.0,95.0
692,154.18728927708332,154.58223554583333,67.0,93.0
693,154.18728927708332,154.60085254166665,70.0,90.0
694,154.18728927708332,154.60218232708334,75.0,79.0
695,152.59154677708332,154.81760756458334,58.0,60.0
696,154.50643777708333,154.81760756458334,63.0,65.0
697,154.82558627708335,155.69792551041667,68.0,90.0
698,155.46388327708334,155.86015933125,65.0,64.0
699,156.10218027708333,156.45856276875,65.0,59.0
700,155.78303177708332,156.51308397083332,68.0,72.0
701,155.78303177708332,156.51574354166667,72.0,67.0
702,155.14473477708333,156.83223247083333,60.0,63.0
703,156.42132877708335,156.9652110125,56.0,55.0
704,154.82558627708335,157.00244500416667,53.0,85.0
705,157.05962577708334,157.38542320416667,72.0,74.0
706,156.74047727708333,157.41733805416666,68.0,104.0
707,157.37877427708332,158.06893290833332,43.0,86.0
708,157.69792277708333,158.16733702916667,50.0,83.0
709,158.01707127708335,158.41866647291667,58.0,81.0
710,158.33621977708333,158.65403849166665,62.0,68.0
711,158.65536827708334,159.78036673958334,48.0,85.0
712,158.97451677708332,159.93196227708333,55.0,69.0
713,159.29366527708333,159.93196227708333,60.0,71.0
714,159.61281377708335,159.97584519583333,62.0,75.0
715,159.93196227708333,160.52105721666666,63.0,98.0
716,160.25111077708334,160.60882305416666,60.0,63.0
717,160.72983352708334,161.11281172708334,63.0,38.0
718,160.57025927708332,161.1460563625,67.0,98.0
719,160.88940777708333,161.39605602083333,60.0,63.0
720,161.20855627708335,161.75775765416665,63.0,61.0
721,161.20855627708335,161.76972572291666,67.0,70.0
722,161.52770477708333,162.35350152083333,60.0,67.0
723,159.93196227708333,162.38009722916667,48.0,95.0
724,160.25111077708334,162.39206529791667,55.0,74.0
725,161.84685327708334,162.42663971875,67.0,86.0
726,161.84685327708334,162.44924607083334,63.0,73.0
727,162.48515027708333,163.28169174166666,68.0,87.0
728,163.12344727708333,163.547648825,65.0,59.0
729,163.92131852708334,164.10482891458332,65.0,59.0
730,164.08089277708333,164.10482891458332,65.0,65.0
731,163.44259577708334,164.35615835833335,68.0,83.0
732,163.44259577708334,164.36014771458332,72.0,81.0
733,162.80429877708335,164.56626445416666,60.0,60.0
734,162.48515027708333,164.62344522708332,53.0,81.0
735,164.40004127708335,164.70722170833332,72.0,83.0
736,164.40004127708335,164.73381741666665,68.0,76.0
737,165.03833827708334,165.57956094166667,62.0,68.0
738,165.03833827708334,165.60482686458334,65.0,70.0
739,165.67663527708334,166.2045600875,62.0,59.0
740,165.67663527708334,166.20588987291666,70.0,66.0
741,165.67663527708334,166.22583665416667,65.0,54.0
742,165.99578377708335,166.41466618333334,58.0,56.0
743,166.31493227708333,166.8268996625,62.0,63.0
744,166.31493227708333,166.834878375,65.0,67.0
745,166.31493227708333,166.84418687291665,70.0,74.0
746,166.63408077708334,166.94525056458332,58.0,59.0
747,165.03833827708334,167.281686275,46.0,75.0
748,166.95322927708332,167.30030327083333,65.0,93.0
749,166.95322927708332,167.30163305625,62.0,74.0
750,166.95322927708332,167.30828198333333,70.0,93.0
751,167.43195202708333,167.46918601875,63.0,47.0
752,165.35748677708332,167.54897314375,53.0,73.0
753,167.27237777708334,167.55163271458332,58.0,63.0
754,168.22982327708334,168.88806705833332,60.0,66.0
755,168.54897177708332,169.31093882083334,67.0,76.0
756,168.86812027708334,169.32157710416666,72.0,70.0
757,169.34684302708334,169.39205573125,72.0,40.0
758,167.59152627708335,169.46652371458333,63.0,86.0
759,169.18726877708335,169.56758740625,60.0,71.0
760,168.86812027708334,169.84152320208332,51.0,61.0
761,169.50641727708333,169.88806569166667,72.0,70.0
762,167.59152627708335,169.91200182916666,48.0,79.0
763,167.91067477708333,170.00508680833335,55.0,67.0
764,169.50641727708333,170.02902294583333,63.0,61.0
765,169.50641727708333,170.04365058541666,67.0,71.0
766,170.14471427708332,170.93859617083334,63.0,76.0
767,170.14471427708332,170.951894025,67.0,85.0
768,170.14471427708332,170.95854295208332,72.0,81.0
769,170.78301127708332,171.15269162291668,60.0,66.0
770,171.10215977708333,171.19524475625,72.0,73.0
771,171.10215977708333,171.1992341125,67.0,79.0
772,170.46386277708334,171.20455325416665,55.0,70.0
773,171.10215977708333,171.20588303958334,63.0,72.0
774,170.14471427708332,171.30960630208332,48.0,79.0
775,171.42130827708334,172.26173266041667,62.0,74.0
776,171.42130827708334,172.27237094375,65.0,81.0
777,171.42130827708334,172.28034965625,70.0,87.0
778,172.05960527708334,172.44657283333333,58.0,62.0
779,172.37875377708332,172.4678494,70.0,64.0
780,172.37875377708332,172.47050897083332,65.0,63.0
781,172.37875377708332,172.48114725416667,62.0,59.0
782,171.74045677708332,172.48646639583333,53.0,75.0
783,171.42130827708334,172.56625352083333,46.0,72.0
784,172.69790227708333,173.46651824791667,60.0,75.0
785,172.69790227708333,173.47449696041667,68.0,87.0
786,172.69790227708333,173.47582674583333,63.0,83.0
787,172.69790227708333,173.70056048125,44.0,74.0
788,173.65534777708334,173.75641146875,68.0,64.0
789,173.01705077708334,173.76704975208332,51.0,90.0
790,173.65534777708334,173.7683795375,60.0,63.0
791,173.65534777708334,173.77502846458333,63.0,65.0
792,173.33619927708332,173.97316649166666,56.0,73.0
793,173.97449627708332,174.79364409375,63.0,64.0
794,173.97449627708332,174.79896323541666,72.0,67.0
795,173.97449627708332,174.80029302083332,67.0,73.0
796,174.93194177708332,175.02768632708333,72.0,49.0
797,174.93194177708332,175.0290161125,63.0,57.0
798,174.93194177708332,175.0290161125,67.0,49.0
799,174.61279327708334,175.09018624166666,60.0,61.0
800,173.97449627708332,175.12077130625,48.0,74.0
801,174.29364477708333,175.16864358125,55.0,63.0
802,175.57023877708332,175.60747276875,67.0,45.0
803,175.88938727708333,176.38007809583334,67.0,83.0
804,175.88938727708333,176.38672702291666,75.0,77.0
805,175.88938727708333,176.39204616458332,70.0,85.0
806,176.20853577708334,176.70321595208333,63.0,60.0
807,176.52768427708332,177.05427930208333,67.0,83.0
808,176.52768427708332,177.05826865833333,75.0,76.0
809,176.52768427708332,177.06491758541665,70.0,86.0
810,176.84683277708334,177.57954454166668,63.0,64.0
811,175.25109027708334,177.63140617291666,51.0,104.0
812,175.57023877708332,177.64071467083332,58.0,62.0
813,177.16598127708332,177.7258209375,75.0,93.0
814,177.16598127708332,177.73512943541667,67.0,98.0
815,177.16598127708332,177.74310814791667,70.0,90.0
816,177.80427827708334,178.34284137083333,68.0,70.0
817,177.80427827708334,178.35746901041668,72.0,81.0
818,177.96385252708333,178.40534128541665,60.0,60.0
819,177.80427827708334,178.643372875,53.0,93.0
820,178.44257527708334,178.68060686666666,72.0,72.0
821,178.44257527708334,178.68725579375,68.0,62.0
822,179.08087227708333,179.60613751666668,62.0,71.0
823,179.08087227708333,179.62076515625,65.0,77.0
824,179.08087227708333,179.63007365416667,70.0,83.0
825,179.08087227708333,180.08619005208334,46.0,81.0
826,179.40002077708334,180.10081769166666,53.0,81.0
827,179.71916927708332,180.11012618958333,62.0,90.0
828,179.71916927708332,180.11544533125,65.0,87.0
829,179.71916927708332,180.11810490208333,70.0,98.0
830,180.03831777708334,180.29097700625,58.0,60.0
831,180.35746627708332,180.86411452083334,63.0,72.0
832,180.35746627708332,180.88007194583332,72.0,76.0
833,180.35746627708332,180.88140173125,67.0,81.0
834,180.99576327708334,181.3401777,72.0,95.0
835,180.99576327708334,181.3481564125,67.0,98.0
836,180.99576327708334,181.36810319375,63.0,90.0
837,181.31491177708332,181.47980516875,60.0,59.0
838,180.67661477708333,181.48113495416666,55.0,69.0
839,180.35746627708332,181.5077306625,48.0,85.0
840,181.63406027708334,182.21118714791666,62.0,67.0
841,181.63406027708334,182.21517650416666,65.0,74.0
842,181.63406027708334,182.21517650416666,70.0,79.0
843,182.27235727708333,182.60214406041666,70.0,95.0
844,182.27235727708333,182.60480363125,65.0,87.0
845,182.27235727708333,182.61943127083333,62.0,79.0
846,181.95320877708332,182.68725032708332,53.0,73.0
847,182.59150577708334,182.71251625,58.0,58.0
848,181.63406027708334,182.75772895416665,46.0,70.0
849,182.91065427708332,183.46118543958335,58.0,61.0
850,182.91065427708332,183.46650458125,67.0,72.0
851,182.91065427708332,183.4704939375,62.0,75.0
852,183.54895127708332,184.02368467083332,58.0,70.0
853,183.54895127708332,184.03831231041667,62.0,81.0
854,183.54895127708332,184.03831231041667,67.0,83.0
855,183.86809977708333,184.26570561666668,55.0,61.0
856,184.18724827708334,184.71251351666666,58.0,76.0
857,184.18724827708334,184.71650287291666,67.0,100.0
858,184.18724827708334,184.71783265833332,62.0,90.0
859,184.50639677708332,184.866768625,55.0,58.0
860,184.98511952708333,185.06091729583332,55.0,46.0
861,182.91065427708332,185.06756622291667,43.0,83.0
862,183.22980277708334,185.10878957083332,50.0,74.0
863,184.82554527708334,185.12474699583333,62.0,83.0
864,184.82554527708334,185.12740656666668,67.0,83.0
865,184.82554527708334,185.13671506458334,58.0,69.0
866,185.46384227708333,185.79761841666667,50.0,90.0
867,185.46384227708333,185.79761841666667,62.0,74.0
868,185.46384227708333,185.8002779875,67.0,81.0
869,185.46384227708333,185.80160777291667,43.0,51.0
870,185.46384227708333,185.81224605625,55.0,65.0
871,185.46384227708333,185.82288433958334,58.0,69.0
872,186.42128777708334,186.50772382916668,46.0,64.0
873,186.42128777708334,186.50905361458334,53.0,74.0
874,186.42128777708334,186.51304297083334,58.0,58.0
875,186.42128777708334,186.51437275625,65.0,86.0
876,186.42128777708334,186.51437275625,70.0,90.0
877,186.42128777708334,186.51703232708334,62.0,77.0
878,186.74043627708332,186.9651700125,53.0,81.0
879,186.74043627708332,186.96649979791667,65.0,95.0
880,186.74043627708332,186.96649979791667,70.0,104.0
881,186.74043627708332,186.98378700833334,58.0,67.0
882,186.74043627708332,186.98511679375,46.0,81.0
883,186.74043627708332,186.98777636458334,62.0,87.0
884,188.01703027708334,188.97846513333334,65.0,70.0
885,188.01703027708334,188.98511406041666,70.0,76.0
886,188.01703027708334,188.99708212916667,62.0,67.0
887,188.01703027708334,189.00240127083333,53.0,100.0
888,188.01703027708334,189.03032676458332,46.0,68.0
889,188.01703027708334,189.03298633541667,58.0,59.0
890,189.29362427708332,189.398677325,72.0,66.0
891,189.29362427708332,189.40798582291666,67.0,67.0
892,189.29362427708332,189.41064539375,48.0,72.0
893,189.29362427708332,189.4226134625,63.0,73.0
894,189.61277277708334,189.71383646875,72.0,87.0
895,189.61277277708334,189.72314496666667,67.0,93.0
896,189.61277277708334,189.73511303541667,48.0,83.0
897,189.61277277708334,189.73777260625,63.0,79.0
898,189.93192127708332,190.03298496875,72.0,83.0
899,189.93192127708332,190.03963389583333,67.0,93.0
900,189.93192127708332,190.04761260833334,48.0,83.0
901,189.93192127708332,190.05160196458334,63.0,79.0
902,190.25106977708333,190.33351647291667,72.0,77.0
903,190.25106977708333,190.3401654,67.0,87.0
904,190.25106977708333,190.35479303958334,63.0,75.0
905,190.25106977708333,190.36144196666666,48.0,98.0
906,190.57021827708334,191.36410017083332,63.0,76.0
907,190.57021827708334,191.36410017083332,63.0,100.0
908,190.57021827708334,191.377398025,67.0,85.0
909,190.57021827708334,191.377398025,67.0,112.0
910,190.57021827708334,191.38404695208334,72.0,81.0
911,190.57021827708334,191.38404695208334,72.0,108.0
912,191.20851527708334,191.57819562291667,60.0,66.0
913,191.52766377708332,191.57819562291667,60.0,66.0
914,191.52766377708332,191.62074875625,72.0,73.0
915,191.52766377708332,191.6247381125,67.0,79.0
916,190.88936677708332,191.63005725416667,55.0,70.0
917,191.20851527708334,191.63005725416667,55.0,75.0
918,191.52766377708332,191.63138703958333,63.0,72.0
919,190.57021827708334,191.73511030208334,48.0,79.0
920,190.57021827708334,191.73511030208334,48.0,104.0
921,191.84681227708333,192.68723666041666,62.0,74.0
922,191.84681227708333,192.69787494375,65.0,81.0
923,191.84681227708333,192.70585365624999,70.0,87.0
924,192.48510927708332,192.87207683333332,58.0,62.0
925,192.80425777708334,192.8933534,70.0,64.0
926,192.80425777708334,192.89601297083334,65.0,63.0
927,192.80425777708334,192.90665125416666,62.0,59.0
928,192.16596077708334,192.91197039583332,53.0,75.0
929,191.84681227708333,192.99175752083335,46.0,72.0
930,193.12340627708332,193.89202224791666,60.0,75.0
931,193.12340627708332,193.90000096041666,68.0,87.0
932,193.12340627708332,193.90133074583332,63.0,83.0
933,193.12340627708332,194.12606448125,44.0,74.0
934,194.08085177708332,194.18191546875,68.0,64.0
935,193.44255477708333,194.19255375208334,51.0,90.0
936,194.08085177708332,194.1938835375,60.0,63.0
937,194.08085177708332,194.20053246458332,63.0,65.0
938,193.76170327708334,194.39867049166668,56.0,73.0
939,194.40000027708334,195.21914809375,63.0,64.0
940,194.40000027708334,195.22446723541665,72.0,67.0
941,194.40000027708334,195.22579702083334,67.0,73.0
942,195.35744577708334,195.45319032708332,72.0,49.0
943,195.35744577708334,195.4545201125,63.0,57.0
944,195.35744577708334,195.4545201125,67.0,49.0
945,195.03829727708333,195.51569024166668,60.0,61.0
946,194.40000027708334,195.54627530625,48.0,74.0
947,194.71914877708332,195.59414758125,55.0,63.0
948,195.99574277708334,196.03297676875,67.0,45.0
949,196.31489127708332,196.80558209583333,67.0,83.0
950,196.31489127708332,196.81223102291668,75.0,77.0
951,196.31489127708332,196.81755016458334,70.0,85.0
952,196.63403977708333,197.12871995208334,63.0,60.0
953,196.95318827708334,197.47978330208332,67.0,83.0
954,196.95318827708334,197.48377265833332,75.0,76.0
955,196.95318827708334,197.49042158541667,70.0,86.0
956,197.27233677708332,198.00504854166667,63.0,64.0
957,195.67659427708332,198.05691017291667,51.0,104.0
958,195.99574277708334,198.06621867083334,58.0,62.0
959,197.59148527708334,198.1513249375,75.0,93.0
960,197.59148527708334,198.16063343541666,67.0,98.0
961,197.59148527708334,198.16861214791666,70.0,90.0
962,198.22978227708333,198.76834537083334,68.0,70.0
963,198.22978227708333,198.78297301041667,72.0,81.0
964,198.38935652708332,198.83084528541667,60.0,60.0
965,198.22978227708333,199.068876875,53.0,93.0
966,198.86807927708332,199.10611086666665,72.0,72.0
967,198.86807927708332,199.11275979375,68.0,62.0
968,199.50637627708332,200.03164151666667,62.0,71.0
969,199.50637627708332,200.04626915625,65.0,77.0
970,199.50637627708332,200.05557765416665,70.0,83.0
971,199.50637627708332,200.51169405208333,46.0,81.0
972,199.82552477708333,200.52632169166665,53.0,81.0
973,200.14467327708334,200.53563018958334,62.0,90.0
974,200.14467327708334,200.54094933125,65.0,87.0
975,200.14467327708334,200.54360890208332,70.0,98.0
976,200.46382177708333,200.71648100625,58.0,60.0
977,200.78297027708334,201.28961852083333,63.0,72.0
978,200.78297027708334,201.30557594583334,72.0,76.0
979,200.78297027708334,201.30690573125,67.0,81.0
980,201.42126727708333,201.7656817,72.0,95.0
981,201.42126727708333,201.7736604125,67.0,98.0
982,201.42126727708333,201.79360719375,63.0,90.0
983,201.74041577708334,201.90530916875,60.0,59.0
984,201.10211877708332,201.90663895416665,55.0,69.0
985,200.78297027708334,201.9332346625,48.0,85.0
986,202.05956427708333,202.63669114791668,62.0,67.0
987,202.05956427708333,202.64068050416665,65.0,74.0
988,202.05956427708333,202.64068050416665,70.0,79.0
989,202.69786127708332,203.02764806041665,70.0,95.0
990,202.69786127708332,203.03030763125,65.0,87.0
991,202.69786127708332,203.04493527083332,62.0,79.0
992,202.37871277708334,203.11275432708334,53.0,73.0
993,203.01700977708333,203.13802025,58.0,58.0
994,202.05956427708333,203.18323295416667,46.0,70.0
995,203.33615827708334,203.88668943958334,58.0,61.0
996,203.33615827708334,203.89200858125,67.0,72.0
997,203.33615827708334,203.8959979375,62.0,75.0
998,203.97445527708334,204.44918867083334,58.0,70.0
999,203.97445527708334,204.46381631041666,62.0,81.0
1000,203.97445527708334,204.46381631041666,67.0,83.0
1001,204.29360377708332,204.69120961666667,55.0,61.0
1002,204.61275227708333,205.13801751666668,58.0,76.0
1003,204.61275227708333,205.14200687291665,67.0,100.0
1004,204.61275227708333,205.14333665833334,62.0,90.0
1005,204.93190077708334,205.292272625,55.0,58.0
1006,205.41062352708335,205.48642129583334,55.0,46.0
1007,203.33615827708334,205.49307022291666,43.0,83.0
1008,203.65530677708333,205.53429357083334,50.0,74.0
1009,205.25104927708333,205.55025099583332,62.0,83.0
1010,205.25104927708333,205.55291056666667,67.0,83.0
1011,205.25104927708333,205.56221906458333,58.0,69.0
1012,205.88934627708332,206.22312241666665,50.0,90.0
1013,205.88934627708332,206.22312241666665,62.0,74.0
1014,205.88934627708332,206.2257819875,67.0,81.0
1015,205.88934627708332,206.22711177291666,43.0,51.0
1016,205.88934627708332,206.23775005625,55.0,65.0
1017,205.88934627708332,206.24838833958333,58.0,69.0
1018,206.84679177708333,206.93322782916667,46.0,64.0
1019,206.84679177708333,206.93455761458333,53.0,74.0
1020,206.84679177708333,206.93854697083333,58.0,58.0
1021,206.84679177708333,206.93987675625,65.0,86.0
1022,206.84679177708333,206.93987675625,70.0,90.0
1023,206.84679177708333,206.94253632708333,62.0,77.0
1024,207.16594027708334,207.3906740125,53.0,81.0
1025,207.16594027708334,207.39200379791666,65.0,95.0
1026,207.16594027708334,207.39200379791666,70.0,104.0
1027,207.16594027708334,207.40929100833333,58.0,67.0
1028,207.16594027708334,207.41062079374998,46.0,81.0
1029,207.16594027708334,207.41328036458333,62.0,87.0
1030,208.44253427708333,209.40396913333333,65.0,70.0
1031,208.44253427708333,209.41061806041665,70.0,76.0
1032,208.44253427708333,209.42258612916666,62.0,67.0
1033,208.44253427708333,209.42790527083332,53.0,100.0
1034,208.44253427708333,209.45583076458334,46.0,68.0
1035,208.44253427708333,209.45849033541666,58.0,59.0
1036,209.71912827708334,209.824181325,72.0,66.0
1037,209.71912827708334,209.83348982291668,67.0,67.0
1038,209.71912827708334,209.83614939375,48.0,72.0
1039,209.71912827708334,209.8481174625,63.0,73.0
1040,210.03827677708333,210.13934046875,72.0,87.0
1041,210.03827677708333,210.14864896666666,67.0,93.0
1042,210.03827677708333,210.16061703541666,48.0,83.0
1043,210.03827677708333,210.16327660625,63.0,79.0
1044,210.35742527708334,210.45848896875,72.0,83.0
1045,210.35742527708334,210.46513789583332,67.0,93.0
1046,210.35742527708334,210.47311660833333,48.0,83.0
1047,210.35742527708334,210.47710596458333,63.0,79.0
1048,210.67657377708332,210.75902047291666,72.0,77.0
1049,210.67657377708332,210.7656694,67.0,87.0
1050,210.67657377708332,210.78029703958333,63.0,75.0
1051,210.67657377708332,210.78694596666668,48.0,98.0
1052,210.99572227708333,211.50237052083332,63.0,72.0
1053,210.99572227708333,211.50237052083332,63.0,100.0
1054,210.99572227708333,211.51832794583333,72.0,76.0
1055,210.99572227708333,211.51832794583333,72.0,108.0
1056,210.99572227708333,211.51965773125,67.0,81.0
1057,210.99572227708333,211.51965773125,67.0,112.0
1058,211.63401927708333,211.9784337,72.0,95.0
1059,211.63401927708333,211.9864124125,67.0,98.0
1060,211.63401927708333,212.00635919375,63.0,90.0
1061,211.95316777708334,212.11806116875,60.0,59.0
1062,211.95316777708334,212.11806116875,60.0,66.0
1063,211.31487077708334,212.11939095416668,55.0,69.0
1064,211.63401927708333,212.11939095416668,55.0,75.0
1065,210.99572227708333,212.1459866625,48.0,85.0
1066,210.99572227708333,212.1459866625,48.0,104.0
1067,212.27231627708332,212.84944314791667,62.0,67.0
1068,212.27231627708332,212.85343250416668,65.0,74.0
1069,212.27231627708332,212.85343250416668,70.0,79.0
1070,212.91061327708334,213.24040006041668,70.0,95.0
1071,212.91061327708334,213.24305963125,65.0,87.0
1072,212.91061327708334,213.25768727083334,62.0,79.0
1073,212.59146477708333,213.32550632708333,53.0,73.0
1074,213.22976177708333,213.35077225,58.0,58.0
1075,212.27231627708332,213.39598495416666,46.0,70.0
1076,213.54891027708334,214.09944143958333,58.0,61.0
1077,213.54891027708334,214.10476058125,67.0,72.0
1078,213.54891027708334,214.1087499375,62.0,75.0
1079,214.18720727708333,214.66194067083333,58.0,70.0
1080,214.18720727708333,214.67656831041666,62.0,81.0
1081,214.18720727708333,214.67656831041666,67.0,83.0
1082,214.50635577708334,214.90396161666666,55.0,61.0
1083,214.82550427708333,215.35076951666667,58.0,76.0
1084,214.82550427708333,215.35475887291668,67.0,100.0
1085,214.82550427708333,215.35608865833333,62.0,90.0
1086,215.14465277708334,215.505024625,55.0,58.0
1087,215.62337552708334,215.69917329583333,55.0,46.0
1088,213.54891027708334,215.70582222291665,43.0,83.0
1089,213.86805877708332,215.74704557083334,50.0,74.0
1090,215.46380127708332,215.76300299583332,62.0,83.0
1091,215.46380127708332,215.76566256666666,67.0,83.0
1092,215.46380127708332,215.77497106458333,58.0,69.0
1093,216.10209827708334,216.43587441666668,50.0,90.0
1094,216.10209827708334,216.43587441666668,62.0,74.0
1095,216.10209827708334,216.4385339875,67.0,81.0
1096,216.10209827708334,216.43986377291665,43.0,51.0
1097,216.10209827708334,216.45050205625,55.0,65.0
1098,216.10209827708334,216.46114033958332,58.0,69.0
1099,217.05954377708332,217.14597982916666,46.0,64.0
1100,217.05954377708332,217.14730961458332,53.0,74.0
1101,217.05954377708332,217.15129897083332,58.0,58.0
1102,217.05954377708332,217.15262875625,65.0,86.0
1103,217.05954377708332,217.15262875625,70.0,90.0
1104,217.05954377708332,217.15528832708333,62.0,77.0
1105,217.37869227708333,217.6034260125,53.0,81.0
1106,217.37869227708333,217.60475579791665,65.0,95.0
1107,217.37869227708333,217.60475579791665,70.0,104.0
1108,217.37869227708333,217.62204300833332,58.0,67.0
1109,217.37869227708333,217.62337279375,46.0,81.0
1110,217.37869227708333,217.62603236458332,62.0,87.0
1111,218.65528627708332,219.61672113333333,65.0,70.0
1112,218.65528627708332,219.62337006041668,70.0,76.0
1113,218.65528627708332,219.63533812916666,62.0,67.0
1114,218.65528627708332,219.64065727083334,53.0,100.0
1115,218.65528627708332,219.66858276458333,46.0,68.0
1116,218.65528627708332,219.67124233541668,58.0,59.0
1117,219.93188027708334,220.036933325,72.0,66.0
1118,219.93188027708334,220.04624182291667,67.0,67.0
1119,219.93188027708334,220.04890139375,48.0,72.0
1120,219.93188027708334,220.0608694625,63.0,73.0
1121,220.25102877708332,220.35209246875,72.0,87.0
1122,220.25102877708332,220.36140096666668,67.0,93.0
1123,220.25102877708332,220.37336903541666,48.0,83.0
1124,220.25102877708332,220.37602860625,63.0,79.0
1125,220.57017727708333,220.67124096875,72.0,83.0
1126,220.57017727708333,220.67788989583335,67.0,93.0
1127,220.57017727708333,220.68586860833332,48.0,83.0
1128,220.57017727708333,220.68985796458333,63.0,79.0
1129,220.88932577708334,220.97177247291665,72.0,77.0
1130,220.88932577708334,220.9784214,67.0,87.0
1131,220.88932577708334,220.99304903958333,63.0,75.0
1132,220.88932577708334,220.99969796666667,48.0,98.0
1133,221.20847427708333,221.79756921666666,63.0,98.0
1134,221.20847427708333,221.79756921666666,63.0,100.0
1135,221.52762277708334,221.88533505416666,60.0,63.0
1136,222.00634552708334,222.37868544375,63.0,38.0
1137,221.20847427708333,222.38932372708334,72.0,108.0
1138,221.20847427708333,222.39597265416666,67.0,112.0
1139,221.84677127708332,222.39597265416666,67.0,98.0
1140,221.20847427708333,222.48506827708334,48.0,95.0
1141,221.20847427708333,222.48506827708334,48.0,104.0
1142,221.52762277708334,222.48506827708334,55.0,74.0
1143,221.84677127708332,222.48506827708334,55.0,75.0
1144,222.16591977708333,222.53560012291666,60.0,63.0
1145,222.16591977708333,222.53560012291666,60.0,66.0
1146,222.48506827708334,223.03426965416668,63.0,61.0
1147,222.48506827708334,223.04623772291666,67.0,70.0
1148,222.80421677708333,223.63001352083333,60.0,67.0
1149,223.12336527708334,223.70315171875,67.0,86.0
1150,223.12336527708334,223.72575807083334,63.0,73.0
1151,223.76166227708333,224.55820374166666,68.0,87.0
1152,224.39995927708333,224.824160825,65.0,59.0
1153,225.19783052708334,225.38134091458332,65.0,59.0
1154,225.35740477708333,225.38134091458332,65.0,65.0
1155,224.71910777708334,225.63267035833334,68.0,83.0
1156,224.71910777708334,225.63665971458335,72.0,81.0
1157,224.08081077708334,225.84277645416665,60.0,60.0
1158,223.76166227708333,225.89995722708332,53.0,81.0
1159,225.67655327708334,225.98373370833332,72.0,83.0
1160,225.67655327708334,226.01032941666668,68.0,76.0
1161,226.31485027708334,226.85607294166667,62.0,68.0
1162,226.31485027708334,226.88133886458334,65.0,70.0
1163,226.95314727708333,227.4810720875,62.0,59.0
1164,226.95314727708333,227.48240187291665,70.0,66.0
1165,226.95314727708333,227.50234865416667,65.0,54.0
1166,227.27229577708334,227.69117818333334,58.0,56.0
1167,227.59144427708333,228.1034116625,62.0,63.0
1168,227.59144427708333,228.11139037499998,65.0,67.0
1169,227.59144427708333,228.12069887291668,70.0,74.0
1170,227.91059277708334,228.22176256458334,58.0,59.0
1171,226.31485027708334,228.558198275,46.0,75.0
1172,228.22974127708332,228.57681527083332,65.0,93.0
1173,228.22974127708332,228.57814505625,62.0,74.0
1174,228.22974127708332,228.58479398333333,70.0,93.0
1175,228.70846402708332,228.74569801875,63.0,47.0
1176,226.63399877708332,228.82548514375,53.0,73.0
1177,228.54888977708333,228.82814471458335,58.0,63.0
1178,228.86803827708334,229.18984634791667,72.0,72.0
1179,228.86803827708334,229.39729287291667,63.0,64.0
1180,228.86803827708334,229.4119205125,67.0,66.0
1181,229.50633527708334,230.07415365,63.0,74.0
1182,229.50633527708334,230.07548343541666,67.0,87.0
1183,229.82548377708332,230.249685325,60.0,59.0
1184,230.14463227708333,230.68452515625,67.0,81.0
1185,230.14463227708333,230.68984429791666,63.0,73.0
1186,230.46378077708334,230.88266318333334,60.0,58.0
1187,228.86803827708334,231.32548172708334,48.0,66.0
1188,231.10207777708334,231.34542850833333,60.0,52.0
1189,230.78292927708333,231.36936464583334,63.0,74.0
1190,230.78292927708333,231.36936464583334,67.0,81.0
1191,229.18718677708333,231.42920498958333,55.0,69.0
1192,231.42122627708332,232.59276722916667,67.0,90.0
1193,231.42122627708332,232.60207572708333,63.0,83.0
1194,231.42122627708332,232.63399057708332,48.0,79.0
1195,231.74037477708333,232.64994800208333,55.0,58.0
1196,232.69782027708334,234.84941308125,67.0,90.0
1197,232.69782027708334,234.86404072083334,63.0,83.0
1198,232.69782027708334,234.89063642916668,48.0,95.0
