,start,end,pitch,velocity
0,21.923556302083334,22.222166666666666,64.0,87.0
1,22.256888802083335,22.74716535416667,67.0,84.0
2,22.923553802083333,23.194386458333334,64.0,87.0
3,23.256886302083334,23.559663322916666,69.0,79.0
4,23.590218802083335,23.815218239583334,67.0,85.0
5,23.923551302083336,24.15410628125,64.0,86.0
6,24.256883802083333,24.923548802083335,62.0,78.0
7,24.923548802083335,26.559655822916667,60.0,85.0
8,27.256876302083334,27.530486729166668,69.0,84.0
9,27.590208802083335,28.190207302083333,72.0,86.0
10,28.256873802083334,28.449928875,69.0,85.0
11,28.590206302083335,28.833261250000003,69.0,83.0
12,28.923538802083335,29.15409378125,67.0,73.0
13,29.256871302083336,29.91381410416667,67.0,86.0
14,29.923536302083335,30.42075728125,64.0,84.0
15,30.423535052083334,32.331863614583334,67.0,80.0
16,32.590196302083335,32.91936214583333,69.0,84.0
17,32.92352880208333,33.27213904166667,67.0,83.0
18,33.25686130208334,33.573527177083335,69.0,84.0
19,33.590193802083334,33.856859802083335,72.0,83.0
20,33.92352630208334,34.21797001041667,74.0,86.0
21,34.256858802083336,34.50685817708334,76.0,84.0
22,34.59019130208333,34.86935727083333,71.0,83.0
23,34.92352380208334,35.24713410416667,69.0,84.0
24,35.256856302083335,36.07629869791667,67.0,84.0
25,36.256853802083334,36.50129763541667,64.0,84.0
26,36.59018630208333,37.61518373958334,64.0,86.0
27,38.25684880208333,38.506848177083334,62.0,80.0
28,38.59018130208334,38.799903,64.0,87.0
29,38.923513802083335,39.247124104166666,67.0,83.0
30,39.25684630208333,40.08184423958333,69.0,81.0
31,40.25684380208334,40.881842239583335,64.0,84.0
32,40.92350880208333,43.03739240625,62.0,81.0
33,43.256836302083336,43.55544666666667,64.0,87.0
34,43.59016880208333,44.08044535416667,67.0,84.0
35,44.256833802083335,44.527666458333336,64.0,87.0
36,44.59016630208333,44.89294332291667,69.0,79.0
37,44.92349880208334,45.14849823958333,67.0,85.0
38,45.256831302083334,45.487386281250004,64.0,86.0
39,45.59016380208334,46.256828802083334,62.0,78.0
40,46.256828802083334,47.89293582291667,60.0,85.0
41,48.59015630208334,48.86376672916667,69.0,84.0
42,48.923488802083334,49.52348730208334,72.0,86.0
43,49.590153802083336,49.783208875,69.0,85.0
44,49.92348630208333,50.16654125,69.0,83.0
45,50.25681880208334,50.48737378125,67.0,73.0
46,50.590151302083335,50.92348380208334,67.0,86.0
47,50.92348380208334,51.25681630208334,64.0,84.0
48,51.25681630208334,51.75681505208333,69.0,84.0
49,51.75681505208333,53.665143614583336,67.0,80.0
50,53.92347630208334,54.252642145833335,69.0,84.0
51,54.256808802083334,54.60541904166667,67.0,83.0
52,54.59014130208334,54.90680717708334,69.0,84.0
53,54.923473802083336,55.19013980208334,72.0,83.0
54,55.25680630208333,55.551250010416666,74.0,86.0
55,55.59013880208334,55.84013817708334,76.0,84.0
56,55.923471302083335,56.202637270833335,71.0,83.0
57,56.25680380208334,56.58041410416667,69.0,84.0
58,56.59013630208334,56.923468802083335,67.0,84.0
59,56.923468802083335,57.25680130208334,64.0,78.0
60,57.25680130208334,57.590133802083336,67.0,78.0
61,57.590133802083336,58.25679880208334,74.0,84.0
62,58.25679880208334,59.281796239583336,64.0,86.0
63,59.590128802083335,59.840128177083336,62.0,80.0
64,59.92346130208334,60.133183,64.0,87.0
65,60.25679380208334,60.58040410416667,67.0,83.0
66,60.590126302083334,60.92345880208334,69.0,81.0
67,60.92345880208334,61.256791302083336,67.0,84.0
68,61.256791302083336,61.59012380208333,64.0,78.0
69,61.59012380208333,62.256788802083335,62.0,78.0
70,62.256788802083335,64.37067240625001,60.0,81.0
71,66.92344380208334,67.18733203125001,67.0,86.0
72,67.25677630208334,67.65955307291667,69.0,87.0
73,67.75677505208334,68.12621857291667,76.0,88.0
74,68.25677380208333,68.53038422916667,67.0,85.0
75,68.59010630208334,68.98732753125,69.0,86.0
76,69.09010505208333,69.44010417708334,76.0,87.0
77,69.59010380208333,69.92343630208333,72.0,83.0
78,69.92343630208333,71.25676630208334,74.0,89.0
79,71.59009880208333,71.84982037500001,76.0,88.0
80,71.92343130208334,72.20537504166667,74.0,93.0
81,72.25676380208334,72.49981875,72.0,86.0
82,72.59009630208334,72.93592877083334,67.0,88.0
83,73.09009505208334,73.46648300000001,74.0,93.0
84,73.59009380208333,73.82203766666667,64.0,88.0
85,73.92342630208334,74.283147625,67.0,85.0
86,74.42342505208333,74.81509073958334,74.0,88.0
87,74.92342380208333,75.20536754166667,67.0,83.0
88,75.25675630208333,76.69564159375001,72.0,85.0
89,76.92341880208333,77.21230696875,72.0,88.0
90,77.25675130208334,77.52897284375,74.0,89.0
91,77.59008380208334,77.86924977083333,76.0,88.0
92,77.92341630208334,78.41091508333334,79.0,86.0
93,78.59008130208333,78.88313612500001,81.0,86.0
94,78.92341380208333,79.53869004166667,76.0,88.0
95,79.59007880208334,80.37063240625001,74.0,91.0
96,80.92340880208334,81.23590802083334,74.0,90.0
97,81.25674130208334,81.62062928125,72.0,84.0
98,81.59007380208334,81.94423958333334,74.0,91.0
99,81.92340630208334,82.38173848958334,76.0,86.0
100,82.42340505208334,82.90673717708334,79.0,84.0
101,82.92340380208334,85.9247851875,76.0,88.0
102,86.25672880208334,86.47756158333334,74.0,86.0
103,86.59006130208334,86.84700510416667,74.0,88.0
104,86.92339380208334,87.199782,76.0,86.0
105,87.25672630208334,87.55533666666668,74.0,90.0
106,87.59005880208333,87.88172473958333,72.0,85.0
107,87.92339130208333,88.24283494791668,69.0,85.0
108,88.25672380208334,88.57755633333333,72.0,86.0
109,88.59005630208334,89.08033285416667,74.0,88.0
110,89.09005505208334,89.50255402083334,76.0,85.0
111,89.59005380208333,89.88588639583334,69.0,85.0
112,89.92338630208334,90.33588527083334,74.0,86.0
113,90.42338505208333,90.89282832291667,76.0,85.0
114,90.92338380208334,91.24004967708333,72.0,85.0
115,91.25671630208333,92.71504598958334,74.0,88.0
116,92.92337880208333,93.14421158333334,76.0,86.0
117,93.25671130208333,93.50254402083334,74.0,88.0
118,93.59004380208334,93.85115426041668,72.0,85.0
119,93.92337630208334,94.30948644791667,67.0,88.0
120,94.42337505208334,94.79004080208334,74.0,89.0
121,94.92337380208333,95.19003980208333,64.0,90.0
122,95.25670630208334,95.62753870833333,67.0,86.0
123,95.75670505208333,96.11225971875001,74.0,95.0
124,96.25670380208334,96.4914254375,76.0,88.0
125,96.59003630208333,97.96642175000001,76.0,90.0
126,98.25669880208333,98.56919802083334,72.0,86.0
127,98.59003130208333,98.98169698958334,69.0,85.0
128,98.92336380208334,99.30391840625,72.0,84.0
129,99.25669630208334,99.96502786458333,74.0,88.0
130,99.92336130208334,100.22752720833334,76.0,90.0
131,100.25669380208333,100.74697035416668,74.0,91.0
132,100.92335880208334,101.23308025,72.0,85.0
133,101.25669130208334,101.60252377083334,69.0,84.0
134,101.59002380208334,101.93446738541667,72.0,85.0
135,101.92335630208333,102.49974375000001,74.0,87.0
136,102.59002130208334,102.90390940625001,76.0,85.0
137,102.92335380208334,103.26224184375,79.0,85.0
138,103.25668630208334,103.92335130208333,76.0,89.0
139,103.92335130208333,104.50946094791668,74.0,90.0
140,104.59001630208334,107.20945419791667,72.0,84.0
141,125.92329630208334,126.22190666666667,64.0,87.0
142,126.25662880208334,126.74690535416667,67.0,84.0
143,126.92329380208334,127.19412645833334,64.0,87.0
144,127.25662630208333,127.55940332291668,69.0,79.0
145,127.58995880208334,127.81495823958333,67.0,85.0
146,127.92329130208334,128.15384628125,64.0,86.0
147,128.25662380208334,128.92328880208333,62.0,78.0
148,128.92328880208333,130.55939582291668,60.0,85.0
149,131.25661630208333,131.53022672916669,69.0,84.0
150,131.58994880208334,132.18994730208334,72.0,86.0
151,132.25661380208334,132.44966887500001,69.0,85.0
152,132.58994630208335,132.83300125,69.0,83.0
153,132.92327880208333,133.15383378125,67.0,73.0
154,133.25661130208334,133.91355410416668,67.0,86.0
155,133.92327630208334,134.42049728125,64.0,84.0
156,134.42327505208334,136.33160361458334,67.0,80.0
157,136.58993630208334,136.91910214583334,69.0,84.0
158,136.92326880208333,137.27187904166666,67.0,83.0
159,137.25660130208334,137.57326717708335,69.0,84.0
160,137.58993380208335,137.85659980208334,72.0,83.0
161,137.92326630208333,138.21771001041668,74.0,86.0
162,138.25659880208335,138.50659817708333,76.0,84.0
163,138.58993130208333,138.86909727083335,71.0,83.0
164,138.92326380208334,139.24687410416666,69.0,84.0
165,139.25659630208335,140.0760386979167,67.0,84.0
166,140.25659380208333,140.50103763541668,64.0,84.0
167,140.58992630208334,141.61492373958333,64.0,86.0
168,142.25658880208334,142.50658817708333,62.0,80.0
169,142.58992130208335,142.799643,64.0,87.0
170,142.92325380208334,143.24686410416666,67.0,83.0
171,143.25658630208335,144.08158423958335,69.0,81.0
172,144.25658380208333,144.88158223958334,64.0,84.0
173,144.92324880208335,147.03713240625,62.0,81.0
174,147.25657630208335,147.55518666666669,64.0,87.0
175,147.58990880208333,148.08018535416667,67.0,84.0
176,148.25657380208335,148.52740645833333,64.0,87.0
177,148.58990630208334,148.89268332291667,69.0,79.0
178,148.92323880208335,149.14823823958335,67.0,85.0
179,149.25657130208333,149.48712628125,64.0,86.0
180,149.58990380208334,150.25656880208334,62.0,78.0
181,150.25656880208334,151.8926758229167,60.0,85.0
182,152.58989630208333,152.8635067291667,69.0,84.0
183,152.92322880208334,153.52322730208334,72.0,86.0
184,153.58989380208334,153.78294887500002,69.0,85.0
185,153.92322630208335,154.16628125,69.0,83.0
186,154.25655880208333,154.48711378125,67.0,73.0
187,154.58989130208334,154.92322380208333,67.0,86.0
188,154.92322380208333,155.25655630208334,64.0,84.0
189,155.25655630208334,155.75655505208334,69.0,84.0
190,155.75655505208334,157.66488361458335,67.0,80.0
191,157.92321630208335,158.25238214583334,69.0,84.0
192,158.25654880208333,158.60515904166667,67.0,83.0
193,158.58988130208334,158.90654717708335,69.0,84.0
194,158.92321380208335,159.18987980208334,72.0,83.0
195,159.25654630208334,159.55099001041668,74.0,86.0
196,159.58987880208335,159.83987817708334,76.0,84.0
197,159.92321130208333,160.20237727083335,71.0,83.0
198,160.25654380208334,160.58015410416667,69.0,84.0
199,160.58987630208335,160.92320880208334,67.0,84.0
200,160.92320880208334,161.25654130208335,64.0,78.0
201,161.25654130208335,161.58987380208333,67.0,78.0
202,161.58987380208333,162.25653880208336,74.0,84.0
203,162.25653880208336,163.28153623958335,64.0,86.0
204,163.58986880208334,163.83986817708333,62.0,80.0
205,163.92320130208333,164.132923,64.0,87.0
206,164.25653380208334,164.58014410416666,67.0,83.0
207,164.58986630208335,164.92319880208333,69.0,81.0
208,164.92319880208333,165.25653130208335,67.0,84.0
209,165.25653130208335,165.58986380208333,64.0,78.0
210,165.58986380208333,166.25652880208335,62.0,78.0
211,166.25652880208335,168.37041240625,60.0,81.0
212,170.92318380208334,171.18707203125,67.0,86.0
213,171.25651630208336,171.65929307291668,69.0,87.0
214,171.75651505208333,172.1259585729167,76.0,88.0
215,172.25651380208333,172.5301242291667,67.0,85.0
216,172.58984630208334,172.98706753125,69.0,86.0
217,173.08984505208335,173.43984417708333,76.0,87.0
218,173.58984380208335,173.92317630208333,72.0,83.0
219,173.92317630208333,175.25650630208335,74.0,89.0
220,175.58983880208334,175.849560375,76.0,88.0
221,175.92317130208335,176.2051150416667,74.0,93.0
222,176.25650380208333,176.49955875,72.0,86.0
223,176.58983630208334,176.93566877083333,67.0,88.0
224,177.08983505208334,177.466223,74.0,93.0
225,177.58983380208335,177.82177766666666,64.0,88.0
226,177.92316630208333,178.282887625,67.0,85.0
227,178.42316505208333,178.81483073958336,74.0,88.0
228,178.92316380208334,179.20510754166668,67.0,83.0
229,179.25649630208335,180.69538159375,72.0,85.0
230,180.92315880208335,181.21204696875,72.0,88.0
231,181.25649130208333,181.52871284375001,74.0,89.0
232,181.58982380208334,181.86898977083334,76.0,88.0
233,181.92315630208336,182.41065508333335,79.0,86.0
234,182.58982130208335,182.882876125,81.0,86.0
235,182.92315380208333,183.5384300416667,76.0,88.0
236,183.58981880208336,184.37037240625,74.0,91.0
237,184.92314880208335,185.23564802083334,74.0,90.0
238,185.25648130208333,185.62036928125002,72.0,84.0
239,185.58981380208334,185.94397958333334,74.0,91.0
240,185.92314630208335,186.38147848958334,76.0,86.0
241,186.42314505208336,186.90647717708333,79.0,84.0
242,186.92314380208333,189.92452518750002,76.0,88.0
243,190.25646880208333,190.47730158333334,74.0,86.0
244,190.58980130208334,190.84674510416667,74.0,88.0
245,190.92313380208336,191.199522,76.0,86.0
246,191.25646630208334,191.55507666666668,74.0,90.0
247,191.58979880208335,191.88146473958335,72.0,85.0
248,191.92313130208333,192.24257494791667,69.0,85.0
249,192.25646380208335,192.57729633333335,72.0,86.0
250,192.58979630208336,193.08007285416667,74.0,88.0
251,193.08979505208333,193.50229402083335,76.0,85.0
252,193.58979380208334,193.88562639583336,69.0,85.0
253,193.92312630208335,194.33562527083333,74.0,86.0
254,194.42312505208335,194.89256832291667,76.0,85.0
255,194.92312380208335,195.23978967708334,72.0,85.0
256,195.25645630208334,196.71478598958333,74.0,88.0
257,196.92311880208334,197.14395158333335,76.0,86.0
258,197.25645130208335,197.50228402083334,74.0,88.0
259,197.58978380208333,197.85089426041668,72.0,85.0
260,197.92311630208334,198.30922644791667,67.0,88.0
261,198.42311505208335,198.78978080208336,74.0,89.0
262,198.92311380208335,199.18977980208334,64.0,90.0
263,199.25644630208333,199.62727870833334,67.0,86.0
264,199.75644505208334,200.11199971875,74.0,95.0
265,200.25644380208334,200.4911654375,76.0,88.0
266,200.58977630208335,201.96616175,76.0,90.0
267,202.25643880208335,202.56893802083334,72.0,86.0
268,202.58977130208334,202.98143698958336,69.0,85.0
269,202.92310380208335,203.30365840625,72.0,84.0
270,203.25643630208336,203.96476786458334,74.0,88.0
271,203.92310130208335,204.22726720833333,76.0,90.0
272,204.25643380208334,204.74671035416668,74.0,91.0
273,204.92309880208333,205.23282025,72.0,85.0
274,205.25643130208334,205.60226377083333,69.0,84.0
275,205.58976380208335,205.93420738541667,72.0,85.0
276,205.92309630208334,206.49948375000002,74.0,87.0
277,206.58976130208333,206.90364940625,76.0,85.0
278,206.92309380208334,207.26198184375002,79.0,85.0
279,207.25642630208336,207.92309130208335,76.0,89.0
280,207.92309130208335,208.50920094791667,74.0,90.0
281,208.58975630208334,211.20919419791667,72.0,84.0
282,227.58970880208335,227.81054158333333,74.0,86.0
283,227.92304130208333,228.1799851041667,74.0,88.0
284,228.25637380208335,228.53276200000002,76.0,86.0
285,228.58970630208336,228.88831666666667,74.0,90.0
286,228.92303880208334,229.21470473958334,72.0,85.0
287,229.25637130208335,229.57581494791668,69.0,85.0
288,229.58970380208333,229.91053633333334,72.0,86.0
289,229.92303630208335,230.4133128541667,74.0,88.0
290,230.42303505208335,230.83553402083334,76.0,85.0
291,230.92303380208335,231.21886639583334,69.0,85.0
292,231.25636630208334,231.66886527083335,74.0,86.0
293,231.75636505208334,232.2258083229167,76.0,85.0
294,232.25636380208334,232.57302967708335,72.0,85.0
295,232.58969630208335,234.04802598958335,74.0,88.0
296,234.25635880208335,234.47719158333334,76.0,86.0
297,234.58969130208334,234.83552402083333,74.0,88.0
298,234.92302380208335,235.18413426041667,72.0,85.0
299,235.25635630208333,235.6424664479167,67.0,88.0
300,235.75635505208334,236.12302080208335,74.0,89.0
301,236.25635380208334,236.52301980208335,64.0,90.0
302,236.58968630208335,236.96051870833335,67.0,86.0
303,237.08968505208335,237.44523971875,74.0,95.0
304,237.58968380208336,237.82440543750002,76.0,88.0
305,237.92301630208334,239.29940175000002,76.0,90.0
306,239.58967880208334,239.90217802083333,72.0,86.0
307,239.92301130208335,240.31467698958335,69.0,85.0
308,240.25634380208334,240.63689840625003,72.0,84.0
309,240.58967630208335,241.29800786458335,74.0,88.0
310,241.25634130208334,241.56050720833335,76.0,90.0
311,241.58967380208335,242.07995035416667,74.0,91.0
312,242.25633880208335,242.56606025000002,72.0,85.0
313,242.58967130208336,242.93550377083335,69.0,84.0
314,242.92300380208334,243.2674473854167,72.0,85.0
315,243.25633630208335,243.83272375,74.0,87.0
316,243.92300130208335,244.23688940625001,76.0,85.0
317,244.25633380208333,244.59522184375,79.0,85.0
318,244.58966630208334,245.25633130208334,76.0,89.0
319,245.25633130208334,245.84244094791669,74.0,90.0
320,245.92299630208333,248.5424341979167,72.0,84.0
