,start,end,pitch,velocity
0,0.6180540104166667,2.7736041770833335,53.0,71.0
1,0.9874975312500001,2.96665925,55.0,71.0
2,1.2861078958333334,3.2416585625,62.0,71.0
3,1.6138848541666668,3.83749040625,64.0,71.0
4,3.9236013020833336,4.36248909375,56.0,73.0
5,4.256933802083333,5.172209291666667,60.0,79.0
6,4.590266302083333,5.313875604166667,65.0,80.0
7,4.923598802083333,5.361097708333333,53.0,59.0
8,3.5902688020833335,5.863874229166667,48.0,68.0
9,5.256931302083333,5.868040885416667,56.0,69.0
10,3.2569363020833335,5.8958185937500005,41.0,84.0
11,5.256931302083333,5.92081853125,60.0,75.0
12,6.590261302083333,7.338870541666667,52.0,80.0
13,6.256928802083333,7.6610919583333335,47.0,73.0
14,6.923593802083333,7.681925239583334,55.0,84.0
15,5.923596302083333,7.761091708333334,40.0,85.0
16,7.5902588020833335,7.959702322916667,52.0,84.0
17,7.9235913020833335,8.048590989583333,55.0,80.0
18,7.2569263020833334,8.080535354166667,64.0,85.0
19,8.590256302083334,9.60414265625,57.0,71.0
20,8.590256302083334,9.7083090625,60.0,75.0
21,8.923588802083334,9.763864479166667,52.0,73.0
22,9.256921302083335,10.116641375,64.0,82.0
23,9.590253802083334,10.331918614583333,69.0,83.0
24,10.256918802083334,10.531918114583334,57.0,74.0
25,10.590251302083335,10.715250989583334,57.0,72.0
26,9.923586302083335,10.769417520833334,52.0,74.0
27,10.590251302083335,10.840250677083334,60.0,83.0
28,8.590256302083334,10.905528291666668,45.0,80.0
29,11.256916302083335,11.627748708333334,57.0,74.0
30,11.256916302083335,11.988858916666667,62.0,81.0
31,11.923581302083335,12.084692010416667,57.0,88.0
32,11.590248802083334,12.416635625000001,53.0,71.0
33,11.256916302083335,12.5416353125,50.0,84.0
34,12.256913802083334,12.9999675,57.0,85.0
35,12.923578802083334,13.181911489583333,53.0,70.0
36,12.256913802083334,13.370799906250001,65.0,85.0
37,13.256911302083335,13.456910802083334,57.0,81.0
38,13.923576302083333,14.406908427083334,62.0,80.0
39,13.923576302083333,14.443019447916667,55.0,79.0
40,14.590241302083333,14.998573614583334,62.0,83.0
41,15.590238802083334,15.963848979166668,55.0,75.0
42,14.923573802083334,15.980515604166667,67.0,84.0
43,15.923571302083333,16.084682010416667,62.0,85.0
44,14.256908802083334,16.106904177083333,50.0,79.0
45,13.923576302083333,16.17079290625,43.0,84.0
46,16.590236302083333,16.956902052083333,55.0,76.0
47,16.590236302083333,17.169401520833333,60.0,80.0
48,17.256901302083335,17.522178416666666,55.0,73.0
49,17.590233802083333,18.315231989583335,62.0,86.0
50,18.256898802083334,18.729119843750002,60.0,76.0
51,16.923568802083334,19.068007885416666,52.0,72.0
52,16.590236302083333,19.116618875,48.0,86.0
53,18.590231302083335,19.70133963541667,55.0,72.0
54,20.256893802083333,21.690223552083335,62.0,76.0
55,19.256896302083334,21.69994575,43.0,85.0
56,19.590228802083335,21.70411240625,50.0,80.0
57,19.923561302083336,21.752723395833335,55.0,82.0
58,20.256893802083333,21.758278937500002,67.0,81.0
59,22.256888802083335,22.63744340625,55.0,85.0
60,22.590221302083336,23.190219802083334,62.0,78.0
61,22.923553802083333,23.36383047916667,55.0,74.0
62,23.256886302083334,23.93049572916667,64.0,85.0
63,21.923556302083334,24.07216204166667,48.0,86.0
64,23.923551302083336,24.16660625,60.0,77.0
65,24.590216302083334,25.044381833333336,57.0,73.0
66,24.590216302083334,25.1416038125,60.0,78.0
67,24.923548802083335,25.341603312500002,52.0,79.0
68,25.256881302083336,25.919379645833335,57.0,78.0
69,25.590213802083333,26.11382360416667,52.0,76.0
70,25.923546302083334,26.29993425,64.0,84.0
71,26.256878802083335,26.649933375,62.0,84.0
72,26.590211302083336,26.891599437500002,60.0,85.0
73,24.590216302083334,26.90409940625,45.0,82.0
74,26.590211302083336,26.981876989583334,52.0,32.0
75,27.256876302083334,28.322151416666667,53.0,75.0
76,27.923541302083336,28.376317947916668,57.0,73.0
77,27.590208802083335,28.769372520833336,48.0,75.0
78,27.256876302083334,29.136038270833335,41.0,84.0
79,29.256871302083336,29.511037333333334,48.0,80.0
80,28.590206302083335,29.548537239583336,65.0,85.0
81,28.256873802083334,29.55548166666667,60.0,80.0
82,29.590203802083334,29.711036833333335,53.0,85.0
83,29.923536302083335,30.715200989583334,62.0,79.0
84,30.590201302083337,31.31797726041667,55.0,86.0
85,30.923533802083334,31.331866114583335,62.0,77.0
86,31.590198802083336,31.751309510416668,55.0,74.0
87,31.256866302083335,31.80964269791667,67.0,83.0
88,31.923531302083337,32.13603077083334,62.0,82.0
89,31.923531302083337,32.16241959375,55.0,85.0
90,30.256868802083336,32.190197302083334,50.0,75.0
91,29.923536302083335,32.26103045833334,43.0,81.0
92,32.590196302083335,33.483249625,57.0,76.0
93,32.590196302083335,33.57908271875,53.0,73.0
94,33.25686130208334,33.65130476041667,60.0,81.0
95,33.92352630208334,34.436025020833334,53.0,80.0
96,34.256858802083336,34.694357708333335,60.0,73.0
97,34.59019130208333,34.73602427083333,57.0,69.0
98,32.92352880208333,34.763801979166665,48.0,78.0
99,33.590193802083334,34.763801979166665,65.0,85.0
100,32.590196302083335,34.816579625,41.0,84.0
101,35.256856302083335,35.76518836458334,52.0,79.0
102,35.256856302083335,35.78185498958334,59.0,79.0
103,35.59018880208333,36.10963194791667,47.0,73.0
104,35.256856302083335,36.12213191666667,40.0,82.0
105,35.92352130208334,36.25546491666667,52.0,82.0
106,36.256853802083334,36.449908875,55.0,70.0
107,36.59018630208333,37.04018517708334,57.0,77.0
108,36.59018630208333,37.352684395833336,60.0,72.0
109,37.256851302083334,37.55268389583333,57.0,81.0
110,36.923518802083336,37.63740590625,52.0,75.0
111,36.59018630208333,37.66379472916667,45.0,83.0
112,37.923516302083335,38.63462563541667,62.0,79.0
113,38.59018130208334,38.999902500000005,57.0,86.0
114,38.25684880208333,39.72212291666667,53.0,78.0
115,37.923516302083335,39.744345083333336,50.0,83.0
116,39.25684630208333,39.995733343750004,57.0,81.0
117,38.923513802083335,40.031844364583336,65.0,85.0
118,39.923511302083334,40.198510614583334,62.0,81.0
119,40.25684380208334,40.35267689583333,57.0,75.0
120,40.590176302083336,41.03323075,62.0,76.0
121,40.590176302083336,41.290174552083336,55.0,74.0
122,41.590173802083335,41.90128413541667,55.0,85.0
123,41.25684130208334,41.96378397916667,62.0,86.0
124,41.92350630208333,42.06933927083333,67.0,84.0
125,42.25683880208334,42.39850511458334,69.0,87.0
126,42.590171302083334,42.88878166666667,62.0,84.0
127,42.92350380208334,43.006836927083334,64.0,75.0
128,40.92350880208333,43.01794801041667,50.0,84.0
129,40.590176302083336,43.051281260416665,43.0,84.0
130,43.256836302083336,43.67627969791667,55.0,81.0
131,43.256836302083336,44.037389906250006,60.0,80.0
132,43.92350130208334,44.3748890625,55.0,81.0
133,44.256833802083335,44.39711122916667,62.0,84.0
134,44.59016630208333,44.641555062500004,55.0,68.0
135,44.92349880208334,45.373497677083336,55.0,72.0
136,44.59016630208333,45.38877541666667,64.0,86.0
137,45.256831302083334,45.398497614583334,60.0,72.0
138,43.59016880208333,45.59710822916667,52.0,77.0
139,43.256836302083336,45.624885937500004,48.0,84.0
140,45.59016380208334,45.931829614583336,59.0,75.0
141,45.923496302083336,46.3748840625,57.0,77.0
142,45.923496302083336,46.46793938541667,60.0,77.0
143,46.59016130208334,47.029049093750004,57.0,85.0
144,46.923493802083335,47.10266002083333,64.0,84.0
145,47.25682630208333,47.534603385416666,57.0,80.0
146,47.25682630208333,47.74571396875,64.0,85.0
147,47.25682630208333,47.74710285416667,69.0,84.0
148,46.256828802083334,48.07904646875,52.0,79.0
149,47.923491302083335,48.08737978125,57.0,74.0
150,45.923496302083336,48.15960182291667,45.0,85.0
151,48.59015630208334,48.99293307291667,60.0,79.0
152,48.59015630208334,49.24709910416667,65.0,79.0
153,49.25682130208334,49.695709093750004,60.0,90.0
154,49.590153802083336,49.845708718750004,69.0,81.0
155,48.59015630208334,50.752650895833334,41.0,81.0
156,48.923488802083334,50.76515086458333,48.0,80.0
157,49.92348630208333,50.909594947916666,72.0,82.0
158,50.92348380208334,51.140149927083336,41.0,85.0
159,50.25681880208334,51.2748718125,60.0,75.0
160,50.590151302083335,52.133203,69.0,66.0
161,51.92348130208334,52.690146052083335,55.0,77.0
162,52.256813802083336,52.774868062500005,62.0,80.0
163,52.92347880208334,53.354033281250004,55.0,87.0
164,51.590148802083334,53.47347742708334,50.0,85.0
165,51.25681630208334,53.51792176041667,43.0,87.0
166,53.59014380208334,53.77764333333334,55.0,72.0
167,53.256811302083335,53.79014330208334,62.0,82.0
168,52.59014630208333,53.84292094791667,67.0,83.0
169,54.59014130208334,55.01375135416667,59.0,85.0
170,54.923473802083336,55.09569559375,64.0,84.0
171,55.25680630208333,55.53458338541667,59.0,85.0
172,54.256808802083334,55.76374947916667,47.0,81.0
173,55.25680630208333,55.999860000000005,64.0,89.0
174,53.92347630208334,56.049859875,40.0,88.0
175,55.923471302083335,56.094304208333334,47.0,74.0
176,56.25680380208334,56.33041472916667,64.0,53.0
177,55.25680630208333,56.36652575,67.0,83.0
178,56.25680380208334,56.71513598958334,59.0,85.0
179,57.25680130208334,57.64846698958333,57.0,78.0
180,57.590133802083336,57.83457763541667,59.0,82.0
181,56.923468802083335,58.08457701041667,52.0,73.0
182,57.923466302083334,58.34290969791667,60.0,85.0
183,57.923466302083334,58.35679855208333,57.0,79.0
184,58.25679880208334,58.7331865,52.0,80.0
185,56.59013630208334,58.73874204166667,45.0,84.0
186,58.590131302083336,58.76235309375,57.0,78.0
187,58.590131302083336,58.77068640625,60.0,83.0
188,58.590131302083336,58.80540854166667,64.0,85.0
189,58.92346380208333,59.216518625000006,45.0,82.0
190,59.25679630208334,59.435962520833336,57.0,81.0
191,59.590128802083335,59.96512786458334,57.0,79.0
192,59.25679630208334,60.05679430208334,50.0,84.0
193,59.25679630208334,60.070683156250006,65.0,80.0
194,59.92346130208334,60.266516,62.0,77.0
195,60.590126302083334,60.998458614583335,55.0,78.0
196,60.590126302083334,61.31095783333333,62.0,80.0
197,60.92345880208334,61.66790138541667,50.0,84.0
198,60.590126302083334,61.7081790625,43.0,84.0
199,61.256791302083336,61.95956732291667,55.0,88.0
200,61.92345630208334,62.37067740625,60.0,83.0
201,62.256788802083335,62.62623232291667,55.0,85.0
202,62.59012130208334,62.93178711458334,62.0,85.0
203,62.92345380208334,63.0915089375,55.0,85.0
204,63.256786302083334,63.402619270833334,55.0,87.0
205,63.256786302083334,63.77900721875,64.0,88.0
206,63.59011880208334,63.85678480208334,55.0,77.0
207,63.923451302083336,64.23733940625,62.0,85.0
208,61.92345630208334,64.37622794791668,48.0,86.0
209,64.25678380208333,64.47761658333334,55.0,85.0
210,64.59011630208333,65.16789263541666,55.0,78.0
211,64.59011630208333,65.23733690625001,58.0,73.0
212,64.59011630208333,65.41928089583334,60.0,75.0
213,64.59011630208333,65.76233559375001,36.0,82.0
214,65.59011380208334,65.8081688125,55.0,78.0
215,65.92344630208333,66.12205691666666,55.0,86.0
216,65.92344630208333,66.31511198958334,64.0,88.0
217,65.92344630208333,66.31788976041668,60.0,90.0
218,65.92344630208333,66.39288957291667,36.0,84.0
219,66.25677880208333,66.49705597916667,55.0,80.0
220,66.92344380208334,67.249831875,55.0,80.0
221,66.59011130208334,67.26094295833333,60.0,84.0
222,67.25677630208334,67.96927452083334,57.0,79.0
223,67.25677630208334,67.9914966875,65.0,85.0
224,67.92344130208333,68.30260702083334,60.0,88.0
225,68.25677380208333,68.399829,57.0,78.0
226,67.59010880208334,68.75121701041667,48.0,79.0
227,68.59010630208334,68.86788338541668,65.0,84.0
228,68.59010630208334,68.95538316666666,57.0,85.0
229,68.59010630208334,69.00954969791667,60.0,91.0
230,67.25677630208334,69.26788238541667,41.0,85.0
231,68.92343880208334,69.29704897916668,48.0,77.0
232,69.25677130208334,69.45677080208334,57.0,76.0
233,69.92343630208333,70.35260189583333,60.0,83.0
234,69.92343630208333,70.46371272916667,53.0,77.0
235,70.59010130208334,70.7748230625,56.0,70.0
236,70.59010130208334,70.79287857291666,60.0,74.0
237,70.92343380208334,71.12343330208334,53.0,79.0
238,71.25676630208334,71.466488,56.0,84.0
239,71.25676630208334,71.46787688541667,53.0,81.0
240,70.25676880208334,71.483154625,48.0,77.0
241,71.25676630208334,71.62343205208333,65.0,85.0
242,71.92343130208334,72.07065315625,53.0,84.0
243,71.92343130208334,72.11509748958333,60.0,81.0
244,71.59009880208333,72.18731953125,48.0,81.0
245,69.92343630208333,72.2414860625,41.0,85.0
246,72.59009630208334,72.82759570833333,52.0,85.0
247,72.59009630208334,72.85120676041667,55.0,81.0
248,73.25676130208333,73.37203879166667,55.0,63.0
249,73.25676130208333,73.48176073958334,59.0,72.0
250,73.59009380208333,73.74703785416668,55.0,71.0
251,72.92342880208334,74.09703697916667,47.0,75.0
252,73.92342630208334,74.10953694791667,55.0,85.0
253,73.92342630208334,74.24703660416667,64.0,86.0
254,72.59009630208334,74.61648012500001,40.0,86.0
255,74.25675880208334,74.66092445833334,47.0,69.0
256,74.59009130208334,74.72064653125,55.0,80.0
257,74.59009130208334,74.72759095833334,59.0,81.0
258,75.25675630208333,75.75397728125,57.0,79.0
259,75.25675630208333,75.76508836458333,60.0,84.0
260,75.92342130208334,76.11230971875,64.0,79.0
261,76.25675380208334,76.383142375,57.0,77.0
262,75.59008880208334,76.66925277083334,52.0,73.0
263,76.59008630208334,76.82897459375,69.0,84.0
264,76.59008630208334,76.83314125,64.0,90.0
265,76.59008630208334,76.85119676041667,57.0,85.0
266,76.59008630208334,76.85675230208334,60.0,93.0
267,75.25675630208333,77.2914734375,45.0,84.0
268,76.92341880208333,77.30536229166667,52.0,80.0
269,77.25675130208334,77.46786188541667,60.0,84.0
270,77.25675130208334,77.64425033333333,64.0,84.0
271,77.59008380208334,77.7998055,57.0,73.0
272,77.92341630208334,78.27202654166668,57.0,80.0
273,77.92341630208334,78.63591452083334,62.0,79.0
274,78.59008130208333,78.97758033333334,57.0,84.0
275,78.92341380208333,79.04841348958334,62.0,76.0
276,78.25674880208334,79.3248016875,45.0,61.0
277,77.92341630208334,79.39841261458334,38.0,86.0
278,79.25674630208334,79.54424558333334,57.0,88.0
279,79.59007880208334,79.71507848958333,57.0,73.0
280,79.25674630208334,79.7748005625,65.0,90.0
281,79.92341130208334,80.03452213541667,57.0,83.0
282,79.92341130208334,80.10674417708334,38.0,86.0
283,79.92341130208334,80.33729915625,62.0,85.0
284,80.25674380208334,80.50118763541667,57.0,76.0
285,80.92340880208334,81.16368597916667,55.0,86.0
286,81.25674130208334,81.3081300625,55.0,72.0
287,81.25674130208334,81.783128875,62.0,84.0
288,81.59007380208334,81.79423995833334,55.0,72.0
289,80.59007630208333,82.09840586458334,43.0,86.0
290,81.92340630208334,82.31090533333334,55.0,85.0
291,81.92340630208334,82.55257139583334,67.0,81.0
292,82.25673880208333,82.58034910416667,50.0,75.0
293,81.92340630208334,82.64007117708334,62.0,86.0
294,82.59007130208333,82.74840423958334,55.0,89.0
295,83.25673630208334,83.34562496875,36.0,84.0
296,83.25673630208334,83.50395790625001,55.0,85.0
297,83.25673630208334,83.78034610416667,64.0,85.0
298,84.25673380208333,84.44978887500001,60.0,87.0
299,83.92340130208333,84.69562159375,55.0,88.0
300,83.59006880208334,85.17756483333334,48.0,72.0
301,84.92339880208334,85.199787,55.0,85.0
302,84.59006630208334,85.26228684375,62.0,90.0
303,85.25673130208334,85.37339767708333,60.0,90.0
304,85.92339630208333,86.533117,58.0,89.0
305,85.92339630208333,86.59006130208334,55.0,87.0
306,86.59006130208334,86.77200529166667,55.0,91.0
307,86.92339380208334,86.99144918750001,55.0,68.0
308,86.25672880208334,87.13033772916667,50.0,86.0
309,85.92339630208333,87.1581154375,43.0,85.0
310,86.92339380208334,87.18450426041667,58.0,91.0
311,87.25672630208334,87.50672567708334,55.0,81.0
312,87.59005880208333,87.70672517708334,55.0,67.0
313,87.25672630208334,87.78033610416666,64.0,90.0
314,87.25672630208334,87.96089120833334,48.0,84.0
315,87.92339130208333,88.05950207291667,55.0,90.0
316,87.59005880208333,88.14839073958333,52.0,89.0
317,87.92339130208333,88.283112625,60.0,90.0
318,88.25672380208334,88.43866779166667,55.0,84.0
319,88.59005630208334,89.12616607291667,57.0,78.0
320,88.59005630208334,89.26644350000001,53.0,84.0
321,89.25672130208333,89.36644325,60.0,77.0
322,89.59005380208333,89.75810893750001,53.0,77.0
323,89.92338630208334,90.09144143750001,53.0,84.0
324,89.92338630208334,90.27894096875,65.0,83.0
325,89.92338630208334,90.28588539583333,57.0,86.0
326,89.92338630208334,90.31505198958334,60.0,85.0
327,90.25671880208334,90.45532941666667,53.0,71.0
328,90.59005130208334,90.68866216666667,57.0,72.0
329,90.59005130208334,90.72616207291667,60.0,77.0
330,88.92338880208334,90.80949519791668,48.0,75.0
331,88.59005630208334,90.91227271875,41.0,85.0
332,91.25671630208333,91.93727015625001,60.0,81.0
333,91.25671630208333,91.96504786458334,53.0,78.0
334,91.92338130208334,92.04282544791667,56.0,79.0
335,92.25671380208334,92.41782451041666,60.0,74.0
336,91.25671630208333,92.42199116666667,41.0,85.0
337,92.25671380208334,92.43865779166667,65.0,77.0
338,91.59004880208334,92.45254664583334,48.0,80.0
339,92.59004630208334,92.7747680625,60.0,85.0
340,92.59004630208334,92.88726778125,65.0,84.0
341,92.92337880208333,93.13726715625,60.0,74.0
342,92.59004630208334,93.18587814583334,68.0,86.0
343,93.25671130208333,93.41921089583334,60.0,84.0
344,92.92337880208333,93.52059953125,48.0,74.0
345,92.59004630208334,93.56504386458334,41.0,85.0
346,93.25671130208333,93.61504373958334,65.0,84.0
347,93.92337630208334,94.62476343750001,67.0,76.0
348,94.59004130208334,94.9997625,64.0,85.0
349,94.92337380208333,95.05531791666667,67.0,85.0
350,94.25670880208334,95.33726165625,47.0,85.0
351,95.25670630208334,95.66364972916668,64.0,85.0
352,95.25670630208334,95.7747605625,71.0,86.0
353,93.92337630208334,95.91920464583333,40.0,84.0
354,95.59003880208334,95.98864891666668,47.0,83.0
355,95.92337130208334,96.07198204166667,64.0,82.0
356,95.92337130208334,96.20948169791667,67.0,79.0
357,96.59003630208333,96.96781313541668,64.0,78.0
358,96.59003630208333,97.02059078125001,69.0,80.0
359,97.25670130208334,97.43864529166667,64.0,84.0
360,97.25670130208334,97.64836698958334,72.0,83.0
361,96.59003630208333,97.67614469791667,45.0,85.0
362,96.92336880208335,97.68586689583334,52.0,81.0
363,97.59003380208334,97.89975525,71.0,79.0
364,97.92336630208334,98.09836586458334,64.0,79.0
365,97.92336630208334,98.5914201875,67.0,76.0
366,98.25669880208333,98.67336442708334,52.0,83.0
367,97.92336630208334,98.74003092708334,45.0,85.0
368,98.59003130208333,99.07336342708334,64.0,91.0
369,98.92336380208334,99.09558559375,67.0,73.0
370,99.25669630208334,99.63447313541667,62.0,80.0
371,99.25669630208334,99.88308362500001,65.0,80.0
372,99.92336130208334,100.0580831875,62.0,81.0
373,99.59002880208334,100.38447126041667,45.0,74.0
374,100.25669380208333,100.72335930208334,62.0,87.0
375,99.25669630208334,101.01224746875,38.0,85.0
376,100.25669380208333,101.08169173958333,69.0,86.0
377,100.92335880208334,101.08585839583334,62.0,84.0
378,100.59002630208334,101.27058015625,45.0,80.0
379,101.25669130208334,101.39280207291667,62.0,84.0
380,101.25669130208334,101.58585714583334,65.0,86.0
381,101.59002380208334,101.66224584375,62.0,73.0
382,101.92335630208333,102.36085520833333,55.0,81.0
383,101.92335630208333,102.516410375,62.0,76.0
384,102.59002130208334,103.03307575000001,55.0,84.0
385,102.92335380208334,103.11085333333334,62.0,78.0
386,102.25668880208333,103.40251927083334,50.0,77.0
387,103.25668630208334,103.70390740625001,55.0,85.0
388,103.25668630208334,103.9914066875,67.0,81.0
389,103.25668630208334,104.0664065,62.0,85.0
390,103.59001880208334,104.17335067708333,50.0,76.0
391,101.92335630208333,104.19140618750001,43.0,84.0
392,103.92335130208333,104.31501698958334,55.0,84.0
393,104.59001630208334,105.03584852083334,55.0,77.0
394,104.59001630208334,105.34418108333334,64.0,84.0
395,105.25668130208334,105.70390240625001,55.0,80.0
396,105.59001380208333,106.19695672916667,64.0,85.0
397,104.92334880208334,106.49001155208335,43.0,60.0
398,104.59001630208334,106.62056678125,36.0,79.0
399,106.25667880208334,106.64140006250001,60.0,82.0
400,106.59001130208334,106.71084433333334,55.0,84.0
401,107.25667630208333,107.94556346875001,60.0,76.0
402,107.25667630208333,108.40945119791667,54.0,72.0
403,107.92334130208334,108.58722853125,57.0,69.0
404,107.59000880208333,109.07750508333334,48.0,57.0
405,107.25667630208333,109.12611607291667,42.0,76.0
406,108.92333880208334,109.31778226041668,54.0,76.0
407,109.25667130208333,109.37333767708334,57.0,77.0
408,108.25667380208334,109.41778201041667,64.0,85.0
409,109.92333630208334,110.66639,57.0,69.0
410,109.92333630208334,111.016389125,60.0,77.0
411,110.59000130208334,111.31222171875001,65.0,72.0
412,111.25666630208335,111.44138806250001,60.0,85.0
413,110.92333380208333,111.47333242708334,57.0,79.0
414,110.25666880208334,111.71083183333334,48.0,67.0
415,111.58999880208334,111.9247201875,57.0,82.0
416,111.58999880208334,111.93999792708334,60.0,86.0
417,109.92333630208334,112.05666430208333,41.0,81.0
418,111.92333130208334,112.11360860416667,48.0,76.0
419,112.58999630208334,112.67332942708335,64.0,82.0
420,112.58999630208334,112.92888434375,56.0,73.0
421,112.92332880208333,112.92888434375,56.0,75.0
422,112.58999630208334,113.10943944791667,59.0,81.0
423,113.25666130208334,113.43860529166668,59.0,77.0
424,113.58999380208334,113.78999330208335,62.0,83.0
425,113.58999380208334,114.11221471875001,64.0,84.0
426,113.58999380208334,114.12888134375001,56.0,74.0
427,113.58999380208334,114.35526966666667,59.0,84.0
428,114.25665880208334,114.47193604166667,56.0,77.0
429,114.58999130208333,114.72193541666667,56.0,76.0
430,112.58999630208334,114.79276857291667,44.0,85.0
431,114.58999130208333,114.95387928125001,59.0,84.0
432,114.92332380208335,114.98582364583334,56.0,72.0
433,114.58999130208333,115.01360135416667,62.0,84.0
434,115.25665630208334,115.66915527083334,57.0,72.0
435,115.25665630208334,115.88859916666668,60.0,75.0
436,115.92332130208334,116.07332092708334,57.0,82.0
437,115.58998880208334,116.3747090625,52.0,82.0
438,116.25665380208333,116.50248652083334,57.0,87.0
439,116.25665380208333,116.58581964583334,64.0,87.0
440,115.25665630208334,116.79276357291667,45.0,85.0
441,116.58998630208335,117.09276282291667,52.0,82.0
442,116.92331880208334,117.12470718750001,57.0,85.0
443,116.92331880208334,117.31359560416668,60.0,85.0
444,117.58998380208334,117.76776113541668,57.0,84.0
445,117.92331630208334,118.62192566666667,59.0,85.0
446,117.92331630208334,118.64275894791668,55.0,86.0
447,118.58998130208334,118.73025872916668,62.0,84.0
448,118.92331380208334,119.18025760416667,67.0,80.0
449,118.92331380208334,119.37192379166667,55.0,89.0
450,118.25664880208333,119.7080340625,50.0,69.0
451,117.92331630208334,119.95525566666667,43.0,85.0
452,119.58997880208334,119.97886671875001,55.0,84.0
453,119.92331130208333,120.07053315625001,50.0,84.0
454,119.58997880208334,120.35942132291667,62.0,84.0
455,120.25664380208335,120.46497661458334,55.0,79.0
456,120.58997630208334,120.67886496875,36.0,81.0
457,120.58997630208334,120.8746978125,55.0,83.0
458,120.58997630208334,120.97747533333335,60.0,80.0
459,121.58997380208334,121.84275094791667,62.0,80.0
460,121.25664130208334,122.03025047916667,55.0,86.0
461,121.92330630208333,122.36497186458334,60.0,83.0
462,121.92330630208333,122.59691572916667,64.0,89.0
463,122.25663880208334,122.59830461458334,55.0,77.0
464,120.92330880208334,122.62608232291667,48.0,81.0
465,122.58997130208334,122.68024885416668,60.0,75.0
466,123.25663630208334,123.61357985416667,55.0,82.0
467,123.92330130208335,124.10663417708334,55.0,75.0
468,123.25663630208334,124.21913389583334,67.0,81.0
469,123.58996880208333,124.37468906250001,50.0,73.0
470,124.25663380208334,124.68857716666668,55.0,80.0
471,124.58996630208334,125.40385315625001,50.0,63.0
472,123.25663630208334,125.42607532291667,43.0,85.0
473,124.25663380208334,125.73440788541667,62.0,79.0
474,126.25662880208334,126.63718340625,55.0,85.0
475,126.58996130208334,127.18995980208334,62.0,78.0
476,126.92329380208334,127.36357047916667,55.0,74.0
477,127.25662630208333,127.93023572916667,64.0,85.0
478,125.92329630208334,128.07190204166668,48.0,86.0
479,127.92329130208334,128.16634625,60.0,77.0
480,128.58995630208335,129.04412183333335,57.0,73.0
481,128.58995630208335,129.1413438125,60.0,78.0
482,128.92328880208333,129.34134331250002,52.0,79.0
483,129.25662130208335,129.91911964583335,57.0,78.0
484,129.58995380208333,130.11356360416667,52.0,76.0
485,129.92328630208334,130.29967425,64.0,84.0
486,130.25661880208335,130.64967337500002,62.0,84.0
487,130.58995130208334,130.8913394375,60.0,85.0
488,128.58995630208335,130.90383940625,45.0,82.0
489,130.58995130208334,130.98161698958333,52.0,32.0
490,131.25661630208333,132.3218914166667,53.0,75.0
491,131.92328130208335,132.37605794791668,57.0,73.0
492,131.58994880208334,132.76911252083335,48.0,75.0
493,131.25661630208333,133.13577827083333,41.0,84.0
494,133.25661130208334,133.51077733333335,48.0,80.0
495,132.58994630208335,133.54827723958334,65.0,85.0
496,132.25661380208334,133.55522166666668,60.0,80.0
497,133.58994380208335,133.71077683333334,53.0,85.0
498,133.92327630208334,134.71494098958334,62.0,79.0
499,134.58994130208333,135.31771726041669,55.0,86.0
500,134.92327380208334,135.33160611458334,62.0,77.0
501,135.58993880208334,135.75104951041666,55.0,74.0
502,135.25660630208333,135.80938269791667,67.0,83.0
503,135.92327130208335,136.13577077083335,62.0,82.0
504,135.92327130208335,136.16215959375,55.0,85.0
505,134.25660880208335,136.18993730208334,50.0,75.0
506,133.92327630208334,136.26077045833335,43.0,81.0
507,136.58993630208334,137.48298962500002,57.0,76.0
508,136.58993630208334,137.57882271875002,53.0,73.0
509,137.25660130208334,137.65104476041668,60.0,81.0
510,137.92326630208333,138.43576502083334,53.0,80.0
511,138.25659880208335,138.69409770833335,60.0,73.0
512,138.58993130208333,138.73576427083333,57.0,69.0
513,136.92326880208333,138.76354197916666,48.0,78.0
514,137.58993380208335,138.76354197916666,65.0,85.0
515,136.58993630208334,138.816319625,41.0,84.0
516,139.25659630208335,139.76492836458334,52.0,79.0
517,139.25659630208335,139.78159498958334,59.0,79.0
518,139.58992880208334,140.10937194791669,47.0,73.0
519,139.25659630208335,140.12187191666666,40.0,82.0
520,139.92326130208335,140.25520491666668,52.0,82.0
521,140.25659380208333,140.449648875,55.0,70.0
522,140.58992630208334,141.03992517708335,57.0,77.0
523,140.58992630208334,141.35242439583334,60.0,72.0
524,141.25659130208334,141.55242389583333,57.0,81.0
525,140.92325880208335,141.63714590625,52.0,75.0
526,140.58992630208334,141.66353472916668,45.0,83.0
527,141.92325630208333,142.63436563541669,62.0,79.0
528,142.58992130208335,142.99964250000002,57.0,86.0
529,142.25658880208334,143.72186291666668,53.0,78.0
530,141.92325630208333,143.74408508333335,50.0,83.0
531,143.25658630208335,143.99547334375,57.0,81.0
532,142.92325380208334,144.03158436458335,65.0,85.0
533,143.92325130208334,144.19825061458334,62.0,81.0
534,144.25658380208333,144.35241689583333,57.0,75.0
535,144.58991630208334,145.03297075,62.0,76.0
536,144.58991630208334,145.28991455208333,55.0,74.0
537,145.58991380208334,145.90102413541666,55.0,85.0
538,145.25658130208333,145.96352397916667,62.0,86.0
539,145.92324630208333,146.06907927083333,67.0,84.0
540,146.25657880208334,146.39824511458335,69.0,87.0
541,146.58991130208335,146.88852166666666,62.0,84.0
542,146.92324380208333,147.00657692708333,64.0,75.0
543,144.92324880208335,147.01768801041666,50.0,84.0
544,144.58991630208334,147.05102126041666,43.0,84.0
545,147.25657630208335,147.67601969791667,55.0,81.0
546,147.25657630208335,148.03712990625002,60.0,80.0
547,147.92324130208334,148.37462906250002,55.0,81.0
548,148.25657380208335,148.39685122916669,62.0,84.0
549,148.58990630208334,148.6412950625,55.0,68.0
550,148.92323880208335,149.37323767708335,55.0,72.0
551,148.58990630208334,149.38851541666668,64.0,86.0
552,149.25657130208333,149.39823761458334,60.0,72.0
553,147.58990880208333,149.59684822916668,52.0,77.0
554,147.25657630208335,149.6246259375,48.0,84.0
555,149.58990380208334,149.93156961458334,59.0,75.0
556,149.92323630208335,150.3746240625,57.0,77.0
557,149.92323630208335,150.4676793854167,60.0,77.0
558,150.58990130208335,151.02878909375002,57.0,85.0
559,150.92323380208333,151.10240002083333,64.0,84.0
560,151.25656630208334,151.53434338541666,57.0,80.0
561,151.25656630208334,151.74545396875,64.0,85.0
562,151.25656630208334,151.7468428541667,69.0,84.0
563,150.25656880208334,152.07878646875,52.0,79.0
564,151.92323130208334,152.08711978125,57.0,74.0
565,149.92323630208335,152.15934182291667,45.0,85.0
566,152.58989630208333,152.9926730729167,60.0,79.0
567,152.58989630208333,153.24683910416667,65.0,79.0
568,153.25656130208336,153.69544909375,60.0,90.0
569,153.58989380208334,153.84544871875002,69.0,81.0
570,152.58989630208333,154.75239089583334,41.0,81.0
571,152.92322880208334,154.76489086458335,48.0,80.0
572,153.92322630208335,154.90933494791668,72.0,82.0
573,154.92322380208333,155.13988992708335,41.0,85.0
574,154.25655880208333,155.2746118125,60.0,75.0
575,154.58989130208334,156.132943,69.0,66.0
576,155.92322130208333,156.68988605208335,55.0,77.0
577,156.25655380208335,156.77460806250002,62.0,80.0
578,156.92321880208334,157.35377328125,55.0,87.0
579,155.58988880208335,157.47321742708334,50.0,85.0
580,155.25655630208334,157.51766176041667,43.0,87.0
581,157.58988380208334,157.77738333333335,55.0,72.0
582,157.25655130208335,157.78988330208335,62.0,82.0
583,156.58988630208333,157.84266094791667,67.0,83.0
584,158.58988130208334,159.0134913541667,59.0,85.0
585,158.92321380208335,159.09543559375,64.0,84.0
586,159.25654630208334,159.53432338541668,59.0,85.0
587,158.25654880208333,159.76348947916668,47.0,81.0
588,159.25654630208334,159.99960000000002,64.0,89.0
589,157.92321630208335,160.049599875,40.0,88.0
590,159.92321130208333,160.09404420833334,47.0,74.0
591,160.25654380208334,160.33015472916668,64.0,53.0
592,159.25654630208334,160.36626575,67.0,83.0
593,160.25654380208334,160.71487598958333,59.0,85.0
594,161.25654130208335,161.64820698958334,57.0,78.0
595,161.58987380208333,161.83431763541668,59.0,82.0
596,160.92320880208334,162.08431701041667,52.0,73.0
597,161.92320630208334,162.34264969791667,60.0,85.0
598,161.92320630208334,162.35653855208335,57.0,79.0
599,162.25653880208336,162.73292650000002,52.0,80.0
600,160.58987630208335,162.73848204166669,45.0,84.0
601,162.58987130208334,162.76209309375,57.0,78.0
602,162.58987130208334,162.77042640625,60.0,83.0
603,162.58987130208334,162.80514854166668,64.0,85.0
604,162.92320380208335,163.216258625,45.0,82.0
605,163.25653630208333,163.43570252083333,57.0,81.0
606,163.58986880208334,163.96486786458334,57.0,79.0
607,163.25653630208333,164.05653430208335,50.0,84.0
608,163.25653630208333,164.07042315625,65.0,80.0
609,163.92320130208333,164.266256,62.0,77.0
610,164.58986630208335,164.99819861458334,55.0,78.0
611,164.58986630208335,165.31069783333334,62.0,80.0
612,164.92319880208333,165.6676413854167,50.0,84.0
613,164.58986630208335,165.7079190625,43.0,84.0
614,165.25653130208335,165.9593073229167,55.0,88.0
615,165.92319630208334,166.37041740625,60.0,83.0
616,166.25652880208335,166.62597232291668,55.0,85.0
617,166.58986130208334,166.93152711458333,62.0,85.0
618,166.92319380208335,167.0912489375,55.0,85.0
619,167.25652630208333,167.40235927083333,55.0,87.0
620,167.25652630208333,167.77874721875,64.0,88.0
621,167.58985880208334,167.85652480208333,55.0,77.0
622,167.92319130208335,168.23707940625002,62.0,85.0
623,165.92319630208334,168.37596794791668,48.0,86.0
624,168.25652380208334,168.47735658333335,55.0,85.0
625,168.58985630208335,169.16763263541668,55.0,78.0
626,168.58985630208335,169.23707690625,58.0,73.0
627,168.58985630208335,169.41902089583334,60.0,75.0
628,168.58985630208335,169.76207559375,36.0,82.0
629,169.58985380208335,169.80790881250002,55.0,78.0
630,169.92318630208334,170.12179691666668,55.0,86.0
631,169.92318630208334,170.31485198958333,64.0,88.0
632,169.92318630208334,170.31762976041668,60.0,90.0
633,169.92318630208334,170.3926295729167,36.0,84.0
634,170.25651880208335,170.49679597916668,55.0,80.0
635,170.92318380208334,171.24957187500002,55.0,80.0
636,170.58985130208333,171.26068295833335,60.0,84.0
637,171.25651630208336,171.96901452083335,57.0,79.0
638,171.25651630208336,171.99123668750002,65.0,85.0
639,171.92318130208335,172.30234702083334,60.0,88.0
640,172.25651380208333,172.399569,57.0,78.0
641,171.58984880208334,172.75095701041667,48.0,79.0
642,172.58984630208334,172.86762338541666,65.0,84.0
643,172.58984630208334,172.95512316666668,57.0,85.0
644,172.58984630208334,173.00928969791667,60.0,91.0
645,171.25651630208336,173.26762238541667,41.0,85.0
646,172.92317880208336,173.29678897916668,48.0,77.0
647,173.25651130208334,173.45651080208333,57.0,76.0
648,173.92317630208333,174.35234189583335,60.0,83.0
649,173.92317630208333,174.46345272916668,53.0,77.0
650,174.58984130208333,174.77456306250002,56.0,70.0
651,174.58984130208333,174.79261857291667,60.0,74.0
652,174.92317380208334,175.12317330208333,53.0,79.0
653,175.25650630208335,175.466228,56.0,84.0
654,175.25650630208335,175.46761688541667,53.0,81.0
655,174.25650880208335,175.482894625,48.0,77.0
656,175.25650630208335,175.62317205208333,65.0,85.0
657,175.92317130208335,176.07039315625002,53.0,84.0
658,175.92317130208335,176.11483748958335,60.0,81.0
659,175.58983880208334,176.18705953125001,48.0,81.0
660,173.92317630208333,176.2412260625,41.0,85.0
661,176.58983630208334,176.82733570833335,52.0,85.0
662,176.58983630208334,176.8509467604167,55.0,81.0
663,177.25650130208334,177.37177879166669,55.0,63.0
664,177.25650130208334,177.48150073958334,59.0,72.0
665,177.58983380208335,177.74677785416668,55.0,71.0
666,176.92316880208335,178.09677697916666,47.0,75.0
667,177.92316630208333,178.10927694791667,55.0,85.0
668,177.92316630208333,178.24677660416668,64.0,86.0
669,176.58983630208334,178.616220125,40.0,86.0
670,178.25649880208334,178.66066445833334,47.0,69.0
671,178.58983130208335,178.72038653125,55.0,80.0
672,178.58983130208335,178.72733095833334,59.0,81.0
673,179.25649630208335,179.75371728125,57.0,79.0
674,179.25649630208335,179.76482836458334,60.0,84.0
675,179.92316130208334,180.11204971875,64.0,79.0
676,180.25649380208336,180.382882375,57.0,77.0
677,179.58982880208333,180.66899277083334,52.0,73.0
678,180.58982630208334,180.82871459375002,69.0,84.0
679,180.58982630208334,180.83288125,64.0,90.0
680,180.58982630208334,180.8509367604167,57.0,85.0
681,180.58982630208334,180.85649230208335,60.0,93.0
682,179.25649630208335,181.2912134375,45.0,84.0
683,180.92315880208335,181.30510229166669,52.0,80.0
684,181.25649130208333,181.46760188541668,60.0,84.0
685,181.25649130208333,181.64399033333333,64.0,84.0
686,181.58982380208334,181.79954550000002,57.0,73.0
687,181.92315630208336,182.27176654166666,57.0,80.0
688,181.92315630208336,182.63565452083336,62.0,79.0
689,182.58982130208335,182.97732033333335,57.0,84.0
690,182.92315380208333,183.04815348958334,62.0,76.0
691,182.25648880208334,183.32454168750002,45.0,61.0
692,181.92315630208336,183.39815261458335,38.0,86.0
693,183.25648630208335,183.54398558333335,57.0,88.0
694,183.58981880208336,183.71481848958334,57.0,73.0
695,183.25648630208335,183.77454056250002,65.0,90.0
696,183.92315130208334,184.03426213541667,57.0,83.0
697,183.92315130208334,184.10648417708333,38.0,86.0
698,183.92315130208334,184.33703915625,62.0,85.0
699,184.25648380208335,184.50092763541667,57.0,76.0
700,184.92314880208335,185.16342597916668,55.0,86.0
701,185.25648130208333,185.3078700625,55.0,72.0
702,185.25648130208333,185.78286887500002,62.0,84.0
703,185.58981380208334,185.79397995833335,55.0,72.0
704,184.58981630208334,186.09814586458333,43.0,86.0
705,185.92314630208335,186.31064533333335,55.0,85.0
706,185.92314630208335,186.55231139583336,67.0,81.0
707,186.25647880208334,186.5800891041667,50.0,75.0
708,185.92314630208335,186.63981117708335,62.0,86.0
709,186.58981130208335,186.74814423958335,55.0,89.0
710,187.25647630208334,187.34536496875,36.0,84.0
711,187.25647630208334,187.50369790625,55.0,85.0
712,187.25647630208334,187.78008610416668,64.0,85.0
713,188.25647380208335,188.449528875,60.0,87.0
714,187.92314130208334,188.69536159375002,55.0,88.0
715,187.58980880208335,189.17730483333335,48.0,72.0
716,188.92313880208334,189.19952700000002,55.0,85.0
717,188.58980630208333,189.26202684375002,62.0,90.0
718,189.25647130208336,189.37313767708335,60.0,90.0
719,189.92313630208335,190.532857,58.0,89.0
720,189.92313630208335,190.58980130208334,55.0,87.0
721,190.58980130208334,190.7717452916667,55.0,91.0
722,190.92313380208336,190.9911891875,55.0,68.0
723,190.25646880208333,191.1300777291667,50.0,86.0
724,189.92313630208335,191.15785543750002,43.0,85.0
725,190.92313380208336,191.18424426041668,58.0,91.0
726,191.25646630208334,191.50646567708336,55.0,81.0
727,191.58979880208335,191.70646517708334,55.0,67.0
728,191.25646630208334,191.78007610416668,64.0,90.0
729,191.25646630208334,191.96063120833335,48.0,84.0
730,191.92313130208333,192.05924207291667,55.0,90.0
731,191.58979880208335,192.14813073958334,52.0,89.0
732,191.92313130208333,192.282852625,60.0,90.0
733,192.25646380208335,192.43840779166666,55.0,84.0
734,192.58979630208336,193.12590607291668,57.0,78.0
735,192.58979630208336,193.2661835,53.0,84.0
736,193.25646130208335,193.36618325,60.0,77.0
737,193.58979380208334,193.7578489375,53.0,77.0
738,193.92312630208335,194.0911814375,53.0,84.0
739,193.92312630208335,194.27868096875002,65.0,83.0
740,193.92312630208335,194.28562539583334,57.0,86.0
741,193.92312630208335,194.31479198958334,60.0,85.0
742,194.25645880208333,194.45506941666667,53.0,71.0
743,194.58979130208334,194.6884021666667,57.0,72.0
744,194.58979130208334,194.72590207291668,60.0,77.0
745,192.92312880208334,194.80923519791668,48.0,75.0
746,192.58979630208336,194.91201271875002,41.0,85.0
747,195.25645630208334,195.93701015625,60.0,81.0
748,195.25645630208334,195.96478786458334,53.0,78.0
749,195.92312130208333,196.04256544791667,56.0,79.0
750,196.25645380208334,196.41756451041667,60.0,74.0
751,195.25645630208334,196.4217311666667,41.0,85.0
752,196.25645380208334,196.4383977916667,65.0,77.0
753,195.58978880208335,196.45228664583334,48.0,80.0
754,196.58978630208335,196.77450806250002,60.0,85.0
755,196.58978630208335,196.88700778125002,65.0,84.0
756,196.92311880208334,197.13700715625,60.0,74.0
757,196.58978630208335,197.18561814583333,68.0,86.0
758,197.25645130208335,197.41895089583335,60.0,84.0
759,196.92311880208334,197.52033953125002,48.0,74.0
760,196.58978630208335,197.56478386458335,41.0,85.0
761,197.25645130208335,197.61478373958334,65.0,84.0
762,197.92311630208334,198.6245034375,67.0,76.0
763,198.58978130208334,198.9995025,64.0,85.0
764,198.92311380208335,199.05505791666667,67.0,85.0
765,198.25644880208336,199.33700165625,47.0,85.0
766,199.25644630208333,199.66338972916668,64.0,85.0
767,199.25644630208333,199.7745005625,71.0,86.0
768,197.92311630208334,199.91894464583334,40.0,84.0
769,199.58977880208334,199.98838891666668,47.0,83.0
770,199.92311130208336,200.07172204166667,64.0,82.0
771,199.92311130208336,200.2092216979167,67.0,79.0
772,200.58977630208335,200.96755313541667,64.0,78.0
773,200.58977630208335,201.02033078125,69.0,80.0
774,201.25644130208335,201.4383852916667,64.0,84.0
775,201.25644130208335,201.64810698958334,72.0,83.0
776,200.58977630208335,201.67588469791667,45.0,85.0
777,200.92310880208333,201.68560689583333,52.0,81.0
778,201.58977380208336,201.89949525,71.0,79.0
779,201.92310630208334,202.09810586458335,64.0,79.0
780,201.92310630208334,202.5911601875,67.0,76.0
781,202.25643880208335,202.67310442708333,52.0,83.0
782,201.92310630208334,202.73977092708336,45.0,85.0
783,202.58977130208334,203.07310342708334,64.0,91.0
784,202.92310380208335,203.09532559375,67.0,73.0
785,203.25643630208336,203.63421313541667,62.0,80.0
786,203.25643630208336,203.88282362500001,65.0,80.0
787,203.92310130208335,204.05782318750002,62.0,81.0
788,203.58976880208334,204.3842112604167,45.0,74.0
789,204.25643380208334,204.72309930208334,62.0,87.0
790,203.25643630208336,205.01198746875002,38.0,85.0
791,204.25643380208334,205.08143173958334,69.0,86.0
792,204.92309880208333,205.08559839583336,62.0,84.0
793,204.58976630208335,205.27032015625002,45.0,80.0
794,205.25643130208334,205.39254207291668,62.0,84.0
795,205.25643130208334,205.58559714583333,65.0,86.0
796,205.58976380208335,205.66198584375002,62.0,73.0
797,205.92309630208334,206.36059520833334,55.0,81.0
798,205.92309630208334,206.51615037500002,62.0,76.0
799,206.58976130208333,207.03281575,55.0,84.0
800,206.92309380208334,207.11059333333336,62.0,78.0
801,206.25642880208335,207.40225927083335,50.0,77.0
802,207.25642630208336,207.70364740625,55.0,85.0
803,207.25642630208336,207.99114668750002,67.0,81.0
804,207.25642630208336,208.0661465,62.0,85.0
805,207.58975880208334,208.17309067708334,50.0,76.0
806,205.92309630208334,208.1911461875,43.0,84.0
807,207.92309130208335,208.31475698958334,55.0,84.0
808,208.58975630208334,209.30225452083334,57.0,79.0
809,208.58975630208334,209.3244766875,65.0,85.0
810,209.25642130208334,209.63558702083336,60.0,88.0
811,209.58975380208335,209.732809,57.0,78.0
812,208.92308880208336,210.0841970104167,48.0,79.0
813,209.92308630208333,210.20086338541668,65.0,84.0
814,209.92308630208333,210.28836316666667,57.0,85.0
815,209.92308630208333,210.3425296979167,60.0,91.0
816,208.58975630208334,210.6008623854167,41.0,85.0
817,210.25641880208335,210.63002897916667,48.0,77.0
818,210.58975130208336,210.78975080208335,57.0,76.0
819,211.25641630208335,211.68558189583334,60.0,83.0
820,211.25641630208335,211.79669272916667,53.0,77.0
821,211.92308130208335,212.1078030625,56.0,70.0
822,211.92308130208335,212.12585857291668,60.0,74.0
823,212.25641380208336,212.45641330208335,53.0,79.0
824,212.58974630208334,212.79946800000002,56.0,84.0
825,212.58974630208334,212.80085688541666,53.0,81.0
826,211.58974880208334,212.81613462500002,48.0,77.0
827,212.58974630208334,212.95641205208335,65.0,85.0
828,213.25641130208334,213.40363315625,53.0,84.0
829,213.25641130208334,213.44807748958334,60.0,81.0
830,212.92307880208335,213.52029953125,48.0,81.0
831,211.25641630208335,213.57446606250002,41.0,85.0
832,213.92307630208333,214.16057570833334,52.0,85.0
833,213.92307630208333,214.18418676041668,55.0,81.0
834,214.58974130208335,214.70501879166667,55.0,63.0
835,214.58974130208335,214.81474073958336,59.0,72.0
836,214.92307380208334,215.08001785416667,55.0,71.0
837,214.25640880208334,215.43001697916668,47.0,75.0
838,215.25640630208335,215.4425169479167,55.0,85.0
839,215.25640630208335,215.58001660416667,64.0,86.0
840,213.92307630208333,215.949460125,40.0,86.0
841,215.58973880208333,215.99390445833333,47.0,69.0
842,215.92307130208334,216.05362653125002,55.0,80.0
843,215.92307130208334,216.06057095833336,59.0,81.0
844,216.58973630208334,217.08695728125002,57.0,79.0
845,216.58973630208334,217.09806836458336,60.0,84.0
846,217.25640130208333,217.44528971875002,64.0,79.0
847,217.58973380208334,217.716122375,57.0,77.0
848,216.92306880208335,218.00223277083333,52.0,73.0
849,217.92306630208336,218.16195459375,69.0,84.0
850,217.92306630208336,218.16612125,64.0,90.0
851,217.92306630208336,218.18417676041668,57.0,85.0
852,217.92306630208336,218.18973230208334,60.0,93.0
853,216.58973630208334,218.62445343750002,45.0,84.0
854,218.25639880208334,218.63834229166667,52.0,80.0
855,218.58973130208335,218.80084188541667,60.0,84.0
856,218.58973130208335,218.97723033333335,64.0,84.0
857,218.92306380208333,219.1327855,57.0,73.0
858,219.25639630208335,219.60500654166668,57.0,80.0
859,219.25639630208335,219.96889452083335,62.0,79.0
860,219.92306130208334,220.31056033333334,57.0,84.0
861,220.25639380208335,220.38139348958333,62.0,76.0
862,219.58972880208336,220.6577816875,45.0,61.0
863,219.25639630208335,220.73139261458334,38.0,86.0
864,220.58972630208333,220.87722558333334,57.0,88.0
865,220.92305880208335,221.04805848958335,57.0,73.0
866,220.58972630208333,221.1077805625,65.0,90.0
867,221.25639130208336,221.3675021354167,57.0,83.0
868,221.25639130208336,221.43972417708335,38.0,86.0
869,221.25639130208336,221.67027915625002,62.0,85.0
870,221.58972380208334,221.8341676354167,57.0,76.0
871,222.25638880208334,222.49666597916666,55.0,86.0
872,222.58972130208335,222.64111006250002,55.0,72.0
873,222.58972130208335,223.116108875,62.0,84.0
874,222.92305380208336,223.12721995833334,55.0,72.0
875,221.92305630208335,223.43138586458335,43.0,86.0
876,223.25638630208334,223.64388533333334,55.0,85.0
877,223.25638630208334,223.88555139583335,67.0,81.0
878,223.58971880208335,223.91332910416668,50.0,75.0
879,223.25638630208334,223.97305117708333,62.0,86.0
880,223.92305130208334,224.08138423958334,55.0,89.0
881,224.58971630208333,224.67860496875002,36.0,84.0
882,224.58971630208333,224.83693790625,55.0,85.0
883,224.58971630208333,225.11332610416667,64.0,85.0
884,225.58971380208334,225.78276887500002,60.0,87.0
885,225.25638130208335,226.02860159375,55.0,88.0
886,224.92304880208334,226.51054483333334,48.0,72.0
887,226.25637880208333,226.532767,55.0,85.0
888,225.92304630208335,226.59526684375,62.0,90.0
889,226.58971130208334,226.70637767708334,60.0,90.0
890,227.25637630208334,227.86609700000002,58.0,89.0
891,227.25637630208334,227.92304130208333,55.0,87.0
892,227.92304130208333,228.10498529166668,55.0,91.0
893,228.25637380208335,228.32442918750002,55.0,68.0
894,227.58970880208335,228.46331772916668,50.0,86.0
895,227.25637630208334,228.4910954375,43.0,85.0
896,228.25637380208335,228.51748426041667,58.0,91.0
897,228.58970630208336,228.83970567708334,55.0,81.0
898,228.92303880208334,229.03970517708333,55.0,67.0
899,228.58970630208336,229.11331610416667,64.0,90.0
900,228.58970630208336,229.29387120833334,48.0,84.0
901,229.25637130208335,229.3924820729167,55.0,90.0
902,228.92303880208334,229.48137073958335,52.0,89.0
903,229.25637130208335,229.61609262500002,60.0,90.0
904,229.58970380208333,229.77164779166668,55.0,84.0
905,229.92303630208335,230.63553452083335,57.0,79.0
906,229.92303630208335,230.6577566875,65.0,85.0
907,230.58970130208334,230.96886702083336,60.0,88.0
908,230.92303380208335,231.066089,57.0,78.0
909,230.25636880208336,231.4174770104167,48.0,79.0
910,231.25636630208334,231.53414338541668,65.0,84.0
911,231.25636630208334,231.62164316666667,57.0,85.0
912,231.25636630208334,231.6758096979167,60.0,91.0
913,229.92303630208335,231.9341423854167,41.0,85.0
914,231.58969880208335,231.96330897916667,48.0,77.0
915,231.92303130208336,232.12303080208335,57.0,76.0
916,232.58969630208335,233.01886189583334,60.0,83.0
917,232.58969630208335,233.12997272916667,53.0,77.0
918,233.25636130208335,233.4410830625,56.0,70.0
919,233.25636130208335,233.4591385729167,60.0,74.0
920,233.58969380208333,233.78969330208335,53.0,79.0
921,233.92302630208334,234.13274800000002,56.0,84.0
922,233.92302630208334,234.13413688541667,53.0,81.0
923,232.92302880208334,234.14941462500002,48.0,77.0
924,233.92302630208334,234.28969205208335,65.0,85.0
925,234.58969130208334,234.73691315625,53.0,84.0
926,234.58969130208334,234.78135748958334,60.0,81.0
927,234.25635880208335,234.85357953125,48.0,81.0
928,232.58969630208335,234.90774606250002,41.0,85.0
929,235.25635630208333,235.49385570833334,52.0,85.0
930,235.25635630208333,235.51746676041668,55.0,81.0
931,235.92302130208336,236.03829879166668,55.0,63.0
932,235.92302130208336,236.14802073958336,59.0,72.0
933,236.25635380208334,236.41329785416667,55.0,71.0
934,235.58968880208334,236.76329697916668,47.0,75.0
935,236.58968630208335,236.7757969479167,55.0,85.0
936,236.58968630208335,236.91329660416667,64.0,86.0
937,235.25635630208333,237.282740125,40.0,86.0
938,236.92301880208333,237.32718445833333,47.0,69.0
939,237.25635130208335,237.38690653125002,55.0,80.0
940,237.25635130208335,237.39385095833336,59.0,81.0
941,237.92301630208334,238.42023728125002,57.0,79.0
942,237.92301630208334,238.43134836458336,60.0,84.0
943,238.58968130208333,238.77856971875002,64.0,79.0
944,238.92301380208335,239.049402375,57.0,77.0
945,238.25634880208335,239.33551277083333,52.0,73.0
946,239.25634630208336,239.49523459375,69.0,84.0
947,239.25634630208336,239.49940125,64.0,90.0
948,239.25634630208336,239.51745676041668,57.0,85.0
949,239.25634630208336,239.52301230208334,60.0,93.0
950,237.92301630208334,239.95773343750002,45.0,84.0
951,239.58967880208334,239.97162229166668,52.0,80.0
952,239.92301130208335,240.13412188541668,60.0,84.0
953,239.92301130208335,240.31051033333335,64.0,84.0
954,240.25634380208334,240.4660655,57.0,73.0
955,240.58967630208335,240.93828654166668,57.0,80.0
956,240.58967630208335,241.30217452083335,62.0,79.0
957,241.25634130208334,241.64384033333334,57.0,84.0
958,241.58967380208335,241.71467348958333,62.0,76.0
959,240.92300880208336,241.9910616875,45.0,61.0
960,240.58967630208335,242.06467261458334,38.0,86.0
961,241.92300630208334,242.21050558333334,57.0,88.0
962,242.25633880208335,242.38133848958336,57.0,73.0
963,241.92300630208334,242.4410605625,65.0,90.0
964,242.58967130208336,242.7007821354167,57.0,83.0
965,242.58967130208336,242.77300417708335,38.0,86.0
966,242.58967130208336,243.00355915625002,62.0,85.0
967,242.92300380208334,243.1674476354167,57.0,76.0
968,243.58966880208334,243.82994597916667,55.0,86.0
969,243.92300130208335,243.97439006250002,55.0,72.0
970,243.92300130208335,244.449388875,62.0,84.0
971,244.25633380208333,244.46049995833334,55.0,72.0
972,243.25633630208335,244.76466586458335,43.0,86.0
973,244.58966630208334,244.97716533333335,55.0,85.0
974,244.58966630208334,245.21883139583335,67.0,81.0
975,244.92299880208336,245.24660910416668,50.0,75.0
976,244.58966630208334,245.30633117708334,62.0,86.0
977,245.25633130208334,245.41466423958335,55.0,89.0
978,246.58966130208336,247.92299130208335,53.0,85.0
979,246.25632880208335,248.56465636458336,48.0,71.0
980,245.92299630208333,248.59521184375,41.0,75.0
981,248.58965630208334,248.59521184375,41.0,84.0
982,248.25632380208336,248.61187846875,53.0,78.0
983,246.92299380208334,248.62160066666667,60.0,80.0
984,247.92299130208335,248.63271175000003,65.0,82.0
985,249.25632130208334,249.69520909375,56.0,73.0
986,249.58965380208335,250.50492929166668,60.0,79.0
987,249.92298630208336,250.6465956041667,65.0,80.0
988,250.25631880208334,250.69381770833334,53.0,59.0
989,248.92298880208335,251.1965942291667,48.0,68.0
990,250.58965130208335,251.20076088541668,56.0,69.0
991,250.58965130208335,251.25353853125,60.0,75.0
992,251.92298130208334,252.6715905416667,52.0,80.0
993,251.58964880208336,252.99381195833334,47.0,73.0
994,252.25631380208335,253.01464523958336,55.0,84.0
995,251.25631630208335,253.09381170833333,40.0,85.0
996,252.92297880208335,253.29242232291668,52.0,84.0
997,253.25631130208333,253.38131098958334,55.0,80.0
998,252.58964630208334,253.4132553541667,64.0,85.0
999,253.92297630208336,254.93686265625,57.0,71.0
1000,253.92297630208336,255.0410290625,60.0,75.0
1001,254.25630880208334,255.0965844791667,52.0,73.0
1002,254.58964130208335,255.44936137500002,64.0,82.0
1003,254.92297380208333,255.66463861458334,69.0,83.0
1004,255.58963880208336,255.86463811458336,57.0,74.0
1005,255.92297130208334,256.04797098958335,57.0,72.0
1006,255.25630630208335,256.10213752083337,52.0,74.0
1007,255.92297130208334,256.17297067708336,60.0,83.0
1008,253.92297630208336,256.2382482916667,45.0,80.0
1009,256.58963630208336,256.96046870833334,57.0,74.0
1010,256.58963630208336,257.3215789166667,62.0,81.0
1011,257.25630130208333,257.4174120104167,57.0,88.0
1012,256.92296880208335,257.749355625,53.0,71.0
1013,256.58963630208336,257.87435531250003,50.0,84.0
1014,257.58963380208337,258.3326875,57.0,85.0
1015,258.25629880208334,258.51463148958334,53.0,70.0
1016,257.58963380208337,258.70351990625,65.0,85.0
1017,258.5896313020833,258.78963080208337,57.0,81.0
1018,259.25629630208334,259.73962842708335,62.0,80.0
1019,259.25629630208334,259.7757394479167,55.0,79.0
1020,259.92296130208337,260.33129361458333,62.0,83.0
1021,260.9229588020834,261.2965689791667,55.0,75.0
1022,260.25629380208335,261.31323560416666,67.0,84.0
1023,261.25629130208335,261.4174020104167,62.0,85.0
1024,259.5896288020833,261.4396241770834,50.0,79.0
1025,259.25629630208334,261.50351290625,43.0,84.0
1026,262.59795461458333,263.0521201458333,50.0,75.0
1027,263.00073138541666,263.43267475,52.0,86.0
1028,263.42295255208336,263.5673966354167,55.0,85.0
1029,263.8646181145833,264.26878377083335,55.0,74.0
1030,263.87017365625,264.3048947916667,60.0,71.0
1031,264.40350565625,264.6382272916667,55.0,80.0
1032,264.37850571875003,264.77850471875,62.0,79.0
1033,264.8062824270834,264.9590598229167,55.0,65.0
1034,264.88961555208334,265.01183746875,60.0,67.0
1035,264.9743375625,265.16878152083336,64.0,79.0
1036,262.22712220833336,266.84655510416667,43.0,64.0
1037,261.89517859375,266.91461048958337,36.0,82.0
1038,265.61183596875003,268.71599487500004,64.0,62.0
1039,265.82016878125,268.7229393020834,72.0,62.0
1040,265.7104468333333,268.7340503854167,67.0,57.0
