,start,end,pitch,velocity
0,25.117063979166666,25.498136779166664,62.0,100.0
1,25.593404979166667,26.06577647083333,60.0,71.0
2,26.069745979166665,26.464712058333333,62.0,85.0
3,26.546086979166667,26.738608133333333,67.0,93.0
4,26.784257479166666,27.653579804166665,62.0,89.0
5,28.451450979166665,28.592368524999998,58.0,99.0
6,28.689621479166664,28.784889679166668,60.0,71.0
7,28.927791979166667,29.30489527083333,62.0,97.0
8,29.404132979166665,29.703830858333333,60.0,95.0
9,29.880473979166666,30.120629233333332,60.0,95.0
10,30.356814979166664,30.513610558333333,58.0,93.0
11,30.594985479166667,31.767975191666665,60.0,95.0
12,32.73851997916667,33.0282940875,62.0,95.0
13,33.214860979166666,33.482802791666664,60.0,83.0
14,33.691201979166664,34.18540576666667,62.0,93.0
15,34.16754297916667,34.26479593333333,67.0,96.0
16,34.405713479166664,35.44770941666667,67.0,97.0
17,35.834736479166665,36.03321189583333,70.0,97.0
18,36.07290697916667,36.348787808333334,69.0,79.0
19,36.31107747916666,36.531385191666665,70.0,97.0
20,36.549247979166665,36.81322028333333,65.0,89.0
21,37.02558897916666,37.156582754166664,65.0,95.0
22,37.263759479166666,37.60513719583333,65.0,95.0
23,37.740100479166664,37.99017950416667,62.0,72.0
24,37.978270979166666,38.222395741666666,67.0,92.0
25,38.21644147916667,39.22866610416666,65.0,95.0
26,41.312657979166666,41.415865195833334,67.0,95.0
27,41.55082847916667,41.659989958333334,67.0,78.0
28,41.788998979166664,41.96365734583333,69.0,90.0
29,42.027169479166666,42.25541620833333,70.0,95.0
30,42.26533997916667,42.70198589583333,69.0,99.0
31,42.74168097916667,42.801223604166665,65.0,77.0
32,42.97985147916666,43.47008575833333,65.0,93.0
33,44.647044979166665,44.7284199,65.0,100.0
34,44.88521547916667,44.98048367916667,65.0,77.0
35,45.12338597916666,45.22063893333333,65.0,85.0
36,45.361556479166666,45.4727027125,65.0,76.0
37,45.59972697916667,45.7465987875,65.0,100.0
38,45.837897479166664,46.0204948625,67.0,102.0
39,46.076067979166666,46.31423847916667,60.0,89.0
40,46.31423847916667,47.42967032083333,62.0,86.0
41,47.50509097916667,47.66585606666666,58.0,107.0
42,47.74326147916666,48.01120329166667,60.0,82.0
43,47.981431979166665,48.36250477916666,62.0,83.0
44,48.45777297916666,48.749531841666666,55.0,74.0
45,48.93411397916667,49.432287275,55.0,79.0
46,49.410454979166666,49.68633580833333,62.0,93.0
47,49.88679597916666,50.1765700875,62.0,92.0
48,50.36313697916667,50.50206977083333,58.0,77.0
49,50.601307479166664,51.490477345833334,60.0,82.0
50,51.79215997916666,51.89338244166667,63.0,97.0
51,52.030330479166665,52.117659662499996,63.0,77.0
52,52.26850097916667,52.36575393333333,63.0,85.0
53,52.50667147916666,52.99293625,63.0,99.0
54,53.22118297916666,53.505002825,63.0,100.0
55,53.69752397916667,55.32502239583333,62.0,102.0
56,57.508251979166666,57.889324779166664,62.0,100.0
57,57.98459297916666,58.456964470833334,60.0,71.0
58,58.46093397916667,58.85590005833333,62.0,85.0
59,58.937274979166666,59.12979613333333,67.0,93.0
60,59.17544547916666,60.04476780416667,62.0,89.0
61,60.842638979166665,60.983556525,58.0,99.0
62,61.08080947916667,61.17607767916667,60.0,71.0
63,61.31897997916666,61.696083270833334,62.0,97.0
64,61.79532097916667,62.09501885833333,60.0,95.0
65,62.271661979166666,62.51181723333333,60.0,95.0
66,62.748002979166664,62.90479855833333,58.0,93.0
67,62.986173479166666,64.15916319166666,60.0,95.0
68,65.12970797916667,65.4194820875,62.0,95.0
69,65.60604897916666,65.87399079166667,60.0,83.0
70,66.08238997916666,66.57659376666666,62.0,93.0
71,66.55873097916667,66.65598393333333,67.0,96.0
72,66.79690147916666,67.83889741666667,67.0,97.0
73,68.22592447916666,68.42439989583333,70.0,97.0
74,68.46409497916666,68.73997580833333,69.0,79.0
75,68.70226547916667,68.92257319166667,70.0,97.0
76,68.94043597916666,69.20440828333334,65.0,89.0
77,69.41677697916667,69.54777075416666,65.0,95.0
78,69.65494747916667,69.99632519583334,65.0,95.0
79,70.13128847916667,70.38136750416666,62.0,72.0
80,70.36945897916667,70.61358374166666,67.0,92.0
81,70.60762947916666,71.61985410416666,65.0,95.0
82,73.70384597916666,73.80705319583333,67.0,95.0
83,73.94201647916667,74.05117795833333,67.0,78.0
84,74.18018697916666,74.35484534583333,69.0,90.0
85,74.41835747916666,74.64660420833333,70.0,95.0
86,74.65652797916667,75.09317389583333,69.0,99.0
87,75.13286897916666,75.19241160416667,65.0,77.0
88,75.37103947916667,75.86127375833333,65.0,93.0
89,77.03823297916666,77.11960789999999,65.0,100.0
90,77.27640347916666,77.37167167916667,65.0,77.0
91,77.51457397916667,77.61182693333333,65.0,85.0
92,77.75274447916667,77.8638907125,65.0,76.0
93,77.99091497916666,78.13778678749999,65.0,100.0
94,78.22908547916667,78.4116828625,67.0,102.0
95,78.46725597916667,78.70542647916666,60.0,89.0
96,78.70542647916666,79.82085832083334,62.0,86.0
97,79.89627897916667,80.05704406666666,58.0,107.0
98,80.13444947916666,80.40239129166666,60.0,82.0
99,80.37261997916666,80.75369277916667,62.0,83.0
100,80.84896097916666,81.14071984166667,55.0,74.0
101,81.32530197916667,81.82347527499999,55.0,79.0
102,81.80164297916666,82.07752380833332,62.0,93.0
103,82.27798397916666,82.5677580875,62.0,92.0
104,82.75432497916667,82.89325777083333,58.0,77.0
105,82.99249547916666,83.88166534583333,60.0,82.0
106,84.18334797916667,84.27464667083333,67.0,102.0
107,84.42151847916666,84.51877143333333,67.0,86.0
108,84.65968897916666,84.76289619583333,67.0,93.0
109,84.89785947916667,85.00305145,67.0,93.0
110,85.13602997916666,85.41588031666666,67.0,107.0
111,85.61237097916667,85.72550196666667,67.0,100.0
112,85.85054147916667,86.79528446249999,69.0,117.0
113,87.04139397916667,87.28551874166666,67.0,102.0
114,87.51773497916666,87.730103675,69.0,112.0
115,87.99407597916667,88.2183532,70.0,127.0
116,88.23224647916666,88.325529925,69.0,86.0
117,88.47041697916666,88.61331927916666,70.0,127.0
118,88.70858747916667,88.80385567916666,69.0,97.0
119,88.94675797916666,89.12538585416667,70.0,127.0
120,89.42309897916667,89.802187025,69.0,107.0
121,89.89943997916666,90.19913785833333,67.0,122.0
122,90.37578097916666,90.53853082083333,67.0,107.0
123,90.61395147916666,91.06647542916666,65.0,107.0
124,91.80480397916666,92.0231269375,67.0,117.0
125,92.04297447916666,92.23351087916666,65.0,76.0
126,92.28114497916667,92.44786432916666,67.0,97.0
127,92.51931547916666,92.64633974583333,65.0,93.0
128,92.75748597916666,93.00161074166667,67.0,107.0
129,93.23382697916666,93.517646825,65.0,102.0
130,93.71016797916667,94.02772864583334,65.0,122.0
131,94.18650897916666,94.29368570416666,67.0,107.0
132,94.42467947916667,95.018120975,62.0,100.0
133,95.61553197916666,95.95492494166666,62.0,122.0
134,96.09187297916667,96.41538790833333,60.0,100.0
135,96.56821397916666,96.85600333333333,60.0,89.0
136,97.04455497916666,97.30455777499999,58.0,117.0
137,97.52089597916667,97.8583041875,62.0,99.0
138,97.99723697916666,98.11830698333333,67.0,100.0
139,98.23540747916667,98.7038094625,67.0,112.0
140,99.42625997916666,99.61282687083333,70.0,127.0
141,99.66443047916667,99.77160720416667,69.0,90.0
142,99.90260097916666,100.04153377083333,70.0,112.0
143,100.14077147916666,100.39482001249999,69.0,107.0
144,100.61711247916666,100.71833494166667,69.0,102.0
145,100.85528297916666,100.94062740833333,67.0,100.0
146,101.09345347916667,102.01636416666666,69.0,127.0
147,102.28430597916666,102.52843074166667,67.0,102.0
148,102.76064697916667,102.973015675,69.0,112.0
149,103.23698797916667,103.4612652,70.0,127.0
150,103.47515847916667,103.568441925,69.0,86.0
151,103.71332897916666,103.85623127916666,70.0,127.0
152,103.95149947916666,104.04676767916666,69.0,97.0
153,104.18966997916667,104.36829785416667,70.0,127.0
154,104.66601097916666,105.045099025,69.0,107.0
155,105.14235197916666,105.44204985833333,67.0,122.0
156,105.61869297916667,105.78144282083333,67.0,107.0
157,105.85686347916666,106.30938742916666,65.0,107.0
158,107.04771597916667,107.2660389375,67.0,117.0
159,107.28588647916666,107.47642287916666,65.0,76.0
160,107.52405697916666,107.69077632916667,67.0,97.0
161,107.76222747916667,107.88925174583333,65.0,93.0
162,108.00039797916666,108.24452274166666,67.0,107.0
163,108.47673897916667,108.760558825,65.0,102.0
164,108.95307997916666,109.27064064583332,65.0,122.0
165,109.42942097916666,109.53659770416667,67.0,107.0
166,109.66759147916666,110.26103297499999,62.0,100.0
167,110.85844397916667,111.19783694166667,62.0,122.0
168,111.33478497916667,111.65829990833333,60.0,100.0
169,111.81112597916666,112.09891533333332,60.0,89.0
170,112.28746697916667,112.547469775,58.0,117.0
171,112.76380797916666,113.1012161875,62.0,99.0
172,113.24014897916666,113.36121898333333,67.0,100.0
173,113.47831947916666,113.9467214625,67.0,112.0
174,114.66917197916666,114.85573887083333,70.0,127.0
175,114.90734247916666,115.01451920416666,69.0,90.0
176,115.14551297916667,115.28444577083333,70.0,112.0
177,115.38368347916666,115.6377320125,69.0,107.0
178,115.86002447916667,116.06445415833333,67.0,112.0
179,116.09819497916666,116.1974326875,65.0,85.0
180,116.33636547916666,117.82493110416667,67.0,112.0
181,147.06035997916666,147.44143277916666,62.0,100.0
182,147.53670097916665,148.00907247083333,60.0,71.0
183,148.01304197916667,148.40800805833334,62.0,85.0
184,148.48938297916666,148.68190413333332,67.0,93.0
185,148.72755347916666,149.59687580416667,62.0,89.0
186,150.39474697916665,150.535664525,58.0,99.0
187,150.63291747916665,150.72818567916667,60.0,71.0
188,150.87108797916667,151.24819127083333,62.0,97.0
189,151.34742897916666,151.64712685833334,60.0,95.0
190,151.82376997916666,152.06392523333332,60.0,95.0
191,152.30011097916667,152.45690655833332,58.0,93.0
192,152.53828147916667,153.71127119166667,60.0,95.0
193,154.68181597916666,154.9715900875,62.0,95.0
194,155.15815697916665,155.42609879166667,60.0,83.0
195,155.63449797916667,156.12870176666667,62.0,93.0
196,156.11083897916666,156.20809193333332,67.0,96.0
197,156.34900947916665,157.39100541666667,67.0,97.0
198,157.77803247916665,157.97650789583332,70.0,97.0
199,158.01620297916665,158.29208380833333,69.0,79.0
200,158.25437347916667,158.47468119166666,70.0,97.0
201,158.49254397916667,158.75651628333333,65.0,89.0
202,158.96888497916666,159.09987875416667,65.0,95.0
203,159.20705547916666,159.54843319583333,65.0,95.0
204,159.68339647916667,159.93347550416667,62.0,72.0
205,159.92156697916667,160.16569174166665,67.0,92.0
206,160.15973747916667,161.17196210416665,65.0,95.0
207,163.25595397916666,163.35916119583334,67.0,95.0
208,163.49412447916666,163.60328595833332,67.0,78.0
209,163.73229497916665,163.90695334583333,69.0,90.0
210,163.97046547916665,164.19871220833332,70.0,95.0
211,164.20863597916667,164.64528189583334,69.0,99.0
212,164.68497697916666,164.74451960416667,65.0,77.0
213,164.92314747916666,165.41338175833332,65.0,93.0
214,166.59034097916665,166.6717159,65.0,100.0
215,166.82851147916665,166.92377967916667,65.0,77.0
216,167.06668197916667,167.16393493333334,65.0,85.0
217,167.30485247916667,167.4159987125,65.0,76.0
218,167.54302297916666,167.6898947875,65.0,100.0
219,167.78119347916666,167.9637908625,67.0,102.0
220,168.01936397916666,168.25753447916665,60.0,89.0
221,168.25753447916665,169.37296632083334,62.0,86.0
222,169.44838697916666,169.60915206666667,58.0,107.0
223,169.68655747916665,169.95449929166665,60.0,82.0
224,169.92472797916668,170.30580077916667,62.0,83.0
225,170.40106897916667,170.69282784166666,55.0,74.0
226,170.87740997916666,171.375583275,55.0,79.0
227,171.35375097916665,171.62963180833333,62.0,93.0
228,171.83009197916667,172.1198660875,62.0,92.0
229,172.30643297916666,172.44536577083332,58.0,77.0
230,172.54460347916665,173.43377334583332,60.0,82.0
231,173.73545597916666,173.82675467083334,67.0,102.0
232,173.97362647916665,174.07087943333332,67.0,86.0
233,174.21179697916665,174.31500419583332,67.0,93.0
234,174.44996747916667,174.55515945,67.0,93.0
235,174.68813797916667,174.96798831666666,67.0,107.0
236,175.16447897916666,175.27760996666666,67.0,100.0
237,175.40264947916666,176.34739246249998,69.0,117.0
238,176.59350197916666,176.83762674166667,67.0,102.0
239,177.06984297916665,177.28221167499999,69.0,112.0
240,177.54618397916667,177.7704612,70.0,127.0
241,177.78435447916667,177.877637925,69.0,86.0
242,178.02252497916666,178.16542727916666,70.0,127.0
243,178.26069547916666,178.35596367916665,69.0,97.0
244,178.49886597916665,178.67749385416667,70.0,127.0
245,178.97520697916667,179.354295025,69.0,107.0
246,179.45154797916666,179.75124585833333,67.0,122.0
247,179.92788897916665,180.09063882083333,67.0,107.0
248,180.16605947916665,180.61858342916665,65.0,107.0
249,181.35691197916665,181.5752349375,67.0,117.0
250,181.59508247916665,181.78561887916666,65.0,76.0
251,181.83325297916667,181.99997232916667,67.0,97.0
252,182.07142347916667,182.19844774583333,65.0,93.0
253,182.30959397916666,182.55371874166667,67.0,107.0
254,182.78593497916665,183.069754825,65.0,102.0
255,183.26227597916667,183.57983664583332,65.0,122.0
256,183.73861697916666,183.84579370416665,67.0,107.0
257,183.97678747916666,184.570228975,62.0,100.0
258,185.16763997916667,185.50703294166667,62.0,122.0
259,185.64398097916666,185.96749590833332,60.0,100.0
260,186.12032197916668,186.40811133333332,60.0,89.0
261,186.59666297916667,186.85666577499998,58.0,117.0
262,187.07300397916666,187.4104121875,62.0,99.0
263,187.54934497916665,187.67041498333333,67.0,100.0
264,187.78751547916667,188.2559174625,67.0,112.0
265,188.97836797916665,189.16493487083332,70.0,127.0
266,189.21653847916667,189.32371520416666,69.0,90.0
267,189.45470897916667,189.59364177083333,70.0,112.0
268,189.69287947916666,189.9469280125,69.0,107.0
269,190.16922047916665,190.27044294166666,69.0,102.0
270,190.40739097916665,190.49273540833332,67.0,100.0
271,190.64556147916667,191.56847216666665,69.0,127.0
272,191.83641397916665,192.08053874166666,67.0,102.0
273,192.31275497916667,192.525123675,69.0,112.0
274,192.78909597916666,193.0133732,70.0,127.0
275,193.02726647916666,193.120549925,69.0,86.0
276,193.26543697916665,193.40833927916665,70.0,127.0
277,193.50360747916667,193.59887567916667,69.0,97.0
278,193.74177797916667,193.92040585416666,70.0,127.0
279,194.21811897916666,194.597207025,69.0,107.0
280,194.69445997916665,194.99415785833332,67.0,122.0
281,195.17080097916667,195.33355082083332,67.0,107.0
282,195.40897147916667,195.86149542916667,65.0,107.0
283,196.59982397916667,196.8181469375,67.0,117.0
284,196.83799447916667,197.02853087916665,65.0,76.0
285,197.07616497916666,197.24288432916666,67.0,97.0
286,197.31433547916666,197.44135974583332,65.0,93.0
287,197.55250597916665,197.79663074166666,67.0,107.0
288,198.02884697916667,198.312666825,65.0,102.0
289,198.50518797916666,198.82274864583331,65.0,122.0
290,198.98152897916665,199.08870570416667,67.0,107.0
291,199.21969947916665,199.81314097499998,62.0,100.0
292,200.41055197916666,200.74994494166666,62.0,122.0
293,200.88689297916667,201.21040790833334,60.0,100.0
294,201.36323397916667,201.65102333333334,60.0,89.0
295,201.83957497916666,202.099577775,58.0,117.0
296,202.31591597916665,202.6533241875,62.0,99.0
297,202.79225697916667,202.91332698333332,67.0,100.0
298,203.03042747916666,203.4988294625,67.0,112.0
299,204.22127997916667,204.40784687083334,70.0,127.0
300,204.45945047916666,204.56662720416665,69.0,90.0
301,204.69762097916666,204.83655377083332,70.0,112.0
302,204.93579147916665,205.18984001249999,69.0,107.0
303,205.41213247916667,205.61656215833332,67.0,112.0
304,205.65030297916667,205.7495406875,65.0,85.0
305,205.88847347916666,207.37703910416667,67.0,112.0
306,208.98468997916666,209.22881474166667,67.0,102.0
307,209.46103097916665,209.67339967499998,69.0,112.0
308,209.93737197916667,210.1616492,70.0,127.0
309,210.17554247916667,210.268825925,69.0,86.0
310,210.41371297916666,210.55661527916666,70.0,127.0
311,210.65188347916666,210.74715167916665,69.0,97.0
312,210.89005397916665,211.06868185416667,70.0,127.0
313,211.36639497916667,211.745483025,69.0,107.0
314,211.84273597916666,212.14243385833333,67.0,122.0
315,212.31907697916665,212.48182682083333,67.0,107.0
316,212.55724747916665,213.00977142916665,65.0,107.0
317,213.74809997916665,213.9664229375,67.0,117.0
318,213.98627047916665,214.17680687916666,65.0,76.0
319,214.22444097916667,214.39116032916667,67.0,97.0
320,214.46261147916667,214.58963574583333,65.0,93.0
321,214.70078197916666,214.94490674166667,67.0,107.0
322,215.17712297916665,215.460942825,65.0,102.0
323,215.65346397916667,215.97102464583332,65.0,122.0
324,216.12980497916666,216.23698170416665,67.0,107.0
325,216.36797547916666,216.961416975,62.0,100.0
326,217.55882797916667,217.89822094166666,62.0,122.0
327,218.03516897916666,218.35868390833332,60.0,100.0
328,218.51150997916665,218.79929933333332,60.0,89.0
329,218.98785097916667,219.24785377499998,58.0,117.0
330,219.46419197916666,219.8016001875,62.0,99.0
331,219.94053297916665,220.06160298333333,67.0,100.0
332,220.17870347916667,220.6471054625,67.0,112.0
333,221.36955597916665,221.55612287083332,70.0,127.0
334,221.60772647916667,221.71490320416666,69.0,90.0
335,221.84589697916667,221.98482977083333,70.0,112.0
336,222.08406747916666,222.3381160125,69.0,107.0
337,222.56040847916665,222.66163094166666,69.0,102.0
338,222.79857897916665,222.88392340833332,67.0,100.0
339,223.03674947916667,223.95966016666665,69.0,127.0
340,224.22760197916665,224.47172674166666,67.0,102.0
341,224.70394297916667,224.916311675,69.0,112.0
342,225.18028397916666,225.4045612,70.0,127.0
343,225.41845447916666,225.511737925,69.0,86.0
344,225.65662497916665,225.79952727916665,70.0,127.0
345,225.89479547916665,225.99006367916667,69.0,97.0
346,226.13296597916667,226.31159385416666,70.0,127.0
347,226.60930697916666,226.988395025,69.0,107.0
348,227.08564797916665,227.38534585833332,67.0,122.0
349,227.56198897916667,227.72473882083332,67.0,107.0
350,227.80015947916667,228.25268342916667,65.0,107.0
351,228.99101197916667,229.2093349375,67.0,117.0
352,229.22918247916667,229.41971887916665,65.0,76.0
353,229.46735297916666,229.63407232916666,67.0,97.0
354,229.70552347916666,229.83254774583332,65.0,93.0
355,229.94369397916665,230.18781874166666,67.0,107.0
356,230.42003497916667,230.703854825,65.0,102.0
357,230.89637597916666,231.21393664583331,65.0,122.0
358,231.37271697916665,231.47989370416667,67.0,107.0
359,231.61088747916665,232.20432897499998,62.0,100.0
360,232.80173997916665,233.14113294166665,62.0,122.0
361,233.27808097916667,233.60159590833334,60.0,100.0
362,233.75442197916666,234.0422113333333,60.0,89.0
363,234.23076297916666,234.490765775,58.0,117.0
364,234.70710397916665,235.0445121875,62.0,99.0
365,235.18344497916667,235.30451498333332,67.0,100.0
366,235.42161547916666,235.8900174625,67.0,112.0
367,236.61246797916667,236.79903487083334,70.0,127.0
368,236.85063847916666,236.95781520416665,69.0,90.0
369,237.08880897916666,237.22774177083332,70.0,112.0
370,237.32697947916665,237.58102801249998,69.0,107.0
371,237.80332047916667,238.00775015833332,67.0,112.0
372,238.04149097916667,238.1407286875,65.0,85.0
373,238.27966147916666,239.76822710416667,67.0,112.0
