,start,end,pitch,velocity
0,2.7290369791666667,3.16766765,55.0,66.0
1,2.9672074791666665,3.2470578166666666,58.0,61.0
2,3.9198894791666667,4.5252395,55.0,62.0
3,3.6817189791666665,4.5311937625,58.0,39.0
4,2.490866479166667,4.537148025,50.0,42.0
5,3.205377979166667,4.545087041666666,62.0,90.0
6,5.348912479166667,5.5870829791666665,55.0,61.0
7,4.872571479166666,5.7002139666666665,50.0,36.0
8,2.2526959791666665,5.791512658333333,43.0,76.0
9,5.5870829791666665,6.027698404166666,67.0,48.0
10,5.825253479166666,6.061439225,62.0,56.0
11,6.539764979166667,7.081602866666667,51.0,65.0
12,7.254276479166666,7.796114366666666,51.0,51.0
13,6.301594479166667,7.811992399999999,46.0,43.0
14,8.232760283333333,8.476885045833333,50.0,89.0
15,8.466961275,8.697192758333333,46.0,72.0
16,7.730617479166667,8.750781120833333,55.0,72.0
17,6.063423979166666,8.917500470833334,39.0,68.0
18,8.709101283333332,8.953226045833333,43.0,62.0
19,7.492446979166666,8.990936375,58.0,56.0
20,6.777935479166667,8.990936375,63.0,79.0
21,8.945287029166666,9.630027216666667,53.0,81.0
22,8.945287029166666,9.667737545833333,57.0,49.0
23,8.945287029166666,9.673691808333333,60.0,49.0
24,8.945287029166666,9.929725095833334,41.0,99.0
25,10.350492979166667,10.733550533333332,55.0,68.0
26,10.588663479166666,10.8665290625,58.0,58.0
27,10.112322479166666,10.906224145833333,50.0,53.0
28,11.065004479166666,11.815241554166667,50.0,41.0
29,10.826833979166667,12.555554858333332,62.0,83.0
30,11.303174979166666,12.638914533333333,58.0,63.0
31,12.494027479166666,12.922734379166666,50.0,51.0
32,11.541345479166667,12.964414216666666,55.0,47.0
33,12.970368479166666,13.095407991666667,50.0,59.0
34,9.874151979166667,13.1172402875,43.0,86.0
35,12.732197979166667,13.625337354166666,62.0,95.0
36,13.208538979166667,13.720605554166667,58.0,68.0
37,13.446709479166666,13.940913266666666,55.0,61.0
38,14.161220979166666,14.728860670833333,51.0,63.0
39,13.923050479166667,15.014665270833333,46.0,50.0
40,13.684879979166666,15.0702383875,39.0,79.0
41,14.875732479166667,15.121841995833332,51.0,56.0
42,14.399391479166667,15.574365945833334,63.0,96.0
43,15.113902979166665,15.576350699999999,58.0,36.0
44,15.352073479166666,15.590243979166667,55.0,42.0
45,16.066584979166667,16.52704794583333,53.0,69.0
46,15.828414479166666,16.703691066666668,48.0,60.0
47,15.590243979166667,17.1304132125,41.0,62.0
48,16.304755479166666,17.438050108333332,57.0,83.0
49,17.971948979166665,18.487985062499998,55.0,70.0
50,17.733778479166666,19.045700983333333,50.0,52.0
51,17.495607979166667,19.127075904166666,43.0,66.0
52,18.924630979166665,19.508148704166665,62.0,43.0
53,18.448289979166667,19.567691329166667,67.0,56.0
54,18.210119479166668,19.569676083333334,70.0,78.0
55,20.353653979166666,20.613656775,53.0,39.0
56,19.400971979166666,20.88755285,41.0,58.0
57,19.877312979166668,21.308320733333332,48.0,31.0
58,20.353653979166666,21.38572614583333,69.0,58.0
59,20.829994979166667,21.445268770833334,60.0,38.0
60,20.353653979166666,21.711225829166665,65.0,49.0
61,22.259017979166668,22.41184405,55.0,44.0
62,21.782676979166666,22.5130665125,50.0,40.0
63,21.306335979166665,22.949712429166667,43.0,53.0
64,22.259017979166668,23.1918524375,70.0,74.0
65,22.735358979166666,23.207730470833333,62.0,53.0
66,22.259017979166668,23.263303587499998,67.0,63.0
67,24.164381979166667,24.4362933,53.0,48.0
68,23.211699979166667,24.829274625,41.0,61.0
69,23.688040979166665,25.117063979166666,48.0,35.0
70,24.164381979166667,25.134926766666666,65.0,74.0
71,24.164381979166667,25.136911520833333,69.0,81.0
72,24.640722979166664,25.196454145833332,60.0,58.0
73,25.117063979166666,25.77401760833333,62.0,66.0
74,25.117063979166666,25.776002362499998,70.0,59.0
75,25.117063979166666,25.777987116666665,67.0,66.0
76,25.593404979166667,26.313870741666666,50.0,54.0
77,26.069745979166665,26.593721079166666,70.0,63.0
78,26.069745979166665,26.613568620833334,67.0,67.0
79,26.069745979166665,26.631431408333334,62.0,74.0
80,26.069745979166665,27.314186841666665,55.0,51.0
81,27.022427979166665,27.621823737499998,62.0,70.0
82,27.022427979166665,27.635717016666664,67.0,66.0
83,27.022427979166665,27.63770177083333,70.0,69.0
84,27.498768979166666,28.054500145833334,55.0,48.0
85,26.546086979166667,28.5030545875,50.0,36.0
86,25.117063979166666,28.72137754583333,43.0,66.0
87,27.975109979166668,28.806721975,70.0,85.0
88,27.975109979166668,28.818630499999998,67.0,82.0
89,28.451450979166665,28.830539025,62.0,77.0
90,28.927791979166667,29.6343644625,69.0,76.0
91,28.927791979166667,29.674059545833334,60.0,81.0
92,28.927791979166667,29.678029054166664,65.0,83.0
93,29.880473979166666,30.35879973333333,65.0,76.0
94,29.880473979166666,30.362769241666665,69.0,69.0
95,29.880473979166666,30.382616783333333,60.0,76.0
96,29.880473979166666,31.138808120833332,53.0,39.0
97,30.833155979166666,31.351176816666666,65.0,71.0
98,30.833155979166666,31.363085341666665,69.0,65.0
99,30.833155979166666,31.36705485,60.0,68.0
100,31.309496979166667,31.823548308333333,53.0,42.0
101,28.927791979166667,31.9088927375,41.0,60.0
102,31.785837979166665,32.24630094583333,65.0,81.0
103,31.785837979166665,32.274087504166665,69.0,77.0
104,32.26217897916666,32.35943193333333,60.0,69.0
105,32.73851997916667,33.274403604166665,67.0,69.0
106,32.73851997916667,33.28829688333333,70.0,69.0
107,32.73851997916667,33.41135164166666,63.0,72.0
108,33.214860979166666,33.85196706666667,46.0,34.0
109,33.691201979166664,34.181436258333335,70.0,52.0
110,33.691201979166664,34.1953295375,67.0,61.0
111,33.691201979166664,34.250902654166666,63.0,58.0
112,33.691201979166664,34.95350562916666,51.0,47.0
113,34.64388397916667,35.199615145833334,70.0,60.0
114,34.64388397916667,35.207554162499996,67.0,82.0
115,34.64388397916667,35.286944329166666,63.0,75.0
116,34.16754297916667,36.332909775,46.0,32.0
117,35.120224979166665,36.42420846666666,51.0,39.0
118,35.59656597916666,36.44802551666667,67.0,92.0
119,32.73851997916667,36.461918795833334,39.0,67.0
120,35.59656597916666,36.477796829166664,70.0,81.0
121,36.07290697916667,36.48573584583333,63.0,55.0
122,37.50192997916667,38.68881297083333,50.0,74.0
123,38.454611979166664,39.13141315,65.0,59.0
124,38.454611979166664,39.22469659583333,62.0,66.0
125,38.93095297916667,39.4410348,50.0,53.0
126,36.549247979166665,39.6613425125,38.0,69.0
127,37.02558897916666,39.75065645,45.0,48.0
128,39.64546447916666,39.8161533375,50.0,61.0
129,37.978270979166666,39.834016125,57.0,69.0
130,39.883634979166665,40.31234187916667,62.0,69.0
131,39.40729397916667,40.32425040416666,65.0,89.0
132,40.12180547916667,40.35997597916666,57.0,79.0
133,40.35997597916666,40.83830173333333,67.0,73.0
134,40.35997597916666,40.84822550416666,70.0,63.0
135,40.35997597916666,40.881966325,63.0,77.0
136,41.312657979166666,41.42181945833333,67.0,92.0
137,40.83631697916667,41.4952553625,51.0,39.0
138,41.55082847916667,41.6977002875,67.0,25.0
139,41.312657979166666,41.73739537083333,70.0,95.0
140,41.312657979166666,41.74136487916667,63.0,86.0
141,40.35997597916666,41.790983733333334,39.0,77.0
142,41.788998979166664,41.906099475,51.0,56.0
143,42.26533997916667,42.940156395833334,69.0,72.0
144,42.26533997916667,42.94214115,65.0,73.0
145,42.26533997916667,43.073134925,60.0,81.0
146,43.218021979166664,43.5375674,53.0,65.0
147,42.26533997916667,43.654667895833335,41.0,69.0
148,42.74168097916667,43.66062215833333,48.0,64.0
149,43.218021979166664,43.785661670833335,65.0,74.0
150,43.218021979166664,43.821387245833336,69.0,72.0
151,43.69436297916666,43.99009135,60.0,76.0
152,44.17070397916667,44.934834333333335,69.0,72.0
153,44.17070397916667,44.952697120833335,65.0,74.0
154,44.17070397916667,44.960636137499996,62.0,81.0
155,44.17070397916667,45.970876008333335,38.0,70.0
156,44.647044979166665,45.978815024999996,45.0,52.0
157,45.12338597916666,46.01851010833333,65.0,83.0
158,45.12338597916666,46.0324033875,50.0,45.0
159,45.12338597916666,46.0324033875,69.0,76.0
160,45.59972697916667,46.066144208333334,62.0,65.0
161,46.076067979166666,46.778670954166664,58.0,96.0
162,46.076067979166666,46.83821357916666,62.0,83.0
163,47.02874997916666,47.17959129583333,55.0,55.0
164,47.02874997916666,47.94173689583333,58.0,88.0
165,46.076067979166666,47.94372165,43.0,78.0
166,46.552408979166664,47.95166066666666,50.0,55.0
167,47.50509097916667,47.955630174999996,55.0,69.0
168,47.02874997916666,47.965553945833335,62.0,82.0
169,47.981431979166665,48.455788225,67.0,63.0
170,47.981431979166665,48.618538066666666,58.0,60.0
171,47.981431979166665,48.6403703625,63.0,63.0
172,48.93411397916667,49.071062016666666,58.0,47.0
173,47.981431979166665,49.7300004,39.0,64.0
174,48.45777297916666,49.73992417083333,46.0,32.0
175,48.93411397916667,49.809390566666664,67.0,66.0
176,48.93411397916667,49.82129909166667,63.0,65.0
177,49.410454979166666,49.84114663333333,58.0,78.0
178,49.88679597916666,50.64298731666666,65.0,83.0
179,49.88679597916666,50.64497207083333,69.0,76.0
180,49.88679597916666,50.66680436666667,60.0,88.0
181,50.839477979166666,51.395209145833334,53.0,62.0
182,50.36313697916667,51.577806529166665,48.0,56.0
183,49.88679597916666,51.647272924999996,41.0,61.0
184,50.839477979166666,51.73261735416666,65.0,79.0
185,50.839477979166666,51.752464895833334,69.0,71.0
186,51.315818979166664,51.77628194583333,60.0,70.0
187,51.79215997916666,52.32407409583333,60.0,77.0
188,51.79215997916666,52.32407409583333,63.0,83.0
189,51.79215997916666,52.534458037499995,55.0,77.0
190,52.26850097916667,53.614164304166664,48.0,39.0
191,51.79215997916666,53.62011856666666,36.0,78.0
192,53.22118297916666,53.62805758333333,55.0,77.0
193,52.744841979166665,53.6300423375,60.0,82.0
194,52.744841979166665,53.63996610833333,63.0,86.0
195,54.173864979166666,54.743489425,50.0,66.0
196,54.41203547916667,55.227769441666666,57.0,67.0
197,53.69752397916667,55.479833220833335,38.0,73.0
198,53.93569447916666,55.59693371666666,45.0,52.0
199,55.12654697916666,56.44243899166666,62.0,77.0
200,54.650205979166664,56.44243899166666,66.0,100.0
201,55.364717479166664,56.65679244166667,57.0,58.0
202,55.60288797916667,57.00809392916666,38.0,66.0
203,54.888376479166666,57.099392620833335,50.0,63.0
204,56.55556997916666,57.498328208333334,66.0,74.0
205,56.55556997916666,57.52214525833333,62.0,76.0
206,57.508251979166666,57.52214525833333,62.0,85.0
207,57.03191097916667,57.55787083333333,57.0,70.0
208,57.508251979166666,58.09772396666666,70.0,89.0
209,57.508251979166666,58.127495279166666,67.0,86.0
210,57.98459297916666,58.6673484125,50.0,42.0
211,58.46093397916667,59.0186499,70.0,86.0
212,58.46093397916667,59.032543179166666,67.0,78.0
213,58.46093397916667,59.09010105,62.0,79.0
214,58.46093397916667,59.65178647916667,55.0,53.0
215,59.413615979166664,60.145990266666665,62.0,74.0
216,59.413615979166664,60.17774633333333,70.0,82.0
217,59.413615979166664,60.181715841666666,67.0,78.0
218,59.88995697916666,60.43774912916666,55.0,57.0
219,60.60446847916666,60.83866947083333,55.0,67.0
220,58.937274979166666,60.973632754166665,50.0,47.0
221,57.508251979166666,61.122489316666666,43.0,78.0
222,60.842638979166665,61.235620304166666,62.0,82.0
223,60.36629797916667,61.259437354166664,67.0,85.0
224,60.36629797916667,61.2634068625,70.0,97.0
225,62.03349147916666,62.819454129166665,60.0,56.0
226,61.79532097916667,63.6093862875,53.0,66.0
227,62.271661979166666,64.05794072916666,69.0,90.0
228,62.748002979166664,64.10160532083333,65.0,55.0
229,63.93885547916666,64.306035,53.0,58.0
230,61.557150479166665,64.49855615416666,48.0,38.0
231,64.41519647916667,64.54023599166666,53.0,66.0
232,61.31897997916666,64.556114025,41.0,68.0
233,62.986173479166666,64.5620682875,60.0,66.0
234,64.17702597916667,65.0741348625,69.0,96.0
235,64.65336697916666,65.0979519125,65.0,90.0
236,64.89153747916666,65.18726585,60.0,73.0
237,65.60604897916666,66.18559719583334,51.0,65.0
238,65.84421947916667,66.63216688333333,55.0,48.0
239,66.32056047916666,67.39431248333334,51.0,52.0
240,66.55873097916667,67.652330525,58.0,45.0
241,66.08238997916666,67.82301938333333,63.0,85.0
242,67.51141297916666,68.07905267083333,51.0,57.0
243,65.36787847916666,68.34699448333333,46.0,35.0
244,68.22592447916666,68.37875054999999,51.0,71.0
245,65.12970797916667,68.43630842083333,39.0,78.0
246,66.79690147916666,68.5514241625,55.0,72.0
247,68.46409497916666,68.8491372875,58.0,96.0
248,67.98775397916667,68.86700007499999,63.0,107.0
249,68.70226547916667,69.02379565416666,55.0,81.0
250,69.41677697916667,69.97250814583333,50.0,64.0
251,69.65494747916667,70.14121225,57.0,66.0
252,70.13128847916667,71.01847359166666,50.0,48.0
253,69.89311797916666,71.64367115416667,65.0,88.0
254,70.60762947916666,71.6893205,62.0,77.0
255,70.36945897916667,71.74687837083333,57.0,49.0
256,71.56031147916667,71.86596362083333,50.0,72.0
257,71.79848197916667,71.86993312916667,57.0,31.0
258,68.94043597916666,72.10413412083334,38.0,72.0
259,69.17860647916666,72.13390543333333,45.0,35.0
260,72.03665247916666,72.21528035416667,50.0,93.0
261,71.79848197916667,72.65192627083333,65.0,90.0
262,72.27482297916667,72.66581955,62.0,102.0
263,72.51299347916667,72.79284381666666,57.0,81.0
264,73.22750497916667,73.7078154875,51.0,69.0
265,73.46567547916666,73.91621467499999,55.0,73.0
266,72.98933447916666,73.95590975833333,46.0,26.0
267,72.75116397916666,74.0233914,39.0,85.0
268,73.94201647916667,74.12659861666667,51.0,67.0
269,74.18018697916666,74.62278715833334,58.0,53.0
270,74.41835747916666,74.6247719125,55.0,54.0
271,73.70384597916666,74.6247719125,63.0,99.0
272,75.13286897916666,75.65088981666666,53.0,72.0
273,74.89469847916666,75.90692310416667,48.0,58.0
274,74.65652797916667,75.97440474583333,41.0,67.0
275,75.37103947916667,76.13318507916667,57.0,76.0
276,75.60920997916666,76.57578525833333,65.0,93.0
277,76.08555097916667,76.583724275,60.0,66.0
278,76.80006247916667,77.8877077625,45.0,53.0
279,76.56189197916666,77.917479075,38.0,69.0
280,77.03823297916666,77.98099120833334,50.0,58.0
281,77.27640347916666,78.09213744166667,53.0,61.0
282,77.99091497916666,78.44542368333333,57.0,72.0
283,78.22908547916667,78.45733220833333,53.0,65.0
284,77.51457397916667,78.46725597916667,62.0,92.0
285,78.94359697916667,79.21153879166667,55.0,74.0
286,79.18176747916667,79.39215142083333,58.0,92.0
287,78.70542647916666,79.52711470416666,50.0,42.0
288,78.46725597916667,79.87444668333333,43.0,69.0
289,79.65810847916667,79.8883399625,50.0,73.0
290,79.41993797916666,80.30315358333333,62.0,99.0
291,79.89627897916667,80.35475719166666,55.0,82.0
292,80.13444947916666,80.39643702916666,58.0,66.0
293,81.08713147916666,81.8294295375,55.0,66.0
294,80.37261997916666,82.12515790833334,36.0,72.0
295,80.61079047916667,82.27202971666667,43.0,38.0
296,81.32530197916667,83.05402285833333,63.0,102.0
297,81.80164297916666,83.05997712083334,60.0,69.0
298,80.84896097916666,83.35769024583333,48.0,63.0
299,82.27798397916666,83.62364730416667,36.0,70.0
300,82.75432497916667,83.85586354166666,43.0,42.0
301,83.70700697916666,84.17739371666667,60.0,72.0
302,82.03981347916667,84.19525650416666,55.0,74.0
303,83.23066597916666,84.2170888,63.0,102.0
304,84.65968897916666,85.19557260416667,50.0,82.0
305,84.89785947916667,85.70565442499999,57.0,63.0
306,85.13602997916666,85.76916655833332,66.0,122.0
307,85.61237097916667,85.7890141,62.0,81.0
308,84.18334797916667,85.97558099166666,38.0,72.0
309,85.37420047916666,86.03710837083334,50.0,86.0
310,84.42151847916666,86.0926814875,45.0,54.0
311,85.85054147916667,86.5987938,57.0,99.0
312,85.85054147916667,86.63054986666667,62.0,99.0
313,85.85054147916667,86.63253462083333,66.0,107.0
314,86.80322347916666,86.94612577916666,66.0,96.0
315,86.80322347916666,86.95803430416666,57.0,78.0
316,86.80322347916666,86.96001905833333,62.0,89.0
317,86.56505297916667,87.110860375,50.0,86.0
318,86.08871197916666,87.4562076,38.0,90.0
319,86.32688247916667,87.50781120833334,45.0,69.0
320,87.04139397916667,87.57132334166667,62.0,127.0
321,87.27956447916667,87.896823025,50.0,102.0
322,87.51773497916666,87.96430466666666,57.0,112.0
323,87.75590547916667,87.97819794583333,62.0,102.0
324,87.04139397916667,88.015908275,66.0,127.0
325,88.47041697916666,88.74431305416667,55.0,97.0
326,88.23224647916666,89.07973650833333,50.0,71.0
327,88.70858747916667,89.18095897083333,62.0,102.0
328,89.18492847916666,89.35363258333334,50.0,82.0
329,87.99407597916667,89.4270684875,43.0,89.0
330,89.66126947916666,89.754552925,62.0,95.0
331,88.94675797916666,89.93715030833333,70.0,127.0
332,89.42309897916667,90.33807064999999,67.0,88.0
333,90.37578097916666,90.921588375,50.0,79.0
334,90.61395147916666,91.07441444583333,62.0,88.0
335,89.89943997916666,91.2193015,38.0,72.0
336,90.13761047916667,91.27487461666666,45.0,56.0
337,91.09029247916666,91.30067642083333,50.0,93.0
338,91.32846297916666,91.70556627083333,65.0,99.0
339,90.85212197916667,91.7135052875,69.0,112.0
340,91.56663347916667,91.7849564375,62.0,81.0
341,91.80480397916666,92.3922912125,39.0,89.0
342,92.04297447916666,92.47962039583334,51.0,86.0
343,92.51931547916666,92.77137925833333,63.0,112.0
344,92.28114497916667,92.80512007916667,55.0,81.0
345,92.75748597916666,93.29535435833333,41.0,69.0
346,92.99565647916667,93.37672927916667,48.0,56.0
347,93.23382697916666,93.66848814166666,53.0,77.0
348,93.47199747916666,93.68635092916666,60.0,89.0
349,94.42467947916667,94.62910915833334,58.0,78.0
350,94.18650897916666,94.72437735833333,53.0,89.0
351,93.71016797916667,94.98636490833333,46.0,81.0
352,93.94833847916667,94.99231917083333,50.0,58.0
353,94.90102047916666,95.00819720416666,53.0,88.0
354,94.66284997916667,95.280108525,65.0,86.0
355,95.13919097916667,95.6314100125,58.0,96.0
356,95.37736147916667,95.64133378333334,62.0,86.0
357,96.09187297916667,96.6912687375,48.0,92.0
358,95.61553197916666,96.85203382499999,36.0,79.0
359,95.85370247916667,96.85997284166666,43.0,70.0
360,96.33004347916666,96.8818051375,55.0,89.0
361,96.80638447916667,96.96119530416667,48.0,73.0
362,96.56821397916666,97.20135055833333,63.0,122.0
363,97.04455497916666,97.4415058125,60.0,96.0
364,97.28272547916666,97.4772313875,55.0,82.0
365,97.99723697916666,98.21754469166666,55.0,85.0
366,98.23540747916667,98.38624879583332,58.0,100.0
367,97.75906647916666,98.5728156875,50.0,66.0
368,98.71174847916666,98.81495569583333,50.0,90.0
369,97.52089597916667,98.84274225416667,43.0,69.0
370,98.47357797916666,99.29923571249999,62.0,97.0
371,98.94991897916667,99.3170985,58.0,102.0
372,99.18808947916666,99.59297932916667,55.0,92.0
373,99.90260097916666,100.41665230833333,51.0,99.0
374,100.14077147916666,100.67268559583333,55.0,81.0
375,99.66443047916667,100.76993854999999,46.0,85.0
376,100.61711247916666,100.78383182916666,51.0,102.0
377,99.42625997916666,100.853298225,39.0,90.0
378,100.37894197916667,101.20063020416666,63.0,127.0
379,100.85528297916666,101.20658446666667,58.0,112.0
380,101.09345347916667,101.38124283333333,55.0,97.0
381,102.04613547916667,102.20094630416666,66.0,97.0
382,102.04613547916667,102.20888532083333,62.0,95.0
383,101.80796497916667,102.33987909583333,50.0,99.0
384,101.33162397916666,102.67331779583333,38.0,95.0
385,101.56979447916666,102.69713484583333,45.0,96.0
386,102.52247647916667,102.77454025833333,50.0,102.0
387,102.28430597916666,102.82614386666667,62.0,102.0
388,102.28430597916666,103.20920142083332,66.0,122.0
389,102.76064697916667,103.21912519166666,57.0,99.0
390,102.99881747916666,103.23301847083333,62.0,100.0
391,103.95149947916666,104.17180719166666,58.0,102.0
392,103.47515847916667,104.2234108,50.0,90.0
393,103.71332897916666,104.4437185125,55.0,78.0
394,104.42784047916666,104.55486474583333,50.0,82.0
395,103.23698797916667,104.5628037625,43.0,90.0
396,104.18966997916667,105.06891607499999,62.0,107.0
397,104.66601097916666,105.07685509166666,58.0,102.0
398,104.90418147916667,105.10662640416666,55.0,88.0
399,105.61869297916667,106.188317425,50.0,92.0
400,105.14235197916666,106.40068612083333,38.0,81.0
401,105.38052247916666,106.426487925,45.0,72.0
402,106.33320447916667,106.46221349999999,50.0,92.0
403,105.85686347916666,106.53167989583334,57.0,97.0
404,106.57137497916666,106.96435630416666,62.0,97.0
405,106.09503397916666,106.97229532083333,65.0,97.0
406,106.80954547916666,107.10527385,57.0,97.0
407,107.52405697916666,108.00039797916666,51.0,92.0
408,107.28588647916666,108.20879716666667,46.0,37.0
409,107.76222747916667,108.2544465125,55.0,76.0
410,107.04771597916667,108.30803487499999,39.0,88.0
411,108.23856847916666,108.46681520833333,51.0,90.0
412,108.00039797916666,108.80422341666666,63.0,112.0
413,108.47673897916667,108.97292752083332,58.0,82.0
414,108.71490947916666,108.98285129166666,55.0,88.0
415,109.66759147916666,109.9097314875,58.0,95.0
416,109.42942097916666,109.97721312916666,53.0,86.0
417,109.19125047916667,110.23324641666666,50.0,58.0
418,110.14393247916666,110.26103297499999,53.0,72.0
419,108.95307997916666,110.28881953333332,46.0,95.0
420,109.90576197916667,110.50714249166667,65.0,93.0
421,110.38210297916666,110.83462692916666,58.0,99.0
422,110.62027347916667,110.89615430833334,62.0,73.0
423,111.33478497916667,111.90837893333332,48.0,82.0
424,111.09661447916666,112.1783055,43.0,67.0
425,111.57295547916667,112.18624451666666,55.0,71.0
426,110.85844397916667,112.20609205833333,36.0,68.0
427,112.04929647916666,112.28349747083332,48.0,62.0
428,111.81112597916666,112.46212534583333,63.0,112.0
429,112.28746697916667,112.72609765,60.0,77.0
430,112.52563747916666,112.7439604375,55.0,89.0
431,113.24014897916666,113.4703804625,55.0,81.0
432,113.47831947916666,113.7025967,58.0,95.0
433,113.00197847916667,113.81771244166666,50.0,46.0
434,113.95466047916666,114.12733409166667,50.0,82.0
435,112.76380797916666,114.17099868333332,43.0,68.0
436,114.19283097916666,114.49252885833333,58.0,122.0
437,113.71648997916667,114.52825443333333,62.0,99.0
438,114.43100147916667,114.63940066666666,55.0,92.0
439,114.66917197916666,115.17528429166666,39.0,107.0
440,114.90734247916666,115.214979375,51.0,95.0
441,115.14551297916667,115.52658577916667,58.0,99.0
442,115.38368347916666,115.54444856666666,51.0,107.0
443,115.62185397916666,116.29071613333333,41.0,90.0
444,115.86002447916667,116.39987761249999,53.0,69.0
445,116.33636547916666,116.5606427,57.0,89.0
446,116.09819497916666,116.5606427,60.0,95.0
447,117.05087697916666,117.37439190833334,55.0,90.0
448,117.28904747916667,117.4835533875,58.0,81.0
449,116.81270647916666,117.64233372083334,50.0,66.0
450,118.00355897916667,118.38661653333332,58.0,107.0
451,116.57453597916667,118.41043358333333,43.0,70.0
452,117.52721797916666,118.4183726,62.0,99.0
453,117.76538847916666,118.46203719166667,50.0,86.0
454,118.24172947916666,118.46203719166667,55.0,78.0
455,118.47989997916666,119.025707375,64.0,90.0
456,118.47989997916666,119.0435701625,55.0,92.0
457,118.47989997916666,119.10906705,60.0,95.0
458,118.47989997916666,119.15273164166666,48.0,107.0
459,119.19441147916666,119.77594445,66.0,100.0
460,119.19441147916666,119.78388346666667,62.0,96.0
461,119.19441147916666,119.79777674583333,57.0,85.0
462,119.19441147916666,119.83151756666666,50.0,95.0
463,119.90892297916666,120.33366037083333,62.0,117.0
464,119.90892297916666,120.36144692916666,66.0,127.0
465,121.09977547916667,121.45901598333333,55.0,72.0
466,121.33794597916666,121.73291205833333,63.0,122.0
467,120.86160497916666,121.78054615833334,51.0,82.0
468,120.62343447916666,121.78650042083333,46.0,52.0
469,120.38526397916667,121.8003937,39.0,92.0
470,121.81428697916667,121.90161616249999,39.0,76.0
471,121.81428697916667,121.91550944166666,51.0,79.0
472,121.81428697916667,121.94131124583333,58.0,99.0
473,121.81428697916667,121.94131124583333,63.0,64.0
474,121.57611647916666,121.97902157499999,55.0,53.0
475,122.05245747916666,122.84040488333333,58.0,122.0
476,122.05245747916666,122.84238963749999,55.0,92.0
477,122.05245747916666,122.91185603333334,63.0,107.0
478,122.05245747916666,123.29491358749999,51.0,89.0
479,123.00513947916666,123.47155670833332,55.0,73.0
480,123.48148047916666,123.6878949125,51.0,75.0
481,122.76696897916666,123.71369671666666,46.0,47.0
482,122.05245747916666,123.72957475,39.0,72.0
483,123.24330997916667,124.10667804166667,63.0,117.0
484,123.71965097916666,124.12652558333333,58.0,92.0
485,123.95782147916667,124.15828164999999,55.0,85.0
486,124.67233297916667,125.17844529166666,53.0,58.0
487,124.91050347916666,125.19035381666666,57.0,75.0
488,124.19599197916666,125.43646333333334,41.0,86.0
489,125.14867397916666,125.48211267916666,60.0,93.0
490,124.43416247916666,125.5218077625,48.0,81.0
491,125.38684447916667,125.58730465,53.0,73.0
492,125.62501497916666,125.73814596666666,57.0,73.0
493,125.62501497916666,125.7480697375,53.0,69.0
494,125.62501497916666,125.7480697375,60.0,73.0
495,125.62501497916666,125.75600875416666,41.0,88.0
496,125.86318547916666,126.694797475,53.0,90.0
497,125.86318547916666,126.7483858375,57.0,92.0
498,126.81586747916667,126.87739485833333,57.0,34.0
499,125.86318547916666,126.932967975,60.0,90.0
500,126.81586747916667,126.9984648625,53.0,69.0
501,126.57769697916666,127.19892503333332,48.0,50.0
502,127.05403797916667,127.62564717916666,57.0,95.0
503,127.05403797916667,127.64549472083333,60.0,97.0
504,127.29220847916666,127.85984817083333,48.0,72.0
505,125.86318547916666,127.90152800833333,41.0,85.0
506,127.53037897916666,127.98885719166667,53.0,96.0
507,127.76854947916667,127.9928267,57.0,96.0
508,127.76854947916667,128.01862850416666,60.0,95.0
509,128.48306097916665,128.72321623333332,55.0,83.0
510,128.72123147916668,128.97131050416667,58.0,97.0
511,128.24489047916666,128.98917329166667,50.0,79.0
512,128.00671997916666,129.35039855,43.0,69.0
513,128.95940197916667,129.37421559999999,62.0,93.0
514,129.19757247916667,129.38215461666667,50.0,82.0
515,129.43574297916666,129.61040134583334,58.0,117.0
516,129.43574297916666,129.63620315,62.0,96.0
517,130.38842497916667,130.96995795,50.0,85.0
518,130.62659547916667,131.16247910416666,57.0,88.0
519,129.67391347916666,131.20812845,38.0,85.0
520,130.15025447916668,131.243854025,45.0,48.0
521,131.10293647916666,131.27759484583333,50.0,78.0
522,131.34110697916665,131.67851518749998,62.0,96.0
523,130.86476597916666,131.68248469583332,65.0,122.0
524,131.57927747916665,131.85912781666667,57.0,93.0
525,132.29378897916666,132.76616047083334,51.0,85.0
526,132.05561847916667,133.1373095,46.0,51.0
527,133.00830047916665,133.19288261666665,51.0,89.0
528,131.81744797916667,133.22860819166667,39.0,90.0
529,133.24647097916667,133.45685492083334,58.0,122.0
530,132.77012997916665,133.46082442916665,63.0,122.0
531,132.53195947916666,133.4707482,55.0,74.0
532,134.19915297916666,134.74892988333332,50.0,89.0
533,134.91366447916667,135.10221612499998,50.0,83.0
534,134.43732347916665,135.1200789125,57.0,79.0
535,133.96098247916666,135.2510726875,45.0,59.0
536,133.48464147916667,135.27687449166666,38.0,85.0
537,134.67549397916667,135.48527367916665,65.0,102.0
538,135.15183497916667,135.51306023749999,62.0,96.0
539,135.39000547916666,135.67779483333334,57.0,90.0
540,136.10451697916668,136.67811093333333,48.0,89.0
541,136.34268747916667,136.91628143333332,55.0,72.0
542,136.81902847916666,137.02742766666665,48.0,82.0
543,135.62817597916666,137.30132374166666,36.0,85.0
544,136.58085797916667,137.4660583375,63.0,112.0
545,137.05719897916666,137.47995161666665,60.0,100.0
546,135.86634647916665,137.507738175,43.0,74.0
547,137.29536947916665,137.5256009625,55.0,86.0
548,138.00988097916667,138.57156640833333,50.0,92.0
549,138.24805147916666,138.76607231666665,57.0,88.0
550,137.53353997916668,138.86134051666667,38.0,90.0
551,137.77171047916667,138.87324904166667,45.0,70.0
552,138.72439247916665,139.0141665875,50.0,96.0
553,138.48622197916666,139.40119364999998,65.0,117.0
554,138.96256297916668,139.41111742083334,62.0,96.0
555,139.20073347916667,139.43890397916667,57.0,89.0
556,140.39158597916665,140.46502188333332,62.0,34.0
557,140.39158597916665,140.6575430375,55.0,39.0
558,139.91524497916666,140.69525336666666,50.0,58.0
559,139.43890397916667,140.91159157083334,43.0,86.0
560,140.39158597916665,140.94136288333334,70.0,93.0
561,140.86792697916667,141.40579535833334,62.0,85.0
562,141.34426797916666,142.16397145,65.0,69.0
563,141.34426797916666,142.16794095833333,69.0,64.0
564,141.34426797916666,142.42794375416668,41.0,60.0
565,141.82060897916665,142.461684575,48.0,39.0
566,142.29694997916667,142.8844372125,69.0,69.0
567,142.77329097916666,143.1464247625,60.0,48.0
568,142.29694997916667,143.19802837083333,65.0,69.0
569,143.24963197916665,143.47589395416665,62.0,39.0
570,143.24963197916665,144.0514726625,67.0,66.0
571,143.24963197916665,144.0633811875,70.0,69.0
572,144.20231397916666,144.4920880875,55.0,40.0
573,143.72597297916667,144.49605759583332,50.0,41.0
574,143.24963197916665,144.66277694583334,43.0,67.0
575,144.20231397916666,144.6945330125,70.0,95.0
576,144.20231397916666,144.8017097375,67.0,82.0
577,144.67865497916665,144.97239859583334,62.0,63.0
578,145.15499597916667,145.98859272916667,69.0,63.0
579,145.15499597916667,146.00645551666668,65.0,66.0
580,145.15499597916667,146.0461506,60.0,68.0
581,146.10767797916665,146.18706814583334,60.0,40.0
582,145.15499597916667,146.22874798333334,53.0,51.0
583,146.34584847916668,146.69318045833333,53.0,52.0
584,146.10767797916665,147.03058866666666,65.0,81.0
585,146.58401897916667,147.04249719166665,60.0,69.0
586,146.10767797916665,147.04845145416667,69.0,72.0
587,147.53670097916665,148.9577849625,50.0,57.0
588,148.48938297916666,149.03717512916666,58.0,79.0
589,148.72755347916666,149.03915988333333,55.0,71.0
590,148.01304197916667,149.05702267083333,62.0,97.0
591,149.91840597916666,150.07520155833333,55.0,73.0
592,149.44206497916667,150.12878992083333,50.0,53.0
593,148.96572397916665,150.15657647916666,43.0,68.0
594,149.91840597916666,150.86513371666666,70.0,112.0
595,150.39474697916665,150.93063060416665,62.0,66.0
596,150.15657647916666,150.94253912916668,67.0,72.0
597,151.58559947916666,152.37156212916668,60.0,56.0
598,151.34742897916666,153.1614942875,53.0,66.0
599,151.82376997916666,153.61004872916666,69.0,90.0
600,152.30011097916667,153.65371332083333,65.0,55.0
601,153.49096347916665,153.85814299999998,53.0,58.0
602,151.10925847916667,154.05066415416667,48.0,38.0
603,153.96730447916667,154.09234399166667,53.0,66.0
604,150.87108797916667,154.108222025,41.0,68.0
605,152.53828147916667,154.1141762875,60.0,66.0
606,153.72913397916668,154.6262428625,69.0,96.0
607,154.20547497916667,154.65005991249998,65.0,90.0
608,154.44364547916666,154.73937385,60.0,73.0
609,155.15815697916665,155.73770519583334,51.0,65.0
610,155.39632747916667,156.18427488333333,55.0,48.0
611,155.87266847916666,156.94642048333333,51.0,52.0
612,156.11083897916666,157.204438525,58.0,45.0
613,155.63449797916667,157.37512738333334,63.0,85.0
614,157.06352097916667,157.63116067083334,51.0,57.0
615,154.91998647916665,157.89910248333334,46.0,35.0
616,157.77803247916665,157.93085854999998,51.0,71.0
617,154.68181597916666,157.98841642083332,39.0,78.0
618,156.34900947916665,158.1035321625,55.0,72.0
619,158.01620297916665,158.4012452875,58.0,96.0
620,157.53986197916666,158.419108075,63.0,107.0
621,158.25437347916667,158.57590365416667,55.0,81.0
622,158.96888497916666,159.52461614583333,50.0,64.0
623,159.20705547916666,159.69332025,57.0,66.0
624,159.68339647916667,160.57058159166667,50.0,48.0
625,159.44522597916665,161.19577915416667,65.0,88.0
626,160.15973747916667,161.24142849999998,62.0,77.0
627,159.92156697916667,161.29898637083332,57.0,49.0
628,161.11241947916668,161.41807162083333,50.0,72.0
629,161.35058997916667,161.42204112916667,57.0,31.0
630,158.49254397916667,161.65624212083333,38.0,72.0
631,158.73071447916666,161.68601343333333,45.0,35.0
632,161.58876047916667,161.76738835416666,50.0,93.0
633,161.35058997916667,162.20403427083332,65.0,90.0
634,161.82693097916666,162.21792754999998,62.0,102.0
635,162.06510147916666,162.34495181666665,57.0,81.0
636,162.77961297916667,163.2599234875,51.0,69.0
637,163.01778347916667,163.468322675,55.0,73.0
638,162.54144247916668,163.50801775833332,46.0,26.0
639,162.30327197916665,163.57549939999998,39.0,85.0
640,163.49412447916666,163.67870661666666,51.0,67.0
641,163.73229497916665,164.17489515833333,58.0,53.0
642,163.97046547916665,164.1768799125,55.0,54.0
643,163.25595397916666,164.1768799125,63.0,99.0
644,164.68497697916666,165.20299781666665,53.0,72.0
645,164.44680647916667,165.45903110416666,48.0,58.0
646,164.20863597916667,165.52651274583332,41.0,67.0
647,164.92314747916666,165.68529307916666,57.0,76.0
648,165.16131797916665,166.12789325833333,65.0,93.0
649,165.63765897916667,166.13583227499998,60.0,66.0
650,166.35217047916666,167.4398157625,45.0,53.0
651,166.11399997916666,167.469587075,38.0,69.0
652,166.59034097916665,167.53309920833334,50.0,58.0
653,166.82851147916665,167.64424544166667,53.0,61.0
654,167.54302297916666,167.99753168333334,57.0,72.0
655,167.78119347916666,168.00944020833333,53.0,65.0
656,167.06668197916667,168.01936397916666,62.0,92.0
657,168.49570497916667,168.76364679166667,55.0,74.0
658,168.73387547916667,168.94425942083333,58.0,92.0
659,168.25753447916665,169.07922270416665,50.0,42.0
660,168.01936397916666,169.42655468333334,43.0,69.0
661,169.21021647916666,169.4404479625,50.0,73.0
662,168.97204597916667,169.85526158333332,62.0,99.0
663,169.44838697916666,169.90686519166667,55.0,82.0
664,169.92472797916668,169.94854502916667,39.0,88.0
665,169.68655747916665,169.94854502916667,58.0,66.0
666,170.63923947916666,171.3815375375,55.0,66.0
667,169.92472797916668,171.67726590833334,36.0,72.0
668,170.16289847916667,171.82413771666666,43.0,38.0
669,170.87740997916666,172.60613085833333,63.0,102.0
670,171.35375097916665,172.61208512083334,60.0,69.0
671,170.40106897916667,172.90979824583331,48.0,63.0
672,171.83009197916667,173.17575530416667,36.0,70.0
673,172.30643297916666,173.40797154166665,43.0,42.0
674,173.25911497916667,173.72950171666668,60.0,72.0
675,171.59192147916667,173.74736450416665,55.0,74.0
676,172.78277397916665,173.7691968,63.0,102.0
677,174.21179697916665,174.74768060416667,50.0,82.0
678,174.44996747916667,175.25776242499998,57.0,63.0
679,174.68813797916667,175.32127455833333,66.0,122.0
680,175.16447897916666,175.3411221,62.0,81.0
681,173.73545597916666,175.52768899166665,38.0,72.0
682,174.92630847916666,175.58921637083333,50.0,86.0
683,173.97362647916665,175.6447894875,45.0,54.0
684,175.40264947916666,176.15090179999999,57.0,99.0
685,175.40264947916666,176.18265786666666,62.0,99.0
686,175.40264947916666,176.18464262083333,66.0,107.0
687,176.35533147916667,176.49823377916667,66.0,96.0
688,176.35533147916667,176.51014230416666,57.0,78.0
689,176.35533147916667,176.51212705833333,62.0,89.0
690,176.11716097916667,176.662968375,50.0,86.0
691,175.64081997916665,177.0083156,38.0,90.0
692,175.87899047916667,177.05991920833333,45.0,69.0
693,176.59350197916666,177.12343134166667,62.0,127.0
694,176.83167247916666,177.448931025,50.0,102.0
695,177.06984297916665,177.51641266666667,57.0,112.0
696,177.30801347916668,177.53030594583333,62.0,102.0
697,176.59350197916666,177.568016275,66.0,127.0
698,178.02252497916666,178.29642105416667,55.0,97.0
699,177.78435447916667,178.63184450833333,50.0,71.0
700,178.26069547916666,178.73306697083333,62.0,102.0
701,178.73703647916665,178.90574058333334,50.0,82.0
702,177.54618397916667,178.97917648749998,43.0,89.0
703,179.21337747916667,179.306660925,62.0,95.0
704,178.49886597916665,179.48925830833332,70.0,127.0
705,178.97520697916667,179.89017865,67.0,88.0
706,179.92788897916665,180.473696375,50.0,79.0
707,180.16605947916665,180.62652244583333,62.0,88.0
708,179.45154797916666,180.7714095,38.0,72.0
709,179.68971847916666,180.82698261666667,45.0,56.0
710,180.64240047916667,180.85278442083333,50.0,93.0
711,180.88057097916666,181.25767427083332,65.0,99.0
712,180.40422997916667,181.2656132875,69.0,112.0
713,181.11874147916666,181.3370644375,62.0,81.0
714,181.35691197916665,181.9443992125,39.0,89.0
715,181.59508247916665,182.03172839583334,51.0,86.0
716,182.07142347916667,182.32348725833333,63.0,112.0
717,181.83325297916667,182.35722807916667,55.0,81.0
718,182.30959397916666,182.84746235833333,41.0,69.0
719,182.54776447916666,182.92883727916666,48.0,56.0
720,182.78593497916665,183.22059614166668,53.0,77.0
721,183.02410547916665,183.23845892916665,60.0,89.0
722,183.97678747916666,184.18121715833334,58.0,78.0
723,183.73861697916666,184.27648535833333,53.0,89.0
724,183.26227597916667,184.53847290833332,46.0,81.0
725,183.50044647916667,184.54442717083333,50.0,58.0
726,184.45312847916665,184.56030520416667,53.0,88.0
727,184.21495797916666,184.832216525,65.0,86.0
728,184.69129897916667,185.1835180125,58.0,96.0
729,184.92946947916667,185.19344178333333,62.0,86.0
730,185.64398097916666,186.2433767375,48.0,92.0
731,185.16763997916667,186.40414182499998,36.0,79.0
732,185.40581047916666,186.41208084166666,43.0,70.0
733,185.88215147916665,186.43391313749999,55.0,89.0
734,186.35849247916667,186.51330330416667,48.0,73.0
735,186.12032197916668,186.75345855833334,63.0,122.0
736,186.59666297916667,186.9936138125,60.0,96.0
737,186.83483347916666,187.0293393875,55.0,82.0
738,187.54934497916665,187.76965269166666,55.0,85.0
739,187.78751547916667,187.93835679583333,58.0,100.0
740,187.31117447916665,188.1249236875,50.0,66.0
741,188.26385647916666,188.36706369583334,50.0,90.0
742,187.07300397916666,188.39485025416667,43.0,69.0
743,188.02568597916667,188.85134371249998,62.0,97.0
744,188.50202697916666,188.8692065,58.0,102.0
745,188.74019747916665,189.14508732916667,55.0,92.0
746,189.45470897916667,189.96876030833332,51.0,99.0
747,189.69287947916666,190.22479359583332,55.0,81.0
748,189.21653847916667,190.32204654999998,46.0,85.0
749,190.16922047916665,190.33593982916665,51.0,102.0
750,188.97836797916665,190.405406225,39.0,90.0
751,189.93104997916666,190.75273820416666,63.0,127.0
752,190.40739097916665,190.75869246666667,58.0,112.0
753,190.64556147916667,190.93335083333332,55.0,97.0
754,191.59824347916665,191.75305430416665,66.0,97.0
755,191.59824347916665,191.76099332083334,62.0,95.0
756,191.36007297916666,191.89198709583331,50.0,99.0
757,190.88373197916667,192.22542579583333,38.0,95.0
758,191.12190247916666,192.24924284583332,45.0,96.0
759,192.07458447916667,192.32664825833334,50.0,102.0
760,191.83641397916665,192.37825186666666,62.0,102.0
761,191.83641397916665,192.76130942083333,66.0,122.0
762,192.31275497916667,192.77123319166665,57.0,99.0
763,192.55092547916666,192.78512647083332,62.0,100.0
764,193.50360747916667,193.72391519166666,58.0,102.0
765,193.02726647916666,193.7755188,50.0,90.0
766,193.26543697916665,193.9958265125,55.0,78.0
767,193.97994847916667,194.10697274583333,50.0,82.0
768,192.78909597916666,194.1149117625,43.0,90.0
769,193.74177797916667,194.621024075,62.0,107.0
770,194.21811897916666,194.62896309166666,58.0,102.0
771,194.45628947916666,194.65873440416667,55.0,88.0
772,195.17080097916667,195.74042542499998,50.0,92.0
773,194.69445997916665,195.95279412083332,38.0,81.0
774,194.93263047916665,195.978595925,45.0,72.0
775,195.88531247916666,196.0143215,50.0,92.0
776,195.40897147916667,196.08378789583332,57.0,97.0
777,196.12348297916665,196.51646430416667,62.0,97.0
778,195.64714197916666,196.52440332083333,65.0,97.0
779,196.36165347916665,196.65738185,57.0,97.0
780,197.07616497916666,197.55250597916665,51.0,92.0
781,196.83799447916667,197.76090516666667,46.0,37.0
782,197.31433547916666,197.80655451249999,55.0,76.0
783,196.59982397916667,197.860142875,39.0,88.0
784,197.79067647916665,198.01892320833332,51.0,90.0
785,197.55250597916665,198.35633141666665,63.0,112.0
786,198.02884697916667,198.52503552083334,58.0,82.0
787,198.26701747916667,198.53495929166667,55.0,88.0
788,199.21969947916665,199.4618394875,58.0,95.0
789,198.98152897916665,199.52932112916668,53.0,86.0
790,198.74335847916666,199.78535441666665,50.0,58.0
791,199.69604047916667,199.81314097499998,53.0,72.0
792,198.50518797916666,199.8409275333333,46.0,95.0
793,199.45786997916667,200.05925049166666,65.0,93.0
794,199.93421097916666,200.38673492916666,58.0,99.0
795,200.17238147916666,200.44826230833334,62.0,73.0
796,200.88689297916667,201.46048693333333,48.0,82.0
797,200.64872247916665,201.7304135,43.0,67.0
798,201.12506347916667,201.73835251666665,55.0,71.0
799,200.41055197916666,201.75820005833333,36.0,68.0
800,201.60140447916666,201.83560547083331,48.0,62.0
801,201.36323397916667,202.01423334583333,63.0,112.0
802,201.83957497916666,202.27820565,60.0,77.0
803,202.07774547916665,202.2960684375,55.0,89.0
804,202.79225697916667,203.0224884625,55.0,81.0
805,203.03042747916666,203.2547047,58.0,95.0
806,202.55408647916667,203.36982044166666,50.0,46.0
807,203.50676847916665,203.67944209166666,50.0,82.0
808,202.31591597916665,203.72310668333333,43.0,68.0
809,203.74493897916665,204.04463685833332,58.0,122.0
810,203.26859797916666,204.08036243333333,62.0,99.0
811,203.98310947916667,204.19150866666666,55.0,92.0
812,204.22127997916667,204.72739229166666,39.0,107.0
813,204.45945047916666,204.767087375,51.0,95.0
814,204.69762097916666,205.07869377916666,58.0,99.0
815,204.93579147916665,205.09655656666666,51.0,107.0
816,205.17396197916665,205.84282413333332,41.0,90.0
817,205.41213247916667,205.95198561249998,53.0,69.0
818,205.88847347916666,206.1127507,57.0,89.0
819,205.65030297916667,206.1127507,60.0,95.0
820,206.60298497916665,206.84115547916667,55.0,93.0
821,206.84115547916667,207.04955466666667,58.0,96.0
822,206.36481447916665,207.1607009,50.0,73.0
823,206.12664397916666,207.5953620625,43.0,82.0
824,207.31749647916666,207.60330107916667,50.0,95.0
825,207.07932597916667,207.84345633333334,62.0,95.0
826,207.55566697916666,207.87124289166667,58.0,102.0
827,207.79383747916665,207.92681600833333,55.0,86.0
828,208.03200797916665,208.45079110833333,64.0,93.0
829,208.03200797916665,208.46666914166667,60.0,96.0
830,208.03200797916665,208.60957144166667,55.0,92.0
831,208.03200797916665,208.71277865833332,48.0,102.0
832,208.74651947916666,209.316143925,66.0,117.0
833,208.74651947916666,209.32011343333332,62.0,99.0
834,208.74651947916666,209.34194572916667,57.0,99.0
835,208.74651947916666,209.697216725,50.0,100.0
836,209.46103097916665,209.91355492916665,62.0,107.0
837,209.46103097916665,209.93737197916667,66.0,122.0
838,210.41371297916666,210.68760905416667,55.0,97.0
839,210.17554247916667,211.02303250833333,50.0,71.0
840,210.65188347916666,211.12425497083333,62.0,102.0
841,211.12822447916665,211.29692858333334,50.0,82.0
842,209.93737197916667,211.37036448749998,43.0,89.0
843,211.60456547916667,211.697848925,62.0,95.0
844,210.89005397916665,211.88044630833332,70.0,127.0
845,211.36639497916667,212.28136665,67.0,88.0
846,212.31907697916665,212.864884375,50.0,79.0
847,212.55724747916665,213.01771044583333,62.0,88.0
848,211.84273597916666,213.1625975,38.0,72.0
849,212.08090647916666,213.21817061666667,45.0,56.0
850,213.03358847916667,213.24397242083333,50.0,93.0
851,213.27175897916666,213.64886227083332,65.0,99.0
852,212.79541797916667,213.6568012875,69.0,112.0
853,213.50992947916666,213.7282524375,62.0,81.0
854,213.74809997916665,214.3355872125,39.0,89.0
855,213.98627047916665,214.42291639583334,51.0,86.0
856,214.46261147916667,214.71467525833333,63.0,112.0
857,214.22444097916667,214.74841607916667,55.0,81.0
858,214.70078197916666,215.23865035833333,41.0,69.0
859,214.93895247916666,215.32002527916666,48.0,56.0
860,215.17712297916665,215.61178414166665,53.0,77.0
861,215.41529347916665,215.62964692916665,60.0,89.0
862,216.36797547916666,216.57240515833334,58.0,78.0
863,216.12980497916666,216.66767335833333,53.0,89.0
864,215.65346397916667,216.92966090833332,46.0,81.0
865,215.89163447916667,216.93561517083333,50.0,58.0
866,216.84431647916665,216.95149320416667,53.0,88.0
867,216.60614597916666,217.223404525,65.0,86.0
868,217.08248697916667,217.5747060125,58.0,96.0
869,217.32065747916667,217.58462978333333,62.0,86.0
870,218.03516897916666,218.6345647375,48.0,92.0
871,217.55882797916667,218.79532982499998,36.0,79.0
872,217.79699847916666,218.80326884166666,43.0,70.0
873,218.27333947916665,218.82510113749998,55.0,89.0
874,218.74968047916667,218.90449130416667,48.0,73.0
875,218.51150997916665,219.14464655833333,63.0,122.0
876,218.98785097916667,219.3848018125,60.0,96.0
877,219.22602147916666,219.4205273875,55.0,82.0
878,219.94053297916665,220.16084069166666,55.0,85.0
879,220.17870347916667,220.32954479583333,58.0,100.0
880,219.70236247916665,220.5161116875,50.0,66.0
881,220.65504447916666,220.75825169583334,50.0,90.0
882,219.46419197916666,220.78603825416667,43.0,69.0
883,220.41687397916667,221.24253171249998,62.0,97.0
884,220.89321497916666,221.2603945,58.0,102.0
885,221.13138547916665,221.53627532916667,55.0,92.0
886,221.84589697916667,222.35994830833332,51.0,99.0
887,222.08406747916666,222.61598159583332,55.0,81.0
888,221.60772647916667,222.71323454999998,46.0,85.0
889,222.56040847916665,222.72712782916665,51.0,102.0
890,221.36955597916665,222.796594225,39.0,90.0
891,222.32223797916666,223.14392620416666,63.0,127.0
892,222.79857897916665,223.14988046666667,58.0,112.0
893,223.03674947916667,223.32453883333332,55.0,97.0
894,223.98943147916665,224.14424230416665,66.0,97.0
895,223.98943147916665,224.15218132083334,62.0,95.0
896,223.75126097916666,224.28317509583331,50.0,99.0
897,223.27491997916667,224.61661379583333,38.0,95.0
898,223.51309047916666,224.64043084583332,45.0,96.0
899,224.46577247916667,224.71783625833334,50.0,102.0
900,224.22760197916665,224.76943986666666,62.0,102.0
901,224.22760197916665,225.15249742083333,66.0,122.0
902,224.70394297916667,225.16242119166665,57.0,99.0
903,224.94211347916666,225.17631447083332,62.0,100.0
904,225.89479547916665,226.11510319166666,58.0,102.0
905,225.41845447916666,226.1667068,50.0,90.0
906,225.65662497916665,226.3870145125,55.0,78.0
907,226.37113647916667,226.49816074583333,50.0,82.0
908,225.18028397916666,226.50609976249999,43.0,90.0
909,226.13296597916667,227.01221207499998,62.0,107.0
910,226.60930697916666,227.02015109166666,58.0,102.0
911,226.84747747916666,227.04992240416667,55.0,88.0
912,227.56198897916667,228.13161342499998,50.0,92.0
913,227.08564797916665,228.34398212083332,38.0,81.0
914,227.32381847916665,228.369783925,45.0,72.0
915,228.27650047916666,228.4055095,50.0,92.0
916,227.80015947916667,228.47497589583332,57.0,97.0
917,228.51467097916665,228.90765230416665,62.0,97.0
918,228.03832997916666,228.91559132083333,65.0,97.0
919,228.75284147916665,229.04856985,57.0,97.0
920,229.46735297916666,229.94369397916665,51.0,92.0
921,229.22918247916667,230.15209316666667,46.0,37.0
922,229.70552347916666,230.19774251249999,55.0,76.0
923,228.99101197916667,230.25133087499998,39.0,88.0
924,230.18186447916665,230.41011120833332,51.0,90.0
925,229.94369397916665,230.74751941666665,63.0,112.0
926,230.42003497916667,230.9162235208333,58.0,82.0
927,230.65820547916667,230.92614729166667,55.0,88.0
928,231.61088747916665,231.8530274875,58.0,95.0
929,231.37271697916665,231.92050912916665,53.0,86.0
930,231.13454647916666,232.17654241666665,50.0,58.0
931,232.08722847916667,232.20432897499998,53.0,72.0
932,230.89637597916666,232.2321155333333,46.0,95.0
933,231.84905797916667,232.45043849166666,65.0,93.0
934,232.32539897916666,232.77792292916666,58.0,99.0
935,232.56356947916666,232.83945030833334,62.0,73.0
936,233.27808097916667,233.85167493333333,48.0,82.0
937,233.03991047916665,234.1216015,43.0,67.0
938,233.51625147916667,234.12954051666665,55.0,71.0
939,232.80173997916665,234.14938805833333,36.0,68.0
940,233.99259247916666,234.22679347083331,48.0,62.0
941,233.75442197916666,234.40542134583333,63.0,112.0
942,234.23076297916666,234.66939365,60.0,77.0
943,234.46893347916665,234.6872564375,55.0,89.0
944,235.18344497916667,235.4136764625,55.0,81.0
945,235.42161547916666,235.6458927,58.0,95.0
946,234.94527447916667,235.76100844166666,50.0,46.0
947,235.89795647916665,236.07063009166666,50.0,82.0
948,234.70710397916665,236.11429468333333,43.0,68.0
949,236.13612697916665,236.43582485833332,58.0,122.0
950,235.65978597916666,236.47155043333333,62.0,99.0
951,236.37429747916667,236.58269666666666,55.0,92.0
952,236.61246797916667,237.11858029166666,39.0,107.0
953,236.85063847916666,237.158275375,51.0,95.0
954,237.08880897916666,237.46988177916666,58.0,99.0
955,237.32697947916665,237.48774456666666,51.0,107.0
956,237.56514997916665,238.23401213333332,41.0,90.0
957,237.80332047916667,238.34317361249998,53.0,69.0
958,238.27966147916666,238.5039387,57.0,89.0
959,238.04149097916667,238.5039387,60.0,95.0
960,239.47051397916667,239.89525137083334,55.0,52.0
961,239.47051397916667,239.91112940416667,70.0,97.0
962,239.47051397916667,240.04807744166666,67.0,90.0
963,239.94685497916666,240.25449187499999,62.0,83.0
964,238.51783197916666,240.31800400833333,43.0,95.0
965,238.99417297916665,240.349760075,50.0,58.0
966,240.42319597916665,241.24289944999998,69.0,63.0
967,240.42319597916665,241.2488537125,65.0,67.0
968,240.42319597916665,241.30442682916666,60.0,76.0
969,241.37587797916666,241.4751156875,60.0,40.0
970,241.37587797916666,241.96733472083332,69.0,70.0
971,241.85221897916665,242.09634374166666,60.0,57.0
972,240.42319597916665,242.16779489166666,43.0,44.0
973,241.37587797916666,242.20947472916666,65.0,76.0
974,242.3146667,243.06688852916665,67.0,81.0
975,242.32260571666666,243.06887328333332,62.0,83.0
976,242.31069719166666,243.12643115416665,70.0,86.0
977,243.25147066666665,243.76949150416667,70.0,71.0
978,242.31268194583333,243.77147625833334,38.0,60.0
979,243.26337919166667,243.86079019583332,62.0,64.0
980,243.26734869999999,243.9520888875,67.0,69.0
981,244.18628987916665,245.041718925,65.0,63.0
982,244.18430512499998,245.05164269583332,69.0,58.0
983,244.18033561666667,245.07942925416666,60.0,57.0
984,244.1902593875,245.49027336666666,41.0,37.0
985,245.1429413875,245.72248960416667,60.0,58.0
986,245.15088040416666,245.73439812916666,69.0,76.0
987,245.15286515833333,246.304022575,65.0,76.0
988,247.1316650625,247.54052442083332,57.0,69.0
989,247.34800326666667,247.5603719625,58.0,73.0
990,247.55044819166665,247.60999081666665,62.0,83.0
991,247.756862625,247.8938106625,67.0,96.0
992,247.95732279583333,248.1915237875,69.0,88.0
993,248.16572198333333,248.22327985416666,70.0,77.0
994,248.38404494166667,248.72343790416667,79.0,63.0
995,248.62420019583334,248.89214200833334,81.0,59.0
996,248.8703097125,248.92786758333332,82.0,66.0
997,250.01352811249998,250.64071042916666,94.0,47.0
998,246.60372045416665,250.6446799375,50.0,57.0
999,249.67413514999998,250.65460370833333,93.0,44.0
1000,249.3704677625,250.66254272499998,91.0,53.0
1001,246.89150980833332,250.66651223333332,55.0,81.0
1002,246.17501355416667,250.6903292833333,43.0,79.0
1003,249.0965716875,250.69429879166665,86.0,55.0
