,start,end,pitch,velocity
0,17.191533404166666,17.4979850375,51.0,90.0
1,17.514114070833333,17.745968925,56.0,93.0
2,17.8366947375,18.020162491666667,56.0,97.0
3,18.159275404166667,18.461694779166667,56.0,107.0
4,18.481856070833334,18.83669480416667,58.0,107.0
5,18.8044367375,19.04032385,59.0,107.0
6,19.12701740416667,19.75000131666667,59.0,127.0
7,20.094759404166666,20.399194908333335,59.0,127.0
8,20.417340070833333,20.71169492916667,58.0,99.0
9,20.7399207375,21.026211079166668,56.0,99.0
10,21.062501404166667,21.393146587500002,52.0,117.0
11,21.385082070833334,21.560485308333334,56.0,97.0
12,21.7076627375,21.881049845833335,56.0,97.0
13,22.03024340416667,22.298388583333335,56.0,99.0
14,22.352824070833336,22.6451628,58.0,107.0
15,22.675404737500003,22.90725959166667,59.0,102.0
16,22.997985404166666,23.723791904166667,59.0,117.0
17,24.93346940416667,25.254033941666666,54.0,95.0
18,25.256050070833336,25.473792020833333,58.0,83.0
19,25.578630737500003,25.768146879166668,58.0,78.0
20,25.901211404166666,26.1955662625,58.0,96.0
21,26.223792070833333,26.516130800000003,59.0,112.0
22,26.5463727375,26.7762114625,61.0,97.0
23,26.868953404166668,27.421372795833335,61.0,117.0
24,27.83669540416667,28.064518,61.0,97.0
25,28.159276070833336,28.39314705416667,59.0,112.0
26,28.481856737500003,28.7116954625,61.0,97.0
27,28.804437404166666,28.997985804166667,58.0,100.0
28,29.127018070833333,29.276211629166667,58.0,100.0
29,29.4495987375,29.6129052,58.0,112.0
30,29.772179404166668,30.193550400000003,58.0,99.0
31,30.417340737500002,30.760082695833336,56.0,95.0
32,30.73992140416667,31.61693759166667,58.0,97.0
33,32.3528247375,32.465727970833335,56.0,95.0
34,32.67540540416667,32.848792512500005,59.0,107.0
35,32.67540540416667,32.85685702916667,58.0,96.0
36,32.997986070833335,33.1995989875,59.0,122.0
37,33.3205667375,33.580647400000004,56.0,95.0
38,33.64314740416667,33.83064741666667,59.0,127.0
39,33.965728070833336,34.19959905416667,59.0,117.0
40,34.2883087375,34.55847004583333,56.0,97.0
41,34.61088940416667,34.83064748333334,59.0,112.0
42,34.93347007083334,35.05847007916667,61.0,122.0
43,35.256050737500004,35.9455669125,61.0,122.0
44,36.2237927375,36.36290565,58.0,117.0
45,36.2237927375,36.36492177916667,56.0,79.0
46,36.546373404166665,36.69153470416667,58.0,100.0
47,36.86895407083333,36.98185730416667,58.0,107.0
48,37.1915347375,37.294357325,56.0,99.0
49,37.51411540416667,37.687502512500004,58.0,117.0
50,37.836696070833334,37.98588962916667,58.0,122.0
51,38.1592767375,38.429438045833336,56.0,96.0
52,38.48185740416667,38.653228383333335,58.0,117.0
53,38.804438070833335,38.88709936666667,59.0,127.0
54,39.1270187375,39.44959940416667,58.0,107.0
55,39.44959940416667,39.695567162500005,56.0,85.0
56,40.0947607375,40.16330912916667,59.0,127.0
57,40.41734140416667,40.625002708333334,58.0,117.0
58,40.73992207083334,40.8931478875,58.0,100.0
59,41.062502737500004,41.262099525,56.0,93.0
60,41.38508340416667,41.6310511625,58.0,127.0
61,42.0302447375,42.24395442916667,59.0,99.0
62,42.352825404166666,42.75201897916667,61.0,102.0
63,42.9979867375,43.088712550000004,59.0,117.0
64,43.32056740416667,43.58669645416667,58.0,107.0
65,43.643148070833334,43.76411582083333,56.0,95.0
66,43.9657287375,44.0625029375,56.0,100.0
67,44.28830940416667,45.03226106666667,58.0,117.0
68,45.9012127375,46.19556759583334,56.0,93.0
69,46.22379340416667,47.322583800000004,55.0,93.0
70,48.159277404166666,48.465729037500004,51.0,90.0
71,48.48185807083333,48.713712925,56.0,93.0
72,48.8044387375,48.98790649166667,56.0,97.0
73,49.12701940416667,49.42943877916667,56.0,107.0
74,49.449600070833334,49.80443880416667,58.0,107.0
75,49.7721807375,50.00806785,59.0,107.0
76,50.09476140416667,50.71774531666667,59.0,127.0
77,51.06250340416667,51.36693890833334,59.0,127.0
78,51.38508407083334,51.67943892916667,58.0,99.0
79,51.707664737500004,51.99395507916667,56.0,99.0
80,52.03024540416667,52.3608905875,52.0,117.0
81,52.35282607083334,52.52822930833334,56.0,97.0
82,52.675406737500005,52.848793845833335,56.0,97.0
83,52.99798740416667,53.26613258333334,56.0,99.0
84,53.32056807083334,53.612906800000005,58.0,107.0
85,53.643148737500006,53.87500359166667,59.0,102.0
86,53.965729404166666,55.90121340416667,59.0,117.0
87,55.90121340416667,56.221777941666666,54.0,95.0
88,56.223794070833335,56.44153602083333,58.0,83.0
89,56.5463747375,56.73589087916667,58.0,78.0
90,56.86895540416667,57.163310262500005,58.0,96.0
91,57.19153607083334,57.4838748,59.0,112.0
92,57.514116737500004,57.743955462500004,61.0,97.0
93,57.83669740416667,58.38911679583334,61.0,117.0
94,58.481858737500005,58.73185875416667,63.0,97.0
95,58.80443940416667,59.090729745833336,64.0,122.0
96,59.12702007083334,59.35484266666667,61.0,96.0
97,59.449600737500006,59.6915362375,61.0,96.0
98,59.772181404166666,60.55242339166667,63.0,107.0
99,63.320568737500004,63.429439712500006,61.0,100.0
100,63.48185907083334,63.616939725,63.0,96.0
101,63.64314940416667,63.95766555416667,64.0,122.0
102,63.96573007083334,64.11089137083334,64.0,122.0
103,64.2883107375,64.45968171666667,63.0,122.0
104,64.61089140416667,65.0262140125,64.0,127.0
105,65.2560527375,65.5221817875,63.0,127.0
106,65.57863340416667,66.36089152083333,61.0,100.0
107,67.1915367375,67.3246012625,59.0,122.0
108,67.35282707083334,67.49798837083334,61.0,96.0
109,67.51411740416667,67.68347225416667,63.0,122.0
110,67.83669807083334,68.00403679166666,63.0,127.0
111,68.1592787375,68.32661745833333,61.0,97.0
112,68.48185940416667,68.77823039166667,63.0,127.0
113,69.1270207375,69.27419816666666,61.0,99.0
114,69.44960140416667,69.79032723333334,61.0,117.0
115,69.77218207083334,70.66734342083333,59.0,122.0
116,71.0625047375,71.37298862916667,59.0,122.0
117,71.38508540416667,71.58468219166667,58.0,99.0
118,71.70766607083334,71.9032306,58.0,107.0
119,72.03024673750001,72.29234352916667,56.0,93.0
120,72.35282740416667,72.6713758125,58.0,112.0
121,72.99798873750001,73.11694035833334,59.0,127.0
122,73.32056940416668,73.7237952375,61.0,122.0
123,73.96573073750001,74.20363397916667,59.0,127.0
124,74.28831140416668,74.60887594166667,58.0,127.0
125,74.61089207083333,74.85685982916667,61.0,127.0
126,74.9334727375,75.11089210416667,63.0,112.0
127,75.25605340416666,77.16129546666667,63.0,122.0
128,78.15927940416667,78.37702135416667,56.0,112.0
129,78.48186007083333,78.71774718333334,68.0,102.0
130,78.8044407375,79.07460204583333,63.0,112.0
131,79.12702140416667,79.33468270833333,64.0,127.0
132,79.44960207083334,79.62298917916667,64.0,122.0
133,79.7721827375,79.93347307083334,63.0,112.0
134,80.09476340416667,80.262102125,64.0,127.0
135,80.7399247375,80.87702152083334,63.0,122.0
136,81.06250540416667,81.58468285833334,64.0,127.0
137,82.03024740416667,82.17339257500001,54.0,112.0
138,82.35282807083334,82.52016679166667,66.0,107.0
139,82.6754087375,82.8568603625,61.0,112.0
140,82.99798940416667,83.25202167916667,64.0,127.0
141,83.32057007083334,83.44960233750001,63.0,102.0
142,83.64315073750001,83.78226365,63.0,112.0
143,83.96573140416668,84.15121528750001,63.0,127.0
144,84.61089273750001,84.8770217875,61.0,102.0
145,84.93347340416668,85.15121535416667,63.0,117.0
146,85.25605407083334,85.71371539166667,63.0,112.0
147,85.90121540416668,86.09677993333334,64.0,122.0
148,86.22379607083333,86.39113479166667,63.0,107.0
149,86.5463767375,86.74798965416667,59.0,127.0
150,86.86895740416666,87.14516710000001,61.0,112.0
151,87.83669940416667,88.05645748333333,64.0,127.0
152,88.15928007083333,88.41936073333333,63.0,112.0
153,88.4818607375,88.76815107916667,59.0,102.0
154,88.80444140416667,89.10887690833334,58.0,122.0
155,89.77218340416667,89.9455705125,56.0,99.0
156,90.09476407083334,90.26411892083334,58.0,117.0
157,90.4173447375,90.57258668333334,59.0,127.0
158,90.73992540416667,91.12298994583334,61.0,127.0
159,91.3850867375,91.6270222375,59.0,117.0
160,91.70766740416667,92.21573195416667,61.0,102.0
161,92.3528287375,92.58065133333334,63.0,127.0
162,92.67540940416667,93.254038475,63.0,127.0
163,93.64315140416667,93.86089335416668,56.0,112.0
164,93.96573207083334,94.20161918333334,68.0,102.0
165,94.28831273750001,94.55847404583334,63.0,112.0
166,94.61694179166668,94.82460309583334,64.0,127.0
167,94.93952245833334,95.11290956666667,64.0,122.0
168,95.26210312500001,95.42339345833334,63.0,112.0
169,95.58468379166668,95.7520225125,64.0,127.0
170,96.22984512500001,96.36694190833333,63.0,122.0
171,96.55242579166668,97.07460324583334,64.0,127.0
172,97.52016779166667,97.74799038750001,71.0,127.0
173,97.84274845833333,98.06653879583334,70.0,117.0
174,98.165329125,98.45968398333333,68.0,127.0
175,98.48790979166667,98.74194206666667,64.0,127.0
176,98.81049045833333,98.939522725,63.0,102.0
177,99.133071125,99.27218403750001,63.0,112.0
178,99.45565179166667,99.641135675,63.0,127.0
179,99.77823245833333,100.02016795833333,63.0,107.0
180,100.100813125,100.35081314166668,70.0,127.0
181,100.42339379166667,101.19355513333333,68.0,102.0
182,101.38508740416667,101.58065193333334,64.0,122.0
183,101.70766807083334,101.87500679166668,63.0,107.0
184,102.0302487375,102.23186165416668,59.0,127.0
185,102.35282940416667,102.6290391,61.0,112.0
186,103.32057140416667,103.54032948333334,64.0,127.0
187,103.64315207083334,103.90323273333334,63.0,112.0
188,103.9657327375,104.25202307916668,59.0,102.0
189,104.28831340416667,104.59274890833333,58.0,122.0
190,105.25605540416667,105.38911992916667,59.0,127.0
191,105.57863607083334,105.7923457625,59.0,122.0
192,105.90121673750001,106.06855545833334,58.0,107.0
193,106.22379740416667,107.52420071666667,58.0,117.0
194,107.83670073750001,108.1028297875,56.0,82.0
195,108.15928140416668,109.47782987916668,56.0,95.0
196,110.09476540416667,110.4012170375,51.0,90.0
197,110.41734607083333,110.649200925,56.0,93.0
198,110.7399267375,110.92339449166667,56.0,97.0
199,111.06250740416667,111.36492677916667,56.0,107.0
200,111.38508807083333,111.73992680416667,58.0,107.0
201,111.7076687375,111.94355585000001,59.0,107.0
202,112.03024940416667,112.65323331666667,59.0,127.0
203,112.99799140416667,113.30242690833335,59.0,127.0
204,113.32057207083334,113.61492692916667,58.0,99.0
205,113.6431527375,113.92944307916667,56.0,99.0
206,113.96573340416667,114.2963785875,52.0,117.0
207,114.28831407083334,114.46371730833334,56.0,97.0
208,114.6108947375,114.78428184583333,56.0,97.0
209,114.93347540416667,115.20162058333334,56.0,99.0
210,115.25605607083334,115.54839480000001,58.0,107.0
211,115.5786367375,115.81049159166668,59.0,102.0
212,115.90121740416667,117.83670140416667,59.0,117.0
213,117.83670140416667,118.15726594166667,54.0,95.0
214,118.15928207083334,118.37702402083333,58.0,83.0
215,118.48186273750001,118.67137887916667,58.0,78.0
216,118.80444340416668,119.09879826250001,58.0,96.0
217,119.12702407083334,119.4193628,59.0,112.0
218,119.44960473750001,119.6794434625,61.0,97.0
219,119.77218540416668,120.32460479583334,61.0,117.0
220,120.73992740416668,121.02621774583334,64.0,122.0
221,121.06250807083335,121.29033066666668,61.0,96.0
222,121.38508873750001,121.62702423750001,61.0,96.0
223,121.70766940416667,123.0665404625,63.0,107.0
224,123.3205727375,123.46775016666668,61.0,90.0
225,123.48186307083334,123.63710501666667,59.0,82.0
226,123.64315340416667,123.79436309166667,61.0,90.0
227,123.80444373750001,124.73387928333334,59.0,97.0
228,125.2560567375,125.3649277125,61.0,100.0
229,125.41734707083334,125.552427725,63.0,96.0
230,125.57863740416667,125.89315355416667,64.0,122.0
231,125.90121807083334,126.04637937083334,64.0,122.0
232,126.2237987375,126.39516971666667,63.0,122.0
233,126.54637940416667,126.96170201250001,64.0,127.0
234,127.1915407375,127.45766978750001,63.0,127.0
235,127.51412140416667,128.29637952083334,61.0,100.0
236,129.1270247375,129.2600892625,59.0,122.0
237,129.26815377916668,129.41331507916667,61.0,96.0
238,129.4294441125,129.5987989625,63.0,122.0
239,129.77218607083333,129.93952479166668,63.0,127.0
240,130.0947667375,130.26210545833334,61.0,97.0
241,130.41734740416666,130.71371839166667,63.0,127.0
242,131.0625087375,131.20968616666667,61.0,99.0
243,131.38508940416668,131.72581523333335,61.0,117.0
244,131.70767007083333,132.60283142083333,59.0,122.0
245,132.9979927375,133.30847662916668,59.0,122.0
246,133.32057340416668,133.52017019166667,58.0,99.0
247,133.64315407083333,133.8387186,58.0,107.0
248,133.96573473750001,134.22783152916668,56.0,93.0
249,134.28831540416667,134.6068638125,58.0,112.0
250,134.9334767375,135.05242835833334,59.0,127.0
251,135.25605740416668,135.6592832375,61.0,122.0
252,135.90121873750002,136.13912197916667,59.0,127.0
253,136.22379940416667,136.54436394166666,58.0,127.0
254,136.54638007083335,136.7923478291667,61.0,127.0
255,136.8689607375,137.04638010416667,63.0,112.0
256,137.19154140416668,138.15928340416667,63.0,122.0
257,138.8044447375,139.01210604166667,64.0,112.0
258,139.1270254041667,139.40121897083333,64.0,127.0
259,139.44960607083334,139.89718674583335,63.0,96.0
260,140.09476740416667,140.31250935416668,56.0,112.0
261,140.41734807083333,140.65323518333335,68.0,102.0
262,140.7399287375,141.01009004583335,63.0,112.0
263,141.06250940416666,141.27017070833335,64.0,127.0
264,141.38509007083334,141.5584771791667,64.0,122.0
265,141.7076707375,141.86896107083334,63.0,112.0
266,142.03025140416668,142.197590125,64.0,127.0
267,142.6754127375,142.81250952083334,63.0,122.0
268,142.99799340416666,143.52017085833333,64.0,127.0
269,143.96573540416668,144.108880575,54.0,112.0
270,144.28831607083333,144.45565479166666,66.0,107.0
271,144.6108967375,144.7923483625,61.0,112.0
272,144.93347740416667,145.18750967916668,64.0,127.0
273,145.25605807083335,145.3850903375,63.0,102.0
274,145.5786387375,145.71775165,63.0,112.0
275,145.90121940416668,146.0867032875,63.0,127.0
276,146.54638073750002,146.8125097875,61.0,102.0
277,146.86896140416667,147.08670335416667,63.0,117.0
278,147.19154207083335,147.64920339166667,63.0,112.0
279,147.83670340416668,148.03226793333334,64.0,122.0
280,148.15928407083334,148.32662279166667,63.0,107.0
281,148.48186473750002,148.68347765416667,59.0,127.0
282,148.80444540416667,149.0806551,61.0,112.0
283,149.7721874041667,149.99194548333335,64.0,127.0
284,150.09476807083334,150.35484873333334,63.0,112.0
285,150.41734873750002,150.70363907916666,59.0,102.0
286,150.73992940416667,151.04436490833334,58.0,122.0
287,151.70767140416666,151.8810585125,56.0,99.0
288,152.03025207083334,152.19960692083333,58.0,117.0
289,152.3528327375,152.50807468333335,59.0,127.0
290,152.67541340416668,153.05847794583335,61.0,127.0
291,153.3205747375,153.56251023750002,59.0,117.0
292,153.64315540416666,154.15121995416666,61.0,102.0
293,154.2883167375,154.51613933333334,63.0,127.0
294,154.61089740416668,155.189526475,63.0,127.0
295,155.57863940416667,155.79638135416667,56.0,112.0
296,155.90122007083335,156.13710718333334,68.0,102.0
297,156.2238007375,156.49396204583334,63.0,112.0
298,156.54638140416668,156.75404270833334,64.0,127.0
299,156.86896207083333,157.04234917916668,64.0,122.0
300,157.19154273750001,157.35283307083333,63.0,112.0
301,157.51412340416667,157.681462125,64.0,127.0
302,158.1592847375,158.29638152083334,63.0,122.0
303,158.48186540416668,159.00404285833335,64.0,127.0
304,159.44960740416667,159.67743000000002,71.0,127.0
305,159.77218807083335,159.99597840833334,70.0,117.0
306,160.0947687375,160.38912359583335,68.0,127.0
307,160.41734940416669,160.67138167916667,64.0,127.0
308,160.73993007083334,160.8689623375,63.0,102.0
309,161.06251073750002,161.20162365000002,63.0,112.0
310,161.38509140416667,161.57057528750002,63.0,127.0
311,161.70767207083335,161.94960757083334,63.0,107.0
312,162.0302527375,162.28025275416667,70.0,127.0
313,162.3528334041667,163.12299474583335,68.0,102.0
314,163.32057540416668,163.51613993333333,64.0,122.0
315,163.64315607083333,163.81049479166668,63.0,107.0
316,163.9657367375,164.16734965416669,59.0,127.0
317,164.28831740416666,164.56452710000002,61.0,112.0
318,165.25605940416668,165.47581748333334,64.0,127.0
319,165.57864007083333,165.83872073333333,63.0,112.0
320,165.9012207375,166.18751107916668,59.0,102.0
321,166.22380140416666,166.52823690833335,58.0,122.0
322,167.19154340416668,167.3246079291667,59.0,127.0
323,167.51412407083333,167.7278337625,59.0,122.0
324,167.8367047375,168.00404345833334,58.0,107.0
325,168.15928540416667,169.45968871666668,58.0,117.0
326,169.77218873750002,170.0383177875,56.0,82.0
327,170.09476940416667,171.41331787916667,56.0,95.0
328,186.5746092125,187.41936733333335,63.0,122.0
329,187.51412540416666,187.72178670833335,64.0,127.0
330,187.83670607083334,188.0100931791667,64.0,122.0
331,188.1592867375,188.32057707083334,63.0,112.0
332,188.48186740416668,188.649206125,64.0,127.0
333,189.1270287375,189.26412552083335,63.0,122.0
334,189.44960940416667,189.97178685833333,64.0,127.0
335,190.41735140416668,190.560496575,54.0,112.0
336,190.73993207083333,190.9072707916667,66.0,107.0
337,191.06251273750001,191.2439643625,61.0,112.0
338,191.38509340416667,191.63912567916668,64.0,127.0
339,191.70767407083335,191.8367063375,63.0,102.0
340,192.0302547375,192.16936765,63.0,112.0
341,192.35283540416668,192.5383192875,63.0,127.0
342,192.99799673750002,193.2641257875,61.0,102.0
343,193.32057740416667,193.53831935416667,63.0,117.0
344,193.64315807083335,194.10081939166668,63.0,112.0
345,194.28831940416669,194.48388393333335,64.0,122.0
346,194.61090007083334,194.77823879166667,63.0,107.0
347,194.93348073750002,195.13509365416667,59.0,127.0
348,195.25606140416667,195.5322711,61.0,112.0
349,196.2238034041667,196.44356148333335,64.0,127.0
350,196.54638407083334,196.80646473333334,63.0,112.0
351,196.86896473750002,197.15525507916666,59.0,102.0
352,197.19154540416667,197.49598090833334,58.0,122.0
353,198.1592874041667,198.3326745125,56.0,99.0
354,198.48186807083334,198.65122292083333,58.0,117.0
355,198.8044487375,198.95969068333335,59.0,127.0
356,199.12702940416668,199.51009394583335,61.0,127.0
357,199.7721907375,200.01412623750002,59.0,117.0
358,200.09477140416666,200.60283595416666,61.0,102.0
359,200.7399327375,200.96775533333334,63.0,127.0
360,201.06251340416668,201.641142475,63.0,127.0
361,202.03025540416667,202.24799735416667,56.0,112.0
362,202.35283607083335,202.58872318333334,68.0,102.0
363,202.6754167375,202.94557804583334,63.0,112.0
364,202.99799740416668,203.20565870833335,64.0,127.0
365,203.32057807083334,203.49396517916668,64.0,122.0
366,203.64315873750002,203.80444907083336,63.0,112.0
367,203.96573940416667,204.133078125,64.0,127.0
368,204.6109007375,204.74799752083334,63.0,122.0
369,204.93348140416668,205.45565885833335,64.0,127.0
370,205.90122340416667,206.12904600000002,71.0,127.0
371,206.22380407083335,206.44759440833334,70.0,117.0
372,206.5463847375,206.84073959583336,68.0,127.0
373,206.8689654041667,207.12299767916667,64.0,127.0
374,207.19154607083334,207.32057833750002,63.0,102.0
375,207.51412673750002,207.65323965000002,63.0,112.0
376,207.83670740416667,208.02219128750002,63.0,127.0
377,208.15928807083336,208.40122357083334,63.0,107.0
378,208.4818687375,208.73186875416667,70.0,127.0
379,208.8044494041667,209.57461074583335,68.0,102.0
380,209.77219140416668,209.96775593333334,64.0,122.0
381,210.09477207083333,210.2621107916667,63.0,107.0
382,210.4173527375,210.6189656541667,59.0,127.0
383,210.73993340416666,211.01614310000002,61.0,112.0
384,211.70767540416668,211.92743348333335,64.0,127.0
385,212.03025607083333,212.29033673333333,63.0,112.0
386,212.3528367375,212.63912707916668,59.0,102.0
387,212.67541740416667,212.97985290833336,58.0,122.0
388,213.64315940416668,213.7762239291667,59.0,127.0
389,213.96574007083333,214.1794497625,59.0,122.0
390,214.28832073750002,214.45565945833334,58.0,107.0
391,214.61090140416667,215.91130471666668,58.0,117.0
392,216.22380473750002,216.4899337875,56.0,82.0
393,216.54638540416667,217.86493387916667,56.0,95.0
394,220.4032405,220.70969213333333,63.0,97.0
395,220.7238050375,220.94759537500002,68.0,85.0
396,221.04235344583336,221.24195023333334,68.0,83.0
397,221.3528373375,221.70565994166668,68.0,95.0
398,221.68146639166667,222.02824060833333,70.0,100.0
399,222.0000148,222.20767610416667,71.0,102.0
400,222.31856320833333,223.18146649166667,71.0,117.0
401,223.2641277875,223.4939665125,71.0,127.0
402,223.6028374875,223.88711170000002,70.0,100.0
403,223.92138589583334,224.20364397916669,68.0,92.0
404,224.27420850000001,224.55646658333333,64.0,102.0
405,224.58670852083335,224.81654724583333,68.0,95.0
406,224.92340209166667,225.14719242916667,68.0,100.0
407,225.26009566250002,225.60082149166666,68.0,107.0
408,225.55243439166668,225.84275699166668,70.0,107.0
409,225.87299892916667,226.0947731375,71.0,100.0
410,226.21775701666667,227.5221925875,71.0,122.0
411,228.13711198333334,228.45767652083333,66.0,99.0
412,228.46775716666667,228.689531375,70.0,93.0
413,228.79437009166668,228.98993462083334,70.0,95.0
414,229.12098301666668,229.39517658333335,70.0,112.0
415,229.4354991666667,229.67138627916668,71.0,107.0
416,229.74396692916667,229.9415475875,73.0,107.0
417,230.07057985416668,230.73993473750002,73.0,117.0
418,231.01009604583334,231.17138637916668,73.0,112.0
419,231.37501542500002,231.58267672916668,71.0,102.0
420,231.68953157500002,231.9334832041667,73.0,97.0
421,232.02622514583334,232.23791870833335,70.0,100.0
422,232.3548542,232.53428969583334,70.0,96.0
423,232.67945099583335,232.84678971666668,70.0,99.0
424,233.02017682500002,233.56856395833336,70.0,117.0
425,233.61291880000002,233.77824139166668,68.0,100.0
426,234.09477367083335,236.29235446250001,70.0,122.0
