,start,end,pitch,velocity
0,1.7076614041666667,2.8548389000000003,37.0,83.0
1,2.0302420708333333,2.8911292250000002,44.0,55.0
2,2.3528227375,3.1008066583333336,49.0,72.0
3,2.675403404166667,3.673387341666667,64.0,99.0
4,2.9979840708333336,3.7721776708333334,61.0,54.0
5,4.2883067375,4.822580966666667,54.0,81.0
6,3.643145404166667,5.215726154166667,42.0,78.0
7,3.9657260708333335,5.229839058333334,49.0,49.0
8,4.933468070833333,5.3245971291666665,54.0,36.0
9,4.610887404166667,5.5866939208333335,66.0,90.0
10,5.2560487375000005,5.614919729166667,61.0,66.0
11,6.2237907375,6.717742383333333,54.0,81.0
12,5.901210070833334,6.9737907875000005,51.0,65.0
13,6.868952070833334,6.979839175,54.0,64.0
14,5.578629404166667,6.9979843375,47.0,93.0
15,6.546371404166667,7.512097275,66.0,70.0
16,7.1915327375,7.647177929166667,59.0,75.0
17,7.8366940708333335,8.881048979166668,47.0,62.0
18,8.1592747375,8.895161883333333,52.0,65.0
19,7.514113404166667,9.008065116666668,40.0,82.0
20,9.1270167375,9.469758695833335,59.0,52.0
21,8.481855404166668,9.546371604166668,64.0,95.0
22,10.094758737500001,10.600807158333334,49.0,96.0
23,10.739920070833334,10.9294362125,49.0,72.0
24,9.449597404166667,11.1955652625,37.0,72.0
25,9.772178070833334,11.3225814,44.0,53.0
26,10.417339404166666,11.350807208333334,64.0,117.0
27,11.0625007375,11.391129791666668,61.0,89.0
28,12.0302427375,12.504033091666667,51.0,92.0
29,11.385081404166668,12.836694404166668,39.0,79.0
30,11.707662070833335,12.848791179166668,46.0,59.0
31,12.675404070833334,13.050404095833334,51.0,75.0
32,12.997984737500001,13.381049279166668,63.0,73.0
33,12.352823404166667,13.395162183333333,66.0,100.0
34,13.9657267375,14.4133074125,56.0,71.0
35,14.610888070833335,14.856855829166667,56.0,61.0
36,14.288307404166668,14.983871966666667,58.0,89.0
37,13.320565404166667,15.120968750000001,44.0,69.0
38,13.643146070833334,15.280242954166667,51.0,52.0
39,15.256049404166667,16.875001125,44.0,66.0
40,15.256049404166667,16.975807583333335,56.0,66.0
41,14.9334687375,17.004033391666667,59.0,93.0
42,15.256049404166667,17.020162425000002,63.0,57.0
43,17.8366947375,18.223791537500002,56.0,78.0
44,17.514114070833333,18.2903238,51.0,52.0
45,17.191533404166666,19.006049654166667,44.0,78.0
46,18.481856070833334,19.0947593375,51.0,50.0
47,18.8044367375,19.181452891666666,59.0,65.0
48,18.159275404166667,19.2096787,63.0,100.0
49,19.772178737500003,20.086694887500002,56.0,72.0
50,19.449598070833336,20.225807800000002,51.0,38.0
51,20.417340070833333,20.52419491666667,51.0,53.0
52,19.12701740416667,20.578630404166667,44.0,74.0
53,20.094759404166666,21.046372370833335,71.0,107.0
54,20.094759404166666,21.05645301666667,68.0,90.0
55,20.7399207375,21.1451627,63.0,77.0
56,21.7076627375,22.18145309166667,49.0,69.0
57,22.03024340416667,22.479840208333336,52.0,63.0
58,22.352824070833336,22.635082154166668,49.0,70.0
59,21.062501404166667,22.84072732916667,37.0,69.0
60,22.03024340416667,22.897178945833335,56.0,68.0
61,22.675404737500003,22.9173402375,52.0,78.0
62,21.385082070833334,22.989920887500002,44.0,54.0
63,23.6431467375,24.058469345833334,49.0,67.0
64,23.320566070833333,24.0907274125,44.0,50.0
65,22.997985404166666,24.116937091666667,37.0,70.0
66,23.965727404166667,24.935485533333335,61.0,85.0
67,23.965727404166667,24.947582308333335,64.0,92.0
68,24.6108887375,24.987904891666666,56.0,71.0
69,25.578630737500003,26.01008237916667,54.0,88.0
70,26.223792070833333,26.441534020833334,54.0,75.0
71,24.93346940416667,26.725808233333336,42.0,77.0
72,25.256050070833336,26.856856629166668,49.0,66.0
73,25.901211404166666,27.675405070833335,66.0,86.0
74,25.901211404166666,27.735888945833334,61.0,85.0
75,26.5463727375,27.802421208333335,58.0,79.0
76,26.868953404166668,28.3245986625,42.0,85.0
77,27.5141147375,28.334679308333335,49.0,59.0
78,28.159276070833336,28.491937383333333,54.0,65.0
79,27.83669540416667,28.727824495833335,66.0,92.0
80,27.83669540416667,28.760082562500003,61.0,77.0
81,28.481856737500003,28.836695470833334,58.0,83.0
82,29.4495987375,29.788308437500003,54.0,67.0
83,30.094760070833335,30.532260100000002,54.0,67.0
84,28.804437404166666,30.55645365,47.0,95.0
85,29.127018070833333,30.643147204166667,51.0,38.0
86,30.417340737500002,30.747985920833333,58.0,53.0
87,29.772179404166668,31.409276287500003,66.0,77.0
88,29.772179404166668,31.437502095833334,63.0,92.0
89,29.772179404166668,31.5665343625,59.0,112.0
90,31.385082737500003,31.758066633333335,54.0,75.0
91,31.062502070833336,31.814518250000003,51.0,56.0
92,30.73992140416667,31.862905350000002,47.0,88.0
93,31.707663404166667,32.34879247916667,66.0,97.0
94,32.030244070833334,32.70161508333334,63.0,76.0
95,32.3528247375,32.72580863333334,59.0,79.0
96,33.3205667375,33.76613128333334,49.0,73.0
97,33.965728070833336,34.2096797,49.0,81.0
98,32.67540540416667,34.512099075,37.0,77.0
99,32.997986070833335,34.6270184375,44.0,50.0
100,33.64314740416667,35.39113139166667,64.0,96.0
101,33.64314740416667,35.4012120375,61.0,83.0
102,35.256050737500004,35.760083029166665,49.0,75.0
103,34.61088940416667,35.98387336666667,37.0,74.0
104,34.93347007083334,36.00201852916667,44.0,48.0
105,35.90121207083334,36.118954020833336,49.0,69.0
106,35.57863140416667,36.4778250125,64.0,127.0
107,34.2883087375,36.493954045833334,56.0,81.0
108,36.2237927375,36.55443792083334,61.0,99.0
109,37.1915347375,37.6270186375,56.0,90.0
110,36.86895407083333,37.685486383333334,51.0,42.0
111,36.546373404166665,38.3407283625,44.0,73.0
112,37.836696070833334,38.45766385416667,51.0,69.0
113,38.1592767375,38.5100832125,58.0,83.0
114,37.51411540416667,38.56653482916667,59.0,112.0
115,39.1270187375,39.5322607,56.0,82.0
116,39.772180070833336,40.177422033333336,61.0,83.0
117,38.48185740416667,40.21371235833333,44.0,76.0
118,39.44959940416667,40.26814784583333,63.0,97.0
119,38.804438070833335,40.36895430416667,51.0,57.0
120,40.0947607375,40.4213736625,59.0,92.0
121,41.062502737500004,41.439518891666665,61.0,97.0
122,40.73992207083334,41.5826640625,58.0,75.0
123,40.41734140416667,42.26209959166667,46.0,74.0
124,42.0302447375,42.77822865833333,58.0,79.0
125,41.70766407083334,43.028228675,61.0,86.0
126,41.38508340416667,43.052422225,64.0,112.0
127,42.67540607083333,43.35887385833333,52.0,71.0
128,42.352825404166666,43.524196450000005,46.0,72.0
129,42.9979867375,43.657260975,58.0,83.0
130,43.32056740416667,44.21169649583334,64.0,100.0
131,43.643148070833334,44.28830940416667,61.0,89.0
132,43.9657287375,44.31855134166667,58.0,79.0
133,44.9334707375,45.39113205833333,51.0,77.0
134,44.610890070833335,45.41129335,46.0,54.0
135,45.25605140416667,45.91532564166667,55.0,102.0
136,44.28830940416667,46.100809525,39.0,76.0
137,45.9012127375,46.18750307916667,58.0,86.0
138,45.578632070833336,46.21169662916667,46.0,71.0
139,46.22379340416667,47.03024507083334,58.0,79.0
140,46.22379340416667,47.068551525000004,55.0,79.0
141,46.22379340416667,47.9939548125,39.0,86.0
142,47.51411607083334,48.004035458333334,46.0,53.0
143,47.836696737500006,48.20766450416667,55.0,58.0
144,46.22379340416667,48.22177740833334,51.0,83.0
145,47.19153540416667,48.288309670833335,58.0,96.0
146,48.8044387375,49.1915355375,56.0,78.0
147,48.48185807083333,49.2580678,51.0,52.0
148,48.159277404166666,49.97379365416667,44.0,78.0
149,49.449600070833334,50.062503337500004,51.0,50.0
150,49.7721807375,50.14919689166667,59.0,65.0
151,49.12701940416667,50.1774227,63.0,100.0
152,50.7399227375,51.054438887500005,56.0,72.0
153,50.417342070833335,51.1935518,51.0,38.0
154,51.38508407083334,51.49193891666667,51.0,53.0
155,50.09476140416667,51.54637440416667,44.0,74.0
156,51.06250340416667,52.014116370833335,71.0,107.0
157,51.06250340416667,52.02419701666667,68.0,90.0
158,51.707664737500004,52.1129067,63.0,77.0
159,52.675406737500005,53.14919709166667,49.0,69.0
160,52.99798740416667,53.44758420833334,52.0,63.0
161,53.32056807083334,53.60282615416667,49.0,70.0
162,52.03024540416667,53.80847132916667,37.0,69.0
163,52.99798740416667,53.864922945833335,56.0,68.0
164,53.643148737500006,53.8850842375,52.0,78.0
165,52.35282607083334,53.9576648875,44.0,54.0
166,54.6108907375,55.026213345833334,49.0,67.0
167,54.28831007083333,55.058471412500005,44.0,50.0
168,53.965729404166666,55.08468109166667,37.0,70.0
169,54.93347140416667,55.90322953333334,61.0,85.0
170,54.93347140416667,55.915326308333334,64.0,92.0
171,55.5786327375,55.95564889166667,56.0,71.0
172,56.5463747375,56.97782637916667,54.0,88.0
173,57.19153607083334,57.409278020833334,54.0,75.0
174,55.90121340416667,57.693552233333335,42.0,77.0
175,56.223794070833335,57.82460062916667,49.0,66.0
176,56.86895540416667,58.64314907083334,66.0,86.0
177,56.86895540416667,58.703632945833334,61.0,85.0
178,57.514116737500004,58.77016520833334,58.0,79.0
179,57.83669740416667,59.292342662500005,42.0,85.0
180,58.481858737500005,59.30242330833334,49.0,59.0
181,59.12702007083334,59.45968138333333,54.0,65.0
182,58.80443940416667,59.695568495833335,66.0,92.0
183,58.80443940416667,59.727826562500006,61.0,77.0
184,59.449600737500006,59.80443947083334,58.0,83.0
185,60.4173427375,60.7560524375,54.0,67.0
186,61.062504070833334,61.500004100000005,54.0,67.0
187,59.772181404166666,61.524197650000005,47.0,95.0
188,60.09476207083333,61.61089120416667,51.0,38.0
189,61.3850847375,61.71572992083333,58.0,53.0
190,60.73992340416667,62.3770202875,66.0,77.0
191,60.73992340416667,62.405246095833334,63.0,92.0
192,60.73992340416667,62.534278362500004,59.0,112.0
193,62.3528267375,62.72581063333334,54.0,75.0
194,62.030246070833336,62.78226225,51.0,56.0
195,61.70766540416667,62.83064935,47.0,88.0
196,62.67540740416667,63.31653647916667,66.0,97.0
197,62.99798807083334,63.66935908333333,63.0,76.0
198,63.320568737500004,63.69355263333334,59.0,79.0
199,64.2883107375,64.73387528333333,49.0,73.0
200,64.93347207083333,65.1774237,49.0,81.0
201,63.64314940416667,65.479843075,37.0,77.0
202,63.96573007083334,65.59476243750001,44.0,50.0
203,64.61089140416667,66.35887539166667,64.0,96.0
204,64.61089140416667,66.3689560375,61.0,83.0
205,66.2237947375,66.72782702916668,49.0,75.0
206,65.57863340416667,66.95161736666667,37.0,74.0
207,65.90121407083333,66.96976252916667,44.0,48.0
208,66.86895607083333,67.08669802083334,49.0,69.0
209,66.54637540416667,67.4455690125,64.0,127.0
210,65.2560527375,67.46169804583333,56.0,81.0
211,67.1915367375,67.52218192083333,61.0,99.0
212,68.1592787375,68.5947626375,56.0,90.0
213,67.83669807083334,68.65323038333334,51.0,42.0
214,67.51411740416667,69.3084723625,44.0,73.0
215,68.80444007083334,69.42540785416666,51.0,69.0
216,69.1270207375,69.4778272125,58.0,83.0
217,68.48185940416667,69.53427882916667,59.0,112.0
218,70.0947627375,70.5000047,56.0,82.0
219,70.73992407083334,71.14516603333334,61.0,83.0
220,69.44960140416667,71.18145635833334,44.0,76.0
221,70.41734340416667,71.23589184583334,63.0,97.0
222,69.77218207083334,71.33669830416667,51.0,57.0
223,71.0625047375,71.3891176625,59.0,92.0
224,72.03024673750001,72.40726289166668,61.0,97.0
225,71.70766607083334,72.5504080625,58.0,75.0
226,71.38508540416667,73.22984359166666,46.0,74.0
227,72.99798873750001,73.74597265833334,58.0,79.0
228,72.67540807083334,73.995972675,61.0,86.0
229,72.35282740416667,74.020166225,64.0,112.0
230,73.64315007083334,74.32661785833334,52.0,71.0
231,73.32056940416668,74.49194045,46.0,72.0
232,73.96573073750001,74.62500497500001,58.0,83.0
233,74.28831140416668,75.17944049583333,64.0,100.0
234,74.61089207083333,75.25605340416666,61.0,89.0
235,74.9334727375,75.28629534166667,58.0,79.0
236,75.9012147375,76.35887605833334,51.0,77.0
237,75.57863407083333,76.37903735,46.0,54.0
238,76.22379540416667,76.88306964166667,55.0,102.0
239,75.25605340416666,77.068553525,39.0,76.0
240,76.8689567375,77.15524707916667,58.0,86.0
241,76.54637607083333,77.17944062916668,46.0,71.0
242,77.19153740416667,78.23790844166668,51.0,88.0
243,77.19153740416667,78.25000521666666,46.0,78.0
244,77.19153740416667,78.26210199166667,67.0,102.0
245,77.19153740416667,78.26411812083333,58.0,99.0
246,77.19153740416667,78.26815037916667,63.0,99.0
247,77.19153740416667,78.2963761875,39.0,58.0
248,79.61089240416668,79.81048919166668,56.0,89.0
249,79.7721827375,79.95565049166667,61.0,78.0
250,79.93347307083334,80.13105372916667,56.0,95.0
251,80.09476340416667,80.35484406666667,64.0,122.0
252,80.25605373750001,80.50605375416667,56.0,83.0
253,79.12702140416667,80.55444085416667,37.0,85.0
254,79.28831173750001,80.57258601666668,44.0,68.0
255,80.41734407083334,80.6189569875,61.0,88.0
256,80.7399247375,80.97782797916668,61.0,79.0
257,80.57863440416666,80.98589249583334,64.0,107.0
258,79.44960207083334,80.9939570125,49.0,90.0
259,80.90121507083333,81.06452153333333,56.0,92.0
260,81.54637640416666,81.71976351250001,58.0,83.0
261,81.7076667375,81.88105384583334,61.0,78.0
262,81.86895707083333,82.03629579166667,58.0,93.0
263,82.03024740416667,82.27621516250001,66.0,100.0
264,82.1915377375,82.4213764625,58.0,92.0
265,81.06250540416667,82.4576667875,42.0,71.0
266,81.2237957375,82.5060538875,49.0,71.0
267,82.35282807083334,82.51613453333334,61.0,85.0
268,81.38508607083334,82.89516681666667,54.0,86.0
269,82.51411840416667,82.9052474625,58.0,68.0
270,82.6754087375,82.94557004583334,66.0,95.0
271,82.83669907083333,82.96371520833334,61.0,83.0
272,83.48186040416667,83.66532815833334,59.0,100.0
273,83.64315073750001,83.7641184875,63.0,58.0
274,83.80444107083333,83.99798947083333,59.0,97.0
275,83.96573140416668,84.22782819583334,66.0,69.0
276,84.1270217375,84.34073142916667,59.0,83.0
277,83.32057007083334,84.34274755833334,54.0,83.0
278,83.1592797375,84.35282820416667,51.0,53.0
279,82.99798940416667,84.3931507875,47.0,102.0
280,84.28831207083334,84.46169917916667,63.0,46.0
281,84.44960240416667,84.8044411375,66.0,54.0
282,84.61089273750001,84.82460242916667,59.0,67.0
283,84.77218307083334,84.90927985416667,63.0,60.0
284,85.25605407083334,85.4516186,56.0,89.0
285,85.41734440416667,85.584683125,59.0,97.0
286,85.57863473750001,85.84677991666668,56.0,83.0
287,85.73992507083334,85.87097346666667,59.0,112.0
288,85.90121540416668,86.14516703333334,64.0,112.0
289,86.0625057375,86.27218317083334,56.0,82.0
290,84.93347340416668,86.28427994583333,40.0,55.0
291,85.0947637375,86.30040897916668,52.0,96.0
292,86.22379607083333,86.40524769583334,59.0,100.0
293,86.38508640416667,86.65323158333334,64.0,107.0
294,86.5463767375,86.83266707916667,59.0,97.0
295,86.86895740416666,86.99395741250001,64.0,67.0
296,87.0302477375,87.205650975,58.0,73.0
297,87.19153807083333,87.3689574375,61.0,88.0
298,87.35282840416667,87.53629615833334,58.0,93.0
299,87.5141187375,87.65726390833333,61.0,90.0
300,87.67540907083334,87.82460262916668,58.0,90.0
301,87.83669940416667,87.9737961875,64.0,127.0
302,86.86895740416666,88.04032845,46.0,81.0
303,87.9979897375,88.14718329583334,58.0,82.0
304,88.15928007083333,88.30645750000001,61.0,89.0
305,88.32057040416667,88.6028284875,58.0,89.0
306,88.4818607375,88.71371559166667,64.0,92.0
307,88.64315107083334,88.7963768875,61.0,93.0
308,89.28831240416667,89.4979898375,55.0,92.0
309,89.4496027375,89.60282855416668,58.0,67.0
310,89.61089307083334,89.81452211666667,55.0,83.0
311,89.77218340416667,89.963715675,63.0,66.0
312,89.93347373750001,90.11089310416668,55.0,63.0
313,90.09476407083334,90.21774795,58.0,68.0
314,88.80444140416667,90.28428021250001,39.0,72.0
315,88.96573173750001,90.31048989166668,46.0,76.0
316,90.25605440416668,90.51815119583334,55.0,71.0
317,89.12702207083333,90.68952217500001,51.0,78.0
318,90.4173447375,90.71169959583334,63.0,72.0
319,90.57863507083334,90.72984475833334,55.0,67.0
320,91.22379640416668,91.40726415833333,58.0,79.0
321,91.06250607083334,91.50605448750001,56.0,77.0
322,91.3850867375,91.55242545833333,59.0,102.0
323,91.54637707083334,91.681457725,58.0,85.0
324,90.90121573750001,91.82460289583334,51.0,73.0
325,91.70766740416667,91.93549,63.0,117.0
326,91.86895773750001,92.02823194166668,59.0,100.0
327,92.03024807083334,92.27621582916667,56.0,100.0
328,92.19153840416666,92.35686099583334,59.0,122.0
329,92.3528287375,92.56855455833333,63.0,102.0
330,90.73992540416667,92.5826674625,44.0,69.0
331,92.51411907083333,92.6310545625,56.0,97.0
332,93.15928040416667,93.32258686666667,60.0,100.0
333,93.3205707375,93.48387720000001,63.0,93.0
334,93.48186107083333,93.64516753333334,60.0,102.0
335,92.99799007083334,93.75403850833334,56.0,107.0
336,93.64315140416667,93.87500625833334,68.0,122.0
337,93.8044417375,94.0100869125,60.0,100.0
338,93.96573207083334,94.12097401666666,63.0,102.0
339,94.12702240416667,94.32661919166667,60.0,96.0
340,92.8366997375,94.49395791250001,51.0,96.0
341,94.28831273750001,94.51613533333334,68.0,100.0
342,92.67540940416667,94.55645791666667,44.0,99.0
343,94.44960307083333,94.61895792083334,60.0,100.0
344,95.09476440416667,95.29436119166667,56.0,89.0
345,95.25605473750001,95.43952249166666,61.0,78.0
346,95.41734507083333,95.61492572916667,56.0,95.0
347,95.57863540416668,95.83871606666668,64.0,122.0
348,95.7399257375,95.98992575416668,56.0,83.0
349,94.61089340416667,96.03831285416668,37.0,85.0
350,94.7721837375,96.05645801666667,44.0,68.0
351,95.90121607083334,96.1028289875,61.0,88.0
352,96.22379673750001,96.46169997916667,61.0,79.0
353,96.06250640416667,96.46976449583333,64.0,107.0
354,94.93347407083334,96.47782901250001,49.0,90.0
355,96.38508707083334,96.54839353333334,56.0,92.0
356,97.03024840416667,97.2036355125,58.0,83.0
357,97.19153873750001,97.36492584583334,61.0,78.0
358,97.35282907083334,97.52016779166667,58.0,93.0
359,97.51411940416668,97.7600871625,66.0,100.0
360,97.6754097375,97.9052484625,58.0,92.0
361,96.54637740416668,97.94153878750001,42.0,71.0
362,96.7076677375,97.98992588750001,49.0,71.0
363,97.83670007083334,98.00000653333333,61.0,85.0
364,96.86895807083334,98.37903881666666,54.0,86.0
365,97.99799040416667,98.3891194625,58.0,68.0
366,98.1592807375,98.42944204583334,66.0,95.0
367,98.32057107083334,98.44758720833333,61.0,83.0
368,98.96573240416667,99.14920015833334,59.0,100.0
369,99.1270227375,99.2479904875,63.0,58.0
370,99.28831307083334,99.48186147083334,59.0,97.0
371,99.44960340416667,99.71170019583334,66.0,69.0
372,99.6108937375,99.82460342916667,59.0,83.0
373,98.80444207083333,99.82661955833333,54.0,83.0
374,98.6431517375,99.83670020416668,51.0,53.0
375,98.48186140416666,99.87702278750001,47.0,102.0
376,99.77218407083333,99.94557117916668,63.0,46.0
377,99.93347440416667,100.28831313750001,66.0,54.0
378,100.0947647375,100.30847442916667,59.0,67.0
379,100.25605507083334,100.39315185416667,63.0,60.0
380,100.73992607083333,100.93549060000001,56.0,89.0
381,100.90121640416668,101.068555125,59.0,97.0
382,101.0625067375,101.33065191666667,56.0,83.0
383,101.22379707083334,101.35484546666667,59.0,112.0
384,101.38508740416667,101.62903903333334,64.0,112.0
385,101.54637773750001,101.75605517083333,56.0,82.0
386,100.41734540416667,101.76815194583334,40.0,55.0
387,100.57863573750001,101.78428097916667,52.0,96.0
388,101.70766807083334,101.88911969583334,59.0,100.0
389,101.86895840416668,102.13710358333334,64.0,107.0
390,102.0302487375,102.31653907916667,59.0,97.0
391,102.34678101666667,102.471781025,64.0,67.0
392,102.66936168333334,102.84476492083334,58.0,73.0
393,102.66936168333334,102.84678105,61.0,88.0
394,102.99194235,103.13508752083334,61.0,90.0
395,102.99194235,103.17541010416667,58.0,93.0
396,103.31452301666667,103.4516198,64.0,127.0
397,103.31452301666667,103.463716575,58.0,90.0
398,102.34678101666667,103.51815206250001,46.0,81.0
399,103.63710368333334,103.78428111250001,61.0,89.0
400,103.63710368333334,103.78629724166667,58.0,82.0
401,103.95968435,104.19153920416667,64.0,92.0
402,103.95968435,104.24194243333334,58.0,89.0
403,104.28226501666667,104.43549083333333,61.0,93.0
404,104.92742635,105.08065216666667,58.0,67.0
405,104.92742635,105.13710378333334,55.0,92.0
406,105.25000701666667,105.4415392875,63.0,66.0
407,105.25000701666667,105.45363606250001,55.0,83.0
408,105.57258768333334,105.6955715625,58.0,68.0
409,105.57258768333334,105.75000705000001,55.0,63.0
410,104.28226501666667,105.76210382500001,39.0,72.0
411,104.60484568333334,105.9496038375,46.0,76.0
412,105.89516835,106.15726514166667,55.0,71.0
413,104.60484568333334,106.16734578750001,51.0,78.0
414,105.89516835,106.18952320833334,63.0,72.0
415,106.21774901666667,106.36895870416667,55.0,67.0
416,106.54032968333334,106.9838781,56.0,77.0
417,106.86291035,107.03024907083334,59.0,102.0
418,106.86291035,107.04637810416668,58.0,79.0
419,107.18549101666667,107.32057167083335,58.0,85.0
420,107.18549101666667,107.4133136125,63.0,117.0
421,106.54032968333334,107.46371684166667,51.0,73.0
422,107.50807168333334,107.6673458875,59.0,100.0
423,107.50807168333334,107.75403944166668,56.0,100.0
424,107.83065235000001,107.99597494166667,59.0,122.0
425,107.83065235000001,108.04637817083334,63.0,102.0
426,106.21774901666667,108.060491075,44.0,69.0
427,108.15323301666668,108.27016850833334,56.0,97.0
428,108.79839435000001,110.08468475833334,56.0,82.0
429,108.47581368333334,110.092749275,51.0,85.0
430,109.12097501666668,110.10484605,63.0,95.0
431,108.15323301666668,110.10887830833335,44.0,92.0
432,110.08871701666668,110.10887830833335,44.0,78.0
433,110.73387835000001,111.12097515,56.0,78.0
434,110.41129768333334,111.18750741250001,51.0,52.0
435,111.37903968333333,111.99194295000001,51.0,50.0
436,111.70162035,112.07863650416667,59.0,65.0
437,111.05645901666668,112.1068623125,63.0,100.0
438,112.66936235,112.9838785,56.0,72.0
439,112.34678168333333,113.1229914125,51.0,38.0
440,113.31452368333333,113.42137852916667,51.0,53.0
441,112.02420101666667,113.47581401666667,44.0,74.0
442,112.99194301666667,113.94355598333334,71.0,107.0
443,112.99194301666667,113.95363662916667,68.0,90.0
444,113.63710435,114.0423463125,63.0,77.0
445,114.60484635,115.07863670416667,49.0,69.0
446,114.92742701666667,115.37702382083334,52.0,63.0
447,115.25000768333334,115.53226576666667,49.0,70.0
448,113.95968501666667,115.73791094166667,37.0,69.0
449,114.92742701666667,115.79436255833333,56.0,68.0
450,115.57258835,115.81452385,52.0,78.0
451,114.28226568333334,115.8871045,44.0,54.0
452,116.54033035,116.95565295833335,49.0,67.0
453,116.21774968333334,116.987911025,44.0,50.0
454,115.89516901666667,117.01412070416667,37.0,70.0
455,116.86291101666667,117.83266914583334,61.0,85.0
456,116.86291101666667,117.84476592083334,64.0,92.0
457,117.50807235,117.88508850416667,56.0,71.0
458,118.47581435000001,118.90726599166668,54.0,88.0
459,119.12097568333334,119.33871763333335,54.0,75.0
460,117.83065301666667,119.62299184583334,42.0,77.0
461,118.15323368333334,119.75404024166667,49.0,66.0
462,118.79839501666667,120.57258868333334,66.0,86.0
463,118.79839501666667,120.63307255833334,61.0,85.0
464,119.44355635000001,120.69960482083334,58.0,79.0
465,119.76613701666668,121.22178227500001,42.0,85.0
466,120.41129835000001,121.23186292083334,49.0,59.0
467,121.05645968333334,121.38912099583334,54.0,65.0
468,120.73387901666668,121.62500810833333,66.0,92.0
469,120.73387901666668,121.657266175,61.0,77.0
470,121.37904035000001,121.73387908333333,58.0,83.0
471,122.34678235000001,122.68549205000001,54.0,67.0
472,122.99194368333333,123.4294437125,54.0,67.0
473,121.70162101666668,123.45363726250001,47.0,95.0
474,122.02420168333335,123.54033081666667,51.0,38.0
475,123.31452435,123.64516953333334,58.0,53.0
476,122.66936301666668,124.30645990000001,66.0,77.0
477,122.66936301666668,124.33468570833334,63.0,92.0
478,122.66936301666668,124.46371797500001,59.0,112.0
479,124.28226635,124.65525024583334,54.0,75.0
480,123.95968568333333,124.71170186250001,51.0,56.0
481,123.63710501666667,124.7600889625,47.0,88.0
482,124.60484701666667,125.24597609166668,66.0,97.0
483,124.92742768333333,125.59879869583334,63.0,76.0
484,125.25000835,125.62299224583334,59.0,79.0
485,125.552427725,125.63912127916667,37.0,91.0
486,125.54839546666668,125.63912127916667,49.0,90.0
487,125.88307290833333,125.93750839583333,37.0,90.0
488,125.88105677916667,125.93952452500001,49.0,95.0
489,126.19758905833334,126.23589551250001,49.0,90.0
490,126.20162131666667,126.24194390000001,37.0,88.0
491,126.53025037083334,126.57662134166667,37.0,100.0
492,126.52823424166667,126.57662134166667,49.0,102.0
493,127.17137944583334,127.2278310625,37.0,91.0
494,127.17137944583334,127.2278310625,49.0,85.0
495,126.54637940416667,128.29436339166668,64.0,96.0
496,126.54637940416667,128.30444403750002,61.0,83.0
497,128.1592827375,128.66331502916668,49.0,75.0
498,127.51412140416667,128.88710536666667,37.0,74.0
499,127.83670207083334,128.90525052916666,44.0,48.0
500,128.80444407083334,129.02218602083335,49.0,69.0
501,128.48186340416666,129.3810570125,64.0,127.0
502,127.1915407375,129.39718604583334,56.0,81.0
503,129.1270247375,129.45766992083335,61.0,99.0
504,129.44355701666666,129.50000863333335,32.0,92.0
505,129.43952475833333,129.51210540833333,44.0,94.0
506,129.75807316666666,129.80242800833335,32.0,90.0
507,129.75807316666666,129.8044441375,44.0,90.0
508,130.09678286666667,130.1431538375,44.0,92.0
509,130.09879899583333,130.14516996666669,32.0,92.0
510,130.41936353333335,130.47783127916668,44.0,99.0
511,130.41936353333335,130.4939603125,32.0,100.0
512,130.0947667375,130.53025063750002,56.0,90.0
513,129.77218607083333,130.58871838333334,51.0,42.0
514,130.73992807083334,131.36089585416667,51.0,69.0
515,131.0625087375,131.4133152125,58.0,83.0
516,130.41734740416666,131.46976682916667,59.0,112.0
517,132.0302507375,132.4354927,56.0,82.0
518,132.67541207083335,133.08065403333333,61.0,83.0
519,131.38508940416668,133.11694435833334,44.0,76.0
520,132.35283140416666,133.17137984583334,63.0,97.0
521,131.70767007083333,133.27218630416667,51.0,57.0
522,132.9979927375,133.3246056625,59.0,92.0
523,133.96573473750001,134.34275089166667,61.0,97.0
524,133.64315407083333,134.48589606250002,58.0,75.0
525,133.32057340416668,135.16533159166667,46.0,74.0
526,134.9334767375,135.68146065833335,58.0,79.0
527,134.61089607083335,135.931460675,61.0,86.0
528,134.28831540416667,135.95565422500002,64.0,112.0
529,135.57863807083334,136.26210585833334,52.0,71.0
530,135.25605740416668,136.42742845,46.0,72.0
531,135.90121873750002,136.56049297500002,58.0,83.0
532,136.22379940416667,137.11492849583334,64.0,100.0
533,136.54638007083335,137.19154140416668,61.0,89.0
534,136.8689607375,137.22178334166668,58.0,79.0
535,137.83670273750002,138.29436405833334,51.0,77.0
536,137.51412207083334,138.31452535,46.0,54.0
537,138.15928340416667,138.81855764166667,55.0,102.0
538,137.19154140416668,139.00404152500002,39.0,76.0
539,138.8044447375,139.09073507916668,58.0,86.0
540,138.48186407083335,139.11492862916668,46.0,71.0
541,139.1270254041667,140.17339644166668,51.0,88.0
542,139.1270254041667,140.18549321666669,46.0,78.0
543,139.1270254041667,140.19758999166666,67.0,102.0
544,139.1270254041667,140.19960612083335,58.0,99.0
545,139.1270254041667,140.20363837916668,63.0,99.0
546,139.1270254041667,140.2318641875,39.0,58.0
547,141.54638040416668,141.74597719166667,56.0,89.0
548,141.7076707375,141.89113849166668,61.0,78.0
549,141.86896107083334,142.0665417291667,56.0,95.0
550,142.03025140416668,142.29033206666668,64.0,122.0
551,142.19154173750002,142.44154175416668,56.0,83.0
552,141.06250940416666,142.48992885416666,37.0,85.0
553,141.2237997375,142.50807401666668,44.0,68.0
554,142.35283207083333,142.5544449875,61.0,88.0
555,142.6754127375,142.91331597916667,61.0,79.0
556,142.51412240416667,142.92138049583335,64.0,107.0
557,141.38509007083334,142.9294450125,49.0,90.0
558,142.83670307083335,143.00000953333333,56.0,92.0
559,143.48186440416669,143.6552515125,58.0,83.0
560,143.6431547375,143.81654184583334,61.0,78.0
561,143.80444507083334,143.97178379166667,58.0,93.0
562,143.96573540416668,144.21170316250002,66.0,100.0
563,144.12702573750002,144.3568644625,58.0,92.0
564,142.99799340416666,144.3931547875,42.0,71.0
565,143.1592837375,144.4415418875,49.0,71.0
566,144.28831607083333,144.45162253333334,61.0,85.0
567,143.32057407083335,144.83065481666668,54.0,86.0
568,144.44960640416667,144.84073546250002,58.0,68.0
569,144.6108967375,144.88105804583333,66.0,95.0
570,144.77218707083335,144.89920320833335,61.0,83.0
571,145.41734840416666,145.60081615833334,59.0,100.0
572,145.5786387375,145.6996064875,63.0,58.0
573,145.73992907083334,145.93347747083334,59.0,97.0
574,145.90121940416668,146.16331619583335,66.0,69.0
575,146.0625097375,146.27621942916667,59.0,83.0
576,145.25605807083335,146.27823555833334,54.0,83.0
577,145.0947677375,146.28831620416668,51.0,53.0
578,144.93347740416667,146.3286387875,47.0,102.0
579,146.22380007083333,146.39718717916668,63.0,46.0
580,146.38509040416668,146.7399291375,66.0,54.0
581,146.54638073750002,146.76009042916667,59.0,67.0
582,146.70767107083333,146.84476785416666,63.0,60.0
583,147.19154207083335,147.3871066,56.0,89.0
584,147.35283240416666,147.52017112500002,59.0,97.0
585,147.5141227375,147.78226791666668,56.0,83.0
586,147.67541307083334,147.80646146666666,59.0,112.0
587,147.83670340416668,148.08065503333333,64.0,112.0
588,147.9979937375,148.20767117083335,56.0,82.0
589,146.86896140416667,148.21976794583335,40.0,55.0
590,147.0302517375,148.23589697916668,52.0,96.0
591,148.15928407083334,148.34073569583333,59.0,100.0
592,148.32057440416668,148.58871958333333,64.0,107.0
593,148.48186473750002,148.76815507916666,59.0,97.0
594,148.80444540416667,148.9294454125,64.0,67.0
595,148.9657357375,149.14113897500002,58.0,73.0
596,149.12702607083335,149.30444543750002,61.0,88.0
597,149.28831640416666,149.47178415833335,58.0,93.0
598,149.4496067375,149.59275190833333,61.0,90.0
599,149.61089707083335,149.76009062916668,58.0,90.0
600,149.7721874041667,149.90928418750002,64.0,127.0
601,148.80444540416667,149.97581645,46.0,81.0
602,149.9334777375,150.08267129583334,58.0,82.0
603,150.09476807083334,150.2419455,61.0,89.0
604,150.25605840416668,150.5383164875,58.0,89.0
605,150.41734873750002,150.64920359166666,64.0,92.0
606,150.57863907083333,150.7318648875,61.0,93.0
607,151.22380040416667,151.43347783750002,55.0,92.0
608,151.3850907375,151.53831655416667,58.0,67.0
609,151.54638107083335,151.7500101166667,55.0,83.0
610,151.70767140416666,151.899203675,63.0,66.0
611,151.8689617375,152.04638110416667,55.0,63.0
612,152.03025207083334,152.15323595,58.0,68.0
613,150.73992940416667,152.21976821250001,39.0,72.0
614,150.9012197375,152.24597789166668,46.0,76.0
615,152.19154240416668,152.45363919583335,55.0,71.0
616,151.06251007083335,152.625010175,51.0,78.0
617,152.3528327375,152.64718759583334,63.0,72.0
618,152.51412307083334,152.66533275833334,55.0,67.0
619,153.15928440416667,153.34275215833335,58.0,79.0
620,152.99799407083333,153.44154248750002,56.0,77.0
621,153.3205747375,153.48791345833334,59.0,102.0
622,153.48186507083335,153.616945725,58.0,85.0
623,152.83670373750002,153.76009089583334,51.0,73.0
624,153.64315540416666,153.870978,63.0,117.0
625,153.8044457375,153.96371994166668,59.0,100.0
626,153.96573607083334,154.21170382916668,56.0,100.0
627,154.12702640416668,154.29234899583335,59.0,122.0
628,154.2883167375,154.50404255833334,63.0,102.0
629,152.67541340416668,154.5181554625,44.0,69.0
630,154.44960707083334,154.56654256250002,56.0,97.0
631,155.09476840416667,155.25807486666668,60.0,100.0
632,155.2560587375,155.41936520000002,63.0,93.0
633,155.41734907083335,155.58065553333333,60.0,102.0
634,154.93347807083333,155.68952650833333,56.0,107.0
635,155.57863940416667,155.81049425833334,68.0,122.0
636,155.7399297375,155.9455749125,60.0,100.0
637,155.90122007083335,156.05646201666667,63.0,102.0
638,156.0625104041667,156.26210719166667,60.0,96.0
639,154.77218773750002,156.4294459125,51.0,96.0
640,156.2238007375,156.45162333333334,68.0,100.0
641,154.61089740416668,156.49194591666668,44.0,99.0
642,156.38509107083334,156.55444592083333,60.0,100.0
643,157.03025240416667,157.2298491916667,56.0,89.0
644,157.19154273750001,157.37501049166667,61.0,78.0
645,157.35283307083333,157.55041372916668,56.0,95.0
646,157.51412340416667,157.77420406666667,64.0,122.0
647,157.6754137375,157.92541375416667,56.0,83.0
648,156.54638140416668,157.97380085416668,37.0,85.0
649,156.70767173750002,157.99194601666667,44.0,68.0
650,157.83670407083335,158.0383169875,61.0,88.0
651,158.1592847375,158.3971879791667,61.0,79.0
652,157.99799440416666,158.40525249583334,64.0,107.0
653,156.86896207083333,158.41331701250002,49.0,90.0
654,158.32057507083334,158.48388153333335,56.0,92.0
655,158.96573640416668,159.13912351250002,58.0,83.0
656,159.12702673750002,159.30041384583333,61.0,78.0
657,159.28831707083333,159.4556557916667,58.0,93.0
658,159.44960740416667,159.6955751625,66.0,100.0
659,159.6108977375,159.84073646250002,58.0,92.0
660,158.48186540416668,159.8770267875,42.0,71.0
661,158.6431557375,159.9254138875,49.0,71.0
662,159.77218807083335,159.93549453333335,61.0,85.0
663,158.80444607083334,160.31452681666667,54.0,86.0
664,159.93347840416666,160.3246074625,58.0,68.0
665,160.0947687375,160.36493004583335,66.0,95.0
666,160.25605907083335,160.38307520833334,61.0,83.0
667,160.90122040416668,161.08468815833334,59.0,100.0
668,161.06251073750002,161.1834784875,63.0,58.0
669,161.22380107083333,161.41734947083333,59.0,97.0
670,161.38509140416667,161.64718819583334,66.0,69.0
671,161.5463817375,161.76009142916666,59.0,83.0
672,160.73993007083334,161.76210755833335,54.0,83.0
673,160.5786397375,161.77218820416667,51.0,53.0
674,160.41734940416669,161.8125107875,47.0,102.0
675,161.70767207083335,161.88105917916667,63.0,46.0
676,161.86896240416667,162.2238011375,66.0,54.0
677,162.0302527375,162.2439624291667,59.0,67.0
678,162.19154307083335,162.32863985416668,63.0,60.0
679,162.67541407083334,162.8709786,56.0,89.0
680,162.83670440416668,163.004043125,59.0,97.0
681,162.9979947375,163.26613991666667,56.0,83.0
682,163.15928507083333,163.29033346666668,59.0,112.0
683,163.32057540416668,163.56452703333335,64.0,112.0
684,163.48186573750002,163.69154317083334,56.0,82.0
685,162.3528334041667,163.70363994583334,40.0,55.0
686,162.5141237375,163.71976897916667,52.0,96.0
687,163.64315607083333,163.82460769583335,59.0,100.0
688,163.80444640416667,164.07259158333335,64.0,107.0
689,163.9657367375,164.25202707916668,59.0,97.0
690,164.28831740416666,164.41331741250002,64.0,67.0
691,164.4496077375,164.625010975,58.0,73.0
692,164.61089807083334,164.7883174375,61.0,88.0
693,164.77218840416668,164.95565615833334,58.0,93.0
694,164.9334787375,165.07662390833335,61.0,90.0
695,165.09476907083334,165.24396262916667,58.0,90.0
696,165.25605940416668,165.3931561875,64.0,127.0
697,164.28831740416666,165.45968845000002,46.0,81.0
698,165.41734973750002,165.56654329583336,58.0,82.0
699,165.57864007083333,165.7258175,61.0,89.0
700,165.73993040416667,166.02218848750002,58.0,89.0
701,165.9012207375,166.13307559166668,64.0,92.0
702,166.06251107083335,166.21573688750001,61.0,93.0
703,166.7076724041667,166.9173498375,55.0,92.0
704,166.8689627375,167.02218855416666,58.0,67.0
705,167.03025307083334,167.23388211666668,55.0,83.0
706,167.19154340416668,167.38307567500001,63.0,66.0
707,167.35283373750002,167.53025310416666,55.0,63.0
708,167.51412407083333,167.63710795,58.0,68.0
709,166.22380140416666,167.7036402125,39.0,72.0
710,166.3850917375,167.72984989166667,46.0,76.0
711,167.67541440416667,167.93751119583334,55.0,71.0
712,166.54638207083335,168.10888217500002,51.0,78.0
713,167.8367047375,168.13105959583334,63.0,72.0
714,167.99799507083335,168.14920475833335,55.0,67.0
715,168.6431564041667,168.82662415833335,58.0,79.0
716,168.48186607083335,168.9254144875,56.0,77.0
717,168.8044467375,168.97178545833333,59.0,102.0
718,168.96573707083334,169.100817725,58.0,85.0
719,168.3205757375,169.24396289583333,51.0,73.0
720,169.12702740416668,169.35485,63.0,117.0
721,169.2883177375,169.44759194166667,59.0,100.0
722,169.44960807083334,169.69557582916667,56.0,100.0
723,169.61089840416668,169.77622099583334,59.0,122.0
724,169.77218873750002,169.98791455833333,63.0,102.0
725,168.15928540416667,170.0020274625,44.0,69.0
726,169.93347907083333,170.0504145625,56.0,97.0
727,170.09476940416667,170.62904363333334,60.0,93.0
728,170.57864040416666,170.673398475,56.0,85.0
729,170.09476940416667,170.7157371875,63.0,96.0
730,170.7399307375,171.01412430416667,56.0,90.0
731,170.90122107083334,171.0181565625,60.0,93.0
732,170.41735007083335,171.133075925,51.0,89.0
733,170.09476940416667,171.290334,44.0,93.0
734,171.2238017375,171.3326727125,51.0,97.0
735,171.38509207083334,171.737914675,60.0,96.0
736,171.06251140416668,171.96775340000002,63.0,112.0
737,171.06251140416668,172.04839856666666,42.0,72.0
738,171.70767273750002,172.100817925,56.0,102.0
739,172.51412440416667,172.6955760291667,56.0,88.0
740,172.6754147375,172.8387212,61.0,77.0
741,172.83670507083335,173.03025347083334,56.0,102.0
742,172.35283407083335,173.06855992500002,49.0,89.0
743,173.1592857375,173.21976961250002,49.0,26.0
744,172.9979954041667,173.31452768333335,64.0,127.0
745,173.1592857375,173.35686639583335,56.0,72.0
746,173.32057607083334,173.50001156666667,61.0,79.0
747,172.00807598333333,173.53630189166668,40.0,76.0
748,173.48186640416668,173.79839868333335,56.0,76.0
749,173.64315673750002,173.8548503,64.0,127.0
750,173.80444707083333,173.94960837083335,61.0,93.0
751,174.44960840416667,174.6189632541667,58.0,89.0
752,174.6108987375,174.79638262083336,61.0,79.0
753,174.77218907083335,174.96170521250002,58.0,96.0
754,174.28831807083336,175.04235037916666,54.0,88.0
755,174.93347940416666,175.1794471625,66.0,102.0
756,173.96573740416667,175.26614071666668,42.0,93.0
757,175.0947697375,175.31049555833334,58.0,88.0
758,174.12702773750001,175.34678588333335,49.0,77.0
759,175.25606007083334,175.45565685833336,61.0,83.0
760,175.41735040416668,175.71372139166667,58.0,96.0
761,175.5786407375,175.80041494583335,66.0,89.0
762,175.73993107083334,175.86694720833333,61.0,97.0
763,176.06251173750002,176.25807626666668,54.0,86.0
764,176.22380207083333,176.40525369583335,59.0,100.0
765,176.38509240416667,176.54235047916669,54.0,92.0
766,176.5463827375,176.71372145833334,59.0,96.0
767,176.70767307083335,176.85081824166667,54.0,89.0
768,176.86896340416666,177.07460857916666,66.0,77.0
769,177.0302537375,177.22178600833334,54.0,81.0
770,177.19154407083334,177.38307634166668,59.0,93.0
771,177.35283440416669,177.6713828125,54.0,81.0
772,177.5141247375,177.73589894583336,63.0,100.0
773,175.88307624166669,177.83670540416668,47.0,79.0
774,177.67541507083334,177.84275379166667,59.0,112.0
775,178.32057640416667,178.4778344791667,56.0,86.0
776,178.4818667375,178.63509255416668,59.0,99.0
777,178.64315707083335,178.7802538541667,56.0,95.0
778,177.99799573750002,178.87904418333335,47.0,65.0
779,178.15928607083333,178.923399025,52.0,86.0
780,178.80444740416667,178.9314635416667,64.0,127.0
781,177.83670540416668,178.93952805833334,40.0,90.0
782,178.9657377375,179.15525387916668,56.0,88.0
783,179.12702807083335,179.27218937083333,59.0,100.0
784,179.2883184041667,179.5705764875,56.0,92.0
785,179.4496087375,179.70364101250001,64.0,122.0
786,179.61089907083334,179.71573778750002,59.0,112.0
787,179.93347973750002,180.06049587500002,58.0,77.0
788,180.09477007083333,180.25202814583335,61.0,99.0
789,180.25606040416667,180.41936686666668,58.0,99.0
790,180.41735073750002,180.55646365,61.0,96.0
791,180.57864107083333,180.713721725,58.0,100.0
792,180.73993140416667,180.87097980000001,64.0,127.0
793,179.77218940416668,181.01210884166667,46.0,78.0
794,180.9012217375,181.05646368333333,58.0,86.0
795,181.06251207083335,181.2157378875,61.0,93.0
796,181.22380240416666,181.37904435000002,58.0,95.0
797,181.3850927375,181.6028346875,64.0,112.0
798,181.54638307083334,181.69154437083336,61.0,86.0
799,182.19154440416668,182.38710893333334,55.0,81.0
800,182.35283473750002,182.48993152083335,58.0,70.0
801,182.51412507083333,182.71977024583333,55.0,89.0
802,182.67541540416667,182.84880251250001,63.0,48.0
803,181.70767340416668,183.04033478333335,39.0,82.0
804,182.8367057375,183.04436704166667,55.0,66.0
805,181.8689637375,183.07057672083334,46.0,78.0
806,182.99799607083335,183.1350928541667,58.0,59.0
807,182.03025407083334,183.23388318333335,51.0,82.0
808,183.15928640416666,183.5262219125,55.0,82.0
809,183.3205767375,183.53227030000002,63.0,59.0
810,183.48186707083335,183.58468965833333,58.0,67.0
811,183.96573807083334,184.2036413125,56.0,86.0
812,184.12702840416668,184.28831873750002,59.0,100.0
813,184.28831873750002,184.5060606875,58.0,81.0
814,184.44960907083333,184.57460907916666,59.0,122.0
815,184.61089940416667,184.80444780416667,63.0,112.0
816,184.7721897375,184.96372200833335,59.0,122.0
817,184.93348007083335,185.11896395416667,58.0,99.0
818,185.09477040416667,185.24799622083333,59.0,122.0
819,185.2560607375,185.4254155875,63.0,97.0
820,183.6431574041667,185.48791559166668,44.0,85.0
821,183.8044477375,185.53630269166666,51.0,86.0
822,185.41735107083335,185.53831882083335,59.0,102.0
823,186.22380273750002,186.43952855833334,56.0,117.0
824,185.90122207083334,186.66936728333334,51.0,90.0
825,186.54638340416668,186.76614148333334,63.0,112.0
826,186.54638340416668,186.77218987083333,60.0,100.0
827,186.86896407083333,187.12299634583334,60.0,95.0
828,186.86896407083333,187.12702860416667,63.0,102.0
829,186.86896407083333,187.33468990833333,51.0,26.0
830,185.5786414041667,187.33872216666668,44.0,95.0
831,187.1915447375,187.3850931375,60.0,96.0
832,187.1915447375,187.4052544291667,56.0,100.0
833,187.1915447375,187.41936733333335,63.0,97.0
834,187.51412540416666,187.64114154166668,49.0,92.0
835,187.51412540416666,187.64718992916667,37.0,58.0
836,187.51412540416666,187.64920605833333,44.0,83.0
837,187.51412540416666,187.66130283333334,61.0,90.0
838,187.51412540416666,187.66130283333334,64.0,112.0
839,187.51412540416666,187.66735122083335,68.0,90.0
840,187.83670607083334,187.947593175,49.0,93.0
841,187.83670607083334,187.95968995,37.0,68.0
842,187.83670607083334,187.97178672500002,44.0,96.0
843,187.83670607083334,187.9778351125,64.0,117.0
844,187.83670607083334,187.97985124166667,68.0,88.0
845,187.83670607083334,187.98589962916668,61.0,92.0
846,188.1592867375,188.2802544875,49.0,100.0
847,188.1592867375,188.2802544875,61.0,97.0
848,188.1592867375,188.28831900416668,44.0,107.0
849,188.1592867375,188.28831900416668,64.0,122.0
850,188.1592867375,188.2923512625,37.0,72.0
851,188.1592867375,188.2923512625,68.0,95.0
852,188.48186740416668,188.7157383875,44.0,93.0
853,188.48186740416668,188.73186742083334,37.0,70.0
854,188.48186740416668,188.7641254875,64.0,122.0
855,188.48186740416668,188.770173875,61.0,97.0
856,188.48186740416668,188.77420613333334,68.0,95.0
857,188.48186740416668,188.79033516666667,49.0,102.0
858,190.0947707375,190.3971901125,54.0,90.0
859,189.44960940416667,190.98589982916667,42.0,78.0
860,189.77219007083335,191.19154500416667,49.0,57.0
861,190.41735140416668,191.25001275,58.0,100.0
862,190.73993207083333,191.28025468750002,61.0,69.0
863,191.06251273750001,191.36694824166668,54.0,66.0
864,192.35283540416668,192.7762225291667,63.0,95.0
865,192.0302547375,192.92339995833333,54.0,79.0
866,191.70767407083335,192.94154512083335,51.0,66.0
867,191.38509340416667,192.96775480000002,47.0,97.0
868,192.67541607083334,193.34477095416668,59.0,88.0
869,192.99799673750002,193.3729967625,63.0,83.0
870,193.9657387375,194.39920650833335,52.0,79.0
871,193.64315807083335,194.67138394583336,47.0,56.0
872,193.32057740416667,194.8125129875,40.0,68.0
873,194.61090007083334,194.88912589583333,52.0,107.0
874,194.93348073750002,195.12299687916666,59.0,127.0
875,194.28831940416669,195.1451743,64.0,127.0
876,195.25606140416667,196.0221904875,58.0,86.0
877,195.25606140416667,196.04840016666668,61.0,97.0
878,195.25606140416667,196.05646468333333,64.0,122.0
879,195.9012227375,196.318561475,52.0,83.0
880,195.25606140416667,196.7117066625,46.0,107.0
881,196.54638407083334,196.73791634166668,52.0,96.0
882,196.2238034041667,197.17138411250002,61.0,96.0
883,196.2238034041667,197.189529275,64.0,122.0
884,196.86896473750002,197.3709809,58.0,96.0
885,197.8367067375,198.31452935000002,51.0,93.0
886,198.1592874041667,198.54638420416669,58.0,93.0
887,197.19154540416667,198.55243259166667,39.0,81.0
888,197.51412607083336,198.59477130416667,46.0,58.0
889,198.48186807083334,198.99396487916667,51.0,97.0
890,198.1592874041667,199.0161423,67.0,127.0
891,198.1592874041667,199.04840036666667,63.0,112.0
892,198.8044487375,199.09275520833333,58.0,107.0
893,199.7721907375,200.0826746291667,56.0,112.0
894,199.44961007083333,200.26009399583333,51.0,73.0
895,200.41735207083335,200.78227145,59.0,127.0
896,199.12702940416668,200.92541662083335,44.0,92.0
897,200.09477140416666,200.9939650125,63.0,127.0
898,200.7399327375,200.99598114166668,56.0,102.0
899,200.41735207083335,201.02420695,51.0,99.0
900,201.54638440416667,201.76009409583335,60.0,102.0
901,201.7076747375,201.88711023333335,63.0,99.0
902,201.86896507083335,202.0484005666667,60.0,102.0
903,201.38509407083333,202.26211025833334,56.0,100.0
904,202.03025540416667,202.2762231625,68.0,102.0
905,202.1915457375,202.39920704166667,60.0,99.0
906,202.35283607083335,202.51614253333335,63.0,96.0
907,202.5141264041667,202.72178770833335,60.0,107.0
908,202.6754167375,202.8931586875,68.0,100.0
909,201.22380373750002,202.95162643333333,51.0,100.0
910,202.83670707083334,202.97380385416668,63.0,99.0
911,201.06251340416668,203.01211030833335,44.0,97.0
912,203.48186840416668,203.67138454583335,56.0,88.0
913,203.64315873750002,203.80243294166667,61.0,85.0
914,203.80444907083336,203.97582005,56.0,95.0
915,203.32057807083334,204.08872328333334,49.0,93.0
916,203.96573940416667,204.1774329666667,64.0,127.0
917,203.15928773750002,204.21372329166667,44.0,97.0
918,202.99799740416668,204.2318684541667,37.0,88.0
919,204.1270297375,204.28025555416667,56.0,78.0
920,204.28832007083335,204.4173523375,61.0,93.0
921,204.44961040416666,204.72178784166667,56.0,99.0
922,204.6109007375,204.7923523625,64.0,112.0
923,204.77219107083334,204.9012233375,61.0,117.0
924,205.41735240416668,205.62501370833334,58.0,88.0
925,205.57864273750002,205.72582016666667,61.0,92.0
926,205.73993307083333,205.89315888750002,58.0,99.0
927,205.25606207083334,206.02823954166666,54.0,88.0
928,205.0947717375,206.06654599583334,49.0,90.0
929,204.93348140416668,206.09880406250002,42.0,69.0
930,205.90122340416667,206.1229976125,66.0,97.0
931,206.0625137375,206.27622342916666,58.0,96.0
932,206.22380407083335,206.43952989166667,61.0,86.0
933,206.38509440416667,206.7520299125,58.0,100.0
934,206.5463847375,206.76815894583333,66.0,96.0
935,206.70767507083335,206.80848152916667,61.0,95.0
936,207.0302557375,207.2238041375,59.0,93.0
937,207.19154607083334,207.32461059583335,63.0,56.0
938,207.35283640416668,207.53630415833334,59.0,102.0
939,207.51412673750002,207.65122352083335,63.0,45.0
940,206.8689654041667,207.84880417916668,47.0,93.0
941,207.67541707083333,207.883078375,59.0,96.0
942,207.83670740416667,208.09880419583334,66.0,59.0
943,207.99799773750001,208.21170742916667,59.0,89.0
944,208.15928807083336,208.3387235666667,63.0,69.0
945,208.4818687375,208.68953004166667,66.0,56.0
946,208.32057840416667,208.6996106875,59.0,90.0
947,208.64315907083335,208.76815907916668,63.0,70.0
948,209.28832040416668,209.45969138333334,56.0,79.0
949,209.44961073750002,209.6189655875,59.0,85.0
950,209.61090107083334,209.81654624583334,56.0,92.0
951,209.12703007083334,210.40727209166667,52.0,79.0
952,208.9657397375,210.65928823750002,47.0,46.0
953,209.77219140416668,210.6854979166667,64.0,127.0
954,210.09477207083333,210.69154630416668,59.0,100.0
955,208.8044494041667,210.72985275833335,40.0,73.0
956,210.4173527375,210.73590114583334,56.0,95.0
957,210.73388501666668,211.37098183333333,63.0,90.0
958,210.73590114583334,211.9899334875,71.0,96.0
959,210.74396566250002,212.0040463916667,52.0,100.0
960,210.74194953333335,212.02420768333334,68.0,96.0
961,210.737917275,212.03227220000002,64.0,117.0
962,212.69356256666669,213.471788425,64.0,102.0
963,212.69154643750002,213.47985294166668,58.0,95.0
964,212.69356256666669,213.4838852,61.0,107.0
965,212.68953030833333,213.81453038333333,46.0,76.0
966,213.95767555416668,214.09678846666668,46.0,83.0
967,213.62904650000002,214.5302562375,61.0,107.0
968,213.6250142416667,214.5322723666667,64.0,122.0
969,214.24396589583336,214.82057883750002,58.0,97.0
970,215.2459820916667,215.7540466416667,51.0,88.0
971,214.58872398333335,216.00807891666668,39.0,97.0
972,214.93953045833334,216.036304725,46.0,63.0
973,215.89517568333335,216.29033700000002,51.0,77.0
974,215.56654662916668,216.4899337875,63.0,102.0
975,216.19356280000002,216.53832088750002,58.0,100.0
976,217.16533705833334,217.55041772916667,56.0,88.0
977,216.87501445833334,217.63711128333335,51.0,72.0
978,217.5262241791667,218.1310629291667,59.0,127.0
979,216.52622411250002,218.17138551250002,44.0,88.0
980,218.11291776666667,218.35283713750002,58.0,96.0
981,218.3165468125,218.4133210125,59.0,31.0
982,217.850820975,218.4879177916667,51.0,88.0
983,218.4677565,220.31049855833334,59.0,65.0
984,218.47783714583335,220.3145308166667,44.0,96.0
985,218.47178875833333,220.32057920416668,56.0,92.0
986,218.47582101666669,220.33267597916668,63.0,72.0
987,221.0625147375,221.49598250833336,56.0,81.0
988,220.73993407083336,221.52219218750002,51.0,61.0
989,220.41735340416668,222.22178900833333,44.0,86.0
990,221.70767607083334,222.3346922416667,51.0,63.0
991,221.3850954041667,223.1028374541667,63.0,99.0
992,222.0302567375,223.16936971666667,59.0,71.0
993,222.9979987375,223.63711168333333,51.0,55.0
994,222.35283740416668,223.66735362083335,44.0,81.0
995,223.32057940416666,224.32864398750002,63.0,100.0
996,223.64316007083335,224.34275689166668,59.0,81.0
997,223.9657407375,224.38106334583335,56.0,70.0
998,224.93348273750001,225.40727309166667,49.0,88.0
999,224.28832140416668,226.0645312,37.0,82.0
1000,224.61090207083333,226.27622476250002,44.0,59.0
1001,225.57864407083335,226.28025702083335,49.0,66.0
1002,225.25606340416667,227.11493449583335,64.0,117.0
1003,225.9012247375,227.1471925625,61.0,85.0
1004,226.22380540416668,227.5161442,37.0,76.0
1005,226.86896673750002,227.59074097916667,44.0,54.0
1006,227.19154740416667,228.1391281125,64.0,112.0
1007,227.8367087375,228.181466825,56.0,66.0
1008,227.51412807083335,228.2137248916667,61.0,69.0
1009,228.80445073750002,229.2842894791667,54.0,82.0
1010,228.15928940416669,229.81251532083334,42.0,78.0
1011,229.12703140416667,229.826628225,61.0,117.0
1012,229.44961207083335,230.06856372500002,54.0,73.0
1013,228.48187007083334,230.10283792083334,49.0,59.0
1014,230.73993473750002,231.2419509,54.0,53.0
1015,230.0947734041667,231.55243479166668,42.0,69.0
1016,230.41735407083334,231.55646705,49.0,58.0
1017,231.38509607083336,231.78630577500002,54.0,58.0
1018,229.7721927375,231.8044509375,58.0,77.0
1019,231.06251540416667,231.9012251375,66.0,99.0
1020,231.7076767375,232.03227353333335,61.0,89.0
1021,232.65324131666668,233.09477360416668,54.0,70.0
1022,232.0302574041667,233.80445107083335,47.0,97.0
1023,233.29638652083335,234.0302575375,54.0,63.0
1024,232.33872516666668,234.07259625,51.0,61.0
1025,232.99396714583335,234.09477367083335,59.0,100.0
1026,233.59275750833334,234.108886575,63.0,71.0
1027,234.24598335833335,235.25808020000002,39.0,52.0
1028,234.3649349791667,235.29840278333336,46.0,37.0
1029,234.40324143333333,235.39920924166668,51.0,36.0
1030,234.48590272916667,235.46170924583333,63.0,66.0
1031,234.60082209166669,235.48187053750001,66.0,86.0
1032,234.38912852916667,235.49799957083334,58.0,64.0
1033,236.1834834875,238.20767717083334,59.0,64.0
1034,236.11896735416667,238.22783846250002,56.0,72.0
1035,236.25404800833334,238.23993523750002,63.0,77.0
1036,236.10082219166668,238.2641287875,51.0,55.0
1037,236.11493509583335,238.30445137083333,44.0,51.0
