,start,end,pitch,velocity
0,36.005476300000005,36.78672546666667,67.0,86.0
1,37.3290043,37.562459933333336,66.0,92.0
2,37.5495923,37.83451846666667,64.0,63.0
3,37.7701803,38.17091516666667,66.0,90.0
4,38.652532300000004,39.077164200000006,59.0,89.0
5,39.5348843,40.4337804,64.0,83.0
6,40.858412300000005,41.04958856666667,62.0,90.0
7,41.079000300000004,41.378632333333336,60.0,64.0
8,41.2995883,42.53671933333334,62.0,88.0
9,43.064292300000005,43.52017416666667,60.0,93.0
10,44.3878203,44.56245246666667,59.0,90.0
11,44.6084083,44.889658000000004,57.0,62.0
12,44.8289963,45.52017203333334,59.0,77.0
13,45.270172300000006,45.700318900000006,63.0,99.0
14,45.711348300000004,46.148847833333335,64.0,96.0
15,46.5937003,46.931935233333334,59.0,86.0
16,47.476052300000006,48.395168966666674,60.0,76.0
17,48.358404300000004,49.737079300000005,59.0,77.0
18,50.123108300000005,50.6635489,67.0,93.0
19,51.4466363,51.691121333333335,66.0,97.0
20,51.6672243,51.93376813333334,64.0,76.0
21,51.88781230000001,52.551414533333336,66.0,95.0
22,52.770164300000005,53.27935493333334,59.0,90.0
23,53.6525163,54.27200093333334,71.0,117.0
24,54.53486830000001,54.755456300000006,71.0,102.0
25,54.755456300000006,54.90619143333334,67.0,92.0
26,54.976044300000005,55.191117600000005,69.0,92.0
27,55.196632300000005,55.38780856666667,67.0,90.0
28,55.417220300000004,56.34001343333334,66.0,95.0
29,57.181924300000006,58.21133496666667,69.0,107.0
30,58.5054523,58.66905506666667,67.0,100.0
31,58.7260403,58.87126073333334,66.0,100.0
32,58.94662830000001,59.42273073333334,67.0,99.0
33,59.828980300000005,60.02567126666667,64.0,99.0
34,60.7113323,61.04589076666667,66.0,117.0
35,61.15250830000001,61.472360900000005,67.0,97.0
36,61.59368430000001,61.98706623333334,69.0,107.0
37,62.034860300000005,62.79221243333334,71.0,96.0
38,62.9172123,64.18191683333333,66.0,92.0
39,67.4697675625,67.65344106250001,67.0,74.0
40,67.7758900625,67.9901758125,67.0,78.0
41,68.0820125625,68.26823708333333,66.0,96.0
42,68.3881350625,69.26823725,67.0,99.0
43,69.3065025625,69.48507402083334,66.0,102.0
44,69.6126250625,69.86772714583333,67.0,95.0
45,70.2248700625,70.7299721875,59.0,95.0
46,70.8371150625,71.09987020833333,59.0,88.0
47,71.1432375625,71.4034416875,67.0,96.0
48,71.4493600625,71.71466622916667,66.0,99.0
49,71.7554825625,72.05650302083333,67.0,95.0
50,72.0616050625,72.51058472916667,66.0,107.0
51,72.6738500625,72.957013375,64.0,100.0
52,72.9799725625,73.29629914583333,62.0,93.0
53,73.2860950625,73.91619720833333,64.0,97.0
54,74.2044625625,74.36007483333333,64.0,86.0
55,74.5105850625,74.68915652083334,64.0,99.0
56,74.8167075625,75.02078922916667,66.0,97.0
57,75.1228300625,75.436605625,67.0,90.0
58,75.4289525625,75.7044628125,64.0,92.0
59,75.7350750625,76.38813639583333,62.0,92.0
60,77.2656875625,77.42895289583333,60.0,100.0
61,77.57181006249999,77.793748875,60.0,95.0
62,77.8779325625,78.15854485416666,59.0,90.0
63,78.1840550625,78.865177625,60.0,107.0
64,79.1024225625,79.3167083125,59.0,96.0
65,79.4085450625,79.997830875,60.0,107.0
66,80.6330350625,81.30395354166667,59.0,95.0
67,81.2452800625,81.46466785416666,57.0,96.0
68,81.8575250625,82.4391578125,55.0,79.0
69,82.4697700625,83.03609668749999,54.0,79.0
70,83.0820150625,83.63558658333334,57.0,97.0
71,83.6942600625,84.19426014583334,59.0,107.0
72,84.3065050625,84.77079085416666,60.0,112.0
73,84.9187500625,85.2248725625,62.0,96.0
74,85.2248725625,85.51058689583333,60.0,85.0
75,85.5309950625,86.59477075,59.0,96.0
76,87.0616075625,87.2452810625,67.0,74.0
77,87.3677300625,87.5820158125,67.0,78.0
78,87.6738525625,87.86007708333334,66.0,96.0
79,87.9799750625,88.86007725,67.0,99.0
80,88.8983425625,89.07691402083333,66.0,102.0
81,89.20446506249999,89.45956714583333,67.0,95.0
82,89.8167100625,90.3218121875,59.0,95.0
83,90.4289550625,90.69171020833333,59.0,88.0
84,90.7350775625,90.9952816875,67.0,96.0
85,91.0412000625,91.30650622916667,66.0,99.0
86,91.3473225625,91.64834302083332,67.0,95.0
87,91.6534450625,92.10242472916667,66.0,107.0
88,92.2656900625,92.548853375,64.0,100.0
89,92.5718125625,92.88813914583334,62.0,93.0
90,92.8779350625,93.50803720833333,64.0,97.0
91,93.7963025625,93.95191483333333,64.0,86.0
92,94.1024250625,94.28099652083333,64.0,99.0
93,94.40854756249999,94.61262922916666,66.0,97.0
94,94.7146700625,95.028445625,67.0,90.0
95,95.02079256249999,95.579466125,69.0,99.0
96,95.6330375625,96.56926220833333,66.0,86.0
97,97.4697725625,97.66109912499999,64.0,89.0
98,97.7758950625,98.3422216875,69.0,107.0
99,98.3881400625,98.99273199999999,64.0,100.0
100,99.0003850625,99.60242597916667,66.0,96.0
101,99.61263006249999,100.05140564583334,64.0,97.0
102,100.22487506249999,100.71722208333333,69.0,127.0
103,100.83712006249999,101.34987525,64.0,102.0
104,101.4493650625,101.98507943749999,66.0,117.0
105,102.0616100625,102.44681420833334,64.0,112.0
106,102.6738550625,103.11518166666667,71.0,127.0
107,103.2861000625,103.72742666666667,69.0,122.0
108,103.8983450625,104.380488,67.0,102.0
109,104.5105900625,105.08967179166666,69.0,127.0
110,105.1228350625,105.47997797916666,71.0,127.0
111,106.3473250625,107.22487622916665,59.0,92.0
112,107.85869229999999,109.86420486666665,64.0,100.0
113,125.28514429999998,126.06639346666665,67.0,86.0
114,126.6086723,126.84212793333333,66.0,92.0
115,126.82926029999999,127.11418646666665,64.0,63.0
116,127.0498483,127.45058316666666,66.0,90.0
117,127.93220029999999,128.35683219999999,59.0,89.0
118,128.8145523,129.7134484,64.0,83.0
119,130.13808029999998,130.32925656666666,62.0,90.0
120,130.35866829999998,130.65830033333333,60.0,64.0
121,130.5792563,131.81638733333332,62.0,88.0
122,132.3439603,132.79984216666665,60.0,93.0
123,133.6674883,133.84212046666664,59.0,90.0
124,133.8880763,134.16932599999998,57.0,62.0
125,134.1086643,134.79984003333334,59.0,77.0
126,134.5498403,134.9799869,63.0,99.0
127,134.99101629999998,135.42851583333334,64.0,96.0
128,135.87336829999998,136.21160323333334,59.0,86.0
129,136.75572029999998,137.67483696666665,60.0,76.0
130,137.63807229999998,139.0167473,59.0,77.0
131,139.4027763,139.94321689999998,67.0,93.0
132,140.72630429999998,140.97078933333333,66.0,97.0
133,140.9468923,141.21343613333332,64.0,76.0
134,141.1674803,141.83108253333333,66.0,95.0
135,142.0498323,142.55902293333332,59.0,90.0
136,142.9321843,143.55166893333333,71.0,117.0
137,143.8145363,144.0351243,71.0,102.0
138,144.0351243,144.18585943333332,67.0,92.0
139,144.2557123,144.4707856,69.0,92.0
140,144.4763003,144.66747656666666,67.0,90.0
141,144.69688829999998,145.6196814333333,66.0,95.0
142,146.4615923,147.49100296666666,69.0,107.0
143,147.7851203,147.94872306666667,67.0,100.0
144,148.00570829999998,148.15092873333333,66.0,100.0
145,148.2262963,148.70239873333333,67.0,99.0
146,149.1086483,149.30533926666666,64.0,99.0
147,149.9910003,150.32555876666666,66.0,117.0
148,150.43217629999998,150.7520289,67.0,97.0
149,150.8733523,151.26673423333332,69.0,107.0
150,151.3145283,152.07188043333332,71.0,96.0
151,152.19688029999998,153.46158483333332,66.0,92.0
152,154.9847315625,155.1684050625,67.0,74.0
153,155.2908540625,155.5051398125,67.0,78.0
154,155.5969765625,155.78320108333332,66.0,96.0
155,155.9030990625,156.78320125,67.0,99.0
156,156.8214665625,157.00003802083333,66.0,102.0
157,157.1275890625,157.38269114583332,67.0,95.0
158,157.7398340625,158.2449361875,59.0,95.0
159,158.3520790625,158.61483420833332,59.0,88.0
160,158.65820156249998,158.91840568749998,67.0,96.0
161,158.9643240625,159.22963022916667,66.0,99.0
162,159.27044656249998,159.57146702083332,67.0,95.0
163,159.5765690625,160.02554872916667,66.0,107.0
164,160.1888140625,160.471977375,64.0,100.0
165,160.4949365625,160.81126314583332,62.0,93.0
166,160.8010590625,161.43116120833332,64.0,97.0
167,161.7194265625,161.87503883333332,64.0,86.0
168,162.0255490625,162.20412052083333,64.0,99.0
169,162.3316715625,162.53575322916666,66.0,97.0
170,162.6377940625,162.951569625,67.0,90.0
171,162.9439165625,163.2194268125,64.0,92.0
172,163.25003906249998,163.90310039583332,62.0,92.0
173,164.7806515625,164.94391689583333,60.0,100.0
174,165.08677406249998,165.308712875,60.0,95.0
175,165.3928965625,165.67350885416667,59.0,90.0
176,165.69901906249999,166.380141625,60.0,107.0
177,166.6173865625,166.8316723125,59.0,96.0
178,166.9235090625,167.512794875,60.0,107.0
179,168.1479990625,168.81891754166665,59.0,95.0
180,168.7602440625,168.97963185416666,57.0,96.0
181,169.3724890625,169.95412181249998,55.0,79.0
182,169.9847340625,170.55106068749998,54.0,79.0
183,170.5969790625,171.1505505833333,57.0,97.0
184,171.2092240625,171.70922414583333,59.0,107.0
185,171.8214690625,172.28575485416667,60.0,112.0
186,172.4337140625,172.7398365625,62.0,96.0
187,172.7398365625,173.02555089583333,60.0,85.0
188,173.0459590625,174.10973475,59.0,96.0
189,174.5765715625,174.7602450625,67.0,74.0
190,174.88269406249998,175.0969798125,67.0,78.0
191,175.1888165625,175.37504108333331,66.0,96.0
192,175.49493906249998,176.37504124999998,67.0,99.0
193,176.4133065625,176.59187802083332,66.0,102.0
194,176.71942906249998,176.97453114583334,67.0,95.0
195,177.33167406249999,177.8367761875,59.0,95.0
196,177.9439190625,178.2066742083333,59.0,88.0
197,178.2500415625,178.5102456875,67.0,96.0
198,178.5561640625,178.82147022916666,66.0,99.0
199,178.8622865625,179.16330702083332,67.0,95.0
200,179.1684090625,179.61738872916666,66.0,107.0
201,179.7806540625,180.06381737499999,64.0,100.0
202,180.0867765625,180.4031031458333,62.0,93.0
203,180.3928990625,181.0230012083333,64.0,97.0
204,181.31126656249998,181.46687883333334,64.0,86.0
205,181.6173890625,181.79596052083332,64.0,99.0
206,181.92351156249998,182.12759322916665,66.0,97.0
207,182.2296340625,182.54340962499998,67.0,90.0
208,182.53575656249998,183.094430125,69.0,99.0
209,183.14800156249999,184.08422620833332,66.0,86.0
210,184.9847365625,185.17606312499998,64.0,89.0
211,185.29085906249998,185.8571856875,69.0,107.0
212,185.9031040625,186.50769599999998,64.0,100.0
213,186.51534906249998,187.11738997916666,66.0,96.0
214,187.12759406249998,187.56636964583333,64.0,97.0
215,187.73983906249998,188.23218608333332,69.0,127.0
216,188.35208406249998,188.86483925,64.0,102.0
217,188.96432906249998,189.50004343749998,66.0,117.0
218,189.5765740625,189.96177820833333,64.0,112.0
219,190.1888190625,190.63014566666666,71.0,127.0
220,190.8010640625,191.24239066666667,69.0,122.0
221,191.4133090625,191.89545199999998,67.0,102.0
222,192.0255540625,192.60463579166665,69.0,127.0
223,192.6377990625,192.99494197916664,71.0,127.0
224,193.8622890625,194.73984022916665,59.0,92.0
225,195.3929015625,198.17606529166665,64.0,100.0
226,204.292777975,204.49024146666667,59.0,95.0
227,204.510168975,205.64784854166666,64.0,99.0
228,206.031905975,206.205818775,67.0,97.0
229,206.249296975,207.31994765,66.0,100.0
230,207.771033975,207.955816325,69.0,100.0
231,207.988424975,208.62248205833333,67.0,97.0
232,209.075379975,209.17501751666666,71.0,100.0
233,209.292770975,209.401466475,69.0,100.0
234,209.510161975,209.62610384166666,67.0,90.0
235,209.727552975,209.999291725,69.0,127.0
236,210.162334975,210.42139258333333,71.0,107.0
237,210.597116975,210.90508755833332,72.0,127.0
238,211.031898975,211.38334775833334,59.0,112.0
239,211.466680975,212.07356418333333,64.0,117.0
240,212.988417975,213.12428735,67.0,97.0
241,213.205808975,214.13153231666666,66.0,122.0
242,214.727545975,214.912328325,69.0,117.0
243,214.944936975,215.69312433333334,67.0,127.0
244,216.031891975,216.2221091,71.0,127.0
245,216.249282975,216.43044214166667,69.0,100.0
246,216.466673975,216.575369475,67.0,99.0
247,216.684064975,216.97029645833334,69.0,127.0
248,217.118846975,217.423194375,71.0,127.0
249,217.553628975,217.93044004166666,72.0,107.0
250,217.988410975,218.32174384166666,59.0,102.0
251,218.423192975,219.34166995,64.0,112.0
252,219.944929975,220.0916689,67.0,102.0
253,220.162320975,220.9135189666667,66.0,117.0
254,221.7039593,221.8583709,69.0,107.0
255,221.9245473,222.82895810000002,67.0,100.0
256,223.02748730000002,223.26461940000002,71.0,107.0
257,223.2480753,223.44476626666668,69.0,99.0
258,223.4686633,223.75358946666668,67.0,77.0
259,223.68925130000002,224.03300093333334,69.0,127.0
260,224.1304273,224.43741226666668,71.0,127.0
261,224.57160330000002,225.00876267708333,73.0,122.0
262,225.08283674375,225.58052187916667,75.0,127.0
263,225.63839224375,227.73229055833332,76.0,127.0
264,227.424319975,228.08373934166667,75.0,127.0
265,228.293883975,228.91525991666666,71.0,117.0
266,229.163447975,230.01489605833333,69.0,112.0
267,230.250402975,230.34279415,67.0,99.0
268,230.467793975,230.609098125,67.0,96.0
269,230.685184975,230.82286594166666,66.0,112.0
270,230.902575975,231.19061905,67.0,117.0
271,231.337357975,231.60547354166667,69.0,112.0
272,231.772139975,232.14532785833333,71.0,127.0
273,232.64170397499998,233.42793475833332,76.0,127.0
274,233.946049975,234.14713665,75.0,127.0
275,234.163440975,234.32104945,73.0,97.0
276,234.380831975,235.19423663333333,75.0,127.0
277,235.250395975,236.02032243333332,71.0,107.0
278,236.119959975,237.01850944166665,69.0,117.0
279,237.206914975,237.29568296666667,67.0,100.0
280,237.42430597499998,237.55292898333332,67.0,100.0
281,237.641696975,237.75220406666665,66.0,122.0
282,237.859087975,238.17792810833333,67.0,112.0
283,238.293869975,238.52394211666666,66.0,112.0
284,238.728651975,239.19785421666666,64.0,122.0
285,239.598215975,239.86228213333334,66.0,127.0
286,240.0369143,240.33654633333333,67.0,107.0
287,240.4780903,240.73911943333334,69.0,127.0
288,240.9192663,241.19683953333333,71.0,127.0
289,241.3604423,241.69500076666668,72.0,127.0
290,242.2427943,242.91742593333333,74.0,127.0
291,243.1251463,245.18396763333334,76.0,122.0
292,245.5516143,246.6159514,75.0,102.0
293,246.6545543,246.81815706666666,75.0,122.0
294,247.0957303,247.28506833333333,73.0,93.0
295,247.5369063,248.95786066666668,75.0,117.0
296,254.925872,255.13524700624998,76.0,95.0
297,255.44774713125,255.6598007875,71.0,75.0
298,255.98346163124998,256.18881885625,72.0,85.0
299,256.53132874375,256.74429168541667,74.0,90.0
300,257.08688424375003,257.83821962083334,71.0,93.0
301,258.2324503375,258.528123375,69.0,93.0
302,258.8093733375,259.03533484583335,67.0,88.0
303,259.3862963375,259.855046275,66.0,93.0
304,260.5401423375,260.9524755416667,71.0,93.0
305,261.7509450625,263.1591085625,64.0,92.0
306,264.19992506250003,264.45502714583336,76.0,95.0
307,264.8121700625,265.0545170416667,71.0,75.0
308,265.42441506250003,265.6591089791667,72.0,85.0
309,266.0366600625,266.2713539791667,74.0,90.0
310,266.64890506250003,267.45502764583335,71.0,93.0
311,267.87339506250004,268.187170625,69.0,93.0
312,268.4856400625,268.72543602083334,67.0,88.0
313,269.09788506250004,269.595334125,66.0,93.0
314,270.32237506250004,270.7191026416667,71.0,93.0
315,272.42815311250007,273.46010457500006,64.0,92.0
316,275.97424830000006,276.6814351333334,67.0,88.0
317,277.2810719750001,277.5202020750001,66.0,95.0
318,277.4984629750001,277.6162164333334,64.0,76.0
319,277.7158539750001,278.33360673333345,66.0,100.0
320,278.5854179750001,279.0147652000001,59.0,92.0
321,279.45498197500007,279.96403923333344,64.0,96.0
322,280.7593279750001,280.9042553083334,62.0,99.0
323,280.9767189750001,281.08903765833344,60.0,78.0
324,281.1941099750001,281.8245438750001,62.0,90.0
325,282.9332379750001,283.4223677250001,60.0,102.0
326,284.2375839750001,284.4205547333334,59.0,75.0
327,284.4549749750001,284.72490213333344,57.0,72.0
328,284.6723659750001,285.07091614166677,59.0,83.0
329,285.1071479750001,285.4169301500001,63.0,99.0
330,285.5419299750001,286.07634951666677,64.0,96.0
331,286.4114939750001,286.7665659416668,59.0,88.0
332,287.28105797500007,287.55641990833345,60.0,88.0
333,288.1506219750001,288.7448240416668,59.0,79.0
334,289.8897499750001,290.3553290333334,67.0,99.0
335,291.1940959750001,291.4169217500001,66.0,99.0
336,291.4114869750001,291.57634181666674,64.0,90.0
337,291.6288779750001,292.17960184166674,66.0,102.0
338,292.4984419750001,292.94047034166675,59.0,96.0
339,293.3680059750001,294.0908310500001,71.0,117.0
340,294.2375699750001,294.48032325833344,71.0,96.0
341,294.4549609750001,294.58177239166673,67.0,89.0
342,294.6723519750001,294.89698934166677,69.0,95.0
343,295.1071339750001,295.35351044166674,67.0,95.0
344,295.5419159750001,295.8951763500001,66.0,112.0
345,296.8462619750001,297.2430005500001,69.0,112.0
346,298.15060797500007,298.3100280416668,67.0,99.0
347,298.3679989750001,298.4984335750001,66.0,97.0
348,298.5853899750001,298.9730705916668,67.0,107.0
349,299.4549539750001,299.8263302666668,64.0,100.0
350,300.3245179750001,300.65966243333344,66.0,117.0
351,300.7592999750001,301.1560385500001,67.0,93.0
352,301.1940819750001,301.70313923333345,69.0,99.0
353,301.8462549750001,302.90784769166675,71.0,95.0
354,303.3679919750001,306.19045179166676,66.0,78.0
