,start,end,pitch,velocity
0,0.661764,0.7150727666666667,40.0,53.0
1,0.661764,0.7150727666666667,52.0,52.0
2,1.10294,1.1617634666666667,64.0,61.0
3,1.10294,1.1636017,55.0,39.0
4,1.10294,1.1691164,59.0,39.0
5,1.544116,1.5974247666666668,40.0,53.0
6,1.544116,1.5974247666666668,52.0,52.0
7,1.985292,2.033086066666667,55.0,59.0
8,1.985292,2.0367625333333335,64.0,63.0
9,1.985292,2.038600766666667,59.0,50.0
10,2.4264680000000003,2.474262066666667,40.0,59.0
11,2.4264680000000003,2.4779385333333335,52.0,50.0
12,2.8676440000000003,2.9135998333333335,58.0,59.0
13,2.8676440000000003,2.9172763,67.0,58.0
14,2.8676440000000003,2.920952766666667,61.0,50.0
15,3.3088200000000003,3.3547758333333335,52.0,53.0
16,3.3088200000000003,3.356614066666667,40.0,58.0
17,3.7499960000000003,3.7996283,63.0,58.0
18,3.7499960000000003,3.8014665333333335,57.0,58.0
19,3.7499960000000003,3.805143,60.0,51.0
20,4.191172,4.231613133333334,40.0,63.0
21,4.191172,4.235289600000001,52.0,59.0
22,4.632348,4.674627366666667,55.0,74.0
23,4.632348,4.680142066666667,64.0,59.0
24,4.632348,4.6819803,59.0,53.0
25,5.073524000000001,5.115803366666667,40.0,67.0
26,5.073524000000001,5.115803366666667,52.0,59.0
27,5.5147,5.560655833333334,57.0,67.0
28,5.5147,5.5643323,60.0,56.0
29,5.5147,5.5643323,66.0,74.0
30,5.955876000000001,5.998155366666667,40.0,71.0
31,5.955876000000001,5.999993600000001,52.0,67.0
32,6.397052,6.433816666666667,58.0,68.0
33,6.397052,6.4411696,67.0,68.0
34,6.397052,6.443007833333334,61.0,61.0
35,6.838228000000001,6.880507366666667,40.0,67.0
36,6.838228000000001,6.886022066666667,52.0,57.0
37,7.279404,7.321683366666667,68.0,74.0
38,7.279404,7.338227466666667,59.0,51.0
39,7.279404,7.349256866666667,62.0,46.0
40,7.720580000000001,7.768374066666667,40.0,58.0
41,7.720580000000001,7.772050533333334,52.0,51.0
42,8.161756,8.209550066666667,64.0,63.0
43,8.161756,8.211388300000001,61.0,62.0
44,8.602932000000001,8.6470496,40.0,63.0
45,8.602932000000001,8.6525643,52.0,53.0
46,9.044108000000001,9.088225600000001,63.0,61.0
47,9.044108000000001,9.095578533333335,66.0,62.0
48,9.485284,9.531239833333334,52.0,67.0
49,9.485284,9.542269233333334,64.0,64.0
50,9.485284,9.5514604,59.0,57.0
51,9.92646,9.974254066666667,52.0,61.0
52,9.92646,9.981607,64.0,56.0
53,9.92646,9.998151100000001,57.0,43.0
54,10.367636000000001,10.408077133333334,52.0,67.0
55,10.367636000000001,10.4172683,59.0,53.0
56,10.367636000000001,10.422783,64.0,56.0
57,10.829032566666667,10.955870666666668,52.0,80.0
58,10.9466795,11.069841133333334,50.0,69.0
59,11.025723533333334,11.174620433333335,48.0,67.0
60,11.130502833333335,11.233443900000001,47.0,77.0
61,11.691164,11.746311,55.0,53.0
62,11.691164,11.748149233333335,52.0,63.0
63,11.691164,11.7573404,60.0,59.0
64,11.249988,11.819840333333334,46.0,72.0
65,11.249988,12.113957666666668,34.0,69.0
66,12.132340000000001,12.6121189,45.0,43.0
67,12.132340000000001,12.626824766666667,33.0,53.0
68,12.573516000000001,12.626824766666667,54.0,51.0
69,12.573516000000001,12.628663000000001,60.0,50.0
70,13.014692,13.104765433333334,41.0,42.0
71,13.014692,13.474250333333334,31.0,55.0
72,13.014692,13.485279733333334,43.0,47.0
73,13.455868,13.503662066666667,52.0,54.0
74,13.455868,13.509176766666668,59.0,74.0
75,14.338220000000002,14.378661133333335,58.0,59.0
76,14.338220000000002,14.384175833333334,54.0,64.0
77,13.897044000000001,14.386014066666668,30.0,48.0
78,13.897044000000001,14.391528766666667,42.0,47.0
79,14.338220000000002,14.391528766666667,61.0,62.0
80,14.779396000000002,14.829028300000001,54.0,64.0
81,14.779396000000002,14.836381233333334,42.0,57.0
82,15.220572,15.262851366666668,56.0,67.0
83,15.220572,15.268366066666667,59.0,56.0
84,15.220572,15.273880766666668,62.0,63.0
85,16.102924,16.161747466666668,64.0,58.0
86,16.102924,16.1691004,54.0,53.0
87,16.102924,16.172776866666666,61.0,56.0
88,15.661748000000001,16.194835666666666,30.0,51.0
89,15.661748000000001,16.2021886,42.0,53.0
90,16.102924,16.204026833333334,66.0,62.0
91,16.5441,16.5882176,63.0,67.0
92,16.5441,16.593732300000003,59.0,59.0
93,16.5441,16.595570533333333,35.0,53.0
94,16.5441,16.60843816666667,47.0,44.0
95,16.5441,16.61395286666667,66.0,78.0
96,16.985276000000002,17.029393600000002,58.0,69.0
97,16.985276000000002,17.029393600000002,66.0,63.0
98,16.985276000000002,17.036746533333336,36.0,53.0
99,16.985276000000002,17.038584766666666,64.0,67.0
100,16.985276000000002,17.047775933333334,48.0,50.0
101,17.426452,17.466893133333336,63.0,67.0
102,17.426452,17.4705696,59.0,71.0
103,17.426452,17.477922533333334,66.0,63.0
104,17.426452,17.488951933333336,35.0,83.0
105,17.426452,17.499981333333334,47.0,72.0
106,17.867628,18.053289566666667,59.0,67.0
107,17.977922000000003,18.139686533333336,57.0,55.0
108,18.088216000000003,18.158068866666667,55.0,67.0
109,18.198510000000002,18.349245133333334,54.0,71.0
110,18.308804000000002,18.4466715,28.0,72.0
111,18.308804000000002,18.4466715,40.0,68.0
112,18.74998,18.801450533333334,59.0,58.0
113,18.74998,18.803288766666668,55.0,52.0
114,18.74998,18.823509333333334,64.0,56.0
115,19.191156000000003,19.25549416666667,28.0,67.0
116,19.191156000000003,19.262847100000002,40.0,59.0
117,19.632332,19.68564076666667,57.0,61.0
118,19.632332,19.68564076666667,60.0,48.0
119,19.632332,19.692993700000002,66.0,70.0
120,20.073508,20.1176256,28.0,76.0
121,20.073508,20.12130206666667,40.0,69.0
122,20.514684000000003,20.560639833333333,58.0,58.0
123,20.514684000000003,20.562478066666667,67.0,63.0
124,20.514684000000003,20.5643163,61.0,59.0
125,20.95586,21.001815833333335,28.0,74.0
126,20.95586,21.00365406666667,40.0,63.0
127,21.397036,21.44483006666667,62.0,53.0
128,21.397036,21.448506533333337,59.0,53.0
129,21.397036,21.448506533333337,68.0,49.0
130,21.838212000000002,21.884167833333336,28.0,67.0
131,21.838212000000002,21.8878443,40.0,59.0
132,22.279388,22.32718206666667,61.0,67.0
133,22.279388,22.3400497,64.0,40.0
134,22.720564000000003,22.77938746666667,40.0,50.0
135,22.720564000000003,22.7812257,28.0,63.0
136,23.16174,23.207695833333336,63.0,61.0
137,23.16174,23.2113723,66.0,60.0
138,23.602916,23.643357133333335,52.0,72.0
139,23.602916,23.65071006666667,59.0,58.0
140,23.602916,23.65071006666667,64.0,61.0
141,24.044092000000003,24.084533133333334,52.0,72.0
142,24.044092000000003,24.090047833333337,57.0,64.0
143,24.044092000000003,24.091886066666667,64.0,67.0
144,24.485268,24.525709133333336,52.0,76.0
145,24.485268,24.53857676666667,64.0,57.0
146,24.485268,24.544091466666668,57.0,47.0
147,24.926444000000004,25.099237933333335,67.0,66.0
148,25.036738000000003,25.1801202,66.0,61.0
149,25.147032000000003,25.2628407,64.0,64.0
150,25.257326000000003,25.409899366666668,62.0,63.0
151,25.367620000000002,26.2610014,54.0,79.0
152,25.367620000000002,26.284898433333336,61.0,87.0
153,25.367620000000002,26.2885749,58.0,88.0
154,25.367620000000002,26.312471933333335,64.0,85.0
155,26.691148000000002,26.786736133333335,59.0,80.0
156,26.691148000000002,26.801442,66.0,76.0
157,26.801442,26.926441866666668,64.0,67.0
158,26.911736,27.036735866666668,63.0,79.0
159,27.02203,27.141515166666668,61.0,77.0
160,27.132324,28.044087733333335,52.0,79.0
161,27.132324,28.060631833333336,56.0,84.0
162,27.132324,28.06798476666667,62.0,81.0
163,27.132324,28.08452886666667,59.0,88.0
164,28.455852000000004,28.49813136666667,57.0,91.0
165,28.455852000000004,28.58636656666667,64.0,67.0
166,28.566146000000003,28.694822333333335,62.0,67.0
167,28.676440000000003,28.799601633333335,61.0,74.0
168,28.786734000000003,28.904380933333336,59.0,72.0
169,28.897028000000002,29.784894700000002,50.0,77.0
170,28.897028000000002,29.8124682,54.0,83.0
171,28.897028000000002,29.81614466666667,57.0,87.0
172,28.897028000000002,29.82165936666667,60.0,83.0
173,30.220556000000002,30.26835006666667,55.0,91.0
174,30.231585400000004,30.306952966666667,62.0,56.0
175,30.31246766666667,30.446658700000004,60.0,65.0
176,30.431952833333337,30.522026266666668,59.0,61.0
177,30.503643933333336,30.694820200000002,57.0,62.0
178,30.661732,30.69849666666667,59.0,80.0
179,30.661732,30.702173133333336,55.0,83.0
180,30.661732,30.711364300000003,63.0,85.0
181,31.102908000000003,31.14518736666667,54.0,88.0
182,31.102908000000003,31.150702066666668,57.0,91.0
183,31.102908000000003,31.169084400000003,59.0,67.0
184,31.102908000000003,31.192981433333337,69.0,75.0
185,31.323496000000002,31.37129006666667,59.0,61.0
186,31.323496000000002,31.37129006666667,67.0,71.0
187,31.544084,31.57533396666667,55.0,87.0
188,31.544084,31.580848666666668,52.0,79.0
189,31.544084,31.584525133333337,59.0,90.0
190,32.4760683,32.74445036666667,64.0,64.0
191,32.6966563,32.94849426666667,71.0,57.0
192,32.9172443,33.1819499,67.0,62.0
193,33.1378323,33.35106736666667,71.0,55.0
194,33.358420300000006,33.628640600000004,64.0,53.0
195,33.579008300000005,33.8161404,71.0,63.0
196,33.799596300000005,34.04408133333334,67.0,53.0
197,34.020184300000004,34.22606643333334,71.0,54.0
198,34.2407723,34.51283083333334,64.0,46.0
199,34.4613603,34.68011006666667,71.0,57.0
200,34.6819483,34.920918633333336,67.0,49.0
201,34.9025363,35.11577136666667,71.0,55.0
202,35.1231243,35.4098887,64.0,42.0
203,35.3437123,35.55143266666667,71.0,59.0
204,35.5643003,35.829005900000006,67.0,53.0
205,35.784888300000006,35.9392999,71.0,69.0
206,36.005476300000005,36.21135843333334,64.0,66.0
207,36.226064300000004,36.41540233333333,71.0,65.0
208,36.446652300000004,36.672755,67.0,44.0
209,36.6672403,36.90069593333334,71.0,61.0
210,36.8878283,37.1470192,64.0,50.0
211,37.1084163,37.30510726666667,71.0,57.0
212,36.005476300000005,37.60841576666667,40.0,42.0
213,37.3290043,37.665401,67.0,51.0
214,37.5495923,37.68929803333334,71.0,56.0
215,37.7701803,38.0183418,62.0,58.0
216,37.990768300000006,38.211356300000006,71.0,64.0
217,38.211356300000006,38.476061900000005,67.0,53.0
218,38.431944300000005,38.6249588,71.0,61.0
219,38.652532300000004,38.908046733333336,62.0,39.0
220,38.873120300000004,39.06245833333334,71.0,72.0
221,39.0937083,39.3639286,67.0,51.0
222,37.7701803,39.48892846666667,38.0,34.0
223,39.3142963,39.540399,71.0,68.0
224,39.5348843,39.75731053333334,64.0,40.0
225,39.7554723,40.0091485,71.0,55.0
226,39.9760603,40.20032476666667,67.0,53.0
227,40.1966483,40.417236300000006,71.0,57.0
228,40.417236300000006,40.648853700000004,64.0,43.0
229,40.637824300000005,40.83267703333334,71.0,63.0
230,40.858412300000005,41.05510326666667,64.0,55.0
231,39.5348843,41.19297076666667,36.0,35.0
232,41.079000300000004,41.35289706666667,71.0,61.0
233,41.2995883,41.49076456666667,67.0,44.0
234,41.5201763,41.764661333333336,62.0,38.0
235,41.7407643,42.023852233333336,71.0,72.0
236,41.9613523,42.2095138,62.0,52.0
237,42.1819403,42.42274886666667,71.0,69.0
238,41.2995883,42.61576336666667,43.0,39.0
239,42.62311630000001,42.86392486666667,67.0,43.0
240,42.4025283,42.88598366666667,62.0,51.0
241,42.843704300000006,42.95767476666667,71.0,62.0
242,43.064292300000005,43.284880300000005,69.0,58.0
243,43.284880300000005,43.59186526666667,64.0,41.0
244,43.505468300000004,43.72973276666667,69.0,50.0
245,43.505468300000004,43.935614900000004,52.0,34.0
246,43.7260563,44.018335400000005,64.0,49.0
247,43.064292300000005,44.18745286666667,45.0,40.0
248,44.1672323,44.4374526,64.0,62.0
249,43.9466443,44.536717200000005,72.0,69.0
250,44.3878203,44.5918642,69.0,42.0
251,44.6084083,44.86576096666667,64.0,53.0
252,44.8289963,45.16723123333334,71.0,60.0
253,45.04958430000001,45.33451046666667,62.0,38.0
254,45.270172300000006,45.542230833333335,67.0,52.0
255,45.490760300000005,45.838186400000005,62.0,48.0
256,45.931936300000004,46.1249508,67.0,41.0
257,44.8289963,46.18928896666667,43.0,54.0
258,45.711348300000004,46.275685933333335,71.0,69.0
259,46.1525243,46.485244533333336,62.0,47.0
260,46.5937003,46.819803,66.0,63.0
261,46.8142883,47.0293616,69.0,61.0
262,47.25546430000001,47.52200813333334,69.0,55.0
263,47.0348763,47.55141986666667,66.0,56.0
264,47.476052300000006,47.59921393333334,54.0,41.0
265,46.5937003,47.702155000000005,42.0,67.0
266,47.476052300000006,47.81061076666667,72.0,64.0
267,47.696640300000006,48.26833086666667,66.0,58.0
268,48.137816300000004,48.2756838,72.0,52.0
269,47.917228300000005,48.28487496666667,69.0,59.0
270,49.0201683,49.306932700000004,63.0,50.0
271,48.7995803,49.33634443333334,59.0,54.0
272,48.5789923,49.36575616666667,54.0,45.0
273,49.4613443,49.60105003333334,54.0,48.0
274,48.358404300000004,49.606564733333336,47.0,52.0
275,49.2407563,49.96134376666667,66.0,83.0
276,49.68193230000001,49.97604963333334,63.0,57.0
277,50.123108300000005,50.41906386666667,64.0,72.0
278,50.343696300000005,50.62678423333334,71.0,66.0
279,50.564284300000004,50.82715166666667,67.0,45.0
280,50.7848723,51.044063200000004,71.0,69.0
281,51.0054603,51.24443063333334,67.0,52.0
282,51.0054603,51.30141586666667,52.0,29.0
283,50.564284300000004,51.41170986666667,47.0,27.0
284,51.2260483,51.67273900000001,71.0,66.0
285,51.4466363,51.687444866666674,67.0,49.0
286,51.6672243,51.85104763333334,64.0,57.0
287,50.123108300000005,51.88597406666667,40.0,57.0
288,51.88781230000001,52.18928256666667,71.0,55.0
289,52.10840030000001,52.36023826666667,67.0,48.0
290,52.328988300000006,52.67089970000001,62.0,61.0
291,52.549576300000005,52.72972316666667,67.0,55.0
292,52.770164300000005,53.16538446666667,71.0,75.0
293,52.990752300000004,53.1837668,67.0,48.0
294,53.4319283,53.53854583333334,71.0,56.0
295,51.88781230000001,53.66170746666667,38.0,36.0
296,53.6525163,53.6911192,67.0,27.0
297,53.2113403,53.6966339,62.0,50.0
298,53.8731043,53.96501596666667,67.0,31.0
299,53.8731043,54.117589333333335,64.0,59.0
300,54.31428030000001,54.507294800000004,64.0,50.0
301,54.0936923,54.623103500000006,60.0,63.0
302,53.6525163,54.81427976666667,36.0,48.0
303,54.755456300000006,54.93008846666667,64.0,68.0
304,54.53486830000001,54.9595002,67.0,81.0
305,54.976044300000005,55.27199986666667,60.0,63.0
306,55.196632300000005,55.35104390000001,67.0,78.0
307,55.417220300000004,55.678249433333335,59.0,58.0
308,55.8583963,56.42824863333334,54.0,64.0
309,56.0789843,56.4319251,59.0,64.0
310,55.6378083,56.487072100000006,51.0,72.0
311,55.417220300000004,56.5587632,47.0,67.0
312,56.52016030000001,57.137806700000006,63.0,90.0
313,56.2995723,57.143321400000005,66.0,96.0
314,56.74074830000001,57.17824783333334,59.0,66.0
315,57.843688300000004,58.04037926666667,60.0,52.0
316,57.402512300000005,58.11023213333334,52.0,54.0
317,57.623100300000004,58.11758506666667,57.0,56.0
318,57.181924300000006,58.18927616666667,45.0,69.0
319,58.0642763,59.001775300000006,64.0,76.0
320,59.387804300000006,59.86206850000001,55.0,50.0
321,59.16721630000001,59.94662723333334,50.0,59.0
322,59.608392300000006,59.95214193333334,59.0,56.0
323,58.94662830000001,59.9723625,43.0,62.0
324,60.270156300000004,60.62125886666667,59.0,56.0
325,59.828980300000005,60.652508833333336,62.0,78.0
326,61.15250830000001,61.51280203333334,57.0,52.0
327,61.37309630000001,61.521993200000004,60.0,69.0
328,60.9319203,61.6598607,54.0,55.0
329,60.7113323,61.87861046666667,42.0,61.0
330,61.814272300000006,62.00912503333334,54.0,77.0
331,61.59368430000001,62.09184553333334,60.0,85.0
332,62.034860300000005,62.40618343333334,57.0,79.0
333,62.255448300000005,62.43559516666667,60.0,79.0
334,63.1378003,63.47603523333334,63.0,75.0
335,62.6966243,63.48338816666667,54.0,59.0
336,62.9172123,63.545888100000006,59.0,59.0
337,63.3583883,63.9098583,66.0,90.0
338,62.476036300000004,64.0697846,47.0,60.0
339,63.57897630000001,64.08449046666667,54.0,75.0
340,63.79956430000001,64.12125513333334,63.0,67.0
341,64.68191630000001,64.97235716666667,81.0,62.0
342,64.9025043,65.09551880000001,83.0,57.0
343,65.12309230000001,65.4539743,87.0,85.0
344,65.3436803,65.62676823333334,83.0,64.0
345,65.56426830000001,65.86022386666667,90.0,71.0
346,65.7848563,66.010959,83.0,62.0
347,66.00544430000001,66.895787875,95.0,71.0
348,64.2407403,67.73507372916667,63.0,61.0
349,64.2407403,67.73762475,47.0,48.0
350,64.2407403,67.74017577083333,66.0,61.0
351,64.0201523,67.74272679166667,59.0,63.0
352,64.2407403,67.76313495833334,54.0,59.0
353,69.3065025625,69.75803325,59.0,47.0
354,69.9187475625,70.293747625,59.0,52.0
355,69.0003800625,70.50293133333334,52.0,51.0
356,68.6942575625,70.53354358333334,47.0,40.0
357,68.3881350625,70.64068645833333,40.0,81.0
358,70.2248700625,70.82691097916667,64.0,63.0
359,69.6126250625,70.84731914583334,67.0,78.0
360,70.5309925625,70.8830334375,59.0,58.0
361,71.4493600625,72.61517658333334,50.0,51.0
362,71.1432375625,72.67129904166667,45.0,38.0
363,71.7554825625,72.72487047916667,57.0,33.0
364,70.8371150625,72.94170725000001,38.0,56.0
365,72.6738500625,73.2248705625,62.0,47.0
366,72.0616050625,73.31925833333334,66.0,85.0
367,73.2860950625,74.86772797916666,36.0,61.0
368,73.8983400625,74.89578920833333,48.0,59.0
369,73.5922175625,74.91364635416667,43.0,37.0
370,74.2044625625,75.26568722916667,55.0,56.0
371,75.1228300625,75.7350750625,60.0,63.0
372,74.5105850625,75.7350750625,64.0,79.0
373,76.3473200625,77.08201406250001,59.0,56.0
374,76.6534425625,77.10242222916666,62.0,68.0
375,76.0411975625,77.38558554166667,54.0,63.0
376,75.7350750625,77.41364677083334,47.0,63.0
377,77.2656875625,77.65344272916667,62.0,66.0
378,77.8779325625,78.23507547916667,62.0,60.0
379,76.9595650625,78.24017752083333,66.0,88.0
380,77.57181006249999,78.2605856875,59.0,59.0
381,79.1024225625,79.446810375,60.0,63.0
382,78.7963000625,79.50548385416667,57.0,56.0
383,78.4901775625,80.0820145625,52.0,57.0
384,78.1840550625,80.12538191666667,45.0,68.0
385,80.0207900625,80.68150445833334,60.0,47.0
386,79.4085450625,80.70446364583333,64.0,86.0
387,81.2452800625,81.67640258333333,55.0,63.0
388,81.5514025625,81.94425977083333,59.0,66.0
389,80.9391575625,82.00803529166666,50.0,44.0
390,80.6330350625,82.90089258333333,43.0,68.0
391,82.1636475625,82.91109666666667,50.0,55.0
392,82.7758925625,83.0131375,55.0,45.0
393,82.4697700625,83.07691302083333,59.0,62.0
394,81.8575250625,83.0820150625,62.0,88.0
395,83.6942600625,84.39068875,54.0,73.0
396,83.38813756249999,84.53099489583333,48.0,50.0
397,84.0003825625,84.8728316875,57.0,58.0
398,83.0820150625,85.00038272916666,42.0,58.0
399,84.6126275625,85.02334191666667,48.0,50.0
400,84.9187500625,85.03099497916666,57.0,25.0
401,84.3065050625,85.06160722916667,60.0,66.0
402,85.2248725625,85.32436237499999,57.0,30.0
403,84.9187500625,85.50548485416667,54.0,69.0
404,86.1432400625,86.59732177083333,59.0,88.0
405,86.4493625625,86.8014034375,63.0,88.0
406,85.8371175625,86.9544646875,54.0,73.0
407,87.0616075625,87.21977085416667,54.0,69.0
408,85.5309950625,87.24783208333334,47.0,55.0
409,86.7554850625,87.91619954166666,66.0,112.0
410,87.3677300625,87.9340566875,63.0,93.0
411,87.6738525625,88.06926079166666,59.0,78.0
412,88.59222006249999,89.0820160625,52.0,89.0
413,88.2860975625,89.43660795833333,47.0,58.0
414,89.5105875625,89.8167100625,47.0,68.0
415,88.8983425625,89.82436312499999,59.0,79.0
416,87.9799750625,89.885587625,40.0,83.0
417,89.20446506249999,90.39324077083333,67.0,112.0
418,89.8167100625,90.4136489375,64.0,96.0
419,90.1228325625,90.48507752083333,59.0,81.0
420,91.0412000625,91.75803691666667,50.0,79.0
421,90.7350775625,91.78609814583334,45.0,58.0
422,91.3473225625,91.99528185416666,57.0,81.0
423,90.4289550625,92.2503839375,38.0,82.0
424,91.9595675625,92.27079210416667,45.0,81.0
425,92.2656900625,92.80650647916667,62.0,95.0
426,91.6534450625,92.81671056249999,66.0,112.0
427,92.5718125625,92.91875139583334,57.0,93.0
428,93.4901800625,94.19171079166667,48.0,86.0
429,93.1840575625,94.5309965625,43.0,62.0
430,92.8779350625,94.53609860416667,36.0,77.0
431,94.40854756249999,94.70191495833333,48.0,88.0
432,93.7963025625,94.77334354166666,55.0,79.0
433,94.1024250625,94.81160885416666,64.0,99.0
434,94.7146700625,95.2809966875,60.0,88.0
435,95.02079256249999,95.2963028125,64.0,82.0
436,95.6330375625,96.7044663125,54.0,77.0
437,96.2452825625,96.71467039583334,63.0,63.0
438,95.9391600625,96.80140510416666,59.0,58.0
439,96.8575275625,97.15344597916666,54.0,57.0
440,95.3269150625,97.1789561875,47.0,72.0
441,97.1636500625,97.77844608333334,63.0,64.0
442,96.5514050625,97.78609914583333,66.0,100.0
443,98.6942625625,98.9697728125,60.0,69.0
444,98.3881400625,98.97487485416667,57.0,75.0
445,98.0820175625,99.15854835416667,52.0,71.0
446,99.3065075625,99.63048720833334,52.0,67.0
447,97.7758950625,99.70446681249999,45.0,78.0
448,99.9187525625,100.21722199999999,57.0,70.0
449,99.0003850625,100.2554873125,64.0,100.0
450,99.61263006249999,100.2707934375,60.0,73.0
451,100.83712006249999,101.20701808333334,59.0,75.0
452,101.1432425625,101.62028345833333,55.0,77.0
453,100.5309975625,101.68405897916666,50.0,60.0
454,101.75548756250001,102.15089579166667,50.0,77.0
455,100.22487506249999,102.20956927083333,43.0,76.0
456,101.4493650625,102.61007954166666,62.0,99.0
457,102.0616100625,102.61263056249999,59.0,112.0
458,102.3677325625,102.62538566666666,55.0,88.0
459,103.2861000625,103.61007970833333,57.0,93.0
460,103.5922225625,103.81671239583332,60.0,95.0
461,102.9799775625,103.94681445833334,54.0,90.0
462,102.6738550625,104.3575288125,42.0,100.0
463,104.2044675625,104.46212066666666,54.0,95.0
464,103.8983450625,104.52844720833333,60.0,117.0
465,104.5105900625,104.97487585416667,57.0,92.0
466,104.81671256249999,105.11263097916667,60.0,90.0
467,105.7350800625,106.508039375,59.0,83.0
468,105.42895756249999,108.79435306666666,54.0,62.0
469,106.04120256249999,108.92302939999999,63.0,53.0
470,106.3473250625,108.94324996666666,66.0,83.0
471,105.1228350625,109.00023519999999,47.0,78.0
472,109.62339629999998,109.90464599999999,67.0,61.0
473,110.0645723,110.26677796666665,67.0,48.0
474,109.84398429999999,110.36052786666666,64.0,48.0
475,110.28516029999999,110.78148329999999,71.0,72.0
476,110.5057483,110.99471836666666,64.0,49.0
477,110.72633629999999,111.13810056666665,67.0,56.0
478,109.40280829999999,111.18405639999999,52.0,60.0
479,110.94692429999999,111.19692403333332,71.0,68.0
480,111.38810029999999,111.71530583333332,63.0,49.0
481,111.82927629999999,112.10133483333333,63.0,56.0
482,111.60868829999998,112.110526,67.0,58.0
483,112.27045229999999,112.55537846666665,63.0,41.0
484,111.16751229999998,112.78331939999998,51.0,50.0
485,112.4910403,112.91015749999998,67.0,44.0
486,112.0498643,112.92302513333333,71.0,59.0
487,112.71162829999999,112.96162803333333,63.0,53.0
488,113.15280429999999,113.46162749999999,63.0,50.0
489,113.37339229999999,113.86236236666666,67.0,56.0
490,113.59398029999998,113.89545056666665,63.0,54.0
491,114.03515629999998,114.28699426666665,63.0,47.0
492,112.9322163,114.29250896666666,51.0,47.0
493,114.25574429999999,114.65831739999999,67.0,56.0
494,114.4763323,114.6638321,63.0,48.0
495,113.81456829999999,114.73000849999998,71.0,62.0
496,114.9175083,115.23552266666665,64.0,44.0
497,115.13809629999999,115.46530183333333,67.0,61.0
498,114.69692029999999,115.66015456666665,52.0,47.0
499,115.3586843,115.66566926666665,64.0,53.0
500,115.79986029999999,116.05169826666665,64.0,53.0
501,116.02044829999998,116.36235969999998,67.0,47.0
502,115.57927229999999,116.36603616666666,71.0,77.0
503,116.24103629999999,116.51677129999999,64.0,59.0
504,116.68221229999999,116.97449139999999,61.0,69.0
505,117.12338829999999,117.40096153333332,61.0,43.0
506,116.9028003,117.58846133333333,64.0,56.0
507,116.46162429999998,117.79250523333332,49.0,52.0
508,117.56456429999999,117.86419633333333,61.0,50.0
509,117.3439763,118.18037246666665,67.0,55.0
510,118.00574029999999,118.2152989,61.0,55.0
511,117.7851523,118.23184299999998,64.0,63.0
512,118.44691629999998,118.52596033333333,64.0,23.0
513,118.44691629999998,118.75390126666666,60.0,56.0
514,118.66750429999999,119.12154793333332,64.0,64.0
515,118.88809229999998,119.2024302,60.0,53.0
516,119.3292683,119.57007686666665,60.0,63.0
517,119.54985629999999,119.90831179999999,64.0,64.0
518,119.10868029999999,119.90831179999999,67.0,85.0
519,118.22632829999999,119.95242939999999,48.0,50.0
520,119.7704443,119.99103229999999,60.0,74.0
521,120.21162029999999,120.49838469999999,59.0,52.0
522,120.43220829999999,120.74103149999999,62.0,54.0
523,120.65279629999999,120.94875186666665,59.0,64.0
524,121.09397229999999,121.34029556666665,59.0,62.0
525,119.99103229999999,121.54985416666665,47.0,64.0
526,120.87338429999998,121.59948646666666,65.0,79.0
527,121.31456029999998,121.64544229999998,62.0,64.0
528,121.53514829999999,121.74838336666666,59.0,72.0
529,121.97632429999999,122.29433866666666,58.0,38.0
530,122.41750029999999,122.70426469999998,58.0,50.0
531,122.1969123,122.79801459999999,62.0,60.0
532,122.85867629999998,123.15463186666665,58.0,42.0
533,123.07926429999999,123.4487492,62.0,65.0
534,122.63808829999999,123.49654326666666,65.0,51.0
535,123.29985229999998,123.50205796666665,58.0,51.0
536,121.7557363,123.54249909999999,46.0,52.0
537,123.52044029999999,123.61786666666666,47.0,76.0
538,123.52044029999999,123.62154313333332,59.0,85.0
539,123.74102829999998,123.82558703333332,58.0,77.0
540,123.74102829999998,123.84580759999999,46.0,86.0
541,123.96161629999999,124.04249856666665,59.0,78.0
542,123.96161629999999,124.05352796666665,47.0,79.0
543,124.1822043,124.30720416666665,48.0,89.0
544,124.1822043,124.31455709999999,60.0,97.0
545,124.40279229999999,124.50205689999999,47.0,96.0
546,124.40279229999999,124.52963039999999,59.0,93.0
547,124.6233803,124.73367429999999,57.0,92.0
548,124.6233803,124.74470369999999,45.0,81.0
549,124.84396829999999,124.9432329,55.0,88.0
550,124.84396829999999,124.97080639999999,43.0,89.0
551,125.06455629999999,125.14543856666666,42.0,102.0
552,125.06455629999999,125.17485029999999,54.0,79.0
553,125.7263203,126.56639293333332,47.0,95.0
554,125.28514429999998,126.63256933333332,40.0,85.0
555,126.6086723,127.07374533333332,52.0,66.0
556,126.16749629999998,127.07558356666665,55.0,89.0
557,126.16749629999998,127.10131883333332,59.0,90.0
558,127.49102429999999,128.40462626666667,45.0,85.0
559,127.0498483,128.43219976666666,38.0,70.0
560,128.3733763,128.8641846,54.0,69.0
561,127.93220029999999,128.86969929999998,57.0,96.0
562,129.2557283,130.00021279999999,43.0,57.0
563,128.8145523,130.0075657333333,36.0,81.0
564,129.6969043,130.53146223333331,52.0,74.0
565,129.6969043,130.55903573333333,55.0,82.0
566,130.13808029999998,130.57557983333334,48.0,61.0
567,131.02043229999998,131.7759462,42.0,46.0
568,130.5792563,131.91013723333333,35.0,76.0
569,131.4616083,132.29432799999998,54.0,90.0
570,131.90278429999998,132.33660736666667,50.0,76.0
571,132.78513629999998,133.61050306666667,40.0,50.0
572,132.3439603,133.63991479999999,33.0,75.0
573,133.2263123,134.0774143333333,57.0,79.0
574,133.2263123,134.11050253333332,60.0,76.0
575,133.6674883,134.11785546666667,52.0,62.0
576,134.1086643,135.50204516666665,31.0,73.0
577,134.5498403,135.64358913333334,43.0,58.0
578,134.99101629999998,135.8402801,59.0,83.0
579,134.99101629999998,135.84395656666666,55.0,86.0
580,135.4321923,135.89910356666667,50.0,85.0
581,136.3145443,136.66932333333332,54.0,72.0
582,136.75572029999998,137.01307296666664,54.0,71.0
583,135.87336829999998,137.04432293333332,42.0,100.0
584,136.75572029999998,137.59946939999998,60.0,66.0
585,136.75572029999998,137.64174876666667,57.0,83.0
586,137.1968963,137.65461639999998,54.0,55.0
587,138.29983629999998,138.5479978,51.0,78.0
588,138.0792483,138.5976301,47.0,85.0
589,137.63807229999998,138.83108573333334,35.0,75.0
590,137.8586603,138.87520333333333,42.0,57.0
591,138.5204243,139.0388061,54.0,107.0
592,138.7410123,139.07557076666666,47.0,81.0
593,138.9616003,139.33659989999998,51.0,92.0
594,139.18218829999998,139.3807175,54.0,81.0
595,139.84395229999998,140.44321636666666,47.0,56.0
596,140.5057163,140.72446606666665,47.0,63.0
597,139.4027763,140.76858366666664,40.0,85.0
598,140.9468923,141.20240673333333,52.0,71.0
599,140.2851283,141.20240673333333,59.0,90.0
600,140.72630429999998,141.20975966666666,55.0,74.0
601,141.6086563,142.35130256666667,45.0,26.0
602,141.1674803,142.496523,38.0,77.0
603,142.49100829999998,142.88071376666664,50.0,66.0
604,142.0498323,142.91380196666665,54.0,85.0
605,142.0498323,142.9266696,57.0,79.0
606,143.3733603,144.3384328,43.0,71.0
607,142.9321843,144.37335923333333,36.0,90.0
608,144.2557123,144.6987265333333,52.0,90.0
609,143.8145363,144.6987265333333,55.0,97.0
610,145.1380643,145.64357846666667,47.0,85.0
611,144.69688829999998,145.88438703333333,35.0,88.0
612,145.57924029999998,146.356813,51.0,82.0
613,145.57924029999998,146.38806296666667,54.0,86.0
614,147.34394429999998,147.67666453333334,60.0,96.0
615,146.9027683,147.790635,52.0,79.0
616,146.4615923,147.84945846666665,45.0,85.0
617,147.5645323,148.2483551,57.0,72.0
618,147.7851203,148.26857566666666,64.0,73.0
619,148.6674723,149.20423643333334,50.0,41.0
620,148.2262963,149.34394216666666,43.0,81.0
621,149.1086483,149.87151513333333,62.0,85.0
622,149.1086483,149.88622099999998,59.0,82.0
623,149.54982429999998,149.98180913333331,55.0,70.0
624,150.43217629999998,150.9229846,54.0,85.0
625,149.9910003,151.0387933,42.0,83.0
626,151.3145283,151.76857193333333,60.0,73.0
627,150.8733523,151.816366,57.0,83.0
628,153.0792323,154.98728258333333,51.0,55.0
629,153.52040829999999,155.04850708333333,54.0,69.0
630,152.6380563,155.1684050625,47.0,52.0
631,152.19688029999998,155.1837111875,42.0,51.0
632,151.7557043,155.19646629166667,35.0,72.0
633,156.5153440625,157.24748704166666,52.0,52.0
634,156.8214665625,157.26024214583333,55.0,53.0
635,157.43371156249998,157.82146672916667,52.0,55.0
636,156.2092215625,157.87503816666666,47.0,38.0
637,155.9030990625,158.0000381875,40.0,60.0
638,157.7398340625,158.42350764583333,55.0,54.0
639,158.04595656249998,158.43116070833332,52.0,41.0
640,157.1275890625,158.44646683333332,59.0,67.0
641,159.27044656249998,159.64034458333333,54.0,59.0
642,158.65820156249998,159.71687520833333,45.0,45.0
643,158.9643240625,159.767895625,50.0,50.0
644,159.88269156249999,160.1122834375,45.0,60.0
645,158.3520790625,160.15565079166666,38.0,66.0
646,160.4949365625,160.75258966666667,50.0,68.0
647,159.5765690625,160.76024272916666,57.0,95.0
648,160.1888140625,160.77554885416666,54.0,81.0
649,161.4133040625,162.21432460416665,48.0,63.0
650,160.8010590625,162.54340629166666,36.0,69.0
651,161.1071815625,162.5918756875,43.0,53.0
652,162.3316715625,162.67095733333332,48.0,53.0
653,161.7194265625,162.7296308125,55.0,71.0
654,162.9439165625,163.25514110416665,55.0,72.0
655,162.0255490625,163.2806513125,64.0,86.0
656,162.6377940625,163.29340641666667,60.0,52.0
657,164.1684065625,164.54085560416667,62.0,59.0
658,163.5561615625,164.65310052083333,54.0,49.0
659,163.86228406249998,164.80361075,59.0,63.0
660,164.7806515625,165.0561618125,54.0,51.0
661,163.25003906249998,165.08422304166666,47.0,65.0
662,164.47452906249998,165.64799864583333,66.0,102.0
663,165.08677406249998,165.6862639583333,62.0,71.0
664,165.3928965625,165.74748845833332,59.0,58.0
665,166.6173865625,166.93371314583334,60.0,73.0
666,166.3112640625,166.98983560416667,57.0,77.0
667,166.0051415625,167.0102437708333,52.0,58.0
668,167.2296315625,167.5816724375,52.0,59.0
669,165.69901906249999,167.58422345833333,45.0,79.0
670,167.5357540625,168.13779497916667,60.0,102.0
671,166.9235090625,168.14544804166667,64.0,100.0
672,167.8418765625,168.16075416666666,57.0,72.0
673,168.7602440625,169.52044827083333,55.0,61.0
674,169.06636656249998,169.53830541666665,59.0,58.0
675,168.4541215625,169.55871358333332,50.0,65.0
676,169.67861156249998,169.87248914583333,50.0,53.0
677,168.1479990625,169.89034629166667,43.0,78.0
678,169.9847340625,170.37759127083334,55.0,79.0
679,170.29085656249998,170.37759127083334,55.0,29.0
680,169.3724890625,170.59953008333332,62.0,97.0
681,170.29085656249998,170.60718314583332,59.0,63.0
682,171.2092240625,171.58677514583331,57.0,68.0
683,171.51534656249999,171.74238741666665,60.0,72.0
684,170.90310156249998,171.88269356249998,54.0,61.0
685,170.5969790625,172.27299975,42.0,85.0
686,172.1275915625,172.3571834375,54.0,68.0
687,171.8214690625,172.45667325,60.0,85.0
688,172.4337140625,172.87248964583333,57.0,81.0
689,172.7398365625,173.00514272916666,60.0,83.0
690,173.9643265625,174.3240205,63.0,96.0
691,173.65820406249998,174.3775919375,59.0,76.0
692,173.3520815625,174.38014295833332,54.0,71.0
693,174.5765715625,174.69391852083334,54.0,83.0
694,173.0459590625,174.7704491458333,47.0,65.0
695,174.2704490625,175.45157170833332,66.0,122.0
696,174.88269406249998,175.49493906249998,63.0,122.0
697,175.1888165625,175.56636764583334,59.0,96.0
698,176.10718406249998,176.82146989583333,52.0,90.0
699,176.4133065625,176.82146989583333,59.0,86.0
700,177.0255515625,177.24238833333334,52.0,82.0
701,175.8010615625,177.5765720625,47.0,64.0
702,175.49493906249998,177.6377965625,40.0,81.0
703,176.71942906249998,177.920959875,67.0,102.0
704,177.33167406249999,177.92606191666667,64.0,93.0
705,177.6377965625,177.9898374375,59.0,70.0
706,178.5561640625,179.3520825625,50.0,85.0
707,178.2500415625,179.45412339583334,45.0,44.0
708,178.8622865625,179.51534789583332,57.0,81.0
709,177.9439190625,179.83167447916665,38.0,72.0
710,179.47453156249998,180.42351131249998,62.0,77.0
711,179.1684090625,180.45667458333332,66.0,122.0
712,179.7806540625,180.46432764583332,57.0,78.0
713,181.0051440625,181.7857564375,48.0,53.0
714,181.31126656249998,181.79085847916667,55.0,75.0
715,180.69902156249998,182.16585854166667,43.0,45.0
716,180.3928990625,182.18881772916666,36.0,63.0
717,181.92351156249998,182.3061646875,48.0,50.0
718,182.53575656249998,182.80616477083333,55.0,71.0
719,181.6173890625,182.81381783333333,64.0,92.0
720,182.2296340625,182.81636885416665,60.0,59.0
721,183.4541240625,184.18371602083332,59.0,57.0
722,183.14800156249999,184.59187935416665,54.0,59.0
723,182.8418790625,184.64034875,47.0,72.0
724,184.0663690625,185.26789987499998,66.0,97.0
725,183.7602465625,185.29085906249998,63.0,78.0
726,184.6786140625,185.36228764583333,59.0,73.0
727,186.2092265625,186.53320620833333,60.0,78.0
728,185.9031040625,186.63524704166667,57.0,78.0
729,185.5969815625,186.6913695,52.0,55.0
730,186.8214715625,187.0663695625,52.0,69.0
731,185.29085906249998,187.1582063125,45.0,82.0
732,186.51534906249998,187.74749212499998,64.0,107.0
733,187.12759406249998,187.75259416666665,60.0,96.0
734,187.4337165625,187.78830845833332,57.0,85.0
735,188.6582065625,188.91330864583333,59.0,89.0
736,188.35208406249998,189.07402295833333,55.0,82.0
737,188.0459615625,189.10718622916664,50.0,78.0
738,189.2704515625,189.41841077083333,50.0,85.0
739,187.73983906249998,189.44392097916665,43.0,81.0
740,188.96432906249998,189.60208427083333,59.0,79.0
741,189.5765740625,190.10973741666666,55.0,83.0
742,188.96432906249998,190.12759456249998,62.0,102.0
743,189.88269656249997,190.181166,59.0,99.0
744,190.8010640625,191.14290085416667,57.0,90.0
745,191.10718656249998,191.32402333333332,60.0,78.0
746,190.4949415625,191.54596214583333,54.0,77.0
747,190.1888190625,191.88014587499998,42.0,107.0
748,191.7194315625,191.92861527083332,54.0,85.0
749,191.4133090625,192.07657447916665,60.0,122.0
750,192.0255540625,192.1173908125,57.0,99.0
751,192.6377990625,193.06126852083332,59.0,75.0
752,192.6377990625,193.35463591666667,63.0,85.0
753,192.6377990625,193.6199420833333,66.0,85.0
754,193.8622890625,195.645452625,66.0,56.0
755,192.94392156249998,195.6556567083333,54.0,63.0
756,193.55616656249998,195.65820772916666,63.0,38.0
757,193.2500440625,195.66841181249998,59.0,66.0
758,195.0867790625,195.66841181249998,59.0,45.0
759,192.6377990625,195.69392202083333,47.0,75.0
760,195.0867790625,195.69392202083333,47.0,40.0
761,195.0867790625,198.38269797916666,52.0,37.0
762,195.0867790625,198.4031061458333,40.0,36.0
763,195.0867790625,198.45667758333332,64.0,55.0
764,195.0867790625,198.48218779166666,67.0,51.0
765,201.031912975,201.200391,52.0,72.0
766,201.901476975,202.02104202499999,52.0,83.0
767,202.336258975,202.47212835,47.0,79.0
768,202.771040975,202.88517125,52.0,86.0
769,202.771040975,203.12792453333333,45.0,122.0
770,203.205822975,203.55908335,47.0,117.0
771,203.640604975,204.04096673333333,48.0,112.0
772,204.075386975,204.51560375,47.0,127.0
773,204.944950975,205.40690685,52.0,75.0
774,205.162341975,205.6569065,59.0,77.0
775,204.510168975,205.75654404166667,40.0,93.0
776,204.727559975,205.78552950833333,47.0,56.0
777,205.597123975,205.83806566666667,52.0,92.0
778,205.814514975,206.30545631666666,64.0,97.0
779,205.379732975,206.31632586666666,67.0,107.0
780,206.031905975,206.32900700833332,59.0,92.0
781,206.684078975,207.12067256666666,57.0,61.0
782,206.466687975,207.17502031666666,54.0,81.0
783,206.249296975,207.46849816666668,42.0,89.0
784,207.336251975,207.50110681666666,54.0,95.0
785,207.118860975,207.597121175,60.0,117.0
786,207.553642975,207.857990375,57.0,127.0
787,207.771033975,207.95762791666667,60.0,100.0
788,208.423206975,208.705815275,55.0,83.0
789,208.640597975,208.76378620833333,62.0,99.0
790,208.205815975,208.934075825,50.0,78.0
791,209.075379975,209.30545211666666,50.0,92.0
792,207.988424975,209.3090753,43.0,78.0
793,209.292770975,209.5264663,55.0,102.0
794,208.857988975,209.586248825,62.0,122.0
795,209.510161975,209.618857475,60.0,89.0
796,209.727552975,209.75472685,43.0,82.0
797,209.727552975,210.05907425,57.0,117.0
798,209.727552975,210.086248125,45.0,100.0
799,210.162334975,210.46849396666667,59.0,127.0
800,210.162334975,210.47392874166667,47.0,107.0
801,210.597116975,210.92682665833334,60.0,127.0
802,210.597116975,210.98117440833335,48.0,122.0
803,211.031898975,211.303637725,47.0,112.0
804,211.031898975,211.31631886666668,59.0,127.0
805,211.90146297500002,212.40327386666667,52.0,100.0
806,212.118853975,212.53370846666667,59.0,96.0
807,211.466680975,212.6568967,40.0,90.0
808,211.684071975,212.74022991666666,47.0,95.0
809,212.553635975,212.75109946666666,52.0,99.0
810,212.771026975,213.14602645,64.0,112.0
811,212.336244975,213.162330775,67.0,127.0
812,212.988417975,213.22754807500002,59.0,99.0
813,213.857981975,213.99385135,60.0,81.0
814,213.640590975,214.03008318333335,57.0,77.0
815,213.423199975,214.14964823333332,54.0,78.0
816,213.205808975,214.42319857500001,42.0,117.0
817,214.292763975,214.44674926666667,54.0,99.0
818,214.075372975,214.47211155,60.0,95.0
819,214.510154975,214.79095168333333,57.0,97.0
820,214.727545975,214.91595150833334,60.0,107.0
821,215.379718975,215.76196481666668,55.0,72.0
822,215.597109975,215.76739959166667,59.0,93.0
823,215.162327975,215.868848725,50.0,96.0
824,215.814500975,216.22935546666668,62.0,122.0
825,214.944936975,216.33442778333333,43.0,81.0
826,216.031891975,216.37247120833334,50.0,102.0
827,216.249282975,216.50109421666667,59.0,112.0
828,216.466673975,216.61341290000001,62.0,102.0
829,216.684064975,216.98660078333333,57.0,117.0
830,216.684064975,217.02826739166667,45.0,107.0
831,217.118846975,217.39964368333332,59.0,127.0
832,217.118846975,217.401455275,47.0,99.0
833,217.553628975,217.87065751666665,60.0,127.0
834,217.553628975,217.934063225,48.0,117.0
835,217.988410975,218.27101927500001,47.0,107.0
836,217.988410975,218.29094678333334,59.0,127.0
837,218.857974975,219.38152496666666,52.0,96.0
838,219.075365975,219.47935091666668,59.0,85.0
839,218.423192975,219.63877098333333,40.0,82.0
840,218.640583975,219.68768395833334,47.0,92.0
841,219.510147975,219.71848101666666,52.0,92.0
842,219.72753897500002,220.0481907,64.0,96.0
843,219.292756975,220.113408,67.0,117.0
844,219.944929975,220.184060075,59.0,97.0
845,220.60101930000002,220.87675430000002,57.0,96.0
846,220.8216073,220.94476893333334,60.0,100.0
847,220.38043130000003,221.11204816666668,54.0,86.0
848,220.162320975,221.39145963333334,42.0,117.0
849,221.26278330000002,221.42270960000002,54.0,99.0
850,221.0421953,221.46315073333335,60.0,122.0
851,221.48337130000002,221.75726806666668,57.0,100.0
852,221.7039593,221.8804297,60.0,102.0
853,222.3657233,222.69476706666669,55.0,77.0
854,222.5863113,222.72234056666667,59.0,92.0
855,222.14513530000002,222.85101690000002,50.0,99.0
856,222.80689930000003,223.18925183333334,62.0,112.0
857,223.2480753,223.50542796666667,59.0,102.0
858,223.02748730000002,223.52197206666668,50.0,96.0
859,221.9245473,223.5458691,43.0,81.0
860,223.4686633,223.59917786666668,62.0,100.0
861,223.68925130000002,223.9760157,57.0,127.0
862,223.68925130000002,224.04770680000001,45.0,107.0
863,224.1304273,224.41167700000003,47.0,117.0
864,224.1304273,224.41167700000003,59.0,122.0
865,224.57160330000002,224.83052195416667,61.0,127.0
866,224.57160330000002,224.83746639791667,49.0,117.0
867,225.08283674375,226.02939439166667,51.0,127.0
868,225.08283674375,226.02939439166667,63.0,127.0
869,226.119973975,226.36453885,52.0,92.0
870,226.33736497499999,226.57468348333333,55.0,92.0
871,225.902582975,226.66888624999999,47.0,88.0
872,225.63839224375,226.89895839166667,40.0,89.0
873,226.772146975,226.90439316666667,47.0,75.0
874,227.20692897499998,227.4188852,52.0,90.0
875,226.989537975,227.45330544166666,55.0,93.0
876,226.554755975,227.51852274166666,59.0,97.0
877,227.859101975,228.10004366666666,55.0,85.0
878,228.076492975,228.20873916666667,59.0,107.0
879,227.641710975,228.29750715833333,51.0,83.0
880,228.511274975,228.67612981666667,51.0,93.0
881,228.293883975,228.68881095833333,59.0,99.0
882,227.424319975,228.717796425,39.0,96.0
883,228.72866597499998,229.011274275,55.0,93.0
884,228.946056975,229.11815818333332,59.0,102.0
885,229.59822997499998,229.95873671666666,50.0,81.0
886,229.815620975,229.98772218333332,54.0,96.0
887,229.380838975,230.076490175,45.0,79.0
888,229.163447975,230.3754028,38.0,72.0
889,230.250402975,230.37902598333332,45.0,95.0
890,230.467793975,230.79569206666667,54.0,112.0
891,230.033011975,230.815619575,57.0,100.0
892,230.685184975,230.89895279166666,50.0,97.0
893,231.337357975,231.61815468333333,52.0,86.0
894,231.554748975,231.706922675,55.0,77.0
895,231.11996697499998,231.85185000833332,49.0,81.0
896,231.989530975,232.16163218333332,49.0,95.0
897,230.902575975,232.16887855,37.0,96.0
898,231.772139975,232.27576245833333,55.0,99.0
899,232.206921975,232.47322595,52.0,100.0
900,232.424312975,232.59460259166667,55.0,89.0
901,233.076485975,233.27032628333333,52.0,92.0
902,233.293876975,233.44967385833334,55.0,93.0
903,232.859094975,233.58192005,47.0,88.0
904,232.64170397499998,233.8319197,40.0,86.0
905,233.728658975,233.86633994166667,47.0,82.0
906,233.511267975,233.97684703333334,59.0,117.0
907,233.946049975,234.19423803333333,55.0,95.0
908,234.163440975,234.62177366666666,59.0,93.0
909,234.815613975,235.06017885,55.0,78.0
910,235.03300497499998,235.17612071666667,59.0,99.0
911,234.598222975,235.32829441666667,51.0,82.0
912,235.467786975,235.63445340833334,51.0,92.0
913,235.250395975,235.68155479166666,59.0,96.0
914,234.380831975,235.71597503333334,39.0,99.0
915,235.685177975,235.98771378333333,55.0,88.0
916,235.902568975,236.11271360833334,59.0,93.0
917,236.55474197499998,236.902567575,50.0,75.0
918,236.772132975,236.93155304166666,54.0,89.0
919,236.337350975,237.04206013333334,45.0,78.0
920,236.119959975,237.3101757,38.0,69.0
921,237.206914975,237.35727708333332,45.0,88.0
922,236.989523975,237.73589974166666,57.0,99.0
923,237.42430597499998,237.77937794166667,54.0,100.0
924,237.641696975,237.81923295833332,50.0,92.0
925,238.293869975,238.68879695833334,52.0,88.0
926,238.076478975,238.82285474166667,49.0,82.0
927,238.728651975,238.99495595,52.0,76.0
928,238.94604297499998,239.19423103333332,49.0,85.0
929,238.728651975,239.25220196666666,55.0,97.0
930,237.859087975,239.36814383333333,37.0,89.0
931,239.163433975,239.478650925,52.0,102.0
932,239.380824975,239.619955075,55.0,97.0
933,239.598215975,239.73227375833332,53.0,61.0
934,239.598215975,239.76853223333333,54.0,117.0
935,239.598215975,239.90088503333334,60.0,76.0
936,239.598215975,239.90823796666666,57.0,78.0
937,239.598215975,239.94500263333333,42.0,76.0
938,240.0369143,240.3347081,60.0,85.0
939,240.0369143,240.34389926666665,57.0,90.0
940,240.0369143,240.35309043333334,54.0,117.0
941,240.0369143,240.35492866666667,42.0,65.0
942,240.4780903,240.7483106,42.0,95.0
943,240.4780903,240.7483106,57.0,102.0
944,240.4780903,240.7483106,60.0,99.0
945,240.4780903,240.75750176666668,54.0,122.0
946,240.9192663,241.0295603,57.0,95.0
947,240.9192663,241.03323676666668,54.0,122.0
948,240.9192663,241.03323676666668,60.0,86.0
949,240.9192663,241.1288249,42.0,112.0
950,241.3604423,241.67294196666666,48.0,88.0
951,241.3604423,241.67294196666666,64.0,95.0
952,241.3604423,241.67661843333335,55.0,92.0
953,241.3604423,241.67845666666668,60.0,99.0
954,241.8016183,242.07551506666667,48.0,93.0
955,241.8016183,242.08102976666666,64.0,89.0
956,241.8016183,242.0938974,55.0,93.0
957,241.8016183,242.09757386666666,60.0,99.0
958,242.2427943,242.5350734,48.0,96.0
959,242.2427943,242.5626469,55.0,97.0
960,242.2427943,242.5681616,64.0,97.0
961,242.2427943,242.579191,60.0,107.0
962,242.6839703,242.8328672,60.0,88.0
963,242.6839703,242.84022013333333,64.0,82.0
964,242.6839703,242.95602883333333,55.0,97.0
965,242.6839703,242.96889646666668,48.0,107.0
966,243.1251463,243.461543,67.0,89.0
967,243.1251463,243.46338123333334,64.0,92.0
968,243.1251463,243.4725724,61.0,127.0
969,243.1251463,243.4891165,49.0,112.0
970,243.5663223,243.85492493333334,67.0,82.0
971,243.5663223,243.8586014,64.0,85.0
972,243.5663223,243.87698373333333,61.0,112.0
973,243.5663223,243.88433666666666,49.0,69.0
974,244.0074983,244.30161563333334,49.0,96.0
975,244.0074983,244.30345386666667,67.0,92.0
976,244.0074983,244.30713033333333,64.0,96.0
977,244.0074983,244.32918913333333,61.0,122.0
978,244.4486743,244.75565926666667,61.0,127.0
979,244.4486743,244.75565926666667,67.0,96.0
980,244.4486743,244.77220336666667,64.0,97.0
981,244.4486743,244.840218,49.0,117.0
982,244.8898503,246.61227493333334,67.0,86.0
983,244.8898503,246.62330433333332,61.0,122.0
984,244.8898503,246.63065726666667,64.0,95.0
985,244.8898503,246.69131896666667,49.0,99.0
986,246.77771593333333,246.91925990000001,59.0,42.0
987,246.67293663333334,247.00933333333333,63.0,50.0
988,246.63433373333334,247.03874506666668,66.0,39.0
989,247.78322956666668,248.0718322,63.0,75.0
990,248.0001411,248.11778803333334,66.0,82.0
991,248.24094966666667,248.61043456666667,71.0,70.0
992,248.50014056666666,248.81631670000002,75.0,77.0
993,248.7611697,248.8769784,78.0,71.0
994,249.03139,249.61410996666666,83.0,65.0
995,249.3016103,249.64168346666668,87.0,81.0
996,249.5773453,249.68028636666668,90.0,72.0
997,250.18763876666668,251.59940196666668,99.0,40.0
998,250.66557943333333,251.60307843333334,102.0,56.0
999,249.86778616666666,251.63616663333335,95.0,66.0
1000,247.5038181,251.6674166,59.0,92.0
1001,247.20786253333333,251.70418126666667,54.0,61.0
1002,246.77403946666666,251.7501371,47.0,75.0
1003,254.80295533333333,255.49462215,52.0,46.0
1004,254.825872,255.50578286875,45.0,37.0
1005,254.700872,255.6151579125,57.0,41.0
1006,254.88003866666665,255.6240864875,64.0,57.0
1007,254.782122,255.69551508749998,60.0,47.0
1008,255.93658661249998,256.29521765625003,50.0,29.0
1009,255.985693775,256.4850324520834,66.0,61.0
1010,255.88747945,256.4989213395834,62.0,51.0
1011,255.79819369999998,256.5359583729167,57.0,58.0
1012,257.0012361041667,259.29495019583334,43.0,44.0
1013,256.8692916729167,259.30696942500003,55.0,38.0
1014,256.9526249979167,259.3141809625,59.0,40.0
1015,257.04521758125003,259.3430271125,62.0,55.0
1016,259.1699502125,259.6651424541667,54.0,44.0
1017,259.30937327083336,259.68918091250003,42.0,36.0
1018,259.2901425041667,259.7012001416667,57.0,48.0
1019,259.3911040291667,259.7733155166667,60.0,40.0
1020,260.54495002916667,261.4728837916667,54.0,33.0
1021,260.42235389166666,261.666761375,59.0,51.0
1022,261.4422715416667,261.666761375,59.0,34.0
1023,260.48485388333336,261.67696545833337,63.0,42.0
1024,260.58341156250003,261.6820675,47.0,36.0
1025,260.576200025,261.7024756666667,66.0,61.0
1026,261.6182919791667,262.1820675833334,67.0,53.0
1027,261.52135318750004,262.187169625,64.0,48.0
1028,261.6565572916667,263.97033318750005,40.0,59.0
1029,262.233088,263.9754352291667,47.0,48.0
1030,262.8070676875,264.0443127916667,55.0,42.0
1031,262.79941462500005,264.0596189166667,59.0,44.0
1032,263.9422719583334,264.2279862916667,57.0,55.0
1033,263.9983944166667,264.3810475416667,52.0,39.0
1034,264.01625156250003,264.5034965416667,45.0,25.0
1035,264.0443127916667,264.59278227083337,60.0,40.0
1036,264.1514556666667,264.60553737500004,64.0,67.0
1037,265.2356395208334,265.5749252916667,50.0,37.0
1038,265.3147211666667,265.61574162500006,38.0,35.0
1039,265.2841089166667,265.77645593750003,54.0,44.0
1040,265.39635383333336,265.83002737500004,57.0,57.0
1041,266.44482339583334,268.1693134791667,55.0,39.0
1042,266.52135402083337,269.09788506250004,59.0,37.0
1043,266.6157417916667,269.1182932291667,62.0,67.0
1044,266.55196627083336,269.12849731250003,50.0,37.0
1045,266.5749254583334,269.1489054791667,43.0,34.0
1046,268.921864625,269.48819125,54.0,40.0
1047,268.93717075,269.4907422708334,42.0,32.0
1048,269.0494156666667,269.5060483958334,57.0,45.0
1049,269.10043608333336,269.5596198333334,60.0,49.0
1050,270.3580893541667,270.8613439166667,54.0,27.0
1051,270.41676283333334,270.92384387083337,47.0,46.0
1052,270.3274771041667,270.9712576291667,63.0,37.0
1053,270.4601301875,270.98849899583337,66.0,64.0
1054,270.2585995416667,271.00574036250003,59.0,45.0
1055,272.2686704708334,275.92829246666673,40.0,27.0
1056,272.24065325000004,275.9429983333334,52.0,35.0
1057,272.3139290583334,275.9466748000001,55.0,43.0
1058,272.27298081250007,275.95035126666676,47.0,30.0
1059,272.39582555000004,275.9705718333334,59.0,54.0
1060,275.98343946666677,276.2031749333334,64.0,65.0
1061,276.19955175000007,276.4042616083334,71.0,68.0
1062,276.41331956666676,276.6778119500001,67.0,50.0
1063,276.6343337500001,276.8299856500001,71.0,69.0
1064,276.84810156666674,277.1162171333334,64.0,55.0
1065,277.0528114250001,277.2828835666668,71.0,67.0
1066,277.2810719750001,277.5564339083334,67.0,48.0
1067,277.4966513833334,277.66694100000007,71.0,67.0
1068,275.9981453333334,277.6959264666668,40.0,33.0
1069,277.7212887500001,277.9712884000001,62.0,55.0
1070,277.94049134166676,278.16331711666675,71.0,63.0
1071,278.1560707500001,278.3988240333334,67.0,56.0
1072,278.36621538333344,278.5799832000001,71.0,63.0
1073,278.59809911666673,278.8734610500001,62.0,44.0
1074,278.7955626083334,279.0147652000001,71.0,68.0
1075,279.0201999750001,279.2846923583334,67.0,51.0
1076,277.7321583000001,279.4060690000001,38.0,30.0
1077,279.22853301666674,279.45135879166673,71.0,74.0
1078,279.4386776500001,279.70135844166674,64.0,54.0
1079,279.6633150166668,279.90244511666674,71.0,69.0
1080,279.8897639750001,280.1270824833334,67.0,56.0
1081,280.1017202000001,280.4187487416668,71.0,68.0
1082,280.5401253833334,280.69592226666674,67.0,53.0
1083,280.3354155250001,280.7049802250001,64.0,50.0
1084,280.9386755500001,281.1307042666668,64.0,48.0
1085,279.43505446666677,281.13613904166675,36.0,45.0
1086,280.71041500000007,281.1904867916668,71.0,67.0
1087,281.17961724166673,281.44048644166674,67.0,40.0
1088,281.3788923250001,281.67055858333345,62.0,38.0
1089,281.6162108333334,281.8951959500001,67.0,53.0
1090,281.8299786500001,282.09447103333343,62.0,51.0
1091,282.0401232833334,282.3281663583334,71.0,77.0
1092,281.1759940583334,282.36439819166674,43.0,38.0
1093,282.23758677500007,282.76657154166674,62.0,69.0
1094,282.47490528333344,282.77200631666676,67.0,50.0
1095,282.6941078750001,282.9640350333334,71.0,66.0
1096,282.93504956666675,283.1180203250001,69.0,47.0
1097,283.1506289750001,283.4278025000001,64.0,47.0
1098,283.37526634166676,283.6506282750001,69.0,57.0
1099,283.5799762000001,283.8843236000001,64.0,50.0
1100,283.78830924166675,284.15606235000007,72.0,79.0
1101,282.90244091666676,284.2647578500001,45.0,42.0
1102,284.0057002416668,284.28468535833343,64.0,63.0
1103,284.2303376083334,284.38069971666675,72.0,28.0
1104,284.2321492000001,284.4549749750001,69.0,55.0
1105,284.42780110000007,284.6705543833334,64.0,71.0
1106,284.65425005833345,284.88069901666677,67.0,46.0
1107,284.81729330833343,285.07816250833343,62.0,47.0
1108,285.1071479750001,285.38613309166675,67.0,52.0
1109,285.2520753083334,285.54011838333344,62.0,54.0
1110,285.5419299750001,285.8553353333334,71.0,72.0
1111,285.6868573083334,285.95316128333343,62.0,58.0
1112,284.66511960833344,286.0781611083334,43.0,46.0
1113,285.9767119750001,286.1723638750001,67.0,56.0
1114,286.12163930833344,286.3553346333334,62.0,67.0
1115,286.38069691666675,286.6125806500001,66.0,68.0
1116,286.59808791666677,286.83178324166676,69.0,61.0
1117,286.8027977750001,287.14881178333343,66.0,67.0
1118,287.03468150833345,287.2973623000001,69.0,64.0
1119,286.3843201000001,287.47852146666673,42.0,41.0
1120,287.2412029583334,287.62526039166676,72.0,73.0
1121,287.4930142000001,288.0799699000001,66.0,60.0
1122,287.94591211666676,288.09989740833345,72.0,41.0
1123,287.7049704250001,288.1017090000001,69.0,63.0
1124,288.8172877083334,289.07091054166676,63.0,64.0
1125,288.60351989166674,289.15424375833345,59.0,55.0
1126,288.4096795833334,289.1669249000001,54.0,64.0
1127,288.1560567500001,289.3100406416668,47.0,42.0
1128,289.2375769750001,289.48576503333345,63.0,77.0
1129,289.4440984250001,289.74663423333345,59.0,48.0
1130,289.62525759166675,289.74663423333345,63.0,69.0
1131,289.02199756666676,289.74663423333345,66.0,90.0
1132,289.9024311166668,290.08721346666675,64.0,69.0
1133,290.1053293833334,290.33177834166673,71.0,69.0
1134,290.32272038333343,290.5781548083334,67.0,66.0
1135,290.5201838750001,290.7575023833334,71.0,77.0
1136,290.7556907916668,290.95315428333345,52.0,40.0
1137,290.36076380833345,290.9930093000001,47.0,42.0
1138,290.76112556666675,291.0256179500001,64.0,76.0
1139,289.8897499750001,291.1234439000001,40.0,50.0
1140,290.9585890583334,291.2085887083334,71.0,89.0
1141,291.1705452833334,291.4277913000001,67.0,72.0
1142,291.3825015083334,291.6325011583334,71.0,72.0
1143,291.60351569166676,291.8734428500001,62.0,53.0
1144,291.8136603250001,292.0020658583334,66.0,65.0
1145,292.0256165500001,292.2919205250001,69.0,77.0
1146,292.2375727750001,292.5074999333334,66.0,58.0
1147,292.4966303833334,292.6180070250001,45.0,34.0
1148,291.5853997750001,292.6759779583334,38.0,51.0
1149,292.45315218333343,292.75206480833344,62.0,86.0
1150,292.67054318333345,293.06003539166676,69.0,81.0
1151,292.88249940833344,293.15423815833344,66.0,79.0
1152,293.0962672250001,293.28467275833344,62.0,66.0
1153,293.31909300000007,293.65061427500007,67.0,72.0
1154,293.5527883250001,293.79554160833345,64.0,43.0
1155,293.74481704166675,294.11075855833343,60.0,59.0
1156,293.96220804166677,294.1125701500001,64.0,59.0
1157,293.3136582250001,294.31546841666676,36.0,56.0
1158,293.7756141000001,294.3227147833334,43.0,27.0
1159,294.1777874500001,294.4024248166668,48.0,43.0
1160,294.1759758583334,294.58177239166673,67.0,90.0
1161,294.3915552666668,294.5962651250001,64.0,64.0
1162,294.8245256750001,294.9585834583334,67.0,73.0
1163,294.5926419416668,294.96764141666677,60.0,63.0
1164,295.5093073250001,296.06727755833344,59.0,55.0
1165,295.28829314166677,296.09263984166677,54.0,37.0
1166,295.7393794666668,296.1306832666668,63.0,65.0
1167,295.04916304166676,296.36256700000007,47.0,49.0
1168,296.16148032500007,296.36437859166676,54.0,66.0
1169,296.3897408750001,296.85894311666675,63.0,56.0
1170,295.96220524166677,296.8770590333334,66.0,86.0
1171,297.48394224166674,297.66328981666675,60.0,64.0
1172,297.2810439750001,297.7701737250001,57.0,69.0
1173,297.0582182000001,297.77198531666676,52.0,50.0
1174,296.83358083333343,297.82633306666673,45.0,61.0
1175,297.9078546916668,298.0908254500001,60.0,55.0
1176,298.08720226666674,298.5038683500001,57.0,57.0
1177,298.29191212500007,298.5237958583334,60.0,63.0
1178,297.6814057333334,298.54010018333344,64.0,89.0
1179,298.98937491666675,299.21944705833346,55.0,67.0
1180,299.1669109000001,299.3897366750001,59.0,71.0
1181,298.76836073333345,299.4803162583334,50.0,39.0
1182,298.5129263083334,299.69046089166676,43.0,63.0
1183,299.5672726583334,299.70133044166676,50.0,63.0
1184,299.88611279166673,300.22488043333345,59.0,66.0
1185,299.4060410000001,300.23574998333345,62.0,89.0
1186,300.08176469166676,300.2520543083334,55.0,57.0
1187,300.3462570750001,301.1161835333334,60.0,63.0
1188,300.33901070833343,301.3408209000001,57.0,63.0
1189,300.34082230000007,302.16328351666675,42.0,86.0
1190,301.2864731500001,302.2158196750001,60.0,63.0
1191,300.84806796666675,302.3607470083334,54.0,35.0
1192,301.7556753916668,302.5708916416668,57.0,61.0
1193,303.4966149833334,306.0745099250001,59.0,35.0
1194,303.52922363333346,307.2810299750001,63.0,52.0
1195,303.72306394166674,307.2846531583334,69.0,38.0
1196,306.3245095750001,307.2864647500001,59.0,33.0
1197,303.6016873000001,307.28827634166674,66.0,52.0
1198,303.4857454333334,307.30095748333343,54.0,43.0
1199,303.3987890333334,307.31545021666676,47.0,37.0
1200,307.57088464166674,307.9476957083334,55.0,63.0
1201,307.9241450166668,308.29552130833343,57.0,60.0
1202,308.2918981250001,308.7049410250001,55.0,65.0
1203,308.67414396666675,309.0636361750001,57.0,62.0
1204,309.08899845833344,309.98935951666675,55.0,50.0
1205,309.9476929083334,310.7393584666668,58.0,58.0
1206,306.7049438250001,312.19044339166675,28.0,58.0
1207,310.7103730000001,312.27196501666674,57.0,72.0
1208,312.3299359500001,315.1505841750001,28.0,56.0
1209,312.1995013500001,315.17594645833344,59.0,39.0
1210,312.27739979166677,315.18681600833344,64.0,57.0
1211,312.3661677833334,315.19949715000007,67.0,69.0
