,start,end,pitch,velocity
0,18.26953125,18.41796875,68.0,127.0
1,18.50390625,18.78515625,76.0,100.0
2,18.73828125,18.96875,75.0,127.0
3,18.97265625,19.1953125,71.0,102.0
4,19.20703125,19.6171875,73.0,127.0
5,19.67578125,19.888671875,73.0,127.0
6,20.14453125,20.365234375,71.0,117.0
7,20.61328125,20.685546875,73.0,127.0
8,20.84765625,21.494140625,75.0,127.0
9,21.55078125,21.990234375,68.0,127.0
10,22.48828125,22.625,68.0,127.0
11,22.72265625,22.849609375,71.0,97.0
12,22.95703125,23.15234375,73.0,127.0
13,23.42578125,23.61328125,73.0,127.0
14,23.89453125,24.1015625,71.0,107.0
15,24.36328125,24.533203125,64.0,112.0
16,24.59765625,24.919921875,71.0,112.0
17,25.06640625,25.796875,68.0,127.0
18,26.23828125,26.31640625,66.0,122.0
19,26.47265625,26.546875,66.0,112.0
20,26.70703125,26.978515625,66.0,127.0
21,27.17578125,27.255859375,68.0,127.0
22,27.41015625,27.701171875,73.0,83.0
23,28.11328125,28.220703125,68.0,127.0
24,28.34765625,28.451171875,66.0,117.0
25,28.58203125,28.814453125,68.0,127.0
26,29.05078125,29.134765625,73.0,127.0
27,29.28515625,29.78515625,76.0,122.0
28,30.22265625,30.302734375,73.0,107.0
29,30.45703125,30.67578125,80.0,127.0
30,30.69140625,30.83984375,78.0,127.0
31,31.16015625,31.27734375,76.0,102.0
32,31.39453125,31.625,76.0,127.0
33,31.62890625,31.7578125,75.0,127.0
34,32.09765625,32.185546875,73.0,127.0
35,32.33203125,32.97265625,75.0,127.0
36,33.26953125,33.41796875,68.0,127.0
37,33.50390625,33.78515625,76.0,100.0
38,33.73828125,33.96875,75.0,127.0
39,33.97265625,34.1953125,71.0,102.0
40,34.20703125,34.6171875,73.0,127.0
41,34.67578125,34.888671875,73.0,127.0
42,35.14453125,35.365234375,71.0,117.0
43,35.61328125,35.685546875,73.0,127.0
44,35.84765625,36.494140625,75.0,127.0
45,36.55078125,36.990234375,68.0,127.0
46,37.48828125,37.625,68.0,127.0
47,37.72265625,37.849609375,71.0,97.0
48,37.95703125,38.15234375,73.0,127.0
49,38.42578125,38.61328125,73.0,127.0
50,38.89453125,39.1015625,71.0,107.0
51,39.36328125,39.533203125,64.0,112.0
52,39.59765625,39.919921875,71.0,112.0
53,40.06640625,40.796875,68.0,127.0
54,41.23828125,41.31640625,66.0,122.0
55,41.47265625,41.546875,66.0,112.0
56,41.70703125,41.978515625,66.0,127.0
57,42.17578125,42.255859375,68.0,127.0
58,42.41015625,42.701171875,73.0,83.0
59,43.11328125,43.220703125,68.0,127.0
60,43.34765625,43.451171875,66.0,117.0
61,43.58203125,43.814453125,68.0,127.0
62,44.05078125,44.134765625,73.0,127.0
63,44.28515625,44.78515625,76.0,122.0
64,45.22265625,45.302734375,73.0,107.0
65,45.45703125,45.67578125,80.0,127.0
66,45.69140625,45.83984375,78.0,127.0
67,46.16015625,46.27734375,76.0,102.0
68,46.39453125,46.625,76.0,127.0
69,46.62890625,46.7578125,75.0,127.0
70,47.09765625,47.185546875,73.0,127.0
71,47.33203125,47.97265625,75.0,127.0
72,48.50390625,48.736328125,73.0,127.0
73,48.97265625,49.142578125,72.0,127.0
74,49.20703125,50.447265625,73.0,127.0
75,53.42578125,53.544921875,61.0,117.0
76,53.66015625,53.791015625,63.0,97.0
77,53.89453125,54.203125,64.0,102.0
78,54.36328125,54.552734375,61.0,107.0
79,54.83203125,55.173828125,68.0,122.0
80,55.30078125,55.404296875,66.0,100.0
81,55.53515625,56.099609375,66.0,127.0
82,57.64453125,57.826171875,71.0,107.0
83,57.87890625,58.041015625,68.0,117.0
84,58.34765625,58.43359375,66.0,107.0
85,58.58203125,59.025390625,64.0,100.0
86,59.28515625,60.189453125,61.0,107.0
87,60.92578125,61.046875,61.0,100.0
88,61.16015625,61.271484375,63.0,95.0
89,61.39453125,61.671875,64.0,100.0
90,61.86328125,62.076171875,61.0,112.0
91,62.33203125,62.650390625,68.0,127.0
92,62.80078125,62.90625,66.0,122.0
93,63.03515625,63.49609375,66.0,127.0
94,63.73828125,63.890625,64.0,96.0
95,63.97265625,64.11328125,66.0,97.0
96,64.20703125,64.51171875,68.0,117.0
97,64.91015625,65.00390625,68.0,117.0
98,65.14453125,65.3359375,71.0,117.0
99,65.37890625,65.537109375,68.0,127.0
100,65.84765625,65.951171875,66.0,102.0
101,66.08203125,66.841796875,68.0,127.0
102,68.42578125,68.50390625,66.0,127.0
103,68.66015625,68.748046875,66.0,97.0
104,68.89453125,69.1328125,66.0,127.0
105,69.36328125,69.4375,68.0,102.0
106,69.59765625,70.41015625,69.0,117.0
107,71.23828125,71.333984375,69.0,112.0
108,71.47265625,71.5859375,69.0,96.0
109,71.70703125,71.935546875,68.0,117.0
110,72.17578125,72.271484375,66.0,97.0
111,72.41015625,72.736328125,68.0,117.0
112,73.11328125,74.095703125,64.0,112.0
113,74.98828125,75.072265625,63.0,117.0
114,75.22265625,75.32421875,63.0,93.0
115,75.45703125,76.150390625,64.0,112.0
116,76.62890625,76.90234375,61.0,99.0
117,77.09765625,77.224609375,63.0,100.0
118,77.33203125,77.88671875,64.0,99.0
119,78.26953125,78.5703125,64.0,102.0
120,78.73828125,79.02734375,66.0,112.0
121,79.20703125,79.521484375,68.0,122.0
122,79.67578125,79.78125,68.0,122.0
123,79.91015625,80.107421875,68.0,127.0
124,80.37890625,80.662109375,66.0,117.0
125,80.84765625,81.70703125,68.0,117.0
126,83.42578125,83.544921875,61.0,117.0
127,83.66015625,83.791015625,63.0,97.0
128,83.89453125,84.203125,64.0,102.0
129,84.36328125,84.552734375,61.0,107.0
130,84.83203125,85.173828125,68.0,122.0
131,85.30078125,85.404296875,66.0,100.0
132,85.53515625,86.099609375,66.0,127.0
133,87.64453125,87.826171875,71.0,107.0
134,87.87890625,88.041015625,68.0,117.0
135,88.34765625,88.43359375,66.0,107.0
136,88.58203125,89.025390625,64.0,100.0
137,89.28515625,90.189453125,61.0,107.0
138,90.92578125,91.046875,61.0,100.0
139,91.16015625,91.271484375,63.0,95.0
140,91.39453125,91.671875,64.0,100.0
141,91.86328125,92.076171875,61.0,112.0
142,92.33203125,92.650390625,68.0,127.0
143,92.80078125,92.90625,66.0,122.0
144,93.03515625,93.49609375,66.0,127.0
145,93.73828125,93.890625,64.0,96.0
146,93.97265625,94.11328125,66.0,97.0
147,94.20703125,94.51171875,68.0,117.0
148,94.91015625,95.00390625,68.0,117.0
149,95.14453125,95.3359375,71.0,117.0
150,95.37890625,95.537109375,68.0,127.0
151,95.84765625,95.951171875,66.0,102.0
152,96.08203125,97.95703125,68.0,127.0
153,98.42578125,98.50390625,66.0,127.0
154,98.66015625,98.748046875,66.0,97.0
155,98.89453125,99.1328125,66.0,127.0
156,99.36328125,99.4375,68.0,102.0
157,99.59765625,100.43359375,69.0,117.0
158,101.23828125,101.35546875,68.0,127.0
159,101.47265625,101.662109375,76.0,97.0
160,101.70703125,101.947265625,75.0,127.0
161,102.17578125,102.2890625,73.0,122.0
162,102.41015625,102.576171875,73.0,100.0
163,102.87890625,103.71484375,68.0,117.0
164,104.98828125,105.08984375,66.0,107.0
165,105.22265625,105.32421875,68.0,99.0
166,105.45703125,106.126953125,69.0,117.0
167,106.62890625,106.880859375,66.0,122.0
168,107.09765625,107.197265625,68.0,117.0
169,107.33203125,107.826171875,69.0,117.0
170,108.26953125,108.576171875,68.0,127.0
171,108.73828125,109.046875,66.0,117.0
172,109.20703125,109.4765625,68.0,127.0
173,109.67578125,109.765625,68.0,122.0
174,109.91015625,110.181640625,68.0,112.0
175,110.37890625,110.91015625,76.0,102.0
176,111.08203125,111.435546875,75.0,127.0
177,112.01953125,112.16796875,68.0,127.0
178,112.25390625,112.53515625,76.0,100.0
179,112.48828125,112.71875,75.0,127.0
180,112.72265625,112.9453125,71.0,102.0
181,112.95703125,113.3671875,73.0,127.0
182,113.42578125,113.638671875,73.0,127.0
183,113.89453125,114.115234375,71.0,117.0
184,114.36328125,114.435546875,73.0,127.0
185,114.59765625,115.244140625,75.0,127.0
186,115.30078125,115.740234375,68.0,127.0
187,116.23828125,116.375,68.0,127.0
188,116.47265625,116.599609375,71.0,97.0
189,116.70703125,116.90234375,73.0,127.0
190,117.17578125,117.36328125,73.0,127.0
191,117.64453125,117.8515625,71.0,107.0
192,118.11328125,118.283203125,64.0,112.0
193,118.34765625,118.669921875,71.0,112.0
194,118.81640625,119.546875,68.0,127.0
195,119.98828125,120.06640625,66.0,122.0
196,120.22265625,120.296875,66.0,112.0
197,120.45703125,120.728515625,66.0,127.0
198,120.92578125,121.005859375,68.0,127.0
199,121.16015625,121.451171875,73.0,83.0
200,121.86328125,121.970703125,68.0,127.0
201,122.09765625,122.201171875,66.0,117.0
202,122.33203125,122.564453125,68.0,127.0
203,122.80078125,122.884765625,73.0,127.0
204,123.03515625,123.53515625,76.0,122.0
205,123.97265625,124.052734375,73.0,107.0
206,124.20703125,124.42578125,80.0,127.0
207,124.44140625,124.58984375,78.0,127.0
208,124.91015625,125.02734375,76.0,102.0
209,125.14453125,125.375,76.0,127.0
210,125.37890625,125.5078125,75.0,127.0
211,125.84765625,125.935546875,73.0,127.0
212,126.08203125,126.72265625,75.0,127.0
213,127.01953125,127.16796875,68.0,127.0
214,127.25390625,127.53515625,76.0,100.0
215,127.48828125,127.71875,75.0,127.0
216,127.72265625,127.9453125,71.0,102.0
217,127.95703125,128.3671875,73.0,127.0
218,128.42578125,128.638671875,73.0,127.0
219,128.89453125,129.115234375,71.0,117.0
220,129.36328125,129.435546875,73.0,127.0
221,129.59765625,130.244140625,75.0,127.0
222,130.30078125,130.740234375,68.0,127.0
223,131.23828125,131.375,68.0,127.0
224,131.47265625,131.599609375,71.0,97.0
225,131.70703125,131.90234375,73.0,127.0
226,132.17578125,132.36328125,73.0,127.0
227,132.64453125,132.8515625,71.0,107.0
228,133.11328125,133.283203125,64.0,112.0
229,133.34765625,133.669921875,71.0,112.0
230,133.81640625,134.546875,68.0,127.0
231,134.98828125,135.06640625,66.0,122.0
232,135.22265625,135.296875,66.0,112.0
233,135.45703125,135.728515625,66.0,127.0
234,135.92578125,136.005859375,68.0,127.0
235,136.16015625,136.451171875,73.0,83.0
236,136.86328125,136.970703125,68.0,127.0
237,137.09765625,137.201171875,66.0,117.0
238,137.33203125,137.564453125,68.0,127.0
239,137.80078125,137.884765625,73.0,127.0
240,138.03515625,138.53515625,76.0,122.0
241,138.97265625,139.052734375,73.0,107.0
242,139.20703125,139.42578125,80.0,127.0
243,139.44140625,139.58984375,78.0,127.0
244,139.91015625,140.02734375,76.0,102.0
245,140.14453125,140.375,76.0,127.0
246,140.37890625,140.5078125,75.0,127.0
247,140.84765625,140.935546875,73.0,127.0
248,141.08203125,141.72265625,75.0,127.0
249,142.25390625,142.486328125,73.0,127.0
250,142.72265625,142.892578125,72.0,127.0
251,142.95703125,144.197265625,73.0,127.0
252,188.42578125,188.544921875,61.0,117.0
253,188.66015625,188.791015625,63.0,97.0
254,188.89453125,189.203125,64.0,102.0
255,189.36328125,189.552734375,61.0,107.0
256,189.83203125,190.173828125,68.0,122.0
257,190.30078125,190.404296875,66.0,100.0
258,190.53515625,191.099609375,66.0,127.0
259,192.64453125,192.826171875,71.0,107.0
260,192.87890625,193.041015625,68.0,117.0
261,193.34765625,193.43359375,66.0,107.0
262,193.58203125,194.025390625,64.0,100.0
263,194.28515625,195.189453125,61.0,107.0
264,195.92578125,196.046875,61.0,100.0
265,196.16015625,196.271484375,63.0,95.0
266,196.39453125,196.671875,64.0,100.0
267,196.86328125,197.076171875,61.0,112.0
268,197.33203125,197.650390625,68.0,127.0
269,197.80078125,197.90625,66.0,122.0
270,198.03515625,198.49609375,66.0,127.0
271,198.73828125,198.890625,64.0,96.0
272,198.97265625,199.11328125,66.0,97.0
273,199.20703125,199.51171875,68.0,117.0
274,199.91015625,200.00390625,68.0,117.0
275,200.14453125,200.3359375,71.0,117.0
276,200.37890625,200.537109375,68.0,127.0
277,200.84765625,200.951171875,66.0,102.0
278,201.08203125,202.95703125,68.0,127.0
279,203.42578125,203.50390625,66.0,127.0
280,203.66015625,203.748046875,66.0,97.0
281,203.89453125,204.1328125,66.0,127.0
282,204.36328125,204.4375,68.0,102.0
283,204.59765625,205.43359375,69.0,117.0
284,206.23828125,206.35546875,68.0,127.0
285,206.47265625,206.662109375,76.0,97.0
286,206.70703125,206.947265625,75.0,127.0
287,207.17578125,207.2890625,73.0,122.0
288,207.41015625,207.576171875,73.0,100.0
289,207.87890625,208.71484375,68.0,117.0
290,209.98828125,210.08984375,66.0,107.0
291,210.22265625,210.32421875,68.0,99.0
292,210.45703125,211.126953125,69.0,117.0
293,211.62890625,211.880859375,66.0,122.0
294,212.09765625,212.197265625,68.0,117.0
295,212.33203125,212.826171875,69.0,117.0
296,213.26953125,213.576171875,68.0,127.0
297,213.73828125,214.046875,66.0,117.0
298,214.20703125,214.4765625,68.0,127.0
299,214.67578125,214.765625,68.0,122.0
300,214.91015625,215.181640625,68.0,112.0
301,215.37890625,215.91015625,76.0,102.0
302,216.08203125,216.435546875,75.0,127.0
303,217.01953125,217.16796875,68.0,127.0
304,217.25390625,217.53515625,76.0,100.0
305,217.48828125,217.71875,75.0,127.0
306,217.72265625,217.9453125,71.0,102.0
307,217.95703125,218.3671875,73.0,127.0
308,218.42578125,218.638671875,73.0,127.0
309,218.89453125,219.115234375,71.0,117.0
310,219.36328125,219.435546875,73.0,127.0
311,219.59765625,220.244140625,75.0,127.0
312,220.30078125,220.740234375,68.0,127.0
313,221.23828125,221.375,68.0,127.0
314,221.47265625,221.599609375,71.0,97.0
315,221.70703125,221.90234375,73.0,127.0
316,222.17578125,222.36328125,73.0,127.0
317,222.64453125,222.8515625,71.0,107.0
318,223.11328125,223.283203125,64.0,112.0
319,223.34765625,223.669921875,71.0,112.0
320,223.81640625,224.546875,68.0,127.0
321,224.98828125,225.06640625,66.0,122.0
322,225.22265625,225.296875,66.0,112.0
323,225.45703125,225.728515625,66.0,127.0
324,225.92578125,226.005859375,68.0,127.0
325,226.16015625,226.451171875,73.0,83.0
326,226.86328125,226.970703125,68.0,127.0
327,227.09765625,227.201171875,66.0,117.0
328,227.33203125,227.564453125,68.0,127.0
329,227.80078125,227.884765625,73.0,127.0
330,228.03515625,228.53515625,76.0,122.0
331,228.97265625,229.052734375,73.0,107.0
332,229.20703125,229.42578125,80.0,127.0
333,229.44140625,229.58984375,78.0,127.0
334,229.91015625,230.02734375,76.0,102.0
335,230.14453125,230.375,76.0,127.0
336,230.37890625,230.5078125,75.0,127.0
337,230.84765625,230.935546875,73.0,127.0
338,231.08203125,231.72265625,75.0,127.0
339,232.01953125,232.16796875,68.0,127.0
340,232.25390625,232.53515625,76.0,100.0
341,232.48828125,232.71875,75.0,127.0
342,232.72265625,232.9453125,71.0,102.0
343,232.95703125,233.3671875,73.0,127.0
344,233.42578125,233.638671875,73.0,127.0
345,233.89453125,234.115234375,71.0,117.0
346,234.36328125,234.435546875,73.0,127.0
347,234.59765625,235.244140625,75.0,127.0
348,235.30078125,235.740234375,68.0,127.0
349,236.23828125,236.375,68.0,127.0
350,236.47265625,236.599609375,71.0,97.0
351,236.70703125,236.90234375,73.0,127.0
352,237.17578125,237.36328125,73.0,127.0
353,237.64453125,237.8515625,71.0,107.0
354,238.11328125,238.283203125,64.0,112.0
355,238.34765625,238.669921875,71.0,112.0
356,238.81640625,239.546875,68.0,127.0
357,239.98828125,240.06640625,66.0,122.0
358,240.22265625,240.296875,66.0,112.0
359,240.45703125,240.728515625,66.0,127.0
360,240.92578125,241.005859375,68.0,127.0
361,241.16015625,241.451171875,73.0,83.0
362,241.86328125,241.970703125,68.0,127.0
363,242.09765625,242.201171875,66.0,117.0
364,242.33203125,242.564453125,68.0,127.0
365,242.80078125,242.884765625,73.0,127.0
366,243.03515625,243.53515625,76.0,122.0
367,243.97265625,244.052734375,73.0,107.0
368,244.20703125,244.42578125,80.0,127.0
369,244.44140625,244.58984375,78.0,127.0
370,244.91015625,245.02734375,76.0,102.0
371,245.14453125,245.375,76.0,127.0
372,245.37890625,245.5078125,75.0,127.0
373,245.84765625,245.935546875,73.0,127.0
374,246.08203125,246.72265625,75.0,127.0
375,247.25390625,247.486328125,73.0,127.0
376,247.72265625,247.892578125,72.0,127.0
377,247.95703125,249.197265625,73.0,127.0
378,250.76953125,250.91796875,68.0,127.0
379,251.00390625,251.28515625,76.0,100.0
380,251.23828125,251.46875,75.0,127.0
381,251.47265625,251.6953125,71.0,102.0
382,251.70703125,252.1171875,73.0,127.0
383,252.17578125,252.388671875,73.0,127.0
384,252.64453125,252.865234375,71.0,117.0
385,253.11328125,253.185546875,73.0,127.0
386,253.34765625,253.994140625,75.0,127.0
387,254.05078125,254.490234375,68.0,127.0
388,254.98828125,255.125,68.0,127.0
389,255.22265625,255.349609375,71.0,97.0
390,255.45703125,255.65234375,73.0,127.0
391,255.92578125,256.11328125,73.0,127.0
392,256.39453125,256.6015625,71.0,107.0
393,256.86328125,257.033203125,64.0,112.0
394,257.09765625,257.419921875,71.0,112.0
395,257.56640625,258.296875,68.0,127.0
396,258.73828125,258.81640625,66.0,122.0
397,258.97265625,259.046875,66.0,112.0
398,259.20703125,259.478515625,66.0,127.0
399,259.67578125,259.755859375,68.0,127.0
400,259.91015625,260.201171875,73.0,83.0
401,260.61328125,260.720703125,68.0,127.0
402,260.84765625,260.951171875,66.0,117.0
403,261.08203125,261.314453125,68.0,127.0
404,261.55078125,261.634765625,73.0,127.0
405,261.78515625,262.28515625,76.0,122.0
406,262.72265625,262.802734375,73.0,107.0
407,262.95703125,263.17578125,80.0,127.0
408,263.19140625,263.33984375,78.0,127.0
409,263.66015625,263.77734375,76.0,102.0
410,263.89453125,264.125,76.0,127.0
411,264.12890625,264.2578125,75.0,127.0
412,264.59765625,264.685546875,73.0,127.0
413,264.83203125,265.47265625,75.0,127.0
414,265.76953125,265.91796875,68.0,127.0
415,266.00390625,266.28515625,76.0,100.0
416,266.23828125,266.46875,75.0,127.0
417,266.47265625,266.6953125,71.0,102.0
418,266.70703125,267.1171875,73.0,127.0
419,267.17578125,267.388671875,73.0,127.0
420,267.64453125,267.865234375,71.0,117.0
421,268.11328125,268.185546875,73.0,127.0
422,268.34765625,268.994140625,75.0,127.0
423,269.05078125,269.490234375,68.0,127.0
424,269.98828125,270.125,68.0,127.0
425,270.22265625,270.349609375,71.0,97.0
426,270.45703125,270.65234375,73.0,127.0
427,270.92578125,271.11328125,73.0,127.0
428,271.39453125,271.6015625,71.0,107.0
429,271.86328125,272.033203125,64.0,112.0
430,272.09765625,272.419921875,71.0,112.0
431,272.56640625,273.296875,68.0,127.0
432,273.73828125,273.81640625,66.0,122.0
433,273.97265625,274.046875,66.0,112.0
434,274.20703125,274.478515625,66.0,127.0
435,274.67578125,274.755859375,68.0,127.0
436,274.91015625,275.201171875,73.0,83.0
437,275.61328125,275.720703125,68.0,127.0
438,275.84765625,275.951171875,66.0,117.0
439,276.08203125,276.314453125,68.0,127.0
440,276.55078125,276.634765625,73.0,127.0
441,276.78515625,277.28515625,76.0,122.0
442,277.72265625,277.802734375,73.0,107.0
443,277.95703125,278.17578125,80.0,127.0
444,278.19140625,278.33984375,78.0,127.0
445,278.66015625,278.77734375,76.0,102.0
446,278.89453125,279.125,76.0,127.0
447,279.12890625,279.2578125,75.0,127.0
448,279.59765625,279.685546875,73.0,127.0
449,279.83203125,280.47265625,75.0,127.0
450,281.00390625,281.236328125,73.0,127.0
451,281.47265625,281.642578125,72.0,127.0
452,281.70703125,282.947265625,73.0,127.0
