,start,end,pitch,velocity
0,15.899175825,16.1211896625,74.0,76.0
1,16.123055325,16.3450691625,76.0,79.0
2,16.346934825,16.7928281625,78.0,90.0
3,16.794693825,17.240587162500002,69.0,68.0
4,17.242452825,17.6883461625,74.0,64.0
5,17.690211825000002,17.948606081250002,78.0,92.0
6,17.914091325,18.4178202,76.0,87.0
7,18.361850325000002,19.479382162500002,78.0,91.0
8,19.481247825,19.7032616625,74.0,82.0
9,19.705127325,19.9644544125,73.0,87.0
10,19.929006825000002,20.3749001625,74.0,95.0
11,20.376765825,20.597846831250003,71.0,85.0
12,20.600645325000002,23.061454162500002,71.0,90.0
13,23.063319825,23.2853336625,74.0,90.0
14,23.287199325,23.538130931250002,76.0,87.0
15,23.511078825000002,23.9569721625,78.0,93.0
16,23.958837825,24.42058929375,69.0,74.0
17,24.406596825,24.8524901625,74.0,82.0
18,24.854355825000003,25.075436831250002,78.0,58.0
19,25.078235325,25.5241286625,76.0,69.0
20,25.525994325000003,26.643526162500002,78.0,87.0
21,26.645391825,26.8674056625,74.0,98.0
22,26.869271325,27.0912851625,73.0,72.0
23,27.093150825000002,27.5390441625,74.0,90.0
24,27.540909825,30.225598162500003,78.0,101.0
25,30.227463825,30.4494776625,81.0,103.0
26,30.451343325,30.681752643750002,78.0,97.0
27,30.675222825000002,31.12018333125,79.0,101.0
28,31.122981825,31.567942331250002,79.0,89.0
29,31.570740825,32.016634162500004,79.0,97.0
30,32.018499825,32.2405136625,78.0,101.0
31,32.242379325,33.80673733125,74.0,87.0
32,33.809535825000005,34.2554291625,74.0,95.0
33,34.257294825,34.70225533125,79.0,105.0
34,34.705053825,35.15001433125,79.0,95.0
35,35.152812825000005,35.5987061625,79.0,99.0
36,35.600571825,35.8487049375,78.0,91.0
37,35.824451325,36.2703446625,79.0,93.0
38,36.272210325,37.3897421625,81.0,99.0
39,37.391607825,37.837501162500004,83.0,103.0
40,37.839366825,41.4195731625,81.0,114.0
41,44.555751825,44.7777656625,74.0,76.0
42,44.779631325000004,45.001645162500004,76.0,79.0
43,45.003510825,45.4494041625,78.0,90.0
44,45.451269825000004,45.8971631625,69.0,68.0
45,45.899028825,46.344922162500005,74.0,64.0
46,46.346787825,46.60518208125,78.0,92.0
47,46.570667325,47.0743962,76.0,87.0
48,47.018426325,48.1359581625,78.0,91.0
49,48.137823825000005,48.359837662500006,74.0,82.0
50,48.361703325,48.621030412500005,73.0,87.0
51,48.585582825,49.0314761625,74.0,95.0
52,49.033341825,49.254422831250004,71.0,85.0
53,49.257221325,51.7180301625,71.0,90.0
54,51.719895825,51.9419096625,74.0,90.0
55,51.943775325000004,52.19470693125,76.0,87.0
56,52.167654825,52.6135481625,78.0,93.0
57,52.615413825000005,53.07716529375,69.0,74.0
58,53.063172825,53.509066162500005,74.0,82.0
59,53.510931825,53.73201283125,78.0,58.0
60,53.734811325,54.180704662500005,76.0,69.0
61,54.182570325,55.3001021625,78.0,87.0
62,55.301967825000006,55.523981662500006,74.0,98.0
63,55.525847325,55.7478611625,73.0,72.0
64,55.749726825,56.195620162500006,74.0,90.0
65,56.197485825,58.8821741625,78.0,101.0
66,58.884039825,59.1060536625,81.0,103.0
67,59.107919325000005,59.33832864375,78.0,97.0
68,59.331798825,59.776759331250005,79.0,101.0
69,59.779557825000005,60.22451833125,79.0,89.0
70,60.227316825,60.673210162500006,79.0,97.0
71,60.675075825,60.8970896625,78.0,101.0
72,60.898955325,62.463313331250006,74.0,87.0
73,62.466111825000006,62.9120051625,74.0,95.0
74,62.913870825000004,63.35883133125,79.0,105.0
75,63.361629825,63.80659033125,79.0,95.0
76,63.809388825000006,64.25528216250001,79.0,99.0
77,64.257147825,64.5052809375,78.0,91.0
78,64.481027325,65.152665825,79.0,93.0
79,65.14893450000001,66.0463181625,81.0,99.0
80,66.04818382500001,66.4940771625,83.0,103.0
81,66.495942825,70.0761491625,81.0,114.0
82,72.764568825,73.21046216250001,90.0,87.0
83,73.212327825,73.6582211625,88.0,100.0
84,73.66008682500001,74.55373916250001,90.0,105.0
85,74.555604825,75.0014981625,88.0,106.0
86,75.00336382500001,75.22537766250001,86.0,91.0
87,75.227243325,76.3447751625,88.0,106.0
88,76.34664082500001,76.7925341625,86.0,103.0
89,76.794399825,77.24029316250001,85.0,97.0
90,77.242158825,77.70391029375,86.0,93.0
91,77.68991782500001,78.1358111625,85.0,91.0
92,78.137676825,78.59942829375001,83.0,90.0
93,78.585435825,78.8074496625,85.0,75.0
94,78.809315325,80.3746061625,78.0,77.0
95,80.37647182500001,80.607813975,83.0,99.0
96,80.600351325,80.8484844375,85.0,90.0
97,80.824230825,81.26919133125,86.0,99.0
98,81.271989825,81.49307083125001,86.0,101.0
99,81.495869325,82.1656421625,86.0,101.0
100,82.167507825,82.3895216625,85.0,93.0
101,82.39138732500001,82.63485628125001,86.0,90.0
102,82.615266825,83.06022733125,88.0,103.0
103,83.06302582500001,83.50798633125001,88.0,93.0
104,83.510784825,83.8447384125,88.0,100.0
105,83.846604075,84.18055766250001,86.0,92.0
106,84.182423325,84.44828023125001,88.0,98.0
107,84.406302825,87.09005833125,90.0,105.0
108,87.092856825,87.592854375,90.0,94.0
109,87.540615825,87.9865091625,88.0,99.0
110,87.98837482500001,88.88202716250001,90.0,103.0
111,88.883892825,89.3297861625,88.0,99.0
112,89.33165182500001,89.55366566250001,86.0,84.0
113,89.555531325,90.67213033125,88.0,99.0
114,90.67492882500001,91.1208221625,88.0,100.0
115,91.122687825,91.56858116250001,90.0,99.0
116,91.570446825,92.0163401625,91.0,93.0
117,92.01820582500001,92.4640991625,90.0,97.0
118,92.465964825,92.91185816250001,88.0,98.0
119,92.913723825,93.14506597500001,91.0,90.0
120,93.137603325,93.58349666250001,90.0,90.0
121,93.585362325,94.70196133125,83.0,93.0
122,94.70475982500001,94.92677366250001,83.0,89.0
123,94.928639325,95.15531731875001,85.0,66.0
124,95.152518825,95.39692061250001,86.0,68.0
125,95.37639832500001,95.61427029375001,85.0,66.0
126,95.600277825,95.83721696250001,83.0,62.0
127,95.824157325,96.2887072875,86.0,81.0
128,96.271916325,96.5051241375,85.0,53.0
129,96.495795825,96.9491518125,86.0,63.0
130,96.943554825,97.19075510625001,88.0,92.0
131,97.167434325,97.406239125,86.0,68.0
132,97.39131382500001,97.6133276625,85.0,62.0
133,97.615193325,98.0909372625,88.0,84.0
134,98.062952325,98.2849661625,86.0,92.0
135,98.28683182500001,98.7327251625,88.0,77.0
136,98.734590825,99.18048416250001,86.0,95.0
137,99.182349825,99.40343083125,83.0,99.0
138,99.406229325,100.74857349375,83.0,91.0
139,105.450975825,105.6412734,74.0,76.0
140,105.67485532500001,105.8651529,76.0,79.0
141,105.898734825,106.3129119,78.0,90.0
142,106.34649382500001,106.76067090000001,69.0,68.0
143,106.794252825,107.2084299,74.0,64.0
144,107.242011825,107.46868981875001,78.0,92.0
145,107.465891325,107.93790393750001,76.0,87.0
146,107.913650325,108.9994659,78.0,91.0
147,109.03304782500001,109.2233454,74.0,82.0
148,109.256927325,109.48547098125,73.0,87.0
149,109.480806825,109.8949839,74.0,95.0
150,109.928565825,110.11793056875001,71.0,85.0
151,110.152445325,112.5815379,71.0,90.0
152,112.61511982500001,112.80541740000001,74.0,90.0
153,112.838999325,113.05821466875001,76.0,87.0
154,113.062878825,113.47705590000001,78.0,93.0
155,113.510637825,113.94067303125,69.0,74.0
156,113.95839682500001,114.3725739,74.0,82.0
157,114.406155825,114.59552056875,81.0,58.0
158,114.63003532500001,115.0442124,81.0,69.0
159,115.077794325,116.16360990000001,78.0,87.0
160,116.197191825,116.3874894,74.0,98.0
161,116.421071325,116.6113689,73.0,72.0
162,116.64495082500001,117.05912790000001,74.0,90.0
163,117.092709825,119.74568190000001,78.0,101.0
164,119.779263825,119.9695614,81.0,103.0
165,120.00314332500001,120.20183638125,78.0,97.0
166,120.227022825,120.64026706875,79.0,101.0
167,120.67478182500001,121.08802606875001,79.0,89.0
168,121.122540825,121.5367179,79.0,97.0
169,121.570299825,121.76059740000001,78.0,101.0
170,121.794179325,123.32682106875001,74.0,87.0
171,123.36133582500001,123.77551290000001,74.0,95.0
172,123.809094825,124.22233906875,79.0,105.0
173,124.25685382500001,124.67009806875001,79.0,95.0
174,124.70461282500001,125.11878990000001,79.0,99.0
175,125.152371825,125.36972150625,78.0,91.0
176,125.37625132500001,125.79042840000001,79.0,93.0
177,125.824010325,126.9098259,81.0,99.0
178,126.94340782500001,127.3575849,83.0,103.0
179,127.391166825,130.93965690000002,81.0,114.0
180,133.659792825,134.0739699,90.0,87.0
181,134.107551825,134.5217289,88.0,100.0
182,134.555310825,135.4172469,90.0,105.0
183,135.450828825,135.8650059,88.0,106.0
184,135.898587825,136.0888854,86.0,91.0
185,136.122467325,137.2082829,88.0,106.0
186,137.241864825,137.65604190000002,86.0,103.0
187,137.689623825,138.1038009,85.0,97.0
188,138.137382825,138.56741803125,86.0,93.0
189,138.585141825,138.99931890000002,85.0,91.0
190,139.032900825,139.4638688625,83.0,90.0
191,139.480659825,139.67095740000002,85.0,75.0
192,139.704539325,141.2381139,78.0,77.0
193,141.271695825,141.4713217125,83.0,99.0
194,141.495575325,141.71292500625,85.0,90.0
195,141.719454825,142.13269906875001,86.0,99.0
196,142.167213825,142.35657856875,86.0,101.0
197,142.391093325,143.0291499,86.0,101.0
198,143.06273182500001,143.2530294,85.0,93.0
199,143.286611325,143.49836401875,86.0,90.0
200,143.510490825,143.92373506875,88.0,103.0
201,143.958249825,144.37149406875,88.0,93.0
202,144.40600882500001,144.70824615,88.0,100.0
203,144.741828075,145.0440654,86.0,92.0
204,145.07764732500002,145.3127208,88.0,98.0
205,145.301526825,147.09069716250002,90.0,105.0
206,147.988080825,148.45729494375001,90.0,94.0
207,148.43583982500002,148.8500169,88.0,99.0
208,148.883598825,149.7455349,90.0,103.0
209,149.77911682500002,150.19329390000001,88.0,99.0
210,150.226875825,150.4171734,86.0,84.0
211,150.45075532500002,151.53563806875002,88.0,99.0
212,151.570152825,151.9843299,88.0,100.0
213,152.017911825,152.4320889,90.0,99.0
214,152.46567082500002,152.87984790000002,91.0,93.0
215,152.913429825,153.3276069,90.0,97.0
216,153.361188825,153.7753659,88.0,98.0
217,153.80894782500002,154.0085737125,91.0,90.0
218,154.032827325,154.4470044,90.0,90.0
219,154.48058632500002,155.56546906875002,83.0,93.0
220,155.599983825,155.7902814,83.0,89.0
221,155.82386332500002,156.01882505625,85.0,66.0
222,156.047742825,156.26042835,86.0,68.0
223,156.271622325,156.4787108625,85.0,66.0
224,156.49550182500002,156.70165753125002,83.0,62.0
225,156.719381325,157.152215025,86.0,81.0
226,157.16714032500002,157.368631875,85.0,53.0
227,157.391019825,157.81265955,86.0,63.0
228,157.83877882500002,158.05426284375,88.0,92.0
229,158.062658325,158.2697468625,86.0,68.0
230,158.286537825,158.4768354,85.0,62.0
231,158.51041732500002,158.95537783125002,88.0,84.0
232,158.958176325,159.1484739,86.0,92.0
233,159.18205582500002,159.59623290000002,88.0,77.0
234,159.629814825,160.0439919,86.0,95.0
235,160.077573825,160.26693856875002,83.0,99.0
236,160.301453325,162.7622621625,83.0,91.0
237,189.18190882500002,189.59608590000002,90.0,87.0
238,189.629667825,190.0438449,88.0,100.0
239,190.077426825,190.93936290000002,90.0,105.0
240,190.972944825,191.3871219,88.0,106.0
241,191.420703825,191.64271766250002,86.0,91.0
242,191.644583325,192.7303989,88.0,106.0
243,192.763980825,193.1781579,86.0,103.0
244,193.211739825,193.62591690000002,85.0,97.0
245,193.65949882500001,194.08953403125,86.0,93.0
246,194.107257825,194.5214349,85.0,91.0
247,194.555016825,194.9859848625,83.0,90.0
248,195.00277582500001,195.1930734,85.0,75.0
249,195.226655325,196.7602299,78.0,77.0
250,196.793811825,196.9934377125,83.0,99.0
251,197.01769132500002,197.23504100625001,85.0,90.0
252,197.241570825,197.65481506875,86.0,99.0
253,197.68932982500002,197.87869456875,86.0,101.0
254,197.913209325,198.5512659,86.0,101.0
255,198.584847825,198.7751454,85.0,93.0
256,198.808727325,199.02048001875002,86.0,90.0
257,199.03260682500002,199.44585106875002,88.0,103.0
258,199.480365825,199.89361006875,88.0,93.0
259,199.928124825,200.23036215000002,88.0,100.0
260,200.263944075,200.5661814,86.0,92.0
261,200.599763325,200.8348368,88.0,98.0
262,200.823642825,202.6128131625,90.0,105.0
263,203.510196825,203.97941094375,90.0,94.0
264,203.957955825,204.3721329,88.0,99.0
265,204.40571482500002,205.2676509,90.0,103.0
266,205.301232825,205.7154099,88.0,99.0
267,205.74899182500002,205.9392894,86.0,84.0
268,205.972871325,207.05775406875,88.0,99.0
269,207.09226882500002,207.50644590000002,88.0,100.0
270,207.540027825,207.9542049,90.0,99.0
271,207.987786825,208.4019639,91.0,93.0
272,208.43554582500002,208.84972290000002,90.0,97.0
273,208.883304825,209.2974819,88.0,98.0
274,209.331063825,209.53068971250002,91.0,90.0
275,209.554943325,209.9691204,90.0,90.0
276,210.002702325,211.08758506875,83.0,93.0
277,211.12209982500002,211.3123974,83.0,89.0
278,211.345979325,211.54094105625,85.0,66.0
279,211.569858825,211.78254435000002,86.0,68.0
280,211.79373832500002,212.00082686250002,85.0,66.0
281,212.017617825,212.22377353125,83.0,62.0
282,212.241497325,212.67433102500001,86.0,81.0
283,212.689256325,212.89074787500002,85.0,53.0
284,212.913135825,213.33477555000002,86.0,63.0
285,213.360894825,213.57637884375,88.0,92.0
286,213.584774325,213.7918628625,86.0,68.0
287,213.80865382500002,213.9989514,85.0,62.0
288,214.032533325,214.47749383125,88.0,84.0
289,214.48029232500002,214.6705899,86.0,92.0
290,214.704171825,215.1183489,88.0,77.0
291,215.15193082500002,215.56610790000002,86.0,95.0
292,215.599689825,215.78905456875,83.0,99.0
293,215.82356932500002,217.72467941250002,83.0,91.0
294,217.83848482500002,218.30769894375,90.0,94.0
295,218.286243825,218.7321371625,88.0,99.0
296,218.734002825,219.59593890000002,90.0,103.0
297,219.62952082500001,220.0436979,88.0,99.0
298,220.077279825,220.26757740000002,86.0,84.0
299,220.30115932500001,221.38604206875002,88.0,99.0
300,221.420556825,221.8347339,88.0,100.0
301,221.86831582500002,222.28249290000002,90.0,99.0
302,222.31607482500002,222.7302519,91.0,93.0
303,222.763833825,223.1780109,90.0,97.0
304,223.211592825,223.62576990000002,88.0,98.0
305,223.65935182500002,223.8589777125,91.0,90.0
306,223.883231325,224.29740840000002,90.0,90.0
307,224.33099032500002,225.41587306875002,83.0,93.0
308,225.450387825,225.64068540000002,83.0,89.0
309,225.67426732500002,225.86922905625002,85.0,66.0
310,225.898146825,226.11083235,86.0,68.0
311,226.122026325,226.3291148625,85.0,66.0
312,226.34590582500002,226.55206153125002,83.0,62.0
313,226.569785325,227.002619025,86.0,81.0
314,227.01754432500002,227.219035875,85.0,53.0
315,227.241423825,227.66306355,86.0,63.0
316,227.68918282500002,227.90466684375002,88.0,92.0
317,227.913062325,228.1201508625,86.0,68.0
318,228.136941825,228.32723940000002,85.0,62.0
319,228.36082132500002,228.80578183125002,88.0,84.0
320,228.808580325,228.99887790000002,86.0,92.0
321,229.03245982500002,229.44663690000002,88.0,77.0
322,229.480218825,229.8943959,86.0,95.0
323,229.927977825,230.11734256875002,83.0,99.0
324,230.151857325,232.6126661625,83.0,91.0
325,232.614531825,232.80482940000002,83.0,89.0
326,232.838411325,233.03337305625,85.0,66.0
327,233.06229082500002,233.27497635,86.0,68.0
328,233.286170325,233.4932588625,85.0,66.0
329,233.510049825,233.71620553125,83.0,62.0
330,233.73392932500002,234.16676302500002,86.0,81.0
331,234.181688325,234.38317987500002,85.0,53.0
332,234.40556782500002,234.82720755,86.0,63.0
333,234.853326825,235.06881084375001,88.0,92.0
334,235.07720632500002,235.28429486250002,86.0,68.0
335,235.301085825,235.49138340000002,85.0,62.0
336,235.524965325,235.96992583125,88.0,84.0
337,235.972724325,236.16302190000002,86.0,92.0
338,236.196603825,236.6107809,88.0,77.0
339,236.644362825,237.53801516250002,90.0,95.0
340,237.539880825,237.9857741625,81.0,99.0
341,237.987639825,240.89620766250002,83.0,91.0
