,start,end,pitch,velocity
0,2.0186468250000003,2.58114406875,71.0,79.0
1,2.0186468250000003,2.585808225,62.0,82.0
2,2.0186468250000003,2.5960693687500003,66.0,83.0
3,2.802225075,3.4234906875,62.0,76.0
4,2.802225075,3.44681146875,71.0,75.0
5,2.802225075,3.4496099625000003,66.0,77.0
6,2.0186468250000003,4.004644556250001,59.0,73.0
7,3.697743075,4.322740012500001,66.0,69.0
8,3.697743075,4.37591139375,71.0,62.0
9,3.697743075,4.3880382,62.0,58.0
10,4.369381575,4.824603225000001,59.0,45.0
11,4.705200825,5.130571875,66.0,79.0
12,4.705200825,5.17161645,71.0,75.0
13,4.705200825,5.184676087500001,62.0,69.0
14,5.152959825,5.276093550000001,59.0,54.0
15,2.0186468250000003,5.279824875,47.0,80.0
16,5.600718825,6.231312750000001,69.0,79.0
17,5.600718825,6.23411124375,61.0,77.0
18,5.600718825,6.2816856375,64.0,81.0
19,6.496236825,7.12216659375,69.0,68.0
20,6.496236825,7.13895755625,61.0,71.0
21,6.496236825,7.167875325000001,64.0,60.0
22,5.600718825,7.5969777,57.0,56.0
23,7.3917548250000005,7.986901162500001,69.0,62.0
24,7.3917548250000005,7.996229475000001,61.0,69.0
25,7.3917548250000005,8.0204830875,64.0,58.0
26,7.951453575,8.542868587500001,57.0,28.0
27,8.287272825,8.70797971875,64.0,82.0
28,8.287272825,8.70984538125,69.0,76.0
29,8.287272825,8.712643875000001,61.0,75.0
30,5.600718825,8.772345075,45.0,77.0
31,8.735031825,8.87309085,57.0,67.0
32,9.182790825,9.783534150000001,62.0,77.0
33,9.182790825,9.79379529375,71.0,76.0
34,9.182790825,9.82737721875,66.0,78.0
35,9.966369075000001,10.5820377,62.0,76.0
36,9.966369075000001,10.58297053125,71.0,72.0
37,9.966369075000001,10.61655245625,66.0,73.0
38,9.182790825,11.18744518125,59.0,61.0
39,10.973826825,11.66878610625,62.0,56.0
40,10.973826825,11.688375562500001,66.0,68.0
41,10.973826825,11.69490538125,71.0,59.0
42,11.645465325,12.27885774375,59.0,48.0
43,9.182790825,12.328297800000001,47.0,79.0
44,11.869344825,12.39266315625,62.0,79.0
45,11.869344825,12.399192975,71.0,78.0
46,11.869344825,12.41318544375,66.0,79.0
47,12.317103825,12.511132725000001,54.0,62.0
48,12.764862825,13.35068085,69.0,33.0
49,12.764862825,13.441165481250001,61.0,75.0
50,12.764862825,13.45982210625,64.0,79.0
51,12.764862825,13.91131243125,57.0,37.0
52,13.660380825,14.25459433125,61.0,68.0
53,13.660380825,14.2741837875,69.0,73.0
54,13.660380825,14.29750456875,64.0,69.0
55,14.108139825,15.65384120625,57.0,10.0
56,14.555898825,15.6659680125,61.0,61.0
57,14.555898825,15.673430662500001,64.0,61.0
58,14.555898825,15.7144752375,69.0,59.0
59,12.764862825,15.725669212500001,45.0,46.0
60,16.346934825,16.928088693750002,66.0,72.0
61,16.346934825,16.9402155,74.0,79.0
62,16.346934825,16.95234230625,69.0,78.0
63,16.346934825,17.48965310625,57.0,72.0
64,17.242452825,17.6622268875,74.0,83.0
65,16.346934825,17.690211825000002,62.0,58.0
66,17.242452825,17.7144654375,66.0,74.0
67,17.242452825,17.7163311,69.0,76.0
68,16.346934825,17.73965188125,50.0,61.0
69,17.690211825000002,17.801218743750002,57.0,78.0
70,18.137970825,18.57360301875,73.0,80.0
71,18.137970825,18.73964698125,69.0,80.0
72,18.137970825,18.74524396875,64.0,74.0
73,18.137970825,19.227517725000002,61.0,60.0
74,19.033488825,19.37397223125,73.0,82.0
75,19.033488825,19.43740475625,69.0,81.0
76,19.033488825,19.4756508375,64.0,80.0
77,18.137970825,19.567068300000003,49.0,79.0
78,19.481247825,19.58292643125,61.0,68.0
79,19.929006825000002,20.4625863,71.0,75.0
80,19.929006825000002,20.5353471375,62.0,72.0
81,19.929006825000002,20.55307093125,66.0,76.0
82,19.929006825000002,21.05213565,59.0,56.0
83,20.824524825,21.3581043,71.0,53.0
84,20.824524825,21.38049225,62.0,54.0
85,20.824524825,21.3972832125,66.0,63.0
86,21.272283825000002,22.05492924375,59.0,29.0
87,21.720042825,22.31425633125,71.0,72.0
88,21.720042825,22.3375771125,62.0,69.0
89,21.720042825,22.373024700000002,66.0,74.0
90,19.929006825000002,22.6398144375,47.0,80.0
91,22.391681325,22.77694063125,59.0,50.0
92,22.615560825000003,23.070782475,62.0,71.0
93,22.615560825000003,23.078245125000002,66.0,73.0
94,22.615560825000003,23.1174240375,71.0,68.0
95,22.839440325,23.15007313125,47.0,76.0
96,23.063319825,23.29093065,49.0,81.0
97,23.511078825000002,24.008277881250002,74.0,73.0
98,23.511078825000002,24.070777575,69.0,75.0
99,23.511078825000002,24.13514293125,66.0,76.0
100,23.958837825,24.51573808125,62.0,21.0
101,24.406596825,24.747080231250003,74.0,82.0
102,24.406596825,24.763871193750003,69.0,80.0
103,24.406596825,24.869281125,66.0,77.0
104,23.511078825000002,24.921519675000003,50.0,83.0
105,24.854355825000003,24.95230310625,62.0,58.0
106,25.302114825,25.7480081625,61.0,60.0
107,25.302114825,25.8562165875,73.0,76.0
108,25.302114825,25.9233804375,69.0,73.0
109,25.302114825,25.94296989375,64.0,60.0
110,25.302114825,25.988678625000002,76.0,68.0
111,25.861813575000003,26.2965129375,61.0,22.0
112,26.197632825000003,26.3226322125,76.0,31.0
113,26.197632825000003,26.580093637500003,69.0,73.0
114,26.197632825000003,26.613675562500003,73.0,80.0
115,26.197632825000003,26.629533693750002,64.0,72.0
116,26.645391825,26.7330779625,61.0,53.0
117,25.302114825,26.7517345875,49.0,84.0
118,27.093150825000002,27.66497638125,71.0,76.0
119,27.093150825000002,27.764789325000002,62.0,71.0
120,27.093150825000002,27.802102575000003,66.0,79.0
121,27.093150825000002,28.26385404375,59.0,45.0
122,27.988668825,28.4942633625,62.0,73.0
123,27.988668825,28.5054573375,71.0,72.0
124,27.988668825,28.5091886625,66.0,76.0
125,28.660307325,28.990529587500003,59.0,1.0
126,28.884186825,29.41123648125,62.0,58.0
127,28.884186825,29.45507955,71.0,57.0
128,28.884186825,29.459743706250002,66.0,68.0
129,29.555825325,29.951345775,59.0,25.0
130,27.093150825000002,30.018509625,47.0,80.0
131,29.779704825000003,30.02503944375,62.0,77.0
132,29.779704825000003,30.108061425000002,66.0,79.0
133,29.779704825000003,30.1323150375,71.0,76.0
134,30.227463825,30.336605081250003,47.0,80.0
135,30.675222825000002,31.23025741875,62.0,72.0
136,30.675222825000002,31.232123081250002,67.0,82.0
137,30.675222825000002,31.262906512500003,59.0,46.0
138,30.675222825000002,31.76570255625,55.0,38.0
139,30.675222825000002,32.018499825,43.0,78.0
140,31.570740825,32.06607421875,67.0,84.0
141,31.570740825,32.070738375000005,62.0,84.0
142,31.570740825,32.161223006250005,59.0,75.0
143,32.466258825000004,33.15375545625,67.0,79.0
144,32.466258825000004,33.160285275,62.0,83.0
145,32.466258825000004,33.1658822625,59.0,62.0
146,32.018499825,33.54461175,55.0,44.0
147,33.361776825,33.8114014875,59.0,73.0
148,33.361776825,33.812334318750004,62.0,83.0
149,33.361776825,33.81326715,67.0,78.0
150,32.466258825000004,33.91494575625,43.0,75.0
151,33.809535825000005,33.973714125,55.0,57.0
152,34.257294825,34.846844175,62.0,84.0
153,34.257294825,34.8487098375,58.0,78.0
154,34.257294825,34.87016495625,67.0,71.0
155,34.257294825,35.3281851,55.0,69.0
156,35.152812825000005,35.61083296875,67.0,71.0
157,35.152812825000005,35.67426549375,58.0,75.0
158,35.152812825000005,35.74329500625,62.0,81.0
159,36.048330825,36.570716325,67.0,77.0
160,36.048330825,36.58284313125,62.0,81.0
161,36.048330825,36.67892475,58.0,77.0
162,35.600571825,37.199444587500004,55.0,31.0
163,36.943848825,37.4531746875,67.0,78.0
164,36.943848825,37.46343583125,62.0,83.0
165,36.943848825,37.4942192625,58.0,78.0
166,37.391607825,37.53433100625,55.0,72.0
167,34.257294825,37.56791293125,43.0,80.0
168,37.839366825,38.428916175000005,64.0,82.0
169,37.839366825,38.449438462500005,61.0,78.0
170,37.839366825,38.511005325,69.0,81.0
171,38.734884825,39.3039118875,64.0,83.0
172,38.734884825,39.315105862500005,61.0,76.0
173,38.734884825,39.316971525,69.0,80.0
174,37.839366825,40.003535325,57.0,68.0
175,39.630402825000004,40.05110971875,64.0,82.0
176,39.630402825000004,40.12013923125,61.0,72.0
177,39.630402825000004,40.14812416875,69.0,72.0
178,40.078161825,40.83841929375,52.0,72.0
179,40.525920825,40.950359043750005,64.0,83.0
180,40.525920825,40.979276812500004,69.0,79.0
181,37.839366825,41.012858737500004,45.0,79.0
182,40.525920825,41.02685120625,61.0,76.0
183,40.973679825000005,41.11267168125,57.0,59.0
184,40.973679825000005,41.42517015,52.0,75.0
185,41.421438825,43.496055525,57.0,71.0
186,41.421438825,43.624786237500004,64.0,82.0
187,41.421438825,43.63691304375,69.0,80.0
188,41.421438825,43.64064436875,61.0,78.0
189,41.421438825,43.970866631250004,45.0,78.0
190,45.003510825,45.5874631875,69.0,81.0
191,45.003510825,45.60425415,66.0,75.0
192,45.003510825,45.655559868750004,74.0,83.0
193,45.003510825,46.10331886875,62.0,68.0
194,45.003510825,46.23018391875,57.0,77.0
195,45.899028825,46.3430565,69.0,79.0
196,45.899028825,46.41115318125,74.0,78.0
197,45.003510825,46.4307426375,50.0,63.0
198,45.899028825,46.432608300000005,66.0,71.0
199,46.346787825,46.4344739625,62.0,69.0
200,46.346787825,46.4755185375,57.0,45.0
201,46.794546825000005,47.153686856250005,61.0,62.0
202,46.794546825000005,47.385961837500005,73.0,80.0
203,46.794546825000005,47.40368563125,64.0,72.0
204,46.794546825000005,47.4176781,69.0,78.0
205,46.794546825000005,47.4680509875,76.0,71.0
206,47.466185325000005,47.8206612,61.0,18.0
207,47.690064825,47.99510064375,69.0,80.0
208,47.690064825,48.003496125000005,64.0,82.0
209,47.690064825,48.018421425,73.0,82.0
210,46.794546825000005,48.04547353125,49.0,82.0
211,47.913944325,48.15741328125,55.0,77.0
212,48.137823825000005,48.33838254375,71.0,77.0
213,48.361703325,48.563194875,73.0,82.0
214,48.585582825,49.2292363875,74.0,83.0
215,48.585582825,49.2740122875,69.0,76.0
216,48.585582825,49.28427343125,66.0,76.0
217,49.257221325,49.54546618125,59.0,57.0
218,49.033341825,49.555727325,54.0,62.0
219,49.481100825000006,49.75442038125,74.0,84.0
220,49.481100825000006,49.768412850000004,66.0,82.0
221,49.481100825000006,49.87009145625,69.0,82.0
222,49.704980325,50.033336925,59.0,20.0
223,48.585582825,50.119157400000006,47.0,80.0
224,49.704980325,50.305723650000004,54.0,76.0
225,49.928859825,50.428857375,66.0,68.0
226,50.152739325,50.507215200000005,74.0,83.0
227,50.600498325000004,50.73575885625,73.0,84.0
228,50.600498325000004,50.7590796375,64.0,76.0
229,51.048257325,51.35142748125,62.0,79.0
230,51.048257325,51.36821844375,69.0,75.0
231,51.496016325,51.545456381250006,69.0,46.0
232,50.376618825,51.764671725,47.0,75.0
233,51.496016325,51.78799250625,62.0,76.0
234,51.272136825000004,51.801052143750006,59.0,62.0
235,50.824377825,51.8448952125,54.0,72.0
236,51.719895825,52.00627501875,64.0,79.0
237,51.943775325000004,52.09209549375,66.0,80.0
238,52.167654825,52.447504200000004,62.0,82.0
239,52.167654825,52.507205400000004,66.0,82.0
240,53.063172825,53.31970141875,64.0,72.0
241,52.615413825000005,53.354216175000005,57.0,67.0
242,53.063172825,53.3710071375,69.0,75.0
243,53.063172825,53.37940261875,66.0,78.0
244,53.287052325000005,53.59581946875,62.0,68.0
245,52.167654825,53.59768513125,50.0,83.0
246,53.510931825,54.02492184375,57.0,73.0
247,53.734811325,54.03984714375,71.0,76.0
248,53.958690825000005,54.3262263375,69.0,82.0
249,53.958690825000005,54.379397718750006,64.0,77.0
250,54.406449825,54.86446996875,61.0,62.0
251,54.630329325000005,54.906447375000006,64.0,71.0
252,54.854208825,55.17230428125,69.0,83.0
253,55.301967825000006,55.4045792625,61.0,62.0
254,53.958690825000005,55.428832875000005,49.0,84.0
255,54.182570325,55.4474895,57.0,72.0
256,55.190028075,55.466146125,73.0,90.0
257,55.525847325,55.67230183125,74.0,80.0
258,55.749726825,56.162038237500006,74.0,76.0
259,55.749726825,56.16670239375,71.0,79.0
260,55.749726825,56.19468733125,66.0,74.0
261,56.197485825,56.715207168750005,54.0,63.0
262,56.645244825000006,57.06222039375,59.0,51.0
263,56.645244825000006,57.136846893750004,66.0,75.0
264,56.645244825000006,57.154570687500005,62.0,79.0
265,57.540762825,58.040760375000005,61.0,75.0
266,57.540762825,58.040760375000005,66.0,74.0
267,57.540762825,58.20773716875,62.0,77.0
268,58.212401325,58.45587028125,59.0,58.0
269,58.548220575,58.681615443750005,59.0,62.0
270,58.436280825000004,58.69840640625,61.0,75.0
271,58.436280825000004,58.734786825,62.0,80.0
272,58.436280825000004,58.7609061,66.0,84.0
273,55.749726825,58.808480493750004,47.0,82.0
274,57.093003825000004,58.8112789875,54.0,34.0
275,58.884039825,59.077135893750004,64.0,78.0
276,59.107919325000005,59.30474671875,66.0,76.0
277,59.331798825,59.47638766875,43.0,86.0
278,59.331798825,59.809408425,62.0,80.0
279,59.331798825,59.839259025000004,74.0,43.0
280,59.331798825,59.84578884375,67.0,80.0
281,59.331798825,59.877505106250005,71.0,78.0
282,59.779557825000005,60.503434875,55.0,68.0
283,60.227316825,60.567800231250004,62.0,78.0
284,60.227316825,60.585524025000005,74.0,39.0
285,60.227316825,60.596718,67.0,71.0
286,60.227316825,60.642426731250005,71.0,78.0
287,61.122834825000005,61.354176975,71.0,77.0
288,61.122834825000005,61.406415525,79.0,90.0
289,61.122834825000005,61.413878175,74.0,83.0
290,60.675075825,61.678802250000004,55.0,75.0
291,61.570593825,61.71145134375001,69.0,69.0
292,61.570593825,61.93346518125,78.0,72.0
293,62.018352825,62.148949200000004,71.0,63.0
294,62.018352825,62.19652359375,79.0,84.0
295,61.794473325000006,62.391485325000005,55.0,69.0
296,62.466111825000006,62.54446965,55.0,80.0
297,62.466111825000006,62.57338741875,78.0,78.0
298,62.913870825000004,63.12189219375,74.0,83.0
299,62.913870825000004,63.14241448125,76.0,83.0
300,62.913870825000004,63.179727731250004,70.0,76.0
301,62.913870825000004,63.2683467,55.0,63.0
302,63.361629825,63.876552675000006,55.0,40.0
303,63.809388825000006,64.1638647,62.0,82.0
304,63.809388825000006,64.28140143750001,58.0,81.0
305,62.913870825000004,64.30099089375,43.0,82.0
306,63.809388825000006,64.31778185625001,67.0,80.0
307,64.257147825,64.540728525,55.0,49.0
308,64.481027325,64.65360110625001,50.0,72.0
309,64.70490682500001,65.02859926875,67.0,79.0
310,64.70490682500001,65.05844986875,58.0,80.0
311,64.70490682500001,65.06031553125,62.0,82.0
312,65.264605575,65.45210465625,58.0,75.0
313,65.04072607500001,65.56777573125001,55.0,69.0
314,65.488485075,65.816841675,62.0,93.0
315,65.936244075,66.025795875,62.0,78.0
316,65.71236457500001,66.08456424375001,55.0,71.0
317,64.592967075,66.09389255625,43.0,69.0
318,65.936244075,66.10135520625,67.0,84.0
319,64.816846575,66.1022880375,50.0,80.0
320,66.38400307500001,66.8149711125,61.0,80.0
321,66.38400307500001,66.85974701250001,69.0,84.0
322,66.38400307500001,66.86441116875001,64.0,82.0
323,66.831762075,67.3485505875,52.0,81.0
324,67.39146082500001,67.71142194375,59.0,74.0
325,67.39146082500001,67.7459367,67.0,86.0
326,67.39146082500001,67.75339935000001,62.0,80.0
327,66.38400307500001,67.76366049375001,45.0,82.0
328,67.39146082500001,67.9157119875,57.0,74.0
329,67.839219825,67.97821168125,59.0,62.0
330,67.839219825,68.17130775,52.0,82.0
331,68.06309932500001,68.2104866625,62.0,80.0
332,68.286978825,68.61813391875,64.0,79.0
333,68.286978825,68.6507830125,69.0,83.0
334,68.286978825,68.660111325,73.0,84.0
335,68.286978825,68.96328148125001,57.0,59.0
336,68.958617325,69.253392,64.0,79.0
337,68.958617325,69.30096639375,71.0,83.0
338,68.286978825,69.76924768125001,45.0,79.0
339,69.182496825,69.83641153125001,57.0,61.0
340,69.406376325,69.93249315,64.0,82.0
341,69.406376325,69.93529164375,73.0,93.0
342,69.854135325,70.08267898125,52.0,79.0
343,70.078014825,70.67782531875001,64.0,83.0
344,70.078014825,70.7104744125,76.0,90.0
345,70.078014825,70.78416808125,69.0,81.0
346,70.078014825,71.12558431875,57.0,79.0
347,70.973532825,71.5015153125,69.0,82.0
348,70.973532825,71.54722404375,66.0,80.0
349,70.078014825,71.6582309625,45.0,83.0
350,71.421291825,71.72446198125,57.0,60.0
351,70.973532825,71.73565595625,74.0,84.0
352,71.869050825,72.17968363125,57.0,82.0
353,71.869050825,72.4679284875,69.0,78.0
354,71.869050825,72.4772568,73.0,83.0
355,71.869050825,72.5015104125,64.0,80.0
356,72.316809825,72.98564983125,57.0,22.0
357,71.869050825,73.025761575,45.0,84.0
358,72.764568825,73.26549920625,64.0,80.0
359,72.764568825,73.2738946875,69.0,84.0
360,72.764568825,73.29161848125,73.0,90.0
361,73.212327825,73.3074766125,52.0,95.0
362,73.66008682500001,74.34105363750001,74.0,90.0
363,73.66008682500001,74.36810574375001,66.0,83.0
364,73.66008682500001,74.37370273125,69.0,86.0
365,73.66008682500001,74.76829035,62.0,81.0
366,74.555604825,75.06586351875,74.0,86.0
367,74.555604825,75.09198279375,69.0,84.0
368,75.00336382500001,75.09944544375,62.0,75.0
369,74.555604825,75.10131110625001,66.0,81.0
370,73.66008682500001,75.1022439375,50.0,90.0
371,75.451122825,75.8522402625,61.0,74.0
372,75.451122825,76.14141795,73.0,83.0
373,75.451122825,76.14608210625,76.0,76.0
374,75.451122825,76.16100740625001,64.0,77.0
375,75.451122825,76.16847005625,69.0,76.0
376,75.898881825,76.2925366125,61.0,57.0
377,75.451122825,76.5985052625,49.0,86.0
378,76.34664082500001,76.846638375,69.0,80.0
379,76.34664082500001,76.85876518125,64.0,83.0
380,76.794399825,76.8820859625,61.0,72.0
381,76.34664082500001,76.90260825,73.0,86.0
382,76.794399825,76.9343245125,49.0,72.0
383,77.242158825,77.6134256625,59.0,75.0
384,77.242158825,77.93711810625,74.0,84.0
385,77.242158825,77.9455135875,66.0,77.0
386,77.242158825,77.95297623750001,69.0,79.0
387,77.913797325,78.26920603125001,59.0,59.0
388,77.242158825,78.585435825,47.0,84.0
389,78.137676825,78.600361125,74.0,90.0
390,78.137676825,78.6283460625,69.0,84.0
391,78.137676825,78.6320773875,66.0,83.0
392,78.585435825,78.64233853125,47.0,79.0
393,78.585435825,78.66379365,59.0,73.0
394,79.03319482500001,79.39793184375,54.0,79.0
395,79.03319482500001,79.52479689375001,73.0,83.0
396,79.03319482500001,79.540655025,64.0,79.0
397,79.03319482500001,79.73654958750001,69.0,78.0
398,79.928712825,80.14606250625,73.0,84.0
399,79.928712825,80.27106189375,66.0,81.0
400,79.70483332500001,80.27572605,54.0,84.0
401,80.152592325,80.45576248125,74.0,86.0
402,80.37647182500001,80.51639651250001,73.0,82.0
403,79.03319482500001,80.66658234375001,42.0,86.0
404,80.600351325,80.71322390625001,54.0,79.0
405,80.600351325,80.77012661250001,69.0,80.0
406,80.824230825,81.23187808125,55.0,79.0
407,80.824230825,81.51732444375,71.0,76.0
408,80.824230825,81.5201229375,62.0,82.0
409,80.824230825,81.54530938125001,67.0,79.0
410,81.495869325,82.00612801875,55.0,75.0
411,81.71974882500001,82.15631385,71.0,76.0
412,80.824230825,82.22161203750001,43.0,77.0
413,81.71974882500001,82.24679848125001,62.0,78.0
414,81.71974882500001,82.24679848125001,67.0,83.0
415,82.167507825,82.39511865,55.0,73.0
416,82.39138732500001,82.53411050625,67.0,73.0
417,82.39138732500001,82.548102975,71.0,69.0
418,81.943628325,82.5611626125,50.0,83.0
419,82.615266825,83.16097310625,45.0,84.0
420,83.06302582500001,83.24399508750001,52.0,79.0
421,83.286905325,83.6245902375,57.0,58.0
422,82.615266825,83.75145528750001,69.0,80.0
423,82.615266825,83.76544775625,73.0,80.0
424,82.615266825,83.7738432375,64.0,82.0
425,83.510784825,83.97067063125,59.0,73.0
426,83.734664325,83.98279743750001,61.0,84.0
427,83.958543825,84.23559470625,64.0,78.0
428,84.182423325,84.31861668750001,69.0,82.0
429,84.406302825,84.7029431625,47.0,82.0
430,84.630182325,84.82047990000001,54.0,79.0
431,84.854061825,85.1320455375,59.0,58.0
432,84.406302825,85.3409997375,66.0,84.0
433,84.406302825,85.37831298750001,74.0,91.0
434,85.30182082500001,85.59006568125001,62.0,86.0
435,85.077941325,85.62364760625,61.0,78.0
436,85.525700325,85.682415975,66.0,79.0
437,85.749579825,85.995847275,73.0,83.0
438,85.97345932500001,86.01450390000001,66.0,53.0
439,85.97345932500001,86.2962189375,74.0,91.0
440,86.197338825,86.4006960375,73.0,84.0
441,86.421218325,86.62737403125,71.0,75.0
442,86.64509782500001,86.868977325,66.0,75.0
443,86.868977325,87.0611405625,64.0,68.0
444,87.092856825,87.44826553125,62.0,76.0
445,86.197338825,87.54714564375,47.0,78.0
446,87.31673632500001,87.54714564375,59.0,76.0
447,87.540615825,87.54714564375,59.0,62.0
448,86.421218325,87.61151100000001,54.0,78.0
449,87.540615825,87.6506899125,61.0,69.0
450,87.764495325,87.9193453125,62.0,80.0
451,87.98837482500001,88.32979106250001,66.0,81.0
452,87.98837482500001,88.35964166250001,62.0,82.0
453,87.98837482500001,88.77475156875,57.0,78.0
454,87.98837482500001,88.973444625,50.0,82.0
455,88.883892825,89.19265996875001,57.0,82.0
456,88.883892825,89.2085181,62.0,86.0
457,88.66001332500001,89.23277171250001,38.0,50.0
458,88.883892825,89.23836870000001,69.0,86.0
459,89.107772325,89.37829338750001,50.0,78.0
460,89.33165182500001,89.51821807500001,57.0,61.0
461,89.555531325,89.70012016875,69.0,80.0
462,89.779410825,90.04526773125001,61.0,82.0
463,89.779410825,90.07884965625,64.0,84.0
464,89.779410825,90.11149875000001,69.0,71.0
465,90.451049325,90.52940715,69.0,68.0
466,90.451049325,90.577914375,64.0,58.0
467,90.451049325,90.7178390625,74.0,84.0
468,90.67492882500001,90.88668151875001,61.0,54.0
469,90.898808325,91.1469414375,66.0,70.0
470,90.898808325,91.17585920625001,73.0,81.0
471,91.122687825,91.20757546875001,61.0,68.0
472,89.779410825,91.22623209375,49.0,90.0
473,90.227169825,91.26541100625,55.0,72.0
474,91.34656732500001,91.51261128750001,71.0,75.0
475,91.570446825,91.75048325625,43.0,84.0
476,91.794326325,92.092832325,55.0,47.0
477,91.570446825,92.31018200625,71.0,80.0
478,91.570446825,92.324174475,62.0,79.0
479,91.570446825,92.32790580000001,67.0,57.0
480,92.465964825,92.62361330625001,62.0,81.0
481,92.242085325,92.7812617875,59.0,80.0
482,92.01820582500001,92.8055154,57.0,76.0
483,92.68984432500001,92.83536600000001,67.0,83.0
484,92.913723825,93.0760364625,69.0,79.0
485,93.137603325,93.30831144375,71.0,77.0
486,93.36148282500001,93.69077225625,66.0,59.0
487,93.36148282500001,93.86054754375,74.0,91.0
488,93.809241825,94.04431530000001,59.0,53.0
489,94.03312132500001,94.13759842500001,64.0,75.0
490,94.03312132500001,94.19263546875,73.0,84.0
491,94.257000825,94.34375413125001,73.0,49.0
492,94.257000825,94.48927580625,59.0,43.0
493,94.480880325,94.78591614375,66.0,76.0
494,93.36148282500001,94.80830409375001,47.0,81.0
495,94.70475982500001,94.81576674375,59.0,62.0
496,94.480880325,94.81763240625,74.0,86.0
497,93.585362325,94.83255770625,54.0,78.0
498,94.928639325,95.085354975,69.0,82.0
499,95.152518825,95.6413224,71.0,78.0
500,95.152518825,95.80456786875,62.0,84.0
501,95.152518825,95.84654527500001,67.0,80.0
502,95.824157325,96.07508893125001,55.0,61.0
503,96.04803682500001,96.346542825,71.0,77.0
504,96.04803682500001,96.3670651125,62.0,83.0
505,96.04803682500001,96.3707964375,67.0,84.0
506,95.152518825,96.57508648125001,43.0,82.0
507,96.271916325,96.61426539375,55.0,78.0
508,96.495795825,96.66277261875001,62.0,72.0
509,96.71967532500001,96.79523465625,67.0,68.0
510,96.71967532500001,96.88665211875,71.0,78.0
511,96.943554825,97.346537925,45.0,90.0
512,97.167434325,97.3857168375,52.0,80.0
513,97.39131382500001,97.69168548750001,57.0,54.0
514,96.943554825,97.86425926875,69.0,80.0
515,96.943554825,97.891311375,73.0,90.0
516,96.943554825,97.90250535,64.0,84.0
517,97.839072825,98.12358635625,61.0,80.0
518,97.615193325,98.13664599375001,59.0,73.0
519,98.062952325,98.22433213125001,64.0,72.0
520,98.28683182500001,98.66276281875001,71.0,78.0
521,98.510711325,98.6860836,73.0,82.0
522,98.734590825,99.20940193125,47.0,79.0
523,98.95847032500001,99.27656578125,54.0,71.0
524,99.406229325,99.7028696625,59.0,72.0
525,98.734590825,99.8894359125,74.0,79.0
526,98.734590825,99.91462235625,66.0,74.0
527,100.077867825,100.2513744375,66.0,63.0
528,100.30174732500001,100.5013732125,73.0,72.0
529,99.853988325,100.53588796875,62.0,76.0
530,100.525626825,100.77842409375,74.0,80.0
531,100.749506325,100.913684625,73.0,79.0
532,100.97338582500001,101.1356984625,71.0,71.0
533,101.197265325,101.3726376,66.0,75.0
534,101.421144825,101.69073305625001,71.0,73.0
535,101.64502432500001,101.78774750625,73.0,78.0
536,101.421144825,101.94259749375,62.0,75.0
537,99.63010882500001,101.96498544375001,61.0,67.0
538,101.868903825,101.99483604375,76.0,80.0
539,102.31666282500001,102.9752416875,55.0,84.0
540,102.31666282500001,103.24856124375,71.0,86.0
541,102.31666282500001,103.249494075,62.0,84.0
542,102.31666282500001,103.26255371250001,67.0,90.0
543,102.31666282500001,103.2812103375,43.0,81.0
544,103.212180825,103.29520280625,55.0,78.0
545,103.65993982500001,104.30266055625,57.0,84.0
546,103.65993982500001,104.78773280625,73.0,93.0
547,103.65993982500001,104.80825509375,64.0,83.0
548,103.65993982500001,104.82877738125,69.0,84.0
549,104.779337325,105.00974664375,57.0,79.0
550,105.00321682500001,105.30265565625001,64.0,86.0
551,105.00321682500001,105.31758095625001,73.0,96.0
552,103.65993982500001,105.32411077500001,45.0,91.0
553,105.00321682500001,105.376349325,69.0,90.0
554,105.227096325,105.40713275625001,57.0,93.0
555,105.450975825,105.71030291250001,64.0,76.0
556,105.67485532500001,105.88660801875001,69.0,79.0
557,105.898734825,106.46029923750001,66.0,53.0
558,105.898734825,106.47522453750001,69.0,57.0
559,105.898734825,106.5162691125,64.0,61.0
560,105.898734825,106.5162691125,74.0,72.0
561,105.898734825,106.89779709375,62.0,60.0
562,106.794252825,107.1879076125,74.0,54.0
563,106.794252825,107.2438774875,69.0,72.0
564,106.794252825,107.28958621875,66.0,71.0
565,106.794252825,107.29238471250001,64.0,59.0
566,105.898734825,107.32130248125,50.0,72.0
567,105.898734825,107.33995910625,57.0,72.0
568,107.242011825,107.3408919375,62.0,59.0
569,107.68977082500001,108.04238103750001,61.0,50.0
570,107.68977082500001,108.33529005000001,73.0,76.0
571,107.68977082500001,108.36140932500001,64.0,69.0
572,107.68977082500001,108.3707376375,69.0,73.0
573,108.36140932500001,108.70562405625,61.0,25.0
574,108.585288825,108.9005857875,73.0,79.0
575,108.585288825,108.99760023750001,69.0,76.0
576,107.68977082500001,109.0143912,49.0,72.0
577,108.585288825,109.0199881875,64.0,75.0
578,109.03304782500001,109.443493575,55.0,50.0
579,109.480806825,109.83248420625,69.0,75.0
580,109.480806825,109.9080435375,66.0,76.0
581,109.480806825,109.95188660625,62.0,72.0
582,109.928565825,110.3744591625,54.0,68.0
583,109.480806825,110.3781904875,47.0,79.0
584,110.37632482500001,110.57501788125,62.0,62.0
585,110.37632482500001,110.66456968125,66.0,71.0
586,110.37632482500001,110.74479316875001,69.0,71.0
587,110.37632482500001,110.86885972500001,59.0,47.0
588,111.71960182500001,112.2699722625,74.0,76.0
589,111.27184282500001,112.29515870625,62.0,68.0
590,110.824083825,112.36978520625,61.0,61.0
591,112.167360825,112.5199710375,64.0,73.0
592,112.167360825,112.592731875,73.0,84.0
593,113.062878825,113.50970499375,66.0,73.0
594,112.61511982500001,113.52463029375001,69.0,82.0
595,113.510637825,114.0125010375,57.0,54.0
596,113.95839682500001,114.368842575,62.0,67.0
597,113.95839682500001,114.38003655,66.0,74.0
598,113.062878825,114.4154841375,50.0,78.0
599,113.95839682500001,114.44906606250001,64.0,70.0
600,113.95839682500001,114.44906606250001,69.0,72.0
601,114.406155825,114.86137747500001,57.0,54.0
602,114.853914825,115.31659912500001,69.0,75.0
603,114.853914825,115.36790484375001,64.0,78.0
604,115.30167382500001,115.83245480625,57.0,56.0
605,115.749432825,115.99103611875,64.0,83.0
606,115.749432825,116.01528973125001,69.0,83.0
607,115.97331232500001,116.21678128125001,57.0,76.0
608,114.853914825,116.24103489375001,49.0,80.0
609,116.197191825,116.3632357875,64.0,73.0
610,116.421071325,116.5815183,66.0,76.0
611,116.64495082500001,117.0983068125,66.0,73.0
612,116.64495082500001,117.163605,62.0,79.0
613,117.092709825,117.622557975,54.0,59.0
614,117.540468825,117.9602428875,66.0,72.0
615,117.540468825,118.00035463125,62.0,74.0
616,117.540468825,118.03020523125001,61.0,63.0
617,117.540468825,118.67572445625001,59.0,55.0
618,118.435986825,118.78486571250001,66.0,73.0
619,118.435986825,118.93225305,61.0,56.0
620,118.435986825,119.04232713750001,62.0,74.0
621,116.64495082500001,119.31191536875001,47.0,74.0
622,119.107625325,119.35762410000001,59.0,46.0
623,117.98822782500001,119.42198945625,54.0,42.0
624,119.33150482500001,119.659861425,61.0,72.0
625,119.33150482500001,119.69344335000001,66.0,76.0
626,119.33150482500001,119.70277166250001,62.0,80.0
627,119.555384325,119.79045780000001,47.0,75.0
628,119.779263825,119.928516825,54.0,75.0
629,120.00314332500001,120.15892614375001,64.0,76.0
630,120.227022825,120.697169775,67.0,84.0
631,120.227022825,120.77925892500001,62.0,80.0
632,120.227022825,120.7904529,59.0,75.0
633,120.67478182500001,121.30071159375001,55.0,53.0
634,121.122540825,121.6430606625,67.0,83.0
635,121.122540825,121.6579859625,62.0,83.0
636,121.122540825,121.67197843125001,59.0,73.0
637,120.227022825,121.71675433125,43.0,83.0
638,121.570299825,121.87999980000001,55.0,63.0
639,122.01805882500001,122.58428739375,67.0,72.0
640,122.01805882500001,122.6113395,59.0,68.0
641,122.01805882500001,122.64025726875,62.0,79.0
642,122.465817825,122.8594726125,55.0,55.0
643,122.913576825,123.36599998125,59.0,75.0
644,122.913576825,123.36693281250001,67.0,81.0
645,122.913576825,123.39025359375,62.0,82.0
646,122.01805882500001,123.48540238125001,43.0,74.0
647,123.36133582500001,123.63558821250001,55.0,73.0
648,123.809094825,124.40983815000001,62.0,82.0
649,123.809094825,124.43222610000001,67.0,83.0
650,123.809094825,124.4340917625,58.0,79.0
651,123.809094825,124.79882878125001,55.0,67.0
652,123.809094825,125.20087905000001,43.0,78.0
653,124.70461282500001,125.20927453125,67.0,71.0
654,124.70461282500001,125.22793115625001,62.0,82.0
655,124.70461282500001,125.24192362500001,58.0,76.0
656,125.152371825,125.5236386625,55.0,62.0
657,125.60013082500001,126.11971783125,67.0,76.0
658,125.60013082500001,126.1505012625,58.0,76.0
659,125.60013082500001,126.2064711375,62.0,79.0
660,126.04788982500001,126.5124397875,55.0,51.0
661,125.60013082500001,126.95366896875001,43.0,53.0
662,126.495648825,126.96113161875,58.0,77.0
663,126.495648825,126.96766143750001,67.0,83.0
664,126.495648825,126.98911655625001,62.0,86.0
665,126.94340782500001,127.0684072125,55.0,71.0
666,127.391166825,127.55814361875001,45.0,83.0
667,127.391166825,127.8743734125,81.0,86.0
668,127.61504632500001,127.94993274375001,57.0,68.0
669,128.286684825,128.5814595,64.0,76.0
670,128.062805325,128.6131757625,61.0,86.0
671,127.838925825,128.622504075,59.0,76.0
672,128.51056432500002,128.81933146875,69.0,83.0
673,128.734443825,129.04507663125,74.0,86.0
674,128.958323325,129.26429197500002,64.0,82.0
675,128.958323325,129.46858201875,73.0,90.0
676,129.406082325,129.52828321875,66.0,78.0
677,129.406082325,129.55253683125,74.0,90.0
678,129.18220282500002,129.570260625,45.0,80.0
679,129.406082325,129.61690218750002,52.0,80.0
680,129.629961825,129.69246151875,69.0,47.0
681,129.85384132500002,129.8818262625,66.0,43.0
682,129.85384132500002,129.950855775,69.0,83.0
683,129.85384132500002,130.0049599875,76.0,91.0
684,129.629961825,130.17939943125,57.0,63.0
685,130.077720825,130.53667380000002,59.0,49.0
686,130.301600325,130.644882225,61.0,83.0
687,130.52547982500002,130.68872529375,76.0,90.0
688,130.749359325,130.94898521250002,78.0,78.0
689,130.973238825,131.2512225375,79.0,90.0
690,130.973238825,131.25775235625,71.0,75.0
691,130.973238825,131.26055085000002,74.0,82.0
692,131.420997825,131.503086975,69.0,50.0
693,131.420997825,131.60383275,78.0,76.0
694,131.644877325,131.68125774375,78.0,62.0
695,131.644877325,131.74842159375,69.0,80.0
696,131.644877325,131.749354425,74.0,80.0
697,131.644877325,131.78760050625002,79.0,86.0
698,131.86875682500002,132.11129295,57.0,69.0
699,132.092636325,132.1877851125,69.0,75.0
700,132.092636325,132.1989790875,74.0,84.0
701,132.092636325,132.25961311875,81.0,83.0
702,130.973238825,132.51894020625,45.0,84.0
703,132.316515825,132.60662634375,57.0,63.0
704,132.54039532500002,132.66539471250002,69.0,55.0
705,131.420997825,132.68684983125002,52.0,79.0
706,132.764274825,132.94337842500002,81.0,90.0
707,132.764274825,132.9676320375,74.0,81.0
708,132.764274825,132.99841546875,69.0,77.0
709,133.21203382500002,133.5795693375,57.0,80.0
710,132.764274825,133.5982259625,45.0,90.0
711,133.435913325,133.6206139125,62.0,83.0
712,133.659792825,133.7157627,62.0,34.0
713,133.659792825,133.90606027500002,57.0,79.0
714,133.659792825,133.91072443125,61.0,82.0
715,133.659792825,133.9545675,45.0,57.0
716,132.988154325,134.0161343625,52.0,81.0
717,133.659792825,134.01800002500002,64.0,93.0
718,134.107551825,134.2176259125,64.0,86.0
719,134.107551825,134.22415573125,61.0,82.0
720,134.107551825,134.23628253750002,67.0,84.0
721,134.107551825,134.31370753125,47.0,82.0
722,134.555310825,135.2362776375,74.0,90.0
723,134.555310825,135.26332974375,66.0,83.0
724,134.555310825,135.26892673125002,69.0,86.0
725,134.555310825,135.66351435,62.0,81.0
726,135.450828825,135.96108751875002,74.0,86.0
727,135.450828825,135.98720679375,69.0,84.0
728,135.898587825,135.99466944375,62.0,75.0
729,135.450828825,135.99653510625,66.0,81.0
730,134.555310825,135.9974679375,50.0,90.0
731,136.346346825,136.74746426250002,61.0,74.0
732,136.346346825,137.03664195000002,73.0,83.0
733,136.346346825,137.04130610625,76.0,76.0
734,136.346346825,137.05623140625002,64.0,77.0
735,136.346346825,137.06369405625,69.0,76.0
736,136.794105825,137.1877606125,61.0,57.0
737,136.346346825,137.4937292625,49.0,86.0
738,137.241864825,137.741862375,69.0,80.0
739,137.241864825,137.75398918125,64.0,83.0
740,137.689623825,137.7773099625,61.0,72.0
741,137.241864825,137.79783225,73.0,86.0
742,137.689623825,137.8295485125,49.0,72.0
743,138.137382825,138.5086496625,59.0,75.0
744,138.137382825,138.83234210625,74.0,84.0
745,138.137382825,138.8407375875,66.0,77.0
746,138.137382825,138.8482002375,69.0,79.0
747,138.809021325,139.16443003125002,59.0,59.0
748,138.137382825,139.480659825,47.0,84.0
749,139.032900825,139.49558512500002,74.0,90.0
750,139.032900825,139.5235700625,69.0,84.0
751,139.032900825,139.52730138750002,66.0,83.0
752,139.480659825,139.53756253125002,47.0,79.0
753,139.480659825,139.55901765000002,59.0,73.0
754,139.928418825,140.29315584375001,54.0,79.0
755,139.928418825,140.42002089375,73.0,83.0
756,139.928418825,140.43587902500002,64.0,79.0
757,139.928418825,140.6317735875,69.0,78.0
758,140.823936825,141.04128650625,73.0,84.0
759,140.823936825,141.16628589375,66.0,81.0
760,140.600057325,141.17095005000002,54.0,84.0
761,141.047816325,141.35098648125,74.0,86.0
762,141.271695825,141.4116205125,73.0,82.0
763,139.928418825,141.56180634375,42.0,86.0
764,141.495575325,141.60844790625,54.0,79.0
765,141.495575325,141.66535061250002,69.0,80.0
766,141.719454825,142.12710208125,55.0,79.0
767,141.719454825,142.41254844375,71.0,76.0
768,141.719454825,142.4153469375,62.0,82.0
769,141.719454825,142.44053338125002,67.0,79.0
770,142.391093325,142.90135201875,55.0,75.0
771,142.614972825,143.05153785000002,71.0,76.0
772,141.719454825,143.1168360375,43.0,77.0
773,142.614972825,143.14202248125,62.0,78.0
774,142.614972825,143.14202248125,67.0,83.0
775,143.06273182500001,143.29034265,55.0,73.0
776,143.286611325,143.42933450625,67.0,73.0
777,143.286611325,143.44332697500002,71.0,69.0
778,142.838852325,143.4563866125,50.0,83.0
779,143.510490825,144.05619710625,45.0,84.0
780,143.958249825,144.1392190875,52.0,79.0
781,144.182129325,144.51981423750001,57.0,58.0
782,143.510490825,144.6466792875,69.0,80.0
783,143.510490825,144.66067175625,73.0,80.0
784,143.510490825,144.6690672375,64.0,82.0
785,144.40600882500001,144.86589463125,59.0,73.0
786,144.629888325,144.8780214375,61.0,84.0
787,144.853767825,145.13081870625,64.0,78.0
788,145.07764732500002,145.2138406875,69.0,82.0
789,145.301526825,145.5981671625,47.0,82.0
790,145.525406325,145.7157039,54.0,79.0
791,145.74928582500002,146.02726953750002,59.0,58.0
792,145.301526825,146.2362237375,66.0,84.0
793,145.301526825,146.2735369875,74.0,91.0
794,146.197044825,146.48528968125,62.0,86.0
795,145.973165325,146.51887160625,61.0,78.0
796,146.42092432500002,146.577639975,66.0,79.0
797,146.644803825,146.891071275,73.0,83.0
798,146.868683325,146.9097279,66.0,53.0
799,146.868683325,147.1914429375,74.0,91.0
800,147.09256282500002,147.2959200375,73.0,84.0
801,147.316442325,147.52259803125,71.0,75.0
802,147.540321825,147.76420132500002,66.0,75.0
803,147.76420132500002,147.9563645625,64.0,68.0
804,147.988080825,148.34348953125001,62.0,76.0
805,147.09256282500002,148.44236964375,47.0,78.0
806,148.211960325,148.44236964375,59.0,76.0
807,148.43583982500002,148.44236964375,59.0,62.0
808,147.316442325,148.50673500000002,54.0,78.0
809,148.43583982500002,148.5459139125,61.0,69.0
810,148.659719325,148.8145693125,62.0,80.0
811,148.883598825,149.2250150625,66.0,81.0
812,148.883598825,149.2548656625,62.0,82.0
813,148.883598825,149.66997556875,57.0,78.0
814,148.883598825,149.868668625,50.0,82.0
815,149.77911682500002,150.08788396875002,57.0,82.0
816,149.77911682500002,150.1037421,62.0,86.0
817,149.555237325,150.1279957125,38.0,50.0
818,149.77911682500002,150.1335927,69.0,86.0
819,150.002996325,150.27351738750002,50.0,78.0
820,150.226875825,150.413442075,57.0,61.0
821,150.45075532500002,150.59534416875002,69.0,80.0
822,150.674634825,150.94049173125,61.0,82.0
823,150.674634825,150.97407365625,64.0,84.0
824,150.674634825,151.00672275,69.0,71.0
825,151.346273325,151.42463115,69.0,68.0
826,151.346273325,151.47313837500002,64.0,58.0
827,151.346273325,151.6130630625,74.0,84.0
828,151.570152825,151.78190551875,61.0,54.0
829,151.79403232500002,152.04216543750002,66.0,70.0
830,151.79403232500002,152.07108320625,73.0,81.0
831,152.017911825,152.10279946875002,61.0,68.0
832,150.674634825,152.12145609375,49.0,90.0
833,151.12239382500002,152.16063500625,57.0,72.0
834,152.241791325,152.4078352875,71.0,75.0
835,152.46567082500002,152.64570725625,43.0,84.0
836,152.689550325,152.988056325,55.0,47.0
837,152.46567082500002,153.20540600625,71.0,80.0
838,152.46567082500002,153.21939847500002,62.0,79.0
839,152.46567082500002,153.2231298,67.0,57.0
840,153.361188825,153.51883730625002,62.0,81.0
841,153.13730932500002,153.6764857875,59.0,80.0
842,152.913429825,153.7007394,57.0,76.0
843,153.585068325,153.73059,67.0,83.0
844,153.80894782500002,153.9712604625,69.0,79.0
845,154.032827325,154.20353544375,71.0,77.0
846,154.256706825,154.58599625625,66.0,59.0
847,154.256706825,154.75577154375,74.0,91.0
848,154.704465825,154.9395393,59.0,53.0
849,154.928345325,155.032822425,64.0,75.0
850,154.928345325,155.08785946875,73.0,84.0
851,155.15222482500002,155.23897813125,73.0,49.0
852,155.15222482500002,155.38449980625,59.0,43.0
853,155.376104325,155.68114014375,66.0,76.0
854,154.256706825,155.70352809375,47.0,81.0
855,155.599983825,155.71099074375002,59.0,62.0
856,155.376104325,155.71285640625,74.0,86.0
857,154.48058632500002,155.72778170625,54.0,78.0
858,155.82386332500002,155.98057897500001,69.0,82.0
859,156.047742825,156.53654640000002,71.0,78.0
860,156.047742825,156.69979186875,62.0,84.0
861,156.047742825,156.741769275,67.0,80.0
862,156.719381325,156.97031293125002,55.0,61.0
863,156.943260825,157.241766825,71.0,77.0
864,156.943260825,157.2622891125,62.0,83.0
865,156.943260825,157.2660204375,67.0,84.0
866,156.047742825,157.47031048125,43.0,82.0
867,157.16714032500002,157.50948939375002,55.0,78.0
868,157.391019825,157.55799661875,62.0,72.0
869,157.614899325,157.69045865625,67.0,68.0
870,157.614899325,157.78187611875,71.0,78.0
871,157.83877882500002,158.24176192500002,45.0,90.0
872,158.062658325,158.2809408375,52.0,80.0
873,158.286537825,158.5869094875,57.0,54.0
874,157.83877882500002,158.75948326875002,69.0,80.0
875,157.83877882500002,158.786535375,73.0,90.0
876,157.83877882500002,158.79772935,64.0,84.0
877,158.734296825,159.01881035625001,61.0,80.0
878,158.51041732500002,159.03186999375,59.0,73.0
879,158.958176325,159.11955613125002,64.0,72.0
880,159.18205582500002,159.55798681875,71.0,78.0
881,159.405935325,159.5813076,73.0,82.0
882,159.629814825,159.9301864875,66.0,82.0
883,159.629814825,159.94044763125,59.0,75.0
884,159.629814825,159.943246125,62.0,83.0
885,159.85369432500002,160.39566928125,55.0,57.0
886,160.077573825,160.78372708125002,59.0,71.0
887,160.301453325,160.82663731875002,62.0,91.0
888,160.973091825,161.1428671125,59.0,68.0
889,159.629814825,161.15592675000002,43.0,80.0
890,160.749212325,161.29491860625,55.0,69.0
891,161.19697132500002,161.85461735625,62.0,84.0
892,161.19697132500002,161.85741585,66.0,83.0
893,161.19697132500002,161.90872156875,59.0,71.0
894,162.092489325,162.413383275,59.0,75.0
895,162.092489325,162.43670405625,69.0,79.0
896,162.092489325,162.44043538125,62.0,83.0
897,161.86860982500002,162.6055465125,55.0,62.0
898,161.420850825,162.77812029375002,43.0,72.0
899,161.644730325,162.79117993125,50.0,75.0
900,162.54024832500002,162.86767209375,62.0,79.0
901,162.54024832500002,162.88446305625,59.0,74.0
902,162.54024832500002,162.91338082500002,66.0,84.0
903,162.764127825,163.14005881875002,55.0,71.0
904,162.988007325,163.15684978125,64.0,83.0
905,163.21188682500002,163.5383777625,62.0,82.0
906,163.21188682500002,163.63445938125,66.0,83.0
907,163.883525325,164.1577777125,62.0,63.0
908,164.107404825,164.234269875,64.0,76.0
909,164.107404825,164.25945631875,69.0,63.0
910,164.107404825,164.43203010000002,73.0,83.0
911,163.21188682500002,164.64564845625,50.0,81.0
912,164.555163825,164.67736471875,66.0,62.0
913,164.555163825,164.7156108,69.0,69.0
914,164.555163825,164.75292405000002,74.0,78.0
915,164.331284325,164.76131953125,62.0,47.0
916,163.659645825,164.87792343750002,57.0,63.0
917,164.779043325,165.0887433,64.0,76.0
918,164.779043325,165.2473246125,73.0,84.0
919,165.226802325,165.72586704375001,64.0,76.0
920,165.226802325,165.76318029375,69.0,82.0
921,165.226802325,165.861127575,57.0,76.0
922,165.674561325,165.96840316875,62.0,69.0
923,165.898440825,166.08593990625002,64.0,82.0
924,165.898440825,166.22959591875002,69.0,84.0
925,166.122320325,166.30608808125,57.0,76.0
926,165.002922825,166.3107522375,50.0,83.0
927,166.346199825,166.55142270000002,64.0,71.0
928,166.793958825,167.2081359,43.0,80.0
929,167.017838325,167.24638198125,50.0,72.0
930,166.793958825,167.38257534375,59.0,63.0
931,166.793958825,167.443209375,62.0,72.0
932,167.241717825,167.52436569375,54.0,62.0
933,166.793958825,167.74917802500002,69.0,71.0
934,166.570079325,167.7752973,66.0,78.0
935,167.689476825,167.93294578125,59.0,73.0
936,167.465597325,167.96839336875001,55.0,80.0
937,167.913356325,168.12884034375,62.0,83.0
938,168.137235825,168.2808918375,69.0,76.0
939,168.36111532500001,168.78928486875,69.0,29.0
940,168.36111532500001,168.80794149375,66.0,79.0
941,168.36111532500001,168.82566528750002,62.0,74.0
942,168.36111532500001,168.82846378125,59.0,63.0
943,169.03275382500001,169.1838724875,59.0,57.0
944,168.808874325,169.34898361875,55.0,60.0
945,169.256633325,169.76782485,62.0,83.0
946,169.256633325,169.76782485,66.0,81.0
947,169.256633325,169.78648147500002,59.0,75.0
948,169.70439232500001,169.91801068125,55.0,70.0
949,169.928271825,169.94599561875,62.0,44.0
950,168.36111532500001,169.95159260625002,43.0,83.0
951,169.928271825,169.99636850625,66.0,74.0
952,169.928271825,170.0308832625,59.0,74.0
953,170.37603082500002,170.66427568125002,66.0,80.0
954,170.37603082500002,170.66800700625,57.0,72.0
955,170.37603082500002,170.6726711625,61.0,80.0
956,170.823789825,170.95905035625,57.0,57.0
957,170.599910325,171.2920711125,50.0,68.0
958,171.04766932500002,171.4170705,57.0,78.0
959,171.04766932500002,171.48330151875,61.0,81.0
960,171.04766932500002,171.51315211875,64.0,84.0
961,171.71930782500002,171.86203100625002,57.0,38.0
962,171.495428325,172.2062457375,50.0,63.0
963,171.943187325,172.33777494375002,64.0,75.0
964,171.943187325,172.33964060625001,66.0,78.0
965,171.943187325,172.39094632500002,61.0,79.0
966,171.943187325,172.405871625,57.0,69.0
967,172.614825825,172.76221316250002,57.0,59.0
968,172.39094632500002,172.8946752,50.0,55.0
969,172.838705325,173.1390769875,66.0,83.0
970,172.838705325,173.159599275,57.0,63.0
971,172.838705325,173.17452457500002,61.0,84.0
972,173.286464325,173.33124022500002,61.0,53.0
973,173.06258482500002,173.37881461875,50.0,72.0
974,173.286464325,173.40306823125002,66.0,77.0
975,173.286464325,173.4767619,57.0,78.0
976,170.37603082500002,173.4935528625,38.0,83.0
977,173.510343825,173.61761941875,50.0,75.0
978,173.958102825,174.22395973125,62.0,82.0
979,173.958102825,174.23142238125,59.0,75.0
980,173.958102825,174.23515370625,66.0,76.0
981,173.958102825,174.47022718125,55.0,71.0
982,174.40586182500002,174.88720275,66.0,63.0
983,174.40586182500002,174.90492654375,62.0,75.0
984,174.40586182500002,174.97302322500002,59.0,55.0
985,175.07750032500002,175.2883201875,59.0,49.0
986,174.853620825,175.79951171250002,55.0,62.0
987,175.525259325,175.9935406125,69.0,75.0
988,175.301379825,175.99447344375,66.0,63.0
989,175.525259325,176.01499573125,59.0,75.0
990,175.525259325,176.01592856250002,62.0,72.0
991,176.196897825,176.35921046250002,59.0,61.0
992,175.973018325,176.49447099375,55.0,60.0
993,176.42077732500002,176.72021615625002,59.0,73.0
994,176.42077732500002,176.72394748125,62.0,83.0
995,176.42077732500002,176.7360742875,66.0,82.0
996,176.644656825,176.9077152375,55.0,63.0
997,176.868536325,176.95622246250002,62.0,68.0
998,176.868536325,177.15864684375,59.0,75.0
999,177.09241582500002,177.1763706375,62.0,78.0
1000,177.09241582500002,177.18569895000002,55.0,69.0
1001,177.09241582500002,177.19969141875,66.0,80.0
1002,173.958102825,177.21741521250001,43.0,82.0
1003,177.540174825,177.75379318125002,61.0,83.0
1004,177.540174825,177.7883079375,64.0,79.0
1005,177.540174825,177.801367575,57.0,76.0
1006,177.540174825,177.90677750625,54.0,78.0
1007,177.540174825,177.91890431250002,42.0,84.0
1008,177.987933825,178.234201275,54.0,82.0
1009,177.987933825,178.45341661875,61.0,80.0
1010,177.987933825,178.46740908750002,57.0,75.0
1011,177.987933825,178.4711404125,64.0,79.0
1012,178.659572325,178.81535514375,57.0,57.0
1013,178.43569282500002,178.83587743125,54.0,63.0
1014,178.883451825,179.06628675000002,64.0,76.0
1015,179.10733132500002,179.5980005625,57.0,79.0
1016,179.10733132500002,179.59893339375,69.0,82.0
1017,179.77896982500002,179.90676770625,57.0,54.0
1018,179.555090325,180.06908034375002,54.0,61.0
1019,177.987933825,180.12598305,42.0,84.0
1020,180.226728825,180.30508665000002,54.0,68.0
1021,180.226728825,180.3218776125,42.0,84.0
1022,180.002849325,180.3330715875,57.0,80.0
1023,180.002849325,180.3629221875,64.0,86.0
1024,180.45060832500002,180.58960018125,57.0,75.0
1025,180.674487825,180.73045770000002,53.0,58.0
1026,180.674487825,180.80415136875,62.0,84.0
1027,180.898367325,181.03642635,64.0,46.0
1028,180.674487825,181.06347845625,41.0,83.0
1029,181.12224682500002,181.2136642875,62.0,82.0
1030,181.12224682500002,181.22765675625,59.0,79.0
1031,181.12224682500002,181.24817904375,67.0,82.0
1032,181.12224682500002,181.26123868125,52.0,73.0
1033,181.12224682500002,181.2733654875,40.0,83.0
1034,181.570005825,181.79854948125,52.0,75.0
1035,181.570005825,181.972988925,67.0,81.0
1036,181.570005825,182.05041391875,62.0,79.0
1037,181.570005825,182.07373470000002,59.0,78.0
1038,182.017764825,182.45899400625,52.0,57.0
1039,182.241644325,182.52429219375,59.0,59.0
1040,182.46552382500002,182.607314175,62.0,76.0
1041,182.689403325,183.08399094375,67.0,84.0
1042,182.689403325,183.12876684375001,62.0,82.0
1043,182.689403325,183.15488611875,59.0,76.0
1044,183.361041825,183.53921259375002,59.0,63.0
1045,183.13716232500002,183.62689873125,52.0,78.0
1046,183.584921325,183.90488244375,59.0,68.0
1047,183.584921325,183.91234509375002,62.0,86.0
1048,183.584921325,183.9151435875,67.0,86.0
1049,183.80880082500002,184.05600110625002,52.0,72.0
1050,181.570005825,184.21831374375,40.0,83.0
1051,184.032680325,184.34144746875,59.0,77.0
1052,184.256559825,184.3591712625,52.0,71.0
1053,184.032680325,184.44592456875,66.0,84.0
1054,184.48043932500002,184.61849835,62.0,73.0
1055,184.704318825,185.10823475625,67.0,83.0
1056,184.704318825,185.17539860625,62.0,82.0
1057,184.704318825,185.21084619375,59.0,75.0
1058,185.375957325,185.7173735625,59.0,63.0
1059,185.15207782500002,185.8330446375,57.0,62.0
1060,185.82371632500002,186.08957323125,67.0,83.0
1061,185.82371632500002,186.0905060625,59.0,77.0
1062,185.82371632500002,186.13528196250002,62.0,90.0
1063,184.704318825,186.271475325,45.0,82.0
1064,186.271475325,186.37968375,57.0,54.0
1065,184.928198325,186.42912380625,52.0,72.0
1066,186.49535482500002,186.93658400625,64.0,78.0
1067,186.49535482500002,186.94218099375001,69.0,82.0
1068,186.49535482500002,186.96177045000002,61.0,79.0
1069,186.943113825,187.4449770375,52.0,69.0
1070,187.390872825,187.48415595,62.0,82.0
1071,187.390872825,187.50934239375002,59.0,78.0
1072,187.390872825,187.53919299375002,67.0,86.0
1073,187.390872825,187.6352746125,57.0,69.0
1074,186.49535482500002,187.89273603750001,45.0,78.0
1075,187.83863182500002,187.9188553125,61.0,76.0
1076,187.83863182500002,187.91978814375,62.0,84.0
1077,187.83863182500002,187.9822878375,69.0,83.0
1078,187.83863182500002,188.13993631875002,52.0,83.0
1079,188.286390825,188.6203444125,45.0,80.0
1080,188.286390825,188.63247121875,62.0,82.0
1081,188.286390825,188.64646368750002,59.0,76.0
1082,188.286390825,188.64832935,67.0,82.0
1083,190.077426825,190.7583936375,74.0,90.0
1084,190.077426825,190.78544574375002,66.0,83.0
1085,190.077426825,190.79104273125,69.0,86.0
1086,190.077426825,191.18563035,62.0,81.0
1087,190.972944825,191.48320351875,74.0,86.0
1088,190.972944825,191.50932279375002,69.0,84.0
1089,191.420703825,191.51678544375,62.0,75.0
1090,190.972944825,191.51865110625002,66.0,81.0
1091,190.077426825,191.51958393750002,50.0,90.0
1092,191.86846282500002,192.2695802625,61.0,74.0
1093,191.86846282500002,192.55875795,73.0,83.0
1094,191.86846282500002,192.56342210625002,76.0,76.0
1095,191.86846282500002,192.57834740625,64.0,77.0
1096,191.86846282500002,192.58581005625,69.0,76.0
1097,192.316221825,192.7098766125,61.0,57.0
1098,191.86846282500002,193.01584526250002,49.0,86.0
1099,192.763980825,193.26397837500002,69.0,80.0
1100,192.763980825,193.27610518125002,64.0,83.0
1101,193.211739825,193.2994259625,61.0,72.0
1102,192.763980825,193.31994825,73.0,86.0
1103,193.211739825,193.3516645125,49.0,72.0
1104,193.65949882500001,194.03076566250002,59.0,75.0
1105,193.65949882500001,194.35445810625,74.0,84.0
1106,193.65949882500001,194.3628535875,66.0,77.0
1107,193.65949882500001,194.37031623750002,69.0,79.0
1108,194.33113732500001,194.68654603125,59.0,59.0
1109,193.65949882500001,195.00277582500001,47.0,84.0
1110,194.555016825,195.017701125,74.0,90.0
1111,194.555016825,195.0456860625,69.0,84.0
1112,194.555016825,195.0494173875,66.0,83.0
1113,195.00277582500001,195.05967853125,47.0,79.0
1114,195.00277582500001,195.08113365,59.0,73.0
1115,195.450534825,195.81527184375,54.0,79.0
1116,195.450534825,195.94213689375002,73.0,83.0
1117,195.450534825,195.957995025,64.0,79.0
1118,195.450534825,196.1538895875,69.0,78.0
1119,196.34605282500002,196.56340250625001,73.0,84.0
1120,196.34605282500002,196.68840189375,66.0,81.0
1121,196.122173325,196.69306605,54.0,84.0
1122,196.569932325,196.87310248125002,74.0,86.0
1123,196.793811825,196.93373651250002,73.0,82.0
1124,195.450534825,197.08392234375,42.0,86.0
1125,197.01769132500002,197.13056390625002,54.0,79.0
1126,197.01769132500002,197.1874666125,69.0,80.0
1127,197.241570825,197.64921808125,55.0,79.0
1128,197.241570825,197.93466444375002,71.0,76.0
1129,197.241570825,197.93746293750002,62.0,82.0
1130,197.241570825,197.96264938125,67.0,79.0
1131,197.913209325,198.42346801875001,55.0,75.0
1132,198.137088825,198.57365385,71.0,76.0
1133,197.241570825,198.63895203750002,43.0,77.0
1134,198.137088825,198.66413848125,62.0,78.0
1135,198.137088825,198.66413848125,67.0,83.0
1136,198.584847825,198.81245865,55.0,73.0
1137,198.808727325,198.95145050625,67.0,73.0
1138,198.808727325,198.965442975,71.0,69.0
1139,198.36096832500002,198.97850261250002,50.0,83.0
1140,199.03260682500002,199.57831310625002,45.0,84.0
1141,199.480365825,199.66133508750002,52.0,79.0
1142,199.70424532500002,200.0419302375,57.0,58.0
1143,199.03260682500002,200.16879528750002,69.0,80.0
1144,199.03260682500002,200.18278775625,73.0,80.0
1145,199.03260682500002,200.1911832375,64.0,82.0
1146,199.928124825,200.38801063125,59.0,73.0
1147,200.152004325,200.4001374375,61.0,84.0
1148,200.37588382500002,200.65293470625002,64.0,78.0
1149,200.599763325,200.73595668750002,69.0,82.0
1150,200.823642825,201.12028316250002,47.0,82.0
1151,201.04752232500002,201.2378199,54.0,79.0
1152,201.271401825,201.5493855375,59.0,58.0
1153,200.823642825,201.75833973750002,66.0,84.0
1154,200.823642825,201.7956529875,74.0,91.0
1155,201.71916082500002,202.00740568125002,62.0,86.0
1156,201.495281325,202.04098760625,61.0,78.0
1157,201.943040325,202.09975597500002,66.0,79.0
1158,202.166919825,202.413187275,73.0,83.0
1159,202.39079932500002,202.43184390000002,66.0,53.0
1160,202.39079932500002,202.7135589375,74.0,91.0
1161,202.614678825,202.8180360375,73.0,84.0
1162,202.838558325,203.04471403125,71.0,75.0
1163,203.06243782500002,203.286317325,66.0,75.0
1164,203.286317325,203.4784805625,64.0,68.0
1165,203.510196825,203.86560553125,62.0,76.0
1166,202.614678825,203.96448564375,47.0,78.0
1167,203.73407632500002,203.96448564375,59.0,76.0
1168,203.957955825,203.96448564375,59.0,62.0
1169,202.838558325,204.028851,54.0,78.0
1170,203.957955825,204.0680299125,61.0,69.0
1171,204.181835325,204.3366853125,62.0,80.0
1172,204.40571482500002,204.74713106250002,66.0,81.0
1173,204.40571482500002,204.77698166250002,62.0,82.0
1174,204.40571482500002,205.19209156875002,57.0,78.0
1175,204.40571482500002,205.390784625,50.0,82.0
1176,205.301232825,205.60999996875,57.0,82.0
1177,205.301232825,205.62585810000002,62.0,86.0
1178,205.07735332500002,205.6501117125,38.0,50.0
1179,205.301232825,205.65570870000002,69.0,86.0
1180,205.525112325,205.7956333875,50.0,78.0
1181,205.74899182500002,205.93555807500002,57.0,61.0
1182,205.972871325,206.11746016875,69.0,80.0
1183,206.196750825,206.46260773125002,61.0,82.0
1184,206.196750825,206.49618965625,64.0,84.0
1185,206.196750825,206.52883875,69.0,71.0
1186,206.868389325,206.94674715000002,69.0,68.0
1187,206.868389325,206.995254375,64.0,58.0
1188,206.868389325,207.13517906250001,74.0,84.0
1189,207.09226882500002,207.30402151875,61.0,54.0
1190,207.316148325,207.5642814375,66.0,70.0
1191,207.316148325,207.59319920625,73.0,81.0
1192,207.540027825,207.62491546875,61.0,68.0
1193,206.196750825,207.64357209375,49.0,90.0
1194,206.644509825,207.68275100625002,57.0,72.0
1195,207.76390732500002,207.92995128750002,71.0,75.0
1196,207.987786825,208.16782325625002,43.0,84.0
1197,208.211666325,208.510172325,55.0,47.0
1198,207.987786825,208.72752200625,71.0,80.0
1199,207.987786825,208.741514475,62.0,79.0
1200,207.987786825,208.74524580000002,67.0,57.0
1201,208.883304825,209.04095330625,62.0,81.0
1202,208.659425325,209.1986017875,59.0,80.0
1203,208.43554582500002,209.22285540000001,57.0,76.0
1204,209.10718432500002,209.25270600000002,67.0,83.0
1205,209.331063825,209.4933764625,69.0,79.0
1206,209.554943325,209.72565144375,71.0,77.0
1207,209.77882282500002,210.10811225625002,66.0,59.0
1208,209.77882282500002,210.27788754375,74.0,91.0
1209,210.226581825,210.46165530000002,59.0,53.0
1210,210.45046132500002,210.55493842500002,64.0,75.0
1211,210.45046132500002,210.60997546875,73.0,84.0
1212,210.674340825,210.76109413125002,73.0,49.0
1213,210.674340825,210.90661580625002,59.0,43.0
1214,210.898220325,211.20325614375,66.0,76.0
1215,209.77882282500002,211.22564409375002,47.0,81.0
1216,211.12209982500002,211.23310674375,59.0,62.0
1217,210.898220325,211.23497240625002,74.0,86.0
1218,210.002702325,211.24989770625,54.0,78.0
1219,211.345979325,211.502694975,69.0,82.0
1220,211.569858825,212.0586624,71.0,78.0
1221,211.569858825,212.22190786875,62.0,84.0
1222,211.569858825,212.263885275,67.0,80.0
1223,212.241497325,212.49242893125,55.0,61.0
1224,212.46537682500002,212.763882825,71.0,77.0
1225,212.46537682500002,212.7844051125,62.0,83.0
1226,212.46537682500002,212.78813643750001,67.0,84.0
1227,211.569858825,212.99242648125002,43.0,82.0
1228,212.689256325,213.03160539375,55.0,78.0
1229,212.913135825,213.08011261875,62.0,72.0
1230,213.13701532500002,213.21257465625,67.0,68.0
1231,213.13701532500002,213.30399211875002,71.0,78.0
1232,213.360894825,213.763877925,45.0,90.0
1233,213.584774325,213.8030568375,52.0,80.0
1234,213.80865382500002,214.10902548750002,57.0,54.0
1235,213.360894825,214.28159926875,69.0,80.0
1236,213.360894825,214.308651375,73.0,90.0
1237,213.360894825,214.31984535,64.0,84.0
1238,214.256412825,214.54092635625,61.0,80.0
1239,214.032533325,214.55398599375002,59.0,73.0
1240,214.48029232500002,214.64167213125,64.0,72.0
1241,214.704171825,215.08010281875002,71.0,78.0
1242,214.928051325,215.1034236,73.0,82.0
1243,215.15193082500002,215.57636904375002,66.0,80.0
1244,215.15193082500002,215.61834645000002,62.0,82.0
1245,215.15193082500002,215.63327175,71.0,83.0
1246,215.82356932500002,216.06144129375002,61.0,79.0
1247,216.047448825,216.159388575,62.0,80.0
1248,216.271328325,216.54278221875,66.0,81.0
1249,215.15193082500002,216.65472196875,47.0,81.0
1250,215.599689825,216.71255750625002,59.0,69.0
1251,216.49520782500002,216.71815449375,71.0,80.0
1252,215.375810325,216.8291614125,54.0,76.0
1253,216.719087325,216.99240688125002,66.0,71.0
1254,216.719087325,217.08942133125,74.0,91.0
1255,217.16684632500002,217.32262914375002,64.0,81.0
1256,217.16684632500002,217.35527823750002,73.0,84.0
1257,217.614605325,217.86740259375,62.0,84.0
1258,217.390725825,217.8888577125,54.0,76.0
1259,217.614605325,217.89725319375,69.0,90.0
1260,218.062364325,218.092214925,69.0,49.0
1261,217.83848482500002,218.15658028125,59.0,73.0
1262,218.062364325,218.27598268125,62.0,83.0
1263,216.942966825,218.31329593125,47.0,72.0
1264,218.286243825,218.39818357500002,54.0,83.0
1265,218.286243825,218.43642965625,64.0,80.0
1266,218.51012332500002,218.60807060625,66.0,69.0
1267,218.734002825,219.22467206250002,66.0,82.0
1268,218.734002825,219.44015608125002,57.0,90.0
1269,218.734002825,219.46347686250002,62.0,86.0
1270,219.405641325,219.71907262500002,50.0,60.0
1271,219.62952082500001,220.10619759375,66.0,86.0
1272,219.62952082500001,220.148175,57.0,84.0
1273,219.62952082500001,220.15377198750002,62.0,86.0
1274,218.734002825,220.16403313125002,38.0,101.0
1275,220.30115932500001,220.45880780625,57.0,75.0
1276,220.077279825,220.52503882500002,50.0,75.0
1277,220.52503882500002,220.60339665,57.0,63.0
1278,220.52503882500002,220.8925743375,61.0,83.0
1279,220.52503882500002,220.92335776875,64.0,86.0
1280,221.19667732500002,221.48492218125,64.0,83.0
1281,221.19667732500002,221.48678784375002,69.0,84.0
1282,221.64443632500002,221.82913691250002,64.0,80.0
1283,221.420556825,221.96066611875,61.0,73.0
1284,220.52503882500002,222.09312815625,49.0,84.0
1285,221.86831582500002,222.11085195,69.0,80.0
1286,222.092195325,222.1985380875,73.0,82.0
1287,222.31607482500002,222.8589826125,71.0,84.0
1288,222.31607482500002,223.00543711875002,67.0,83.0
1289,222.31607482500002,223.0194295875,62.0,83.0
1290,223.211592825,223.37017413750002,62.0,80.0
1291,223.435472325,223.58379249375002,67.0,83.0
1292,222.31607482500002,223.79741085,43.0,83.0
1293,223.65935182500002,223.8291271125,69.0,81.0
1294,222.763833825,223.95319366875,50.0,76.0
1295,222.98771332500002,224.032484325,55.0,75.0
1296,223.883231325,224.09591685,71.0,78.0
1297,224.107110825,224.40841531875,66.0,79.0
1298,224.107110825,224.45132555625,47.0,82.0
1299,224.33099032500002,224.52688488750002,54.0,73.0
1300,224.107110825,224.56326530625,74.0,84.0
1301,224.554869825,224.66214541875001,66.0,75.0
1302,224.554869825,224.84871166875,59.0,57.0
1303,224.554869825,224.9933005125,73.0,91.0
1304,225.00262882500002,225.12389688750002,66.0,79.0
1305,225.00262882500002,225.28341103125,74.0,84.0
1306,224.778749325,225.39535078125002,61.0,72.0
1307,225.226508325,225.40374626250002,62.0,83.0
1308,225.450387825,225.55766341875002,69.0,81.0
1309,225.450387825,225.56326040625,66.0,80.0
1310,225.898146825,226.28340613125002,43.0,83.0
1311,226.122026325,226.33284618750002,50.0,79.0
1312,226.34590582500002,226.63601634375001,55.0,69.0
1313,225.898146825,226.71064284375,71.0,81.0
1314,225.898146825,226.78060518750002,67.0,74.0
1315,225.898146825,226.8347094,62.0,81.0
1316,226.793664825,227.07258136875,59.0,76.0
1317,226.569785325,227.07444703125,57.0,54.0
1318,227.01754432500002,227.17892413125,62.0,72.0
1319,227.241423825,227.40746778750002,67.0,79.0
1320,227.465303325,227.6388099375,71.0,75.0
1321,227.68918282500002,228.18078489375,73.0,82.0
1322,227.68918282500002,228.21996380625,69.0,83.0
1323,227.68918282500002,228.28619482500002,64.0,82.0
1324,228.136941825,228.58656648750002,52.0,69.0
1325,228.584700825,229.06884024375,73.0,86.0
1326,228.584700825,229.0753700625,69.0,82.0
1327,228.584700825,229.08936253125,57.0,62.0
1328,227.68918282500002,229.099623675,45.0,82.0
1329,228.584700825,229.10522066250002,64.0,79.0
1330,229.03245982500002,229.28992125000002,52.0,81.0
1331,229.480218825,229.56510646875,66.0,69.0
1332,229.480218825,229.577233275,64.0,63.0
1333,229.480218825,229.995141675,71.0,67.0
1334,230.151857325,230.47554976875,64.0,76.0
1335,229.927977825,230.58935518125,59.0,78.0
1336,230.599616325,230.76286179375,64.0,80.0
1337,230.599616325,230.77871992500002,69.0,84.0
1338,231.04737532500002,231.37479909375,59.0,45.0
1339,231.271254825,231.6499843125,62.0,82.0
1340,231.271254825,231.66864093750002,66.0,80.0
1341,231.71901382500002,231.845878875,61.0,70.0
1342,231.71901382500002,231.91490838750002,64.0,78.0
1343,231.495134325,231.93543067500002,59.0,43.0
1344,231.942893325,232.2078174,62.0,80.0
1345,229.70409832500002,232.2525933,54.0,78.0
1346,231.942893325,232.3663987125,66.0,81.0
1347,232.166772825,232.44382370625001,59.0,54.0
1348,229.480218825,232.63225561875,47.0,79.0
1349,232.39065232500002,232.70221796250001,62.0,81.0
1350,232.614531825,232.70781495,54.0,84.0
1351,232.39065232500002,232.88785138125002,69.0,80.0
1352,233.06229082500002,233.644377525,66.0,79.0
1353,233.06229082500002,233.79083203125,62.0,80.0
1354,233.06229082500002,233.7992275125,59.0,76.0
1355,233.06229082500002,234.1910166375,55.0,72.0
1356,233.957808825,234.4410154125,66.0,80.0
1357,233.957808825,234.47553016875,62.0,84.0
1358,233.06229082500002,234.4857913125,43.0,84.0
1359,233.957808825,234.49885095000002,59.0,76.0
1360,234.40556782500002,234.58094010000002,55.0,75.0
1361,234.629447325,234.68541720000002,55.0,39.0
1362,234.629447325,234.71433496875002,62.0,69.0
1363,234.629447325,234.73485725625002,59.0,51.0
1364,234.853326825,234.96619940625,66.0,35.0
1365,234.853326825,235.29455600625002,64.0,82.0
1366,234.853326825,235.36731684375002,61.0,82.0
1367,234.853326825,235.38037648125,69.0,77.0
1368,235.74884482500002,235.98578396250002,61.0,75.0
1369,235.74884482500002,236.04735082500002,64.0,82.0
1370,235.74884482500002,236.09865654375002,69.0,73.0
1371,234.853326825,236.37943875000002,45.0,83.0
1372,235.301085825,236.44193844375002,52.0,48.0
1373,236.196603825,236.52309476250002,57.0,56.0
1374,236.644362825,236.88223479375,74.0,54.0
1375,237.0641368875,237.46245583125003,54.0,76.0
1376,236.644362825,237.47178414375,47.0,75.0
1377,237.539880825,237.91581181875,66.0,67.0
1378,237.539880825,237.91581181875,73.0,77.0
1379,237.539880825,238.03707988125,59.0,57.0
1380,237.987639825,238.46618225625002,61.0,49.0
1381,238.43539882500002,238.51282381875,62.0,71.0
1382,238.43539882500002,239.04547046250002,74.0,82.0
1383,238.43539882500002,239.0790523875,66.0,70.0
1384,239.330916825,239.65647493125002,66.0,75.0
1385,239.330916825,239.6704674,74.0,81.0
1386,239.77867582500002,239.87195895000002,71.0,79.0
1387,240.226434825,240.64527605625,71.0,68.0
1388,240.226434825,240.65273870625,67.0,73.0
1389,240.226434825,240.7469546625,62.0,72.0
1390,240.226434825,241.34956365000002,55.0,53.0
1391,241.12195282500002,241.57344315,67.0,75.0
1392,241.12195282500002,241.58836845000002,62.0,60.0
1393,241.12195282500002,241.62474886875,71.0,61.0
1394,241.79359132500002,242.07064220625,62.0,63.0
1395,241.79359132500002,242.17138798125,69.0,69.0
1396,241.569711825,242.2767979125,55.0,50.0
1397,242.241350325,242.64340059375002,71.0,70.0
1398,242.241350325,242.65366173750002,62.0,70.0
1399,242.241350325,242.6760496875,67.0,76.0
1400,242.689109325,243.07530146250002,55.0,51.0
1401,242.912988825,243.18910687500002,67.0,79.0
1402,242.912988825,243.2544050625,71.0,72.0
1403,242.912988825,243.36634481250002,62.0,75.0
1404,240.226434825,243.38779993125002,43.0,76.0
1405,243.360747825,243.50533666875,55.0,60.0
1406,243.80850682500002,244.34488479375,66.0,75.0
1407,243.80850682500002,244.47081701250002,62.0,75.0
1408,243.80850682500002,244.47734683125,59.0,63.0
1409,244.704024825,244.89432240000002,59.0,61.0
1410,244.704024825,245.1163362375,62.0,78.0
1411,244.704024825,245.1349928625,66.0,73.0
1412,245.375663325,245.62286360625,61.0,62.0
1413,245.375663325,245.73293769375002,64.0,76.0
1414,245.15178382500002,245.84860876875,59.0,27.0
1415,245.82342232500002,246.24506205,66.0,72.0
1416,245.82342232500002,246.26651716875,62.0,75.0
1417,246.27118132500001,246.55009786875002,59.0,36.0
1418,246.49506082500002,246.70308219375002,61.0,61.0
1419,246.49506082500002,246.74319393750002,62.0,73.0
1420,246.49506082500002,246.7469252625,66.0,74.0
1421,243.80850682500002,246.9260288625,47.0,68.0
1422,246.718940325,246.94002133125002,59.0,36.0
1423,246.94281982500002,247.09300565625,64.0,62.0
1424,246.94281982500002,247.11539360625002,61.0,41.0
1425,247.16669932500002,247.3290119625,66.0,61.0
1426,247.390578825,247.80009174375002,57.0,44.0
1427,247.390578825,247.99785196875,64.0,73.0
1428,247.390578825,248.00718028125002,61.0,72.0
1429,247.390578825,248.01557576250002,69.0,68.0
1430,247.950277575,248.45493928125,57.0,7.0
1431,248.28609682500002,248.68534860000003,64.0,72.0
1432,248.28609682500002,248.70773655000002,69.0,59.0
1433,248.28609682500002,248.7133335375,61.0,63.0
1434,248.95773532500002,249.17508500625001,69.0,52.0
1435,248.95773532500002,249.17695066875,61.0,59.0
1436,248.95773532500002,249.1778835,64.0,76.0
1437,248.733855825,249.46053136875003,57.0,38.0
1438,249.405494325,249.77769399375,69.0,40.0
1439,249.405494325,249.78888796875,61.0,49.0
1440,249.405494325,249.79168646250002,64.0,69.0
1441,249.85325332500003,250.19840088750001,57.0,49.0
1442,250.077132825,250.427877375,61.0,52.0
1443,247.390578825,250.49597405625002,45.0,76.0
1444,250.077132825,250.52955598125,64.0,71.0
1445,250.077132825,250.63963006875002,69.0,39.0
1446,250.52489182500003,250.98011347500002,57.0,58.0
1447,250.97265082500002,252.32339047500002,59.0,44.0
1448,250.97265082500002,252.50249407500002,66.0,56.0
1449,250.97265082500002,252.52301636250002,62.0,61.0
1450,251.19653032500003,252.70118713125,69.0,3.0
1451,253.323385575,253.71610753125,83.0,46.0
1452,250.97265082500002,253.88401715625002,47.0,58.0
1453,253.547265075,253.94371835625,95.0,62.0
