,start,end,pitch,velocity
0,28.4185265375,28.7499870625,71.0,83.0
1,28.7556050375,29.087065562499998,73.0,67.0
2,29.0926835375,29.424144062499998,74.0,68.0
3,29.429762037499998,29.7612225625,73.0,80.0
4,29.7668405375,31.1095365625,71.0,66.0
5,31.1151545375,31.446615062499998,69.0,90.0
6,31.4522330375,31.783693562499998,71.0,66.0
7,31.789311537499998,32.1207720625,73.0,73.0
8,32.1263900375,32.4578505625,69.0,66.0
9,32.4634685375,33.8061645625,66.0,74.0
10,33.8117825375,34.1432430625,67.0,94.0
11,34.1488610375,34.8174000625,67.0,85.0
12,34.8230180375,35.154478562499996,71.0,94.0
13,35.160096537499996,35.8286355625,69.0,84.0
14,35.8342535375,36.1657140625,69.0,77.0
15,36.1713320375,36.6713318125,67.0,57.0
16,36.6769497875,37.514028062499996,64.0,58.0
17,37.519646037499996,39.1994205625,66.0,35.0
18,39.2050385375,39.5364990625,71.0,97.0
19,39.5421170375,39.873577562499996,73.0,85.0
20,39.879195537499996,40.2106560625,74.0,87.0
21,40.2162740375,40.5477345625,73.0,91.0
22,40.5533525375,41.5589700625,71.0,91.0
23,41.5645880375,41.8960485625,66.0,66.0
24,41.9016665375,42.233127062499996,69.0,84.0
25,42.238745037499996,42.5702055625,71.0,87.0
26,42.5758235375,42.9072840625,73.0,84.0
27,42.9129020375,43.2443625625,71.0,91.0
28,43.2499805375,44.592676562499996,69.0,81.0
29,44.598294537499996,44.9297550625,71.0,98.0
30,44.9353730375,45.6039120625,71.0,92.0
31,45.6095300375,45.9409905625,74.0,97.0
32,45.9466085375,46.6151475625,73.0,96.0
33,46.6207655375,46.952226062499996,71.0,96.0
34,46.957844037499996,47.6263830625,69.0,87.0
35,47.6320010375,49.9859325625,71.0,90.0
36,49.9915505375,50.3230110625,71.0,90.0
37,50.3286290375,50.6600895625,73.0,92.0
38,50.6657075375,50.9971680625,74.0,98.0
39,51.0027860375,51.3342465625,73.0,93.0
40,51.3398645375,52.6825605625,71.0,97.0
41,52.6881785375,53.0196390625,69.0,92.0
42,53.0252570375,53.3567175625,71.0,87.0
43,53.3623355375,53.6937960625,73.0,87.0
44,53.6994140375,54.030874562499996,69.0,67.0
45,54.036492537499996,55.3791885625,66.0,68.0
46,55.3848065375,55.7162670625,67.0,93.0
47,55.7218850375,56.390424062499996,67.0,85.0
48,56.396042037499996,56.7275025625,71.0,97.0
49,56.7331205375,57.4016595625,69.0,81.0
50,57.4072775375,57.7387380625,69.0,80.0
51,57.7443560375,58.4128950625,67.0,66.0
52,58.4185130375,59.0870520625,64.0,58.0
53,59.0926700375,60.7724445625,66.0,48.0
54,60.7780625375,61.109523062499996,71.0,100.0
55,61.115141037499995,61.4466015625,73.0,91.0
56,61.4522195375,61.7836800625,74.0,96.0
57,61.7892980375,62.1207585625,73.0,93.0
58,62.1263765375,63.469072562499996,71.0,96.0
59,63.474690537499995,63.8061510625,69.0,90.0
60,63.8117690375,64.1432295625,71.0,75.0
61,64.1488475375,64.4803080625,73.0,86.0
62,64.4859260375,65.1544650625,71.0,65.0
63,65.1600830375,66.16570056249999,69.0,75.0
64,66.1713185375,66.5027790625,71.0,99.0
65,66.5083970375,67.1769360625,71.0,93.0
66,67.1825540375,67.5140145625,74.0,98.0
67,67.5196325375,68.1881715625,73.0,90.0
68,68.1937895375,68.52525006249999,71.0,93.0
69,68.5308680375,68.8623285625,69.0,90.0
70,68.8679465375,73.5814275625,71.0,95.0
71,73.5870455375,73.9185060625,74.0,92.0
72,73.9241240375,74.2555845625,76.0,71.0
73,74.2612025375,74.5926630625,78.0,66.0
74,74.5982810375,74.9297415625,78.0,77.0
75,74.9353595375,75.2668200625,78.0,84.0
76,75.2724380375,75.60389856249999,76.0,66.0
77,75.6095165375,76.2780555625,76.0,74.0
78,76.2836735375,76.6151340625,78.0,106.0
79,76.6207520375,76.9522125625,76.0,84.0
80,76.9578305375,77.2892910625,76.0,87.0
81,77.2949090375,77.6263695625,74.0,64.0
82,77.6319875375,77.96344806249999,76.0,81.0
83,77.9690660375,78.3061445375,74.0,77.0
84,78.6432230375,79.3117620625,73.0,87.0
85,79.3173800375,79.6488405625,69.0,97.0
86,79.6544585375,79.9859190625,71.0,97.0
87,79.9915370375,80.6600760625,71.0,96.0
88,80.6656940375,80.9971545625,71.0,103.0
89,81.0027725375,81.6713115625,69.0,95.0
90,81.6769295375,82.3454685625,71.0,97.0
91,82.3510865375,84.3679395625,66.0,83.0
92,84.37355753749999,84.7050180625,74.0,109.0
93,84.7106360375,85.04209656249999,76.0,87.0
94,85.0477145375,85.3791750625,78.0,93.0
95,85.3847930375,85.7162535625,78.0,96.0
96,85.7218715375,86.0533320625,78.0,97.0
97,86.0589500375,86.3904105625,76.0,87.0
98,86.3960285375,87.0645675625,76.0,92.0
99,87.0701855375,87.40164606249999,78.0,101.0
100,87.4072640375,87.7387245625,76.0,90.0
101,87.7443425375,88.0758030625,76.0,95.0
102,88.0814210375,88.4128815625,74.0,90.0
103,88.4184995375,88.7499600625,76.0,96.0
104,88.7555780375,89.4241170625,74.0,96.0
105,89.4297350375,90.0982740625,73.0,74.0
106,90.1038920375,90.4353525625,69.0,91.0
107,90.4409705375,91.4465880625,71.0,89.0
108,91.45220603749999,91.7836665625,71.0,96.0
109,91.7892845375,92.2892843125,73.0,97.0
110,92.2949022875,92.7949020625,71.0,98.0
111,92.8005200375,93.1319805625,69.0,97.0
112,93.1375985375,95.8342265375,71.0,94.0
113,120.1038785375,120.43533906249999,71.0,83.0
114,120.4409570375,120.7724175625,73.0,67.0
115,120.7780355375,121.1094960625,74.0,68.0
116,121.11511403749999,121.4465745625,73.0,80.0
117,121.4521925375,122.79488856249999,71.0,66.0
118,122.8005065375,123.1319670625,69.0,90.0
119,123.1375850375,123.4690455625,71.0,66.0
120,123.47466353749999,123.8061240625,73.0,73.0
121,123.8117420375,124.1432025625,69.0,66.0
122,124.1488205375,125.4915165625,66.0,74.0
123,125.4971345375,125.8285950625,67.0,94.0
124,125.83421303749999,126.5027520625,67.0,85.0
125,126.5083700375,126.8398305625,71.0,94.0
126,126.84544853749999,127.1769090625,69.0,84.0
127,127.1825270375,127.8510660625,69.0,77.0
128,127.8566840375,128.18814456249999,67.0,57.0
129,128.1937625375,128.69376231249998,64.0,58.0
130,128.6993802875,130.8847725625,66.0,35.0
131,130.8903905375,131.2218510625,71.0,97.0
132,131.2274690375,131.5589295625,73.0,85.0
133,131.5645475375,131.8960080625,74.0,87.0
134,131.9016260375,132.2330865625,73.0,91.0
135,132.23870453749998,133.2443220625,71.0,91.0
136,133.2499400375,133.5814005625,66.0,66.0
137,133.5870185375,133.91847906249998,69.0,84.0
138,133.9240970375,134.2555575625,71.0,87.0
139,134.2611755375,134.5926360625,73.0,84.0
140,134.5982540375,134.9297145625,71.0,91.0
141,134.9353325375,136.2780285625,69.0,81.0
142,136.2836465375,136.7836463125,71.0,98.0
143,136.7892642875,137.2892640625,71.0,92.0
144,137.2948820375,137.62634256249999,74.0,97.0
145,137.6319605375,138.3004995625,73.0,96.0
146,138.3061175375,138.63757806249998,71.0,96.0
147,138.6431960375,139.3117350625,69.0,87.0
148,139.3173530375,141.6712845625,71.0,90.0
149,141.67690253749998,142.0083630625,71.0,90.0
150,142.0139810375,142.34544156249999,73.0,92.0
151,142.3510595375,142.6825200625,74.0,98.0
152,142.6881380375,143.0195985625,73.0,93.0
153,143.0252165375,144.3679125625,71.0,97.0
154,144.3735305375,144.7049910625,69.0,92.0
155,144.7106090375,145.0420695625,71.0,87.0
156,145.0476875375,145.3791480625,73.0,87.0
157,145.3847660375,145.7162265625,69.0,67.0
158,145.7218445375,147.06454056249999,66.0,68.0
159,147.0701585375,147.57015831249998,67.0,93.0
160,147.5757762875,148.2443153125,67.0,85.0
161,148.2499332875,148.5813938125,71.0,97.0
162,148.5870117875,149.2555508125,69.0,81.0
163,149.2611687875,149.5926293125,69.0,80.0
164,149.5982472875,150.2667863125,67.0,66.0
165,150.2724042875,150.9409433125,64.0,58.0
166,150.9465612875,152.41566175,66.0,48.0
167,152.44234713125,152.77380765625,71.0,100.0
168,152.77942563125,153.11088615625,73.0,91.0
169,153.11650413125,153.44796465625,74.0,96.0
170,153.45358263125,153.78504315625,73.0,93.0
171,153.79066113125,154.96481790625,71.0,96.0
172,155.1600425375,155.4915030625,69.0,90.0
173,155.4971210375,155.81172763749998,71.0,101.0
174,155.8201546,155.983075875,73.0,99.0
175,156.1712780375,156.8398170625,71.0,91.0
176,156.8454350375,157.8510525625,69.0,75.0
177,157.8566705375,158.3566703125,71.0,99.0
178,158.3622882875,158.8622880625,71.0,93.0
179,158.8679060375,159.1993665625,74.0,98.0
180,159.2049845375,159.8735235625,73.0,90.0
181,159.8791415375,160.2106020625,71.0,93.0
182,160.2162200375,160.5476805625,69.0,90.0
183,160.55329853749998,165.2667795625,71.0,95.0
184,165.27239753749998,165.6038580625,74.0,92.0
185,165.6094760375,165.94093656249999,76.0,71.0
186,165.9465545375,166.2780150625,78.0,66.0
187,166.2836330375,166.6150935625,78.0,77.0
188,166.61790255,166.949363075,78.0,84.0
189,166.9577900375,167.4577898125,76.0,66.0
190,167.4634077875,167.9690255375,76.0,74.0
191,167.96621654999998,168.297677075,78.0,106.0
192,168.30329505,168.63475557499999,76.0,84.0
193,168.64037355,168.971834075,76.0,87.0
194,168.97745204999998,169.308912575,74.0,64.0
195,169.31453055,169.64599107499998,76.0,81.0
196,169.65160905,170.320148075,74.0,77.0
197,170.32576605,170.994305075,73.0,87.0
198,170.99992305,171.331383575,69.0,97.0
199,171.33700155,171.668462075,71.0,97.0
200,171.67408005,172.342619075,71.0,96.0
201,172.34823705,172.679697575,71.0,103.0
202,172.68531554999998,173.35385457499999,69.0,95.0
203,173.35947255,174.028011575,71.0,97.0
204,174.03362955,175.881943325,66.0,83.0
205,176.0589095375,176.3959880375,74.0,109.0
206,176.39317905,176.724639575,76.0,87.0
207,176.73025755,177.061718075,78.0,93.0
208,177.06733605,177.398796575,78.0,96.0
209,177.40441454999998,177.74149305,78.0,97.0
210,177.7443020375,178.0757625625,76.0,87.0
211,178.0813805375,178.7499195625,76.0,92.0
212,178.7555375375,179.0869980625,78.0,101.0
213,179.0926160375,179.4240765625,76.0,90.0
214,179.42969453749998,179.7611550625,76.0,95.0
215,179.7667730375,180.09823356249998,74.0,90.0
216,180.1038515375,180.4353120625,76.0,96.0
217,180.4409300375,181.10946906249998,74.0,96.0
218,181.1150870375,181.7836260625,73.0,74.0
219,181.7892440375,182.1207045625,69.0,91.0
220,182.1263225375,183.1319400625,71.0,89.0
221,183.13755803749999,183.4690185625,71.0,96.0
222,183.4746365375,183.9746363125,69.0,97.0
223,183.9802542875,184.4802540625,66.0,98.0
224,184.4858720375,184.81733256249998,69.0,97.0
225,184.8229505375,186.8398035625,71.0,94.0
226,186.8454215375,187.1768820625,74.0,92.0
227,187.1825000375,187.5139605625,76.0,71.0
228,187.5195785375,187.8510390625,78.0,66.0
229,187.85665703749999,188.1881175625,78.0,77.0
230,188.1937355375,188.5251960625,78.0,84.0
231,188.5308140375,188.86789253749998,76.0,66.0
232,188.86508355,188.86789253749998,76.0,74.0
233,189.53924055,189.8735100625,78.0,106.0
234,189.8791280375,190.2105885625,76.0,84.0
235,190.2162065375,190.54766706249998,76.0,87.0
236,190.5532850375,190.8847455625,74.0,64.0
237,190.8903635375,191.2218240625,76.0,81.0
238,191.2274420375,191.8959810625,74.0,77.0
239,191.9015990375,192.5701380625,73.0,87.0
240,192.57575603749999,192.9072165625,69.0,97.0
241,192.9128345375,193.2442950625,71.0,97.0
242,193.2499130375,193.9184520625,71.0,96.0
243,193.9240700375,194.25553056249998,71.0,103.0
244,194.2611485375,194.9296875625,69.0,95.0
245,194.9353055375,195.6038445625,71.0,97.0
246,195.6094625375,197.6263155625,66.0,83.0
247,197.6319335375,197.9633940625,74.0,109.0
248,197.9690120375,198.3004725625,76.0,87.0
249,198.30609053749998,198.6375510625,78.0,93.0
250,198.6431690375,198.97462956249998,78.0,96.0
251,198.9802475375,199.3117080625,78.0,97.0
252,199.3173260375,199.6487865625,76.0,87.0
253,199.6544045375,200.3229435625,76.0,92.0
254,200.3285615375,200.6600220625,78.0,101.0
255,200.6656400375,200.9971005625,76.0,90.0
256,201.0027185375,201.3341790625,76.0,95.0
257,201.3397970375,201.6712575625,74.0,90.0
258,201.6768755375,202.0083360625,76.0,96.0
259,202.01395403749999,202.6824930625,74.0,96.0
260,202.6881110375,203.3566500625,73.0,74.0
261,203.3622680375,203.69372856249998,69.0,91.0
262,203.6993465375,204.70496406249998,71.0,89.0
263,204.7105820375,205.0420425625,71.0,96.0
264,205.0476605375,205.5476603125,69.0,97.0
265,205.5532782875,205.8847388125,66.0,98.0
266,205.8903567875,206.3903565625,69.0,97.0
267,206.3959745375,214.4802405625,71.0,94.0
268,214.4858585375,215.1543975625,83.0,96.0
269,215.1600155375,215.9970938125,83.0,90.0
270,216.0027117875,216.3341723125,86.0,93.0
271,216.3397902875,217.1768685625,85.0,94.0
272,217.18248653749998,218.1881040625,83.0,93.0
273,218.1937220375,220.2105750625,81.0,75.0
274,220.2161930375,225.9409095625,83.0,85.0
