,start,end,pitch,velocity
0,1.4410105874999999,7.73173809375,59.0,60.0
1,1.4410105874999999,7.74578303125,62.0,60.0
2,1.4410105874999999,7.960670575,66.0,60.0
3,1.44943755,8.16432216875,83.0,60.0
4,1.4410105874999999,8.50701864375,69.0,60.0
5,8.1938165375,8.612355675,62.0,39.0
6,8.5308950375,8.88623195625,66.0,44.0
7,1.4410105874999999,8.91010835,47.0,60.0
8,7.8567380374999995,8.91993980625,59.0,34.0
9,8.8679735375,8.99999595,69.0,58.0
10,9.5421305375,11.587073437499999,46.0,59.0
11,9.5421305375,11.8117924375,61.0,48.0
12,9.5421305375,11.9129159875,66.0,63.0
13,9.5421305375,12.05617435,70.0,67.0
14,12.57302805,12.85814028125,42.0,77.0
15,12.91010655,13.252803025,54.0,78.0
16,12.0702192875,13.33285916875,61.0,32.0
17,12.9129155375,13.33285916875,78.0,78.0
18,12.238758537499999,13.34690410625,73.0,35.0
19,9.5421305375,13.37780296875,58.0,53.0
20,12.14606195,13.3904434125,66.0,25.0
21,13.24718505,13.5758365875,42.0,79.0
22,13.2499940375,14.307577831249999,85.0,78.0
23,13.5870725375,14.34971264375,90.0,82.0
24,13.58426355,14.69521810625,49.0,83.0
25,14.9353865375,15.40589194375,69.0,82.0
26,14.9353865375,15.43117283125,66.0,76.0
27,14.9353865375,15.4971840375,74.0,76.0
28,15.6095435375,15.88622880625,62.0,61.0
29,14.9353865375,15.94240855625,50.0,72.0
30,15.2724650375,15.9466220375,57.0,54.0
31,15.6095435375,15.97611640625,73.0,69.0
32,15.6095435375,15.983138875,66.0,75.0
33,15.9466220375,16.0898804,71.0,72.0
34,16.2837005375,16.691003724999998,69.0,75.0
35,16.2837005375,16.7415655,76.0,78.0
36,16.2837005375,16.75280145,64.0,62.0
37,16.2837005375,17.108138368749998,45.0,70.0
38,16.9578575375,17.13341925625,64.0,78.0
39,17.1263967875,17.3735876875,69.0,67.0
40,16.6207790375,17.421340475,57.0,44.0
41,17.2949360375,17.5533628875,71.0,67.0
42,17.4634752875,17.612351625,73.0,63.0
43,17.632014537499998,18.11094690625,66.0,64.0
44,17.632014537499998,18.27105919375,74.0,57.0
45,17.632014537499998,18.275272675,69.0,63.0
46,17.9690930375,18.45926135625,54.0,50.0
47,17.632014537499998,18.46487933125,47.0,69.0
48,18.3061715375,18.5477444625,59.0,59.0
49,18.3061715375,18.55757591875,66.0,62.0
50,18.3061715375,18.636227568749998,71.0,67.0
51,18.6432500375,18.929766762499998,74.0,70.0
52,18.9803285375,19.38903621875,69.0,72.0
53,18.9803285375,19.398867674999998,64.0,66.0
54,18.9803285375,19.5589799625,73.0,73.0
55,18.9803285375,19.7977439,61.0,66.0
56,18.9803285375,19.848305675,54.0,60.0
57,19.6544855375,19.9101034,64.0,69.0
58,19.6544855375,19.9466202375,69.0,72.0
59,20.3286425375,20.72611426875,67.0,73.0
60,20.3286425375,20.759822118749998,59.0,70.0
61,20.3286425375,20.768249081249998,62.0,78.0
62,20.3286425375,21.3033612,43.0,73.0
63,21.0027995375,21.36656341875,59.0,64.0
64,20.6657210375,21.6095408375,55.0,53.0
65,21.3398780375,21.6151588125,64.0,70.0
66,21.6769565375,22.27386638125,61.0,75.0
67,21.6769565375,22.432574175,69.0,75.0
68,21.6769565375,22.4410011375,64.0,70.0
69,21.6769565375,22.77667514375,45.0,70.0
70,22.351113537499998,22.949427874999998,57.0,57.0
71,22.6881920375,22.9887537,61.0,72.0
72,22.0140350375,23.0336975,52.0,60.0
73,23.0252705375,23.44802315625,66.0,73.0
74,23.0252705375,23.52667480625,62.0,76.0
75,23.0252705375,23.67274215625,47.0,69.0
76,23.3623490375,23.702236525,54.0,62.0
77,23.6994275375,24.0674049,59.0,55.0
78,24.0365060375,24.7640338,61.0,55.0
79,24.3735845375,24.90588766875,62.0,62.0
80,24.710663037499998,24.93116855625,66.0,61.0
81,25.0477415375,25.3735840875,71.0,67.0
82,25.3848200375,25.61937049375,73.0,67.0
83,25.7218985375,27.88903239375,59.0,52.0
84,25.7218985375,27.89184138125,63.0,64.0
85,25.7218985375,27.89184138125,66.0,60.0
86,25.7218985375,27.9241447375,47.0,49.0
87,25.7218985375,27.92554923125,71.0,59.0
88,29.429762037499998,29.901671937499998,62.0,55.0
89,29.0926835375,30.62779520625,59.0,73.0
90,28.4185265375,30.66290755,47.0,72.0
91,28.7556050375,30.724705274999998,54.0,58.0
92,29.7668405375,30.7836940125,66.0,60.0
93,29.7668405375,31.087064662499998,71.0,67.0
94,31.1151545375,31.685379,69.0,69.0
95,31.789311537499998,32.23172706875,64.0,49.0
96,32.4634685375,33.203636743749996,64.0,22.0
97,32.1263900375,33.21768168125,69.0,57.0
98,31.1151545375,33.22891763125,54.0,55.0
99,32.4634685375,33.230322125,73.0,59.0
100,31.4522330375,33.252794025,61.0,42.0
101,33.8117825375,34.21487224375,67.0,58.0
102,33.8117825375,34.230321675,62.0,66.0
103,33.8117825375,34.252793575,59.0,39.0
104,33.8117825375,34.7443663875,43.0,45.0
105,34.4859395375,34.780883225,59.0,73.0
106,34.1488610375,34.8286360125,55.0,56.0
107,34.8230180375,35.129197675,62.0,69.0
108,35.160096537499996,35.5280739,69.0,66.0
109,35.160096537499996,35.54633231875,64.0,66.0
110,35.160096537499996,35.5533547875,61.0,62.0
111,35.160096537499996,35.89886025,45.0,75.0
112,35.8342535375,36.0673995,61.0,60.0
113,35.4971750375,36.11655678125,57.0,54.0
114,36.5084105375,37.2134664,69.0,63.0
115,36.5084105375,37.220488868749996,66.0,62.0
116,36.5084105375,37.3482978,50.0,73.0
117,37.1825675375,37.3623427375,62.0,69.0
118,36.8454890375,37.42554495625,57.0,57.0
119,37.519646037499996,37.758409975,71.0,62.0
120,37.8567245375,38.5982972375,70.0,69.0
121,37.8567245375,38.61093768125,64.0,54.0
122,37.8567245375,38.76824098125,49.0,67.0
123,38.5308815375,38.92835326875,71.0,58.0
124,38.8679600375,39.15728575,73.0,57.0
125,39.2050385375,39.75138660625,74.0,62.0
126,39.2050385375,39.7612180625,69.0,63.0
127,39.2050385375,39.780880975,66.0,51.0
128,40.2162740375,41.2359365,62.0,50.0
129,39.2050385375,41.404475749999996,47.0,66.0
130,39.879195537499996,41.4072847375,59.0,70.0
131,39.5421170375,41.488745375,54.0,56.0
132,41.2275095375,41.578632975,66.0,53.0
133,41.5645880375,41.9241384375,71.0,46.0
134,41.9016665375,42.2050371875,42.0,63.0
135,42.238745037499996,42.61374486875,54.0,61.0
136,41.9016665375,42.77947513125,69.0,63.0
137,42.9129020375,43.9775083,61.0,63.0
138,43.9241375375,44.03368805,66.0,60.0
139,42.5758235375,44.03790153125,57.0,58.0
140,43.9241375375,44.05475545625,69.0,56.0
141,44.598294537499996,45.18115944375,67.0,64.0
142,44.598294537499996,45.26542906875,59.0,55.0
143,44.598294537499996,45.2724515375,62.0,67.0
144,44.598294537499996,45.51542895625,43.0,72.0
145,44.9353730375,45.5758221875,50.0,66.0
146,45.2724515375,45.64183339375,55.0,73.0
147,45.6095300375,45.77947378125,59.0,69.0
148,45.9466085375,46.35812520625,69.0,69.0
149,45.9466085375,46.387619575,61.0,66.0
150,45.9466085375,46.387619575,64.0,64.0
151,45.9466085375,46.8342485875,45.0,58.0
152,45.9466085375,46.946608087499996,52.0,69.0
153,45.9466085375,46.971888975,57.0,64.0
154,46.6207655375,47.016832775,61.0,57.0
155,46.957844037499996,47.2668326625,64.0,62.0
156,47.2949225375,47.832843643749996,62.0,63.0
157,47.2949225375,47.86936048125,47.0,67.0
158,47.2949225375,47.88059643125,66.0,64.0
159,47.6320010375,47.983124475,54.0,56.0
160,47.9690795375,48.373573737499996,59.0,52.0
161,48.3061580375,49.22469695,61.0,63.0
162,48.9803150375,49.2724497375,66.0,57.0
163,48.6432365375,49.306157587499996,62.0,70.0
164,49.317393537499996,49.62778665625,71.0,62.0
165,49.6544720375,49.90587641875,73.0,43.0
166,49.9915505375,50.2921122,71.0,58.0
167,49.9915505375,50.30334815,74.0,69.0
168,50.3286290375,50.49576379375,73.0,53.0
169,49.9915505375,50.502786262499995,47.0,69.0
170,50.3286290375,50.5589660125,76.0,58.0
171,50.3286290375,50.658685068749996,54.0,56.0
172,50.6657075375,50.8791905875,78.0,66.0
173,50.6657075375,50.9213254,74.0,69.0
174,50.6657075375,51.07441521875,59.0,46.0
175,51.0027860375,51.31037016875,73.0,50.0
176,51.0027860375,51.35952745,76.0,56.0
177,51.3398645375,51.608122843749996,74.0,64.0
178,51.3398645375,51.62919025,71.0,59.0
179,51.3398645375,52.18677426875,62.0,66.0
180,52.0140215375,52.1937967375,66.0,54.0
181,51.0027860375,52.2106506625,61.0,56.0
182,52.1825607875,52.40025731875,71.0,51.0
183,52.3511000375,52.67553809375,74.0,69.0
184,52.6881785375,53.18115584375,64.0,54.0
185,52.6881785375,53.21767268125,69.0,52.0
186,52.6881785375,53.23733559375,73.0,64.0
187,53.0252570375,54.11654868125,61.0,60.0
188,53.3623355375,54.4185148375,64.0,54.0
189,53.6994140375,54.59688554375,69.0,59.0
190,54.3735710375,54.779469731249996,61.0,57.0
191,52.6881785375,54.88059328125,54.0,78.0
192,54.7106495375,54.99295278125,73.0,58.0
193,55.0477280375,55.35952565,69.0,62.0
194,55.3848065375,55.803345674999996,67.0,58.0
195,55.3848065375,55.81598611875,71.0,56.0
196,55.3848065375,55.8342445375,62.0,54.0
197,55.3848065375,56.33003083125,43.0,63.0
198,55.7218850375,56.41430045625,50.0,56.0
199,56.0589635375,56.50699704375,55.0,55.0
200,56.396042037499996,56.5870531875,59.0,56.0
201,56.7331205375,57.34407531875,61.0,72.0
202,56.7331205375,57.42553595625,64.0,67.0
203,56.7331205375,57.43396291875,69.0,67.0
204,56.7331205375,57.466266274999995,45.0,67.0
205,57.0701990375,57.522446025,52.0,63.0
206,57.4072775375,58.0224458,57.0,54.0
207,58.0814345375,58.6769398875,66.0,60.0
208,58.0814345375,58.7949173625,69.0,61.0
209,58.0814345375,58.818793756249995,74.0,60.0
210,58.755591537499996,58.95643414375,62.0,67.0
211,58.0814345375,58.9662656,50.0,66.0
212,58.4185130375,59.0252543375,57.0,53.0
213,59.0926700375,59.34969239375,71.0,62.0
214,59.4297485375,59.8567146375,64.0,58.0
215,59.4297485375,59.99014154375,70.0,66.0
216,60.1039055375,60.258399849999996,66.0,48.0
217,59.7668270375,60.36092789375,61.0,47.0
218,59.4297485375,60.38059080625,49.0,72.0
219,60.1039055375,60.39323125,71.0,51.0
220,60.4409840375,60.55193904375,66.0,32.0
221,60.4409840375,60.76542209375,73.0,58.0
222,60.7780625375,61.2612083875,74.0,62.0
223,60.7780625375,61.297725225,69.0,50.0
224,60.7780625375,61.353904975,66.0,56.0
225,61.4522195375,62.237331543749995,59.0,64.0
226,61.7892980375,62.488735925,62.0,56.0
227,62.1263765375,62.53789320625,66.0,59.0
228,62.1263765375,62.53789320625,71.0,60.0
229,62.4634550375,62.859522274999996,59.0,52.0
230,60.7780625375,62.9297469625,47.0,67.0
231,61.115141037499995,62.980308737499996,54.0,53.0
232,62.8005335375,63.060364881249996,62.0,55.0
233,63.1376120375,63.6179489,71.0,73.0
234,63.474690537499995,63.84126340625,42.0,69.0
235,63.8117690375,64.24294861874999,54.0,64.0
236,63.474690537499995,64.5814316125,69.0,64.0
237,64.8230045375,65.2724425375,64.0,46.0
238,65.1600830375,65.43676830625,69.0,48.0
239,64.4859260375,65.57721768125,61.0,57.0
240,65.4971615375,65.63620641874999,73.0,67.0
241,64.1488475375,65.6544648375,57.0,55.0
242,66.1713185375,66.73030705,62.0,60.0
243,66.1713185375,66.7780598375,67.0,63.0
244,66.1713185375,66.77946433125,71.0,54.0
245,66.1713185375,67.06738555,43.0,73.0
246,66.8454755375,67.07159903125,55.0,57.0
247,66.5083970375,67.09687991875,50.0,57.0
248,67.1825540375,67.3230034125,62.0,55.0
249,67.5196325375,68.129182825,64.0,57.0
250,67.5196325375,68.20081200625,73.0,63.0
251,67.5196325375,68.264014225,69.0,58.0
252,67.5196325375,68.3791827125,45.0,73.0
253,67.8567110375,68.47047480625,52.0,55.0
254,68.1937895375,68.48732873125,57.0,53.0
255,68.8679465375,69.4465979625,66.0,67.0
256,68.8679465375,69.47047435625,62.0,60.0
257,68.8679465375,69.56176645,71.0,64.0
258,69.8791820375,70.09126059375,61.0,57.0
259,70.2162605375,70.50979973125,62.0,58.0
260,70.5533390375,70.70081088124999,64.0,49.0
261,68.8679465375,71.11092305625,47.0,69.0
262,70.8904175375,71.2050241375,66.0,54.0
263,69.5421035375,71.25418141875,59.0,69.0
264,69.2050250375,71.308956675,54.0,58.0
265,71.2274960375,71.53227118125,69.0,55.0
266,71.5645745375,71.8876081,66.0,76.0
267,71.5645745375,71.8904170875,62.0,73.0
268,71.5645745375,71.90586651875,71.0,70.0
269,72.2387315375,72.42833819375,64.0,72.0
270,72.2387315375,72.432551675,69.0,72.0
271,72.2387315375,72.455023575,73.0,75.0
272,72.2387315375,72.466259525,59.0,72.0
273,72.9128885375,73.23170861875,74.0,73.0
274,72.9128885375,73.26962995,66.0,75.0
275,72.9128885375,73.27805691249999,69.0,78.0
276,73.0814277875,73.29210185,59.0,46.0
277,71.5645745375,73.38058495625,47.0,75.0
278,73.5870455375,73.89462966875,45.0,64.0
279,73.5870455375,73.94378695,64.0,75.0
280,73.5870455375,73.97328131875,69.0,82.0
281,73.5870455375,73.98030378749999,76.0,82.0
282,74.2612025375,74.634797875,69.0,78.0
283,74.2612025375,74.66710123125,66.0,80.0
284,74.2612025375,74.81597756875,74.0,80.0
285,74.9353595375,75.08985385,64.0,82.0
286,74.9353595375,75.16710100625,62.0,62.0
287,74.9353595375,75.16710100625,73.0,78.0
288,74.5982810375,75.219067275,57.0,47.0
289,74.2612025375,75.27103354375,50.0,91.0
290,75.2724380375,75.39462899375,66.0,75.0
291,75.2724380375,75.40024696875,74.0,67.0
292,75.6095165375,76.06035903125,64.0,67.0
293,75.6095165375,76.06035903125,69.0,73.0
294,75.6095165375,76.084235425,76.0,73.0
295,76.2836735375,76.4943476,64.0,78.0
296,75.6095165375,76.612325075,45.0,76.0
297,75.9465950375,76.70080818125,57.0,44.0
298,76.6207520375,76.83563958124999,69.0,63.0
299,76.78929128749999,76.93395414375,71.0,64.0
300,76.9578305375,77.23451580625,66.0,80.0
301,76.9578305375,77.31035846875,69.0,67.0
302,76.9578305375,77.34125733124999,74.0,69.0
303,76.9578305375,77.74575153125,47.0,72.0
304,77.2949090375,77.7836728625,54.0,64.0
305,77.6319875375,77.8173807125,59.0,66.0
306,77.6319875375,77.8173807125,66.0,70.0
307,77.9690660375,78.28086365,74.0,63.0
308,78.3061445375,78.63058259374999,69.0,75.0
309,78.3061445375,78.7415376,73.0,76.0
310,78.3061445375,78.7640095,64.0,69.0
311,78.3061445375,78.949402675,61.0,69.0
312,78.9803015375,79.13339135625,64.0,85.0
313,78.9803015375,79.162885725,69.0,93.0
314,78.3061445375,79.26400927499999,54.0,73.0
315,79.3173800375,79.47327884375,64.0,73.0
316,79.6544585375,80.0308628625,71.0,85.0
317,79.6544585375,80.0449078,67.0,85.0
318,79.6544585375,80.16850325,62.0,82.0
319,79.9915370375,80.33282901875,69.0,75.0
320,80.3286155375,80.59546935,62.0,76.0
321,79.6544585375,80.61653675625,43.0,70.0
322,80.3286155375,80.63619966875,55.0,70.0
323,80.3286155375,80.64462663124999,71.0,78.0
324,79.9915370375,80.6544580875,50.0,61.0
325,80.6656940375,81.0336714,74.0,73.0
326,81.0027725375,81.50136781875,64.0,75.0
327,81.0027725375,81.5533340875,69.0,78.0
328,81.0027725375,81.578614975,73.0,75.0
329,81.0027725375,81.75979466875,45.0,70.0
330,81.3398510375,81.83844631875,52.0,60.0
331,81.6769295375,81.904457525,64.0,75.0
332,81.6769295375,81.9072665125,57.0,70.0
333,81.6769295375,81.96485075625,71.0,69.0
334,82.01400803749999,82.28086185,69.0,64.0
335,82.3510865375,82.9185020125,50.0,72.0
336,82.3510865375,82.9185020125,66.0,70.0
337,82.3510865375,82.95782783749999,69.0,66.0
338,82.6881650375,82.97327726875,57.0,64.0
339,82.3510865375,82.9746817625,74.0,75.0
340,83.02243455,83.3061422875,62.0,59.0
341,83.35951305,83.43956919375,64.0,78.0
342,83.6994005375,84.0701868875,64.0,66.0
343,83.6994005375,84.07159138125,70.0,85.0
344,83.6994005375,84.09827676249999,49.0,73.0
345,83.6994005375,84.106703725,73.0,80.0
346,84.0364790375,84.13338910625,61.0,60.0
347,84.0364790375,84.33001823125,71.0,63.0
348,84.37355753749999,84.61091698125,66.0,73.0
349,84.7106360375,84.80192813125,58.0,55.0
350,84.37355753749999,84.82159104375,46.0,76.0
351,84.7106360375,84.8763663,76.0,82.0
352,85.0477145375,85.2583886,66.0,75.0
353,85.0477145375,85.33563575625,69.0,73.0
354,85.0477145375,85.36091664375,74.0,78.0
355,85.3847930375,85.5505233,64.0,60.0
356,85.7218715375,85.74574793125,69.0,44.0
357,85.3847930375,85.8229950875,73.0,75.0
358,85.7218715375,85.85810743125,66.0,73.0
359,85.7218715375,85.92552313125,62.0,67.0
360,85.0477145375,85.994343325,50.0,72.0
361,85.3847930375,86.0364781375,57.0,62.0
362,86.3960285375,86.70080368125,76.0,69.0
363,86.3960285375,86.8904103375,69.0,64.0
364,86.3960285375,87.2780506125,45.0,72.0
365,86.73310703749999,87.31456745,52.0,60.0
366,87.0701855375,87.3510842875,57.0,82.0
367,87.4072640375,87.6179381,69.0,59.0
368,87.7443425375,87.96765704375,66.0,80.0
369,87.7443425375,88.04630869374999,69.0,70.0
370,88.0814210375,88.12496034375,64.0,56.0
371,88.0814210375,88.2471513,66.0,54.0
372,88.4184995375,88.47889276875,66.0,57.0
373,87.7443425375,88.6291736,47.0,73.0
374,88.0814210375,88.67552189375,54.0,67.0
375,88.4184995375,88.758387025,59.0,64.0
376,89.09265653749999,89.70642030625,74.0,73.0
377,89.7668135375,89.92271234374999,64.0,64.0
378,89.09265653749999,90.1038920375,54.0,70.0
379,89.4297350375,90.10529653125,61.0,63.0
380,89.9353527875,90.1544538125,69.0,66.0
381,90.1038920375,90.32720654375,73.0,64.0
382,90.2724312875,90.54911655625,74.0,66.0
383,90.4409705375,90.85810518125,62.0,93.0
384,90.4409705375,90.8904085375,67.0,76.0
385,90.4409705375,90.91428493125,71.0,70.0
386,90.7780490375,91.241531975,59.0,69.0
387,90.94658828749999,91.24293646875,74.0,1.0
388,90.4409705375,91.28226229375,55.0,73.0
389,91.1151275375,91.3847903375,62.0,85.0
390,91.45220603749999,91.7892845375,74.0,72.0
391,91.7892845375,92.08001474375,69.0,66.0
392,91.7892845375,92.2668124125,64.0,75.0
393,91.7892845375,92.32720564374999,73.0,70.0
394,91.7892845375,92.64743021875,45.0,72.0
395,92.1263630375,92.73169984375,52.0,48.0
396,92.4634415375,92.75417174374999,57.0,75.0
397,92.4634415375,92.75417174374999,69.0,78.0
398,92.8005200375,93.02243005,66.0,76.0
399,93.1375985375,93.58282305624999,74.0,73.0
400,93.1375985375,93.7274859125,66.0,70.0
401,93.1375985375,93.77383420625,47.0,69.0
402,93.4746770375,93.81877800625,54.0,69.0
403,93.4746770375,93.88057573125,73.0,69.0
404,93.81175553749999,93.93675548125,66.0,32.0
405,93.81175553749999,94.13619359375,71.0,64.0
406,93.81175553749999,94.18113739374999,59.0,44.0
407,94.1488340375,94.4718676,69.0,61.0
408,94.4859125375,94.77102476875,66.0,54.0
409,94.4859125375,94.79771015,62.0,59.0
410,94.4859125375,94.8229910375,71.0,64.0
411,94.1488340375,94.8566988875,61.0,64.0
412,95.8342265375,96.634787975,66.0,61.0
413,95.8342265375,96.66428234375,69.0,67.0
414,95.8342265375,96.68113626875,74.0,64.0
415,96.5083835375,96.76259690625,62.0,63.0
416,96.17130503749999,96.81315868125,57.0,54.0
417,95.8342265375,96.82018115,50.0,73.0
418,97.1825405375,97.80613576249999,64.0,61.0
419,97.1825405375,97.8201807,69.0,63.0
420,97.1825405375,97.9690570375,73.0,63.0
421,97.1825405375,98.08843900625,57.0,62.0
422,97.8566975375,98.21343895,71.0,53.0
423,98.1937760375,98.43956244374999,73.0,50.0
424,98.53085453749999,99.32158451875,74.0,63.0
425,98.53085453749999,99.3229890125,47.0,62.0
426,98.53085453749999,99.33843844375,66.0,59.0
427,98.53085453749999,99.3791687625,69.0,62.0
428,98.8679330375,99.4128766125,54.0,49.0
429,99.2050115375,99.42973053749999,59.0,59.0
430,99.8791685375,100.36933685625,69.0,54.0
431,99.8791685375,100.50978623125,73.0,56.0
432,99.8791685375,100.58562889375,64.0,51.0
433,99.8791685375,100.73029174999999,61.0,62.0
434,99.8791685375,100.7780445375,54.0,56.0
435,100.5533255375,100.86652764375,69.0,47.0
436,101.2274825375,101.63338123125,69.0,47.0
437,101.2274825375,101.6600666125,67.0,55.0
438,101.2274825375,101.67411154999999,62.0,56.0
439,101.2274825375,101.68534749999999,71.0,55.0
440,101.5645610375,102.061751825,59.0,43.0
441,101.2274825375,102.0898417,55.0,58.0
442,101.9016395375,102.1095046125,62.0,55.0
443,102.5757965375,103.00978510624999,64.0,44.0
444,102.5757965375,103.02102105624999,61.0,57.0
445,102.5757965375,103.398829875,45.0,66.0
446,102.9128750375,103.42691975,57.0,49.0
447,103.24995353749999,103.44798715625,61.0,48.0
448,103.9241105375,104.6291664,66.0,56.0
449,103.9241105375,104.65866076875,69.0,59.0
450,103.9241105375,104.67832368124999,74.0,58.0
451,104.59826753749999,104.8005146375,62.0,62.0
452,103.9241105375,104.81877305625,50.0,64.0
453,104.2611890375,104.83562698125,57.0,60.0
454,104.9353460375,105.3061323875,74.0,63.0
455,105.2724245375,105.67270525625,64.0,56.0
456,105.2724245375,105.71905355,70.0,66.0
457,105.2724245375,105.84124450624999,73.0,70.0
458,105.9465815375,106.14742414375,66.0,58.0
459,105.2724245375,106.1713005375,42.0,73.0
460,105.9465815375,106.23450275625,71.0,62.0
461,105.60950303749999,106.29910946875,54.0,46.0
462,106.2836600375,106.60248011875,73.0,69.0
463,106.6207385375,107.10809786875,66.0,63.0
464,106.6207385375,107.18394053125,69.0,70.0
465,106.6207385375,107.18955850625,74.0,78.0
466,107.2948955375,107.51821004375,62.0,63.0
467,106.6207385375,107.52101903124999,50.0,75.0
468,106.95781703749999,107.54910890625,57.0,61.0
469,107.6319740375,107.7724234125,74.0,69.0
470,107.6319740375,107.80894024999999,69.0,66.0
471,107.96905253749999,108.52663655625,64.0,51.0
472,107.96905253749999,108.6432095375,69.0,69.0
473,107.96905253749999,108.7162432125,76.0,76.0
474,108.3061310375,108.84967011875,57.0,32.0
475,108.6432095375,108.86792853749999,61.0,67.0
476,107.96905253749999,108.91989480625,49.0,73.0
477,108.9802880375,109.20922051875,71.0,51.0
478,109.1488272875,109.28787216875,73.0,69.0
479,109.31736653749999,109.83281574375,66.0,67.0
480,109.31736653749999,110.04208531249999,69.0,73.0
481,109.31736653749999,110.04208531249999,74.0,78.0
482,109.9915235375,110.26259083125,59.0,64.0
483,109.6544450375,110.28506273125,54.0,57.0
484,109.31736653749999,110.28787171875,47.0,70.0
485,110.32860203749999,110.38759077499999,69.0,37.0
486,110.32860203749999,110.43253457499999,66.0,62.0
487,110.32860203749999,110.49011881874999,74.0,73.0
488,110.6656805375,111.22747803749999,64.0,62.0
489,110.6656805375,111.24011848125,73.0,49.0
490,110.6656805375,111.29208475,69.0,70.0
491,110.6656805375,111.5757924875,45.0,72.0
492,111.3398375375,111.59685989375,57.0,63.0
493,111.0027590375,111.67691603749999,54.0,58.0
494,111.67691603749999,111.98590466249999,69.0,66.0
495,112.0139945375,112.398825825,67.0,75.0
496,112.0139945375,112.41567975,71.0,76.0
497,112.0139945375,112.544893175,62.0,76.0
498,112.0139945375,112.6291628,43.0,72.0
499,112.3510730375,112.6488257125,69.0,69.0
500,112.3510730375,112.6993874875,50.0,61.0
501,112.68815153749999,112.971859275,62.0,69.0
502,112.68815153749999,113.03365699999999,71.0,73.0
503,112.68815153749999,113.0870277625,55.0,59.0
504,113.0252300375,113.12494909375,57.0,67.0
505,113.0252300375,113.2836568875,74.0,61.0
506,113.3623085375,114.06595990625,64.0,60.0
507,113.3623085375,114.12775763124999,45.0,70.0
508,113.3623085375,114.12775763124999,69.0,66.0
509,113.3623085375,114.16146548124999,73.0,72.0
510,113.6993870375,114.22326320625,52.0,54.0
511,114.03646553749999,114.25135308125,57.0,62.0
512,114.3735440375,114.713431525,69.0,59.0
513,114.7106225375,115.01258869375,71.0,67.0
514,114.7106225375,115.0982628125,66.0,58.0
515,115.7218580375,116.1375881875,61.0,60.0
516,116.0589365375,116.41427345625,62.0,64.0
517,116.7330935375,117.1460147,64.0,54.0
518,115.3847795375,117.17972255,59.0,63.0
519,114.7106225375,117.2274753375,47.0,73.0
520,115.04770103749999,117.29067755625,54.0,64.0
521,117.0701720375,117.46202579375,66.0,49.0
522,117.40725053749999,117.46202579375,66.0,67.0
523,117.40725053749999,118.09685696875,63.0,64.0
524,117.40725053749999,118.13899178125,71.0,62.0
525,118.75556453749999,119.33842944375,75.0,39.0
526,118.75556453749999,119.34685640625,78.0,43.0
527,118.75556453749999,119.34966539375,83.0,33.0
528,117.40725053749999,119.38196875,59.0,51.0
529,117.40725053749999,119.4128676125,47.0,56.0
530,121.11511403749999,121.58702393749999,62.0,55.0
531,120.7780355375,122.31314720625,59.0,73.0
532,120.1038785375,122.34825955,47.0,72.0
533,120.4409570375,122.410057275,54.0,58.0
534,121.4521925375,122.4690460125,66.0,60.0
535,121.4521925375,122.77241666249999,71.0,67.0
536,122.8005065375,123.37073099999999,69.0,69.0
537,123.47466353749999,123.91707906875,64.0,49.0
538,124.1488205375,124.88898874374999,64.0,22.0
539,123.8117420375,124.90303368125,69.0,57.0
540,122.8005065375,124.91426963125,54.0,55.0
541,124.1488205375,124.915674125,73.0,59.0
542,123.1375850375,124.938146025,61.0,42.0
543,125.4971345375,125.90022424375,67.0,58.0
544,125.4971345375,125.915673675,62.0,66.0
545,125.4971345375,125.938145575,59.0,39.0
546,125.4971345375,126.4297183875,43.0,45.0
547,126.1712915375,126.46623522499999,59.0,73.0
548,125.83421303749999,126.5139880125,55.0,56.0
549,126.5083700375,126.814549675,62.0,69.0
550,126.84544853749999,127.2134259,69.0,66.0
551,126.84544853749999,127.23168431875,64.0,66.0
552,126.84544853749999,127.23870678749999,61.0,62.0
553,126.84544853749999,127.58421225,45.0,75.0
554,127.5196055375,127.7527515,61.0,60.0
555,127.1825270375,127.80190878124999,57.0,54.0
556,128.1937625375,128.8988184,69.0,63.0
557,128.1937625375,128.90584086875,66.0,62.0
558,128.1937625375,129.0336498,50.0,73.0
559,128.8679195375,129.0476947375,62.0,69.0
560,128.5308410375,129.11089695625,57.0,57.0
561,129.2049980375,129.443761975,71.0,62.0
562,129.5420765375,130.2836492375,70.0,69.0
563,129.5420765375,130.29628968125,64.0,54.0
564,129.5420765375,130.45359298124998,49.0,67.0
565,130.2162335375,130.61370526875,71.0,58.0
566,130.5533120375,130.84263775,73.0,57.0
567,130.8903905375,131.43673860625,74.0,62.0
568,130.8903905375,131.4465700625,69.0,63.0
569,130.8903905375,131.466232975,66.0,51.0
570,131.9016260375,132.9212885,62.0,50.0
571,130.8903905375,133.08982774999998,47.0,66.0
572,131.5645475375,133.0926367375,59.0,70.0
573,131.2274690375,133.174097375,54.0,56.0
574,132.9128615375,133.263984975,66.0,53.0
575,133.2499400375,133.6094904375,71.0,46.0
576,133.5870185375,133.8903891875,42.0,63.0
577,133.9240970375,134.29909686874998,54.0,61.0
578,133.5870185375,134.46482713125,69.0,63.0
579,134.5982540375,135.6628603,61.0,63.0
580,135.6094895375,135.71904005,66.0,60.0
581,134.2611755375,135.72325353125,57.0,58.0
582,135.6094895375,135.74010745625,69.0,56.0
583,136.2836465375,136.86651144375,67.0,64.0
584,136.2836465375,136.95078106875,59.0,55.0
585,136.2836465375,136.95780353749998,62.0,67.0
586,136.2836465375,137.20078095625,43.0,72.0
587,136.6207250375,137.2611741875,50.0,66.0
588,136.95780353749998,137.32718539375,55.0,73.0
589,137.2948820375,137.46482578125,59.0,69.0
590,137.6319605375,138.04347720625,69.0,69.0
591,137.6319605375,138.072971575,61.0,66.0
592,137.6319605375,138.072971575,64.0,64.0
593,137.6319605375,138.5196005875,45.0,58.0
594,137.6319605375,138.6319600875,52.0,69.0
595,137.6319605375,138.657240975,57.0,64.0
596,138.3061175375,138.702184775,61.0,57.0
597,138.6431960375,138.9521846625,64.0,62.0
598,138.9802745375,139.51819564375,62.0,63.0
599,138.9802745375,139.55471248125,47.0,67.0
600,138.9802745375,139.56594843125,66.0,64.0
601,139.3173530375,139.668476475,54.0,56.0
602,139.6544315375,140.0589257375,59.0,52.0
603,139.9915100375,140.91004895,61.0,63.0
604,140.6656670375,140.9578017375,66.0,57.0
605,140.3285885375,140.9915095875,62.0,70.0
606,141.0027455375,141.31313865625,71.0,62.0
607,141.3398240375,141.59122841875,73.0,43.0
608,141.67690253749998,141.9774642,71.0,58.0
609,141.67690253749998,141.98870015,74.0,69.0
610,142.0139810375,142.18111579375,73.0,53.0
611,141.67690253749998,142.1881382625,47.0,69.0
612,142.0139810375,142.2443180125,76.0,58.0
613,142.0139810375,142.34403706875,54.0,56.0
614,142.3510595375,142.5645425875,78.0,66.0
615,142.3510595375,142.6066774,74.0,69.0
616,142.3510595375,142.75976721875,59.0,46.0
617,142.6881380375,142.99572216875,73.0,50.0
618,142.6881380375,143.04487945,76.0,56.0
619,143.0252165375,143.29347484375,74.0,64.0
620,143.0252165375,143.31454225,71.0,59.0
621,143.0252165375,143.87212626875,62.0,66.0
622,143.6993735375,143.8791487375,66.0,54.0
623,142.6881380375,143.8960026625,61.0,56.0
624,143.8679127875,144.08560931875,71.0,51.0
625,144.0364520375,144.36089009375,74.0,69.0
626,144.3735305375,144.86650784375,64.0,54.0
627,144.3735305375,144.90302468125,69.0,52.0
628,144.3735305375,144.92268759375,73.0,64.0
629,144.7106090375,145.80190068125,61.0,60.0
630,145.0476875375,146.1038668375,64.0,54.0
631,145.3847660375,146.28223754375,69.0,59.0
632,146.0589230375,146.46482173125,61.0,57.0
633,144.3735305375,146.56594528125,54.0,78.0
634,146.39600153749998,146.67830478125,73.0,58.0
635,146.7330800375,147.04487765,69.0,62.0
636,147.0701585375,147.488697675,67.0,58.0
637,147.0701585375,147.50133811875,71.0,56.0
638,147.0701585375,147.5195965375,62.0,54.0
639,147.0701585375,148.01538283125,43.0,63.0
640,147.4072370375,148.09965245625,50.0,56.0
641,147.7443155375,148.19234904375,55.0,55.0
642,148.0813940375,148.2724051875,59.0,56.0
643,148.4184725375,149.02942731875,61.0,72.0
644,148.4184725375,149.11088795625,64.0,67.0
645,148.4184725375,149.11931491875,69.0,67.0
646,148.4184725375,149.151618275,45.0,67.0
647,148.7555510375,149.207798025,52.0,63.0
648,149.0926295375,149.7077978,57.0,54.0
649,149.7667865375,150.3622918875,66.0,60.0
650,149.7667865375,150.4802693625,69.0,61.0
651,149.7667865375,150.50414575624998,74.0,60.0
652,150.4409435375,150.64178614375,62.0,67.0
653,149.7667865375,150.6516176,50.0,66.0
654,150.1038650375,150.7106063375,57.0,53.0
655,150.7780220375,151.03504439374998,71.0,62.0
656,151.11510053749998,151.5420666375,64.0,58.0
657,151.11510053749998,151.67549354375,70.0,66.0
658,151.7892575375,151.94375184999998,66.0,48.0
659,151.4521790375,152.04627989374998,61.0,47.0
660,151.11510053749998,152.06594280625,49.0,72.0
661,151.7892575375,152.07858325,71.0,51.0
662,152.1263360375,152.23729104375,66.0,32.0
663,152.1263360375,152.45077409375,73.0,58.0
664,152.4634145375,152.9465603875,74.0,62.0
665,152.4634145375,152.983077225,69.0,50.0
666,152.4634145375,153.039256975,66.0,56.0
667,153.1375715375,153.92268354375,59.0,64.0
668,153.4746500375,154.174087925,62.0,56.0
669,153.8117285375,154.22324520625,66.0,59.0
670,153.8117285375,154.22324520625,71.0,60.0
671,154.1488070375,154.54487427499998,59.0,52.0
672,152.4634145375,154.61509896249999,47.0,67.0
673,152.8004930375,154.6656607375,54.0,53.0
674,154.4858855375,154.74571688125,62.0,55.0
675,154.8229640375,155.3033009,71.0,73.0
676,155.1600425375,155.52661540625,42.0,69.0
677,155.4971210375,155.92830061875,54.0,64.0
678,155.1600425375,156.2667836125,69.0,64.0
679,156.5083565375,156.9577945375,64.0,46.0
680,156.8454350375,157.12212030625,69.0,48.0
681,156.1712780375,157.26256968125,61.0,57.0
682,157.1825135375,157.32155841875,73.0,67.0
683,155.83419953749998,157.3398168375,57.0,55.0
684,157.8566705375,158.41565905,62.0,60.0
685,157.8566705375,158.4634118375,67.0,63.0
686,157.8566705375,158.46481633125,71.0,54.0
687,157.8566705375,158.75273755,43.0,73.0
688,158.5308275375,158.75695103125,55.0,57.0
689,158.1937490375,158.78223191875,50.0,57.0
690,158.8679060375,159.0083554125,62.0,55.0
691,159.2049845375,159.814534825,64.0,57.0
692,159.2049845375,159.88616400625,73.0,63.0
693,159.2049845375,159.949366225,69.0,58.0
694,159.2049845375,160.0645347125,45.0,73.0
695,159.5420630375,160.15582680625,52.0,55.0
696,159.8791415375,160.17268073124998,57.0,53.0
697,160.55329853749998,161.1319499625,66.0,67.0
698,160.55329853749998,161.15582635625,62.0,60.0
699,160.55329853749998,161.24711845,71.0,64.0
700,161.5645340375,161.77661259375,61.0,57.0
701,161.9016125375,162.19515173125,62.0,58.0
702,162.2386910375,162.38616288125,64.0,49.0
703,160.55329853749998,162.79627505625,47.0,69.0
704,162.5757695375,162.8903761375,66.0,54.0
705,161.2274555375,162.93953341875,59.0,69.0
706,160.8903770375,162.99430867499998,54.0,58.0
707,162.9128480375,163.21762318125,69.0,55.0
708,163.2499265375,163.5729601,66.0,76.0
709,163.2499265375,163.5757690875,62.0,73.0
710,163.2499265375,163.59121851875,71.0,70.0
711,163.9240835375,164.11369019375,64.0,72.0
712,163.9240835375,164.117903675,69.0,72.0
713,163.9240835375,164.140375575,73.0,75.0
714,163.9240835375,164.151611525,59.0,72.0
715,164.5982405375,164.91706061874999,74.0,73.0
716,164.5982405375,164.95498195,66.0,75.0
717,164.5982405375,164.9634089125,69.0,78.0
718,164.76677978749998,164.97745385,59.0,46.0
719,163.2499265375,165.06593695625,47.0,75.0
720,165.27239753749998,165.57998166875,45.0,64.0
721,165.27239753749998,165.62913895,64.0,75.0
722,165.27239753749998,165.65863331875,69.0,82.0
723,165.27239753749998,165.6656557875,76.0,82.0
724,165.9465545375,166.320149875,69.0,78.0
725,165.9465545375,166.35245323125,66.0,80.0
726,165.9465545375,166.50132956875,74.0,80.0
727,166.6207115375,166.77520585,64.0,82.0
728,166.6207115375,166.85245300625,62.0,62.0
729,166.6207115375,166.85245300625,73.0,78.0
730,166.2836330375,166.904419275,57.0,47.0
731,165.9465545375,166.95638554375,50.0,91.0
732,166.9577900375,167.07998099374998,66.0,75.0
733,166.9577900375,167.08559896875,74.0,67.0
734,167.2948685375,167.74571103124998,64.0,67.0
735,167.2948685375,167.74571103124998,69.0,73.0
736,167.2948685375,167.769587425,76.0,73.0
737,167.9690255375,168.1796996,64.0,78.0
738,167.2948685375,168.297677075,45.0,76.0
739,167.6319470375,168.38616018125,57.0,44.0
740,168.3061040375,168.52099158125,69.0,63.0
741,168.4746432875,168.61930614375,71.0,64.0
742,168.6431825375,168.91986780624998,66.0,80.0
743,168.6431825375,168.99571046875,69.0,67.0
744,168.6431825375,169.02660933125,74.0,69.0
745,168.9802610375,169.17829465625,66.0,60.0
746,168.9802610375,169.286440675,73.0,76.0
747,168.6431825375,169.43110353125,47.0,72.0
748,168.9802610375,169.4690248625,54.0,64.0
749,169.3173395375,169.477451825,74.0,76.0
750,169.3173395375,169.5027327125,59.0,66.0
751,169.3173395375,169.5027327125,66.0,70.0
752,169.6544180375,169.96621565,74.0,63.0
753,169.99149653749998,170.31593459375,69.0,75.0
754,169.99149653749998,170.4268896,73.0,76.0
755,169.99149653749998,170.4493615,64.0,69.0
756,169.99149653749998,170.63475467499998,61.0,69.0
757,170.6656535375,170.81874335625,64.0,85.0
758,170.6656535375,170.848237725,69.0,93.0
759,169.99149653749998,170.949361275,54.0,73.0
760,170.8341927875,170.9521702625,61.0,73.0
761,171.0027320375,171.15863084375,64.0,73.0
762,171.1712712875,171.31312515625,69.0,70.0
763,171.3398105375,171.7162148625,71.0,85.0
764,171.3398105375,171.7302598,67.0,85.0
765,171.3398105375,171.85385525,62.0,82.0
766,171.6768890375,172.01818101875,69.0,75.0
767,172.0139675375,172.28082135,62.0,76.0
768,171.3398105375,172.30188875625,43.0,70.0
769,172.0139675375,172.32155166875,55.0,70.0
770,172.0139675375,172.32997863125,71.0,78.0
771,171.6768890375,172.33981008749998,50.0,61.0
772,172.3510460375,172.7190234,74.0,73.0
773,172.6881245375,173.18671981875,64.0,75.0
774,172.6881245375,173.23868608749999,69.0,78.0
775,172.6881245375,173.263966975,73.0,75.0
776,172.6881245375,173.44514666875,45.0,70.0
777,173.0252030375,173.52379831874998,52.0,60.0
778,173.3622815375,173.589809525,64.0,75.0
779,173.3622815375,173.5926185125,57.0,70.0
780,173.3622815375,173.65020275625,71.0,69.0
781,173.69936003749999,173.96621385,69.0,64.0
782,174.0364385375,174.6038540125,50.0,72.0
783,174.0364385375,174.6038540125,66.0,70.0
784,174.0364385375,174.64317983749999,69.0,66.0
785,174.3735170375,174.65862926875,57.0,64.0
786,174.0364385375,174.6600337625,74.0,75.0
787,174.8791347875,174.95919093125,64.0,78.0
788,174.5420562875,174.9914942875,62.0,59.0
789,175.3847525375,175.7555388875,64.0,66.0
790,175.3847525375,175.75694338124998,70.0,85.0
791,175.3847525375,175.7836287625,49.0,73.0
792,175.3847525375,175.79205572499998,73.0,80.0
793,175.7218310375,175.81874110625,61.0,60.0
794,175.7218310375,176.01537023125,71.0,63.0
795,176.0589095375,176.29626898125,66.0,73.0
796,176.0589095375,176.3594712,73.0,91.0
797,176.3959880375,176.48728013125,58.0,55.0
798,176.0589095375,176.50694304375,46.0,76.0
799,176.3959880375,176.5617183,76.0,82.0
800,176.7330665375,176.94374059999998,66.0,75.0
801,176.7330665375,177.02098775625,69.0,73.0
802,176.7330665375,177.04626864374998,74.0,78.0
803,177.0701450375,177.2358753,64.0,60.0
804,177.4072235375,177.43109993125,69.0,44.0
805,177.4072235375,177.49851563125,74.0,62.0
806,177.0701450375,177.5083470875,73.0,75.0
807,177.4072235375,177.54345943125,66.0,73.0
808,177.4072235375,177.61087513125,62.0,67.0
809,176.7330665375,177.67969532499998,50.0,72.0
810,177.0701450375,177.7218301375,57.0,62.0
811,177.7443020375,177.87491995624998,78.0,78.0
812,178.0813805375,178.38615568125,76.0,69.0
813,178.0813805375,178.38896466875,74.0,72.0
814,178.0813805375,178.5757623375,69.0,64.0
815,178.0813805375,178.9634026125,45.0,72.0
816,178.41845903749999,178.99991945,52.0,60.0
817,178.92407678749998,179.0336273,64.0,88.0
818,178.7555375375,179.0364362875,57.0,82.0
819,179.0926160375,179.3032901,69.0,59.0
820,179.2611552875,179.40300915625,71.0,69.0
821,179.42969453749998,179.65300904375,66.0,80.0
822,179.42969453749998,179.73166069375,69.0,70.0
823,179.42969453749998,179.75132360625,74.0,64.0
824,179.7667730375,179.81031234374998,64.0,56.0
825,179.7667730375,179.9325033,66.0,54.0
826,179.7667730375,180.12070546249998,73.0,70.0
827,180.1038515375,180.16424476875,66.0,57.0
828,180.1038515375,180.22885148125,74.0,75.0
829,179.42969453749998,180.3145256,47.0,73.0
830,179.7667730375,180.36087389374998,54.0,67.0
831,180.1038515375,180.44373902499999,59.0,64.0
832,180.4409300375,180.71480631875,76.0,66.0
833,180.7780085375,181.39177230625,74.0,73.0
834,181.4521655375,181.60806434375,64.0,64.0
835,180.7780085375,181.7892440375,54.0,70.0
836,181.1150870375,181.79064853124999,61.0,63.0
837,181.6207047875,181.8398058125,69.0,66.0
838,181.7892440375,182.01255854375,73.0,64.0
839,181.9577832875,182.23446855625,74.0,66.0
840,182.1263225375,182.54345718125,62.0,93.0
841,182.1263225375,182.5757605375,67.0,76.0
842,182.1263225375,182.59963693125,71.0,70.0
843,182.4634010375,182.926883975,59.0,69.0
844,182.6319402875,182.92828846875,74.0,1.0
845,182.1263225375,182.96761429375,55.0,73.0
846,182.8004795375,183.0701423375,62.0,85.0
847,183.13755803749999,183.4746365375,74.0,72.0
848,183.4746365375,183.76536674375,69.0,66.0
849,183.4746365375,183.9521644125,64.0,75.0
850,183.4746365375,184.01255764375,73.0,70.0
851,183.4746365375,184.33278221875,45.0,72.0
852,183.8117150375,184.41705184375,52.0,48.0
853,184.14879353749998,184.43952374375,57.0,75.0
854,184.14879353749998,184.43952374375,69.0,78.0
855,184.4858720375,184.70778205,66.0,76.0
856,184.8229505375,185.26817505625,74.0,73.0
857,184.8229505375,185.4128379125,66.0,70.0
858,184.8229505375,185.45918620625,47.0,69.0
859,185.1600290375,185.50413000625,54.0,69.0
860,185.1600290375,185.56592773124999,73.0,69.0
861,185.4971075375,185.62210748125,66.0,32.0
862,185.4971075375,185.82154559375,71.0,64.0
863,185.4971075375,185.86648939375,59.0,44.0
864,185.8341860375,186.1572196,69.0,61.0
865,186.1712645375,186.45637676875,66.0,54.0
866,186.1712645375,186.48306215,62.0,59.0
867,186.1712645375,186.5083430375,71.0,64.0
868,185.8341860375,186.54205088749998,61.0,64.0
869,187.5195785375,188.320139975,66.0,61.0
870,187.5195785375,188.34963434374998,69.0,67.0
871,187.5195785375,188.36648826875,74.0,64.0
872,188.1937355375,188.44794890625,62.0,63.0
873,187.85665703749999,188.49851068125,57.0,54.0
874,187.5195785375,188.50553315,50.0,73.0
875,188.86789253749998,189.4914877625,64.0,61.0
876,188.86789253749998,189.5055327,69.0,63.0
877,188.86789253749998,189.6544090375,73.0,63.0
878,188.86789253749998,189.77379100625,57.0,62.0
879,189.5420495375,189.89879095,71.0,53.0
880,189.8791280375,190.12491444375,73.0,50.0
881,190.2162065375,191.00693651875,74.0,63.0
882,190.2162065375,191.00834101249998,47.0,62.0
883,190.2162065375,191.02379044375,66.0,59.0
884,190.2162065375,191.0645207625,69.0,62.0
885,190.5532850375,191.0982286125,54.0,49.0
886,190.8903635375,191.1150825375,59.0,59.0
887,191.5645205375,192.05468885624998,69.0,54.0
888,191.5645205375,192.19513823124998,73.0,56.0
889,191.5645205375,192.27098089375,64.0,51.0
890,191.5645205375,192.41564375,61.0,62.0
891,191.5645205375,192.4633965375,54.0,56.0
892,192.2386775375,192.55187964375,69.0,47.0
893,192.9128345375,193.31873323125,69.0,47.0
894,192.9128345375,193.3454186125,67.0,55.0
895,192.9128345375,193.35946355,62.0,56.0
896,192.9128345375,193.3706995,71.0,55.0
897,193.2499130375,193.74710382499998,59.0,43.0
898,192.9128345375,193.7751937,55.0,58.0
899,193.58699153749998,193.79485661249998,62.0,55.0
900,194.2611485375,194.69513710625,64.0,44.0
901,194.2611485375,194.70637305625,61.0,57.0
902,194.2611485375,195.08418187499998,45.0,66.0
903,194.5982270375,195.11227175,57.0,49.0
904,194.9353055375,195.13333915625,61.0,48.0
905,195.6094625375,196.3145184,66.0,56.0
906,195.6094625375,196.34401276875,69.0,59.0
907,195.6094625375,196.36367568125,74.0,58.0
908,196.2836195375,196.4858666375,62.0,62.0
909,195.6094625375,196.50412505625,50.0,64.0
910,195.9465410375,196.52097898124998,57.0,60.0
911,196.6206980375,196.9914843875,74.0,63.0
912,196.9577765375,197.35805725625,64.0,56.0
913,196.9577765375,197.40440555,70.0,66.0
914,196.9577765375,197.52659650625,73.0,70.0
915,197.6319335375,197.83277614374998,66.0,58.0
916,196.9577765375,197.8566525375,42.0,73.0
917,197.6319335375,197.91985475625,71.0,62.0
918,197.29485503749999,197.98446146875,54.0,46.0
919,197.9690120375,198.28783211875,73.0,69.0
920,198.30609053749998,198.79344986875,66.0,63.0
921,198.30609053749998,198.86929253124998,69.0,70.0
922,198.30609053749998,198.87491050625,74.0,78.0
923,198.9802475375,199.20356204375,62.0,63.0
924,198.30609053749998,199.20637103125,50.0,75.0
925,198.6431690375,199.23446090625,57.0,61.0
926,199.3173260375,199.45777541249998,74.0,69.0
927,199.3173260375,199.49429225,69.0,66.0
928,199.6544045375,200.21198855625,64.0,51.0
929,199.6544045375,200.3285615375,69.0,69.0
930,199.6544045375,200.40159521249998,76.0,76.0
931,199.9914830375,200.53502211875,57.0,32.0
932,200.3285615375,200.5532805375,61.0,67.0
933,199.6544045375,200.60524680625,49.0,73.0
934,200.6656400375,200.89457251874998,71.0,51.0
935,200.8341792875,200.97322416875,73.0,69.0
936,201.0027185375,201.51816774374998,66.0,67.0
937,201.0027185375,201.7274373125,69.0,73.0
938,201.0027185375,201.7274373125,74.0,78.0
939,201.6768755375,201.94794283125,59.0,64.0
940,201.3397970375,201.97041473125,54.0,57.0
941,201.0027185375,201.97322371875,47.0,70.0
942,202.01395403749999,202.072942775,69.0,37.0
943,202.01395403749999,202.117886575,66.0,62.0
944,202.01395403749999,202.17547081875,74.0,73.0
945,202.3510325375,202.9128300375,64.0,62.0
946,202.3510325375,202.92547048125,73.0,49.0
947,202.3510325375,202.97743675,69.0,70.0
948,202.3510325375,203.2611444875,45.0,72.0
949,203.02518953749998,203.28221189375,57.0,63.0
950,202.6881110375,203.3622680375,54.0,58.0
951,203.3622680375,203.67125666249999,69.0,66.0
952,203.6993465375,204.08417782499998,67.0,75.0
953,203.6993465375,204.10103175,71.0,76.0
954,203.6993465375,204.230245175,62.0,76.0
955,203.6993465375,204.31451479999998,43.0,72.0
956,204.0364250375,204.3341777125,69.0,69.0
957,204.0364250375,204.38473948749998,50.0,61.0
958,204.3735035375,204.657211275,62.0,69.0
959,204.3735035375,204.719009,71.0,73.0
960,204.3735035375,204.7723797625,55.0,59.0
961,204.7105820375,204.81030109374998,57.0,67.0
962,204.7105820375,204.9690088875,74.0,61.0
963,205.0476605375,205.75131190625,64.0,60.0
964,205.0476605375,205.81310963125,45.0,70.0
965,205.0476605375,205.81310963125,69.0,66.0
966,205.0476605375,205.84681748124999,73.0,72.0
967,205.3847390375,205.90861520625,52.0,54.0
968,205.7218175375,205.93670508124998,57.0,62.0
969,206.0588960375,206.398783525,69.0,59.0
970,206.38333409375,206.99569336874998,73.0,67.0
971,206.37490713124998,207.04625514375,47.0,69.0
972,206.7161991125,207.072940525,54.0,62.0
973,207.05749109375,207.477434725,59.0,63.0
974,208.0757490625,208.477434275,69.0,70.0
975,207.76254695625,208.55468143125,62.0,73.0
976,207.41142351874998,208.58558029374998,61.0,60.0
977,208.41563655,208.7723779625,74.0,76.0
978,208.74850156875,209.005523925,76.0,60.0
979,209.03782728125,209.18670361875,74.0,49.0
980,209.0027149375,209.53220908125,69.0,44.0
981,209.09962500625,209.7499056125,78.0,63.0
982,209.05187221875,209.79484941249999,50.0,60.0
983,209.41142261875,209.81732131249998,57.0,36.0
984,209.76254605625,209.93951226875,62.0,53.0
985,209.7723775125,210.03782683125,81.0,56.0
986,210.1206919625,210.37069185,78.0,50.0
987,210.41563564999998,211.11226455,69.0,53.0
988,210.41142216875,211.22883753125,61.0,60.0
989,210.4128266625,211.26254538125,76.0,66.0
990,211.432489125,211.65159015,78.0,49.0
991,211.5954104,211.78642155,76.0,60.0
992,211.7836125625,212.2611404375,74.0,70.0
993,211.7667586375,212.63052229375,59.0,69.0
994,212.11788207499998,212.6515897,66.0,55.0
995,212.454960575,212.7555222375,74.0,67.0
996,212.7892300875,212.9886682,76.0,51.0
997,212.9437244,213.1487804875,74.0,58.0
998,213.1487804875,213.6038364625,73.0,62.0
999,213.46198259375,213.75271279999998,66.0,47.0
1000,213.14456700624999,213.8285554625,57.0,58.0
1001,213.78782514374998,213.8959711625,69.0,62.0
1002,214.45636416874999,214.8903527375,69.0,63.0
1003,214.4493417,214.89175723124998,67.0,66.0
1004,214.45355518124998,214.8987797,71.0,64.0
1005,214.4577686625,214.91703811874999,62.0,63.0
1006,215.2358582,215.4858580875,62.0,62.0
1007,214.45074619375,215.56170075,43.0,69.0
1008,214.83557748125,215.65299284374998,55.0,46.0
1009,215.56310524375,216.0673185,71.0,70.0
1010,216.56310479375,217.078554,64.0,57.0
1011,216.56170029999998,217.18108204375,69.0,67.0
1012,216.59119466875,217.18670001875,73.0,64.0
1013,217.49849763125,217.71759865625,64.0,53.0
1014,217.870688475,218.072935575,69.0,56.0
1015,218.252710775,218.61787915,73.0,51.0
1016,218.6740589,219.37068779999998,76.0,61.0
1017,219.74006965625,220.04905828124998,81.0,45.0
1018,217.22462135,220.05467625625,57.0,72.0
1019,216.556082325,220.1824851875,45.0,73.0
1020,216.9128237375,220.21759753125,52.0,52.0
1021,221.06872074375,221.612259825,66.0,39.0
1022,221.17546226874998,221.90158553749998,69.0,41.0
1023,221.43108013124998,221.9128214875,47.0,69.0
1024,221.71759685625,221.9577652875,54.0,67.0
1025,221.96197876875,222.2330460625,59.0,67.0
1026,221.331361075,222.38332689375,74.0,53.0
1027,222.645967225,222.7892255875,66.0,66.0
1028,222.8763042,223.15720295,71.0,60.0
1029,223.12068611249998,223.252708525,73.0,66.0
1030,223.35242758125,223.5420342375,74.0,59.0
1031,223.59119151875,223.7302364,78.0,54.0
1032,223.85383185,224.01956211249998,83.0,70.0
1033,224.13332610625,224.27377548125,85.0,60.0
1034,224.47602258125,224.67826968125,86.0,39.0
1035,224.8116965875,224.9577639375,90.0,47.0
1036,222.17265283125,225.3706851,61.0,62.0
1037,222.40720328749998,225.3734940875,62.0,85.0
1038,225.28641547499998,225.39737048125,95.0,47.0
1039,227.71759415625,228.21197595625,83.0,41.0
1040,227.735852575,228.21197595625,86.0,46.0
1041,227.7892233375,228.21478494375,90.0,42.0
1042,227.76253795625,228.2386613375,47.0,54.0
1043,227.87489745624998,228.25411076875,95.0,46.0
