,start,end,pitch,velocity
0,1.806640625,2.611328125,54.0,61.0
1,2.275390625,4.248046875,59.0,82.0
2,2.744140625,4.25,54.0,41.0
3,4.384765625,4.5859375,54.0,53.0
4,1.337890625,4.619140625,47.0,92.0
5,4.150390625,4.7421875,63.0,73.0
6,3.212890625,5.12109375,66.0,79.0
7,4.619140625,5.1328125,59.0,72.0
8,4.853515625,5.142578125,63.0,64.0
9,5.556640625,6.181640625,57.0,90.0
10,5.322265625,6.2734375,52.0,65.0
11,6.259765625,6.2734375,52.0,56.0
12,5.791015625,7.759765625,64.0,93.0
13,6.494140625,7.80078125,61.0,53.0
14,6.728515625,8.125,57.0,76.0
15,5.087890625,8.228515625,45.0,79.0
16,8.134765625,8.25390625,52.0,68.0
17,8.603515625,8.84375,57.0,90.0
18,7.900390625,8.84375,64.0,93.0
19,8.369140625,8.853515625,61.0,102.0
20,9.306640625,9.6796875,52.0,89.0
21,9.072265625,9.931640625,47.0,51.0
22,10.009765625,10.333984375,47.0,63.0
23,8.837890625,10.390625,40.0,92.0
24,10.244140625,10.689453125,56.0,92.0
25,10.478515625,10.697265625,52.0,74.0
26,9.541015625,10.712890625,59.0,95.0
27,11.181640625,11.955078125,53.0,62.0
28,10.712890625,12.115234375,41.0,71.0
29,12.353515625,12.587890625,53.0,73.0
30,12.119140625,12.587890625,56.0,93.0
31,11.416015625,12.587890625,59.0,96.0
32,13.056640625,13.62890625,54.0,82.0
33,13.291015625,14.1171875,58.0,69.0
34,12.822265625,14.328125,49.0,64.0
35,12.587890625,14.33203125,42.0,89.0
36,13.759765625,14.3515625,54.0,66.0
37,13.994140625,14.486328125,61.0,93.0
38,14.46875,16.279296875,49.0,89.0
39,14.462890625,16.3125,42.0,61.0
40,14.462890625,16.322265625,55.0,79.0
41,16.337890625,17.775390625,47.0,93.0
42,16.806640625,17.80078125,54.0,59.0
43,17.275390625,18.330078125,66.0,100.0
44,17.744140625,18.345703125,63.0,77.0
45,18.212890625,19.314453125,46.0,69.0
46,18.681640625,19.31640625,58.0,75.0
47,19.619140625,20.11328125,58.0,60.0
48,19.150390625,20.11328125,66.0,82.0
49,21.025390625,21.44140625,56.0,54.0
50,20.556640625,21.44921875,51.0,44.0
51,20.087890625,21.52734375,44.0,74.0
52,21.025390625,22.0390625,68.0,60.0
53,21.025390625,22.080078125,63.0,59.0
54,21.494140625,22.09765625,59.0,60.0
55,22.431640625,23.03515625,49.0,67.0
56,21.962890625,23.244140625,42.0,83.0
57,23.134765625,23.2578125,49.0,58.0
58,22.900390625,23.802734375,58.0,82.0
59,22.900390625,23.802734375,61.0,89.0
60,23.369140625,23.8671875,54.0,69.0
61,24.306640625,24.939453125,44.0,36.0
62,23.837890625,24.98828125,37.0,82.0
63,24.775390625,25.0859375,49.0,48.0
64,25.244140625,25.748046875,52.0,58.0
65,24.775390625,25.755859375,56.0,65.0
66,24.775390625,25.763671875,61.0,65.0
67,26.181640625,26.95703125,46.0,37.0
68,26.650390625,26.98046875,51.0,56.0
69,25.712890625,27.04296875,39.0,69.0
70,26.650390625,27.611328125,63.0,67.0
71,26.650390625,27.634765625,58.0,68.0
72,27.119140625,27.63671875,54.0,67.0
73,27.587890625,28.796875,37.0,71.0
74,28.056640625,28.9296875,49.0,77.0
75,28.994140625,29.4921875,53.0,72.0
76,28.525390625,29.513671875,56.0,71.0
77,28.525390625,29.556640625,61.0,78.0
78,30.166015625,30.451171875,58.0,73.0
79,29.931640625,30.466796875,54.0,83.0
80,29.697265625,30.56640625,49.0,50.0
81,29.462890625,30.78515625,42.0,74.0
82,30.869140625,31.283203125,58.0,53.0
83,31.103515625,31.291015625,54.0,62.0
84,30.400390625,31.29296875,61.0,95.0
85,31.806640625,32.36328125,59.0,85.0
86,31.572265625,32.634765625,54.0,78.0
87,31.337890625,32.794921875,47.0,83.0
88,32.978515625,33.220703125,59.0,40.0
89,32.744140625,33.2734375,63.0,34.0
90,32.041015625,33.302734375,66.0,97.0
91,33.212890625,34.486328125,45.0,75.0
92,33.681640625,34.505859375,52.0,59.0
93,33.916015625,35.0625,64.0,89.0
94,34.853515625,35.1171875,57.0,61.0
95,34.619140625,35.154296875,61.0,57.0
96,35.556640625,36.263671875,51.0,34.0
97,36.025390625,36.279296875,56.0,47.0
98,35.087890625,36.34375,44.0,82.0
99,36.025390625,36.935546875,68.0,88.0
100,36.025390625,36.9609375,63.0,65.0
101,36.494140625,36.966796875,59.0,54.0
102,37.431640625,37.91796875,54.0,78.0
103,37.666015625,37.9609375,58.0,82.0
104,37.197265625,37.994140625,49.0,44.0
105,38.134765625,38.4140625,49.0,38.0
106,36.962890625,38.509765625,42.0,81.0
107,38.369140625,38.794921875,58.0,74.0
108,37.900390625,38.830078125,61.0,107.0
109,39.306640625,39.98828125,49.0,79.0
110,38.837890625,40.29296875,37.0,88.0
111,39.541015625,40.654296875,61.0,44.0
112,40.244140625,40.681640625,52.0,75.0
113,39.541015625,40.759765625,56.0,76.0
114,41.181640625,41.7890625,51.0,58.0
115,40.712890625,42.03515625,39.0,93.0
116,41.884765625,42.068359375,51.0,60.0
117,41.650390625,42.544921875,63.0,86.0
118,41.650390625,42.56640625,58.0,82.0
119,42.119140625,42.568359375,54.0,75.0
120,42.587890625,43.544921875,40.0,86.0
121,43.525390625,44.041015625,42.0,72.0
122,43.525390625,44.4140625,54.0,73.0
123,43.525390625,44.435546875,58.0,76.0
124,43.525390625,44.447265625,61.0,72.0
125,44.931640625,45.533203125,54.0,71.0
126,44.462890625,46.21484375,47.0,78.0
127,45.634765625,46.37109375,54.0,62.0
128,45.869140625,47.1953125,63.0,86.0
129,45.400390625,47.20703125,66.0,100.0
130,46.103515625,47.23046875,59.0,73.0
131,46.806640625,47.349609375,54.0,33.0
132,47.509765625,47.681640625,54.0,89.0
133,46.337890625,47.771484375,47.0,73.0
134,47.275390625,48.20703125,66.0,97.0
135,47.275390625,48.224609375,63.0,96.0
136,47.744140625,48.26953125,59.0,86.0
137,48.681640625,49.205078125,52.0,89.0
138,48.916015625,49.400390625,59.0,79.0
139,48.212890625,49.759765625,40.0,93.0
140,49.384765625,49.830078125,52.0,85.0
141,49.150390625,49.93359375,68.0,127.0
142,49.619140625,49.939453125,64.0,82.0
143,48.447265625,49.9765625,47.0,82.0
144,49.853515625,50.03515625,59.0,93.0
145,50.556640625,50.93359375,58.0,63.0
146,50.087890625,51.041015625,42.0,97.0
147,51.025390625,51.1953125,51.0,73.0
148,51.025390625,51.66796875,43.0,75.0
149,51.025390625,51.94140625,55.0,60.0
150,51.025390625,51.9609375,58.0,68.0
151,52.431640625,52.931640625,56.0,82.0
152,52.666015625,53.1484375,59.0,67.0
153,53.134765625,53.4375,56.0,96.0
154,51.962890625,53.62109375,44.0,83.0
155,52.900390625,53.69140625,68.0,97.0
156,53.369140625,53.732421875,63.0,112.0
157,53.603515625,53.828125,59.0,90.0
158,54.072265625,54.408203125,54.0,75.0
159,54.306640625,54.693359375,58.0,102.0
160,54.541015625,54.884765625,54.0,89.0
161,53.837890625,55.203125,46.0,95.0
162,55.009765625,55.29296875,54.0,89.0
163,54.775390625,55.673828125,61.0,127.0
164,55.244140625,55.685546875,58.0,99.0
165,55.478515625,55.7421875,54.0,93.0
166,56.181640625,56.73046875,52.0,93.0
167,56.416015625,56.759765625,56.0,83.0
168,56.884765625,57.25,52.0,95.0
169,55.712890625,57.474609375,40.0,83.0
170,56.650390625,57.515625,64.0,75.0
171,55.947265625,57.517578125,47.0,52.0
172,57.353515625,57.548828125,59.0,62.0
173,57.119140625,57.623046875,56.0,95.0
174,57.822265625,58.15234375,51.0,65.0
175,58.056640625,58.3671875,55.0,77.0
176,58.291015625,58.69921875,51.0,83.0
177,57.587890625,58.869140625,43.0,72.0
178,58.759765625,59.05078125,51.0,75.0
179,58.994140625,59.392578125,55.0,68.0
180,59.228515625,59.4296875,51.0,112.0
181,58.525390625,59.435546875,58.0,112.0
182,59.931640625,60.5,44.0,85.0
183,60.166015625,60.66015625,47.0,82.0
184,59.462890625,61.169921875,32.0,92.0
185,59.697265625,61.29296875,39.0,54.0
186,60.634765625,61.37109375,44.0,88.0
187,61.103515625,61.89453125,47.0,88.0
188,60.869140625,61.9609375,51.0,82.0
189,60.400390625,62.0234375,56.0,97.0
190,62.041015625,62.08984375,56.0,34.0
191,61.572265625,62.142578125,39.0,58.0
192,61.806640625,62.14453125,44.0,85.0
193,61.337890625,62.162109375,32.0,70.0
194,62.041015625,62.216796875,47.0,92.0
195,62.275390625,63.169921875,34.0,92.0
196,63.681640625,64.169921875,49.0,79.0
197,63.916015625,64.51953125,52.0,78.0
198,63.447265625,64.5625,44.0,38.0
199,63.212890625,64.58203125,37.0,89.0
200,64.384765625,64.998046875,49.0,81.0
201,64.619140625,65.068359375,56.0,92.0
202,64.853515625,65.08203125,52.0,89.0
203,64.150390625,65.083984375,61.0,100.0
204,65.322265625,66.1328125,51.0,77.0
205,65.791015625,66.13671875,58.0,79.0
206,65.556640625,66.15625,54.0,76.0
207,66.259765625,66.458984375,51.0,76.0
208,65.087890625,66.49609375,39.0,96.0
209,66.025390625,66.951171875,63.0,112.0
210,66.494140625,66.96484375,54.0,99.0
211,66.728515625,66.974609375,58.0,86.0
212,67.431640625,67.6953125,52.0,93.0
213,67.666015625,67.958984375,56.0,95.0
214,67.197265625,68.01953125,47.0,76.0
215,68.134765625,68.326171875,47.0,81.0
216,66.962890625,68.3515625,40.0,90.0
217,67.900390625,68.748046875,59.0,107.0
218,68.603515625,68.78515625,52.0,93.0
219,68.369140625,68.7890625,56.0,112.0
220,69.072265625,69.84765625,51.0,95.0
221,69.306640625,69.865234375,54.0,74.0
222,69.541015625,69.873046875,58.0,72.0
223,68.837890625,70.19140625,39.0,93.0
224,70.009765625,70.248046875,51.0,93.0
225,69.775390625,70.626953125,63.0,107.0
226,70.478515625,70.65234375,58.0,61.0
227,70.244140625,70.708984375,54.0,97.0
228,70.947265625,71.265625,53.0,77.0
229,71.181640625,71.6015625,56.0,82.0
230,71.416015625,71.775390625,53.0,71.0
231,71.884765625,72.1875,53.0,69.0
232,70.712890625,72.4765625,41.0,88.0
233,72.353515625,72.677734375,53.0,69.0
234,72.119140625,72.7109375,56.0,88.0
235,71.650390625,72.861328125,59.0,102.0
236,72.822265625,73.17578125,53.0,55.0
237,73.056640625,73.40234375,56.0,65.0
238,73.291015625,73.646484375,53.0,72.0
239,72.587890625,73.81640625,41.0,69.0
240,73.759765625,74.052734375,53.0,75.0
241,73.525390625,74.388671875,59.0,112.0
242,73.994140625,74.41015625,56.0,122.0
243,74.228515625,74.42578125,53.0,92.0
244,74.697265625,75.0390625,54.0,78.0
245,74.931640625,75.21875,58.0,40.0
246,75.166015625,75.5234375,54.0,85.0
247,74.462890625,75.529296875,42.0,79.0
248,75.400390625,75.955078125,61.0,127.0
249,75.869140625,76.158203125,54.0,122.0
250,76.103515625,76.1953125,61.0,38.0
251,75.634765625,76.234375,42.0,102.0
252,76.103515625,76.263671875,58.0,73.0
253,76.337890625,77.150390625,61.0,122.0
254,76.337890625,77.1640625,58.0,127.0
255,76.337890625,77.1796875,54.0,102.0
256,76.337890625,77.3984375,42.0,112.0
257,77.275390625,77.814453125,58.0,127.0
258,77.509765625,77.87890625,42.0,97.0
259,77.744140625,78.033203125,54.0,127.0
260,77.275390625,78.193359375,61.0,127.0
261,77.978515625,78.2265625,58.0,127.0
262,78.916015625,79.068359375,56.0,81.0
263,78.916015625,79.080078125,59.0,63.0
264,78.916015625,79.08984375,64.0,69.0
265,78.681640625,79.25,52.0,99.0
266,79.150390625,79.408203125,56.0,127.0
267,78.212890625,79.642578125,40.0,122.0
268,79.150390625,79.681640625,59.0,112.0
269,79.384765625,79.6875,52.0,102.0
270,78.447265625,79.71875,47.0,102.0
271,79.619140625,80.056640625,56.0,117.0
272,79.853515625,80.072265625,59.0,90.0
273,79.150390625,80.08203125,64.0,99.0
274,80.791015625,80.93359375,58.0,96.0
275,80.791015625,80.94140625,61.0,117.0
276,80.791015625,80.9453125,66.0,100.0
277,80.556640625,81.072265625,54.0,93.0
278,80.322265625,81.32421875,49.0,59.0
279,80.087890625,81.341796875,42.0,90.0
280,81.259765625,81.478515625,54.0,102.0
281,81.025390625,81.513671875,61.0,127.0
282,81.494140625,81.849609375,58.0,127.0
283,81.025390625,81.900390625,66.0,122.0
284,81.728515625,81.9921875,61.0,127.0
285,81.962890625,82.533203125,47.0,122.0
286,82.197265625,82.611328125,59.0,95.0
287,82.431640625,82.85546875,66.0,127.0
288,82.666015625,83.015625,63.0,122.0
289,83.134765625,83.46484375,58.0,95.0
290,82.900390625,83.78515625,46.0,122.0
291,83.369140625,83.796875,66.0,112.0
292,83.603515625,83.86328125,58.0,107.0
293,84.306640625,84.74609375,59.0,86.0
294,84.072265625,84.849609375,56.0,78.0
295,85.009765625,85.18359375,56.0,99.0
296,83.837890625,85.244140625,44.0,88.0
297,84.775390625,85.357421875,63.0,100.0
298,85.478515625,85.693359375,63.0,112.0
299,84.541015625,85.6953125,68.0,127.0
300,85.244140625,85.892578125,59.0,97.0
301,86.181640625,86.732421875,52.0,93.0
302,85.712890625,86.98046875,40.0,95.0
303,85.947265625,87.005859375,47.0,67.0
304,86.416015625,87.083984375,59.0,89.0
305,86.884765625,87.126953125,52.0,107.0
306,87.119140625,87.44921875,64.0,99.0
307,86.650390625,87.48828125,68.0,127.0
308,87.353515625,87.607421875,59.0,107.0
309,87.822265625,88.140625,54.0,93.0
310,88.056640625,88.3046875,58.0,102.0
311,88.291015625,88.6171875,54.0,100.0
312,87.587890625,88.68359375,42.0,112.0
313,88.525390625,89.001953125,58.0,112.0
314,88.759765625,89.048828125,42.0,102.0
315,88.994140625,89.279296875,54.0,117.0
316,88.525390625,89.341796875,61.0,127.0
317,89.228515625,89.369140625,58.0,127.0
318,89.697265625,90.033203125,47.0,78.0
319,89.931640625,90.373046875,54.0,122.0
320,90.166015625,90.3828125,47.0,93.0
321,89.462890625,90.400390625,35.0,99.0
322,90.634765625,90.97265625,49.0,72.0
323,90.400390625,91.001953125,37.0,102.0
324,90.869140625,91.302734375,56.0,96.0
325,91.103515625,91.310546875,49.0,95.0
326,91.572265625,92.310546875,51.0,89.0
327,91.806640625,92.443359375,54.0,96.0
328,92.041015625,92.640625,58.0,89.0
329,91.337890625,92.708984375,39.0,107.0
330,92.509765625,92.76171875,51.0,95.0
331,92.744140625,93.1796875,54.0,117.0
332,92.275390625,93.1875,63.0,117.0
333,92.978515625,93.203125,58.0,99.0
334,93.681640625,93.9609375,52.0,96.0
335,93.916015625,94.14453125,56.0,99.0
336,93.447265625,94.271484375,47.0,86.0
337,93.212890625,94.62109375,40.0,93.0
338,94.384765625,94.658203125,47.0,96.0
339,94.853515625,95.05859375,52.0,96.0
340,94.619140625,95.080078125,56.0,112.0
341,94.150390625,95.09375,59.0,99.0
342,95.791015625,95.953125,66.0,82.0
343,95.791015625,95.955078125,61.0,93.0
344,95.791015625,95.966796875,58.0,97.0
345,95.556640625,96.115234375,54.0,97.0
346,96.025390625,96.181640625,58.0,81.0
347,96.025390625,96.44140625,61.0,122.0
348,95.087890625,96.458984375,42.0,90.0
349,95.322265625,96.470703125,49.0,92.0
350,96.259765625,96.48828125,54.0,96.0
351,96.494140625,96.81640625,58.0,127.0
352,96.025390625,96.916015625,66.0,127.0
353,96.728515625,97.03515625,61.0,127.0
354,97.197265625,97.21484375,57.0,81.0
355,96.962890625,97.591796875,47.0,117.0
356,97.197265625,97.591796875,59.0,88.0
357,97.431640625,97.900390625,66.0,127.0
358,97.666015625,98.005859375,63.0,122.0
359,98.134765625,98.46484375,58.0,90.0
360,98.369140625,98.70703125,66.0,127.0
361,97.900390625,98.75390625,46.0,107.0
362,98.603515625,98.880859375,58.0,112.0
363,99.072265625,99.396484375,56.0,89.0
364,99.306640625,99.59765625,59.0,73.0
365,98.837890625,99.75,44.0,112.0
366,99.541015625,99.845703125,56.0,96.0
367,100.009765625,100.310546875,56.0,100.0
368,100.244140625,100.580078125,59.0,85.0
369,99.775390625,100.658203125,63.0,127.0
370,100.478515625,100.705078125,56.0,97.0
371,101.416015625,101.591796875,57.0,83.0
372,101.416015625,101.595703125,61.0,96.0
373,101.181640625,101.8046875,45.0,82.0
374,100.947265625,102.005859375,40.0,86.0
375,100.712890625,102.0234375,33.0,93.0
376,101.884765625,102.10546875,45.0,93.0
377,101.650390625,102.236328125,57.0,99.0
378,102.119140625,102.54296875,52.0,93.0
379,101.650390625,102.599609375,61.0,112.0
380,102.353515625,102.640625,57.0,67.0
381,103.056640625,103.6171875,54.0,93.0
382,103.291015625,103.638671875,58.0,99.0
383,103.759765625,103.98046875,54.0,86.0
384,102.822265625,104.015625,49.0,89.0
385,102.587890625,104.08984375,42.0,96.0
386,103.525390625,104.43359375,68.0,102.0
387,104.228515625,104.439453125,61.0,62.0
388,103.994140625,104.462890625,58.0,75.0
389,104.462890625,106.201171875,40.0,90.0
390,104.931640625,106.365234375,47.0,55.0
391,105.166015625,106.931640625,64.0,70.0
392,105.869140625,107.19140625,56.0,52.0
393,106.337890625,108.041015625,40.0,82.0
394,106.572265625,108.220703125,47.0,38.0
395,106.806640625,108.248046875,52.0,83.0
396,107.041015625,108.779296875,64.0,72.0
397,107.978515625,108.869140625,56.0,47.0
398,107.744140625,108.90625,59.0,43.0
399,108.916015625,109.009765625,56.0,34.0
400,108.681640625,109.62109375,47.0,57.0
401,108.212890625,109.62890625,40.0,56.0
402,108.916015625,110.109375,64.0,72.0
403,109.853515625,110.1640625,59.0,65.0
404,109.619140625,110.166015625,56.0,66.0
405,110.556640625,111.083984375,51.0,59.0
406,110.087890625,111.8203125,39.0,78.0
407,110.322265625,111.96875,46.0,51.0
408,111.259765625,111.998046875,51.0,38.0
409,110.791015625,112.580078125,63.0,90.0
410,111.494140625,112.638671875,58.0,58.0
411,111.728515625,112.9765625,54.0,76.0
412,112.431640625,112.99609375,51.0,42.0
413,111.962890625,113.30859375,39.0,59.0
414,113.134765625,113.36328125,51.0,96.0
415,113.369140625,113.650390625,54.0,107.0
416,113.603515625,113.837890625,58.0,127.0
417,112.900390625,113.84375,63.0,117.0
418,114.306640625,114.564453125,57.0,96.0
419,114.072265625,114.859375,52.0,92.0
420,115.009765625,115.23828125,52.0,65.0
421,113.837890625,115.271484375,45.0,107.0
422,114.541015625,115.67578125,64.0,112.0
423,115.244140625,115.697265625,61.0,88.0
424,115.478515625,115.728515625,57.0,74.0
425,116.181640625,116.671875,56.0,72.0
426,115.947265625,117.0390625,51.0,60.0
427,116.884765625,117.041015625,56.0,85.0
428,115.712890625,117.0859375,44.0,89.0
429,116.416015625,117.603515625,68.0,112.0
430,117.119140625,117.61328125,63.0,96.0
431,117.353515625,117.6328125,59.0,65.0
432,118.291015625,118.560546875,58.0,100.0
433,118.056640625,118.564453125,54.0,93.0
434,118.759765625,118.98828125,54.0,86.0
435,118.525390625,119.07421875,61.0,112.0
436,117.822265625,119.119140625,49.0,38.0
437,119.228515625,119.373046875,61.0,95.0
438,118.994140625,119.37890625,58.0,112.0
439,117.587890625,119.3984375,42.0,83.0
440,119.462890625,120.244140625,61.0,97.0
441,119.462890625,120.3125,58.0,83.0
442,119.462890625,120.3203125,54.0,97.0
443,119.462890625,120.529296875,42.0,73.0
444,120.869140625,121.16015625,54.0,86.0
445,120.634765625,121.330078125,42.0,89.0
446,121.103515625,121.341796875,58.0,50.0
447,120.400390625,121.375,61.0,112.0
448,121.806640625,122.36328125,59.0,85.0
449,121.572265625,122.634765625,54.0,78.0
450,121.337890625,122.794921875,47.0,83.0
451,122.978515625,123.220703125,59.0,40.0
452,122.744140625,123.2734375,63.0,34.0
453,122.041015625,123.302734375,66.0,97.0
454,123.212890625,124.486328125,45.0,75.0
455,123.681640625,124.505859375,52.0,59.0
456,123.916015625,125.0625,64.0,89.0
457,124.853515625,125.1171875,57.0,61.0
458,124.619140625,125.154296875,61.0,57.0
459,125.556640625,126.263671875,51.0,34.0
460,126.025390625,126.279296875,56.0,47.0
461,125.087890625,126.34375,44.0,82.0
462,126.025390625,126.935546875,68.0,88.0
463,126.025390625,126.9609375,63.0,65.0
464,126.494140625,126.966796875,59.0,54.0
465,127.431640625,127.91796875,54.0,78.0
466,127.666015625,127.9609375,58.0,82.0
467,127.197265625,127.994140625,49.0,44.0
468,128.134765625,128.4140625,49.0,38.0
469,126.962890625,128.509765625,42.0,81.0
470,128.369140625,128.794921875,58.0,74.0
471,127.900390625,128.830078125,61.0,107.0
472,129.306640625,129.98828125,49.0,79.0
473,128.837890625,130.29296875,37.0,88.0
474,129.541015625,130.654296875,61.0,44.0
475,130.244140625,130.681640625,52.0,75.0
476,129.541015625,130.759765625,56.0,76.0
477,131.181640625,131.7890625,51.0,58.0
478,130.712890625,132.03515625,39.0,93.0
479,131.884765625,132.068359375,51.0,60.0
480,131.650390625,132.544921875,63.0,86.0
481,131.650390625,132.56640625,58.0,82.0
482,132.119140625,132.568359375,54.0,75.0
483,132.587890625,133.544921875,40.0,86.0
484,133.525390625,134.041015625,42.0,72.0
485,133.525390625,134.4140625,54.0,73.0
486,133.525390625,134.435546875,58.0,76.0
487,133.525390625,134.447265625,61.0,72.0
488,134.931640625,135.533203125,54.0,71.0
489,134.462890625,136.21484375,47.0,78.0
490,135.634765625,136.37109375,54.0,62.0
491,135.869140625,137.1953125,63.0,86.0
492,135.400390625,137.20703125,66.0,100.0
493,136.103515625,137.23046875,59.0,73.0
494,136.806640625,137.349609375,54.0,33.0
495,137.509765625,137.681640625,54.0,89.0
496,136.337890625,137.771484375,47.0,73.0
497,137.275390625,138.20703125,66.0,97.0
498,137.275390625,138.224609375,63.0,96.0
499,137.744140625,138.26953125,59.0,86.0
500,138.681640625,139.205078125,52.0,89.0
501,138.916015625,139.400390625,59.0,79.0
502,138.212890625,139.759765625,40.0,93.0
503,139.384765625,139.830078125,52.0,85.0
504,139.150390625,139.93359375,68.0,127.0
505,139.619140625,139.939453125,64.0,82.0
506,138.447265625,139.9765625,47.0,82.0
507,139.853515625,140.03515625,59.0,93.0
508,140.556640625,140.93359375,58.0,63.0
509,140.087890625,141.041015625,42.0,97.0
510,141.025390625,141.1953125,51.0,73.0
511,141.025390625,141.66796875,43.0,75.0
512,141.025390625,141.94140625,55.0,60.0
513,141.025390625,141.9609375,58.0,68.0
514,142.431640625,142.931640625,56.0,82.0
515,142.666015625,143.1484375,59.0,67.0
516,143.134765625,143.4375,56.0,96.0
517,141.962890625,143.62109375,44.0,83.0
518,142.900390625,143.69140625,68.0,97.0
519,143.369140625,143.732421875,63.0,112.0
520,143.603515625,143.828125,59.0,90.0
521,144.072265625,144.408203125,54.0,75.0
522,144.306640625,144.693359375,58.0,102.0
523,144.541015625,144.884765625,54.0,89.0
524,143.837890625,145.203125,46.0,95.0
525,145.009765625,145.29296875,54.0,89.0
526,144.775390625,145.673828125,61.0,127.0
527,145.244140625,145.685546875,58.0,99.0
528,145.478515625,145.7421875,54.0,93.0
529,146.181640625,146.73046875,52.0,93.0
530,146.416015625,146.759765625,56.0,83.0
531,146.884765625,147.25,52.0,95.0
532,145.712890625,147.474609375,40.0,83.0
533,146.650390625,147.515625,64.0,75.0
534,145.947265625,147.517578125,47.0,52.0
535,147.353515625,147.548828125,59.0,62.0
536,147.119140625,147.623046875,56.0,95.0
537,147.822265625,148.15234375,51.0,65.0
538,148.056640625,148.3671875,55.0,77.0
539,148.291015625,148.69921875,51.0,83.0
540,147.587890625,148.869140625,43.0,72.0
541,148.759765625,149.05078125,51.0,75.0
542,148.994140625,149.392578125,55.0,68.0
543,149.228515625,149.4296875,51.0,112.0
544,148.525390625,149.435546875,58.0,112.0
545,149.931640625,150.5,44.0,85.0
546,150.166015625,150.66015625,47.0,82.0
547,149.462890625,151.169921875,32.0,92.0
548,149.697265625,151.29296875,39.0,54.0
549,150.634765625,151.37109375,44.0,88.0
550,151.103515625,151.89453125,47.0,88.0
551,150.869140625,151.9609375,51.0,82.0
552,150.400390625,152.0234375,56.0,97.0
553,152.041015625,152.08984375,56.0,34.0
554,151.572265625,152.142578125,39.0,58.0
555,151.806640625,152.14453125,44.0,85.0
556,151.337890625,152.162109375,32.0,70.0
557,152.041015625,152.216796875,47.0,92.0
558,152.275390625,153.169921875,34.0,92.0
559,153.681640625,154.169921875,49.0,79.0
560,153.916015625,154.51953125,52.0,78.0
561,153.447265625,154.5625,44.0,38.0
562,153.212890625,154.58203125,37.0,89.0
563,154.384765625,154.998046875,49.0,81.0
564,154.619140625,155.068359375,56.0,92.0
565,154.853515625,155.08203125,52.0,89.0
566,154.150390625,155.083984375,61.0,100.0
567,155.322265625,156.1328125,51.0,77.0
568,155.791015625,156.13671875,58.0,79.0
569,155.556640625,156.15625,54.0,76.0
570,156.259765625,156.458984375,51.0,76.0
571,155.087890625,156.49609375,39.0,96.0
572,156.025390625,156.951171875,63.0,112.0
573,156.494140625,156.96484375,54.0,99.0
574,156.728515625,156.974609375,58.0,86.0
575,157.431640625,157.6953125,52.0,93.0
576,157.666015625,157.958984375,56.0,95.0
577,157.197265625,158.01953125,47.0,76.0
578,158.134765625,158.326171875,47.0,81.0
579,156.962890625,158.3515625,40.0,90.0
580,157.900390625,158.748046875,59.0,107.0
581,158.603515625,158.78515625,52.0,93.0
582,158.369140625,158.7890625,56.0,112.0
583,159.072265625,159.84765625,51.0,95.0
584,159.306640625,159.865234375,54.0,74.0
585,159.541015625,159.873046875,58.0,72.0
586,158.837890625,160.19140625,39.0,93.0
587,160.009765625,160.248046875,51.0,93.0
588,159.775390625,160.626953125,63.0,107.0
589,160.478515625,160.65234375,58.0,61.0
590,160.244140625,160.708984375,54.0,97.0
591,160.947265625,161.265625,53.0,77.0
592,161.181640625,161.6015625,56.0,82.0
593,161.416015625,161.775390625,53.0,71.0
594,161.884765625,162.1875,53.0,69.0
595,160.712890625,162.4765625,41.0,88.0
596,162.353515625,162.677734375,53.0,69.0
597,162.119140625,162.7109375,56.0,88.0
598,161.650390625,162.861328125,59.0,102.0
599,162.822265625,163.17578125,53.0,55.0
600,163.056640625,163.40234375,56.0,65.0
601,163.291015625,163.646484375,53.0,72.0
602,162.587890625,163.81640625,41.0,69.0
603,163.759765625,164.052734375,53.0,75.0
604,163.525390625,164.388671875,59.0,112.0
605,163.994140625,164.41015625,56.0,122.0
606,164.228515625,164.42578125,53.0,92.0
607,164.697265625,165.0390625,54.0,78.0
608,164.931640625,165.21875,58.0,40.0
609,165.166015625,165.5234375,54.0,85.0
610,164.462890625,165.529296875,42.0,79.0
611,165.400390625,165.955078125,61.0,127.0
612,165.869140625,166.158203125,54.0,122.0
613,166.103515625,166.1953125,61.0,38.0
614,165.634765625,166.234375,42.0,102.0
615,166.103515625,166.263671875,58.0,73.0
616,166.337890625,167.150390625,61.0,122.0
617,166.337890625,167.1640625,58.0,127.0
618,166.337890625,167.1796875,54.0,102.0
619,166.337890625,167.3984375,42.0,112.0
620,167.275390625,167.814453125,58.0,127.0
621,167.509765625,167.87890625,42.0,97.0
622,167.744140625,168.033203125,54.0,127.0
623,167.275390625,168.193359375,61.0,127.0
624,167.978515625,168.2265625,58.0,127.0
625,168.916015625,169.068359375,56.0,81.0
626,168.916015625,169.080078125,59.0,63.0
627,168.916015625,169.08984375,64.0,69.0
628,168.681640625,169.25,52.0,99.0
629,169.150390625,169.408203125,56.0,127.0
630,168.212890625,169.642578125,40.0,122.0
631,169.150390625,169.681640625,59.0,112.0
632,169.384765625,169.6875,52.0,102.0
633,168.447265625,169.71875,47.0,102.0
634,169.619140625,170.056640625,56.0,117.0
635,169.853515625,170.072265625,59.0,90.0
636,169.150390625,170.08203125,64.0,99.0
637,170.791015625,170.93359375,58.0,96.0
638,170.791015625,170.94140625,61.0,117.0
639,170.791015625,170.9453125,66.0,100.0
640,170.556640625,171.072265625,54.0,93.0
641,170.322265625,171.32421875,49.0,59.0
642,170.087890625,171.341796875,42.0,90.0
643,171.259765625,171.478515625,54.0,102.0
644,171.025390625,171.513671875,61.0,127.0
645,171.494140625,171.849609375,58.0,127.0
646,171.025390625,171.900390625,66.0,122.0
647,171.728515625,171.9921875,61.0,127.0
648,171.962890625,172.533203125,47.0,122.0
649,172.197265625,172.611328125,59.0,95.0
650,172.431640625,172.85546875,66.0,127.0
651,172.666015625,173.015625,63.0,122.0
652,173.134765625,173.46484375,58.0,95.0
653,172.900390625,173.78515625,46.0,122.0
654,173.369140625,173.796875,66.0,112.0
655,173.603515625,173.86328125,58.0,107.0
656,174.306640625,174.74609375,59.0,86.0
657,174.072265625,174.849609375,56.0,78.0
658,175.009765625,175.18359375,56.0,99.0
659,173.837890625,175.244140625,44.0,88.0
660,174.775390625,175.357421875,63.0,100.0
661,175.478515625,175.693359375,63.0,112.0
662,174.541015625,175.6953125,68.0,127.0
663,175.244140625,175.892578125,59.0,97.0
664,176.181640625,176.732421875,52.0,93.0
665,175.712890625,176.98046875,40.0,95.0
666,175.947265625,177.005859375,47.0,67.0
667,176.416015625,177.083984375,59.0,89.0
668,176.884765625,177.126953125,52.0,107.0
669,177.119140625,177.44921875,64.0,99.0
670,176.650390625,177.48828125,68.0,127.0
671,177.353515625,177.607421875,59.0,107.0
672,177.822265625,178.140625,54.0,93.0
673,178.056640625,178.3046875,58.0,102.0
674,178.291015625,178.6171875,54.0,100.0
675,177.587890625,178.68359375,42.0,112.0
676,178.525390625,179.001953125,58.0,112.0
677,178.759765625,179.048828125,42.0,102.0
678,178.994140625,179.279296875,54.0,117.0
679,178.525390625,179.341796875,61.0,127.0
680,179.228515625,179.369140625,58.0,127.0
681,179.697265625,180.033203125,47.0,78.0
682,179.931640625,180.373046875,54.0,122.0
683,180.166015625,180.3828125,47.0,93.0
684,179.462890625,180.400390625,35.0,99.0
685,180.634765625,180.97265625,49.0,72.0
686,180.400390625,181.001953125,37.0,102.0
687,180.869140625,181.302734375,56.0,96.0
688,181.103515625,181.310546875,49.0,95.0
689,181.572265625,182.310546875,51.0,89.0
690,181.806640625,182.443359375,54.0,96.0
691,182.041015625,182.640625,58.0,89.0
692,181.337890625,182.708984375,39.0,107.0
693,182.509765625,182.76171875,51.0,95.0
694,182.744140625,183.1796875,54.0,117.0
695,182.275390625,183.1875,63.0,117.0
696,182.978515625,183.203125,58.0,99.0
697,183.681640625,183.9609375,52.0,96.0
698,183.916015625,184.14453125,56.0,99.0
699,183.447265625,184.271484375,47.0,86.0
700,183.212890625,184.62109375,40.0,93.0
701,184.384765625,184.658203125,47.0,96.0
702,184.853515625,185.05859375,52.0,96.0
703,184.619140625,185.080078125,56.0,112.0
704,184.150390625,185.09375,59.0,99.0
705,185.791015625,185.953125,66.0,82.0
706,185.791015625,185.955078125,61.0,93.0
707,185.791015625,185.966796875,58.0,97.0
708,185.556640625,186.115234375,54.0,97.0
709,186.025390625,186.181640625,58.0,81.0
710,186.025390625,186.44140625,61.0,122.0
711,185.087890625,186.458984375,42.0,90.0
712,185.322265625,186.470703125,49.0,92.0
713,186.259765625,186.48828125,54.0,96.0
714,186.494140625,186.81640625,58.0,127.0
715,186.025390625,186.916015625,66.0,127.0
716,186.728515625,187.03515625,61.0,127.0
717,187.197265625,187.21484375,57.0,81.0
718,186.962890625,187.591796875,47.0,117.0
719,187.197265625,187.591796875,59.0,88.0
720,187.431640625,187.900390625,66.0,127.0
721,187.666015625,188.005859375,63.0,122.0
722,188.134765625,188.46484375,58.0,90.0
723,188.369140625,188.70703125,66.0,127.0
724,187.900390625,188.75390625,46.0,107.0
725,188.603515625,188.880859375,58.0,112.0
726,189.072265625,189.396484375,56.0,89.0
727,189.306640625,189.59765625,59.0,73.0
728,188.837890625,189.75,44.0,112.0
729,189.541015625,189.845703125,56.0,96.0
730,190.009765625,190.310546875,56.0,100.0
731,190.244140625,190.580078125,59.0,85.0
732,189.775390625,190.658203125,63.0,127.0
733,190.478515625,190.705078125,56.0,97.0
734,191.416015625,191.591796875,57.0,83.0
735,191.416015625,191.595703125,61.0,96.0
736,191.181640625,191.8046875,45.0,82.0
737,190.947265625,192.005859375,40.0,86.0
738,190.712890625,192.0234375,33.0,93.0
739,191.884765625,192.10546875,45.0,93.0
740,191.650390625,192.236328125,57.0,99.0
741,192.119140625,192.54296875,52.0,93.0
742,191.650390625,192.599609375,61.0,112.0
743,192.353515625,192.640625,57.0,67.0
744,193.056640625,193.6171875,54.0,93.0
745,193.291015625,193.638671875,58.0,99.0
746,193.759765625,193.98046875,54.0,86.0
747,192.822265625,194.015625,49.0,89.0
748,192.587890625,194.08984375,42.0,96.0
749,193.525390625,194.43359375,68.0,102.0
750,194.228515625,194.439453125,61.0,62.0
751,193.994140625,194.462890625,58.0,75.0
752,194.931640625,195.4921875,56.0,83.0
753,195.166015625,195.8046875,59.0,66.0
754,195.634765625,195.859375,56.0,85.0
755,194.697265625,195.87109375,51.0,32.0
756,194.462890625,196.017578125,44.0,107.0
757,196.103515625,196.142578125,46.0,27.0
758,195.869140625,196.23828125,63.0,107.0
759,195.400390625,196.2421875,68.0,127.0
760,196.103515625,196.31640625,59.0,82.0
761,196.572265625,196.904296875,54.0,92.0
762,196.806640625,197.19921875,58.0,96.0
763,197.041015625,197.361328125,54.0,92.0
764,196.337890625,197.7578125,46.0,112.0
765,197.509765625,197.806640625,54.0,93.0
766,197.744140625,198.177734375,58.0,99.0
767,197.275390625,198.1875,61.0,127.0
768,197.978515625,198.203125,54.0,99.0
769,198.681640625,198.9765625,59.0,95.0
770,198.916015625,199.220703125,63.0,127.0
771,198.447265625,199.2265625,54.0,100.0
772,199.619140625,199.76953125,63.0,112.0
773,199.150390625,199.787109375,66.0,127.0
774,198.212890625,199.970703125,47.0,96.0
775,199.853515625,199.982421875,66.0,107.0
776,199.853515625,200.001953125,63.0,117.0
777,199.853515625,200.005859375,59.0,112.0
778,199.384765625,200.146484375,54.0,107.0
779,200.087890625,200.6953125,66.0,100.0
780,200.087890625,200.703125,63.0,97.0
781,200.087890625,200.712890625,59.0,93.0
782,200.791015625,200.935546875,59.0,66.0
783,200.791015625,200.939453125,66.0,93.0
784,200.791015625,200.94140625,63.0,78.0
785,200.556640625,201.14453125,54.0,107.0
786,201.025390625,201.29296875,59.0,93.0
787,201.259765625,201.455078125,54.0,122.0
788,200.087890625,201.498046875,47.0,95.0
789,201.025390625,201.544921875,63.0,127.0
790,201.025390625,201.544921875,66.0,127.0
791,201.494140625,201.8125,59.0,122.0
792,201.728515625,201.83203125,64.0,74.0
793,201.962890625,202.576171875,61.0,127.0
794,201.962890625,202.6015625,64.0,99.0
795,201.962890625,202.626953125,57.0,127.0
796,202.666015625,202.751953125,64.0,52.0
797,202.666015625,202.75390625,61.0,50.0
798,202.666015625,202.7578125,57.0,39.0
799,202.431640625,202.990234375,52.0,100.0
800,202.900390625,203.501953125,61.0,127.0
801,201.962890625,203.720703125,45.0,100.0
802,203.134765625,203.826171875,52.0,95.0
803,203.369140625,203.841796875,57.0,99.0
804,203.603515625,203.849609375,61.0,127.0
805,202.900390625,203.8828125,64.0,107.0
806,204.541015625,204.6953125,73.0,117.0
807,204.541015625,204.703125,69.0,99.0
808,204.306640625,204.861328125,57.0,102.0
809,203.837890625,205.134765625,45.0,95.0
810,205.009765625,205.173828125,57.0,99.0
811,204.072265625,205.1875,52.0,99.0
812,204.775390625,205.326171875,73.0,122.0
813,204.775390625,205.39453125,69.0,107.0
814,205.478515625,205.7109375,69.0,93.0
815,205.478515625,205.712890625,73.0,127.0
816,205.244140625,205.759765625,64.0,117.0
817,206.416015625,206.54296875,68.0,86.0
818,206.416015625,206.548828125,59.0,86.0
819,206.416015625,206.548828125,63.0,102.0
820,206.181640625,206.732421875,56.0,95.0
821,206.650390625,206.94140625,59.0,88.0
822,206.650390625,207.208984375,68.0,122.0
823,206.650390625,207.224609375,63.0,127.0
824,205.712890625,207.533203125,44.0,93.0
825,206.884765625,207.666015625,56.0,97.0
826,205.947265625,207.69140625,51.0,86.0
827,207.119140625,208.130859375,59.0,76.0
828,207.353515625,208.1796875,68.0,127.0
829,207.353515625,208.36328125,63.0,127.0
830,208.056640625,208.576171875,56.0,107.0
831,208.291015625,208.61328125,59.0,93.0
832,207.822265625,209.009765625,51.0,40.0
833,208.759765625,209.009765625,56.0,112.0
834,207.587890625,209.021484375,44.0,82.0
835,208.525390625,209.052734375,63.0,112.0
836,208.525390625,209.4375,68.0,127.0
837,209.228515625,209.455078125,63.0,122.0
838,208.994140625,209.4609375,59.0,112.0
839,210.166015625,210.32421875,67.0,78.0
840,210.166015625,210.333984375,62.0,75.0
841,209.931640625,210.5234375,55.0,86.0
842,210.634765625,210.919921875,55.0,96.0
843,210.400390625,210.970703125,62.0,122.0
844,210.400390625,210.98046875,67.0,117.0
845,209.462890625,211.24609375,43.0,92.0
846,209.697265625,211.419921875,50.0,86.0
847,210.869140625,211.873046875,59.0,89.0
848,211.103515625,211.900390625,62.0,100.0
849,211.103515625,211.927734375,67.0,100.0
850,212.041015625,212.13671875,62.0,55.0
851,212.041015625,212.16015625,67.0,36.0
852,212.041015625,212.234375,59.0,95.0
853,211.806640625,212.376953125,55.0,102.0
854,211.337890625,212.599609375,43.0,89.0
855,211.572265625,212.640625,50.0,92.0
856,212.509765625,212.640625,55.0,112.0
857,212.275390625,212.7734375,62.0,122.0
858,212.275390625,212.791015625,67.0,122.0
859,212.744140625,212.984375,59.0,117.0
860,213.212890625,213.595703125,61.0,100.0
861,213.212890625,213.6015625,58.0,112.0
862,213.212890625,213.607421875,54.0,107.0
863,213.212890625,213.6328125,42.0,127.0
864,213.681640625,214.0625,58.0,107.0
865,213.681640625,214.06640625,61.0,99.0
866,213.681640625,214.07421875,42.0,83.0
867,213.681640625,214.076171875,54.0,102.0
868,214.150390625,214.46875,54.0,107.0
869,214.150390625,214.48828125,61.0,107.0
870,214.150390625,214.490234375,58.0,107.0
871,214.150390625,214.515625,42.0,79.0
872,214.619140625,214.978515625,42.0,117.0
873,214.619140625,214.986328125,61.0,112.0
874,214.619140625,214.9921875,54.0,112.0
875,214.619140625,214.998046875,58.0,112.0
876,215.087890625,215.216796875,42.0,122.0
877,215.087890625,215.228515625,61.0,102.0
878,215.087890625,215.232421875,58.0,117.0
879,215.087890625,215.25,54.0,100.0
880,215.322265625,216.603515625,54.0,99.0
881,215.322265625,216.623046875,61.0,96.0
882,215.322265625,216.63671875,58.0,92.0
883,215.322265625,216.66796875,42.0,117.0
884,216.962890625,217.529296875,59.0,88.0
885,216.962890625,217.56640625,64.0,97.0
886,216.962890625,217.58203125,68.0,107.0
887,217.431640625,218.037109375,52.0,102.0
888,217.666015625,218.205078125,59.0,92.0
889,216.962890625,218.353515625,40.0,99.0
890,217.197265625,218.451171875,47.0,92.0
891,218.134765625,218.53125,52.0,99.0
892,218.369140625,218.849609375,64.0,85.0
893,217.900390625,218.8671875,68.0,127.0
894,218.603515625,218.896484375,59.0,107.0
895,219.541015625,219.69140625,58.0,93.0
896,219.541015625,219.69140625,61.0,99.0
897,219.541015625,219.69140625,66.0,93.0
898,219.306640625,219.84375,54.0,93.0
899,219.072265625,220.115234375,49.0,93.0
900,220.009765625,220.21484375,54.0,102.0
901,219.775390625,220.314453125,61.0,117.0
902,218.837890625,220.35546875,42.0,100.0
903,220.244140625,220.59765625,58.0,117.0
904,219.775390625,220.70703125,66.0,112.0
905,220.478515625,220.763671875,61.0,107.0
906,220.712890625,221.568359375,47.0,127.0
907,220.947265625,221.640625,59.0,100.0
908,221.181640625,221.671875,66.0,127.0
909,221.416015625,221.853515625,63.0,127.0
910,222.353515625,222.55078125,66.0,102.0
911,221.650390625,222.55859375,46.0,102.0
912,222.119140625,222.662109375,58.0,102.0
913,222.822265625,223.13671875,56.0,73.0
914,223.056640625,223.421875,59.0,58.0
915,223.291015625,223.638671875,56.0,92.0
916,222.587890625,223.775390625,44.0,112.0
917,223.759765625,224.0546875,56.0,72.0
918,224.228515625,224.447265625,56.0,93.0
919,223.994140625,224.44921875,59.0,73.0
920,223.525390625,224.458984375,63.0,122.0
921,224.931640625,225.51171875,52.0,96.0
922,225.166015625,225.732421875,59.0,82.0
923,224.462890625,225.76953125,40.0,85.0
924,224.697265625,225.810546875,47.0,83.0
925,225.634765625,225.916015625,52.0,96.0
926,225.869140625,226.3203125,64.0,96.0
927,225.400390625,226.34375,68.0,127.0
928,226.103515625,226.3984375,59.0,97.0
929,226.806640625,227.3671875,54.0,95.0
930,227.041015625,227.384765625,58.0,96.0
931,226.572265625,227.73828125,49.0,63.0
932,227.509765625,227.7734375,54.0,107.0
933,227.275390625,227.8125,61.0,122.0
934,226.337890625,227.873046875,42.0,79.0
935,227.744140625,228.14453125,58.0,122.0
936,227.275390625,228.15234375,66.0,127.0
937,227.978515625,228.1875,61.0,117.0
938,228.447265625,228.9765625,47.0,79.0
939,228.212890625,229.087890625,35.0,95.0
940,228.681640625,229.14453125,54.0,107.0
941,228.916015625,229.244140625,51.0,93.0
942,229.384765625,229.7109375,49.0,86.0
943,229.619140625,230.0390625,56.0,93.0
944,229.150390625,230.0859375,37.0,107.0
945,229.853515625,230.0859375,49.0,86.0
946,230.322265625,230.630859375,51.0,52.0
947,230.556640625,230.74609375,54.0,73.0
948,230.791015625,231.12890625,51.0,78.0
949,230.087890625,231.16015625,39.0,112.0
950,231.259765625,231.5390625,39.0,97.0
951,231.025390625,231.576171875,58.0,122.0
952,231.025390625,231.587890625,54.0,122.0
953,231.494140625,231.89453125,51.0,112.0
954,231.728515625,231.908203125,54.0,127.0
955,231.728515625,231.951171875,58.0,127.0
956,232.666015625,232.71875,64.0,39.0
957,232.431640625,232.982421875,52.0,95.0
958,232.666015625,233.154296875,59.0,85.0
959,231.962890625,233.291015625,40.0,96.0
960,232.197265625,233.341796875,47.0,92.0
961,233.134765625,233.42578125,52.0,102.0
962,232.900390625,233.455078125,68.0,122.0
963,232.900390625,233.46484375,64.0,100.0
964,233.603515625,233.619140625,63.0,43.0
965,233.603515625,233.87109375,64.0,96.0
966,233.603515625,233.880859375,68.0,102.0
967,233.369140625,233.884765625,59.0,107.0
968,234.541015625,234.693359375,66.0,75.0
969,234.541015625,234.6953125,61.0,96.0
970,234.541015625,234.708984375,58.0,95.0
971,234.306640625,234.859375,54.0,96.0
972,234.775390625,235.08203125,58.0,102.0
973,233.837890625,235.205078125,42.0,89.0
974,234.072265625,235.205078125,49.0,37.0
975,235.009765625,235.263671875,54.0,112.0
976,234.775390625,235.31640625,66.0,117.0
977,234.775390625,235.3203125,61.0,127.0
978,235.244140625,235.57421875,58.0,122.0
979,235.478515625,235.66015625,61.0,117.0
980,235.478515625,235.681640625,66.0,117.0
981,235.712890625,236.193359375,47.0,122.0
982,235.947265625,236.57421875,59.0,100.0
983,236.181640625,236.66796875,66.0,127.0
984,236.416015625,236.7734375,63.0,127.0
985,236.884765625,237.2421875,58.0,90.0
986,236.650390625,237.509765625,46.0,127.0
987,237.119140625,237.587890625,66.0,117.0
988,237.353515625,237.61328125,58.0,100.0
989,237.822265625,238.50390625,56.0,99.0
990,238.056640625,238.646484375,59.0,86.0
991,237.587890625,238.9296875,44.0,107.0
992,238.759765625,239.0,56.0,95.0
993,238.291015625,239.033203125,63.0,112.0
994,238.525390625,239.36328125,68.0,127.0
995,238.994140625,239.451171875,59.0,107.0
996,239.228515625,239.466796875,63.0,122.0
997,239.931640625,240.259765625,57.0,102.0
998,240.166015625,240.326171875,64.0,82.0
999,240.166015625,240.345703125,61.0,92.0
1000,239.697265625,240.5546875,52.0,93.0
1001,240.634765625,240.810546875,52.0,89.0
1002,239.462890625,240.849609375,45.0,93.0
1003,240.400390625,240.9609375,61.0,107.0
1004,240.400390625,241.3203125,64.0,92.0
1005,240.869140625,241.337890625,57.0,100.0
1006,241.103515625,241.337890625,61.0,99.0
1007,241.337890625,243.826171875,54.0,88.0
1008,241.337890625,243.826171875,61.0,127.0
1009,241.337890625,243.837890625,58.0,102.0
1010,241.337890625,243.8515625,66.0,112.0
1011,241.337890625,243.880859375,42.0,102.0
1012,245.556640625,246.009765625,59.0,70.0
1013,245.322265625,246.201171875,54.0,62.0
1014,245.087890625,246.84375,47.0,83.0
1015,246.259765625,246.962890625,54.0,55.0
1016,245.791015625,247.7109375,66.0,107.0
1017,246.494140625,247.796875,63.0,41.0
1018,246.728515625,248.09375,59.0,63.0
1019,248.134765625,248.38671875,54.0,40.0
1020,246.962890625,248.4609375,47.0,60.0
1021,247.900390625,248.7890625,66.0,99.0
1022,248.369140625,248.849609375,63.0,83.0
1023,248.603515625,248.85546875,59.0,68.0
1024,249.306640625,249.689453125,57.0,85.0
1025,249.072265625,249.828125,52.0,66.0
1026,248.837890625,250.521484375,45.0,72.0
1027,250.009765625,250.736328125,52.0,59.0
1028,250.244140625,250.78125,61.0,55.0
1029,250.478515625,250.783203125,57.0,61.0
1030,249.541015625,250.791015625,64.0,95.0
1031,251.181640625,252.0703125,52.0,34.0
1032,250.712890625,252.14453125,45.0,69.0
1033,251.650390625,252.5546875,69.0,73.0
1034,251.650390625,252.56640625,73.0,88.0
1035,252.119140625,252.587890625,64.0,68.0
1036,252.587890625,253.08203125,52.0,78.0
1037,252.587890625,253.193359375,59.0,77.0
1038,252.587890625,253.6953125,56.0,86.0
1039,253.525390625,253.783203125,59.0,82.0
1040,253.759765625,253.9453125,56.0,75.0
1041,252.587890625,254.056640625,44.0,97.0
1042,253.525390625,254.380859375,66.0,93.0
1043,253.525390625,254.392578125,63.0,82.0
1044,253.994140625,254.470703125,59.0,82.0
1045,254.931640625,255.265625,53.0,58.0
1046,254.462890625,255.72265625,41.0,83.0
1047,255.869140625,256.3125,53.0,83.0
1048,255.166015625,256.322265625,59.0,95.0
1049,255.166015625,256.328125,56.0,95.0
1050,256.806640625,257.3359375,54.0,90.0
1051,257.041015625,257.796875,58.0,90.0
1052,256.337890625,258.09765625,42.0,92.0
1053,256.572265625,260.40625,49.0,53.0
1054,257.509765625,260.4609375,54.0,69.0
1055,258.212890625,260.46484375,58.0,52.0
1056,257.744140625,260.46484375,61.0,75.0
1057,260.087890625,260.46484375,61.0,69.0
1058,258.212890625,260.49609375,66.0,66.0
1059,258.212890625,260.560546875,42.0,59.0
1060,260.087890625,263.330078125,57.0,75.0
1061,260.087890625,263.34375,64.0,69.0
1062,261.494140625,263.349609375,52.0,30.0
1063,260.087890625,263.3671875,45.0,79.0
1064,261.962890625,263.515625,69.0,40.0
