,start,end,pitch,velocity
0,15.985103062500002,16.2618885,67.0,76.0
1,16.223198062500003,16.676570625,76.0,80.0
2,16.699388062500002,16.9761735,74.0,78.0
3,16.9374830625,17.858117062500003,76.0,79.0
4,17.8898630625,18.0862914375,79.0,76.0
5,18.127958062500003,18.6180369375,79.0,75.0
6,18.604148062500002,18.840258937500003,74.0,70.0
7,18.842243062500003,20.1835115625,76.0,75.0
8,20.5089080625,20.690455500000002,76.0,85.0
9,20.747003062500003,20.944423500000003,74.0,75.0
10,20.9850980625,21.530732437500003,72.0,76.0
11,21.6993830625,21.871009875000002,72.0,74.0
12,21.937478062500002,22.144819125,72.0,74.0
13,22.175573062500003,22.4196204375,74.0,80.0
14,22.4136680625,22.647794812500003,72.0,75.0
15,22.651763062500002,24.144817125000003,76.0,75.0
16,24.318428062500004,24.50394375,69.0,74.0
17,24.556523062500002,24.800570437500003,72.0,80.0
18,24.794618062500003,24.978149625000004,74.0,76.0
19,25.0327130625,25.6775536875,74.0,77.0
20,25.7469980625,26.157711937500004,74.0,78.0
21,26.223188062500004,26.452354500000002,72.0,72.0
22,26.4612830625,26.944417500000004,76.0,76.0
23,26.937473062500004,27.950368875000002,79.0,76.0
24,28.127948062500003,28.313463750000004,69.0,75.0
25,28.366043062500005,28.5525508125,72.0,76.0
26,28.604138062500002,28.761876000000004,74.0,76.0
27,28.842233062500004,29.231121562500004,74.0,77.0
28,29.318423062500003,29.571399000000003,76.0,77.0
29,29.556518062500004,30.014850937500004,74.0,79.0
30,30.032708062500003,30.306517312500002,72.0,71.0
31,30.270803062500004,31.155722812500002,74.0,76.0
32,31.223183062500002,31.499968500000005,67.0,76.0
33,31.461278062500003,31.914650625000004,76.0,80.0
34,31.937468062500002,32.214253500000005,74.0,78.0
35,32.175563062500004,33.0961970625,76.0,79.0
36,33.1279430625,33.324371437500005,79.0,76.0
37,33.3660380625,33.856116937500005,79.0,75.0
38,33.842228062500006,34.07833893750001,74.0,70.0
39,34.08032306250001,35.421591562500005,76.0,75.0
40,35.7469880625,35.9285355,76.0,85.0
41,35.9850830625,36.1825035,74.0,75.0
42,36.223178062500004,36.69738393750001,72.0,76.0
43,36.69936806250001,36.870994875,72.0,74.0
44,36.9374630625,37.4116689375,72.0,74.0
45,37.4136530625,37.657700437500004,74.0,80.0
46,37.651748062500005,37.885874812500006,72.0,75.0
47,37.889843062500006,39.38289712500001,76.0,75.0
48,39.5565080625,39.74202375,69.0,74.0
49,39.7946030625,40.0386504375,72.0,80.0
50,40.0326980625,40.216229625000004,74.0,76.0
51,40.270793062500005,40.74499893750001,74.0,77.0
52,40.74698306250001,40.9830939375,74.0,77.0
53,40.9850780625,41.39579193750001,74.0,78.0
54,41.461268062500004,41.6904345,72.0,72.0
55,41.699363062500005,42.182497500000004,76.0,76.0
56,42.17555306250001,43.188448875000006,79.0,76.0
57,43.36602806250001,43.62991668750001,76.0,78.0
58,43.6041230625,43.779718125,79.0,76.0
59,43.8422180625,44.009876625000004,81.0,76.0
60,44.080313062500004,46.48904081250001,81.0,78.0
61,46.6993580625,47.063445,81.0,80.0
62,47.175548062500006,47.324357437500005,83.0,75.0
63,47.41364306250001,48.1457851875,81.0,76.0
64,48.127928062500004,51.497964375,79.0,76.0
65,53.366018062500004,54.373953562500006,84.0,78.0
66,54.31839806250001,55.10807981250001,83.0,77.0
67,55.27077806250001,55.50688893750001,81.0,78.0
68,55.50887306250001,55.7449839375,79.0,78.0
69,55.74696806250001,55.983078937500004,79.0,75.0
70,55.985063062500004,56.144785125000006,76.0,77.0
71,56.223158062500005,56.66164968750001,79.0,79.0
72,56.69934806250001,56.93545893750001,79.0,77.0
73,56.93744306250001,57.1735539375,76.0,77.0
74,57.1755380625,57.38287912500001,79.0,81.0
75,57.413633062500004,57.76085493750001,81.0,75.0
76,57.88982306250001,58.41561618750001,79.0,76.0
77,58.6041080625,58.797560250000004,84.0,80.0
78,58.842203062500005,59.023750500000006,83.0,78.0
79,59.080298062500006,59.293591500000005,81.0,74.0
80,59.31839306250001,59.458273875,79.0,75.0
81,59.55648806250001,59.70132918750001,79.0,74.0
82,59.79458306250001,59.962241625000004,76.0,76.0
83,60.032678062500004,60.36997931250001,79.0,78.0
84,60.50886806250001,60.68446312500001,79.0,72.0
85,60.74696306250001,60.96025650000001,76.0,76.0
86,60.98505806250001,61.207280062500004,79.0,74.0
87,61.2231530625,61.63585106250001,81.0,73.0
88,61.699343062500006,62.41164393750001,72.0,78.0
89,62.41362806250001,62.610056437500006,72.0,76.0
90,62.651723062500004,62.813429250000006,84.0,76.0
91,62.889818062500005,63.04954012500001,84.0,78.0
92,63.127913062500006,63.25985737500001,81.0,78.0
93,63.36600806250001,63.49497618750001,81.0,74.0
94,63.60410306250001,63.75886481250001,81.0,74.0
95,63.84219806250001,64.24199925,79.0,70.0
96,64.3183880625,64.491999,72.0,78.0
97,64.5564830625,64.90072875000001,76.0,68.0
98,65.03267306250001,65.79457706250001,79.0,63.0
99,66.2231480625,66.43048912500001,67.0,76.0
100,66.4612430625,66.64080637500001,76.0,79.0
101,66.6993380625,66.84219506250001,74.0,75.0
102,66.9374330625,67.0664011875,74.0,76.0
103,67.1755280625,67.30548825000001,74.0,76.0
104,67.41362306250001,67.55846418750001,74.0,80.0
105,67.65171806250001,68.09120175000001,74.0,76.0
106,68.12790806250001,68.382868125,72.0,72.0
107,68.36600306250001,68.86501050000001,76.0,76.0
108,68.8421930625,69.52671618750001,74.0,83.0
109,69.5564780625,70.0306839375,84.0,78.0
110,70.03266806250001,70.5068739375,83.0,77.0
111,70.50885806250001,70.7449689375,81.0,78.0
112,70.74695306250001,70.9830639375,79.0,78.0
113,70.98504806250001,71.22115893750001,79.0,75.0
114,71.22314306250001,71.38286512500001,76.0,77.0
115,71.4612380625,71.89972968750001,79.0,79.0
116,71.9374280625,72.17353893750001,79.0,77.0
117,72.1755230625,72.41163393750001,76.0,77.0
118,72.4136180625,72.62095912500001,79.0,81.0
119,72.65171306250001,72.99893493750001,81.0,75.0
120,73.12790306250001,73.6536961875,79.0,76.0
121,73.84218806250001,74.03564025000001,84.0,80.0
122,74.0802830625,74.2618305,83.0,78.0
123,74.3183780625,74.5316715,81.0,74.0
124,74.5564730625,74.69635387500001,79.0,75.0
125,74.7945680625,74.9394091875,79.0,74.0
126,75.0326630625,75.20032162500002,76.0,76.0
127,75.27075806250001,75.6080593125,79.0,78.0
128,75.74694806250001,75.922543125,79.0,72.0
129,75.98504306250001,76.19833650000001,76.0,76.0
130,76.22313806250001,76.44536006250001,79.0,74.0
131,76.46123306250001,76.8739310625,81.0,73.0
132,76.9374230625,77.64972393750001,72.0,78.0
133,77.6517080625,77.8481364375,72.0,76.0
134,77.88980306250001,78.05150925000001,84.0,76.0
135,78.12789806250001,78.287620125,84.0,78.0
136,78.36599306250001,78.497937375,81.0,78.0
137,78.60408806250001,78.73305618750001,81.0,74.0
138,78.84218306250001,78.9969448125,81.0,74.0
139,79.08027806250001,79.48007925,79.0,70.0
140,79.5564680625,79.730079,72.0,78.0
141,79.7945630625,80.13880875000001,76.0,68.0
142,80.2707530625,81.03265706250001,79.0,63.0
143,81.46122806250001,81.668569125,67.0,76.0
144,81.69932306250001,81.87888637500001,76.0,79.0
145,81.93741806250002,82.08027506250001,74.0,75.0
146,82.1755130625,82.64971893750001,74.0,76.0
147,82.6517030625,82.90666312500001,72.0,72.0
148,82.8897980625,84.3163839375,74.0,76.0
149,84.55646306250001,84.81043106250002,67.0,74.0
150,84.7945580625,85.34019243750001,76.0,81.0
151,85.2707480625,85.54951762500001,74.0,81.0
152,85.5088430625,85.632850875,72.0,74.0
153,85.7469380625,88.26578475000001,72.0,80.0
154,122.6516630625,122.92844850000002,67.0,76.0
155,122.88975806250001,123.34313062500001,76.0,80.0
156,123.36594806250001,123.64273350000002,74.0,78.0
157,123.60404306250001,124.52467706250002,76.0,79.0
158,124.55642306250002,124.75285143750001,79.0,76.0
159,124.79451806250002,125.28459693750001,79.0,75.0
160,125.27070806250002,125.50681893750001,74.0,70.0
161,125.50880306250001,126.85007156250002,76.0,75.0
162,127.17546806250002,127.35701550000002,76.0,85.0
163,127.41356306250002,127.61098350000002,74.0,75.0
164,127.65165806250002,128.1972924375,72.0,76.0
165,128.3659430625,128.537569875,72.0,74.0
166,128.60403806250002,128.811379125,72.0,74.0
167,128.8421330625,129.08618043750002,74.0,80.0
168,129.08022806250003,129.31435481250003,72.0,75.0
169,129.3183230625,130.811377125,76.0,75.0
170,130.9849880625,131.17050375000002,69.0,74.0
171,131.22308306250002,131.4671304375,72.0,80.0
172,131.4611780625,131.64470962500002,74.0,76.0
173,131.69927306250003,132.34411368750003,74.0,77.0
174,132.41355806250002,132.82427193750001,74.0,78.0
175,132.88974806250002,133.11891450000002,72.0,72.0
176,133.1278430625,133.61097750000002,76.0,76.0
177,133.6040330625,134.616928875,79.0,76.0
178,134.7945080625,134.98002375000002,69.0,75.0
179,135.03260306250002,135.21911081250002,72.0,76.0
180,135.2706980625,135.428436,74.0,76.0
181,135.50879306250002,135.89768156250003,74.0,77.0
182,135.98498306250002,136.23795900000002,76.0,77.0
183,136.2230780625,136.6814109375,74.0,79.0
184,136.6992680625,136.9730773125,72.0,71.0
185,136.93736306250003,137.82228281250002,74.0,76.0
186,137.8897430625,138.16652850000003,67.0,76.0
187,138.12783806250002,138.581210625,76.0,80.0
188,138.60402806250002,138.88081350000002,74.0,78.0
189,138.8421230625,139.76275706250001,76.0,79.0
190,139.7945030625,139.99093143750002,79.0,76.0
191,140.03259806250003,140.52267693750002,79.0,75.0
192,140.5087880625,140.7448989375,74.0,70.0
193,140.74688306250002,142.0881515625,76.0,75.0
194,142.4135480625,142.5950955,76.0,85.0
195,142.65164306250003,142.84906350000003,74.0,75.0
196,142.88973806250002,143.3639439375,72.0,76.0
197,143.36592806250002,143.537554875,72.0,74.0
198,143.6040230625,144.07822893750003,72.0,74.0
199,144.0802130625,144.32426043750002,74.0,80.0
200,144.31830806250002,144.55243481250002,72.0,75.0
201,144.5564030625,146.049457125,76.0,75.0
202,146.2230680625,146.40858375000002,69.0,74.0
203,146.46116306250002,146.70521043750003,72.0,80.0
204,146.6992580625,146.88278962500002,74.0,76.0
205,146.93735306250002,147.41155893750002,74.0,77.0
206,147.41354306250003,147.6496539375,74.0,77.0
207,147.6516380625,148.0623519375,74.0,78.0
208,148.12782806250001,148.3569945,72.0,72.0
209,148.3659230625,148.84905750000001,76.0,76.0
210,148.8421130625,149.855008875,79.0,76.0
211,150.03258806250003,150.29647668750002,76.0,78.0
212,150.2706830625,150.44627812500002,79.0,76.0
213,150.50877806250003,150.676436625,81.0,76.0
214,150.74687306250001,153.1556008125,81.0,78.0
215,153.36591806250001,153.730005,81.0,80.0
216,153.84210806250002,153.99091743750003,83.0,75.0
217,154.0802030625,154.81234518750003,81.0,76.0
218,154.79448806250002,158.164524375,79.0,76.0
219,160.03257806250002,161.04051356250002,84.0,78.0
220,160.98495806250003,161.77463981250003,83.0,77.0
221,161.9373380625,162.1734489375,81.0,78.0
222,162.17543306250002,162.41154393750003,79.0,78.0
223,162.4135280625,162.64963893750001,79.0,75.0
224,162.65162306250002,162.81134512500003,76.0,77.0
225,162.8897180625,163.32820968750002,79.0,79.0
226,163.3659080625,163.60201893750002,79.0,77.0
227,163.60400306250003,163.8401139375,76.0,77.0
228,163.8420980625,164.04943912500002,79.0,81.0
229,164.08019306250003,164.4274149375,81.0,75.0
230,164.5563830625,165.0821761875,79.0,76.0
231,165.27066806250002,165.46412025,84.0,80.0
232,165.5087630625,165.6903105,83.0,78.0
233,165.74685806250002,165.96015150000002,81.0,74.0
234,165.9849530625,166.124833875,79.0,75.0
235,166.22304806250003,166.36788918750003,79.0,74.0
236,166.4611430625,166.62880162500002,76.0,76.0
237,166.69923806250003,167.03653931250003,79.0,78.0
238,167.17542806250003,167.351023125,79.0,72.0
239,167.41352306250002,167.62681650000002,76.0,76.0
240,167.6516180625,167.87384006250002,79.0,74.0
241,167.88971306250002,168.30241106250003,81.0,73.0
242,168.36590306250002,169.0782039375,72.0,78.0
243,169.0801880625,169.27661643750002,72.0,76.0
244,169.31828306250003,169.47998925000002,84.0,76.0
245,169.55637806250002,169.71610012500003,84.0,78.0
246,169.79447306250003,169.92641737500003,81.0,78.0
247,170.03256806250002,170.16153618750002,81.0,74.0
248,170.2706630625,170.4254248125,81.0,74.0
249,170.50875806250002,170.90855925000002,79.0,70.0
250,170.98494806250002,171.15855900000003,72.0,78.0
251,171.2230430625,171.56728875000002,76.0,68.0
252,171.6992330625,172.46113706250003,79.0,63.0
253,172.8897080625,173.097049125,67.0,76.0
254,173.12780306250002,173.30736637500002,76.0,79.0
255,173.3658980625,173.50875506250003,74.0,75.0
256,173.60399306250002,173.73296118750002,74.0,76.0
257,173.8420880625,173.97204825000003,74.0,76.0
258,174.08018306250003,174.22502418750003,74.0,80.0
259,174.3182780625,174.75776175000001,74.0,76.0
260,174.79446806250002,175.04942812500002,72.0,72.0
261,175.03256306250003,175.53157050000002,76.0,76.0
262,175.5087530625,176.19327618750003,74.0,83.0
263,176.22303806250002,176.69724393750002,84.0,78.0
264,176.69922806250003,177.17343393750002,83.0,77.0
265,177.17541806250003,177.4115289375,81.0,78.0
266,177.41351306250002,177.64962393750002,79.0,78.0
267,177.65160806250003,177.8877189375,79.0,75.0
268,177.88970306250002,178.04942512500003,76.0,77.0
269,178.1277980625,178.56628968750002,79.0,79.0
270,178.6039880625,178.84009893750002,79.0,77.0
271,178.84208306250002,179.07819393750003,76.0,77.0
272,179.0801780625,179.28751912500002,79.0,81.0
273,179.31827306250003,179.66549493750003,81.0,75.0
274,179.79446306250003,180.3202561875,79.0,76.0
275,180.50874806250002,180.70220025000003,84.0,80.0
276,180.7468430625,180.9283905,83.0,78.0
277,180.98493806250002,181.19823150000002,81.0,74.0
278,181.2230330625,181.36291387500003,79.0,75.0
279,181.46112806250002,181.60596918750002,79.0,74.0
280,181.6992230625,181.86688162500002,76.0,76.0
281,181.93731806250003,182.27461931250002,79.0,78.0
282,182.41350806250003,182.589103125,79.0,72.0
283,182.65160306250002,182.86489650000001,76.0,76.0
284,182.88969806250003,183.11192006250002,79.0,74.0
285,183.12779306250002,183.54049106250002,81.0,73.0
286,183.60398306250002,184.31628393750003,72.0,78.0
287,184.3182680625,184.51469643750002,72.0,76.0
288,184.55636306250003,184.71806925,84.0,76.0
289,184.7944580625,184.95418012500002,84.0,78.0
290,185.03255306250003,185.16449737500002,81.0,78.0
291,185.27064806250002,185.39961618750002,81.0,74.0
292,185.50874306250003,185.6635048125,81.0,74.0
293,185.74683806250002,186.14663925000002,79.0,70.0
294,186.22302806250002,186.39663900000002,72.0,78.0
295,186.4611230625,186.80536875,76.0,68.0
296,186.9373130625,187.69921706250003,79.0,63.0
297,188.12778806250003,188.335129125,67.0,76.0
298,188.36588306250002,188.545446375,76.0,79.0
299,188.60397806250003,188.74683506250003,74.0,75.0
300,188.84207306250002,189.31627893750002,74.0,76.0
301,189.31826306250002,189.57322312500003,72.0,72.0
302,189.5563580625,190.9829439375,74.0,76.0
303,191.22302306250003,191.4591339375,74.0,78.0
304,191.46111806250002,191.93532393750002,76.0,75.0
305,191.93730806250002,192.17341893750003,84.0,75.0
306,192.1754030625,192.41151393750002,83.0,75.0
307,192.41349806250003,192.64960893750003,81.0,78.0
308,192.6515930625,192.88770393750002,79.0,78.0
309,192.88968806250003,193.1257989375,79.0,75.0
310,193.12778306250001,193.28750512500002,76.0,77.0
311,193.36587806250003,193.8043696875,79.0,79.0
312,193.84206806250003,194.0781789375,79.0,77.0
313,194.08016306250002,194.31627393750003,76.0,77.0
314,194.3182580625,194.525599125,79.0,81.0
315,194.55635306250002,194.90357493750003,81.0,75.0
316,195.03254306250003,195.55833618750003,79.0,76.0
317,195.74682806250001,195.94028025000003,84.0,80.0
318,195.98492306250003,196.16647050000003,83.0,78.0
319,196.22301806250002,196.43631150000002,81.0,74.0
320,196.46111306250003,196.60099387500003,79.0,75.0
321,196.69920806250002,196.84404918750002,79.0,74.0
322,196.9373030625,197.10496162500002,76.0,76.0
323,197.17539806250002,197.51269931250002,79.0,78.0
324,197.65158806250002,197.82718312500003,79.0,72.0
325,197.8896830625,198.1029765,76.0,76.0
326,198.12777806250003,198.35000006250002,79.0,74.0
327,198.36587306250001,198.77857106250002,81.0,73.0
328,198.84206306250002,199.55436393750003,72.0,78.0
329,199.55634806250004,199.75277643750002,72.0,76.0
330,199.79444306250002,199.95614925,84.0,76.0
331,200.0325380625,200.19226012500002,84.0,78.0
332,200.27063306250002,200.40257737500002,81.0,78.0
333,200.5087280625,200.6376961875,81.0,74.0
334,200.74682306250003,200.90158481250003,81.0,74.0
335,200.98491806250001,201.38471925000002,79.0,70.0
336,201.46110806250002,201.63471900000002,72.0,78.0
337,201.69920306250003,202.04344875,76.0,68.0
338,202.17539306250004,202.93729706250002,79.0,63.0
339,203.36586806250003,203.57320912500003,67.0,76.0
340,203.60396306250001,203.783526375,76.0,79.0
341,203.84205806250003,203.98491506250002,74.0,75.0
342,204.08015306250002,204.20912118750002,74.0,76.0
343,204.31824806250003,204.44820825000002,74.0,76.0
344,204.55634306250002,204.70118418750002,74.0,80.0
345,204.79443806250003,205.23392175000004,74.0,76.0
346,205.2706280625,205.525588125,72.0,72.0
347,205.50872306250002,206.0077305,76.0,76.0
348,205.98491306250003,206.66943618750003,74.0,83.0
349,206.69919806250002,207.1734039375,84.0,78.0
350,207.17538806250002,207.64959393750001,83.0,77.0
351,207.65157806250002,207.88768893750003,81.0,78.0
352,207.8896730625,208.12578393750002,79.0,78.0
353,208.12776806250002,208.36387893750003,79.0,75.0
354,208.3658630625,208.52558512500002,76.0,77.0
355,208.60395806250003,209.0424496875,79.0,79.0
356,209.08014806250003,209.3162589375,79.0,77.0
357,209.31824306250002,209.55435393750003,76.0,77.0
358,209.55633806250003,209.763679125,79.0,81.0
359,209.79443306250002,210.14165493750002,81.0,75.0
360,210.27062306250002,210.79641618750003,79.0,76.0
361,210.9849080625,211.17836025000003,84.0,80.0
362,211.22300306250003,211.40455050000003,83.0,78.0
363,211.4610980625,211.6743915,81.0,74.0
364,211.69919306250003,211.83907387500003,79.0,75.0
365,211.93728806250002,212.08212918750002,79.0,74.0
366,212.17538306250003,212.343041625,76.0,76.0
367,212.41347806250002,212.75077931250001,79.0,78.0
368,212.88966806250002,213.06526312500003,79.0,72.0
369,213.1277630625,213.34105650000004,76.0,76.0
370,213.36585806250002,213.5880800625,79.0,74.0
371,213.6039530625,214.01665106250002,81.0,73.0
372,214.0801430625,214.79244393750002,72.0,78.0
373,214.79442806250003,214.9908564375,72.0,76.0
374,215.03252306250002,215.19422925000003,84.0,76.0
375,215.27061806250003,215.43034012500001,84.0,78.0
376,215.50871306250002,215.64065737500002,81.0,78.0
377,215.74680806250004,215.87577618750004,81.0,74.0
378,215.98490306250002,216.13966481250003,81.0,74.0
379,216.2229980625,216.62279925,79.0,70.0
380,216.6991880625,216.87279900000001,72.0,78.0
381,216.93728306250003,217.28152875000004,76.0,68.0
382,217.41347306250003,218.17537706250002,79.0,63.0
383,218.60394806250002,218.81128912500003,67.0,76.0
384,218.8420430625,219.02160637500003,76.0,79.0
385,219.08013806250003,219.22299506250002,74.0,75.0
386,219.3182330625,219.79243893750004,74.0,76.0
387,219.79442306250002,220.04938312500002,72.0,72.0
388,220.03251806250003,221.45910393750003,74.0,76.0
389,221.69918306250003,221.9531510625,67.0,74.0
390,221.9372780625,222.48291243750003,76.0,81.0
391,222.41346806250002,222.69223762500002,74.0,81.0
392,222.65156306250003,222.77557087500003,72.0,74.0
393,222.88965806250002,225.40850475000002,72.0,80.0
