,start,end,pitch,velocity
0,2.1755930625000004,3.65079,55.0,71.0
1,1.9374980625000002,3.6557503125000004,48.0,79.0
2,2.4136880625000003,3.9930515625000003,60.0,78.0
3,2.6517830625000003,4.173606937500001,67.0,75.0
4,4.318448062500001,4.594241437500001,60.0,72.0
5,4.5565430625,4.8343205625,62.0,77.0
6,4.794638062500001,5.139875812500001,64.0,81.0
7,4.0803530625,5.1775741875,55.0,73.0
8,5.0327330625,5.732137125,62.0,80.0
9,5.270828062500001,5.7490021875,55.0,78.0
10,3.8422580625000005,5.7847164375,48.0,80.0
11,5.985113062500001,6.767850375000001,59.0,74.0
12,5.7470180625000005,7.482135375,47.0,80.0
13,6.2232080625,7.744039875000001,62.0,71.0
14,7.4136830625000005,7.754952562500001,59.0,71.0
15,6.461303062500001,8.09919825,67.0,74.0
16,8.1279680625,8.466261375,62.0,73.0
17,7.8898730625,8.857134,59.0,76.0
18,7.651778062500001,9.033721125000001,47.0,80.0
19,8.842253062500001,9.424593750000001,62.0,78.0
20,9.0803480625,9.5793555,47.0,82.0
21,8.3660630625,9.584315812500002,67.0,76.0
22,9.318443062500002,9.59919675,59.0,76.0
23,9.556538062500001,9.841260000000002,57.0,68.0
24,9.556538062500001,10.046616937500001,60.0,73.0
25,10.0327280625,10.1666565,57.0,70.0
26,10.270823062500002,10.395822937500002,64.0,74.0
27,10.270823062500002,10.405743562500001,57.0,73.0
28,9.7946330625,11.320425187500001,52.0,67.0
29,9.556538062500001,11.362091812500001,45.0,72.0
30,11.223203062500001,11.501972625,57.0,75.0
31,11.461298062500001,11.946416625000001,60.0,72.0
32,11.937488062500002,12.071416500000002,57.0,74.0
33,12.175583062500001,12.38490825,57.0,73.0
34,12.175583062500001,12.4176463125,64.0,77.0
35,12.651773062500002,12.912685500000002,60.0,76.0
36,12.651773062500002,12.915661687500002,57.0,72.0
37,11.6993930625,12.959312437500001,52.0,64.0
38,11.461298062500001,13.045621875000002,45.0,70.0
39,13.366058062500002,13.583319750000001,55.0,68.0
40,13.366058062500002,13.795621125000002,59.0,67.0
41,13.842248062500001,14.159708062500002,55.0,76.0
42,14.0803430625,14.6041520625,62.0,76.0
43,13.366058062500002,15.068437312500002,43.0,73.0
44,13.604153062500002,15.069429375000002,50.0,59.0
45,14.794628062500001,15.108119812500002,55.0,74.0
46,15.032723062500002,15.268833937500002,62.0,70.0
47,14.556533062500002,15.268833937500002,67.0,75.0
48,15.282722812500001,16.772800687500002,43.0,82.0
49,15.220222875000001,16.971213187500002,55.0,71.0
50,15.2886751875,16.986094125,59.0,75.0
51,15.324389437500002,16.9920465,62.0,70.0
52,15.417643312500001,17.015856000000003,67.0,70.0
53,17.1755780625,17.4603,60.0,67.0
54,17.413673062500003,17.730141000000003,55.0,70.0
55,17.6517680625,17.8997836875,60.0,68.0
56,17.8898630625,18.636886125000004,64.0,75.0
57,18.604148062500002,18.722203500000003,60.0,68.0
58,17.1755780625,18.768830437500004,48.0,69.0
59,19.0803380625,19.222203,59.0,69.0
60,19.0803380625,19.351171125,64.0,74.0
61,19.318433062500002,19.589266125,59.0,71.0
62,19.556528062500004,19.6696231875,64.0,67.0
63,19.7946230625,20.2618845,67.0,75.0
64,20.270813062500004,20.427558937500002,64.0,75.0
65,19.0803380625,20.488074750000003,52.0,72.0
66,20.5089080625,20.595217500000004,59.0,70.0
67,20.9850980625,21.176566125,57.0,64.0
68,20.9850980625,21.5525578125,60.0,68.0
69,21.461288062500003,21.6894624375,57.0,69.0
70,21.223193062500002,21.790652812500003,48.0,61.0
71,20.9850980625,21.800573437500002,41.0,74.0
72,21.6993830625,22.387874437500003,65.0,74.0
73,22.4136680625,22.706326500000003,55.0,74.0
74,21.937478062500002,22.716247125000002,43.0,75.0
75,22.175573062500003,22.720215375000002,50.0,69.0
76,22.889858062500004,23.035691250000003,55.0,69.0
77,22.889858062500004,23.159699062500003,60.0,71.0
78,23.1279530625,23.423587687500003,55.0,70.0
79,23.366048062500003,23.587278,60.0,69.0
80,23.604143062500004,23.871999937500004,62.0,74.0
81,22.889858062500004,24.254936062500004,48.0,75.0
82,24.080333062500003,24.3759676875,64.0,78.0
83,24.318428062500004,24.535689750000003,55.0,75.0
84,24.794618062500003,24.950371875000002,57.0,69.0
85,24.794618062500003,25.0902526875,62.0,67.0
86,25.0327130625,25.332315937500002,57.0,68.0
87,25.270808062500002,25.567434750000004,62.0,68.0
88,24.794618062500003,25.972196250000003,50.0,70.0
89,25.508903062500004,26.0069184375,65.0,76.0
90,25.985093062500003,26.214259500000004,62.0,76.0
91,26.223188062500004,26.341243500000004,57.0,67.0
92,26.699378062500003,26.895806437500003,59.0,68.0
93,26.699378062500003,27.232115625000002,64.0,71.0
94,27.175568062500002,27.332313937500004,59.0,72.0
95,27.413663062500003,27.601162875000004,59.0,75.0
96,27.413663062500003,27.909694312500005,67.0,74.0
97,26.937473062500004,27.977154562500004,47.0,63.0
98,27.889853062500002,28.008900562500003,59.0,74.0
99,26.699378062500003,28.042630687500004,40.0,75.0
100,27.889853062500002,28.178543250000004,64.0,77.0
101,28.127948062500003,28.246995562500004,59.0,66.0
102,28.604138062500002,28.885883812500005,62.0,70.0
103,28.842233062500004,29.128939125000002,57.0,73.0
104,29.0803280625,29.225169187500004,62.0,68.0
105,29.318423062500003,29.640843375000003,65.0,80.0
106,28.604138062500002,29.941438312500004,50.0,73.0
107,29.7946130625,29.996993812500005,62.0,75.0
108,30.032708062500003,30.327350625000005,57.0,75.0
109,30.508898062500002,30.933500812500004,62.0,67.0
110,30.985088062500004,31.265841750000003,55.0,76.0
111,31.223183062500002,31.746992062500002,62.0,75.0
112,31.699373062500005,32.026753687500005,67.0,74.0
113,31.937468062500002,32.1061186875,55.0,78.0
114,30.746993062500003,32.131912312500006,50.0,62.0
115,30.508898062500002,32.19044400000001,43.0,75.0
116,32.413658062500005,32.548578562500005,55.0,74.0
117,32.413658062500005,32.691435562500004,60.0,70.0
118,32.651753062500006,32.946395625,55.0,70.0
119,32.8898480625,33.070403437500005,60.0,69.0
120,33.1279430625,33.4196094375,64.0,74.0
121,32.413658062500005,33.789648750000005,48.0,73.0
122,33.604133062500004,34.07833893750001,67.0,77.0
123,34.3184180625,34.76583825,67.0,72.0
124,34.794608062500004,35.1080998125,59.0,59.0
125,35.032703062500005,35.286671062500005,64.0,76.0
126,34.5565130625,35.6239723125,47.0,62.0
127,35.5088930625,35.6378611875,67.0,74.0
128,35.5088930625,35.65373418750001,59.0,72.0
129,34.3184180625,35.65770243750001,40.0,74.0
130,36.223178062500004,36.442423875,53.0,70.0
131,36.223178062500004,36.640836375000006,57.0,68.0
132,36.69936806250001,36.89480437500001,53.0,74.0
133,36.461273062500005,36.944407500000004,48.0,68.0
134,36.223178062500004,36.950359875000004,41.0,72.0
135,37.1755580625,37.4156371875,55.0,69.0
136,37.1755580625,37.617025875,59.0,69.0
137,37.651748062500005,37.93647000000001,55.0,74.0
138,37.4136530625,37.976152500000005,50.0,61.0
139,37.1755580625,38.00690643750001,43.0,74.0
140,37.889843062500006,38.14182693750001,59.0,76.0
141,38.12793806250001,38.407699687500006,60.0,76.0
142,38.3660330625,38.67853275,55.0,74.0
143,38.6041280625,38.8680166875,60.0,73.0
144,38.842223062500004,39.195397312500006,64.0,79.0
145,38.12793806250001,39.346190812500005,48.0,75.0
146,39.31841306250001,39.4057145625,60.0,76.0
147,40.0326980625,40.174563000000006,57.0,68.0
148,40.0326980625,40.349166000000004,62.0,72.0
149,40.270793062500005,40.53964200000001,57.0,69.0
150,40.508888062500006,40.653729187500005,62.0,66.0
151,40.74698306250001,41.028728812500006,65.0,76.0
152,41.2231730625,41.372974500000005,62.0,77.0
153,40.0326980625,41.406704625,50.0,71.0
154,41.937458062500006,42.094203937500005,59.0,69.0
155,41.937458062500006,42.32634656250001,64.0,72.0
156,42.4136480625,42.5426161875,59.0,77.0
157,42.6517430625,42.84817143750001,59.0,79.0
158,42.6517430625,42.960274500000004,67.0,74.0
159,42.17555306250001,43.186464750000006,47.0,62.0
160,41.937458062500006,43.2092821875,40.0,75.0
161,43.127933062500006,43.23904406250001,64.0,76.0
162,43.127933062500006,43.263845625,59.0,76.0
163,43.8422180625,44.049559125,57.0,67.0
164,43.8422180625,44.338249312500004,60.0,71.0
165,44.318408062500005,44.431503187500006,57.0,71.0
166,44.556503062500006,44.71820925000001,57.0,75.0
167,44.556503062500006,44.8332885,65.0,74.0
168,45.0326930625,45.192415125000004,57.0,74.0
169,45.0326930625,45.21027225,60.0,77.0
170,44.080313062500004,45.604121062500006,48.0,62.0
171,43.8422180625,45.614041687500006,41.0,74.0
172,45.746978062500006,45.962255625000004,57.0,64.0
173,45.746978062500006,46.236064875000004,60.0,65.0
174,46.22316806250001,46.341223500000005,57.0,69.0
175,46.4612630625,46.749953250000004,65.0,77.0
176,45.98507306250001,47.1279290625,48.0,64.0
177,46.937453062500005,47.15570681250001,60.0,83.0
178,45.746978062500006,47.201341687500005,41.0,71.0
179,47.175548062500006,47.44836525,57.0,73.0
180,47.41364306250001,47.5108651875,60.0,74.0
181,47.6517380625,48.1438010625,59.0,76.0
182,48.127928062500004,48.462253125000004,55.0,80.0
183,48.366023062500005,48.72118143750001,59.0,77.0
184,47.8898330625,49.396776,50.0,63.0
185,47.6517380625,49.405704562500006,43.0,74.0
186,49.0803080625,49.429514062500004,55.0,74.0
187,48.84221306250001,49.64677575,67.0,75.0
188,49.3184030625,49.880902500000005,62.0,67.0
189,50.03268806250001,50.14776731250001,55.0,72.0
190,50.27078306250001,50.316417937500006,55.0,63.0
191,50.27078306250001,50.580306562500006,59.0,75.0
192,50.27078306250001,50.589235125,62.0,73.0
193,49.794593062500006,50.82832218750001,50.0,67.0
194,49.556498062500005,50.942409375000004,43.0,74.0
195,50.746973062500004,51.0426076875,55.0,68.0
196,50.746973062500004,51.110067937500006,62.0,76.0
197,51.22316306250001,51.349155,55.0,76.0
198,51.46125806250001,51.8025275625,55.0,69.0
199,51.46125806250001,52.15867800000001,62.0,70.0
200,51.9374480625,52.417606312500006,55.0,77.0
201,52.175543062500005,52.4553046875,59.0,75.0
202,52.65173306250001,52.798558312500006,59.0,75.0
203,52.65173306250001,52.81740750000001,62.0,68.0
204,52.65173306250001,52.818399562500005,55.0,69.0
205,51.69935306250001,53.13784368750001,50.0,63.0
206,51.46125806250001,53.176534125,43.0,75.0
207,53.366018062500004,53.881890562500004,67.0,73.0
208,53.366018062500004,54.095184,55.0,69.0
209,53.366018062500004,54.10014431250001,59.0,72.0
210,53.366018062500004,55.01284181250001,43.0,76.0
211,54.794588062500004,55.2053019375,59.0,80.0
212,55.27077806250001,55.548555562500006,60.0,69.0
213,55.27077806250001,55.693396687500005,67.0,71.0
214,55.74696806250001,55.8620473125,60.0,83.0
215,55.985063062500004,56.15768193750001,60.0,78.0
216,55.985063062500004,56.16363431250001,67.0,75.0
217,56.461253062500006,56.55252281250001,64.0,83.0
218,56.461253062500006,56.58030056250001,60.0,77.0
219,55.50887306250001,56.94736368750001,55.0,65.0
220,55.27077806250001,56.98803825000001,48.0,79.0
221,56.93744306250001,57.06641118750001,60.0,77.0
222,57.1755380625,57.38287912500001,60.0,77.0
223,57.1755380625,57.49895043750001,67.0,74.0
224,57.651728062500005,57.764823187500006,60.0,78.0
225,57.88982306250001,58.21621162500001,60.0,81.0
226,57.88982306250001,58.291608375,67.0,77.0
227,58.36601306250001,58.654703250000004,64.0,75.0
228,58.6041080625,58.7350603125,60.0,76.0
229,57.1755380625,58.820377687500006,48.0,78.0
230,57.413633062500004,59.09914725000001,55.0,67.0
231,59.080298062500006,59.26581375000001,59.0,70.0
232,59.080298062500006,59.52176587500001,67.0,72.0
233,59.55648806250001,59.712241875000004,59.0,78.0
234,59.79458306250001,59.99795587500001,59.0,76.0
235,59.79458306250001,60.03763837500001,62.0,76.0
236,60.270773062500005,60.42057450000001,59.0,75.0
237,60.270773062500005,60.57533625000001,67.0,76.0
238,59.080298062500006,60.853113750000006,47.0,75.0
239,60.74696306250001,60.86005818750001,59.0,77.0
240,59.31839306250001,60.882875625000004,55.0,68.0
241,60.98505806250001,61.16164518750001,59.0,77.0
242,61.461248062500005,61.59517650000001,59.0,76.0
243,60.98505806250001,61.602120937500004,67.0,75.0
244,60.98505806250001,61.765811250000006,47.0,76.0
245,61.699343062500006,61.81739850000001,62.0,68.0
246,61.93743806250001,62.186445750000004,57.0,75.0
247,61.93743806250001,62.229104437500006,60.0,78.0
248,62.17553306250001,62.67751668750001,52.0,63.0
249,62.41362806250001,62.73604837500001,57.0,78.0
250,62.651723062500004,62.778707062500004,60.0,69.0
251,61.93743806250001,62.80053243750001,45.0,74.0
252,62.889818062500005,63.17850825000001,57.0,70.0
253,62.889818062500005,63.44239687500001,65.0,72.0
254,63.36600806250001,63.51084918750001,57.0,78.0
255,63.60410306250001,63.92057100000001,60.0,83.0
256,63.60410306250001,63.927515437500006,57.0,75.0
257,63.127913062500006,64.36104675,48.0,68.0
258,64.0802930625,64.36402293750001,57.0,76.0
259,62.889818062500005,64.38882450000001,41.0,75.0
260,64.0802930625,64.40370543750001,65.0,74.0
261,64.79457806250001,64.96025250000001,59.0,71.0
262,64.79457806250001,65.0921968125,64.0,69.0
263,65.03267306250001,65.31937912500001,59.0,74.0
264,65.27076806250001,65.37890287500001,64.0,72.0
265,65.50886306250001,65.65271212500001,67.0,74.0
266,65.50886306250001,65.66164068750001,59.0,77.0
267,65.9850530625,66.10509262500001,59.0,76.0
268,65.9850530625,66.1794973125,64.0,79.0
269,64.79457806250001,66.1993385625,52.0,76.0
270,66.2231480625,66.319378125,59.0,75.0
271,66.6993380625,66.82136175000001,57.0,70.0
272,66.6993380625,66.9215600625,62.0,70.0
273,66.9374330625,67.1298931875,57.0,70.0
274,67.1755280625,67.2469565625,62.0,67.0
275,67.41362306250001,67.6060831875,57.0,75.0
276,67.41362306250001,67.650726,65.0,78.0
277,67.88981306250001,68.0128288125,57.0,75.0
278,67.88981306250001,68.10707475000001,62.0,77.0
279,66.6993380625,68.13485250000001,50.0,74.0
280,68.12790806250001,68.3560824375,57.0,75.0
281,68.36600306250001,68.86997081250001,62.0,76.0
282,69.0802880625,69.394771875,55.0,80.0
283,69.3183830625,69.6040970625,62.0,74.0
284,69.5564780625,70.0842553125,67.0,78.0
285,69.7945730625,70.0882235625,55.0,74.0
286,68.8421930625,70.38088200000001,50.0,63.0
287,70.03266806250001,70.386834375,62.0,71.0
288,68.6040980625,70.41262800000001,43.0,74.0
289,70.50885806250001,70.78663556250001,60.0,69.0
290,70.50885806250001,70.93147668750001,67.0,71.0
291,70.98504806250001,71.1001273125,60.0,83.0
292,71.22314306250001,71.39576193750001,60.0,78.0
293,71.22314306250001,71.4017143125,67.0,75.0
294,71.6993330625,71.79060281250001,64.0,83.0
295,71.6993330625,71.81838056250001,60.0,77.0
296,70.74695306250001,72.18544368750001,55.0,65.0
297,70.50885806250001,72.22611825000001,48.0,79.0
298,72.1755230625,72.3044911875,60.0,77.0
299,72.4136180625,72.62095912500001,60.0,77.0
300,72.4136180625,72.73703043750001,67.0,74.0
301,72.88980806250001,73.00290318750001,60.0,78.0
302,73.12790306250001,73.45429162500001,60.0,81.0
303,73.12790306250001,73.529688375,67.0,77.0
304,73.60409306250001,73.89278325000001,64.0,75.0
305,73.84218806250001,73.9731403125,60.0,76.0
306,72.4136180625,74.05845768750001,48.0,78.0
307,72.65171306250001,74.33722725000001,55.0,67.0
308,74.3183780625,74.50389375,59.0,70.0
309,74.3183780625,74.75984587500001,67.0,72.0
310,74.7945680625,74.95032187500001,59.0,78.0
311,75.0326630625,75.23603587500001,59.0,76.0
312,75.0326630625,75.27571837500001,62.0,76.0
313,75.50885306250001,75.65865450000001,59.0,75.0
314,75.50885306250001,75.81341625,67.0,76.0
315,74.3183780625,76.09119375,47.0,75.0
316,75.98504306250001,76.09813818750001,59.0,77.0
317,74.5564730625,76.12095562500001,55.0,68.0
318,76.22313806250001,76.39972518750001,59.0,77.0
319,76.6993280625,76.8332565,59.0,76.0
320,76.22313806250001,76.84020093750001,67.0,75.0
321,76.22313806250001,77.00389125000001,47.0,76.0
322,76.9374230625,77.0554785,62.0,68.0
323,77.1755180625,77.42452575000002,57.0,75.0
324,77.1755180625,77.46718443750001,60.0,78.0
325,77.4136130625,77.91559668750001,52.0,63.0
326,77.6517080625,77.974128375,57.0,78.0
327,77.88980306250001,78.01678706250001,60.0,69.0
328,77.1755180625,78.0386124375,45.0,74.0
329,78.12789806250001,78.41658825,57.0,70.0
330,78.12789806250001,78.68047687500001,65.0,72.0
331,78.60408806250001,78.74892918750001,57.0,78.0
332,78.84218306250001,79.158651,60.0,83.0
333,78.84218306250001,79.1655954375,57.0,75.0
334,78.36599306250001,79.59912675000001,48.0,68.0
335,79.31837306250002,79.6021029375,57.0,76.0
336,78.12789806250001,79.62690450000001,41.0,75.0
337,79.31837306250002,79.6417854375,65.0,74.0
338,80.0326580625,80.1983325,59.0,71.0
339,80.0326580625,80.3302768125,64.0,69.0
340,80.2707530625,80.55745912500001,59.0,74.0
341,80.50884806250001,80.616982875,64.0,72.0
342,80.74694306250001,80.890792125,67.0,74.0
343,80.74694306250001,80.89972068750001,59.0,77.0
344,81.22313306250001,81.34317262500001,59.0,76.0
345,81.22313306250001,81.41757731250001,64.0,79.0
346,80.0326580625,81.43741856250001,52.0,76.0
347,81.46122806250001,81.55745812500001,59.0,75.0
348,81.93741806250002,82.05944175,57.0,70.0
349,81.93741806250002,82.1596400625,62.0,70.0
350,82.1755130625,82.36797318750001,57.0,70.0
351,82.4136080625,82.48503656250001,62.0,67.0
352,82.6517030625,82.84416318750002,57.0,75.0
353,82.6517030625,82.888806,65.0,78.0
354,83.12789306250001,83.25090881250001,57.0,75.0
355,83.12789306250001,83.34515475,62.0,77.0
356,81.93741806250002,83.3729325,50.0,74.0
357,83.36598806250001,83.5941624375,57.0,75.0
358,83.60408306250001,84.10805081250001,62.0,76.0
359,84.31836806250001,84.63285187500001,55.0,80.0
360,84.55646306250001,84.84217706250001,62.0,74.0
361,84.7945580625,85.32233531250002,67.0,78.0
362,85.0326530625,85.32630356250002,55.0,74.0
363,84.08027306250001,85.61896200000001,50.0,63.0
364,85.2707480625,85.624914375,62.0,71.0
365,83.84217806250001,85.65070800000001,43.0,74.0
366,85.7469380625,85.89376331250001,55.0,75.0
367,85.7469380625,86.00983462500001,60.0,72.0
368,85.98503306250001,86.28959625,55.0,74.0
369,86.22312806250001,86.37788981250002,60.0,74.0
370,86.46122306250001,86.96915906250001,62.0,72.0
371,85.7469380625,87.50487281250001,48.0,80.0
372,87.41360306250002,87.74395987500002,55.0,74.0
373,86.93741306250001,87.90368193750001,60.0,76.0
374,87.8897930625,88.216181625,55.0,74.0
375,88.1278880625,88.22511018750001,60.0,68.0
376,88.3659830625,88.5068559375,64.0,78.0
377,88.3659830625,88.51677656250001,55.0,76.0
378,88.84217306250001,88.97610150000001,60.0,79.0
379,88.84217306250001,88.978085625,55.0,80.0
380,87.6516980625,89.0901886875,48.0,80.0
381,89.55645806250001,89.68443412500001,55.0,70.0
382,89.55645806250001,89.799513375,60.0,69.0
383,89.79455306250001,90.10010831250001,55.0,68.0
384,90.03264806250002,90.15169556250001,60.0,69.0
385,90.2707430625,90.51578250000001,55.0,72.0
386,90.2707430625,90.56042531250002,64.0,69.0
387,90.7469330625,90.88681387500002,55.0,74.0
388,90.7469330625,90.96617887500001,60.0,74.0
389,89.55645806250001,91.2429643125,48.0,77.0
390,91.22312306250001,91.5604243125,55.0,77.0
391,91.69931306250001,91.96419375,55.0,75.0
392,91.93740806250001,92.02966987500001,60.0,70.0
393,92.17550306250001,92.38383618750001,55.0,76.0
394,92.17550306250001,92.402685375,64.0,78.0
395,92.65169306250002,92.75883581250001,55.0,71.0
396,92.65169306250002,92.93145468750001,60.0,76.0
397,91.46121806250001,93.2935575,48.0,76.0
398,92.88978806250002,93.36895425000002,55.0,76.0
399,93.3659780625,93.6715333125,53.0,66.0
400,93.3659780625,93.89177118750001,60.0,66.0
401,93.84216806250001,94.17351693750001,53.0,75.0
402,94.08026306250001,94.21022325000001,57.0,76.0
403,94.55645306250001,94.76577825000001,53.0,74.0
404,94.55645306250001,94.78958775000001,60.0,74.0
405,93.6040730625,95.06042081250001,48.0,62.0
406,93.3659780625,95.10109537500001,41.0,75.0
407,95.03264306250001,95.291571375,53.0,76.0
408,95.7469280625,95.8917691875,52.0,78.0
409,95.9850230625,96.2231180625,52.0,74.0
410,95.9850230625,96.2747053125,59.0,73.0
411,95.50883306250002,96.54355425000001,47.0,67.0
412,96.46121306250001,96.56637168750001,55.0,77.0
413,96.46121306250001,96.58224468750001,52.0,80.0
414,95.27073806250002,96.59117325000001,40.0,76.0
415,97.17549806250001,97.41855337500002,57.0,69.0
416,97.17549806250001,97.54652943750001,60.0,70.0
417,97.65168806250001,97.77569587500001,57.0,76.0
418,97.88978306250002,98.07033843750001,57.0,76.0
419,97.88978306250002,98.10208443750001,64.0,76.0
420,98.3659730625,98.51081418750002,60.0,77.0
421,98.3659730625,98.523711,57.0,75.0
422,97.41359306250001,98.90962331250002,52.0,64.0
423,97.17549806250001,98.94732168750001,45.0,75.0
424,98.8421630625,99.1278770625,57.0,75.0
425,99.08025806250001,99.1278770625,57.0,65.0
426,99.08025806250001,99.56835281250001,60.0,73.0
427,99.55644806250001,99.65367018750001,57.0,74.0
428,99.79454306250001,100.04950312500002,64.0,77.0
429,99.79454306250001,100.10208243750002,57.0,76.0
430,100.27073306250001,100.51478043750001,57.0,77.0
431,100.27073306250001,100.76577225000001,60.0,80.0
432,99.31835306250001,100.8481134375,52.0,64.0
433,99.08025806250001,100.89771656250001,45.0,76.0
434,100.74692306250002,101.03164500000001,57.0,83.0
435,100.98501806250002,101.34216056250001,65.0,77.0
436,101.2231130625,101.525692125,57.0,75.0
437,101.4612080625,101.56239843750001,62.0,69.0
438,101.69930306250001,101.98997737500001,57.0,74.0
439,101.69930306250001,102.00188212500001,65.0,75.0
440,102.17549306250001,102.299500875,62.0,72.0
441,100.98501806250002,102.33819131250002,50.0,77.0
442,102.17549306250001,102.35307225000001,57.0,74.0
443,102.88977806250001,103.13481750000001,55.0,72.0
444,102.88977806250001,103.30545225000002,62.0,69.0
445,103.36596806250002,103.68243600000001,55.0,75.0
446,103.60406306250002,104.160610125,59.0,74.0
447,103.12787306250002,104.38977656250002,50.0,65.0
448,104.31834806250001,104.52469706250001,55.0,76.0
449,102.88977806250001,104.53759387500001,43.0,74.0
450,104.0802530625,104.53858593750002,67.0,74.0
451,104.79453806250001,104.92449825000001,55.0,74.0
452,104.79453806250001,105.07727587500001,60.0,69.0
453,105.03263306250001,105.34414068750002,55.0,74.0
454,105.27072806250001,105.38878350000002,60.0,70.0
455,105.50882306250001,105.8044576875,55.0,72.0
456,105.50882306250001,105.87787031250001,62.0,76.0
457,105.98501306250002,106.16060812500001,55.0,76.0
458,105.98501306250002,106.1913620625,60.0,74.0
459,104.79453806250001,106.47906018750001,48.0,76.0
460,106.6992980625,106.90763118750002,59.0,73.0
461,106.6992980625,107.2032658125,62.0,72.0
462,107.17548806250001,107.283622875,59.0,78.0
463,107.41358306250001,107.7469160625,59.0,80.0
464,107.41358306250001,107.74890018750001,67.0,74.0
465,107.88977306250001,108.0008840625,59.0,77.0
466,107.88977306250001,108.14671725000001,62.0,78.0
467,106.9373930625,108.23798700000002,50.0,66.0
468,108.12786806250001,108.24096318750001,59.0,72.0
469,106.6992980625,108.2905663125,43.0,75.0
470,108.60405806250002,108.78362137500001,57.0,70.0
471,108.60405806250002,109.15762893750001,60.0,73.0
472,109.08024806250002,109.36100175000001,57.0,76.0
473,109.3183430625,109.68143793750001,65.0,69.0
474,108.84215306250002,110.047509,48.0,63.0
475,109.79453306250001,110.047509,60.0,83.0
476,108.60405806250002,110.08619943750001,41.0,75.0
477,110.03262806250001,110.12786606250002,57.0,76.0
478,110.50881806250001,110.66556393750001,59.0,69.0
479,110.50881806250001,110.76179400000001,64.0,75.0
480,110.74691306250001,111.03957150000001,59.0,74.0
481,110.98500806250001,111.06834131250001,64.0,73.0
482,111.22310306250002,111.3858013125,59.0,78.0
483,111.22310306250002,111.42945206250002,67.0,76.0
484,111.69929306250002,111.79849931250001,64.0,79.0
485,110.50881806250001,111.80643581250001,52.0,77.0
486,111.69929306250002,111.83421356250001,59.0,76.0
487,112.41357806250001,112.70127618750001,57.0,68.0
488,112.41357806250001,112.94036325000002,60.0,70.0
489,112.88976806250001,113.18341856250001,55.0,80.0
490,113.12786306250001,113.51675156250002,60.0,80.0
491,113.60405306250001,113.8838146875,64.0,78.0
492,113.84214806250002,114.101076375,60.0,70.0
493,112.65167306250001,114.15067950000001,52.0,68.0
494,112.41357806250001,114.16060012500002,45.0,74.0
495,114.08024306250002,114.44929031250001,55.0,79.0
496,114.7945280625,115.07528175000002,57.0,80.0
497,115.03262306250001,115.31238468750001,60.0,76.0
498,114.5564330625,115.54651143750002,52.0,75.0
499,114.31833806250002,115.59115425000002,45.0,74.0
500,115.50881306250001,115.72309856250001,57.0,70.0
501,115.50881306250001,115.75682868750002,64.0,78.0
502,115.50881306250001,115.77369375,60.0,76.0
503,115.74690806250001,116.06337600000002,45.0,75.0
504,115.98500306250001,116.1159553125,57.0,83.0
505,116.22309806250001,116.56635168750002,65.0,78.0
506,116.46119306250002,116.69829600000001,57.0,74.0
507,116.69928806250002,116.98301793750001,64.0,73.0
508,116.93738306250002,117.25385100000001,57.0,75.0
509,117.4135730625,117.45325556250002,57.0,55.0
510,116.22309806250001,117.68440612500001,50.0,76.0
511,117.4135730625,117.69432675000002,62.0,77.0
512,117.65166806250001,118.05642956250001,57.0,75.0
513,117.88976306250001,118.54849256250002,62.0,67.0
514,118.60404806250001,118.92250012500001,55.0,76.0
515,118.84214306250001,119.18043637500001,59.0,83.0
516,119.31833306250002,119.44829325,55.0,74.0
517,119.31833306250002,119.60603118750001,62.0,75.0
518,118.36595306250001,119.80146750000002,50.0,67.0
519,119.55642806250002,119.84809443750001,55.0,71.0
520,118.12785806250001,119.88579281250001,43.0,75.0
521,120.0326180625,120.16357031250001,55.0,74.0
522,120.0326180625,120.27964162500001,60.0,74.0
523,120.27071306250001,120.56733975000002,55.0,69.0
524,120.50880806250001,120.77666493750002,60.0,68.0
525,120.74690306250001,121.09214081250002,62.0,75.0
526,121.22309306250001,121.51277531250001,64.0,79.0
527,120.0326180625,121.56535462500001,48.0,75.0
528,121.46118806250001,121.71515606250001,62.0,70.0
529,121.69928306250002,121.84015593750001,60.0,58.0
530,121.93737806250002,122.44035375000001,62.0,70.0
531,122.41356806250002,122.54253618750002,55.0,72.0
532,122.6516630625,122.96813100000001,55.0,67.0
533,122.6516630625,122.98598812500002,59.0,72.0
534,122.6516630625,123.01674206250001,62.0,75.0
535,123.12785306250001,123.72904293750001,55.0,74.0
536,122.17547306250002,123.76574925000001,50.0,63.0
537,121.93737806250002,123.78559050000001,43.0,75.0
538,123.84213806250001,124.12686000000001,60.0,67.0
539,124.08023306250001,124.39670100000001,55.0,70.0
540,124.31832806250002,124.56634368750001,60.0,68.0
541,124.55642306250002,125.30344612500001,64.0,75.0
542,125.27070806250002,125.38876350000001,60.0,68.0
543,123.84213806250001,125.43539043750002,48.0,69.0
544,125.74689806250001,125.88876300000001,59.0,69.0
545,125.74689806250001,126.01773112500001,64.0,74.0
546,125.98499306250001,126.25582612500001,59.0,71.0
547,126.22308806250001,126.33618318750001,64.0,67.0
548,126.46118306250001,126.92844450000001,67.0,75.0
549,126.93737306250001,127.09411893750001,64.0,75.0
550,125.74689806250001,127.15463475000001,52.0,72.0
551,127.17546806250002,127.26177750000001,59.0,70.0
552,127.65165806250002,127.84312612500001,57.0,64.0
553,127.65165806250002,128.2191178125,60.0,68.0
554,128.12784806250002,128.3560224375,57.0,69.0
555,127.88975306250002,128.45721281250002,48.0,61.0
556,127.65165806250002,128.46713343750002,41.0,74.0
557,128.3659430625,129.05443443750002,65.0,74.0
558,129.08022806250003,129.37288650000002,55.0,74.0
559,128.60403806250002,129.38280712500003,43.0,75.0
560,128.8421330625,129.386775375,50.0,69.0
561,129.5564180625,129.70225125000002,55.0,69.0
562,129.5564180625,129.82625906250001,60.0,71.0
563,129.79451306250002,130.0901476875,55.0,70.0
564,130.0326080625,130.253838,60.0,69.0
565,130.27070306250002,130.53855993750003,64.0,74.0
566,129.5564180625,130.9214960625,48.0,75.0
567,130.74689306250002,131.0425276875,64.0,78.0
568,130.9849880625,131.4591939375,55.0,75.0
569,131.4611780625,131.616931875,57.0,69.0
570,131.4611780625,131.7568126875,62.0,67.0
571,131.69927306250003,131.9988759375,57.0,68.0
572,131.9373680625,132.23399475000002,62.0,68.0
573,131.4611780625,132.63875625,50.0,70.0
574,132.1754630625,132.67347843750002,65.0,76.0
575,132.6516530625,132.8808195,62.0,76.0
576,132.88974806250002,133.00780350000002,57.0,67.0
577,133.36593806250002,133.5623664375,59.0,68.0
578,133.36593806250002,133.898675625,64.0,71.0
579,133.84212806250002,133.9988739375,59.0,72.0
580,134.0802230625,134.267722875,59.0,75.0
581,134.0802230625,134.57625431250003,67.0,74.0
582,133.6040330625,134.6437145625,47.0,63.0
583,134.5564130625,134.6754605625,59.0,74.0
584,133.36593806250002,134.7091906875,40.0,75.0
585,134.5564130625,134.84510325000002,64.0,77.0
586,134.7945080625,134.91355556250002,59.0,66.0
587,135.2706980625,135.5524438125,62.0,70.0
588,135.50879306250002,135.79549912500002,57.0,73.0
589,135.7468880625,135.8917291875,62.0,68.0
590,135.98498306250002,136.307403375,65.0,80.0
591,135.2706980625,136.6079983125,50.0,73.0
592,136.46117306250002,136.66355381250003,62.0,75.0
593,136.6992680625,136.993910625,57.0,75.0
594,137.1754580625,137.6000608125,62.0,67.0
595,137.65164806250002,137.93240175000003,55.0,76.0
596,137.8897430625,138.4135520625,60.0,75.0
597,138.3659330625,138.69331368750002,67.0,74.0
598,138.60402806250002,138.77267868750002,55.0,78.0
599,137.41355306250003,138.79847231250002,50.0,62.0
600,137.1754580625,138.85700400000002,43.0,75.0
601,139.08021806250002,139.21513856250002,55.0,74.0
602,139.08021806250002,139.3579955625,60.0,70.0
603,139.3183130625,139.612955625,55.0,70.0
604,139.55640806250003,139.7369634375,60.0,69.0
605,139.7945030625,140.08616943750002,62.0,74.0
606,140.27069306250002,140.42049450000002,64.0,77.0
607,139.08021806250002,140.45620875,48.0,73.0
608,140.9849780625,141.43239825,67.0,72.0
609,141.4611680625,141.7746598125,59.0,59.0
610,141.69926306250002,141.9532310625,64.0,76.0
611,141.22307306250002,142.2905323125,47.0,62.0
612,142.17545306250003,142.30442118750003,67.0,74.0
613,142.17545306250003,142.32029418750002,59.0,72.0
614,140.9849780625,142.3242624375,40.0,74.0
615,142.88973806250002,143.108983875,53.0,70.0
616,142.88973806250002,143.30739637500002,57.0,68.0
617,143.36592806250002,143.561364375,53.0,74.0
618,143.1278330625,143.61096750000002,48.0,68.0
619,142.88973806250002,143.616919875,41.0,72.0
620,143.84211806250002,144.08219718750001,55.0,69.0
621,143.84211806250002,144.28358587500003,59.0,69.0
622,144.31830806250002,144.60303000000002,55.0,74.0
623,144.0802130625,144.64271250000002,50.0,61.0
624,143.84211806250002,144.67346643750002,43.0,74.0
625,144.5564030625,144.80838693750002,59.0,76.0
626,144.79449806250003,145.07425968750002,60.0,76.0
627,145.0325930625,145.34509275000002,55.0,74.0
628,145.27068806250003,145.53457668750002,60.0,73.0
629,145.50878306250002,145.8619573125,64.0,79.0
630,144.79449806250003,146.0127508125,48.0,75.0
631,145.98497306250002,146.0722745625,60.0,76.0
632,146.6992580625,146.841123,57.0,68.0
633,146.6992580625,147.01572600000003,62.0,72.0
634,146.93735306250002,147.20620200000002,57.0,69.0
635,147.1754480625,147.3202891875,62.0,66.0
636,147.41354306250003,147.69528881250002,65.0,76.0
637,147.88973306250003,148.0395345,62.0,77.0
638,146.6992580625,148.073264625,50.0,71.0
639,148.60401806250002,148.7607639375,59.0,69.0
640,148.60401806250002,148.99290656250002,64.0,72.0
641,149.08020806250002,149.20917618750002,59.0,77.0
642,149.3183030625,149.51473143750002,59.0,79.0
643,149.3183030625,149.62683450000003,67.0,74.0
644,148.8421130625,149.85302475,47.0,62.0
645,148.60401806250002,149.8758421875,40.0,75.0
646,149.7944930625,149.9056040625,64.0,76.0
647,149.7944930625,149.93040562500002,59.0,76.0
648,150.50877806250003,150.716119125,57.0,67.0
649,150.50877806250003,151.00480931250002,60.0,71.0
650,150.9849680625,151.0980631875,57.0,71.0
651,151.22306306250002,151.38476925,57.0,75.0
652,151.22306306250002,151.4998485,65.0,74.0
653,151.69925306250002,151.85897512500003,57.0,74.0
654,151.69925306250002,151.87683225,60.0,77.0
655,150.74687306250001,152.27068106250002,48.0,62.0
656,150.50877806250003,152.28060168750002,41.0,74.0
657,152.4135380625,152.62881562500002,57.0,64.0
658,152.4135380625,152.90262487500001,60.0,65.0
659,152.8897280625,153.00778350000002,57.0,69.0
660,153.12782306250003,153.41651325,65.0,77.0
661,152.65163306250003,153.79448906250002,48.0,64.0
662,153.60401306250003,153.8222668125,60.0,83.0
663,152.4135380625,153.86790168750002,41.0,71.0
664,153.84210806250002,154.11492525000003,57.0,73.0
665,154.0802030625,154.1774251875,60.0,74.0
666,154.31829806250002,154.81036106250002,59.0,76.0
667,154.79448806250002,155.12881312500002,55.0,80.0
668,155.0325830625,155.545479375,62.0,77.0
669,154.5563930625,156.06333600000002,50.0,63.0
670,154.31829806250002,156.0722645625,43.0,74.0
671,155.74686806250003,156.0960740625,55.0,74.0
672,155.5087730625,156.31333575000002,67.0,75.0
673,155.98496306250001,156.54746250000002,62.0,67.0
674,156.6992480625,156.8143273125,55.0,72.0
675,156.93734306250002,156.9829779375,55.0,63.0
676,156.93734306250002,157.2468665625,59.0,75.0
677,156.93734306250002,157.25579512500002,62.0,73.0
678,156.46115306250002,157.49488218750002,50.0,67.0
679,156.22305806250003,157.60896937500002,43.0,74.0
680,157.41353306250002,157.7091676875,55.0,68.0
681,157.41353306250002,157.77662793750002,62.0,76.0
682,157.88972306250002,158.01571500000003,55.0,76.0
683,158.1278180625,158.46908756250002,55.0,69.0
684,158.1278180625,158.825238,62.0,70.0
685,158.60400806250001,159.08416631250003,55.0,77.0
686,158.84210306250003,159.12186468750002,59.0,75.0
687,159.3182930625,159.4651183125,59.0,75.0
688,159.3182930625,159.4839675,62.0,68.0
689,159.3182930625,159.48495956250002,55.0,69.0
690,158.36591306250003,159.8044036875,50.0,63.0
691,158.1278180625,159.84309412500002,43.0,75.0
692,160.03257806250002,160.54845056250002,67.0,73.0
693,160.03257806250002,160.76174400000002,55.0,69.0
694,160.03257806250002,160.76670431250002,59.0,72.0
695,160.03257806250002,161.6794018125,43.0,76.0
696,161.46114806250003,161.87186193750003,59.0,80.0
697,161.9373380625,162.21511556250002,60.0,69.0
698,161.9373380625,162.35995668750002,67.0,71.0
699,162.4135280625,162.52860731250001,60.0,83.0
700,162.65162306250002,162.8242419375,60.0,78.0
701,162.65162306250002,162.83019431250003,67.0,75.0
702,163.12781306250002,163.2190828125,64.0,83.0
703,163.12781306250002,163.24686056250002,60.0,77.0
704,162.17543306250002,163.6139236875,55.0,65.0
705,161.9373380625,163.65459825000002,48.0,79.0
706,163.60400306250003,163.73297118750003,60.0,77.0
707,163.8420980625,164.04943912500002,60.0,77.0
708,163.8420980625,164.16551043750002,67.0,74.0
709,164.31828806250002,164.43138318750002,60.0,78.0
710,164.5563830625,164.882771625,60.0,81.0
711,164.5563830625,164.958168375,67.0,77.0
712,165.0325730625,165.32126325000002,64.0,75.0
713,165.27066806250002,165.40162031250003,60.0,76.0
714,163.8420980625,165.48693768750002,48.0,78.0
715,164.08019306250003,165.76570725000002,55.0,67.0
716,165.74685806250002,165.93237375,59.0,70.0
717,165.74685806250002,166.188325875,67.0,72.0
718,166.22304806250003,166.37880187500002,59.0,78.0
719,166.4611430625,166.664515875,59.0,76.0
720,166.4611430625,166.704198375,62.0,76.0
721,166.93733306250002,167.08713450000002,59.0,75.0
722,166.93733306250002,167.24189625000002,67.0,76.0
723,165.74685806250002,167.51967375,47.0,75.0
724,167.41352306250002,167.52661818750002,59.0,77.0
725,165.9849530625,167.54943562500003,55.0,68.0
726,167.6516180625,167.82820518750003,59.0,77.0
727,168.1278080625,168.2617365,59.0,76.0
728,167.6516180625,168.26868093750002,67.0,75.0
729,167.6516180625,168.43237125000002,47.0,76.0
730,168.36590306250002,168.48395850000003,62.0,68.0
731,168.6039980625,168.85300575000002,57.0,75.0
732,168.6039980625,168.89566443750002,60.0,78.0
733,168.84209306250003,169.3440766875,52.0,63.0
734,169.0801880625,169.40260837500003,57.0,78.0
735,169.31828306250003,169.44526706250002,60.0,69.0
736,168.6039980625,169.4670924375,45.0,74.0
737,169.55637806250002,169.84506825000003,57.0,70.0
738,169.55637806250002,170.10895687500002,65.0,72.0
739,170.03256806250002,170.17740918750002,57.0,78.0
740,170.2706630625,170.58713100000003,60.0,83.0
741,170.2706630625,170.5940754375,57.0,75.0
742,169.79447306250003,171.02760675000002,48.0,68.0
743,170.7468530625,171.03058293750001,57.0,76.0
744,169.55637806250002,171.05538450000003,41.0,75.0
745,170.7468530625,171.0702654375,65.0,74.0
746,171.46113806250003,171.62681250000003,59.0,71.0
747,171.46113806250003,171.75875681250002,64.0,69.0
748,171.6992330625,171.98593912500002,59.0,74.0
749,171.93732806250003,172.04546287500003,64.0,72.0
750,172.17542306250002,172.31927212500003,67.0,74.0
751,172.17542306250002,172.32820068750001,59.0,77.0
752,172.65161306250002,172.77165262500003,59.0,76.0
753,172.65161306250002,172.84605731250002,64.0,79.0
754,171.46113806250003,172.8658985625,52.0,76.0
755,172.8897080625,172.98593812500002,59.0,75.0
756,173.3658980625,173.48792175000003,57.0,70.0
757,173.3658980625,173.58812006250002,62.0,70.0
758,173.60399306250002,173.79645318750002,57.0,70.0
759,173.8420880625,173.9135165625,62.0,67.0
760,174.08018306250003,174.27264318750002,57.0,75.0
761,174.08018306250003,174.31728600000002,65.0,78.0
762,174.55637306250003,174.6793888125,57.0,75.0
763,174.55637306250003,174.77363475,62.0,77.0
764,173.3658980625,174.80141250000003,50.0,74.0
765,174.79446806250002,175.02264243750002,57.0,75.0
766,175.03256306250003,175.53653081250002,62.0,76.0
767,175.74684806250002,176.061331875,55.0,80.0
768,175.9849430625,176.27065706250002,62.0,74.0
769,176.22303806250002,176.7508153125,67.0,78.0
770,176.4611330625,176.75478356250002,55.0,74.0
771,175.5087530625,177.04744200000002,50.0,63.0
772,176.69922806250003,177.053394375,62.0,71.0
773,175.27065806250002,177.07918800000002,43.0,74.0
774,177.17541806250003,177.4531955625,60.0,69.0
775,177.17541806250003,177.5980366875,67.0,71.0
776,177.65160806250003,177.7666873125,60.0,83.0
777,177.88970306250002,178.06232193750003,60.0,78.0
778,177.88970306250002,178.06827431250002,67.0,75.0
779,178.36589306250002,178.45716281250003,64.0,83.0
780,178.36589306250002,178.48494056250001,60.0,77.0
781,177.41351306250002,178.85200368750003,55.0,65.0
782,177.17541806250003,178.89267825000002,48.0,79.0
783,178.84208306250002,178.97105118750002,60.0,77.0
784,179.0801780625,179.28751912500002,60.0,77.0
785,179.0801780625,179.40359043750001,67.0,74.0
786,179.5563680625,179.6694631875,60.0,78.0
787,179.79446306250003,180.12085162500003,60.0,81.0
788,179.79446306250003,180.196248375,67.0,77.0
789,180.27065306250003,180.55934325,64.0,75.0
790,180.50874806250002,180.63970031250003,60.0,76.0
791,179.0801780625,180.7250176875,48.0,78.0
792,179.31827306250003,181.00378725000002,55.0,67.0
793,180.98493806250002,181.17045375,59.0,70.0
794,180.98493806250002,181.42640587500003,67.0,72.0
795,181.46112806250002,181.61688187500002,59.0,78.0
796,181.6992230625,181.90259587500003,59.0,76.0
797,181.6992230625,181.94227837500003,62.0,76.0
798,182.1754130625,182.32521450000002,59.0,75.0
799,182.1754130625,182.47997625000002,67.0,76.0
800,180.98493806250002,182.75775375,47.0,75.0
801,182.65160306250002,182.76469818750002,59.0,77.0
802,181.2230330625,182.78751562500003,55.0,68.0
803,182.88969806250003,183.06628518750003,59.0,77.0
804,183.36588806250003,183.4998165,59.0,76.0
805,182.88969806250003,183.50676093750002,67.0,75.0
806,182.88969806250003,183.67045125,47.0,76.0
807,183.60398306250002,183.72203850000002,62.0,68.0
808,183.8420780625,184.09108575000002,57.0,75.0
809,183.8420780625,184.1337444375,60.0,78.0
810,184.08017306250002,184.58215668750003,52.0,63.0
811,184.3182680625,184.64068837500002,57.0,78.0
812,184.55636306250003,184.68334706250002,60.0,69.0
813,183.8420780625,184.7051724375,45.0,74.0
814,184.7944580625,185.08314825000002,57.0,70.0
815,184.7944580625,185.34703687500001,65.0,72.0
816,185.27064806250002,185.41548918750001,57.0,78.0
817,185.50874306250003,185.82521100000002,60.0,83.0
818,185.50874306250003,185.8321554375,57.0,75.0
819,185.03255306250003,186.26568675000001,48.0,68.0
820,185.98493306250003,186.2686629375,57.0,76.0
821,184.7944580625,186.29346450000003,41.0,75.0
822,185.98493306250003,186.3083454375,65.0,74.0
823,186.69921806250002,186.86489250000002,59.0,71.0
824,186.69921806250002,186.99683681250002,64.0,69.0
825,186.9373130625,187.224019125,59.0,74.0
826,187.17540806250003,187.28354287500002,64.0,72.0
827,187.4135030625,187.55735212500002,67.0,74.0
828,187.4135030625,187.5662806875,59.0,77.0
829,187.88969306250002,188.00973262500003,59.0,76.0
830,187.88969306250002,188.08413731250002,64.0,79.0
831,186.69921806250002,188.10397856250003,52.0,76.0
832,188.12778806250003,188.22401812500001,59.0,75.0
833,188.60397806250003,188.72600175000002,57.0,70.0
834,188.60397806250003,188.82620006250002,62.0,70.0
835,188.84207306250002,189.03453318750002,57.0,70.0
836,189.0801680625,189.15159656250003,62.0,67.0
837,189.31826306250002,189.51072318750002,57.0,75.0
838,189.31826306250002,189.55536600000002,65.0,78.0
839,189.79445306250003,189.91746881250003,57.0,75.0
840,189.79445306250003,190.01171475,62.0,77.0
841,188.60397806250003,190.03949250000002,50.0,74.0
842,190.0325480625,190.26072243750002,57.0,75.0
843,190.27064306250003,190.77461081250001,62.0,76.0
844,190.98492806250002,191.29941187500003,55.0,80.0
845,191.22302306250003,191.50873706250002,62.0,74.0
846,191.46111806250002,191.98889531250003,67.0,78.0
847,191.6992130625,191.99286356250002,55.0,74.0
848,190.74683306250003,192.28552200000001,50.0,63.0
849,191.93730806250002,192.291474375,62.0,71.0
850,190.50873806250002,192.317268,43.0,74.0
851,192.41349806250003,192.6912755625,60.0,69.0
852,192.41349806250003,192.8361166875,67.0,71.0
853,192.88968806250003,193.0047673125,60.0,83.0
854,193.12778306250001,193.30040193750003,60.0,78.0
855,193.12778306250001,193.30635431250002,67.0,75.0
856,193.60397306250002,193.69524281250003,64.0,83.0
857,193.60397306250002,193.7230205625,60.0,77.0
858,192.6515930625,194.09008368750003,55.0,65.0
859,192.41349806250003,194.13075825,48.0,79.0
860,194.08016306250002,194.20913118750002,60.0,77.0
861,194.3182580625,194.525599125,60.0,77.0
862,194.3182580625,194.6416704375,67.0,74.0
863,194.7944480625,194.9075431875,60.0,78.0
864,195.03254306250003,195.35893162500003,60.0,81.0
865,195.03254306250003,195.434328375,67.0,77.0
866,195.50873306250003,195.79742325,64.0,75.0
867,195.74682806250001,195.87778031250002,60.0,76.0
868,194.3182580625,195.9630976875,48.0,78.0
869,194.55635306250002,196.24186725,55.0,67.0
870,196.22301806250002,196.40853375000003,59.0,70.0
871,196.22301806250002,196.66448587500003,67.0,72.0
872,196.69920806250002,196.85496187500001,59.0,78.0
873,196.9373030625,197.14067587500003,59.0,76.0
874,196.9373030625,197.18035837500003,62.0,76.0
875,197.4134930625,197.5632945,59.0,75.0
876,197.4134930625,197.71805625000002,67.0,76.0
877,196.22301806250002,197.99583375000003,47.0,75.0
878,197.8896830625,198.0027781875,59.0,77.0
879,196.46111306250003,198.02559562500002,55.0,68.0
880,198.12777806250003,198.30436518750003,59.0,77.0
881,198.60396806250003,198.73789650000003,59.0,76.0
882,198.12777806250003,198.74484093750002,67.0,75.0
883,198.12777806250003,198.90853125,47.0,76.0
884,198.84206306250002,198.96011850000002,62.0,68.0
885,199.08015806250003,199.32916575000002,57.0,75.0
886,199.08015806250003,199.3718244375,60.0,78.0
887,199.31825306250002,199.82023668750003,52.0,63.0
888,199.55634806250004,199.87876837500002,57.0,78.0
889,199.79444306250002,199.92142706250002,60.0,69.0
890,199.08015806250003,199.94325243750004,45.0,74.0
891,200.0325380625,200.32122825000002,57.0,70.0
892,200.0325380625,200.585116875,65.0,72.0
893,200.5087280625,200.6535691875,57.0,78.0
894,200.74682306250003,201.06329100000002,60.0,83.0
895,200.74682306250003,201.07023543750003,57.0,75.0
896,200.27063306250002,201.50376675,48.0,68.0
897,201.22301306250003,201.5067429375,57.0,76.0
898,200.0325380625,201.53154450000002,41.0,75.0
899,201.22301306250003,201.54642543750003,65.0,74.0
900,201.93729806250002,202.10297250000002,59.0,71.0
901,201.93729806250002,202.23491681250002,64.0,69.0
902,202.17539306250004,202.462099125,59.0,74.0
903,202.41348806250002,202.52162287500002,64.0,72.0
904,202.6515830625,202.79543212500002,67.0,74.0
905,202.6515830625,202.8043606875,59.0,77.0
906,203.1277730625,203.24781262500002,59.0,76.0
907,203.1277730625,203.32221731250002,64.0,79.0
908,201.93729806250002,203.34205856250003,52.0,76.0
909,203.36586806250003,203.462098125,59.0,75.0
910,203.84205806250003,203.96408175000002,57.0,70.0
911,203.84205806250003,204.06428006250002,62.0,70.0
912,204.08015306250002,204.2726131875,57.0,70.0
913,204.31824806250003,204.38967656250003,62.0,67.0
914,204.55634306250002,204.74880318750002,57.0,75.0
915,204.55634306250002,204.79344600000002,65.0,78.0
916,205.03253306250002,205.15554881250003,57.0,75.0
917,205.03253306250002,205.24979475000004,62.0,77.0
918,203.84205806250003,205.27757250000002,50.0,74.0
919,205.2706280625,205.49880243750002,57.0,75.0
920,205.50872306250002,206.0126908125,62.0,76.0
921,206.2230080625,206.53749187500003,55.0,80.0
922,206.46110306250003,206.7468170625,62.0,74.0
923,206.69919806250002,207.22697531250003,67.0,78.0
924,206.93729306250003,207.23094356250002,55.0,74.0
925,205.98491306250003,207.523602,50.0,63.0
926,207.17538806250002,207.52955437500003,62.0,71.0
927,205.7468180625,207.555348,43.0,74.0
928,207.65157806250002,207.92935556250004,60.0,69.0
929,207.65157806250002,208.07419668750003,67.0,71.0
930,208.12776806250002,208.24284731250003,60.0,83.0
931,208.3658630625,208.53848193750002,60.0,78.0
932,208.3658630625,208.54443431250002,67.0,75.0
933,208.8420530625,208.93332281250002,64.0,83.0
934,208.8420530625,208.96110056250004,60.0,77.0
935,207.8896730625,209.32816368750002,55.0,65.0
936,207.65157806250002,209.36883825,48.0,79.0
937,209.31824306250002,209.44721118750002,60.0,77.0
938,209.55633806250003,209.763679125,60.0,77.0
939,209.55633806250003,209.87975043750004,67.0,74.0
940,210.03252806250003,210.14562318750004,60.0,78.0
941,210.27062306250002,210.59701162500002,60.0,81.0
942,210.27062306250002,210.67240837500003,67.0,77.0
943,210.74681306250002,211.03550325000003,64.0,75.0
944,210.9849080625,211.11586031250002,60.0,76.0
945,209.55633806250003,211.20117768750004,48.0,78.0
946,209.79443306250002,211.47994725,55.0,67.0
947,211.4610980625,211.64661375000003,59.0,70.0
948,211.4610980625,211.90256587500002,67.0,72.0
949,211.93728806250002,212.093041875,59.0,78.0
950,212.17538306250003,212.37875587500002,59.0,76.0
951,212.17538306250003,212.41843837500002,62.0,76.0
952,212.65157306250003,212.8013745,59.0,75.0
953,212.65157306250003,212.95613625000001,67.0,76.0
954,211.4610980625,213.23391375000003,47.0,75.0
955,213.1277630625,213.2408581875,59.0,77.0
956,211.69919306250003,213.26367562500002,55.0,68.0
957,213.36585806250002,213.54244518750002,59.0,77.0
958,213.84204806250003,213.97597650000003,59.0,76.0
959,213.36585806250002,213.9829209375,67.0,75.0
960,213.36585806250002,214.14661125000003,47.0,76.0
961,214.0801430625,214.19819850000002,62.0,68.0
962,214.31823806250003,214.56724575,57.0,75.0
963,214.31823806250003,214.60990443750003,60.0,78.0
964,214.55633306250002,215.05831668750002,52.0,63.0
965,214.79442806250003,215.11684837500002,57.0,78.0
966,215.03252306250002,215.1595070625,60.0,69.0
967,214.31823806250003,215.18133243750003,45.0,74.0
968,215.27061806250003,215.55930825000002,57.0,70.0
969,215.27061806250003,215.82319687500004,65.0,72.0
970,215.74680806250004,215.89164918750004,57.0,78.0
971,215.98490306250002,216.30137100000002,60.0,83.0
972,215.98490306250002,216.30831543750003,57.0,75.0
973,215.50871306250002,216.74184675000004,48.0,68.0
974,216.46109306250003,216.74482293750003,57.0,76.0
975,215.27061806250003,216.76962450000002,41.0,75.0
976,216.46109306250003,216.78450543750003,65.0,74.0
977,217.17537806250002,217.34105250000002,59.0,71.0
978,217.17537806250002,217.4729968125,64.0,69.0
979,217.41347306250003,217.70017912500003,59.0,74.0
980,217.65156806250002,217.75970287500002,64.0,72.0
981,217.88966306250003,218.03351212500002,67.0,74.0
982,217.88966306250003,218.04244068750003,59.0,77.0
983,218.36585306250004,218.48589262500002,59.0,76.0
984,218.36585306250004,218.5602973125,64.0,79.0
985,217.17537806250002,218.58013856250003,52.0,76.0
986,218.60394806250002,218.70017812500004,59.0,75.0
987,219.08013806250003,219.20216175000002,57.0,70.0
988,219.08013806250003,219.30236006250001,62.0,70.0
989,219.3182330625,219.5106931875,57.0,70.0
990,219.55632806250003,219.62775656250002,62.0,67.0
991,219.79442306250002,219.9868831875,57.0,75.0
992,219.79442306250002,220.031526,65.0,78.0
993,220.27061306250002,220.39362881250003,57.0,75.0
994,220.27061306250002,220.48787475000003,62.0,77.0
995,219.08013806250003,220.51565250000002,50.0,74.0
996,220.50870806250003,220.73688243750001,57.0,75.0
997,220.74680306250002,221.25077081250004,62.0,76.0
998,221.4610880625,221.77557187500003,55.0,80.0
999,221.69918306250003,221.9848970625,62.0,74.0
1000,221.9372780625,222.46505531250003,67.0,78.0
1001,222.17537306250003,222.4690235625,55.0,74.0
1002,221.22299306250002,222.76168200000004,50.0,63.0
1003,222.41346806250002,222.76763437500003,62.0,71.0
1004,220.98489806250004,222.79342800000003,43.0,74.0
1005,222.88965806250002,223.03648331250002,55.0,75.0
1006,222.88965806250002,223.15255462500002,60.0,72.0
1007,223.12775306250003,223.43231625,55.0,74.0
1008,223.36584806250002,223.52060981250003,60.0,74.0
1009,223.60394306250004,224.11187906250004,62.0,72.0
1010,222.88965806250002,224.64759281250002,48.0,80.0
1011,224.5563230625,224.88667987500003,55.0,74.0
1012,224.0801330625,225.04640193750004,60.0,76.0
1013,225.03251306250002,225.35890162500002,55.0,74.0
1014,225.27060806250003,225.36783018750003,60.0,68.0
1015,225.50870306250002,225.64957593750003,64.0,78.0
1016,225.50870306250002,225.6594965625,55.0,76.0
1017,225.98489306250002,226.11882150000002,60.0,79.0
1018,225.98489306250002,226.12080562500003,55.0,80.0
1019,224.79441806250003,226.23290868750001,48.0,80.0
1020,226.6991780625,226.82715412500002,55.0,70.0
1021,226.6991780625,226.94223337500003,60.0,69.0
1022,226.93727306250003,227.24282831250002,55.0,68.0
1023,227.1753680625,227.29441556250003,60.0,69.0
1024,227.41346306250003,227.65850250000003,55.0,72.0
1025,227.41346306250003,227.70314531250003,62.0,69.0
1026,227.88965306250003,228.02953387500003,55.0,74.0
1027,227.88965306250003,228.10889887500002,60.0,74.0
1028,226.6991780625,228.38568431250002,48.0,77.0
1029,228.36584306250003,228.70314431250003,55.0,77.0
1030,228.84203306250004,229.10691375000002,55.0,75.0
1031,229.08012806250002,229.17238987500002,60.0,70.0
1032,229.31822306250004,229.52655618750003,55.0,76.0
1033,229.31822306250004,229.54540537500003,64.0,78.0
1034,229.7944130625,229.90155581250002,55.0,71.0
1035,229.7944130625,230.07417468750003,60.0,76.0
1036,228.60393806250002,230.43627750000002,48.0,76.0
1037,230.03250806250003,230.51167425000003,55.0,76.0
1038,230.50869806250003,230.81425331250003,53.0,66.0
1039,230.50869806250003,231.03449118750004,60.0,66.0
1040,230.98488806250003,231.31623693750004,53.0,75.0
1041,231.22298306250002,231.35294325000004,57.0,76.0
1042,231.69917306250002,231.90849825000004,53.0,74.0
1043,231.69917306250002,231.93230775000004,60.0,74.0
1044,230.74679306250002,232.20314081250004,48.0,62.0
1045,230.50869806250003,232.24381537500003,41.0,75.0
1046,232.17536306250003,232.43429137500002,53.0,76.0
1047,232.88964806250002,233.03448918750001,52.0,78.0
1048,233.12774306250003,233.36583806250002,52.0,74.0
1049,233.12774306250003,233.41742531250003,59.0,73.0
1050,232.65155306250003,233.68627425000003,47.0,67.0
1051,233.60393306250003,233.70909168750003,55.0,77.0
1052,233.60393306250003,233.72496468750003,52.0,80.0
1053,232.4134580625,233.73389325000002,40.0,76.0
1054,234.31821806250002,234.561273375,57.0,69.0
1055,234.31821806250002,234.68924943750002,60.0,70.0
1056,234.79440806250003,234.91841587500002,57.0,76.0
1057,235.0325030625,235.21305843750002,57.0,76.0
1058,235.0325030625,235.24480443750002,64.0,76.0
1059,235.50869306250002,235.65353418750001,60.0,77.0
1060,235.50869306250002,235.66643100000002,57.0,75.0
1061,234.55631306250004,236.05234331250003,52.0,64.0
1062,234.31821806250002,236.09004168750002,45.0,75.0
1063,235.98488306250002,236.27059706250003,57.0,75.0
1064,236.22297806250003,236.27059706250003,57.0,65.0
1065,236.22297806250003,236.71107281250002,60.0,73.0
1066,236.69916806250004,236.79639018750004,57.0,74.0
1067,236.93726306250002,237.19222312500003,64.0,77.0
1068,236.93726306250002,237.24480243750003,57.0,76.0
1069,237.41345306250003,237.65750043750003,57.0,77.0
1070,237.41345306250003,237.90849225000002,60.0,80.0
1071,236.46107306250002,237.99083343750002,52.0,64.0
1072,236.22297806250003,238.04043656250002,45.0,76.0
1073,237.88964306250003,238.17436500000002,57.0,83.0
1074,238.12773806250001,238.48488056250002,65.0,77.0
1075,238.36583306250003,238.66841212500003,57.0,75.0
1076,238.60392806250002,238.70511843750003,62.0,69.0
1077,238.84202306250003,239.13269737500002,57.0,74.0
1078,238.84202306250003,239.14460212500003,65.0,75.0
1079,239.31821306250004,239.44222087500003,62.0,72.0
1080,238.12773806250001,239.4809113125,50.0,77.0
1081,239.31821306250004,239.49579225000002,57.0,74.0
1082,240.03249806250003,240.27753750000002,55.0,72.0
1083,240.03249806250003,240.44817225000003,62.0,69.0
1084,240.50868806250003,240.82515600000002,55.0,75.0
1085,240.74678306250001,241.30333012500003,59.0,74.0
1086,240.2705930625,241.53249656250003,50.0,65.0
1087,241.46106806250003,241.66741706250002,55.0,76.0
1088,240.03249806250003,241.68031387500002,43.0,74.0
1089,241.22297306250002,241.6813059375,67.0,74.0
1090,241.93725806250004,242.06721825000002,55.0,74.0
1091,241.93725806250004,242.21999587500002,60.0,69.0
1092,242.17535306250002,242.4868606875,55.0,74.0
1093,242.41344806250004,242.5315035,60.0,70.0
1094,242.65154306250002,242.94717768750002,55.0,72.0
1095,242.65154306250002,243.02059031250002,62.0,76.0
1096,243.12773306250003,243.30332812500004,55.0,76.0
1097,243.12773306250003,243.33408206250002,60.0,74.0
1098,241.93725806250004,243.62178018750004,48.0,76.0
1099,243.84201806250002,244.0503511875,59.0,73.0
1100,243.84201806250002,244.34598581250003,62.0,72.0
1101,244.31820806250002,244.42634287500002,59.0,78.0
1102,244.55630306250004,244.88963606250002,59.0,80.0
1103,244.55630306250004,244.89162018750002,67.0,74.0
1104,245.03249306250004,245.14360406250003,59.0,77.0
1105,245.03249306250004,245.28943725000002,62.0,78.0
1106,244.08011306250003,245.38070700000003,50.0,66.0
1107,245.27058806250002,245.38368318750003,59.0,72.0
1108,243.84201806250002,245.43328631250003,43.0,75.0
1109,245.74677806250003,245.92634137500002,57.0,70.0
1110,245.74677806250003,246.30034893750002,60.0,73.0
1111,246.22296806250003,246.50372175000004,57.0,76.0
1112,246.46106306250002,246.82415793750002,65.0,69.0
1113,245.98487306250001,247.19022900000002,48.0,63.0
1114,246.93725306250002,247.19022900000002,60.0,83.0
1115,245.74677806250003,247.22891943750002,41.0,75.0
1116,247.17534806250003,247.27058606250003,57.0,76.0
1117,247.65153806250004,247.80828393750002,59.0,69.0
1118,247.65153806250004,247.90451400000003,64.0,75.0
1119,247.88963306250002,248.18229150000002,59.0,74.0
1120,248.12772806250004,248.21106131250002,64.0,73.0
1121,248.36582306250003,248.52852131250003,59.0,78.0
1122,248.36582306250003,248.57217206250002,67.0,76.0
1123,248.84201306250003,248.94121931250004,64.0,79.0
1124,247.65153806250004,248.94915581250004,52.0,77.0
1125,248.84201306250003,248.97693356250002,59.0,76.0
1126,249.55629806250002,249.84399618750004,57.0,68.0
1127,249.55629806250002,250.08308325000002,60.0,70.0
1128,250.03248806250002,250.32613856250003,55.0,80.0
1129,250.27058306250004,250.65947156250002,60.0,80.0
1130,250.74677306250004,251.02653468750003,64.0,78.0
1131,250.98486806250003,251.24379637500002,60.0,70.0
1132,249.79439306250003,251.29339950000002,52.0,68.0
1133,249.55629806250002,251.30332012500003,45.0,74.0
1134,251.2229630625,251.59201031250004,55.0,79.0
1135,251.93724806250003,252.21800175,57.0,80.0
1136,252.17534306250002,252.45510468750004,60.0,76.0
1137,251.69915306250002,252.68923143750004,52.0,75.0
1138,251.46105806250003,252.73387425,45.0,74.0
1139,252.65153306250002,252.86581856250004,57.0,70.0
1140,252.65153306250002,252.89954868750002,64.0,78.0
1141,252.65153306250002,252.91641375000003,60.0,76.0
1142,252.88962806250004,253.20609600000003,45.0,75.0
1143,253.12772306250002,253.25867531250003,57.0,83.0
1144,253.36581806250004,253.70907168750003,65.0,78.0
1145,253.60391306250003,253.84101600000002,57.0,74.0
1146,253.8420080625,254.12573793750002,64.0,73.0
1147,254.08010306250003,254.39657100000002,57.0,75.0
1148,254.55629306250003,254.59597556250003,57.0,55.0
1149,253.36581806250004,254.82712612500004,50.0,76.0
1150,254.55629306250003,254.83704675,62.0,77.0
1151,254.79438806250002,255.19914956250003,57.0,75.0
1152,255.03248306250003,255.69121256250003,62.0,67.0
1153,255.74676806250002,256.06522012500005,55.0,76.0
1154,255.98486306250004,256.32315637500005,59.0,83.0
1155,256.4610530625,256.59101325,55.0,74.0
1156,256.4610530625,256.74875118750003,62.0,75.0
1157,255.50867306250004,256.94418750000006,50.0,67.0
1158,256.6991480625,256.99081443750003,55.0,71.0
1159,256.93724306250004,256.99081443750003,55.0,63.0
1160,255.27057806250002,257.0285128125,43.0,75.0
1161,257.17533806250003,257.71402800000004,36.0,74.0
1162,257.17533806250003,258.6902175,60.0,67.0
1163,257.17533806250003,258.80331262500005,64.0,75.0
1164,259.31819306250003,259.68228000000005,62.0,59.0
1165,258.6039080625,260.27156512500005,48.0,34.0
1166,259.08009806250004,260.42434275000005,55.0,43.0
1167,259.5562880625,260.501723625,64.0,63.0
1168,259.5562880625,260.52652518750006,60.0,57.0
