,start,end,pitch,velocity
0,10.38278758125,10.93635768125,69.0,82.0
1,10.918500581250001,11.453097512500001,76.0,93.0
2,11.45421358125,12.325863275,74.0,91.0
3,12.25778308125,13.046843687500001,72.0,93.0
4,13.06135258125,13.611574475000001,71.0,92.0
5,13.59706558125,14.33032275,69.0,91.0
6,14.40063508125,15.16625824375,69.0,90.0
7,15.20420458125,15.76000681875,67.0,93.0
8,15.739917581250001,16.2789787875,64.0,80.0
9,16.275630581250002,18.94526703125,62.0,56.0
10,18.95419558125,19.486560375,72.0,90.0
11,19.489908581250003,20.040130475,79.0,93.0
12,20.02562158125,20.889458793750002,78.0,80.0
13,20.829191081250002,21.621599893750002,76.0,87.0
14,21.63276058125,22.1896788875,74.0,84.0
15,22.16847358125,25.35596593125,76.0,98.0
16,25.38275158125,25.932973475,76.0,92.0
17,25.91846458125,26.2119906625,79.0,90.0
18,26.18632108125,27.515558962500002,81.0,100.0
19,27.52560358125,27.761094087500002,79.0,100.0
20,27.79346008125,28.08140581875,81.0,100.0
21,28.06131658125,28.34033376875,79.0,100.0
22,28.32917308125,28.589217100000003,76.0,96.0
23,28.597029581250002,29.638321725,74.0,97.0
24,29.66845558125,30.22314175,72.0,100.0
25,30.204168581250002,30.77671185,74.0,93.0
26,30.73988158125,31.277826718750003,76.0,97.0
27,31.27559458125,31.84813785,74.0,80.0
28,31.811307581250002,32.0825122875,72.0,86.0
29,32.07916408125,32.33027955,74.0,86.0
30,32.34702058125,32.601484256250004,72.0,86.0
31,32.61487708125,32.74657319375,69.0,100.0
32,32.748805331250004,32.886081787500004,67.0,82.0
33,32.88273358125,34.4753636875,69.0,91.0
34,34.489872581250005,35.03004985625,67.0,94.0
35,35.02558558125,36.638304925,69.0,100.0
36,36.63272458125,37.16397330625,72.0,99.0
37,37.168437581250004,37.713079131250005,71.0,95.0
38,37.704150581250005,37.98539990625,67.0,83.0
39,37.97200708125,38.26218495625,64.0,68.0
40,38.23986358125,38.7432105875,76.0,82.0
41,38.77557658125,39.47423561875,72.0,87.0
42,39.31128958125,43.0333788625,69.0,80.0
43,48.95412358125,49.45523845,69.0,92.0
44,49.48983658125,50.0556834375,76.0,96.0
45,50.025549581250004,50.947422368750004,74.0,100.0
46,50.82911908125,51.612599343750006,72.0,101.0
47,51.63268858125,52.155008756250005,71.0,100.0
48,52.16840158125,52.9574621875,69.0,100.0
49,52.971971081250004,53.68625508125,69.0,100.0
50,53.775540581250006,54.291164343750005,67.0,97.0
51,54.31125358125,54.901653950000004,64.0,97.0
52,54.84696658125,57.52776371875,62.0,97.0
53,57.52553158125,58.065708856250005,72.0,95.0
54,58.06124458125,58.624859300000004,79.0,99.0
55,58.59695758125,59.392714600000005,78.0,99.0
56,59.400527081250004,60.229766162500006,76.0,97.0
57,60.20409658125,60.7342292375,74.0,95.0
58,60.73980958125,63.4395798875,76.0,98.0
59,63.95408758125,64.51212195625,76.0,97.0
60,64.48980058125001,64.8034159,79.0,79.0
61,64.75765708125,64.9440405625,76.0,56.0
62,64.89158533125,65.04113854375001,79.0,64.0
63,65.02551358125,66.129305575,81.0,87.0
64,66.09693958125,66.606983,79.0,91.0
65,66.63265258125,67.21077619375001,76.0,80.0
66,67.16836558125,68.2922468125,74.0,83.0
67,68.23979158125,68.72416541875,72.0,111.0
68,68.77550458125,69.3011729625,74.0,99.0
69,69.31121758125,69.87594836875,76.0,105.0
70,69.84693058125,70.4127774375,74.0,97.0
71,70.38264358125001,70.9306333375,72.0,99.0
72,70.91835658125001,71.49648019375,67.0,91.0
73,71.45406958125,72.9975926625,69.0,99.0
74,73.06120858125,73.61254654375,67.0,94.0
75,73.59692158125,73.83017995,69.0,91.0
76,73.86477808125001,74.13263458125,67.0,62.0
77,74.13263458125,75.22414981875,69.0,81.0
78,75.20406058125,75.7922288125,72.0,100.0
79,75.73977358125,76.236424175,71.0,92.0
80,76.27548658125001,76.5533877,67.0,77.0
81,76.54334308125,76.82124420000001,64.0,79.0
82,76.81119958125001,77.3413322375,76.0,66.0
83,77.34691258125001,78.10360719375001,72.0,72.0
84,78.15048208125,78.43842781875,72.0,68.0
85,78.41833858125,81.67837540000001,69.0,58.0
86,81.63261658125,82.15493675625001,79.0,90.0
87,82.16832958125,84.03662866875,81.0,98.0
88,84.04332508125,84.17055691875001,83.0,62.0
89,84.17725333125,84.35024398750001,81.0,77.0
90,84.31118158125,85.1225635625,79.0,86.0
91,85.11475108125,85.2386347125,81.0,52.0
92,85.24867933125,85.37591116875001,79.0,71.0
93,85.38260758125,85.93617768125,78.0,54.0
94,85.91832058125,86.46965854375,76.0,68.0
95,86.45403358125,86.97858589375001,78.0,91.0
96,86.98974658125,87.26206735625,76.0,45.0
97,87.25760308125001,87.6404146625,74.0,62.0
98,87.52545958125,89.1136254125,69.0,59.0
99,89.66831158125001,90.17723893125,71.0,79.0
100,90.20402458125001,90.74643399375,73.0,86.0
101,90.73973758125,90.86362121250001,74.0,80.0
102,90.87366583125001,92.55446536875,79.0,73.0
103,92.61473308125001,92.7564738125,81.0,64.0
104,92.74866133125,92.9104913,79.0,64.0
105,92.88258958125,93.99196191875001,78.0,80.0
106,93.95401558125,94.495308925,76.0,85.0
107,94.48972858125,94.995307725,74.0,77.0
108,95.02544158125,95.32231586875001,72.0,66.0
109,95.29329808125,95.5912884375,74.0,69.0
110,95.56115458125001,98.798870025,76.0,91.0
111,98.77543258125,99.2676189,79.0,90.0
112,99.31114558125,101.23859631250001,81.0,100.0
113,101.18614108125,101.31002471250001,83.0,61.0
114,101.32006933125001,101.47855109375,81.0,77.0
115,101.45399758125001,102.21738860625,79.0,72.0
116,102.25756708125,102.39149533125,81.0,64.0
117,102.39149533125,102.53546820000001,79.0,59.0
118,102.52542358125001,103.0644847875,78.0,68.0
119,103.06113658125001,103.68725115000001,76.0,67.0
120,103.59684958125,104.1626964375,78.0,62.0
121,104.13256258125,104.6225167625,76.0,40.0
122,104.66827558125,106.70621711875,74.0,47.0
123,106.81112758125,107.11916255625,74.0,90.0
124,107.07898408125,107.39148333125,76.0,85.0
125,107.34684058125,107.6939379625,74.0,66.0
126,107.61469708125,107.82898228125,69.0,52.0
127,107.88255358125001,110.4818777,69.0,79.0
128,110.56111858125,110.85464466250001,76.0,66.0
129,110.82897508125001,111.1269654375,74.0,91.0
130,111.09683158125,111.23299196875,69.0,66.0
131,111.23075983125,111.36245594375,71.0,56.0
132,111.36468808125001,111.90040108125001,69.0,56.0
133,111.90040108125001,112.16937365000001,67.0,85.0
134,112.16825758125,121.68720795,69.0,97.0
135,121.81109158125001,122.36466168125,69.0,82.0
136,122.34680458125001,122.8814015125,76.0,93.0
137,122.88251758125,123.754167275,74.0,91.0
138,123.68608708125001,124.47514768750001,72.0,93.0
139,124.48965658125,125.03987847500001,71.0,92.0
140,125.02536958125,125.75974281875,69.0,91.0
141,125.82893908125,126.59456224375,69.0,90.0
142,126.63250858125001,127.18831081875001,67.0,93.0
143,127.16822158125001,130.46174046250002,62.0,56.0
144,130.38249958125002,130.914864375,72.0,90.0
145,130.91821258125,131.468434475,79.0,93.0
146,131.45392558125002,132.31776279375,78.0,80.0
147,132.25749508125,133.04990389375,76.0,87.0
148,133.06106458125,133.6179828875,74.0,84.0
149,133.59677758125,136.78426993125,76.0,98.0
150,136.81105558125,137.361277475,76.0,92.0
151,137.34676858125002,137.61239294375,79.0,90.0
152,137.61462508125,137.76417829375,76.0,100.0
153,137.74855333125,137.88024944375002,79.0,100.0
154,137.88248158125,139.289844275,81.0,100.0
155,138.95390758125,139.486272375,79.0,100.0
156,139.48962058125,140.02086930625,76.0,96.0
157,140.02533358125,141.066625725,74.0,97.0
158,141.09675958125,141.65144575,72.0,100.0
159,141.63247258125,142.20501585,74.0,93.0
160,142.16818558125001,142.70613071875002,76.0,97.0
161,142.70389858125,143.27644185,74.0,80.0
162,143.23961158125002,143.75858355,72.0,86.0
163,143.77532458125,144.33335895625,67.0,82.0
164,144.31103758125002,148.98736564375,69.0,91.0
165,148.99852633125002,149.6358015875,67.0,74.0
166,149.66816758125,151.3322260875,69.0,91.0
167,151.27530658125,151.84784985000002,72.0,90.0
168,151.81101958125,152.4706162125,71.0,94.0
169,152.48066083125002,152.88021344375,67.0,87.0
170,152.88244558125,153.51190835625002,64.0,57.0
171,153.41815858125,154.0777552125,76.0,58.0
172,154.08779983125,154.50297740625,72.0,77.0
173,154.48958458125,157.63020204375002,69.0,77.0
174,157.83779083125,163.59447344375002,69.0,62.0
