,start,end,pitch,velocity
0,9.57921808125,9.9263154625,64.0,48.0
1,9.84707458125,10.13278818125,69.0,59.0
2,10.11493108125,10.44528743125,64.0,52.0
3,10.38278758125,10.6071174,72.0,59.0
4,10.65064408125,10.8816703125,64.0,53.0
5,9.31136158125,11.21314273125,57.0,63.0
6,10.918500581250001,11.43635648125,76.0,63.0
7,11.18635708125,11.444168962500001,64.0,57.0
8,11.722070081250001,12.0289889875,66.0,63.0
9,11.98992658125,12.26001521875,74.0,75.0
10,12.25778308125,12.64394286875,66.0,59.0
11,11.45421358125,12.80912104375,57.0,70.0
12,12.525639581250001,12.82474600625,74.0,76.0
13,12.525639581250001,12.82474600625,78.0,76.0
14,13.86492208125,14.2120194625,64.0,48.0
15,14.132778581250001,14.41849218125,69.0,59.0
16,14.40063508125,14.73099143125,64.0,52.0
17,14.66849158125,14.8928214,72.0,59.0
18,14.936348081250001,15.1673743125,64.0,53.0
19,13.59706558125,15.498846731250001,57.0,63.0
20,15.20420458125,15.72206048125,76.0,63.0
21,15.47206108125,15.7298729625,64.0,57.0
22,16.007774081250002,16.3146929875,66.0,63.0
23,16.275630581250002,16.54571921875,74.0,75.0
24,16.54348708125,16.92964686875,66.0,59.0
25,15.739917581250001,17.09482504375,57.0,70.0
26,16.81134358125,17.11045000625,74.0,76.0
27,16.81134358125,17.11045000625,78.0,76.0
28,18.15062608125,18.4977234625,64.0,48.0
29,18.41848258125,18.70419618125,69.0,59.0
30,18.68633908125,19.01669543125,64.0,52.0
31,18.95419558125,19.1785254,72.0,59.0
32,19.222052081250002,19.4530783125,64.0,53.0
33,17.882769581250002,19.78455073125,57.0,63.0
34,19.489908581250003,20.00776448125,76.0,63.0
35,19.75776508125,20.0155769625,64.0,57.0
36,20.29347808125,20.6003969875,66.0,63.0
37,20.56133458125,20.83142321875,74.0,75.0
38,20.829191081250002,21.21535086875,66.0,59.0
39,20.02562158125,21.380529043750002,57.0,70.0
40,21.09704758125,21.39615400625,74.0,76.0
41,21.09704758125,21.39615400625,78.0,76.0
42,22.436330081250002,22.7834274625,64.0,48.0
43,22.70418658125,22.98990018125,69.0,59.0
44,22.97204308125,23.302399431250002,64.0,52.0
45,23.23989958125,23.4642294,72.0,59.0
46,23.50775608125,23.7387823125,64.0,53.0
47,22.16847358125,24.07025473125,57.0,63.0
48,23.77561258125,24.293468481250002,76.0,63.0
49,24.043469081250002,24.3012809625,64.0,57.0
50,24.57918208125,24.8861009875,66.0,63.0
51,24.84703858125,25.11712721875,74.0,75.0
52,25.11489508125,25.50105486875,66.0,59.0
53,24.31132558125,25.66623304375,57.0,70.0
54,25.38275158125,25.68185800625,74.0,76.0
55,25.38275158125,25.68185800625,78.0,76.0
56,26.72203408125,27.050158293750002,60.0,51.0
57,26.989890581250002,27.25105066875,65.0,49.0
58,27.257747081250002,27.554621368750002,60.0,49.0
59,27.52560358125,27.89613840625,72.0,46.0
60,27.79346008125,28.07024513125,60.0,42.0
61,28.06131658125,28.54345828125,65.0,46.0
62,26.45417758125,28.554618968750002,53.0,67.0
63,28.32917308125,28.5646635875,60.0,44.0
64,28.864886081250003,29.17292105625,62.0,47.0
65,29.13274258125,29.36265274375,67.0,55.0
66,29.40059908125,29.718678675,62.0,45.0
67,29.66845558125,30.07024033125,72.0,67.0
68,29.93631208125,30.196356100000003,62.0,48.0
69,30.204168581250002,30.415105575000002,67.0,54.0
70,30.472025081250003,30.720908412500002,62.0,47.0
71,28.597029581250002,30.745461925,55.0,69.0
72,31.00773808125,31.2923356125,64.0,55.0
73,31.27559458125,31.544567150000002,67.0,60.0
74,31.54345108125,31.806843306250002,64.0,54.0
75,30.73988158125,31.85595033125,60.0,72.0
76,32.07916408125,32.386082987500004,62.0,48.0
77,31.811307581250002,32.74657319375,59.0,62.0
78,32.61487708125,32.887197856250005,62.0,50.0
79,32.34702058125,32.8994746125,74.0,66.0
80,33.15059008125,33.4396518875,64.0,55.0
81,33.41844658125,33.6427764,69.0,56.0
82,33.68630308125,33.99433805625,64.0,53.0
83,33.95415958125,34.35594433125,72.0,80.0
84,34.222016081250004,34.4083995625,64.0,48.0
85,32.88273358125,34.5423278125,57.0,67.0
86,34.489872581250005,34.7075059875,69.0,55.0
87,34.75772908125,35.0110766875,64.0,46.0
88,35.29344208125,35.611521675,60.0,52.0
89,35.56129858125,35.79790515625,65.0,60.0
90,35.82915508125,36.120449025,60.0,47.0
91,36.09701158125,36.2967878875,69.0,57.0
92,36.36486808125,36.661742368750005,60.0,44.0
93,36.90058108125,37.1070538,60.0,50.0
94,35.02558558125,37.14611620625,53.0,76.0
95,36.63272458125,37.3012497625,72.0,56.0
96,37.436294081250004,37.78450753125,62.0,48.0
97,37.704150581250005,37.924016125,67.0,47.0
98,37.97200708125,38.27111350625,62.0,49.0
99,38.50772008125,38.72423741875,62.0,43.0
100,38.23986358125,38.805710437500004,74.0,60.0
101,38.77557658125,38.97200468125,67.0,45.0
102,37.168437581250004,38.99097785,55.0,67.0
103,39.04343308125,39.28450393125,62.0,44.0
104,39.57914608125,39.88494891875,64.0,47.0
105,39.84700258125,40.11485908125,69.0,57.0
106,40.11485908125,40.469768943750005,64.0,48.0
107,40.382715581250004,40.74655399375,72.0,69.0
108,40.650572081250004,40.909500031250005,64.0,45.0
109,40.918428581250005,41.182936875,69.0,49.0
110,39.31128958125,41.20525825,57.0,70.0
111,41.18628508125,41.43628448125,64.0,52.0
112,41.72199808125,42.04119374375,62.0,55.0
113,41.98985458125,42.33806803125,66.0,67.0
114,42.25771108125,42.545656818750004,62.0,52.0
115,41.45414158125,43.28003005625,57.0,82.0
116,42.52556758125,43.691859425000004,74.0,62.0
117,43.864850081250005,44.182929675000004,64.0,46.0
118,44.132706581250005,44.39163453125,69.0,55.0
119,44.40056308125,44.691857025000004,64.0,48.0
120,44.66841958125,45.10815066875,72.0,72.0
121,44.93627608125,45.11931135625,64.0,52.0
122,43.596993581250004,45.39386426875,57.0,67.0
123,45.20413258125,45.42734633125,69.0,58.0
124,45.47198908125,45.74096165,64.0,52.0
125,46.00770208125,46.316853125,66.0,57.0
126,46.27555858125,46.52555798125,69.0,54.0
127,46.543415081250004,47.50546634375,66.0,59.0
128,46.811271581250004,47.595867912500005,78.0,73.0
129,45.73984558125,47.638278525000004,57.0,54.0
130,48.15055408125,48.4039016875,60.0,62.0
131,48.41841058125,48.61595475,67.0,42.0
132,48.68626708125,48.852561325,60.0,51.0
133,48.95412358125,49.272203175,72.0,64.0
134,49.22198008125,49.48983658125,64.0,49.0
135,49.48983658125,49.7565770125,69.0,61.0
136,47.88269758125,49.793407281250005,57.0,59.0
137,49.757693081250004,49.98537110625,64.0,50.0
138,50.293406081250005,50.5646107875,66.0,60.0
139,50.561262581250006,50.8391637,69.0,66.0
140,50.82911908125,51.1494308125,66.0,58.0
141,50.025549581250004,51.95188424375,57.0,64.0
142,51.09697558125,52.2163925375,74.0,67.0
143,52.43625808125,52.652775418750004,64.0,37.0
144,52.70411458125,52.9931763875,69.0,70.0
145,52.971971081250004,53.28893460625,64.0,49.0
146,53.239827581250005,53.497639462500004,72.0,60.0
147,53.507684081250005,53.75098706875,64.0,45.0
148,52.16840158125,54.041164943750005,57.0,75.0
149,53.775540581250006,54.165048575,69.0,48.0
150,54.04339708125,54.2788875875,64.0,48.0
151,54.445181831250004,54.79562741875,62.0,52.0
152,54.84696658125,55.118171287500004,69.0,60.0
153,55.11482308125,55.505447143750004,62.0,49.0
154,55.38267958125,55.97307995,74.0,62.0
155,54.17732533125,56.092499306250005,57.0,70.0
156,55.918392581250004,56.245400725,69.0,60.0
157,56.721962081250005,57.04338988125,64.0,58.0
158,56.98981858125,57.307898175000005,67.0,55.0
159,57.25767508125,57.600308187500005,64.0,51.0
160,57.79338808125,58.091378437500005,64.0,48.0
161,56.454105581250005,58.165038975,60.0,64.0
162,57.52553158125,58.5891451,72.0,69.0
163,58.06124458125,58.609234337500006,67.0,59.0
164,58.32910108125,58.6449485375,64.0,50.0
165,58.86481408125,59.165036575,62.0,44.0
166,59.132670581250004,59.419500250000006,69.0,61.0
167,59.400527081250004,59.7253030875,62.0,53.0
168,58.59695758125,60.134900318750006,50.0,70.0
169,59.936240081250006,60.167266312500004,62.0,54.0
170,60.20409658125,60.538917206250005,69.0,49.0
171,60.47195308125,60.736461375000005,62.0,45.0
172,59.668383581250005,60.8212826,74.0,70.0
173,61.00766608125,61.305656437500005,64.0,54.0
174,61.27552258125,61.540030875,69.0,56.0
175,61.54337908125,61.832440887500006,64.0,55.0
176,61.81123558125,62.046726087500005,71.0,53.0
177,62.07909208125,62.32685934375,64.0,54.0
178,62.346948581250004,62.536680268750004,69.0,54.0
179,60.73980958125,62.5824390875,52.0,78.0
180,62.614805081250005,63.1270806375,64.0,57.0
181,63.41837458125,63.708552456250004,64.0,62.0
182,63.68623108125,63.9819893,69.0,54.0
183,62.882661581250005,64.58578249375,52.0,67.0
184,63.150518081250006,64.6069878,59.0,59.0
185,63.95408758125,64.63265738125,68.0,72.0
186,65.29337008125,65.62595856875001,60.0,54.0
187,65.56122658125,65.8860025875,65.0,66.0
188,65.02551358125,65.92841320000001,72.0,64.0
189,65.82908308125,66.2074303875,60.0,59.0
190,66.09693958125,66.397162075,72.0,44.0
191,66.09693958125,66.46412620000001,69.0,61.0
192,66.36479608125,66.6672507125,60.0,49.0
193,66.63265258125,66.879303775,65.0,64.0
194,65.02551358125,66.9038572875,53.0,63.0
195,66.90050908125001,67.23532970625,72.0,72.0
196,67.43622208125001,67.65943583125001,62.0,54.0
197,67.70407858125,68.00876535,67.0,64.0
198,67.97193508125001,68.30787177500001,62.0,57.0
199,68.50764808125,68.81121878125,62.0,49.0
200,67.16836558125,68.96188806250001,55.0,57.0
201,68.77550458125,69.07014673125,71.0,62.0
202,68.23979158125,69.3458157125,74.0,62.0
203,69.04336108125,69.41836018125001,67.0,61.0
204,69.57907408125,69.968582075,64.0,54.0
205,69.84693058125,70.15942983125001,67.0,59.0
206,69.31121758125,70.35697400000001,60.0,67.0
207,70.11478708125,70.73085703125,72.0,72.0
208,70.38264358125001,71.25987361875,59.0,61.0
209,70.65050008125,71.3324180875,62.0,49.0
210,70.91835658125001,71.51210515625,67.0,63.0
211,71.18621308125,71.75094386875,74.0,70.0
212,71.72192608125,72.08576449375,64.0,54.0
213,71.98978258125,72.3100943125,69.0,56.0
214,72.25763908125,72.61366501250001,64.0,54.0
215,72.52549558125,72.88040544375,72.0,69.0
216,72.79335208125,73.1449137375,64.0,55.0
217,71.45406958125,73.22192248125,57.0,69.0
218,73.06120858125,73.50093966875001,69.0,54.0
219,73.59692158125,73.74647479375,72.0,36.0
220,73.86477808125001,74.16165236875,60.0,61.0
221,74.13263458125,74.39825894375001,65.0,61.0
222,74.40049108125001,74.70071357500001,60.0,50.0
223,74.66834758125,75.2029445125,69.0,72.0
224,74.66834758125,75.26879256875,65.0,76.0
225,75.20406058125,75.5065152125,60.0,49.0
226,73.59692158125,75.80896984375,53.0,91.0
227,75.47191708125,75.90606782500001,69.0,66.0
228,76.00763008125,76.3591917375,62.0,54.0
229,76.27548658125001,76.58128941875,67.0,62.0
230,76.54334308125,76.85137805625,62.0,52.0
231,76.81119958125001,77.4640998,67.0,58.0
232,75.73977358125,77.55226923125001,55.0,80.0
233,76.81119958125001,77.82682214375001,71.0,61.0
234,78.15048208125,78.43954388750001,64.0,57.0
235,78.41833858125,78.66498977500001,69.0,59.0
236,78.68619508125,79.01431929375,64.0,49.0
237,78.95405158125,79.3413274375,72.0,69.0
238,79.22190808125,79.41163976875,64.0,52.0
239,77.88262558125,79.56230905000001,57.0,67.0
240,79.48976458125,79.7029337125,69.0,47.0
241,79.75762108125001,80.039986475,64.0,50.0
242,80.82904708125001,81.21967114375,74.0,61.0
243,80.56119058125,81.22413541875001,69.0,56.0
244,80.29333408125001,81.61029520625,62.0,60.0
245,81.09690358125,81.66275043750001,78.0,63.0
246,80.02547758125,81.79109834375001,57.0,51.0
247,81.63261658125,82.06341911875,74.0,52.0
248,82.43618608125,82.745337125,64.0,59.0
249,82.70404258125001,82.95850625625,69.0,57.0
250,82.97189908125,83.32457680625001,64.0,51.0
251,83.23975558125001,83.63930819375,72.0,72.0
252,83.50761208125,83.7855132,64.0,56.0
253,82.16832958125,83.97636095625,57.0,69.0
254,83.77546858125001,84.04444115,69.0,54.0
255,84.04332508125,84.325690475,71.0,70.0
256,84.31118158125,84.75872515,72.0,66.0
257,84.84689458125,85.23193830000001,66.0,63.0
258,84.57903808125,85.26430429375,62.0,44.0
259,85.11475108125,85.43171460625,69.0,58.0
260,85.38260758125,85.79108874375001,74.0,70.0
261,85.65046408125,86.0020257375,62.0,56.0
262,84.31118158125,86.191757425,57.0,60.0
263,85.91832058125,86.3569356,69.0,61.0
264,86.18617708125001,86.45403358125,71.0,64.0
265,86.45403358125,86.72858649375,74.0,64.0
266,86.72189008125001,86.96072879375001,66.0,56.0
267,86.98974658125,87.27769231875,69.0,63.0
268,87.25760308125001,87.6047004625,66.0,56.0
269,87.52545958125,87.8993426125,74.0,69.0
270,87.79331608125,88.05782437500001,66.0,52.0
271,87.52545958125,88.34465404375,62.0,60.0
272,86.45403358125,88.361395075,50.0,75.0
273,88.06117258125,88.3636272125,69.0,66.0
274,88.32902908125,88.7609476875,66.0,59.0
275,88.86474208125,89.12478610000001,66.0,61.0
276,89.13259858125001,89.38036584375,69.0,61.0
277,89.40045508125,89.72299895,66.0,59.0
278,88.59688558125,89.90045388125,50.0,72.0
279,89.66831158125001,89.92723953125001,74.0,72.0
280,89.66831158125001,90.08125701875001,62.0,60.0
281,89.93616808125,90.18170320625,66.0,56.0
282,90.20402458125001,90.51875596875,69.0,64.0
283,90.47188108125,90.700675175,74.0,48.0
284,91.00759408125,91.4439769625,64.0,66.0
285,91.54330708125,91.65937823125,72.0,61.0
286,91.27545058125,91.92277045625,69.0,57.0
287,91.81116358125,92.00535954375,76.0,63.0
288,92.07902008125001,92.4082603625,69.0,51.0
289,91.81116358125,92.53437613125,64.0,66.0
290,92.34687658125,92.62366163125,72.0,66.0
291,90.73973758125,92.65714369375,57.0,66.0
292,92.61473308125001,93.12366043125,69.0,57.0
293,93.15044608125001,93.50089166875,64.0,70.0
294,93.41830258125,93.74419465625,69.0,63.0
295,93.68615908125,93.95513165,64.0,69.0
296,93.95401558125,94.37365743125001,72.0,66.0
297,94.22187208125,94.423880525,64.0,69.0
298,92.88258958125,94.52655885,57.0,67.0
299,94.48972858125,95.02544158125,69.0,64.0
300,95.02544158125,95.45624411875,72.0,66.0
301,95.29329808125,95.60691340000001,64.0,48.0
302,95.56115458125001,95.76874336875001,69.0,56.0
303,95.82901108125,96.1002157875,64.0,52.0
304,96.09686758125001,96.32900988125,74.0,70.0
305,96.36472408125,96.6984286375,64.0,49.0
306,95.02544158125,96.959588725,57.0,66.0
307,96.90043708125,97.25981121875,64.0,49.0
308,96.63258058125001,97.2653915625,76.0,64.0
309,97.43615008125,97.72856009375,64.0,52.0
310,97.70400658125,97.9573541875,69.0,40.0
311,97.97186308125,98.32900508125,64.0,53.0
312,98.23971958125,98.4171745125,72.0,73.0
313,98.50757608125001,98.82565567500001,64.0,55.0
314,97.16829358125,99.0377087375,57.0,78.0
315,99.04328908125001,99.35355619375001,64.0,50.0
316,98.77543258125,99.39373466875,74.0,69.0
317,99.31114558125,99.55891284375001,76.0,67.0
318,99.57900208125001,99.78882300625,69.0,49.0
319,99.84685858125,100.09797405,72.0,67.0
320,100.11471508125,100.44507143125,69.0,49.0
321,100.38257158125,100.67274945625,76.0,66.0
322,99.84685858125,100.70511545000001,60.0,55.0
323,100.65042808125,100.97185588125001,69.0,46.0
324,100.38257158125,100.98524870625,65.0,60.0
325,99.31114558125,101.004221875,53.0,63.0
326,100.91828458125,101.209578525,72.0,64.0
327,100.91828458125,101.43390834375,60.0,54.0
328,101.18614108125,101.47966716250001,76.0,60.0
329,101.45399758125001,101.47966716250001,76.0,63.0
330,101.72185408125,101.94953210625,69.0,48.0
331,101.98971058125001,102.2676117,72.0,69.0
332,102.25756708125,102.35801326875,76.0,49.0
333,102.79328008125,103.013145625,69.0,54.0
334,102.52542358125001,103.06113658125001,65.0,61.0
335,101.45399758125001,103.08680616250001,53.0,59.0
336,101.72185408125,103.08680616250001,60.0,50.0
337,103.06113658125001,103.3144841875,72.0,60.0
338,103.59684958125,103.8635900125,74.0,66.0
339,104.13256258125,104.48970458125001,69.0,50.0
340,103.86470608125,104.53657946875,66.0,70.0
341,104.40041908125,104.54774015625,74.0,64.0
342,104.66827558125,105.17720293125001,74.0,67.0
343,104.93613208125001,105.2676045,66.0,54.0
344,103.59684958125,105.486353975,50.0,69.0
345,104.66827558125,105.49193431875,62.0,57.0
346,105.20398858125,105.58121981875,69.0,57.0
347,105.47184508125001,105.63255898125,74.0,64.0
348,105.73970158125,106.1426024,74.0,64.0
349,106.00755808125001,106.30666450625,66.0,54.0
350,105.73970158125,106.59461024375,62.0,49.0
351,106.27541458125,106.606887,69.0,42.0
352,106.54327108125,106.69952070625,74.0,63.0
353,106.81112758125,107.111350075,74.0,63.0
354,105.73970158125,107.263135425,50.0,61.0
355,106.81112758125,107.28880500625,62.0,54.0
356,107.07898408125,107.36246554375,66.0,57.0
357,107.34684058125,107.67161658750001,69.0,52.0
358,107.61469708125,107.7341164375,74.0,64.0
359,107.88255358125001,108.1091155375,76.0,61.0
360,108.15041008125,108.51648063125,69.0,48.0
361,108.41826658125001,108.72295335000001,72.0,57.0
362,108.68612308125,108.92272965625,74.0,47.0
363,108.15041008125,109.02764011875,60.0,47.0
364,108.95397958125001,109.1983986375,76.0,45.0
365,109.22183608125,109.468487275,69.0,41.0
366,108.95397958125001,109.5376835375,65.0,54.0
367,109.48969258125001,109.6760760625,76.0,56.0
368,107.88255358125001,109.71513846875,53.0,66.0
369,109.48969258125001,109.91156656875,60.0,37.0
370,109.75754908125,110.04437875,69.0,40.0
371,110.02540558125,110.4216099875,74.0,63.0
372,110.29326208125,110.53656506875001,62.0,34.0
373,110.29326208125,110.86580535,59.0,44.0
374,110.56111858125,110.86580535,67.0,53.0
375,110.82897508125001,111.1783046,62.0,50.0
376,110.02540558125,111.7787495875,52.0,66.0
377,111.09683158125,111.78767813750001,74.0,62.0
378,111.09683158125,111.7921424125,59.0,47.0
379,112.16825758125,112.50084606875001,64.0,60.0
380,112.16825758125,112.5599977125,72.0,72.0
381,112.43611408125001,112.97405921875,60.0,54.0
382,112.70397058125,113.0175859,64.0,53.0
383,112.97182708125,113.27204957500001,71.0,67.0
384,113.23968358125,113.486334775,72.0,59.0
385,113.50754008125,113.80887864375,64.0,49.0
386,113.23968358125,113.85686960000001,60.0,61.0
387,113.77539658125,113.94503903125,71.0,55.0
388,112.16825758125,114.00753888125,57.0,56.0
389,114.31110958125001,114.57003753125001,74.0,69.0
390,114.57896608125,114.8814207125,66.0,59.0
391,114.57896608125,115.10798266875001,62.0,51.0
392,114.84682258125001,115.13253618125,69.0,67.0
393,115.11467908125,115.432758675,66.0,62.0
394,115.38253558125001,115.46958894375001,74.0,64.0
395,115.91824858125001,115.96735560625001,78.0,67.0
396,115.38253558125001,116.04994469375,62.0,55.0
397,114.31110958125001,116.09681958125,57.0,57.0
398,116.45396158125,116.64704147500001,76.0,66.0
399,116.72181808125,116.92940686875001,69.0,51.0
400,116.98967458125,117.18610268125,72.0,59.0
401,117.25753108125001,117.45395918125,69.0,45.0
402,116.98967458125,117.61913735625001,64.0,46.0
403,117.52538758125,117.67270865625001,76.0,56.0
404,117.52538758125,117.79994049375,69.0,49.0
405,116.45396158125,118.1715913875,57.0,51.0
406,118.06110058125,118.2921268125,72.0,53.0
407,117.92717233125,118.42717113125,64.0,55.0
408,118.32895708125001,118.50752808125,76.0,61.0
409,118.59681358125,118.90373248750001,78.0,50.0
410,119.66823958125,120.16823838125,78.0,78.0
411,118.59681358125,120.1715865875,57.0,63.0
412,118.86467008125001,120.18163120625,62.0,63.0
413,119.13252658125,120.20506865,66.0,60.0
414,119.40038308125,120.22627395625001,69.0,53.0
415,121.00752208125,121.46511026875001,64.0,54.0
416,121.27537858125001,121.54323508125,69.0,47.0
417,121.54323508125,121.86019860625001,72.0,57.0
418,122.07894808125,122.3992598125,69.0,53.0
419,121.81109158125001,122.54992909375001,64.0,56.0
420,120.73966558125001,122.5822950875,57.0,64.0
421,122.34680458125001,122.59457184375,76.0,62.0
422,122.61466108125,122.92939246875001,72.0,59.0
423,123.41823058125,123.66264963750001,69.0,53.0
424,123.68608708125001,123.98742564375,74.0,48.0
425,122.88251758125,124.63362945,57.0,58.0
426,123.95394358125,124.63362945,69.0,45.0
427,123.15037408125,124.64702227500001,66.0,50.0
428,123.95394358125,125.2742529125,78.0,67.0
429,125.56108258125,126.04099214375,69.0,52.0
430,125.82893908125,126.10349199375001,72.0,51.0
431,126.09679558125,126.35795566875001,76.0,50.0
432,126.36465208125,126.7742493125,69.0,49.0
433,125.02536958125,126.84679378125,57.0,61.0
434,125.29322608125001,126.90482935625,64.0,61.0
435,126.63250858125001,126.90929363125001,72.0,49.0
436,126.90036508125,127.3947835375,76.0,54.0
437,127.43607808125,127.9617464625,69.0,57.0
438,127.70393458125001,128.0688890625,74.0,49.0
439,127.97179108125,128.539870075,78.0,67.0
440,127.16822158125001,128.968440475,57.0,67.0
441,128.50750408125,129.00750288125002,69.0,46.0
442,128.77536058125,129.129154375,74.0,44.0
443,129.04321708125,129.5063856125,78.0,49.0
444,129.84678658125,130.11352701250001,69.0,55.0
445,130.11464308125,130.40147275,72.0,50.0
446,130.38249958125002,130.67044531875,69.0,57.0
447,130.65035608125,131.0554890375,76.0,56.0
448,129.31107358125,131.15928343125,57.0,64.0
449,130.91821258125,131.16374770625,69.0,73.0
450,129.57893008125,131.27089030625,64.0,60.0
451,131.18606908125,131.52647005,72.0,51.0
452,131.98963858125,132.24187011875,69.0,47.0
453,132.25749508125,132.56218185,72.0,51.0
454,132.52535158125,133.084502025,78.0,61.0
455,132.52535158125,133.155930425,69.0,66.0
456,131.72178208125,133.16597504375,66.0,50.0
457,131.45392558125002,133.23517130625,57.0,66.0
458,133.86463408125002,134.27981165625002,64.0,58.0
459,134.13249058125,134.68382854375,69.0,55.0
460,134.40034708125,134.69275709375,72.0,58.0
461,134.66820358125,134.88025664375002,76.0,60.0
462,134.93606008125002,135.22065761250002,69.0,57.0
463,134.66820358125,135.307710975,64.0,60.0
464,133.59677758125,135.42043391875,57.0,66.0
465,135.20391658125,135.46284453125,72.0,50.0
466,135.47177308125,135.896995275,76.0,69.0
467,136.27534258125002,136.74632359375,69.0,55.0
468,136.54319908125,136.879135775,74.0,55.0
469,135.73962958125,137.38694705625,57.0,63.0
470,136.81105558125,137.38694705625,78.0,58.0
471,136.00748608125,137.41373270625002,66.0,59.0
472,137.34676858125002,137.4818129,69.0,48.0
473,138.15033808125,138.48739084375,69.0,52.0
474,138.41819458125,138.70390818125,72.0,62.0
475,138.68605108125,139.039844875,69.0,48.0
476,138.95390758125,139.1670767125,76.0,51.0
477,137.88248158125,139.40926363125,65.0,76.0
478,139.22176408125,139.67042371875002,69.0,57.0
479,139.48962058125,139.75747708125002,72.0,56.0
480,139.75747708125002,140.04207461250002,76.0,61.0
481,140.02533358125,140.36908275625,74.0,64.0
482,140.56104658125,140.892519,67.0,51.0
483,140.29319008125,140.92042071875,62.0,51.0
484,140.82890308125002,141.15256301875002,69.0,67.0
485,141.09675958125,141.343410775,71.0,57.0
486,141.36461608125,141.6179636875,72.0,56.0
487,141.36461608125,141.6492136125,67.0,52.0
488,141.09675958125,141.72622235625002,62.0,57.0
489,141.63247258125,141.72622235625002,69.0,49.0
490,141.63247258125,141.75300800625,74.0,63.0
491,140.02533358125,141.79095434375,55.0,69.0
492,141.90032908125,142.1179624875,77.0,76.0
493,142.43604208125,142.63470231875002,67.0,20.0
494,142.16818558125001,142.6715325875,72.0,42.0
495,142.16818558125001,142.72287175,48.0,70.0
496,142.16818558125001,142.75300560625,76.0,60.0
497,142.43604208125,142.76193415625,55.0,52.0
498,142.70389858125,142.8925142,60.0,59.0
499,142.97175508125,143.25970081875002,77.0,69.0
500,143.23961158125002,143.602333925,67.0,59.0
501,143.23961158125002,143.6313517125,74.0,73.0
502,143.23961158125002,143.9617080625,59.0,42.0
503,143.50746808125,143.9974222625,64.0,66.0
504,143.77532458125,144.0643863875,67.0,56.0
505,144.04318108125,144.21951994375002,71.0,56.0
506,144.17710933125,144.34898391875,72.0,59.0
507,144.31103758125002,144.34898391875,72.0,60.0
508,144.31103758125002,149.00187453750002,64.0,58.0
509,144.31103758125002,149.00299060625,69.0,54.0
510,144.31103758125002,149.02531198125,57.0,46.0
511,144.31103758125002,149.06325831875,45.0,58.0
