,start,end,pitch,velocity
0,23.714063335416668,24.03188205,73.0,116.0
1,24.033211835416665,24.35103055,73.0,108.0
2,24.352360335416666,24.671508835416667,73.0,114.0
3,24.671508835416667,24.990657335416667,77.0,114.0
4,24.990657335416667,25.30847605,80.0,116.0
5,25.309805835416668,25.62762455,80.0,114.0
6,25.628954335416665,25.94677305,80.0,117.0
7,25.948102835416666,26.267251335416667,80.0,117.0
8,26.267251335416667,26.58507005,82.0,117.0
9,26.586399835416668,26.90421855,82.0,117.0
10,26.90554833541667,27.224696835416665,82.0,117.0
11,27.224696835416665,27.543845335416666,85.0,114.0
12,27.543845335416666,28.820439335416665,80.0,119.0
13,28.820439335416665,29.13825805,78.0,114.0
14,29.139587835416666,29.457406549999998,78.0,113.0
15,29.458736335416667,29.777884835416668,78.0,113.0
16,29.777884835416668,30.097033335416665,82.0,113.0
17,30.097033335416665,30.41485205,77.0,110.0
18,30.416181835416666,30.73400055,77.0,114.0
19,30.735330335416666,31.05314905,77.0,116.0
20,31.054478835416667,31.373627335416668,77.0,110.0
21,31.373627335416668,31.69144605,75.0,107.0
22,31.692775835416665,32.01059455,75.0,108.0
23,32.011924335416666,32.32974305,75.0,110.0
24,32.33107283541667,32.65022133541667,75.0,113.0
25,32.65022133541667,33.607666835416666,80.0,108.0
26,33.607666835416666,33.92548555,73.0,108.0
27,33.92681533541667,34.24463405,73.0,102.0
28,34.24596383541667,34.56378255,73.0,100.0
29,34.565112335416664,34.88426083541667,73.0,110.0
30,34.88426083541667,35.203409335416666,77.0,114.0
31,35.203409335416666,35.52122805,80.0,113.0
32,35.52255783541667,35.84037655,80.0,107.0
33,35.84170633541667,36.15952505,80.0,104.0
34,36.160854835416664,36.48000333541667,80.0,102.0
35,36.48000333541667,36.79782205,82.0,110.0
36,36.799151835416666,37.11697055,82.0,116.0
37,37.11830033541666,37.43744883541667,82.0,113.0
38,37.43744883541667,37.756597335416664,85.0,113.0
39,37.756597335416664,39.03319133541667,80.0,114.0
40,39.03319133541667,39.35101005,78.0,113.0
41,39.352339835416664,39.67015855,78.0,110.0
42,39.67148833541667,39.990636835416666,78.0,102.0
43,39.990636835416666,40.30978533541666,82.0,104.0
44,40.30978533541666,40.4680298,77.0,113.0
45,40.46935958541667,40.62760405,77.0,91.0
46,40.62893383541667,40.7871783,77.0,94.0
47,40.788508085416666,40.94675255,77.0,93.0
48,40.948082335416665,41.26590105,77.0,119.0
49,41.26723083541667,41.586379335416666,77.0,108.0
50,41.586379335416666,41.90419805,75.0,113.0
51,41.90552783541666,42.22334655,75.0,114.0
52,42.22467633541667,42.543824835416665,75.0,116.0
53,42.543824835416665,42.86297333541667,77.0,113.0
54,42.86297333541667,43.478663983333334,73.0,117.0
55,54.35231933541667,54.67013805,73.0,116.0
56,54.671467835416664,54.98928655,73.0,108.0
57,54.99061633541667,55.309764835416665,73.0,114.0
58,55.309764835416665,55.62891333541667,77.0,114.0
59,55.62891333541667,55.94673205,80.0,116.0
60,55.94806183541667,56.26588055,80.0,114.0
61,56.267210335416664,56.58502905,80.0,117.0
62,56.58635883541667,56.905507335416665,80.0,117.0
63,56.905507335416665,57.22332605,82.0,117.0
64,57.22465583541667,57.54247455,82.0,117.0
65,57.54380433541667,57.862952835416664,82.0,117.0
66,57.862952835416664,58.18210133541667,85.0,114.0
67,58.18210133541667,59.458695335416664,80.0,119.0
68,59.458695335416664,59.77651405,78.0,114.0
69,59.77784383541667,60.09566255,78.0,113.0
70,60.096992335416665,60.41614083541667,78.0,113.0
71,60.41614083541667,60.73528933541667,82.0,113.0
72,60.73528933541667,61.05310805,77.0,110.0
73,61.054437835416664,61.37225655,77.0,114.0
74,61.37358633541667,61.69140505,77.0,116.0
75,61.692734835416665,62.01188333541667,77.0,110.0
76,62.01188333541667,62.32970205,75.0,107.0
77,62.33103183541667,62.64885055,75.0,108.0
78,62.650180335416664,62.96799905,75.0,110.0
79,62.96932883541667,63.288477335416665,75.0,113.0
80,63.288477335416665,64.24592283541666,80.0,108.0
81,64.24592283541666,64.56374155,73.0,108.0
82,64.56507133541666,64.88289005,73.0,102.0
83,64.88421983541667,65.20203855,73.0,100.0
84,65.20336833541667,65.52251683541667,73.0,110.0
85,65.52251683541667,65.84166533541666,77.0,114.0
86,65.84166533541666,66.15948405,80.0,113.0
87,66.16081383541666,66.47863255,80.0,107.0
88,66.47996233541667,66.79778105,80.0,104.0
89,66.79911083541667,67.11825933541667,80.0,102.0
90,67.11825933541667,67.43607805,82.0,110.0
91,67.43740783541666,67.75522655,82.0,116.0
92,67.75655633541666,68.07570483541667,82.0,113.0
93,68.07570483541667,68.39485333541667,85.0,113.0
94,68.39485333541667,69.67144733541667,80.0,114.0
95,69.67144733541667,69.98926605,78.0,113.0
96,69.99059583541667,70.30841455,78.0,110.0
97,70.30974433541667,70.62889283541666,78.0,102.0
98,70.62889283541666,70.94804133541666,82.0,104.0
99,70.94804133541666,71.1062858,77.0,113.0
100,71.10761558541667,71.26586005,77.0,91.0
101,71.26718983541667,71.4254343,77.0,94.0
102,71.42676408541666,71.58500855,77.0,93.0
103,71.58633833541667,71.90415705,77.0,119.0
104,71.90548683541667,72.22463533541666,77.0,108.0
105,72.22463533541666,72.54245405,75.0,113.0
106,72.54378383541666,72.86160255,75.0,114.0
107,72.86293233541667,73.18208083541667,75.0,116.0
108,73.18208083541667,73.50122933541667,77.0,113.0
109,73.50122933541667,74.11691998333333,73.0,117.0
110,95.20332733541666,95.52114605,73.0,116.0
111,95.52247583541667,95.84029455,73.0,108.0
112,95.84162433541667,96.16077283541667,73.0,114.0
113,96.16077283541667,96.47992133541666,77.0,114.0
114,96.47992133541666,96.79774005,80.0,116.0
115,96.79906983541666,97.11688855,80.0,114.0
116,97.11821833541667,97.43603705,80.0,117.0
117,97.43736683541667,97.75651533541667,80.0,117.0
118,97.75651533541667,98.07433405,82.0,117.0
119,98.07566383541666,98.39348255,82.0,117.0
120,98.39481233541666,98.71396083541667,82.0,117.0
121,98.71396083541667,99.03310933541667,85.0,114.0
122,99.03310933541667,100.30970333541667,80.0,119.0
123,100.30970333541667,100.62752205,78.0,114.0
124,100.62885183541667,100.94667055,78.0,113.0
125,100.94800033541667,101.26714883541666,78.0,113.0
126,101.26714883541666,101.58629733541666,82.0,113.0
127,101.58629733541666,101.90411605,77.0,110.0
128,101.90544583541667,102.22326455,77.0,114.0
129,102.22459433541667,102.54241305,77.0,116.0
130,102.54374283541667,102.86289133541666,77.0,110.0
131,102.86289133541666,103.18071005,75.0,107.0
132,103.18203983541666,103.49985855,75.0,108.0
133,103.50118833541667,103.81900705,75.0,110.0
134,103.82033683541667,104.13948533541667,75.0,113.0
135,104.13948533541667,105.09693083541667,80.0,108.0
136,105.09693083541667,105.41474955,73.0,108.0
137,105.41607933541667,105.73389805,73.0,102.0
138,105.73522783541667,106.05304655,73.0,100.0
139,106.05437633541666,106.37352483541666,73.0,110.0
140,106.37352483541666,106.69267333541667,77.0,114.0
141,106.69267333541667,107.01049205,80.0,113.0
142,107.01182183541667,107.32964055,80.0,107.0
143,107.33097033541667,107.64878905,80.0,104.0
144,107.65011883541666,107.96926733541666,80.0,102.0
145,107.96926733541666,108.28708605,82.0,110.0
146,108.28841583541667,108.60623455,82.0,116.0
147,108.60756433541667,108.92671283541667,82.0,113.0
148,108.92671283541667,109.24586133541666,85.0,113.0
149,109.24586133541666,110.52245533541667,80.0,114.0
150,110.52245533541667,110.84027405,78.0,113.0
151,110.84160383541666,111.15942255,78.0,110.0
152,111.16075233541666,111.47990083541667,78.0,102.0
153,111.47990083541667,111.79904933541667,82.0,104.0
154,111.79904933541667,111.9572938,77.0,113.0
155,111.95862358541666,112.11686805,77.0,91.0
156,112.11819783541667,112.2764423,77.0,94.0
157,112.27777208541667,112.43601655,77.0,93.0
158,112.43734633541666,112.75516505,77.0,119.0
159,112.75649483541666,113.07564333541667,77.0,108.0
160,113.07564333541667,113.39346205,75.0,113.0
161,113.39479183541667,113.71261055,75.0,114.0
162,113.71394033541667,114.03308883541666,75.0,116.0
163,114.03308883541666,114.35223733541666,77.0,113.0
164,114.35223733541666,114.96792798333334,73.0,117.0
165,125.84158333541667,126.15940205,73.0,116.0
166,126.16073183541667,126.47855055,73.0,108.0
167,126.47988033541667,126.79902883541666,73.0,114.0
168,126.79902883541666,127.11817733541666,77.0,114.0
169,127.11817733541666,127.43599605,80.0,116.0
170,127.43732583541667,127.75514455,80.0,114.0
171,127.75647433541667,128.07429305,80.0,117.0
172,128.07562283541665,128.39477133541666,80.0,117.0
173,128.39477133541666,128.71259005,82.0,117.0
174,128.71391983541668,129.03173855,82.0,117.0
175,129.03306833541666,129.35221683541667,82.0,117.0
176,129.35221683541667,129.67136533541665,85.0,114.0
177,129.67136533541665,130.94795933541667,80.0,119.0
178,130.94795933541667,131.26577805,78.0,114.0
179,131.26710783541665,131.58492655,78.0,113.0
180,131.58625633541666,131.90540483541668,78.0,113.0
181,131.90540483541668,132.22455333541666,82.0,113.0
182,132.22455333541666,132.54237205,77.0,110.0
183,132.54370183541667,132.86152055,77.0,114.0
184,132.86285033541665,133.18066905,77.0,116.0
185,133.18199883541666,133.50114733541668,77.0,110.0
186,133.50114733541668,133.81896605,75.0,107.0
187,133.82029583541666,134.13811455,75.0,108.0
188,134.13944433541667,134.45726305,75.0,110.0
189,134.45859283541665,134.77774133541666,75.0,113.0
190,134.77774133541666,135.73518683541667,80.0,108.0
191,135.73518683541667,136.05300555,73.0,108.0
192,136.05433533541665,136.37215405,73.0,102.0
193,136.37348383541666,136.69130255,73.0,100.0
194,136.69263233541668,137.01178083541666,73.0,110.0
195,137.01178083541666,137.33092933541667,77.0,114.0
196,137.33092933541667,137.64874805,80.0,113.0
197,137.65007783541665,137.96789655,80.0,107.0
198,137.96922633541666,138.28704505,80.0,104.0
199,138.28837483541668,138.60752333541666,80.0,102.0
200,138.60752333541666,138.92534205,82.0,110.0
201,138.92667183541667,139.24449055,82.0,116.0
202,139.24582033541665,139.56496883541666,82.0,113.0
203,139.56496883541666,139.88411733541668,85.0,113.0
204,139.88411733541668,141.16071133541666,80.0,114.0
205,141.16071133541666,141.47853005,78.0,113.0
206,141.47985983541668,141.79767855,78.0,110.0
207,141.79900833541666,142.11815683541667,78.0,102.0
208,142.11815683541667,142.43730533541665,82.0,104.0
209,142.43730533541665,142.5955498,77.0,113.0
210,142.59687958541667,142.75512405,77.0,91.0
211,142.75645383541666,142.9146983,77.0,94.0
212,142.91602808541666,143.07427255,77.0,93.0
213,143.07560233541668,143.39342105,77.0,119.0
214,143.39475083541666,143.71389933541667,77.0,108.0
215,143.71389933541667,144.03171805,75.0,113.0
216,144.03304783541665,144.35086655,75.0,114.0
217,144.35219633541666,144.67134483541668,75.0,116.0
218,144.67134483541668,144.99049333541666,77.0,113.0
219,144.99049333541666,145.60618398333332,73.0,117.0
