,start,end,pitch,velocity
0,3.2885593354166667,5.404247933333333,65.0,91.0
1,3.2885593354166667,5.409567075,49.0,85.0
2,3.2885593354166667,5.410896860416667,68.0,89.0
3,3.2885593354166667,5.486694629166666,61.0,86.0
4,5.841747335416667,7.796531897916666,68.0,89.0
5,5.841747335416667,7.8111595375,56.0,83.0
6,5.841747335416667,7.835095675,60.0,85.0
7,5.841747335416667,7.881638164583333,44.0,82.0
8,5.841747335416667,7.956106147916667,63.0,87.0
9,8.394935335416667,10.389613460416667,66.0,88.0
10,8.394935335416667,10.413549597916667,58.0,83.0
11,8.394935335416667,10.438815520833334,61.0,86.0
12,8.394935335416667,10.457432516666666,42.0,78.0
13,8.394935335416667,10.458762302083333,54.0,75.0
14,10.948123335416666,12.922854679166667,49.0,84.0
15,10.948123335416666,12.982695022916667,65.0,84.0
16,10.948123335416666,13.005301375,68.0,86.0
17,10.948123335416666,13.0132800875,61.0,85.0
18,13.820459835416667,14.26194859375,56.0,72.0
19,13.501311335416666,14.594394947916667,49.0,87.0
20,14.458756835416667,14.80450104375,56.0,75.0
21,14.139608335416666,15.066468770833334,68.0,93.0
22,14.139608335416666,15.122319758333333,61.0,94.0
23,14.777905335416667,15.513276670833333,49.0,83.0
24,15.097053835416666,15.563808516666667,56.0,81.0
25,15.735350835416666,15.851042166666666,49.0,78.0
26,15.416202335416667,16.21673315625,68.0,93.0
27,15.416202335416667,16.37231805,61.0,94.0
28,16.054499335416665,16.995987410416667,44.0,83.0
29,16.373647835416666,17.03056183125,51.0,78.0
30,17.011944835416667,17.30848698333333,56.0,86.0
31,16.692796335416666,17.630295054166666,68.0,89.0
32,16.692796335416666,17.631624839583335,60.0,91.0
33,17.331093335416668,18.261943127083335,44.0,89.0
34,17.650241835416665,18.281889908333333,51.0,83.0
35,17.969390335416666,18.648910683333334,56.0,88.0
36,18.288538835416666,18.65821918125,60.0,92.0
37,18.288538835416666,18.6781659625,68.0,88.0
38,18.926835835416668,19.289867254166666,56.0,82.0
39,18.607687335416667,19.680824166666667,49.0,81.0
40,19.565132835416666,19.88561112083333,56.0,83.0
41,19.245984335416665,20.212738333333334,65.0,107.0
42,19.245984335416665,20.231355329166668,68.0,98.0
43,19.245984335416665,20.251302110416667,61.0,102.0
44,19.884281335416667,20.631620739583333,49.0,89.0
45,20.203429835416667,20.65289730625,56.0,84.0
46,20.841726835416665,20.940130956249998,49.0,87.0
47,20.522578335416668,21.228694391666668,65.0,108.0
48,20.522578335416668,21.257949670833334,61.0,104.0
49,20.522578335416668,21.2792262375,68.0,102.0
50,21.160875335416666,22.0930549125,44.0,92.0
51,21.480023835416667,22.142256972916666,51.0,82.0
52,21.799172335416667,22.210076029166668,68.0,96.0
53,21.799172335416667,22.2127356,60.0,98.0
54,21.799172335416667,22.230022810416667,63.0,108.0
55,22.118320835416668,22.4281608375,56.0,81.0
56,22.437469335416665,23.079755691666666,61.0,89.0
57,22.437469335416665,23.08640461875,65.0,90.0
58,22.437469335416665,23.1063514,49.0,88.0
59,22.437469335416665,23.122308825,68.0,87.0
60,24.033211835416665,24.75395553125,56.0,80.0
61,23.714063335416668,24.832412870833334,49.0,88.0
62,24.352360335416666,24.982678622916666,61.0,98.0
63,24.671508835416667,24.9973062625,65.0,98.0
64,25.309805835416668,25.87097528125,56.0,82.0
65,24.990657335416667,25.89491141875,49.0,90.0
66,25.628954335416665,26.001294252083333,61.0,102.0
67,25.948102835416666,26.452091508333332,65.0,110.0
68,26.267251335416667,27.164856491666665,42.0,88.0
69,26.90554833541667,27.296505247916667,58.0,100.0
70,26.586399835416668,27.567781472916668,54.0,88.0
71,27.224696835416665,27.595706966666665,61.0,98.0
72,27.543845335416666,28.5558120375,49.0,89.0
73,27.862993835416667,28.56379075,56.0,87.0
74,28.182142335416668,28.7473011375,61.0,100.0
75,28.501290835416665,28.80714148125,65.0,108.0
76,29.139587835416666,29.77655505,58.0,86.0
77,28.820439335416665,29.795172045833333,51.0,107.0
78,29.458736335416667,30.093043979166666,63.0,104.0
79,29.777884835416668,30.118309902083332,66.0,110.0
80,30.097033335416665,31.0292129125,49.0,93.0
81,30.416181835416666,31.035861839583333,56.0,87.0
82,30.735330335416666,31.12894681875,61.0,102.0
83,31.054478835416667,31.38426561875,65.0,110.0
84,31.373627335416668,32.3536791875,44.0,86.0
85,32.011924335416666,32.530540647916666,56.0,87.0
86,31.692775835416665,32.59835970416667,51.0,85.0
87,32.33107283541667,33.362986318749996,60.0,86.0
88,32.969369835416664,33.607666835416666,51.0,84.0
89,32.65022133541667,33.60899662083333,44.0,87.0
90,33.28851833541667,33.94410254583333,56.0,92.0
91,33.607666835416666,33.94543233125,60.0,84.0
92,34.565112335416664,34.921494827083336,61.0,88.0
93,33.92681533541667,35.0026117375,49.0,91.0
94,34.24596383541667,35.017239377083335,56.0,86.0
95,34.88426083541667,35.473355775,65.0,93.0
96,35.52255783541667,36.02787629375,56.0,88.0
97,35.203409335416666,36.065110285416665,49.0,91.0
98,35.84170633541667,36.14223783958333,61.0,104.0
99,36.160854835416664,36.82707732916667,68.0,102.0
100,36.48000333541667,37.34436385625,42.0,87.0
101,37.11830033541666,37.47335304166667,58.0,87.0
102,36.799151835416666,37.785852614583334,54.0,91.0
103,37.43744883541667,37.79383132708333,61.0,89.0
104,37.756597335416664,38.74063854375,49.0,86.0
105,38.394894335416666,38.77787253541667,61.0,91.0
106,37.91617158541666,38.910851077083336,56.0,87.0
107,38.71404283541666,39.27255271041667,68.0,93.0
108,39.192765585416666,39.885583787499996,58.0,87.0
109,39.03319133541667,40.042498466666665,51.0,89.0
110,39.67148833541667,40.05047717916667,63.0,94.0
111,39.990636835416666,40.321753404166664,66.0,104.0
112,40.62893383541667,41.184784139583336,56.0,86.0
113,40.30978533541666,41.20606070625,49.0,89.0
114,41.26723083541667,41.627602683333336,65.0,91.0
115,40.948082335416665,41.62893246875,61.0,88.0
116,41.586379335416666,42.54249505,44.0,89.0
117,41.90552783541666,42.55978226041667,51.0,85.0
118,42.543824835416665,42.76190964375,60.0,102.0
119,42.22467633541667,42.8855796875,56.0,92.0
120,43.50127033541666,43.9228123125,61.0,98.0
121,42.86297333541667,43.9387697375,49.0,88.0
122,43.182121835416666,44.00791857916666,56.0,87.0
123,44.139567335416665,45.32041678541667,54.0,90.0
124,44.777864335416666,45.845682025,70.0,89.0
125,44.777864335416666,45.898873441666666,66.0,93.0
126,44.777864335416666,45.918820222916665,61.0,90.0
127,45.41616133541667,46.20073473125,54.0,87.0
128,46.373606835416666,46.69009576458333,54.0,89.0
129,46.05445833541667,46.69009576458333,70.0,98.0
130,46.05445833541667,46.74328718125,61.0,96.0
131,46.05445833541667,46.74461696666667,66.0,102.0
132,46.69275533541666,47.76988152291667,49.0,86.0
133,47.331052335416665,48.429455089583335,68.0,98.0
134,47.331052335416665,48.43477423125,61.0,92.0
135,47.331052335416665,48.51456135625,65.0,104.0
136,47.969349335416666,48.749933375,49.0,87.0
137,48.926794835416665,49.227326339583335,49.0,88.0
138,48.60764633541667,49.24461355,65.0,102.0
139,48.60764633541667,49.26589011666667,61.0,100.0
140,48.60764633541667,49.2765284,68.0,94.0
141,49.565091835416666,49.658176814583335,61.0,77.0
142,49.24594333541667,50.067750722916664,54.0,88.0
143,50.20338883541667,50.35764394375,54.0,81.0
144,49.88424033541666,50.55046282916667,61.0,96.0
145,49.88424033541666,50.58237767916667,66.0,89.0
146,49.88424033541666,50.600994675,70.0,94.0
147,50.522537335416665,51.244610816666665,54.0,84.0
148,51.47998283541666,51.579716741666665,54.0,86.0
149,51.160834335416666,51.83370575625,70.0,94.0
150,51.160834335416666,51.85232275208333,61.0,102.0
151,51.160834335416666,51.856312108333334,66.0,108.0
152,52.43742833541667,52.712693916666666,58.0,89.0
153,52.43742833541667,52.75125769375,66.0,91.0
154,52.43742833541667,52.78184275833333,61.0,100.0
155,51.79913133541667,52.7871619,44.0,96.0
156,52.118279835416665,52.849661814583335,51.0,84.0
157,52.756576835416666,52.94673615,56.0,87.0
158,53.075725335416664,54.1196068875,49.0,87.0
159,53.075725335416664,54.26721306875,65.0,93.0
160,53.075725335416664,54.26987263958333,68.0,91.0
161,53.075725335416664,54.276521566666666,61.0,86.0
162,54.671467835416664,55.39221153125,56.0,80.0
163,54.35231933541667,55.470668870833336,49.0,88.0
164,54.99061633541667,55.620934622916664,61.0,98.0
165,55.309764835416665,55.6355622625,65.0,98.0
166,55.94806183541667,56.50923128125,56.0,82.0
167,55.62891333541667,56.53316741875,49.0,90.0
168,56.267210335416664,56.63955025208333,61.0,102.0
169,56.58635883541667,57.09034750833333,65.0,110.0
170,56.905507335416665,57.80311249166667,42.0,88.0
171,57.54380433541667,57.93476124791667,58.0,100.0
172,57.22465583541667,58.20603747291667,54.0,88.0
173,57.862952835416664,58.23396296666667,61.0,98.0
174,58.18210133541667,59.1940680375,49.0,89.0
175,58.501249835416665,59.20204675,56.0,87.0
176,58.82039833541667,59.3855571375,61.0,100.0
177,59.13954683541667,59.44539748125,65.0,108.0
178,59.77784383541667,60.41481105,58.0,86.0
179,59.458695335416664,60.43342804583333,51.0,107.0
180,60.096992335416665,60.731299979166664,63.0,104.0
181,60.41614083541667,60.75656590208333,66.0,110.0
182,60.73528933541667,61.6674689125,49.0,93.0
183,61.054437835416664,61.67411783958333,56.0,87.0
184,61.37358633541667,61.76720281875,61.0,102.0
185,61.692734835416665,62.02252161875,65.0,110.0
186,62.01188333541667,62.9919351875,44.0,86.0
187,62.650180335416664,63.168796647916665,56.0,87.0
188,62.33103183541667,63.23661570416667,51.0,85.0
189,62.96932883541667,64.00124231875,60.0,86.0
190,63.60762583541667,64.24592283541666,51.0,84.0
191,63.288477335416665,64.24725262083334,44.0,87.0
192,63.92677433541667,64.58235854583333,56.0,92.0
193,64.24592283541666,64.58368833125,60.0,84.0
194,65.20336833541667,65.55975082708333,61.0,88.0
195,64.56507133541666,65.6408677375,49.0,91.0
196,64.88421983541667,65.65549537708333,56.0,86.0
197,65.52251683541667,66.111611775,65.0,93.0
198,66.16081383541666,66.66613229375,56.0,88.0
199,65.84166533541666,66.70336628541666,49.0,91.0
200,66.47996233541667,66.78049383958333,61.0,104.0
201,66.79911083541667,67.46533332916667,68.0,102.0
202,67.11825933541667,67.98261985625,42.0,87.0
203,67.75655633541666,68.11160904166667,58.0,87.0
204,67.43740783541666,68.42410861458333,54.0,91.0
205,68.07570483541667,68.43208732708334,61.0,89.0
206,68.39485333541667,69.37889454375,49.0,86.0
207,69.03315033541666,69.41612853541666,61.0,91.0
208,68.55442758541666,69.54910707708333,56.0,87.0
209,69.35229883541666,69.91080871041666,68.0,93.0
210,69.83102158541666,70.5238397875,58.0,87.0
211,69.67144733541667,70.68075446666667,51.0,89.0
212,70.30974433541667,70.68873317916666,63.0,94.0
213,70.62889283541666,70.96000940416667,66.0,104.0
214,71.26718983541667,71.82304013958333,56.0,86.0
215,70.94804133541666,71.84431670625,49.0,89.0
216,71.90548683541667,72.26585868333333,65.0,91.0
217,71.58633833541667,72.26718846874999,61.0,88.0
218,72.22463533541666,73.18075105,44.0,89.0
219,72.54378383541666,73.19803826041667,51.0,85.0
220,73.18208083541667,73.40016564375,60.0,102.0
221,72.86293233541667,73.5238356875,56.0,92.0
222,74.13952633541666,74.5610683125,61.0,98.0
223,73.50122933541667,74.5770257375,49.0,88.0
224,73.82037783541666,74.64617457916667,56.0,87.0
225,74.77782333541667,76.89351193333333,65.0,91.0
226,74.77782333541667,76.898831075,49.0,85.0
227,74.77782333541667,76.90016086041666,68.0,89.0
228,74.77782333541667,76.97595862916667,61.0,86.0
229,77.33101133541666,79.28579589791667,68.0,89.0
230,77.33101133541666,79.3004235375,56.0,83.0
231,77.33101133541666,79.324359675,60.0,85.0
232,77.33101133541666,79.37090216458333,44.0,82.0
233,77.33101133541666,79.44537014791666,63.0,87.0
234,79.88419933541667,81.87887746041666,66.0,88.0
235,79.88419933541667,81.90281359791666,58.0,83.0
236,79.88419933541667,81.92807952083334,61.0,86.0
237,79.88419933541667,81.94669651666666,42.0,78.0
238,79.88419933541667,81.94802630208333,54.0,75.0
239,82.43738733541667,84.41211867916667,49.0,84.0
240,82.43738733541667,84.47195902291666,65.0,84.0
241,82.43738733541667,84.494565375,68.0,86.0
242,82.43738733541667,84.5025440875,61.0,85.0
243,85.30972383541666,85.75121259375,56.0,72.0
244,84.99057533541666,86.08365894791666,49.0,87.0
245,85.94802083541667,86.29376504375,56.0,75.0
246,85.62887233541666,86.55573277083333,68.0,93.0
247,85.62887233541666,86.61158375833334,61.0,94.0
248,86.26716933541667,87.00254067083333,49.0,83.0
249,86.58631783541666,87.05307251666666,56.0,81.0
250,87.22461483541666,87.34030616666666,49.0,78.0
251,86.90546633541666,87.70599715624999,68.0,93.0
252,86.90546633541666,87.86158205,61.0,94.0
253,87.54376333541667,88.48525141041667,44.0,83.0
254,87.86291183541667,88.51982583125,51.0,78.0
255,88.50120883541666,88.79775098333333,56.0,86.0
256,88.18206033541666,89.11955905416667,68.0,89.0
257,88.18206033541666,89.12088883958333,60.0,91.0
258,88.82035733541666,89.75120712708333,44.0,89.0
259,89.13950583541667,89.77115390833333,51.0,83.0
260,89.45865433541667,90.13817468333333,56.0,88.0
261,89.77780283541667,90.14748318125,60.0,92.0
262,89.77780283541667,90.1674299625,68.0,88.0
263,90.41609983541666,90.77913125416667,56.0,82.0
264,90.09695133541666,91.17008816666667,49.0,81.0
265,91.05439683541667,91.37487512083334,56.0,83.0
266,90.73524833541667,91.70200233333334,65.0,107.0
267,90.73524833541667,91.72061932916667,68.0,98.0
268,90.73524833541667,91.74056611041667,61.0,102.0
269,91.37354533541667,92.12088473958333,49.0,89.0
270,91.69269383541666,92.14216130625,56.0,84.0
271,92.33099083541667,92.42939495625,49.0,87.0
272,92.01184233541666,92.71795839166667,65.0,108.0
273,92.01184233541666,92.74721367083333,61.0,104.0
274,92.01184233541666,92.7684902375,68.0,102.0
275,92.65013933541667,93.5823189125,44.0,92.0
276,92.96928783541667,93.63152097291666,51.0,82.0
277,93.28843633541666,93.69934002916666,68.0,96.0
278,93.28843633541666,93.7019996,60.0,98.0
279,93.28843633541666,93.71928681041666,63.0,108.0
280,93.60758483541666,93.9174248375,56.0,81.0
281,93.92673333541667,94.56901969166667,61.0,89.0
282,93.92673333541667,94.57566861875,65.0,90.0
283,93.92673333541667,94.5956154,49.0,88.0
284,93.92673333541667,94.611572825,68.0,87.0
285,95.52247583541667,96.24321953125,56.0,80.0
286,95.20332733541666,96.32167687083333,49.0,88.0
287,95.84162433541667,96.47194262291667,61.0,98.0
288,96.16077283541667,96.4865702625,65.0,98.0
289,96.79906983541666,97.36023928125,56.0,82.0
290,96.47992133541666,97.38417541875,49.0,90.0
291,97.11821833541667,97.49055825208333,61.0,102.0
292,97.43736683541667,97.94135550833333,65.0,110.0
293,97.75651533541667,98.65412049166666,42.0,88.0
294,98.39481233541666,98.78576924791666,58.0,100.0
295,98.07566383541666,99.05704547291667,54.0,88.0
296,98.71396083541667,99.08497096666666,61.0,98.0
297,99.03310933541667,100.0450760375,49.0,89.0
298,99.35225783541667,100.05305475,56.0,87.0
299,99.67140633541666,100.2365651375,61.0,100.0
300,99.99055483541666,100.29640548125,65.0,108.0
301,100.62885183541667,101.26581905,58.0,86.0
302,100.30970333541667,101.28443604583333,51.0,107.0
303,100.94800033541667,101.58230797916667,63.0,104.0
304,101.26714883541666,101.60757390208333,66.0,110.0
305,101.58629733541666,102.5184769125,49.0,93.0
306,101.90544583541667,102.52512583958334,56.0,87.0
307,102.22459433541667,102.61821081875,61.0,102.0
308,102.54374283541667,102.87352961875,65.0,110.0
309,102.86289133541666,103.8429431875,44.0,86.0
310,103.50118833541667,104.01980464791667,56.0,87.0
311,103.18203983541666,104.08762370416666,51.0,85.0
312,103.82033683541667,104.85225031875,60.0,86.0
313,104.45863383541666,105.09693083541667,51.0,84.0
314,104.13948533541667,105.09826062083333,44.0,87.0
315,104.77778233541666,105.43336654583334,56.0,92.0
316,105.09693083541667,105.43469633125,60.0,84.0
317,106.05437633541666,106.41075882708333,61.0,88.0
318,105.41607933541667,106.4918757375,49.0,91.0
319,105.73522783541667,106.50650337708333,56.0,86.0
320,106.37352483541666,106.962619775,65.0,93.0
321,107.01182183541667,107.51714029375,56.0,88.0
322,106.69267333541667,107.55437428541667,49.0,91.0
323,107.33097033541667,107.63150183958334,61.0,104.0
324,107.65011883541666,108.31634132916666,68.0,102.0
325,107.96926733541666,108.83362785625,42.0,87.0
326,108.60756433541667,108.96261704166666,58.0,87.0
327,108.28841583541667,109.27511661458334,54.0,91.0
328,108.92671283541667,109.28309532708333,61.0,89.0
329,109.24586133541666,110.22990254375,49.0,86.0
330,109.88415833541667,110.26713653541667,61.0,91.0
331,109.40543558541667,110.40011507708333,56.0,87.0
332,110.20330683541667,110.76181671041667,68.0,93.0
333,110.68202958541667,111.3748477875,58.0,87.0
334,110.52245533541667,111.53176246666666,51.0,89.0
335,111.16075233541666,111.53974117916667,63.0,94.0
336,111.47990083541667,111.81101740416666,66.0,104.0
337,112.11819783541667,112.67404813958333,56.0,86.0
338,111.79904933541667,112.69532470625,49.0,89.0
339,112.75649483541666,113.11686668333333,65.0,91.0
340,112.43734633541666,113.11819646875,61.0,88.0
341,113.07564333541667,114.03175905,44.0,89.0
342,113.39479183541667,114.04904626041666,51.0,85.0
343,114.03308883541666,114.25117364375,60.0,102.0
344,113.71394033541667,114.3748436875,56.0,92.0
345,114.99053433541667,115.4120763125,61.0,98.0
346,114.35223733541666,115.4280337375,49.0,88.0
347,114.67138583541667,115.49718257916666,56.0,87.0
348,115.62883133541666,116.80968078541666,54.0,90.0
349,116.26712833541667,117.334946025,70.0,89.0
350,116.26712833541667,117.38813744166667,66.0,93.0
351,116.26712833541667,117.40808422291667,61.0,90.0
352,116.90542533541667,117.68999873125,54.0,87.0
353,117.86287083541667,118.17935976458334,54.0,89.0
354,117.54372233541666,118.17935976458334,70.0,98.0
355,117.54372233541666,118.23255118125,61.0,96.0
356,117.54372233541666,118.23388096666666,66.0,102.0
357,118.18201933541667,119.25914552291667,49.0,86.0
358,118.82031633541666,119.91871908958333,68.0,98.0
359,118.82031633541666,119.92403823125,61.0,92.0
360,118.82031633541666,120.00382535625,65.0,104.0
361,119.45861333541667,120.239197375,49.0,87.0
362,120.41605883541666,120.71659033958333,49.0,88.0
363,120.09691033541667,120.73387755,65.0,102.0
364,120.09691033541667,120.75515411666666,61.0,100.0
365,120.09691033541667,120.7657924,68.0,94.0
366,121.05435583541667,121.14744081458333,61.0,77.0
367,120.73520733541666,121.55701472291666,54.0,88.0
368,121.69265283541667,121.84690794375,54.0,81.0
369,121.37350433541667,122.03972682916667,61.0,96.0
370,121.37350433541667,122.07164167916666,66.0,89.0
371,121.37350433541667,122.090258675,70.0,94.0
372,122.01180133541666,122.73387481666667,54.0,84.0
373,122.96924683541667,123.06898074166666,54.0,86.0
374,122.65009833541667,123.32296975625,70.0,94.0
375,122.65009833541667,123.34158675208333,61.0,102.0
376,122.65009833541667,123.34557610833333,66.0,108.0
377,123.92669233541666,124.20195791666667,58.0,89.0
378,123.92669233541666,124.24052169375,66.0,91.0
379,123.92669233541666,124.27110675833333,61.0,100.0
380,123.28839533541667,124.27642589999999,44.0,96.0
381,123.60754383541666,124.33892581458333,51.0,84.0
382,124.24584083541667,124.43600015,56.0,87.0
383,124.56498933541667,125.6088708875,49.0,87.0
384,124.56498933541667,125.75647706875,65.0,93.0
385,124.56498933541667,125.75913663958333,68.0,91.0
386,124.56498933541667,125.76578556666666,61.0,86.0
387,126.16073183541667,126.88147553125,56.0,80.0
388,125.84158333541667,126.95993287083333,49.0,88.0
389,126.47988033541667,127.11019862291667,61.0,98.0
390,126.79902883541666,127.1248262625,65.0,98.0
391,127.43732583541667,127.99849528125,56.0,82.0
392,127.11817733541666,128.02243141875,49.0,90.0
393,127.75647433541667,128.12881425208334,61.0,102.0
394,128.07562283541665,128.57961150833333,65.0,110.0
395,128.39477133541666,129.29237649166666,42.0,88.0
396,129.03306833541666,129.42402524791666,58.0,100.0
397,128.71391983541668,129.69530147291667,54.0,88.0
398,129.35221683541667,129.72322696666666,61.0,98.0
399,129.67136533541665,130.6833320375,49.0,89.0
400,129.99051383541666,130.69131074999999,56.0,87.0
401,130.30966233541668,130.8748211375,61.0,100.0
402,130.62881083541666,130.93466148125,65.0,108.0
403,131.26710783541665,131.90407505,58.0,86.0
404,130.94795933541667,131.92269204583334,51.0,107.0
405,131.58625633541666,132.22056397916666,63.0,104.0
406,131.90540483541668,132.24582990208333,66.0,110.0
407,132.22455333541666,133.1567329125,49.0,93.0
408,132.54370183541667,133.16338183958334,56.0,87.0
409,132.86285033541665,133.25646681875,61.0,102.0
410,133.18199883541666,133.51178561875,65.0,110.0
411,133.50114733541668,134.4811991875,44.0,86.0
412,134.13944433541667,134.65806064791667,56.0,87.0
413,133.82029583541666,134.72587970416666,51.0,85.0
414,134.45859283541665,135.49050631875,60.0,86.0
415,135.09688983541668,135.73518683541667,51.0,84.0
416,134.77774133541666,135.73651662083333,44.0,87.0
417,135.41603833541666,136.07162254583332,56.0,92.0
418,135.73518683541667,136.07295233125,60.0,84.0
419,136.69263233541668,137.04901482708334,61.0,88.0
420,136.05433533541665,137.1301317375,49.0,91.0
421,136.37348383541666,137.14475937708335,56.0,86.0
422,137.01178083541666,137.600875775,65.0,93.0
423,137.65007783541665,138.15539629375,56.0,88.0
424,137.33092933541667,138.19263028541667,49.0,91.0
425,137.96922633541666,138.26975783958332,61.0,104.0
426,138.28837483541668,138.95459732916666,68.0,102.0
427,138.60752333541666,139.47188385625,42.0,87.0
428,139.24582033541665,139.60087304166666,58.0,87.0
429,138.92667183541667,139.91337261458332,54.0,91.0
430,139.56496883541666,139.92135132708333,61.0,89.0
431,139.88411733541668,140.86815854375,49.0,86.0
432,140.52241433541667,140.90539253541667,61.0,91.0
433,140.04369158541667,141.03837107708333,56.0,87.0
434,140.84156283541665,141.40007271041668,68.0,93.0
435,141.32028558541666,142.0131037875,58.0,87.0
436,141.16071133541666,142.17001846666668,51.0,89.0
437,141.79900833541666,142.17799717916665,63.0,94.0
438,142.11815683541667,142.44927340416666,66.0,104.0
439,142.75645383541666,143.31230413958332,56.0,86.0
440,142.43730533541665,143.33358070625,49.0,89.0
441,143.39475083541666,143.75512268333333,65.0,91.0
442,143.07560233541668,143.75645246875,61.0,88.0
443,143.71389933541667,144.67001505,44.0,89.0
444,144.03304783541665,144.68730226041666,51.0,85.0
445,144.67134483541668,144.88942964375,60.0,102.0
446,144.35219633541666,145.0130996875,56.0,92.0
447,145.62879033541665,146.0503323125,61.0,98.0
448,144.99049333541666,146.0662897375,49.0,88.0
449,145.30964183541667,146.13543857916667,56.0,87.0
450,146.26708733541668,148.38277593333333,65.0,91.0
451,146.26708733541668,148.388095075,49.0,85.0
452,146.26708733541668,148.38942486041665,68.0,89.0
453,146.26708733541668,148.46522262916668,61.0,86.0
454,148.82027533541665,150.77505989791666,68.0,89.0
455,148.82027533541665,150.7896875375,56.0,83.0
456,148.82027533541665,150.813623675,60.0,85.0
457,148.82027533541665,150.86016616458332,44.0,82.0
458,148.82027533541665,150.93463414791665,63.0,87.0
459,151.37346333541666,153.36814146041667,66.0,88.0
460,151.37346333541666,153.39207759791665,58.0,83.0
461,151.37346333541666,153.41734352083333,61.0,86.0
462,151.37346333541666,153.43596051666665,42.0,78.0
463,151.37346333541666,153.43729030208334,54.0,75.0
464,153.92665133541666,155.90138267916666,49.0,84.0
465,153.92665133541666,155.96122302291667,65.0,84.0
466,153.92665133541666,155.983829375,68.0,86.0
467,153.92665133541666,155.9918080875,61.0,85.0
468,156.79898783541665,157.24047659375,56.0,72.0
469,156.47983933541667,157.57292294791665,49.0,87.0
470,157.43728483541668,157.78302904375,56.0,75.0
471,157.11813633541666,158.04499677083334,68.0,93.0
472,157.11813633541666,158.10084775833334,61.0,94.0
473,157.75643333541666,158.49180467083335,49.0,83.0
474,158.07558183541667,158.54233651666667,56.0,81.0
475,158.71387883541666,158.82957016666666,49.0,78.0
476,158.39473033541665,159.19526115625,68.0,93.0
477,158.39473033541665,159.35084605,61.0,94.0
478,159.03302733541668,159.97451541041667,44.0,83.0
479,159.35217583541666,160.00908983125,51.0,78.0
480,159.99047283541665,160.28701498333334,56.0,86.0
481,159.67132433541667,160.60882305416666,68.0,89.0
482,159.67132433541667,160.61015283958332,60.0,91.0
483,160.30962133541667,161.24047112708334,44.0,89.0
484,160.62876983541668,161.26041790833332,51.0,83.0
485,160.94791833541666,161.62743868333334,56.0,88.0
486,161.26706683541667,161.63674718125,60.0,92.0
487,161.26706683541667,161.6566939625,68.0,88.0
488,161.90536383541667,162.26839525416668,56.0,82.0
489,161.58621533541665,162.65935216666668,49.0,81.0
490,162.54366083541666,162.86413912083333,56.0,83.0
491,162.22451233541668,163.19126633333335,65.0,107.0
492,162.22451233541668,163.20988332916667,68.0,98.0
493,162.22451233541668,163.22983011041666,61.0,102.0
494,162.86280933541667,163.61014873958334,49.0,89.0
495,163.18195783541665,163.63142530625,56.0,84.0
496,163.82025483541668,163.91865895625,49.0,87.0
497,163.50110633541667,164.20722239166668,65.0,108.0
498,163.50110633541667,164.23647767083332,61.0,104.0
499,163.50110633541667,164.2577542375,68.0,102.0
500,164.13940333541666,165.0715829125,44.0,92.0
501,164.45855183541667,165.12078497291665,51.0,82.0
502,164.77770033541665,165.18860402916667,68.0,96.0
503,164.77770033541665,165.19126359999998,60.0,98.0
504,164.77770033541665,165.20855081041665,63.0,108.0
505,165.09684883541667,165.40668883749998,56.0,81.0
