,start,end,pitch,velocity
0,16.68489725625,16.99101875625,68.0,84.0
1,16.99101875625,17.297140256250003,71.0,89.0
2,17.297140256250003,17.601986250000003,73.0,108.0
3,17.603261756250003,17.908107750000003,73.0,104.0
4,17.909383256250003,18.215504756250002,73.0,110.0
5,18.215504756250002,18.521626256250002,76.0,108.0
6,18.521626256250002,18.82774775625,75.0,110.0
7,18.82774775625,19.13386925625,71.0,110.0
8,19.13386925625,20.35835525625,73.0,116.0
9,20.35835525625,20.664476756250004,68.0,110.0
10,20.664476756250004,20.970598256250003,71.0,108.0
11,20.970598256250003,21.275444250000003,73.0,113.0
12,21.276719756250003,21.581565750000003,73.0,104.0
13,21.582841256250003,21.888962756250002,73.0,108.0
14,21.888962756250002,22.195084256250002,76.0,116.0
15,22.195084256250002,22.501205756250002,75.0,113.0
16,22.501205756250002,22.80732725625,71.0,110.0
17,22.80732725625,24.031813256250004,68.0,100.0
18,24.031813256250004,24.337934756250004,61.0,107.0
19,24.337934756250004,24.644056256250003,64.0,94.0
20,24.644056256250003,24.948902250000003,66.0,107.0
21,24.950177756250003,25.255023750000003,66.0,93.0
22,25.256299256250003,25.562420756250003,66.0,102.0
23,25.562420756250003,25.868542256250002,68.0,108.0
24,25.868542256250002,26.174663756250002,66.0,104.0
25,26.174663756250002,26.519050443750004,64.0,102.0
26,26.48078525625,27.703995750000004,66.0,110.0
27,27.705271256250004,28.03180085625,66.0,107.0
28,28.011392756250004,28.317514256250004,68.0,108.0
29,28.317514256250004,28.622360250000003,71.0,108.0
30,28.623635756250003,28.928481750000003,71.0,98.0
31,28.929757256250003,29.235878756250003,71.0,107.0
32,29.235878756250003,29.542000256250002,73.0,107.0
33,29.542000256250002,29.848121756250002,75.0,110.0
34,29.848121756250002,30.154243256250002,71.0,108.0
35,30.154243256250002,31.377453750000004,68.0,107.0
36,31.378729256250004,31.684850756250004,68.0,119.0
37,31.684850756250004,31.990972256250004,71.0,110.0
38,31.990972256250004,32.29581825,73.0,117.0
39,32.29709375625,32.60193975,73.0,116.0
40,32.60321525625,32.909336756250006,73.0,114.0
41,32.909336756250006,33.21545825625,76.0,113.0
42,33.21545825625,33.521579756250006,75.0,119.0
43,33.521579756250006,33.82770125625,71.0,113.0
44,33.82770125625,35.05218725625,73.0,119.0
45,35.05218725625,35.358308756250004,68.0,116.0
46,35.358308756250004,35.66443025625,71.0,110.0
47,35.66443025625,35.96927625,73.0,116.0
48,35.97055175625,36.27539775,73.0,114.0
49,36.27667325625001,36.58279475625,73.0,116.0
50,36.58279475625,36.888916256250006,76.0,116.0
51,36.888916256250006,37.19503775625,75.0,117.0
52,37.19503775625,37.501159256250006,71.0,110.0
53,37.501159256250006,38.725645256250004,68.0,114.0
54,38.725645256250004,39.03176675625,61.0,116.0
55,39.03176675625,39.337888256250004,64.0,104.0
56,39.337888256250004,39.642734250000004,66.0,113.0
57,39.64400975625001,39.94885575000001,66.0,102.0
58,39.95013125625,40.263905793750006,66.0,110.0
59,40.25625275625001,40.56237425625,68.0,114.0
60,40.56237425625,40.868495756250006,66.0,108.0
61,40.868495756250006,41.17461725625,64.0,108.0
62,41.17461725625,42.397827750000005,66.0,116.0
63,42.39910325625,42.71415330000001,66.0,113.0
64,42.705224756250004,43.01134625625001,68.0,114.0
65,43.01134625625001,43.31619225000001,71.0,114.0
66,43.317467756250004,43.62231375,71.0,107.0
67,43.62358925625001,43.92971075625,71.0,108.0
68,43.92971075625,44.235832256250006,68.0,114.0
69,44.235832256250006,44.54195375625,66.0,108.0
70,44.54195375625,44.848075256250006,59.0,96.0
71,44.848075256250006,48.52153325625,61.0,113.0
72,48.52153325625,49.74601925625,73.0,119.0
73,49.74601925625,50.35826225625001,76.0,120.0
74,50.35826225625001,52.19371575,78.0,120.0
75,52.194991256250006,53.11335575625,78.0,120.0
76,53.11335575625,53.419477256250005,80.0,116.0
77,53.419477256250005,53.739629325,73.0,116.0
78,53.72559875625001,54.031720256250004,71.0,108.0
79,54.031720256250004,55.86844925625,68.0,114.0
80,55.86844925625,56.17329525,64.0,116.0
81,56.174570756250006,56.479416750000006,64.0,108.0
82,56.48069225625,56.786813756250005,64.0,110.0
83,56.786813756250005,57.09293525625001,66.0,108.0
84,57.09293525625001,57.399056756250005,68.0,116.0
85,57.399056756250005,57.70517825625001,71.0,113.0
86,57.70517825625001,58.92838875,66.0,116.0
87,58.92966425625001,59.23578575625,66.0,113.0
88,59.23578575625,59.541907256250006,68.0,108.0
89,59.541907256250006,59.846753250000006,71.0,110.0
90,59.84802875625,60.15287475,71.0,102.0
91,60.154150256250006,60.46027175625001,71.0,107.0
92,60.46027175625001,60.766393256250005,73.0,110.0
93,60.766393256250005,61.07251475625001,75.0,116.0
94,61.07251475625001,61.378636256250005,71.0,108.0
95,61.378636256250005,63.21536525625,68.0,117.0
96,63.21536525625,64.43985125625001,73.0,116.0
97,64.43985125625001,65.05209425625,76.0,119.0
98,65.05209425625,66.88754775000001,78.0,119.0
99,66.88882325625,67.80718775625,78.0,119.0
100,67.80718775625,68.11330925625,80.0,110.0
101,68.11330925625,68.41943075625001,73.0,114.0
102,68.41943075625001,68.72555225625001,71.0,110.0
103,68.72555225625001,70.56228125625,68.0,113.0
104,70.56228125625,70.86712725000001,64.0,102.0
105,70.86840275625,71.17324875000001,64.0,96.0
106,71.17452425625001,71.48064575625001,64.0,93.0
107,71.48064575625001,71.78676725625,66.0,114.0
108,71.78676725625,72.09288875625,68.0,116.0
109,72.09288875625,72.39901025625001,71.0,113.0
110,72.39901025625001,73.62222075000001,66.0,117.0
111,73.62349625625001,73.96788294375001,66.0,114.0
112,73.92961775625001,74.23573925625001,68.0,113.0
113,74.23573925625001,74.54058525,78.0,116.0
114,74.54186075625,74.84670675000001,78.0,114.0
115,74.84798225625,75.15410375625001,78.0,114.0
116,75.15410375625001,75.45894975,71.0,108.0
117,75.46022525625001,75.76634675625,71.0,104.0
118,75.76634675625,76.07119275000001,73.0,108.0
119,76.07246825625,77.90919725625001,73.0,114.0
120,91.99078625625,92.29690775625001,68.0,84.0
121,92.29690775625001,92.60302925625001,71.0,89.0
122,92.60302925625001,92.90787525,73.0,108.0
123,92.90915075625001,93.21399675,73.0,104.0
124,93.21527225625,93.52139375625,73.0,110.0
125,93.52139375625,93.82751525625001,76.0,108.0
126,93.82751525625001,94.13363675625001,75.0,110.0
127,94.13363675625001,94.43975825625,71.0,110.0
128,94.43975825625,95.66424425625002,73.0,116.0
129,95.66424425625002,95.97036575625,68.0,110.0
130,95.97036575625,96.27648725625001,71.0,108.0
131,96.27648725625001,96.58133325000001,73.0,113.0
132,96.58260875625001,96.88745475,73.0,104.0
133,96.88873025625001,97.19485175625,73.0,108.0
134,97.19485175625,97.50097325625,76.0,116.0
135,97.50097325625,97.80709475625001,75.0,113.0
136,97.80709475625001,98.11449176250001,71.0,110.0
137,98.11321625625001,99.33770225625001,68.0,100.0
138,99.33770225625001,99.64382375625001,61.0,107.0
139,99.64382375625001,99.94994525625,64.0,94.0
140,99.94994525625,100.25479125000001,66.0,107.0
141,100.25606675625001,100.56091275000001,66.0,93.0
142,100.56218825625001,100.86830975625001,66.0,102.0
143,100.86830975625001,101.17443125625,68.0,108.0
144,101.17443125625,101.48055275625,66.0,104.0
145,101.48055275625,101.82493944375001,64.0,102.0
146,101.78667425625001,103.00988475000001,66.0,110.0
147,103.01116025625001,103.33768985625001,66.0,107.0
148,103.31728175625001,103.62340325625001,68.0,108.0
149,103.62340325625001,103.92824925000001,71.0,108.0
150,103.92952475625,104.23437075000001,71.0,98.0
151,104.23564625625,104.54176775625001,71.0,107.0
152,104.54176775625001,104.84788925625001,73.0,107.0
153,104.84788925625001,105.15401075625002,75.0,110.0
154,105.15401075625002,105.46013225625,71.0,108.0
155,105.46013225625,106.68334275000001,68.0,107.0
156,106.68461825625,106.99073975625001,68.0,119.0
157,106.99073975625001,107.29686125625001,71.0,110.0
158,107.29686125625001,107.60170725,73.0,117.0
159,107.60298275625001,107.90782875000001,73.0,116.0
160,107.90910425625,108.21522575625,73.0,114.0
161,108.21522575625,108.52134725625001,76.0,113.0
162,108.52134725625001,108.82746875625001,75.0,119.0
163,108.82746875625001,109.13359025625002,71.0,113.0
164,109.13359025625002,110.35807625625002,73.0,119.0
165,110.35807625625002,110.66419775625,68.0,116.0
166,110.66419775625,110.97031925625001,71.0,110.0
167,110.97031925625001,111.27516525000001,73.0,116.0
168,111.27644075625001,111.58128675,73.0,114.0
169,111.58256225625001,111.88868375625002,73.0,116.0
170,111.88868375625002,112.19480525625,76.0,116.0
171,112.19480525625,112.50092675625001,75.0,117.0
172,112.50092675625001,112.80704825625001,71.0,110.0
173,112.80704825625001,114.03153425625001,68.0,114.0
174,114.03153425625001,114.33765575625002,61.0,116.0
175,114.33765575625002,114.64377725625,64.0,104.0
176,114.64377725625,114.94862325000001,66.0,113.0
177,114.94989875625001,115.25474475000001,66.0,102.0
178,115.25602025625001,115.57107030000002,66.0,110.0
179,115.56214175625001,115.86826325625002,68.0,114.0
180,115.86826325625002,116.17438475625,66.0,108.0
181,116.17438475625,116.48050625625001,64.0,108.0
182,116.48050625625001,117.70371675000001,66.0,116.0
183,117.70499225625001,118.02004230000001,66.0,113.0
184,118.01111375625001,118.31723525625002,68.0,114.0
185,118.31723525625002,118.62208125000001,71.0,114.0
186,118.62335675625,118.92820275000001,71.0,107.0
187,118.92947825625001,119.23559975625001,71.0,108.0
188,119.23559975625001,119.54172125625001,68.0,114.0
189,119.54172125625001,119.84784275625002,66.0,108.0
190,119.84784275625002,120.15396425625,59.0,96.0
191,120.15396425625,123.82742225625002,61.0,113.0
192,123.82742225625002,125.05190825625002,73.0,119.0
193,125.05190825625002,125.66415125625001,76.0,120.0
194,125.66415125625001,127.49960475000002,78.0,120.0
195,127.50088025625001,128.41924475625,78.0,120.0
196,128.41924475625,128.72536625625,80.0,116.0
197,128.72536625625,129.04551832500002,73.0,116.0
198,129.03148775625002,129.33760925625,71.0,108.0
199,129.33760925625,131.17433825625002,68.0,114.0
200,131.17433825625002,131.47918425,64.0,116.0
201,131.48045975625,131.78530575000002,64.0,108.0
202,131.78658125625,132.09270275625002,64.0,110.0
203,132.09270275625002,132.39882425625,66.0,108.0
204,132.39882425625,132.70494575625003,68.0,116.0
205,132.70494575625003,133.01106725625002,71.0,113.0
206,133.01106725625002,134.23427775000002,66.0,116.0
207,134.23555325625,134.54167475625002,66.0,113.0
208,134.54167475625002,134.84779625625,68.0,108.0
209,134.84779625625,135.15264225,71.0,110.0
210,135.15391775625002,135.45876375,71.0,102.0
211,135.46003925625,135.76616075625,71.0,107.0
212,135.76616075625,136.07228225625002,73.0,110.0
213,136.07228225625002,136.37840375625,75.0,116.0
214,136.37840375625,136.68452525625003,71.0,108.0
215,136.68452525625003,138.52125425625002,68.0,117.0
216,138.52125425625002,139.74574025625,73.0,116.0
217,139.74574025625,140.35798325625,76.0,119.0
218,140.35798325625,142.19343675000002,78.0,119.0
219,142.19471225625,143.11307675625002,78.0,119.0
220,143.11307675625002,143.41919825625,80.0,110.0
221,143.41919825625,143.72531975625,73.0,114.0
222,143.72531975625,144.03144125625002,71.0,110.0
223,144.03144125625002,145.86817025625,68.0,113.0
224,145.86817025625,146.17301625000002,64.0,102.0
225,146.17429175625,146.47913775,64.0,96.0
226,146.48041325625002,146.78653475625,64.0,93.0
227,146.78653475625,147.09265625625002,66.0,114.0
228,147.09265625625002,147.39877775625,68.0,116.0
229,147.39877775625,147.70489925625,71.0,113.0
230,147.70489925625,148.92810975,66.0,117.0
231,148.92938525625001,149.27377194375,66.0,114.0
232,149.23550675625,149.54162825625002,68.0,113.0
233,149.54162825625002,149.84647425000003,78.0,116.0
234,149.84774975625,150.15259575000002,78.0,114.0
235,150.15387125625003,150.45999275625002,78.0,114.0
236,150.45999275625002,150.76483875000002,71.0,108.0
237,150.76611425625,151.07223575625002,71.0,104.0
238,151.07223575625002,151.37708175,73.0,108.0
239,151.37835725625,153.21508625625,73.0,114.0
240,156.88854425625001,158.11303025625003,68.0,100.0
241,158.11303025625003,158.41915175625002,61.0,107.0
242,158.41915175625002,158.72527325625,64.0,94.0
243,158.72527325625,159.03011925,66.0,107.0
244,159.03139475625002,159.33624075,66.0,93.0
245,159.33751625625,159.64363775625,66.0,102.0
246,159.64363775625,159.94975925625002,68.0,108.0
247,159.94975925625002,160.25588075625,66.0,104.0
248,160.25588075625,160.60026744375003,64.0,102.0
249,160.56200225625003,161.78521275000003,66.0,110.0
250,161.78648825625,162.11301785625002,66.0,107.0
251,162.09260975625003,162.39873125625002,68.0,108.0
252,162.39873125625002,162.70357725000002,71.0,108.0
253,162.70485275625,163.00969875,71.0,98.0
254,163.01097425625002,163.31709575625,71.0,107.0
255,163.31709575625,163.62321725625003,73.0,107.0
256,163.62321725625003,163.92933875625002,75.0,110.0
257,163.92933875625002,164.23546025625,71.0,108.0
258,164.23546025625,165.45867075,68.0,107.0
259,165.45994625625002,165.76606775625,68.0,119.0
260,165.76606775625,166.07218925625003,71.0,110.0
261,166.07218925625003,166.37703525,73.0,117.0
262,166.37831075625002,166.68315675000002,73.0,116.0
263,166.68443225625,166.99055375625002,73.0,114.0
264,166.99055375625002,167.29667525625,76.0,113.0
265,167.29667525625,167.60279675625003,75.0,119.0
266,167.60279675625003,167.90891825625002,71.0,113.0
267,167.90891825625002,169.13340425625,73.0,119.0
268,169.13340425625,169.43952575625002,68.0,116.0
269,169.43952575625002,169.74564725625,71.0,110.0
270,169.74564725625,170.05049325000002,73.0,116.0
271,170.05176875625003,170.35661475,73.0,114.0
272,170.35789025625002,170.66401175625,73.0,116.0
273,170.66401175625,170.97013325625002,76.0,116.0
274,170.97013325625002,171.27625475625,75.0,117.0
275,171.27625475625,171.58237625625003,71.0,110.0
276,171.58237625625003,172.80686225625,68.0,114.0
277,172.80686225625,173.11298375625,61.0,116.0
278,173.11298375625,173.41910525625002,64.0,104.0
279,173.41910525625002,173.72395125000003,66.0,113.0
280,173.72522675625,174.03007275000002,66.0,102.0
281,174.03134825625003,174.3463983,66.0,110.0
282,174.33746975625002,174.64359125625,68.0,114.0
283,174.64359125625,174.94971275625002,66.0,108.0
284,174.94971275625002,175.25583425625,64.0,108.0
285,175.25583425625,176.47904475,66.0,116.0
286,176.48032025625002,176.79537030000003,66.0,113.0
287,176.78644175625,177.09256325625,68.0,114.0
288,177.09256325625,177.39740925,71.0,114.0
289,177.39868475625002,177.70353075000003,71.0,107.0
290,177.70480625625,178.01092775625003,71.0,108.0
291,178.01092775625003,178.31704925625002,68.0,114.0
292,178.31704925625002,178.62317075625,66.0,108.0
293,178.62317075625,178.92929225625002,59.0,96.0
294,178.92929225625002,182.60275025625,61.0,113.0
295,182.60275025625,183.82723625625002,73.0,119.0
296,183.82723625625002,184.43947925625002,76.0,120.0
297,184.43947925625002,186.27493275,78.0,120.0
298,186.27620825625002,187.19457275625,78.0,120.0
299,187.19457275625,187.50069425625003,80.0,116.0
300,187.50069425625003,187.82084632500002,73.0,116.0
301,187.80681575625002,188.11293725625,71.0,108.0
302,188.11293725625,189.94966625625003,68.0,114.0
303,189.94966625625003,190.25451225,64.0,116.0
304,190.25578775625002,190.56063375000002,64.0,108.0
305,190.56190925625,190.86803075625002,64.0,110.0
306,190.86803075625002,191.17415225625,66.0,108.0
307,191.17415225625,191.48027375625003,68.0,116.0
308,191.48027375625003,191.78639525625002,71.0,113.0
309,191.78639525625002,193.00960575000002,66.0,116.0
310,193.01088125625003,193.31700275625002,66.0,113.0
311,193.31700275625002,193.62312425625,68.0,108.0
312,193.62312425625,193.92797025000002,71.0,110.0
313,193.92924575625003,194.23409175,71.0,102.0
314,194.23536725625002,194.54148875625003,71.0,107.0
315,194.54148875625003,194.84761025625002,73.0,110.0
316,194.84761025625002,195.15373175625,75.0,116.0
317,195.15373175625,195.45985325625003,71.0,108.0
318,195.45985325625003,197.29658225625002,68.0,117.0
319,197.29658225625002,198.52106825625003,73.0,116.0
320,198.52106825625003,199.13331125625,76.0,119.0
321,199.13331125625,200.96876475000002,78.0,119.0
322,200.97004025625003,201.88840475625003,78.0,119.0
323,201.88840475625003,202.19452625625001,80.0,110.0
324,202.19452625625001,202.50064775625003,73.0,114.0
325,202.50064775625003,202.80676925625002,71.0,110.0
326,202.80676925625002,204.64349825625,68.0,113.0
327,204.64349825625,204.94834425000002,64.0,102.0
328,204.94961975625003,205.25446575,64.0,96.0
329,205.25574125625002,205.56186275625,64.0,93.0
330,205.56186275625,205.86798425625003,66.0,114.0
331,205.86798425625003,206.17410575625001,68.0,116.0
332,206.17410575625001,206.48022725625003,71.0,113.0
333,206.48022725625003,207.70343775,66.0,117.0
334,207.70471325625002,208.04909994375,66.0,114.0
335,208.01083475625,208.31695625625002,68.0,113.0
336,208.31695625625002,208.62180225000003,78.0,116.0
337,208.62307775625,208.92792375000002,78.0,114.0
338,208.92919925625003,209.23532075625002,78.0,114.0
339,209.23532075625002,209.54016675000003,71.0,108.0
340,209.54144225625,209.84756375625003,71.0,104.0
341,209.84756375625003,210.15240975000003,73.0,108.0
342,210.15368525625001,211.99041425625003,73.0,114.0
343,213.21490025625002,213.52102175625,68.0,84.0
344,213.52102175625,213.82714325625003,71.0,89.0
345,213.82714325625003,214.13198925000003,73.0,108.0
346,214.13326475625001,214.43811075000002,73.0,104.0
347,214.43938625625003,214.74550775625002,73.0,110.0
348,214.74550775625002,215.05162925625,76.0,108.0
349,215.05162925625,215.35775075625003,75.0,110.0
350,215.35775075625003,215.66387225625002,71.0,110.0
351,215.66387225625002,216.88835825625003,73.0,116.0
352,216.88835825625003,217.19447975625002,68.0,110.0
353,217.19447975625002,217.50060125625,71.0,108.0
354,217.50060125625,217.80544725000001,73.0,113.0
355,217.80672275625002,218.11156875000003,73.0,104.0
356,218.11284425625,218.41896575625003,73.0,108.0
357,218.41896575625003,218.72508725625002,76.0,116.0
358,218.72508725625002,219.03120875625,75.0,113.0
359,219.03120875625,219.33733025625003,71.0,110.0
360,219.33733025625003,220.56181625625,68.0,100.0
361,220.56181625625,220.86793775625003,61.0,107.0
362,220.86793775625003,221.17405925625002,64.0,94.0
363,221.17405925625002,221.47890525000003,66.0,107.0
364,221.48018075625,221.78502675000001,66.0,93.0
365,221.78630225625002,222.09242375625,66.0,102.0
366,222.09242375625,222.39854525625003,68.0,108.0
367,222.39854525625003,222.70466675625002,66.0,104.0
368,222.70466675625002,223.04905344375,64.0,102.0
369,223.01078825625,224.23399875,66.0,110.0
370,224.23527425625002,224.56180385625,66.0,107.0
371,224.54139575625,224.84751725625003,68.0,108.0
372,224.84751725625003,225.15236325,71.0,108.0
373,225.15363875625002,225.76460625,71.0,98.0
374,225.76588175625002,226.07200325625,71.0,107.0
375,226.07200325625,226.68424625625002,68.0,108.0
376,226.68424625625002,227.90873225625003,66.0,107.0
377,227.90873225625003,230.05158275625,59.0,107.0
378,230.05158275625,231.72887347500003,61.0,114.0
