,start,end,pitch,velocity
0,29.57349786666667,29.944821,72.0,85.0
1,30.001806233333337,30.415408733333336,70.0,84.0
2,30.45033516666667,30.849231800000002,68.0,83.0
3,30.88599646666667,31.95584826666667,72.0,85.0
4,32.1617304,32.547759400000004,72.0,86.0
5,32.626803433333336,32.98709716666667,70.0,87.0
6,33.064302966666666,33.404376133333336,68.0,85.0
7,33.536728933333336,33.8933462,67.0,86.0
8,33.9926108,34.72790413333333,68.0,83.0
9,34.84555106666667,36.095549733333335,75.0,89.0
10,36.617608000000004,36.9429753,75.0,89.0
11,37.058784,37.40988656666667,75.0,88.0
12,37.49996,37.829003766666666,67.0,81.0
13,37.941136,38.30326796666667,70.0,81.0
14,38.382312000000006,38.994443700000005,68.0,85.0
15,39.264664,39.62128126666667,70.0,86.0
16,39.70584,40.025692600000006,72.0,85.0
17,40.147016,40.48525093333333,72.0,86.0
18,40.58819200000001,40.941132800000005,70.0,83.0
19,41.029368000000005,41.67642613333334,68.0,85.0
20,41.91172,43.330836133333335,67.0,85.0
21,43.676424000000004,44.0403942,68.0,82.0
22,44.1176,44.5256878,75.0,91.0
23,44.558776,44.897010933333334,72.0,84.0
24,44.999952,46.1249508,73.0,80.0
25,46.32348,46.69664136666667,73.0,85.0
26,46.764656,47.108405633333334,75.0,87.0
27,47.205832,47.60656686666667,73.0,82.0
28,47.64700800000001,48.03119876666667,72.0,85.0
29,48.088184000000005,48.485242400000004,70.0,85.0
30,48.529360000000004,49.55325596666667,73.0,82.0
31,49.85288800000001,50.20399056666667,73.0,85.0
32,50.294064000000006,50.63413716666667,75.0,85.0
33,50.735240000000005,51.0992102,73.0,85.0
34,51.176416,51.562445000000004,72.0,86.0
35,51.617592,51.97420926666667,70.0,85.0
36,52.058768,53.0072964,73.0,85.0
37,53.823472,54.16722163333334,75.0,89.0
38,54.264648,54.630456433333336,73.0,81.0
39,54.70582400000001,55.22788226666667,72.0,85.0
40,55.588176000000004,55.95398443333334,68.0,85.0
41,56.029352,57.38964466666667,70.0,79.0
42,57.80876186666667,58.180085000000005,72.0,85.0
43,58.23707023333334,58.65067273333334,70.0,84.0
44,58.68559916666667,59.084495800000006,68.0,83.0
45,59.12126046666667,60.19111226666667,72.0,85.0
46,60.396994400000004,60.783023400000005,72.0,86.0
47,60.86206743333334,61.22236116666667,70.0,87.0
48,61.299566966666674,61.63964013333334,68.0,85.0
49,61.77199293333334,62.128610200000004,67.0,86.0
50,62.2278748,62.96316813333334,68.0,83.0
51,63.08081506666667,64.33081373333334,75.0,89.0
52,64.852872,65.1782393,75.0,89.0
53,65.294048,65.64515056666667,75.0,88.0
54,65.735224,66.06426776666667,67.0,81.0
55,66.1764,66.53853196666667,70.0,81.0
56,66.617576,67.2297077,68.0,85.0
57,67.49992800000001,67.85654526666667,70.0,86.0
58,67.94110400000001,68.2609566,72.0,85.0
59,68.38228000000001,68.72051493333333,72.0,86.0
60,68.82345600000001,69.1763968,70.0,83.0
61,69.264632,69.91169013333334,68.0,85.0
62,70.146984,71.56610013333334,67.0,85.0
63,71.91168800000001,72.27565820000001,68.0,82.0
64,72.35286400000001,72.7609518,75.0,91.0
65,72.79404000000001,73.13227493333333,72.0,84.0
66,73.23521600000001,74.36021480000001,73.0,80.0
67,74.558744,74.93190536666667,73.0,85.0
68,74.99992,75.34366963333333,75.0,87.0
69,75.441096,75.84183086666667,73.0,82.0
70,75.882272,76.26646276666668,72.0,85.0
71,76.323448,76.7205064,70.0,85.0
72,76.76462400000001,77.78851996666667,73.0,82.0
73,78.08815200000001,78.43925456666668,73.0,85.0
74,78.529328,78.86940116666668,75.0,85.0
75,78.970504,79.3344742,73.0,85.0
76,79.41168,79.79770900000001,72.0,86.0
77,79.852856,80.20947326666668,70.0,85.0
78,80.294032,81.2425604,73.0,85.0
79,81.61756000000001,81.99072136666668,73.0,87.0
80,82.05873600000001,82.39880916666667,75.0,86.0
81,82.49991200000001,82.87674983333334,73.0,86.0
82,82.94108800000001,83.25910236666667,72.0,86.0
83,83.382264,84.11204263333335,73.0,87.0
84,84.264616,85.6763792,75.0,81.0
85,86.02932000000001,86.39329020000001,75.0,96.0
86,86.47049600000001,86.79586330000001,77.0,87.0
87,86.91167200000001,87.2204952,79.0,85.0
88,87.35284800000001,87.72968583333333,80.0,85.0
89,87.79402400000001,87.91902386666668,75.0,87.0
90,88.014612,89.26461066666667,75.0,86.0
91,89.558728,89.94108053333333,84.0,86.0
92,89.999904,90.31791836666667,82.0,85.0
93,90.44108000000001,90.76460906666668,80.0,85.0
94,90.88225600000001,91.60835816666668,82.0,84.0
95,91.76460800000001,92.72784226666667,75.0,86.0
96,93.088136,93.46865030000001,72.0,87.0
97,93.529312,93.89512043333335,82.0,86.0
98,93.970488,94.28298766666667,79.0,85.0
99,94.411664,94.76644303333335,80.0,84.0
100,94.85284,94.99989866666668,79.0,86.0
101,95.073428,95.65982443333334,80.0,90.0
102,95.73519200000001,96.11202983333334,84.0,86.0
103,96.17636800000001,96.48886766666668,79.0,85.0
104,96.61754400000001,96.7774703,77.0,85.0
105,96.838132,97.65614583333334,79.0,87.0
106,97.72048400000001,97.97783666666668,75.0,87.0
107,97.941072,99.6947466,77.0,86.0
108,100.14695200000001,100.46496636666667,75.0,86.0
109,100.58812800000001,100.92268646666668,73.0,84.0
110,101.02930400000001,101.3877595,72.0,87.0
111,101.47048000000001,102.19474393333334,73.0,87.0
112,102.352832,102.93922843333334,84.0,87.0
113,103.01459600000001,103.65981590000001,82.0,87.0
114,103.67636,104.05319783333334,82.0,87.0
115,104.117536,104.43003566666667,84.0,86.0
116,104.55871200000001,104.90429986666668,85.0,86.0
117,104.99988800000001,106.3454748,87.0,86.0
118,106.32341600000001,106.79032726666668,85.0,86.0
119,106.76459200000001,107.75539976666667,84.0,85.0
120,108.08812,108.21863456666668,82.0,89.0
121,108.30870800000001,108.46128136666667,80.0,86.0
122,108.529296,108.93554556666668,85.0,89.0
123,108.97047200000002,109.35466276666668,84.0,86.0
124,109.41164800000001,109.82892696666667,82.0,87.0
125,109.85282400000001,110.1506178,80.0,86.0
126,110.29400000000001,110.74620540000001,80.0,85.0
127,110.73517600000001,111.13407263333335,77.0,86.0
128,111.17635200000001,111.5403222,79.0,82.0
129,111.61752800000001,111.8822336,80.0,85.0
130,112.058704,113.92267260000001,82.0,86.0
131,114.26458400000001,114.62855420000001,75.0,96.0
132,114.70576000000001,115.03112730000001,77.0,87.0
133,115.14693600000001,115.4557592,79.0,85.0
134,115.58811200000001,115.96494983333334,80.0,85.0
135,116.02928800000001,116.15428786666668,75.0,87.0
136,116.24987600000001,117.49987466666667,75.0,86.0
137,117.793992,118.17634453333335,84.0,86.0
138,118.23516800000002,118.55318236666668,82.0,85.0
139,118.67634400000001,118.99987306666668,80.0,85.0
140,119.11752000000001,119.84362216666668,82.0,84.0
141,119.99987200000001,120.96310626666667,75.0,86.0
142,121.3234,121.70391430000001,72.0,87.0
143,121.764576,122.13038443333335,82.0,86.0
144,122.205752,122.51825166666667,79.0,85.0
145,122.646928,123.00170703333335,80.0,84.0
146,123.08810400000002,123.23516266666668,79.0,86.0
147,123.30869200000001,123.89508843333334,80.0,90.0
148,123.97045600000001,124.34729383333334,84.0,86.0
149,124.41163200000001,124.72413166666668,79.0,85.0
150,124.85280800000001,125.0127343,77.0,85.0
151,125.073396,125.89140983333334,79.0,87.0
152,125.95574800000001,126.21310066666668,75.0,87.0
153,126.176336,127.9300106,77.0,86.0
154,128.382216,128.7002303666667,75.0,86.0
155,128.823392,129.15795046666668,73.0,84.0
156,129.264568,129.62302350000002,72.0,87.0
157,129.705744,130.43000793333334,73.0,87.0
158,130.588096,131.17449243333334,84.0,87.0
159,131.24986,131.8950799,82.0,87.0
160,131.91162400000002,132.28846183333334,82.0,87.0
161,132.3528,132.66529966666667,84.0,86.0
162,132.79397600000001,133.13956386666666,85.0,86.0
163,133.235152,134.5807388,87.0,86.0
164,134.55868,135.02559126666668,85.0,86.0
165,134.99985600000002,135.99066376666667,84.0,85.0
166,136.323384,136.45389856666668,82.0,89.0
167,136.543972,136.69654536666667,80.0,86.0
168,136.76456000000002,137.1708095666667,85.0,89.0
169,137.205736,137.58992676666668,84.0,86.0
170,137.64691200000001,137.8675,82.0,87.0
171,137.8675,138.30867600000002,80.0,86.0
172,138.749852,139.12117513333334,84.0,86.0
173,139.19102800000002,139.57521876666667,82.0,85.0
174,139.632204,140.7939674666667,80.0,82.0
175,140.73514400000002,141.16529060000002,79.0,87.0
176,141.17632,143.74433196666666,80.0,86.0
177,160.1615938666667,160.53291700000003,72.0,85.0
178,160.58990223333333,161.00350473333336,70.0,84.0
179,161.03843116666667,161.43732780000002,68.0,83.0
180,161.4740924666667,162.54394426666667,72.0,85.0
181,162.74982640000002,163.13585540000003,72.0,86.0
182,163.21489943333336,163.57519316666668,70.0,87.0
183,163.65239896666668,163.99247213333334,68.0,85.0
184,164.12482493333334,164.4814422,67.0,86.0
185,164.5807068,165.31600013333335,68.0,83.0
186,165.43364706666668,166.68364573333335,75.0,89.0
187,167.20570400000003,167.5310713,75.0,89.0
188,167.64688,167.99798256666668,75.0,88.0
189,168.08805600000002,168.41709976666667,67.0,81.0
190,168.529232,168.8913639666667,70.0,81.0
191,168.97040800000002,169.5825397,68.0,85.0
192,169.85276000000002,170.20937726666668,70.0,86.0
193,170.293936,170.61378860000002,72.0,85.0
194,170.73511200000002,171.07334693333334,72.0,86.0
195,171.176288,171.52922880000003,70.0,83.0
196,171.617464,172.26452213333334,68.0,85.0
197,172.499816,173.91893213333336,67.0,85.0
198,174.26452,174.62849020000002,68.0,82.0
199,174.70569600000002,175.11378380000002,75.0,91.0
200,175.146872,175.48510693333336,72.0,84.0
201,175.58804800000001,176.7130468,73.0,80.0
202,176.91157600000003,177.2847373666667,73.0,85.0
203,177.352752,177.69650163333336,75.0,87.0
204,177.79392800000002,178.19466286666668,73.0,82.0
205,178.235104,178.61929476666668,72.0,85.0
206,178.67628000000002,179.0733384,70.0,85.0
207,179.117456,180.1413519666667,73.0,82.0
208,180.44098400000001,180.79208656666668,73.0,85.0
209,180.88216000000003,181.22223316666668,75.0,85.0
210,181.323336,181.68730620000002,73.0,85.0
211,181.76451200000002,182.150541,72.0,86.0
212,182.205688,182.56230526666667,70.0,85.0
213,182.64686400000002,183.5953924,73.0,85.0
214,184.41156800000002,184.75531763333333,75.0,89.0
215,184.852744,185.21855243333334,73.0,81.0
216,185.29392,185.8159782666667,72.0,85.0
217,186.176272,186.54208043333335,68.0,85.0
218,186.61744800000002,187.97774066666668,70.0,79.0
219,188.3968578666667,188.76818100000003,72.0,85.0
220,188.82516623333333,189.23876873333336,70.0,84.0
221,189.27369516666667,189.67259180000002,68.0,83.0
222,189.7093564666667,190.77920826666667,72.0,85.0
223,190.98509040000002,191.37111940000003,72.0,86.0
224,191.45016343333336,191.81045716666668,70.0,87.0
225,191.88766296666668,192.22773613333334,68.0,85.0
226,192.36008893333334,192.7167062,67.0,86.0
227,192.8159708,193.55126413333335,68.0,83.0
228,193.66891106666668,194.91890973333335,75.0,89.0
229,195.44096800000003,195.7663353,75.0,89.0
230,195.882144,196.23324656666668,75.0,88.0
231,196.32332000000002,196.6523637666667,67.0,81.0
232,196.764496,197.1266279666667,70.0,81.0
233,197.20567200000002,197.8178037,68.0,85.0
234,198.08802400000002,198.44464126666668,70.0,86.0
235,198.5292,198.84905260000002,72.0,85.0
236,198.97037600000002,199.30861093333334,72.0,86.0
237,199.41155200000003,199.76449280000003,70.0,83.0
238,199.852728,200.49978613333334,68.0,85.0
239,200.73508,202.15419613333336,67.0,85.0
240,202.499784,202.86375420000002,68.0,82.0
241,202.94096000000002,203.34904780000002,75.0,91.0
242,203.382136,203.72037093333336,72.0,84.0
243,203.82331200000002,204.9483108,73.0,80.0
244,205.14684000000003,205.5200013666667,73.0,85.0
245,205.588016,205.93176563333336,75.0,87.0
246,206.02919200000002,206.42992686666668,73.0,82.0
247,206.470368,206.85455876666668,72.0,85.0
248,206.91154400000002,207.3086024,70.0,85.0
249,207.35272,208.3766159666667,73.0,82.0
250,208.67624800000002,209.02735056666668,73.0,85.0
251,209.11742400000003,209.45749716666668,75.0,85.0
252,209.5586,209.92257020000002,73.0,85.0
253,209.99977600000003,210.385805,72.0,86.0
254,210.440952,210.79756926666667,70.0,85.0
255,210.88212800000002,211.8306564,73.0,85.0
256,212.205656,212.57881736666667,73.0,87.0
257,212.64683200000002,212.98690516666667,75.0,86.0
258,213.088008,213.46484583333336,73.0,86.0
259,213.52918400000001,213.84719836666667,72.0,86.0
260,213.97036000000003,214.70013863333335,73.0,87.0
261,214.85271200000003,216.26447520000002,75.0,81.0
262,216.61741600000002,216.9813862,75.0,96.0
263,217.058592,217.38395930000001,77.0,87.0
264,217.49976800000002,217.80859120000002,79.0,85.0
265,217.94094400000003,218.31778183333336,80.0,85.0
266,218.38212000000001,218.50711986666667,75.0,87.0
267,218.602708,219.85270666666668,75.0,86.0
268,220.146824,220.52917653333336,84.0,86.0
269,220.58800000000002,220.90601436666668,82.0,85.0
270,221.029176,221.3527050666667,80.0,85.0
271,221.47035200000002,222.19645416666668,82.0,84.0
272,222.35270400000002,223.31593826666668,75.0,86.0
273,223.67623200000003,224.05674630000001,72.0,87.0
274,224.117408,224.48321643333335,82.0,86.0
275,224.55858400000002,224.8710836666667,79.0,85.0
276,224.99976,225.35453903333334,80.0,84.0
277,225.44093600000002,225.58799466666667,79.0,86.0
278,225.66152400000001,226.24792043333335,80.0,90.0
279,226.32328800000002,226.70012583333335,84.0,86.0
280,226.764464,227.07696366666667,79.0,85.0
281,227.20564000000002,227.3655663,77.0,85.0
282,227.426228,228.24424183333335,79.0,87.0
283,228.30858,228.5659326666667,75.0,87.0
284,228.52916800000003,230.2828426,77.0,86.0
285,230.735048,231.0530623666667,75.0,86.0
286,231.17622400000002,231.51078246666668,73.0,84.0
287,231.6174,231.97585550000002,72.0,87.0
288,232.05857600000002,232.78283993333335,73.0,87.0
289,232.940928,233.52732443333335,84.0,87.0
290,233.60269200000002,234.24791190000002,82.0,87.0
291,234.26445600000002,234.64129383333335,82.0,87.0
292,234.705632,235.01813166666668,84.0,86.0
293,235.14680800000002,235.4923958666667,85.0,86.0
294,235.587984,236.9335708,87.0,86.0
295,236.91151200000002,237.3784232666667,85.0,86.0
296,237.35268800000003,238.34349576666668,84.0,85.0
297,238.676216,238.8067305666667,82.0,89.0
298,238.89680400000003,239.04937736666668,80.0,86.0
299,239.11739200000002,239.5236415666667,85.0,89.0
300,239.558568,239.94275876666669,84.0,86.0
301,239.99974400000002,240.41702296666668,82.0,87.0
302,240.44092,240.73871380000003,80.0,86.0
303,240.88209600000002,241.33430140000002,80.0,85.0
304,241.32327200000003,241.72216863333335,77.0,86.0
305,241.76444800000002,242.12841820000003,79.0,82.0
306,242.20562400000003,242.4703296,80.0,85.0
307,242.6468,244.5107686,82.0,86.0
308,244.85268000000002,245.21665020000003,75.0,96.0
309,245.293856,245.61922330000002,77.0,87.0
310,245.73503200000002,246.04385520000002,79.0,85.0
311,246.17620800000003,246.55304583333336,80.0,85.0
312,246.61738400000002,246.7423838666667,75.0,87.0
313,246.837972,248.08797066666668,75.0,86.0
314,248.382088,248.76444053333336,84.0,86.0
315,248.82326400000002,249.14127836666668,82.0,85.0
316,249.26444,249.5879690666667,80.0,85.0
317,249.70561600000002,250.43171816666668,82.0,84.0
318,250.58796800000002,251.55120226666668,75.0,86.0
319,251.91149600000003,252.29201030000002,72.0,87.0
320,252.352672,252.71848043333335,82.0,86.0
321,252.79384800000003,253.1063476666667,79.0,85.0
322,253.235024,253.58980303333334,80.0,84.0
323,253.67620000000002,253.82325866666667,79.0,86.0
324,253.89678800000002,254.48318443333335,80.0,90.0
325,254.55855200000002,254.93538983333335,84.0,86.0
326,254.99972800000003,255.31222766666667,79.0,85.0
327,255.44090400000002,255.6008303,77.0,85.0
328,255.661492,256.47950583333335,79.0,87.0
329,256.54384400000004,256.80119666666667,75.0,87.0
330,256.764432,258.5181066,77.0,86.0
331,258.97031200000004,259.2883263666667,75.0,86.0
332,259.411488,259.7460464666667,73.0,84.0
333,259.852664,260.2111195,72.0,87.0
334,260.29384000000005,261.01810393333335,73.0,87.0
335,261.176192,261.76258843333335,84.0,87.0
336,261.837956,262.4831759,82.0,87.0
337,262.49972,262.8765578333334,82.0,87.0
338,262.940896,263.2533956666667,84.0,86.0
339,263.382072,263.72765986666667,85.0,86.0
340,263.82324800000004,265.1688348,87.0,86.0
341,265.14677600000005,265.61368726666666,85.0,86.0
342,265.58795200000003,266.5787597666667,84.0,85.0
343,266.91148000000004,267.0419945666667,82.0,89.0
344,267.132068,267.2846413666667,80.0,86.0
345,267.352656,267.75890556666667,85.0,89.0
346,267.793832,268.1780227666667,84.0,86.0
347,268.235008,268.455596,82.0,87.0
348,268.455596,268.896772,80.0,86.0
349,269.15228643333336,269.52360956666666,84.0,86.0
350,269.53831543333337,269.9243444333334,82.0,85.0
351,269.97949143333335,270.5272849666667,80.0,82.0
352,270.4831673666667,270.9133139666667,79.0,87.0
353,270.90963750000003,274.33242796666667,80.0,86.0
354,274.85264800000004,275.0236037,80.0,87.0
355,275.073236,275.2331623,79.0,87.0
356,275.29382400000003,275.57691193333335,80.0,87.0
357,275.735,275.8838969,80.0,87.0
358,275.95558800000003,276.1081613666667,79.0,88.0
359,276.176176,276.45007276666666,80.0,87.0
360,276.61735200000004,276.7478665666667,80.0,86.0
361,276.83794,277.1522779,80.0,86.0
362,277.27911600000004,277.6191891666667,82.0,85.0
363,277.72029200000003,278.1816885666667,80.0,88.0
364,278.38205600000003,278.56955580000005,80.0,86.0
365,278.602644,278.7644085333334,79.0,83.0
366,278.823232,279.374702,80.0,89.0
367,279.484996,279.6265399666667,79.0,86.0
368,279.70558400000004,280.20558346666667,80.0,86.0
369,280.36734800000005,280.73315643333336,80.0,85.0
370,280.80852400000003,281.1890383,77.0,88.0
371,281.2497,281.67617013333336,75.0,87.0
372,281.690876,281.80300823333334,80.0,81.0
373,281.911464,282.0254344666667,80.0,83.0
374,282.13205200000004,282.2735959666667,80.0,85.0
375,282.35264,282.6724926,80.0,86.0
376,282.79381600000005,282.9169776333334,80.0,81.0
377,283.014404,283.6357268666667,80.0,87.0
378,283.676168,284.00705000000005,77.0,87.0
379,284.117344,284.4537407,79.0,86.0
380,284.55852000000004,284.9132990333334,80.0,87.0
381,284.99969600000003,286.01440080000003,84.0,87.0
382,286.102636,286.2607240666667,87.0,87.0
383,286.32322400000004,286.54013553333334,84.0,89.0
384,286.543812,287.8783694,82.0,86.0
385,287.86734,288.03461923333333,80.0,85.0
386,288.08792800000003,288.2405013666667,82.0,87.0
387,288.308516,290.42248433333333,83.0,91.0
388,290.734984,291.09895420000004,76.0,96.0
389,291.17616000000004,291.5015273,78.0,87.0
390,291.617336,291.92615920000003,80.0,85.0
391,292.058512,292.43534983333336,81.0,85.0
392,292.49968800000005,292.6246878666667,76.0,87.0
393,292.720276,293.9702746666667,76.0,86.0
394,294.26439200000004,294.64674453333333,85.0,86.0
395,294.705568,295.0235823666667,83.0,85.0
396,295.146744,295.47027306666666,81.0,85.0
397,295.58792,296.3140221666667,83.0,84.0
398,296.470272,297.4335062666667,76.0,86.0
399,297.79380000000003,298.17431430000005,73.0,87.0
400,298.234976,298.60078443333333,83.0,86.0
401,298.676152,298.98865166666667,80.0,85.0
402,299.11732800000004,299.4721070333334,81.0,84.0
403,299.558504,299.7055626666667,80.0,86.0
404,299.77909200000005,300.3654884333334,81.0,90.0
405,300.440856,300.81769383333335,85.0,86.0
406,300.88203200000004,301.1945316666667,80.0,85.0
407,301.323208,301.4831343,78.0,85.0
408,301.54379600000004,302.3618098333334,80.0,87.0
409,302.426148,302.6835006666667,76.0,87.0
410,302.64673600000003,304.40041060000004,78.0,86.0
411,304.852616,305.17063036666667,76.0,86.0
412,305.293792,305.6283504666667,74.0,84.0
413,305.73496800000004,306.09342350000003,73.0,87.0
414,306.176144,306.9004079333334,74.0,87.0
415,307.05849600000005,307.6448924333334,85.0,87.0
416,307.72026,308.3654799,83.0,87.0
417,308.382024,308.75886183333336,83.0,87.0
418,308.82320000000004,309.1356996666667,85.0,86.0
419,309.264376,309.6099638666667,86.0,86.0
420,309.705552,311.05113880000005,88.0,86.0
421,311.02908,311.4959912666667,86.0,86.0
422,311.470256,312.4610637666667,85.0,85.0
423,312.793784,312.92429856666666,83.0,89.0
424,313.01437200000004,313.1669453666667,81.0,86.0
425,313.23496,313.6412095666667,86.0,89.0
426,313.67613600000004,314.06032676666666,85.0,86.0
427,314.117312,314.33790000000005,83.0,87.0
428,314.33790000000005,314.77907600000003,81.0,86.0
429,315.03459043333334,315.4059135666667,85.0,86.0
430,315.42061943333334,315.80664843333335,83.0,85.0
431,315.8617954333334,316.4095889666667,81.0,82.0
432,316.36547136666667,316.79561796666667,80.0,87.0
433,316.7919415,319.41877693333333,81.0,86.0
434,319.8452470666667,320.1228203,71.0,75.0
435,320.03642333333335,320.4059082333334,69.0,72.0
436,320.35811416666667,320.86914303333333,74.0,82.0
437,320.8378930666667,321.451863,73.0,79.0
438,321.3691425,321.8764949,71.0,72.0
439,321.72943623333333,322.44634723333337,69.0,74.0
440,322.54009713333335,323.1154641666667,73.0,79.0
441,323.0842142,323.6301695,71.0,79.0
442,323.6779635666667,325.1522267,69.0,73.0
443,326.1577403333334,328.19634110000004,68.0,72.0
444,328.16509113333336,334.8194958,69.0,80.0
