,start,end,pitch,velocity
0,3.529408,4.0147016,58.0,75.0
1,3.970584,4.514701066666667,60.0,87.0
2,3.088232,4.658083266666667,51.0,56.0
3,4.41176,4.7481567,63.0,83.0
4,4.41176,4.830877200000001,56.0,73.0
5,2.647056,5.738964466666667,44.0,80.0
6,4.852936000000001,5.7683762000000005,51.0,48.0
7,6.176464,6.871316200000001,60.0,75.0
8,6.176464,6.994477833333334,67.0,76.0
9,6.617640000000001,7.2738893000000004,55.0,74.0
10,7.058816,7.786756400000001,63.0,80.0
11,7.941168,8.7352848,58.0,67.0
12,7.499992000000001,8.766534766666668,55.0,60.0
13,7.941168,8.773887700000001,63.0,69.0
14,6.176464,8.974255133333333,48.0,82.0
15,10.147048000000002,10.7371209,48.0,67.0
16,9.705872000000001,10.821679633333334,68.0,76.0
17,9.705872000000001,10.898885433333334,41.0,82.0
18,10.588224,10.985282400000001,65.0,86.0
19,11.0294,11.352929066666668,60.0,83.0
20,11.470576000000001,12.343736833333335,67.0,76.0
21,11.911752000000002,12.404398533333334,46.0,69.0
22,11.470576000000001,12.485280800000002,39.0,85.0
23,12.352928,12.560648366666667,58.0,75.0
24,12.352928,12.569839533333335,63.0,84.0
25,13.235280000000001,13.8915293,61.0,72.0
26,13.235280000000001,13.919102800000001,65.0,80.0
27,14.117632,14.545940366666668,63.0,77.0
28,14.558808,14.832704766666668,65.0,81.0
29,13.676456000000002,15.878659533333334,56.0,77.0
30,13.235280000000001,15.966894733333335,49.0,81.0
31,16.764688,17.257334533333335,65.0,85.0
32,16.764688,17.270202166666667,61.0,75.0
33,16.764688,17.3051286,58.0,74.0
34,17.64704,17.95402496666667,58.0,83.0
35,17.64704,17.974245533333335,61.0,83.0
36,17.205864000000002,18.0606425,53.0,75.0
37,16.764688,18.19115706666667,46.0,85.0
38,18.529392,19.099244333333335,67.0,76.0
39,18.529392,19.11762666666667,63.0,84.0
40,18.970568,19.130494300000002,58.0,59.0
41,19.411744000000002,19.55328796666667,63.0,77.0
42,19.411744000000002,19.6157879,67.0,76.0
43,18.529392,19.810640633333335,51.0,86.0
44,19.85292,20.130493233333336,49.0,84.0
45,19.85292,20.272037200000003,61.0,81.0
46,20.294096000000003,20.579022166666668,63.0,81.0
47,20.294096000000003,20.694830866666667,60.0,79.0
48,20.735272000000002,21.297771400000002,55.0,71.0
49,21.176448,21.406227166666667,60.0,82.0
50,21.176448,21.470565333333337,63.0,81.0
51,20.294096000000003,21.48343296666667,48.0,87.0
52,21.176448,21.52203586666667,67.0,78.0
53,22.0588,22.270196833333333,60.0,77.0
54,22.0588,22.297770333333336,65.0,85.0
55,22.499976,23.0790195,48.0,76.0
56,22.941152000000002,23.108431233333334,65.0,83.0
57,22.0588,23.139681200000002,41.0,86.0
58,22.941152000000002,23.1893135,69.0,76.0
59,23.823504000000003,24.136003666666667,65.0,76.0
60,23.823504000000003,24.200341833333336,70.0,77.0
61,24.705856,24.917252833333336,58.0,73.0
62,24.705856,24.9209293,61.0,76.0
63,25.147032000000003,25.3510759,65.0,80.0
64,24.264680000000002,25.3951935,53.0,70.0
65,23.823504000000003,25.463208133333335,46.0,84.0
66,25.588208,25.74629606666667,58.0,71.0
67,25.588208,26.113942733333335,63.0,80.0
68,26.470560000000003,26.577177533333334,63.0,81.0
69,26.470560000000003,26.6084275,67.0,89.0
70,26.029384,26.66173626666667,58.0,75.0
71,25.588208,26.963206533333334,51.0,85.0
72,26.911736,27.39519136666667,61.0,73.0
73,27.352912000000003,27.972396633333336,56.0,71.0
74,27.352912000000003,28.010999533333337,60.0,78.0
75,27.794088000000002,28.373131500000003,51.0,60.0
76,28.235264,28.720557600000003,60.0,78.0
77,28.235264,29.176439466666668,56.0,70.0
78,29.117616,29.53489496666667,68.0,80.0
79,29.558792000000004,30.067982633333337,56.0,70.0
80,29.999968000000003,30.14151196666667,63.0,72.0
81,28.676440000000003,30.198497200000002,51.0,56.0
82,27.352912000000003,30.389673466666668,44.0,79.0
83,30.882320000000004,31.334525400000004,60.0,78.0
84,30.882320000000004,31.367613600000002,56.0,73.0
85,31.764672,31.885995400000002,60.0,73.0
86,31.764672,31.902539500000003,63.0,78.0
87,32.647024,32.805112066666666,56.0,66.0
88,31.323496000000002,32.82165616666667,51.0,65.0
89,32.647024,32.8620973,60.0,73.0
90,33.0882,33.7003317,51.0,58.0
91,33.529376,33.7223905,56.0,75.0
92,30.882320000000004,33.75364046666667,44.0,85.0
93,33.529376,33.795919833333336,60.0,80.0
94,33.529376,33.8712874,63.0,80.0
95,34.411728000000004,35.00547736666667,60.0,78.0
96,34.411728000000004,35.009153833333336,63.0,80.0
97,35.29408,35.4981239,67.0,71.0
98,35.29408,35.50547683333333,63.0,76.0
99,35.735256,36.31797596666667,55.0,41.0
100,36.176432000000005,36.795916633333334,63.0,78.0
101,36.617608000000004,37.03488696666667,55.0,53.0
102,37.058784,37.20584266666667,60.0,84.0
103,34.411728000000004,37.268342600000004,48.0,80.0
104,37.058784,37.4503277,63.0,85.0
105,37.058784,37.490768833333334,67.0,80.0
106,37.49996,38.218709233333335,60.0,81.0
107,37.941136,38.50547363333334,65.0,81.0
108,38.382312000000006,38.67091463333334,60.0,76.0
109,38.823488000000005,38.957679033333335,65.0,83.0
110,38.823488000000005,38.9613555,68.0,79.0
111,37.941136,39.42275206666667,41.0,87.0
112,39.264664,39.518340200000004,60.0,80.0
113,39.70584,39.906207433333336,60.0,69.0
114,39.70584,40.213192400000004,65.0,77.0
115,40.147016,40.34922166666667,60.0,71.0
116,40.58819200000001,40.70583893333334,60.0,81.0
117,40.58819200000001,40.88414756666667,65.0,85.0
118,40.58819200000001,40.898853433333336,68.0,80.0
119,39.70584,40.98157393333334,41.0,70.0
120,41.470544000000004,41.59554386666667,39.0,81.0
121,41.470544000000004,41.88230826666667,63.0,79.0
122,41.470544000000004,42.121278600000004,67.0,81.0
123,42.794072,43.121277533333334,65.0,85.0
124,43.235248000000006,43.8198062,67.0,77.0
125,43.235248000000006,43.83267383333334,63.0,72.0
126,41.91172,43.90620316666667,51.0,84.0
127,42.352896,44.34554093333334,58.0,86.0
128,44.1176,44.56612893333334,55.0,83.0
129,44.558776,44.74259933333334,63.0,85.0
130,44.999952,45.25178996666667,56.0,74.0
131,45.441128000000006,45.6451719,56.0,68.0
132,44.999952,45.65436306666667,61.0,75.0
133,45.882304000000005,45.920906900000006,56.0,60.0
134,45.882304000000005,46.060612633333335,61.0,81.0
135,45.882304000000005,46.07715673333334,65.0,85.0
136,46.764656,46.931935233333334,61.0,68.0
137,46.764656,47.0789939,65.0,80.0
138,47.64700800000001,47.77200786666667,56.0,79.0
139,44.999952,47.85472836666667,49.0,87.0
140,47.64700800000001,47.878625400000004,61.0,82.0
141,47.64700800000001,48.20950740000001,65.0,86.0
142,48.529360000000004,48.650683400000005,37.0,74.0
143,48.088184000000005,48.68193336666667,56.0,77.0
144,48.529360000000004,48.86943316666667,64.0,74.0
145,48.529360000000004,48.8988449,61.0,74.0
146,49.411712,49.47605016666667,56.0,63.0
147,49.411712,49.64700586666667,64.0,76.0
148,49.411712,49.68009406666667,61.0,76.0
149,50.294064000000006,50.518328466666674,64.0,76.0
150,50.294064000000006,50.610240133333335,68.0,73.0
151,50.294064000000006,50.62310776666667,61.0,76.0
152,50.735240000000005,50.93560743333334,56.0,64.0
153,51.176416,51.36023933333334,61.0,86.0
154,49.85288800000001,51.36207756666667,49.0,72.0
155,51.176416,51.41722456666667,56.0,83.0
156,51.176416,51.42090103333334,64.0,86.0
157,51.617592,51.86942996666667,60.0,86.0
158,51.83818,52.044062133333334,61.0,86.0
159,52.058768,52.595532133333336,58.0,79.0
160,52.941120000000005,53.09369336666667,61.0,76.0
161,52.941120000000005,53.106561000000006,65.0,85.0
162,52.941120000000005,53.10839923333334,58.0,77.0
163,53.823472,54.01281003333334,61.0,69.0
164,53.823472,54.192956900000006,65.0,79.0
165,52.499944000000006,54.898838500000004,53.0,67.0
166,54.70582400000001,54.900676733333334,58.0,85.0
167,54.70582400000001,54.935603166666674,61.0,86.0
168,52.058768,55.01648543333334,46.0,85.0
169,54.70582400000001,55.0863383,65.0,87.0
170,55.147000000000006,55.4337644,58.0,71.0
171,55.588176000000004,55.6929553,39.0,86.0
172,55.588176000000004,55.82714633333334,58.0,78.0
173,55.588176000000004,55.854719833333334,63.0,81.0
174,55.588176000000004,55.98339616666667,67.0,78.0
175,56.470528,57.1598655,58.0,89.0
176,56.029352,57.18008606666667,51.0,79.0
177,56.91170400000001,57.21868896666667,63.0,82.0
178,57.352880000000006,57.57162976666667,63.0,79.0
179,57.352880000000006,57.790379533333336,75.0,86.0
180,57.352880000000006,57.85655593333334,67.0,85.0
181,57.352880000000006,57.86574710000001,70.0,85.0
182,58.676408,59.053245833333335,55.0,84.0
183,58.235232,59.06978993333334,63.0,83.0
184,58.235232,59.06978993333334,67.0,80.0
185,57.352880000000006,59.07162816666667,58.0,80.0
186,57.352880000000006,59.090010500000005,51.0,87.0
187,59.11758400000001,59.75361273333334,63.0,82.0
188,59.11758400000001,59.76831860000001,56.0,78.0
189,59.55876000000001,60.172729933333336,51.0,69.0
190,59.999936000000005,60.76831753333334,60.0,82.0
191,59.999936000000005,60.996258466666674,56.0,85.0
192,60.441112000000004,61.15802300000001,51.0,70.0
193,60.882288,61.612066633333335,60.0,79.0
194,60.882288,61.62493426666667,63.0,78.0
195,61.323464,61.88963986666667,51.0,72.0
196,59.11758400000001,61.9686839,44.0,85.0
197,61.76464000000001,62.13228666666667,60.0,86.0
198,61.76464000000001,62.15802193333334,63.0,86.0
199,62.205816000000006,62.34735996666667,44.0,85.0
200,62.646992000000004,63.246256066666675,60.0,79.0
201,62.646992000000004,63.45397643333334,63.0,82.0
202,63.529344,63.61941743333334,63.0,50.0
203,63.088168,63.74993200000001,55.0,63.0
204,63.529344,64.22051973333333,67.0,89.0
205,63.97052000000001,64.5109606,55.0,68.0
206,64.411696,64.78118090000001,67.0,73.0
207,64.411696,64.91169546666667,63.0,82.0
208,64.411696,64.9300778,60.0,76.0
209,64.852872,65.47235663333333,55.0,70.0
210,65.294048,65.56059183333333,60.0,86.0
211,62.646992000000004,65.62125353333334,48.0,83.0
212,65.294048,65.78669453333333,63.0,86.0
213,65.735224,65.9502973,48.0,86.0
214,65.735224,66.37309096666667,60.0,85.0
215,66.1764,66.37309096666667,60.0,79.0
216,66.1764,66.78669346666668,65.0,83.0
217,66.1764,66.9098551,41.0,86.0
218,66.617576,67.113899,60.0,73.0
219,67.058752,67.21500183333333,65.0,85.0
220,67.058752,67.26095766666667,68.0,82.0
221,67.49992800000001,68.0458833,60.0,73.0
222,67.94110400000001,68.5697798,68.0,75.0
223,67.94110400000001,68.58448566666667,65.0,78.0
224,68.38228000000001,68.60102976666667,60.0,72.0
225,68.82345600000001,68.97786760000001,60.0,85.0
226,67.94110400000001,69.23889673333333,53.0,81.0
227,68.82345600000001,69.25727906666667,65.0,86.0
228,68.82345600000001,69.30691136666667,68.0,79.0
229,69.264632,69.4907347,60.0,78.0
230,69.705808,70.20948393333335,63.0,78.0
231,69.705808,70.2131604,60.0,79.0
232,69.705808,70.24073390000001,67.0,78.0
233,70.146984,70.7315422,55.0,71.0
234,70.58816,71.2444093,60.0,84.0
235,70.58816,71.25911516666667,67.0,82.0
236,71.029336,71.6028648,55.0,65.0
237,71.470512,71.89330566666668,63.0,84.0
238,71.470512,71.91904093333333,60.0,81.0
239,71.91168800000001,72.4466139,55.0,50.0
240,72.35286400000001,72.59183433333334,60.0,86.0
241,69.705808,72.79220176666668,48.0,85.0
242,72.35286400000001,72.79404000000001,67.0,85.0
243,72.35286400000001,72.83080466666667,63.0,85.0
244,72.79404000000001,73.24440716666668,60.0,88.0
245,73.23521600000001,73.47602456666667,56.0,77.0
246,73.676392,73.9135241,56.0,77.0
247,73.23521600000001,73.9245535,65.0,79.0
248,74.117568,74.28484723333334,56.0,84.0
249,74.117568,74.56242046666667,61.0,81.0
250,74.99992,75.2039639,56.0,81.0
251,75.441096,75.6451399,56.0,65.0
252,74.99992,75.65433106666667,65.0,85.0
253,75.882272,76.0366836,56.0,83.0
254,73.23521600000001,76.10102176666668,49.0,87.0
255,75.882272,76.14513936666667,61.0,85.0
256,75.882272,76.29403626666667,65.0,86.0
257,76.323448,76.41352143333334,61.0,60.0
258,76.323448,76.49624193333334,56.0,86.0
259,76.76462400000001,77.2113147,61.0,84.0
260,76.76462400000001,77.22969703333334,58.0,84.0
261,77.20580000000001,77.7296965,53.0,73.0
262,77.64697600000001,77.85101990000001,61.0,86.0
263,77.64697600000001,77.8841081,58.0,83.0
264,78.08815200000001,78.37859286666668,60.0,84.0
265,77.867564,78.38226933333334,53.0,80.0
266,76.76462400000001,78.41535753333334,46.0,85.0
267,78.30874,78.48153393333334,61.0,80.0
268,78.529328,78.92454816666667,58.0,72.0
269,78.529328,78.95763636666668,65.0,80.0
270,78.970504,79.49072403333334,53.0,74.0
271,79.41168,79.5881504,58.0,80.0
272,78.529328,79.61940036666667,46.0,78.0
273,79.41168,79.66167973333334,61.0,85.0
274,79.41168,79.69109146666668,65.0,86.0
275,79.852856,80.128591,58.0,73.0
276,80.294032,80.88778136666667,61.0,78.0
277,80.294032,80.94109013333333,58.0,78.0
278,80.735208,81.37675143333334,53.0,72.0
279,81.17638400000001,81.55138360000001,61.0,84.0
280,81.17638400000001,81.55873653333335,65.0,85.0
281,81.17638400000001,81.57895710000001,58.0,79.0
282,80.294032,81.9098391,46.0,86.0
283,81.61756000000001,81.98520666666667,53.0,73.0
284,82.05873600000001,82.60836776666667,61.0,78.0
285,82.05873600000001,82.6212354,65.0,84.0
286,82.05873600000001,82.63594126666668,58.0,74.0
287,82.49991200000001,83.14145543333333,53.0,74.0
288,82.94108800000001,83.16351423333334,58.0,80.0
289,82.05873600000001,83.17454363333334,46.0,85.0
290,82.94108800000001,83.20395536666668,61.0,86.0
291,82.94108800000001,83.24255826666668,65.0,88.0
292,82.94108800000001,83.32344053333334,70.0,84.0
293,83.382264,83.70579306666667,58.0,87.0
294,83.82344,83.94292516666667,39.0,86.0
295,83.82344,84.15064553333335,58.0,81.0
296,83.82344,84.27380716666667,63.0,85.0
297,84.705792,85.39696773333334,58.0,86.0
298,84.264616,85.40615890000001,51.0,84.0
299,85.146968,85.45946766666667,63.0,91.0
300,85.588144,86.10101110000001,58.0,80.0
301,85.588144,86.15799633333334,63.0,84.0
302,85.588144,86.2829962,70.0,85.0
303,85.588144,86.29034913333334,67.0,86.0
304,86.249908,86.55505473333334,58.0,77.0
305,86.47049600000001,86.74255453333333,63.0,85.0
306,86.47049600000001,86.801378,67.0,80.0
307,86.47049600000001,86.98520133333334,70.0,82.0
308,86.47049600000001,87.26828926666667,75.0,89.0
309,86.91167200000001,87.29218630000001,63.0,81.0
310,85.588144,87.29953923333333,51.0,89.0
311,86.691084,87.30321570000001,58.0,85.0
312,87.35284800000001,87.82895043333335,68.0,85.0
313,87.573436,87.90983270000001,56.0,82.0
314,87.79402400000001,88.0807884,63.0,81.0
315,87.79402400000001,88.2296853,51.0,31.0
316,88.014612,88.68005246666668,68.0,85.0
317,88.45578800000001,88.89696400000001,56.0,81.0
318,88.2352,88.97784626666667,51.0,76.0
319,87.35284800000001,88.9907139,44.0,85.0
320,88.676376,89.01461093333334,63.0,82.0
321,88.89696400000001,89.0789491,68.0,80.0
322,89.117552,89.60284560000001,56.0,85.0
323,89.117552,89.82527183333335,63.0,86.0
324,89.117552,89.85836003333334,68.0,79.0
325,89.77931600000001,89.93188936666667,56.0,75.0
326,89.558728,90.08630096666667,51.0,76.0
327,89.999904,90.22600670000001,56.0,78.0
328,89.117552,90.27931546666667,44.0,85.0
329,89.999904,90.29585956666668,60.0,86.0
330,90.22049200000001,90.3197566,51.0,84.0
331,89.999904,90.33630070000001,63.0,87.0
332,90.44108000000001,90.55505046666667,56.0,85.0
333,89.999904,90.5734328,68.0,85.0
334,90.88225600000001,91.13409396666667,60.0,81.0
335,90.88225600000001,91.44107893333334,67.0,84.0
336,91.102844,91.56607880000001,55.0,68.0
337,91.32343200000001,91.80137266666668,60.0,80.0
338,91.54402,92.00541656666667,63.0,85.0
339,91.76460800000001,92.50173956666667,55.0,71.0
340,90.88225600000001,92.5146072,48.0,85.0
341,91.985196,92.5146072,67.0,85.0
342,92.20578400000001,92.93923910000001,60.0,83.0
343,92.426372,93.08078306666667,63.0,80.0
344,92.86754800000001,93.41717976666668,55.0,77.0
345,93.088136,93.54585610000001,60.0,78.0
346,93.30872400000001,93.59916486666667,63.0,82.0
347,93.529312,93.8215911,55.0,77.0
348,93.74990000000001,93.860194,60.0,80.0
349,92.64696,93.92820863333334,48.0,86.0
350,93.74990000000001,94.0090909,63.0,84.0
351,93.74990000000001,94.15982603333335,67.0,79.0
352,93.970488,94.43372280000001,60.0,78.0
353,94.19107600000001,94.45210513333335,63.0,78.0
354,94.411664,95.1451191,68.0,82.0
355,95.073428,95.51644223333334,60.0,85.0
356,95.29401600000001,95.5642363,65.0,86.0
357,94.85284,95.95945646666668,48.0,80.0
358,94.411664,96.03114756666668,41.0,84.0
359,95.73519200000001,96.06975046666668,60.0,85.0
360,95.95578,96.09916220000001,65.0,80.0
361,95.514604,96.09916220000001,68.0,85.0
362,96.17636800000001,96.68004393333334,63.0,81.0
363,96.61754400000001,97.16717576666667,58.0,78.0
364,96.838132,97.3179109,63.0,82.0
365,96.17636800000001,97.38224906666667,39.0,87.0
366,97.05872000000001,97.42820490000001,46.0,80.0
367,97.279308,97.66717523333334,67.0,89.0
368,97.499896,97.79033686666668,63.0,80.0
369,97.72048400000001,97.80504273333334,58.0,72.0
370,97.941072,98.41533620000001,61.0,78.0
371,97.941072,98.43555676666668,65.0,85.0
372,98.382248,98.6469536,56.0,72.0
373,98.60283600000001,99.17820303333335,68.0,86.0
374,97.941072,99.32158523333334,49.0,88.0
375,99.2646,99.5182762,65.0,81.0
376,99.04401200000001,99.5348203,61.0,84.0
377,98.823424,99.55504086666667,56.0,72.0
378,99.48518800000001,99.59915846666668,68.0,72.0
379,99.70577600000001,100.32158416666667,61.0,81.0
380,99.70577600000001,100.34548120000001,68.0,79.0
381,100.14695200000001,100.68555436666668,56.0,76.0
382,100.58812800000001,100.81606893333334,65.0,87.0
383,100.58812800000001,100.8859218,61.0,86.0
384,99.70577600000001,100.89878943333333,49.0,87.0
385,100.808716,100.92820116666667,56.0,81.0
386,101.02930400000001,101.30503900000001,60.0,68.0
387,101.47048000000001,101.69290623333335,58.0,78.0
388,101.47048000000001,101.77011203333335,61.0,80.0
389,101.91165600000001,102.18922923333334,58.0,82.0
390,102.13224400000001,102.38775843333335,61.0,89.0
391,101.691068,102.65430226666668,53.0,81.0
392,101.47048000000001,102.71864043333333,46.0,88.0
393,102.57342000000001,102.7664345,65.0,91.0
394,102.794008,103.07525770000001,61.0,87.0
395,103.01459600000001,103.17268406666668,58.0,83.0
396,103.235184,103.33261036666667,39.0,88.0
397,103.235184,103.55319836666668,58.0,81.0
398,103.235184,103.6267277,63.0,85.0
399,103.67636,104.25356526666667,51.0,84.0
400,103.89694800000001,104.25907996666668,55.0,85.0
401,104.117536,104.33996223333334,58.0,86.0
402,104.33812400000001,104.60099136666668,63.0,89.0
403,104.55871200000001,104.8123882,67.0,87.0
404,104.7793,104.88040283333333,63.0,80.0
405,104.99988800000001,105.26091713333334,60.0,85.0
406,104.99988800000001,105.29952003333334,63.0,80.0
407,104.99988800000001,105.49253453333334,67.0,79.0
408,105.44106400000001,105.56422563333334,60.0,85.0
409,105.220476,105.7498872,55.0,86.0
410,105.661652,105.94841640000001,60.0,87.0
411,105.661652,106.02929866666668,63.0,87.0
412,105.88224000000001,106.13223973333334,55.0,85.0
413,105.661652,106.22047493333334,67.0,85.0
414,104.99988800000001,106.26275430000001,48.0,86.0
415,106.102828,106.38959240000001,60.0,86.0
416,106.32341600000001,106.6487833,63.0,86.0
417,106.544004,106.84547426666667,60.0,79.0
418,106.76459200000001,106.87856246666668,41.0,88.0
419,106.76459200000001,107.316062,65.0,87.0
420,107.42635600000001,107.7241498,57.0,86.0
421,107.646944,107.93370840000001,60.0,86.0
422,107.205768,107.97414953333335,53.0,76.0
423,107.86753200000001,108.15061993333335,65.0,99.0
424,108.08812,108.33444326666668,69.0,85.0
425,108.30870800000001,108.45025196666667,65.0,81.0
426,108.529296,109.08811893333335,65.0,83.0
427,108.529296,109.17267766666667,70.0,81.0
428,109.41164800000001,109.60833896666668,65.0,87.0
429,109.41164800000001,109.94289743333334,73.0,87.0
430,108.529296,110.14326486666667,46.0,82.0
431,109.85282400000001,110.14694133333334,65.0,79.0
432,109.41164800000001,110.15245603333334,70.0,87.0
433,108.97047200000002,110.16532366666668,53.0,75.0
434,110.29400000000001,110.87488173333334,62.0,82.0
435,110.29400000000001,110.9447346,70.0,81.0
436,111.17635200000001,111.37120473333334,65.0,88.0
437,110.73517600000001,111.45392523333334,53.0,85.0
438,110.29400000000001,111.57708686666668,46.0,83.0
439,111.17635200000001,111.59730743333334,74.0,86.0
440,111.17635200000001,111.61201330000002,70.0,86.0
441,111.61752800000001,111.74068963333335,65.0,77.0
442,112.058704,112.19840973333334,39.0,86.0
443,112.058704,112.33627723333335,63.0,78.0
444,112.058704,112.36568896666668,67.0,85.0
445,112.058704,112.37671836666668,70.0,87.0
446,112.49988,112.80870320000001,67.0,74.0
447,112.49988,112.81605613333335,70.0,81.0
448,112.49988,112.82157083333334,63.0,80.0
449,112.941056,113.27009976666668,70.0,89.0
450,112.941056,113.28112916666667,63.0,87.0
451,112.941056,113.28664386666668,67.0,88.0
452,112.49988,113.45392310000001,51.0,86.0
453,113.382232,113.48333483333334,58.0,78.0
454,113.60282000000001,113.70943753333334,63.0,85.0
455,113.82340800000001,113.95392256666668,39.0,88.0
456,113.82340800000001,114.15061353333334,63.0,80.0
457,113.82340800000001,114.15980470000001,75.0,89.0
458,113.82340800000001,114.17083410000001,67.0,81.0
459,114.26458400000001,114.57708366666668,63.0,87.0
460,114.26458400000001,114.59362776666667,67.0,84.0
461,114.26458400000001,114.6120101,75.0,88.0
462,114.70576000000001,114.85098043333335,65.0,87.0
463,114.70576000000001,114.86200983333335,77.0,88.0
464,115.14693600000001,115.31237700000001,67.0,85.0
465,114.70576000000001,115.5053915,58.0,77.0
466,114.26458400000001,115.55502380000001,51.0,86.0
467,115.58811200000001,116.06421443333335,68.0,85.0
468,115.8087,116.14509670000001,56.0,82.0
469,116.02928800000001,116.3160524,63.0,81.0
470,116.02928800000001,116.46494930000001,51.0,31.0
471,116.24987600000001,116.91531646666668,68.0,85.0
472,116.69105200000001,117.13222800000001,56.0,81.0
473,116.470464,117.21311026666667,51.0,76.0
474,115.58811200000001,117.2259779,44.0,85.0
475,116.91164,117.24987493333334,63.0,82.0
476,117.13222800000001,117.3142131,68.0,80.0
477,117.352816,117.83810960000001,56.0,85.0
478,117.352816,118.06053583333335,63.0,86.0
479,117.352816,118.09362403333334,68.0,79.0
480,118.01458000000001,118.16715336666668,56.0,75.0
481,117.793992,118.32156496666667,51.0,76.0
482,118.23516800000002,118.46127070000001,56.0,78.0
483,117.352816,118.51457946666667,44.0,85.0
484,118.23516800000002,118.53112356666668,60.0,86.0
485,118.45575600000001,118.5550206,51.0,84.0
486,118.23516800000002,118.57156470000001,63.0,87.0
487,118.67634400000001,118.79031446666667,56.0,85.0
488,118.23516800000002,118.8086968,68.0,85.0
489,119.11752000000001,119.36935796666667,60.0,81.0
490,119.11752000000001,119.67634293333334,67.0,84.0
491,119.338108,119.80134280000001,55.0,68.0
492,119.55869600000001,120.03663666666668,60.0,80.0
493,119.779284,120.24068056666668,63.0,85.0
494,119.99987200000001,120.73700356666667,55.0,71.0
495,119.11752000000001,120.74987120000002,48.0,85.0
496,120.22046,120.74987120000002,67.0,85.0
497,120.44104800000001,121.17450310000001,60.0,83.0
498,120.66163600000002,121.31604706666667,63.0,80.0
499,121.10281200000001,121.65244376666668,55.0,77.0
500,121.3234,121.78112010000001,60.0,78.0
501,121.54398800000001,121.83442886666667,63.0,82.0
502,121.764576,122.0568551,55.0,77.0
503,121.98516400000001,122.09545800000001,60.0,80.0
504,120.88222400000001,122.16347263333334,48.0,86.0
505,121.98516400000001,122.2443549,63.0,84.0
506,121.98516400000001,122.39509003333335,67.0,79.0
507,122.205752,122.66898680000001,60.0,78.0
508,122.42634000000001,122.68736913333335,63.0,78.0
509,122.646928,123.3803831,68.0,82.0
510,123.30869200000001,123.75170623333334,60.0,85.0
511,123.52928000000001,123.7995003,65.0,86.0
512,123.08810400000002,124.19472046666668,48.0,80.0
513,122.646928,124.26641156666668,41.0,84.0
514,123.97045600000001,124.30501446666668,60.0,85.0
515,124.191044,124.33442620000001,65.0,80.0
516,123.749868,124.33442620000001,68.0,85.0
517,124.41163200000001,124.91530793333334,63.0,81.0
518,124.85280800000001,125.40243976666667,58.0,78.0
519,125.073396,125.55317490000002,63.0,82.0
520,124.41163200000001,125.61751306666667,39.0,87.0
521,125.29398400000001,125.66346890000001,46.0,80.0
522,125.51457200000002,125.90243923333334,67.0,89.0
523,125.73516000000001,126.02560086666668,63.0,80.0
524,125.95574800000001,126.04030673333334,58.0,72.0
525,126.176336,126.65060020000001,61.0,78.0
526,126.176336,126.67082076666668,65.0,85.0
527,126.617512,126.8822176,56.0,72.0
528,126.83810000000001,127.41346703333335,68.0,86.0
529,126.176336,127.55684923333334,49.0,88.0
530,127.49986400000002,127.7535402,65.0,81.0
531,127.27927600000001,127.77008430000001,61.0,84.0
532,127.058688,127.79030486666667,56.0,72.0
533,127.72045200000001,127.83442246666668,68.0,72.0
534,127.94104000000002,128.55684816666667,61.0,81.0
535,127.94104000000002,128.58074520000002,68.0,79.0
536,128.382216,128.92081836666668,56.0,76.0
537,128.823392,129.05133293333336,65.0,87.0
538,128.823392,129.1211858,61.0,86.0
539,127.94104000000002,129.13405343333335,49.0,87.0
540,129.04398,129.16346516666667,56.0,81.0
541,129.264568,129.54030300000002,60.0,68.0
542,129.705744,129.92817023333333,58.0,78.0
543,129.705744,130.00537603333333,61.0,80.0
544,130.14692000000002,130.42449323333335,58.0,82.0
545,130.36750800000002,130.62302243333335,61.0,89.0
546,129.926332,130.88956626666666,53.0,81.0
547,129.705744,130.95390443333335,46.0,88.0
548,130.808684,131.0016985,65.0,91.0
549,131.02927200000002,131.3105217,61.0,87.0
550,131.24986,131.40794806666668,58.0,83.0
551,131.470448,131.56787436666667,39.0,88.0
552,131.470448,131.78846236666666,58.0,81.0
553,131.470448,131.8619917,63.0,85.0
554,131.91162400000002,132.48882926666667,51.0,84.0
555,132.132212,132.4943439666667,55.0,85.0
556,132.3528,132.57522623333335,58.0,86.0
557,132.57338800000002,132.83625536666668,63.0,89.0
558,132.79397600000001,133.04765220000002,67.0,87.0
559,133.014564,133.11566683333334,63.0,80.0
560,133.235152,133.49618113333335,60.0,85.0
561,133.235152,133.53478403333335,63.0,80.0
562,133.235152,133.72779853333336,67.0,79.0
563,133.676328,133.79948963333334,60.0,85.0
564,133.45574000000002,133.98515120000002,55.0,86.0
565,133.896916,134.18368040000001,60.0,87.0
566,133.896916,134.26456266666668,63.0,87.0
567,134.117504,134.36750373333334,55.0,85.0
568,133.896916,134.45573893333335,67.0,85.0
569,133.235152,134.4980183,48.0,86.0
570,134.33809200000002,134.6248564,60.0,86.0
571,134.55868,134.88404730000002,63.0,86.0
572,134.779268,135.08073826666669,60.0,79.0
573,134.99985600000002,135.11382646666667,41.0,88.0
574,134.99985600000002,135.55132600000002,65.0,87.0
575,135.66162,135.95941380000002,57.0,86.0
576,135.88220800000002,136.1689724,60.0,86.0
577,135.441032,136.20941353333333,53.0,76.0
578,136.102796,136.38588393333333,65.0,99.0
579,136.323384,136.56970726666668,69.0,85.0
580,136.543972,136.68551596666669,65.0,81.0
581,137.205736,137.7516913,65.0,85.0
582,136.76456000000002,137.77926480000002,58.0,77.0
583,136.76456000000002,137.80132360000002,61.0,81.0
584,136.76456000000002,137.92448523333334,46.0,86.0
585,137.64691200000001,138.68735206666668,70.0,87.0
586,138.088088,138.749852,58.0,79.0
587,138.529264,139.13220453333335,63.0,80.0
588,138.529264,139.54580703333335,39.0,86.0
589,138.97044,139.62852753333334,58.0,72.0
590,139.411616,140.6560999666667,63.0,78.0
591,139.411616,140.67632053333335,67.0,75.0
592,142.720436,143.2057296,56.0,80.0
593,142.49984800000001,143.26271483333335,53.0,78.0
594,142.27926000000002,143.6965379,48.0,72.0
595,142.058672,143.73330256666668,41.0,86.0
596,144.264552,144.90425720000002,53.0,85.0
597,144.04396400000002,144.92080130000002,48.0,76.0
598,143.82337600000002,144.95021303333334,41.0,81.0
599,144.48514,144.99984533333335,60.0,86.0
600,145.146904,145.3399185,53.0,85.0
601,144.926316,145.78109450000002,65.0,88.0
602,146.029256,146.71491703333334,56.0,80.0
603,146.24984400000002,146.75535816666667,63.0,78.0
604,145.808668,147.24249,51.0,77.0
605,145.58808000000002,147.26271056666667,44.0,85.0
606,147.13219600000002,147.47594563333334,68.0,74.0
607,147.79396,148.29763593333334,56.0,89.0
608,147.573372,148.35278293333334,51.0,80.0
609,148.01454800000002,148.36932703333335,63.0,85.0
610,147.352784,148.47410633333334,44.0,80.0
611,149.117488,149.22962023333335,37.0,81.0
612,149.117488,149.85461956666668,61.0,78.0
613,149.779252,150.2627073666667,56.0,79.0
614,150.220428,150.56050116666668,63.0,84.0
615,149.55866400000002,150.66344223333334,49.0,71.0
616,150.44101600000002,150.67814810000002,61.0,75.0
617,150.661604,150.72410393333334,56.0,54.0
618,150.882192,151.54211776666668,56.0,79.0
619,150.882192,151.81049983333335,65.0,84.0
620,150.882192,151.9832937666667,49.0,82.0
621,151.764544,152.0218966666667,61.0,80.0
622,152.20572,152.28476403333335,61.0,78.0
623,151.98513200000002,152.29946990000002,56.0,76.0
624,152.646896,152.98329270000002,53.0,81.0
625,152.646896,153.13402783333333,56.0,79.0
626,153.088072,153.32888056666667,48.0,74.0
627,152.646896,153.35461583333336,41.0,87.0
628,153.30866,153.39689520000002,53.0,75.0
629,153.52924800000002,153.88954173333335,51.0,83.0
630,153.970424,154.27557073333335,46.0,73.0
631,153.52924800000002,154.29946776666668,55.0,80.0
632,153.52924800000002,154.3068207,39.0,87.0
633,154.191012,154.33807066666668,51.0,87.0
634,154.41160000000002,155.0237317,56.0,84.0
635,154.852776,155.37483426666668,51.0,74.0
636,154.41160000000002,155.44836360000002,44.0,85.0
637,155.29395200000002,155.4814518,56.0,83.0
638,155.735128,155.77740736666667,51.0,65.0
639,155.29395200000002,155.80314263333335,60.0,87.0
640,156.61748,157.31968513333334,52.0,74.0
641,156.396892,157.33622923333334,47.0,71.0
642,156.17630400000002,157.36747920000002,40.0,86.0
643,156.83806800000002,157.54578783333335,56.0,76.0
644,157.499832,157.92262566666668,52.0,78.0
645,157.279244,157.95939033333335,64.0,82.0
646,158.38218400000002,158.68181603333335,51.0,78.0
647,158.60277200000002,158.78291886666668,58.0,81.0
648,159.043948,159.1854919666667,63.0,81.0
649,159.705712,160.3068143,63.0,70.0
650,159.705712,160.31784370000003,75.0,86.0
651,158.161596,160.56968166666667,46.0,70.0
652,157.941008,160.59725516666668,39.0,87.0
653,161.470416,161.92262140000003,60.0,78.0
654,161.470416,161.9557096,56.0,73.0
655,162.35276800000003,162.47409140000002,60.0,73.0
656,162.35276800000003,162.49063550000002,63.0,78.0
657,163.23512000000002,163.3932080666667,56.0,66.0
658,161.911592,163.4097521666667,51.0,65.0
659,163.23512000000002,163.45019330000002,60.0,73.0
660,163.676296,164.2884277,51.0,58.0
661,164.11747200000002,164.31048650000002,56.0,75.0
662,161.470416,164.34173646666667,44.0,85.0
663,164.11747200000002,164.38401583333334,60.0,80.0
664,164.11747200000002,164.4593834,63.0,80.0
665,164.99982400000002,165.59357336666667,60.0,78.0
666,164.99982400000002,165.59724983333334,63.0,80.0
667,165.88217600000002,166.0862199,67.0,71.0
668,165.88217600000002,166.09357283333335,63.0,76.0
669,166.323352,166.90607196666667,55.0,41.0
670,166.764528,167.38401263333336,63.0,78.0
671,167.20570400000003,167.62298296666668,55.0,53.0
672,167.64688,167.7939386666667,60.0,84.0
673,164.99982400000002,167.85643860000002,48.0,80.0
674,167.64688,168.0384237,63.0,85.0
675,167.64688,168.07886483333334,67.0,80.0
676,168.08805600000002,168.80680523333334,60.0,81.0
677,168.529232,169.09356963333335,65.0,81.0
678,168.97040800000002,169.25901063333333,60.0,76.0
679,169.411584,169.54577503333334,65.0,83.0
680,169.411584,169.5494515,68.0,79.0
681,168.529232,170.01084806666668,41.0,87.0
682,169.85276000000002,170.10643620000002,60.0,80.0
683,170.293936,170.49430343333336,60.0,69.0
684,170.293936,170.8012884,65.0,77.0
685,170.73511200000002,170.93731766666667,60.0,71.0
686,171.176288,171.29393493333333,60.0,81.0
687,171.176288,171.4722435666667,65.0,85.0
688,171.176288,171.48694943333334,68.0,80.0
689,170.293936,171.56966993333336,41.0,70.0
690,172.05864000000003,172.18363986666668,39.0,81.0
691,172.05864000000003,172.4704042666667,63.0,79.0
692,172.05864000000003,172.70937460000002,67.0,81.0
693,173.382168,173.70937353333335,65.0,85.0
694,173.82334400000002,174.40790220000002,67.0,77.0
695,173.82334400000002,174.42076983333334,63.0,72.0
696,172.499816,174.49429916666668,51.0,84.0
697,172.94099200000002,174.93363693333336,58.0,86.0
698,174.70569600000002,175.15422493333335,55.0,83.0
699,175.146872,175.33069533333335,63.0,85.0
700,175.58804800000001,175.83988596666669,56.0,74.0
701,176.029224,176.23326790000002,56.0,68.0
702,175.58804800000001,176.24245906666667,61.0,75.0
703,176.4704,176.5090029,56.0,60.0
704,176.4704,176.64870863333334,61.0,81.0
705,176.4704,176.66525273333335,65.0,85.0
706,177.352752,177.52003123333336,61.0,68.0
707,177.352752,177.6670899,65.0,80.0
708,178.235104,178.3601038666667,56.0,79.0
709,175.58804800000001,178.44282436666668,49.0,87.0
710,178.235104,178.4667214,61.0,82.0
711,178.235104,178.7976034,65.0,86.0
712,179.117456,179.23877940000003,37.0,74.0
713,178.67628000000002,179.27002936666668,56.0,77.0
714,179.117456,179.4575291666667,64.0,74.0
715,179.117456,179.4869409,61.0,74.0
716,179.999808,180.0641461666667,56.0,63.0
717,179.999808,180.23510186666667,64.0,76.0
718,179.999808,180.26819006666668,61.0,76.0
719,180.88216000000003,181.10642446666668,64.0,76.0
720,180.88216000000003,181.19833613333336,68.0,73.0
721,180.88216000000003,181.21120376666667,61.0,76.0
722,181.323336,181.52370343333334,56.0,64.0
723,181.76451200000002,181.94833533333335,61.0,86.0
724,180.44098400000001,181.95017356666668,49.0,72.0
725,181.76451200000002,182.00532056666668,56.0,83.0
726,181.76451200000002,182.00899703333334,64.0,86.0
727,182.205688,182.45752596666668,60.0,86.0
728,182.426276,182.63215813333335,61.0,86.0
729,182.64686400000002,183.18362813333334,58.0,79.0
730,183.52921600000002,183.6817893666667,61.0,76.0
731,183.52921600000002,183.694657,65.0,85.0
732,183.52921600000002,183.69649523333334,58.0,77.0
733,184.41156800000002,184.60090603333336,61.0,69.0
734,184.41156800000002,184.78105290000002,65.0,79.0
735,183.08804,185.48693450000002,53.0,67.0
736,185.29392,185.48877273333335,58.0,85.0
737,185.29392,185.5236991666667,61.0,86.0
738,182.64686400000002,185.60458143333335,46.0,85.0
739,185.29392,185.6744343,65.0,87.0
740,185.73509600000003,186.0218604,58.0,71.0
741,186.176272,186.2810513,39.0,86.0
742,186.176272,186.41524233333334,58.0,78.0
743,186.176272,186.44281583333336,63.0,81.0
744,186.176272,186.57149216666667,67.0,78.0
745,187.058624,187.7479615,58.0,89.0
746,186.61744800000002,187.76818206666667,51.0,79.0
747,187.49980000000002,187.80678496666667,63.0,82.0
748,187.940976,188.15972576666667,63.0,79.0
749,187.940976,188.37847553333336,75.0,86.0
750,187.940976,188.44465193333335,67.0,85.0
751,187.940976,188.4538431,70.0,85.0
752,189.26450400000002,189.64134183333334,55.0,84.0
753,188.823328,189.65788593333335,63.0,83.0
754,188.823328,189.65788593333335,67.0,80.0
755,187.940976,189.65972416666668,58.0,80.0
756,187.940976,189.6781065,51.0,87.0
757,189.70568,190.34170873333335,63.0,82.0
758,189.70568,190.35641460000002,56.0,78.0
759,190.146856,190.76082593333334,51.0,69.0
760,190.58803200000003,191.35641353333335,60.0,82.0
761,190.58803200000003,191.58435446666667,56.0,85.0
762,191.029208,191.74611900000002,51.0,70.0
763,191.47038400000002,192.20016263333335,60.0,79.0
764,191.47038400000002,192.2130302666667,63.0,78.0
765,191.91156,192.47773586666668,51.0,72.0
766,189.70568,192.5567799,44.0,85.0
767,192.35273600000002,192.7203826666667,60.0,86.0
768,192.35273600000002,192.74611793333335,63.0,86.0
769,192.793912,192.9354559666667,44.0,85.0
770,193.23508800000002,193.83435206666667,60.0,79.0
771,193.23508800000002,194.04207243333335,63.0,82.0
772,194.11744000000002,194.20751343333336,63.0,50.0
773,193.676264,194.338028,55.0,63.0
774,194.11744000000002,194.80861573333334,67.0,89.0
775,194.558616,195.0990566,55.0,68.0
776,194.999792,195.36927690000002,67.0,73.0
777,194.999792,195.4997914666667,63.0,82.0
778,194.999792,195.51817380000003,60.0,76.0
779,195.44096800000003,196.06045263333334,55.0,70.0
780,195.882144,196.14868783333336,60.0,86.0
781,193.23508800000002,196.20934953333335,48.0,83.0
782,195.882144,196.37479053333334,63.0,86.0
783,196.32332000000002,196.53839330000002,48.0,86.0
784,196.32332000000002,196.96118696666667,60.0,85.0
785,196.764496,196.96118696666667,60.0,79.0
786,196.764496,197.37478946666667,65.0,83.0
787,196.764496,197.49795110000002,41.0,86.0
788,197.20567200000002,197.701995,60.0,73.0
789,197.646848,197.80309783333334,65.0,85.0
790,197.646848,197.8490536666667,68.0,82.0
791,198.08802400000002,198.63397930000002,60.0,73.0
792,198.5292,199.15787580000003,68.0,75.0
793,198.5292,199.17258166666667,65.0,78.0
794,198.97037600000002,199.18912576666668,60.0,72.0
795,199.41155200000003,199.5659636,60.0,85.0
796,198.5292,199.82699273333336,53.0,81.0
797,199.41155200000003,199.8453750666667,65.0,86.0
798,199.41155200000003,199.89500736666668,68.0,79.0
799,199.852728,200.07883070000003,60.0,78.0
800,200.29390400000003,200.79757993333334,63.0,78.0
801,200.29390400000003,200.80125640000003,60.0,79.0
802,200.29390400000003,200.82882990000002,67.0,78.0
803,200.73508,201.3196382,55.0,71.0
804,201.17625600000002,201.8325053,60.0,84.0
805,201.17625600000002,201.84721116666668,67.0,82.0
806,201.617432,202.19096080000003,55.0,65.0
807,202.05860800000002,202.48140166666667,63.0,84.0
808,202.05860800000002,202.50713693333336,60.0,81.0
809,202.499784,203.03470990000002,55.0,50.0
810,202.94096000000002,203.17993033333335,60.0,86.0
811,200.29390400000003,203.38029776666667,48.0,85.0
812,202.94096000000002,203.382136,67.0,85.0
813,202.94096000000002,203.41890066666667,63.0,85.0
814,203.382136,203.83250316666667,60.0,88.0
815,203.82331200000002,204.06412056666667,56.0,77.0
816,204.26448800000003,204.50162010000003,56.0,77.0
817,203.82331200000002,204.5126495,65.0,79.0
818,204.705664,204.87294323333336,56.0,84.0
819,204.705664,205.1505164666667,61.0,81.0
820,205.588016,205.79205990000003,56.0,81.0
821,206.02919200000002,206.2332359,56.0,65.0
822,205.588016,206.2424270666667,65.0,85.0
823,206.470368,206.6247796,56.0,83.0
824,203.82331200000002,206.68911776666667,49.0,87.0
825,206.470368,206.7332353666667,61.0,85.0
826,206.470368,206.88213226666667,65.0,86.0
827,206.91154400000002,207.00161743333334,61.0,60.0
828,206.91154400000002,207.08433793333336,56.0,86.0
829,207.35272,207.7994107,61.0,84.0
830,207.35272,207.81779303333334,58.0,84.0
831,207.79389600000002,208.31779250000002,53.0,73.0
832,208.235072,208.43911590000002,61.0,86.0
833,208.235072,208.47220410000003,58.0,83.0
834,208.67624800000002,208.9666888666667,60.0,84.0
835,208.45566000000002,208.97036533333335,53.0,80.0
836,207.35272,209.00345353333336,46.0,85.0
837,208.896836,209.06962993333335,61.0,80.0
838,209.11742400000003,209.5126441666667,58.0,72.0
839,209.11742400000003,209.54573236666667,65.0,80.0
840,209.5586,210.07882003333336,53.0,74.0
841,209.99977600000003,210.17624640000003,58.0,80.0
842,209.11742400000003,210.20749636666667,46.0,78.0
843,209.99977600000003,210.24977573333334,61.0,85.0
844,209.99977600000003,210.27918746666668,65.0,86.0
845,210.440952,210.716687,58.0,73.0
846,210.88212800000002,211.47587736666668,61.0,78.0
847,210.88212800000002,211.52918613333335,58.0,78.0
848,211.323304,211.96484743333335,53.0,72.0
849,211.76448000000002,212.13947960000002,61.0,84.0
850,211.76448000000002,212.14683253333334,65.0,85.0
851,211.76448000000002,212.1670531,58.0,79.0
852,210.88212800000002,212.4979351,46.0,86.0
853,212.205656,212.57330266666668,53.0,73.0
854,212.64683200000002,213.19646376666668,61.0,78.0
855,212.64683200000002,213.20933140000002,65.0,84.0
856,212.64683200000002,213.22403726666667,58.0,74.0
857,213.088008,213.72955143333334,53.0,74.0
858,213.52918400000001,213.75161023333334,58.0,80.0
859,212.64683200000002,213.76263963333335,46.0,85.0
860,213.52918400000001,213.79205136666667,61.0,86.0
861,213.52918400000001,213.83065426666667,65.0,88.0
862,213.52918400000001,213.91153653333336,70.0,84.0
863,213.97036000000003,214.29388906666668,58.0,87.0
864,214.411536,214.53102116666668,39.0,86.0
865,214.411536,214.73874153333335,58.0,81.0
866,214.411536,214.86190316666668,63.0,85.0
867,215.293888,215.98506373333336,58.0,86.0
868,214.85271200000003,215.99425490000002,51.0,84.0
869,215.73506400000002,216.0475636666667,63.0,91.0
870,216.17624,216.68910710000003,58.0,80.0
871,216.17624,216.74609233333334,63.0,84.0
872,216.17624,216.87109220000002,70.0,85.0
873,216.17624,216.87844513333334,67.0,86.0
874,216.838004,217.14315073333336,58.0,77.0
875,217.058592,217.33065053333334,63.0,85.0
876,217.058592,217.389474,67.0,80.0
877,217.058592,217.57329733333336,70.0,82.0
878,217.058592,217.85638526666668,75.0,89.0
879,217.49976800000002,217.8802823,63.0,81.0
880,216.17624,217.88763523333336,51.0,89.0
881,217.27918000000003,217.89131170000002,58.0,85.0
882,217.94094400000003,218.41704643333335,68.0,85.0
883,218.16153200000002,218.49792870000002,56.0,82.0
884,218.38212000000001,218.66888440000002,63.0,81.0
885,218.38212000000001,218.8177813,51.0,31.0
886,218.602708,219.26814846666667,68.0,85.0
887,219.04388400000002,219.48506,56.0,81.0
888,218.82329600000003,219.5659422666667,51.0,76.0
889,217.94094400000003,219.5788099,44.0,85.0
890,219.264472,219.60270693333334,63.0,82.0
891,219.48506,219.66704510000002,68.0,80.0
892,219.70564800000002,220.19094160000003,56.0,85.0
893,219.70564800000002,220.41336783333335,63.0,86.0
894,219.70564800000002,220.44645603333336,68.0,79.0
895,220.36741200000003,220.51998536666667,56.0,75.0
896,220.146824,220.67439696666668,51.0,76.0
897,220.58800000000002,220.8141027,56.0,78.0
898,219.70564800000002,220.86741146666668,44.0,85.0
899,220.58800000000002,220.88395556666669,60.0,86.0
900,220.80858800000001,220.9078526,51.0,84.0
901,220.58800000000002,220.92439670000002,63.0,87.0
902,221.029176,221.14314646666668,56.0,85.0
903,220.58800000000002,221.1615288,68.0,85.0
904,221.47035200000002,221.7221899666667,60.0,81.0
905,221.47035200000002,222.02917493333334,67.0,84.0
906,221.69094,222.15417480000002,55.0,68.0
907,221.911528,222.3894686666667,60.0,80.0
908,222.13211600000002,222.59351256666667,63.0,85.0
909,222.35270400000002,223.0898355666667,55.0,71.0
910,221.47035200000002,223.1027032,48.0,85.0
911,222.573292,223.1027032,67.0,85.0
912,222.79388000000003,223.52733510000002,60.0,83.0
913,223.01446800000002,223.66887906666668,63.0,80.0
914,223.455644,224.00527576666667,55.0,77.0
915,223.67623200000003,224.13395210000002,60.0,78.0
916,223.89682000000002,224.1872608666667,63.0,82.0
917,224.117408,224.4096871,55.0,77.0
918,224.337996,224.44829000000001,60.0,80.0
919,223.23505600000001,224.51630463333336,48.0,86.0
920,224.337996,224.59718690000003,63.0,84.0
921,224.337996,224.74792203333334,67.0,79.0
922,224.55858400000002,225.0218188,60.0,78.0
923,224.77917200000002,225.04020113333334,63.0,78.0
924,224.99976,225.73321510000002,68.0,82.0
925,225.66152400000001,226.10453823333336,60.0,85.0
926,225.882112,226.1523323,65.0,86.0
927,225.44093600000002,226.54755246666667,48.0,80.0
928,224.99976,226.61924356666668,41.0,84.0
929,226.32328800000002,226.65784646666668,60.0,85.0
930,226.543876,226.68725820000003,65.0,80.0
931,226.10270000000003,226.68725820000003,68.0,85.0
932,226.764464,227.26813993333334,63.0,81.0
933,227.20564000000002,227.75527176666668,58.0,78.0
934,227.426228,227.90600690000002,63.0,82.0
935,226.764464,227.97034506666668,39.0,87.0
936,227.64681600000003,228.0163009,46.0,80.0
937,227.86740400000002,228.25527123333336,67.0,89.0
938,228.087992,228.37843286666669,63.0,80.0
939,228.30858,228.39313873333336,58.0,72.0
940,228.52916800000003,229.00343220000002,61.0,78.0
941,228.52916800000003,229.0236527666667,65.0,85.0
942,228.970344,229.23504960000002,56.0,72.0
943,229.190932,229.76629903333335,68.0,86.0
944,228.52916800000003,229.90968123333334,49.0,88.0
945,229.852696,230.1063722,65.0,81.0
946,229.63210800000002,230.1229163,61.0,84.0
947,229.41152000000002,230.14313686666668,56.0,72.0
948,230.07328400000003,230.18725446666667,68.0,72.0
949,230.29387200000002,230.90968016666667,61.0,81.0
950,230.29387200000002,230.93357720000003,68.0,79.0
951,230.735048,231.2736503666667,56.0,76.0
952,231.17622400000002,231.40416493333336,65.0,87.0
953,231.17622400000002,231.4740178,61.0,86.0
954,230.29387200000002,231.48688543333336,49.0,87.0
955,231.396812,231.51629716666667,56.0,81.0
956,231.6174,231.89313500000003,60.0,68.0
957,232.05857600000002,232.28100223333334,58.0,78.0
958,232.05857600000002,232.35820803333334,61.0,80.0
959,232.49975200000003,232.77732523333336,58.0,82.0
960,232.72034000000002,232.97585443333335,61.0,89.0
961,232.279164,233.2423982666667,53.0,81.0
962,232.05857600000002,233.30673643333336,46.0,88.0
963,233.161516,233.3545305,65.0,91.0
964,233.38210400000003,233.66335370000002,61.0,87.0
965,233.60269200000002,233.76078006666668,58.0,83.0
966,233.82328,233.92070636666668,39.0,88.0
967,233.82328,234.14129436666667,58.0,81.0
968,233.82328,234.2148237,63.0,85.0
969,234.26445600000002,234.84166126666668,51.0,84.0
970,234.48504400000002,234.8471759666667,55.0,85.0
971,234.705632,234.92805823333336,58.0,86.0
972,234.92622000000003,235.18908736666668,63.0,89.0
973,235.14680800000002,235.40048420000002,67.0,87.0
974,235.367396,235.46849883333334,63.0,80.0
975,235.587984,235.84901313333336,60.0,85.0
976,235.587984,235.88761603333336,63.0,80.0
977,235.587984,236.08063053333336,67.0,79.0
978,236.02916000000002,236.15232163333334,60.0,85.0
979,235.80857200000003,236.33798320000002,55.0,86.0
980,236.249748,236.53651240000002,60.0,87.0
981,236.249748,236.61739466666668,63.0,87.0
982,236.47033600000003,236.72033573333334,55.0,85.0
983,236.249748,236.80857093333336,67.0,85.0
984,235.587984,236.85085030000002,48.0,86.0
985,236.69092400000002,236.9776884,60.0,86.0
986,236.91151200000002,237.23687930000003,63.0,86.0
987,237.1321,237.4335702666667,60.0,79.0
988,237.35268800000003,237.46665846666667,41.0,88.0
989,237.35268800000003,237.90415800000002,65.0,87.0
990,238.014452,238.31224580000003,57.0,86.0
991,238.23504000000003,238.5218044,60.0,86.0
992,237.793864,238.56224553333334,53.0,76.0
993,238.45562800000002,238.73871593333334,65.0,99.0
994,238.676216,238.9225392666667,69.0,85.0
995,238.89680400000003,239.0383479666667,65.0,81.0
996,239.11739200000002,239.67621493333334,65.0,83.0
997,239.11739200000002,239.7607736666667,70.0,81.0
998,239.99974400000002,240.1964349666667,65.0,87.0
999,239.99974400000002,240.53099343333335,73.0,87.0
1000,239.11739200000002,240.73136086666668,46.0,82.0
1001,240.44092,240.73503733333334,65.0,79.0
1002,239.99974400000002,240.74055203333336,70.0,87.0
1003,239.558568,240.75341966666667,53.0,75.0
1004,240.88209600000002,241.46297773333336,62.0,82.0
1005,240.88209600000002,241.5328306,70.0,81.0
1006,241.76444800000002,241.95930073333335,65.0,88.0
1007,241.32327200000003,242.04202123333334,53.0,85.0
1008,240.88209600000002,242.1651828666667,46.0,83.0
1009,241.76444800000002,242.18540343333336,74.0,86.0
1010,241.76444800000002,242.2001093,70.0,86.0
1011,242.20562400000003,242.32878563333335,65.0,77.0
1012,242.6468,242.78650573333334,39.0,86.0
1013,242.6468,242.92437323333334,63.0,78.0
1014,242.6468,242.9537849666667,67.0,85.0
1015,242.6468,242.96481436666667,70.0,87.0
1016,243.08797600000003,243.39679920000003,67.0,74.0
1017,243.08797600000003,243.40415213333335,70.0,81.0
1018,243.08797600000003,243.40966683333335,63.0,80.0
1019,243.529152,243.85819576666668,70.0,89.0
1020,243.529152,243.8692251666667,63.0,87.0
1021,243.529152,243.8747398666667,67.0,88.0
1022,243.08797600000003,244.0420191,51.0,86.0
1023,243.97032800000002,244.07143083333335,58.0,78.0
1024,244.19091600000002,244.29753353333336,63.0,85.0
1025,244.411504,244.54201856666668,39.0,88.0
1026,244.411504,244.73870953333335,63.0,80.0
1027,244.411504,244.74790070000003,75.0,89.0
1028,244.411504,244.75893010000001,67.0,81.0
1029,244.85268000000002,245.1651796666667,63.0,87.0
1030,244.85268000000002,245.1817237666667,67.0,84.0
1031,244.85268000000002,245.20010610000003,75.0,88.0
1032,245.293856,245.43907643333335,65.0,87.0
1033,245.293856,245.45010583333334,77.0,88.0
1034,245.73503200000002,245.900473,67.0,85.0
1035,245.293856,246.0934875,58.0,77.0
1036,244.85268000000002,246.14311980000002,51.0,86.0
1037,246.17620800000003,246.65231043333335,68.0,85.0
1038,246.39679600000002,246.73319270000002,56.0,82.0
1039,246.61738400000002,246.90414840000003,63.0,81.0
1040,246.61738400000002,247.0530453,51.0,31.0
1041,246.837972,247.50341246666667,68.0,85.0
1042,247.27914800000002,247.720324,56.0,81.0
1043,247.05856000000003,247.8012062666667,51.0,76.0
1044,246.17620800000003,247.8140739,44.0,85.0
1045,247.499736,247.83797093333334,63.0,82.0
1046,247.720324,247.90230910000002,68.0,80.0
1047,247.94091200000003,248.42620560000003,56.0,85.0
1048,247.94091200000003,248.64863183333335,63.0,86.0
1049,247.94091200000003,248.68172003333336,68.0,79.0
1050,248.60267600000003,248.75524936666667,56.0,75.0
1051,248.382088,248.90966096666668,51.0,76.0
1052,248.82326400000002,249.0493667,56.0,78.0
1053,247.94091200000003,249.10267546666668,44.0,85.0
1054,248.82326400000002,249.1192195666667,60.0,86.0
1055,249.04385200000002,249.1431166,51.0,84.0
1056,248.82326400000002,249.15966070000002,63.0,87.0
1057,249.26444,249.37841046666668,56.0,85.0
1058,248.82326400000002,249.39679280000001,68.0,85.0
1059,249.70561600000002,249.9574539666667,60.0,81.0
1060,249.70561600000002,250.26443893333337,67.0,84.0
1061,249.926204,250.38943880000002,55.0,68.0
1062,250.146792,250.6247326666667,60.0,80.0
1063,250.36738000000003,250.82877656666668,63.0,85.0
1064,250.58796800000002,251.3250995666667,55.0,71.0
1065,249.70561600000002,251.3379672,48.0,85.0
1066,250.808556,251.3379672,67.0,85.0
1067,251.02914400000003,251.76259910000002,60.0,83.0
1068,251.24973200000002,251.90414306666668,63.0,80.0
1069,251.690908,252.2405397666667,55.0,77.0
1070,251.91149600000003,252.36921610000002,60.0,78.0
1071,252.13208400000002,252.4225248666667,63.0,82.0
1072,252.352672,252.64495110000001,55.0,77.0
1073,252.57326000000003,252.68355400000002,60.0,80.0
1074,251.47032000000002,252.75156863333336,48.0,86.0
1075,252.57326000000003,252.83245090000003,63.0,84.0
1076,252.57326000000003,252.98318603333334,67.0,79.0
1077,252.79384800000003,253.2570828,60.0,78.0
1078,253.01443600000002,253.27546513333334,63.0,78.0
1079,253.235024,253.96847910000002,68.0,82.0
1080,253.89678800000002,254.33980223333336,60.0,85.0
1081,254.117376,254.3875963,65.0,86.0
1082,253.67620000000002,254.78281646666667,48.0,80.0
1083,253.235024,254.85450756666668,41.0,84.0
1084,254.55855200000002,254.89311046666668,60.0,85.0
1085,254.77914,254.92252220000003,65.0,80.0
1086,254.33796400000003,254.92252220000003,68.0,85.0
1087,254.99972800000003,255.50340393333335,63.0,81.0
1088,255.44090400000002,255.99053576666668,58.0,78.0
1089,255.661492,256.1412709,63.0,82.0
1090,254.99972800000003,256.2056090666667,39.0,87.0
1091,255.88208000000003,256.2515649,46.0,80.0
1092,256.102668,256.49053523333333,67.0,89.0
1093,256.323256,256.6136968666667,63.0,80.0
1094,256.54384400000004,256.62840273333336,58.0,72.0
1095,256.764432,257.2386962,61.0,78.0
1096,256.764432,257.2589167666667,65.0,85.0
1097,257.20560800000004,257.4703136,56.0,72.0
1098,257.426196,258.00156303333335,68.0,86.0
1099,256.764432,258.1449452333334,49.0,88.0
1100,258.08796,258.34163620000004,65.0,81.0
1101,257.86737200000005,258.3581803,61.0,84.0
1102,257.646784,258.3784008666667,56.0,72.0
1103,258.30854800000003,258.4225184666667,68.0,72.0
1104,258.529136,259.1449441666667,61.0,81.0
1105,258.529136,259.16884120000003,68.0,79.0
1106,258.97031200000004,259.50891436666666,56.0,76.0
1107,259.411488,259.63942893333336,65.0,87.0
1108,259.411488,259.70928180000004,61.0,86.0
1109,258.529136,259.72214943333336,49.0,87.0
1110,259.63207600000004,259.7515611666667,56.0,81.0
1111,259.852664,260.128399,60.0,68.0
1112,260.29384000000005,260.51626623333334,58.0,78.0
1113,260.29384000000005,260.59347203333334,61.0,80.0
1114,260.73501600000003,261.01258923333336,58.0,82.0
1115,260.955604,261.21111843333335,61.0,89.0
1116,260.514428,261.4776622666667,53.0,81.0
1117,260.29384000000005,261.5420004333333,46.0,88.0
1118,261.39678000000004,261.58979450000004,65.0,91.0
1119,261.617368,261.89861770000005,61.0,87.0
1120,261.837956,261.9960440666667,58.0,83.0
1121,262.05854400000004,262.1559703666667,39.0,88.0
1122,262.05854400000004,262.3765583666667,58.0,81.0
1123,262.05854400000004,262.45008770000004,63.0,85.0
1124,262.49972,263.0769252666667,51.0,84.0
1125,262.72030800000005,263.0824399666667,55.0,85.0
1126,262.940896,263.16332223333336,58.0,86.0
1127,263.16148400000003,263.4243513666667,63.0,89.0
1128,263.382072,263.6357482,67.0,87.0
1129,263.60266,263.70376283333337,63.0,80.0
1130,263.82324800000004,264.08427713333333,60.0,85.0
1131,263.82324800000004,264.12288003333333,63.0,80.0
1132,263.82324800000004,264.31589453333333,67.0,79.0
1133,264.264424,264.38758563333334,60.0,85.0
1134,264.043836,264.5732472,55.0,86.0
1135,264.48501200000004,264.7717764,60.0,87.0
1136,264.48501200000004,264.8526586666667,63.0,87.0
1137,264.7056,264.9555997333334,55.0,85.0
1138,264.48501200000004,265.04383493333336,67.0,85.0
1139,263.82324800000004,265.0861143,48.0,86.0
1140,264.926188,265.2129524,60.0,86.0
1141,265.14677600000005,265.4721433,63.0,86.0
1142,265.367364,265.6688342666667,60.0,79.0
1143,265.58795200000003,265.7019224666667,41.0,88.0
1144,265.58795200000003,266.139422,65.0,87.0
1145,266.24971600000003,266.5475098,57.0,86.0
1146,266.470304,266.75706840000004,60.0,86.0
1147,266.029128,266.79750953333337,53.0,76.0
1148,266.690892,266.97397993333334,65.0,99.0
1149,266.91148000000004,267.1578032666667,69.0,85.0
1150,267.132068,267.2736119666667,65.0,81.0
1151,267.352656,267.91147893333334,65.0,83.0
1152,267.352656,267.99603766666667,70.0,81.0
1153,268.235008,268.43169896666666,65.0,87.0
1154,268.235008,268.76625743333335,73.0,87.0
1155,267.352656,268.9666248666667,46.0,82.0
1156,268.67618400000003,268.97030133333334,65.0,79.0
1157,268.235008,268.97581603333333,70.0,87.0
1158,267.793832,268.9886836666667,53.0,75.0
1159,269.11736,269.43905083333334,39.0,89.0
1160,269.11736,269.56956540000004,58.0,85.0
1161,269.11736,269.7000799666667,67.0,80.0
1162,269.99971200000005,270.3232410666667,51.0,88.0
1163,270.2203,270.3563292666667,58.0,87.0
1164,270.44088800000003,270.77544646666666,63.0,88.0
1165,270.661476,270.78279940000004,67.0,62.0
1166,270.882064,271.1081667,68.0,84.0
1167,270.882064,271.13574020000004,63.0,85.0
1168,271.32324,271.61000440000004,51.0,81.0
1169,271.543828,271.8177247666667,60.0,87.0
1170,271.543828,271.82140123333335,56.0,86.0
1171,271.543828,271.8397835666667,63.0,86.0
1172,271.76441600000004,272.1063274,51.0,81.0
1173,271.985004,272.27728310000003,56.0,85.0
1174,271.985004,272.3214007,63.0,87.0
1175,270.882064,272.47765053333336,44.0,86.0
1176,272.42618000000004,272.5070622666667,56.0,69.0
1177,272.646768,272.6835326666667,56.0,86.0
1178,272.646768,273.17066450000004,60.0,90.0
1179,272.646768,273.2037527,68.0,82.0
1180,272.646768,273.2294879666667,63.0,86.0
1181,273.308532,273.41514953333336,56.0,75.0
1182,273.087944,273.63022283333333,51.0,82.0
1183,273.52912000000003,273.82875203333333,56.0,81.0
1184,273.52912000000003,274.0199283,60.0,85.0
1185,273.52912000000003,274.0842664666667,63.0,85.0
1186,273.52912000000003,274.23500160000003,68.0,82.0
1187,274.19088400000004,274.24786923333335,63.0,70.0
1188,274.19088400000004,274.3489720666667,60.0,92.0
1189,273.970296,274.35816323333336,56.0,86.0
1190,273.749708,274.39676613333336,51.0,84.0
1191,272.646768,274.4004426,44.0,86.0
1192,274.411472,274.56772183333334,37.0,86.0
1193,274.411472,274.797501,56.0,87.0
1194,274.411472,274.8471333,61.0,86.0
1195,275.29382400000003,275.6118383666667,68.0,81.0
1196,275.29382400000003,275.6706618333333,61.0,85.0
1197,275.29382400000003,275.99602913333337,49.0,86.0
1198,275.29382400000003,276.01257323333334,56.0,84.0
1199,275.95558800000003,276.2533818,61.0,78.0
1200,275.95558800000003,276.2533818,68.0,79.0
1201,276.176176,276.4978668333334,49.0,85.0
1202,276.396764,276.65044020000005,61.0,86.0
1203,276.396764,276.6982342666667,68.0,84.0
1204,276.396764,276.7533812666667,73.0,82.0
1205,276.83794,276.9224987333333,68.0,43.0
1206,276.83794,276.9427193,61.0,81.0
1207,276.61735200000004,276.95742516666667,56.0,79.0
1208,276.61735200000004,276.99418983333334,49.0,68.0
1209,277.058528,277.2607336666667,49.0,86.0
1210,277.058528,277.2772777666667,73.0,85.0
1211,277.058528,277.27911600000004,68.0,81.0
1212,277.058528,277.2827924666667,56.0,86.0
1213,277.058528,277.2956601,61.0,87.0
1214,277.499704,277.68904203333335,49.0,88.0
1215,277.94088,278.3471295666667,67.0,79.0
1216,277.94088,278.3581589666667,63.0,83.0
1217,277.94088,278.3747030666667,60.0,85.0
1218,277.94088,279.0971287666667,48.0,87.0
1219,278.823232,279.1706581,67.0,87.0
1220,278.823232,279.18904043333333,60.0,86.0
1221,278.823232,279.20558453333337,63.0,86.0
1222,279.264408,279.5088930333334,55.0,60.0
1223,279.484996,279.78278980000005,63.0,85.0
1224,279.484996,279.79381920000003,67.0,80.0
1225,279.484996,279.79381920000003,72.0,81.0
1226,279.484996,279.8085250666667,60.0,81.0
1227,279.926172,280.17984820000004,60.0,86.0
1228,279.926172,280.2772745666667,63.0,88.0
1229,279.926172,280.4335244,67.0,82.0
1230,280.36734800000005,280.4923478666667,60.0,86.0
1231,280.14676000000003,280.5824213,55.0,63.0
1232,279.70558400000004,280.7147741,48.0,85.0
1233,280.587936,280.8508033666667,60.0,89.0
1234,280.587936,280.8747004,63.0,87.0
1235,280.80852400000003,280.97028853333336,55.0,84.0
1236,281.029112,281.1908765333334,60.0,87.0
1237,281.47028800000004,281.53830263333333,37.0,90.0
1238,281.47028800000004,281.8728611,56.0,82.0
1239,281.47028800000004,281.9427139666667,65.0,86.0
1240,281.47028800000004,281.9555816,61.0,82.0
1241,282.13205200000004,282.2515371666667,56.0,81.0
1242,282.35264,282.4059487666667,65.0,88.0
1243,281.911464,282.46477223333335,49.0,78.0
1244,282.35264,282.6026397333334,56.0,86.0
1245,282.35264,282.65043380000003,61.0,89.0
1246,282.57322800000003,282.9298452666667,49.0,86.0
1247,282.79381600000005,282.94638936666666,56.0,80.0
1248,283.014404,283.2496978666667,56.0,77.0
1249,283.014404,283.26072726666666,61.0,86.0
1250,283.014404,283.3030066333334,68.0,85.0
1251,283.23499200000003,283.49234466666667,49.0,88.0
1252,283.45558,283.7074179666667,65.0,89.0
1253,283.45558,283.7258003,56.0,86.0
1254,283.89675600000004,284.0217558666667,56.0,81.0
1255,283.676168,284.227638,49.0,87.0
1256,284.117344,284.35815256666666,56.0,87.0
1257,284.117344,284.37837313333335,61.0,92.0
1258,284.337932,284.4206525,49.0,81.0
1259,284.55852000000004,284.6945492666667,49.0,88.0
1260,284.99969600000003,285.29381333333333,46.0,87.0
1261,284.99969600000003,285.2974898,61.0,84.0
1262,284.99969600000003,285.3011662666667,58.0,80.0
1263,285.440872,285.5180778,46.0,51.0
1264,285.440872,285.57138656666666,58.0,73.0
1265,285.440872,285.5769012666667,61.0,78.0
1266,285.882048,286.0897683666667,46.0,85.0
1267,285.882048,286.1228565666667,53.0,85.0
1268,285.882048,286.3011652,58.0,86.0
1269,285.882048,286.3195475333334,61.0,88.0
1270,285.882048,286.3269004666667,65.0,90.0
1271,286.32322400000004,286.4353562333334,46.0,77.0
1272,286.543812,286.65042953333335,58.0,83.0
1273,286.7644,286.8526352,39.0,86.0
1274,286.7644,287.040135,58.0,85.0
1275,286.7644,287.13204666666667,63.0,85.0
1276,287.426164,288.01256043333336,58.0,90.0
1277,287.205576,288.1191779666667,51.0,85.0
1278,287.86734,288.14491323333334,67.0,89.0
1279,287.64675200000005,288.16513380000004,63.0,91.0
1280,288.08792800000003,288.3563100666667,70.0,85.0
1281,288.308516,288.48682463333336,75.0,92.0
1282,288.529104,288.7993243,40.0,86.0
1283,288.97028,289.17432390000005,40.0,86.0
1284,288.97028,289.2074121,47.0,85.0
1285,288.97028,289.27542673333335,52.0,70.0
1286,288.97028,289.27542673333335,64.0,80.0
1287,289.41145600000004,289.64307340000005,40.0,90.0
1288,289.41145600000004,289.6890292333334,64.0,84.0
1289,289.41145600000004,289.742338,47.0,87.0
1290,289.41145600000004,289.742338,52.0,86.0
1291,289.852632,290.0291024,40.0,86.0
1292,289.852632,290.1007935,47.0,84.0
1293,289.852632,290.1541022666667,56.0,86.0
1294,289.852632,290.1669699,52.0,80.0
1295,289.852632,290.183514,64.0,82.0
1296,290.293808,291.64490950000004,40.0,89.0
1297,290.293808,291.67432123333333,47.0,89.0
1298,290.293808,291.9022621666667,52.0,87.0
1299,290.293808,291.90593863333334,56.0,87.0
1300,290.293808,291.96660033333336,64.0,84.0
1301,292.058512,292.53461443333333,69.0,85.0
1302,292.2791,292.6154967,57.0,82.0
1303,292.49968800000005,292.78645240000003,64.0,81.0
1304,292.49968800000005,292.93534930000004,52.0,31.0
1305,292.720276,293.3857164666667,69.0,85.0
1306,293.161452,293.60262800000004,57.0,81.0
1307,292.94086400000003,293.6835102666667,52.0,76.0
1308,292.058512,293.6963779,45.0,85.0
1309,293.38204,293.72027493333337,64.0,82.0
1310,293.60262800000004,293.7846131,69.0,80.0
1311,293.823216,294.30850960000004,57.0,85.0
1312,293.823216,294.53093583333333,64.0,86.0
1313,293.823216,294.56402403333334,69.0,79.0
1314,294.48498,294.6375533666667,57.0,75.0
1315,294.26439200000004,294.7919649666667,52.0,76.0
1316,294.705568,294.93167070000004,57.0,78.0
1317,293.823216,294.9849794666667,45.0,85.0
1318,294.705568,295.00152356666666,61.0,86.0
1319,294.92615600000005,295.0254206,52.0,84.0
1320,294.705568,295.0419647,64.0,87.0
1321,295.146744,295.2607144666667,57.0,85.0
1322,294.705568,295.27909680000005,69.0,85.0
1323,295.58792,295.8397579666667,61.0,81.0
1324,295.58792,296.14674293333337,68.0,84.0
1325,295.808508,296.2717428,56.0,68.0
1326,296.02909600000004,296.5070366666667,61.0,80.0
1327,296.249684,296.7110805666667,64.0,85.0
1328,296.470272,297.2074035666667,56.0,71.0
1329,295.58792,297.2202712,49.0,85.0
1330,296.69086000000004,297.2202712,68.0,85.0
1331,296.911448,297.6449031,61.0,83.0
1332,297.132036,297.7864470666667,64.0,80.0
1333,297.573212,298.1228437666667,56.0,77.0
1334,297.79380000000003,298.25152010000005,61.0,78.0
1335,298.014388,298.3048288666667,64.0,82.0
1336,298.234976,298.52725510000005,56.0,77.0
1337,298.45556400000004,298.56585800000005,61.0,80.0
1338,297.35262400000005,298.63387263333334,49.0,86.0
1339,298.45556400000004,298.7147549,64.0,84.0
1340,298.45556400000004,298.86549003333334,68.0,79.0
1341,298.676152,299.1393868,61.0,78.0
1342,298.89674,299.1577691333334,64.0,78.0
1343,299.11732800000004,299.8507831,69.0,82.0
1344,299.77909200000005,300.22210623333336,61.0,85.0
1345,299.99968,300.2699003,66.0,86.0
1346,299.558504,300.6651204666667,49.0,80.0
1347,299.11732800000004,300.7368115666667,42.0,84.0
1348,300.440856,300.7754144666667,61.0,85.0
1349,300.661444,300.80482620000004,66.0,80.0
1350,300.22026800000003,300.80482620000004,69.0,85.0
1351,300.88203200000004,301.3857079333334,64.0,81.0
1352,301.323208,301.8728397666667,59.0,78.0
1353,301.54379600000004,302.0235749,64.0,82.0
1354,300.88203200000004,302.0879130666667,40.0,87.0
1355,301.764384,302.13386890000004,47.0,80.0
1356,301.984972,302.37283923333337,68.0,89.0
1357,302.20556000000005,302.4960008666667,64.0,80.0
1358,302.426148,302.51070673333334,59.0,72.0
1359,302.64673600000003,303.1210002,62.0,78.0
1360,302.64673600000003,303.14122076666666,66.0,85.0
1361,303.087912,303.35261760000003,57.0,72.0
1362,303.30850000000004,303.88386703333333,69.0,86.0
1363,302.64673600000003,304.02724923333335,50.0,88.0
1364,303.97026400000004,304.2239402,66.0,81.0
1365,303.749676,304.24048430000005,62.0,84.0
1366,303.529088,304.2607048666667,57.0,72.0
1367,304.190852,304.3048224666667,69.0,72.0
1368,304.41144,305.0272481666667,62.0,81.0
1369,304.41144,305.0511452,69.0,79.0
1370,304.852616,305.3912183666667,57.0,76.0
1371,305.293792,305.52173293333334,66.0,87.0
1372,305.293792,305.5915858,62.0,86.0
1373,304.41144,305.60445343333333,50.0,87.0
1374,305.51438,305.6338651666667,57.0,81.0
1375,305.73496800000004,306.01070300000003,61.0,68.0
1376,306.176144,306.3985702333334,59.0,78.0
1377,306.176144,306.4757760333334,62.0,80.0
1378,306.61732,306.89489323333333,59.0,82.0
1379,306.837908,307.09342243333333,62.0,89.0
1380,306.39673200000004,307.3599662666667,54.0,81.0
1381,306.176144,307.42430443333336,47.0,88.0
1382,307.279084,307.4720985,66.0,91.0
1383,307.49967200000003,307.7809217,62.0,87.0
1384,307.72026,307.8783480666667,59.0,83.0
1385,307.940848,308.0382743666667,40.0,88.0
1386,307.940848,308.2588623666667,59.0,81.0
1387,307.940848,308.3323917,64.0,85.0
1388,308.382024,308.9592292666667,52.0,84.0
1389,308.602612,308.9647439666667,56.0,85.0
1390,308.82320000000004,309.04562623333334,59.0,86.0
1391,309.043788,309.3066553666667,64.0,89.0
1392,309.264376,309.5180522,68.0,87.0
1393,309.48496400000005,309.58606683333335,64.0,80.0
1394,309.705552,309.96658113333336,61.0,85.0
1395,309.705552,310.00518403333336,64.0,80.0
1396,309.705552,310.19819853333337,68.0,79.0
1397,310.146728,310.2698896333334,61.0,85.0
1398,309.92614000000003,310.4555512,56.0,86.0
1399,310.367316,310.6540804,61.0,87.0
1400,310.367316,310.7349626666667,64.0,87.0
1401,310.58790400000004,310.83790373333335,56.0,85.0
1402,310.367316,310.92613893333333,68.0,85.0
1403,309.705552,310.9684183,49.0,86.0
1404,310.808492,311.09525640000004,61.0,86.0
1405,311.02908,311.3544473,64.0,86.0
1406,311.24966800000004,311.55113826666667,61.0,79.0
1407,311.470256,311.5842264666667,42.0,88.0
1408,311.470256,312.021726,66.0,87.0
1409,312.13202,312.42981380000003,58.0,86.0
1410,312.35260800000003,312.6393724,61.0,86.0
1411,311.91143200000005,312.67981353333334,54.0,76.0
1412,312.573196,312.8562839333334,66.0,99.0
1413,312.793784,313.04010726666667,70.0,85.0
1414,313.01437200000004,313.15591596666667,66.0,81.0
1415,313.23496,313.7937829333334,66.0,83.0
1416,313.23496,313.8783416666667,71.0,81.0
1417,314.117312,314.3140029666667,66.0,87.0
1418,314.117312,314.6485614333334,74.0,87.0
1419,313.23496,314.8489288666667,47.0,82.0
1420,314.558488,314.8526053333334,66.0,79.0
1421,314.117312,314.85812003333336,71.0,87.0
1422,313.67613600000004,314.8709876666667,54.0,75.0
1423,314.96657580000004,315.4334870666667,40.0,90.0
1424,314.97392873333337,315.6945162,59.0,79.0
1425,314.97392873333337,315.7000309,68.0,80.0
1426,315.85811896666667,316.01069233333334,52.0,87.0
1427,315.86547190000005,316.09525106666666,59.0,80.0
1428,315.8636336666667,316.3121626,64.0,84.0
1429,316.7515003666667,317.6798082,57.0,80.0
1430,317.6283376666667,318.0695136666667,59.0,86.0
1431,318.06583720000003,318.3581163,61.0,80.0
1432,317.17429403333335,318.6412042333334,52.0,85.0
1433,318.50885143333335,318.73311590000003,64.0,83.0
1434,318.51436613333334,318.7643658666667,57.0,78.0
1435,319.4261298666667,319.5529679666667,57.0,62.0
1436,318.94635096666667,319.5639973666667,52.0,64.0
1437,316.74966213333335,319.8029677,45.0,86.0
1438,319.41877693333333,319.8305412,61.0,73.0
1439,319.411424,320.00517336666667,64.0,72.0
1440,319.4169387,320.0162027666667,69.0,73.0
1441,320.38936413333334,321.4408336,62.0,75.0
1442,320.3856876666667,321.45370123333333,59.0,66.0
1443,320.8544371666667,321.4886276666667,54.0,70.0
1444,320.3801729666667,321.6320098666667,47.0,85.0
1445,321.3746572,322.0842152666667,66.0,82.0
1446,322.0106859333334,322.23678863333333,71.0,78.0
1447,322.9996554666667,323.2239199333334,52.0,72.0
1448,323.1099494666667,323.27906693333335,56.0,69.0
1449,323.2312728666667,323.37281683333333,59.0,68.0
1450,323.3783315333334,323.4702432,64.0,78.0
1451,323.6559047666667,323.9684044333334,64.0,78.0
1452,323.88016923333333,324.15222776666667,68.0,71.0
1453,324.11362486666667,324.3029629,71.0,77.0
1454,324.36546283333337,324.4959774,76.0,89.0
1455,324.7092124666667,324.90957990000004,80.0,73.0
1456,325.08788853333334,325.40774113333333,83.0,77.0
1457,325.4978145666667,325.6081085666667,88.0,81.0
1458,322.85994973333334,325.76435840000005,47.0,79.0
1459,322.6724499333334,325.83788773333333,40.0,89.0
1460,328.1945028666667,328.7956051666667,69.0,76.0
1461,328.19082640000005,328.82685513333337,64.0,79.0
1462,328.6375171,329.1945018,61.0,75.0
1463,329.1099430666667,329.6301631,64.0,86.0
1464,329.1117813,329.63567780000005,69.0,81.0
1465,328.6742817666667,329.79192763333333,52.0,61.0
1466,328.1926646333334,329.8176629,45.0,85.0
1467,329.5364132,330.07869203333337,61.0,80.0
1468,329.9720745,330.47023573333337,67.0,81.0
1469,329.9665598,330.4904563,64.0,77.0
1470,330.4334710666667,330.606265,61.0,66.0
1471,330.89302940000005,331.0364116,61.0,84.0
1472,330.8875147,331.41324943333336,64.0,85.0
1473,330.88567646666667,331.54744046666667,67.0,82.0
1474,331.3176613,331.5492787,61.0,74.0
1475,329.9647215666667,331.58971983333333,45.0,84.0
1476,331.7514843666667,332.47023360000003,62.0,72.0
1477,331.76619023333336,332.4794247666667,66.0,73.0
1478,331.76067553333337,332.78640973333336,38.0,87.0
1479,332.646704,332.8525861333334,62.0,83.0
1480,332.64854223333333,333.0989094,66.0,88.0
1481,332.1871456666667,333.2128798666667,50.0,87.0
1482,332.6503804666667,333.2239092666667,69.0,83.0
1483,333.09339470000003,333.31214446666667,62.0,79.0
1484,333.51802660000004,333.8672909333334,62.0,78.0
1485,333.5161883666667,333.9628790666667,65.0,79.0
1486,333.9573643666667,334.5970695666667,57.0,54.0
1487,334.4334668,334.6816283,62.0,82.0
1488,333.5143501333334,334.7147165,50.0,86.0
1489,334.4316285666667,335.6908184,65.0,86.0
1490,334.4389815,336.0382445,69.0,84.0
1491,334.9849368,336.05295036666666,62.0,74.0
1492,336.95368470000005,337.1724344666667,57.0,78.0
1493,337.1301551,337.31765490000004,59.0,85.0
1494,337.3378754666667,337.5584634666667,61.0,81.0
1495,337.51618410000003,337.81030143333334,64.0,85.0
1496,337.7257427,337.9573601,69.0,80.0
1497,337.9555218666667,338.0989040666667,71.0,79.0
1498,338.23493333333334,338.53824183333336,73.0,82.0
1499,338.48125660000005,338.67059463333334,76.0,82.0
1500,338.7643445333334,338.9058885,81.0,67.0
1501,339.0584618666667,339.23677050000003,83.0,67.0
1502,336.7680231333334,339.31397630000004,52.0,74.0
1503,336.5014793,339.41875560000005,45.0,83.0
1504,339.4647114333334,339.55846133333336,85.0,79.0
