,start,end,pitch,velocity
0,20.203125,20.3,64.0,105.0
1,20.578125,20.665625,64.0,87.0
2,20.703125,20.808333333333334,64.0,80.0
3,20.953125,21.055208333333333,64.0,95.0
4,21.203125,21.43125,71.0,93.0
5,21.703125,22.020833333333332,71.0,87.0
6,22.203125,22.364583333333332,69.0,93.0
7,22.453125,22.555208333333333,67.0,80.0
8,22.703125,22.817708333333332,69.0,93.0
9,22.953125,23.097916666666666,71.0,87.0
10,23.203125,23.407291666666666,71.0,93.0
11,24.203125,24.323958333333334,64.0,93.0
12,24.578125,24.641666666666666,64.0,80.0
13,24.703125,24.803125,64.0,74.0
14,24.953125,25.058333333333334,64.0,87.0
15,25.203125,25.35625,69.0,102.0
16,25.703125,25.854166666666668,69.0,90.0
17,26.203125,26.313541666666666,67.0,85.0
18,26.453125,26.557291666666668,64.0,85.0
19,26.703125,26.803124999999998,67.0,83.0
20,26.953125,27.070833333333333,69.0,87.0
21,27.203125,27.39270833333333,69.0,93.0
22,28.203125,28.265625,71.0,69.0
23,28.453125,28.559375,71.0,93.0
24,28.703125,28.809375,71.0,95.0
25,28.953125,29.079166666666666,71.0,95.0
26,29.203125,29.474999999999998,76.0,95.0
27,29.703125,29.889583333333334,76.0,95.0
28,30.203125,30.342708333333334,74.0,66.0
29,30.453125,30.561458333333334,71.0,80.0
30,30.703125,30.811458333333334,71.0,93.0
31,30.953125,31.053124999999998,74.0,105.0
32,31.203125,31.688541666666666,64.0,103.0
33,32.203125,32.44583333333333,69.0,93.0
34,32.578125,32.65,69.0,80.0
35,32.703125,32.81458333333333,69.0,83.0
36,32.953125,33.04479166666667,67.0,95.0
37,33.203125,33.46145833333333,71.0,93.0
38,33.703125,33.88645833333333,69.0,102.0
39,34.203125,34.311458333333334,62.0,87.0
40,34.453125,34.572916666666664,59.0,80.0
41,34.703125,34.80625,62.0,87.0
42,34.953125,35.08229166666666,64.0,83.0
43,35.203125,35.50625,64.0,87.0
44,36.203125,36.34375,64.0,95.0
45,36.578125,36.6375,64.0,90.0
46,36.703125,36.80416666666667,64.0,85.0
47,36.953125,37.05416666666667,64.0,93.0
48,37.203125,37.38645833333333,71.0,85.0
49,37.703125,37.89791666666667,71.0,95.0
50,38.203125,38.32395833333333,69.0,90.0
51,38.453125,38.54375,67.0,80.0
52,38.703125,38.803125,69.0,90.0
53,38.953125,39.07395833333333,71.0,87.0
54,39.203125,39.43333333333333,71.0,87.0
55,40.203125,40.354166666666664,64.0,102.0
56,40.578125,40.641666666666666,64.0,80.0
57,40.703125,40.811458333333334,64.0,80.0
58,40.953125,41.075,64.0,87.0
59,41.203125,41.39895833333333,69.0,103.0
60,41.703125,41.940625,69.0,93.0
61,42.203125,42.328125,67.0,87.0
62,42.453125,42.567708333333336,64.0,70.0
63,42.703125,42.796875,67.0,80.0
64,42.953125,43.07083333333333,69.0,85.0
65,43.203125,43.47604166666667,69.0,87.0
66,44.203125,44.321875,71.0,87.0
67,44.453125,44.55520833333333,71.0,80.0
68,44.703125,44.811458333333334,71.0,83.0
69,44.953125,45.088541666666664,71.0,87.0
70,45.203125,45.514583333333334,76.0,93.0
71,45.703125,45.876041666666666,76.0,102.0
72,46.203125,46.35625,74.0,87.0
73,46.453125,46.55833333333333,71.0,93.0
74,46.703125,46.81458333333333,71.0,83.0
75,46.953125,47.06979166666667,74.0,87.0
76,47.203125,47.44895833333333,64.0,93.0
77,48.203125,48.311458333333334,69.0,80.0
78,48.453125,48.553125,69.0,80.0
79,48.703125,48.82395833333333,69.0,90.0
80,48.953125,49.046875,67.0,87.0
81,49.203125,49.49583333333333,71.0,95.0
82,49.703125,49.860416666666666,71.0,93.0
83,50.203125,50.37708333333333,62.0,67.0
84,50.703125,50.822916666666664,59.0,87.0
85,50.953125,51.078125,62.0,80.0
86,51.203125,51.432291666666664,64.0,93.0
87,52.203125,52.50208333333333,64.0,102.0
88,52.703125,52.81041666666667,67.0,83.0
89,52.953125,53.041666666666664,64.0,69.0
90,53.203125,53.52708333333333,71.0,93.0
91,53.703125,53.875,71.0,93.0
92,54.203125,54.452083333333334,67.0,74.0
93,54.703125,54.813541666666666,64.0,93.0
94,54.953125,55.078125,62.0,80.0
95,55.203125,55.53541666666666,64.0,87.0
96,56.203125,56.428125,67.0,93.0
97,56.578125,56.641666666666666,67.0,74.0
98,56.703125,56.80104166666666,64.0,80.0
99,56.953125,57.061458333333334,62.0,93.0
100,57.203125,57.411458333333336,67.0,87.0
101,57.578125,57.67395833333333,67.0,72.0
102,57.703125,57.80520833333333,64.0,93.0
103,57.953125,58.06458333333333,62.0,87.0
104,58.203125,58.516666666666666,67.0,69.0
105,58.578125,58.70104166666667,67.0,100.0
106,58.703125,58.842708333333334,69.0,87.0
107,58.953125,59.08229166666666,71.0,87.0
108,59.203125,59.467708333333334,71.0,83.0
109,60.203125,60.59791666666666,71.0,95.0
110,60.703125,61.04895833333333,74.0,93.0
111,61.203125,61.530208333333334,72.0,80.0
112,61.703125,62.009375,72.0,80.0
113,62.203125,62.340624999999996,71.0,87.0
114,62.453125,62.590624999999996,71.0,87.0
115,62.703125,62.85104166666667,71.0,87.0
116,62.953125,63.05416666666667,69.0,87.0
117,63.203125,63.484375,67.0,80.0
118,64.203125,64.40104166666667,69.0,93.0
119,64.578125,64.63020833333333,69.0,72.0
120,64.703125,64.81145833333333,69.0,87.0
121,64.953125,65.05833333333334,67.0,80.0
122,65.203125,65.31145833333333,69.0,87.0
123,65.453125,65.55833333333334,71.0,83.0
124,65.703125,65.82708333333333,69.0,87.0
125,66.203125,66.30520833333333,62.0,80.0
126,66.453125,66.56145833333333,59.0,80.0
127,66.703125,66.81458333333333,62.0,70.0
128,66.953125,67.08229166666666,64.0,83.0
129,67.203125,67.41041666666666,64.0,93.0
130,68.203125,68.53645833333333,64.0,93.0
131,68.703125,68.834375,67.0,87.0
132,68.953125,69.07395833333334,64.0,95.0
133,69.203125,69.52395833333333,71.0,83.0
134,69.703125,69.91979166666667,71.0,93.0
135,70.203125,70.475,67.0,87.0
136,70.703125,70.83229166666666,64.0,93.0
137,70.953125,71.07083333333333,62.0,87.0
138,71.203125,71.58958333333334,64.0,80.0
139,72.203125,72.41875,67.0,95.0
140,72.578125,72.67604166666666,67.0,93.0
141,72.703125,72.778125,64.0,90.0
142,72.953125,73.06458333333333,62.0,93.0
143,73.203125,73.365625,67.0,87.0
144,73.578125,73.67083333333333,67.0,95.0
145,73.703125,73.77604166666667,64.0,93.0
146,73.953125,74.05833333333334,62.0,87.0
147,74.203125,74.54375,67.0,93.0
148,74.578125,74.70104166666667,67.0,100.0
149,74.703125,74.82291666666667,69.0,102.0
150,74.953125,75.05729166666667,71.0,93.0
151,75.203125,75.41875,71.0,93.0
152,76.203125,76.51979166666666,71.0,90.0
153,76.703125,76.84166666666667,71.0,93.0
154,76.953125,77.06979166666666,74.0,93.0
155,77.203125,77.53333333333333,72.0,93.0
156,77.703125,77.928125,72.0,93.0
157,78.203125,78.55416666666666,71.0,87.0
158,78.703125,78.85104166666666,71.0,93.0
159,78.953125,79.07395833333334,69.0,95.0
160,79.203125,79.48541666666667,67.0,93.0
161,80.203125,80.31145833333333,69.0,102.0
162,80.453125,80.56875,69.0,93.0
163,80.703125,80.82708333333333,69.0,93.0
164,80.953125,81.08854166666667,67.0,87.0
165,81.203125,81.36666666666666,69.0,95.0
166,81.453125,81.57083333333333,71.0,93.0
167,81.703125,81.92291666666667,69.0,93.0
168,82.203125,82.41041666666666,62.0,93.0
169,82.578125,82.66875,62.0,80.0
170,82.703125,82.80520833333333,67.0,83.0
171,82.953125,83.07708333333333,66.0,67.0
172,83.203125,83.56875,64.0,90.0
173,84.203125,84.3,64.0,105.0
174,84.578125,84.665625,64.0,87.0
175,84.703125,84.80833333333334,64.0,80.0
176,84.953125,85.05520833333333,64.0,95.0
177,85.203125,85.43125,71.0,93.0
178,85.703125,86.02083333333333,71.0,87.0
179,86.203125,86.36458333333333,69.0,93.0
180,86.453125,86.55520833333333,67.0,80.0
181,86.703125,86.81770833333333,69.0,93.0
182,86.953125,87.09791666666666,71.0,87.0
183,87.203125,87.40729166666667,71.0,93.0
184,88.203125,88.32395833333334,64.0,93.0
185,88.578125,88.64166666666667,64.0,80.0
186,88.703125,88.803125,64.0,74.0
187,88.953125,89.05833333333334,64.0,87.0
188,89.203125,89.35625,69.0,102.0
189,89.703125,89.85416666666667,69.0,90.0
190,90.203125,90.31354166666667,67.0,85.0
191,90.453125,90.55729166666667,64.0,85.0
192,90.703125,90.803125,67.0,83.0
193,90.953125,91.07083333333333,69.0,87.0
194,91.203125,91.39270833333333,69.0,93.0
195,92.203125,92.265625,71.0,69.0
196,92.453125,92.559375,71.0,93.0
197,92.703125,92.809375,71.0,95.0
198,92.953125,93.07916666666667,71.0,95.0
199,93.203125,93.475,76.0,95.0
200,93.703125,93.88958333333333,76.0,95.0
201,94.203125,94.34270833333333,74.0,66.0
202,94.453125,94.56145833333333,71.0,80.0
203,94.703125,94.81145833333333,71.0,93.0
204,94.953125,95.053125,74.0,105.0
205,95.203125,95.68854166666667,64.0,103.0
206,96.203125,96.44583333333333,69.0,93.0
207,96.578125,96.65,69.0,80.0
208,96.703125,96.81458333333333,69.0,83.0
209,96.953125,97.04479166666667,67.0,95.0
210,97.203125,97.46145833333333,71.0,93.0
211,97.703125,97.88645833333334,69.0,102.0
212,98.203125,98.31145833333333,62.0,87.0
213,98.453125,98.57291666666667,59.0,80.0
214,98.703125,98.80625,62.0,87.0
215,98.953125,99.08229166666666,64.0,83.0
216,99.203125,99.50625,64.0,87.0
217,100.203125,100.34375,64.0,95.0
218,100.578125,100.6375,64.0,90.0
219,100.703125,100.80416666666666,64.0,85.0
220,100.953125,101.05416666666666,64.0,93.0
221,101.203125,101.38645833333334,71.0,85.0
222,101.703125,101.89791666666666,71.0,95.0
223,102.203125,102.32395833333334,69.0,90.0
224,102.453125,102.54375,67.0,80.0
225,102.703125,102.803125,69.0,90.0
226,102.953125,103.07395833333334,71.0,87.0
227,103.203125,103.43333333333334,71.0,87.0
228,104.203125,104.35416666666667,64.0,102.0
229,104.578125,104.64166666666667,64.0,80.0
230,104.703125,104.81145833333333,64.0,80.0
231,104.953125,105.075,64.0,87.0
232,105.203125,105.39895833333333,69.0,103.0
233,105.703125,105.940625,69.0,93.0
234,106.203125,106.328125,67.0,87.0
235,106.453125,106.56770833333333,64.0,70.0
236,106.703125,106.796875,67.0,80.0
237,106.953125,107.07083333333333,69.0,85.0
238,107.203125,107.47604166666666,69.0,87.0
239,108.203125,108.32187499999999,71.0,87.0
240,108.453125,108.55520833333333,71.0,80.0
241,108.703125,108.81145833333333,71.0,83.0
242,108.953125,109.08854166666667,71.0,87.0
243,109.203125,109.51458333333333,76.0,93.0
244,109.703125,109.87604166666667,76.0,102.0
245,110.203125,110.35625,74.0,87.0
246,110.453125,110.55833333333334,71.0,93.0
247,110.703125,110.81458333333333,71.0,83.0
248,110.953125,111.06979166666666,74.0,87.0
249,111.203125,111.44895833333334,64.0,93.0
250,112.203125,112.31145833333333,69.0,80.0
251,112.453125,112.553125,69.0,80.0
252,112.703125,112.82395833333334,69.0,90.0
253,112.953125,113.046875,67.0,87.0
254,113.203125,113.49583333333334,71.0,95.0
255,113.703125,113.86041666666667,71.0,93.0
256,114.203125,114.37708333333333,62.0,67.0
257,114.703125,114.82291666666667,59.0,87.0
258,114.953125,115.078125,62.0,80.0
259,115.203125,115.43229166666667,64.0,93.0
260,132.203125,132.50208333333333,64.0,102.0
261,132.703125,132.81041666666667,67.0,83.0
262,132.953125,133.04166666666666,64.0,69.0
263,133.203125,133.52708333333334,71.0,93.0
264,133.703125,133.875,71.0,93.0
265,134.203125,134.45208333333332,67.0,74.0
266,134.703125,134.81354166666665,64.0,93.0
267,134.953125,135.078125,62.0,80.0
268,135.203125,135.53541666666666,64.0,87.0
269,136.203125,136.428125,67.0,93.0
270,136.578125,136.64166666666665,67.0,74.0
271,136.703125,136.80104166666666,64.0,80.0
272,136.953125,137.06145833333332,62.0,93.0
273,137.203125,137.41145833333334,67.0,87.0
274,137.578125,137.67395833333333,67.0,72.0
275,137.703125,137.80520833333333,64.0,93.0
276,137.953125,138.06458333333333,62.0,87.0
277,138.203125,138.51666666666665,67.0,69.0
278,138.578125,138.70104166666667,67.0,100.0
279,138.703125,138.84270833333332,69.0,87.0
280,138.953125,139.08229166666666,71.0,87.0
281,139.203125,139.46770833333332,71.0,83.0
282,140.203125,140.59791666666666,71.0,95.0
283,140.703125,141.04895833333333,74.0,93.0
284,141.203125,141.53020833333332,72.0,80.0
285,141.703125,142.009375,72.0,80.0
286,142.203125,142.340625,71.0,87.0
287,142.453125,142.590625,71.0,87.0
288,142.703125,142.85104166666667,71.0,87.0
289,142.953125,143.05416666666667,69.0,87.0
290,143.203125,143.484375,67.0,80.0
291,144.203125,144.40104166666666,69.0,93.0
292,144.578125,144.63020833333334,69.0,72.0
293,144.703125,144.81145833333332,69.0,87.0
294,144.953125,145.05833333333334,67.0,80.0
295,145.203125,145.31145833333332,69.0,87.0
296,145.453125,145.55833333333334,71.0,83.0
297,145.703125,145.82708333333332,69.0,87.0
298,146.203125,146.30520833333333,62.0,80.0
299,146.453125,146.56145833333332,59.0,80.0
300,146.703125,146.81458333333333,62.0,70.0
301,146.953125,147.08229166666666,64.0,83.0
302,147.203125,147.41041666666666,64.0,93.0
303,148.203125,148.34375,64.0,95.0
304,148.578125,148.6375,64.0,90.0
305,148.703125,148.80416666666667,64.0,85.0
306,148.953125,149.05416666666667,64.0,93.0
307,149.203125,149.38645833333334,71.0,85.0
308,149.703125,149.89791666666667,71.0,95.0
309,150.203125,150.32395833333334,69.0,90.0
310,150.453125,150.54375,67.0,80.0
311,150.703125,150.803125,69.0,90.0
312,150.953125,151.07395833333334,71.0,87.0
313,151.203125,151.43333333333334,71.0,87.0
314,152.203125,152.35416666666666,64.0,102.0
315,152.578125,152.64166666666665,64.0,80.0
316,152.703125,152.81145833333332,64.0,80.0
317,152.953125,153.075,64.0,87.0
318,153.203125,153.39895833333333,69.0,103.0
319,153.703125,153.940625,69.0,93.0
320,154.203125,154.328125,67.0,87.0
321,154.453125,154.56770833333334,64.0,70.0
322,154.703125,154.796875,67.0,80.0
323,154.953125,155.07083333333333,69.0,85.0
324,155.203125,155.47604166666667,69.0,87.0
325,156.203125,156.321875,71.0,87.0
326,156.453125,156.55520833333333,71.0,80.0
327,156.703125,156.81145833333332,71.0,83.0
328,156.953125,157.08854166666666,71.0,87.0
329,157.203125,157.51458333333332,76.0,93.0
330,157.703125,157.87604166666665,76.0,102.0
331,158.203125,158.35625,74.0,87.0
332,158.453125,158.55833333333334,71.0,93.0
333,158.703125,158.81458333333333,71.0,83.0
334,158.953125,159.06979166666667,74.0,87.0
335,159.203125,159.44895833333334,64.0,93.0
336,160.203125,160.31145833333332,69.0,80.0
337,160.453125,160.553125,69.0,80.0
338,160.703125,160.82395833333334,69.0,90.0
339,160.953125,161.046875,67.0,87.0
340,161.203125,161.49583333333334,71.0,95.0
341,161.703125,161.86041666666665,71.0,93.0
342,162.203125,162.37708333333333,62.0,67.0
343,162.703125,162.82291666666666,59.0,87.0
344,162.953125,163.078125,62.0,80.0
345,163.203125,163.43229166666666,64.0,93.0
346,164.203125,164.3,64.0,105.0
347,164.578125,164.665625,64.0,87.0
348,164.703125,164.80833333333334,64.0,80.0
349,164.953125,165.05520833333333,64.0,95.0
350,165.203125,165.43125,71.0,93.0
351,165.703125,166.02083333333334,71.0,87.0
352,166.203125,166.36458333333334,69.0,93.0
353,166.453125,166.55520833333333,67.0,80.0
354,166.703125,166.81770833333334,69.0,93.0
355,166.953125,167.09791666666666,71.0,87.0
356,167.203125,167.40729166666665,71.0,93.0
357,168.203125,168.32395833333334,64.0,93.0
358,168.578125,168.64166666666665,64.0,80.0
359,168.703125,168.803125,64.0,74.0
360,168.953125,169.05833333333334,64.0,87.0
361,169.203125,169.35625,69.0,102.0
362,169.703125,169.85416666666666,69.0,90.0
363,170.203125,170.31354166666665,67.0,85.0
364,170.453125,170.55729166666666,64.0,85.0
365,170.703125,170.803125,67.0,83.0
366,170.953125,171.07083333333333,69.0,87.0
367,171.203125,171.39270833333333,69.0,93.0
368,172.203125,172.265625,71.0,69.0
369,172.453125,172.559375,71.0,93.0
370,172.703125,172.809375,71.0,95.0
371,172.953125,173.07916666666665,71.0,95.0
372,173.203125,173.475,76.0,95.0
373,173.703125,173.88958333333332,76.0,95.0
374,174.203125,174.34270833333332,74.0,66.0
375,174.453125,174.56145833333332,71.0,80.0
376,174.703125,174.81145833333332,71.0,93.0
377,174.953125,175.053125,74.0,105.0
378,175.203125,175.68854166666665,64.0,103.0
379,176.203125,176.44583333333333,69.0,93.0
380,176.578125,176.65,69.0,80.0
381,176.703125,176.81458333333333,69.0,83.0
382,176.953125,177.04479166666667,67.0,95.0
383,177.203125,177.46145833333333,71.0,93.0
384,177.703125,177.88645833333334,71.0,102.0
385,178.203125,178.31145833333332,62.0,87.0
386,178.578125,178.69791666666666,59.0,80.0
387,178.953125,179.05625,62.0,87.0
388,179.203125,179.82604166666667,64.0,87.0
389,180.203125,180.44583333333333,69.0,93.0
390,180.578125,180.65,69.0,80.0
391,180.703125,180.81458333333333,69.0,83.0
392,180.953125,181.04479166666667,67.0,95.0
393,181.203125,181.46145833333333,71.0,93.0
394,181.703125,181.88645833333334,71.0,102.0
395,182.203125,182.31145833333332,74.0,87.0
396,182.578125,182.69791666666666,71.0,80.0
397,182.953125,183.05625,74.0,87.0
398,183.203125,184.70104166666667,76.0,87.0
