,start,end,pitch,velocity
0,0.203125,0.6885416666666666,66.0,65.0
1,0.203125,0.6916666666666667,59.0,66.0
2,0.953125,1.05,66.0,85.0
3,0.953125,1.0583333333333333,59.0,93.0
4,1.453125,1.53125,66.0,50.0
5,1.453125,1.5375,59.0,68.0
6,0.703125,1.9083333333333332,54.0,44.0
7,0.203125,1.9552083333333332,47.0,83.0
8,2.203125,2.3354166666666667,66.0,60.0
9,2.203125,2.3739583333333334,71.0,74.0
10,2.203125,2.377083333333333,59.0,68.0
11,2.578125,2.658333333333333,59.0,63.0
12,2.578125,2.6614583333333335,66.0,54.0
13,2.953125,3.136458333333333,59.0,69.0
14,2.953125,3.1458333333333335,66.0,67.0
15,2.703125,3.490625,54.0,47.0
16,3.453125,3.6125,59.0,68.0
17,3.453125,3.6635416666666667,66.0,64.0
18,3.703125,3.9760416666666667,54.0,56.0
19,2.203125,4.017708333333333,47.0,74.0
20,3.953125,4.058333333333334,66.0,51.0
21,3.953125,4.064583333333333,59.0,70.0
22,3.953125,4.0875,71.0,63.0
23,4.203125,4.451041666666667,69.0,95.0
24,4.203125,4.466666666666667,66.0,72.0
25,4.203125,4.484375,62.0,80.0
26,4.703125,4.817708333333333,66.0,70.0
27,4.703125,4.823958333333334,62.0,87.0
28,4.703125,4.85625,74.0,93.0
29,5.453125,5.540625,66.0,80.0
30,5.453125,5.55,62.0,87.0
31,5.453125,5.565625,69.0,93.0
32,4.203125,5.755208333333333,50.0,87.0
33,5.203125,5.777083333333334,57.0,41.0
34,5.703125,5.788541666666666,62.0,87.0
35,5.703125,5.791666666666667,66.0,72.0
36,5.703125,5.810416666666667,69.0,87.0
37,6.203125,6.576041666666667,62.0,71.0
38,6.203125,6.58125,69.0,87.0
39,6.703125,6.8,62.0,102.0
40,6.703125,6.809375,69.0,95.0
41,7.453125,7.54375,62.0,74.0
42,7.453125,7.564583333333333,74.0,93.0
43,7.953125,8.053125,62.0,87.0
44,6.203125,8.070833333333333,50.0,87.0
45,6.953125,8.083333333333334,57.0,68.0
46,8.203125,8.533333333333333,69.0,93.0
47,8.203125,8.544791666666667,62.0,80.0
48,8.703125,8.809375,66.0,80.0
49,8.703125,8.851041666666667,62.0,90.0
50,8.703125,8.85625,69.0,102.0
51,9.453125,9.526041666666666,66.0,63.0
52,9.453125,9.541666666666666,62.0,72.0
53,9.453125,9.555208333333333,69.0,93.0
54,9.703125,9.772916666666667,66.0,74.0
55,9.703125,9.7875,62.0,80.0
56,9.703125,9.801041666666666,69.0,93.0
57,9.953125,9.979166666666666,62.0,37.0
58,9.203125,9.98125,57.0,61.0
59,8.203125,10.03125,50.0,93.0
60,10.203125,10.383333333333333,55.0,70.0
61,10.203125,10.402083333333334,43.0,95.0
62,10.453125,10.53125,47.0,70.0
63,10.453125,10.540625,59.0,87.0
64,10.703125,10.794791666666667,50.0,93.0
65,10.703125,10.821875,62.0,90.0
66,10.953125,11.4875,64.0,95.0
67,10.953125,11.69375,52.0,95.0
68,11.703125,11.8,59.0,80.0
69,11.703125,11.85,64.0,102.0
70,11.953125,12.071875,59.0,74.0
71,12.203125,12.451041666666667,69.0,95.0
72,12.203125,12.466666666666667,66.0,72.0
73,12.203125,12.484375,62.0,80.0
74,12.703125,12.817708333333334,66.0,70.0
75,12.703125,12.823958333333334,62.0,87.0
76,12.703125,12.85625,74.0,93.0
77,13.453125,13.540625,66.0,80.0
78,13.453125,13.549999999999999,62.0,87.0
79,13.453125,13.565624999999999,69.0,93.0
80,12.203125,13.755208333333334,50.0,87.0
81,13.203125,13.777083333333334,57.0,41.0
82,13.703125,13.788541666666667,62.0,87.0
83,13.703125,13.791666666666666,66.0,72.0
84,13.703125,13.810416666666667,69.0,87.0
85,14.203125,14.576041666666667,62.0,71.0
86,14.203125,14.581249999999999,69.0,87.0
87,14.703125,14.799999999999999,62.0,102.0
88,14.703125,14.809375,69.0,95.0
89,15.453125,15.54375,62.0,74.0
90,15.453125,15.564583333333333,74.0,93.0
91,15.953125,16.053125,62.0,87.0
92,14.203125,16.070833333333333,50.0,87.0
93,14.953125,16.083333333333332,57.0,68.0
94,16.203125,16.53333333333333,69.0,93.0
95,16.203125,16.544791666666665,62.0,80.0
96,16.703125,16.809375,66.0,80.0
97,16.703125,16.851041666666667,62.0,90.0
98,16.703125,16.85625,69.0,102.0
99,17.453125,17.526041666666668,66.0,63.0
100,17.453125,17.541666666666668,62.0,72.0
101,17.453125,17.555208333333333,69.0,93.0
102,17.703125,17.772916666666667,66.0,74.0
103,17.703125,17.7875,62.0,80.0
104,17.703125,17.801041666666666,69.0,93.0
105,17.953125,17.979166666666668,62.0,37.0
106,17.203125,17.98125,57.0,61.0
107,16.203125,18.03125,50.0,93.0
108,18.203125,18.383333333333333,55.0,70.0
109,18.203125,18.402083333333334,43.0,95.0
110,18.453125,18.53125,47.0,70.0
111,18.453125,18.540625,59.0,87.0
112,18.703125,18.794791666666665,50.0,93.0
113,18.703125,18.821875,62.0,90.0
114,18.953125,19.4875,64.0,95.0
115,18.953125,19.69375,52.0,95.0
116,19.703125,19.8,59.0,80.0
117,19.703125,19.85,64.0,102.0
118,19.953125,20.071875,59.0,74.0
119,20.203125,20.516666666666666,67.0,83.0
120,20.203125,20.534375,59.0,74.0
121,20.703125,20.808333333333334,64.0,95.0
122,20.703125,20.81458333333333,59.0,80.0
123,21.078125,21.148958333333333,64.0,74.0
124,21.078125,21.159375,59.0,66.0
125,21.453125,21.540625,64.0,90.0
126,21.453125,21.55,59.0,80.0
127,21.453125,21.582291666666666,67.0,93.0
128,20.203125,21.959375,52.0,102.0
129,21.953125,22.019791666666666,64.0,80.0
130,21.953125,22.035416666666666,67.0,74.0
131,21.953125,22.04895833333333,59.0,72.0
132,22.203125,22.525,57.0,74.0
133,22.203125,22.525,62.0,85.0
134,22.703125,22.838541666666668,57.0,95.0
135,22.703125,22.840625,62.0,102.0
136,22.203125,22.859375,50.0,80.0
137,23.078125,23.154166666666665,57.0,80.0
138,23.078125,23.165625,62.0,87.0
139,23.453125,23.64375,59.0,80.0
140,23.453125,23.652083333333334,64.0,93.0
141,23.953125,24.038541666666667,59.0,72.0
142,23.203125,24.057291666666668,52.0,87.0
143,23.953125,24.0625,67.0,90.0
144,24.203125,24.535416666666666,59.0,85.0
145,24.203125,24.547916666666666,64.0,102.0
146,24.703125,24.894791666666666,59.0,80.0
147,24.703125,24.929166666666667,64.0,102.0
148,24.203125,25.0625,52.0,83.0
149,25.078125,25.132291666666667,64.0,70.0
150,25.078125,25.15625,59.0,68.0
151,25.203125,25.313541666666666,69.0,87.0
152,25.203125,25.322916666666668,64.0,80.0
153,25.453125,25.628125,69.0,93.0
154,25.453125,25.639583333333334,64.0,83.0
155,25.203125,25.895833333333332,45.0,85.0
156,25.953125,26.022916666666667,69.0,83.0
157,25.953125,26.034375,72.0,80.0
158,25.953125,26.05,64.0,72.0
159,26.203125,26.53125,67.0,80.0
160,26.203125,26.538541666666667,64.0,74.0
161,26.703125,26.846875,64.0,93.0
162,26.703125,26.846875,67.0,103.0
163,26.203125,26.873958333333334,52.0,85.0
164,27.078125,27.202083333333334,64.0,70.0
165,27.078125,27.216666666666665,67.0,71.0
166,27.453125,27.579166666666666,64.0,80.0
167,27.453125,27.596875,69.0,87.0
168,27.953125,28.067708333333332,64.0,87.0
169,27.953125,28.070833333333333,69.0,102.0
170,27.203125,28.071875,45.0,87.0
171,28.203125,28.51875,64.0,83.0
172,28.203125,28.523958333333333,67.0,80.0
173,28.203125,28.525,59.0,70.0
174,28.703125,28.8625,64.0,102.0
175,28.703125,28.86875,59.0,83.0
176,28.703125,28.886458333333334,67.0,95.0
177,29.078125,29.179166666666667,59.0,59.0
178,29.078125,29.185416666666665,64.0,74.0
179,29.078125,29.2,67.0,69.0
180,29.453125,29.601041666666667,64.0,80.0
181,29.453125,29.60625,59.0,70.0
182,28.203125,29.621875,52.0,87.0
183,29.453125,29.633333333333333,67.0,80.0
184,29.953125,30.030208333333334,64.0,68.0
185,29.953125,30.05625,59.0,58.0
186,30.203125,30.541666666666668,62.0,95.0
187,30.203125,30.55,59.0,87.0
188,30.203125,30.771874999999998,47.0,71.0
189,30.703125,30.811458333333334,62.0,103.0
190,30.703125,30.859375,59.0,87.0
191,30.703125,30.889583333333334,66.0,93.0
192,31.078125,31.175,62.0,90.0
193,31.078125,31.18958333333333,59.0,74.0
194,31.453125,31.662499999999998,59.0,80.0
195,31.453125,31.715625,64.0,90.0
196,31.203125,32.00208333333333,52.0,93.0
197,31.953125,32.026041666666664,64.0,80.0
198,31.953125,32.04375,67.0,74.0
199,31.953125,32.05520833333333,59.0,74.0
200,32.203125,32.563541666666666,60.0,74.0
201,32.203125,32.56458333333333,57.0,69.0
202,32.703125,32.934375,57.0,93.0
203,32.703125,32.94375,60.0,102.0
204,32.203125,33.08125,45.0,80.0
205,33.078125,33.135416666666664,57.0,74.0
206,33.078125,33.14791666666667,60.0,93.0
207,33.203125,33.49375,59.0,72.0
208,33.203125,33.515625,62.0,95.0
209,33.203125,33.608333333333334,47.0,80.0
210,33.703125,33.996875,57.0,87.0
211,33.703125,33.99791666666667,60.0,83.0
212,33.703125,34.02291666666667,45.0,90.0
213,34.203125,34.541666666666664,62.0,80.0
214,34.203125,34.55416666666667,66.0,65.0
215,34.203125,34.557291666666664,59.0,66.0
216,34.703125,34.84791666666666,62.0,102.0
217,34.703125,34.86875,59.0,83.0
218,34.703125,34.880208333333336,66.0,93.0
219,34.203125,34.91041666666666,47.0,72.0
220,35.078125,35.171875,66.0,65.0
221,35.078125,35.203125,62.0,87.0
222,35.078125,35.20729166666666,59.0,69.0
223,35.453125,35.771875,64.0,80.0
224,35.453125,35.790625,59.0,69.0
225,35.453125,35.79375,67.0,74.0
226,35.953125,36.077083333333334,59.0,71.0
227,35.953125,36.077083333333334,64.0,87.0
228,35.203125,36.09166666666667,52.0,87.0
229,35.953125,36.09791666666666,67.0,80.0
230,36.203125,36.516666666666666,67.0,83.0
231,36.203125,36.534375,59.0,74.0
232,36.703125,36.80833333333333,64.0,95.0
233,36.703125,36.81458333333333,59.0,80.0
234,37.078125,37.14895833333333,64.0,74.0
235,37.078125,37.159375,59.0,66.0
236,37.453125,37.540625,64.0,90.0
237,37.453125,37.55,59.0,80.0
238,37.453125,37.58229166666666,67.0,93.0
239,36.203125,37.959375,52.0,102.0
240,37.953125,38.01979166666666,64.0,80.0
241,37.953125,38.03541666666666,67.0,74.0
242,37.953125,38.04895833333333,59.0,72.0
243,38.203125,38.525,57.0,74.0
244,38.203125,38.525,62.0,85.0
245,38.703125,38.838541666666664,57.0,95.0
246,38.703125,38.840625,62.0,102.0
247,38.203125,38.859375,50.0,80.0
248,39.078125,39.15416666666667,57.0,80.0
249,39.078125,39.165625,62.0,87.0
250,39.453125,39.64375,59.0,80.0
251,39.453125,39.65208333333333,64.0,93.0
252,39.953125,40.03854166666667,59.0,72.0
253,39.203125,40.057291666666664,52.0,87.0
254,39.953125,40.0625,67.0,90.0
255,40.203125,40.53541666666666,59.0,85.0
256,40.203125,40.547916666666666,64.0,102.0
257,40.703125,40.89479166666666,59.0,80.0
258,40.703125,40.92916666666667,64.0,102.0
259,40.203125,41.0625,52.0,83.0
260,41.078125,41.13229166666667,64.0,70.0
261,41.078125,41.15625,59.0,68.0
262,41.203125,41.313541666666666,69.0,87.0
263,41.203125,41.322916666666664,64.0,80.0
264,41.453125,41.628125,69.0,93.0
265,41.453125,41.639583333333334,64.0,83.0
266,41.203125,41.895833333333336,45.0,85.0
267,41.953125,42.02291666666667,69.0,83.0
268,41.953125,42.034375,72.0,80.0
269,41.953125,42.05,64.0,72.0
270,42.203125,42.53125,67.0,80.0
271,42.203125,42.53854166666667,64.0,74.0
272,42.703125,42.846875,64.0,93.0
273,42.703125,42.846875,67.0,103.0
274,42.203125,42.873958333333334,52.0,85.0
275,43.078125,43.202083333333334,64.0,70.0
276,43.078125,43.21666666666667,67.0,71.0
277,43.453125,43.579166666666666,64.0,80.0
278,43.453125,43.596875,69.0,87.0
279,43.953125,44.067708333333336,64.0,87.0
280,43.953125,44.07083333333333,69.0,102.0
281,43.203125,44.071875,45.0,87.0
282,44.203125,44.51875,64.0,83.0
283,44.203125,44.52395833333333,67.0,80.0
284,44.203125,44.525,59.0,70.0
285,44.703125,44.8625,64.0,102.0
286,44.703125,44.86875,59.0,83.0
287,44.703125,44.88645833333333,67.0,95.0
288,45.078125,45.17916666666667,59.0,59.0
289,45.078125,45.18541666666667,64.0,74.0
290,45.078125,45.2,67.0,69.0
291,45.453125,45.60104166666667,64.0,80.0
292,45.453125,45.60625,59.0,70.0
293,44.203125,45.621875,52.0,87.0
294,45.453125,45.63333333333333,67.0,80.0
295,45.953125,46.030208333333334,64.0,68.0
296,45.953125,46.05625,59.0,58.0
297,46.203125,46.541666666666664,62.0,95.0
298,46.203125,46.55,59.0,87.0
299,46.203125,46.771875,47.0,71.0
300,46.703125,46.811458333333334,62.0,103.0
301,46.703125,46.859375,59.0,87.0
302,46.703125,46.889583333333334,66.0,93.0
303,47.078125,47.175,62.0,90.0
304,47.078125,47.18958333333333,59.0,74.0
305,47.453125,47.6625,59.0,80.0
306,47.453125,47.715625,64.0,90.0
307,47.203125,48.00208333333333,52.0,93.0
308,47.953125,48.026041666666664,64.0,80.0
309,47.953125,48.04375,67.0,74.0
310,47.953125,48.05520833333333,59.0,74.0
311,48.203125,48.563541666666666,60.0,74.0
312,48.203125,48.56458333333333,57.0,69.0
313,48.703125,48.934375,57.0,93.0
314,48.703125,48.94375,60.0,102.0
315,48.203125,49.08125,45.0,80.0
316,49.078125,49.135416666666664,57.0,74.0
317,49.078125,49.14791666666667,60.0,93.0
318,49.203125,49.49375,59.0,72.0
319,49.203125,49.515625,62.0,95.0
320,49.203125,49.608333333333334,47.0,80.0
321,49.703125,49.996875,57.0,87.0
322,49.703125,49.99791666666667,60.0,83.0
323,49.703125,50.02291666666667,45.0,90.0
324,50.203125,50.541666666666664,62.0,80.0
325,50.203125,50.55416666666667,66.0,65.0
326,50.203125,50.557291666666664,59.0,66.0
327,50.703125,50.84791666666666,62.0,102.0
328,50.703125,50.86875,59.0,83.0
329,50.703125,50.880208333333336,66.0,93.0
330,50.203125,50.91041666666666,47.0,72.0
331,51.078125,51.171875,66.0,65.0
332,51.078125,51.203125,62.0,87.0
333,51.078125,51.20729166666666,59.0,69.0
334,51.453125,51.771875,64.0,80.0
335,51.453125,51.790625,59.0,69.0
336,51.453125,51.793749999999996,67.0,74.0
337,51.953125,52.077083333333334,59.0,71.0
338,51.953125,52.077083333333334,64.0,87.0
339,51.203125,52.09166666666667,52.0,87.0
340,51.953125,52.09791666666666,67.0,80.0
341,52.203125,52.520833333333336,64.0,83.0
342,52.203125,52.52291666666667,59.0,70.0
343,52.703125,52.784375,59.0,85.0
344,52.703125,52.813541666666666,67.0,102.0
345,53.203125,53.27916666666667,59.0,74.0
346,53.453125,53.61770833333333,59.0,85.0
347,53.453125,53.651041666666664,64.0,105.0
348,52.203125,53.75416666666666,40.0,80.0
349,54.203125,54.56041666666667,57.0,87.0
350,54.203125,54.56979166666667,62.0,80.0
351,54.703125,54.7875,57.0,87.0
352,54.203125,54.969791666666666,50.0,80.0
353,54.703125,55.015625,62.0,95.0
354,54.953125,55.05,57.0,66.0
355,55.203125,55.3375,59.0,80.0
356,55.203125,55.521875,64.0,70.0
357,55.453125,55.579166666666666,59.0,69.0
358,55.703125,55.815625,59.0,85.0
359,55.703125,55.890625,64.0,93.0
360,55.203125,55.94583333333333,52.0,80.0
361,55.703125,56.015625,67.0,80.0
362,55.953125,56.121874999999996,59.0,66.0
363,56.203125,56.57604166666667,55.0,70.0
364,56.203125,56.598958333333336,62.0,59.0
365,56.703125,56.79895833333333,62.0,68.0
366,56.703125,56.80625,55.0,72.0
367,56.953125,57.106249999999996,62.0,103.0
368,56.953125,57.145833333333336,55.0,87.0
369,57.453125,57.55104166666666,55.0,90.0
370,57.453125,57.563541666666666,59.0,93.0
371,57.453125,57.609375,62.0,95.0
372,56.203125,57.827083333333334,43.0,85.0
373,57.203125,57.83229166666666,50.0,56.0
374,57.703125,57.838541666666664,55.0,87.0
375,57.953125,58.034375,59.0,87.0
376,58.203125,58.530208333333334,59.0,69.0
377,58.203125,58.565625,64.0,95.0
378,58.703125,58.780208333333334,59.0,72.0
379,58.203125,58.78541666666666,52.0,93.0
380,58.703125,58.85104166666667,64.0,93.0
381,58.953125,59.07395833333333,59.0,63.0
382,59.203125,59.41979166666667,59.0,72.0
383,59.203125,59.50729166666667,62.0,87.0
384,59.453125,59.76354166666667,54.0,59.0
385,59.703125,59.80416666666667,59.0,74.0
386,59.703125,59.827083333333334,62.0,93.0
387,59.203125,60.01145833333333,47.0,59.0
388,59.703125,60.043749999999996,66.0,80.0
389,59.953125,60.067708333333336,59.0,67.0
390,60.203125,60.44895833333333,59.0,74.0
391,60.203125,60.48854166666666,62.0,83.0
392,60.453125,60.6875,54.0,45.0
393,60.203125,60.77291666666667,47.0,69.0
394,60.703125,60.79270833333333,59.0,70.0
395,60.703125,60.952083333333334,62.0,74.0
396,60.953125,61.05,59.0,65.0
397,61.203125,61.50625,57.0,80.0
398,61.203125,61.536458333333336,60.0,90.0
399,61.703125,61.817708333333336,57.0,93.0
400,61.453125,62.012499999999996,52.0,68.0
401,61.703125,62.012499999999996,60.0,93.0
402,61.203125,62.061458333333334,45.0,74.0
403,61.953125,62.07083333333333,57.0,69.0
404,62.203125,62.530208333333334,55.0,85.0
405,62.203125,62.53333333333333,59.0,90.0
406,62.703125,62.80520833333333,55.0,87.0
407,62.703125,62.822916666666664,59.0,93.0
408,62.703125,62.83958333333333,62.0,90.0
409,62.953125,63.240625,55.0,90.0
410,62.953125,63.253125,59.0,93.0
411,62.953125,63.253125,62.0,93.0
412,63.453125,63.55520833333333,55.0,72.0
413,62.203125,63.793749999999996,43.0,93.0
414,63.703125,63.811458333333334,55.0,93.0
415,63.703125,63.817708333333336,59.0,102.0
416,63.203125,63.829166666666666,50.0,59.0
417,63.703125,63.84583333333333,62.0,95.0
418,64.203125,64.50520833333333,57.0,74.0
419,64.203125,64.52083333333333,60.0,83.0
420,64.703125,64.81458333333333,57.0,93.0
421,64.703125,64.88958333333333,60.0,95.0
422,64.953125,64.98020833333334,60.0,15.0
423,64.453125,64.98125,52.0,47.0
424,64.203125,64.9875,45.0,80.0
425,64.953125,65.040625,57.0,71.0
426,64.703125,65.05,64.0,102.0
427,65.203125,65.43229166666667,62.0,102.0
428,65.203125,65.465625,59.0,83.0
429,65.203125,65.525,47.0,80.0
430,65.703125,65.88854166666667,57.0,83.0
431,65.703125,65.903125,60.0,87.0
432,65.703125,65.984375,45.0,80.0
433,66.203125,66.534375,59.0,80.0
434,66.203125,66.56666666666666,62.0,87.0
435,66.703125,66.80833333333334,59.0,80.0
436,66.703125,66.84479166666667,62.0,90.0
437,66.203125,66.98854166666666,47.0,90.0
438,66.703125,67.02083333333333,66.0,87.0
439,66.953125,67.034375,62.0,44.0
440,66.953125,67.071875,59.0,80.0
441,67.203125,67.315625,59.0,69.0
442,67.203125,67.51458333333333,64.0,80.0
443,67.453125,67.55833333333334,59.0,74.0
444,67.703125,67.80416666666666,59.0,87.0
445,67.703125,68.01666666666667,67.0,87.0
446,67.703125,68.02395833333333,64.0,102.0
447,67.953125,68.06875,59.0,66.0
448,67.203125,68.1125,52.0,85.0
449,68.203125,68.52083333333333,64.0,83.0
450,68.203125,68.52291666666666,59.0,70.0
451,68.703125,68.784375,59.0,85.0
452,68.703125,68.81354166666667,67.0,102.0
453,69.203125,69.27916666666667,59.0,74.0
454,69.453125,69.61770833333333,59.0,85.0
455,69.453125,69.65104166666667,64.0,105.0
456,68.203125,69.75416666666666,40.0,80.0
457,70.203125,70.56041666666667,57.0,87.0
458,70.203125,70.56979166666666,62.0,80.0
459,70.703125,70.7875,57.0,87.0
460,70.203125,70.96979166666667,50.0,80.0
461,70.703125,71.015625,62.0,95.0
462,70.953125,71.05,57.0,66.0
463,71.203125,71.3375,59.0,80.0
464,71.203125,71.521875,64.0,70.0
465,71.453125,71.57916666666667,59.0,69.0
466,71.703125,71.815625,59.0,85.0
467,71.703125,71.890625,64.0,93.0
468,71.203125,71.94583333333333,52.0,80.0
469,71.703125,72.015625,67.0,80.0
470,71.953125,72.121875,59.0,66.0
471,72.203125,72.57604166666667,55.0,70.0
472,72.203125,72.59895833333333,62.0,59.0
473,72.703125,72.79895833333333,62.0,68.0
474,72.703125,72.80625,55.0,72.0
475,72.953125,73.10625,62.0,103.0
476,72.953125,73.14583333333333,55.0,87.0
477,73.453125,73.55104166666666,55.0,90.0
478,73.453125,73.56354166666667,59.0,93.0
479,73.453125,73.609375,62.0,95.0
480,72.203125,73.82708333333333,43.0,85.0
481,73.203125,73.83229166666666,50.0,56.0
482,73.703125,73.83854166666667,55.0,87.0
483,73.953125,74.034375,59.0,87.0
484,74.203125,74.53020833333333,59.0,69.0
485,74.203125,74.565625,64.0,95.0
486,74.703125,74.78020833333333,59.0,72.0
487,74.203125,74.78541666666666,52.0,93.0
488,74.703125,74.85104166666666,64.0,93.0
489,74.953125,75.07395833333334,59.0,63.0
490,75.203125,75.41979166666667,59.0,72.0
491,75.203125,75.50729166666666,62.0,87.0
492,75.453125,75.76354166666667,54.0,59.0
493,75.703125,75.80416666666666,59.0,74.0
494,75.703125,75.82708333333333,62.0,93.0
495,75.203125,76.01145833333334,47.0,59.0
496,75.703125,76.04375,66.0,80.0
497,75.953125,76.06770833333333,59.0,67.0
498,76.203125,76.44895833333334,59.0,74.0
499,76.203125,76.48854166666666,62.0,83.0
500,76.453125,76.6875,54.0,45.0
501,76.203125,76.77291666666666,47.0,69.0
502,76.703125,76.79270833333334,59.0,70.0
503,76.703125,76.95208333333333,62.0,74.0
504,76.953125,77.05,59.0,65.0
505,77.203125,77.50625,57.0,80.0
506,77.203125,77.53645833333333,60.0,90.0
507,77.703125,77.81770833333333,57.0,93.0
508,77.453125,78.0125,52.0,68.0
509,77.703125,78.0125,60.0,93.0
510,77.203125,78.06145833333333,45.0,74.0
511,77.953125,78.07083333333333,57.0,69.0
512,78.203125,78.53020833333333,55.0,85.0
513,78.203125,78.53333333333333,59.0,90.0
514,78.703125,78.80520833333333,55.0,87.0
515,78.703125,78.82291666666667,59.0,93.0
516,78.703125,78.83958333333334,62.0,90.0
517,78.953125,79.240625,55.0,90.0
518,78.953125,79.253125,59.0,93.0
519,78.953125,79.253125,62.0,93.0
520,79.453125,79.55520833333333,55.0,72.0
521,78.203125,79.79375,43.0,93.0
522,79.703125,79.81145833333333,55.0,93.0
523,79.703125,79.81770833333333,59.0,102.0
524,79.203125,79.82916666666667,50.0,59.0
525,79.703125,79.84583333333333,62.0,95.0
526,80.203125,80.50520833333333,57.0,74.0
527,80.203125,80.52083333333333,60.0,83.0
528,80.703125,80.81458333333333,57.0,93.0
529,80.703125,80.88958333333333,60.0,95.0
530,80.953125,80.98020833333334,60.0,15.0
531,80.453125,80.98125,52.0,47.0
532,80.203125,80.9875,45.0,80.0
533,80.953125,81.040625,57.0,71.0
534,80.703125,81.05,64.0,102.0
535,81.203125,81.43229166666667,62.0,102.0
536,81.203125,81.465625,59.0,83.0
537,81.203125,81.525,47.0,80.0
538,81.703125,81.88854166666667,57.0,83.0
539,81.703125,81.903125,60.0,87.0
540,81.703125,81.984375,45.0,80.0
541,82.203125,82.534375,59.0,80.0
542,82.203125,82.56666666666666,62.0,87.0
543,82.703125,82.80833333333334,59.0,80.0
544,82.703125,82.84479166666667,62.0,90.0
545,82.203125,82.98854166666666,47.0,90.0
546,82.703125,83.02083333333333,66.0,87.0
547,82.953125,83.034375,62.0,44.0
548,82.953125,83.071875,59.0,80.0
549,83.203125,83.315625,59.0,69.0
550,83.203125,83.51458333333333,64.0,80.0
551,83.453125,83.55833333333334,59.0,74.0
552,83.703125,83.80416666666666,59.0,87.0
553,83.703125,84.01666666666667,67.0,87.0
554,83.703125,84.02395833333333,64.0,102.0
555,83.953125,84.06875,59.0,66.0
556,83.203125,84.1125,52.0,85.0
557,84.203125,84.51666666666667,67.0,83.0
558,84.203125,84.534375,59.0,74.0
559,84.703125,84.80833333333334,64.0,95.0
560,84.703125,84.81458333333333,59.0,80.0
561,85.078125,85.14895833333333,64.0,74.0
562,85.078125,85.159375,59.0,66.0
563,85.453125,85.540625,64.0,90.0
564,85.453125,85.55,59.0,80.0
565,85.453125,85.58229166666666,67.0,93.0
566,84.203125,85.959375,52.0,102.0
567,85.953125,86.01979166666666,64.0,80.0
568,85.953125,86.03541666666666,67.0,74.0
569,85.953125,86.04895833333333,59.0,72.0
570,86.203125,86.525,57.0,74.0
571,86.203125,86.525,62.0,85.0
572,86.703125,86.83854166666667,57.0,95.0
573,86.703125,86.840625,62.0,102.0
574,86.203125,86.859375,50.0,80.0
575,87.078125,87.15416666666667,57.0,80.0
576,87.078125,87.165625,62.0,87.0
577,87.453125,87.64375,59.0,80.0
578,87.453125,87.65208333333334,64.0,93.0
579,87.953125,88.03854166666666,59.0,72.0
580,87.203125,88.05729166666667,52.0,87.0
581,87.953125,88.0625,67.0,90.0
582,88.203125,88.53541666666666,59.0,85.0
583,88.203125,88.54791666666667,64.0,102.0
584,88.703125,88.89479166666666,59.0,80.0
585,88.703125,88.92916666666666,64.0,102.0
586,88.203125,89.0625,52.0,83.0
587,89.078125,89.13229166666666,64.0,70.0
588,89.078125,89.15625,59.0,68.0
589,89.203125,89.31354166666667,69.0,87.0
590,89.203125,89.32291666666667,64.0,80.0
591,89.453125,89.628125,69.0,93.0
592,89.453125,89.63958333333333,64.0,83.0
593,89.203125,89.89583333333333,45.0,85.0
594,89.953125,90.02291666666666,69.0,83.0
595,89.953125,90.034375,72.0,80.0
596,89.953125,90.05,64.0,72.0
597,90.203125,90.53125,67.0,80.0
598,90.203125,90.53854166666666,64.0,74.0
599,90.703125,90.846875,64.0,93.0
600,90.703125,90.846875,67.0,103.0
601,90.203125,90.87395833333333,52.0,85.0
602,91.078125,91.20208333333333,64.0,70.0
603,91.078125,91.21666666666667,67.0,71.0
604,91.453125,91.57916666666667,64.0,80.0
605,91.453125,91.596875,69.0,87.0
606,91.953125,92.06770833333333,64.0,87.0
607,91.953125,92.07083333333333,69.0,102.0
608,91.203125,92.071875,45.0,87.0
609,92.203125,92.51875,64.0,83.0
610,92.203125,92.52395833333333,67.0,80.0
611,92.203125,92.525,59.0,70.0
612,92.703125,92.8625,64.0,102.0
613,92.703125,92.86875,59.0,83.0
614,92.703125,92.88645833333334,67.0,95.0
615,93.078125,93.17916666666666,59.0,59.0
616,93.078125,93.18541666666667,64.0,74.0
617,93.078125,93.2,67.0,69.0
618,93.453125,93.60104166666666,64.0,80.0
619,93.453125,93.60625,59.0,70.0
620,92.203125,93.621875,52.0,87.0
621,93.453125,93.63333333333333,67.0,80.0
622,93.953125,94.03020833333333,64.0,68.0
623,93.953125,94.05625,59.0,58.0
624,94.203125,94.54166666666667,62.0,95.0
625,94.203125,94.55,59.0,87.0
626,94.203125,94.771875,47.0,71.0
627,94.703125,94.81145833333333,62.0,103.0
628,94.703125,94.859375,59.0,87.0
629,94.703125,94.88958333333333,66.0,93.0
630,95.078125,95.175,62.0,90.0
631,95.078125,95.18958333333333,59.0,74.0
632,95.453125,95.6625,59.0,80.0
633,95.453125,95.715625,64.0,90.0
634,95.203125,96.00208333333333,52.0,93.0
635,95.953125,96.02604166666667,64.0,80.0
636,95.953125,96.04375,67.0,74.0
637,95.953125,96.05520833333333,59.0,74.0
638,96.203125,96.56354166666667,60.0,74.0
639,96.203125,96.56458333333333,57.0,69.0
640,96.703125,96.934375,57.0,93.0
641,96.703125,96.94375,60.0,102.0
642,96.203125,97.08125,45.0,80.0
643,97.078125,97.13541666666667,57.0,74.0
644,97.078125,97.14791666666666,60.0,93.0
645,97.203125,97.49375,59.0,72.0
646,97.203125,97.515625,62.0,95.0
647,97.203125,97.60833333333333,47.0,80.0
648,97.703125,97.996875,57.0,87.0
649,97.703125,97.99791666666667,60.0,83.0
650,97.703125,98.02291666666666,45.0,90.0
651,98.203125,98.54166666666667,62.0,80.0
652,98.203125,98.55416666666666,66.0,65.0
653,98.203125,98.55729166666667,59.0,66.0
654,98.703125,98.84791666666666,62.0,102.0
655,98.703125,98.86875,59.0,83.0
656,98.703125,98.88020833333333,66.0,93.0
657,98.203125,98.91041666666666,47.0,72.0
658,99.078125,99.171875,66.0,65.0
659,99.078125,99.203125,62.0,87.0
660,99.078125,99.20729166666666,59.0,69.0
661,99.453125,99.771875,64.0,80.0
662,99.453125,99.790625,59.0,69.0
663,99.453125,99.79375,67.0,74.0
664,99.953125,100.07708333333333,59.0,71.0
665,99.953125,100.07708333333333,64.0,87.0
666,99.203125,100.09166666666667,52.0,87.0
667,99.953125,100.09791666666666,67.0,80.0
668,100.203125,100.51666666666667,67.0,83.0
669,100.203125,100.534375,59.0,74.0
670,100.703125,100.80833333333334,64.0,95.0
671,100.703125,100.81458333333333,59.0,80.0
672,101.078125,101.14895833333333,64.0,74.0
673,101.078125,101.159375,59.0,66.0
674,101.453125,101.540625,64.0,90.0
675,101.453125,101.55,59.0,80.0
676,101.453125,101.58229166666666,67.0,93.0
677,100.203125,101.959375,52.0,102.0
678,101.953125,102.01979166666666,64.0,80.0
679,101.953125,102.03541666666666,67.0,74.0
680,101.953125,102.04895833333333,59.0,72.0
681,102.203125,102.52499999999999,57.0,74.0
682,102.203125,102.52499999999999,62.0,85.0
683,102.703125,102.83854166666667,57.0,95.0
684,102.703125,102.840625,62.0,102.0
685,102.203125,102.859375,50.0,80.0
686,103.078125,103.15416666666667,57.0,80.0
687,103.078125,103.16562499999999,62.0,87.0
688,103.453125,103.64375,59.0,80.0
689,103.453125,103.65208333333334,64.0,93.0
690,103.953125,104.03854166666666,59.0,72.0
691,103.203125,104.05729166666667,52.0,87.0
692,103.953125,104.0625,67.0,90.0
693,104.203125,104.53541666666666,59.0,85.0
694,104.203125,104.54791666666667,64.0,102.0
695,104.703125,104.89479166666666,59.0,80.0
696,104.703125,104.92916666666666,64.0,102.0
697,104.203125,105.0625,52.0,83.0
698,105.078125,105.13229166666666,64.0,70.0
699,105.078125,105.15625,59.0,68.0
700,105.203125,105.31354166666667,69.0,87.0
701,105.203125,105.32291666666667,64.0,80.0
702,105.453125,105.628125,69.0,93.0
703,105.453125,105.63958333333333,64.0,83.0
704,105.203125,105.89583333333333,45.0,85.0
705,105.953125,106.02291666666666,69.0,83.0
706,105.953125,106.034375,72.0,80.0
707,105.953125,106.05,64.0,72.0
708,106.203125,106.53125,67.0,80.0
709,106.203125,106.53854166666666,64.0,74.0
710,106.703125,106.846875,64.0,93.0
711,106.703125,106.846875,67.0,103.0
712,106.203125,106.87395833333333,52.0,85.0
713,107.078125,107.20208333333333,64.0,70.0
714,107.078125,107.21666666666667,67.0,71.0
715,107.453125,107.57916666666667,64.0,80.0
716,107.453125,107.596875,69.0,87.0
717,107.953125,108.06770833333333,64.0,87.0
718,107.953125,108.07083333333333,69.0,102.0
719,107.203125,108.07187499999999,45.0,87.0
720,108.203125,108.51875,64.0,83.0
721,108.203125,108.52395833333333,67.0,80.0
722,108.203125,108.52499999999999,59.0,70.0
723,108.703125,108.8625,64.0,102.0
724,108.703125,108.86874999999999,59.0,83.0
725,108.703125,108.88645833333334,67.0,95.0
726,109.078125,109.17916666666666,59.0,59.0
727,109.078125,109.18541666666667,64.0,74.0
728,109.078125,109.2,67.0,69.0
729,109.453125,109.60104166666666,64.0,80.0
730,109.453125,109.60625,59.0,70.0
731,108.203125,109.621875,52.0,87.0
732,109.453125,109.63333333333333,67.0,80.0
733,109.953125,110.03020833333333,64.0,68.0
734,109.953125,110.05624999999999,59.0,58.0
735,110.203125,110.54166666666667,62.0,95.0
736,110.203125,110.55,59.0,87.0
737,110.203125,110.771875,47.0,71.0
738,110.703125,110.81145833333333,62.0,103.0
739,110.703125,110.859375,59.0,87.0
740,110.703125,110.88958333333333,66.0,93.0
741,111.078125,111.175,62.0,90.0
742,111.078125,111.18958333333333,59.0,74.0
743,111.453125,111.6625,59.0,80.0
744,111.453125,111.715625,64.0,90.0
745,111.203125,112.00208333333333,52.0,93.0
746,111.953125,112.02604166666667,64.0,80.0
747,111.953125,112.04375,67.0,74.0
748,111.953125,112.05520833333333,59.0,74.0
749,112.203125,112.56354166666667,60.0,74.0
750,112.203125,112.56458333333333,57.0,69.0
751,112.703125,112.934375,57.0,93.0
752,112.703125,112.94375,60.0,102.0
753,112.203125,113.08125,45.0,80.0
754,113.078125,113.13541666666667,57.0,74.0
755,113.078125,113.14791666666666,60.0,93.0
756,113.203125,113.49374999999999,59.0,72.0
757,113.203125,113.515625,62.0,95.0
758,113.203125,113.60833333333333,47.0,80.0
759,113.703125,113.996875,57.0,87.0
760,113.703125,113.99791666666667,60.0,83.0
761,113.703125,114.02291666666666,45.0,90.0
762,114.203125,114.54166666666667,62.0,80.0
763,114.203125,114.55416666666666,66.0,65.0
764,114.203125,114.55729166666667,59.0,66.0
765,114.703125,114.84791666666666,62.0,102.0
766,114.703125,114.86874999999999,59.0,83.0
767,114.703125,114.88020833333333,66.0,93.0
768,114.203125,114.91041666666666,47.0,72.0
769,115.078125,115.171875,66.0,65.0
770,115.078125,115.203125,62.0,87.0
771,115.078125,115.20729166666666,59.0,69.0
772,115.453125,115.771875,64.0,80.0
773,115.453125,115.79062499999999,59.0,69.0
774,115.453125,115.79375,67.0,74.0
775,115.953125,116.07708333333333,59.0,71.0
776,115.953125,116.07708333333333,64.0,87.0
777,115.203125,116.09166666666667,52.0,87.0
778,115.953125,116.09791666666666,67.0,80.0
779,116.203125,116.34166666666667,64.0,87.0
780,116.203125,116.34375,59.0,83.0
781,116.703125,116.81145833333333,59.0,90.0
782,116.703125,116.875,67.0,90.0
783,117.453125,117.52916666666667,59.0,80.0
784,117.453125,117.53854166666666,64.0,103.0
785,117.953125,117.97916666666667,64.0,59.0
786,116.203125,118.00625,40.0,74.0
787,116.203125,118.0125,52.0,68.0
788,117.953125,118.01875,59.0,69.0
789,118.203125,118.28854166666666,64.0,102.0
790,118.203125,118.296875,59.0,80.0
791,118.453125,118.49479166666667,64.0,63.0
792,118.453125,118.50729166666666,59.0,55.0
793,118.703125,118.78125,59.0,80.0
794,118.703125,118.78125,64.0,102.0
795,118.703125,118.784375,67.0,95.0
796,118.953125,119.00729166666666,59.0,60.0
797,119.453125,119.528125,59.0,87.0
798,119.453125,119.53333333333333,64.0,105.0
799,119.953125,120.02604166666667,59.0,74.0
800,118.203125,120.02708333333334,40.0,85.0
801,118.203125,120.03958333333333,52.0,93.0
802,120.203125,120.30416666666666,64.0,93.0
803,120.203125,120.32083333333333,59.0,70.0
804,120.703125,120.79375,59.0,72.0
805,120.703125,120.803125,64.0,87.0
806,120.703125,120.80833333333334,67.0,67.0
807,121.453125,121.52604166666667,67.0,41.0
808,121.453125,121.53229166666667,59.0,66.0
809,121.453125,121.5375,64.0,63.0
810,121.703125,121.74895833333333,59.0,64.0
811,121.703125,121.76041666666667,64.0,74.0
812,121.703125,121.78125,67.0,65.0
813,121.953125,121.996875,64.0,68.0
814,121.953125,122.00729166666666,67.0,65.0
815,121.953125,122.053125,59.0,60.0
816,120.203125,122.084375,40.0,70.0
817,120.203125,122.09375,52.0,72.0
818,122.203125,122.22395833333333,64.0,51.0
819,122.203125,122.28958333333333,59.0,68.0
820,122.703125,122.79062499999999,64.0,93.0
821,122.703125,122.79479166666667,59.0,80.0
822,122.703125,122.82916666666667,67.0,93.0
823,122.953125,123.01666666666667,59.0,63.0
824,123.078125,123.16041666666666,59.0,59.0
825,123.328125,123.43229166666667,64.0,90.0
826,123.328125,123.47291666666666,67.0,83.0
827,123.453125,123.56041666666667,59.0,80.0
828,123.953125,124.06145833333333,59.0,74.0
829,122.203125,124.19479166666666,52.0,80.0
830,122.203125,124.19687499999999,40.0,69.0
831,124.203125,124.34166666666667,64.0,87.0
832,124.203125,124.34375,59.0,83.0
833,124.703125,124.81145833333333,59.0,90.0
834,124.703125,124.875,67.0,90.0
835,125.453125,125.52916666666667,59.0,80.0
836,125.453125,125.53854166666666,64.0,103.0
837,125.953125,125.97916666666667,64.0,59.0
838,124.203125,126.00625,40.0,74.0
839,124.203125,126.0125,52.0,68.0
840,125.953125,126.01875,59.0,69.0
841,126.203125,126.28854166666666,64.0,102.0
842,126.203125,126.296875,59.0,80.0
843,126.453125,126.49479166666667,64.0,63.0
844,126.453125,126.50729166666666,59.0,55.0
845,126.703125,126.78125,59.0,80.0
846,126.703125,126.78125,64.0,102.0
847,126.703125,126.784375,67.0,95.0
848,126.953125,127.00729166666666,59.0,60.0
849,127.453125,127.528125,59.0,87.0
850,127.453125,127.53333333333333,64.0,105.0
851,127.953125,128.02604166666666,59.0,74.0
852,126.203125,128.02708333333334,40.0,85.0
853,126.203125,128.03958333333333,52.0,93.0
854,128.203125,128.30416666666667,64.0,93.0
855,128.203125,128.32083333333333,59.0,70.0
856,128.703125,128.79375,59.0,72.0
857,128.703125,128.803125,64.0,87.0
858,128.703125,128.80833333333334,67.0,67.0
859,129.453125,129.52604166666666,67.0,41.0
860,129.453125,129.53229166666665,59.0,66.0
861,129.453125,129.5375,64.0,63.0
862,129.703125,129.74895833333332,59.0,64.0
863,129.703125,129.76041666666666,64.0,74.0
864,129.703125,129.78125,67.0,65.0
865,129.953125,129.996875,64.0,68.0
866,129.953125,130.00729166666667,67.0,65.0
867,129.953125,130.053125,59.0,60.0
868,128.203125,130.084375,40.0,70.0
869,128.203125,130.09375,52.0,72.0
870,130.203125,130.22395833333334,64.0,51.0
871,130.203125,130.28958333333333,59.0,68.0
872,130.703125,130.790625,64.0,93.0
873,130.703125,130.79479166666667,59.0,80.0
874,130.703125,130.82916666666665,67.0,93.0
875,130.953125,131.01666666666665,59.0,63.0
876,131.078125,131.16041666666666,59.0,59.0
877,131.328125,131.43229166666666,64.0,90.0
878,131.328125,131.47291666666666,67.0,83.0
879,131.453125,131.56041666666667,59.0,80.0
880,131.953125,132.06145833333332,59.0,74.0
881,130.203125,132.19479166666667,52.0,80.0
882,130.203125,132.196875,40.0,69.0
883,132.203125,132.52083333333334,64.0,83.0
884,132.203125,132.52291666666667,59.0,70.0
885,132.703125,132.784375,59.0,85.0
886,132.703125,132.81354166666665,67.0,102.0
887,133.203125,133.27916666666667,59.0,74.0
888,133.453125,133.61770833333333,59.0,85.0
889,133.453125,133.65104166666666,64.0,105.0
890,132.203125,133.75416666666666,40.0,80.0
891,134.203125,134.56041666666667,57.0,87.0
892,134.203125,134.56979166666667,62.0,80.0
893,134.703125,134.7875,57.0,87.0
894,134.203125,134.96979166666665,50.0,80.0
895,134.703125,135.015625,62.0,95.0
896,134.953125,135.05,57.0,66.0
897,135.203125,135.3375,59.0,80.0
898,135.203125,135.521875,64.0,70.0
899,135.453125,135.57916666666665,59.0,69.0
900,135.703125,135.815625,59.0,85.0
901,135.703125,135.890625,64.0,93.0
902,135.203125,135.94583333333333,52.0,80.0
903,135.703125,136.015625,67.0,80.0
904,135.953125,136.121875,59.0,66.0
905,136.203125,136.57604166666667,55.0,70.0
906,136.203125,136.59895833333334,62.0,59.0
907,136.703125,136.79895833333333,62.0,68.0
908,136.703125,136.80625,55.0,72.0
909,136.953125,137.10625,62.0,103.0
910,136.953125,137.14583333333334,55.0,87.0
911,137.453125,137.55104166666666,55.0,90.0
912,137.453125,137.56354166666665,59.0,93.0
913,137.453125,137.609375,62.0,95.0
914,136.203125,137.82708333333332,43.0,85.0
915,137.203125,137.83229166666666,50.0,56.0
916,137.703125,137.83854166666666,55.0,87.0
917,137.953125,138.034375,59.0,87.0
918,138.203125,138.53020833333332,59.0,69.0
919,138.203125,138.565625,64.0,95.0
920,138.703125,138.78020833333332,59.0,72.0
921,138.203125,138.78541666666666,52.0,93.0
922,138.703125,138.85104166666667,64.0,93.0
923,138.953125,139.07395833333334,59.0,63.0
924,139.203125,139.41979166666667,59.0,72.0
925,139.203125,139.50729166666667,62.0,87.0
926,139.453125,139.76354166666667,54.0,59.0
927,139.703125,139.80416666666667,59.0,74.0
928,139.703125,139.82708333333332,62.0,93.0
929,139.203125,140.01145833333334,47.0,59.0
930,139.703125,140.04375,66.0,80.0
931,139.953125,140.06770833333334,59.0,67.0
932,140.203125,140.44895833333334,59.0,74.0
933,140.203125,140.48854166666666,62.0,83.0
934,140.453125,140.6875,54.0,45.0
935,140.203125,140.77291666666667,47.0,69.0
936,140.703125,140.79270833333334,59.0,70.0
937,140.703125,140.95208333333332,62.0,74.0
938,140.953125,141.05,59.0,65.0
939,141.203125,141.50625,57.0,80.0
940,141.203125,141.53645833333334,60.0,90.0
941,141.703125,141.81770833333334,57.0,93.0
942,141.453125,142.0125,52.0,68.0
943,141.703125,142.0125,60.0,93.0
944,141.203125,142.06145833333332,45.0,74.0
945,141.953125,142.07083333333333,57.0,69.0
946,142.203125,142.53020833333332,55.0,85.0
947,142.203125,142.53333333333333,59.0,90.0
948,142.703125,142.80520833333333,55.0,87.0
949,142.703125,142.82291666666666,59.0,93.0
950,142.703125,142.83958333333334,62.0,90.0
951,142.953125,143.240625,55.0,90.0
952,142.953125,143.253125,59.0,93.0
953,142.953125,143.253125,62.0,93.0
954,143.453125,143.55520833333333,55.0,72.0
955,142.203125,143.79375,43.0,93.0
956,143.703125,143.81145833333332,55.0,93.0
957,143.703125,143.81770833333334,59.0,102.0
958,143.203125,143.82916666666665,50.0,59.0
959,143.703125,143.84583333333333,62.0,95.0
960,144.203125,144.50520833333334,57.0,74.0
961,144.203125,144.52083333333334,60.0,83.0
962,144.703125,144.81458333333333,57.0,93.0
963,144.703125,144.88958333333332,60.0,95.0
964,144.953125,144.98020833333334,60.0,15.0
965,144.453125,144.98125,52.0,47.0
966,144.203125,144.9875,45.0,80.0
967,144.953125,145.040625,57.0,71.0
968,144.703125,145.05,64.0,102.0
969,145.203125,145.43229166666666,62.0,102.0
970,145.203125,145.465625,59.0,83.0
971,145.203125,145.525,47.0,80.0
972,145.703125,145.88854166666667,57.0,83.0
973,145.703125,145.903125,60.0,87.0
974,145.703125,145.984375,45.0,80.0
975,146.203125,146.534375,59.0,80.0
976,146.203125,146.56666666666666,62.0,87.0
977,146.703125,146.80833333333334,59.0,80.0
978,146.703125,146.84479166666665,62.0,90.0
979,146.203125,146.98854166666666,47.0,90.0
980,146.703125,147.02083333333334,66.0,87.0
981,146.953125,147.034375,62.0,44.0
982,146.953125,147.071875,59.0,80.0
983,147.203125,147.315625,59.0,69.0
984,147.203125,147.51458333333332,64.0,80.0
985,147.453125,147.55833333333334,59.0,74.0
986,147.703125,147.80416666666667,59.0,87.0
987,147.703125,148.01666666666665,67.0,87.0
988,147.703125,148.02395833333333,64.0,102.0
989,147.953125,148.06875,59.0,66.0
990,147.203125,148.1125,52.0,85.0
991,148.203125,148.51666666666665,67.0,83.0
992,148.203125,148.534375,59.0,74.0
993,148.703125,148.80833333333334,64.0,95.0
994,148.703125,148.81458333333333,59.0,80.0
995,149.078125,149.14895833333333,64.0,74.0
996,149.078125,149.159375,59.0,66.0
997,149.453125,149.540625,64.0,90.0
998,149.453125,149.55,59.0,80.0
999,149.453125,149.58229166666666,67.0,93.0
1000,148.203125,149.959375,52.0,102.0
1001,149.953125,150.01979166666666,64.0,80.0
1002,149.953125,150.03541666666666,67.0,74.0
1003,149.953125,150.04895833333333,59.0,72.0
1004,150.203125,150.525,57.0,74.0
1005,150.203125,150.525,62.0,85.0
1006,150.703125,150.83854166666666,57.0,95.0
1007,150.703125,150.840625,62.0,102.0
1008,150.203125,150.859375,50.0,80.0
1009,151.078125,151.15416666666667,57.0,80.0
1010,151.078125,151.165625,62.0,87.0
1011,151.453125,151.64375,59.0,80.0
1012,151.453125,151.65208333333334,64.0,93.0
1013,151.953125,152.03854166666667,59.0,72.0
1014,151.203125,152.05729166666666,52.0,87.0
1015,151.953125,152.0625,67.0,90.0
1016,152.203125,152.53541666666666,59.0,85.0
1017,152.203125,152.54791666666665,64.0,102.0
1018,152.703125,152.89479166666666,59.0,80.0
1019,152.703125,152.92916666666667,64.0,102.0
1020,152.203125,153.0625,52.0,83.0
1021,153.078125,153.13229166666667,64.0,70.0
1022,153.078125,153.15625,59.0,68.0
1023,153.203125,153.31354166666665,69.0,87.0
1024,153.203125,153.32291666666666,64.0,80.0
1025,153.453125,153.628125,69.0,93.0
1026,153.453125,153.63958333333332,64.0,83.0
1027,153.203125,153.89583333333334,45.0,85.0
1028,153.953125,154.02291666666667,69.0,83.0
1029,153.953125,154.034375,72.0,80.0
1030,153.953125,154.05,64.0,72.0
1031,154.203125,154.53125,67.0,80.0
1032,154.203125,154.53854166666667,64.0,74.0
1033,154.703125,154.846875,64.0,93.0
1034,154.703125,154.846875,67.0,103.0
1035,154.203125,154.87395833333332,52.0,85.0
1036,155.078125,155.20208333333332,64.0,70.0
1037,155.078125,155.21666666666667,67.0,71.0
1038,155.453125,155.57916666666665,64.0,80.0
1039,155.453125,155.596875,69.0,87.0
1040,155.953125,156.06770833333334,64.0,87.0
1041,155.953125,156.07083333333333,69.0,102.0
1042,155.203125,156.071875,45.0,87.0
1043,156.203125,156.51875,64.0,83.0
1044,156.203125,156.52395833333333,67.0,80.0
1045,156.203125,156.525,59.0,70.0
1046,156.703125,156.8625,64.0,102.0
1047,156.703125,156.86875,59.0,83.0
1048,156.703125,156.88645833333334,67.0,95.0
1049,157.078125,157.17916666666667,59.0,59.0
1050,157.078125,157.18541666666667,64.0,74.0
1051,157.078125,157.2,67.0,69.0
1052,157.453125,157.60104166666667,64.0,80.0
1053,157.453125,157.60625,59.0,70.0
1054,156.203125,157.621875,52.0,87.0
1055,157.453125,157.63333333333333,67.0,80.0
1056,157.953125,158.03020833333332,64.0,68.0
1057,157.953125,158.05625,59.0,58.0
1058,158.203125,158.54166666666666,62.0,95.0
1059,158.203125,158.55,59.0,87.0
1060,158.203125,158.771875,47.0,71.0
1061,158.703125,158.81145833333332,62.0,103.0
1062,158.703125,158.859375,59.0,87.0
1063,158.703125,158.88958333333332,66.0,93.0
1064,159.078125,159.175,62.0,90.0
1065,159.078125,159.18958333333333,59.0,74.0
1066,159.453125,159.6625,59.0,80.0
1067,159.453125,159.715625,64.0,90.0
1068,159.203125,160.00208333333333,52.0,93.0
1069,159.953125,160.02604166666666,64.0,80.0
1070,159.953125,160.04375,67.0,74.0
1071,159.953125,160.05520833333333,59.0,74.0
1072,160.203125,160.56354166666665,60.0,74.0
1073,160.203125,160.56458333333333,57.0,69.0
1074,160.703125,160.934375,57.0,93.0
1075,160.703125,160.94375,60.0,102.0
1076,160.203125,161.08125,45.0,80.0
1077,161.078125,161.13541666666666,57.0,74.0
1078,161.078125,161.14791666666667,60.0,93.0
1079,161.203125,161.49375,59.0,72.0
1080,161.203125,161.515625,62.0,95.0
1081,161.203125,161.60833333333332,47.0,80.0
1082,161.703125,161.996875,57.0,87.0
1083,161.703125,161.99791666666667,60.0,83.0
1084,161.703125,162.02291666666667,45.0,90.0
1085,162.203125,162.54166666666666,62.0,80.0
1086,162.203125,162.55416666666667,66.0,65.0
1087,162.203125,162.55729166666666,59.0,66.0
1088,162.703125,162.84791666666666,62.0,102.0
1089,162.703125,162.86875,59.0,83.0
1090,162.703125,162.88020833333334,66.0,93.0
1091,162.203125,162.91041666666666,47.0,72.0
1092,163.078125,163.171875,66.0,65.0
1093,163.078125,163.203125,62.0,87.0
1094,163.078125,163.20729166666666,59.0,69.0
1095,163.453125,163.771875,64.0,80.0
1096,163.453125,163.790625,59.0,69.0
1097,163.453125,163.79375,67.0,74.0
1098,163.953125,164.07708333333332,59.0,71.0
1099,163.953125,164.07708333333332,64.0,87.0
1100,163.203125,164.09166666666667,52.0,87.0
1101,163.953125,164.09791666666666,67.0,80.0
1102,164.203125,164.20729166666666,52.0,102.0
1103,164.203125,164.20729166666666,59.0,74.0
1104,164.203125,164.20729166666666,67.0,83.0
1105,164.703125,164.80833333333334,64.0,95.0
1106,164.703125,164.81458333333333,59.0,80.0
1107,165.078125,165.14895833333333,64.0,74.0
1108,165.078125,165.159375,59.0,66.0
1109,165.453125,165.540625,64.0,90.0
1110,165.453125,165.55,59.0,80.0
1111,165.453125,165.58229166666666,67.0,93.0
1112,165.953125,166.01979166666666,64.0,80.0
1113,165.953125,166.03541666666666,67.0,74.0
1114,165.953125,166.04895833333333,59.0,72.0
1115,166.203125,166.525,57.0,74.0
1116,166.203125,166.525,62.0,85.0
1117,166.703125,166.83854166666666,57.0,95.0
1118,166.703125,166.840625,62.0,102.0
1119,166.203125,166.859375,50.0,80.0
1120,167.078125,167.15416666666667,57.0,80.0
1121,167.078125,167.165625,62.0,87.0
1122,167.453125,167.64375,59.0,80.0
1123,167.453125,167.65208333333334,64.0,93.0
1124,167.953125,168.03854166666667,59.0,72.0
1125,167.203125,168.05729166666666,52.0,87.0
1126,167.953125,168.0625,67.0,90.0
1127,168.203125,168.53541666666666,59.0,85.0
1128,168.203125,168.54791666666665,64.0,102.0
1129,168.703125,168.89479166666666,59.0,80.0
1130,168.703125,168.92916666666667,64.0,102.0
1131,168.203125,169.0625,52.0,83.0
1132,169.078125,169.13229166666667,64.0,70.0
1133,169.078125,169.15625,59.0,68.0
1134,169.203125,169.31354166666665,69.0,87.0
1135,169.203125,169.32291666666666,64.0,80.0
1136,169.453125,169.628125,69.0,93.0
1137,169.453125,169.63958333333332,64.0,83.0
1138,169.203125,169.89583333333334,45.0,85.0
1139,169.953125,170.02291666666667,69.0,83.0
1140,169.953125,170.034375,72.0,80.0
1141,169.953125,170.05,64.0,72.0
1142,170.203125,170.53125,67.0,80.0
1143,170.203125,170.53854166666667,64.0,74.0
1144,170.703125,170.846875,64.0,93.0
1145,170.703125,170.846875,67.0,103.0
1146,170.203125,170.87395833333332,52.0,85.0
1147,171.078125,171.20208333333332,64.0,70.0
1148,171.078125,171.21666666666667,67.0,71.0
1149,171.453125,171.57916666666665,64.0,80.0
1150,171.453125,171.596875,69.0,87.0
1151,171.953125,172.06770833333334,64.0,87.0
1152,171.953125,172.07083333333333,69.0,102.0
1153,171.203125,172.071875,45.0,87.0
1154,172.203125,172.51875,64.0,83.0
1155,172.203125,172.52395833333333,67.0,80.0
1156,172.203125,172.525,59.0,70.0
1157,172.703125,172.8625,64.0,102.0
1158,172.703125,172.86875,59.0,83.0
1159,172.703125,172.88645833333334,67.0,95.0
1160,173.078125,173.17916666666667,59.0,59.0
1161,173.078125,173.18541666666667,64.0,74.0
1162,173.078125,173.2,67.0,69.0
1163,173.453125,173.60104166666667,64.0,80.0
1164,173.453125,173.60625,59.0,70.0
1165,172.203125,173.621875,52.0,87.0
1166,173.453125,173.63333333333333,67.0,80.0
1167,173.953125,174.03020833333332,64.0,68.0
1168,173.953125,174.05625,59.0,58.0
1169,174.203125,174.54166666666666,62.0,95.0
1170,174.203125,174.55,59.0,87.0
1171,174.203125,174.771875,47.0,71.0
1172,174.703125,174.81145833333332,62.0,103.0
1173,174.703125,174.859375,59.0,87.0
1174,174.703125,174.88958333333332,66.0,93.0
1175,175.078125,175.175,62.0,90.0
1176,175.078125,175.18958333333333,59.0,74.0
1177,175.453125,175.6625,59.0,80.0
1178,175.453125,175.715625,64.0,90.0
1179,175.203125,176.00208333333333,52.0,93.0
1180,175.953125,176.02604166666666,64.0,80.0
1181,175.953125,176.04375,67.0,74.0
1182,175.953125,176.05520833333333,59.0,74.0
1183,176.203125,176.56354166666665,60.0,74.0
1184,176.203125,176.56458333333333,57.0,69.0
1185,176.703125,176.934375,57.0,93.0
1186,176.703125,176.94375,60.0,102.0
1187,176.203125,177.08125,45.0,80.0
1188,177.078125,177.13541666666666,57.0,74.0
1189,177.078125,177.14791666666667,60.0,93.0
1190,177.203125,177.49375,59.0,72.0
1191,177.203125,177.515625,62.0,95.0
1192,177.203125,177.60833333333332,47.0,80.0
1193,177.703125,177.996875,57.0,87.0
1194,177.703125,177.99791666666667,60.0,83.0
1195,177.703125,178.02291666666667,45.0,90.0
1196,178.203125,178.54166666666666,62.0,80.0
1197,178.203125,178.55416666666667,66.0,65.0
1198,178.203125,178.55729166666666,59.0,66.0
1199,178.703125,178.84791666666666,62.0,102.0
1200,178.703125,178.86875,59.0,83.0
1201,178.703125,178.88020833333334,66.0,93.0
1202,178.203125,178.91041666666666,47.0,72.0
1203,179.078125,179.171875,66.0,65.0
1204,179.078125,179.203125,62.0,87.0
1205,179.078125,179.20729166666666,59.0,69.0
1206,179.453125,179.771875,64.0,80.0
1207,179.453125,179.790625,59.0,69.0
1208,179.453125,179.79375,67.0,74.0
1209,179.953125,180.07708333333332,59.0,71.0
1210,179.953125,180.07708333333332,64.0,87.0
1211,179.203125,180.09166666666667,52.0,87.0
1212,179.953125,180.09791666666666,67.0,80.0
1213,180.203125,180.56354166666665,60.0,74.0
1214,180.203125,180.56458333333333,57.0,69.0
1215,180.703125,180.934375,57.0,93.0
1216,180.703125,180.94375,60.0,102.0
1217,180.203125,181.08125,45.0,80.0
1218,181.078125,181.13541666666666,57.0,74.0
1219,181.078125,181.14791666666667,60.0,93.0
1220,181.203125,181.49375,59.0,72.0
1221,181.203125,181.515625,62.0,95.0
1222,181.203125,181.60833333333332,47.0,80.0
1223,181.703125,181.996875,57.0,87.0
1224,181.703125,181.99791666666667,60.0,83.0
1225,181.703125,182.02291666666667,45.0,90.0
1226,182.203125,182.54166666666666,62.0,80.0
1227,182.203125,182.55416666666667,66.0,65.0
1228,182.203125,182.55729166666666,59.0,66.0
1229,182.703125,182.84791666666666,62.0,102.0
1230,182.703125,182.86875,59.0,83.0
1231,182.703125,182.88020833333334,66.0,93.0
1232,182.203125,182.91041666666666,47.0,72.0
1233,183.078125,183.171875,66.0,65.0
1234,183.078125,183.203125,62.0,87.0
1235,183.078125,183.20729166666666,59.0,69.0
1236,183.453125,183.771875,64.0,80.0
1237,183.453125,183.790625,59.0,69.0
1238,183.453125,183.79375,67.0,74.0
1239,183.953125,184.07708333333332,59.0,71.0
1240,183.953125,184.07708333333332,64.0,87.0
1241,183.203125,184.09166666666667,52.0,87.0
1242,183.953125,184.09791666666666,67.0,80.0
1243,184.203125,184.56770833333334,59.0,71.0
1244,184.203125,184.575,64.0,87.0
1245,184.703125,184.84791666666666,59.0,83.0
1246,184.703125,184.84791666666666,64.0,102.0
1247,184.703125,184.93125,67.0,93.0
1248,184.203125,185.19895833333334,40.0,90.0
1249,185.203125,185.45104166666667,69.0,95.0
1250,185.203125,185.46666666666667,66.0,72.0
1251,185.203125,185.484375,62.0,80.0
1252,185.703125,185.81770833333334,66.0,70.0
1253,185.703125,185.82395833333334,62.0,87.0
1254,185.703125,185.85625,74.0,93.0
1255,186.453125,186.540625,66.0,80.0
1256,186.453125,186.55,62.0,87.0
1257,186.453125,186.565625,69.0,93.0
1258,185.203125,186.75520833333334,50.0,87.0
1259,186.203125,186.77708333333334,57.0,41.0
1260,186.703125,186.78854166666667,62.0,87.0
1261,186.703125,186.79166666666666,66.0,72.0
1262,186.703125,186.81041666666667,69.0,87.0
1263,187.203125,187.57604166666667,62.0,71.0
1264,187.203125,187.58125,69.0,87.0
1265,187.703125,187.8,62.0,102.0
1266,187.703125,187.809375,69.0,95.0
1267,188.453125,188.54375,62.0,74.0
1268,188.453125,188.56458333333333,74.0,93.0
1269,188.953125,189.053125,62.0,87.0
1270,187.203125,189.07083333333333,50.0,87.0
1271,187.953125,189.08333333333334,57.0,68.0
1272,189.203125,189.53333333333333,69.0,93.0
1273,189.203125,189.54479166666667,62.0,80.0
1274,189.703125,189.809375,66.0,80.0
1275,189.703125,189.85104166666667,62.0,90.0
1276,189.703125,189.85625,69.0,102.0
1277,190.453125,190.52604166666666,66.0,63.0
1278,190.453125,190.54166666666666,62.0,72.0
1279,190.453125,190.55520833333333,69.0,93.0
1280,190.703125,190.77291666666667,66.0,74.0
1281,190.703125,190.7875,62.0,80.0
1282,190.703125,190.80104166666666,69.0,93.0
1283,190.953125,190.97916666666666,62.0,37.0
1284,190.203125,190.98125,57.0,61.0
1285,189.203125,191.03125,50.0,93.0
1286,191.203125,191.38333333333333,55.0,70.0
1287,191.203125,191.40208333333334,43.0,95.0
1288,191.453125,191.53125,47.0,70.0
1289,191.453125,191.540625,59.0,87.0
1290,191.703125,191.79479166666667,50.0,93.0
1291,191.703125,191.821875,62.0,90.0
1292,191.953125,192.4875,64.0,95.0
1293,191.953125,192.69375,52.0,95.0
