,start,end,pitch,velocity
0,15.3749646375,15.522400195833335,59.0,84.0
1,15.5672718875,15.842912279166667,67.0,90.0
2,15.9518863875,16.07207841875,67.0,88.0
3,16.1441936375,16.592910554166668,67.0,90.0
4,16.913422637500002,17.080088920833333,59.0,86.0
5,17.1057298875,17.3749600375,66.0,91.0
6,17.490344387500002,17.594510814583334,66.0,91.0
7,17.6826516375,18.29322715625,66.0,91.0
8,18.4518806375,18.5864957125,62.0,87.0
9,18.6441878875,18.89899499375,64.0,92.0
10,19.0288023875,19.310853020833335,64.0,92.0
11,19.413416887500002,19.767582739583332,62.0,92.0
12,19.7980313875,20.1249537125,60.0,92.0
13,20.1826458875,21.354117552083334,62.0,91.0
14,21.5287966375,21.655398910416668,59.0,90.0
15,21.7211038875,21.993539158333334,67.0,91.0
16,22.1057183875,22.21629505625,67.0,90.0
17,22.2980256375,22.7211015875,67.0,91.0
18,23.0672546375,23.198664591666667,59.0,86.0
19,23.259561887500002,23.517574114583333,66.0,91.0
20,23.6441763875,23.756355616666667,66.0,82.0
21,23.836483637500002,24.38936698125,66.0,91.0
22,24.6057126375,24.7403277125,62.0,86.0
23,24.7980198875,25.0864807625,64.0,94.0
24,25.182634387500002,25.4518645375,67.0,94.0
25,25.5672488875,25.844491839583334,69.0,92.0
26,25.9518633875,26.184234647916668,71.0,90.0
27,26.3364778875,27.507949552083335,71.0,91.0
28,27.682628637500002,27.830064195833334,59.0,84.0
29,27.8749358875,28.150576279166668,67.0,90.0
30,28.2595503875,28.379742418750002,67.0,88.0
31,28.4518576375,28.900574554166667,67.0,90.0
32,29.2210866375,29.387752920833336,59.0,86.0
33,29.4133938875,29.682624037500002,66.0,91.0
34,29.7980083875,29.902174814583333,66.0,91.0
35,29.9903156375,30.60089115625,66.0,91.0
36,30.7595446375,30.894159712500002,62.0,87.0
37,30.951851887500002,31.20665899375,64.0,92.0
38,31.3364663875,31.618517020833334,64.0,92.0
39,31.7210808875,32.075246739583335,62.0,92.0
40,32.1056953875,32.432617712500004,60.0,92.0
41,32.490309887500004,33.66178155208333,62.0,91.0
42,33.836460637500004,33.96306291041667,59.0,90.0
43,34.0287678875,34.30120315833334,67.0,91.0
44,34.4133823875,34.52395905625,67.0,90.0
45,34.6056896375,35.028765587500004,67.0,91.0
46,35.3749186375,35.506328591666666,59.0,86.0
47,35.5672258875,35.825238114583335,66.0,91.0
48,35.9518403875,36.06401961666667,66.0,82.0
49,36.1441476375,36.69703098125,66.0,91.0
50,36.9133766375,37.0479917125,62.0,86.0
51,37.1056838875,37.3941447625,64.0,94.0
52,37.490298387500005,37.7595285375,67.0,94.0
53,37.8749128875,38.15215583958334,69.0,92.0
54,38.2595273875,38.49189864791667,67.0,90.0
55,38.6441418875,39.6441395875,67.0,91.0
56,39.7979853875,39.9133697375,67.0,94.0
57,39.9902926375,40.08804882291667,69.0,95.0
58,40.182599887500004,40.838047097916665,71.0,92.0
59,40.9518288875,41.25471280625,67.0,92.0
60,41.336443387500005,41.451827737500004,67.0,90.0
61,41.5287506375,41.672981075,69.0,91.0
62,41.7210578875,42.54317138125,71.0,91.0
63,42.8749013875,42.9902857375,67.0,87.0
64,43.0672086375,43.16656738333334,69.0,91.0
65,43.2595158875,43.53034859791667,71.0,96.0
66,43.6441303875,43.92618102083333,76.0,96.0
67,44.028744887500004,44.29476991666667,71.0,92.0
68,44.4133593875,44.53355141875,69.0,94.0
69,44.6056666375,44.7210509875,67.0,92.0
70,44.7979738875,45.14572949791667,69.0,96.0
71,45.182588387500005,45.31399834166667,67.0,91.0
72,45.3748956375,45.83483047708334,64.0,97.0
73,47.1056608875,47.3845064,76.0,95.0
74,47.4902753875,47.62649302291667,76.0,99.0
75,47.682582637500005,47.778736262500004,74.0,96.0
76,47.874889887500004,48.22585061875,76.0,99.0
77,48.2595043875,48.35405545208334,74.0,91.0
78,48.4518116375,48.951810487500005,74.0,96.0
79,49.028733387500004,49.326809625,69.0,96.0
80,49.4133478875,51.80917571041667,71.0,92.0
81,52.1056493875,52.2210337375,67.0,94.0
82,52.2979566375,52.39571282291667,69.0,95.0
83,52.4902638875,53.14571109791667,71.0,92.0
84,53.6441073875,53.7594917375,67.0,90.0
85,53.8364146375,53.980645075,69.0,91.0
86,54.028721887500005,54.85083538125,71.0,91.0
87,55.1825653875,55.297949737500005,67.0,87.0
88,55.374872637500005,55.47423138333333,69.0,91.0
89,55.567179887500004,55.838012597916666,71.0,96.0
90,55.9517943875,56.233845020833336,76.0,96.0
91,56.3364088875,57.1056378875,78.0,92.0
92,57.1056378875,58.854031302083335,76.0,96.0
93,59.4133248875,60.04473369166667,76.0,94.0
94,60.1825538875,60.53671973958333,76.0,94.0
95,60.567168387500004,60.82357805416667,74.0,96.0
96,60.9517828875,61.315564102083336,74.0,101.0
97,61.3363973875,61.71299908541667,71.0,91.0
98,61.721011887500005,64.25626246666667,76.0,96.0
99,64.4133133875,64.5671591875,76.0,99.0
100,64.6056206375,64.71619730625,78.0,85.0
101,64.79792788750001,65.12645277291666,79.0,91.0
102,65.1825423875,65.31876002291666,78.0,95.0
103,65.3748496375,65.67773355625,79.0,94.0
104,65.7594641375,66.19055288958333,79.0,92.0
105,66.3363858875,66.66010309166667,78.0,99.0
106,66.7210003875,66.88285898958334,78.0,91.0
107,66.9133076375,67.25785812708334,76.0,97.0
108,67.2979221375,67.73061345,74.0,97.0
109,67.8748438875,68.14086891666666,76.0,92.0
110,68.2594583875,68.60240631666667,76.0,95.0
111,68.6440728875,68.82836733541667,74.0,101.0
112,68.8363801375,69.34759691041667,72.0,92.0
113,69.4133018875,70.31874852291666,74.0,94.0
114,70.5671453875,70.6825297375,76.0,96.0
115,70.7594526375,70.865221625,78.0,95.0
116,70.9517598875,71.20496443333333,79.0,92.0
117,71.3363743875,71.44855361666667,79.0,91.0
118,71.5286816375,71.826757875,79.0,90.0
119,71.9132961375,72.31553880208334,79.0,91.0
120,72.49021788750001,72.77547364166666,78.0,97.0
121,72.8748323875,72.98540905625,76.0,94.0
122,73.0671396375,73.53188215833333,74.0,101.0
123,74.0286758875,74.33155980625,76.0,97.0
124,74.4132903875,74.63925140625,79.0,91.0
125,74.7979048875,75.14405793750001,78.0,96.0
126,75.18251938750001,75.480595625,74.0,96.0
127,75.5671338875,76.3363628875,76.0,91.0
128,76.7209773875,76.8748231875,76.0,99.0
129,76.9132846375,77.02386130625,78.0,85.0
130,77.1055918875,77.43411677291667,79.0,91.0
131,77.4902063875,77.62642402291667,78.0,95.0
132,77.68251363750001,77.98539755625,79.0,94.0
133,78.0671281375,78.49821688958333,79.0,92.0
134,78.6440498875,78.96776709166667,78.0,99.0
135,79.0286643875,79.19052298958333,78.0,91.0
136,79.2209716375,79.56552212708334,76.0,97.0
137,79.6055861375,80.03827745,74.0,97.0
138,80.18250788750001,80.44853291666666,76.0,92.0
139,80.5671223875,80.91007031666668,76.0,95.0
140,80.9517368875,81.13603133541667,74.0,101.0
141,81.1440441375,81.65526091041667,72.0,92.0
142,81.7209658875,82.62641252291667,74.0,94.0
143,82.87480938750001,82.99019373750001,76.0,96.0
144,83.0671166375,83.172885625,78.0,95.0
145,83.2594238875,83.51262843333333,79.0,92.0
146,83.6440383875,83.75621761666667,79.0,91.0
147,83.8363456375,84.134421875,79.0,90.0
148,84.2209601375,84.62320280208334,79.0,91.0
149,84.7978818875,85.08313764166667,78.0,97.0
150,85.18249638750001,85.29307305625001,76.0,94.0
151,85.37480363750001,85.9517253875,74.0,101.0
152,85.9517253875,86.3363398875,74.0,101.0
153,86.3363398875,86.63922380625,76.0,97.0
154,86.7209543875,86.94691540625,79.0,91.0
155,87.1055688875,87.4517219375,78.0,96.0
156,87.4901833875,87.78825962500001,74.0,96.0
157,87.87479788750001,88.95812872916667,76.0,91.0
158,90.1824848875,90.47575344375001,79.0,90.0
159,90.56709938750001,90.90684219583333,78.0,92.0
160,90.9517138875,93.25299064583334,76.0,92.0
161,123.0670246375,123.21446019583334,59.0,84.0
162,123.25933188750001,123.53497227916667,67.0,90.0
163,123.64394638750001,123.76413841875001,67.0,88.0
164,123.83625363750001,124.28497055416668,67.0,90.0
165,124.6054826375,124.77214892083333,59.0,86.0
166,124.7977898875,125.0670200375,66.0,91.0
167,125.1824043875,125.28657081458334,66.0,91.0
168,125.3747116375,125.98528715625001,66.0,91.0
169,126.14394063750001,126.27855571250001,62.0,87.0
170,126.33624788750001,126.59105499375,64.0,92.0
171,126.7208623875,127.00291302083333,64.0,92.0
172,127.1054768875,127.45964273958333,62.0,92.0
173,127.4900913875,127.8170137125,60.0,92.0
174,127.8747058875,129.04617755208335,62.0,91.0
175,129.2208566375,129.34745891041666,59.0,90.0
176,129.4131638875,129.68559915833333,67.0,91.0
177,129.79777838750002,129.90835505625,67.0,90.0
178,129.99008563750002,130.4131615875,67.0,91.0
179,130.7593146375,130.89072459166667,59.0,86.0
180,130.9516218875,131.20963411458334,66.0,91.0
181,131.3362363875,131.44841561666667,66.0,82.0
182,131.5285436375,132.08142698125,66.0,91.0
183,132.2977726375,132.4323877125,62.0,86.0
184,132.4900798875,132.7785407625,64.0,94.0
185,132.8746943875,133.1439245375,67.0,94.0
186,133.2593088875,133.53655183958332,69.0,92.0
187,133.6439233875,133.87629464791667,67.0,90.0
188,134.0285378875,135.02853558750002,67.0,91.0
189,135.18238138750002,135.29776573750001,67.0,94.0
190,135.37468863750001,135.47244482291666,69.0,95.0
191,135.5669958875,136.22244309791668,71.0,92.0
192,136.3362248875,136.63910880625,67.0,92.0
193,136.7208393875,136.8362237375,67.0,90.0
194,136.9131466375,137.057377075,69.0,91.0
195,137.1054538875,137.92756738125001,71.0,91.0
196,138.2592973875,138.3746817375,67.0,87.0
197,138.4516046375,138.55096338333334,69.0,91.0
198,138.6439118875,138.91474459791667,71.0,96.0
199,139.0285263875,139.31057702083334,76.0,96.0
200,139.4131408875,139.67916591666668,71.0,92.0
201,139.79775538750002,139.91794741875,69.0,94.0
202,139.99006263750002,140.10544698750002,67.0,92.0
203,140.18236988750002,140.53012549791666,69.0,96.0
204,140.5669843875,140.69839434166667,67.0,91.0
205,140.7592916375,141.21922647708334,64.0,97.0
206,142.4900568875,142.7689024,76.0,95.0
207,142.8746713875,143.01088902291667,76.0,99.0
208,143.0669786375,143.1631322625,74.0,96.0
209,143.2592858875,143.61024661875,76.0,99.0
210,143.6439003875,143.73845145208332,74.0,91.0
211,143.8362076375,144.3362064875,74.0,96.0
212,144.4131293875,144.711205625,69.0,96.0
213,144.7977438875,147.19357171041668,71.0,92.0
214,147.4900453875,147.6054297375,67.0,94.0
215,147.6823526375,147.78010882291667,69.0,95.0
216,147.8746598875,148.53010709791667,71.0,92.0
217,149.0285033875,149.1438877375,67.0,90.0
218,149.2208106375,149.365041075,69.0,91.0
219,149.4131178875,150.23523138125,71.0,91.0
220,150.56696138750002,150.68234573750001,67.0,87.0
221,150.7592686375,150.85862738333333,69.0,91.0
222,150.9515758875,151.22240859791668,71.0,96.0
223,151.3361903875,151.61824102083335,76.0,96.0
224,151.7208048875,152.4900338875,78.0,92.0
225,152.4900338875,154.23842730208335,76.0,96.0
226,154.7977208875,155.42912969166667,76.0,94.0
227,155.56694988750002,155.92111573958334,76.0,94.0
228,155.9515643875,156.20797405416667,74.0,96.0
229,156.3361788875,156.69996010208334,74.0,101.0
230,156.7207933875,157.09739508541668,71.0,91.0
231,157.1054078875,159.64065846666668,76.0,96.0
232,159.7977093875,159.9515551875,76.0,99.0
233,159.9900166375,160.10059330625,78.0,85.0
234,160.18232388750002,160.51084877291666,79.0,91.0
235,160.56693838750002,160.70315602291666,78.0,95.0
236,160.75924563750002,161.06212955625,79.0,94.0
237,161.1438601375,161.57494888958334,79.0,92.0
238,161.7207818875,162.04449909166667,78.0,99.0
239,162.1053963875,162.26725498958334,78.0,91.0
240,162.2977036375,162.64225412708333,76.0,97.0
241,162.6823181375,163.11500945,74.0,97.0
242,163.2592398875,163.52526491666669,76.0,92.0
243,163.6438543875,163.98680231666668,76.0,95.0
244,164.0284688875,164.21276333541667,74.0,101.0
245,164.2207761375,164.73199291041666,72.0,92.0
246,164.7976978875,165.70314452291666,74.0,94.0
247,165.95154138750001,166.06692573750001,76.0,96.0
248,166.1438486375,166.249617625,78.0,95.0
249,166.3361558875,166.58936043333333,79.0,92.0
250,166.7207703875,166.83294961666667,79.0,91.0
251,166.9130776375,167.211153875,79.0,90.0
252,167.2976921375,167.69993480208333,79.0,91.0
253,167.8746138875,168.15986964166666,78.0,97.0
254,168.2592283875,168.36980505625002,76.0,94.0
255,168.4515356375,168.91627815833334,74.0,101.0
256,169.4130718875,169.71595580625,76.0,97.0
257,169.7976863875,170.02364740625,79.0,91.0
258,170.1823008875,170.52845393750002,78.0,96.0
259,170.56691538750002,170.86499162500002,74.0,96.0
260,170.95152988750002,171.7207588875,76.0,91.0
261,172.1053733875,172.2592191875,76.0,99.0
262,172.2976806375,172.40825730625,78.0,85.0
263,172.4899878875,172.81851277291668,79.0,91.0
264,172.8746023875,173.01082002291668,78.0,95.0
265,173.0669096375,173.36979355625002,79.0,94.0
266,173.4515241375,173.88261288958333,79.0,92.0
267,174.0284458875,174.35216309166668,78.0,99.0
268,174.4130603875,174.57491898958335,78.0,91.0
269,174.6053676375,174.94991812708335,76.0,97.0
270,174.9899821375,175.42267345000002,74.0,97.0
271,175.56690388750002,175.83292891666667,76.0,92.0
272,175.95151838750002,176.29446631666667,76.0,95.0
273,176.3361328875,176.52042733541668,74.0,101.0
274,176.5284401375,177.03965691041668,72.0,92.0
275,177.1053618875,178.01080852291668,74.0,94.0
276,178.2592053875,178.3745897375,76.0,96.0
277,178.4515126375,178.557281625,78.0,95.0
278,178.6438198875,178.89702443333334,79.0,92.0
279,179.0284343875,179.14061361666668,79.0,91.0
280,179.2207416375,179.518817875,79.0,90.0
281,179.6053561375,180.00759880208335,79.0,91.0
282,180.1822778875,180.46753364166668,78.0,97.0
283,180.56689238750002,180.67746905625,76.0,94.0
284,180.75919963750002,181.33612138750001,74.0,101.0
285,181.33612138750001,181.7207358875,74.0,101.0
286,181.7207358875,182.02361980625,76.0,97.0
287,182.1053503875,182.33131140625,79.0,91.0
288,182.4899648875,182.8361179375,78.0,96.0
289,182.8745793875,183.172655625,74.0,96.0
290,183.2591938875,184.34252472916668,76.0,91.0
291,185.56688088750002,185.72072668750002,76.0,99.0
292,185.75918813750002,186.14380263750002,78.0,85.0
293,186.33610988750002,186.66463477291668,79.0,91.0
294,186.7207243875,186.85694202291668,78.0,95.0
295,186.9130316375,187.21591555625,79.0,94.0
296,187.2976461375,187.72873488958334,79.0,92.0
297,187.8745678875,188.19828509166666,78.0,99.0
298,188.2591823875,188.42104098958333,78.0,91.0
299,188.4514896375,188.79604012708333,76.0,97.0
300,188.8361041375,189.26879545,74.0,97.0
301,189.4130258875,189.67905091666668,76.0,92.0
302,189.7976403875,190.14058831666668,76.0,95.0
303,190.1822548875,190.36654933541666,74.0,101.0
304,190.3745621375,190.88577891041666,72.0,92.0
305,190.95148388750002,191.85693052291668,74.0,94.0
306,192.1053273875,192.2207117375,76.0,96.0
307,192.2976346375,192.403403625,78.0,95.0
308,192.4899418875,192.74314643333335,79.0,92.0
309,192.8745563875,192.98673561666666,79.0,91.0
310,193.0668636375,193.364939875,79.0,90.0
311,193.4514781375,193.85372080208333,79.0,91.0
312,194.0283998875,194.31365564166668,78.0,97.0
313,194.4130143875,194.52359105625,76.0,94.0
314,194.6053216375,195.07006415833334,74.0,101.0
315,195.5668578875,195.86974180625,76.0,97.0
316,195.95147238750002,196.17743340625,79.0,91.0
317,196.33608688750002,196.68223993750001,78.0,96.0
318,196.72070138750001,197.018777625,74.0,96.0
319,197.1053158875,197.8745448875,76.0,91.0
320,198.2591593875,198.4130051875,76.0,99.0
321,198.4514666375,198.56204330625002,78.0,85.0
322,198.6437738875,198.97229877291667,79.0,91.0
323,199.0283883875,199.16460602291667,78.0,95.0
324,199.2206956375,199.52357955625,79.0,94.0
325,199.6053101375,200.03639888958335,79.0,92.0
326,200.1822318875,200.50594909166668,78.0,99.0
327,200.5668463875,200.72870498958335,78.0,91.0
328,200.75915363750002,201.10370412708335,76.0,97.0
329,201.14376813750002,201.57645945000002,74.0,97.0
330,201.72068988750001,201.98671491666667,76.0,92.0
331,202.1053043875,202.44825231666667,76.0,95.0
332,202.4899188875,202.67421333541668,74.0,101.0
333,202.6822261375,203.19344291041668,72.0,92.0
334,203.2591478875,204.16459452291667,74.0,94.0
335,204.4129913875,204.5283757375,76.0,96.0
336,204.6052986375,204.711067625,78.0,95.0
337,204.7976058875,205.05081043333334,79.0,92.0
338,205.1822203875,205.29439961666668,79.0,91.0
339,205.3745276375,205.672603875,79.0,90.0
340,205.7591421375,206.16138480208335,79.0,91.0
341,206.33606388750002,206.62131964166667,78.0,97.0
342,206.72067838750002,206.83125505625,76.0,94.0
343,206.91298563750001,207.4899073875,74.0,101.0
344,207.4899073875,207.8745218875,74.0,101.0
345,207.8745218875,208.17740580625,76.0,97.0
346,208.2591363875,208.48509740625002,79.0,91.0
347,208.6437508875,208.9899039375,78.0,96.0
348,209.0283653875,209.326441625,74.0,96.0
349,209.4129798875,210.49631072916668,76.0,91.0
350,211.72066688750002,212.01393544375,79.0,90.0
351,212.1052813875,212.44502419583333,78.0,92.0
352,212.4898958875,214.79117264583334,76.0,92.0
353,214.7975828875,214.9514286875,76.0,99.0
354,214.9898901375,215.5668118875,78.0,85.0
355,215.5668118875,215.89533677291666,79.0,91.0
356,215.9514263875,216.08764402291666,78.0,95.0
357,216.14373363750002,216.44661755625,79.0,94.0
358,216.52834813750002,216.95943688958334,79.0,92.0
359,217.10526988750001,217.42898709166667,78.0,99.0
360,217.4898843875,217.65174298958334,78.0,91.0
361,217.6821916375,218.02674212708334,76.0,97.0
362,218.0668061375,218.49949745,74.0,97.0
363,218.6437278875,218.90975291666666,76.0,92.0
364,219.0283423875,219.3712903166667,76.0,95.0
365,219.4129568875,219.59725133541667,74.0,101.0
366,219.6052641375,220.11648091041667,72.0,92.0
367,220.1821858875,221.08763252291666,74.0,94.0
368,221.33602938750002,221.45141373750002,76.0,96.0
369,221.52833663750002,221.63410562500002,78.0,95.0
370,221.72064388750002,221.97384843333333,79.0,92.0
371,222.10525838750002,222.21743761666667,79.0,91.0
372,222.2975656375,222.595641875,79.0,90.0
373,222.6821801375,223.08442280208334,79.0,91.0
374,223.2591018875,223.54435764166666,78.0,97.0
375,223.6437163875,223.75429305625002,76.0,94.0
376,223.8360236375,225.1821743875,74.0,101.0
377,225.57640425,226.09082614375,76.0,94.0
378,226.05556981458335,226.61005571875,79.0,91.0
379,226.57319682916668,227.80716835,78.0,94.0
380,227.8167837125,229.44338253541667,74.0,86.0
381,229.40171596458333,232.18696596875,76.0,95.0
