,start,end,pitch,velocity
0,3.2596078875,3.6762735958333335,59.0,89.0
1,3.2596078875,3.8958243729166666,52.0,91.0
2,3.2596078875,4.171464764583334,40.0,93.0
3,4.0288368875,4.200310852083334,55.0,92.0
4,4.0288368875,4.2163364562500005,59.0,90.0
5,3.6442223875,4.301272158333333,47.0,82.0
6,4.7980658875,5.286846814583334,59.0,90.0
7,4.7980658875,5.309282660416667,51.0,84.0
8,5.1826803875000005,5.732358610416667,47.0,71.0
9,5.5672948875,5.788448225,51.0,84.0
10,4.7980658875,5.802871268750001,39.0,90.0
11,5.5672948875,6.060883495833333,59.0,91.0
12,6.3365238875,6.814086891666667,50.0,87.0
13,6.3365238875,6.825304814583333,59.0,90.0
14,7.1057528875000004,7.3365215875,50.0,91.0
15,6.7211383875,7.34132926875,47.0,76.0
16,6.3365238875,7.37979071875,38.0,90.0
17,7.1057528875000004,7.46632898125,59.0,90.0
18,7.874981887500001,8.116968510416667,52.0,84.0
19,7.874981887500001,8.487159966666667,57.0,84.0
20,8.2595963875,8.506390691666667,52.0,84.0
21,7.874981887500001,8.621775041666666,37.0,83.0
22,8.6442108875,9.26920945,52.0,91.0
23,8.6442108875,9.291645295833334,57.0,89.0
24,8.6442108875,9.291645295833334,61.0,84.0
25,9.413439887500001,9.902220814583334,60.0,84.0
26,9.413439887500001,10.025617966666667,64.0,90.0
27,9.413439887500001,10.573693629166668,48.0,92.0
28,10.1826688875,10.612155079166667,60.0,94.0
29,9.7980543875,10.637796045833333,55.0,85.0
30,10.5672833875,10.939077404166667,64.0,96.0
31,10.9518978875,11.4134352875,62.0,90.0
32,10.9518978875,11.703498722916667,66.0,86.0
33,10.9518978875,11.81247283125,50.0,91.0
34,11.336512387500001,11.8172805125,57.0,83.0
35,11.7211268875,12.097728585416666,62.0,92.0
36,12.1057413875,12.445484195833334,66.0,92.0
37,12.4903558875,12.604137677083333,40.0,90.0
38,12.4903558875,13.34131546875,64.0,85.0
39,12.4903558875,13.575289289583333,67.0,83.0
40,13.6441993875,13.854134802083333,64.0,92.0
41,13.2595848875,14.299646597916666,59.0,86.0
42,12.874970387500001,14.354133652083334,52.0,88.0
43,14.0288138875,14.88938883125,71.0,90.0
44,14.0288138875,14.907016995833335,64.0,90.0
45,15.5672718875,16.357334172916666,67.0,86.0
46,15.5672718875,16.366949535416666,59.0,84.0
47,15.9518863875,16.43425707291667,47.0,74.0
48,15.5672718875,16.46310316041667,40.0,91.0
49,16.3365008875,16.640987366666668,64.0,91.0
50,17.1057298875,17.330088345833335,57.0,81.0
51,17.1057298875,17.916625458333336,66.0,81.0
52,17.8749588875,17.979125314583335,62.0,90.0
53,17.1057298875,17.998356039583335,50.0,90.0
54,17.490344387500002,18.011176522916667,57.0,83.0
55,18.6441878875,18.857328422916666,48.0,89.0
56,18.6441878875,18.862136104166666,55.0,87.0
57,18.6441878875,18.8941873125,64.0,91.0
58,19.413416887500002,19.820467233333336,62.0,83.0
59,19.413416887500002,19.887774770833335,50.0,91.0
60,19.413416887500002,19.980723275,57.0,69.0
61,20.1826458875,20.974310733333333,59.0,85.0
62,20.1826458875,20.98232353541667,55.0,81.0
63,20.9518748875,21.395784122916666,62.0,91.0
64,20.5672603875,21.443860935416666,50.0,79.0
65,21.336489387500002,21.488732627083333,55.0,87.0
66,20.1826458875,21.49514286875,43.0,89.0
67,21.7211038875,21.794821666666667,59.0,75.0
68,21.7211038875,22.450268877083335,67.0,84.0
69,21.7211038875,22.458281679166667,64.0,90.0
70,22.1057183875,22.80283216875,47.0,78.0
71,21.7211038875,22.820460333333333,40.0,91.0
72,22.4903328875,22.940652364583332,59.0,91.0
73,22.8749473875,22.964690770833332,64.0,93.0
74,23.259561887500002,23.4518691375,57.0,81.0
75,23.259561887500002,23.746740254166667,62.0,86.0
76,23.6441763875,23.894175812500002,57.0,84.0
77,23.259561887500002,24.075265139583333,50.0,85.0
78,24.0287908875,24.213085335416668,57.0,90.0
79,24.0287908875,24.22590581875,62.0,90.0
80,24.0287908875,24.2307135,66.0,84.0
81,24.7980198875,24.980711775,48.0,90.0
82,24.7980198875,24.987122016666667,55.0,83.0
83,24.7980198875,25.019173225,60.0,82.0
84,24.7980198875,25.0480193125,64.0,90.0
85,25.5672488875,25.785197104166667,38.0,91.0
86,25.5672488875,25.955068508333333,62.0,86.0
87,25.5672488875,25.959876189583333,66.0,81.0
88,25.5672488875,26.012760683333333,57.0,82.0
89,26.3364778875,26.9326303625,55.0,85.0
90,26.3364778875,26.939040604166667,62.0,86.0
91,27.105706887500002,27.224296358333334,55.0,85.0
92,26.7210923875,27.27397573125,50.0,90.0
93,26.3364778875,27.34769351041667,43.0,90.0
94,27.105706887500002,27.842884679166666,67.0,85.0
95,27.4903213875,27.849294920833334,55.0,99.0
96,27.105706887500002,27.8557051625,62.0,90.0
97,27.8749358875,28.66499817291667,67.0,86.0
98,27.8749358875,28.67461353541667,59.0,84.0
99,28.2595503875,28.741921072916668,47.0,74.0
100,27.8749358875,28.770767160416668,40.0,91.0
101,28.6441648875,28.948651366666667,64.0,91.0
102,29.4133938875,29.637752345833334,57.0,81.0
103,29.4133938875,30.224289458333335,66.0,81.0
104,30.182622887500003,30.286789314583334,62.0,90.0
105,29.4133938875,30.306020039583334,50.0,90.0
106,29.7980083875,30.318840522916666,57.0,83.0
107,30.951851887500002,31.16499242291667,48.0,89.0
108,30.951851887500002,31.16980010416667,55.0,87.0
109,30.951851887500002,31.2018513125,64.0,91.0
110,31.7210808875,32.128131233333335,62.0,83.0
111,31.7210808875,32.195438770833334,50.0,91.0
112,31.7210808875,32.288387275,57.0,69.0
113,32.490309887500004,33.281974733333335,59.0,85.0
114,32.490309887500004,33.28998753541667,55.0,81.0
115,33.2595388875,33.70344812291667,62.0,91.0
116,32.8749243875,33.75152493541667,50.0,79.0
117,33.6441533875,33.79639662708333,55.0,87.0
118,32.490309887500004,33.802806868750004,43.0,89.0
119,34.0287678875,34.10248566666667,59.0,75.0
120,34.0287678875,34.757932877083334,67.0,84.0
121,34.0287678875,34.76594567916667,64.0,90.0
122,34.4133823875,35.110496168750004,47.0,78.0
123,34.0287678875,35.12812433333333,40.0,91.0
124,34.7979968875,35.24831636458333,59.0,91.0
125,35.1826113875,35.27235477083333,64.0,93.0
126,35.5672258875,35.7595331375,57.0,81.0
127,35.5672258875,36.05440425416667,62.0,86.0
128,35.9518403875,36.2018398125,57.0,84.0
129,35.5672258875,36.38292913958333,50.0,85.0
130,36.336454887500004,36.52074933541667,57.0,90.0
131,36.336454887500004,36.53356981875,62.0,90.0
132,36.336454887500004,36.5383775,66.0,84.0
133,37.1056838875,37.288375775,48.0,90.0
134,37.1056838875,37.29478601666667,55.0,83.0
135,37.1056838875,37.326837225,60.0,82.0
136,37.1056838875,37.3556833125,64.0,90.0
137,37.8749128875,38.092861104166666,38.0,91.0
138,37.8749128875,38.262732508333336,62.0,86.0
139,37.8749128875,38.267540189583336,66.0,81.0
140,37.8749128875,38.320424683333336,57.0,82.0
141,38.6441418875,39.2402943625,55.0,85.0
142,38.6441418875,39.246704604166666,62.0,86.0
143,39.4133708875,39.531960358333336,55.0,85.0
144,39.0287563875,39.58163973125,50.0,90.0
145,38.6441418875,39.65535751041667,43.0,90.0
146,39.4133708875,40.15054867916667,67.0,85.0
147,39.7979853875,40.15695892083333,55.0,99.0
148,39.4133708875,40.163369162500004,62.0,90.0
149,40.182599887500004,40.655355210416666,64.0,90.0
150,40.182599887500004,40.753111395833336,67.0,86.0
151,40.182599887500004,41.46945590208333,52.0,92.0
152,40.9518288875,41.54958392291667,71.0,90.0
153,41.336443387500005,41.71945532708334,64.0,93.0
154,40.5672143875,41.78355774375,59.0,78.0
155,42.1056723875,42.35086413125,63.0,89.0
156,42.4902868875,42.96464477083333,63.0,92.0
157,41.7210578875,43.05118303333334,51.0,95.0
158,42.4902868875,43.334836227083336,71.0,91.0
159,42.8749013875,43.421374489583336,59.0,84.0
160,43.2595158875,44.08964218333333,62.0,90.0
161,43.2595158875,44.42778243125,50.0,92.0
162,44.028744887500004,44.442205475,67.0,85.0
163,44.028744887500004,44.47585924375,71.0,92.0
164,43.6441303875,44.480666925,59.0,86.0
165,44.4133593875,44.59124359375,62.0,92.0
166,44.7979738875,45.26752408958333,61.0,92.0
167,45.182588387500005,45.6633565125,57.0,91.0
168,45.5672028875,46.30277811875,61.0,76.0
169,45.9518173875,46.310790920833334,57.0,86.0
170,44.7979738875,46.31239348125,49.0,87.0
171,45.5672028875,46.320406283333334,69.0,85.0
172,45.5672028875,46.330021645833334,64.0,86.0
173,46.3364318875,46.85726402291667,64.0,90.0
174,46.3364318875,46.91816131875,60.0,83.0
175,47.1056608875,47.233865720833336,60.0,91.0
176,46.3364318875,47.4325832125,48.0,92.0
177,46.7210463875,47.445403695833335,55.0,83.0
178,47.1056608875,47.498288189583334,67.0,90.0
179,47.1056608875,47.50149331041667,64.0,94.0
180,47.4902753875,47.62649302291667,60.0,85.0
181,47.874889887500004,48.326811925,62.0,87.0
182,47.874889887500004,48.403734825,66.0,91.0
183,48.2595043875,48.7402725125,57.0,85.0
184,47.874889887500004,48.77552884166667,50.0,92.0
185,48.6441188875,49.22264319791667,62.0,94.0
186,49.028733387500004,49.33321986666667,66.0,91.0
187,49.4133478875,49.660142191666665,62.0,88.0
188,49.4133478875,49.6825780375,67.0,86.0
189,50.1825768875,50.65052452916667,55.0,90.0
190,49.7979623875,50.789947285416666,50.0,82.0
191,49.4133478875,50.85084458125,43.0,90.0
192,50.5671913875,50.886100910416665,57.0,96.0
193,50.9518058875,51.406933045833334,59.0,92.0
194,50.9518058875,51.45340729791667,55.0,90.0
195,51.721034887500004,51.9133421375,55.0,91.0
196,51.3364203875,51.91814981875,43.0,87.0
197,51.721034887500004,51.95661126875,59.0,95.0
198,51.721034887500004,51.98705991666667,62.0,92.0
199,52.4902638875,52.93898080416667,59.0,87.0
200,52.4902638875,52.956608968750004,64.0,90.0
201,52.874878387500004,53.34122346875,47.0,78.0
202,52.4902638875,53.35885163333334,40.0,92.0
203,53.2594928875,53.41814636875,59.0,91.0
204,53.2594928875,53.438979654166666,64.0,93.0
205,53.2594928875,53.480646225,67.0,90.0
206,54.028721887500005,54.25628546666667,63.0,84.0
207,54.028721887500005,54.5094900125,66.0,86.0
208,54.028721887500005,54.53352841875,69.0,81.0
209,54.4133363875,54.64250252708334,63.0,78.0
210,54.7979508875,55.09762968541667,63.0,90.0
211,54.7979508875,55.15532186041667,66.0,90.0
212,54.7979508875,55.22262939791667,69.0,90.0
213,54.028721887500005,55.49826978958333,51.0,84.0
214,55.567179887500004,56.035127529166665,62.0,89.0
215,55.567179887500004,56.0767941,66.0,89.0
216,56.3364088875,56.71461314583333,66.0,92.0
217,55.567179887500004,56.76589507916667,50.0,92.0
218,56.3364088875,56.81397189166667,69.0,90.0
219,56.721023387500004,56.85243334166667,62.0,88.0
220,55.9517943875,57.19057358958334,57.0,80.0
221,57.1056378875,57.362047554166665,64.0,69.0
222,57.1056378875,57.95820002916667,61.0,82.0
223,57.874866887500005,58.27230187083334,64.0,91.0
224,57.1056378875,58.29153259583334,49.0,84.0
225,57.874866887500005,58.29473771666667,69.0,90.0
226,57.4902523875,58.29634027708334,57.0,85.0
227,58.6440958875,59.163325462500005,64.0,92.0
228,58.6440958875,59.18896642916667,60.0,78.0
229,59.4133248875,59.58800397291667,60.0,90.0
230,59.4133248875,59.8364008375,67.0,87.0
231,59.4133248875,59.852426441666665,64.0,92.0
232,59.0287103875,59.86364436458334,55.0,85.0
233,58.6440958875,59.93896470416667,48.0,92.0
234,59.7979393875,59.993451758333336,60.0,83.0
235,60.1825538875,60.44537379583333,57.0,70.0
236,60.1825538875,60.67133481458333,62.0,82.0
237,60.567168387500004,61.057551875,57.0,90.0
238,60.1825538875,61.34280762916667,50.0,80.0
239,60.9517828875,61.37165371666667,62.0,92.0
240,60.9517828875,61.397294683333335,66.0,92.0
241,61.3363973875,61.488640627083335,57.0,90.0
242,61.721011887500005,61.99184459791667,59.0,82.0
243,61.721011887500005,62.09921614583334,64.0,88.0
244,62.4902408875,62.589599633333336,54.0,96.0
245,62.1056263875,63.023893506250005,47.0,78.0
246,62.8748553875,63.04152167083333,55.0,96.0
247,61.721011887500005,63.06876519791667,40.0,91.0
248,63.2594698875,63.47741810416667,55.0,91.0
249,63.2594698875,63.51267443333334,59.0,96.0
250,63.2594698875,63.57998197083334,64.0,92.0
251,64.0286988875,64.17933956666667,64.0,104.0
252,64.2210061375,64.34600585,66.0,94.0
253,64.4133133875,64.64247952708334,67.0,92.0
254,64.6056206375,64.76267155833334,69.0,91.0
255,63.2594698875,64.89728663333334,40.0,95.0
256,64.79792788750001,64.89728663333334,40.0,92.0
257,63.6440843875,64.90850455625001,47.0,90.0
258,64.79792788750001,65.09440156458334,67.0,92.0
259,64.99023513750001,65.28510625416666,59.0,86.0
260,65.1825423875,65.36042659375,64.0,90.0
261,65.3748496375,65.79472046666667,67.0,91.0
262,64.99023513750001,65.83959215833333,47.0,77.0
263,65.7594641375,66.04632245208333,59.0,91.0
264,65.9517713875,66.12805303333333,64.0,90.0
265,66.1440786375,66.23862970208333,67.0,86.0
266,66.3363858875,66.80753865,66.0,101.0
267,66.9133076375,67.1633070625,62.0,93.0
268,66.7210003875,67.16651218333334,59.0,93.0
269,67.1056148875,67.37003735625001,54.0,91.0
270,66.3363858875,67.37163991666667,47.0,92.0
271,67.2979221375,67.40849880625001,59.0,91.0
272,67.2979221375,67.53830620000001,62.0,92.0
273,67.2979221375,67.59760093541666,66.0,89.0
274,67.49022938750001,67.61042141875001,59.0,92.0
275,67.8748438875,68.00144616041666,55.0,84.0
276,67.8748438875,68.12804843333333,60.0,90.0
277,67.8748438875,68.24343278333333,48.0,95.0
278,68.0671511375,68.34118896875,55.0,90.0
279,68.2594583875,68.53029109791667,60.0,90.0
280,68.6440728875,68.84759806041667,57.0,86.0
281,68.6440728875,69.00625154166667,62.0,86.0
282,68.6440728875,69.02067458541667,38.0,96.0
283,68.8363801375,69.02227714583333,45.0,82.0
284,69.0286873875,69.2209946375,57.0,93.0
285,69.2209946375,69.32516106458334,62.0,87.0
286,69.4133018875,69.634455225,55.0,92.0
287,69.4133018875,69.71939092708334,59.0,92.0
288,69.7979163875,69.97740315416667,55.0,92.0
289,69.6056091375,70.08317214166667,50.0,86.0
290,69.99022363750001,70.11041566875001,55.0,84.0
291,69.99022363750001,70.365222775,62.0,99.0
292,70.18253088750001,70.49182504791666,50.0,90.0
293,69.4133018875,70.5382993,43.0,91.0
294,70.3748381375,70.62002988125,55.0,95.0
295,70.5671453875,70.64086316666666,59.0,92.0
296,70.9517598875,71.17772090625,59.0,90.0
297,70.9517598875,71.27547709166667,64.0,92.0
298,71.3363743875,71.62804038333334,59.0,92.0
299,71.5286816375,71.93893710416667,64.0,94.0
300,71.1440671375,72.00784720208334,47.0,84.0
301,70.9517598875,72.1248341125,40.0,93.0
302,71.9132961375,72.13284691458334,67.0,94.0
303,72.1056033875,72.32996184583334,64.0,90.0
304,72.2979106375,72.39085914166667,59.0,91.0
305,72.49021788750001,72.71938402708334,59.0,85.0
306,72.49021788750001,72.89085799166666,62.0,86.0
307,72.8748323875,72.96617833125,59.0,90.0
308,72.49021788750001,73.23861360208333,47.0,94.0
309,73.0671396375,73.29149809583333,59.0,93.0
310,73.0671396375,73.34598515,66.0,94.0
311,73.4517541375,73.47258742291667,59.0,76.0
312,73.2594468875,73.49662582916667,54.0,91.0
313,73.4517541375,73.63604858541667,62.0,104.0
314,73.6440613875,73.73861245208333,59.0,92.0
315,74.0286758875,74.2017524125,55.0,91.0
316,74.0286758875,74.40207246458334,60.0,89.0
317,74.0286758875,74.44373903541667,48.0,99.0
318,74.4132903875,74.65367445,55.0,91.0
319,74.6055976375,74.72578966875,60.0,93.0
320,74.7979048875,74.97899421458334,57.0,85.0
321,74.7979048875,75.15046817916667,62.0,88.0
322,74.99021213750001,75.24662180416667,45.0,90.0
323,74.7979048875,75.25463460625001,38.0,92.0
324,75.18251938750001,75.442134175,57.0,92.0
325,75.37482663750001,75.56072364583333,62.0,92.0
326,75.9517483875,76.10238906666667,52.0,99.0
327,76.1440556375,76.23379902083333,54.0,96.0
328,76.3363628875,76.58796487291667,55.0,92.0
329,76.5286701375,76.73059275,59.0,96.0
330,75.7594411375,76.88123342916667,47.0,82.0
331,75.5671338875,76.95975888958334,40.0,95.0
332,76.7209773875,76.96296401041667,64.0,97.0
333,76.9132846375,77.0286689875,55.0,89.0
334,77.1055918875,77.403668125,55.0,92.0
335,77.1055918875,77.56712928750001,64.0,93.0
336,77.68251363750001,77.77225702083334,55.0,86.0
337,77.4902063875,77.98860267708334,47.0,85.0
338,77.1055918875,78.02546156666666,40.0,96.0
339,77.87482088750001,78.0671281375,59.0,96.0
340,77.87482088750001,78.16488432291666,64.0,97.0
341,78.0671281375,78.288281475,55.0,92.0
342,78.2594353875,78.365204375,59.0,91.0
343,78.6440498875,78.84116481875,59.0,85.0
344,78.6440498875,78.95494660833333,62.0,90.0
345,79.0286643875,79.28507405416667,59.0,96.0
346,78.8363571375,79.3075099,54.0,74.0
347,79.2209716375,79.49981715,62.0,106.0
348,79.4132788875,79.60238101666667,54.0,91.0
349,78.6440498875,79.61840662083334,47.0,92.0
350,79.6055861375,79.80590618958334,66.0,101.0
351,79.7978933875,80.06391841666667,62.0,90.0
352,79.9902006375,80.08955938333334,59.0,92.0
353,80.18250788750001,80.38122537916666,60.0,91.0
354,80.18250788750001,80.48218668541666,48.0,93.0
355,80.37481513750001,80.5094302125,55.0,85.0
356,80.18250788750001,80.519045575,64.0,92.0
357,80.5671223875,80.68571185833333,60.0,91.0
358,80.9517368875,81.14724925833333,57.0,92.0
359,80.9517368875,81.28346689375,38.0,93.0
360,80.9517368875,81.30910786041667,62.0,90.0
361,81.1440441375,81.3171206625,45.0,83.0
362,81.3363513875,81.54147912083333,57.0,92.0
363,81.5286586375,81.64885066875,62.0,87.0
364,81.7209658875,81.92609362083334,55.0,82.0
365,81.7209658875,82.03987541041667,59.0,95.0
366,82.1055803875,82.24660570416667,55.0,93.0
367,81.9132731375,82.365195175,50.0,90.0
368,82.2978876375,82.55910498541667,62.0,99.0
369,82.4901948875,82.80910441041667,50.0,91.0
370,81.7209658875,82.83314281666667,43.0,91.0
371,82.68250213750001,82.84916842083334,55.0,96.0
372,82.87480938750001,82.96936045208334,62.0,92.0
373,83.2594238875,83.46775674166668,59.0,84.0
374,83.2594238875,83.6055769375,64.0,87.0
375,83.6440383875,83.79628162708333,59.0,92.0
376,83.8363456375,84.20012685208333,67.0,92.0
377,83.4517311375,84.33153680625,47.0,86.0
378,83.2594238875,84.34435728958334,40.0,93.0
379,84.2209601375,84.40044690416667,59.0,99.0
380,84.4132673875,84.53345941875,64.0,91.0
381,84.6055746375,84.7209589875,59.0,86.0
382,84.7978818875,84.98217633541667,59.0,91.0
383,84.7978818875,85.28025257291667,62.0,91.0
384,85.18249638750001,85.47576494375001,54.0,88.0
385,85.37480363750001,85.65364915,59.0,99.0
386,85.56711088750001,85.79627702708333,54.0,92.0
387,84.7978818875,85.87319992708333,47.0,92.0
388,85.7594181375,86.01743036458333,66.0,101.0
389,85.9517253875,86.12159679166668,59.0,92.0
390,86.3363398875,86.59755723541667,48.0,92.0
391,86.3363398875,86.69531342083333,60.0,90.0
392,86.3363398875,86.78185168333333,64.0,93.0
393,87.1055688875,87.21614555625,38.0,92.0
394,87.1055688875,87.39563232291667,66.0,86.0
395,87.1055688875,87.42928609166667,62.0,87.0
396,87.87479788750001,88.23216886041666,69.0,86.0
397,87.87479788750001,88.24178422291666,57.0,85.0
398,87.87479788750001,88.249797025,64.0,91.0
399,87.87479788750001,88.25300214583334,61.0,86.0
400,88.4517196375,88.68569345833333,57.0,96.0
401,88.4517196375,88.71774466666668,69.0,87.0
402,88.2594123875,88.98857737708333,52.0,78.0
403,88.8363341375,89.02543626666667,57.0,93.0
404,88.8363341375,89.09434636458333,69.0,88.0
405,89.2209486375,89.32030738333333,57.0,99.0
406,89.0286413875,89.48376854583334,52.0,91.0
407,89.4132558875,89.82030623333334,57.0,94.0
408,89.4132558875,89.85075488125,64.0,93.0
409,89.9901776375,90.095946625,57.0,92.0
410,89.7978703875,90.2017156125,52.0,90.0
411,90.1824848875,90.34915117083334,61.0,90.0
412,90.1824848875,90.35556141250001,57.0,92.0
413,90.1824848875,90.39883054375001,64.0,94.0
414,87.87479788750001,90.43889455416667,45.0,91.0
415,90.37479213750001,90.48857392708334,52.0,91.0
416,90.56709938750001,90.66806069375001,45.0,92.0
417,90.9517138875,91.04145727083333,36.0,90.0
418,90.9517138875,91.23536708125,55.0,91.0
419,90.9517138875,91.3074823,64.0,92.0
420,91.7209428875,91.8170965125,60.0,96.0
421,91.5286356375,92.06228825625,55.0,92.0
422,91.9132501375,92.10074970625,60.0,99.0
423,91.9132501375,92.23696734166667,67.0,93.0
424,92.1055573875,92.53985126041667,55.0,84.0
425,91.3363283875,92.61837672083334,48.0,86.0
426,92.4901718875,92.67927401666667,64.0,106.0
427,92.4901718875,92.68888937916667,60.0,97.0
428,93.25940088750001,94.00619404166667,59.0,91.0
429,93.25940088750001,94.01420684375,47.0,94.0
430,93.25940088750001,94.02702732708333,66.0,89.0
431,94.0286298875,94.32510356458333,67.0,92.0
432,94.2209371375,94.51580825416667,59.0,86.0
433,94.4132443875,94.59112859375,64.0,90.0
434,94.6055516375,95.02542246666667,67.0,91.0
435,94.2209371375,95.07029415833334,47.0,77.0
436,94.0286298875,95.10394792708334,40.0,92.0
437,94.9901661375,95.27702445208334,59.0,91.0
438,95.1824733875,95.35875503333334,64.0,90.0
439,95.37478063750001,95.46933170208334,67.0,86.0
440,95.56708788750001,96.03824065,66.0,101.0
441,96.1440096375,96.3940090625,62.0,93.0
442,95.9517023875,96.39721418333333,59.0,93.0
443,96.3363168875,96.60073935625,54.0,91.0
444,95.56708788750001,96.60234191666667,47.0,92.0
445,96.5286241375,96.63920080625,59.0,91.0
446,96.5286241375,96.7690082,62.0,92.0
447,96.5286241375,96.82830293541667,66.0,89.0
448,96.7209313875,96.84112341875,59.0,92.0
449,97.1055458875,97.23214816041667,55.0,84.0
450,97.1055458875,97.35875043333334,60.0,90.0
451,97.1055458875,97.47413478333334,48.0,95.0
452,97.2978531375,97.57189096875,55.0,90.0
453,97.4901603875,97.76099309791667,60.0,90.0
454,97.87477488750001,98.07830006041667,57.0,86.0
455,97.87477488750001,98.23695354166667,62.0,86.0
456,97.87477488750001,98.25137658541666,38.0,96.0
457,98.06708213750001,98.25297914583334,45.0,82.0
458,98.25938938750001,98.4516966375,57.0,93.0
459,98.4516966375,98.55586306458333,62.0,87.0
460,98.6440038875,98.865157225,55.0,92.0
461,98.6440038875,98.95009292708333,59.0,92.0
462,99.0286183875,99.20810515416667,55.0,92.0
463,98.8363111375,99.31387414166667,50.0,86.0
464,99.2209256375,99.34111766875,55.0,84.0
465,99.2209256375,99.595924775,62.0,99.0
466,99.4132328875,99.72252704791667,50.0,90.0
467,98.6440038875,99.7690013,43.0,91.0
468,99.6055401375,99.85073188125,55.0,95.0
469,99.7978473875,99.87156516666667,59.0,92.0
470,100.1824618875,100.40842290625001,59.0,90.0
471,100.1824618875,100.50617909166667,64.0,92.0
472,100.56707638750001,100.85874238333334,59.0,92.0
473,100.75938363750001,101.16963910416666,64.0,94.0
474,100.37476913750001,101.23854920208333,47.0,84.0
475,100.1824618875,101.3555361125,40.0,93.0
476,101.1439981375,101.36354891458333,67.0,94.0
477,101.3363053875,101.56066384583333,64.0,90.0
478,101.5286126375,101.62156114166667,59.0,91.0
479,101.7209198875,101.95008602708333,59.0,85.0
480,101.7209198875,102.12155999166667,62.0,86.0
481,102.1055343875,102.19688033125,59.0,90.0
482,101.7209198875,102.46931560208334,47.0,94.0
483,102.2978416375,102.52220009583334,59.0,93.0
484,102.2978416375,102.57668715,66.0,94.0
485,102.6824561375,102.70328942291667,59.0,76.0
486,102.4901488875,102.72732782916667,54.0,91.0
487,102.6824561375,102.86675058541667,62.0,104.0
488,102.8747633875,102.96931445208334,59.0,92.0
489,103.25937788750001,103.43245441250001,55.0,91.0
490,103.25937788750001,103.63277446458333,60.0,89.0
491,103.25937788750001,103.67444103541666,48.0,99.0
492,103.6439923875,103.88437645,55.0,91.0
493,103.8362996375,103.95649166875,60.0,93.0
494,104.0286068875,104.20969621458333,57.0,85.0
495,104.0286068875,104.38117017916667,62.0,88.0
496,104.2209141375,104.47732380416667,45.0,90.0
497,104.0286068875,104.48533660625,38.0,92.0
498,104.4132213875,104.672836175,57.0,92.0
499,104.6055286375,104.79142564583334,62.0,92.0
500,105.1824503875,105.33309106666667,52.0,99.0
501,105.3747576375,105.46450102083334,54.0,96.0
502,105.56706488750001,105.81866687291667,55.0,92.0
503,105.75937213750001,105.96129475000001,59.0,96.0
504,104.9901431375,106.11193542916666,47.0,82.0
505,104.7978358875,106.19046088958333,40.0,95.0
506,105.95167938750001,106.19366601041666,64.0,97.0
507,106.1439866375,106.2593709875,55.0,89.0
508,106.3362938875,106.634370125,55.0,92.0
509,106.3362938875,106.7978312875,64.0,93.0
510,106.9132156375,107.00295902083333,55.0,86.0
511,106.7209083875,107.21930467708334,47.0,85.0
512,106.3362938875,107.25616356666667,40.0,96.0
513,107.1055228875,107.2978301375,59.0,96.0
514,107.1055228875,107.39558632291667,64.0,97.0
515,107.2978301375,107.518983475,55.0,92.0
516,107.4901373875,107.595906375,59.0,91.0
517,107.8747518875,108.07186681875001,59.0,85.0
518,107.8747518875,108.18564860833334,62.0,90.0
519,108.25936638750001,108.51577605416666,59.0,96.0
520,108.06705913750001,108.53821190000001,54.0,74.0
521,108.45167363750001,108.73051915,62.0,106.0
522,108.6439808875,108.83308301666666,54.0,91.0
523,107.8747518875,108.84910862083333,47.0,92.0
524,108.8362881375,109.03660818958333,66.0,101.0
525,109.0285953875,109.29462041666667,62.0,90.0
526,109.2209026375,109.32026138333333,59.0,92.0
527,109.4132098875,109.61192737916667,60.0,91.0
528,109.4132098875,109.71288868541667,48.0,93.0
529,109.6055171375,109.7401322125,55.0,85.0
530,109.4132098875,109.749747575,64.0,92.0
531,109.7978243875,109.91641385833334,60.0,91.0
532,110.1824388875,110.37795125833334,57.0,92.0
533,110.1824388875,110.51416889375,38.0,93.0
534,110.1824388875,110.53980986041667,62.0,90.0
535,110.3747461375,110.54782266250001,45.0,83.0
536,110.56705338750001,110.77218112083334,57.0,92.0
537,110.75936063750001,110.87955266875001,62.0,87.0
538,110.95166788750001,111.15679562083334,55.0,82.0
539,110.95166788750001,111.27057741041666,59.0,95.0
540,111.3362823875,111.47730770416668,55.0,93.0
541,111.14397513750001,111.595897175,50.0,90.0
542,111.5285896375,111.78980698541667,62.0,99.0
543,111.7208968875,112.03980641041667,50.0,91.0
544,110.95166788750001,112.06384481666667,43.0,91.0
545,111.9132041375,112.07987042083333,55.0,96.0
546,112.1055113875,112.20006245208333,62.0,92.0
547,112.4901258875,112.69845874166667,59.0,84.0
548,112.4901258875,112.8362789375,64.0,87.0
549,112.8747403875,113.02698362708334,59.0,92.0
550,113.0670476375,113.43082885208334,67.0,92.0
551,112.6824331375,113.56223880625001,47.0,86.0
552,112.4901258875,113.57505928958334,40.0,93.0
553,113.45166213750001,113.63114890416666,59.0,99.0
554,113.64396938750001,113.76416141875,64.0,91.0
555,113.8362766375,113.9516609875,59.0,86.0
556,114.0285838875,114.21287833541668,59.0,91.0
557,114.0285838875,114.51095457291667,62.0,91.0
558,114.4131983875,114.70646694375,54.0,88.0
559,114.6055056375,114.88435115,59.0,99.0
560,114.7978128875,115.02697902708334,54.0,92.0
561,114.0285838875,115.10390192708334,47.0,92.0
562,114.9901201375,115.24813236458334,66.0,101.0
563,115.1824273875,115.35229879166667,59.0,92.0
564,115.5670418875,115.82825923541667,48.0,92.0
565,115.5670418875,115.92601542083334,60.0,90.0
566,115.5670418875,116.01255368333334,64.0,93.0
567,116.3362708875,116.44684755625,38.0,92.0
568,116.3362708875,116.62633432291668,66.0,86.0
569,116.3362708875,116.65998809166668,62.0,87.0
570,117.1054998875,117.46287086041667,69.0,86.0
571,117.1054998875,117.47248622291667,57.0,85.0
572,117.1054998875,117.480499025,64.0,91.0
573,117.1054998875,117.48370414583334,61.0,86.0
574,117.6824216375,117.91639545833334,57.0,96.0
575,117.6824216375,117.94844666666667,69.0,87.0
576,117.4901143875,118.21927937708334,52.0,78.0
577,118.0670361375,118.25613826666667,57.0,93.0
578,118.0670361375,118.32504836458334,69.0,88.0
579,118.45165063750001,118.55100938333334,57.0,99.0
580,118.25934338750001,118.71447054583334,52.0,91.0
581,118.64395788750001,119.05100823333333,57.0,94.0
582,118.64395788750001,119.08145688125,64.0,93.0
583,119.2208796375,119.326648625,57.0,92.0
584,119.0285723875,119.4324176125,52.0,90.0
585,119.4131868875,119.57985317083333,61.0,90.0
586,119.4131868875,119.5862634125,57.0,92.0
587,119.4131868875,119.62953254375,64.0,94.0
588,117.1054998875,119.66959655416667,45.0,91.0
589,119.6054941375,119.71927592708333,52.0,91.0
590,119.7978013875,119.89876269375,45.0,92.0
591,120.1824158875,120.27215927083334,36.0,90.0
592,120.1824158875,120.46606908125,55.0,91.0
593,120.1824158875,120.5381843,64.0,92.0
594,120.95164488750001,121.04779851250001,60.0,96.0
595,120.75933763750001,121.29299025625001,55.0,92.0
596,121.14395213750001,121.33145170625001,60.0,99.0
597,121.14395213750001,121.46766934166666,67.0,93.0
598,121.33625938750001,121.77055326041668,55.0,84.0
599,120.5670303875,121.84907872083333,48.0,86.0
600,121.7208738875,121.90997601666668,64.0,106.0
601,121.7208738875,121.91959137916668,60.0,97.0
602,122.4901028875,123.23689604166667,59.0,91.0
603,122.4901028875,123.24490884375001,47.0,94.0
604,122.4901028875,123.25772932708334,66.0,89.0
605,123.25933188750001,124.04939417291666,67.0,86.0
606,123.25933188750001,124.05900953541666,59.0,84.0
607,123.64394638750001,124.12631707291668,47.0,74.0
608,123.25933188750001,124.15516316041668,40.0,91.0
609,124.0285608875,124.33304736666668,64.0,91.0
610,124.7977898875,125.02214834583334,57.0,81.0
611,124.7977898875,125.60868545833334,66.0,81.0
612,125.5670188875,125.67118531458334,62.0,90.0
613,124.7977898875,125.69041603958334,50.0,90.0
614,125.1824043875,125.70323652291667,57.0,83.0
615,126.33624788750001,126.54938842291666,48.0,89.0
616,126.33624788750001,126.55419610416666,55.0,87.0
617,126.33624788750001,126.5862473125,64.0,91.0
618,127.1054768875,127.51252723333334,62.0,83.0
619,127.1054768875,127.57983477083334,50.0,91.0
620,127.1054768875,127.672783275,57.0,69.0
621,127.8747058875,128.66637073333334,59.0,85.0
622,127.8747058875,128.67438353541667,55.0,81.0
623,128.6439348875,129.08784412291666,62.0,91.0
624,128.2593203875,129.13592093541666,50.0,79.0
625,129.0285493875,129.18079262708335,55.0,87.0
626,127.8747058875,129.18720286875,43.0,89.0
627,129.4131638875,129.48688166666668,59.0,75.0
628,129.4131638875,130.14232887708334,67.0,84.0
629,129.4131638875,130.15034167916667,64.0,90.0
630,129.79777838750002,130.49489216875,47.0,78.0
631,129.4131638875,130.51252033333333,40.0,91.0
632,130.18239288750001,130.63271236458334,59.0,91.0
633,130.5670073875,130.65675077083333,64.0,93.0
634,130.9516218875,131.1439291375,57.0,81.0
635,130.9516218875,131.43880025416667,62.0,86.0
636,131.3362363875,131.5862358125,57.0,84.0
637,130.9516218875,131.76732513958333,50.0,85.0
638,131.7208508875,131.90514533541668,57.0,90.0
639,131.7208508875,131.91796581875,62.0,90.0
640,131.7208508875,131.9227735,66.0,84.0
641,132.4900798875,132.672771775,48.0,90.0
642,132.4900798875,132.67918201666666,55.0,83.0
643,132.4900798875,132.711233225,60.0,82.0
644,132.4900798875,132.7400793125,64.0,90.0
645,133.2593088875,133.47725710416668,38.0,91.0
646,133.2593088875,133.64712850833334,62.0,86.0
647,133.2593088875,133.65193618958332,66.0,81.0
648,133.2593088875,133.70482068333334,57.0,82.0
649,134.0285378875,134.6246903625,55.0,85.0
650,134.0285378875,134.63110060416668,62.0,86.0
651,134.79776688750002,134.91635635833333,55.0,85.0
652,134.4131523875,134.96603573125,50.0,90.0
653,134.0285378875,135.03975351041666,43.0,90.0
654,134.79776688750002,135.53494467916667,67.0,85.0
655,135.18238138750002,135.54135492083333,55.0,99.0
656,134.79776688750002,135.5477651625,62.0,90.0
657,135.5669958875,136.03975121041668,64.0,90.0
658,135.5669958875,136.13750739583332,67.0,86.0
659,135.5669958875,136.85385190208333,52.0,92.0
660,136.3362248875,136.93397992291668,71.0,90.0
661,136.7208393875,137.10385132708333,64.0,93.0
662,135.9516103875,137.16795374375,59.0,78.0
663,137.4900683875,137.73526013125002,63.0,89.0
664,137.8746828875,138.34904077083334,63.0,92.0
665,137.1054538875,138.43557903333334,51.0,95.0
666,137.8746828875,138.71923222708332,71.0,91.0
667,138.2592973875,138.80577048958332,59.0,84.0
668,138.6439118875,139.47403818333333,62.0,90.0
669,138.6439118875,139.81217843125,50.0,92.0
670,139.4131408875,139.82660147500002,67.0,85.0
671,139.4131408875,139.86025524375,71.0,92.0
672,139.0285263875,139.86506292500002,59.0,86.0
673,139.79775538750002,139.97563959375,62.0,92.0
674,140.18236988750002,140.65192008958334,61.0,92.0
675,140.5669843875,141.0477525125,57.0,91.0
676,140.9515988875,141.68717411875,61.0,76.0
677,141.3362133875,141.69518692083335,57.0,86.0
678,140.18236988750002,141.69678948125,49.0,87.0
679,140.9515988875,141.70480228333335,69.0,85.0
680,140.9515988875,141.71441764583335,64.0,86.0
681,141.7208278875,142.24166002291668,64.0,90.0
682,141.7208278875,142.30255731875002,60.0,83.0
683,142.4900568875,142.61826172083335,60.0,91.0
684,141.7208278875,142.8169792125,48.0,92.0
685,142.1054423875,142.82979969583334,55.0,83.0
686,142.4900568875,142.88268418958333,67.0,90.0
687,142.4900568875,142.88588931041667,64.0,94.0
688,142.8746713875,143.01088902291667,60.0,85.0
689,143.2592858875,143.711207925,62.0,87.0
690,143.2592858875,143.788130825,66.0,91.0
691,143.6439003875,144.1246685125,57.0,85.0
692,143.2592858875,144.15992484166668,50.0,92.0
693,144.0285148875,144.60703919791666,62.0,94.0
694,144.4131293875,144.71761586666668,66.0,91.0
695,144.7977438875,145.04453819166667,62.0,88.0
696,144.7977438875,145.06697403750002,67.0,86.0
697,145.56697288750001,146.03492052916667,55.0,90.0
698,145.18235838750002,146.17434328541668,50.0,82.0
699,144.7977438875,146.23524058125,43.0,90.0
700,145.9515873875,146.27049691041668,57.0,96.0
701,146.3362018875,146.79132904583335,59.0,92.0
702,146.3362018875,146.83780329791668,55.0,90.0
703,147.1054308875,147.2977381375,55.0,91.0
704,146.7208163875,147.30254581875,43.0,87.0
705,147.1054308875,147.34100726875,59.0,95.0
706,147.1054308875,147.37145591666666,62.0,92.0
707,147.8746598875,148.32337680416668,59.0,87.0
708,147.8746598875,148.34100496875,64.0,90.0
709,148.2592743875,148.72561946875,47.0,78.0
710,147.8746598875,148.74324763333334,40.0,92.0
711,148.6438888875,148.80254236875,59.0,91.0
712,148.6438888875,148.82337565416668,64.0,93.0
713,148.6438888875,148.865042225,67.0,90.0
714,149.4131178875,149.64068146666668,63.0,84.0
715,149.4131178875,149.8938860125,66.0,86.0
716,149.4131178875,149.91792441875,69.0,81.0
717,149.7977323875,150.02689852708335,63.0,78.0
718,150.18234688750002,150.48202568541666,63.0,90.0
719,150.18234688750002,150.53971786041666,66.0,90.0
720,150.18234688750002,150.60702539791666,69.0,90.0
721,149.4131178875,150.88266578958334,51.0,84.0
722,150.9515758875,151.41952352916667,62.0,89.0
723,150.9515758875,151.4611901,66.0,89.0
724,151.7208048875,152.09900914583335,66.0,92.0
725,150.9515758875,152.15029107916666,50.0,92.0
726,151.7208048875,152.19836789166666,69.0,90.0
727,152.1054193875,152.23682934166666,62.0,88.0
728,151.3361903875,152.57496958958333,57.0,80.0
729,152.4900338875,152.74644355416666,64.0,69.0
730,152.4900338875,153.34259602916669,61.0,82.0
731,153.2592628875,153.65669787083334,64.0,91.0
732,152.4900338875,153.67592859583334,49.0,84.0
733,153.2592628875,153.67913371666668,69.0,90.0
734,152.8746483875,153.68073627708333,57.0,85.0
735,154.0284918875,154.5477214625,64.0,92.0
736,154.0284918875,154.57336242916668,60.0,78.0
737,154.7977208875,154.97239997291666,60.0,90.0
738,154.7977208875,155.22079683750002,67.0,87.0
739,154.7977208875,155.23682244166667,64.0,92.0
740,154.4131063875,155.24804036458335,55.0,85.0
741,154.0284918875,155.32336070416667,48.0,92.0
742,155.18233538750002,155.37784775833333,60.0,83.0
743,155.56694988750002,155.82976979583333,57.0,70.0
744,155.56694988750002,156.05573081458334,62.0,82.0
745,155.9515643875,156.441947875,57.0,90.0
746,155.56694988750002,156.72720362916667,50.0,80.0
747,156.3361788875,156.75604971666667,62.0,92.0
748,156.3361788875,156.78169068333335,66.0,92.0
749,156.7207933875,156.87303662708334,57.0,90.0
750,157.1054078875,157.37624059791668,59.0,82.0
751,157.1054078875,157.48361214583335,64.0,88.0
752,157.8746368875,157.97399563333335,54.0,96.0
753,157.4900223875,158.40828950625001,47.0,78.0
754,158.2592513875,158.42591767083334,55.0,96.0
755,157.1054078875,158.45316119791667,40.0,91.0
756,158.6438658875,158.86181410416668,55.0,91.0
757,158.6438658875,158.89707043333334,59.0,96.0
758,158.6438658875,158.96437797083334,64.0,92.0
759,159.4130948875,159.56373556666668,64.0,104.0
760,159.6054021375,159.73040185,66.0,94.0
761,159.7977093875,160.02687552708335,67.0,92.0
762,159.9900166375,160.14706755833333,69.0,91.0
763,158.6438658875,160.28168263333333,40.0,95.0
764,160.18232388750002,160.28168263333333,40.0,92.0
765,159.0284803875,160.29290055625,47.0,90.0
766,160.18232388750002,160.47879756458335,67.0,92.0
767,160.37463113750002,160.66950225416667,59.0,86.0
768,160.56693838750002,160.74482259375,64.0,90.0
769,160.75924563750002,161.17911646666667,67.0,91.0
770,160.37463113750002,161.22398815833333,47.0,77.0
771,161.1438601375,161.43071845208334,59.0,91.0
772,161.3361673875,161.51244903333333,64.0,90.0
773,161.5284746375,161.62302570208334,67.0,86.0
774,161.7207818875,162.19193465,66.0,101.0
775,162.2977036375,162.5477030625,62.0,93.0
776,162.1053963875,162.55090818333335,59.0,93.0
777,162.4900108875,162.75443335625002,54.0,91.0
778,161.7207818875,162.75603591666666,47.0,92.0
779,162.6823181375,162.79289480625002,59.0,91.0
780,162.6823181375,162.9227022,62.0,92.0
781,162.6823181375,162.98199693541667,66.0,89.0
782,162.8746253875,162.99481741875002,59.0,92.0
783,163.2592398875,163.38584216041667,55.0,84.0
784,163.2592398875,163.51244443333334,60.0,90.0
785,163.2592398875,163.62782878333334,48.0,95.0
786,163.4515471375,163.72558496875,55.0,90.0
787,163.6438543875,163.91468709791667,60.0,90.0
788,164.0284688875,164.23199406041667,57.0,86.0
789,164.0284688875,164.39064754166668,62.0,86.0
790,164.0284688875,164.40507058541667,38.0,96.0
791,164.2207761375,164.40667314583334,45.0,82.0
792,164.4130833875,164.6053906375,57.0,93.0
793,164.6053906375,164.70955706458335,62.0,87.0
794,164.7976978875,165.018851225,55.0,92.0
795,164.7976978875,165.10378692708335,59.0,92.0
796,165.18231238750002,165.36179915416668,55.0,92.0
797,164.9900051375,165.46756814166667,50.0,86.0
798,165.37461963750002,165.49481166875,55.0,84.0
799,165.37461963750002,165.74961877500002,62.0,99.0
800,165.56692688750002,165.87622104791666,50.0,90.0
801,164.7976978875,165.92269530000002,43.0,91.0
802,165.75923413750002,166.00442588125,55.0,95.0
803,165.95154138750001,166.02525916666667,59.0,92.0
804,166.3361558875,166.56211690625,59.0,90.0
805,166.3361558875,166.65987309166667,64.0,92.0
806,166.7207703875,167.01243638333335,59.0,92.0
807,166.9130776375,167.32333310416666,64.0,94.0
808,166.5284631375,167.39224320208334,47.0,84.0
809,166.3361558875,167.5092301125,40.0,93.0
810,167.2976921375,167.51724291458333,67.0,94.0
811,167.4899993875,167.71435784583335,64.0,90.0
812,167.6823066375,167.77525514166666,59.0,91.0
813,167.8746138875,168.10378002708333,59.0,85.0
814,167.8746138875,168.27525399166666,62.0,86.0
815,168.2592283875,168.35057433125002,59.0,90.0
816,167.8746138875,168.62300960208333,47.0,94.0
817,168.4515356375,168.67589409583334,59.0,93.0
818,168.4515356375,168.73038115,66.0,94.0
819,168.8361501375,168.85698342291667,59.0,76.0
820,168.6438428875,168.88102182916668,54.0,91.0
821,168.8361501375,169.02044458541667,62.0,104.0
822,169.0284573875,169.12300845208333,59.0,92.0
823,169.4130718875,169.5861484125,55.0,91.0
824,169.4130718875,169.78646846458335,60.0,89.0
825,169.4130718875,169.82813503541666,48.0,99.0
826,169.7976863875,170.03807045,55.0,91.0
827,169.9899936375,170.11018566875,60.0,93.0
828,170.1823008875,170.36339021458335,57.0,85.0
829,170.1823008875,170.53486417916668,62.0,88.0
830,170.37460813750002,170.63101780416667,45.0,90.0
831,170.1823008875,170.63903060625,38.0,92.0
832,170.56691538750002,170.82653017500002,57.0,92.0
833,170.75922263750002,170.94511964583333,62.0,92.0
834,171.3361443875,171.48678506666667,52.0,99.0
835,171.5284516375,171.61819502083333,54.0,96.0
836,171.7207588875,171.97236087291668,55.0,92.0
837,171.9130661375,172.11498875,59.0,96.0
838,171.14383713750001,172.26562942916667,47.0,82.0
839,170.95152988750002,172.34415488958334,40.0,95.0
840,172.1053733875,172.34736001041668,64.0,97.0
841,172.2976806375,172.4130649875,55.0,89.0
842,172.4899878875,172.788064125,55.0,92.0
843,172.4899878875,172.9515252875,64.0,93.0
844,173.0669096375,173.15665302083335,55.0,86.0
845,172.8746023875,173.37299867708333,47.0,85.0
846,172.4899878875,173.40985756666666,40.0,96.0
847,173.2592168875,173.4515241375,59.0,96.0
848,173.2592168875,173.54928032291667,64.0,97.0
849,173.4515241375,173.672677475,55.0,92.0
850,173.6438313875,173.749600375,59.0,91.0
851,174.0284458875,174.22556081875,59.0,85.0
852,174.0284458875,174.33934260833334,62.0,90.0
853,174.4130603875,174.66947005416668,59.0,96.0
854,174.2207531375,174.6919059,54.0,74.0
855,174.6053676375,174.88421315,62.0,106.0
856,174.7976748875,174.98677701666668,54.0,91.0
857,174.0284458875,175.00280262083334,47.0,92.0
858,174.9899821375,175.19030218958335,66.0,101.0
859,175.1822893875,175.44831441666668,62.0,90.0
860,175.37459663750002,175.47395538333333,59.0,92.0
861,175.56690388750002,175.76562137916667,60.0,91.0
862,175.56690388750002,175.86658268541666,48.0,93.0
863,175.75921113750002,175.89382621250002,55.0,85.0
864,175.56690388750002,175.90344157500002,64.0,92.0
865,175.95151838750002,176.07010785833333,60.0,91.0
866,176.3361328875,176.53164525833333,57.0,92.0
867,176.3361328875,176.66786289375,38.0,93.0
868,176.3361328875,176.69350386041668,62.0,90.0
869,176.5284401375,176.7015166625,45.0,83.0
870,176.7207473875,176.92587512083333,57.0,92.0
871,176.9130546375,177.03324666875,62.0,87.0
872,177.1053618875,177.31048962083335,55.0,82.0
873,177.1053618875,177.42427141041668,59.0,95.0
874,177.4899763875,177.63100170416666,55.0,93.0
875,177.2976691375,177.749591175,50.0,90.0
876,177.6822836375,177.94350098541668,62.0,99.0
877,177.8745908875,178.19350041041668,50.0,91.0
878,177.1053618875,178.21753881666666,43.0,91.0
879,178.0668981375,178.23356442083335,55.0,96.0
880,178.2592053875,178.35375645208333,62.0,92.0
881,178.6438198875,178.85215274166669,59.0,84.0
882,178.6438198875,178.9899729375,64.0,87.0
883,179.0284343875,179.18067762708333,59.0,92.0
884,179.2207416375,179.58452285208335,67.0,92.0
885,178.8361271375,179.71593280625,47.0,86.0
886,178.6438198875,179.72875328958335,40.0,93.0
887,179.6053561375,179.78484290416668,59.0,99.0
888,179.7976633875,179.91785541875,64.0,91.0
889,179.9899706375,180.1053549875,59.0,86.0
890,180.1822778875,180.36657233541666,59.0,91.0
891,180.1822778875,180.66464857291666,62.0,91.0
892,180.56689238750002,180.86016094375,54.0,88.0
893,180.75919963750002,181.03804515000002,59.0,99.0
894,180.95150688750002,181.18067302708334,54.0,92.0
895,180.1822778875,181.25759592708334,47.0,92.0
896,181.14381413750002,181.40182636458334,66.0,101.0
897,181.33612138750001,181.50599279166667,59.0,92.0
898,181.7207358875,181.98195323541668,48.0,92.0
899,181.7207358875,182.07970942083332,60.0,90.0
900,181.7207358875,182.16624768333335,64.0,93.0
901,182.4899648875,182.60054155625,38.0,92.0
902,182.4899648875,182.78002832291668,66.0,86.0
903,182.4899648875,182.81368209166666,62.0,87.0
904,183.2591938875,183.61656486041667,69.0,86.0
905,183.2591938875,183.62618022291667,57.0,85.0
906,183.2591938875,183.634193025,64.0,91.0
907,183.2591938875,183.63739814583334,61.0,86.0
908,183.8361156375,184.07008945833334,57.0,96.0
909,183.8361156375,184.10214066666668,69.0,87.0
910,183.6438083875,184.37297337708333,52.0,78.0
911,184.2207301375,184.40983226666668,57.0,93.0
912,184.2207301375,184.47874236458333,69.0,88.0
913,184.6053446375,184.70470338333334,57.0,99.0
914,184.4130373875,184.86816454583334,52.0,91.0
915,184.7976518875,185.20470223333334,57.0,94.0
916,184.7976518875,185.23515088125,64.0,93.0
917,185.3745736375,185.480342625,57.0,92.0
918,185.1822663875,185.58611161250002,52.0,90.0
919,185.56688088750002,185.73354717083333,61.0,90.0
920,185.56688088750002,185.73995741250002,57.0,92.0
921,185.56688088750002,185.78322654375,64.0,94.0
922,183.2591938875,185.82329055416668,45.0,91.0
923,185.75918813750002,185.87296992708335,52.0,91.0
924,185.95149538750002,186.05245669375,45.0,92.0
925,186.33610988750002,186.63258356458334,67.0,92.0
926,186.5284171375,186.82328825416667,59.0,86.0
927,186.7207243875,186.89860859375,64.0,90.0
928,186.9130316375,187.33290246666667,67.0,91.0
929,186.5284171375,187.37777415833335,47.0,77.0
930,186.33610988750002,187.41142792708334,40.0,92.0
931,187.2976461375,187.58450445208334,59.0,91.0
932,187.4899533875,187.66623503333335,64.0,90.0
933,187.6822606375,187.77681170208334,67.0,86.0
934,187.8745678875,188.34572065,66.0,101.0
935,188.4514896375,188.7014890625,62.0,93.0
936,188.2591823875,188.70469418333334,59.0,93.0
937,188.6437968875,188.90821935625002,54.0,91.0
938,187.8745678875,188.9098219166667,47.0,92.0
939,188.8361041375,188.94668080625001,59.0,91.0
940,188.8361041375,189.0764882,62.0,92.0
941,188.8361041375,189.13578293541667,66.0,89.0
942,189.0284113875,189.14860341875,59.0,92.0
943,189.4130258875,189.53962816041667,55.0,84.0
944,189.4130258875,189.66623043333334,60.0,90.0
945,189.4130258875,189.78161478333334,48.0,95.0
946,189.6053331375,189.87937096875,55.0,90.0
947,189.7976403875,190.06847309791667,60.0,90.0
948,190.1822548875,190.38578006041666,57.0,86.0
949,190.1822548875,190.54443354166668,62.0,86.0
950,190.1822548875,190.55885658541666,38.0,96.0
951,190.3745621375,190.56045914583333,45.0,82.0
952,190.5668693875,190.75917663750002,57.0,93.0
953,190.75917663750002,190.86334306458335,62.0,87.0
954,190.95148388750002,191.17263722500002,55.0,92.0
955,190.95148388750002,191.25757292708334,59.0,92.0
956,191.33609838750002,191.51558515416667,55.0,92.0
957,191.14379113750002,191.62135414166667,50.0,86.0
958,191.52840563750001,191.64859766875,55.0,84.0
959,191.52840563750001,191.903404775,62.0,99.0
960,191.7207128875,192.03000704791668,50.0,90.0
961,190.95148388750002,192.0764813,43.0,91.0
962,191.9130201375,192.15821188125,55.0,95.0
963,192.1053273875,192.17904516666667,59.0,92.0
964,192.4899418875,192.71590290625,59.0,90.0
965,192.4899418875,192.81365909166666,64.0,92.0
966,192.8745563875,193.16622238333335,59.0,92.0
967,193.0668636375,193.47711910416666,64.0,94.0
968,192.6822491375,193.54602920208333,47.0,84.0
969,192.4899418875,193.6630161125,40.0,93.0
970,193.4514781375,193.67102891458333,67.0,94.0
971,193.6437853875,193.86814384583334,64.0,90.0
972,193.8360926375,193.92904114166666,59.0,91.0
973,194.0283998875,194.25756602708333,59.0,85.0
974,194.0283998875,194.42903999166668,62.0,86.0
975,194.4130143875,194.50436033125,59.0,90.0
976,194.0283998875,194.77679560208333,47.0,94.0
977,194.6053216375,194.82968009583334,59.0,93.0
978,194.6053216375,194.88416715,66.0,94.0
979,194.9899361375,195.01076942291667,59.0,76.0
980,194.7976288875,195.03480782916668,54.0,91.0
981,194.9899361375,195.17423058541667,62.0,104.0
982,195.1822433875,195.27679445208335,59.0,92.0
983,195.5668578875,195.73993441250002,55.0,91.0
984,195.5668578875,195.94025446458335,60.0,89.0
985,195.5668578875,195.98192103541666,48.0,99.0
986,195.95147238750002,196.19185645000002,55.0,91.0
987,196.14377963750002,196.26397166875,60.0,93.0
988,196.33608688750002,196.51717621458334,57.0,85.0
989,196.33608688750002,196.68865017916667,62.0,88.0
990,196.52839413750002,196.78480380416667,45.0,90.0
991,196.33608688750002,196.79281660625,38.0,92.0
992,196.72070138750001,196.980316175,57.0,92.0
993,196.9130086375,197.09890564583333,62.0,92.0
994,197.4899303875,197.64057106666667,52.0,99.0
995,197.6822376375,197.77198102083335,54.0,96.0
996,197.8745448875,198.12614687291668,55.0,92.0
997,198.0668521375,198.26877475,59.0,96.0
998,197.2976231375,198.41941542916666,47.0,82.0
999,197.1053158875,198.49794088958333,40.0,95.0
1000,198.2591593875,198.50114601041668,64.0,97.0
1001,198.4514666375,198.5668509875,55.0,89.0
1002,198.6437738875,198.941850125,55.0,92.0
1003,198.6437738875,199.1053112875,64.0,93.0
1004,199.2206956375,199.31043902083334,55.0,86.0
1005,199.0283883875,199.52678467708333,47.0,85.0
1006,198.6437738875,199.56364356666668,40.0,96.0
1007,199.4130028875,199.6053101375,59.0,96.0
1008,199.4130028875,199.70306632291667,64.0,97.0
1009,199.6053101375,199.826463475,55.0,92.0
1010,199.7976173875,199.903386375,59.0,91.0
1011,200.1822318875,200.37934681875,59.0,85.0
1012,200.1822318875,200.49312860833334,62.0,90.0
1013,200.5668463875,200.82325605416668,59.0,96.0
1014,200.3745391375,200.84569190000002,54.0,74.0
1015,200.75915363750002,201.03799915000002,62.0,106.0
1016,200.95146088750002,201.14056301666668,54.0,91.0
1017,200.1822318875,201.15658862083333,47.0,92.0
1018,201.14376813750002,201.34408818958335,66.0,101.0
1019,201.33607538750002,201.60210041666667,62.0,90.0
1020,201.52838263750002,201.62774138333333,59.0,92.0
1021,201.72068988750001,201.91940737916667,60.0,91.0
1022,201.72068988750001,202.02036868541668,48.0,93.0
1023,201.9129971375,202.0476122125,55.0,85.0
1024,201.72068988750001,202.057227575,64.0,92.0
1025,202.1053043875,202.22389385833333,60.0,91.0
1026,202.4899188875,202.68543125833335,57.0,92.0
1027,202.4899188875,202.82164889375,38.0,93.0
1028,202.4899188875,202.84728986041668,62.0,90.0
1029,202.6822261375,202.8553026625,45.0,83.0
1030,202.8745333875,203.07966112083335,57.0,92.0
1031,203.0668406375,203.18703266875,62.0,87.0
1032,203.2591478875,203.46427562083335,55.0,82.0
1033,203.2591478875,203.57805741041668,59.0,95.0
1034,203.6437623875,203.78478770416666,55.0,93.0
1035,203.4514551375,203.903377175,50.0,90.0
1036,203.8360696375,204.09728698541667,62.0,99.0
1037,204.0283768875,204.34728641041667,50.0,91.0
1038,203.2591478875,204.3713248166667,43.0,91.0
1039,204.2206841375,204.38735042083334,55.0,96.0
1040,204.4129913875,204.50754245208333,62.0,92.0
1041,204.7976058875,205.00593874166668,59.0,84.0
1042,204.7976058875,205.1437589375,64.0,87.0
1043,205.1822203875,205.33446362708335,59.0,92.0
1044,205.3745276375,205.73830885208335,67.0,92.0
1045,204.9899131375,205.86971880625,47.0,86.0
1046,204.7976058875,205.88253928958335,40.0,93.0
1047,205.7591421375,205.93862890416668,59.0,99.0
1048,205.95144938750002,206.07164141875,64.0,91.0
1049,206.14375663750002,206.25914098750002,59.0,86.0
1050,206.33606388750002,206.52035833541666,59.0,91.0
1051,206.33606388750002,206.8184345729167,62.0,91.0
1052,206.72067838750002,207.01394694375,54.0,88.0
1053,206.91298563750001,207.19183115,59.0,99.0
1054,207.1052928875,207.33445902708334,54.0,92.0
1055,206.33606388750002,207.41138192708334,47.0,92.0
1056,207.2976001375,207.55561236458334,66.0,101.0
1057,207.4899073875,207.65977879166667,59.0,92.0
1058,207.8745218875,208.13573923541668,48.0,92.0
1059,207.8745218875,208.23349542083335,60.0,90.0
1060,207.8745218875,208.32003368333335,64.0,93.0
1061,208.6437508875,208.75432755625002,38.0,92.0
1062,208.6437508875,208.93381432291667,66.0,86.0
1063,208.6437508875,208.96746809166666,62.0,87.0
1064,209.4129798875,209.77035086041667,69.0,86.0
1065,209.4129798875,209.77996622291667,57.0,85.0
1066,209.4129798875,209.787979025,64.0,91.0
1067,209.4129798875,209.79118414583334,61.0,86.0
1068,209.9899016375,210.22387545833334,57.0,96.0
1069,209.9899016375,210.25592666666668,69.0,87.0
1070,209.7975943875,210.52675937708335,52.0,78.0
1071,210.3745161375,210.56361826666668,57.0,93.0
1072,210.3745161375,210.63252836458335,69.0,88.0
1073,210.7591306375,210.85848938333334,57.0,99.0
1074,210.5668233875,211.02195054583333,52.0,91.0
1075,210.95143788750002,211.35848823333333,57.0,94.0
1076,210.95143788750002,211.38893688125,64.0,93.0
1077,211.52835963750002,211.63412862500002,57.0,92.0
1078,211.33605238750002,211.73989761250002,52.0,90.0
1079,211.72066688750002,211.88733317083333,61.0,90.0
1080,211.72066688750002,211.89374341250002,57.0,92.0
1081,211.72066688750002,211.93701254375,64.0,94.0
1082,209.4129798875,211.97707655416667,45.0,91.0
1083,211.91297413750002,212.02675592708334,52.0,91.0
1084,212.1052813875,212.20624269375,45.0,92.0
1085,212.4898958875,212.57963927083333,36.0,90.0
1086,212.4898958875,212.77354908125,55.0,91.0
1087,212.4898958875,212.8456643,64.0,92.0
1088,213.2591248875,213.3552785125,60.0,96.0
1089,213.0668176375,213.60047025625002,55.0,92.0
1090,213.4514321375,213.63893170625002,60.0,99.0
1091,213.4514321375,213.77514934166666,67.0,93.0
1092,213.6437393875,214.07803326041667,55.0,84.0
1093,212.8745103875,214.15655872083335,48.0,86.0
1094,214.0283538875,214.21745601666666,64.0,106.0
1095,214.0283538875,214.22707137916666,60.0,97.0
1096,214.7975828875,215.54437604166668,59.0,91.0
1097,214.7975828875,215.55238884375,47.0,94.0
1098,214.7975828875,215.56520932708335,66.0,89.0
1099,215.5668118875,216.32322040416668,67.0,88.0
1100,215.5668118875,216.35527161250002,52.0,84.0
1101,215.9514263875,216.44180987500002,59.0,81.0
1102,216.33604088750002,216.53796350000002,64.0,86.0
1103,217.4898843875,217.94821666666667,54.0,66.0
1104,217.10526988750001,217.95783202916667,66.0,79.0
1105,217.10526988750001,218.08763942291668,47.0,85.0
1106,217.8744988875,218.27033131041668,62.0,90.0
1107,218.6437278875,218.96904765208333,64.0,89.0
1108,218.6437278875,218.98347069583335,60.0,82.0
1109,218.6437278875,219.02673982708333,48.0,90.0
1110,219.4129568875,219.634110225,38.0,79.0
1111,219.4129568875,219.7206484875,66.0,83.0
1112,219.4129568875,219.77994322291667,62.0,79.0
1113,220.1821858875,220.60686439791667,62.0,81.0
1114,220.1821858875,220.61647976041667,67.0,82.0
1115,220.9514148875,221.14211957708335,71.0,87.0
1116,220.9514148875,221.19820919166668,62.0,88.0
1117,220.5668003875,221.29276025625,50.0,72.0
1118,220.1821858875,221.35846523333333,43.0,84.0
1119,221.33602938750002,221.69179780000002,66.0,90.0
1120,221.72064388750002,222.31359124166667,64.0,90.0
1121,221.72064388750002,222.35365525208334,67.0,83.0
1122,222.4898728875,222.63089820416667,64.0,91.0
1123,222.10525838750002,222.63570588541668,52.0,91.0
1124,222.4898728875,222.78314144375,71.0,88.0
1125,221.72064388750002,222.8744873875,40.0,91.0
1126,222.8744873875,222.99467941875,64.0,76.0
1127,223.23346092083335,224.03634368958333,71.0,89.0
1128,223.23826860208334,224.05557441458333,59.0,83.0
1129,223.61166517916666,224.09243330416666,54.0,75.0
1130,223.24628140416667,224.19018948958333,47.0,83.0
1131,224.0091001625,224.441791475,66.0,96.0
1132,224.403330025,224.518714375,59.0,90.0
1133,224.83762389791667,225.02993114791667,36.0,87.0
1134,224.88089302916669,225.93698034375,60.0,70.0
1135,225.02512346666668,226.25588986666668,64.0,86.0
1136,225.49307110833334,226.52832513750002,48.0,50.0
1137,225.85845488333334,226.59082499375,55.0,72.0
1138,226.24467194375,226.68858117916668,60.0,81.0
1139,226.64691460833333,227.38248983958334,64.0,90.0
1140,227.3664642354167,228.19498797083335,45.0,68.0
1141,227.18216978750002,228.28312879375,38.0,74.0
1142,227.50748955208334,229.44017741458333,66.0,65.0
1143,227.40813080625,229.47222862291667,62.0,73.0
1144,227.6244764625,229.48184398541667,69.0,82.0
1145,229.3167802625,229.85684312291667,67.0,83.0
1146,229.32319050416666,229.89209945208333,64.0,84.0
1147,230.1437014375,230.28472675416668,64.0,90.0
1148,229.7366510916667,230.30075235833334,59.0,75.0
1149,229.32479306458333,230.37767525833334,52.0,91.0
1150,230.5090852125,230.63087980416668,64.0,74.0
1151,230.14850911875,230.65491821041667,71.0,77.0
1152,230.91773811875,231.40331392500002,66.0,78.0
1153,230.9129304375,231.63728774583333,62.0,78.0
1154,231.29273725625,231.70459528333333,57.0,66.0
1155,230.91132787708335,231.77350538125,50.0,91.0
1156,231.71581320625,231.84241547916668,66.0,78.0
1157,231.72062088750002,231.89369741250002,69.0,81.0
1158,232.48984988750001,233.02510506666667,60.0,79.0
1159,232.48984988750001,233.27029681041668,67.0,83.0
1160,232.85202854166667,233.31837362291668,55.0,77.0
1161,232.49305500833333,233.42895029166667,48.0,90.0
1162,233.23824560208334,233.61965498125,64.0,90.0
1163,234.00266692083335,234.59721683541667,62.0,73.0
1164,233.99625667916666,234.61805012083335,67.0,78.0
1165,234.787921525,234.98183133541667,62.0,86.0
1166,234.7847164041667,234.9962543791667,67.0,86.0
1167,234.38888398125002,235.00266462083334,50.0,76.0
1168,233.9898464375,235.08119008125,43.0,86.0
1169,234.78631896458333,235.20458723333334,71.0,91.0
1170,235.15811298125,235.58920173333334,69.0,89.0
1171,235.55234284375,236.31355904166668,67.0,81.0
1172,235.54913772291667,236.42413571041666,52.0,91.0
1173,235.9225343,236.42894339166668,59.0,80.0
1174,236.31355904166668,236.74144267291666,64.0,92.0
1175,236.69336586041666,237.09721108541666,67.0,84.0
1176,237.08599316250002,237.92092713958334,66.0,88.0
1177,237.45778717916667,238.19496497083335,57.0,80.0
1178,237.08118548125,238.27509299166667,50.0,86.0
1179,237.87765800833333,238.37284917708334,62.0,93.0
1180,238.26868275,238.73342527083335,66.0,83.0
1181,238.71739966666667,239.65169238958333,67.0,84.0
1182,239.13887305625002,240.12765283333334,55.0,82.0
1183,239.59880789583335,240.1532938,60.0,91.0
1184,238.70297662291668,240.18374244791667,48.0,91.0
1185,240.09079394375001,240.64047216666668,67.0,74.0
1186,241.2782912125,241.46258566041666,38.0,92.0
1187,241.2302144,241.67572619583333,66.0,78.0
1188,241.16771454375,241.73181581041666,62.0,72.0
1189,241.33117570625,241.87123856666668,69.0,84.0
1190,242.49783968958334,242.65649317083333,64.0,79.0
1191,242.5683523479167,242.72380070833333,67.0,84.0
1192,242.54591650208334,242.76065959791669,40.0,90.0
1193,242.66130085208334,242.76065959791669,71.0,79.0
1194,242.73501863125,245.0635389166667,76.0,90.0
