,start,end,pitch,velocity
0,14.716862708333332,14.859325468749999,66.0,106.0
1,14.937450208333333,15.054177760416666,69.0,112.0
2,15.158037708333334,15.276603489583334,71.0,109.0
3,15.378625208333332,15.53211734375,74.0,101.0
4,15.599212708333333,15.916307239583332,73.0,112.0
5,16.040387708333334,16.13413739583333,71.0,106.0
6,16.26097520833333,16.355644010416665,69.0,106.0
7,16.481562708333332,17.340015729166666,71.0,109.0
8,18.246262708333333,18.3363359375,71.0,115.0
9,18.466850208333334,18.55508520833333,71.0,109.0
10,18.687437708333334,18.798650572916667,71.0,112.0
11,18.90802520833333,19.055083541666665,74.0,109.0
12,19.128612708333332,19.3951559375,71.0,115.0
13,19.569787708333333,19.906183645833334,69.0,112.0
14,20.010962708333334,21.061510677083334,66.0,112.0
15,21.775662708333332,21.911691666666666,66.0,106.0
16,21.996250208333333,22.08908078125,71.0,109.0
17,22.216837708333333,22.336322604166664,71.0,106.0
18,22.437425208333334,22.543123385416667,69.0,109.0
19,22.65801270833333,22.87492375,69.0,112.0
20,23.099187708333332,23.37951765625,66.0,115.0
21,23.540362708333333,24.098265260416667,64.0,112.0
22,25.30506270833333,25.393297708333332,64.0,115.0
23,25.52565020833333,25.620319010416665,64.0,109.0
24,25.746237708333332,25.8473403125,64.0,115.0
25,25.966825208333333,26.06884692708333,62.0,109.0
26,26.187412708333333,26.47877203125,64.0,115.0
27,26.62858770833333,26.927299947916666,67.0,115.0
28,27.069762708333332,27.71498114583333,66.0,106.0
29,28.834462708333334,28.97692546875,66.0,106.0
30,29.055050208333334,29.171777760416667,69.0,112.0
31,29.27563770833333,29.394203489583333,71.0,109.0
32,29.496225208333332,29.649717343749998,74.0,101.0
33,29.716812708333332,30.033907239583332,73.0,112.0
34,30.157987708333334,30.25173739583333,71.0,106.0
35,30.37857520833333,30.473244010416664,69.0,106.0
36,30.59916270833333,31.457615729166665,71.0,109.0
37,32.36386270833333,32.4539359375,71.0,115.0
38,32.58445020833333,32.672685208333334,71.0,109.0
39,32.80503770833333,32.91625057291667,71.0,112.0
40,33.02562520833333,33.172683541666665,74.0,109.0
41,33.24621270833333,33.512755937499996,71.0,115.0
42,33.68738770833333,34.02378364583333,69.0,112.0
43,34.128562708333334,35.17911067708333,66.0,112.0
44,35.89326270833333,36.029291666666666,66.0,106.0
45,36.11385020833333,36.20668078125,71.0,109.0
46,36.33443770833333,36.453922604166664,71.0,106.0
47,36.55502520833333,36.66072338541667,69.0,109.0
48,36.775612708333334,36.99252375,69.0,112.0
49,37.216787708333335,37.49711765625,66.0,115.0
50,37.65796270833333,38.21586526041666,64.0,112.0
51,39.20207520833333,39.33075125,66.0,109.0
52,39.422662708333334,39.52928,69.0,109.0
53,39.643250208333335,39.74894838541667,69.0,109.0
54,39.863837708333335,39.986079947916664,69.0,109.0
55,40.08442520833333,40.187366041666664,71.0,109.0
56,40.30501270833333,40.579827968749996,74.0,104.0
57,40.74618770833333,41.02284119791666,73.0,112.0
58,41.18736270833333,42.73698989583333,71.0,112.0
59,44.716762708333334,44.85003432291666,71.0,112.0
60,44.937350208333335,45.20297432291667,78.0,80.0
61,45.37852520833333,45.49525276041666,78.0,109.0
62,45.59911270833333,45.8822,78.0,104.0
63,46.04028770833333,46.32153677083333,76.0,106.0
64,46.48146270833333,48.001678229166664,76.0,115.0
65,48.24616270833333,48.34634619791667,76.0,115.0
66,48.46675020833333,48.793955,76.0,112.0
67,48.90792520833333,49.03016744791667,78.0,106.0
68,49.12851270833333,49.379430989583334,76.0,115.0
69,49.56968770833333,49.87023817708333,74.0,112.0
70,50.010862708333335,51.40883598958333,71.0,115.0
71,51.77556270833333,52.07427494791666,71.0,115.0
72,52.21673770833333,52.55772921875,78.0,109.0
73,52.657912708333335,52.94743380208333,76.0,115.0
74,53.09908770833333,53.317836979166664,74.0,115.0
75,53.31967520833333,53.538424479166665,74.0,115.0
76,53.54026270833333,53.65699026041666,71.0,115.0
77,53.76085020833333,53.89228359375,69.0,115.0
78,53.98143770833333,54.801287916666666,66.0,112.0
79,55.304962708333335,55.397793281249996,74.0,115.0
80,55.52555020833333,55.617461666666664,74.0,112.0
81,55.74613770833333,55.84080651041666,74.0,112.0
82,55.96672520833333,56.07058515625,71.0,112.0
83,56.18731270833333,56.476833802083334,74.0,112.0
84,56.62848770833333,56.90697942708333,78.0,109.0
85,57.06966270833333,58.33528348958333,78.0,112.0
86,58.83436270833333,58.93454619791667,78.0,109.0
87,59.05495020833333,59.34171395833333,78.0,109.0
88,59.49612520833333,59.60090427083333,78.0,109.0
89,59.71671270833333,60.027373437499996,78.0,112.0
90,60.157887708333334,60.508989479166665,74.0,101.0
91,60.599062708333335,61.775529375,76.0,112.0
92,62.36376270833333,62.46394619791666,76.0,112.0
93,62.58435020833333,62.917069687499996,76.0,112.0
94,63.025525208333335,63.14960567708333,78.0,109.0
95,63.24611270833333,63.51725151041666,76.0,118.0
96,63.68728770833333,63.99702932291667,74.0,115.0
97,64.12846270833333,65.48048026041667,71.0,115.0
98,65.89316270833334,66.21301458333333,71.0,115.0
99,66.33433770833334,66.63948375,78.0,109.0
100,66.77551270833334,67.09904104166667,76.0,112.0
101,67.21668770833332,67.31870942708333,74.0,109.0
102,67.43727520833333,67.55584098958333,74.0,109.0
103,67.65786270833333,67.76907557291666,71.0,115.0
104,67.87845020833333,68.03561880208333,69.0,109.0
105,68.09903770833333,68.95657161458332,66.0,112.0
106,69.42256270833333,69.5126359375,76.0,112.0
107,69.64315020833332,69.73781901041666,76.0,109.0
108,69.86373770833333,69.97678880208333,76.0,106.0
109,70.08432520833333,70.17256020833334,74.0,109.0
110,70.30491270833333,70.60822052083333,73.0,112.0
111,70.74608770833333,70.86557260416666,74.0,106.0
112,70.96667520833333,71.084321875,73.0,112.0
113,71.18726270833334,72.85545567708333,71.0,115.0
114,73.17255020833333,73.26078520833333,71.0,112.0
115,73.39313770833333,73.58890911458333,71.0,112.0
116,74.05490020833334,74.14773078125,71.0,112.0
117,74.27548770833333,74.37934765625,73.0,112.0
118,74.49607520833334,74.63945708333333,74.0,112.0
119,74.93725020833332,75.02180874999999,74.0,106.0
120,75.15783770833333,75.25985942708333,74.0,106.0
121,75.37842520833333,75.46941755208333,66.0,115.0
122,75.59901270833333,75.70195354166667,66.0,112.0
123,75.81960020833333,75.90048229166666,66.0,109.0
124,76.04018770833333,76.22584885416667,66.0,112.0
125,76.70195020833333,76.78926609375,71.0,112.0
126,76.92253770833334,77.02272119791667,71.0,112.0
127,77.14312520833333,77.23411755208333,66.0,115.0
128,77.36371270833332,77.44459479166666,71.0,115.0
129,77.58430020833333,77.66885875,71.0,115.0
130,77.80488770833333,77.90323296875,73.0,109.0
131,78.02547520833333,78.12565869791666,74.0,109.0
132,78.24606270833333,78.341650625,73.0,109.0
133,78.46665020833333,78.7497375,73.0,112.0
134,78.90782520833334,79.00617046875,71.0,112.0
135,79.12841270833333,79.21664770833333,70.0,120.0
136,79.34900020833334,79.43723520833333,71.0,104.0
137,79.56958770833333,79.88116755208333,71.0,112.0
138,80.23135020833332,80.31590874999999,71.0,112.0
139,80.45193770833333,80.54844473958333,71.0,115.0
140,80.67252520833333,80.75800286458333,66.0,115.0
141,80.89311270833333,80.96939921875,71.0,112.0
142,81.11370020833333,81.19550140625,71.0,109.0
143,81.33428770833333,81.42344182291666,73.0,112.0
144,81.55487520833333,81.650463125,74.0,109.0
145,81.99605020833333,82.08520432291667,74.0,112.0
146,82.21663770833334,82.31957854166666,74.0,109.0
147,82.43722520833333,82.52821755208333,66.0,112.0
148,82.65781270833332,82.74972416666667,66.0,109.0
149,82.87840020833333,82.98317927083333,66.0,112.0
150,83.09898770833333,83.38575145833333,66.0,112.0
151,83.76075020833333,83.84255140625,71.0,112.0
152,83.98133770833333,84.06681536458333,71.0,109.0
153,84.20192520833334,84.30486604166667,66.0,115.0
154,84.42251270833333,84.50431390625,71.0,115.0
155,84.64310020833334,84.74328369791667,71.0,115.0
156,84.86368770833333,84.9647903125,73.0,109.0
157,85.08427520833332,85.20927479166666,74.0,106.0
158,85.30486270833333,85.40228885416667,73.0,112.0
159,85.52545020833333,85.60908963541667,74.0,112.0
160,85.74603770833333,85.82691979166667,73.0,120.0
161,85.96662520833333,86.05577932291666,71.0,112.0
162,86.18721270833333,86.2883153125,70.0,112.0
163,86.40780020833333,86.49695432291666,71.0,109.0
164,86.62838770833334,86.90963677083333,71.0,109.0
165,101.18716270833333,101.32962546875,66.0,106.0
166,101.40775020833333,101.52447776041666,69.0,112.0
167,101.62833770833333,101.74690348958333,71.0,109.0
168,101.84892520833333,102.00241734375,74.0,101.0
169,102.06951270833333,102.38660723958333,73.0,112.0
170,102.51068770833334,102.60443739583333,71.0,106.0
171,102.73127520833333,102.82594401041666,69.0,106.0
172,102.95186270833334,103.81031572916666,71.0,109.0
173,104.71656270833333,104.80663593749999,71.0,115.0
174,104.93715020833334,105.02538520833333,71.0,109.0
175,105.15773770833333,105.26895057291667,71.0,112.0
176,105.37832520833334,105.52538354166667,74.0,109.0
177,105.59891270833333,105.8654559375,71.0,115.0
178,106.04008770833333,106.37648364583333,69.0,112.0
179,106.48126270833333,107.53181067708333,66.0,112.0
180,108.24596270833332,108.38199166666666,66.0,106.0
181,108.46655020833333,108.55938078125,71.0,109.0
182,108.68713770833332,108.80662260416666,71.0,106.0
183,108.90772520833333,109.01342338541666,69.0,109.0
184,109.12831270833333,109.34522375,69.0,112.0
185,109.56948770833333,109.84981765625,66.0,115.0
186,110.01066270833333,110.56856526041666,64.0,112.0
187,111.77536270833333,111.86359770833333,64.0,115.0
188,111.99595020833333,112.09061901041666,64.0,109.0
189,112.21653770833333,112.3176403125,64.0,115.0
190,112.43712520833333,112.53914692708334,62.0,109.0
191,112.65771270833334,112.94907203125,64.0,115.0
192,113.09888770833334,113.39759994791666,67.0,115.0
193,113.54006270833332,114.18528114583333,66.0,106.0
194,115.30476270833333,115.44722546874999,66.0,106.0
195,115.52535020833334,115.64207776041667,69.0,112.0
196,115.74593770833333,115.86450348958333,71.0,109.0
197,115.96652520833332,116.12001734374999,74.0,101.0
198,116.18711270833333,116.50420723958332,73.0,112.0
199,116.62828770833333,116.72203739583333,71.0,106.0
200,116.84887520833333,116.94354401041666,69.0,106.0
201,117.06946270833333,117.92791572916666,71.0,109.0
202,118.83416270833332,118.9242359375,71.0,115.0
203,119.05475020833333,119.14298520833333,71.0,109.0
204,119.27533770833332,119.38655057291666,71.0,112.0
205,119.49592520833333,119.64298354166667,74.0,109.0
206,119.71651270833333,119.9830559375,71.0,115.0
207,120.15768770833333,120.49408364583333,69.0,112.0
208,120.59886270833333,121.64941067708332,66.0,112.0
209,122.36356270833333,122.49959166666666,66.0,106.0
210,122.58415020833333,122.67698078125,71.0,109.0
211,122.80473770833333,122.92422260416666,71.0,106.0
212,123.02532520833333,123.13102338541667,69.0,109.0
213,123.24591270833334,123.46282375,69.0,112.0
214,123.68708770833334,123.96741765624999,66.0,115.0
215,124.12826270833332,124.68616526041666,64.0,112.0
216,125.67237520833334,125.80105125,66.0,109.0
217,125.89296270833333,125.99958,69.0,109.0
218,126.11355020833334,126.21924838541666,69.0,109.0
219,126.33413770833333,126.45637994791666,69.0,109.0
220,126.55472520833332,126.65766604166666,71.0,109.0
221,126.77531270833333,127.05012796874999,74.0,104.0
222,127.21648770833333,127.49314119791666,73.0,112.0
223,127.65766270833333,129.20728989583333,71.0,112.0
224,129.42236270833334,129.55563432291666,71.0,112.0
225,129.64295020833333,129.90857432291665,78.0,80.0
226,130.08412520833332,130.20085276041667,78.0,109.0
227,130.30471270833334,130.5878,78.0,104.0
228,130.74588770833333,131.02713677083332,76.0,106.0
229,131.18706270833334,132.70727822916666,76.0,115.0
230,132.95176270833332,133.05194619791666,76.0,115.0
231,133.17235020833334,133.499555,76.0,112.0
232,133.61352520833333,133.73576744791666,78.0,106.0
233,133.83411270833332,134.08503098958332,76.0,115.0
234,134.27528770833334,134.57583817708334,74.0,112.0
235,134.71646270833332,136.11443598958334,71.0,115.0
236,136.48116270833333,136.77987494791665,71.0,115.0
237,136.92233770833332,137.26332921875,78.0,109.0
238,137.36351270833333,137.65303380208334,76.0,115.0
239,137.80468770833332,138.02343697916666,74.0,115.0
240,138.02527520833334,138.24402447916665,74.0,115.0
241,138.24586270833333,138.36259026041665,71.0,115.0
242,138.46645020833333,138.59788359375,69.0,115.0
243,138.68703770833332,139.50688791666667,66.0,112.0
244,140.01056270833334,140.10339328125,74.0,115.0
245,140.23115020833333,140.32306166666666,74.0,112.0
246,140.45173770833333,140.54640651041666,74.0,112.0
247,140.67232520833332,140.77618515625,71.0,112.0
248,140.89291270833334,141.18243380208332,74.0,112.0
249,141.33408770833333,141.61257942708332,78.0,109.0
250,141.77526270833332,143.04088348958334,78.0,112.0
251,143.53996270833332,143.64014619791666,78.0,109.0
252,143.76055020833334,144.04731395833332,78.0,109.0
253,144.20172520833333,144.30650427083333,78.0,109.0
254,144.42231270833332,144.7329734375,78.0,112.0
255,144.86348770833334,145.21458947916668,74.0,101.0
256,145.30466270833332,146.481129375,76.0,112.0
257,147.06936270833333,147.16954619791667,76.0,112.0
258,147.28995020833332,147.6226696875,76.0,112.0
259,147.73112520833334,147.85520567708332,78.0,109.0
260,147.95171270833333,148.22285151041666,76.0,118.0
261,148.39288770833332,148.70262932291666,74.0,115.0
262,148.83406270833333,150.18608026041667,71.0,115.0
263,150.59876270833334,150.91861458333332,71.0,115.0
264,151.03993770833333,151.34508375,78.0,109.0
265,151.48111270833334,151.80464104166666,76.0,112.0
266,151.92228770833333,152.02430942708332,74.0,109.0
267,152.14287520833332,152.26144098958332,74.0,109.0
268,152.36346270833332,152.47467557291665,71.0,115.0
269,152.58405020833334,152.74121880208332,69.0,109.0
270,152.80463770833333,153.66217161458331,66.0,112.0
271,154.12816270833332,154.2182359375,76.0,112.0
272,154.34875020833334,154.44341901041668,76.0,109.0
273,154.56933770833334,154.68238880208332,76.0,106.0
274,154.78992520833333,154.87816020833333,74.0,109.0
275,155.01051270833332,155.31382052083333,73.0,112.0
276,155.45168770833334,155.57117260416666,74.0,106.0
277,155.67227520833333,155.789921875,73.0,112.0
278,155.89286270833333,157.56105567708332,71.0,115.0
279,171.77516270833334,171.90843432291666,71.0,112.0
280,171.99575020833333,172.26137432291665,78.0,80.0
281,172.43692520833332,172.55365276041667,78.0,109.0
282,172.65751270833331,172.9406,78.0,104.0
283,173.09868770833333,173.37993677083332,76.0,106.0
284,173.53986270833332,175.06007822916666,76.0,115.0
285,175.30456270833332,175.40474619791667,76.0,115.0
286,175.52515020833332,175.852355,76.0,112.0
287,175.96632520833333,176.08856744791666,78.0,106.0
288,176.18691270833332,176.43783098958332,76.0,115.0
289,176.62808770833334,176.92863817708331,74.0,112.0
290,177.06926270833333,178.46723598958332,71.0,115.0
291,178.83396270833333,179.13267494791666,71.0,115.0
292,179.27513770833332,179.61612921875,78.0,109.0
293,179.71631270833333,180.00583380208332,76.0,115.0
294,180.15748770833332,180.37623697916666,74.0,115.0
295,180.3780752083333,180.59682447916666,74.0,115.0
296,180.59866270833334,180.71539026041665,71.0,115.0
297,180.81925020833333,180.95068359375,69.0,115.0
298,181.03983770833332,181.85968791666667,66.0,112.0
299,182.36336270833334,182.45619328125,74.0,115.0
300,182.58395020833333,182.67586166666666,74.0,112.0
301,182.80453770833333,182.89920651041666,74.0,112.0
302,183.02512520833332,183.12898515625,71.0,112.0
303,183.24571270833331,183.53523380208333,74.0,112.0
304,183.68688770833333,183.96537942708332,78.0,109.0
305,184.12806270833332,185.39368348958334,78.0,112.0
306,185.89276270833332,185.99294619791667,78.0,109.0
307,186.11335020833332,186.40011395833332,78.0,109.0
308,186.55452520833333,186.65930427083333,78.0,109.0
309,186.77511270833332,187.0857734375,78.0,112.0
310,187.21628770833334,187.56738947916665,74.0,101.0
311,187.65746270833333,188.833929375,76.0,112.0
312,189.42216270833333,189.52234619791665,76.0,112.0
313,189.64275020833333,189.97546968749998,76.0,112.0
314,190.08392520833334,190.20800567708332,78.0,109.0
315,190.30451270833333,190.57565151041666,76.0,118.0
316,190.74568770833332,191.05542932291667,74.0,115.0
317,191.18686270833334,192.53888026041665,71.0,115.0
318,192.95156270833334,193.27141458333332,71.0,115.0
319,193.39273770833333,193.69788375,78.0,109.0
320,193.83391270833332,194.15744104166666,76.0,112.0
321,194.27508770833333,194.37710942708333,74.0,109.0
322,194.49567520833332,194.61424098958332,74.0,109.0
323,194.71626270833332,194.82747557291665,71.0,115.0
324,194.93685020833334,195.09401880208333,69.0,109.0
325,195.15743770833333,196.01497161458332,66.0,112.0
326,196.48096270833332,196.5710359375,76.0,112.0
327,196.70155020833332,196.79621901041665,76.0,109.0
328,196.92213770833334,197.03518880208333,76.0,106.0
329,197.14272520833333,197.23096020833333,74.0,109.0
330,197.36331270833332,197.66662052083333,73.0,112.0
331,197.80448770833334,197.92397260416666,74.0,106.0
332,198.02507520833333,198.142721875,73.0,112.0
333,198.24566270833333,199.91385567708332,71.0,115.0
334,200.01036270833333,200.33021458333332,71.0,115.0
335,200.45153770833332,200.75668375,78.0,109.0
336,200.89271270833333,201.21624104166665,76.0,112.0
337,201.33388770833332,201.43590942708332,74.0,109.0
338,201.55447520833332,201.6730409895833,74.0,109.0
339,201.77506270833334,201.88627557291667,71.0,115.0
340,201.99565020833333,202.15281880208332,69.0,109.0
341,202.21623770833332,203.07377161458334,66.0,112.0
342,203.55630677083332,203.7180709375,76.0,115.0
343,203.84307052083332,204.05630510416665,76.0,112.0
344,204.24656182291665,204.50207567708333,76.0,115.0
345,204.63167083333332,204.8375525,74.0,104.0
346,204.99931666666666,205.29343333333333,73.0,112.0
347,205.40740354166667,205.75482885416665,74.0,112.0
348,205.88258578125,207.33202947916666,73.0,118.0
349,207.32743390625,210.46988666666667,71.0,112.0
