,start,end,pitch,velocity
0,0.5992627083333333,1.06709203125,59.0,99.0
1,0.5992627083333333,1.0772022916666666,62.0,94.0
2,1.0404377083333334,1.4567966145833333,54.0,64.0
3,1.2610252083333333,1.80606015625,59.0,109.0
4,1.2610252083333333,1.8235233333333334,62.0,104.0
5,1.7022002083333332,2.113044427083333,54.0,85.0
6,1.9227877083333333,2.126831145833333,59.0,94.0
7,0.5992627083333333,2.2499925,47.0,104.0
8,2.363962708333333,2.896130052083333,59.0,104.0
9,2.363962708333333,2.89796828125,64.0,109.0
10,2.805137708333333,3.099254375,55.0,71.0
11,3.0257252083333332,3.3023786979166667,67.0,106.0
12,3.0257252083333332,3.3078933854166666,64.0,109.0
13,3.0257252083333332,3.3189227604166667,59.0,104.0
14,3.2463127083333334,3.4292165104166665,55.0,46.0
15,2.363962708333333,3.4724148958333334,52.0,106.0
16,3.466900208333333,3.6360172916666667,64.0,109.0
17,3.466900208333333,3.66450984375,59.0,104.0
18,4.128662708333334,4.62958015625,57.0,99.0
19,4.128662708333334,4.631418385416667,61.0,101.0
20,4.790425208333334,5.069836041666666,64.0,106.0
21,4.790425208333334,5.0790271874999995,61.0,106.0
22,4.790425208333334,5.08729921875,57.0,106.0
23,4.128662708333334,5.272960364583334,45.0,101.0
24,5.231600208333333,5.372224739583333,61.0,104.0
25,5.231600208333333,5.37406296875,64.0,106.0
26,5.231600208333333,5.399798177083333,57.0,104.0
27,5.893362708333333,6.279390833333333,54.0,94.0
28,5.893362708333333,6.293177552083333,61.0,99.0
29,5.893362708333333,6.313398072916667,58.0,101.0
30,6.334537708333333,6.5900515625,49.0,67.0
31,6.555125208333333,6.756411302083333,58.0,101.0
32,6.555125208333333,6.776631822916666,54.0,101.0
33,6.555125208333333,6.78582296875,66.0,104.0
34,6.775712708333333,7.00089578125,49.0,85.0
35,5.893362708333333,7.0312265625,42.0,106.0
36,6.996300208333333,7.176446666666666,54.0,101.0
37,6.996300208333333,7.216887708333333,58.0,113.0
38,6.996300208333333,7.268358125,61.0,106.0
39,7.216887708333333,7.306041822916667,49.0,89.0
40,7.437475208333333,7.4889456249999995,54.0,85.0
41,7.6580627083333335,7.953098489583333,59.0,99.0
42,7.6580627083333335,7.973319010416667,62.0,101.0
43,8.099237708333334,8.16449484375,59.0,91.0
44,7.878650208333333,8.3326928125,54.0,78.0
45,8.319825208333333,8.5146775,59.0,109.0
46,8.319825208333333,8.5146775,66.0,104.0
47,7.6580627083333335,8.82074265625,47.0,106.0
48,8.761000208333334,8.897029166666666,62.0,109.0
49,8.761000208333334,8.901624739583333,59.0,112.0
50,9.422762708333334,9.616695885416666,64.0,109.0
51,9.422762708333334,9.663570729166667,67.0,106.0
52,9.863937708333333,9.959525625,64.0,109.0
53,9.643350208333333,10.101069270833333,59.0,94.0
54,9.422762708333334,10.25731875,52.0,104.0
55,10.084525208333334,10.347391979166666,64.0,109.0
56,10.084525208333334,10.34831109375,67.0,109.0
57,10.305112708333333,10.512832604166666,59.0,89.0
58,10.525700208333333,10.678273229166667,64.0,112.0
59,10.525700208333333,10.680111458333332,67.0,115.0
60,11.187462708333333,11.489851406249999,64.0,109.0
61,11.187462708333333,11.523858645833332,70.0,113.0
62,11.628637708333333,11.720549166666666,64.0,87.0
63,11.408050208333332,11.891504479166667,61.0,85.0
64,11.187462708333333,11.9282690625,54.0,106.0
65,11.849225208333333,12.153452135416666,70.0,117.0
66,11.849225208333333,12.166319739583333,64.0,109.0
67,12.290400208333333,12.426429166666667,70.0,120.0
68,12.290400208333333,12.446649687499999,64.0,112.0
69,12.952162708333333,13.472381562499999,59.0,106.0
70,12.952162708333333,13.475138906249999,62.0,104.0
71,13.613925208333333,14.337268385416666,59.0,106.0
72,13.393337708333332,14.3381875,54.0,71.0
73,13.613925208333333,14.34094484375,66.0,106.0
74,13.613925208333333,14.342783072916665,62.0,106.0
75,12.952162708333333,14.369437395833334,47.0,104.0
76,14.716862708333332,15.233405104166666,59.0,106.0
77,14.716862708333332,15.247191822916665,62.0,101.0
78,15.378625208333332,15.544984947916666,66.0,104.0
79,15.378625208333332,15.547742291666665,62.0,104.0
80,15.378625208333332,15.560609895833332,59.0,106.0
81,15.158037708333334,15.944799791666666,54.0,66.0
82,15.819800208333334,16.165387291666665,59.0,106.0
83,15.819800208333334,16.366673385416668,62.0,104.0
84,16.26097520833333,16.368511614583333,59.0,101.0
85,14.716862708333332,16.391489479166665,47.0,106.0
86,16.481562708333332,16.96593609375,59.0,106.0
87,16.481562708333332,16.967774322916664,62.0,101.0
88,16.922737708333333,17.173655989583335,54.0,34.0
89,17.143325208333334,17.3216334375,66.0,104.0
90,17.143325208333334,17.337258385416668,62.0,109.0
91,17.143325208333334,17.366670052083332,59.0,109.0
92,17.363912708333334,17.657110260416665,54.0,54.0
93,17.58450020833333,17.849205208333334,59.0,112.0
94,17.58450020833333,17.860234583333334,62.0,106.0
95,17.805087708333332,17.865749270833334,54.0,74.0
96,16.481562708333332,17.93100640625,47.0,104.0
97,18.246262708333333,18.746261041666667,55.0,104.0
98,18.246262708333333,18.779349166666666,59.0,109.0
99,18.687437708333334,18.975120572916666,50.0,59.0
100,18.90802520833333,19.070708489583332,55.0,109.0
101,18.90802520833333,19.070708489583332,59.0,112.0
102,19.128612708333332,19.306001822916667,50.0,45.0
103,19.349200208333333,19.708574010416665,59.0,109.0
104,19.349200208333333,19.7701546875,55.0,109.0
105,18.246262708333333,19.838169166666667,43.0,106.0
106,20.010962708333334,20.53945359375,57.0,96.0
107,20.010962708333334,20.544049166666667,54.0,94.0
108,20.452137708333332,20.621254791666665,49.0,22.0
109,20.672725208333333,20.931915520833332,61.0,106.0
110,20.672725208333333,20.935591979166666,54.0,101.0
111,20.672725208333333,20.946621354166666,57.0,106.0
112,20.893312708333333,21.130444270833333,49.0,71.0
113,20.010962708333334,21.231546875,42.0,104.0
114,21.113900208333334,21.3087525,57.0,115.0
115,21.113900208333334,21.31150984375,54.0,112.0
116,21.775662708333332,22.286690416666666,59.0,104.0
117,21.775662708333332,22.28852864583333,62.0,96.0
118,22.216837708333333,22.460403072916666,54.0,62.0
119,22.437425208333334,22.61297609375,62.0,109.0
120,22.437425208333334,22.61297609375,66.0,104.0
121,22.437425208333334,22.64698333333333,59.0,106.0
122,22.65801270833333,22.931908854166664,54.0,69.0
123,21.775662708333332,23.002680677083333,47.0,106.0
124,22.87860020833333,23.058746666666664,62.0,109.0
125,22.87860020833333,23.06518046875,59.0,109.0
126,23.540362708333333,24.056905104166667,64.0,109.0
127,23.540362708333333,24.07528739583333,59.0,106.0
128,23.98153770833333,24.263705885416666,55.0,51.0
129,24.20212520833333,24.408925989583334,67.0,109.0
130,24.20212520833333,24.431903854166666,59.0,115.0
131,24.643300208333333,24.815174635416668,59.0,115.0
132,24.643300208333333,24.88502734375,64.0,115.0
133,24.422712708333332,25.014622499999998,55.0,61.0
134,23.540362708333333,25.038519479166666,52.0,106.0
135,25.084475208333334,25.1635190625,59.0,106.0
136,25.30506270833333,25.621238124999998,57.0,106.0
137,25.746237708333332,25.81700953125,57.0,78.0
138,25.30506270833333,25.83355359375,61.0,112.0
139,25.52565020833333,25.997155989583334,52.0,71.0
140,25.966825208333333,26.20303765625,64.0,109.0
141,25.966825208333333,26.2443978125,61.0,109.0
142,25.966825208333333,26.245316927083334,57.0,109.0
143,26.187412708333333,26.44384567708333,52.0,87.0
144,25.30506270833333,26.477852916666667,45.0,104.0
145,26.408000208333334,26.588146666666667,61.0,112.0
146,26.408000208333334,26.58906578125,64.0,112.0
147,26.408000208333334,26.61663921875,57.0,109.0
148,26.62858770833333,26.687411041666667,45.0,78.0
149,27.069762708333332,27.33998239583333,54.0,104.0
150,27.069762708333332,27.429136510416665,58.0,107.0
151,27.510937708333334,27.601930052083333,54.0,101.0
152,27.290350208333333,27.71406203125,49.0,54.0
153,27.731525208333334,27.959465625,58.0,120.0
154,27.731525208333334,27.959465625,66.0,109.0
155,27.731525208333334,27.9760096875,54.0,109.0
156,27.95211270833333,28.211303020833334,49.0,87.0
157,27.069762708333332,28.256339635416666,42.0,94.0
158,28.393287708333332,28.496228541666667,42.0,73.0
159,28.393287708333332,28.539426927083333,49.0,94.0
160,28.17270020833333,28.5495371875,54.0,109.0
161,28.17270020833333,28.559647447916667,58.0,120.0
162,28.17270020833333,28.587220885416667,61.0,109.0
163,28.834462708333334,29.351005104166667,59.0,106.0
164,28.834462708333334,29.364791822916665,62.0,101.0
165,29.496225208333332,29.662584947916667,66.0,104.0
166,29.496225208333332,29.665342291666665,62.0,104.0
167,29.496225208333332,29.678209895833334,59.0,106.0
168,29.27563770833333,30.062399791666667,54.0,66.0
169,29.937400208333333,30.282987291666664,59.0,106.0
170,29.937400208333333,30.484273385416667,62.0,104.0
171,30.37857520833333,30.486111614583333,59.0,101.0
172,28.834462708333334,30.509089479166665,47.0,106.0
173,30.59916270833333,31.08353609375,59.0,106.0
174,30.59916270833333,31.085374322916667,62.0,101.0
175,31.040337708333333,31.291255989583334,54.0,34.0
176,31.260925208333333,31.4392334375,66.0,104.0
177,31.260925208333333,31.454858385416667,62.0,109.0
178,31.260925208333333,31.484270052083332,59.0,109.0
179,31.481512708333334,31.774710260416665,54.0,54.0
180,31.70210020833333,31.966805208333334,59.0,112.0
181,31.70210020833333,31.977834583333333,62.0,106.0
182,31.92268770833333,31.983349270833333,54.0,74.0
183,30.59916270833333,32.04860640625,47.0,104.0
184,32.36386270833333,32.86386104166667,55.0,104.0
185,32.36386270833333,32.896949166666666,59.0,109.0
186,32.80503770833333,33.09272057291667,50.0,59.0
187,33.02562520833333,33.188308489583335,55.0,109.0
188,33.02562520833333,33.188308489583335,59.0,112.0
189,33.24621270833333,33.423601822916666,50.0,45.0
190,33.46680020833333,33.826174010416665,59.0,109.0
191,33.46680020833333,33.8877546875,55.0,109.0
192,32.36386270833333,33.95576916666666,43.0,106.0
193,34.128562708333334,34.65705359375,57.0,96.0
194,34.128562708333334,34.66164916666666,54.0,94.0
195,34.569737708333335,34.73885479166667,49.0,22.0
196,34.790325208333336,35.04951552083333,61.0,106.0
197,34.790325208333336,35.05319197916666,54.0,101.0
198,34.790325208333336,35.06422135416667,57.0,106.0
199,35.01091270833333,35.24804427083333,49.0,71.0
200,34.128562708333334,35.349146875,42.0,104.0
201,35.23150020833333,35.4263525,57.0,115.0
202,35.23150020833333,35.42910984375,54.0,112.0
203,35.89326270833333,36.40429041666667,59.0,104.0
204,35.89326270833333,36.406128645833334,62.0,96.0
205,36.33443770833333,36.578003072916665,54.0,62.0
206,36.55502520833333,36.730576093749995,62.0,109.0
207,36.55502520833333,36.730576093749995,66.0,104.0
208,36.55502520833333,36.764583333333334,59.0,106.0
209,36.775612708333334,37.04950885416667,54.0,69.0
210,35.89326270833333,37.12028067708333,47.0,106.0
211,36.996200208333335,37.17634666666667,62.0,109.0
212,36.996200208333335,37.182780468749996,59.0,109.0
213,37.65796270833333,38.17450510416666,64.0,109.0
214,37.65796270833333,38.19288739583333,59.0,106.0
215,38.09913770833333,38.381305885416666,55.0,51.0
216,38.31972520833333,38.526525989583334,67.0,109.0
217,38.31972520833333,38.549503854166666,59.0,115.0
218,38.76090020833333,38.93277463541666,59.0,115.0
219,38.76090020833333,39.00262734375,64.0,115.0
220,38.54031270833333,39.1322225,55.0,61.0
221,37.65796270833333,39.15611947916666,52.0,106.0
222,39.20207520833333,39.2811190625,59.0,106.0
223,39.422662708333334,39.6561178125,57.0,104.0
224,39.422662708333334,39.72321317708333,61.0,106.0
225,39.643250208333335,39.92449927083333,52.0,82.0
226,39.863837708333335,39.98056526041667,57.0,115.0
227,39.422662708333334,40.04857973958333,45.0,104.0
228,40.08442520833333,40.36291692708333,61.0,118.0
229,40.08442520833333,40.374865416666665,57.0,115.0
230,40.52560020833333,40.78019494791666,49.0,94.0
231,40.30501270833333,40.8252315625,42.0,96.0
232,40.74618770833333,40.85740057291667,54.0,112.0
233,40.74618770833333,40.983319270833334,57.0,115.0
234,40.96677520833333,41.04489994791667,54.0,104.0
235,41.18736270833333,41.67173609375,59.0,104.0
236,41.18736270833333,41.67633166666666,62.0,104.0
237,41.62853770833333,41.922654375,54.0,99.0
238,41.849125208333334,42.09085234375,66.0,109.0
239,41.849125208333334,42.10739640625,59.0,109.0
240,41.849125208333334,42.11199197916667,62.0,112.0
241,42.069712708333334,42.33349859375,54.0,99.0
242,42.290300208333335,42.510887708333335,59.0,115.0
243,42.290300208333335,42.5458140625,62.0,115.0
244,42.510887708333335,42.602799166666664,54.0,91.0
245,41.18736270833333,42.617505,47.0,104.0
246,42.73147520833333,42.85187921875,59.0,106.0
247,42.95206270833333,43.43000229166667,59.0,106.0
248,42.95206270833333,43.44930369791667,62.0,109.0
249,43.39323770833333,43.67356765625,54.0,99.0
250,43.61382520833333,43.873015520833334,66.0,112.0
251,43.61382520833333,43.920809479166664,62.0,115.0
252,43.61382520833333,43.92632416666667,59.0,115.0
253,43.83441270833333,44.15886015625,54.0,96.0
254,42.95206270833333,44.17999979166667,47.0,101.0
255,44.27558770833333,44.44562390625,54.0,101.0
256,44.05500020833333,44.44838125,59.0,118.0
257,44.05500020833333,44.45021947916666,62.0,118.0
258,44.27558770833333,44.46400619791667,47.0,99.0
259,44.716762708333334,45.191025833333335,62.0,109.0
260,44.716762708333334,45.21216546875,59.0,109.0
261,45.37852520833333,45.589921562499995,66.0,109.0
262,45.37852520833333,45.608303854166664,62.0,115.0
263,45.37852520833333,45.60922296875,59.0,112.0
264,45.157937708333336,45.93458953125,54.0,71.0
265,45.81970020833333,46.109221302083334,59.0,112.0
266,45.81970020833333,46.12576536458333,62.0,115.0
267,45.81970020833333,46.15517703125,66.0,112.0
268,46.04028770833333,46.314183854166664,54.0,80.0
269,46.26087520833333,46.3509484375,59.0,109.0
270,44.716762708333334,46.4060953125,47.0,106.0
271,46.48146270833333,46.98054192708333,59.0,109.0
272,46.48146270833333,46.982380156249995,64.0,112.0
273,46.92263770833333,47.236974895833335,55.0,82.0
274,47.143225208333334,47.389547916666665,67.0,112.0
275,47.143225208333334,47.400577291666664,64.0,115.0
276,47.143225208333334,47.41804046875,59.0,118.0
277,47.584400208333335,47.83899494791667,59.0,115.0
278,47.584400208333335,47.863811041666665,64.0,118.0
279,47.363812708333334,47.88678890625,55.0,80.0
280,46.48146270833333,47.95664161458333,52.0,104.0
281,48.02557520833333,48.110133749999996,59.0,109.0
282,48.24616270833333,48.57796307291667,57.0,112.0
283,48.24616270833333,48.613808541666664,61.0,109.0
284,48.46675020833333,48.93366041666666,52.0,91.0
285,48.90792520833333,49.15884348958333,64.0,112.0
286,48.90792520833333,49.18365958333333,61.0,115.0
287,48.90792520833333,49.19560807291666,57.0,115.0
288,49.12851270833333,49.413438229166665,52.0,91.0
289,48.24616270833333,49.47961447916666,45.0,106.0
290,49.34910020833333,49.58623177083333,57.0,109.0
291,49.34910020833333,49.621158125,61.0,109.0
292,49.790275208333334,49.8693190625,57.0,101.0
293,50.010862708333335,50.51361838541666,62.0,109.0
294,50.010862708333335,50.51545661458333,59.0,112.0
295,50.45203770833333,50.73328677083333,54.0,78.0
296,50.67262520833333,50.880345104166665,66.0,109.0
297,50.67262520833333,50.895050937499995,62.0,112.0
298,50.67262520833333,50.92446260416666,59.0,112.0
299,50.89321270833333,51.1321825,54.0,94.0
300,51.11380020833333,51.403321302083334,59.0,112.0
301,51.11380020833333,51.41710802083333,62.0,112.0
302,51.33438770833333,51.623908802083335,54.0,91.0
303,50.010862708333335,51.645967552083334,47.0,106.0
304,51.55497520833333,51.69284239583333,61.0,112.0
305,51.77556270833333,52.06140734375,59.0,106.0
306,51.77556270833333,52.09265723958333,62.0,106.0
307,52.21673770833333,52.31324473958333,59.0,109.0
308,51.99615020833333,52.441001666666665,54.0,74.0
309,52.437325208333334,52.6321775,59.0,115.0
310,52.437325208333334,52.63401572916666,66.0,109.0
311,51.77556270833333,52.9354853125,47.0,104.0
312,52.657912708333335,52.948352916666664,54.0,91.0
313,52.878500208333335,53.113793541666666,59.0,112.0
314,52.878500208333335,53.1560728125,62.0,115.0
315,53.09908770833333,53.20754322916667,47.0,71.0
316,53.54026270833333,53.74338703125,69.0,96.0
317,53.54026270833333,54.005334687499996,61.0,101.0
318,53.54026270833333,54.012687604166665,66.0,96.0
319,53.98143770833333,54.21673104166666,57.0,76.0
320,53.54026270833333,54.22776041666666,54.0,109.0
321,54.20202520833333,54.41893625,69.0,99.0
322,53.54026270833333,54.42077447916667,42.0,109.0
323,54.20202520833333,54.43180385416667,61.0,109.0
324,54.42261270833333,54.622060572916666,54.0,48.0
325,54.42261270833333,54.688236822916664,57.0,91.0
326,54.64320020833333,54.801287916666666,61.0,115.0
327,54.64320020833333,54.89136114583333,66.0,112.0
328,54.863787708333334,54.94375067708333,54.0,87.0
329,55.084375208333334,55.16525729166666,61.0,112.0
330,55.304962708333335,55.56874859375,55.0,112.0
331,55.304962708333335,55.6321675,59.0,112.0
332,55.74613770833333,55.835291822916666,55.0,104.0
333,55.52555020833333,55.991541302083334,50.0,73.0
334,55.96672520833333,56.3104740625,55.0,118.0
335,55.96672520833333,56.31415052083333,59.0,118.0
336,56.18731270833333,56.4979734375,50.0,89.0
337,56.40790020833333,56.66984786458333,55.0,115.0
338,56.40790020833333,56.7075315625,59.0,118.0
339,55.304962708333335,56.760840208333335,43.0,106.0
340,56.62848770833333,56.76543578125,50.0,87.0
341,56.84907520833333,56.932714635416666,55.0,104.0
342,57.29025020833333,57.361941145833335,54.0,99.0
343,57.29025020833333,57.361941145833335,58.0,96.0
344,57.510837708333334,57.584366875,54.0,101.0
345,57.510837708333334,57.59815359375,58.0,117.0
346,57.06966270833333,57.82241755208333,42.0,106.0
347,57.731425208333334,57.97866703125,58.0,123.0
348,57.731425208333334,58.00715958333333,54.0,115.0
349,57.731425208333334,58.033813906249996,61.0,115.0
350,57.952012708333335,58.27737927083333,49.0,106.0
351,57.952012708333335,58.30035713541667,42.0,99.0
352,58.17260020833333,58.44925369791667,54.0,112.0
353,58.17260020833333,58.47590802083333,58.0,123.0
354,58.17260020833333,58.53105489583333,61.0,112.0
355,58.39318770833333,58.56690036458333,42.0,101.0
356,58.61377520833333,58.686385260416664,61.0,20.0
357,58.61377520833333,58.69925286458333,54.0,106.0
358,58.17260020833333,58.75623796875,66.0,109.0
359,58.83436270833333,59.30862583333333,62.0,109.0
360,58.83436270833333,59.32976546875,59.0,109.0
361,59.49612520833333,59.7075215625,66.0,109.0
362,59.49612520833333,59.72590385416667,62.0,115.0
363,59.49612520833333,59.72682296875,59.0,112.0
364,59.27553770833333,60.05218953125,54.0,71.0
365,59.93730020833333,60.22682130208333,59.0,112.0
366,59.93730020833333,60.24336536458333,62.0,115.0
367,59.93730020833333,60.27277703125,66.0,112.0
368,60.157887708333334,60.43178385416667,54.0,80.0
369,60.378475208333334,60.4685484375,59.0,109.0
370,58.83436270833333,60.523695312499996,47.0,106.0
371,60.599062708333335,61.09814192708333,59.0,109.0
372,60.599062708333335,61.09998015625,64.0,112.0
373,61.04023770833333,61.35457489583333,55.0,82.0
374,61.26082520833333,61.50714791666667,67.0,112.0
375,61.26082520833333,61.51817729166667,64.0,115.0
376,61.26082520833333,61.535640468749996,59.0,118.0
377,61.70200020833333,61.95659494791666,59.0,115.0
378,61.70200020833333,61.98141104166667,64.0,118.0
379,61.48141270833333,62.00438890625,55.0,80.0
380,60.599062708333335,62.07424161458333,52.0,104.0
381,62.14317520833333,62.22773375,59.0,109.0
382,62.36376270833333,62.69556307291666,57.0,112.0
383,62.36376270833333,62.73140854166667,61.0,109.0
384,62.58435020833333,63.051260416666665,52.0,91.0
385,63.025525208333335,63.27644348958333,64.0,112.0
386,63.025525208333335,63.301259583333334,61.0,115.0
387,63.025525208333335,63.313208072916666,57.0,115.0
388,63.24611270833333,63.53103822916666,52.0,91.0
389,62.36376270833333,63.59721447916667,45.0,106.0
390,63.46670020833333,63.70383177083333,57.0,109.0
391,63.46670020833333,63.738758125,61.0,109.0
392,63.90787520833333,63.9869190625,57.0,101.0
393,64.12846270833333,64.63121838541666,62.0,109.0
394,64.12846270833333,64.63305661458332,59.0,112.0
395,64.56963770833333,64.85088677083333,54.0,78.0
396,64.79022520833333,64.99794510416666,66.0,109.0
397,64.79022520833333,65.0126509375,62.0,112.0
398,64.79022520833333,65.04206260416666,59.0,112.0
399,65.01081270833333,65.2497825,54.0,94.0
400,65.23140020833333,65.52092130208334,59.0,112.0
401,65.23140020833333,65.53470802083334,62.0,112.0
402,65.45198770833333,65.74150880208333,54.0,91.0
403,64.12846270833333,65.76356755208333,47.0,106.0
404,65.67257520833333,65.81044239583333,61.0,112.0
405,65.89316270833334,66.17900734375,59.0,106.0
406,65.89316270833334,66.21025723958333,62.0,106.0
407,66.33433770833334,66.43084473958334,59.0,109.0
408,66.11375020833333,66.55860166666666,54.0,74.0
409,66.55492520833333,66.7497775,59.0,115.0
410,66.55492520833333,66.75161572916666,66.0,109.0
411,65.89316270833334,67.0530853125,47.0,104.0
412,66.77551270833334,67.06595291666666,54.0,91.0
413,66.99610020833333,67.23139354166666,59.0,112.0
414,66.99610020833333,67.2736728125,62.0,115.0
415,67.21668770833332,67.32514322916667,47.0,71.0
416,67.65786270833333,67.86098703125,69.0,96.0
417,67.65786270833333,68.12293468749999,61.0,101.0
418,67.65786270833333,68.13028760416667,66.0,96.0
419,68.09903770833333,68.33433104166666,57.0,76.0
420,67.65786270833333,68.34536041666667,54.0,109.0
421,68.31962520833333,68.53653625,69.0,99.0
422,67.65786270833333,68.53837447916666,42.0,109.0
423,68.31962520833333,68.54940385416667,61.0,109.0
424,68.54021270833333,68.73966057291666,54.0,48.0
425,68.54021270833333,68.80583682291666,57.0,91.0
426,68.76080020833334,68.91888791666666,61.0,115.0
427,68.76080020833334,69.00896114583333,66.0,112.0
428,68.98138770833333,69.06135067708333,54.0,87.0
429,69.20197520833334,69.28285729166666,61.0,112.0
430,69.42256270833333,69.68451036458333,57.0,104.0
431,69.42256270833333,69.7111646875,61.0,109.0
432,69.42256270833333,69.7111646875,64.0,109.0
433,69.86373770833333,69.96116385416667,57.0,115.0
434,69.64315020833332,69.96667854166667,52.0,76.0
435,69.42256270833333,70.07145760416667,45.0,112.0
436,70.08432520833333,70.34259640625,64.0,112.0
437,70.08432520833333,70.35730223958333,61.0,115.0
438,70.08432520833333,70.38211833333334,57.0,115.0
439,70.52550020833333,70.841675625,49.0,85.0
440,70.74608770833333,70.84810942708333,54.0,109.0
441,70.30491270833333,70.88763135416666,42.0,104.0
442,70.74608770833333,71.01630739583334,57.0,115.0
443,70.96667520833333,71.04296171874999,54.0,104.0
444,70.74608770833333,71.0567484375,61.0,112.0
445,71.18726270833334,71.46667354166667,59.0,112.0
446,71.18726270833334,71.4868940625,62.0,112.0
447,71.62843770833334,71.69553307291666,59.0,101.0
448,71.40785020833333,71.911525,54.0,85.0
449,71.84902520833333,72.21115635416666,66.0,106.0
450,71.84902520833333,72.22310484375,62.0,106.0
451,71.84902520833333,72.22953864583333,59.0,112.0
452,72.06961270833334,72.39314104166667,54.0,106.0
453,72.51078770833332,72.65876515625,54.0,104.0
454,71.18726270833334,72.84718364583333,47.0,109.0
455,72.29020020833333,72.85545567708333,59.0,115.0
456,72.29020020833333,72.87199973958333,62.0,112.0
457,72.73137520833333,72.8765953125,54.0,106.0
458,72.29020020833333,72.88670557291667,66.0,112.0
459,72.95196270833333,73.09810192708333,59.0,101.0
460,72.95196270833333,73.10453572916667,66.0,101.0
461,72.95196270833333,73.10729307291666,62.0,104.0
462,73.17255020833333,73.33431437499999,59.0,112.0
463,73.17255020833333,73.34074817708333,66.0,106.0
464,73.17255020833333,73.34166729166667,62.0,109.0
465,72.95196270833333,73.55398276041666,47.0,109.0
466,73.61372520833334,73.78284229166667,59.0,106.0
467,73.61372520833334,73.78468052083333,66.0,106.0
468,73.61372520833334,73.78559963541666,62.0,104.0
469,74.05490020833334,74.29570822916666,59.0,109.0
470,74.05490020833334,74.36096536458334,62.0,109.0
471,74.49607520833334,74.59442046875,62.0,55.0
472,74.05490020833334,74.5971778125,66.0,106.0
473,74.49607520833334,74.62107479166666,59.0,99.0
474,74.71666270833333,74.834309375,59.0,106.0
475,74.71666270833333,74.84074317708333,62.0,104.0
476,74.93725020833332,75.06316890625,59.0,106.0
477,74.93725020833332,75.0714409375,62.0,101.0
478,75.15783770833333,75.44460145833334,54.0,87.0
479,75.37842520833333,75.65967427083334,66.0,112.0
480,75.37842520833333,75.67897567708333,62.0,112.0
481,75.37842520833333,75.68081390625,59.0,115.0
482,75.81960020833333,76.09717281249999,59.0,112.0
483,75.81960020833333,76.14496677083334,62.0,112.0
484,75.81960020833333,76.1633490625,66.0,109.0
485,76.04018770833333,76.24698848958333,54.0,76.0
486,74.71666270833333,76.35268666666667,47.0,109.0
487,76.26077520833333,76.35544401041666,62.0,52.0
488,76.26077520833333,76.38761302083333,59.0,99.0
489,76.48136270833334,76.61831078125,59.0,109.0
490,76.48136270833334,76.62014901041667,62.0,106.0
491,76.70195020833333,76.92069947916666,59.0,109.0
492,76.70195020833333,76.92253770833334,62.0,104.0
493,77.14312520833333,77.44643302083333,66.0,112.0
494,77.14312520833333,77.45838151041666,62.0,112.0
495,77.14312520833333,77.459300625,59.0,115.0
496,77.36371270833332,77.60543984374999,54.0,62.0
497,76.48136270833334,77.76536578125,47.0,109.0
498,77.58430020833333,77.77088046875,59.0,115.0
499,77.58430020833333,77.81959354166666,66.0,109.0
500,77.58430020833333,77.82327,62.0,112.0
501,78.24606270833333,78.48227515625,54.0,104.0
502,78.24606270833333,78.53926026041667,58.0,113.0
503,78.24606270833333,78.54109848958333,61.0,101.0
504,78.68723770833333,78.77823005208333,54.0,101.0
505,78.46665020833333,78.93080307291666,49.0,85.0
506,78.90782520833334,79.12933182291667,66.0,106.0
507,78.90782520833334,79.14495677083333,54.0,109.0
508,78.90782520833334,79.15874348958333,58.0,120.0
509,79.12841270833333,79.33153703125,49.0,82.0
510,78.24606270833333,79.34256640625,42.0,106.0
511,79.34900020833334,79.52087463541666,54.0,109.0
512,79.34900020833334,79.54752895833333,58.0,120.0
513,79.34900020833334,79.58061708333334,61.0,115.0
514,79.34900020833334,79.64403598958333,66.0,101.0
515,79.56958770833333,79.65782270833333,42.0,104.0
516,80.01076270833333,80.15690192708333,59.0,101.0
517,80.01076270833333,80.16333572916666,66.0,101.0
518,80.01076270833333,80.16609307291667,62.0,104.0
519,80.23135020833332,80.393114375,59.0,112.0
520,80.23135020833332,80.39954817708333,66.0,106.0
521,80.23135020833332,80.40046729166666,62.0,109.0
522,80.01076270833333,80.61278276041666,47.0,109.0
523,80.67252520833333,80.84164229166666,59.0,106.0
524,80.67252520833333,80.84348052083332,66.0,106.0
525,80.67252520833333,80.84439963541666,62.0,104.0
526,81.11370020833333,81.35450822916667,59.0,109.0
527,81.11370020833333,81.41976536458333,62.0,109.0
528,81.55487520833333,81.65322046874999,62.0,55.0
529,81.11370020833333,81.6559778125,66.0,106.0
530,81.55487520833333,81.67987479166666,59.0,99.0
531,81.77546270833334,81.893109375,59.0,106.0
532,81.77546270833334,81.89954317708333,62.0,104.0
533,81.99605020833333,82.12196890625,59.0,106.0
534,81.99605020833333,82.13024093749999,62.0,101.0
535,82.21663770833334,82.50340145833333,54.0,87.0
536,82.43722520833333,82.71847427083333,66.0,112.0
537,82.43722520833333,82.73777567708333,62.0,112.0
538,82.43722520833333,82.73961390625,59.0,115.0
539,82.87840020833333,83.1559728125,59.0,112.0
540,82.87840020833333,83.20376677083333,62.0,112.0
541,82.87840020833333,83.2221490625,66.0,109.0
542,83.09898770833333,83.30578848958334,54.0,76.0
543,81.77546270833334,83.41148666666666,47.0,109.0
544,83.31957520833333,83.41424401041667,62.0,52.0
545,83.31957520833333,83.44641302083333,59.0,99.0
546,83.54016270833333,83.67711078125,59.0,109.0
547,83.54016270833333,83.67894901041666,62.0,106.0
548,83.76075020833333,83.97949947916666,59.0,109.0
549,83.76075020833333,83.98133770833333,62.0,104.0
550,84.20192520833334,84.50523302083333,66.0,112.0
551,84.20192520833334,84.51718151041666,62.0,112.0
552,84.20192520833334,84.518100625,59.0,115.0
553,84.42251270833333,84.66423984375,54.0,62.0
554,83.54016270833333,84.82416578125,47.0,109.0
555,84.64310020833334,84.82968046875,59.0,115.0
556,84.64310020833334,84.87839354166667,66.0,109.0
557,84.64310020833334,84.88207,62.0,112.0
558,85.30486270833333,86.12655114583333,58.0,117.0
559,85.30486270833333,86.12747026041666,54.0,106.0
560,85.30486270833333,86.13849963541666,61.0,106.0
561,85.30486270833333,86.18537447916667,42.0,112.0
562,87.06956270833334,87.53739203125,59.0,99.0
563,87.06956270833334,87.54750229166666,62.0,94.0
564,87.51073770833334,87.92709661458333,54.0,64.0
565,87.73132520833333,88.27636015624999,59.0,109.0
566,87.73132520833333,88.29382333333334,62.0,104.0
567,88.17250020833333,88.58334442708333,54.0,85.0
568,88.39308770833333,88.59713114583333,59.0,94.0
569,87.06956270833334,88.7202925,47.0,104.0
570,88.83426270833333,89.36643005208333,59.0,104.0
571,88.83426270833333,89.36826828125,64.0,109.0
572,89.27543770833333,89.569554375,55.0,71.0
573,89.49602520833334,89.77267869791666,67.0,106.0
574,89.49602520833334,89.77819338541667,64.0,109.0
575,89.49602520833334,89.78922276041666,59.0,104.0
576,89.71661270833333,89.89951651041666,55.0,46.0
577,88.83426270833333,89.94271489583333,52.0,106.0
578,89.93720020833334,90.10631729166667,64.0,109.0
579,89.93720020833334,90.13480984374999,59.0,104.0
580,90.59896270833333,91.09988015625,57.0,99.0
581,90.59896270833333,91.10171838541666,61.0,101.0
582,91.26072520833333,91.54013604166667,64.0,106.0
583,91.26072520833333,91.5493271875,61.0,106.0
584,91.26072520833333,91.55759921875,57.0,106.0
585,90.59896270833333,91.74326036458334,45.0,101.0
586,91.70190020833333,91.84252473958333,61.0,104.0
587,91.70190020833333,91.84436296874999,64.0,106.0
588,91.70190020833333,91.87009817708334,57.0,104.0
589,92.36366270833334,92.74969083333333,54.0,94.0
590,92.36366270833334,92.76347755208333,61.0,99.0
591,92.36366270833334,92.78369807291666,58.0,101.0
592,92.80483770833332,93.0603515625,49.0,67.0
593,93.02542520833333,93.22671130208333,58.0,101.0
594,93.02542520833333,93.24693182291666,54.0,101.0
595,93.02542520833333,93.25612296874999,66.0,104.0
596,93.24601270833332,93.47119578125,49.0,85.0
597,92.36366270833334,93.5015265625,42.0,106.0
598,93.46660020833333,93.64674666666666,54.0,101.0
599,93.46660020833333,93.68718770833333,58.0,113.0
600,93.46660020833333,93.738658125,61.0,106.0
601,93.68718770833333,93.77634182291666,49.0,89.0
602,93.90777520833333,93.959245625,54.0,85.0
603,94.12836270833333,94.42339848958333,59.0,99.0
604,94.12836270833333,94.44361901041667,62.0,101.0
605,94.56953770833333,94.63479484375,59.0,91.0
606,94.34895020833333,94.8029928125,54.0,78.0
607,94.79012520833334,94.9849775,59.0,109.0
608,94.79012520833334,94.9849775,66.0,104.0
609,94.12836270833333,95.29104265625,47.0,106.0
610,95.23130020833334,95.36732916666666,62.0,109.0
611,95.23130020833334,95.37192473958333,59.0,112.0
612,95.89306270833333,96.08699588541667,64.0,109.0
613,95.89306270833333,96.13387072916666,67.0,106.0
614,96.33423770833333,96.42982562499999,64.0,109.0
615,96.11365020833333,96.57136927083333,59.0,94.0
616,95.89306270833333,96.72761874999999,52.0,104.0
617,96.55482520833333,96.81769197916667,64.0,109.0
618,96.55482520833333,96.81861109375,67.0,109.0
619,96.77541270833333,96.98313260416667,59.0,89.0
620,96.99600020833333,97.14857322916666,64.0,112.0
621,96.99600020833333,97.15041145833334,67.0,115.0
622,97.65776270833334,97.96015140624999,64.0,109.0
623,97.65776270833334,97.99415864583334,70.0,113.0
624,98.09893770833332,98.19084916666667,64.0,87.0
625,97.87835020833333,98.36180447916666,61.0,85.0
626,97.65776270833334,98.3985690625,54.0,106.0
627,98.31952520833333,98.62375213541667,70.0,117.0
628,98.31952520833333,98.63661973958332,64.0,109.0
629,98.76070020833333,98.89672916666666,70.0,120.0
630,98.76070020833333,98.9169496875,64.0,112.0
631,99.42246270833333,99.9426815625,59.0,106.0
632,99.42246270833333,99.94543890625,62.0,104.0
633,100.08422520833334,100.80756838541666,59.0,106.0
634,99.86363770833333,100.8084875,54.0,71.0
635,100.08422520833334,100.81124484375,66.0,106.0
636,100.08422520833334,100.81308307291667,62.0,106.0
637,99.42246270833333,100.83973739583332,47.0,104.0
638,101.18716270833333,101.70370510416666,59.0,106.0
639,101.18716270833333,101.71749182291667,62.0,101.0
640,101.84892520833333,102.01528494791667,66.0,104.0
641,101.84892520833333,102.01804229166666,62.0,104.0
642,101.84892520833333,102.03090989583333,59.0,106.0
643,101.62833770833333,102.41509979166666,54.0,66.0
644,102.29010020833333,102.63568729166667,59.0,106.0
645,102.29010020833333,102.83697338541667,62.0,104.0
646,102.73127520833333,102.83881161458334,59.0,101.0
647,101.18716270833333,102.86178947916666,47.0,106.0
648,102.95186270833334,103.43623609375,59.0,106.0
649,102.95186270833334,103.43807432291666,62.0,101.0
650,103.39303770833332,103.64395598958333,54.0,34.0
651,103.61362520833333,103.79193343749999,66.0,104.0
652,103.61362520833333,103.80755838541667,62.0,109.0
653,103.61362520833333,103.83697005208333,59.0,109.0
654,103.83421270833333,104.12741026041667,54.0,54.0
655,104.05480020833333,104.31950520833333,59.0,112.0
656,104.05480020833333,104.33053458333333,62.0,106.0
657,104.27538770833333,104.33604927083333,54.0,74.0
658,102.95186270833334,104.40130640625,47.0,104.0
659,104.71656270833333,105.21656104166667,55.0,104.0
660,104.71656270833333,105.24964916666666,59.0,109.0
661,105.15773770833333,105.44542057291666,50.0,59.0
662,105.37832520833334,105.54100848958333,55.0,109.0
663,105.37832520833334,105.54100848958333,59.0,112.0
664,105.59891270833333,105.77630182291666,50.0,45.0
665,105.81950020833332,106.17887401041666,59.0,109.0
666,105.81950020833332,106.24045468749999,55.0,109.0
667,104.71656270833333,106.30846916666667,43.0,106.0
668,106.48126270833333,107.00975359374999,57.0,96.0
669,106.48126270833333,107.01434916666666,54.0,94.0
670,106.92243770833333,107.09155479166667,49.0,22.0
671,107.14302520833333,107.40221552083334,61.0,106.0
672,107.14302520833333,107.40589197916667,54.0,101.0
673,107.14302520833333,107.41692135416666,57.0,106.0
674,107.36361270833333,107.60074427083333,49.0,71.0
675,106.48126270833333,107.701846875,42.0,104.0
676,107.58420020833333,107.77905249999999,57.0,115.0
677,107.58420020833333,107.78180984375,54.0,112.0
678,108.24596270833332,108.75699041666667,59.0,104.0
679,108.24596270833332,108.75882864583333,62.0,96.0
680,108.68713770833332,108.93070307291666,54.0,62.0
681,108.90772520833333,109.08327609375,62.0,109.0
682,108.90772520833333,109.08327609375,66.0,104.0
683,108.90772520833333,109.11728333333333,59.0,106.0
684,109.12831270833333,109.40220885416666,54.0,69.0
685,108.24596270833332,109.47298067708333,47.0,106.0
686,109.34890020833333,109.52904666666666,62.0,109.0
687,109.34890020833333,109.53548046875,59.0,109.0
688,110.01066270833333,110.52720510416667,64.0,109.0
689,110.01066270833333,110.54558739583334,59.0,106.0
690,110.45183770833333,110.73400588541666,55.0,51.0
691,110.67242520833334,110.87922598958333,67.0,109.0
692,110.67242520833334,110.90220385416666,59.0,115.0
693,111.11360020833332,111.28547463541666,59.0,115.0
694,111.11360020833332,111.35532734374999,64.0,115.0
695,110.89301270833333,111.4849225,55.0,61.0
696,110.01066270833333,111.50881947916666,52.0,106.0
697,111.55477520833333,111.6338190625,59.0,106.0
698,111.77536270833333,112.091538125,57.0,106.0
699,112.21653770833333,112.28730953125,57.0,78.0
700,111.77536270833333,112.30385359374999,61.0,112.0
701,111.99595020833333,112.46745598958333,52.0,71.0
702,112.43712520833333,112.67333765625,64.0,109.0
703,112.43712520833333,112.71469781249999,61.0,109.0
704,112.43712520833333,112.71561692708333,57.0,109.0
705,112.65771270833334,112.91414567708333,52.0,87.0
706,111.77536270833333,112.94815291666666,45.0,104.0
707,112.87830020833333,113.05844666666667,61.0,112.0
708,112.87830020833333,113.05936578125,64.0,112.0
709,112.87830020833333,113.08693921874999,57.0,109.0
710,113.09888770833334,113.15771104166666,45.0,78.0
711,113.54006270833332,113.81028239583333,54.0,104.0
712,113.54006270833332,113.89943651041666,58.0,107.0
713,113.98123770833332,114.07223005208333,54.0,101.0
714,113.76065020833333,114.18436203125,49.0,54.0
715,114.20182520833333,114.429765625,58.0,120.0
716,114.20182520833333,114.429765625,66.0,109.0
717,114.20182520833333,114.44630968749999,54.0,109.0
718,114.42241270833333,114.68160302083334,49.0,87.0
719,113.54006270833332,114.72663963541666,42.0,94.0
720,114.86358770833333,114.96652854166666,42.0,73.0
721,114.86358770833333,115.00972692708334,49.0,94.0
722,114.64300020833333,115.0198371875,54.0,109.0
723,114.64300020833333,115.02994744791667,58.0,120.0
724,114.64300020833333,115.05752088541666,61.0,109.0
725,115.30476270833333,115.82130510416667,59.0,106.0
726,115.30476270833333,115.83509182291667,62.0,101.0
727,115.96652520833332,116.13288494791666,66.0,104.0
728,115.96652520833332,116.13564229166667,62.0,104.0
729,115.96652520833332,116.14850989583333,59.0,106.0
730,115.74593770833333,116.53269979166666,54.0,66.0
731,116.40770020833332,116.75328729166667,59.0,106.0
732,116.40770020833332,116.95457338541667,62.0,104.0
733,116.84887520833333,116.95641161458333,59.0,101.0
734,115.30476270833333,116.97938947916667,47.0,106.0
735,117.06946270833333,117.55383609375,59.0,106.0
736,117.06946270833333,117.55567432291666,62.0,101.0
737,117.51063770833333,117.76155598958333,54.0,34.0
738,117.73122520833333,117.9095334375,66.0,104.0
739,117.73122520833333,117.92515838541667,62.0,109.0
740,117.73122520833333,117.95457005208333,59.0,109.0
741,117.95181270833334,118.24501026041666,54.0,54.0
742,118.17240020833333,118.43710520833334,59.0,112.0
743,118.17240020833333,118.44813458333333,62.0,106.0
744,118.39298770833334,118.45364927083332,54.0,74.0
745,117.06946270833333,118.51890640625,47.0,104.0
746,118.83416270833332,119.33416104166666,55.0,104.0
747,118.83416270833332,119.36724916666667,59.0,109.0
748,119.27533770833332,119.56302057291666,50.0,59.0
749,119.49592520833333,119.65860848958333,55.0,109.0
750,119.49592520833333,119.65860848958333,59.0,112.0
751,119.71651270833333,119.89390182291666,50.0,45.0
752,119.93710020833333,120.29647401041666,59.0,109.0
753,119.93710020833333,120.3580546875,55.0,109.0
754,118.83416270833332,120.42606916666666,43.0,106.0
755,120.59886270833333,121.12735359375,57.0,96.0
756,120.59886270833333,121.13194916666666,54.0,94.0
757,121.04003770833333,121.20915479166666,49.0,22.0
758,121.26062520833332,121.51981552083333,61.0,106.0
759,121.26062520833332,121.52349197916666,54.0,101.0
760,121.26062520833332,121.53452135416666,57.0,106.0
761,121.48121270833333,121.71834427083333,49.0,71.0
762,120.59886270833333,121.819446875,42.0,104.0
763,121.70180020833332,121.8966525,57.0,115.0
764,121.70180020833332,121.89940984374999,54.0,112.0
765,122.36356270833333,122.87459041666666,59.0,104.0
766,122.36356270833333,122.87642864583333,62.0,96.0
767,122.80473770833333,123.04830307291667,54.0,62.0
768,123.02532520833333,123.20087609375,62.0,109.0
769,123.02532520833333,123.20087609375,66.0,104.0
770,123.02532520833333,123.23488333333333,59.0,106.0
771,123.24591270833334,123.51980885416667,54.0,69.0
772,122.36356270833333,123.59058067708332,47.0,106.0
773,123.46650020833333,123.64664666666667,62.0,109.0
774,123.46650020833333,123.65308046874999,59.0,109.0
775,124.12826270833332,124.64480510416666,64.0,109.0
776,124.12826270833332,124.66318739583333,59.0,106.0
777,124.56943770833333,124.85160588541666,55.0,51.0
778,124.79002520833333,124.99682598958333,67.0,109.0
779,124.79002520833333,125.01980385416667,59.0,115.0
780,125.23120020833333,125.40307463541666,59.0,115.0
781,125.23120020833333,125.47292734375,64.0,115.0
782,125.01061270833333,125.60252249999999,55.0,61.0
783,124.12826270833332,125.62641947916666,52.0,106.0
784,125.67237520833334,125.75141906249999,59.0,106.0
785,125.89296270833333,126.1264178125,57.0,104.0
786,125.89296270833333,126.19351317708333,61.0,106.0
787,126.11355020833334,126.39479927083333,52.0,82.0
788,126.33413770833333,126.45086526041666,57.0,115.0
789,125.89296270833333,126.51887973958333,45.0,104.0
790,126.55472520833332,126.83321692708333,61.0,118.0
791,126.77531270833333,126.83321692708333,61.0,106.0
792,126.55472520833332,126.84516541666666,57.0,115.0
793,126.77531270833333,126.84516541666666,57.0,109.0
794,126.77531270833333,126.99038552083333,54.0,101.0
795,126.77531270833333,126.99406197916666,42.0,109.0
796,127.21648770833333,127.46740598958333,57.0,104.0
797,127.21648770833333,127.46832510416667,45.0,106.0
798,127.21648770833333,127.48395005208333,61.0,112.0
799,127.65766270833333,127.94994114583334,59.0,112.0
800,127.65766270833333,127.97843369791666,62.0,112.0
801,128.09883770833332,128.19902119791666,59.0,112.0
802,127.87825020833333,128.35986625,54.0,78.0
803,128.31942520833334,128.61997567708332,62.0,118.0
804,128.31942520833334,128.62640947916665,59.0,118.0
805,128.31942520833334,128.63376239583334,66.0,112.0
806,128.76060020833333,128.91960703125,59.0,115.0
807,128.76060020833333,129.00140822916666,64.0,115.0
808,128.98118770833332,129.18615026041667,62.0,109.0
809,128.54001270833334,129.30563515625,54.0,104.0
810,127.65766270833333,129.33872328125,47.0,109.0
811,129.20177520833332,129.36721583333332,61.0,112.0
812,129.42236270833334,129.89662583333333,62.0,109.0
813,129.42236270833334,129.91776546875,59.0,109.0
814,130.08412520833332,130.2955215625,66.0,109.0
815,130.08412520833332,130.31390385416665,62.0,115.0
816,130.08412520833332,130.31482296875,59.0,112.0
817,129.86353770833333,130.64018953125,54.0,71.0
818,130.52530020833333,130.81482130208332,59.0,112.0
819,130.52530020833333,130.83136536458332,62.0,115.0
820,130.52530020833333,130.86077703125,66.0,112.0
821,130.74588770833333,131.01978385416666,54.0,80.0
822,130.96647520833332,131.0565484375,59.0,109.0
823,129.42236270833334,131.1116953125,47.0,106.0
824,131.18706270833334,131.68614192708333,59.0,109.0
825,131.18706270833334,131.68798015625,64.0,112.0
826,131.62823770833333,131.94257489583333,55.0,82.0
827,131.84882520833332,132.09514791666666,67.0,112.0
828,131.84882520833332,132.10617729166665,64.0,115.0
829,131.84882520833332,132.12364046874998,59.0,118.0
830,132.29000020833334,132.54459494791666,59.0,115.0
831,132.29000020833334,132.56941104166665,64.0,118.0
832,132.06941270833332,132.59238890625,55.0,80.0
833,131.18706270833334,132.66224161458334,52.0,104.0
834,132.73117520833333,132.81573375,59.0,109.0
835,132.95176270833332,133.28356307291665,57.0,112.0
836,132.95176270833332,133.31940854166666,61.0,109.0
837,133.17235020833334,133.63926041666667,52.0,91.0
838,133.61352520833333,133.86444348958332,64.0,112.0
839,133.61352520833333,133.88925958333334,61.0,115.0
840,133.61352520833333,133.90120807291666,57.0,115.0
841,133.83411270833332,134.11903822916668,52.0,91.0
842,132.95176270833332,134.18521447916666,45.0,106.0
843,134.05470020833332,134.29183177083334,57.0,109.0
844,134.05470020833332,134.326758125,61.0,109.0
845,134.49587520833333,134.5749190625,57.0,101.0
846,134.71646270833332,135.21921838541667,62.0,109.0
847,134.71646270833332,135.22105661458332,59.0,112.0
848,135.15763770833334,135.43888677083334,54.0,78.0
849,135.37822520833333,135.58594510416665,66.0,109.0
850,135.37822520833333,135.6006509375,62.0,112.0
851,135.37822520833333,135.63006260416665,59.0,112.0
852,135.59881270833333,135.8377825,54.0,94.0
853,135.81940020833332,136.10892130208333,59.0,112.0
854,135.81940020833332,136.12270802083333,62.0,112.0
855,136.03998770833334,136.32950880208332,54.0,91.0
856,134.71646270833332,136.35156755208334,47.0,106.0
857,136.26057520833334,136.39844239583334,61.0,112.0
858,136.48116270833333,136.76700734375,59.0,106.0
859,136.48116270833333,136.79825723958334,62.0,106.0
860,136.92233770833332,137.01884473958333,59.0,109.0
861,136.70175020833332,137.14660166666667,54.0,74.0
862,137.14292520833334,137.3377775,59.0,115.0
863,137.14292520833334,137.33961572916667,66.0,109.0
864,136.48116270833333,137.6410853125,47.0,104.0
865,137.36351270833333,137.65395291666667,54.0,91.0
866,137.58410020833333,137.81939354166667,59.0,112.0
867,137.58410020833333,137.8616728125,62.0,115.0
868,137.80468770833332,137.91314322916665,47.0,71.0
869,138.24586270833333,138.44898703125,69.0,96.0
870,138.24586270833333,138.71093468749999,61.0,101.0
871,138.24586270833333,138.71828760416668,66.0,96.0
872,138.68703770833332,138.92233104166667,57.0,76.0
873,138.24586270833333,138.93336041666666,54.0,109.0
874,138.90762520833334,139.12453625,69.0,99.0
875,138.24586270833333,139.12637447916666,42.0,109.0
876,138.90762520833334,139.13740385416665,61.0,109.0
877,139.12821270833334,139.32766057291667,54.0,48.0
878,139.12821270833334,139.39383682291665,57.0,91.0
879,139.34880020833333,139.50688791666667,61.0,115.0
880,139.34880020833333,139.59696114583332,66.0,112.0
881,139.56938770833332,139.64935067708333,54.0,87.0
882,139.78997520833332,139.87085729166665,61.0,112.0
883,140.01056270833334,140.27434859375,55.0,112.0
884,140.01056270833334,140.33776749999998,59.0,112.0
885,140.45173770833333,140.54089182291665,55.0,104.0
886,140.23115020833333,140.69714130208334,50.0,73.0
887,140.67232520833332,141.0160740625,55.0,118.0
888,140.67232520833332,141.01975052083333,59.0,118.0
889,140.89291270833334,141.20357343749998,50.0,89.0
890,141.11350020833333,141.37544786458332,55.0,115.0
891,141.11350020833333,141.41313156249998,59.0,118.0
892,140.01056270833334,141.46644020833332,43.0,106.0
893,141.33408770833333,141.47103578125,50.0,87.0
894,141.55467520833332,141.63831463541666,55.0,104.0
895,141.99585020833334,142.06754114583333,54.0,99.0
896,141.99585020833334,142.06754114583333,58.0,96.0
897,142.21643770833333,142.289966875,54.0,101.0
898,142.21643770833333,142.30375359375,58.0,117.0
899,141.77526270833332,142.52801755208333,42.0,106.0
900,142.43702520833332,142.68426703125,58.0,123.0
901,142.43702520833332,142.71275958333334,54.0,115.0
902,142.43702520833332,142.73941390625,61.0,115.0
903,142.65761270833332,142.98297927083334,49.0,106.0
904,142.65761270833332,143.00595713541665,42.0,99.0
905,142.87820020833334,143.15485369791665,54.0,112.0
906,142.87820020833334,143.18150802083332,58.0,123.0
907,142.87820020833334,143.23665489583334,61.0,112.0
908,143.09878770833333,143.27250036458332,42.0,101.0
909,143.31937520833333,143.39198526041667,61.0,20.0
910,143.31937520833333,143.40485286458332,54.0,106.0
911,142.87820020833334,143.46183796875,66.0,109.0
912,143.53996270833332,144.01422583333334,62.0,109.0
913,143.53996270833332,144.03536546875,59.0,109.0
914,144.20172520833333,144.4131215625,66.0,109.0
915,144.20172520833333,144.43150385416666,62.0,115.0
916,144.20172520833333,144.43242296875,59.0,112.0
917,143.98113770833334,144.75778953124998,54.0,71.0
918,144.64290020833332,144.93242130208333,59.0,112.0
919,144.64290020833332,144.94896536458333,62.0,115.0
920,144.64290020833332,144.97837703125,66.0,112.0
921,144.86348770833334,145.13738385416667,54.0,80.0
922,145.08407520833333,145.1741484375,59.0,109.0
923,143.53996270833332,145.2292953125,47.0,106.0
924,145.30466270833332,145.80374192708334,59.0,109.0
925,145.30466270833332,145.80558015625,64.0,112.0
926,145.74583770833334,146.06017489583334,55.0,82.0
927,145.96642520833333,146.21274791666667,67.0,112.0
928,145.96642520833333,146.22377729166666,64.0,115.0
929,145.96642520833333,146.24124046875,59.0,118.0
930,146.40760020833332,146.66219494791667,59.0,115.0
931,146.40760020833332,146.68701104166666,64.0,118.0
932,146.18701270833333,146.70998890625,55.0,80.0
933,145.30466270833332,146.77984161458332,52.0,104.0
934,146.84877520833334,146.93333375,59.0,109.0
935,147.06936270833333,147.40116307291666,57.0,112.0
936,147.06936270833333,147.43700854166667,61.0,109.0
937,147.28995020833332,147.75686041666665,52.0,91.0
938,147.73112520833334,147.98204348958333,64.0,112.0
939,147.73112520833334,148.00685958333332,61.0,115.0
940,147.73112520833334,148.01880807291667,57.0,115.0
941,147.95171270833333,148.23663822916666,52.0,91.0
942,147.06936270833333,148.30281447916667,45.0,106.0
943,148.17230020833333,148.40943177083332,57.0,109.0
944,148.17230020833333,148.444358125,61.0,109.0
945,148.61347520833334,148.6925190625,57.0,101.0
946,148.83406270833333,149.33681838541665,62.0,109.0
947,148.83406270833333,149.33865661458333,59.0,112.0
948,149.27523770833332,149.55648677083332,54.0,78.0
949,149.49582520833332,149.70354510416666,66.0,109.0
950,149.49582520833332,149.7182509375,62.0,112.0
951,149.49582520833332,149.74766260416666,59.0,112.0
952,149.71641270833334,149.95538249999998,54.0,94.0
953,149.93700020833333,150.22652130208334,59.0,112.0
954,149.93700020833333,150.24030802083334,62.0,112.0
955,150.15758770833332,150.44710880208333,54.0,91.0
956,148.83406270833333,150.46916755208332,47.0,106.0
957,150.37817520833332,150.51604239583332,61.0,112.0
958,150.59876270833334,150.88460734375,59.0,106.0
959,150.59876270833334,150.91585723958332,62.0,106.0
960,151.03993770833333,151.13644473958334,59.0,109.0
961,150.81935020833333,151.26420166666665,54.0,74.0
962,151.26052520833332,151.4553775,59.0,115.0
963,151.26052520833332,151.45721572916665,66.0,109.0
964,150.59876270833334,151.7586853125,47.0,104.0
965,151.48111270833334,151.77155291666665,54.0,91.0
966,151.70170020833334,151.93699354166665,59.0,112.0
967,151.70170020833334,151.9792728125,62.0,115.0
968,151.92228770833333,152.03074322916666,47.0,71.0
969,152.36346270833332,152.56658703125,69.0,96.0
970,152.36346270833332,152.8285346875,61.0,101.0
971,152.36346270833332,152.83588760416666,66.0,96.0
972,152.80463770833333,153.03993104166665,57.0,76.0
973,152.36346270833332,153.05096041666667,54.0,109.0
974,153.02522520833332,153.24213625,69.0,99.0
975,152.36346270833332,153.24397447916667,42.0,109.0
976,153.02522520833332,153.25500385416666,61.0,109.0
977,153.24581270833332,153.44526057291665,54.0,48.0
978,153.24581270833332,153.51143682291666,57.0,91.0
979,153.46640020833334,153.62448791666665,61.0,115.0
980,153.46640020833334,153.71456114583333,66.0,112.0
981,153.68698770833333,153.76695067708332,54.0,87.0
982,153.90757520833333,153.98845729166666,61.0,112.0
983,154.12816270833332,154.39011036458334,57.0,104.0
984,154.12816270833332,154.4167646875,61.0,109.0
985,154.12816270833332,154.4167646875,64.0,109.0
986,154.56933770833334,154.66676385416667,57.0,115.0
987,154.34875020833334,154.67227854166666,52.0,76.0
988,154.12816270833332,154.77705760416666,45.0,112.0
989,154.78992520833333,155.04819640624999,64.0,112.0
990,154.78992520833333,155.06290223958334,61.0,115.0
991,154.78992520833333,155.08771833333333,57.0,115.0
992,155.23110020833332,155.547275625,49.0,85.0
993,155.45168770833334,155.55370942708333,54.0,109.0
994,155.01051270833332,155.59323135416668,42.0,104.0
995,155.45168770833334,155.72190739583334,57.0,115.0
996,155.67227520833333,155.74856171874998,54.0,104.0
997,155.45168770833334,155.7623484375,61.0,112.0
998,155.89286270833333,156.17227354166667,59.0,112.0
999,155.89286270833333,156.1924940625,62.0,112.0
1000,156.33403770833334,156.40113307291665,59.0,101.0
1001,156.11345020833332,156.617125,54.0,85.0
1002,156.55462520833333,156.91675635416667,66.0,106.0
1003,156.55462520833333,156.92870484374998,62.0,106.0
1004,156.55462520833333,156.93513864583332,59.0,112.0
1005,156.77521270833333,157.09874104166667,54.0,106.0
1006,157.21638770833331,157.36436515625,54.0,104.0
1007,155.89286270833333,157.55278364583333,47.0,109.0
1008,156.99580020833332,157.56105567708332,59.0,115.0
1009,156.99580020833332,157.57759973958332,62.0,112.0
1010,157.43697520833334,157.5821953125,54.0,106.0
1011,156.99580020833332,157.59230557291667,66.0,112.0
1012,157.65756270833333,158.12539203125,59.0,99.0
1013,157.65756270833333,158.13550229166665,62.0,94.0
1014,158.09873770833332,158.51509661458334,54.0,64.0
1015,158.31932520833334,158.86436015625,59.0,109.0
1016,158.31932520833334,158.88182333333333,62.0,104.0
1017,158.76050020833333,159.17134442708334,54.0,85.0
1018,158.98108770833332,159.18513114583334,59.0,94.0
1019,157.65756270833333,159.3082925,47.0,104.0
1020,159.42226270833334,159.95443005208332,59.0,104.0
1021,159.42226270833334,159.95626828125,64.0,109.0
1022,159.86343770833332,160.157554375,55.0,71.0
1023,160.08402520833332,160.36067869791665,67.0,106.0
1024,160.08402520833332,160.36619338541666,64.0,109.0
1025,160.08402520833332,160.37722276041666,59.0,104.0
1026,160.30461270833334,160.48751651041667,55.0,46.0
1027,159.42226270833334,160.53071489583334,52.0,106.0
1028,160.52520020833333,160.69431729166666,64.0,109.0
1029,160.52520020833333,160.72280984374999,59.0,104.0
1030,161.18696270833334,161.68788015625,57.0,99.0
1031,161.18696270833334,161.68971838541665,61.0,101.0
1032,161.84872520833332,162.12813604166666,64.0,106.0
1033,161.84872520833332,162.1373271875,61.0,106.0
1034,161.84872520833332,162.14559921875,57.0,106.0
1035,161.18696270833334,162.33126036458333,45.0,101.0
1036,162.28990020833334,162.43052473958332,61.0,104.0
1037,162.28990020833334,162.43236296875,64.0,106.0
1038,162.28990020833334,162.45809817708331,57.0,104.0
1039,162.95166270833332,163.33769083333334,54.0,94.0
1040,162.95166270833332,163.35147755208334,61.0,99.0
1041,162.95166270833332,163.37169807291667,58.0,101.0
1042,163.39283770833333,163.64835156249998,49.0,67.0
1043,163.61342520833333,163.81471130208334,58.0,101.0
1044,163.61342520833333,163.83493182291667,54.0,101.0
1045,163.61342520833333,163.84412296874999,66.0,104.0
1046,163.83401270833332,164.05919578125,49.0,85.0
1047,162.95166270833332,164.0895265625,42.0,106.0
1048,164.05460020833334,164.23474666666667,54.0,101.0
1049,164.05460020833334,164.27518770833333,58.0,113.0
1050,164.05460020833334,164.326658125,61.0,106.0
1051,164.27518770833333,164.36434182291666,49.0,89.0
1052,164.49577520833333,164.547245625,54.0,85.0
1053,164.71636270833332,165.01139848958334,59.0,99.0
1054,164.71636270833332,165.03161901041665,62.0,101.0
1055,165.15753770833334,165.22279484375,59.0,91.0
1056,164.93695020833331,165.3909928125,54.0,78.0
1057,165.37812520833333,165.5729775,59.0,109.0
1058,165.37812520833333,165.5729775,66.0,104.0
1059,164.71636270833332,165.87904265625,47.0,106.0
1060,165.81930020833332,165.95532916666667,62.0,109.0
1061,165.81930020833332,165.95992473958333,59.0,112.0
1062,166.48106270833333,166.67499588541665,64.0,109.0
1063,166.48106270833333,166.72187072916665,67.0,106.0
1064,166.92223770833334,167.017825625,64.0,109.0
1065,166.70165020833332,167.15936927083334,59.0,94.0
1066,166.48106270833333,167.31561875,52.0,104.0
1067,167.14282520833333,167.40569197916668,64.0,109.0
1068,167.14282520833333,167.40661109375,67.0,109.0
1069,167.36341270833333,167.57113260416665,59.0,89.0
1070,167.58400020833332,167.73657322916665,64.0,112.0
1071,167.58400020833332,167.73841145833333,67.0,115.0
1072,168.24576270833333,168.54815140624999,64.0,109.0
1073,168.24576270833333,168.58215864583332,70.0,113.0
1074,168.68693770833332,168.77884916666667,64.0,87.0
1075,168.46635020833332,168.94980447916666,61.0,85.0
1076,168.24576270833333,168.9865690625,54.0,106.0
1077,168.90752520833334,169.21175213541667,70.0,117.0
1078,168.90752520833334,169.22461973958332,64.0,109.0
1079,169.34870020833333,169.48472916666665,70.0,120.0
1080,169.34870020833333,169.5049496875,64.0,112.0
1081,170.01046270833334,170.5306815625,59.0,106.0
1082,170.01046270833334,170.53343890624998,62.0,104.0
1083,170.67222520833332,171.39556838541665,59.0,106.0
1084,170.45163770833332,171.3964875,54.0,71.0
1085,170.67222520833332,171.39924484374998,66.0,106.0
1086,170.67222520833332,171.40108307291666,62.0,106.0
1087,170.01046270833334,171.42773739583333,47.0,104.0
1088,171.77516270833334,172.26596989583334,66.0,104.0
1089,172.21633770833333,172.39005036458332,59.0,112.0
1090,171.99575020833333,172.56284390625,54.0,101.0
1091,172.43692520833332,172.81927687499999,66.0,109.0
1092,172.87810020833334,173.07111427083333,59.0,112.0
1093,172.65751270833331,173.28986354166665,54.0,55.0
1094,173.09868770833333,173.30365026041667,66.0,109.0
1095,171.77516270833334,173.44978947916667,47.0,106.0
1096,173.31927520833332,173.46541442708332,59.0,101.0
1097,173.53986270833332,174.0049346875,67.0,109.0
1098,173.98103770833333,174.13912541666667,59.0,78.0
1099,174.20162520833333,174.67864567708332,67.0,106.0
1100,173.76045020833334,174.80824083333331,55.0,71.0
1101,173.53986270833332,174.87441708333333,52.0,101.0
1102,174.64280020833334,174.89279937499998,59.0,104.0
1103,174.86338770833333,175.01044604166665,67.0,104.0
1104,175.30456270833332,175.76136265625,64.0,94.0
1105,175.74573770833334,175.90382541666665,57.0,104.0
1106,175.52515020833332,176.05547932291665,52.0,87.0
1107,175.96632520833333,176.38360322916665,64.0,109.0
1108,176.40750020833332,176.54261005208332,57.0,101.0
1109,175.30456270833332,176.70069776041666,45.0,101.0
1110,176.62808770833334,176.77790338541666,64.0,101.0
1111,176.18691270833332,176.82477822916667,52.0,80.0
1112,177.06926270833333,177.17771822916666,59.0,91.0
1113,177.06926270833333,177.35694557291666,66.0,101.0
1114,177.51043770833334,177.60694473958333,59.0,96.0
1115,177.28985020833332,177.78065739583332,54.0,87.0
1116,177.73102520833334,177.96264208333332,59.0,109.0
1117,177.73102520833334,177.97918614583332,66.0,109.0
1118,177.95161270833333,178.23837645833333,54.0,94.0
1119,178.17220020833332,178.38175833333332,59.0,115.0
1120,178.17220020833332,178.45161104166667,66.0,104.0
1121,177.06926270833333,178.71907338541666,47.0,109.0
1122,178.39278770833332,178.73286010416666,54.0,76.0
1123,178.61337520833334,178.76135265624998,59.0,94.0
1124,178.83396270833333,179.29168177083332,66.0,96.0
1125,179.27513770833332,179.49112963541666,59.0,96.0
1126,179.05455020833332,179.53340890625,54.0,80.0
1127,179.49572520833334,179.93781932291665,66.0,106.0
1128,179.93690020833333,180.14737744791665,59.0,106.0
1129,179.71631270833333,180.30546515625,54.0,82.0
1130,178.83396270833333,180.36061203124999,47.0,96.0
1131,180.15748770833332,180.46171463541666,66.0,109.0
1132,180.3780752083333,180.62991260416666,59.0,99.0
1133,180.59866270833334,181.27145458333334,66.0,99.0
1134,180.81925020833333,181.333954375,49.0,73.0
1135,181.26042520833332,181.73009276041665,61.0,109.0
1136,181.70160020833333,181.79810723958332,57.0,96.0
1137,181.48101270833334,181.90656276041665,49.0,91.0
1138,180.59866270833334,181.97641546875,42.0,101.0
1139,181.92218770833333,182.24847338541667,61.0,115.0
1140,182.14277520833332,182.27328947916666,57.0,89.0
1141,181.92218770833333,182.44516390625,66.0,106.0
1142,182.36336270833334,182.62714859375,55.0,112.0
1143,182.36336270833334,182.6905675,59.0,112.0
1144,182.80453770833333,182.89369182291665,55.0,104.0
1145,182.58395020833333,183.04994130208334,50.0,73.0
1146,183.02512520833332,183.3688740625,55.0,118.0
1147,183.02512520833332,183.37255052083333,59.0,118.0
1148,183.24571270833331,183.55637343749999,50.0,89.0
1149,183.46630020833334,183.72824786458332,55.0,115.0
1150,183.46630020833334,183.7659315625,59.0,118.0
1151,182.36336270833334,183.81924020833333,43.0,106.0
1152,183.68688770833333,183.82383578124998,50.0,87.0
1153,183.90747520833332,183.99111463541666,55.0,104.0
1154,184.34865020833334,184.42034114583333,54.0,99.0
1155,184.34865020833334,184.42034114583333,58.0,96.0
1156,184.56923770833333,184.642766875,54.0,101.0
1157,184.56923770833333,184.65655359375,58.0,117.0
1158,184.12806270833332,184.88081755208333,42.0,106.0
1159,184.78982520833333,185.03706703125,58.0,123.0
1160,184.78982520833333,185.06555958333334,54.0,115.0
1161,184.78982520833333,185.09221390624998,61.0,115.0
1162,185.01041270833332,185.33577927083334,49.0,106.0
1163,185.01041270833332,185.35875713541665,42.0,99.0
1164,185.23100020833334,185.50765369791665,54.0,112.0
1165,185.23100020833334,185.53430802083332,58.0,123.0
1166,185.23100020833334,185.58945489583334,61.0,112.0
1167,185.45158770833334,185.62530036458332,42.0,101.0
1168,185.67217520833333,185.74478526041665,61.0,20.0
1169,185.67217520833333,185.75765286458332,54.0,106.0
1170,185.23100020833334,185.81463796875,66.0,109.0
1171,185.89276270833332,186.36702583333332,62.0,109.0
1172,185.89276270833332,186.38816546875,59.0,109.0
1173,186.55452520833333,186.76592156249998,66.0,109.0
1174,186.55452520833333,186.78430385416667,62.0,115.0
1175,186.55452520833333,186.78522296875,59.0,112.0
1176,186.33393770833334,187.11058953124999,54.0,71.0
1177,186.99570020833332,187.28522130208333,59.0,112.0
1178,186.99570020833332,187.30176536458333,62.0,115.0
1179,186.99570020833332,187.33117703125,66.0,112.0
1180,187.21628770833334,187.49018385416667,54.0,80.0
1181,187.43687520833333,187.52694843749998,59.0,109.0
1182,185.89276270833332,187.5820953125,47.0,106.0
1183,187.65746270833333,188.15654192708334,59.0,109.0
1184,187.65746270833333,188.15838015625,64.0,112.0
1185,188.0986377083333,188.41297489583332,55.0,82.0
1186,188.31922520833334,188.56554791666667,67.0,112.0
1187,188.31922520833334,188.57657729166667,64.0,115.0
1188,188.31922520833334,188.59404046875,59.0,118.0
1189,188.76040020833332,189.01499494791665,59.0,115.0
1190,188.76040020833332,189.03981104166667,64.0,118.0
1191,188.53981270833333,189.06278890625,55.0,80.0
1192,187.65746270833333,189.13264161458332,52.0,104.0
1193,189.20157520833334,189.28613375,59.0,109.0
1194,189.42216270833333,189.75396307291666,57.0,112.0
1195,189.42216270833333,189.78980854166667,61.0,109.0
1196,189.64275020833333,190.10966041666666,52.0,91.0
1197,190.08392520833334,190.33484348958333,64.0,112.0
1198,190.08392520833334,190.35965958333333,61.0,115.0
1199,190.08392520833334,190.37160807291667,57.0,115.0
1200,190.30451270833333,190.58943822916666,52.0,91.0
1201,189.42216270833333,190.65561447916667,45.0,106.0
1202,190.52510020833333,190.76223177083332,57.0,109.0
1203,190.52510020833333,190.79715812499998,61.0,109.0
1204,190.96627520833331,191.0453190625,57.0,101.0
1205,191.18686270833334,191.68961838541665,62.0,109.0
1206,191.18686270833334,191.69145661458333,59.0,112.0
1207,191.62803770833332,191.90928677083332,54.0,78.0
1208,191.84862520833332,192.05634510416667,66.0,109.0
1209,191.84862520833332,192.0710509375,62.0,112.0
1210,191.84862520833332,192.10046260416667,59.0,112.0
1211,192.06921270833334,192.3081825,54.0,94.0
1212,192.28980020833333,192.57932130208332,59.0,112.0
1213,192.28980020833333,192.59310802083334,62.0,112.0
1214,192.51038770833333,192.79990880208334,54.0,91.0
1215,191.18686270833334,192.82196755208332,47.0,106.0
1216,192.73097520833332,192.86884239583333,61.0,112.0
1217,192.95156270833334,193.23740734375,59.0,106.0
1218,192.95156270833334,193.26865723958332,62.0,106.0
1219,193.39273770833333,193.48924473958334,59.0,109.0
1220,193.17215020833333,193.61700166666665,54.0,74.0
1221,193.61332520833332,193.8081775,59.0,115.0
1222,193.61332520833332,193.81001572916665,66.0,109.0
1223,192.95156270833334,194.1114853125,47.0,104.0
1224,193.83391270833332,194.12435291666665,54.0,91.0
1225,194.05450020833334,194.28979354166665,59.0,112.0
1226,194.05450020833334,194.3320728125,62.0,115.0
1227,194.27508770833333,194.38354322916666,47.0,71.0
1228,194.71626270833332,194.91938703124998,69.0,96.0
1229,194.71626270833332,195.1813346875,61.0,101.0
1230,194.71626270833332,195.18868760416666,66.0,96.0
1231,195.15743770833333,195.39273104166665,57.0,76.0
1232,194.71626270833332,195.40376041666667,54.0,109.0
1233,195.37802520833333,195.59493625,69.0,99.0
1234,194.71626270833332,195.59677447916667,42.0,109.0
1235,195.37802520833333,195.60780385416666,61.0,109.0
1236,195.59861270833332,195.79806057291665,54.0,48.0
1237,195.59861270833332,195.86423682291667,57.0,91.0
1238,195.8192002083333,195.97728791666665,61.0,115.0
1239,195.8192002083333,196.06736114583333,66.0,112.0
1240,196.03978770833334,196.11975067708332,54.0,87.0
1241,196.26037520833333,196.34125729166666,61.0,112.0
1242,196.48096270833332,196.74291036458334,57.0,104.0
1243,196.48096270833332,196.7695646875,61.0,109.0
1244,196.48096270833332,196.7695646875,64.0,109.0
1245,196.92213770833334,197.01956385416665,57.0,115.0
1246,196.70155020833332,197.02507854166666,52.0,76.0
1247,196.48096270833332,197.12985760416666,45.0,112.0
1248,197.14272520833333,197.40099640625,64.0,112.0
1249,197.14272520833333,197.41570223958334,61.0,115.0
1250,197.14272520833333,197.44051833333333,57.0,115.0
1251,197.58390020833332,197.900075625,49.0,85.0
1252,197.80448770833334,197.90650942708334,54.0,109.0
1253,197.36331270833332,197.94603135416665,42.0,104.0
1254,197.80448770833334,198.07470739583331,57.0,115.0
1255,198.02507520833333,198.10136171874998,54.0,104.0
1256,197.80448770833334,198.11514843749998,61.0,112.0
1257,198.24566270833333,198.52507354166667,59.0,112.0
1258,198.24566270833333,198.5452940625,62.0,112.0
1259,198.68683770833331,198.75393307291665,59.0,101.0
1260,198.46625020833332,198.969925,54.0,85.0
1261,198.90742520833334,199.26955635416667,66.0,106.0
1262,198.90742520833334,199.28150484374999,62.0,106.0
1263,198.90742520833334,199.28793864583332,59.0,112.0
1264,199.12801270833333,199.45154104166667,54.0,106.0
1265,199.56918770833332,199.71716515625,54.0,104.0
1266,198.24566270833333,199.90558364583333,47.0,109.0
1267,199.34860020833332,199.91385567708332,59.0,115.0
1268,199.34860020833332,199.93039973958332,62.0,112.0
1269,199.78977520833334,199.9349953125,54.0,106.0
1270,199.34860020833332,199.94510557291667,66.0,112.0
1271,200.01036270833333,200.29620734374998,59.0,106.0
1272,200.01036270833333,200.32745723958334,62.0,106.0
1273,200.45153770833332,200.54804473958333,59.0,109.0
1274,200.23095020833333,200.67580166666667,54.0,74.0
1275,200.67212520833334,200.8669775,59.0,115.0
1276,200.67212520833334,200.86881572916667,66.0,109.0
1277,200.01036270833333,201.1702853125,47.0,104.0
1278,200.89271270833333,201.18315291666667,54.0,91.0
1279,201.11330020833333,201.34859354166667,59.0,112.0
1280,201.11330020833333,201.3908728125,62.0,115.0
1281,201.33388770833332,201.44234322916665,47.0,71.0
1282,201.77506270833334,201.97818703125,69.0,96.0
1283,201.77506270833334,202.2401346875,61.0,101.0
1284,201.77506270833334,202.24748760416665,66.0,96.0
1285,202.21623770833332,202.45153104166667,57.0,76.0
1286,201.77506270833334,202.46256041666666,54.0,109.0
1287,202.43682520833332,202.65373624999998,69.0,99.0
1288,201.77506270833334,202.65557447916666,42.0,109.0
1289,202.43682520833332,202.66660385416665,61.0,109.0
1290,202.65741270833334,202.85686057291667,54.0,48.0
1291,202.65741270833334,202.92303682291666,57.0,91.0
1292,202.87800020833333,203.03608791666667,61.0,115.0
1293,202.87800020833333,203.12616114583332,66.0,112.0
1294,203.09858770833333,203.17855067708334,54.0,87.0
1295,203.31917520833332,203.40005729166666,61.0,112.0
1296,203.49932166666667,206.50942192708334,45.0,106.0
1297,203.42395427083332,206.58846578125,57.0,91.0
1298,203.48185848958332,206.59857604166666,61.0,106.0
1299,203.5397627083333,206.61144364583333,64.0,99.0
1300,203.59490958333333,206.61420098958334,69.0,82.0
1301,207.76952802083332,207.90739520833333,61.0,38.0
1302,207.45794817708332,208.56088567708332,54.0,87.0
1303,207.60316828125,208.63533395833332,59.0,89.0
1304,207.75206484375,208.66750296875,62.0,59.0
1305,207.90371875,208.80537015625,71.0,71.0
1306,209.23367755208332,209.34213307291665,71.0,51.0
1307,207.27228703125,212.31822609374998,47.0,104.0
1308,209.29066265625,212.32374078125,74.0,74.0
1309,209.35040510416667,212.35039510416667,83.0,91.0
