,start,end,pitch,velocity
0,18.457700900000003,19.106597266666668,60.0,112.0
1,19.1194649,19.3290235,58.0,93.0
2,19.3400529,20.461375233333335,56.0,107.0
3,20.663580900000003,21.045933433333335,56.0,107.0
4,21.1047569,21.538579966666667,56.0,117.0
5,21.5459329,21.926447200000002,60.0,100.0
6,21.987108900000003,22.376814366666668,63.0,117.0
7,22.4282849,22.893357933333334,67.0,96.0
8,22.8694609,24.152547766666668,63.0,107.0
9,24.192988900000003,24.523870900000002,60.0,93.0
10,24.634164900000002,25.134164366666667,63.0,127.0
11,25.9576929,26.0514428,63.0,102.0
12,26.1782809,26.316148400000003,63.0,93.0
13,26.398868900000004,26.5863687,68.0,93.0
14,26.619456900000003,27.3915149,65.0,99.0
15,27.942984900000003,28.04592596666667,63.0,102.0
16,28.163572900000002,28.43746966666667,63.0,107.0
17,28.6047489,28.8639398,60.0,96.0
18,29.045924900000003,29.306954033333337,58.0,102.0
19,29.4871009,29.76099766666667,56.0,95.0
20,29.928276900000004,31.454010566666668,58.0,102.0
21,31.251804900000003,31.542245766666667,53.0,96.0
22,31.692980900000002,32.7076857,58.0,99.0
23,33.016508900000005,33.17275873333334,56.0,100.0
24,33.237096900000004,33.503640733333334,65.0,89.0
25,33.457684900000004,33.77018456666667,63.0,117.0
26,33.8988609,34.2407723,60.0,96.0
27,34.3400369,34.65253656666667,58.0,96.0
28,34.7812129,35.5643003,56.0,93.0
29,35.663564900000004,35.81062356666667,51.0,97.0
30,35.884152900000004,36.097387966666666,53.0,88.0
31,36.1047409,36.358417100000004,56.0,99.0
32,36.5459169,36.915401800000005,65.0,93.0
33,36.9870929,37.68562156666667,63.0,102.0
34,37.869444900000005,38.602900000000005,58.0,99.0
35,38.7517969,39.7499576,60.0,95.0
36,40.075324900000005,40.22789826666667,58.0,107.0
37,40.295912900000005,40.44297156666667,56.0,77.0
38,40.516500900000004,40.7812065,58.0,96.0
39,40.9576769,41.45583813333334,60.0,96.0
40,41.8400289,42.0551022,58.0,117.0
41,42.06061690000001,42.242602000000005,56.0,88.0
42,42.281204900000006,42.8381896,53.0,97.0
43,43.6047329,43.759144500000005,58.0,100.0
44,43.8253209,43.987085433333334,56.0,73.0
45,44.0459089,44.283041000000004,58.0,93.0
46,44.487084900000006,44.92642266666667,60.0,95.0
47,45.148848900000004,45.459510333333334,58.0,107.0
48,45.5900249,45.86208343333334,56.0,107.0
49,46.0312009,47.312449533333336,51.0,92.0
50,48.0164929,48.264654400000005,63.0,112.0
51,48.4576689,48.72421273333334,56.0,100.0
52,48.8988449,49.1028888,56.0,100.0
53,49.11943290000001,49.28671213333334,55.0,66.0
54,49.340020900000006,49.788549833333335,56.0,93.0
55,49.781196900000005,50.20215233333334,60.0,97.0
56,50.2223729,50.553254900000006,63.0,117.0
57,50.6635489,51.00913676666667,67.0,102.0
58,51.1047249,52.378620600000005,63.0,100.0
59,52.428252900000004,52.75913490000001,60.0,93.0
60,52.8694289,53.36942836666667,63.0,127.0
61,54.192956900000006,54.286706800000005,63.0,102.0
62,54.413544900000005,54.551412400000004,63.0,93.0
63,54.634132900000004,54.8216327,68.0,93.0
64,54.854720900000004,55.29957336666667,65.0,99.0
65,55.5164849,55.722367033333335,65.0,100.0
66,55.95766090000001,56.095528400000006,63.0,112.0
67,56.17824890000001,56.28118996666667,63.0,102.0
68,56.398836900000006,56.67273366666667,63.0,107.0
69,56.840012900000005,57.099203800000005,60.0,96.0
70,57.7223649,57.98339403333334,58.0,102.0
71,57.9429529,58.21684966666667,56.0,95.0
72,58.38412890000001,59.54589236666667,58.0,102.0
73,59.487068900000004,59.77750976666667,53.0,96.0
74,59.9282449,60.94294970000001,58.0,99.0
75,61.251772900000006,61.40802273333334,56.0,100.0
76,61.472360900000005,61.738904733333335,65.0,89.0
77,61.692948900000005,62.00544856666667,63.0,117.0
78,62.1341249,62.476036300000004,60.0,96.0
79,62.5753009,62.88780056666667,58.0,96.0
80,63.01647690000001,63.79956430000001,56.0,93.0
81,63.898828900000005,64.04588756666668,51.0,97.0
82,64.1194169,64.33265196666667,53.0,88.0
83,64.34000490000001,64.59368110000001,56.0,99.0
84,64.78118090000001,65.1506658,65.0,93.0
85,65.22235690000001,65.92088556666667,63.0,102.0
86,66.1047089,66.82713460000001,67.0,107.0
87,66.9870609,67.74441303333334,68.0,127.0
88,68.0900009,68.1892655,63.0,92.0
89,68.3105889,68.4043388,63.0,79.0
90,68.5311769,68.66169146666667,63.0,95.0
91,68.75176490000001,69.15066153333333,65.0,95.0
92,69.19294090000001,69.38227893333334,63.0,97.0
93,69.63411690000001,69.9429401,63.0,117.0
94,70.07529290000001,70.22051333333334,61.0,117.0
95,70.2958809,70.54588063333334,60.0,88.0
96,70.5164689,70.85470383333333,58.0,96.0
97,70.9576449,71.17455643333334,56.0,100.0
98,71.61940890000001,71.83448220000001,53.0,76.0
99,71.8399969,72.10654073333333,56.0,97.0
100,72.2811729,74.08631803333334,56.0,117.0
101,74.92822890000001,75.23521386666667,68.0,127.0
102,75.3694049,75.60469876666667,67.0,83.0
103,75.58999290000001,75.83999263333334,65.0,89.0
104,75.8105809,76.1469776,60.0,122.0
105,76.2517569,76.58447713333334,58.0,97.0
106,76.6929329,77.04035900000001,60.0,107.0
107,77.1341089,77.3988145,63.0,112.0
108,77.5752849,77.79954936666667,63.0,127.0
109,78.2370489,78.36204876666667,56.0,100.0
110,78.45763690000001,78.61388673333335,56.0,127.0
111,78.6782249,78.90248936666667,68.0,117.0
112,79.1194009,79.30138600000001,68.0,92.0
113,79.33998890000001,79.71682673333333,65.0,100.0
114,79.78116490000001,79.97234116666667,65.0,92.0
115,80.0017529,80.25175263333334,63.0,100.0
116,80.44292890000001,80.70763450000001,65.0,102.0
117,80.88410490000001,81.14513403333333,63.0,107.0
118,81.1046929,81.69660403333334,60.0,95.0
119,82.20763290000001,82.36388273333334,60.0,90.0
120,82.4282209,82.54035313333334,65.0,90.0
121,82.6488089,82.76645583333334,65.0,86.0
122,82.86939690000001,83.05322023333333,65.0,96.0
123,83.31057290000001,83.46130803333334,63.0,97.0
124,83.5311609,83.8344694,65.0,95.0
125,84.19292490000001,84.45579226666668,65.0,99.0
126,84.4135129,84.5679245,63.0,95.0
127,84.6341009,84.88410063333335,65.0,96.0
128,85.0752769,85.31608546666668,63.0,107.0
129,85.29586490000001,85.50358526666668,60.0,83.0
130,85.5164529,85.82343786666668,65.0,92.0
131,85.9576289,86.13777576666668,65.0,112.0
132,86.17821690000001,86.27564326666668,63.0,112.0
133,86.3988049,86.57159883333334,65.0,99.0
134,86.61939290000001,86.72049573333334,63.0,99.0
135,86.8399809,86.94292196666667,63.0,96.0
136,87.0605689,87.15431880000001,63.0,102.0
137,87.28115690000001,87.52196546666667,63.0,112.0
138,87.72233290000001,88.0311561,60.0,112.0
139,88.16350890000001,88.8528464,58.0,100.0
140,89.04586090000001,89.35284586666667,68.0,127.0
141,89.4870369,89.72233076666667,67.0,83.0
142,89.70762490000001,89.95762463333334,65.0,89.0
143,89.9282129,90.2646096,60.0,122.0
144,90.3693889,90.70210913333334,58.0,97.0
145,90.8105649,91.15799100000001,60.0,107.0
146,91.2517409,91.5164465,63.0,112.0
147,91.6929169,91.91718136666667,63.0,127.0
148,92.3546809,92.47968076666668,56.0,100.0
149,92.57526890000001,92.73151873333335,56.0,127.0
150,92.7958569,93.02012136666667,68.0,117.0
151,93.2370329,93.41901800000001,68.0,92.0
152,93.45762090000001,93.83445873333334,65.0,100.0
153,93.89879690000001,93.98887033333334,65.0,122.0
154,94.11938490000001,94.20578186666667,65.0,95.0
155,94.3399729,94.46497276666668,65.0,100.0
156,94.56056090000001,94.77379596666667,63.0,127.0
157,95.00173690000001,95.15431026666667,60.0,97.0
158,95.2223249,95.50725106666667,65.0,117.0
159,96.54585290000001,96.70577920000001,60.0,107.0
160,96.7664409,96.8767349,58.0,99.0
161,96.98702890000001,97.22048453333333,60.0,97.0
162,97.42820490000001,97.54217536666667,65.0,107.0
163,97.6487929,97.99989546666667,65.0,122.0
164,98.31055690000001,98.4098215,63.0,127.0
165,98.5311449,98.69842413333335,63.0,112.0
166,98.75173290000001,98.93004153333334,65.0,102.0
167,98.97232090000001,99.08445313333334,63.0,117.0
168,99.1929089,99.30504113333335,63.0,97.0
169,99.41349690000001,99.50908503333333,63.0,102.0
170,99.6340849,99.88040816666667,63.0,122.0
171,99.85467290000001,100.10467263333334,60.0,107.0
172,100.29584890000001,100.56239273333334,58.0,112.0
173,100.73702490000001,102.06422936666668,56.0,107.0
174,117.28112490000001,117.93002126666667,60.0,112.0
175,117.94288890000001,118.15244750000001,58.0,93.0
176,118.1634769,119.28479923333335,56.0,107.0
177,119.4870049,119.86935743333335,56.0,107.0
178,119.92818090000002,120.36200396666668,56.0,117.0
179,120.36935690000001,120.74987120000002,60.0,100.0
180,120.81053290000001,121.20023836666668,63.0,117.0
181,121.25170890000001,121.71678193333334,67.0,96.0
182,121.69288490000001,122.97597176666667,63.0,107.0
183,123.0164129,123.34729490000001,60.0,93.0
184,123.4575889,123.95758836666667,63.0,127.0
185,124.78111690000001,124.8748668,63.0,102.0
186,125.00170490000001,125.1395724,63.0,93.0
187,125.22229290000001,125.40979270000001,68.0,93.0
188,125.4428809,126.2149389,65.0,99.0
189,126.76640890000002,126.86934996666668,63.0,102.0
190,126.98699690000001,127.26089366666668,63.0,107.0
191,127.4281729,127.68736380000001,60.0,96.0
192,127.8693489,128.13037803333333,58.0,102.0
193,128.31052490000002,128.58442166666669,56.0,95.0
194,128.7517009,130.27743456666667,58.0,102.0
195,130.0752289,130.36566976666668,53.0,96.0
196,130.5164049,131.5311097,58.0,99.0
197,131.8399329,131.99618273333334,56.0,100.0
198,132.0605209,132.32706473333334,65.0,89.0
199,132.28110890000002,132.5936085666667,63.0,117.0
200,132.7222849,133.06419630000002,60.0,96.0
201,133.16346090000002,133.47596056666669,58.0,96.0
202,133.6046369,134.3877243,56.0,93.0
203,134.4869889,134.63404756666668,51.0,97.0
204,134.70757690000002,134.9208119666667,53.0,88.0
205,134.9281649,135.1818411,56.0,99.0
206,135.3693409,135.7388258,65.0,93.0
207,135.8105169,136.50904556666669,63.0,102.0
208,136.6928689,137.42632400000002,58.0,99.0
209,137.5752209,138.5733816,60.0,95.0
210,138.89874890000002,139.0513222666667,58.0,107.0
211,139.1193369,139.2663955666667,56.0,77.0
212,139.3399249,139.6046305,58.0,96.0
213,139.7811009,140.27926213333333,60.0,96.0
214,140.6634529,140.8785262,58.0,117.0
215,140.8840409,141.06602600000002,56.0,88.0
216,141.10462890000002,141.6616136,53.0,97.0
217,142.4281569,142.5825685,58.0,100.0
218,142.6487449,142.81050943333335,56.0,73.0
219,142.86933290000002,143.10646500000001,58.0,93.0
220,143.3105089,143.74984666666668,60.0,95.0
221,143.9722729,144.28293433333334,58.0,107.0
222,144.41344890000002,144.68550743333336,56.0,107.0
223,144.8546249,146.13587353333335,51.0,92.0
224,146.83991690000002,147.0880784,63.0,112.0
225,147.2810929,147.54763673333335,56.0,100.0
226,147.72226890000002,147.9263128,56.0,100.0
227,147.9428569,148.11013613333336,55.0,66.0
228,148.1634449,148.61197383333334,56.0,93.0
229,148.60462090000001,149.02557633333333,60.0,97.0
230,149.0457969,149.3766789,63.0,117.0
231,149.4869729,149.8325607666667,67.0,102.0
232,149.92814890000002,151.20204460000002,63.0,100.0
233,151.2516769,151.5825589,60.0,93.0
234,151.69285290000002,152.19285236666667,63.0,127.0
235,153.0163809,153.1101308,63.0,102.0
236,153.23696890000002,153.37483640000002,63.0,93.0
237,153.45755690000001,153.6450567,68.0,93.0
238,153.6781449,154.12299736666668,65.0,99.0
239,154.3399089,154.54579103333336,65.0,100.0
240,154.78108490000002,154.91895240000002,63.0,112.0
241,155.00167290000002,155.10461396666668,63.0,102.0
242,155.2222609,155.49615766666668,63.0,107.0
243,155.66343690000002,155.92262780000001,60.0,96.0
244,156.54578890000002,156.80681803333334,58.0,102.0
245,156.7663769,157.04027366666668,56.0,95.0
246,157.20755290000002,158.36931636666668,58.0,102.0
247,158.3104929,158.60093376666669,53.0,96.0
248,158.7516689,159.7663737,58.0,99.0
249,160.0751969,160.23144673333334,56.0,100.0
250,160.2957849,160.56232873333335,65.0,89.0
251,160.51637290000002,160.8288725666667,63.0,117.0
252,160.9575489,161.29946030000002,60.0,96.0
253,161.39872490000002,161.7112245666667,58.0,96.0
254,161.8399009,162.6229883,56.0,93.0
255,162.7222529,162.86931156666668,51.0,97.0
256,162.94284090000002,163.1560759666667,53.0,88.0
257,163.1634289,163.41710510000001,56.0,99.0
258,163.6046049,163.9740898,65.0,93.0
259,164.0457809,164.7443095666667,63.0,102.0
260,164.9281329,165.6505586,67.0,107.0
261,165.8104849,166.56783703333335,68.0,127.0
262,166.91342490000002,167.01268950000002,63.0,92.0
263,167.13401290000002,167.22776280000002,63.0,79.0
264,167.3546009,167.48511546666668,63.0,95.0
265,167.5751889,167.97408553333335,65.0,95.0
266,168.0163649,168.20570293333336,63.0,97.0
267,168.45754090000003,168.7663641,63.0,117.0
268,168.8987169,169.04393733333333,61.0,117.0
269,169.1193049,169.36930463333334,60.0,88.0
270,169.33989290000002,169.67812783333335,58.0,96.0
271,169.7810689,169.99798043333334,56.0,100.0
272,170.4428329,170.6579062,53.0,76.0
273,170.6634209,170.92996473333335,56.0,97.0
274,171.10459690000002,172.90974203333334,56.0,117.0
275,173.7516529,174.0586378666667,68.0,127.0
276,174.19282890000002,174.4281227666667,67.0,83.0
277,174.41341690000002,174.66341663333336,65.0,89.0
278,174.6340049,174.9704016,60.0,122.0
279,175.07518090000002,175.40790113333335,58.0,97.0
280,175.5163569,175.863783,60.0,107.0
281,175.95753290000002,176.2222385,63.0,112.0
282,176.3987089,176.62297336666668,63.0,127.0
283,177.0604729,177.1854727666667,56.0,100.0
284,177.2810609,177.43731073333333,56.0,127.0
285,177.50164890000002,177.72591336666667,68.0,117.0
286,177.9428249,178.12481000000002,68.0,92.0
287,178.16341290000003,178.54025073333335,65.0,100.0
288,178.6045889,178.79576516666668,65.0,92.0
289,178.8251769,179.07517663333334,63.0,100.0
290,179.26635290000002,179.5310585,65.0,102.0
291,179.7075289,179.96855803333335,63.0,107.0
292,179.92811690000002,180.52002803333335,60.0,95.0
293,181.0310569,181.18730673333334,60.0,90.0
294,181.2516449,181.36377713333334,65.0,90.0
295,181.47223290000002,181.58987983333336,65.0,86.0
296,181.69282090000002,181.87664423333334,65.0,96.0
297,182.1339969,182.28473203333334,63.0,97.0
298,182.35458490000002,182.6578934,65.0,95.0
299,183.01634890000003,183.27921626666668,65.0,99.0
300,183.23693690000002,183.39134850000002,63.0,95.0
301,183.4575249,183.70752463333335,65.0,96.0
302,183.89870090000002,184.13950946666668,63.0,107.0
303,184.11928890000002,184.3270092666667,60.0,83.0
304,184.3398769,184.64686186666668,65.0,92.0
305,184.78105290000002,184.96119976666668,65.0,112.0
306,185.0016409,185.09906726666668,63.0,112.0
307,185.2222289,185.39502283333334,65.0,99.0
308,185.44281690000003,185.54391973333335,63.0,99.0
309,185.66340490000002,185.76634596666668,63.0,96.0
310,185.8839929,185.97774280000002,63.0,102.0
311,186.1045809,186.3453894666667,63.0,112.0
312,186.54575690000001,186.85458010000002,60.0,112.0
313,186.98693290000003,187.67627040000002,58.0,100.0
314,187.86928490000003,188.17626986666667,68.0,127.0
315,188.3104609,188.54575476666668,67.0,83.0
316,188.5310489,188.78104863333334,65.0,89.0
317,188.75163690000002,189.08803360000002,60.0,122.0
318,189.1928129,189.52553313333334,58.0,97.0
319,189.63398890000002,189.98141500000003,60.0,107.0
320,190.0751649,190.33987050000002,63.0,112.0
321,190.51634090000002,190.74060536666667,63.0,127.0
322,191.17810490000002,191.30310476666668,56.0,100.0
323,191.39869290000001,191.55494273333335,56.0,127.0
324,191.6192809,191.8435453666667,68.0,117.0
325,192.06045690000002,192.242442,68.0,92.0
326,192.2810449,192.65788273333334,65.0,100.0
327,192.72222090000002,192.81229433333334,65.0,122.0
328,192.94280890000002,193.02920586666667,65.0,95.0
329,193.1633969,193.2883967666667,65.0,100.0
330,193.3839849,193.59721996666667,63.0,127.0
331,193.82516090000001,193.9777342666667,60.0,97.0
332,194.0457489,194.33067506666669,65.0,117.0
333,195.36927690000002,195.5292032,60.0,107.0
334,195.5898649,195.70015890000002,58.0,99.0
335,195.8104529,196.04390853333334,60.0,97.0
336,196.25162890000001,196.3655993666667,65.0,107.0
337,196.4722169,196.82331946666667,65.0,122.0
338,197.1339809,197.2332455,63.0,127.0
339,197.3545689,197.52184813333335,63.0,112.0
340,197.57515690000002,197.75346553333335,65.0,102.0
341,197.79574490000002,197.90787713333336,63.0,117.0
342,198.0163329,198.12846513333335,63.0,97.0
343,198.2369209,198.33250903333334,63.0,102.0
344,198.45750890000002,198.70383216666667,63.0,122.0
345,198.6780969,198.92809663333335,60.0,107.0
346,199.11927290000003,199.38581673333334,58.0,112.0
347,199.5604489,200.88765336666668,56.0,107.0
348,201.9869169,202.2939018666667,68.0,127.0
349,202.42809290000002,202.6633867666667,67.0,83.0
350,202.64868090000002,202.89868063333336,65.0,89.0
351,202.8692689,203.2056656,60.0,122.0
352,203.31044490000002,203.64316513333335,58.0,97.0
353,203.7516209,204.099047,60.0,107.0
354,204.19279690000002,204.4575025,63.0,112.0
355,204.6339729,204.85823736666669,63.0,127.0
356,205.2957369,205.4207367666667,56.0,100.0
357,205.51632490000003,205.67257473333336,56.0,127.0
358,205.73691290000002,205.96117736666667,68.0,117.0
359,206.1780889,206.36007400000003,68.0,92.0
360,206.39867690000003,206.77551473333335,65.0,100.0
361,206.8398529,207.03102916666668,65.0,92.0
362,207.0604409,207.31044063333334,63.0,100.0
363,207.50161690000002,207.76632250000003,65.0,102.0
364,207.94279290000003,208.20382203333335,63.0,107.0
365,208.16338090000002,208.75529203333335,60.0,95.0
366,209.2663209,209.42257073333334,60.0,90.0
367,209.4869089,209.59904113333334,65.0,90.0
368,209.70749690000002,209.82514383333336,65.0,86.0
369,209.92808490000002,210.11190823333334,65.0,96.0
370,210.36926090000003,210.51999603333334,63.0,97.0
371,210.58984890000002,210.8931574,65.0,95.0
372,211.25161290000003,211.51448026666668,65.0,99.0
373,211.47220090000002,211.62661250000002,63.0,95.0
374,211.6927889,211.94278863333335,65.0,96.0
375,212.13396490000002,212.37477346666668,63.0,107.0
376,212.35455290000002,212.5622732666667,60.0,83.0
377,212.5751409,212.88212586666668,65.0,92.0
378,213.01631690000002,213.19646376666668,65.0,112.0
379,213.2369049,213.33433126666668,63.0,112.0
380,213.4574929,213.63028683333334,65.0,99.0
381,213.67808090000003,213.77918373333335,63.0,99.0
382,213.89866890000002,214.00160996666668,63.0,96.0
383,214.1192569,214.21300680000002,63.0,102.0
384,214.3398449,214.5806534666667,63.0,112.0
385,214.78102090000002,215.08984410000002,60.0,112.0
386,215.22219690000003,215.91153440000002,58.0,100.0
387,216.10454890000003,216.41153386666667,68.0,127.0
388,216.5457249,216.78101876666668,67.0,83.0
389,216.7663129,217.01631263333334,65.0,89.0
390,216.98690090000002,217.32329760000002,60.0,122.0
391,217.4280769,217.76079713333334,58.0,97.0
392,217.86925290000002,218.21667900000003,60.0,107.0
393,218.3104289,218.57513450000002,63.0,112.0
394,218.75160490000002,218.97586936666667,63.0,127.0
395,219.41336890000002,219.53836876666668,56.0,100.0
396,219.63395690000002,219.79020673333335,56.0,127.0
397,219.8545449,220.0788093666667,68.0,117.0
398,220.29572090000002,220.477706,68.0,92.0
399,220.5163089,220.89314673333334,65.0,100.0
400,220.95748490000003,221.04755833333334,65.0,122.0
401,221.17807290000002,221.26446986666667,65.0,95.0
402,221.3986609,221.5236607666667,65.0,100.0
403,221.61924890000003,221.83248396666667,63.0,127.0
404,222.06042490000002,222.2129982666667,60.0,97.0
405,222.2810129,222.5659390666667,65.0,117.0
406,223.60454090000002,223.7644672,60.0,107.0
407,223.8251289,223.93542290000002,58.0,99.0
408,224.04571690000003,224.27917253333334,60.0,97.0
409,224.48689290000002,224.6008633666667,65.0,107.0
410,224.7074809,225.05858346666668,65.0,122.0
411,225.3692449,225.4685095,63.0,127.0
412,225.5898329,225.75711213333335,63.0,112.0
413,225.81042090000003,225.98872953333336,65.0,102.0
414,226.03100890000002,226.14314113333336,63.0,117.0
415,226.2515969,226.36372913333335,63.0,97.0
416,226.47218490000003,226.56777303333334,63.0,102.0
417,226.69277290000002,226.93909616666667,63.0,122.0
418,226.91336090000001,227.16336063333335,60.0,107.0
419,227.35453690000003,227.62108073333334,58.0,112.0
420,227.7957129,229.12291736666668,56.0,107.0
421,230.66335690000003,230.89313606666667,60.0,92.0
422,230.88394490000002,231.0052683,58.0,74.0
423,231.1045329,231.60269413333336,60.0,93.0
424,231.76629690000001,231.9648261,65.0,99.0
425,231.9868849,233.28835410000002,65.0,102.0
426,233.31041290000002,233.50710386666668,63.0,100.0
427,233.75158890000003,233.94276516666667,63.0,86.0
428,233.97217690000002,234.31960300000003,65.0,99.0
429,234.4133529,234.51813220000003,63.0,107.0
430,234.63394090000003,234.7699701666667,63.0,127.0
431,235.0751169,236.61923290000001,63.0,127.0
432,237.14680586666668,237.65232003333335,63.0,102.0
433,237.83614336666668,238.0916578,60.0,102.0
434,238.2681282,238.5604073,58.0,112.0
435,238.75158356666668,243.35084336666668,56.0,112.0
