,start,end,pitch,velocity
0,32.889583333333334,33.141666666666666,55.0,84.0
1,33.18333333333333,33.62083333333333,67.0,85.0
2,33.80625,34.104166666666664,65.0,82.0
3,34.108333333333334,34.641666666666666,63.0,83.0
4,34.63333333333333,34.91458333333333,62.0,79.0
5,34.891666666666666,35.72708333333333,63.0,87.0
6,35.802083333333336,36.016666666666666,60.0,86.0
7,36.052083333333336,36.40416666666667,63.0,89.0
8,36.52916666666667,36.87916666666666,70.0,83.0
9,37.02916666666667,37.427083333333336,70.0,94.0
10,37.514583333333334,37.84791666666666,68.0,85.0
11,38.00416666666666,38.520833333333336,68.0,85.0
12,38.49166666666667,38.97708333333333,67.0,74.0
13,38.97083333333333,40.43125,65.0,83.0
14,40.9875,41.65833333333333,62.0,85.0
15,41.75208333333333,41.94166666666666,63.0,75.0
16,42.0125,42.39375,65.0,84.0
17,42.520833333333336,42.75,62.0,85.0
18,42.791666666666664,43.608333333333334,58.0,83.0
19,43.78125,44.00208333333333,58.0,81.0
20,44.05416666666667,44.52708333333333,60.0,85.0
21,44.572916666666664,44.8875,72.0,85.0
22,45.05833333333333,45.427083333333336,72.0,89.0
23,45.541666666666664,45.90625,70.0,92.0
24,46.06458333333333,46.56458333333333,70.0,86.0
25,46.53958333333333,46.78333333333333,68.0,83.0
26,46.77708333333333,48.5125,67.0,79.0
27,48.51875,48.729166666666664,65.0,83.0
28,48.78333333333333,48.989583333333336,67.0,83.0
29,49.072916666666664,49.56875,68.0,85.0
30,49.53333333333333,49.77708333333333,67.0,75.0
31,49.78958333333333,50.81458333333333,65.0,79.0
32,51.014583333333334,51.385416666666664,62.0,79.0
33,51.512499999999996,51.7125,62.0,78.0
34,51.764583333333334,52.1875,63.0,84.0
35,52.260416666666664,52.925,65.0,87.0
36,53.00416666666666,53.6625,67.0,88.0
37,53.76875,54.33958333333333,72.0,83.0
38,54.53333333333333,54.74791666666667,67.0,83.0
39,54.762499999999996,55.02291666666667,65.0,81.0
40,55.03333333333333,56.2125,63.0,84.0
41,56.81458333333333,57.016666666666666,55.0,85.0
42,57.08958333333333,57.44166666666666,67.0,83.0
43,57.53333333333333,57.675,65.0,83.0
44,57.76875,57.91458333333333,65.0,81.0
45,58.043749999999996,58.458333333333336,63.0,84.0
46,58.53541666666666,58.87291666666667,62.0,84.0
47,59.03541666666666,59.454166666666666,62.0,86.0
48,59.56041666666667,59.97291666666666,63.0,84.0
49,60.09375,60.43541666666667,62.0,83.0
50,60.52291666666667,60.90833333333333,58.0,85.0
51,61.01875,61.99375,62.0,79.0
52,62.05416666666667,62.420833333333334,62.0,83.0
53,62.52916666666667,63.00833333333333,60.0,84.0
54,63.06875,64.7,60.0,84.0
55,65.06666666666666,65.28125,68.0,87.0
56,65.31666666666666,65.51458333333333,67.0,80.0
57,65.56666666666666,65.79375,68.0,90.0
58,65.81666666666666,65.98125,67.0,83.0
59,66.06666666666666,66.4375,68.0,92.0
60,66.56666666666666,66.71666666666667,68.0,85.0
61,66.81666666666666,66.97708333333333,70.0,89.0
62,67.06666666666666,67.65416666666667,72.0,88.0
63,67.81666666666666,68.47708333333333,70.0,88.0
64,68.56666666666666,68.93541666666667,68.0,85.0
65,69.06666666666666,69.33333333333333,67.0,84.0
66,69.31666666666666,69.60416666666667,68.0,86.0
67,69.56666666666666,72.18541666666667,67.0,84.0
68,73.06666666666666,73.2375,65.0,84.0
69,73.31666666666666,73.50416666666666,63.0,83.0
70,73.56666666666666,73.75416666666666,65.0,83.0
71,73.81666666666666,73.99791666666667,63.0,84.0
72,74.06666666666666,74.44791666666667,65.0,85.0
73,74.56666666666666,74.69166666666666,65.0,83.0
74,74.81666666666666,74.94583333333333,67.0,84.0
75,75.06666666666666,75.44166666666666,68.0,85.0
76,75.56666666666666,75.92708333333333,67.0,86.0
77,76.06666666666666,76.21666666666667,62.0,84.0
78,76.31666666666666,76.96666666666667,67.0,82.0
79,77.06666666666666,79.64583333333333,67.0,85.0
80,81.06666666666666,81.22708333333333,68.0,94.0
81,81.31666666666666,81.47291666666666,67.0,74.0
82,81.56666666666666,81.75625,68.0,84.0
83,81.81666666666666,81.96666666666667,67.0,83.0
84,82.06666666666666,82.46875,68.0,85.0
85,82.56666666666666,82.72708333333333,68.0,88.0
86,82.81666666666666,82.97708333333333,70.0,87.0
87,83.06666666666666,83.5375,72.0,87.0
88,83.56666666666666,83.72291666666666,70.0,86.0
89,83.81666666666666,84.45,70.0,87.0
90,84.56666666666666,85.01875,68.0,84.0
91,85.06666666666666,85.64375,67.0,87.0
92,85.81666666666666,86.46875,70.0,87.0
93,86.56666666666666,86.73958333333333,75.0,88.0
94,86.81666666666666,87.02083333333333,74.0,83.0
95,87.06666666666666,88.76041666666667,72.0,84.0
96,90.06666666666666,90.23333333333333,72.0,83.0
97,90.31666666666666,90.46666666666667,72.0,84.0
98,90.56666666666666,90.71666666666667,72.0,85.0
99,90.81666666666666,90.97916666666667,72.0,85.0
100,91.06666666666666,91.43125,72.0,84.0
101,91.56666666666666,91.71666666666667,74.0,87.0
102,91.81666666666666,92.52916666666667,75.0,84.0
103,92.56666666666666,93.02291666666666,72.0,88.0
104,93.06666666666666,93.49791666666667,74.0,94.0
105,93.56666666666666,93.71458333333334,75.0,89.0
106,93.81666666666666,95.54375,74.0,88.0
107,95.56666666666666,95.92708333333333,67.0,87.0
108,96.06666666666666,96.45208333333333,79.0,85.0
109,96.56666666666666,96.88541666666667,77.0,86.0
110,97.06666666666666,97.48125,75.0,87.0
111,97.56666666666666,97.72708333333333,74.0,84.0
112,97.81666666666666,99.45625,75.0,86.0
113,99.56666666666666,99.93541666666667,67.0,88.0
114,100.06666666666666,100.43125,79.0,87.0
115,100.56666666666666,100.94583333333333,77.0,87.0
116,101.06666666666666,101.81666666666666,75.0,89.0
117,101.81666666666666,103.3,68.0,86.0
118,103.56666666666666,103.97291666666666,65.0,99.0
119,104.06666666666666,104.43333333333334,77.0,87.0
120,104.56666666666666,104.9375,75.0,90.0
121,105.06666666666666,105.21666666666667,74.0,83.0
122,105.31666666666666,105.51458333333333,75.0,87.0
123,105.56666666666666,106.06666666666666,74.0,97.0
124,106.06666666666666,106.3625,74.0,94.0
125,106.56666666666666,106.7375,72.0,84.0
126,106.81666666666666,107.45,70.0,89.0
127,107.56666666666666,107.94375,72.0,85.0
128,108.06666666666666,108.44166666666666,74.0,92.0
129,108.56666666666666,108.93124999999999,68.0,87.0
130,109.06666666666666,109.54166666666667,68.0,90.0
131,109.56666666666666,109.73333333333333,67.0,85.0
132,109.81666666666666,110.06666666666666,67.0,88.0
133,110.06666666666666,110.43958333333333,70.0,89.0
134,110.56666666666666,110.71249999999999,68.0,85.0
135,110.81666666666666,111.43958333333333,67.0,84.0
136,111.56666666666666,111.97708333333333,67.0,88.0
137,112.06666666666666,112.44375,79.0,89.0
138,112.56666666666666,113.00625,77.0,90.0
139,113.06666666666666,113.55833333333334,75.0,87.0
140,113.56666666666666,113.71666666666667,74.0,86.0
141,113.81666666666666,115.17083333333333,75.0,85.0
142,115.56666666666666,115.86458333333333,72.0,87.0
143,116.06666666666666,116.53125,75.0,90.0
144,116.56666666666666,116.9375,79.0,88.0
145,117.06666666666666,117.70208333333333,80.0,90.0
146,117.81666666666666,118.54375,80.0,89.0
147,118.56666666666666,118.79375,79.0,83.0
148,118.81666666666666,120.06666666666666,77.0,85.0
149,121.56666666666666,121.76875,74.0,94.0
150,121.81666666666666,122.0625,75.0,87.0
151,122.06666666666666,122.48333333333333,74.0,94.0
152,122.56666666666666,122.80624999999999,75.0,85.0
153,122.81666666666666,123.45,74.0,86.0
154,123.56666666666666,123.95208333333333,75.0,87.0
155,124.06666666666666,124.40416666666667,74.0,90.0
156,124.56666666666666,124.97291666666666,67.0,87.0
157,125.06666666666666,126.04583333333333,74.0,94.0
158,126.06666666666666,128.80625,72.0,87.0
159,161.06666666666666,161.28125,68.0,87.0
160,161.31666666666666,161.51458333333332,67.0,80.0
161,161.56666666666666,161.79375,68.0,90.0
162,161.81666666666666,161.98125,67.0,83.0
163,162.06666666666666,162.4375,68.0,92.0
164,162.56666666666666,162.71666666666667,68.0,85.0
165,162.81666666666666,162.97708333333333,70.0,89.0
166,163.06666666666666,163.65416666666667,72.0,88.0
167,163.81666666666666,164.47708333333333,70.0,88.0
168,164.56666666666666,164.93541666666667,68.0,85.0
169,165.06666666666666,165.33333333333334,67.0,84.0
170,165.31666666666666,165.60416666666666,68.0,86.0
171,165.56666666666666,168.18541666666667,67.0,84.0
172,169.06666666666666,169.2375,65.0,84.0
173,169.31666666666666,169.50416666666666,63.0,83.0
174,169.56666666666666,169.75416666666666,65.0,83.0
175,169.81666666666666,169.99791666666667,63.0,84.0
176,170.06666666666666,170.44791666666666,65.0,85.0
177,170.56666666666666,170.69166666666666,65.0,83.0
178,170.81666666666666,170.94583333333333,67.0,84.0
179,171.06666666666666,171.44166666666666,68.0,85.0
180,171.56666666666666,171.92708333333334,67.0,86.0
181,172.06666666666666,172.21666666666667,62.0,84.0
182,172.31666666666666,172.96666666666667,67.0,82.0
183,173.06666666666666,175.64583333333334,67.0,85.0
184,177.06666666666666,177.22708333333333,68.0,94.0
185,177.31666666666666,177.47291666666666,67.0,74.0
186,177.56666666666666,177.75625,68.0,84.0
187,177.81666666666666,177.96666666666667,67.0,83.0
188,178.06666666666666,178.46875,68.0,85.0
189,178.56666666666666,178.72708333333333,68.0,88.0
190,178.81666666666666,178.97708333333333,70.0,87.0
191,179.06666666666666,179.5375,72.0,87.0
192,179.56666666666666,179.72291666666666,70.0,86.0
193,179.81666666666666,180.45,70.0,87.0
194,180.56666666666666,181.01875,68.0,84.0
195,181.06666666666666,181.64375,67.0,87.0
196,181.81666666666666,182.46875,70.0,87.0
197,182.56666666666666,182.73958333333334,75.0,88.0
198,182.81666666666666,183.02083333333334,74.0,83.0
199,183.06666666666666,184.76041666666666,72.0,84.0
200,186.06666666666666,186.23333333333332,72.0,83.0
201,186.31666666666666,186.46666666666667,72.0,84.0
202,186.56666666666666,186.71666666666667,72.0,85.0
203,186.81666666666666,186.97916666666666,72.0,85.0
204,187.06666666666666,187.43125,72.0,84.0
205,187.56666666666666,187.71666666666667,74.0,87.0
206,187.81666666666666,188.52916666666667,75.0,84.0
207,188.56666666666666,189.02291666666667,72.0,88.0
208,189.06666666666666,189.49791666666667,74.0,94.0
209,189.56666666666666,189.71458333333334,75.0,89.0
210,189.81666666666666,191.54375,74.0,88.0
211,191.56666666666666,191.92708333333334,67.0,87.0
212,192.06666666666666,192.45208333333332,79.0,85.0
213,192.56666666666666,192.88541666666666,77.0,86.0
214,193.06666666666666,193.48125,75.0,87.0
215,193.56666666666666,193.72708333333333,74.0,84.0
216,193.81666666666666,195.45625,75.0,86.0
217,195.56666666666666,195.93541666666667,67.0,88.0
218,196.06666666666666,196.43125,79.0,87.0
219,196.56666666666666,196.94583333333333,77.0,87.0
220,197.06666666666666,197.81666666666666,75.0,89.0
221,197.81666666666666,199.3,68.0,86.0
222,199.56666666666666,199.97291666666666,65.0,99.0
223,200.06666666666666,200.43333333333334,77.0,87.0
224,200.56666666666666,200.9375,75.0,90.0
225,201.06666666666666,201.21666666666667,74.0,83.0
226,201.31666666666666,201.51458333333332,75.0,87.0
227,201.56666666666666,202.06666666666666,74.0,97.0
228,202.06666666666666,202.3625,74.0,94.0
229,202.56666666666666,202.7375,72.0,84.0
230,202.81666666666666,203.45,70.0,89.0
231,203.56666666666666,203.94375,72.0,85.0
232,204.06666666666666,204.44166666666666,74.0,92.0
233,204.56666666666666,204.93125,68.0,87.0
234,205.06666666666666,205.54166666666666,68.0,90.0
235,205.56666666666666,205.73333333333332,67.0,85.0
236,205.81666666666666,206.06666666666666,67.0,88.0
237,206.06666666666666,206.43958333333333,70.0,89.0
238,206.56666666666666,206.7125,68.0,85.0
239,206.81666666666666,207.43958333333333,67.0,84.0
240,207.56666666666666,207.97708333333333,67.0,88.0
241,208.06666666666666,208.44375,79.0,89.0
242,208.56666666666666,209.00625,77.0,90.0
243,209.06666666666666,209.55833333333334,75.0,87.0
244,209.56666666666666,209.71666666666667,74.0,86.0
245,209.81666666666666,211.17083333333332,75.0,85.0
246,211.56666666666666,211.86458333333334,72.0,87.0
247,212.06666666666666,212.53125,75.0,90.0
248,212.56666666666666,212.9375,79.0,88.0
249,213.06666666666666,213.70208333333332,80.0,90.0
250,213.81666666666666,214.54375,80.0,89.0
251,214.56666666666666,214.79375,79.0,83.0
252,214.81666666666666,216.06666666666666,77.0,85.0
253,217.56666666666666,217.76874999999998,74.0,94.0
254,217.81666666666666,218.0625,75.0,87.0
255,218.06666666666666,218.48333333333332,74.0,94.0
256,218.56666666666666,218.80625,75.0,85.0
257,218.81666666666666,219.45,74.0,86.0
258,219.56666666666666,219.95208333333332,75.0,87.0
259,220.06666666666666,220.40416666666667,74.0,90.0
260,220.56666666666666,220.97291666666666,67.0,87.0
261,221.06666666666666,222.04583333333332,74.0,94.0
262,222.06666666666666,223.325,72.0,87.0
263,223.56666666666666,223.92708333333334,67.0,87.0
264,224.06666666666666,224.45208333333332,79.0,85.0
265,224.56666666666666,224.88541666666666,77.0,86.0
266,225.06666666666666,225.48125,75.0,87.0
267,225.56666666666666,225.72708333333333,74.0,84.0
268,225.81666666666666,227.45624999999998,75.0,86.0
269,227.56666666666666,227.93541666666667,67.0,88.0
270,228.06666666666666,228.43125,79.0,87.0
271,228.56666666666666,228.94583333333333,77.0,87.0
272,229.06666666666666,229.81666666666666,75.0,89.0
273,229.81666666666666,231.29999999999998,68.0,86.0
274,231.56666666666666,231.97291666666666,65.0,99.0
275,232.06666666666666,232.43333333333334,77.0,87.0
276,232.56666666666666,232.9375,75.0,90.0
277,233.06666666666666,233.21666666666667,74.0,83.0
278,233.31666666666666,233.51458333333332,75.0,87.0
279,233.56666666666666,234.06666666666666,74.0,97.0
280,234.06666666666666,234.36249999999998,74.0,94.0
281,234.56666666666666,234.73749999999998,72.0,84.0
282,234.81666666666666,235.45,70.0,89.0
283,235.56666666666666,235.94375,72.0,85.0
284,236.06666666666666,236.44166666666666,74.0,92.0
285,236.56666666666666,236.93125,68.0,87.0
286,237.06666666666666,237.54166666666666,68.0,90.0
287,237.56666666666666,237.73333333333332,67.0,85.0
288,237.81666666666666,238.06666666666666,67.0,88.0
289,238.06666666666666,238.43958333333333,70.0,89.0
290,238.56666666666666,238.7125,68.0,85.0
291,238.81666666666666,239.43958333333333,67.0,84.0
292,239.56666666666666,239.97708333333333,67.0,88.0
293,240.06666666666666,240.44375,79.0,89.0
294,240.56666666666666,241.00625,77.0,90.0
295,241.06666666666666,241.55833333333334,75.0,87.0
296,241.56666666666666,241.71666666666667,74.0,86.0
297,241.81666666666666,243.17083333333332,75.0,85.0
298,243.56666666666666,243.86458333333334,72.0,87.0
299,244.06666666666666,244.53125,75.0,90.0
300,244.56666666666666,244.9375,79.0,88.0
301,245.06666666666666,245.70208333333332,80.0,90.0
302,245.81666666666666,246.54375,80.0,89.0
303,246.56666666666666,246.79375,79.0,83.0
304,246.81666666666666,248.06666666666666,77.0,85.0
305,249.56666666666666,249.76874999999998,74.0,94.0
306,249.81666666666666,250.0625,75.0,87.0
307,250.06666666666666,250.48333333333332,74.0,94.0
308,250.56666666666666,250.80625,75.0,85.0
309,250.81666666666666,251.45,74.0,86.0
310,251.56666666666666,251.95208333333332,75.0,87.0
311,252.06666666666666,252.40416666666667,74.0,90.0
312,252.56666666666666,252.97291666666666,67.0,87.0
313,253.06666666666666,254.04583333333332,74.0,94.0
314,254.06666666666666,256.80625,72.0,87.0
