,start,end,pitch,velocity
0,1.5666666666666667,2.40625,53.0,77.0
1,1.8166666666666667,2.4479166666666665,56.0,84.0
2,2.3166666666666664,2.6166666666666667,63.0,63.0
3,3.0666666666666664,4.020833333333333,56.0,58.0
4,3.0666666666666664,4.11875,63.0,59.0
5,1.3166666666666667,4.222916666666666,48.0,72.0
6,1.0666666666666667,4.297916666666667,41.0,83.0
7,5.816666666666666,6.170833333333333,58.0,86.0
8,6.316666666666666,6.379166666666666,58.0,61.0
9,5.566666666666666,6.3875,55.0,76.0
10,6.316666666666666,6.622916666666667,62.0,81.0
11,7.066666666666666,7.835416666666666,58.0,57.0
12,5.066666666666666,8.139583333333333,39.0,84.0
13,5.316666666666666,8.152083333333334,46.0,69.0
14,7.066666666666666,8.354166666666666,62.0,78.0
15,9.066666666666666,9.585416666666667,60.0,77.0
16,9.566666666666666,10.333333333333334,53.0,78.0
17,9.816666666666666,10.654166666666667,56.0,83.0
18,9.066666666666666,10.760416666666666,41.0,83.0
19,9.316666666666666,10.791666666666666,48.0,78.0
20,10.316666666666666,10.95,63.0,72.0
21,11.066666666666666,11.791666666666666,55.0,72.0
22,11.066666666666666,11.9625,62.0,79.0
23,11.066666666666666,12.220833333333333,43.0,83.0
24,12.066666666666666,12.222916666666666,59.0,77.0
25,12.066666666666666,12.25625,55.0,76.0
26,13.066666666666666,13.208333333333334,36.0,78.0
27,14.316666666666666,14.527083333333334,48.0,76.0
28,13.066666666666666,14.549999999999999,55.0,76.0
29,13.066666666666666,14.595833333333333,63.0,76.0
30,14.816666666666666,14.9625,62.0,77.0
31,15.066666666666666,15.379166666666666,55.0,77.0
32,15.566666666666666,15.789583333333333,55.0,70.0
33,15.066666666666666,16.041666666666668,63.0,83.0
34,14.566666666666666,16.21875,50.0,74.0
35,16.066666666666666,16.26875,60.0,82.0
36,16.066666666666666,16.308333333333334,55.0,82.0
37,17.066666666666666,17.641666666666666,56.0,78.0
38,17.566666666666666,18.427083333333332,53.0,78.0
39,17.816666666666666,18.635416666666668,56.0,80.0
40,17.316666666666666,18.958333333333332,48.0,69.0
41,17.066666666666666,18.995833333333334,41.0,83.0
42,18.316666666666666,19.2375,63.0,85.0
43,20.066666666666666,20.50208333333333,56.0,77.0
44,20.066666666666666,20.589583333333334,63.0,74.0
45,21.066666666666666,21.385416666666668,55.0,75.0
46,21.066666666666666,21.616666666666667,58.0,69.0
47,21.566666666666666,22.30625,55.0,75.0
48,21.816666666666666,22.375,58.0,88.0
49,22.316666666666666,22.59375,63.0,87.0
50,22.566666666666666,22.816666666666666,55.0,69.0
51,23.066666666666666,23.7625,62.0,79.0
52,21.066666666666666,24.170833333333334,39.0,85.0
53,21.316666666666666,24.175,46.0,71.0
54,24.066666666666666,24.35625,58.0,75.0
55,24.066666666666666,24.358333333333334,55.0,78.0
56,25.066666666666666,25.304166666666667,53.0,77.0
57,25.066666666666666,25.60625,60.0,81.0
58,25.566666666666666,25.702083333333334,53.0,73.0
59,25.816666666666666,26.227083333333333,55.0,82.0
60,26.316666666666666,26.404166666666665,56.0,94.0
61,25.316666666666666,26.520833333333332,48.0,72.0
62,25.066666666666666,26.554166666666667,41.0,83.0
63,27.066666666666666,27.59375,55.0,79.0
64,27.066666666666666,27.766666666666666,60.0,78.0
65,27.566666666666666,28.214583333333334,50.0,75.0
66,28.066666666666666,28.239583333333332,59.0,78.0
67,28.066666666666666,28.247916666666665,55.0,79.0
68,27.066666666666666,28.256249999999998,43.0,83.0
69,29.066666666666666,29.193749999999998,36.0,80.0
70,29.066666666666666,29.429166666666667,55.0,75.0
71,29.066666666666666,29.860416666666666,60.0,74.0
72,30.566666666666666,30.86875,60.0,78.0
73,30.066666666666666,31.364583333333332,55.0,85.0
74,31.066666666666666,31.464583333333334,60.0,72.0
75,31.066666666666666,31.508333333333333,67.0,77.0
76,31.566666666666666,32.329166666666666,55.0,66.0
77,29.566666666666666,32.37083333333333,48.0,76.0
78,32.06666666666666,32.833333333333336,60.0,68.0
79,32.06666666666666,32.833333333333336,63.0,70.0
80,33.56666666666666,34.19583333333333,55.0,83.0
81,34.06666666666666,34.40416666666667,63.0,85.0
82,34.56666666666666,34.641666666666666,62.0,84.0
83,35.06666666666666,35.43333333333333,55.0,80.0
84,35.56666666666666,35.858333333333334,55.0,68.0
85,35.06666666666666,35.91041666666666,67.0,81.0
86,36.06666666666666,36.2125,63.0,77.0
87,36.06666666666666,36.25416666666666,55.0,81.0
88,33.06666666666666,36.3125,48.0,84.0
89,38.06666666666666,38.55625,56.0,88.0
90,38.56666666666666,39.677083333333336,55.0,85.0
91,37.56666666666666,40.34791666666666,48.0,78.0
92,37.06666666666666,40.39375,41.0,85.0
93,40.06666666666666,40.40625,56.0,77.0
94,40.06666666666666,40.416666666666664,53.0,77.0
95,39.06666666666666,40.49166666666667,63.0,76.0
96,41.06666666666666,41.52708333333333,58.0,71.0
97,41.06666666666666,41.97083333333333,62.0,81.0
98,42.06666666666666,43.322916666666664,58.0,86.0
99,42.56666666666666,43.49583333333333,62.0,77.0
100,43.06666666666666,43.63125,65.0,78.0
101,44.06666666666666,44.197916666666664,58.0,84.0
102,41.06666666666666,44.22083333333333,46.0,80.0
103,44.06666666666666,44.239583333333336,62.0,83.0
104,41.56666666666666,44.26875,53.0,76.0
105,44.56666666666666,44.65625,46.0,90.0
106,45.06666666666666,46.114583333333336,55.0,75.0
107,45.06666666666666,46.172916666666666,58.0,73.0
108,46.06666666666666,46.51875,63.0,87.0
109,46.56666666666666,46.729166666666664,55.0,62.0
110,47.06666666666666,47.38125,55.0,70.0
111,47.06666666666666,47.41041666666666,58.0,66.0
112,45.06666666666666,48.295833333333334,39.0,79.0
113,45.56666666666666,48.33125,46.0,68.0
114,48.06666666666666,48.33541666666667,63.0,85.0
115,49.06666666666666,50.15,53.0,76.0
116,50.06666666666666,50.58125,56.0,88.0
117,49.06666666666666,50.59375,60.0,78.0
118,49.06666666666666,50.65833333333333,41.0,85.0
119,50.56666666666666,50.7125,53.0,83.0
120,49.56666666666666,50.729166666666664,48.0,71.0
121,51.06666666666666,51.583333333333336,55.0,77.0
122,51.06666666666666,51.64375,60.0,64.0
123,52.06666666666666,52.22291666666666,59.0,80.0
124,52.06666666666666,52.24583333333333,55.0,84.0
125,51.56666666666666,52.32083333333333,50.0,68.0
126,51.06666666666666,52.40416666666667,43.0,84.0
127,53.06666666666666,53.731249999999996,60.0,80.0
128,53.56666666666666,54.510416666666664,43.0,62.0
129,53.06666666666666,54.520833333333336,36.0,78.0
130,53.06666666666666,54.53958333333333,63.0,80.0
131,54.06666666666666,54.56666666666666,55.0,83.0
132,54.56666666666666,54.70625,60.0,85.0
133,55.06666666666666,55.74375,63.0,72.0
134,55.06666666666666,55.78958333333333,67.0,60.0
135,55.06666666666666,55.824999999999996,57.0,61.0
136,55.06666666666666,55.83958333333333,60.0,72.0
137,55.56666666666666,56.422916666666666,51.0,49.0
138,56.06666666666666,56.62708333333333,60.0,77.0
139,55.06666666666666,56.635416666666664,45.0,75.0
140,56.06666666666666,56.66458333333333,57.0,69.0
141,57.06666666666666,58.08125,56.0,73.0
142,57.06666666666666,58.08958333333333,53.0,77.0
143,58.06666666666666,58.606249999999996,60.0,89.0
144,57.06666666666666,58.614583333333336,41.0,81.0
145,57.56666666666666,58.614583333333336,48.0,77.0
146,58.56666666666666,58.69166666666666,53.0,74.0
147,59.06666666666666,59.59166666666667,55.0,78.0
148,59.06666666666666,59.645833333333336,60.0,81.0
149,60.06666666666666,60.233333333333334,55.0,83.0
150,59.06666666666666,60.36666666666667,43.0,84.0
151,61.06666666666666,61.19375,36.0,81.0
152,61.06666666666666,61.58125,60.0,72.0
153,61.06666666666666,61.62291666666667,63.0,74.0
154,62.06666666666666,62.608333333333334,62.0,83.0
155,62.56666666666666,62.78125,63.0,92.0
156,63.06666666666666,63.42916666666667,67.0,82.0
157,63.06666666666666,63.43541666666667,63.0,84.0
158,63.06666666666666,63.483333333333334,60.0,79.0
159,61.56666666666666,64.19583333333333,48.0,79.0
160,63.56666666666666,64.21666666666667,55.0,64.0
161,64.06666666666666,64.22083333333333,63.0,83.0
162,64.06666666666666,64.24166666666666,60.0,83.0
163,65.06666666666666,65.87916666666666,60.0,82.0
164,65.81666666666666,65.97708333333333,56.0,90.0
165,65.56666666666666,65.99375,53.0,79.0
166,66.06666666666666,66.15,60.0,57.0
167,65.31666666666666,66.16666666666667,48.0,70.0
168,66.06666666666666,66.53125,65.0,88.0
169,66.31666666666666,66.61458333333333,48.0,77.0
170,66.56666666666666,66.70833333333333,53.0,86.0
171,65.06666666666666,66.74583333333334,41.0,85.0
172,67.56666666666666,68.07083333333333,53.0,75.0
173,67.06666666666666,68.13541666666667,58.0,90.0
174,67.31666666666666,68.175,50.0,70.0
175,67.06666666666666,68.57291666666667,46.0,85.0
176,68.31666666666666,68.60833333333333,50.0,80.0
177,68.06666666666666,68.825,62.0,89.0
178,68.56666666666666,68.85833333333333,53.0,83.0
179,68.81666666666666,68.99791666666667,58.0,85.0
180,69.06666666666666,69.17083333333333,58.0,79.0
181,69.06666666666666,69.95,55.0,82.0
182,69.56666666666666,70.19375,46.0,74.0
183,70.06666666666666,70.24375,63.0,94.0
184,69.06666666666666,70.78541666666666,39.0,90.0
185,70.31666666666666,71.00416666666666,46.0,84.0
186,70.56666666666666,71.19583333333333,55.0,76.0
187,70.81666666666666,71.26458333333333,58.0,85.0
188,71.06666666666666,71.51458333333333,67.0,83.0
189,71.81666666666666,71.97291666666666,58.0,72.0
190,71.56666666666666,72.1125,55.0,77.0
191,72.06666666666666,72.12291666666667,58.0,61.0
192,71.31666666666666,72.19791666666667,46.0,72.0
193,71.06666666666666,72.44583333333333,39.0,83.0
194,72.31666666666666,72.47291666666666,46.0,62.0
195,72.06666666666666,72.59583333333333,63.0,90.0
196,72.56666666666666,72.73958333333333,55.0,78.0
197,73.06666666666666,73.33125,53.0,80.0
198,73.06666666666666,73.59583333333333,56.0,74.0
199,73.81666666666666,73.96458333333334,56.0,72.0
200,73.56666666666666,74.07916666666667,60.0,82.0
201,74.06666666666666,74.43541666666667,65.0,87.0
202,74.31666666666666,74.625,60.0,83.0
203,73.06666666666666,74.86041666666667,41.0,84.0
204,73.31666666666666,74.90208333333334,48.0,78.0
205,74.56666666666666,74.91041666666666,53.0,84.0
206,74.81666666666666,75.01041666666667,60.0,73.0
207,75.06666666666666,75.33541666666666,55.0,78.0
208,75.06666666666666,75.63541666666667,59.0,76.0
209,75.56666666666666,76.05416666666666,55.0,83.0
210,75.81666666666666,76.13958333333333,62.0,76.0
211,75.31666666666666,76.28541666666666,50.0,72.0
212,76.31666666666666,76.54583333333333,55.0,85.0
213,76.06666666666666,76.60416666666667,67.0,88.0
214,75.06666666666666,76.65833333333333,43.0,85.0
215,76.56666666666666,76.68125,50.0,83.0
216,77.06666666666666,77.32291666666667,60.0,78.0
217,77.06666666666666,77.36458333333333,63.0,83.0
218,77.06666666666666,77.44375,67.0,81.0
219,77.06666666666666,77.61458333333333,48.0,86.0
220,77.31666666666666,77.63125,55.0,79.0
221,77.56666666666666,77.74166666666666,60.0,97.0
222,78.06666666666666,78.21875,62.0,81.0
223,78.06666666666666,78.35416666666667,65.0,79.0
224,78.31666666666666,78.625,62.0,83.0
225,78.06666666666666,78.63541666666667,38.0,88.0
226,78.56666666666666,78.75416666666666,65.0,84.0
227,79.06666666666666,79.26666666666667,63.0,84.0
228,79.06666666666666,79.55625,67.0,79.0
229,79.06666666666666,79.675,39.0,90.0
230,79.56666666666666,79.84583333333333,63.0,94.0
231,79.31666666666666,79.92291666666667,46.0,84.0
232,79.81666666666666,79.94166666666666,67.0,87.0
233,80.06666666666666,80.28958333333333,64.0,83.0
234,80.06666666666666,80.66666666666667,67.0,87.0
235,80.31666666666666,80.72916666666667,46.0,79.0
236,80.06666666666666,80.8125,40.0,87.0
237,80.56666666666666,80.8125,64.0,90.0
238,80.81666666666666,81.09791666666666,72.0,86.0
239,81.06666666666666,81.35,53.0,86.0
240,81.06666666666666,81.59166666666667,60.0,82.0
241,81.56666666666666,82.0875,53.0,85.0
242,81.81666666666666,82.11458333333333,60.0,82.0
243,81.31666666666666,82.32708333333333,48.0,79.0
244,81.06666666666666,82.37083333333334,41.0,85.0
245,82.06666666666666,82.44166666666666,65.0,87.0
246,82.31666666666666,82.60833333333333,60.0,85.0
247,82.56666666666666,82.90625,53.0,85.0
248,82.81666666666666,83.14166666666667,60.0,76.0
249,83.56666666666666,83.85833333333333,58.0,72.0
250,83.81666666666666,83.92083333333333,62.0,73.0
251,83.31666666666666,84.16041666666666,53.0,73.0
252,84.06666666666666,84.38125,58.0,85.0
253,83.06666666666666,84.38958333333333,46.0,89.0
254,84.31666666666666,84.50833333333333,53.0,78.0
255,84.06666666666666,84.65625,62.0,85.0
256,84.56666666666666,84.65833333333333,46.0,90.0
257,84.06666666666666,84.6875,65.0,84.0
258,85.06666666666666,85.35208333333333,55.0,79.0
259,85.06666666666666,85.63958333333333,62.0,80.0
260,85.56666666666666,85.91875,55.0,82.0
261,85.81666666666666,85.95,58.0,85.0
262,85.31666666666666,86.12083333333334,50.0,73.0
263,86.06666666666666,86.3375,55.0,89.0
264,85.06666666666666,86.36666666666666,43.0,86.0
265,86.31666666666666,86.48333333333333,50.0,87.0
266,86.06666666666666,86.60208333333333,62.0,87.0
267,86.56666666666666,86.69166666666666,43.0,85.0
268,87.06666666666666,87.16041666666666,36.0,83.0
269,87.06666666666666,87.32291666666667,55.0,84.0
270,87.06666666666666,87.42083333333333,63.0,79.0
271,87.81666666666666,88.29791666666667,55.0,83.0
272,87.56666666666666,88.37083333333334,48.0,71.0
273,88.06666666666666,88.66458333333333,60.0,82.0
274,88.06666666666666,88.70208333333333,67.0,81.0
275,89.06666666666666,89.38125,60.0,79.0
276,89.06666666666666,89.60833333333333,65.0,78.0
277,89.56666666666666,90.02916666666667,60.0,84.0
278,89.81666666666666,90.09583333333333,65.0,79.0
279,89.31666666666666,90.36041666666667,48.0,77.0
280,89.06666666666666,90.42083333333333,41.0,84.0
281,90.31666666666666,90.5875,65.0,84.0
282,90.06666666666666,90.61041666666667,68.0,92.0
283,90.56666666666666,90.71666666666667,60.0,85.0
284,91.06666666666666,91.40416666666667,56.0,78.0
285,91.06666666666666,91.41875,63.0,82.0
286,91.56666666666666,91.94375,56.0,81.0
287,91.81666666666666,92.19791666666667,60.0,75.0
288,91.06666666666666,92.42083333333333,44.0,90.0
289,91.31666666666666,92.44583333333333,51.0,73.0
290,92.06666666666666,92.4875,68.0,88.0
291,92.31666666666666,92.625,56.0,89.0
292,92.56666666666666,92.68125,60.0,79.0
293,93.06666666666666,93.35208333333333,55.0,84.0
294,93.06666666666666,93.42916666666666,59.0,86.0
295,93.31666666666666,93.90416666666667,50.0,84.0
296,93.56666666666666,93.91666666666667,55.0,85.0
297,93.81666666666666,94.34583333333333,62.0,92.0
298,94.31666666666666,94.61875,67.0,84.0
299,94.06666666666666,94.72708333333333,50.0,78.0
300,94.56666666666666,94.775,55.0,76.0
301,93.06666666666666,94.8875,43.0,85.0
302,95.06666666666666,95.6125,55.0,79.0
303,95.06666666666666,95.64583333333333,59.0,86.0
304,95.06666666666666,95.66666666666667,62.0,83.0
305,95.81666666666666,95.89583333333333,55.0,78.0
306,95.56666666666666,96.14375,50.0,83.0
307,96.06666666666666,96.29375,59.0,92.0
308,96.06666666666666,96.33333333333333,55.0,89.0
309,96.06666666666666,96.35625,62.0,88.0
310,95.06666666666666,96.36458333333333,43.0,87.0
311,96.31666666666666,96.45208333333333,50.0,83.0
312,96.56666666666666,96.68541666666667,43.0,83.0
313,97.06666666666666,97.14791666666666,36.0,84.0
314,97.06666666666666,97.66458333333333,67.0,79.0
315,97.06666666666666,97.68333333333334,63.0,75.0
316,97.06666666666666,97.69583333333333,60.0,76.0
317,98.06666666666666,98.2625,60.0,86.0
318,97.56666666666666,98.26458333333333,48.0,84.0
319,98.06666666666666,98.27291666666666,63.0,100.0
320,98.06666666666666,98.32291666666667,67.0,85.0
321,98.31666666666666,98.60833333333333,55.0,79.0
322,98.56666666666666,98.87291666666667,62.0,88.0
323,98.81666666666666,99.65,63.0,94.0
324,99.06666666666666,99.67291666666667,67.0,84.0
325,99.06666666666666,99.67708333333333,60.0,77.0
326,99.56666666666666,100.16875,55.0,83.0
327,99.06666666666666,100.36458333333333,48.0,87.0
328,100.06666666666666,100.41458333333333,60.0,88.0
329,100.06666666666666,100.41458333333333,63.0,99.0
330,100.31666666666666,100.43541666666667,55.0,87.0
331,100.56666666666666,100.9125,62.0,84.0
332,100.81666666666666,100.98125,63.0,89.0
333,101.06666666666666,101.68125,65.0,84.0
334,101.56666666666666,102.14583333333333,48.0,83.0
335,101.06666666666666,102.27291666666666,41.0,85.0
336,102.06666666666666,102.35833333333333,56.0,94.0
337,102.06666666666666,102.38125,60.0,89.0
338,102.31666666666666,102.44166666666666,48.0,83.0
339,102.56666666666666,102.87291666666667,55.0,84.0
340,102.81666666666666,103.09166666666667,56.0,94.0
341,103.06666666666666,103.58333333333333,53.0,73.0
342,103.06666666666666,103.60208333333333,60.0,83.0
343,103.56666666666666,104.15833333333333,48.0,79.0
344,103.06666666666666,104.22708333333333,41.0,85.0
345,104.06666666666666,104.37708333333333,53.0,84.0
346,104.31666666666666,104.43124999999999,48.0,84.0
347,104.06666666666666,104.45208333333333,56.0,97.0
348,104.06666666666666,104.54166666666667,60.0,86.0
349,104.56666666666666,104.77916666666667,41.0,85.0
350,105.06666666666666,105.36458333333333,53.0,78.0
351,105.06666666666666,105.59791666666666,58.0,79.0
352,105.56666666666666,105.89375,53.0,85.0
353,105.81666666666666,105.92083333333333,58.0,85.0
354,105.06666666666666,106.13333333333333,46.0,92.0
355,106.06666666666666,106.20625,53.0,84.0
356,105.31666666666666,106.22291666666666,50.0,56.0
357,106.06666666666666,106.3625,58.0,92.0
358,106.06666666666666,106.39791666666666,62.0,88.0
359,106.31666666666666,106.54583333333333,53.0,79.0
360,106.56666666666666,106.79375,58.0,85.0
361,106.81666666666666,107.04791666666667,53.0,76.0
362,107.06666666666666,107.21458333333334,58.0,78.0
363,107.06666666666666,107.27708333333334,62.0,84.0
364,107.56666666666666,107.89583333333333,58.0,79.0
365,107.81666666666666,107.95208333333333,62.0,79.0
366,107.31666666666666,108.125,53.0,76.0
367,107.06666666666666,108.22083333333333,46.0,82.0
368,108.06666666666666,108.41666666666667,58.0,74.0
369,108.06666666666666,108.4375,62.0,85.0
370,108.31666666666666,108.475,53.0,82.0
371,108.06666666666666,108.52499999999999,65.0,84.0
372,108.56666666666666,108.66041666666666,46.0,99.0
373,109.06666666666666,109.41041666666666,63.0,83.0
374,109.06666666666666,109.55,58.0,78.0
375,109.56666666666666,109.89166666666667,55.0,83.0
376,109.81666666666666,109.91666666666667,58.0,84.0
377,109.31666666666666,110.17083333333333,46.0,72.0
378,109.06666666666666,110.23958333333333,39.0,94.0
379,110.06666666666666,110.25833333333333,55.0,84.0
380,110.06666666666666,110.2875,58.0,97.0
381,110.06666666666666,110.31666666666666,63.0,88.0
382,110.31666666666666,110.44375,46.0,83.0
383,110.56666666666666,110.7,55.0,85.0
384,110.81666666666666,110.92083333333333,58.0,41.0
385,111.06666666666666,111.35625,55.0,78.0
386,111.06666666666666,111.39791666666666,58.0,87.0
387,111.06666666666666,111.41666666666667,63.0,85.0
388,111.56666666666666,111.62916666666666,55.0,74.0
389,111.81666666666666,111.93124999999999,55.0,83.0
390,111.81666666666666,111.94166666666666,63.0,86.0
391,111.81666666666666,111.95416666666667,58.0,87.0
392,111.31666666666666,112.125,46.0,67.0
393,111.06666666666666,112.20833333333333,39.0,94.0
394,112.06666666666666,112.28125,63.0,97.0
395,112.06666666666666,112.31666666666666,58.0,99.0
396,112.06666666666666,112.32291666666667,55.0,87.0
397,112.31666666666666,112.39583333333333,46.0,92.0
398,112.56666666666666,112.66458333333333,55.0,87.0
399,112.56666666666666,112.70833333333333,62.0,89.0
400,113.06666666666666,113.3,63.0,85.0
401,113.06666666666666,113.30208333333333,60.0,83.0
402,113.06666666666666,113.38541666666667,67.0,82.0
403,113.56666666666666,113.71249999999999,62.0,84.0
404,113.81666666666666,113.93541666666667,63.0,94.0
405,113.31666666666666,114.15208333333334,55.0,82.0
406,114.06666666666666,114.29791666666667,67.0,92.0
407,113.06666666666666,114.34791666666666,48.0,85.0
408,114.31666666666666,114.42083333333333,55.0,83.0
409,114.56666666666666,114.97291666666666,60.0,81.0
410,115.06666666666666,115.18124999999999,36.0,83.0
411,115.31666666666666,115.38541666666667,48.0,84.0
412,115.06666666666666,115.52499999999999,60.0,61.0
413,114.81666666666666,115.67916666666666,63.0,84.0
414,115.81666666666666,116.15416666666667,62.0,84.0
415,115.56666666666666,116.20208333333333,55.0,85.0
416,115.56666666666666,116.41666666666667,48.0,68.0
417,116.31666666666666,116.46249999999999,55.0,85.0
418,116.06666666666666,116.55,63.0,104.0
419,116.56666666666666,116.95208333333333,60.0,87.0
420,117.06666666666666,117.2625,65.0,75.0
421,117.06666666666666,117.29791666666667,60.0,81.0
422,117.56666666666666,117.89166666666667,55.0,79.0
423,117.31666666666666,117.90208333333334,48.0,76.0
424,117.81666666666666,118.35,56.0,99.0
425,117.06666666666666,118.87083333333334,41.0,83.0
426,118.06666666666666,118.89791666666666,48.0,80.0
427,118.81666666666666,119.35,53.0,80.0
428,118.31666666666666,119.59791666666666,60.0,90.0
429,119.56666666666666,119.86874999999999,55.0,78.0
430,119.81666666666666,119.98333333333333,56.0,90.0
431,119.31666666666666,120.14375,48.0,79.0
432,120.06666666666666,120.37916666666666,53.0,83.0
433,120.31666666666666,120.52083333333333,48.0,85.0
434,119.06666666666666,120.52499999999999,41.0,83.0
435,120.06666666666666,120.63333333333333,60.0,84.0
436,120.56666666666666,120.70833333333333,53.0,92.0
437,121.06666666666666,121.35833333333333,59.0,80.0
438,121.06666666666666,121.36458333333333,55.0,79.0
439,121.56666666666666,122.05208333333333,55.0,80.0
440,121.81666666666666,122.125,62.0,83.0
441,122.06666666666666,122.40208333333334,67.0,87.0
442,122.31666666666666,122.6375,62.0,83.0
443,121.06666666666666,122.91875,43.0,85.0
444,121.31666666666666,122.96458333333334,50.0,74.0
445,122.56666666666666,123.47291666666666,55.0,87.0
446,122.81666666666666,123.6875,62.0,77.0
447,123.56666666666666,123.90833333333333,59.0,74.0
448,123.81666666666666,123.9125,55.0,71.0
449,123.31666666666666,124.1625,50.0,77.0
450,123.06666666666666,124.34166666666667,43.0,86.0
451,124.06666666666666,124.3875,59.0,89.0
452,124.31666666666666,124.42083333333333,50.0,83.0
453,124.06666666666666,124.44375,55.0,88.0
454,124.06666666666666,124.48958333333333,62.0,86.0
455,124.56666666666666,124.69583333333333,43.0,84.0
456,125.06666666666666,125.15416666666667,36.0,84.0
457,125.06666666666666,125.3,55.0,78.0
458,125.06666666666666,125.56041666666667,60.0,79.0
459,126.06666666666666,126.38333333333333,62.0,84.0
460,126.31666666666666,126.60625,63.0,94.0
461,126.56666666666666,126.77083333333333,67.0,84.0
462,125.81666666666666,126.78541666666666,55.0,77.0
463,125.56666666666666,126.82291666666667,48.0,82.0
464,126.81666666666666,126.97916666666667,60.0,80.0
465,127.06666666666666,127.60208333333333,60.0,70.0
466,127.06666666666666,127.65208333333334,63.0,79.0
467,127.06666666666666,127.71249999999999,67.0,81.0
468,127.81666666666666,127.95,60.0,76.0
469,127.56666666666666,128.25625,55.0,77.0
470,127.06666666666666,128.33333333333334,48.0,90.0
471,128.06666666666666,128.47291666666666,72.0,85.0
472,128.06666666666666,128.51458333333332,67.0,92.0
473,128.06666666666666,128.52291666666667,63.0,94.0
474,128.06666666666666,128.53541666666666,60.0,84.0
475,129.06666666666666,129.60833333333332,53.0,72.0
476,129.06666666666666,129.65208333333334,56.0,72.0
477,129.06666666666666,129.99166666666667,60.0,80.0
478,130.06666666666666,130.60208333333333,55.0,72.0
479,129.56666666666666,130.69166666666666,48.0,59.0
480,130.56666666666666,130.71666666666667,56.0,86.0
481,129.06666666666666,130.9375,41.0,83.0
482,132.06666666666666,132.13541666666666,58.0,69.0
483,131.56666666666666,132.14791666666667,53.0,83.0
484,132.06666666666666,132.22708333333333,62.0,81.0
485,131.06666666666666,132.36458333333334,46.0,82.0
486,133.06666666666666,134.11458333333334,58.0,69.0
487,133.06666666666666,134.14166666666665,63.0,73.0
488,133.06666666666666,134.24791666666667,39.0,84.0
489,133.56666666666666,134.275,46.0,74.0
490,134.06666666666666,134.61666666666667,55.0,85.0
491,134.56666666666666,134.64791666666667,58.0,88.0
492,135.06666666666666,135.55,63.0,79.0
493,135.06666666666666,135.74166666666667,56.0,77.0
494,135.56666666666666,136.13541666666666,51.0,70.0
495,136.06666666666666,136.15416666666667,60.0,74.0
496,135.06666666666666,136.17083333333332,44.0,85.0
497,136.06666666666666,136.22291666666666,56.0,83.0
498,136.06666666666666,136.22708333333333,63.0,78.0
499,137.06666666666666,137.61875,60.0,78.0
500,137.06666666666666,137.89583333333334,53.0,74.0
501,138.06666666666666,138.37916666666666,56.0,83.0
502,137.56666666666666,138.4125,48.0,71.0
503,137.06666666666666,138.44583333333333,41.0,84.0
504,138.06666666666666,138.50416666666666,60.0,81.0
505,139.06666666666666,139.51666666666665,59.0,76.0
506,139.06666666666666,139.58958333333334,55.0,75.0
507,140.06666666666666,140.21875,55.0,84.0
508,139.56666666666666,140.25833333333333,50.0,68.0
509,140.06666666666666,140.26458333333332,62.0,82.0
510,139.06666666666666,140.35625,43.0,83.0
511,141.06666666666666,141.62083333333334,63.0,72.0
512,141.06666666666666,141.675,60.0,75.0
513,141.06666666666666,142.05416666666667,67.0,76.0
514,142.06666666666666,142.62916666666666,60.0,92.0
515,141.56666666666666,142.74583333333334,43.0,68.0
516,141.06666666666666,142.96875,36.0,78.0
517,142.56666666666666,143.01041666666666,62.0,99.0
518,143.06666666666666,143.15833333333333,36.0,84.0
519,143.06666666666666,143.54375,64.0,85.0
520,143.06666666666666,143.66666666666666,60.0,84.0
521,143.81666666666666,144.13541666666666,55.0,87.0
522,143.56666666666666,144.26666666666665,48.0,74.0
523,144.06666666666666,144.37083333333334,60.0,88.0
524,144.06666666666666,144.42708333333334,64.0,92.0
525,144.31666666666666,144.43125,55.0,92.0
526,144.06666666666666,144.45833333333334,67.0,87.0
527,144.56666666666666,144.65,48.0,86.0
528,145.06666666666666,145.29791666666665,53.0,80.0
529,145.06666666666666,145.36666666666667,56.0,83.0
530,145.06666666666666,145.51875,60.0,84.0
531,145.81666666666666,145.92083333333332,53.0,79.0
532,145.56666666666666,146.13333333333333,48.0,88.0
533,146.06666666666666,146.29791666666665,53.0,90.0
534,145.06666666666666,146.38958333333332,41.0,92.0
535,146.06666666666666,146.40208333333334,56.0,104.0
536,146.31666666666666,146.46666666666667,48.0,87.0
537,146.06666666666666,146.66458333333333,60.0,86.0
538,146.56666666666666,146.79791666666665,41.0,85.0
539,146.81666666666666,146.95416666666665,53.0,88.0
540,147.06666666666666,147.17083333333332,53.0,79.0
541,147.06666666666666,147.3875,58.0,86.0
542,147.31666666666666,147.56041666666667,53.0,82.0
543,147.56666666666666,147.77708333333334,58.0,67.0
544,147.81666666666666,147.90416666666667,53.0,74.0
545,147.06666666666666,148.16458333333333,46.0,92.0
546,148.06666666666666,148.30833333333334,53.0,89.0
547,148.31666666666666,148.38333333333333,46.0,85.0
548,148.06666666666666,148.4125,58.0,97.0
549,148.06666666666666,148.47916666666666,62.0,88.0
550,148.56666666666666,148.66666666666666,46.0,88.0
551,149.06666666666666,149.26875,55.0,77.0
552,149.06666666666666,149.40625,63.0,81.0
553,149.06666666666666,149.55208333333334,58.0,80.0
554,149.56666666666666,149.86458333333334,55.0,83.0
555,149.81666666666666,149.91041666666666,58.0,85.0
556,149.31666666666666,150.14583333333334,46.0,72.0
557,149.06666666666666,150.1875,39.0,87.0
558,150.06666666666666,150.38333333333333,55.0,85.0
559,150.31666666666666,150.45625,46.0,84.0
560,150.06666666666666,150.60625,58.0,97.0
561,150.06666666666666,150.6375,63.0,97.0
562,150.56666666666666,150.65833333333333,39.0,84.0
563,151.06666666666666,151.32708333333332,63.0,83.0
564,151.06666666666666,151.375,56.0,84.0
565,151.56666666666666,151.9,56.0,85.0
566,151.81666666666666,151.94791666666666,60.0,83.0
567,151.31666666666666,152.17708333333334,51.0,72.0
568,151.06666666666666,152.23125,44.0,99.0
569,152.06666666666666,152.36666666666667,56.0,90.0
570,152.31666666666666,152.44166666666666,51.0,89.0
571,152.06666666666666,152.475,60.0,87.0
572,152.06666666666666,152.49166666666667,68.0,85.0
573,152.06666666666666,152.50416666666666,63.0,88.0
574,152.56666666666666,152.65,44.0,89.0
575,153.06666666666666,153.33958333333334,53.0,89.0
576,153.06666666666666,153.575,65.0,83.0
577,153.56666666666666,153.925,53.0,89.0
578,153.31666666666666,154.15625,48.0,83.0
579,153.06666666666666,154.30208333333334,41.0,90.0
580,154.06666666666666,154.35208333333333,56.0,99.0
581,154.06666666666666,154.35416666666666,65.0,85.0
582,154.06666666666666,154.39791666666667,53.0,94.0
583,154.31666666666666,154.42916666666667,48.0,84.0
584,154.56666666666666,154.68125,41.0,86.0
585,155.06666666666666,155.32708333333332,50.0,84.0
586,155.31666666666666,155.32708333333332,50.0,77.0
587,155.06666666666666,155.59166666666667,56.0,73.0
588,155.06666666666666,155.6,53.0,81.0
589,155.06666666666666,155.64375,60.0,83.0
590,155.06666666666666,155.73333333333332,38.0,90.0
591,156.06666666666666,156.37083333333334,50.0,94.0
592,156.06666666666666,156.475,53.0,94.0
593,156.06666666666666,156.48333333333332,56.0,92.0
594,156.06666666666666,156.55625,60.0,86.0
595,156.06666666666666,156.6,38.0,92.0
596,157.06666666666666,157.33958333333334,67.0,83.0
597,157.06666666666666,157.37083333333334,55.0,86.0
598,157.56666666666666,157.85833333333332,55.0,79.0
599,157.56666666666666,157.88125,60.0,88.0
600,158.06666666666666,158.3625,55.0,89.0
601,157.06666666666666,158.36875,43.0,90.0
602,158.06666666666666,158.39791666666667,60.0,99.0
603,158.31666666666666,158.49791666666667,50.0,87.0
604,158.56666666666666,158.90625,55.0,87.0
605,158.81666666666666,159.03125,60.0,79.0
606,159.06666666666666,159.67708333333334,59.0,83.0
607,159.06666666666666,159.69583333333333,55.0,83.0
608,159.56666666666666,160.93333333333334,50.0,71.0
609,160.06666666666666,160.98333333333332,59.0,79.0
610,159.06666666666666,160.98958333333334,43.0,84.0
611,160.56666666666666,160.99166666666667,55.0,76.0
612,160.06666666666666,161.0,62.0,78.0
613,160.06666666666666,161.00625,67.0,75.0
614,161.06666666666666,161.87916666666666,60.0,82.0
615,161.81666666666666,161.97708333333333,56.0,90.0
616,161.56666666666666,161.99375,53.0,79.0
617,162.06666666666666,162.15,60.0,57.0
618,161.31666666666666,162.16666666666666,48.0,70.0
619,162.06666666666666,162.53125,65.0,88.0
620,162.31666666666666,162.61458333333334,48.0,77.0
621,162.56666666666666,162.70833333333334,53.0,86.0
622,161.06666666666666,162.74583333333334,41.0,85.0
623,163.56666666666666,164.07083333333333,53.0,75.0
624,163.06666666666666,164.13541666666666,58.0,90.0
625,163.31666666666666,164.175,50.0,70.0
626,163.06666666666666,164.57291666666666,46.0,85.0
627,164.31666666666666,164.60833333333332,50.0,80.0
628,164.06666666666666,164.825,62.0,89.0
629,164.56666666666666,164.85833333333332,53.0,83.0
630,164.81666666666666,164.99791666666667,58.0,85.0
631,165.06666666666666,165.17083333333332,58.0,79.0
632,165.06666666666666,165.95,55.0,82.0
633,165.56666666666666,166.19375,46.0,74.0
634,166.06666666666666,166.24375,63.0,94.0
635,165.06666666666666,166.78541666666666,39.0,90.0
636,166.31666666666666,167.00416666666666,46.0,84.0
637,166.56666666666666,167.19583333333333,55.0,76.0
638,166.81666666666666,167.26458333333332,58.0,85.0
639,167.06666666666666,167.51458333333332,67.0,83.0
640,167.81666666666666,167.97291666666666,58.0,72.0
641,167.56666666666666,168.1125,55.0,77.0
642,168.06666666666666,168.12291666666667,58.0,61.0
643,167.31666666666666,168.19791666666666,46.0,72.0
644,167.06666666666666,168.44583333333333,39.0,83.0
645,168.31666666666666,168.47291666666666,46.0,62.0
646,168.06666666666666,168.59583333333333,63.0,90.0
647,168.56666666666666,168.73958333333334,55.0,78.0
648,169.06666666666666,169.33125,53.0,80.0
649,169.06666666666666,169.59583333333333,56.0,74.0
650,169.81666666666666,169.96458333333334,56.0,72.0
651,169.56666666666666,170.07916666666665,60.0,82.0
652,170.06666666666666,170.43541666666667,65.0,87.0
653,170.31666666666666,170.625,60.0,83.0
654,169.06666666666666,170.86041666666665,41.0,84.0
655,169.31666666666666,170.90208333333334,48.0,78.0
656,170.56666666666666,170.91041666666666,53.0,84.0
657,170.81666666666666,171.01041666666666,60.0,73.0
658,171.06666666666666,171.33541666666667,55.0,78.0
659,171.06666666666666,171.63541666666666,59.0,76.0
660,171.56666666666666,172.05416666666667,55.0,83.0
661,171.81666666666666,172.13958333333332,62.0,76.0
662,171.31666666666666,172.28541666666666,50.0,72.0
663,172.31666666666666,172.54583333333332,55.0,85.0
664,172.06666666666666,172.60416666666666,67.0,88.0
665,171.06666666666666,172.65833333333333,43.0,85.0
666,172.56666666666666,172.68125,50.0,83.0
667,173.06666666666666,173.32291666666666,60.0,78.0
668,173.06666666666666,173.36458333333334,63.0,83.0
669,173.06666666666666,173.44375,67.0,81.0
670,173.06666666666666,173.61458333333334,48.0,86.0
671,173.31666666666666,173.63125,55.0,79.0
672,173.56666666666666,173.74166666666667,60.0,97.0
673,174.06666666666666,174.21875,62.0,81.0
674,174.06666666666666,174.35416666666666,65.0,79.0
675,174.31666666666666,174.625,62.0,83.0
676,174.06666666666666,174.63541666666666,38.0,88.0
677,174.56666666666666,174.75416666666666,65.0,84.0
678,175.06666666666666,175.26666666666665,63.0,84.0
679,175.06666666666666,175.55625,67.0,79.0
680,175.06666666666666,175.675,39.0,90.0
681,175.56666666666666,175.84583333333333,63.0,94.0
682,175.31666666666666,175.92291666666665,46.0,84.0
683,175.81666666666666,175.94166666666666,67.0,87.0
684,176.06666666666666,176.28958333333333,64.0,83.0
685,176.06666666666666,176.66666666666666,67.0,87.0
686,176.31666666666666,176.72916666666666,46.0,79.0
687,176.06666666666666,176.8125,40.0,87.0
688,176.56666666666666,176.8125,64.0,90.0
689,176.81666666666666,177.09791666666666,72.0,86.0
690,177.06666666666666,177.35,53.0,86.0
691,177.06666666666666,177.59166666666667,60.0,82.0
692,177.56666666666666,178.0875,53.0,85.0
693,177.81666666666666,178.11458333333334,60.0,82.0
694,177.31666666666666,178.32708333333332,48.0,79.0
695,177.06666666666666,178.37083333333334,41.0,85.0
696,178.06666666666666,178.44166666666666,65.0,87.0
697,178.31666666666666,178.60833333333332,60.0,85.0
698,178.56666666666666,178.90625,53.0,85.0
699,178.81666666666666,179.14166666666665,60.0,76.0
700,179.56666666666666,179.85833333333332,58.0,72.0
701,179.81666666666666,179.92083333333332,62.0,73.0
702,179.31666666666666,180.16041666666666,53.0,73.0
703,180.06666666666666,180.38125,58.0,85.0
704,179.06666666666666,180.38958333333332,46.0,89.0
705,180.31666666666666,180.50833333333333,53.0,78.0
706,180.06666666666666,180.65625,62.0,85.0
707,180.56666666666666,180.65833333333333,46.0,90.0
708,180.06666666666666,180.6875,65.0,84.0
709,181.06666666666666,181.35208333333333,55.0,79.0
710,181.06666666666666,181.63958333333332,62.0,80.0
711,181.56666666666666,181.91875,55.0,82.0
712,181.81666666666666,181.95,58.0,85.0
713,181.31666666666666,182.12083333333334,50.0,73.0
714,182.06666666666666,182.3375,55.0,89.0
715,181.06666666666666,182.36666666666667,43.0,86.0
716,182.31666666666666,182.48333333333332,50.0,87.0
717,182.06666666666666,182.60208333333333,62.0,87.0
718,182.56666666666666,182.69166666666666,43.0,85.0
719,183.06666666666666,183.16041666666666,36.0,83.0
720,183.06666666666666,183.32291666666666,55.0,84.0
721,183.06666666666666,183.42083333333332,63.0,79.0
722,183.81666666666666,184.29791666666665,55.0,83.0
723,183.56666666666666,184.37083333333334,48.0,71.0
724,184.06666666666666,184.66458333333333,60.0,82.0
725,184.06666666666666,184.70208333333332,67.0,81.0
726,185.06666666666666,185.38125,60.0,79.0
727,185.06666666666666,185.60833333333332,65.0,78.0
728,185.56666666666666,186.02916666666667,60.0,84.0
729,185.81666666666666,186.09583333333333,65.0,79.0
730,185.31666666666666,186.36041666666665,48.0,77.0
731,185.06666666666666,186.42083333333332,41.0,84.0
732,186.31666666666666,186.5875,65.0,84.0
733,186.06666666666666,186.61041666666665,68.0,92.0
734,186.56666666666666,186.71666666666667,60.0,85.0
735,187.06666666666666,187.40416666666667,56.0,78.0
736,187.06666666666666,187.41875,63.0,82.0
737,187.56666666666666,187.94375,56.0,81.0
738,187.81666666666666,188.19791666666666,60.0,75.0
739,187.06666666666666,188.42083333333332,44.0,90.0
740,187.31666666666666,188.44583333333333,51.0,73.0
741,188.06666666666666,188.4875,68.0,88.0
742,188.31666666666666,188.625,56.0,89.0
743,188.56666666666666,188.68125,60.0,79.0
744,189.06666666666666,189.35208333333333,55.0,84.0
745,189.06666666666666,189.42916666666667,59.0,86.0
746,189.31666666666666,189.90416666666667,50.0,84.0
747,189.56666666666666,189.91666666666666,55.0,85.0
748,189.81666666666666,190.34583333333333,62.0,92.0
749,190.31666666666666,190.61875,67.0,84.0
750,190.06666666666666,190.72708333333333,50.0,78.0
751,190.56666666666666,190.775,55.0,76.0
752,189.06666666666666,190.8875,43.0,85.0
753,191.06666666666666,191.6125,55.0,79.0
754,191.06666666666666,191.64583333333334,59.0,86.0
755,191.06666666666666,191.66666666666666,62.0,83.0
756,191.81666666666666,191.89583333333334,55.0,78.0
757,191.56666666666666,192.14375,50.0,83.0
758,192.06666666666666,192.29375,59.0,92.0
759,192.06666666666666,192.33333333333334,55.0,89.0
760,192.06666666666666,192.35625,62.0,88.0
761,191.06666666666666,192.36458333333334,43.0,87.0
762,192.31666666666666,192.45208333333332,50.0,83.0
763,192.56666666666666,192.68541666666667,43.0,83.0
764,193.06666666666666,193.14791666666667,36.0,84.0
765,193.06666666666666,193.66458333333333,67.0,79.0
766,193.06666666666666,193.68333333333334,63.0,75.0
767,193.06666666666666,193.69583333333333,60.0,76.0
768,194.06666666666666,194.2625,60.0,86.0
769,193.56666666666666,194.26458333333332,48.0,84.0
770,194.06666666666666,194.27291666666667,63.0,100.0
771,194.06666666666666,194.32291666666666,67.0,85.0
772,194.31666666666666,194.60833333333332,55.0,79.0
773,194.56666666666666,194.87291666666667,62.0,88.0
774,194.81666666666666,195.65,63.0,94.0
775,195.06666666666666,195.67291666666665,67.0,84.0
776,195.06666666666666,195.67708333333334,60.0,77.0
777,195.56666666666666,196.16875,55.0,83.0
778,195.06666666666666,196.36458333333334,48.0,87.0
779,196.06666666666666,196.41458333333333,60.0,88.0
780,196.06666666666666,196.41458333333333,63.0,99.0
781,196.31666666666666,196.43541666666667,55.0,87.0
782,196.56666666666666,196.9125,62.0,84.0
783,196.81666666666666,196.98125,63.0,89.0
784,197.06666666666666,197.68125,65.0,84.0
785,197.56666666666666,198.14583333333334,48.0,83.0
786,197.06666666666666,198.27291666666667,41.0,85.0
787,198.06666666666666,198.35833333333332,56.0,94.0
788,198.06666666666666,198.38125,60.0,89.0
789,198.31666666666666,198.44166666666666,48.0,83.0
790,198.56666666666666,198.87291666666667,55.0,84.0
791,198.81666666666666,199.09166666666667,56.0,94.0
792,199.06666666666666,199.58333333333334,53.0,73.0
793,199.06666666666666,199.60208333333333,60.0,83.0
794,199.56666666666666,200.15833333333333,48.0,79.0
795,199.06666666666666,200.22708333333333,41.0,85.0
796,200.06666666666666,200.37708333333333,53.0,84.0
797,200.31666666666666,200.43125,48.0,84.0
798,200.06666666666666,200.45208333333332,56.0,97.0
799,200.06666666666666,200.54166666666666,60.0,86.0
800,200.56666666666666,200.77916666666667,41.0,85.0
801,201.06666666666666,201.36458333333334,53.0,78.0
802,201.06666666666666,201.59791666666666,58.0,79.0
803,201.56666666666666,201.89375,53.0,85.0
804,201.81666666666666,201.92083333333332,58.0,85.0
805,201.06666666666666,202.13333333333333,46.0,92.0
806,202.06666666666666,202.20625,53.0,84.0
807,201.31666666666666,202.22291666666666,50.0,56.0
808,202.06666666666666,202.3625,58.0,92.0
809,202.06666666666666,202.39791666666667,62.0,88.0
810,202.31666666666666,202.54583333333332,53.0,79.0
811,202.56666666666666,202.79375,58.0,85.0
812,202.81666666666666,203.04791666666665,53.0,76.0
813,203.06666666666666,203.21458333333334,58.0,78.0
814,203.06666666666666,203.27708333333334,62.0,84.0
815,203.56666666666666,203.89583333333334,58.0,79.0
816,203.81666666666666,203.95208333333332,62.0,79.0
817,203.31666666666666,204.125,53.0,76.0
818,203.06666666666666,204.22083333333333,46.0,82.0
819,204.06666666666666,204.41666666666666,58.0,74.0
820,204.06666666666666,204.4375,62.0,85.0
821,204.31666666666666,204.475,53.0,82.0
822,204.06666666666666,204.525,65.0,84.0
823,204.56666666666666,204.66041666666666,46.0,99.0
824,205.06666666666666,205.41041666666666,63.0,83.0
825,205.06666666666666,205.54999999999998,58.0,78.0
826,205.56666666666666,205.89166666666665,55.0,83.0
827,205.81666666666666,205.91666666666666,58.0,84.0
828,205.31666666666666,206.17083333333332,46.0,72.0
829,205.06666666666666,206.23958333333334,39.0,94.0
830,206.06666666666666,206.25833333333333,55.0,84.0
831,206.06666666666666,206.2875,58.0,97.0
832,206.06666666666666,206.31666666666666,63.0,88.0
833,206.31666666666666,206.44375,46.0,83.0
834,206.56666666666666,206.7,55.0,85.0
835,206.81666666666666,206.92083333333332,58.0,41.0
836,207.06666666666666,207.35625,55.0,78.0
837,207.06666666666666,207.39791666666667,58.0,87.0
838,207.06666666666666,207.41666666666666,63.0,85.0
839,207.56666666666666,207.62916666666666,55.0,74.0
840,207.81666666666666,207.93125,55.0,83.0
841,207.81666666666666,207.94166666666666,63.0,86.0
842,207.81666666666666,207.95416666666665,58.0,87.0
843,207.31666666666666,208.125,46.0,67.0
844,207.06666666666666,208.20833333333334,39.0,94.0
845,208.06666666666666,208.28125,63.0,97.0
846,208.06666666666666,208.31666666666666,58.0,99.0
847,208.06666666666666,208.32291666666666,55.0,87.0
848,208.31666666666666,208.39583333333334,46.0,92.0
849,208.56666666666666,208.66458333333333,55.0,87.0
850,208.56666666666666,208.70833333333334,62.0,89.0
851,209.06666666666666,209.29999999999998,63.0,85.0
852,209.06666666666666,209.30208333333334,60.0,83.0
853,209.06666666666666,209.38541666666666,67.0,82.0
854,209.56666666666666,209.7125,62.0,84.0
855,209.81666666666666,209.93541666666667,63.0,94.0
856,209.31666666666666,210.15208333333334,55.0,82.0
857,210.06666666666666,210.29791666666665,67.0,92.0
858,209.06666666666666,210.34791666666666,48.0,85.0
859,210.31666666666666,210.42083333333332,55.0,83.0
860,210.56666666666666,210.97291666666666,60.0,81.0
861,211.06666666666666,211.18125,36.0,83.0
862,211.31666666666666,211.38541666666666,48.0,84.0
863,211.06666666666666,211.525,60.0,61.0
864,210.81666666666666,211.67916666666667,63.0,84.0
865,211.81666666666666,212.15416666666667,62.0,84.0
866,211.56666666666666,212.20208333333332,55.0,85.0
867,211.56666666666666,212.41666666666666,48.0,68.0
868,212.31666666666666,212.4625,55.0,85.0
869,212.06666666666666,212.54999999999998,63.0,104.0
870,212.56666666666666,212.95208333333332,60.0,87.0
871,213.06666666666666,213.2625,65.0,75.0
872,213.06666666666666,213.29791666666665,60.0,81.0
873,213.56666666666666,213.89166666666665,55.0,79.0
874,213.31666666666666,213.90208333333334,48.0,76.0
875,213.81666666666666,214.35,56.0,99.0
876,213.06666666666666,214.87083333333334,41.0,83.0
877,214.06666666666666,214.89791666666667,48.0,80.0
878,214.81666666666666,215.35,53.0,80.0
879,214.31666666666666,215.59791666666666,60.0,90.0
880,215.56666666666666,215.86875,55.0,78.0
881,215.81666666666666,215.98333333333332,56.0,90.0
882,215.31666666666666,216.14374999999998,48.0,79.0
883,216.06666666666666,216.37916666666666,53.0,83.0
884,216.31666666666666,216.52083333333334,48.0,85.0
885,215.06666666666666,216.525,41.0,83.0
886,216.06666666666666,216.63333333333333,60.0,84.0
887,216.56666666666666,216.70833333333334,53.0,92.0
888,217.06666666666666,217.35833333333332,59.0,80.0
889,217.06666666666666,217.36458333333334,55.0,79.0
890,217.56666666666666,218.05208333333334,55.0,80.0
891,217.81666666666666,218.125,62.0,83.0
892,218.06666666666666,218.40208333333334,67.0,87.0
893,218.31666666666666,218.6375,62.0,83.0
894,217.06666666666666,218.91875,43.0,85.0
895,217.31666666666666,218.96458333333334,50.0,74.0
896,218.56666666666666,219.47291666666666,55.0,87.0
897,218.81666666666666,219.6875,62.0,77.0
898,219.56666666666666,219.90833333333333,59.0,74.0
899,219.81666666666666,219.9125,55.0,71.0
900,219.31666666666666,220.1625,50.0,77.0
901,219.06666666666666,220.34166666666667,43.0,86.0
902,220.06666666666666,220.3875,59.0,89.0
903,220.31666666666666,220.42083333333332,50.0,83.0
904,220.06666666666666,220.44375,55.0,88.0
905,220.06666666666666,220.48958333333334,62.0,86.0
906,220.56666666666666,220.69583333333333,43.0,84.0
907,221.06666666666666,221.15416666666667,36.0,84.0
908,221.06666666666666,221.29999999999998,55.0,78.0
909,221.06666666666666,221.56041666666667,60.0,79.0
910,222.06666666666666,222.38333333333333,62.0,84.0
911,222.31666666666666,222.60625,63.0,94.0
912,222.56666666666666,222.77083333333334,67.0,84.0
913,221.81666666666666,222.78541666666666,55.0,77.0
914,221.56666666666666,222.82291666666666,48.0,82.0
915,222.81666666666666,222.97916666666666,60.0,80.0
916,223.06666666666666,223.60208333333333,60.0,70.0
917,223.06666666666666,223.65208333333334,63.0,79.0
918,223.06666666666666,223.7125,67.0,81.0
919,223.81666666666666,223.95,60.0,76.0
920,223.56666666666666,224.25625,55.0,77.0
921,223.06666666666666,224.33333333333334,48.0,90.0
922,224.06666666666666,224.47291666666666,72.0,85.0
923,224.06666666666666,224.51458333333332,67.0,92.0
924,224.06666666666666,224.52291666666667,63.0,94.0
925,224.06666666666666,224.53541666666666,60.0,84.0
926,225.06666666666666,225.46041666666667,63.0,83.0
927,225.31666666666666,225.58541666666667,55.0,68.0
928,225.56666666666666,225.77916666666667,60.0,76.0
929,225.81666666666666,225.91041666666666,55.0,64.0
930,226.06666666666666,226.36458333333334,62.0,82.0
931,226.31666666666666,226.40416666666667,55.0,60.0
932,225.06666666666666,226.73749999999998,48.0,81.0
933,226.56666666666666,226.87291666666667,60.0,71.0
934,226.81666666666666,227.15208333333334,55.0,57.0
935,227.06666666666666,227.53541666666666,60.0,77.0
936,227.06666666666666,227.68333333333334,63.0,78.0
937,227.56666666666666,227.76458333333332,55.0,56.0
938,228.06666666666666,228.26458333333332,60.0,83.0
939,228.06666666666666,228.29999999999998,55.0,78.0
940,228.06666666666666,228.31666666666666,63.0,83.0
941,227.06666666666666,228.5625,48.0,82.0
942,228.56666666666666,229.04375,62.0,73.0
943,229.06666666666666,229.48125,60.0,74.0
944,229.56666666666666,229.8375,55.0,77.0
945,229.81666666666666,230.31458333333333,56.0,84.0
946,230.31666666666666,230.45208333333332,60.0,83.0
947,229.31666666666666,230.69375,48.0,71.0
948,229.06666666666666,230.79166666666666,41.0,83.0
949,230.56666666666666,230.80833333333334,53.0,76.0
950,231.06666666666666,231.57916666666665,56.0,68.0
951,231.06666666666666,231.67291666666665,60.0,76.0
952,231.56666666666666,232.15625,48.0,42.0
953,232.06666666666666,232.41041666666666,56.0,83.0
954,231.06666666666666,232.41458333333333,41.0,77.0
955,232.06666666666666,232.45208333333332,60.0,83.0
956,232.56666666666666,232.90833333333333,53.0,72.0
957,233.06666666666666,233.53333333333333,58.0,68.0
958,233.06666666666666,233.70624999999998,62.0,82.0
959,233.06666666666666,234.84791666666666,46.0,79.0
960,233.56666666666666,234.85416666666666,53.0,78.0
961,234.56666666666666,234.88541666666666,62.0,67.0
962,234.06666666666666,234.92291666666665,58.0,85.0
963,235.06666666666666,235.82083333333333,58.0,76.0
964,235.06666666666666,235.83333333333334,62.0,81.0
965,235.56666666666666,236.17291666666665,53.0,71.0
966,235.06666666666666,236.2625,46.0,78.0
967,236.06666666666666,236.29166666666666,58.0,84.0
968,236.06666666666666,236.30833333333334,62.0,85.0
969,236.06666666666666,236.36041666666665,65.0,82.0
970,237.06666666666666,237.69166666666666,55.0,82.0
971,237.06666666666666,237.70624999999998,58.0,78.0
972,237.56666666666666,238.16666666666666,46.0,65.0
973,237.06666666666666,238.24583333333334,39.0,89.0
974,238.06666666666666,238.56875,58.0,97.0
975,238.06666666666666,238.60625,63.0,90.0
976,238.56666666666666,238.99166666666667,55.0,104.0
977,238.31666666666666,239.01458333333332,46.0,84.0
978,238.81666666666666,239.02083333333334,58.0,88.0
979,239.06666666666666,239.35625,55.0,78.0
980,239.06666666666666,239.39791666666667,58.0,87.0
981,239.06666666666666,239.41666666666666,63.0,85.0
982,239.56666666666666,239.62916666666666,55.0,74.0
983,239.81666666666666,239.93125,55.0,83.0
984,239.81666666666666,239.94166666666666,63.0,86.0
985,239.81666666666666,239.95416666666665,58.0,87.0
986,239.31666666666666,240.125,46.0,67.0
987,239.06666666666666,240.20833333333334,39.0,94.0
988,240.06666666666666,240.28125,63.0,97.0
989,240.06666666666666,240.31666666666666,58.0,99.0
990,240.06666666666666,240.32291666666666,55.0,87.0
991,240.31666666666666,240.39583333333334,46.0,92.0
992,240.56666666666666,240.66458333333333,55.0,87.0
993,240.56666666666666,240.70833333333334,62.0,89.0
994,241.06666666666666,241.29999999999998,63.0,85.0
995,241.06666666666666,241.30208333333334,60.0,83.0
996,241.06666666666666,241.38541666666666,67.0,82.0
997,241.56666666666666,241.7125,62.0,84.0
998,241.81666666666666,241.93541666666667,63.0,94.0
999,241.31666666666666,242.15208333333334,55.0,82.0
1000,242.06666666666666,242.29791666666665,67.0,92.0
1001,241.06666666666666,242.34791666666666,48.0,85.0
1002,242.31666666666666,242.42083333333332,55.0,83.0
1003,242.56666666666666,242.97291666666666,60.0,81.0
1004,243.06666666666666,243.18125,36.0,83.0
1005,243.31666666666666,243.38541666666666,48.0,84.0
1006,243.06666666666666,243.525,60.0,61.0
1007,242.81666666666666,243.67916666666667,63.0,84.0
1008,243.81666666666666,244.15416666666667,62.0,84.0
1009,243.56666666666666,244.20208333333332,55.0,85.0
1010,243.56666666666666,244.41666666666666,48.0,68.0
1011,244.31666666666666,244.4625,55.0,85.0
1012,244.06666666666666,244.54999999999998,63.0,104.0
1013,244.56666666666666,244.95208333333332,60.0,87.0
1014,245.06666666666666,245.2625,65.0,75.0
1015,245.06666666666666,245.29791666666665,60.0,81.0
1016,245.56666666666666,245.89166666666665,55.0,79.0
1017,245.31666666666666,245.90208333333334,48.0,76.0
1018,245.81666666666666,246.35,56.0,99.0
1019,245.06666666666666,246.87083333333334,41.0,83.0
1020,246.06666666666666,246.89791666666667,48.0,80.0
1021,246.81666666666666,247.35,53.0,80.0
1022,246.31666666666666,247.59791666666666,60.0,90.0
1023,247.56666666666666,247.86875,55.0,78.0
1024,247.81666666666666,247.98333333333332,56.0,90.0
1025,247.31666666666666,248.14374999999998,48.0,79.0
1026,248.06666666666666,248.37916666666666,53.0,83.0
1027,248.31666666666666,248.52083333333334,48.0,85.0
1028,247.06666666666666,248.525,41.0,83.0
1029,248.06666666666666,248.63333333333333,60.0,84.0
1030,248.56666666666666,248.70833333333334,53.0,92.0
1031,249.06666666666666,249.35833333333332,59.0,80.0
1032,249.06666666666666,249.36458333333334,55.0,79.0
1033,249.56666666666666,250.05208333333334,55.0,80.0
1034,249.81666666666666,250.125,62.0,83.0
1035,250.06666666666666,250.40208333333334,67.0,87.0
1036,250.31666666666666,250.6375,62.0,83.0
1037,249.06666666666666,250.91875,43.0,85.0
1038,249.31666666666666,250.96458333333334,50.0,74.0
1039,250.56666666666666,251.47291666666666,55.0,87.0
1040,250.81666666666666,251.6875,62.0,77.0
1041,251.56666666666666,251.90833333333333,59.0,74.0
1042,251.81666666666666,251.9125,55.0,71.0
1043,251.31666666666666,252.1625,50.0,77.0
1044,251.06666666666666,252.34166666666667,43.0,86.0
1045,252.06666666666666,252.3875,59.0,89.0
1046,252.31666666666666,252.42083333333332,50.0,83.0
1047,252.06666666666666,252.44375,55.0,88.0
1048,252.06666666666666,252.48958333333334,62.0,86.0
1049,252.56666666666666,252.69583333333333,43.0,84.0
1050,253.06666666666666,253.15416666666667,36.0,84.0
1051,253.06666666666666,253.29999999999998,55.0,78.0
1052,253.06666666666666,253.56041666666667,60.0,79.0
1053,254.06666666666666,254.38333333333333,62.0,84.0
1054,254.31666666666666,254.60625,63.0,94.0
1055,254.56666666666666,254.77083333333334,67.0,84.0
1056,253.81666666666666,254.78541666666666,55.0,77.0
1057,253.56666666666666,254.82291666666666,48.0,82.0
1058,254.81666666666666,254.97916666666666,60.0,80.0
1059,255.06666666666666,255.60208333333333,60.0,70.0
1060,255.06666666666666,255.65208333333334,63.0,79.0
1061,255.06666666666666,255.7125,67.0,81.0
1062,255.81666666666666,255.95,60.0,76.0
1063,255.56666666666666,256.25625,55.0,77.0
1064,255.06666666666666,256.3333333333333,48.0,90.0
1065,256.06666666666666,256.47291666666666,72.0,85.0
1066,256.06666666666666,256.51458333333335,67.0,92.0
1067,256.06666666666666,256.5229166666667,63.0,94.0
1068,256.06666666666666,256.53541666666666,60.0,84.0
1069,257.56666666666666,258.40625,53.0,77.0
1070,257.81666666666666,258.4479166666667,56.0,84.0
1071,258.31666666666666,258.6166666666667,63.0,63.0
1072,259.06666666666666,260.0208333333333,56.0,58.0
1073,259.06666666666666,260.11875,63.0,59.0
1074,257.31666666666666,260.22291666666666,48.0,72.0
1075,257.06666666666666,260.29791666666665,41.0,83.0
1076,261.81666666666666,262.17083333333335,58.0,86.0
1077,262.31666666666666,262.37916666666666,58.0,61.0
1078,261.56666666666666,262.3875,55.0,76.0
1079,262.31666666666666,262.62291666666664,62.0,81.0
1080,263.06666666666666,263.8354166666667,58.0,57.0
1081,261.06666666666666,264.13958333333335,39.0,84.0
1082,261.31666666666666,264.15208333333334,46.0,69.0
1083,263.06666666666666,264.3541666666667,62.0,78.0
1084,265.06666666666666,265.5854166666667,60.0,77.0
1085,265.56666666666666,266.3333333333333,53.0,78.0
1086,265.81666666666666,266.65416666666664,56.0,83.0
1087,265.06666666666666,266.7604166666667,41.0,83.0
1088,265.31666666666666,266.7916666666667,48.0,78.0
1089,266.31666666666666,266.95,63.0,72.0
1090,266.9083333333333,267.40625,55.0,76.0
1091,266.99375,267.6666666666667,59.0,82.0
1092,267.05625,267.6791666666667,62.0,75.0
1093,267.08958333333334,267.99583333333334,67.0,80.0
1094,267.61041666666665,268.525,55.0,80.0
1095,267.3458333333333,269.1479166666667,50.0,77.0
1096,267.05,269.2270833333333,43.0,84.0
1097,268.3666666666667,269.92083333333335,67.0,75.0
1098,267.93333333333334,269.98333333333335,62.0,79.0
1099,268.825,270.0333333333333,55.0,58.0
1100,270.5625,270.76666666666665,48.0,83.0
1101,270.7291666666667,270.8875,50.0,83.0
1102,270.8770833333333,270.96666666666664,51.0,92.0
1103,271.0645833333333,271.24791666666664,55.0,79.0
1104,271.275,271.5395833333333,62.0,83.0
1105,271.48125,271.73333333333335,60.0,81.0
1106,271.68125,271.9125,55.0,84.0
1107,271.90625,272.1145833333333,67.0,78.0
1108,272.1666666666667,272.29375,55.0,73.0
1109,272.4770833333333,272.5875,74.0,83.0
1110,272.8875,273.06041666666664,67.0,72.0
1111,272.91875,273.09166666666664,72.0,59.0
1112,273.57708333333335,273.6625,72.0,72.0
1113,273.59375,273.71458333333334,79.0,76.0
1114,270.37916666666666,274.35,43.0,80.0
1115,270.14166666666665,274.4166666666667,36.0,84.0
