,start,end,pitch,velocity
0,36.151811437499994,36.481067825,67.0,83.0
1,36.415278387499995,36.717909799999994,64.0,60.0
2,36.67843613749999,36.94159388749999,72.0,70.0
3,36.94159388749999,38.720487524999996,71.0,81.0
4,38.720487524999996,39.0293106375,67.0,77.0
5,38.97258802499999,44.20089966666666,64.0,83.0
6,44.20089966666666,44.505066333333325,67.0,72.0
7,44.45089966666666,44.76339966666666,64.0,58.0
8,44.70089966666666,44.95089966666666,72.0,69.0
9,44.95089966666666,45.687055608333324,71.0,64.0
10,45.687055608333324,45.94915239999999,72.0,62.0
11,45.92899110833332,46.66864166666666,74.0,67.0
12,46.66864166666666,47.185308333333325,67.0,58.0
13,47.16864166666666,52.16655833333333,69.0,60.0
14,52.16864166666666,52.53947499999999,69.0,65.0
15,52.41864166666666,52.66864166666666,72.0,63.0
16,52.66864166666666,52.99155833333332,69.0,66.0
17,52.91864166666666,55.91864166666666,74.0,73.0
18,55.91864166666666,56.16864166666666,76.0,63.0
19,56.16864166666666,56.67072499999999,74.0,70.0
20,56.66864166666666,57.16864166666666,71.0,71.0
21,57.16864166666666,57.66864166666666,74.0,69.0
22,57.66864166666666,60.16864166666666,72.0,62.0
23,60.16864166666666,60.41655833333333,69.0,72.0
24,60.41864166666666,60.66655833333333,69.0,66.0
25,60.66864166666666,60.95197499999999,69.0,73.0
26,60.91864166666666,61.66655833333333,67.0,63.0
27,61.66864166666666,61.91864166666666,67.0,69.0
28,61.91864166666666,63.16864166666666,72.0,75.0
29,63.16864166666666,63.91864166666666,72.0,59.0
30,63.91864166666666,64.66864166666666,69.0,69.0
31,64.66864166666666,65.16864166666666,64.0,65.0
32,65.16864166666666,68.16655833333333,67.0,73.0
33,68.16864166666666,68.48114166666666,67.0,83.0
34,68.41864166666666,68.70614166666665,64.0,60.0
35,68.66864166666666,68.91864166666666,72.0,70.0
36,68.91864166666666,70.66864166666666,71.0,81.0
37,70.66864166666666,70.97489166666665,67.0,77.0
38,70.91864166666666,76.13585566666666,64.0,83.0
39,76.13585566666666,76.44002233333333,67.0,72.0
40,76.38585566666666,76.69835566666666,64.0,58.0
41,76.63585566666666,76.88585566666666,72.0,69.0
42,76.88585566666666,77.62201160833332,71.0,64.0
43,77.62201160833332,77.8841084,72.0,62.0
44,77.86394710833333,78.60359766666666,74.0,67.0
45,78.60359766666666,79.12026433333334,67.0,58.0
46,79.10359766666666,84.13417454166667,69.0,60.0
47,84.13629318333334,84.5134114,69.0,65.0
48,84.39053018333333,84.64476718333333,72.0,63.0
49,84.64476718333333,84.97315664166666,69.0,66.0
50,84.89900418333333,87.92138966666666,74.0,73.0
51,87.92138966666666,88.17138966666666,76.0,63.0
52,88.17138966666666,88.673473,74.0,70.0
53,88.67138966666666,89.17138966666666,71.0,71.0
54,89.17138966666666,89.67138966666666,74.0,69.0
55,89.67138966666666,92.17138966666666,72.0,62.0
56,92.17138966666666,92.41930633333332,69.0,72.0
57,92.42138966666666,92.66930633333332,69.0,66.0
58,92.67138966666666,92.954723,69.0,73.0
59,92.92138966666666,93.66930633333332,67.0,63.0
60,93.67138966666666,93.92138966666666,67.0,69.0
61,93.92138966666666,94.80680633333333,72.0,75.0
62,94.67138966666667,95.192223,67.0,75.0
63,95.17138966666667,95.67138966666667,74.0,71.0
64,95.67138966666667,95.92138966666667,76.0,67.0
65,95.92138966666667,99.67138966666667,74.0,74.0
66,99.67138966666667,100.02555633333333,72.0,64.0
67,99.92138966666667,100.24013966666666,74.0,63.0
68,100.17138966666667,100.42138966666667,76.0,65.0
69,100.42138966666667,100.66930633333332,79.0,69.0
70,100.67138966666667,100.92138966666667,79.0,74.0
71,100.92138966666667,101.17138966666667,76.0,63.0
72,101.17138966666667,101.680781825,79.0,87.0
73,101.67866318333333,101.93290018333333,72.0,63.0
74,101.93290018333333,102.69561118333333,76.0,69.0
75,102.69561118333333,103.61510166666666,74.0,67.0
76,103.45832218333332,103.71044054166666,69.0,64.0
77,103.71255918333333,103.96679618333333,69.0,58.0
78,103.96679618333333,104.22103318333333,71.0,68.0
79,104.22103318333333,104.51764301666667,72.0,67.0
80,104.47527018333332,104.72950718333333,71.0,63.0
81,104.72950718333333,104.98374418333333,69.0,63.0
82,104.98374418333333,105.32060820833333,72.0,61.0
83,105.23798118333333,105.50916731666666,76.0,65.0
84,105.49221818333334,107.75612966666665,79.0,75.0
85,107.75612966666665,108.07904633333332,69.0,64.0
86,108.00612966666665,108.36654633333333,71.0,81.0
87,108.25612966666665,108.651963,72.0,62.0
88,108.651963,109.25612966666665,74.0,76.0
89,109.25612966666665,109.75612966666665,72.0,85.0
90,109.75612966666665,110.00612966666665,67.0,63.0
91,110.00612966666665,110.77092819166666,76.0,74.0
92,110.77092819166666,111.08558313333333,69.0,63.0
93,111.02954869166666,111.28816919166665,72.0,65.0
94,111.28816919166665,111.80541019166665,74.0,85.0
95,111.80541019166665,112.06403069166666,72.0,71.0
96,112.06403069166666,112.37006494999999,69.0,68.0
97,112.32265119166667,112.66963369583333,72.0,63.0
98,112.58127169166666,112.83989219166666,74.0,62.0
99,112.83989219166666,113.35713319166666,76.0,67.0
100,113.35713319166666,115.92853966666665,74.0,73.0
101,115.92853966666665,116.22228966666665,72.0,67.0
102,116.17853966666665,116.49520633333333,74.0,62.0
103,116.42853966666665,116.67853966666665,76.0,65.0
104,116.67853966666665,116.92645633333332,79.0,74.0
105,116.92853966666665,117.17853966666665,79.0,77.0
106,117.17853966666665,117.42853966666665,76.0,61.0
107,117.42853966666665,117.96812299999999,79.0,93.0
108,117.92853966666665,118.17853966666665,72.0,64.0
109,118.17853966666665,118.67853966666665,76.0,74.0
110,118.67853966666665,119.67853966666665,74.0,77.0
111,119.67853966666665,119.92645633333332,69.0,65.0
112,119.92853966666665,120.17853966666665,69.0,63.0
113,120.17853966666665,120.42853966666665,71.0,73.0
114,120.42853966666665,120.70562299999999,72.0,72.0
115,120.67853966666665,120.96395633333333,71.0,60.0
116,120.92853966666665,121.17853966666665,69.0,66.0
117,121.17853966666665,121.48895633333332,72.0,68.0
118,121.42853966666665,121.67853966666665,76.0,67.0
119,121.67853966666665,123.96518492916665,79.0,67.0
120,123.96518492916665,124.25150970833333,69.0,64.0
121,124.22159517916666,124.47800542916666,71.0,66.0
122,124.47800542916666,124.99082592916666,72.0,71.0
123,124.99082592916666,125.33697976666666,74.0,86.0
124,125.24723617916666,125.76005667916665,72.0,63.0
125,125.76005667916665,126.29851820416665,67.0,64.0
126,126.27287717916666,127.04210792916666,76.0,93.0
127,127.04210792916666,127.45236432916666,69.0,74.0
128,127.29851817916666,127.55492842916667,72.0,74.0
129,127.55492842916667,128.06401818333333,74.0,68.0
130,128.06401818333333,128.37757714999998,72.0,70.0
131,128.31825518333332,128.625458225,69.0,59.0
132,128.5724921833333,129.08096618333332,76.0,76.0
133,129.08096618333332,129.58944018333332,69.0,58.0
134,129.58944018333332,130.09791418333333,74.0,74.0
135,130.09791418333333,133.729266,72.0,72.0
136,157.24932481041665,157.56130481041666,67.0,83.0
137,157.49890881041665,157.78593041041665,64.0,60.0
138,157.74849281041665,157.99807681041665,72.0,70.0
139,157.99807681041665,159.74516481041664,71.0,81.0
140,159.74516481041664,160.05090521041666,67.0,77.0
141,159.99474881041664,165.23601281041664,64.0,83.0
142,165.23601281041664,165.53967334374997,67.0,72.0
143,165.48559681041664,165.79757681041664,64.0,58.0
144,165.73518081041664,165.98476481041664,72.0,69.0
145,165.98476481041664,166.73351681041666,71.0,64.0
146,166.73351681041666,167.0038994770833,72.0,62.0
147,166.98310081041666,167.73185281041665,74.0,67.0
148,167.73185281041665,168.24765974374998,67.0,58.0
149,168.23102081041665,173.22062094375,69.0,60.0
150,173.22270081041665,173.5929170770833,69.0,65.0
151,173.47228481041665,173.72186881041665,72.0,63.0
152,173.72186881041665,174.04424814375,69.0,66.0
153,173.97145281041665,176.96646081041666,74.0,73.0
154,176.96646081041666,177.21604481041663,76.0,63.0
155,177.21604481041663,177.71729267708332,74.0,70.0
156,177.71521281041666,178.21438081041666,71.0,71.0
157,178.21438081041666,178.71354881041665,74.0,69.0
158,178.71354881041665,181.20938881041664,72.0,62.0
159,181.20938881041664,181.45689294374998,69.0,72.0
160,181.45897281041664,181.70647694374998,69.0,66.0
161,181.70855681041664,181.99141867708332,69.0,73.0
162,181.95814081041664,182.70481294374997,67.0,63.0
163,182.70689281041666,182.95647681041666,67.0,69.0
164,182.95647681041666,183.84042014374998,72.0,75.0
165,183.70522881041666,184.2251954770833,67.0,75.0
166,184.20439681041665,184.70356481041665,74.0,71.0
167,184.70356481041665,184.95314881041665,76.0,67.0
168,184.95314881041665,188.70563806041665,74.0,74.0
169,188.70563806041665,189.06641914374998,72.0,64.0
170,188.96030706041665,189.28501003541666,74.0,63.0
171,189.21497606041666,189.46964506041664,76.0,65.0
172,189.46964506041664,189.72219181875,79.0,69.0
173,189.72431406041665,189.97898306041665,79.0,74.0
174,189.97898306041665,190.23365206041666,76.0,63.0
175,190.23365206041666,190.74511230208333,79.0,87.0
176,190.74299006041664,190.99765906041665,72.0,63.0
177,190.99765906041665,191.76166606041664,76.0,69.0
178,191.76166606041664,192.68271894375,74.0,67.0
179,192.52567306041664,192.77821981875,69.0,64.0
180,192.78034206041664,193.03501106041665,69.0,58.0
181,193.03501106041665,193.28968006041666,71.0,68.0
182,193.28968006041666,193.58679389374998,72.0,67.0
183,193.54434906041666,193.79901806041664,71.0,63.0
184,193.79901806041664,194.05368706041665,69.0,63.0
185,194.05368706041665,194.39112348541664,72.0,61.0
186,194.30835606041666,194.58000299374999,76.0,65.0
187,194.56302506041666,196.85504606041664,79.0,75.0
188,196.85504606041664,197.18399351875,69.0,64.0
189,197.10971506041665,197.47686286874998,71.0,81.0
190,197.36438406041665,197.7676099770833,72.0,62.0
191,197.7676099770833,198.38306006041665,74.0,76.0
192,198.38306006041665,198.89239806041664,72.0,85.0
193,198.89239806041664,199.14706706041665,67.0,63.0
194,199.14706706041665,199.91107406041664,76.0,74.0
195,199.91107406041664,200.22092134374998,69.0,63.0
196,200.16574306041664,200.42041206041665,72.0,65.0
197,200.42041206041665,200.92975006041664,74.0,85.0
198,200.92975006041664,201.18441906041664,72.0,71.0
199,201.18441906041664,201.4857773770833,69.0,68.0
200,201.43908806041665,201.78076896874998,72.0,63.0
201,201.69375706041666,201.94842606041664,74.0,62.0
202,201.94842606041664,202.45776406041665,76.0,67.0
203,202.45776406041665,205.00445406041666,74.0,73.0
204,205.00445406041666,205.30369013541664,72.0,67.0
205,205.25912306041664,205.58170379375,74.0,62.0
206,205.51379206041665,205.76846106041666,76.0,65.0
207,205.76846106041666,206.02100781874998,79.0,74.0
208,206.02313006041666,206.27779906041664,79.0,77.0
209,206.27779906041664,206.53246806041665,76.0,61.0
210,206.53246806041665,207.08212865208333,79.0,93.0
211,207.04180606041666,207.29647506041664,74.0,64.0
212,207.29647506041664,207.80581306041665,76.0,74.0
213,207.80581306041665,208.82448906041665,74.0,77.0
214,208.82448906041665,209.07703581874998,69.0,65.0
215,209.07915806041666,209.33382706041664,69.0,63.0
216,209.33382706041664,209.58849606041665,71.0,73.0
217,209.58849606041665,209.87075420208333,72.0,72.0
218,209.84316506041665,210.13391216875,71.0,60.0
219,210.09783406041666,210.35250306041667,69.0,66.0
220,210.35250306041667,210.66871706874997,72.0,68.0
221,210.60717206041664,210.86184106041665,76.0,67.0
222,210.86184106041665,213.15386206041666,79.0,67.0
223,213.15386206041666,213.43824244374997,69.0,64.0
224,213.40853106041664,213.66320006041664,71.0,66.0
225,213.66320006041664,214.17253806041666,72.0,71.0
226,214.17253806041666,214.51634121041664,74.0,86.0
227,214.42720706041666,214.93654506041665,72.0,63.0
228,214.93654506041665,215.47134996041666,67.0,64.0
229,215.44588306041666,216.20989006041665,76.0,93.0
230,216.20989006041665,216.61736046041665,69.0,74.0
231,216.46455906041666,216.71922806041664,72.0,74.0
232,216.71922806041664,217.22856606041665,74.0,68.0
233,217.22856606041665,217.5426578270833,72.0,70.0
234,217.48323506041666,217.79096010208332,69.0,59.0
235,217.73790406041664,218.24724206041665,76.0,76.0
236,218.24724206041665,218.75658006041664,69.0,58.0
237,218.75658006041664,219.26591806041665,74.0,74.0
238,219.26591806041665,223.33849981875,72.0,72.0
239,223.34062206041665,223.67257397291664,72.0,79.0
240,223.59591294791664,223.90894546666664,74.0,65.0
241,223.85144969791665,224.10698644791663,76.0,87.0
242,224.10698644791663,224.36039372499997,79.0,86.0
243,224.36252319791663,224.61805994791663,79.0,108.0
244,224.61805994791663,224.87359669791664,76.0,65.0
245,224.87359669791664,225.38467019791665,79.0,83.0
246,225.38467019791665,225.64020694791662,72.0,83.0
247,225.64020694791662,226.15128044791663,76.0,83.0
248,226.15128044791663,227.17342744791665,74.0,79.0
249,227.17342744791665,227.42683472499996,69.0,67.0
250,227.42896419791663,227.68450094791663,69.0,68.0
251,227.68450094791663,227.94003769791664,71.0,74.0
252,227.94003769791664,228.22751654166663,72.0,77.0
253,228.19557444791664,228.47666487291664,71.0,60.0
254,228.45111119791665,228.70664794791665,69.0,63.0
255,228.70664794791665,229.05162256041663,72.0,68.0
256,228.96218469791663,229.21772144791663,76.0,65.0
257,229.21772144791663,231.51755219791664,79.0,83.0
258,231.51755219791664,231.83058471666664,69.0,74.0
259,231.77308894791665,232.02862569791665,71.0,74.0
260,232.02862569791665,232.53969919791663,72.0,81.0
261,232.53969919791663,233.05077269791664,74.0,73.0
262,233.05077269791664,233.5959177645833,72.0,77.0
263,233.56184619791662,233.8195124208333,67.0,62.0
264,233.81738294791663,234.58399319791664,76.0,62.0
265,234.58399319791664,234.90980255416665,69.0,74.0
266,234.83952994791665,235.09506669791665,72.0,61.0
267,235.09506669791665,235.60614019791663,74.0,83.0
268,235.60614019791663,235.86167694791664,72.0,65.0
269,235.86167694791664,236.20239261458332,69.0,62.0
270,236.11721369791664,236.42172832499998,72.0,63.0
271,236.37275044791664,236.67513560208332,74.0,68.0
272,236.62828719791665,237.13936069791663,76.0,83.0
273,237.13936069791663,239.69472819791665,74.0,81.0
274,239.69472819791665,240.02692597291664,72.0,93.0
275,239.95026494791665,240.25903852083331,74.0,66.0
276,240.20580169791663,240.46133844791663,76.0,85.0
277,240.46133844791663,240.71474572499997,79.0,90.0
278,240.71687519791664,240.97241194791664,79.0,108.0
279,240.97241194791664,241.22794869791664,76.0,65.0
280,241.22794869791664,241.73689272499996,79.0,121.0
281,241.73902219791663,241.99455894791663,79.0,83.0
282,241.99455894791663,242.50563244791664,81.0,111.0
283,242.50563244791664,243.5618510145833,79.0,104.0
284,243.52777944791663,243.78118672499997,69.0,65.0
285,243.78331619791663,244.03885294791664,69.0,61.0
286,244.03885294791664,244.29438969791664,71.0,73.0
287,244.29438969791664,244.54992644791665,72.0,81.0
288,244.54992644791665,244.8459231833333,71.0,69.0
289,244.80546319791665,245.11849571666664,69.0,72.0
290,245.06099994791663,245.31653669791663,72.0,83.0
291,245.31653669791663,245.80631546874997,76.0,90.0
292,245.80631546874997,247.87190419791665,79.0,104.0
293,247.87190419791665,248.17215987916663,69.0,77.0
294,248.12744094791663,248.43195557499996,71.0,71.0
295,248.38297769791663,248.93238171041662,72.0,83.0
296,248.89405119791664,249.40512469791665,74.0,98.0
297,249.40512469791665,249.98647080416663,72.0,75.0
298,249.91619819791663,250.2121949333333,67.0,76.0
299,250.17173494791663,251.1129619770833,76.0,104.0
300,250.93834519791665,251.27693139166664,69.0,76.0
301,251.19388194791662,251.4515481708333,72.0,60.0
302,251.44941869791663,251.99669323749998,74.0,87.0
303,251.96049219791664,252.50350779166664,72.0,67.0
304,252.47156569791665,252.7675624333333,69.0,63.0
305,252.72710244791665,255.53800669791664,76.0,95.0
306,255.53800669791664,256.0852812375,69.0,71.0
307,256.0490801979166,256.56015369791663,74.0,93.0
308,256.56015369791663,261.7432907770833,72.0,76.0
