,start,end,pitch,velocity
0,2.0669651124999997,3.4241085124999997,57.0,62.0
1,2.0535722499999998,3.4375013749999996,69.0,58.0
2,2.0535722499999998,3.4375013749999996,72.0,58.0
3,3.9285729999999996,5.758930875,67.0,60.0
4,2.0535722499999998,5.80357375,64.0,57.0
5,3.9285729999999996,5.80357375,71.0,60.0
6,3.9352694312499996,5.892859499999999,55.0,68.0
7,5.80357375,9.314735868749999,65.0,60.0
8,5.80357375,9.314735868749999,69.0,60.0
9,5.80357375,9.5669681125,60.0,57.0
10,10.0937540375,13.131701681249998,69.0,59.0
11,10.116075474999999,13.13616596875,65.0,49.0
12,10.0937540375,13.1383981125,62.0,73.0
13,5.80357375,13.214291,53.0,57.0
14,13.852684112499999,14.9866131375,69.0,71.0
15,14.3883986125,15.25670253125,57.0,52.0
16,13.852684112499999,15.37277400625,50.0,70.0
17,14.924113112499999,15.973220674999999,65.0,61.0
18,15.459827612499998,15.975452818749998,69.0,66.0
19,15.995542112499999,17.60491775625,43.0,71.0
20,17.0669711125,17.66741778125,59.0,59.0
21,16.5312566125,17.803578549999997,50.0,60.0
22,17.6026856125,18.0044714875,62.0,65.0
23,17.334828362499998,18.15848940625,55.0,58.0
24,17.8705428625,18.20759656875,59.0,58.0
25,18.6741146125,19.73215075,55.0,65.0
26,18.138400112499998,19.772329337499997,48.0,79.0
27,19.745543612499997,20.332597418749998,67.0,59.0
28,19.2098291125,20.53795464375,64.0,60.0
29,20.281258112499998,21.290187087499998,60.0,58.0
30,20.281258112499998,21.448669293749997,57.0,45.0
31,21.3526871125,21.87277660625,64.0,66.0
32,20.8169726125,21.8794730375,48.0,74.0
33,20.281258112499998,21.910723049999998,41.0,58.0
34,21.6205443625,22.0044730875,60.0,7.0
35,21.888401612499997,22.39509824375,57.0,64.0
36,23.495545112499997,24.40849190625,62.0,73.0
37,22.9598306125,24.43081334375,53.0,62.0
38,23.495545112499997,24.446438349999998,57.0,63.0
39,22.4241161125,24.4642955,47.0,81.0
40,25.094934437499997,26.103705812499996,44.0,61.0
41,24.5669741125,26.116863699999996,40.0,64.0
42,26.147565437499996,26.586161687499995,60.0,61.0
43,25.621249937499996,26.649758143749995,56.0,64.0
44,27.200196437499997,27.513792756249998,81.0,62.0
45,26.937038687499996,27.518178718749997,76.0,59.0
46,27.463354187499995,27.948003043749996,88.0,75.0
47,27.463354187499995,28.233090606249995,57.0,60.0
48,27.200196437499997,28.2966870625,52.0,64.0
49,26.673880937499995,28.351511593749997,45.0,66.0
50,27.989669687499998,28.362476499999996,76.0,58.0
51,28.252827437499995,28.518178168749998,81.0,59.0
52,28.515985187499997,29.024756837499996,86.0,68.0
53,29.042300687499996,29.393177687499996,76.0,60.0
54,29.305458437499997,29.623440718749997,81.0,62.0
55,29.568616187499998,30.143177274999996,84.0,72.0
56,30.094931687499997,30.419492912499997,76.0,63.0
57,30.3580894375,30.627826131249996,81.0,53.0
58,30.621247187499996,31.097124118749996,83.0,75.0
59,31.147562687499995,31.474316893749997,72.0,59.0
60,31.410720437499997,31.728702718749997,76.0,64.0
61,31.673878187499994,32.00940431874999,81.0,65.0
62,32.2001936875,32.551070687499994,72.0,58.0
63,32.463351437499995,32.7265091875,76.0,64.0
64,32.7265091875,33.283526425,79.0,68.0
65,33.252824687499995,33.739666525,67.0,64.0
66,31.937035937499996,33.774754224999995,69.0,47.0
67,33.5159824375,33.774754224999995,69.0,64.0
68,33.7791401875,34.410718787499995,76.0,76.0
69,31.342738018749998,34.66071864999999,64.0,58.0
70,30.884404937499998,34.691420387499996,57.0,59.0
71,35.0949289375,35.77956464374999,79.0,85.0
72,35.887494187499996,36.00863959374999,79.0,43.0
73,35.0949289375,36.068110974999996,76.0,85.0
74,36.151811437499994,36.676243156249996,76.0,74.0
75,35.0949289375,36.717909799999994,60.0,85.0
76,36.151811437499994,37.04027804374999,79.0,83.0
77,37.204751637499996,38.109143812499994,74.0,69.0
78,37.204751637499996,38.109143812499994,79.0,77.0
79,35.62317693749999,38.638554862499994,67.0,56.0
80,38.216286524999994,38.77090762499999,79.0,74.0
81,37.204751637499996,38.78351264999999,59.0,72.0
82,38.216286524999994,38.7898151625,74.0,62.0
83,39.224688525,40.1028386,72.0,64.0
84,39.224688525,40.11124194999999,76.0,72.0
85,39.72888952499999,40.233090524999994,64.0,62.0
86,40.480748587499995,40.76558478124999,64.0,71.0
87,40.72665033749999,40.91927337499999,69.0,67.0
88,39.224688525,41.33525716874999,57.0,66.0
89,40.97255208749999,42.20206083749999,72.0,83.0
90,42.20206083749999,42.86756633333332,74.0,81.0
91,42.20206083749999,42.875899666666655,71.0,73.0
92,42.20206083749999,43.05923299999999,55.0,74.0
93,43.20089966666666,44.14464966666666,67.0,64.0
94,43.20089966666666,44.157149666666655,76.0,76.0
95,44.70089966666666,44.87173299999999,60.0,51.0
96,43.20089966666666,45.00923299999999,48.0,86.0
97,44.20089966666666,45.011316333333326,67.0,66.0
98,43.70089966666666,45.24881633333332,55.0,71.0
99,44.20089966666666,45.382620104166655,76.0,75.0
100,45.20089966666666,46.043910470833325,74.0,76.0
101,45.20089966666666,46.06003950416666,67.0,61.0
102,45.20089966666666,46.906141666666656,43.0,63.0
103,46.66864166666666,47.09989166666666,55.0,46.0
104,45.687055608333324,47.13322499999999,50.0,61.0
105,46.170926608333325,47.13947499999999,74.0,62.0
106,46.170926608333325,47.16447499999999,67.0,74.0
107,47.16864166666666,48.16864166666666,69.0,70.0
108,48.66864166666666,48.91239166666666,67.0,63.0
109,48.41864166666666,48.97489166666666,65.0,67.0
110,47.66864166666666,49.379058333333326,60.0,60.0
111,47.16864166666666,49.93322499999999,53.0,72.0
112,48.91864166666666,50.77489166666666,72.0,73.0
113,51.16864166666666,52.04572499999999,69.0,70.0
114,51.16864166666666,52.04780833333332,72.0,75.0
115,51.16864166666666,52.79155833333333,53.0,75.0
116,52.16864166666666,52.79989166666666,69.0,84.0
117,52.16864166666666,52.80405833333332,72.0,84.0
118,52.66864166666666,53.097808333333326,65.0,76.0
119,51.66864166666666,53.17489166666666,60.0,63.0
120,53.16864166666666,54.04989166666666,74.0,74.0
121,53.16864166666666,54.05405833333332,71.0,74.0
122,53.66864166666666,54.63114166666666,62.0,60.0
123,53.16864166666666,54.63947499999999,55.0,71.0
124,54.16864166666666,54.695724999999996,74.0,77.0
125,54.16864166666666,54.71030833333332,71.0,74.0
126,55.16864166666666,56.07489166666666,71.0,73.0
127,55.16864166666666,56.07697499999999,67.0,75.0
128,55.16864166666666,56.718641666666656,52.0,69.0
129,56.16864166666666,56.758224999999996,71.0,79.0
130,55.66864166666666,56.84572499999999,59.0,63.0
131,56.16864166666666,57.122808333333325,67.0,79.0
132,56.66864166666666,57.216558333333325,64.0,55.0
133,57.16864166666666,57.656141666666656,74.0,70.0
134,57.66864166666666,58.23114166666666,64.0,67.0
135,58.41864166666666,58.71447499999999,60.0,61.0
136,57.66864166666666,58.86447499999999,72.0,70.0
137,57.16864166666666,59.16864166666666,57.0,61.0
138,58.66864166666666,59.18114166666666,64.0,76.0
139,59.16864166666666,60.05822499999999,60.0,67.0
140,59.16864166666666,60.060308333333325,65.0,85.0
141,60.16864166666666,60.73322499999999,65.0,64.0
142,59.16864166666666,60.76655833333332,41.0,67.0
143,60.66864166666666,61.091558333333325,53.0,59.0
144,59.66864166666666,61.10822499999999,48.0,72.0
145,60.16864166666666,61.11447499999999,60.0,63.0
146,61.16864166666666,62.05405833333332,62.0,82.0
147,61.16864166666666,62.07905833333332,67.0,82.0
148,61.16864166666666,62.83739166666666,36.0,82.0
149,62.66864166666666,63.029058333333325,48.0,60.0
150,62.16864166666666,63.04572499999999,67.0,76.0
151,62.16864166666666,63.06447499999999,62.0,68.0
152,61.66864166666666,63.07905833333332,43.0,60.0
153,63.16864166666666,64.05614166666666,57.0,63.0
154,63.16864166666666,64.07489166666666,60.0,70.0
155,63.16864166666666,64.71030833333333,41.0,68.0
156,64.16864166666666,64.72489166666665,65.0,77.0
157,64.16864166666666,64.726975,57.0,64.0
158,64.16864166666666,64.74364166666666,60.0,69.0
159,64.66864166666666,65.11864166666666,53.0,42.0
160,63.66864166666666,65.133225,48.0,76.0
161,65.16864166666666,66.71239166666666,67.0,74.0
162,65.16864166666666,66.76447499999999,62.0,67.0
163,65.16864166666666,67.16864166666666,43.0,69.0
164,65.66864166666666,67.16864166666666,50.0,60.0
165,65.16864166666666,67.22072499999999,59.0,65.0
166,66.16864166666666,67.24989166666666,55.0,52.0
167,67.16864166666666,68.07489166666666,67.0,77.0
168,67.16864166666666,68.07905833333332,64.0,77.0
169,67.66864166666666,68.23530833333332,55.0,58.0
170,67.16864166666666,68.35405833333333,48.0,77.0
171,68.16864166666666,68.57489166666666,67.0,80.0
172,68.16864166666666,68.58114166666665,64.0,80.0
173,69.16864166666666,70.02280833333333,59.0,65.0
174,69.16864166666666,70.03530833333332,62.0,70.0
175,69.16864166666666,70.70197499999999,43.0,74.0
176,70.16864166666666,70.714475,62.0,79.0
177,70.16864166666666,70.72905833333333,59.0,73.0
178,70.66864166666666,71.08739166666666,55.0,55.0
179,69.66864166666666,71.13114166666665,50.0,69.0
180,71.16864166666666,72.051975,64.0,73.0
181,71.16864166666666,72.06239166666666,60.0,65.0
182,72.16864166666666,73.01201633125,60.0,61.0
183,72.16864166666666,73.0140655125,64.0,76.0
184,73.15340983749999,73.98742660625,60.0,61.0
185,73.15340983749999,74.001770875,64.0,70.0
186,72.6616063375,74.29210566666666,57.0,52.0
187,71.66864166666666,74.34002233333334,52.0,60.0
188,71.16864166666666,74.36710566666666,45.0,67.0
189,74.1370168375,74.74835566666667,62.0,61.0
190,74.1370168375,74.75460566666666,67.0,71.0
191,74.1370168375,75.07335566666666,47.0,69.0
192,75.13585566666666,75.99627233333334,64.0,61.0
193,75.13585566666666,76.019189,67.0,76.0
194,75.63585566666666,76.575439,55.0,60.0
195,75.13585566666666,76.61918899999999,48.0,71.0
196,76.13585566666666,76.67127233333333,67.0,74.0
197,76.13585566666666,76.69002233333333,64.0,63.0
198,77.13585566666666,77.97080195416666,59.0,60.0
199,77.13585566666666,78.02120518333334,62.0,67.0
200,77.13585566666666,78.668181,43.0,67.0
201,78.10588260833333,78.68484766666667,62.0,68.0
202,78.10588260833333,78.69109766666666,59.0,62.0
203,78.60359766666666,79.049431,55.0,58.0
204,77.62201160833332,79.05776433333334,50.0,57.0
205,79.10359766666666,80.005681,57.0,51.0
206,79.10359766666666,80.049431,60.0,61.0
207,80.60359766666666,80.84109766666667,65.0,63.0
208,80.60359766666666,81.411931,53.0,47.0
209,79.60359766666666,81.505681,48.0,60.0
210,80.10359766666666,81.736931,57.0,57.0
211,80.10359766666666,81.84109766666667,60.0,64.0
212,80.85359766666666,82.20197334166666,72.0,66.0
213,79.10359766666666,82.371464675,41.0,60.0
214,83.11934518333334,83.96256456666667,57.0,60.0
215,83.11934518333334,83.96892049166667,60.0,64.0
216,83.11934518333334,84.6659536,41.0,76.0
217,84.13629318333334,84.67019088333333,57.0,67.0
218,84.13629318333334,84.67019088333333,60.0,74.0
219,83.62781918333333,85.08332600833333,48.0,76.0
220,84.64476718333333,85.10239378333333,53.0,55.0
221,85.15324118333334,86.057901175,59.0,60.0
222,85.15324118333334,86.06213845833334,62.0,58.0
223,85.66171518333333,86.704723,50.0,59.0
224,86.17018918333333,86.70888966666666,62.0,79.0
225,86.17018918333333,86.73805633333333,59.0,71.0
226,86.67138966666666,86.79430633333332,55.0,59.0
227,85.15324118333334,86.82555633333332,43.0,67.0
228,87.17138966666666,88.08388966666666,55.0,60.0
229,87.17138966666666,88.10263966666666,59.0,71.0
230,87.17138966666666,88.67555633333333,40.0,68.0
231,88.17138966666666,88.70888966666666,59.0,77.0
232,87.67138966666666,88.71305633333333,47.0,75.0
233,88.17138966666666,88.72763966666666,55.0,79.0
234,88.67138966666666,89.13180633333333,52.0,59.0
235,89.17138966666666,90.09430633333334,60.0,63.0
236,89.17138966666666,90.10888966666666,64.0,76.0
237,89.67138966666666,90.59638966666667,52.0,59.0
238,90.17138966666666,90.723473,64.0,71.0
239,90.17138966666666,90.75888966666666,60.0,61.0
240,89.17138966666666,90.804723,45.0,42.0
241,91.17138966666666,92.017223,57.0,59.0
242,91.17138966666666,92.048473,60.0,65.0
243,92.17138966666666,92.767223,60.0,73.0
244,91.17138966666666,92.80263966666666,41.0,71.0
245,92.17138966666666,92.80680633333333,57.0,63.0
246,92.67138966666666,93.07555633333332,53.0,53.0
247,91.67138966666666,93.10472299999999,48.0,67.0
248,93.17138966666666,94.079723,64.0,63.0
249,93.17138966666666,94.110973,67.0,73.0
250,93.67138966666666,94.83180633333333,55.0,60.0
251,94.17138966666666,94.85055633333333,72.0,62.0
252,93.17138966666666,94.923473,48.0,70.0
253,94.17138966666666,94.92555633333333,67.0,63.0
254,94.17138966666666,94.94013966666667,64.0,60.0
255,95.17138966666667,95.82763966666667,67.0,74.0
256,95.17138966666667,96.06097299999999,59.0,65.0
257,95.17138966666667,96.07138966666666,62.0,62.0
258,96.17138966666667,97.02138966666666,67.0,75.0
259,96.17138966666667,97.04013966666666,59.0,63.0
260,96.17138966666667,97.04430633333332,62.0,71.0
261,96.67138966666667,97.192223,55.0,50.0
262,97.17138966666667,97.648473,59.0,60.0
263,97.17138966666667,97.648473,67.0,74.0
264,97.17138966666667,97.65263966666666,62.0,66.0
265,98.17138966666667,98.58388966666666,67.0,67.0
266,98.17138966666667,98.585973,72.0,67.0
267,95.67138966666667,98.70888966666666,50.0,62.0
268,97.67138966666667,98.80055633333333,55.0,56.0
269,95.17138966666667,98.85888966666667,43.0,59.0
270,98.67138966666667,99.02555633333333,74.0,64.0
271,98.67138966666667,99.05055633333333,67.0,67.0
272,99.17138966666667,99.79222299999999,67.0,73.0
273,99.17138966666667,100.05263966666666,64.0,61.0
274,99.67138966666667,100.56930633333333,55.0,58.0
275,99.17138966666667,100.71305633333333,48.0,68.0
276,100.17138966666667,100.71513966666666,67.0,76.0
277,100.17138966666667,100.72138966666667,72.0,65.0
278,100.17138966666667,100.72555633333333,64.0,63.0
279,101.17138966666667,101.80366304166667,62.0,67.0
280,101.17138966666667,101.80366304166667,67.0,71.0
281,101.93290018333333,102.0557814,67.0,11.0
282,101.93290018333333,102.06001868333333,62.0,13.0
283,101.17138966666667,102.06637460833333,59.0,62.0
284,102.18713718333333,102.774000925,67.0,74.0
285,102.18713718333333,102.78883141666667,59.0,65.0
286,102.18713718333333,102.80154326666666,62.0,74.0
287,101.17138966666667,102.93713633333333,43.0,73.0
288,102.69561118333333,103.12569544166666,55.0,58.0
289,101.67866318333333,103.168068275,50.0,58.0
290,103.20408518333333,103.68925412499999,69.0,53.0
291,103.96679618333333,104.03882999999999,69.0,35.0
292,103.20408518333333,104.057897775,64.0,35.0
293,103.20408518333333,104.08755875833333,60.0,55.0
294,104.22103318333333,104.74857495833334,69.0,74.0
295,103.71255918333333,104.76552409166666,52.0,61.0
296,104.22103318333333,104.77188001666666,64.0,79.0
297,104.22103318333333,104.77823594166667,60.0,61.0
298,103.20408518333333,104.85450704166666,45.0,71.0
299,104.72950718333333,104.87145617499999,57.0,58.0
300,105.23798118333333,105.824844925,64.0,63.0
301,105.23798118333333,105.83120085,55.0,63.0
302,106.00069218333333,106.13840389166666,55.0,10.0
303,105.23798118333333,106.168064875,59.0,61.0
304,105.74645518333332,106.61029633333332,47.0,60.0
305,106.25492918333333,106.84779633333332,64.0,76.0
306,105.23798118333333,106.98737966666665,40.0,44.0
307,106.25492918333333,107.008213,55.0,65.0
308,106.25492918333333,107.03737966666665,59.0,70.0
309,106.75612966666665,107.26029633333333,47.0,63.0
310,107.25612966666665,108.11446299999999,57.0,54.0
311,107.25612966666665,108.120713,60.0,48.0
312,107.75612966666665,108.73529633333332,48.0,57.0
313,107.25612966666665,108.75196299999999,41.0,79.0
314,108.25612966666665,108.776963,57.0,68.0
315,108.25612966666665,108.776963,65.0,77.0
316,108.25612966666665,108.79154633333333,60.0,79.0
317,108.75612966666665,109.21029633333333,53.0,61.0
318,109.25612966666665,109.89987966666666,72.0,65.0
319,110.00612966666665,110.06237966666666,72.0,10.0
320,109.25612966666665,110.11654633333333,64.0,64.0
321,109.25612966666665,110.12487966666666,67.0,71.0
322,110.25612966666665,110.79463507083332,72.0,73.0
323,110.25612966666665,110.80972126666666,64.0,69.0
324,110.25612966666665,110.81403160833332,67.0,85.0
325,109.25612966666665,110.93041083333333,48.0,59.0
326,111.02954869166666,111.11360035416666,69.0,10.0
327,110.77092819166666,111.193341675,60.0,59.0
328,109.75612966666665,111.21920372499999,55.0,63.0
329,111.28816919166665,111.95842732083332,74.0,70.0
330,111.28816919166665,111.99937556666666,69.0,70.0
331,112.06403069166666,112.1437720125,74.0,44.0
332,112.06403069166666,112.18687542916666,69.0,36.0
333,111.28816919166665,112.21273747916666,65.0,65.0
334,111.80541019166665,112.80756462916666,57.0,59.0
335,112.32265119166667,112.87653009583333,74.0,85.0
336,112.32265119166667,112.8937714625,69.0,83.0
337,112.32265119166667,112.913168,65.0,77.0
338,112.83989219166666,112.95627141666665,62.0,58.0
339,111.28816919166665,112.99290932083332,50.0,69.0
340,113.35713319166666,114.29032216249999,67.0,67.0
341,113.35713319166666,114.30540835833332,59.0,67.0
342,113.35713319166666,114.30756352916666,62.0,65.0
343,113.87437419166666,114.89592516666666,50.0,75.0
344,114.39161519166666,114.92178721666666,67.0,77.0
345,113.35713319166666,114.92609755833332,43.0,76.0
346,114.39161519166666,114.92825272916666,62.0,74.0
347,114.39161519166666,114.93256307083333,59.0,67.0
348,114.90885619166666,115.33989035833332,55.0,54.0
349,115.42609719166666,116.32228966666666,72.0,76.0
350,115.42609719166666,116.34728966666665,64.0,72.0
351,115.42609719166666,116.34728966666665,67.0,86.0
352,115.92853966666665,116.95770633333332,55.0,70.0
353,116.42853966666665,116.97853966666666,72.0,77.0
354,116.42853966666665,116.99520633333333,67.0,86.0
355,116.42853966666665,117.01395633333333,64.0,73.0
356,116.92853966666665,117.04937299999999,60.0,64.0
357,115.42609719166666,117.22853966666666,48.0,69.0
358,117.42853966666665,118.29728966666666,67.0,74.0
359,117.42853966666665,118.305623,59.0,68.0
360,117.42853966666665,118.31395633333332,62.0,68.0
361,118.42853966666665,118.99937299999999,67.0,83.0
362,118.42853966666665,119.011873,62.0,79.0
363,118.42853966666665,119.01395633333333,59.0,71.0
364,117.42853966666665,119.05770633333333,43.0,63.0
365,118.92853966666665,119.34103966666666,55.0,58.0
366,117.92853966666665,119.36603966666665,50.0,60.0
367,119.42853966666665,120.28687299999999,69.0,66.0
368,119.42853966666665,120.30770633333333,64.0,74.0
369,119.42853966666665,120.31395633333332,60.0,64.0
370,120.42853966666665,120.96812299999999,69.0,74.0
371,120.42853966666665,120.97645633333332,64.0,83.0
372,119.92853966666665,120.98895633333332,52.0,63.0
373,120.42853966666665,120.98895633333332,60.0,72.0
374,120.92853966666665,121.055623,57.0,59.0
375,119.42853966666665,121.15770633333332,45.0,68.0
376,121.42853966666665,122.23687299999999,64.0,60.0
377,121.42853966666665,122.274373,55.0,73.0
378,121.42853966666665,122.27853966666666,59.0,74.0
379,122.42853966666665,123.01433025208333,64.0,76.0
380,121.42853966666665,123.03142426874999,40.0,79.0
381,122.42853966666665,123.03356102083332,59.0,85.0
382,122.42853966666665,123.04851828541666,55.0,77.0
383,122.93954392916666,123.3198858,52.0,57.0
384,121.92853966666665,123.38185161041666,47.0,65.0
385,123.45236442916666,124.09125330208333,65.0,83.0
386,123.45236442916666,124.31561227083333,57.0,64.0
387,123.45236442916666,124.33270628749999,60.0,74.0
388,123.96518492916665,125.02715071458333,48.0,67.0
389,123.45236442916666,125.03569772291665,41.0,76.0
390,124.47800542916666,125.05706524374999,65.0,67.0
391,124.47800542916666,125.07415926041666,60.0,75.0
392,124.47800542916666,125.0762960125,57.0,71.0
393,124.99082592916666,125.44809087499999,53.0,60.0
394,125.50364642916666,126.12971478958332,64.0,58.0
395,126.27287717916666,126.39467204791666,64.0,35.0
396,125.50364642916666,126.41817632083333,59.0,55.0
397,125.50364642916666,126.42031307291666,55.0,63.0
398,126.52928742916666,127.05920194583332,64.0,74.0
399,126.52928742916666,127.0762959625,59.0,72.0
400,126.52928742916666,127.08697972291665,55.0,67.0
401,126.01646692916665,127.12330450833332,47.0,76.0
402,127.04210792916666,127.19381732708332,52.0,58.0
403,125.50364642916666,127.27074040208332,40.0,49.0
404,127.55492842916667,128.44537368333332,62.0,62.0
405,127.55492842916667,128.4644414583333,53.0,65.0
406,127.55492842916667,128.47079738333332,57.0,62.0
407,127.55492842916667,128.5724921833333,38.0,65.0
408,128.06401818333333,128.5724921833333,45.0,57.0
409,128.5724921833333,129.16994913333332,43.0,57.0
410,128.5724921833333,129.1826609833333,62.0,59.0
411,128.5724921833333,129.18689826666665,67.0,65.0
412,128.5724921833333,129.18901690833331,59.0,63.0
413,129.08096618333332,129.375457375,50.0,74.0
414,129.58944018333332,130.4093545083333,72.0,58.0
415,129.58944018333332,130.424185,64.0,63.0
416,129.58944018333332,130.424185,67.0,64.0
417,130.6063881833333,131.21867562499997,72.0,61.0
418,130.6063881833333,131.26528574166664,67.0,66.0
419,131.36909918333333,131.50469224999998,67.0,39.0
420,130.6063881833333,131.5279973083333,64.0,63.0
421,131.62333618333332,132.50892839999997,72.0,67.0
422,131.62333618333332,132.53011481666664,64.0,62.0
423,131.62333618333332,132.55553851666664,67.0,60.0
424,131.11486218333332,133.50468998333332,60.0,53.0
425,130.09791418333333,133.5174018333333,55.0,62.0
426,132.6402841833333,133.53435096666666,72.0,59.0
427,129.58944018333332,133.54070689166664,48.0,71.0
428,132.6402841833333,133.54070689166664,64.0,61.0
429,132.6402841833333,133.55977466666664,67.0,55.0
430,134.41994318333332,134.98985779166665,64.0,65.0
431,133.65723218333332,135.12333221666665,45.0,59.0
432,134.16570618333333,135.25045071666665,52.0,64.0
433,134.92841718333332,135.680534975,60.0,62.0
434,136.19960218333333,137.30341449166664,50.0,71.0
435,135.69112818333332,137.43053299166667,43.0,70.0
436,136.45383918333332,137.70595640833332,64.0,66.0
437,138.4877351833333,139.30764950833333,60.0,64.0
438,138.99620918333332,139.48349676666666,53.0,50.0
439,137.72502418333332,139.49408997499998,41.0,75.0
440,138.23349818333332,139.54281873333332,48.0,65.0
441,139.2504461833333,139.69959821666666,57.0,60.0
442,140.5216311833333,140.97078321666666,60.0,51.0
443,140.26739418333332,141.3288336583333,55.0,63.0
444,139.75892018333332,141.37120649166664,48.0,75.0
445,140.77586818333333,141.44112166666665,67.0,74.0
446,140.77586818333333,141.451714875,64.0,67.0
447,142.30129018333332,143.23984844166665,57.0,54.0
448,142.04705318333333,143.28645855833332,52.0,15.0
449,142.5555271833333,143.36696694166665,64.0,67.0
450,143.31823818333334,143.40298385,60.0,52.0
451,141.79281618333331,143.40933977499998,45.0,64.0
452,143.8267121833333,144.68476205833332,59.0,59.0
453,143.8267121833333,144.70382983333332,62.0,65.0
454,144.33518618333332,145.33942233333332,50.0,61.0
455,144.84366018333333,145.39026973333333,62.0,71.0
456,144.84366018333333,145.39450701666667,59.0,60.0
457,143.8267121833333,145.41145615,43.0,67.0
458,145.8606081833333,146.7462004,57.0,62.0
459,145.8606081833333,146.765268175,60.0,74.0
460,146.87755618333333,147.80975851666665,57.0,63.0
461,146.87755618333333,147.8139958,60.0,74.0
462,147.38603018333333,147.90509739166666,53.0,43.0
463,147.8945041833333,148.76028799999997,65.0,85.0
464,147.8945041833333,148.766538,57.0,66.0
465,147.8945041833333,148.78112133333332,60.0,75.0
466,146.36908218333332,149.74778799999999,48.0,65.0
467,148.89570466666666,149.78112133333332,65.0,79.0
468,145.8606081833333,149.79570466666667,41.0,74.0
469,148.89570466666666,149.80820466666665,60.0,79.0
470,148.89570466666666,149.8248713333333,57.0,79.0
471,148.39570466666666,149.84778799999998,53.0,58.0
472,149.89570466666666,150.82695466666667,65.0,86.0
473,149.89570466666666,150.829038,57.0,81.0
474,149.89570466666666,150.835288,60.0,86.0
475,150.89570466666666,151.75820466666664,65.0,85.0
476,150.89570466666666,151.77695466666665,60.0,77.0
477,150.89570466666666,151.78112133333332,57.0,64.0
478,149.89570466666666,156.24075190624998,41.0,74.0
479,151.89570466666666,156.24075190624998,57.0,60.0
480,151.89570466666666,156.24075190624998,60.0,71.0
481,151.89570466666666,156.24075190624998,65.0,74.0
482,156.24075190624998,157.15573081041666,67.0,73.0
483,156.24075190624998,157.15989054374998,64.0,73.0
484,156.75015681041666,157.31588054374998,55.0,78.0
485,156.24075190624998,157.43443294374998,48.0,73.0
486,157.24932481041665,157.65489881041665,67.0,79.0
487,157.24932481041665,157.66113841041664,64.0,79.0
488,158.24766081041665,159.10040614374998,59.0,65.0
489,158.24766081041665,159.11288534374998,62.0,70.0
490,158.24766081041665,159.77844267708332,43.0,74.0
491,159.24599681041664,159.79092187708332,62.0,79.0
492,159.24599681041664,159.80548094374998,59.0,73.0
493,159.74516481041664,160.16321801041664,55.0,55.0
494,158.74682881041664,160.20689521041663,50.0,69.0
495,160.24433281041664,161.12619627708332,64.0,73.0
496,160.24433281041664,161.13659561041663,60.0,65.0
497,161.24266881041666,162.09749401041665,60.0,61.0
498,161.24266881041666,162.09957387708332,64.0,76.0
499,162.24100481041665,163.08751054374997,60.0,61.0
500,162.24100481041665,163.10206961041663,64.0,70.0
501,161.74183681041666,163.39533081041665,57.0,52.0
502,160.74350081041663,163.44316774374997,52.0,60.0
503,160.24433281041664,163.47020601041666,45.0,67.0
504,163.23934081041665,163.85082161041666,62.0,61.0
505,163.23934081041665,163.85706121041665,67.0,71.0
506,163.23934081041665,164.17528081041664,47.0,69.0
507,164.23767681041664,165.09666174375,64.0,61.0
508,164.23767681041664,165.1195402770833,67.0,76.0
509,164.73684481041664,165.67486467708332,55.0,60.0
510,164.23767681041664,165.7185418770833,48.0,71.0
511,165.23601281041664,165.77053854374998,67.0,74.0
512,165.23601281041664,165.78925734374997,64.0,63.0
513,166.23434881041663,167.09333374374998,59.0,60.0
514,166.23434881041663,167.14533041041665,62.0,67.0
515,166.23434881041663,167.79632867708332,43.0,67.0
516,167.23268481041666,167.81296761041665,62.0,68.0
517,167.23268481041666,167.81920721041664,59.0,62.0
518,167.73185281041665,168.17694427708332,55.0,58.0
519,166.73351681041666,168.18526374374997,50.0,57.0
520,168.23102081041665,169.13160307708333,57.0,51.0
521,168.23102081041665,169.17528027708332,60.0,61.0
522,169.72852481041664,169.96562961041664,65.0,63.0
523,169.72852481041664,170.53551307708332,53.0,47.0
524,168.73018881041665,170.62910707708332,48.0,60.0
525,169.22935681041665,170.8599722770833,57.0,57.0
526,169.22935681041665,170.96396561041664,60.0,64.0
527,169.97810881041664,171.32378254374999,72.0,66.0
528,168.23102081041665,171.49017187708333,41.0,60.0
529,172.22436481041666,173.05215174375,57.0,60.0
530,172.22436481041666,173.05839134374997,60.0,64.0
531,172.22436481041666,173.74266747708333,41.0,76.0
532,173.22270081041665,173.74682721041665,57.0,67.0
533,173.22270081041665,173.74682721041665,60.0,74.0
534,172.72353281041666,174.15240121041666,48.0,82.0
535,173.72186881041665,174.17112001041664,53.0,55.0
536,174.22103681041665,175.10913987708332,59.0,60.0
537,174.22103681041665,175.11329961041665,62.0,58.0
538,174.72020481041665,175.75181867708332,50.0,59.0
539,175.21937281041664,175.75597841041665,62.0,79.0
540,175.21937281041664,175.78509654374997,59.0,71.0
541,175.71854081041664,175.84125294375,55.0,59.0
542,174.22103681041665,175.87245094374998,43.0,67.0
543,176.21770881041664,177.12869041041665,55.0,60.0
544,176.21770881041664,177.14740921041664,59.0,71.0
545,176.21770881041664,177.71937254374998,40.0,68.0
546,177.21604481041663,177.75265041041666,59.0,77.0
547,176.71687681041664,177.75681014375,47.0,83.0
548,177.21604481041663,177.77136921041665,55.0,79.0
549,177.71521281041666,178.17486334375,52.0,59.0
550,178.21438081041666,179.13576174374998,60.0,63.0
551,178.21438081041666,179.15032081041664,64.0,76.0
552,178.71354881041665,179.63700961041664,52.0,59.0
553,179.21271681041665,179.76388147708332,64.0,71.0
554,179.21271681041665,179.79923921041666,60.0,61.0
555,178.21438081041666,179.8449962770833,45.0,42.0
556,180.21105281041665,181.05547867708333,57.0,59.0
557,180.21105281041665,181.08667667708332,60.0,65.0
558,181.20938881041664,181.80423067708332,60.0,73.0
559,180.21105281041665,181.83958841041664,41.0,71.0
560,181.20938881041664,181.84374814375,57.0,63.0
561,181.70855681041664,182.11205094374998,53.0,53.0
562,180.71022081041664,182.1411690770833,48.0,67.0
563,182.20772481041666,183.11454667708333,64.0,63.0
564,182.20772481041666,183.14574467708331,67.0,73.0
565,182.70689281041666,183.86537854374998,55.0,60.0
566,183.20606081041666,183.88409734374997,72.0,62.0
567,182.20772481041666,183.95689267708332,48.0,70.0
568,183.20606081041666,183.95897254374998,67.0,63.0
569,183.20606081041666,183.97353161041664,64.0,60.0
570,184.20439681041665,184.85955481041665,67.0,74.0
571,184.20439681041665,185.09249987708333,59.0,65.0
572,184.20439681041665,185.10289921041664,62.0,62.0
573,185.20273281041665,186.05131841041666,67.0,75.0
574,185.20273281041665,186.07003721041664,59.0,63.0
575,185.20273281041665,186.07419694375,62.0,71.0
576,185.70190081041665,186.22186747708332,55.0,50.0
577,186.20106881041664,186.67735827708333,59.0,60.0
578,186.20106881041664,186.67735827708333,67.0,74.0
579,186.20106881041664,186.68151801041665,62.0,66.0
580,187.19940481041664,187.61121841041665,67.0,67.0
581,187.19940481041664,187.61329827708332,72.0,67.0
582,184.70356481041665,187.73601041041664,50.0,62.0
583,186.70023681041664,187.82752454374997,55.0,56.0
584,184.20439681041665,187.88576081041666,43.0,59.0
585,187.69857281041664,188.05215014375,74.0,64.0
586,187.69857281041664,188.07710854374997,67.0,67.0
587,188.19774081041666,188.82872807708333,67.0,73.0
588,188.19774081041666,189.09400828541666,64.0,61.0
589,188.70563806041665,189.62032421874997,55.0,58.0
590,188.19774081041666,189.76675889375,48.0,68.0
591,189.21497606041666,189.76888113541665,67.0,76.0
592,189.21497606041666,189.77524786041664,72.0,65.0
593,189.21497606041666,189.77949234374998,64.0,63.0
594,190.23365206041666,190.86820231874998,62.0,67.0
595,190.23365206041666,190.86820231874998,67.0,71.0
596,190.99765906041665,191.1207490770833,67.0,11.0
597,190.99765906041665,191.12499356041664,62.0,13.0
598,190.23365206041666,191.13136028541666,59.0,62.0
599,191.25232806041666,191.84018900208332,67.0,74.0
600,191.25232806041666,191.85504469375,59.0,65.0
601,191.25232806041666,191.86777814374997,62.0,74.0
602,190.23365206041666,192.00360161041664,43.0,73.0
603,191.76166606041664,192.19248111874998,55.0,58.0
604,190.74299006041664,192.23492595208333,50.0,58.0
605,192.27100406041666,192.75699740208333,69.0,53.0
606,193.03501106041665,193.1071672770833,69.0,35.0
607,192.27100406041666,193.1262674520833,64.0,35.0
608,192.27100406041666,193.15597883541665,60.0,55.0
609,193.28968006041666,193.81811823541665,69.0,74.0
610,192.78034206041664,193.83509616874997,52.0,61.0
611,193.28968006041666,193.84146289375,64.0,79.0
612,193.28968006041666,193.84782961874998,60.0,61.0
613,192.27100406041666,193.92423031874998,45.0,71.0
614,193.79901806041664,193.94120825208333,57.0,58.0
615,194.30835606041666,194.89621700208332,64.0,63.0
616,194.30835606041666,194.9025837270833,55.0,63.0
617,195.07236306041665,195.21030876875,55.0,10.0
618,194.30835606041666,195.2400201520833,59.0,61.0
619,194.81769406041664,195.68781314375,47.0,60.0
620,195.32703206041666,195.92974869374999,64.0,76.0
621,194.30835606041666,196.07193888541664,40.0,44.0
622,195.32703206041666,196.09316130208333,55.0,65.0
623,195.32703206041666,196.12287268541664,59.0,70.0
624,195.83637006041664,196.34995254375,47.0,63.0
625,196.34570806041665,197.2200716270833,57.0,54.0
626,196.34570806041665,197.2264383520833,60.0,48.0
627,196.85504606041664,197.85249964374998,48.0,57.0
628,196.34570806041665,197.86947757708333,41.0,79.0
629,197.36438406041665,197.89494447708333,57.0,68.0
630,197.36438406041665,197.89494447708333,65.0,77.0
631,197.36438406041665,197.90980016875,60.0,79.0
632,197.87372206041664,198.33637074375,53.0,61.0
633,198.38306006041665,199.03883273541666,72.0,65.0
634,199.14706706041665,199.20436758541666,72.0,10.0
635,198.38306006041665,199.25954586875,64.0,64.0
636,198.38306006041665,199.26803483541664,67.0,71.0
637,199.40173606041665,199.93441871874998,72.0,73.0
638,199.40173606041665,199.94927441041665,64.0,69.0
639,199.40173606041665,199.95351889375,67.0,85.0
640,198.38306006041665,200.06811994375,48.0,59.0
641,200.16574306041664,200.24851048541666,69.0,10.0
642,199.91107406041664,200.3270334270833,60.0,59.0
643,198.89239806041664,200.3525003270833,55.0,63.0
644,200.42041206041665,201.08042921875,74.0,70.0
645,200.42041206041665,201.12075181041666,69.0,70.0
646,201.18441906041664,201.26294200208332,74.0,44.0
647,201.18441906041664,201.30538683541664,69.0,36.0
648,200.42041206041665,201.33085373541664,65.0,65.0
649,200.92975006041664,201.91659243541665,57.0,59.0
650,201.43908806041665,201.98450416875,74.0,85.0
651,201.43908806041665,202.00148210208332,69.0,83.0
652,201.43908806041665,202.02058227708332,65.0,77.0
653,201.94842606041664,202.06302711041664,62.0,58.0
654,200.42041206041665,202.09910521874997,50.0,69.0
655,202.45776406041665,203.3766947020833,67.0,67.0
656,202.45776406041665,203.39155039374998,59.0,67.0
657,202.45776406041665,203.39367263541666,62.0,65.0
658,202.96710206041666,203.97304461041665,50.0,75.0
659,203.47644006041665,203.99851151041665,67.0,77.0
660,202.45776406041665,204.00275599375,43.0,76.0
661,203.47644006041665,204.00487823541664,62.0,74.0
662,203.47644006041665,204.00912271874998,59.0,67.0
663,203.98577806041666,204.41022639374998,55.0,54.0
664,204.49511606041665,205.40555773541666,72.0,76.0
665,204.49511606041665,205.43102463541666,64.0,72.0
666,204.49511606041665,205.43102463541666,67.0,86.0
667,205.00445406041666,206.05284144374997,55.0,70.0
668,205.51379206041665,206.07406386041666,72.0,77.0
669,205.51379206041665,206.09104179374998,67.0,86.0
670,205.51379206041665,206.11014196874999,64.0,73.0
671,206.02313006041666,206.1462200770833,60.0,64.0
672,204.49511606041665,206.32873286041666,48.0,69.0
673,206.53246806041665,207.41744283541664,67.0,74.0
674,206.53246806041665,207.4259318020833,59.0,68.0
675,206.53246806041665,207.43442076875,62.0,68.0
676,207.55114406041665,208.13263827708332,67.0,83.0
677,207.55114406041665,208.14537172708333,62.0,79.0
678,207.55114406041665,208.14749396874998,59.0,71.0
679,206.53246806041665,208.19206104375,43.0,63.0
680,208.06048206041666,208.48068591041664,55.0,58.0
681,207.04180606041666,208.50615281041667,50.0,60.0
682,208.56982006041665,209.4441836270833,69.0,66.0
683,208.56982006041665,209.46540604375,64.0,74.0
684,208.56982006041665,209.47177276875,60.0,64.0
685,209.58849606041665,210.13815665208332,69.0,74.0
686,209.58849606041665,210.14664561874997,64.0,83.0
687,209.07915806041666,210.15937906874998,52.0,63.0
688,209.58849606041665,210.15937906874998,60.0,72.0
689,210.09783406041666,210.2272908020833,57.0,59.0
690,208.56982006041665,210.33128064374998,45.0,68.0
691,210.60717206041664,211.4306018270833,64.0,60.0
692,210.60717206041664,211.46880217708332,55.0,73.0
693,210.60717206041664,211.47304666041666,59.0,74.0
694,211.62584806041664,212.20946451875,64.0,76.0
695,210.60717206041664,212.22644245208332,40.0,79.0
696,211.62584806041664,212.22856469374997,59.0,85.0
697,211.62584806041664,212.24342038541664,55.0,77.0
698,212.13518606041666,212.51294507708332,52.0,57.0
699,211.11651006041666,212.57449008541664,47.0,65.0
700,212.64452406041664,213.27907431875,65.0,83.0
701,212.64452406041664,213.50190969374998,57.0,64.0
702,212.64452406041664,213.5188876270833,60.0,74.0
703,213.15386206041666,214.20861616874998,48.0,67.0
704,212.64452406041664,214.21710513541666,41.0,76.0
705,213.66320006041664,214.23832755208332,65.0,67.0
706,213.66320006041664,214.25530548541664,60.0,75.0
707,213.66320006041664,214.25742772708332,57.0,71.0
708,214.17253806041666,214.6266977770833,53.0,60.0
709,214.68187606041664,215.30369286874998,64.0,58.0
710,215.44588306041666,215.56685083541666,64.0,35.0
711,214.68187606041664,215.59019549374997,59.0,55.0
712,214.68187606041664,215.59231773541666,55.0,63.0
713,215.70055206041664,216.22686799374998,64.0,74.0
714,215.70055206041664,216.24384592708333,59.0,72.0
715,215.70055206041664,216.25445713541666,55.0,67.0
716,215.19121406041666,216.29053524374999,47.0,76.0
717,216.20989006041665,216.36056921875,52.0,58.0
718,214.68187606041664,216.43696991874998,40.0,49.0
719,216.71922806041664,217.61056956041665,62.0,62.0
720,216.71922806041664,217.62966973541666,53.0,65.0
721,216.71922806041664,217.63603646041665,57.0,62.0
722,216.71922806041664,217.73790406041664,38.0,65.0
723,217.22856606041665,217.73790406041664,45.0,57.0
724,217.73790406041664,218.33637621041666,43.0,57.0
725,217.73790406041664,218.34910966041664,62.0,59.0
726,217.73790406041664,218.35335414374998,67.0,65.0
727,217.73790406041664,218.35547638541664,59.0,63.0
728,218.24724206041665,218.54223365208333,50.0,74.0
729,218.75658006041664,219.71158881041666,72.0,74.0
730,218.75658006041664,219.7137110520833,64.0,67.0
731,218.75658006041664,219.72220001875,67.0,77.0
732,219.26591806041665,219.81982313541664,55.0,67.0
733,219.77525606041667,219.87500141874997,72.0,69.0
734,219.77525606041667,219.88773486875,64.0,69.0
735,219.77525606041667,219.89622383541666,67.0,67.0
736,218.75658006041664,219.92593521875,48.0,68.0
737,220.28459406041665,221.67678459374997,64.0,74.0
738,220.28459406041665,221.70225149375,72.0,81.0
739,220.28459406041665,221.7064959770833,67.0,86.0
740,220.28459406041665,222.6042042020833,48.0,81.0
741,221.81260806041666,222.68272714375,64.0,87.0
742,221.81260806041666,222.68272714375,72.0,87.0
743,221.55793906041666,222.70394956041665,55.0,70.0
744,221.81260806041666,222.70819404374998,67.0,87.0
745,222.83128406041664,223.11990892708332,72.0,87.0
746,222.83128406041664,223.12415341041665,67.0,87.0
747,222.83128406041664,223.1326423770833,64.0,87.0
748,222.83128406041664,223.1517425520833,48.0,87.0
749,226.15766886666663,226.6005992333333,53.0,86.0
750,226.15128044791663,226.60272870624996,40.0,85.0
751,226.14915097499997,226.66022447499998,57.0,85.0
752,226.54736241041664,226.84761809166665,59.0,84.0
753,226.56226872083332,226.85826545624997,56.0,84.0
754,226.56226872083332,226.9008549145833,44.0,84.0
755,226.91789069791665,227.93790822499997,60.0,84.0
756,226.91789069791665,227.94003769791664,64.0,84.0
757,226.91789069791665,227.9485555895833,57.0,84.0
758,226.91789069791665,227.9804976833333,45.0,84.0
759,228.96218469791663,229.8203622833333,64.0,76.0
760,228.96218469791663,229.82249175624997,55.0,69.0
761,228.96218469791663,229.83526859374996,59.0,63.0
762,228.96218469791663,229.96942538749997,52.0,58.0
763,229.98433169791664,230.6125262083333,64.0,73.0
764,229.98433169791664,230.6316914645833,55.0,76.0
765,229.98433169791664,230.63382093749996,59.0,74.0
766,228.96218469791663,230.78927246041664,40.0,61.0
767,230.75094194791663,230.8361208645833,59.0,58.0
768,230.23986844791665,230.84676822916663,52.0,60.0
769,230.75094194791663,230.86380401249997,55.0,59.0
770,228.96218469791663,230.9638892395833,47.0,75.0
771,231.00647869791663,231.84974997291664,65.0,79.0
772,231.00647869791663,231.87317417499997,60.0,79.0
773,231.00647869791663,231.87956259374997,57.0,64.0
774,231.00647869791663,232.5098865770833,41.0,77.0
775,231.51755219791664,232.53331077916664,48.0,70.0
776,232.02862569791665,232.57590023749998,60.0,86.0
777,232.02862569791665,232.57802971041664,65.0,90.0
778,232.02862569791665,232.58228865624997,57.0,76.0
779,232.53969919791663,233.01031271249997,53.0,62.0
780,233.05077269791664,233.7364629770833,72.0,77.0
781,233.81738294791663,233.93024501249997,72.0,32.0
782,233.05077269791664,233.94302184999998,64.0,72.0
783,233.05077269791664,233.94302184999998,67.0,83.0
784,233.05077269791664,234.5861226708333,48.0,63.0
785,234.07291969791663,234.6180647645833,67.0,85.0
786,234.07291969791663,234.62019423749996,72.0,85.0
787,234.07291969791663,234.6308416020833,64.0,85.0
788,234.83952994791665,234.8927667708333,74.0,36.0
789,234.83952994791665,234.94600359374996,69.0,36.0
790,234.83952994791665,234.99711094374996,65.0,49.0
791,234.58399319791664,235.0269235645833,60.0,55.0
792,233.56184619791662,235.02905303749998,55.0,66.0
793,235.09506669791665,235.7807569770833,74.0,85.0
794,235.86167694791664,235.9468558645833,74.0,11.0
795,235.09506669791665,235.98944532291665,65.0,74.0
796,235.09506669791665,235.99157479583332,69.0,81.0
797,236.11721369791664,236.7070776958333,74.0,85.0
798,236.11721369791664,236.7134661145833,69.0,85.0
799,236.11721369791664,236.72411347916665,65.0,85.0
800,236.62828719791665,236.74753768124998,62.0,58.0
801,235.60614019791663,236.75605557291664,57.0,61.0
802,235.09506669791665,236.84336396249998,50.0,71.0
803,237.13936069791663,237.88467621874997,67.0,77.0
804,237.13936069791663,237.88680569166664,62.0,68.0
805,237.90597094791664,238.02522143124997,67.0,44.0
806,237.90597094791664,238.0358687958333,62.0,36.0
807,237.13936069791663,238.10827087499996,59.0,65.0
808,238.41704444791662,238.58527280833331,55.0,60.0
809,237.13936069791663,238.5980496458333,43.0,63.0
810,238.16150769791665,238.7513716958333,59.0,79.0
811,238.16150769791665,238.75988958749997,62.0,85.0
812,238.16150769791665,238.76201906041663,67.0,87.0
813,237.65043419791664,238.7641485333333,50.0,69.0
814,238.67258119791663,239.15171260416665,55.0,68.0
815,239.18365469791664,240.07164490416665,72.0,80.0
816,239.18365469791664,240.07803332291664,64.0,80.0
817,239.18365469791664,240.08442174166663,67.0,80.0
818,240.20580169791663,240.71687519791664,64.0,80.0
819,240.46133844791663,240.74242887291663,60.0,61.0
820,239.69472819791665,240.75094676458332,55.0,63.0
821,240.20580169791663,240.8723267208333,72.0,80.0
822,239.18365469791664,240.88084461249997,48.0,80.0
823,240.71687519791664,240.90213934166664,64.0,47.0
824,240.20580169791663,240.94259932708331,67.0,80.0
825,241.22794869791664,241.37488232916664,59.0,77.0
826,241.22794869791664,241.7603169270833,67.0,65.0
827,241.22794869791664,241.78800007499996,62.0,81.0
828,242.25009569791663,242.8271828583333,67.0,84.0
829,242.25009569791663,242.8399596958333,59.0,84.0
830,242.25009569791663,242.84847758749999,62.0,84.0
831,241.22794869791664,242.9741164895833,43.0,77.0
832,242.76116919791664,243.1529922145833,55.0,88.0
833,241.73902219791663,243.18280483541665,50.0,64.0
834,243.27224269791662,243.96858034166664,69.0,73.0
835,244.03885294791664,244.1495855395833,69.0,14.0
836,243.27224269791662,244.16449184999996,64.0,76.0
837,243.27224269791662,244.16875079583332,60.0,68.0
838,244.29438969791664,244.85444107499995,69.0,82.0
839,244.29438969791664,244.86295896666664,64.0,82.0
840,244.29438969791664,244.87573580416665,60.0,82.0
841,243.78331619791663,244.9098073708333,52.0,64.0
842,244.80546319791665,244.92684315416665,57.0,82.0
843,243.27224269791662,245.01415154374996,45.0,76.0
844,245.31653669791663,245.9255659520833,64.0,74.0
845,245.31653669791663,246.2066563770833,55.0,67.0
846,245.31653669791663,246.2130447958333,59.0,75.0
847,246.33868369791662,246.9093824395833,64.0,71.0
848,246.33868369791662,246.92428874999996,55.0,86.0
849,246.33868369791662,246.93067716874998,59.0,79.0
850,245.31653669791663,247.1393655145833,40.0,67.0
851,247.10529394791664,247.22028548541664,57.0,45.0
852,246.84975719791663,247.2799107270833,52.0,60.0
853,245.82761019791664,247.34592438749996,47.0,76.0
854,247.36083069791664,248.2253967020833,65.0,77.0
855,247.36083069791664,248.23391459374997,57.0,71.0
856,247.36083069791664,248.24243248541663,60.0,77.0
857,247.36083069791664,248.92599329166663,41.0,77.0
858,248.38297769791663,248.9600648583333,65.0,82.0
859,248.38297769791663,248.97071222291663,57.0,82.0
860,248.38297769791663,248.97071222291663,60.0,82.0
861,247.87190419791665,248.9728416958333,48.0,76.0
862,248.89405119791664,249.4839151958333,53.0,60.0
863,249.40512469791665,250.28459701249997,72.0,72.0
864,249.40512469791665,250.2952443770833,64.0,68.0
865,249.40512469791665,250.31015068749997,67.0,77.0
866,249.40512469791665,250.99371149374997,48.0,63.0
867,250.42727169791664,251.02139464166663,72.0,76.0
868,250.42727169791664,251.0490777895833,67.0,76.0
869,250.42727169791664,251.05120726249996,64.0,76.0
870,251.19388194791662,251.33868610624998,69.0,15.0
871,250.93834519791665,251.3621103083333,60.0,62.0
872,251.19388194791662,251.3621103083333,65.0,47.0
873,249.91619819791663,251.4259944958333,55.0,64.0
874,251.44941869791663,251.93919746874997,74.0,77.0
875,251.44941869791663,251.94984483333332,69.0,77.0
876,251.44941869791663,251.96475114374996,65.0,77.0
877,251.44941869791663,251.97965745416664,50.0,77.0
878,252.47156569791665,252.98902761666665,43.0,67.0
879,252.47156569791665,253.04439391249997,59.0,67.0
880,252.47156569791665,253.05291180416663,62.0,67.0
881,252.47156569791665,253.05717074999995,67.0,67.0
882,255.2015499770833,255.4251446333333,81.0,60.0
883,253.49371269791664,255.47412251041663,65.0,65.0
884,255.38468464791663,255.51245302291665,83.0,68.0
885,255.53587722499998,255.90853498541662,84.0,79.0
886,255.86807499999998,256.17471909999995,83.0,70.0
887,256.149165425,256.49414003749996,81.0,65.0
888,256.4792337270833,256.8348557041666,83.0,73.0
889,256.8029136104166,257.12872296666666,81.0,59.0
890,257.14149980416664,257.54822913124997,74.0,68.0
891,257.58230069791665,261.67088869791667,76.0,84.0
892,255.28246994791664,262.19260956249997,48.0,47.0
893,255.53800669791664,262.29482426249996,65.0,74.0
894,253.49371269791664,262.34593161249995,57.0,63.0
895,255.53800669791664,262.35232003125,53.0,58.0
896,253.49371269791664,262.35232003125,60.0,59.0
897,253.49371269791664,262.4140747458333,41.0,60.0
