,start,end,pitch,velocity
0,25.4617764375,25.788209468749997,67.0,87.0
1,25.8439419375,26.218145656249998,72.0,99.0
2,26.226107437499998,26.619419431249998,67.0,97.0
3,26.6082729375,27.2452154375,74.0,100.0
4,27.3726039375,27.7292917375,72.0,96.0
5,27.7547694375,28.03024706875,69.0,97.0
6,28.136934937499998,28.42833613125,76.0,101.0
7,28.5191004375,28.781839218749997,74.0,99.0
8,28.9012659375,29.184705349999998,72.0,98.0
9,29.2834314375,29.593940906249998,69.0,97.0
10,29.6655969375,30.99362205,67.0,91.0
11,31.1942589375,31.617825699999997,72.0,92.0
12,31.767507187499998,32.1496726875,74.0,100.0
13,32.3407554375,32.58438594375,72.0,97.0
14,32.7229209375,33.19903545625,71.0,98.0
15,33.2961691875,33.74043658125,69.0,96.0
16,33.8694174375,34.184703975,67.0,97.0
17,34.2515829375,34.6241943,69.0,96.0
18,34.633748437499996,36.35190083125,67.0,91.0
19,37.6910724375,37.95381121875,67.0,96.0
20,38.0732379375,38.418779243749995,72.0,96.0
21,38.455403437499996,38.785021181249995,67.0,97.0
22,38.837568937499995,39.44107195625,74.0,98.0
23,39.6018999375,39.91081705,72.0,99.0
24,39.9840654375,40.286613124999995,79.0,97.0
25,40.3662309375,40.62260029375,76.0,97.0
26,40.7483964375,40.984065162499995,74.0,99.0
27,41.1305619375,41.4808803125,72.0,98.0
28,41.5127274375,41.77546621875,69.0,97.0
29,41.894892937499996,43.34871419375,67.0,98.0
30,43.4235549375,43.8948923875,72.0,100.0
31,43.9968031875,44.45062471875,74.0,98.0
32,44.5700514375,44.842344356249995,72.0,98.0
33,44.9522169375,45.44425501875,71.0,97.0
34,45.5254651875,46.0891593,69.0,97.0
35,46.098713437499995,46.449031812499996,67.0,94.0
36,46.480878937499995,48.62578280625,69.0,96.0
37,48.7738719375,49.0859737625,69.0,97.0
38,49.1560374375,49.49520931875,67.0,93.0
39,49.538202937499996,50.0541263625,65.0,96.0
40,50.111451187499995,50.592342775,72.0,99.0
41,50.6846994375,51.022278962499996,65.0,98.0
42,51.0668649375,51.684699162499996,72.0,100.0
43,51.8311959375,52.085972937499996,74.0,98.0
44,52.2133614375,52.44584545,76.0,97.0
45,52.5955269375,53.04934846875,71.0,97.0
46,53.168775187499996,53.6337432125,69.0,97.0
47,53.742023437499995,54.041386412499996,69.0,95.0
48,54.124188937499994,54.7515773,67.0,97.0
49,54.8885199375,55.159220499999996,69.0,96.0
50,55.2706854375,55.541385999999996,67.0,97.0
51,55.6528509375,56.16081258125,65.0,99.0
52,56.2260991875,56.70062135,72.0,98.0
53,56.799347437499996,57.093933343749995,65.0,100.0
54,57.181512937499996,57.754761187499994,72.0,100.0
55,57.754761187499994,57.87100319375,72.0,97.0
56,57.9458439375,58.192659156249995,74.0,98.0
57,58.3280094375,58.595525287499996,76.0,97.0
58,58.7101749375,60.39966491875,71.0,97.0
59,61.003167937499995,61.27227614375,74.0,100.0
60,61.385333437499995,61.65444164375,72.0,99.0
61,61.7674989375,62.222912824999995,69.0,98.0
62,62.3407471875,62.851893543749995,69.0,100.0
63,62.9139954375,63.2069889875,76.0,96.0
64,63.2961609375,63.93151108125,74.0,102.0
65,64.0604919375,64.31367658125,72.0,101.0
66,64.4426574375,64.73087391874999,74.0,102.0
67,64.8248229375,65.09074643125,76.0,100.0
68,65.2069884375,65.3280075125,74.0,97.0
69,65.3980711875,65.95221116249999,72.0,98.0
70,65.9713194375,66.27864419375,71.0,97.0
71,66.3534849375,67.01112806875,69.0,98.0
72,67.1178159375,67.39966299375,72.0,97.0
73,67.4999814375,67.81686033125,71.0,98.0
74,67.8821469375,68.57800661875,69.0,100.0
75,68.6464779375,69.11940774375,76.0,100.0
76,69.2197261875,70.0031654625,74.0,102.0
77,70.17513993749999,70.46654113125,72.0,98.0
78,70.55730543749999,70.859853125,74.0,98.0
79,70.93947093749999,71.40284660625,76.0,98.0
80,71.3216364375,71.61622234375,74.0,100.0
81,71.7038019375,71.85985285,72.0,97.0
82,71.8948846875,72.34392915,74.0,101.0
83,72.4681329375,73.114629575,76.0,97.0
84,73.2324639375,73.47927915625,74.0,97.0
85,73.6146294375,73.89329178125,72.0,99.0
86,73.9967949375,74.57004318749999,69.0,98.0
87,74.57004318749999,75.02545707499999,69.0,101.0
88,75.1432914375,75.44424676874999,76.0,98.0
89,75.5254569375,76.24042489375,74.0,105.0
90,76.2897879375,76.54934200625,72.0,98.0
91,76.6719534375,76.90762216249999,74.0,101.0
92,77.0541189375,77.39329081875,76.0,97.0
93,77.43628443749999,77.624182475,79.0,92.0
94,77.81844993749999,78.20061543749999,74.0,102.0
95,78.20061543749999,78.53023318125,72.0,100.0
96,78.58278093749999,79.04297189374999,69.0,96.0
97,79.3471119375,79.6178125,69.0,97.0
98,79.7292774375,80.0286404125,67.0,91.0
99,80.1114429375,80.554117975,65.0,100.0
100,80.6846911875,81.178321625,69.0,98.0
101,81.2579394375,81.53660178125,72.0,98.0
102,81.6401049375,82.07481819374999,71.0,97.0
103,82.21335318749999,82.75316195625,69.0,96.0
104,82.7866014375,83.1369198125,67.0,97.0
105,83.1687669375,86.09711008125,69.0,98.0
106,95.7802284375,96.10666146874999,67.0,87.0
107,96.1623939375,96.53659765625,72.0,99.0
108,96.5445594375,96.93787143125,67.0,97.0
109,96.9267249375,97.5636674375,74.0,100.0
110,97.6910559375,98.0477437375,72.0,96.0
111,98.0732214375,98.34869906875,69.0,97.0
112,98.4553869375,98.74678813125,76.0,101.0
113,98.8375524375,99.10029121875,74.0,99.0
114,99.2197179375,99.50315735,72.0,98.0
115,99.60188343749999,99.91239290624999,69.0,97.0
116,99.98404893749999,101.31207404999999,67.0,91.0
117,101.51271093749999,101.93627769999999,72.0,92.0
118,102.0859591875,102.4681246875,74.0,100.0
119,102.6592074375,102.90283794375,72.0,97.0
120,103.0413729375,103.51748745625,71.0,98.0
121,103.61462118749999,104.05888858125,69.0,96.0
122,104.1878694375,104.503155975,67.0,97.0
123,104.5700349375,104.94264629999999,69.0,96.0
124,104.9522004375,106.67035283125,67.0,91.0
125,108.00952443749999,108.27226321875,67.0,96.0
126,108.39168993749999,108.73723124374999,72.0,96.0
127,108.77385543749999,109.10347318125,67.0,97.0
128,109.15602093749999,109.75952395624999,74.0,98.0
129,109.9203519375,110.22926905,72.0,99.0
130,110.3025174375,110.605065125,79.0,97.0
131,110.6846829375,110.94105229374999,76.0,97.0
132,111.0668484375,111.3025171625,74.0,99.0
133,111.4490139375,111.7993323125,72.0,98.0
134,111.8311794375,112.09391821874999,69.0,97.0
135,112.2133449375,113.66716619374999,67.0,98.0
136,113.7420069375,114.2133443875,72.0,100.0
137,114.3152551875,114.76907671875,74.0,98.0
138,114.88850343749999,115.16079635624999,72.0,98.0
139,115.27066893749999,115.76270701874999,71.0,97.0
140,115.8439171875,116.4076113,69.0,97.0
141,116.41716543749999,116.76748381249999,67.0,94.0
142,116.79933093749999,118.94423480625,69.0,96.0
143,119.0923239375,119.4044257625,69.0,97.0
144,119.4744894375,119.81366131875,67.0,93.0
145,119.8566549375,120.3725783625,65.0,96.0
146,120.42990318749999,120.910794775,72.0,99.0
147,121.0031514375,121.34073096249999,65.0,98.0
148,121.3853169375,122.00315116249999,72.0,100.0
149,122.14964793749999,122.4044249375,74.0,98.0
150,122.53181343749999,122.76429745,76.0,97.0
151,122.91397893749999,123.36780046874999,71.0,97.0
152,123.4872271875,123.9521952125,69.0,97.0
153,124.06047543749999,124.3598384125,69.0,95.0
154,124.4426409375,125.0700293,67.0,97.0
155,125.2069719375,125.4776725,69.0,96.0
156,125.5891374375,125.859838,67.0,97.0
157,125.9713029375,126.47926458124999,65.0,99.0
158,126.54455118749999,127.01907335,72.0,98.0
159,127.1177994375,127.41238534374999,65.0,100.0
160,127.4999649375,128.0732131875,72.0,100.0
161,128.0732131875,128.18945519375,72.0,97.0
162,128.2642959375,128.51111115625,74.0,98.0
163,128.6464614375,128.9139772875,76.0,97.0
164,129.0286269375,130.71811691874998,71.0,97.0
165,131.3216199375,131.59072814375,74.0,100.0
166,131.7037854375,131.97289364374998,72.0,99.0
167,132.0859509375,132.541364825,69.0,98.0
168,132.6591991875,133.17034554375,69.0,100.0
169,133.23244743749999,133.5254409875,76.0,96.0
170,133.6146129375,134.24996308125,74.0,102.0
171,134.3789439375,134.63212858125,72.0,101.0
172,134.76110943749998,135.04932591875,74.0,102.0
173,135.1432749375,135.40919843125,76.0,100.0
174,135.52544043749998,135.6464595125,74.0,97.0
175,135.7165231875,136.2706631625,72.0,98.0
176,136.2897714375,136.59709619375,71.0,97.0
177,136.6719369375,137.32958006875,69.0,98.0
178,137.4362679375,137.71811499375,72.0,97.0
179,137.8184334375,138.13531233125,71.0,98.0
180,138.2005989375,138.89645861875,69.0,100.0
181,138.9649299375,139.43785974374998,76.0,100.0
182,139.5381781875,140.3216174625,74.0,102.0
183,140.49359193749999,140.78499313125,72.0,98.0
184,140.8757574375,141.17830512499998,74.0,98.0
185,141.25792293749998,141.72129860625,76.0,98.0
186,141.6400884375,141.93467434375,74.0,100.0
187,142.02225393749998,142.17830485,72.0,97.0
188,142.2133366875,142.66238115,74.0,101.0
189,142.78658493749998,143.433081575,76.0,97.0
190,143.5509159375,143.79773115625,74.0,97.0
191,143.9330814375,144.21174378125,72.0,99.0
192,144.3152469375,144.88849518749998,69.0,98.0
193,144.88849518749998,145.343909075,69.0,101.0
194,145.4617434375,145.76269876875,76.0,98.0
195,145.8439089375,146.55887689374998,74.0,105.0
196,146.6082399375,146.86779400625,72.0,98.0
197,146.9904054375,147.2260741625,74.0,101.0
198,147.3725709375,147.71174281875,76.0,97.0
199,147.7547364375,147.942634475,79.0,92.0
200,148.1369019375,148.51906743749998,74.0,102.0
201,148.51906743749998,148.84868518125,72.0,100.0
202,148.9012329375,149.36142389375,69.0,96.0
203,149.6655639375,149.9362645,69.0,97.0
204,150.04772943749998,150.3470924125,67.0,91.0
205,150.4298949375,150.872569975,65.0,100.0
206,151.0031431875,151.496773625,69.0,98.0
207,151.5763914375,151.85505378125,72.0,98.0
208,151.9585569375,152.39327019375,71.0,97.0
209,152.5318051875,153.07161395625,69.0,96.0
210,153.1050534375,153.4553718125,67.0,97.0
211,153.4872189375,156.41556208125,69.0,98.0
212,177.18848542499998,177.45845341875,74.0,100.0
213,177.57187192499998,177.84183991875,72.0,99.0
214,177.95525842499998,178.4111251,69.0,98.0
215,178.52895946249998,179.04010581874996,69.0,100.0
216,179.1022077125,179.39520126249997,76.0,96.0
217,179.48437321249997,180.11972335624998,74.0,102.0
218,180.24870421249997,180.50188885625,72.0,101.0
219,180.6308697125,180.91908619375,74.0,102.0
220,181.01303521249997,181.27895870624997,76.0,100.0
221,181.39520071249999,181.51621978749998,74.0,97.0
222,181.58628346249998,182.14042343749998,72.0,98.0
223,182.15953171249998,182.46685646874997,71.0,97.0
224,182.54169721249997,183.19934034374998,69.0,98.0
225,183.30602821249997,183.58787526874997,72.0,97.0
226,183.68819371249998,184.00507260624997,71.0,98.0
227,184.07035921249997,184.76621889374996,69.0,100.0
228,184.83469021249996,185.30762001875,76.0,100.0
229,185.40793846249997,186.19137773749998,74.0,102.0
230,186.3633522125,186.65475340624997,72.0,98.0
231,186.74551771249998,187.04806539999998,74.0,98.0
232,187.1276832125,187.59105888124998,76.0,98.0
233,187.50984871249997,187.80443461874998,74.0,100.0
234,187.8920142125,188.04806512499997,72.0,97.0
235,188.08309696249998,188.53214142499996,74.0,101.0
236,188.65634521249999,189.30284185,76.0,97.0
237,189.42067621249998,189.66749143124997,74.0,97.0
238,189.80284171249997,190.08150405624997,72.0,99.0
239,190.18500721249998,190.7582554625,69.0,98.0
240,190.7582554625,191.21366934999998,69.0,101.0
241,191.33150371249997,191.63245904374998,76.0,98.0
242,191.71366921249998,192.42863716875,74.0,105.0
243,192.47800021249998,192.73755428124997,72.0,98.0
244,192.86016571249996,193.09583443749997,74.0,101.0
245,193.24233121249998,193.58150309374997,76.0,97.0
246,193.6244967125,193.81239474999998,79.0,92.0
247,194.00666221249998,194.3888277125,74.0,102.0
248,194.3888277125,194.71844545624998,72.0,100.0
249,194.77099321249997,195.23118416874996,69.0,96.0
250,195.53532421249997,195.80602477499997,69.0,97.0
251,195.9174897125,196.21685268749997,67.0,91.0
252,196.29965521249997,196.74233024999998,65.0,100.0
253,196.87290346249998,197.36653389999998,69.0,98.0
254,197.44615171249998,197.72481405624998,72.0,98.0
255,197.82831721249997,198.26303046874997,71.0,97.0
256,198.40156546249997,198.94137423124997,69.0,96.0
257,198.97481371249998,199.32513208749998,67.0,97.0
258,199.3569792125,201.45888946249997,69.0,98.0
259,201.6499722125,201.91908041874999,74.0,100.0
260,202.03213771249997,202.30124591874997,72.0,99.0
261,202.4143032125,202.86971709999997,69.0,98.0
262,202.98755146249997,203.49869781874997,69.0,100.0
263,203.56079971249997,203.85379326249998,76.0,96.0
264,203.94296521249998,204.57831535625,74.0,102.0
265,204.70729621249998,204.96048085624997,72.0,101.0
266,205.08946171249997,205.37767819374997,74.0,102.0
267,205.47162721249998,205.73755070624998,76.0,100.0
268,205.85379271249997,205.9748117875,74.0,97.0
269,206.0448754625,206.5990154375,72.0,98.0
270,206.61812371249997,206.92544846874998,71.0,97.0
271,207.00028921249998,207.65793234374996,69.0,98.0
272,207.76462021249998,208.04646726874998,72.0,97.0
273,208.1467857125,208.46366460624998,71.0,98.0
274,208.52895121249998,209.22481089374998,69.0,100.0
275,209.29328221249997,209.76621201874997,76.0,100.0
276,209.86653046249998,210.6499697375,74.0,102.0
277,210.82194421249997,211.11334540624998,72.0,98.0
278,211.20410971249999,211.5066574,74.0,98.0
279,211.58627521249997,212.04965088125,76.0,98.0
280,211.96844071249998,212.26302661874996,74.0,100.0
281,212.35060621249997,212.50665712499998,72.0,97.0
282,212.54168896249996,212.99073342499997,74.0,101.0
283,213.11493721249997,213.76143384999997,76.0,97.0
284,213.8792682125,214.12608343124998,74.0,97.0
285,214.26143371249998,214.54009605624998,72.0,99.0
286,214.64359921249996,215.21684746249997,69.0,98.0
287,215.21684746249997,215.67226134999999,69.0,101.0
288,215.79009571249998,216.09105104374999,76.0,98.0
289,216.17226121249996,216.88722916874997,74.0,105.0
290,216.9365922125,217.19614628124998,72.0,98.0
291,217.31875771249997,217.55442643749998,74.0,101.0
292,217.7009232125,218.04009509374998,76.0,97.0
293,218.08308871249997,218.27098674999996,79.0,92.0
294,218.46525421249999,218.84741971249997,81.0,102.0
295,218.84741971249997,219.17703745625,79.0,100.0
296,219.22958521249998,219.61175071249997,72.0,96.0
297,219.61175071249997,221.14041271249997,69.0,97.0
298,221.57194125624997,221.88563543749999,69.0,96.0
299,221.9748073875,222.35697288749998,67.0,94.0
300,222.47639960624997,223.09741854374997,65.0,97.0
301,223.21843761875,223.61493432499998,69.0,98.0
302,223.72958397499997,224.08786413124997,72.0,100.0
303,224.22321441249997,224.84423334999997,71.0,97.0
304,224.82830978749996,225.4525134375,69.0,96.0
305,225.44773636875,225.90633496874997,67.0,91.0
306,225.869710775,227.76939178124996,69.0,100.0
307,227.85219430624997,228.18181204999996,69.0,90.0
308,228.18818147499996,228.44455083124998,67.0,86.0
309,228.56397754999998,229.14744890833333,65.0,92.0
310,229.14117931666667,229.70387516875,69.0,93.0
311,229.70230777083333,230.15215097291664,72.0,96.0
312,230.0972920458333,230.94642588333332,74.0,98.0
313,230.84796455,231.526424675,71.0,94.0
314,231.517193925,232.24334625833333,67.0,88.0
315,232.19719250833333,234.60827919583332,69.0,96.0
