,start,end,pitch,velocity
0,0.6210189374999999,2.01433065625,41.0,94.0
1,0.8121016875,2.0270695062499997,48.0,85.0
2,1.0031844374999999,2.1560503625,53.0,88.0
3,1.1942671875,2.1910822,57.0,91.0
4,2.1496809375,3.51751495625,43.0,92.0
5,2.5318464375,3.54299265625,55.0,90.0
6,2.3407636875,3.54617736875,50.0,87.0
7,2.7229291874999997,3.6305722499999997,62.0,94.0
8,3.6783429374999996,5.0621005187499994,45.0,95.0
9,3.8694256874999997,5.085985862499999,52.0,90.0
10,4.0605084375,5.404457112499999,57.0,89.0
11,4.2515911875,5.5382150375,64.0,96.0
12,5.2070049375,5.8519092187499995,45.0,95.0
13,5.5891704375,6.035030187499999,57.0,90.0
14,5.3980876874999995,6.0461766812499995,52.0,89.0
15,5.7802531875,6.3216543125,64.0,97.0
16,5.9713359375,6.6146478625,43.0,96.0
17,6.1624186875,6.6178325749999996,52.0,94.0
18,6.353501437499999,6.66719561875,55.0,95.0
19,6.5445841875,6.91241848125,64.0,97.0
20,6.7356669375,8.15764106875,41.0,95.0
21,6.9267496875,8.18948819375,48.0,80.0
22,7.1178324375,8.26910600625,53.0,89.0
23,7.308915187499999,8.286621925,60.0,88.0
24,8.4554116875,9.652863587499999,50.0,85.0
25,8.2643289375,9.662417725,43.0,92.0
26,8.837577187499999,9.70859605625,62.0,93.0
27,8.6464944375,9.71974255,55.0,92.0
28,9.9840736875,11.1050924875,52.0,83.0
29,9.792990937499999,11.136939612499999,48.0,96.0
30,10.1751564375,11.337576499999999,55.0,90.0
31,10.3662391875,11.3662389125,60.0,94.0
32,11.3216529375,12.7229264375,40.0,97.0
33,11.5127356875,12.7484041375,47.0,82.0
34,11.703818437499999,12.83916844375,52.0,96.0
35,11.8949011875,12.86783085625,56.0,96.0
36,12.2770666875,12.937894531249999,59.0,92.0
37,12.8503149375,14.226110737499999,41.0,88.0
38,13.0413976875,14.238849587499999,48.0,92.0
39,13.2324804375,14.334390962499999,53.0,89.0
40,13.4235631875,14.388531075,57.0,94.0
41,13.8057286875,14.412416418749999,60.0,93.0
42,14.3789769375,15.756365093749999,43.0,87.0
43,14.570059687499999,15.778658081249999,50.0,90.0
44,14.7611424375,15.8757918125,55.0,91.0
45,14.9522251875,15.942670775,59.0,92.0
46,15.9076389375,17.31368950625,45.0,96.0
47,16.0987216875,17.3216512875,52.0,90.0
48,16.2898044375,17.6719696625,57.0,86.0
49,16.4808871875,17.8248358625,60.0,95.0
50,16.863052687499998,17.840759424999998,64.0,94.0
51,17.4363009375,18.0636893,45.0,96.0
52,17.6273836875,18.25317969375,52.0,90.0
53,17.8184664375,18.30095038125,57.0,88.0
54,18.0095491875,18.598720999999998,60.0,97.0
55,18.2006319375,18.8184661625,43.0,95.0
56,18.3917146875,18.83598208125,52.0,90.0
57,18.773880187499998,18.982478856249998,60.0,95.0
58,18.5827974375,18.984071212499998,55.0,97.0
59,18.964962937499998,20.39330649375,38.0,98.0
60,19.1560456875,20.401268275,45.0,85.0
61,19.3471284375,20.484070799999998,50.0,89.0
62,19.5382111875,20.53024913125,57.0,91.0
63,19.9203766875,20.67356119375,62.0,91.0
64,20.684707687499998,21.8853443,50.0,89.0
65,20.493624937499998,21.89330608125,43.0,96.0
66,20.875790437499997,21.95381561875,55.0,88.0
67,21.0668731875,21.99203216875,62.0,93.0
68,22.2133696875,23.058910856249998,52.0,86.0
69,22.404452437499998,23.26591716875,57.0,86.0
70,22.0222869375,23.433114574999998,45.0,96.0
71,23.1687834375,23.460184631249998,52.0,86.0
72,23.3598661875,23.6910762875,57.0,89.0
73,22.595535187499998,23.80413358125,62.0,89.0
74,23.5509489375,25.039802031249998,45.0,98.0
75,23.7420316875,25.04298674375,52.0,87.0
76,23.9331144375,25.0541332375,57.0,88.0
77,24.1241971875,25.0700568,60.0,92.0
78,25.0796109375,25.55572545625,57.0,87.0
79,25.0796109375,25.73406935625,60.0,90.0
80,25.4617764375,26.041394112499997,52.0,85.0
81,25.0796109375,26.095534224999998,45.0,97.0
82,25.6528591875,26.103496006249998,57.0,92.0
83,26.035024687499998,26.1401202,60.0,85.0
84,26.6082729375,27.036616768749997,53.0,89.0
85,26.6082729375,27.20540653125,57.0,90.0
86,27.1815211875,27.62578858125,53.0,91.0
87,26.9904384375,27.638527431249997,48.0,85.0
88,26.6082729375,27.6592280625,41.0,96.0
89,27.5636866875,27.6847057625,57.0,87.0
90,28.136934937499998,28.541393425,55.0,90.0
91,28.136934937499998,28.74362266875,59.0,90.0
92,28.7101831875,29.165597074999997,55.0,98.0
93,29.0923486875,29.242030175,59.0,92.0
94,28.5191004375,29.254769024999998,50.0,85.0
95,28.136934937499998,29.280246724999998,43.0,97.0
96,29.6655969375,29.8885268125,55.0,94.0
97,29.6655969375,30.00795353125,48.0,92.0
98,29.6655969375,30.12260318125,60.0,93.0
99,30.047762437499998,30.388526674999998,55.0,98.0
100,30.4299279375,30.847125275,40.0,97.0
101,30.4299279375,31.09075578125,64.0,96.0
102,31.1942589375,31.609863918749998,53.0,87.0
103,31.1942589375,31.835978506249997,60.0,92.0
104,31.767507187499998,32.23088285625,53.0,98.0
105,31.5764244375,32.347124862499996,48.0,85.0
106,31.1942589375,32.3662331375,41.0,96.0
107,32.1496726875,32.538207612499995,57.0,96.0
108,32.7229209375,33.1464877,55.0,92.0
109,32.7229209375,33.2579526375,59.0,94.0
110,33.2961691875,33.706997099999995,55.0,100.0
111,33.6783346875,33.918780481249996,59.0,97.0
112,33.1050864375,34.0891626,50.0,84.0
113,32.7229209375,34.13215621875,43.0,96.0
114,33.8694174375,34.15126449375,55.0,94.0
115,34.2515829375,34.66400320625,55.0,92.0
116,34.2515829375,34.877378943749996,60.0,90.0
117,34.824831187499996,35.2324743875,55.0,97.0
118,35.2069966875,35.2324743875,55.0,97.0
119,34.2515829375,35.331200474999996,48.0,94.0
120,34.633748437499996,35.331200474999996,52.0,84.0
121,35.2069966875,35.453811906249996,60.0,93.0
122,35.7802449375,36.07801555625,52.0,94.0
123,35.7802449375,36.09393911875,59.0,94.0
124,35.7802449375,36.149671587499995,40.0,98.0
125,36.5445759375,37.26113625,56.0,89.0
126,36.5445759375,37.280244525,44.0,96.0
127,36.5445759375,37.28820630625,59.0,91.0
128,37.3089069375,37.78502145625,57.0,87.0
129,37.3089069375,37.96336535625,60.0,90.0
130,37.6910724375,38.2706901125,52.0,85.0
131,37.3089069375,38.324830225,45.0,97.0
132,37.8821551875,38.332792006249996,57.0,92.0
133,38.264320687499996,38.369416199999996,60.0,85.0
134,38.837568937499995,39.26591276875,53.0,89.0
135,38.837568937499995,39.43470253125,57.0,90.0
136,39.4108171875,39.85508458125,53.0,91.0
137,39.2197344375,39.867823431249995,48.0,85.0
138,38.837568937499995,39.8885240625,41.0,96.0
139,39.7929826875,39.9140017625,57.0,87.0
140,40.3662309375,40.770689425,55.0,90.0
141,40.3662309375,40.97291866875,59.0,90.0
142,40.9394791875,41.394893075,55.0,98.0
143,41.3216446875,41.471326175,59.0,92.0
144,40.7483964375,41.484065025,50.0,85.0
145,40.3662309375,41.509542724999996,43.0,97.0
146,41.894892937499996,42.1178228125,55.0,94.0
147,41.894892937499996,42.23724953125,48.0,92.0
148,41.894892937499996,42.35189918125,60.0,93.0
149,42.277058437499996,42.617822675,55.0,98.0
150,42.659223937499995,43.076421275,40.0,97.0
151,42.659223937499995,43.32005178125,64.0,96.0
152,43.4235549375,43.83915991875,53.0,87.0
153,43.4235549375,44.06527450625,60.0,92.0
154,43.9968031875,44.460178856249996,53.0,98.0
155,43.8057204375,44.5764208625,48.0,85.0
156,43.4235549375,44.5955291375,41.0,96.0
157,44.3789686875,44.7675036125,57.0,96.0
158,44.9522169375,45.3757837,55.0,92.0
159,44.9522169375,45.487248637499995,59.0,94.0
160,45.5254651875,45.9362931,55.0,100.0
161,45.907630687499996,46.14807648125,59.0,97.0
162,45.3343824375,46.3184586,50.0,84.0
163,44.9522169375,46.361452218749996,43.0,96.0
164,46.098713437499995,46.38056049375,55.0,94.0
165,46.480878937499995,46.90603805625,57.0,94.0
166,46.480878937499995,47.05253483125,62.0,92.0
167,47.0541271875,47.31686596875,57.0,97.0
168,46.8630444375,47.566865899999996,52.0,89.0
169,47.4362926875,47.757948649999996,57.0,93.0
170,47.4362926875,47.85508238125,62.0,94.0
171,46.480878937499995,47.891706575,45.0,96.0
172,47.8184581875,47.950623756249996,57.0,97.0
173,48.0095409375,48.44584655,60.0,98.0
174,48.0095409375,48.4490312625,57.0,97.0
175,48.0095409375,48.53661085625,45.0,97.0
176,48.5827891875,48.7388401,60.0,66.0
177,48.7738719375,49.47928575625,55.0,96.0
178,48.7738719375,49.496801675,59.0,96.0
179,48.7738719375,49.519094662499995,43.0,97.0
180,49.538202937499996,49.96017734375,53.0,91.0
181,49.538202937499996,50.1687760125,60.0,96.0
182,50.111451187499995,50.46973134375,53.0,97.0
183,50.4936166875,50.775463743749995,57.0,100.0
184,50.8757821875,51.01750189375,53.0,90.0
185,49.920368437499995,51.31368015625,48.0,88.0
186,51.0668649375,51.4490304375,53.0,92.0
187,51.0668649375,51.49520876875,57.0,96.0
188,51.0668649375,51.507947618749995,60.0,96.0
189,51.6401131875,52.084380581249995,53.0,98.0
190,52.0222786875,52.33278815625,57.0,97.0
191,49.538202937499996,52.44743780625,41.0,98.0
192,51.4490304375,52.47610021875,48.0,82.0
193,52.4044441875,52.53024033125,53.0,90.0
194,52.5955269375,52.99520835625,55.0,95.0
195,52.5955269375,53.1942528875,59.0,96.0
196,53.168775187499996,53.4522146,55.0,101.0
197,53.550940687499995,53.74680050625,55.0,96.0
198,53.550940687499995,53.8566730875,59.0,96.0
199,53.550940687499995,53.8853355,62.0,95.0
200,52.5955269375,53.9904310125,43.0,96.0
201,52.9776924375,54.012724,50.0,89.0
202,53.933106187499995,54.09711888125,55.0,96.0
203,54.124188937499994,54.5573098375,55.0,89.0
204,54.124188937499994,54.82004861875,62.0,90.0
205,54.6974371875,55.12578101875,55.0,98.0
206,54.5063544375,55.17992113125,50.0,84.0
207,54.124188937499994,55.24680009375,43.0,96.0
208,55.0796026875,55.33597204375,59.0,98.0
209,55.4617681875,55.576417837499996,55.0,96.0
210,55.6528509375,56.05094,53.0,96.0
211,55.6528509375,56.19902913125,57.0,98.0
212,56.2260991875,56.68629014375,53.0,98.0
213,56.6082646875,57.004761393749995,57.0,101.0
214,55.6528509375,57.074825068749995,41.0,96.0
215,56.0350164375,57.078009781249996,48.0,93.0
216,56.990430187499996,57.143296387499994,53.0,93.0
217,57.181512937499996,57.5955255625,53.0,89.0
218,57.181512937499996,57.8120860125,57.0,91.0
219,57.181512937499996,57.842340781249995,62.0,95.0
220,57.754761187499994,58.245206912499995,53.0,98.0
221,58.1369266875,58.39648075625,57.0,97.0
222,57.181512937499996,58.472913856249995,38.0,99.0
223,57.563678437499995,58.528646325,45.0,83.0
224,58.3280094375,58.6751431,62.0,97.0
225,58.7101749375,58.785015681249995,62.0,81.0
226,58.7101749375,59.1305569875,52.0,96.0
227,58.7101749375,59.324824449999994,59.0,90.0
228,59.2834231875,59.560493175,52.0,102.0
229,59.6655886875,59.871002643749996,52.0,98.0
230,59.0923404375,60.097117231249996,47.0,87.0
231,58.7101749375,60.1050790125,40.0,105.0
232,59.6655886875,60.12259493125,59.0,97.0
233,60.2388369375,61.160811206249996,56.0,95.0
234,60.2388369375,61.192658331249994,64.0,97.0
235,60.0477541875,61.194250687499995,52.0,95.0
236,60.2388369375,61.211766606249995,59.0,97.0
237,60.2388369375,61.7674989375,40.0,102.0
238,61.7674989375,62.0604924875,57.0,90.0
239,61.7674989375,62.3598554625,65.0,96.0
240,62.1496644375,62.47928218125,57.0,95.0
241,62.7229126875,63.14170238125,60.0,102.0
242,61.7674989375,63.168772437499996,41.0,97.0
243,62.3407471875,63.191065425,48.0,91.0
244,63.1050781875,63.59393155625,65.0,97.0
245,63.2961609375,63.64807166875,55.0,93.0
246,63.2961609375,63.68310350625,59.0,88.0
247,63.8694091875,64.21495049375,55.0,101.0
248,64.2515746875,64.55889944375,59.0,99.0
249,64.2515746875,64.6655873125,62.0,98.0
250,63.6783264375,64.68310323125,50.0,85.0
251,63.2961609375,64.68628794375,43.0,97.0
252,64.6337401875,64.706988575,55.0,88.0
253,64.8248229375,65.10666999375,57.0,96.0
254,64.8248229375,65.21495021874999,60.0,98.0
255,65.3980711875,65.6560329,64.0,98.0
256,65.3980711875,65.675141175,57.0,99.0
257,65.7802366875,65.968134725,57.0,91.0
258,65.7802366875,65.9967971375,60.0,98.0
259,64.8248229375,66.26749769999999,45.0,97.0
260,65.2069884375,66.28023655,52.0,88.0
261,66.16240218749999,66.29456775625,57.0,95.0
262,66.3534849375,66.592338375,57.0,88.0
263,66.3534849375,66.7292810125,60.0,100.0
264,66.3534849375,66.770682275,64.0,100.0
265,66.3534849375,66.77864405625,69.0,96.0
266,66.3534849375,66.99838921874999,45.0,98.0
267,66.7356504375,66.99998157499999,52.0,97.0
268,66.92673318749999,67.025459275,57.0,102.0
269,67.1178159375,67.3343763875,55.0,99.0
270,67.1178159375,67.38373943124999,59.0,98.0
271,67.1178159375,67.7738667125,43.0,98.0
272,67.30889868749999,67.78819791875,50.0,94.0
273,67.4999814375,67.7929749875,55.0,98.0
274,67.6910641875,67.7961597,59.0,90.0
275,67.8821469375,68.363038525,57.0,98.0
276,67.8821469375,68.401255075,53.0,97.0
277,68.4553951875,68.6082613875,53.0,71.0
278,68.4553951875,68.67354799374999,57.0,95.0
279,68.4553951875,68.71813396875,60.0,97.0
280,68.8375606875,69.01112751875,53.0,86.0
281,67.8821469375,69.25635038125,41.0,97.0
282,68.8375606875,69.26749687499999,57.0,94.0
283,68.2643124375,69.26908923124999,48.0,89.0
284,68.8375606875,69.30093635624999,60.0,96.0
285,69.2197261875,69.30412106874999,53.0,99.0
286,68.8375606875,69.3757771,65.0,97.0
287,69.4108089375,69.79297443749999,55.0,97.0
288,69.4108089375,69.84552219375,59.0,96.0
289,69.9840571875,70.24998068125,55.0,93.0
290,69.9840571875,70.3088978625,59.0,96.0
291,69.9840571875,70.32322906875,62.0,94.0
292,70.3662226875,70.41877044374999,62.0,79.0
293,69.79297443749999,70.48564940624999,50.0,91.0
294,70.3662226875,70.605076125,55.0,103.0
295,69.4108089375,70.82959835625,43.0,97.0
296,70.55730543749999,70.85189134375,50.0,98.0
297,70.93947093749999,71.23724155625,55.0,98.0
298,70.93947093749999,71.37577655,60.0,97.0
299,71.5127191875,71.72768728125,55.0,101.0
300,71.5127191875,71.90603118125,60.0,101.0
301,71.5127191875,71.95380186874999,64.0,102.0
302,71.3216364375,72.01112669375,52.0,96.0
303,70.93947093749999,72.01749611875,48.0,107.0
304,71.8948846875,72.1783241,55.0,101.0
305,72.0859674375,72.17991645625,60.0,99.0
306,72.4681329375,72.82641309374999,52.0,98.0
307,72.4681329375,72.9012538375,64.0,98.0
308,72.4681329375,72.95061688125,40.0,102.0
309,72.4681329375,72.9904257875,68.0,100.0
310,73.0413811875,73.547750475,69.0,100.0
311,73.0413811875,73.57163581875,42.0,103.0
312,73.0413811875,73.64329185,54.0,90.0
313,73.6146294375,73.9713172375,71.0,99.0
314,73.6146294375,73.97609430624999,56.0,97.0
315,73.6146294375,73.99201786875,44.0,107.0
316,73.9967949375,74.28978848749999,57.0,90.0
317,73.9967949375,74.5891514625,65.0,96.0
318,74.3789604375,74.70857818124999,57.0,95.0
319,74.95220868749999,75.37099838124999,60.0,102.0
320,73.9967949375,75.3980684375,41.0,97.0
321,74.57004318749999,75.420361425,48.0,91.0
322,75.3343741875,75.82322755625,65.0,97.0
323,75.5254569375,75.87736766875,55.0,93.0
324,75.5254569375,75.91239950625,59.0,88.0
325,76.0987051875,76.44424649375,55.0,101.0
326,76.4808706875,76.78819544375,59.0,99.0
327,76.4808706875,76.8948833125,62.0,98.0
328,75.9076224375,76.91239923124999,50.0,85.0
329,75.5254569375,76.91558394375,43.0,97.0
330,76.8630361875,76.936284575,55.0,88.0
331,77.0541189375,77.33596599375,57.0,96.0
332,77.0541189375,77.44424621875,60.0,98.0
333,77.6273671875,77.88532889999999,64.0,98.0
334,77.6273671875,77.904437175,57.0,99.0
335,78.0095326875,78.197430725,57.0,91.0
336,78.0095326875,78.2260931375,60.0,98.0
337,77.0541189375,78.4967937,45.0,97.0
338,77.43628443749999,78.50953255,52.0,88.0
339,78.3916981875,78.52386375625,57.0,95.0
340,78.58278093749999,78.821634375,57.0,88.0
341,78.58278093749999,78.9585770125,60.0,100.0
342,78.58278093749999,78.999978275,64.0,100.0
343,78.58278093749999,79.00794005624999,69.0,96.0
344,78.58278093749999,79.22768521875,45.0,98.0
345,78.9649464375,79.229277575,52.0,97.0
346,79.1560291875,79.254755275,57.0,102.0
347,79.3471119375,79.56367238749999,55.0,99.0
348,79.3471119375,79.61303543125,59.0,98.0
349,79.3471119375,80.0031627125,43.0,98.0
350,79.5381946875,80.01749391874999,50.0,94.0
351,79.7292774375,80.0222709875,55.0,98.0
352,79.9203601875,80.0254557,59.0,90.0
353,80.1114429375,80.592334525,57.0,98.0
354,80.1114429375,80.630551075,53.0,97.0
355,80.6846911875,80.8375573875,53.0,71.0
356,80.6846911875,80.90284399375,57.0,95.0
357,80.6846911875,80.94742996875,60.0,97.0
358,81.06685668749999,81.24042351874999,53.0,86.0
359,80.1114429375,81.48564638124999,41.0,97.0
360,81.06685668749999,81.496792875,57.0,94.0
361,80.4936084375,81.49838523125,48.0,89.0
362,81.06685668749999,81.53023235625,60.0,96.0
363,81.44902218749999,81.53341706875,53.0,99.0
364,81.06685668749999,81.6050731,65.0,97.0
365,81.6401049375,82.0222704375,55.0,97.0
366,81.6401049375,82.07481819374999,59.0,96.0
367,82.21335318749999,82.47927668125,55.0,93.0
368,82.21335318749999,82.5381938625,59.0,96.0
369,82.21335318749999,82.55252506875,62.0,94.0
370,82.59551868749999,82.64806644375,62.0,79.0
371,82.0222704375,82.71494540625,50.0,91.0
372,82.59551868749999,82.834372125,55.0,103.0
373,81.6401049375,83.05889435625,43.0,97.0
374,82.7866014375,83.08118734375,50.0,98.0
375,83.1687669375,84.5445627375,41.0,88.0
376,83.3598496875,84.55730158749999,48.0,92.0
377,83.5509324375,84.6528429625,53.0,89.0
378,83.7420151875,84.706983075,57.0,94.0
379,84.1241806875,84.73086841874999,60.0,93.0
380,84.69742893749999,86.07481709375,43.0,87.0
381,84.8885116875,86.09711008125,50.0,90.0
382,85.07959443749999,86.19424381249999,55.0,91.0
383,85.2706771875,86.26112277499999,59.0,92.0
384,86.22609093749999,87.63214150625,45.0,96.0
385,86.4171736875,87.6401032875,52.0,90.0
386,86.6082564375,87.9904216625,57.0,86.0
387,86.7993391875,88.1432878625,60.0,95.0
388,87.1815046875,88.159211425,64.0,94.0
389,87.7547529375,88.3821413,45.0,96.0
390,87.9458356875,88.57163169374999,52.0,90.0
391,88.1369184375,88.61940238125,57.0,88.0
392,88.32800118749999,88.91717299999999,60.0,97.0
393,88.5190839375,89.1369181625,43.0,95.0
394,88.71016668749999,89.15443408125,52.0,90.0
395,89.09233218749999,89.30093085624999,60.0,95.0
396,88.9012494375,89.30252321249999,55.0,97.0
397,89.2834149375,90.71175849375,38.0,98.0
398,89.47449768749999,90.719720275,45.0,85.0
399,89.6655804375,90.80252279999999,50.0,89.0
400,89.85666318749999,90.84870113125,57.0,91.0
401,90.2388286875,90.99201319375,62.0,91.0
402,91.0031596875,92.2037963,50.0,89.0
403,90.8120769375,92.21175808125,43.0,96.0
404,91.1942424375,92.27226761874999,55.0,88.0
405,91.3853251875,92.31048416875,62.0,93.0
406,92.5318216875,93.37736285625,52.0,86.0
407,92.72290443749999,93.58436916875,57.0,86.0
408,92.34073893749999,93.751566575,45.0,96.0
409,93.48723543749999,93.77863663125,52.0,86.0
410,93.6783181875,94.00952828749999,57.0,89.0
411,92.9139871875,94.12258558125,62.0,89.0
412,93.86940093749999,95.35825403125,45.0,98.0
413,94.0604836875,95.36143874375,52.0,87.0
414,94.2515664375,95.37258523749999,57.0,88.0
415,94.4426491875,95.3885088,60.0,92.0
416,95.3980629375,95.87417745625,57.0,87.0
417,95.3980629375,96.05252135625,60.0,90.0
418,95.7802284375,96.3598461125,52.0,85.0
419,95.3980629375,96.413986225,45.0,97.0
420,95.97131118749999,96.42194800624999,57.0,92.0
421,96.35347668749999,96.45857219999999,60.0,85.0
422,96.9267249375,97.35506876875,53.0,89.0
423,96.9267249375,97.52385853125,57.0,90.0
424,97.49997318749999,97.94424058125,53.0,91.0
425,97.3088904375,97.95697943124999,48.0,85.0
426,96.9267249375,97.9776800625,41.0,96.0
427,97.8821386875,98.0031577625,57.0,87.0
428,98.4553869375,98.85984542499999,55.0,90.0
429,98.4553869375,99.06207466875,59.0,90.0
430,99.0286351875,99.484049075,55.0,98.0
431,99.4108006875,99.56048217499999,59.0,92.0
432,98.8375524375,99.573221025,50.0,85.0
433,98.4553869375,99.59869872499999,43.0,97.0
434,99.98404893749999,100.2069788125,55.0,94.0
435,99.98404893749999,100.32640553124999,48.0,92.0
436,99.98404893749999,100.44105518125,60.0,93.0
437,100.36621443749999,100.706978675,55.0,98.0
438,100.74837993749999,101.16557727499999,40.0,97.0
439,100.74837993749999,101.40920778124999,64.0,96.0
440,101.51271093749999,101.92831591875,53.0,87.0
441,101.51271093749999,102.15443050625,60.0,92.0
442,102.0859591875,102.54933485625,53.0,98.0
443,101.8948764375,102.66557686249999,48.0,85.0
444,101.51271093749999,102.6846851375,41.0,96.0
445,102.4681246875,102.8566596125,57.0,96.0
446,103.0413729375,103.4649397,55.0,92.0
447,103.0413729375,103.57640463749999,59.0,94.0
448,103.61462118749999,104.02544909999999,55.0,100.0
449,103.99678668749999,104.23723248124999,59.0,97.0
450,103.4235384375,104.4076146,50.0,84.0
451,103.0413729375,104.45060821874999,43.0,96.0
452,104.1878694375,104.46971649375,55.0,94.0
453,104.5700349375,104.98245520625,55.0,92.0
454,104.5700349375,105.19583094375,60.0,90.0
455,105.14328318749999,105.5509263875,55.0,97.0
456,105.5254486875,105.5509263875,55.0,97.0
457,104.5700349375,105.649652475,48.0,94.0
458,104.9522004375,105.649652475,52.0,84.0
459,105.5254486875,105.77226390624999,60.0,93.0
460,106.0986969375,106.39646755625,52.0,94.0
461,106.0986969375,106.41239111875,59.0,94.0
462,106.0986969375,106.4681235875,40.0,98.0
463,106.8630279375,107.57958825,56.0,89.0
464,106.8630279375,107.598696525,44.0,96.0
465,106.8630279375,107.60665830625,59.0,91.0
466,107.62735893749999,108.10347345625,57.0,87.0
467,107.62735893749999,108.28181735625,60.0,90.0
468,108.00952443749999,108.5891421125,52.0,85.0
469,107.62735893749999,108.643282225,45.0,97.0
470,108.2006071875,108.65124400625,57.0,92.0
471,108.5827726875,108.6878682,60.0,85.0
472,109.15602093749999,109.58436476874999,53.0,89.0
473,109.15602093749999,109.75315453124999,57.0,90.0
474,109.7292691875,110.17353658124999,53.0,91.0
475,109.5381864375,110.18627543125,48.0,85.0
476,109.15602093749999,110.20697606249999,41.0,96.0
477,110.1114346875,110.2324537625,57.0,87.0
478,110.6846829375,111.089141425,55.0,90.0
479,110.6846829375,111.29137066874999,59.0,90.0
480,111.25793118749999,111.71334507499999,55.0,98.0
481,111.64009668749999,111.789778175,59.0,92.0
482,111.0668484375,111.802517025,50.0,85.0
483,110.6846829375,111.827994725,43.0,97.0
484,112.2133449375,112.4362748125,55.0,94.0
485,112.2133449375,112.55570153125,48.0,92.0
486,112.2133449375,112.67035118125,60.0,93.0
487,112.5955104375,112.93627467499999,55.0,98.0
488,112.9776759375,113.394873275,40.0,97.0
489,112.9776759375,113.63850378125,64.0,96.0
490,113.7420069375,114.15761191874999,53.0,87.0
491,113.7420069375,114.38372650625,60.0,92.0
492,114.3152551875,114.77863085624999,53.0,98.0
493,114.1241724375,114.8948728625,48.0,85.0
494,113.7420069375,114.9139811375,41.0,96.0
495,114.6974206875,115.0859556125,57.0,96.0
496,115.27066893749999,115.6942357,55.0,92.0
497,115.27066893749999,115.8057006375,59.0,94.0
498,115.8439171875,116.2547451,55.0,100.0
499,116.2260826875,116.46652848125,59.0,97.0
500,115.65283443749999,116.6369106,50.0,84.0
501,115.27066893749999,116.67990421875,43.0,96.0
502,116.41716543749999,116.69901249374999,55.0,94.0
503,116.79933093749999,117.22449005624999,57.0,94.0
504,116.79933093749999,117.37098683125,62.0,92.0
505,117.3725791875,117.63531796875,57.0,97.0
506,117.1814964375,117.88531789999999,52.0,89.0
507,117.7547446875,118.07640065,57.0,93.0
508,117.7547446875,118.17353438125,62.0,94.0
509,116.79933093749999,118.210158575,45.0,96.0
510,118.13691018749999,118.26907575624999,57.0,97.0
511,118.3279929375,118.76429854999999,60.0,98.0
512,118.3279929375,118.7674832625,57.0,97.0
513,118.3279929375,118.85506285625,45.0,97.0
514,118.90124118749999,119.0572921,60.0,66.0
515,119.0923239375,119.79773775625,55.0,96.0
516,119.0923239375,119.815253675,59.0,96.0
517,119.0923239375,119.83754666249999,43.0,97.0
518,119.8566549375,120.27862934375,53.0,91.0
519,119.8566549375,120.4872280125,60.0,96.0
520,120.42990318749999,120.78818334374999,53.0,97.0
521,120.8120686875,121.09391574374999,57.0,100.0
522,121.1942341875,121.33595389375,53.0,90.0
523,120.2388204375,121.63213215625,48.0,88.0
524,121.3853169375,121.7674824375,53.0,92.0
525,121.3853169375,121.81366076875,57.0,96.0
526,121.3853169375,121.82639961874999,60.0,96.0
527,121.9585651875,122.40283258125,53.0,98.0
528,122.3407306875,122.65124015625,57.0,97.0
529,119.8566549375,122.76588980625,41.0,98.0
530,121.7674824375,122.79455221875,48.0,82.0
531,122.7228961875,122.84869233124999,53.0,90.0
532,122.91397893749999,123.31366035625,55.0,95.0
533,122.91397893749999,123.51270488749999,59.0,96.0
534,123.4872271875,123.7706666,55.0,101.0
535,123.8693926875,124.06525250624999,55.0,96.0
536,123.8693926875,124.17512508749999,59.0,96.0
537,123.8693926875,124.20378749999999,62.0,95.0
538,122.91397893749999,124.30888301249999,43.0,96.0
539,123.29614443749999,124.331176,50.0,89.0
540,124.2515581875,124.41557088124999,55.0,96.0
541,124.4426409375,124.8757618375,55.0,89.0
542,124.4426409375,125.13850061875,62.0,90.0
543,125.0158891875,125.44423301875,55.0,98.0
544,124.8248064375,125.49837313124999,50.0,84.0
545,124.4426409375,125.56525209374999,43.0,96.0
546,125.3980546875,125.65442404375,59.0,98.0
547,125.78022018749999,125.8948698375,55.0,96.0
548,125.9713029375,126.36939199999999,53.0,96.0
549,125.9713029375,126.51748113125,57.0,98.0
550,126.54455118749999,127.00474214375,53.0,98.0
551,126.92671668749999,127.32321339375,57.0,101.0
552,125.9713029375,127.39327706875,41.0,96.0
553,126.3534684375,127.39646178125,48.0,93.0
554,127.30888218749999,127.4617483875,53.0,93.0
555,127.4999649375,127.9139775625,53.0,89.0
556,127.4999649375,128.13053801249998,57.0,91.0
557,127.4999649375,128.16079278125,62.0,95.0
558,128.0732131875,128.5636589125,53.0,98.0
559,128.4553786875,128.71493275625,57.0,97.0
560,127.4999649375,128.79136585625,38.0,99.0
561,127.8821304375,128.847098325,45.0,83.0
562,128.6464614375,128.9935951,62.0,97.0
563,129.0286269375,129.10346768124998,62.0,81.0
564,129.0286269375,129.4490089875,52.0,96.0
565,129.0286269375,129.64327645,59.0,90.0
566,129.60187518749999,129.87894517499998,52.0,102.0
567,129.9840406875,130.18945464375,52.0,98.0
568,129.4107924375,130.41556923125,47.0,87.0
569,129.0286269375,130.4235310125,40.0,105.0
570,129.9840406875,130.44104693124999,59.0,97.0
571,130.5572889375,131.47926320624998,56.0,95.0
572,130.5572889375,131.51111033125,64.0,97.0
573,130.36620618749998,131.5127026875,52.0,95.0
574,130.5572889375,131.53021860625,59.0,97.0
575,130.5572889375,132.0859509375,40.0,102.0
576,132.0859509375,132.3789444875,57.0,90.0
577,132.0859509375,132.6783074625,65.0,96.0
578,132.4681164375,132.79773418125,57.0,95.0
579,133.0413646875,133.46015438125,60.0,102.0
580,132.0859509375,133.4872244375,41.0,97.0
581,132.6591991875,133.50951742499998,48.0,91.0
582,133.4235301875,133.91238355625,65.0,97.0
583,133.6146129375,133.96652366875,55.0,93.0
584,133.6146129375,134.00155550624999,59.0,88.0
585,134.1878611875,134.53340249375,55.0,101.0
586,134.5700266875,134.87735144375,59.0,99.0
587,134.5700266875,134.9840393125,62.0,98.0
588,133.99677843749998,135.00155523125,50.0,85.0
589,133.6146129375,135.00473994375,43.0,97.0
590,134.9521921875,135.025440575,55.0,88.0
591,135.1432749375,135.42512199375,57.0,96.0
592,135.1432749375,135.53340221874998,60.0,98.0
593,135.7165231875,135.9744849,64.0,98.0
594,135.7165231875,135.993593175,57.0,99.0
595,136.0986886875,136.286586725,57.0,91.0
596,136.0986886875,136.3152491375,60.0,98.0
597,135.1432749375,136.5859497,45.0,97.0
598,135.52544043749998,136.59868855,52.0,88.0
599,136.4808541875,136.61301975625,57.0,95.0
600,136.6719369375,136.910790375,57.0,88.0
601,136.6719369375,137.0477330125,60.0,100.0
602,136.6719369375,137.089134275,64.0,100.0
603,136.6719369375,137.09709605625,69.0,96.0
604,136.6719369375,137.31684121875,45.0,98.0
605,137.0541024375,137.318433575,52.0,97.0
606,137.2451851875,137.34391127499998,57.0,102.0
607,137.4362679375,137.6528283875,55.0,99.0
608,137.4362679375,137.70219143125,59.0,98.0
609,137.4362679375,138.0923187125,43.0,98.0
610,137.62735068749998,138.10664991875,50.0,94.0
611,137.8184334375,138.11142698749998,55.0,98.0
612,138.0095161875,138.11461169999998,59.0,90.0
613,138.2005989375,138.681490525,57.0,98.0
614,138.2005989375,138.719707075,53.0,97.0
615,138.7738471875,138.9267133875,53.0,71.0
616,138.7738471875,138.99199999375,57.0,95.0
617,138.7738471875,139.03658596875,60.0,97.0
618,139.15601268749998,139.32957951875,53.0,86.0
619,138.2005989375,139.57480238124998,41.0,97.0
620,139.15601268749998,139.58594887499999,57.0,94.0
621,138.5827644375,139.58754123125,48.0,89.0
622,139.15601268749998,139.61938835625,60.0,96.0
623,139.5381781875,139.62257306875,53.0,99.0
624,139.15601268749998,139.6942291,65.0,97.0
625,139.7292609375,140.1114264375,55.0,97.0
626,139.7292609375,140.16397419375,59.0,96.0
627,140.3025091875,140.56843268125,55.0,93.0
628,140.3025091875,140.62734986249998,59.0,96.0
629,140.3025091875,140.64168106875,62.0,94.0
630,140.6846746875,140.73722244375,62.0,79.0
631,140.1114264375,140.80410140625,50.0,91.0
632,140.6846746875,140.923528125,55.0,103.0
633,139.7292609375,141.14805035625,43.0,97.0
634,140.8757574375,141.17034334375,50.0,98.0
635,141.25792293749998,141.55569355625,55.0,98.0
636,141.25792293749998,141.69422855,60.0,97.0
637,141.8311711875,142.04613928125,55.0,101.0
638,141.8311711875,142.22448318125,60.0,101.0
639,141.8311711875,142.27225386875,64.0,102.0
640,141.6400884375,142.32957869375,52.0,96.0
641,141.25792293749998,142.33594811875,48.0,107.0
642,142.2133366875,142.4967761,55.0,101.0
643,142.4044194375,142.49836845625,60.0,99.0
644,142.78658493749998,143.14486509374998,52.0,98.0
645,142.78658493749998,143.2197058375,64.0,98.0
646,142.78658493749998,143.26906888125,40.0,102.0
647,142.78658493749998,143.3088777875,68.0,100.0
648,143.3598331875,143.866202475,69.0,100.0
649,143.3598331875,143.89008781875,42.0,103.0
650,143.3598331875,143.96174385,54.0,90.0
651,143.9330814375,144.2897692375,71.0,99.0
652,143.9330814375,144.29454630625,56.0,97.0
653,143.9330814375,144.31046986875,44.0,107.0
654,144.3152469375,144.60824048749998,57.0,90.0
655,144.3152469375,144.9076034625,65.0,96.0
656,144.6974124375,145.02703018124998,57.0,95.0
657,145.2706606875,145.68945038125,60.0,102.0
658,144.3152469375,145.71652043749998,41.0,97.0
659,144.88849518749998,145.738813425,48.0,91.0
660,145.65282618749998,146.14167955624998,65.0,97.0
661,145.8439089375,146.19581966875,55.0,93.0
662,145.8439089375,146.23085150625,59.0,88.0
663,146.41715718749998,146.76269849374998,55.0,101.0
664,146.7993226875,147.10664744375,59.0,99.0
665,146.7993226875,147.2133353125,62.0,98.0
666,146.2260744375,147.23085123125,50.0,85.0
667,145.8439089375,147.23403594375,43.0,97.0
668,147.18148818749998,147.25473657499998,55.0,88.0
669,147.3725709375,147.65441799375,57.0,96.0
670,147.3725709375,147.76269821875,60.0,98.0
671,147.9458191875,148.2037809,64.0,98.0
672,147.9458191875,148.222889175,57.0,99.0
673,148.3279846875,148.51588272499998,57.0,91.0
674,148.3279846875,148.5445451375,60.0,98.0
675,147.3725709375,148.8152457,45.0,97.0
676,147.7547364375,148.82798455,52.0,88.0
677,148.7101501875,148.84231575625,57.0,95.0
678,148.9012329375,149.14008637499998,57.0,88.0
679,148.9012329375,149.27702901249998,60.0,100.0
680,148.9012329375,149.318430275,64.0,100.0
681,148.9012329375,149.32639205625,69.0,96.0
682,148.9012329375,149.54613721875,45.0,98.0
683,149.28339843749998,149.547729575,52.0,97.0
684,149.4744811875,149.573207275,57.0,102.0
685,149.6655639375,149.8821243875,55.0,99.0
686,149.6655639375,149.93148743125,59.0,98.0
687,149.6655639375,150.3216147125,43.0,98.0
688,149.8566466875,150.33594591874999,50.0,94.0
689,150.04772943749998,150.3407229875,55.0,98.0
690,150.2388121875,150.3439077,59.0,90.0
691,150.4298949375,150.910786525,57.0,98.0
692,150.4298949375,150.949003075,53.0,97.0
693,151.0031431875,151.1560093875,53.0,71.0
694,151.0031431875,151.22129599375,57.0,95.0
695,151.0031431875,151.26588196875,60.0,97.0
696,151.3853086875,151.55887551875,53.0,86.0
697,150.4298949375,151.80409838125,41.0,97.0
698,151.3853086875,151.815244875,57.0,94.0
699,150.81206043749998,151.81683723125,48.0,89.0
700,151.3853086875,151.84868435625,60.0,96.0
701,151.7674741875,151.85186906875,53.0,99.0
702,151.3853086875,151.9235251,65.0,97.0
703,151.9585569375,152.3407224375,55.0,97.0
704,151.9585569375,152.39327019375,59.0,96.0
705,152.5318051875,152.79772868125,55.0,93.0
706,152.5318051875,152.8566458625,59.0,96.0
707,152.5318051875,152.87097706875,62.0,94.0
708,152.91397068749998,152.96651844375,62.0,79.0
709,152.3407224375,153.03339740625,50.0,91.0
710,152.91397068749998,153.152824125,55.0,103.0
711,151.9585569375,153.37734635625,43.0,97.0
712,153.1050534375,153.39963934374998,50.0,98.0
713,153.4872189375,153.76588128125,57.0,91.0
714,153.4872189375,153.92352455,69.0,97.0
715,153.8693844375,154.0031423625,57.0,93.0
716,154.0604671875,154.11301494375,69.0,81.0
717,154.0604671875,154.3407218875,57.0,96.0
718,154.0604671875,154.3470913125,66.0,92.0
719,154.44263268749998,154.5063269375,66.0,71.0
720,154.44263268749998,154.62256894375,57.0,91.0
721,154.44263268749998,154.8566453125,62.0,92.0
722,154.8247981875,154.90919306875,57.0,92.0
723,153.4872189375,154.91715485,38.0,101.0
724,155.0158809375,155.2356261,57.0,96.0
725,155.0158809375,155.43148591874998,62.0,98.0
726,155.0158809375,155.46333304375,69.0,97.0
727,155.3980464375,155.47925660625,57.0,85.0
728,155.0158809375,155.50791901875,38.0,101.0
729,155.5891291875,155.81365141875,57.0,96.0
730,155.5891291875,155.8725686,62.0,101.0
731,155.9712946875,156.21810990625,57.0,96.0
732,155.5891291875,156.24358760625,69.0,99.0
733,156.1623774375,156.34072133749999,62.0,96.0
734,156.3534601875,156.45377863125,69.0,57.0
735,156.3534601875,156.54772764999998,57.0,98.0
736,156.9267084375,157.3598293375,58.0,90.0
737,157.1177911875,157.38052996874998,62.0,96.0
738,157.4999566875,157.71810949375,58.0,95.0
739,157.4999566875,157.73721776874999,62.0,97.0
740,157.4999566875,157.77224960625,65.0,96.0
741,156.7356256875,157.9904024125,53.0,84.0
742,156.54454293749998,157.99836419375,46.0,103.0
743,157.8821221875,158.29772716875,58.0,96.0
744,157.8821221875,158.35505199374998,65.0,96.0
745,157.8821221875,158.35664434999998,62.0,97.0
746,158.4553704375,158.477663425,62.0,76.0
747,158.4553704375,158.56046594999998,58.0,96.0
748,158.2642876875,158.73721749375,53.0,96.0
749,158.6464531875,158.9044149,62.0,100.0
750,158.6464531875,158.91874610624998,58.0,97.0
751,158.6464531875,158.93148495625,65.0,97.0
752,158.07320493749998,159.0859435125,46.0,98.0
753,159.0286186875,159.25314091875,58.0,100.0
754,159.2197014375,159.36779056875,53.0,92.0
755,159.0286186875,159.44422366875,62.0,98.0
756,159.41078418749998,159.59072044375,58.0,99.0
757,159.0286186875,159.675115325,65.0,98.0
758,159.9840324375,160.120975075,55.0,101.0
759,160.17511518749998,160.43785396875,55.0,96.0
760,160.17511518749998,160.44740810624998,62.0,99.0
761,160.5572806875,160.78498763125,55.0,97.0
762,159.7929496875,161.00950986249998,50.0,91.0
763,159.6018669375,161.02065635625,43.0,101.0
764,160.5572806875,161.0349875625,62.0,97.0
765,160.5572806875,161.18307669375,67.0,97.0
766,160.93944618749998,161.24995565625,55.0,107.0
767,161.5126944375,161.62256701875,55.0,105.0
768,161.3216116875,161.80728034375,50.0,90.0
769,161.70377718749998,161.955369475,62.0,101.0
770,161.70377718749998,161.9712930375,55.0,107.0
771,162.0859426875,162.22447768125,62.0,100.0
772,162.0859426875,162.26906365624998,55.0,105.0
773,161.8948599375,162.28021015,50.0,96.0
774,161.1305289375,162.3088725625,43.0,98.0
775,162.6591909375,163.14645195,52.0,100.0
776,162.6591909375,163.3407194125,56.0,97.0
777,163.2324391875,163.66078301874998,52.0,110.0
778,163.04135643749999,163.78817151875,47.0,98.0
779,162.6591909375,163.8470887,40.0,102.0
780,163.6146046875,164.08275742499998,56.0,102.0
781,163.6146046875,164.15759816874998,59.0,103.0
782,163.9967701875,164.18307586875,52.0,110.0
783,164.57001843749998,164.770655325,54.0,96.0
784,164.7611011875,164.770655325,54.0,86.0
785,164.7611011875,164.98562341874998,58.0,110.0
786,164.7611011875,165.02383996875,61.0,105.0
787,164.1878529375,165.24995455625,42.0,105.0
788,164.3789356875,165.26906283124998,49.0,92.0
789,165.1432666875,165.3598271375,54.0,103.0
790,165.1432666875,165.55250224374998,58.0,79.0
791,165.1432666875,165.58753408125,61.0,91.0
792,165.5254321875,165.6591901125,54.0,112.0
793,165.1432666875,165.7865786125,66.0,96.0
794,165.9075976875,166.17192882499998,59.0,85.0
795,166.09868043749998,166.2260689375,62.0,97.0
796,166.2897631875,166.52224719999998,59.0,100.0
797,166.2897631875,166.53976311875,62.0,98.0
798,166.2897631875,166.541355475,66.0,107.0
799,165.7165149375,166.81683310625,47.0,102.0
800,166.67192868749999,166.8247948875,59.0,98.0
801,166.67192868749999,167.11938079375,62.0,99.0
802,166.67192868749999,167.22766101874998,66.0,99.0
803,167.0540941875,167.28657819999998,59.0,98.0
804,167.43625968749998,167.89963535625,57.0,100.0
805,167.6273424375,167.92033598749998,61.0,105.0
806,167.8184251875,168.070017475,64.0,97.0
807,168.20059068749998,168.388488725,57.0,99.0
808,167.2451769375,168.464921825,49.0,112.0
809,168.20059068749998,168.68466698749998,61.0,107.0
810,168.20059068749998,168.68625934374998,64.0,103.0
811,168.5827561875,168.75632301874998,57.0,96.0
812,168.20059068749998,168.92829749375,69.0,98.0
813,168.96492168749998,169.53020815624998,59.0,97.0
814,169.1560044375,169.53180051249998,63.0,101.0
815,169.3470871875,169.6082336125,66.0,105.0
816,168.7738389375,169.8247940625,47.0,103.0
817,169.72925268749998,169.9330742875,59.0,102.0
818,169.72925268749998,170.18944364375,63.0,103.0
819,169.72925268749998,170.2005901375,66.0,99.0
820,169.72925268749998,170.2419914,71.0,99.0
821,170.1114181875,170.34867926875,59.0,103.0
822,170.8757491875,171.18625865625,55.0,100.0
823,170.6846664375,171.19899750624998,52.0,107.0
824,171.2579146875,171.34867899374999,52.0,97.0
825,170.4935836875,171.47447513749998,47.0,91.0
826,170.30250093749999,171.5954942125,40.0,101.0
827,171.2579146875,171.7993158125,55.0,102.0
828,171.2579146875,171.82320115624998,59.0,103.0
829,171.6400801875,171.84549414375,52.0,98.0
830,171.2579146875,171.9585514375,64.0,103.0
831,172.2133284375,172.541353825,60.0,98.0
832,172.4044111875,172.66396525624998,64.0,102.0
833,172.0222456875,172.8566403625,55.0,91.0
834,171.83116293749998,172.94421995624998,48.0,110.0
835,172.7865766875,172.98562121875,60.0,98.0
836,172.7865766875,173.23084408124998,64.0,110.0
837,173.1687421875,173.3152389625,60.0,96.0
838,172.7865766875,173.3279778125,67.0,102.0
839,173.35982493749998,173.5954936625,60.0,98.0
840,173.35982493749998,173.76269106875,64.0,99.0
841,173.7419904375,173.82160825,60.0,89.0
842,173.93307318749999,174.20695846249998,60.0,103.0
843,173.93307318749999,174.23721323125,64.0,110.0
844,173.93307318749999,174.2388055875,67.0,98.0
845,173.1687421875,174.3693788,36.0,102.0
846,174.3152386875,174.60982459375,60.0,100.0
847,174.3152386875,174.77542964375,64.0,105.0
848,174.69740418749998,174.82797739999998,60.0,96.0
849,174.5063214375,174.91874170625,36.0,100.0
850,174.8884869375,175.12458809999998,52.0,100.0
851,174.8884869375,175.30829413125,56.0,100.0
852,175.27155292499998,175.51116948749998,52.0,102.0
853,174.8884869375,175.57187234999998,40.0,99.0
854,175.65493942499998,175.86420455625,45.0,110.0
855,175.65493942499998,175.87858154999998,57.0,96.0
856,175.846632675,176.03832592499998,48.0,94.0
857,175.846632675,176.06228758125,60.0,98.0
858,176.03832592499998,176.19647285624998,57.0,98.0
859,176.230019175,177.57187192499998,47.0,112.0
860,176.230019175,177.76196773125,40.0,102.0
861,176.230019175,177.763565175,59.0,112.0
862,177.95525842499998,178.24870476249998,57.0,90.0
863,177.95525842499998,178.5480677375,65.0,96.0
864,178.3378767125,178.66749445624998,57.0,95.0
865,178.91112496249997,179.32991465624997,60.0,102.0
866,177.95525842499998,179.35698471249998,41.0,97.0
867,178.52895946249998,179.3792777,48.0,91.0
868,179.29329046249998,179.78214383124998,65.0,97.0
869,179.48437321249997,179.83628394374998,55.0,93.0
870,179.48437321249997,179.87131578125,59.0,88.0
871,180.05762146249998,180.40316276874998,55.0,101.0
872,180.43978696249997,180.74711171874998,59.0,99.0
873,180.43978696249997,180.8537995875,62.0,98.0
874,179.8665387125,180.87131550624997,50.0,85.0
875,179.48437321249997,180.87450021874997,43.0,97.0
876,180.82195246249998,180.89520084999998,55.0,88.0
877,181.01303521249997,181.29488226874997,57.0,96.0
878,181.01303521249997,181.40316249375,60.0,98.0
879,181.58628346249998,181.84424517499997,64.0,98.0
880,181.58628346249998,181.86335344999998,57.0,99.0
881,181.9684489625,182.15634699999998,57.0,91.0
882,181.9684489625,182.18500941249997,60.0,98.0
883,181.01303521249997,182.455709975,45.0,97.0
884,181.39520071249999,182.46844882499997,52.0,88.0
885,182.35061446249998,182.48278003124997,57.0,95.0
886,182.54169721249997,182.78055064999998,57.0,88.0
887,182.54169721249997,182.91749328749998,60.0,100.0
888,182.54169721249997,182.95889454999997,64.0,100.0
889,182.54169721249997,182.96685633124997,69.0,96.0
890,182.54169721249997,183.18660149374998,45.0,98.0
891,182.92386271249998,183.18819384999998,52.0,97.0
892,183.11494546249997,183.21367155,57.0,102.0
893,183.30602821249997,183.52258866249997,55.0,99.0
894,183.30602821249997,183.57195170625,59.0,98.0
895,183.30602821249997,183.96207898749998,43.0,98.0
896,183.4971109625,183.97641019374998,50.0,94.0
897,183.68819371249998,183.9811872625,55.0,98.0
898,183.87927646249997,183.984371975,59.0,90.0
899,184.07035921249997,184.5512508,57.0,98.0
900,184.07035921249997,184.58946734999998,53.0,97.0
901,184.64360746249997,184.79647366249998,53.0,71.0
902,184.64360746249997,184.86176026874998,57.0,95.0
903,184.64360746249997,184.90634624374997,60.0,97.0
904,185.02577296249999,185.19933979374997,53.0,86.0
905,184.07035921249997,185.44456265624999,41.0,97.0
906,185.02577296249999,185.45570915,57.0,94.0
907,184.45252471249998,185.45730150625,48.0,89.0
908,185.02577296249999,185.48914863124998,60.0,96.0
909,185.40793846249997,185.49233334374998,53.0,99.0
910,185.02577296249999,185.56398937499998,65.0,97.0
911,185.5990212125,185.98118671249998,55.0,97.0
912,185.5990212125,186.03373446874997,59.0,96.0
913,186.17226946249997,186.43819295624996,55.0,93.0
914,186.17226946249997,186.4971101375,59.0,96.0
915,186.17226946249997,186.51144134374996,62.0,94.0
916,186.55443496249998,186.60698271874998,62.0,79.0
917,185.98118671249998,186.67386168124997,50.0,91.0
918,186.55443496249998,186.79328839999997,55.0,103.0
919,185.5990212125,187.01781063124997,43.0,97.0
920,186.74551771249998,187.04010361874998,50.0,98.0
921,187.1276832125,187.42545383124997,55.0,98.0
922,187.1276832125,187.56398882499997,60.0,97.0
923,187.70093146249997,187.91589955624997,55.0,101.0
924,187.70093146249997,188.09424345624998,60.0,101.0
925,187.70093146249997,188.14201414374998,64.0,102.0
926,187.50984871249997,188.19933896874997,52.0,96.0
927,187.1276832125,188.20570839374997,48.0,107.0
928,188.08309696249998,188.36653637499998,55.0,101.0
929,188.27417971249997,188.36812873124998,60.0,99.0
930,188.65634521249999,189.01462536875,52.0,98.0
931,188.65634521249999,189.08946611249996,64.0,98.0
932,188.65634521249999,189.13882915624998,40.0,102.0
933,188.65634521249999,189.17863806249997,68.0,100.0
934,189.22959346249996,189.73596274999997,69.0,100.0
935,189.22959346249996,189.75984809374998,42.0,103.0
936,189.22959346249996,189.83150412499998,54.0,90.0
937,189.80284171249997,190.15952951249997,71.0,99.0
938,189.80284171249997,190.16430658124997,56.0,97.0
939,189.80284171249997,190.18023014374998,44.0,107.0
940,190.18500721249998,190.4780007625,57.0,90.0
941,190.18500721249998,190.77736373749997,65.0,96.0
942,190.56717271249997,190.89679045625,57.0,95.0
943,191.14042096249997,191.55921065624997,60.0,102.0
944,190.18500721249998,191.58628071249998,41.0,97.0
945,190.7582554625,191.60857369999997,48.0,91.0
946,191.5225864625,192.01143983125,65.0,97.0
947,191.71366921249998,192.06557994374998,55.0,93.0
948,191.71366921249998,192.10061178124997,59.0,88.0
949,192.28691746249999,192.63245876874998,55.0,101.0
950,192.66908296249997,192.97640771874998,59.0,99.0
951,192.66908296249997,193.08309558749997,62.0,98.0
952,192.09583471249996,193.10061150624998,50.0,85.0
953,191.71366921249998,193.10379621874998,43.0,97.0
954,193.05124846249998,193.12449684999999,55.0,88.0
955,193.24233121249998,193.52417826874998,57.0,96.0
956,193.24233121249998,193.63245849374997,60.0,98.0
957,193.81557946249998,194.07354117499997,64.0,98.0
958,193.81557946249998,194.09264944999998,57.0,99.0
959,194.19774496249997,194.385643,57.0,91.0
960,194.19774496249997,194.41430541249997,60.0,98.0
961,193.24233121249998,194.68500597499997,45.0,97.0
962,193.6244967125,194.69774482499997,52.0,88.0
963,194.57991046249998,194.71207603124998,57.0,95.0
964,194.77099321249997,195.00984665,57.0,88.0
965,194.77099321249997,195.14678928749998,60.0,100.0
966,194.77099321249997,195.18819054999997,64.0,100.0
967,194.77099321249997,195.19615233124998,69.0,96.0
968,194.77099321249997,195.41589749374998,45.0,98.0
969,195.1531587125,195.41748984999998,52.0,97.0
970,195.34424146249998,195.44296755,57.0,102.0
971,195.53532421249997,195.75188466249998,55.0,99.0
972,195.53532421249997,195.80124770624997,59.0,98.0
973,195.53532421249997,196.19137498749998,43.0,98.0
974,195.7264069625,196.20570619375,50.0,94.0
975,195.9174897125,196.21048326249996,55.0,98.0
976,196.10857246249998,196.21366797499996,59.0,90.0
977,196.29965521249997,196.78054679999997,57.0,98.0
978,196.29965521249997,196.81876334999998,53.0,97.0
979,196.87290346249998,197.02576966249998,53.0,71.0
980,196.87290346249998,197.09105626874998,57.0,95.0
981,196.87290346249998,197.13564224374997,60.0,97.0
982,197.2550689625,197.42863579374998,53.0,86.0
983,196.29965521249997,197.67385865625,41.0,97.0
984,197.2550689625,197.68500514999997,57.0,94.0
985,196.68182071249998,197.68659750624997,48.0,89.0
986,197.2550689625,197.71844463124998,60.0,96.0
987,197.63723446249998,197.72162934374998,53.0,99.0
988,197.2550689625,197.79328537499998,65.0,97.0
989,197.82831721249997,198.21048271249998,55.0,97.0
990,197.82831721249997,198.26303046874997,59.0,96.0
991,198.40156546249997,198.66748895624997,55.0,93.0
992,198.40156546249997,198.72640613749996,59.0,96.0
993,198.40156546249997,198.74073734374997,62.0,94.0
994,198.7837309625,198.83627871874998,62.0,79.0
995,198.21048271249998,198.90315768124998,50.0,91.0
996,198.7837309625,199.02258439999997,55.0,103.0
997,197.82831721249997,199.24710663124998,43.0,97.0
998,198.97481371249998,199.26939961875,50.0,98.0
999,199.3569792125,199.75347591874998,57.0,96.0
1000,199.3569792125,199.79646953749997,69.0,95.0
1001,199.3569792125,199.80124660624998,45.0,98.0
1002,199.73914471249998,199.85697907499997,52.0,91.0
1003,199.93022746249997,200.41908083124997,59.0,96.0
1004,199.93022746249997,200.42863496874998,47.0,99.0
1005,199.93022746249997,200.44933559999998,71.0,97.0
1006,200.50347571249998,200.95888959999996,60.0,97.0
1007,200.50347571249998,200.97640551874997,72.0,96.0
1008,200.50347571249998,200.98277494374997,48.0,102.0
1009,201.07672396249998,201.50188308124999,62.0,96.0
1010,201.07672396249998,201.51939899999996,50.0,102.0
1011,201.07672396249998,201.52258371249997,57.0,100.0
1012,201.07672396249998,201.52576842499997,74.0,99.0
1013,201.6499722125,201.88086386874997,64.0,98.0
1014,201.6499722125,201.91271099374998,52.0,102.0
1015,201.6499722125,201.91589570624998,76.0,99.0
1016,202.03213771249997,202.30761534374997,67.0,92.0
1017,202.03213771249997,202.31716948124998,79.0,96.0
1018,202.03213771249997,202.32353890624998,55.0,97.0
1019,202.4143032125,202.7072967625,57.0,90.0
1020,202.4143032125,203.00665973749997,65.0,96.0
1021,202.79646871249997,203.12608645625,57.0,95.0
1022,203.36971696249998,203.78850665624998,60.0,102.0
1023,202.4143032125,203.8155767125,41.0,97.0
1024,202.98755146249997,203.83786969999997,48.0,91.0
1025,203.75188246249996,204.24073583125,65.0,97.0
1026,203.94296521249998,204.29487594375,55.0,93.0
1027,203.94296521249998,204.32990778124997,59.0,88.0
1028,204.5162134625,204.86175476875,55.0,101.0
1029,204.89837896249998,205.20570371875,59.0,99.0
1030,204.89837896249998,205.31239158749997,62.0,98.0
1031,204.32513071249997,205.32990750624998,50.0,85.0
1032,203.94296521249998,205.33309221874998,43.0,97.0
1033,205.2805444625,205.35379285,55.0,88.0
1034,205.47162721249998,205.75347426874998,57.0,96.0
1035,205.47162721249998,205.86175449374997,60.0,98.0
1036,206.0448754625,206.30283717499998,64.0,98.0
1037,206.0448754625,206.32194545,57.0,99.0
1038,206.42704096249997,206.614939,57.0,91.0
1039,206.42704096249997,206.64360141249998,60.0,98.0
1040,205.47162721249998,206.91430197499997,45.0,97.0
1041,205.85379271249997,206.92704082499998,52.0,88.0
1042,206.8092064625,206.94137203124998,57.0,95.0
1043,207.00028921249998,207.23914264999996,57.0,88.0
1044,207.00028921249998,207.37608528749996,60.0,100.0
1045,207.00028921249998,207.41748654999998,64.0,100.0
1046,207.00028921249998,207.42544833124998,69.0,96.0
1047,207.00028921249998,207.64519349374999,45.0,98.0
1048,207.38245471249996,207.64678585,52.0,97.0
1049,207.57353746249998,207.67226354999997,57.0,102.0
1050,207.76462021249998,207.98118066249998,55.0,99.0
1051,207.76462021249998,208.03054370624997,59.0,98.0
1052,207.76462021249998,208.4206709875,43.0,98.0
1053,207.95570296249997,208.43500219374997,50.0,94.0
1054,208.1467857125,208.43977926249997,55.0,98.0
1055,208.33786846249998,208.44296397499997,59.0,90.0
1056,208.52895121249998,209.00984279999997,57.0,98.0
1057,208.52895121249998,209.04805935,53.0,97.0
1058,209.10219946249998,209.2550656625,53.0,71.0
1059,209.10219946249998,209.32035226874999,57.0,95.0
1060,209.10219946249998,209.36493824374998,60.0,97.0
1061,209.48436496249997,209.65793179374998,53.0,86.0
1062,208.52895121249998,209.90315465624997,41.0,97.0
1063,209.48436496249997,209.91430114999997,57.0,94.0
1064,208.9111167125,209.91589350624997,48.0,89.0
1065,209.48436496249997,209.94774063124999,60.0,96.0
1066,209.86653046249998,209.95092534375,53.0,99.0
1067,209.48436496249997,210.022581375,65.0,97.0
1068,210.05761321249997,210.4397787125,55.0,97.0
1069,210.05761321249997,210.49232646874998,59.0,96.0
1070,210.63086146249998,210.89678495624997,55.0,93.0
1071,210.63086146249998,210.95570213749997,59.0,96.0
1072,210.63086146249998,210.97003334374998,62.0,94.0
1073,211.01302696249996,211.06557471874999,62.0,79.0
1074,210.4397787125,211.13245368124998,50.0,91.0
1075,211.01302696249996,211.25188039999998,55.0,103.0
1076,210.05761321249997,211.47640263124998,43.0,97.0
1077,211.20410971249999,211.49869561875,50.0,98.0
1078,211.58627521249997,211.88404583124998,55.0,98.0
1079,211.58627521249997,212.02258082499998,60.0,97.0
1080,212.15952346249998,212.37449155624998,55.0,101.0
1081,212.15952346249998,212.55283545624997,60.0,101.0
1082,212.15952346249998,212.60060614374999,64.0,102.0
1083,211.96844071249998,212.65793096874998,52.0,96.0
1084,211.58627521249997,212.66430039374998,48.0,107.0
1085,212.54168896249996,212.82512837499996,55.0,101.0
1086,212.73277171249998,212.82672073124996,60.0,99.0
1087,213.11493721249997,213.47321736874997,52.0,98.0
1088,213.11493721249997,213.54805811249997,64.0,98.0
1089,213.11493721249997,213.59742115625,40.0,102.0
1090,213.11493721249997,213.63723006249998,68.0,100.0
1091,213.68818546249997,214.19455474999998,69.0,100.0
1092,213.68818546249997,214.21844009374996,42.0,103.0
1093,213.68818546249997,214.290096125,54.0,90.0
1094,214.26143371249998,214.61812151249998,71.0,99.0
1095,214.26143371249998,214.62289858124998,56.0,97.0
1096,214.26143371249998,214.63882214374996,44.0,107.0
1097,214.64359921249996,214.93659276249997,57.0,90.0
1098,214.64359921249996,215.23595573749998,65.0,96.0
1099,215.02576471249998,215.35538245624997,57.0,95.0
1100,215.59901296249998,216.01780265624998,60.0,102.0
1101,214.64359921249996,216.04487271249997,41.0,97.0
1102,215.21684746249997,216.06716569999998,48.0,91.0
1103,215.98117846249997,216.47003183124997,65.0,97.0
1104,216.17226121249996,216.52417194375,55.0,93.0
1105,216.17226121249996,216.55920378124998,59.0,88.0
1106,216.74550946249997,217.09105076875,55.0,101.0
1107,217.12767496249998,217.43499971874996,59.0,99.0
1108,217.12767496249998,217.54168758749998,62.0,98.0
1109,216.55442671249997,217.55920350625,50.0,85.0
1110,216.17226121249996,217.56238821875,43.0,97.0
1111,217.5098404625,217.58308884999997,55.0,88.0
1112,217.7009232125,217.98277026874996,57.0,96.0
1113,217.7009232125,218.09105049374998,60.0,98.0
1114,218.27417146249996,218.53213317499998,64.0,98.0
1115,218.27417146249996,218.55124144999996,57.0,99.0
1116,218.65633696249998,218.84423499999997,57.0,91.0
1117,218.65633696249998,218.87289741249998,60.0,98.0
1118,217.7009232125,219.14359797499998,45.0,97.0
1119,218.08308871249997,219.15633682499998,52.0,88.0
1120,219.0385024625,219.17066803125,57.0,95.0
1121,219.40155968749997,220.73595422499997,45.0,86.0
1122,219.19933044374997,220.74710071874998,38.0,100.0
1123,219.77735576249998,222.38722765625,57.0,84.0
1124,222.30283277499998,222.38722765625,57.0,84.0
1125,219.55761059999998,222.392004725,50.0,86.0
1126,219.67862967499997,222.39837414999997,54.0,86.0
1127,219.85538121874998,222.41270535624997,62.0,91.0
1128,222.24073088125,222.93181349374998,53.0,81.0
1129,222.36174995624998,223.38881973749997,60.0,89.0
1130,223.13722744999998,223.41429743749998,53.0,89.0
1131,222.31397926874996,223.60378783124997,41.0,96.0
1132,222.70569890624998,223.61334196874998,48.0,80.0
1133,223.95410620624997,225.58627136249999,43.0,96.0
1134,223.95569856249998,225.89359611874997,55.0,91.0
1135,223.96525269999998,225.93022031249998,59.0,91.0
1136,226.25983805624998,228.01620699999998,52.0,85.0
1137,225.84104836249998,228.09104774374998,45.0,97.0
1138,227.5480542625,228.16907319999999,69.0,61.0
1139,227.06716267499996,228.17862733749996,64.0,88.0
1140,226.65792711874997,228.23117509374998,57.0,91.0
1141,228.5972922395833,229.73992532083332,53.0,85.0
1142,228.65998815625,229.7493297083333,57.0,85.0
1143,228.72895366458332,229.82769960416664,60.0,79.0
1144,228.64901637083332,229.95309143749998,41.0,96.0
1145,230.49227632083333,232.0633466333333,50.0,87.0
1146,230.21484688958333,232.07411584166664,43.0,97.0
1147,230.16625755416666,232.07873121666665,55.0,77.0
1148,230.29164938749997,232.08488505,59.0,88.0
1149,230.40450203749998,232.09565425833333,62.0,90.0
1150,232.10334655,234.2266885583333,50.0,85.0
1151,232.1679618,234.25268240833333,54.0,77.0
1152,232.14180800833333,234.2725600583333,38.0,94.0
1153,232.25873084166665,234.2725600583333,62.0,88.0
1154,232.18950021666666,234.27867625833332,57.0,79.0
1155,234.3444254083333,235.71496678958331,41.0,88.0
1156,234.53025373958332,235.72770563958332,48.0,92.0
1157,234.7213364895833,235.82324701458333,53.0,89.0
1158,234.91241923958333,235.87738712708332,57.0,94.0
1159,235.2945847395833,235.90127247083333,60.0,93.0
1160,235.86783298958332,237.2452211458333,43.0,87.0
1161,236.0589157395833,237.26751413333332,50.0,90.0
1162,236.24999848958333,237.36464786458333,55.0,91.0
1163,236.44108123958333,237.43152682708333,59.0,92.0
1164,237.39649498958332,238.80254555833332,45.0,96.0
1165,237.5875777395833,238.81050733958332,52.0,90.0
1166,237.77866048958333,239.16082571458332,57.0,86.0
1167,237.96974323958332,239.31369191458333,60.0,95.0
1168,238.3519087395833,239.3296154770833,64.0,94.0
1169,238.92515698958331,239.5525453520833,45.0,96.0
1170,239.1162397395833,239.74203574583333,52.0,90.0
1171,239.30732248958333,239.78980643333333,57.0,88.0
1172,239.49840523958332,240.08757705208333,60.0,97.0
1173,239.6894879895833,240.3073222145833,43.0,95.0
1174,239.88057073958333,240.32483813333332,52.0,90.0
1175,240.26273623958332,240.47133490833332,60.0,95.0
1176,240.07165348958333,240.47292726458332,55.0,97.0
1177,240.84235391458333,241.46496520833333,53.0,88.0
1178,240.4474495645833,241.86305427083332,41.0,95.0
1179,240.64330938333333,241.86623898333332,48.0,85.0
1180,241.0079589645833,242.08916885833332,60.0,91.0
1181,241.41082509583333,242.24362741458333,65.0,96.0
1182,242.52388211458333,243.07165266458333,55.0,93.0
1183,242.79617503333333,243.14490105208333,62.0,90.0
1184,243.1034997895833,243.2515889208333,67.0,92.0
1185,243.4585952333333,243.68789453333332,67.0,87.0
1186,243.4554105208333,243.76273527708332,74.0,94.0
1187,243.8694231458333,243.98566515208333,74.0,81.0
1188,243.84872251458333,244.3614612270833,79.0,88.0
1189,242.27706689583331,244.39808542083333,50.0,91.0
1190,242.0525446645833,244.5684675395833,43.0,97.0
1191,246.36146067708333,246.9426707083333,57.0,80.0
1192,246.57165170208333,246.99521846458333,62.0,86.0
1193,246.9315242145833,247.13853052708333,64.0,89.0
1194,247.37260689583331,247.5031801083333,69.0,90.0
1195,248.44107793958332,248.60349827708333,74.0,90.0
1196,248.56209701458332,248.66241545833333,81.0,88.0
1197,246.14171551458332,249.3184662333333,52.0,82.0
1198,245.93152448958332,249.36145985208333,45.0,94.0
