,start,end,pitch,velocity
0,0.26041625,0.6006934833333333,88.0,97.0
1,0.67708225,0.9809012083333333,91.0,92.0
2,1.09374825,1.2725674083333334,90.0,93.0
3,1.3020812499999999,1.5520808499999998,93.0,91.0
4,1.7187472499999998,2.0138856666666665,88.0,95.0
5,2.1388854666666663,2.2725658083333333,88.0,92.0
6,2.3472184666666664,2.6493013166666666,91.0,92.0
7,2.7638844666666667,3.2447864749999997,90.0,89.0
8,3.5972164666666666,3.9374936999999997,88.0,97.0
9,4.013882466666667,4.317701425,91.0,92.0
10,4.430548466666666,4.609367625,90.0,93.0
11,4.638881466666667,4.888881066666666,93.0,91.0
12,5.055547466666667,5.350685883333333,88.0,95.0
13,5.472213466666666,5.605893808333333,88.0,92.0
14,5.680546466666667,5.982629316666666,91.0,92.0
15,6.097212466666666,6.578114475,90.0,89.0
16,6.9305444666666665,7.2708217,88.0,97.0
17,7.347210466666667,7.651029425,91.0,92.0
18,7.763876466666666,7.942695625,90.0,93.0
19,7.9722094666666665,8.222209066666666,93.0,91.0
20,8.388875466666667,8.684013883333334,88.0,95.0
21,8.805541466666666,8.939221808333333,88.0,92.0
22,9.013874466666666,9.315957316666665,91.0,92.0
23,9.430540466666667,9.911442475,90.0,89.0
24,10.263872466666665,10.604149699999999,88.0,97.0
25,10.680538466666667,10.984357424999999,91.0,92.0
26,11.097204466666666,11.276023624999999,90.0,93.0
27,11.305537466666665,13.180534466666666,93.0,91.0
28,13.597200466666665,13.937477699999999,88.0,97.0
29,13.597200466666665,14.024283116666666,71.0,90.0
30,14.013866466666666,14.216991141666666,76.0,83.0
31,14.013866466666666,14.317685424999999,91.0,92.0
32,14.222199466666666,14.493032366666666,71.0,87.0
33,14.430532466666666,14.609351624999999,90.0,93.0
34,14.430532466666666,14.67705985,74.0,77.0
35,14.638865466666665,14.888865066666666,93.0,91.0
36,14.638865466666665,14.928795558333332,76.0,83.0
37,15.055531466666666,15.216989541666665,76.0,81.0
38,15.055531466666666,15.350669883333333,88.0,95.0
39,15.472197466666666,15.605877808333332,88.0,92.0
40,15.263864466666666,15.666641599999998,72.0,82.0
41,15.680530466666665,15.821155241666666,76.0,87.0
42,15.680530466666665,15.982613316666665,91.0,92.0
43,15.888863466666667,16.059002083333333,71.0,86.0
44,16.097196466666666,16.276015625,74.0,84.0
45,16.097196466666666,16.578098475,90.0,89.0
46,16.305529466666666,16.78122315,76.0,85.0
47,16.930528466666665,17.255180725,74.0,86.0
48,16.930528466666665,17.2708057,88.0,97.0
49,17.347194466666664,17.494763674999998,76.0,86.0
50,17.347194466666664,17.651013425,91.0,92.0
51,17.555527466666668,17.748235491666666,71.0,80.0
52,17.763860466666667,17.90622135,74.0,86.0
53,17.763860466666667,17.942679625,90.0,93.0
54,17.972193466666667,18.222193066666666,76.0,84.0
55,17.972193466666667,18.222193066666666,93.0,91.0
56,18.388859466666666,18.683997883333333,88.0,95.0
57,18.388859466666666,18.815942116666665,76.0,87.0
58,18.805525466666666,18.939205808333334,88.0,92.0
59,19.013858466666665,19.180524866666666,76.0,86.0
60,19.013858466666665,19.315941316666667,91.0,92.0
61,19.222191466666665,19.411427274999998,71.0,79.0
62,19.430524466666665,19.5624687,74.0,82.0
63,19.430524466666665,19.911426475,90.0,89.0
64,19.638857466666664,20.027745733333333,76.0,88.0
65,20.263856466666667,20.6041337,88.0,97.0
66,20.263856466666667,20.690939116666666,71.0,90.0
67,20.680522466666666,20.883647141666664,76.0,83.0
68,20.680522466666666,20.984341425,91.0,92.0
69,20.888855466666666,21.159688366666664,71.0,87.0
70,21.097188466666665,21.276007625,90.0,93.0
71,21.097188466666665,21.34371585,74.0,77.0
72,21.305521466666665,21.555521066666664,93.0,91.0
73,21.305521466666665,21.595451558333334,76.0,83.0
74,21.722187466666664,21.883645541666667,76.0,81.0
75,21.722187466666664,22.01732588333333,88.0,95.0
76,22.138853466666667,22.272533808333332,88.0,92.0
77,21.930520466666664,22.333297599999998,72.0,82.0
78,22.347186466666667,22.487811241666666,76.0,87.0
79,22.347186466666667,22.649269316666665,91.0,92.0
80,22.555519466666667,22.725658083333332,71.0,86.0
81,22.763852466666666,22.942671625,74.0,84.0
82,22.763852466666666,23.244754475,90.0,89.0
83,22.972185466666666,23.44787915,76.0,85.0
84,23.597184466666665,23.921836725,74.0,86.0
85,23.597184466666665,23.9374617,88.0,97.0
86,24.013850466666664,24.161419674999998,76.0,86.0
87,24.013850466666664,24.317669425,91.0,92.0
88,24.222183466666664,24.414891491666666,71.0,80.0
89,24.430516466666667,24.57287735,74.0,86.0
90,24.430516466666667,24.609335625,90.0,93.0
91,24.638849466666667,24.888849066666666,76.0,84.0
92,24.638849466666667,24.888849066666666,93.0,91.0
93,25.055515466666666,25.350653883333333,88.0,95.0
94,25.055515466666666,25.482598116666665,76.0,87.0
95,25.472181466666665,25.605861808333334,88.0,92.0
96,25.680514466666665,25.847180866666665,76.0,86.0
97,25.680514466666665,25.982597316666666,91.0,92.0
98,25.888847466666665,26.078083274999997,71.0,79.0
99,26.097180466666664,26.2291247,74.0,82.0
100,26.097180466666664,26.578082475,90.0,89.0
101,26.305513466666664,26.694401733333333,76.0,88.0
102,38.597160466666665,38.873201691666665,79.0,88.0
103,38.80549346666667,39.043340308333335,74.0,87.0
104,39.013826466666664,39.25167330833333,71.0,90.0
105,39.22215946666667,39.47042295833333,79.0,87.0
106,39.430492466666664,39.703061475,78.0,89.0
107,39.63882546666667,39.8541029,74.0,87.0
108,39.84715846666666,40.09542195833333,71.0,87.0
109,40.055491466666666,40.20479678333333,74.0,86.0
110,40.26382446666666,40.704795983333334,72.0,82.0
111,40.26382446666666,40.72215706666667,67.0,74.0
112,40.888823466666665,41.01035105,72.0,74.0
113,40.888823466666665,41.024239916666666,67.0,70.0
114,41.09715646666667,41.461739216666665,67.0,79.0
115,41.09715646666667,41.56590571666666,72.0,86.0
116,41.72215546666666,42.01902999166666,74.0,84.0
117,41.72215546666666,42.027710533333334,69.0,75.0
118,42.13882146666666,42.223890775,74.0,84.0
119,42.13882146666666,42.23777964166666,69.0,74.0
120,42.347154466666666,42.453057075,74.0,84.0
121,42.347154466666666,42.47562648333333,69.0,75.0
122,42.55548746666666,42.664862291666665,74.0,86.0
123,42.55548746666666,42.67007061666666,69.0,74.0
124,42.763820466666665,43.24645858333333,69.0,78.0
125,42.763820466666665,43.2707641,74.0,87.0
126,43.597152466666664,44.093679449999996,74.0,86.0
127,43.597152466666664,44.10583220833333,71.0,78.0
128,44.222151466666666,44.348887375,74.0,86.0
129,44.222151466666666,44.36451235,71.0,76.0
130,44.43048446666666,44.859303225,71.0,79.0
131,44.43048446666666,44.906178149999995,74.0,90.0
132,45.055483466666665,45.373191291666664,76.0,82.0
133,45.055483466666665,45.37666350833333,71.0,81.0
134,45.472149466666664,45.565899316666666,76.0,81.0
135,45.472149466666664,45.567635425,71.0,74.0
136,45.68048246666667,45.784648966666666,71.0,77.0
137,45.68048246666667,45.79506561666666,76.0,80.0
138,45.888815466666664,46.003398616666665,71.0,78.0
139,45.888815466666664,46.015551375,76.0,80.0
140,46.09714846666667,46.640550375,71.0,81.0
141,46.09714846666667,46.6874253,76.0,86.0
142,46.930480466666666,47.482562916666666,72.0,83.0
143,46.930480466666666,47.508604541666664,69.0,71.0
144,47.55547946666667,47.65443764166667,69.0,69.0
145,47.55547946666667,47.65617375,72.0,78.0
146,47.763812466666664,48.2290895,72.0,85.0
147,47.763812466666664,48.24645058333333,69.0,81.0
148,48.38881146666667,48.713463725,67.0,81.0
149,48.38881146666667,48.713463725,72.0,85.0
150,48.805477466666666,48.90617175,72.0,81.0
151,48.805477466666666,48.90790785833333,67.0,76.0
152,49.01381046666666,49.328046074999996,67.0,79.0
153,49.01381046666666,49.328046074999996,72.0,82.0
154,49.43047646666666,49.91832290833333,67.0,84.0
155,49.43047646666666,50.06589211666667,72.0,86.0
156,50.26380846666667,50.557210774999994,74.0,85.0
157,50.26380846666667,50.56936353333333,69.0,76.0
158,50.680474466666666,50.921793525,74.0,86.0
159,50.680474466666666,50.933946283333334,69.0,78.0
160,51.097140466666666,51.40443164166666,74.0,87.0
161,51.097140466666666,51.411376075,69.0,79.0
162,51.513806466666665,51.604084099999994,74.0,86.0
163,51.513806466666665,51.61450075,69.0,76.0
164,51.72213946666666,53.30894248333333,69.0,79.0
165,51.72213946666666,53.30894248333333,74.0,87.0
166,53.59713646666666,53.88533045,79.0,84.0
167,53.805469466666665,54.093663449999994,71.0,86.0
168,54.01380246666666,54.26380206666666,76.0,81.0
169,54.222135466666664,55.04505081666667,79.0,87.0
170,54.63880146666666,55.161370075,76.0,85.0
171,55.05546746666666,55.269008791666664,71.0,80.0
172,55.263800466666666,55.593661049999994,79.0,86.0
173,55.47213346666666,55.75338301666667,72.0,81.0
174,55.680466466666665,55.942618825,76.0,85.0
175,55.88879946666666,56.34539595833333,79.0,87.0
176,56.30546546666666,56.739492549999994,76.0,86.0
177,56.72213146666667,56.93567279166666,72.0,78.0
178,56.93046446666666,57.213450124999994,78.0,89.0
179,57.13879746666667,57.42351923333333,69.0,87.0
180,57.34713046666666,57.59539395833333,74.0,74.0
181,57.555463466666666,58.03115715,78.0,90.0
182,58.388795466666664,58.62143398333333,69.0,75.0
183,57.972129466666665,58.623170091666665,74.0,88.0
184,58.59712846666666,59.14400259166666,79.0,86.0
185,59.22212746666666,59.421779924999996,69.0,75.0
186,59.01379446666667,59.506849233333334,74.0,85.0
187,59.430460466666666,59.94087631666667,78.0,87.0
188,59.847126466666666,60.19608424166666,74.0,85.0
189,60.263792466666665,60.46518103333333,76.0,87.0
190,60.47212546666666,60.70476398333333,71.0,87.0
191,60.680458466666664,60.921777524999996,76.0,84.0
192,60.88879146666666,61.348860175,79.0,86.0
193,61.30545746666667,61.59538755833333,76.0,83.0
194,61.51379046666666,61.947817549999996,71.0,81.0
195,61.93045646666666,62.18566439166666,78.0,79.0
196,62.138789466666665,62.421775124999996,71.0,88.0
197,62.34712246666666,62.55371935833333,74.0,88.0
198,62.555455466666665,63.0623991,78.0,88.0
199,62.972121466666664,63.234273824999995,74.0,89.0
200,63.18045446666667,63.57107884166666,71.0,84.0
201,63.59712046666667,63.89746720833333,76.0,84.0
202,63.80545346666666,64.11795296666666,67.0,64.0
203,64.01378646666666,64.24816109166666,72.0,78.0
204,64.22211946666667,64.72559088333333,76.0,84.0
205,64.63878546666666,64.89399339166667,72.0,80.0
206,64.84711846666666,65.00510432499999,67.0,80.0
207,65.26378446666666,65.48079800833332,75.0,87.0
208,65.47211746666666,65.91829730833334,71.0,84.0
209,65.68045046666667,65.99468607499999,75.0,83.0
210,65.88878346666667,66.42176872499999,78.0,86.0
211,66.30544946666666,66.5207269,75.0,85.0
212,66.51378246666667,66.93912900833332,71.0,88.0
213,66.93044846666666,67.234267425,79.0,84.0
214,67.34711446666667,67.60926682499999,76.0,87.0
215,67.13878146666666,67.62141958333333,71.0,82.0
216,67.55544746666666,68.14919651666666,79.0,87.0
217,67.97211346666667,68.25336301666667,76.0,82.0
218,68.18044646666667,68.55718197499999,71.0,88.0
219,68.59711246666666,68.859264825,76.0,86.0
220,69.01377846666666,69.23947255,72.0,79.0
221,68.80544546666667,69.255097525,69.0,81.0
222,69.22211146666666,69.69954125833333,76.0,83.0
223,69.63877746666667,69.911346475,72.0,86.0
224,69.84711046666666,70.14398499166667,69.0,81.0
225,70.26377646666667,70.45822059999999,74.0,89.0
226,70.68044246666666,70.98252531666667,74.0,86.0
227,70.47210946666667,71.20648329166666,69.0,86.0
228,70.88877546666666,71.59016323333333,78.0,84.0
229,71.30544146666666,71.79328790833333,74.0,88.0
230,71.51377446666666,71.80891288333333,69.0,85.0
231,71.93044046666667,72.29502321666666,79.0,79.0
232,72.13877346666666,72.63182823333332,71.0,86.0
233,72.34710646666666,72.682175375,74.0,87.0
234,72.76377246666667,73.04328590833333,78.0,91.0
235,72.97210546666666,73.23252171666667,74.0,87.0
236,73.18043846666666,73.59363225,71.0,87.0
237,73.59710446666666,73.82279855,79.0,75.0
238,73.80543746666666,74.057173175,71.0,89.0
239,74.01377046666666,74.275922825,76.0,78.0
240,74.22210346666667,74.6873805,79.0,86.0
241,74.63876946666666,74.85231079166667,76.0,79.0
242,74.84710246666667,75.15612974999999,71.0,86.0
243,75.26376846666666,75.50161530833333,78.0,86.0
244,75.47210146666666,75.66654559999999,74.0,86.0
245,75.68043446666667,75.95126736666667,71.0,87.0
246,75.88876746666666,76.38355834166666,78.0,86.0
247,76.30543346666666,76.53459976666666,74.0,87.0
248,76.51376646666667,76.76029385,71.0,86.0
249,76.93043246666666,77.17695985,72.0,80.0
250,77.13876546666667,77.42001501666667,67.0,82.0
251,77.34709846666667,77.52418151666666,72.0,80.0
252,77.55543146666666,78.05369455833333,76.0,86.0
253,77.97209746666667,78.23424982499999,72.0,80.0
254,78.18043046666666,78.32279135,67.0,82.0
255,78.59709646666666,78.80890168333333,75.0,90.0
256,78.80542946666667,79.10751231666666,71.0,85.0
257,79.01376246666666,79.12834561666666,75.0,80.0
258,79.22209546666666,79.55195605,71.0,78.0
259,79.22209546666666,79.56584491666666,75.0,84.0
260,79.22209546666666,79.57973378333332,78.0,85.0
261,79.63876146666667,80.119663475,71.0,79.0
262,79.63876146666667,80.13355234166666,78.0,74.0
263,79.63876146666667,80.13528844999999,75.0,76.0
264,80.26376046666667,82.77764533333333,76.0,91.0
265,83.18042246666667,83.57972738333333,76.0,88.0
266,83.59708846666666,85.26375246666666,74.0,88.0
267,85.26375246666666,86.67694465,71.0,90.0
268,86.93041646666666,89.71166201666666,76.0,88.0
269,89.84707846666666,90.25680003333333,76.0,85.0
270,90.26374446666667,91.90610294999999,74.0,88.0
271,91.93040846666666,93.39915611666666,71.0,89.0
272,105.26372046666665,105.53976169166665,79.0,88.0
273,105.47205346666667,105.70990030833333,74.0,87.0
274,105.68038646666666,105.91823330833333,71.0,90.0
275,105.88871946666666,106.13698295833333,79.0,87.0
276,106.09705246666667,106.36962147499999,78.0,89.0
277,106.30538546666666,106.52066289999999,74.0,87.0
278,106.51371846666666,106.76198195833332,71.0,87.0
279,106.72205146666666,106.87135678333333,74.0,86.0
280,106.93038446666667,107.37135598333333,72.0,82.0
281,106.93038446666667,107.38871706666666,67.0,74.0
282,107.55538346666665,107.67691105,72.0,74.0
283,107.55538346666665,107.69079991666666,67.0,70.0
284,107.76371646666666,108.12829921666666,67.0,79.0
285,107.76371646666666,108.23246571666667,72.0,86.0
286,108.38871546666667,108.68558999166666,74.0,84.0
287,108.38871546666667,108.69427053333332,69.0,75.0
288,108.80538146666666,108.89045077499999,74.0,84.0
289,108.80538146666666,108.90433964166667,69.0,74.0
290,109.01371446666666,109.119617075,74.0,84.0
291,109.01371446666666,109.14218648333333,69.0,75.0
292,109.22204746666667,109.33142229166666,74.0,86.0
293,109.22204746666667,109.33663061666667,69.0,74.0
294,109.43038046666666,109.91301858333333,69.0,78.0
295,109.43038046666666,109.9373241,74.0,87.0
296,110.26371246666666,110.76023945,74.0,86.0
297,110.26371246666666,110.77239220833333,71.0,78.0
298,110.88871146666666,111.015447375,74.0,86.0
299,110.88871146666666,111.03107234999999,71.0,76.0
300,111.09704446666666,111.525863225,71.0,79.0
301,111.09704446666666,111.57273814999999,74.0,90.0
302,111.72204346666666,112.03975129166666,76.0,82.0
303,111.72204346666666,112.04322350833333,71.0,81.0
304,112.13870946666667,112.23245931666666,76.0,81.0
305,112.13870946666667,112.234195425,71.0,74.0
306,112.34704246666666,112.45120896666666,71.0,77.0
307,112.34704246666666,112.46162561666667,76.0,80.0
308,112.55537546666666,112.66995861666666,71.0,78.0
309,112.55537546666666,112.68211137499999,76.0,80.0
310,112.76370846666666,113.307110375,71.0,81.0
311,112.76370846666666,113.35398529999999,76.0,86.0
312,113.59704046666666,114.14912291666666,72.0,83.0
313,113.59704046666666,114.17516454166666,69.0,71.0
314,114.22203946666666,114.32099764166666,69.0,69.0
315,114.22203946666666,114.32273375,72.0,78.0
316,114.43037246666667,114.89564949999999,72.0,85.0
317,114.43037246666667,114.91301058333333,69.0,81.0
318,115.05537146666666,115.380023725,67.0,81.0
319,115.05537146666666,115.380023725,72.0,85.0
320,115.47203746666666,115.57273174999999,72.0,81.0
321,115.47203746666666,115.57446785833332,67.0,76.0
322,115.68037046666666,115.994606075,67.0,79.0
323,115.68037046666666,115.994606075,72.0,82.0
324,116.09703646666667,116.58488290833333,67.0,84.0
325,116.09703646666667,116.73245211666666,72.0,86.0
326,116.93036846666666,117.22377077499999,74.0,85.0
327,116.93036846666666,117.23592353333333,69.0,76.0
328,117.34703446666666,117.58835352499999,74.0,86.0
329,117.34703446666666,117.60050628333333,69.0,78.0
330,117.76370046666666,118.07099164166667,74.0,87.0
331,117.76370046666666,118.077936075,69.0,79.0
332,118.18036646666665,118.2706441,74.0,86.0
333,118.18036646666665,118.28106075,69.0,76.0
334,118.38869946666667,119.97550248333333,69.0,79.0
335,118.38869946666667,119.97550248333333,74.0,87.0
336,120.26369646666666,120.55189044999999,79.0,84.0
337,120.47202946666665,120.76022345,71.0,86.0
338,120.68036246666667,120.93036206666666,76.0,81.0
339,120.88869546666666,121.71161081666666,79.0,87.0
340,121.30536146666667,121.827930075,76.0,85.0
341,121.72202746666666,121.93556879166665,71.0,80.0
342,121.93036046666666,122.26022105,79.0,86.0
343,122.13869346666667,122.41994301666666,72.0,81.0
344,122.34702646666666,122.609178825,76.0,85.0
345,122.55535946666666,123.01195595833333,79.0,87.0
346,122.97202546666666,123.40605255,76.0,86.0
347,123.38869146666666,123.60223279166667,72.0,78.0
348,123.59702446666667,123.880010125,78.0,89.0
349,123.80535746666666,124.09007923333333,69.0,87.0
350,124.01369046666666,124.26195395833332,74.0,74.0
351,124.22202346666666,124.69771714999999,78.0,90.0
352,125.05535546666665,125.28799398333332,69.0,75.0
353,124.63868946666666,125.28973009166666,74.0,88.0
354,125.26368846666666,125.81056259166667,79.0,86.0
355,125.88868746666667,126.088339925,69.0,75.0
356,125.68035446666666,126.17340923333333,74.0,85.0
357,126.09702046666666,126.60743631666666,78.0,87.0
358,126.51368646666666,126.86264424166666,74.0,85.0
359,126.93035246666666,127.13174103333333,76.0,87.0
360,127.13868546666666,127.37132398333333,71.0,87.0
361,127.34701846666665,127.588337525,76.0,84.0
362,127.55535146666666,128.015420175,79.0,86.0
363,127.97201746666666,128.26194755833333,76.0,83.0
364,128.18035046666665,128.61437755,71.0,81.0
365,128.59701646666667,128.85222439166665,78.0,79.0
366,128.80534946666666,129.088335125,71.0,88.0
367,129.01368246666667,129.22027935833333,74.0,88.0
368,129.22201546666665,129.7289591,78.0,88.0
369,129.63868146666667,129.900833825,74.0,89.0
370,129.84701446666665,130.23763884166667,71.0,84.0
371,130.26368046666667,130.56402720833333,76.0,84.0
372,130.47201346666665,130.78451296666665,67.0,64.0
373,130.68034646666666,130.91472109166665,72.0,78.0
374,130.88867946666667,131.39215088333333,76.0,84.0
375,131.30534546666667,131.56055339166667,72.0,80.0
376,131.51367846666665,131.671664325,67.0,80.0
377,131.93034446666667,132.14735800833333,75.0,87.0
378,132.13867746666665,132.58485730833334,71.0,84.0
379,132.34701046666666,132.66124607499998,75.0,83.0
380,132.55534346666667,133.088328725,78.0,86.0
381,132.97200946666666,133.1872869,75.0,85.0
382,133.18034246666667,133.60568900833331,71.0,88.0
383,133.59700846666667,133.900827425,79.0,84.0
384,134.01367446666666,134.275826825,76.0,87.0
385,133.80534146666665,134.28797958333334,71.0,82.0
386,134.22200746666667,134.81575651666665,79.0,87.0
387,134.63867346666666,134.91992301666667,76.0,82.0
388,134.84700646666667,135.223741975,71.0,88.0
389,135.26367246666666,135.525824825,76.0,86.0
390,135.68033846666665,135.90603255,72.0,79.0
391,135.47200546666667,135.921657525,69.0,81.0
392,135.88867146666666,136.36610125833332,76.0,83.0
393,136.30533746666666,136.577906475,72.0,86.0
394,136.51367046666667,136.81054499166666,69.0,81.0
395,136.93033646666666,137.12478059999998,74.0,89.0
396,137.34700246666665,137.64908531666666,74.0,86.0
397,137.13866946666667,137.87304329166665,69.0,86.0
398,137.55533546666666,138.25672323333333,78.0,84.0
399,137.97200146666665,138.45984790833333,74.0,88.0
400,138.18033446666666,138.47547288333334,69.0,85.0
401,138.59700046666666,138.96158321666667,79.0,79.0
402,138.80533346666667,139.29838823333333,71.0,86.0
403,139.01366646666665,139.348735375,74.0,87.0
404,139.43033246666667,139.70984590833334,78.0,91.0
405,139.63866546666665,139.89908171666667,74.0,87.0
406,139.84699846666666,140.26019225,71.0,87.0
407,140.26366446666665,140.48935855,79.0,75.0
408,140.47199746666666,140.723733175,71.0,89.0
409,140.68033046666665,140.94248282499998,76.0,78.0
410,140.88866346666666,141.3539405,79.0,86.0
411,141.30532946666665,141.51887079166667,76.0,79.0
412,141.51366246666666,141.82268975,71.0,86.0
413,141.93032846666665,142.16817530833333,78.0,86.0
414,142.13866146666666,142.33310559999998,74.0,86.0
415,142.34699446666667,142.61782736666666,71.0,87.0
416,142.55532746666665,143.05011834166666,78.0,86.0
417,142.97199346666665,143.20115976666665,74.0,87.0
418,143.18032646666666,143.42685385,71.0,86.0
419,143.59699246666665,143.84351985,72.0,80.0
420,143.80532546666666,144.08657501666667,67.0,82.0
421,144.01365846666667,144.19074151666666,72.0,80.0
422,144.22199146666665,144.72025455833332,76.0,86.0
423,144.63865746666667,144.90080982499998,72.0,80.0
424,144.84699046666665,144.98935135,67.0,82.0
425,145.26365646666665,145.47546168333332,75.0,90.0
426,145.47198946666666,145.77407231666666,71.0,85.0
427,145.68032246666667,145.79490561666665,75.0,80.0
428,145.88865546666665,146.21851605,71.0,78.0
429,145.88865546666665,146.23240491666667,75.0,84.0
430,145.88865546666665,146.24629378333333,78.0,85.0
431,146.30532146666667,146.78622347499999,71.0,79.0
432,146.30532146666667,146.80011234166665,78.0,74.0
433,146.30532146666667,146.80184845,75.0,76.0
434,146.93032046666667,147.37302809166667,67.0,81.0
435,147.34698646666666,147.57788887499999,66.0,76.0
436,147.55531946666667,148.23066560833334,67.0,88.0
437,148.18031846666665,148.62823441666666,71.0,90.0
438,148.59698446666667,149.03969209166667,69.0,90.0
439,149.01365046666666,149.442469225,67.0,81.0
440,149.43031646666665,149.82441305833333,66.0,86.0
441,149.84698246666667,150.26712068333333,64.0,86.0
442,150.26364846666667,150.6039257,66.0,79.0
443,150.68031446666666,151.088299925,66.0,86.0
444,151.09698046666665,151.49628538333332,64.0,88.0
445,151.51364646666667,151.86260424166667,71.0,86.0
446,151.93031246666666,152.296631325,69.0,90.0
447,152.34697846666666,152.72718619166665,67.0,86.0
448,152.76364446666665,153.4580878,66.0,88.0
449,153.59697646666666,154.03968409166666,67.0,81.0
450,154.01364246666665,154.244544875,66.0,76.0
451,154.22197546666666,154.89732160833333,67.0,88.0
452,154.84697446666667,155.29489041666665,71.0,90.0
453,155.26364046666666,155.70634809166665,69.0,90.0
454,155.68030646666665,156.10912522499999,67.0,81.0
455,156.09697246666667,156.49106905833332,66.0,86.0
456,156.51363846666666,156.93377668333332,64.0,86.0
457,156.93030446666666,157.27058169999998,66.0,79.0
458,157.34697046666665,157.754955925,66.0,86.0
459,157.76363646666667,158.16294138333333,64.0,88.0
460,158.18030246666666,158.52926024166666,69.0,86.0
461,158.59696846666665,158.96328732499998,67.0,90.0
462,159.01363446666667,159.39384219166666,66.0,86.0
463,159.43030046666667,160.1247438,64.0,88.0
464,160.26363246666665,161.64904691666666,72.0,69.0
465,160.26363246666665,161.66467189166667,76.0,79.0
466,161.93029646666665,163.27404431666665,74.0,71.0
467,161.93029646666665,163.32265535,78.0,68.0
468,163.59696046666667,164.80876408333333,78.0,78.0
469,164.84695846666665,165.22022175833334,74.0,86.0
470,165.26362446666667,166.37299769166665,76.0,82.0
471,166.93028846666667,168.5830636,79.0,75.0
472,166.93028846666667,168.60736911666666,76.0,78.0
473,170.26361646666666,172.89902891666665,74.0,79.0
474,170.26361646666666,172.91812610833333,78.0,79.0
475,173.59694446666666,173.88513845,79.0,84.0
476,173.80527746666667,174.09347144999998,71.0,86.0
477,174.01361046666665,174.26361006666667,76.0,81.0
478,174.22194346666666,175.04485881666665,79.0,87.0
479,174.63860946666665,175.16117807499998,76.0,85.0
480,175.05527546666667,175.26881679166667,71.0,80.0
481,175.26360846666665,175.59346904999998,79.0,86.0
482,175.47194146666666,175.75319101666665,72.0,81.0
483,175.68027446666665,175.94242682499998,76.0,85.0
484,175.88860746666666,176.34520395833331,79.0,87.0
485,176.30527346666665,176.73930055,76.0,86.0
486,176.72193946666667,176.93548079166666,72.0,78.0
487,176.93027246666665,177.21325812499998,78.0,89.0
488,177.13860546666666,177.42332723333334,69.0,87.0
489,177.34693846666667,177.59520195833332,74.0,74.0
490,177.55527146666665,178.03096515,78.0,90.0
491,178.38860346666667,178.62124198333333,69.0,75.0
492,177.97193746666665,178.62297809166665,74.0,88.0
493,178.59693646666665,179.14381059166666,79.0,86.0
494,179.22193546666665,179.42158792499998,69.0,75.0
495,179.01360246666667,179.50665723333333,74.0,85.0
496,179.43026846666666,179.94068431666665,78.0,87.0
497,179.84693446666665,180.19589224166666,74.0,85.0
498,180.26360046666665,180.46498903333332,76.0,87.0
499,180.47193346666666,180.70457198333332,71.0,87.0
500,180.68026646666667,180.92158552499998,76.0,84.0
501,180.88859946666665,181.348668175,79.0,86.0
502,181.30526546666667,181.59519555833333,76.0,83.0
503,181.51359846666665,181.94762555,71.0,81.0
504,181.93026446666667,182.18547239166665,78.0,79.0
505,182.13859746666665,182.42158312499998,71.0,88.0
506,182.34693046666666,182.55352735833333,74.0,88.0
507,182.55526346666664,183.0622071,78.0,88.0
508,182.97192946666667,183.234081825,74.0,89.0
509,183.18026246666665,183.57088684166666,71.0,84.0
510,183.59692846666667,183.89727520833333,76.0,84.0
511,183.80526146666665,184.11776096666665,67.0,64.0
512,184.01359446666666,184.24796909166665,72.0,78.0
513,184.22192746666667,184.72539888333333,76.0,84.0
514,184.63859346666666,184.89380139166667,72.0,80.0
515,184.84692646666664,185.004912325,67.0,80.0
516,185.26359246666667,185.48060600833333,75.0,87.0
517,185.47192546666665,185.91810530833334,71.0,84.0
518,185.68025846666666,185.99449407499998,75.0,83.0
519,185.88859146666667,186.421576725,78.0,86.0
520,186.30525746666666,186.5205349,75.0,85.0
521,186.51359046666667,186.9389370083333,71.0,88.0
522,186.93025646666666,187.234075425,79.0,84.0
523,187.34692246666665,187.609074825,76.0,87.0
524,187.13858946666664,187.62122758333334,71.0,82.0
525,187.55525546666667,188.14900451666665,79.0,87.0
526,187.97192146666666,188.25317101666667,76.0,82.0
527,188.18025446666667,188.556989975,71.0,88.0
528,188.59692046666666,188.859072825,76.0,86.0
529,189.01358646666665,189.23928055,72.0,79.0
530,188.80525346666667,189.254905525,69.0,81.0
531,189.22191946666666,189.6993492583333,76.0,83.0
532,189.63858546666665,189.911154475,72.0,86.0
533,189.84691846666666,190.14379299166666,69.0,81.0
534,190.26358446666666,190.45802859999998,74.0,89.0
535,190.68025046666665,190.98233331666665,74.0,86.0
536,190.47191746666667,191.20629129166664,69.0,86.0
537,190.88858346666666,191.58997123333333,78.0,84.0
538,191.30524946666665,191.79309590833333,74.0,88.0
539,191.51358246666666,191.80872088333334,69.0,85.0
540,191.93024846666665,192.29483121666667,79.0,79.0
541,192.13858146666666,192.63163623333332,71.0,86.0
542,192.34691446666665,192.681983375,74.0,87.0
543,192.76358046666667,193.04309390833333,78.0,91.0
544,192.97191346666665,193.23232971666667,74.0,87.0
545,193.18024646666666,193.59344025,71.0,87.0
546,193.59691246666665,193.82260655,79.0,75.0
547,193.80524546666666,194.056981175,71.0,89.0
548,194.01357846666664,194.27573082499998,76.0,78.0
549,194.22191146666665,194.6871885,79.0,86.0
550,194.63857746666665,194.85211879166667,76.0,79.0
551,194.84691046666666,195.15593775,71.0,86.0
552,195.26357646666665,195.50142330833333,78.0,86.0
553,195.47190946666666,195.66635359999998,74.0,86.0
554,195.68024246666667,195.95107536666666,71.0,87.0
555,195.88857546666665,196.38336634166666,78.0,86.0
556,196.30524146666664,196.53440776666665,74.0,87.0
557,196.51357446666665,196.76010184999998,71.0,86.0
558,196.93024046666665,197.17676785,72.0,80.0
559,197.13857346666666,197.41982301666667,67.0,82.0
560,197.34690646666667,197.52398951666666,72.0,80.0
561,197.55523946666665,198.05350255833332,76.0,86.0
562,197.97190546666667,198.23405782499998,72.0,80.0
563,198.18023846666665,198.32259935,67.0,82.0
564,198.59690446666664,198.80870968333332,75.0,90.0
565,198.80523746666665,199.10732031666666,71.0,85.0
566,199.01357046666666,199.12815361666665,75.0,80.0
567,199.22190346666665,199.55176405,71.0,78.0
568,199.22190346666665,199.56565291666666,75.0,84.0
569,199.22190346666665,199.57954178333333,78.0,85.0
570,199.63856946666667,200.11947147499998,71.0,79.0
571,199.63856946666667,200.13336034166664,78.0,74.0
572,199.63856946666667,200.13509645,75.0,76.0
573,200.26356846666667,200.70627609166667,67.0,81.0
574,200.68023446666666,200.91113687499998,66.0,76.0
575,200.88856746666664,201.56391360833334,67.0,88.0
576,201.51356646666665,201.96148241666666,71.0,90.0
577,201.93023246666667,202.37294009166666,69.0,90.0
578,202.34689846666666,202.775717225,67.0,81.0
579,202.76356446666665,203.15766105833333,66.0,86.0
580,203.18023046666667,203.60036868333333,64.0,86.0
581,203.59689646666666,203.9371737,66.0,79.0
582,204.01356246666666,204.421547925,66.0,86.0
583,204.43022846666665,204.8295333833333,64.0,88.0
584,204.84689446666667,205.19585224166667,71.0,86.0
585,205.26356046666666,205.629879325,69.0,90.0
586,205.68022646666665,206.06043419166664,67.0,86.0
587,206.09689246666665,206.79133579999998,66.0,88.0
588,206.93022446666666,207.37293209166666,67.0,81.0
589,207.34689046666665,207.577792875,66.0,76.0
590,207.55522346666666,208.23056960833333,67.0,88.0
591,208.18022246666666,208.62813841666664,71.0,90.0
592,208.59688846666666,209.03959609166665,69.0,90.0
593,209.01355446666665,209.44237322499998,67.0,81.0
594,209.43022046666667,209.82431705833332,66.0,86.0
595,209.84688646666666,210.26702468333332,64.0,86.0
596,210.26355246666665,210.60382969999998,66.0,79.0
597,210.68021846666664,211.088203925,66.0,86.0
598,211.09688446666667,211.49618938333333,64.0,88.0
599,211.51355046666666,211.86250824166666,69.0,86.0
600,211.93021646666665,212.29653532499998,67.0,90.0
601,212.34688246666667,212.72709019166666,66.0,86.0
602,212.76354846666666,213.4579918,64.0,88.0
603,213.71667194166665,213.98229651666665,71.0,127.0
604,214.046532525,214.2913238,69.0,126.0
605,214.46146241666665,214.75660083333332,71.0,127.0
606,215.22708619166664,215.47187746666665,71.0,127.0
607,215.46146081666666,215.67500214166665,69.0,122.0
608,215.6524327333333,215.79305750833333,67.0,122.0
609,215.88854346666665,216.40937596666666,71.0,127.0
610,216.90416684166667,217.13854146666665,71.0,127.0
611,217.36249944166664,217.56562411666667,69.0,127.0
612,217.77916544166666,218.0638872083333,71.0,127.0
613,218.5430531083333,218.78958049166667,71.0,127.0
614,218.75833054166665,219.00312181666666,69.0,127.0
615,218.98055240833332,219.13853826666664,67.0,127.0
616,219.192357625,219.45971830833332,69.0,127.0
617,219.61770416666667,219.97013415833334,67.0,127.0
618,220.26006425,220.50311941666666,71.0,127.0
619,220.67499414166664,220.91978541666666,69.0,127.0
620,221.09166014166667,221.45277067499998,71.0,127.0
621,221.91978381666667,222.129852925,71.0,127.0
622,222.119436275,222.35033868333332,69.0,127.0
623,222.33992203333332,222.50832454166667,67.0,127.0
624,222.5621439,222.95276827499998,71.0,127.0
625,223.55346175833333,223.81735022499998,71.0,127.0
626,223.99790549166664,224.22359957499998,69.0,127.0
627,224.42846035833333,224.76179315833332,71.0,127.0
628,225.24095905833332,225.452764275,71.0,127.0
629,225.442347625,225.67672224999998,69.0,120.0
630,225.65588895,225.81561091666666,67.0,127.0
631,225.859013625,226.1263743083333,69.0,127.0
632,226.27394351666666,226.61595685833333,67.0,127.0
633,226.9180397083333,227.14199768333333,71.0,127.0
634,227.33296959999998,227.56908033333332,69.0,127.0
635,227.74269116666665,228.04303790833333,71.0,127.0
636,228.55866208333333,228.78088395,71.0,127.0
637,228.77046729999998,228.994425275,69.0,121.0
638,228.97185586666666,229.12289729166665,67.0,124.0
639,229.2079666,229.68539639166664,71.0,127.0
640,230.21664554166665,230.48574233333332,71.0,127.0
641,230.66629759999998,230.89893611666665,69.0,127.0
642,231.10206079166664,231.37810201666665,71.0,127.0
643,231.88851786666666,232.09164254166666,71.0,127.0
644,232.09164254166666,232.317336625,69.0,105.0
645,232.296503325,232.47705859166666,67.0,124.0
646,232.5204613,232.796502525,69.0,127.0
647,232.94580784166666,233.43712649999998,67.0,127.0
648,233.59684846666664,233.9371257,88.0,97.0
649,234.01351446666666,234.317333425,91.0,92.0
650,234.43018046666666,234.608999625,90.0,93.0
651,234.63851346666667,234.88851306666666,93.0,91.0
652,235.05517946666666,235.35031788333333,88.0,95.0
653,235.47184546666665,235.6055258083333,88.0,92.0
654,235.68017846666666,235.98226131666667,91.0,92.0
655,236.09684446666665,236.577746475,90.0,89.0
656,236.93017646666667,237.2704537,88.0,97.0
657,237.34684246666666,237.65066142499998,91.0,92.0
658,237.76350846666665,237.942327625,90.0,93.0
659,237.97184146666666,238.22184106666666,93.0,91.0
660,238.38850746666665,238.68364588333333,88.0,95.0
661,238.80517346666664,238.93885380833333,88.0,92.0
662,239.01350646666666,239.31558931666666,91.0,92.0
663,239.43017246666665,239.911074475,90.0,89.0
