,start,end,pitch,velocity
0,26.930512466666666,28.00169130833333,78.0,95.0
1,28.180510466666664,28.362801841666666,78.0,93.0
2,28.423565633333332,28.91314818333333,78.0,97.0
3,29.013842466666667,29.982590916666666,76.0,87.0
4,30.263840466666664,31.178769558333332,74.0,93.0
5,31.513838466666666,31.748213091666667,74.0,87.0
6,31.930504466666665,32.366267658333335,74.0,92.0
7,32.34717046666667,33.45654369166667,71.0,86.0
8,33.597168466666666,34.69612504166666,78.0,80.0
9,34.847166466666664,35.06418000833333,78.0,90.0
10,35.06418000833333,35.682234574999995,78.0,90.0
11,35.68049846666666,35.94091471666667,76.0,84.0
12,36.09716446666666,36.49820549166667,76.0,86.0
13,36.51383046666667,36.640566375,74.0,86.0
14,36.722163466666665,37.25862094166666,74.0,88.0
15,37.34716246666667,37.494731675,69.0,88.0
16,37.55549546666666,38.13535565,71.0,79.0
17,38.180494466666666,38.348896974999995,72.0,75.0
18,38.38882746666666,39.763825266666665,71.0,78.0
19,39.84715846666666,39.96694994166666,67.0,82.0
20,40.055491466666666,40.19958845833333,69.0,86.0
21,40.26382446666666,40.364518749999995,71.0,82.0
22,40.472157466666665,40.56590731666667,71.0,84.0
23,40.68049046666666,40.7916014,71.0,86.0
24,40.888823466666665,41.01035105,71.0,86.0
25,41.09715646666667,41.62840561666666,71.0,87.0
26,41.72215546666666,42.036391075,71.0,87.0
27,42.13882146666666,42.260349049999995,71.0,87.0
28,42.347154466666666,42.487779241666665,71.0,86.0
29,42.55548746666666,42.685695591666665,71.0,86.0
30,42.763820466666665,43.060694991666665,71.0,86.0
31,43.38881946666667,43.723888375,71.0,85.0
32,43.80548546666667,43.92701305,71.0,84.0
33,44.01381846666666,44.135346049999995,71.0,84.0
34,44.222151466666666,44.33152629166666,71.0,86.0
35,44.43048446666666,44.92527534166666,71.0,88.0
36,45.055483466666665,45.388816266666666,71.0,87.0
37,45.472149466666664,45.58152429166667,74.0,87.0
38,45.68048246666667,45.859301625,74.0,87.0
39,45.888815466666664,46.05374575833333,71.0,89.0
40,46.09714846666667,46.37318969166667,76.0,86.0
41,46.513814466666666,46.82457785833333,74.0,89.0
42,46.930480466666666,47.130132925,72.0,83.0
43,47.347146466666665,47.503396216666665,71.0,87.0
44,47.55547946666667,47.72735419166666,72.0,86.0
45,47.97214546666667,48.09193694166667,71.0,87.0
46,48.18047846666666,48.359297624999996,72.0,87.0
47,48.59714446666666,48.711727616666664,71.0,87.0
48,48.805477466666666,49.02769933333333,72.0,85.0
49,49.222143466666665,49.34367105,72.0,86.0
50,49.43047646666666,49.71867045,72.0,86.0
51,49.84714246666667,50.154433641666664,71.0,89.0
52,50.26380846666667,52.01901399166666,74.0,87.0
53,53.59713646666666,53.90616375,79.0,82.0
54,54.01380246666666,54.222135466666664,78.0,86.0
55,54.222135466666664,54.45477398333333,76.0,87.0
56,54.63880146666666,55.156161749999995,71.0,89.0
57,55.263800466666666,55.55373055833333,74.0,88.0
58,55.680466466666665,55.838452325,76.0,81.0
59,55.88879946666666,56.671784325,72.0,79.0
60,56.72213146666667,56.911367274999996,71.0,84.0
61,56.93046446666666,57.25338061666666,69.0,84.0
62,57.34713046666666,57.57108844166667,71.0,82.0
63,57.555463466666666,57.848865775,72.0,84.0
64,57.972129466666665,58.53983689166667,74.0,89.0
65,58.59712846666666,59.38879386666667,71.0,84.0
66,59.430460466666666,60.07455665833333,69.0,86.0
67,60.263792466666665,60.551986449999994,67.0,84.0
68,60.680458466666664,60.83497210833333,66.0,88.0
69,60.88879146666666,61.213443725,67.0,82.0
70,61.30545746666667,61.76205395833333,74.0,87.0
71,61.93045646666666,62.258580941666665,66.0,86.0
72,62.34712246666666,62.4999,64.0,86.0
73,62.555455466666665,63.045038016666666,66.0,84.0
74,62.972121466666664,63.50857894166666,74.0,88.0
75,63.59712046666667,63.958231,76.0,81.0
76,64.01378646666666,64.192605625,74.0,88.0
77,64.22211946666667,64.98600713333333,72.0,82.0
78,65.26378446666666,65.63878386666666,75.0,82.0
79,65.68045046666667,65.84017243333334,76.0,87.0
80,65.88878346666667,66.249894,78.0,86.0
81,66.30544946666666,66.8123931,71.0,91.0
82,66.93044846666666,67.26898959166667,79.0,86.0
83,67.34711446666667,67.515516975,78.0,90.0
84,67.55544746666666,67.97211346666667,76.0,86.0
85,67.97211346666667,68.40266833333332,71.0,87.0
86,68.59711246666666,68.92697305,74.0,89.0
87,69.01377846666666,69.16481989166667,76.0,82.0
88,69.22211146666666,69.87315209166667,72.0,82.0
89,70.05544346666666,70.25683203333332,71.0,81.0
90,70.26377646666667,70.5832204,69.0,84.0
91,70.68044246666666,70.83148389166666,71.0,83.0
92,70.88877546666666,71.15613615,72.0,82.0
93,71.30544146666666,71.85231559166667,74.0,88.0
94,71.93044046666667,72.31932873333334,71.0,87.0
95,72.34710646666666,72.51030064999999,76.0,85.0
96,72.55543946666667,72.97210546666666,74.0,88.0
97,72.97210546666666,73.14918851666667,69.0,81.0
98,73.18043846666666,73.40786865833333,67.0,72.0
99,73.59710446666666,73.88356234166666,67.0,82.0
100,74.01377046666666,74.20821459999999,66.0,81.0
101,74.22210346666667,74.55543626666666,67.0,82.0
102,74.63876946666666,75.130088125,79.0,86.0
103,75.26376846666666,75.62487899999999,78.0,88.0
104,75.68043446666667,75.838420325,76.0,84.0
105,75.88876746666666,76.234253025,74.0,90.0
106,76.30543346666666,76.90786305833333,67.0,80.0
107,76.93043246666666,78.18563879166666,76.0,87.0
108,78.59709646666666,78.942582025,75.0,87.0
109,79.01376246666666,79.2082066,76.0,88.0
110,79.22209546666666,79.48772004166666,78.0,86.0
111,79.63876146666667,80.20820499999999,79.0,87.0
112,80.26376046666667,82.64222888333333,76.0,84.0
113,93.59707246666666,94.66825130833332,78.0,95.0
114,94.84707046666666,95.01026465,78.0,93.0
115,95.04325070833333,95.43387508333333,78.0,97.0
116,95.68040246666666,96.64915091666666,76.0,87.0
117,96.93040046666667,97.84532955833333,74.0,93.0
118,98.18039846666666,98.41477309166666,74.0,87.0
119,98.59706446666667,99.03282765833333,74.0,92.0
120,99.01373046666666,100.12310369166666,71.0,86.0
121,100.26372846666666,101.36268504166667,78.0,59.0
122,101.51372646666667,101.65955956666666,78.0,90.0
123,101.70296227499999,102.23768364166666,78.0,97.0
124,102.34705846666667,102.60747471666666,76.0,84.0
125,102.76372446666666,103.16476549166666,76.0,86.0
126,103.18039046666667,103.307126375,74.0,86.0
127,103.38872346666666,103.92518094166667,74.0,88.0
128,104.01372246666666,104.161291675,69.0,88.0
129,104.22205546666666,104.80191565,71.0,79.0
130,104.84705446666666,105.01545697499999,72.0,75.0
131,105.05538746666666,106.43038526666666,71.0,78.0
132,106.51371846666666,106.63350994166666,67.0,82.0
133,106.72205146666666,106.86614845833333,69.0,86.0
134,106.93038446666667,107.03107874999999,71.0,82.0
135,107.13871746666666,107.23246731666666,71.0,84.0
136,107.34705046666666,107.4581614,71.0,86.0
137,107.55538346666665,107.67691105,71.0,86.0
138,107.76371646666666,108.29496561666666,71.0,87.0
139,108.38871546666667,108.702951075,71.0,87.0
140,108.80538146666666,108.92690904999999,71.0,87.0
141,109.01371446666666,109.15433924166666,71.0,86.0
142,109.22204746666667,109.35225559166666,71.0,86.0
143,109.43038046666666,109.72725499166665,71.0,86.0
144,110.05537946666666,110.39044837499999,71.0,85.0
145,110.47204546666666,110.59357304999999,71.0,84.0
146,110.68037846666667,110.80190605,71.0,84.0
147,110.88871146666666,110.99808629166667,71.0,86.0
148,111.09704446666666,111.59183534166667,71.0,88.0
149,111.72204346666666,112.05537626666666,71.0,87.0
150,112.13870946666667,112.24808429166666,74.0,87.0
151,112.34704246666666,112.52586162499999,74.0,87.0
152,112.55537546666666,112.72030575833332,71.0,89.0
153,112.76370846666666,113.03974969166666,76.0,86.0
154,113.18037446666666,113.49113785833333,74.0,89.0
155,113.59704046666666,113.79669292499999,72.0,83.0
156,114.01370646666666,114.16995621666666,71.0,87.0
157,114.22203946666666,114.39391419166667,72.0,86.0
158,114.63870546666666,114.75849694166666,71.0,87.0
159,114.84703846666666,115.025857625,72.0,87.0
160,115.26370446666667,115.37828761666667,71.0,87.0
161,115.47203746666666,115.69425933333333,72.0,85.0
162,115.88870346666666,116.01023105,72.0,86.0
163,116.09703646666667,116.38523045,72.0,86.0
164,116.51370246666666,116.82099364166666,71.0,89.0
165,116.93036846666666,118.68557399166666,74.0,87.0
166,120.26369646666666,120.57272375,79.0,82.0
167,120.68036246666667,120.88869546666666,78.0,86.0
168,120.88869546666666,121.12133398333333,76.0,87.0
169,121.30536146666667,121.82272175,71.0,89.0
170,121.93036046666666,122.22029055833333,74.0,88.0
171,122.34702646666666,122.505012325,76.0,81.0
172,122.55535946666666,123.338344325,72.0,79.0
173,123.38869146666666,123.577927275,71.0,84.0
174,123.59702446666667,123.91994061666666,69.0,84.0
175,124.01369046666666,124.23764844166666,71.0,82.0
176,124.22202346666666,124.515425775,72.0,84.0
177,124.63868946666666,125.20639689166666,74.0,89.0
178,125.26368846666666,126.05535386666666,71.0,84.0
179,126.09702046666666,126.74111665833333,69.0,86.0
180,126.93035246666666,127.21854644999999,67.0,84.0
181,127.34701846666665,127.50153210833332,66.0,88.0
182,127.55535146666666,127.880003725,67.0,82.0
183,127.97201746666666,128.42861395833333,74.0,87.0
184,128.59701646666667,128.92514094166665,66.0,86.0
185,129.01368246666667,129.16646,64.0,86.0
186,129.22201546666665,129.71159801666667,66.0,84.0
187,129.63868146666667,130.17513894166666,74.0,88.0
188,130.26368046666667,130.624791,76.0,81.0
189,130.68034646666666,130.859165625,74.0,88.0
190,130.88867946666667,131.65256713333332,72.0,82.0
191,131.93034446666667,132.30534386666665,75.0,82.0
192,132.34701046666666,132.50673243333333,76.0,87.0
193,132.55534346666667,132.916454,78.0,86.0
194,132.97200946666666,133.47895309999998,71.0,91.0
195,133.59700846666667,133.93554959166667,79.0,86.0
196,134.01367446666666,134.182076975,78.0,90.0
197,134.22200746666667,134.63867346666666,76.0,86.0
198,134.63867346666666,135.0692283333333,71.0,87.0
199,135.26367246666666,135.59353305,74.0,89.0
200,135.68033846666665,135.83137989166667,76.0,82.0
201,135.88867146666666,136.53971209166667,72.0,82.0
202,136.72200346666665,136.92339203333333,71.0,81.0
203,136.93033646666666,137.2497804,69.0,84.0
204,137.34700246666665,137.49804389166667,71.0,83.0
205,137.55533546666666,137.82269614999998,72.0,82.0
206,137.97200146666665,138.51887559166667,74.0,88.0
207,138.59700046666666,138.98588873333333,71.0,87.0
208,139.01366646666665,139.17686064999998,76.0,85.0
209,139.22199946666666,139.63866546666665,74.0,88.0
210,139.63866546666665,139.81574851666667,69.0,81.0
211,139.84699846666666,140.07442865833332,67.0,72.0
212,140.26366446666665,140.55012234166665,67.0,82.0
213,140.68033046666665,140.8747746,66.0,81.0
214,140.88866346666666,141.22199626666665,67.0,82.0
215,141.30532946666665,141.796648125,79.0,86.0
216,141.93032846666665,142.291439,78.0,88.0
217,142.34699446666667,142.504980325,76.0,84.0
218,142.55532746666665,142.900813025,74.0,90.0
219,142.97199346666665,143.57442305833334,67.0,80.0
220,143.59699246666665,144.85219879166667,76.0,87.0
221,145.26365646666665,145.60914202499998,75.0,87.0
222,145.68032246666667,145.8747666,76.0,88.0
223,145.88865546666665,146.15428004166665,78.0,86.0
224,146.30532146666667,146.874765,79.0,87.0
225,146.93032046666667,149.30878888333334,76.0,84.0
226,159.84696646666666,159.96675794166666,67.0,82.0
227,160.05529946666667,160.19939645833333,69.0,86.0
228,160.26363246666665,160.36432675,71.0,82.0
229,160.47196546666666,160.56571531666665,71.0,84.0
230,160.68029846666667,160.7914094,71.0,86.0
231,160.88863146666665,161.01015905,71.0,86.0
232,161.09696446666666,161.62821361666667,71.0,87.0
233,161.72196346666666,162.03619907499998,71.0,87.0
234,162.13862946666666,162.26015705,71.0,87.0
235,162.34696246666667,162.48758724166666,71.0,86.0
236,162.55529546666665,162.68550359166665,71.0,86.0
237,162.76362846666666,163.06050299166665,71.0,86.0
238,163.38862746666666,163.723696375,71.0,85.0
239,163.80529346666665,163.92682105,71.0,84.0
240,164.01362646666666,164.13515404999998,71.0,84.0
241,164.22195946666665,164.33133429166665,71.0,86.0
242,164.43029246666666,164.92508334166666,71.0,88.0
243,165.05529146666666,165.38862426666665,71.0,87.0
244,165.47195746666665,165.58133229166666,74.0,87.0
245,165.68029046666666,165.859109625,74.0,87.0
246,165.88862346666667,166.05355375833332,71.0,89.0
247,166.09695646666665,166.37299769166665,76.0,86.0
248,166.51362246666665,166.82438585833333,74.0,89.0
249,166.93028846666667,167.129940925,72.0,83.0
250,167.34695446666666,167.50320421666666,71.0,87.0
251,167.55528746666667,167.72716219166665,72.0,86.0
252,167.97195346666666,168.09174494166666,71.0,87.0
253,168.18028646666667,168.35910562499998,72.0,87.0
254,168.59695246666666,168.71153561666665,71.0,87.0
255,168.80528546666665,169.02750733333332,72.0,85.0
256,169.22195146666667,169.34347904999998,72.0,86.0
257,169.43028446666665,169.71847845,72.0,86.0
258,169.84695046666667,170.15424164166666,71.0,89.0
259,170.26361646666666,172.01882199166667,74.0,87.0
260,173.59694446666666,173.90597175,79.0,82.0
261,174.01361046666665,174.22194346666666,78.0,86.0
262,174.22194346666666,174.45458198333333,76.0,87.0
263,174.63860946666665,175.15596975,71.0,89.0
264,175.26360846666665,175.55353855833332,74.0,88.0
265,175.68027446666665,175.838260325,76.0,81.0
266,175.88860746666666,176.671592325,72.0,79.0
267,176.72193946666667,176.911175275,71.0,84.0
268,176.93027246666665,177.25318861666665,69.0,84.0
269,177.34693846666667,177.57089644166666,71.0,82.0
270,177.55527146666665,177.84867377499998,72.0,84.0
271,177.97193746666665,178.53964489166665,74.0,89.0
272,178.59693646666665,179.38860186666665,71.0,84.0
273,179.43026846666666,180.07436465833334,69.0,86.0
274,180.26360046666665,180.55179445,67.0,84.0
275,180.68026646666667,180.83478010833332,66.0,88.0
276,180.88859946666665,181.213251725,67.0,82.0
277,181.30526546666667,181.76186195833333,74.0,87.0
278,181.93026446666667,182.25838894166665,66.0,86.0
279,182.34693046666666,182.499708,64.0,86.0
280,182.55526346666664,183.04484601666667,66.0,84.0
281,182.97192946666667,183.50838694166666,74.0,88.0
282,183.59692846666667,183.95803899999999,76.0,81.0
283,184.01359446666666,184.192413625,74.0,88.0
284,184.22192746666667,184.98581513333332,72.0,82.0
285,185.26359246666667,185.63859186666664,75.0,82.0
286,185.68025846666666,185.83998043333332,76.0,87.0
287,185.88859146666667,186.24970199999998,78.0,86.0
288,186.30525746666666,186.81220109999998,71.0,91.0
289,186.93025646666666,187.26879759166667,79.0,86.0
290,187.34692246666665,187.515324975,78.0,90.0
291,187.55525546666667,187.97192146666666,76.0,86.0
292,187.97192146666666,188.4024763333333,71.0,87.0
293,188.59692046666666,188.92678105,74.0,89.0
294,189.01358646666665,189.16462789166667,76.0,82.0
295,189.22191946666666,189.87296009166667,72.0,82.0
296,190.05525146666665,190.25664003333333,71.0,81.0
297,190.26358446666666,190.5830284,69.0,84.0
298,190.68025046666665,190.83129189166667,71.0,83.0
299,190.88858346666666,191.15594414999998,72.0,82.0
300,191.30524946666665,191.85212359166667,74.0,88.0
301,191.93024846666665,192.31913673333332,71.0,87.0
302,192.34691446666665,192.51010864999998,76.0,85.0
303,192.55524746666666,192.97191346666665,74.0,88.0
304,192.97191346666665,193.14899651666667,69.0,81.0
305,193.18024646666666,193.40767665833332,67.0,72.0
306,193.59691246666665,193.88337034166665,67.0,82.0
307,194.01357846666664,194.2080226,66.0,81.0
308,194.22191146666665,194.55524426666665,67.0,82.0
309,194.63857746666665,195.129896125,79.0,86.0
310,195.26357646666665,195.624687,78.0,88.0
311,195.68024246666667,195.838228325,76.0,84.0
312,195.88857546666665,196.234061025,74.0,90.0
313,196.30524146666664,196.90767105833334,67.0,80.0
314,196.93024046666665,198.18544679166666,76.0,87.0
315,198.59690446666664,198.94239002499998,75.0,87.0
316,199.01357046666666,199.20801459999998,76.0,88.0
317,199.22190346666665,199.48752804166665,78.0,86.0
318,199.63856946666667,200.208013,79.0,87.0
319,200.26356846666667,202.64203688333333,76.0,84.0
320,203.18023046666667,203.44238282499998,76.0,92.0
321,203.38856346666665,205.14203288333331,74.0,92.0
322,205.26356046666666,206.51703068333333,71.0,92.0
323,206.93022446666666,209.56390080833333,76.0,92.0
324,209.84688646666666,210.1211915833333,76.0,92.0
325,210.05521946666667,211.8243138583333,74.0,92.0
326,211.93021646666665,213.67326923333331,75.0,92.0
