,start,end,pitch,velocity
0,0.26041625,0.463540925,40.0,82.0
1,0.26041625,0.890623575,67.0,82.0
2,0.26041625,0.9114568749999999,64.0,86.0
3,1.09374825,1.2638868666666667,64.0,86.0
4,0.67708225,1.2656229749999999,52.0,87.0
5,1.09374825,1.4670115416666667,71.0,87.0
6,1.09374825,1.4999976,67.0,86.0
7,1.51041425,1.6423584833333333,64.0,87.0
8,1.5138864666666665,1.6423584833333333,64.0,74.0
9,2.3472184666666664,2.9166619999999996,55.0,82.0
10,1.9305524666666667,3.184022683333333,48.0,87.0
11,2.7638844666666667,3.2013837666666665,60.0,86.0
12,2.7638844666666667,3.230897608333333,64.0,88.0
13,2.7638844666666667,3.2499947999999996,67.0,86.0
14,4.013882466666667,4.657978658333333,57.0,74.0
15,4.430548466666666,4.685756391666667,62.0,79.0
16,3.5972164666666666,4.909714366666666,50.0,88.0
17,4.430548466666666,5.2777693333333335,66.0,77.0
18,4.847214466666666,5.307283174999999,62.0,79.0
19,4.430548466666666,5.338533125,69.0,83.0
20,5.680546466666667,6.223948375,59.0,83.0
21,5.2638804666666665,6.272559408333333,52.0,87.0
22,6.097212466666666,6.807280775,67.0,86.0
23,6.097212466666666,6.828114074999999,64.0,81.0
24,6.097212466666666,6.835058508333333,71.0,82.0
25,6.9305444666666665,7.133669141666666,40.0,82.0
26,6.9305444666666665,7.560751791666666,67.0,82.0
27,6.9305444666666665,7.581585091666667,64.0,86.0
28,7.763876466666666,7.934015083333333,64.0,86.0
29,7.347210466666667,7.935751191666666,52.0,87.0
30,7.763876466666666,8.137139758333333,71.0,87.0
31,7.763876466666666,8.170125816666665,67.0,86.0
32,8.180542466666667,8.3124867,64.0,87.0
33,8.597208466666666,9.168388108333334,67.0,81.0
34,8.597208466666666,9.2499852,60.0,79.0
35,9.430540466666667,9.598942975,64.0,86.0
36,9.013874466666666,9.612831841666667,55.0,78.0
37,9.430540466666667,9.616304058333332,60.0,83.0
38,8.597208466666666,9.647554008333334,48.0,87.0
39,9.430540466666667,9.654498441666666,67.0,80.0
40,10.263872466666665,10.460052708333333,38.0,87.0
41,10.263872466666665,10.913176983333333,66.0,79.0
42,10.263872466666665,10.92706585,62.0,80.0
43,10.680538466666667,11.369773474999999,50.0,70.0
44,11.097204466666666,11.4166484,62.0,82.0
45,11.097204466666666,11.600675883333333,66.0,87.0
46,11.097204466666666,11.892342083333332,69.0,82.0
47,13.597200466666665,14.144074591666666,64.0,87.0
48,13.597200466666665,14.328102074999999,59.0,85.0
49,14.222199466666666,14.3541437,64.0,83.0
50,14.222199466666666,14.3541437,67.0,77.0
51,14.430532466666666,14.932267775,64.0,89.0
52,14.430532466666666,14.946156641666667,59.0,86.0
53,14.430532466666666,14.946156641666667,67.0,86.0
54,13.597200466666665,14.973934374999999,52.0,87.0
55,13.597200466666665,15.026017625,40.0,87.0
56,15.055531466666666,15.328100475,59.0,88.0
57,15.055531466666666,15.348933774999999,64.0,87.0
58,15.055531466666666,15.369767074999999,67.0,82.0
59,15.472197466666666,15.819419133333332,60.0,80.0
60,15.472197466666666,15.829835783333333,64.0,82.0
61,15.472197466666666,15.833307999999999,67.0,82.0
62,15.888863466666667,16.001710508333332,64.0,79.0
63,15.888863466666667,16.013863266666664,67.0,79.0
64,15.888863466666667,16.017335483333333,60.0,75.0
65,16.097196466666666,16.699626058333333,64.0,88.0
66,15.263864466666666,16.755181524999998,36.0,85.0
67,16.097196466666666,16.756917633333334,60.0,86.0
68,16.097196466666666,16.826361966666667,67.0,87.0
69,15.263864466666666,16.847195266666667,48.0,86.0
70,16.930528466666665,17.6874717,57.0,87.0
71,16.930528466666665,17.694416133333334,62.0,84.0
72,16.930528466666665,17.701360566666665,66.0,77.0
73,17.763860466666667,18.2708041,57.0,83.0
74,17.763860466666667,18.272540208333332,62.0,86.0
75,17.763860466666667,18.289901291666666,66.0,84.0
76,16.930528466666665,18.505178725,38.0,88.0
77,16.930528466666665,18.536428675,50.0,86.0
78,18.388859466666666,18.668372908333332,57.0,80.0
79,18.388859466666666,18.685733991666666,62.0,87.0
80,18.388859466666666,18.69788675,66.0,82.0
81,18.805525466666666,19.175316541666668,59.0,80.0
82,18.805525466666666,19.185733191666667,64.0,87.0
83,19.222191466666665,19.34371905,64.0,82.0
84,19.222191466666665,19.357607916666666,59.0,77.0
85,18.597192466666666,20.10066228333333,52.0,86.0
86,18.597192466666666,20.102398391666664,40.0,86.0
87,19.430524466666665,20.168370508333332,64.0,92.0
88,19.430524466666665,20.168370508333332,67.0,87.0
89,19.430524466666665,20.180523266666665,59.0,84.0
90,20.263856466666667,20.810730591666665,64.0,87.0
91,20.263856466666667,20.994758075,59.0,85.0
92,20.888855466666666,21.020799699999998,64.0,83.0
93,20.888855466666666,21.020799699999998,67.0,77.0
94,21.097188466666665,21.598923775,64.0,89.0
95,21.097188466666665,21.612812641666665,59.0,86.0
96,21.097188466666665,21.612812641666665,67.0,86.0
97,20.263856466666667,21.640590375,52.0,87.0
98,20.263856466666667,21.692673624999998,40.0,87.0
99,21.722187466666664,21.994756475,59.0,88.0
100,21.722187466666664,22.015589775,64.0,87.0
101,21.722187466666664,22.036423075,67.0,82.0
102,22.138853466666667,22.486075133333333,60.0,80.0
103,22.138853466666667,22.496491783333333,64.0,82.0
104,22.138853466666667,22.499964,67.0,82.0
105,22.555519466666667,22.66836650833333,64.0,79.0
106,22.555519466666667,22.680519266666664,67.0,79.0
107,22.555519466666667,22.683991483333333,60.0,75.0
108,22.763852466666666,23.366282058333333,64.0,88.0
109,21.930520466666664,23.421837524999997,36.0,85.0
110,22.763852466666666,23.423573633333334,60.0,86.0
111,22.763852466666666,23.493017966666667,67.0,87.0
112,21.930520466666664,23.513851266666666,48.0,86.0
113,23.597184466666665,24.3541277,57.0,87.0
114,23.597184466666665,24.361072133333334,62.0,84.0
115,23.597184466666665,24.368016566666665,66.0,77.0
116,24.430516466666667,24.9374601,57.0,83.0
117,24.430516466666667,24.939196208333332,62.0,86.0
118,24.430516466666667,24.956557291666666,66.0,84.0
119,23.597184466666665,25.171834725,38.0,88.0
120,23.597184466666665,25.203084675,50.0,86.0
121,25.055515466666666,25.33502890833333,57.0,80.0
122,25.055515466666666,25.352389991666666,62.0,87.0
123,25.055515466666666,25.36454275,66.0,82.0
124,25.472181466666665,25.841972541666667,59.0,80.0
125,25.472181466666665,25.852389191666667,64.0,87.0
126,25.888847466666665,26.01037505,64.0,82.0
127,25.888847466666665,26.024263916666666,59.0,77.0
128,25.263848466666666,26.76731828333333,52.0,86.0
129,25.263848466666666,26.769054391666664,40.0,86.0
130,26.097180466666664,26.835026508333332,64.0,92.0
131,26.097180466666664,26.835026508333332,67.0,87.0
132,26.097180466666664,26.847179266666664,59.0,84.0
133,27.763844466666665,27.916622,64.0,80.0
134,26.930512466666666,28.11106613333333,52.0,90.0
135,27.347178466666666,28.15620495,59.0,81.0
136,27.763844466666665,28.53814878333333,67.0,75.0
137,28.180510466666664,28.59544035833333,64.0,78.0
138,27.763844466666665,29.118008966666665,71.0,85.0
139,29.013842466666667,29.529466641666666,60.0,69.0
140,28.597176466666664,29.920091016666664,48.0,87.0
141,29.430508466666666,30.178771158333333,64.0,83.0
142,29.430508466666666,30.190923916666666,67.0,75.0
143,29.430508466666666,30.55897888333333,71.0,81.0
144,31.097172466666667,31.255158325,62.0,81.0
145,30.263840466666664,31.76731028333333,50.0,87.0
146,30.680506466666664,31.784671366666664,57.0,83.0
147,31.097172466666667,31.861060133333332,66.0,79.0
148,31.513838466666666,32.00689323333333,62.0,82.0
149,31.097172466666667,32.05550426666667,69.0,82.0
150,32.76383646666667,32.994738874999996,64.0,85.0
151,33.18050246666667,33.524251916666664,64.0,74.0
152,32.76383646666667,33.54508521666666,67.0,82.0
153,32.34717046666667,33.54855743333333,59.0,82.0
154,31.930504466666665,33.56591851666666,52.0,89.0
155,32.76383646666667,33.57112684166667,71.0,86.0
156,34.430500466666665,34.583278,64.0,80.0
157,33.597168466666666,34.777722133333334,52.0,90.0
158,34.013834466666665,34.82286095,59.0,81.0
159,34.430500466666665,35.20480478333333,67.0,75.0
160,34.847166466666664,35.26209635833333,64.0,78.0
161,34.430500466666665,35.78466496666667,71.0,85.0
162,35.68049846666666,36.19612264166666,60.0,69.0
163,35.26383246666666,36.58674701666666,48.0,87.0
164,36.09716446666666,36.84542715833333,64.0,83.0
165,36.09716446666666,36.857579916666666,67.0,75.0
166,36.09716446666666,37.225634883333335,71.0,81.0
167,37.763828466666666,37.921814325,62.0,81.0
168,36.93049646666667,38.43396628333333,50.0,87.0
169,37.34716246666667,38.45132736666667,57.0,83.0
170,37.763828466666666,38.52771613333333,66.0,79.0
171,38.180494466666666,38.67354923333333,62.0,82.0
172,37.763828466666666,38.72216026666666,69.0,82.0
173,39.430492466666664,39.661394875,64.0,85.0
174,39.84715846666666,40.19090791666667,64.0,74.0
175,39.430492466666664,40.21174121666667,67.0,82.0
176,39.013826466666664,40.21521343333333,59.0,82.0
177,38.597160466666665,40.232574516666666,52.0,89.0
178,39.430492466666664,40.237782841666665,71.0,86.0
179,40.26382446666666,40.51208795833333,60.0,83.0
180,40.26382446666666,40.71521263333333,67.0,79.0
181,40.68049046666666,41.119725875,60.0,86.0
182,40.888823466666665,41.1249342,64.0,93.0
183,40.472157466666665,41.348892174999996,55.0,79.0
184,41.305489466666664,41.539864091666665,60.0,87.0
185,41.305489466666664,41.631877833333334,64.0,97.0
186,40.26382446666666,41.708266599999995,48.0,88.0
187,41.305489466666664,41.7707665,67.0,86.0
188,41.51382246666667,41.79854423333333,55.0,77.0
189,41.72215546666666,41.843683049999996,60.0,83.0
190,41.93048846666667,42.171807525,62.0,77.0
191,41.93048846666667,42.22215466666667,66.0,82.0
192,42.347154466666666,42.4790987,62.0,81.0
193,42.13882146666666,42.661390075,57.0,79.0
194,42.55548746666666,42.791598199999996,62.0,84.0
195,42.55548746666666,42.80895928333333,66.0,93.0
196,42.55548746666666,42.81937593333333,69.0,86.0
197,42.763820466666665,43.11104213333333,57.0,78.0
198,42.97215346666666,43.130139324999995,62.0,79.0
199,41.93048846666667,43.15791705833333,50.0,88.0
200,42.97215346666666,43.208264199999995,66.0,86.0
201,42.97215346666666,43.51034705,69.0,84.0
202,43.597152466666664,43.86104093333333,59.0,82.0
203,43.597152466666664,43.99819349166666,62.0,82.0
204,44.01381846666666,44.13881826666667,59.0,88.0
205,43.80548546666667,44.341942941666666,54.0,79.0
206,44.222151466666666,44.505137125,62.0,84.0
207,44.222151466666666,44.51208155833333,59.0,87.0
208,44.222151466666666,44.525970425,66.0,79.0
209,44.43048446666666,44.71867845,54.0,77.0
210,44.638817466666666,44.77770613333333,59.0,88.0
211,44.638817466666666,44.91312258333333,62.0,86.0
212,43.597152466666664,44.9582614,47.0,87.0
213,44.84715046666666,45.133608341666665,59.0,84.0
214,45.055483466666665,45.19784435,62.0,85.0
215,45.26381646666666,45.54853823333333,59.0,86.0
216,45.26381646666666,45.734301824999996,64.0,87.0
217,45.68048246666667,45.817635025,59.0,87.0
218,45.888815466666664,46.1457595,67.0,87.0
219,45.888815466666664,46.164856691666664,64.0,88.0
220,45.888815466666664,46.16832890833333,59.0,87.0
221,46.30548146666666,46.4374257,59.0,88.0
222,46.30548146666666,46.590203233333334,64.0,88.0
223,46.513814466666666,46.69784195,59.0,87.0
224,45.26381646666666,46.74298076666666,52.0,87.0
225,47.347146466666665,47.487771241666664,57.0,86.0
226,47.55547946666667,47.770756899999995,60.0,90.0
227,47.55547946666667,47.793326308333334,57.0,87.0
228,47.13881346666666,48.019020391666665,52.0,87.0
229,47.97214546666667,48.14749240833333,57.0,82.0
230,47.97214546666667,48.18395068333333,60.0,89.0
231,47.97214546666667,48.2082562,64.0,90.0
232,48.18047846666666,48.432214175,52.0,80.0
233,46.930480466666666,48.45999190833333,45.0,87.0
234,48.38881146666667,48.46867245,57.0,75.0
235,48.59714446666666,48.755130324999996,55.0,85.0
236,48.59714446666666,48.88707455833333,60.0,81.0
237,49.01381046666666,49.12665750833333,55.0,88.0
238,49.222143466666665,49.512073558333334,64.0,88.0
239,49.222143466666665,49.519017991666665,60.0,87.0
240,49.222143466666665,49.5207541,55.0,87.0
241,49.638809466666665,49.758600941666664,55.0,86.0
242,48.59714446666666,49.94783675,48.0,88.0
243,49.638809466666665,49.96519783333333,60.0,82.0
244,49.84714246666667,49.99644778333333,55.0,80.0
245,49.638809466666665,50.01207275833333,64.0,88.0
246,50.26380846666667,50.51380806666666,57.0,81.0
247,50.26380846666667,50.734293824999995,62.0,82.0
248,50.680474466666666,50.78116875,57.0,73.0
249,50.88880746666666,51.20651529166666,57.0,83.0
250,50.88880746666666,51.21866805,66.0,86.0
251,51.30547346666666,51.598875774999996,62.0,85.0
252,50.26380846666667,51.76727828333333,50.0,86.0
253,51.72213946666666,51.8124171,57.0,76.0
254,51.930472466666664,52.61623525833333,62.0,91.0
255,51.930472466666664,52.65790185833333,57.0,88.0
256,51.930472466666664,53.170053816666666,50.0,93.0
257,53.59713646666666,53.98081640833333,64.0,88.0
258,53.59713646666666,54.07109404166666,67.0,84.0
259,54.01380246666666,54.15269113333333,59.0,88.0
260,54.222135466666664,54.49644058333333,64.0,92.0
261,54.222135466666664,54.515537775,59.0,85.0
262,54.222135466666664,54.51727388333333,67.0,88.0
263,53.805469466666665,54.746440183333334,47.0,77.0
264,53.59713646666666,54.82109284166666,40.0,89.0
265,54.63880146666666,54.86449555,64.0,93.0
266,54.63880146666666,54.873176091666664,67.0,87.0
267,54.63880146666666,54.88359274166666,59.0,86.0
268,55.263800466666666,55.536369475,55.0,85.0
269,55.263800466666666,55.57629996666667,60.0,84.0
270,55.680466466666665,55.815882916666666,55.0,90.0
271,55.88879946666666,56.154424041666665,64.0,91.0
272,55.88879946666666,56.161368474999996,55.0,86.0
273,55.88879946666666,56.16310458333333,60.0,90.0
274,56.30546546666666,56.43393748333333,55.0,89.0
275,55.263800466666666,56.435673591666664,36.0,86.0
276,55.47213346666666,56.44609024166667,43.0,72.0
277,56.30546546666666,56.44782635,60.0,93.0
278,56.30546546666666,56.47734019166666,64.0,95.0
279,56.93046446666666,57.223866775,62.0,86.0
280,56.93046446666666,57.40442204166666,66.0,88.0
281,57.34713046666666,57.828032475,57.0,90.0
282,57.555463466666666,57.838449125,62.0,87.0
283,57.13879746666667,58.01726828333333,45.0,82.0
284,57.972129466666665,58.02421271666666,57.0,69.0
285,56.93046446666666,58.041573799999995,38.0,90.0
286,57.972129466666665,58.26379566666667,62.0,87.0
287,57.972129466666665,58.29504561666666,66.0,102.0
288,58.18046246666666,58.348864975,57.0,81.0
289,58.59712846666666,58.791572599999995,55.0,87.0
290,58.59712846666666,58.86796136666666,62.0,87.0
291,58.59712846666666,58.878378016666666,59.0,87.0
292,58.59712846666666,59.117960966666665,43.0,87.0
293,59.01379446666667,59.18914140833333,55.0,88.0
294,58.805461466666664,59.331502291666666,50.0,86.0
295,59.430460466666666,59.67351563333333,57.0,87.0
296,59.430460466666666,59.753376616666664,62.0,88.0
297,59.430460466666666,59.801987649999994,42.0,88.0
298,59.63879346666666,59.94782075,50.0,86.0
299,59.847126466666666,60.107542716666664,57.0,89.0
300,60.263792466666665,60.557194775,59.0,76.0
301,60.263792466666665,60.652680733333334,64.0,87.0
302,60.680458466666664,61.12316609166666,59.0,93.0
303,60.88879146666666,61.161360474999995,64.0,90.0
304,61.30545746666667,61.49122105833333,59.0,87.0
305,60.47212546666666,61.682192975,47.0,81.0
306,60.263792466666665,61.68913740833333,40.0,88.0
307,61.30545746666667,61.91830370833333,64.0,90.0
308,61.30545746666667,61.92698425,67.0,88.0
309,61.722123466666666,61.994692474999994,59.0,87.0
310,62.138789466666665,62.43913620833333,59.0,87.0
311,62.34712246666666,62.492955566666666,62.0,80.0
312,62.555455466666665,62.8748994,59.0,87.0
313,62.555455466666665,62.87663550833333,62.0,88.0
314,62.555455466666665,62.895732699999996,66.0,93.0
315,62.972121466666664,63.150940625,59.0,89.0
316,61.93045646666666,63.23080160833333,47.0,93.0
317,62.972121466666664,63.25337101666666,62.0,88.0
318,62.972121466666664,63.25857934166666,66.0,89.0
319,63.59712046666667,63.80371735833333,55.0,86.0
320,63.59712046666667,63.88357834166666,60.0,86.0
321,64.01378646666666,64.161355675,55.0,90.0
322,64.22211946666667,64.53114674999999,64.0,100.0
323,64.22211946666667,64.54850783333333,60.0,90.0
324,64.22211946666667,64.557188375,55.0,87.0
325,63.59712046666667,64.71864645,48.0,92.0
326,64.63878546666666,64.734271425,55.0,83.0
327,63.80545346666666,64.84885457499999,52.0,84.0
328,64.63878546666666,64.87836841666666,60.0,86.0
329,64.84711846666666,65.057187575,55.0,87.0
330,65.26378446666666,65.546770125,59.0,84.0
331,65.26378446666666,65.70475598333333,63.0,81.0
332,65.68045046666667,65.817603025,59.0,86.0
333,65.88878346666667,66.140519175,59.0,88.0
334,65.88878346666667,66.1665608,63.0,88.0
335,65.47211746666666,66.432185375,54.0,80.0
336,66.30544946666666,66.52767133333333,59.0,87.0
337,66.30544946666666,66.63531005,66.0,90.0
338,66.30544946666666,66.6457267,63.0,90.0
339,66.51378246666667,66.74642098333334,51.0,75.0
340,66.51378246666667,66.76725428333333,54.0,87.0
341,65.26378446666666,66.86794856666667,47.0,87.0
342,66.93044846666666,67.19086471666667,59.0,84.0
343,66.93044846666666,67.27246180833333,64.0,87.0
344,67.34711446666667,67.78808598333333,59.0,89.0
345,67.55544746666666,67.82628036666667,64.0,88.0
346,67.13878146666666,67.9998912,47.0,82.0
347,66.93044846666666,68.03808558333333,40.0,90.0
348,67.97211346666667,68.15440484166666,59.0,88.0
349,67.97211346666667,68.40093222499999,64.0,90.0
350,67.97211346666667,68.42002941666667,67.0,88.0
351,68.38877946666666,68.494682075,59.0,90.0
352,68.59711246666666,68.83148709166666,57.0,87.0
353,68.59711246666666,68.97732019166666,60.0,95.0
354,69.01377846666666,69.12315329166667,57.0,79.0
355,69.22211146666666,69.48252771666667,57.0,82.0
356,69.22211146666666,69.49815269166666,60.0,84.0
357,69.63877746666667,69.838429925,57.0,85.0
358,69.63877746666667,69.97211026666666,64.0,87.0
359,69.63877746666667,69.98079080833332,60.0,88.0
360,68.59711246666666,70.036346275,45.0,87.0
361,68.80544546666667,70.05544346666666,52.0,82.0
362,70.26377646666667,70.44433173333333,57.0,71.0
363,70.26377646666667,70.71863685,62.0,80.0
364,70.68044246666666,70.828011675,57.0,86.0
365,70.88877546666666,71.16308058333333,57.0,82.0
366,70.88877546666666,71.19085831666666,62.0,86.0
367,71.30544146666666,71.44433013333332,57.0,85.0
368,70.26377646666667,71.75856574166666,50.0,88.0
369,71.30544146666666,71.765510175,66.0,86.0
370,71.30544146666666,71.76898239166667,62.0,87.0
371,71.72210746666666,71.80023234166666,57.0,87.0
372,71.93044046666667,72.15787065833332,55.0,87.0
373,71.93044046666667,72.34016203333333,59.0,88.0
374,71.93044046666667,72.40960636666667,43.0,87.0
375,72.34710646666666,72.54328670833333,55.0,89.0
376,72.13877346666666,72.63877266666667,50.0,81.0
377,72.76377246666667,73.02071649999999,57.0,82.0
378,72.76377246666667,73.20648009166666,42.0,87.0
379,72.76377246666667,73.265507775,62.0,84.0
380,72.97210546666666,73.36272984166666,50.0,84.0
381,73.18043846666666,73.37314649166666,57.0,89.0
382,73.59710446666666,73.755090325,59.0,87.0
383,73.59710446666666,73.89397899166666,64.0,89.0
384,73.80543746666666,74.0832148,59.0,86.0
385,74.01377046666666,74.12314529166666,64.0,83.0
386,74.22210346666667,74.54328350833333,67.0,88.0
387,74.22210346666667,74.56064459166666,64.0,93.0
388,74.22210346666667,74.56758902499999,59.0,88.0
389,73.59710446666666,74.82106084166666,52.0,83.0
390,74.63876946666666,74.85751911666667,64.0,93.0
391,74.63876946666666,74.8957135,59.0,87.0
392,75.26376846666666,75.52418471666667,59.0,87.0
393,75.26376846666666,75.72036495833333,66.0,79.0
394,75.68043446666667,75.82105924166666,59.0,87.0
395,75.47210146666666,75.98078120833333,54.0,79.0
396,75.88876746666666,76.161336475,59.0,87.0
397,75.88876746666666,76.1665448,62.0,93.0
398,76.09710046666666,76.32453065833333,54.0,81.0
399,76.30543346666666,76.42869715833334,59.0,88.0
400,75.26376846666666,76.4373777,47.0,88.0
401,76.30543346666666,76.588419125,62.0,91.0
402,76.30543346666666,76.79327990833333,66.0,90.0
403,76.51376646666667,76.91480749166666,59.0,89.0
404,76.72209946666666,76.94432133333333,62.0,82.0
405,77.55543146666666,77.84709766666667,60.0,89.0
406,77.34709846666667,77.848833775,55.0,91.0
407,77.97209746666667,78.13529165,55.0,89.0
408,76.93043246666666,78.43390228333332,48.0,93.0
409,77.97209746666667,78.45126336666667,60.0,90.0
410,77.97209746666667,78.45994390833333,64.0,90.0
411,77.13876546666667,78.46862445,52.0,88.0
412,78.38876346666666,78.47730499166666,55.0,75.0
413,78.59709646666666,78.82279055,59.0,88.0
414,78.59709646666666,78.87140158333332,63.0,87.0
415,79.01376246666666,79.10056788333333,63.0,82.0
416,79.01376246666666,79.10404009999999,66.0,79.0
417,79.01376246666666,79.11272064166667,59.0,84.0
418,79.22209546666666,79.49292836666666,63.0,87.0
419,79.22209546666666,79.494664475,59.0,89.0
420,79.22209546666666,79.49813669166666,66.0,86.0
421,79.43042846666667,79.76376126666666,51.0,67.0
422,79.43042846666667,79.87313609166667,54.0,66.0
423,79.63876146666667,80.14396899166667,59.0,90.0
424,79.84709446666666,80.23077440833333,51.0,78.0
425,79.63876146666667,80.23077440833333,63.0,91.0
426,79.63876146666667,80.24292716666666,66.0,87.0
427,78.59709646666666,80.25855214166667,47.0,88.0
428,80.26376046666667,80.505079525,59.0,87.0
429,80.26376046666667,80.5415378,64.0,88.0
430,80.68042646666666,80.83667621666666,59.0,87.0
431,80.88875946666667,81.11445355,59.0,82.0
432,80.88875946666667,81.13181463333333,64.0,91.0
433,80.47209346666666,81.35577260833333,47.0,80.0
434,80.26376046666667,81.40785585833333,40.0,88.0
435,81.30542546666666,81.53285565833333,59.0,89.0
436,81.30542546666666,81.57105004166667,64.0,90.0
437,81.30542546666666,81.57278615,67.0,84.0
438,81.93042446666666,82.16479909166667,55.0,80.0
439,81.93042446666666,82.24292396666667,60.0,86.0
440,82.34709046666666,82.47729859166667,55.0,88.0
441,82.55542346666667,82.80889528333333,60.0,91.0
442,82.55542346666667,82.8123675,55.0,86.0
443,82.97208946666666,83.14743640833333,55.0,89.0
444,82.97208946666666,83.22556128333333,64.0,95.0
445,82.97208946666666,83.23771404166666,60.0,93.0
446,82.13875746666666,83.34361665,52.0,87.0
447,81.93042446666666,83.40611655,48.0,88.0
448,83.38875546666667,83.50160250833333,55.0,87.0
449,83.38875546666667,83.505074725,60.0,87.0
450,83.59708846666666,83.8331992,57.0,85.0
451,83.59708846666666,83.90437964166667,62.0,80.0
452,84.01375446666667,84.15611535,57.0,86.0
453,84.22208746666666,84.49639258333333,57.0,83.0
454,84.22208746666666,84.50333701666666,62.0,87.0
455,84.22208746666666,84.52417031666667,66.0,87.0
456,84.63875346666666,84.83146149166666,57.0,87.0
457,84.63875346666666,85.10229439166666,62.0,89.0
458,85.05541946666666,85.14396099166666,57.0,76.0
459,84.63875346666666,85.15090542499999,66.0,86.0
460,83.59708846666666,85.15437764166666,50.0,93.0
461,85.26375246666666,85.38528004999999,59.0,85.0
462,85.26375246666666,85.525904825,64.0,87.0
463,85.47208546666667,85.734237825,59.0,81.0
464,85.68041846666667,85.80020994166667,64.0,82.0
465,85.88875146666666,86.15784825833333,59.0,88.0
466,85.88875146666666,86.17520934166666,64.0,92.0
467,85.88875146666666,86.18562599166667,67.0,87.0
468,86.30541746666667,86.51722268333333,59.0,88.0
469,86.30541746666667,86.82277775,67.0,87.0
470,86.30541746666667,86.83493050833333,64.0,93.0
471,85.26375246666666,86.86097213333333,52.0,93.0
472,86.72208346666666,86.869652675,59.0,88.0
473,86.93041646666666,87.171735525,59.0,87.0
474,86.93041646666666,87.20819379999999,64.0,88.0
475,87.34708246666666,87.50333221666666,59.0,87.0
476,87.55541546666666,87.78110955,59.0,82.0
477,87.55541546666666,87.79847063333332,64.0,91.0
478,87.13874946666667,88.02242860833333,47.0,80.0
479,86.93041646666666,88.07451185833332,40.0,88.0
480,87.97208146666667,88.19951165833334,59.0,89.0
481,87.97208146666667,88.23770604166667,64.0,90.0
482,87.97208146666667,88.23944215,67.0,84.0
483,88.59708046666667,88.83145509166667,55.0,80.0
484,88.59708046666667,88.90957996666667,60.0,86.0
485,89.01374646666666,89.14395459166666,55.0,88.0
486,89.22207946666666,89.47555128333333,60.0,91.0
487,89.22207946666666,89.4790235,55.0,86.0
488,89.63874546666666,89.81409240833332,55.0,89.0
489,89.63874546666666,89.89221728333332,64.0,95.0
490,89.63874546666666,89.90437004166667,60.0,93.0
491,88.80541346666666,90.01027264999999,52.0,87.0
492,88.59708046666667,90.07277255,48.0,88.0
493,90.05541146666667,90.16825850833332,55.0,87.0
494,90.05541146666667,90.17173072499999,60.0,87.0
495,90.26374446666667,90.4998552,57.0,85.0
496,90.26374446666667,90.57103564166667,62.0,80.0
497,90.68041046666666,90.82277135,57.0,86.0
498,90.88874346666667,91.16304858333334,57.0,83.0
499,90.88874346666667,91.16999301666667,62.0,87.0
500,90.88874346666667,91.19082631666666,66.0,87.0
501,91.30540946666666,91.49811749166666,57.0,87.0
502,91.30540946666666,91.76895039166666,62.0,89.0
503,91.72207546666667,91.81061699166666,57.0,76.0
504,91.30540946666666,91.817561425,66.0,86.0
505,90.26374446666667,91.82103364166666,50.0,93.0
506,91.93040846666666,92.05193605,59.0,85.0
507,91.93040846666666,92.192560825,64.0,87.0
508,92.13874146666666,92.400893825,59.0,81.0
509,92.34707446666667,92.46686594166667,64.0,82.0
510,92.55540746666667,92.82450425833333,59.0,88.0
511,92.55540746666667,92.84186534166666,64.0,92.0
512,92.55540746666667,92.85228199166666,67.0,87.0
513,92.97207346666666,93.18387868333333,59.0,88.0
514,92.97207346666666,93.48943374999999,67.0,87.0
515,92.97207346666666,93.50158650833333,64.0,93.0
516,91.93040846666666,93.52762813333332,52.0,93.0
517,93.38873946666666,93.536308675,59.0,88.0
518,94.43040446666666,94.583182,64.0,80.0
519,93.59707246666666,94.77762613333333,52.0,90.0
520,94.01373846666667,94.82276494999999,59.0,81.0
521,94.43040446666666,95.20470878333333,67.0,75.0
522,94.84707046666666,95.26200035833332,64.0,78.0
523,94.43040446666666,95.78456896666667,71.0,85.0
524,95.68040246666666,96.19602664166666,60.0,69.0
525,95.26373646666666,96.58665101666666,48.0,87.0
526,96.09706846666666,96.84533115833332,64.0,83.0
527,96.09706846666666,96.85748391666667,67.0,75.0
528,96.09706846666666,97.22553888333333,71.0,81.0
529,97.76373246666667,97.921718325,62.0,81.0
530,96.93040046666667,98.43387028333333,50.0,87.0
531,97.34706646666666,98.45123136666666,57.0,83.0
532,97.76373246666667,98.52762013333333,66.0,79.0
533,98.18039846666666,98.67345323333333,62.0,82.0
534,97.76373246666667,98.72206426666666,69.0,82.0
535,99.43039646666666,99.661298875,64.0,85.0
536,99.84706246666666,100.19081191666666,64.0,74.0
537,99.43039646666666,100.21164521666667,67.0,82.0
538,99.01373046666666,100.21511743333333,59.0,82.0
539,98.59706446666667,100.23247851666666,52.0,89.0
540,99.43039646666666,100.23768684166666,71.0,86.0
541,101.09706046666666,101.249838,64.0,80.0
542,100.26372846666666,101.44428213333333,52.0,90.0
543,100.68039446666666,101.48942095,59.0,81.0
544,101.09706046666666,101.87136478333333,67.0,75.0
545,101.51372646666667,101.92865635833333,64.0,78.0
546,101.09706046666666,102.45122496666666,71.0,85.0
547,102.34705846666667,102.86268264166667,60.0,69.0
548,101.93039246666666,103.25330701666667,48.0,87.0
549,102.76372446666666,103.51198715833333,64.0,83.0
550,102.76372446666666,103.52413991666666,67.0,75.0
551,102.76372446666666,103.89219488333333,71.0,81.0
552,104.43038846666666,104.58837432499999,62.0,81.0
553,103.59705646666666,105.10052628333332,50.0,87.0
554,104.01372246666666,105.11788736666666,57.0,83.0
555,104.43038846666666,105.19427613333333,66.0,79.0
556,104.84705446666666,105.34010923333332,62.0,82.0
557,104.43038846666666,105.38872026666667,69.0,82.0
558,106.09705246666667,106.32795487499999,64.0,85.0
559,106.51371846666666,106.85746791666666,64.0,74.0
560,106.09705246666667,106.87830121666666,67.0,82.0
561,105.68038646666666,106.88177343333332,59.0,82.0
562,105.26372046666665,106.89913451666666,52.0,89.0
563,106.09705246666667,106.90434284166666,71.0,86.0
564,106.93038446666667,107.17864795833333,60.0,83.0
565,106.93038446666667,107.38177263333333,67.0,79.0
566,107.34705046666666,107.78628587499999,60.0,86.0
567,107.55538346666665,107.79149419999999,64.0,93.0
568,107.13871746666666,108.015452175,55.0,79.0
569,107.97204946666666,108.20642409166666,60.0,87.0
570,107.97204946666666,108.29843783333332,64.0,97.0
571,106.93038446666667,108.37482659999999,48.0,88.0
572,107.97204946666666,108.4373265,67.0,86.0
573,108.18038246666666,108.46510423333334,55.0,77.0
574,108.38871546666667,108.51024305,60.0,83.0
575,108.59704846666666,108.838367525,62.0,77.0
576,108.59704846666666,108.88871466666666,66.0,82.0
577,109.01371446666666,109.1456587,62.0,81.0
578,108.80538146666666,109.32795007499999,57.0,79.0
579,109.22204746666667,109.4581582,62.0,84.0
580,109.22204746666667,109.47551928333333,66.0,93.0
581,109.22204746666667,109.48593593333332,69.0,86.0
582,109.43038046666666,109.77760213333333,57.0,78.0
583,109.63871346666666,109.79669932499999,62.0,79.0
584,108.59704846666666,109.82447705833333,50.0,88.0
585,109.63871346666666,109.87482419999999,66.0,86.0
586,109.63871346666666,110.17690705,69.0,84.0
587,110.26371246666666,110.52760093333333,59.0,82.0
588,110.26371246666666,110.66475349166666,62.0,82.0
589,110.68037846666667,110.80537826666666,59.0,88.0
590,110.47204546666666,111.00850294166666,54.0,79.0
591,110.88871146666666,111.171697125,62.0,84.0
592,110.88871146666666,111.17864155833333,59.0,87.0
593,110.88871146666666,111.192530425,66.0,79.0
594,111.09704446666666,111.38523844999999,54.0,77.0
595,111.30537746666666,111.44426613333333,59.0,88.0
596,111.30537746666666,111.57968258333332,62.0,86.0
597,110.26371246666666,111.6248214,47.0,87.0
598,111.51371046666667,111.80016834166666,59.0,84.0
599,111.72204346666666,111.86440435,62.0,85.0
600,111.93037646666666,112.21509823333332,59.0,86.0
601,111.93037646666666,112.40086182499999,64.0,87.0
602,112.34704246666666,112.48419502499999,59.0,87.0
603,112.55537546666666,112.8123195,67.0,87.0
604,112.55537546666666,112.83141669166666,64.0,88.0
605,112.55537546666666,112.83488890833333,59.0,87.0
606,112.97204146666667,113.1039857,59.0,88.0
607,112.97204146666667,113.25676323333333,64.0,88.0
608,113.18037446666666,113.36440195,59.0,87.0
609,111.93037646666666,113.40954076666667,52.0,87.0
610,114.01370646666666,114.15433124166667,57.0,86.0
611,114.22203946666666,114.4373169,60.0,90.0
612,114.22203946666666,114.45988630833332,57.0,87.0
613,113.80537346666667,114.68558039166666,52.0,87.0
614,114.63870546666666,114.81405240833332,57.0,82.0
615,114.63870546666666,114.85051068333333,60.0,89.0
616,114.63870546666666,114.8748162,64.0,90.0
617,114.84703846666666,115.09877417499999,52.0,80.0
618,113.59704046666666,115.12655190833333,45.0,87.0
619,115.05537146666666,115.13523244999999,57.0,75.0
620,115.26370446666667,115.421690325,55.0,85.0
621,115.26370446666667,115.55363455833333,60.0,81.0
622,115.68037046666666,115.79321750833333,55.0,88.0
623,115.88870346666666,116.17863355833333,64.0,88.0
624,115.88870346666666,116.18557799166666,60.0,87.0
625,115.88870346666666,116.1873141,55.0,87.0
626,116.30536946666666,116.42516094166666,55.0,86.0
627,115.26370446666667,116.61439675,48.0,88.0
628,116.30536946666666,116.63175783333332,60.0,82.0
629,116.51370246666666,116.66300778333333,55.0,80.0
630,116.30536946666666,116.67863275833332,64.0,88.0
631,116.93036846666666,117.18036806666666,57.0,81.0
632,116.93036846666666,117.400853825,62.0,82.0
633,117.34703446666666,117.44772875,57.0,73.0
634,117.55536746666667,117.87307529166667,57.0,83.0
635,117.55536746666667,117.88522805,66.0,86.0
636,117.97203346666666,118.265435775,62.0,85.0
637,116.93036846666666,118.43383828333333,50.0,86.0
638,118.38869946666667,118.4789771,57.0,76.0
639,118.59703246666666,119.28279525833332,62.0,91.0
640,118.59703246666666,119.32446185833332,57.0,88.0
641,118.59703246666666,119.83661381666666,50.0,93.0
642,120.26369646666666,120.64737640833333,64.0,88.0
643,120.26369646666666,120.73765404166666,67.0,84.0
644,120.68036246666667,120.81925113333332,59.0,88.0
645,120.88869546666666,121.16300058333333,64.0,92.0
646,120.88869546666666,121.18209777499999,59.0,85.0
647,120.88869546666666,121.18383388333332,67.0,88.0
648,120.47202946666665,121.41300018333332,47.0,77.0
649,120.26369646666666,121.48765284166666,40.0,89.0
650,121.30536146666667,121.53105554999999,64.0,93.0
651,121.30536146666667,121.53973609166665,67.0,87.0
652,121.30536146666667,121.55015274166666,59.0,86.0
653,121.93036046666666,122.20292947499999,55.0,85.0
654,121.93036046666666,122.24285996666666,60.0,84.0
655,122.34702646666666,122.48244291666666,55.0,90.0
656,122.55535946666666,122.82098404166666,64.0,91.0
657,122.55535946666666,122.827928475,55.0,86.0
658,122.55535946666666,122.82966458333333,60.0,90.0
659,122.97202546666666,123.10049748333333,55.0,89.0
660,121.93036046666666,123.10223359166666,36.0,86.0
661,122.13869346666667,123.11265024166666,43.0,72.0
662,122.97202546666666,123.11438634999999,60.0,93.0
663,122.97202546666666,123.14390019166666,64.0,95.0
664,123.59702446666667,123.890426775,62.0,86.0
665,123.59702446666667,124.07098204166667,66.0,88.0
666,124.01369046666666,124.49459247499999,57.0,90.0
667,124.22202346666666,124.505009125,62.0,87.0
668,123.80535746666666,124.68382828333333,45.0,82.0
669,124.63868946666666,124.69077271666666,57.0,69.0
670,123.59702446666667,124.7081338,38.0,90.0
671,124.63868946666666,124.93035566666666,62.0,87.0
672,124.63868946666666,124.96160561666666,66.0,102.0
673,124.84702246666666,125.01542497499999,57.0,81.0
674,125.26368846666666,125.4581326,55.0,87.0
675,125.26368846666666,125.53452136666667,62.0,87.0
676,125.26368846666666,125.54493801666666,59.0,87.0
677,125.26368846666666,125.78452096666666,43.0,87.0
678,125.68035446666666,125.85570140833333,55.0,88.0
679,125.47202146666666,125.99806229166666,50.0,86.0
680,126.09702046666666,126.34007563333333,57.0,87.0
681,126.09702046666666,126.41993661666666,62.0,88.0
682,126.09702046666666,126.46854764999999,42.0,88.0
683,126.30535346666666,126.61438075,50.0,86.0
684,126.51368646666666,126.77410271666666,57.0,89.0
685,126.93035246666666,127.22375477499999,59.0,76.0
686,126.93035246666666,127.31924073333333,64.0,87.0
687,127.34701846666665,127.78972609166667,59.0,93.0
688,127.55535146666666,127.827920475,64.0,90.0
689,127.97201746666666,128.1577810583333,59.0,87.0
690,127.13868546666666,128.348752975,47.0,81.0
691,126.93035246666666,128.35569740833333,40.0,88.0
692,127.97201746666666,128.58486370833333,64.0,90.0
693,127.97201746666666,128.59354425,67.0,88.0
694,128.38868346666666,128.661252475,59.0,87.0
695,128.80534946666666,129.1056962083333,59.0,87.0
696,129.01368246666667,129.15951556666667,62.0,80.0
697,129.22201546666665,129.5414594,59.0,87.0
698,129.22201546666665,129.54319550833333,62.0,88.0
699,129.22201546666665,129.5622927,66.0,93.0
700,129.63868146666667,129.817500625,59.0,89.0
701,128.59701646666667,129.89736160833334,47.0,93.0
702,129.63868146666667,129.91993101666665,62.0,88.0
703,129.63868146666667,129.92513934166666,66.0,89.0
704,130.26368046666667,130.47027735833333,55.0,86.0
705,130.26368046666667,130.55013834166667,60.0,86.0
706,130.68034646666666,130.82791567499999,55.0,90.0
707,130.88867946666667,131.19770674999998,64.0,100.0
708,130.88867946666667,131.21506783333334,60.0,90.0
709,130.88867946666667,131.22374837499999,55.0,87.0
710,130.26368046666667,131.38520645,48.0,92.0
711,131.30534546666667,131.400831425,55.0,83.0
712,130.47201346666665,131.515414575,52.0,84.0
713,131.30534546666667,131.54492841666666,60.0,86.0
714,131.51367846666665,131.723747575,55.0,87.0
715,131.93034446666667,132.213330125,59.0,84.0
716,131.93034446666667,132.37131598333332,63.0,81.0
717,132.34701046666666,132.484163025,59.0,86.0
718,132.55534346666667,132.80707917499998,59.0,88.0
719,132.55534346666667,132.8331208,63.0,88.0
720,132.13867746666665,133.098745375,54.0,80.0
721,132.97200946666666,133.19423133333333,59.0,87.0
722,132.97200946666666,133.30187005,66.0,90.0
723,132.97200946666666,133.3122867,63.0,90.0
724,133.18034246666667,133.41298098333334,51.0,75.0
725,133.18034246666667,133.43381428333333,54.0,87.0
726,131.93034446666667,133.53450856666666,47.0,87.0
727,133.59700846666667,133.85742471666666,59.0,84.0
728,133.59700846666667,133.93902180833334,64.0,87.0
729,134.01367446666666,134.45464598333334,59.0,89.0
730,134.22200746666667,134.49284036666666,64.0,88.0
731,133.80534146666665,134.66645119999998,47.0,82.0
732,133.59700846666667,134.70464558333333,40.0,90.0
733,134.63867346666666,134.82096484166667,59.0,88.0
734,134.63867346666666,135.067492225,64.0,90.0
735,134.63867346666666,135.08658941666667,67.0,88.0
736,135.05533946666665,135.161242075,59.0,90.0
737,135.26367246666666,135.49804709166665,57.0,87.0
738,135.26367246666666,135.64388019166665,60.0,95.0
739,135.68033846666665,135.78971329166666,57.0,79.0
740,135.88867146666666,136.14908771666666,57.0,82.0
741,135.88867146666666,136.16471269166667,60.0,84.0
742,136.30533746666666,136.504989925,57.0,85.0
743,136.30533746666666,136.63867026666665,64.0,87.0
744,136.30533746666666,136.64735080833333,60.0,88.0
745,135.26367246666666,136.702906275,45.0,87.0
746,135.47200546666667,136.72200346666665,52.0,82.0
747,136.93033646666666,137.11089173333332,57.0,71.0
748,136.93033646666666,137.38519685,62.0,80.0
749,137.34700246666665,137.494571675,57.0,86.0
750,137.55533546666666,137.82964058333332,57.0,82.0
751,137.55533546666666,137.85741831666667,62.0,86.0
752,137.97200146666665,138.11089013333333,57.0,85.0
753,136.93033646666666,138.42512574166665,50.0,88.0
754,137.97200146666665,138.432070175,66.0,86.0
755,137.97200146666665,138.43554239166667,62.0,87.0
756,138.38866746666665,138.46679234166666,57.0,87.0
757,138.59700046666666,138.8244306583333,55.0,87.0
758,138.59700046666666,139.00672203333332,59.0,88.0
759,138.59700046666666,139.07616636666665,43.0,87.0
760,139.01366646666665,139.20984670833332,55.0,89.0
761,138.80533346666667,139.30533266666666,50.0,81.0
762,139.43033246666667,139.6872765,57.0,82.0
763,139.43033246666667,139.87304009166667,42.0,87.0
764,139.43033246666667,139.932067775,62.0,84.0
765,139.63866546666665,140.02928984166667,50.0,84.0
766,139.84699846666666,140.03970649166666,57.0,89.0
767,140.26366446666665,140.421650325,59.0,87.0
768,140.26366446666665,140.56053899166665,64.0,89.0
769,140.47199746666666,140.74977479999998,59.0,86.0
770,140.68033046666665,140.78970529166665,64.0,83.0
771,140.88866346666666,141.20984350833334,67.0,88.0
772,140.88866346666666,141.22720459166666,64.0,93.0
773,140.88866346666666,141.234149025,59.0,88.0
774,140.26366446666665,141.48762084166665,52.0,83.0
775,141.30532946666665,141.52407911666666,64.0,93.0
776,141.30532946666665,141.5622735,59.0,87.0
777,141.93032846666665,142.19074471666667,59.0,87.0
778,141.93032846666665,142.38692495833334,66.0,79.0
779,142.34699446666667,142.48761924166666,59.0,87.0
780,142.13866146666666,142.64734120833333,54.0,79.0
781,142.55532746666665,142.827896475,59.0,87.0
782,142.55532746666665,142.8331048,62.0,93.0
783,142.76366046666666,142.99109065833332,54.0,81.0
784,142.97199346666665,143.09525715833334,59.0,88.0
785,141.93032846666665,143.1039377,47.0,88.0
786,142.97199346666665,143.254979125,62.0,91.0
787,142.97199346666665,143.45983990833332,66.0,90.0
788,143.18032646666666,143.58136749166667,59.0,89.0
789,143.38865946666667,143.61088133333334,62.0,82.0
790,144.22199146666665,144.51365766666666,60.0,89.0
791,144.01365846666667,144.515393775,55.0,91.0
792,144.63865746666667,144.80185165,55.0,89.0
793,143.59699246666665,145.10046228333331,48.0,93.0
794,144.63865746666667,145.11782336666667,60.0,90.0
795,144.63865746666667,145.12650390833332,64.0,90.0
796,143.80532546666666,145.13518445,52.0,88.0
797,145.05532346666666,145.14386499166665,55.0,75.0
798,145.26365646666665,145.48935054999998,59.0,88.0
799,145.26365646666665,145.53796158333333,63.0,87.0
800,145.68032246666667,145.76712788333333,63.0,82.0
801,145.68032246666667,145.7706001,66.0,79.0
802,145.68032246666667,145.77928064166667,59.0,84.0
803,145.88865546666665,146.15948836666666,63.0,87.0
804,145.88865546666665,146.16122447499998,59.0,89.0
805,145.88865546666665,146.16469669166665,66.0,86.0
806,146.09698846666666,146.43032126666665,51.0,67.0
807,146.09698846666666,146.53969609166666,54.0,66.0
808,146.30532146666667,146.81052899166667,59.0,90.0
809,146.51365446666665,146.89733440833334,51.0,78.0
810,146.30532146666667,146.89733440833334,63.0,91.0
811,146.30532146666667,146.90948716666665,66.0,87.0
812,145.26365646666665,146.92511214166666,47.0,88.0
813,146.93032046666667,147.20983390833334,59.0,87.0
814,146.93032046666667,147.452889075,67.0,85.0
815,147.55531946666667,147.838305125,64.0,87.0
816,147.34698646666666,147.848721775,59.0,87.0
817,147.13865346666665,147.98587433333333,47.0,81.0
818,146.93032046666667,147.9997632,40.0,89.0
819,147.97198546666667,148.17858235833333,64.0,95.0
820,147.97198546666667,148.19594344166666,67.0,88.0
821,147.97198546666667,148.21851285,59.0,88.0
822,148.59698446666667,148.84524795833332,55.0,87.0
823,148.59698446666667,149.05358095833333,64.0,88.0
824,149.01365046666666,149.34177494166667,55.0,87.0
825,149.22198346666667,149.45462198333334,60.0,86.0
826,148.80531746666665,149.72719099166665,52.0,85.0
827,148.59698446666667,149.73239931666666,48.0,90.0
828,149.63864946666666,149.80705197499998,55.0,86.0
829,149.63864946666666,149.83482970833333,60.0,89.0
830,149.63864946666666,149.84177414166666,64.0,88.0
831,150.26364846666667,150.39559269999998,57.0,86.0
832,150.26364846666667,150.55010634166666,62.0,86.0
833,150.47198146666665,150.77927264166667,57.0,82.0
834,150.68031446666666,150.786217075,62.0,82.0
835,150.88864746666667,151.171633125,62.0,87.0
836,150.88864746666667,151.18378588333331,57.0,85.0
837,150.88864746666667,151.21677194166665,66.0,91.0
838,150.26364846666667,151.31052179166667,50.0,91.0
839,151.30531346666666,151.458091,57.0,88.0
840,151.30531346666666,151.47545208333332,62.0,90.0
841,151.93031246666666,152.13864546666667,59.0,85.0
842,151.93031246666666,152.213298125,64.0,87.0
843,152.34697846666666,152.51364486666665,59.0,86.0
844,152.55531146666667,152.75843614166666,59.0,72.0
845,152.55531146666667,152.81051939166667,64.0,92.0
846,152.97197746666666,153.27579642499998,59.0,88.0
847,152.97197746666666,153.39732400833333,67.0,79.0
848,152.13864546666667,153.557045975,47.0,81.0
849,151.93031246666666,153.57614316666667,40.0,88.0
850,153.59697646666666,153.87648990833333,59.0,87.0
851,153.59697646666666,154.119545075,67.0,85.0
852,154.22197546666666,154.504961125,64.0,87.0
853,154.01364246666665,154.515377775,59.0,87.0
854,153.80530946666667,154.65253033333332,47.0,81.0
855,153.59697646666666,154.6664192,40.0,89.0
856,154.63864146666666,154.84523835833332,64.0,95.0
857,154.63864146666666,154.86259944166665,67.0,88.0
858,154.63864146666666,154.88516884999999,59.0,88.0
859,155.26364046666666,155.51190395833333,55.0,87.0
860,155.26364046666666,155.72023695833332,64.0,88.0
861,155.68030646666665,156.00843094166666,55.0,87.0
862,155.88863946666666,156.12127798333333,60.0,86.0
863,155.47197346666667,156.39384699166666,52.0,85.0
864,155.26364046666666,156.39905531666665,48.0,90.0
865,156.30530546666665,156.473707975,55.0,86.0
866,156.30530546666665,156.50148570833332,60.0,89.0
867,156.30530546666665,156.50843014166665,64.0,88.0
868,156.93030446666666,157.0622487,57.0,86.0
869,156.93030446666666,157.21676234166665,62.0,86.0
870,157.13863746666667,157.44592864166665,57.0,82.0
871,157.34697046666665,157.45287307499999,62.0,82.0
872,157.55530346666666,157.838289125,62.0,87.0
873,157.55530346666666,157.85044188333333,57.0,85.0
874,157.55530346666666,157.88342794166667,66.0,91.0
875,156.93030446666666,157.97717779166666,50.0,91.0
876,157.97196946666665,158.12474699999999,57.0,88.0
877,157.97196946666665,158.1421080833333,62.0,90.0
878,158.59696846666665,158.80530146666666,59.0,85.0
879,158.59696846666665,158.87995412499998,64.0,87.0
880,159.01363446666667,159.18030086666667,59.0,86.0
881,159.22196746666665,159.42509214166665,59.0,72.0
882,159.22196746666665,159.47717539166666,64.0,92.0
883,159.63863346666665,159.942452425,59.0,88.0
884,159.63863346666665,160.06398000833332,67.0,79.0
885,158.80530146666666,160.22370197499998,47.0,81.0
886,158.59696846666665,160.24279916666666,40.0,88.0
887,160.26363246666665,160.80182605,67.0,86.0
888,160.68029846666667,161.30008914166666,60.0,80.0
889,160.88863146666665,161.42161672499998,64.0,85.0
890,160.26363246666665,161.46154721666667,48.0,87.0
891,160.47196546666666,161.46675554166666,55.0,73.0
892,161.93029646666665,162.3747402,66.0,78.0
893,162.34696246666667,162.900781025,62.0,75.0
894,162.13862946666666,163.05355855833332,57.0,74.0
895,161.93029646666665,163.05529466666667,50.0,87.0
896,162.55529546666665,163.05876688333333,66.0,86.0
897,163.59696046666667,164.067445825,62.0,80.0
898,163.59696046666667,164.2618899583333,66.0,78.0
899,164.01362646666666,164.379945325,59.0,74.0
900,164.22195946666665,164.504945125,62.0,79.0
901,164.63862546666667,164.775778025,62.0,79.0
902,164.63862546666667,164.859111225,66.0,87.0
903,163.59696046666667,164.93029166666665,47.0,82.0
904,165.26362446666667,165.78966529166667,67.0,84.0
905,165.68029046666666,165.973692775,59.0,79.0
906,165.88862346666667,166.07091484166665,64.0,85.0
907,165.26362446666667,166.36605325833332,52.0,84.0
908,166.30528946666666,166.44765035,64.0,86.0
909,166.30528946666666,166.44938645833332,67.0,81.0
910,166.30528946666666,166.4789003,59.0,82.0
911,166.93028846666667,167.13514924999998,57.0,77.0
912,166.93028846666667,167.26709348333333,60.0,79.0
913,167.34695446666666,167.4788987,57.0,75.0
914,167.55528746666667,167.83480090833334,57.0,83.0
915,167.55528746666667,167.83480090833334,60.0,86.0
916,167.13862146666665,168.09174494166666,52.0,77.0
917,167.97195346666666,168.22542528333332,57.0,88.0
918,167.97195346666666,168.27750853333333,64.0,91.0
919,167.97195346666666,168.28271685833332,60.0,88.0
920,166.93028846666667,168.31917513333332,45.0,84.0
921,168.59695246666666,168.84347985,55.0,86.0
922,168.59695246666666,169.05007674166666,60.0,86.0
923,169.01361846666666,169.14903491666666,55.0,77.0
924,169.22195146666667,169.46153441666667,55.0,79.0
925,169.22195146666667,169.48931215,60.0,88.0
926,169.63861746666666,169.78445056666666,55.0,88.0
927,168.59695246666666,169.791395,48.0,93.0
928,169.63861746666666,169.79833943333333,60.0,90.0
929,169.63861746666666,169.817436625,64.0,93.0
930,170.26361646666666,170.515352175,57.0,82.0
931,170.26361646666666,170.6455603,62.0,86.0
932,170.88861546666666,171.15250393333332,62.0,87.0
933,170.88861546666666,171.1733372333333,57.0,89.0
934,171.30528146666666,171.53097555,57.0,88.0
935,171.30528146666666,171.57264214999998,62.0,90.0
936,171.30528146666666,171.63166983333332,66.0,93.0
937,170.68028246666665,171.70458638333332,45.0,79.0
938,170.26361646666666,171.723683575,38.0,89.0
939,171.72194746666665,171.817433425,57.0,85.0
940,171.93028046666666,172.41812690833333,57.0,87.0
941,171.93028046666666,172.43375188333331,62.0,89.0
942,171.93028046666666,172.46326572499999,66.0,87.0
943,172.55527946666666,172.6455571,62.0,73.0
944,172.55527946666666,172.65250153333332,57.0,69.0
945,172.55527946666666,172.66291818333332,66.0,75.0
946,171.93028046666666,173.22020895833333,38.0,88.0
947,172.76361246666667,173.43895860833334,57.0,88.0
948,172.76361246666667,173.44763915,62.0,91.0
949,172.76361246666667,173.46152801666665,66.0,88.0
950,173.59694446666666,173.9806244083333,64.0,88.0
951,173.59694446666666,174.07090204166667,67.0,84.0
952,174.01361046666665,174.15249913333332,59.0,88.0
953,174.22194346666666,174.4962485833333,64.0,92.0
954,174.22194346666666,174.515345775,59.0,85.0
955,174.22194346666666,174.51708188333333,67.0,88.0
956,173.80527746666667,174.74624818333334,47.0,77.0
957,173.59694446666666,174.82090084166666,40.0,89.0
958,174.63860946666665,174.86430355,64.0,93.0
959,174.63860946666665,174.87298409166667,67.0,87.0
960,174.63860946666665,174.88340074166666,59.0,86.0
961,175.26360846666665,175.536177475,55.0,85.0
962,175.26360846666665,175.57610796666665,60.0,84.0
963,175.68027446666665,175.81569091666665,55.0,90.0
964,175.88860746666666,176.15423204166666,64.0,91.0
965,175.88860746666666,176.161176475,55.0,86.0
966,175.88860746666666,176.16291258333334,60.0,90.0
967,176.30527346666665,176.43374548333333,55.0,89.0
968,175.26360846666665,176.43548159166667,36.0,86.0
969,175.47194146666666,176.44589824166667,43.0,72.0
970,176.30527346666665,176.44763435,60.0,93.0
971,176.30527346666665,176.47714819166666,64.0,95.0
972,176.93027246666665,177.22367477499998,62.0,86.0
973,176.93027246666665,177.40423004166666,66.0,88.0
974,177.34693846666667,177.827840475,57.0,90.0
975,177.55527146666665,177.83825712499998,62.0,87.0
976,177.13860546666666,178.01707628333332,45.0,82.0
977,177.97193746666665,178.02402071666666,57.0,69.0
978,176.93027246666665,178.04138179999998,38.0,90.0
979,177.97193746666665,178.26360366666665,62.0,87.0
980,177.97193746666665,178.29485361666667,66.0,102.0
981,178.18027046666666,178.348672975,57.0,81.0
982,178.59693646666665,178.7913806,55.0,87.0
983,178.59693646666665,178.86776936666666,62.0,87.0
984,178.59693646666665,178.87818601666666,59.0,87.0
985,178.59693646666665,179.11776896666666,43.0,87.0
986,179.01360246666667,179.18894940833331,55.0,88.0
987,178.80526946666666,179.33131029166665,50.0,86.0
988,179.43026846666666,179.67332363333333,57.0,87.0
989,179.43026846666666,179.75318461666666,62.0,88.0
990,179.43026846666666,179.80179565,42.0,88.0
991,179.63860146666667,179.94762874999998,50.0,86.0
992,179.84693446666665,180.10735071666664,57.0,89.0
993,180.26360046666665,180.557002775,59.0,76.0
994,180.26360046666665,180.6524887333333,64.0,87.0
995,180.68026646666667,181.12297409166666,59.0,93.0
996,180.88859946666665,181.16116847499998,64.0,90.0
997,181.30526546666667,181.4910290583333,59.0,87.0
998,180.47193346666666,181.682000975,47.0,81.0
999,180.26360046666665,181.68894540833332,40.0,88.0
1000,181.30526546666667,181.91811170833333,64.0,90.0
1001,181.30526546666667,181.92679225,67.0,88.0
1002,181.72193146666666,181.994500475,59.0,87.0
1003,182.13859746666665,182.4389442083333,59.0,87.0
1004,182.34693046666666,182.49276356666667,62.0,80.0
1005,182.55526346666664,182.8747074,59.0,87.0
1006,182.55526346666664,182.87644350833332,62.0,88.0
1007,182.55526346666664,182.8955407,66.0,93.0
1008,182.97192946666667,183.150748625,59.0,89.0
1009,181.93026446666667,183.23060960833334,47.0,93.0
1010,182.97192946666667,183.25317901666665,62.0,88.0
1011,182.97192946666667,183.25838734166666,66.0,89.0
1012,183.59692846666667,183.80352535833333,55.0,86.0
1013,183.59692846666667,183.88338634166666,60.0,86.0
1014,184.01359446666666,184.16116367499998,55.0,90.0
1015,184.22192746666667,184.53095474999998,64.0,100.0
1016,184.22192746666667,184.54831583333333,60.0,90.0
1017,184.22192746666667,184.55699637499998,55.0,87.0
1018,183.59692846666667,184.71845445,48.0,92.0
1019,184.63859346666666,184.734079425,55.0,83.0
1020,183.80526146666665,184.848662575,52.0,84.0
1021,184.63859346666666,184.87817641666666,60.0,86.0
1022,184.84692646666664,185.056995575,55.0,87.0
1023,185.26359246666667,185.546578125,59.0,84.0
1024,185.26359246666667,185.70456398333332,63.0,81.0
1025,185.68025846666666,185.81741102499998,59.0,86.0
1026,185.88859146666667,186.14032717499998,59.0,88.0
1027,185.88859146666667,186.1663688,63.0,88.0
1028,185.47192546666665,186.431993375,54.0,80.0
1029,186.30525746666666,186.52747933333333,59.0,87.0
1030,186.30525746666666,186.63511805,66.0,90.0
1031,186.30525746666666,186.64553469999998,63.0,90.0
1032,186.51359046666667,186.74622898333334,51.0,75.0
1033,186.51359046666667,186.76706228333333,54.0,87.0
1034,185.26359246666667,186.86775656666666,47.0,87.0
1035,186.93025646666666,187.19067271666665,59.0,84.0
1036,186.93025646666666,187.27226980833333,64.0,87.0
1037,187.34692246666665,187.78789398333333,59.0,89.0
1038,187.55525546666667,187.82608836666665,64.0,88.0
1039,187.13858946666664,187.99969919999998,47.0,82.0
1040,186.93025646666666,188.03789358333333,40.0,90.0
1041,187.97192146666666,188.15421284166666,59.0,88.0
1042,187.97192146666666,188.400740225,64.0,90.0
1043,187.97192146666666,188.41983741666667,67.0,88.0
1044,188.38858746666665,188.494490075,59.0,90.0
1045,188.59692046666666,188.83129509166665,57.0,87.0
1046,188.59692046666666,188.97712819166665,60.0,95.0
1047,189.01358646666665,189.12296129166666,57.0,79.0
1048,189.22191946666666,189.48233571666665,57.0,82.0
1049,189.22191946666666,189.49796069166666,60.0,84.0
1050,189.63858546666665,189.838237925,57.0,85.0
1051,189.63858546666665,189.97191826666665,64.0,87.0
1052,189.63858546666665,189.98059880833333,60.0,88.0
1053,188.59692046666666,190.036154275,45.0,87.0
1054,188.80525346666667,190.05525146666665,52.0,82.0
1055,190.26358446666666,190.44413973333332,57.0,71.0
1056,190.26358446666666,190.71844485,62.0,80.0
1057,190.68025046666665,190.827819675,57.0,86.0
1058,190.88858346666666,191.1628885833333,57.0,82.0
1059,190.88858346666666,191.19066631666666,62.0,86.0
1060,191.30524946666665,191.44413813333333,57.0,85.0
1061,190.26358446666666,191.75837374166665,50.0,88.0
1062,191.30524946666665,191.765318175,66.0,86.0
1063,191.30524946666665,191.76879039166667,62.0,87.0
1064,191.72191546666664,191.80004034166666,57.0,87.0
1065,191.93024846666665,192.1576786583333,55.0,87.0
1066,191.93024846666665,192.33997003333332,59.0,88.0
1067,191.93024846666665,192.40941436666665,43.0,87.0
1068,192.34691446666665,192.5430947083333,55.0,89.0
1069,192.13858146666666,192.63858066666666,50.0,81.0
1070,192.76358046666667,193.0205245,57.0,82.0
1071,192.76358046666667,193.20628809166666,42.0,87.0
1072,192.76358046666667,193.265315775,62.0,84.0
1073,192.97191346666665,193.36253784166666,50.0,84.0
1074,193.18024646666666,193.37295449166666,57.0,89.0
1075,193.59691246666665,193.754898325,59.0,87.0
1076,193.59691246666665,193.89378699166664,64.0,89.0
1077,193.80524546666666,194.08302279999998,59.0,86.0
1078,194.01357846666664,194.12295329166665,64.0,83.0
1079,194.22191146666665,194.54309150833333,67.0,88.0
1080,194.22191146666665,194.56045259166666,64.0,93.0
1081,194.22191146666665,194.567397025,59.0,88.0
1082,193.59691246666665,194.82086884166665,52.0,83.0
1083,194.63857746666665,194.85732711666665,64.0,93.0
1084,194.63857746666665,194.8955215,59.0,87.0
1085,195.26357646666665,195.52399271666667,59.0,87.0
1086,195.26357646666665,195.72017295833334,66.0,79.0
1087,195.68024246666667,195.82086724166666,59.0,87.0
1088,195.47190946666666,195.98058920833333,54.0,79.0
1089,195.88857546666665,196.161144475,59.0,87.0
1090,195.88857546666665,196.1663528,62.0,93.0
1091,196.09690846666666,196.32433865833332,54.0,81.0
1092,196.30524146666664,196.42850515833334,59.0,88.0
1093,195.26357646666665,196.4371857,47.0,88.0
1094,196.30524146666664,196.588227125,62.0,91.0
1095,196.30524146666664,196.79308790833332,66.0,90.0
1096,196.51357446666665,196.91461549166667,59.0,89.0
1097,196.72190746666666,196.94412933333334,62.0,82.0
1098,197.55523946666665,197.84690566666666,60.0,89.0
1099,197.34690646666667,197.848641775,55.0,91.0
1100,197.97190546666667,198.13509965,55.0,89.0
1101,196.93024046666665,198.4337102833333,48.0,93.0
1102,197.97190546666667,198.45107136666667,60.0,90.0
1103,197.97190546666667,198.45975190833332,64.0,90.0
1104,197.13857346666666,198.46843245,52.0,88.0
1105,198.38857146666666,198.47711299166664,55.0,75.0
1106,198.59690446666664,198.82259854999998,59.0,88.0
1107,198.59690446666664,198.87120958333333,63.0,87.0
1108,199.01357046666666,199.10037588333333,63.0,82.0
1109,199.01357046666666,199.1038481,66.0,79.0
1110,199.01357046666666,199.11252864166667,59.0,84.0
1111,199.22190346666665,199.49273636666666,63.0,87.0
1112,199.22190346666665,199.49447247499998,59.0,89.0
1113,199.22190346666665,199.49794469166665,66.0,86.0
1114,199.43023646666666,199.76356926666665,51.0,67.0
1115,199.43023646666666,199.87294409166665,54.0,66.0
1116,199.63856946666667,200.14377699166667,59.0,90.0
1117,199.84690246666665,200.23058240833333,51.0,78.0
1118,199.63856946666667,200.23058240833333,63.0,91.0
1119,199.63856946666667,200.24273516666665,66.0,87.0
1120,198.59690446666664,200.25836014166666,47.0,88.0
1121,200.26356846666667,200.54308190833333,59.0,87.0
1122,200.26356846666667,200.786137075,67.0,85.0
1123,200.88856746666664,201.171553125,64.0,87.0
1124,200.68023446666666,201.181969775,59.0,87.0
1125,200.47190146666665,201.31912233333333,47.0,81.0
1126,200.26356846666667,201.3330112,40.0,89.0
1127,201.30523346666666,201.51183035833333,64.0,95.0
1128,201.30523346666666,201.52919144166665,67.0,88.0
1129,201.30523346666666,201.55176085,59.0,88.0
1130,201.93023246666667,202.17849595833331,55.0,87.0
1131,201.93023246666667,202.38682895833333,64.0,88.0
1132,202.34689846666666,202.67502294166667,55.0,87.0
1133,202.55523146666667,202.78786998333334,60.0,86.0
1134,202.13856546666665,203.06043899166664,52.0,85.0
1135,201.93023246666667,203.06564731666666,48.0,90.0
1136,202.97189746666666,203.14029997499998,55.0,86.0
1137,202.97189746666666,203.16807770833333,60.0,89.0
1138,202.97189746666666,203.17502214166666,64.0,88.0
1139,203.59689646666666,203.72884069999998,57.0,86.0
1140,203.59689646666666,203.88335434166666,62.0,86.0
1141,203.80522946666665,204.11252064166666,57.0,82.0
1142,204.01356246666666,204.119465075,62.0,82.0
1143,204.22189546666667,204.504881125,62.0,87.0
1144,204.22189546666667,204.5170338833333,57.0,85.0
1145,204.22189546666667,204.55001994166665,66.0,91.0
1146,203.59689646666666,204.64376979166667,50.0,91.0
1147,204.63856146666666,204.791339,57.0,88.0
1148,204.63856146666666,204.80870008333332,62.0,90.0
1149,205.26356046666666,205.47189346666667,59.0,85.0
1150,205.26356046666666,205.546546125,64.0,87.0
1151,205.68022646666665,205.84689286666665,59.0,86.0
1152,205.88855946666666,206.09168414166666,59.0,72.0
1153,205.88855946666666,206.14376739166667,64.0,92.0
1154,206.30522546666666,206.60904442499998,59.0,88.0
1155,206.30522546666666,206.73057200833333,67.0,79.0
1156,205.47189346666667,206.890293975,47.0,81.0
1157,205.26356046666666,206.90939116666667,40.0,88.0
1158,206.93022446666666,207.20973790833332,59.0,87.0
1159,206.93022446666666,207.452793075,67.0,85.0
1160,207.55522346666666,207.838209125,64.0,87.0
1161,207.34689046666665,207.848625775,59.0,87.0
1162,207.13855746666667,207.98577833333331,47.0,81.0
1163,206.93022446666666,207.99966719999998,40.0,89.0
1164,207.97188946666665,208.17848635833332,64.0,95.0
1165,207.97188946666665,208.19584744166664,67.0,88.0
1166,207.97188946666665,208.21841684999998,59.0,88.0
1167,208.59688846666666,208.84515195833333,55.0,87.0
1168,208.59688846666666,209.0534849583333,64.0,88.0
1169,209.01355446666665,209.34167894166666,55.0,87.0
1170,209.22188746666666,209.45452598333333,60.0,86.0
1171,208.80522146666667,209.72709499166666,52.0,85.0
1172,208.59688846666666,209.73230331666664,48.0,90.0
1173,209.63855346666665,209.806955975,55.0,86.0
1174,209.63855346666665,209.83473370833332,60.0,89.0
1175,209.63855346666665,209.84167814166665,64.0,88.0
1176,210.26355246666665,210.3954967,57.0,86.0
1177,210.26355246666665,210.55001034166665,62.0,86.0
1178,210.47188546666666,210.77917664166665,57.0,82.0
1179,210.68021846666664,210.78612107499998,62.0,82.0
1180,210.88855146666666,211.171537125,62.0,87.0
1181,210.88855146666666,211.18368988333333,57.0,85.0
1182,210.88855146666666,211.21667594166667,66.0,91.0
1183,210.26355246666665,211.31042579166666,50.0,91.0
1184,211.30521746666665,211.45799499999998,57.0,88.0
1185,211.30521746666665,211.4753560833333,62.0,90.0
1186,211.93021646666665,212.13854946666666,59.0,85.0
1187,211.93021646666665,212.21320212499998,64.0,87.0
1188,212.34688246666667,212.51354886666667,59.0,86.0
1189,212.55521546666665,212.75834014166665,59.0,72.0
1190,212.55521546666665,212.81042339166666,64.0,92.0
1191,212.97188146666664,213.275700425,59.0,88.0
1192,212.97188146666664,213.39722800833331,67.0,79.0
1193,212.13854946666666,213.55694997499998,47.0,81.0
1194,211.93021646666665,213.57604716666665,40.0,88.0
1195,213.59688046666665,213.8763939083333,59.0,87.0
1196,213.59688046666665,214.11944907499998,67.0,85.0
1197,214.22187946666665,214.50486512499998,64.0,87.0
1198,214.01354646666667,214.51528177499998,59.0,87.0
1199,213.80521346666666,214.65243433333333,47.0,81.0
1200,213.59688046666665,214.6663232,40.0,89.0
1201,214.63854546666667,214.84514235833333,64.0,95.0
1202,214.63854546666667,214.86250344166666,67.0,88.0
1203,214.63854546666667,214.88507285,59.0,88.0
1204,215.26354446666664,215.51180795833332,55.0,87.0
1205,215.26354446666664,215.72014095833333,64.0,88.0
1206,215.68021046666667,216.00833494166665,55.0,87.0
1207,215.88854346666665,216.12118198333332,60.0,86.0
1208,215.47187746666665,216.39375099166665,52.0,85.0
1209,215.26354446666664,216.39895931666666,48.0,90.0
1210,216.30520946666667,216.47361197499998,55.0,86.0
1211,216.30520946666667,216.50138970833333,60.0,89.0
1212,216.30520946666667,216.50833414166667,64.0,88.0
1213,216.93020846666667,217.06215269999998,57.0,86.0
1214,216.93020846666667,217.21666634166667,62.0,86.0
1215,217.13854146666665,217.44583264166667,57.0,82.0
1216,217.34687446666666,217.452777075,62.0,82.0
1217,217.55520746666664,217.838193125,62.0,87.0
1218,217.55520746666664,217.85034588333332,57.0,85.0
1219,217.55520746666664,217.88333194166665,66.0,91.0
1220,216.93020846666667,217.97708179166665,50.0,91.0
1221,217.97187346666666,218.124651,57.0,88.0
1222,217.97187346666666,218.14201208333333,62.0,90.0
1223,218.59687246666667,218.80520546666665,59.0,85.0
1224,218.59687246666667,218.879858125,64.0,87.0
1225,219.01353846666666,219.18020486666666,59.0,86.0
1226,219.22187146666667,219.42499614166667,59.0,72.0
1227,219.22187146666667,219.47707939166665,64.0,92.0
1228,219.63853746666666,219.94235642499999,59.0,88.0
1229,219.63853746666666,220.06388400833333,67.0,79.0
1230,218.80520546666665,220.223605975,47.0,81.0
1231,218.59687246666667,220.24270316666664,40.0,88.0
1232,220.26353646666666,220.54304990833333,59.0,87.0
1233,220.26353646666666,220.786105075,67.0,85.0
1234,220.88853546666667,221.171521125,64.0,87.0
1235,220.68020246666666,221.181937775,59.0,87.0
1236,220.47186946666665,221.31909033333332,47.0,81.0
1237,220.26353646666666,221.33297919999998,40.0,89.0
1238,221.30520146666666,221.51179835833332,64.0,95.0
1239,221.30520146666666,221.52915944166665,67.0,88.0
1240,221.30520146666666,221.55172885,59.0,88.0
1241,221.93020046666666,222.1784639583333,55.0,87.0
1242,221.93020046666666,222.38679695833332,64.0,88.0
1243,222.34686646666665,222.67499094166666,55.0,87.0
1244,222.55519946666666,222.78783798333333,60.0,86.0
1245,222.13853346666664,223.06040699166667,52.0,85.0
1246,221.93020046666666,223.06561531666665,48.0,90.0
1247,222.97186546666666,223.140267975,55.0,86.0
1248,222.97186546666666,223.16804570833332,60.0,89.0
1249,222.97186546666666,223.17499014166665,64.0,88.0
1250,223.59686446666666,223.7288087,57.0,86.0
1251,223.59686446666666,223.88332234166666,62.0,86.0
1252,223.80519746666667,224.11248864166666,57.0,82.0
1253,224.01353046666665,224.119433075,62.0,82.0
1254,224.22186346666666,224.504849125,62.0,87.0
1255,224.22186346666666,224.51700188333334,57.0,85.0
1256,224.22186346666666,224.54998794166664,66.0,91.0
1257,223.59686446666666,224.64373779166667,50.0,91.0
1258,224.63852946666665,224.791307,57.0,88.0
1259,224.63852946666665,224.80866808333332,62.0,90.0
1260,225.26352846666666,225.47186146666667,59.0,85.0
1261,225.26352846666666,225.546514125,64.0,87.0
1262,225.68019446666665,225.84686086666665,59.0,86.0
1263,225.88852746666666,226.09165214166666,59.0,72.0
1264,225.88852746666666,226.14373539166667,64.0,92.0
1265,226.30519346666665,226.609012425,59.0,88.0
1266,226.30519346666665,226.73054000833332,67.0,79.0
1267,225.47186146666667,226.890261975,47.0,81.0
1268,225.26352846666666,226.90935916666666,40.0,88.0
1269,226.93019246666665,227.3138724083333,67.0,78.0
1270,227.34685846666665,227.59338584999998,64.0,82.0
1271,227.13852546666666,227.60901082499998,59.0,85.0
1272,227.55519146666666,227.8329688,67.0,86.0
1273,227.97185746666665,228.16109327499998,59.0,86.0
1274,226.93019246666665,228.25831534166664,52.0,88.0
1275,227.97185746666665,228.29303750833333,64.0,88.0
1276,228.59685646666665,228.84685606666665,60.0,80.0
1277,228.59685646666665,229.07428625833333,67.0,82.0
1278,229.01352246666664,229.30171645,60.0,79.0
1279,229.22185546666665,229.60206319166664,64.0,82.0
1280,228.59685646666665,229.68018806666666,48.0,85.0
1281,228.80518946666666,229.702757475,55.0,72.0
1282,229.63852146666665,229.81907673333333,67.0,82.0
1283,230.26352046666665,230.47358957499998,62.0,70.0
1284,230.26352046666665,230.70275587499998,66.0,75.0
1285,230.68018646666667,230.98226931666665,62.0,75.0
1286,230.88851946666665,231.25831054166665,66.0,87.0
1287,230.26352046666665,231.296504925,50.0,82.0
1288,230.47185346666666,231.296504925,57.0,74.0
1289,231.30518546666664,231.588171125,62.0,72.0
1290,231.51351846666665,231.63504605,66.0,78.0
1291,231.93018446666665,232.12983692499998,64.0,77.0
1292,231.93018446666665,232.23226731666665,67.0,79.0
1293,232.34685046666667,232.54823903333332,64.0,85.0
1294,232.55518346666665,232.7496276,67.0,81.0
1295,232.13851746666666,232.79476641666665,59.0,75.0
1296,231.93018446666665,232.81907193333333,52.0,86.0
1297,232.97184946666667,233.09511315833333,64.0,78.0
1298,232.97184946666667,233.09684926666665,67.0,72.0
1299,232.97184946666667,233.12636310833332,71.0,82.0
1300,233.59684846666664,233.81038979166667,64.0,79.0
1301,233.59684846666664,233.83295919999998,67.0,79.0
1302,234.01351446666666,234.24094465833332,64.0,75.0
1303,233.80518146666665,234.588166325,59.0,75.0
1304,233.59684846666664,234.6211523833333,52.0,87.0
1305,234.22184746666665,234.63504125,67.0,74.0
1306,235.26351246666667,235.47184546666665,60.0,73.0
1307,235.26351246666667,235.63677575833333,64.0,82.0
1308,235.68017846666666,235.95969190833333,60.0,75.0
1309,235.47184546666665,236.192330425,55.0,75.0
1310,235.88851146666664,236.20621929166666,64.0,79.0
1311,235.26351246666667,236.22531648333333,48.0,81.0
1312,236.93017646666667,237.14719000833333,62.0,73.0
1313,236.93017646666667,237.29996754166666,66.0,76.0
1314,237.34684246666666,237.869411075,62.0,74.0
1315,237.55517546666667,237.89892491666666,66.0,79.0
1316,236.93017646666667,238.01177195833333,50.0,75.0
1317,237.13850946666665,238.0621191,57.0,73.0
1318,238.59684046666666,238.80343735833333,64.0,74.0
1319,238.59684046666666,238.99614538333333,67.0,74.0
1320,239.22183946666667,239.65586654999998,67.0,74.0
1321,239.01350646666666,239.68364428333334,64.0,78.0
1322,238.80517346666664,239.73919974999998,59.0,74.0
1323,238.59684046666666,239.74267196666665,52.0,82.0
