,start,end,pitch,velocity
0,12.159813868750001,12.489360466666668,63.0,107.0
1,12.52428936875,12.838649487500001,60.0,79.0
2,12.88876486875,13.22590470625,58.0,88.0
3,13.253240368750001,13.585824262500001,60.0,71.0
4,13.61771586875,14.910085245833335,58.0,72.0
5,15.804568868750001,16.071850902083334,58.0,90.0
6,16.16904436875,16.548706347916667,60.0,76.0
7,16.533519868750002,16.686903308333335,63.0,64.0
8,16.89799536875,17.1576841625,63.0,89.0
9,17.26247086875,17.5586072125,65.0,92.0
10,17.62694636875,17.918526768750002,63.0,89.0
11,17.991421868750002,18.314893875000003,65.0,96.0
12,18.35589736875,19.265567470833336,67.0,89.0
13,20.90722586875,21.09857550625,67.0,93.0
14,21.27170136875,21.42356616041667,67.0,93.0
15,21.636176868750002,21.933831860416667,67.0,96.0
16,22.00065236875,22.188964710416666,65.0,86.0
17,22.36512786875,22.700749058333336,65.0,93.0
18,22.729603368750002,22.995366754166668,63.0,93.0
19,23.09407886875,23.540561356250002,65.0,81.0
20,23.82302986875,25.249040262500003,60.0,81.0
21,26.00988286875,26.172378195833335,67.0,95.0
22,26.374358368750002,26.51103668125,67.0,89.0
23,26.738833868750003,27.056231283333336,67.0,99.0
24,27.10330936875,27.197465539583334,65.0,77.0
25,27.285547118750003,27.640910731250003,65.0,95.0
26,27.832260368750003,28.117766177083336,63.0,86.0
27,28.19673586875,28.910500389583333,60.0,68.0
28,28.925686868750002,29.21422997291667,60.0,96.0
29,29.290162368750003,29.603003839583334,67.0,89.0
30,29.65463786875,30.14819844166667,67.0,90.0
31,30.20135111875,31.08672285416667,65.0,79.0
32,31.11253986875,31.525612102083336,63.0,99.0
33,31.65925311875,32.02220997083334,65.0,85.0
34,32.205966368750005,34.72084731875,65.0,90.0
35,35.486245868750004,35.811236522916666,63.0,99.0
36,35.85072136875,36.17723067083334,60.0,72.0
37,36.21519686875,36.605489383333335,58.0,68.0
38,36.57967236875,36.98211406666667,60.0,81.0
39,36.94414786875,37.935824958333335,58.0,67.0
40,39.13100086875,39.40132019791667,58.0,97.0
41,39.495476368750005,39.80528054375,60.0,83.0
42,39.85995186875,40.08167446458334,63.0,85.0
43,40.22442736875,40.43551942916667,63.0,69.0
44,40.588902868750004,40.91844946666667,65.0,75.0
45,40.95337836875,41.322409812500005,63.0,72.0
46,41.31785386875,41.70662773541667,65.0,85.0
47,41.682329368750004,43.75680242291667,67.0,92.0
48,44.23365786875,44.4933466625,67.0,96.0
49,44.598133368750005,44.83200514791667,67.0,88.0
50,44.96260886875,45.24204008541667,67.0,92.0
51,45.32708436875,45.55184426041667,65.0,85.0
52,45.691559868750005,46.019587818750004,65.0,92.0
53,46.05603536875,46.456958418750006,63.0,96.0
54,46.42051086875,47.049231106250005,65.0,89.0
55,47.14946186875,48.46309231666667,60.0,92.0
56,49.33631486875,49.5048847875,67.0,88.0
57,49.700790368750006,49.83898732916667,67.0,83.0
58,50.065265868750004,50.387219227083335,67.0,107.0
59,50.42974136875,50.52086024375,65.0,75.0
60,50.61197911875,50.97038002708334,65.0,72.0
61,51.15869236875,51.448754120833335,63.0,96.0
62,51.52316786875,52.19896619166667,60.0,89.0
63,52.25211886875,52.55584845208334,60.0,96.0
64,52.61659436875,52.84439155625,67.0,99.0
65,52.981069868750005,53.45640666666667,67.0,100.0
66,53.52778311875,54.32659192291667,65.0,88.0
67,54.43897186875,54.80952196041667,63.0,99.0
68,54.985685118750006,55.39420140833334,65.0,92.0
69,55.53239836875,57.678247875000004,65.0,117.0
70,58.44820236875,58.592473920833335,67.0,95.0
71,58.81267786875,59.136149875,67.0,99.0
72,59.177153368750005,59.31231303333334,65.0,88.0
73,59.54162886875,59.91673490416667,65.0,93.0
74,59.90610436875,59.91673490416667,65.0,96.0
75,60.270579868750005,61.04509030625,65.0,97.0
76,60.99953086875001,61.22732805625,58.0,100.0
77,61.364006368750005,62.981366400000006,63.0,102.0
78,63.550859368750004,63.83029058541667,60.0,75.0
79,63.91533486875,64.21450850833334,58.0,88.0
80,64.27981036875,64.48179054166667,60.0,90.0
81,64.64428586875,65.08469376458333,63.0,102.0
82,65.19099911875,65.69367157916668,63.0,99.0
83,66.10218786875001,66.35428342291667,63.0,112.0
84,66.46666336875,66.88125425,65.0,117.0
85,67.19561436875,68.284484925,60.0,96.0
86,68.47127861875,69.70897667083334,58.0,92.0
87,70.11141836875001,70.21316777916667,63.0,102.0
88,70.47589386875,70.7173588875,65.0,100.0
89,70.84036936875,70.98919686458333,65.0,90.0
90,71.20484486875,71.34911642083334,65.0,86.0
91,71.56932036875,71.85482617708334,58.0,95.0
92,71.93379586875001,72.50936342916667,65.0,88.0
93,72.66274686875,73.03329696041668,65.0,112.0
94,73.02722236875,73.46611161666667,67.0,82.0
95,73.39169786875,73.77287849583334,65.0,92.0
96,73.75617336875,74.90427119375,63.0,81.0
97,75.21407536875,75.46009633125,60.0,92.0
98,75.57855086875,75.81242264791668,58.0,85.0
99,75.94302636875001,76.14652518958334,60.0,79.0
100,76.30750186875001,76.70994356666667,63.0,100.0
101,76.67197736875,76.70994356666667,63.0,102.0
102,77.76540386875,78.16936421458334,63.0,102.0
103,78.31211711875001,78.70240963333333,65.0,99.0
104,78.85883036875,79.95225686875,65.0,99.0
105,80.31673236875001,80.53238037291668,58.0,112.0
106,80.68120786875001,81.15198872291667,70.0,102.0
107,81.41015886875,81.62276957708333,70.0,127.0
108,81.77463436875,82.29704925208334,72.0,112.0
109,82.50358536875001,84.0936097375,67.0,107.0
110,85.41938936875,85.60314576666667,67.0,107.0
111,85.78386486875,85.92054318125001,67.0,100.0
112,86.14834036875,86.25312707500001,67.0,100.0
113,86.51281586875001,86.90158973541668,67.0,122.0
114,87.24176686875,87.51664214166667,65.0,95.0
115,87.60624236875,87.89478547291667,63.0,99.0
116,87.97071786875,88.45516655416667,62.0,102.0
117,88.51743111875001,90.07556388125,70.0,112.0
118,91.25099736875,91.428679175,67.0,102.0
119,91.61547286875,91.77341225208333,67.0,100.0
120,91.97994836875,92.10599614583334,67.0,107.0
121,92.34442386875,92.63600426875,67.0,112.0
122,92.70889936875001,92.87443199166667,65.0,90.0
123,93.07337486875001,93.30724664791667,65.0,96.0
124,93.43785036875,93.91470581458334,63.0,112.0
125,94.16680136875,95.29819406666667,60.0,97.0
126,97.08260536875001,97.26332447083334,60.0,93.0
127,97.44708086875,97.66728481666667,63.0,107.0
128,97.81155636875,97.94216008958334,60.0,99.0
129,98.17603186875,98.32182206875001,70.0,127.0
130,98.54050736875,99.10696304166667,72.0,117.0
131,99.63393386875,100.01511449583334,72.0,127.0
132,99.99840936875,100.2216506125,70.0,100.0
133,100.36288486875,100.56334639375001,70.0,122.0
134,100.72736036875001,101.51857593333334,65.0,102.0
135,103.64316436875,103.95144989583333,58.0,107.0
136,104.00763986875,104.47690207500001,70.0,127.0
137,104.73659086875,104.99020507083334,70.0,127.0
138,105.10106636875001,105.53539967291667,72.0,127.0
139,105.83001736875,108.03813143958334,67.0,112.0
140,108.74582136875,108.92957776666667,67.0,112.0
141,109.11029686875001,109.24849382916668,67.0,100.0
142,109.47477236875001,109.58715231458334,67.0,117.0
143,109.83924786875001,110.15968257916667,67.0,122.0
144,110.56819886875,110.818775775,65.0,93.0
145,110.93267436875,111.13921048541667,63.0,95.0
146,111.29714986875001,111.58873026875001,62.0,99.0
147,111.66162536875001,112.30705073333334,70.0,127.0
148,114.57742936875,114.69588390625,67.0,107.0
149,114.94190486875,115.07098994166667,67.0,100.0
150,115.30638036875001,115.42939085,67.0,100.0
151,115.67085586875001,115.89865305625001,67.0,107.0
152,116.03533136875001,116.15834185000001,65.0,96.0
153,116.39980686875,116.59874974583335,65.0,97.0
154,116.76428236875,117.15913082708335,63.0,112.0
155,117.49323336875001,118.85546055,60.0,102.0
156,120.40903736875,120.63835320416668,60.0,89.0
157,120.77351286875,121.04079490208333,63.0,99.0
158,121.13798836875,121.33085665416668,60.0,99.0
159,121.50246386875001,121.57384032083334,70.0,122.0
160,122.04917711875001,122.51236473333334,72.0,117.0
161,122.96036586875,123.3476210875,72.0,122.0
162,123.32484136875,123.59516069791667,70.0,96.0
163,123.68931686875001,123.82599518125001,70.0,112.0
164,124.05379236875001,126.01132953333334,65.0,100.0
165,128.06302286875,128.34245408541668,65.0,102.0
166,128.60973611875002,130.6006835375,63.0,117.0
167,152.11840586875002,152.4433965229167,63.0,99.0
168,152.48288136875001,152.80939067083335,60.0,72.0
169,152.84735686875,153.23764938333335,58.0,68.0
170,153.21183236875,153.61427406666667,60.0,81.0
171,153.57630786875,154.56798495833334,58.0,67.0
172,155.76316086875002,156.03348019791667,58.0,97.0
173,156.12763636875002,156.43744054375,60.0,83.0
174,156.49211186875002,156.71383446458333,63.0,85.0
175,156.85658736875,157.06767942916667,63.0,69.0
176,157.22106286875,157.55060946666669,65.0,75.0
177,157.58553836875,157.9545698125,63.0,72.0
178,157.95001386875,158.33878773541667,65.0,85.0
179,158.31448936875,160.38896242291668,67.0,92.0
180,160.86581786875,161.12550666250002,67.0,96.0
181,161.23029336875,161.46416514791667,67.0,88.0
182,161.59476886875,161.87420008541667,67.0,92.0
183,161.95924436875,162.18400426041669,65.0,85.0
184,162.32371986875,162.65174781875,65.0,92.0
185,162.68819536875,163.08911841875002,63.0,96.0
186,163.05267086875,163.68139110625,65.0,89.0
187,163.78162186875002,165.0952523166667,60.0,92.0
188,165.96847486875,166.1370447875,67.0,88.0
189,166.33295036875,166.47114732916668,67.0,83.0
190,166.69742586875,167.01937922708333,67.0,107.0
191,167.06190136875,167.15302024375,65.0,75.0
192,167.24413911875,167.60254002708334,65.0,72.0
193,167.79085236875002,168.08091412083334,63.0,96.0
194,168.15532786875002,168.83112619166667,60.0,89.0
195,168.88427886875002,169.18800845208335,60.0,96.0
196,169.24875436875,169.47655155625,67.0,99.0
197,169.61322986875,170.08856666666668,67.0,100.0
198,170.15994311875002,170.9587519229167,65.0,88.0
199,171.07113186875,171.44168196041667,63.0,99.0
200,171.61784511875,172.02636140833334,65.0,92.0
201,172.16455836875002,174.310407875,65.0,117.0
202,175.08036236875,175.22463392083336,67.0,95.0
203,175.44483786875,175.768309875,67.0,99.0
204,175.80931336875,175.94447303333334,65.0,88.0
205,176.17378886875002,176.54889490416667,65.0,93.0
206,176.53826436875002,176.54889490416667,65.0,96.0
207,176.90273986875002,177.67725030625002,65.0,97.0
208,177.63169086875,177.85948805625,58.0,100.0
209,177.99616636875,179.6135264,63.0,102.0
210,180.18301936875002,180.4624505854167,60.0,75.0
211,180.54749486875002,180.84666850833335,58.0,88.0
212,180.91197036875002,181.11395054166667,60.0,90.0
213,181.27644586875002,181.71685376458333,63.0,102.0
214,181.82315911875,182.32583157916667,63.0,99.0
215,182.73434786875,182.98644342291666,63.0,112.0
216,183.09882336875,183.51341425,65.0,117.0
217,183.82777436875,184.916644925,60.0,96.0
218,185.10343861875,186.34113667083335,58.0,92.0
219,186.74357836875,186.84532777916667,63.0,102.0
220,187.10805386875,187.3495188875,65.0,100.0
221,187.47252936875,187.62135686458333,65.0,90.0
222,187.83700486875,187.98127642083335,65.0,86.0
223,188.20148036875,188.48698617708334,58.0,95.0
224,188.56595586875002,189.14152342916668,65.0,88.0
225,189.29490686875002,189.6654569604167,65.0,112.0
226,189.65938236875002,190.09827161666666,67.0,82.0
227,190.02385786875,190.40503849583334,65.0,92.0
228,190.38833336875,191.53643119375002,63.0,81.0
229,191.84623536875,192.09225633125,60.0,92.0
230,192.21071086875,192.4445826479167,58.0,85.0
231,192.57518636875002,192.77868518958334,60.0,79.0
232,192.93966186875002,193.34210356666668,63.0,100.0
233,193.30413736875002,193.34210356666668,63.0,102.0
234,194.39756386875,194.80152421458334,63.0,102.0
235,194.94427711875002,195.33456963333333,65.0,99.0
236,195.49099036875,196.58441686875003,65.0,99.0
237,196.94889236875002,197.1645403729167,58.0,112.0
238,197.31336786875002,197.78414872291668,70.0,102.0
239,198.04231886875002,198.25492957708335,70.0,127.0
240,198.40679436875,198.92920925208335,72.0,112.0
241,199.13574536875,200.7257697375,67.0,107.0
242,202.05154936875002,202.23530576666667,67.0,107.0
243,202.41602486875001,202.55270318125002,67.0,100.0
244,202.78050036875,202.885287075,67.0,100.0
245,203.14497586875,203.53374973541668,67.0,122.0
246,203.87392686875,204.1488021416667,65.0,95.0
247,204.23840236875,204.52694547291668,63.0,99.0
248,204.60287786875,205.08732655416668,62.0,102.0
249,205.14959111875,206.70772388125002,70.0,112.0
250,207.88315736875,208.060839175,67.0,102.0
251,208.24763286875,208.40557225208335,67.0,100.0
252,208.61210836875,208.73815614583336,67.0,107.0
253,208.97658386875003,209.26816426875,67.0,112.0
254,209.34105936875002,209.50659199166668,65.0,90.0
255,209.70553486875002,209.93940664791668,65.0,96.0
256,210.07001036875002,210.54686581458336,63.0,112.0
257,210.79896136875,211.93035406666667,60.0,97.0
258,213.71476536875002,213.89548447083334,60.0,93.0
259,214.07924086875002,214.2994448166667,63.0,107.0
260,214.44371636875002,214.57432008958335,60.0,99.0
261,214.80819186875001,214.95398206875,70.0,127.0
262,215.17266736875,215.7391230416667,72.0,117.0
263,216.26609386875,216.64727449583336,72.0,127.0
264,216.63056936875,216.8538106125,70.0,100.0
265,216.99504486875,217.19550639375,70.0,122.0
266,217.35952036875003,218.15073593333335,65.0,102.0
267,220.27532436875,220.58360989583335,58.0,107.0
268,220.63979986875,221.10906207500003,70.0,127.0
269,221.36875086875003,221.62236507083335,70.0,127.0
270,221.73322636875002,222.16755967291667,72.0,127.0
271,222.46217736875002,224.67029143958334,67.0,112.0
272,225.37798136875,225.56173776666668,67.0,112.0
273,225.74245686875003,225.88065382916668,67.0,100.0
274,226.10693236875002,226.21931231458333,67.0,117.0
275,226.47140786875002,226.79184257916668,67.0,122.0
276,227.20035886875002,227.450935775,65.0,93.0
277,227.56483436875,227.77137048541667,63.0,95.0
278,227.92930986875,228.22089026875003,62.0,99.0
279,228.29378536875,228.93921073333334,70.0,127.0
280,231.20958936875002,231.32804390625,67.0,107.0
281,231.57406486875,231.70314994166668,67.0,100.0
282,231.93854036875,232.06155085,67.0,100.0
283,232.30301586875,232.53081305625003,67.0,107.0
284,232.66749136875,232.79050185000003,65.0,96.0
285,233.03196686875,233.23090974583334,65.0,97.0
286,233.39644236875,233.79129082708334,63.0,112.0
287,234.12539336875003,235.48762055,60.0,102.0
288,237.04119736875,237.2705132041667,60.0,89.0
289,237.40567286875,237.67295490208335,63.0,99.0
290,237.77014836875,237.9630166541667,60.0,99.0
291,238.13462386875003,238.4596145229167,70.0,122.0
292,238.68133711875,239.14452473333336,72.0,117.0
293,239.59252586875002,239.97978108750002,72.0,122.0
294,239.95700136875,240.22732069791667,70.0,96.0
295,240.32147686875,240.45815518125002,70.0,112.0
296,240.68595236875,242.64348953333334,65.0,100.0
297,244.69518286875,244.97461408541668,65.0,102.0
298,245.24189611875002,247.2328435375,63.0,117.0
299,247.61098686875002,247.94660805833334,65.0,107.0
300,248.15770011875003,250.35214635833336,63.0,112.0
301,250.60272326458335,250.87456124166667,65.0,93.0
302,251.28307753125,251.53365443750002,63.0,85.0
303,251.49265094375002,251.75233973750002,65.0,70.0
304,251.71133624375003,253.61875802708335,63.0,82.0
305,253.77366011458335,254.97946656041668,65.0,82.0
306,254.94909360208334,258.75786257708336,63.0,90.0
