,start,end,pitch,velocity
0,0.49659786875,3.208903047916667,39.0,56.0
1,0.8610733687500001,3.477703729166667,51.0,47.0
2,1.22554886875,3.9545591750000004,55.0,40.0
3,1.9544998687500001,3.9849321333333334,63.0,42.0
4,1.5900243687500002,4.167169883333334,58.0,29.0
5,4.14135286875,5.615959995833333,55.0,45.0
6,4.5058283687500005,5.858943662500001,58.0,40.0
7,3.4124018687500004,6.235568345833333,39.0,74.0
8,3.77687736875,6.4147688,51.0,53.0
9,5.96373036875,6.8521394,58.0,54.0
10,4.870303868750001,6.877956414583334,63.0,57.0
11,7.42163236875,7.890894575000001,58.0,44.0
12,7.057156868750001,8.088318804166667,55.0,38.0
13,6.3282058687500005,9.140741810416667,39.0,61.0
14,6.692681368750001,9.386762772916667,51.0,42.0
15,8.51505886875,10.121788364583335,58.0,48.0
16,7.78610786875,10.345029608333334,63.0,72.0
17,10.337436368750001,10.770251025,58.0,55.0
18,9.97296086875,10.853776660416667,55.0,44.0
19,9.608485368750001,11.53109363125,51.0,50.0
20,9.24400986875,11.532612279166667,39.0,55.0
21,11.430862868750001,12.231190320833335,58.0,40.0
22,10.70191186875,12.399760239583333,63.0,93.0
23,12.88876486875,13.7862857875,51.0,66.0
24,13.253240368750001,13.947262466666668,55.0,45.0
25,12.159813868750001,14.823522314583334,39.0,82.0
26,12.52428936875,15.066505981250002,46.0,38.0
27,13.982191368750001,15.210777533333335,51.0,44.0
28,14.71114236875,16.008067689583335,55.0,53.0
29,13.61771586875,16.134115466666668,63.0,93.0
30,14.34666686875,16.1736003125,58.0,70.0
31,16.16904436875,16.6109709125,55.0,46.0
32,15.804568868750001,16.612489560416666,51.0,58.0
33,16.89799536875,17.092382302083333,51.0,56.0
34,15.44009336875,17.113643372916666,46.0,43.0
35,15.075617868750001,17.153128218750002,39.0,60.0
36,16.533519868750002,17.364220279166666,58.0,76.0
37,16.533519868750002,17.962567558333333,63.0,92.0
38,17.62694636875,18.017238883333334,58.0,52.0
39,17.26247086875,18.21162581666667,55.0,66.0
40,18.72037286875,19.7090126625,48.0,61.0
41,18.35589736875,19.935291202083334,43.0,56.0
42,17.991421868750002,20.008186302083335,36.0,63.0
43,19.81379936875,20.172200277083334,48.0,69.0
44,19.084848368750002,20.231427545833334,55.0,76.0
45,20.17827486875,20.870778318750002,60.0,69.0
46,20.542750368750003,20.878371558333335,55.0,79.0
47,19.44932386875,20.885964797916667,63.0,93.0
48,21.636176868750002,22.48965699791667,56.0,73.0
49,22.00065236875,22.737196608333335,60.0,66.0
50,22.729603368750002,23.072817797916667,56.0,69.0
51,21.27170136875,23.125970475000003,51.0,69.0
52,20.90722586875,23.173048560416667,44.0,65.0
53,22.36512786875,23.835179052083333,68.0,92.0
54,23.09407886875,23.8458095875,63.0,75.0
55,23.45855436875,23.8822571375,60.0,69.0
56,24.55198086875,25.012131187500003,53.0,60.0
57,24.91645636875,25.3037115875,56.0,59.0
58,24.187505368750003,25.40546099791667,48.0,53.0
59,25.64540736875,25.968879375,48.0,47.0
60,23.82302986875,26.0235507,41.0,72.0
61,26.00988286875,26.658345529166667,56.0,58.0
62,25.280931868750002,26.667457416666668,60.0,74.0
63,26.374358368750002,26.776800066666667,53.0,62.0
64,27.46778486875,28.350119308333333,46.0,63.0
65,27.832260368750003,28.99554467291667,50.0,69.0
66,26.738833868750003,29.387355835416667,34.0,82.0
67,28.925686868750002,29.644007333333334,53.0,59.0
68,28.19673586875,29.66071246041667,58.0,93.0
69,27.10330936875,29.665268404166667,41.0,37.0
70,29.290162368750003,29.782204293750002,50.0,60.0
71,28.56121136875,30.014557425000003,46.0,53.0
72,30.383588868750003,31.138356883333334,46.0,55.0
73,30.74806436875,31.212770631250002,53.0,59.0
74,31.11253986875,31.938684335416667,58.0,74.0
75,29.65463786875,32.2834174125,34.0,64.0
76,30.019113368750002,32.5567740375,41.0,38.0
77,32.205966368750005,32.593221587500004,58.0,72.0
78,31.11253986875,32.75875421041667,62.0,83.0
79,31.84149086875,32.801276352083335,53.0,69.0
80,31.477015368750003,33.001737877083336,46.0,73.0
81,33.299392868750004,34.22121215416667,46.0,69.0
82,33.66386836875,34.79526106666667,53.0,48.0
83,32.93491736875,35.43157454375,41.0,47.0
84,34.392819368750004,35.43764913541667,46.0,75.0
85,34.75729486875,35.44220507916667,58.0,72.0
86,34.02834386875,35.46346615,62.0,82.0
87,35.12177036875,35.47865262916667,53.0,72.0
88,32.57044186875,35.49383910833333,34.0,68.0
89,36.21519686875,37.1127177875,51.0,66.0
90,36.57967236875,37.27369446666667,55.0,45.0
91,35.486245868750004,38.14995431458333,39.0,82.0
92,35.85072136875,38.39293798125,46.0,38.0
93,37.308623368750006,38.53720953333334,51.0,44.0
94,38.03757436875,39.33449968958334,55.0,53.0
95,36.94414786875,39.46054746666667,63.0,93.0
96,37.67309886875,39.500032312500004,58.0,70.0
97,39.495476368750005,39.937402912500005,55.0,46.0
98,39.13100086875,39.93892156041667,51.0,58.0
99,40.22442736875,40.418814302083334,51.0,56.0
100,38.76652536875,40.44007537291667,46.0,43.0
101,38.402049868750005,40.47956021875,39.0,60.0
102,39.85995186875,40.69065227916667,58.0,76.0
103,39.85995186875,41.28899955833334,63.0,92.0
104,40.95337836875,41.34367088333334,58.0,52.0
105,40.588902868750004,41.53805781666667,55.0,66.0
106,42.04680486875,43.035444662500005,48.0,61.0
107,41.682329368750004,43.26172320208334,43.0,56.0
108,41.31785386875,43.334618302083335,36.0,63.0
109,43.14023136875,43.49863227708334,48.0,69.0
110,42.41128036875,43.55785954583334,55.0,76.0
111,43.504706868750006,44.19721031875,60.0,69.0
112,43.86918236875,44.20480355833334,55.0,79.0
113,42.775755868750004,44.21239679791667,63.0,93.0
114,44.96260886875,45.81608899791667,56.0,73.0
115,45.32708436875,46.06362860833334,60.0,66.0
116,46.05603536875,46.39924979791667,56.0,69.0
117,44.598133368750005,46.452402475,51.0,69.0
118,44.23365786875,46.49948056041667,44.0,65.0
119,45.691559868750005,47.16161105208334,68.0,92.0
120,46.42051086875,47.172241587500004,63.0,75.0
121,46.784986368750005,47.2086891375,60.0,69.0
122,47.878412868750004,48.3385631875,53.0,60.0
123,48.24288836875,48.6301435875,56.0,59.0
124,47.51393736875,48.73189299791667,48.0,53.0
125,48.971839368750004,49.295311375000004,48.0,47.0
126,47.14946186875,49.349982700000005,41.0,72.0
127,49.33631486875,49.98477752916667,56.0,58.0
128,48.60736386875,49.99388941666667,60.0,74.0
129,49.700790368750006,50.10323206666667,53.0,62.0
130,50.794216868750006,51.67655130833334,46.0,63.0
131,51.15869236875,52.32197667291667,50.0,69.0
132,50.065265868750004,52.71378783541667,34.0,82.0
133,52.25211886875,52.97043933333334,53.0,59.0
134,51.52316786875,52.98714446041667,58.0,93.0
135,50.42974136875,52.99170040416667,41.0,37.0
136,52.61659436875,53.10863629375,50.0,60.0
137,51.887643368750005,53.340989425000004,46.0,53.0
138,53.71002086875,54.464788883333334,46.0,55.0
139,54.074496368750005,54.53920263125001,53.0,59.0
140,54.43897186875,55.26511633541667,58.0,74.0
141,52.981069868750005,55.609849412500004,34.0,64.0
142,53.34554536875,55.8832060375,41.0,38.0
143,55.53239836875,55.9196535875,58.0,72.0
144,54.43897186875,56.08518621041667,62.0,83.0
145,55.167922868750004,56.12770835208334,53.0,69.0
146,54.80344736875001,56.32816987708334,46.0,73.0
147,56.62582486875,57.54764415416667,46.0,69.0
148,56.990300368750006,58.12169306666667,53.0,48.0
149,56.261349368750004,58.75800654375001,41.0,47.0
150,57.71925136875,58.76408113541667,46.0,75.0
151,58.083726868750006,58.76863707916667,58.0,72.0
152,57.354775868750004,58.789898150000006,62.0,82.0
153,58.44820236875,58.80508462916667,53.0,72.0
154,55.896873868750006,58.82027110833334,34.0,68.0
155,59.54162886875,60.40422088541667,55.0,82.0
156,60.63505536875,60.90081875416667,55.0,68.0
157,59.90610436875,60.94334089583334,58.0,81.0
158,59.177153368750005,60.94637819166667,50.0,58.0
159,58.81267786875,60.99345627708334,43.0,76.0
160,60.270579868750005,61.690515670833335,67.0,67.0
161,60.99953086875001,61.71025809375001,62.0,70.0
162,61.364006368750005,61.76796671458334,58.0,73.0
163,62.82190836875,63.30180111041667,55.0,67.0
164,62.457432868750004,63.35343513958334,48.0,72.0
165,62.09295736875001,63.846995712500004,43.0,53.0
166,61.72848186875,63.86370083958334,36.0,66.0
167,63.550859368750004,63.991267264583335,48.0,69.0
168,63.186383868750006,64.14313205625001,60.0,95.0
169,63.91533486875,64.55924158541667,55.0,83.0
170,64.27981036875,64.58505860000001,60.0,68.0
171,63.186383868750006,64.62909938958333,63.0,100.0
172,65.37323686875,66.30264939375,53.0,86.0
173,65.00876136875,66.62915869583334,48.0,60.0
174,64.64428586875,66.71268433125,41.0,67.0
175,66.46666336875,66.82810157291667,53.0,89.0
176,65.73771236875001,66.91314585625,60.0,88.0
177,66.83113886875,67.57679499583334,65.0,73.0
178,66.10218786875001,67.58438823541667,68.0,112.0
179,67.19561436875,67.58742553125,60.0,86.0
180,68.65351636875,69.11670398333334,62.0,82.0
181,68.28904086875,69.13189046250001,58.0,81.0
182,69.38246736875,69.68164100833334,58.0,88.0
183,67.92456536875001,69.74086827708334,53.0,55.0
184,67.56008986875,69.79250230625,46.0,68.0
185,69.01799186875,69.85932281458334,65.0,78.0
186,69.01799186875,70.25265262500001,70.0,112.0
187,70.11141836875001,70.5715686875,65.0,82.0
188,69.74694286875,70.58219922291667,62.0,93.0
189,71.20484486875,71.57539496041667,55.0,74.0
190,71.56932036875,71.94442640416668,58.0,102.0
191,70.84036936875,72.11299632291667,50.0,52.0
192,72.29827136875001,72.49569559791667,50.0,59.0
193,70.47589386875,72.59288906458333,43.0,71.0
194,71.93379586875001,73.35676896666668,62.0,97.0
195,72.66274686875,73.38410462916667,58.0,90.0
196,73.02722236875,73.4691489125,55.0,85.0
197,74.12064886875001,75.05917328125001,48.0,90.0
198,73.39169786875,75.42668607708333,36.0,71.0
199,73.75617336875,75.46313362708334,43.0,48.0
200,75.21407536875,75.61196112291667,48.0,67.0
201,74.48512436875001,75.61955436250001,55.0,82.0
202,75.94302636875001,76.28016620625,55.0,85.0
203,75.57855086875,76.29231538958334,60.0,92.0
204,74.84959986875,76.29990862916667,63.0,102.0
205,77.03645286875,77.87322787083333,53.0,88.0
206,76.30750186875001,78.24074066666667,41.0,71.0
207,76.67197736875,78.24225931458334,48.0,56.0
208,78.12987936875001,78.40779193750001,53.0,82.0
209,77.40092836875,78.42753436041667,60.0,65.0
210,77.76540386875,79.18078372708334,68.0,107.0
211,78.49435486875001,79.21571262916667,65.0,82.0
212,78.85883036875,79.25367882708333,60.0,93.0
213,80.31673236875001,80.59008899375,65.0,68.0
214,80.31673236875001,80.60527547291667,62.0,72.0
215,79.95225686875,80.80877429375,58.0,93.0
216,80.68120786875001,81.13376494791667,62.0,122.0
217,81.04568336875,81.35093160000001,58.0,112.0
218,80.68120786875001,81.41319616458334,65.0,107.0
219,79.58778136875,81.45268101041667,53.0,60.0
220,79.22330586875,81.50887098333334,46.0,63.0
221,81.41015886875,81.85664135625001,62.0,117.0
222,81.77463436875,82.15581499583334,65.0,107.0
223,82.50358536875001,82.92576948958335,51.0,89.0
224,82.68582311875001,82.98347811041667,55.0,83.0
225,82.13910986875001,83.44818437291667,39.0,85.0
226,82.86806086875,83.53474730416667,63.0,112.0
227,82.32134761875001,83.56663891041667,46.0,66.0
228,83.05029861875,83.58941862916667,51.0,89.0
229,83.23253636875,83.63953401041667,58.0,100.0
230,83.41477411875,83.85518201458333,55.0,82.0
231,83.96148736875,84.40948850416667,51.0,74.0
232,84.14372511875,84.467197125,55.0,72.0
233,83.59701186875,84.85748963958333,39.0,72.0
234,84.69043836875001,84.90760502083334,58.0,74.0
235,84.32596286875001,84.92582879583334,63.0,100.0
236,84.50820061875001,84.99720524791667,51.0,60.0
237,84.87267611875001,85.00024254375,55.0,76.0
238,83.77924961875,85.00631713541667,46.0,38.0
239,85.60162711875,85.85372267291667,55.0,76.0
240,85.41938936875,85.85827861666667,51.0,83.0
241,85.05491386875,86.37917485208334,39.0,56.0
242,85.78386486875,86.47940561458334,63.0,100.0
243,85.23715161875,86.48851750208334,46.0,49.0
244,85.96610261875,86.49611074166667,51.0,77.0
245,86.14834036875,86.49611074166667,58.0,78.0
246,86.33057811875001,86.56748719375001,55.0,72.0
247,87.05952911875,87.34199763125001,55.0,73.0
248,86.87729136875001,87.35870275833334,51.0,73.0
249,87.42400461875,87.55916428333335,51.0,85.0
250,86.69505361875001,87.57586941041667,46.0,69.0
251,86.51281586875001,87.6290220875,39.0,69.0
252,87.60624236875,87.87504305,58.0,77.0
253,87.24176686875,87.90997195208334,63.0,100.0
254,87.78848011875,88.01324001041667,55.0,75.0
255,88.33519336875001,88.77256396875,48.0,82.0
256,88.51743111875001,88.92898470416667,55.0,62.0
257,88.88190661875001,89.07933084791667,48.0,83.0
258,87.97071786875,89.21600916041668,36.0,41.0
259,89.06414436875001,89.43165716458334,60.0,89.0
260,88.15295561875,89.43925040416667,43.0,66.0
261,88.69966886875001,89.44380634791668,63.0,107.0
262,89.24638211875,89.47721660208335,55.0,81.0
263,89.79309536875,90.25324568750001,48.0,72.0
264,89.97533311875,90.39144264791668,55.0,67.0
265,90.33980861875,90.54786338333334,48.0,73.0
266,89.42861986875,90.74528761250001,36.0,65.0
267,90.15757086875,90.81210812083334,63.0,107.0
268,89.61085761875,90.87740998125001,43.0,67.0
269,90.52204636875001,90.88652186875001,60.0,83.0
270,90.70428411875001,90.94878643333334,55.0,85.0
271,91.25099736875,91.70811039166668,48.0,72.0
272,91.43323511875,91.81441574583334,55.0,69.0
273,90.88652186875001,92.23204392291667,36.0,72.0
274,91.06875961875001,92.38694601041668,43.0,53.0
275,91.79771061875,92.5858888875,48.0,81.0
276,92.16218611875,92.80913013125,55.0,82.0
277,91.97994836875,92.93365926041668,60.0,71.0
278,91.61547286875,92.9412525,63.0,107.0
279,92.89113711875001,93.17208698333334,55.0,73.0
280,92.70889936875001,93.18119887083334,48.0,81.0
281,92.52666161875001,93.37254850833334,43.0,52.0
282,92.34442386875,93.3786231,36.0,62.0
283,93.25561261875,93.42873848125001,48.0,72.0
284,93.07337486875001,93.74613589583333,63.0,100.0
285,93.43785036875,93.78410209375001,60.0,74.0
286,93.62008811875,93.80688181250001,55.0,92.0
287,94.16680136875,94.58594819375,56.0,95.0
288,94.34903911875,94.70744002708334,60.0,72.0
289,93.80232586875,94.96864746875,44.0,61.0
290,93.98456361875,95.13569873958333,51.0,37.0
291,94.53127686875001,95.16607169791668,68.0,97.0
292,94.89575236875001,95.26630246041667,63.0,85.0
293,94.71351461875001,95.30275001041667,56.0,93.0
294,95.07799011875001,95.53206584583334,60.0,77.0
295,95.62470336875,96.08029774375001,56.0,82.0
296,95.80694111875,96.16382337916667,60.0,66.0
297,96.17141661875,96.39010191875,56.0,77.0
298,95.44246561875,96.4402173,51.0,35.0
299,95.26022786875001,96.51311240000001,44.0,54.0
300,95.98917886875,96.61182451458333,68.0,112.0
301,96.35365436875,96.6133431625,63.0,92.0
302,96.53589211875,96.83658440625001,60.0,79.0
303,97.08260536875001,97.46834193958334,53.0,83.0
304,97.26484311875001,97.61413213958333,60.0,78.0
305,97.62931861875,97.80851907291667,53.0,79.0
306,96.71812986875001,98.00746195,41.0,64.0
307,97.44708086875,98.12287919166667,68.0,107.0
308,96.90036761875001,98.16691998125,48.0,78.0
309,97.81155636875,98.17451322083333,65.0,66.0
310,97.99379411875,98.30967288541667,60.0,83.0
311,98.54050736875,98.97028472916668,53.0,72.0
312,98.72274511875001,99.06899684375,60.0,70.0
313,98.35826961875,99.137336,48.0,46.0
314,98.17603186875,99.16467166250001,41.0,68.0
315,99.08722061875001,99.25882783333334,53.0,73.0
316,98.90498286875001,99.53674040208334,68.0,99.0
317,99.26945836875001,99.59293037500001,65.0,85.0
318,99.45169611875001,99.65063899583333,60.0,81.0
319,99.99840936875,100.42818672916667,58.0,89.0
320,100.18064711875,100.58308881666667,62.0,70.0
321,99.63393386875,100.91111676666667,46.0,63.0
322,99.81617161875,101.04323913541667,53.0,43.0
323,100.72736036875001,101.15865637708335,65.0,79.0
324,100.54512261875,101.269517675,58.0,76.0
325,100.36288486875,101.28774145000001,70.0,99.0
326,100.90959811875001,101.451755425,62.0,82.0
327,101.45631136875001,101.90583115208334,58.0,62.0
328,101.63854911875,102.00454326666667,62.0,72.0
329,101.09183586875001,102.30675420208334,46.0,61.0
330,101.82078686875,102.39331713333334,70.0,97.0
331,102.00302461875,102.55125651666667,58.0,83.0
332,101.27407361875001,102.55581246041667,53.0,50.0
333,102.18526236875,102.61352108125,65.0,83.0
334,102.36750011875,102.64996863125,62.0,89.0
335,102.54973786875,103.89525992291668,46.0,83.0
336,102.91421336875001,104.01978905208334,53.0,54.0
337,103.27868886875001,104.04712471458333,70.0,107.0
338,103.27868886875001,104.07294172916667,65.0,95.0
339,103.82540211875,104.09724009583334,62.0,99.0
340,103.64316436875,104.19747085833333,58.0,85.0
341,104.37211536875,104.78974354583335,58.0,96.0
342,104.55435311875,104.93705239375001,62.0,89.0
343,104.91882861875001,105.18762930000001,58.0,95.0
344,104.18987761875,105.29393465416668,53.0,67.0
345,104.00763986875,105.41846378333334,46.0,90.0
346,104.73659086875,105.46554186875001,70.0,112.0
347,105.28330411875001,105.47465375625,62.0,97.0
348,105.10106636875001,105.47465375625,65.0,92.0
349,105.83001736875,106.25220148958334,51.0,89.0
350,106.01225511875,106.30991011041667,55.0,83.0
351,105.46554186875001,106.77461637291667,39.0,85.0
352,106.19449286875,106.86117930416667,63.0,112.0
353,105.64777961875001,106.89307091041667,46.0,66.0
354,106.37673061875,106.91585062916667,51.0,89.0
355,106.55896836875,106.96596601041668,58.0,100.0
356,106.74120611875,107.18161401458335,55.0,82.0
357,107.28791936875001,107.73592050416667,51.0,74.0
358,107.47015711875001,107.79362912500001,55.0,72.0
359,106.92344386875001,108.18392163958335,39.0,72.0
360,108.01687036875,108.23403702083334,58.0,74.0
361,107.65239486875001,108.25226079583334,63.0,100.0
362,107.83463261875,108.32363724791668,51.0,60.0
363,108.19910811875,108.32667454375,55.0,76.0
364,107.10568161875001,108.33274913541668,46.0,38.0
365,108.92805911875001,109.18015467291667,55.0,76.0
366,108.74582136875,109.18471061666668,51.0,83.0
367,108.38134586875,109.70560685208333,39.0,56.0
368,109.11029686875001,109.80583761458334,63.0,100.0
369,108.56358361875,109.81494950208334,46.0,49.0
370,109.29253461875001,109.82254274166667,51.0,77.0
371,109.47477236875001,109.82254274166667,58.0,78.0
372,109.65701011875001,109.89391919375001,55.0,72.0
373,110.38596111875,110.66842963125,55.0,73.0
374,110.20372336875,110.68513475833333,51.0,73.0
375,110.75043661875,110.88559628333334,51.0,85.0
376,110.02148561875,110.90230141041667,46.0,69.0
377,109.83924786875001,110.9554540875,39.0,69.0
378,110.93267436875,111.20147505000001,58.0,77.0
379,110.56819886875,111.23640395208334,63.0,100.0
380,111.11491211875001,111.33967201041668,55.0,75.0
381,111.66162536875001,112.09899596875,48.0,82.0
382,111.84386311875001,112.25541670416668,55.0,62.0
383,112.20833861875,112.40576284791668,48.0,83.0
384,111.29714986875001,112.54244116041667,36.0,41.0
385,112.39057636875,112.75808916458334,60.0,89.0
386,111.47938761875001,112.76568240416667,43.0,66.0
387,112.02610086875,112.77023834791667,63.0,107.0
388,112.57281411875,112.80364860208334,55.0,81.0
389,113.11952736875001,113.57967768750001,48.0,72.0
390,113.30176511875001,113.71787464791667,55.0,67.0
391,113.66624061875001,113.87429538333333,48.0,73.0
392,112.75505186875,114.0717196125,36.0,65.0
393,113.48400286875001,114.13854012083334,63.0,107.0
394,112.93728961875,114.20384198125001,43.0,67.0
395,113.84847836875001,114.21295386875,60.0,83.0
396,114.03071611875001,114.27521843333334,55.0,85.0
397,114.57742936875,115.03454239166668,48.0,72.0
398,114.75966711875,115.14084774583334,55.0,69.0
399,114.21295386875,115.55847592291667,36.0,72.0
400,114.39519161875,115.71337801041668,43.0,53.0
401,115.12414261875001,115.9123208875,48.0,81.0
402,115.48861811875001,116.13556213125001,55.0,82.0
403,115.30638036875001,116.26009126041667,60.0,71.0
404,114.94190486875,116.2676845,63.0,107.0
405,116.21756911875,116.49851898333334,55.0,73.0
406,116.03533136875001,116.50763087083334,48.0,81.0
407,115.85309361875001,116.69898050833334,43.0,52.0
408,115.67085586875001,116.70505510000001,36.0,62.0
409,116.58204461875,116.75517048125,48.0,72.0
410,116.39980686875,117.07256789583334,63.0,100.0
411,116.76428236875,117.11053409375,60.0,74.0
412,116.94652011875,117.1333138125,55.0,92.0
413,117.49323336875001,117.91238019375001,56.0,95.0
414,117.67547111875001,118.03387202708333,60.0,72.0
415,117.12875786875,118.29507946875,44.0,61.0
416,117.31099561875001,118.46213073958334,51.0,37.0
417,117.85770886875001,118.49250369791667,68.0,97.0
418,118.22218436875,118.59273446041668,63.0,85.0
419,118.03994661875001,118.62918201041667,56.0,93.0
420,118.40442211875,118.85849784583334,60.0,77.0
421,118.95113536875,119.40672974375,56.0,82.0
422,119.13337311875,119.49025537916667,60.0,66.0
423,119.49784861875001,119.71653391875,56.0,77.0
424,118.76889761875,119.76664930000001,51.0,35.0
425,118.58665986875,119.83954440000001,44.0,54.0
426,119.31561086875001,119.93825651458334,68.0,112.0
427,119.68008636875001,119.93977516250001,63.0,92.0
428,119.86232411875001,120.16301640625001,60.0,79.0
429,120.40903736875,120.79477393958334,53.0,83.0
430,120.59127511875,120.94056413958334,60.0,78.0
431,120.95575061875,121.13495107291668,53.0,79.0
432,120.04456186875001,121.33389395,41.0,64.0
433,120.77351286875,121.44931119166668,68.0,107.0
434,120.22679961875001,121.49335198125,48.0,78.0
435,121.13798836875,121.50094522083334,65.0,66.0
436,121.32022611875001,121.63610488541667,60.0,83.0
437,121.86693936875001,122.29671672916668,53.0,72.0
438,122.04917711875001,122.39542884375001,60.0,70.0
439,121.68470161875001,122.463768,48.0,46.0
440,121.50246386875001,122.49110366250001,41.0,68.0
441,122.41365261875,122.58525983333334,53.0,73.0
442,122.23141486875001,122.86317240208334,68.0,99.0
443,122.59589036875,122.919362375,65.0,85.0
444,122.77812811875,122.97707099583334,60.0,81.0
445,123.32484136875,123.75461872916668,58.0,89.0
446,123.50707911875001,123.90952081666667,62.0,70.0
447,122.96036586875,124.23754876666668,46.0,63.0
448,123.14260361875,124.36967113541668,53.0,43.0
449,124.05379236875001,124.48508837708334,65.0,79.0
450,123.87155461875001,124.59594967500001,58.0,76.0
451,123.68931686875001,124.61417345000001,70.0,99.0
452,124.23603011875001,124.77818742500001,62.0,82.0
453,124.78274336875,125.23226315208333,58.0,62.0
454,124.96498111875,125.33097526666667,62.0,72.0
455,124.41826786875001,125.63318620208334,46.0,61.0
456,125.14721886875,125.71974913333334,70.0,97.0
457,125.32945661875,125.87768851666668,58.0,83.0
458,124.60050561875,125.88224446041667,53.0,50.0
459,125.51169436875001,125.93995308125001,65.0,83.0
460,125.69393211875001,125.97640063125,62.0,89.0
461,125.87616986875001,127.22169192291668,46.0,83.0
462,126.24064536875001,127.34622105208334,53.0,54.0
463,126.60512086875,127.37355671458334,70.0,107.0
464,126.60512086875,127.39937372916667,65.0,95.0
465,127.15183411875,127.42367209583334,62.0,99.0
466,126.96959636875,127.52390285833334,58.0,85.0
467,127.69854736875001,128.11617554583333,58.0,96.0
468,127.88078511875001,128.26348439375002,62.0,89.0
469,128.24526061875,128.5140613,58.0,95.0
470,127.51630961875001,128.62036665416667,53.0,67.0
471,127.33407186875,128.74489578333333,46.0,90.0
472,128.06302286875,128.79197386875,70.0,112.0
473,128.60973611875002,128.80108575625002,62.0,97.0
474,128.42749836875,128.80108575625002,65.0,92.0
475,129.52092486875,130.41085254791668,56.0,59.0
476,129.88540036875,130.7206567229167,60.0,57.0
477,130.24987586875,131.18688163333334,63.0,63.0
478,128.79197386875,131.62577088125002,44.0,77.0
479,129.15644936875,131.69714733333333,51.0,29.0
480,130.61435136875002,132.24993517500002,56.0,47.0
481,130.97882686875002,132.64782092916667,60.0,57.0
482,130.24987586875,132.86650622916667,68.0,77.0
483,131.34330236875002,133.03963209166668,63.0,40.0
484,132.43672886875,133.18542229166667,56.0,86.0
485,132.80120436875,134.0632007875,60.0,62.0
486,131.70777786875001,134.4185644,44.0,53.0
487,132.07225336875,134.62358186875,51.0,38.0
488,133.53015536875,134.62358186875,56.0,42.0
489,134.25910636875,134.62358186875,60.0,45.0
490,133.89463086875,134.62358186875,63.0,42.0
491,133.16567986875,134.62358186875,68.0,86.0
492,135.35253286875002,136.21816218125,55.0,45.0
493,136.44595936875,136.6479395416667,55.0,41.0
494,134.98805736875002,136.72994652916668,50.0,53.0
495,134.62358186875,136.82865864375,43.0,60.0
496,135.71700836875002,136.90155374375001,58.0,44.0
497,136.08148386875,137.54849775625001,67.0,63.0
498,136.81043486875,137.57583341875,62.0,66.0
499,137.17491036875,137.60013178541666,58.0,41.0
500,138.26833686875,139.10814916666666,48.0,47.0
501,138.63281236875,139.47110601875002,55.0,66.0
502,137.90386136875,139.62904540208334,43.0,53.0
503,137.53938586875,139.64726917708333,36.0,65.0
504,139.36176336875002,139.74294399583334,48.0,77.0
505,139.72623886875002,140.45215257291667,60.0,62.0
506,138.99728786875002,140.45518986875,63.0,100.0
507,140.09071436875,140.45974581250002,55.0,74.0
508,141.18414086875,142.08469908333333,56.0,50.0
509,140.45518986875,143.11737966666666,44.0,73.0
510,142.27756736875,143.22520366875,56.0,33.0
511,140.81966536875,143.27683769791668,51.0,45.0
512,141.54861636875,144.31863016875002,60.0,43.0
513,142.64204286875,144.47960684791667,68.0,64.0
514,141.91309186875,144.74688888125002,63.0,55.0
515,144.09994486875001,145.17211029791667,56.0,60.0
516,145.19337136875,146.05140744166667,56.0,26.0
517,143.37099386875002,146.15011955625002,44.0,55.0
518,143.73546936875002,146.1744179229167,51.0,51.0
519,144.46442036875,147.21317309791667,60.0,44.0
520,144.82889586875,147.64598775416667,63.0,57.0
521,146.28679786875,149.09325921875,44.0,51.0
522,146.65127336875,149.31650046250002,51.0,41.0
523,147.01574886875,149.80398644375,56.0,48.0
524,147.38022436875002,150.109234675,60.0,47.0
525,145.55784686875,150.6012766,68.0,48.0
526,149.56707736875,152.11992451666669,51.0,50.0
527,150.66050386875,152.14422288333336,68.0,48.0
528,147.74469986875002,152.16092801041668,63.0,52.0
529,150.29602836875,152.17155854583334,60.0,37.0
530,149.93155286875,152.17611448958334,56.0,57.0
531,149.20260186875,152.19130096875,44.0,57.0
532,152.84735686875,153.7448777875,51.0,66.0
533,153.21183236875,153.90585446666668,55.0,45.0
534,152.11840586875002,154.78211431458334,39.0,82.0
535,152.48288136875001,155.02509798125,46.0,38.0
536,153.94078336875,155.16936953333334,51.0,44.0
537,154.66973436875,155.96665968958334,55.0,53.0
538,153.57630786875,156.09270746666667,63.0,93.0
539,154.30525886875,156.1321923125,58.0,70.0
540,156.12763636875002,156.5695629125,55.0,46.0
541,155.76316086875002,156.57108156041667,51.0,58.0
542,156.85658736875,157.05097430208335,51.0,56.0
543,155.39868536875002,157.07223537291668,46.0,43.0
544,155.03420986875,157.11172021875,39.0,60.0
545,156.49211186875002,157.32281227916667,58.0,76.0
546,156.49211186875002,157.92115955833333,63.0,92.0
547,157.58553836875,157.97583088333334,58.0,52.0
548,157.22106286875,158.17021781666668,55.0,66.0
549,158.67896486875,159.6676046625,48.0,61.0
550,158.31448936875,159.89388320208334,43.0,56.0
551,157.95001386875,159.96677830208336,36.0,63.0
552,159.77239136875002,160.13079227708334,48.0,69.0
553,159.04344036875,160.19001954583334,55.0,76.0
554,160.13686686875002,160.82937031875002,60.0,69.0
555,160.50134236875002,160.83696355833334,55.0,79.0
556,159.40791586875,160.84455679791668,63.0,93.0
557,161.59476886875,162.44824899791666,56.0,73.0
558,161.95924436875,162.69578860833334,60.0,66.0
559,162.68819536875,163.03140979791667,56.0,69.0
560,161.23029336875,163.084562475,51.0,69.0
561,160.86581786875,163.13164056041668,44.0,65.0
562,162.32371986875,163.79377105208334,68.0,92.0
563,163.05267086875,163.8044015875,63.0,75.0
564,163.41714636875,163.84084913750002,60.0,69.0
565,164.51057286875002,164.9707231875,53.0,60.0
566,164.87504836875002,165.2623035875,56.0,59.0
567,164.14609736875002,165.36405299791667,48.0,53.0
568,165.60399936875,165.927471375,48.0,47.0
569,163.78162186875002,165.9821427,41.0,72.0
570,165.96847486875,166.61693752916668,56.0,58.0
571,165.23952386875,166.6260494166667,60.0,74.0
572,166.33295036875,166.73539206666666,53.0,62.0
573,167.42637686875,168.30871130833333,46.0,63.0
574,167.79085236875002,168.9541366729167,50.0,69.0
575,166.69742586875,169.34594783541667,34.0,82.0
576,168.88427886875002,169.60259933333333,53.0,59.0
577,168.15532786875002,169.61930446041669,58.0,93.0
578,167.06190136875,169.62386040416666,41.0,37.0
579,169.24875436875,169.74079629375,50.0,60.0
580,168.51980336875002,169.973149425,46.0,53.0
581,170.34218086875,171.09694888333334,46.0,55.0
582,170.70665636875,171.17136263125002,53.0,59.0
583,171.07113186875,171.89727633541668,58.0,74.0
584,169.61322986875,172.2420094125,34.0,64.0
585,169.97770536875,172.5153660375,41.0,38.0
586,172.16455836875002,172.55181358750002,58.0,72.0
587,171.07113186875,172.71734621041668,62.0,83.0
588,171.80008286875,172.75986835208334,53.0,69.0
589,171.43560736875,172.96032987708335,46.0,73.0
590,173.25798486875001,174.17980415416667,46.0,69.0
591,173.62246036875,174.75385306666666,53.0,48.0
592,172.89350936875002,175.39016654375,41.0,47.0
593,174.35141136875,175.3962411354167,46.0,75.0
594,174.71588686875,175.40079707916667,58.0,72.0
595,173.98693586875,175.42205815,62.0,82.0
596,175.08036236875,175.43724462916668,53.0,72.0
597,172.52903386875002,175.45243110833334,34.0,68.0
598,176.17378886875002,177.0363808854167,55.0,82.0
599,177.26721536875002,177.53297875416666,55.0,68.0
600,176.53826436875002,177.57550089583336,58.0,81.0
601,175.80931336875,177.57853819166667,50.0,58.0
602,175.44483786875,177.62561627708334,43.0,76.0
603,176.90273986875002,178.32267567083335,67.0,67.0
604,177.63169086875,178.34241809375,62.0,70.0
605,177.99616636875,178.40012671458334,58.0,73.0
606,179.45406836875,179.93396111041667,55.0,67.0
607,179.08959286875,179.98559513958335,48.0,72.0
608,178.72511736875,180.47915571250002,43.0,53.0
609,178.36064186875,180.49586083958334,36.0,66.0
610,180.18301936875002,180.62342726458334,48.0,69.0
611,179.81854386875,180.77529205625,60.0,95.0
612,180.54749486875002,181.19140158541668,55.0,83.0
613,180.91197036875002,181.21721860000002,60.0,68.0
614,179.81854386875,181.26125938958333,63.0,100.0
615,182.00539686875,182.93480939375002,53.0,86.0
616,181.64092136875,183.26131869583335,48.0,60.0
617,181.27644586875002,183.34484433125002,41.0,67.0
618,183.09882336875,183.46026157291666,53.0,89.0
619,182.36987236875,183.54530585625002,60.0,88.0
620,183.46329886875,184.20895499583335,65.0,73.0
621,182.73434786875,184.21654823541667,68.0,112.0
622,183.82777436875,184.21958553125,60.0,86.0
623,185.28567636875002,185.74886398333334,62.0,82.0
624,184.92120086875002,185.76405046250002,58.0,81.0
625,186.01462736875,186.31380100833334,58.0,88.0
626,184.55672536875002,186.37302827708334,53.0,55.0
627,184.19224986875003,186.42466230625,46.0,68.0
628,185.65015186875002,186.49148281458335,65.0,78.0
629,185.65015186875002,186.88481262500002,70.0,112.0
630,186.74357836875,187.20372868750002,65.0,82.0
631,186.37910286875,187.21435922291667,62.0,93.0
632,187.83700486875,188.20755496041667,55.0,74.0
633,188.20148036875,188.57658640416668,58.0,102.0
634,187.47252936875,188.74515632291667,50.0,52.0
635,188.93043136875002,189.12785559791666,50.0,59.0
636,187.10805386875,189.22504906458335,43.0,71.0
637,188.56595586875002,189.9889289666667,62.0,97.0
638,189.29490686875002,190.01626462916667,58.0,90.0
639,189.65938236875002,190.1013089125,55.0,85.0
640,190.75280886875,191.69133328125002,48.0,90.0
641,190.02385786875,192.05884607708333,36.0,71.0
642,190.38833336875,192.09529362708335,43.0,48.0
643,191.84623536875,192.24412112291668,48.0,67.0
644,191.11728436875,192.25171436250002,55.0,82.0
645,192.57518636875002,192.91232620625001,55.0,85.0
646,192.21071086875,192.92447538958334,60.0,92.0
647,191.48175986875,192.93206862916668,63.0,102.0
648,193.66861286875002,194.50538787083335,53.0,88.0
649,192.93966186875002,194.87290066666668,41.0,71.0
650,193.30413736875002,194.87441931458335,48.0,56.0
651,194.76203936875,195.0399519375,53.0,82.0
652,194.03308836875001,195.05969436041667,60.0,65.0
653,194.39756386875,195.81294372708334,68.0,107.0
654,195.12651486875,195.8478726291667,65.0,82.0
655,195.49099036875,195.88583882708335,60.0,93.0
656,196.94889236875002,197.22224899375001,65.0,68.0
657,196.94889236875002,197.23743547291667,62.0,72.0
658,196.58441686875003,197.44093429375002,58.0,93.0
659,197.31336786875002,197.7659249479167,62.0,122.0
660,197.67784336875002,197.98309160000002,58.0,112.0
661,197.31336786875002,198.04535616458335,65.0,107.0
662,196.21994136875,198.08484101041668,53.0,60.0
663,195.85546586875,198.14103098333334,46.0,63.0
664,198.04231886875002,198.48880135625,62.0,117.0
665,198.40679436875,198.78797499583334,65.0,107.0
666,199.13574536875,199.55792948958336,51.0,89.0
667,199.31798311875002,199.61563811041668,55.0,83.0
668,198.77126986875,200.08034437291667,39.0,85.0
669,199.50022086875,200.16690730416667,63.0,112.0
670,198.95350761875002,200.19879891041668,46.0,66.0
671,199.68245861875002,200.2215786291667,51.0,89.0
672,199.86469636875,200.27169401041667,58.0,100.0
673,200.04693411875002,200.48734201458333,55.0,82.0
674,200.59364736875,201.0416485041667,51.0,74.0
675,200.77588511875,201.099357125,55.0,72.0
676,200.22917186875,201.48964963958335,39.0,72.0
677,201.32259836875002,201.53976502083336,58.0,74.0
678,200.95812286875002,201.55798879583335,63.0,100.0
679,201.14036061875,201.62936524791667,51.0,60.0
680,201.50483611875,201.63240254375,55.0,76.0
681,200.41140961875,201.63847713541668,46.0,38.0
682,202.23378711875,202.4858826729167,55.0,76.0
683,202.05154936875002,202.49043861666667,51.0,83.0
684,201.68707386875002,203.01133485208334,39.0,56.0
685,202.41602486875001,203.11156561458336,63.0,100.0
686,201.86931161875,203.12067750208334,46.0,49.0
687,202.59826261875,203.12827074166668,51.0,77.0
688,202.78050036875,203.12827074166668,58.0,78.0
689,202.96273811875002,203.19964719375002,55.0,72.0
690,203.69168911875002,203.97415763125002,55.0,73.0
691,203.50945136875,203.99086275833335,51.0,73.0
692,204.05616461875002,204.19132428333336,51.0,85.0
693,203.32721361875002,204.20802941041669,46.0,69.0
694,203.14497586875,204.2611820875,39.0,69.0
695,204.23840236875,204.50720305000002,58.0,77.0
696,203.87392686875,204.54213195208334,63.0,100.0
697,204.42064011875001,204.64540001041667,55.0,75.0
698,204.96735336875003,205.40472396875,48.0,82.0
699,205.14959111875,205.56114470416668,55.0,62.0
700,205.51406661875,205.71149084791668,48.0,83.0
701,204.60287786875,205.8481691604167,36.0,41.0
702,205.69630436875002,206.06381716458336,60.0,89.0
703,204.78511561875,206.07141040416667,43.0,66.0
704,205.33182886875002,206.07596634791668,63.0,107.0
705,205.87854211875,206.10937660208336,55.0,81.0
706,206.42525536875002,206.88540568750003,48.0,72.0
707,206.60749311875,207.02360264791668,55.0,67.0
708,206.97196861875003,207.18002338333335,48.0,73.0
709,206.06077986875002,207.37744761250002,36.0,65.0
710,206.78973086875,207.44426812083336,63.0,107.0
711,206.24301761875,207.50956998125002,43.0,67.0
712,207.15420636875,207.51868186875,60.0,83.0
713,207.33644411875002,207.58094643333334,55.0,85.0
714,207.88315736875,208.34027039166668,48.0,72.0
715,208.06539511875002,208.44657574583334,55.0,69.0
716,207.51868186875,208.8642039229167,36.0,72.0
717,207.70091961875002,209.0191060104167,43.0,53.0
718,208.42987061875002,209.2180488875,48.0,81.0
719,208.79434611875,209.44129013125,55.0,82.0
720,208.61210836875,209.56581926041667,60.0,71.0
721,208.24763286875,209.57341250000002,63.0,107.0
722,209.52329711875,209.80424698333334,55.0,73.0
723,209.34105936875002,209.81335887083335,48.0,81.0
724,209.15882161875,210.00470850833335,43.0,52.0
725,208.97658386875003,210.01078310000003,36.0,62.0
726,209.88777261875,210.06089848125,48.0,72.0
727,209.70553486875002,210.37829589583333,63.0,100.0
728,210.07001036875002,210.41626209375002,60.0,74.0
729,210.25224811875,210.43904181250002,55.0,92.0
730,210.79896136875,211.21810819375003,56.0,95.0
731,210.98119911875,211.33960002708335,60.0,72.0
732,210.43448586875002,211.60080746875002,44.0,61.0
733,210.61672361875,211.76785873958335,51.0,37.0
734,211.16343686875,211.7982316979167,68.0,97.0
735,211.52791236875,211.89846246041668,63.0,85.0
736,211.34567461875002,211.93491001041667,56.0,93.0
737,211.71015011875002,212.16422584583336,60.0,77.0
738,212.25686336875,212.71245774375,56.0,82.0
739,212.43910111875002,212.79598337916667,60.0,66.0
740,212.80357661875001,213.02226191875002,56.0,77.0
741,212.07462561875002,213.0723773,51.0,35.0
742,211.89238786875,213.1452724,44.0,54.0
743,212.62133886875,213.24398451458336,68.0,112.0
744,212.98581436875,213.2455031625,63.0,92.0
745,213.16805211875,213.46874440625,60.0,79.0
746,213.71476536875002,214.10050193958335,53.0,83.0
747,213.89700311875,214.24629213958335,60.0,78.0
748,214.26147861875,214.44067907291668,53.0,79.0
749,213.35028986875002,214.63962195000002,41.0,64.0
750,214.07924086875002,214.75503919166667,68.0,107.0
751,213.53252761875,214.79907998125,48.0,78.0
752,214.44371636875002,214.80667322083335,65.0,66.0
753,214.62595411875,214.9418328854167,60.0,83.0
754,215.17266736875,215.60244472916668,53.0,72.0
755,215.35490511875003,215.70115684375,60.0,70.0
756,214.99042961875,215.769496,48.0,46.0
757,214.80819186875001,215.7968316625,41.0,68.0
758,215.71938061875002,215.89098783333336,53.0,73.0
759,215.53714286875,216.16890040208335,68.0,99.0
760,215.90161836875,216.225090375,65.0,85.0
761,216.08385611875002,216.28279899583336,60.0,81.0
762,216.63056936875,217.06034672916667,58.0,89.0
763,216.81280711875002,217.21524881666667,62.0,70.0
764,216.26609386875,217.54327676666668,46.0,63.0
765,216.44833161875002,217.67539913541668,53.0,43.0
766,217.35952036875003,217.79081637708336,65.0,79.0
767,217.17728261875,217.901677675,58.0,76.0
768,216.99504486875,217.91990145000003,70.0,99.0
769,217.54175811875,218.08391542500001,62.0,82.0
770,218.08847136875002,218.53799115208335,58.0,62.0
771,218.27070911875,218.63670326666667,62.0,72.0
772,217.72399586875002,218.93891420208334,46.0,61.0
773,218.45294686875002,219.02547713333334,70.0,97.0
774,218.63518461875,219.18341651666668,58.0,83.0
775,217.90623361875,219.1879724604167,53.0,50.0
776,218.81742236875002,219.24568108125,65.0,83.0
777,218.99966011875,219.28212863125,62.0,89.0
778,219.18189786875,220.5274199229167,46.0,83.0
779,219.54637336875,220.65194905208335,53.0,54.0
780,219.91084886875,220.67928471458336,70.0,107.0
781,219.91084886875,220.70510172916667,65.0,95.0
782,220.45756211875002,220.72940009583334,62.0,99.0
783,220.27532436875,220.82963085833336,58.0,85.0
784,221.00427536875,221.42190354583335,58.0,96.0
785,221.18651311875,221.56921239375,62.0,89.0
786,221.55098861875,221.81978930000002,58.0,95.0
787,220.82203761875002,221.9260946541667,53.0,67.0
788,220.63979986875,222.05062378333335,46.0,90.0
789,221.36875086875003,222.09770186875002,70.0,112.0
790,221.91546411875,222.10681375625,62.0,97.0
791,221.73322636875002,222.10681375625,65.0,92.0
792,222.46217736875002,222.88436148958334,51.0,89.0
793,222.64441511875,222.9420701104167,55.0,83.0
794,222.09770186875002,223.40677637291668,39.0,85.0
795,222.82665286875002,223.49333930416668,63.0,112.0
796,222.27993961875,223.52523091041667,46.0,66.0
797,223.00889061875,223.54801062916667,51.0,89.0
798,223.19112836875001,223.59812601041668,58.0,100.0
799,223.37336611875003,223.81377401458334,55.0,82.0
800,223.92007936875,224.36808050416667,51.0,74.0
801,224.10231711875002,224.42578912500002,55.0,72.0
802,223.55560386875,224.81608163958336,39.0,72.0
803,224.64903036875,224.86619702083334,58.0,74.0
804,224.28455486875,224.88442079583334,63.0,100.0
805,224.46679261875002,224.95579724791668,51.0,60.0
806,224.83126811875002,224.95883454375002,55.0,76.0
807,223.73784161875002,224.9649091354167,46.0,38.0
808,225.56021911875,225.81231467291667,55.0,76.0
809,225.37798136875,225.81687061666668,51.0,83.0
810,225.01350586875,226.33776685208335,39.0,56.0
811,225.74245686875003,226.43799761458334,63.0,100.0
812,225.19574361875002,226.44710950208335,46.0,49.0
813,225.92469461875,226.4547027416667,51.0,77.0
814,226.10693236875002,226.4547027416667,58.0,78.0
815,226.28917011875,226.52607919375,55.0,72.0
816,227.01812111875,227.30058963125,55.0,73.0
817,226.83588336875002,227.31729475833336,51.0,73.0
818,227.38259661875,227.51775628333334,51.0,85.0
819,226.65364561875,227.53446141041667,46.0,69.0
820,226.47140786875002,227.58761408750001,39.0,69.0
821,227.56483436875,227.83363505000003,58.0,77.0
822,227.20035886875002,227.86856395208335,63.0,100.0
823,227.74707211875003,227.97183201041668,55.0,75.0
824,228.29378536875,228.73115596875002,48.0,82.0
825,228.47602311875002,228.8875767041667,55.0,62.0
826,228.84049861875002,229.0379228479167,48.0,83.0
827,227.92930986875,229.17460116041667,36.0,41.0
828,229.02273636875,229.39024916458334,60.0,89.0
829,228.11154761875002,229.39784240416668,43.0,66.0
830,228.65826086875,229.4023983479167,63.0,107.0
831,229.20497411875002,229.43580860208334,55.0,81.0
832,229.75168736875003,230.2118376875,48.0,72.0
833,229.93392511875,230.3500346479167,55.0,67.0
834,230.29840061875,230.50645538333336,48.0,73.0
835,229.38721186875,230.7038796125,36.0,65.0
836,230.11616286875002,230.77070012083334,63.0,107.0
837,229.56944961875,230.83600198125,43.0,67.0
838,230.48063836875002,230.84511386875002,60.0,83.0
839,230.66287611875,230.90737843333335,55.0,85.0
840,231.20958936875002,231.6667023916667,48.0,72.0
841,231.39182711875,231.77300774583335,55.0,69.0
842,230.84511386875002,232.19063592291667,36.0,72.0
843,231.02735161875,232.34553801041667,43.0,53.0
844,231.75630261875003,232.54448088750001,48.0,81.0
845,232.12077811875002,232.76772213125003,55.0,82.0
846,231.93854036875,232.89225126041669,60.0,71.0
847,231.57406486875,232.8998445,63.0,107.0
848,232.84972911875002,233.13067898333335,55.0,73.0
849,232.66749136875,233.13979087083334,48.0,81.0
850,232.48525361875002,233.33114050833333,43.0,52.0
851,232.30301586875,233.3372151,36.0,62.0
852,233.21420461875002,233.38733048125002,48.0,72.0
853,233.03196686875,233.70472789583334,63.0,100.0
854,233.39644236875,233.74269409375,60.0,74.0
855,233.57868011875001,233.7654738125,55.0,92.0
856,234.12539336875003,234.54454019375,56.0,95.0
857,234.30763111875,234.66603202708336,60.0,72.0
858,233.76091786875003,234.92723946875,44.0,61.0
859,233.94315561875,235.09429073958336,51.0,37.0
860,234.48986886875002,235.12466369791667,68.0,97.0
861,234.85434436875002,235.2248944604167,63.0,85.0
862,234.67210661875,235.26134201041668,56.0,93.0
863,235.03658211875,235.49065784583334,60.0,77.0
864,235.58329536875002,236.03888974375002,56.0,82.0
865,235.76553311875003,236.12241537916668,60.0,66.0
866,236.13000861875003,236.34869391875,56.0,77.0
867,235.40105761875,236.3988093,51.0,35.0
868,235.21881986875002,236.47170440000002,44.0,54.0
869,235.94777086875,236.57041651458334,68.0,112.0
870,236.31224636875,236.5719351625,63.0,92.0
871,236.49448411875002,236.79517640625002,60.0,79.0
872,237.04119736875,237.42693393958334,53.0,83.0
873,237.22343511875002,237.57272413958336,60.0,78.0
874,237.58791061875002,237.7671110729167,53.0,79.0
875,236.67672186875,237.96605395,41.0,64.0
876,237.40567286875,238.08147119166668,68.0,107.0
877,236.85895961875002,238.12551198125,48.0,78.0
878,237.77014836875,238.13310522083336,65.0,66.0
879,237.95238611875,238.26826488541667,60.0,83.0
880,238.49909936875002,238.9288767291667,53.0,72.0
881,238.68133711875,239.02758884375,60.0,70.0
882,238.31686161875,239.09592800000001,48.0,46.0
883,238.13462386875003,239.12326366250002,41.0,68.0
884,239.04581261875,239.21741983333334,53.0,73.0
885,238.86357486875002,239.49533240208333,68.0,99.0
886,239.22805036875002,239.55152237500002,65.0,85.0
887,239.41028811875,239.60923099583334,60.0,81.0
888,239.95700136875,240.38677872916668,58.0,89.0
889,240.13923911875003,240.54168081666668,62.0,70.0
890,239.59252586875002,240.8697087666667,46.0,63.0
891,239.77476361875,241.0018311354167,53.0,43.0
892,240.68595236875,241.11724837708334,65.0,79.0
893,240.50371461875002,241.228109675,58.0,76.0
894,240.32147686875,241.24633345,70.0,99.0
895,240.86819011875002,241.41034742500003,62.0,82.0
896,241.41490336875,241.86442315208336,58.0,62.0
897,241.59714111875002,241.96313526666668,62.0,72.0
898,241.05042786875,242.26534620208335,46.0,61.0
899,241.77937886875,242.35190913333335,70.0,97.0
900,241.96161661875,242.5098485166667,58.0,83.0
901,241.23266561875002,242.51440446041667,53.0,50.0
902,242.14385436875003,242.57211308125002,65.0,83.0
903,242.32609211875,242.60856063125001,62.0,89.0
904,242.50832986875002,243.85385192291668,46.0,83.0
905,242.87280536875002,243.97838105208334,53.0,54.0
906,243.23728086875002,244.00571671458334,70.0,107.0
907,243.23728086875002,244.03153372916668,65.0,95.0
908,243.78399411875,244.05583209583335,62.0,99.0
909,243.60175636875002,244.15606285833334,58.0,85.0
910,244.33070736875,244.74833554583336,58.0,96.0
911,244.51294511875003,244.89564439375002,62.0,89.0
912,244.87742061875002,245.1462213,58.0,95.0
913,244.14846961875003,245.25252665416667,53.0,67.0
914,243.96623186875001,245.37705578333336,46.0,90.0
915,245.24189611875002,245.42413386875,62.0,97.0
916,245.05965836875,245.42413386875,65.0,92.0
917,244.69518286875,245.42413386875,70.0,112.0
918,246.15308486875003,247.09160928125002,56.0,93.0
919,246.51756036875003,247.36952185,60.0,67.0
920,247.24651136875002,247.90864186041668,56.0,73.0
921,245.78860936875,248.03165234166667,51.0,66.0
922,245.42413386875,248.15010687916669,44.0,77.0
923,247.61098686875002,248.2715987125,63.0,78.0
924,247.97546236875002,248.29437843125,60.0,77.0
925,246.88203586875002,248.32627003750002,68.0,95.0
926,249.0567396854167,250.03323029583333,56.0,81.0
927,249.42121518541668,250.32025475208334,59.0,82.0
928,248.36727353125002,250.85633746666667,44.0,85.0
929,248.74693551041668,251.23144350208335,51.0,62.0
930,250.53286546041667,251.59440035416668,59.0,72.0
931,250.20635615833334,251.6672954541667,56.0,59.0
932,249.80847040416668,252.4645856104167,63.0,90.0
933,249.81606364375003,252.48888397708336,68.0,92.0
934,251.98773016458335,252.99003778958334,56.0,82.0
935,251.63692249583335,253.07963801666668,51.0,72.0
936,252.3552429604167,253.1646823,59.0,89.0
937,251.22536891041668,253.20112985,44.0,92.0
938,253.57775453333335,254.59828593333336,59.0,69.0
939,252.7546473625,254.61347241250002,68.0,95.0
940,252.74553547500003,254.62106565208336,63.0,88.0
941,255.91799097291667,256.4935585333333,55.0,64.0
942,256.18527300625004,256.53304337916666,58.0,68.0
943,256.47533475833336,256.5922706479167,63.0,59.0
944,257.228584125,258.7973474229167,70.0,58.0
945,255.33331152500003,259.1071515979167,46.0,45.0
946,255.61729868541667,259.1344872604167,51.0,77.0
947,256.8747391604167,259.13600590833335,67.0,55.0
948,257.66139878125,259.1846026416667,75.0,37.0
949,254.90049686875003,259.2256061354167,39.0,99.0
