,start,end,pitch,velocity
0,24.952150987499998,25.393326487499998,64.0,114.0
1,25.393326487499998,25.834501987499998,71.0,120.0
2,25.834501987499998,26.275677487499998,69.0,114.0
3,26.275677487499998,26.496265237499998,67.0,114.0
4,26.496265237499998,28.03854125625,64.0,108.0
5,28.040379487499997,28.260967237499997,64.0,105.0
6,28.260967237499997,28.481554987499997,66.0,102.0
7,28.481554987499997,28.922730487499997,67.0,102.0
8,28.922730487499997,29.363905987499997,66.0,112.0
9,29.363905987499997,29.584493737499997,64.0,111.0
10,29.584493737499997,30.025669237499997,62.0,111.0
11,30.025669237499997,32.00912075625,64.0,111.0
12,32.0109589875,32.4521344875,64.0,114.0
13,32.4521344875,32.89147175625,76.0,114.0
14,32.8933099875,33.3344854875,76.0,108.0
15,33.3344854875,33.55323500625,74.0,97.0
16,33.5550732375,33.77382275625,74.0,102.0
17,33.7756609875,34.2168364875,74.0,117.0
18,34.2168364875,34.65617375625,69.0,117.0
19,34.6580119875,34.8785997375,69.0,108.0
20,34.8785997375,35.5403629875,74.0,108.0
21,35.5403629875,38.62675325625,71.0,108.0
22,38.628591487499996,38.849179237499996,71.0,102.0
23,38.849179237499996,39.069766987499996,74.0,105.0
24,39.069766987499996,39.952117987499996,76.0,111.0
25,39.952117987499996,40.393293487499996,74.0,111.0
26,40.393293487499996,40.613881237499996,71.0,105.0
27,40.613881237499996,42.157995487499996,69.0,108.0
28,42.157995487499996,42.378583237499996,67.0,105.0
29,42.378583237499996,42.599170987499996,69.0,108.0
30,42.599170987499996,43.481521987499995,71.0,108.0
31,43.481521987499995,43.922697487499995,69.0,114.0
32,43.922697487499995,44.143285237499995,71.0,117.0
33,44.143285237499995,45.68556125625,64.0,111.0
34,45.687399487499995,45.907987237499995,64.0,105.0
35,45.907987237499995,46.128574987499995,66.0,105.0
36,46.128574987499995,47.00908775625,67.0,97.0
37,47.010925987499995,47.231513737499995,67.0,102.0
38,47.231513737499995,47.672689237499995,69.0,105.0
39,47.672689237499995,48.775627987499995,66.0,109.0
40,48.775627987499995,49.2168034875,62.0,120.0
41,49.2168034875,49.4373912375,59.0,111.0
42,49.4373912375,53.185544756249996,64.0,108.0
43,53.1873829875,53.6285584875,64.0,114.0
44,53.6285584875,54.0697339875,71.0,120.0
45,54.0697339875,54.5109094875,69.0,114.0
46,54.5109094875,54.7314972375,67.0,114.0
47,54.7314972375,56.273773256249996,64.0,108.0
48,56.2756114875,56.4961992375,64.0,105.0
49,56.4961992375,56.7167869875,66.0,102.0
50,56.7167869875,57.1579624875,67.0,102.0
51,57.1579624875,57.5991379875,66.0,112.0
52,57.5991379875,57.8197257375,64.0,111.0
53,57.8197257375,58.2609012375,62.0,111.0
54,58.2609012375,60.244352756249995,64.0,111.0
55,60.2461909875,60.6873664875,64.0,114.0
56,60.6873664875,61.126703756249995,76.0,114.0
57,61.1285419875,61.5697174875,76.0,108.0
58,61.5697174875,61.788467006249995,74.0,97.0
59,61.7903052375,62.009054756249995,74.0,102.0
60,62.0108929875,62.4520684875,74.0,117.0
61,62.4520684875,62.891405756249995,69.0,117.0
62,62.8932439875,63.1138317375,69.0,108.0
63,63.1138317375,63.7755949875,74.0,108.0
64,63.7755949875,66.86198525625,71.0,108.0
65,66.8638234875,67.08441123749999,71.0,102.0
66,67.08441123749999,67.3049989875,74.0,105.0
67,67.3049989875,68.1873499875,76.0,111.0
68,68.1873499875,68.6285254875,74.0,111.0
69,68.6285254875,68.84911323749999,71.0,105.0
70,68.84911323749999,70.3932274875,69.0,108.0
71,70.3932274875,70.61381523749999,67.0,105.0
72,70.61381523749999,70.8344029875,69.0,108.0
73,70.8344029875,71.7167539875,71.0,108.0
74,71.7167539875,72.1579294875,69.0,114.0
75,72.1579294875,72.37851723749999,71.0,117.0
76,72.37851723749999,73.92079325625,64.0,111.0
77,73.9226314875,74.14321923749999,64.0,105.0
78,74.14321923749999,74.3638069875,66.0,105.0
79,74.3638069875,75.24431975625,67.0,97.0
80,75.2461579875,75.46674573749999,67.0,102.0
81,75.46674573749999,75.90792123749999,69.0,105.0
82,75.90792123749999,77.0108599875,66.0,109.0
83,77.0108599875,77.4520354875,62.0,120.0
84,77.4520354875,77.67262323749999,59.0,111.0
85,77.67262323749999,80.76085173749999,64.0,108.0
86,80.76085173749999,80.97960125624999,71.0,111.0
87,80.9814394875,81.20018900625,71.0,111.0
88,81.20202723749999,81.4226149875,71.0,114.0
89,81.4226149875,81.8637904875,79.0,114.0
90,81.8637904875,82.3049659875,78.0,112.0
91,82.3049659875,82.52555373749999,76.0,102.0
92,82.52555373749999,82.96672923749999,74.0,123.0
93,82.96672923749999,84.28841750625,71.0,120.0
94,84.29025573749999,84.5108434875,71.0,117.0
95,84.5108434875,84.73143123749999,74.0,111.0
96,84.73143123749999,84.9520189875,71.0,117.0
97,84.9520189875,85.17076850625,76.0,102.0
98,85.17260673749999,85.61378223749999,76.0,108.0
99,85.61378223749999,85.8343699875,74.0,114.0
100,85.8343699875,86.2755454875,67.0,114.0
101,86.2755454875,86.7167209875,69.0,117.0
102,86.7167209875,88.4814229875,71.0,108.0
103,88.4814229875,88.70017250625,69.0,100.0
104,88.7020107375,88.92076025624999,69.0,105.0
105,88.9225984875,89.1431862375,69.0,111.0
106,89.1431862375,89.3637739875,67.0,97.0
107,89.3637739875,89.8049494875,69.0,114.0
108,89.8049494875,90.0255372375,67.0,111.0
109,90.0255372375,91.56781325624999,64.0,108.0
110,91.5696514875,91.78840100625,64.0,114.0
111,91.7902392375,92.0108269875,64.0,111.0
112,92.0108269875,92.22957650625,76.0,108.0
113,92.2314147375,92.45016425624999,76.0,117.0
114,92.4520024875,92.67075200625,76.0,108.0
115,92.6725902375,92.89133975624999,76.0,102.0
116,92.8931779875,93.3343534875,76.0,108.0
117,93.3343534875,93.5549412375,71.0,111.0
118,93.5549412375,93.9961167375,76.0,114.0
119,93.9961167375,94.8784677375,74.0,108.0
120,94.8784677375,95.0990554875,71.0,111.0
121,95.0990554875,95.3196432375,74.0,111.0
122,95.3196432375,95.5402309875,71.0,114.0
123,95.5402309875,95.9814064875,79.0,114.0
124,95.9814064875,96.4225819875,78.0,112.0
125,96.4225819875,96.6431697375,76.0,102.0
126,96.6431697375,97.0843452375,74.0,123.0
127,97.0843452375,98.40603350625,71.0,120.0
128,98.4078717375,98.6284594875,71.0,117.0
129,98.6284594875,98.8490472375,74.0,111.0
130,98.8490472375,99.0696349875,71.0,117.0
131,99.0696349875,99.28838450625,76.0,102.0
132,99.2902227375,99.7313982375,76.0,108.0
133,99.7313982375,99.9519859875,74.0,114.0
134,99.9519859875,100.3931614875,67.0,114.0
135,100.3931614875,100.8343369875,69.0,117.0
136,100.8343369875,102.5990389875,71.0,108.0
137,102.5990389875,102.81778850625,69.0,100.0
138,102.8196267375,103.03837625624999,69.0,105.0
139,103.0402144875,103.2608022375,69.0,111.0
140,103.2608022375,103.4813899875,67.0,97.0
141,103.4813899875,103.9225654875,69.0,114.0
142,103.9225654875,104.14131500625,67.0,111.0
143,104.1431532375,104.5843287375,67.0,105.0
144,104.5843287375,105.6872674875,64.0,105.0
145,105.6872674875,105.9078552375,76.0,120.0
146,105.9078552375,106.1284429875,78.0,105.0
147,106.1284429875,107.22954350625,79.0,108.0
148,107.2313817375,107.4519694875,79.0,111.0
149,107.4519694875,107.8931449875,81.0,114.0
150,107.8931449875,108.7754959875,78.0,109.0
151,108.7754959875,109.2166714875,74.0,111.0
152,109.2166714875,109.4372592375,71.0,114.0
153,109.4372592375,113.823279,76.0,108.0
154,141.4224829875,141.727629375,64.0,114.0
155,141.8636584875,142.13939317499998,71.0,120.0
156,142.3048339875,142.60078921875,69.0,114.0
157,142.7460094875,142.84711220625,67.0,114.0
158,142.9665972375,144.03828605625,64.0,108.0
159,144.5107114875,144.63387298125,64.0,105.0
160,144.7312992375,144.84710780625,66.0,102.0
161,144.9518869875,145.25335691249998,67.0,102.0
162,145.3930624875,145.65041486249999,66.0,112.0
163,145.8342379875,145.92614955,64.0,111.0
164,146.05482573749998,146.4445307625,62.0,111.0
165,146.4960012375,147.9959979375,64.0,111.0
166,148.4812909875,148.75334921249998,64.0,114.0
167,148.9224664875,149.19084825,76.0,114.0
168,149.3636419875,149.61547966875,76.0,108.0
169,149.8048174875,149.91878782499998,74.0,97.0
170,150.0254052375,150.1173168,74.0,102.0
171,150.2459929875,150.536433525,74.0,117.0
172,150.6871684875,150.95003555625,69.0,117.0
173,151.1283439875,151.26804956249998,69.0,108.0
174,151.34893173749998,151.8930481875,74.0,108.0
175,152.0106949875,153.962896575,71.0,108.0
176,155.0989234875,155.21289382499998,71.0,102.0
177,155.3195112375,155.4114228,74.0,105.0
178,155.5400989875,156.13017121875,76.0,111.0
179,156.4224499875,156.69083175,74.0,111.0
180,156.8636254875,156.96472820625,71.0,105.0
181,157.0842132375,158.3562692625,69.0,108.0
182,158.6283274875,158.73310666875,67.0,105.0
183,158.8489152375,158.93898856875,69.0,108.0
184,159.0695029875,159.6797957625,71.0,108.0
185,159.9518539875,160.27722091875,69.0,114.0
186,160.3930294875,160.49413220625,71.0,117.0
187,160.6136172375,161.84339394375,64.0,111.0
188,162.1577314875,162.24964305,64.0,105.0
189,162.3783192375,162.4739072625,66.0,105.0
190,162.5989069875,163.31030248125,67.0,97.0
191,163.4812579875,163.595228325,67.0,102.0
192,163.7018457375,164.12647715625,69.0,105.0
193,164.1430212375,165.08235740625,66.0,109.0
194,165.2459599875,165.536400525,62.0,120.0
195,165.6871354875,165.79191466875,59.0,111.0
196,165.9077232375,168.7753639875,64.0,108.0
197,168.9959517375,169.124627925,71.0,111.0
198,169.2165394875,169.30845105,71.0,111.0
199,169.4371272375,169.551097575,71.0,114.0
200,169.6577149875,169.99043484375,79.0,114.0
201,170.0988904875,170.38381633125,78.0,112.0
202,170.5400659875,170.65587455624998,76.0,102.0
203,170.7606537375,171.1282999875,74.0,123.0
204,171.2018292375,172.2643269,71.0,120.0
205,172.5253557375,172.61726729999998,71.0,117.0
206,172.7459434875,172.85072266875,74.0,111.0
207,172.9665312375,173.04925164374998,71.0,117.0
208,173.18711898749999,173.27903055,76.0,102.0
209,173.4077067375,173.72204428125,76.0,108.0
210,173.8488822375,173.94998495625,74.0,114.0
211,174.06946998749999,174.38013106875,67.0,114.0
212,174.5106454875,174.82130656875,69.0,117.0
213,174.95182098749999,175.8856424625,71.0,108.0
214,176.71652298749999,176.830493325,69.0,100.0
215,176.9371107375,177.0547575375,69.0,105.0
216,177.1576984875,177.29556583125,69.0,111.0
217,177.3782862375,177.49777126875,67.0,97.0
218,177.59887398749999,177.92240268749998,69.0,114.0
219,178.0400494875,178.15953451875,67.0,111.0
220,178.2606372375,179.5290168,64.0,108.0
221,179.8047514875,179.90217774375,64.0,114.0
222,180.0253392375,180.13011841875,64.0,111.0
223,180.24592698749998,180.34702970625,76.0,108.0
224,180.4665147375,180.55658806875,76.0,117.0
225,180.6871024875,180.77349935625,76.0,108.0
226,180.9076902375,181.01430765,76.0,102.0
227,181.12827798749998,181.40585090624998,76.0,108.0
228,181.5694534875,181.71467375625,71.0,111.0
229,181.7900412375,182.10437878125,76.0,114.0
230,182.2312167375,183.05474433749998,74.0,108.0
231,183.1135677375,183.242243925,71.0,111.0
232,183.3341554875,183.42606705,74.0,111.0
233,183.5547432375,183.668713575,71.0,114.0
234,183.77533098749998,184.10805084375,79.0,114.0
235,184.2165064875,184.50143233125,78.0,112.0
236,184.65768198749998,184.77349055624998,76.0,102.0
237,184.8782697375,185.24591598749998,74.0,123.0
238,185.3194452375,186.38194289999998,71.0,120.0
239,186.6429717375,186.7348833,71.0,117.0
240,186.8635594875,186.96833866875,74.0,111.0
241,187.0841472375,187.16686764374998,71.0,117.0
242,187.30473498749998,187.39664654999999,76.0,102.0
243,187.5253227375,187.83966028125,76.0,108.0
244,187.9664982375,188.06760095625,74.0,114.0
245,188.18708598749998,188.49774706875,67.0,114.0
246,188.6282614875,188.93892256875,69.0,117.0
247,189.06943698749998,190.00325846249999,71.0,108.0
248,190.83413898749998,190.948109325,69.0,100.0
249,191.0547267375,191.1723735375,69.0,105.0
250,191.2753144875,191.41318183125,69.0,111.0
251,191.4959022375,191.61538726875,67.0,97.0
252,191.71648998749998,192.04001868749998,69.0,114.0
253,192.1576654875,192.27715051875,67.0,111.0
254,192.3782532375,192.71097309375,67.0,105.0
255,192.8194287375,193.5583977,64.0,105.0
256,193.9223674875,194.036337825,76.0,120.0
257,194.1429552375,194.2532491125,78.0,105.0
258,194.36354298749998,195.293688,79.0,108.0
259,195.4664817375,195.587805,79.0,111.0
260,195.6870694875,195.9885394125,81.0,114.0
261,196.12824498749998,196.78081708125,78.0,109.0
262,197.01059598749998,197.33596291875,74.0,111.0
263,197.4517714875,197.565741825,71.0,114.0
264,197.6723592375,200.53999998749998,76.0,108.0
265,200.7605877375,200.889263925,71.0,111.0
266,200.9811754875,201.07308705,71.0,111.0
267,201.2017632375,201.315733575,71.0,114.0
268,201.42235098749998,201.75507084375,79.0,114.0
269,201.8635264875,202.14845233124998,78.0,112.0
270,202.30470198749998,202.42051055624998,76.0,102.0
271,202.5252897375,202.89293598749998,74.0,123.0
272,202.9664652375,204.02896289999998,71.0,120.0
273,204.2899917375,204.3819033,71.0,117.0
274,204.5105794875,204.61535866875,74.0,111.0
275,204.7311672375,204.81388764374998,71.0,117.0
276,204.95175498749998,205.04366654999998,76.0,102.0
277,205.1723427375,205.48668028125,76.0,108.0
278,205.6135182375,205.71462095625,74.0,114.0
279,205.83410598749998,206.14476706874999,67.0,114.0
280,206.2752814875,206.58594256875,69.0,117.0
281,206.71645698749998,207.65027846249998,71.0,108.0
282,208.48115898749998,208.595129325,69.0,100.0
283,208.7017467375,208.8193935375,69.0,105.0
284,208.9223344875,209.06020183125,69.0,111.0
285,209.1429222375,209.26240726875,67.0,97.0
286,209.36350998749998,209.6870386875,69.0,114.0
287,209.8046854875,209.92417051875,67.0,111.0
288,210.0252732375,211.2936528,64.0,108.0
289,211.5693874875,211.66681374375,64.0,114.0
290,211.7899752375,211.89475441874998,64.0,111.0
291,212.01056298749998,212.11166570625,76.0,108.0
292,212.2311507375,212.32122406874998,76.0,117.0
293,212.4517384875,212.53813535625,76.0,108.0
294,212.6723262375,212.77894365,76.0,102.0
295,212.89291398749998,213.17048690625,76.0,108.0
296,213.3340894875,213.47930975625,71.0,111.0
297,213.5546772375,213.86901478125,76.0,114.0
298,213.9958527375,214.81938033749998,74.0,108.0
299,214.8782037375,215.006879925,71.0,111.0
300,215.0987914875,215.19070305,74.0,111.0
301,215.3193792375,215.433349575,71.0,114.0
302,215.53996698749998,215.87268684375,79.0,114.0
303,215.9811424875,216.26606833124998,78.0,112.0
304,216.42231798749998,216.53812655625,76.0,102.0
305,216.6429057375,217.01055198749998,74.0,123.0
306,217.0840812375,218.14657889999998,71.0,120.0
307,218.4076077375,218.4995193,71.0,117.0
308,218.6281954875,218.73297466875,74.0,111.0
309,218.8487832375,218.93150364375,71.0,117.0
310,219.06937098749998,219.16128254999998,76.0,102.0
311,219.2899587375,219.60429628125,76.0,108.0
312,219.7311342375,219.83223695625,74.0,114.0
313,219.95172198749998,220.26238306874998,67.0,114.0
314,220.3928974875,220.70355856875,69.0,117.0
315,220.83407298749998,221.76789446249998,71.0,108.0
316,222.59877498749998,222.712745325,69.0,100.0
317,222.8193627375,222.9370095375,69.0,105.0
318,223.0399504875,223.17781783125,69.0,111.0
319,223.2605382375,223.38002326875,67.0,97.0
320,223.48112598749998,223.8046546875,69.0,114.0
321,223.9223014875,224.04178651875,67.0,111.0
322,224.1428892375,224.47560909375,67.0,105.0
323,224.5840647375,225.3230337,64.0,105.0
324,225.6870034875,225.800973825,76.0,120.0
325,225.9075912375,226.01788511249998,78.0,105.0
326,226.12817898749998,227.058324,79.0,108.0
327,227.2311177375,227.352441,79.0,111.0
328,227.4517054875,227.75317541249998,81.0,114.0
329,227.89288098749998,228.54545308125,78.0,109.0
330,228.77523198749998,229.10059891875,74.0,111.0
331,229.2164074875,229.330377825,71.0,114.0
332,229.43699523749999,232.30463598749998,76.0,108.0
