,start,end,pitch,velocity
0,3.7757269874999997,7.3051309875,40.0,108.0
1,3.7757269874999997,7.3051309875,47.0,97.0
2,3.7757269874999997,7.3051309875,52.0,97.0
3,7.3051309875,7.63049791875,64.0,100.0
4,7.3051309875,7.8437327437499995,67.0,117.0
5,8.1874819875,8.36946688125,64.0,108.0
6,7.3051309875,8.454025518749999,52.0,114.0
7,8.1874819875,8.6727750375,67.0,123.0
8,8.1874819875,8.6727750375,71.0,111.0
9,8.6286574875,8.95402441875,64.0,66.0
10,9.0698329875,9.4889497125,67.0,94.0
11,9.0698329875,9.4999791,64.0,89.0
12,9.5110084875,10.04593378125,59.0,89.0
13,9.9521839875,10.1948305125,64.0,114.0
14,9.9521839875,10.2095363625,67.0,123.0
15,9.0698329875,10.2610068375,52.0,105.0
16,10.1727717375,10.273874456249999,59.0,97.0
17,10.3933594875,10.623138393749999,64.0,111.0
18,10.6139472375,10.73710873125,67.0,89.0
19,10.8345349875,11.229754706249999,60.0,108.0
20,10.8345349875,11.25548994375,64.0,102.0
21,10.8345349875,11.34372504375,48.0,105.0
22,11.2757104875,11.428283681249999,55.0,73.0
23,11.7168859875,12.04960584375,66.0,105.0
24,11.7168859875,12.055120537499999,62.0,105.0
25,11.7168859875,12.1212968625,50.0,102.0
26,12.5992369875,13.10475058125,67.0,105.0
27,12.5992369875,13.10842704375,62.0,94.0
28,13.0404124875,13.53122023125,50.0,57.0
29,13.4815879875,13.71871981875,67.0,117.0
30,13.4815879875,13.72055805,62.0,108.0
31,13.4815879875,13.7683520625,71.0,105.0
32,12.5992369875,13.795925531249999,43.0,100.0
33,13.7021757375,13.817984306249999,50.0,92.0
34,13.9227634875,14.08636606875,62.0,117.0
35,14.3639389875,15.0404080875,67.0,100.0
36,14.3639389875,15.06798155625,64.0,82.0
37,14.3639389875,15.46136304375,52.0,100.0
38,15.246289987499999,15.507318824999999,64.0,100.0
39,15.246289987499999,15.52753936875,67.0,117.0
40,15.466877737499999,15.551436375,59.0,84.0
41,15.246289987499999,15.63048031875,71.0,108.0
42,15.687465487499999,15.819818137499999,64.0,114.0
43,16.1286409875,16.57349295,57.0,111.0
44,16.1286409875,16.66172805,62.0,100.0
45,16.5698164875,17.14150640625,54.0,82.0
46,16.1286409875,17.2242268125,47.0,100.0
47,17.0109919875,17.369447081249998,62.0,114.0
48,17.0109919875,17.3823147,59.0,114.0
49,17.0109919875,17.422755787499998,66.0,112.0
50,17.4521674875,17.5771672125,47.0,89.0
51,17.8933429875,18.1470189,60.0,105.0
52,17.8933429875,18.174592368749998,64.0,111.0
53,18.3345184875,18.62679725625,60.0,94.0
54,18.1139307375,18.83819385,55.0,58.0
55,18.7756939875,18.9705465,60.0,117.0
56,18.7756939875,19.023855206249998,67.0,108.0
57,17.8933429875,19.080840375,48.0,111.0
58,18.9962817375,19.124957925,55.0,97.0
59,19.2168694875,19.3492221375,60.0,114.0
60,19.6580449875,19.80326525625,62.0,108.0
61,19.6580449875,19.808779949999998,66.0,105.0
62,19.6580449875,19.81429464375,57.0,100.0
63,19.6580449875,19.82164756875,50.0,105.0
64,19.8786327375,20.0403970875,57.0,111.0
65,19.8786327375,20.07348525,66.0,105.0
66,19.8786327375,20.07532348125,50.0,100.0
67,19.8786327375,20.0881911,62.0,114.0
68,20.5403959875,20.82532183125,57.0,100.0
69,20.5403959875,20.9227480875,50.0,105.0
70,20.5403959875,21.03120373125,66.0,87.0
71,20.5403959875,21.042233118749998,62.0,92.0
72,20.5403959875,21.06061543125,69.0,92.0
73,21.4227469875,24.6506810625,59.0,89.0
74,21.4227469875,24.784871943749998,52.0,97.0
75,21.4227469875,24.7940631,47.0,97.0
76,21.4227469875,24.82898949375,40.0,102.0
77,24.952150987499998,25.71501695625,52.0,76.0
78,25.834501987499998,26.5771474125,52.0,97.0
79,25.834501987499998,26.5992061875,55.0,97.0
80,24.952150987499998,26.7830293125,47.0,78.0
81,26.716852987499998,27.40251324375,52.0,84.0
82,26.716852987499998,27.428248481249998,55.0,94.0
83,24.952150987499998,27.7683212625,40.0,84.0
84,27.599203987499997,27.88412983125,52.0,100.0
85,27.599203987499997,27.9705267,55.0,105.0
86,28.481554987499997,28.816113075,48.0,92.0
87,28.481554987499997,28.85471593125,55.0,89.0
88,28.481554987499997,28.919054024999998,36.0,97.0
89,29.363905987499997,29.72603754375,50.0,82.0
90,29.363905987499997,29.75544924375,57.0,89.0
91,29.363905987499997,29.75912570625,54.0,96.0
92,29.363905987499997,29.887801893749998,38.0,102.0
93,30.2462569875,30.4668447375,47.0,92.0
94,30.2462569875,30.76647643125,52.0,92.0
95,30.6874324875,30.98706418125,47.0,60.0
96,31.1286079875,31.325298731249998,47.0,111.0
97,31.1286079875,31.880444568749997,55.0,97.0
98,31.5697834875,31.96132674375,47.0,87.0
99,30.2462569875,32.099194087499995,40.0,94.0
100,32.0109589875,32.580810675,52.0,92.0
101,32.0109589875,32.64147230625,48.0,92.0
102,32.0109589875,33.288529706249996,36.0,87.0
103,32.8933099875,33.30691201875,55.0,97.0
104,32.4521344875,33.362058956249996,43.0,71.0
105,32.8933099875,33.395147118749996,48.0,111.0
106,33.3344854875,33.463161675,52.0,108.0
107,33.7756609875,34.13227785,54.0,93.0
108,33.7756609875,34.271983425,50.0,97.0
109,34.6580119875,34.95580545,57.0,102.0
110,34.6580119875,34.959481912499996,54.0,102.0
111,34.6580119875,34.977864225,50.0,97.0
112,34.2168364875,35.045878781249996,45.0,44.0
113,33.7756609875,35.10286395,38.0,102.0
114,35.5403629875,35.7940389,50.0,92.0
115,35.5403629875,36.11205290625,55.0,100.0
116,35.981538487499996,36.229699706249995,50.0,48.0
117,36.422713987499996,36.60469888125,50.0,97.0
118,36.422713987499996,37.18190349375,59.0,105.0
119,36.422713987499996,37.21499165625,55.0,108.0
120,36.863889487499996,37.257270975,50.0,82.0
121,35.5403629875,37.2609474375,43.0,89.0
122,37.305064987499996,37.873078443749996,63.0,87.0
123,37.305064987499996,37.93925476875,66.0,63.0
124,37.305064987499996,37.96499000625,59.0,87.0
125,38.187415987499996,38.48704768125,59.0,114.0
126,37.746240487499996,39.007267125,54.0,74.0
127,38.628591487499996,39.0109435875,59.0,97.0
128,38.187415987499996,39.021972975,71.0,97.0
129,37.305064987499996,39.029325899999996,47.0,97.0
130,39.069766987499996,39.531163031249996,67.0,84.0
131,39.069766987499996,39.6506480625,60.0,92.0
132,39.510942487499996,39.9300592125,55.0,57.0
133,39.069766987499996,39.95027975625,48.0,102.0
134,39.952117987499996,40.119397031249996,60.0,105.0
135,39.952117987499996,40.294029,64.0,105.0
136,40.834468987499996,41.095497824999995,57.0,100.0
137,40.834468987499996,41.39145305625,66.0,87.0
138,41.275644487499996,41.5844673375,57.0,97.0
139,40.834468987499996,42.14145140625,50.0,100.0
140,41.716819987499996,42.17453956875,62.0,82.0
141,41.716819987499996,42.183730725,66.0,102.0
142,42.157995487499996,42.32159806875,57.0,108.0
143,42.599170987499996,42.78115588125,55.0,100.0
144,42.599170987499996,43.053214106249996,59.0,102.0
145,42.599170987499996,43.101008118749995,43.0,102.0
146,43.040346487499995,43.14512566875,55.0,87.0
147,43.481521987499995,43.7241685125,57.0,100.0
148,43.481521987499995,43.93924156875,42.0,93.0
149,43.481521987499995,44.01460905,62.0,97.0
150,43.922697487499995,44.1800498625,57.0,102.0
151,44.363872987499995,44.584460737499995,59.0,87.0
152,44.363872987499995,44.91718059375,64.0,89.0
153,44.805048487499995,45.124900724999996,59.0,69.0
154,45.246223987499995,45.46864996875,59.0,114.0
155,45.687399487499995,45.8932813875,59.0,89.0
156,44.363872987499995,45.907987237499995,52.0,108.0
157,45.246223987499995,46.027472268749996,67.0,100.0
158,46.128574987499995,46.74438245625,64.0,97.0
159,46.128574987499995,46.816073474999996,60.0,97.0
160,47.010925987499995,47.16166095,60.0,89.0
161,46.569750487499995,47.23335196875,55.0,76.0
162,46.128574987499995,47.2351902,48.0,100.0
163,47.010925987499995,47.352837,64.0,97.0
164,47.010925987499995,47.51276311875,67.0,100.0
165,47.452101487499995,47.54217481875,60.0,80.0
166,47.893276987499995,48.16165875,57.0,66.0
167,47.893276987499995,48.43555520625,62.0,89.0
168,47.893276987499995,48.47967275625,66.0,55.0
169,48.334452487499995,48.63776064375,57.0,76.0
170,47.893276987499995,48.933715875,50.0,94.0
171,48.775627987499995,49.082612606249995,57.0,105.0
172,48.775627987499995,49.08996553125,62.0,100.0
173,48.775627987499995,49.16717124375,66.0,87.0
174,49.6579789875,49.884081431249996,59.0,100.0
175,49.6579789875,50.312389312499995,64.0,94.0
176,49.6579789875,50.312389312499995,67.0,97.0
177,50.0991544875,50.4226831875,59.0,71.0
178,50.5403299875,50.725991343749996,59.0,108.0
179,50.5403299875,51.0844464375,64.0,94.0
180,50.5403299875,51.08996113125,67.0,94.0
181,50.9815054875,51.395107518749995,59.0,53.0
182,51.4226809875,51.4667985375,59.0,7.0
183,51.4226809875,52.021944375,67.0,100.0
184,51.4226809875,52.062385462499996,64.0,92.0
185,51.8638564875,52.156135256249996,59.0,73.0
186,52.3050319875,52.566060825,71.0,87.0
187,52.3050319875,52.58628136875,64.0,105.0
188,52.3050319875,52.6065019125,59.0,108.0
189,52.7462074875,53.10282435,69.0,105.0
190,49.6579789875,53.106500812499995,52.0,102.0
191,53.1873829875,53.6506172625,67.0,102.0
192,53.1873829875,53.66348488125,64.0,97.0
193,53.6285584875,54.316056974999995,59.0,67.0
194,54.0697339875,54.503556562499995,64.0,114.0
195,54.0697339875,54.523777106249995,71.0,114.0
196,53.1873829875,54.80686471875,52.0,100.0
197,54.5109094875,54.836276418749996,59.0,73.0
198,54.7314972375,54.90245274375,64.0,108.0
199,54.9520849875,55.43553980625,64.0,92.0
200,54.9520849875,55.4704662,67.0,100.0
201,55.6138482375,55.69105395,64.0,57.0
202,55.3932604875,55.92818578125,59.0,71.0
203,55.8344359875,56.37303774375,71.0,108.0
204,56.0550237375,56.404287675,59.0,89.0
205,54.9520849875,56.43186114375,52.0,102.0
206,56.2756114875,56.608331343749995,64.0,100.0
207,56.4961992375,56.61936073125,67.0,67.0
208,56.7167869875,56.977815825,60.0,89.0
209,56.7167869875,57.0844332375,64.0,100.0
210,56.7167869875,57.39877078125,48.0,89.0
211,57.1579624875,57.40612370625,60.0,100.0
212,56.9373747375,57.46127064375,55.0,58.0
213,57.5991379875,58.0623722625,62.0,97.0
214,57.5991379875,58.066048724999995,66.0,102.0
215,57.5991379875,58.2756070875,50.0,100.0
216,58.0403134875,58.345459874999996,57.0,50.0
217,58.4814889875,58.9520761875,64.0,89.0
218,58.4814889875,59.128546387499995,67.0,89.0
219,59.1432522375,59.23332556875,64.0,76.0
220,58.9226644875,59.43185454375,59.0,78.0
221,59.3638399875,59.5917806625,64.0,108.0
222,58.4814889875,59.78847140625,52.0,102.0
223,59.5844277375,59.79950079375,59.0,92.0
224,59.3638399875,59.8932505875,71.0,102.0
225,59.8050154875,60.077073712499995,64.0,97.0
226,60.0256032375,60.117514799999995,67.0,80.0
227,60.2461909875,60.81420444375,64.0,97.0
228,60.2461909875,60.89141015625,60.0,84.0
229,60.6873664875,61.187365387499995,55.0,69.0
230,61.1285419875,61.39692375,60.0,117.0
231,61.1285419875,61.46861476875,67.0,100.0
232,60.2461909875,61.5991291875,48.0,97.0
233,61.3491297375,61.702070137499994,55.0,87.0
234,61.5697174875,61.740672993749996,60.0,102.0
235,62.0108929875,62.57890644375,66.0,102.0
236,62.0108929875,62.610156374999995,62.0,97.0
237,62.8932439875,63.080743575,62.0,105.0
238,62.8932439875,63.365669418749995,66.0,112.0
239,62.8932439875,63.45574275,69.0,102.0
240,62.4520684875,63.520080843749994,57.0,92.0
241,62.0108929875,63.60831594375,50.0,102.0
242,63.3344194875,63.6211835625,62.0,89.0
243,63.7755949875,64.301329125,62.0,97.0
244,63.7755949875,64.52007864375,67.0,97.0
245,64.43735823749999,64.55684326875,62.0,84.0
246,64.2167704875,64.74985755,59.0,66.0
247,63.7755949875,64.801328025,55.0,94.0
248,64.6579459875,64.9116219,62.0,114.0
249,64.87853373749999,65.021915775,59.0,89.0
250,64.6579459875,65.15243019374999,71.0,102.0
251,65.0991214875,65.25169468125,62.0,105.0
252,65.5402969875,65.80867875,66.0,45.0
253,65.5402969875,66.2608836375,59.0,92.0
254,65.9814724875,66.50536839375,54.0,85.0
255,66.4226479875,66.860147025,59.0,111.0
256,65.5402969875,66.91161749999999,47.0,102.0
257,66.8638234875,66.9888232125,54.0,93.0
258,66.4226479875,67.1763228,66.0,96.0
259,66.4226479875,67.213087425,63.0,109.0
260,67.08441123749999,67.31235191249999,59.0,111.0
261,67.3049989875,67.86198305625,60.0,102.0
262,67.3049989875,67.8638212875,67.0,97.0
263,67.7461744875,68.2645557,55.0,87.0
264,67.3049989875,68.4116142,48.0,100.0
265,68.1873499875,68.6174961,60.0,102.0
266,68.1873499875,68.786613375,64.0,105.0
267,68.6285254875,68.89139255625,55.0,87.0
268,68.84911323749999,68.977789425,60.0,87.0
269,69.0697009875,69.4741118625,66.0,82.0
270,69.0697009875,69.51455295,62.0,84.0
271,69.5108764875,70.007198925,57.0,87.0
272,69.9520519875,70.2094043625,62.0,105.0
273,69.9520519875,70.26271306875,69.0,105.0
274,69.9520519875,70.271904225,66.0,109.0
275,70.3932274875,70.63219755,62.0,102.0
276,70.17263973749999,70.64874163125,57.0,87.0
277,69.0697009875,70.6505798625,50.0,97.0
278,70.8344029875,71.07888774375,62.0,108.0
279,70.8344029875,71.3196960375,67.0,105.0
280,71.2755784875,71.43182814375,62.0,105.0
281,70.8344029875,71.4814603875,55.0,94.0
282,71.7167539875,71.9704299,62.0,108.0
283,71.7167539875,72.20756173125,66.0,109.0
284,72.1579294875,72.3270467625,62.0,94.0
285,71.7167539875,72.39873778124999,50.0,97.0
286,72.5991049875,73.15608905625,64.0,97.0
287,72.5991049875,73.21491245624999,67.0,97.0
288,73.0402804875,73.507191225,59.0,80.0
289,73.4814559875,73.68182319374999,64.0,114.0
290,73.4814559875,73.84358754375,71.0,105.0
291,72.5991049875,73.92998441249999,52.0,105.0
292,73.70204373749999,73.93917556875,59.0,94.0
293,73.9226314875,74.10461638125,64.0,97.0
294,74.3638069875,74.9740997625,64.0,97.0
295,74.3638069875,75.07336425,60.0,92.0
296,74.8049824875,75.32887839375,55.0,80.0
297,75.2461579875,75.63218655,60.0,102.0
298,75.2461579875,75.74431865625,67.0,97.0
299,74.3638069875,75.9115977,48.0,100.0
300,75.6873334875,75.992479875,55.0,76.0
301,75.90792123749999,76.03108273125,60.0,92.0
302,76.1285089875,76.58990503125,66.0,54.0
303,76.1285089875,76.595419725,62.0,87.0
304,76.79027223749999,76.89505141875,62.0,78.0
305,76.5696844875,77.1174774,57.0,87.0
306,76.1285089875,77.2829182125,50.0,105.0
307,77.0108599875,77.4888001125,62.0,108.0
308,77.0108599875,77.521888275,66.0,105.0
309,77.4520354875,77.72225548125,50.0,100.0
310,77.8932109875,78.5476213125,67.0,97.0
311,77.8932109875,78.57335655,64.0,89.0
312,78.3343864875,78.88401763125,59.0,80.0
313,77.8932109875,79.117473,52.0,102.0
314,78.7755619875,79.18916401874999,64.0,102.0
315,78.7755619875,79.257178575,67.0,114.0
316,78.7755619875,79.286590275,71.0,111.0
317,79.2167374875,79.50166333125,59.0,84.0
318,79.43732523749999,79.54210441875,64.0,82.0
319,79.6579129875,79.77372155625,59.0,97.0
320,79.6579129875,79.77372155625,64.0,92.0
321,79.6579129875,79.77739801874999,67.0,102.0
322,79.6579129875,79.7902656375,52.0,105.0
323,79.87850073749999,80.1468825,64.0,97.0
324,79.87850073749999,80.154235425,67.0,102.0
325,79.87850073749999,80.16342658125,59.0,105.0
326,79.87850073749999,80.1873235875,52.0,100.0
327,80.5402639875,80.815998675,64.0,97.0
328,80.5402639875,80.87298384374999,71.0,100.0
329,80.5402639875,80.89320438749999,67.0,102.0
330,80.5402639875,81.11563036875,52.0,111.0
331,80.9814394875,81.13401268125,64.0,114.0
332,80.76085173749999,81.13768914375,59.0,100.0
333,81.20202723749999,81.3527622,64.0,58.0
334,81.20202723749999,81.35460043124999,67.0,111.0
335,81.4226149875,81.60276164999999,64.0,102.0
336,81.4226149875,81.86562871875,67.0,114.0
337,81.8637904875,82.07518708125,64.0,94.0
338,82.3049659875,82.40974516874999,64.0,120.0
339,82.3049659875,82.58253890625,71.0,114.0
340,82.52555373749999,82.64871523125,64.0,100.0
341,82.7461414875,82.86195005625,67.0,111.0
342,81.4226149875,82.889523525,52.0,120.0
343,82.96672923749999,83.09356719374999,64.0,73.0
344,83.1873169875,83.448345825,64.0,97.0
345,83.1873169875,83.47959575624999,67.0,100.0
346,83.84908023749999,83.87665370625,67.0,55.0
347,83.6284924875,83.918933025,64.0,82.0
348,83.40790473749999,84.18547655625,59.0,35.0
349,84.0696679875,84.330696825,71.0,111.0
350,84.0696679875,84.33253505625,64.0,111.0
351,84.0696679875,84.345402675,67.0,114.0
352,83.1873169875,84.4005496125,52.0,97.0
353,84.29025573749999,84.45385831875,59.0,102.0
354,84.5108434875,84.8270192625,64.0,111.0
355,84.73143123749999,84.83804864999999,67.0,50.0
356,84.9520189875,85.213047825,60.0,105.0
357,84.9520189875,85.27738591875,64.0,117.0
358,85.3931944875,85.6505468625,60.0,97.0
359,84.9520189875,85.66157625,48.0,102.0
360,85.17260673749999,85.7167231875,55.0,89.0
361,85.61378223749999,85.76267896875,64.0,84.0
362,85.8343699875,86.11929583125,62.0,102.0
363,85.8343699875,86.30863364999999,66.0,112.0
364,86.2755454875,86.551280175,62.0,102.0
365,86.49613323749999,86.6064271125,66.0,99.0
366,86.05495773749999,86.62848588749999,57.0,92.0
367,85.8343699875,86.64502996875,50.0,102.0
368,86.7167209875,87.2461315875,67.0,105.0
369,86.7167209875,87.29208736875,62.0,94.0
370,86.7167209875,87.713042325,55.0,94.0
371,87.1578964875,87.771865725,59.0,67.0
372,87.5990719875,87.81782150625,62.0,111.0
373,87.5990719875,88.036571025,67.0,114.0
374,87.5990719875,88.04392394999999,71.0,105.0
375,88.0402474875,88.16524721249999,62.0,82.0
376,88.4814229875,88.92443671875,57.0,94.0
377,88.4814229875,89.00715712499999,60.0,100.0
378,89.1431862375,89.21487725624999,57.0,69.0
379,88.9225984875,89.4998031,52.0,69.0
380,89.3637739875,89.705685,64.0,102.0
381,89.3637739875,89.70752323125,60.0,108.0
382,89.3637739875,89.7350967,57.0,105.0
383,88.4814229875,90.13399288125,45.0,105.0
384,89.8049494875,90.1652428125,52.0,80.0
385,90.0255372375,90.17443396875,57.0,97.0
386,90.2461249875,90.742447425,57.0,100.0
387,90.2461249875,90.75531504375,64.0,94.0
388,90.2461249875,90.76634443124999,60.0,102.0
389,90.9078882375,91.01450565,57.0,87.0
390,90.6873004875,91.18178469375,52.0,50.0
391,91.1284759875,91.35825489375,57.0,117.0
392,91.1284759875,91.39134305625,64.0,105.0
393,90.2461249875,91.39501951874999,45.0,94.0
394,91.1284759875,91.40604890624999,60.0,114.0
395,91.3490637375,91.45016645625,52.0,114.0
396,91.5696514875,91.8343567875,57.0,117.0
397,91.7902392375,91.92259188749999,60.0,94.0
398,92.0108269875,92.418914325,64.0,105.0
399,92.0108269875,92.45384071875,60.0,87.0
400,92.4520024875,92.95383961875,55.0,84.0
401,92.8931779875,93.1468539,60.0,105.0
402,92.8931779875,93.17994206249999,64.0,102.0
403,92.8931779875,93.20383906875,67.0,114.0
404,92.0108269875,93.21119199374999,48.0,102.0
405,93.1137657375,93.36744165,55.0,97.0
406,93.3343534875,93.59170586249999,60.0,105.0
407,93.5549412375,93.72222028125,64.0,108.0
408,93.7755289875,94.0292049,62.0,108.0
409,93.7755289875,94.08986653125,66.0,112.0
410,94.2167044875,94.2939102,62.0,94.0
411,93.9961167375,94.551262575,57.0,100.0
412,93.7755289875,94.74243862499999,50.0,108.0
413,94.4372922375,94.75162978125,62.0,114.0
414,94.4372922375,94.8343501875,66.0,116.0
415,94.6578799875,94.95383521875,57.0,111.0
416,94.8784677375,95.1946435125,62.0,111.0
417,94.8784677375,95.24059929375,66.0,79.0
418,95.0990554875,95.27920215,57.0,87.0
419,95.3196432375,95.40971656875,62.0,100.0
420,95.5402309875,96.09721505625,67.0,120.0
421,95.5402309875,96.139494375,64.0,111.0
422,95.9814064875,96.5586111,59.0,94.0
423,96.4225819875,96.7939047,71.0,108.0
424,96.4225819875,96.80861055,67.0,123.0
425,96.4225819875,96.81412524375,64.0,108.0
426,95.5402309875,97.16155094999999,52.0,111.0
427,96.8637574875,97.1799332625,59.0,82.0
428,97.0843452375,97.1946391125,64.0,97.0
429,97.3049329875,97.69647624375,64.0,80.0
430,97.3049329875,97.79022603749999,67.0,100.0
431,97.3049329875,97.79206426875,71.0,108.0
432,97.9666962375,98.07331365,71.0,100.0
433,97.9666962375,98.080666575,67.0,100.0
434,97.7461084875,98.18912221875,59.0,97.0
435,98.1872839875,98.45015105625,67.0,123.0
436,97.3049329875,98.4666951375,52.0,108.0
437,98.1872839875,98.52551853749999,71.0,117.0
438,98.4078717375,98.54022438749999,59.0,111.0
439,98.6284594875,98.977723425,69.0,108.0
440,99.0696349875,99.34720790624999,67.0,117.0
441,99.0696349875,99.7755157875,48.0,105.0
442,99.2902227375,99.77735401875,55.0,73.0
443,99.5108104875,99.77919225,60.0,100.0
444,99.7313982375,99.8711038125,64.0,100.0
445,99.9519859875,100.46485250625,62.0,100.0
446,99.9519859875,100.58985223124999,66.0,109.0
447,100.3931614875,100.70749903125,57.0,111.0
448,100.6137492375,100.7240431125,62.0,102.0
449,99.9519859875,100.81043998125,50.0,102.0
450,100.8343369875,101.3269829625,62.0,100.0
451,100.8343369875,101.36007112499999,67.0,108.0
452,101.4961002375,101.59720295625,62.0,78.0
453,101.2755124875,101.80859955,59.0,94.0
454,100.8343369875,101.8490406375,55.0,114.0
455,101.7166879875,101.98874621249999,62.0,105.0
456,101.7166879875,102.0990400875,67.0,105.0
457,101.9372757375,102.27918675,59.0,58.0
458,101.7166879875,102.29389259999999,71.0,102.0
459,102.1578634875,102.42440701875,62.0,111.0
460,102.3784512375,102.507127425,67.0,105.0
461,102.5990389875,103.021832175,57.0,92.0
462,102.5990389875,103.10087611875,60.0,92.0
463,103.2608022375,103.3858019625,57.0,102.0
464,103.0402144875,103.60822794375,52.0,100.0
465,103.4813899875,103.95749188125,57.0,97.0
466,103.4813899875,103.9593301125,60.0,117.0
467,103.4813899875,103.96852126875,64.0,111.0
468,102.5990389875,104.2534471125,45.0,100.0
469,103.9225654875,104.2755058875,52.0,80.0
470,104.1431532375,104.38028506875,57.0,62.0
471,104.1431532375,104.7350637,64.0,102.0
472,104.1431532375,104.87660750625,60.0,97.0
473,104.1431532375,104.8784457375,69.0,92.0
474,104.8049164875,105.13395988125,57.0,80.0
475,104.5843287375,105.34168001249999,52.0,80.0
476,105.2460919875,105.51263551875,57.0,111.0
477,105.2460919875,105.55675306875,64.0,108.0
478,105.2460919875,105.5622677625,60.0,111.0
479,104.3637409875,105.7681496625,45.0,89.0
480,105.4666797375,105.82881129375,52.0,87.0
481,105.6872674875,105.94461986249999,57.0,114.0
482,105.9078552375,106.03101673124999,60.0,94.0
483,106.1284429875,106.58616256875,60.0,84.0
484,106.1284429875,106.65233889375,64.0,97.0
485,106.7902062375,106.8857942625,60.0,97.0
486,106.5696184875,107.07145561875,55.0,76.0
487,107.0107939875,107.26814636249999,60.0,120.0
488,107.0107939875,107.31042568125,64.0,117.0
489,106.1284429875,107.64314553749999,48.0,105.0
490,107.4519694875,107.73689533125,60.0,97.0
491,107.2313817375,107.7460864875,55.0,84.0
492,107.6725572375,107.82513043125,64.0,84.0
493,107.8931449875,108.15968851875,62.0,100.0
494,107.8931449875,108.2460853875,66.0,105.0
495,108.3343204875,108.42439381874999,62.0,84.0
496,108.1137327375,108.6137316375,57.0,82.0
497,107.8931449875,108.64498156875,50.0,105.0
498,108.5549082375,108.84534877499999,69.0,105.0
499,108.5549082375,108.85086346874999,62.0,114.0
500,108.5549082375,108.86924578125,66.0,109.0
501,108.7754959875,109.15233339375,57.0,102.0
502,108.9960837375,109.36189175625,62.0,114.0
503,108.9960837375,109.53468549374999,66.0,112.0
504,109.4372592375,109.53836195625,62.0,100.0
505,109.6578469875,110.13394888124999,60.0,102.0
506,109.6578469875,110.139463575,67.0,105.0
507,110.0990224875,110.418874725,55.0,60.0
508,110.3196102375,110.5916684625,60.0,108.0
509,110.3196102375,110.60269785,64.0,111.0
510,110.5401979875,110.88762369375,55.0,71.0
511,110.7607857375,111.2938728,64.0,97.0
512,109.6578469875,111.3490197375,48.0,108.0
513,110.9813734875,111.36188735625,55.0,87.0
514,111.4225489875,111.90968026875,64.0,111.0
515,111.4225489875,111.92806258124999,67.0,100.0
516,111.2019612375,111.9299008125,60.0,108.0
517,112.0843122375,112.20195903749999,60.0,55.0
518,112.0843122375,112.2093119625,64.0,71.0
519,112.0843122375,112.21115019375,67.0,73.0
520,111.8637244875,112.3784292375,55.0,73.0
521,112.3048999875,112.53100243125,60.0,108.0
522,112.3048999875,112.59350229374999,67.0,105.0
523,112.3048999875,112.60820814374999,64.0,108.0
524,112.7460754875,113.11188350625,60.0,114.0
525,112.9666632375,113.13761874375,64.0,82.0
526,111.4225489875,113.18173629374999,48.0,102.0
527,112.5254877375,113.183574525,55.0,92.0
528,113.1872509875,113.7019557375,67.0,108.0
529,113.1872509875,113.7460732875,64.0,97.0
530,113.6284264875,114.15232239375,59.0,84.0
531,114.0696019875,114.3416602125,64.0,111.0
532,114.0696019875,114.360042525,71.0,108.0
533,114.0696019875,114.36555721875,67.0,117.0
534,113.1872509875,114.389454225,52.0,108.0
535,114.2901897375,114.42438061874999,59.0,87.0
536,114.5107774875,114.62107136249999,64.0,89.0
537,114.7313652375,115.20746713125,64.0,108.0
538,114.7313652375,115.2644523,67.0,111.0
539,115.3931284875,115.62658385625,64.0,80.0
540,115.1725407375,115.9004803125,59.0,78.0
541,115.8343039875,116.06408289375,64.0,111.0
542,114.9519529875,116.1063622125,52.0,102.0
543,115.8343039875,116.1063622125,67.0,117.0
544,115.8343039875,116.14864153125,71.0,108.0
545,116.0548917375,116.1651856125,59.0,102.0
546,116.4960672375,116.58614056875,67.0,80.0
547,116.2754794875,116.58981703124999,64.0,114.0
548,116.7166549875,117.036507225,60.0,111.0
549,116.7166549875,117.14496286875,64.0,114.0
550,117.1578304875,117.44275633125,60.0,84.0
551,116.7166549875,117.44643279374999,48.0,102.0
552,116.9372427375,117.49422680625,55.0,67.0
553,117.3784182375,117.5254767375,64.0,89.0
554,117.5990059875,117.86738774999999,62.0,100.0
555,117.5990059875,118.07143141875,66.0,109.0
556,118.04018148749999,118.33613671875,62.0,100.0
557,118.2607692375,118.3526808,66.0,105.0
558,117.5990059875,118.39128365625,50.0,94.0
559,117.8195937375,118.39679835,57.0,80.0
560,118.48135698749999,119.00157643125,67.0,78.0
561,118.48135698749999,119.0291499,62.0,87.0
562,118.48135698749999,119.4666489375,55.0,100.0
563,118.92253248749999,119.4666489375,59.0,84.0
564,119.36370798749999,119.5842957375,62.0,114.0
565,119.36370798749999,119.61186920624999,67.0,117.0
566,119.36370798749999,119.6651779125,71.0,105.0
567,119.5842957375,119.70745723124999,59.0,82.0
568,119.80488348749999,119.933559675,62.0,114.0
569,120.24605898749999,120.712969725,60.0,97.0
570,120.24605898749999,120.71848441875,57.0,105.0
571,120.9078222375,121.0034102625,57.0,84.0
572,120.68723448749999,121.1872333875,52.0,66.0
573,121.12840998749999,121.35818889375,57.0,114.0
574,121.12840998749999,121.43907106875,64.0,97.0
575,121.56958548749999,121.6945852125,57.0,80.0
576,120.24605898749999,121.89495241875,45.0,105.0
577,121.3489977375,121.90598180625,52.0,73.0
578,121.7901732375,122.24789281874999,57.0,111.0
579,121.7901732375,122.32877499375,60.0,105.0
580,122.45193648749999,122.55855389999999,57.0,92.0
581,122.2313487375,122.80671511874999,52.0,76.0
582,122.6725242375,123.20744953124999,60.0,111.0
583,122.6725242375,123.2313465375,57.0,111.0
584,123.33428748749999,123.50524299375,57.0,108.0
585,122.89311198749999,123.52362530625,52.0,84.0
586,123.33428748749999,123.53833115625,60.0,111.0
587,123.33428748749999,123.54568408125,64.0,105.0
588,122.01076098749999,123.60266924999999,45.0,94.0
589,123.77546298749999,123.9151685625,57.0,71.0
590,123.77546298749999,124.42803508125,59.0,69.0
591,123.77546298749999,124.50891725625,55.0,78.0
592,124.21663848749999,124.78832840625,50.0,78.0
593,124.65781398749999,124.92619574999999,55.0,108.0
594,124.65781398749999,124.9372251375,59.0,117.0
595,124.65781398749999,124.96847506875,62.0,111.0
596,123.77546298749999,124.977666225,43.0,92.0
597,124.8784017375,125.01259261874999,50.0,92.0
598,125.09898948749999,125.34163601249999,55.0,100.0
599,125.3195772375,125.4960474375,57.0,102.0
600,125.54016498749999,125.8416349125,59.0,108.0
601,125.98134048749999,126.07325205,59.0,89.0
602,126.2019282375,126.27913395,65.0,94.0
603,126.2019282375,126.31773680625,66.0,79.0
604,126.2019282375,126.32508973124999,63.0,109.0
605,126.2019282375,126.3269279625,59.0,105.0
606,125.54016498749999,126.6945742125,47.0,105.0
607,126.42251598749999,126.71111829374999,59.0,111.0
608,126.42251598749999,126.73317706875,63.0,109.0
609,126.42251598749999,126.76626523124999,66.0,96.0
610,126.6431037375,126.81773570624999,54.0,72.0
611,126.86369148749999,127.1798672625,59.0,114.0
612,127.0842792375,127.21295542499999,63.0,109.0
613,127.30486698749999,127.5769252125,59.0,87.0
614,127.30486698749999,127.6872190875,64.0,80.0
615,127.74604248749999,128.3342764875,59.0,89.0
616,128.1872179875,128.5585407,64.0,114.0
617,128.1872179875,128.56773185625,67.0,127.0
618,127.30486698749999,128.86920178124998,52.0,102.0
619,128.6283934875,128.96111334375,59.0,73.0
620,128.8489812375,129.24420095624998,64.0,111.0
621,128.8489812375,129.31956843749998,67.0,117.0
622,128.8489812375,129.39677415,71.0,111.0
623,129.5107444875,129.610008975,64.0,73.0
624,129.7313322375,129.84714080625,64.0,111.0
625,129.7313322375,129.86184665625,67.0,108.0
626,129.29015673749998,129.9151553625,59.0,82.0
627,129.0695689875,129.99052284375,52.0,105.0
628,129.9519199875,130.2055959,64.0,120.0
629,129.9519199875,130.2386840625,67.0,120.0
630,130.17250773749998,130.2828016125,59.0,102.0
631,130.3930954875,130.5401539875,64.0,111.0
632,130.6136832375,130.73316826875,67.0,73.0
633,130.8342709875,131.2313289375,60.0,89.0
634,130.8342709875,131.301181725,67.0,100.0
635,130.8342709875,131.51993124375,48.0,102.0
636,131.2754464875,131.56221056249998,55.0,84.0
637,131.4960342375,131.60081341875,60.0,108.0
638,131.7166219875,131.992356675,62.0,100.0
639,131.7166219875,132.17434156875,66.0,87.0
640,131.93720973749998,132.3563264625,57.0,82.0
641,132.1577974875,132.462943875,62.0,84.0
642,132.3783852375,132.50154673125,66.0,109.0
643,131.7166219875,132.52544373749998,50.0,100.0
644,132.5989729875,133.0475014125,62.0,102.0
645,132.5989729875,133.10081011875,67.0,105.0
646,133.2607362375,133.36551541875,62.0,73.0
647,133.0401484875,133.565882625,59.0,71.0
648,132.5989729875,133.60448548125,55.0,108.0
649,133.4813239875,133.7349999,62.0,108.0
650,133.70191173749998,133.815882075,59.0,87.0
651,133.4813239875,133.8710290125,71.0,108.0
652,133.4813239875,133.94455826249998,67.0,111.0
653,133.9224994875,134.04566098125,62.0,108.0
654,134.3636749875,134.88389443124998,60.0,92.0
655,134.3636749875,134.977644225,57.0,97.0
656,134.8048504875,135.3489669375,52.0,69.0
657,135.2460259875,135.48499605,60.0,120.0
658,135.2460259875,135.51440775,64.0,105.0
659,135.2460259875,135.53095183125,57.0,108.0
660,134.3636749875,135.79933359375,45.0,105.0
661,135.6872014875,135.9298480125,52.0,87.0
662,135.9077892375,136.3416118125,57.0,102.0
663,135.9077892375,136.3930822875,60.0,67.0
664,135.9077892375,136.4739644625,64.0,97.0
665,136.5695524875,136.71844921874998,57.0,92.0
666,136.7901402375,136.87653710625,57.0,53.0
667,136.7901402375,136.88021356875,60.0,94.0
668,136.34896473749998,137.06771315625,52.0,80.0
669,137.0107279875,137.31219791249998,64.0,105.0
670,137.0107279875,137.315874375,57.0,108.0
671,137.0107279875,137.3269037625,60.0,111.0
672,137.23131573749998,137.40410947499998,52.0,87.0
673,136.1283769875,137.42065355625,45.0,92.0
674,137.4519034875,137.5989619875,57.0,105.0
675,137.4519034875,137.60080021874998,60.0,87.0
676,137.8930789875,138.17065190625,59.0,97.0
677,137.8930789875,138.19271068125,63.0,99.0
678,138.3342544875,138.507048225,63.0,105.0
679,138.3342544875,138.53829815625,66.0,63.0
680,138.3342544875,138.5769010125,59.0,105.0
681,137.8930789875,139.051164675,47.0,102.0
682,138.99601773749998,139.15778208749998,51.0,28.0
683,138.7754299875,139.18535555625,59.0,114.0
684,138.7754299875,139.19638494375,71.0,100.0
685,138.7754299875,139.23682603125,63.0,116.0
686,138.7754299875,139.2460171875,66.0,109.0
687,139.2166054875,139.536457725,54.0,79.0
688,139.4371932375,139.5621929625,59.0,114.0
689,139.6577809875,139.962927375,63.0,109.0
690,139.6577809875,139.96476560624998,71.0,92.0
691,139.6577809875,139.98314791875,66.0,99.0
692,139.6577809875,139.98498615,59.0,92.0
693,140.0989564875,140.31035308124999,63.0,65.0
694,140.0989564875,140.3195442375,66.0,61.0
695,140.0989564875,140.3268971625,71.0,78.0
696,140.0989564875,140.33241185625,59.0,62.0
697,140.5401319875,141.330571425,59.0,120.0
698,140.5401319875,141.345277275,63.0,116.0
699,140.5401319875,141.34895373749998,66.0,105.0
700,140.9813074875,141.3563066625,54.0,82.0
701,140.5401319875,141.37285074375,71.0,100.0
702,139.6577809875,141.3857183625,47.0,100.0
703,141.4224829875,141.8857172625,67.0,102.0
704,141.4224829875,141.89858488125,64.0,97.0
705,141.8636584875,142.551156975,59.0,67.0
706,142.3048339875,142.73865656249998,64.0,114.0
707,142.3048339875,142.75887710625,71.0,114.0
708,141.4224829875,143.04196471875,52.0,100.0
709,142.7460094875,143.07137641875,59.0,73.0
710,142.9665972375,143.13755274375,64.0,108.0
711,143.1871849875,143.67063980625,64.0,92.0
712,143.1871849875,143.7055662,67.0,100.0
713,143.8489482375,143.92615394999999,64.0,57.0
714,143.6283604875,144.16328578124998,59.0,71.0
715,144.0695359875,144.60813774375,71.0,108.0
716,144.29012373749998,144.639387675,59.0,89.0
717,143.1871849875,144.66696114375,52.0,102.0
718,144.5107114875,144.84343134374998,64.0,100.0
719,144.7312992375,144.85446073125,67.0,67.0
720,144.9518869875,145.21291582499998,60.0,89.0
721,144.9518869875,145.3195332375,64.0,100.0
722,144.9518869875,145.63387078124998,48.0,89.0
723,145.3930624875,145.64122370625,60.0,100.0
724,145.17247473749998,145.69637064375,55.0,58.0
725,145.8342379875,146.2974722625,62.0,97.0
726,145.8342379875,146.301148725,66.0,102.0
727,145.8342379875,146.51070708749998,50.0,100.0
728,146.2754134875,146.580559875,57.0,50.0
729,146.7165889875,147.1871761875,64.0,89.0
730,146.7165889875,147.36364638749998,67.0,89.0
731,147.3783522375,147.46842556875,64.0,76.0
732,147.1577644875,147.66695454375,59.0,78.0
733,147.5989399875,147.8268806625,64.0,108.0
734,146.7165889875,148.02357140625,52.0,102.0
735,147.81952773749998,148.03460079375,59.0,92.0
736,147.5989399875,148.1283505875,71.0,102.0
737,148.0401154875,148.3121737125,64.0,97.0
738,148.2607032375,148.3526148,67.0,80.0
739,148.4812909875,149.04930444375,64.0,97.0
740,148.4812909875,149.12651015625,60.0,84.0
741,148.9224664875,149.42246538749998,55.0,69.0
742,149.3636419875,149.63202375,60.0,117.0
743,149.3636419875,149.70371476875,67.0,100.0
744,148.4812909875,149.8342291875,48.0,97.0
745,149.58422973749998,149.9371701375,55.0,87.0
746,149.8048174875,149.97577299374998,60.0,102.0
747,150.2459929875,150.81400644375,66.0,102.0
748,150.2459929875,150.845256375,62.0,97.0
749,151.1283439875,151.315843575,62.0,105.0
750,151.1283439875,151.60076941875,66.0,112.0
751,151.1283439875,151.69084275,69.0,102.0
752,150.6871684875,151.75518084375,57.0,92.0
753,150.2459929875,151.84341594375,50.0,102.0
754,151.5695194875,151.85628356249998,62.0,89.0
755,152.0106949875,152.53642912499998,62.0,97.0
756,152.0106949875,152.75517864374999,67.0,97.0
757,152.6724582375,152.79194326875,62.0,84.0
758,152.4518704875,152.98495755,59.0,66.0
759,152.0106949875,153.036428025,55.0,94.0
760,152.8930459875,153.1467219,62.0,114.0
761,153.11363373749998,153.25701577499999,59.0,89.0
762,152.8930459875,153.38753019375,71.0,102.0
763,153.3342214875,153.48679468125,62.0,105.0
764,153.7753969875,154.04377875,66.0,45.0
765,153.7753969875,154.4959836375,59.0,92.0
766,154.2165724875,154.74046839375,54.0,85.0
767,154.6577479875,155.095247025,59.0,111.0
768,153.7753969875,155.1467175,47.0,102.0
769,155.0989234875,155.22392321249998,54.0,93.0
770,154.6577479875,155.4114228,66.0,96.0
771,154.6577479875,155.448187425,63.0,109.0
772,155.3195112375,155.5474519125,59.0,111.0
773,155.5400989875,156.09708305625,60.0,102.0
774,155.5400989875,156.0989212875,67.0,97.0
775,155.9812744875,156.4996557,55.0,87.0
776,155.5400989875,156.6467142,48.0,100.0
777,156.4224499875,156.8525961,60.0,102.0
778,156.4224499875,157.021713375,64.0,105.0
779,156.8636254875,157.12649255624999,55.0,87.0
780,157.0842132375,157.212889425,60.0,87.0
781,157.3048009875,157.70921186249998,66.0,82.0
782,157.3048009875,157.74965294999998,62.0,84.0
783,157.7459764875,158.242298925,57.0,87.0
784,158.1871519875,158.4445043625,62.0,105.0
785,158.1871519875,158.49781306875,69.0,105.0
786,158.1871519875,158.507004225,66.0,109.0
787,158.6283274875,158.86729755,62.0,102.0
788,158.40773973749998,158.88384163125,57.0,87.0
789,157.3048009875,158.88567986249998,50.0,97.0
790,159.0695029875,159.31398774375,62.0,108.0
791,159.0695029875,159.55479603749998,67.0,105.0
792,159.5106784875,159.66692814375,62.0,105.0
793,159.0695029875,159.71656038749998,55.0,94.0
794,159.9518539875,160.2055299,62.0,108.0
795,159.9518539875,160.44266173124998,66.0,109.0
796,160.3930294875,160.5621467625,62.0,94.0
797,159.9518539875,160.63383778125,50.0,97.0
798,160.8342049875,161.39118905625,64.0,97.0
799,160.8342049875,161.45001245625,67.0,97.0
800,161.2753804875,161.742291225,59.0,80.0
801,161.7165559875,161.91692319375,64.0,114.0
802,161.7165559875,162.07868754375,71.0,105.0
803,160.8342049875,162.1650844125,52.0,105.0
804,161.9371437375,162.17427556875,59.0,94.0
805,162.1577314875,162.33971638124999,64.0,97.0
806,162.5989069875,163.2091997625,64.0,97.0
807,162.5989069875,163.30846425,60.0,92.0
808,163.0400824875,163.56397839375,55.0,80.0
809,163.4812579875,163.86728655,60.0,102.0
810,163.4812579875,163.97941865625,67.0,97.0
811,162.5989069875,164.1466977,48.0,100.0
812,163.9224334875,164.227579875,55.0,76.0
813,164.1430212375,164.26618273124998,60.0,92.0
814,164.3636089875,164.82500503125,66.0,54.0
815,164.3636089875,164.830519725,62.0,87.0
816,165.0253722375,165.13015141875,62.0,78.0
817,164.8047844875,165.3525774,57.0,87.0
818,164.3636089875,165.51801821249998,50.0,105.0
819,165.2459599875,165.7239001125,62.0,108.0
820,165.2459599875,165.756988275,66.0,105.0
821,165.6871354875,165.95735548125,50.0,100.0
822,166.1283109875,166.7827213125,67.0,97.0
823,166.1283109875,166.80845655,64.0,89.0
824,166.5694864875,167.11911763125,59.0,80.0
825,166.1283109875,167.352573,52.0,102.0
826,167.0106619875,167.42426401875,64.0,102.0
827,167.0106619875,167.492278575,67.0,114.0
828,167.0106619875,167.521690275,71.0,111.0
829,167.4518374875,167.73676333125,59.0,84.0
830,167.6724252375,167.77720441875,64.0,82.0
831,167.8930129875,168.00882155624998,59.0,97.0
832,167.8930129875,168.00882155624998,64.0,92.0
833,167.8930129875,168.01249801875,67.0,102.0
834,167.8930129875,168.0253656375,52.0,105.0
835,168.1136007375,168.3819825,64.0,97.0
836,168.1136007375,168.38933542499998,67.0,102.0
837,168.1136007375,168.39852658125,59.0,105.0
838,168.1136007375,168.4224235875,52.0,100.0
839,168.7753639875,169.051098675,64.0,97.0
840,168.7753639875,169.10808384375,71.0,100.0
841,168.7753639875,169.12830438749998,67.0,102.0
842,168.7753639875,169.35073036875,52.0,111.0
843,169.2165394875,169.36911268125,64.0,114.0
844,168.9959517375,169.37278914375,59.0,100.0
845,169.4371272375,169.5878622,64.0,58.0
846,169.4371272375,169.58970043124998,67.0,111.0
847,169.6577149875,169.83786165,64.0,102.0
848,169.6577149875,170.10072871875,67.0,114.0
849,170.0988904875,170.31028708124998,64.0,94.0
850,170.5400659875,170.64484516874998,64.0,120.0
851,170.5400659875,170.81763890624998,71.0,114.0
852,170.7606537375,170.88381523125,64.0,100.0
853,170.9812414875,171.09705005625,67.0,111.0
854,169.6577149875,171.124623525,52.0,120.0
855,171.2018292375,171.32866719375,64.0,73.0
856,171.4224169875,171.683445825,64.0,97.0
857,171.4224169875,171.71469575625,67.0,100.0
858,172.0841802375,172.11175370625,67.0,55.0
859,171.8635924875,172.154033025,64.0,82.0
860,171.6430047375,172.42057655624998,59.0,35.0
861,172.3047679875,172.565796825,71.0,111.0
862,172.3047679875,172.56763505625,64.0,111.0
863,172.3047679875,172.580502675,67.0,114.0
864,171.4224169875,172.6356496125,52.0,97.0
865,172.5253557375,172.68895831875,59.0,102.0
866,172.7459434875,173.0621192625,64.0,111.0
867,172.9665312375,173.07314865,67.0,50.0
868,173.18711898749999,173.448147825,60.0,105.0
869,173.18711898749999,173.51248591875,64.0,117.0
870,173.6282944875,173.88564686249998,60.0,97.0
871,173.18711898749999,173.89667624999998,48.0,102.0
872,173.4077067375,173.9518231875,55.0,89.0
873,173.8488822375,173.99777896875,64.0,84.0
874,174.06946998749999,174.35439583125,62.0,102.0
875,174.06946998749999,174.54373365,66.0,112.0
876,174.5106454875,174.786380175,62.0,102.0
877,174.7312332375,174.8415271125,66.0,99.0
878,174.2900577375,174.8635858875,57.0,92.0
879,174.06946998749999,174.88012996875,50.0,102.0
880,174.95182098749999,175.4812315875,67.0,105.0
881,174.95182098749999,175.52718736875,62.0,94.0
882,174.95182098749999,175.948142325,55.0,94.0
883,175.3929964875,176.006965725,59.0,67.0
884,175.83417198749999,176.05292150625,62.0,111.0
885,175.83417198749999,176.271671025,67.0,114.0
886,175.83417198749999,176.27902394999998,71.0,105.0
887,176.2753474875,176.40034721249998,62.0,82.0
888,176.71652298749999,177.15953671875,57.0,94.0
889,176.71652298749999,177.24225712499998,60.0,100.0
890,177.3782862375,177.44997725624998,57.0,69.0
891,177.1576984875,177.7349031,52.0,69.0
892,177.59887398749999,177.940785,64.0,102.0
893,177.59887398749999,177.94262323125,60.0,108.0
894,177.59887398749999,177.9701967,57.0,105.0
895,176.71652298749999,178.36909288125,45.0,105.0
896,178.0400494875,178.40034281249999,52.0,80.0
897,178.2606372375,178.40953396875,57.0,97.0
898,178.48122498749998,178.97754742499998,57.0,100.0
899,178.48122498749998,178.99041504375,64.0,94.0
900,178.48122498749998,179.00144443125,60.0,102.0
901,179.1429882375,179.24960565,57.0,87.0
902,178.9224004875,179.41688469375,52.0,50.0
903,179.36357598749998,179.59335489375,57.0,117.0
904,179.36357598749998,179.62644305625,64.0,105.0
905,178.48122498749998,179.63011951875,45.0,94.0
906,179.36357598749998,179.64114890624998,60.0,114.0
907,179.5841637375,179.68526645625,52.0,114.0
908,179.8047514875,180.0694567875,57.0,117.0
909,180.0253392375,180.1576918875,60.0,94.0
910,180.24592698749998,180.654014325,64.0,105.0
911,180.24592698749998,180.68894071875,60.0,87.0
912,180.6871024875,181.18893961875,55.0,84.0
913,181.12827798749998,181.38195389999998,60.0,105.0
914,181.12827798749998,181.4150420625,64.0,102.0
915,181.12827798749998,181.43893906875,67.0,114.0
916,180.24592698749998,181.44629199374998,48.0,102.0
917,181.3488657375,181.60254165,55.0,97.0
918,181.5694534875,181.82680586249998,60.0,105.0
919,181.7900412375,181.95732028125,64.0,108.0
920,182.01062898749998,182.26430489999998,62.0,108.0
921,182.01062898749998,182.32496653125,66.0,112.0
922,182.4518044875,182.5290102,62.0,94.0
923,182.2312167375,182.786362575,57.0,100.0
924,182.01062898749998,182.977538625,50.0,108.0
925,182.6723922375,182.98672978125,62.0,114.0
926,182.6723922375,183.0694501875,66.0,116.0
927,182.89297998749998,183.18893521875,57.0,111.0
928,183.1135677375,183.42974351249998,62.0,111.0
929,183.1135677375,183.47569929374998,66.0,79.0
930,183.3341554875,183.51430215,57.0,87.0
931,183.5547432375,183.64481656875,62.0,100.0
932,183.77533098749998,184.33231505625,67.0,120.0
933,183.77533098749998,184.374594375,64.0,111.0
934,184.2165064875,184.7937111,59.0,94.0
935,184.65768198749998,185.0290047,71.0,108.0
936,184.65768198749998,185.04371055,67.0,123.0
937,184.65768198749998,185.04922524375,64.0,108.0
938,183.77533098749998,185.39665094999998,52.0,111.0
939,185.0988574875,185.4150332625,59.0,82.0
940,185.3194452375,185.4297391125,64.0,97.0
941,185.54003298749998,185.93157624375,64.0,80.0
942,185.54003298749998,186.02532603749998,67.0,100.0
943,185.54003298749998,186.02716426875,71.0,108.0
944,186.2017962375,186.30841365,71.0,100.0
945,186.2017962375,186.315766575,67.0,100.0
946,185.9812084875,186.42422221875,59.0,97.0
947,186.42238398749998,186.68525105625,67.0,123.0
948,185.54003298749998,186.7017951375,52.0,108.0
949,186.42238398749998,186.7606185375,71.0,117.0
950,186.6429717375,186.7753243875,59.0,111.0
951,186.8635594875,187.21282342499998,69.0,108.0
952,187.30473498749998,187.58230790624998,67.0,117.0
953,187.30473498749998,188.0106157875,48.0,105.0
954,187.5253227375,188.01245401875,55.0,73.0
955,187.7459104875,188.01429224999998,60.0,100.0
956,187.9664982375,188.10620381249998,64.0,100.0
957,188.18708598749998,188.69995250624999,62.0,100.0
958,188.18708598749998,188.82495223125,66.0,109.0
959,188.6282614875,188.94259903124998,57.0,111.0
960,188.8488492375,188.9591431125,62.0,102.0
961,188.18708598749998,189.04553998125,50.0,102.0
962,189.06943698749998,189.5620829625,62.0,100.0
963,189.06943698749998,189.595171125,67.0,108.0
964,189.7312002375,189.83230295625,62.0,78.0
965,189.5106124875,190.04369954999999,59.0,94.0
966,189.06943698749998,190.08414063749998,55.0,114.0
967,189.95178798749998,190.2238462125,62.0,105.0
968,189.95178798749998,190.3341400875,67.0,105.0
969,190.1723757375,190.51428675,59.0,58.0
970,189.95178798749998,190.52899259999998,71.0,102.0
971,190.3929634875,190.65950701875,62.0,111.0
972,190.6135512375,190.74222742499998,67.0,105.0
973,190.83413898749998,191.256932175,57.0,92.0
974,190.83413898749998,191.33597611874998,60.0,92.0
975,191.4959022375,191.6209019625,57.0,102.0
976,191.2753144875,191.84332794374998,52.0,100.0
977,191.71648998749998,192.19259188125,57.0,97.0
978,191.71648998749998,192.1944301125,60.0,117.0
979,191.71648998749998,192.20362126875,64.0,111.0
980,190.83413898749998,192.4885471125,45.0,100.0
981,192.1576654875,192.5106058875,52.0,80.0
982,192.3782532375,192.61538506875,57.0,62.0
983,192.3782532375,192.9701637,64.0,102.0
984,192.3782532375,193.11170750624999,60.0,97.0
985,192.3782532375,193.1135457375,69.0,92.0
986,193.0400164875,193.36905988125,57.0,80.0
987,192.8194287375,193.5767800125,52.0,80.0
988,193.48119198749998,193.74773551875,57.0,111.0
989,193.48119198749998,193.79185306875,64.0,108.0
990,193.48119198749998,193.7973677625,60.0,111.0
991,192.59884098749998,194.0032496625,45.0,89.0
992,193.7017797375,194.06391129374998,52.0,87.0
993,193.9223674875,194.17971986249998,57.0,114.0
994,194.1429552375,194.26611673124998,60.0,94.0
995,194.36354298749998,194.82126256875,60.0,84.0
996,194.36354298749998,194.88743889375,64.0,97.0
997,195.0253062375,195.1208942625,60.0,97.0
998,194.8047184875,195.30655561875,55.0,76.0
999,195.24589398749998,195.5032463625,60.0,120.0
1000,195.24589398749998,195.54552568124998,64.0,117.0
1001,194.36354298749998,195.8782455375,48.0,105.0
1002,195.6870694875,195.97199533124999,60.0,97.0
1003,195.4664817375,195.9811864875,55.0,84.0
1004,195.9076572375,196.06023043125,64.0,84.0
1005,196.12824498749998,196.39478851875,62.0,100.0
1006,196.12824498749998,196.4811853875,66.0,105.0
1007,196.5694204875,196.65949381874998,62.0,84.0
1008,196.3488327375,196.84883163749998,57.0,82.0
1009,196.12824498749998,196.88008156875,50.0,105.0
1010,196.7900082375,197.08044877499998,69.0,105.0
1011,196.7900082375,197.08596346874998,62.0,114.0
1012,196.7900082375,197.10434578125,66.0,109.0
1013,197.01059598749998,197.38743339375,57.0,102.0
1014,197.2311837375,197.59699175625,62.0,114.0
1015,197.2311837375,197.76978549375,66.0,112.0
1016,197.6723592375,197.77346195625,62.0,100.0
1017,197.89294698749998,198.36904888125,60.0,102.0
1018,197.89294698749998,198.374563575,67.0,105.0
1019,198.3341224875,198.65397472499998,55.0,60.0
1020,198.5547102375,198.82676846249998,60.0,108.0
1021,198.5547102375,198.83779785,64.0,111.0
1022,198.77529798749998,199.12272369375,55.0,71.0
1023,198.9958857375,199.5289728,64.0,97.0
1024,197.89294698749998,199.5841197375,48.0,108.0
1025,199.2164734875,199.59698735625,55.0,87.0
1026,199.65764898749998,200.14478026875,64.0,111.0
1027,199.65764898749998,200.16316258125,67.0,100.0
1028,199.4370612375,200.16500081249998,60.0,108.0
1029,200.3194122375,200.4370590375,60.0,55.0
1030,200.3194122375,200.4444119625,64.0,71.0
1031,200.3194122375,200.44625019375,67.0,73.0
1032,200.0988244875,200.6135292375,55.0,73.0
1033,200.53999998749998,200.76610243125,60.0,108.0
1034,200.53999998749998,200.82860229374998,67.0,105.0
1035,200.53999998749998,200.84330814375,64.0,108.0
1036,200.9811754875,201.34698350624998,60.0,114.0
1037,201.2017632375,201.37271874375,64.0,82.0
1038,199.65764898749998,201.41683629374998,48.0,102.0
1039,200.7605877375,201.418674525,55.0,92.0
1040,201.42235098749998,201.60249765,64.0,102.0
1041,201.42235098749998,201.86536471875,67.0,114.0
1042,201.8635264875,202.07492308125,64.0,94.0
1043,202.30470198749998,202.40948116875,64.0,120.0
1044,202.30470198749998,202.58227490625,71.0,114.0
1045,202.5252897375,202.64845123125,64.0,100.0
1046,202.7458774875,202.86168605625,67.0,111.0
1047,201.42235098749998,202.889259525,52.0,120.0
1048,202.9664652375,203.09330319375,64.0,73.0
1049,203.18705298749998,203.448081825,64.0,97.0
1050,203.18705298749998,203.47933175625,67.0,100.0
1051,203.8488162375,203.87638970625,67.0,55.0
1052,203.6282284875,203.91866902499999,64.0,82.0
1053,203.4076407375,204.18521255624998,59.0,35.0
1054,204.06940398749998,204.330432825,71.0,111.0
1055,204.06940398749998,204.33227105625,64.0,111.0
1056,204.06940398749998,204.345138675,67.0,114.0
1057,203.18705298749998,204.4002856125,52.0,97.0
1058,204.2899917375,204.45359431875,59.0,102.0
1059,204.5105794875,204.8267552625,64.0,111.0
1060,204.7311672375,204.83778465,67.0,50.0
1061,204.95175498749998,205.212783825,60.0,105.0
1062,204.95175498749998,205.27712191875,64.0,117.0
1063,205.3929304875,205.6502828625,60.0,97.0
1064,204.95175498749998,205.66131224999998,48.0,102.0
1065,205.1723427375,205.7164591875,55.0,89.0
1066,205.6135182375,205.76241496875,64.0,84.0
1067,205.83410598749998,206.11903183125,62.0,102.0
1068,205.83410598749998,206.30836965,66.0,112.0
1069,206.2752814875,206.551016175,62.0,102.0
1070,206.4958692375,206.60616311249998,66.0,99.0
1071,206.0546937375,206.6282218875,57.0,92.0
1072,205.83410598749998,206.64476596875,50.0,102.0
1073,206.71645698749998,207.2458675875,67.0,105.0
1074,206.71645698749998,207.29182336875,62.0,94.0
1075,206.71645698749998,207.712778325,55.0,94.0
1076,207.1576324875,207.77160172499998,59.0,67.0
1077,207.59880798749998,207.81755750624998,62.0,111.0
1078,207.59880798749998,208.03630702499999,67.0,114.0
1079,207.59880798749998,208.04365995,71.0,105.0
1080,208.0399834875,208.1649832125,62.0,82.0
1081,208.48115898749998,208.92417271875,57.0,94.0
1082,208.48115898749998,209.006893125,60.0,100.0
1083,209.1429222375,209.21461325625,57.0,69.0
1084,208.9223344875,209.4995391,52.0,69.0
1085,209.36350998749998,209.705421,64.0,102.0
1086,209.36350998749998,209.70725923125,60.0,108.0
1087,209.36350998749998,209.7348327,57.0,105.0
1088,208.48115898749998,210.13372888125,45.0,105.0
1089,209.8046854875,210.16497881249998,52.0,80.0
1090,210.0252732375,210.17416996875,57.0,97.0
1091,210.24586098749998,210.74218342499998,57.0,100.0
1092,210.24586098749998,210.75505104375,64.0,94.0
1093,210.24586098749998,210.76608043125,60.0,102.0
1094,210.9076242375,211.01424165,57.0,87.0
1095,210.6870364875,211.18152069375,52.0,50.0
1096,211.12821198749998,211.35799089374999,57.0,117.0
1097,211.12821198749998,211.39107905625,64.0,105.0
1098,210.24586098749998,211.39475551875,45.0,94.0
1099,211.12821198749998,211.40578490625,60.0,114.0
1100,211.3487997375,211.44990245625,52.0,114.0
1101,211.5693874875,211.8340927875,57.0,117.0
1102,211.7899752375,211.9223278875,60.0,94.0
1103,212.01056298749998,212.418650325,64.0,105.0
1104,212.01056298749998,212.45357671874999,60.0,87.0
1105,212.4517384875,212.95357561875,55.0,84.0
1106,212.89291398749998,213.14658989999998,60.0,105.0
1107,212.89291398749998,213.1796780625,64.0,102.0
1108,212.89291398749998,213.20357506874998,67.0,114.0
1109,212.01056298749998,213.21092799375,48.0,102.0
1110,213.1135017375,213.36717765,55.0,97.0
1111,213.3340894875,213.5914418625,60.0,105.0
1112,213.5546772375,213.72195628125,64.0,108.0
1113,213.77526498749998,214.02894089999998,62.0,108.0
1114,213.77526498749998,214.08960253125,66.0,112.0
1115,214.2164404875,214.29364619999998,62.0,94.0
1116,213.9958527375,214.550998575,57.0,100.0
1117,213.77526498749998,214.742174625,50.0,108.0
1118,214.4370282375,214.75136578125,62.0,114.0
1119,214.4370282375,214.8340861875,66.0,116.0
1120,214.65761598749998,214.95357121875,57.0,111.0
1121,214.8782037375,215.1943795125,62.0,111.0
1122,214.8782037375,215.24033529374998,66.0,79.0
1123,215.0987914875,215.27893815,57.0,87.0
1124,215.3193792375,215.40945256875,62.0,100.0
1125,215.53996698749998,216.09695105625,67.0,120.0
1126,215.53996698749998,216.13923037499998,64.0,111.0
1127,215.9811424875,216.5583471,59.0,94.0
1128,216.42231798749998,216.7936407,71.0,108.0
1129,216.42231798749998,216.80834654999998,67.0,123.0
1130,216.42231798749998,216.81386124374998,64.0,108.0
1131,215.53996698749998,217.16128695,52.0,111.0
1132,216.8634934875,217.1796692625,59.0,82.0
1133,217.0840812375,217.19437511249998,64.0,97.0
1134,217.30466898749998,217.69621224374998,64.0,80.0
1135,217.30466898749998,217.7899620375,67.0,100.0
1136,217.30466898749998,217.79180026875,71.0,108.0
1137,217.9664322375,218.07304965,71.0,100.0
1138,217.9664322375,218.080402575,67.0,100.0
1139,217.7458444875,218.18885821875,59.0,97.0
1140,218.18701998749998,218.44988705625,67.0,123.0
1141,217.30466898749998,218.4664311375,52.0,108.0
1142,218.18701998749998,218.5252545375,71.0,117.0
1143,218.4076077375,218.5399603875,59.0,111.0
1144,218.6281954875,218.977459425,69.0,108.0
1145,219.06937098749998,219.34694390625,67.0,117.0
1146,219.06937098749998,219.7752517875,48.0,105.0
1147,219.2899587375,219.77709001875,55.0,73.0
1148,219.5105464875,219.77892824999998,60.0,100.0
1149,219.7311342375,219.87083981249998,64.0,100.0
1150,219.95172198749998,220.46458850624998,62.0,100.0
1151,219.95172198749998,220.58958823125,66.0,109.0
1152,220.3928974875,220.70723503124998,57.0,111.0
1153,220.6134852375,220.72377911249998,62.0,102.0
1154,219.95172198749998,220.81017598124998,50.0,102.0
1155,220.83407298749998,221.3267189625,62.0,100.0
1156,220.83407298749998,221.359807125,67.0,108.0
1157,221.4958362375,221.59693895625,62.0,78.0
1158,221.2752484875,221.80833554999998,59.0,94.0
1159,220.83407298749998,221.84877663749998,55.0,114.0
1160,221.71642398749998,221.9884822125,62.0,105.0
1161,221.71642398749998,222.0987760875,67.0,105.0
1162,221.9370117375,222.27892275,59.0,58.0
1163,221.71642398749998,222.2936286,71.0,102.0
1164,222.1575994875,222.42414301875,62.0,111.0
1165,222.3781872375,222.506863425,67.0,105.0
1166,222.59877498749998,223.021568175,57.0,92.0
1167,222.59877498749998,223.10061211874998,60.0,92.0
1168,223.2605382375,223.3855379625,57.0,102.0
1169,223.0399504875,223.60796394374998,52.0,100.0
1170,223.48112598749998,223.95722788125,57.0,97.0
1171,223.48112598749998,223.95906611249998,60.0,117.0
1172,223.48112598749998,223.96825726875,64.0,111.0
1173,222.59877498749998,224.25318311249998,45.0,100.0
1174,223.9223014875,224.2752418875,52.0,80.0
1175,224.1428892375,224.38002106874998,57.0,62.0
1176,224.1428892375,224.7347997,64.0,102.0
1177,224.1428892375,224.87634350624998,60.0,97.0
1178,224.1428892375,224.8781817375,69.0,92.0
1179,224.8046524875,225.13369588125,57.0,80.0
1180,224.5840647375,225.3414160125,52.0,80.0
1181,225.24582798749998,225.51237151875,57.0,111.0
1182,225.24582798749998,225.55648906874998,64.0,108.0
1183,225.24582798749998,225.56200376249998,60.0,111.0
1184,224.36347698749998,225.7678856625,45.0,89.0
1185,225.4664157375,225.82854729375,52.0,87.0
1186,225.6870034875,225.9443558625,57.0,114.0
1187,225.9075912375,226.03075273125,60.0,94.0
1188,226.12817898749998,226.58589856875,60.0,84.0
1189,226.12817898749998,226.65207489374998,64.0,97.0
1190,226.7899422375,226.8855302625,60.0,97.0
1191,226.5693544875,227.07119161875,55.0,76.0
1192,227.01052998749998,227.2678823625,60.0,120.0
1193,227.01052998749998,227.31016168124998,64.0,117.0
1194,226.12817898749998,227.6428815375,48.0,105.0
1195,227.4517054875,227.73663133124998,60.0,97.0
1196,227.2311177375,227.7458224875,55.0,84.0
1197,227.67229323749999,227.82486643125,64.0,84.0
1198,227.89288098749998,228.15942451875,62.0,100.0
1199,227.89288098749998,228.2458213875,66.0,105.0
1200,228.3340564875,228.42412981875,62.0,84.0
1201,228.1134687375,228.61346763749998,57.0,82.0
1202,227.89288098749998,228.64471756875,50.0,105.0
1203,228.55464423749999,228.845084775,69.0,105.0
1204,228.55464423749999,228.85059946875,62.0,114.0
1205,228.55464423749999,228.86898178125,66.0,109.0
1206,228.77523198749998,229.15206939375,57.0,102.0
1207,228.9958197375,229.36162775625,62.0,114.0
1208,228.9958197375,229.53442149375,66.0,112.0
1209,229.43699523749999,229.53809795625,62.0,100.0
1210,229.6465536,229.889200125,64.0,97.0
1211,229.64839183125,229.92780298124998,59.0,105.0
1212,230.54361045,231.19985900625,64.0,94.0
1213,230.55096337499998,231.2090501625,59.0,97.0
1214,231.418608525,231.93515150624998,64.0,89.0
1215,231.4149320625,231.9664014375,59.0,82.0
1216,232.29544483125,232.52890019999998,55.0,105.0
1217,232.71456155625,233.08220780624998,55.0,87.0
1218,232.2825772125,233.08220780624998,64.0,105.0
1219,232.2899301375,233.08772249999998,59.0,114.0
1220,229.6465536,233.13367828124998,52.0,114.0
1221,233.18698698749998,233.51235391875,64.0,100.0
1222,233.18698698749998,233.72558874375,67.0,117.0
1223,234.06933798749998,234.25132288125,64.0,108.0
1224,233.18698698749998,234.33588151875,52.0,114.0
1225,234.06933798749998,234.5546310375,67.0,123.0
1226,234.06933798749998,234.5546310375,71.0,111.0
1227,234.5105134875,234.83588041874998,64.0,66.0
1228,234.95168898749998,235.3708057125,67.0,94.0
1229,234.95168898749998,235.3818351,64.0,89.0
1230,235.3928644875,235.92778978125,59.0,89.0
1231,235.83403998749998,236.0766865125,64.0,114.0
1232,235.83403998749998,236.0913923625,67.0,123.0
1233,234.95168898749998,236.1428628375,52.0,105.0
1234,236.0546277375,236.15573045624998,59.0,97.0
1235,236.2752154875,236.50499439375,64.0,111.0
1236,236.49580323749998,236.61896473125,67.0,89.0
1237,236.71639098749998,237.11161070625,60.0,108.0
1238,236.71639098749998,237.13734594374998,64.0,102.0
1239,236.71639098749998,237.22558104375,48.0,105.0
1240,237.1575664875,237.31013968124998,55.0,73.0
1241,237.5987419875,237.93146184375,66.0,105.0
1242,237.5987419875,237.9369765375,62.0,105.0
1243,237.5987419875,238.0031528625,50.0,102.0
1244,238.4810929875,238.98660658125,67.0,105.0
1245,238.4810929875,238.99028304375,62.0,94.0
1246,238.9222684875,239.41307623125,50.0,57.0
1247,239.3634439875,239.60057581875,67.0,117.0
1248,239.3634439875,239.60241405,62.0,108.0
1249,239.3634439875,239.65020806249998,71.0,105.0
1250,238.4810929875,239.67778153125,43.0,100.0
1251,239.5840317375,239.69984030625,50.0,92.0
1252,239.8046194875,239.96822206874998,62.0,117.0
1253,240.2457949875,240.9222640875,67.0,100.0
1254,240.2457949875,240.94983755625,64.0,82.0
1255,240.2457949875,241.34321904375,52.0,100.0
1256,241.1281459875,241.389174825,64.0,100.0
1257,241.1281459875,241.40939536874998,67.0,117.0
1258,241.3487337375,241.43329237499998,59.0,84.0
1259,241.1281459875,241.51233631875,71.0,108.0
1260,241.5693214875,241.7016741375,64.0,114.0
1261,242.0104969875,242.45534895,57.0,111.0
1262,242.0104969875,242.54358405,62.0,100.0
1263,242.4516724875,243.02336240625,54.0,82.0
1264,242.0104969875,243.10608281249998,47.0,100.0
1265,242.8928479875,243.25130308125,62.0,114.0
1266,242.8928479875,243.2641707,59.0,114.0
1267,242.8928479875,243.3046117875,66.0,112.0
1268,243.3340234875,243.4590232125,47.0,89.0
1269,243.7751989875,244.0288749,60.0,105.0
1270,243.7751989875,244.05644836874998,64.0,111.0
1271,244.2163744875,244.50865325625,60.0,94.0
1272,243.9957867375,244.72004984999998,55.0,58.0
1273,244.6575499875,244.85240249999998,60.0,117.0
1274,244.6575499875,244.90571120625,67.0,108.0
1275,243.7751989875,244.96269637499998,48.0,111.0
1276,244.8781377375,245.006813925,55.0,97.0
1277,245.0987254875,245.2310781375,60.0,114.0
1278,245.5399009875,245.68512125625,62.0,108.0
1279,245.5399009875,245.69063595,66.0,105.0
1280,245.5399009875,245.69615064375,57.0,100.0
1281,245.5399009875,245.70350356875,50.0,105.0
1282,245.7604887375,245.9222530875,57.0,111.0
1283,245.7604887375,245.95534125,66.0,105.0
1284,245.7604887375,245.95717948125,50.0,100.0
1285,245.7604887375,245.9700471,62.0,114.0
1286,246.4222519875,246.70717783125,57.0,100.0
1287,246.4222519875,246.8046040875,50.0,105.0
1288,246.4222519875,246.91305973125,66.0,87.0
1289,246.4222519875,246.92408911875,62.0,92.0
1290,246.4222519875,246.94247143125,69.0,92.0
1291,247.3046029875,250.53253706249998,59.0,89.0
1292,247.3046029875,250.66672794375,52.0,97.0
1293,247.3046029875,250.6759191,47.0,97.0
1294,247.3046029875,250.71084549374999,40.0,102.0
