,start,end,pitch,velocity
0,16.910705266666668,17.113830158333332,80.0,92.0
1,17.178562266666667,17.390615725,78.0,89.0
2,17.446419266666666,17.63838345,77.0,92.0
3,17.714276266666666,17.8928476,73.0,92.0
4,17.98213326666667,18.397311616666666,75.0,99.0
5,18.517847266666667,18.683025750000002,77.0,90.0
6,18.785704266666666,19.977667916666668,73.0,90.0
7,21.196417266666668,21.359363608333332,80.0,89.0
8,21.464274266666667,21.698649141666667,78.0,82.0
9,21.732131266666666,21.930791875,77.0,91.0
10,21.999988266666666,22.191952450000002,73.0,90.0
11,22.26784526666667,22.678559333333332,75.0,94.0
12,22.803559266666667,22.94418419166667,77.0,89.0
13,23.071416266666667,24.624986866666667,77.0,89.0
14,25.482129266666668,25.66293274166667,80.0,89.0
15,25.749986266666667,25.953111158333336,78.0,86.0
16,26.017843266666667,26.22543244166667,77.0,92.0
17,26.285700266666666,26.455343033333335,73.0,89.0
18,26.55355726666667,26.970967758333334,75.0,94.0
19,27.089271266666668,27.27007474166667,77.0,88.0
20,27.357128266666667,28.185252825,73.0,90.0
21,28.696413266666667,29.07141306666667,75.0,91.0
22,29.232127266666666,29.383912900000002,77.0,89.0
23,29.49998426666667,30.169626766666667,73.0,89.0
24,30.303555266666667,30.680787208333335,68.0,91.0
25,30.83926926666667,31.241054766666668,75.0,92.0
26,31.374983266666668,31.546858175,77.0,88.0
27,31.642840266666667,33.488821425,77.0,88.0
28,34.05355326666667,34.27230315,80.0,90.0
29,34.32141026666667,34.53123158333334,78.0,84.0
30,34.58926726666667,34.801320725000004,77.0,93.0
31,34.857124266666666,35.05801701666667,73.0,90.0
32,35.124981266666666,35.56024889166667,75.0,91.0
33,35.660695266666664,35.79462376666667,77.0,89.0
34,35.92855226666667,37.16069446666667,73.0,85.0
35,38.339265266666665,38.53122945,80.0,89.0
36,38.60712226666667,38.832568575,78.0,86.0
37,38.87497926666667,39.08926486666667,77.0,92.0
38,39.14283626666667,39.32363974166667,73.0,90.0
39,39.41069326666667,39.82587161666667,75.0,94.0
40,39.94640726666667,40.102657183333335,77.0,90.0
41,40.21426426666667,41.98658475,77.0,87.0
42,42.62497726666667,42.80131645833333,80.0,90.0
43,42.89283426666667,43.095959158333336,78.0,84.0
44,43.16069126666667,43.386137575,77.0,92.0
45,43.42854826666667,43.60488745833334,73.0,87.0
46,43.696405266666666,44.118280041666665,75.0,95.0
47,44.232119266666665,44.377208475,77.0,90.0
48,44.49997626666667,45.252208008333334,73.0,87.0
49,45.83926126666667,46.214261066666666,75.0,92.0
50,46.37497526666667,46.54015375,77.0,94.0
51,46.642832266666666,47.41515328333333,73.0,89.0
52,47.44640326666667,47.645063875,70.0,89.0
53,47.71426026666667,49.49774145833334,73.0,91.0
54,51.46425826666667,51.89729375,70.0,91.0
55,51.99997226666667,52.20979358333334,72.0,90.0
56,52.267829266666666,53.189703775,73.0,90.0
57,53.33925726666667,53.77006060833334,73.0,91.0
58,53.87497126666667,54.046846175,72.0,88.0
59,54.14282826666667,55.70309529166667,73.0,89.0
60,55.749970266666665,56.162916475,70.0,93.0
61,56.28568426666667,56.470952025,72.0,89.0
62,56.55354126666667,57.448630075000004,73.0,90.0
63,57.62496926666667,58.095951158333335,73.0,91.0
64,58.160683266666666,58.339254600000004,72.0,88.0
65,58.428540266666666,59.870503783333334,73.0,91.0
66,60.83925326666667,61.29014588333334,78.0,89.0
67,61.374967266666665,61.79907418333334,77.0,89.0
68,61.91068126666667,62.350413175,75.0,92.0
69,62.44639526666667,62.63389516666667,73.0,90.0
70,62.71425226666667,63.50666255833333,80.0,92.0
71,63.51782326666667,63.908448058333335,77.0,89.0
72,64.05353726666667,64.29460856666667,77.0,90.0
73,64.32139426666667,64.86603683333334,82.0,90.0
74,64.85710826666667,66.85933934166667,75.0,90.0
75,68.87496326666667,69.087016725,77.0,92.0
76,69.14282026666667,69.31023089166666,78.0,88.0
77,69.41067726666667,69.78567706666666,80.0,90.0
78,69.94639126666667,70.09594475833333,80.0,88.0
79,70.21424826666667,70.60933734166667,80.0,88.0
80,70.74996226666667,71.189694175,80.0,90.0
81,71.28567626666667,71.60933680833334,80.0,89.0
82,71.82139026666667,72.153979375,80.0,89.0
83,72.35710426666667,72.75442548333334,80.0,90.0
84,72.89281826666667,73.31022875833334,80.0,89.0
85,73.42853226666666,73.82362134166667,80.0,88.0
86,73.96424626666666,74.37272819166667,82.0,92.0
87,74.49996026666668,74.85040650833334,78.0,89.0
88,75.03567426666667,75.49103116666667,77.0,90.0
89,75.57138826666667,76.59147700833334,78.0,90.0
90,77.44638726666668,77.59817290000001,73.0,90.0
91,77.71424426666667,77.93299415,75.0,95.0
92,77.98210126666667,78.1606726,77.0,93.0
93,78.24995826666667,78.67183304166667,77.0,89.0
94,78.78567226666667,79.20308275833334,77.0,94.0
95,79.32138626666666,79.734332475,77.0,92.0
96,79.85710026666666,80.22093935833334,77.0,92.0
97,80.39281426666668,80.8124569,77.0,91.0
98,80.92852826666667,81.30799235,77.0,91.0
99,81.46424226666667,81.7767421,77.0,94.0
100,81.99995626666667,82.47093815833334,77.0,95.0
101,82.53567026666667,82.91513435,82.0,91.0
102,83.07138426666667,83.55352686666667,75.0,94.0
103,83.60709826666667,84.087008725,73.0,92.0
104,84.14281226666667,84.41066926666667,77.0,91.0
105,84.41066926666667,84.67852626666667,73.0,86.0
106,84.67852626666667,85.51334725000001,75.0,90.0
107,86.01781126666667,86.20531116666668,77.0,92.0
108,86.28566826666668,86.45307889166666,78.0,85.0
109,86.55352526666667,86.94415005833334,80.0,90.0
110,87.08923926666667,87.261114175,80.0,89.0
111,87.35709626666667,87.78789960833333,73.0,90.0
112,87.89281026666667,88.24548865,70.0,94.0
113,88.69638126666666,89.09370248333333,80.0,90.0
114,89.23209526666668,89.4374523,80.0,92.0
115,89.49995226666667,89.993255575,73.0,92.0
116,90.03566626666667,90.60709453333334,70.0,92.0
117,90.83923726666667,91.21423706666667,75.0,102.0
118,91.37495126666667,91.64280826666666,75.0,95.0
119,91.64280826666666,92.13164729166667,77.0,92.0
120,92.17852226666668,92.54682564166667,70.0,93.0
121,92.71423626666667,93.555753675,73.0,99.0
122,94.05352126666666,94.41512821666667,75.0,95.0
123,94.58923526666668,94.787895875,77.0,93.0
124,94.85709226666667,95.95977025,73.0,94.0
125,96.19637726666667,96.44414499166668,75.0,95.0
126,96.73209126666667,96.93968044166667,77.0,92.0
127,96.99994826666666,97.91066206666667,75.0,95.0
128,98.07137626666668,98.2767333,68.0,90.0
129,98.33923326666667,98.68298308333334,80.0,84.0
130,98.87494726666667,99.28342919166667,77.0,90.0
131,99.41066126666666,99.61825044166667,77.0,90.0
132,99.67851826666667,101.45083875,73.0,86.0
133,106.91065726666668,107.12940715,80.0,90.0
134,107.17851426666667,107.38833558333333,78.0,84.0
135,107.44637126666667,107.658424725,77.0,93.0
136,107.71422826666667,107.91512101666667,73.0,90.0
137,107.98208526666667,108.41735289166667,75.0,91.0
138,108.51779926666667,108.65172776666667,77.0,89.0
139,108.78565626666666,110.01779846666668,73.0,85.0
140,111.19636926666666,111.38833345,80.0,89.0
141,111.46422626666667,111.689672575,78.0,86.0
142,111.73208326666666,111.94636886666667,77.0,92.0
143,111.99994026666667,112.18074374166667,73.0,90.0
144,112.26779726666668,112.68297561666667,75.0,94.0
145,112.80351126666667,112.95976118333334,77.0,90.0
146,113.07136826666667,114.84368875,77.0,87.0
147,115.48208126666667,115.65842045833334,80.0,90.0
148,115.74993826666667,115.95306315833334,78.0,84.0
149,116.01779526666667,116.243241575,77.0,92.0
150,116.28565226666667,116.46199145833334,73.0,87.0
151,116.55350926666667,116.97538404166667,75.0,95.0
152,117.08922326666666,117.23431247500001,77.0,90.0
153,117.35708026666667,118.10931200833333,73.0,87.0
154,118.69636526666667,119.07136506666667,75.0,92.0
155,119.23207926666667,119.39725775000001,77.0,94.0
156,119.49993626666667,120.27225728333333,73.0,89.0
157,120.30350726666667,120.502167875,70.0,89.0
158,120.57136426666668,122.35484545833334,73.0,91.0
159,124.32136226666667,124.75439775000001,70.0,91.0
160,124.85707626666667,125.06689758333334,72.0,90.0
161,125.12493326666667,126.046807775,73.0,90.0
162,126.19636126666667,126.62716460833333,73.0,91.0
163,126.73207526666667,126.903950175,72.0,88.0
164,126.99993226666668,128.56019929166666,73.0,89.0
165,128.60707426666667,129.020020475,70.0,93.0
166,129.14278826666668,129.328056025,72.0,89.0
167,129.41064526666668,130.305734075,73.0,90.0
168,130.48207326666667,130.95305515833334,73.0,91.0
169,131.01778726666666,131.1963586,72.0,88.0
170,131.28564426666668,132.72760778333333,73.0,91.0
171,133.69635726666667,134.14724988333333,78.0,89.0
172,134.23207126666668,134.65617818333334,77.0,89.0
173,134.76778526666666,135.207517175,75.0,92.0
174,135.30349926666668,135.49099916666668,73.0,90.0
175,135.57135626666667,136.36376655833334,80.0,92.0
176,136.37492726666667,136.76555205833333,77.0,89.0
177,136.91064126666666,137.15171256666667,77.0,90.0
178,137.17849826666668,137.72314083333333,82.0,90.0
179,137.71421226666666,139.71644334166666,75.0,90.0
180,141.73206726666666,141.944120725,77.0,92.0
181,141.99992426666668,142.16733489166668,78.0,88.0
182,142.26778126666667,142.64278106666666,80.0,90.0
183,142.80349526666666,142.95304875833332,80.0,88.0
184,143.07135226666668,143.46644134166667,80.0,88.0
185,143.60706626666666,144.046798175,80.0,90.0
186,144.14278026666668,144.46644080833335,80.0,89.0
187,144.67849426666666,145.011083375,80.0,89.0
188,145.21420826666667,145.61152948333333,80.0,90.0
189,145.74992226666666,146.16733275833334,80.0,89.0
190,146.28563626666667,146.68072534166666,80.0,88.0
191,146.82135026666668,147.22983219166667,82.0,92.0
192,147.35706426666667,147.70751050833334,78.0,89.0
193,147.89277826666668,148.34813516666668,77.0,90.0
194,148.42849226666667,149.44858100833335,78.0,90.0
195,150.30349126666667,150.4552769,73.0,90.0
196,150.57134826666666,150.79009815,75.0,95.0
197,150.83920526666668,151.0177766,77.0,93.0
198,151.10706226666667,151.52893704166667,77.0,89.0
199,151.64277626666666,152.06018675833334,77.0,94.0
200,152.17849026666667,152.591436475,77.0,92.0
201,152.71420426666668,153.07804335833333,77.0,92.0
202,153.24991826666667,153.6695609,77.0,91.0
203,153.78563226666668,154.16509635,77.0,91.0
204,154.32134626666667,154.6338461,77.0,94.0
205,154.85706026666668,155.32804215833335,77.0,95.0
206,155.39277426666666,155.77223835,82.0,91.0
207,155.92848826666668,156.41063086666668,75.0,94.0
208,156.46420226666666,156.944112725,73.0,92.0
209,156.99991626666667,157.26777326666667,77.0,91.0
210,157.26777326666667,157.53563026666666,73.0,86.0
211,157.53563026666666,158.37045125,75.0,90.0
212,158.87491526666668,159.06241516666668,77.0,92.0
213,159.14277226666667,159.31018289166667,78.0,85.0
214,159.41062926666666,159.80125405833334,80.0,90.0
215,159.94634326666667,160.118218175,80.0,89.0
216,160.21420026666667,160.64500360833333,73.0,90.0
217,160.74991426666668,161.10259265,70.0,94.0
218,161.55348526666668,161.95080648333334,80.0,90.0
219,162.08919926666667,162.2945563,80.0,92.0
220,162.35705626666666,162.850359575,73.0,92.0
221,162.89277026666667,163.46419853333333,70.0,92.0
222,163.69634126666668,164.07134106666666,75.0,102.0
223,164.23205526666666,164.49991226666668,75.0,95.0
224,164.49991226666668,164.98875129166666,77.0,92.0
225,165.03562626666667,165.40392964166668,70.0,93.0
226,165.57134026666668,166.412857675,73.0,99.0
227,166.91062526666667,167.27223221666668,75.0,95.0
228,167.44633926666668,167.644999875,77.0,93.0
229,167.71419626666668,168.81687425,73.0,94.0
230,169.05348126666667,169.30124899166668,75.0,95.0
231,169.58919526666668,169.79678444166666,77.0,92.0
232,169.85705226666667,170.76776606666667,75.0,95.0
233,170.92848026666667,171.1338373,68.0,90.0
234,171.19633726666666,171.54008708333333,80.0,84.0
235,171.73205126666667,172.14053319166666,77.0,90.0
236,172.2677652666667,172.47535444166667,77.0,90.0
237,172.53562226666668,174.30794275,73.0,86.0
238,188.87489926666666,189.086952725,77.0,92.0
239,189.14275626666668,189.31016689166668,78.0,88.0
240,189.41061326666667,189.78561306666668,80.0,90.0
241,189.94632726666669,190.09588075833335,80.0,88.0
242,190.21418426666668,190.60927334166666,80.0,88.0
243,190.74989826666666,191.18963017500002,80.0,90.0
244,191.28561226666667,191.60927280833334,80.0,89.0
245,191.82132626666666,192.153915375,80.0,89.0
246,192.35704026666667,192.75436148333333,80.0,90.0
247,192.89275426666669,193.31016475833334,80.0,89.0
248,193.42846826666667,193.82355734166669,80.0,88.0
249,193.96418226666668,194.37266419166667,82.0,92.0
250,194.49989626666667,194.85034250833334,78.0,89.0
251,195.03561026666668,195.49096716666668,77.0,90.0
252,195.57132426666666,196.59141300833335,78.0,90.0
253,197.44632326666667,197.5981089,73.0,90.0
254,197.71418026666666,197.93293015,75.0,95.0
255,197.98203726666668,198.16060860000002,77.0,93.0
256,198.24989426666667,198.67176904166666,77.0,89.0
257,198.78560826666669,199.20301875833334,77.0,94.0
258,199.32132226666667,199.734268475,77.0,92.0
259,199.85703626666668,200.22087535833333,77.0,92.0
260,200.39275026666667,200.81239290000002,77.0,91.0
261,200.92846426666668,201.30792835,77.0,91.0
262,201.46417826666666,201.7766781,77.0,94.0
263,201.99989226666668,202.47087415833334,77.0,95.0
264,202.53560626666666,202.91507035,82.0,91.0
265,203.07132026666667,203.55346286666668,75.0,94.0
266,203.60703426666666,204.086944725,73.0,92.0
267,204.14274826666667,204.41060526666666,77.0,91.0
268,204.41060526666666,204.67846226666668,73.0,86.0
269,204.67846226666668,205.51328325,75.0,90.0
270,206.01774726666667,206.20524716666668,77.0,92.0
271,206.28560426666667,206.45301489166667,78.0,85.0
272,206.55346126666666,206.94408605833334,80.0,90.0
273,207.08917526666667,207.261050175,80.0,89.0
274,207.35703226666666,207.78783560833335,73.0,90.0
275,207.89274626666668,208.24542465000002,70.0,94.0
276,208.69631726666668,209.09363848333334,80.0,90.0
277,209.23203126666667,209.4373883,80.0,92.0
278,209.4998882666667,209.993191575,73.0,92.0
279,210.03560226666667,210.60703053333333,70.0,92.0
280,210.83917326666668,211.21417306666666,75.0,102.0
281,211.37488726666666,211.64274426666668,75.0,95.0
282,211.64274426666668,212.1315832916667,77.0,92.0
283,212.17845826666667,212.54676164166668,70.0,93.0
284,212.71417226666668,213.555689675,73.0,99.0
285,214.05345726666667,214.41506421666668,75.0,95.0
286,214.58917126666668,214.787831875,77.0,93.0
287,214.85702826666667,215.95970625,73.0,94.0
288,216.19631326666666,216.44408099166668,75.0,95.0
289,216.73202726666668,216.9396164416667,77.0,92.0
290,216.99988426666667,217.91059806666667,75.0,95.0
291,218.07131226666667,218.2766693,68.0,90.0
292,218.3391692666667,218.68291908333333,80.0,84.0
293,218.87488326666667,219.28336519166666,77.0,90.0
294,219.41059726666668,219.61818644166667,77.0,90.0
295,219.67845426666668,221.45077475,73.0,86.0
296,222.35702426666668,222.7230955,75.0,95.0
297,222.89273826666667,223.3123809,77.0,89.0
298,223.42845226666668,224.336933925,73.0,90.0
299,224.49988026666668,224.82130866666668,75.0,99.0
300,225.03559426666666,225.5088083,77.0,90.0
301,225.57130826666668,226.37711140833335,75.0,90.0
302,226.332468575,226.7097005166667,68.0,95.0
303,226.881575425,228.073539075,80.0,92.0
304,228.45300315833333,229.078002825,77.0,89.0
305,229.25434201666667,229.44184191666668,77.0,94.0
306,229.43291335,229.56907399166667,75.0,84.0
307,229.60255611666668,232.16951903333333,73.0,89.0
