,start,end,pitch,velocity
0,4.6439620687500005,4.9040060875,70.0,127.0
1,4.91181856875,5.079228881250001,72.0,96.0
2,5.17967506875,5.604897262500001,72.0,127.0
3,5.71538806875,7.441946425,70.0,127.0
4,13.215370068750001,13.61269054375,68.0,127.0
5,15.35822206875,15.78009605625,75.0,127.0
6,13.75108306875,15.897283275000001,70.0,127.0
7,15.89393506875,16.3638000125,72.0,112.0
8,16.42964806875,17.75888595,70.0,122.0
9,18.03678706875,18.20419738125,58.0,122.0
10,18.304643568750002,18.649508812500002,65.0,112.0
11,18.57250006875,18.890579662500002,67.0,127.0
12,19.10821306875,19.37606956875,67.0,127.0
13,19.64392606875,19.745488325,65.0,96.0
14,19.911782568750002,20.02562158125,65.0,100.0
15,20.17963906875,20.27673705,65.0,100.0
16,20.44749556875,20.588120231250002,65.0,102.0
17,20.71535206875,21.0200388375,63.0,112.0
18,21.251065068750002,21.986554375,67.0,117.0
19,22.32249106875,22.677400931250002,62.0,127.0
20,22.858204068750002,22.94302529375,62.0,117.0
21,23.126060568750002,23.21534606875,62.0,102.0
22,23.39391706875,23.466461537500003,62.0,97.0
23,23.66177356875,23.88945159375,62.0,112.0
24,23.92963006875,24.168468781250002,60.0,86.0
25,24.19748656875,24.32918268125,62.0,102.0
26,24.465343068750002,25.1316361125,63.0,117.0
27,26.60819506875,26.805739237500003,60.0,97.0
28,26.87605156875,27.14837234375,67.0,127.0
29,27.14390806875,27.44971090625,68.0,122.0
30,27.679621068750002,28.09926291875,68.0,127.0
31,28.21533406875,28.348146250000003,67.0,107.0
32,28.48319056875,28.6093063375,67.0,102.0
33,28.75104706875,28.872698562500002,67.0,117.0
34,29.01890356875,29.19970670625,67.0,127.0
35,29.286760068750002,29.437429350000002,65.0,112.0
36,29.554616568750003,29.6718037875,67.0,112.0
37,29.82247306875,30.196356100000003,68.0,127.0
38,30.62604256875,30.83139921875,60.0,107.0
39,30.893899068750002,31.079166481250002,62.0,99.0
40,31.161755568750003,31.504388675,63.0,117.0
41,31.69746856875,32.04568201875,63.0,127.0
42,32.23318156875,32.459743525,63.0,127.0
43,32.50103806875,32.7253678875,62.0,92.0
44,32.76889456875,32.924028125,63.0,112.0
45,33.03675106875,34.33808723125,65.0,117.0
46,35.179603068750005,35.34701338125,58.0,122.0
47,35.44745956875,35.7923248125,65.0,112.0
48,35.71531606875,36.0333956625,67.0,127.0
49,36.25102906875,36.51888556875,67.0,127.0
50,36.78674206875,36.888304325,65.0,96.0
51,37.05459856875,37.168437581250004,65.0,100.0
52,37.32245506875,37.419553050000005,65.0,100.0
53,37.59031156875,37.73093623125,65.0,102.0
54,37.858168068750004,38.1628548375,63.0,112.0
55,38.39388106875,39.129370375,67.0,117.0
56,39.46530706875,39.82021693125,62.0,127.0
57,40.00102006875,40.08584129375,62.0,117.0
58,40.26887656875,40.358162068750005,62.0,102.0
59,40.53673306875,40.6092775375,62.0,97.0
60,40.80458956875,41.03226759375,62.0,112.0
61,41.072446068750004,41.31128478125,60.0,86.0
62,41.340302568750005,41.47199868125,62.0,102.0
63,41.60815906875,42.2744521125,63.0,117.0
64,43.75101106875,43.9485552375,60.0,97.0
65,44.018867568750004,44.29118834375,67.0,127.0
66,44.286724068750004,44.59252690625,68.0,122.0
67,44.82243706875,45.24207891875,68.0,127.0
68,45.35815006875,45.49096225,67.0,107.0
69,45.62600656875,45.752122337500005,67.0,102.0
70,45.89386306875,46.0155145625,67.0,117.0
71,46.16171956875,46.34252270625,67.0,127.0
72,46.42957606875,46.58024535,65.0,112.0
73,46.69743256875,46.8146197875,67.0,112.0
74,46.96528906875,47.3391721,68.0,127.0
75,47.768858568750005,47.91171536875,65.0,122.0
76,48.03671506875,48.1494380125,67.0,117.0
77,48.30457156875,48.6092583375,68.0,127.0
78,48.84028456875,49.146087406250004,68.0,122.0
79,49.37599756875,49.54452395,68.0,127.0
80,49.64385406875,49.790059075,67.0,95.0
81,49.91171056875,50.007692481250004,68.0,122.0
82,50.17956706875,52.119294556250004,70.0,127.0
83,52.32241906875,52.403892087500004,70.0,127.0
84,52.59027556875,52.7610340875,70.0,127.0
85,52.85813206875,52.950765775,67.0,117.0
86,53.12598856875,53.3235327375,67.0,127.0
87,53.393845068750004,53.4708538125,65.0,93.0
88,53.661701568750004,53.8391565,65.0,112.0
89,53.929558068750005,54.14161113125,63.0,107.0
90,54.46527106875,54.584690425000005,63.0,127.0
91,54.73312756875,54.833573756250004,65.0,107.0
92,55.00098406875,55.11593915,65.0,99.0
93,55.26884056875,55.38044744375,63.0,117.0
94,55.53669706875,56.281114925000004,67.0,117.0
95,56.608123068750004,56.691828225,70.0,127.0
96,56.875979568750004,56.980890031250006,70.0,127.0
97,57.143836068750005,57.238701912500005,72.0,122.0
98,57.411692568750006,57.514370893750005,72.0,112.0
99,57.67954906875,57.7677185,67.0,127.0
100,57.94740556875,58.031110725000005,67.0,122.0
101,58.21526206875,58.31347611875,65.0,99.0
102,58.48311856875,58.591377237500005,65.0,102.0
103,58.75097506875,58.824635606250006,63.0,127.0
104,59.01883156875,60.037802337500004,63.0,127.0
105,60.625970568750006,60.76659523125,60.0,107.0
106,60.89382706875,61.06235345,60.0,100.0
107,61.16168356875,61.418379381250006,67.0,127.0
108,61.42954006875,61.538914806250006,68.0,122.0
109,61.69739656875,61.81569985625,68.0,127.0
110,61.96525306875,62.3770824375,68.0,127.0
111,62.768822568750004,62.88489371875,67.0,122.0
112,63.036679068750004,63.14382166875,67.0,96.0
113,63.304535568750005,63.4284192,67.0,122.0
114,63.572392068750005,63.69515963125,65.0,99.0
115,63.840248568750006,63.93846261875,67.0,127.0
116,64.10810506875,64.40163115,68.0,127.0
117,64.64381806875001,64.7252910875,65.0,112.0
118,64.91167456875,65.01435289375,65.0,117.0
119,65.17953106875001,65.2610040875,67.0,127.0
120,65.44738756875,65.75095826875,68.0,127.0
121,65.98310056875,66.08019855,68.0,127.0
122,66.25095706875,66.34135863750001,68.0,127.0
123,66.51881356875,66.68622388125,68.0,127.0
124,66.78667006875,66.99872313125,67.0,112.0
125,67.05452656875,67.1784102,68.0,127.0
126,67.32238306875,69.07684314375,70.0,127.0
127,69.46523506875,69.54670808750001,70.0,127.0
128,69.73309156875,69.9038500875,70.0,127.0
129,70.00094806875,70.093581775,67.0,117.0
130,70.26880456875,70.4663487375,67.0,127.0
131,70.53666106875,70.6136698125,65.0,93.0
132,70.80451756875,70.9819725,65.0,112.0
133,71.07237406875001,71.28442713125,63.0,107.0
134,71.60808706875001,71.727506425,63.0,127.0
135,71.87594356875,71.97638975625,65.0,107.0
136,72.14380006875,72.25875515,65.0,99.0
137,72.41165656875,72.52326344375,63.0,117.0
138,72.67951306875,73.42393092500001,67.0,117.0
139,73.75093906875,73.834644225,70.0,127.0
140,74.01879556875001,74.12370603125001,70.0,127.0
141,74.28665206875,74.3815179125,72.0,122.0
142,74.55450856875001,74.65718689375001,72.0,112.0
143,74.82236506875,74.9105345,67.0,127.0
144,75.09022156875,75.173926725,67.0,122.0
145,75.35807806875,75.45629211875,65.0,99.0
146,75.62593456875,75.73419323750001,65.0,102.0
147,75.89379106875,75.96745160625001,63.0,127.0
148,76.16164756875,77.18061833750001,63.0,127.0
149,77.76878656875,77.90941123125,60.0,107.0
150,78.03664306875001,78.20516945,60.0,100.0
151,78.30449956875,78.56119538125,67.0,127.0
152,78.57235606875,78.68173080625,68.0,122.0
153,78.84021256875,78.95851585625,68.0,127.0
154,79.10806906875,79.5198984375,68.0,127.0
155,79.91163856875,80.02770971875,67.0,122.0
156,80.17949506875,80.28663766875,67.0,96.0
157,80.44735156875001,80.5712352,67.0,122.0
158,80.71520806875,80.83797563125,65.0,99.0
159,80.98306456875001,81.08127861875,67.0,127.0
160,81.25092106875,81.54444715,68.0,127.0
161,81.78663406875,81.86810708750001,65.0,112.0
162,82.05449056875,82.15716889375,65.0,117.0
163,82.32234706875,82.40382008750001,67.0,127.0
164,82.59020356875,82.89377426875001,68.0,127.0
165,83.12591656875,83.22301455,68.0,127.0
166,83.39377306875001,83.4841746375,68.0,127.0
167,83.66162956875,83.82903988125,68.0,127.0
168,83.92948606875001,84.14153913125,67.0,112.0
169,84.19734256875,84.3212262,68.0,127.0
170,84.46519906875001,85.26876856875,70.0,127.0
171,85.53662506875,85.64265160000001,67.0,117.0
172,85.80448156875,86.01876676875,67.0,122.0
173,86.07233806875,86.254257275,65.0,112.0
174,86.34019456875001,86.42278365625,63.0,117.0
175,86.60805106875,88.8234475375,63.0,127.0
176,105.35800606875,105.60242512500001,70.0,122.0
177,105.62586256875001,105.7787639875,72.0,83.0
178,105.89371906875,106.41380710625,72.0,127.0
179,106.42943206875,108.4528647125,70.0,122.0
180,112.32227506875,112.48968538125,58.0,122.0
181,112.59013156875001,112.9349968125,65.0,112.0
182,112.85798806875,113.1760676625,67.0,127.0
183,113.39370106875,113.66155756875,67.0,127.0
184,113.92941406875,114.03097632500001,65.0,96.0
185,114.19727056875,114.31110958125001,65.0,100.0
186,114.46512706875001,114.56222505000001,65.0,100.0
187,114.73298356875,114.87360823125,65.0,102.0
188,115.00084006875001,115.30552683750001,63.0,112.0
189,115.53655306875001,116.272042375,67.0,117.0
190,116.60797906875,116.96288893125,62.0,127.0
191,117.14369206875,117.22851329375,62.0,117.0
192,117.41154856875,117.50083406875001,62.0,102.0
193,117.67940506875,117.75194953750001,62.0,97.0
194,117.94726156875001,118.17493959375001,62.0,112.0
195,118.21511806875,118.45395678125,60.0,86.0
196,118.48297456875001,118.61467068125,62.0,102.0
197,118.75083106875,119.4171241125,63.0,117.0
198,120.89368306875001,121.09122723750001,60.0,97.0
199,121.16153956875,121.43386034375,67.0,127.0
200,121.42939606875001,121.73519890625,68.0,122.0
201,121.96510906875001,122.38475091875,68.0,127.0
202,122.50082206875001,122.63363425,67.0,107.0
203,122.76867856875,122.8947943375,67.0,102.0
204,123.03653506875,123.1581865625,67.0,117.0
205,123.30439156875,123.48519470625,67.0,127.0
206,123.57224806875,123.72291735,65.0,112.0
207,123.84010456875001,123.95729178750001,67.0,112.0
208,124.10796106875,124.4818441,68.0,127.0
209,124.91153056875001,125.05438736875,65.0,122.0
210,125.17938706875,125.2921100125,67.0,117.0
211,125.44724356875001,125.7519303375,68.0,127.0
212,125.98295656875001,126.28875940625001,68.0,122.0
213,126.51866956875,126.68719595,68.0,127.0
214,126.78652606875,126.932731075,67.0,95.0
215,127.05438256875,127.15036448125001,68.0,122.0
216,127.32223906875001,129.26196655625,70.0,127.0
217,129.46509106875,129.5465640875,70.0,127.0
218,129.73294756875,129.9037060875,70.0,127.0
219,130.00080406875,130.093437775,67.0,117.0
220,130.26866056875,130.4662047375,67.0,127.0
221,130.53651706875002,130.6135258125,65.0,93.0
222,130.80437356875,130.9818285,65.0,112.0
223,131.07223006875,131.28428313125,63.0,107.0
224,131.60794306875002,131.727362425,63.0,127.0
225,131.87579956875,131.97624575625,65.0,107.0
226,132.14365606875,132.25861115,65.0,99.0
227,132.41151256875,132.52311944375,63.0,117.0
228,132.67936906875,133.423786925,67.0,117.0
229,133.75079506875,133.834500225,70.0,127.0
230,134.01865156875002,134.12356203125,70.0,127.0
231,134.28650806875,134.3813739125,72.0,122.0
232,134.55436456875,134.65704289375,72.0,112.0
233,134.82222106875,134.9103905,67.0,127.0
234,135.09007756875002,135.173782725,67.0,122.0
235,135.35793406875,135.45614811875,65.0,99.0
236,135.62579056875,135.73404923750002,65.0,102.0
237,135.89364706875,135.96730760625002,63.0,127.0
238,136.16150356875,137.18047433750002,63.0,127.0
239,137.76864256875,137.90926723125,60.0,107.0
240,138.03649906875,138.20502545,60.0,100.0
241,138.30435556875,138.56105138125,67.0,127.0
242,138.57221206875002,138.68158680625,68.0,122.0
243,138.84006856875,138.95837185625,68.0,127.0
244,139.10792506875,139.5197544375,68.0,127.0
245,139.91149456875002,140.02756571875,67.0,122.0
246,140.17935106875,140.28649366875,67.0,96.0
247,140.44720756875,140.5710912,67.0,122.0
248,140.71506406875,140.83783163125,65.0,99.0
249,140.98292056875002,141.08113461875,67.0,127.0
250,141.25077706875,141.54430315000002,68.0,127.0
251,141.78649006875,141.86796308750002,65.0,112.0
252,142.05434656875,142.15702489375002,65.0,117.0
253,142.32220306875,142.4036760875,67.0,127.0
254,142.59005956875,142.89363026875,68.0,127.0
255,143.12577256875,143.22287055,68.0,127.0
256,143.39362906875002,143.4840306375,68.0,127.0
257,143.66148556875,143.82889588125002,68.0,127.0
258,143.92934206875,144.14139513125,67.0,112.0
259,144.19719856875,144.3210822,68.0,127.0
260,144.46505506875002,146.21951514375002,70.0,127.0
261,146.60790706875,146.6893800875,70.0,127.0
262,146.87576356875002,147.0465220875,70.0,127.0
263,147.14362006875,147.236253775,67.0,117.0
264,147.41147656875,147.6090207375,67.0,127.0
265,147.67933306875,147.7563418125,65.0,93.0
266,147.94718956875002,148.12464450000002,65.0,112.0
267,148.21504606875,148.42709913125,63.0,107.0
268,148.75075906875,148.870178425,63.0,127.0
269,149.01861556875,149.11906175625,65.0,107.0
270,149.28647206875002,149.40142715000002,65.0,99.0
271,149.55432856875,149.66593544375002,63.0,117.0
272,149.82218506875,150.566602925,67.0,117.0
273,150.89361106875,150.977316225,70.0,127.0
274,151.16146756875,151.26637803125,70.0,127.0
275,151.42932406875002,151.52418991250002,72.0,122.0
276,151.69718056875,151.79985889375,72.0,112.0
277,151.96503706875,152.05320650000002,67.0,127.0
278,152.23289356875,152.316598725,67.0,122.0
279,152.50075006875,152.59896411875002,65.0,99.0
280,152.76860656875002,152.8768652375,65.0,102.0
281,153.03646306875,153.11012360625,63.0,127.0
282,153.30431956875,154.3232903375,63.0,127.0
283,154.91145856875,155.05208323125,60.0,107.0
284,155.17931506875001,155.34784145,60.0,100.0
285,155.44717156875,155.70386738125,67.0,127.0
286,155.71502806875,155.82440280625002,68.0,122.0
287,155.98288456875,156.10118785625,68.0,127.0
288,156.25074106875002,156.6625704375,68.0,127.0
289,157.05431056875,157.17038171875,67.0,122.0
290,157.32216706875002,157.42930966875,67.0,96.0
291,157.59002356875,157.7139072,67.0,122.0
292,157.85788006875,157.98064763125,65.0,99.0
293,158.12573656875,158.22395061875,67.0,127.0
294,158.39359306875,158.68711915,68.0,127.0
295,158.92930606875,159.0107790875,65.0,112.0
296,159.19716256875,159.29984089375,65.0,117.0
297,159.46501906875,159.5464920875,67.0,127.0
298,159.73287556875002,160.03644626875,68.0,127.0
299,160.26858856875,160.36568655000002,68.0,127.0
300,160.53644506875,160.6268466375,68.0,127.0
301,160.80430156875002,160.97171188125,68.0,127.0
302,161.07215806875,161.28421113125,67.0,112.0
303,161.34001456875,161.46389820000002,68.0,127.0
304,161.60787106875,162.41144056875,70.0,127.0
305,162.67929706875,162.7853236,67.0,117.0
306,162.94715356875,163.16143876875,67.0,122.0
307,163.21501006875002,163.39692927500002,65.0,112.0
308,163.48286656875,163.56545565625,63.0,117.0
309,163.75072306875,165.96611953750002,63.0,127.0
310,167.50071406875,167.60339239375,62.0,107.0
311,167.76857056875,167.9214719875,62.0,97.0
312,168.03642706875002,170.58106381875,63.0,127.0
313,171.78641806875,171.8768196375,63.0,127.0
314,172.05427456875,172.18373854375,62.0,102.0
315,172.32213106875,174.89355346875,63.0,127.0
316,176.07212206875002,176.2250234875,63.0,102.0
317,176.33997856875,176.4839514375,62.0,99.0
318,176.60783506875,177.17926226875,65.0,99.0
319,177.14354806875,178.91921345,63.0,95.0
320,180.35782606875,180.46496866875,63.0,112.0
321,180.62568256875,180.754030475,63.0,107.0
322,180.89353906875002,183.1758996625,70.0,127.0
323,183.03639106875002,184.1245581,75.0,127.0
324,184.10781706875,185.04308268125,72.0,127.0
325,185.17924306875,185.29308208125002,72.0,112.0
326,185.44709956875002,185.62567056875,72.0,112.0
327,185.71495606875,185.81205405,69.0,112.0
328,185.98281256875,186.22611555625,69.0,117.0
329,186.25066906875,186.33325815625,67.0,79.0
330,186.51852556875002,186.75848035,67.0,127.0
331,186.78638206875002,187.00401547500002,65.0,107.0
332,187.32209506875,187.46271973125002,65.0,99.0
333,187.58995156875,187.70825485625,67.0,112.0
334,187.85780806875002,187.99843273125,67.0,99.0
335,188.12566456875,188.28526240000002,65.0,95.0
336,188.39352106875,188.73168990000002,69.0,127.0
337,189.46494706875,189.548652225,72.0,127.0
338,189.73280356875,189.83771403125002,72.0,127.0
339,190.00066006875,190.0955259125,74.0,122.0
340,190.26851656875002,190.37119489375002,74.0,112.0
341,190.53637306875,190.62454250000002,69.0,127.0
342,190.80422956875,190.887934725,69.0,122.0
343,191.07208606875,191.17030011875002,67.0,99.0
344,191.33994256875002,191.4482012375,67.0,102.0
345,191.60779906875,191.68145960625,65.0,127.0
346,191.87565556875,192.8946263375,65.0,127.0
347,193.48279456875,193.62341923125,62.0,107.0
348,193.75065106875002,193.91917745,62.0,100.0
349,194.01850756875,194.27520338125,69.0,127.0
350,194.28636406875,194.39573880625,70.0,122.0
351,194.55422056875,194.67252385625,70.0,127.0
352,194.82207706875002,195.2339064375,70.0,127.0
353,195.62564656875,195.74171771875,69.0,122.0
354,195.89350306875002,196.00064566875,69.0,96.0
355,196.16135956875002,196.2852432,69.0,122.0
356,196.42921606875,196.55198363125,67.0,99.0
357,196.69707256875,196.79528661875,69.0,127.0
358,196.96492906875,197.25845515,70.0,127.0
359,197.50064206875,197.5821150875,67.0,112.0
360,197.76849856875,197.87117689375,67.0,117.0
361,198.03635506875,198.11782808750002,69.0,127.0
362,198.30421156875002,198.60778226875001,70.0,127.0
363,198.83992456875,198.93702255,70.0,127.0
364,199.10778106875,199.1981826375,70.0,127.0
365,199.37563756875002,199.54304788125,70.0,127.0
366,199.64349406875002,199.85554713125,69.0,112.0
367,199.91135056875,200.03523420000002,70.0,127.0
368,200.17920706875,201.93366714375,72.0,127.0
369,202.32205906875,202.4035320875,72.0,127.0
370,202.58991556875,202.7606740875,72.0,127.0
371,202.85777206875,202.950405775,69.0,117.0
372,203.12562856875002,203.32317273750002,69.0,127.0
373,203.39348506875,203.4704938125,67.0,93.0
374,203.66134156875,203.8387965,67.0,112.0
375,203.92919806875,204.14125113125002,65.0,107.0
376,204.46491106875,204.58433042500002,65.0,127.0
377,204.73276756875,204.83321375625002,67.0,107.0
378,205.00062406875,205.11557915,67.0,99.0
379,205.26848056875002,205.38008744375,65.0,117.0
380,205.53633706875002,206.280754925,69.0,117.0
381,206.60776306875002,206.69146822500002,72.0,127.0
382,206.87561956875,206.98053003125,72.0,127.0
383,207.14347606875,207.2383419125,74.0,122.0
384,207.41133256875,207.51401089375,74.0,112.0
385,207.67918906875002,207.7673585,69.0,127.0
386,207.94704556875,208.03075072500002,69.0,122.0
387,208.21490206875,208.31311611875,67.0,99.0
388,208.48275856875,208.5910172375,67.0,102.0
389,208.75061506875002,208.82427560625,65.0,127.0
390,209.01847156875002,210.0374423375,65.0,127.0
391,210.62561056875,210.76623523125002,62.0,107.0
392,210.89346706875,211.06199345000002,62.0,100.0
393,211.16132356875002,211.41801938125002,69.0,127.0
394,211.42918006875001,211.53855480625,70.0,122.0
395,211.69703656875,211.81533985625,70.0,127.0
396,211.96489306875,212.3767224375,70.0,127.0
397,212.76846256875,212.88453371875002,69.0,122.0
398,213.03631906875,213.14346166875,69.0,96.0
399,213.30417556875,213.4280592,69.0,122.0
400,213.57203206875002,213.69479963125002,67.0,99.0
401,213.83988856875,213.93810261875,69.0,127.0
402,214.10774506875,214.40127115,70.0,127.0
403,214.91131456875002,215.01399289375001,67.0,117.0
404,215.17917106875,215.2606440875,69.0,127.0
405,215.44702756875,215.75059826875,70.0,127.0
406,215.98274056875002,216.07983855,70.0,127.0
407,216.25059706875,216.3409986375,70.0,127.0
408,216.51845356875,216.68586388125001,70.0,127.0
409,216.78631006875,216.99836313125002,69.0,112.0
410,217.05416656875002,217.1780502,70.0,127.0
411,217.32202306875,218.12559256875002,72.0,127.0
412,218.39344906875002,218.4994756,69.0,117.0
413,218.66130556875,218.87559076875002,69.0,122.0
414,218.92916206875,219.111081275,67.0,112.0
415,219.19701856875,219.27960765625002,65.0,117.0
416,219.46487506875002,221.6802715375,65.0,127.0
417,222.94700956875002,223.5820526875,67.0,127.0
418,223.75057906875,223.93807861875,69.0,127.0
419,223.88450731875,224.003926675,67.0,95.0
420,224.01843556875002,227.15124055,65.0,117.0
421,228.30413956875,232.33314775625,72.0,122.0
