,start,end,pitch,velocity
0,1.1618275687500002,1.30914864375,70.0,95.0
1,1.1618275687500002,1.31361291875,67.0,90.0
2,1.1618275687500002,1.325889675,63.0,112.0
3,1.42968406875,1.5479873562500002,70.0,90.0
4,1.42968406875,1.55021949375,67.0,90.0
5,1.42968406875,1.56584445625,63.0,97.0
6,1.1618275687500002,1.57254086875,39.0,93.0
7,1.69754056875,1.96093279375,70.0,100.0
8,1.69754056875,1.9843702375,67.0,92.0
9,1.69754056875,1.9944148562500001,63.0,112.0
10,1.69754056875,2.0781200125,39.0,112.0
11,2.09932531875,2.2622713562500003,70.0,107.0
12,2.09932531875,2.3013337625,63.0,102.0
13,2.09932531875,2.31249445,67.0,88.0
14,2.23325356875,2.5680741937500002,39.0,96.0
15,2.50111006875,2.825886075,70.0,100.0
16,2.50111006875,2.8370467625,63.0,127.0
17,2.50111006875,2.84039496875,67.0,99.0
18,2.7689665687500002,3.1395013937500003,39.0,100.0
19,3.03682306875,3.19530483125,67.0,79.0
20,3.03682306875,3.2176262062500003,70.0,97.0
21,3.03682306875,3.22655475625,63.0,122.0
22,3.30467956875,3.6796786687500003,51.0,122.0
23,3.5725360687500003,3.6807947375000003,70.0,88.0
24,3.30467956875,3.6964197000000003,39.0,72.0
25,3.5725360687500003,3.6975357687500003,67.0,92.0
26,3.5725360687500003,3.7098125250000002,63.0,117.0
27,3.84039256875,4.06249025,70.0,97.0
28,3.84039256875,4.0736509375,67.0,93.0
29,3.84039256875,4.07476700625,63.0,112.0
30,3.84039256875,4.2477576625,39.0,102.0
31,4.2421773187500005,4.4107037,67.0,100.0
32,4.2421773187500005,4.41181976875,63.0,117.0
33,4.2421773187500005,4.41181976875,70.0,102.0
34,4.37610556875,4.7834706625,51.0,102.0
35,4.37610556875,4.802443831250001,39.0,76.0
36,4.6439620687500005,5.016729031250001,63.0,127.0
37,4.6439620687500005,5.017845100000001,70.0,99.0
38,4.6439620687500005,5.018961168750001,67.0,95.0
39,4.91181856875,5.3225318687500005,39.0,102.0
40,5.17967506875,5.34485324375,67.0,96.0
41,5.17967506875,5.37833530625,63.0,127.0
42,5.71538806875,5.8281110125,60.0,95.0
43,5.71538806875,5.849316318750001,67.0,89.0
44,5.71538806875,5.8593609375,63.0,122.0
45,5.4475315687500006,5.90065548125,36.0,89.0
46,5.98324456875,6.1941815625,63.0,117.0
47,5.98324456875,6.19529763125,67.0,93.0
48,5.98324456875,6.2298957625,60.0,89.0
49,5.98324456875,6.436368481250001,48.0,86.0
50,5.98324456875,6.45868985625,43.0,61.0
51,6.38502931875,6.5423950125,60.0,92.0
52,6.38502931875,6.54797535625,63.0,107.0
53,6.38502931875,6.5569039062500005,67.0,90.0
54,6.51895756875,7.013376025,36.0,82.0
55,6.78681406875,7.0714116,60.0,93.0
56,6.78681406875,7.0803401500000005,63.0,127.0
57,6.78681406875,7.0814562187500005,67.0,92.0
58,7.054670568750001,7.5122587562500005,48.0,85.0
59,7.054670568750001,7.517839100000001,43.0,61.0
60,7.32252706875,7.59484784375,63.0,122.0
61,7.32252706875,7.61493708125,60.0,93.0
62,7.32252706875,7.62832990625,67.0,92.0
63,7.858240068750001,7.948641637500001,63.0,117.0
64,7.858240068750001,7.95422198125,67.0,96.0
65,7.858240068750001,7.95533805,60.0,89.0
66,7.59038356875,8.1249805,36.0,90.0
67,8.12609656875,8.388372725,63.0,122.0
68,8.12609656875,8.389488793750001,67.0,93.0
69,8.12609656875,8.4129262375,60.0,93.0
70,8.12609656875,8.55243483125,48.0,79.0
71,8.12609656875,8.574756206250001,43.0,58.0
72,8.52788131875,8.6406042625,60.0,82.0
73,8.52788131875,8.65064888125,63.0,122.0
74,8.52788131875,8.6629256375,67.0,93.0
75,8.66180956875,9.3057812375,36.0,76.0
76,8.92966606875,9.308013375,63.0,122.0
77,8.92966606875,9.31247765,60.0,93.0
78,8.92966606875,9.316941925,67.0,88.0
79,9.46537906875,9.540155675000001,68.0,66.0
80,9.46537906875,9.6227447625,63.0,99.0
81,9.197522568750001,9.638369725,48.0,100.0
82,9.46537906875,9.70421778125,60.0,96.0
83,10.001092068750001,10.129439975,68.0,100.0
84,9.59930731875,10.130556043750001,44.0,99.0
85,10.001092068750001,10.1428328,63.0,117.0
86,10.001092068750001,10.149529212500001,60.0,82.0
87,10.26894856875,10.44305529375,60.0,79.0
88,10.26894856875,10.459796325000001,68.0,127.0
89,10.26894856875,10.46314453125,63.0,117.0
90,10.26894856875,10.72318855,51.0,76.0
91,10.67073331875,10.8236347375,63.0,112.0
92,10.67073331875,10.83591149375,60.0,86.0
93,10.67073331875,10.84930431875,68.0,102.0
94,11.07251806875,11.1897052875,68.0,102.0
95,11.07251806875,11.19082135625,60.0,89.0
96,11.07251806875,11.19082135625,63.0,112.0
97,10.67073331875,11.343722775,44.0,82.0
98,11.34037456875,11.45644571875,68.0,112.0
99,11.34037456875,11.45867785625,63.0,122.0
100,11.34037456875,11.4642582,60.0,82.0
101,11.474302818750001,11.74885573125,51.0,15.0
102,11.34037456875,11.88055184375,56.0,71.0
103,11.608231068750001,11.9084535625,63.0,112.0
104,11.608231068750001,11.914033906250001,68.0,93.0
105,11.608231068750001,11.924078525,60.0,92.0
106,12.14394406875,12.24885453125,68.0,92.0
107,12.14394406875,12.25555094375,63.0,102.0
108,12.14394406875,12.26224735625,60.0,86.0
109,11.87608756875,12.48769324375,44.0,79.0
110,12.411800568750001,12.569166262500001,68.0,102.0
111,12.411800568750001,12.57921088125,60.0,93.0
112,12.411800568750001,12.5892555,63.0,127.0
113,12.411800568750001,12.844835243750001,51.0,61.0
114,12.411800568750001,12.90175475,56.0,86.0
115,12.81358531875,13.00554914375,60.0,77.0
116,12.81358531875,13.00778128125,63.0,107.0
117,12.81358531875,13.027870518750001,68.0,100.0
118,13.215370068750001,13.546842487500001,63.0,117.0
119,13.215370068750001,13.54795855625,68.0,102.0
120,13.215370068750001,13.553538900000001,60.0,85.0
121,12.94751356875,13.891707731250001,44.0,85.0
122,13.61715481875,13.9039844875,63.0,112.0
123,13.61715481875,13.91402910625,68.0,66.0
124,13.61715481875,13.954207581250001,60.0,88.0
125,13.48322656875,13.98099323125,56.0,93.0
126,14.28679606875,14.42742073125,62.0,76.0
127,14.28679606875,14.4285368,65.0,82.0
128,14.55465256875,14.845946512500001,65.0,96.0
129,14.018939568750001,14.84706258125,46.0,96.0
130,14.55465256875,14.84706258125,70.0,99.0
131,14.55465256875,14.857107200000002,62.0,90.0
132,14.55465256875,15.049071025,58.0,100.0
133,14.95643731875,15.09259770625,65.0,83.0
134,14.95643731875,15.10599053125,62.0,72.0
135,14.95643731875,15.114919081250001,70.0,93.0
136,15.35822206875,15.6986230375,65.0,90.0
137,15.35822206875,15.703087312500001,62.0,93.0
138,15.35822206875,15.716480137500001,70.0,99.0
139,14.95643731875,15.934113543750001,46.0,86.0
140,15.626078568750001,16.165139775,58.0,97.0
141,15.89393506875,16.2030861125,65.0,96.0
142,15.89393506875,16.2254074875,62.0,97.0
143,15.89393506875,16.2343360375,70.0,102.0
144,16.42964806875,16.516701431250002,65.0,96.0
145,16.42964806875,16.52339784375,70.0,102.0
146,16.42964806875,16.5289781875,62.0,95.0
147,16.697504568750002,16.998843131250002,70.0,97.0
148,16.697504568750002,17.00107526875,65.0,96.0
149,16.697504568750002,17.0021913375,62.0,97.0
150,16.16179156875,17.0870125625,46.0,85.0
151,16.697504568750002,17.111566075000002,53.0,53.0
152,16.697504568750002,17.21982474375,58.0,99.0
153,17.09928931875,17.23991398125,65.0,88.0
154,17.09928931875,17.248842531250002,62.0,82.0
155,17.09928931875,17.262235356250002,70.0,100.0
156,17.63500231875,17.723171750000002,58.0,99.0
157,17.09928931875,17.7343324375,46.0,79.0
158,17.50107406875,17.83589469375,65.0,99.0
159,17.50107406875,17.8414750375,62.0,97.0
160,17.50107406875,17.84705538125,70.0,102.0
161,18.03678706875,18.147277875,65.0,89.0
162,18.03678706875,18.1896884875,70.0,97.0
163,18.03678706875,18.3012953625,62.0,95.0
164,18.84035656875,19.107097,70.0,82.0
165,18.84035656875,19.114909481250002,67.0,89.0
166,18.84035656875,19.14169513125,63.0,99.0
167,18.304643568750002,19.3035251,39.0,99.0
168,19.24214131875,19.321382200000002,67.0,83.0
169,18.84035656875,19.3414714375,51.0,99.0
170,19.24214131875,19.372721362500002,70.0,89.0
171,19.24214131875,19.386114187500002,63.0,86.0
172,19.64392606875,19.94303249375,67.0,96.0
173,19.64392606875,19.9820949,70.0,90.0
174,19.64392606875,20.0178091,63.0,93.0
175,20.17963906875,20.256647812500002,67.0,90.0
176,19.37606956875,20.32249586875,39.0,90.0
177,19.911782568750002,20.35821006875,51.0,102.0
178,20.17963906875,20.5111114875,63.0,95.0
179,20.17963906875,20.52562038125,70.0,88.0
180,20.71535206875,20.763343025,70.0,59.0
181,20.71535206875,20.85374459375,63.0,79.0
182,20.44749556875,21.3570916,39.0,89.0
183,20.98320856875,21.470930612500002,46.0,35.0
184,20.98320856875,21.49436805625,51.0,99.0
185,21.384993318750002,21.54793935625,67.0,89.0
186,21.384993318750002,21.55910004375,70.0,86.0
187,21.384993318750002,21.5780732125,63.0,89.0
188,21.78677806875,21.919590250000002,67.0,95.0
189,21.92070631875,22.06244705,67.0,30.0
190,22.05463456875,22.129411175,46.0,53.0
191,21.78677806875,22.143920068750003,70.0,90.0
192,21.78677806875,22.16624144375,63.0,92.0
193,22.05463456875,22.2320895,51.0,96.0
194,21.518921568750002,22.3570892,39.0,97.0
195,22.32249106875,22.4084283625,67.0,60.0
196,22.32249106875,22.46088359375,70.0,86.0
197,22.32249106875,22.570258331250002,63.0,99.0
198,22.858204068750002,23.02784651875,67.0,69.0
199,22.858204068750002,23.03900720625,63.0,93.0
200,22.858204068750002,23.05463216875,60.0,89.0
201,22.59034756875,23.2566406125,36.0,69.0
202,23.126060568750002,23.424050925,67.0,90.0
203,23.126060568750002,23.44302409375,60.0,93.0
204,23.126060568750002,23.44302409375,63.0,102.0
205,23.126060568750002,23.61936295625,43.0,50.0
206,23.126060568750002,23.6271754375,48.0,85.0
207,23.52784531875,23.642800400000002,60.0,79.0
208,23.52784531875,23.64838074375,63.0,89.0
209,23.52784531875,23.6539610875,67.0,82.0
210,23.92963006875,24.25329000625,60.0,83.0
211,23.92963006875,24.26445069375,63.0,99.0
212,23.92963006875,24.27114710625,67.0,82.0
213,23.66177356875,24.30462916875,36.0,71.0
214,24.19748656875,24.68186040625,43.0,61.0
215,24.19748656875,24.69078895625,48.0,85.0
216,24.465343068750002,24.807976175,60.0,90.0
217,24.465343068750002,24.81802079375,63.0,107.0
218,24.465343068750002,24.82471720625,67.0,82.0
219,25.00105606875,25.0825290875,67.0,63.0
220,25.00105606875,25.085877293750002,63.0,85.0
221,25.00105606875,25.0959219125,60.0,70.0
222,24.733199568750003,25.379403375000003,36.0,81.0
223,25.26891256875,25.5713672,67.0,86.0
224,25.26891256875,25.584760025,63.0,117.0
225,25.26891256875,25.5892243,60.0,88.0
226,25.26891256875,25.741009650000002,43.0,56.0
227,25.26891256875,25.757750681250002,48.0,90.0
228,25.67069731875,25.7744917125,60.0,71.0
229,25.67069731875,25.79123274375,63.0,93.0
230,25.67069731875,25.79458095,67.0,79.0
231,25.67069731875,26.3325260875,36.0,69.0
232,26.072482068750002,26.4463651,60.0,86.0
233,26.072482068750002,26.45417758125,67.0,81.0
234,26.072482068750002,26.45864185625,63.0,107.0
235,26.340338568750003,26.714221600000002,48.0,100.0
236,26.60819506875,26.81578385625,67.0,82.0
237,26.60819506875,26.926274662500003,63.0,117.0
238,26.60819506875,26.943015693750002,60.0,90.0
239,27.14390806875,27.27783631875,68.0,95.0
240,27.14390806875,27.2856488,63.0,100.0
241,27.14390806875,27.3057380375,60.0,86.0
242,26.87605156875,27.6427908,44.0,72.0
243,27.41176456875,27.7030585125,60.0,83.0
244,27.41176456875,27.705290650000002,68.0,97.0
245,27.41176456875,27.71087099375,63.0,107.0
246,27.545692818750002,27.774486912500002,51.0,24.0
247,27.41176456875,27.91176336875,56.0,112.0
248,27.813549318750002,27.9485936375,60.0,74.0
249,27.813549318750002,27.96310253125,68.0,93.0
250,27.813549318750002,27.96533466875,63.0,100.0
251,28.21533406875,28.524485112500003,60.0,85.0
252,28.21533406875,28.53899400625,63.0,127.0
253,28.21533406875,28.545690418750002,68.0,102.0
254,27.813549318750002,28.70863645625,44.0,73.0
255,28.48319056875,28.899484212500003,51.0,39.0
256,28.48319056875,29.02113570625,56.0,97.0
257,28.75104706875,29.092564106250002,63.0,112.0
258,28.75104706875,29.1048408625,60.0,88.0
259,28.75104706875,29.111537275,68.0,92.0
260,29.286760068750002,29.38385805,63.0,52.0
261,29.286760068750002,29.4106437,56.0,81.0
262,29.286760068750002,29.416224043750002,51.0,63.0
263,29.554616568750003,29.665107375,63.0,77.0
264,29.554616568750003,29.666223443750003,56.0,90.0
265,29.01890356875,29.99434765625,44.0,90.0
266,29.554616568750003,30.14166873125,51.0,90.0
267,29.82247306875,30.1494812125,56.0,97.0
268,29.82247306875,30.1539454875,63.0,90.0
269,30.35818606875,30.4664447375,56.0,89.0
270,30.35818606875,30.472025081250003,63.0,68.0
271,30.62604256875,30.73764944375,63.0,85.0
272,30.62604256875,30.73988158125,56.0,95.0
273,30.09032956875,31.01220235625,44.0,88.0
274,30.893899068750002,31.04791655625,56.0,107.0
275,30.893899068750002,31.053496900000003,63.0,99.0
276,30.62604256875,31.10371999375,51.0,61.0
277,31.42961206875,31.54568321875,58.0,95.0
278,31.42961206875,31.553495700000003,65.0,70.0
279,31.69746856875,31.820236131250002,58.0,97.0
280,31.69746856875,31.825816475,65.0,82.0
281,31.161755568750003,31.879387775,46.0,90.0
282,31.96532506875,32.09813725,58.0,95.0
283,31.96532506875,32.09813725,65.0,79.0
284,31.96532506875,32.14278,46.0,61.0
285,32.23318156875,32.3570652,58.0,81.0
286,32.23318156875,32.36487768125,65.0,65.0
287,32.23318156875,32.37380623125,46.0,61.0
288,32.50103806875,32.6070646,58.0,93.0
289,32.50103806875,32.636082387500004,46.0,74.0
290,32.50103806875,32.6405466625,65.0,78.0
291,32.76889456875,32.8726889625,58.0,97.0
292,32.76889456875,32.88273358125,65.0,82.0
293,32.76889456875,32.903938887500004,46.0,82.0
294,33.03675106875,33.2476880625,58.0,102.0
295,33.03675106875,33.27112550625,65.0,89.0
296,33.03675106875,33.3325092875,46.0,100.0
297,33.30460756875,33.3325092875,46.0,107.0
298,33.30460756875,33.51219635625,58.0,117.0
299,33.30460756875,33.52782131875,65.0,92.0
300,33.57246406875,33.70192804375,65.0,70.0
301,33.57246406875,33.71532086875,58.0,97.0
302,33.57246406875,33.79567781875,46.0,102.0
303,33.84032056875,33.973132750000005,58.0,81.0
304,33.84032056875,33.977597025,65.0,69.0
305,33.84032056875,33.9932219875,46.0,73.0
306,34.10817706875,34.238757112500004,58.0,93.0
307,34.10817706875,34.256614212500004,65.0,69.0
308,34.10817706875,34.25773028125,46.0,66.0
309,34.37603356875,34.50103326875,58.0,81.0
310,34.37603356875,34.50549754375,65.0,66.0
311,34.37603356875,34.51219395625,46.0,75.0
312,34.643890068750004,34.756613012500004,46.0,83.0
313,34.643890068750004,34.7610772875,58.0,88.0
314,34.643890068750004,34.76665763125,65.0,67.0
315,34.911746568750004,35.006612412500004,58.0,92.0
316,34.911746568750004,35.0177731,65.0,69.0
317,34.911746568750004,35.02112130625,46.0,100.0
318,35.179603068750005,35.395004337500005,58.0,100.0
319,35.179603068750005,35.40951323125,46.0,112.0
320,35.179603068750005,35.42513819375,65.0,77.0
321,35.7142,35.765539162500005,67.0,89.0
322,35.7142,35.7677713,70.0,99.0
323,35.7142,35.80013729375,63.0,96.0
324,35.446343500000005,35.9842886375,39.0,97.0
325,35.9820565,36.09477944375,67.0,102.0
326,35.9820565,36.22870769375,70.0,122.0
327,35.9820565,36.25884155,63.0,107.0
328,35.9820565,36.3905376625,46.0,59.0
329,35.9820565,36.4262518625,51.0,93.0
330,36.38384125,36.44299289375,67.0,102.0
331,36.38384125,36.47870709375,63.0,100.0
332,36.38384125,36.479823162500004,70.0,117.0
333,36.785626,36.852590125,67.0,112.0
334,36.785626,36.9351792125,70.0,117.0
335,36.785626,37.0244647125,63.0,117.0
336,37.187410750000005,37.25772308125,67.0,102.0
337,36.5177695,37.27558018125,39.0,83.0
338,37.187410750000005,37.307946175000005,70.0,127.0
339,37.187410750000005,37.361517475,63.0,112.0
340,36.919554250000004,37.36263354375,51.0,93.0
341,36.919554250000004,37.454151181250005,46.0,65.0
342,37.5891955,37.6963381,67.0,100.0
343,37.5891955,37.746561193750004,63.0,107.0
344,37.5891955,37.755489743750005,70.0,107.0
345,37.857052,37.92290005625,67.0,96.0
346,37.857052,37.936292881250004,70.0,97.0
347,37.857052,37.9463375,63.0,95.0
348,37.5891955,38.186292281250005,39.0,102.0
349,38.124908500000004,38.343657975,67.0,107.0
350,38.124908500000004,38.35370259375,70.0,112.0
351,38.124908500000004,38.3905328625,63.0,107.0
352,38.124908500000004,38.5333896625,46.0,36.0
353,38.124908500000004,38.56240745,51.0,85.0
354,38.52669325,38.63718405625,67.0,99.0
355,38.52669325,38.6896392875,63.0,96.0
356,38.52669325,38.691871425,70.0,107.0
357,38.79454975,38.87825490625,67.0,102.0
358,38.79454975,38.918433381250004,70.0,102.0
359,38.79454975,38.9396386875,63.0,96.0
360,38.928478,39.16954885,46.0,37.0
361,38.928478,39.176245262500004,51.0,95.0
362,38.52669325,39.26218255625,39.0,90.0
363,39.1963345,39.3213342,67.0,107.0
364,39.1963345,39.340307368750004,70.0,127.0
365,39.1963345,39.3458877125,63.0,99.0
366,39.464191,39.55012829375,67.0,93.0
367,39.464191,39.593654975,70.0,112.0
368,39.464191,39.65503875625,63.0,107.0
369,39.999904,40.102582325,60.0,92.0
370,39.999904,40.111510875,67.0,81.0
371,39.999904,40.115975150000004,63.0,100.0
372,39.7320475,40.28673366875,36.0,89.0
373,40.2677605,40.535617,67.0,89.0
374,40.2677605,40.54454555,60.0,97.0
375,40.2677605,40.55459016875,63.0,127.0
376,40.2677605,40.719768343750005,48.0,81.0
377,40.2677605,40.72423261875,43.0,50.0
378,40.66954525,40.82021453125,60.0,93.0
379,40.66954525,40.83360735625,63.0,122.0
380,40.66954525,40.83583949375,67.0,96.0
381,40.66954525,41.24208851875,36.0,86.0
382,41.07133,41.374900700000005,60.0,112.0
383,41.07133,41.388293525,67.0,100.0
384,41.07133,41.399454212500004,63.0,127.0
385,41.339186500000004,41.807935375,43.0,72.0
386,41.339186500000004,41.852578125,48.0,93.0
387,41.607043000000004,41.9217743875,60.0,99.0
388,41.607043000000004,41.92289045625,67.0,93.0
389,41.607043000000004,41.925122593750004,63.0,127.0
390,42.142756,42.235389706250004,60.0,89.0
391,42.142756,42.24208611875,63.0,122.0
392,42.142756,42.2432021875,67.0,88.0
393,41.874899500000005,42.47199628125,36.0,83.0
394,42.4106125,42.641638731250005,67.0,89.0
395,42.4106125,42.64387086875,60.0,96.0
396,42.4106125,42.65949583125,63.0,122.0
397,42.4106125,42.8458793125,43.0,82.0
398,42.4106125,42.848111450000005,48.0,95.0
399,42.812397250000004,42.9530219125,67.0,97.0
400,42.812397250000004,42.95525405,60.0,100.0
401,42.812397250000004,42.96306653125,63.0,127.0
402,43.214182,43.295655018750004,67.0,99.0
403,43.214182,43.29788715625,63.0,127.0
404,43.214182,43.30011929375,60.0,95.0
405,42.812397250000004,43.49654739375,36.0,95.0
406,43.4820385,43.584716825,67.0,100.0
407,43.4820385,43.588065031250004,63.0,127.0
408,43.4820385,43.5914132375,60.0,99.0
409,43.4820385,43.795653818750004,48.0,100.0
410,43.749895,43.88717145625,67.0,92.0
411,43.749895,43.9708766125,63.0,127.0
412,43.749895,44.1048048625,60.0,100.0
413,44.285608,44.38493811875,60.0,96.0
414,44.285608,44.38493811875,63.0,127.0
415,44.285608,44.389402393750004,68.0,112.0
416,44.0177515,44.79341928125,44.0,102.0
417,44.553464500000004,44.816856725,68.0,112.0
418,44.553464500000004,44.82243706875,60.0,97.0
419,44.553464500000004,44.829133481250004,63.0,127.0
420,44.68739275,44.908374362500005,51.0,23.0
421,44.95524925,45.084713225,60.0,95.0
422,44.95524925,45.0869453625,63.0,127.0
423,44.553464500000004,45.10145425625,56.0,90.0
424,44.95524925,45.1070346,68.0,107.0
425,45.6248905,45.69297069375,51.0,42.0
426,45.357034,45.69743496875,63.0,127.0
427,45.357034,45.6985510375,60.0,100.0
428,45.357034,45.7298009625,68.0,112.0
429,45.089177500000005,46.00770208125,44.0,93.0
430,45.892747,46.066853725,51.0,24.0
431,45.6248905,46.06796979375,56.0,117.0
432,45.892747,46.218639075,63.0,127.0
433,45.892747,46.22310335,60.0,97.0
434,45.892747,46.234264037500004,68.0,112.0
435,46.42846,46.5199776375,68.0,99.0
436,46.42846,46.5244419125,60.0,88.0
437,46.42846,46.526674050000004,63.0,122.0
438,46.6963165,46.94296769375,68.0,102.0
439,46.6963165,46.95189624375,60.0,95.0
440,46.6963165,46.95189624375,63.0,127.0
441,46.1606035,47.0199764375,44.0,102.0
442,46.6963165,47.0824762875,51.0,64.0
443,46.6963165,47.1583689625,56.0,112.0
444,47.09810125,47.23760984375,60.0,92.0
445,47.09810125,47.245422325,63.0,127.0
446,47.09810125,47.25769908125,68.0,122.0
447,47.499886000000004,47.6092607375,60.0,86.0
448,47.499886000000004,47.61707321875,63.0,127.0
449,47.499886000000004,47.63381425,68.0,112.0
450,47.767742500000004,47.880465443750005,60.0,89.0
451,47.767742500000004,47.88381365,63.0,127.0
452,47.767742500000004,47.88492971875,51.0,69.0
453,47.767742500000004,47.8949743375,68.0,112.0
454,47.767742500000004,48.017741900000004,56.0,102.0
455,47.09810125,48.043411481250004,44.0,97.0
456,48.035599000000005,48.294526950000005,68.0,107.0
457,48.035599000000005,48.29787515625,63.0,127.0
458,48.035599000000005,48.302339431250005,60.0,95.0
459,48.571312,48.665061775000005,60.0,99.0
460,48.571312,48.690731356250005,65.0,122.0
461,48.571312,48.6963117,68.0,122.0
462,48.303455500000005,48.913945106250004,41.0,97.0
463,48.8391685,49.085819693750004,60.0,96.0
464,48.8391685,49.094748243750004,65.0,112.0
465,48.8391685,49.09698038125,68.0,102.0
466,48.8391685,49.28224779375,48.0,78.0
467,48.8391685,49.301220962500004,53.0,92.0
468,49.240953250000004,49.36706901875,60.0,93.0
469,49.240953250000004,49.389390393750006,65.0,100.0
470,49.240953250000004,49.40166715,68.0,107.0
471,49.240953250000004,49.9351480125,41.0,79.0
472,49.642738,50.00546034375,60.0,99.0
473,49.642738,50.008808550000005,68.0,112.0
474,49.642738,50.00992461875,65.0,100.0
475,50.178451,50.24653119375,68.0,93.0
476,50.178451,50.307914975,65.0,99.0
477,49.9105945,50.34697738125,53.0,102.0
478,50.178451,50.48090563125,60.0,97.0
479,50.714164000000004,50.82242266875,65.0,99.0
480,50.714164000000004,50.828003012500005,62.0,107.0
481,50.714164000000004,50.83023515,70.0,112.0
482,50.982020500000004,51.25992161875,70.0,112.0
483,50.982020500000004,51.26215375625,65.0,102.0
484,50.982020500000004,51.26885016875,62.0,96.0
485,50.4463075,51.29786795625,46.0,95.0
486,50.982020500000004,51.40947483125,53.0,37.0
487,51.38380525,51.550099493750004,65.0,107.0
488,50.982020500000004,51.557911975,58.0,107.0
489,51.38380525,51.56349231875,62.0,100.0
490,51.38380525,51.57465300625,70.0,117.0
491,51.78559,51.905009356250005,65.0,127.0
492,51.78559,51.911705768750004,62.0,112.0
493,51.78559,51.92509859375,70.0,122.0
494,51.78559,51.9262146625,53.0,51.0
495,51.78559,51.93737535,58.0,112.0
496,52.0534465,52.180678337500005,65.0,102.0
497,52.0534465,52.18625868125,62.0,100.0
498,52.0534465,52.18625868125,70.0,117.0
499,52.0534465,52.28893700625,53.0,67.0
500,51.38380525,52.3034459,46.0,99.0
501,52.0534465,52.3034459,58.0,127.0
502,52.321303,52.421749187500005,65.0,117.0
503,52.321303,52.464159800000004,70.0,117.0
504,52.321303,52.48536510625,62.0,117.0
505,52.857016,52.9083551625,67.0,89.0
506,52.857016,52.9105873,70.0,99.0
507,52.857016,52.94295329375,63.0,96.0
508,52.5891595,53.127104637500004,39.0,97.0
509,53.1248725,53.23759544375,67.0,102.0
510,53.1248725,53.37152369375,70.0,122.0
511,53.1248725,53.40165755,63.0,107.0
512,53.1248725,53.533353662500005,46.0,59.0
513,53.1248725,53.5690678625,51.0,93.0
514,53.52665725,53.585808893750006,67.0,102.0
515,53.52665725,53.62152309375,63.0,100.0
516,53.52665725,53.6226391625,70.0,117.0
517,53.928442000000004,53.995406125,67.0,112.0
518,53.928442000000004,54.0779952125,70.0,117.0
519,53.928442000000004,54.1672807125,63.0,117.0
520,54.33022675,54.40053908125,67.0,102.0
521,53.6605855,54.41839618125,39.0,83.0
522,54.33022675,54.450762175,70.0,127.0
523,54.33022675,54.504333475,63.0,112.0
524,54.06237025,54.505449543750004,51.0,93.0
525,54.06237025,54.59696718125,46.0,65.0
526,54.732011500000006,54.8391541,67.0,100.0
527,54.732011500000006,54.88937719375,63.0,107.0
528,54.732011500000006,54.89830574375,70.0,107.0
529,54.999868,55.065716056250004,67.0,96.0
530,54.999868,55.07910888125,70.0,97.0
531,54.999868,55.0891535,63.0,95.0
532,54.732011500000006,55.32910828125,39.0,102.0
533,55.2677245,55.486473975,67.0,107.0
534,55.2677245,55.496518593750004,70.0,112.0
535,55.2677245,55.533348862500006,63.0,107.0
536,55.2677245,55.6762056625,46.0,36.0
537,55.2677245,55.705223450000005,51.0,85.0
538,55.669509250000004,55.78000005625,67.0,99.0
539,55.669509250000004,55.832455287500004,63.0,96.0
540,55.669509250000004,55.834687425000006,70.0,107.0
541,55.937365750000005,56.02107090625,67.0,102.0
542,55.937365750000005,56.06124938125,70.0,102.0
543,55.937365750000005,56.082454687500004,63.0,96.0
544,56.071294,56.31236485,46.0,37.0
545,56.071294,56.3190612625,51.0,95.0
546,55.669509250000004,56.40499855625,39.0,90.0
547,56.3391505,56.4641502,67.0,107.0
548,56.3391505,56.48312336875,70.0,127.0
549,56.3391505,56.488703712500005,63.0,99.0
550,56.607007,56.69294429375,67.0,93.0
551,56.607007,56.736470975,70.0,112.0
552,56.607007,56.797854756250004,63.0,107.0
553,57.142720000000004,57.245398325000004,60.0,92.0
554,57.142720000000004,57.254326875000004,67.0,81.0
555,57.142720000000004,57.25879115,63.0,100.0
556,56.874863500000004,57.42954966875,36.0,89.0
557,57.410576500000005,57.678433000000005,67.0,89.0
558,57.410576500000005,57.687361550000006,60.0,97.0
559,57.410576500000005,57.69740616875,63.0,127.0
560,57.410576500000005,57.86258434375,48.0,81.0
561,57.410576500000005,57.867048618750005,43.0,50.0
562,57.81236125,57.963030531250006,60.0,93.0
563,57.81236125,57.97642335625,63.0,122.0
564,57.81236125,57.978655493750004,67.0,96.0
565,57.81236125,58.384904518750005,36.0,86.0
566,58.214146,58.5177167,60.0,112.0
567,58.214146,58.531109525000005,67.0,100.0
568,58.214146,58.5422702125,63.0,127.0
569,58.4820025,58.950751375,43.0,72.0
570,58.4820025,58.995394125000004,48.0,93.0
571,58.749859,59.064590387500004,60.0,99.0
572,58.749859,59.065706456250005,67.0,93.0
573,58.749859,59.06793859375,63.0,127.0
574,59.285572,59.37820570625,60.0,89.0
575,59.285572,59.384902118750006,63.0,122.0
576,59.285572,59.3860181875,67.0,88.0
577,59.0177155,59.61481228125,36.0,83.0
578,59.5534285,59.78445473125,67.0,89.0
579,59.5534285,59.78668686875,60.0,96.0
580,59.5534285,59.80231183125,63.0,122.0
581,59.5534285,59.9886953125,43.0,82.0
582,59.5534285,59.99092745,48.0,95.0
583,59.95521325,60.0958379125,67.0,97.0
584,59.95521325,60.098070050000004,60.0,100.0
585,59.95521325,60.10588253125,63.0,127.0
586,60.356998000000004,60.43847101875,67.0,99.0
587,60.356998000000004,60.44070315625,63.0,127.0
588,60.356998000000004,60.442935293750004,60.0,95.0
589,59.95521325,60.63936339375,36.0,95.0
590,60.624854500000005,60.727532825000004,67.0,100.0
591,60.624854500000005,60.73088103125,63.0,127.0
592,60.624854500000005,60.7342292375,60.0,99.0
593,60.624854500000005,60.93846981875,48.0,100.0
594,60.892711000000006,61.029987456250005,67.0,92.0
595,60.892711000000006,61.1136926125,63.0,127.0
596,60.892711000000006,61.2476208625,60.0,100.0
597,61.428424,61.52775411875,60.0,96.0
598,61.428424,61.52775411875,63.0,127.0
599,61.428424,61.53221839375,68.0,112.0
600,61.1605675,61.93623528125,44.0,102.0
601,61.6962805,61.959672725000004,68.0,112.0
602,61.6962805,61.96525306875,60.0,97.0
603,61.6962805,61.97194948125,63.0,127.0
604,61.830208750000004,62.0511903625,51.0,23.0
605,62.098065250000005,62.227529225000005,60.0,95.0
606,62.098065250000005,62.2297613625,63.0,127.0
607,61.6962805,62.244270256250005,56.0,90.0
608,62.098065250000005,62.2498506,68.0,107.0
609,62.7677065,62.83578669375,51.0,42.0
610,62.49985,62.840250968750006,63.0,127.0
611,62.49985,62.8413670375,60.0,100.0
612,62.49985,62.872616962500004,68.0,112.0
613,62.2319935,63.150518081250006,44.0,93.0
614,63.035563,63.209669725000005,51.0,24.0
615,62.7677065,63.210785793750006,56.0,117.0
616,63.035563,63.361455075,63.0,127.0
617,63.035563,63.365919350000006,60.0,97.0
618,63.035563,63.3770800375,68.0,112.0
619,63.571276000000005,63.6627936375,68.0,99.0
620,63.571276000000005,63.667257912500006,60.0,88.0
621,63.571276000000005,63.66949005,63.0,122.0
622,63.839132500000005,64.08578369375,68.0,102.0
623,63.839132500000005,64.09471224375,60.0,95.0
624,63.839132500000005,64.09471224375,63.0,127.0
625,63.303419500000004,64.1627924375,44.0,102.0
626,63.839132500000005,64.2252922875,51.0,64.0
627,63.839132500000005,64.3011849625,56.0,112.0
628,64.24091725000001,64.38042584375,60.0,92.0
629,64.24091725000001,64.388238325,63.0,127.0
630,64.24091725000001,64.40051508125,68.0,122.0
631,64.642702,64.7520767375,60.0,86.0
632,64.642702,64.75988921875,63.0,127.0
633,64.642702,64.77663025,68.0,112.0
634,64.91055850000001,65.02328144375001,60.0,89.0
635,64.91055850000001,65.02662965,63.0,127.0
636,64.91055850000001,65.02774571875,51.0,69.0
637,64.91055850000001,65.0377903375,68.0,112.0
638,64.91055850000001,65.1605579,56.0,102.0
639,64.24091725000001,65.18622748125,44.0,97.0
640,65.178415,65.43734295,68.0,107.0
641,65.178415,65.44069115625,63.0,127.0
642,65.178415,65.44515543125,60.0,95.0
643,65.714128,65.80787777500001,60.0,99.0
644,65.714128,65.83354735625001,65.0,122.0
645,65.714128,65.8391277,68.0,122.0
646,65.44627150000001,66.05676110625001,41.0,97.0
647,65.9819845,66.22863569375001,60.0,96.0
648,65.9819845,66.23756424375,65.0,112.0
649,65.9819845,66.23979638125,68.0,102.0
650,65.9819845,66.42506379375,48.0,78.0
651,65.9819845,66.44403696250001,53.0,92.0
652,66.38376925,66.50988501875,60.0,93.0
653,66.38376925,66.53220639375,65.0,100.0
654,66.38376925,66.54448315,68.0,107.0
655,66.38376925,67.0779640125,41.0,79.0
656,66.785554,67.14827634375,60.0,99.0
657,66.785554,67.15162455000001,68.0,112.0
658,66.785554,67.15274061875,65.0,100.0
659,67.321267,67.38934719375,68.0,93.0
660,67.321267,67.450730975,65.0,99.0
661,67.0534105,67.48979338125001,53.0,102.0
662,67.321267,67.62372163125,60.0,97.0
663,67.85698000000001,67.96523866875,65.0,99.0
664,67.85698000000001,67.9708190125,62.0,107.0
665,67.85698000000001,67.97305115,70.0,112.0
666,68.1248365,68.40273761875001,70.0,112.0
667,68.1248365,68.40496975625,65.0,102.0
668,68.1248365,68.41166616875,62.0,96.0
669,67.5891235,68.44068395625,46.0,95.0
670,68.1248365,68.55229083125,53.0,37.0
671,68.52662125,68.69291549375001,65.0,107.0
672,68.1248365,68.700727975,58.0,107.0
673,68.52662125,68.70630831875,62.0,100.0
674,68.52662125,68.71746900625,70.0,117.0
675,68.92840600000001,69.04782535625,65.0,127.0
676,68.92840600000001,69.05452176875,62.0,112.0
677,68.92840600000001,69.06791459375,70.0,122.0
678,68.92840600000001,69.0690306625,53.0,51.0
679,68.92840600000001,69.08019135,58.0,112.0
680,69.1962625,69.32349433750001,65.0,102.0
681,69.1962625,69.32907468125,62.0,100.0
682,69.1962625,69.32907468125,70.0,117.0
683,69.1962625,69.43175300625,53.0,67.0
684,68.52662125,69.4462619,46.0,99.0
685,69.1962625,69.4462619,58.0,127.0
686,69.464119,69.56456518750001,65.0,117.0
687,69.464119,69.6069758,70.0,117.0
688,69.464119,69.62818110625,62.0,117.0
689,70.00094806875,70.084653225,70.0,100.0
690,70.00094806875,70.0958139125,67.0,92.0
691,70.00094806875,70.10809066875001,63.0,102.0
692,69.73309156875,70.26210815625001,39.0,112.0
693,70.26880456875,70.38375965,67.0,102.0
694,70.40273281875,70.4752772875,67.0,25.0
695,70.26880456875,70.53219679375,70.0,112.0
696,70.26880456875,70.557866375,63.0,117.0
697,70.26880456875,70.7520623375,46.0,59.0
698,70.26880456875,70.81567825625001,51.0,107.0
699,70.67058931875,70.843579975,67.0,97.0
700,70.67058931875,70.8770620375,70.0,107.0
701,70.67058931875,70.8815263125,63.0,99.0
702,71.07237406875001,71.14603460625,67.0,122.0
703,71.07237406875001,71.173936325,70.0,122.0
704,71.07237406875001,71.20072197500001,63.0,117.0
705,70.80451756875,71.77661345,39.0,85.0
706,71.34023056875,71.84915791875001,46.0,58.0
707,71.34023056875,71.915005975,51.0,117.0
708,71.60808706875001,71.9797379625,67.0,117.0
709,71.60808706875001,71.98978258125,70.0,117.0
710,71.60808706875001,71.99424685625,63.0,117.0
711,72.14380006875,72.23085343125,67.0,93.0
712,72.14380006875,72.25763908125,70.0,97.0
713,72.14380006875,72.26991583750001,63.0,97.0
714,72.41165656875,72.42504939375,66.0,76.0
715,72.41165656875,72.5377723375,67.0,107.0
716,72.41165656875,72.6583077625,70.0,112.0
717,72.41165656875,72.673932725,63.0,100.0
718,71.87594356875,72.85361979375,39.0,97.0
719,72.81344131875001,72.95183384375001,67.0,99.0
720,72.81344131875001,72.96522666875,70.0,112.0
721,72.67951306875,72.97750342500001,46.0,26.0
722,72.81344131875001,72.97861949375,63.0,107.0
723,72.41165656875,73.02326224375,51.0,117.0
724,73.21522606875,73.2788419875,67.0,107.0
725,73.21522606875,73.31344011875001,70.0,112.0
726,73.21522606875,73.31567225625,63.0,117.0
727,73.48308256875,73.5779484125,46.0,62.0
728,73.48308256875,73.584644825,51.0,127.0
729,72.94736956875,73.593573375,39.0,100.0
730,73.48308256875,73.61031440625,67.0,97.0
731,73.48308256875,73.64379646875,63.0,99.0
732,73.48308256875,73.70071597500001,70.0,127.0
733,73.75093906875,74.06232225000001,38.0,97.0
734,74.01879556875001,74.14825954375,63.0,112.0
735,74.01879556875001,74.15718809375001,60.0,107.0
736,74.01879556875001,74.16165236875,67.0,93.0
737,74.28665206875,74.3949107375,67.0,88.0
738,74.28665206875,74.40049108125001,60.0,88.0
739,74.28665206875,74.40830356250001,63.0,112.0
740,74.01879556875001,74.66611544375,36.0,92.0
741,74.55450856875001,74.81232045,67.0,93.0
742,74.55450856875001,74.82124900000001,63.0,127.0
743,74.55450856875001,74.8234811375,60.0,102.0
744,74.55450856875001,75.03218599375,43.0,77.0
745,74.55450856875001,75.03218599375,48.0,95.0
746,74.95629331875,75.09915011875,63.0,122.0
747,74.95629331875,75.10138225625,67.0,100.0
748,74.95629331875,75.11031080625,60.0,100.0
749,75.35807806875,75.6895504875,60.0,95.0
750,75.35807806875,75.6895504875,63.0,107.0
751,75.35807806875,75.6895504875,67.0,81.0
752,75.09022156875,75.7498182,36.0,77.0
753,75.62593456875,76.071246,43.0,78.0
754,75.62593456875,76.08129061875,48.0,99.0
755,75.89379106875,76.22414741875001,63.0,112.0
756,75.89379106875,76.2297277625,60.0,95.0
757,75.89379106875,76.23307596875,67.0,86.0
758,76.42950406875,76.51209315625,63.0,107.0
759,76.42950406875,76.5355306,60.0,83.0
760,76.42950406875,76.5377627375,67.0,81.0
761,76.16164756875,76.78553000000001,36.0,76.0
762,76.69736056875,76.986422375,63.0,117.0
763,76.69736056875,76.986422375,67.0,81.0
764,76.69736056875,76.9886545125,60.0,95.0
765,76.69736056875,77.15271661875,43.0,56.0
766,76.69736056875,77.26990383750001,48.0,86.0
767,77.09914531875,77.27771631875001,63.0,112.0
768,77.09914531875,77.281064525,67.0,86.0
769,77.09914531875,77.28664486875,60.0,83.0
770,77.50093006875001,77.620349425,67.0,88.0
771,77.50093006875001,77.62369763125,63.0,112.0
772,77.50093006875001,77.62816190625,60.0,90.0
773,77.23307356875,77.83686676250001,36.0,97.0
774,77.76878656875,77.90717909375,60.0,90.0
775,77.76878656875,77.9127594375,67.0,93.0
776,77.76878656875,77.92168798750001,63.0,112.0
777,77.76878656875,78.02994665625,48.0,95.0
778,78.03664306875001,78.07012513125001,67.0,58.0
779,78.03664306875001,78.173919525,63.0,117.0
780,78.03664306875001,78.191776625,60.0,95.0
781,78.30449956875,78.4105261,68.0,112.0
782,78.30449956875,78.4484724375,63.0,122.0
783,78.30449956875,78.45628491875,60.0,82.0
784,78.57235606875,78.6940075625,60.0,73.0
785,78.57235606875,78.70070397500001,63.0,102.0
786,78.57235606875,78.70070397500001,68.0,96.0
787,78.30449956875,78.950703375,44.0,90.0
788,78.84021256875,79.11922975625001,68.0,102.0
789,78.84021256875,79.120345825,63.0,117.0
790,78.84021256875,79.13373865,60.0,86.0
791,78.84021256875,79.29333648125001,51.0,47.0
792,78.84021256875,79.38931839375,56.0,99.0
793,79.24199731875001,79.44512183125,60.0,79.0
794,79.24199731875001,79.44958610625001,63.0,122.0
795,79.24199731875001,79.46297893125,68.0,102.0
796,79.64378206875,79.77659425,60.0,92.0
797,79.64378206875,79.781058525,68.0,107.0
798,79.64378206875,79.78440673125,63.0,127.0
799,79.91163856875,80.06007571250001,60.0,83.0
800,79.91163856875,80.06119178125,63.0,122.0
801,79.91163856875,80.07681674375,68.0,100.0
802,79.37592556875,80.0890935,44.0,81.0
803,79.91163856875,80.37815530625001,51.0,59.0
804,79.91163856875,80.468556875,56.0,89.0
805,80.17949506875,80.47525328750001,63.0,117.0
806,80.17949506875,80.4886461125,68.0,107.0
807,80.17949506875,80.48976218125,60.0,85.0
808,80.71520806875,80.81230605,63.0,107.0
809,80.71520806875,80.81788639375,60.0,85.0
810,80.71520806875,80.81900246250001,68.0,95.0
811,80.98306456875001,81.22413541875001,68.0,102.0
812,80.98306456875001,81.2297157625,60.0,92.0
813,80.98306456875001,81.23083183125,63.0,127.0
814,80.44735156875001,81.23752824375,44.0,99.0
815,80.98306456875001,81.43730455000001,51.0,63.0
816,80.98306456875001,81.48529550625,56.0,99.0
817,81.38484931875,81.61029520625,60.0,88.0
818,81.38484931875,81.61029520625,63.0,127.0
819,81.38484931875,81.6225719625,68.0,112.0
820,81.78663406875,81.90605342500001,60.0,93.0
821,81.78663406875,81.9127498375,63.0,127.0
822,81.78663406875,81.9127498375,68.0,112.0
823,82.05449056875,82.16274923750001,63.0,127.0
824,82.05449056875,82.191767025,60.0,99.0
825,82.05449056875,82.19623130000001,68.0,112.0
826,81.51877756875,82.36029340625001,44.0,96.0
827,82.32234706875,82.39823974375,68.0,56.0
828,82.32234706875,82.4127486375,63.0,122.0
829,82.32234706875,82.441766425,60.0,82.0
830,82.05449056875,82.5154269625,56.0,100.0
831,82.59020356875,82.65939983125,70.0,63.0
832,82.59020356875,82.7073907875,62.0,77.0
833,82.59020356875,82.70850685625,65.0,77.0
834,82.85806006875,82.9819437,65.0,96.0
835,82.85806006875,82.9819437,70.0,100.0
836,82.85806006875,82.98752404375,62.0,89.0
837,83.12591656875,83.41163016875001,70.0,107.0
838,83.12591656875,83.4127462375,62.0,95.0
839,83.12591656875,83.4127462375,65.0,102.0
840,82.45627531875,83.43171940625,46.0,93.0
841,83.12591656875,83.67055811875001,58.0,102.0
842,83.52770131875,83.68395094375,65.0,99.0
843,83.52770131875,83.70850445625,62.0,95.0
844,83.52770131875,83.71185266250001,70.0,112.0
845,83.92948606875001,84.2341728375,65.0,96.0
846,83.92948606875001,84.24421745625,62.0,95.0
847,83.92948606875001,84.25537814375001,70.0,107.0
848,84.19734256875,84.57345773750001,58.0,122.0
849,84.46519906875001,84.81229645,65.0,112.0
850,84.46519906875001,84.8189928625,62.0,102.0
851,84.46519906875001,84.83126961875,70.0,117.0
852,84.73305556875,84.84019816875,58.0,112.0
853,85.00091206875,85.084617225,53.0,67.0
854,85.00091206875,85.0957779125,58.0,82.0
855,83.66162956875,85.11028680625,46.0,107.0
856,85.00091206875,85.1225635625,65.0,99.0
857,85.00091206875,85.12814390625,62.0,100.0
858,85.00091206875,85.14153673125,70.0,107.0
859,85.26876856875,85.36698261875,53.0,70.0
860,85.26876856875,85.39153613125,58.0,127.0
861,85.26876856875,85.39600040625001,65.0,100.0
862,85.26876856875,85.397116475,62.0,99.0
863,85.26876856875,85.4105093,46.0,83.0
864,85.26876856875,85.41162536875001,70.0,112.0
865,85.53662506875,85.61921415625001,53.0,69.0
866,85.53662506875,85.656044425,58.0,99.0
867,85.53662506875,85.664972975,46.0,77.0
868,85.53662506875,85.66943725,65.0,97.0
869,85.53662506875,85.67724973125,62.0,96.0
870,85.53662506875,85.68059793750001,70.0,107.0
871,85.80448156875,85.8948831375,53.0,64.0
872,85.80448156875,85.91385630625,58.0,127.0
873,85.80448156875,85.91608844375,65.0,99.0
874,85.80448156875,85.91943665000001,62.0,99.0
875,85.80448156875,85.92278485625,70.0,102.0
876,85.80448156875,85.932829475,46.0,90.0
877,86.07233806875,86.14488253750001,53.0,53.0
878,86.07233806875,86.17501639375,58.0,112.0
879,86.07233806875,86.19064135625,65.0,99.0
880,86.07233806875,86.19510563125,70.0,102.0
881,86.07233806875,86.19622170000001,46.0,89.0
882,86.07233806875,86.19956990625,62.0,100.0
883,86.34019456875001,86.43171220625,53.0,49.0
884,86.34019456875001,86.4462211,58.0,117.0
885,86.34019456875001,86.45514965000001,65.0,102.0
886,86.34019456875001,86.45849785625,70.0,102.0
887,86.34019456875001,86.4663103375,46.0,88.0
888,86.34019456875001,86.4663103375,62.0,100.0
889,86.60805106875,86.66608664375,70.0,93.0
890,86.60805106875,86.6716669875,46.0,53.0
891,86.60805106875,86.67836340000001,58.0,112.0
892,86.60805106875,86.7029169125,62.0,117.0
893,86.87590756875001,86.9261306625,70.0,107.0
894,86.87590756875001,87.00425547500001,67.0,102.0
895,86.87590756875001,87.05447856875,63.0,122.0
896,87.14376406875,87.2207728125,67.0,99.0
897,87.14376406875,87.254254875,70.0,96.0
898,87.14376406875,87.26541556250001,63.0,96.0
899,87.41162056875001,87.67836100000001,70.0,127.0
900,87.41162056875001,87.6895216875,67.0,112.0
901,87.41162056875001,87.700682375,63.0,117.0
902,87.41162056875001,87.76206615625,51.0,107.0
903,87.81340531875,87.9395210875,67.0,112.0
904,87.81340531875,87.99644059375001,70.0,122.0
905,87.81340531875,87.99867273125001,63.0,117.0
906,87.94733356875,88.24197571875,51.0,117.0
907,88.21519006875,88.6180908875,67.0,107.0
908,88.21519006875,88.6225551625,70.0,122.0
909,88.21519006875,88.62478730000001,63.0,112.0
910,88.48304656875,88.81340291875,51.0,112.0
911,88.75090306875,89.1448753375,67.0,92.0
912,88.75090306875,89.15268781875001,63.0,102.0
913,88.75090306875,89.1671967125,70.0,107.0
914,89.01875956875,89.38036584375,51.0,107.0
915,89.28661606875,89.40715149375,67.0,88.0
916,89.28661606875,89.41831218125,70.0,96.0
917,89.28661606875,89.4395174875,63.0,107.0
918,86.87590756875001,89.4930887875,39.0,127.0
919,89.55447256875,89.807820175,67.0,93.0
920,89.55447256875,89.82679334375,70.0,102.0
921,89.55447256875,89.83014155000001,63.0,117.0
922,89.55447256875,89.9618376625,39.0,59.0
923,89.95625731875,90.08348915625001,67.0,93.0
924,89.95625731875,90.164962175,63.0,100.0
925,89.55447256875,90.17947106875,51.0,102.0
926,89.95625731875,90.19063175625,70.0,99.0
927,90.35804206875001,90.50424707500001,67.0,112.0
928,90.35804206875001,90.7163001375,70.0,112.0
929,90.35804206875001,90.73304116875,63.0,107.0
930,90.62589856875,90.75089826875,51.0,117.0
931,90.09018556875,90.77321964375001,39.0,99.0
932,90.89375506875001,91.01987083750001,70.0,100.0
933,90.89375506875001,91.120317025,63.0,122.0
934,91.16161156875,91.2207632125,63.0,34.0
935,91.42946806875,91.557815975,67.0,88.0
936,91.42946806875,91.56339631875001,63.0,112.0
937,91.42946806875,91.5645123875,60.0,99.0
938,91.16161156875,91.8234403375,36.0,105.0
939,91.69732456875,91.95402038125,67.0,93.0
940,91.69732456875,91.95625251875,60.0,92.0
941,91.69732456875,91.96071679375001,63.0,117.0
942,91.69732456875,92.17388592500001,48.0,96.0
943,91.69732456875,92.1984394375,43.0,69.0
944,92.09910931875001,92.26317142500001,60.0,90.0
945,92.09910931875001,92.27098390625001,63.0,112.0
946,92.09910931875001,92.29442135000001,67.0,93.0
947,92.50089406875,92.81339331875,60.0,89.0
948,92.50089406875,92.83013435000001,63.0,122.0
949,92.50089406875,92.8412950375,67.0,86.0
950,92.23303756875,92.906027025,36.0,95.0
951,92.76875056875001,93.23526730625001,48.0,95.0
952,92.76875056875001,93.2475440625,43.0,81.0
953,93.03660706875,93.38928479375001,60.0,92.0
954,93.03660706875,93.38928479375001,63.0,127.0
955,93.03660706875,93.39821334375,67.0,97.0
956,93.57232006875,93.68839121875,60.0,89.0
957,93.57232006875,93.69062335625,63.0,122.0
958,93.57232006875,93.70178404375001,67.0,85.0
959,93.30446356875001,93.95401558125,36.0,93.0
960,93.84017656875001,94.12365803125,60.0,95.0
961,93.84017656875001,94.1314705125,67.0,89.0
962,93.84017656875001,94.13705085625,63.0,127.0
963,93.84017656875001,94.3033451,43.0,76.0
964,93.84017656875001,94.3189700625,48.0,92.0
965,94.24196131875,94.4037912875,63.0,117.0
966,94.24196131875,94.40713949375001,60.0,90.0
967,94.24196131875,94.42499659375001,67.0,88.0
968,94.64374606875,94.76874576875001,63.0,122.0
969,94.64374606875,94.7698618375,60.0,97.0
970,94.64374606875,94.78437073125001,67.0,92.0
971,94.64374606875,94.82901348125,48.0,97.0
972,94.64374606875,95.02544158125,43.0,76.0
973,94.91160256875,95.0466468875,60.0,97.0
974,94.91160256875,95.04999509375,63.0,122.0
975,94.91160256875,95.0511111625,67.0,100.0
976,94.37588956875,95.11919135625,36.0,79.0
977,94.91160256875,95.2207536125,48.0,63.0
978,95.17945906875,95.25088746875001,67.0,86.0
979,95.17945906875,95.33794083125001,63.0,117.0
980,95.17945906875,95.356914,60.0,97.0
981,95.71517206875001,95.80668970625,68.0,63.0
982,95.71517206875001,95.8234307375,63.0,99.0
983,95.71517206875001,95.83793963125001,60.0,72.0
984,95.71517206875001,95.87811810625,51.0,49.0
985,95.98302856875,96.263161825,68.0,117.0
986,95.98302856875,96.2743225125,63.0,127.0
987,95.98302856875,96.27878678750001,60.0,107.0
988,95.44731556875,96.3859293875,44.0,89.0
989,95.98302856875,96.49976840000001,56.0,117.0
990,95.98302856875,96.50311660625,51.0,36.0
991,96.38481331875,96.5466432875,63.0,117.0
992,96.38481331875,96.557803975,68.0,107.0
993,96.38481331875,96.56115218125001,60.0,86.0
994,96.78659806875001,97.10467766250001,63.0,127.0
995,96.78659806875001,97.10579373125,60.0,100.0
996,96.78659806875001,97.11695441875,68.0,127.0
997,96.51874156875,97.45177504375,44.0,97.0
998,97.05445456875,97.50981061875001,51.0,71.0
999,97.05445456875,97.575658675,56.0,99.0
1000,97.32231106875001,97.67275665625,63.0,127.0
1001,97.32231106875001,97.67387272500001,60.0,93.0
1002,97.32231106875001,97.68838161875,68.0,112.0
1003,97.85802406875,97.96405060000001,60.0,92.0
1004,97.85802406875,97.97632735625001,63.0,122.0
1005,97.85802406875,97.99083625,68.0,99.0
1006,97.59016756875,98.3903888625,44.0,82.0
1007,98.12588056875,98.39485313750001,60.0,89.0
1008,98.12588056875,98.40266561875,63.0,122.0
1009,98.12588056875,98.40266561875,68.0,100.0
1010,98.25980881875,98.56895986250001,51.0,20.0
1011,98.12588056875,98.61025440625001,56.0,112.0
1012,98.52766531875001,98.72632555625,60.0,86.0
1013,98.52766531875001,98.73971838125,63.0,122.0
1014,98.52766531875001,98.763155825,68.0,107.0
1015,98.52766531875001,99.23078863125001,44.0,93.0
1016,99.19730656875001,99.27096710625,51.0,66.0
1017,99.19730656875001,99.28659206875001,56.0,100.0
1018,98.92945006875,99.29105634375,63.0,127.0
1019,98.92945006875,99.29217241250001,60.0,86.0
1020,98.92945006875,99.29775275625,68.0,122.0
1021,99.46516306875,99.647082275,68.0,102.0
1022,99.46516306875,99.65154655,63.0,117.0
1023,99.46516306875,99.77989445625,60.0,95.0
1024,100.00087606875,100.12029542500001,58.0,88.0
1025,100.00087606875,100.19060775625,62.0,89.0
1026,100.26873256875001,100.54440155,65.0,93.0
1027,100.26873256875001,100.55891044375001,62.0,100.0
1028,100.26873256875001,100.56225865,58.0,127.0
1029,99.73301956875001,100.6604727,34.0,107.0
1030,100.26873256875001,100.78212419375001,46.0,102.0
1031,100.67051731875,100.90489175625001,65.0,85.0
1032,100.67051731875,100.90712389375001,62.0,89.0
1033,100.67051731875,100.9171685125,58.0,99.0
1034,101.07230206875,101.3903816625,65.0,90.0
1035,101.07230206875,101.3926138,62.0,100.0
1036,101.07230206875,101.39484593750001,58.0,127.0
1037,101.34015856875,101.77988965625,46.0,95.0
1038,100.80444556875,101.8144877875,34.0,96.0
1039,101.60801506875,101.959576725,65.0,88.0
1040,101.60801506875,101.96069279375,58.0,127.0
1041,101.60801506875,101.9618088625,62.0,100.0
1042,101.87587156875,102.03881760625,46.0,117.0
1043,101.87587156875,102.04997829375,34.0,86.0
1044,102.14372806875001,102.2609152875,65.0,82.0
1045,102.14372806875001,102.26649563125001,62.0,95.0
1046,102.14372806875001,102.2676117,58.0,100.0
1047,102.41158456875,102.69283389375,65.0,90.0
1048,102.41158456875,102.70734278750001,62.0,100.0
1049,102.41158456875,102.70845885625,58.0,127.0
1050,102.41158456875,102.852431725,46.0,107.0
1051,102.41158456875,102.888145925,34.0,86.0
1052,102.81336931875,102.959574325,65.0,81.0
1053,102.81336931875,102.96069039375,58.0,112.0
1054,102.81336931875,102.98077963125,62.0,93.0
1055,102.94729756875,103.25644861250001,46.0,100.0
1056,103.21515406875001,103.3211806,65.0,89.0
1057,103.21515406875001,103.33010915,62.0,100.0
1058,103.21515406875001,103.3323412875,58.0,127.0
1059,102.94729756875,103.34461804375,34.0,97.0
1060,103.48301056875,103.55443896875,34.0,58.0
1061,103.48301056875,103.6068942,65.0,88.0
1062,103.48301056875,103.62140309375,62.0,100.0
1063,103.48301056875,103.6247513,58.0,127.0
1064,103.48301056875,103.65153695000001,46.0,122.0
1065,103.75086706875001,103.8859113875,58.0,122.0
1066,103.75086706875001,103.9171613125,62.0,97.0
1067,104.28658006875,104.36582095,67.0,76.0
1068,104.28658006875,104.39372266875,70.0,79.0
1069,104.28658006875,104.40265121875001,63.0,90.0
1070,104.55443656875,104.80666810625,67.0,112.0
1071,104.55443656875,104.82898948125,70.0,107.0
1072,104.55443656875,104.83122161875,63.0,112.0
1073,104.01872356875,104.9841230375,39.0,102.0
1074,104.95622131875001,105.0533193,67.0,95.0
1075,104.95622131875001,105.11470308125,63.0,100.0
1076,104.55443656875,105.13925659375,51.0,117.0
1077,104.95622131875001,105.15041728125,70.0,100.0
1078,105.35800606875,105.46514866875,67.0,107.0
1079,105.35800606875,105.73746944375,63.0,100.0
1080,105.35800606875,105.745281925,70.0,102.0
1081,105.09014956875001,105.8725137625,39.0,83.0
1082,105.62586256875001,105.98746884375001,51.0,107.0
1083,105.89371906875,106.075638275,67.0,97.0
1084,105.89371906875,106.147066675,63.0,112.0
1085,105.89371906875,106.15711129375,70.0,100.0
1086,106.42943206875,106.58121741875,62.0,79.0
1087,106.42943206875,106.58791383125,67.0,92.0
1088,106.42943206875,106.58791383125,70.0,95.0
1089,106.16157556875001,106.87139529375,43.0,88.0
1090,106.69728856875001,106.98523430625,62.0,99.0
1091,106.69728856875001,106.9885825125,70.0,117.0
1092,106.69728856875001,106.99193071875,67.0,97.0
1093,106.69728856875001,107.18501061250001,55.0,88.0
1094,106.69728856875001,107.1939391625,50.0,69.0
1095,107.09907331875,107.28992107500001,62.0,92.0
1096,107.09907331875,107.3189388625,67.0,100.0
1097,107.09907331875,107.32898348125,70.0,117.0
1098,107.50085806875,107.82228586875,62.0,89.0
1099,107.50085806875,107.83567869375,67.0,112.0
1100,107.50085806875,107.84795545,70.0,112.0
1101,107.23300156875,107.96960694375001,43.0,81.0
1102,107.76871456875,108.01648183125,50.0,56.0
1103,107.76871456875,108.0510799625,55.0,96.0
1104,108.03657106875,108.18389214375,67.0,100.0
1105,108.03657106875,108.20509745000001,70.0,100.0
1106,108.03657106875,108.27764191875,62.0,100.0
1107,108.57228406875001,108.7117926625,63.0,127.0
1108,108.57228406875001,108.7162569375,68.0,99.0
1109,108.57228406875001,108.72630155625001,60.0,88.0
1110,108.30442756875,108.91156896875,44.0,97.0
1111,108.84014056875,109.10576493125001,60.0,89.0
1112,108.84014056875,109.10576493125001,68.0,112.0
1113,108.84014056875,109.1135774125,63.0,127.0
1114,108.84014056875,109.30888944375,51.0,66.0
1115,108.84014056875,109.35130005625001,56.0,99.0
1116,109.24192531875,109.46737120625001,60.0,95.0
1117,109.24192531875,109.46737120625001,63.0,122.0
1118,109.24192531875,109.49750506250001,68.0,117.0
1119,109.64371006875001,109.99415565625,63.0,127.0
1120,109.91156656875,109.99527172500001,51.0,45.0
1121,109.64371006875001,109.999736,60.0,95.0
1122,109.64371006875001,110.01536096250001,68.0,122.0
1123,109.37585356875,110.37250296250001,44.0,99.0
1124,110.17942306875,110.37696723750001,63.0,127.0
1125,110.17942306875,110.39594040625,68.0,107.0
1126,109.91156656875,110.43835101875,56.0,100.0
1127,110.17942306875,110.49638659375,60.0,100.0
1128,110.71513606875,110.84683218125001,65.0,96.0
1129,110.71513606875,110.85129645625001,70.0,112.0
1130,110.71513606875,110.85464466250001,62.0,96.0
1131,110.98299256875,111.25196513750001,62.0,95.0
1132,110.98299256875,111.25419727500001,70.0,112.0
1133,110.98299256875,111.25531334375,65.0,99.0
1134,110.44727956875,111.3100007125,46.0,99.0
1135,110.98299256875,111.41602724375001,53.0,52.0
1136,110.98299256875,111.53656266875001,58.0,99.0
1137,111.38477731875001,111.5711608,65.0,100.0
1138,111.38477731875001,111.575625075,62.0,99.0
1139,111.38477731875001,111.5912500375,70.0,117.0
1140,111.78656206875,111.8948207375,65.0,102.0
1141,111.78656206875,111.8992850125,62.0,112.0
1142,111.78656206875,111.91937425,70.0,117.0
1143,112.05441856875001,112.1716057875,65.0,97.0
1144,112.05441856875001,112.1783022,62.0,97.0
1145,112.05441856875001,112.18834681875,70.0,107.0
1146,112.05441856875001,112.41825698125001,53.0,69.0
1147,112.05441856875001,112.47852469375,58.0,112.0
1148,112.32227506875,112.49638179375,62.0,95.0
1149,112.32227506875,112.49861393125,65.0,97.0
1150,111.51870556875001,112.5064264125,46.0,100.0
1151,112.32227506875,112.5198192375,70.0,112.0
1152,113.12584456875001,113.39258500000001,70.0,82.0
1153,113.12584456875001,113.40039748125001,67.0,89.0
1154,113.12584456875001,113.42718313125,63.0,99.0
1155,112.59013156875001,113.5890131,39.0,99.0
1156,113.52762931875,113.6068702,67.0,83.0
1157,113.12584456875001,113.6269594375,51.0,99.0
1158,113.52762931875,113.6582093625,70.0,89.0
1159,113.52762931875,113.6716021875,63.0,86.0
1160,113.92941406875,114.22852049375001,67.0,96.0
1161,113.92941406875,114.26758290000001,70.0,90.0
1162,113.92941406875,114.30329710000001,63.0,93.0
1163,114.46512706875001,114.5421358125,67.0,90.0
1164,113.66155756875,114.60798386875001,39.0,90.0
1165,114.19727056875,114.64369806875,51.0,102.0
1166,114.46512706875001,114.7965994875,63.0,95.0
1167,114.46512706875001,114.81110838125001,70.0,88.0
1168,115.00084006875001,115.048831025,70.0,59.0
1169,115.00084006875001,115.13923259375001,63.0,79.0
1170,114.73298356875,115.6425796,39.0,89.0
1171,115.26869656875,115.7564186125,46.0,35.0
1172,115.26869656875,115.77985605625001,51.0,99.0
1173,115.67048131875,115.83342735625,67.0,89.0
1174,115.67048131875,115.84458804375001,70.0,86.0
1175,115.67048131875,115.8635612125,63.0,89.0
1176,116.07226606875001,116.20507825,67.0,95.0
1177,116.20619431875001,116.34793505,67.0,30.0
1178,116.34012256875,116.414899175,46.0,53.0
1179,116.07226606875001,116.42940806875,70.0,90.0
1180,116.07226606875001,116.45172944375001,63.0,92.0
1181,116.34012256875,116.5175775,51.0,96.0
1182,115.80440956875,116.6425772,39.0,97.0
1183,116.60797906875,116.6939163625,67.0,60.0
1184,116.60797906875,116.74637159375,70.0,86.0
1185,116.60797906875,116.85574633125,63.0,99.0
1186,117.14369206875,117.31333451875001,67.0,69.0
1187,117.14369206875,117.32449520625,63.0,93.0
1188,117.14369206875,117.34012016875,60.0,89.0
1189,116.87583556875,117.54212861250001,36.0,69.0
1190,117.41154856875,117.709538925,67.0,90.0
1191,117.41154856875,117.72851209375,60.0,93.0
1192,117.41154856875,117.72851209375,63.0,102.0
1193,117.41154856875,117.90485095625,43.0,50.0
1194,117.41154856875,117.9126634375,48.0,85.0
1195,117.81333331875001,117.9282884,60.0,79.0
1196,117.81333331875001,117.93386874375001,63.0,89.0
1197,117.81333331875001,117.93944908750001,67.0,82.0
1198,118.21511806875,118.53877800625,60.0,83.0
1199,118.21511806875,118.54993869375001,63.0,99.0
1200,118.21511806875,118.55663510625,67.0,82.0
1201,117.94726156875001,118.59011716875,36.0,71.0
1202,118.48297456875001,118.96734840625001,43.0,61.0
1203,118.48297456875001,118.97627695625,48.0,85.0
1204,118.75083106875,119.09346417500001,60.0,90.0
1205,118.75083106875,119.10350879375001,63.0,107.0
1206,118.75083106875,119.11020520625,67.0,82.0
1207,119.28654406875,119.36801708750001,67.0,63.0
1208,119.28654406875,119.37136529375,63.0,85.0
1209,119.28654406875,119.3814099125,60.0,70.0
1210,119.01868756875001,119.66489137500001,36.0,81.0
1211,119.55440056875001,119.8568552,67.0,86.0
1212,119.55440056875001,119.87024802500001,63.0,117.0
1213,119.55440056875001,119.8747123,60.0,88.0
1214,119.55440056875001,120.02649765000001,43.0,56.0
1215,119.55440056875001,120.04323868125,48.0,90.0
1216,119.95618531875,120.05997971250001,60.0,71.0
1217,119.95618531875,120.07672074375,63.0,93.0
1218,119.95618531875,120.08006895000001,67.0,79.0
1219,119.95618531875,120.6180140875,36.0,69.0
1220,120.35797006875,120.73185310000001,60.0,86.0
1221,120.35797006875,120.73966558125001,67.0,81.0
1222,120.35797006875,120.74412985625,63.0,107.0
1223,120.62582656875,120.9997096,48.0,100.0
1224,120.89368306875001,121.10127185625001,67.0,82.0
1225,120.89368306875001,121.2117626625,63.0,117.0
1226,120.89368306875001,121.22850369375,60.0,90.0
1227,121.42939606875001,121.56332431875,68.0,95.0
1228,121.42939606875001,121.5711368,63.0,100.0
1229,121.42939606875001,121.59122603750001,60.0,86.0
1230,121.16153956875,121.9282788,44.0,72.0
1231,121.69725256875,121.98854651250001,60.0,83.0
1232,121.69725256875,121.99077865000001,68.0,97.0
1233,121.69725256875,121.99635899375001,63.0,107.0
1234,121.83118081875,122.05997491250001,51.0,24.0
1235,121.69725256875,122.19725136875,56.0,112.0
1236,122.09903731875,122.23408163750001,60.0,74.0
1237,122.09903731875,122.24859053125,68.0,93.0
1238,122.09903731875,122.25082266875,63.0,100.0
1239,122.50082206875001,122.8099731125,60.0,85.0
1240,122.50082206875001,122.82448200625001,63.0,127.0
1241,122.50082206875001,122.83117841875,68.0,102.0
1242,122.09903731875,122.99412445625,44.0,73.0
1243,122.76867856875,123.1849722125,51.0,39.0
1244,122.76867856875,123.30662370625001,56.0,97.0
1245,123.03653506875,123.37805210625001,63.0,112.0
1246,123.03653506875,123.3903288625,60.0,88.0
1247,123.03653506875,123.397025275,68.0,92.0
1248,123.57224806875,123.6849710125,60.0,76.0
1249,123.57224806875,123.6849710125,63.0,96.0
1250,123.57224806875,123.69278349375,68.0,76.0
1251,123.30439156875,124.02202377500001,44.0,86.0
1252,123.84010456875001,124.12135389375001,60.0,90.0
1253,123.84010456875001,124.12581816875,68.0,102.0
1254,123.84010456875001,124.12693423750001,63.0,122.0
1255,123.84010456875001,124.26532676250001,51.0,50.0
1256,123.84010456875001,124.33675516250001,56.0,99.0
1257,124.24188931875001,124.40595142500001,60.0,78.0
1258,124.24188931875001,124.41376390625001,63.0,100.0
1259,124.24188931875001,124.43496921250001,68.0,96.0
1260,124.64367406875,124.9840750375,63.0,107.0
1261,124.64367406875,124.98853931250001,60.0,82.0
1262,124.64367406875,124.99635179375001,68.0,102.0
1263,124.24188931875001,125.17603886250001,44.0,86.0
1264,125.17938706875,125.3211278,63.0,117.0
1265,125.17938706875,125.33452062500001,68.0,90.0
1266,124.91153056875001,125.37358303125,56.0,95.0
1267,125.17938706875,125.37581516875001,60.0,90.0
1268,125.71510006875,125.843447975,65.0,77.0
1269,125.71510006875,125.84456404375001,70.0,86.0
1270,125.71510006875,125.8456801125,62.0,72.0
1271,125.31331531875,125.9081799625,46.0,82.0
1272,125.98295656875001,126.25304520625001,70.0,102.0
1273,125.98295656875001,126.25862555,65.0,96.0
1274,125.98295656875001,126.26420589375,62.0,85.0
1275,126.25081306875,126.40036628125,53.0,1.0
1276,125.98295656875001,126.4996964,58.0,95.0
1277,126.38474131875,126.52201777500001,65.0,90.0
1278,126.38474131875,126.5287141875,62.0,81.0
1279,126.38474131875,126.53987487500001,70.0,96.0
1280,126.78652606875,127.10125745625001,65.0,97.0
1281,126.38474131875,127.1046056625,46.0,73.0
1282,126.78652606875,127.10906993750001,62.0,92.0
1283,126.78652606875,127.120230625,70.0,102.0
1284,127.05438256875,127.17715013125,53.0,66.0
1285,127.32223906875001,127.6179972875,65.0,96.0
1286,127.32223906875001,127.62357763125,62.0,89.0
1287,127.05438256875,127.62804190625,58.0,112.0
1288,127.32223906875001,127.63473831875001,70.0,100.0
1289,127.85795206875001,127.96509466875001,65.0,88.0
1290,127.85795206875001,127.97179108125,62.0,81.0
1291,127.85795206875001,127.98071963125001,70.0,96.0
1292,127.45616731875,128.18719235,46.0,92.0
1293,128.12580856875002,128.39478113750002,65.0,90.0
1294,128.12580856875002,128.40482575625,62.0,83.0
1295,128.12580856875002,128.40482575625,70.0,99.0
1296,128.12580856875002,128.5108522875,53.0,55.0
1297,128.12580856875002,128.6090663375,58.0,92.0
1298,128.52759331875,128.65705729375,65.0,93.0
1299,128.52759331875,128.66821798125,62.0,83.0
1300,128.52759331875,128.6782626,70.0,97.0
1301,128.92937806875,129.04544921875,65.0,92.0
1302,128.92937806875,129.04991349375,70.0,100.0
1303,128.92937806875,129.05884204375002,62.0,93.0
1304,129.19723456875002,129.32893068125,65.0,88.0
1305,129.19723456875002,129.334511025,62.0,79.0
1306,129.19723456875002,129.34009136875,70.0,96.0
1307,129.19723456875002,129.52089450625002,53.0,63.0
1308,129.19723456875002,129.5889747,58.0,96.0
1309,128.52759331875,129.63138531250002,46.0,95.0
1310,129.46509106875,129.6492424125,65.0,95.0
1311,129.46509106875,129.6604031,62.0,90.0
1312,129.46509106875,129.68607268125,70.0,99.0
1313,130.00080406875,130.05214323125,67.0,89.0
1314,130.00080406875,130.05437536875002,70.0,99.0
1315,130.00080406875,130.0867413625,63.0,96.0
1316,129.73294756875,130.27089270625,39.0,97.0
1317,130.26866056875,130.3813835125,67.0,102.0
1318,130.26866056875,130.5153117625,70.0,122.0
1319,130.26866056875,130.54544561875,63.0,107.0
1320,130.26866056875,130.67714173125,46.0,59.0
1321,130.26866056875,130.71285593125,51.0,93.0
1322,130.67044531875,130.7295969625,67.0,102.0
1323,130.67044531875,130.7653111625,63.0,100.0
1324,130.67044531875,130.76642723125,70.0,117.0
1325,131.07223006875,131.13919419375,67.0,112.0
1326,131.07223006875,131.22178328125,70.0,117.0
1327,131.07223006875,131.31106878125001,63.0,117.0
1328,131.47401481875,131.54432715000002,67.0,102.0
1329,130.80437356875,131.56218425,39.0,83.0
1330,131.47401481875,131.59455024375,70.0,127.0
1331,131.47401481875,131.64812154375,63.0,112.0
1332,131.20615831875,131.6492376125,51.0,93.0
1333,131.20615831875,131.74075525,46.0,65.0
1334,131.87579956875,131.98294216875001,67.0,100.0
1335,131.87579956875,132.0331652625,63.0,107.0
1336,131.87579956875,132.0420938125,70.0,107.0
1337,132.14365606875,132.209504125,67.0,96.0
1338,132.14365606875,132.22289695,70.0,97.0
1339,132.14365606875,132.23294156875,63.0,95.0
1340,131.87579956875,132.47289635,39.0,102.0
1341,132.41151256875,132.63026204375,67.0,107.0
1342,132.41151256875,132.6403066625,70.0,112.0
1343,132.41151256875,132.67713693125,63.0,107.0
1344,132.41151256875,132.81999373125,46.0,36.0
1345,132.41151256875,132.84901151875002,51.0,85.0
1346,132.81329731875002,132.92378812500002,67.0,99.0
1347,132.81329731875002,132.97624335625,63.0,96.0
1348,132.81329731875002,132.97847549375,70.0,107.0
1349,133.08115381875,133.16485897500002,67.0,102.0
1350,133.08115381875,133.20503745,70.0,102.0
1351,133.08115381875,133.22624275625,63.0,96.0
1352,133.21508206875,133.45615291875,46.0,37.0
1353,133.21508206875,133.46284933125,51.0,95.0
1354,132.81329731875002,133.54878662500002,39.0,90.0
1355,133.48293856875,133.60793826875002,67.0,107.0
1356,133.48293856875,133.6269114375,70.0,127.0
1357,133.48293856875,133.63249178125,63.0,99.0
1358,133.75079506875,133.83673236250002,67.0,93.0
1359,133.75079506875,133.88025904375002,70.0,112.0
1360,133.75079506875,133.941642825,63.0,107.0
1361,134.28650806875,134.38918639375,60.0,92.0
1362,134.28650806875,134.39811494375002,67.0,81.0
1363,134.28650806875,134.40257921875,63.0,100.0
1364,134.01865156875002,134.5733377375,36.0,89.0
1365,134.55436456875,134.82222106875,67.0,89.0
1366,134.55436456875,134.83114961875,60.0,97.0
1367,134.55436456875,134.84119423750002,63.0,127.0
1368,134.55436456875,135.0063724125,48.0,81.0
1369,134.55436456875,135.01083668750002,43.0,50.0
1370,134.95614931875,135.1068186,60.0,93.0
1371,134.95614931875,135.120211425,63.0,122.0
1372,134.95614931875,135.1224435625,67.0,96.0
1373,134.95614931875,135.52869258750002,36.0,86.0
1374,135.35793406875,135.66150476875,60.0,112.0
1375,135.35793406875,135.67489759375002,67.0,100.0
1376,135.35793406875,135.68605828125,63.0,127.0
1377,135.62579056875,136.09453944375,43.0,72.0
1378,135.62579056875,136.13918219375,48.0,93.0
1379,135.89364706875,136.20837845625002,60.0,99.0
1380,135.89364706875,136.209494525,67.0,93.0
1381,135.89364706875,136.2117266625,63.0,127.0
1382,136.42936006875001,136.521993775,60.0,89.0
1383,136.42936006875001,136.52869018750002,63.0,122.0
1384,136.42936006875001,136.52980625625,67.0,88.0
1385,136.16150356875,136.75860035,36.0,83.0
1386,136.69721656875,136.9282428,67.0,89.0
1387,136.69721656875,136.9304749375,60.0,96.0
1388,136.69721656875,136.9460999,63.0,122.0
1389,136.69721656875,137.13248338125,43.0,82.0
1390,136.69721656875,137.13471551875,48.0,95.0
1391,137.09900131875,137.23962598125001,67.0,97.0
1392,137.09900131875,137.24185811875,60.0,100.0
1393,137.09900131875,137.2496706,63.0,127.0
1394,137.50078606875002,137.5822590875,67.0,99.0
1395,137.50078606875002,137.584491225,63.0,127.0
1396,137.50078606875002,137.5867233625,60.0,95.0
1397,137.09900131875,137.7831514625,36.0,95.0
1398,137.76864256875,137.87132089375,67.0,100.0
1399,137.76864256875,137.8746691,63.0,127.0
1400,137.76864256875,137.87801730625,60.0,99.0
1401,137.76864256875,138.0822578875,48.0,100.0
1402,138.03649906875,138.173775525,67.0,92.0
1403,138.03649906875,138.25748068125,63.0,127.0
1404,138.03649906875,138.39140893125,60.0,100.0
1405,138.57221206875002,138.6715421875,60.0,96.0
1406,138.57221206875002,138.6715421875,63.0,127.0
1407,138.57221206875002,138.6760064625,68.0,112.0
1408,138.30435556875,139.08002335,44.0,102.0
1409,138.84006856875,139.10346079375,68.0,112.0
1410,138.84006856875,139.10904113750001,60.0,97.0
1411,138.84006856875,139.11573755,63.0,127.0
1412,138.97399681875,139.19497843125,51.0,23.0
1413,139.24185331875,139.37131729375,60.0,95.0
1414,139.24185331875,139.37354943125,63.0,127.0
1415,138.84006856875,139.388058325,56.0,90.0
1416,139.24185331875,139.39363866875001,68.0,107.0
1417,139.91149456875002,139.9795747625,51.0,42.0
1418,139.64363806875,139.9840390375,63.0,127.0
1419,139.64363806875,139.98515510625,60.0,100.0
1420,139.64363806875,140.01640503125,68.0,112.0
1421,139.37578156875,140.29430615,44.0,93.0
1422,140.17935106875,140.35345779375,51.0,24.0
1423,139.91149456875002,140.35457386250002,56.0,117.0
1424,140.17935106875,140.50524314375,63.0,127.0
1425,140.17935106875,140.50970741875,60.0,97.0
1426,140.17935106875,140.52086810625,68.0,112.0
1427,140.71506406875,140.80658170625,68.0,99.0
1428,140.71506406875,140.81104598125,60.0,88.0
1429,140.71506406875,140.81327811875002,63.0,122.0
1430,140.98292056875002,141.2295717625,68.0,102.0
1431,140.98292056875002,141.2385003125,60.0,95.0
1432,140.98292056875002,141.2385003125,63.0,127.0
1433,140.44720756875,141.30658050625001,44.0,102.0
1434,140.98292056875002,141.36908035625,51.0,64.0
1435,140.98292056875002,141.44497303125002,56.0,112.0
1436,141.38470531875,141.52421391250002,60.0,92.0
1437,141.38470531875,141.53202639375002,63.0,127.0
1438,141.38470531875,141.54430315000002,68.0,122.0
1439,141.78649006875,141.89586480625002,60.0,86.0
1440,141.78649006875,141.90367728750002,63.0,127.0
1441,141.78649006875,141.92041831875,68.0,112.0
1442,142.05434656875,142.1670695125,60.0,89.0
1443,142.05434656875,142.17041771875,63.0,127.0
1444,142.05434656875,142.1715337875,51.0,69.0
1445,142.05434656875,142.18157840625,68.0,112.0
1446,142.05434656875,142.30434596875,56.0,102.0
1447,141.38470531875,142.33001555,44.0,97.0
1448,142.32220306875,142.58113101875,68.0,107.0
1449,142.32220306875,142.584479225,63.0,127.0
1450,142.32220306875,142.5889435,60.0,95.0
1451,142.85791606875,142.95166584375,60.0,99.0
1452,142.85791606875,142.977335425,65.0,122.0
1453,142.85791606875,142.98291576875002,68.0,122.0
1454,142.59005956875,143.200549175,41.0,97.0
1455,143.12577256875,143.3724237625,60.0,96.0
1456,143.12577256875,143.3813523125,65.0,112.0
1457,143.12577256875,143.38358445,68.0,102.0
1458,143.12577256875,143.5688518625,48.0,78.0
1459,143.12577256875,143.58782503125002,53.0,92.0
1460,143.52755731875,143.6536730875,60.0,93.0
1461,143.52755731875,143.6759944625,65.0,100.0
1462,143.52755731875,143.68827121875,68.0,107.0
1463,143.52755731875,144.22175208125,41.0,79.0
1464,143.92934206875,144.2920644125,60.0,99.0
1465,143.92934206875,144.29541261875,68.0,112.0
1466,143.92934206875,144.2965286875,65.0,100.0
1467,144.46505506875002,144.5331352625,68.0,93.0
1468,144.46505506875002,144.59451904375,65.0,99.0
1469,144.19719856875,144.63358145,53.0,102.0
1470,144.46505506875002,144.7675097,60.0,97.0
1471,145.00076806875,145.10902673750002,65.0,99.0
1472,145.00076806875,145.11460708125,62.0,107.0
1473,145.00076806875,145.11683921875002,70.0,112.0
1474,145.26862456875,145.5465256875,70.0,112.0
1475,145.26862456875,145.548757825,65.0,102.0
1476,145.26862456875,145.55545423750002,62.0,96.0
1477,144.73291156875,145.584472025,46.0,95.0
1478,145.26862456875,145.6960789,53.0,37.0
1479,145.67040931875002,145.83670356250002,65.0,107.0
1480,145.26862456875,145.84451604375002,58.0,107.0
1481,145.67040931875002,145.8500963875,62.0,100.0
1482,145.67040931875002,145.861257075,70.0,117.0
1483,146.07219406875,146.191613425,65.0,127.0
1484,146.07219406875,146.1983098375,62.0,112.0
1485,146.07219406875,146.21170266250002,70.0,122.0
1486,146.07219406875,146.21281873125,53.0,51.0
1487,146.07219406875,146.22397941875002,58.0,112.0
1488,146.34005056875,146.46728240625,65.0,102.0
1489,146.34005056875,146.47286275000002,62.0,100.0
1490,146.34005056875,146.47286275000002,70.0,117.0
1491,146.34005056875,146.57554107500002,53.0,67.0
1492,145.67040931875002,146.59004996875,46.0,99.0
1493,146.34005056875,146.59004996875,58.0,127.0
1494,146.60790706875,146.70835325625,65.0,117.0
1495,146.60790706875,146.75076386875,70.0,117.0
1496,146.60790706875,146.771969175,62.0,117.0
1497,147.14362006875,147.22732522500002,70.0,100.0
1498,147.14362006875,147.2384859125,67.0,92.0
1499,147.14362006875,147.25076266875,63.0,102.0
1500,146.87576356875002,147.40478015625,39.0,112.0
1501,147.41147656875,147.52643165,67.0,102.0
1502,147.54540481875,147.6179492875,67.0,25.0
1503,147.41147656875,147.67486879375,70.0,112.0
1504,147.41147656875,147.700538375,63.0,117.0
1505,147.41147656875,147.8947343375,46.0,59.0
1506,147.41147656875,147.95835025625001,51.0,107.0
1507,147.81326131875,147.98625197500002,67.0,97.0
1508,147.81326131875,148.0197340375,70.0,107.0
1509,147.81326131875,148.0241983125,63.0,99.0
1510,148.21504606875,148.28870660625,67.0,122.0
1511,148.21504606875,148.316608325,70.0,122.0
1512,148.21504606875,148.343393975,63.0,117.0
1513,147.94718956875002,148.91928545000002,39.0,85.0
1514,148.48290256875,148.99182991875,46.0,58.0
1515,148.48290256875,149.05767797500002,51.0,117.0
1516,148.75075906875,149.1224099625,67.0,117.0
1517,148.75075906875,149.13245458125002,70.0,117.0
1518,148.75075906875,149.13691885625002,63.0,117.0
1519,149.28647206875002,149.37352543125002,67.0,93.0
1520,149.28647206875002,149.40031108125,70.0,97.0
1521,149.28647206875002,149.4125878375,63.0,97.0
1522,149.55432856875,149.56772139375002,66.0,76.0
1523,149.55432856875,149.6804443375,67.0,107.0
1524,149.55432856875,149.80097976250002,70.0,112.0
1525,149.55432856875,149.81660472500002,63.0,100.0
1526,149.01861556875,149.99629179375,39.0,97.0
1527,149.95611331875,150.09450584375,67.0,99.0
1528,149.95611331875,150.10789866875,70.0,112.0
1529,149.82218506875,150.120175425,46.0,26.0
1530,149.95611331875,150.12129149375,63.0,107.0
1531,149.55432856875,150.16593424375,51.0,117.0
1532,150.35789806875002,150.42151398750002,67.0,107.0
1533,150.35789806875002,150.45611211875,70.0,112.0
1534,150.35789806875002,150.45834425625,63.0,117.0
1535,150.62575456875,150.7206204125,46.0,62.0
1536,150.62575456875,150.727316825,51.0,127.0
1537,150.09004156875,150.736245375,39.0,100.0
1538,150.62575456875,150.75298640625002,67.0,97.0
1539,150.62575456875,150.78646846875,63.0,99.0
1540,150.62575456875,150.843387975,70.0,127.0
1541,150.89361106875,151.20499425,38.0,97.0
1542,151.16146756875,151.29093154375002,63.0,112.0
1543,151.16146756875,151.29986009375,60.0,107.0
1544,151.16146756875,151.30432436875,67.0,93.0
1545,151.42932406875002,151.5375827375,67.0,88.0
1546,151.42932406875002,151.54316308125001,60.0,88.0
1547,151.42932406875002,151.5509755625,63.0,112.0
1548,151.16146756875,151.80878744375002,36.0,92.0
1549,151.69718056875,151.95499245000002,67.0,93.0
1550,151.69718056875,151.963921,63.0,127.0
1551,151.69718056875,151.96615313750002,60.0,102.0
1552,151.69718056875,152.17485799375,43.0,77.0
1553,151.69718056875,152.17485799375,48.0,95.0
1554,152.09896531875,152.24182211875,63.0,122.0
1555,152.09896531875,152.24405425625,67.0,100.0
1556,152.09896531875,152.25298280625,60.0,100.0
1557,152.50075006875,152.83222248750002,60.0,95.0
1558,152.50075006875,152.83222248750002,63.0,107.0
1559,152.50075006875,152.83222248750002,67.0,81.0
1560,152.23289356875,152.8924902,36.0,77.0
1561,152.76860656875002,153.213918,43.0,78.0
1562,152.76860656875002,153.22396261875,48.0,99.0
1563,153.03646306875,153.36681941875,63.0,112.0
1564,153.03646306875,153.3723997625,60.0,95.0
1565,153.03646306875,153.37574796875,67.0,86.0
1566,153.57217606875,153.65476515625,63.0,107.0
1567,153.57217606875,153.67820260000002,60.0,83.0
1568,153.57217606875,153.6804347375,67.0,81.0
1569,153.30431956875,153.928202,36.0,76.0
1570,153.84003256875002,154.129094375,63.0,117.0
1571,153.84003256875002,154.129094375,67.0,81.0
1572,153.84003256875002,154.1313265125,60.0,95.0
1573,153.84003256875002,154.29538861875,43.0,56.0
1574,153.84003256875002,154.41257583750001,48.0,86.0
1575,154.24181731875,154.42038831875,63.0,112.0
1576,154.24181731875,154.423736525,67.0,86.0
1577,154.24181731875,154.42931686875,60.0,83.0
1578,154.64360206875,154.763021425,67.0,88.0
1579,154.64360206875,154.76636963125,63.0,112.0
1580,154.64360206875,154.77083390625,60.0,90.0
1581,154.37574556875,154.9795387625,36.0,97.0
1582,154.91145856875,155.04985109375,60.0,90.0
1583,154.91145856875,155.0554314375,67.0,93.0
1584,154.91145856875,155.0643599875,63.0,112.0
1585,154.91145856875,155.17261865625,48.0,95.0
1586,155.17931506875001,155.21279713125,67.0,58.0
1587,155.17931506875001,155.316591525,63.0,117.0
1588,155.17931506875001,155.334448625,60.0,95.0
1589,155.44717156875,155.5531981,68.0,112.0
1590,155.44717156875,155.59114443750002,63.0,122.0
1591,155.44717156875,155.59895691875002,60.0,82.0
1592,155.71502806875,155.8366795625,60.0,73.0
1593,155.71502806875,155.84337597500001,63.0,102.0
1594,155.71502806875,155.84337597500001,68.0,96.0
1595,155.44717156875,156.093375375,44.0,90.0
1596,155.98288456875,156.26190175625,68.0,102.0
1597,155.98288456875,156.26301782500002,63.0,117.0
1598,155.98288456875,156.27641065,60.0,86.0
1599,155.98288456875,156.43600848125,51.0,47.0
1600,155.98288456875,156.53199039375,56.0,99.0
1601,156.38466931875,156.58779383125,60.0,79.0
1602,156.38466931875,156.59225810625,63.0,122.0
1603,156.38466931875,156.60565093125,68.0,102.0
1604,156.78645406875,156.91926625,60.0,92.0
1605,156.78645406875,156.923730525,68.0,107.0
1606,156.78645406875,156.92707873125002,63.0,127.0
1607,157.05431056875,157.2027477125,60.0,83.0
1608,157.05431056875,157.20386378125,63.0,122.0
1609,157.05431056875,157.21948874375002,68.0,100.0
1610,156.51859756875,157.2317655,44.0,81.0
1611,157.05431056875,157.52082730625,51.0,59.0
1612,157.05431056875,157.611228875,56.0,89.0
1613,157.32216706875002,157.61792528750001,63.0,117.0
1614,157.32216706875002,157.6313181125,68.0,107.0
1615,157.32216706875002,157.63243418125,60.0,85.0
1616,157.85788006875,157.95497805,63.0,107.0
1617,157.85788006875,157.96055839375,60.0,85.0
1618,157.85788006875,157.9616744625,68.0,95.0
1619,158.12573656875,158.36680741875,68.0,102.0
1620,158.12573656875,158.3723877625,60.0,92.0
1621,158.12573656875,158.37350383125002,63.0,127.0
1622,157.59002356875,158.38020024375,44.0,99.0
1623,158.12573656875,158.57997655,51.0,63.0
1624,158.12573656875,158.62796750625,56.0,99.0
1625,158.52752131875002,158.75296720625002,60.0,88.0
1626,158.52752131875002,158.75296720625002,63.0,127.0
1627,158.52752131875002,158.7652439625,68.0,112.0
1628,158.92930606875,159.04872542500001,60.0,93.0
1629,158.92930606875,159.0554218375,63.0,127.0
1630,158.92930606875,159.0554218375,68.0,112.0
1631,159.19716256875,159.3054212375,63.0,127.0
1632,159.19716256875,159.334439025,60.0,99.0
1633,159.19716256875,159.3389033,68.0,112.0
1634,158.66144956875002,159.50296540625,44.0,96.0
1635,159.46501906875,159.54091174375,68.0,56.0
1636,159.46501906875,159.55542063750002,63.0,122.0
1637,159.46501906875,159.584438425,60.0,82.0
1638,159.19716256875,159.65809896250002,56.0,100.0
1639,159.73287556875002,159.80207183125,70.0,63.0
1640,159.73287556875002,159.8500627875,62.0,77.0
1641,159.73287556875002,159.85117885625002,65.0,77.0
1642,160.00073206875,160.1246157,65.0,96.0
1643,160.00073206875,160.1246157,70.0,100.0
1644,160.00073206875,160.13019604375,62.0,89.0
1645,160.26858856875,160.55430216875,70.0,107.0
1646,160.26858856875,160.55541823750002,62.0,95.0
1647,160.26858856875,160.55541823750002,65.0,102.0
1648,159.59894731875,160.57439140625002,46.0,93.0
1649,160.26858856875,160.81323011875,58.0,102.0
1650,160.67037331875,160.82662294375,65.0,99.0
1651,160.67037331875,160.85117645625002,62.0,95.0
1652,160.67037331875,160.8545246625,70.0,112.0
1653,161.07215806875,161.37684483750002,65.0,96.0
1654,161.07215806875,161.38688945625,62.0,95.0
1655,161.07215806875,161.39805014375,70.0,107.0
1656,161.34001456875,161.7161297375,58.0,122.0
1657,161.60787106875,161.95496845,65.0,112.0
1658,161.60787106875,161.96166486250002,62.0,102.0
1659,161.60787106875,161.97394161875002,70.0,117.0
1660,161.87572756875,161.98287016875,58.0,112.0
1661,162.14358406875002,162.227289225,53.0,67.0
1662,162.14358406875002,162.23844991250002,58.0,82.0
1663,160.80430156875002,162.25295880625,46.0,107.0
1664,162.14358406875002,162.2652355625,65.0,99.0
1665,162.14358406875002,162.27081590625,62.0,100.0
1666,162.14358406875002,162.28420873125,70.0,107.0
1667,162.41144056875,162.50965461875,53.0,70.0
1668,162.41144056875,162.53420813125,58.0,127.0
1669,162.41144056875,162.53867240625002,65.0,100.0
1670,162.41144056875,162.539788475,62.0,99.0
1671,162.41144056875,162.5531813,46.0,83.0
1672,162.41144056875,162.55429736875,70.0,112.0
1673,162.67929706875,162.76188615625,53.0,69.0
1674,162.67929706875,162.798716425,58.0,99.0
1675,162.67929706875,162.80764497500002,46.0,77.0
1676,162.67929706875,162.81210925000002,65.0,97.0
1677,162.67929706875,162.81992173125002,62.0,96.0
1678,162.67929706875,162.82326993750002,70.0,107.0
1679,162.94715356875,163.0375551375,53.0,64.0
1680,162.94715356875,163.05652830625002,58.0,127.0
1681,162.94715356875,163.05876044375,65.0,99.0
1682,162.94715356875,163.06210865,62.0,99.0
1683,162.94715356875,163.06545685625,70.0,102.0
1684,162.94715356875,163.075501475,46.0,90.0
1685,163.21501006875002,163.2875545375,53.0,53.0
1686,163.21501006875002,163.31768839375002,58.0,112.0
1687,163.21501006875002,163.33331335625002,65.0,99.0
1688,163.21501006875002,163.33777763125002,70.0,102.0
1689,163.21501006875002,163.3388937,46.0,89.0
1690,163.21501006875002,163.34224190625,62.0,100.0
1691,163.48286656875,163.57438420625002,53.0,49.0
1692,163.48286656875,163.5888931,58.0,117.0
1693,163.48286656875,163.59782165000001,65.0,102.0
1694,163.48286656875,163.60116985625,70.0,102.0
1695,163.48286656875,163.6089823375,46.0,88.0
1696,163.48286656875,163.6089823375,62.0,100.0
1697,163.75072306875,163.80875864375,70.0,93.0
1698,163.75072306875,163.8143389875,46.0,53.0
1699,163.75072306875,163.8210354,58.0,112.0
1700,163.75072306875,163.8455889125,62.0,117.0
1701,164.28643606875002,164.343355575,67.0,82.0
1702,164.28643606875002,164.36902515625002,70.0,95.0
1703,164.28643606875002,164.387998325,63.0,96.0
1704,164.01857956875,164.5330872625,39.0,96.0
1705,164.55429256875001,164.81991693125002,70.0,107.0
1706,164.55429256875001,164.82772941250002,67.0,97.0
1707,164.55429256875001,164.8567472,63.0,107.0
1708,164.95607731875,165.00741648125,67.0,96.0
1709,164.55429256875001,165.0353182,46.0,48.0
1710,164.95607731875,165.04759495625,70.0,102.0
1711,164.55429256875001,165.0554074375,51.0,96.0
1712,164.95607731875,165.057639575,63.0,102.0
1713,165.35786206875,165.486209975,67.0,100.0
1714,165.35786206875,165.664780975,70.0,107.0
1715,165.35786206875,165.68375414375,63.0,99.0
1716,165.89357506875,165.98509270625001,67.0,122.0
1717,165.09000556875,165.995137325,39.0,70.0
1718,165.62571856875002,166.06433358750002,46.0,60.0
1719,165.62571856875002,166.06768179375,51.0,97.0
1720,165.89357506875,166.1893332875,70.0,122.0
1721,165.89357506875,166.21835107500002,63.0,112.0
1722,166.42928806875,166.51522536250002,67.0,112.0
1723,166.42928806875,166.5420110125,70.0,97.0
1724,166.42928806875,166.56098418125,63.0,100.0
1725,166.69714456875002,166.94267969375,67.0,112.0
1726,166.69714456875002,166.959420725,70.0,96.0
1727,166.69714456875002,166.97839389375,63.0,102.0
1728,166.16143156875,167.0866525625,39.0,100.0
1729,166.69714456875002,167.13017924375,51.0,96.0
1730,166.69714456875002,167.13241138125,46.0,35.0
1731,167.09892931875,167.30651810625,67.0,107.0
1732,167.09892931875,167.31991093125,70.0,112.0
1733,167.09892931875,167.32883948125001,63.0,107.0
1734,167.50071406875,167.61232094375,67.0,95.0
1735,167.50071406875,167.629061975,70.0,97.0
1736,167.50071406875,167.6446869375,63.0,107.0
1737,167.23285756875,167.82437400625,39.0,99.0
1738,167.76857056875,167.861204275,67.0,97.0
1739,167.76857056875,167.87794530625,70.0,100.0
1740,167.76857056875,167.88910599375,63.0,102.0
1741,168.03642706875002,168.09669478125,67.0,85.0
1742,167.76857056875,168.20272131250002,51.0,86.0
1743,168.03642706875002,168.2295069625,70.0,102.0
1744,168.03642706875002,168.28196219375002,63.0,122.0
1745,168.57214006875,168.64580060625002,68.0,77.0
1746,168.57214006875,168.69044335625,60.0,93.0
1747,168.57214006875,168.6982558375,63.0,122.0
1748,168.83999656875,169.13575478750002,68.0,99.0
1749,168.83999656875,169.137986925,60.0,90.0
1750,168.83999656875,169.14579940625,63.0,127.0
1751,168.30428356875,169.23954918125,44.0,93.0
1752,169.24178131875001,169.26856696875,60.0,68.0
1753,168.83999656875,169.36678101875,56.0,97.0
1754,168.83999656875,169.37124529375,51.0,48.0
1755,169.24178131875001,169.49847713125,63.0,122.0
1756,169.24178131875001,169.51521816250002,68.0,100.0
1757,169.64356606875,169.92593146250002,63.0,112.0
1758,169.64356606875,169.94044035625,60.0,86.0
1759,169.64356606875,169.94044035625,68.0,97.0
1760,169.37570956875,170.200484375,44.0,107.0
1761,169.91142256875,170.34445724375,51.0,38.0
1762,169.91142256875,170.39133213125,56.0,112.0
1763,170.17927906875002,170.57659954375,68.0,112.0
1764,170.17927906875002,170.584412025,63.0,127.0
1765,170.17927906875002,170.58552809375,60.0,95.0
1766,170.71499206875,170.81990253125,63.0,112.0
1767,170.71499206875,170.8210186,68.0,93.0
1768,170.71499206875,170.825482875,60.0,82.0
1769,170.98284856875,171.26856216875,68.0,107.0
1770,170.98284856875,171.28195499375002,60.0,92.0
1771,170.98284856875,171.2830710625,63.0,127.0
1772,170.44713556875,171.37124049375,44.0,100.0
1773,170.98284856875,171.40025828125002,51.0,31.0
1774,170.98284856875,171.56097218125,56.0,92.0
1775,171.38463331875002,171.59668638125,60.0,81.0
1776,171.38463331875002,171.60561493125002,63.0,122.0
1777,171.38463331875002,171.620123825,68.0,100.0
1778,171.78641806875,172.10003338750002,60.0,89.0
1779,171.78641806875,172.10561373125,63.0,127.0
1780,171.78641806875,172.1268190375,68.0,122.0
1781,172.05427456875,172.2071759875,51.0,66.0
1782,172.05427456875,172.25963121875,56.0,99.0
1783,171.51856156875002,172.35561313125,44.0,93.0
1784,172.32213106875,172.66588024375,68.0,112.0
1785,172.32213106875,172.678157,63.0,127.0
1786,172.32213106875,172.7138712,60.0,93.0
1787,172.85784406875,173.00293300625,63.0,117.0
1788,172.85784406875,173.02525438125,67.0,93.0
1789,172.85784406875,173.02860258750002,60.0,95.0
1790,172.58998756875002,173.27636985,36.0,83.0
1791,173.12570056875,173.39132493125,67.0,92.0
1792,173.12570056875,173.39802134375,63.0,117.0
1793,173.12570056875,173.40248561875,60.0,88.0
1794,173.12570056875,173.6044940625,43.0,56.0
1795,173.12570056875,173.6223511625,48.0,83.0
1796,173.52748531875,173.72279735,63.0,122.0
1797,173.52748531875,173.72391341875002,60.0,89.0
1798,173.52748531875,173.76185975625,67.0,96.0
1799,173.92927006875001,174.23730504375,63.0,117.0
1800,173.92927006875001,174.245117525,60.0,89.0
1801,173.92927006875001,174.25739428125001,67.0,89.0
1802,173.66141356875002,174.3544922625,36.0,92.0
1803,174.19712656875,174.6625272375,43.0,90.0
1804,174.19712656875,174.67480399375,48.0,99.0
1805,174.46498306875,174.80650010625,63.0,112.0
1806,174.46498306875,174.81542865625002,67.0,88.0
1807,174.46498306875,174.821009,60.0,93.0
1808,175.00069606875002,175.11676721875,60.0,82.0
1809,175.00069606875002,175.11676721875,63.0,99.0
1810,175.00069606875002,175.13127611250002,67.0,77.0
1811,174.73283956875,175.33328455625002,36.0,92.0
1812,175.26855256875,175.548685825,63.0,107.0
1813,175.26855256875,175.5509179625,60.0,89.0
1814,175.26855256875,175.5531501,67.0,86.0
1815,175.26855256875,175.75739068125,43.0,75.0
1816,175.26855256875,175.76631923125,48.0,95.0
1817,175.67033731875,175.88908679375,60.0,75.0
1818,175.67033731875,175.89131893125,63.0,97.0
1819,175.67033731875,175.914756375,67.0,79.0
1820,176.07212206875002,176.20381818125,48.0,107.0
1821,176.07212206875002,176.20605031875002,63.0,112.0
1822,176.07212206875002,176.21386280000002,67.0,90.0
1823,176.07212206875002,176.21497886875,60.0,92.0
1824,175.67033731875,176.40136235,36.0,71.0
1825,176.33997856875,176.4705586125,63.0,127.0
1826,176.33997856875,176.4817193,60.0,97.0
1827,176.33997856875,176.4817193,67.0,100.0
1828,176.33997856875,176.6535938875,48.0,127.0
1829,176.60783506875,176.75069186875,67.0,92.0
1830,176.60783506875,176.75962041875002,63.0,127.0
1831,176.60783506875,177.0152001625,60.0,112.0
1832,177.14354806875,177.2562710125,63.0,107.0
1833,177.14354806875,177.26519956250002,68.0,97.0
1834,177.14354806875,177.2830566625,60.0,86.0
1835,177.14354806875,177.3143065875,51.0,40.0
1836,177.41140456875002,177.6714485875,60.0,89.0
1837,177.41140456875002,177.67479679375,63.0,122.0
1838,177.41140456875002,177.67479679375,68.0,107.0
1839,176.87569156875,177.77077870625,44.0,97.0
1840,177.41140456875002,177.9437693625,51.0,57.0
1841,177.41140456875002,177.968322875,56.0,127.0
1842,177.81318931875,178.0151977625,60.0,90.0
1843,177.81318931875,178.0151977625,63.0,127.0
1844,177.81318931875,178.0553762375,68.0,112.0
1845,178.21497406875,178.54533041875,63.0,117.0
1846,178.21497406875,178.54644648750002,60.0,90.0
1847,178.21497406875,178.56095538125,68.0,107.0
1848,177.94711756875,178.86899035625,44.0,95.0
1849,178.48283056875002,178.96943654375002,51.0,35.0
1850,178.48283056875002,179.03416853125,56.0,107.0
1851,178.75068706875,179.13349865,63.0,127.0
1852,178.75068706875,179.1357307875,60.0,90.0
1853,178.75068706875,179.15247181875,68.0,112.0
1854,179.28640006875,179.39242660000002,60.0,81.0
1855,179.28640006875,179.3946587375,63.0,102.0
1856,179.28640006875,179.40470335625,68.0,89.0
1857,179.55425656875002,179.83438982500002,63.0,127.0
1858,179.55425656875002,179.83438982500002,68.0,112.0
1859,179.55425656875002,179.83885410000002,60.0,95.0
1860,179.01854356875,179.923675325,44.0,102.0
1861,179.68818481875002,179.98952338125,51.0,25.0
1862,179.55425656875002,180.05871964375,56.0,100.0
1863,179.95604131875,180.173674725,60.0,88.0
1864,179.95604131875,180.1848354125,63.0,117.0
1865,179.95604131875,180.2026925125,68.0,102.0
1866,180.35782606875,180.4839418375,63.0,127.0
1867,180.35782606875,180.486173975,60.0,99.0
1868,180.35782606875,180.48952218125,68.0,122.0
1869,180.62568256875,180.7428697875,51.0,42.0
1870,180.62568256875,180.7495662,63.0,127.0
1871,180.62568256875,180.75291440625,60.0,97.0
1872,180.62568256875,180.7562626125,56.0,112.0
1873,180.62568256875,180.75737868125,68.0,117.0
1874,180.08996956875,180.79086074375002,44.0,102.0
1875,180.89353906875002,180.9638514,65.0,107.0
1876,180.89353906875002,181.25737748125002,68.0,117.0
1877,180.89353906875002,181.3031363,61.0,117.0
1878,181.42925206875,181.49175191875,65.0,86.0
1879,181.42925206875,181.50737688125,68.0,93.0
1880,181.42925206875,181.53193039375,49.0,67.0
1881,181.42925206875,181.54197501250002,61.0,107.0
1882,181.69710856875,181.95268831250002,68.0,117.0
1883,181.69710856875,181.9616168625,65.0,112.0
1884,181.69710856875,181.986170375,61.0,107.0
1885,181.69710856875,182.09108083750002,49.0,122.0
1886,181.69710856875,182.20491985,44.0,73.0
1887,182.09889331875002,182.24509832500001,65.0,95.0
1888,182.23282156875,182.2674197,44.0,54.0
1889,182.09889331875002,182.3187588625,68.0,117.0
1890,182.09889331875002,182.33773203125,61.0,102.0
1891,180.89353906875002,182.41362470625,37.0,112.0
1892,182.23282156875,182.5241155125,49.0,117.0
1893,182.53416013125002,182.61563315,61.0,127.0
1894,182.50067806875,182.62902597500002,65.0,97.0
1895,182.50067806875,182.69487403125,68.0,122.0
1896,183.03639106875002,183.405809825,65.0,90.0
1897,183.03639106875002,183.414738375,62.0,97.0
1898,183.03639106875002,183.4258990625,46.0,112.0
1899,183.03639106875002,183.4281312,58.0,127.0
1900,183.57210406875,183.69040735625,46.0,102.0
1901,183.57210406875,183.7026841125,62.0,92.0
1902,183.57210406875,183.70380018125002,65.0,85.0
1903,183.57210406875,183.70603231875,58.0,107.0
1904,183.83996056875,183.92701393125,46.0,122.0
1905,183.83996056875,183.94710316875,62.0,88.0
1906,183.83996056875,183.95826385625,58.0,127.0
1907,184.10781706875,184.4883965125,64.0,100.0
1908,184.10781706875,184.48951258125,55.0,99.0
1909,184.10781706875,184.4973250625,60.0,117.0
1910,184.10781706875,184.51183395625,36.0,100.0
1911,184.64353006875,184.68705675,36.0,35.0
1912,184.64353006875,184.73951198125002,48.0,73.0
1913,184.64353006875,184.74620839375,43.0,42.0
1914,184.64353006875,184.7651815625,55.0,60.0
1915,184.64353006875,184.76629763125,64.0,53.0
1916,184.64353006875,184.77634225,60.0,59.0
1917,184.91138656875,185.02299344375,36.0,63.0
1918,184.91138656875,185.0285737875,55.0,79.0
1919,184.91138656875,185.03638626875002,64.0,76.0
1920,184.91138656875,185.03861840625,60.0,78.0
1921,184.91138656875,185.04308268125,48.0,89.0
1922,185.17924306875,185.28080532500002,55.0,95.0
1923,185.17924306875,185.2875017375,64.0,89.0
1924,185.17924306875,185.289733875,60.0,96.0
1925,185.17924306875,185.298662425,48.0,107.0
1926,185.17924306875,185.31205525000001,36.0,86.0
1927,185.71495606875,185.84888431875,41.0,64.0
1928,185.71495606875,185.85334859375,53.0,95.0
1929,185.71495606875,185.8633932125,69.0,93.0
1930,185.71495606875,185.86450928125,48.0,86.0
1931,185.71495606875,185.8678574875,60.0,97.0
1932,185.71495606875,185.87008962500002,65.0,96.0
1933,185.98281256875,186.1357139875,65.0,107.0
1934,185.98281256875,186.1446425375,60.0,117.0
1935,185.98281256875,186.14575860625,41.0,72.0
1936,185.98281256875,186.14575860625,48.0,96.0
1937,185.98281256875,186.14687467500002,69.0,107.0
1938,185.98281256875,186.15022288125002,53.0,127.0
1939,186.78638206875002,186.91138176875,65.0,89.0
1940,186.78638206875002,186.91807818125,69.0,79.0
1941,186.78638206875002,186.9281228,60.0,83.0
1942,186.51852556875002,187.0017833375,41.0,100.0
1943,187.05423856875,187.32655934375,60.0,95.0
1944,187.05423856875,187.32655934375,65.0,95.0
1945,187.05423856875,187.32655934375,69.0,86.0
1946,187.05423856875,187.46271973125002,53.0,37.0
1947,187.45602331875,187.55870164375,60.0,96.0
1948,187.45602331875,187.56204985,65.0,97.0
1949,187.45602331875,187.57321053750002,69.0,97.0
1950,187.58995156875,188.08660216250001,41.0,67.0
1951,187.85780806875002,188.20490545,60.0,85.0
1952,187.85780806875002,188.21271793125,65.0,92.0
1953,187.85780806875002,188.22611075625,69.0,85.0
1954,188.12566456875,188.495083325,53.0,100.0
1955,188.39352106875,188.7339220375,65.0,92.0
1956,188.39352106875,188.73727024375,60.0,90.0
1957,188.39352106875,188.74173451875,69.0,85.0
1958,188.92923406875002,189.04530521875,65.0,83.0
1959,188.92923406875002,189.04976949375,60.0,77.0
1960,188.92923406875002,189.05534983750002,69.0,74.0
1961,188.52744931875,189.19262629375,41.0,83.0
1962,189.19709056875,189.43481321250002,60.0,89.0
1963,189.19709056875,189.4437417625,65.0,95.0
1964,189.19709056875,189.44708996875002,69.0,85.0
1965,189.19709056875,189.65579482500002,48.0,66.0
1966,189.19709056875,189.67253585625002,53.0,83.0
1967,189.59887531875,189.73280356875,60.0,95.0
1968,189.59887531875,189.73280356875,65.0,95.0
1969,189.59887531875,189.73280356875,69.0,82.0
1970,190.00066006875,190.10333839375002,62.0,92.0
1971,190.00066006875,190.11226694375,69.0,81.0
1972,190.00066006875,190.11673121875,65.0,100.0
1973,189.73280356875,190.2874897375,38.0,89.0
1974,190.26851656875002,190.53637306875,69.0,89.0
1975,190.26851656875002,190.54530161875002,62.0,97.0
1976,190.26851656875002,190.5553462375,65.0,127.0
1977,190.26851656875002,190.7205244125,50.0,81.0
1978,190.26851656875002,190.7249886875,45.0,50.0
1979,190.67030131875,190.8209706,62.0,93.0
1980,190.67030131875,190.83436342500002,65.0,122.0
1981,190.67030131875,190.8365955625,69.0,96.0
1982,190.67030131875,191.2428445875,38.0,86.0
1983,191.07208606875,191.37565676875002,62.0,112.0
1984,191.07208606875,191.38904959375,69.0,100.0
1985,191.07208606875,191.40021028125,65.0,127.0
1986,191.33994256875002,191.80869144375,45.0,72.0
1987,191.33994256875002,191.85333419375002,50.0,93.0
1988,191.60779906875,191.92253045625,62.0,99.0
1989,191.60779906875,191.923646525,69.0,93.0
1990,191.60779906875,191.9258786625,65.0,127.0
1991,192.14351206875,192.236145775,62.0,89.0
1992,192.14351206875,192.2428421875,65.0,122.0
1993,192.14351206875,192.24395825625,69.0,88.0
1994,191.87565556875,192.47275235,38.0,83.0
1995,192.41136856875002,192.6423948,69.0,89.0
1996,192.41136856875002,192.64462693750002,62.0,96.0
1997,192.41136856875002,192.66025190000002,65.0,122.0
1998,192.41136856875002,192.84663538125,45.0,82.0
1999,192.41136856875002,192.84886751875,50.0,95.0
2000,192.81315331875,192.95377798125,69.0,97.0
2001,192.81315331875,192.95601011875002,62.0,100.0
2002,192.81315331875,192.96382260000001,65.0,127.0
2003,193.21493806875,193.29641108750002,69.0,99.0
2004,193.21493806875,193.298643225,65.0,127.0
2005,193.21493806875,193.3008753625,62.0,95.0
2006,192.81315331875,193.4973034625,38.0,95.0
2007,193.48279456875,193.58547289375,69.0,100.0
2008,193.48279456875,193.58882110000002,65.0,127.0
2009,193.48279456875,193.59216930625,62.0,99.0
2010,193.48279456875,193.7964098875,50.0,100.0
2011,193.75065106875002,193.887927525,69.0,92.0
2012,193.75065106875002,193.97163268125001,65.0,127.0
2013,193.75065106875002,194.10556093125,62.0,100.0
2014,194.28636406875,194.3856941875,62.0,96.0
2015,194.28636406875,194.3856941875,65.0,127.0
2016,194.28636406875,194.3901584625,70.0,112.0
2017,194.01850756875,194.79417535000002,46.0,102.0
2018,194.55422056875,194.81761279375002,70.0,112.0
2019,194.55422056875,194.8231931375,62.0,97.0
2020,194.55422056875,194.82988955000002,65.0,127.0
2021,194.68814881875,194.90913043125002,53.0,23.0
2022,194.95600531875002,195.08546929375,62.0,95.0
2023,194.95600531875002,195.08770143125,65.0,127.0
2024,194.55422056875,195.10221032500002,58.0,90.0
2025,194.95600531875002,195.10779066875,70.0,107.0
2026,195.62564656875,195.6937267625,53.0,42.0
2027,195.35779006875,195.6981910375,65.0,127.0
2028,195.35779006875,195.69930710625002,62.0,100.0
2029,195.35779006875,195.73055703125002,70.0,112.0
2030,195.08993356875,196.00845815,46.0,93.0
2031,195.89350306875002,196.06760979375,53.0,24.0
2032,195.62564656875,196.0687258625,58.0,117.0
2033,195.89350306875002,196.21939514375,65.0,127.0
2034,195.89350306875002,196.22385941875,62.0,97.0
2035,195.89350306875002,196.23502010625,70.0,112.0
2036,196.42921606875,196.52073370625,70.0,99.0
2037,196.42921606875,196.52519798125002,62.0,88.0
2038,196.42921606875,196.52743011875,65.0,122.0
2039,196.69707256875,196.9437237625,70.0,102.0
2040,196.69707256875,196.95265231250002,62.0,95.0
2041,196.69707256875,196.95265231250002,65.0,127.0
2042,196.16135956875002,197.02073250625,46.0,102.0
2043,196.69707256875,197.08323235625002,53.0,64.0
2044,196.69707256875,197.15912503125,58.0,112.0
2045,197.09885731875002,197.2383659125,62.0,92.0
2046,197.09885731875002,197.24617839375,65.0,127.0
2047,197.09885731875002,197.25845515,70.0,122.0
2048,197.50064206875,197.61001680625,62.0,86.0
2049,197.50064206875,197.6178292875,65.0,127.0
2050,197.50064206875,197.63457031875,70.0,112.0
2051,197.76849856875,197.88122151250002,62.0,89.0
2052,197.76849856875,197.88456971875001,65.0,127.0
2053,197.76849856875,197.8856857875,53.0,69.0
2054,197.76849856875,197.89573040625,70.0,112.0
2055,197.76849856875,198.01849796875,58.0,102.0
2056,197.09885731875002,198.04416755,46.0,97.0
2057,198.03635506875,198.29528301875,70.0,107.0
2058,198.03635506875,198.298631225,65.0,127.0
2059,198.03635506875,198.3030955,62.0,95.0
2060,198.57206806875,198.66581784375,62.0,99.0
2061,198.57206806875,198.69148742500002,67.0,122.0
2062,198.57206806875,198.69706776875,70.0,122.0
2063,198.30421156875002,198.914701175,43.0,97.0
2064,198.83992456875,199.08657576250002,62.0,96.0
2065,198.83992456875,199.0955043125,67.0,112.0
2066,198.83992456875,199.09773645,70.0,102.0
2067,198.83992456875,199.2830038625,50.0,78.0
2068,198.83992456875,199.30197703125,55.0,92.0
2069,199.24170931875,199.3678250875,62.0,93.0
2070,199.24170931875,199.3901464625,67.0,100.0
2071,199.24170931875,199.40242321875002,70.0,107.0
2072,199.24170931875,199.93590408125002,43.0,79.0
2073,199.64349406875002,200.0062164125,62.0,99.0
2074,199.64349406875002,200.00956461875,70.0,112.0
2075,199.64349406875002,200.0106806875,67.0,100.0
2076,200.17920706875,200.2472872625,70.0,93.0
2077,200.17920706875,200.30867104375,67.0,99.0
2078,199.91135056875,200.34773345000002,55.0,102.0
2079,200.17920706875,200.48166170000002,62.0,97.0
2080,200.71492006875002,200.8231787375,67.0,99.0
2081,200.71492006875002,200.82875908125,64.0,107.0
2082,200.71492006875002,200.83099121875,72.0,112.0
2083,200.98277656875,201.26067768750002,72.0,112.0
2084,200.98277656875,201.262909825,67.0,102.0
2085,200.98277656875,201.2696062375,64.0,96.0
2086,200.44706356875,201.298624025,48.0,95.0
2087,200.98277656875,201.41023090000002,55.0,37.0
2088,201.38456131875,201.5508555625,67.0,107.0
2089,200.98277656875,201.55866804375,60.0,107.0
2090,201.38456131875,201.56424838750002,64.0,100.0
2091,201.38456131875,201.575409075,72.0,117.0
2092,201.78634606875002,201.905765425,67.0,127.0
2093,201.78634606875002,201.91246183750002,64.0,112.0
2094,201.78634606875002,201.9258546625,72.0,122.0
2095,201.78634606875002,201.92697073125,55.0,51.0
2096,201.78634606875002,201.93813141875,60.0,112.0
2097,202.05420256875001,202.18143440625002,67.0,102.0
2098,202.05420256875001,202.18701475,64.0,100.0
2099,202.05420256875001,202.18701475,72.0,117.0
2100,202.05420256875001,202.289693075,55.0,67.0
2101,201.38456131875,202.30420196875002,48.0,99.0
2102,202.05420256875001,202.30420196875002,60.0,127.0
2103,202.32205906875,202.42250525625002,67.0,117.0
2104,202.32205906875,202.46491586875,72.0,117.0
2105,202.32205906875,202.48612117500002,64.0,117.0
2106,202.85777206875,202.941477225,72.0,100.0
2107,202.85777206875,202.9526379125,69.0,92.0
2108,202.85777206875,202.96491466875,65.0,102.0
2109,202.58991556875,203.11893215625,41.0,112.0
2110,203.12562856875002,203.24058365000002,69.0,102.0
2111,203.25955681875,203.3321012875,69.0,25.0
2112,203.12562856875002,203.38902079375,72.0,112.0
2113,203.12562856875002,203.41469037500002,65.0,117.0
2114,203.12562856875002,203.6088863375,48.0,59.0
2115,203.12562856875002,203.67250225625,53.0,107.0
2116,203.52741331875,203.700403975,69.0,97.0
2117,203.52741331875,203.7338860375,72.0,107.0
2118,203.52741331875,203.73835031250002,65.0,99.0
2119,203.92919806875,204.00285860625002,69.0,122.0
2120,203.92919806875,204.03076032500002,72.0,122.0
2121,203.92919806875,204.057545975,65.0,117.0
2122,203.66134156875,204.63343745,41.0,85.0
2123,204.19705456875002,204.70598191875,48.0,58.0
2124,204.19705456875002,204.771829975,53.0,117.0
2125,204.46491106875,204.8365619625,69.0,117.0
2126,204.46491106875,204.84660658125,72.0,117.0
2127,204.46491106875,204.85107085625,65.0,117.0
2128,205.00062406875,205.08767743125,69.0,93.0
2129,205.00062406875,205.11446308125002,72.0,97.0
2130,205.00062406875,205.1267398375,65.0,97.0
2131,205.26848056875002,205.28187339375,68.0,76.0
2132,205.26848056875002,205.39459633750002,69.0,107.0
2133,205.26848056875002,205.5151317625,72.0,112.0
2134,205.26848056875002,205.530756725,65.0,100.0
2135,204.73276756875,205.71044379375002,41.0,97.0
2136,205.67026531875,205.80865784375,69.0,99.0
2137,205.67026531875,205.82205066875,72.0,112.0
2138,205.53633706875002,205.834327425,48.0,26.0
2139,205.67026531875,205.83544349375,65.0,107.0
2140,205.26848056875002,205.88008624375001,53.0,117.0
2141,206.07205006875,206.1356659875,69.0,107.0
2142,206.07205006875,206.17026411875,72.0,112.0
2143,206.07205006875,206.17249625625,65.0,117.0
2144,206.33990656875,206.4347724125,48.0,62.0
2145,206.33990656875,206.44146882500002,53.0,127.0
2146,205.80419356875,206.45039737500002,41.0,100.0
2147,206.33990656875,206.46713840625,69.0,97.0
2148,206.33990656875,206.50062046875001,65.0,99.0
2149,206.33990656875,206.557539975,72.0,127.0
2150,206.60776306875002,206.91914625,40.0,97.0
2151,206.87561956875,207.00508354375,65.0,112.0
2152,206.87561956875,207.01401209375,62.0,107.0
2153,206.87561956875,207.01847636875002,69.0,93.0
2154,207.14347606875,207.25173473750002,69.0,88.0
2155,207.14347606875,207.25731508125,62.0,88.0
2156,207.14347606875,207.2651275625,65.0,112.0
2157,206.87561956875,207.52293944375,38.0,92.0
2158,207.41133256875,207.66914445,69.0,93.0
2159,207.41133256875,207.678073,65.0,127.0
2160,207.41133256875,207.6803051375,62.0,102.0
2161,207.41133256875,207.88900999375002,45.0,77.0
2162,207.41133256875,207.88900999375002,50.0,95.0
2163,207.81311731875002,207.95597411875002,65.0,122.0
2164,207.81311731875002,207.95820625625,69.0,100.0
2165,207.81311731875002,207.96713480625002,62.0,100.0
2166,208.21490206875,208.5463744875,62.0,95.0
2167,208.21490206875,208.5463744875,65.0,107.0
2168,208.21490206875,208.5463744875,69.0,81.0
2169,207.94704556875,208.6066422,38.0,77.0
2170,208.48275856875,208.92807000000002,45.0,78.0
2171,208.48275856875,208.93811461875,50.0,99.0
2172,208.75061506875002,209.08097141875,65.0,112.0
2173,208.75061506875002,209.08655176250002,62.0,95.0
2174,208.75061506875002,209.08989996875002,69.0,86.0
2175,209.28632806875,209.36891715625,65.0,107.0
2176,209.28632806875,209.3923546,62.0,83.0
2177,209.28632806875,209.39458673750002,69.0,81.0
2178,209.01847156875002,209.642354,38.0,76.0
2179,209.55418456875,209.843246375,65.0,117.0
2180,209.55418456875,209.843246375,69.0,81.0
2181,209.55418456875,209.84547851250002,62.0,95.0
2182,209.55418456875,210.00954061875,45.0,56.0
2183,209.55418456875,210.1267278375,50.0,86.0
2184,209.95596931875002,210.13454031875,65.0,112.0
2185,209.95596931875002,210.13788852500002,69.0,86.0
2186,209.95596931875002,210.14346886875,62.0,83.0
2187,210.35775406875,210.47717342500002,69.0,88.0
2188,210.35775406875,210.48052163125,65.0,112.0
2189,210.35775406875,210.48498590625002,62.0,90.0
2190,210.08989756875002,210.6936907625,38.0,97.0
2191,210.62561056875,210.76400309375,62.0,90.0
2192,210.62561056875,210.76958343750002,69.0,93.0
2193,210.62561056875,210.7785119875,65.0,112.0
2194,210.62561056875,210.88677065625,50.0,95.0
2195,210.89346706875,210.92694913125,69.0,58.0
2196,210.89346706875,211.03074352500002,65.0,117.0
2197,210.89346706875,211.048600625,62.0,95.0
2198,211.16132356875002,211.26735010000002,70.0,112.0
2199,211.16132356875002,211.3052964375,65.0,122.0
2200,211.16132356875002,211.31310891875,62.0,82.0
2201,211.42918006875001,211.5508315625,62.0,73.0
2202,211.42918006875001,211.557527975,65.0,102.0
2203,211.42918006875001,211.557527975,70.0,96.0
2204,211.16132356875002,211.807527375,46.0,90.0
2205,211.69703656875,211.97605375625,70.0,102.0
2206,211.69703656875,211.977169825,65.0,117.0
2207,211.69703656875,211.99056265000002,62.0,86.0
2208,211.69703656875,212.15016048125,53.0,47.0
2209,211.69703656875,212.24614239375,58.0,99.0
2210,212.09882131875,212.30194583125,62.0,79.0
2211,212.09882131875,212.30641010625,65.0,122.0
2212,212.09882131875,212.31980293125,70.0,102.0
2213,212.50060606875002,212.63341825,62.0,92.0
2214,212.50060606875002,212.637882525,70.0,107.0
2215,212.50060606875002,212.64123073125,65.0,127.0
2216,212.76846256875,212.9168997125,62.0,83.0
2217,212.76846256875,212.91801578125,65.0,122.0
2218,212.76846256875,212.93364074375,70.0,100.0
2219,212.23274956875,212.9459175,46.0,81.0
2220,212.76846256875,213.23497930625,53.0,59.0
2221,212.76846256875,213.325380875,58.0,89.0
2222,213.03631906875,213.3320772875,65.0,117.0
2223,213.03631906875,213.3454701125,70.0,107.0
2224,213.03631906875,213.34658618125002,62.0,85.0
2225,213.57203206875002,213.66913005,65.0,107.0
2226,213.57203206875002,213.67471039375002,62.0,85.0
2227,213.57203206875002,213.6758264625,70.0,95.0
2228,213.83988856875,214.08095941875,70.0,102.0
2229,213.83988856875,214.0865397625,62.0,92.0
2230,213.83988856875,214.08765583125,65.0,127.0
2231,213.30417556875,214.09435224375,46.0,99.0
2232,213.83988856875,214.29412855,53.0,63.0
2233,213.83988856875,214.34211950625001,58.0,99.0
2234,214.24167331875,214.46711920625,62.0,88.0
2235,214.24167331875,214.46711920625,65.0,127.0
2236,214.24167331875,214.4793959625,70.0,112.0
2237,214.64345806875002,214.762877425,62.0,93.0
2238,214.64345806875002,214.76957383750002,65.0,127.0
2239,214.64345806875002,214.76957383750002,70.0,112.0
2240,214.91131456875002,215.0195732375,65.0,127.0
2241,214.91131456875002,215.048591025,62.0,99.0
2242,214.91131456875002,215.0530553,70.0,112.0
2243,214.37560156875,215.21711740625,46.0,96.0
2244,215.17917106875,215.25506374375001,70.0,56.0
2245,215.17917106875,215.2695726375,65.0,122.0
2246,215.17917106875,215.29859042500001,62.0,82.0
2247,214.91131456875002,215.3722509625,58.0,100.0
2248,215.44702756875,215.51622383125002,72.0,63.0
2249,215.44702756875,215.56421478750002,64.0,77.0
2250,215.44702756875,215.56533085625,67.0,77.0
2251,215.71488406875,215.8387677,67.0,96.0
2252,215.71488406875,215.8387677,72.0,100.0
2253,215.71488406875,215.84434804375002,64.0,89.0
2254,215.98274056875002,216.26845416875,72.0,107.0
2255,215.98274056875002,216.2695702375,64.0,95.0
2256,215.98274056875002,216.2695702375,67.0,102.0
2257,215.31309931875,216.28854340625,48.0,93.0
2258,215.98274056875002,216.52738211875,60.0,102.0
2259,216.38452531875,216.54077494375002,67.0,99.0
2260,216.38452531875,216.56532845625,64.0,95.0
2261,216.38452531875,216.5686766625,72.0,112.0
2262,216.78631006875,217.0909968375,67.0,96.0
2263,216.78631006875,217.10104145625002,64.0,95.0
2264,216.78631006875,217.11220214375,72.0,107.0
2265,217.05416656875002,217.4302817375,60.0,122.0
2266,217.32202306875,217.66912045,67.0,112.0
2267,217.32202306875,217.6758168625,64.0,102.0
2268,217.32202306875,217.68809361875,72.0,117.0
2269,217.58987956875,217.69702216875,60.0,112.0
2270,217.85773606875,217.941441225,55.0,67.0
2271,217.85773606875,217.9526019125,60.0,82.0
2272,216.51845356875,217.96711080625002,48.0,107.0
2273,217.85773606875,217.97938756250002,67.0,99.0
2274,217.85773606875,217.98496790625,64.0,100.0
2275,217.85773606875,217.99836073125002,72.0,107.0
2276,218.12559256875002,218.22380661875002,55.0,70.0
2277,218.12559256875002,218.24836013125,60.0,127.0
2278,218.12559256875002,218.25282440625,67.0,100.0
2279,218.12559256875002,218.253940475,64.0,99.0
2280,218.12559256875002,218.26733330000002,48.0,83.0
2281,218.12559256875002,218.26844936875,72.0,112.0
2282,218.39344906875002,218.47603815625,55.0,69.0
2283,218.39344906875002,218.51286842500002,60.0,99.0
2284,218.39344906875002,218.521796975,48.0,77.0
2285,218.39344906875002,218.52626125,67.0,97.0
2286,218.39344906875002,218.53407373125,64.0,96.0
2287,218.39344906875002,218.5374219375,72.0,107.0
2288,218.66130556875,218.7517071375,55.0,64.0
2289,218.66130556875,218.77068030625,60.0,127.0
2290,218.66130556875,218.77291244375002,67.0,99.0
2291,218.66130556875,218.77626065,64.0,99.0
2292,218.66130556875,218.77960885625,72.0,102.0
2293,218.66130556875,218.78965347500002,48.0,90.0
2294,218.92916206875,219.0017065375,55.0,53.0
2295,218.92916206875,219.03184039375,60.0,112.0
2296,218.92916206875,219.04746535625,67.0,99.0
2297,218.92916206875,219.05192963125,72.0,102.0
2298,218.92916206875,219.0530457,48.0,89.0
2299,218.92916206875,219.05639390625,64.0,100.0
2300,219.19701856875,219.28853620625,55.0,49.0
2301,219.19701856875,219.30304510000002,60.0,117.0
2302,219.19701856875,219.31197365,67.0,102.0
2303,219.19701856875,219.31532185625002,72.0,102.0
2304,219.19701856875,219.32313433750002,48.0,88.0
2305,219.19701856875,219.32313433750002,64.0,100.0
2306,219.46487506875002,219.52291064375,72.0,93.0
2307,219.46487506875002,219.52849098750002,48.0,53.0
2308,219.46487506875002,219.5351874,60.0,112.0
2309,219.46487506875002,219.55974091250002,64.0,117.0
2310,220.00058806875,220.0999181875,65.0,92.0
2311,220.00058806875,220.10549853125002,69.0,85.0
2312,220.00058806875,220.1066146,60.0,86.0
2313,220.26844456875,220.566434925,65.0,100.0
2314,220.26844456875,220.566434925,69.0,93.0
2315,220.26844456875,220.5731313375,60.0,102.0
2316,220.26844456875,220.63897939375002,53.0,32.0
2317,220.67022931875002,220.83540749375,65.0,96.0
2318,220.67022931875002,220.84433604375002,60.0,92.0
2319,220.67022931875002,220.85996100625002,69.0,92.0
2320,219.73273156875,220.90683589375,41.0,95.0
2321,220.80415756875,221.15125495,53.0,100.0
2322,220.26844456875,221.35549553125,48.0,50.0
2323,221.07201406875,221.423575725,65.0,100.0
2324,221.07201406875,221.43138820625,69.0,100.0
2325,221.33987056875,221.67692333125,41.0,89.0
2326,221.60772706875002,221.92022631875,60.0,88.0
2327,221.60772706875002,221.9258066625,65.0,95.0
2328,221.60772706875002,221.932503075,69.0,89.0
2329,222.14344006875,222.25839515,53.0,53.0
2330,222.14344006875,222.28406473125,48.0,53.0
2331,222.14344006875,222.28629686875001,65.0,93.0
2332,222.14344006875,222.29522541875002,60.0,95.0
2333,222.14344006875,222.3008057625,69.0,88.0
2334,221.87558356875002,222.35326099375,41.0,95.0
2335,222.41129656875,222.68584948125002,60.0,95.0
2336,222.41129656875,222.691429825,65.0,96.0
2337,222.41129656875,222.69701016875,69.0,89.0
2338,222.41129656875,222.88004544375002,53.0,96.0
2339,222.41129656875,222.8945543375,48.0,69.0
2340,222.81308131875002,223.02178617500002,60.0,92.0
2341,222.81308131875002,223.02625045000002,65.0,89.0
2342,222.81308131875002,223.04299148125,69.0,85.0
2343,222.81308131875002,223.51955283750002,41.0,72.0
2344,223.48272256875,223.5999097875,53.0,102.0
2345,223.48272256875,223.61665081875,48.0,79.0
2346,223.21486606875,223.905712625,60.0,102.0
2347,223.75057906875,223.97825709375002,40.0,107.0
2348,223.21486606875,224.06307831875,65.0,102.0
2349,223.21486606875,224.0865157625,69.0,97.0
2350,224.28629206875002,224.41687211250002,65.0,100.0
2351,224.28629206875002,224.423568525,62.0,107.0
2352,224.28629206875002,224.42691673125,69.0,96.0
2353,224.01843556875002,224.60995200625,38.0,97.0
2354,224.55414856875,224.85325499375,69.0,95.0
2355,224.55414856875,224.85660320000002,65.0,99.0
2356,224.55414856875,224.86218354375,62.0,99.0
2357,224.55414856875,225.01620103125,50.0,81.0
2358,224.55414856875,225.06307591875,45.0,56.0
2359,224.95593331875,225.0686562625,65.0,100.0
2360,224.95593331875,225.08093301875002,62.0,97.0
2361,224.95593331875,225.09432584375,69.0,93.0
2362,225.08986156875,225.64119953125,38.0,81.0
2363,225.35771806875002,225.66798518125,65.0,99.0
2364,225.35771806875002,225.76508316250002,62.0,99.0
2365,225.35771806875002,225.7740117125,69.0,99.0
2366,225.62557456875,226.0999037875,50.0,92.0
2367,225.62557456875,226.1266894375,45.0,51.0
2368,225.89343106875,226.14008226250002,65.0,99.0
2369,225.89343106875,226.1713321875,69.0,95.0
2370,225.89343106875,226.1936535625,62.0,102.0
2371,226.42914406875002,226.71262553125,62.0,102.0
2372,226.42914406875002,226.71932194375,57.0,102.0
2373,226.42914406875002,226.71932194375,65.0,100.0
2374,226.16128756875,226.77289324375002,38.0,92.0
2375,226.69700056875,227.03628546875,50.0,96.0
2376,226.83092881875,227.03628546875,62.0,117.0
2377,226.83092881875,227.03628546875,65.0,99.0
2378,226.83092881875,227.03740153750002,57.0,96.0
2379,226.69700056875,227.22155288125,45.0,65.0
2380,227.23271356875,227.5173111,57.0,102.0
2381,227.23271356875,227.52065930625,62.0,107.0
2382,227.23271356875,227.52735571875002,65.0,97.0
2383,227.23271356875,227.84431924375002,38.0,99.0
2384,227.63449831875002,227.90123875,57.0,100.0
2385,227.63449831875002,227.90235481875,62.0,112.0
2386,227.63449831875002,227.9101673,65.0,96.0
2387,227.76842656875002,227.93472081250002,50.0,112.0
2388,228.03628306875,228.213738,57.0,102.0
2389,228.03628306875,228.2293629625,62.0,102.0
2390,228.03628306875,228.2695414375,65.0,97.0
2391,228.57199606875,228.70815645625,65.0,92.0
2392,228.57199606875,228.718201075,70.0,97.0
2393,228.57199606875,228.727129625,62.0,86.0
2394,228.83985256875002,229.13003044375,65.0,97.0
2395,228.83985256875002,229.1356107875,70.0,107.0
2396,228.83985256875002,229.13672685625002,62.0,93.0
2397,228.30413956875,229.1534678875,46.0,99.0
2398,229.10770906875,229.24275338750002,53.0,25.0
2399,228.83985256875002,229.31864606250002,58.0,112.0
2400,229.24163731875,229.3722173625,65.0,90.0
2401,229.24163731875,229.37556556875,62.0,78.0
2402,229.24163731875,229.43806541875,70.0,112.0
2403,229.24163731875,229.92243925625002,46.0,92.0
2404,229.64342206875,229.95368918125,65.0,107.0
2405,229.64342206875,229.959269525,62.0,99.0
2406,229.64342206875,229.9793587625,70.0,122.0
2407,229.91127856875002,230.3365007625,53.0,48.0
2408,229.91127856875002,230.47377721875,58.0,112.0
2409,230.17913506875,230.49051825,65.0,95.0
2410,230.17913506875,230.50502714375,62.0,90.0
2411,230.17913506875,230.5284645875,70.0,107.0
2412,230.71484806875,230.8141781875,65.0,97.0
2413,230.71484806875,230.83091921875,62.0,92.0
2414,230.71484806875,230.84766025000002,70.0,100.0
2415,230.44699156875,231.09877571875,46.0,102.0
2416,230.98270456875002,231.24274858750002,65.0,97.0
2417,230.98270456875002,231.24721286250002,62.0,95.0
2418,230.98270456875002,231.25056106875002,70.0,97.0
2419,230.98270456875002,231.38560538750002,53.0,44.0
2420,230.98270456875002,231.49051585,58.0,102.0
2421,231.38448931875,231.58761383125,65.0,97.0
2422,231.38448931875,231.59654238125,62.0,89.0
2423,231.38448931875,231.628908375,70.0,100.0
2424,231.38448931875,232.09207690625,46.0,89.0
2425,232.05413056875,232.1177464875,58.0,100.0
2426,231.78627406875,232.14006786250002,62.0,90.0
2427,231.78627406875,232.14006786250002,65.0,97.0
2428,231.78627406875,232.15122855,70.0,107.0
2429,232.32198706875002,232.57421860625,70.0,107.0
2430,232.32198706875002,232.59207570625,65.0,100.0
2431,232.32198706875002,232.682477275,62.0,95.0
2432,232.85770006875,233.03738713750002,64.0,97.0
2433,232.85770006875,233.039619275,67.0,97.0
2434,232.85770006875,233.04296748125,60.0,99.0
2435,232.58984356875,233.1422976,36.0,97.0
2436,233.12555656875,233.4079219625,60.0,95.0
2437,233.12555656875,233.4079219625,64.0,97.0
2438,233.12555656875,233.40903803125002,67.0,96.0
2439,233.12555656875,233.57086800000002,48.0,81.0
2440,233.12555656875,233.61439468125002,43.0,66.0
2441,233.52734131875002,233.664617775,64.0,96.0
2442,233.52734131875002,233.67466239375,60.0,93.0
2443,233.52734131875002,233.67466239375,67.0,95.0
2444,233.52734131875002,234.18358974375002,36.0,69.0
2445,233.92912606875,234.236044975,60.0,97.0
2446,233.92912606875,234.25278600625,64.0,99.0
2447,233.92912606875,234.25501814375002,67.0,99.0
2448,234.19698256875,234.71260633125002,48.0,89.0
2449,234.19698256875,234.72265095,43.0,72.0
2450,234.46483906875002,234.81193645000002,64.0,100.0
2451,234.46483906875002,234.81640072500002,60.0,97.0
2452,234.46483906875002,234.81751679375,67.0,96.0
2453,235.00055206875,235.11997142500002,64.0,95.0
2454,235.00055206875,235.1222035625,60.0,93.0
2455,235.00055206875,235.13671245625002,67.0,89.0
2456,234.73269556875002,235.27622105,36.0,97.0
2457,235.26840856875,235.5686310625,60.0,100.0
2458,235.26840856875,235.57086320000002,64.0,107.0
2459,235.26840856875,235.57086320000002,67.0,100.0
2460,235.26840856875,235.74162171875,43.0,41.0
2461,235.26840856875,235.78180019375,48.0,90.0
2462,235.67019331875002,235.89117493125002,60.0,96.0
2463,235.67019331875002,235.90456775625,64.0,99.0
2464,235.67019331875002,235.9168445125,67.0,96.0
2465,236.07197806875,236.22376341875,64.0,102.0
2466,236.07197806875,236.23045983125002,67.0,95.0
2467,236.07197806875,236.23492410625002,60.0,100.0
2468,235.67019331875002,236.26282582500002,36.0,79.0
2469,236.07197806875,236.28849540625,43.0,69.0
2470,236.07197806875,236.3722005625,48.0,99.0
2471,236.33983456875,236.46706640625,64.0,102.0
2472,236.33983456875,236.4815753,67.0,96.0
2473,236.33983456875,236.48380743750002,60.0,102.0
2474,236.60769106875,236.7338068375,67.0,83.0
2475,236.60769106875,236.76170855625,64.0,97.0
2476,236.60769106875,236.762824625,60.0,107.0
2477,236.87554756875002,242.06973153125,53.0,112.0
2478,236.87554756875002,242.07866008125,48.0,86.0
2479,236.87554756875002,242.08758863125001,65.0,127.0
2480,236.87554756875002,242.0909368375,60.0,127.0
2481,236.87554756875002,242.09874931875,69.0,127.0
2482,236.87554756875002,242.102097525,41.0,74.0
