,start,end,pitch,velocity
0,16.1818198,16.543562260416667,78.0,84.0
1,16.6363653,16.774622889583334,78.0,84.0
2,16.86363805,17.467804777083334,78.0,82.0
3,17.5454563,17.69886540625,78.0,84.0
4,17.77272905,18.31250183125,79.0,79.0
5,18.4545473,18.859850370833332,78.0,86.0
6,18.9090928,19.31818375,76.0,84.0
7,19.3636383,19.77083531041667,74.0,87.0
8,19.8181838,20.155305045833334,78.0,78.0
9,20.272729299999998,20.40909295,78.0,83.0
10,20.50000205,21.12689605208333,78.0,79.0
11,21.1818203,21.498108210416667,79.0,83.0
12,21.6363658,22.113638575,79.0,83.0
13,22.0909113,23.1477295875,78.0,71.0
14,23.4545478,23.816290260416668,78.0,83.0
15,23.9090933,24.054926647916666,78.0,82.0
16,24.13636605,24.71022974375,78.0,77.0
17,24.8181843,24.9659115875,78.0,75.0
18,25.04545705,25.6363662,79.0,79.0
19,25.7272753,26.08144200208333,78.0,83.0
20,26.1818208,26.583335991666665,76.0,83.0
21,26.6363663,27.022729975,74.0,87.0
22,27.0909118,27.5454573,78.0,85.0
23,27.5454573,27.768942170833334,71.0,84.0
24,27.77273005,29.331442327083334,74.0,84.0
25,29.8181848,30.225381810416668,76.0,84.0
26,30.2727303,30.750003075,74.0,85.0
27,30.7272758,31.717806202083334,81.0,83.0
28,32.0909123,32.331442627083334,73.0,71.0
29,32.5454578,33.905306420833334,74.0,85.0
30,33.9090943,34.11932159375,76.0,80.0
31,34.13636705,34.473488295833334,74.0,83.0
32,34.3636398,34.81439742083333,81.0,69.0
33,34.8181853,34.962124708333334,81.0,82.0
34,35.04545805,35.65341265625,81.0,79.0
35,35.7272763,36.18750361875,73.0,84.0
36,36.1818218,36.910988539583336,74.0,82.0
37,37.0909128,37.48106435416667,74.0,94.0
38,37.5454583,37.84848863333333,76.0,84.0
39,38.0000038,38.59659476875,78.0,84.0
40,38.68182205,40.28788281666667,79.0,81.0
41,40.50000405,40.70076164583333,74.0,85.0
42,40.7272768,41.08901926041667,79.0,83.0
43,41.1818223,42.08712542083333,78.0,85.0
44,42.5454588,42.996216420833335,74.0,86.0
45,43.0000043,45.07008026458333,76.0,79.0
46,45.2727318,45.63447426041667,78.0,84.0
47,45.7272773,45.86553488958333,78.0,84.0
48,45.95455005,46.55871677708333,78.0,82.0
49,46.6363683,46.789777406249996,78.0,84.0
50,46.86364105,47.40341383125,79.0,79.0
51,47.5454593,47.95076237083333,78.0,86.0
52,48.0000048,48.40909575,76.0,84.0
53,48.4545503,48.86174731041667,74.0,87.0
54,48.9090958,49.24621704583333,78.0,78.0
55,49.3636413,49.50000495,78.0,83.0
56,49.59091405,50.217808052083335,78.0,79.0
57,50.2727323,50.58902021041666,79.0,83.0
58,50.7272778,51.204550575,79.0,83.0
59,51.1818233,52.2386415875,78.0,71.0
60,52.5454598,52.90720226041667,78.0,83.0
61,53.0000053,53.14583864791667,78.0,82.0
62,53.22727805,53.80114174375,78.0,77.0
63,53.9090963,54.0568235875,78.0,75.0
64,54.13636905,54.7272782,79.0,79.0
65,54.8181873,55.17235400208333,78.0,83.0
66,55.2727328,55.67424799166667,76.0,83.0
67,55.7272783,56.113641975,74.0,87.0
68,56.1818238,56.6363693,78.0,85.0
69,56.6363693,56.85985417083333,71.0,84.0
70,56.86364205,58.42235432708333,74.0,84.0
71,58.9090968,59.31629381041667,76.0,84.0
72,59.3636423,59.840915075,74.0,85.0
73,59.8181878,60.808718202083334,81.0,83.0
74,61.1818243,61.42235462708333,73.0,71.0
75,61.6363698,62.99621842083333,74.0,85.0
76,63.0000063,63.21023359375,76.0,80.0
77,63.22727905,63.56440029583333,74.0,83.0
78,63.4545518,63.90530942083333,81.0,69.0
79,63.9090973,64.05303670833334,81.0,82.0
80,64.13637005,64.74432465625,81.0,79.0
81,64.8181883,65.27841561875,73.0,84.0
82,65.2727338,65.95076417083334,74.0,82.0
83,65.95455205,66.17803692083334,73.0,84.0
84,66.1818248,66.57197635416667,74.0,94.0
85,66.6363703,66.85985517083333,76.0,84.0
86,66.86364305,67.08712792083334,78.0,84.0
87,67.0909158,67.54167342083333,79.0,84.0
88,67.5454613,67.99621892083333,78.0,84.0
89,68.0000068,68.67803717083333,79.0,81.0
90,68.68182505,68.87121900833333,78.0,83.0
91,68.9090978,69.31440087083334,79.0,84.0
92,69.3636433,69.52652210416667,78.0,85.0
93,69.59091605,70.13447671041666,79.0,84.0
94,70.2727343,70.58523433125,81.0,85.0
95,70.7272798,72.50190118958334,81.0,84.0
96,72.5454618,73.28599217708333,78.0,87.0
97,73.4545528,74.22917408958334,79.0,84.0
98,74.3636438,75.47917421458334,81.0,73.0
99,75.7272803,76.10606821666667,74.0,88.0
100,76.1818258,76.59849250833334,73.0,86.0
101,76.6363713,77.07008346458333,74.0,84.0
102,77.0909168,77.4886441125,78.0,85.0
103,77.5454623,77.86932596875,83.0,82.0
104,78.0000078,79.34659884375,83.0,87.0
105,79.3636443,79.82197767916666,78.0,84.0
106,79.8181898,80.90152324166667,81.0,86.0
107,80.95455355,81.07576568333333,78.0,84.0
108,81.1818263,81.29356873541667,83.0,85.0
109,81.40909905,81.54735663958333,85.0,89.0
110,81.6363718,81.94508395208334,86.0,85.0
111,82.0909173,82.43372036458334,85.0,88.0
112,82.5454628,82.92425071666666,83.0,84.0
113,83.0000083,83.16288710416667,81.0,84.0
114,83.22728105,83.67803867083333,83.0,83.0
115,83.68182655,84.06250840625,81.0,79.0
116,84.3636448,84.704553925,78.0,83.0
117,84.8181903,85.12690245208333,81.0,85.0
118,85.2727358,85.6477358375,78.0,84.0
119,85.7272813,85.86932676875,76.0,83.0
120,85.95455405,87.99622092083334,76.0,82.0
121,88.68182705,88.8977361625,74.0,87.0
122,88.90909979999999,89.26516044166667,76.0,85.0
123,89.3636453,89.57008471458333,76.0,84.0
124,89.59091805,90.25569084375,81.0,83.0
125,90.2727363,90.72349392083333,73.0,78.0
126,90.7272818,92.14584254791667,74.0,87.0
127,92.31819105,92.49053955208333,74.0,85.0
128,92.5454638,92.886372925,76.0,85.0
129,93.0000093,93.18940325833333,76.0,82.0
130,93.22728205,93.84660029375,83.0,83.0
131,93.9091003,94.13069123125,81.0,81.0
132,94.13637305,95.25190346458334,78.0,84.0
133,95.51326712708334,95.568191375,71.0,84.0
134,95.7272823,95.87122170833334,71.0,85.0
135,95.95455505,96.09849445833333,74.0,85.0
136,96.1818278,96.5795551125,78.0,67.0
137,96.6363733,96.79925210416667,76.0,83.0
138,96.86364605,97.31440367083333,76.0,83.0
139,97.31819155,97.67425219166667,76.0,84.0
140,97.77273705,97.92614615625,74.0,87.0
141,98.0000098,98.34281286458334,78.0,85.0
142,98.4545553,98.90531292083334,76.0,83.0
143,98.9091008,99.2841008375,76.0,84.0
144,99.3636463,99.81440392083333,74.0,85.0
145,99.8181918,100.72349492083333,83.0,84.0
146,100.7272828,101.63258592083334,81.0,80.0
147,101.6363738,102.37690417708333,78.0,87.0
148,102.5454648,103.32008608958333,79.0,84.0
149,103.4545558,104.57008621458333,81.0,73.0
150,104.81819229999999,105.19698021666666,74.0,88.0
151,105.2727378,105.68940450833334,73.0,86.0
152,105.7272833,106.16099546458334,74.0,84.0
153,106.1818288,106.5795561125,78.0,85.0
154,106.6363743,106.96023796875,83.0,82.0
155,107.0909198,108.43751084375,83.0,87.0
156,108.4545563,108.91288967916667,78.0,84.0
157,108.9091018,109.99243524166667,81.0,86.0
158,110.04546555,110.16667768333333,78.0,84.0
159,110.2727383,110.38448073541667,83.0,85.0
160,110.50001105,110.63826863958333,85.0,89.0
161,110.7272838,111.03599595208334,86.0,85.0
162,111.1818293,111.52463236458334,85.0,88.0
163,111.6363748,112.01516271666667,83.0,84.0
164,112.0909203,112.25379910416666,81.0,84.0
165,112.31819305,112.76895067083333,83.0,83.0
166,112.77273855,113.15342040625,81.0,79.0
167,113.4545568,113.795465925,78.0,83.0
168,113.9091023,114.21781445208333,81.0,85.0
169,114.3636478,114.7386478375,78.0,84.0
170,114.8181933,114.96023876875,76.0,83.0
171,115.04546605,117.08713292083333,76.0,82.0
172,117.77273905,117.9886481625,74.0,87.0
173,118.0000118,118.35607244166667,76.0,85.0
174,118.4545573,118.66099671458333,76.0,84.0
175,118.68183005,119.34660284375,81.0,83.0
176,119.3636483,119.81440592083334,73.0,78.0
177,119.8181938,121.23675454791666,74.0,87.0
178,121.40910305,121.58145155208334,74.0,85.0
179,121.6363758,121.977284925,76.0,85.0
180,122.0909213,122.28031525833333,76.0,82.0
181,122.31819405,122.93751229375,83.0,83.0
182,123.0000123,123.22160323125,81.0,81.0
183,123.22728505,124.34281546458334,78.0,84.0
184,124.60417912708333,124.659103375,71.0,84.0
185,124.8181943,124.96213370833333,71.0,85.0
186,125.04546705,125.18940645833334,74.0,85.0
187,125.2727398,125.6704671125,78.0,67.0
188,125.7272853,125.89016410416667,76.0,83.0
189,125.95455805,126.40531567083333,76.0,83.0
190,126.40910355,126.76516419166667,81.0,84.0
191,127.0909218,127.43372486458334,78.0,85.0
192,127.5454673,127.99622492083333,76.0,83.0
193,128.0000128,128.90531592083335,76.0,84.0
194,128.9091038,129.81440692083333,71.0,84.0
195,129.8181948,131.63258892083334,74.0,80.0
196,147.0909238,147.45266626041666,78.0,84.0
197,147.5454693,147.68372688958334,78.0,84.0
198,147.77274205,148.37690877708334,78.0,82.0
199,148.4545603,148.60796940625,78.0,84.0
200,148.68183305,149.22160583125,79.0,79.0
201,149.3636513,149.76895437083334,78.0,86.0
202,149.8181968,150.22728775,76.0,84.0
203,150.2727423,150.67993931041667,74.0,87.0
204,150.7272878,151.06440904583334,78.0,78.0
205,151.1818333,151.31819695,78.0,83.0
206,151.40910605,152.03600005208332,78.0,79.0
207,152.0909243,152.40721221041667,79.0,83.0
208,152.5454698,153.022742575,79.0,83.0
209,153.0000153,154.0568335875,78.0,71.0
210,154.36365179999999,154.72539426041666,78.0,83.0
211,154.8181973,154.96403064791667,78.0,82.0
212,155.04547005,155.61933374375,78.0,77.0
213,155.7272883,155.8750155875,78.0,75.0
214,155.95456105,156.5454702,79.0,79.0
215,156.6363793,156.99054600208333,78.0,83.0
216,157.0909248,157.49243999166666,76.0,83.0
217,157.5454703,157.931833975,74.0,87.0
218,158.0000158,158.4545613,78.0,85.0
219,158.4545613,158.67804617083334,71.0,84.0
220,158.68183405,160.24054632708334,74.0,84.0
221,160.7272888,161.13448581041666,76.0,84.0
222,161.1818343,161.659107075,74.0,85.0
223,161.6363798,162.62691020208334,81.0,83.0
224,163.0000163,163.24054662708332,73.0,71.0
225,163.4545618,164.81441042083333,74.0,85.0
226,164.8181983,165.02842559375,76.0,80.0
227,165.04547105,165.38259229583332,74.0,83.0
228,165.2727438,165.72350142083334,81.0,69.0
229,165.7272893,165.87122870833332,81.0,82.0
230,165.95456205,166.56251665625,81.0,79.0
231,166.6363803,167.09660761875,73.0,84.0
232,167.0909258,167.76895617083332,74.0,82.0
233,167.77274405,167.99622892083335,73.0,84.0
234,168.0000168,168.39016835416666,74.0,94.0
235,168.4545623,168.67804717083334,76.0,84.0
236,168.68183505,168.90531992083334,78.0,84.0
237,168.9091078,169.35986542083333,79.0,84.0
238,169.3636533,169.81441092083332,78.0,84.0
239,169.8181988,170.49622917083335,79.0,81.0
240,170.50001705,170.68941100833334,78.0,83.0
241,170.7272898,171.13259287083332,79.0,84.0
242,171.1818353,171.34471410416666,78.0,85.0
243,171.40910805,171.95266871041667,79.0,84.0
244,172.0909263,172.40342633125,81.0,85.0
245,172.5454718,174.32009318958333,81.0,84.0
246,174.3636538,175.10418417708334,78.0,87.0
247,175.2727448,176.04736608958333,79.0,84.0
248,176.1818358,177.29736621458332,81.0,73.0
249,177.5454723,177.92426021666665,74.0,88.0
250,178.0000178,178.41668450833333,73.0,86.0
251,178.4545633,178.88827546458333,74.0,84.0
252,178.9091088,179.3068361125,78.0,85.0
253,179.3636543,179.68751796875,83.0,82.0
254,179.8181998,181.16479084375,83.0,87.0
255,181.1818363,181.64016967916666,78.0,84.0
256,181.6363818,182.71971524166668,81.0,86.0
257,182.77274555,182.89395768333333,78.0,84.0
258,183.0000183,183.11176073541665,83.0,85.0
259,183.22729105,183.36554863958332,85.0,89.0
260,183.4545638,183.76327595208332,86.0,85.0
261,183.9091093,184.25191236458332,85.0,88.0
262,184.3636548,184.74244271666666,83.0,84.0
263,184.8182003,184.98107910416667,81.0,84.0
264,185.04547305,185.49623067083334,83.0,83.0
265,185.50001855,185.88070040624999,81.0,79.0
266,186.18183679999999,186.522745925,78.0,83.0
267,186.6363823,186.94509445208334,81.0,85.0
268,187.0909278,187.4659278375,78.0,84.0
269,187.5454733,187.68751876875,76.0,83.0
270,187.77274605,189.81441292083332,76.0,82.0
271,190.50001905,190.7159281625,74.0,87.0
272,190.7272918,191.08335244166668,76.0,85.0
273,191.1818373,191.38827671458333,76.0,84.0
274,191.40911005,192.07388284375,81.0,83.0
275,192.0909283,192.54168592083334,73.0,78.0
276,192.5454738,193.96403454791667,74.0,87.0
277,194.13638305,194.30873155208334,74.0,85.0
278,194.3636558,194.704564925,76.0,85.0
279,194.8182013,195.00759525833334,76.0,82.0
280,195.04547405,195.66479229375,83.0,83.0
281,195.7272923,195.94888323125,81.0,81.0
282,195.95456504999999,197.07009546458335,78.0,84.0
283,197.33145912708332,197.386383375,71.0,84.0
284,197.5454743,197.68941370833332,71.0,85.0
285,197.77274705,197.91668645833334,74.0,85.0
286,198.0000198,198.39774711249999,78.0,67.0
287,198.4545653,198.61744410416668,76.0,83.0
288,198.68183805,199.13259567083333,76.0,83.0
289,199.13638355,199.49244419166666,76.0,84.0
290,199.59092905,199.74433815625,74.0,87.0
291,199.8182018,200.16100486458333,78.0,85.0
292,200.2727473,200.72350492083334,76.0,83.0
293,200.7272928,201.1022928375,76.0,84.0
294,201.1818383,201.63259592083332,74.0,85.0
295,201.6363838,202.54168692083334,83.0,84.0
296,202.5454748,203.45077792083333,81.0,80.0
297,203.4545658,204.19509617708334,78.0,87.0
298,204.3636568,205.13827808958334,79.0,84.0
299,205.2727478,206.38827821458332,81.0,73.0
300,206.6363843,207.01517221666666,74.0,88.0
301,207.0909298,207.50759650833334,73.0,86.0
302,207.5454753,207.97918746458333,74.0,84.0
303,208.0000208,208.3977481125,78.0,85.0
304,208.4545663,208.77842996875,83.0,82.0
305,208.9091118,210.25570284375,83.0,87.0
306,210.2727483,210.73108167916666,78.0,84.0
307,210.7272938,211.81062724166668,81.0,86.0
308,211.86365755,211.98486968333333,78.0,84.0
309,212.0909303,212.20267273541666,83.0,85.0
310,212.31820305,212.45646063958333,85.0,89.0
311,212.5454758,212.85418795208332,86.0,85.0
312,213.0000213,213.34282436458332,85.0,88.0
313,213.4545668,213.83335471666666,83.0,84.0
314,213.9091123,214.07199110416667,81.0,84.0
315,214.13638505,214.58714267083334,83.0,83.0
316,214.59093055,214.97161240625,81.0,79.0
317,215.2727488,215.613657925,78.0,83.0
318,215.7272943,216.03600645208334,81.0,85.0
319,216.1818398,216.5568398375,78.0,84.0
320,216.6363853,216.77843076875,76.0,83.0
321,216.86365805,218.90532492083332,76.0,82.0
322,219.59093105,219.8068401625,74.0,87.0
323,219.8182038,220.17426444166668,76.0,85.0
324,220.2727493,220.47918871458333,76.0,84.0
325,220.50002205,221.16479484375,81.0,83.0
326,221.1818403,221.63259792083332,73.0,78.0
327,221.6363858,223.05494654791667,74.0,87.0
328,223.22729505,223.39964355208332,74.0,85.0
329,223.4545678,223.795476925,76.0,85.0
330,223.9091133,224.09850725833334,76.0,82.0
331,224.13638605,224.75570429375,83.0,83.0
332,224.8182043,225.03979523125,81.0,81.0
333,225.04547705,226.16100746458332,78.0,84.0
334,226.42237112708332,226.477295375,71.0,84.0
335,226.6363863,226.78032570833332,71.0,85.0
336,226.86365905,227.00759845833332,74.0,85.0
337,227.0909318,227.4886591125,78.0,67.0
338,227.5454773,227.70835610416665,76.0,83.0
339,227.77275004999998,228.22350767083333,76.0,83.0
340,228.22729555,228.58335619166667,81.0,84.0
341,228.9091138,229.77464418958334,78.0,85.0
342,229.8182048,232.54168992083333,76.0,84.0
343,233.886387025,234.2386597875,76.0,83.0
344,234.3522961625,235.25381140416667,76.0,84.0
345,235.70835690416666,237.159114625,74.0,86.0
346,236.25381150416666,237.17237220208332,78.0,97.0
347,237.12691765208334,238.03222077291667,79.0,95.0
348,238.00949349791668,242.04547875,81.0,95.0
349,242.11176663541667,243.25760008333333,86.0,108.0
350,243.21403947291665,243.39017585416667,83.0,108.0
351,243.46403949791667,243.89775166249999,83.0,108.0
352,243.83146377708334,245.24813058541667,81.0,97.0
353,249.38260069583333,250.29358563541666,86.0,108.0
354,250.24244926666665,250.75381295416668,88.0,99.0
355,250.75381295416668,251.21214633333332,83.0,106.0
356,251.16290390416665,251.31820695,81.0,109.0
357,251.30873725208332,251.45078272083333,78.0,121.0
358,251.42426756666666,252.37881311666666,81.0,96.0
359,252.32578280833334,252.54169192083333,74.0,87.0
360,252.55305555833334,252.9091162,76.0,85.0
361,253.00760105833334,253.21404047291668,76.0,84.0
362,253.23487380833333,253.89964660208332,81.0,83.0
363,253.91669205833333,254.36744967916667,73.0,78.0
364,254.37123755833332,254.62123758333334,74.0,87.0
365,254.58335879166665,255.0000255,76.0,87.0
366,254.82578305833334,255.96214680833333,74.0,87.0
367,255.96214680833333,256.13449531041664,74.0,85.0
368,256.1894195583333,256.5303286833333,76.0,85.0
369,256.6439650583333,256.8333590166667,76.0,82.0
370,256.8712378083333,257.4905560520833,83.0,83.0
371,257.5530560583333,257.77464698958335,81.0,81.0
372,257.7803288083333,258.2576015833333,78.0,84.0
373,258.20078339583335,258.3655561395833,76.0,81.0
374,258.34851068333336,259.15154106666665,74.0,83.0
375,259.1572228854167,259.21214713333336,71.0,84.0
376,259.37123805833335,259.51517746666667,71.0,85.0
377,259.59851080833334,259.74245021666667,74.0,85.0
378,259.82578355833334,260.2235108708333,78.0,67.0
379,260.28032905833334,260.4432078625,76.0,83.0
380,260.50760180833333,260.95835942916665,76.0,83.0
381,260.96214730833333,261.78032920833334,81.0,84.0
382,261.6439655583333,262.04548075,78.0,85.0
383,262.02085953541666,262.2121474333333,79.0,78.0
384,262.1477534875,262.71972324166666,78.0,82.0
385,262.68942020833333,265.0719962041667,76.0,73.0
386,267.0909358,268.4507844208333,76.0,84.0
387,268.4545723,270.26896642083335,74.0,80.0
388,273.8769213270833,274.20646681458334,76.0,84.0
389,274.32578500833336,275.28033055833333,78.0,82.0
390,275.22730025,275.69699726666664,76.0,81.0
391,275.66101241458335,278.09851265833333,74.0,84.0
