,start,end,pitch,velocity
0,0.22727275,1.6780304708333333,81.0,67.0
1,1.5416668208333333,2.0208335354166667,74.0,66.0
2,1.98295474375,2.47159115625,73.0,71.0
3,0.22727275,2.840909375,50.0,80.0
4,2.4015153916666665,2.9015154416666666,74.0,66.0
5,0.68750006875,2.9450760520833335,57.0,63.0
6,2.8484851333333334,3.2859851770833335,78.0,62.0
7,3.2765154791666666,3.4204548875,83.0,71.0
8,1.1723486020833334,3.558712477083333,62.0,69.0
9,1.5378789416666667,3.6477276375,64.0,74.0
10,1.977272925,3.7973488645833333,66.0,59.0
11,3.67613673125,4.5113640875,64.0,79.0
12,4.151515566666666,4.700758045833333,57.0,69.0
13,3.68181855,4.876894427083333,83.0,89.0
14,4.95454595,5.486742972916667,78.0,74.0
15,4.566288335416667,5.763258152083333,64.0,71.0
16,3.672348852083333,6.295455175,49.0,72.0
17,6.31818245,6.51704610625,74.0,66.0
18,6.308712752083333,6.797349164583333,83.0,71.0
19,6.74431885625,6.850379472916667,76.0,55.0
20,5.40909145,7.138258289583333,81.0,73.0
21,5.40340963125,7.145834047916667,69.0,71.0
22,5.78977330625,7.1818189,57.0,51.0
23,6.723485520833333,7.27840981875,85.0,82.0
24,7.22727345,7.520834085416666,78.0,75.0
25,7.22159163125,7.734849258333333,86.0,89.0
26,7.609849245833333,7.895834122916667,76.0,63.0
27,7.59659166875,7.928031095833333,85.0,87.0
28,7.2083340541666665,8.03977353125,59.0,68.0
29,7.214015872916667,8.05113716875,62.0,71.0
30,8.026515954166667,8.204546275,76.0,80.0
31,8.0113644375,8.435606904166667,85.0,62.0
32,7.609849245833333,8.526516004166666,54.0,65.0
33,7.2159098125,8.541667520833334,47.0,77.0
34,8.446970541666667,8.71022814375,83.0,86.0
35,8.450758420833333,8.7613645125,74.0,73.0
36,8.435606904166667,8.964016047916667,59.0,83.0
37,8.844697854166666,9.003788779166667,74.0,71.0
38,8.001894739583333,9.365531239583333,66.0,85.0
39,9.280303958333333,9.568182775,73.0,62.0
40,9.2613645625,9.581440352083334,81.0,79.0
41,8.837122095833333,9.6704555125,83.0,92.0
42,9.268940320833334,9.734849458333333,57.0,73.0
43,9.685607029166666,10.111743435416667,71.0,49.0
44,9.696970666666667,10.121213133333333,78.0,63.0
45,8.84659179375,10.359849520833333,42.0,71.0
46,10.123107072916667,10.390152554166667,49.0,68.0
47,10.128788891666666,10.71022834375,81.0,73.0
48,9.685607029166666,10.869319268749999,61.0,72.0
49,10.662879854166667,11.818183,78.0,58.0
50,11.59091025,12.172349702083332,76.0,73.0
51,10.666667733333334,12.1818194,71.0,40.0
52,11.13636475,12.848486133333333,47.0,68.0
53,10.660985914583334,12.901516441666667,40.0,83.0
54,11.621213283333333,12.964016447916666,55.0,76.0
55,12.049243629166666,13.058713427083333,52.0,80.0
56,12.04545575,15.606062166666666,78.0,73.0
57,13.047349789583333,15.753789454166666,45.0,70.0
58,13.257577083333333,15.804925822916667,62.0,66.0
59,13.058713427083333,15.814395520833333,55.0,58.0
60,13.13636495,15.814395520833333,58.0,62.0
61,16.13257737083333,17.3636381,50.0,75.0
62,16.21022889375,18.33144122708333,66.0,63.0
63,16.117425854166665,18.33522910625,62.0,67.0
64,16.058713727083333,18.3977291125,57.0,59.0
65,19.71022924375,22.5454568,58.0,65.0
66,19.774623189583334,22.575759833333333,38.0,67.0
67,19.787880766666667,22.623108322916668,62.0,53.0
68,19.810608041666665,22.643941658333333,67.0,59.0
69,23.356062941666668,25.189396458333334,57.0,64.0
70,23.429926585416666,25.36932071875,66.0,72.0
71,23.388259914583333,25.44886618125,60.0,74.0
72,26.140154129166667,26.477275375,66.0,85.0
73,25.68750256875,26.547351139583334,57.0,63.0
74,23.39394173333333,26.57386629375,50.0,79.0
75,26.63068448125,26.736745097916668,60.0,65.0
76,27.0340936125,28.263260402083333,59.0,67.0
77,27.026517854166666,28.378790716666668,55.0,65.0
78,28.85795743125,29.68182115,62.0,68.0
79,28.854169552083334,29.708336304166668,55.0,64.0
80,28.407199810416667,29.750002975,50.0,55.0
81,27.022729975,29.776518129166668,43.0,70.0
82,30.598487908333333,31.808715302083332,57.0,54.0
83,30.632578820833334,31.808715302083332,61.0,70.0
84,30.691290947916666,31.833336516666666,42.0,71.0
85,30.685609129166668,32.1250032125,66.0,69.0
86,32.3636396,32.95454875,59.0,63.0
87,32.42613960625,32.97159420625,62.0,71.0
88,32.50000325,32.98106390416667,66.0,70.0
89,32.922351777083335,33.53598820208333,54.0,70.0
90,32.48295779375,33.61932154375,47.0,77.0
91,33.382579095833336,33.68182155,59.0,85.0
92,34.3295488875,35.29167019583333,57.0,70.0
93,34.33523070625,35.3295489875,61.0,74.0
94,34.7613671125,35.35417020208333,49.0,65.0
95,34.337124645833335,35.371215658333334,42.0,79.0
96,35.21780655208333,35.840912675,66.0,86.0
97,36.07765512291667,36.4886400125,71.0,71.0
98,36.07197330416667,36.58523093125,74.0,80.0
99,37.02841279375,37.23674614791667,66.0,79.0
100,37.03030673333333,37.263261302083336,62.0,79.0
101,36.5340945625,37.268943120833335,54.0,45.0
102,36.0795490625,37.3636401,47.0,79.0
103,37.9431856125,38.51515536666667,67.0,67.0
104,37.92424621666667,38.89204934375,79.0,74.0
105,38.81250388125,39.496216070833334,67.0,80.0
106,39.246216045833336,39.59091305,74.0,75.0
107,39.7272767,39.99621612083333,79.0,73.0
108,39.719700941666666,40.07007976458333,74.0,75.0
109,39.725382760416664,40.12689795208333,67.0,68.0
110,38.35985232083333,41.39962535208333,50.0,62.0
111,40.63447376041667,41.39962535208333,67.0,70.0
112,40.6363677,41.41477686875,74.0,80.0
113,37.93750379375,41.46780717708333,43.0,80.0
114,41.4886405125,42.11553451458333,57.0,64.0
115,41.55492839791667,42.35417090208333,61.0,66.0
116,41.60417082708333,42.535989102083335,64.0,74.0
117,41.59659506875,43.40909525,45.0,80.0
118,42.492428491666665,43.4659134375,57.0,83.0
119,42.952655810416665,43.49621647083333,64.0,83.0
120,43.88258014583333,44.340913525,58.0,35.0
121,42.054928447916666,44.75379235416667,52.0,71.0
122,44.30871655208333,44.785989327083335,64.0,47.0
123,43.433716464583334,45.2840954375,45.0,55.0
124,44.75947417291667,45.287883316666665,57.0,39.0
125,45.1704590625,45.287883316666665,57.0,46.0
126,45.1704590625,45.660989414583334,50.0,49.0
127,45.1704590625,45.6931863875,66.0,57.0
128,45.1704590625,45.69886820625,62.0,53.0
129,46.13636825,46.52083798541667,62.0,44.0
130,46.13636825,46.5340955625,57.0,45.0
131,46.13636825,46.537883441666665,66.0,55.0
132,45.1704590625,47.11742895416667,38.0,51.0
133,47.04545925,47.58333809166667,62.0,48.0
134,47.04545925,47.58333809166667,66.0,55.0
135,47.04545925,47.58523203125,57.0,43.0
136,47.50000475,48.1477320875,38.0,57.0
137,48.181823,48.4204593875,50.0,44.0
138,48.40909575,48.47538363541667,38.0,48.0
139,47.95455025,48.47538363541667,66.0,63.0
140,47.95455025,48.479171514583335,62.0,62.0
141,47.95455025,48.49811091041666,57.0,63.0
142,48.86364125,49.3636413,66.0,63.0
143,48.86364125,49.37311099791667,61.0,64.0
144,48.86364125,49.38258069583333,57.0,63.0
145,49.77273225,50.18371713958334,66.0,58.0
146,49.77273225,50.20076259583333,57.0,47.0
147,49.77273225,50.204550475,61.0,58.0
148,48.86364125,50.804929322916664,50.0,44.0
149,50.68182325,51.18561117916666,66.0,51.0
150,50.68182325,51.195080877083335,57.0,47.0
151,50.68182325,51.20076269583333,61.0,43.0
152,48.86364125,51.6250051625,38.0,52.0
153,51.59091425,52.07576278333333,61.0,65.0
154,51.59091425,52.07576278333333,66.0,64.0
155,52.04545975,52.10417187708333,38.0,67.0
156,51.59091425,52.10417187708333,57.0,64.0
157,51.13636875,52.106065816666664,50.0,51.0
158,52.50000525,53.01894469583333,57.0,62.0
159,52.50000525,53.022732575,60.0,62.0
160,52.50000525,53.026520454166665,66.0,71.0
161,53.40909625,53.797353864583336,60.0,51.0
162,53.40909625,53.81250538125,66.0,53.0
163,53.40909625,53.81439932083333,57.0,51.0
164,52.50000525,54.50568726875,50.0,57.0
165,54.31818725,54.78599032708333,66.0,51.0
166,54.31818725,54.795460025,57.0,47.0
167,54.31818725,54.79735396458333,60.0,48.0
168,54.77273275,55.263263102083336,50.0,57.0
169,52.50000525,55.27083886041667,38.0,56.0
170,55.22727825,55.77462678958333,57.0,69.0
171,55.22727825,55.78977830625,66.0,68.0
172,55.22727825,55.81061164166667,60.0,65.0
173,55.454551,55.90530862083333,50.0,62.0
174,55.68182375,56.22159653125,38.0,67.0
175,56.13636925,56.67424809166667,67.0,62.0
176,56.13636925,56.69886930625,62.0,57.0
177,56.13636925,56.70265718541667,59.0,56.0
178,57.04546025,57.410990589583335,67.0,52.0
179,57.04546025,57.42614210625,62.0,53.0
180,57.04546025,57.43750574375,59.0,45.0
181,57.04546025,58.07386944375,55.0,36.0
182,57.95455125,58.44886948125,59.0,48.0
183,57.95455125,58.46402099791667,67.0,45.0
184,57.95455125,58.5454604,62.0,51.0
185,58.6363695,58.90341498125,55.0,62.0
186,58.86364225,59.0795513625,67.0,82.0
187,58.86364225,59.08523318125,59.0,77.0
188,58.86364225,59.11553621458334,62.0,72.0
189,56.13636925,59.17424834166667,43.0,54.0
190,59.31818775,59.41288472916666,62.0,53.0
191,59.31818775,59.42424836666667,69.0,61.0
192,59.31818775,59.431824125,59.0,47.0
193,59.090915,59.435612004166664,55.0,63.0
194,59.5454605,59.617430204166666,43.0,36.0
195,59.77273325,60.30871815208333,54.0,57.0
196,59.77273325,60.378793916666666,61.0,53.0
197,59.77273325,60.39583937291667,66.0,71.0
198,59.77273325,60.399627252083334,57.0,56.0
199,60.4545515,60.613642425,54.0,24.0
200,59.77273325,60.94697579166667,42.0,53.0
201,60.68182425,61.08523338125,57.0,76.0
202,60.68182425,61.126900052083336,61.0,75.0
203,60.68182425,61.132581870833334,66.0,73.0
204,61.13636975,61.206445514583336,54.0,52.0
205,61.59091525,61.977278925,54.0,32.0
206,61.59091525,62.19508197708333,66.0,58.0
207,61.59091525,62.212127433333336,62.0,52.0
208,61.59091525,62.217809252083335,59.0,53.0
209,62.2727335,62.498112310416666,54.0,50.0
210,61.59091525,62.678036570833335,47.0,43.0
211,62.727279,62.96780932708333,54.0,57.0
212,62.50000625,62.99811236041667,59.0,77.0
213,62.50000625,62.99811236041667,66.0,83.0
214,62.50000625,63.01894569583333,62.0,76.0
215,62.95455175,63.030309333333335,47.0,59.0
216,63.1818245,63.246218445833335,45.0,41.0
217,63.40909725,63.8750063875,54.0,56.0
218,63.40909725,63.97538518541667,66.0,67.0
219,63.40909725,63.99621852083333,57.0,64.0
220,63.40909725,64.00568821875,61.0,63.0
221,64.0909155,64.33333976666667,54.0,57.0
222,63.40909725,64.51515796666666,42.0,58.0
223,64.545461,64.63068828125,54.0,55.0
224,64.31818825,64.87879436666667,57.0,75.0
225,64.31818825,64.89015800416666,66.0,76.0
226,64.31818825,64.89962770208334,61.0,74.0
227,65.0000065,65.09659741875,54.0,64.0
228,64.77273375,65.19887015625,42.0,49.0
229,65.22727925,65.67993081041666,54.0,21.0
230,65.22727925,65.83144597708333,62.0,63.0
231,65.22727925,65.83902173541667,66.0,63.0
232,65.22727925,65.840915675,59.0,62.0
233,65.9090975,66.16477934375,54.0,47.0
234,65.22727925,66.3522793625,47.0,54.0
235,66.363643,66.47917331458333,54.0,47.0
236,66.13637025,66.54356726041667,62.0,68.0
237,66.13637025,66.5568248375,66.0,79.0
238,66.13637025,66.58902181041667,59.0,75.0
239,66.59091575,66.64962787708333,42.0,50.0
240,67.04546125,67.62121888333333,64.0,63.0
241,67.04546125,67.62879464166667,55.0,65.0
242,67.04546125,67.64394615833334,59.0,62.0
243,67.04546125,68.0113704375,52.0,63.0
244,67.04546125,68.28977955625,40.0,63.0
245,67.95455225,68.32197652916666,55.0,71.0
246,67.95455225,68.3750068375,59.0,72.0
247,67.95455225,68.431825025,64.0,67.0
248,68.40909775,68.72349172083334,52.0,69.0
249,68.6363705,68.93371901458333,40.0,76.0
250,68.86364325,68.93371901458333,40.0,76.0
251,68.86364325,69.39584027291667,52.0,43.0
252,68.86364325,69.46780997708333,55.0,76.0
253,68.86364325,69.48106755416667,64.0,83.0
254,68.86364325,69.48485543333334,59.0,79.0
255,69.5454615,69.84659789375,52.0,61.0
256,69.77273425,70.28788581666667,59.0,72.0
257,69.77273425,70.3068252125,55.0,76.0
258,69.77273425,70.340916125,64.0,75.0
259,70.22727975,70.40909795,40.0,65.0
260,70.000007,70.43750704375,52.0,71.0
261,70.68182525,71.26705258125,52.0,64.0
262,70.68182525,71.31440107083333,61.0,83.0
263,70.68182525,71.32008288958333,57.0,83.0
264,70.68182525,71.32765864791666,64.0,83.0
265,71.3636435,71.91477991875,52.0,63.0
266,71.59091625,72.04735568958333,64.0,56.0
267,71.59091625,72.05871932708334,57.0,77.0
268,72.04546175,72.4204617875,52.0,48.0
269,72.50000725,72.99243154166666,67.0,92.0
270,72.50000725,72.99621942083333,57.0,88.0
271,72.95455275,73.31250733125,52.0,46.0
272,73.40909825,73.659098275,57.0,81.0
273,73.40909825,73.66478009375,66.0,83.0
274,73.636371,73.82765889791666,52.0,57.0
275,70.68182525,73.89205284375,45.0,68.0
276,73.86364375,73.93371951458333,57.0,75.0
277,73.86364375,73.96970436666666,67.0,76.0
278,74.31818925,74.78788626666666,50.0,55.0
279,74.31818925,74.86174991041666,62.0,67.0
280,74.31818925,74.86743172916667,57.0,74.0
281,74.31818925,74.8750074875,69.0,71.0
282,74.31818925,74.87879536666667,66.0,70.0
283,75.0000075,75.33144692708333,50.0,50.0
284,75.22728024999999,75.64584089791667,62.0,84.0
285,75.22728024999999,75.65531059583333,66.0,78.0
286,75.22728024999999,75.659098475,57.0,88.0
287,75.22728024999999,75.659098475,69.0,82.0
288,75.68182575,76.2613712625,50.0,47.0
289,76.13637125,76.60417432708333,66.0,71.0
290,76.13637125,76.61553796458334,57.0,72.0
291,76.13637125,76.61743190416666,62.0,57.0
292,76.13637125,76.63068948125,69.0,70.0
293,76.59091675,77.07008346458333,50.0,51.0
294,74.31818925,77.250007725,38.0,62.0
295,77.04546225,77.51326532708333,62.0,75.0
296,77.04546225,77.54167442083333,66.0,73.0
297,77.50000775,77.5454623,38.0,75.0
298,77.04546225,77.5568259375,57.0,85.0
299,77.04546225,77.55871987708333,69.0,79.0
300,77.272735,77.75947747291667,50.0,63.0
301,77.7272805,77.77652292916666,38.0,62.0
302,77.95455325,78.5113714875,49.0,71.0
303,77.95455325,78.51326542708334,69.0,74.0
304,77.95455325,78.52462906458334,57.0,72.0
305,77.95455325,78.53031088333333,66.0,71.0
306,77.95455325,78.55493209791666,61.0,74.0
307,78.6363715,79.03788669166667,49.0,37.0
308,78.86364425,79.3068261125,57.0,80.0
309,78.86364425,79.33144732708334,69.0,75.0
310,78.86364425,79.35417460208333,66.0,75.0
311,78.86364425,79.35606854166667,61.0,77.0
312,79.31818975,79.80114434375,49.0,45.0
313,79.77273525,80.40531107083333,57.0,85.0
314,79.77273525,80.41288682916667,66.0,78.0
315,79.77273525,80.41667470833333,61.0,75.0
316,79.77273525,80.42425046666666,69.0,83.0
317,80.4545535,80.70265958541667,49.0,46.0
318,80.68182625,80.92235657708333,69.0,89.0
319,80.68182625,80.95455355,57.0,91.0
320,77.95455325,80.96781112708334,37.0,67.0
321,80.68182625,80.96970506666666,66.0,74.0
322,80.68182625,81.08523538125,61.0,85.0
323,81.13637175,81.23106872916667,55.0,64.0
324,81.13637175,81.25190206458333,67.0,68.0
325,80.909099,81.33712934583333,49.0,62.0
326,81.3636445,81.42803844583334,37.0,53.0
327,81.59091725,82.14394760833333,47.0,54.0
328,81.59091725,82.19508397708333,66.0,75.0
329,81.59091725,82.20076579583333,62.0,67.0
330,81.59091725,82.24053852708333,59.0,79.0
331,82.2727355,82.59849310833333,47.0,62.0
332,82.50000825,83.05872042708333,59.0,95.0
333,82.50000825,83.06061436666667,66.0,92.0
334,82.50000825,83.07387194375,62.0,90.0
335,81.59091725,83.0909174,35.0,61.0
336,82.95455375,83.24053862708334,47.0,62.0
337,83.40909925,83.92803869583334,45.0,67.0
338,83.40909925,84.03788719166667,64.0,68.0
339,83.40909925,84.05114476875,60.0,79.0
340,83.40909925,84.06061446666666,57.0,80.0
341,84.0909175,84.40531147083334,45.0,79.0
342,83.40909925,84.60985694583333,33.0,72.0
343,84.31819025,84.74243271666667,64.0,90.0
344,84.31819025,84.7613721125,57.0,97.0
345,84.31819025,84.795463025,60.0,97.0
346,84.77273575,84.81629636041667,33.0,67.0
347,84.545463,84.83902363541667,45.0,45.0
348,85.22728125,85.70076614583333,52.0,59.0
349,85.22728125,85.84281161458334,55.0,85.0
350,85.22728125,85.84281161458334,59.0,76.0
351,85.22728125,85.84659949375,64.0,75.0
352,85.9090995,86.19697831666667,52.0,68.0
353,85.22728125,86.33902378541667,40.0,65.0
354,86.13637225,86.59281168958333,55.0,94.0
355,86.363645,86.61175108541667,52.0,72.0
356,86.13637225,86.75947837291666,64.0,90.0
357,86.13637225,86.82387231875,59.0,92.0
358,86.59091775,87.0000087,40.0,67.0
359,86.8181905,87.55114511875,52.0,77.0
360,87.04546325,87.74432695625,57.0,83.0
361,87.04546325,87.74811483541667,64.0,77.0
362,87.04546325,87.75947847291667,61.0,77.0
363,87.7272815,87.97349364583333,52.0,75.0
364,87.95455425,88.12122093333333,64.0,83.0
365,87.95455425,88.12690275208334,61.0,76.0
366,87.95455425,88.20076639583333,57.0,87.0
367,87.04546325,88.21023609375,45.0,76.0
368,88.40909975,88.47349369583333,45.0,57.0
369,88.181827,88.49053915208333,52.0,71.0
370,88.40909975,88.50947854791667,61.0,64.0
371,88.40909975,88.52084218541667,57.0,68.0
372,88.40909975,88.5454634,66.0,79.0
373,88.6363725,88.6931906875,61.0,50.0
374,88.6363725,88.6931906875,67.0,68.0
375,88.6363725,88.71402402291666,57.0,42.0
376,88.86364525,89.47538773541666,54.0,67.0
377,88.86364525,89.57008471458333,61.0,53.0
378,88.86364525,89.5795544125,66.0,76.0
379,88.86364525,89.59091805,57.0,65.0
380,89.5454635,89.86553928958334,54.0,43.0
381,88.86364525,90.13826658958334,42.0,62.0
382,89.77273625,90.24432720625,57.0,90.0
383,89.77273625,90.250009025,61.0,85.0
384,89.77273625,90.27652417916667,66.0,91.0
385,90.22728175,90.30303933333333,54.0,50.0
386,90.4545545,90.55114541875,42.0,47.0
387,90.68182725,91.16478184375,54.0,39.0
388,90.68182725,91.35606974166667,62.0,62.0
389,90.68182725,91.3636455,66.0,70.0
390,90.68182725,91.37311519791666,59.0,67.0
391,91.3636455,91.6250091625,54.0,63.0
392,90.68182725,91.81440312083333,47.0,44.0
393,91.818191,92.09660011875,54.0,59.0
394,91.59091825,92.12879709166667,62.0,81.0
395,91.59091825,92.13826678958333,66.0,89.0
396,91.59091825,92.1477364875,59.0,87.0
397,92.04546375,92.2386455875,47.0,50.0
398,92.50000925,93.01705475625,54.0,50.0
399,92.50000925,93.1022820375,66.0,63.0
400,92.50000925,93.1250093125,57.0,67.0
401,92.50000925,93.1250093125,61.0,62.0
402,93.1818275,93.48106995416667,54.0,79.0
403,92.50000925,93.61932754375,42.0,52.0
404,93.636373,93.7841002875,54.0,68.0
405,93.86364575,93.92425181666667,42.0,59.0
406,93.40910025,94.04167607083333,57.0,79.0
407,93.40910025,94.07008516458333,61.0,76.0
408,93.40910025,94.07576698333334,66.0,76.0
409,94.0909185,94.32766094791667,42.0,40.0
410,94.31819125,94.8068276625,54.0,50.0
411,94.31819125,94.9886458625,62.0,67.0
412,94.31819125,94.99053980208333,59.0,76.0
413,94.31819125,94.99243374166667,66.0,75.0
414,95.0000095,95.26137316249999,54.0,76.0
415,94.31819125,95.40720651041667,47.0,46.0
416,95.22728225,95.64394895833334,62.0,77.0
417,95.22728225,95.659100475,66.0,84.0
418,95.22728225,95.69129744791667,59.0,79.0
419,95.68182775,95.75000957499999,42.0,77.0
420,95.454555,95.75190351458333,54.0,79.0
421,96.13637325,96.70076724583333,52.0,68.0
422,96.13637325,96.76894907083333,59.0,72.0
423,96.13637325,96.77273695,55.0,77.0
424,96.13637325,96.77841876875,64.0,72.0
425,96.8181915,97.17235820208333,52.0,64.0
426,97.04546425,97.51326732708333,55.0,91.0
427,96.13637325,97.56629763541666,40.0,64.0
428,97.04546425,97.57766127291667,64.0,83.0
429,97.04546425,97.59091885,59.0,87.0
430,97.50000975,97.81061584166666,52.0,72.0
431,97.7272825,97.84281281458334,40.0,77.0
432,97.95455525,98.44697954166666,52.0,87.0
433,97.95455525,98.51894924583333,59.0,81.0
434,97.95455525,98.55493409791667,64.0,77.0
435,97.95455525,98.5795553125,56.0,91.0
436,98.6363735,98.97160080625,52.0,79.0
437,97.95455525,99.14963112708334,40.0,79.0
438,98.86364625,99.21213113333333,59.0,85.0
439,98.86364625,99.24243416666667,56.0,95.0
440,98.86364625,99.31819175,64.0,88.0
441,99.090919,99.54735843958333,52.0,58.0
442,99.31819175,99.64963117708334,40.0,88.0
443,99.77273725,100.3068282125,52.0,72.0
444,99.77273725,100.36932821875,57.0,88.0
445,99.77273725,100.40720701041667,64.0,80.0
446,99.77273725,100.41857064791667,69.0,84.0
447,99.77273725,100.42235852708333,61.0,83.0
448,100.68182825,101.03031313333334,52.0,68.0
449,100.68182825,101.11743435416666,61.0,81.0
450,100.68182825,101.1250101125,69.0,83.0
451,100.68182825,101.13637375,57.0,88.0
452,100.68182825,101.15531314583333,64.0,80.0
453,101.13637375,101.49811621041667,52.0,53.0
454,101.3636465,101.72538896041667,57.0,94.0
455,101.3636465,101.84470715416667,61.0,97.0
456,101.818192,102.05872232708333,52.0,72.0
457,102.04546475,102.24811628541667,57.0,79.0
458,102.2727375,102.54925267916667,52.0,72.0
459,102.50001025,102.78788906666666,59.0,106.0
460,99.77273725,102.78978300625,45.0,72.0
461,102.95455575,103.05872242708334,61.0,92.0
462,102.727283,103.17235880208334,52.0,81.0
463,103.1818285,103.23107092916666,45.0,79.0
464,103.4545558,103.92425281666667,50.0,55.0
465,103.4545558,103.99811646041667,62.0,67.0
466,103.4545558,104.00379827916666,57.0,74.0
467,103.4545558,104.0113740375,69.0,71.0
468,103.4545558,104.01516191666667,66.0,70.0
469,104.13637405,104.46781347708334,50.0,50.0
470,104.3636468,104.78220744791666,62.0,84.0
471,104.3636468,104.79167714583333,66.0,78.0
472,104.3636468,104.795465025,57.0,88.0
473,104.3636468,104.795465025,69.0,82.0
474,104.81819229999999,105.3977378125,50.0,47.0
475,105.2727378,105.74054087708333,66.0,71.0
476,105.2727378,105.75190451458333,57.0,72.0
477,105.2727378,105.75379845416667,62.0,57.0
478,105.2727378,105.76705603125,69.0,70.0
479,105.7272833,106.20645001458334,50.0,51.0
480,103.4545558,106.386374275,38.0,62.0
481,106.1818288,106.64963187708334,62.0,75.0
482,106.1818288,106.67804097083334,66.0,73.0
483,106.6363743,106.68182885,38.0,75.0
484,106.1818288,106.6931924875,57.0,85.0
485,106.1818288,106.69508642708334,69.0,79.0
486,106.40910155,106.89584402291666,50.0,63.0
487,106.86364705,106.91288947916667,38.0,62.0
488,107.0909198,107.6477380375,49.0,71.0
489,107.0909198,107.64963197708333,69.0,74.0
490,107.0909198,107.66099561458333,57.0,72.0
491,107.0909198,107.66667743333333,66.0,71.0
492,107.0909198,107.69129864791667,61.0,74.0
493,107.77273805,108.17425324166666,49.0,37.0
494,108.0000108,108.4431926625,57.0,80.0
495,108.0000108,108.46781387708333,69.0,75.0
496,108.0000108,108.49054115208334,66.0,75.0
497,108.0000108,108.49243509166666,61.0,77.0
498,108.4545563,108.93751089375,49.0,45.0
499,108.9091018,109.54167762083333,57.0,85.0
500,108.9091018,109.54925337916667,66.0,78.0
501,108.9091018,109.55304125833334,61.0,75.0
502,108.9091018,109.56061701666667,69.0,83.0
503,109.59092005,109.83902613541666,49.0,46.0
504,109.8181928,110.05872312708334,69.0,89.0
505,109.8181928,110.0909201,57.0,91.0
506,107.0909198,110.10417767708333,37.0,67.0
507,109.8181928,110.10607161666667,66.0,74.0
508,109.8181928,110.22160193125,61.0,85.0
509,110.2727383,110.36743527916667,55.0,64.0
510,110.2727383,110.38826861458334,67.0,68.0
511,110.04546555,110.47349589583334,49.0,62.0
512,110.50001105,110.56440499583333,37.0,53.0
513,110.7272838,111.28031415833334,47.0,54.0
514,110.7272838,111.33145052708333,66.0,75.0
515,110.7272838,111.33713234583334,62.0,67.0
516,110.7272838,111.37690507708334,59.0,79.0
517,111.40910205,111.73485965833333,47.0,62.0
518,111.6363748,112.19508697708334,59.0,95.0
519,111.6363748,112.19698091666666,66.0,92.0
520,111.6363748,112.21023849375,62.0,90.0
521,110.7272838,112.22728395,35.0,61.0
522,112.0909203,112.37690517708333,47.0,62.0
523,112.5454658,113.06440524583333,45.0,67.0
524,112.5454658,113.17425374166666,64.0,68.0
525,112.5454658,113.18751131875,60.0,79.0
526,112.5454658,113.19698101666667,57.0,80.0
527,113.22728405,113.54167802083333,45.0,79.0
528,112.5454658,113.74622349583333,33.0,72.0
529,113.4545568,113.87879926666666,64.0,90.0
530,113.4545568,113.8977386625,57.0,97.0
531,113.4545568,113.931829575,60.0,97.0
532,113.9091023,113.95266291041666,33.0,67.0
533,113.68182955,113.97539018541667,45.0,45.0
534,114.3636478,114.83713269583333,52.0,59.0
535,114.3636478,114.97917816458333,55.0,85.0
536,114.3636478,114.97917816458333,59.0,76.0
537,114.3636478,114.98296604375,64.0,75.0
538,115.04546605,115.33334486666666,52.0,68.0
539,114.3636478,115.47539033541666,40.0,65.0
540,115.2727388,115.72917823958333,55.0,94.0
541,115.50001155,115.74811763541666,52.0,72.0
542,115.2727388,115.89584492291667,64.0,90.0
543,115.2727388,115.96023886875,59.0,92.0
544,115.7272843,116.13637525,40.0,67.0
545,115.95455705,116.68751166875,52.0,77.0
546,116.1818298,116.88069350625,57.0,83.0
547,116.1818298,116.88448138541666,64.0,77.0
548,116.1818298,116.89584502291666,61.0,77.0
549,116.86364805,117.10986019583333,52.0,75.0
550,117.0909208,117.25758748333334,64.0,83.0
551,117.0909208,117.26326930208333,61.0,76.0
552,117.0909208,117.33713294583333,57.0,87.0
553,116.1818298,117.34660264375,45.0,76.0
554,117.5454663,117.60986024583333,45.0,57.0
555,117.31819355,117.62690570208333,52.0,71.0
556,117.5454663,117.64584509791666,61.0,64.0
557,117.5454663,117.65720873541666,57.0,68.0
558,117.5454663,117.68182995,66.0,79.0
559,117.77273905,117.8295572375,61.0,50.0
560,117.77273905,117.8295572375,67.0,68.0
561,117.77273905,117.85039057291667,57.0,42.0
562,118.0000118,118.61175428541667,54.0,67.0
563,118.0000118,118.70645126458334,61.0,53.0
564,118.0000118,118.7159209625,66.0,76.0
565,118.0000118,118.7272846,57.0,65.0
566,118.68183005,119.00190583958333,54.0,43.0
567,118.0000118,119.27463313958333,42.0,62.0
568,118.9091028,119.38069375625,57.0,90.0
569,118.9091028,119.386375575,61.0,85.0
570,118.9091028,119.41289072916666,66.0,91.0
571,119.3636483,119.43940588333334,54.0,50.0
572,119.59092105,119.68751196875,42.0,47.0
573,119.8181938,120.30114839375,54.0,39.0
574,119.8181938,120.49243629166666,62.0,62.0
575,119.8181938,120.50001205,66.0,70.0
576,119.8181938,120.50948174791667,59.0,67.0
577,120.50001205,120.7613757125,54.0,63.0
578,119.8181938,120.95076967083334,47.0,44.0
579,120.95455755,121.23296666875,54.0,59.0
580,120.72728479999999,121.26516364166666,62.0,81.0
581,120.72728479999999,121.27463333958333,66.0,89.0
582,120.72728479999999,121.2841030375,59.0,87.0
583,121.1818303,121.3750121375,47.0,50.0
584,121.6363758,122.15342130625,54.0,50.0
585,121.6363758,122.2386485875,66.0,63.0
586,121.6363758,122.2613758625,57.0,67.0
587,121.6363758,122.2613758625,61.0,62.0
588,122.31819405,122.61743650416666,54.0,79.0
589,121.6363758,122.75569409375,42.0,52.0
590,122.77273955,122.9204668375,54.0,68.0
591,123.0000123,123.06061836666666,42.0,59.0
592,122.5454668,123.17804262083334,57.0,79.0
593,122.5454668,123.20645171458334,61.0,76.0
594,122.5454668,123.21213353333333,66.0,76.0
595,123.22728505,123.46402749791666,42.0,40.0
596,123.4545578,123.9431942125,54.0,50.0
597,123.4545578,124.1250124125,62.0,67.0
598,123.4545578,124.12690635208334,59.0,76.0
599,123.4545578,124.12880029166666,66.0,75.0
600,124.13637605,124.3977397125,54.0,76.0
601,123.4545578,124.54357306041666,47.0,46.0
602,124.36364879999999,124.78031550833333,62.0,77.0
603,124.36364879999999,124.795467025,66.0,84.0
604,124.36364879999999,124.82766399791667,59.0,79.0
605,124.8181943,124.886376125,42.0,77.0
606,124.59092155,124.88827006458334,54.0,79.0
607,125.2727398,125.83713379583334,52.0,68.0
608,125.2727398,125.90531562083333,59.0,72.0
609,125.2727398,125.9091035,55.0,77.0
610,125.2727398,125.91478531875,64.0,72.0
611,125.95455805,126.30872475208334,52.0,64.0
612,126.1818308,126.64963387708333,55.0,91.0
613,125.2727398,126.70266418541667,40.0,64.0
614,126.1818308,126.71402782291666,64.0,83.0
615,126.1818308,126.7272854,59.0,87.0
616,126.6363763,126.94698239166667,52.0,72.0
617,126.86364905,126.97917936458333,40.0,77.0
618,127.0909218,127.58334609166667,52.0,87.0
619,127.0909218,127.65531579583333,59.0,81.0
620,127.0909218,127.69130064791666,64.0,77.0
621,127.0909218,127.7159218625,56.0,91.0
622,127.77274005,128.10796735625,52.0,79.0
623,127.0909218,128.28599767708334,40.0,79.0
624,128.0000128,128.34849768333333,59.0,85.0
625,128.0000128,128.37880071666666,56.0,95.0
626,128.0000128,128.4545583,64.0,88.0
627,128.22728555,128.68372498958334,52.0,58.0
628,128.4545583,128.78599772708333,40.0,88.0
629,128.9091038,129.4431947625,52.0,72.0
630,128.9091038,129.50569476875,57.0,88.0
631,128.9091038,129.54357356041666,64.0,80.0
632,128.9091038,129.55493719791667,69.0,84.0
633,128.9091038,129.55872507708332,61.0,83.0
634,129.8181948,130.16667968333334,52.0,68.0
635,129.8181948,130.25380090416667,61.0,81.0
636,129.8181948,130.2613766625,69.0,83.0
637,129.8181948,130.2727403,57.0,88.0
638,129.8181948,130.29167969583332,64.0,80.0
639,130.2727403,130.63448276041666,52.0,53.0
640,130.50001305,130.86175551041666,57.0,94.0
641,130.50001305,130.98107370416668,61.0,97.0
642,130.95455855,131.19508887708332,52.0,72.0
643,131.1818313,131.38448283541666,57.0,79.0
644,131.40910405,131.68561922916666,52.0,72.0
645,131.6363768,131.92425561666667,59.0,106.0
646,128.9091038,131.92614955625,45.0,72.0
647,132.0909223,132.19508897708334,61.0,92.0
648,131.86364955,132.30872535208334,52.0,81.0
649,132.31819504999999,132.36743747916665,45.0,79.0
650,132.45266476041667,133.24433150625,83.0,76.0
651,132.44698294166668,133.250013325,74.0,80.0
652,132.44887688125,133.250013325,79.0,72.0
653,133.34660424375,133.840922475,55.0,67.0
654,132.42614960625,133.93751339375,43.0,70.0
655,132.89963450208333,133.99811946041666,50.0,67.0
656,133.39395273333332,134.01895279583334,83.0,77.0
657,133.40531637083333,134.02652855416667,79.0,75.0
658,133.39963455208334,134.07008916458332,74.0,83.0
659,132.4431950625,134.1818316,62.0,72.0
660,134.26895282083333,134.8181953,61.0,67.0
661,134.22918008958334,135.31630141041666,78.0,66.0
662,134.24054372708332,135.32577110833333,74.0,70.0
663,134.24243766666666,135.33713474583334,81.0,69.0
664,135.16099836458332,135.99622572083334,61.0,71.0
665,135.14016502916667,136.00758935833332,49.0,57.0
666,134.67993771041665,136.01327117708334,57.0,71.0
667,134.23675584791667,136.01895299583333,42.0,71.0
668,136.0909227,136.56440759583333,55.0,66.0
669,136.09660451875,136.60796820625,43.0,82.0
670,136.06630148541666,136.84471065416668,71.0,71.0
671,136.06440754583332,136.84471065416668,74.0,73.0
672,136.06440754583332,136.85039247291667,67.0,62.0
673,136.08524088125,136.96971066666666,59.0,69.0
674,136.95834702916667,137.32577130833334,57.0,71.0
675,136.94698339166666,137.41478646875,45.0,81.0
676,136.96402884791667,137.43940768333334,61.0,76.0
677,136.96971066666666,137.71402892291667,67.0,72.0
678,136.97160460625,137.78789256666667,74.0,82.0
679,136.97349854583334,137.82387741875,71.0,75.0
680,137.45834707916666,138.05493804791666,57.0,76.0
681,137.89584712291668,138.18372593958333,62.0,77.0
682,138.37122595833333,139.03599875208334,45.0,57.0
683,137.94130167291667,139.58902911041667,69.0,71.0
684,137.97160470625,139.62690790208333,74.0,83.0
685,138.77652902916665,139.63069578125,50.0,83.0
686,138.77463508958334,139.63258972083332,54.0,77.0
687,139.21781695208333,139.65152911666667,45.0,69.0
688,137.8750137875,139.66289275416668,38.0,83.0
689,139.74243821666667,139.83334731666667,36.0,79.0
690,139.74243821666667,139.86933216875,55.0,83.0
691,139.74243821666667,140.07198370416666,60.0,81.0
692,139.96971096666667,140.42615040625,55.0,74.0
693,140.19698371666667,140.47539283541667,60.0,76.0
694,140.65152921666666,140.96402924791667,48.0,84.0
695,140.42425646666666,140.96402924791667,64.0,84.0
696,140.87880196666666,141.22349897083333,55.0,83.0
697,141.10607471666665,141.36933231875,60.0,81.0
698,141.33334746666668,141.48107475416666,64.0,83.0
699,141.56062021666668,141.69508992708333,59.0,81.0
700,141.56062021666668,141.82198387916668,62.0,87.0
701,141.78789296666667,142.28221119791667,59.0,79.0
702,142.01516571666667,142.31062029166668,62.0,79.0
703,142.24243846666667,142.48486273333333,66.0,84.0
704,141.56062021666668,142.53599910208334,47.0,85.0
705,142.46971121666667,142.75948397291666,54.0,70.0
706,142.46971121666667,142.78789306666667,71.0,84.0
707,142.69698396666666,142.98107490416666,66.0,92.0
708,142.92425671666666,143.16099916458333,62.0,85.0
709,143.15152946666666,143.2727416,59.0,83.0
710,143.37880221666666,143.62690830208334,57.0,79.0
711,143.37880221666666,143.87312044791668,61.0,81.0
712,143.83334771666668,144.0909235,64.0,84.0
713,144.06062046666668,144.34471140416667,61.0,86.0
714,143.60607496666665,144.45834777916667,52.0,81.0
715,143.37880221666666,144.57387809375,45.0,84.0
716,144.28789321666667,144.63069628125,69.0,84.0
717,144.51516596666667,144.87690842708332,64.0,84.0
718,144.96971146666667,145.08524178125,57.0,69.0
719,144.74243871666667,145.0909236,61.0,74.0
720,145.19698421666666,146.477287375,45.0,84.0
721,145.19698421666666,146.840923775,57.0,68.0
722,145.19698421666666,146.85796923125,61.0,72.0
723,147.09660561875,147.58713597083334,50.0,49.0
724,147.09660561875,147.61933294375,66.0,57.0
725,147.09660561875,147.6250147625,62.0,53.0
726,147.09660561875,147.6363784,57.0,46.0
727,148.00569661875,148.39016635416667,62.0,44.0
728,148.00569661875,148.40342393125,57.0,45.0
729,148.00569661875,148.40721181041667,66.0,55.0
730,147.09660561875,149.04357551041667,38.0,51.0
731,148.91478761875,149.45266646041668,62.0,48.0
732,148.91478761875,149.45266646041668,66.0,55.0
733,148.91478761875,149.4545604,57.0,43.0
734,149.36933311875,150.01706045625,38.0,57.0
735,150.05115136875,150.28978775625,50.0,44.0
736,150.27842411875,150.34471200416667,38.0,48.0
737,149.82387861875,150.34471200416667,66.0,63.0
738,149.82387861875,150.34849988333335,62.0,62.0
739,149.82387861875,150.36743927916666,57.0,63.0
740,150.73296961875,151.23296966875,66.0,63.0
741,150.73296961875,151.24243936666667,61.0,64.0
742,150.73296961875,151.25190906458334,57.0,63.0
743,151.64206061875,152.05304550833333,66.0,58.0
744,151.64206061875,152.07009096458333,57.0,47.0
745,151.64206061875,152.07387884375,61.0,58.0
746,150.73296961875,152.67425769166667,50.0,44.0
747,152.55115161875,153.05493954791666,66.0,51.0
748,152.55115161875,153.06440924583333,57.0,47.0
749,152.55115161875,153.07009106458332,61.0,43.0
750,150.73296961875,153.49433353125,38.0,52.0
751,153.46024261875,153.94509115208334,61.0,65.0
752,153.46024261875,153.94509115208334,66.0,64.0
753,153.91478811875,153.97350024583332,38.0,67.0
754,153.46024261875,153.97350024583332,57.0,64.0
755,153.00569711875,153.97539418541666,50.0,51.0
756,154.36933361875,154.88827306458333,57.0,62.0
757,154.36933361875,154.89206094375,60.0,62.0
758,154.36933361875,154.89584882291666,66.0,71.0
759,155.27842461875,155.66668223333332,60.0,51.0
760,155.27842461875,155.68183375,66.0,53.0
761,155.27842461875,155.68372768958332,57.0,51.0
762,154.36933361875,156.3750156375,50.0,57.0
763,156.18751561875,156.65531869583333,66.0,51.0
764,156.18751561875,156.66478839375,57.0,47.0
765,156.18751561875,156.66668233333334,60.0,48.0
766,156.64206111875,157.13259147083332,50.0,57.0
767,154.36933361875,157.14016722916668,38.0,56.0
768,157.09660661875,157.64395515833334,57.0,69.0
769,157.09660661875,157.659106675,66.0,68.0
770,157.09660661875,157.67994001041666,60.0,65.0
771,157.32387936875,157.77463698958334,50.0,62.0
772,157.55115211875,158.0909249,38.0,67.0
773,158.00569761875,158.54357646041666,67.0,62.0
774,158.00569761875,158.568197675,62.0,57.0
775,158.00569761875,158.57198555416667,59.0,56.0
776,158.91478861875,159.28031895833334,67.0,52.0
777,158.91478861875,159.295470475,62.0,53.0
778,158.91478861875,159.3068341125,59.0,45.0
779,158.91478861875,159.9431978125,55.0,36.0
780,159.82387961875,160.31819785,59.0,48.0
781,159.82387961875,160.33334936666665,67.0,45.0
782,159.82387961875,160.41478876875,62.0,51.0
783,160.50569786875,160.77274335,55.0,62.0
784,160.73297061875,160.94887973125,67.0,82.0
785,160.73297061875,160.95456155,59.0,77.0
786,160.73297061875,160.98486458333332,62.0,72.0
787,158.00569761875,161.04357671041666,43.0,54.0
788,161.18751611875,161.28221309791667,62.0,53.0
789,161.18751611875,161.29357673541668,69.0,61.0
790,161.18751611875,161.30115249375,59.0,47.0
791,160.96024336874999,161.30494037291666,55.0,63.0
792,161.41478886875,161.48675857291667,43.0,36.0
793,161.64206161875,162.17804652083333,54.0,57.0
794,161.64206161875,162.24812228541666,61.0,53.0
795,161.64206161875,162.26516774166666,66.0,71.0
796,161.64206161875,162.26895562083334,57.0,56.0
797,162.32387986875,162.48297079375,54.0,24.0
798,161.64206161875,162.81630416041668,42.0,53.0
799,162.55115261875,162.95456175,57.0,76.0
800,162.55115261875,162.99622842083332,61.0,75.0
801,162.55115261875,163.00191023958334,66.0,73.0
802,163.00569811875,163.07577388333334,54.0,52.0
803,163.46024361875,163.84660729375,54.0,32.0
804,163.46024361875,164.06441034583332,66.0,58.0
805,163.46024361875,164.08145580208333,62.0,52.0
806,163.46024361875,164.08713762083335,59.0,53.0
807,164.14206186875,164.36744067916666,54.0,50.0
808,163.46024361875,164.54736493958333,47.0,43.0
809,164.59660736875,164.83713769583332,54.0,57.0
810,164.36933461875,164.86744072916667,59.0,77.0
811,164.36933461875,164.86744072916667,66.0,83.0
812,164.36933461875,164.88827406458333,62.0,76.0
813,164.82388011875,164.89963770208334,47.0,59.0
814,165.05115286875,165.11554681458333,45.0,41.0
815,165.27842561875,165.74433475625,54.0,56.0
816,165.27842561875,165.84471355416667,66.0,67.0
817,165.27842561875,165.86554688958333,57.0,64.0
818,165.27842561875,165.8750165875,61.0,63.0
819,165.96024386875,166.20266813541667,54.0,57.0
820,165.27842561875,166.38448633541665,42.0,58.0
821,166.41478936875,166.50001665,54.0,55.0
822,166.18751661875,166.74812273541667,57.0,75.0
823,166.18751661875,166.75948637291665,66.0,76.0
824,166.18751661875,166.76895607083333,61.0,74.0
825,166.86933486875,166.9659257875,54.0,64.0
826,166.64206211875,167.06819852499999,42.0,49.0
827,167.09660761875,167.54925917916665,54.0,21.0
828,167.09660761875,167.70077434583334,62.0,63.0
829,167.09660761875,167.70835010416667,66.0,63.0
830,167.09660761875,167.71024404375,59.0,62.0
831,167.77842586875,168.0341077125,54.0,47.0
832,167.09660761875,168.22160773125,47.0,54.0
833,168.23297136875,168.34850168333332,54.0,47.0
834,168.00569861875,168.41289562916666,62.0,68.0
835,168.00569861875,168.42615320625,66.0,79.0
836,168.00569861875,168.45835017916667,59.0,75.0
837,168.46024411875,168.51895624583332,42.0,50.0
838,168.91478961875,169.49054725208333,64.0,63.0
839,168.91478961875,169.49812301041666,55.0,65.0
840,168.91478961875,169.51327452708333,59.0,62.0
841,168.91478961875,169.88069880625,52.0,63.0
842,168.91478961875,170.159107925,40.0,63.0
843,169.82388061875,170.19130489791667,55.0,71.0
844,169.82388061875,170.24433520624999,59.0,72.0
845,169.82388061875,170.30115339375,64.0,67.0
846,170.27842611875,170.59282008958334,52.0,69.0
847,170.50569886875,170.80304738333334,40.0,76.0
848,170.73297161874999,170.80304738333334,40.0,76.0
849,170.73297161874999,171.26516864166666,52.0,43.0
850,170.73297161874999,171.33713834583332,55.0,76.0
851,170.73297161874999,171.35039592291668,64.0,83.0
852,170.73297161874999,171.35418380208333,59.0,79.0
853,171.41478986875,171.7159262625,52.0,61.0
854,171.64206261875,172.15721418541668,59.0,72.0
855,171.64206261875,172.17615358125,55.0,76.0
856,171.64206261875,172.21024449375,64.0,75.0
857,172.09660811875,172.27842631875,40.0,65.0
858,171.86933536875,172.3068354125,52.0,71.0
859,172.55115361875,173.13638095,52.0,64.0
860,172.55115361875,173.18372943958335,61.0,83.0
861,172.55115361875,173.18941125833334,57.0,83.0
862,172.55115361875,173.19698701666667,64.0,83.0
863,173.23297186875,173.7841082875,52.0,63.0
864,173.46024461875,173.91668405833335,64.0,56.0
865,173.46024461875,173.92804769583333,57.0,77.0
866,173.91479011875,174.28979015625,52.0,48.0
867,174.36933561875,174.86175991041668,67.0,92.0
868,174.36933561875,174.86554778958333,57.0,88.0
869,174.82388111875,175.1818357,52.0,46.0
870,175.27842661875,175.52842664375,57.0,81.0
871,175.27842661875,175.5341084625,66.0,83.0
872,175.50569936875,175.69698726666667,52.0,57.0
873,172.55115361875,175.7613812125,45.0,68.0
874,175.73297211875,175.80304788333333,57.0,75.0
875,175.73297211875,175.83903273541668,67.0,76.0
876,176.18751761875,176.65721463541666,50.0,55.0
877,176.18751761875,176.73107827916667,62.0,67.0
878,176.18751761875,176.73676009791666,57.0,74.0
879,176.18751761875,176.74433585625,69.0,71.0
880,176.18751761875,176.74812373541667,66.0,70.0
881,176.86933586875,177.20077529583332,50.0,50.0
882,177.09660861875,177.51516926666667,62.0,84.0
883,177.09660861875,177.52463896458335,66.0,78.0
884,177.09660861875,177.52842684375,57.0,88.0
885,177.09660861875,177.52842684375,69.0,82.0
886,177.55115411875,178.13069963125,50.0,47.0
887,178.00569961875,178.47350269583333,66.0,71.0
888,178.00569961875,178.48486633333334,57.0,72.0
889,178.00569961875,178.48676027291665,62.0,57.0
890,178.00569961875,178.50001785,69.0,70.0
891,178.46024511875,178.93941183333334,50.0,51.0
892,176.18751761875,179.11933609375,38.0,62.0
893,178.91479061875,179.38259369583332,62.0,75.0
894,178.91479061875,179.41100278958334,66.0,73.0
895,179.36933611875,179.41479066875,38.0,75.0
896,178.91479061875,179.42615430625,57.0,85.0
897,178.91479061875,179.42804824583334,69.0,79.0
898,179.14206336875,179.62880584166666,50.0,63.0
899,179.59660886875,179.64585129791666,38.0,62.0
900,179.82388161875,180.38069985625,49.0,71.0
901,179.82388161875,180.38259379583334,69.0,74.0
902,179.82388161875,180.39395743333333,57.0,72.0
903,179.82388161875,180.39963925208335,66.0,71.0
904,179.82388161875,180.42426046666665,61.0,74.0
905,180.50569986874999,180.90721506041666,49.0,37.0
906,180.73297261875,181.17615448125,57.0,80.0
907,180.73297261875,181.20077569583333,69.0,75.0
908,180.73297261875,181.22350297083332,66.0,75.0
909,180.73297261875,181.22539691041666,61.0,77.0
910,181.18751811875,181.6704727125,49.0,45.0
911,181.64206361875,182.27463943958332,57.0,85.0
912,181.64206361875,182.28221519791666,66.0,78.0
913,181.64206361875,182.28600307708334,61.0,75.0
914,181.64206361875,182.29357883541667,69.0,83.0
915,182.32388186875,182.57198795416667,49.0,46.0
916,182.55115461875,182.79168494583334,69.0,89.0
917,182.55115461875,182.82388191875,57.0,91.0
918,179.82388161875,182.83713949583333,37.0,67.0
919,182.55115461875,182.83903343541667,66.0,74.0
920,182.55115461875,182.95456375,61.0,85.0
921,183.00570011875,183.10039709791667,55.0,64.0
922,183.00570011875,183.12123043333332,67.0,68.0
923,182.77842736875,183.20645771458334,49.0,62.0
924,183.23297286875,183.29736681458334,37.0,53.0
925,183.46024561875,184.01327597708334,47.0,54.0
926,183.46024561875,184.06441234583335,66.0,75.0
927,183.46024561875,184.07009416458334,62.0,67.0
928,183.46024561875,184.10986689583333,59.0,79.0
929,184.14206386875,184.46782147708333,47.0,62.0
930,184.36933661875,184.92804879583332,59.0,95.0
931,184.36933661875,184.92994273541666,66.0,92.0
932,184.36933661875,184.9432003125,62.0,90.0
933,183.46024561875,184.96024576875,35.0,61.0
934,184.82388211875,185.10986699583333,47.0,62.0
935,185.27842761875,185.79736706458334,45.0,67.0
936,185.27842761875,185.90721556041666,64.0,68.0
937,185.27842761875,185.9204731375,60.0,79.0
938,185.27842761875,185.92994283541665,57.0,80.0
939,185.96024586875,186.27463983958333,45.0,79.0
940,185.27842761875,186.47918531458333,33.0,72.0
941,186.18751861875,186.61176108541667,64.0,90.0
942,186.18751861875,186.63070048125,57.0,97.0
943,186.18751861875,186.66479139375,60.0,97.0
944,186.64206411875,186.68562472916668,33.0,67.0
945,186.41479136875,186.70835200416667,45.0,45.0
946,187.09660961875,187.57009451458333,52.0,59.0
947,187.09660961875,187.71213998333334,55.0,85.0
948,187.09660961875,187.71213998333334,59.0,76.0
949,187.09660961875,187.71782180208334,64.0,75.0
950,187.78032180833333,188.068200625,52.0,68.0
951,187.09660961875,188.20835215416668,40.0,65.0
952,188.00759455833332,188.46214005833332,55.0,94.0
953,188.23297336875,188.48107945416666,52.0,72.0
954,188.00759455833332,188.62880674166666,64.0,90.0
955,188.00759455833332,188.6932006875,59.0,92.0
956,188.46024611875,188.86933706874999,40.0,67.0
957,188.68751886875,189.4204734875,52.0,77.0
958,188.91479161875,189.613655325,57.0,83.0
959,188.91479161875,189.61744320416668,64.0,77.0
960,188.91479161875,189.62880684166666,61.0,77.0
961,189.59660986875,189.84282201458333,52.0,75.0
962,189.82388261875,189.99054930208334,64.0,83.0
963,189.82388261875,189.99623112083333,61.0,76.0
964,189.82388261875,190.07009476458333,57.0,87.0
965,188.91479161875,190.0795644625,45.0,76.0
966,190.27842811874999,190.34282206458334,45.0,57.0
967,190.05115536875,190.35986752083332,52.0,71.0
968,190.27842811874999,190.37880691666666,61.0,64.0
969,190.27842811874999,190.39017055416667,57.0,68.0
970,190.27842811874999,190.41479176875,66.0,79.0
971,190.50570086875,190.56251905625,61.0,50.0
972,190.50570086875,190.56251905625,67.0,68.0
973,190.50570086875,190.58335239166666,57.0,42.0
974,190.73297361875,191.34471610416668,54.0,67.0
975,190.73297361875,191.43941308333333,61.0,53.0
976,190.73297361875,191.44888278125,66.0,76.0
977,190.73297361875,191.46024641875,57.0,65.0
978,191.41479186875,191.73486765833334,54.0,43.0
979,190.73297361875,192.00759495833333,42.0,62.0
980,191.64206461875,192.113655575,57.0,90.0
981,191.64206461875,192.11933739375,61.0,85.0
982,191.64206461875,192.14585254791666,66.0,91.0
983,192.09661011875,192.17236770208333,54.0,50.0
984,192.32388286875,192.4204737875,42.0,47.0
985,192.55115561875,193.0341102125,54.0,39.0
986,192.55115561875,193.22539811041668,62.0,62.0
987,192.55115561875,193.23297386875,66.0,70.0
988,192.55115561875,193.24244356666668,59.0,67.0
989,193.23297386875,193.49433753125,54.0,63.0
990,192.55115561875,193.68373148958332,47.0,44.0
991,193.68751936875,193.9659284875,54.0,59.0
992,193.46024661875,193.99812546041667,62.0,81.0
993,193.46024661875,194.00759515833334,66.0,89.0
994,193.46024661875,194.01706485625,59.0,87.0
995,193.91479211875,194.10797395625,47.0,50.0
996,194.36933761875,194.886383125,54.0,50.0
997,194.36933761875,194.97161040625,66.0,63.0
998,194.36933761875,194.99433768125,57.0,67.0
999,194.36933761875,194.99433768125,61.0,62.0
1000,195.05115586875,195.35039832291667,54.0,79.0
1001,194.36933761875,195.4886559125,42.0,52.0
1002,195.50570136875,195.65342865625,54.0,68.0
1003,195.73297411875,195.79358018541666,42.0,59.0
1004,195.27842861875,195.91100443958334,57.0,79.0
1005,195.27842861875,195.93941353333332,61.0,76.0
1006,195.27842861875,195.94509535208334,66.0,76.0
1007,195.96024686875,196.19698931666667,42.0,40.0
1008,196.18751961875,196.67615603125,54.0,50.0
1009,196.18751961875,196.85797423125,62.0,67.0
1010,196.18751961875,196.85986817083332,59.0,76.0
1011,196.18751961875,196.86176211041666,66.0,75.0
1012,196.86933786875,197.13070153125,54.0,76.0
1013,196.18751961875,197.27653487916666,47.0,46.0
1014,197.09661061875,197.51327732708333,62.0,77.0
1015,197.09661061875,197.52842884375,66.0,84.0
1016,197.09661061875,197.56062581666666,59.0,79.0
1017,197.55115611875,197.61933794375,42.0,77.0
1018,197.32388336875,197.62123188333334,54.0,79.0
1019,198.00570161875,198.57009561458332,52.0,68.0
1020,198.00570161875,198.63827743958333,59.0,72.0
1021,198.00570161875,198.64206531874999,55.0,77.0
1022,198.00570161875,198.6477471375,64.0,72.0
1023,198.68751986875,199.04168657083332,52.0,64.0
1024,198.91479261875,199.38259569583334,55.0,91.0
1025,198.00570161875,199.43562600416666,40.0,64.0
1026,198.91479261875,199.44698964166668,64.0,83.0
1027,198.91479261875,199.46024721875,59.0,87.0
1028,199.36933811875,199.67994421041666,52.0,72.0
1029,199.59661086875,199.71214118333333,40.0,77.0
1030,199.82388361875,200.31630791041667,52.0,87.0
1031,199.82388361875,200.38827761458333,59.0,81.0
1032,199.82388361875,200.42426246666668,64.0,77.0
1033,199.82388361875,200.44888368125,56.0,91.0
1034,200.50570186875,200.84092917499999,52.0,79.0
1035,199.82388361875,201.01895949583334,40.0,79.0
1036,200.73297461875,201.08145950208333,59.0,85.0
1037,200.73297461875,201.11176253541666,56.0,95.0
1038,200.73297461875,201.18752011875,64.0,88.0
1039,200.96024736875,201.41668680833334,52.0,58.0
1040,201.18752011875,201.51895954583333,40.0,88.0
1041,201.64206561875,202.17615658125,52.0,72.0
1042,201.64206561875,202.2386565875,57.0,88.0
1043,201.64206561875,202.27653537916666,64.0,80.0
1044,201.64206561875,202.28789901666667,69.0,84.0
1045,201.64206561875,202.29168689583332,61.0,83.0
1046,202.55115661874999,202.89964150208334,52.0,68.0
1047,202.55115661874999,202.98676272291667,61.0,81.0
1048,202.55115661874999,202.99433848125,69.0,83.0
1049,202.55115661874999,203.00570211875,57.0,88.0
1050,202.55115661874999,203.02464151458332,64.0,80.0
1051,203.00570211875,203.36744457916666,52.0,53.0
1052,203.23297486875,203.59471732916666,57.0,94.0
1053,203.23297486875,203.71403552291667,61.0,97.0
1054,203.68752036875,203.92805069583332,52.0,72.0
1055,203.91479311875,204.11744465416666,57.0,79.0
1056,204.14206586875,204.41858104791666,52.0,72.0
1057,204.36933861875,204.65721743541667,59.0,106.0
1058,201.64206561875,204.659111375,45.0,72.0
1059,204.82388411875,204.92805079583334,61.0,92.0
1060,204.59661136875,205.04168717083334,52.0,81.0
1061,205.05115686875,205.10039929791665,45.0,79.0
1062,205.2727478,205.74055087708334,50.0,55.0
1063,205.2727478,205.81441452083334,62.0,67.0
1064,205.2727478,205.82199027916667,57.0,74.0
1065,205.2727478,205.82767209791666,69.0,71.0
1066,205.2727478,205.83145997708334,66.0,70.0
1067,205.95456605,206.28600547708334,50.0,50.0
1068,206.1818388,206.60039944791666,62.0,84.0
1069,206.1818388,206.60986914583333,66.0,78.0
1070,206.1818388,206.61176308541667,57.0,88.0
1071,206.1818388,206.61176308541667,69.0,82.0
1072,206.6363843,207.21403587291667,50.0,47.0
1073,207.0909298,207.5568389375,66.0,71.0
1074,207.0909298,207.568202575,57.0,72.0
1075,207.0909298,207.57199045416667,62.0,57.0
1076,207.0909298,207.58335409166668,69.0,70.0
1077,207.5454753,208.022748075,50.0,51.0
1078,205.2727478,208.20267233541668,38.0,62.0
1079,208.0000208,208.46782387708333,62.0,75.0
1080,208.0000208,208.49623297083332,66.0,73.0
1081,208.4545663,208.50002085,38.0,75.0
1082,208.0000208,208.5113844875,57.0,85.0
1083,208.0000208,208.51327842708332,69.0,79.0
1084,208.22729355,208.71403602291667,50.0,63.0
1085,208.68183905,208.73108147916668,38.0,62.0
1086,208.9091118,209.4659300375,49.0,71.0
1087,208.9091118,209.46782397708333,69.0,74.0
1088,208.9091118,209.477293675,57.0,72.0
1089,208.9091118,209.48486943333333,66.0,71.0
1090,208.9091118,209.50759670833332,61.0,74.0
1091,209.59093005,209.99055130208333,49.0,37.0
1092,209.8182028,210.25949072291667,57.0,80.0
1093,209.8182028,210.28600587708334,69.0,75.0
1094,209.8182028,210.3068392125,66.0,75.0
1095,209.8182028,210.31062709166667,61.0,77.0
1096,210.2727483,210.75380895416666,49.0,45.0
1097,210.7272938,211.35797568125,57.0,85.0
1098,210.7272938,211.36744537916667,66.0,78.0
1099,210.7272938,211.37123325833332,61.0,75.0
1100,210.7272938,211.37691507708334,69.0,83.0
1101,211.40911205,211.65721813541666,49.0,46.0
1102,211.6363848,211.87691512708332,69.0,89.0
1103,211.6363848,211.9091121,57.0,91.0
1104,208.9091118,211.92236967708334,37.0,67.0
1105,211.6363848,211.92426361666668,66.0,74.0
1106,211.6363848,212.03979393125,61.0,85.0
1107,212.0909303,212.18373333958334,55.0,64.0
1108,212.0909303,212.204566675,67.0,68.0
1109,211.86365755,212.29168789583332,49.0,62.0
1110,212.31820305,212.38070305625,37.0,53.0
1111,212.5454758,213.09661221875,47.0,54.0
1112,212.5454758,213.14964252708333,66.0,75.0
1113,212.5454758,213.15343040625,62.0,67.0
1114,212.5454758,213.19509707708335,59.0,79.0
1115,213.22729405,213.55115771875,47.0,62.0
1116,213.4545668,214.0113850375,59.0,95.0
1117,213.4545668,214.01327897708333,66.0,92.0
1118,213.4545668,214.02653655416665,62.0,90.0
1119,212.5454758,214.04358201041666,35.0,61.0
1120,213.9091123,214.19509717708334,47.0,62.0
1121,214.3636578,214.88070330625,45.0,67.0
1122,214.3636578,214.99055180208333,64.0,68.0
1123,214.3636578,215.00570331875,60.0,79.0
1124,214.3636578,215.01327907708333,57.0,80.0
1125,215.04547605,215.35797608125,45.0,79.0
1126,214.3636578,215.56441549583334,33.0,72.0
1127,215.2727488,215.69699126666666,64.0,90.0
1128,215.2727488,215.7159306625,57.0,97.0
1129,215.2727488,215.74812763541667,60.0,97.0
1130,215.7272943,215.76896097083332,33.0,67.0
1131,215.50002154999999,215.79358218541665,45.0,45.0
1132,216.1818398,216.65343075625,52.0,59.0
1133,216.1818398,216.79737016458333,55.0,85.0
1134,216.1818398,216.79737016458333,59.0,76.0
1135,216.1818398,216.80115804375,64.0,75.0
1136,216.86365805,217.15153686666667,52.0,68.0
1137,216.1818398,217.29168839583332,40.0,65.0
1138,217.0909308,217.54737023958333,55.0,94.0
1139,217.31820355,217.56630963541667,52.0,72.0
1140,217.0909308,217.71403692291668,64.0,90.0
1141,217.0909308,217.77843086875,59.0,92.0
1142,217.5454763,217.95456725,40.0,67.0
1143,217.77274905,218.50570366875,52.0,77.0
1144,218.0000218,218.69699156666667,57.0,83.0
1145,218.0000218,218.70267338541666,64.0,77.0
1146,218.0000218,218.71214308333333,61.0,77.0
1147,218.68184005,218.92805219583335,52.0,75.0
1148,218.9091128,219.07577948333332,64.0,83.0
1149,218.9091128,219.08146130208334,61.0,76.0
1150,218.9091128,219.15343100625,57.0,87.0
1151,218.0000218,219.16290070416667,45.0,76.0
1152,219.3636583,219.42805224583333,45.0,57.0
1153,219.13638555,219.44509770208333,52.0,71.0
1154,219.3636583,219.46403709791667,61.0,64.0
1155,219.3636583,219.47540073541666,57.0,68.0
1156,219.3636583,219.50002195,66.0,79.0
1157,219.59093105,219.6477492375,61.0,50.0
1158,219.59093105,219.6477492375,67.0,68.0
1159,219.59093105,219.66668863333334,57.0,42.0
1160,219.8182038,220.42805234583332,54.0,67.0
1161,219.8182038,220.522749325,61.0,53.0
1162,219.8182038,220.53221902291668,66.0,76.0
1163,219.8182038,220.5454766,57.0,65.0
1164,220.50002205,220.8182039,54.0,43.0
1165,219.8182038,221.0909312,42.0,62.0
1166,220.7272948,221.19699181666667,57.0,90.0
1167,220.7272948,221.204567575,61.0,85.0
1168,220.7272948,221.23108272916667,66.0,91.0
1169,221.1818403,221.25759788333335,54.0,50.0
1170,221.40911305,221.50381002916666,42.0,47.0
1171,221.6363858,222.11744645416667,54.0,39.0
1172,221.6363858,222.30873435208332,62.0,62.0
1173,221.6363858,222.31631011041668,66.0,70.0
1174,221.6363858,222.32767374791666,59.0,67.0
1175,222.31631011041668,222.57767377291665,54.0,63.0
1176,221.6363858,222.76896167083333,47.0,44.0
1177,222.77274955,223.05115866875,54.0,59.0
1178,222.5454768,223.08335564166666,62.0,81.0
1179,222.5454768,223.09282533958333,66.0,89.0
1180,222.5454768,223.1022950375,59.0,87.0
1181,223.0000223,223.19131019791666,47.0,50.0
1182,223.4545678,223.97161330625,54.0,50.0
1183,223.4545678,224.0568405875,66.0,63.0
1184,223.4545678,224.07767392291666,57.0,67.0
1185,223.4545678,224.07767392291666,61.0,62.0
1186,224.13638605,224.43562850416666,54.0,79.0
1187,223.4545678,224.57388609375,42.0,52.0
1188,224.59093155,224.7386588375,54.0,68.0
1189,224.8182043,224.87881036666667,42.0,59.0
1190,224.3636588,224.99623462083332,57.0,79.0
1191,224.3636588,225.022749775,61.0,76.0
1192,224.3636588,225.02843159374999,66.0,76.0
1193,225.04547705,225.28221949791666,42.0,40.0
1194,225.27274979999999,225.75949227291667,54.0,50.0
1195,225.27274979999999,225.9432044125,62.0,67.0
1196,225.27274979999999,225.94509835208333,59.0,76.0
1197,225.27274979999999,225.94699229166667,66.0,75.0
1198,225.95456805,226.21403777291667,54.0,76.0
1199,225.27274979999999,226.36176506041667,47.0,46.0
1200,226.1818408,226.59850750833334,62.0,77.0
1201,226.1818408,226.613659025,66.0,84.0
1202,226.1818408,226.64585599791667,59.0,79.0
1203,226.6363863,226.704568125,42.0,77.0
1204,226.40911355,226.70646206458332,54.0,79.0
1205,227.0909318,227.27275,40.0,84.0
1206,227.0909318,227.58714397083332,64.0,84.0
1207,227.0909318,227.85987127083334,67.0,79.0
1208,228.0000228,228.34282586458332,64.0,84.0
1209,228.4545683,228.65532589583333,67.0,75.0
1210,228.0000228,228.71025014375,59.0,85.0
1211,227.5454773,228.74812893541667,52.0,84.0
1212,228.68184105,228.9432047125,66.0,84.0
1213,228.75759863333334,229.36744717916667,57.0,67.0
1214,228.8295683375,229.38259869583334,61.0,66.0
1215,228.9091138,229.886386625,64.0,68.0
1216,228.92994713541665,230.32009878958334,69.0,82.0
1217,229.79168964583334,230.78032610833333,57.0,84.0
1218,230.25570484375,230.8068412625,64.0,80.0
1219,230.71025034375,231.36744737916666,69.0,76.0
1220,231.63259892083335,231.95835652916668,64.0,72.0
1221,231.16290190416666,231.96403834791667,57.0,62.0
1222,229.33335626666667,232.04737168958334,52.0,70.0
1223,228.88259864583333,232.0568413875,45.0,82.0
1224,232.3522959625,232.91290207916666,57.0,60.0
1225,232.44699294166668,232.94509905208332,61.0,59.0
1226,232.51896264583334,232.96972026666666,64.0,61.0
1227,232.60797780625,233.13638695,69.0,50.0
1228,235.25381140416667,235.52843264375,69.0,75.0
1229,235.25949322291666,235.77275085,81.0,73.0
1230,235.250023525,235.81441752083333,73.0,70.0
1231,235.25191746458333,235.85040237291668,76.0,82.0
1232,232.53600810208334,235.92805389583333,45.0,65.0
1233,235.78032660833333,236.01706905625,69.0,64.0
1234,237.09850855833332,237.33903888541667,57.0,83.0
1235,237.09282673958333,237.55873587708334,61.0,83.0
1236,237.10987219583333,237.85987227083334,45.0,88.0
1237,237.11176613541667,237.87123590833332,52.0,88.0
1238,237.54169042083333,237.91669045833333,57.0,89.0
1239,237.99812986041667,238.48297839375,50.0,81.0
1240,237.9886601625,238.55305415833334,62.0,88.0
1241,237.98297834375,238.5568420375,66.0,91.0
1242,237.9886601625,238.58525113125,57.0,90.0
1243,238.63259962083333,239.02085723541666,50.0,67.0
1244,238.88449358541666,239.28222089791666,66.0,99.0
1245,238.89206934375,239.31820575,62.0,94.0
1246,238.88828146458334,239.32009968958334,57.0,102.0
1247,239.32388756875,239.43752394375,50.0,64.0
1248,238.0000238,239.50949364791666,38.0,88.0
1249,239.52653910416666,239.58714517083334,66.0,73.0
1250,239.53979668125,239.59282698958333,57.0,63.0
1251,239.54926637916665,239.59850880833332,62.0,57.0
1252,239.79358458541665,240.18941795833334,50.0,88.0
1253,239.78979670625,240.21782705208332,62.0,81.0
1254,239.78979670625,240.23676644791666,57.0,88.0
1255,239.78979670625,240.24434220625,66.0,92.0
1256,240.47919071458332,240.77085741041665,50.0,90.0
1257,239.79358458541665,240.96403924791667,38.0,92.0
1258,240.92805439583333,241.19888775625,50.0,80.0
1259,240.71025134375,241.25570594375,62.0,91.0
1260,240.704569525,241.2841150375,57.0,104.0
1261,240.70078164583333,241.2841150375,66.0,101.0
1262,241.13638775,241.30116049375,38.0,93.0
1263,241.37313019791665,241.41669080833333,38.0,76.0
1264,241.36744837916666,241.41669080833333,50.0,85.0
1265,241.62313022291667,242.03600905208333,66.0,99.0
1266,241.62691810208332,242.06441814583334,61.0,94.0
1267,241.63259992083334,242.068206025,49.0,84.0
1268,241.62691810208332,242.07388784375,57.0,102.0
1269,242.27653937916668,242.568206075,49.0,74.0
1270,242.522751525,242.8295697375,61.0,94.0
1271,242.522751525,242.88449398541667,57.0,104.0
1272,242.522751525,242.886387925,66.0,97.0
1273,242.94888793125,243.25949402291667,49.0,55.0
1274,243.18563037916667,243.57388799375,69.0,95.0
1275,243.18563037916667,243.5795698125,57.0,100.0
1276,243.18563037916667,243.58146375208332,61.0,91.0
1277,243.18752431875,243.58146375208332,66.0,91.0
1278,243.6022970875,243.8522971125,49.0,68.0
1279,243.83146377708334,244.04169107083334,69.0,86.0
1280,243.82767589791666,244.05494864791666,57.0,92.0
1281,243.83146377708334,244.06631228541667,66.0,80.0
1282,243.82199407916667,244.07388804375,61.0,88.0
1283,241.63828173958333,244.32199412916665,37.0,85.0
1284,244.02843349375,244.54358506041666,49.0,90.0
1285,244.48108505416667,244.75760023333333,37.0,97.0
1286,244.27085776041667,244.8295699375,61.0,91.0
1287,244.27464563958333,244.84472145416666,66.0,91.0
1288,244.27464563958333,244.84661539375,57.0,106.0
1289,244.27464563958333,244.88070630625,69.0,96.0
1290,244.74055477708333,244.96782752708333,49.0,76.0
1291,244.92994873541667,245.17994876041666,37.0,80.0
1292,245.25760028333335,245.71025184375,47.0,87.0
1293,245.26328210208334,245.86744882916668,62.0,85.0
1294,245.250024525,245.87123670833333,66.0,84.0
1295,245.25570634375,245.88449428541668,59.0,92.0
1296,245.94131247291668,246.2386609875,47.0,72.0
1297,245.26328210208334,246.44888828125,35.0,89.0
1298,246.1704791625,246.4545701,71.0,95.0
1299,246.17426704166667,246.46972161666667,59.0,99.0
1300,246.16290340416666,246.69510042708333,66.0,78.0
1301,246.17426704166667,246.74244891666666,62.0,84.0
1302,246.61934284375,246.76517619166665,69.0,84.0
1303,246.62313072291667,246.77464588958333,59.0,77.0
1304,246.40153979166666,246.86744892916667,47.0,75.0
1305,246.81631256041666,246.87881256666665,35.0,74.0
1306,247.08146410208334,247.55116111875,45.0,84.0
1307,247.10797925625,247.66479749375,64.0,72.0
1308,247.08903986041668,247.69131264791667,61.0,79.0
1309,247.08146410208334,247.70267628541666,69.0,95.0
1310,247.08525198125,247.7159338625,57.0,95.0
1311,247.75570659375,248.05494904791666,45.0,83.0
1312,247.08146410208334,248.27085816041668,33.0,92.0
1313,247.98108540416666,248.39964605208334,69.0,93.0
1314,247.98108540416666,248.41290362916666,64.0,88.0
1315,247.98487328333334,248.47350969583334,61.0,85.0
1316,247.97919146458332,248.48108545416667,57.0,100.0
1317,248.44699454166667,248.48297939374999,33.0,87.0
1318,248.22161573125,248.49813091041668,45.0,85.0
1319,248.91290367916667,249.40911585,52.0,81.0
1320,248.90343398125,249.477297675,59.0,90.0
1321,248.90532792083334,249.51707040624999,64.0,91.0
1322,248.90343398125,249.52464616458334,55.0,99.0
1323,249.57388859375,249.86555528958334,52.0,79.0
1324,248.91290367916667,250.07767652291668,40.0,81.0
1325,249.79926740416667,250.08904016041666,55.0,108.0
1326,249.79169164583334,250.113661375,64.0,92.0
1327,249.79926740416667,250.11934319375,59.0,99.0
1328,250.03032803333332,250.26896442083333,52.0,94.0
1329,250.25002502499999,250.29358563541666,40.0,80.0
1330,250.48297959375,250.82388871875,45.0,90.0
1331,250.477297775,250.99055540208334,69.0,96.0
1332,250.47161595625,250.99244934166666,57.0,100.0
1333,250.477297775,251.0000251,61.0,90.0
1334,250.477297775,251.0000251,64.0,88.0
1335,250.93563115416666,251.25191906458332,45.0,91.0
1336,251.15343420625,251.44131302291666,57.0,104.0
1337,251.15343420625,251.44699484166668,69.0,96.0
1338,251.15722208541666,251.44888878125,61.0,95.0
1339,251.15343420625,251.45835847916666,64.0,97.0
1340,251.34850998333334,251.67994941041667,45.0,83.0
1341,251.60797970625,251.83525245625,69.0,108.0
1342,251.6022978875,251.85608579166666,57.0,111.0
1343,250.48297959375,252.00191913958332,33.0,95.0
1344,251.6022978875,252.12313127291665,64.0,85.0
1345,252.05116156875,252.14396460833333,71.0,92.0
1346,251.60797970625,252.15343430625,61.0,100.0
1347,252.05116156875,252.16858582291667,59.0,97.0
1348,251.81631306041666,252.28601007708332,45.0,91.0
1349,252.24244946666667,252.28790401666666,33.0,79.0
1350,252.53222222291666,252.78979800625,54.0,72.0
1351,252.522752525,252.82010103958334,42.0,79.0
1352,252.51707070625,252.92237377708332,57.0,94.0
1353,252.51707070625,252.92994953541665,61.0,80.0
1354,252.51328282708334,252.93563135416667,66.0,94.0
1355,253.17805562083333,253.5795708125,54.0,81.0
1356,253.20835865416666,253.86176781041667,42.0,49.0
1357,253.44131322291668,253.90532842083334,57.0,100.0
1358,253.44131322291668,253.91669205833333,61.0,92.0
1359,253.43752534375,253.92994963541668,66.0,97.0
1360,253.87691932708333,254.13070723125,54.0,61.0
1361,254.04169207083334,254.32010118958334,42.0,72.0
1362,254.29737391458335,254.74434365625,54.0,81.0
1363,254.29358603541667,254.8295709375,66.0,95.0
1364,254.29737391458335,254.83335881666667,62.0,88.0
1365,254.29358603541667,254.83904063541667,59.0,94.0
1366,254.99055580208332,255.28601037708333,54.0,74.0
1367,254.31063149166667,255.69510132708334,47.0,76.0
1368,255.24055582708334,255.75949527291667,62.0,92.0
1369,255.23487400833332,255.77275285,59.0,102.0
1370,255.23108612916667,255.78032860833332,66.0,95.0
1371,255.46214675833332,255.86744982916667,54.0,75.0
1372,255.69888920625,255.91858619791665,45.0,64.0
1373,255.91290437916666,255.98108620416667,43.0,57.0
1374,256.14207106875,256.6439650583333,54.0,81.0
1375,256.13449531041664,256.69131354791665,66.0,84.0
1376,256.13449531041664,256.70835900416665,61.0,79.0
1377,256.13449531041664,256.72161658125,57.0,88.0
1378,256.84282871458333,257.1572226854167,54.0,76.0
1379,256.14207106875,257.1818439,42.0,81.0
1380,257.06631358541665,257.41479846875,57.0,106.0
1381,257.06631358541665,257.44888938125,61.0,99.0
1382,257.06631358541665,257.4526772604167,66.0,99.0
1383,257.29926815416667,257.55873787708333,54.0,64.0
1384,257.50002575,257.58525303125,42.0,72.0
1385,257.9791924645833,258.3201015895833,54.0,74.0
1386,257.9791924645833,258.3655561395833,71.0,87.0
1387,257.98298034375,258.431844025,62.0,81.0
1388,257.9791924645833,258.44510160208335,59.0,97.0
1389,257.9791924645833,258.4583591791667,66.0,84.0
1390,258.69888950625,258.95267741041664,54.0,71.0
1391,258.68941980833335,259.0871471208333,69.0,100.0
1392,258.68941980833335,259.08904106041666,59.0,104.0
1393,258.68941980833335,259.13638955,66.0,91.0
1394,258.69699556666666,259.13828348958333,62.0,95.0
1395,259.1288137916667,259.3731319979167,54.0,84.0
1396,257.99245004166664,259.42995018541666,47.0,64.0
1397,259.3598744208333,259.43941988333336,62.0,72.0
1398,259.34661684375,259.47540473541665,67.0,92.0
1399,259.34661684375,259.49245019166665,59.0,95.0
1400,259.54358656041666,259.6382835395833,54.0,52.0
1401,259.61934414375,259.85798053125,47.0,64.0
1402,259.79737446458336,260.28979875625,52.0,84.0
1403,259.7935865854167,260.32767754791666,59.0,90.0
1404,259.78979870625,260.33904118541665,64.0,91.0
1405,259.78979870625,260.34472300416667,55.0,99.0
1406,260.4432078625,260.76707153125,52.0,79.0
1407,259.80495022291666,260.9886624625,40.0,81.0
1408,260.6837381895833,261.1932079375,55.0,108.0
1409,260.6837381895833,261.2007836958333,59.0,104.0
1410,260.92237457708336,261.2310867291667,52.0,76.0
1411,260.6837381895833,261.2310867291667,64.0,99.0
1412,261.1553291458333,261.24623824583335,40.0,93.0
1413,261.6098746458333,262.6041929270833,45.0,85.0
1414,261.6004049479167,262.69131414791667,57.0,102.0
1415,261.6060867666667,262.77843536875,61.0,90.0
1416,261.6060867666667,262.81252628125,69.0,92.0
1417,261.6060867666667,262.93942023333335,64.0,87.0
1418,263.40532937083333,263.55116271875,57.0,52.0
1419,263.62123848333334,263.77843546875,64.0,45.0
1420,263.8257839583333,263.9091173,69.0,52.0
1421,264.3049506729167,264.36745067916667,81.0,54.0
1422,265.17995076041666,265.35987502083333,85.0,51.0
1423,265.30116289375,265.36176896041667,88.0,39.0
1424,265.3428295645833,265.40722351041666,93.0,68.0
1425,261.6060867666667,265.80873870208336,33.0,91.0
1426,268.48108745416664,268.69699656666666,59.0,71.0
1427,268.02843589375,268.74434505625,62.0,77.0
1428,268.8769208270833,268.98298144375,55.0,43.0
1429,268.9053299208333,269.03411781249997,59.0,72.0
1430,269.0151784166667,269.58904211041664,67.0,70.0
1431,269.92805729583336,270.07389064375,59.0,40.0
1432,269.91858759791666,270.26328460208333,62.0,65.0
1433,267.56442069583335,270.4848755333333,50.0,71.0
1434,267.10987519583335,270.55873917708334,43.0,81.0
1435,270.64396645833335,270.8522998125,55.0,65.0
1436,270.7083604041667,270.8939664833333,59.0,77.0
1437,270.7632846520833,270.92616345625,62.0,69.0
1438,270.83714829583334,271.14017862916666,67.0,78.0
1439,271.69131504791665,271.8712393083333,74.0,81.0
1440,271.69699686666667,271.97919386458335,67.0,69.0
1441,272.4015423916667,272.5076030083333,67.0,61.0
1442,272.6477545375,272.77464848958334,83.0,84.0
1443,271.22351197083333,273.62692130208336,50.0,69.0
1444,270.78979980625,273.6951031270833,43.0,84.0
1445,273.5985122083333,273.74245161666664,81.0,30.0
1446,274.52654260416665,274.79169414583333,74.0,64.0
1447,274.65722443541665,274.79737596458335,38.0,71.0
1448,274.6363911,274.80116384375,78.0,71.0
1449,274.70078504583336,275.19889115625,81.0,74.0
1450,275.67616393125,275.91290637916666,64.0,73.0
1451,275.9015427416667,276.0322245729167,66.0,85.0
1452,276.16669428333336,276.30495187291666,69.0,75.0
1453,276.4072246104167,276.51707310625,74.0,89.0
1454,276.68373978958334,276.78980040625,76.0,87.0
1455,276.99623982083335,277.1231337729167,78.0,88.0
1456,277.3087398520833,277.4223762270833,81.0,81.0
1457,277.7594974729167,277.85040657291665,86.0,79.0
1458,278.22919448958334,278.41480056875,88.0,73.0
1459,278.7026793854167,278.840936975,86.0,77.0
1460,275.46025481875,278.98677032291664,57.0,68.0
1461,275.1572244854167,279.03980063125,50.0,74.0
1462,279.68752796875,279.74245221666666,90.0,58.0
1463,279.6515431166667,279.76328555208335,86.0,62.0
1464,279.72919463958334,279.9242704166667,93.0,73.0
1465,279.6250279625,280.26896742083335,57.0,51.0
1466,279.4962400708333,280.27843711875,50.0,67.0
