,start,end,pitch,velocity
0,15.626711108333332,15.951363366666666,67.0,115.0
1,16.04337710833333,16.14233528333333,74.0,106.0
2,16.25171010833333,16.350668283333334,74.0,106.0
3,16.460043108333334,16.70483438333333,74.0,109.0
4,16.876709108333333,16.975667283333333,72.0,109.0
5,17.085042108333333,17.180528066666668,70.0,120.0
6,17.293375108333333,17.779485441666665,74.0,109.0
7,18.543373108333334,18.673581233333334,74.0,115.0
8,18.751706108333334,18.845455958333332,79.0,112.0
9,18.960039108333334,19.157955458333333,77.0,115.0
10,19.376705108333333,19.47045495833333,77.0,106.0
11,19.585038108333332,19.670107416666667,77.0,109.0
12,19.793371108333332,19.991287458333332,77.0,112.0
13,20.21003710833333,20.321148041666667,74.0,115.0
14,20.41837010833333,20.4999672,72.0,101.0
15,20.62670310833333,21.578090475,74.0,106.0
16,22.29336710833333,22.42357523333333,74.0,115.0
17,22.50170010833333,22.586769416666666,79.0,112.0
18,22.71003310833333,22.805519066666665,79.0,104.0
19,22.91836610833333,23.01037985,79.0,109.0
20,23.126699108333334,23.4166292,79.0,112.0
21,23.543365108333333,23.659684366666667,79.0,112.0
22,23.751698108333333,23.848920175,77.0,109.0
23,23.960031108333332,24.24128065833333,74.0,115.0
24,24.37669710833333,25.031209949999997,72.0,106.0
25,25.210029108333334,25.347181666666664,67.0,115.0
26,25.418362108333334,25.51037585,70.0,117.0
27,25.626695108333333,25.72044495833333,72.0,104.0
28,25.835028108333333,25.923569633333333,72.0,101.0
29,26.043361108333333,26.12669430833333,72.0,104.0
30,26.251694108333332,26.347180066666667,72.0,104.0
31,26.460027108333332,26.729123899999998,72.0,109.0
32,26.87669310833333,26.991276258333333,70.0,117.0
33,27.08502610833333,27.31940073333333,72.0,109.0
34,27.501692108333334,28.711759616666665,74.0,109.0
35,28.96002310833333,29.244744875,74.0,115.0
36,29.37668910833333,29.472175066666665,79.0,115.0
37,29.58502210833333,29.685716391666666,79.0,106.0
38,29.793355108333333,30.107590716666664,79.0,115.0
39,30.210021108333333,30.4791179,77.0,112.0
40,30.626687108333332,30.89752000833333,82.0,120.0
41,31.04335310833333,31.602379991666666,79.0,112.0
42,31.876685108333334,31.972171066666665,79.0,112.0
43,32.08501810833333,32.17703185,79.0,106.0
44,32.29335110833333,32.38362874166666,77.0,118.0
45,32.50168410833333,32.96869725,77.0,112.0
46,33.12668310833333,33.383627141666665,77.0,112.0
47,33.54334910833333,33.659668366666665,74.0,109.0
48,33.751682108333334,34.020778899999996,72.0,104.0
49,34.16834810833333,34.96522183333333,74.0,109.0
50,35.626679108333335,35.942650825,74.0,118.0
51,36.043345108333334,36.15445604166666,79.0,112.0
52,36.25167810833333,36.355844608333335,79.0,106.0
53,36.46001110833333,36.963482524999996,79.0,112.0
54,37.08501010833333,37.189176608333334,77.0,109.0
55,37.29334310833333,37.56591211666667,74.0,115.0
56,37.71000910833333,38.1874389,72.0,109.0
57,38.54334110833333,38.67354923333333,67.0,104.0
58,38.75167410833333,38.843687849999995,70.0,117.0
59,38.96000710833333,39.213478925,72.0,109.0
60,39.37667310833333,39.48083960833333,72.0,106.0
61,39.58500610833333,39.671811524999995,74.0,109.0
62,39.793339108333335,40.03465816666667,77.0,115.0
63,40.210005108333334,40.42528254166667,74.0,109.0
64,40.62667110833333,40.902712333333334,65.0,115.0
65,41.04333710833333,42.11625205833333,67.0,104.0
66,42.29333510833333,42.38361274166667,70.0,120.0
67,42.501668108333334,42.76208435833333,70.0,110.0
68,42.91833410833333,43.02770893333333,70.0,117.0
69,43.12666710833333,43.4165972,70.0,117.0
70,43.54333310833333,43.80548546666667,74.0,106.0
71,43.95999910833333,45.00340021666666,74.0,115.0
72,45.20999710833333,45.310691391666666,74.0,118.0
73,45.41833010833333,45.50687163333333,77.0,112.0
74,45.62666310833333,45.81069059166666,79.0,115.0
75,46.04332910833333,46.22735659166666,79.0,115.0
76,46.45999510833333,46.89923051666666,81.0,115.0
77,47.08499410833333,47.1874245,79.0,109.0
78,47.29332710833333,47.565896116666664,77.0,112.0
79,47.70999310833333,48.30547826666666,74.0,115.0
80,48.543325108333335,48.64749160833333,74.0,115.0
81,48.75165810833333,48.82978298333333,77.0,112.0
82,48.959991108333334,49.17874075833333,79.0,115.0
83,49.37665710833333,49.532906858333334,79.0,112.0
84,49.79332310833333,50.36276664166667,79.0,112.0
85,50.62665510833333,50.77422431666666,81.0,115.0
86,51.04332110833333,51.2707513,81.0,115.0
87,51.45998710833333,51.57283415,79.0,109.0
88,51.66832010833333,52.065888916666665,82.0,115.0
89,52.29331910833333,54.453037875,81.0,118.0
90,55.62664710833333,55.744702475,74.0,115.0
91,55.83498010833333,55.92352163333333,79.0,115.0
92,56.04331310833333,56.13532685,79.0,109.0
93,56.25164610833333,56.895742299999995,79.0,112.0
94,57.29331110833333,57.39747760833333,74.0,115.0
95,57.50164410833333,57.60233839166666,81.0,115.0
96,57.709977108333334,57.8124075,81.0,106.0
97,57.91831010833333,58.34192054166667,81.0,115.0
98,58.54330910833333,58.65268393333333,79.0,115.0
99,58.75164210833333,58.84018363333333,81.0,109.0
100,58.95997510833333,59.209974708333334,82.0,120.0
101,59.37664110833333,59.4582382,82.0,113.0
102,59.58497410833333,59.65615455,82.0,110.0
103,59.79330710833333,60.088445525,82.0,120.0
104,60.20997310833333,60.28809798333333,79.0,104.0
105,60.41830610833333,60.67698625,79.0,112.0
106,60.83497210833333,61.550248741666664,77.0,115.0
107,61.876637108333334,61.97733139166667,74.0,112.0
108,62.08497010833333,62.18566439166666,77.0,112.0
109,62.29330310833333,62.494691675,72.0,115.0
110,62.70996910833333,62.90267713333333,72.0,112.0
111,63.12663510833333,63.21517663333333,72.0,106.0
112,63.33496810833333,63.63184263333333,72.0,112.0
113,63.75163410833333,63.838439525,70.0,120.0
114,63.95996710833333,64.13878626666667,72.0,109.0
115,64.37663310833334,64.86795176666666,74.0,112.0
116,65.20996510833334,65.31413160833333,74.0,112.0
117,65.41829810833333,65.51204795833333,77.0,112.0
118,65.62663110833333,65.87836681666667,79.0,112.0
119,66.04329710833333,66.13878306666666,79.0,109.0
120,66.25163010833333,66.32975498333333,79.0,106.0
121,66.45996310833333,66.74642098333334,79.0,112.0
122,66.87662910833333,67.15614255,82.0,120.0
123,67.29329510833333,67.44780875,79.0,109.0
124,67.70996110833333,68.7707233,81.0,112.0
125,68.95995910833334,69.078014475,74.0,115.0
126,69.16829210833333,69.25683363333333,79.0,115.0
127,69.37662510833333,69.46863884999999,79.0,109.0
128,69.58495810833332,70.2290543,79.0,112.0
129,70.62662310833333,70.73078960833332,74.0,115.0
130,70.83495610833333,70.93565039166667,81.0,115.0
131,71.04328910833333,71.1457195,81.0,106.0
132,71.25162210833334,71.67523254166666,81.0,115.0
133,71.87662110833332,71.98599593333333,79.0,115.0
134,72.08495410833333,72.17349563333333,81.0,109.0
135,72.29328710833333,72.54328670833333,82.0,120.0
136,72.70995310833332,72.7915502,82.0,113.0
137,72.91828610833333,72.98946655,82.0,110.0
138,73.12661910833333,73.42175752499999,82.0,120.0
139,73.54328510833334,73.67522934166666,84.0,118.0
140,73.75161810833333,73.85057628333333,82.0,120.0
141,73.95995110833333,74.79328310833333,86.0,115.0
142,75.20994910833333,75.31064339166666,86.0,112.0
143,75.41828210833333,75.51897639166667,86.0,112.0
144,75.62661510833333,75.82800367499999,84.0,115.0
145,76.04328110833333,76.23598913333333,84.0,112.0
146,76.45994710833332,76.54848863333333,84.0,106.0
147,76.66828010833333,76.96515463333333,84.0,112.0
148,77.08494610833333,77.17175152499999,82.0,120.0
149,77.29327910833332,77.47209826666666,84.0,109.0
150,77.70994510833333,77.859250425,82.0,117.0
151,77.91827810833333,78.35577740833332,79.0,115.0
152,78.54327710833333,78.64744360833333,79.0,112.0
153,78.75161010833332,78.85056828333333,81.0,112.0
154,78.95994310833333,79.18390108333332,82.0,120.0
155,79.37660910833333,79.46688674166667,82.0,120.0
156,79.58494210833332,79.67521974166667,82.0,117.0
157,79.79327510833333,80.09362184999999,82.0,120.0
158,80.20994110833333,80.32452425833333,84.0,115.0
159,80.41827410833334,80.50681563333333,82.0,117.0
160,80.62660710833333,81.182161775,81.0,109.0
161,81.25160610833333,81.369661475,74.0,106.0
162,81.45993910833333,81.73771644166666,77.0,112.0
163,81.87660510833334,82.44084031666667,74.0,115.0
164,82.70993710833334,85.07278054999999,79.0,112.0
165,102.29323910833332,102.577960875,67.0,115.0
166,102.70990510833333,102.80539106666666,74.0,115.0
167,102.91823810833333,103.01893239166667,74.0,106.0
168,103.12657110833332,103.44080671666666,74.0,115.0
169,103.54323710833333,103.744625675,72.0,112.0
170,103.75157010833333,104.161291675,70.0,114.0
171,104.37656910833333,104.93559599166666,74.0,112.0
172,105.20990110833333,105.30538706666667,79.0,112.0
173,105.41823410833332,105.51024785,79.0,106.0
174,105.62656710833333,105.71684474166666,77.0,118.0
175,105.83490010833333,106.30191325,77.0,112.0
176,106.45989910833333,106.71684314166666,77.0,112.0
177,106.87656510833332,106.99288436666666,74.0,109.0
178,107.08489810833333,107.35399489999999,72.0,104.0
179,107.50156410833333,108.29843783333332,74.0,109.0
180,108.95989510833333,109.275866825,74.0,118.0
181,109.37656110833333,109.48767204166666,79.0,112.0
182,109.58489410833333,109.68906060833334,79.0,106.0
183,109.79322710833333,110.296698525,79.0,112.0
184,110.41822610833333,110.52239260833333,77.0,109.0
185,110.62655910833332,110.89912811666666,74.0,115.0
186,111.04322510833333,111.5206549,72.0,109.0
187,111.87655710833333,112.00676523333333,67.0,104.0
188,112.08489010833333,112.17690384999999,70.0,117.0
189,112.29322310833332,112.546694925,72.0,109.0
190,112.70988910833333,112.81405560833333,72.0,106.0
191,112.91822210833332,113.00502752499999,74.0,109.0
192,113.12655510833333,113.36787416666667,77.0,115.0
193,113.54322110833333,113.75849854166667,74.0,109.0
194,113.95988710833333,114.23592833333333,65.0,115.0
195,114.37655310833333,115.44946805833332,67.0,104.0
196,115.62655110833333,115.71682874166666,70.0,120.0
197,115.83488410833333,116.09530035833333,70.0,110.0
198,116.25155010833333,116.36092493333332,70.0,117.0
199,116.45988310833333,116.74981319999999,70.0,117.0
200,116.87654910833332,117.13870146666666,74.0,106.0
201,117.29321510833333,118.33661621666666,74.0,115.0
202,118.54321310833333,118.64390739166666,74.0,118.0
203,118.75154610833333,118.84008763333333,77.0,112.0
204,118.95987910833333,119.14390659166666,79.0,115.0
205,119.37654510833333,119.56057259166666,79.0,115.0
206,119.79321110833332,120.23244651666666,81.0,115.0
207,120.41821010833333,120.5206405,79.0,109.0
208,120.62654310833332,120.89911211666666,77.0,112.0
209,121.04320910833333,121.63869426666666,74.0,115.0
210,121.87654110833333,121.98070760833333,74.0,115.0
211,122.08487410833332,122.16299898333332,77.0,112.0
212,122.29320710833333,122.51195675833333,79.0,115.0
213,122.70987310833333,122.86612285833333,79.0,112.0
214,123.12653910833333,123.69598264166666,79.0,112.0
215,123.95987110833333,124.10744031666665,81.0,115.0
216,124.37653710833332,124.6039673,81.0,115.0
217,124.79320310833333,124.90605015,79.0,109.0
218,125.00153610833333,125.39910491666666,82.0,115.0
219,125.62653510833333,127.786253875,84.0,118.0
220,128.95986310833334,129.077918475,74.0,115.0
221,129.16819610833332,129.25673763333333,79.0,115.0
222,129.37652910833333,129.46854285,79.0,109.0
223,129.58486210833334,130.2289583,79.0,112.0
224,130.62652710833333,130.73069360833333,74.0,115.0
225,130.83486010833332,130.93555439166667,81.0,115.0
226,131.04319310833333,131.1456235,81.0,106.0
227,131.25152610833334,131.67513654166666,81.0,115.0
228,131.87652510833334,131.98589993333331,79.0,115.0
229,132.08485810833332,132.17339963333333,81.0,109.0
230,132.29319110833333,132.54319070833333,82.0,120.0
231,132.70985710833332,132.7914542,82.0,113.0
232,132.91819010833333,132.98937055,82.0,110.0
233,133.12652310833332,133.421661525,82.0,120.0
234,133.54318910833334,133.62131398333332,79.0,104.0
235,133.75152210833332,134.01020225,79.0,112.0
236,134.16818810833334,134.88346474166667,77.0,115.0
237,135.20985310833333,135.31054739166666,74.0,112.0
238,135.41818610833332,135.51888039166667,77.0,112.0
239,135.62651910833333,135.827907675,72.0,115.0
240,136.04318510833332,136.23589313333332,72.0,112.0
241,136.45985110833334,136.54839263333332,72.0,106.0
242,136.66818410833332,136.9650586333333,72.0,112.0
243,137.0848501083333,137.171655525,70.0,120.0
244,137.29318310833332,137.47200226666666,72.0,109.0
245,137.70984910833332,138.20116776666666,74.0,112.0
246,138.54318110833333,138.64734760833332,74.0,112.0
247,138.75151410833334,138.84526395833333,77.0,112.0
248,138.95984710833332,139.21158281666666,79.0,112.0
249,139.3765131083333,139.47199906666665,79.0,109.0
250,139.58484610833332,139.66297098333334,79.0,106.0
251,139.79317910833333,140.07963698333333,79.0,112.0
252,140.20984510833333,140.48935855,82.0,120.0
253,140.62651110833332,140.78102475,79.0,109.0
254,141.04317710833334,142.1039393,81.0,112.0
255,142.29317510833332,142.411230475,74.0,115.0
256,142.50150810833333,142.59004963333334,79.0,115.0
257,142.70984110833334,142.80185484999998,79.0,109.0
258,142.91817410833332,143.5622703,79.0,112.0
259,143.9598391083333,144.06400560833333,74.0,115.0
260,144.16817210833332,144.26886639166665,81.0,115.0
261,144.37650510833333,144.4789355,81.0,106.0
262,144.58483810833332,145.00844854166667,81.0,115.0
263,145.20983710833332,145.31921193333332,79.0,115.0
264,145.41817010833333,145.50671163333334,81.0,109.0
265,145.62650310833334,145.87650270833333,82.0,120.0
266,146.04316910833333,146.12476619999998,82.0,113.0
267,146.2515021083333,146.32268255,82.0,110.0
268,146.45983510833332,146.754973525,82.0,120.0
269,146.87650110833331,147.00844534166666,84.0,118.0
270,147.08483410833333,147.18379228333333,82.0,120.0
271,147.29316710833334,148.12649910833332,86.0,115.0
272,148.54316510833334,148.64385939166667,86.0,112.0
273,148.75149810833332,148.85219239166665,86.0,112.0
274,148.95983110833333,149.16121967499998,84.0,115.0
275,149.37649710833333,149.56920513333333,84.0,112.0
276,149.79316310833332,149.88170463333333,84.0,106.0
277,150.00149610833333,150.29837063333332,84.0,112.0
278,150.41816210833332,150.50496752499998,82.0,120.0
279,150.62649510833333,150.80531426666667,84.0,109.0
280,151.04316110833332,151.192466425,82.0,117.0
281,151.25149410833333,151.68899340833332,79.0,115.0
282,151.87649310833334,151.98065960833333,79.0,112.0
283,152.08482610833332,152.18378428333332,81.0,112.0
284,152.29315910833333,152.51711708333332,82.0,120.0
285,152.70982510833332,152.80010274166665,82.0,120.0
286,152.91815810833333,153.00843574166666,82.0,117.0
287,153.12649110833334,153.42683785,82.0,120.0
288,153.54315710833333,153.65774025833332,84.0,115.0
289,153.75149010833331,153.84003163333333,82.0,117.0
290,153.95982310833332,154.515377775,81.0,109.0
291,154.58482210833333,154.70287747499998,74.0,106.0
292,154.79315510833334,155.07093244166666,77.0,112.0
293,155.20982110833333,155.77405631666667,74.0,115.0
294,156.0431531083333,158.40599655,79.0,112.0
295,158.95981510833332,159.077870475,74.0,115.0
296,159.16814810833333,159.25668963333334,79.0,115.0
297,159.37648110833334,159.46849484999998,79.0,109.0
298,159.58481410833332,160.2289103,79.0,112.0
299,160.6264791083333,160.73064560833333,74.0,115.0
300,160.83481210833332,160.93550639166665,81.0,115.0
301,161.04314510833333,161.1455755,81.0,106.0
302,161.25147810833332,161.67508854166667,81.0,115.0
303,161.87647710833332,161.98585193333332,79.0,115.0
304,162.08481010833333,162.17335163333334,81.0,109.0
305,162.29314310833334,162.54314270833333,82.0,120.0
306,162.70980910833333,162.79140619999998,82.0,113.0
307,162.9181421083333,162.98932255,82.0,110.0
308,163.12647510833332,163.421613525,82.0,120.0
309,163.54314110833332,163.62126598333333,79.0,104.0
310,163.75147410833333,164.01015425,79.0,112.0
311,164.16814010833332,164.88341674166665,77.0,115.0
312,165.2098051083333,165.31049939166667,74.0,112.0
313,165.41813810833332,165.51883239166665,77.0,112.0
314,165.62647110833333,165.82785967499998,72.0,115.0
315,166.04313710833333,166.23584513333333,72.0,112.0
316,166.45980310833332,166.54834463333333,72.0,106.0
317,166.66813610833333,166.96501063333332,72.0,112.0
318,167.08480210833332,167.17160752499998,70.0,120.0
319,167.29313510833333,167.47195426666667,72.0,109.0
320,167.70980110833332,168.20111976666666,74.0,112.0
321,168.54313310833334,168.64729960833333,74.0,112.0
322,168.75146610833332,168.8452159583333,77.0,112.0
323,168.95979910833333,169.21153481666667,79.0,112.0
324,169.37646510833332,169.47195106666666,79.0,109.0
325,169.58479810833333,169.66292298333332,79.0,106.0
326,169.7931311083333,170.07958898333334,79.0,112.0
327,170.20979710833333,170.48931055,82.0,120.0
328,170.62646310833333,170.78097674999998,79.0,109.0
329,171.04312910833332,172.1038913,81.0,112.0
330,172.29312710833332,172.411182475,74.0,115.0
331,172.50146010833333,172.59000163333332,79.0,115.0
332,172.70979310833332,172.80180685,79.0,109.0
333,172.91812610833333,173.5622223,79.0,112.0
334,173.95979110833332,174.06395760833334,74.0,115.0
335,174.16812410833333,174.26881839166666,81.0,115.0
336,174.3764571083333,174.47888749999998,81.0,106.0
337,174.58479010833332,175.00840054166665,81.0,115.0
338,175.20978910833333,175.31916393333333,79.0,115.0
339,175.41812210833334,175.50666363333332,81.0,109.0
340,175.62645510833332,175.8764547083333,82.0,120.0
341,176.04312110833334,176.1247182,82.0,113.0
342,176.25145410833332,176.32263455,82.0,110.0
343,176.45978710833333,176.754925525,82.0,120.0
344,176.87645310833332,177.00839734166667,84.0,118.0
345,177.08478610833333,177.1837442833333,82.0,120.0
346,177.29311910833331,178.12645110833333,86.0,115.0
347,178.54311710833332,178.64381139166665,86.0,112.0
348,178.75145010833333,178.85214439166666,86.0,112.0
349,178.9597831083333,179.161171675,84.0,115.0
350,179.37644910833333,179.56915713333333,84.0,112.0
351,179.79311510833332,179.88165663333334,84.0,106.0
352,180.00144810833334,180.29832263333333,84.0,112.0
353,180.41811410833333,180.504919525,82.0,120.0
354,180.62644710833334,180.80526626666665,84.0,109.0
355,181.04311310833333,181.192418425,82.0,117.0
356,181.2514461083333,181.68894540833332,79.0,115.0
357,181.87644510833331,181.98061160833333,79.0,112.0
358,182.08477810833332,182.18373628333333,81.0,112.0
359,182.29311110833333,182.51706908333333,82.0,120.0
360,182.70977710833333,182.80005474166666,82.0,120.0
361,182.91811010833334,183.00838774166667,82.0,117.0
362,183.12644310833332,183.42678984999998,82.0,120.0
363,183.5431091083333,183.65769225833333,84.0,115.0
364,183.75144210833332,183.83998363333333,82.0,117.0
365,183.95977510833333,184.515329775,81.0,109.0
366,184.58477410833333,184.702829475,74.0,106.0
367,184.79310710833332,185.07088444166666,77.0,112.0
368,185.20977310833334,185.77400831666665,74.0,115.0
369,186.04310510833332,188.40594855,79.0,112.0
370,188.50317061666667,188.66115647499998,79.0,109.0
371,188.73060080833332,188.84692006666666,81.0,104.0
372,188.97018375833332,189.28094715,82.0,117.0
373,189.40247473333332,189.51358566666667,82.0,110.0
374,189.63164103333332,189.73754364166666,82.0,113.0
375,189.88858506666665,190.24275116666666,82.0,117.0
376,190.36080653333332,190.54309790833332,84.0,104.0
377,190.609070025,190.78441696666667,82.0,113.0
378,190.91983341666665,192.65594174999998,81.0,106.0
379,192.77399711666666,192.89899691666665,74.0,101.0
380,192.9996912,193.09864937499998,74.0,101.0
381,193.22017695833333,193.536148675,74.0,109.0
382,193.54309310833332,193.95281467499998,82.0,112.0
383,193.95975910833332,196.42156072499998,79.0,104.0
