,start,end,pitch,velocity
0,2.2933991083333334,2.90624535,58.0,72.0
1,2.2933991083333334,2.932286975,62.0,96.0
2,2.2933991083333334,2.9392314083333333,55.0,69.0
3,2.710065108333333,3.2430503666666666,50.0,38.0
4,3.1267311083333333,3.475688883333333,58.0,96.0
5,2.2933991083333334,3.5399248916666664,43.0,82.0
6,3.1267311083333333,3.5538137583333334,62.0,101.0
7,3.9600631083333333,4.352423591666667,58.0,99.0
8,3.9600631083333333,4.4097151666666665,62.0,101.0
9,4.793395108333333,5.236102733333333,58.0,117.0
10,4.793395108333333,5.293394308333333,62.0,106.0
11,5.210061108333333,5.473949575,55.0,101.0
12,5.626727108333333,6.215267833333333,62.0,99.0
13,5.626727108333333,6.234365025,58.0,104.0
14,6.460059108333333,6.7708224999999995,62.0,101.0
15,6.460059108333333,6.880197324999999,58.0,110.0
16,5.626727108333333,6.998252691666666,46.0,65.0
17,7.293391108333333,7.69790435,62.0,80.0
18,7.293391108333333,7.777765333333333,58.0,86.0
19,7.710057108333333,8.2083202,53.0,89.0
20,8.126723108333334,8.383667141666667,46.0,91.0
21,8.126723108333334,8.536444675,58.0,107.0
22,8.126723108333334,8.612833441666666,62.0,104.0
23,8.543389108333333,8.621513983333333,53.0,85.0
24,8.960055108333332,9.562484699999999,60.0,89.0
25,8.960055108333332,9.598942975,63.0,93.0
26,9.793387108333333,10.286441875,60.0,99.0
27,9.793387108333333,10.303802958333334,63.0,101.0
28,10.626719108333333,11.248245891666667,63.0,88.0
29,10.626719108333333,11.251718108333332,60.0,91.0
30,8.960055108333332,11.881925433333333,48.0,94.0
31,11.460051108333333,11.890605975,63.0,110.0
32,11.460051108333333,11.904494841666667,60.0,106.0
33,11.876717108333333,11.966994741666666,55.0,78.0
34,12.293383108333332,13.036437475,62.0,96.0
35,12.293383108333332,13.260395449999999,57.0,96.0
36,13.126715108333332,13.569422733333333,62.0,96.0
37,13.126715108333332,13.595464358333333,66.0,99.0
38,12.293383108333332,13.727408591666666,50.0,101.0
39,13.960047108333333,14.170116216666665,57.0,96.0
40,13.960047108333333,14.357615916666665,62.0,104.0
41,13.960047108333333,14.371504783333332,66.0,93.0
42,15.626711108333332,16.03122435,55.0,64.0
43,15.626711108333332,16.090252033333332,62.0,101.0
44,15.626711108333332,16.091988141666665,58.0,93.0
45,16.04337710833333,16.555529066666665,50.0,38.0
46,16.460043108333334,16.758653741666667,58.0,96.0
47,16.460043108333334,16.809000883333333,62.0,99.0
48,15.626711108333332,17.335041708333332,43.0,99.0
49,17.293375108333333,17.651013425,62.0,89.0
50,17.293375108333333,17.701360566666665,58.0,96.0
51,18.12670710833333,18.305526266666664,58.0,120.0
52,18.12670710833333,18.428789958333333,62.0,104.0
53,18.543373108333334,18.8124699,57.0,96.0
54,18.960039108333334,19.418371708333332,58.0,74.0
55,18.960039108333334,19.633649141666666,53.0,87.0
56,19.793371108333332,20.019065191666666,62.0,99.0
57,19.793371108333332,20.036426275,58.0,107.0
58,18.960039108333334,20.161426074999998,46.0,79.0
59,20.62670310833333,21.078091275,58.0,93.0
60,20.62670310833333,21.11454955,62.0,99.0
61,21.460035108333333,21.602395991666665,58.0,113.0
62,21.460035108333333,21.664895891666667,62.0,96.0
63,22.29336710833333,22.760380249999997,63.0,93.0
64,22.29336710833333,22.774269116666666,58.0,88.0
65,22.29336710833333,23.14232408333333,39.0,83.0
66,23.126699108333334,23.442670825,63.0,107.0
67,23.126699108333334,23.489545749999998,58.0,113.0
68,23.960031108333332,24.472183066666666,58.0,107.0
69,23.960031108333332,24.524266316666665,63.0,99.0
70,24.37669710833333,24.888849066666666,55.0,87.0
71,24.79336310833333,25.118015366666665,58.0,117.0
72,24.79336310833333,25.210029108333334,63.0,107.0
73,25.626695108333333,26.199610858333333,60.0,96.0
74,25.626695108333333,26.2082914,57.0,99.0
75,26.460027108333332,26.736068333333332,60.0,101.0
76,26.460027108333332,26.743012766666666,57.0,104.0
77,25.626695108333333,26.760373849999997,45.0,104.0
78,27.29335910833333,27.510372649999997,57.0,96.0
79,27.29335910833333,27.786413874999997,62.0,101.0
80,27.710025108333333,27.90620535,57.0,69.0
81,27.29335910833333,28.183982683333333,50.0,96.0
82,28.126691108333333,28.275996425,57.0,101.0
83,28.126691108333333,28.470440558333333,62.0,109.0
84,28.126691108333333,28.473912775,66.0,99.0
85,28.96002310833333,29.279467041666667,55.0,89.0
86,28.96002310833333,29.395786299999997,58.0,83.0
87,28.96002310833333,29.449605658333333,62.0,101.0
88,29.793355108333333,30.024257516666665,62.0,106.0
89,29.793355108333333,30.04856303333333,58.0,110.0
90,30.626687108333332,30.947867149999997,62.0,96.0
91,30.626687108333332,30.970436558333333,58.0,88.0
92,28.96002310833333,31.621477183333333,43.0,99.0
93,31.04335310833333,31.62668550833333,50.0,40.0
94,31.46001910833333,31.644046591666665,58.0,117.0
95,31.46001910833333,31.753421416666665,62.0,109.0
96,31.876685108333334,32.02772653333333,45.0,94.0
97,32.29335110833333,32.86626685833333,62.0,99.0
98,32.29335110833333,32.937447299999995,58.0,88.0
99,32.29335110833333,32.98258611666667,53.0,94.0
100,33.12668310833333,33.26036345,58.0,113.0
101,33.12668310833333,33.30897448333333,62.0,101.0
102,33.96001510833333,34.33501450833333,58.0,104.0
103,33.96001510833333,34.369736675,62.0,101.0
104,34.79334710833333,34.92876355833333,58.0,120.0
105,32.29335110833333,34.97216626666666,46.0,113.0
106,34.79334710833333,34.989527349999996,62.0,104.0
107,35.626679108333335,36.19612264166666,55.0,78.0
108,35.626679108333335,36.21869205,58.0,93.0
109,35.626679108333335,36.275983624999995,63.0,101.0
110,35.626679108333335,36.43917780833333,39.0,104.0
111,36.46001110833333,36.59021923333333,58.0,117.0
112,36.46001110833333,36.62146918333333,63.0,117.0
113,37.29334310833333,37.48257891666667,57.0,89.0
114,37.29334310833333,37.734314624999996,60.0,96.0
115,37.29334310833333,37.769036791666664,65.0,101.0
116,37.71000910833333,37.96521703333333,57.0,80.0
117,37.29334310833333,38.213480525,41.0,101.0
118,38.12667510833333,38.32285535,60.0,106.0
119,38.12667510833333,38.36625805833333,57.0,109.0
120,38.12667510833333,38.392299683333334,65.0,104.0
121,38.96000710833333,39.46868685,60.0,101.0
122,38.96000710833333,39.56938113333333,57.0,104.0
123,38.96000710833333,39.661394875,45.0,106.0
124,39.793339108333335,40.12840801666667,62.0,106.0
125,39.793339108333335,40.12840801666667,66.0,96.0
126,39.793339108333335,40.17701905,57.0,101.0
127,39.793339108333335,40.237782841666665,50.0,106.0
128,40.62667110833333,41.07458705833333,62.0,82.0
129,40.62667110833333,41.10583700833333,58.0,96.0
130,40.62667110833333,41.16312858333333,55.0,89.0
131,41.04333710833333,41.59541955833333,50.0,69.0
132,40.62667110833333,41.852363591666666,43.0,106.0
133,41.87666910833333,42.253404616666664,55.0,104.0
134,41.46000310833333,42.25687683333333,58.0,117.0
135,41.46000310833333,42.27944624166666,62.0,112.0
136,41.46000310833333,42.30896008333333,67.0,104.0
137,42.29333510833333,42.869723074999996,62.0,106.0
138,42.29333510833333,43.00687563333333,58.0,91.0
139,43.12666710833333,43.60236079166666,65.0,109.0
140,43.12666710833333,43.650971825,62.0,106.0
141,43.54333310833333,43.86277704166667,58.0,65.0
142,42.71000110833333,44.269026391666664,53.0,94.0
143,43.95999910833333,44.53465096666667,65.0,104.0
144,43.95999910833333,44.53812318333333,62.0,112.0
145,43.95999910833333,44.61103973333333,58.0,91.0
146,44.376665108333334,44.900969825,53.0,85.0
147,44.793331108333334,44.93916420833333,62.0,106.0
148,44.793331108333334,44.9582614,58.0,110.0
149,42.29333510833333,44.98256691666666,46.0,68.0
150,44.793331108333334,45.057219575,65.0,106.0
151,45.62666310833333,46.015551375,58.0,93.0
152,45.62666310833333,46.078051275,63.0,93.0
153,45.62666310833333,46.13187063333333,55.0,99.0
154,45.62666310833333,46.24645378333333,39.0,110.0
155,46.04332910833333,46.36103693333333,46.0,37.0
156,46.45999510833333,46.890549975,58.0,113.0
157,46.87666110833333,46.98082760833333,55.0,94.0
158,46.45999510833333,46.984299825,63.0,110.0
159,47.29332710833333,47.531173949999996,57.0,85.0
160,47.29332710833333,47.85235399166667,62.0,99.0
161,47.29332710833333,47.86797896666666,65.0,101.0
162,47.70999310833333,47.9374233,57.0,99.0
163,47.29332710833333,48.223881174999995,50.0,101.0
164,48.12665910833333,48.28290885833333,62.0,109.0
165,48.12665910833333,48.328047675,57.0,109.0
166,48.12665910833333,48.36276984166666,65.0,104.0
167,48.959991108333334,49.21693514166667,55.0,94.0
168,48.959991108333334,49.4374209,58.0,83.0
169,48.959991108333334,49.55200405,63.0,101.0
170,49.37665710833333,49.713462125,55.0,91.0
171,48.959991108333334,49.873184091666666,39.0,99.0
172,49.79332310833333,50.213461325,58.0,120.0
173,50.20998910833333,50.328044475,55.0,91.0
174,49.79332310833333,50.400961025,63.0,110.0
175,50.62665510833333,50.86102973333333,57.0,101.0
176,50.62665510833333,51.18394588333333,63.0,99.0
177,50.62665510833333,51.24297356666666,60.0,99.0
178,51.04332110833333,51.275959625,57.0,96.0
179,51.45998710833333,51.70998670833333,57.0,112.0
180,51.45998710833333,51.739500549999995,60.0,109.0
181,51.45998710833333,51.75859774166666,63.0,113.0
182,50.62665510833333,51.80026434166666,45.0,101.0
183,52.29331910833333,52.37838841666667,38.0,106.0
184,52.29331910833333,52.609290824999995,57.0,104.0
185,52.29331910833333,52.66831850833333,62.0,106.0
186,52.29331910833333,52.78116555,66.0,99.0
187,53.33498410833333,53.656164149999995,60.0,112.0
188,53.126651108333334,53.722136266666666,57.0,118.0
189,52.70998510833333,53.765538975,50.0,104.0
190,53.54331710833333,53.784636166666665,66.0,120.0
191,53.75165010833333,53.847136066666664,69.0,104.0
192,53.95998310833333,54.317621425,69.0,112.0
193,53.95998310833333,54.32282975,66.0,117.0
194,53.95998310833333,54.36623245833333,62.0,99.0
195,53.95998310833333,54.38359354166666,50.0,109.0
196,53.95998310833333,54.43046846666667,57.0,109.0
197,54.58498210833333,54.828037275,62.0,78.0
198,54.79331510833333,54.96518983333333,74.0,112.0
199,54.79331510833333,55.13185623333333,50.0,106.0
200,55.00164810833333,55.20477278333333,62.0,112.0
201,55.20998110833333,55.453036274999995,72.0,109.0
202,55.20998110833333,55.4790779,48.0,101.0
203,55.418314108333334,55.5207445,62.0,99.0
204,55.62664710833333,56.069354733333334,55.0,96.0
205,55.62664710833333,56.078035275,58.0,107.0
206,55.62664710833333,56.078035275,62.0,104.0
207,56.04331310833333,56.640534374999994,50.0,80.0
208,55.62664710833333,56.73775644166666,43.0,101.0
209,56.45997910833333,56.888797866666664,58.0,120.0
210,56.45997910833333,56.916575599999994,62.0,106.0
211,56.87664510833333,56.99122825833333,55.0,106.0
212,57.29331110833333,57.519005191666665,57.0,104.0
213,57.29331110833333,57.80372695833333,62.0,106.0
214,57.29331110833333,57.84192134166666,65.0,106.0
215,57.709977108333334,57.87837961666666,57.0,85.0
216,57.29331110833333,58.262059558333334,50.0,104.0
217,58.12664310833333,58.289837291666664,62.0,109.0
218,58.12664310833333,58.331503891666664,57.0,109.0
219,58.12664310833333,58.37837881666666,65.0,106.0
220,58.95997510833333,59.48080760833333,58.0,96.0
221,58.95997510833333,59.520738099999996,63.0,96.0
222,59.37664110833333,59.612751841666665,55.0,89.0
223,58.95997510833333,59.82455705833333,39.0,86.0
224,59.79330710833333,59.94782075,55.0,106.0
225,59.79330710833333,60.123167691666666,58.0,120.0
226,59.79330710833333,60.176987049999994,63.0,110.0
227,60.62663910833333,60.80198605,57.0,87.0
228,60.62663910833333,61.07976338333333,62.0,104.0
229,60.62663910833333,61.182193774999995,65.0,106.0
230,61.04330510833333,61.30545746666667,57.0,94.0
231,61.45997110833333,61.6040681,57.0,112.0
232,61.45997110833333,61.699554058333334,62.0,112.0
233,60.62663910833333,61.763790066666665,50.0,99.0
234,61.45997110833333,61.90962316666666,65.0,109.0
235,61.876637108333334,61.973859174999994,57.0,94.0
236,62.29330310833333,62.534622166666665,55.0,96.0
237,62.29330310833333,62.80371895833333,60.0,94.0
238,62.29330310833333,62.8540661,63.0,96.0
239,62.70996910833333,62.90441324166667,55.0,76.0
240,63.12663510833333,63.255107124999995,55.0,104.0
241,62.29330310833333,63.341912541666666,48.0,96.0
242,63.12663510833333,63.59017603333333,63.0,107.0
243,63.12663510833333,63.61621765833333,60.0,106.0
244,63.54330110833333,63.65441204166667,55.0,94.0
245,63.95996710833333,64.15961956666666,57.0,104.0
246,63.95996710833333,64.4582302,62.0,106.0
247,63.95996710833333,64.51204955833333,65.0,104.0
248,64.37663310833334,64.63184103333333,57.0,87.0
249,63.95996710833333,64.96170161666666,50.0,99.0
250,64.79329910833333,65.00336821666666,62.0,112.0
251,64.79329910833333,65.21170121666667,57.0,109.0
252,64.79329910833333,65.47906189999999,65.0,106.0
253,65.62663110833333,66.18044966666666,58.0,101.0
254,65.62663110833333,66.26378286666666,63.0,101.0
255,66.04329710833333,66.28461616666667,55.0,80.0
256,65.62663110833333,66.47558808333334,39.0,68.0
257,66.45996310833333,66.90440684166667,58.0,117.0
258,66.45996310833333,66.963434525,63.0,117.0
259,66.87662910833333,67.00162890833333,55.0,101.0
260,67.29329510833333,67.36447555,38.0,109.0
261,67.29329510833333,67.52419751666666,57.0,109.0
262,67.29329510833333,67.55023914166667,62.0,112.0
263,67.29329510833333,67.65266953333332,66.0,117.0
264,67.70996110833333,67.79850263333333,50.0,101.0
265,68.12662710833332,68.39919611666666,62.0,121.0
266,68.33496010833333,68.42697385,66.0,123.0
267,68.54329310833333,68.70475118333333,62.0,112.0
268,68.54329310833333,68.73773724166666,66.0,120.0
269,67.91829410833333,68.78808438333333,57.0,115.0
270,68.54329310833333,68.828014875,69.0,109.0
271,68.75162610833333,68.87488979999999,74.0,104.0
272,67.91829410833333,68.89919531666666,50.0,56.0
273,68.95995910833334,69.40266673333333,55.0,96.0
274,68.95995910833334,69.411347275,58.0,107.0
275,68.95995910833334,69.411347275,62.0,104.0
276,69.37662510833333,69.973846375,50.0,80.0
277,68.95995910833334,70.07106844166667,43.0,101.0
278,69.79329110833334,70.22210986666667,58.0,120.0
279,69.79329110833334,70.2498876,62.0,106.0
280,70.20995710833333,70.32454025833333,55.0,106.0
281,70.62662310833333,70.85231719166666,57.0,104.0
282,70.62662310833333,71.13703895833333,62.0,106.0
283,70.62662310833333,71.17523334166667,65.0,106.0
284,71.04328910833333,71.21169161666667,57.0,85.0
285,70.62662310833333,71.59537155833333,50.0,104.0
286,71.45995510833333,71.62314929166666,62.0,109.0
287,71.45995510833333,71.66481589166666,57.0,109.0
288,71.45995510833333,71.71169081666666,65.0,106.0
289,72.29328710833333,72.81411960833333,58.0,96.0
290,72.29328710833333,72.8540501,63.0,96.0
291,72.70995310833332,72.94606384166666,55.0,89.0
292,72.29328710833333,73.15786905833333,39.0,86.0
293,73.12661910833333,73.28113275,55.0,106.0
294,73.12661910833333,73.45647969166666,58.0,120.0
295,73.12661910833333,73.51029905,63.0,110.0
296,73.95995110833333,74.13529805,57.0,87.0
297,73.95995110833333,74.41307538333334,62.0,104.0
298,73.95995110833333,74.515505775,65.0,106.0
299,74.37661710833333,74.63876946666666,57.0,94.0
300,74.79328310833333,74.9373801,57.0,112.0
301,74.79328310833333,75.03286605833333,62.0,112.0
302,73.95995110833333,75.09710206666666,50.0,99.0
303,74.79328310833333,75.24293516666667,65.0,109.0
304,75.20994910833333,75.307171175,57.0,94.0
305,75.62661510833333,75.86793416666666,55.0,96.0
306,75.62661510833333,76.13703095833333,60.0,94.0
307,75.62661510833333,76.18737809999999,63.0,96.0
308,76.04328110833333,76.23772524166667,55.0,76.0
309,76.45994710833332,76.588419125,55.0,104.0
310,75.62661510833333,76.67522454166667,48.0,96.0
311,76.45994710833332,76.92348803333333,63.0,107.0
312,76.45994710833332,76.94952965833333,60.0,106.0
313,76.87661310833333,76.98772404166667,55.0,94.0
314,77.29327910833332,77.79501441666666,58.0,99.0
315,77.29327910833332,77.86445875,62.0,106.0
316,77.70994510833333,78.20126376666666,50.0,85.0
317,77.29327910833332,78.61445755,43.0,106.0
318,78.12661110833334,78.93390148333333,58.0,113.0
319,78.12661110833334,78.93910980833333,67.0,101.0
320,78.12661110833334,78.95647089166667,62.0,112.0
321,78.54327710833333,78.95994310833333,55.0,109.0
322,78.95994310833333,79.51376166666667,58.0,101.0
323,78.95994310833333,79.59709486666667,63.0,101.0
324,79.37660910833333,79.61792816666666,55.0,80.0
325,78.95994310833333,79.80890008333333,39.0,68.0
326,79.79327510833333,80.23771884166666,58.0,117.0
327,79.79327510833333,80.296746525,63.0,117.0
328,80.20994110833333,80.33494090833332,55.0,101.0
329,80.62660710833333,80.71514863333333,38.0,106.0
330,80.62660710833333,80.94952325833333,57.0,96.0
331,80.62660710833333,80.95646769166666,62.0,101.0
332,80.62660710833333,81.10577300833333,66.0,93.0
333,80.63355154166666,81.11271744166666,72.0,93.0
334,81.25160610833333,81.64396659166667,57.0,96.0
335,81.04327310833332,81.71341092499999,50.0,96.0
336,81.484244625,82.06931313333332,66.0,117.0
337,81.48077240833332,82.14743800833332,72.0,104.0
338,81.45993910833333,82.22382677499999,62.0,115.0
339,82.29327110833333,82.7498676,62.0,104.0
340,82.29327110833333,82.79847863333333,67.0,104.0
341,82.70993710833334,83.17695024999999,50.0,67.0
342,83.12660310833333,83.33667221666666,62.0,106.0
343,83.12660310833333,83.36792216666666,67.0,104.0
344,83.12660310833333,83.36792216666666,70.0,113.0
345,82.29327110833333,83.65958836666667,43.0,104.0
346,83.95993510833333,85.11618325833334,43.0,101.0
347,83.95993510833333,85.13354434166666,55.0,89.0
348,83.95993510833333,85.14916931666666,58.0,74.0
349,83.95993510833333,85.20472478333333,62.0,101.0
350,85.62659910833332,85.93736249999999,55.0,91.0
351,85.62659910833332,86.19083431666667,58.0,93.0
352,85.62659910833332,86.249862,63.0,99.0
353,85.62659910833332,86.45645889166666,39.0,88.0
354,86.45993110833334,86.85576380833334,58.0,117.0
355,86.45993110833334,86.92347203333333,63.0,107.0
356,86.87659710833333,86.95124976666666,55.0,91.0
357,87.29326310833333,87.577984875,57.0,96.0
358,87.29326310833333,87.75680403333332,60.0,91.0
359,87.70992910833333,88.01374806666666,57.0,91.0
360,87.29326310833333,88.23249771666666,41.0,104.0
361,88.12659510833333,88.567566625,60.0,109.0
362,88.54326110833333,88.64742760833333,57.0,104.0
363,88.12659510833333,88.67867755833333,65.0,104.0
364,88.95992710833333,89.13701015833333,57.0,89.0
365,88.95992710833333,89.53110674999999,62.0,96.0
366,89.37659310833332,89.66999541666667,57.0,96.0
367,89.79325910833333,89.94950885833333,57.0,112.0
368,89.79325910833333,90.077980875,62.0,112.0
369,88.95992710833333,90.08666141666666,50.0,101.0
370,89.79325910833333,90.2915222,65.0,106.0
371,90.62659110833333,91.10575700833333,58.0,86.0
372,90.62659110833333,91.19082631666666,62.0,96.0
373,91.04325710833334,91.40263153333333,50.0,61.0
374,91.45992310833333,91.7706865,58.0,120.0
375,90.62659110833333,91.84707526666666,43.0,96.0
376,91.45992310833333,91.859228025,67.0,96.0
377,91.66825610833332,91.92520014166666,50.0,89.0
378,91.45992310833333,91.98596393333332,62.0,109.0
379,91.87658910833333,92.14394979166666,55.0,104.0
380,92.29325510833333,92.59360185,55.0,96.0
381,92.29325510833333,92.81929593333332,58.0,104.0
382,92.29325510833333,93.18561479166667,39.0,99.0
383,92.70992110833333,93.22728139166666,46.0,68.0
384,93.12658710833333,93.55193365,58.0,117.0
385,93.12658710833333,93.62311409166666,63.0,107.0
386,93.54325310833333,93.6248502,55.0,106.0
387,93.95991910833332,94.16304378333334,57.0,101.0
388,93.95991910833332,94.43387668333332,62.0,106.0
389,93.95991910833332,94.48595993333333,65.0,104.0
390,94.37658510833333,94.62137638333333,57.0,96.0
391,93.95991910833332,94.73595953333333,38.0,104.0
392,94.79325110833332,95.00332021666667,57.0,112.0
393,94.79325110833332,95.005056325,62.0,112.0
394,94.79325110833332,95.09533395833333,65.0,106.0
395,95.62658310833334,95.81234669999999,55.0,96.0
396,95.62658310833334,96.15262393333333,60.0,96.0
397,95.62658310833334,96.25679043333334,63.0,91.0
398,96.04324910833333,96.26026265,55.0,76.0
399,96.45991510833333,96.62137318333333,55.0,106.0
400,95.62658310833334,96.734220225,48.0,104.0
401,96.45991510833333,96.859220025,60.0,106.0
402,96.87658110833333,97.09706686666667,55.0,99.0
403,96.45991510833333,97.13178903333333,63.0,110.0
404,97.08491410833332,97.19949725833332,60.0,85.0
405,97.29324710833333,97.75157970833332,60.0,106.0
406,97.29324710833333,97.79845463333334,63.0,93.0
407,97.29324710833333,97.94602384166666,56.0,110.0
408,97.29324710833333,98.202967875,44.0,110.0
409,97.70991310833332,98.34012043333333,51.0,88.0
410,98.12657910833333,98.34012043333333,60.0,101.0
411,98.12657910833333,98.35053708333334,56.0,110.0
412,98.12657910833333,98.3956759,63.0,113.0
413,98.54324510833332,98.61268944166666,44.0,117.0
414,98.95991110833333,99.23595233333333,57.0,101.0
415,98.95991110833333,99.44775754999999,60.0,99.0
416,98.95991110833333,99.45122976666666,65.0,104.0
417,99.37657710833332,99.63525725,57.0,94.0
418,99.79324310833333,99.92692344999999,57.0,109.0
419,99.79324310833333,100.05192325,65.0,106.0
420,100.00157610833332,100.24463127499999,60.0,101.0
421,98.95991110833333,100.296714525,41.0,104.0
422,100.20990910833333,100.40782545833333,57.0,94.0
423,100.62657510833333,102.06928113333333,41.0,96.0
424,100.62657510833333,102.07969778333333,60.0,89.0
425,100.41824210833333,102.09185054166666,65.0,104.0
426,100.62657510833333,102.10053108333332,57.0,101.0
427,102.29323910833332,102.61268304166666,55.0,89.0
428,102.29323910833332,102.72900229999999,58.0,83.0
429,102.29323910833332,102.78282165833333,62.0,101.0
430,103.12657110833332,103.35747351666666,62.0,106.0
431,103.12657110833332,103.38177903333333,58.0,110.0
432,103.95990310833332,104.28108315,62.0,96.0
433,103.95990310833332,104.30365255833333,58.0,88.0
434,102.29323910833332,104.95469318333333,43.0,99.0
435,104.37656910833333,104.95990150833333,50.0,40.0
436,104.79323510833333,104.97726259166666,58.0,117.0
437,104.79323510833333,105.08663741666666,62.0,109.0
438,105.20990110833333,105.36094253333333,45.0,94.0
439,105.62656710833333,106.19948285833333,62.0,99.0
440,105.62656710833333,106.2706633,58.0,88.0
441,105.62656710833333,106.31580211666666,53.0,94.0
442,106.45989910833333,106.59357945,58.0,113.0
443,106.45989910833333,106.64219048333332,62.0,101.0
444,107.29323110833333,107.66823050833332,58.0,104.0
445,107.29323110833333,107.70295267499999,62.0,101.0
446,108.12656310833333,108.26197955833332,58.0,120.0
447,105.62656710833333,108.30538226666665,46.0,113.0
448,108.12656310833333,108.32274335,62.0,104.0
449,108.95989510833333,109.52933864166666,55.0,78.0
450,108.95989510833333,109.55190805,58.0,93.0
451,108.95989510833333,109.60919962499999,63.0,101.0
452,108.95989510833333,109.77239380833333,39.0,104.0
453,109.79322710833333,109.92343523333332,58.0,117.0
454,109.79322710833333,109.95468518333332,63.0,117.0
455,110.62655910833332,110.81579491666666,57.0,89.0
456,110.62655910833332,111.06753062499999,60.0,96.0
457,110.62655910833332,111.10225279166666,65.0,101.0
458,111.04322510833333,111.29843303333332,57.0,80.0
459,110.62655910833332,111.546696525,41.0,101.0
460,111.45989110833332,111.65607134999999,60.0,106.0
461,111.45989110833332,111.69947405833332,57.0,109.0
462,111.45989110833332,111.72551568333333,65.0,104.0
463,112.29322310833332,112.80190284999999,60.0,101.0
464,112.29322310833332,112.90259713333333,57.0,104.0
465,112.29322310833332,112.99461087499999,45.0,106.0
466,113.12655510833333,113.46162401666666,62.0,106.0
467,113.12655510833333,113.46162401666666,66.0,96.0
468,113.12655510833333,113.51023504999999,57.0,101.0
469,113.12655510833333,113.57099884166666,50.0,106.0
470,113.95988710833333,114.40780305833333,62.0,82.0
471,113.95988710833333,114.43905300833333,58.0,96.0
472,113.95988710833333,114.49634458333333,55.0,89.0
473,114.37655310833333,114.92863555833333,50.0,69.0
474,113.95988710833333,115.18557959166667,43.0,106.0
475,115.20988510833332,115.58662061666666,55.0,104.0
476,114.79321910833333,115.59009283333333,58.0,117.0
477,114.79321910833333,115.61266224166665,62.0,112.0
478,114.79321910833333,115.64217608333333,67.0,104.0
479,115.62655110833333,116.20293907499999,62.0,106.0
480,115.62655110833333,116.34009163333333,58.0,91.0
481,116.45988310833333,116.93557679166666,65.0,109.0
482,116.45988310833333,116.98418782499999,62.0,106.0
483,116.87654910833332,117.19599304166667,58.0,65.0
484,116.04321710833332,117.60224239166666,53.0,94.0
485,117.29321510833333,117.86786696666667,65.0,104.0
486,117.29321510833333,117.87133918333333,62.0,112.0
487,117.29321510833333,117.94425573333332,58.0,91.0
488,117.70988110833333,118.234185825,53.0,85.0
489,118.12654710833333,118.27238020833333,62.0,106.0
490,118.12654710833333,118.29147739999999,58.0,110.0
491,115.62655110833333,118.31578291666666,46.0,68.0
492,118.12654710833333,118.390435575,65.0,106.0
493,118.95987910833333,119.348767375,58.0,93.0
494,118.95987910833333,119.411267275,63.0,93.0
495,118.95987910833333,119.46508663333333,55.0,99.0
496,118.95987910833333,119.57966978333333,39.0,110.0
497,119.37654510833333,119.69425293333333,46.0,37.0
498,119.79321110833332,120.22376597499999,58.0,113.0
499,120.20987710833333,120.31404360833332,55.0,94.0
500,119.79321110833332,120.317515825,63.0,110.0
501,120.62654310833332,120.86438994999999,57.0,85.0
502,120.62654310833332,121.18556999166667,62.0,99.0
503,120.62654310833332,121.20119496666666,65.0,101.0
504,121.04320910833333,121.2706393,57.0,99.0
505,120.62654310833332,121.557097175,50.0,101.0
506,121.45987510833332,121.61612485833332,62.0,109.0
507,121.45987510833332,121.661263675,57.0,109.0
508,121.45987510833332,121.69598584166665,65.0,104.0
509,122.29320710833333,122.55015114166666,55.0,94.0
510,122.29320710833333,122.7706369,58.0,83.0
511,122.29320710833333,122.88522005,63.0,101.0
512,122.70987310833333,123.046678125,55.0,91.0
513,122.29320710833333,123.20640009166667,39.0,99.0
514,123.12653910833333,123.54667732499999,58.0,120.0
515,123.54320510833332,123.66126047499999,55.0,91.0
516,123.12653910833333,123.734177025,63.0,110.0
517,123.95987110833333,124.19424573333333,57.0,101.0
518,123.95987110833333,124.51716188333333,63.0,99.0
519,123.95987110833333,124.57618956666666,60.0,99.0
520,124.37653710833332,124.60917562499999,57.0,96.0
521,124.79320310833333,125.04320270833333,57.0,112.0
522,124.79320310833333,125.07271655,60.0,109.0
523,124.79320310833333,125.09181374166666,63.0,113.0
524,123.95987110833333,125.13348034166665,45.0,101.0
525,125.62653510833333,125.71160441666666,38.0,106.0
526,125.62653510833333,125.942506825,57.0,104.0
527,125.62653510833333,126.00153450833332,62.0,106.0
528,125.62653510833333,126.11438154999999,66.0,99.0
529,126.66820010833332,126.98938014999999,60.0,112.0
530,126.45986710833333,127.05535226666666,57.0,118.0
531,126.04320110833332,127.09875497499999,50.0,104.0
532,126.87653310833333,127.11785216666667,66.0,120.0
533,127.08486610833333,127.18035206666666,69.0,104.0
534,127.29319910833333,127.65083742499999,69.0,112.0
535,127.29319910833333,127.65604574999999,66.0,117.0
536,127.29319910833333,127.69944845833332,62.0,99.0
537,127.29319910833333,127.71680954166666,50.0,109.0
538,127.29319910833333,127.76368446666666,57.0,109.0
539,127.91819810833333,128.161253275,62.0,78.0
540,128.12653110833332,128.29840583333333,74.0,112.0
541,128.12653110833332,128.46507223333333,50.0,106.0
542,128.33486410833333,128.53798878333333,62.0,112.0
543,128.54319710833332,128.78625227499998,72.0,109.0
544,128.54319710833332,128.8122939,48.0,101.0
545,128.75153010833333,128.8539605,62.0,99.0
546,128.95986310833334,129.40257073333333,55.0,96.0
547,128.95986310833334,129.41125127499998,58.0,107.0
548,128.95986310833334,129.41125127499998,62.0,104.0
549,129.37652910833333,129.97375037499998,50.0,80.0
550,128.95986310833334,130.07097244166667,43.0,101.0
551,129.79319510833332,130.22201386666666,58.0,120.0
552,129.79319510833332,130.24979159999998,62.0,106.0
553,130.2098611083333,130.32444425833333,55.0,106.0
554,130.62652710833333,130.85222119166667,57.0,104.0
555,130.62652710833333,131.13694295833332,62.0,106.0
556,130.62652710833333,131.17513734166667,65.0,106.0
557,131.04319310833333,131.21159561666667,57.0,85.0
558,130.62652710833333,131.59527555833333,50.0,104.0
559,131.45985910833332,131.62305329166665,62.0,109.0
560,131.45985910833332,131.66471989166666,57.0,109.0
561,131.45985910833332,131.71159481666666,65.0,106.0
562,132.29319110833333,132.81402360833331,58.0,96.0
563,132.29319110833333,132.85395409999998,63.0,96.0
564,132.70985710833332,132.94596784166666,55.0,89.0
565,132.29319110833333,133.15777305833333,39.0,86.0
566,133.12652310833332,133.28103675,55.0,106.0
567,133.12652310833332,133.45638369166667,58.0,120.0
568,133.12652310833332,133.51020305,63.0,110.0
569,133.95985510833333,134.13520205,57.0,87.0
570,133.95985510833333,134.41297938333332,62.0,104.0
571,133.95985510833333,134.515409775,65.0,106.0
572,134.37652110833332,134.63867346666666,57.0,94.0
573,134.7931871083333,134.9372841,57.0,112.0
574,134.7931871083333,135.03277005833334,62.0,112.0
575,133.95985510833333,135.09700606666667,50.0,99.0
576,134.7931871083333,135.24283916666667,65.0,109.0
577,135.20985310833333,135.307075175,57.0,94.0
578,135.62651910833333,135.86783816666667,55.0,96.0
579,135.62651910833333,136.1369349583333,60.0,94.0
580,135.62651910833333,136.1872821,63.0,96.0
581,136.04318510833332,136.23762924166667,55.0,76.0
582,136.45985110833334,136.588323125,55.0,104.0
583,135.62651910833333,136.67512854166665,48.0,96.0
584,136.45985110833334,136.92339203333333,63.0,107.0
585,136.45985110833334,136.94943365833333,60.0,106.0
586,136.87651710833333,136.98762804166665,55.0,94.0
587,137.29318310833332,137.49283556666666,57.0,104.0
588,137.29318310833332,137.7914462,62.0,106.0
589,137.29318310833332,137.84526555833332,65.0,104.0
590,137.70984910833332,137.96505703333332,57.0,87.0
591,137.29318310833332,138.29491761666665,50.0,99.0
592,138.12651510833334,138.33658421666667,62.0,112.0
593,138.12651510833334,138.54491721666665,57.0,109.0
594,138.12651510833334,138.8122779,65.0,106.0
595,138.95984710833332,139.51366566666667,58.0,101.0
596,138.95984710833332,139.59699886666667,63.0,101.0
597,139.3765131083333,139.61783216666666,55.0,80.0
598,138.95984710833332,139.8088040833333,39.0,68.0
599,139.79317910833333,140.23762284166665,58.0,117.0
600,139.79317910833333,140.296650525,63.0,117.0
601,140.20984510833333,140.33484490833334,55.0,101.0
602,140.62651110833332,140.69769155,38.0,109.0
603,140.62651110833332,140.85741351666667,57.0,109.0
604,140.62651110833332,140.88345514166667,62.0,112.0
605,140.62651110833332,140.98588553333332,66.0,117.0
606,141.04317710833334,141.13171863333332,50.0,101.0
607,141.45984310833333,141.73241211666667,62.0,121.0
608,141.6681761083333,141.76018985,66.0,123.0
609,141.87650910833332,142.03796718333334,62.0,112.0
610,141.87650910833332,142.07095324166667,66.0,120.0
611,141.25151010833332,142.12130038333333,57.0,115.0
612,141.87650910833332,142.161230875,69.0,109.0
613,142.08484210833333,142.2081058,74.0,104.0
614,141.25151010833332,142.23241131666666,50.0,56.0
615,142.29317510833332,142.73588273333334,55.0,96.0
616,142.29317510833332,142.744563275,58.0,107.0
617,142.29317510833332,142.744563275,62.0,104.0
618,142.70984110833334,143.307062375,50.0,80.0
619,142.29317510833332,143.40428444166665,43.0,101.0
620,143.12650710833333,143.55532586666666,58.0,120.0
621,143.12650710833333,143.5831036,62.0,106.0
622,143.54317310833332,143.65775625833334,55.0,106.0
623,143.9598391083333,144.18553319166665,57.0,104.0
624,143.9598391083333,144.47025495833333,62.0,106.0
625,143.9598391083333,144.50844934166665,65.0,106.0
626,144.37650510833333,144.54490761666665,57.0,85.0
627,143.9598391083333,144.92858755833333,50.0,104.0
628,144.79317110833333,144.95636529166666,62.0,109.0
629,144.79317110833333,144.99803189166667,57.0,109.0
630,144.79317110833333,145.04490681666667,65.0,106.0
631,145.62650310833334,146.14733560833332,58.0,96.0
632,145.62650310833334,146.1872661,63.0,96.0
633,146.04316910833333,146.27927984166666,55.0,89.0
634,145.62650310833334,146.49108505833334,39.0,86.0
635,146.45983510833332,146.61434875,55.0,106.0
636,146.45983510833332,146.78969569166665,58.0,120.0
637,146.45983510833332,146.84351504999998,63.0,110.0
638,147.29316710833334,147.46851404999998,57.0,87.0
639,147.29316710833334,147.74629138333333,62.0,104.0
640,147.29316710833334,147.848721775,65.0,106.0
641,147.70983310833333,147.97198546666667,57.0,94.0
642,148.12649910833332,148.2705961,57.0,112.0
643,148.12649910833332,148.36608205833332,62.0,112.0
644,147.29316710833334,148.43031806666667,50.0,99.0
645,148.12649910833332,148.57615116666665,65.0,109.0
646,148.54316510833334,148.640387175,57.0,94.0
647,148.95983110833333,149.20115016666665,55.0,96.0
648,148.95983110833333,149.47024695833332,60.0,94.0
649,148.95983110833333,149.52059409999998,63.0,96.0
650,149.37649710833333,149.57094124166667,55.0,76.0
651,149.79316310833332,149.921635125,55.0,104.0
652,148.95983110833333,150.00844054166666,48.0,96.0
653,149.79316310833332,150.25670403333334,63.0,107.0
654,149.79316310833332,150.28274565833334,60.0,106.0
655,150.20982910833334,150.32094004166666,55.0,94.0
656,150.62649510833333,151.12823041666667,58.0,99.0
657,150.62649510833333,151.19767475,62.0,106.0
658,151.04316110833332,151.53447976666666,50.0,85.0
659,150.62649510833333,151.94767355,43.0,106.0
660,151.45982710833331,152.26711748333332,58.0,113.0
661,151.45982710833331,152.27232580833333,67.0,101.0
662,151.45982710833331,152.28968689166666,62.0,112.0
663,151.87649310833334,152.29315910833333,55.0,109.0
664,152.29315910833333,152.84697766666665,58.0,101.0
665,152.29315910833333,152.93031086666667,63.0,101.0
666,152.70982510833332,152.95114416666667,55.0,80.0
667,152.29315910833333,153.14211608333332,39.0,68.0
668,153.12649110833334,153.57093484166666,58.0,117.0
669,153.12649110833334,153.629962525,63.0,117.0
670,153.54315710833333,153.66815690833332,55.0,101.0
671,153.95982310833332,154.04836463333334,38.0,106.0
672,153.95982310833332,154.28273925833332,57.0,96.0
673,153.95982310833332,154.28968369166665,62.0,101.0
674,153.95982310833332,154.43898900833332,66.0,93.0
675,154.58482210833333,154.97718259166666,57.0,96.0
676,154.37648910833332,155.046626925,50.0,96.0
677,154.79315510833334,155.182043375,62.0,115.0
678,155.00148810833332,155.21155721666665,66.0,117.0
679,155.20982110833333,155.50148730833334,69.0,104.0
680,155.62648710833332,156.08308359999998,62.0,104.0
681,155.62648710833332,156.13169463333332,67.0,104.0
682,156.0431531083333,156.51016625,50.0,67.0
683,156.45981910833333,156.66988821666666,62.0,106.0
684,156.45981910833333,156.70113816666665,67.0,104.0
685,156.45981910833333,156.70113816666665,70.0,113.0
686,155.62648710833332,156.99280436666666,43.0,104.0
687,157.29315110833332,158.44939925833333,43.0,101.0
688,157.29315110833332,158.46676034166666,55.0,89.0
689,157.29315110833332,158.48238531666667,58.0,74.0
690,157.29315110833332,158.5379407833333,62.0,101.0
691,158.95981510833332,159.4025227333333,55.0,96.0
692,158.95981510833332,159.411203275,58.0,107.0
693,158.95981510833332,159.411203275,62.0,104.0
694,159.37648110833334,159.973702375,50.0,80.0
695,158.95981510833332,160.07092444166665,43.0,101.0
696,159.79314710833333,160.22196586666666,58.0,120.0
697,159.79314710833333,160.2497436,62.0,106.0
698,160.20981310833332,160.32439625833334,55.0,106.0
699,160.6264791083333,160.85217319166665,57.0,104.0
700,160.6264791083333,161.13689495833333,62.0,106.0
701,160.6264791083333,161.17508934166665,65.0,106.0
702,161.04314510833333,161.21154761666665,57.0,85.0
703,160.6264791083333,161.59522755833333,50.0,104.0
704,161.45981110833333,161.62300529166666,62.0,109.0
705,161.45981110833333,161.66467189166667,57.0,109.0
706,161.45981110833333,161.71154681666667,65.0,106.0
707,162.29314310833334,162.81397560833332,58.0,96.0
708,162.29314310833334,162.8539061,63.0,96.0
709,162.70980910833333,162.94591984166667,55.0,89.0
710,162.29314310833334,163.1577250583333,39.0,86.0
711,163.12647510833332,163.28098875,55.0,106.0
712,163.12647510833332,163.45633569166665,58.0,120.0
713,163.12647510833332,163.51015504999998,63.0,110.0
714,163.95980710833334,164.13515404999998,57.0,87.0
715,163.95980710833334,164.41293138333333,62.0,104.0
716,163.95980710833334,164.515361775,65.0,106.0
717,164.37647310833333,164.63862546666667,57.0,94.0
718,164.79313910833332,164.93723609999998,57.0,112.0
719,164.79313910833332,165.03272205833332,62.0,112.0
720,163.95980710833334,165.09695806666667,50.0,99.0
721,164.79313910833332,165.24279116666665,65.0,109.0
722,165.2098051083333,165.307027175,57.0,94.0
723,165.62647110833333,165.86779016666665,55.0,96.0
724,165.62647110833333,166.13688695833332,60.0,94.0
725,165.62647110833333,166.18723409999998,63.0,96.0
726,166.04313710833333,166.23758124166665,55.0,76.0
727,166.45980310833332,166.588275125,55.0,104.0
728,165.62647110833333,166.67508054166666,48.0,96.0
729,166.45980310833332,166.92334403333334,63.0,107.0
730,166.45980310833332,166.9493856583333,60.0,106.0
731,166.87646910833334,166.98758004166666,55.0,94.0
732,167.29313510833333,167.49278756666666,57.0,104.0
733,167.29313510833333,167.7913982,62.0,106.0
734,167.29313510833333,167.84521755833333,65.0,104.0
735,167.70980110833332,167.96500903333333,57.0,87.0
736,167.29313510833333,168.29486961666666,50.0,99.0
737,168.12646710833332,168.33653621666667,62.0,112.0
738,168.12646710833332,168.54486921666665,57.0,109.0
739,168.12646710833332,168.8122299,65.0,106.0
740,168.95979910833333,169.51361766666665,58.0,101.0
741,168.95979910833333,169.59695086666665,63.0,101.0
742,169.37646510833332,169.61778416666667,55.0,80.0
743,168.95979910833333,169.80875608333332,39.0,68.0
744,169.7931311083333,170.23757484166666,58.0,117.0
745,169.7931311083333,170.296602525,63.0,117.0
746,170.20979710833333,170.33479690833332,55.0,101.0
747,170.62646310833333,170.69764354999998,38.0,109.0
748,170.62646310833333,170.85736551666665,57.0,109.0
749,170.62646310833333,170.88340714166665,62.0,112.0
750,170.62646310833333,170.98583753333332,66.0,117.0
751,171.04312910833332,171.13167063333333,50.0,101.0
752,171.45979510833334,171.73236411666664,62.0,121.0
753,171.66812810833332,171.76014185,66.0,123.0
754,171.87646110833333,172.03791918333332,62.0,112.0
755,171.87646110833333,172.07090524166665,66.0,120.0
756,171.25146210833333,172.1212523833333,57.0,115.0
757,171.87646110833333,172.16118287499998,69.0,109.0
758,172.0847941083333,172.2080578,74.0,104.0
759,171.25146210833333,172.23236331666666,50.0,56.0
760,172.29312710833332,172.73583473333332,55.0,96.0
761,172.29312710833332,172.744515275,58.0,107.0
762,172.29312710833332,172.744515275,62.0,104.0
763,172.70979310833332,173.307014375,50.0,80.0
764,172.29312710833332,173.40423644166665,43.0,101.0
765,173.12645910833334,173.55527786666667,58.0,120.0
766,173.12645910833334,173.5830556,62.0,106.0
767,173.54312510833333,173.65770825833332,55.0,106.0
768,173.95979110833332,174.18548519166666,57.0,104.0
769,173.95979110833332,174.47020695833334,62.0,106.0
770,173.95979110833332,174.50840134166666,65.0,106.0
771,174.3764571083333,174.54485961666666,57.0,85.0
772,173.95979110833332,174.9285395583333,50.0,104.0
773,174.79312310833333,174.95631729166666,62.0,109.0
774,174.79312310833333,174.99798389166665,57.0,109.0
775,174.79312310833333,175.04485881666665,65.0,106.0
776,175.62645510833332,176.14728760833333,58.0,96.0
777,175.62645510833332,176.1872181,63.0,96.0
778,176.04312110833334,176.27923184166667,55.0,89.0
779,175.62645510833332,176.49103705833332,39.0,86.0
780,176.45978710833333,176.61430074999998,55.0,106.0
781,176.45978710833333,176.78964769166666,58.0,120.0
782,176.45978710833333,176.84346705,63.0,110.0
783,177.29311910833331,177.46846605,57.0,87.0
784,177.29311910833331,177.74624338333334,62.0,104.0
785,177.29311910833331,177.84867377499998,65.0,106.0
786,177.70978510833334,177.97193746666665,57.0,94.0
787,178.12645110833333,178.27054809999998,57.0,112.0
788,178.12645110833333,178.36603405833333,62.0,112.0
789,177.29311910833331,178.43027006666665,50.0,99.0
790,178.12645110833333,178.57610316666666,65.0,109.0
791,178.54311710833332,178.64033917499998,57.0,94.0
792,178.9597831083333,179.20110216666666,55.0,96.0
793,178.9597831083333,179.47019895833333,60.0,94.0
794,178.9597831083333,179.5205461,63.0,96.0
795,179.37644910833333,179.57089324166665,55.0,76.0
796,179.79311510833332,179.921587125,55.0,104.0
797,178.9597831083333,180.00839254166667,48.0,96.0
798,179.79311510833332,180.25665603333331,63.0,107.0
799,179.79311510833332,180.28269765833332,60.0,106.0
800,180.20978110833332,180.32089204166667,55.0,94.0
801,180.62644710833334,181.12818241666665,58.0,99.0
802,180.62644710833334,181.19762674999998,62.0,106.0
803,181.04311310833333,181.53443176666667,50.0,85.0
804,180.62644710833334,181.94762555,43.0,106.0
805,181.45977910833332,182.26706948333333,58.0,113.0
806,181.45977910833332,182.2722778083333,67.0,101.0
807,181.45977910833332,182.28963889166667,62.0,112.0
808,181.87644510833331,182.29311110833333,55.0,109.0
809,182.29311110833333,182.84692966666665,58.0,101.0
810,182.29311110833333,182.93026286666665,63.0,101.0
811,182.70977710833333,182.95109616666664,55.0,80.0
812,182.29311110833333,183.14206808333333,39.0,68.0
813,183.12644310833332,183.57088684166666,58.0,117.0
814,183.12644310833332,183.629914525,63.0,117.0
815,183.5431091083333,183.66810890833332,55.0,101.0
816,183.95977510833333,184.04831663333331,38.0,106.0
817,183.95977510833333,184.28269125833333,57.0,96.0
818,183.95977510833333,184.28963569166666,62.0,101.0
819,183.95977510833333,184.43894100833333,66.0,93.0
820,184.58477410833333,184.97713459166667,57.0,96.0
821,184.37644110833332,185.04657892499998,50.0,96.0
822,184.79310710833332,185.18199537499999,62.0,115.0
823,185.00144010833333,185.21150921666666,66.0,117.0
824,185.20977310833334,185.50143930833332,69.0,104.0
825,185.62643910833333,186.0830356,62.0,104.0
826,185.62643910833333,186.13164663333333,67.0,104.0
827,186.04310510833332,186.51011825,50.0,67.0
828,186.4597711083333,186.66984021666667,62.0,106.0
829,186.4597711083333,186.70109016666666,67.0,104.0
830,186.4597711083333,186.70109016666666,70.0,113.0
831,185.62643910833333,186.99275636666667,43.0,104.0
832,187.29310310833333,188.44935125833334,43.0,101.0
833,187.29310310833333,188.46671234166666,55.0,89.0
834,187.29310310833333,188.48233731666664,58.0,74.0
835,187.29310310833333,188.53789278333332,62.0,101.0
836,188.91462829166665,189.38337754166665,39.0,104.0
837,188.806989575,189.58129389166666,55.0,80.0
838,188.86775336666665,189.69587704166665,58.0,88.0
839,188.97365597499999,189.88684895833333,63.0,88.0
840,190.80177805,190.90941676666665,38.0,104.0
841,190.67330603333332,190.94413893333333,57.0,85.0
842,190.78788918333333,191.17330523333334,62.0,91.0
843,190.8746946,191.421568725,65.0,99.0
844,191.494485275,193.65246793333333,57.0,76.0
845,191.22018015833333,193.66809290833334,50.0,80.0
846,191.69760995,193.848648175,60.0,78.0
847,192.1941369333333,193.87642590833332,69.0,91.0
848,191.952817875,193.89378699166664,65.0,85.0
849,193.95975910833332,194.57260535,58.0,72.0
850,193.95975910833332,194.59864697499998,62.0,96.0
851,193.95975910833332,194.6055914083333,55.0,69.0
852,194.37642510833334,194.90941036666666,50.0,38.0
853,194.79309110833333,195.14204888333333,58.0,96.0
854,193.95975910833332,195.20628489166666,43.0,82.0
855,194.79309110833333,195.22017375833332,62.0,101.0
856,195.6264231083333,196.01878359166665,58.0,99.0
857,195.6264231083333,196.07607516666667,62.0,101.0
858,196.45975510833333,196.90246273333332,58.0,117.0
859,196.45975510833333,196.95975430833332,62.0,106.0
860,196.87642110833332,197.140309575,55.0,101.0
861,197.2930871083333,197.8816278333333,62.0,99.0
862,197.2930871083333,197.90072502499999,58.0,104.0
863,198.12641910833332,198.43718249999998,62.0,101.0
864,198.12641910833332,198.54655732499998,58.0,110.0
865,197.2930871083333,198.66461269166666,46.0,65.0
866,198.95975110833334,199.36426434999998,62.0,80.0
867,198.95975110833334,199.44412533333332,58.0,86.0
868,199.37641710833333,199.8746802,53.0,89.0
869,199.79308310833332,200.05002714166665,46.0,91.0
870,199.79308310833332,200.20280467499998,58.0,107.0
871,199.79308310833332,200.27919344166665,62.0,104.0
872,200.2097491083333,200.28787398333333,53.0,85.0
873,200.62641510833333,201.2288447,60.0,89.0
874,200.62641510833333,201.265302975,63.0,93.0
875,201.45974710833332,201.95280187499998,60.0,99.0
876,201.45974710833332,201.97016295833333,63.0,101.0
877,202.29307910833333,202.91460589166667,63.0,88.0
878,202.29307910833333,202.91807810833333,60.0,91.0
879,200.62641510833333,203.54828543333332,48.0,94.0
880,203.12641110833331,203.556965975,63.0,110.0
881,203.12641110833331,203.57085484166666,60.0,106.0
882,203.54307710833334,203.63335474166666,55.0,78.0
883,203.942382025,204.0621735,38.0,87.0
884,203.94411813333332,204.28786758333334,57.0,94.0
885,203.942382025,204.53439496666667,65.0,94.0
886,204.78613067499998,205.3514573625,65.0,82.0
887,204.80175565,205.39610017500002,62.0,82.0
888,205.17824325,205.674671325,57.0,74.0
889,205.624671375,206.15037366666667,65.0,94.0
890,205.6300285125,206.23938853333334,62.0,94.0
891,205.624671375,206.3776456666667,69.0,104.0
892,204.35557580833333,206.65415993333335,50.0,94.0
893,206.0651466666667,206.69203860000002,57.0,99.0
894,206.510221,207.34822820833335,65.0,109.0
895,206.9988558,207.51815008333335,62.0,94.0
896,208.06086646250003,208.48223702291668,55.0,55.0
897,208.34514038125002,208.73425290833336,57.0,76.0
898,208.68183360416668,209.05078486041668,58.0,49.0
899,209.03465584375002,209.36328455833336,62.0,104.0
900,207.79473768750003,209.40360710000002,50.0,74.0
901,207.48885320833335,209.64554235000003,43.0,101.0
902,209.4136877354167,209.9398969041667,55.0,94.0
903,209.8189292791667,210.3451384479167,74.0,48.0
904,209.8733647104167,211.10521835833336,79.0,66.0
