,start,end,pitch,velocity
0,0.5867347916666666,1.3380104270833333,75.0,95.0
1,1.8112247916666664,2.2359697604166664,73.0,105.0
2,2.4234697916666663,2.7971943437499998,78.0,105.0
3,3.0357147916666665,3.6887761249999995,75.0,112.0
4,4.502551770833333,4.566327291666666,61.0,91.0
5,4.525510958333333,4.783164062499999,63.0,86.0
6,4.839286520833332,5.140306979166666,68.0,100.0
7,5.145409020833333,5.764031572916666,66.0,95.0
8,5.7908172916666665,6.119898979166666,68.0,107.0
9,9.420919937499999,9.517858729166665,61.0,88.0
10,9.517858729166665,9.757654687499999,63.0,70.0
11,9.743624072916665,10.073981270833333,68.0,75.0
12,10.062501677083333,10.672195656249999,66.0,83.0
13,10.653063,11.011481427083332,68.0,96.0
14,10.382654791666665,11.133930427083332,75.0,95.0
15,11.607144791666666,12.031889760416666,73.0,105.0
16,12.219389791666666,12.593114343749999,78.0,105.0
17,12.831634791666666,13.484696125,75.0,112.0
18,14.2882676875,14.346941166666666,61.0,82.0
19,14.362247291666666,14.600767739583333,75.0,93.0
20,14.332910552083332,14.650512645833333,63.0,73.0
21,14.668369791666665,14.868624927083331,73.0,95.0
22,14.632655499999998,14.938778,68.0,100.0
23,14.974492291666666,15.172196406249999,71.0,87.0
24,14.936226979166666,15.549747489583332,66.0,83.0
25,15.563778104166666,15.871176114583331,68.0,95.0
26,15.280614791666665,16.265308833333332,73.0,93.0
27,16.505104791666664,16.739798708333332,73.0,93.0
28,16.811227291666665,17.114798770833332,71.0,87.0
29,17.117349791666665,17.556125374999997,70.0,93.0
30,18.035717291666664,18.3290846875,61.0,80.0
31,18.35587040625,18.6734725,63.0,77.0
32,17.729594791666663,19.145411354166665,71.0,80.0
33,18.647962291666666,19.65944205208333,66.0,87.0
34,18.97066642708333,20.15689111458333,90.0,76.0
35,23.852044791666664,24.06760605208333,75.0,85.0
36,24.158167291666665,24.309953031249997,73.0,72.0
37,24.770412291666663,24.943881708333333,70.0,87.0
38,25.076534791666663,25.728320614583332,71.0,90.0
39,28.750004791666665,28.975770135416663,66.0,80.0
40,29.056127291666662,29.262759979166663,71.0,87.0
41,29.362249791666663,29.817607010416666,73.0,87.0
42,29.974494791666665,31.04464803125,75.0,93.0
43,33.341842291666666,33.58163825,66.0,93.0
44,33.647964791666666,33.8188831875,75.0,102.0
45,33.95408729166666,34.50255677083333,73.0,87.0
46,34.56633229166666,34.76658742708333,70.0,69.0
47,34.87245479166666,35.809954947916665,71.0,72.0
48,38.545924791666664,38.72832278124999,73.0,93.0
49,38.852047291666665,39.27806777083333,71.0,80.0
50,39.464292291666666,39.562506593749994,66.0,87.0
51,39.61735354166666,39.688782124999996,68.0,87.0
52,39.77041479166666,40.312506718749994,71.0,67.0
53,42.219394791666666,42.42985401041666,66.0,93.0
54,42.52551729166666,42.78061937499999,66.0,87.0
55,42.83163979166666,43.302303135416665,78.0,102.0
56,43.44388479166666,44.012762437499994,75.0,80.0
57,47.729599791666665,47.984701875,69.0,95.0
58,48.03572229166666,48.29082437499999,68.0,95.0
59,48.34184479166666,49.45536538541666,66.0,87.0
60,54.46429479166666,56.34439714583333,73.0,74.0
61,54.46429479166666,56.35460122916666,68.0,80.0
62,57.21939729166666,57.32781567708333,70.0,83.0
63,57.21939729166666,57.34567282291666,66.0,71.0
64,57.52551979166666,57.91837699999999,66.0,72.0
65,57.52551979166666,57.92730557291666,70.0,74.0
66,58.13776479166666,58.25256072916666,66.0,69.0
67,58.13776479166666,58.25256072916666,70.0,87.0
68,58.44388729166666,59.22194864583333,66.0,68.0
69,58.44388729166666,59.22194864583333,70.0,87.0
70,59.66837729166666,60.006387552083325,71.0,61.0
71,59.97449979166666,60.29847943749999,75.0,87.0
72,60.28062229166666,61.79592866666666,78.0,93.0
73,62.117357291666664,62.48597980208333,70.0,64.0
74,62.42347979166666,63.067612552083325,73.0,72.0
75,62.72960229166666,65.0739904375,78.0,93.0
76,64.87245979166666,65.20536801041666,71.0,71.0
77,65.17858229166666,66.72067438541666,75.0,61.0
78,67.62756229166666,67.99235827083332,70.0,80.0
79,67.93368479166666,68.3495011875,66.0,80.0
80,68.23980729166666,68.94516455208333,75.0,93.0
81,69.15817479166667,70.32016478125,71.0,68.0
82,69.15817479166667,70.331644375,68.0,68.0
83,71.60715479166666,72.70919579166666,70.0,93.0
84,72.83164479166666,73.72705310416666,71.0,80.0
85,72.83164479166666,73.73087963541666,68.0,66.0
86,74.36225729166667,74.95154310416666,68.0,67.0
87,74.66837979166667,75.02169617708333,73.0,70.0
88,74.97450229166665,75.89031877083333,77.0,87.0
89,76.81123729166666,77.52042108333333,73.0,70.0
90,77.11735979166666,77.98215585416666,66.0,70.0
91,77.42348229166666,78.36098244791665,78.0,95.0
92,79.56633979166666,79.7066459375,76.0,70.0
93,79.26021729166666,79.88904392708332,66.0,68.0
94,79.56633979166666,79.93878883333332,75.0,61.0
95,79.87246229166666,80.94134002083332,78.0,93.0
96,81.70919729166665,82.11608511458333,70.0,66.0
97,82.01531979166666,82.43623822916666,73.0,74.0
98,82.32144229166666,83.066340375,78.0,63.0
99,84.15817729166666,84.50511612499999,71.0,74.0
100,84.46429979166666,84.88394271874999,68.0,80.0
101,84.77042229166666,85.96430004166666,80.0,87.0
102,86.60715729166665,87.31634108333333,66.0,70.0
103,86.91327979166665,87.33164720833332,69.0,72.0
104,87.52552479166665,88.32526982291665,71.0,74.0
105,87.52552479166665,88.33674941666666,66.0,74.0
106,89.05613729166666,89.57654554166666,68.0,66.0
107,89.36225979166666,89.79593333333332,71.0,70.0
108,89.66838229166666,89.98853540625,76.0,69.0
109,90.58674979166666,90.94261719791666,70.0,80.0
110,90.89287229166666,91.14414784374999,66.0,80.0
111,91.19899479166666,92.25894394791666,70.0,93.0
112,92.42348479166665,93.44134210416665,71.0,74.0
113,92.42348479166665,93.45027067708332,68.0,71.0
114,94.56634229166666,94.94006684374999,68.0,74.0
115,94.87246479166666,95.23726077083333,76.0,102.0
116,95.17858729166666,95.77935269791666,73.0,69.0
117,95.48470979166666,95.85588332291665,68.0,68.0
118,96.09695479166666,98.20409799999999,66.0,69.0
119,96.09695479166666,98.30358781249998,70.0,74.0
120,98.85205729166665,99.1454246875,78.0,93.0
121,99.15817979166665,99.43879208333333,83.0,83.0
122,99.46430229166666,99.95537380208333,78.0,102.0
123,100.07654729166666,100.39670040624999,78.0,87.0
124,100.38266979166666,100.71812903124999,85.0,87.0
125,100.68879229166666,101.29848627083332,83.0,87.0
126,101.30103729166666,101.55996590624999,83.0,95.0
127,101.60715979166666,101.86226187499999,82.0,87.0
128,101.91328229166666,102.20664968749999,80.0,74.0
129,102.21940479166666,102.82909877083333,78.0,95.0
130,102.83164979166666,103.11608861458332,83.0,87.0
131,103.13777229166665,103.47195602083332,85.0,87.0
132,103.44389479166665,103.95664997916666,87.0,87.0
133,104.05613979166665,104.28062962499999,85.0,83.0
134,104.36226229166665,104.97195627083332,83.0,93.0
135,104.97450729166665,105.49491554166666,78.0,87.0
136,105.58675229166666,105.84440539583332,78.0,93.0
137,105.89287479166666,106.17348708333333,83.0,93.0
138,106.19899729166666,106.50384428125,82.0,80.0
139,106.50511979166666,106.82272188541666,80.0,93.0
140,106.81124229166666,107.42093627083332,78.0,102.0
141,107.42348729166666,107.87884451041666,75.0,103.0
142,108.03573229166666,108.32017111458332,78.0,102.0
143,108.64797729166666,108.94134468749999,78.0,93.0
144,108.95409979166665,109.23471208333332,83.0,83.0
145,109.26022229166665,109.75129380208332,78.0,102.0
146,109.87246729166665,110.19262040624999,78.0,87.0
147,110.17858979166665,110.51404903125,85.0,87.0
148,110.48471229166665,111.09440627083332,83.0,87.0
149,111.09695729166666,111.35588590625,83.0,95.0
150,111.40307979166666,111.65818187499998,82.0,87.0
151,111.70920229166666,112.00256968749999,80.0,74.0
152,112.01532479166666,112.62501877083332,78.0,95.0
153,112.62756979166666,112.91200861458333,83.0,87.0
154,112.93369229166666,113.26787602083333,85.0,87.0
155,113.23981479166666,113.75256997916665,87.0,87.0
156,113.85205979166666,114.07654962499998,85.0,83.0
157,114.15818229166666,114.76787627083333,83.0,93.0
158,114.77042729166665,115.29083554166665,78.0,87.0
159,115.38267229166665,115.64032539583333,78.0,93.0
160,115.68879479166665,115.96940708333332,83.0,93.0
161,115.99491729166665,116.19899895833332,82.0,85.0
162,116.30103979166665,116.4719581875,80.0,87.0
163,116.60716229166665,117.37884609374998,78.0,87.0
164,117.52552979166666,117.80741759374999,75.0,93.0
165,117.83165229166666,118.12246866666665,78.0,80.0
166,118.13777479166666,118.88905042708332,75.0,95.0
167,119.36226479166666,119.78700976041665,73.0,105.0
168,119.97450979166666,120.34823434375,78.0,105.0
169,120.58675479166665,121.23981612499999,75.0,112.0
170,122.11736729166665,122.35588773958332,75.0,93.0
171,122.42348979166665,122.62374492708332,73.0,95.0
172,122.72961229166665,122.92731640624999,71.0,87.0
173,123.03573479166666,124.02042883333333,73.0,93.0
174,124.26022479166666,124.49491870833332,73.0,93.0
175,124.56634729166666,124.94389837499999,71.0,87.0
176,127.93369479166665,128.68497042708333,75.0,95.0
177,129.15818479166666,129.58292976041665,73.0,105.0
178,129.77042979166666,130.14415434375,78.0,105.0
179,130.38267479166666,131.035736125,75.0,112.0
180,131.91328729166665,132.15180773958332,75.0,93.0
181,132.21940979166666,132.41966492708332,73.0,95.0
182,132.52553229166665,132.72323640624998,71.0,87.0
183,132.83165479166667,133.8163488333333,73.0,93.0
184,134.05614479166667,134.29083870833333,73.0,93.0
185,134.36226729166665,134.66583877083332,71.0,87.0
186,134.66838979166664,135.107165375,70.0,93.0
187,135.28063479166664,136.69645135416664,71.0,80.0
188,140.17859479166665,140.38905401041666,66.0,93.0
189,140.48471729166664,140.739819375,66.0,87.0
190,140.79083979166666,141.26150313541666,78.0,102.0
191,141.40308479166666,141.9719624375,75.0,80.0
192,145.68879979166664,145.943901875,69.0,95.0
193,145.99492229166665,146.25002437499998,68.0,95.0
194,146.30104479166664,147.41456538541667,66.0,87.0
195,152.42349479166666,154.30359714583332,73.0,74.0
196,152.42349479166666,154.31380122916664,68.0,80.0
197,155.17859729166665,155.28701567708333,70.0,83.0
198,155.17859729166665,155.30487282291665,66.0,71.0
199,155.48471979166666,155.87757699999997,66.0,72.0
200,155.48471979166666,155.88650557291666,70.0,74.0
201,156.09696479166666,156.21176072916666,66.0,69.0
202,156.09696479166666,156.21176072916666,70.0,87.0
203,156.40308729166665,157.18114864583333,66.0,68.0
204,156.40308729166665,157.18114864583333,70.0,87.0
205,157.62757729166665,157.96558755208332,71.0,61.0
206,157.93369979166664,158.25767943749997,75.0,87.0
207,158.23982229166666,159.75512866666665,78.0,93.0
208,160.07655729166666,160.44517980208332,70.0,64.0
209,160.38267979166665,161.02681255208333,73.0,72.0
210,160.68880229166666,163.0331904375,78.0,93.0
211,162.83165979166665,163.16456801041664,71.0,71.0
212,163.13778229166664,164.67987438541664,75.0,61.0
213,165.58676229166664,165.95155827083332,70.0,80.0
214,165.89288479166666,166.3087011875,66.0,80.0
215,166.19900729166665,166.9043645520833,75.0,93.0
216,167.11737479166666,168.27936478125,71.0,68.0
217,167.11737479166666,168.29084437499998,68.0,68.0
218,169.56635479166664,170.66839579166665,70.0,93.0
219,170.79084479166664,171.68625310416664,71.0,80.0
220,170.79084479166664,171.69007963541665,68.0,66.0
221,172.32145729166666,172.91074310416664,68.0,67.0
222,172.62757979166665,172.9808961770833,73.0,70.0
223,172.93370229166666,173.84951877083333,77.0,87.0
224,174.77043729166664,175.4796210833333,73.0,70.0
225,175.07655979166665,175.94135585416666,66.0,70.0
226,175.38268229166664,176.32018244791664,78.0,95.0
227,177.52553979166666,177.6658459375,76.0,70.0
228,177.21941729166664,177.8482439270833,66.0,68.0
229,177.52553979166666,177.89798883333333,75.0,61.0
230,177.83166229166665,178.90054002083332,78.0,93.0
231,179.66839729166665,180.07528511458332,70.0,66.0
232,179.97451979166664,180.39543822916664,73.0,74.0
233,180.28064229166665,181.025540375,78.0,63.0
234,182.11737729166666,182.46431612499998,71.0,74.0
235,182.42349979166664,182.84314271875,68.0,80.0
236,182.72962229166666,183.92350004166664,80.0,87.0
237,184.56635729166666,185.2755410833333,66.0,70.0
238,184.87247979166665,185.2908472083333,69.0,72.0
239,185.48472479166665,186.28446982291666,71.0,74.0
240,185.48472479166665,186.29594941666664,66.0,74.0
241,187.01533729166664,187.53574554166664,68.0,66.0
242,187.32145979166665,187.7551333333333,71.0,70.0
243,187.62758229166664,187.94773540625,76.0,69.0
244,188.54594979166666,188.90181719791664,70.0,80.0
245,188.85207229166664,189.10334784375,66.0,80.0
246,189.15819479166666,190.21814394791664,70.0,93.0
247,190.38268479166666,191.40054210416665,71.0,74.0
248,190.38268479166666,191.4094706770833,68.0,71.0
249,192.52554229166665,192.89926684374998,68.0,74.0
250,192.83166479166664,193.1964607708333,76.0,102.0
251,193.13778729166665,193.73855269791665,73.0,69.0
252,193.44390979166664,193.81508332291665,68.0,68.0
253,194.05615479166664,196.16329799999997,66.0,69.0
254,194.05615479166664,196.2627878125,70.0,74.0
255,197.11737979166665,197.25768593749999,76.0,70.0
256,196.81125729166664,197.44008392708332,66.0,68.0
257,197.11737979166665,197.48982883333332,75.0,61.0
258,197.42350229166664,198.4923800208333,78.0,93.0
259,199.26023729166664,199.6671251145833,70.0,66.0
260,199.56635979166666,199.98727822916663,73.0,74.0
261,199.87248229166664,200.61738037499998,78.0,63.0
262,201.70921729166665,202.05615612499997,71.0,74.0
263,202.01533979166663,202.43498271874998,68.0,80.0
264,202.32146229166665,203.51534004166666,80.0,87.0
265,204.15819729166665,204.86738108333333,66.0,70.0
266,204.46431979166664,204.88268720833332,69.0,72.0
267,205.07656479166664,205.87630982291665,71.0,74.0
268,205.07656479166664,205.88778941666664,66.0,74.0
269,206.60717729166666,207.12758554166663,68.0,66.0
270,206.91329979166665,207.34697333333332,71.0,70.0
271,207.21942229166666,207.53957540624998,76.0,69.0
272,208.13778979166665,208.49365719791663,70.0,80.0
273,208.44391229166663,208.69518784374998,66.0,80.0
274,208.75003479166665,209.80998394791663,70.0,93.0
275,209.97452479166665,210.99238210416664,71.0,74.0
276,209.97452479166665,211.00131067708332,68.0,71.0
277,212.11738229166664,212.49110684374998,68.0,74.0
278,212.42350479166666,212.7883007708333,76.0,102.0
279,212.72962729166665,213.33039269791664,73.0,69.0
280,213.03574979166666,213.40692332291664,68.0,68.0
281,215.1352399375,215.29340322916664,76.0,71.0
282,215.45411754166665,215.56891347916664,75.0,63.0
283,213.64799479166663,215.755138,66.0,69.0
284,213.64799479166663,215.85462781249998,70.0,74.0
285,215.77044412499998,216.22580134375,71.0,71.0
286,216.34825034374998,216.45794423958333,63.0,64.0
287,216.42860749999997,217.65309749999997,66.0,81.0
288,217.72580159375,217.8354954895833,66.0,64.0
289,217.79595466666666,219.18371,68.0,74.0
290,219.17988346874998,219.28957736458332,61.0,64.0
291,219.22325082291664,222.2092207083333,63.0,60.0
