,start,end,pitch,velocity
0,20.484697291666663,20.951534104166665,66.0,87.0
1,21.096942291666664,21.20536067708333,66.0,80.0
2,21.403064791666665,21.608421968749997,66.0,93.0
3,21.709187291666666,21.79081995833333,66.0,74.0
4,21.862248541666666,22.17729961458333,66.0,83.0
5,22.321432291666664,22.544646614583332,66.0,87.0
6,22.627554791666665,22.81633033333333,68.0,95.0
7,22.933677291666665,23.008932406249997,68.0,85.0
8,23.086738541666666,23.390310020833333,68.0,90.0
9,23.392861041666663,23.54337127083333,66.0,95.0
10,23.545922291666663,24.15561627083333,66.0,93.0
11,25.382657291666664,25.553575687499997,66.0,87.0
12,25.688779791666665,25.871177781249997,66.0,93.0
13,25.994902291666666,26.168371708333332,64.0,87.0
14,26.301024791666663,26.47449420833333,63.0,90.0
15,26.607147291666664,26.948984083333333,64.0,95.0
16,27.219392291666665,27.410718854166664,59.0,83.0
17,27.525514791666666,27.70791278125,66.0,93.0
18,27.831637291666663,28.002555687499996,64.0,85.0
19,28.137759791666664,28.320157781249996,63.0,87.0
20,28.443882291666664,28.910719104166663,63.0,80.0
21,29.056127291666662,29.911994781249998,61.0,85.0
22,30.280617291666665,30.747454104166664,66.0,87.0
23,30.892862291666663,31.00128067708333,66.0,80.0
24,31.198984791666664,31.404341968749996,66.0,93.0
25,31.505107291666665,31.58673995833333,66.0,74.0
26,31.658168541666665,31.973219614583332,66.0,83.0
27,32.11735229166666,32.34056661458333,66.0,87.0
28,32.42347479166666,32.61225033333333,68.0,95.0
29,32.729597291666664,32.80485240625,68.0,85.0
30,32.882658541666665,33.18623002083333,68.0,90.0
31,33.188781041666665,33.33929127083333,66.0,95.0
32,33.341842291666666,33.95153627083333,66.0,93.0
33,34.26020979166666,34.49490370833333,73.0,93.0
34,34.56633229166666,34.779342531249995,71.0,87.0
35,34.87245479166666,35.086740541666664,70.0,95.0
36,35.17857729166666,35.53444469791666,71.0,80.0
37,35.790822291666665,36.256383593749995,70.0,95.0
38,36.403067291666666,36.7117408125,71.0,93.0
39,37.01531229166666,37.12373067708333,68.0,83.0
40,37.16837354166666,37.26148580208333,70.0,80.0
41,37.32143479166666,37.42985317708333,71.0,87.0
42,37.62755729166666,37.77679201041666,71.0,85.0
43,37.93367979166666,38.09056757291666,71.0,87.0
44,38.23980229166666,38.721945229166664,71.0,93.0
45,38.852047291666665,39.596945375,73.0,93.0
46,40.07653729166666,40.22959854166666,68.0,93.0
47,40.38265979166666,40.62883330208333,68.0,87.0
48,40.68878229166666,40.918374166666666,71.0,95.0
49,40.99490479166666,41.17220073958333,70.0,93.0
50,41.301027291666664,41.492353854166666,71.0,87.0
51,41.607149791666664,41.79082329166666,70.0,95.0
52,41.913272291666665,42.06760905208333,68.0,93.0
53,42.219394791666666,42.401792781249995,66.0,83.0
54,42.52551729166666,42.688782624999995,66.0,74.0
55,42.83163979166666,43.02934390625,66.0,83.0
56,43.13776229166666,44.05740530208333,71.0,70.0
57,44.974497291666665,45.16709936458333,68.0,93.0
58,45.28061979166666,45.51148717708333,68.0,93.0
59,45.58674229166666,45.78699742708333,71.0,90.0
60,45.89286479166666,46.07016073958333,70.0,87.0
61,46.19898729166666,46.369905687499994,71.0,87.0
62,46.50510979166666,46.67857920833333,70.0,93.0
63,46.81123229166666,47.31760992708333,68.0,102.0
64,47.423477291666664,48.65306933333333,66.0,93.0
65,49.87245729166666,50.0586818125,68.0,102.0
66,50.178579791666664,50.396692072916665,68.0,93.0
67,50.484702291666665,50.706641104166664,71.0,93.0
68,50.790824791666665,50.95919216666666,70.0,93.0
69,51.09694729166666,51.26659017708333,71.0,87.0
70,51.40306979166666,51.55230451041666,70.0,90.0
71,51.70919229166666,51.85587598958333,68.0,102.0
72,52.01531479166666,52.17730461458333,67.0,87.0
73,52.32143729166666,52.466845479166665,67.0,69.0
74,52.62755979166666,52.931131270833326,73.0,93.0
75,52.93368229166666,53.616080364583325,71.0,102.0
76,53.85204979166666,54.034447781249995,68.0,102.0
77,54.15817229166666,54.28827435416666,70.0,83.0
78,54.46429479166666,54.653070333333325,71.0,95.0
79,54.77041729166666,54.85587648958333,71.0,70.0
80,54.92347854166666,55.136488781249994,71.0,83.0
81,55.22960104166666,55.309958197916664,70.0,87.0
82,55.38266229166666,55.839295020833326,71.0,95.0
83,55.994907291666664,56.147968541666664,70.0,93.0
84,56.301029791666664,56.47449920833333,71.0,85.0
85,56.60715229166666,57.52296877083333,73.0,95.0
86,57.83164229166666,58.019142322916665,66.0,93.0
87,58.13776479166666,58.63266283333333,71.0,87.0
88,58.75000979166666,59.21684660416666,73.0,95.0
89,59.36225479166666,59.6862344375,75.0,103.0
90,59.97449979166666,60.12373451041666,71.0,90.0
91,60.28062229166666,60.4362345625,73.0,93.0
92,60.58674479166666,60.74490808333333,75.0,103.0
93,60.89286729166666,61.06761221874999,76.0,103.0
94,61.19898979166666,61.502561270833326,78.0,102.0
95,61.811234791666664,61.97577563541666,73.0,80.0
96,62.117357291666664,62.28189813541666,66.0,87.0
97,62.42347979166666,62.56888797916666,70.0,87.0
98,62.72960229166666,62.89796966666666,71.0,90.0
99,63.03572479166666,63.66837795833333,73.0,93.0
100,64.26021479166666,64.45536788541666,71.0,93.0
101,64.56633729166666,64.69261282291666,63.0,102.0
102,64.87245979166666,65.01149042708333,68.0,102.0
103,65.17858229166666,65.33674558333333,70.0,80.0
104,65.48470479166666,65.64541910416666,71.0,87.0
105,65.79082729166666,65.95919466666666,73.0,90.0
106,66.09694979166666,66.48342944791666,75.0,95.0
107,66.70919479166666,66.90434788541666,70.0,102.0
108,67.01531729166666,67.19643977083332,71.0,87.0
109,67.32143979166666,67.46812348958332,70.0,85.0
110,67.62756229166666,67.80485823958333,68.0,90.0
111,67.93368479166666,68.20664402083332,66.0,87.0
112,68.54592979166667,68.73087880208332,71.0,93.0
113,68.85205229166667,69.01659313541666,70.0,90.0
114,69.15817479166667,69.58674629166666,68.0,93.0
115,69.77041979166665,69.93878716666666,70.0,87.0
116,70.07654229166666,70.25383823958333,71.0,85.0
117,70.38266479166666,70.80103220833333,73.0,95.0
118,70.99490979166666,71.15307308333333,71.0,87.0
119,71.30103229166666,71.47960375,73.0,93.0
120,71.60715479166666,71.78955278125,75.0,93.0
121,71.91327729166666,72.0995018125,76.0,102.0
122,72.21939979166666,72.39669573958332,75.0,102.0
123,72.52552229166666,72.69006313541666,73.0,93.0
124,72.83164479166666,73.16455301041665,71.0,93.0
125,73.44388979166666,73.60843063541665,68.0,102.0
126,73.75001229166666,73.91837966666667,70.0,90.0
127,74.05613479166666,74.22450216666665,71.0,93.0
128,74.36225729166667,74.52042058333333,71.0,93.0
129,74.66837979166667,74.88649207291665,71.0,95.0
130,74.97450229166665,75.137767625,70.0,87.0
131,75.28062479166665,75.42475746874999,71.0,93.0
132,75.58674729166665,75.76786977083333,73.0,93.0
133,75.89286979166666,76.33292088541666,75.0,102.0
134,76.50511479166666,77.22067613541665,73.0,93.0
135,77.42348229166666,77.61098232291666,66.0,93.0
136,77.72960479166666,78.22450283333333,71.0,87.0
137,78.34184979166666,78.80868660416665,73.0,95.0
138,78.95409479166666,79.2780744375,75.0,103.0
139,79.56633979166666,79.71557451041666,71.0,90.0
140,79.87246229166666,80.0280745625,73.0,93.0
141,80.17858479166667,80.33674808333332,75.0,103.0
142,80.48470729166667,80.65945221874999,76.0,103.0
143,80.79082979166665,81.09440127083333,78.0,102.0
144,81.40307479166665,81.56761563541666,73.0,80.0
145,81.70919729166665,81.87373813541666,66.0,87.0
146,82.01531979166666,82.16072797916667,70.0,87.0
147,82.32144229166666,82.48980966666666,71.0,90.0
148,82.62756479166666,83.26021795833333,73.0,93.0
149,83.85205479166666,84.04720788541665,71.0,93.0
150,84.15817729166666,84.28445282291666,63.0,102.0
151,84.46429979166666,84.60333042708332,68.0,102.0
152,84.77042229166666,84.92858558333333,70.0,80.0
153,85.07654479166666,85.23725910416665,71.0,87.0
154,85.38266729166666,85.55103466666665,73.0,90.0
155,85.68878979166666,86.07526944791665,75.0,95.0
156,86.30103479166665,86.49618788541666,75.0,102.0
157,86.60715729166665,86.78827977083333,76.0,87.0
158,86.91327979166665,87.05996348958332,75.0,85.0
159,87.21940229166665,87.39669823958333,73.0,90.0
160,87.52552479166665,87.79848402083333,71.0,87.0
161,88.13776979166666,88.32271880208333,71.0,93.0
162,88.44389229166666,88.60843313541666,70.0,90.0
163,88.75001479166666,89.17858629166666,68.0,93.0
164,89.36225979166666,89.53062716666666,70.0,87.0
165,89.66838229166666,89.84567823958332,71.0,85.0
166,89.97450479166666,90.39287220833333,73.0,95.0
167,90.58674979166666,90.74491308333333,75.0,87.0
168,90.89287229166666,91.07144374999999,76.0,93.0
169,91.19899479166666,91.65562752083332,78.0,93.0
170,91.81123979166665,91.98853573958333,75.0,102.0
171,92.11736229166665,92.28190313541666,73.0,93.0
172,92.42348479166665,92.75639301041666,71.0,93.0
173,93.03572979166665,93.20027063541666,68.0,102.0
174,93.34185229166665,93.51021966666666,70.0,90.0
175,93.64797479166666,93.81634216666666,71.0,93.0
176,93.95409729166666,94.11226058333332,71.0,93.0
177,94.26021979166666,94.47833207291666,71.0,95.0
178,94.56634229166666,94.72960762499999,70.0,87.0
179,94.87246479166666,95.01659746874999,71.0,93.0
180,95.17858729166666,95.35970977083332,73.0,93.0
181,95.48470979166666,95.92476088541666,75.0,102.0
182,96.09695479166666,96.81251613541666,73.0,93.0
183,97.01532229166666,97.17986313541665,66.0,102.0
184,97.32144479166666,97.81251630208332,71.0,87.0
185,97.93368979166665,98.16583268749999,70.0,87.0
186,98.23981229166665,99.89159828125,71.0,90.0
187,138.03573729166666,138.18879854166664,68.0,93.0
188,138.34185979166665,138.58803330208332,68.0,87.0
189,138.64798229166666,138.87757416666665,71.0,95.0
190,138.95410479166665,139.1314007395833,70.0,93.0
191,139.26022729166667,139.45155385416666,71.0,87.0
192,139.56634979166665,139.75002329166665,70.0,95.0
193,139.87247229166664,140.0268090520833,68.0,93.0
194,140.17859479166665,140.36099278125,66.0,83.0
195,140.48471729166664,140.647982625,66.0,74.0
196,140.79083979166666,140.98854390625,66.0,83.0
197,141.09696229166664,142.01660530208332,71.0,70.0
198,142.93369729166665,143.12629936458333,68.0,93.0
199,143.23981979166666,143.4706871770833,68.0,93.0
200,143.54594229166665,143.74619742708333,71.0,90.0
201,143.85206479166666,144.02936073958332,70.0,87.0
202,144.15818729166665,144.32910568749998,71.0,87.0
203,144.46430979166666,144.6377792083333,70.0,93.0
204,144.77043229166665,145.27680992708332,68.0,102.0
205,145.38267729166665,146.61226933333333,66.0,93.0
206,147.83165729166666,148.01788181249998,68.0,102.0
207,148.13777979166665,148.35589207291665,68.0,93.0
208,148.44390229166666,148.66584110416665,71.0,93.0
209,148.75002479166665,148.91839216666665,70.0,93.0
210,149.05614729166666,149.22579017708333,71.0,87.0
211,149.36226979166665,149.51150451041664,70.0,90.0
212,149.66839229166666,149.8150759895833,68.0,102.0
213,149.97451479166665,150.13650461458332,67.0,87.0
214,150.28063729166666,150.42604547916665,67.0,69.0
215,150.58675979166665,150.89033127083331,73.0,93.0
216,150.89288229166667,151.5752803645833,71.0,102.0
217,151.81124979166665,151.99364778125,68.0,102.0
218,152.11737229166664,152.24747435416666,70.0,83.0
219,152.42349479166666,152.61227033333333,71.0,95.0
220,152.72961729166664,152.8150764895833,71.0,70.0
221,152.88267854166665,153.09568878124998,71.0,83.0
222,153.18880104166666,153.26915819791665,70.0,87.0
223,153.34186229166664,153.79849502083331,71.0,95.0
224,153.95410729166665,154.10716854166665,70.0,93.0
225,154.26022979166666,154.4336992083333,71.0,85.0
226,154.56635229166665,155.4821687708333,73.0,95.0
227,155.79084229166665,155.97834232291666,66.0,93.0
228,156.09696479166666,156.59186283333332,71.0,87.0
229,156.70920979166667,157.17604660416666,73.0,95.0
230,157.32145479166664,157.64543443749997,75.0,103.0
231,157.93369979166664,158.08293451041666,71.0,90.0
232,158.23982229166666,158.3954345625,73.0,93.0
233,158.54594479166664,158.70410808333332,75.0,103.0
234,158.85206729166666,159.02681221875,76.0,103.0
235,159.15818979166664,159.4617612708333,78.0,102.0
236,159.77043479166664,159.93497563541666,73.0,80.0
237,160.07655729166666,160.24109813541665,66.0,87.0
238,160.38267979166665,160.52808797916666,70.0,87.0
239,160.68880229166666,160.85716966666666,71.0,90.0
240,160.99492479166665,161.62757795833332,73.0,93.0
241,162.21941479166665,162.41456788541666,71.0,93.0
242,162.52553729166664,162.65181282291664,63.0,102.0
243,162.83165979166665,162.97069042708333,68.0,102.0
244,163.13778229166664,163.29594558333332,70.0,80.0
245,163.44390479166665,163.60461910416666,71.0,87.0
246,163.75002729166664,163.91839466666664,73.0,90.0
247,164.05614979166666,164.44262944791666,75.0,95.0
248,164.66839479166666,164.86354788541666,70.0,102.0
249,164.97451729166664,165.15563977083332,71.0,87.0
250,165.28063979166666,165.42732348958333,70.0,85.0
251,165.58676229166664,165.7640582395833,68.0,90.0
252,165.89288479166666,166.1658440208333,66.0,87.0
253,166.50512979166666,166.69007880208332,71.0,93.0
254,166.81125229166665,166.97579313541664,70.0,90.0
255,167.11737479166666,167.54594629166664,68.0,93.0
256,167.72961979166666,167.89798716666664,70.0,87.0
257,168.03574229166665,168.2130382395833,71.0,85.0
258,168.34186479166664,168.76023220833332,73.0,95.0
259,168.95410979166664,169.11227308333332,71.0,87.0
260,169.26023229166665,169.43880374999998,73.0,93.0
261,169.56635479166664,169.74875278124998,75.0,93.0
262,169.87247729166666,170.05870181249998,76.0,102.0
263,170.17859979166664,170.3558957395833,75.0,102.0
264,170.48472229166666,170.64926313541665,73.0,93.0
265,170.79084479166664,171.12375301041666,71.0,93.0
266,171.40308979166664,171.56763063541666,68.0,102.0
267,171.70921229166666,171.87757966666666,70.0,90.0
268,172.01533479166665,172.18370216666665,71.0,93.0
269,172.32145729166666,172.47962058333331,71.0,93.0
270,172.62757979166665,172.84569207291665,71.0,95.0
271,172.93370229166666,173.096967625,70.0,87.0
272,173.23982479166665,173.38395746875,71.0,93.0
273,173.54594729166666,173.7270697708333,73.0,93.0
274,173.85206979166665,174.29212088541664,75.0,102.0
275,174.46431479166665,175.17987613541666,73.0,93.0
276,175.38268229166664,175.57018232291665,66.0,93.0
277,175.68880479166666,176.1837028333333,71.0,87.0
278,176.30104979166666,176.76788660416665,73.0,95.0
279,176.91329479166666,177.2372744375,75.0,103.0
280,177.52553979166666,177.67477451041665,71.0,90.0
281,177.83166229166665,177.98727456249998,73.0,93.0
282,178.13778479166666,178.29594808333331,75.0,103.0
283,178.44390729166665,178.61865221875,76.0,103.0
284,178.75002979166666,179.05360127083333,78.0,102.0
285,179.36227479166664,179.52681563541665,73.0,80.0
286,179.66839729166665,179.83293813541664,66.0,87.0
287,179.97451979166664,180.11992797916665,70.0,87.0
288,180.28064229166665,180.44900966666665,71.0,90.0
289,180.58676479166664,181.2194179583333,73.0,93.0
290,181.81125479166664,182.00640788541665,71.0,93.0
291,182.11737729166666,182.24365282291666,63.0,102.0
292,182.42349979166664,182.56253042708332,68.0,102.0
293,182.72962229166666,182.8877855833333,70.0,80.0
294,183.03574479166664,183.19645910416665,71.0,87.0
295,183.34186729166666,183.51023466666666,73.0,90.0
296,183.64798979166665,184.03446944791665,75.0,95.0
297,184.26023479166665,184.45538788541666,75.0,102.0
298,184.56635729166666,184.7474797708333,76.0,87.0
299,184.87247979166665,185.01916348958332,75.0,85.0
300,185.17860229166664,185.35589823958333,73.0,90.0
301,185.48472479166665,185.75768402083332,71.0,87.0
302,186.09696979166665,186.2819188020833,71.0,93.0
303,186.40309229166664,186.56763313541666,70.0,90.0
304,186.70921479166665,187.13778629166666,68.0,93.0
305,187.32145979166665,187.48982716666666,70.0,87.0
306,187.62758229166664,187.8048782395833,71.0,85.0
307,187.93370479166666,188.3520722083333,73.0,95.0
308,188.54594979166666,188.7041130833333,75.0,87.0
309,188.85207229166664,189.03064375,76.0,93.0
310,189.15819479166666,189.6148275208333,78.0,93.0
311,189.77043979166666,189.94773573958332,75.0,102.0
312,190.07656229166665,190.24110313541664,73.0,93.0
313,190.38268479166666,190.71559301041665,71.0,93.0
314,190.99492979166664,191.15947063541665,68.0,102.0
315,191.30105229166665,191.46941966666665,70.0,90.0
316,191.60717479166664,191.77554216666664,71.0,93.0
317,191.91329729166665,192.0714605833333,71.0,93.0
318,192.21941979166664,192.43753207291664,71.0,95.0
319,192.52554229166665,192.68880762499998,70.0,87.0
320,192.83166479166664,192.97579746875,71.0,93.0
321,193.13778729166665,193.3189097708333,73.0,93.0
322,193.44390979166664,193.88396088541666,75.0,102.0
323,194.05615479166664,194.77171613541665,73.0,93.0
324,194.97452229166666,195.13906313541665,66.0,102.0
325,195.28064479166665,195.77171630208332,71.0,87.0
326,195.89288979166665,196.12503268749998,70.0,87.0
327,196.19901229166666,197.85079828124998,71.0,90.0
