,start,end,pitch,velocity
0,0.5867347916666666,0.9489797499999999,52.0,68.0
1,0.5867347916666666,1.2130104062499998,59.0,71.0
2,0.5867347916666666,1.4183675833333331,40.0,85.0
3,1.1989797916666665,1.5880104687499998,52.0,95.0
4,0.8928572916666666,1.591837,47.0,64.0
5,1.5051022916666665,1.7270411041666665,59.0,80.0
6,1.8112247916666664,2.2091840416666666,54.0,85.0
7,1.8112247916666664,2.3992350937499998,58.0,71.0
8,1.8112247916666664,2.6875004479166664,42.0,87.0
9,2.1173472916666665,2.7066331041666665,49.0,60.0
10,2.4234697916666663,2.7436229062499997,54.0,87.0
11,3.01148009375,3.250000541666666,66.0,71.0
12,3.002551520833333,3.2653066666666666,63.0,78.0
13,3.002551520833333,3.2729597291666663,71.0,79.0
14,3.5867352916666664,3.6441332604166665,63.0,87.0
15,3.599490395833333,3.6466842812499998,66.0,72.0
16,3.584184270833333,3.6709189791666663,73.0,87.0
17,3.6198985624999995,3.766582260416666,59.0,46.0
18,3.270408708333333,3.854592479166666,54.0,54.0
19,3.01148009375,3.913265958333333,47.0,66.0
20,3.9119904479166663,4.54209259375,63.0,88.0
21,3.9119904479166663,4.58801096875,66.0,77.0
22,3.9030618749999997,4.664541593749999,71.0,86.0
23,4.521684427083333,4.664541593749999,71.0,90.0
24,4.210459885416666,4.864796729166666,44.0,74.0
25,4.834184479166666,5.110970239583333,68.0,78.0
26,5.484694791666666,5.5331641875,52.0,65.0
27,5.484694791666666,6.136480614583332,56.0,87.0
28,5.484694791666666,6.322705135416666,40.0,83.0
29,6.096939791666666,6.463011281249999,52.0,102.0
30,5.7908172916666665,6.471939854166666,47.0,64.0
31,6.403062291666666,6.636480697916666,56.0,102.0
32,6.709184791666666,7.086735875,54.0,74.0
33,6.709184791666666,7.3137767291666655,58.0,74.0
34,7.321429791666666,7.492348187499999,54.0,95.0
35,6.709184791666666,7.573980854166666,42.0,74.0
36,7.015307291666666,7.581633916666666,49.0,65.0
37,7.933674791666666,8.28444015625,59.0,70.0
38,8.239797291666665,8.610970822916666,54.0,72.0
39,8.545919791666666,8.963011697916667,63.0,105.0
40,7.933674791666666,8.994899458333332,47.0,83.0
41,8.852042291666665,9.017858645833332,54.0,66.0
42,9.414542385416667,9.487246479166666,63.0,59.0
43,9.413266875,9.507654645833332,75.0,74.0
44,9.720664885416666,9.774236322916666,78.0,78.0
45,9.127552541666665,10.331634374999998,44.0,71.0
46,9.420919937499999,10.331634374999998,51.0,56.0
47,10.034440447916666,10.573981354166666,78.0,95.0
48,9.72321590625,10.668369124999998,59.0,65.0
49,10.382654791666665,10.668369124999998,59.0,70.0
50,10.382654791666665,10.743624239583331,52.0,80.0
51,10.382654791666665,11.302297802083332,40.0,80.0
52,10.994899791666665,11.354593729166666,52.0,102.0
53,10.688777291666666,11.360971281249999,47.0,60.0
54,11.301022291666666,11.496175385416665,56.0,93.0
55,11.607144791666666,12.0076550625,54.0,69.0
56,11.607144791666666,12.160716312499998,58.0,80.0
57,12.219389791666666,12.593114343749999,54.0,93.0
58,11.913267291666665,12.630104145833332,49.0,63.0
59,11.607144791666666,12.633930677083333,42.0,80.0
60,12.811226624999998,13.085461364583333,71.0,75.0
61,12.797196010416666,13.105869531249999,66.0,83.0
62,12.797196010416666,13.178573624999999,75.0,86.0
63,13.146685864583333,13.253828739583332,54.0,53.0
64,13.41199203125,13.471941020833333,71.0,74.0
65,13.404338968749999,13.477043062499998,66.0,79.0
66,13.403063458333332,13.51148184375,76.0,81.0
67,13.41199203125,13.758930864583332,61.0,69.0
68,13.732145145833332,14.147961541666666,66.0,105.0
69,13.738522697916665,14.228318697916665,71.0,93.0
70,13.724492083333333,14.373726885416666,75.0,103.0
71,14.332910552083332,14.419645260416665,76.0,86.0
72,14.332910552083332,14.422196281249999,66.0,80.0
73,14.346941166666666,14.422196281249999,71.0,53.0
74,13.369900187499999,14.693879999999998,54.0,37.0
75,12.80740009375,14.704084083333331,47.0,70.0
76,14.635206520833332,14.709186124999999,71.0,68.0
77,14.627553458333331,14.725767760416666,66.0,81.0
78,14.617349374999998,14.760206541666665,75.0,94.0
79,14.056124791666665,15.145410687499998,44.0,87.0
80,15.280614791666665,15.876278156249999,47.0,87.0
81,15.586737291666665,15.966839395833333,56.0,85.0
82,15.892859791666664,16.218114947916664,59.0,102.0
83,16.198982291666667,16.3392884375,56.0,93.0
84,16.505104791666664,16.869900770833333,54.0,74.0
85,16.505104791666664,17.151788572916665,58.0,83.0
86,16.811227291666665,17.415819229166665,49.0,60.0
87,17.117349791666665,17.419645760416664,54.0,90.0
88,16.505104791666664,17.43622739583333,42.0,74.0
89,17.090564072916663,17.4489825,70.0,76.0
90,17.088013052083333,17.48342128125,82.0,80.0
91,18.035717291666664,18.437503072916666,54.0,71.0
92,17.71301315625,18.559952072916666,71.0,61.0
93,17.651788656249998,18.56888064583333,47.0,73.0
94,17.70025805208333,18.571431666666665,83.0,75.0
95,18.341839791666665,18.69515617708333,59.0,93.0
96,18.954084791666666,20.089289062499997,59.0,87.0
97,18.954084791666666,20.089289062499997,63.0,85.0
98,18.647962291666666,20.112248249999997,54.0,93.0
99,18.85969702083333,20.165819687499997,66.0,39.0
100,18.9719419375,20.16964621875,75.0,41.0
101,18.933676624999997,20.176023770833332,71.0,32.0
102,18.96811540625,20.197707447916663,78.0,54.0
103,20.178574791666666,20.383931968749998,54.0,74.0
104,20.178574791666666,20.558676895833333,59.0,70.0
105,20.484697291666663,20.913268791666663,54.0,61.0
106,20.790819791666664,20.955360635416664,59.0,66.0
107,21.096942291666664,21.38903417708333,54.0,72.0
108,21.709187291666666,22.080360822916663,54.0,43.0
109,21.096942291666664,22.198983291666664,63.0,90.0
110,22.015309791666663,22.201534312499998,59.0,71.0
111,20.178574791666666,22.554850697916663,47.0,72.0
112,22.627554791666665,22.81250380208333,58.0,64.0
113,22.627554791666665,22.994901791666663,61.0,70.0
114,22.933677291666665,23.304850822916663,58.0,65.0
115,23.239799791666666,23.613524343749997,61.0,87.0
116,23.545922291666663,24.485973468749997,66.0,87.0
117,24.158167291666665,24.529340822916666,58.0,80.0
118,22.627554791666665,24.535718375,46.0,80.0
119,24.464289791666666,24.55740205208333,61.0,93.0
120,25.076534791666663,25.260208291666665,56.0,70.0
121,25.076534791666663,25.469392,59.0,72.0
122,25.382657291666664,26.073983937499996,56.0,70.0
123,25.688779791666665,26.136483947916663,59.0,72.0
124,25.994902291666666,26.852045291666663,64.0,87.0
125,26.607147291666664,26.954086124999996,59.0,95.0
126,25.076534791666663,27.11735145833333,40.0,72.0
127,26.913269791666664,27.17474942708333,56.0,93.0
128,27.525514791666666,27.908167916666663,52.0,83.0
129,27.525514791666666,28.187504697916665,59.0,72.0
130,27.525514791666666,28.593117010416663,40.0,83.0
131,27.831637291666663,28.627555791666666,47.0,63.0
132,28.137759791666664,28.62883130208333,52.0,103.0
133,28.443882291666664,28.64796395833333,59.0,87.0
134,28.750004791666665,29.079086479166666,52.0,80.0
135,28.750004791666665,29.142861999999997,40.0,87.0
136,28.750004791666665,29.147964041666665,59.0,83.0
137,29.362249791666663,29.790821291666663,54.0,69.0
138,29.362249791666663,29.793372312499997,58.0,68.0
139,29.362249791666663,29.808678437499996,42.0,80.0
140,30.280617291666665,31.27679092708333,54.0,105.0
141,30.586739791666663,31.5841889375,59.0,87.0
142,31.505107291666665,31.876280822916662,54.0,80.0
143,30.892862291666663,31.876280822916662,63.0,85.0
144,29.974494791666665,32.15306658333333,47.0,87.0
145,31.811229791666662,32.16709719791666,59.0,87.0
146,32.11735229166666,32.46046459375,54.0,93.0
147,32.42347479166666,33.035719791666665,58.0,74.0
148,33.035719791666665,33.40306679166666,61.0,85.0
149,32.42347479166666,33.475770885416665,46.0,74.0
150,33.80102604166667,33.95536280208333,58.0,66.0
151,33.341842291666666,34.025515874999996,66.0,93.0
152,34.26020979166666,34.36862817708333,58.0,70.0
153,34.26020979166666,34.607148624999994,61.0,74.0
154,34.26020979166666,34.64413842708333,46.0,56.0
155,34.56633229166666,34.67985271875,58.0,71.0
156,34.87245479166666,35.08418952083333,56.0,72.0
157,34.87245479166666,35.56250592708333,59.0,72.0
158,35.484699791666664,36.13521010416666,56.0,93.0
159,35.790822291666665,36.501281593749994,59.0,83.0
160,35.790822291666665,36.57015915625,64.0,87.0
161,36.403067291666666,36.62373059375,56.0,66.0
162,36.70918979166667,36.872455124999995,59.0,87.0
163,36.70918979166667,36.88521022916666,56.0,87.0
164,34.87245479166666,36.90179186458333,40.0,74.0
165,35.17857729166666,36.90179186458333,47.0,60.0
166,37.32143479166666,37.68240423958333,52.0,74.0
167,37.32143479166666,37.928577749999995,59.0,74.0
168,37.93367979166666,38.07653695833333,52.0,80.0
169,37.62755729166666,38.39413905208333,47.0,56.0
170,38.23980229166666,38.963016697916665,52.0,93.0
171,38.23980229166666,39.09439427083333,59.0,90.0
172,37.32143479166666,39.294649406249995,40.0,87.0
173,38.852047291666665,39.47832290624999,47.0,63.0
174,39.158169791666666,39.51913923958333,52.0,110.0
175,39.464292291666666,39.76786377083333,59.0,93.0
176,39.77041479166666,40.14413934375,52.0,87.0
177,39.77041479166666,40.36862917708333,59.0,68.0
178,40.38265979166666,40.725772093749995,52.0,103.0
179,39.77041479166666,40.76276189583333,40.0,90.0
180,40.07653729166666,40.82526190625,47.0,68.0
181,40.68878229166666,40.91964967708333,59.0,102.0
182,40.99490479166666,41.406894656249996,54.0,74.0
183,40.99490479166666,41.50893548958333,58.0,80.0
184,40.99490479166666,41.673476333333326,42.0,90.0
185,41.301027291666664,41.69898654166666,49.0,61.0
186,41.607149791666664,41.70663960416666,54.0,105.0
187,42.219394791666666,42.36352746874999,58.0,64.0
188,42.219394791666666,42.59056832291666,63.0,85.0
189,42.52551729166666,42.872456125,58.0,93.0
190,42.219394791666666,42.90051735416666,51.0,95.0
191,42.83163979166666,43.09822146875,63.0,102.0
192,43.13776229166666,43.25128271875,58.0,102.0
193,43.44388479166666,43.86225220833333,56.0,85.0
194,43.44388479166666,43.88138486458333,59.0,93.0
195,44.05612979166666,44.21811961458333,56.0,90.0
196,44.05612979166666,44.316333916666665,59.0,95.0
197,44.05612979166666,44.39031352083333,63.0,102.0
198,43.75000729166666,44.471946187499995,51.0,74.0
199,44.362252291666664,44.52041558333333,56.0,80.0
200,43.44388479166666,44.52169109374999,44.0,87.0
201,44.668374791666665,44.923476875,56.0,80.0
202,44.668374791666665,45.11990547916666,61.0,87.0
203,44.974497291666665,45.38266062499999,56.0,80.0
204,45.28061979166666,45.437507572916665,61.0,70.0
205,44.668374791666665,45.770415791666665,49.0,93.0
206,45.58674229166666,45.841844374999994,56.0,93.0
207,45.58674229166666,45.926028062499995,64.0,93.0
208,46.50510979166666,46.93113027083333,54.0,103.0
209,46.19898729166666,46.984701708333326,49.0,74.0
210,45.89286479166666,47.01276293749999,42.0,85.0
211,46.81123229166666,47.02934457291666,58.0,102.0
212,47.11735479166666,47.280620125,54.0,85.0
213,47.11735479166666,47.48215077083333,59.0,85.0
214,47.423477291666664,47.89031410416666,54.0,87.0
215,47.729599791666665,48.09056923958333,59.0,80.0
216,48.03572229166666,48.191334562499996,61.0,87.0
217,48.34184479166666,48.49235502083333,54.0,83.0
218,48.34184479166666,48.73725302083333,63.0,95.0
219,48.64796729166666,48.8035795625,54.0,93.0
220,47.11735479166666,49.079089812499994,47.0,93.0
221,48.95408979166666,49.08801838541666,54.0,102.0
222,48.95408979166666,49.27296739583333,59.0,95.0
223,49.26021229166666,49.382661291666665,54.0,95.0
224,49.56633479166666,49.95281444791666,52.0,80.0
225,49.56633479166666,50.286998177083326,59.0,74.0
226,50.178579791666664,50.5637839375,52.0,102.0
227,49.56633479166666,50.59312067708333,40.0,87.0
228,49.87245729166666,50.64541660416666,47.0,59.0
229,50.484702291666665,50.68878395833333,56.0,102.0
230,50.790824791666665,51.137763625,54.0,80.0
231,50.790824791666665,51.386488156249996,58.0,80.0
232,51.09694729166666,51.48470245833333,49.0,61.0
233,50.790824791666665,51.52934532291666,42.0,90.0
234,51.40306979166666,51.539549406249996,54.0,93.0
235,52.01531479166666,52.39541689583333,58.0,74.0
236,52.01531479166666,52.637763875,63.0,70.0
237,52.01531479166666,52.779345531249994,39.0,93.0
238,52.32143729166666,52.823988395833325,46.0,80.0
239,52.62755979166666,52.93750882291666,58.0,95.0
240,52.93368229166666,53.09694762499999,63.0,102.0
241,53.239804791666664,53.635213020833326,56.0,71.0
242,53.239804791666664,53.900519187499995,59.0,69.0
243,53.85204979166666,54.22322332291666,56.0,93.0
244,53.545927291666665,54.301029458333325,51.0,72.0
245,53.239804791666664,54.317611093749996,44.0,87.0
246,54.15817229166666,54.35077436458333,59.0,93.0
247,54.46429479166666,54.67475401041666,56.0,83.0
248,54.46429479166666,54.83546832291666,61.0,87.0
249,54.77041729166666,55.15307041666666,56.0,74.0
250,55.07653979166666,55.221947979166664,61.0,45.0
251,55.38266229166666,55.687509281249994,56.0,80.0
252,55.38266229166666,56.05613179166666,61.0,93.0
253,55.38266229166666,56.08674404166666,65.0,87.0
254,55.994907291666664,56.13138690624999,56.0,67.0
255,56.301029791666664,56.40944817708333,56.0,102.0
256,54.46429479166666,56.50638696874999,49.0,90.0
257,56.301029791666664,56.567611468749995,61.0,95.0
258,56.60715229166666,56.71557067708333,56.0,74.0
259,57.21939729166666,57.35460139583333,49.0,68.0
260,57.21939729166666,57.36480547916666,42.0,87.0
261,57.21939729166666,57.3750095625,54.0,74.0
262,57.21939729166666,57.37756058333333,61.0,74.0
263,57.52551979166666,57.91837699999999,42.0,102.0
264,57.52551979166666,57.92092802083333,49.0,87.0
265,57.52551979166666,57.92730557291666,54.0,93.0
266,57.52551979166666,57.954091291666664,61.0,90.0
267,58.13776479166666,58.246183177083324,42.0,87.0
268,58.13776479166666,58.24873419791666,54.0,74.0
269,58.13776479166666,58.25766277083333,49.0,74.0
270,58.13776479166666,58.25766277083333,61.0,74.0
271,58.44388729166666,59.27807110416666,54.0,83.0
272,58.44388729166666,59.280622124999994,49.0,80.0
273,58.44388729166666,59.28699967708333,61.0,74.0
274,58.44388729166666,59.29210171875,42.0,90.0
275,59.36225479166666,59.738530364583326,59.0,85.0
276,59.36225479166666,59.934958968749996,63.0,93.0
277,59.97449979166666,60.09694879166666,59.0,69.0
278,59.66837729166666,60.38904067708333,54.0,72.0
279,60.28062229166666,60.71812236458333,59.0,95.0
280,60.28062229166666,60.797204010416664,66.0,90.0
281,60.89286729166666,61.03062241666666,59.0,80.0
282,59.36225479166666,61.28955103124999,47.0,74.0
283,61.19898979166666,61.30995919791666,63.0,93.0
284,61.19898979166666,61.33419389583333,59.0,102.0
285,60.58674479166666,61.362255125,54.0,72.0
286,61.811234791666664,62.13011239583333,58.0,74.0
287,61.811234791666664,62.46046959374999,61.0,74.0
288,62.42347979166666,62.515316541666664,58.0,72.0
289,62.72960229166666,62.849500270833325,58.0,93.0
290,62.72960229166666,62.956643145833326,66.0,93.0
291,62.117357291666664,63.45791873958333,49.0,36.0
292,63.34184729166666,63.769143281249995,58.0,90.0
293,63.34184729166666,63.78444940624999,61.0,93.0
294,61.811234791666664,64.01276577083333,42.0,83.0
295,63.64796979166666,64.06761271875,49.0,60.0
296,63.95409229166666,64.08291884375,58.0,93.0
297,64.26021479166666,64.63649036458332,56.0,87.0
298,64.26021479166666,64.82016386458332,59.0,87.0
299,64.87245979166666,64.95409245833332,56.0,55.0
300,64.56633729166666,65.38904151041666,51.0,54.0
301,65.17858229166666,65.57399052083333,56.0,93.0
302,65.17858229166666,65.59822521874999,63.0,93.0
303,65.79082729166666,65.97194977083333,56.0,93.0
304,65.48470479166666,66.12373551041667,51.0,43.0
305,65.79082729166666,66.17858245833332,59.0,102.0
306,64.26021479166666,66.30230696874999,44.0,85.0
307,66.40307229166666,66.55358252083333,56.0,93.0
308,66.70919479166666,67.102052,54.0,102.0
309,67.32143979166666,67.46557246875,54.0,74.0
310,67.01531729166666,67.69516434375,49.0,58.0
311,67.62756229166666,67.96429704166665,54.0,102.0
312,67.62756229166666,68.15945013541666,61.0,90.0
313,68.23980729166666,68.42220528124999,54.0,93.0
314,67.93368479166666,68.86608290625,49.0,69.0
315,68.54592979166667,68.8699094375,58.0,95.0
316,66.70919479166666,68.91072577083332,42.0,85.0
317,68.85205229166667,69.09057273958332,59.0,103.0
318,69.15817479166667,69.67985855208333,56.0,90.0
319,69.77041979166665,69.93878716666666,52.0,87.0
320,70.07654229166666,70.55613420833333,52.0,93.0
321,70.07654229166666,70.80358322916666,59.0,80.0
322,70.68878729166666,70.82909343749999,52.0,70.0
323,70.99490979166666,71.15562410416666,52.0,102.0
324,69.46429729166665,71.28445065624999,47.0,60.0
325,70.99490979166666,71.2882771875,56.0,105.0
326,69.15817479166667,71.36098128124999,40.0,87.0
327,71.30103229166666,71.45281803124999,52.0,93.0
328,71.60715479166666,72.28317531249999,39.0,87.0
329,71.91327729166666,72.31761409375,46.0,71.0
330,72.21939979166666,72.32526715624999,51.0,105.0
331,72.83164479166666,73.15689994791666,56.0,83.0
332,72.83164479166666,73.16710403124999,59.0,72.0
333,73.44388979166666,73.58164491666666,56.0,93.0
334,73.44388979166666,73.62373676041666,59.0,102.0
335,73.44388979166666,73.78062454166665,63.0,95.0
336,72.83164479166666,73.90052252083332,44.0,85.0
337,73.13776729166666,73.90434905208333,51.0,68.0
338,73.75001229166666,73.92603272916666,56.0,87.0
339,74.05613479166666,74.20154297916666,56.0,74.0
340,74.05613479166666,74.39797158333333,61.0,80.0
341,74.66837979166667,74.739808375,61.0,49.0
342,74.36225729166667,74.74235939583333,56.0,72.0
343,74.97450229166665,75.1301145625,56.0,93.0
344,74.97450229166665,75.19771661458333,65.0,93.0
345,75.58674729166665,75.79465548958332,56.0,93.0
346,74.05613479166666,76.13649228125,49.0,93.0
347,75.58674729166665,76.239808625,61.0,102.0
348,76.50511479166666,76.67985971875,58.0,83.0
349,76.50511479166666,76.86608423958333,61.0,87.0
350,76.81123729166666,76.94133935416666,58.0,85.0
351,77.11735979166666,77.21940062499999,61.0,80.0
352,77.11735979166666,77.22577817708333,58.0,68.0
353,77.11735979166666,77.22960470833333,66.0,70.0
354,77.42348229166666,77.75639051041667,58.0,102.0
355,77.42348229166666,77.84567623958333,66.0,102.0
356,77.42348229166666,77.84822726041666,61.0,110.0
357,78.03572729166666,78.16200282291666,58.0,72.0
358,78.34184979166666,78.51531920833332,61.0,102.0
359,78.34184979166666,78.53700288541665,58.0,102.0
360,76.50511479166666,78.92730907291666,42.0,87.0
361,77.72960479166666,78.92986009375,49.0,59.0
362,78.64797229166666,78.95154377083333,64.0,87.0
363,78.95409479166666,79.33037036458333,59.0,85.0
364,78.95409479166666,79.52679896874999,63.0,93.0
365,79.56633979166666,79.68878879166665,59.0,69.0
366,79.26021729166666,79.98088067708332,54.0,72.0
367,79.87246229166666,80.30996236458333,59.0,95.0
368,79.87246229166666,80.38904401041665,66.0,90.0
369,80.48470729166667,80.62246241666666,59.0,80.0
370,78.95409479166666,80.88139103124999,47.0,74.0
371,80.79082979166665,80.90179919791666,63.0,93.0
372,80.79082979166665,80.92603389583333,59.0,102.0
373,80.17858479166667,80.954095125,54.0,72.0
374,81.40307479166665,81.72195239583333,58.0,74.0
375,81.40307479166665,82.05230959375,61.0,74.0
376,82.01531979166666,82.10715654166665,58.0,72.0
377,82.32144229166666,82.44134027083332,58.0,93.0
378,82.32144229166666,82.54848314583333,66.0,93.0
379,81.70919729166665,83.04975873958332,49.0,36.0
380,82.93368729166666,83.36098328124999,58.0,90.0
381,82.93368729166666,83.37628940625,61.0,93.0
382,81.40307479166665,83.60460577083333,42.0,83.0
383,83.23980979166666,83.65945271874999,49.0,60.0
384,83.54593229166666,83.67475884375,58.0,93.0
385,83.85205479166666,84.22833036458333,56.0,87.0
386,83.85205479166666,84.41200386458333,59.0,87.0
387,84.46429979166666,84.54593245833333,56.0,55.0
388,84.15817729166666,84.98088151041667,51.0,54.0
389,84.77042229166666,85.16583052083332,56.0,93.0
390,84.77042229166666,85.19006521875,63.0,93.0
391,85.38266729166666,85.56378977083332,56.0,93.0
392,85.07654479166666,85.71557551041666,51.0,43.0
393,85.38266729166666,85.77042245833333,59.0,102.0
394,83.85205479166666,85.89414696875,44.0,85.0
395,85.99491229166667,86.14542252083332,56.0,93.0
396,86.30103479166665,86.67220832291666,54.0,93.0
397,86.30103479166665,86.91455530208333,57.0,85.0
398,86.91327979166665,87.0841981875,54.0,105.0
399,86.60715729166665,87.35205537499999,49.0,69.0
400,87.21940229166665,87.37629007291666,57.0,83.0
401,86.30103479166665,87.40307579166665,42.0,93.0
402,87.52552479166665,87.69006563541666,54.0,74.0
403,87.52552479166665,87.92986159374999,59.0,85.0
404,87.83164729166666,88.01021874999999,54.0,93.0
405,88.13776979166666,88.31889227083333,54.0,93.0
406,87.52552479166665,88.48981066666666,47.0,85.0
407,88.13776979166666,88.56634129166666,57.0,95.0
408,88.44389229166666,88.57909639583332,54.0,87.0
409,88.13776979166666,88.60460660416666,63.0,102.0
410,88.75001479166666,89.15180057291666,56.0,80.0
411,89.36225979166666,89.48470879166666,56.0,61.0
412,88.75001479166666,89.49236185416666,59.0,74.0
413,89.66838229166666,89.83674966666666,56.0,93.0
414,89.66838229166666,89.87246395833333,64.0,90.0
415,90.28062729166666,90.45154568749999,59.0,70.0
416,90.58674979166666,90.77552533333332,56.0,105.0
417,89.05613729166666,90.87373963541665,47.0,61.0
418,88.75001479166666,90.94389270833332,40.0,87.0
419,90.89287229166666,90.97067842708333,56.0,53.0
420,90.89287229166666,90.98598455208332,59.0,95.0
421,91.19899479166666,91.25001520833332,52.0,74.0
422,91.19899479166666,91.60333159374999,51.0,69.0
423,91.19899479166666,91.64797445833332,58.0,83.0
424,91.19899479166666,91.89925001041665,39.0,87.0
425,91.50511729166666,91.90307654166666,46.0,68.0
426,91.81123979166665,91.92476021875,51.0,93.0
427,91.81123979166665,91.96047451041666,58.0,87.0
428,92.42348479166665,92.77680117708333,56.0,87.0
429,92.42348479166665,92.84695425,59.0,85.0
430,93.03572979166665,93.40435230208332,56.0,105.0
431,92.72960729166665,93.47450537499999,51.0,87.0
432,92.42348479166665,93.47705639583333,44.0,87.0
433,93.34185229166665,93.52169926041665,59.0,105.0
434,93.64797479166666,93.82271971875,56.0,87.0
435,93.64797479166666,94.03700546875,61.0,93.0
436,93.95409729166666,94.10078098958333,56.0,83.0
437,94.26021979166666,94.38011777083332,56.0,93.0
438,94.26021979166666,94.40945451041665,64.0,87.0
439,94.56634229166666,94.96812807291666,56.0,93.0
440,93.64797479166666,95.02042399999999,49.0,74.0
441,94.56634229166666,95.26659751041666,64.0,102.0
442,95.17858729166666,95.3188934375,56.0,74.0
443,95.48470979166666,95.60715879166666,56.0,95.0
444,95.48470979166666,95.78700576041666,61.0,95.0
445,95.79083229166666,95.93496496875,56.0,80.0
446,96.09695479166666,96.79593449999999,58.0,74.0
447,96.09695479166666,96.84185287499999,54.0,80.0
448,96.70919979166666,96.87374063541665,61.0,85.0
449,97.01532229166666,97.65052647916666,54.0,85.0
450,97.01532229166666,97.6913428125,66.0,80.0
451,97.62756729166665,97.84695508333333,61.0,87.0
452,97.93368979166665,98.01277143749999,61.0,49.0
453,97.93368979166665,98.33802659374999,54.0,102.0
454,98.23981229166665,98.43496538541666,58.0,93.0
455,98.23981229166665,98.46175110416665,61.0,90.0
456,96.40307729166666,98.52935315625,49.0,68.0
457,96.09695479166666,98.55103683333333,42.0,74.0
458,99.00511854166666,99.38777166666665,52.0,95.0
459,98.54593479166665,99.57527169791666,40.0,95.0
460,99.31124104166666,99.61736354166666,56.0,93.0
461,98.85205729166665,99.62119007291666,47.0,68.0
462,99.61736354166666,99.75766968749998,59.0,69.0
463,100.22960854166666,100.42476163541666,54.0,80.0
464,100.53573104166665,100.69644535416666,54.0,80.0
465,100.53573104166665,100.70282290624999,58.0,90.0
466,100.07654729166666,100.80103720833333,49.0,58.0
467,99.77042479166666,100.84057803124999,42.0,90.0
468,100.99491479166666,101.16455767708332,54.0,87.0
469,100.99491479166666,101.31379239583332,59.0,87.0
470,101.30103729166666,101.40690465624999,54.0,74.0
471,101.45409854166665,101.80486390624999,63.0,102.0
472,101.76022104166665,101.90945576041666,54.0,85.0
473,100.99491479166666,102.06379252083332,47.0,95.0
474,101.91328229166666,102.13139457291666,61.0,69.0
475,102.83164979166666,102.97195593749998,56.0,93.0
476,102.52552729166666,103.01022124999999,51.0,72.0
477,102.83164979166666,103.04976207291665,59.0,93.0
478,102.21940479166666,103.08037432291665,44.0,93.0
479,103.13777229166665,103.21812944791665,56.0,87.0
480,103.44389479166665,103.80103770833333,52.0,83.0
481,103.44389479166665,103.90690507291666,59.0,53.0
482,103.90307854166666,104.38522147916666,52.0,93.0
483,103.44389479166665,104.44644597916665,40.0,80.0
484,104.20920104166666,104.50001741666665,56.0,102.0
485,103.75001729166665,104.51022149999999,47.0,63.0
486,104.51532354166666,104.65180315625,59.0,67.0
487,104.66838479166665,104.95282361458332,54.0,63.0
488,104.66838479166665,104.98726239583333,58.0,69.0
489,105.12756854166666,105.43369104166666,54.0,87.0
490,105.43369104166666,105.53828289583332,58.0,95.0
491,104.97450729166665,105.57909922916666,49.0,59.0
492,104.66838479166665,105.59695637499999,42.0,87.0
493,105.89287479166666,106.01915032291666,54.0,74.0
494,105.89287479166666,106.24364015625,59.0,72.0
495,106.19899729166666,106.30741567708333,54.0,72.0
496,106.35205854166665,106.69006880208332,63.0,105.0
497,106.65818104166665,106.78828310416665,54.0,93.0
498,105.89287479166666,106.97705864583332,47.0,83.0
499,106.81124229166666,106.97960966666666,61.0,103.0
500,106.96430354166665,107.06634437499999,54.0,71.0
501,107.11736479166666,107.42731382291666,59.0,69.0
502,107.57654854166665,107.77297714583332,56.0,93.0
503,108.03573229166666,108.16200782291665,56.0,87.0
504,107.88267104166665,108.18241598958332,59.0,102.0
505,107.42348729166666,108.38394663541666,51.0,68.0
506,107.11736479166666,108.39797725,44.0,87.0
507,108.80103854166666,109.18369166666666,52.0,95.0
508,108.34185479166666,109.37119169791666,40.0,95.0
509,109.10716104166666,109.41328354166666,56.0,93.0
510,108.64797729166666,109.41711007291666,47.0,68.0
511,109.41328354166666,109.5535896875,59.0,69.0
512,110.02552854166666,110.22068163541665,54.0,80.0
513,110.33165104166666,110.49236535416665,54.0,80.0
514,110.33165104166666,110.49874290624999,58.0,90.0
515,109.87246729166665,110.59695720833332,49.0,58.0
516,109.56634479166665,110.63649803124999,42.0,90.0
517,110.79083479166665,110.96047767708332,54.0,87.0
518,110.79083479166665,111.10971239583333,59.0,87.0
519,111.09695729166666,111.20282465624999,54.0,74.0
520,111.25001854166666,111.60078390624999,63.0,102.0
521,111.55614104166665,111.70537576041666,54.0,85.0
522,110.79083479166665,111.85971252083333,47.0,95.0
523,111.70920229166666,111.92731457291666,61.0,69.0
524,112.62756979166666,112.7678759375,56.0,93.0
525,112.32144729166666,112.80614125,51.0,72.0
526,112.62756979166666,112.84568207291666,59.0,93.0
527,112.01532479166666,112.87629432291665,44.0,93.0
528,112.93369229166666,113.01404944791666,56.0,87.0
529,113.23981479166666,113.59695770833332,52.0,83.0
530,113.23981479166666,113.70282507291665,59.0,53.0
531,113.69899854166665,114.18114147916666,52.0,93.0
532,113.23981479166666,114.24236597916665,40.0,80.0
533,114.00512104166665,114.29593741666666,56.0,102.0
534,113.54593729166666,114.3061415,47.0,63.0
535,114.31124354166666,114.44772315624999,59.0,67.0
536,114.46430479166665,114.74874361458332,54.0,63.0
537,114.46430479166665,114.78318239583332,58.0,69.0
538,114.92348854166666,115.22961104166666,54.0,87.0
539,115.22961104166666,115.33420289583333,58.0,95.0
540,114.77042729166665,115.37501922916665,49.0,59.0
541,114.46430479166665,115.39287637499999,42.0,87.0
542,115.68879479166665,115.81507032291665,54.0,74.0
543,115.68879479166665,116.03956015624999,59.0,72.0
544,115.99491729166665,116.10333567708332,54.0,72.0
545,116.14797854166666,116.48598880208333,63.0,105.0
546,116.45410104166666,116.58420310416666,54.0,93.0
547,115.68879479166665,116.77297864583332,47.0,83.0
548,116.60716229166665,116.77552966666666,61.0,103.0
549,116.76022354166666,116.862264375,54.0,71.0
550,116.91328479166665,117.22323382291665,59.0,69.0
551,117.37246854166665,117.56889714583332,56.0,93.0
552,117.83165229166666,117.95792782291666,56.0,87.0
553,117.67859104166665,117.97833598958333,59.0,102.0
554,117.21940729166666,118.17986663541666,51.0,68.0
555,116.91328479166665,118.19389724999999,44.0,87.0
556,118.13777479166666,118.50001974999999,52.0,68.0
557,118.13777479166666,118.76405040624999,59.0,71.0
558,118.13777479166666,118.96940758333332,40.0,85.0
559,118.75001979166666,119.13905046874999,52.0,95.0
560,118.44389729166666,119.14287699999998,47.0,64.0
561,119.05614229166666,119.27808110416666,59.0,80.0
562,119.36226479166666,119.76022404166666,54.0,85.0
563,119.36226479166666,119.95027509375,58.0,71.0
564,119.36226479166666,120.23854044791665,42.0,87.0
565,119.66838729166666,120.25767310416666,49.0,60.0
566,119.97450979166666,120.29466290624998,54.0,87.0
567,120.58675479166665,121.00639771875,59.0,87.0
568,120.89287729166665,121.15435692708333,54.0,87.0
569,121.19899979166665,121.53445903125,58.0,93.0
570,120.58675479166665,121.59313251041665,47.0,80.0
571,121.50512229166665,121.64160190624999,54.0,80.0
572,120.89287729166665,121.67859170833333,51.0,60.0
573,121.81124479166665,122.14415301041666,56.0,72.0
574,121.81124479166665,122.50129592708332,59.0,68.0
575,122.11736729166665,122.52553062499999,51.0,66.0
576,121.81124479166665,122.60206124999999,44.0,85.0
577,122.42348979166665,122.80996944791666,56.0,87.0
578,122.72961229166665,122.88394905208332,59.0,71.0
579,123.03573479166666,123.08420418749999,52.0,65.0
580,123.03573479166666,123.68752061458332,56.0,87.0
581,123.03573479166666,123.87374513541666,40.0,83.0
582,123.64797979166666,124.01405128124999,52.0,102.0
583,123.34185729166666,124.02297985416665,47.0,64.0
584,123.95410229166666,124.18752069791665,56.0,102.0
585,124.26022479166666,124.63777587499999,54.0,74.0
586,124.26022479166666,124.86481672916665,58.0,74.0
587,124.87246979166666,125.04338818749999,54.0,95.0
588,124.26022479166666,125.12502085416665,42.0,74.0
589,124.56634729166666,125.13267391666666,49.0,65.0
590,125.48471479166666,125.83548015624999,59.0,70.0
591,125.79083729166665,126.16201082291666,54.0,72.0
592,126.09695979166665,126.51405169791666,63.0,105.0
593,125.48471479166666,126.54593945833332,47.0,83.0
594,126.40308229166665,126.56889864583331,54.0,66.0
595,126.70920479166665,127.05104158333332,56.0,74.0
596,126.70920479166665,127.31889877083331,59.0,68.0
597,127.01532729166665,127.37374571874999,51.0,65.0
598,126.70920479166665,127.39798041666666,44.0,87.0
599,127.32144979166665,127.44262328125,56.0,87.0
600,127.93369479166665,128.2946642395833,52.0,80.0
601,127.93369479166665,128.61481735416666,59.0,70.0
602,127.93369479166665,128.85333780208333,40.0,80.0
603,128.54593979166665,128.90563372916665,52.0,102.0
604,128.23981729166667,128.91201128125,47.0,60.0
605,128.85206229166664,129.04721538541665,56.0,93.0
606,129.15818479166666,129.5586950625,54.0,69.0
607,129.15818479166666,129.7117563125,58.0,80.0
608,129.77042979166666,130.14415434375,54.0,93.0
609,129.46430729166664,130.18114414583331,49.0,63.0
610,129.15818479166666,130.18497067708333,42.0,80.0
611,130.38267479166666,130.72323607291665,54.0,72.0
612,130.38267479166666,131.01022591666666,59.0,72.0
613,130.99491979166666,131.37374638541667,54.0,87.0
614,130.38267479166666,131.45155252083333,47.0,66.0
615,130.68879729166665,131.50639946874998,51.0,63.0
616,131.30104229166665,132.2168587708333,59.0,93.0
617,132.21940979166666,132.60588944791667,56.0,90.0
618,131.91328729166665,132.68624660416666,51.0,72.0
619,131.60716479166666,132.69645068749998,44.0,87.0
620,132.52553229166665,133.16583852083332,59.0,90.0
621,132.83165479166667,133.42731815624998,47.0,87.0
622,133.13777729166665,133.51787939583332,56.0,85.0
623,133.44389979166667,133.76915494791666,59.0,102.0
624,133.75002229166665,133.8903284375,56.0,93.0
625,134.05614479166667,134.4209407708333,54.0,74.0
626,134.05614479166667,134.70282857291664,58.0,83.0
627,134.36226729166665,134.96685922916666,49.0,60.0
628,134.66838979166664,134.97068576041664,54.0,90.0
629,134.05614479166667,134.98726739583333,42.0,74.0
630,135.28063479166664,135.84058386458332,47.0,95.0
631,135.58675729166666,135.98854307291666,54.0,71.0
632,135.89287979166664,136.24619617708333,59.0,93.0
633,136.50512479166665,137.6403290625,59.0,87.0
634,136.50512479166665,137.6403290625,63.0,85.0
635,136.19900229166666,137.66328825,54.0,93.0
636,137.72961479166665,138.10333934374998,52.0,87.0
637,137.72961479166665,138.32782917708332,59.0,68.0
638,138.34185979166665,138.68497209375,52.0,103.0
639,137.72961479166665,138.72196189583332,40.0,90.0
640,138.03573729166666,138.78446190625,47.0,68.0
641,138.64798229166666,138.8788496770833,59.0,102.0
642,138.95410479166665,139.36609465625,54.0,74.0
643,138.95410479166665,139.46813548958332,58.0,80.0
644,138.95410479166665,139.6326763333333,42.0,90.0
645,139.26022729166667,139.65818654166665,49.0,61.0
646,139.56634979166665,139.66583960416665,54.0,105.0
647,140.17859479166665,140.32272746874997,58.0,64.0
648,140.17859479166665,140.54976832291666,63.0,85.0
649,140.48471729166664,140.831656125,58.0,93.0
650,140.17859479166665,140.85971735416666,51.0,95.0
651,140.79083979166666,141.05742146875,63.0,102.0
652,141.09696229166664,141.21048271875,58.0,102.0
653,141.40308479166666,141.8214522083333,56.0,85.0
654,141.40308479166666,141.84058486458332,59.0,93.0
655,142.01532979166666,142.17731961458333,56.0,90.0
656,142.01532979166666,142.27553391666666,59.0,95.0
657,142.01532979166666,142.3495135208333,63.0,102.0
658,141.70920729166664,142.4311461875,51.0,74.0
659,142.32145229166665,142.47961558333333,56.0,80.0
660,141.40308479166666,142.48089109375,44.0,87.0
661,142.62757479166666,142.882676875,56.0,80.0
662,142.62757479166666,143.07910547916666,61.0,87.0
663,142.93369729166665,143.34186062499998,56.0,80.0
664,143.23981979166666,143.39670757291665,61.0,70.0
665,142.62757479166666,143.72961579166665,49.0,93.0
666,143.54594229166665,143.80104437499998,56.0,93.0
667,143.54594229166665,143.88522806249998,64.0,93.0
668,144.46430979166666,144.89033027083332,54.0,103.0
669,144.15818729166665,144.94390170833333,49.0,74.0
670,143.85206479166666,144.9719629375,42.0,85.0
671,144.77043229166665,144.98854457291665,58.0,102.0
672,145.07655479166667,145.239820125,54.0,85.0
673,145.07655479166667,145.4413507708333,59.0,85.0
674,145.38267729166665,145.84951410416664,54.0,87.0
675,145.68879979166664,146.04976923958333,59.0,80.0
676,145.99492229166665,146.15053456249998,61.0,87.0
677,146.30104479166664,146.45155502083333,54.0,83.0
678,146.30104479166664,146.69645302083333,63.0,95.0
679,146.60716729166666,146.7627795625,54.0,93.0
680,145.07655479166667,147.03828981249998,47.0,93.0
681,146.91328979166664,147.04721838541664,54.0,102.0
682,146.91328979166664,147.23216739583333,59.0,95.0
683,147.21941229166666,147.34186129166665,54.0,95.0
684,147.52553479166664,147.91201444791665,52.0,80.0
685,147.52553479166664,148.24619817708333,59.0,74.0
686,148.13777979166665,148.5229839375,52.0,102.0
687,147.52553479166664,148.55232067708332,40.0,87.0
688,147.83165729166666,148.60461660416667,47.0,59.0
689,148.44390229166666,148.64798395833333,56.0,102.0
690,148.75002479166665,149.09696362499997,54.0,80.0
691,148.75002479166665,149.34568815625,58.0,80.0
692,149.05614729166666,149.44390245833333,49.0,61.0
693,148.75002479166665,149.48854532291665,42.0,90.0
694,149.36226979166665,149.49874940625,54.0,93.0
695,149.97451479166665,150.35461689583332,58.0,74.0
696,149.97451479166665,150.59696387499997,63.0,70.0
697,149.97451479166665,150.73854553125,39.0,93.0
698,150.28063729166666,150.78318839583332,46.0,80.0
699,150.58675979166665,150.89670882291665,58.0,95.0
700,150.89288229166667,151.056147625,63.0,102.0
701,151.19900479166665,151.59441302083331,56.0,71.0
702,151.19900479166665,151.8597191875,59.0,69.0
703,151.81124979166665,152.18242332291666,56.0,93.0
704,151.50512729166664,152.26022945833333,51.0,72.0
705,151.19900479166665,152.27681109374998,44.0,87.0
706,152.11737229166664,152.30997436458333,59.0,93.0
707,152.42349479166666,152.63395401041666,56.0,83.0
708,152.42349479166666,152.79466832291666,61.0,87.0
709,152.72961729166664,153.11227041666666,56.0,74.0
710,153.03573979166666,153.18114797916664,61.0,45.0
711,153.34186229166664,153.64670928125,56.0,80.0
712,153.34186229166664,154.01533179166665,61.0,93.0
713,153.34186229166664,154.04594404166664,65.0,87.0
714,153.95410729166665,154.09058690625,56.0,67.0
715,154.26022979166666,154.36864817708332,56.0,102.0
716,152.42349479166666,154.46558696875,49.0,90.0
717,154.26022979166666,154.52681146875,61.0,95.0
718,154.56635229166665,154.67477067708333,56.0,74.0
719,155.17859729166665,155.3138013958333,49.0,68.0
720,155.17859729166665,155.32400547916666,42.0,87.0
721,155.17859729166665,155.33420956249998,54.0,74.0
722,155.17859729166665,155.33676058333333,61.0,74.0
723,155.48471979166666,155.87757699999997,42.0,102.0
724,155.48471979166666,155.88012802083333,49.0,87.0
725,155.48471979166666,155.88650557291666,54.0,93.0
726,155.48471979166666,155.91329129166664,61.0,90.0
727,156.09696479166666,156.20538317708332,42.0,87.0
728,156.09696479166666,156.20793419791664,54.0,74.0
729,156.09696479166666,156.21686277083333,49.0,74.0
730,156.09696479166666,156.21686277083333,61.0,74.0
731,156.40308729166665,157.23727110416664,54.0,83.0
732,156.40308729166665,157.239822125,49.0,80.0
733,156.40308729166665,157.24619967708333,61.0,74.0
734,156.40308729166665,157.25130171874997,42.0,90.0
735,157.32145479166664,157.69773036458332,59.0,85.0
736,157.32145479166664,157.89415896875,63.0,93.0
737,157.93369979166664,158.05614879166666,59.0,69.0
738,157.62757729166665,158.3482406770833,54.0,72.0
739,158.23982229166666,158.67732236458332,59.0,95.0
740,158.23982229166666,158.75640401041665,66.0,90.0
741,158.85206729166666,158.98982241666664,59.0,80.0
742,157.32145479166664,159.24875103124998,47.0,74.0
743,159.15818979166664,159.26915919791665,63.0,93.0
744,159.15818979166664,159.2933938958333,59.0,102.0
745,158.54594479166664,159.32145512499997,54.0,72.0
746,159.77043479166664,160.08931239583333,58.0,74.0
747,159.77043479166664,160.41966959374997,61.0,74.0
748,160.38267979166665,160.47451654166665,58.0,72.0
749,160.68880229166666,160.80870027083333,58.0,93.0
750,160.68880229166666,160.91584314583332,66.0,93.0
751,160.07655729166666,161.41711873958332,49.0,36.0
752,161.30104729166666,161.72834328124998,58.0,90.0
753,161.30104729166666,161.74364940624997,61.0,93.0
754,159.77043479166664,161.97196577083332,42.0,83.0
755,161.60716979166665,162.02681271875,49.0,60.0
756,161.91329229166666,162.04211884375,58.0,93.0
757,162.21941479166665,162.5956903645833,56.0,87.0
758,162.21941479166665,162.77936386458333,59.0,87.0
759,162.83165979166665,162.91329245833333,56.0,55.0
760,162.52553729166664,163.34824151041664,51.0,54.0
761,163.13778229166664,163.53319052083333,56.0,93.0
762,163.13778229166664,163.55742521874998,63.0,93.0
763,163.75002729166664,163.93114977083331,56.0,93.0
764,163.44390479166665,164.08293551041666,51.0,43.0
765,163.75002729166664,164.1377824583333,59.0,102.0
766,162.21941479166665,164.26150696874998,44.0,85.0
767,164.36227229166664,164.51278252083333,56.0,93.0
768,164.66839479166666,165.061252,54.0,102.0
769,165.28063979166666,165.42477246874998,54.0,74.0
770,164.97451729166664,165.65436434375,49.0,58.0
771,165.58676229166664,165.92349704166665,54.0,102.0
772,165.58676229166664,166.11865013541666,61.0,90.0
773,166.19900729166665,166.38140528124998,54.0,93.0
774,165.89288479166666,166.82528290624998,49.0,69.0
775,166.50512979166666,166.8291094375,58.0,95.0
776,164.66839479166666,166.8699257708333,42.0,85.0
777,166.81125229166665,167.04977273958332,59.0,103.0
778,167.11737479166666,167.63905855208333,56.0,90.0
779,167.72961979166666,167.89798716666664,52.0,87.0
780,168.03574229166665,168.51533420833331,52.0,93.0
781,168.03574229166665,168.76278322916664,59.0,80.0
782,168.64798729166665,168.7882934375,52.0,70.0
783,168.95410979166664,169.11482410416664,52.0,102.0
784,167.42349729166665,169.24365065625,47.0,60.0
785,168.95410979166664,169.24747718749998,56.0,105.0
786,167.11737479166666,169.32018128124997,40.0,87.0
787,169.26023229166665,169.41201803124997,52.0,93.0
788,169.56635479166664,170.24237531249997,39.0,87.0
789,169.87247729166666,170.27681409374998,46.0,71.0
790,170.17859979166664,170.28446715624997,51.0,105.0
791,170.79084479166664,171.11609994791664,56.0,83.0
792,170.79084479166664,171.12630403125,59.0,72.0
793,171.40308979166664,171.54084491666666,56.0,93.0
794,171.40308979166664,171.58293676041666,59.0,102.0
795,171.40308979166664,171.73982454166665,63.0,95.0
796,170.79084479166664,171.85972252083332,44.0,85.0
797,171.09696729166666,171.86354905208333,51.0,68.0
798,171.70921229166666,171.88523272916666,56.0,87.0
799,172.01533479166665,172.16074297916666,56.0,74.0
800,172.01533479166665,172.35717158333333,61.0,80.0
801,172.62757979166665,172.69900837499998,61.0,49.0
802,172.32145729166666,172.70155939583333,56.0,72.0
803,172.93370229166666,173.0893145625,56.0,93.0
804,172.93370229166666,173.1569166145833,65.0,93.0
805,173.54594729166666,173.75385548958332,56.0,93.0
806,172.01533479166665,174.09569228125,49.0,93.0
807,173.54594729166666,174.19900862499998,61.0,102.0
808,174.46431479166665,174.63905971875,58.0,83.0
809,174.46431479166665,174.8252842395833,61.0,87.0
810,174.77043729166664,174.90053935416665,58.0,85.0
811,175.07655979166665,175.17860062499997,61.0,80.0
812,175.07655979166665,175.1849781770833,58.0,68.0
813,175.07655979166665,175.18880470833332,66.0,70.0
814,175.38268229166664,175.71559051041666,58.0,102.0
815,175.38268229166664,175.8048762395833,66.0,102.0
816,175.38268229166664,175.80742726041666,61.0,110.0
817,175.99492729166664,176.12120282291664,58.0,72.0
818,176.30104979166666,176.4745192083333,61.0,102.0
819,176.30104979166666,176.49620288541664,58.0,102.0
820,174.46431479166665,176.88650907291665,42.0,87.0
821,175.68880479166666,176.88906009374998,49.0,59.0
822,176.60717229166664,176.9107437708333,64.0,87.0
823,176.91329479166666,177.2895703645833,59.0,85.0
824,176.91329479166666,177.48599896874998,63.0,93.0
825,177.52553979166666,177.64798879166665,59.0,69.0
826,177.21941729166664,177.94008067708333,54.0,72.0
827,177.83166229166665,178.2691623645833,59.0,95.0
828,177.83166229166665,178.34824401041664,66.0,90.0
829,178.44390729166665,178.58166241666666,59.0,80.0
830,176.91329479166666,178.84059103124997,47.0,74.0
831,178.75002979166666,178.86099919791664,63.0,93.0
832,178.75002979166666,178.88523389583332,59.0,102.0
833,178.13778479166666,178.913295125,54.0,72.0
834,179.36227479166664,179.68115239583332,58.0,74.0
835,179.36227479166664,180.01150959375,61.0,74.0
836,179.97451979166664,180.06635654166664,58.0,72.0
837,180.28064229166665,180.40054027083332,58.0,93.0
838,180.28064229166665,180.5076831458333,66.0,93.0
839,179.66839729166665,181.0089587395833,49.0,36.0
840,180.89288729166665,181.32018328125,58.0,90.0
841,180.89288729166665,181.33548940625,61.0,93.0
842,179.36227479166664,181.5638057708333,42.0,83.0
843,181.19900979166664,181.61865271874998,49.0,60.0
844,181.50513229166665,181.63395884374998,58.0,93.0
845,181.81125479166664,182.18753036458332,56.0,87.0
846,181.81125479166664,182.37120386458332,59.0,87.0
847,182.42349979166664,182.50513245833332,56.0,55.0
848,182.11737729166666,182.94008151041666,51.0,54.0
849,182.72962229166666,183.12503052083332,56.0,93.0
850,182.72962229166666,183.14926521874997,63.0,93.0
851,183.34186729166666,183.5229897708333,56.0,93.0
852,183.03574479166664,183.67477551041665,51.0,43.0
853,183.34186729166666,183.72962245833332,59.0,102.0
854,181.81125479166664,183.85334696874997,44.0,85.0
855,183.95411229166666,184.10462252083332,56.0,93.0
856,184.26023479166665,184.63140832291666,54.0,93.0
857,184.26023479166665,184.8737553020833,57.0,85.0
858,184.87247979166665,185.04339818749997,54.0,105.0
859,184.56635729166666,185.31125537499997,49.0,69.0
860,185.17860229166664,185.33549007291666,57.0,83.0
861,184.26023479166665,185.36227579166666,42.0,93.0
862,185.48472479166665,185.64926563541664,54.0,74.0
863,185.48472479166665,185.88906159374997,59.0,85.0
864,185.79084729166664,185.96941875,54.0,93.0
865,186.09696979166665,186.27809227083333,54.0,93.0
866,185.48472479166665,186.44901066666665,47.0,85.0
867,186.09696979166665,186.52554129166666,57.0,95.0
868,186.40309229166664,186.53829639583333,54.0,87.0
869,186.09696979166665,186.56380660416664,63.0,102.0
870,186.70921479166665,187.11100057291665,56.0,80.0
871,187.32145979166665,187.44390879166664,56.0,61.0
872,186.70921479166665,187.45156185416664,59.0,74.0
873,187.62758229166664,187.79594966666664,56.0,93.0
874,187.62758229166664,187.8316639583333,64.0,90.0
875,188.23982729166664,188.41074568749997,59.0,70.0
876,188.54594979166666,188.7347253333333,56.0,105.0
877,187.01533729166664,188.83293963541664,47.0,61.0
878,186.70921479166665,188.9030927083333,40.0,87.0
879,188.85207229166664,188.9298784270833,56.0,53.0
880,188.85207229166664,188.9451845520833,59.0,95.0
881,189.15819479166666,189.20921520833332,52.0,74.0
882,189.15819479166666,189.56253159374998,51.0,69.0
883,189.15819479166666,189.6071744583333,58.0,83.0
884,189.15819479166666,189.85845001041665,39.0,87.0
885,189.46431729166665,189.86227654166666,46.0,68.0
886,189.77043979166666,189.88396021875,51.0,93.0
887,189.77043979166666,189.91967451041666,58.0,87.0
888,190.38268479166666,190.73600117708332,56.0,87.0
889,190.38268479166666,190.80615425,59.0,85.0
890,190.99492979166664,191.36355230208332,56.0,105.0
891,190.68880729166665,191.433705375,51.0,87.0
892,190.38268479166666,191.4362563958333,44.0,87.0
893,191.30105229166665,191.48089926041663,59.0,105.0
894,191.60717479166664,191.78191971874998,56.0,87.0
895,191.60717479166664,191.99620546875,61.0,93.0
896,191.91329729166665,192.05998098958332,56.0,83.0
897,192.21941979166664,192.3393177708333,56.0,93.0
898,192.21941979166664,192.36865451041666,64.0,87.0
899,192.52554229166665,192.92732807291665,56.0,93.0
900,191.60717479166664,192.97962399999997,49.0,74.0
901,192.52554229166665,193.22579751041664,64.0,102.0
902,193.13778729166665,193.2780934375,56.0,74.0
903,193.44390979166664,193.56635879166666,56.0,95.0
904,193.44390979166664,193.74620576041664,61.0,95.0
905,193.75003229166666,193.89416496874998,56.0,80.0
906,194.05615479166664,194.75513449999997,58.0,74.0
907,194.05615479166664,194.80105287499998,54.0,80.0
908,194.66839979166664,194.83294063541666,61.0,85.0
909,194.97452229166666,195.60972647916665,54.0,85.0
910,194.97452229166666,195.6505428125,66.0,80.0
911,195.58676729166666,195.80615508333332,61.0,87.0
912,195.89288979166665,195.97197143749997,61.0,49.0
913,195.89288979166665,196.29722659374997,54.0,102.0
914,196.19901229166666,196.39416538541664,58.0,93.0
915,196.19901229166666,196.42095110416665,61.0,90.0
916,194.36227729166666,196.48855315625,49.0,68.0
917,194.05615479166664,196.51023683333332,42.0,74.0
918,196.50513479166665,196.8814103645833,59.0,85.0
919,196.50513479166665,197.07783896874997,63.0,93.0
920,197.11737979166665,197.23982879166664,59.0,69.0
921,196.81125729166664,197.53192067708332,54.0,72.0
922,197.42350229166664,197.86100236458333,59.0,95.0
923,197.42350229166664,197.94008401041665,66.0,90.0
924,198.03574729166664,198.17350241666665,59.0,80.0
925,196.50513479166665,198.43243103125,47.0,74.0
926,198.34186979166665,198.45283919791666,63.0,93.0
927,198.34186979166665,198.4770738958333,59.0,102.0
928,197.72962479166665,198.50513512499998,54.0,72.0
929,198.95411479166665,199.2729923958333,58.0,74.0
930,198.95411479166665,199.60334959374998,61.0,74.0
931,199.56635979166666,199.65819654166665,58.0,72.0
932,199.87248229166664,199.9923802708333,58.0,93.0
933,199.87248229166664,200.0995231458333,66.0,93.0
934,199.26023729166664,200.60079873958333,49.0,36.0
935,200.48472729166664,200.91202328125,58.0,90.0
936,200.48472729166664,200.92732940624998,61.0,93.0
937,198.95411479166665,201.1556457708333,42.0,83.0
938,200.79084979166666,201.21049271874998,49.0,60.0
939,201.09697229166665,201.22579884374997,58.0,93.0
940,201.40309479166666,201.77937036458331,56.0,87.0
941,201.40309479166666,201.9630438645833,59.0,87.0
942,202.01533979166663,202.0969724583333,56.0,55.0
943,201.70921729166665,202.53192151041665,51.0,54.0
944,202.32146229166665,202.7168705208333,56.0,93.0
945,202.32146229166665,202.74110521875,63.0,93.0
946,202.93370729166665,203.11482977083332,56.0,93.0
947,202.62758479166664,203.26661551041664,51.0,43.0
948,202.93370729166665,203.32146245833331,59.0,102.0
949,201.40309479166666,203.44518696875,44.0,85.0
950,203.54595229166665,203.6964625208333,56.0,93.0
951,203.85207479166664,204.22324832291665,54.0,93.0
952,203.85207479166664,204.4655953020833,57.0,85.0
953,204.46431979166664,204.6352381875,54.0,105.0
954,204.15819729166665,204.903095375,49.0,69.0
955,204.77044229166665,204.92733007291665,57.0,83.0
956,203.85207479166664,204.95411579166665,42.0,93.0
957,205.07656479166664,205.24110563541666,54.0,74.0
958,205.07656479166664,205.48090159375,59.0,85.0
959,205.38268729166666,205.56125874999998,54.0,93.0
960,205.68880979166664,205.86993227083332,54.0,93.0
961,205.07656479166664,206.04085066666664,47.0,85.0
962,205.68880979166664,206.11738129166665,57.0,95.0
963,205.99493229166666,206.13013639583332,54.0,87.0
964,205.68880979166664,206.15564660416663,63.0,102.0
965,206.30105479166664,206.70284057291664,56.0,80.0
966,206.91329979166665,207.03574879166663,56.0,61.0
967,206.30105479166664,207.04340185416666,59.0,74.0
968,207.21942229166666,207.38778966666663,56.0,93.0
969,207.21942229166666,207.42350395833333,64.0,90.0
970,207.83166729166663,208.0025856875,59.0,70.0
971,208.13778979166665,208.32656533333332,56.0,105.0
972,206.60717729166666,208.42477963541666,47.0,61.0
973,206.30105479166664,208.49493270833332,40.0,87.0
974,208.44391229166663,208.5217184270833,56.0,53.0
975,208.44391229166663,208.53702455208332,59.0,95.0
976,208.75003479166665,208.8010552083333,52.0,74.0
977,208.75003479166665,209.15437159374997,51.0,69.0
978,208.75003479166665,209.19901445833332,58.0,83.0
979,208.75003479166665,209.45029001041664,39.0,87.0
980,209.05615729166664,209.45411654166665,46.0,68.0
981,209.36227979166665,209.47580021874998,51.0,93.0
982,209.36227979166665,209.51151451041665,58.0,87.0
983,209.97452479166665,210.32784117708331,56.0,87.0
984,209.97452479166665,210.39799424999998,59.0,85.0
985,210.58676979166665,210.9553923020833,56.0,105.0
986,210.28064729166664,211.02554537499998,51.0,87.0
987,209.97452479166665,211.0280963958333,44.0,87.0
988,210.89289229166664,211.07273926041665,59.0,105.0
989,211.19901479166666,211.37375971874997,56.0,87.0
990,211.19901479166666,211.58804546874998,61.0,93.0
991,211.50513729166664,211.6518209895833,56.0,83.0
992,211.81125979166666,211.93115777083332,56.0,93.0
993,211.81125979166666,211.96049451041665,64.0,87.0
994,212.11738229166664,212.51916807291664,56.0,93.0
995,211.19901479166666,212.571464,49.0,74.0
996,212.11738229166664,212.81763751041666,64.0,102.0
997,212.72962729166665,212.86993343749998,56.0,74.0
998,213.03574979166666,213.15819879166665,56.0,95.0
999,213.03574979166666,213.33804576041663,61.0,95.0
1000,213.34187229166665,213.48600496874997,56.0,80.0
1001,213.64799479166663,214.3469745,58.0,74.0
1002,213.64799479166663,214.39289287499997,54.0,80.0
1003,214.26023979166663,214.42478063541665,61.0,85.0
1004,214.56636229166665,215.20156647916664,54.0,85.0
1005,214.56636229166665,215.24238281249998,66.0,80.0
1006,215.17860729166665,215.3979950833333,61.0,87.0
1007,215.48472979166664,215.5638114375,61.0,49.0
1008,215.48472979166664,215.88906659375,54.0,102.0
1009,215.79085229166665,215.98600538541663,58.0,93.0
1010,215.79085229166665,216.01279110416664,61.0,90.0
1011,216.01151559374998,216.01279110416664,61.0,68.0
1012,213.95411729166665,216.08039315624998,49.0,68.0
1013,213.64799479166663,216.1020768333333,42.0,74.0
1014,216.0829441770833,216.1913625625,63.0,71.0
1015,216.1747809270833,217.50003624999997,64.0,68.0
1016,216.05360743749998,218.10973022916664,54.0,58.0
1017,216.14671969791664,218.14416901041665,59.0,69.0
1018,217.35590357291665,218.3023323020833,71.0,68.0
1019,216.00258702083332,224.69391499999998,35.0,74.0
1020,218.12120982291665,224.69391499999998,73.0,47.0
