,start,end,pitch,velocity
0,16.313475750000002,16.660697625,70.0,112.0
1,16.78966575,16.906729125000002,63.0,115.0
2,17.027760750000002,17.154744750000003,63.0,106.0
3,17.265855750000004,17.4603,63.0,115.0
4,17.50395075,17.613077625000003,65.0,115.0
5,17.742045750000003,17.85315675,66.0,109.0
6,17.98014075,18.105140625,73.0,104.0
7,18.21823575,19.309504500000003,68.0,94.0
8,19.884900750000003,20.011884750000004,61.0,112.0
9,20.12299575,20.44045575,63.0,115.0
10,20.599185750000004,20.934502875000003,66.0,115.0
11,21.075375750000003,21.3095025,68.0,112.0
12,21.313470750000004,21.910692375000004,68.0,112.0
13,22.02775575,23.085294375000004,70.0,115.0
14,23.932515750000004,24.267832875000003,68.0,112.0
15,24.408705750000003,24.7063245,68.0,112.0
16,24.884895750000002,25.059498750000003,68.0,112.0
17,25.122990750000003,25.2142605,70.0,115.0
18,25.361085750000004,25.509895125000003,71.0,120.0
19,25.599180750000002,25.702355250000004,70.0,115.0
20,25.837275750000003,26.20235475,70.0,112.0
21,26.313465750000002,27.18648075,66.0,112.0
22,27.50394075,27.6428295,61.0,109.0
23,27.742035750000003,28.079337000000002,63.0,115.0
24,28.218225750000002,28.523781000000003,75.0,112.0
25,28.694415750000005,29.027748750000004,73.0,112.0
26,29.170605750000004,29.357113500000004,71.0,117.0
27,29.408700750000005,29.547589500000004,68.0,106.0
28,29.646795750000003,31.226159250000002,70.0,112.0
29,31.551555750000002,31.906714125000004,70.0,112.0
30,32.02774575,32.142825,63.0,109.0
31,32.26584075,32.363062875000004,63.0,115.0
32,32.503935750000004,32.634888000000004,63.0,112.0
33,32.742030750000005,32.867030625000005,65.0,115.0
34,32.980125750000006,33.09718912500001,66.0,112.0
35,33.21822075,33.349173,70.0,112.0
36,33.45631575,34.553536875000006,68.0,112.0
37,35.361075750000005,35.869011750000006,63.0,118.0
38,35.83726575000001,36.134884500000005,66.0,118.0
39,36.275757375000005,36.517820625000006,66.0,115.0
40,36.61504275,36.82536,66.0,115.0
41,36.938455125000004,37.111074,68.0,112.0
42,37.22615325,38.79758025,70.0,112.0
43,39.170595750000004,39.50988112500001,68.0,112.0
44,39.64678575000001,39.75591262500001,68.0,109.0
45,39.88488075000001,39.99996,68.0,109.0
46,40.12297575,40.2459915,68.0,115.0
47,40.36107075,40.474165875000004,70.0,115.0
48,40.599165750000004,40.747975125,71.0,117.0
49,40.837260750000006,40.994006625000004,70.0,104.0
50,41.07535575000001,41.46226012500001,70.0,118.0
51,41.55154575,41.6904345,68.0,112.0
52,41.789640750000004,42.414640125000005,66.0,112.0
53,42.525751125000006,42.62892562500001,63.0,112.0
54,42.747973125,42.89281425000001,63.0,118.0
55,43.001941125,43.28765512500001,75.0,115.0
56,43.43051212500001,43.55154375000001,75.0,115.0
57,43.69440075000001,43.82733712500001,75.0,115.0
58,43.95432112500001,44.1507495,75.0,115.0
59,44.253924000000005,44.406701625000004,73.0,120.0
60,44.549558625,44.71027275,75.0,118.0
61,44.841225,45.434478375000005,77.0,109.0
62,45.78963675000001,46.05550950000001,73.0,115.0
63,46.144795125,46.333287000000006,70.0,118.0
64,46.466223375000006,46.67058825,73.0,115.0
65,46.793604,49.64677575,75.0,118.0
66,50.122965750000006,50.259870375000006,75.0,106.0
67,50.36106075000001,50.49201300000001,77.0,115.0
68,50.59915575000001,50.920584000000005,78.0,115.0
69,51.075345750000004,51.188440875000005,78.0,109.0
70,51.313440750000005,51.434472375000006,78.0,118.0
71,51.551535750000006,51.90272587500001,78.0,118.0
72,52.02772575000001,52.128916125,77.0,115.0
73,52.26582075,52.378915875000004,75.0,115.0
74,52.503915750000004,53.47216875000001,77.0,112.0
75,53.932485750000005,54.063438000000005,73.0,112.0
76,54.170580750000006,54.28169175000001,75.0,115.0
77,54.40867575000001,54.730104000000004,77.0,112.0
78,54.88486575,55.003913250000004,77.0,112.0
79,55.122960750000004,55.232087625000005,77.0,112.0
80,55.361055750000006,55.676531625,77.0,115.0
81,55.83724575000001,55.95430912500001,77.0,115.0
82,56.07534075000001,56.192404125,78.0,118.0
83,56.313435750000004,56.64081637500001,77.0,115.0
84,56.789625750000006,57.365022,75.0,115.0
85,57.742005750000004,57.868989750000004,75.0,115.0
86,57.980100750000005,58.101132375000006,77.0,109.0
87,58.21819575000001,58.55351287500001,78.0,115.0
88,58.69438575000001,58.81343325,78.0,109.0
89,58.93248075,59.031687000000005,78.0,109.0
90,59.170575750000005,59.50390875000001,78.0,115.0
91,59.64676575000001,59.74795612500001,77.0,112.0
92,59.88486075000001,59.99398762500001,75.0,115.0
93,60.12295575000001,61.05351037500001,77.0,115.0
94,61.55152575,61.684462125,73.0,106.0
95,61.789620750000005,61.894779375000006,75.0,112.0
96,62.027715750000006,62.36898525000001,77.0,109.0
97,62.50390575000001,62.60708025000001,77.0,104.0
98,62.74200075000001,62.843191125000004,77.0,109.0
99,62.980095750000004,63.31541287500001,77.0,109.0
100,63.456285750000006,63.57930150000001,77.0,104.0
101,63.69438075000001,63.82136475000001,78.0,112.0
102,63.93247575000001,64.301523,77.0,112.0
103,64.40866575000001,65.13882375,75.0,115.0
104,65.36104575,65.48009325000001,75.0,118.0
105,65.59914075,65.71818825000001,77.0,112.0
106,65.83723575,66.1824735,78.0,112.0
107,66.31342575000001,66.43247325,78.0,112.0
108,66.55152075000001,66.66263175,78.0,112.0
109,66.78961575000001,67.12096462500001,78.0,115.0
110,67.26580575000001,67.363027875,77.0,112.0
111,67.50390075000001,67.61501175000001,75.0,112.0
112,67.74199575,68.83723275000001,77.0,112.0
113,69.17056575000001,69.29556562500001,73.0,112.0
114,69.40866075000001,69.51778762500001,75.0,112.0
115,69.64675575000001,69.9919935,77.0,109.0
116,70.12294575000001,70.224136125,77.0,101.0
117,70.36104075,70.46421525000001,77.0,101.0
118,70.59913575,70.94040525000001,77.0,109.0
119,71.07532575,71.196357375,77.0,101.0
120,71.31342075,71.430484125,78.0,112.0
121,71.55151575000001,71.89873762500001,77.0,112.0
122,72.02770575000001,72.72611775000001,75.0,115.0
123,72.98008575000001,73.097149125,75.0,115.0
124,73.21818075,73.32135525000001,77.0,109.0
125,73.45627575,73.803497625,78.0,115.0
126,73.93246575,74.03167200000001,78.0,112.0
127,74.17056075,74.27373525,78.0,112.0
128,74.40865575000001,74.74794112500001,78.0,115.0
129,74.88484575000001,74.98802025,77.0,106.0
130,75.12294075000001,75.2300835,75.0,106.0
131,75.36103575000001,76.398733125,77.0,109.0
132,76.78960575,76.90666912500001,73.0,109.0
133,77.02770075000001,77.14278,75.0,112.0
134,77.26579575000001,77.49992250000001,77.0,109.0
135,77.50389075000001,77.73801750000001,77.0,109.0
136,77.74198575000001,77.84317612500001,77.0,101.0
137,77.98008075000001,78.08325525000001,77.0,104.0
138,78.21817575000001,78.56738175000001,77.0,106.0
139,78.69436575,78.83722275000001,77.0,101.0
140,78.93246075,79.06341300000001,78.0,109.0
141,79.17055575,79.52571412500001,77.0,112.0
142,79.64674575000001,81.0713475,75.0,112.0
143,96.31339575000001,96.66061762500001,70.0,112.0
144,96.78958575000001,96.90664912500002,63.0,115.0
145,97.02768075000002,97.15466475000001,63.0,106.0
146,97.26577575000002,97.46022,63.0,115.0
147,97.50387075,97.612997625,65.0,115.0
148,97.74196575,97.85307675000001,66.0,109.0
149,97.98006075,98.10506062500001,73.0,104.0
150,98.21815575000001,99.3094245,68.0,94.0
151,99.88482075000002,100.01180475000001,61.0,112.0
152,100.12291575,100.44037575000002,63.0,115.0
153,100.59910575,100.93442287500001,66.0,115.0
154,101.07529575000001,101.30942250000001,68.0,112.0
155,101.31339075000001,101.91061237500001,68.0,112.0
156,102.02767575000001,103.085214375,70.0,115.0
157,103.93243575000001,104.26775287500001,68.0,112.0
158,104.40862575000001,104.70624450000001,68.0,112.0
159,104.88481575000002,105.05941875,68.0,112.0
160,105.12291075000002,105.21418050000001,70.0,115.0
161,105.36100575000002,105.50981512500002,71.0,120.0
162,105.59910075,105.70227525000001,70.0,115.0
163,105.83719575,106.20227475000002,70.0,112.0
164,106.31338575000001,107.18640075000002,66.0,112.0
165,107.50386075000002,107.64274950000001,61.0,109.0
166,107.74195575000002,108.07925700000001,63.0,115.0
167,108.21814575,108.52370100000002,75.0,112.0
168,108.69433575000001,109.02766875000002,73.0,112.0
169,109.17052575000001,109.35703350000001,71.0,117.0
170,109.40862075000001,109.54750950000002,68.0,106.0
171,109.64671575000001,111.22607925000001,70.0,112.0
172,111.55147575000001,111.90663412500001,70.0,112.0
173,112.02766575000001,112.142745,63.0,109.0
174,112.26576075000001,112.36298287500001,63.0,115.0
175,112.50385575000001,112.634808,63.0,112.0
176,112.74195075000002,112.86695062500002,65.0,115.0
177,112.98004575000002,113.09710912500002,66.0,112.0
178,113.21814075000002,113.34909300000001,70.0,112.0
179,113.45623575000002,114.55345687500001,68.0,112.0
180,115.36099575000001,115.86893175000002,63.0,118.0
181,115.83718575000002,116.13480450000002,66.0,118.0
182,116.27567737500001,116.51774062500002,66.0,115.0
183,116.61496275000002,116.82528,66.0,115.0
184,116.93837512500001,117.11099400000002,68.0,112.0
185,117.22607325000001,118.79750025000001,70.0,112.0
186,119.17051575,119.50980112500001,68.0,112.0
187,119.64670575000001,119.75583262500001,68.0,109.0
188,119.88480075000001,119.99988000000002,68.0,109.0
189,120.12289575000001,120.24591150000002,68.0,115.0
190,120.36099075000001,120.47408587500001,70.0,115.0
191,120.59908575000001,120.74789512500001,71.0,117.0
192,120.83718075000002,120.99392662500001,68.0,104.0
193,121.07527575000002,121.46218012500002,70.0,118.0
194,121.55146575000002,121.69035450000001,68.0,112.0
195,121.78956075,122.41456012500001,66.0,112.0
196,122.52567112500002,122.62884562500001,63.0,112.0
197,122.74789312500002,122.89273425000002,63.0,118.0
198,123.00186112500002,123.28757512500002,75.0,115.0
199,123.43043212500001,123.55146375000001,75.0,115.0
200,123.69432075000002,123.82725712500002,75.0,115.0
201,123.95424112500001,124.1506695,75.0,115.0
202,124.25384400000002,124.40662162500001,73.0,120.0
203,124.54947862500002,124.71019275000002,75.0,118.0
204,124.84114500000001,125.43439837500001,77.0,109.0
205,125.78955675000002,126.05542950000002,73.0,115.0
206,126.14471512500002,126.33320700000002,70.0,118.0
207,126.46614337500002,126.67050825000001,73.0,115.0
208,126.79352400000002,129.64669575000002,75.0,118.0
209,130.12288575000002,130.25979037500002,75.0,106.0
210,130.36098075,130.49193300000002,77.0,115.0
211,130.59907575000003,130.92050400000002,78.0,115.0
212,131.07526575,131.188360875,78.0,109.0
213,131.31336075000002,131.43439237500002,78.0,118.0
214,131.55145575,131.90264587500002,78.0,118.0
215,132.02764575,132.12883612500002,77.0,115.0
216,132.26574075000002,132.37883587500002,75.0,115.0
217,132.50383575,133.47208875,77.0,112.0
218,133.93240575000002,134.06335800000002,73.0,112.0
219,134.17050075,134.28161175000002,75.0,115.0
220,134.40859575000002,134.73002400000001,77.0,112.0
221,134.88478575000002,135.00383325,77.0,112.0
222,135.12288075,135.23200762500002,77.0,112.0
223,135.36097575000002,135.67645162500003,77.0,115.0
224,135.83716575000003,135.954229125,77.0,115.0
225,136.07526075,136.19232412500003,78.0,118.0
226,136.31335575000003,136.64073637500002,77.0,115.0
227,136.78954575,137.364942,75.0,115.0
228,137.74192575,137.86890975000003,75.0,115.0
229,137.98002075000002,138.10105237500002,77.0,109.0
230,138.21811575,138.55343287500003,78.0,115.0
231,138.69430575,138.81335325,78.0,109.0
232,138.93240075000003,139.031607,78.0,109.0
233,139.17049575000001,139.50382875000003,78.0,115.0
234,139.64668575000002,139.747876125,77.0,112.0
235,139.88478075,139.99390762500002,75.0,115.0
236,140.12287575000002,141.053430375,77.0,115.0
237,141.55144575000003,141.684382125,73.0,106.0
238,141.78954075000001,141.89469937500002,75.0,112.0
239,142.02763575,142.36890525,77.0,109.0
240,142.50382575,142.60700025000003,77.0,104.0
241,142.74192075000002,142.843111125,77.0,109.0
242,142.98001575,143.31533287500002,77.0,109.0
243,143.45620575,143.57922150000002,77.0,104.0
244,143.69430075000002,143.82128475000002,78.0,112.0
245,143.93239575,144.301443,77.0,112.0
246,144.40858575000001,145.13874375,75.0,115.0
247,145.36096575000002,145.48001325,75.0,118.0
248,145.59906075,145.71810825000003,77.0,112.0
249,145.83715575000002,146.18239350000002,78.0,112.0
250,146.31334575000002,146.43239325000002,78.0,112.0
251,146.55144075,146.66255175,78.0,112.0
252,146.78953575000003,147.120884625,78.0,115.0
253,147.26572575000003,147.362947875,77.0,112.0
254,147.50382075000002,147.61493175,75.0,112.0
255,147.74191575,148.83715275000003,77.0,112.0
256,149.17048575,149.29548562500003,73.0,112.0
257,149.40858075000003,149.517707625,75.0,112.0
258,149.64667575,149.9919135,77.0,109.0
259,150.12286575000002,150.224056125,77.0,101.0
260,150.36096075,150.46413525000003,77.0,101.0
261,150.59905575000002,150.94032525000003,77.0,109.0
262,151.07524575000002,151.19627737500002,77.0,101.0
263,151.31334075,151.43040412500002,78.0,112.0
264,151.55143575000002,151.89865762500003,77.0,112.0
265,152.02762575000003,152.72603775000002,75.0,115.0
266,152.98000575,153.09706912500002,75.0,115.0
267,153.21810075000002,153.32127525,77.0,109.0
268,153.45619575,153.803417625,78.0,115.0
269,153.93238575,154.03159200000002,78.0,112.0
270,154.17048075000002,154.27365525000002,78.0,112.0
271,154.40857575,154.74786112500001,78.0,115.0
272,154.88476575,154.98794025,77.0,106.0
273,155.12286075000003,155.2300035,75.0,106.0
274,155.36095575000002,156.398653125,77.0,109.0
275,156.78952575000002,156.906589125,73.0,109.0
276,157.02762075,157.14270000000002,75.0,112.0
277,157.26571575000003,157.49984250000003,77.0,109.0
278,157.50381075,157.73793750000002,77.0,109.0
279,157.74190575000003,157.84309612500002,77.0,101.0
280,157.98000075000002,158.08317525,77.0,104.0
281,158.21809575,158.56730175,77.0,106.0
282,158.69428575,158.83714275000003,77.0,101.0
283,158.93238075000002,159.06333300000003,78.0,109.0
284,159.17047575,159.525634125,77.0,112.0
285,159.64666575,160.73595037500002,75.0,112.0
286,160.59904575000002,160.73595037500002,75.0,106.0
287,160.83714075,160.968093,77.0,115.0
288,161.07523575000002,161.39666400000002,78.0,115.0
289,161.55142575000002,161.66452087500002,78.0,109.0
290,161.78952075,161.910552375,78.0,118.0
291,162.02761575000002,162.378805875,78.0,118.0
292,162.50380575000003,162.604996125,77.0,115.0
293,162.74190075,162.85499587500001,75.0,115.0
294,162.97999575000003,163.94824875,77.0,112.0
295,164.40856575,164.53951800000002,73.0,112.0
296,164.64666075000002,164.75777175000002,75.0,115.0
297,164.88475575,165.206184,77.0,112.0
298,165.36094575,165.47999325,77.0,112.0
299,165.59904075000003,165.70816762500002,77.0,112.0
300,165.83713575000002,166.15261162500002,77.0,115.0
301,166.31332575000002,166.430389125,77.0,115.0
302,166.55142075,166.66848412500002,78.0,118.0
303,166.78951575000002,167.116896375,77.0,115.0
304,167.26570575000002,167.841102,75.0,115.0
305,168.21808575000003,168.34506975000002,75.0,115.0
306,168.45618075000002,168.57721237500002,77.0,109.0
307,168.69427575000003,169.02959287500002,78.0,115.0
308,169.17046575,169.28951325000003,78.0,109.0
309,169.40856075000002,169.50776700000003,78.0,109.0
310,169.64665575,169.97998875000002,78.0,115.0
311,170.12284575,170.22403612500003,77.0,112.0
312,170.36094075000003,170.470067625,75.0,115.0
313,170.59903575,171.52959037500003,77.0,115.0
314,172.02760575000002,172.160542125,73.0,106.0
315,172.26570075,172.370859375,75.0,112.0
316,172.50379575000002,172.84506525,77.0,109.0
317,172.97998575000003,173.08316025000002,77.0,104.0
318,173.21808075,173.31927112500003,77.0,109.0
319,173.45617575000003,173.79149287500002,77.0,109.0
320,173.93236575000003,174.0553815,77.0,104.0
321,174.17046075000002,174.29744475,78.0,112.0
322,174.40855575,174.77760300000003,77.0,112.0
323,174.88474575,175.61490375000002,75.0,115.0
324,175.83712575,175.95617325,75.0,118.0
325,176.07522075000003,176.19426825000002,77.0,112.0
326,176.31331575000002,176.6585535,78.0,112.0
327,176.78950575000002,176.90855325,78.0,112.0
328,177.02760075,177.13871175000003,78.0,112.0
329,177.26569575000002,177.59704462500002,78.0,115.0
330,177.74188575000002,177.83910787500002,77.0,112.0
331,177.97998075,178.09109175000003,75.0,112.0
332,178.21807575000003,179.31331275000002,77.0,112.0
333,179.64664575000003,179.77164562500002,73.0,112.0
334,179.88474075000002,179.993867625,75.0,112.0
335,180.12283575,180.46807350000003,77.0,109.0
336,180.59902575,180.70021612500003,77.0,101.0
337,180.83712075000003,180.94029525000002,77.0,101.0
338,181.07521575,181.41648525000002,77.0,109.0
339,181.55140575000001,181.67243737500002,77.0,101.0
340,181.78950075000003,181.90656412500002,78.0,112.0
341,182.02759575000002,182.37481762500002,77.0,112.0
342,182.50378575000002,183.20219775,75.0,115.0
343,183.45616575000003,183.573229125,75.0,115.0
344,183.69426075,183.79743525,77.0,109.0
345,183.93235575000003,184.27957762500003,78.0,115.0
346,184.40854575000003,184.507752,78.0,112.0
347,184.64664075000002,184.74981525,78.0,112.0
348,184.88473575000003,185.224021125,78.0,115.0
349,185.36092575,185.46410025000003,77.0,106.0
350,185.59902075000002,185.70616350000003,75.0,106.0
351,185.83711575,186.87481312500003,77.0,109.0
352,187.26568575000002,187.38274912500003,73.0,109.0
353,187.50378075000003,187.61886,75.0,112.0
354,187.74187575000002,187.97600250000002,77.0,109.0
355,187.97997075,188.2140975,77.0,109.0
356,188.21806575000002,188.319256125,77.0,101.0
357,188.45616075,188.55933525000003,77.0,104.0
358,188.69425575000002,189.04346175000003,77.0,106.0
359,189.17044575000003,189.31330275000002,77.0,101.0
360,189.40854075000001,189.53949300000002,78.0,109.0
361,189.64663575000003,190.00179412500003,77.0,112.0
362,190.12282575000003,191.54742750000003,75.0,112.0
