,start,end,pitch,velocity
0,1.0753957500000002,1.3611097500000002,58.0,104.0
1,1.0753957500000002,1.6765856250000002,63.0,104.0
2,1.0753957500000002,2.05952175,39.0,96.0
3,1.55158575,2.07539475,58.0,87.0
4,2.0277757500000004,2.571426,63.0,112.0
5,2.5039657500000003,2.6567433750000005,58.0,104.0
6,2.0277757500000004,2.7817432500000003,66.0,109.0
7,2.98015575,3.2857110000000005,59.0,86.0
8,2.98015575,3.5257901250000003,63.0,106.0
9,2.98015575,3.5456313750000006,66.0,99.0
10,3.4563457500000005,3.7480121250000002,59.0,96.0
11,2.98015575,4.037694375,47.0,77.0
12,3.9325357500000004,4.301583000000001,63.0,109.0
13,3.9325357500000004,4.317456000000001,59.0,110.0
14,3.9325357500000004,4.448408250000001,66.0,104.0
15,4.88491575,5.142852,56.0,87.0
16,4.88491575,5.462296125000001,61.0,96.0
17,5.361105750000001,5.884914750000001,56.0,99.0
18,4.88491575,6.162692250000001,49.0,99.0
19,6.313485750000001,6.490072875000001,56.0,101.0
20,5.837295750000001,6.503961750000001,61.0,106.0
21,5.837295750000001,6.5158665000000004,65.0,104.0
22,6.789675750000001,7.017850125000001,58.0,101.0
23,6.789675750000001,7.41665925,61.0,94.0
24,7.265865750000001,7.815468375000001,58.0,91.0
25,6.789675750000001,8.1031665,42.0,99.0
26,7.7420557500000005,8.22618225,61.0,104.0
27,7.7420557500000005,8.271817125,66.0,106.0
28,8.218245750000001,8.353166250000001,58.0,104.0
29,8.69443575,9.263879625000001,63.0,109.0
30,8.69443575,9.654752250000001,59.0,101.0
31,9.170625750000001,9.815466375000002,54.0,55.0
32,8.69443575,9.871021875,47.0,104.0
33,9.646815750000002,10.160704125,63.0,109.0
34,10.12300575,10.281735750000001,59.0,110.0
35,9.646815750000002,10.36110075,66.0,106.0
36,10.599195750000002,10.847211375,56.0,101.0
37,10.599195750000002,11.160703125000001,61.0,101.0
38,11.07538575,11.624988375000001,56.0,85.0
39,10.599195750000002,11.98808325,49.0,91.0
40,12.027765750000002,12.190464000000002,56.0,101.0
41,11.551575750000001,12.277765500000001,61.0,109.0
42,11.551575750000001,12.35316225,65.0,109.0
43,12.503955750000001,12.771812625,58.0,106.0
44,12.503955750000001,13.019828250000002,63.0,101.0
45,12.980145750000002,13.484113500000001,58.0,94.0
46,13.456335750000001,13.813478250000001,63.0,112.0
47,13.456335750000001,14.172604875000001,66.0,109.0
48,13.932525750000002,14.194430250000002,58.0,43.0
49,12.503955750000001,14.232128625000001,39.0,101.0
50,14.40871575,15.047604000000002,63.0,99.0
51,14.40871575,15.242048250000002,58.0,89.0
52,14.40871575,15.674587500000001,39.0,91.0
53,15.361095750000002,15.803555625000001,63.0,101.0
54,15.361095750000002,15.853158750000002,66.0,101.0
55,16.313475750000002,16.555539000000003,58.0,99.0
56,16.313475750000002,16.871014875,63.0,101.0
57,16.78966575,17.30157,58.0,87.0
58,16.313475750000002,17.394823875,51.0,99.0
59,17.265855750000004,17.813474250000002,63.0,106.0
60,17.742045750000003,17.922601125000003,58.0,101.0
61,17.265855750000004,17.946410625000002,66.0,109.0
62,18.21823575,18.734108250000002,65.0,99.0
63,18.21823575,18.88490175,61.0,76.0
64,18.69442575,19.204345875,56.0,58.0
65,18.21823575,19.317441000000002,49.0,87.0
66,19.170615750000003,19.363075875000003,61.0,99.0
67,19.170615750000003,19.642837500000002,65.0,106.0
68,19.170615750000003,19.686488250000004,68.0,101.0
69,19.646805750000002,19.757916750000003,61.0,71.0
70,20.12299575,20.494027125000002,59.0,93.0
71,20.12299575,20.615058750000003,47.0,107.0
72,20.12299575,20.617042875000003,63.0,106.0
73,21.075375750000003,21.56743875,65.0,104.0
74,21.075375750000003,21.599184750000003,61.0,91.0
75,21.075375750000003,21.607121250000002,49.0,104.0
76,22.02775575,22.531723500000002,58.0,104.0
77,22.02775575,22.559501250000004,54.0,101.0
78,22.980135750000002,23.184500625000002,54.0,99.0
79,22.503945750000003,23.287675125000003,49.0,76.0
80,22.02775575,23.386881375,42.0,104.0
81,22.980135750000002,23.505928875000002,58.0,112.0
82,22.980135750000002,23.587278,61.0,104.0
83,23.45632575,23.624976375000003,54.0,104.0
84,23.932515750000004,24.422594625000002,59.0,101.0
85,23.932515750000004,24.664657875000003,56.0,99.0
86,24.408705750000003,24.992038500000003,51.0,51.0
87,23.932515750000004,25.158705,44.0,104.0
88,24.884895750000002,25.452355500000003,59.0,117.0
89,24.884895750000002,25.464260250000002,63.0,109.0
90,25.361085750000004,25.531720500000002,56.0,104.0
91,25.837275750000003,26.107116750000003,58.0,104.0
92,25.837275750000003,26.396799,63.0,109.0
93,26.313465750000002,26.537671875000004,58.0,78.0
94,25.837275750000003,26.928544500000005,51.0,96.0
95,26.78965575,26.968227000000002,58.0,104.0
96,26.78965575,27.279734625000003,63.0,109.0
97,27.265845750000004,27.303544125000002,58.0,38.0
98,26.78965575,27.307512375,66.0,101.0
99,27.742035750000003,27.882908625000002,47.0,113.0
100,27.742035750000003,27.992035500000004,59.0,107.0
101,27.742035750000003,27.992035500000004,63.0,109.0
102,27.742035750000003,28.109098875000004,66.0,101.0
103,28.694415750000005,28.976161500000003,65.0,109.0
104,28.694415750000005,29.033701125000004,61.0,101.0
105,28.694415750000005,29.035685250000004,49.0,101.0
106,29.646795750000003,30.009890625000004,65.0,101.0
107,29.646795750000003,30.126954000000005,62.0,107.0
108,29.646795750000003,30.170604750000003,58.0,91.0
109,30.12298575,31.067429250000004,53.0,89.0
110,29.646795750000003,31.154730750000002,46.0,104.0
111,31.075365750000003,31.466238375000003,58.0,106.0
112,30.599175750000004,31.472190750000003,62.0,120.0
113,30.599175750000004,31.486079625000002,70.0,104.0
114,30.599175750000004,31.492032000000002,65.0,106.0
115,31.551555750000002,31.793619000000003,58.0,99.0
116,31.551555750000002,32.109094875000004,63.0,101.0
117,32.02774575,32.53965,58.0,87.0
118,31.551555750000002,32.632903875000004,51.0,99.0
119,32.503935750000004,33.05155425,63.0,106.0
120,32.980125750000006,33.160681125,58.0,101.0
121,32.503935750000004,33.184490625,66.0,109.0
122,33.45631575,33.97218825,65.0,99.0
123,33.45631575,34.12298175,61.0,76.0
124,33.932505750000004,34.442425875000005,56.0,58.0
125,33.45631575,34.555521000000006,49.0,87.0
126,34.40869575000001,34.601155875,61.0,99.0
127,34.40869575000001,34.8809175,65.0,106.0
128,34.40869575000001,34.92456825000001,68.0,101.0
129,34.88488575,34.99599675,61.0,71.0
130,35.361075750000005,35.732107125000006,59.0,93.0
131,35.361075750000005,35.85313875000001,47.0,107.0
132,35.361075750000005,35.855122875000006,63.0,106.0
133,36.31345575,36.805518750000005,65.0,104.0
134,36.31345575,36.83726475,61.0,91.0
135,36.31345575,36.84520125,49.0,104.0
136,37.26583575,37.7698035,58.0,104.0
137,37.26583575,37.79758125000001,54.0,101.0
138,38.218215750000006,38.422580625,54.0,99.0
139,37.74202575,38.525755125,49.0,76.0
140,37.26583575,38.624961375000005,42.0,104.0
141,38.218215750000006,38.744008875000006,58.0,112.0
142,38.218215750000006,38.825358,61.0,104.0
143,38.69440575,38.863056375000006,54.0,104.0
144,39.170595750000004,39.660674625000006,59.0,101.0
145,39.170595750000004,39.90273787500001,56.0,99.0
146,39.64678575000001,40.2301185,51.0,51.0
147,39.170595750000004,40.396785,44.0,104.0
148,40.12297575,40.69043550000001,59.0,117.0
149,40.12297575,40.702340250000006,63.0,109.0
150,40.599165750000004,40.7698005,56.0,104.0
151,41.07535575000001,41.34519675000001,58.0,104.0
152,41.07535575000001,41.634879000000005,63.0,109.0
153,41.55154575,41.775751875000005,58.0,78.0
154,41.07535575000001,42.166624500000005,51.0,96.0
155,42.027735750000005,42.206307,58.0,104.0
156,42.027735750000005,42.51781462500001,63.0,109.0
157,42.50392575000001,42.541624125000006,58.0,38.0
158,42.027735750000005,42.545592375000005,66.0,101.0
159,42.98011575,43.120988625,47.0,113.0
160,42.98011575,43.230115500000004,59.0,107.0
161,42.98011575,43.230115500000004,63.0,109.0
162,42.98011575,43.347178875000004,66.0,101.0
163,43.93249575000001,44.21424150000001,65.0,109.0
164,43.93249575000001,44.271781125000004,61.0,101.0
165,43.93249575000001,44.273765250000004,49.0,101.0
166,44.884875750000006,45.24797062500001,65.0,101.0
167,44.884875750000006,45.365034,62.0,107.0
168,44.884875750000006,45.408684750000006,58.0,91.0
169,45.36106575,46.30550925000001,53.0,89.0
170,44.884875750000006,46.39281075,46.0,104.0
171,46.31344575000001,46.70431837500001,58.0,106.0
172,45.837255750000004,46.71027075000001,62.0,120.0
173,45.837255750000004,46.724159625000006,70.0,104.0
174,45.837255750000004,46.730112000000005,65.0,106.0
175,46.78963575,46.890826125000004,39.0,106.0
176,46.78963575,47.20630200000001,63.0,106.0
177,46.78963575,47.267809875000005,66.0,104.0
178,47.74201575000001,48.297570750000006,66.0,115.0
179,47.74201575000001,48.307491375000005,63.0,112.0
180,48.21820575,48.609078375,58.0,80.0
181,47.265825750000005,48.6110625,51.0,94.0
182,48.694395750000005,49.19241112500001,70.0,104.0
183,48.694395750000005,49.212252375000006,66.0,104.0
184,48.694395750000005,49.493998125000005,63.0,99.0
185,48.694395750000005,49.71225187500001,58.0,104.0
186,48.694395750000005,50.013838875000005,51.0,104.0
187,49.64677575,50.49399712500001,63.0,112.0
188,49.64677575,50.49796537500001,66.0,115.0
189,49.64677575,50.511854250000006,70.0,109.0
190,50.59915575000001,51.09121875,70.0,104.0
191,50.59915575000001,51.097171125,63.0,94.0
192,50.59915575000001,51.13486950000001,66.0,109.0
193,51.313440750000005,51.448361250000005,63.0,99.0
194,51.075345750000004,51.6269325,58.0,76.0
195,51.551535750000006,51.962249625000005,66.0,112.0
196,50.59915575000001,51.966217875000005,51.0,109.0
197,51.551535750000006,52.009868625,63.0,112.0
198,51.551535750000006,52.374947625000004,70.0,109.0
199,52.503915750000004,52.97812162500001,68.0,101.0
200,52.503915750000004,52.992010500000006,65.0,101.0
201,52.503915750000004,53.013835875000005,61.0,101.0
202,52.98010575000001,53.49994650000001,56.0,69.0
203,53.45629575,53.7062955,61.0,109.0
204,53.45629575,53.75589862500001,68.0,109.0
205,53.932485750000005,54.14280300000001,65.0,96.0
206,53.694390750000004,54.196374375000005,56.0,74.0
207,52.503915750000004,54.26780287500001,49.0,101.0
208,54.170580750000006,54.28169175000001,61.0,78.0
209,54.40867575000001,54.92653237500001,61.0,96.0
210,54.40867575000001,54.92653237500001,65.0,96.0
211,54.88486575,55.418595375,56.0,55.0
212,55.361055750000006,55.886848875000005,61.0,101.0
213,55.361055750000006,56.10708675000001,65.0,106.0
214,54.40867575000001,56.144785125000006,49.0,101.0
215,55.361055750000006,56.164626375000005,68.0,101.0
216,55.83724575000001,56.184467625,56.0,89.0
217,56.07534075000001,56.22018187500001,61.0,89.0
218,56.313435750000004,56.825340000000004,66.0,109.0
219,56.313435750000004,56.90272087500001,63.0,109.0
220,56.789625750000006,57.359069625000004,58.0,78.0
221,56.313435750000004,57.95629125000001,51.0,109.0
222,57.26581575000001,58.08525937500001,63.0,106.0
223,57.26581575000001,58.08724350000001,70.0,106.0
224,57.742005750000004,58.095180000000006,58.0,94.0
225,57.26581575000001,58.101132375000006,66.0,112.0
226,58.21819575000001,58.71025875000001,70.0,104.0
227,58.21819575000001,58.71621112500001,63.0,94.0
228,58.21819575000001,58.753909500000006,66.0,109.0
229,58.93248075,59.06740125,63.0,99.0
230,58.69438575000001,59.24597250000001,58.0,76.0
231,59.170575750000005,59.581289625000004,66.0,112.0
232,58.21819575000001,59.585257875,51.0,109.0
233,59.170575750000005,59.62890862500001,63.0,112.0
234,59.170575750000005,59.99398762500001,70.0,109.0
235,60.12295575000001,60.597161625000005,68.0,101.0
236,60.12295575000001,60.611050500000005,65.0,101.0
237,60.12295575000001,60.632875875,61.0,101.0
238,60.599145750000005,61.118986500000005,56.0,69.0
239,61.07533575000001,61.32533550000001,61.0,109.0
240,61.07533575000001,61.374938625000006,68.0,109.0
241,61.55152575,61.761843000000006,65.0,96.0
242,61.31343075000001,61.815414375,56.0,74.0
243,60.12295575000001,61.886842875000006,49.0,101.0
244,61.789620750000005,61.900731750000006,61.0,78.0
245,62.027715750000006,62.545572375000006,61.0,96.0
246,62.027715750000006,62.545572375000006,65.0,96.0
247,62.50390575000001,63.03763537500001,56.0,55.0
248,62.980095750000004,63.505888875000004,61.0,101.0
249,62.980095750000004,63.726126750000006,65.0,106.0
250,62.027715750000006,63.763825125000004,49.0,101.0
251,62.980095750000004,63.78366637500001,68.0,101.0
252,63.456285750000006,63.80350762500001,56.0,89.0
253,63.69438075000001,63.83922187500001,61.0,89.0
254,63.93247575000001,64.44438000000001,66.0,109.0
255,63.93247575000001,64.52176087500001,63.0,109.0
256,64.40866575000001,64.978109625,58.0,78.0
257,63.93247575000001,65.57533125,51.0,109.0
258,64.88485575,65.704299375,63.0,106.0
259,64.88485575,65.70628350000001,70.0,106.0
260,65.36104575,65.71422000000001,58.0,94.0
261,64.88485575,65.720172375,66.0,112.0
262,65.83723575,66.32929875,70.0,104.0
263,65.83723575,66.33525112500001,63.0,94.0
264,65.83723575,66.3729495,66.0,109.0
265,66.55152075000001,66.68644125,63.0,99.0
266,66.31342575000001,66.8650125,58.0,76.0
267,66.78961575000001,67.20032962500001,66.0,112.0
268,65.83723575,67.20429787500001,51.0,109.0
269,66.78961575000001,67.247948625,63.0,112.0
270,66.78961575000001,67.613027625,70.0,109.0
271,67.74199575,68.21620162500001,68.0,101.0
272,67.74199575,68.2300905,65.0,101.0
273,67.74199575,68.25191587500001,61.0,101.0
274,68.21818575,68.7380265,56.0,69.0
275,68.69437575,68.9443755,61.0,109.0
276,68.69437575,68.99397862500001,68.0,109.0
277,69.17056575000001,69.38088300000001,65.0,96.0
278,68.93247075000001,69.434454375,56.0,74.0
279,67.74199575,69.50588287500001,49.0,101.0
280,69.40866075000001,69.51977175,61.0,78.0
281,69.64675575000001,70.164612375,61.0,96.0
282,69.64675575000001,70.164612375,65.0,96.0
283,70.12294575000001,70.656675375,56.0,55.0
284,70.59913575,71.12492887500001,61.0,101.0
285,70.59913575,71.34516675,65.0,106.0
286,69.64675575000001,71.38286512500001,49.0,101.0
287,70.59913575,71.40270637500001,68.0,101.0
288,71.07532575,71.422547625,56.0,89.0
289,71.31342075,71.458261875,61.0,89.0
290,71.55151575000001,72.06342000000001,66.0,109.0
291,71.55151575000001,72.14080087500001,63.0,109.0
292,72.02770575000001,72.59714962500001,58.0,78.0
293,71.55151575000001,73.19437125,51.0,109.0
294,72.50389575000001,73.323339375,63.0,106.0
295,72.50389575000001,73.32532350000001,70.0,106.0
296,72.98008575000001,73.33326000000001,58.0,94.0
297,72.50389575000001,73.339212375,66.0,112.0
298,73.45627575,73.94833875,70.0,104.0
299,73.45627575,73.95429112500001,63.0,94.0
300,73.45627575,73.9919895,66.0,109.0
301,74.17056075,74.30548125000001,63.0,99.0
302,73.93246575,74.4840525,58.0,76.0
303,74.40865575000001,74.81936962500001,66.0,112.0
304,73.45627575,74.823337875,51.0,109.0
305,74.40865575000001,74.866988625,63.0,112.0
306,74.40865575000001,75.23206762500001,70.0,109.0
307,75.36103575000001,75.83524162500001,68.0,101.0
308,75.36103575000001,75.8491305,65.0,101.0
309,75.36103575000001,75.870955875,61.0,101.0
310,75.83722575,76.3570665,56.0,69.0
311,76.31341575,76.5634155,61.0,109.0
312,76.31341575,76.61301862500001,68.0,109.0
313,76.78960575,76.99992300000001,65.0,96.0
314,76.55151075,77.05349437500001,56.0,74.0
315,75.36103575000001,77.12492287500001,49.0,101.0
316,77.02770075000001,77.13881175,61.0,78.0
317,77.26579575000001,77.783652375,61.0,96.0
318,77.26579575000001,77.783652375,65.0,96.0
319,77.74198575000001,78.275715375,56.0,55.0
320,78.21817575000001,78.74396887500001,61.0,101.0
321,78.21817575000001,78.96420675,65.0,106.0
322,77.26579575000001,79.00190512500001,49.0,101.0
323,78.21817575000001,79.021746375,68.0,101.0
324,78.69436575,79.041587625,56.0,89.0
325,78.93246075,79.077301875,61.0,89.0
326,79.17055575,79.68246,66.0,109.0
327,79.17055575,79.75984087500001,63.0,109.0
328,79.64674575000001,80.21618962500001,58.0,78.0
329,79.17055575,80.81341125000002,51.0,109.0
330,80.12293575000001,80.942379375,63.0,106.0
331,80.12293575000001,80.94436350000001,70.0,106.0
332,80.59912575000001,80.95230000000001,58.0,94.0
333,80.12293575000001,80.95825237500001,66.0,112.0
334,81.07531575000002,81.36102975000001,58.0,104.0
335,81.07531575000002,81.676505625,63.0,104.0
336,81.07531575000002,82.05944175,39.0,96.0
337,81.55150575,82.07531475,58.0,87.0
338,82.02769575,82.571346,63.0,112.0
339,82.50388575000001,82.65666337500001,58.0,104.0
340,82.02769575,82.78166325000001,66.0,109.0
341,82.98007575000001,83.28563100000001,59.0,86.0
342,82.98007575000001,83.525710125,63.0,106.0
343,82.98007575000001,83.545551375,66.0,99.0
344,83.45626575000001,83.747932125,59.0,96.0
345,82.98007575000001,84.037614375,47.0,77.0
346,83.93245575,84.30150300000001,63.0,109.0
347,83.93245575,84.31737600000001,59.0,110.0
348,83.93245575,84.44832825,66.0,104.0
349,84.88483575000001,85.14277200000001,56.0,87.0
350,84.88483575000001,85.46221612500001,61.0,96.0
351,85.36102575000001,85.88483475000001,56.0,99.0
352,84.88483575000001,86.16261225000001,49.0,99.0
353,86.31340575000002,86.48999287500001,56.0,101.0
354,85.83721575000001,86.50388175,61.0,106.0
355,85.83721575000001,86.5157865,65.0,104.0
356,86.78959575,87.01777012500001,58.0,101.0
357,86.78959575,87.41657925000001,61.0,94.0
358,87.26578575,87.81538837500001,58.0,91.0
359,86.78959575,88.1030865,42.0,99.0
360,87.74197575000001,88.22610225000001,61.0,104.0
361,87.74197575000001,88.27173712500002,66.0,106.0
362,88.21816575000001,88.35308625,58.0,104.0
363,88.69435575000001,89.263799625,63.0,109.0
364,88.69435575000001,89.65467225,59.0,101.0
365,89.17054575000002,89.815386375,54.0,55.0
366,88.69435575000001,89.87094187500001,47.0,104.0
367,89.64673575,90.16062412500001,63.0,109.0
368,90.12292575000001,90.28165575000001,59.0,110.0
369,89.64673575,90.36102075000001,66.0,106.0
370,90.59911575000001,90.847131375,56.0,101.0
371,90.59911575000001,91.16062312500001,61.0,101.0
372,91.07530575000001,91.624908375,56.0,85.0
373,90.59911575000001,91.98800325,49.0,91.0
374,92.02768575,92.19038400000001,56.0,101.0
375,91.55149575000002,92.2776855,61.0,109.0
376,91.55149575000002,92.35308225000001,65.0,109.0
377,92.50387575,92.77173262500001,58.0,106.0
378,92.50387575,93.01974825,63.0,101.0
379,92.98006575000001,93.48403350000001,58.0,94.0
380,93.45625575000001,93.81339825,63.0,112.0
381,93.45625575000001,94.17252487500001,66.0,109.0
382,93.93244575000001,94.19435025000001,58.0,43.0
383,92.50387575,94.232048625,39.0,101.0
384,94.40863575000002,95.04752400000001,63.0,99.0
385,94.40863575000002,95.24196825000001,58.0,89.0
386,94.40863575000002,95.6745075,39.0,91.0
387,95.36101575,95.803475625,63.0,101.0
388,95.36101575,95.85307875000001,66.0,101.0
389,96.31339575000001,96.55545900000001,58.0,99.0
390,96.31339575000001,96.870934875,63.0,101.0
391,96.78958575000001,97.30149000000002,58.0,87.0
392,96.31339575000001,97.39474387500002,51.0,99.0
393,97.26577575000002,97.81339425000002,63.0,106.0
394,97.74196575,97.92252112500002,58.0,101.0
395,97.26577575000002,97.94633062500002,66.0,109.0
396,98.21815575000001,98.73402825000001,65.0,99.0
397,98.21815575000001,98.88482175000001,61.0,76.0
398,98.69434575000001,99.204265875,56.0,58.0
399,98.21815575000001,99.317361,49.0,87.0
400,99.17053575000001,99.36299587500001,61.0,99.0
401,99.17053575000001,99.64275750000002,65.0,106.0
402,99.17053575000001,99.68640825000001,68.0,101.0
403,99.64672575000002,99.75783675000001,61.0,71.0
404,100.12291575,100.493947125,59.0,93.0
405,100.12291575,100.61497875,47.0,107.0
406,100.12291575,100.61696287500001,63.0,106.0
407,101.07529575000001,101.56735875000001,65.0,104.0
408,101.07529575000001,101.59910475000001,61.0,91.0
409,101.07529575000001,101.60704125000001,49.0,104.0
410,102.02767575000001,102.53164350000002,58.0,104.0
411,102.02767575000001,102.55942125000001,54.0,101.0
412,102.98005575,103.18442062500002,54.0,99.0
413,102.50386575000002,103.28759512500001,49.0,76.0
414,102.02767575000001,103.386801375,42.0,104.0
415,102.98005575,103.50584887500001,58.0,112.0
416,102.98005575,103.58719800000001,61.0,104.0
417,103.45624575000001,103.624896375,54.0,104.0
418,103.93243575000001,104.422514625,59.0,101.0
419,103.93243575000001,104.664577875,56.0,99.0
420,104.40862575000001,104.99195850000001,51.0,51.0
421,103.93243575000001,105.15862500000001,44.0,104.0
422,104.88481575000002,105.45227550000001,59.0,117.0
423,104.88481575000002,105.46418025000001,63.0,109.0
424,105.36100575000002,105.53164050000001,56.0,104.0
425,105.83719575,106.10703675,58.0,104.0
426,105.83719575,106.396719,63.0,109.0
427,106.31338575000001,106.53759187500002,58.0,78.0
428,105.83719575,106.92846450000002,51.0,96.0
429,106.78957575000001,106.96814700000002,58.0,104.0
430,106.78957575000001,107.279654625,63.0,109.0
431,107.26576575000001,107.303464125,58.0,38.0
432,106.78957575000001,107.307432375,66.0,101.0
433,107.74195575000002,107.88282862500002,47.0,113.0
434,107.74195575000002,107.99195550000002,59.0,107.0
435,107.74195575000002,107.99195550000002,63.0,109.0
436,107.74195575000002,108.10901887500002,66.0,101.0
437,108.69433575000001,108.9760815,65.0,109.0
438,108.69433575000001,109.03362112500001,61.0,101.0
439,108.69433575000001,109.03560525000002,49.0,101.0
440,109.64671575000001,110.00981062500001,65.0,101.0
441,109.64671575000001,110.12687400000002,62.0,107.0
442,109.64671575000001,110.17052475000001,58.0,91.0
443,110.12290575000002,111.06734925,53.0,89.0
444,109.64671575000001,111.15465075000002,46.0,104.0
445,111.07528575,111.466158375,58.0,106.0
446,110.59909575000002,111.47211075000001,62.0,120.0
447,110.59909575000002,111.485999625,70.0,104.0
448,110.59909575000002,111.49195200000001,65.0,106.0
449,111.55147575000001,111.79353900000001,58.0,99.0
450,111.55147575000001,112.10901487500001,63.0,101.0
451,112.02766575000001,112.53957000000001,58.0,87.0
452,111.55147575000001,112.63282387500001,51.0,99.0
453,112.50385575000001,113.05147425000001,63.0,106.0
454,112.98004575000002,113.16060112500001,58.0,101.0
455,112.50385575000001,113.18441062500001,66.0,109.0
456,113.45623575000002,113.97210825,65.0,99.0
457,113.45623575000002,114.12290175000001,61.0,76.0
458,113.93242575000001,114.44234587500002,56.0,58.0
459,113.45623575000002,114.55544100000002,49.0,87.0
460,114.40861575000001,114.601075875,61.0,99.0
461,114.40861575000001,114.88083750000001,65.0,106.0
462,114.40861575000001,114.92448825000001,68.0,101.0
463,114.88480575000001,114.99591675,61.0,71.0
464,115.36099575000001,115.73202712500002,59.0,93.0
465,115.36099575000001,115.85305875000002,47.0,107.0
466,115.36099575000001,115.85504287500001,63.0,106.0
467,116.31337575,116.80543875000001,65.0,104.0
468,116.31337575,116.83718475,61.0,91.0
469,116.31337575,116.84512125,49.0,104.0
470,117.26575575000001,117.76972350000001,58.0,104.0
471,117.26575575000001,117.79750125000001,54.0,101.0
472,118.21813575000002,118.42250062500001,54.0,99.0
473,117.74194575000001,118.525675125,49.0,76.0
474,117.26575575000001,118.62488137500002,42.0,104.0
475,118.21813575000002,118.74392887500001,58.0,112.0
476,118.21813575000002,118.82527800000001,61.0,104.0
477,118.69432575000002,118.86297637500002,54.0,104.0
478,119.17051575,119.66059462500002,59.0,101.0
479,119.17051575,119.90265787500002,56.0,99.0
480,119.64670575000001,120.2300385,51.0,51.0
481,119.17051575,120.39670500000001,44.0,104.0
482,120.12289575000001,120.69035550000001,59.0,117.0
483,120.12289575000001,120.70226025000001,63.0,109.0
484,120.59908575000001,120.76972050000002,56.0,104.0
485,121.07527575000002,121.34511675000002,58.0,104.0
486,121.07527575000002,121.63479900000002,63.0,109.0
487,121.55146575000002,121.77567187500001,58.0,78.0
488,121.07527575000002,122.16654450000001,51.0,96.0
489,122.02765575000001,122.20622700000001,58.0,104.0
490,122.02765575000001,122.51773462500002,63.0,109.0
491,122.50384575000001,122.54154412500002,58.0,38.0
492,122.02765575000001,122.54551237500002,66.0,101.0
493,122.98003575000001,123.12090862500001,47.0,113.0
494,122.98003575000001,123.23003550000001,59.0,107.0
495,122.98003575000001,123.23003550000001,63.0,109.0
496,122.98003575000001,123.34709887500001,66.0,101.0
497,123.93241575000002,124.21416150000002,65.0,109.0
498,123.93241575000002,124.271701125,61.0,101.0
499,123.93241575000002,124.27368525000001,49.0,101.0
500,124.88479575000001,125.24789062500001,65.0,101.0
501,124.88479575000001,125.36495400000001,62.0,107.0
502,124.88479575000001,125.40860475000001,58.0,91.0
503,125.36098575000001,126.30542925000002,53.0,89.0
504,124.88479575000001,126.39273075000001,46.0,104.0
505,126.31336575000002,126.70423837500002,58.0,106.0
506,125.83717575000001,126.71019075000001,62.0,120.0
507,125.83717575000001,126.72407962500002,70.0,104.0
508,125.83717575000001,126.73003200000001,65.0,106.0
509,126.78955575000002,126.890746125,39.0,106.0
510,126.78955575000002,127.20622200000001,63.0,106.0
511,126.78955575000002,127.26772987500001,66.0,104.0
512,127.74193575000001,128.29749075,66.0,115.0
513,127.74193575000001,128.30741137500002,63.0,112.0
514,128.21812575,128.60899837500003,58.0,80.0
515,127.26574575000001,128.6109825,51.0,94.0
516,128.69431575000002,129.192331125,70.0,104.0
517,128.69431575000002,129.21217237500002,66.0,104.0
518,128.69431575000002,129.49391812500002,63.0,99.0
519,128.69431575000002,129.71217187500002,58.0,104.0
520,128.69431575000002,130.013758875,51.0,104.0
521,129.64669575000002,130.49391712500002,63.0,112.0
522,129.64669575000002,130.497885375,66.0,115.0
523,129.64669575000002,130.51177425,70.0,109.0
524,130.59907575000003,131.09113875000003,70.0,104.0
525,130.59907575000003,131.09709112500002,63.0,94.0
526,130.59907575000003,131.1347895,66.0,109.0
527,131.31336075000002,131.44828125,63.0,99.0
528,131.07526575,131.6268525,58.0,76.0
529,131.55145575,131.962169625,66.0,112.0
530,130.59907575000003,131.96613787500002,51.0,109.0
531,131.55145575,132.00978862500003,63.0,112.0
532,131.55145575,132.374867625,70.0,109.0
533,132.50383575,132.978041625,68.0,101.0
534,132.50383575,132.99193050000002,65.0,101.0
535,132.50383575,133.01375587500002,61.0,101.0
536,132.98002575,133.49986650000002,56.0,69.0
537,133.45621575,133.7062155,61.0,109.0
538,133.45621575,133.75581862500002,68.0,109.0
539,133.93240575000002,134.14272300000002,65.0,96.0
540,133.69431075000003,134.196294375,56.0,74.0
541,132.50383575,134.267722875,49.0,101.0
542,134.17050075,134.28161175000002,61.0,78.0
543,134.40859575000002,134.92645237500003,61.0,96.0
544,134.40859575000002,134.92645237500003,65.0,96.0
545,134.88478575000002,135.41851537500003,56.0,55.0
546,135.36097575000002,135.886768875,61.0,101.0
547,135.36097575000002,136.10700675,65.0,106.0
548,134.40859575000002,136.144705125,49.0,101.0
549,135.36097575000002,136.16454637500001,68.0,101.0
550,135.83716575000003,136.18438762500003,56.0,89.0
551,136.07526075,136.220101875,61.0,89.0
552,136.31335575000003,136.82526000000001,66.0,109.0
553,136.31335575000003,136.902640875,63.0,109.0
554,136.78954575,137.35898962500002,58.0,78.0
555,136.31335575000003,137.95621125000002,51.0,109.0
556,137.26573575,138.08517937500002,63.0,106.0
557,137.26573575,138.0871635,70.0,106.0
558,137.74192575,138.0951,58.0,94.0
559,137.26573575,138.10105237500002,66.0,112.0
560,138.21811575,138.71017875,70.0,104.0
561,138.21811575,138.716131125,63.0,94.0
562,138.21811575,138.75382950000002,66.0,109.0
563,138.93240075000003,139.06732125000002,63.0,99.0
564,138.69430575,139.24589250000002,58.0,76.0
565,139.17049575000001,139.581209625,66.0,112.0
566,138.21811575,139.58517787500003,51.0,109.0
567,139.17049575000001,139.628828625,63.0,112.0
568,139.17049575000001,139.99390762500002,70.0,109.0
569,140.12287575000002,140.59708162500002,68.0,101.0
570,140.12287575000002,140.6109705,65.0,101.0
571,140.12287575000002,140.63279587500003,61.0,101.0
572,140.59906575000002,141.1189065,56.0,69.0
573,141.07525575000003,141.32525550000003,61.0,109.0
574,141.07525575000003,141.374858625,68.0,109.0
575,141.55144575000003,141.761763,65.0,96.0
576,141.31335075,141.81533437500002,56.0,74.0
577,140.12287575000002,141.88676287500002,49.0,101.0
578,141.78954075000001,141.90065175,61.0,78.0
579,142.02763575,142.545492375,61.0,96.0
580,142.02763575,142.545492375,65.0,96.0
581,142.50382575,143.037555375,56.0,55.0
582,142.98001575,143.505808875,61.0,101.0
583,142.98001575,143.72604675000002,65.0,106.0
584,142.02763575,143.763745125,49.0,101.0
585,142.98001575,143.78358637500003,68.0,101.0
586,143.45620575,143.803427625,56.0,89.0
587,143.69430075000002,143.83914187500002,61.0,89.0
588,143.93239575,144.44430000000003,66.0,109.0
589,143.93239575,144.52168087500002,63.0,109.0
590,144.40858575000001,144.978029625,58.0,78.0
591,143.93239575,145.57525125,51.0,109.0
592,144.88477575000002,145.704219375,63.0,106.0
593,144.88477575000002,145.70620350000002,70.0,106.0
594,145.36096575000002,145.71414000000001,58.0,94.0
595,144.88477575000002,145.720092375,66.0,112.0
596,145.83715575000002,146.32921875000002,70.0,104.0
597,145.83715575000002,146.33517112500002,63.0,94.0
598,145.83715575000002,146.3728695,66.0,109.0
599,146.55144075,146.68636125,63.0,99.0
600,146.31334575000002,146.8649325,58.0,76.0
601,146.78953575000003,147.20024962500003,66.0,112.0
602,145.83715575000002,147.204217875,51.0,109.0
603,146.78953575000003,147.24786862500002,63.0,112.0
604,146.78953575000003,147.612947625,70.0,109.0
605,147.74191575,148.21612162500003,68.0,101.0
606,147.74191575,148.23001050000002,65.0,101.0
607,147.74191575,148.251835875,61.0,101.0
608,148.21810575,148.73794650000002,56.0,69.0
609,148.69429575,148.9442955,61.0,109.0
610,148.69429575,148.993898625,68.0,109.0
611,149.17048575,149.38080300000001,65.0,96.0
612,148.93239075000002,149.434374375,56.0,74.0
613,147.74191575,149.50580287500003,49.0,101.0
614,149.40858075000003,149.51969175000002,61.0,78.0
615,149.64667575,150.16453237500002,61.0,96.0
616,149.64667575,150.16453237500002,65.0,96.0
617,150.12286575000002,150.65659537500002,56.0,55.0
618,150.59905575000002,151.12484887500003,61.0,101.0
619,150.59905575000002,151.34508675,65.0,106.0
620,149.64667575,151.38278512500003,49.0,101.0
621,150.59905575000002,151.402626375,68.0,101.0
622,151.07524575000002,151.42246762500002,56.0,89.0
623,151.31334075,151.458181875,61.0,89.0
624,151.55143575000002,152.06334,66.0,109.0
625,151.55143575000002,152.14072087500003,63.0,109.0
626,152.02762575000003,152.59706962500002,58.0,78.0
627,151.55143575000002,153.19429125000002,51.0,109.0
628,152.50381575000003,153.32325937500002,63.0,106.0
629,152.50381575000003,153.32524350000003,70.0,106.0
630,152.98000575,153.33318000000003,58.0,94.0
631,152.50381575000003,153.33913237500002,66.0,112.0
632,153.45619575,153.94825875,70.0,104.0
633,153.45619575,153.95421112500003,63.0,94.0
634,153.45619575,153.99190950000002,66.0,109.0
635,154.17048075000002,154.30540125000002,63.0,99.0
636,153.93238575,154.48397250000002,58.0,76.0
637,154.40857575,154.819289625,66.0,112.0
638,153.45619575,154.82325787500002,51.0,109.0
639,154.40857575,154.866908625,63.0,112.0
640,154.40857575,155.23198762500002,70.0,109.0
641,155.36095575000002,155.835161625,68.0,101.0
642,155.36095575000002,155.8490505,65.0,101.0
643,155.36095575000002,155.87087587500002,61.0,101.0
644,155.83714575000002,156.3569865,56.0,69.0
645,156.31333575000002,156.56333550000002,61.0,109.0
646,156.31333575000002,156.61293862500003,68.0,109.0
647,156.78952575000002,156.99984300000003,65.0,96.0
648,156.55143075,157.05341437500002,56.0,74.0
649,155.36095575000002,157.124842875,49.0,101.0
650,157.02762075,157.13873175,61.0,78.0
651,157.26571575000003,157.783572375,61.0,96.0
652,157.26571575000003,157.783572375,65.0,96.0
653,157.74190575000003,158.275635375,56.0,55.0
654,158.21809575,158.743888875,61.0,101.0
655,158.21809575,158.96412675000002,65.0,106.0
656,157.26571575000003,159.001825125,49.0,101.0
657,158.21809575,159.02166637500002,68.0,101.0
658,158.69428575,159.041507625,56.0,89.0
659,158.93238075000002,159.07722187500002,61.0,89.0
660,159.17047575,159.68238000000002,66.0,109.0
661,159.17047575,159.759760875,63.0,109.0
662,159.64666575,160.21610962500003,58.0,78.0
663,159.17047575,160.81333125,51.0,109.0
664,160.12285575,160.942299375,63.0,106.0
665,160.12285575,160.9442835,70.0,106.0
666,160.59904575000002,160.95222,58.0,94.0
667,160.12285575,160.958172375,66.0,112.0
668,161.07523575000002,161.56729875000002,70.0,104.0
669,161.07523575000002,161.573251125,63.0,94.0
670,161.07523575000002,161.6109495,66.0,109.0
671,161.78952075,161.92444125000003,63.0,99.0
672,161.55142575000002,162.1030125,58.0,76.0
673,162.02761575000002,162.43832962500002,66.0,112.0
674,161.07523575000002,162.442297875,51.0,109.0
675,162.02761575000002,162.48594862500002,63.0,112.0
676,162.02761575000002,162.85102762500003,70.0,109.0
677,162.97999575000003,163.45420162500002,68.0,101.0
678,162.97999575000003,163.46809050000002,65.0,101.0
679,162.97999575000003,163.489915875,61.0,101.0
680,163.45618575000003,163.97602650000002,56.0,69.0
681,163.93237575,164.1823755,61.0,109.0
682,163.93237575,164.231978625,68.0,109.0
683,164.40856575,164.618883,65.0,96.0
684,164.17047075000002,164.67245437500003,56.0,74.0
685,162.97999575000003,164.74388287500003,49.0,101.0
686,164.64666075000002,164.75777175000002,61.0,78.0
687,164.88475575,165.40261237500002,61.0,96.0
688,164.88475575,165.40261237500002,65.0,96.0
689,165.36094575,165.89467537500002,56.0,55.0
690,165.83713575000002,166.36292887500002,61.0,101.0
691,165.83713575000002,166.58316675,65.0,106.0
692,164.88475575,166.62086512500002,49.0,101.0
693,165.83713575000002,166.640706375,68.0,101.0
694,166.31332575000002,166.66054762500002,56.0,89.0
695,166.55142075,166.696261875,61.0,89.0
696,166.78951575000002,167.30142,66.0,109.0
697,166.78951575000002,167.37880087500002,63.0,109.0
698,167.26570575000002,167.835149625,58.0,78.0
699,166.78951575000002,168.43237125000002,51.0,109.0
700,167.74189575000003,168.56133937500002,63.0,106.0
701,167.74189575000003,168.56332350000002,70.0,106.0
702,168.21808575000003,168.57126000000002,58.0,94.0
703,167.74189575000003,168.57721237500002,66.0,112.0
704,168.69427575000003,169.18633875,70.0,104.0
705,168.69427575000003,169.19229112500003,63.0,94.0
706,168.69427575000003,169.22998950000002,66.0,109.0
707,169.40856075000002,169.54348125,63.0,99.0
708,169.17046575,169.72205250000002,58.0,76.0
709,169.64665575,170.057369625,66.0,112.0
710,168.69427575000003,170.06133787500002,51.0,109.0
711,169.64665575,170.104988625,63.0,112.0
712,169.64665575,170.470067625,70.0,109.0
713,170.59903575,171.073241625,68.0,101.0
714,170.59903575,171.08713050000003,65.0,101.0
715,170.59903575,171.10895587500002,61.0,101.0
716,171.07522575000002,171.59506650000003,56.0,69.0
717,171.55141575000002,171.80141550000002,61.0,109.0
718,171.55141575000002,171.85101862500002,68.0,109.0
719,172.02760575000002,172.23792300000002,65.0,96.0
720,171.78951075,172.291494375,56.0,74.0
721,170.59903575,172.362922875,49.0,101.0
722,172.26570075,172.37681175000003,61.0,78.0
723,172.50379575000002,173.02165237500003,61.0,96.0
724,172.50379575000002,173.02165237500003,65.0,96.0
725,172.97998575000003,173.51371537500003,56.0,55.0
726,173.45617575000003,173.981968875,61.0,101.0
727,173.45617575000003,174.20220675000002,65.0,106.0
728,172.50379575000002,174.239905125,49.0,101.0
729,173.45617575000003,174.25974637500002,68.0,101.0
730,173.93236575000003,174.279587625,56.0,89.0
731,174.17046075000002,174.31530187500002,61.0,89.0
732,174.40855575,174.92046000000002,66.0,109.0
733,174.40855575,174.997840875,63.0,109.0
734,174.88474575,175.45418962500003,58.0,78.0
735,174.40855575,176.05141125000003,51.0,109.0
736,175.36093575,176.18037937500003,63.0,106.0
737,175.36093575,176.1823635,70.0,106.0
738,175.83712575,176.1903,58.0,94.0
739,175.36093575,176.19625237500003,66.0,112.0
740,176.31331575000002,176.80537875000002,70.0,104.0
741,176.31331575000002,176.811331125,63.0,94.0
742,176.31331575000002,176.84902950000003,66.0,109.0
743,177.02760075,177.16252125000003,63.0,99.0
744,176.78950575000002,177.34109250000003,58.0,76.0
745,177.26569575000002,177.67640962500002,66.0,112.0
746,176.31331575000002,177.680377875,51.0,109.0
747,177.26569575000002,177.72402862500002,63.0,112.0
748,177.26569575000002,178.08910762500003,70.0,109.0
749,178.21807575000003,178.69228162500002,68.0,101.0
750,178.21807575000003,178.7061705,65.0,101.0
751,178.21807575000003,178.727995875,61.0,101.0
752,178.69426575000003,179.2141065,56.0,69.0
753,179.17045575000003,179.42045550000003,61.0,109.0
754,179.17045575000003,179.470058625,68.0,109.0
755,179.64664575000003,179.856963,65.0,96.0
756,179.40855075000002,179.91053437500003,56.0,74.0
757,178.21807575000003,179.98196287500002,49.0,101.0
758,179.88474075000002,179.99585175,61.0,78.0
759,180.12283575,180.64069237500001,61.0,96.0
760,180.12283575,180.64069237500001,65.0,96.0
761,180.59902575,181.13275537500002,56.0,55.0
762,181.07521575,181.60100887500002,61.0,101.0
763,181.07521575,181.82124675000003,65.0,106.0
764,180.12283575,181.85894512500002,49.0,101.0
765,181.07521575,181.87878637500003,68.0,101.0
766,181.55140575000001,181.89862762500002,56.0,89.0
767,181.78950075000003,181.93434187500003,61.0,89.0
768,182.02759575000002,182.53950000000003,66.0,109.0
769,182.02759575000002,182.61688087500002,63.0,109.0
770,182.50378575000002,183.073229625,58.0,78.0
771,182.02759575000002,183.67045125,51.0,109.0
772,182.97997575000002,183.799419375,63.0,106.0
773,182.97997575000002,183.80140350000002,70.0,106.0
774,183.45616575000003,183.80934000000002,58.0,94.0
775,182.97997575000002,183.815292375,66.0,112.0
776,183.93235575000003,184.42441875000003,70.0,104.0
777,183.93235575000003,184.43037112500002,63.0,94.0
778,183.93235575000003,184.4680695,66.0,109.0
779,184.64664075000002,184.78156125,63.0,99.0
780,184.40854575000003,184.96013250000001,58.0,76.0
781,184.88473575000003,185.29544962500003,66.0,112.0
782,183.93235575000003,185.29941787500002,51.0,109.0
783,184.88473575000003,185.34306862500003,63.0,112.0
784,184.88473575000003,185.708147625,70.0,109.0
785,185.83711575,186.31132162500003,68.0,101.0
786,185.83711575,186.32521050000003,65.0,101.0
787,185.83711575,186.34703587500002,61.0,101.0
788,186.31330575,186.83314650000003,56.0,69.0
789,186.78949575000001,187.03949550000002,61.0,109.0
790,186.78949575000001,187.08909862500002,68.0,109.0
791,187.26568575000002,187.47600300000002,65.0,96.0
792,187.02759075000003,187.529574375,56.0,74.0
793,185.83711575,187.601002875,49.0,101.0
794,187.50378075000003,187.61489175000003,61.0,78.0
795,187.74187575000002,188.25973237500003,61.0,96.0
796,187.74187575000002,188.25973237500003,65.0,96.0
797,188.21806575000002,188.75179537500003,56.0,55.0
798,188.69425575000002,189.22004887500003,61.0,101.0
799,188.69425575000002,189.44028675,65.0,106.0
800,187.74187575000002,189.47798512500003,49.0,101.0
801,188.69425575000002,189.49782637500002,68.0,101.0
802,189.17044575000003,189.51766762500003,56.0,89.0
803,189.40854075000001,189.553381875,61.0,89.0
804,189.64663575000003,190.15854000000002,66.0,109.0
805,189.64663575000003,190.23592087500003,63.0,109.0
806,190.12282575000003,190.69226962500002,58.0,78.0
807,189.64663575000003,191.28949125000003,51.0,109.0
808,190.59901575,191.41845937500003,63.0,106.0
809,190.59901575,191.42044350000003,70.0,106.0
810,191.07520575,191.42838000000003,58.0,94.0
811,190.59901575,191.43433237500003,66.0,112.0
812,191.55139575,191.83710975000002,58.0,104.0
813,191.55139575,192.15258562500003,63.0,104.0
814,191.55139575,192.53552175000002,39.0,96.0
815,192.02758575000001,192.55139475000001,58.0,87.0
816,192.50377575000002,193.04742600000003,63.0,112.0
817,192.97996575000002,193.13274337500002,58.0,104.0
818,192.50377575000002,193.25774325000003,66.0,109.0
819,193.45615575000002,193.76171100000002,59.0,86.0
820,193.45615575000002,194.001790125,63.0,106.0
821,193.45615575000002,194.02163137500003,66.0,99.0
822,193.93234575000002,194.22401212500003,59.0,96.0
823,193.45615575000002,194.51369437500003,47.0,77.0
824,194.40853575000003,194.77758300000002,63.0,109.0
825,194.40853575000003,194.79345600000002,59.0,110.0
826,194.40853575000003,194.92440825000003,66.0,104.0
827,195.36091575000003,195.61885200000003,56.0,87.0
828,195.36091575000003,195.93829612500002,61.0,96.0
829,195.83710575000003,196.36091475000003,56.0,99.0
830,195.36091575000003,196.63869225000002,49.0,99.0
831,196.78948575,196.966072875,56.0,101.0
832,196.31329575,196.97996175000003,61.0,106.0
833,196.31329575,196.99186650000001,65.0,104.0
834,197.26567575,197.49385012500002,58.0,101.0
835,197.26567575,197.89265925,61.0,94.0
836,197.74186575000002,198.29146837500002,58.0,91.0
837,197.26567575,198.5791665,42.0,99.0
838,198.21805575000002,198.70218225000002,61.0,104.0
839,198.21805575000002,198.747817125,66.0,106.0
840,198.69424575000002,198.82916625000001,58.0,104.0
841,199.17043575000002,199.73987962500001,63.0,109.0
842,199.17043575000002,200.13075225000003,59.0,101.0
843,199.64662575000003,200.29146637500003,54.0,55.0
844,199.17043575000002,200.34702187500002,47.0,104.0
845,200.12281575000003,200.63670412500002,63.0,109.0
846,200.59900575000003,200.75773575000002,59.0,110.0
847,200.12281575000003,200.83710075000002,66.0,106.0
848,201.07519575000003,201.32321137500003,56.0,101.0
849,201.07519575000003,201.63670312500003,61.0,101.0
850,201.55138575,202.10098837500001,56.0,85.0
851,201.07519575000003,202.46408325000002,49.0,91.0
852,202.50376575,202.66646400000002,56.0,101.0
853,202.02757575,202.75376550000001,61.0,109.0
854,202.02757575,202.82938626458338,65.0,109.0
855,202.9826119229167,203.2547890791667,58.0,106.0
856,202.9826119229167,203.50680496458335,63.0,101.0
857,203.4664824229167,203.9863698104167,58.0,94.0
858,203.95670882708336,204.33806432708337,63.0,112.0
859,203.95670882708336,204.72153846875003,66.0,109.0
860,204.46518282708337,204.74484352708336,58.0,43.0
861,202.9826119229167,204.78509771875002,39.0,101.0
862,205.24747316041672,209.25316476250006,58.0,89.0
863,205.60655461875004,209.26680112500006,70.0,66.0
864,205.35655499375005,209.27134657916673,63.0,96.0
865,205.50348459791672,209.27361930625005,66.0,91.0
866,205.0470422729167,209.27816476041673,51.0,106.0
867,205.65480016041673,209.30771021250007,75.0,71.0
