,start,end,pitch,velocity
0,22.62441058125,22.812707975,69.0,87.0
1,22.87972908125,23.04355845208333,71.0,86.0
2,23.13504758125,23.583982610416665,72.0,86.0
3,23.64568458125,23.86908826875,71.0,86.0
4,23.90100308125,24.610575745833334,69.0,84.0
5,24.66695858125,25.144616941666666,71.0,85.0
6,25.17759558125,26.844612620833335,67.0,79.0
7,27.22014358125,27.632908489583333,69.0,85.0
8,27.73078058125,27.911631185416667,67.0,77.0
9,27.98609908125,28.731841866666667,65.0,86.0
10,28.75205458125,29.00737308125,67.0,78.0
11,29.00737308125,30.454177914583333,64.0,85.0
12,30.776517520833334,30.923325658333333,69.0,87.0
13,31.010559479166666,31.17438885,71.0,85.0
14,31.272260941666666,31.715876835416665,72.0,85.0
15,31.792472385416666,32.01374841875,71.0,85.0
16,32.03289730625,32.759491204166665,69.0,85.0
17,32.795661325,33.00523526041667,71.0,84.0
18,33.050979825,33.83289273125,67.0,85.0
19,33.842467175,34.01906247083333,74.0,87.0
20,34.12012604375,35.07225128333334,74.0,89.0
21,35.41586743125,35.77969629375,76.0,85.0
22,35.88820665625,36.045653064583334,76.0,85.0
23,36.150971945833334,36.812672391666666,76.0,88.0
24,36.89671473125,37.1552247125,74.0,86.0
25,37.17756508125,38.413732152083334,74.0,92.0
26,38.96479458125,39.153091975,69.0,87.0
27,39.22011308125,39.38394245208333,71.0,86.0
28,39.47543158125,39.92436661041667,72.0,86.0
29,39.98606858125,40.20947226875,71.0,86.0
30,40.24138708125,40.95095974583333,69.0,84.0
31,41.00734258125,41.48500094166667,71.0,85.0
32,41.51797958125,43.18499662083333,67.0,79.0
33,43.56052758125,43.973292489583336,69.0,85.0
34,44.07116458125,44.25201518541667,67.0,77.0
35,44.32648308125,45.07222586666666,65.0,86.0
36,45.09243858125,45.34775708125,72.0,78.0
37,45.34775708125,46.79456191458333,64.0,85.0
38,47.11690152083333,47.26370965833333,69.0,87.0
39,47.350943479166666,47.51477285,71.0,85.0
40,47.612644941666666,48.056260835416666,72.0,85.0
41,48.132856385416666,48.35413241875,71.0,85.0
42,48.37328130625,49.099875204166665,69.0,85.0
43,49.136045325,49.34561926041667,71.0,84.0
44,49.391363825,50.17327673125,67.0,85.0
45,50.182851175,50.35944647083333,74.0,87.0
46,50.46051004375,51.41263528333333,74.0,89.0
47,51.75625143125,52.12008029375,76.0,85.0
48,52.22859065625,52.386037064583334,76.0,85.0
49,52.491355945833334,53.15305639166667,76.0,88.0
50,53.23709873125,53.4956087125,77.0,86.0
51,53.51794908125,54.754116152083334,74.0,92.0
52,54.79454158125,54.97432835833333,67.0,89.0
53,55.04986008125,55.20305118125,69.0,80.0
54,55.30517858125,55.48283770416667,71.0,82.0
55,55.56049708125,56.175389135416665,72.0,85.0
56,56.32645258125,56.484962816666666,72.0,85.0
57,56.58177108125,57.21687585,72.0,86.0
58,57.34772658125,57.49559854583333,72.0,85.0
59,57.60304508125,57.78070420416667,72.0,85.0
60,57.85836358125,58.021129125,71.0,86.0
61,58.11368208125,58.284958241666665,72.0,83.0
62,58.36900058125,58.54134056875,74.0,88.0
63,58.62431908125,59.580699629166666,74.0,87.0
64,59.90091158125,60.24452772916667,74.0,89.0
65,60.41154858125,60.56473968125,74.0,86.0
66,60.66686708125,61.278567654166665,74.0,87.0
67,61.43282258125,61.5828222,74.0,90.0
68,61.68814108125,62.04133167291667,74.0,89.0
69,62.19877808125,62.40835201666667,71.0,85.0
70,62.45409658125,62.6360110125,67.0,85.0
71,62.70941508125,63.048775920833336,72.0,86.0
72,63.22005208125,63.3509028125,72.0,85.0
73,63.47537058125,63.65302970416667,72.0,86.0
74,63.73068908125,63.89770993333333,67.0,74.0
75,63.98600758125,64.15834756875,72.0,79.0
76,64.24132608125,64.39345335416667,67.0,81.0
77,64.49664458125,64.64770802708334,72.0,85.0
78,64.75196308125,65.12111107916667,72.0,85.0
79,65.26260008125,65.39876994791666,72.0,86.0
80,65.51791858125,65.71153511041666,72.0,80.0
81,65.77323708125,65.95089620416667,67.0,85.0
82,66.02855558125,66.22642741875,72.0,87.0
83,66.28387408125,66.44557579791666,67.0,77.0
84,66.53919258125,66.71897935833333,72.0,86.0
85,66.79451108125,67.0913188375,72.0,85.0
86,67.30514808125,67.40302017291667,72.0,86.0
87,67.56046658125,67.72110447083334,72.0,86.0
88,67.81578508125,67.9466358125,74.0,89.0
89,68.07110358125,68.21046492916666,76.0,85.0
90,68.32642208125,68.45833663958334,76.0,85.0
91,68.58174058125,68.70833600416667,76.0,85.0
92,68.83705908125,68.97535660208334,76.0,86.0
93,69.09237758125,69.23386658333334,76.0,88.0
94,69.34769608125,69.52003606875,77.0,79.0
95,69.60301458125,69.74343975625,76.0,83.0
96,69.85833308125,72.66683658125,74.0,83.0
97,73.43279208125,73.56789812083333,72.0,85.0
98,73.68811058125,73.850876125,74.0,89.0
99,73.94342908125,74.30193880833333,76.0,86.0
100,74.45406608125,74.58917212083334,76.0,84.0
101,74.70938458125,74.82853321458333,76.0,83.0
102,74.96470308125,75.34236169583333,76.0,83.0
103,75.47534008125,75.61150994791667,76.0,84.0
104,75.73065858125,75.8870411625,76.0,85.0
105,75.98597708125,76.3402315,76.0,85.0
106,76.49661408125,76.65512431666667,77.0,81.0
107,76.75193258125,76.90299602708333,76.0,79.0
108,77.00725108125,77.36576080833333,74.0,86.0
109,77.51788808125,77.68171745208333,71.0,81.0
110,77.77320658125,77.910440275,72.0,82.0
111,78.02852508125,78.3827795,74.0,87.0
112,78.53916208125,78.69979997083334,74.0,86.0
113,78.79448058125,78.92958662083333,74.0,86.0
114,79.04979908125,79.37001103333333,74.0,86.0
115,79.56043608125,79.69660594791667,74.0,87.0
116,79.81575458125,79.93064790625,74.0,86.0
117,80.07107308125,80.58171008125,74.0,85.0
118,80.58171008125,80.71681612083333,76.0,83.0
119,80.83702858125,80.99447498958334,74.0,88.0
120,81.09234708125,81.44234619166667,72.0,85.0
121,81.60298408125,81.73915394791666,72.0,85.0
122,81.85830258125,82.00511071875,72.0,86.0
123,82.11362108125,82.29340785833334,72.0,87.0
124,82.36893958125,82.55191783958334,79.0,86.0
125,82.62425808125,82.761491775,77.0,83.0
126,82.87957658125,83.04340595208333,77.0,83.0
127,83.13489508125,83.27106494791667,76.0,86.0
128,83.39021358125,83.5721280125,76.0,87.0
129,83.64553208125,83.76468071458333,74.0,86.0
130,83.90085058125,84.02106304166666,74.0,87.0
131,84.15616908125,84.31361548958333,72.0,85.0
132,84.41148758125,84.55616806458333,74.0,88.0
133,84.66680608125,84.80084829375,74.0,87.0
134,84.92212458125,85.07106037291666,72.0,86.0
135,85.17744308125,85.55191021458333,74.0,90.0
136,85.68808008125,85.83382439166667,72.0,87.0
137,85.94339858125,86.13275980208333,74.0,88.0
138,86.19871708125,86.3295678125,72.0,85.0
139,86.45403558125,86.61786495208334,77.0,86.0
140,86.70935408125,86.83382185,76.0,85.0
141,86.96467258125,87.13701256875,76.0,86.0
142,87.21999108125,87.36254391041666,74.0,87.0
143,87.47530958125,87.638075125,74.0,91.0
144,87.73062808125,87.85296819583333,72.0,85.0
145,87.98594658125,88.11147817708333,72.0,86.0
146,88.24126508125,88.35722223333333,74.0,85.0
147,88.49658358125,88.80934874375,76.0,92.0
148,88.89339108333333,89.10509267291667,77.0,90.0
149,89.2146668625,89.42743227916667,76.0,85.0
150,89.51041079166667,90.02104779166666,79.0,86.0
151,90.02849458125,90.45402541458333,72.0,88.0
152,90.53913158125,90.67849292916667,76.0,87.0
153,90.79445008125,90.92955612083334,76.0,85.0
154,91.04976858125,91.19232141041667,76.0,85.0
155,91.30508708125,91.55615027291667,76.0,88.0
156,91.81572408125,91.94125567708333,76.0,87.0
157,92.07104258125,92.2018933125,76.0,86.0
158,92.32636108125,92.66572192083333,76.0,87.0
159,92.83699808125,92.9869977,77.0,86.0
160,93.09231658125,93.25401829791667,76.0,87.0
161,93.34763508125,93.68699592083334,74.0,92.0
162,93.85827208125,94.02954824166666,71.0,87.0
163,94.11359058125,94.29763266666667,71.0,85.0
164,94.36890908125,94.72209967291667,79.0,86.0
165,94.87954608125,95.02103508333333,79.0,81.0
166,95.13486458125,95.2657153125,79.0,85.0
167,95.39018308125,95.66784195,79.0,86.0
168,95.90082008125,96.03273463958334,79.0,85.0
169,96.15613858125,96.34337214791667,79.0,85.0
170,96.41145708125,96.86039211041667,74.0,89.0
171,96.92209408125,97.0784766625,76.0,88.0
172,97.17741258125,97.34336960625,74.0,86.0
173,97.43273108125,97.74124093541667,72.0,85.0
174,97.94336808125,98.09017621875,69.0,83.0
175,98.19868658125,98.42421792291667,69.0,86.0
176,98.45400508125,98.58379198541667,72.0,86.0
177,98.70932358125,98.89868480208334,79.0,84.0
178,98.96464208125,99.09655663958333,77.0,80.0
179,99.21996058125,99.36570489166667,77.0,86.0
180,99.47527908125,99.62315104583334,76.0,83.0
181,99.73059758125,99.9125120125,76.0,85.0
182,99.98591608125,100.12740508333333,74.0,85.0
183,100.24123458125,100.44548938125,74.0,86.0
184,100.49655308125,100.65080800833333,72.0,84.0
185,100.75187158125,101.26250858125,76.0,87.0
186,101.51782708125,101.75186903958334,67.0,85.0
187,101.77314558125,102.13803827083333,76.0,89.0
188,102.28378258125,102.43484602708334,74.0,86.0
189,102.53910108125,103.212503625,74.0,86.0
190,103.30505658125,105.01569053125,72.0,82.0
191,116.58161858125,116.769915975,69.0,87.0
192,116.83693708125,117.00076645208334,71.0,86.0
193,117.09225558125,117.54119061041666,72.0,86.0
194,117.60289258125,117.82629626875,71.0,86.0
195,117.85821108125,118.56778374583334,69.0,84.0
196,118.62416658125,119.10182494166666,71.0,85.0
197,119.13480358125,120.80182062083334,67.0,79.0
198,121.17735158125,121.59011648958334,69.0,85.0
199,121.68798858125,121.86883918541666,67.0,77.0
200,121.94330708125,122.68904986666666,65.0,86.0
201,122.70926258125,122.96458108125,67.0,78.0
202,122.96458108125,124.41138591458333,64.0,85.0
203,124.73372552083333,124.88053365833333,69.0,87.0
204,124.96776747916667,125.13159685,71.0,85.0
205,125.22946894166667,125.67308483541667,72.0,85.0
206,125.74968038541667,125.97095641875,71.0,85.0
207,125.99010530625,126.71669920416667,69.0,85.0
208,126.752869325,126.96244326041666,71.0,84.0
209,127.008187825,127.79010073125,67.0,85.0
210,127.799675175,127.97627047083333,74.0,87.0
211,128.07733404375,129.02945928333332,74.0,89.0
212,129.37307543125,129.73690429375,76.0,85.0
213,129.84541465625,130.00286106458333,76.0,85.0
214,130.10817994583334,130.76988039166667,76.0,88.0
215,130.85392273125,131.1124327125,74.0,86.0
216,131.13477308125,132.37094015208334,74.0,92.0
217,132.92200258125,133.110299975,69.0,87.0
218,133.17732108125,133.34115045208333,71.0,86.0
219,133.43263958125,133.88157461041666,72.0,86.0
220,133.94327658125,134.16668026875,71.0,86.0
221,134.19859508125,134.90816774583334,69.0,84.0
222,134.96455058125,135.44220894166668,71.0,85.0
223,135.47518758125,137.14220462083333,67.0,79.0
224,137.51773558125,137.93050048958332,69.0,85.0
225,138.02837258125,138.20922318541668,67.0,77.0
226,138.28369108125,139.02943386666666,65.0,86.0
227,139.04964658125,139.30496508125,72.0,78.0
228,139.30496508125,140.75176991458332,64.0,85.0
229,141.07410952083333,141.22091765833332,69.0,87.0
230,141.30815147916667,141.47198085,71.0,85.0
231,141.56985294166665,142.01346883541666,72.0,85.0
232,142.09006438541667,142.31134041875,71.0,85.0
233,142.33048930625,143.05708320416667,69.0,85.0
234,143.093253325,143.30282726041668,71.0,84.0
235,143.348571825,144.13048473125,67.0,85.0
236,144.140059175,144.31665447083333,74.0,87.0
237,144.41771804375,145.36984328333332,74.0,89.0
238,145.71345943125,146.07728829375,76.0,85.0
239,146.18579865625,146.34324506458333,76.0,85.0
240,146.44856394583334,147.11026439166668,76.0,88.0
241,147.19430673125,147.4528167125,77.0,86.0
242,147.47515708125,148.71132415208334,74.0,92.0
243,148.75174958125,148.93153635833335,67.0,89.0
244,149.00706808125,149.16025918125,69.0,80.0
245,149.26238658125,149.44004570416666,71.0,82.0
246,149.51770508125,150.13259713541666,72.0,85.0
247,150.28366058125,150.44217081666667,72.0,85.0
248,150.53897908125,151.17408385,72.0,86.0
249,151.30493458125,151.45280654583334,72.0,85.0
250,151.56025308125,151.73791220416666,72.0,85.0
251,151.81557158125,151.978337125,71.0,86.0
252,152.07089008125,152.24216624166667,72.0,83.0
253,152.32620858125,152.49854856875,74.0,88.0
254,152.58152708125,153.53790762916665,74.0,87.0
255,153.85811958125,154.20173572916667,74.0,89.0
256,154.36875658125,154.52194768125,74.0,86.0
257,154.62407508125,155.23577565416667,74.0,87.0
258,155.39003058125,155.5400302,74.0,90.0
259,155.64534908125,155.99853967291668,74.0,89.0
260,156.15598608125,156.36556001666668,71.0,85.0
261,156.41130458125,156.5932190125,67.0,85.0
262,156.66662308125,157.00598392083333,72.0,86.0
263,157.17726008125,157.3081108125,72.0,85.0
264,157.43257858125,157.61023770416668,72.0,86.0
265,157.68789708125001,157.85491793333333,67.0,74.0
266,157.94321558125,158.11555556875,72.0,79.0
267,158.19853408125,158.35066135416668,67.0,81.0
268,158.45385258125,158.60491602708333,72.0,85.0
269,158.70917108125,159.07831907916668,72.0,85.0
270,159.21980808125,159.35597794791667,72.0,86.0
271,159.47512658125,159.66874311041667,72.0,80.0
272,159.73044508125,159.90810420416668,67.0,85.0
273,159.98576358125,160.18363541875,72.0,87.0
274,160.24108208125,160.40278379791667,67.0,77.0
275,160.49640058125,160.67618735833332,72.0,86.0
276,160.75171908125,161.0485268375,72.0,85.0
277,161.26235608125,161.36022817291666,72.0,86.0
278,161.51767458125,161.67831247083333,72.0,86.0
279,161.77299308125,161.9038438125,74.0,89.0
280,162.02831158125,162.16767292916666,76.0,85.0
281,162.28363008125,162.41554463958335,76.0,85.0
282,162.53894858125,162.66554400416666,76.0,85.0
283,162.79426708125,162.93256460208335,76.0,86.0
284,163.04958558125,163.19107458333335,76.0,88.0
285,163.30490408125,163.47724406875,77.0,79.0
286,163.56022258125,163.70064775625,76.0,83.0
287,163.81554108125,166.62404458125,74.0,83.0
288,167.39000008125,167.52510612083333,73.0,85.0
289,167.64531858125,167.808084125,75.0,89.0
290,167.90063708125,168.25914680833333,77.0,86.0
291,168.41127408125,168.54638012083333,77.0,84.0
292,168.66659258125,168.78574121458334,77.0,83.0
293,168.92191108125,169.29956969583333,77.0,83.0
294,169.43254808125,169.56871794791667,77.0,84.0
295,169.68786658125,169.8442491625,77.0,85.0
296,169.94318508125,170.2974395,77.0,85.0
297,170.45382208125,170.61233231666668,78.0,81.0
298,170.70914058125,170.86020402708334,77.0,79.0
299,170.96445908125,171.32296880833334,75.0,86.0
300,171.47509608125,171.63892545208333,72.0,81.0
301,171.73041458125,171.867648275,73.0,82.0
302,171.98573308125,172.3399875,75.0,87.0
303,172.49637008125,172.65700797083332,75.0,86.0
304,172.75168858125,172.88679462083334,75.0,86.0
305,173.00700708125,173.32721903333334,75.0,86.0
306,173.51764408125,173.65381394791666,75.0,87.0
307,173.77296258125,173.88785590625,75.0,86.0
308,174.02828108125,174.53891808125,75.0,85.0
309,174.53891808125,174.67402412083334,77.0,83.0
310,174.79423658125,174.95168298958333,75.0,88.0
311,175.04955508125,175.39955419166668,73.0,85.0
312,175.56019208125,175.69636194791667,73.0,85.0
313,175.81551058125,175.96231871875,73.0,86.0
314,176.07082908125,176.25061585833333,73.0,87.0
315,176.32614758125,176.50912583958333,80.0,86.0
316,176.58146608125,176.718699775,78.0,83.0
317,176.83678458125,177.00061395208334,78.0,83.0
318,177.09210308125,177.22827294791668,77.0,86.0
319,177.34742158125,177.5293360125,77.0,87.0
320,177.60274008125,177.72188871458334,75.0,86.0
321,177.85805858125,177.97827104166666,75.0,87.0
322,178.11337708125,178.27082348958334,73.0,85.0
323,178.36869558125,178.51337606458333,75.0,88.0
324,178.62401408125,178.75805629375,75.0,87.0
325,178.87933258125,179.02826837291667,73.0,86.0
326,179.13465108125,179.50911821458334,75.0,90.0
327,179.64528808125,179.79103239166668,73.0,87.0
328,179.90060658125,180.08996780208332,75.0,88.0
329,180.15592508125,180.2867758125,73.0,85.0
330,180.41124358125,180.57507295208333,78.0,86.0
331,180.66656208125,180.79102985,77.0,85.0
332,180.92188058125,181.09422056875,77.0,86.0
333,181.17719908125,181.31975191041667,75.0,87.0
334,181.43251758125,181.595283125,75.0,91.0
335,181.68783608125,181.81017619583332,73.0,85.0
336,181.94315458125,182.06868617708332,73.0,86.0
337,182.19847308125,182.31443023333333,75.0,85.0
338,182.45379158125,182.76655674375,77.0,92.0
339,182.85059908333332,183.06230067291668,78.0,90.0
340,183.1718748625,183.38464027916666,77.0,85.0
341,183.46761879166667,183.97825579166667,80.0,86.0
342,183.98570258125,184.41123341458334,73.0,88.0
343,184.49633958125,184.63570092916666,77.0,87.0
344,184.75165808125,184.88676412083333,77.0,85.0
345,185.00697658125,185.14952941041668,77.0,85.0
346,185.26229508125,185.51335827291666,77.0,88.0
347,185.77293208125,185.89846367708333,77.0,87.0
348,186.02825058125,186.1591013125,77.0,86.0
349,186.28356908125,186.62292992083334,77.0,87.0
350,186.79420608125,186.9442057,78.0,86.0
351,187.04952458125,187.21122629791665,77.0,87.0
352,187.30484308125,187.64420392083332,75.0,92.0
353,187.81548008125,187.98675624166665,72.0,87.0
354,188.07079858125,188.25484066666667,72.0,85.0
355,188.32611708125,188.67930767291668,80.0,86.0
356,188.83675408125,188.97824308333333,80.0,81.0
357,189.09207258125,189.2229233125,80.0,85.0
358,189.34739108125,189.62504995,80.0,86.0
359,189.85802808125,189.98994263958335,80.0,85.0
360,190.11334658125,190.30058014791666,80.0,85.0
361,190.36866508125,190.81760011041666,75.0,89.0
362,190.87930208125,191.0356846625,77.0,88.0
363,191.13462058125,191.30057760625,75.0,86.0
364,191.38993908125,191.69844893541668,73.0,85.0
365,191.90057608125,192.04738421875,70.0,83.0
366,192.15589458125,192.38142592291666,70.0,86.0
367,192.41121308125,192.54099998541668,73.0,86.0
368,192.66653158125,192.85589280208333,80.0,84.0
369,192.92185008125,193.05376463958333,78.0,80.0
370,193.17716858125,193.32291289166668,78.0,86.0
371,193.43248708125,193.58035904583335,77.0,83.0
372,193.68780558125,193.8697200125,77.0,85.0
373,193.94312408125,194.08461308333332,75.0,85.0
374,194.19844258125,194.40269738125,75.0,86.0
375,194.45376108125,194.60801600833332,73.0,84.0
376,194.70907958125,195.21971658125,77.0,87.0
377,195.47503508125,195.70907703958332,68.0,85.0
378,195.73035358125,196.09524627083334,77.0,89.0
379,196.24099058125,196.39205402708333,75.0,86.0
380,196.49630908125,197.169711625,75.0,86.0
381,197.26226458125,198.97289853125,73.0,82.0
382,199.7803432875,200.2207677,73.0,89.0
383,200.31012917500001,200.73885148958334,75.0,90.0
384,200.86012777708333,201.6697001875,77.0,86.0
385,201.842040175,202.24948594791667,77.0,87.0
386,202.36012396458332,202.55267666666666,78.0,86.0
387,202.62182542708334,203.11650502083333,77.0,87.0
388,203.11437736666667,204.14097050208332,75.0,88.0
389,204.39309752083332,204.55054392916668,72.0,87.0
390,204.63884157708333,204.77501144375,73.0,80.0
391,204.905862175,205.49735003333333,75.0,87.0
392,205.93671061875,206.36968824166667,75.0,90.0
393,206.43245403958332,206.68138957708334,72.0,81.0
394,206.77394253333333,207.80159949583333,73.0,79.0
395,207.99096071666668,208.38032142916666,68.0,87.0
396,208.46968290416666,208.65372498958334,73.0,86.0
397,208.74308646458334,209.8526581125,73.0,86.0
398,209.98776415208334,210.41648646666667,68.0,86.0
399,210.4781884375,210.65584756041667,73.0,83.0
400,210.74414520833332,211.4994624375,73.0,90.0
401,212.03137597916665,212.46435360208332,68.0,86.0
402,212.55797038541667,212.74945926041667,73.0,85.0
403,212.84307604375,213.89626485625,73.0,86.0
404,214.11328558125,214.47817827083333,73.0,87.0
405,214.62392258125,214.86860281041666,75.0,88.0
406,214.87924108125,215.09838946041666,77.0,86.0
407,215.13455958125,215.42392054791668,78.0,84.0
408,215.38987808125,215.62498386666667,77.0,85.0
409,215.90051508125,216.10689753541666,78.0,88.0
410,216.15583358125,216.58561972291668,80.0,88.0
411,216.66647058125,217.10476733958333,73.0,90.0
412,217.17710758125,217.31646892916666,77.0,87.0
413,217.43242608125001,217.56753212083333,77.0,85.0
414,217.68774458125,217.83029741041668,77.0,85.0
415,217.94306308125,218.19412627291666,77.0,88.0
416,218.45370008125,218.57923167708333,77.0,87.0
417,218.70901858125,218.8398693125,77.0,86.0
418,218.96433708125,219.30369792083334,77.0,87.0
419,219.47497408125,219.6249737,78.0,86.0
420,219.73029258125,219.89199429791665,77.0,87.0
421,219.98561108125,220.32497192083332,75.0,92.0
422,220.49624808125,220.66752424166665,72.0,87.0
423,220.75156658125,220.93560866666667,72.0,85.0
424,221.00688508125,221.36007567291668,80.0,86.0
425,221.51752208125,221.65901108333333,80.0,81.0
426,221.77284058125,221.9036913125,80.0,85.0
427,222.02815908125,222.30581795,80.0,86.0
428,222.53879608125,222.67071063958335,80.0,85.0
429,222.79411458125,222.98134814791666,80.0,85.0
430,223.04943308125,223.49836811041666,75.0,89.0
431,223.56007008125,223.7164526625,77.0,88.0
432,223.81538858125,223.98134560625,75.0,86.0
433,224.07070708125,224.37921693541668,73.0,85.0
434,224.58134408125,224.72815221875,70.0,83.0
435,224.83666258125,225.06219392291666,70.0,86.0
436,225.09198108125,225.22176798541668,73.0,86.0
437,225.34729958125,225.53666080208333,80.0,84.0
438,225.60261808125,225.73453263958334,78.0,80.0
439,225.85793658125,226.00368089166668,78.0,86.0
440,226.11325508125,226.26112704583332,77.0,83.0
441,226.36857358125,226.5504880125,77.0,85.0
442,226.62389208125,226.76538108333332,75.0,85.0
443,226.87921058125,227.08346538125,75.0,86.0
444,227.13452908125,227.28878400833332,73.0,84.0
445,227.38984758125,227.90048458125,77.0,87.0
446,228.15580308125,228.38984503958332,68.0,85.0
447,228.41112158125,228.77601427083334,77.0,89.0
448,228.92175858125,229.07282202708333,75.0,86.0
449,229.17707708125,229.850479625,75.0,86.0
450,229.94303258125,231.65366653125,73.0,82.0
