,start,end,pitch,velocity
0,6.79466358125,7.926575597916667,53.0,70.0
1,7.81593758125,8.449978522916666,57.0,74.0
2,6.79466358125,8.5978504875,41.0,80.0
3,7.30530058125,8.61380789375,48.0,56.0
4,6.79466358125,8.701041714583333,60.0,74.0
5,8.83721158125,10.089336058333334,55.0,66.0
6,8.83721158125,10.227633579166667,59.0,72.0
7,9.34784858125,10.2446548125,50.0,78.0
8,8.83721158125,10.291463204166666,43.0,73.0
9,9.85848558125,10.518058372916666,62.0,83.0
10,10.36912258125,10.625504908333333,55.0,76.0
11,10.87975958125,11.930820739583334,52.0,78.0
12,10.87975958125,11.941459010416667,55.0,75.0
13,10.87975958125,12.04145875625,40.0,81.0
14,11.39039658125,12.055288508333334,47.0,71.0
15,11.90103358125,12.099969245833334,59.0,79.0
16,12.92230758125,13.982943183333333,57.0,68.0
17,12.92230758125,14.0616663875,60.0,72.0
18,13.43294458125,14.261665879166667,52.0,71.0
19,12.92230758125,14.306346616666668,45.0,77.0
20,13.94358158125,14.45421858125,69.0,86.0
21,14.96485558125,15.9637892125,65.0,78.0
22,14.96485558125,15.972299829166667,57.0,73.0
23,15.47549258125,16.26697993125,45.0,73.0
24,14.96485558125,16.29251178125,38.0,83.0
25,15.98612958125,16.304213879166667,62.0,85.0
26,16.24144808125,16.565915341666667,57.0,75.0
27,16.49676658125,16.6276173125,62.0,73.0
28,17.00740358125,17.30101985625,52.0,75.0
29,17.00740358125,17.54038095,55.0,76.0
30,17.51804058125,18.05420943125,52.0,85.0
31,17.77335908125,18.081868935416665,55.0,85.0
32,17.26272208125,18.135060289583333,47.0,72.0
33,17.00740358125,18.202081395833332,40.0,84.0
34,18.28399608125,18.415910639583334,52.0,77.0
35,18.02867758125,18.425485083333335,59.0,87.0
36,19.56058858125,20.188246560416665,57.0,86.0
37,19.30527008125,20.65207516875,52.0,77.0
38,19.04995158125,20.6999473875,45.0,85.0
39,20.58186258125,20.816968366666668,57.0,72.0
40,20.07122558125,20.822287502083334,64.0,83.0
41,21.09249958125,22.312709245833332,69.0,73.0
42,21.09249958125,22.374411216666665,64.0,72.0
43,21.09249958125,22.39143245,57.0,72.0
44,21.09249958125,22.671218972916666,45.0,82.0
45,23.13504758125,23.669088777083335,57.0,78.0
46,23.13504758125,23.670152604166667,60.0,79.0
47,24.15632158125,24.372278479166667,57.0,77.0
48,23.64568458125,24.493554766666666,52.0,59.0
49,24.15632158125,24.505256864583334,60.0,77.0
50,23.13504758125,24.541426985416667,45.0,85.0
51,24.15632158125,24.889298441666668,64.0,86.0
52,25.17759558125,25.430786427083333,55.0,80.0
53,25.68823258125,25.772274920833333,55.0,52.0
54,25.17759558125,25.807381214583334,59.0,82.0
55,26.19886958125,26.375464877083335,55.0,78.0
56,25.17759558125,26.554187827083332,40.0,76.0
57,26.19886958125,26.566953752083332,59.0,82.0
58,26.19886958125,26.737166085416668,64.0,87.0
59,26.70950658125,26.8595062,55.0,78.0
60,27.22014358125,27.7339720625,57.0,73.0
61,27.22014358125,27.74354650625,53.0,73.0
62,28.24141758125,28.418012877083335,53.0,80.0
63,28.24141758125,28.43290645625,57.0,79.0
64,28.24141758125,28.465885095833332,60.0,81.0
65,27.73078058125,28.473331885416666,48.0,56.0
66,27.22014358125,28.523331758333335,41.0,77.0
67,29.26269158125,29.790349814583333,60.0,80.0
68,29.26269158125,30.059498066666666,64.0,84.0
69,29.77332858125,30.10205115,55.0,80.0
70,29.26269158125,30.29673150625,48.0,80.0
71,30.28396558125,30.754177152083333,55.0,75.0
72,30.28396558125,30.8424748,59.0,83.0
73,30.28396558125,30.930772447916667,47.0,81.0
74,30.28396558125,31.08183589375,64.0,88.0
75,31.30523958125,31.785025595833332,64.0,82.0
76,31.30523958125,31.83502546875,60.0,76.0
77,31.30523958125,31.840344604166667,57.0,72.0
78,31.81587658125,32.44140690625,52.0,64.0
79,32.32651358125,32.62651281875,57.0,80.0
80,32.32651358125,32.668002075,60.0,85.0
81,31.30523958125,32.861618604166665,45.0,83.0
82,32.32651358125,32.872256875,64.0,87.0
83,32.58183208125,32.91055465,52.0,74.0
84,32.83715058125,32.98821402708333,57.0,81.0
85,33.34778758125,33.68821224791667,55.0,76.0
86,33.34778758125,33.827573595833336,59.0,80.0
87,33.85842458125,34.459486883333334,47.0,52.0
88,34.36906158125,34.919060183333336,59.0,81.0
89,34.36906158125,34.92650697291667,52.0,83.0
90,33.34778758125,34.9594856125,40.0,82.0
91,34.87969858125,35.17969781875,55.0,86.0
92,35.39033558125,35.88182369375,53.0,78.0
93,35.39033558125,35.9552277625,57.0,80.0
94,35.90097258125,36.59884314791667,45.0,65.0
95,36.41160958125,36.599906975,50.0,86.0
96,36.41160958125,36.60097080208333,53.0,84.0
97,35.39033558125,36.64671536666667,38.0,86.0
98,36.41160958125,36.65309832916667,57.0,81.0
99,37.43288358125,37.73501047291667,52.0,86.0
100,37.43288358125,37.858414414583336,57.0,85.0
101,37.94352058125,38.11054143333333,52.0,85.0
102,37.68820208125,38.16692426875,47.0,74.0
103,37.43288358125,38.28607290208333,40.0,88.0
104,38.45415758125,38.72224200625,52.0,86.0
105,38.70947608125,38.959475445833334,47.0,78.0
106,38.45415758125,38.96585840833333,40.0,88.0
107,38.45415758125,39.02224124375,56.0,86.0
108,38.96479458125,39.22755987083333,52.0,85.0
109,39.22011308125,39.43287849791667,59.0,75.0
110,39.47543158125,39.9509622875,60.0,79.0
111,39.47543158125,39.98394092708333,57.0,73.0
112,39.98606858125,40.58074792083333,52.0,63.0
113,40.49670558125,40.80308778125,57.0,79.0
114,40.49670558125,40.81798136041667,64.0,88.0
115,40.75202408125,41.00202344583333,52.0,76.0
116,39.47543158125,41.06478924375,45.0,84.0
117,41.00734258125,41.270107870833336,60.0,83.0
118,41.26266108125,41.614787845833334,57.0,72.0
119,41.51797958125,42.043510160416666,59.0,79.0
120,42.02861658125,42.728614802083335,47.0,68.0
121,41.51797958125,42.967975895833334,40.0,80.0
122,42.53925358125,43.093507491666664,55.0,82.0
123,43.04989058125,43.21371995208333,52.0,90.0
124,43.56052758125,44.11478149166667,53.0,76.0
125,43.56052758125,44.32435542708333,57.0,77.0
126,44.07116458125,44.75414156875,48.0,67.0
127,43.56052758125,44.8849923,41.0,83.0
128,44.58180158125,44.92648155625,53.0,77.0
129,44.58180158125,44.95626871458333,57.0,84.0
130,45.60307558125,45.895628029166666,55.0,75.0
131,45.60307558125,46.2956270125,60.0,70.0
132,46.11371258125,46.38392466041667,55.0,80.0
133,45.60307558125,46.523286008333336,48.0,85.0
134,46.62434958125,46.86690215625,55.0,86.0
135,46.62434958125,47.18711410833333,47.0,86.0
136,46.62434958125,47.189241762500004,59.0,86.0
137,47.13498658125,47.257326695833335,55.0,82.0
138,47.64562358125,48.16051588958333,60.0,81.0
139,47.64562358125,48.16902650625,57.0,79.0
140,48.15626058125,48.7466846125,52.0,63.0
141,48.66689758125,48.92434373541667,57.0,79.0
142,48.66689758125,49.136045325,64.0,87.0
143,48.92221608125,49.19030050625,52.0,76.0
144,47.64562358125,49.19987495,45.0,86.0
145,48.66689758125,49.213704702083334,60.0,82.0
146,49.17753458125,49.38178938125,57.0,82.0
147,49.68817158125,50.3041274625,55.0,78.0
148,49.68817158125,50.387105975,59.0,79.0
149,50.19880858125,50.764764589583336,47.0,53.0
150,50.70944558125,50.970083216666666,55.0,86.0
151,50.70944558125,51.214763445833334,64.0,87.0
152,50.96476408125,51.25093356666667,47.0,75.0
153,49.68817158125,51.27540158958333,40.0,81.0
154,51.22008258125,51.544549841666665,59.0,82.0
155,51.47540108125,51.59454971458333,55.0,79.0
156,51.73071958125,52.278590529166664,57.0,80.0
157,51.73071958125,52.59454717291667,62.0,78.0
158,52.49667508125,52.821142341666665,57.0,78.0
159,52.75199358125,53.07007787916667,65.0,86.0
160,52.24135658125,53.25731144583333,45.0,62.0
161,53.00731208125,53.33497082291667,62.0,81.0
162,51.73071958125,53.40199192916667,38.0,87.0
163,53.26263058125,53.46156624583333,57.0,82.0
164,53.77326758125,54.05837323958333,55.0,78.0
165,53.77326758125,54.19454310625,59.0,79.0
166,54.28390458125,54.722201339583336,55.0,85.0
167,54.53922308125,54.8487967625,62.0,86.0
168,54.79454158125,54.88603071041667,55.0,74.0
169,54.79454158125,55.242412783333336,67.0,87.0
170,54.02858608125,55.3019871,50.0,74.0
171,55.04986008125,55.3211359875,62.0,86.0
172,53.77326758125,55.38922092083333,43.0,85.0
173,55.30517858125,55.44134844791667,55.0,86.0
174,55.81581558125,56.39772899583333,57.0,83.0
175,55.81581558125,56.44347356041666,53.0,80.0
176,56.32645258125,56.99559981666667,48.0,71.0
177,55.81581558125,57.119003758333335,41.0,85.0
178,56.83708958125,57.26581189583333,53.0,85.0
179,56.83708958125,57.33602448333333,57.0,91.0
180,56.83708958125,57.47219435,60.0,90.0
181,57.34772658125,57.70623630833333,48.0,77.0
182,57.60304508125,57.75198087291667,53.0,85.0
183,57.85836358125,58.34346873125,59.0,80.0
184,57.85836358125,58.41368131875,55.0,80.0
185,58.36900058125,58.958360785416666,50.0,67.0
186,58.87963758125,59.1317646,55.0,84.0
187,58.87963758125,59.191338916666666,59.0,83.0
188,57.85836358125,59.220062247916665,43.0,85.0
189,58.87963758125,59.28814718125,62.0,80.0
190,59.13495608125,59.34346618958333,50.0,81.0
191,59.39027458125,59.563678395833335,55.0,89.0
192,59.90091158125,60.38282525,64.0,85.0
193,59.90091158125,60.41154858125,59.0,79.0
194,60.41154858125,60.982823725,47.0,62.0
195,60.92218558125,61.16580198333333,55.0,85.0
196,59.90091158125,61.246652841666666,40.0,87.0
197,60.92218558125,61.246652841666666,59.0,88.0
198,61.17750408125,61.312610120833334,47.0,81.0
199,60.92218558125,61.31899308333333,64.0,87.0
200,61.43282258125,61.7551621875,55.0,85.0
201,61.94345958125,62.40835201666667,60.0,83.0
202,61.94345958125,62.429628558333334,57.0,78.0
203,62.45409658125,63.03707382291667,52.0,68.0
204,62.96473358125,63.22643504375,57.0,83.0
205,62.96473358125,63.25834985625,60.0,85.0
206,63.22005208125,63.50196625833333,52.0,81.0
207,61.94345958125,63.52643428125,45.0,85.0
208,63.47537058125,63.7849442625,59.0,85.0
209,63.73068908125,64.0849435,60.0,74.0
210,63.98600758125,64.199836825,57.0,74.0
211,63.98600758125,64.2189857125,62.0,81.0
212,63.98600758125,64.27111323958333,38.0,87.0
213,64.49664458125,64.64132506458333,62.0,79.0
214,64.49664458125,64.65834629791667,57.0,75.0
215,64.49664458125,64.66472926041666,38.0,67.0
216,65.00728158125,65.4125997,38.0,87.0
217,65.00728158125,65.4189826625,57.0,82.0
218,65.00728158125,65.42111031666667,62.0,84.0
219,65.00728158125,65.44132303125,65.0,83.0
220,65.51791858125,65.58600351458334,62.0,80.0
221,65.51791858125,65.604088575,57.0,81.0
222,65.51791858125,65.64557783125,38.0,87.0
223,65.51791858125,65.65834375625,65.0,85.0
224,66.02855558125,66.13174680833333,64.0,84.0
225,66.02855558125,66.15089569583333,59.0,84.0
226,66.02855558125,66.18281050833333,67.0,82.0
227,66.02855558125,66.24451247916667,40.0,85.0
228,66.53919258125,66.65514973333333,64.0,79.0
229,66.53919258125,66.67536244791667,59.0,78.0
230,66.53919258125,66.67749010208334,67.0,78.0
231,66.53919258125,66.73812824583334,40.0,85.0
232,67.04982958125,67.45195621875,40.0,87.0
233,67.04982958125,67.45302004583333,59.0,84.0
234,67.04982958125,67.4551477,64.0,87.0
235,67.04982958125,67.46046683541667,67.0,82.0
236,67.56046658125,67.62855151458334,64.0,85.0
237,67.56046658125,67.66365780833334,59.0,83.0
238,67.56046658125,67.67748756041667,40.0,86.0
239,67.56046658125,67.70195558333333,67.0,81.0
240,68.07110358125,68.17110332708333,65.0,81.0
241,68.07110358125,68.1891883875,60.0,85.0
242,68.07110358125,68.19663517708334,69.0,83.0
243,68.07110358125,68.2147202375,41.0,86.0
244,68.58174058125,68.6806765,65.0,77.0
245,68.58174058125,68.69450625208333,48.0,81.0
246,68.58174058125,68.6998253875,60.0,80.0
247,68.58174058125,68.6998253875,69.0,79.0
248,68.58174058125,68.72110192916666,41.0,83.0
249,69.09237758125,69.42322780416667,65.0,85.0
250,69.09237758125,69.43280224791667,48.0,86.0
251,69.09237758125,69.43599372916667,41.0,87.0
252,69.09237758125,69.44344051875,60.0,86.0
253,69.09237758125,69.45727027083333,69.0,84.0
254,69.60301458125,69.65939741666666,69.0,78.0
255,69.60301458125,69.66258889791666,65.0,77.0
256,69.60301458125,69.69663136458334,60.0,79.0
257,69.60301458125,69.70514198125,41.0,86.0
258,70.11365158125,70.37003390833334,59.0,84.0
259,70.11365158125,70.37748069791667,55.0,85.0
260,70.11365158125,70.38705514166666,62.0,85.0
261,70.62428858125,70.74024573333334,55.0,84.0
262,70.36897008125,70.940245225,50.0,75.0
263,70.87960708125,71.16045743125,67.0,85.0
264,70.87960708125,71.1827978,62.0,90.0
265,70.87960708125,71.19024458958333,55.0,90.0
266,70.87960708125,71.20513816875,59.0,94.0
267,70.11365158125,71.35407396041667,43.0,85.0
268,71.13492558125,71.59449888125,50.0,80.0
269,71.39024408125,71.70407307083333,62.0,82.0
270,71.64556258125,71.94981712708334,55.0,85.0
271,71.90088108125,71.999817,59.0,77.0
272,72.15619958125,72.4402414125,55.0,86.0
273,72.15619958125,72.44343289375,67.0,85.0
274,72.15619958125,72.44768820208333,62.0,87.0
275,72.15619958125,72.44875202916667,59.0,90.0
276,72.15619958125,72.50832634583334,43.0,87.0
277,73.17747358125,73.67747231041666,54.0,78.0
278,73.17747358125,73.68385527291667,57.0,85.0
279,73.17747358125,73.75300403333334,42.0,84.0
280,73.17747358125,73.76364230416667,60.0,87.0
281,74.19874758125,74.6359805125,60.0,83.0
282,74.19874758125,74.64981026458334,53.0,84.0
283,74.70938458125,75.2998086125,48.0,77.0
284,74.19874758125,75.35193613958333,41.0,87.0
285,75.22002158125,75.48065921666667,57.0,89.0
286,75.22002158125,75.48172304375,53.0,89.0
287,75.22002158125,75.53491439791667,60.0,92.0
288,75.47534008125,75.61576525625,48.0,77.0
289,75.73065858125,76.02321102916666,53.0,85.0
290,76.24129558125,76.65512431666667,53.0,86.0
291,76.24129558125,76.68703912916666,60.0,85.0
292,77.00725108125,77.13278267708333,53.0,78.0
293,76.75193258125,77.33384599583333,48.0,73.0
294,77.26256958125,77.53916462291667,53.0,86.0
295,76.24129558125,77.63065375208333,41.0,86.0
296,77.51788808125,77.66895152708334,48.0,87.0
297,77.26256958125,77.84767447708333,65.0,87.0
298,77.77320658125,77.93490829791666,53.0,89.0
299,78.28384358125,78.80618267916667,52.0,84.0
300,78.28384358125,78.81682095,55.0,79.0
301,79.04979908125,79.12852228541666,59.0,73.0
302,78.79448058125,79.36788337916667,47.0,71.0
303,79.30511758125,79.55511694583333,52.0,90.0
304,79.30511758125,79.57213817916667,64.0,92.0
305,78.28384358125,79.61043595416666,40.0,89.0
306,79.56043608125,79.69022298541667,47.0,81.0
307,79.81575458125,79.9146905,52.0,82.0
308,79.81575458125,79.97745629791666,59.0,81.0
309,80.32639158125,80.57639094583334,57.0,79.0
310,80.32639158125,80.6104334125,60.0,81.0
311,80.83702858125,81.04021955416667,57.0,81.0
312,80.58171008125,81.14128312708333,52.0,75.0
313,81.09234708125,81.17107028541666,57.0,55.0
314,81.09234708125,81.39234631875,69.0,88.0
315,80.32639158125,81.57213309583334,45.0,86.0
316,81.34766558125,81.58489902083333,52.0,94.0
317,81.60298408125,81.791281475,57.0,85.0
318,81.60298408125,81.8551111,60.0,89.0
319,81.60298408125,81.91681307083333,64.0,89.0
320,81.85830258125,81.96787677083333,45.0,86.0
321,82.11362108125,82.24872712083334,57.0,85.0
322,82.36893958125,82.62638573541666,57.0,85.0
323,82.36893958125,82.6402154875,62.0,85.0
324,82.87957658125,83.00404435,57.0,79.0
325,82.87957658125,83.00723583125,62.0,80.0
326,82.36893958125,83.1380865625,38.0,89.0
327,83.39021358125,83.61361726875,57.0,87.0
328,83.39021358125,83.63702146458333,62.0,87.0
329,83.39021358125,83.65936183333334,65.0,87.0
330,83.39021358125,83.67212775833333,45.0,85.0
331,83.39021358125,83.72851059375,38.0,89.0
332,83.90085058125,84.255105,57.0,86.0
333,84.15616908125,84.255105,62.0,75.0
334,84.41148758125,84.65935929166666,55.0,85.0
335,84.41148758125,84.68701879583334,59.0,86.0
336,84.92212458125,85.08914543333333,62.0,77.0
337,85.17744308125,85.20829406666667,62.0,56.0
338,85.17744308125,85.30403850416667,67.0,81.0
339,84.66680608125,85.49233589791666,50.0,78.0
340,85.43276158125,85.71361193125,62.0,92.0
341,84.41148758125,85.72105872083333,43.0,86.0
342,85.43276158125,85.72637785625,59.0,101.0
343,85.43276158125,85.73169699166667,55.0,92.0
344,85.43276158125,85.75297353333333,67.0,85.0
345,85.68808008125,85.82956908333334,50.0,85.0
346,85.94339858125,86.03914301875,43.0,87.0
347,86.19871708125,86.33488694791667,55.0,86.0
348,86.45403558125,86.53595026666666,36.0,85.0
349,86.45403558125,86.6742477875,55.0,87.0
350,86.45403558125,86.74126889375,60.0,89.0
351,86.45403558125,86.8402048125,64.0,89.0
352,87.21999108125,87.57105401875,55.0,79.0
353,87.47530958125,87.71573450208334,60.0,91.0
354,87.47530958125,87.7593514125,62.0,94.0
355,86.96467258125,88.05084003333333,48.0,78.0
356,87.73062808125,88.0784995375,55.0,85.0
357,88.24126508125,88.33594569166667,48.0,85.0
358,87.98594658125,88.38062642916667,60.0,92.0
359,88.49658358125,88.53275370208334,58.0,85.0
360,88.49658358125,88.92956120416666,60.0,85.0
361,88.49658358125,88.96360367083334,65.0,81.0
362,88.49658358125,89.14977341041667,48.0,91.0
363,89.00722058125,89.21998599791667,60.0,87.0
364,89.00722058125,89.374240925,64.0,90.0
365,89.51785758125,89.77317608125,67.0,73.0
366,89.51785758125,89.97636705416667,55.0,89.0
367,89.51785758125,90.00296273125,48.0,89.0
368,89.51785758125,90.01785631041666,62.0,96.0
369,90.02849458125,90.39338727083333,60.0,92.0
370,90.53913158125,91.06253450625,60.0,75.0
371,90.53913158125,91.34551251041667,53.0,82.0
372,91.04976858125,91.36253374375,57.0,82.0
373,91.30508708125,91.66891594375,60.0,80.0
374,91.81572408125,91.98061727916667,53.0,85.0
375,91.81572408125,92.15614874791666,57.0,82.0
376,91.81572408125,92.40082897708334,60.0,87.0
377,92.07104258125,92.41572255625,53.0,84.0
378,90.53913158125,92.43912675208334,41.0,87.0
379,90.79445008125,92.45827563958333,48.0,79.0
380,92.32636108125,92.50295637708334,57.0,81.0
381,91.81572408125,92.54338180625,65.0,85.0
382,92.58167958125,92.90614684166667,55.0,74.0
383,92.58167958125,93.09231658125,59.0,80.0
384,93.09231658125,93.48061346666667,55.0,78.0
385,93.34763508125,93.52423037708333,62.0,78.0
386,92.83699808125,93.81252751666666,50.0,83.0
387,93.60295358125,93.81465517083333,55.0,85.0
388,93.60295358125,94.15188835625,67.0,88.0
389,92.58167958125,94.18699465,43.0,87.0
390,93.85827208125,94.18912230416667,62.0,79.0
391,94.11359058125,94.22954773333333,55.0,86.0
392,94.62422758125,94.92954595416667,59.0,86.0
393,94.62422758125,95.1763538375,64.0,86.0
394,95.13486458125,95.23486432708333,59.0,72.0
395,94.87954608125,95.52528912083334,47.0,76.0
396,95.39018308125,95.75933107916667,59.0,87.0
397,95.39018308125,95.86358613333333,67.0,84.0
398,95.90082008125,96.03592612083334,59.0,85.0
399,95.64550158125,96.04230908333334,47.0,78.0
400,94.62422758125,96.0572026625,40.0,89.0
401,95.90082008125,96.17847895,64.0,86.0
402,96.15613858125,96.25932980833333,59.0,80.0
403,96.66677558125,97.23273158958334,60.0,80.0
404,96.66677558125,97.24762516875,57.0,79.0
405,97.17741258125,97.44656083333334,64.0,82.0
406,96.92209408125,97.55826267708333,52.0,78.0
407,97.43273108125,97.87102783958333,69.0,86.0
408,97.94336808125,98.13592078333333,60.0,77.0
409,97.94336808125,98.14123991875,57.0,80.0
410,97.68804958125,98.1954951,52.0,83.0
411,96.66677558125,98.22528225833334,45.0,85.0
412,97.94336808125,98.29336719166666,64.0,83.0
413,98.70932358125,98.974216525,57.0,80.0
414,98.70932358125,99.04549293958334,62.0,84.0
415,98.70932358125,99.08059923333333,65.0,85.0
416,99.21996058125,99.3252794625,57.0,77.0
417,98.96464208125,99.8614483125,53.0,80.0
418,99.73059758125,100.02315002916667,57.0,90.0
419,98.70932358125,100.03485212708334,50.0,91.0
420,99.73059758125,100.10825619583333,62.0,90.0
421,99.98591608125,100.17953261041667,53.0,76.0
422,100.49655308125,100.56038270625,62.0,68.0
423,100.24123458125,100.56463801458334,57.0,86.0
424,100.75187158125,101.03059427708334,55.0,83.0
425,100.75187158125,101.12421106041667,62.0,83.0
426,101.26250858125,101.4444230125,55.0,71.0
427,101.51782708125,101.60080559375,59.0,84.0
428,101.00719008125,101.85186878541667,50.0,77.0
429,101.77314558125,102.06037889375,55.0,85.0
430,101.77314558125,102.09335753333333,59.0,89.0
431,101.77314558125,102.26888900208333,67.0,86.0
432,102.02846408125001,102.50825009583333,50.0,84.0
433,100.75187158125,102.523143675,43.0,86.0
434,102.28378258125,102.60293070625,55.0,86.0
435,102.79441958125,103.0146317875,55.0,86.0
436,102.79441958125,103.44016262083333,60.0,85.0
437,103.30505658125,103.62207705208333,55.0,85.0
438,103.81569358125,104.3742028,55.0,86.0
439,103.81569358125,104.38377724375,62.0,86.0
440,102.79441958125,104.65824463125,48.0,87.0
441,104.32633058125,104.67207438333334,60.0,77.0
442,104.83696758125,105.18164755625,55.0,79.0
443,105.34760458125,105.59228481041667,55.0,72.0
444,104.83696758125,106.08696440416666,48.0,85.0
445,105.85824158125,106.28590006875,55.0,81.0
446,105.85824158125,106.33058080625,60.0,83.0
447,104.83696758125,106.35079352083334,64.0,82.0
448,106.87951558125,107.19121691666666,57.0,76.0
449,106.87951558125,107.40823764166667,60.0,79.0
450,107.39015258125,107.73908786458334,57.0,76.0
451,107.64547108125,107.78164094791667,60.0,73.0
452,107.90078958125,108.0316403125,57.0,78.0
453,107.90078958125,108.31674597083334,64.0,86.0
454,108.15610808125,108.38483090416666,57.0,70.0
455,108.41142658125,108.62631965208334,60.0,65.0
456,108.66674508125,108.78802136875,57.0,60.0
457,106.87951558125,108.803978775,45.0,85.0
458,107.13483408125,109.00504209375,52.0,73.0
459,108.92206358125,109.19972245,55.0,74.0
460,108.92206358125,109.48482810833333,59.0,76.0
461,109.43270058125,110.003975725,55.0,74.0
462,109.68801908125,110.02844374791667,59.0,79.0
463,109.17738208125,110.31567706041666,52.0,75.0
464,108.92206358125,110.412485325,40.0,80.0
465,110.19865608125,110.47525112291666,55.0,73.0
466,109.94333758125,110.51248507083334,64.0,86.0
467,110.45397458125,110.5337616125,59.0,73.0
468,110.96461158125,111.22631304375,57.0,78.0
469,110.96461158125,111.5167378375,62.0,79.0
470,110.96461158125,111.52524845416667,65.0,81.0
471,111.47524858125,111.83375830833333,57.0,85.0
472,110.96461158125,111.89014114375,38.0,87.0
473,111.21993008125,111.90503472291667,45.0,75.0
474,111.73056708125,111.93269422708333,62.0,86.0
475,111.98588558125,112.2826933375,59.0,86.0
476,111.98588558125,112.52418208541667,64.0,89.0
477,112.24120408125,112.85609613541666,47.0,75.0
478,111.98588558125,112.87098971458333,40.0,87.0
479,112.49652258125,112.92950020416667,59.0,83.0
480,112.75184108125,113.00715958125,64.0,86.0
481,113.00715958125,113.29439289375,57.0,87.0
482,113.00715958125,113.51141361875,62.0,86.0
483,113.51779658125,113.94651889583334,57.0,87.0
484,113.77311508125,114.12949715416667,62.0,85.0
485,114.02843358125,114.1848161625,64.0,85.0
486,114.28375208125,114.47098564791666,69.0,86.0
487,113.26247808125,114.58800662708333,52.0,87.0
488,113.00715958125,114.77311253958334,45.0,87.0
489,115.04970758125,115.72523777916666,64.0,85.0
490,115.04970758125,115.82949283333333,69.0,80.0
491,115.56034458125,116.86459658541666,52.0,62.0
492,115.04970758125,116.93374534583333,45.0,88.0
493,116.07098158125,116.974170775,76.0,82.0
494,116.07098158125,117.00183027916667,69.0,73.0
495,116.07098158125,117.11140446875,64.0,42.0
496,117.09225558125,117.62629677708334,57.0,78.0
497,117.09225558125,117.62736060416667,60.0,79.0
498,118.11352958125,118.32948647916666,57.0,77.0
499,117.60289258125,118.45076276666667,52.0,59.0
500,118.11352958125,118.46246486458334,60.0,77.0
501,117.09225558125,118.49863498541667,45.0,85.0
502,118.11352958125,118.84650644166666,64.0,86.0
503,119.13480358125,119.38799442708333,55.0,80.0
504,119.64544058125,119.72948292083333,55.0,52.0
505,119.13480358125,119.76458921458334,59.0,82.0
506,120.15607758125,120.33267287708334,55.0,78.0
507,119.13480358125,120.51139582708333,40.0,76.0
508,120.15607758125,120.52416175208333,59.0,82.0
509,120.15607758125,120.69437408541667,64.0,87.0
510,120.66671458125,120.8167142,55.0,78.0
511,121.17735158125,121.6911800625,57.0,73.0
512,121.17735158125,121.70075450625001,53.0,73.0
513,122.19862558125,122.37522087708334,53.0,80.0
514,122.19862558125,122.39011445625,57.0,79.0
515,122.19862558125,122.42309309583334,60.0,81.0
516,121.68798858125,122.43053988541666,48.0,56.0
517,121.17735158125,122.48053975833334,41.0,77.0
518,123.21989958125,123.74755781458333,60.0,80.0
519,123.21989958125,124.01670606666667,64.0,84.0
520,123.73053658125,124.05925915,55.0,80.0
521,123.21989958125,124.25393950625,48.0,80.0
522,124.24117358125,124.71138515208334,55.0,75.0
523,124.24117358125,124.7996828,59.0,83.0
524,124.24117358125,124.88798044791666,47.0,81.0
525,124.24117358125,125.03904389375,64.0,88.0
526,125.26244758125,125.74223359583334,64.0,82.0
527,125.26244758125,125.79223346875,60.0,76.0
528,125.26244758125,125.79755260416667,57.0,72.0
529,125.77308458125,126.39861490625,52.0,64.0
530,126.28372158125,126.58372081875,57.0,80.0
531,126.28372158125,126.625210075,60.0,85.0
532,125.26244758125,126.81882660416667,45.0,83.0
533,126.28372158125,126.829464875,64.0,87.0
534,126.53904008125,126.86776265,52.0,74.0
535,126.79435858125,126.94542202708334,57.0,81.0
536,127.30499558125,127.64542024791666,55.0,76.0
537,127.30499558125,127.78478159583334,59.0,80.0
538,127.81563258125,128.41669488333332,47.0,52.0
539,128.32626958125,128.87626818333334,59.0,81.0
540,128.32626958125,128.88371497291666,52.0,83.0
541,127.30499558125,128.9166936125,40.0,82.0
542,128.83690658125,129.13690581875,55.0,86.0
543,129.34754358125,129.83903169375,53.0,78.0
544,129.34754358125,129.9124357625,57.0,80.0
545,129.85818058125,130.55605114791666,45.0,65.0
546,130.36881758125,130.557114975,50.0,86.0
547,130.36881758125,130.55817880208335,53.0,84.0
548,129.34754358125,130.60392336666666,38.0,86.0
549,130.36881758125,130.61030632916666,57.0,81.0
550,131.39009158125,131.69221847291666,52.0,86.0
551,131.39009158125,131.81562241458334,57.0,85.0
552,131.90072858125,132.06774943333335,52.0,85.0
553,131.64541008125,132.12413226875,47.0,74.0
554,131.39009158125,132.24328090208334,40.0,88.0
555,132.41136558125,132.67945000625,52.0,86.0
556,132.66668408125,132.91668344583334,47.0,78.0
557,132.41136558125,132.92306640833334,40.0,88.0
558,132.41136558125,132.97944924375,56.0,86.0
559,132.92200258125,133.18476787083333,52.0,85.0
560,133.17732108125,133.39008649791666,59.0,75.0
561,133.43263958125,133.9081702875,60.0,79.0
562,133.43263958125,133.94114892708333,57.0,73.0
563,133.94327658125,134.53795592083333,52.0,63.0
564,134.45391358125,134.76029578125,57.0,79.0
565,134.45391358125,134.77518936041668,64.0,88.0
566,134.70923208125,134.95923144583332,52.0,76.0
567,133.43263958125,135.02199724375,45.0,84.0
568,134.96455058125,135.22731587083334,60.0,83.0
569,135.21986908125,135.57199584583333,57.0,72.0
570,135.47518758125,136.00071816041665,59.0,79.0
571,135.98582458125,136.68582280208332,47.0,68.0
572,135.47518758125,136.92518389583333,40.0,80.0
573,136.49646158125,137.05071549166667,55.0,82.0
574,137.00709858125,137.17092795208333,52.0,90.0
575,137.51773558125,138.07198949166667,53.0,76.0
576,137.51773558125,138.28156342708334,57.0,77.0
577,138.02837258125,138.71134956875,48.0,67.0
578,137.51773558125,138.8422003,41.0,83.0
579,138.53900958125,138.88368955625,53.0,77.0
580,138.53900958125,138.91347671458334,57.0,84.0
581,139.56028358125,139.85283602916667,55.0,75.0
582,139.56028358125,140.2528350125,60.0,70.0
583,140.07092058125,140.34113266041666,55.0,80.0
584,139.56028358125,140.48049400833332,48.0,85.0
585,140.58155758125,140.82411015625,55.0,86.0
586,140.58155758125,141.14432210833334,47.0,86.0
587,140.58155758125,141.1464497625,59.0,86.0
588,141.09219458125,141.21453469583332,55.0,82.0
589,141.60283158125,142.11772388958335,60.0,81.0
590,141.60283158125,142.12623450625,57.0,79.0
591,142.11346858125,142.7038926125,52.0,63.0
592,142.62410558125,142.88155173541668,57.0,79.0
593,142.62410558125,143.093253325,64.0,87.0
594,142.87942408125,143.14750850625,52.0,76.0
595,141.60283158125,143.15708295,45.0,86.0
596,142.62410558125,143.17091270208334,60.0,82.0
597,143.13474258125,143.33899738125,57.0,82.0
598,143.64537958125,144.2613354625,55.0,78.0
599,143.64537958125,144.344313975,59.0,79.0
600,144.15601658125,144.72197258958334,47.0,53.0
601,144.66665358125,144.92729121666667,55.0,86.0
602,144.66665358125,145.17197144583332,64.0,87.0
603,144.92197208125,145.20814156666665,47.0,75.0
604,143.64537958125,145.23260958958335,40.0,81.0
605,145.17729058125,145.50175784166666,59.0,82.0
606,145.43260908125,145.55175771458335,55.0,79.0
607,145.68792758125,146.23579852916666,57.0,80.0
608,145.68792758125,146.55175517291667,62.0,78.0
609,146.45388308125,146.77835034166668,57.0,78.0
610,146.70920158125,147.02728587916667,65.0,86.0
611,146.19856458125,147.21451944583333,45.0,62.0
612,146.96452008125,147.29217882291667,62.0,81.0
613,145.68792758125,147.35919992916666,38.0,87.0
614,147.21983858125,147.41877424583333,57.0,82.0
615,147.73047558125,148.01558123958333,55.0,78.0
616,147.73047558125,148.15175110625,59.0,79.0
617,148.24111258125,148.67940933958334,55.0,85.0
618,148.49643108125,148.8060047625,62.0,86.0
619,148.75174958125,148.84323871041667,55.0,74.0
620,148.75174958125,149.19962078333333,67.0,87.0
621,147.98579408125,149.2591951,50.0,74.0
622,149.00706808125,149.2783439875,62.0,86.0
623,147.73047558125,149.34642892083335,43.0,85.0
624,149.26238658125,149.39855644791666,55.0,86.0
625,149.77302358125,150.35493699583333,57.0,83.0
626,149.77302358125,150.40068156041667,53.0,80.0
627,150.28366058125,150.95280781666668,48.0,71.0
628,149.77302358125,151.07621175833333,41.0,85.0
629,150.79429758125,151.22301989583335,53.0,85.0
630,150.79429758125,151.29323248333333,57.0,91.0
631,150.79429758125,151.42940235,60.0,90.0
632,151.30493458125,151.66344430833334,48.0,77.0
633,151.56025308125,151.70918887291666,53.0,85.0
634,151.81557158125,152.30067673125,59.0,80.0
635,151.81557158125,152.37088931875,55.0,80.0
636,152.32620858125,152.91556878541667,50.0,67.0
637,152.83684558125,153.0889726,55.0,84.0
638,152.83684558125,153.14854691666667,59.0,83.0
639,151.81557158125,153.17727024791668,43.0,85.0
640,152.83684558125,153.24535518125,62.0,80.0
641,153.09216408125,153.30067418958333,50.0,81.0
642,153.34748258125,153.52088639583334,55.0,89.0
643,153.85811958125,154.34003325,64.0,85.0
644,153.85811958125,154.36875658125,59.0,79.0
645,154.36875658125,154.940031725,47.0,62.0
646,154.87939358125,155.12300998333333,55.0,85.0
647,153.85811958125,155.20386084166665,40.0,87.0
648,154.87939358125,155.20386084166665,59.0,88.0
649,155.13471208125,155.26981812083332,47.0,81.0
650,154.87939358125,155.27620108333335,64.0,87.0
651,155.39003058125,155.7123701875,55.0,85.0
652,155.90066758125,156.36556001666668,60.0,83.0
653,155.90066758125,156.38683655833333,57.0,78.0
654,156.41130458125,156.99428182291666,52.0,68.0
655,156.92194158125,157.18364304375,57.0,83.0
656,156.92194158125,157.21555785625,60.0,85.0
657,157.17726008125,157.45917425833332,52.0,81.0
658,155.90066758125,157.48364228125,45.0,85.0
659,157.43257858125,157.7421522625,59.0,85.0
660,157.68789708125001,158.0421515,60.0,74.0
661,157.94321558125,158.157044825,57.0,74.0
662,157.94321558125,158.1761937125,62.0,81.0
663,157.94321558125,158.22832123958332,38.0,87.0
664,158.45385258125,158.59853306458334,62.0,79.0
665,158.45385258125,158.61555429791667,57.0,75.0
666,158.45385258125,158.62193726041667,38.0,67.0
667,158.96448958125,159.3698077,38.0,87.0
668,158.96448958125,159.3761906625,57.0,82.0
669,158.96448958125,159.37831831666668,62.0,84.0
670,158.96448958125,159.39853103125,65.0,83.0
671,159.47512658125,159.54321151458333,62.0,80.0
672,159.47512658125,159.561296575,57.0,81.0
673,159.47512658125,159.60278583125,38.0,87.0
674,159.47512658125,159.61555175625,65.0,85.0
675,159.98576358125,160.08895480833334,64.0,84.0
676,159.98576358125,160.10810369583334,59.0,84.0
677,159.98576358125,160.14001850833333,67.0,82.0
678,159.98576358125,160.20172047916665,40.0,85.0
679,160.49640058125,160.61235773333334,64.0,79.0
680,160.49640058125,160.63257044791666,59.0,78.0
681,160.49640058125,160.63469810208332,67.0,78.0
682,160.49640058125,160.69533624583335,40.0,85.0
683,161.00703758125,161.40916421875,40.0,87.0
684,161.00703758125,161.41022804583332,59.0,84.0
685,161.00703758125,161.4123557,64.0,87.0
686,161.00703758125,161.41767483541668,67.0,82.0
687,161.51767458125,161.58575951458334,64.0,85.0
688,161.51767458125,161.62086580833332,59.0,83.0
689,161.51767458125,161.63469556041667,40.0,86.0
690,161.51767458125,161.65916358333334,67.0,81.0
691,162.02831158125,162.12831132708334,65.0,81.0
692,162.02831158125,162.1463963875,60.0,85.0
693,162.02831158125,162.15384317708333,69.0,83.0
694,162.02831158125,162.1719282375,41.0,86.0
695,162.53894858125,162.6378845,65.0,77.0
696,162.53894858125,162.65171425208334,48.0,81.0
697,162.53894858125,162.6570333875,60.0,80.0
698,162.53894858125,162.6570333875,69.0,79.0
699,162.53894858125,162.67830992916666,41.0,83.0
700,163.04958558125,163.38043580416667,65.0,85.0
701,163.04958558125,163.39001024791668,48.0,86.0
702,163.04958558125,163.39320172916666,41.0,87.0
703,163.04958558125,163.40064851875,60.0,86.0
704,163.04958558125,163.41447827083334,69.0,84.0
705,163.56022258125,163.61660541666666,69.0,78.0
706,163.56022258125,163.61979689791667,65.0,77.0
707,163.56022258125,163.65383936458332,60.0,79.0
708,163.56022258125,163.66234998125,41.0,86.0
709,164.07085958125,164.32724190833332,59.0,84.0
710,164.07085958125,164.33468869791668,55.0,85.0
711,164.07085958125,164.34426314166666,62.0,85.0
712,164.58149658125,164.69745373333333,55.0,84.0
713,164.32617808125,164.897453225,50.0,75.0
714,164.83681508125,165.11766543125,67.0,85.0
715,164.83681508125,165.1400058,62.0,90.0
716,164.83681508125,165.14745258958334,55.0,90.0
717,164.83681508125,165.16234616875,59.0,94.0
718,164.07085958125,165.31128196041666,43.0,85.0
719,165.09213358125,165.55170688125,50.0,80.0
720,165.34745208125,165.66128107083333,62.0,82.0
721,165.60277058125,165.90702512708333,55.0,85.0
722,165.85808908125,165.957025,59.0,77.0
723,166.11340758125,166.63893816041667,63.0,80.0
724,166.11340758125,166.67298062708332,56.0,78.0
725,166.11340758125,166.98361813541666,44.0,99.0
726,166.87936308125,167.00914998541666,56.0,83.0
727,166.62404458125,167.01234146666667,51.0,72.0
728,167.13468158125,167.48042538333334,60.0,85.0
729,167.13468158125,167.5080848875,63.0,84.0
730,167.13468158125,167.54425500833332,56.0,88.0
731,167.64531858125,168.07616855,60.0,86.0
732,167.13468158125,168.09106212916666,44.0,101.0
733,167.64531858125,168.09957274583334,56.0,86.0
734,167.64531858125,168.09957274583334,63.0,85.0
735,167.13468158125,168.11021101666665,51.0,89.0
736,167.64531858125,168.13680669375,68.0,85.0
737,168.15595558125,168.5931885125,61.0,83.0
738,168.15595558125,168.60701826458333,54.0,84.0
739,168.66659258125,169.2570166125,49.0,77.0
740,168.15595558125,169.30914413958334,42.0,87.0
741,169.17722958125,169.43786721666666,58.0,89.0
742,169.17722958125,169.43893104375,54.0,89.0
743,169.17722958125,169.49212239791666,61.0,92.0
744,169.43254808125,169.57297325625,49.0,77.0
745,169.68786658125,169.98041902916665,54.0,85.0
746,170.19850358125,170.61233231666668,54.0,86.0
747,170.19850358125,170.64424712916667,61.0,85.0
748,170.96445908125,171.08999067708334,54.0,78.0
749,170.70914058125,171.29105399583332,49.0,73.0
750,171.21977758125,171.49637262291668,54.0,86.0
751,170.19850358125,171.58786175208334,42.0,86.0
752,171.47509608125,171.62615952708333,49.0,87.0
753,171.21977758125,171.80488247708334,66.0,87.0
754,171.73041458125,171.89211629791666,54.0,89.0
755,172.24105158125,172.76339067916666,53.0,84.0
756,172.24105158125,172.77402895,56.0,79.0
757,173.00700708125,173.08573028541667,60.0,73.0
758,172.75168858125,173.32509137916668,48.0,71.0
759,173.26232558125,173.51232494583334,53.0,90.0
760,173.26232558125,173.52934617916668,65.0,92.0
761,172.24105158125,173.56764395416667,41.0,89.0
762,173.51764408125,173.64743098541666,48.0,81.0
763,173.77296258125,173.8718985,53.0,82.0
764,173.77296258125,173.93466429791667,60.0,81.0
765,174.28359958125,174.53359894583335,58.0,79.0
766,174.28359958125,174.5676414125,61.0,81.0
767,174.79423658125,174.99742755416668,58.0,81.0
768,174.53891808125,175.09849112708332,53.0,75.0
769,175.04955508125,175.12827828541666,58.0,55.0
770,175.04955508125,175.34955431875,70.0,88.0
771,174.28359958125,175.52934109583333,46.0,86.0
772,175.30487358125,175.54210702083333,53.0,94.0
773,175.56019208125,175.748489475,58.0,85.0
774,175.56019208125,175.8123191,61.0,89.0
775,175.56019208125,175.87402107083332,65.0,89.0
776,175.81551058125,175.92508477083334,46.0,86.0
777,176.07082908125,176.20593512083335,58.0,85.0
778,176.32614758125,176.58359373541666,58.0,85.0
779,176.32614758125,176.5974234875,63.0,85.0
780,176.83678458125,176.96125235,58.0,79.0
781,176.83678458125,176.96444383125,63.0,80.0
782,176.32614758125,177.0952945625,39.0,89.0
783,177.34742158125,177.57082526875,58.0,87.0
784,177.34742158125,177.59422946458332,63.0,87.0
785,177.34742158125,177.61656983333333,66.0,87.0
786,177.34742158125,177.62933575833333,46.0,85.0
787,177.34742158125,177.68571859375,39.0,89.0
788,177.85805858125,178.212313,58.0,86.0
789,178.11337708125,178.212313,63.0,75.0
790,178.36869558125,178.61656729166666,56.0,85.0
791,178.36869558125,178.64422679583333,60.0,86.0
792,178.87933258125,179.04635343333334,63.0,77.0
793,179.13465108125,179.16550206666668,63.0,56.0
794,179.13465108125,179.26124650416668,68.0,81.0
795,178.62401408125,179.44954389791667,51.0,78.0
796,179.38996958125,179.67081993125,63.0,92.0
797,178.36869558125,179.67826672083334,44.0,86.0
798,179.38996958125,179.68358585625,60.0,101.0
799,179.38996958125,179.68890499166667,56.0,92.0
800,179.38996958125,179.71018153333333,68.0,85.0
801,179.64528808125,179.78677708333333,51.0,85.0
802,179.90060658125,179.99635101875,44.0,87.0
803,180.15592508125,180.29209494791667,56.0,86.0
804,180.41124358125,180.49315826666665,37.0,85.0
805,180.41124358125,180.6314557875,56.0,87.0
806,180.41124358125,180.69847689375,61.0,89.0
807,180.41124358125,180.7974128125,65.0,89.0
808,181.17719908125,181.52826201875,56.0,79.0
809,181.43251758125,181.67294250208334,61.0,91.0
810,181.43251758125,181.7165594125,63.0,94.0
811,180.92188058125,182.00804803333332,49.0,78.0
812,181.68783608125,182.0357075375,56.0,85.0
813,182.19847308125,182.29315369166667,49.0,85.0
814,181.94315458125,182.33783442916666,61.0,92.0
815,182.45379158125,182.48996170208332,59.0,85.0
816,182.45379158125,182.88676920416665,61.0,85.0
817,182.45379158125,182.92081167083333,66.0,81.0
818,182.45379158125,183.10698141041667,49.0,91.0
819,182.96442858125,183.17719399791667,61.0,87.0
820,182.96442858125,183.331448925,65.0,90.0
821,183.47506558125,183.73038408125,68.0,73.0
822,183.47506558125,183.93357505416665,56.0,89.0
823,183.47506558125,183.96017073125,49.0,89.0
824,183.47506558125,183.97506431041666,63.0,96.0
825,183.98570258125,184.35059527083334,61.0,92.0
826,184.49633958125,185.01974250625,61.0,75.0
827,184.49633958125,185.30272051041666,54.0,82.0
828,185.00697658125,185.31974174375,58.0,82.0
829,185.26229508125,185.62612394375,61.0,80.0
830,185.77293208125,185.93782527916667,54.0,85.0
831,185.77293208125,186.11335674791667,58.0,82.0
832,185.77293208125,186.35803697708334,61.0,87.0
833,186.02825058125,186.37293055625,54.0,84.0
834,184.49633958125,186.39633475208333,42.0,87.0
835,184.75165808125,186.41548363958333,49.0,79.0
836,186.28356908125,186.46016437708334,58.0,81.0
837,185.77293208125,186.50058980625,66.0,85.0
838,186.53888758125,186.86335484166668,56.0,74.0
839,186.53888758125,187.04952458125,60.0,80.0
840,187.04952458125,187.43782146666666,56.0,78.0
841,187.30484308125,187.48143837708332,63.0,78.0
842,186.79420608125,187.76973551666666,51.0,83.0
843,187.56016158125001,187.77186317083334,56.0,85.0
844,187.56016158125001,188.10909635625,68.0,88.0
845,186.53888758125,188.14420265,44.0,87.0
846,187.81548008125,188.14633030416667,63.0,79.0
847,188.07079858125,188.18675573333334,56.0,86.0
848,188.58143558125,188.88675395416666,60.0,86.0
849,188.58143558125,189.1335618375,65.0,86.0
850,189.09207258125,189.19207232708334,60.0,72.0
851,188.83675408125,189.48249712083333,48.0,76.0
852,189.34739108125,189.71653907916667,60.0,87.0
853,189.34739108125,189.82079413333332,68.0,84.0
854,189.85802808125,189.99313412083333,60.0,85.0
855,189.60270958125,189.99951708333333,48.0,78.0
856,188.58143558125,190.0144106625,41.0,89.0
857,189.85802808125,190.13568695,65.0,86.0
858,190.11334658125,190.21653780833333,60.0,80.0
859,190.62398358125,191.18993958958333,61.0,80.0
860,190.62398358125,191.20483316875,58.0,79.0
861,191.13462058125,191.40376883333334,65.0,82.0
862,190.87930208125,191.51547067708333,53.0,78.0
863,191.38993908125,191.82823583958333,70.0,86.0
864,191.90057608125,192.09312878333333,61.0,77.0
865,191.90057608125,192.09844791875,58.0,80.0
866,191.64525758125,192.1527031,53.0,83.0
867,190.62398358125,192.18249025833333,46.0,85.0
868,191.90057608125,192.25057519166666,65.0,83.0
869,192.66653158125,192.931424525,58.0,80.0
870,192.66653158125,193.00270093958332,63.0,84.0
871,192.66653158125,193.03780723333333,66.0,85.0
872,193.17716858125,193.2824874625,58.0,77.0
873,192.92185008125,193.8186563125,54.0,80.0
874,193.68780558125,193.98035802916667,58.0,90.0
875,192.66653158125,193.99206012708333,51.0,91.0
876,193.68780558125,194.06546419583333,63.0,90.0
877,193.94312408125,194.13674061041667,54.0,76.0
878,194.45376108125,194.51759070625,63.0,68.0
879,194.19844258125,194.52184601458333,58.0,86.0
880,194.70907958125,194.98780227708335,56.0,83.0
881,194.70907958125,195.08141906041666,63.0,83.0
882,195.21971658125,195.4016310125,56.0,71.0
883,195.47503508125,195.55801359375,60.0,84.0
884,194.96439808125,195.80907678541666,51.0,77.0
885,195.73035358125,196.01758689375,56.0,85.0
886,195.73035358125,196.05056553333333,60.0,89.0
887,195.73035358125,196.22609700208332,68.0,86.0
888,195.98567208125,196.46545809583333,51.0,84.0
889,194.70907958125,196.480351675,44.0,86.0
890,196.24099058125,196.56013870625,56.0,86.0
891,196.75162758125,197.0867331125,61.0,79.0
892,196.75162758125,197.11332878958333,65.0,80.0
893,197.26226458125,197.42715777916666,65.0,79.0
894,197.26226458125,197.44311518541667,61.0,71.0
895,197.26226458125,197.46013641875,68.0,73.0
896,196.75162758125,197.60162542083333,37.0,91.0
897,197.77290158125,198.06651785625,65.0,77.0
898,197.77290158125,198.09949649583334,61.0,76.0
899,197.77290158125,198.16758142916666,37.0,86.0
900,197.77290158125,198.1718367375,44.0,85.0
901,197.77290158125,198.17290056458333,68.0,81.0
902,198.28353858125,198.38672980833334,68.0,72.0
903,198.28353858125,198.45587856875,65.0,81.0
904,198.28353858125,198.52821881041666,61.0,77.0
905,198.28353858125,198.58460164583335,73.0,79.0
906,198.79417558125,199.17502567708334,37.0,96.0
907,198.79417558125,199.30694023541668,61.0,85.0
908,198.79417558125,199.31225937083335,73.0,85.0
909,198.79417558125,199.314387025,68.0,85.0
910,198.79417558125,199.31864233333334,65.0,86.0
911,199.81544958125,199.93459821458333,43.0,80.0
912,199.81544958125,200.12076795416667,55.0,77.0
913,199.81544958125,200.12395943541668,58.0,79.0
914,199.81544958125,200.15161893958333,61.0,83.0
915,200.83672358125,201.36757329583332,61.0,81.0
916,200.83672358125,201.59523229166666,54.0,77.0
917,201.85799758125,202.36969840833333,58.0,80.0
918,201.34736058125,202.37927285208335,49.0,62.0
919,200.83672358125,202.47288963541666,42.0,85.0
920,202.11331608125,202.47820877083333,61.0,77.0
921,202.36863458125,202.82820788125,66.0,77.0
922,202.87927158125,203.373951175,60.0,71.0
923,202.87927158125,203.48139771041667,56.0,71.0
924,203.90054558125,204.19841716458333,60.0,77.0
925,203.90054558125,204.20692778125,63.0,79.0
926,203.90054558125,204.21118308958333,56.0,76.0
927,203.38990858125,204.24416172916668,51.0,46.0
928,202.87927158125,204.3888422125,44.0,82.0
929,204.92181958125,205.4803288,56.0,81.0
930,205.43245658125,205.96437012291668,53.0,73.0
931,205.68777508125,206.27607145833332,56.0,79.0
932,205.17713808125,206.28564590208333,48.0,62.0
933,204.92181958125,206.34947552708334,41.0,81.0
934,205.94309358125,206.4696879875,65.0,90.0
935,206.96436758125,207.47500458125,58.0,69.0
936,206.96436758125,207.484579025,61.0,76.0
937,207.47500458125,208.1420241625,53.0,71.0
938,207.98564158125,208.28670464583334,58.0,78.0
939,207.98564158125,208.327130075,61.0,77.0
940,207.98564158125,208.42181068541666,65.0,85.0
941,206.96436758125,208.60691659791667,46.0,78.0
942,208.24096008125,208.66117177916666,53.0,78.0
943,208.49627858125,208.82074584166668,58.0,75.0
944,208.75159708125,208.96329867083332,61.0,73.0
945,209.00691558125,209.54946739375,66.0,82.0
946,209.51755258125,210.22074228333332,58.0,76.0
947,209.26223408125,210.30478462291666,54.0,67.0
948,209.00691558125,210.34308239791667,51.0,83.0
949,210.53882658125,210.8101024875,54.0,73.0
950,209.77287108125,210.87925124791667,63.0,80.0
951,210.79414508125,211.11967616875,58.0,74.0
952,211.30478208125,211.90478055625,51.0,81.0
953,211.56010058125,212.38243891666667,56.0,86.0
954,211.81541908125,212.53243853541667,63.0,87.0
955,212.07073758125,212.71541679375,51.0,80.0
956,211.04946358125,212.79626765208334,44.0,81.0
957,213.09201158125,213.6696696875,56.0,83.0
958,213.09201158125,213.7462652375,65.0,89.0
959,213.60264858125,213.97817954166666,53.0,73.0
960,213.85796708125,214.1930726125,56.0,86.0
961,213.85796708125,214.26009371875,63.0,85.0
962,214.36860408125,214.55158233958332,56.0,85.0
963,214.11328558125,214.57179505416667,53.0,76.0
964,213.09201158125,214.5760503625,49.0,86.0
965,214.36860408125,214.66328418333333,61.0,86.0
966,214.87924108125,215.01221946666666,56.0,83.0
967,215.13455958125,215.399452525,56.0,86.0
968,215.13455958125,215.71540916875,65.0,90.0
969,215.13455958125,215.95796174375,49.0,96.0
970,215.64519658125,215.96434470625,56.0,87.0
971,216.15583358125,216.48242849583335,56.0,87.0
972,216.15583358125,216.74944909375,61.0,90.0
973,216.66647058125,217.1037035125,56.0,90.0
974,216.15583358125,217.14412894166668,49.0,99.0
975,217.17710758125,217.70051050625,61.0,75.0
976,217.17710758125,217.98348851041666,54.0,82.0
977,217.68774458125,218.00050974375,58.0,82.0
978,217.94306308125,218.30689194375,61.0,80.0
979,218.45370008125,218.61859327916667,54.0,85.0
980,218.45370008125,218.79412474791667,58.0,82.0
981,218.45370008125,219.03880497708334,61.0,87.0
982,218.70901858125,219.05369855625,54.0,84.0
983,217.17710758125,219.07710275208333,42.0,87.0
984,217.43242608125001,219.09625163958333,49.0,79.0
985,218.96433708125,219.14093237708335,58.0,81.0
986,218.45370008125,219.18135780625,66.0,85.0
987,219.21965558125,219.54412284166668,56.0,74.0
988,219.21965558125,219.73029258125,60.0,80.0
989,219.73029258125,220.11858946666666,56.0,78.0
990,219.98561108125,220.16220637708332,63.0,78.0
991,219.47497408125,220.45050351666666,51.0,83.0
992,220.24092958125,220.45263117083334,56.0,85.0
993,220.24092958125,220.78986435625,68.0,88.0
994,219.21965558125,220.82497065,44.0,87.0
995,220.49624808125,220.82709830416667,63.0,79.0
996,220.75156658125,220.86752373333334,56.0,86.0
997,221.26220358125,221.56752195416666,60.0,86.0
998,221.26220358125,221.8143298375,65.0,86.0
999,221.77284058125,221.87284032708334,60.0,72.0
1000,221.51752208125,222.16326512083333,48.0,76.0
1001,222.02815908125,222.39730707916667,60.0,87.0
1002,222.02815908125,222.50156213333332,68.0,84.0
1003,222.53879608125,222.67390212083333,60.0,85.0
1004,222.28347758125,222.68028508333333,48.0,78.0
1005,221.26220358125,222.6951786625,41.0,89.0
1006,222.53879608125,222.81645495,65.0,86.0
1007,222.79411458125,222.89730580833333,60.0,80.0
1008,223.30475158125,223.87070758958333,61.0,80.0
1009,223.30475158125,223.88560116875001,58.0,79.0
1010,223.81538858125,224.08453683333335,65.0,82.0
1011,223.56007008125,224.19623867708333,53.0,78.0
1012,224.07070708125,224.50900383958333,70.0,86.0
1013,224.58134408125,224.77389678333333,61.0,77.0
1014,224.58134408125,224.77921591875,58.0,80.0
1015,224.32602558125,224.8334711,53.0,83.0
1016,223.30475158125,224.86325825833333,46.0,85.0
1017,224.58134408125,224.93134319166666,65.0,83.0
1018,225.34729958125,225.612192525,58.0,80.0
1019,225.34729958125,225.68346893958332,63.0,84.0
1020,225.34729958125,225.71857523333333,66.0,85.0
1021,225.85793658125,225.9632554625,58.0,77.0
1022,225.60261808125,226.4994243125,54.0,80.0
1023,226.36857358125,226.66112602916667,58.0,90.0
1024,225.34729958125,226.67282812708333,51.0,91.0
1025,226.36857358125,226.74623219583333,63.0,90.0
1026,226.62389208125,226.81750861041667,54.0,76.0
1027,227.13452908125,227.19835870625,63.0,68.0
1028,226.87921058125,227.20261401458333,58.0,86.0
1029,227.38984758125,227.66857027708335,56.0,83.0
1030,227.38984758125,227.76218706041666,63.0,83.0
1031,227.90048458125,228.0823990125,56.0,71.0
1032,228.15580308125,228.23878159375,60.0,84.0
1033,227.64516608125,228.48984478541666,51.0,77.0
1034,228.41112158125,228.69835489375,56.0,85.0
1035,228.41112158125,228.73133353333333,60.0,89.0
1036,228.41112158125,228.90686500208332,68.0,86.0
1037,228.66644008125,229.14622609583333,51.0,84.0
1038,227.38984758125,229.161119675,44.0,86.0
1039,228.92175858125,229.24090670625,56.0,86.0
1040,229.43239558125,229.9079262875,61.0,80.0
1041,229.43239558125,230.02707492083334,49.0,82.0
1042,230.45366958125,230.51218007083332,61.0,73.0
1043,229.94303258125,230.5972862375,44.0,74.0
1044,230.45366958125,230.72920079583332,49.0,86.0
1045,230.45366958125,230.74834968333334,56.0,85.0
1046,230.45366958125,230.75260499166666,53.0,86.0
1047,229.43239558125,230.78558363125,37.0,91.0
1048,230.70898808125,230.96643423541667,44.0,78.0
1049,230.96430658125,231.27281643541667,49.0,77.0
1050,231.21962508125,231.52600728125,53.0,77.0
1051,231.47494358125,231.62919850833333,56.0,80.0
1052,231.98558058125,232.10047390625,61.0,77.0
1053,232.24089908125,232.30047339791668,61.0,46.0
1054,232.24089908125,232.32919672916665,68.0,63.0
1055,231.47494358125,232.37600512083333,37.0,85.0
1056,232.24089908125,232.38770721875,65.0,80.0
1057,231.73026208125,232.38877104583332,44.0,69.0
1058,232.49621758125,232.58770671041665,37.0,86.0
1059,232.49621758125,232.61643004166666,44.0,87.0
1060,232.49621758125,232.66855756875,61.0,87.0
1061,232.49621758125,232.81962101458333,65.0,84.0
1062,232.49621758125,232.86855706041666,68.0,83.0
1063,232.49621758125,232.96749297916668,73.0,79.0
1064,233.00685458125,233.08983309375,61.0,96.0
1065,233.51749158125,234.12387301875,61.0,81.0
1066,233.51749158125,234.16217079375,57.0,85.0
1067,233.51749158125,234.1972770875,54.0,80.0
1068,234.02812858125,234.65578656041666,49.0,76.0
1069,234.53876558125,234.83344568333334,54.0,86.0
1070,234.53876558125,234.90365827083335,57.0,85.0
1071,233.51749158125,234.905785925,42.0,91.0
1072,234.53876558125,235.11748751458333,61.0,84.0
1073,234.79408408125,235.34408268333334,49.0,68.0
1074,235.04940258125,235.64940105625,54.0,78.0
1075,235.30472108125,235.96854918125,57.0,76.0
1076,236.07067658125,236.4057821125,54.0,81.0
1077,236.32599508125,236.45152667708334,57.0,80.0
1078,235.81535808125,236.667483575,49.0,60.0
1079,235.56003958125,236.72812171875,42.0,89.0
1080,236.58131358125,236.7632280125,57.0,88.0
1081,236.58131358125,236.77705776458333,54.0,87.0
1082,236.58131358125,236.79620665208333,61.0,85.0
1083,236.58131358125,236.8781213375,66.0,82.0
1084,236.83663208125,236.97492960208334,49.0,77.0
1085,237.09195058125,237.18131205625,42.0,91.0
1086,237.60258758125,237.83662953958333,37.0,87.0
1087,237.60258758125,238.36960690833334,61.0,74.0
1088,237.60258758125,238.37705369791666,65.0,81.0
1089,237.60258758125,238.38130900625,68.0,74.0
1090,238.62386158125,238.89620131458332,73.0,82.0
1091,238.62386158125,238.91109489375,61.0,86.0
1092,238.11322458125,238.96747772916666,49.0,87.0
1093,239.13449858125,239.25471104166667,61.0,79.0
1094,238.87918008125,239.37917881041668,56.0,76.0
1095,239.38981708125,239.49726361666666,65.0,84.0
1096,239.38981708125,239.56002941458334,68.0,83.0
1097,239.38981708125,239.56215706875,61.0,85.0
1098,239.90045408125,240.063219625,56.0,68.0
1099,239.64513558125,240.09300678333332,61.0,81.0
1100,239.64513558125,240.16002788958335,68.0,79.0
1101,240.41109108125,240.54406946666666,61.0,79.0
1102,240.15577258125,240.72811155208333,49.0,75.0
1103,240.66640958125,240.87917499791666,65.0,86.0
1104,240.66640958125,240.91747277291665,68.0,86.0
1105,240.66640958125,240.91960042708334,61.0,89.0
1106,240.92172808125,241.1227914,56.0,73.0
1107,241.17704658125,241.28662077083334,49.0,69.0
1108,241.68768358125,242.04300182708334,61.0,80.0
1109,241.68768358125,242.16853342291665,54.0,76.0
1110,242.19832058125,242.667468325,49.0,65.0
1111,241.68768358125,242.6866172125,42.0,83.0
1112,242.70895758125,242.95363781041667,57.0,80.0
1113,242.70895758125,242.95576546458332,61.0,80.0
1114,242.70895758125,243.02704187916666,54.0,82.0
1115,243.79512503333333,244.52810189375,42.0,80.0
1116,243.78342293541667,245.00469642708333,61.0,83.0
1117,243.8866141625,245.13554715833334,66.0,79.0
1118,243.69618911458335,245.15575987291666,57.0,81.0
1119,243.59087023333333,245.18235555,54.0,73.0
