,start,end,pitch,velocity
0,15.259381666666666,15.769798333333334,64.0,65.0
1,15.759381666666666,16.292892916666666,66.0,79.0
2,16.253258760416667,16.696348302083333,69.0,87.0
3,16.74106376041667,17.167893135416666,68.0,60.0
4,17.228868760416667,18.874143333333333,68.0,66.0
5,19.210601666666665,19.504351666666665,68.0,90.0
6,19.460601666666665,19.736643333333333,69.0,66.0
7,19.710601666666665,20.254351666666665,71.0,90.0
8,20.210601666666665,20.658518333333333,69.0,89.0
9,20.710601666666665,21.196018333333335,68.0,85.0
10,20.960601666666665,22.41581,64.0,64.0
11,23.210601666666665,23.700184999999998,64.0,91.0
12,23.710601666666665,24.22083034375,66.0,74.0
13,24.206486089583333,24.667551402083333,69.0,96.0
14,24.698289089583334,24.917551260416666,68.0,66.0
15,24.944190589583332,26.325730333333333,68.0,92.0
16,26.677813666666665,27.191355333333334,68.0,90.0
17,27.177813666666665,27.692397,66.0,87.0
18,27.677813666666665,28.117397,64.0,79.0
19,28.177813666666665,28.640313666666668,61.0,76.0
20,28.677813666666665,28.817397,66.0,66.0
21,28.927813666666665,30.0873902875,66.0,66.0
22,31.13880164791667,31.63275329375,64.0,87.0
23,31.622672647916666,32.13426136666667,66.0,90.0
24,32.112567141666666,32.61566655,69.0,95.0
25,32.60843514166667,32.78715423333333,68.0,91.0
26,32.85636914166667,34.35843595833334,68.0,87.0
27,35.08777514166667,35.37909759166667,68.0,87.0
28,35.33570914166667,35.69108120833334,69.0,80.0
29,35.58364314166667,36.1673211,71.0,91.0
30,36.07951114166667,36.567114675,69.0,97.0
31,36.575379141666666,37.09604054166667,68.0,93.0
32,37.07124714166667,37.611536650000005,64.0,86.0
33,37.56711514166667,38.21794189166667,71.0,92.0
34,38.06298314166667,38.584677600000006,69.0,100.0
35,40.04645514166667,40.54232314166667,69.0,97.0
36,40.54232314166667,40.87910015833334,68.0,87.0
37,40.79025714166667,41.82228241666667,76.0,87.0
38,42.02992714166667,42.50513397500001,68.0,101.0
39,42.52579514166667,42.727241516666666,66.0,87.0
40,42.77372914166667,43.528894783333335,66.0,66.0
41,43.517531141666666,43.689018825000005,64.0,67.0
42,43.76546514166667,45.36154026666667,64.0,65.0
43,46.98860714166667,47.45451645,64.0,91.0
44,47.48447514166667,47.84604555833334,66.0,84.0
45,47.980343141666665,48.46691361666667,69.0,96.0
46,48.47621114166667,48.65286411666667,68.0,93.0
47,48.72414514166667,50.02579864166667,68.0,91.0
48,50.955551141666675,51.24377441666667,68.0,87.0
49,51.203485141666675,51.37910505833334,69.0,80.0
50,51.451419141666676,52.00513840833334,71.0,93.0
51,51.94728714166667,52.46484936666667,69.0,89.0
52,52.44315514166667,53.07951907500001,68.0,66.0
53,52.69108914166667,54.03716415000001,64.0,38.0
54,54.92249514166667,55.311958133333334,64.0,91.0
55,55.418363141666674,55.93592536666667,66.0,84.0
56,55.914231141666676,56.376008216666676,69.0,92.0
57,56.41009914166667,56.584686000000005,68.0,72.0
58,56.65803314166667,58.075389175000005,68.0,86.0
59,58.39357114166667,58.88220773333334,68.0,100.0
60,58.88943914166667,59.34398480833334,66.0,100.0
61,59.38530714166667,59.84915033333334,64.0,93.0
62,59.881175141666674,60.31712575833334,61.0,90.0
63,60.377043141666675,60.54853082500001,66.0,97.0
64,60.624977141666676,61.26753942500001,66.0,97.0
65,61.61671314166667,61.847085150000005,64.0,100.0
66,61.86464714166667,62.246878725,66.0,100.0
67,62.980350141666676,63.45865615000001,64.0,105.0
68,63.35225114166667,63.85535055000001,66.0,98.0
69,63.84811914166667,64.33159044166668,69.0,97.0
70,64.34398714166667,64.54440045833334,68.0,86.0
71,64.59192114166667,66.01960775833334,68.0,90.0
72,66.69936014166667,66.93799661666667,68.0,91.0
73,67.07126114166667,67.35845135833334,69.0,62.0
74,67.31919514166667,67.81506314166667,71.0,90.0
75,67.81506314166667,68.32022866666668,69.0,98.0
76,68.31093114166667,68.77580739166667,68.0,87.0
77,68.80679914166667,69.10948523333334,64.0,76.0
78,69.30266714166667,69.81403101666668,78.0,84.0
79,69.79853514166668,71.0144448,76.0,95.0
80,71.53407314166667,71.78820549166667,64.0,87.0
81,71.78200714166667,72.20762717500001,68.0,95.0
82,72.27787514166667,72.56713147500001,68.0,82.0
83,72.52580914166667,73.39667731666667,76.0,98.0
84,73.51754514166667,73.74688409166667,64.0,86.0
85,73.76547914166667,74.26857855,68.0,96.0
86,74.26134714166668,74.37704967500001,66.0,87.0
87,74.50928114166668,75.33572780833335,76.0,93.0
88,75.25308314166668,75.62085190833334,75.0,87.0
89,75.50101714166668,77.42353870000001,76.0,97.0
90,78.22829114166667,78.76134924166668,80.0,109.0
91,78.72415914166668,79.23758913333334,78.0,106.0
92,79.22002714166668,79.74482077500001,76.0,98.0
93,79.71589514166668,80.10535813333334,73.0,94.0
94,80.21176314166668,80.33779625833334,78.0,96.0
95,80.45969714166668,81.82230108333334,78.0,97.0
96,82.19523514166667,82.64668163333334,80.0,98.0
97,82.69110314166667,83.166309975,78.0,98.0
98,83.18697114166667,83.624987875,76.0,90.0
99,83.68283914166668,84.18283937500001,71.0,89.0
100,84.17870714166668,84.48139323333334,78.0,96.0
101,84.42664114166668,84.48139323333334,78.0,99.0
102,85.17044314166668,85.47106311666667,75.0,84.0
103,85.41837714166668,85.79027814166668,76.0,90.0
104,86.16217914166667,86.66321243333334,80.0,105.0
105,86.65804714166667,87.17560936666668,78.0,103.0
106,87.15391514166667,87.64151867500001,76.0,98.0
107,87.64978314166667,88.11362633333334,73.0,91.0
108,88.14565114166668,88.26858508333335,78.0,87.0
109,88.39358514166668,89.06713917500001,78.0,95.0
110,89.13738714166668,89.25515579166668,76.0,91.0
111,89.38532114166668,90.01238755000001,81.0,104.0
112,90.12912314166668,90.39048690000001,80.0,97.0
113,90.37705714166668,90.88635490000001,78.0,100.0
114,90.87292514166667,91.26342119166668,76.0,97.0
115,91.36879314166667,91.61982631666667,71.0,87.0
116,91.61672714166667,91.99069425833335,81.0,96.0
117,92.11259514166667,92.22209932500002,80.0,66.0
118,92.36052914166667,92.98759555000001,80.0,66.0
119,92.73243014166668,93.32747174166667,78.0,90.0
120,93.35226514166668,94.14565394166668,80.0,89.0
121,94.09606714166668,94.14565394166668,80.0,99.0
122,94.34400114166668,95.03408410833335,81.0,91.0
123,95.08780314166668,95.32643961666668,80.0,93.0
124,95.33573714166668,96.12086147500001,85.0,103.0
125,96.07953914166669,96.21073755000002,80.0,98.0
126,96.32747314166669,97.10949830000001,80.0,90.0
127,97.07127514166667,97.19730825833335,78.0,66.0
128,97.31920914166668,97.83470525000001,78.0,80.0
129,98.06301114166668,98.22313518333335,78.0,93.0
130,98.31094514166668,98.85020159166667,80.0,97.0
131,99.05474714166668,99.18078025833334,78.0,97.0
132,99.30268114166668,99.87189628333334,83.0,97.0
133,100.04648314166668,100.17148320000001,78.0,84.0
134,100.29441714166668,100.66115285000002,78.0,79.0
135,100.79028514166669,101.16115308333335,75.0,90.0
136,101.28615314166669,101.66941778333334,78.0,90.0
137,101.78202114166668,102.78512078333335,76.0,99.0
138,103.02169114166668,103.23553421666668,71.0,98.0
139,103.26962514166668,103.56404676666668,68.0,84.0
140,103.51755914166668,103.94937752500002,69.0,93.0
141,104.01342714166668,104.14669166666668,76.0,72.0
142,104.26136114166668,104.95247716666668,76.0,100.0
143,105.00516314166669,105.14875825000001,78.0,92.0
144,105.25309714166669,105.77995689166669,81.0,103.0
145,105.99689914166669,106.26652736666668,80.0,98.0
146,106.49276714166669,106.81611440000002,78.0,109.0
147,106.98863514166668,107.47398161250001,76.0,103.0
148,107.48868750416668,111.28540288333335,76.0,105.0
149,122.39387914166667,122.89904466666667,64.0,65.0
150,122.88974714166667,123.42487135833335,66.0,79.0
151,123.38561514166668,123.83602857500001,69.0,87.0
152,123.88148314166668,124.14078078333334,68.0,60.0
153,124.12941714166668,124.14078078333334,68.0,66.0
154,126.36082314166669,126.65214559166668,68.0,90.0
155,126.60875714166667,126.88251760000001,69.0,66.0
156,126.85669114166667,127.39594759166667,71.0,90.0
157,127.35255914166667,127.79574116666667,69.0,89.0
158,127.84842714166668,128.329832325,68.0,85.0
159,128.09636114166668,129.53954363333335,64.0,64.0
160,130.32776714166667,130.81330455833336,64.0,91.0
161,130.82363514166667,131.33396595833335,66.0,74.0
162,131.31950314166667,131.78437939166668,69.0,96.0
163,131.81537114166667,132.036445625,68.0,66.0
164,132.0633051416667,133.45070248333334,68.0,92.0
165,133.79884314166668,134.3081409,68.0,90.0
166,134.29471114166668,134.80504195833333,66.0,87.0
167,134.79057914166668,135.22756281666668,64.0,79.0
168,135.28644714166668,135.74512504166668,61.0,76.0
169,135.7823151416667,135.92074495833333,66.0,66.0
170,136.03024914166667,136.88148920833333,66.0,66.0
171,136.89801814166668,137.02405125833334,68.0,100.0
172,137.02198514166668,137.1345885,66.0,100.0
173,137.14595214166667,137.2337621,64.0,100.0
174,137.2699191416667,137.8535971,66.0,100.0
175,138.26165514166667,138.75339090833336,64.0,87.0
176,138.75752314166667,139.24925890833333,66.0,90.0
177,139.25339114166667,139.74512690833336,69.0,95.0
178,139.74925914166667,139.99306090833335,68.0,91.0
179,139.99719314166668,142.22446690833334,68.0,87.0
180,142.22859914166668,142.47240090833336,68.0,87.0
181,142.47653314166666,142.72033490833334,69.0,80.0
182,142.72446714166668,143.21620290833334,71.0,91.0
183,143.22033514166668,143.71207090833335,69.0,97.0
184,143.71620314166668,144.20793890833335,68.0,93.0
185,144.21207114166668,144.70380690833335,64.0,86.0
186,144.70793914166669,145.69554290833335,78.0,92.0
187,145.6996751416667,146.93521290833334,76.0,100.0
188,146.93934514166668,147.18314690833336,64.0,100.0
189,147.1872791416667,147.67901490833333,69.0,97.0
190,147.68314714166667,147.92694890833334,68.0,87.0
191,147.93108114166668,148.92281714166668,76.0,87.0
192,148.92281714166668,149.17075114166667,64.0,86.0
193,149.17075114166667,149.66248690833334,68.0,87.0
194,149.66661914166667,149.91042090833335,66.0,73.0
195,149.9145531416667,150.65835514166668,76.0,66.0
196,150.65835514166668,151.15009090833334,75.0,67.0
197,151.15422314166668,153.62943090833335,76.0,65.0
198,153.63356314166668,154.12529890833335,80.0,109.0
199,154.1294311416667,154.62116690833335,78.0,106.0
200,154.6252991416667,155.1211671416667,76.0,98.0
201,155.1211671416667,155.61290290833335,73.0,94.0
202,155.6170351416667,155.86083690833334,78.0,96.0
203,155.86496914166668,157.47240790833334,78.0,97.0
204,157.6005071416667,158.09224290833333,80.0,98.0
205,158.09637514166667,158.58811090833336,78.0,98.0
206,158.59224314166667,159.08397890833334,76.0,90.0
207,159.08811114166667,159.45587990833334,71.0,89.0
208,159.58397914166667,159.82778090833335,78.0,96.0
209,159.8319131416667,160.57158290833334,78.0,99.0
210,160.57571514166668,160.94348390833335,76.0,84.0
211,160.8236491416667,160.94348390833335,76.0,90.0
212,161.56745114166668,162.05918690833334,80.0,105.0
213,162.06331914166668,162.55505490833335,78.0,103.0
214,162.55918714166668,163.05092290833335,76.0,98.0
215,163.05505514166668,163.54679090833335,73.0,91.0
216,163.5509231416667,163.79472490833336,78.0,87.0
217,163.79885714166667,164.41455990833336,78.0,95.0
218,164.5426591416667,164.78646090833334,76.0,91.0
219,164.79059314166668,165.30712230833336,81.0,104.0
220,165.5343951416667,165.77819690833334,80.0,97.0
221,165.78232914166668,166.27406490833334,78.0,100.0
222,166.27819714166668,166.76993290833335,76.0,97.0
223,166.77406514166668,167.0219991416667,71.0,87.0
224,167.0219991416667,167.51373490833333,81.0,96.0
225,167.6418341416667,167.76166890833335,80.0,66.0
226,167.76580114166669,168.01270208333335,80.0,66.0
227,168.2616691416667,168.87737190833334,78.0,90.0
228,168.7575371416667,169.37323990833335,80.0,89.0
229,169.50133914166668,169.74514090833335,80.0,99.0
230,169.7492731416667,170.48894290833334,81.0,91.0
231,170.49307514166668,170.73687690833336,80.0,93.0
232,170.74100914166667,171.48067890833335,85.0,103.0
233,171.48481114166668,171.72861290833336,80.0,98.0
234,171.73274514166667,172.59638190833334,80.0,90.0
235,172.47654714166669,172.72034890833334,78.0,66.0
236,172.72448114166667,173.34018390833336,78.0,80.0
237,173.4682831416667,173.71208490833334,78.0,93.0
238,173.71621714166668,174.45588690833335,80.0,97.0
239,174.4600191416667,174.70382090833334,78.0,97.0
240,174.70795314166668,175.44762290833336,83.0,97.0
241,175.4517551416667,175.69555690833334,78.0,84.0
242,175.69968914166668,176.19142490833335,78.0,79.0
243,176.19555714166668,176.68729290833335,75.0,90.0
244,176.69142514166668,177.18316090833335,78.0,90.0
245,177.1872931416667,178.29886390833335,76.0,99.0
246,178.4269631416667,178.67076490833335,71.0,98.0
247,178.6748971416667,178.91869890833334,68.0,84.0
248,178.92283114166668,179.41456690833337,69.0,93.0
249,179.41869914166668,179.66250090833336,76.0,72.0
250,179.6666331416667,180.40630290833334,76.0,100.0
251,180.41043514166668,180.65423690833336,78.0,92.0
252,180.6583691416667,181.39803890833335,81.0,103.0
253,181.40217114166668,181.89390690833335,80.0,98.0
254,181.8980391416667,182.38977490833335,78.0,109.0
255,182.3939071416667,182.88564290833335,76.0,103.0
256,182.8897751416667,185.24101590833334,76.0,105.0
257,185.36911514166667,185.86085090833336,80.0,109.0
258,185.8649831416667,186.48068590833336,78.0,106.0
259,186.48481814166666,186.97655390833336,76.0,98.0
260,186.8567191416667,187.34845490833334,73.0,94.0
261,187.35258714166667,187.59638890833335,78.0,96.0
262,187.6005211416667,189.20795990833335,78.0,97.0
263,189.33605914166668,189.82779490833337,80.0,98.0
264,189.83192714166668,190.44762990833334,78.0,98.0
265,190.45176214166668,190.81953090833335,76.0,90.0
266,190.82366314166669,191.31539890833335,71.0,89.0
267,191.3195311416667,191.68729990833336,78.0,96.0
268,191.56746514166667,191.68729990833336,78.0,99.0
269,192.3112671416667,192.55506890833334,80.0,84.0
270,192.55920114166668,193.42283790833335,76.0,90.0
271,193.3030031416667,193.67077190833334,80.0,105.0
272,193.79887114166667,194.29060690833336,78.0,103.0
273,194.2947391416667,194.78647490833336,76.0,98.0
274,194.79060714166667,195.28234290833336,73.0,91.0
275,195.2864751416667,195.53027690833335,78.0,87.0
276,195.53440914166669,196.27407890833337,78.0,95.0
277,196.2782111416667,196.64597990833335,76.0,91.0
278,196.5261451416667,197.14184790833338,81.0,104.0
279,197.2699471416667,197.51374890833335,80.0,97.0
280,197.5178811416667,198.00961690833336,78.0,100.0
281,198.0137491416667,198.50548490833336,76.0,97.0
282,198.5096171416667,198.75341890833334,71.0,87.0
283,198.75755114166668,199.24928690833337,81.0,96.0
284,199.25341914166668,199.49722090833336,80.0,66.0
285,199.5013531416667,199.99308890833333,80.0,66.0
286,199.99722114166667,200.48895690833336,81.0,90.0
287,200.4930891416667,201.23275890833335,80.0,89.0
288,201.2368911416667,201.48069290833337,80.0,99.0
289,201.4848251416667,202.22449490833336,81.0,91.0
290,202.2286271416667,202.47242890833337,80.0,93.0
291,202.4765611416667,203.21623090833336,85.0,103.0
292,203.2203631416667,203.46416490833337,80.0,98.0
293,203.46829714166668,204.33193390833335,80.0,90.0
294,204.3360661416667,204.57986790833337,78.0,66.0
295,204.5840001416667,205.19970290833334,78.0,80.0
296,205.20383514166667,205.44763690833335,78.0,93.0
297,205.4517691416667,206.19143890833334,80.0,97.0
298,206.19557114166668,206.43937290833335,78.0,97.0
299,206.4435051416667,207.18317490833334,83.0,97.0
300,207.18730714166668,207.43110890833336,78.0,84.0
301,207.4352411416667,207.92697690833336,78.0,79.0
302,208.17904314166668,208.54681190833335,75.0,90.0
303,208.42697714166667,209.04267990833335,78.0,90.0
304,209.0468121416667,212.26582190833335,76.0,99.0
305,212.1459871416667,212.38978890833334,71.0,98.0
306,212.39392114166668,212.63772290833336,68.0,84.0
307,212.6418551416667,213.13359090833336,69.0,93.0
308,213.1377231416667,213.38152490833335,76.0,72.0
309,213.38565714166668,214.12532690833336,76.0,100.0
310,214.1294591416667,214.37326090833335,78.0,92.0
311,214.3773931416667,214.99309590833337,81.0,103.0
312,214.9972281416667,215.48896390833335,80.0,98.0
313,215.49309614166668,215.98483190833338,78.0,109.0
314,215.98896414166668,216.60466690833334,76.0,103.0
315,216.60879914166668,224.0282240916667,76.0,105.0
