,start,end,pitch,velocity
0,34.771393800000006,34.924965075,67.0,90.0
1,34.9856793,35.101750612500005,67.0,87.0
2,35.199964800000004,35.382107475000005,67.0,93.0
3,35.414250300000006,35.712464287500005,74.0,98.0
4,35.842821300000004,35.99460686250001,74.0,102.0
5,36.05710680000001,36.2088923625,72.0,96.0
6,36.2713923,36.93746306250001,72.0,94.0
7,37.34281980000001,37.55353387500001,70.0,98.0
8,37.5571053,37.6803194625,72.0,102.0
9,37.771390800000006,37.969604887500005,74.0,96.0
10,37.9856763,38.2803188625,67.0,101.0
11,38.41424730000001,38.569604287500006,67.0,97.0
12,38.6285328,38.7910326375,65.0,99.0
13,38.842818300000005,39.12674658750001,67.0,96.0
14,39.2713893,40.25531688750001,67.0,99.0
15,41.6285298,41.74460111250001,67.0,95.0
16,41.842815300000005,41.96424375000001,67.0,91.0
17,42.05710080000001,42.15710070000001,67.0,94.0
18,42.2713863,42.63745736250001,67.0,96.0
19,42.69995730000001,42.86245713750001,70.0,101.0
20,42.914242800000004,43.06067122500001,69.0,95.0
21,43.128528300000006,43.849956150000004,69.0,95.0
22,43.9856703,44.112455887500005,70.0,94.0
23,44.199955800000005,44.35174136250001,70.0,93.0
24,44.41424130000001,44.542812600000005,67.0,96.0
25,44.6285268,44.9588836125,70.0,104.0
26,45.05709780000001,45.19459766250001,72.0,97.0
27,45.271383300000004,45.59995440000001,70.0,104.0
28,45.69995430000001,45.989239725000004,72.0,98.0
29,46.12852530000001,47.41423830000001,74.0,106.0
30,48.48566580000001,48.601737112500004,67.0,94.0
31,48.69995130000001,48.8195940375,67.0,95.0
32,48.914236800000005,49.057093800000004,67.0,95.0
33,49.12852230000001,49.41066487500001,74.0,100.0
34,49.557093300000005,49.70173601250001,74.0,101.0
35,49.77137880000001,49.93387863750001,72.0,96.0
36,49.9856643,50.685663600000005,72.0,95.0
37,50.84280630000001,50.95709190000001,70.0,101.0
38,51.05709180000001,51.19459166250001,70.0,93.0
39,51.271377300000005,51.408877162500005,72.0,99.0
40,51.48566280000001,51.82851960000001,74.0,111.0
41,51.914233800000005,52.03387653750001,67.0,95.0
42,52.12851930000001,52.47316181250001,65.0,96.0
43,52.557090300000006,52.855304287500005,67.0,93.0
44,52.985661300000004,53.84280330000001,67.0,96.0
45,54.48565980000001,54.594588262500004,67.0,96.0
46,54.69994530000001,54.851730862500006,69.0,97.0
47,54.914230800000006,55.58565870000001,70.0,99.0
48,55.77137280000001,55.87672983750001,67.0,96.0
49,55.985658300000004,56.15351527500001,70.0,96.0
50,56.19994380000001,56.54280060000001,74.0,102.0
51,56.628514800000005,57.25529988750001,72.0,97.0
52,57.271371300000006,57.39279975000001,65.0,91.0
53,57.48565680000001,57.632085225000004,65.0,101.0
54,57.69994230000001,57.83744216250001,67.0,95.0
55,57.914227800000006,58.330298812500004,69.0,98.0
56,58.342798800000004,59.99458286250001,67.0,95.0
57,61.342795800000005,61.56422415000001,74.0,102.0
58,61.55708130000001,61.73922397500001,72.0,95.0
59,61.77136680000001,62.94457991250001,67.0,98.0
60,63.05707980000001,63.22493677500001,74.0,106.0
61,63.27136530000001,64.29814998750001,72.0,99.0
62,65.19993480000001,65.54279160000002,69.0,97.0
63,65.62850580000001,65.76421995000001,69.0,95.0
64,65.8427913,66.1713624,69.0,98.0
65,66.2713623,66.5981476875,65.0,98.0
66,66.69993330000001,67.6427895,70.0,96.0
67,68.19993180000002,68.31600311250001,67.0,96.0
68,68.4142173,68.539217175,67.0,91.0
69,68.6285028,69.59635897500002,70.0,96.0
70,70.12850130000001,70.29278685000001,67.0,94.0
71,70.34278680000001,70.70707215000002,69.0,101.0
72,70.7713578,70.95350047500001,67.0,96.0
73,70.9856433,71.43385713750001,65.0,98.0
74,71.41421430000001,71.79992820000001,67.0,96.0
75,71.8427853,73.66778347500001,62.0,99.0
76,75.05706780000001,75.23563905,74.0,99.0
77,75.27135330000002,75.40885316250001,72.0,94.0
78,75.4856388,76.41242358750002,74.0,111.0
79,76.55706630000002,76.69992330000001,74.0,109.0
80,76.7713518,76.93920877500001,77.0,99.0
81,76.98563730000001,78.11063617500001,72.0,101.0
82,78.48563580000001,78.60170711250001,65.0,98.0
83,78.69992130000001,78.83920687500002,65.0,101.0
84,78.91420680000002,79.05706380000001,77.0,96.0
85,79.1284923,79.63563465000001,79.0,96.0
86,79.77134880000001,79.9588486125,72.0,104.0
87,79.98563430000002,80.39634817500001,77.0,95.0
88,80.4142053,81.274918725,74.0,102.0
89,81.69991830000001,81.82848960000001,67.0,96.0
90,81.91420380000001,82.08384648750001,69.0,96.0
91,82.12848930000001,83.03563125000001,70.0,98.0
92,83.19991680000001,83.52313076250002,74.0,102.0
93,83.62848780000002,83.75527338750001,72.0,96.0
94,83.8427733,84.66955818750002,69.0,97.0
95,84.69991530000001,84.84277230000001,65.0,99.0
96,84.91420080000002,85.2231290625,65.0,101.0
97,85.34277180000001,85.4838430875,67.0,95.0
98,85.55705730000001,87.68384088750001,67.0,96.0
99,88.7713398,88.91241108750002,74.0,112.0
100,88.98562530000001,89.14812513750002,77.0,100.0
101,89.19991080000001,89.50348192500002,79.0,104.0
102,89.62848180000002,90.82669488750001,79.0,101.0
103,91.55705130000001,91.89812238750001,79.0,102.0
104,91.98562230000002,92.17312211250001,77.0,100.0
105,92.1999078,92.324907675,77.0,106.0
106,92.41419330000001,92.58740741250001,74.0,101.0
107,92.62847880000001,92.96240703750001,77.0,100.0
108,93.05704980000002,93.18740681250002,77.0,98.0
109,93.27133530000002,93.55347787500001,79.0,102.0
110,93.69990630000001,93.84276330000002,72.0,101.0
111,93.91419180000001,94.03562025000001,77.0,99.0
112,94.12847730000001,95.01061927500001,74.0,106.0
113,95.62847580000002,95.8427613,72.0,97.0
114,95.8427613,95.95168976250001,70.0,109.0
115,96.05704680000001,96.18740381250001,72.0,101.0
116,96.27133230000001,96.36061792500001,74.0,96.0
117,96.48561780000001,97.24633132500001,67.0,101.0
118,97.77133080000002,98.12668758750002,72.0,101.0
119,98.1999018,98.35168736250002,70.0,99.0
120,98.41418730000001,98.69097273750002,72.0,102.0
121,98.84275830000001,99.10882946250001,77.0,96.0
122,99.27132930000002,102.13561215000001,74.0,106.0
123,102.48561180000002,102.62668308750001,74.0,112.0
124,102.69989730000002,102.86239713750001,77.0,100.0
125,102.91418280000002,103.21775392500001,79.0,104.0
126,103.34275380000001,104.54096688750002,79.0,101.0
127,105.27132330000002,105.61239438750002,79.0,102.0
128,105.69989430000001,105.88739411250002,77.0,100.0
129,105.91417980000001,106.03917967500001,77.0,106.0
130,106.12846530000002,106.30167941250001,74.0,101.0
131,106.34275080000002,106.67667903750001,81.0,100.0
132,106.77132180000001,106.90167881250001,81.0,98.0
133,106.98560730000001,107.26774987500002,81.0,102.0
134,107.41417830000002,107.55703530000001,77.0,101.0
135,107.62846380000002,107.74989225000002,77.0,99.0
136,107.84274930000001,108.72489127500002,74.0,106.0
137,109.34274780000001,109.55703330000001,72.0,97.0
138,109.55703330000001,109.66596176250002,70.0,109.0
139,109.77131880000002,109.90167581250002,72.0,101.0
140,109.98560430000002,110.07488992500001,74.0,96.0
141,110.19988980000001,110.96060332500001,67.0,101.0
142,111.48560280000001,111.82845960000002,72.0,97.0
143,111.91417380000001,112.02845940000002,74.0,102.0
144,112.12845930000002,112.51595891250001,65.0,97.0
145,112.55703030000001,112.92131565000001,70.0,91.0
146,112.98560130000001,115.03738496250001,67.0,96.0
147,117.05702580000002,117.21059707500001,67.0,90.0
148,117.27131130000002,117.38738261250002,67.0,87.0
149,117.48559680000001,117.66773947500002,67.0,93.0
150,117.69988230000001,117.99809628750002,74.0,98.0
151,118.12845330000002,118.28023886250001,74.0,102.0
152,118.34273880000002,118.49452436250002,72.0,96.0
153,118.55702430000001,119.22309506250002,72.0,94.0
154,119.62845180000002,119.83916587500002,70.0,98.0
155,119.84273730000001,119.96595146250002,72.0,102.0
156,120.05702280000001,120.25523688750002,74.0,96.0
157,120.27130830000002,120.56595086250002,67.0,101.0
158,120.69987930000002,120.85523628750002,67.0,97.0
159,120.91416480000001,121.07666463750002,65.0,99.0
160,121.12845030000001,121.41237858750002,67.0,96.0
161,121.55702130000002,122.54094888750002,67.0,99.0
162,123.91416180000002,124.03023311250001,67.0,95.0
163,124.12844730000002,124.24987575000002,67.0,91.0
164,124.34273280000002,124.44273270000002,67.0,94.0
165,124.55701830000001,124.92308936250002,67.0,96.0
166,124.98558930000002,125.14808913750002,70.0,101.0
167,125.19987480000002,125.34630322500001,69.0,95.0
168,125.41416030000002,126.13558815000002,69.0,95.0
169,126.27130230000002,126.39808788750001,70.0,94.0
170,126.48558780000002,126.63737336250001,70.0,93.0
171,126.69987330000002,126.82844460000001,67.0,96.0
172,126.91415880000001,127.24451561250001,70.0,104.0
173,127.34272980000001,127.48022966250002,72.0,97.0
174,127.55701530000002,127.88558640000002,70.0,104.0
175,127.98558630000002,128.27487172500003,72.0,98.0
176,128.41415730000003,129.69987030000001,74.0,106.0
177,130.7712978,130.8873691125,67.0,94.0
178,130.98558330000003,131.10522603750002,67.0,95.0
179,131.19986880000002,131.3427258,67.0,95.0
180,131.4141543,131.69629687500003,74.0,100.0
181,131.8427253,131.9873680125,74.0,101.0
182,132.05701080000003,132.2195106375,72.0,96.0
183,132.27129630000002,132.97129560000002,72.0,95.0
184,133.12843830000003,133.24272390000002,70.0,101.0
185,133.34272380000002,133.4802236625,70.0,93.0
186,133.5570093,133.69450916250003,72.0,99.0
187,133.77129480000002,134.1141516,74.0,111.0
188,134.19986580000003,134.3195085375,67.0,95.0
189,134.41415130000001,134.75879381250002,65.0,96.0
190,134.84272230000002,135.1409362875,67.0,93.0
191,135.27129330000002,136.1284353,67.0,96.0
192,136.77129180000003,136.88022026250002,67.0,96.0
193,136.98557730000002,137.13736286250003,69.0,97.0
194,137.1998628,137.87129070000003,70.0,99.0
195,138.05700480000002,138.16236183750001,67.0,96.0
196,138.2712903,138.439147275,70.0,96.0
197,138.48557580000002,138.8284326,74.0,102.0
198,138.91414680000003,139.54093188750002,72.0,97.0
199,139.55700330000002,139.67843175000002,65.0,91.0
200,139.7712888,139.91771722500002,65.0,101.0
201,139.98557430000002,140.12307416250002,67.0,95.0
202,140.1998598,140.6159308125,69.0,98.0
203,140.62843080000002,142.28021486250003,67.0,95.0
204,143.62842780000003,143.84985615000002,74.0,102.0
205,143.8427133,144.024855975,72.0,95.0
206,144.05699880000003,145.2302119125,67.0,98.0
207,145.34271180000002,145.51056877500002,74.0,106.0
208,145.5569973,146.58378198750003,72.0,99.0
209,147.48556680000002,147.8284236,69.0,97.0
210,147.91413780000002,148.04985195000003,69.0,95.0
211,148.1284233,148.4569944,69.0,98.0
212,148.5569943,148.8837796875,65.0,98.0
213,148.98556530000002,149.9284215,70.0,96.0
214,150.48556380000002,150.60163511250002,67.0,96.0
215,150.6998493,150.82484917500003,67.0,91.0
216,150.91413480000003,151.881990975,70.0,96.0
217,152.41413330000003,152.57841885000002,67.0,94.0
218,152.62841880000002,152.99270415,69.0,101.0
219,153.05698980000003,153.23913247500002,67.0,96.0
220,153.2712753,153.71948913750003,65.0,98.0
221,153.69984630000002,154.08556020000003,67.0,96.0
222,154.12841730000002,155.953415475,62.0,99.0
223,157.34269980000002,157.52127105000002,74.0,99.0
224,157.5569853,157.69448516250003,72.0,94.0
225,157.77127080000002,158.69805558750002,74.0,111.0
226,158.84269830000002,158.98555530000002,74.0,109.0
227,159.0569838,159.22484077500002,77.0,99.0
228,159.27126930000003,160.39626817500002,72.0,101.0
229,160.77126780000003,160.88733911250003,65.0,98.0
230,160.98555330000002,161.12483887500002,65.0,101.0
231,161.1998388,161.34269580000003,77.0,96.0
232,161.41412430000003,161.92126665000004,79.0,96.0
233,162.05698080000002,162.2444806125,72.0,104.0
234,162.2712663,162.68198017500004,77.0,95.0
235,162.6998373,163.560550725,74.0,102.0
236,163.98555030000003,164.11412160000003,67.0,96.0
237,164.19983580000002,164.36947848750003,69.0,96.0
238,164.41412130000003,165.32126325000002,70.0,98.0
239,165.48554880000003,165.8087627625,74.0,102.0
240,165.9141198,166.04090538750003,72.0,96.0
241,166.12840530000003,166.95519018750002,69.0,97.0
242,166.98554730000004,167.12840430000003,65.0,99.0
243,167.19983280000002,167.5087610625,65.0,101.0
244,167.62840380000003,167.7694750875,67.0,95.0
245,167.84268930000002,169.96947288750002,67.0,96.0
246,171.0569718,171.19804308750003,74.0,112.0
247,171.27125730000003,171.4337571375,77.0,100.0
248,171.48554280000002,171.789113925,79.0,104.0
249,171.91411380000002,173.11232688750002,79.0,101.0
250,173.84268330000003,174.18375438750002,79.0,102.0
251,174.2712543,174.45875411250003,77.0,100.0
252,174.48553980000003,174.610539675,77.0,106.0
253,174.69982530000001,174.87303941250002,74.0,101.0
254,174.91411080000003,175.24803903750004,77.0,100.0
255,175.34268180000004,175.47303881250002,77.0,98.0
256,175.55696730000003,175.83910987500002,79.0,102.0
257,175.98553830000003,176.12839530000002,72.0,101.0
258,176.19982380000002,176.32125225000001,77.0,99.0
259,176.41410930000004,177.29625127500003,74.0,106.0
260,177.9141078,178.12839330000003,72.0,97.0
261,178.12839330000003,178.23732176250002,70.0,109.0
262,178.34267880000002,178.47303581250003,72.0,101.0
263,178.55696430000003,178.64624992500003,74.0,96.0
264,178.77124980000002,179.53196332500002,67.0,101.0
265,180.05696280000004,180.41231958750004,72.0,101.0
266,180.4855338,180.63731936250002,70.0,99.0
267,180.69981930000003,180.97660473750003,72.0,102.0
268,181.12839030000004,181.39446146250003,77.0,96.0
269,181.5569613,184.42124415000004,74.0,106.0
270,184.77124380000004,184.91231508750002,74.0,112.0
271,184.98552930000002,185.14802913750003,77.0,100.0
272,185.1998148,185.50338592500003,79.0,104.0
273,185.62838580000002,186.8265988875,79.0,101.0
274,187.55695530000003,187.8980263875,79.0,102.0
275,187.98552630000003,188.17302611250003,77.0,100.0
276,188.19981180000002,188.32481167500003,77.0,106.0
277,188.41409730000004,188.58731141250001,74.0,101.0
278,188.62838280000003,188.96231103750003,81.0,100.0
279,189.05695380000003,189.18731081250002,81.0,98.0
280,189.27123930000002,189.553381875,81.0,102.0
281,189.69981030000002,189.84266730000002,77.0,101.0
282,189.9140958,190.03552425000004,77.0,99.0
283,190.12838130000003,191.01052327500003,74.0,106.0
284,191.62837980000003,191.84266530000002,72.0,97.0
285,191.84266530000002,191.95159376250004,70.0,109.0
286,192.05695080000004,192.18730781250002,72.0,101.0
287,192.27123630000003,192.36052192500003,74.0,96.0
288,192.48552180000001,193.24623532500001,67.0,101.0
289,193.77123480000003,194.11409160000002,72.0,97.0
290,194.19980580000004,194.31409140000002,74.0,102.0
291,194.41409130000002,194.80159091250002,65.0,97.0
292,194.84266230000003,195.20694765000002,70.0,91.0
293,195.27123330000003,197.32301696250002,67.0,96.0
294,213.91407180000002,214.05514308750003,74.0,112.0
295,214.12835730000003,214.29085713750004,77.0,100.0
296,214.34264280000002,214.64621392500004,79.0,104.0
297,214.77121380000003,215.96942688750002,79.0,101.0
298,216.69978330000004,217.04085438750002,79.0,102.0
299,217.12835430000004,217.31585411250003,77.0,100.0
300,217.34263980000003,217.46763967500002,77.0,106.0
301,217.55692530000002,217.73013941250002,74.0,101.0
302,217.77121080000003,218.10513903750004,77.0,100.0
303,218.19978180000004,218.33013881250002,77.0,98.0
304,218.41406730000003,218.69620987500002,79.0,102.0
305,218.84263830000003,218.98549530000003,72.0,101.0
306,219.05692380000002,219.17835225000002,77.0,99.0
307,219.27120930000004,220.15335127500003,74.0,106.0
308,220.77120780000004,220.98549330000003,72.0,97.0
309,220.98549330000003,221.09442176250002,70.0,109.0
310,221.19977880000002,221.33013581250003,72.0,101.0
311,221.41406430000004,221.50334992500004,74.0,96.0
312,221.62834980000002,222.38906332500002,67.0,101.0
313,222.91406280000004,223.26941958750004,72.0,101.0
314,223.34263380000002,223.49441936250003,70.0,99.0
315,223.55691930000003,223.83370473750003,72.0,102.0
316,223.98549030000004,224.25156146250004,77.0,96.0
317,224.41406130000004,227.27834415000004,74.0,106.0
318,227.62834380000004,227.76941508750002,74.0,112.0
319,227.84262930000003,228.00512913750003,77.0,100.0
320,228.05691480000004,228.36048592500003,79.0,104.0
321,228.48548580000002,229.68369888750004,79.0,101.0
322,230.41405530000003,230.75512638750004,79.0,102.0
323,230.84262630000003,231.03012611250003,77.0,100.0
324,231.05691180000002,231.18191167500004,77.0,106.0
325,231.27119730000004,231.44441141250002,74.0,101.0
326,231.48548280000003,231.81941103750003,81.0,100.0
327,231.91405380000003,232.04441081250002,81.0,98.0
328,232.12833930000002,232.41048187500002,81.0,102.0
329,232.55691030000003,232.69976730000002,77.0,101.0
330,232.77119580000004,232.89262425000004,77.0,99.0
331,232.98548130000003,233.86762327500003,74.0,106.0
332,234.48547980000004,234.69976530000002,72.0,97.0
333,234.69976530000002,234.80869376250004,70.0,109.0
334,234.91405080000004,235.04440781250003,72.0,101.0
335,235.12833630000003,235.21762192500003,74.0,96.0
336,235.34262180000002,236.10333532500002,67.0,101.0
337,236.62833480000003,236.97119160000003,72.0,97.0
338,237.05690580000004,237.17119140000003,74.0,102.0
339,237.27119130000003,237.65869091250002,65.0,97.0
340,237.69976230000003,238.06404765000002,70.0,91.0
341,238.12833330000004,240.18011696250002,67.0,96.0
342,241.34261580000003,241.48368708750004,74.0,112.0
343,241.55690130000002,241.71940113750003,77.0,100.0
344,241.77118680000004,242.07475792500003,79.0,104.0
345,242.19975780000004,243.39797088750004,79.0,101.0
346,244.12832730000002,244.46939838750004,79.0,102.0
347,244.55689830000003,244.74439811250002,77.0,100.0
348,244.77118380000005,244.89618367500003,77.0,106.0
349,244.98546930000003,245.15868341250004,74.0,101.0
350,245.19975480000002,245.53368303750003,81.0,100.0
351,245.62832580000003,245.75868281250004,81.0,98.0
352,245.84261130000004,246.12475387500004,81.0,102.0
353,246.27118230000002,246.41403930000004,77.0,101.0
354,246.48546780000004,246.60689625000003,77.0,99.0
355,246.69975330000003,247.58189527500002,74.0,106.0
356,248.19975180000003,248.41403730000005,72.0,97.0
357,248.41403730000005,248.52296576250004,70.0,109.0
358,248.62832280000003,248.75867981250002,72.0,101.0
359,248.84260830000002,248.93189392500003,74.0,96.0
360,249.05689380000004,249.81760732500004,67.0,101.0
361,250.34260680000003,250.68546360000002,72.0,97.0
362,250.77117780000003,250.88546340000002,74.0,102.0
363,250.98546330000002,251.37296291250004,65.0,97.0
364,251.41403430000003,251.77831965000004,70.0,91.0
365,251.84260530000003,253.89438896250005,67.0,96.0
366,255.05688780000003,255.27117330000004,72.0,97.0
367,255.27117330000004,255.38010176250003,70.0,109.0
368,255.48545880000003,255.61581581250005,72.0,101.0
369,255.69974430000002,255.78902992500002,74.0,96.0
370,255.91402980000004,256.674743325,67.0,101.0
371,257.1997428,257.5425996,72.0,97.0
372,257.62831380000006,257.7425994,74.0,102.0
373,257.8425993,258.2300989125,65.0,97.0
374,258.27117030000005,258.63545565000004,70.0,91.0
375,258.6997413,260.7515249625,67.0,96.0
