,start,end,pitch,velocity
0,4.3428528,4.5839239875,58.0,78.0
1,4.1285673,4.5910668375000006,55.0,92.0
2,4.557138300000001,4.812495187500001,62.0,91.0
3,5.199994800000001,5.441065987500001,55.0,94.0
4,5.199994800000001,5.4982087875,67.0,93.0
5,6.057136800000001,6.262493737500001,58.0,90.0
6,3.9142818000000004,6.278565150000001,50.0,77.0
7,6.057136800000001,6.417850725000001,62.0,93.0
8,3.4857108000000006,6.455350687500001,43.0,94.0
9,6.485707800000001,6.6232076625000005,55.0,89.0
10,6.914278800000001,7.617849525000001,57.0,85.0
11,6.914278800000001,7.646420925000001,53.0,85.0
12,7.985706300000001,8.276777437500002,57.0,85.0
13,7.5571353000000006,8.303563125000002,60.0,90.0
14,8.199991800000001,8.691062737500001,53.0,87.0
15,8.628562800000001,9.3767763375,65.0,95.0
16,7.342849800000001,9.5839189875,48.0,79.0
17,9.4857048,9.599990400000001,57.0,85.0
18,9.4857048,9.630347512500002,60.0,87.0
19,6.914278800000001,9.674990325000001,41.0,94.0
20,10.342846800000002,11.041060387500002,58.0,85.0
21,10.9857033,11.664274050000001,55.0,89.0
22,11.4142743,11.716059712500002,58.0,91.0
23,11.628559800000001,11.864273850000002,63.0,91.0
24,12.057130800000001,12.380344762500002,63.0,90.0
25,12.057130800000001,12.414273300000001,58.0,90.0
26,10.342846800000002,12.77855865,39.0,86.0
27,10.771417800000002,12.803558625,46.0,82.0
28,12.9142728,13.078558350000002,58.0,82.0
29,12.9142728,13.096415475000002,55.0,88.0
30,13.771414800000002,14.241057187500003,58.0,83.0
31,14.199985800000002,14.560699725000003,53.0,82.0
32,14.414271300000001,14.862485137500002,58.0,88.0
33,14.842842300000003,15.216056212500002,62.0,96.0
34,15.485698800000002,16.091055337500002,62.0,82.0
35,15.485698800000002,16.174983825,58.0,79.0
36,13.771414800000002,16.4517692625,46.0,85.0
37,17.1999828,17.649982350000002,55.0,86.0
38,17.1999828,17.8767678375,58.0,80.0
39,17.1999828,17.907124950000004,62.0,92.0
40,18.057124800000004,18.094624762500004,62.0,74.0
41,17.8428393,18.3696244875,55.0,88.0
42,18.057124800000004,18.37855305,58.0,96.0
43,18.485695800000002,18.5660528625,55.0,95.0
44,18.485695800000002,18.726766987500003,58.0,100.0
45,18.485695800000002,18.742838400000004,62.0,101.0
46,17.628553800000002,18.748195537500003,50.0,80.0
47,18.6999813,18.805338337500004,55.0,90.0
48,17.1999828,18.8089097625,43.0,94.0
49,18.914266800000004,19.4142663,57.0,93.0
50,18.914266800000004,19.817837325000003,53.0,91.0
51,19.771408800000003,19.857123,60.0,96.0
52,19.771408800000003,19.864265850000002,57.0,99.0
53,19.3428378,19.962480037500004,48.0,84.0
54,19.771408800000003,19.97855145,65.0,95.0
55,18.914266800000004,20.466050962500002,41.0,95.0
56,20.1999798,20.649979350000002,48.0,93.0
57,20.628550800000003,21.20712165,65.0,96.0
58,20.628550800000003,21.214264500000002,69.0,98.0
59,21.057121800000004,21.3660500625,48.0,73.0
60,21.271407300000003,21.539264175000003,65.0,96.0
61,21.271407300000003,21.576764137500003,69.0,98.0
62,21.271407300000003,21.635692650000003,72.0,97.0
63,20.628550800000003,21.816049612500002,41.0,90.0
64,21.485692800000002,21.839263875000004,48.0,93.0
65,21.6999783,21.880335262500004,65.0,97.0
66,21.6999783,21.935692350000004,69.0,99.0
67,22.342834800000002,22.551763162500002,67.0,96.0
68,22.342834800000002,22.551763162500002,70.0,92.0
69,22.771405800000004,23.230333912500004,50.0,89.0
70,23.1999768,23.439262275000004,55.0,95.0
71,23.1999768,23.464262250000004,58.0,95.0
72,23.1999768,23.517833625,62.0,97.0
73,22.342834800000002,23.662476337500003,43.0,95.0
74,23.414262300000004,23.707119150000004,50.0,96.0
75,23.628547800000003,23.946404625000003,55.0,101.0
76,23.842833300000002,23.989261725000002,58.0,99.0
77,24.057118800000005,24.553546875000002,63.0,90.0
78,24.057118800000005,24.778546650000003,70.0,91.0
79,24.057118800000005,24.948189337500004,39.0,102.0
80,24.485689800000003,25.0053321375,46.0,86.0
81,24.699975300000002,25.067832075000002,63.0,97.0
82,24.914260800000005,25.180331962500002,67.0,95.0
83,25.128546300000004,25.499974500000004,70.0,106.0
84,25.771402800000004,26.305330837500005,69.0,96.0
85,25.771402800000004,26.412473587500003,65.0,91.0
86,26.199973800000002,26.932115925000005,48.0,84.0
87,25.771402800000004,27.064258650000003,41.0,96.0
88,26.628544800000004,27.226758487500003,72.0,96.0
89,26.628544800000004,27.369615487500003,65.0,97.0
90,26.628544800000004,27.369615487500003,69.0,98.0
91,27.485686800000003,27.966043462500004,63.0,96.0
92,27.485686800000003,28.383900187500004,70.0,95.0
93,28.128543300000004,28.441042987500005,63.0,95.0
94,28.342828800000003,28.449971550000004,67.0,89.0
95,27.914257800000005,28.716042712500006,46.0,86.0
96,27.485686800000003,28.771399800000005,39.0,100.0
97,28.557114300000002,28.780328362500004,67.0,99.0
98,28.557114300000002,28.803542625000002,63.0,101.0
99,28.557114300000002,28.864256850000004,70.0,100.0
100,29.199970800000003,29.678541750000004,65.0,92.0
101,29.199970800000003,29.733898837500004,69.0,94.0
102,29.842827300000003,29.980327162500004,65.0,95.0
103,30.271398300000005,30.469612387500003,72.0,95.0
104,30.271398300000005,30.476755237500004,65.0,96.0
105,29.628541800000004,30.537469462500002,48.0,85.0
106,29.199970800000003,30.732112125000004,41.0,96.0
107,30.914254800000005,31.628539800000006,69.0,95.0
108,30.914254800000005,31.657111200000003,72.0,95.0
109,30.914254800000005,31.814253900000004,65.0,90.0
110,31.771396800000005,32.1124678875,77.0,89.0
111,31.771396800000005,32.189253525000005,69.0,87.0
112,31.771396800000005,32.201753512500005,72.0,86.0
113,32.1999678,32.4660389625,65.0,69.0
114,32.6285388,32.724967275000004,69.0,93.0
115,32.6285388,32.749967250000005,65.0,95.0
116,30.914254800000005,33.77496622500001,41.0,95.0
117,34.2267514875,34.944607912500004,58.0,78.0
118,34.285680000000006,35.0053221375,62.0,78.0
119,34.18032296250001,35.282107575000005,55.0,83.0
120,34.26782287500001,35.6160358125,43.0,91.0
121,35.912464087500005,36.167820975000005,57.0,74.0
122,36.00710685000001,36.491034937500004,65.0,90.0
123,35.98210687500001,36.492820650000006,62.0,82.0
124,36.392820750000006,36.74282040000001,57.0,78.0
125,36.012463987500006,37.01782012500001,50.0,92.0
126,36.88032026250001,37.02496297500001,65.0,89.0
127,36.885677400000006,37.03032011250001,62.0,89.0
128,36.903534525000005,37.0571058,57.0,73.0
129,37.62853380000001,37.81603361250001,55.0,68.0
130,37.6999623,38.187461812500004,58.0,83.0
131,37.757105100000004,38.326747387500006,63.0,84.0
132,38.17139040000001,38.467818675000004,55.0,79.0
133,37.75353367500001,38.692818450000004,39.0,88.0
134,38.603532825,38.92674678750001,58.0,82.0
135,38.605318537500004,38.93210392500001,63.0,84.0
136,39.4767462375,39.96424575,58.0,78.0
137,39.473174812500005,39.9696028875,55.0,81.0
138,39.46960338750001,40.2124597875,62.0,87.0
139,40.34281680000001,40.7428164,57.0,91.0
140,39.932102925,40.82138775000001,50.0,58.0
141,40.739244975000005,40.862459137500004,58.0,94.0
142,39.48210337500001,40.87853055000001,43.0,89.0
143,41.19638737500001,41.703529725,55.0,81.0
144,41.2053159375,41.8713867,58.0,86.0
145,41.2231730625,41.9285295,63.0,91.0
146,42.085672200000005,42.4267432875,63.0,86.0
147,42.085672200000005,42.43031471250001,58.0,90.0
148,41.22138735000001,42.721385850000004,39.0,95.0
149,42.92317136250001,43.358885212500006,57.0,84.0
150,42.921385650000005,43.82138475000001,53.0,82.0
151,43.29281385000001,43.84638472500001,48.0,63.0
152,43.774956225000004,43.87317041250001,57.0,86.0
153,42.9195999375,43.93567035,41.0,89.0
154,43.764241950000006,43.95888461250001,60.0,91.0
155,44.53924117500001,44.69459816250001,58.0,81.0
156,44.587455412500006,44.773169512500004,62.0,90.0
157,44.99459786250001,45.48031166250001,53.0,70.0
158,44.57674113750001,45.5267401875,46.0,92.0
159,45.41781172500001,45.539240175,58.0,96.0
160,45.423168862500006,45.589240125,62.0,95.0
161,46.258882312500006,46.562453437500004,57.0,84.0
162,46.264239450000005,46.682096175000005,62.0,88.0
163,46.67316761250001,47.249952750000006,45.0,77.0
164,46.251739462500005,47.287452712500006,38.0,92.0
165,47.130310012500004,47.30709555000001,66.0,88.0
166,47.13388143750001,47.33923837500001,57.0,91.0
167,47.96423775000001,48.44280870000001,55.0,84.0
168,48.048166237500006,48.49280865000001,63.0,88.0
169,48.00709485000001,48.49816578750001,58.0,86.0
170,48.894593962500004,49.057093800000004,58.0,89.0
171,48.89995110000001,49.09816518750001,63.0,89.0
172,48.471380100000005,49.24637932500001,46.0,52.0
173,48.028523400000005,49.276736437500006,39.0,90.0
174,49.77316451250001,50.19637837500001,57.0,88.0
175,49.77137880000001,50.66423505000001,53.0,86.0
176,50.60887796250001,50.69459216250001,57.0,95.0
177,50.610663675000005,50.710663575000005,60.0,90.0
178,50.61244938750001,50.82673488750001,65.0,90.0
179,50.174949825000006,50.871377700000004,48.0,81.0
180,49.769593087500006,50.885663400000006,41.0,94.0
181,51.33744866250001,51.553519875000006,57.0,73.0
182,51.408877162500005,51.80351962500001,62.0,85.0
183,51.47494852500001,52.0374479625,65.0,90.0
184,51.882090975000004,52.094590762500005,57.0,75.0
185,51.46959138750001,52.41601901250001,50.0,91.0
186,52.294590562500005,52.51423320000001,57.0,89.0
187,52.294590562500005,52.53566175000001,62.0,91.0
188,53.14637542500001,53.6588749125,62.0,78.0
189,53.149946850000006,53.685660600000006,58.0,78.0
190,53.13923257500001,53.946374625000004,55.0,78.0
191,54.03030311250001,54.24458861250001,58.0,96.0
192,53.57673213750001,54.36958848750001,50.0,70.0
193,53.148161137500004,54.42315986250001,43.0,82.0
194,54.45351697500001,54.77851665000001,57.0,96.0
195,54.894587962500005,55.37673033750001,55.0,91.0
196,54.87137370000001,55.567801575000004,63.0,84.0
197,54.869587987500005,55.61601581250001,67.0,86.0
198,54.86780227500001,55.83922987500001,60.0,86.0
199,54.86244513750001,56.242800900000006,36.0,90.0
200,55.767801375000005,56.65708620000001,63.0,91.0
201,55.75172996250001,56.941014487500006,67.0,95.0
202,56.60530053750001,57.26958558750001,62.0,82.0
203,56.616014812500005,57.34279980000001,65.0,91.0
204,57.05530008750001,57.757085100000005,57.0,85.0
205,56.621371950000004,57.80351362500001,50.0,96.0
206,57.496371075000006,58.082084775000006,62.0,96.0
207,57.907084950000005,58.407084450000006,65.0,94.0
208,59.210655075000005,59.76958308750001,58.0,87.0
209,58.33922737500001,59.81958303750001,67.0,92.0
210,58.78386978750001,61.47850995000001,50.0,78.0
211,58.33387023750001,61.61958123750001,43.0,95.0
212,59.57494042500001,61.62136695000001,55.0,82.0
213,60.01958283750001,61.624938375000006,58.0,94.0
214,60.03565425000001,61.63565265000001,67.0,95.0
215,60.028511400000006,61.649938350000006,62.0,95.0
216,61.77136680000001,61.90172381250001,36.0,89.0
217,61.77136680000001,62.84458001250001,67.0,91.0
218,61.77136680000001,62.86957998750001,63.0,84.0
219,62.628508800000006,62.989222725000005,55.0,97.0
220,62.19993780000001,63.01600841250001,48.0,87.0
221,62.84279430000001,63.34993665000001,60.0,97.0
222,63.05707980000001,63.46779367500001,63.0,99.0
223,63.48565080000001,63.84279330000001,60.0,89.0
224,63.48565080000001,63.98922172500001,65.0,90.0
225,63.91422180000001,64.6302925125,48.0,79.0
226,63.48565080000001,64.65886391250001,41.0,96.0
227,64.34279280000001,64.66957818750001,53.0,90.0
228,64.34279280000001,64.724935275,57.0,91.0
229,65.19993480000001,65.83029131250001,58.0,83.0
230,65.19993480000001,66.11421960000001,55.0,89.0
231,65.62850580000001,66.24457661250001,50.0,71.0
232,66.0570768,66.6231476625,58.0,95.0
233,66.0570768,66.7124332875,62.0,96.0
234,66.69993330000001,67.04100438750001,55.0,84.0
235,66.48564780000001,67.0838614875,50.0,68.0
236,66.91421880000001,67.29100413750001,67.0,97.0
237,67.3427898,67.82493217500001,50.0,80.0
238,67.77136080000001,68.02493197500002,58.0,96.0
239,67.77136080000001,68.26064602500001,62.0,96.0
240,67.98564630000001,68.3142174,50.0,83.0
241,65.19993480000001,68.403503025,43.0,95.0
242,68.19993180000002,68.4338601375,55.0,95.0
243,68.6285028,69.25707360000001,63.0,88.0
244,68.6285028,69.4802876625,67.0,94.0
245,68.6285028,69.87671583750002,39.0,92.0
246,69.05707380000001,69.910644375,46.0,77.0
247,69.4856448,69.94278720000001,63.0,97.0
248,69.6999303,69.96421575000001,67.0,86.0
249,69.91421580000001,70.3856439,70.0,95.0
250,70.34278680000001,70.79457206250001,69.0,88.0
251,70.7713578,71.43564285000001,48.0,86.0
252,71.19992880000001,71.52135705,60.0,95.0
253,70.34278680000001,71.64814263750002,41.0,94.0
254,71.62849980000001,71.95349947500002,60.0,90.0
255,71.19992880000001,72.00349942500002,65.0,95.0
256,72.0570708,72.57849885,58.0,83.0
257,72.0570708,72.78028436250001,62.0,95.0
258,72.0570708,72.78385578750002,65.0,90.0
259,72.48564180000001,73.153498275,53.0,82.0
260,72.69992730000001,73.21064107500001,58.0,97.0
261,72.0570708,73.22671248750001,46.0,91.0
262,73.1284983,73.26421245000002,62.0,96.0
263,73.1284983,73.32492667500001,65.0,96.0
264,73.77135480000001,74.18206867500001,62.0,90.0
265,73.77135480000001,74.34992565,66.0,89.0
266,74.4142113,74.89635367500001,62.0,92.0
267,74.19992580000002,74.91599651250002,45.0,78.0
268,74.62849680000001,74.94278220000001,66.0,98.0
269,73.77135480000001,74.96063932500002,38.0,98.0
270,75.05706780000001,75.14635342500002,66.0,68.0
271,74.84278230000001,75.44635312500002,74.0,109.0
272,75.05706780000001,75.44992455,62.0,95.0
273,75.4856388,75.93920977500001,39.0,94.0
274,75.4856388,76.55706630000002,63.0,93.0
275,76.34278080000001,76.66956618750001,51.0,96.0
276,76.55706630000002,76.69813758750001,58.0,92.0
277,76.7713518,77.06778007500002,63.0,98.0
278,75.4856388,77.1767085375,70.0,89.0
279,77.19992280000001,77.85349357500002,69.0,95.0
280,77.62849380000002,78.26956458750001,48.0,85.0
281,77.19992280000001,78.32849310000002,41.0,95.0
282,78.0570648,78.56420715000002,65.0,95.0
283,78.0570648,78.97670673750001,69.0,98.0
284,78.91420680000002,78.97670673750001,69.0,92.0
285,78.91420680000002,79.153492275,38.0,95.0
286,78.91420680000002,79.67134890000001,62.0,94.0
287,79.55706330000001,80.21063407500002,57.0,96.0
288,79.98563430000002,80.24991975,65.0,95.0
289,79.34277780000001,80.29277685000001,50.0,97.0
290,80.1999198,80.5142052,62.0,95.0
291,80.4142053,80.67849075000001,65.0,91.0
292,80.62849080000001,81.374918625,67.0,92.0
293,81.05706180000001,81.5802755625,50.0,82.0
294,81.4856328,81.94813233750001,58.0,97.0
295,81.4856328,81.9802751625,62.0,96.0
296,82.12848930000001,82.1659892625,62.0,74.0
297,80.62849080000001,82.19456066250001,43.0,96.0
298,81.69991830000001,82.20348922500001,50.0,88.0
299,81.91420380000001,82.3159891125,55.0,96.0
300,82.12848930000001,82.32848910000001,58.0,95.0
301,82.34277480000002,82.82848860000001,63.0,92.0
302,82.34277480000002,83.18920252500001,70.0,89.0
303,82.98563130000001,83.40884516250001,63.0,101.0
304,83.19991680000001,83.4570594,67.0,88.0
305,82.34277480000002,83.64813063750002,39.0,97.0
306,82.7713458,83.71420200000001,46.0,87.0
307,83.62848780000002,83.832059025,63.0,97.0
308,83.41420230000001,83.95884461250002,70.0,97.0
309,84.05705880000001,84.66955818750002,69.0,91.0
310,84.05705880000001,84.67134390000001,65.0,90.0
311,84.48562980000001,85.17670053750001,48.0,84.0
312,84.91420080000002,85.18027196250002,65.0,96.0
313,84.05705880000001,85.1838433875,41.0,96.0
314,84.91420080000002,85.2231290625,69.0,97.0
315,85.77134280000001,86.274913725,62.0,85.0
316,85.77134280000001,86.35884221250001,67.0,89.0
317,86.1999138,86.74277040000001,50.0,83.0
318,86.62848480000001,87.09812718750001,62.0,98.0
319,86.62848480000001,87.10348432500001,70.0,101.0
320,87.05705580000001,87.3552697875,50.0,85.0
321,87.27134130000002,87.37134120000002,62.0,90.0
322,87.27134130000002,87.3856269,69.0,95.0
323,85.77134280000001,87.41776972500001,43.0,95.0
324,87.4856268,87.87848355000001,62.0,96.0
325,87.4856268,87.92491207500001,67.0,97.0
326,88.12848330000001,88.21776892500002,62.0,84.0
327,87.91419780000001,88.40348302500001,50.0,92.0
328,88.34276880000002,88.59098283750001,67.0,106.0
329,88.34276880000002,88.59455426250001,62.0,101.0
330,88.34276880000002,88.62312566250002,70.0,111.0
331,88.55705430000002,88.7713398,50.0,95.0
332,87.4856268,88.80526833750001,43.0,97.0
333,88.7713398,89.06419665000001,62.0,99.0
334,88.7713398,89.15348227500002,69.0,100.0
335,89.19991080000001,89.6374103625,67.0,94.0
336,89.62848180000002,90.18383838750002,46.0,79.0
337,89.19991080000001,90.22669548750001,39.0,100.0
338,90.05705280000001,90.34633822500001,63.0,111.0
339,90.05705280000001,90.4231238625,67.0,98.0
340,90.91419480000002,91.189194525,65.0,95.0
341,90.91419480000002,91.34812293750001,69.0,96.0
342,91.55705130000001,91.67312261250001,57.0,95.0
343,91.34276580000001,91.92312236250001,48.0,88.0
344,90.91419480000002,91.97312231250001,41.0,97.0
345,91.77133680000001,92.06597936250002,57.0,98.0
346,91.77133680000001,92.09812218750001,62.0,106.0
347,91.77133680000001,92.174907825,65.0,97.0
348,92.62847880000001,93.08740691250001,62.0,97.0
349,92.62847880000001,93.13204972500002,65.0,97.0
350,93.27133530000002,93.36776377500001,62.0,86.0
351,93.05704980000002,93.54633502500002,57.0,86.0
352,93.4856208,93.72490627500001,62.0,99.0
353,93.4856208,93.74812053750001,65.0,101.0
354,93.4856208,93.76954908750001,69.0,97.0
355,92.62847880000001,93.78740621250002,50.0,99.0
356,93.69990630000001,93.82669188750002,57.0,95.0
357,93.91419180000001,94.21240578750002,62.0,97.0
358,94.12847730000001,94.27490572500001,65.0,90.0
359,94.34276280000002,94.55883401250001,67.0,96.0
360,94.34276280000002,94.58026256250001,62.0,97.0
361,94.98561930000001,95.06061922500001,62.0,94.0
362,94.77133380000001,95.23026191250001,50.0,87.0
363,95.19990480000001,95.43204742500001,70.0,100.0
364,95.19990480000001,95.4624045375,62.0,99.0
365,94.34276280000002,95.53204732500001,43.0,96.0
366,95.41419030000002,95.57669013750001,50.0,96.0
367,95.62847580000002,95.90168981250001,62.0,89.0
368,95.62847580000002,96.03204682500001,69.0,97.0
369,96.05704680000001,96.61061767500001,67.0,95.0
370,96.48561780000001,97.00526013750002,46.0,83.0
371,96.05704680000001,97.06240293750001,39.0,97.0
372,96.91418880000002,97.17847425000001,63.0,109.0
373,96.91418880000002,97.26418845,67.0,99.0
374,97.12847430000001,97.32133125000001,46.0,83.0
375,97.34275980000001,97.45525968750002,39.0,93.0
376,97.77133080000002,98.22668748750002,65.0,93.0
377,97.77133080000002,98.29633027500002,69.0,96.0
378,98.1999018,98.75882981250001,48.0,83.0
379,97.77133080000002,98.79990120000001,41.0,96.0
380,98.62847280000001,98.82311546250001,65.0,100.0
381,98.62847280000001,98.8302583125,69.0,106.0
382,99.05704380000002,99.210615075,41.0,96.0
383,99.48561480000001,99.87490012500001,65.0,95.0
384,99.48561480000001,99.92311436250002,70.0,99.0
385,100.12847130000002,100.33204252500002,65.0,97.0
386,99.91418580000001,100.42847100000002,53.0,89.0
387,100.34275680000002,100.56775657500002,70.0,112.0
388,99.48561480000001,100.632042225,46.0,106.0
389,100.5570423,100.71954213750001,53.0,92.0
390,100.77132780000001,100.90168481250001,65.0,97.0
391,100.98561330000001,101.06061322500001,70.0,102.0
392,101.19989880000001,101.28382728750002,38.0,100.0
393,101.19989880000001,101.91418380000002,69.0,104.0
394,101.84275530000001,102.14989785000002,60.0,106.0
395,102.05704080000001,102.21418350000002,66.0,112.0
396,101.62846980000002,102.52489747500002,57.0,97.0
397,101.41418430000002,102.56061172500002,50.0,96.0
398,102.48561180000002,102.75168296250001,60.0,101.0
399,102.48561180000002,102.88739711250001,66.0,104.0
400,102.48561180000002,102.97846845000001,69.0,98.0
401,102.69989730000002,103.04989695000002,57.0,97.0
402,102.91418280000002,103.54275360000001,63.0,89.0
403,102.91418280000002,103.56775357500001,70.0,90.0
404,103.34275380000001,103.88918182500001,46.0,90.0
405,102.91418280000002,103.999896,39.0,104.0
406,103.77132480000002,104.00168171250002,63.0,101.0
407,103.77132480000002,104.08382448750001,67.0,101.0
408,103.98561030000002,104.11239588750001,46.0,93.0
409,103.77132480000002,104.27489572500001,70.0,101.0
410,104.19989580000001,104.4802526625,63.0,106.0
411,104.41418130000001,104.64096678750002,70.0,97.0
412,104.62846680000001,105.22132335000002,69.0,95.0
413,105.05703780000002,105.56953728750001,48.0,93.0
414,105.48560880000001,105.74453711250001,65.0,101.0
415,104.62846680000001,105.88739411250002,41.0,96.0
416,105.69989430000001,105.89810838750002,48.0,95.0
417,105.48560880000001,106.01239398750002,69.0,104.0
418,105.91417980000001,106.29632227500001,65.0,97.0
419,106.34275080000002,106.83025031250001,69.0,95.0
420,106.55703630000001,107.05346437500002,57.0,84.0
421,106.77132180000001,107.13203572500001,62.0,96.0
422,106.98560730000001,107.24810703750002,65.0,106.0
423,107.19989280000001,107.44453541250002,57.0,91.0
424,106.34275080000002,107.48203537500001,50.0,98.0
425,107.41417830000002,107.65882091250002,62.0,97.0
426,107.41417830000002,107.68739231250001,65.0,102.0
427,107.41417830000002,107.74989225000002,69.0,99.0
428,107.62846380000002,107.75882081250002,50.0,97.0
429,107.84274930000001,107.95703490000001,62.0,91.0
430,108.05703480000001,108.26596316250001,62.0,96.0
431,108.05703480000001,108.27667743750001,67.0,90.0
432,108.48560580000002,108.78917692500002,62.0,97.0
433,108.27132030000001,109.00881956250001,50.0,97.0
434,108.05703480000001,109.11953373750002,43.0,95.0
435,108.91417680000002,109.18024796250002,62.0,97.0
436,108.91417680000002,109.22310506250001,67.0,100.0
437,108.91417680000002,109.34810493750001,70.0,98.0
438,109.34274780000001,109.53917617500001,43.0,96.0
439,109.77131880000002,110.23917547500001,60.0,87.0
440,109.77131880000002,110.25346117500001,63.0,89.0
441,109.77131880000002,110.36774677500001,67.0,90.0
442,110.41417530000001,110.73917497500001,60.0,95.0
443,110.19988980000001,110.95881761250001,43.0,73.0
444,110.84274630000002,111.06596036250002,60.0,97.0
445,110.84274630000002,111.11417460000001,63.0,101.0
446,109.77131880000002,111.21417450000001,36.0,93.0
447,111.05703180000002,111.21596021250001,43.0,85.0
448,110.84274630000002,111.37488862500001,67.0,94.0
449,111.27131730000002,111.38203147500002,60.0,70.0
450,111.48560280000001,112.07310221250002,60.0,93.0
451,111.48560280000001,112.08203077500002,65.0,87.0
452,111.91417380000001,112.50167321250001,48.0,90.0
453,111.48560280000001,112.64274450000002,41.0,95.0
454,112.34274480000002,112.73024441250001,60.0,98.0
455,112.34274480000002,112.76595866250001,65.0,102.0
456,112.77131580000001,113.03381553750002,41.0,93.0
457,113.19988680000002,113.42845800000002,62.0,91.0
458,113.19988680000002,113.57488642500002,67.0,91.0
459,113.62845780000002,113.91060037500002,50.0,77.0
460,113.84274330000001,114.14452871250002,55.0,100.0
461,114.05702880000001,114.33559995000002,50.0,88.0
462,114.27131430000001,114.52131405000002,55.0,99.0
463,114.27131430000001,114.52845690000001,58.0,101.0
464,114.27131430000001,114.56059972500002,62.0,99.0
465,114.48559980000002,114.68738531250001,50.0,95.0
466,113.19988680000002,114.70345672500001,43.0,95.0
467,114.69988530000002,114.76238523750001,62.0,81.0
468,114.69988530000002,114.76417095000002,67.0,81.0
469,114.69988530000002,114.78738521250001,55.0,87.0
470,114.91417080000001,116.55702630000002,58.0,81.0
471,114.91417080000001,116.56059772500002,55.0,94.0
472,114.91417080000001,116.59988340000001,62.0,95.0
473,114.91417080000001,116.60881196250001,43.0,96.0
474,119.19988080000002,119.67130890000001,41.0,96.0
475,119.19988080000002,119.72488027500002,60.0,95.0
476,119.19988080000002,119.73916597500002,65.0,95.0
477,119.19988080000002,119.81952303750002,69.0,95.0
478,120.05702280000001,120.66416505000002,63.0,87.0
479,120.05702280000001,120.71416500000002,67.0,89.0
480,120.05702280000001,120.98737901250001,39.0,101.0
481,120.48559380000002,121.05880751250001,46.0,79.0
482,120.91416480000001,121.11237888750001,63.0,101.0
483,120.91416480000001,121.20345022500001,67.0,96.0
484,121.77130680000002,122.30702055000002,62.0,93.0
485,121.77130680000002,122.31594911250002,67.0,90.0
486,122.62844880000002,122.82309146250002,67.0,97.0
487,122.62844880000002,122.83559145000001,62.0,92.0
488,122.62844880000002,122.84809143750002,70.0,100.0
489,122.19987780000001,123.15344827500002,50.0,82.0
490,121.77130680000002,123.27666243750002,43.0,95.0
491,123.05701980000002,123.32309096250002,69.0,95.0
492,123.05701980000002,123.33559095000001,62.0,91.0
493,123.48559080000001,124.18023296250001,70.0,89.0
494,123.48559080000001,124.29451856250002,63.0,90.0
495,124.34273280000002,124.38023276250001,63.0,61.0
496,123.91416180000002,124.52130405000001,46.0,72.0
497,123.48559080000001,124.52844690000002,39.0,98.0
498,124.34273280000002,124.81416090000002,67.0,93.0
499,124.77130380000001,124.92844650000002,63.0,91.0
500,124.34273280000002,125.12666058750001,70.0,95.0
501,125.19987480000002,125.84451701250002,69.0,92.0
502,125.19987480000002,125.93201692500001,65.0,89.0
503,125.62844580000002,126.46951638750002,48.0,83.0
504,125.19987480000002,126.56773057500001,41.0,91.0
505,126.05701680000001,126.67665903750002,65.0,99.0
506,126.05701680000001,126.73915897500002,69.0,97.0
507,126.91415880000001,127.43380113750001,65.0,96.0
508,126.91415880000001,127.49094393750002,70.0,97.0
509,127.77130080000002,127.99808628750002,65.0,96.0
510,126.91415880000001,128.15880041250003,46.0,96.0
511,127.34272980000001,128.16772897500002,53.0,82.0
512,128.1998718,128.42844300000002,65.0,90.0
513,127.77130080000002,128.50880006250003,70.0,109.0
514,127.77130080000002,128.5480857375,74.0,102.0
515,128.62844280000002,128.98558530000003,74.0,101.0
516,128.62844280000002,128.9945138625,69.0,89.0
517,129.48558480000003,129.7552273875,57.0,97.0
518,129.48558480000003,130.34094108750003,62.0,97.0
519,129.9141558,130.35522678750002,57.0,99.0
520,128.62844280000002,130.36236963750002,38.0,99.0
521,129.05701380000002,130.3695124875,45.0,90.0
522,130.3427268,130.92844050000002,67.0,91.0
523,130.3427268,131.29629727500003,63.0,91.0
524,130.3427268,131.59451126250002,39.0,100.0
525,131.19986880000002,131.6302255125,67.0,100.0
526,130.7712978,131.65165406250003,46.0,85.0
527,131.62843980000002,131.89451096250002,63.0,93.0
528,131.19986880000002,131.97665373750002,70.0,100.0
529,132.05701080000003,132.69272445000001,65.0,84.0
530,132.05701080000003,132.724867275,69.0,92.0
531,132.9141528,133.24808103750001,65.0,97.0
532,132.9141528,133.24808103750001,69.0,104.0
533,132.05701080000003,133.32129525000002,41.0,96.0
534,132.4855818,133.33379523750003,48.0,87.0
535,133.77129480000002,134.22843720000003,65.0,95.0
536,133.77129480000002,134.26593716250002,62.0,92.0
537,133.77129480000002,134.28379428750003,69.0,93.0
538,134.62843680000003,134.857008,62.0,96.0
539,134.19986580000003,134.86415085000002,45.0,80.0
540,133.77129480000002,134.9284365,38.0,97.0
541,134.62843680000003,135.1284363,65.0,100.0
542,135.0570078,135.37665033750002,62.0,97.0
543,135.4855788,136.03736396250002,67.0,95.0
544,135.4855788,136.04807823750002,62.0,96.0
545,135.91414980000002,136.53200632500003,50.0,84.0
546,136.34272080000002,136.57486342500002,62.0,95.0
547,135.4855788,136.589149125,43.0,95.0
548,136.34272080000002,136.79629177500001,67.0,97.0
549,136.34272080000002,136.7998632,70.0,96.0
550,136.77129180000003,136.9445059125,62.0,95.0
551,137.1998628,137.8052193375,63.0,90.0
552,137.1998628,137.84986215,67.0,96.0
553,137.1998628,138.1337904375,60.0,88.0
554,137.6284338,138.3712902,55.0,84.0
555,137.1998628,138.40700445000002,48.0,96.0
556,138.05700480000002,138.48200437500003,63.0,101.0
557,138.05700480000002,138.48557580000002,67.0,96.0
558,138.48557580000002,138.99093243750002,60.0,101.0
559,138.91414680000003,139.5373604625,69.0,95.0
560,138.91414680000003,139.54271760000003,65.0,95.0
561,139.7712888,140.00164571250002,60.0,97.0
562,138.91414680000003,140.09628847500002,41.0,88.0
563,139.34271780000003,140.09807418750003,48.0,90.0
564,139.7712888,140.32485967500003,65.0,101.0
565,140.1998598,140.46771667500002,60.0,99.0
566,139.7712888,140.58557370000003,69.0,102.0
567,140.62843080000002,140.93378763750002,67.0,91.0
568,140.62843080000002,140.9427162,62.0,94.0
569,141.48557280000003,141.67485832500003,70.0,98.0
570,141.48557280000003,141.76771537500002,62.0,96.0
571,141.9141438,142.04450081250002,62.0,81.0
572,141.05700180000002,142.09985790000002,50.0,89.0
573,141.69985830000002,142.13914357500002,69.0,98.0
574,140.62843080000002,142.16414355,43.0,96.0
575,142.3427148,142.68378588750002,62.0,96.0
576,142.3427148,143.024856975,67.0,97.0
577,142.98557130000003,143.07664263750002,62.0,89.0
578,143.19985680000002,143.31235668750003,67.0,104.0
579,143.19985680000002,143.33378523750002,62.0,99.0
580,143.19985680000002,143.34628522500003,70.0,104.0
581,142.3427148,144.0194988375,43.0,96.0
582,143.62842780000003,144.02128455000002,62.0,99.0
583,142.77128580000002,144.03199882500002,50.0,90.0
584,143.62842780000003,144.03199882500002,69.0,100.0
585,144.05699880000003,144.18735581250002,36.0,89.0
586,144.05699880000003,145.1302120125,67.0,91.0
587,144.05699880000003,145.15521198750002,63.0,84.0
588,144.9141408,145.274854725,55.0,97.0
589,144.4855698,145.3016404125,48.0,87.0
590,145.12842630000003,145.63556865,60.0,97.0
591,145.34271180000002,145.75342567500002,63.0,99.0
592,145.77128280000002,146.12842530000003,60.0,89.0
593,145.77128280000002,146.274853725,65.0,90.0
594,146.19985380000003,146.91592451250003,48.0,79.0
595,145.77128280000002,146.94449591250003,41.0,96.0
596,146.62842480000003,146.95521018750003,53.0,90.0
597,146.62842480000003,147.01056727500003,57.0,91.0
598,147.48556680000002,148.11592331250003,58.0,83.0
599,147.48556680000002,148.39985160000003,55.0,89.0
600,147.91413780000002,148.53020861250002,50.0,71.0
601,148.34270880000003,148.90877966250002,58.0,95.0
602,148.34270880000003,148.99806528750003,62.0,96.0
603,148.98556530000002,149.32663638750003,55.0,84.0
604,148.77127980000003,149.36949348750002,50.0,68.0
605,149.1998508,149.57663613750003,67.0,97.0
606,149.6284218,150.110564175,50.0,80.0
607,150.05699280000002,150.310563975,58.0,96.0
608,150.05699280000002,150.54627802500002,62.0,96.0
609,150.2712783,150.5998494,50.0,83.0
610,147.48556680000002,150.689135025,43.0,95.0
611,150.48556380000002,150.71949213750003,55.0,95.0
612,150.91413480000003,151.54270560000003,63.0,88.0
613,150.91413480000003,151.7659196625,67.0,94.0
614,150.91413480000003,152.16234783750002,39.0,92.0
615,151.34270580000003,152.19627637500002,46.0,77.0
616,151.7712768,152.22841920000002,63.0,97.0
617,151.98556230000003,152.24984775000001,67.0,86.0
618,152.19984780000001,152.6712759,70.0,95.0
619,152.62841880000002,153.08020406250003,69.0,88.0
620,153.05698980000003,153.72127485000001,48.0,86.0
621,153.48556080000003,153.80698905000003,60.0,95.0
622,152.62841880000002,153.93377463750002,41.0,94.0
623,153.9141318,154.23913147500002,60.0,90.0
624,153.48556080000003,154.28913142500002,65.0,95.0
625,154.3427028,154.86413085,58.0,83.0
626,154.3427028,155.06591636250002,62.0,95.0
627,154.3427028,155.0694877875,65.0,90.0
628,154.77127380000002,155.43913027500002,53.0,82.0
629,154.98555930000003,155.49627307500003,58.0,97.0
630,154.3427028,155.51234448750003,46.0,91.0
631,155.4141303,155.54984445000002,62.0,96.0
632,155.4141303,155.61055867500002,65.0,96.0
633,156.05698680000003,156.46770067500003,62.0,90.0
634,156.05698680000003,156.63555765,66.0,89.0
635,156.69984330000003,157.18198567500002,62.0,92.0
636,156.4855578,157.2016285125,45.0,78.0
637,156.91412880000001,157.22841420000003,66.0,98.0
638,156.05698680000003,157.246271325,38.0,98.0
639,157.34269980000002,157.43198542500002,66.0,68.0
640,157.12841430000003,157.73198512500002,74.0,109.0
641,157.34269980000002,157.73555655,62.0,95.0
642,157.77127080000002,158.22484177500002,39.0,94.0
643,157.77127080000002,158.84269830000002,63.0,93.0
644,158.6284128,158.95519818750003,51.0,96.0
645,158.84269830000002,158.98376958750003,58.0,92.0
646,159.0569838,159.35341207500002,63.0,98.0
647,157.77127080000002,159.4623405375,70.0,89.0
648,159.48555480000002,160.139125575,69.0,95.0
649,159.91412580000002,160.55519658750003,48.0,85.0
650,159.48555480000002,160.61412510000002,41.0,95.0
651,160.34269680000003,160.84983915,65.0,95.0
652,160.34269680000003,161.26233873750002,69.0,98.0
653,161.1998388,161.26233873750002,69.0,92.0
654,161.1998388,161.439124275,38.0,95.0
655,161.1998388,161.95698090000002,62.0,94.0
656,161.84269530000003,162.49626607500002,57.0,96.0
657,162.2712663,162.53555175000002,65.0,95.0
658,161.62840980000001,162.57840885000002,50.0,97.0
659,162.48555180000002,162.7998372,62.0,95.0
660,162.6998373,162.96412275000003,65.0,91.0
661,162.91412280000003,163.660550625,67.0,92.0
662,163.34269380000003,163.8659075625,50.0,82.0
663,163.7712648,164.23376433750002,58.0,97.0
664,163.7712648,164.2659071625,62.0,96.0
665,164.41412130000003,164.45162126250003,62.0,74.0
666,162.91412280000003,164.48019266250003,43.0,96.0
667,163.98555030000003,164.48912122500002,50.0,88.0
668,164.19983580000002,164.60162111250003,55.0,96.0
669,164.41412130000003,164.61412110000003,58.0,95.0
670,164.62840680000002,165.11412060000004,63.0,92.0
671,164.62840680000002,165.47483452500003,70.0,89.0
672,165.27126330000002,165.69447716250002,63.0,101.0
673,165.48554880000003,165.7426914,67.0,88.0
674,164.62840680000002,165.93376263750002,39.0,97.0
675,165.05697780000003,165.99983400000002,46.0,87.0
676,165.9141198,166.11769102500003,63.0,97.0
677,165.69983430000002,166.24447661250002,70.0,97.0
678,166.3426908,166.95519018750002,69.0,91.0
679,166.3426908,166.95697590000003,65.0,90.0
680,166.77126180000002,167.46233253750003,48.0,84.0
681,167.19983280000002,167.46590396250002,65.0,96.0
682,166.3426908,167.4694753875,41.0,96.0
683,167.19983280000002,167.5087610625,69.0,97.0
684,168.05697480000003,168.56054572500003,62.0,85.0
685,168.05697480000003,168.64447421250003,67.0,89.0
686,168.4855458,169.02840240000003,50.0,83.0
687,168.91411680000002,169.38375918750003,62.0,98.0
688,168.91411680000002,169.38911632500003,70.0,101.0
689,169.34268780000002,169.6409017875,50.0,85.0
690,169.5569733,169.6569732,62.0,90.0
691,169.5569733,169.67125890000003,69.0,95.0
692,168.05697480000003,169.70340172500002,43.0,95.0
693,169.77125880000003,170.16411555000002,62.0,96.0
694,169.77125880000003,170.21054407500003,67.0,97.0
695,170.41411530000002,170.50340092500002,62.0,84.0
696,170.19982980000003,170.68911502500004,50.0,92.0
697,170.6284008,170.87661483750003,67.0,106.0
698,170.6284008,170.88018626250002,62.0,101.0
699,170.6284008,170.90875766250002,70.0,111.0
700,170.84268630000003,171.0569718,50.0,95.0
701,169.77125880000003,171.09090033750002,43.0,97.0
702,171.0569718,171.34982865000003,62.0,99.0
703,171.0569718,171.439114275,69.0,100.0
704,171.48554280000002,171.9230423625,67.0,94.0
705,171.91411380000002,172.46947038750002,46.0,79.0
706,171.48554280000002,172.51232748750002,39.0,100.0
707,172.34268480000003,172.63197022500003,63.0,111.0
708,172.34268480000003,172.70875586250003,67.0,98.0
709,173.1998268,173.47482652500003,65.0,95.0
710,173.1998268,173.63375493750002,69.0,96.0
711,173.84268330000003,173.95875461250003,57.0,95.0
712,173.62839780000002,174.20875436250003,48.0,88.0
713,173.1998268,174.25875431250003,41.0,97.0
714,174.05696880000002,174.35161136250002,57.0,98.0
715,174.05696880000002,174.38375418750002,62.0,106.0
716,174.05696880000002,174.460539825,65.0,97.0
717,174.91411080000003,175.37303891250002,62.0,97.0
718,174.91411080000003,175.41768172500002,65.0,97.0
719,175.55696730000003,175.65339577500004,62.0,86.0
720,175.34268180000004,175.831967025,57.0,86.0
721,175.7712528,176.01053827500002,62.0,99.0
722,175.7712528,176.03375253750002,65.0,101.0
723,175.7712528,176.05518108750002,69.0,97.0
724,174.91411080000003,176.07303821250002,50.0,99.0
725,175.98553830000003,176.11232388750003,57.0,95.0
726,176.19982380000002,176.4980377875,62.0,97.0
727,176.41410930000004,176.56053772500002,65.0,90.0
728,176.62839480000002,176.84446601250002,67.0,96.0
729,176.62839480000002,176.86589456250002,62.0,97.0
730,177.27125130000002,177.34625122500003,62.0,94.0
731,177.05696580000003,177.51589391250002,50.0,87.0
732,177.48553680000003,177.71767942500003,70.0,100.0
733,177.48553680000003,177.7480365375,62.0,99.0
734,176.62839480000002,177.81767932500003,43.0,96.0
735,177.69982230000002,177.86232213750003,50.0,96.0
736,177.9141078,178.18732181250002,62.0,89.0
737,177.9141078,178.31767882500003,69.0,97.0
738,178.34267880000002,178.89624967500004,67.0,95.0
739,178.77124980000002,179.29089213750004,46.0,83.0
740,178.34267880000002,179.34803493750002,39.0,97.0
741,179.19982080000003,179.46410625000001,63.0,109.0
742,179.19982080000003,179.54982045000003,67.0,99.0
743,179.41410630000001,179.60696325000004,46.0,83.0
744,179.62839180000003,179.7408916875,39.0,93.0
745,180.05696280000004,180.51231948750004,65.0,93.0
746,180.05696280000004,180.58196227500002,69.0,96.0
747,180.4855338,181.04446181250003,48.0,83.0
748,180.05696280000004,181.08553320000001,41.0,96.0
749,180.91410480000002,181.10874746250002,65.0,100.0
750,180.91410480000002,181.11589031250003,69.0,106.0
751,181.34267580000002,181.496247075,41.0,96.0
752,181.77124680000003,182.16053212500003,65.0,95.0
753,181.77124680000003,182.20874636250002,70.0,99.0
754,182.41410330000002,182.617674525,65.0,97.0
755,182.19981780000003,182.71410300000002,53.0,89.0
756,182.6283888,182.85338857500003,70.0,112.0
757,181.77124680000003,182.917674225,46.0,106.0
758,182.84267430000003,183.00517413750003,53.0,92.0
759,183.05695980000002,183.18731681250003,65.0,97.0
760,183.27124530000003,183.34624522500002,70.0,102.0
761,183.48553080000002,183.56945928750002,38.0,100.0
762,183.48553080000002,184.1998158,69.0,104.0
763,184.1283873,184.43552985000002,60.0,106.0
764,184.34267280000003,184.4998155,66.0,112.0
765,183.91410180000003,184.81052947500004,57.0,97.0
766,183.69981630000004,184.84624372500002,50.0,96.0
767,184.77124380000004,185.03731496250003,60.0,101.0
768,184.77124380000004,185.17302911250002,66.0,104.0
769,184.77124380000004,185.26410045000003,69.0,98.0
770,184.98552930000002,185.33552895000003,57.0,97.0
771,185.1998148,185.82838560000002,63.0,89.0
772,185.1998148,185.85338557500003,70.0,90.0
773,185.62838580000002,186.17481382500003,46.0,90.0
774,185.1998148,186.28552800000003,39.0,104.0
775,186.05695680000002,186.28731371250004,63.0,101.0
776,186.05695680000002,186.36945648750003,67.0,101.0
777,186.2712423,186.39802788750004,46.0,93.0
778,186.05695680000002,186.56052772500001,70.0,101.0
779,186.48552780000003,186.7658846625,63.0,106.0
780,186.69981330000002,186.9265987875,70.0,97.0
781,186.91409880000003,187.50695535000003,69.0,95.0
782,187.34266980000004,187.85516928750002,48.0,93.0
783,187.77124080000002,188.03016911250003,65.0,101.0
784,186.91409880000003,188.17302611250003,41.0,96.0
785,187.98552630000003,188.18374038750002,48.0,95.0
786,187.77124080000002,188.2980259875,69.0,104.0
787,188.19981180000002,188.58195427500002,65.0,97.0
788,188.62838280000003,189.11588231250002,69.0,95.0
789,188.8426683,189.33909637500003,57.0,84.0
790,189.05695380000003,189.41766772500003,62.0,96.0
791,189.27123930000002,189.53373903750003,65.0,106.0
792,189.48552480000004,189.73016741250004,57.0,91.0
793,188.62838280000003,189.76766737500003,50.0,98.0
794,189.69981030000002,189.94445291250003,62.0,97.0
795,189.69981030000002,189.97302431250003,65.0,102.0
796,189.69981030000002,190.03552425000004,69.0,99.0
797,189.9140958,190.04445281250003,50.0,97.0
798,190.12838130000003,190.24266690000002,62.0,91.0
799,190.34266680000002,190.55159516250004,62.0,96.0
800,190.34266680000002,190.56230943750003,67.0,90.0
801,190.77123780000002,191.074808925,62.0,97.0
802,190.55695230000003,191.29445156250003,50.0,97.0
803,190.34266680000002,191.40516573750003,43.0,95.0
804,191.19980880000003,191.46587996250003,62.0,97.0
805,191.19980880000003,191.50873706250002,67.0,100.0
806,191.19980880000003,191.63373693750003,70.0,98.0
807,191.62837980000003,191.82480817500002,43.0,96.0
808,192.05695080000004,192.52480747500002,60.0,87.0
809,192.05695080000004,192.53909317500003,63.0,89.0
810,192.05695080000004,192.65337877500002,67.0,90.0
811,192.69980730000003,193.02480697500002,60.0,95.0
812,192.48552180000001,193.24444961250003,43.0,73.0
813,193.12837830000004,193.3515923625,60.0,97.0
814,193.12837830000004,193.39980660000003,63.0,101.0
815,192.05695080000004,193.49980650000003,36.0,93.0
816,193.34266380000003,193.50159221250001,43.0,85.0
817,193.12837830000004,193.66052062500003,67.0,94.0
818,193.5569493,193.667663475,60.0,70.0
819,193.77123480000003,194.35873421250002,60.0,93.0
820,193.77123480000003,194.367662775,65.0,87.0
821,194.19980580000004,194.78730521250003,48.0,90.0
822,193.77123480000003,194.9283765,41.0,95.0
823,194.6283768,195.01587641250003,60.0,98.0
824,194.6283768,195.05159066250002,65.0,102.0
825,195.05694780000002,195.31944753750003,41.0,93.0
826,195.48551880000002,195.71409000000003,62.0,91.0
827,195.48551880000002,195.86051842500004,67.0,91.0
828,195.91408980000003,196.19623237500002,50.0,77.0
829,196.12837530000002,196.43016071250003,55.0,100.0
830,196.34266080000003,196.62123195000004,50.0,88.0
831,196.55694630000002,196.80694605000002,55.0,99.0
832,196.55694630000002,196.81408890000003,58.0,101.0
833,196.55694630000002,196.84623172500002,62.0,99.0
834,196.77123180000004,196.97301731250002,50.0,95.0
835,195.48551880000002,196.98908872500002,43.0,95.0
836,196.98551730000003,197.04801723750003,62.0,81.0
837,196.98551730000003,197.04980295000001,67.0,81.0
838,196.98551730000003,197.07301721250002,55.0,87.0
839,197.19980280000001,198.84265830000004,58.0,81.0
840,197.19980280000001,198.84622972500003,55.0,94.0
841,197.19980280000001,198.88551540000003,62.0,95.0
842,197.19980280000001,198.89444396250002,43.0,96.0
843,198.91408680000004,199.11944373750003,59.0,97.0
844,198.91408680000004,199.23015791250003,62.0,101.0
845,199.3426578,199.56051472500002,62.0,91.0
846,199.55694330000003,199.74087168750003,59.0,99.0
847,199.12837230000002,199.89087153750003,54.0,95.0
848,199.77122880000002,200.0426571,66.0,109.0
849,199.98551430000003,200.11587131250002,59.0,96.0
850,200.19979980000002,200.41051387500002,62.0,98.0
851,198.91408680000004,200.51051377500002,47.0,98.0
852,200.41408530000004,200.54087088750003,59.0,98.0
853,200.62837080000003,200.87479912500004,57.0,87.0
854,200.62837080000003,200.94444191250003,61.0,101.0
855,201.05694180000003,201.54265560000002,57.0,97.0
856,200.84265630000002,201.59265555000002,52.0,94.0
857,201.48551280000004,201.63194122500002,61.0,112.0
858,201.91408380000001,202.18551210000004,57.0,104.0
859,201.69979830000003,202.19979780000003,52.0,95.0
860,200.62837080000003,202.21765492500003,45.0,96.0
861,202.12836930000003,202.23194062500002,61.0,106.0
862,202.34265480000002,202.55872601250002,57.0,95.0
863,202.34265480000002,202.60872596250002,61.0,97.0
864,202.9855113,203.07301121250003,61.0,85.0
865,202.77122580000002,203.14443971250003,57.0,96.0
866,202.55694030000004,203.31943953750002,52.0,89.0
867,203.19979680000003,203.42836800000003,57.0,95.0
868,203.19979680000003,203.4408679875,61.0,99.0
869,203.19979680000003,203.48908222500003,64.0,104.0
870,202.34265480000002,203.71408200000002,45.0,97.0
871,203.41408230000002,203.896224675,52.0,96.0
872,203.62836780000004,203.91943893750002,57.0,101.0
873,203.62836780000004,203.93015321250002,64.0,88.0
874,203.84265330000002,203.94979605000003,61.0,99.0
875,204.05693880000004,204.30336712500002,59.0,96.0
876,204.05693880000004,204.39800988750002,62.0,92.0
877,204.48550980000002,204.77122380000003,59.0,100.0
878,204.69979530000003,204.85515228750003,62.0,95.0
879,205.12836630000004,205.39443746250004,59.0,101.0
880,205.34265180000003,205.58908012500004,62.0,96.0
881,204.91408080000002,205.59800868750003,54.0,97.0
882,204.05693880000004,205.64800863750003,47.0,100.0
883,205.55693730000002,205.65693720000002,66.0,101.0
884,205.77122280000003,206.04443681250004,55.0,93.0
885,205.77122280000003,206.08729391250003,59.0,87.0
886,206.19979380000004,206.48550780000002,55.0,101.0
887,206.41407930000003,206.54443631250004,59.0,99.0
888,205.98550830000002,206.69800758750003,50.0,86.0
889,206.6283648,206.96050732500004,62.0,116.0
890,205.77122280000003,207.27836415000002,43.0,97.0
891,207.05693580000002,207.33372123750001,55.0,101.0
892,206.84265030000003,207.339078375,50.0,97.0
893,207.27122130000004,207.42479257500003,59.0,100.0
894,207.48550680000002,207.87836355000002,61.0,106.0
895,207.91407780000003,208.20336322500003,57.0,99.0
896,208.12836330000002,208.23014891250003,61.0,109.0
897,207.69979230000004,208.36229163750002,52.0,90.0
898,207.48550680000002,208.44443441250002,45.0,97.0
899,208.34264880000003,208.59086283750003,57.0,100.0
900,208.34264880000003,208.61407710000003,61.0,106.0
901,208.34264880000003,208.72836270000002,64.0,106.0
902,208.77121980000004,208.79800548750003,64.0,63.0
903,208.55693430000002,208.85871971250003,52.0,97.0
904,208.77121980000004,208.92836250000002,57.0,99.0
905,209.19979080000002,209.65871891250004,65.0,97.0
906,209.19979080000002,209.68729031250004,62.0,98.0
907,209.19979080000002,209.72479027500003,58.0,96.0
908,209.62836180000002,209.78907592500002,53.0,93.0
909,209.19979080000002,209.80336162500004,46.0,106.0
910,209.84264730000004,210.31764682500003,46.0,97.0
911,209.84264730000004,210.34443251250002,65.0,99.0
912,209.84264730000004,210.35157536250003,62.0,104.0
913,209.84264730000004,210.37121820000002,58.0,97.0
914,209.84264730000004,210.43907527500002,53.0,96.0
915,210.48550380000003,210.56407515000004,62.0,109.0
916,210.48550380000003,210.60514653750002,46.0,106.0
917,210.48550380000003,210.61407510000004,58.0,102.0
918,210.48550380000003,210.62121795000002,65.0,99.0
919,210.91407480000004,211.34621722500003,62.0,97.0
920,210.91407480000004,211.38014576250004,59.0,101.0
921,210.91407480000004,211.39621717500003,55.0,101.0
922,210.91407480000004,211.41228858750003,43.0,100.0
923,211.55693130000003,212.08193077500002,59.0,100.0
924,211.55693130000003,212.08728791250002,43.0,100.0
925,211.55693130000003,212.08907362500003,62.0,97.0
926,211.55693130000003,212.09085933750004,55.0,98.0
927,212.19978780000002,212.54443031250003,55.0,101.0
928,212.19978780000002,212.54800173750002,59.0,106.0
929,212.19978780000002,212.56228743750003,62.0,106.0
930,212.19978780000002,212.61228738750003,67.0,96.0
931,212.19978780000002,212.70157301250003,43.0,100.0
932,213.05692980000003,213.3694294875,67.0,94.0
933,213.05692980000003,213.37121520000002,43.0,96.0
934,213.05692980000003,213.37300091250003,62.0,95.0
935,213.05692980000003,213.37835805000003,71.0,97.0
936,213.48550080000004,213.76942908750001,67.0,98.0
937,213.48550080000004,213.77300051250003,43.0,99.0
938,213.48550080000004,213.77657193750002,62.0,98.0
939,213.48550080000004,213.79085763750004,71.0,99.0
940,213.91407180000002,214.20692865000004,62.0,99.0
941,213.91407180000002,214.22121435000003,67.0,96.0
942,213.91407180000002,214.23728576250002,71.0,95.0
943,213.91407180000002,214.2801428625,43.0,102.0
944,214.77121380000003,215.26407045000002,63.0,88.0
945,215.19978480000003,215.45692740000004,70.0,89.0
946,214.98549930000001,215.45871311250002,67.0,91.0
947,214.34264280000002,215.82299846250004,51.0,93.0
948,215.62835580000004,215.82478417500002,63.0,90.0
949,214.55692830000004,215.86585556250003,58.0,84.0
950,215.62835580000004,216.04442681250003,70.0,89.0
951,215.41407030000002,216.07299821250004,75.0,89.0
952,216.48549780000002,216.84085458750002,65.0,89.0
953,216.27121230000003,216.87299741250004,60.0,81.0
954,216.69978330000004,217.02478297500002,69.0,92.0
955,217.12835430000004,217.37835405000004,65.0,96.0
956,217.34263980000003,217.54621102500002,60.0,93.0
957,216.05692680000004,217.59263955000003,53.0,95.0
958,217.55692530000002,217.76763937500002,65.0,90.0
959,217.98549630000002,218.45156726250002,57.0,83.0
960,218.19978180000004,218.49978150000004,62.0,89.0
961,218.41406730000003,218.84085258750002,65.0,102.0
962,218.62835280000002,218.87299541250002,57.0,82.0
963,217.77121080000003,218.94085248750002,50.0,95.0
964,218.84263830000003,219.09978090000004,62.0,88.0
965,219.05692380000002,219.38192347500004,65.0,90.0
966,219.27120930000004,219.45870911250003,62.0,85.0
967,220.12835130000002,220.27477972500003,70.0,97.0
968,219.91406580000003,220.35156536250003,67.0,91.0
969,219.69978030000001,220.53013661250003,62.0,87.0
970,219.48549480000003,220.62299366250002,55.0,90.0
971,220.34263680000004,220.64085078750003,74.0,102.0
972,220.55692230000002,220.83549345000003,70.0,91.0
973,220.77120780000004,221.01227898750003,67.0,95.0
974,220.98549330000003,221.17656453750004,70.0,86.0
975,221.41406430000004,221.92120665000002,58.0,77.0
976,221.62834980000002,221.92120665000002,63.0,86.0
977,221.19977880000002,222.19799208750004,51.0,94.0
978,222.05692080000003,222.29263485000004,58.0,78.0
979,221.84263530000004,222.31763482500003,67.0,89.0
980,222.27120630000002,222.71406300000004,70.0,100.0
981,222.48549180000003,222.78727721250002,63.0,84.0
982,222.69977730000002,222.89263425000004,67.0,83.0
983,223.34263380000002,223.62120495000002,65.0,91.0
984,223.12834830000003,223.64620492500003,48.0,84.0
985,223.55691930000003,223.82299046250003,69.0,99.0
986,223.77120480000002,224.15334727500002,48.0,86.0
987,222.91406280000004,224.16584726250002,41.0,95.0
988,223.98549030000004,224.17120440000002,65.0,97.0
989,223.98549030000004,224.22120435000002,69.0,104.0
990,224.62834680000003,224.74798953750002,65.0,83.0
991,224.62834680000003,225.25513188750003,74.0,97.0
992,224.62834680000003,225.30513183750003,70.0,97.0
993,225.27120330000002,225.67120290000003,65.0,100.0
994,224.62834680000003,225.71406000000002,46.0,94.0
995,225.48548880000004,225.72655998750002,70.0,116.0
996,225.05691780000004,225.75334567500002,53.0,93.0
997,225.69977430000003,225.81941703750002,74.0,112.0
998,226.34263080000002,226.46941638750002,57.0,96.0
999,226.34263080000002,226.49084493750004,50.0,102.0
1000,226.34263080000002,226.49620207500004,66.0,96.0
1001,226.34263080000002,226.50334492500002,69.0,96.0
1002,226.34263080000002,226.50334492500002,74.0,100.0
1003,226.34263080000002,226.50513063750003,62.0,95.0
1004,226.77120180000003,226.89620167500004,66.0,97.0
1005,226.77120180000003,226.91405880000002,69.0,96.0
1006,226.77120180000003,226.91405880000002,74.0,95.0
1007,226.77120180000003,226.91763022500004,62.0,97.0
1008,226.77120180000003,226.92477307500002,57.0,97.0
1009,226.77120180000003,226.92655878750003,50.0,98.0
1010,227.19977280000003,227.98370058750004,66.0,111.0
1011,227.19977280000003,227.98905772500004,74.0,106.0
1012,227.19977280000003,227.99084343750002,69.0,109.0
1013,227.19977280000003,227.99262915000003,62.0,101.0
1014,227.19977280000003,228.02477197500002,50.0,104.0
1015,227.19977280000003,228.02477197500002,57.0,104.0
1016,228.05691480000004,228.68548560000002,63.0,89.0
1017,228.05691480000004,228.71048557500004,70.0,90.0
1018,228.48548580000002,229.03191382500003,46.0,90.0
1019,228.05691480000004,229.14262800000003,39.0,104.0
1020,228.91405680000003,229.14441371250004,63.0,101.0
1021,228.91405680000003,229.22655648750003,67.0,101.0
1022,229.12834230000004,229.25512788750004,46.0,93.0
1023,228.91405680000003,229.41762772500002,70.0,101.0
1024,229.34262780000003,229.62298466250002,63.0,106.0
1025,229.55691330000002,229.78369878750004,70.0,97.0
1026,229.77119880000004,230.36405535000003,69.0,95.0
1027,230.19976980000004,230.71226928750002,48.0,93.0
1028,230.62834080000002,230.88726911250004,65.0,101.0
1029,229.77119880000004,231.03012611250003,41.0,96.0
1030,230.84262630000003,231.04084038750003,48.0,95.0
1031,230.62834080000002,231.15512598750004,69.0,104.0
1032,231.05691180000002,231.43905427500002,65.0,97.0
1033,231.48548280000003,231.97298231250002,69.0,95.0
1034,231.69976830000002,232.19619637500003,57.0,84.0
1035,231.91405380000003,232.27476772500003,62.0,96.0
1036,232.12833930000002,232.39083903750003,65.0,106.0
1037,232.34262480000004,232.58726741250004,57.0,91.0
1038,231.48548280000003,232.62476737500003,50.0,98.0
1039,232.55691030000003,232.80155291250003,62.0,97.0
1040,232.55691030000003,232.83012431250003,65.0,102.0
1041,232.55691030000003,232.89262425000004,69.0,99.0
1042,232.77119580000004,232.90155281250003,50.0,97.0
1043,232.98548130000003,233.09976690000002,62.0,91.0
1044,233.19976680000002,233.40869516250004,62.0,96.0
1045,233.19976680000002,233.41940943750004,67.0,90.0
1046,233.62833780000003,233.93190892500004,62.0,97.0
1047,233.41405230000004,234.15155156250003,50.0,97.0
1048,233.19976680000002,234.26226573750003,43.0,95.0
1049,234.05690880000003,234.32297996250003,62.0,97.0
1050,234.05690880000003,234.36583706250002,67.0,100.0
1051,234.05690880000003,234.49083693750003,70.0,98.0
1052,234.48547980000004,234.68190817500002,43.0,96.0
1053,234.91405080000004,235.38190747500002,60.0,87.0
1054,234.91405080000004,235.39619317500004,63.0,89.0
1055,234.91405080000004,235.51047877500002,67.0,90.0
1056,235.55690730000003,235.88190697500002,60.0,95.0
1057,235.34262180000002,236.10154961250004,43.0,73.0
1058,235.98547830000004,236.20869236250002,60.0,97.0
1059,235.98547830000004,236.25690660000004,63.0,101.0
1060,234.91405080000004,236.35690650000004,36.0,93.0
1061,236.19976380000003,236.35869221250002,43.0,85.0
1062,235.98547830000004,236.51762062500003,67.0,94.0
1063,236.41404930000004,236.52476347500004,60.0,70.0
1064,236.62833480000003,237.21583421250003,60.0,93.0
1065,236.62833480000003,237.22476277500004,65.0,87.0
1066,237.05690580000004,237.64440521250003,48.0,90.0
1067,236.62833480000003,237.78547650000004,41.0,95.0
1068,237.48547680000004,237.87297641250004,60.0,98.0
1069,237.48547680000004,237.90869066250002,65.0,102.0
1070,237.91404780000002,238.17654753750003,41.0,93.0
1071,238.34261880000003,238.57119000000003,62.0,91.0
1072,238.34261880000003,238.71761842500004,67.0,91.0
1073,238.77118980000003,239.05333237500002,50.0,77.0
1074,238.98547530000002,239.28726071250003,55.0,100.0
1075,239.19976080000004,239.47833195000004,50.0,88.0
1076,239.41404630000002,239.66404605000002,55.0,99.0
1077,239.41404630000002,239.67118890000003,58.0,101.0
1078,239.41404630000002,239.70333172500003,62.0,99.0
1079,239.62833180000004,239.83011731250002,50.0,95.0
1080,238.34261880000003,239.84618872500002,43.0,95.0
1081,239.84261730000003,239.90511723750004,62.0,81.0
1082,239.84261730000003,239.90690295000005,67.0,81.0
1083,239.84261730000003,239.93011721250002,55.0,87.0
1084,240.05690280000002,241.69975830000004,58.0,81.0
1085,240.05690280000002,241.70332972500003,55.0,94.0
1086,240.05690280000002,241.74261540000003,62.0,95.0
1087,240.05690280000002,241.75154396250002,43.0,96.0
1088,241.77118680000004,242.39975760000004,63.0,89.0
1089,241.77118680000004,242.42475757500003,70.0,90.0
1090,242.19975780000004,242.74618582500003,46.0,90.0
1091,241.77118680000004,242.85690000000002,39.0,104.0
1092,242.62832880000002,242.85868571250003,63.0,101.0
1093,242.62832880000002,242.94082848750003,67.0,101.0
1094,242.84261430000004,242.96939988750003,46.0,93.0
1095,242.62832880000002,243.13189972500004,70.0,101.0
1096,243.05689980000002,243.33725666250004,63.0,106.0
1097,243.27118530000004,243.49797078750004,70.0,97.0
1098,243.48547080000003,244.07832735000002,69.0,95.0
1099,243.91404180000004,244.42654128750004,48.0,93.0
1100,244.34261280000004,244.60154111250003,65.0,101.0
1101,243.48547080000003,244.74439811250002,41.0,96.0
1102,244.55689830000003,244.75511238750002,48.0,95.0
1103,244.34261280000004,244.86939798750004,69.0,104.0
1104,244.77118380000005,245.15332627500004,65.0,97.0
1105,245.19975480000002,245.68725431250004,69.0,95.0
1106,245.41404030000004,245.91046837500002,57.0,84.0
1107,245.62832580000003,245.98903972500003,62.0,96.0
1108,245.84261130000004,246.10511103750002,65.0,106.0
1109,246.05689680000003,246.30153941250003,57.0,91.0
1110,245.19975480000002,246.33903937500003,50.0,98.0
1111,246.27118230000002,246.51582491250002,62.0,97.0
1112,246.27118230000002,246.54439631250003,65.0,102.0
1113,246.27118230000002,246.60689625000003,69.0,99.0
1114,246.48546780000004,246.61582481250002,50.0,97.0
1115,246.69975330000003,246.81403890000004,62.0,91.0
1116,246.91403880000004,247.12296716250003,62.0,96.0
1117,246.91403880000004,247.13368143750003,67.0,90.0
1118,247.34260980000002,247.64618092500004,62.0,97.0
1119,247.12832430000003,247.86582356250003,50.0,97.0
1120,246.91403880000004,247.97653773750002,43.0,95.0
1121,247.77118080000002,248.03725196250002,62.0,97.0
1122,247.77118080000002,248.08010906250004,67.0,100.0
1123,247.77118080000002,248.20510893750003,70.0,98.0
1124,248.19975180000003,248.39618017500004,43.0,96.0
1125,248.62832280000003,249.09617947500004,60.0,87.0
1126,248.62832280000003,249.11046517500003,63.0,89.0
1127,248.62832280000003,249.22475077500005,67.0,90.0
1128,249.27117930000003,249.59617897500004,60.0,95.0
1129,249.05689380000004,249.81582161250003,43.0,73.0
1130,249.69975030000003,249.92296436250004,60.0,97.0
1131,249.69975030000003,249.97117860000003,63.0,101.0
1132,248.62832280000003,250.07117850000003,36.0,93.0
1133,249.91403580000002,250.07296421250004,43.0,85.0
1134,249.69975030000003,250.23189262500003,67.0,94.0
1135,250.12832130000004,250.23903547500004,60.0,70.0
1136,250.34260680000003,250.93010621250002,60.0,93.0
1137,250.34260680000003,250.93903477500004,65.0,87.0
1138,250.77117780000003,251.35867721250003,48.0,90.0
1139,250.34260680000003,251.49974850000004,41.0,95.0
1140,251.19974880000004,251.58724841250003,60.0,98.0
1141,251.19974880000004,251.62296266250004,65.0,102.0
1142,251.62831980000004,251.89081953750002,41.0,93.0
1143,252.05689080000002,252.28546200000002,62.0,91.0
1144,252.05689080000002,252.43189042500003,67.0,91.0
1145,252.48546180000002,252.76760437500002,50.0,77.0
1146,252.69974730000004,253.00153271250002,55.0,100.0
1147,252.91403280000003,253.19260395000003,50.0,88.0
1148,253.12831830000005,253.37831805000005,55.0,99.0
1149,253.12831830000005,253.38546090000003,58.0,101.0
1150,253.12831830000005,253.41760372500002,62.0,99.0
1151,253.34260380000003,253.54438931250004,50.0,95.0
1152,252.05689080000002,253.56046072500004,43.0,95.0
1153,253.55688930000002,253.61938923750003,62.0,81.0
1154,253.55688930000002,253.62117495000004,67.0,81.0
1155,253.55688930000002,253.64438921250004,55.0,87.0
1156,253.77117480000004,255.19974480000005,43.0,96.0
1157,253.77117480000004,255.23010191250003,58.0,81.0
1158,253.77117480000004,255.23367333750002,55.0,94.0
1159,253.77117480000004,255.27474472500003,62.0,95.0
1160,255.40331602500004,256.86760027500003,36.0,93.0
1161,255.37117320000004,258.796169775,63.0,86.0
1162,255.30331612500004,258.7979554875,60.0,89.0
1163,255.42474457500003,258.80331262500005,67.0,91.0
1164,255.46938738750003,258.80688405,72.0,90.0
1165,258.8550982875,259.56759757500004,63.0,91.0
1166,258.8550982875,259.56938328750005,70.0,90.0
1167,258.86045542500005,260.01045427500003,39.0,98.0
1168,259.7425974,260.0193828375,67.0,98.0
1169,259.73724026250005,260.0408113875,63.0,98.0
1170,259.73724026250005,260.12116845,70.0,97.0
1171,259.2550978875,260.21402550000005,46.0,77.0
1172,260.1729541125,260.4836680875,39.0,99.0
1173,260.6283108,261.20509593750006,69.0,90.0
1174,260.62652508750006,261.2408101875,72.0,95.0
1175,260.62295366250004,261.2622387375,65.0,91.0
1176,261.03723896250006,261.639024075,48.0,83.0
1177,260.6300965125,261.696166875,41.0,96.0
1178,261.52295276250004,261.83188102500003,65.0,99.0
1179,261.5300956125,262.217594925,69.0,100.0
1180,262.00330942500005,262.6050945375,65.0,97.0
1181,261.52473847500005,262.6050945375,72.0,98.0
1182,263.03187982500003,263.29259385000006,55.0,88.0
1183,263.24616532500005,263.46759367500005,57.0,85.0
1184,263.4408079875,263.5300936125,58.0,101.0
1185,263.6711649,263.9836645875,62.0,95.0
1186,263.93187892500003,264.571164,69.0,87.0
1187,264.181878675,264.60866396250003,62.0,87.0
1188,264.81223518750005,265.1836633875,62.0,87.0
1189,264.49794978750003,265.2158062125,67.0,91.0
1190,265.181877675,265.33009181250003,74.0,96.0
1191,262.82473717500005,265.49080593750006,50.0,82.0
1192,262.52652318750006,265.63187722500004,43.0,98.0
1193,266.27651943750004,266.53009061250003,86.0,62.0
1194,266.2622337375,266.60151911250006,91.0,75.0
1195,266.18901952500005,267.40151831250006,79.0,71.0
1196,266.00866256250004,267.43544685000006,74.0,81.0
1197,266.060448225,267.6586609125,50.0,76.0
1198,265.87830555000005,267.72116085000005,43.0,62.0
