,start,end,pitch,velocity
0,48.1275,48.29375,69.0,83.0
1,48.4275,50.5725,69.0,85.0
2,50.8275,51.2525,69.0,81.0
3,51.4275,51.63125,69.0,74.0
4,51.7275,52.2425,69.0,82.0
5,52.3275,52.53625,69.0,81.0
6,52.6275,52.85125,69.0,82.0
7,52.9275,53.1375,69.0,82.0
8,53.2275,53.39875,67.0,77.0
9,53.5275,53.72125,65.0,80.0
10,53.8275,55.5775,67.0,81.0
11,57.1275,57.30625,62.0,82.0
12,57.4275,57.63125,62.0,82.0
13,57.7275,57.941250000000004,65.0,76.0
14,58.0275,59.8325,65.0,75.0
15,60.7275,60.90625,62.0,81.0
16,61.0275,61.27375,62.0,80.0
17,61.3275,61.7825,65.0,77.0
18,61.9275,62.17375,62.0,80.0
19,62.2275,62.79125,65.0,77.0
20,62.8275,64.7275,62.0,77.0
21,67.3275,67.49375,69.0,83.0
22,67.6275,69.77250000000001,69.0,85.0
23,70.0275,70.4525,69.0,81.0
24,70.6275,70.83125,69.0,74.0
25,70.9275,71.4425,69.0,82.0
26,71.5275,71.88250000000001,69.0,81.0
27,72.1275,72.3375,69.0,82.0
28,72.4275,72.59875,65.0,77.0
29,72.7275,72.92125,67.0,80.0
30,73.0275,74.7775,67.0,81.0
31,76.0275,76.16250000000001,62.0,82.0
32,76.3275,76.50625000000001,62.0,82.0
33,76.6275,76.83125,62.0,82.0
34,76.9275,77.14125,65.0,76.0
35,77.2275,79.0325,65.0,75.0
36,79.9275,80.10625,62.0,81.0
37,80.2275,80.47375,62.0,80.0
38,80.5275,80.9825,65.0,77.0
39,81.1275,81.37375,62.0,80.0
40,81.4275,81.99125000000001,65.0,77.0
41,82.0275,83.9275,62.0,77.0
42,105.7275,105.89375,69.0,83.0
43,106.0275,108.1725,69.0,85.0
44,108.42750000000001,108.8525,69.0,81.0
45,109.0275,109.23125,69.0,74.0
46,109.3275,109.8425,69.0,82.0
47,109.92750000000001,110.39,69.0,81.0
48,110.5275,110.7375,69.0,82.0
49,110.8275,110.99875,67.0,77.0
50,111.1275,111.32125,65.0,80.0
51,111.42750000000001,113.17750000000001,67.0,81.0
52,114.42750000000001,114.60000000000001,62.0,82.0
53,114.7275,114.90625,62.0,82.0
54,115.0275,115.23125,62.0,82.0
55,115.3275,115.54125,65.0,76.0
56,115.6275,117.4325,65.0,75.0
57,118.3275,118.50625000000001,62.0,81.0
58,118.6275,118.87375,62.0,80.0
59,118.92750000000001,119.38250000000001,65.0,77.0
60,119.5275,119.77375,65.0,80.0
61,119.8275,120.1275,62.0,77.0
62,120.1275,120.42750000000001,65.0,82.0
63,120.42750000000001,122.3275,62.0,77.0
64,124.92750000000001,125.09375,69.0,83.0
65,125.2275,127.3725,69.0,85.0
66,127.6275,128.0525,74.0,81.0
67,128.2275,128.43125,74.0,74.0
68,128.5275,129.0425,74.0,82.0
69,129.1275,129.48250000000002,69.0,81.0
70,129.7275,129.9375,72.0,82.0
71,130.0275,130.19875,69.0,77.0
72,130.32750000000001,130.52125,74.0,80.0
73,130.6275,131.2275,69.0,81.0
74,131.2275,132.4275,67.0,82.0
75,133.6275,133.7625,62.0,82.0
76,133.9275,134.10625,62.0,82.0
77,134.2275,134.43125,62.0,82.0
78,134.5275,134.74125,65.0,76.0
79,134.82750000000001,136.6325,65.0,75.0
80,137.5275,137.70625,62.0,81.0
81,137.82750000000001,138.07375,62.0,80.0
82,138.1275,138.5825,65.0,77.0
83,138.7275,138.97375,62.0,80.0
84,139.0275,139.32750000000001,62.0,82.0
85,139.32750000000001,139.6275,60.0,77.0
86,139.6275,141.5275,62.0,77.0
87,143.2275,143.45000000000002,62.0,81.0
88,143.5275,143.74875,62.0,78.0
89,143.82750000000001,144.04875,64.0,83.0
90,144.1275,144.35125,65.0,76.0
91,144.4275,145.63750000000002,65.0,79.0
92,145.6275,145.79500000000002,69.0,78.0
93,145.9275,146.16125,69.0,79.0
94,146.2275,146.4975,67.0,80.0
95,146.5275,146.7675,65.0,81.0
96,146.82750000000001,147.99,67.0,79.0
97,148.0275,148.21625,69.0,79.0
98,148.32750000000001,148.54625000000001,69.0,82.0
99,148.6275,148.86625,72.0,83.0
100,148.9275,149.11375,74.0,82.0
101,149.2275,149.94875,74.0,82.0
102,150.4275,150.635,65.0,79.0
103,150.7275,150.91125,67.0,76.0
104,151.0275,151.27625,69.0,79.0
105,151.32750000000001,151.53125,72.0,81.0
106,151.6275,152.54500000000002,69.0,79.0
107,152.82750000000001,153.01,67.0,79.0
108,153.1275,153.33625,67.0,81.0
109,153.4275,153.63875000000002,69.0,82.0
110,153.7275,153.92125000000001,72.0,83.0
111,154.0275,155.01625,70.0,82.0
112,155.2275,155.38750000000002,69.0,81.0
113,155.5275,155.73625,69.0,76.0
114,155.82750000000001,156.04625000000001,67.0,82.0
115,156.1275,156.36375,69.0,82.0
116,156.4275,156.69625,67.0,72.0
117,156.7275,157.4375,62.0,79.0
118,157.6275,157.805,65.0,75.0
119,157.9275,158.14125,65.0,81.0
120,158.2275,158.46875,65.0,82.0
121,158.5275,158.88750000000002,69.0,82.0
122,159.1275,161.32375,67.0,77.0
123,201.7275,201.89375,69.0,83.0
124,202.0275,204.1725,69.0,85.0
125,204.4275,204.8525,69.0,81.0
126,205.0275,205.23125000000002,69.0,74.0
127,205.32750000000001,205.8425,69.0,82.0
128,205.9275,206.39000000000001,69.0,81.0
129,206.5275,206.7375,69.0,82.0
130,206.82750000000001,206.99875,67.0,77.0
131,207.1275,207.32125,65.0,80.0
132,207.4275,209.1775,67.0,81.0
133,210.7275,211.32750000000001,62.0,82.0
134,211.32750000000001,211.6275,65.0,76.0
135,211.6275,212.2275,67.0,82.0
136,212.2275,213.4325,65.0,75.0
137,214.32750000000001,214.50625,65.0,81.0
138,214.6275,214.87375,65.0,80.0
139,214.9275,215.3825,65.0,77.0
140,215.5275,215.77375,65.0,80.0
141,215.82750000000001,216.1275,62.0,77.0
142,216.1275,216.4275,65.0,82.0
143,216.4275,218.32750000000001,62.0,77.0
144,220.9275,221.09375,69.0,83.0
145,221.2275,223.3725,69.0,85.0
146,223.6275,224.0525,74.0,81.0
147,224.2275,224.43125,74.0,74.0
148,224.5275,225.04250000000002,74.0,82.0
149,225.1275,225.48250000000002,69.0,81.0
150,225.7275,225.9375,72.0,82.0
151,226.0275,226.19875000000002,69.0,77.0
152,226.32750000000001,226.52125,74.0,80.0
153,226.6275,227.2275,69.0,81.0
154,227.2275,228.4275,67.0,82.0
155,229.6275,229.76250000000002,62.0,82.0
156,229.9275,230.10625000000002,62.0,82.0
157,230.2275,230.43125,62.0,82.0
158,230.5275,230.82750000000001,65.0,76.0
159,230.82750000000001,231.1275,64.0,82.0
160,231.1275,231.4275,62.0,82.0
161,231.4275,232.6325,65.0,75.0
162,233.2275,233.5275,62.0,82.0
163,233.5275,233.70625,62.0,81.0
164,233.82750000000001,234.07375000000002,62.0,80.0
165,234.1275,234.5825,65.0,77.0
166,234.7275,234.97375,62.0,80.0
167,235.0275,235.32750000000001,65.0,82.0
168,235.6275,235.9275,65.0,77.0
169,235.9275,237.5275,62.0,77.0
170,239.5275,239.74875,62.0,78.0
171,239.82750000000001,240.04875,64.0,83.0
172,240.1275,240.35125,65.0,76.0
173,240.4275,241.4775,65.0,79.0
174,241.6275,241.79500000000002,65.0,78.0
175,241.9275,242.16125,65.0,79.0
176,242.2275,242.4975,69.0,80.0
177,242.5275,242.7675,69.0,81.0
178,242.82750000000001,243.99,67.0,79.0
179,244.0275,244.21625,69.0,79.0
180,244.32750000000001,244.54625000000001,69.0,82.0
181,244.6275,244.86625,72.0,83.0
182,244.9275,245.11375,74.0,82.0
183,245.2275,245.94875000000002,74.0,82.0
184,246.4275,246.63500000000002,65.0,79.0
185,246.7275,246.91125,67.0,76.0
186,247.0275,247.27625,69.0,79.0
187,247.32750000000001,247.53125,72.0,81.0
188,247.6275,248.54500000000002,69.0,79.0
189,248.82750000000001,249.01000000000002,67.0,79.0
190,249.1275,249.33625,67.0,81.0
191,249.4275,249.57750000000001,67.0,82.0
192,249.57750000000001,249.7275,69.0,82.0
193,249.7275,250.0275,70.0,83.0
194,250.0275,251.01625,70.0,82.0
195,251.2275,251.5275,70.0,81.0
196,251.5275,251.73625,69.0,76.0
197,251.82750000000001,252.04625000000001,67.0,82.0
198,252.1275,252.36375,67.0,82.0
199,252.4275,252.69625,69.0,72.0
200,252.7275,253.4375,65.0,79.0
201,253.6275,253.9275,65.0,75.0
202,254.2275,254.46875,65.0,82.0
203,254.5275,254.88750000000002,67.0,82.0
204,255.1275,257.32375,67.0,77.0
205,257.52750000000003,257.70375,60.0,81.0
206,257.8275,258.05125,60.0,81.0
207,258.1275,258.36375,65.0,82.0
208,258.4275,258.95375,64.0,85.0
209,259.02750000000003,259.3375,65.0,81.0
210,259.3275,261.2825,62.0,81.0
211,277.6275,277.77750000000003,62.0,82.0
212,277.9275,278.14875,62.0,78.0
213,278.2275,278.44875,64.0,83.0
214,278.52750000000003,278.75125,65.0,76.0
215,278.8275,279.8775,65.0,79.0
216,280.02750000000003,280.195,69.0,78.0
217,280.3275,280.56125000000003,69.0,79.0
218,280.6275,280.8975,67.0,80.0
219,280.9275,281.1675,65.0,81.0
220,281.2275,282.39,67.0,79.0
221,282.4275,282.61625,69.0,79.0
222,282.7275,282.94625,69.0,82.0
223,283.02750000000003,283.26625,72.0,83.0
224,283.3275,283.51375,74.0,82.0
225,283.6275,284.34875,74.0,82.0
226,284.8275,285.035,65.0,79.0
227,285.1275,285.31125000000003,67.0,76.0
228,285.4275,285.67625,69.0,79.0
229,285.7275,285.93125000000003,72.0,81.0
230,286.02750000000003,286.945,69.0,79.0
231,287.2275,287.41,67.0,79.0
232,287.52750000000003,287.73625,67.0,81.0
233,287.8275,287.9775,67.0,82.0
234,287.9775,288.1275,69.0,82.0
235,288.1275,288.4275,70.0,83.0
236,288.4275,289.41625,70.0,82.0
237,289.6275,289.9275,70.0,81.0
238,289.9275,290.13625,69.0,76.0
239,290.2275,290.44625,67.0,82.0
240,290.52750000000003,290.76375,67.0,82.0
241,290.8275,291.09625,69.0,72.0
242,291.1275,291.83750000000003,65.0,79.0
243,292.02750000000003,292.3275,65.0,75.0
244,292.6275,292.86875000000003,65.0,82.0
245,292.9275,293.2875,69.0,82.0
246,293.2275,295.72375,67.0,77.0
247,296.8275,297.1275,69.0,82.0
248,297.1275,297.34875,69.0,78.0
249,297.4275,297.64875,72.0,83.0
250,297.7275,297.95125,74.0,76.0
251,298.02750000000003,299.0775,74.0,79.0
252,299.2275,299.52750000000003,74.0,78.0
253,299.8275,300.06125000000003,74.0,79.0
254,300.1275,300.3675,72.0,81.0
255,300.7275,301.4775,69.0,79.0
256,301.6275,301.81625,69.0,79.0
257,301.9275,302.14625,69.0,82.0
258,302.2275,302.46625,72.0,83.0
259,302.52750000000003,302.71375,74.0,82.0
260,302.8275,303.54875,74.0,82.0
261,304.02750000000003,304.235,65.0,79.0
262,304.3275,304.51125,67.0,76.0
263,304.6275,304.87625,69.0,79.0
264,304.9275,305.13125,72.0,81.0
265,305.2275,306.145,69.0,79.0
266,306.4275,306.61,67.0,79.0
267,306.7275,306.93625000000003,67.0,81.0
268,307.02750000000003,307.1775,67.0,82.0
269,307.1775,307.3275,69.0,82.0
270,307.3275,307.6275,70.0,83.0
271,307.6275,308.61625,70.0,82.0
272,308.8275,309.1275,70.0,81.0
273,309.1275,309.33625,69.0,76.0
274,309.4275,309.64625,67.0,82.0
275,309.7275,309.96375,67.0,82.0
276,310.02750000000003,310.29625,69.0,72.0
277,310.3275,311.0375,65.0,79.0
278,311.2275,311.52750000000003,65.0,75.0
279,311.8275,312.06875,65.0,82.0
280,312.1275,312.4875,67.0,82.0
281,312.7275,319.1775,67.0,77.0
282,345.7275,345.89375,69.0,83.0
283,346.02750000000003,348.1725,69.0,85.0
284,348.4275,348.8525,69.0,81.0
285,349.02750000000003,349.23125,69.0,74.0
286,349.3275,349.84250000000003,69.0,82.0
287,349.9275,350.2275,69.0,81.0
288,350.52750000000003,350.7375,69.0,82.0
289,350.8275,350.99875000000003,67.0,77.0
290,351.1275,351.32125,65.0,80.0
291,351.4275,353.1775,67.0,81.0
292,354.4275,354.7275,62.0,82.0
293,354.7275,354.90625,62.0,82.0
294,355.02750000000003,355.23125,62.0,82.0
295,355.3275,355.54125,65.0,76.0
296,355.6275,357.4325,65.0,75.0
297,358.3275,358.50625,62.0,81.0
298,358.6275,358.87375000000003,62.0,80.0
299,358.9275,359.3825,65.0,77.0
300,359.52750000000003,359.77375,62.0,80.0
301,359.8275,360.39125,60.0,77.0
302,360.4275,362.3275,62.0,77.0
