,start,end,pitch,velocity
0,10.0275,10.47125,57.0,69.0
1,10.3275,10.95875,62.0,81.0
2,10.6275,11.03625,57.0,67.0
3,11.227500000000001,11.5775,57.0,62.0
4,10.9275,11.6125,64.0,82.0
5,9.727500000000001,11.9925,50.0,84.0
6,11.5275,12.2575,62.0,81.0
7,11.8275,12.276250000000001,57.0,66.0
8,12.4275,12.8225,57.0,69.0
9,12.1275,13.12875,69.0,65.0
10,12.727500000000001,13.41,62.0,75.0
11,13.0275,13.415000000000001,57.0,63.0
12,13.6275,13.9225,57.0,63.0
13,13.3275,13.981250000000001,64.0,80.0
14,12.1275,14.262500000000001,48.0,82.0
15,14.227500000000001,14.74375,57.0,69.0
16,13.9275,14.74375,62.0,81.0
17,14.8275,15.20375,57.0,71.0
18,14.5275,15.7575,69.0,68.0
19,15.1275,15.79125,62.0,78.0
20,15.4275,15.79875,57.0,66.0
21,16.0275,16.37375,57.0,66.0
22,15.727500000000001,16.39375,64.0,81.0
23,14.5275,16.74875,46.0,77.0
24,16.6275,16.92625,57.0,67.0
25,16.3275,16.99125,62.0,81.0
26,17.2275,17.61,57.0,77.0
27,17.5275,18.00625,62.0,77.0
28,17.8275,18.1825,57.0,77.0
29,16.927500000000002,18.6825,50.0,84.0
30,18.1275,18.79125,64.0,81.0
31,18.427500000000002,18.82875,57.0,76.0
32,18.7275,19.25,62.0,82.0
33,19.0275,19.26375,57.0,78.0
34,19.6275,20.07125,57.0,69.0
35,19.927500000000002,20.55875,62.0,81.0
36,20.2275,20.63625,57.0,67.0
37,20.8275,21.177500000000002,57.0,62.0
38,20.5275,21.212500000000002,64.0,82.0
39,19.3275,21.5925,50.0,84.0
40,21.1275,21.8575,62.0,81.0
41,21.427500000000002,21.87625,57.0,66.0
42,22.0275,22.4225,57.0,69.0
43,21.7275,22.72875,69.0,65.0
44,22.3275,23.01,62.0,75.0
45,22.6275,23.015,57.0,63.0
46,23.2275,23.5225,57.0,63.0
47,22.927500000000002,23.58125,64.0,80.0
48,21.7275,23.8625,48.0,82.0
49,23.8275,24.34375,57.0,69.0
50,23.5275,24.34375,62.0,81.0
51,24.427500000000002,24.80375,57.0,71.0
52,24.1275,25.3575,69.0,68.0
53,24.7275,25.39125,62.0,78.0
54,25.0275,25.39875,57.0,66.0
55,25.6275,25.97375,57.0,66.0
56,25.3275,25.993750000000002,64.0,81.0
57,24.1275,26.34875,46.0,77.0
58,26.2275,26.52625,57.0,67.0
59,25.927500000000002,26.591250000000002,62.0,81.0
60,26.8275,27.21,57.0,77.0
61,27.1275,27.60625,62.0,77.0
62,27.427500000000002,27.7825,57.0,77.0
63,26.5275,28.2825,50.0,84.0
64,27.7275,28.39125,64.0,81.0
65,28.0275,28.42875,57.0,76.0
66,28.3275,28.85,62.0,82.0
67,28.6275,28.86375,57.0,78.0
68,29.2275,29.67125,57.0,69.0
69,29.5275,30.15875,62.0,81.0
70,29.8275,30.236250000000002,57.0,67.0
71,30.427500000000002,30.7775,57.0,62.0
72,30.1275,30.8125,64.0,82.0
73,28.927500000000002,31.1925,50.0,84.0
74,30.7275,31.4575,62.0,81.0
75,31.0275,31.47625,57.0,66.0
76,31.6275,32.0225,57.0,69.0
77,31.3275,32.32875,69.0,65.0
78,31.927500000000002,32.61,62.0,75.0
79,32.2275,32.615,57.0,63.0
80,32.8275,33.1225,57.0,63.0
81,32.5275,33.18125,64.0,80.0
82,31.3275,33.4625,48.0,82.0
83,33.4275,33.94375,57.0,69.0
84,33.1275,33.94375,62.0,81.0
85,34.0275,34.40375,57.0,71.0
86,33.7275,34.9575,69.0,68.0
87,34.3275,34.99125,62.0,78.0
88,34.6275,34.99875,57.0,66.0
89,35.2275,35.573750000000004,57.0,66.0
90,34.9275,35.59375,64.0,81.0
91,33.7275,35.948750000000004,46.0,77.0
92,35.8275,36.12625,57.0,67.0
93,35.5275,36.191250000000004,62.0,81.0
94,36.4275,36.81,57.0,77.0
95,36.7275,37.206250000000004,62.0,77.0
96,37.0275,37.3825,57.0,77.0
97,36.1275,37.8825,50.0,84.0
98,37.3275,37.99125,64.0,81.0
99,37.6275,38.02875,57.0,76.0
100,37.9275,38.45,62.0,82.0
101,38.2275,38.46375,57.0,78.0
102,38.8275,39.27125,57.0,69.0
103,39.1275,39.75875,62.0,81.0
104,39.4275,39.83625,57.0,67.0
105,40.0275,40.3775,57.0,62.0
106,39.7275,40.4125,64.0,82.0
107,38.5275,40.792500000000004,50.0,84.0
108,40.3275,41.0575,62.0,81.0
109,40.6275,41.07625,57.0,66.0
110,41.2275,41.6225,57.0,69.0
111,40.9275,41.92875,69.0,65.0
112,41.5275,42.21,62.0,75.0
113,41.8275,42.215,57.0,63.0
114,42.4275,42.722500000000004,57.0,63.0
115,42.1275,42.78125,64.0,80.0
116,40.9275,43.0625,48.0,82.0
117,43.0275,43.54375,57.0,69.0
118,42.7275,43.54375,62.0,81.0
119,43.6275,44.003750000000004,57.0,71.0
120,43.3275,44.5575,69.0,68.0
121,43.9275,44.59125,62.0,78.0
122,44.2275,44.59875,57.0,66.0
123,44.8275,45.17375,57.0,66.0
124,44.5275,45.19375,64.0,81.0
125,43.3275,45.54875,46.0,77.0
126,45.4275,45.72625,57.0,67.0
127,45.1275,45.79125,62.0,81.0
128,46.0275,46.410000000000004,57.0,77.0
129,46.3275,46.80625,62.0,77.0
130,46.6275,46.9825,57.0,77.0
131,45.7275,47.4825,50.0,84.0
132,46.9275,47.59125,64.0,81.0
133,47.2275,47.628750000000004,57.0,76.0
134,47.5275,48.050000000000004,62.0,82.0
135,47.8275,48.06375,57.0,78.0
136,48.4275,48.7775,57.0,81.0
137,48.7275,49.075,62.0,74.0
138,49.0275,49.395,57.0,69.0
139,49.3275,49.8825,64.0,83.0
140,49.6275,49.95375,57.0,76.0
141,48.1275,50.10625,50.0,85.0
142,49.9275,50.61125,62.0,75.0
143,50.2275,50.628750000000004,57.0,76.0
144,50.8275,51.13125,57.0,72.0
145,51.1275,51.49375,62.0,76.0
146,51.7275,52.198750000000004,64.0,81.0
147,52.0275,52.36125,57.0,75.0
148,52.3275,52.75875,62.0,81.0
149,50.5275,52.795,50.0,79.0
150,52.6275,52.985,57.0,82.0
151,53.2275,53.573750000000004,57.0,77.0
152,53.5275,53.886250000000004,62.0,81.0
153,53.8275,54.2075,57.0,66.0
154,54.1275,54.70125,64.0,82.0
155,54.4275,54.7425,57.0,69.0
156,52.9275,55.06375,48.0,81.0
157,55.0275,55.445,57.0,69.0
158,54.7275,55.475,62.0,73.0
159,55.6275,55.9525,57.0,74.0
160,55.9275,56.12125,62.0,74.0
161,56.2275,56.45375,57.0,67.0
162,55.3275,56.89125,48.0,82.0
163,56.5275,56.9575,64.0,82.0
164,56.8275,57.18125,57.0,72.0
165,57.1275,57.52,62.0,76.0
166,57.4275,57.69375,57.0,75.0
167,58.0275,58.38,58.0,72.0
168,58.3275,58.99625,62.0,74.0
169,58.6275,59.03,58.0,61.0
170,58.9275,59.28,65.0,82.0
171,59.2275,59.53875,58.0,70.0
172,57.7275,59.93625,46.0,81.0
173,59.5275,60.0725,62.0,77.0
174,59.8275,60.195,58.0,69.0
175,60.4275,60.72625,58.0,68.0
176,61.0275,61.345,58.0,70.0
177,60.7275,61.37125,62.0,75.0
178,61.3275,61.93625,65.0,79.0
179,61.627500000000005,61.940000000000005,58.0,69.0
180,61.9275,62.35875,62.0,75.0
181,60.1275,62.385,46.0,72.0
182,62.2275,62.51625,58.0,73.0
183,62.8275,63.19375,57.0,69.0
184,63.127500000000005,63.533750000000005,62.0,76.0
185,63.4275,63.75,57.0,68.0
186,63.7275,64.06,64.0,81.0
187,64.0275,64.37125,57.0,77.0
188,64.3275,64.65625,62.0,83.0
189,62.5275,64.735,50.0,81.0
190,64.6275,65.06375,57.0,81.0
191,65.2275,65.54625,57.0,75.0
192,65.8275,66.1575,57.0,68.0
193,65.5275,66.52625,62.0,77.0
194,66.1275,66.7825,69.0,71.0
195,66.4275,66.82375,57.0,81.0
196,66.7275,67.255,62.0,80.0
197,67.0275,67.26875,57.0,82.0
198,64.9275,67.31125,50.0,81.0
199,67.6275,67.9775,57.0,81.0
200,67.9275,68.275,62.0,74.0
201,68.2275,68.595,57.0,69.0
202,68.5275,69.0825,64.0,83.0
203,68.8275,69.15375,57.0,76.0
204,67.3275,69.30625,50.0,85.0
205,69.1275,69.81125,62.0,75.0
206,69.4275,69.82875,57.0,76.0
207,70.0275,70.33125,57.0,72.0
208,70.3275,70.69375000000001,62.0,76.0
209,70.9275,71.39875,64.0,81.0
210,71.2275,71.56125,57.0,75.0
211,71.5275,71.95875,62.0,81.0
212,69.7275,71.995,50.0,79.0
213,71.8275,72.185,57.0,82.0
214,72.4275,72.77375,57.0,77.0
215,72.7275,73.08625,62.0,81.0
216,73.0275,73.4075,57.0,66.0
217,73.3275,73.90125,64.0,82.0
218,73.6275,73.9425,57.0,69.0
219,72.1275,74.26375,48.0,81.0
220,74.2275,74.645,57.0,69.0
221,73.9275,74.675,62.0,73.0
222,74.8275,75.1525,57.0,74.0
223,75.1275,75.32125,62.0,74.0
224,75.4275,75.65375,57.0,67.0
225,74.5275,76.09125,48.0,82.0
226,75.7275,76.1575,64.0,82.0
227,76.0275,76.38125000000001,57.0,72.0
228,76.3275,76.72,62.0,76.0
229,76.6275,76.89375,57.0,75.0
230,77.2275,77.58,58.0,72.0
231,77.5275,78.19625,62.0,74.0
232,77.8275,78.23,58.0,61.0
233,78.1275,78.48,65.0,82.0
234,78.4275,78.73875,58.0,70.0
235,76.9275,79.13625,46.0,81.0
236,78.7275,79.27250000000001,62.0,77.0
237,79.0275,79.395,58.0,69.0
238,79.6275,79.92625,58.0,68.0
239,80.2275,80.545,58.0,70.0
240,79.9275,80.57125,62.0,75.0
241,80.5275,81.13625,65.0,79.0
242,80.8275,81.14,58.0,69.0
243,81.1275,81.55875,62.0,75.0
244,79.3275,81.58500000000001,46.0,72.0
245,81.4275,81.71625,58.0,73.0
246,82.0275,82.39375,57.0,69.0
247,82.3275,82.73375,62.0,76.0
248,82.6275,82.95,57.0,68.0
249,82.9275,83.26,64.0,81.0
250,83.2275,83.57125,57.0,77.0
251,83.5275,83.85625,62.0,83.0
252,81.7275,83.935,50.0,81.0
253,83.8275,84.26375,57.0,81.0
254,84.4275,84.78750000000001,57.0,82.0
255,84.7275,85.16125,62.0,77.0
256,85.0275,85.39125,57.0,76.0
257,85.3275,85.85000000000001,64.0,87.0
258,85.6275,85.9625,57.0,79.0
259,84.1275,86.2,50.0,82.0
260,85.9275,86.62375,62.0,77.0
261,86.2275,86.64875,57.0,76.0
262,86.8275,87.2025,57.0,75.0
263,87.1275,87.4925,62.0,83.0
264,86.5275,87.6575,50.0,82.0
265,87.4275,87.7975,57.0,87.0
266,87.7275,88.16875,64.0,90.0
267,88.0275,88.37625,57.0,81.0
268,88.3275,88.64625,62.0,81.0
269,88.6275,88.89875,57.0,77.0
270,89.2275,89.5925,55.0,85.0
271,89.5275,89.88125000000001,60.0,81.0
272,89.8275,90.23375,55.0,81.0
273,90.1275,90.54875,64.0,82.0
274,90.4275,90.78125,55.0,76.0
275,88.9275,91.16250000000001,48.0,84.0
276,90.7275,91.36,60.0,69.0
277,91.0275,91.42625,55.0,74.0
278,91.6275,91.97625000000001,58.0,75.0
279,91.9275,92.5725,62.0,82.0
280,92.2275,92.615,58.0,65.0
281,92.5275,92.9575,65.0,81.0
282,92.8275,93.15625,58.0,69.0
283,93.1275,93.48875,62.0,81.0
284,91.3275,93.5875,46.0,82.0
285,93.4275,93.70375,58.0,78.0
286,94.0275,94.36,57.0,75.0
287,94.3275,94.72625000000001,62.0,82.0
288,94.6275,94.92125,57.0,69.0
289,94.9275,95.285,64.0,78.0
290,93.7275,95.3225,50.0,81.0
291,95.2275,95.525,57.0,68.0
292,95.5275,95.84125,62.0,76.0
293,95.8275,96.26875,57.0,82.0
294,96.42750000000001,96.755,57.0,79.0
295,96.7275,97.125,62.0,80.0
296,97.0275,97.37,57.0,81.0
297,97.3275,97.9625,64.0,81.0
298,97.6275,97.985,57.0,77.0
299,96.1275,98.03,50.0,90.0
300,97.92750000000001,98.315,62.0,74.0
301,98.2275,98.60000000000001,57.0,78.0
302,98.8275,99.185,55.0,81.0
303,99.1275,99.46125,62.0,81.0
304,99.42750000000001,99.72500000000001,55.0,75.0
305,99.7275,100.15875,64.0,81.0
306,100.0275,100.3775,55.0,71.0
307,98.5275,100.55125,48.0,84.0
308,100.3275,100.92125,62.0,76.0
309,100.6275,100.9775,55.0,81.0
310,101.2275,101.5475,58.0,68.0
311,101.5275,101.90625,62.0,77.0
312,101.8275,102.23,58.0,76.0
313,102.1275,102.45625,64.0,83.0
314,102.42750000000001,102.76375,58.0,76.0
315,102.7275,103.08,62.0,77.0
316,100.92750000000001,103.1075,46.0,77.0
317,103.0275,103.355,58.0,73.0
318,103.6275,104.02,57.0,71.0
319,103.92750000000001,104.305,62.0,76.0
320,104.2275,104.53875000000001,57.0,76.0
321,104.5275,104.90875,64.0,82.0
322,104.8275,105.19875,57.0,83.0
323,105.1275,105.715,62.0,82.0
324,105.42750000000001,105.72125,57.0,73.0
325,103.3275,105.7625,50.0,82.0
326,105.7275,105.7625,50.0,85.0
327,106.0275,106.3775,57.0,81.0
328,106.3275,106.675,62.0,74.0
329,106.6275,106.995,57.0,69.0
330,106.92750000000001,107.4825,64.0,83.0
331,107.2275,107.55375000000001,57.0,76.0
332,107.5275,108.21125,62.0,75.0
333,107.8275,108.22875,57.0,76.0
334,108.42750000000001,108.73125,57.0,72.0
335,108.7275,109.09375,62.0,76.0
336,109.3275,109.79875,64.0,81.0
337,109.6275,109.96125,57.0,75.0
338,109.92750000000001,110.35875,62.0,81.0
339,108.1275,110.395,50.0,79.0
340,110.2275,110.58500000000001,57.0,82.0
341,110.8275,111.17375,57.0,77.0
342,111.1275,111.48625,62.0,81.0
343,111.42750000000001,111.8075,57.0,66.0
344,111.7275,112.30125,64.0,82.0
345,112.0275,112.3425,57.0,69.0
346,110.5275,112.66375000000001,48.0,81.0
347,112.6275,113.045,57.0,69.0
348,112.3275,113.075,62.0,73.0
349,113.2275,113.55250000000001,57.0,74.0
350,113.5275,113.72125,62.0,74.0
351,113.8275,114.05375000000001,57.0,67.0
352,112.92750000000001,114.49125000000001,48.0,82.0
353,114.1275,114.5575,64.0,82.0
354,114.42750000000001,114.78125,57.0,72.0
355,114.7275,115.12,62.0,76.0
356,115.0275,115.29375,57.0,75.0
357,115.6275,115.98,58.0,72.0
358,115.92750000000001,116.59625,62.0,74.0
359,116.2275,116.63,58.0,61.0
360,116.5275,116.88,65.0,82.0
361,116.8275,117.13875,58.0,70.0
362,115.3275,117.53625,46.0,81.0
363,117.1275,117.6725,62.0,77.0
364,117.42750000000001,117.795,58.0,69.0
365,118.0275,118.32625,58.0,68.0
366,118.6275,118.94500000000001,58.0,70.0
367,118.3275,118.97125,62.0,75.0
368,118.92750000000001,119.53625,65.0,79.0
369,119.2275,119.54,58.0,69.0
370,119.5275,119.95875000000001,62.0,75.0
371,117.7275,119.985,46.0,72.0
372,119.8275,120.11625000000001,58.0,73.0
373,120.42750000000001,120.79375,57.0,69.0
374,120.7275,121.13375,62.0,76.0
375,121.0275,121.35000000000001,57.0,68.0
376,121.3275,121.66,64.0,81.0
377,121.6275,121.97125,57.0,77.0
378,121.92750000000001,122.25625000000001,62.0,83.0
379,120.1275,122.33500000000001,50.0,81.0
380,122.2275,122.66375000000001,57.0,81.0
381,122.8275,123.14625000000001,57.0,75.0
382,123.42750000000001,123.75750000000001,57.0,68.0
383,123.1275,124.12625,62.0,77.0
384,123.7275,124.38250000000001,69.0,71.0
385,124.0275,124.42375,57.0,81.0
386,124.3275,124.855,62.0,80.0
387,124.6275,124.86875,57.0,82.0
388,122.5275,124.91125000000001,50.0,81.0
389,125.2275,125.5775,57.0,81.0
390,125.5275,125.875,62.0,74.0
391,125.8275,126.19500000000001,57.0,69.0
392,126.1275,126.6825,64.0,83.0
393,126.42750000000001,126.75375,57.0,76.0
394,124.92750000000001,126.90625,50.0,85.0
395,126.7275,127.41125000000001,62.0,75.0
396,127.0275,127.42875000000001,57.0,76.0
397,127.6275,127.93125,57.0,72.0
398,127.92750000000001,128.29375,62.0,76.0
399,128.5275,128.99875,64.0,81.0
400,128.82750000000001,129.16125,57.0,75.0
401,129.1275,129.55875,62.0,81.0
402,127.3275,129.595,50.0,79.0
403,129.4275,129.785,57.0,82.0
404,130.0275,130.37375,57.0,77.0
405,130.32750000000001,130.68625,62.0,81.0
406,130.6275,131.0075,57.0,66.0
407,130.9275,131.50125,64.0,82.0
408,131.2275,131.5425,57.0,69.0
409,129.7275,131.86375,48.0,81.0
410,131.82750000000001,132.245,57.0,69.0
411,131.5275,132.275,62.0,73.0
412,132.4275,132.7525,57.0,74.0
413,132.7275,132.92125000000001,62.0,74.0
414,133.0275,133.25375,57.0,67.0
415,132.1275,133.69125,48.0,82.0
416,133.32750000000001,133.7575,64.0,82.0
417,133.6275,133.98125,57.0,72.0
418,133.9275,134.32,62.0,76.0
419,134.2275,134.49375,57.0,75.0
420,134.82750000000001,135.18,58.0,72.0
421,135.1275,135.79625000000001,62.0,74.0
422,135.4275,135.83,58.0,61.0
423,135.7275,136.08,65.0,82.0
424,136.0275,136.33875,58.0,70.0
425,134.5275,136.73625,46.0,81.0
426,136.32750000000001,136.8725,62.0,77.0
427,136.6275,136.995,58.0,69.0
428,137.2275,137.52625,58.0,68.0
429,137.82750000000001,138.145,58.0,70.0
430,137.5275,138.17125000000001,62.0,75.0
431,138.1275,138.73625,65.0,79.0
432,138.4275,138.74,58.0,69.0
433,138.7275,139.15875,62.0,75.0
434,136.9275,139.185,46.0,72.0
435,139.0275,139.31625,58.0,73.0
436,139.6275,139.99375,57.0,69.0
437,139.9275,140.33375,62.0,76.0
438,140.2275,140.55,57.0,68.0
439,140.5275,140.86,64.0,81.0
440,140.82750000000001,141.17125000000001,57.0,77.0
441,141.1275,141.45625,62.0,83.0
442,139.32750000000001,141.535,50.0,81.0
443,141.4275,141.86375,57.0,81.0
444,142.0275,142.39375,57.0,69.0
445,142.32750000000001,142.73375000000001,62.0,76.0
446,142.6275,142.95000000000002,57.0,68.0
447,142.9275,143.26,64.0,81.0
448,143.2275,143.57125,57.0,77.0
449,143.5275,143.85625000000002,62.0,83.0
450,141.7275,143.935,38.0,81.0
451,141.7275,143.935,50.0,59.0
452,143.82750000000001,144.26375000000002,57.0,81.0
453,144.1275,144.81125,60.0,81.0
454,145.0275,145.17375,57.0,74.0
455,145.32750000000001,145.36375,57.0,57.0
456,144.7275,145.40375,53.0,70.0
457,144.4275,145.4075,48.0,68.0
458,145.32750000000001,145.7075,65.0,83.0
459,145.6275,146.10375,48.0,72.0
460,144.1275,146.12875,41.0,82.0
461,145.9275,146.2725,57.0,82.0
462,146.2275,146.3425,53.0,81.0
463,145.9275,146.35625000000002,60.0,82.0
464,146.5275,146.715,55.0,78.0
465,146.5275,146.935,60.0,80.0
466,146.82750000000001,147.07625000000002,55.0,72.0
467,147.1275,147.32750000000001,60.0,74.0
468,147.4275,147.54375000000002,55.0,78.0
469,147.7275,147.84375,55.0,82.0
470,147.7275,148.06875,64.0,83.0
471,148.0275,148.185,55.0,80.0
472,146.5275,148.32375,48.0,81.0
473,148.32750000000001,148.50125,60.0,79.0
474,148.6275,148.6875,60.0,57.0
475,148.6275,148.79875,55.0,75.0
476,148.9275,149.2675,58.0,83.0
477,149.2275,149.4425,53.0,73.0
478,149.5275,149.70125000000002,62.0,72.0
479,149.82750000000001,150.01125,53.0,66.0
480,150.1275,150.43125,58.0,82.0
481,150.1275,150.54125,65.0,80.0
482,150.4275,150.635,53.0,76.0
483,148.9275,150.83125,46.0,81.0
484,150.7275,151.11375,62.0,81.0
485,151.0275,151.22,53.0,82.0
486,151.32750000000001,151.62125,53.0,77.0
487,151.32750000000001,151.705,57.0,80.0
488,151.9275,152.07875,60.0,82.0
489,152.2275,152.3325,53.0,77.0
490,151.6275,152.63625,48.0,64.0
491,152.5275,152.97,53.0,86.0
492,152.5275,152.99375,65.0,81.0
493,152.82750000000001,153.25625,48.0,78.0
494,153.1275,153.26375000000002,57.0,79.0
495,153.1275,153.31125,60.0,82.0
496,151.32750000000001,153.33125,41.0,82.0
497,153.4275,153.52125,53.0,82.0
498,153.7275,154.375,58.0,85.0
499,154.0275,154.445,46.0,67.0
500,154.32750000000001,154.6875,55.0,81.0
501,154.9275,155.23125000000002,58.0,87.0
502,154.9275,155.25875,63.0,88.0
503,154.6275,155.38750000000002,46.0,68.0
504,155.2275,155.39625,55.0,82.0
505,153.7275,155.4275,39.0,79.0
506,155.5275,155.82,58.0,83.0
507,155.82750000000001,155.95250000000001,55.0,81.0
508,156.1275,156.5275,62.0,79.0
509,156.4275,156.745,57.0,76.0
510,156.7275,157.05125,62.0,75.0
511,157.0275,157.13125,57.0,72.0
512,157.32750000000001,157.4775,57.0,81.0
513,157.32750000000001,157.67875,65.0,79.0
514,157.32750000000001,157.6875,62.0,82.0
515,156.1275,157.7425,50.0,76.0
516,157.6275,157.7575,57.0,67.0
517,157.9275,158.01250000000002,57.0,77.0
518,157.9275,158.1425,62.0,78.0
519,158.2275,158.3325,57.0,69.0
520,158.5275,158.70125000000002,55.0,79.0
521,158.5275,158.88,60.0,76.0
522,158.82750000000001,159.00125,55.0,69.0
523,159.1275,159.2675,60.0,69.0
524,159.4275,159.5175,55.0,73.0
525,159.7275,159.84375,55.0,84.0
526,158.5275,159.89375,48.0,86.0
527,159.7275,159.94,64.0,82.0
528,160.0275,160.165,55.0,73.0
529,160.32750000000001,160.6925,60.0,81.0
530,160.6275,160.83125,55.0,73.0
531,160.9275,161.03375,36.0,77.0
532,160.9275,161.05875,55.0,77.0
533,160.9275,161.22625,60.0,78.0
534,161.2275,161.3975,55.0,70.0
535,161.5275,161.6425,60.0,66.0
536,162.1275,162.2725,55.0,81.0
537,162.4275,162.70625,55.0,60.0
538,162.1275,162.71,64.0,81.0
539,162.7275,163.2775,60.0,70.0
540,162.1275,163.28375,48.0,74.0
541,163.6275,164.07125,57.0,69.0
542,163.9275,164.55875,62.0,81.0
543,164.2275,164.63625,57.0,67.0
544,164.82750000000001,165.1775,57.0,62.0
545,164.5275,165.2125,64.0,82.0
546,163.32750000000001,165.5925,50.0,84.0
547,165.1275,165.85750000000002,62.0,81.0
548,165.4275,165.87625,57.0,66.0
549,166.0275,166.4225,57.0,69.0
550,165.7275,166.72875,69.0,65.0
551,166.32750000000001,167.01,62.0,75.0
552,166.6275,167.01500000000001,57.0,63.0
553,167.2275,167.5225,57.0,63.0
554,166.9275,167.58125,64.0,80.0
555,165.7275,167.8625,48.0,82.0
556,167.82750000000001,168.34375,57.0,69.0
557,167.5275,168.34375,62.0,81.0
558,168.4275,168.80375,57.0,71.0
559,168.1275,169.35750000000002,69.0,68.0
560,168.7275,169.39125,62.0,78.0
561,169.0275,169.39875,57.0,66.0
562,169.6275,169.97375,57.0,66.0
563,169.32750000000001,169.99375,64.0,81.0
564,168.1275,170.34875,46.0,77.0
565,170.2275,170.52625,57.0,67.0
566,169.9275,170.59125,62.0,81.0
567,170.82750000000001,171.21,57.0,77.0
568,171.1275,171.60625000000002,62.0,77.0
569,171.4275,171.7825,57.0,77.0
570,170.5275,172.2825,50.0,84.0
571,171.7275,172.39125,64.0,81.0
572,172.0275,172.42875,57.0,76.0
573,172.32750000000001,172.85,62.0,82.0
574,172.6275,172.86375,57.0,78.0
575,173.2275,173.67125000000001,57.0,69.0
576,173.5275,174.15875,62.0,81.0
577,173.82750000000001,174.23625,57.0,67.0
578,174.4275,174.7775,57.0,62.0
579,174.1275,174.8125,64.0,82.0
580,172.9275,175.1925,50.0,84.0
581,174.7275,175.4575,62.0,81.0
582,175.0275,175.47625,57.0,66.0
583,175.6275,176.0225,57.0,69.0
584,175.32750000000001,176.32875,69.0,65.0
585,175.9275,176.61,62.0,75.0
586,176.2275,176.615,57.0,63.0
587,176.82750000000001,177.1225,57.0,63.0
588,176.5275,177.18125,64.0,80.0
589,175.32750000000001,177.4625,48.0,82.0
590,177.4275,177.94375,57.0,69.0
591,177.1275,177.94375,62.0,81.0
592,178.0275,178.40375,57.0,71.0
593,177.7275,178.9575,69.0,68.0
594,178.32750000000001,178.99125,62.0,78.0
595,178.6275,178.99875,57.0,66.0
596,179.2275,179.57375,57.0,66.0
597,178.9275,179.59375,64.0,81.0
598,177.7275,179.94875,46.0,77.0
599,179.82750000000001,180.12625,57.0,67.0
600,179.5275,180.19125,62.0,81.0
601,180.4275,180.81,57.0,77.0
602,180.7275,181.20625,62.0,77.0
603,181.0275,181.3825,57.0,77.0
604,180.1275,181.8825,50.0,84.0
605,181.32750000000001,181.99125,64.0,81.0
606,181.6275,182.02875,57.0,76.0
607,181.9275,182.45000000000002,62.0,82.0
608,182.2275,182.46375,57.0,78.0
609,182.82750000000001,183.27125,57.0,69.0
610,183.1275,183.75875,62.0,81.0
611,183.4275,183.83625,57.0,67.0
612,184.0275,184.3775,57.0,62.0
613,183.7275,184.4125,64.0,82.0
614,182.5275,184.7925,50.0,84.0
615,184.32750000000001,185.0575,62.0,81.0
616,184.6275,185.07625000000002,57.0,66.0
617,185.2275,185.6225,57.0,69.0
618,184.9275,185.92875,69.0,65.0
619,185.5275,186.21,62.0,75.0
620,185.82750000000001,186.215,57.0,63.0
621,186.4275,186.7225,57.0,63.0
622,186.1275,186.78125,64.0,80.0
623,184.9275,187.0625,48.0,82.0
624,187.0275,187.54375000000002,57.0,69.0
625,186.7275,187.54375000000002,62.0,81.0
626,187.6275,188.00375,57.0,71.0
627,187.32750000000001,188.5575,69.0,68.0
628,187.9275,188.59125,62.0,78.0
629,188.2275,188.59875,57.0,66.0
630,188.82750000000001,189.17375,57.0,66.0
631,188.5275,189.19375,64.0,81.0
632,187.32750000000001,189.54875,46.0,77.0
633,189.4275,189.72625,57.0,67.0
634,189.1275,189.79125,62.0,81.0
635,190.0275,190.41,57.0,77.0
636,190.32750000000001,190.80625,62.0,77.0
637,190.6275,190.98250000000002,57.0,77.0
638,189.7275,191.48250000000002,50.0,84.0
639,190.9275,191.59125,64.0,81.0
640,191.2275,191.62875,57.0,76.0
641,191.5275,192.05,62.0,82.0
642,191.82750000000001,192.06375,57.0,78.0
643,192.4275,192.87125,57.0,69.0
644,192.7275,193.35875000000001,62.0,81.0
645,193.0275,193.43625,57.0,67.0
646,193.6275,193.9775,57.0,62.0
647,193.32750000000001,194.01250000000002,64.0,82.0
648,192.1275,194.3925,50.0,84.0
649,193.9275,194.6575,62.0,81.0
650,194.2275,194.67625,57.0,66.0
651,194.82750000000001,195.2225,57.0,69.0
652,194.5275,195.52875,69.0,65.0
653,195.1275,195.81,62.0,75.0
654,195.4275,195.815,57.0,63.0
655,196.0275,196.3225,57.0,63.0
656,195.7275,196.38125,64.0,80.0
657,194.5275,196.6625,48.0,82.0
658,196.6275,197.14375,57.0,69.0
659,196.32750000000001,197.14375,62.0,81.0
660,197.2275,197.60375,57.0,71.0
661,196.9275,198.1575,69.0,68.0
662,197.5275,198.19125,62.0,78.0
663,197.82750000000001,198.19875000000002,57.0,66.0
664,198.4275,198.77375,57.0,66.0
665,198.1275,198.79375000000002,64.0,81.0
666,196.9275,199.14875,46.0,77.0
667,199.0275,199.32625000000002,57.0,67.0
668,198.7275,199.39125,62.0,81.0
669,199.6275,200.01,57.0,77.0
670,199.9275,200.40625,62.0,77.0
671,200.2275,200.5825,57.0,77.0
672,199.32750000000001,201.0825,50.0,84.0
673,200.5275,201.19125,64.0,81.0
674,200.82750000000001,201.22875,57.0,76.0
675,201.1275,201.65,62.0,82.0
676,201.4275,201.66375,57.0,78.0
677,202.0275,202.3775,57.0,81.0
678,202.32750000000001,202.675,62.0,74.0
679,202.6275,202.995,57.0,69.0
680,202.9275,203.48250000000002,64.0,83.0
681,203.2275,203.55375,57.0,76.0
682,201.7275,203.70625,50.0,85.0
683,203.5275,204.21125,62.0,75.0
684,203.82750000000001,204.22875,57.0,76.0
685,204.4275,204.73125000000002,57.0,72.0
686,204.7275,205.09375,62.0,76.0
687,205.32750000000001,205.79875,64.0,81.0
688,205.6275,205.96125,57.0,75.0
689,205.9275,206.35875000000001,62.0,81.0
690,204.1275,206.395,50.0,79.0
691,206.2275,206.585,57.0,82.0
692,206.82750000000001,207.17375,57.0,77.0
693,207.1275,207.48625,62.0,81.0
694,207.4275,207.8075,57.0,66.0
695,207.7275,208.30125,64.0,82.0
696,208.0275,208.3425,57.0,69.0
697,206.5275,208.66375,48.0,81.0
698,208.6275,209.04500000000002,57.0,69.0
699,208.32750000000001,209.07500000000002,62.0,73.0
700,209.2275,209.5525,57.0,74.0
701,209.5275,209.72125,62.0,74.0
702,209.82750000000001,210.05375,57.0,67.0
703,208.9275,210.49125,48.0,82.0
704,210.1275,210.5575,64.0,82.0
705,210.4275,210.78125,57.0,72.0
706,210.7275,211.12,62.0,76.0
707,211.0275,211.29375000000002,57.0,75.0
708,211.6275,211.98000000000002,58.0,72.0
709,211.9275,212.59625,62.0,74.0
710,212.2275,212.63,58.0,61.0
711,212.5275,212.88,65.0,82.0
712,212.82750000000001,213.13875000000002,58.0,70.0
713,211.32750000000001,213.53625,46.0,81.0
714,213.1275,213.6725,62.0,77.0
715,213.4275,213.79500000000002,58.0,69.0
716,214.0275,214.32625000000002,58.0,68.0
717,214.6275,214.945,58.0,70.0
718,214.32750000000001,214.97125,62.0,75.0
719,214.9275,215.53625,65.0,79.0
720,215.2275,215.54,58.0,69.0
721,215.5275,215.95875,62.0,75.0
722,213.7275,215.985,46.0,72.0
723,215.82750000000001,216.11625,58.0,73.0
724,216.4275,216.79375000000002,57.0,69.0
725,216.7275,217.13375,62.0,76.0
726,217.0275,217.35,57.0,68.0
727,217.32750000000001,217.66,64.0,81.0
728,217.6275,217.97125,57.0,77.0
729,217.9275,218.25625,62.0,83.0
730,216.1275,218.335,50.0,81.0
731,218.2275,218.66375,57.0,81.0
732,218.82750000000001,219.14625,57.0,75.0
733,219.4275,219.7575,57.0,68.0
734,219.1275,220.12625,62.0,77.0
735,219.7275,220.3825,69.0,71.0
736,220.0275,220.42375,57.0,81.0
737,220.32750000000001,220.85500000000002,62.0,80.0
738,220.6275,220.86875,57.0,82.0
739,218.5275,220.91125,50.0,81.0
740,221.2275,221.57750000000001,57.0,81.0
741,221.5275,221.875,62.0,74.0
742,221.82750000000001,222.195,57.0,69.0
743,222.1275,222.6825,64.0,83.0
744,222.4275,222.75375,57.0,76.0
745,220.9275,222.90625,50.0,85.0
746,222.7275,223.41125,62.0,75.0
747,223.0275,223.42875,57.0,76.0
748,223.6275,223.93125,57.0,72.0
749,223.9275,224.29375000000002,62.0,76.0
750,224.5275,224.99875,64.0,81.0
751,224.82750000000001,225.16125,57.0,75.0
752,225.1275,225.55875,62.0,81.0
753,223.32750000000001,225.595,50.0,79.0
754,225.4275,225.785,57.0,82.0
755,226.0275,226.37375,57.0,77.0
756,226.32750000000001,226.68625,62.0,81.0
757,226.6275,227.0075,57.0,66.0
758,226.9275,227.50125,64.0,82.0
759,227.2275,227.54250000000002,57.0,69.0
760,225.7275,227.86375,48.0,81.0
761,227.82750000000001,228.245,57.0,69.0
762,227.5275,228.275,62.0,73.0
763,228.4275,228.7525,57.0,74.0
764,228.7275,228.92125000000001,62.0,74.0
765,229.0275,229.25375,57.0,67.0
766,228.1275,229.69125,48.0,82.0
767,229.32750000000001,229.7575,64.0,82.0
768,229.6275,229.98125000000002,57.0,72.0
769,229.9275,230.32,62.0,76.0
770,230.2275,230.49375,57.0,75.0
771,230.82750000000001,231.18,58.0,72.0
772,231.1275,231.79625000000001,62.0,74.0
773,231.4275,231.83,58.0,61.0
774,231.7275,232.08,65.0,82.0
775,232.0275,232.33875,58.0,70.0
776,230.5275,232.73625,46.0,81.0
777,232.32750000000001,232.8725,62.0,77.0
778,232.6275,232.995,58.0,69.0
779,233.2275,233.52625,58.0,68.0
780,233.82750000000001,234.145,58.0,70.0
781,233.5275,234.17125000000001,62.0,75.0
782,234.1275,234.73625,65.0,79.0
783,234.4275,234.74,58.0,69.0
784,234.7275,235.15875,62.0,75.0
785,232.9275,235.185,46.0,72.0
786,235.0275,235.31625,58.0,73.0
787,235.6275,235.99375,57.0,69.0
788,235.9275,236.33375,62.0,76.0
789,236.2275,236.55,57.0,68.0
790,236.5275,236.86,64.0,81.0
791,236.82750000000001,237.17125000000001,57.0,77.0
792,237.1275,237.45625,62.0,83.0
793,235.32750000000001,237.535,50.0,81.0
794,237.4275,237.86375,57.0,81.0
795,238.0275,238.39375,57.0,69.0
796,238.32750000000001,238.73375000000001,62.0,76.0
797,238.6275,238.95000000000002,57.0,68.0
798,238.9275,239.26,64.0,81.0
799,239.2275,239.57125,57.0,77.0
800,239.5275,239.85625000000002,62.0,83.0
801,237.7275,239.935,38.0,81.0
802,237.7275,239.935,50.0,59.0
803,239.82750000000001,240.26375000000002,57.0,81.0
804,240.1275,240.81125,60.0,81.0
805,241.0275,241.17375,57.0,74.0
806,241.32750000000001,241.36375,57.0,57.0
807,240.7275,241.40375,53.0,70.0
808,240.4275,241.4075,48.0,68.0
809,241.32750000000001,241.7075,65.0,83.0
810,241.6275,242.10375,48.0,72.0
811,240.1275,242.12875,41.0,82.0
812,241.9275,242.2725,57.0,82.0
813,242.2275,242.3425,53.0,81.0
814,241.9275,242.35625000000002,60.0,82.0
815,242.5275,242.715,55.0,78.0
816,242.5275,242.935,60.0,80.0
817,242.82750000000001,243.07625000000002,55.0,72.0
818,243.1275,243.32750000000001,60.0,74.0
819,243.4275,243.54375000000002,55.0,78.0
820,243.7275,243.84375,55.0,82.0
821,243.7275,244.06875,64.0,83.0
822,244.0275,244.185,55.0,80.0
823,242.5275,244.32375000000002,48.0,81.0
824,244.32750000000001,244.50125,60.0,79.0
825,244.6275,244.6875,60.0,57.0
826,244.6275,244.79875,55.0,75.0
827,244.9275,245.2675,58.0,83.0
828,245.2275,245.4425,53.0,73.0
829,245.5275,245.70125000000002,62.0,72.0
830,245.82750000000001,246.01125000000002,53.0,66.0
831,246.1275,246.43125,58.0,82.0
832,246.1275,246.54125000000002,65.0,80.0
833,246.4275,246.63500000000002,53.0,76.0
834,244.9275,246.83125,46.0,81.0
835,246.7275,247.11375,62.0,81.0
836,247.0275,247.22,53.0,82.0
837,247.32750000000001,247.62125,53.0,77.0
838,247.32750000000001,247.705,57.0,80.0
839,247.9275,248.07875,60.0,82.0
840,248.2275,248.3325,53.0,77.0
841,247.6275,248.63625000000002,48.0,64.0
842,248.5275,248.97,53.0,86.0
843,248.5275,248.99375,65.0,81.0
844,248.82750000000001,249.25625,48.0,78.0
845,249.1275,249.26375000000002,57.0,79.0
846,249.1275,249.31125,60.0,82.0
847,247.32750000000001,249.33125,41.0,82.0
848,249.4275,249.52125,53.0,82.0
849,249.7275,250.375,58.0,85.0
850,250.0275,250.445,46.0,67.0
851,250.32750000000001,250.6875,55.0,81.0
852,250.9275,251.23125000000002,58.0,87.0
853,250.9275,251.25875,63.0,88.0
854,250.6275,251.38750000000002,46.0,68.0
855,251.2275,251.39625,55.0,82.0
856,249.7275,251.4275,39.0,79.0
857,251.5275,251.82,58.0,83.0
858,251.82750000000001,251.95250000000001,55.0,81.0
859,252.1275,252.5275,62.0,79.0
860,252.4275,252.745,57.0,76.0
861,252.7275,253.05125,62.0,75.0
862,253.0275,253.13125,57.0,72.0
863,253.32750000000001,253.4775,57.0,81.0
864,253.32750000000001,253.67875,65.0,79.0
865,253.32750000000001,253.6875,62.0,82.0
866,252.1275,253.7425,50.0,76.0
867,253.6275,253.7575,57.0,67.0
868,253.9275,254.01250000000002,57.0,77.0
869,253.9275,254.1425,62.0,78.0
870,254.2275,254.3325,57.0,69.0
871,254.5275,254.70125000000002,55.0,79.0
872,254.5275,254.88,60.0,76.0
873,254.82750000000001,255.00125,55.0,69.0
874,255.1275,255.2675,60.0,69.0
875,255.4275,255.5175,55.0,73.0
876,255.7275,255.84375,55.0,84.0
877,254.5275,255.89375,48.0,86.0
878,255.7275,255.94,64.0,82.0
879,256.02750000000003,256.165,55.0,73.0
880,256.3275,256.6925,60.0,81.0
881,256.6275,256.83125,55.0,73.0
882,256.9275,257.03375,36.0,77.0
883,256.9275,257.05875000000003,55.0,77.0
884,256.9275,257.22625,60.0,78.0
885,257.2275,257.3975,55.0,70.0
886,257.52750000000003,257.6425,60.0,66.0
887,258.1275,258.2725,55.0,81.0
888,258.4275,258.70625,55.0,60.0
889,258.1275,258.71,64.0,81.0
890,258.7275,259.27750000000003,60.0,70.0
891,258.1275,259.28375,48.0,74.0
892,259.3275,259.46500000000003,57.0,71.0
893,259.3275,259.5425,65.0,81.0
894,259.3275,259.61625,50.0,85.0
895,259.6275,259.7375,62.0,75.0
896,259.6275,259.7425,57.0,72.0
897,259.9275,260.0,57.0,54.0
898,259.9275,260.0125,62.0,65.0
899,260.2275,260.3275,57.0,78.0
900,260.2275,260.34875,65.0,83.0
901,260.8275,260.91125,57.0,60.0
902,260.8275,260.92125,62.0,69.0
903,261.1275,261.22375,50.0,88.0
904,261.1275,261.245,57.0,76.0
905,261.1275,261.24625000000003,62.0,77.0
906,261.4275,261.52625,57.0,69.0
907,261.7275,261.85375,58.0,68.0
908,261.7275,261.9075,62.0,77.0
909,262.02750000000003,262.10125,62.0,67.0
910,262.02750000000003,262.10375,58.0,63.0
911,262.3275,262.395,58.0,58.0
912,262.3275,262.4125,62.0,70.0
913,262.6275,263.00625,65.0,83.0
914,262.6275,263.0325,58.0,80.0
915,263.2275,263.32875,58.0,75.0
916,263.2275,263.34250000000003,62.0,77.0
917,261.7275,263.35125,46.0,84.0
918,263.52750000000003,263.6425,58.0,80.0
919,263.52750000000003,263.71625,62.0,81.0
920,264.1275,264.26,55.0,77.0
921,264.1275,264.42125,60.0,79.0
922,264.4275,264.505,55.0,77.0
923,264.7275,264.81625,55.0,73.0
924,264.7275,264.8175,64.0,79.0
925,264.1275,265.1475,48.0,83.0
926,265.02750000000003,265.15250000000003,55.0,83.0
927,265.02750000000003,265.16125,64.0,87.0
928,265.6275,265.82875,55.0,77.0
929,265.6275,265.85375,60.0,81.0
930,265.3275,266.28875,48.0,78.0
931,266.2275,266.3325,55.0,79.0
932,266.2275,266.3575,60.0,82.0
933,266.52750000000003,266.6875,57.0,75.0
934,266.52750000000003,266.86875,62.0,75.0
935,266.8275,266.91125,57.0,66.0
936,267.1275,267.21750000000003,57.0,73.0
937,267.1275,267.21875,65.0,79.0
938,267.4275,267.58625,57.0,81.0
939,266.52750000000003,267.61375,50.0,87.0
940,267.4275,267.81875,65.0,81.0
941,267.7275,268.2025,50.0,80.0
942,268.02750000000003,268.47375,57.0,74.0
943,268.02750000000003,268.495,62.0,80.0
944,268.6275,268.83875,57.0,75.0
945,268.6275,268.84250000000003,64.0,81.0
946,268.3275,268.925,50.0,81.0
947,268.9275,269.065,57.0,71.0
948,268.9275,269.1425,65.0,81.0
949,268.9275,269.21625,50.0,85.0
950,269.2275,269.3375,62.0,75.0
951,269.2275,269.34250000000003,57.0,72.0
952,269.52750000000003,269.6,57.0,54.0
953,269.52750000000003,269.6125,62.0,65.0
954,269.8275,269.9275,57.0,78.0
955,269.8275,269.94875,65.0,83.0
956,270.4275,270.51125,57.0,60.0
957,270.4275,270.52125,62.0,69.0
958,270.7275,270.82375,50.0,88.0
959,270.7275,270.845,57.0,76.0
960,270.7275,270.84625,62.0,77.0
961,271.02750000000003,271.12625,57.0,69.0
962,271.3275,271.45375,58.0,68.0
963,271.3275,271.5075,62.0,77.0
964,271.6275,271.70125,62.0,67.0
965,271.6275,271.70375,58.0,63.0
966,271.9275,271.995,58.0,58.0
967,271.9275,272.0125,62.0,70.0
968,272.2275,272.60625,65.0,83.0
969,272.2275,272.6325,58.0,80.0
970,272.8275,272.92875,58.0,75.0
971,272.8275,272.9425,62.0,77.0
972,271.3275,272.95125,46.0,84.0
973,273.1275,273.2425,58.0,80.0
974,273.1275,273.31625,62.0,81.0
975,273.7275,273.86,55.0,77.0
976,273.7275,274.02125,60.0,79.0
977,274.02750000000003,274.105,55.0,77.0
978,274.3275,274.41625,55.0,73.0
979,274.3275,274.4175,64.0,79.0
980,273.7275,274.7475,48.0,83.0
981,274.6275,274.7525,55.0,83.0
982,274.6275,274.76125,64.0,87.0
983,275.2275,275.42875,55.0,77.0
984,275.2275,275.45375,60.0,81.0
985,274.9275,275.88875,48.0,78.0
986,275.8275,275.9325,55.0,79.0
987,275.8275,275.9575,60.0,82.0
988,276.1275,276.2875,57.0,75.0
989,276.1275,276.46875,62.0,75.0
990,276.4275,276.51125,57.0,66.0
991,276.7275,276.8175,57.0,73.0
992,276.7275,276.81875,65.0,79.0
993,277.02750000000003,277.18625000000003,57.0,81.0
994,276.1275,277.21375,50.0,87.0
995,277.02750000000003,277.41875,65.0,81.0
996,277.3275,277.8025,50.0,80.0
997,277.6275,278.07375,57.0,74.0
998,277.6275,278.095,62.0,80.0
999,278.2275,278.43875,57.0,75.0
1000,278.2275,278.4425,64.0,81.0
1001,277.9275,278.52500000000003,50.0,81.0
1002,278.52750000000003,278.72,57.0,76.0
1003,278.52750000000003,278.895,65.0,79.0
1004,278.8275,278.9575,57.0,70.0
1005,279.1275,279.20125,60.0,73.0
1006,278.52750000000003,279.3,41.0,81.0
1007,279.4275,279.52875,57.0,83.0
1008,279.4275,279.55,65.0,82.0
1009,279.4275,279.58375,41.0,83.0
1010,280.02750000000003,280.1575,57.0,70.0
1011,280.3275,280.5075,41.0,80.0
1012,280.3275,280.5075,60.0,84.0
1013,280.6275,280.70125,57.0,75.0
1014,280.3275,280.71750000000003,65.0,81.0
1015,280.9275,281.0575,55.0,76.0
1016,280.9275,281.21125,60.0,76.0
1017,281.2275,281.365,55.0,75.0
1018,280.9275,281.58750000000003,48.0,82.0
1019,281.52750000000003,281.6425,60.0,74.0
1020,281.8275,281.9475,48.0,95.0
1021,281.8275,281.96375,55.0,75.0
1022,281.8275,282.0025,64.0,81.0
1023,282.4275,282.53125,55.0,77.0
1024,282.7275,282.8325,48.0,81.0
1025,282.7275,282.8475,55.0,82.0
1026,282.7275,282.8525,60.0,81.0
1027,283.3275,283.46750000000003,58.0,76.0
1028,283.3275,283.53125,62.0,81.0
1029,283.6275,283.97,58.0,68.0
1030,283.9275,283.99,62.0,64.0
1031,283.3275,284.02500000000003,46.0,82.0
1032,284.2275,284.40250000000003,58.0,78.0
1033,284.2275,284.41,46.0,85.0
1034,284.2275,284.425,65.0,82.0
1035,284.8275,284.9375,58.0,68.0
1036,285.1275,285.23875,58.0,76.0
1037,285.1275,285.24,46.0,92.0
1038,285.1275,285.34125,62.0,77.0
1039,285.7275,285.8775,57.0,75.0
1040,285.7275,286.00125,60.0,77.0
1041,286.02750000000003,286.1225,57.0,60.0
1042,285.7275,286.43125000000003,41.0,83.0
1043,286.3275,286.4475,60.0,64.0
1044,286.6275,286.93875,57.0,75.0
1045,286.6275,287.09000000000003,65.0,82.0
1046,286.6275,287.40000000000003,41.0,82.0
1047,287.2275,287.595,57.0,78.0
1048,287.2275,287.68875,60.0,84.0
1049,287.52750000000003,287.795,41.0,82.0
1050,287.8275,287.9375,57.0,82.0
1051,288.1275,288.3075,55.0,81.0
1052,288.1275,288.45,58.0,76.0
1053,288.4275,288.54125,55.0,71.0
1054,288.1275,288.57375,39.0,88.0
1055,288.7275,288.84250000000003,58.0,66.0
1056,289.02750000000003,289.3825,55.0,84.0
1057,289.02750000000003,289.475,58.0,82.0
1058,289.02750000000003,289.555,63.0,82.0
1059,289.6275,289.77375,55.0,77.0
1060,289.9275,290.0425,55.0,81.0
1061,289.9275,290.0575,46.0,78.0
1062,289.9275,290.1125,58.0,87.0
1063,289.9275,290.28000000000003,63.0,81.0
1064,290.2275,290.3,55.0,73.0
1065,290.52750000000003,290.7,57.0,71.0
1066,290.52750000000003,290.90375,62.0,74.0
1067,290.8275,291.07125,57.0,69.0
1068,291.1275,291.21750000000003,62.0,73.0
1069,290.52750000000003,291.43,50.0,82.0
1070,291.4275,291.5225,57.0,82.0
1071,291.4275,291.5325,65.0,82.0
1072,292.02750000000003,292.1325,57.0,76.0
1073,292.3275,292.40500000000003,57.0,80.0
1074,292.3275,292.4275,50.0,84.0
1075,292.3275,292.49,62.0,82.0
1076,292.6275,292.7475,57.0,81.0
1077,292.9275,293.05375,55.0,81.0
1078,292.9275,293.19125,60.0,79.0
1079,293.2275,293.305,55.0,73.0
1080,293.52750000000003,293.59250000000003,64.0,77.0
1081,293.52750000000003,293.5975,55.0,76.0
1082,292.9275,293.96125,48.0,84.0
1083,293.8275,293.98,55.0,87.0
1084,293.8275,293.98625,64.0,82.0
1085,294.4275,294.6325,55.0,81.0
1086,294.4275,294.6825,60.0,83.0
1087,295.3275,295.49375000000003,55.0,82.0
1088,295.3275,295.62125000000003,60.0,82.0
1089,295.6275,295.7,55.0,73.0
1090,295.9275,295.97875,64.0,71.0
1091,295.9275,296.0175,55.0,81.0
1092,295.3275,296.34625,48.0,88.0
1093,296.2275,296.58125,64.0,88.0
1094,296.2275,296.59250000000003,55.0,88.0
1095,296.52750000000003,297.02750000000003,48.0,86.0
1096,296.8275,297.03875,55.0,82.0
1097,296.8275,297.49,60.0,85.0
1098,297.4275,297.6225,55.0,85.0
1099,297.1275,297.66375,48.0,86.0
1100,297.7275,297.8725,53.0,81.0
1101,297.7275,298.015,65.0,82.0
1102,298.02750000000003,298.18875,53.0,80.0
1103,298.6275,298.76375,62.0,81.0
1104,298.6275,298.76875,53.0,79.0
1105,297.7275,298.78625,46.0,90.0
1106,299.2275,299.3625,53.0,69.0
1107,299.52750000000003,299.6375,46.0,95.0
1108,299.52750000000003,299.69375,53.0,82.0
1109,299.52750000000003,299.8325,58.0,83.0
1110,299.8275,299.9225,53.0,74.0
1111,300.1275,300.3075,53.0,80.0
1112,300.1275,300.315,57.0,86.0
1113,300.7275,300.76375,60.0,64.0
1114,300.7275,300.80125,57.0,69.0
1115,300.7275,300.80375,65.0,74.0
1116,301.02750000000003,301.16875,57.0,81.0
1117,301.02750000000003,301.18625000000003,60.0,83.0
1118,301.02750000000003,301.21250000000003,65.0,81.0
1119,301.6275,301.70375,57.0,65.0
1120,301.9275,302.02875,57.0,78.0
1121,301.9275,302.04125,60.0,85.0
1122,300.1275,302.16,41.0,82.0
1123,301.3275,302.16,48.0,71.0
1124,301.9275,302.18875,65.0,81.0
1125,302.52750000000003,302.725,53.0,77.0
1126,302.52750000000003,302.7825,58.0,77.0
1127,303.1275,303.22125,58.0,70.0
1128,303.1275,303.24,65.0,72.0
1129,302.52750000000003,303.59250000000003,46.0,83.0
1130,303.4275,303.59875,58.0,88.0
1131,303.4275,303.695,65.0,86.0
1132,304.02750000000003,304.16875,58.0,61.0
1133,304.3275,304.46500000000003,58.0,72.0
1134,304.3275,304.49375000000003,46.0,82.0
1135,304.3275,304.69,62.0,78.0
1136,304.9275,305.11625,57.0,71.0
1137,304.9275,305.2575,60.0,74.0
1138,305.2275,305.3025,57.0,64.0
1139,305.52750000000003,305.6,60.0,72.0
1140,305.52750000000003,305.6325,65.0,75.0
1141,305.8275,306.06375,60.0,83.0
1142,305.8275,306.135,65.0,83.0
1143,306.4275,306.5575,57.0,57.0
1144,304.9275,306.63375,41.0,81.0
1145,306.7275,306.82125,60.0,80.0
1146,306.7275,306.83625,57.0,81.0
1147,306.7275,306.85375,65.0,78.0
1148,307.3275,307.54625,63.0,80.0
1149,307.3275,307.60875,58.0,81.0
1150,307.6275,307.7675,55.0,70.0
1151,307.9275,307.995,63.0,71.0
1152,307.9275,308.02625,58.0,72.0
1153,307.3275,308.36,39.0,80.0
1154,308.2275,308.3775,58.0,90.0
1155,308.2275,308.4225,63.0,83.0
1156,308.52750000000003,308.65250000000003,55.0,79.0
1157,308.8275,308.95375,58.0,83.0
1158,309.1275,309.2375,55.0,77.0
1159,309.1275,309.2475,39.0,83.0
1160,309.1275,309.3225,58.0,84.0
1161,309.1275,309.35625,63.0,81.0
1162,309.7275,309.895,57.0,72.0
1163,309.7275,310.105,62.0,77.0
1164,310.02750000000003,310.11625,57.0,69.0
1165,310.3275,310.415,57.0,77.0
1166,310.3275,310.4175,65.0,77.0
1167,309.7275,310.75125,50.0,84.0
1168,310.6275,310.7525,57.0,83.0
1169,310.6275,310.7525,65.0,84.0
1170,311.2275,311.38375,57.0,63.0
1171,311.52750000000003,311.65250000000003,57.0,79.0
1172,311.52750000000003,311.67875,50.0,85.0
1173,311.52750000000003,311.71250000000003,65.0,80.0
1174,311.52750000000003,311.735,62.0,81.0
1175,311.8275,311.91,57.0,68.0
1176,312.1275,312.45,64.0,77.0
1177,312.1275,312.4825,60.0,74.0
1178,312.4275,312.54375,55.0,55.0
1179,312.7275,312.89,55.0,85.0
1180,312.7275,313.12125000000003,60.0,84.0
1181,313.02750000000003,313.165,55.0,70.0
1182,313.3275,313.505,55.0,82.0
1183,313.3275,313.63625,64.0,83.0
1184,313.6275,313.82875,55.0,76.0
1185,313.9275,314.1025,55.0,82.0
1186,313.9275,314.2,60.0,82.0
1187,314.2275,314.3475,55.0,68.0
1188,312.1275,314.38625,48.0,82.0
1189,314.52750000000003,314.6725,55.0,81.0
1190,314.52750000000003,314.76875,60.0,83.0
1191,314.8275,314.90625,55.0,70.0
1192,315.1275,315.16875,60.0,50.0
1193,314.52750000000003,315.54875,48.0,95.0
1194,315.4275,315.67125,55.0,83.0
1195,315.4275,315.755,60.0,84.0
1196,315.4275,315.7675,64.0,84.0
1197,316.02750000000003,316.1625,55.0,79.0
1198,316.3275,316.41625,55.0,77.0
1199,315.7275,316.6875,48.0,79.0
1200,316.3275,316.72625,62.0,81.0
1201,316.6275,316.82625,55.0,82.0
1202,316.9275,318.12,55.0,80.0
1203,316.9275,318.1475,48.0,86.0
1204,316.9275,318.18125000000003,60.0,83.0
1205,326.8275,327.27125,57.0,69.0
1206,327.1275,327.75875,62.0,81.0
1207,327.4275,327.83625,57.0,67.0
1208,328.02750000000003,328.3775,57.0,62.0
1209,327.7275,328.4125,64.0,82.0
1210,326.52750000000003,328.7925,50.0,84.0
1211,328.3275,329.0575,62.0,81.0
1212,328.6275,329.07625,57.0,66.0
1213,329.2275,329.6225,57.0,69.0
1214,328.9275,329.92875,69.0,65.0
1215,329.52750000000003,330.21,62.0,75.0
1216,329.8275,330.21500000000003,57.0,63.0
1217,330.4275,330.7225,57.0,63.0
1218,330.1275,330.78125,64.0,80.0
1219,328.9275,331.0625,48.0,82.0
1220,331.02750000000003,331.54375,57.0,69.0
1221,330.7275,331.54375,62.0,81.0
1222,331.6275,332.00375,57.0,71.0
1223,331.3275,332.5575,69.0,68.0
1224,331.9275,332.59125,62.0,78.0
1225,332.2275,332.59875,57.0,66.0
1226,332.8275,333.17375,57.0,66.0
1227,332.52750000000003,333.19375,64.0,81.0
1228,331.3275,333.54875,46.0,77.0
1229,333.4275,333.72625,57.0,67.0
1230,333.1275,333.79125,62.0,81.0
1231,334.02750000000003,334.41,57.0,77.0
1232,334.3275,334.80625000000003,62.0,77.0
1233,334.6275,334.9825,57.0,77.0
1234,333.7275,335.4825,50.0,84.0
1235,334.9275,335.59125,64.0,81.0
1236,335.2275,335.62875,57.0,76.0
1237,335.52750000000003,336.05,62.0,82.0
1238,335.8275,336.06375,57.0,78.0
1239,336.4275,336.87125000000003,57.0,69.0
1240,336.7275,337.35875,62.0,81.0
1241,337.02750000000003,337.43625000000003,57.0,67.0
1242,337.6275,337.9775,57.0,62.0
1243,337.3275,338.0125,64.0,82.0
1244,336.1275,338.3925,50.0,84.0
1245,337.9275,338.6575,62.0,81.0
1246,338.2275,338.67625,57.0,66.0
1247,338.8275,339.2225,57.0,69.0
1248,338.52750000000003,339.52875,69.0,65.0
1249,339.1275,339.81,62.0,75.0
1250,339.4275,339.815,57.0,63.0
1251,340.02750000000003,340.3225,57.0,63.0
1252,339.7275,340.38125,64.0,80.0
1253,338.52750000000003,340.6625,48.0,82.0
1254,340.6275,341.14375,57.0,69.0
1255,340.3275,341.14375,62.0,81.0
1256,341.2275,341.60375,57.0,71.0
1257,340.9275,342.1575,69.0,68.0
1258,341.52750000000003,342.19125,62.0,78.0
1259,341.8275,342.19875,57.0,66.0
1260,342.4275,342.77375,57.0,66.0
1261,342.1275,342.79375,64.0,81.0
1262,340.9275,343.14875,46.0,77.0
1263,343.02750000000003,343.32625,57.0,67.0
1264,342.7275,343.39125,62.0,81.0
1265,343.6275,344.01,57.0,77.0
1266,343.9275,344.40625,62.0,77.0
1267,344.2275,344.5825,57.0,77.0
1268,343.3275,345.0825,50.0,84.0
1269,344.52750000000003,345.19125,64.0,81.0
1270,344.8275,345.22875,57.0,76.0
1271,345.1275,345.65000000000003,62.0,82.0
1272,345.4275,345.66375,57.0,78.0
1273,346.02750000000003,346.3775,57.0,81.0
1274,346.3275,346.675,62.0,74.0
1275,346.6275,346.995,57.0,69.0
1276,346.9275,347.4825,64.0,83.0
1277,347.2275,347.55375,57.0,76.0
1278,345.7275,347.70625,50.0,85.0
1279,347.52750000000003,348.21125,62.0,75.0
1280,347.8275,348.22875,57.0,76.0
1281,348.4275,348.73125,57.0,72.0
1282,348.7275,349.09375,62.0,76.0
1283,349.3275,349.79875,64.0,81.0
1284,349.6275,349.96125,57.0,75.0
1285,349.9275,350.35875,62.0,81.0
1286,348.1275,350.395,50.0,79.0
1287,350.2275,350.585,57.0,82.0
1288,350.8275,351.17375,57.0,77.0
1289,351.1275,351.48625,62.0,81.0
1290,351.4275,351.8075,57.0,66.0
1291,351.7275,352.30125,64.0,82.0
1292,352.02750000000003,352.34250000000003,57.0,69.0
1293,350.52750000000003,352.66375,48.0,81.0
1294,352.6275,353.045,57.0,69.0
1295,352.3275,353.075,62.0,73.0
1296,353.2275,353.5525,57.0,74.0
1297,353.52750000000003,353.72125,62.0,74.0
1298,353.8275,354.05375,57.0,67.0
1299,352.9275,354.49125,48.0,82.0
1300,354.1275,354.5575,64.0,82.0
1301,354.4275,354.78125,57.0,72.0
1302,354.7275,355.12,62.0,76.0
1303,355.02750000000003,355.29375,57.0,75.0
1304,355.6275,355.98,58.0,72.0
1305,355.9275,356.59625,62.0,74.0
1306,356.2275,356.63,58.0,61.0
1307,356.52750000000003,356.88,65.0,82.0
1308,356.8275,357.13875,58.0,70.0
1309,355.3275,357.53625,46.0,81.0
1310,357.1275,357.6725,62.0,77.0
1311,357.4275,357.795,58.0,69.0
1312,358.0,358.35,58.0,75.0
1313,358.31625,358.75,62.0,82.0
1314,358.62625,358.9975,58.0,69.0
1315,358.955,359.57,65.0,83.0
1316,359.2575,359.605,58.0,70.0
1317,357.71375,359.745,46.0,79.0
1318,359.86,360.17875,58.0,66.0
1319,359.585,360.25375,62.0,76.0
1320,360.80125,361.54,57.0,72.0
1321,360.49,361.54375,45.0,63.0
1322,360.14875,361.6075,38.0,83.0
1323,361.15250000000003,361.6175,62.0,73.0
1324,362.04,362.195,57.0,75.0
1325,361.53875,362.24625000000003,65.0,78.0
1326,362.69625,363.76875,57.0,61.0
1327,362.4925,363.81875,50.0,57.0
1328,362.7075,364.37125000000003,62.0,60.0
1329,362.78000000000003,364.3825,65.0,53.0
1330,362.89125,364.41875,74.0,61.0
