,start,end,pitch,velocity
0,22.910172841666668,23.123940658333336,66.0,61.0
1,23.127563841666667,23.993504658333336,73.0,87.0
2,23.997127841666668,24.422877912500002,73.0,90.0
3,24.426449337500003,24.637163412500005,78.0,83.0
4,24.640734837500002,25.708590912500004,71.0,79.0
5,25.712162337500004,26.137161912500005,69.0,86.0
6,26.140733337500002,26.565732912500003,68.0,79.0
7,26.569304337500004,26.994303912500005,69.0,94.0
8,26.997875337500005,27.422874912500003,68.0,93.0
9,27.426446337500003,27.851445912500004,66.0,68.0
10,27.855017337500005,28.065731412500003,64.0,66.0
11,28.069302837500004,28.280016912500002,66.0,66.0
12,28.283588337500003,29.137158912500006,66.0,86.0
13,29.140730337500003,29.565729912500004,69.0,99.0
14,29.569301337500004,29.994300912500005,71.0,83.0
15,29.997872337500006,30.422871912500003,73.0,97.0
16,30.426443337500004,30.851442912500005,71.0,91.0
17,30.855014337500005,31.280013912500003,71.0,91.0
18,31.283585337500003,31.708584912500005,69.0,79.0
19,31.712156337500005,32.137155912500006,68.0,98.0
20,32.1407273375,32.9942979125,66.0,77.0
21,32.997869337500006,33.42286891250001,64.0,95.0
22,33.426440337500004,35.9942949125,73.0,103.0
23,35.998759193750004,36.423758768750005,69.0,91.0
24,36.42733019375001,36.85232976875,71.0,77.0
25,36.85590119375001,37.70947176875001,73.0,95.0
26,37.71304319375,38.138042768750005,71.0,96.0
27,38.14161419375,38.56661376875,69.0,89.0
28,38.57018519375001,39.423755768750006,71.0,100.0
29,39.42732719375,39.852326768750004,68.0,97.0
30,39.85589819375001,40.28089776875001,69.0,91.0
31,40.284469193750006,40.70946876875001,71.0,86.0
32,40.713040193750004,41.138039768750005,73.0,86.0
33,41.14161119375001,41.56661076875001,71.0,90.0
34,41.57018219375001,41.99518176875,64.0,87.0
35,41.998753193750005,42.85143091250001,66.0,87.0
36,42.85500233750001,43.280001912500005,66.0,84.0
37,43.2835733375,43.7085729125,68.0,83.0
38,43.71214433750001,44.35142941250001,69.0,90.0
39,44.35500083750001,44.565714912500006,69.0,93.0
40,44.5692863375,44.994285912500004,71.0,84.0
41,44.99785733750001,45.42285691250001,69.0,93.0
42,45.426428337500006,45.85142791250001,68.0,96.0
43,45.854999337500004,46.279998912500005,66.0,91.0
44,46.28357033750001,46.70856991250001,64.0,80.0
45,46.71214133750001,47.1371409125,66.0,84.0
46,47.140712337500005,50.35142341250001,66.0,91.0
47,50.35499483750001,50.56570891250001,66.0,85.0
48,50.569280337500004,51.42285091250001,73.0,97.0
49,51.42642233750001,51.85142191250001,73.0,97.0
50,51.854993337500005,52.065707412500004,78.0,87.0
51,52.06927883750001,53.1371349125,71.0,98.0
52,53.140706337500006,53.56570591250001,69.0,97.0
53,53.56927733750001,53.99427691250001,68.0,91.0
54,53.9978483375,54.4228479125,69.0,95.0
55,54.42641933750001,54.85141891250001,68.0,67.0
56,54.85499033750001,55.27998991250001,66.0,85.0
57,55.283561337500004,55.708560912500005,64.0,96.0
58,55.71213233750001,56.5657029125,66.0,96.0
59,56.569274337500005,56.994273912500006,69.0,100.0
60,56.99784533750001,57.42284491250001,71.0,91.0
61,57.4264163375,57.8514159125,73.0,90.0
62,57.854987337500006,58.27998691250001,71.0,90.0
63,58.28355833750001,58.70855791250001,71.0,90.0
64,58.7121293375,59.1371289125,69.0,77.0
65,59.14070033750001,59.56569991250001,68.0,84.0
66,59.56927133750001,59.99427091250001,66.0,71.0
67,59.9978423375,60.422841912500004,64.0,84.0
68,60.42641333750001,60.85141291250001,73.0,87.0
69,60.854984337500014,63.42283891250001,73.0,103.0
70,63.4264103375,63.8514099125,69.0,98.0
71,63.85498133750001,64.27998091250001,71.0,90.0
72,64.28355233750001,65.1371229125,73.0,97.0
73,65.14069433750001,65.56569391250001,71.0,97.0
74,65.56926533750001,65.99426491250001,69.0,89.0
75,65.9978363375,66.85140691250001,71.0,97.0
76,66.85497833750001,67.27997791250002,68.0,90.0
77,67.2835493375,67.7085489125,69.0,87.0
78,67.71212033750001,68.13711991250001,71.0,91.0
79,68.14069133750002,68.5656909125,73.0,84.0
80,68.5692623375,68.99426191250001,71.0,79.0
81,68.99783333750001,69.42283291250001,64.0,64.0
82,69.4264043375,70.27997491250001,66.0,91.0
83,70.28354633750001,70.70854591250001,66.0,98.0
84,70.7121173375,71.1371169125,68.0,85.0
85,71.14068833750001,71.77997341250001,69.0,93.0
86,71.7835448375,71.99425891250002,69.0,97.0
87,71.9978303375,72.4228299125,71.0,81.0
88,72.42640133750001,72.85140091250001,69.0,94.0
89,72.85497233750002,73.27997191250002,68.0,97.0
90,73.2835433375,73.70854291250001,66.0,85.0
91,73.71211433750001,74.13711391250001,64.0,90.0
92,74.14068533750002,74.99425591250001,66.0,92.0
93,74.99782733750001,77.56568191250001,66.0,92.0
94,77.56925333750002,77.99425291250002,73.0,100.0
95,77.9978243375,78.85139491250001,78.0,97.0
96,78.85496633750002,79.27996591250002,78.0,98.0
97,79.28353733750001,79.70853691250001,76.0,85.0
98,79.71210833750001,80.13710791250001,71.0,86.0
99,80.14067933750002,80.5656789125,73.0,66.0
100,80.56925033750001,80.99424991250001,76.0,76.0
101,80.99782133750001,81.42282091250001,73.0,91.0
102,81.4263923375,81.8513919125,66.0,90.0
103,81.85496333750001,82.27996291250001,78.0,101.0
104,82.28353433750001,82.9228194125,76.0,91.0
105,82.92639083750001,83.1371049125,71.0,74.0
106,83.14067633750001,84.42281791250001,73.0,96.0
107,84.42638933750001,84.63710341250001,73.0,99.0
108,84.64067483750001,84.85138891250001,71.0,97.0
109,84.85496033750002,85.4942454125,69.0,96.0
110,85.49781683750001,85.70853091250001,69.0,90.0
111,85.71210233750001,86.13710191250001,69.0,94.0
112,86.14067333750002,86.5656729125,66.0,85.0
113,86.56924433750001,86.99424391250001,73.0,95.0
114,86.99781533750001,88.06567141250001,71.0,99.0
115,88.06924283750001,88.27995691250001,66.0,85.0
116,88.28352833750002,88.92281341250002,78.0,90.0
117,88.92638483750001,89.13709891250002,76.0,93.0
118,89.14067033750001,89.56566991250001,78.0,89.0
119,89.56924133750002,89.99424091250002,76.0,93.0
120,89.99781233750002,91.27995391250002,73.0,99.0
121,91.28352533750001,91.70852491250001,73.0,106.0
122,91.71209633750001,92.35138141250002,78.0,96.0
123,92.35495283750002,92.56566691250002,78.0,97.0
124,92.56923833750001,92.99423791250001,78.0,98.0
125,92.99780933750002,93.42280891250002,73.0,97.0
126,93.42638033750002,94.06566541250001,71.0,98.0
127,94.06923683750001,94.27995091250001,73.0,98.0
128,94.28352233750002,94.70852191250002,76.0,105.0
129,94.71209333750002,95.13709291250002,73.0,105.0
130,95.14066433750001,95.56566391250001,66.0,93.0
131,95.56923533750002,95.99423491250002,78.0,90.0
132,95.99780633750002,96.42280591250001,78.0,94.0
133,96.42637733750001,96.85137691250002,76.0,100.0
134,96.85494833750002,98.13708991250002,73.0,98.0
135,98.14066133750002,98.35137541250002,73.0,98.0
136,98.35494683750002,98.56566091250002,71.0,97.0
137,98.56923233750001,99.20851741250002,69.0,101.0
138,99.21208883750002,99.42280291250002,69.0,106.0
139,99.42637433750002,99.85137391250002,69.0,100.0
140,99.85494533750001,100.27994491250001,66.0,96.0
141,100.28351633750002,100.92280141250002,71.0,106.0
142,100.92637283750001,101.13708691250002,73.0,111.0
143,101.14065833750001,101.56565791250001,73.0,95.0
144,101.56922933750002,101.99422891250002,71.0,105.0
145,101.99780033750002,102.42279991250001,66.0,96.0
146,102.42637133750002,102.85137091250002,69.0,90.0
147,102.85494233750002,103.27994191250002,69.0,101.0
148,103.28351333750001,103.70851291250001,73.0,109.0
149,103.71208433750002,106.06565341250001,73.0,111.0
150,106.06922483750002,106.27993891250001,61.0,81.0
151,106.28351033750002,106.70850991250002,69.0,91.0
152,106.71208133750002,107.13708091250002,68.0,96.0
153,107.14065233750001,107.56565191250002,64.0,100.0
154,107.56922333750002,109.56118563125001,66.0,98.0
155,142.92633083750002,143.13704491250002,66.0,61.0
156,143.1406163375,143.99418691250003,73.0,87.0
157,143.99775833750002,144.4227579125,73.0,90.0
158,144.42632933750002,144.63704341250002,78.0,83.0
159,144.6406148375,145.70847091250002,71.0,79.0
160,145.7120423375,146.13704191250002,69.0,86.0
161,146.1406133375,146.56561291250003,68.0,79.0
162,146.56918433750002,146.9941839125,69.0,94.0
163,146.99775533750002,147.4227549125,68.0,93.0
164,147.42632633750003,147.85132591250002,66.0,68.0
165,147.8548973375,148.0656114125,64.0,66.0
166,148.06918283750002,148.27989691250002,66.0,66.0
167,148.2834683375,149.1370389125,66.0,86.0
168,149.14061033750002,149.5656099125,69.0,99.0
169,149.56918133750003,149.9941809125,71.0,83.0
170,149.9977523375,150.42275191250002,73.0,97.0
171,150.4263233375,150.85132291250002,71.0,91.0
172,150.8548943375,151.27989391250003,71.0,91.0
173,151.28346533750002,151.7084649125,69.0,79.0
174,151.71203633750002,152.35132141250003,68.0,98.0
175,152.35489283750002,152.56560691250002,66.0,77.0
176,152.56917833750003,152.99417791250002,64.0,95.0
177,152.9977493375,153.42274891250003,73.0,103.0
178,153.42632033750002,155.99417491250003,73.0,103.0
179,155.99774633750002,156.42274591250003,69.0,91.0
180,156.42631733750002,156.8513169125,71.0,77.0
181,156.85488833750003,157.70845891250002,73.0,95.0
182,157.7120303375,158.13702991250003,71.0,96.0
183,158.14060133750002,158.3513154125,69.0,89.0
184,158.35488683750003,158.56560091250003,71.0,89.0
185,158.57631518750003,159.4227429125,71.0,100.0
186,159.42631433750003,159.85131391250002,68.0,97.0
187,159.85488533750004,160.27988491250002,69.0,91.0
188,160.2834563375,160.70845591250003,71.0,86.0
189,160.71202733750002,161.13702691250003,73.0,86.0
190,161.14059833750002,161.56559791250004,71.0,90.0
191,161.56916933750003,161.99416891250002,64.0,87.0
192,161.99774033750003,162.85131091250003,66.0,87.0
193,162.85488233750002,163.27988191250003,66.0,84.0
194,163.28345333750002,163.70845291250004,68.0,83.0
195,163.71202433750003,164.35130941250003,69.0,90.0
196,164.35488083750002,164.56559491250002,69.0,93.0
197,164.56916633750004,164.99416591250002,71.0,84.0
198,164.9977373375,165.42273691250003,69.0,93.0
199,165.42630833750002,165.85130791250003,68.0,96.0
200,165.85487933750002,166.27987891250004,66.0,91.0
201,166.28345033750003,166.70844991250001,64.0,80.0
202,166.71202133750003,167.56559191250003,66.0,84.0
203,167.56916333750002,170.13701791250003,66.0,91.0
204,170.14058933750002,170.56558891250003,73.0,100.0
205,170.56916033750002,171.42273091250001,78.0,97.0
206,171.42630233750003,171.85130191250002,78.0,98.0
207,171.85487333750004,172.27987291250002,76.0,85.0
208,172.28344433750001,172.92272941250002,71.0,86.0
209,172.92630083750004,173.24415766250002,73.0,66.0
210,173.24772908750003,173.56558591250004,76.0,76.0
211,173.56915733750003,173.99415691250002,73.0,91.0
212,173.99772833750004,174.42272791250002,66.0,90.0
213,174.42629933750004,174.85129891250003,78.0,101.0
214,174.85487033750002,175.49415541250002,76.0,91.0
215,175.49772683750004,175.70844091250004,71.0,74.0
216,175.71201233750003,176.99415391250002,73.0,96.0
217,176.99772533750001,177.2084394125,73.0,99.0
218,177.21201083750003,177.42272491250003,71.0,97.0
219,177.42629633750002,178.06558141250002,69.0,96.0
220,178.0691528375,178.27986691250004,69.0,90.0
221,178.28343833750003,178.70843791250002,69.0,94.0
222,178.71200933750004,179.13700891250002,66.0,85.0
223,179.14058033750004,179.56557991250003,73.0,95.0
224,179.56915133750002,180.63700741250003,71.0,99.0
225,180.64057883750002,180.8512929125,66.0,85.0
226,180.85486433750003,181.49414941250004,78.0,90.0
227,181.49772083750003,181.70843491250002,76.0,93.0
228,181.71200633750001,182.13700591250003,78.0,89.0
229,182.14057733750002,182.56557691250003,76.0,93.0
230,182.56914833750002,183.85128991250002,73.0,99.0
231,183.85486133750004,184.27986091250003,73.0,106.0
232,184.28343233750002,184.92271741250002,78.0,96.0
233,184.92628883750004,185.13700291250004,78.0,97.0
234,185.14057433750003,185.56557391250004,78.0,98.0
235,185.56914533750003,185.99414491250002,73.0,97.0
236,185.99771633750004,186.63700141250004,71.0,98.0
237,186.64057283750003,186.85128691250003,73.0,98.0
238,186.85485833750002,187.27985791250003,76.0,105.0
239,187.28342933750002,187.70842891250004,73.0,105.0
240,187.71200033750003,188.13699991250002,66.0,93.0
241,188.14057133750003,188.56557091250002,78.0,90.0
242,188.56914233750004,188.99414191250003,78.0,94.0
243,188.99771333750002,189.42271291250003,76.0,100.0
244,189.42628433750002,190.70842591250002,73.0,98.0
245,190.71199733750004,190.92271141250004,73.0,98.0
246,190.92628283750003,191.13699691250002,71.0,97.0
247,191.14056833750004,191.77985341250002,69.0,101.0
248,191.78342483750004,191.99413891250003,69.0,106.0
249,191.99771033750002,192.42270991250004,69.0,100.0
250,192.42628133750003,192.85128091250002,66.0,96.0
251,192.85485233750003,193.49413741250004,71.0,106.0
252,193.49770883750003,193.70842291250003,73.0,111.0
253,193.71199433750002,194.02985116250002,73.0,95.0
254,194.03342258750004,194.56556491250004,71.0,105.0
255,194.56913633750003,194.99413591250004,66.0,96.0
256,194.99770733750003,195.42270691250002,69.0,90.0
257,195.42627833750004,195.85127791250002,69.0,101.0
258,195.85484933750004,196.27984891250003,73.0,109.0
259,196.28342033750002,198.52984666250003,73.0,111.0
260,198.53341808750002,198.85127491250003,61.0,81.0
261,198.85484633750002,199.17270316250003,69.0,91.0
262,199.17627458750002,199.70841691250004,68.0,96.0
263,199.71198833750003,200.13698791250002,64.0,100.0
264,200.14055933750004,202.70841391250002,66.0,98.0
265,202.71198533750004,203.13698491250003,73.0,100.0
266,203.14055633750004,203.99412691250004,78.0,97.0
267,203.99769833750003,204.42269791250004,78.0,98.0
268,204.42626933750003,204.85126891250002,73.0,85.0
269,204.85484033750004,205.49412541250004,71.0,86.0
270,205.49769683750003,205.70841091250003,73.0,66.0
271,205.71198233750002,206.13698191250003,76.0,76.0
272,206.14055333750002,206.56555291250004,73.0,91.0
273,206.56912433750003,206.99412391250004,66.0,90.0
274,206.99769533750003,207.42269491250002,78.0,101.0
275,207.42626633750004,207.85126591250003,76.0,91.0
276,207.85483733750004,208.27983691250003,71.0,74.0
277,208.28340833750002,209.56554991250002,73.0,96.0
278,209.56912133750004,209.77983541250003,73.0,99.0
279,209.78340683750002,209.99412091250002,71.0,97.0
280,209.99769233750004,210.63697741250004,69.0,96.0
281,210.64054883750003,210.85126291250003,69.0,90.0
282,210.85483433750002,211.27983391250004,69.0,94.0
283,211.28340533750003,211.70840491250004,66.0,85.0
284,211.71197633750003,212.13697591250002,73.0,95.0
285,212.14054733750004,213.20840341250002,71.0,99.0
286,213.21197483750004,213.42268891250004,66.0,85.0
287,213.42626033750003,214.06554541250003,78.0,90.0
288,214.06911683750002,214.27983091250005,76.0,93.0
289,214.28340233750004,214.70840191250002,78.0,89.0
290,214.71197333750004,215.13697291250003,76.0,93.0
291,215.14054433750005,216.42268591250004,73.0,99.0
292,216.42625733750003,216.85125691250002,73.0,106.0
293,216.85482833750004,217.49411341250004,78.0,96.0
294,217.49768483750003,217.70839891250003,78.0,97.0
295,217.71197033750002,218.13696991250004,78.0,98.0
296,218.14054133750003,218.56554091250004,73.0,97.0
297,218.56911233750003,219.20839741250003,71.0,98.0
298,219.21196883750002,219.42268291250002,73.0,98.0
299,219.42625433750004,219.85125391250003,76.0,105.0
300,219.85482533750005,220.27982491250003,73.0,105.0
301,220.28339633750002,220.70839591250004,66.0,93.0
302,220.71196733750003,221.13696691250004,78.0,90.0
303,221.14053833750003,221.56553791250002,78.0,94.0
304,221.56910933750004,221.99410891250002,76.0,100.0
305,221.99768033750004,223.27982191250004,73.0,98.0
306,223.28339333750003,223.49410741250003,73.0,98.0
307,223.49767883750005,223.70839291250005,71.0,97.0
308,223.71196433750004,224.35124941250004,69.0,101.0
309,224.35482083750003,224.56553491250003,69.0,106.0
310,224.56910633750005,224.99410591250003,69.0,100.0
311,224.99767733750002,225.42267691250004,66.0,96.0
312,225.42624833750003,226.06553341250003,71.0,106.0
313,226.06910483750002,226.27981891250005,73.0,111.0
314,226.28339033750004,226.70838991250002,73.0,95.0
315,226.71196133750004,227.13696091250003,71.0,105.0
316,227.14053233750005,227.56553191250003,66.0,96.0
317,227.56910333750002,227.99410291250004,69.0,90.0
318,227.99767433750003,228.42267391250004,69.0,101.0
319,228.42624533750003,228.85124491250002,73.0,109.0
320,228.85481633750004,231.20838541250004,73.0,111.0
321,231.21195683750003,231.42267091250002,61.0,81.0
322,231.42624233750004,231.85124191250003,69.0,91.0
323,231.85481333750005,232.27981291250003,68.0,96.0
324,232.28338433750002,232.70838391250004,64.0,100.0
325,232.71195533750003,235.67088095000003,66.0,98.0
