,start,end,pitch,velocity
0,3.3767823375000003,3.7383891187500007,66.0,48.0
1,2.5196403375000003,3.7776747937500006,54.0,70.0
2,2.9482113375000005,3.9062460937500005,61.0,42.0
3,4.6624953375,5.386601756250001,61.0,49.0
4,5.091066337500001,5.420530293750001,64.0,46.0
5,4.2339243375,6.004458281250001,52.0,69.0
6,6.805350337500001,7.136600006250001,61.0,53.0
7,6.376779337500001,7.185707100000001,57.0,32.0
8,5.9482083375000006,7.254457031250001,50.0,72.0
9,7.662492337500001,8.383027331250002,47.0,73.0
10,8.091063337500001,8.508920062500001,54.0,38.0
11,8.519634337500001,9.082133775,59.0,50.0
12,8.948205337500001,9.379454906250002,61.0,60.0
13,9.162490837500002,9.461597681250002,66.0,60.0
14,9.3767763375,9.528561900000001,68.0,66.0
15,9.3767763375,9.746418825000001,69.0,51.0
16,9.8053473375,10.468739531250002,61.0,44.0
17,10.2339183375,10.662489337500002,66.0,51.0
18,9.3767763375,10.828560600000001,54.0,70.0
19,10.2339183375,10.91695336875,71.0,61.0
20,10.2339183375,10.933024781250001,68.0,60.0
21,10.5553465875,11.008024706250001,61.0,44.0
22,11.091060337500002,11.655345487500002,68.0,70.0
23,11.091060337500002,11.742845400000002,71.0,69.0
24,11.948202337500001,12.229452056250002,66.0,61.0
25,11.7339168375,12.286594856250002,64.0,54.0
26,11.519631337500002,12.2999877,61.0,48.0
27,12.162487837500002,12.332130525000002,68.0,61.0
28,12.376773337500001,12.57588028125,69.0,60.0
29,11.091060337500002,12.743737256250002,52.0,61.0
30,12.591058837500002,12.823201462500002,71.0,57.0
31,12.806237193750002,13.304450981250001,69.0,70.0
32,12.806237193750002,13.320522393750002,66.0,63.0
33,13.233915337500001,13.908021806250002,57.0,38.0
34,13.662486337500003,14.096414475000001,62.0,47.0
35,13.662486337500003,14.126771587500002,64.0,59.0
36,13.662486337500003,14.172307256250003,66.0,58.0
37,13.662486337500003,14.208914362500002,69.0,63.0
38,12.806237193750002,14.247307181250003,50.0,58.0
39,14.091057337500002,14.381235618750003,57.0,42.0
40,14.519628337500002,14.997306431250003,64.0,62.0
41,14.519628337500002,15.171413400000002,69.0,69.0
42,14.948199337500002,15.412484587500002,57.0,54.0
43,15.162484837500003,15.598198687500002,62.0,55.0
44,15.376770337500002,15.614270100000002,64.0,69.0
45,15.376770337500002,15.637484362500002,68.0,82.0
46,14.519628337500002,15.704448581250002,50.0,61.0
47,15.591055837500003,15.841055587500001,57.0,53.0
48,15.805341337500002,15.966055462500002,64.0,62.0
49,15.805341337500002,16.19284095,69.0,66.0
50,16.2339123375,16.362483637500002,65.0,64.0
51,16.2339123375,16.368733631250002,68.0,61.0
52,16.2339123375,16.4017693125,61.0,57.0
53,16.2339123375,16.4142693,49.0,63.0
54,16.662483337500003,16.791054637500004,68.0,69.0
55,16.662483337500003,16.80087605625,65.0,75.0
56,16.662483337500003,16.818733181250003,61.0,66.0
57,16.662483337500003,16.846411725000003,49.0,70.0
58,17.520518193750004,19.066052362500002,68.0,69.0
59,17.520518193750004,19.068730931250002,65.0,70.0
60,17.520518193750004,19.081230918750002,37.0,70.0
61,17.520518193750004,19.08658805625,49.0,63.0
62,19.662480337500003,20.475872381250003,42.0,67.0
63,20.0910513375,20.522300906250003,49.0,44.0
64,19.662480337500003,20.7208643125,61.0,61.0
65,19.662480337500003,20.9817335125,66.0,66.0
66,20.519622337500003,21.007095795833337,54.0,45.0
67,19.662480337500003,21.03517546666667,69.0,69.0
68,21.38843584166667,21.607638433333335,61.0,51.0
69,21.60582684166667,21.863072858333336,66.0,63.0
70,21.82321784166667,21.96452199166667,68.0,62.0
71,22.040608841666668,22.326840325000003,69.0,64.0
72,21.171044841666667,22.727202083333335,57.0,56.0
73,20.953653841666668,22.746223795833334,56.0,54.0
74,23.127563841666667,23.680099300000002,69.0,63.0
75,23.127563841666667,23.709990562500003,61.0,60.0
76,23.127563841666667,23.726294887500003,66.0,63.0
77,23.127563841666667,24.160378175,54.0,54.0
78,23.997127841666668,24.418413631250004,69.0,50.0
79,23.997127841666668,24.434485043750005,66.0,62.0
80,23.997127841666668,24.461270731250004,61.0,57.0
81,24.426449337500003,24.549663500000005,54.0,40.0
82,23.127563841666667,24.567520625000004,42.0,61.0
83,24.855020337500005,25.287162762500003,64.0,58.0
84,24.855020337500005,25.288055618750004,68.0,59.0
85,24.855020337500005,25.330019862500002,59.0,53.0
86,24.855020337500005,25.371091250000003,52.0,47.0
87,25.712162337500004,25.974662075000005,68.0,49.0
88,25.712162337500004,26.027340593750004,64.0,53.0
89,25.712162337500004,26.036269156250004,59.0,56.0
90,25.712162337500004,26.238947525000004,52.0,47.0
91,24.855020337500005,26.246983231250002,40.0,42.0
92,25.283591337500003,26.395197368750004,47.0,47.0
93,26.569304337500004,26.971089650000003,69.0,50.0
94,26.569304337500004,26.997875337500005,61.0,53.0
95,26.569304337500004,27.012161037500004,66.0,54.0
96,26.569304337500004,27.336267856250004,42.0,52.0
97,26.997875337500005,27.415732062500005,49.0,47.0
98,27.427339193750004,27.746088875000005,69.0,40.0
99,27.427339193750004,27.804124531250004,61.0,43.0
100,27.427339193750004,27.840731637500003,66.0,48.0
101,27.427339193750004,27.914838706250002,54.0,44.0
102,27.855017337500005,28.337159712500004,56.0,41.0
103,28.283588337500003,28.676445087500003,69.0,47.0
104,28.283588337500003,28.700552206250002,66.0,55.0
105,28.283588337500003,28.717516475000004,61.0,46.0
106,28.283588337500003,28.952337668750005,57.0,44.0
107,29.140730337500003,29.314837306250006,69.0,69.0
108,29.140730337500003,29.318408731250003,61.0,69.0
109,29.140730337500003,29.330015862500005,66.0,80.0
110,28.712159337500005,29.439837181250006,56.0,48.0
111,29.355015837500005,29.546087075000003,54.0,55.0
112,29.569301337500004,29.736265456250003,61.0,70.0
113,29.783586837500003,29.939836681250004,69.0,66.0
114,29.997872337500006,30.419300487500003,69.0,61.0
115,29.997872337500006,30.436264756250004,61.0,60.0
116,29.997872337500006,30.446086175000005,66.0,66.0
117,30.426443337500004,30.896978581250004,49.0,40.0
118,29.997872337500006,31.004121331250005,42.0,69.0
119,30.855014337500005,31.275549631250005,54.0,48.0
120,30.855014337500005,31.343406706250004,61.0,66.0
121,30.855014337500005,31.368406681250004,66.0,64.0
122,30.855014337500005,31.405013787500003,69.0,66.0
123,31.283585337500003,31.693406356250005,49.0,41.0
124,31.712156337500005,32.16840588125,68.0,62.0
125,31.712156337500005,32.20947726875001,64.0,64.0
126,31.712156337500005,32.25412008125001,59.0,64.0
127,32.1407273375,32.63626255625,47.0,44.0
128,31.712156337500005,33.03447644375001,40.0,60.0
129,32.5692983375,33.055904993750005,64.0,60.0
130,32.5692983375,33.05769070625001,59.0,58.0
131,32.5692983375,33.11394065,68.0,60.0
132,32.5692983375,33.12286921250001,52.0,47.0
133,32.997869337500006,33.42554748125001,47.0,58.0
134,33.426440337500004,33.8907255875,64.0,59.0
135,33.426440337500004,33.913939850000006,61.0,63.0
136,33.426440337500004,33.9157255625,69.0,64.0
137,33.8550113375,34.346082275,52.0,53.0
138,34.28358233750001,34.68179622500001,64.0,61.0
139,34.28358233750001,34.699653350000006,59.0,53.0
140,34.28358233750001,34.79876039375,57.0,44.0
141,34.712153337500006,35.18447429375001,52.0,40.0
142,35.140724337500004,35.490723987500004,64.0,53.0
143,35.140724337500004,35.52197395625001,61.0,56.0
144,35.140724337500004,35.588938175,57.0,44.0
145,33.426440337500004,35.62911670625,45.0,56.0
146,35.56929533750001,36.076437687500004,52.0,39.0
147,35.99786633750001,36.34072313750001,64.0,54.0
148,35.99786633750001,36.35322312500001,59.0,53.0
149,35.99786633750001,36.42733019375001,68.0,56.0
150,35.99786633750001,36.48000871250001,44.0,48.0
151,36.426437337500005,36.70768705625001,66.0,56.0
152,36.64072283750001,36.80590124375001,68.0,62.0
153,36.8550083375,37.367507825000004,69.0,66.0
154,36.8550083375,37.370186393750004,66.0,54.0
155,36.8550083375,37.3782221,61.0,61.0
156,37.2835793375,37.74429316250001,49.0,36.0
157,37.712150337500006,38.117507075000006,54.0,42.0
158,36.8550083375,38.135364200000005,42.0,70.0
159,37.712150337500006,38.145185618750006,61.0,58.0
160,37.712150337500006,38.15232846875001,69.0,57.0
161,37.712150337500006,38.16214988750001,66.0,56.0
162,38.140721337500004,38.538935225,49.0,44.0
163,38.5692923375,39.10947036875,62.0,61.0
164,38.5692923375,39.14072033750001,66.0,55.0
165,38.5692923375,39.148756043750005,59.0,55.0
166,38.5692923375,39.810362525,35.0,47.0
167,39.426434337500005,39.83804106875,66.0,57.0
168,39.426434337500005,39.866612468750006,62.0,59.0
169,38.5692923375,39.88268388125,47.0,50.0
170,39.426434337500005,39.88268388125,59.0,49.0
171,39.426434337500005,40.03893372500001,68.0,46.0
172,40.28357633750001,40.73893302500001,68.0,57.0
173,40.28357633750001,40.742504450000006,59.0,53.0
174,40.28357633750001,40.755004437500006,64.0,57.0
175,40.28357633750001,41.47911085625,40.0,53.0
176,41.140718337500005,41.521075100000004,59.0,56.0
177,40.28357633750001,41.55678935,52.0,48.0
178,41.140718337500005,41.563039343750006,64.0,62.0
179,41.140718337500005,41.58000361250001,68.0,62.0
180,41.9978603375,42.476431287500006,69.0,57.0
181,41.9978603375,42.50232411875001,66.0,61.0
182,41.9978603375,42.51035982500001,61.0,60.0
183,42.85500233750001,43.12553778125,69.0,44.0
184,42.85500233750001,43.221966256250006,54.0,36.0
185,42.426431337500006,43.26035907500001,49.0,44.0
186,42.85500233750001,43.296966181250006,61.0,49.0
187,41.9978603375,43.32375186875001,42.0,61.0
188,42.85500233750001,43.33178757500001,66.0,45.0
189,43.2835733375,43.3835732375,68.0,61.0
190,43.71214433750001,44.16214388750001,57.0,54.0
191,43.71214433750001,44.16214388750001,62.0,66.0
192,43.71214433750001,44.1692867375,66.0,66.0
193,44.5692863375,44.9800002125,57.0,60.0
194,44.5692863375,44.996071625000006,66.0,62.0
195,43.71214433750001,44.99964305,38.0,60.0
196,44.5692863375,45.01303589375001,50.0,44.0
197,44.140715337500005,45.06303584375001,45.0,39.0
198,44.5692863375,45.15767860625,62.0,62.0
199,45.426428337500006,45.87107075,68.0,61.0
200,45.426428337500006,45.924642125000005,59.0,55.0
201,45.426428337500006,45.946070675,64.0,57.0
202,45.426428337500006,46.12642763750001,40.0,63.0
203,45.854999337500004,46.31124888125001,47.0,41.0
204,46.28357033750001,46.417498775000006,68.0,31.0
205,46.28357033750001,46.64696283125001,64.0,62.0
206,46.28357033750001,46.672855662500005,59.0,55.0
207,46.28357033750001,46.80410553125,52.0,48.0
208,46.71214133750001,46.840712637500005,54.0,48.0
209,47.140712337500005,47.95231866875001,42.0,64.0
210,47.56928333750001,47.9978543375,49.0,39.0
211,47.140712337500005,48.40856821250001,61.0,57.0
212,47.9978543375,48.444282462500006,54.0,40.0
213,47.140712337500005,48.44874674375001,66.0,66.0
214,48.42731819375001,49.0335675875,56.0,44.0
215,48.85499633750001,49.52642423750001,61.0,43.0
216,48.85499633750001,49.59160274375,66.0,47.0
217,48.85499633750001,49.750531156250005,69.0,49.0
218,48.85499633750001,49.99695948125,57.0,46.0
219,50.140709337500006,50.33981628125001,68.0,52.0
220,50.35499483750001,50.569280337500004,69.0,61.0
221,50.569280337500004,51.01838703125001,61.0,60.0
222,50.569280337500004,51.07017269375001,66.0,60.0
223,50.99785133750001,51.44874374375001,49.0,34.0
224,51.42642233750001,51.81749337500001,54.0,39.0
225,50.569280337500004,51.85945761875001,42.0,69.0
226,51.42642233750001,51.91124328125001,61.0,53.0
227,51.42642233750001,51.9210647,69.0,57.0
228,51.42642233750001,51.93892182500001,66.0,54.0
229,51.854993337500005,52.25945721875001,49.0,46.0
230,52.28356433750001,52.78267098125001,59.0,51.0
231,52.28356433750001,52.79159954375001,68.0,53.0
232,52.28356433750001,52.79695668125001,64.0,60.0
233,53.140706337500006,53.49070598750001,68.0,64.0
234,52.28356433750001,53.561241631250006,40.0,66.0
235,53.140706337500006,53.56659876875001,64.0,67.0
236,52.71213533750001,53.59784873750001,47.0,37.0
237,53.140706337500006,53.61570586250001,59.0,61.0
238,53.140706337500006,53.62284871250001,52.0,45.0
239,53.9978483375,54.31838373125001,69.0,59.0
240,53.9978483375,54.33802656875001,61.0,58.0
241,53.9978483375,54.41838363125001,66.0,59.0
242,53.9978483375,54.70945476875001,42.0,62.0
243,54.42641933750001,54.83891892500001,49.0,47.0
244,54.85499033750001,55.36838268125001,54.0,48.0
245,55.307668456250006,55.78177512500001,61.0,44.0
246,55.72909660625001,56.61123858125001,66.0,50.0
247,56.569274337500005,56.80855981250001,59.0,53.0
248,55.71213233750001,56.89516686875001,57.0,42.0
249,55.283561337500004,56.927309693750004,56.0,54.0
250,57.854987337500006,58.33266543125001,49.0,47.0
251,58.28355833750001,58.64159369375001,61.0,60.0
252,58.28355833750001,58.648736543750005,57.0,64.0
253,58.28355833750001,58.67998651250001,54.0,49.0
254,57.4264163375,58.801414962500004,42.0,59.0
255,58.7121293375,59.08802181875001,56.0,53.0
256,58.7121293375,59.126414637500005,59.0,69.0
257,59.14070033750001,59.200521706250015,57.0,51.0
258,59.14070033750001,59.53266423125001,59.0,49.0
259,59.14070033750001,59.583557037500015,64.0,69.0
260,59.14070033750001,60.07730654375001,40.0,62.0
261,59.56927133750001,60.08802081875001,47.0,44.0
262,59.9978423375,60.42641333750001,64.0,66.0
263,59.9978423375,60.438913325,59.0,58.0
264,59.9978423375,60.52998466250001,52.0,49.0
265,59.9978423375,60.64337740625001,68.0,60.0
266,60.42641333750001,60.86123433125,54.0,49.0
267,60.854984337500014,61.583555037500005,64.0,67.0
268,60.854984337500014,61.591590743750004,61.0,63.0
269,60.854984337500014,61.963911800000005,69.0,70.0
270,62.140697337500015,62.52908980625001,64.0,63.0
271,61.71212633750001,62.56212548750001,57.0,59.0
272,62.140697337500015,62.64248255000001,59.0,63.0
273,62.569268337500006,63.03355358750001,61.0,72.0
274,62.99783933750001,63.22194625625001,57.0,40.0
275,60.854984337500014,63.24248195000001,45.0,64.0
276,61.283555337500005,63.404088931250016,52.0,45.0
277,63.21212483750001,63.439803181250014,59.0,59.0
278,63.4264103375,63.58891017500001,64.0,63.0
279,63.640695837500004,63.80587424375001,59.0,62.0
280,63.85498133750001,64.0353383,64.0,72.0
281,64.06926683750001,64.2656952125,68.0,69.0
282,63.85498133750001,64.26748092500002,44.0,73.0
283,64.28355233750001,64.82194465625001,69.0,75.0
284,64.28355233750001,64.83623035625001,61.0,66.0
285,64.28355233750001,64.93533740000001,64.0,63.0
286,64.7121233375,65.24694423125001,49.0,46.0
287,65.14069433750001,65.56480105625,64.0,70.0
288,65.14069433750001,65.57551533125,54.0,48.0
289,64.28355233750001,65.62462242500001,42.0,61.0
290,65.14069433750001,65.66390810000001,61.0,67.0
291,65.14069433750001,65.76658656875001,69.0,70.0
292,65.56926533750001,65.85408648125001,49.0,50.0
293,65.9978363375,66.40408593125001,35.0,66.0
294,65.9978363375,66.50051440625,59.0,66.0
295,65.9978363375,66.51926438750002,62.0,70.0
296,65.9978363375,66.5228358125,66.0,64.0
297,66.42640733750001,66.87997831250001,47.0,58.0
298,66.85497833750001,67.29694218125,59.0,66.0
299,66.85497833750001,67.36122783125,62.0,70.0
300,67.2835493375,67.3639064,54.0,56.0
301,66.85497833750001,67.374620675,50.0,66.0
302,66.85497833750001,67.6085490125,66.0,67.0
303,67.71212033750001,68.11211993750001,59.0,66.0
304,67.71212033750001,68.12729849375,68.0,72.0
305,67.71212033750001,68.14783418750001,64.0,69.0
306,68.37372681875001,68.42819105000001,66.0,71.0
307,67.71212033750001,68.52015524375001,40.0,75.0
308,68.14069133750002,68.59604802500002,47.0,50.0
309,68.5692623375,69.03801186875,52.0,54.0
310,68.99783333750001,69.09872609375,54.0,62.0
311,68.60229801875,69.44872574375,64.0,67.0
312,69.4264043375,70.22997496250001,42.0,69.0
313,69.44783288750001,70.26122493125001,69.0,63.0
314,69.85497533750001,70.2656892125,49.0,39.0
315,69.44783288750001,70.27015349375002,66.0,47.0
316,70.28354633750001,70.73533160000001,54.0,49.0
317,70.7121173375,70.79872439375,57.0,70.0
318,72.21211583750001,72.35229426875001,57.0,75.0
319,71.14068833750001,72.5228298125,38.0,72.0
320,72.42640133750001,72.59872259375001,62.0,67.0
321,71.9978303375,72.62193685625002,50.0,66.0
322,71.56925933750001,72.85943661875001,45.0,47.0
323,72.64068683750001,72.87997231250002,69.0,67.0
324,72.85497233750002,73.5442573625,68.0,67.0
325,72.85497233750002,73.54515021875001,59.0,69.0
326,72.85497233750002,73.57015019375001,64.0,69.0
327,73.71211433750001,74.02104260000002,59.0,63.0
328,73.71211433750001,74.0692568375,64.0,70.0
329,73.71211433750001,74.09247110000001,68.0,66.0
330,72.85497233750002,74.11122108125001,40.0,67.0
331,73.71211433750001,74.27907805625001,52.0,48.0
332,74.14068533750002,74.37014939375001,66.0,62.0
333,73.2835433375,74.45586359375001,47.0,59.0
334,74.3549708375,74.52639923750002,68.0,63.0
335,74.56925633750001,74.68800621875,69.0,54.0
336,74.56925633750001,74.98532735,66.0,78.0
337,74.56925633750001,75.00229161875001,61.0,69.0
338,75.4263983375,75.62907670625,56.0,75.0
339,75.6406838375,75.77014799375002,57.0,57.0
340,74.56925633750001,75.81300509375001,42.0,73.0
341,75.21211283750002,75.85407648125,54.0,55.0
342,75.85496933750001,76.01300489375001,61.0,80.0
343,74.99782733750001,76.11836193125,49.0,48.0
344,76.06925483750001,76.37729024375001,66.0,69.0
345,76.28354033750001,76.51925438750001,50.0,78.0
346,76.28354033750001,76.73353988750002,57.0,80.0
347,76.28354033750001,76.73443274375,62.0,75.0
348,76.28354033750001,76.73889702500001,38.0,72.0
349,76.28354033750001,76.74961130000001,54.0,76.0
350,76.7121113375,76.84603977500001,50.0,70.0
351,76.92639683750001,77.06836098125001,57.0,49.0
352,77.14068233750001,77.57996761250001,56.0,88.0
353,77.14068233750001,77.58711046250001,64.0,75.0
354,77.14068233750001,77.59068188750001,59.0,80.0
355,77.14068233750001,77.66836038125001,40.0,80.0
356,77.56925333750002,77.96746722500001,52.0,70.0
357,77.9978243375,78.36032397500001,42.0,82.0
358,78.21210983750001,78.43710961250001,49.0,61.0
359,77.9978243375,78.53264523125002,57.0,82.0
360,77.9978243375,78.65764510625002,61.0,82.0
361,78.42639533750001,78.72371646875001,54.0,56.0
362,77.9978243375,78.91300199375002,66.0,76.0
363,78.64068083750001,79.0638947,56.0,60.0
364,78.85496633750002,79.09514466875001,57.0,67.0
365,79.0692518375,79.39157294375,59.0,62.0
366,79.28353733750001,79.56210848750001,61.0,66.0
367,79.49782283750001,79.75139401250001,66.0,70.0
368,79.71210833750001,80.05853656250001,40.0,72.0
369,79.92639383750002,80.15050075625001,47.0,64.0
370,79.71210833750001,80.16210788750001,57.0,75.0
371,79.71210833750001,80.39692908125001,64.0,78.0
372,80.14067933750002,80.41925048750001,52.0,58.0
373,80.56925033750001,80.84157149375001,56.0,51.0
374,80.3549648375,80.85942861875002,54.0,56.0
375,80.78353583750001,80.93621425625001,59.0,66.0
376,80.99782133750001,81.25407108125002,64.0,76.0
377,81.21210683750002,81.50317797500001,69.0,75.0
378,81.4263923375,81.82728479375001,57.0,85.0
379,81.4263923375,81.86835618125001,62.0,72.0
380,81.4263923375,81.88621330625001,66.0,73.0
381,81.4263923375,82.0013917625,38.0,73.0
382,81.85496333750001,82.16121303125001,50.0,60.0
383,81.64067783750001,82.26657006875001,45.0,66.0
384,82.06924883750001,82.32371286875001,69.0,73.0
385,82.28353433750001,82.63799826875001,40.0,70.0
386,82.49781983750002,82.71924818750001,47.0,63.0
387,82.28353433750001,82.85406948125001,59.0,95.0
388,82.28353433750001,82.95674795000001,64.0,93.0
389,82.28353433750001,83.10585494375002,68.0,91.0
390,82.7121053375,83.11121208125002,52.0,76.0
391,82.92639083750001,83.14335490625001,54.0,62.0
392,83.14067633750001,83.44514031875,61.0,72.0
393,83.14067633750001,83.47014029375,45.0,72.0
394,83.14067633750001,83.47460457500001,64.0,69.0
395,83.14067633750001,83.51567596250001,69.0,80.0
396,83.35496183750001,83.60496158750001,52.0,70.0
397,83.56924733750002,83.82192565625002,57.0,66.0
398,83.99781833750001,84.24424666250002,61.0,73.0
399,83.7835328375,84.25763950625002,59.0,61.0
400,84.21210383750001,84.36299654375001,81.0,72.0
401,84.42638933750001,84.59960345000002,80.0,76.0
402,84.64067483750001,84.84246035000001,76.0,73.0
403,84.85496033750002,85.19246000000001,42.0,72.0
404,85.0692458375,85.25942421875001,49.0,64.0
405,85.28353133750001,85.55853106250001,54.0,54.0
406,84.85496033750002,85.66656666875001,69.0,78.0
407,84.85496033750002,85.69424521250001,61.0,80.0
408,84.85496033750002,85.69603092500002,66.0,80.0
409,85.49781683750001,85.99245920000001,56.0,67.0
410,85.71210233750001,85.99424491250001,57.0,69.0
411,85.92638783750002,86.08442339375001,61.0,80.0
412,86.14067333750002,86.45585159375001,66.0,62.0
413,86.3549588375,86.48442299375002,69.0,75.0
414,86.56924433750001,86.91388685000001,40.0,69.0
415,86.78352983750001,87.01299389375001,47.0,66.0
416,86.56924433750001,87.22817225000001,59.0,73.0
417,86.99781533750001,87.27013649375002,52.0,61.0
418,86.56924433750001,87.4763862875,64.0,70.0
419,86.56924433750001,87.48620770625001,68.0,57.0
420,87.21210083750002,87.64335040625001,54.0,62.0
421,87.4263863375,87.64870754375,56.0,73.0
422,87.64067183750001,87.80406453125,59.0,69.0
423,87.85495733750001,88.17192130625001,64.0,76.0
424,88.06924283750001,88.24424266250001,69.0,70.0
425,88.28352833750002,88.64959940000001,57.0,78.0
426,88.28352833750002,88.82102780000001,66.0,88.0
427,88.28352833750002,88.89781343750002,62.0,80.0
428,88.81924208750002,88.92906340625001,57.0,58.0
429,88.28352833750002,88.98531335000001,38.0,70.0
430,88.71209933750002,89.09870609375001,50.0,59.0
431,89.03352758750002,89.35763440625001,57.0,78.0
432,89.03352758750002,89.36031297500001,66.0,78.0
433,89.03352758750002,89.37995581250001,62.0,82.0
434,89.24781308750002,89.56924133750002,38.0,32.0
435,89.35495583750001,89.62638413750001,50.0,61.0
436,88.49781383750002,89.67191980625002,45.0,76.0
437,89.56924133750002,89.68799121875001,62.0,54.0
438,89.56924133750002,89.75584829375002,57.0,78.0
439,89.78352683750002,89.86566961250001,62.0,49.0
440,89.78352683750002,89.90674100000001,66.0,73.0
441,89.99781233750002,90.12995506250002,61.0,75.0
442,89.99781233750002,90.14602647500001,59.0,78.0
443,89.99781233750002,90.19602642500001,37.0,70.0
444,90.21209783750001,90.49066898750002,49.0,66.0
445,90.42638333750001,90.54602607500001,52.0,62.0
446,89.99781233750002,90.61299029375002,68.0,80.0
447,89.99781233750002,90.69870449375001,66.0,91.0
448,90.42638333750001,90.93084711875001,54.0,49.0
449,90.64066883750002,90.94334710625002,56.0,70.0
450,90.85495433750002,91.02370416875002,61.0,88.0
451,91.06923983750002,91.34513241875001,66.0,91.0
452,91.28352533750001,91.51388225000001,68.0,75.0
453,91.49781083750001,91.56656076875002,73.0,50.0
454,91.49781083750001,91.57370361875002,71.0,45.0
455,91.71209633750001,91.84959620000002,71.0,70.0
456,91.71209633750001,91.85316762500001,69.0,73.0
457,91.71209633750001,92.09870309375002,42.0,76.0
458,91.92638183750002,92.13352448750001,69.0,48.0
459,91.92638183750002,92.16477445625002,49.0,67.0
460,91.71209633750001,92.17191730625001,61.0,66.0
461,92.14066733750002,92.43620275625001,54.0,59.0
462,92.35495283750002,92.44780988750001,61.0,80.0
463,92.35495283750002,92.45852416250001,69.0,78.0
464,92.56923833750001,92.84691663125001,69.0,88.0
465,92.56923833750001,92.87816660000001,61.0,85.0
466,92.78352383750001,92.93620225625001,57.0,76.0
467,92.35495283750002,92.93709511250002,56.0,54.0
468,92.78352383750001,92.99066648750002,68.0,72.0
469,92.99780933750002,93.39245180000002,66.0,93.0
470,93.42638033750002,93.69780863750002,40.0,72.0
471,93.42638033750002,93.79602282500002,59.0,64.0
472,93.64066583750001,93.85673705000002,47.0,67.0
473,93.42638033750002,93.87459417500001,64.0,75.0
474,93.42638033750002,93.99423691250001,68.0,72.0
475,93.85495133750001,94.12548678125002,52.0,59.0
476,94.49780783750002,94.62191485625002,69.0,85.0
477,94.28352233750002,94.65852196250002,56.0,70.0
478,94.06923683750001,94.68173622500002,54.0,55.0
479,94.71209333750002,94.91030742500001,71.0,91.0
480,94.92637883750001,95.08352153750002,76.0,60.0
481,95.14066433750001,95.61477100625001,66.0,66.0
482,95.14066433750001,95.65941381875001,50.0,70.0
483,95.14066433750001,95.68262808125002,73.0,69.0
484,95.56923533750002,95.81744937500001,62.0,78.0
485,95.35494983750002,95.86119933125002,57.0,66.0
486,95.78352083750002,95.87816360000002,66.0,73.0
487,95.78352083750002,96.19155614375002,74.0,69.0
488,95.99780633750002,96.34959170000002,64.0,91.0
489,95.99780633750002,96.38084166875002,73.0,62.0
490,95.99780633750002,96.42727019375002,52.0,69.0
491,96.21298469375002,96.42727019375002,59.0,69.0
492,96.42727019375002,96.66476995625001,69.0,85.0
493,96.64066283750002,96.80316267500001,71.0,80.0
494,96.85494833750002,97.15584089375001,73.0,69.0
495,96.85494833750002,97.16387660000002,69.0,78.0
496,96.85494833750002,97.19066228750002,64.0,63.0
497,97.28351933750001,97.54601907500002,57.0,58.0
498,97.49780483750001,97.60405473125002,61.0,64.0
499,97.49780483750001,97.65673325000002,69.0,66.0
500,97.71209033750002,97.74244745000001,69.0,43.0
501,97.71209033750002,97.94512581875001,59.0,82.0
502,97.06923383750002,98.03351858750001,52.0,67.0
503,97.71209033750002,98.19958985000002,68.0,78.0
504,97.92637583750002,98.22816125000001,57.0,48.0
505,98.14066133750002,98.29155404375001,52.0,73.0
506,98.14066133750002,98.29691118125001,61.0,62.0
507,96.85494833750002,98.36208968750002,45.0,73.0
508,98.14066133750002,98.39512536875002,69.0,76.0
509,98.35494683750002,98.51119668125001,66.0,61.0
510,98.56923233750001,98.87994631250001,42.0,70.0
511,98.78351783750001,98.98798191875002,49.0,62.0
512,98.56923233750001,99.26476735625002,61.0,76.0
513,98.99780333750002,99.27101735000002,54.0,63.0
514,98.56923233750001,99.34244585000002,69.0,78.0
515,98.56923233750001,99.49869569375002,66.0,78.0
516,99.42637433750002,99.63351698750002,57.0,64.0
517,99.21208883750002,99.66923123750001,56.0,50.0
518,99.64065983750001,99.77458827500001,61.0,95.0
519,99.85494533750001,100.08798081875001,66.0,80.0
520,100.06923083750002,100.23530210000001,69.0,80.0
521,100.28351633750002,100.67012309375002,40.0,57.0
522,100.49780183750002,100.69690878125002,47.0,41.0
523,100.71208733750002,101.00405133125001,52.0,59.0
524,100.28351633750002,101.17280116250002,59.0,76.0
525,100.28351633750002,101.18083686875002,64.0,85.0
526,100.28351633750002,101.18440829375001,68.0,91.0
527,100.92637283750001,101.37012239375002,54.0,56.0
528,101.14065833750001,101.37190810625002,56.0,76.0
529,101.35494383750002,101.49155084375002,59.0,80.0
530,101.56922933750002,101.87994331250002,64.0,82.0
531,101.78351483750002,102.02994316250002,69.0,66.0
532,101.99780033750002,102.28708576250001,38.0,67.0
533,102.21208583750001,102.39065708750002,45.0,69.0
534,102.42637133750002,102.70940676875001,50.0,60.0
535,101.99780033750002,102.81833523125002,66.0,85.0
536,101.99780033750002,102.84690663125002,57.0,78.0
537,101.99780033750002,102.87904945625002,62.0,91.0
538,102.64065683750002,102.97279936250001,52.0,61.0
539,102.85494233750002,103.01387075000002,54.0,76.0
540,103.06922783750002,103.19333485625002,57.0,85.0
541,103.28351333750001,103.47012029375001,62.0,91.0
542,103.49779883750001,103.75404858125002,66.0,70.0
543,103.71208433750002,104.08529825000002,68.0,82.0
544,104.56922633750001,104.76208328750002,66.0,72.0
545,104.78351183750001,104.88083316875002,68.0,69.0
546,104.99779733750002,105.24868994375002,73.0,82.0
547,103.71208433750002,105.28708276250002,49.0,67.0
548,104.35494083750002,105.29333275625002,61.0,73.0
549,105.21208283750002,105.41743977500002,78.0,69.0
550,104.14065533750002,106.38261738125001,56.0,52.0
551,105.42636833750002,106.38708166250002,80.0,67.0
552,105.42636833750002,106.43440304375002,73.0,72.0
553,103.92636983750002,106.45315302500002,54.0,61.0
554,105.42636833750002,106.50672440000002,49.0,45.0
555,107.14065233750001,107.63350898750002,61.0,73.0
556,107.14065233750001,107.64690183125002,57.0,75.0
557,107.56922333750002,108.06654426875002,49.0,40.0
558,107.99779433750003,108.43082961875002,56.0,64.0
559,107.99779433750003,108.45136531250002,54.0,46.0
560,107.99779433750003,108.45315102500001,61.0,69.0
561,107.99779433750003,108.48082956875002,57.0,69.0
562,108.85493633750002,109.61743557500002,54.0,38.0
563,108.85493633750002,109.82100680000002,61.0,44.0
564,108.85493633750002,109.82189965625003,56.0,43.0
565,108.85493633750002,109.83797106875002,57.0,51.0
566,107.14065233750001,110.53529180000002,42.0,75.0
567,110.56922033750001,111.08171982500002,57.0,75.0
568,110.56922033750001,111.09957695000001,61.0,72.0
569,109.81922108750001,111.29064818750003,54.0,33.0
570,110.56922033750001,111.29064818750003,54.0,61.0
571,108.42636533750002,111.30671960000002,49.0,43.0
572,110.56922033750001,111.91118328125002,42.0,57.0
573,111.85493333750001,111.95404038125002,54.0,40.0
574,111.42636233750002,111.95850466250002,61.0,67.0
575,111.42636233750002,111.97546893125002,57.0,73.0
576,112.28350433750002,112.76386100000002,64.0,59.0
577,112.28350433750002,112.93618225625002,59.0,73.0
578,112.28350433750002,112.95046795625002,56.0,62.0
579,112.28350433750002,113.32636043750001,52.0,48.0
580,113.14064633750002,113.59332445625002,64.0,59.0
581,113.14064633750002,113.64511011875003,56.0,63.0
582,113.56921733750002,113.69064578750002,52.0,56.0
583,113.14064633750002,113.69421721250002,59.0,70.0
584,112.28350433750002,113.73082431875002,40.0,62.0
585,113.99778833750001,114.42368076875002,54.0,69.0
586,113.99778833750001,114.44510931875001,57.0,73.0
587,113.99778833750001,114.50939496875002,61.0,72.0
588,114.10493108750002,114.98618020625003,50.0,60.0
589,114.10493108750002,115.30225131875002,38.0,66.0
590,114.85493033750002,115.35403698125002,57.0,76.0
591,114.85493033750002,115.36117983125001,61.0,72.0
592,114.85493033750002,115.36742982500002,54.0,69.0
593,115.28350133750001,115.42992976250002,50.0,64.0
594,115.71207233750002,115.95046495625002,57.0,70.0
595,115.71207233750002,116.03171487500002,61.0,70.0
596,116.14064333750002,116.62457142500001,52.0,42.0
597,116.56921433750001,116.83885692500002,61.0,57.0
598,116.56921433750001,116.84332120625002,59.0,61.0
599,116.56921433750001,116.87189260625001,64.0,64.0
600,116.56921433750001,116.87903545625002,57.0,44.0
601,115.71207233750002,116.91028542500001,45.0,75.0
602,116.89064258750003,117.07546383125002,52.0,48.0
603,117.21207083750002,117.39242780000002,44.0,38.0
604,117.42635633750002,117.88974873125002,69.0,69.0
605,117.42635633750002,117.94332010625001,61.0,69.0
606,117.31921358750002,118.06921283750002,66.0,50.0
607,117.85492733750002,118.28796261875002,49.0,44.0
608,118.28349833750002,118.63885512500002,54.0,44.0
609,117.42635633750002,118.67456937500002,42.0,73.0
610,118.28349833750002,118.80849781250002,61.0,73.0
611,118.28349833750002,118.83349778750002,66.0,76.0
612,118.71206933750003,118.92903340625001,49.0,43.0
613,118.28349833750002,119.03617615625002,69.0,72.0
614,119.14064033750002,119.50313997500002,59.0,70.0
615,119.14064033750002,119.58706846250001,64.0,69.0
616,119.14064033750002,119.67367551875002,68.0,70.0
617,119.14064033750002,120.32813915000001,40.0,66.0
618,119.56921133750002,120.35403198125002,47.0,40.0
619,119.99778233750001,120.35492483750002,52.0,46.0
620,119.99778233750001,120.46296044375002,59.0,69.0
621,119.99778233750001,120.49510326875001,64.0,69.0
622,120.85492433750002,121.26920963750003,57.0,58.0
623,120.85492433750002,121.32635243750002,66.0,59.0
624,120.85492433750002,121.32813815000002,62.0,62.0
625,121.28349533750001,122.02367316875002,45.0,37.0
626,121.71206633750002,122.04510171875002,57.0,78.0
627,121.71206633750002,122.04867314375002,50.0,55.0
628,121.71206633750002,122.09242310000002,62.0,91.0
629,120.85492433750002,122.12099450000002,38.0,62.0
630,121.71206633750002,122.18706586250002,66.0,75.0
631,122.56920833750002,122.72813675000002,37.0,70.0
632,122.99777933750002,123.02277931250002,56.0,49.0
633,122.78349383750002,123.04777928750002,49.0,58.0
634,122.56920833750002,123.06831498125003,61.0,78.0
635,122.56920833750002,123.23527910000001,68.0,75.0
636,122.56920833750002,123.27010049375002,65.0,78.0
637,122.99777933750002,123.66920723750002,54.0,54.0
638,123.21206483750002,123.68527865000001,56.0,75.0
639,123.42635033750003,123.68617150625002,61.0,78.0
640,123.64063583750001,123.81742137500002,66.0,72.0
641,123.85492133750002,123.90134986250003,66.0,42.0
642,123.85492133750002,124.11117108125002,68.0,73.0
643,124.06920683750002,124.18349243750002,69.0,78.0
644,124.28349233750002,124.64777768750002,61.0,78.0
645,124.28349233750002,124.73349188750002,42.0,75.0
646,124.28349233750002,124.87634888750001,66.0,73.0
647,124.28349233750002,124.92456312500002,69.0,85.0
648,125.14063433750002,125.36384840000002,61.0,76.0
649,125.14063433750002,125.38795551875002,66.0,85.0
650,125.14063433750002,125.40938406875001,69.0,70.0
651,125.56920533750002,125.75491943750002,61.0,80.0
652,125.35491983750002,125.95670495000002,42.0,57.0
653,125.78349083750003,126.13884762500003,69.0,72.0
654,125.99777633750001,126.49688298125002,59.0,85.0
655,125.99777633750001,126.54063293750002,68.0,80.0
656,125.99777633750001,126.54241865000002,64.0,80.0
657,126.85491833750002,127.13438234375002,59.0,88.0
658,127.06920383750003,127.24063223750002,64.0,82.0
659,126.64063283750002,127.30402503125002,52.0,69.0
660,126.42634733750002,127.32188215625003,47.0,57.0
661,127.28348933750001,127.34331070625002,64.0,44.0
662,125.99777633750001,127.35313212500002,40.0,63.0
663,127.28348933750001,127.54777478750002,66.0,66.0
664,127.71206033750002,128.04688143125,38.0,70.0
665,127.92634583750002,128.12991706250003,45.0,62.0
666,128.14063133750003,128.41116678125002,50.0,49.0
667,127.71206033750002,128.59152374375,57.0,91.0
668,127.71206033750002,128.6156308625,62.0,72.0
669,127.71206033750002,128.62545228125,66.0,66.0
670,127.49777483750002,128.63080941875,69.0,85.0
671,128.78348783750002,128.8477734875,69.0,34.0
672,128.5692023375,128.87098775,54.0,66.0
673,128.3549168375,128.90938056875,52.0,58.0
674,128.78348783750002,128.9352734,57.0,88.0
675,128.9977733375,129.27098735,62.0,82.0
676,129.21205883750002,129.35670155000003,64.0,73.0
677,129.4263443375,129.724558325,61.0,80.0
678,129.4263443375,129.77366541875003,64.0,75.0
679,129.4263443375,129.79420111250002,69.0,76.0
680,129.4263443375,129.81652251875002,45.0,70.0
681,129.6406298375,129.86652246875002,52.0,58.0
682,129.85491533750002,130.14330790625002,57.0,53.0
683,130.0692008375,130.39955765000002,59.0,47.0
684,130.28348633750002,130.41295049375,61.0,82.0
685,130.4977718375,130.77277156250003,81.0,75.0
686,130.71205733750003,130.89955715000002,80.0,67.0
687,130.92634283750002,131.14955690000002,78.0,80.0
688,131.1406283375,131.495985125,42.0,70.0
689,131.1406283375,131.524556525,81.0,82.0
690,131.35491383750002,131.58616360625,49.0,58.0
691,131.1406283375,131.65759210625,73.0,70.0
692,131.5691993375,131.87634188750002,54.0,50.0
693,131.78348483750003,131.88794901875002,81.0,72.0
694,131.78348483750003,131.90491328750002,73.0,63.0
695,131.99777033750001,132.0799131125,81.0,72.0
696,131.99777033750001,132.095984525,73.0,73.0
697,131.8906275875,132.19152014375,56.0,57.0
698,132.2120558375,132.30491288750002,80.0,72.0
699,132.2120558375,132.31384145,71.0,75.0
700,131.99777033750001,132.40401993125002,57.0,60.0
701,132.42634133750002,132.54866264375002,56.0,69.0
702,132.42634133750002,132.65044825625,69.0,66.0
703,132.42634133750002,132.69241250000002,78.0,63.0
704,132.85491233750002,133.06294784375,80.0,75.0
705,132.85491233750002,133.10312637500002,71.0,73.0
706,133.49776883750002,133.78526855,56.0,85.0
707,133.7120543375,133.9013398625,57.0,76.0
708,133.2834833375,134.12455392500001,52.0,59.0
709,133.0691978375,134.17455387500002,47.0,66.0
710,132.85491233750002,134.21651811875,40.0,70.0
711,133.92633983750002,134.32812515,59.0,73.0
712,134.1406253375,134.41116078125,61.0,63.0
713,134.3549108375,134.47723214375,64.0,82.0
714,134.56919633750002,134.98437449375,62.0,80.0
715,134.56919633750002,135.07187440625,57.0,69.0
716,134.56919633750002,135.0834815375,54.0,76.0
717,135.2120528375,135.35312412500002,54.0,66.0
718,134.99776733750002,135.51919538750002,50.0,70.0
719,135.42633833750003,135.65937381875003,54.0,70.0
720,135.42633833750003,135.69955235,62.0,72.0
721,135.42633833750003,135.72365946875001,57.0,93.0
722,134.56919633750002,135.8941950125,38.0,69.0
723,134.7834818375,135.95044495625,45.0,72.0
724,135.64062383750002,135.96919493750002,50.0,58.0
725,135.74776658750002,136.09687338125002,54.0,67.0
726,135.9620520875,136.12187335625,62.0,72.0
727,136.2834803375,136.69955135,37.0,69.0
728,136.2834803375,136.8263369375,56.0,73.0
729,136.2834803375,136.96651536875,61.0,76.0
730,136.71205133750001,137.01919388750002,49.0,62.0
731,137.14062233750002,137.53437194375002,56.0,59.0
732,136.9263368375,137.55669335000002,54.0,46.0
733,137.46205058750002,137.72187175625,61.0,57.0
734,137.7834788375,137.988835775,66.0,69.0
735,137.9977643375,138.99687048125003,65.0,75.0
736,137.9977643375,139.11294179375002,61.0,64.0
737,137.9977643375,139.1584774625,37.0,62.0
738,137.9977643375,139.19954885,49.0,54.0
739,137.9977643375,139.19954885,68.0,57.0
740,139.71294119375003,140.17365501875003,61.0,64.0
741,139.71294119375003,140.17990501250003,66.0,67.0
742,139.71294119375003,140.21651211875002,69.0,62.0
743,140.14061933750003,140.65044025625002,49.0,37.0
744,140.5691903375,141.0191898875,54.0,43.0
745,140.5691903375,141.09329695625001,61.0,61.0
746,140.5691903375,141.10490408750002,69.0,67.0
747,140.5691903375,141.13883262500002,66.0,64.0
748,140.9977613375,142.63079541875,49.0,37.0
749,141.4263323375,142.63079541875,61.0,40.0
750,141.4263323375,142.63615255625,66.0,44.0
751,141.4263323375,142.64508111875003,69.0,35.0
752,141.4263323375,142.674545375,54.0,33.0
753,139.71294119375003,142.7299024625,42.0,57.0
754,143.1406163375,143.58972303125,61.0,60.0
755,143.1406163375,143.64150869375,66.0,60.0
756,143.5691873375,144.02007974375002,49.0,34.0
757,143.99775833750002,144.38882937500003,54.0,39.0
758,143.1406163375,144.43079361875002,42.0,69.0
759,143.99775833750002,144.48257928125003,61.0,53.0
760,143.99775833750002,144.49240070000002,69.0,57.0
761,143.99775833750002,144.51025782500002,66.0,54.0
762,144.42632933750002,144.83079321875002,49.0,46.0
763,144.85490033750003,145.35400698125002,59.0,51.0
764,144.85490033750003,145.36293554375,68.0,53.0
765,144.85490033750003,145.36829268125,64.0,60.0
766,145.7120423375,146.0620419875,68.0,64.0
767,144.85490033750003,146.13257763125003,40.0,66.0
768,145.7120423375,146.13793476875003,64.0,67.0
769,145.2834713375,146.16918473750002,47.0,37.0
770,145.7120423375,146.18704186250002,59.0,61.0
771,145.7120423375,146.1941847125,52.0,45.0
772,146.56918433750002,146.88971973125,69.0,59.0
773,146.56918433750002,146.90936256875003,61.0,58.0
774,146.56918433750002,146.98971963125,66.0,59.0
775,146.56918433750002,147.28079076875002,42.0,62.0
776,146.99775533750002,147.410254925,49.0,47.0
777,147.42632633750003,147.93971868125,54.0,48.0
778,147.8548973375,148.49328955625,73.0,45.0
779,148.2834683375,148.55668235000002,81.0,59.0
780,148.71203933750002,148.9263248375,80.0,48.0
781,149.14061033750002,149.37989581250002,59.0,53.0
782,148.2834683375,149.46650286875,57.0,42.0
783,147.8548973375,149.49864569375,56.0,54.0
784,149.14061033750002,149.5209671,76.0,55.0
785,149.56918133750003,149.92810955000002,73.0,59.0
786,149.9977523375,150.28257348125,78.0,69.0
787,150.4263233375,150.90400143125,49.0,47.0
788,150.8548943375,151.21292969375003,61.0,60.0
789,150.8548943375,151.22007254375,57.0,64.0
790,150.8548943375,151.25132251250002,54.0,49.0
791,149.9977523375,151.37275096250002,42.0,59.0
792,151.28346533750002,151.65935781875,56.0,53.0
793,151.28346533750002,151.6977506375,59.0,69.0
794,151.71203633750002,151.77185770625002,57.0,51.0
795,151.71203633750002,152.10400023125,59.0,49.0
796,151.71203633750002,152.15489303750002,64.0,69.0
797,151.71203633750002,152.64864254375001,40.0,62.0
798,152.14060733750003,152.65935681875,47.0,44.0
799,152.56917833750003,152.9977493375,64.0,66.0
800,152.56917833750003,153.01024932500002,59.0,58.0
801,152.56917833750003,153.10132066250003,52.0,49.0
802,152.56917833750003,153.21471340625,68.0,60.0
803,152.9977493375,153.43257033125002,54.0,49.0
804,153.42632033750002,154.15489103750002,64.0,67.0
805,153.42632033750002,154.16292674375003,61.0,63.0
806,153.42632033750002,154.53524780000004,69.0,70.0
807,154.71203333750003,155.10042580625003,64.0,63.0
808,154.28346233750003,155.13346148750003,57.0,59.0
809,154.71203333750003,155.21381855,59.0,63.0
810,155.14060433750004,155.60488958750003,61.0,72.0
811,155.5691753375,155.79328225625002,57.0,40.0
812,153.42632033750002,155.81381795000001,45.0,64.0
813,153.85489133750002,155.97542493125002,52.0,45.0
814,155.78346083750003,156.01113918125003,59.0,59.0
815,155.99774633750002,156.16024617500003,64.0,63.0
816,156.21203183750004,156.37721024375003,59.0,62.0
817,156.42631733750002,156.60667430000004,64.0,72.0
818,156.6406028375,156.83703121250002,68.0,69.0
819,156.42631733750002,156.83881692500003,44.0,73.0
820,156.85488833750003,157.39328065625003,69.0,75.0
821,156.85488833750003,157.40756635625002,61.0,66.0
822,156.85488833750003,157.5066734,64.0,63.0
823,157.28345933750003,157.81828023125001,49.0,46.0
824,157.7120303375,158.13613705625002,64.0,70.0
825,157.7120303375,158.14685133125002,54.0,48.0
826,156.85488833750003,158.19595842500001,42.0,61.0
827,157.7120303375,158.23524410000002,61.0,67.0
828,157.7120303375,158.33792256875003,69.0,70.0
829,158.14060133750002,158.42542248125002,49.0,50.0
830,158.56917233750002,158.97542193125003,35.0,66.0
831,158.56917233750002,159.07185040625004,71.0,66.0
832,158.56917233750002,159.09060038750002,62.0,70.0
833,158.56917233750002,159.09417181250004,66.0,64.0
834,158.99774333750003,159.45131431250002,47.0,58.0
835,159.42631433750003,159.86827818125002,71.0,66.0
836,159.42631433750003,159.93256383125004,62.0,70.0
837,159.85488533750004,159.93524240000002,54.0,56.0
838,159.42631433750003,159.94595667500002,50.0,66.0
839,159.42631433750003,160.17988501250002,66.0,67.0
840,160.2834563375,160.6834559375,59.0,66.0
841,160.2834563375,160.69863449375003,68.0,72.0
842,160.2834563375,160.71917018750003,64.0,69.0
843,160.2834563375,161.09149124375003,40.0,75.0
844,160.71202733750002,161.16738402500002,47.0,50.0
845,161.14059833750002,161.24238395000003,61.0,64.0
846,161.14059833750002,161.28702676250003,68.0,76.0
847,161.14059833750002,161.60934786875004,52.0,54.0
848,161.56916933750003,161.67006209375003,54.0,62.0
849,161.56916933750003,161.67541923125003,64.0,63.0
850,161.56916933750003,161.69684778125003,71.0,70.0
851,161.99774033750003,162.26649006875002,66.0,41.0
852,161.99774033750003,162.71202533750002,73.0,70.0
853,161.99774033750003,162.80131096250003,42.0,69.0
854,162.42631133750004,162.83702521250004,49.0,39.0
855,162.85488233750002,163.11470350625004,73.0,72.0
856,163.06916783750003,163.27184620625002,71.0,75.0
857,162.85488233750002,163.30666760000003,54.0,49.0
858,163.28345333750002,163.37006039375004,56.0,70.0
859,163.28345333750002,163.49506026875002,69.0,69.0
860,163.49773883750004,163.73523860000003,68.0,64.0
861,163.71202433750003,164.18880957500002,66.0,66.0
862,164.78345183750002,164.92363026875003,57.0,75.0
863,163.71202433750003,165.09416581250002,38.0,72.0
864,164.9977373375,165.17005859375,62.0,67.0
865,164.56916633750004,165.19327285625002,50.0,66.0
866,164.14059533750003,165.43077261875,45.0,47.0
867,165.21202283750003,165.45130831250003,69.0,67.0
868,165.42630833750002,166.11559336250002,68.0,67.0
869,165.42630833750002,166.11648621875003,59.0,69.0
870,165.42630833750002,166.14148619375,64.0,69.0
871,166.28345033750003,166.59237860000002,59.0,63.0
872,166.28345033750003,166.64059283750004,64.0,70.0
873,166.28345033750003,166.6638071,68.0,66.0
874,165.42630833750002,166.68255708125002,40.0,67.0
875,166.28345033750003,166.85041405625003,52.0,48.0
876,166.71202133750003,166.94148539375,66.0,62.0
877,165.85487933750002,167.02719959375003,47.0,59.0
878,166.92630683750002,167.09773523750002,68.0,63.0
879,167.14059233750004,167.25934221875002,69.0,54.0
880,167.14059233750004,167.55666335000004,66.0,78.0
881,167.14059233750004,167.57362761875004,61.0,69.0
882,167.99773433750002,168.20041270625003,56.0,75.0
883,168.21201983750004,168.34148399375002,57.0,57.0
884,167.14059233750004,168.38434109375004,42.0,73.0
885,167.78344883750003,168.42541248125002,54.0,55.0
886,168.42630533750003,168.58434089375004,61.0,80.0
887,167.56916333750002,168.68969793125004,49.0,48.0
888,168.6405908375,168.94862624375003,66.0,69.0
889,168.85487633750003,169.09059038750001,50.0,78.0
890,168.85487633750003,169.30487588750003,57.0,80.0
891,168.85487633750003,169.30576874375004,62.0,75.0
892,168.85487633750003,169.31023302500003,38.0,72.0
893,168.85487633750003,169.32094730000003,54.0,76.0
894,169.28344733750004,169.41737577500004,50.0,70.0
895,169.49773283750002,169.63969698125004,57.0,49.0
896,169.7120183375,170.15130361250002,56.0,88.0
897,169.7120183375,170.15844646250002,64.0,75.0
898,169.7120183375,170.1620178875,59.0,80.0
899,169.7120183375,170.23969638125,40.0,80.0
900,170.14058933750002,170.53880322500004,52.0,70.0
901,170.56916033750002,170.93165997500003,42.0,82.0
902,170.78344583750004,171.00844561250003,49.0,61.0
903,170.56916033750002,171.10398123125003,57.0,82.0
904,170.56916033750002,171.22898110625002,61.0,82.0
905,170.99773133750003,171.29505246875001,54.0,56.0
906,170.56916033750002,171.48433799375002,66.0,76.0
907,171.21201683750002,171.63523070000002,56.0,60.0
908,171.42630233750003,171.66648066875004,57.0,67.0
909,171.64058783750002,171.96290894375002,59.0,62.0
910,171.85487333750004,172.13344448750001,61.0,66.0
911,172.06915883750003,172.32273001250002,66.0,70.0
912,172.28344433750001,172.62987256250003,40.0,72.0
913,172.49772983750003,172.72183675625,47.0,64.0
914,172.28344433750001,172.73344388750002,57.0,75.0
915,172.28344433750001,172.96826508125002,64.0,78.0
916,172.71201533750002,172.99058648750002,52.0,58.0
917,173.14058633750003,173.41290749375003,56.0,51.0
918,172.92630083750004,173.43076461875003,54.0,56.0
919,173.3548718375,173.50755025625003,59.0,66.0
920,173.56915733750003,173.82540708125003,64.0,76.0
921,173.78344283750002,174.07451397500003,69.0,75.0
922,173.99772833750004,174.39862079375,57.0,85.0
923,173.99772833750004,174.43969218125002,62.0,72.0
924,173.99772833750004,174.45754930625003,66.0,73.0
925,173.99772833750004,174.57272776250002,38.0,73.0
926,174.42629933750004,174.73254903125002,50.0,60.0
927,174.21201383750002,174.83790606875002,45.0,66.0
928,174.64058483750003,174.89504886875002,69.0,73.0
929,174.85487033750002,175.20933426875004,40.0,70.0
930,175.06915583750003,175.29058418750003,47.0,63.0
931,174.85487033750002,175.42540548125004,59.0,95.0
932,174.85487033750002,175.52808395000002,64.0,93.0
933,174.85487033750002,175.67719094375002,68.0,91.0
934,175.28344133750002,175.68254808125002,52.0,76.0
935,175.49772683750004,175.71469090625,54.0,62.0
936,175.71201233750003,176.01647631875002,61.0,72.0
937,175.71201233750003,176.04147629375004,45.0,72.0
938,175.71201233750003,176.04594057500003,64.0,69.0
939,175.71201233750003,176.08701196250001,69.0,80.0
940,175.92629783750002,176.17629758750002,52.0,70.0
941,176.14058333750003,176.39326165625002,57.0,66.0
942,176.56915433750004,176.81558266250002,61.0,73.0
943,176.35486883750002,176.82897550625003,59.0,61.0
944,176.78343983750003,176.93433254375003,81.0,72.0
945,176.99772533750001,177.17093945000002,80.0,76.0
946,177.21201083750003,177.41379635000004,76.0,73.0
947,177.42629633750002,177.763796,42.0,72.0
948,177.64058183750004,177.83076021875002,49.0,64.0
949,177.85486733750002,178.12986706250004,54.0,54.0
950,177.42629633750002,178.23790266875002,69.0,78.0
951,177.42629633750002,178.26558121250002,61.0,80.0
952,177.42629633750002,178.26736692500003,66.0,80.0
953,178.0691528375,178.56379520000002,56.0,67.0
954,178.28343833750003,178.56558091250002,57.0,69.0
955,178.49772383750002,178.65575939375003,61.0,80.0
956,178.71200933750004,179.02718759375003,66.0,62.0
957,178.92629483750002,179.05575899375003,69.0,75.0
958,179.14058033750004,179.48522285,40.0,69.0
959,179.35486583750003,179.58432989375004,47.0,66.0
960,179.14058033750004,179.79950825000003,59.0,73.0
961,179.56915133750002,179.84147249375002,52.0,61.0
962,179.14058033750004,180.04772228750002,64.0,70.0
963,179.14058033750004,180.05754370625002,68.0,57.0
964,179.78343683750003,180.21468640625002,54.0,62.0
965,179.99772233750002,180.22004354375002,56.0,73.0
966,180.21200783750004,180.37540053125002,59.0,69.0
967,180.42629333750003,180.74325730625003,64.0,76.0
968,180.64057883750002,180.81557866250003,69.0,70.0
969,180.85486433750003,181.22093540000003,57.0,78.0
970,180.85486433750003,181.39236380000003,66.0,88.0
971,180.85486433750003,181.46914943750002,62.0,80.0
972,181.39057808750002,181.50039940625004,57.0,58.0
973,180.85486433750003,181.55664935000001,38.0,70.0
974,181.28343533750004,181.67004209375003,50.0,59.0
975,181.60486358750003,181.92897040625002,57.0,78.0
976,181.60486358750003,181.93164897500003,66.0,78.0
977,181.60486358750003,181.95129181250002,62.0,82.0
978,181.81914908750002,182.14057733750002,38.0,32.0
979,181.92629183750003,182.19772013750003,50.0,61.0
980,181.06914983750002,182.24325580625003,45.0,76.0
981,182.14057733750002,182.25932721875003,62.0,54.0
982,182.14057733750002,182.32718429375004,57.0,78.0
983,182.35486283750004,182.43700561250003,62.0,49.0
984,182.35486283750004,182.47807700000004,66.0,73.0
985,182.56914833750002,182.70129106250002,61.0,75.0
986,182.56914833750002,182.71736247500002,59.0,78.0
987,182.56914833750002,182.76736242500002,37.0,70.0
988,182.78343383750004,183.06200498750002,49.0,66.0
989,182.99771933750003,183.11736207500002,52.0,62.0
990,182.56914833750002,183.18432629375002,68.0,80.0
991,182.56914833750002,183.27004049375003,66.0,91.0
992,182.99771933750003,183.50218311875003,54.0,49.0
993,183.21200483750002,183.51468310625003,56.0,70.0
994,183.42629033750003,183.59504016875002,61.0,88.0
995,183.64057583750002,183.91646841875001,66.0,91.0
996,183.85486133750004,184.08521825000003,68.0,75.0
997,184.06914683750003,184.13789676875004,73.0,50.0
998,184.06914683750003,184.14503961875002,71.0,45.0
999,184.28343233750002,184.42093220000004,71.0,70.0
1000,184.28343233750002,184.42450362500003,69.0,73.0
1001,184.28343233750002,184.67003909375003,42.0,76.0
1002,184.49771783750003,184.70486048750004,69.0,48.0
1003,184.49771783750003,184.73611045625003,49.0,67.0
1004,184.28343233750002,184.74325330625004,61.0,66.0
1005,184.71200333750002,185.00753875625003,54.0,59.0
1006,184.92628883750004,185.01914588750003,61.0,80.0
1007,184.92628883750004,185.02986016250003,69.0,78.0
1008,185.14057433750003,185.41825263125003,69.0,88.0
1009,185.14057433750003,185.44950260000002,61.0,85.0
1010,185.35485983750002,185.50753825625003,57.0,76.0
1011,184.92628883750004,185.50843111250003,56.0,54.0
1012,185.35485983750002,185.56200248750002,68.0,72.0
1013,185.56914533750003,185.96378780000003,66.0,93.0
1014,185.99771633750004,186.26914463750003,40.0,72.0
1015,185.99771633750004,186.36735882500003,59.0,64.0
1016,186.21200183750003,186.42807305000002,47.0,67.0
1017,185.99771633750004,186.44593017500003,64.0,75.0
1018,185.99771633750004,186.56557291250002,68.0,72.0
1019,186.42628733750004,186.69682278125003,52.0,59.0
1020,187.06914383750004,187.19325085625002,69.0,85.0
1021,186.85485833750002,187.22985796250003,56.0,70.0
1022,186.64057283750003,187.25307222500004,54.0,55.0
1023,187.28342933750002,187.48164342500002,71.0,91.0
1024,187.49771483750004,187.65485753750002,76.0,60.0
1025,187.71200033750003,188.18610700625004,66.0,66.0
1026,187.71200033750003,188.23074981875004,50.0,70.0
1027,187.71200033750003,188.25396408125002,73.0,69.0
1028,188.14057133750003,188.38878537500003,62.0,78.0
1029,187.92628583750002,188.43253533125002,57.0,66.0
1030,188.35485683750002,188.44949960000002,66.0,73.0
1031,188.35485683750002,188.76289214375004,74.0,69.0
1032,188.56914233750004,188.92092770000002,64.0,91.0
1033,188.56914233750004,188.95217766875004,73.0,62.0
1034,188.56914233750004,188.99860619375002,52.0,69.0
1035,188.78432069375003,188.99860619375002,59.0,69.0
1036,188.99860619375002,189.23610595625001,69.0,85.0
1037,189.21199883750003,189.37449867500004,71.0,80.0
1038,189.42628433750002,189.72717689375003,73.0,69.0
1039,189.42628433750002,189.73521260000004,69.0,78.0
1040,189.42628433750002,189.76199828750003,64.0,63.0
1041,189.85485533750003,190.11735507500003,57.0,58.0
1042,190.06914083750002,190.17539073125002,61.0,64.0
1043,190.06914083750002,190.22806925000003,69.0,66.0
1044,190.28342633750003,190.31378345000002,69.0,43.0
1045,190.28342633750003,190.51646181875003,59.0,82.0
1046,189.64056983750004,190.60485458750003,52.0,67.0
1047,190.28342633750003,190.77092585000003,68.0,78.0
1048,190.49771183750002,190.79949725000003,57.0,48.0
1049,190.71199733750004,190.86289004375004,52.0,73.0
1050,190.71199733750004,190.86824718125004,61.0,62.0
1051,189.42628433750002,190.93342568750003,45.0,73.0
1052,190.71199733750004,190.96646136875003,69.0,76.0
1053,190.92628283750003,191.08253268125003,66.0,61.0
1054,191.14056833750004,191.45128231250004,42.0,70.0
1055,191.35485383750003,191.55931791875003,49.0,62.0
1056,191.14056833750004,191.83610335625002,61.0,76.0
1057,191.56913933750002,191.84235335000002,54.0,63.0
1058,191.14056833750004,191.91378185000002,69.0,78.0
1059,191.14056833750004,192.07003169375002,66.0,78.0
1060,191.99771033750002,192.20485298750003,57.0,64.0
1061,191.78342483750004,192.24056723750002,56.0,50.0
1062,192.21199583750004,192.34592427500002,61.0,95.0
1063,192.42628133750003,192.65931681875003,66.0,80.0
1064,192.64056683750002,192.80663810000004,69.0,80.0
1065,192.85485233750003,193.24145909375002,40.0,57.0
1066,193.06913783750002,193.26824478125002,47.0,41.0
1067,193.28342333750004,193.57538733125003,52.0,59.0
1068,192.85485233750003,193.74413716250004,59.0,76.0
1069,192.85485233750003,193.75217286875002,64.0,85.0
1070,192.85485233750003,193.75574429375004,68.0,91.0
1071,193.49770883750003,193.94145839375003,54.0,56.0
1072,193.71199433750002,193.94324410625003,56.0,76.0
1073,193.92627983750003,194.06288684375002,59.0,80.0
1074,194.14056533750002,194.45127931250002,64.0,82.0
1075,194.35485083750004,194.60127916250002,69.0,66.0
1076,194.56913633750003,194.85842176250003,38.0,67.0
1077,194.78342183750004,194.96199308750002,45.0,69.0
1078,194.99770733750003,195.28074276875003,50.0,60.0
1079,194.56913633750003,195.38967123125002,66.0,85.0
1080,194.56913633750003,195.41824263125002,57.0,78.0
1081,194.56913633750003,195.45038545625002,62.0,91.0
1082,195.21199283750002,195.54413536250004,52.0,61.0
1083,195.42627833750004,195.58520675000003,54.0,76.0
1084,195.64056383750003,195.76467085625004,57.0,85.0
1085,195.85484933750004,196.04145629375003,62.0,91.0
1086,196.06913483750003,196.32538458125003,66.0,70.0
1087,196.28342033750002,196.65663425000002,68.0,82.0
1088,197.14056233750003,197.33341928750002,66.0,72.0
1089,197.35484783750002,197.45216916875003,68.0,69.0
1090,197.56913333750003,197.82002594375004,73.0,82.0
1091,196.28342033750002,197.85841876250004,49.0,67.0
1092,196.92627683750004,197.86466875625004,61.0,73.0
1093,197.78341883750002,197.98877577500002,78.0,69.0
1094,196.71199133750002,198.95395338125002,56.0,52.0
1095,197.99770433750004,198.95841766250004,80.0,67.0
1096,197.99770433750004,199.00573904375003,73.0,72.0
1097,196.49770583750004,199.02448902500004,54.0,61.0
1098,197.99770433750004,199.07806040000003,49.0,45.0
1099,199.71198833750003,200.20484498750002,61.0,73.0
1100,199.71198833750003,200.21823783125004,57.0,75.0
1101,200.14055933750004,200.63788026875002,49.0,40.0
1102,200.56913033750004,201.00216561875004,56.0,64.0
1103,200.56913033750004,201.02270131250003,54.0,46.0
1104,200.56913033750004,201.02448702500004,61.0,69.0
1105,200.56913033750004,201.05216556875004,57.0,69.0
1106,201.42627233750002,202.18877157500003,54.0,38.0
1107,201.42627233750002,202.39234280000002,61.0,44.0
1108,201.42627233750002,202.39323565625003,56.0,43.0
1109,201.42627233750002,202.40930706875002,57.0,51.0
1110,199.71198833750003,203.10662780000004,42.0,75.0
1111,200.99770133750002,203.14055633750004,49.0,43.0
1112,202.39055708750004,203.14055633750004,54.0,33.0
1113,203.14055633750004,203.50305597500002,42.0,67.0
1114,203.35484183750003,203.55662735000004,49.0,47.0
1115,203.14055633750004,203.78698426250003,69.0,72.0
1116,203.56912733750002,203.83609135625002,54.0,44.0
1117,203.99769833750003,204.22180525625004,57.0,63.0
1118,203.78341283750004,204.24859094375003,56.0,58.0
1119,204.21198383750004,204.34323370625003,61.0,69.0
1120,204.42626933750003,204.63876912500004,66.0,73.0
1121,204.64055483750002,204.81823323125002,69.0,73.0
1122,204.85484033750004,205.15662575000002,40.0,70.0
1123,205.06912583750002,205.26376850000003,47.0,53.0
1124,205.28341133750004,205.54055393750002,52.0,42.0
1125,204.85484033750004,205.71108948125004,68.0,78.0
1126,205.49769683750003,205.90930356875003,54.0,59.0
1127,205.71198233750002,205.91733927500002,56.0,66.0
1128,205.92626783750003,206.06287484375002,59.0,70.0
1129,206.14055333750002,206.33608885625003,64.0,76.0
1130,206.56912433750003,206.87715974375004,66.0,73.0
1131,206.35483883750004,206.88162402500004,69.0,72.0
1132,206.78340983750005,206.93162397500004,57.0,67.0
1133,206.56912433750003,207.08430239375002,38.0,72.0
1134,206.99769533750003,207.21555226250004,62.0,70.0
1135,206.99769533750003,207.22448082500003,50.0,44.0
1136,206.78340983750005,207.47001629375004,45.0,60.0
1137,207.21198083750002,207.47269486250002,69.0,72.0
1138,207.42626633750004,207.68519465000003,68.0,67.0
1139,207.42626633750004,207.88162302500004,40.0,72.0
1140,207.64055183750003,207.94055153750003,47.0,63.0
1141,207.64055183750003,207.95751580625003,59.0,62.0
1142,207.85483733750004,208.08965853125002,64.0,70.0
1143,207.85483733750004,208.21733697500002,52.0,60.0
1144,208.06912283750003,208.26465835625004,68.0,66.0
1145,208.28340833750002,208.42358676875003,61.0,57.0
1146,208.28340833750002,208.57001519375004,64.0,64.0
1147,208.28340833750002,208.57269376250002,45.0,67.0
1148,208.28340833750002,208.65305082500004,69.0,75.0
1149,208.49769383750004,208.72537218125004,52.0,64.0
1150,208.71197933750003,208.98608620625004,57.0,66.0
1151,208.92626483750004,209.29680018125003,59.0,54.0
1152,209.14055033750003,209.30305017500004,61.0,73.0
1153,209.14055033750003,209.41465720625004,81.0,80.0
1154,209.35483583750002,209.52983566250003,80.0,59.0
1155,209.56912133750004,209.74679973125004,76.0,64.0
1156,209.78340683750002,210.09322795625002,73.0,70.0
1157,209.99769233750004,210.32001344375004,81.0,72.0
1158,209.99769233750004,210.32715629375002,42.0,70.0
1159,210.21197783750003,210.42358476875003,49.0,67.0
1160,210.42626333750002,210.72179875625002,54.0,50.0
1161,210.85483433750002,211.10572694375003,57.0,69.0
1162,210.64054883750003,211.10840551250004,56.0,66.0
1163,211.06911983750004,211.20572684375003,61.0,67.0
1164,211.28340533750003,211.49233370000002,66.0,82.0
1165,211.49769083750004,211.65572639375003,69.0,63.0
1166,211.71197633750003,212.10215451875004,40.0,73.0
1167,211.92626183750002,212.13429734375003,49.0,53.0
1168,211.71197633750003,212.33161857500002,59.0,66.0
1169,212.14054733750004,212.42090420000002,52.0,69.0
1170,211.71197633750003,212.46108273125003,64.0,72.0
1171,211.71197633750003,212.46376130000004,68.0,63.0
1172,212.35483283750003,212.67893965625004,54.0,40.0
1173,212.56911833750004,212.70840391250005,59.0,75.0
1174,212.78340383750003,212.91465370625002,64.0,82.0
1175,212.99768933750002,213.18876057500003,66.0,78.0
1176,213.42626033750003,213.81108138125003,38.0,72.0
1177,213.21197483750004,213.82715279375003,69.0,73.0
1178,213.64054583750004,213.87268846250004,45.0,75.0
1179,213.42626033750003,213.89411701250003,66.0,76.0
1180,213.42626033750003,213.94233125000002,57.0,93.0
1181,213.42626033750003,214.08161682500003,62.0,88.0
1182,213.85483133750003,214.13608105625002,50.0,95.0
1183,214.28340233750004,214.50125926250004,57.0,95.0
1184,214.39054508750004,214.52983066250002,54.0,91.0
1185,214.28340233750004,214.55483063750003,62.0,101.0
1186,214.28340233750004,214.56197348750004,66.0,103.0
1187,214.06911683750002,214.58965203125004,52.0,72.0
1188,214.71197333750004,214.89233030000003,57.0,88.0
1189,214.92625883750003,215.10572294375004,66.0,63.0
1190,215.14054433750005,215.26911563750002,61.0,93.0
1191,215.14054433750005,215.30393703125003,37.0,80.0
1192,215.14054433750005,215.36643696875004,59.0,93.0
1193,215.35482983750003,215.62179385625004,49.0,75.0
1194,215.14054433750005,215.77000799375003,68.0,75.0
1195,215.14054433750005,215.84590077500002,66.0,75.0
1196,215.78340083750004,215.93161497500003,56.0,76.0
1197,215.56911533750002,215.94054353750002,54.0,93.0
1198,215.99768633750003,216.09768623750003,66.0,99.0
1199,215.99768633750003,216.16375760000003,61.0,95.0
1200,216.21197183750004,216.26643606875004,61.0,40.0
1201,216.21197183750004,216.38518595000002,66.0,99.0
1202,216.42625733750003,216.49143584375003,61.0,48.0
1203,216.42625733750003,216.64500711875004,68.0,59.0
1204,216.42625733750003,216.67179280625004,37.0,78.0
1205,216.64054283750002,216.70929276875003,61.0,51.0
1206,216.64054283750002,216.79589982500002,65.0,103.0
1207,216.64054283750002,216.80572124375004,49.0,78.0
1208,216.85482833750004,217.15482803750004,61.0,95.0
1209,216.85482833750004,217.18607800625003,42.0,76.0
1210,216.85482833750004,217.20304227500003,69.0,91.0
1211,216.85482833750004,217.20393513125003,66.0,99.0
1212,217.06911383750003,217.28697076250003,49.0,75.0
1213,217.49768483750003,217.55929191875003,80.0,70.0
1214,217.28339933750004,217.56286334375002,54.0,78.0
1215,217.49768483750003,217.56822048125002,81.0,67.0
1216,217.49768483750003,217.59768473750003,73.0,88.0
1217,217.71197033750002,217.82804165000005,73.0,91.0
1218,217.71197033750002,217.90036300625005,81.0,91.0
1219,217.92625583750004,218.04679143125003,71.0,61.0
1220,217.92625583750004,218.05661285000002,57.0,76.0
1221,217.92625583750004,218.08607710625003,80.0,70.0
1222,217.49768483750003,218.10571994375005,56.0,69.0
1223,218.14054133750003,218.35482683750004,78.0,101.0
1224,218.35482683750004,218.39411251250004,80.0,51.0
1225,218.35482683750004,218.62446942500003,81.0,73.0
1226,218.56911233750003,218.87536203125003,40.0,70.0
1227,218.78339783750002,218.98875477500005,47.0,66.0
1228,218.56911233750003,219.07446897500003,71.0,88.0
1229,218.56911233750003,219.08250468125004,76.0,91.0
1230,218.56911233750003,219.10036180625002,80.0,78.0
1231,218.99768333750004,219.28161162500004,52.0,66.0
1232,219.42625433750004,219.62000414375004,56.0,73.0
1233,219.21196883750002,219.66286124375003,54.0,58.0
1234,219.53339708750002,219.68875407500002,59.0,88.0
1235,219.64053983750003,219.84768248750004,62.0,67.0
1236,219.85482533750005,219.94321810625004,68.0,53.0
1237,219.74768258750004,219.96375380000003,64.0,49.0
1238,219.85482533750005,219.98518235000003,66.0,35.0
1239,219.96196808750003,220.14232505000004,69.0,78.0
1240,220.28339633750002,220.70125306250003,57.0,101.0
1241,220.06911083750003,220.75750300625003,66.0,72.0
1242,220.28339633750002,220.77000299375004,62.0,93.0
1243,220.28339633750002,220.91643141875002,38.0,73.0
1244,220.71196733750003,221.03607415625004,50.0,72.0
1245,220.92625283750004,221.05303842500004,57.0,70.0
1246,220.49768183750004,221.08428839375003,45.0,66.0
1247,220.92625283750004,221.17089545000005,69.0,40.0
1248,221.14053833750003,221.57535933125004,59.0,95.0
1249,221.14053833750003,221.62893070625003,40.0,78.0
1250,221.14053833750003,221.64410926250002,64.0,85.0
1251,221.14053833750003,221.65750210625004,68.0,78.0
1252,221.35482383750002,221.67000209375004,47.0,69.0
1253,221.57000219375004,221.88339473750003,52.0,85.0
1254,221.78339483750003,221.99053748750003,66.0,38.0
1255,221.89053758750003,222.02089460000002,68.0,66.0
1256,221.99768033750004,222.20571584375003,61.0,82.0
1257,221.99768033750004,222.25303722500004,64.0,82.0
1258,221.99768033750004,222.29678718125004,69.0,80.0
1259,221.99768033750004,222.40303707500004,45.0,88.0
1260,222.21196583750003,222.44857274375002,52.0,62.0
1261,222.42625133750002,222.70482248750002,57.0,78.0
1262,222.85482233750002,223.08696496250002,61.0,85.0
1263,222.64053683750004,223.12178635625003,59.0,57.0
1264,223.06910783750004,223.23160767500002,73.0,88.0
1265,223.06910783750004,223.34142899375004,81.0,76.0
1266,223.28339333750003,223.48250028125003,80.0,70.0
1267,223.49767883750005,223.61732157500003,78.0,78.0
1268,223.71196433750004,223.97357121875004,42.0,70.0
1269,223.92624983750002,224.11553536250003,49.0,72.0
1270,224.14053533750004,224.45035645625003,54.0,55.0
1271,223.71196433750004,224.50928496875002,61.0,80.0
1272,223.71196433750004,224.61464200625002,69.0,80.0
1273,223.71196433750004,224.61910628750005,66.0,80.0
1274,224.56910633750005,224.82446322500004,57.0,78.0
1275,224.35482083750003,224.85035605625004,56.0,67.0
1276,224.78339183750003,224.92535598125002,61.0,95.0
1277,224.99767733750002,225.18071286875002,66.0,91.0
1278,225.42624833750003,225.72535518125002,40.0,70.0
1279,225.64053383750004,225.83249793125003,47.0,69.0
1280,225.85481933750003,226.15035475625004,52.0,45.0
1281,225.42624833750003,226.18517615000005,59.0,88.0
1282,225.42624833750003,226.22446182500002,64.0,88.0
1283,225.21196283750004,226.23339038750004,69.0,82.0
1284,225.42624833750003,226.42714019375003,68.0,76.0
1285,226.28339033750004,226.51731867500004,56.0,52.0
1286,226.06910483750002,226.56196148750004,54.0,52.0
1287,226.49767583750003,226.65481853750003,59.0,88.0
1288,226.71196133750004,227.00035390625004,64.0,88.0
1289,226.92624683750003,227.07267526250004,66.0,69.0
1290,227.14053233750005,227.45660345000005,38.0,73.0
1291,227.35481783750004,227.57088905000003,45.0,73.0
1292,227.56910333750002,227.83071021875003,50.0,73.0
1293,227.14053233750005,227.99678148125003,69.0,78.0
1294,227.14053233750005,228.00838861250003,57.0,80.0
1295,227.14053233750005,228.02267431250004,62.0,91.0
1296,227.14053233750005,228.08785281875004,66.0,80.0
1297,227.78338883750004,228.12624563750003,52.0,72.0
1298,227.99767433750003,228.13338848750004,54.0,91.0
1299,228.21195983750005,228.35124541250002,57.0,88.0
1300,228.42624533750003,228.64588797500002,62.0,75.0
1301,228.64053083750002,228.74678073125003,66.0,69.0
1302,228.81642351875004,228.91820913125002,61.0,48.0
1303,228.80392353125004,228.92445912500003,59.0,45.0
1304,228.85928061875003,229.06374470000003,37.0,66.0
1305,229.05660185000002,229.31910158750003,49.0,59.0
1306,228.87535203125003,229.50660140000002,68.0,91.0
1307,229.46106573125005,229.89588672500003,56.0,72.0
1308,229.26195878750002,229.91374385000003,54.0,95.0
1309,229.68249408125004,229.97177950625004,61.0,85.0
1310,229.90035100625005,230.18338643750005,66.0,101.0
1311,230.12802935000002,230.42713619375004,68.0,78.0
1312,230.37892195625003,230.43606475625003,73.0,36.0
1313,230.56285034375003,231.61552786250004,37.0,70.0
1314,230.54945750000005,231.62356356875003,65.0,101.0
1315,230.55838606250003,231.66642066875002,73.0,85.0
1316,230.56999319375004,231.74588487500003,49.0,72.0
1317,230.55660035000002,231.74856344375004,61.0,76.0
1318,232.29320575625005,232.80927666875004,61.0,76.0
1319,232.28695576250004,232.86195518750003,66.0,82.0
1320,232.29409861250002,232.86463375625004,69.0,66.0
1321,232.30392003125004,233.08249068125002,42.0,67.0
1322,232.65659825000003,233.11999064375004,49.0,56.0
1323,233.11463350625004,233.35213326875004,61.0,64.0
1324,233.10838351250004,233.43070461875004,66.0,64.0
1325,233.11016922500002,233.43249033125002,69.0,69.0
1326,233.13159777500005,233.71284719375004,54.0,44.0
1327,234.02623973750002,234.93070311875005,78.0,56.0
1328,233.54499021875003,234.95748880625004,56.0,52.0
1329,234.01552546250002,234.97088165000002,90.0,62.0
1330,234.02713259375003,234.97266736250003,57.0,61.0
1331,235.28338133750003,235.69855949375003,92.0,67.0
1332,235.71195233750004,236.10213051875004,93.0,63.0
1333,236.56909433750005,236.93070111875002,66.0,48.0
1334,235.71195233750004,236.96998679375002,54.0,70.0
1335,236.78337983750004,236.98962963125004,81.0,46.0
1336,236.14052333750004,237.09855809375003,61.0,42.0
1337,236.99766533750002,237.12177235625003,85.0,54.0
1338,237.21195083750004,237.45212916875005,93.0,82.0
1339,237.42623633750003,238.12623563750003,92.0,76.0
1340,237.85480733750003,238.57891375625005,61.0,49.0
1341,238.28337833750004,238.61284229375005,64.0,46.0
1342,238.49766383750003,238.69319935625003,81.0,49.0
1343,238.71194933750004,238.84587777500005,83.0,44.0
1344,238.92623483750003,239.16016317500004,90.0,66.0
1345,237.42623633750003,239.19677028125002,52.0,69.0
1346,239.14052033750002,239.99319805625004,88.0,58.0
1347,239.99766233750003,240.32891200625002,61.0,53.0
1348,240.21194783750005,240.34141199375003,80.0,57.0
1349,239.56909133750003,240.37801910000005,57.0,32.0
1350,239.14052033750002,240.44676903125003,50.0,72.0
1351,240.42623333750004,240.57266176250005,86.0,70.0
1352,240.64051883750003,240.80659010000002,85.0,76.0
1353,240.85480433750004,241.57533933125004,47.0,73.0
1354,241.28337533750005,241.70123206250003,54.0,38.0
1355,240.85480433750004,241.78783911875004,86.0,64.0
1356,241.92623183750004,242.01641031875005,78.0,85.0
1357,241.92623183750004,242.01998174375004,81.0,97.0
1358,242.14051733750003,242.25391008125004,78.0,80.0
1359,241.71194633750002,242.27444577500003,59.0,50.0
1360,242.14051733750003,242.27801720000002,81.0,93.0
1361,242.35480283750005,242.45301702500004,80.0,73.0
1362,242.35480283750005,242.49944555000005,83.0,78.0
1363,242.14051733750003,242.57176690625005,61.0,60.0
1364,242.35480283750005,242.65390968125004,66.0,60.0
1365,242.56908833750003,242.72087390000004,68.0,66.0
1366,242.56908833750003,242.93873082500002,69.0,51.0
1367,242.56908833750003,243.38069466875004,85.0,76.0
1368,242.56908833750003,243.41908748750004,81.0,91.0
1369,242.99765933750004,243.66105153125002,61.0,44.0
1370,243.64051583750003,243.84676563125004,81.0,46.0
1371,243.42623033750004,243.85480133750005,66.0,51.0
1372,243.85480133750005,243.97980121250004,85.0,54.0
1373,242.56908833750003,244.02087260000005,54.0,70.0
1374,243.42623033750004,244.10926536875004,71.0,61.0
1375,243.42623033750004,244.12533678125004,68.0,60.0
1376,243.74765858750004,244.20033670625003,61.0,44.0
1377,244.06997969375004,244.23872952500002,78.0,95.0
1378,244.06997969375004,244.25569379375003,81.0,78.0
1379,244.28337233750003,244.84765748750004,68.0,70.0
1380,244.28337233750003,244.93515740000004,71.0,69.0
1381,244.28337233750003,245.16015717500002,76.0,91.0
1382,244.28337233750003,245.16015717500002,80.0,80.0
1383,245.14051433750004,245.42176405625003,66.0,61.0
1384,244.92622883750005,245.47890685625003,64.0,54.0
1385,244.71194333750003,245.49229970000005,61.0,48.0
1386,245.35479983750002,245.52444252500004,68.0,61.0
1387,245.35479983750002,245.55033535625003,81.0,49.0
1388,245.56908533750004,245.70301377500004,83.0,44.0
1389,245.56908533750004,245.76819228125004,69.0,60.0
1390,244.28337233750003,245.93604925625004,52.0,61.0
1391,245.78337083750003,245.94944210000003,80.0,72.0
1392,245.78337083750003,245.95926351875005,76.0,95.0
1393,245.78337083750003,246.01551346250002,71.0,57.0
1394,245.99854919375002,246.49676298125004,69.0,70.0
1395,245.99854919375002,246.51283439375004,66.0,63.0
1396,246.42622733750002,247.10033380625003,57.0,38.0
1397,245.99854919375002,247.14586947500004,74.0,91.0
1398,245.99854919375002,247.17354801875004,78.0,80.0
1399,247.06908383750005,247.19854799375003,80.0,57.0
1400,246.85479833750003,247.28872647500003,62.0,47.0
1401,246.85479833750003,247.31908358750005,64.0,59.0
1402,246.85479833750003,247.36461925625002,66.0,58.0
1403,246.85479833750003,247.40122636250004,69.0,63.0
1404,245.99854919375002,247.43961918125004,50.0,58.0
1405,247.28336933750003,247.57354761875004,57.0,42.0
1406,247.71194033750004,248.44051103750004,73.0,59.0
1407,247.71194033750004,248.44051103750004,73.0,70.0
1408,248.19586842500004,248.60747515625005,61.0,71.0
1409,248.56818948125004,248.81104638125004,73.0,76.0
1410,247.71194033750004,249.10747465625005,65.0,70.0
1411,248.58604660625002,249.10747465625005,65.0,75.0
1412,247.71194033750004,249.25747450625005,68.0,69.0
1413,249.01104618125004,249.25747450625005,68.0,81.0
1414,247.71194033750004,249.27265306250004,37.0,70.0
1415,247.71194033750004,249.27801020000004,49.0,63.0
1416,249.41729577500004,249.65211696875005,73.0,81.0
1417,249.82265251250004,250.26550921250004,77.0,82.0
1418,250.24497351875004,250.54408036250004,80.0,83.0
1419,250.63872312500004,251.08425839375005,85.0,87.0
1420,251.08425839375005,251.77532913125003,89.0,98.0
1421,252.85479233750004,253.56193448750003,78.0,97.0
1422,252.85479233750004,253.66818438125003,42.0,67.0
1423,253.28336333750005,253.71461290625004,49.0,44.0
1424,252.85479233750004,253.91104128125005,61.0,61.0
1425,252.85479233750004,254.16818388125003,66.0,66.0
1426,253.71193433750003,254.19318385625004,54.0,45.0
1427,252.85479233750004,254.22086240000004,69.0,69.0
1428,254.56907633750004,254.78514755000003,61.0,51.0
1429,254.78336183750002,255.03693301250004,66.0,63.0
1430,254.99764733750004,255.13693291250004,68.0,62.0
1431,255.21193283750003,255.49407541250002,69.0,64.0
1432,255.42621833750005,255.58961103125003,73.0,48.0
1433,254.35479083750005,255.88871787500003,57.0,56.0
1434,254.14050533750003,255.90746785625004,56.0,54.0
