,start,end,pitch,velocity
0,0.11231868333333335,2.726445458333334,57.0,70.0
1,0.11231868333333335,2.8478221000000006,45.0,74.0
2,0.11231868333333335,2.9818798833333338,69.0,75.0
3,0.11231868333333335,3.0217349000000007,60.0,68.0
4,0.11231868333333335,3.045285591666667,64.0,73.0
5,3.590574683333334,6.423904050000001,67.0,77.0
6,3.590574683333334,6.509048858333334,40.0,74.0
7,3.590574683333334,6.509048858333334,64.0,76.0
8,3.590574683333334,6.534411141666667,52.0,66.0
9,3.590574683333334,6.5579618333333345,59.0,65.0
10,3.590574683333334,6.576077750000001,62.0,73.0
11,7.068830683333334,9.692015416666669,65.0,77.0
12,7.068830683333334,9.692015416666669,69.0,81.0
13,7.068830683333334,9.777160225000001,60.0,76.0
14,7.068830683333334,9.864116625000001,53.0,67.0
15,7.068830683333334,9.932957108333335,41.0,67.0
16,10.547086683333335,13.391285600000002,40.0,74.0
17,10.547086683333335,13.485488366666669,52.0,68.0
18,10.547086683333335,13.672082308333335,64.0,76.0
19,10.547086683333335,13.675705491666669,56.0,70.0
20,10.547086683333335,13.693821408333335,59.0,77.0
21,14.894906683333335,16.965555958333336,57.0,72.0
22,14.460124683333335,16.989106650000004,52.0,64.0
23,14.025342683333335,17.03439644166667,45.0,81.0
24,15.329688683333336,17.50178709166667,64.0,77.0
25,15.329688683333336,17.51809141666667,59.0,77.0
26,18.373162683333337,20.364101925000003,64.0,77.0
27,17.503598683333337,20.423884450000003,40.0,83.0
28,17.938380683333335,20.451058325,52.0,69.0
29,18.373162683333337,20.57243496666667,59.0,80.0
30,21.416636683333337,23.657575575000003,52.0,64.0
31,21.851418683333335,23.661198758333338,57.0,69.0
32,20.981854683333335,23.720981283333337,45.0,79.0
33,22.286200683333337,24.45829909166667,60.0,71.0
34,22.286200683333337,24.52895116666667,69.0,74.0
35,25.329674683333337,25.786195783333337,71.0,84.0
36,24.89489268333334,27.220976383333337,59.0,71.0
37,24.460110683333337,27.239092300000003,52.0,78.0
38,25.764456683333336,27.891265300000004,67.0,67.0
39,25.329674683333337,27.94198986666667,64.0,81.0
40,28.80793068333334,28.99814780833334,65.0,77.0
41,28.80793068333334,29.016263725000005,57.0,78.0
42,28.373148683333337,30.980029091666673,53.0,70.0
43,27.93836668333334,30.992710233333337,41.0,81.0
44,29.242712683333338,31.31336195833334,65.0,74.0
45,29.242712683333338,31.32966628333334,60.0,74.0
46,32.72096868333334,32.816983041666674,59.0,74.0
47,33.15575068333334,33.271692550000004,60.0,75.0
48,33.590532683333336,33.71190932500001,64.0,80.0
49,34.02531468333334,34.41661848333334,69.0,77.0
50,31.85140468333334,34.45285031666667,52.0,48.0
51,32.28618668333334,34.48545896666667,57.0,65.0
52,31.416622683333337,34.49814010833334,45.0,79.0
53,34.46009668333334,34.89125550000001,71.0,78.0
54,34.89487868333334,35.081472625,72.0,87.0
55,36.19922468333334,37.11226688333334,64.0,64.0
56,35.764442683333336,37.73545441666667,62.0,70.0
57,35.32966068333334,37.86045424166667,57.0,69.0
58,34.89487868333334,38.01987430833334,50.0,88.0
59,37.06878868333334,38.581467725,65.0,76.0
60,39.24269868333334,39.36769850833334,64.0,75.0
61,38.80791668333334,41.14124675000001,59.0,71.0
62,38.37313468333334,41.22276837500001,52.0,88.0
63,39.67929227500001,41.82965158333334,71.0,77.0
64,39.673857500000004,41.86950660000001,64.0,76.0
65,42.72095468333334,44.60863320000001,57.0,76.0
66,42.28617268333334,44.662980950000005,52.0,67.0
67,41.85139068333334,44.73363302500001,45.0,81.0
68,43.15573668333334,45.11225568333334,59.0,74.0
69,43.15573668333334,45.27529893333334,64.0,71.0
70,45.32964668333334,46.00899355833334,59.0,79.0
71,45.32964668333334,46.03979061666667,67.0,86.0
72,45.32964668333334,46.20826864166667,40.0,82.0
73,45.76442868333334,46.213703416666675,47.0,50.0
74,46.19921068333334,46.271674350000005,52.0,72.0
75,46.63399268333334,48.16116445833334,55.0,74.0
76,46.19921068333334,48.461888675000004,59.0,42.0
77,46.19921068333334,48.530729158333344,64.0,79.0
78,48.80790268333334,49.528916166666676,69.0,85.0
79,48.80790268333334,49.72094488333334,60.0,77.0
80,49.242684683333344,51.82782599166667,52.0,46.0
81,48.80790268333334,51.85137668333334,45.0,69.0
82,49.67746668333334,51.854999866666674,57.0,68.0
83,50.11224868333334,52.235434116666674,60.0,73.0
84,50.11224868333334,52.268042766666674,69.0,75.0
85,53.155722683333344,54.95825639166667,64.0,81.0
86,52.72094068333334,54.96369116666668,59.0,64.0
87,52.28615868333334,55.08144462500001,52.0,83.0
88,53.59050468333334,55.706443750000005,76.0,82.0
89,53.59050468333334,55.76622627500001,67.0,77.0
90,55.76441468333334,56.09593595833334,62.0,84.0
91,55.76441468333334,56.61223958333334,69.0,84.0
92,56.418399275000006,57.03434044166668,72.0,97.0
93,57.068760683333345,57.998107208333344,72.0,97.0
94,56.19919668333334,58.010788350000006,62.0,78.0
95,55.98180568333334,58.44919353333334,57.0,67.0
96,57.068760683333345,58.48361377500001,65.0,78.0
97,55.76441468333334,58.58143972500001,50.0,82.0
98,58.37310668333334,59.22817795000001,69.0,90.0
99,59.242670683333344,60.068756483333345,69.0,88.0
100,59.242670683333344,60.15208970000001,60.0,81.0
101,60.54701668333334,60.94013207500001,69.0,89.0
102,59.89484368333334,62.03252185000001,57.0,79.0
103,59.46006168333334,62.09230437500001,52.0,70.0
104,59.242670683333344,62.35498516666668,45.0,80.0
105,60.54701668333334,62.54701388333334,60.0,88.0
106,60.981798683333345,62.67744848333334,64.0,85.0
107,63.37128809166668,63.77708462500001,69.0,97.0
108,62.938317683333345,63.949185833333345,57.0,84.0
109,63.155708683333344,64.12672181666667,62.0,86.0
110,64.02527268333334,64.66295295,68.0,92.0
111,64.46005468333334,64.99809740833334,57.0,73.0
112,64.46005468333334,65.29882162500002,64.0,85.0
113,65.32961868333334,65.81331365833334,57.0,86.0
114,62.720926683333346,65.86041504166667,50.0,84.0
115,65.76440068333335,66.23360292500001,69.0,90.0
116,67.06874668333334,67.26077540000001,59.0,84.0
117,67.28613768333335,67.94555705,60.0,89.0
118,67.72091968333335,68.12671621666668,64.0,89.0
119,67.72091968333335,68.17744078333334,72.0,94.0
120,66.85135568333334,68.50171569166667,57.0,82.0
121,68.15570168333335,68.65207780000001,64.0,82.0
122,68.15570168333335,68.66113575833334,71.0,89.0
123,68.59048368333335,68.91657018333335,57.0,77.0
124,68.80787468333334,69.31149716666668,69.0,113.0
125,69.24265668333335,69.34954059166668,57.0,86.0
126,66.19918268333335,69.36041014166668,45.0,96.0
127,66.63396468333335,69.38214924166668,52.0,85.0
128,68.80787468333334,69.41475789166668,64.0,94.0
129,69.67743868333335,70.20461185833335,69.0,94.0
130,69.67743868333335,70.28251030000001,65.0,100.0
131,69.67743868333335,70.28432189166668,62.0,96.0
132,69.67743868333335,70.72997344166667,50.0,91.0
133,70.98178468333334,71.11221928333335,50.0,88.0
134,70.54700268333335,71.13758156666668,62.0,102.0
135,70.54700268333335,71.17200180833335,69.0,94.0
136,70.54700268333335,71.34410301666668,65.0,108.0
137,71.41656668333334,72.06149331666668,69.0,91.0
138,71.41656668333334,72.06511650000002,64.0,104.0
139,71.41656668333334,72.07598605000001,60.0,96.0
140,72.06873968333335,72.49446372500002,57.0,84.0
141,71.41656668333334,72.53431874166668,45.0,85.0
142,71.85134868333334,72.56330420833335,52.0,64.0
143,72.28613068333334,72.83685455000001,60.0,102.0
144,72.72091268333334,72.84953569166667,45.0,87.0
145,72.28613068333334,72.89301389166668,69.0,104.0
146,72.28613068333334,72.96910074166668,64.0,110.0
147,73.15569468333335,73.78975176666668,65.0,113.0
148,73.15569468333335,73.79156335833335,60.0,107.0
149,73.15569468333335,73.79699813333335,69.0,100.0
150,73.80786768333334,74.19917148333334,53.0,83.0
151,73.15569468333335,74.63033030000001,41.0,92.0
152,74.02525868333335,74.63395348333334,60.0,104.0
153,74.02525868333335,74.65750417500001,69.0,107.0
154,74.02525868333335,74.69192441666668,65.0,116.0
155,74.46004068333335,74.76257649166668,53.0,83.0
156,74.89482268333335,75.49627111666668,69.0,92.0
157,74.89482268333335,75.51619862500002,64.0,92.0
158,74.89482268333335,75.52163340000001,60.0,88.0
159,75.54699568333335,75.94011107500002,57.0,84.0
160,75.76438668333334,76.25532802500001,64.0,100.0
161,75.76438668333334,76.28974826666668,60.0,90.0
162,76.19916868333334,76.298806225,57.0,87.0
163,75.76438668333334,76.32598010000001,69.0,94.0
164,74.89482268333335,76.34590760833335,45.0,84.0
165,76.63395068333334,77.25894980833334,59.0,92.0
166,76.63395068333334,77.26257299166667,67.0,89.0
167,76.63395068333334,77.26619617500002,62.0,104.0
168,77.28612368333334,77.64844201666668,55.0,75.0
169,76.63395068333334,78.13938335833335,43.0,88.0
170,77.50351468333335,78.19373110833335,67.0,94.0
171,77.50351468333335,78.19554270000002,62.0,108.0
172,77.50351468333335,78.21728180000001,59.0,98.0
173,77.93829668333335,78.40749892500001,55.0,84.0
174,78.37307868333335,78.99083144166669,59.0,92.0
175,78.37307868333335,79.00532417500001,67.0,91.0
176,78.37307868333335,79.02706327500002,62.0,102.0
177,79.02525168333335,79.34952659166667,55.0,91.0
178,78.37307868333335,79.76075790000002,43.0,86.0
179,79.24264268333334,79.76619267500001,59.0,98.0
180,79.24264268333334,79.86401862500001,67.0,98.0
181,79.24264268333334,80.01800391666669,62.0,110.0
182,79.67742468333334,80.07959803333334,55.0,86.0
183,80.11220668333334,80.60858280000001,67.0,89.0
184,80.11220668333334,80.76075650000001,64.0,93.0
185,80.11220668333334,80.77887241666667,60.0,87.0
186,80.98177068333335,81.68829143333335,64.0,92.0
187,80.98177068333335,81.70097257500001,60.0,89.0
188,80.98177068333335,81.70097257500001,67.0,91.0
189,80.11220668333334,82.32234851666668,48.0,86.0
190,81.85133468333335,82.52524678333334,60.0,90.0
191,81.85133468333335,82.53068155833334,67.0,89.0
192,81.85133468333335,82.53430474166667,64.0,93.0
193,82.50350768333334,82.92560854166668,48.0,88.0
194,82.72089868333335,83.15205750000001,60.0,98.0
195,82.72089868333335,83.33865144166668,67.0,100.0
196,83.15568068333334,83.46546285833335,48.0,92.0
197,82.72089868333335,83.48539036666668,64.0,102.0
198,83.59046268333334,84.15386769166668,69.0,98.0
199,83.59046268333334,84.22814295000002,65.0,100.0
200,83.59046268333334,84.23720090833335,62.0,90.0
201,83.59046268333334,84.71908429166668,50.0,102.0
202,84.46002668333335,85.03792442500001,62.0,98.0
203,84.46002668333335,85.07596785000001,69.0,98.0
204,84.46002668333335,85.22995314166668,65.0,96.0
205,84.89480868333335,85.31509795000001,50.0,88.0
206,85.32959068333335,85.78611178333335,57.0,88.0
207,85.32959068333335,85.983575275,69.0,86.0
208,85.32959068333335,86.00712596666668,64.0,94.0
209,85.32959068333335,86.01256074166668,60.0,90.0
210,85.98176368333334,86.38574862500002,57.0,85.0
211,85.32959068333335,86.45096592500002,45.0,87.0
212,86.19915468333335,86.72451626666668,64.0,94.0
213,86.19915468333335,86.76799446666668,60.0,89.0
214,86.19915468333335,86.77524083333334,69.0,91.0
215,86.63393668333335,86.80784948333334,45.0,83.0
216,87.06871868333334,87.63937005833334,69.0,92.0
217,87.06871868333334,87.65386279166668,65.0,102.0
218,87.06871868333334,87.71545690833335,60.0,90.0
219,87.06871868333334,88.08864479166668,53.0,88.0
220,87.06871868333334,88.42560084166668,41.0,87.0
221,87.93828268333334,88.59226727500001,69.0,91.0
222,87.93828268333334,88.64842661666668,60.0,93.0
223,87.93828268333334,88.70277436666667,65.0,98.0
224,88.37306468333335,88.78248440000002,53.0,84.0
225,88.80784668333335,89.32233871666668,64.0,102.0
226,88.80784668333335,89.33139667500001,69.0,94.0
227,88.80784668333335,89.33683145000002,60.0,93.0
228,89.24262868333335,89.83139597500002,52.0,77.0
229,88.80784668333335,89.89117850000001,45.0,86.0
230,89.67741068333335,90.17922157500001,60.0,89.0
231,89.67741068333335,90.27523593333335,69.0,91.0
232,89.67741068333335,90.34588800833335,64.0,100.0
233,90.11219268333335,90.49987330000002,45.0,84.0
234,90.54697468333335,91.13574197500002,67.0,98.0
235,90.54697468333335,91.17559699166668,59.0,91.0
236,90.54697468333335,91.18103176666668,62.0,102.0
237,90.54697468333335,91.63574127500002,43.0,91.0
238,91.41653868333334,92.06690009166668,67.0,94.0
239,91.41653868333334,92.08139282500001,62.0,113.0
240,91.41653868333334,92.08320441666667,59.0,102.0
241,91.85132068333334,92.21545060833334,43.0,83.0
242,92.28610268333335,92.93465250000001,71.0,88.0
243,92.28610268333335,92.94914523333335,62.0,92.0
244,92.28610268333335,92.94914523333335,67.0,91.0
245,93.15566668333335,93.70457895833334,71.0,88.0
246,93.15566668333335,93.71726010000002,62.0,87.0
247,93.15566668333335,93.71907169166668,67.0,88.0
248,94.02523068333335,97.00711056666668,71.0,84.0
249,92.28610268333335,97.01616852500001,43.0,85.0
250,94.02523068333335,97.09950174166669,62.0,85.0
251,94.02523068333335,97.11218288333335,67.0,82.0
252,92.28610268333335,97.22268997500001,55.0,86.0
253,97.50348668333335,97.88754411666669,69.0,85.0
254,97.50348668333335,97.99623961666668,64.0,72.0
255,98.37305068333335,98.84406451666668,64.0,82.0
256,98.37305068333335,98.85674565833335,60.0,82.0
257,98.37305068333335,98.87486157500001,69.0,87.0
258,99.24261468333334,99.82594720000002,64.0,74.0
259,99.24261468333334,99.84406311666669,69.0,77.0
260,99.24261468333334,99.85674425833335,60.0,72.0
261,100.11217868333335,100.64840981666669,60.0,71.0
262,100.11217868333335,100.69188801666668,64.0,76.0
263,100.11217868333335,100.69369960833335,69.0,76.0
264,97.93826868333335,100.69732279166668,52.0,72.0
265,97.50348668333335,100.74985895000002,45.0,75.0
266,98.80783268333334,100.77522123333335,57.0,73.0
267,100.98174268333335,101.51797381666668,71.0,84.0
268,100.98174268333335,101.54333610000002,68.0,86.0
269,100.98174268333335,101.55239405833335,64.0,82.0
270,101.85130668333335,102.38210304166668,71.0,81.0
271,101.85130668333335,102.46905944166669,64.0,83.0
272,101.85130668333335,102.49623331666669,68.0,85.0
273,102.72087068333335,103.31144956666668,71.0,80.0
274,102.72087068333335,103.34405821666668,68.0,84.0
275,102.72087068333335,103.35492776666668,64.0,79.0
276,103.59043468333336,104.03608623333335,71.0,81.0
277,103.59043468333336,104.05782533333335,64.0,81.0
278,100.98174268333335,104.06507170000002,40.0,84.0
279,103.59043468333336,104.06507170000002,68.0,85.0
280,100.98174268333335,104.10130353333335,52.0,84.0
281,104.45999868333335,104.94550525000001,72.0,81.0
282,104.45999868333335,105.03246165000002,69.0,84.0
283,104.45999868333335,105.06507030000002,65.0,81.0
284,105.32956268333335,105.78246060000002,72.0,81.0
285,105.32956268333335,105.84586630833336,69.0,82.0
286,105.32956268333335,105.84948949166669,65.0,79.0
287,106.19912668333335,106.71180712500002,72.0,75.0
288,106.19912668333335,106.76072010000001,65.0,76.0
289,106.19912668333335,106.77521283333336,69.0,79.0
290,107.06869068333334,107.54876247500002,65.0,83.0
291,107.06869068333334,107.58680590000002,72.0,82.0
292,104.45999868333335,107.61397977500002,53.0,78.0
293,104.45999868333335,107.64840001666668,41.0,80.0
294,107.06869068333334,107.67557389166669,69.0,84.0
295,107.93825468333335,108.63390588333336,71.0,84.0
296,107.93825468333335,108.63752906666669,64.0,84.0
297,107.93825468333335,108.63752906666669,68.0,85.0
298,108.81506505000002,108.92376055000001,76.0,97.0
299,109.03245605000002,109.14296314166668,64.0,97.0
300,109.24984705000001,109.35854255000002,76.0,97.0
301,108.81506505000002,109.41107870833335,68.0,81.0
302,108.81506505000002,109.42194825833334,71.0,77.0
303,109.46723805000002,109.64658562500001,64.0,97.0
304,109.67738268333335,109.78607818333334,88.0,97.0
305,109.89477368333336,110.00528077500002,64.0,97.0
306,110.11216468333335,110.22086018333336,76.0,97.0
307,109.67738268333335,110.27339634166668,68.0,81.0
308,109.67738268333335,110.28245430000001,71.0,77.0
309,110.32955568333335,110.50890325833335,64.0,97.0
310,110.54694668333335,110.75165654166669,88.0,97.0
311,110.54694668333335,111.11759805833336,64.0,81.0
312,110.54694668333335,111.11759805833336,68.0,85.0
313,107.93825468333335,111.11940965000002,52.0,79.0
314,110.54694668333335,111.11940965000002,71.0,84.0
315,107.93825468333335,111.13209079166668,40.0,79.0
316,112.28607468333335,114.17375320000002,57.0,76.0
317,111.85129268333336,114.22810095000001,52.0,67.0
318,111.41651068333336,114.29875302500002,45.0,81.0
319,112.72085668333335,114.67737568333335,59.0,74.0
320,112.72085668333335,114.84041893333335,64.0,71.0
321,114.89476668333334,115.57411355833335,59.0,79.0
322,114.89476668333334,115.60491061666669,67.0,86.0
323,114.89476668333334,115.77338864166668,40.0,82.0
324,115.32954868333336,115.77882341666668,47.0,50.0
325,115.76433068333336,115.83679435000002,52.0,72.0
326,116.19911268333335,117.72628445833335,55.0,74.0
327,115.76433068333336,118.02700867500002,59.0,42.0
328,115.76433068333336,118.09584915833335,64.0,79.0
329,118.37302268333335,119.09403616666668,69.0,85.0
330,118.37302268333335,119.28606488333335,60.0,77.0
331,118.80780468333336,121.39294599166668,52.0,46.0
332,118.37302268333335,121.41649668333335,45.0,69.0
333,119.24258668333336,121.42011986666668,57.0,68.0
334,119.67736868333336,121.80055411666669,60.0,73.0
335,119.67736868333336,121.83316276666669,69.0,75.0
336,122.72084268333336,124.52337639166669,64.0,81.0
337,122.28606068333335,124.52881116666669,59.0,64.0
338,121.85127868333335,124.64656462500002,52.0,83.0
339,123.15562468333336,125.27156375000001,76.0,82.0
340,123.15562468333336,125.33134627500002,67.0,77.0
341,125.32953468333335,125.66105595833335,62.0,84.0
342,125.32953468333335,126.17735958333336,69.0,84.0
343,126.63388068333336,127.87482097500002,74.0,81.0
344,126.19909868333335,128.01069035000003,62.0,78.0
345,126.63388068333336,128.04873377500002,65.0,78.0
346,125.76431668333335,128.05598014166668,57.0,67.0
347,125.32953468333335,128.14655972500003,50.0,82.0
348,127.93822668333335,128.79329795,69.0,90.0
349,128.80779068333337,129.63387648333335,69.0,88.0
350,128.80779068333337,129.7172097,60.0,81.0
351,130.11213668333335,130.50525207500002,69.0,89.0
352,129.24257268333335,131.87481537500003,52.0,70.0
353,128.80779068333337,131.9201051666667,45.0,80.0
354,129.67735468333336,132.0016267916667,57.0,79.0
355,130.11213668333335,132.11213388333334,60.0,88.0
356,130.54691868333336,132.24256848333334,64.0,85.0
357,132.50343768333335,133.51430583333337,57.0,84.0
358,132.93821968333336,133.570465175,69.0,86.0
359,132.72082868333337,133.69184181666668,62.0,86.0
360,133.59039268333336,134.03242105,68.0,92.0
361,134.02155150000002,134.47263782500002,76.0,97.0
362,134.02517468333335,134.56321740833334,57.0,73.0
363,134.02517468333335,134.86394162500002,64.0,85.0
364,134.89473868333334,135.37843365833336,57.0,86.0
365,132.28604668333335,135.42553504166668,50.0,84.0
366,135.32952068333336,135.79872292500002,69.0,90.0
367,136.63386668333337,136.8258954,59.0,84.0
368,136.85125768333336,136.90741702500003,60.0,89.0
369,137.28603968333334,137.6918362166667,64.0,89.0
370,137.28603968333334,137.74256078333335,72.0,94.0
371,136.41647568333335,138.06683569166668,57.0,82.0
372,137.72082168333336,138.2171978,64.0,82.0
373,137.72082168333336,138.22625575833337,71.0,89.0
374,138.15560368333337,138.48169018333334,57.0,77.0
375,138.37299468333336,138.87661716666668,69.0,113.0
376,138.80777668333334,138.9146605916667,57.0,86.0
377,135.76430268333334,138.92553014166668,45.0,96.0
378,136.19908468333335,138.94726924166667,52.0,85.0
379,138.37299468333336,138.9798778916667,64.0,94.0
380,139.24255868333336,139.76973185833336,69.0,94.0
381,139.24255868333336,139.84763030000002,65.0,100.0
382,139.24255868333336,139.8494418916667,62.0,96.0
383,139.24255868333336,140.2950934416667,50.0,91.0
384,140.54690468333337,140.67733928333337,50.0,88.0
385,140.11212268333335,140.7027015666667,62.0,102.0
386,140.11212268333335,140.73712180833334,69.0,94.0
387,140.11212268333335,140.9092230166667,65.0,108.0
388,140.98168668333335,141.6266133166667,69.0,91.0
389,140.98168668333335,141.63023650000002,64.0,104.0
390,140.98168668333335,141.64110605000002,60.0,96.0
391,141.63385968333336,142.059583725,57.0,84.0
392,140.98168668333335,142.0994387416667,45.0,85.0
393,141.41646868333336,142.12842420833334,52.0,64.0
394,141.85125068333335,142.40197455000003,60.0,102.0
395,142.28603268333336,142.4146556916667,45.0,87.0
396,141.85125068333335,142.45813389166668,69.0,104.0
397,141.85125068333335,142.5342207416667,64.0,110.0
398,142.50342368333335,142.67371330000003,43.0,97.0
399,142.72081468333334,143.3548717666667,65.0,113.0
400,142.72081468333334,143.35668335833336,60.0,107.0
401,142.72081468333334,143.36211813333335,69.0,100.0
402,143.37298768333335,143.76429148333335,53.0,83.0
403,142.72081468333334,143.97987089166668,41.0,92.0
404,143.59037868333337,144.19907348333336,60.0,104.0
405,143.59037868333337,144.22262417500002,69.0,107.0
406,143.59037868333337,144.2570444166667,65.0,116.0
407,144.02516068333335,144.3276964916667,53.0,83.0
408,144.24255168333335,144.4255224416667,41.0,97.0
409,144.45994268333337,145.0613911166667,69.0,92.0
410,144.45994268333337,145.08131862500002,64.0,92.0
411,144.45994268333337,145.08675340000002,60.0,88.0
412,145.11211568333334,145.505231075,57.0,84.0
413,145.32950668333336,145.82044802500002,64.0,100.0
414,145.32950668333336,145.8548682666667,60.0,90.0
415,145.76428868333335,145.86392622500003,57.0,87.0
416,145.32950668333336,145.89110010000002,69.0,94.0
417,144.45994268333337,145.91102760833337,45.0,84.0
418,146.19907068333336,146.82406980833335,59.0,92.0
419,146.19907068333336,146.82769299166668,67.0,89.0
420,146.19907068333336,146.831316175,62.0,104.0
421,146.85124368333337,147.21356201666669,55.0,75.0
422,146.19907068333336,147.6755178916667,43.0,88.0
423,147.06863468333336,147.75885110833335,67.0,94.0
424,147.06863468333336,147.7606627,62.0,108.0
425,147.06863468333336,147.78240180000003,59.0,98.0
426,147.50341668333337,147.97261892500003,55.0,84.0
427,147.93819868333335,148.55595144166668,59.0,92.0
428,147.93819868333335,148.57044417500003,67.0,91.0
429,147.93819868333335,148.59218327500002,62.0,102.0
430,148.59037168333336,148.9146465916667,55.0,91.0
431,147.93819868333335,149.32587790000002,43.0,86.0
432,148.80776268333335,149.33131267500002,59.0,98.0
433,148.80776268333335,149.42913862500004,67.0,98.0
434,149.45993568333336,149.55051526666668,43.0,97.0
435,148.80776268333335,149.5831239166667,62.0,110.0
436,149.24254468333336,149.64471803333336,55.0,86.0
437,149.67732668333335,150.17370280000003,67.0,89.0
438,149.67732668333335,150.32587650000002,64.0,93.0
439,149.67732668333335,150.34399241666668,60.0,87.0
440,150.54689068333334,151.25341143333335,64.0,92.0
441,150.54689068333334,151.26609257500002,60.0,89.0
442,150.54689068333334,151.26609257500002,67.0,91.0
443,149.67732668333335,151.8874685166667,48.0,86.0
444,151.41645468333337,152.09036678333337,60.0,90.0
445,151.41645468333337,152.09580155833336,67.0,89.0
446,151.41645468333337,152.0994247416667,64.0,93.0
447,152.06862768333335,152.4907285416667,48.0,88.0
448,152.28601868333337,152.71717750000002,60.0,98.0
449,152.72080068333335,152.90195985000003,48.0,92.0
450,152.28601868333337,152.9037714416667,67.0,100.0
451,152.28601868333337,153.05051036666669,64.0,102.0
452,152.93819168333334,153.12116244166668,49.0,97.0
453,153.15558268333336,153.71898769166668,69.0,98.0
454,153.15558268333336,153.79326295,65.0,100.0
455,153.15558268333336,153.80232090833337,62.0,90.0
456,153.15558268333336,154.2842042916667,50.0,102.0
457,154.02514668333336,154.60304442500004,62.0,98.0
458,154.02514668333336,154.64108785000002,69.0,98.0
459,154.02514668333336,154.79507314166668,65.0,96.0
460,154.45992868333335,154.88021795000003,50.0,88.0
461,154.89471068333336,155.35123178333336,57.0,88.0
462,154.89471068333336,155.54869527500003,69.0,86.0
463,154.89471068333336,155.57224596666669,64.0,94.0
464,154.89471068333336,155.57768074166668,60.0,90.0
465,155.54688368333336,155.95086862500003,57.0,85.0
466,154.89471068333336,156.01608592500003,45.0,87.0
467,155.76427468333335,156.2896362666667,64.0,94.0
468,155.76427468333335,156.3331144666667,60.0,89.0
469,155.76427468333335,156.34036083333336,69.0,91.0
470,156.19905668333337,156.37296948333335,45.0,83.0
471,156.63383868333335,157.20449005833336,69.0,92.0
472,156.63383868333335,157.2189827916667,65.0,102.0
473,156.63383868333335,157.28057690833336,60.0,90.0
474,156.63383868333335,157.6537647916667,53.0,88.0
475,156.63383868333335,157.9907208416667,41.0,87.0
476,157.50340268333335,158.15738727500002,69.0,91.0
477,157.50340268333335,158.2135466166667,60.0,93.0
478,157.50340268333335,158.2678943666667,65.0,98.0
479,157.93818468333336,158.34760440000002,53.0,84.0
480,158.37296668333335,158.88745871666669,64.0,102.0
481,158.37296668333335,158.89651667500002,69.0,94.0
482,158.37296668333335,158.90195145,60.0,93.0
483,158.80774868333336,159.39651597500003,52.0,77.0
484,158.37296668333335,159.45629850000003,45.0,86.0
485,159.24253068333337,159.74434157500002,60.0,89.0
486,159.24253068333337,159.84035593333337,69.0,91.0
487,159.24253068333337,159.91100800833337,64.0,100.0
488,159.67731268333335,160.06499330000003,45.0,84.0
489,160.11209468333337,160.70086197500004,67.0,98.0
490,160.11209468333337,160.7407169916667,59.0,91.0
491,160.11209468333337,160.74615176666669,62.0,102.0
492,160.11209468333337,161.20086127500002,43.0,91.0
493,160.98165868333336,161.6320200916667,67.0,94.0
494,160.98165868333336,161.64651282500003,62.0,113.0
495,160.98165868333336,161.6483244166667,59.0,102.0
496,161.41644068333335,161.78057060833336,43.0,83.0
497,161.85122268333336,162.49977250000003,71.0,88.0
498,161.85122268333336,162.51426523333336,62.0,92.0
499,161.85122268333336,162.51426523333336,67.0,91.0
500,162.72078668333336,163.26969895833335,71.0,88.0
501,162.72078668333336,163.2823801,62.0,87.0
502,162.72078668333336,163.2841916916667,67.0,88.0
503,163.59035068333336,166.5722305666667,71.0,84.0
504,161.85122268333336,166.58128852500002,43.0,85.0
505,163.59035068333336,166.66462174166668,62.0,85.0
506,163.59035068333336,166.67730288333337,67.0,82.0
507,161.85122268333336,166.78780997500002,55.0,86.0
508,167.06860668333337,167.59577985833337,69.0,94.0
509,167.06860668333337,167.67367830000003,65.0,100.0
510,167.06860668333337,167.6754898916667,62.0,96.0
511,167.06860668333337,168.12114144166668,50.0,91.0
512,168.37295268333335,168.50338728333335,50.0,88.0
513,167.93817068333337,168.5287495666667,62.0,102.0
514,167.93817068333337,168.56316980833336,69.0,94.0
515,167.93817068333337,168.7352710166667,65.0,108.0
516,168.80773468333336,169.4526613166667,69.0,91.0
517,168.80773468333336,169.45628450000004,64.0,104.0
518,168.80773468333336,169.46715405000003,60.0,96.0
519,169.45990768333337,169.88563172500002,57.0,84.0
520,168.80773468333336,169.9254867416667,45.0,85.0
521,169.24251668333335,169.95447220833336,52.0,64.0
522,169.67729868333336,170.22802255000002,60.0,102.0
523,170.11208068333335,170.24070369166668,45.0,87.0
524,169.67729868333336,170.2841818916667,69.0,104.0
525,169.67729868333336,170.3602687416667,64.0,110.0
526,170.54686268333336,171.1809197666667,65.0,113.0
527,170.54686268333336,171.18273135833337,60.0,107.0
528,170.54686268333336,171.18816613333337,69.0,100.0
529,171.19903568333336,171.59033948333337,53.0,83.0
530,170.54686268333336,172.02149830000002,41.0,92.0
531,171.41642668333336,172.02512148333335,60.0,104.0
532,171.41642668333336,172.04867217500004,69.0,107.0
533,171.41642668333336,172.0830924166667,65.0,116.0
534,171.85120868333337,172.15374449166669,53.0,83.0
535,172.28599068333335,172.88743911666668,69.0,92.0
536,172.28599068333335,172.90736662500004,64.0,92.0
537,172.28599068333335,172.91280140000003,60.0,88.0
538,172.93816368333336,173.33127907500003,57.0,84.0
539,173.15555468333335,173.64649602500003,64.0,100.0
540,173.15555468333335,173.68091626666669,60.0,90.0
541,173.59033668333336,173.68997422500001,57.0,87.0
542,173.15555468333335,173.71714810000003,69.0,94.0
543,172.28599068333335,173.73707560833336,45.0,84.0
544,174.02511868333335,174.65011780833336,59.0,92.0
545,174.02511868333335,174.6537409916667,67.0,89.0
546,174.02511868333335,174.65736417500003,62.0,104.0
547,174.67729168333335,175.0396100166667,55.0,75.0
548,174.02511868333335,175.53055135833335,43.0,88.0
549,174.89468268333337,175.58489910833336,67.0,94.0
550,174.89468268333337,175.58671070000003,62.0,108.0
551,174.89468268333337,175.60844980000002,59.0,98.0
552,175.32946468333336,175.79866692500002,55.0,84.0
553,175.76424668333337,176.3819994416667,59.0,92.0
554,175.76424668333337,176.39649217500002,67.0,91.0
555,175.76424668333337,176.41823127500004,62.0,102.0
556,176.41641968333337,176.74069459166668,55.0,91.0
557,175.76424668333337,177.15192590000004,43.0,86.0
558,176.63381068333337,177.15736067500004,59.0,98.0
559,176.63381068333337,177.25518662500002,67.0,98.0
560,176.63381068333337,177.4091719166667,62.0,110.0
561,177.06859268333335,177.47076603333335,55.0,86.0
562,177.50337468333336,177.99975080000002,67.0,89.0
563,177.50337468333336,178.15192450000004,64.0,93.0
564,177.50337468333336,178.1700404166667,60.0,87.0
565,178.37293868333336,179.07945943333337,64.0,92.0
566,178.37293868333336,179.09214057500003,60.0,89.0
567,178.37293868333336,179.09214057500003,67.0,91.0
568,177.50337468333336,179.7135165166667,48.0,86.0
569,179.24250268333336,179.91641478333335,60.0,90.0
570,179.24250268333336,179.92184955833335,67.0,89.0
571,179.24250268333336,179.92547274166668,64.0,93.0
572,179.89467568333336,180.31677654166668,48.0,88.0
573,180.11206668333335,180.54322550000003,60.0,98.0
574,180.11206668333335,180.7298194416667,67.0,100.0
575,180.54684868333337,180.85663085833338,48.0,92.0
576,180.11206668333335,180.8765583666667,64.0,102.0
577,180.98163068333335,181.5450356916667,69.0,98.0
578,180.98163068333335,181.61931095000003,65.0,100.0
579,180.98163068333335,181.62836890833336,62.0,90.0
580,180.98163068333335,182.11025229166668,50.0,102.0
581,181.85119468333338,182.42909242500002,62.0,98.0
582,181.85119468333338,182.46713585000003,69.0,98.0
583,181.85119468333338,182.6211211416667,65.0,96.0
584,182.28597668333336,182.70626595000002,50.0,88.0
585,182.72075868333337,183.17727978333338,57.0,88.0
586,182.72075868333337,183.37474327500001,69.0,86.0
587,182.72075868333337,183.3982939666667,64.0,94.0
588,182.72075868333337,183.4037287416667,60.0,90.0
589,183.37293168333335,183.77691662500004,57.0,85.0
590,182.72075868333337,183.84213392500004,45.0,87.0
591,183.59032268333337,184.1156842666667,64.0,94.0
592,183.59032268333337,184.1591624666667,60.0,89.0
593,183.59032268333337,184.16640883333335,69.0,91.0
594,184.02510468333335,184.19901748333336,45.0,83.0
595,184.45988668333337,185.03053805833335,69.0,92.0
596,184.45988668333337,185.0450307916667,65.0,102.0
597,184.45988668333337,185.10662490833337,60.0,90.0
598,184.45988668333337,185.4798127916667,53.0,88.0
599,184.45988668333337,185.8167688416667,41.0,87.0
600,185.32945068333336,185.98343527500003,69.0,91.0
601,185.32945068333336,186.0395946166667,60.0,93.0
602,185.32945068333336,186.0939423666667,65.0,98.0
603,185.76423268333338,186.17365240000004,53.0,84.0
604,186.19901468333336,186.7135067166667,64.0,102.0
605,186.19901468333336,186.72256467500003,69.0,94.0
606,186.19901468333336,186.72799945000003,60.0,93.0
607,186.63379668333337,187.22256397500004,52.0,77.0
608,186.19901468333336,187.28234650000002,45.0,86.0
609,187.06857868333336,187.57038957500004,60.0,89.0
610,187.06857868333336,187.66640393333336,69.0,91.0
611,187.06857868333336,187.73705600833335,64.0,100.0
612,187.50336068333337,187.89104130000004,45.0,84.0
613,187.93814268333335,188.52690997500002,67.0,98.0
614,187.93814268333335,188.5667649916667,59.0,91.0
615,187.93814268333335,188.5721997666667,62.0,102.0
616,187.93814268333335,189.02690927500004,43.0,91.0
617,188.80770668333335,189.4580680916667,67.0,94.0
618,188.80770668333335,189.47256082500002,62.0,113.0
619,188.80770668333335,189.47437241666668,59.0,102.0
620,189.24248868333336,189.60661860833335,43.0,83.0
621,189.67727068333338,190.32582050000002,71.0,88.0
622,189.67727068333338,190.34031323333338,62.0,92.0
623,189.67727068333338,190.34031323333338,67.0,91.0
624,190.54683468333337,191.09574695833336,71.0,88.0
625,190.54683468333337,191.10842810000003,62.0,87.0
626,190.54683468333337,191.1102396916667,67.0,88.0
627,191.41639868333337,194.3982785666667,71.0,84.0
628,189.67727068333338,194.40733652500003,43.0,85.0
629,191.41639868333337,194.4906697416667,62.0,85.0
630,191.41639868333337,194.50335088333335,67.0,82.0
631,189.67727068333338,194.61385797500003,55.0,86.0
632,194.89465468333336,195.72074048333337,53.0,86.0
633,195.32943668333337,195.72255207500004,60.0,44.0
634,195.76421868333335,196.02508788333336,65.0,78.0
635,196.19900068333337,196.2950150416667,67.0,81.0
636,194.89465468333336,197.13921675833336,76.0,91.0
637,197.50334668333338,197.7460999666667,69.0,83.0
638,197.72073768333337,197.8765345666667,71.0,86.0
639,197.93812868333336,198.0721864666667,72.0,88.0
640,198.15551968333335,198.3710990916667,74.0,84.0
641,198.37291068333337,199.17363420000004,45.0,77.0
642,198.80769268333336,199.18269215833337,52.0,52.0
643,199.24247468333337,199.35117018333335,57.0,85.0
644,199.67725668333335,200.7678348666667,60.0,71.0
645,198.37291068333337,200.8004435166667,76.0,86.0
646,200.98160268333336,201.21529800833338,71.0,69.0
647,201.19899368333336,201.3276166916667,72.0,79.0
648,201.85116668333336,202.32036892500003,41.0,78.0
649,202.28594868333337,202.40189055000002,53.0,83.0
650,202.72073068333336,202.84029573333336,57.0,85.0
651,203.15551268333337,203.24428067500003,60.0,81.0
652,201.85116668333336,204.07942443333337,76.0,86.0
653,201.85116668333336,204.82036542500003,69.0,82.0
654,204.89464068333336,205.33485745833337,72.0,78.0
655,205.76420468333336,206.1700012166667,47.0,64.0
656,205.32942268333338,206.2026098666667,40.0,81.0
657,206.19898668333337,206.27507353333337,52.0,74.0
658,207.06855068333337,208.48159218333336,59.0,40.0
659,206.63376868333336,208.5341283416667,56.0,72.0
660,205.32942268333338,209.2352143166667,71.0,87.0
661,209.5123878416667,209.63557607500005,69.0,70.0
662,209.59209787500004,209.91818437500004,72.0,84.0
663,209.44898213333337,209.98159008333337,64.0,61.0
664,210.4199952666667,210.6047776166667,59.0,81.0
665,210.58666170000004,210.65187900000004,60.0,87.0
666,210.76600927500004,210.91637138333337,64.0,86.0
667,210.93992207500003,211.06311030833336,69.0,87.0
668,211.1156464666667,211.22071878333335,71.0,84.0
669,211.2460810666667,211.35115338333335,72.0,83.0
670,211.4526025166667,211.57941393333337,76.0,89.0
671,211.65187760000003,211.79318175000003,81.0,84.0
672,211.85296427500003,211.98702205833337,83.0,81.0
673,212.0558625416667,212.14644212500002,84.0,86.0
674,212.29680423333338,212.39100700000003,88.0,86.0
675,212.6808616666667,212.8439049166667,81.0,67.0
676,212.75513692500004,212.90549903333337,84.0,73.0
677,212.8602092416667,212.93448450000002,93.0,89.0
678,210.22615495833335,213.22071598333338,57.0,76.0
679,209.96166257500002,213.2406434916667,52.0,64.0
680,209.49970670000002,213.2841216916667,45.0,66.0
