,start,end,pitch,velocity
0,38.18103549999999,38.380894354166664,69.0,97.0
1,38.564764499999995,38.78221093333333,69.0,97.0
2,38.9484935,39.83906455416666,67.0,95.0
3,40.0996805,40.41305918333333,65.0,92.0
4,40.48340949999999,40.726437866666664,67.0,81.0
5,40.867138499999996,41.105370254166665,65.0,93.0
6,41.2508675,42.075884849999994,62.0,92.0
7,42.785783499999994,43.11994750416666,65.0,77.0
8,43.169512499999996,43.481292312499995,67.0,68.0
9,43.5532415,44.37026449583333,69.0,89.0
10,44.7044285,45.04658685833333,74.0,97.0
11,45.088157499999994,45.337581349999994,72.0,89.0
12,45.4718865,45.769276475,69.0,86.0
13,45.8556155,46.54312995833333,67.0,88.0
14,47.390531499999994,47.639955349999994,67.0,89.0
15,47.7742605,48.01728886666666,65.0,78.0
16,48.15798949999999,48.826317508333325,67.0,97.0
17,49.30917649999999,49.49304664583333,69.0,97.0
18,49.501040999999994,49.673719049999995,67.0,62.0
19,49.692905499999995,49.9950920875,65.0,86.0
20,50.0766345,50.30847077083333,67.0,88.0
21,50.46036349999999,51.047149095833326,69.0,92.0
22,51.995279499999995,52.295867216666664,60.0,86.0
23,52.3790085,52.72276572916666,57.0,82.0
24,52.76273749999999,53.53818985416666,60.0,77.0
25,53.91392449999999,54.14256302916666,62.0,85.0
26,54.297653499999996,54.54228073749999,64.0,90.0
27,55.06511149999999,55.736637249999994,65.0,83.0
28,55.83256949999999,55.99245658333333,65.0,79.0
29,56.02443399999999,57.35149679166666,62.0,78.0
30,59.669859499999994,60.2022834875,69.0,102.0
31,60.43731749999999,60.54604071666666,69.0,100.0
32,60.62918199999999,61.060877125,72.0,99.0
33,61.2047755,61.74519384166666,72.0,102.0
34,61.972233499999994,62.22005847916666,74.0,122.0
35,62.3559625,62.62777054166666,74.0,99.0
36,62.73969149999999,63.0466747,74.0,112.0
37,63.5071495,63.71500270833333,74.0,122.0
38,64.27460749999999,64.53202570416666,74.0,107.0
39,64.65833649999999,65.40980579166666,77.0,100.0
40,65.4257945,65.71519012083333,74.0,112.0
41,65.8095235,66.18206040416666,72.0,97.0
42,66.1932525,66.42189102916666,74.0,99.0
43,66.385117,66.54340521249999,72.0,100.0
44,66.57698149999999,67.43237739583333,69.0,97.0
45,68.87935549999999,69.54448576666665,69.0,100.0
46,69.6468135,69.85466670833333,69.0,102.0
47,69.83867799999999,70.32473473333333,72.0,99.0
48,70.4142715,70.62212470833333,72.0,102.0
49,71.18172949999999,71.30963916666666,74.0,112.0
50,71.56545849999999,71.757323,74.0,95.0
51,71.9491875,72.29614247083333,74.0,107.0
52,72.3329165,72.5487640625,72.0,92.0
53,72.7166455,72.92609757916667,72.0,117.0
54,73.48410349999999,73.82306411666666,69.0,99.0
55,73.86783249999999,74.1316461875,69.0,100.0
56,74.2515615,74.4290361625,69.0,100.0
57,74.44342599999999,74.95186692499999,72.0,102.0
58,75.0190195,75.297223025,69.0,95.0
59,75.40274849999999,75.57062993749999,67.0,92.0
60,75.594613,75.84243797916666,65.0,66.0
61,75.78647749999999,76.83533676666666,67.0,95.0
62,79.62376749999999,79.88918005833332,69.0,100.0
63,80.00749649999999,80.3288695375,69.0,95.0
64,80.39122549999999,81.27380219999999,67.0,92.0
65,81.5424125,81.77904538333333,65.0,100.0
66,81.92614149999999,82.16277438333333,67.0,89.0
67,82.30987049999999,82.53371241666666,65.0,97.0
68,82.69359949999999,83.44506879166666,62.0,96.0
69,84.22851549999999,84.545091925,65.0,92.0
70,84.61224449999999,84.90963447499999,67.0,83.0
71,84.99597349999999,85.7250586,69.0,96.0
72,86.1471605,86.3054487125,72.0,95.0
73,86.33902499999999,86.52609288749998,74.0,81.0
74,86.53088949999999,86.86985011666665,72.0,81.0
75,86.91461849999999,87.32392943333332,69.0,81.0
76,87.29834749999999,88.26886209583333,67.0,79.0
77,88.83326349999999,89.05870428749999,67.0,107.0
78,89.21699249999999,89.42484570833332,65.0,73.0
79,89.60072149999999,90.36498175833333,67.0,95.0
80,90.75190849999998,90.914993325,69.0,95.0
81,90.943773,91.12444540416666,67.0,69.0
82,91.13563749999999,91.42343424999999,65.0,82.0
83,91.51936649999999,91.74320841666666,67.0,86.0
84,91.90309549999999,92.37476239583333,69.0,97.0
85,93.43801149999999,93.78496647083333,60.0,92.0
86,93.82174049999999,94.23105143333332,57.0,83.0
87,94.20546949999999,94.9729275,60.0,89.0
88,95.35665649999999,95.7164024375,62.0,79.0
89,95.74038549999999,95.93225,62.0,79.0
90,95.93225,96.25362303749999,65.0,75.0
91,96.50784349999999,97.23692859999998,67.0,88.0
92,97.27530149999998,97.62545421249999,65.0,83.0
93,97.65903049999999,98.96530797083332,62.0,77.0
94,118.76412549999999,118.96398435416666,69.0,97.0
95,119.1478545,119.36530093333332,69.0,97.0
96,119.53158349999998,120.42215455416665,67.0,95.0
97,120.68277049999999,120.99614918333332,65.0,92.0
98,121.06649949999999,121.30952786666666,67.0,81.0
99,121.4502285,121.68846025416666,65.0,93.0
100,121.83395749999998,122.65897484999999,62.0,92.0
101,123.36887349999999,123.70303750416666,65.0,77.0
102,123.7526025,124.06438231249999,67.0,68.0
103,124.13633149999998,124.95335449583332,69.0,89.0
104,125.28751849999999,125.62967685833333,74.0,97.0
105,125.67124749999999,125.92067134999999,72.0,89.0
106,126.05497649999998,126.35236647499998,69.0,86.0
107,126.43870549999998,127.12621995833332,67.0,88.0
108,127.9736215,128.22304534999998,67.0,89.0
109,128.3573505,128.60037886666666,65.0,78.0
110,128.74107949999998,129.40940750833332,67.0,97.0
111,129.89226649999998,130.07613664583332,69.0,97.0
112,130.08413099999999,130.25680905,67.0,62.0
113,130.2759955,130.57818208749998,65.0,86.0
114,130.65972449999998,130.8915607708333,67.0,88.0
115,131.0434535,131.63023909583333,69.0,92.0
116,132.57836949999998,132.87895721666666,60.0,86.0
117,132.9620985,133.30585572916667,57.0,82.0
118,133.34582749999998,134.12127985416666,60.0,77.0
119,134.49701449999998,134.72565302916666,62.0,85.0
120,134.8807435,135.1253707375,64.0,90.0
121,135.6482015,136.28774983333332,67.0,81.0
122,136.41565949999998,136.7434280208333,65.0,79.0
123,136.7993885,138.12645129166665,62.0,78.0
124,140.2529495,140.78537348749998,69.0,102.0
125,140.828543,140.90688767083333,69.0,100.0
126,141.02040749999998,141.58001229166666,72.0,99.0
127,141.78786549999998,142.32828384166666,72.0,102.0
128,142.5553235,142.80314847916665,74.0,122.0
129,142.93905249999997,143.21086054166665,74.0,99.0
130,143.3227815,144.00230160416666,74.0,112.0
131,144.0902395,144.29809270833331,74.0,122.0
132,144.85769749999997,145.11511570416664,74.0,107.0
133,145.2414265,145.99289579166665,77.0,100.0
134,146.0088845,146.2982801208333,74.0,112.0
135,146.39261349999998,146.76515040416666,72.0,97.0
136,146.584478,146.78433685416664,74.0,99.0
137,146.7763425,147.09611666666666,72.0,99.0
138,147.1600715,148.01546739583333,69.0,97.0
139,149.46244549999997,149.91332707499998,69.0,100.0
140,150.038039,150.1403667333333,69.0,100.0
141,150.22990349999998,150.85186425416666,72.0,99.0
142,150.99736149999998,151.20521470833333,72.0,102.0
143,151.7648195,151.89272916666664,74.0,112.0
144,152.14854849999998,152.34041299999998,74.0,95.0
145,152.5322775,152.87923247083333,74.0,107.0
146,152.91600649999998,153.1318540625,72.0,92.0
147,153.2997355,153.50918757916665,72.0,117.0
148,154.06719349999997,154.55005249166666,69.0,99.0
149,154.642787,154.82985488749998,69.0,100.0
150,154.83465149999998,155.51417160416665,72.0,102.0
151,155.60210949999998,155.880313025,69.0,95.0
152,155.98583849999997,156.15371993749997,67.0,112.0
153,156.17770299999998,156.42552797916665,65.0,66.0
154,156.3695675,157.41842676666664,67.0,95.0
155,160.20685749999998,160.47227005833332,69.0,100.0
156,160.59058649999997,160.9119595375,69.0,95.0
157,160.9743155,161.85689219999998,67.0,92.0
158,162.12550249999998,162.3621353833333,65.0,100.0
159,162.50923149999997,162.74586438333333,67.0,89.0
160,162.8929605,163.11680241666664,65.0,97.0
161,163.27668949999997,164.02815879166664,62.0,96.0
162,164.81160549999998,165.12818192499998,65.0,92.0
163,165.19533449999997,165.492724475,67.0,83.0
164,165.5790635,166.30814859999998,69.0,96.0
165,166.73025049999998,166.88853871249998,72.0,95.0
166,166.922115,167.1091828875,74.0,81.0
167,167.11397949999997,167.45294011666664,72.0,81.0
168,167.4977085,167.90701943333332,69.0,81.0
169,167.88143749999998,168.85195209583333,67.0,79.0
170,169.41635349999999,169.64179428749998,67.0,107.0
171,169.80008249999997,170.00793570833332,65.0,73.0
172,170.1838115,170.94807175833333,67.0,95.0
173,171.33499849999998,171.49808332499998,69.0,95.0
174,171.526863,171.70753540416666,67.0,69.0
175,171.71872749999997,172.00652424999998,65.0,82.0
176,172.1024565,172.32629841666665,67.0,86.0
177,172.48618549999998,172.95785239583333,69.0,97.0
178,174.0211015,174.36805647083332,60.0,92.0
179,174.40483049999997,174.8141414333333,57.0,83.0
180,174.7885595,175.5560175,60.0,89.0
181,175.93974649999998,176.2994924375,62.0,79.0
182,176.32347549999997,176.78075255833332,65.0,75.0
183,176.89906899999997,177.01738544166665,65.0,100.0
184,177.09093349999998,177.82001859999997,67.0,88.0
185,177.85839149999998,178.2085442125,65.0,83.0
186,178.24212049999997,179.54839797083332,62.0,77.0
187,181.69568149999998,182.2281054875,69.0,102.0
188,182.27127499999997,182.3736027333333,69.0,100.0
189,182.46313949999998,183.02274429166664,72.0,99.0
190,183.2305975,183.77101584166664,72.0,102.0
191,183.9980555,184.24588047916666,74.0,122.0
192,184.38178449999998,184.65359254166665,74.0,99.0
193,184.76551349999997,185.39706747916665,74.0,112.0
194,185.53297149999997,185.74082470833332,74.0,122.0
195,186.30042949999998,186.55784770416665,74.0,107.0
196,186.6841585,187.43562779166666,77.0,100.0
197,187.45161649999997,187.74101212083332,74.0,112.0
198,187.8353455,188.20788240416664,72.0,97.0
199,188.02720999999997,188.25584852916666,74.0,99.0
200,188.21907449999998,188.44771302916664,72.0,99.0
201,188.6028035,188.98653249999998,72.0,97.0
202,188.79466799999997,190.04178724999997,69.0,97.0
203,190.90517749999998,191.35765794583332,69.0,100.0
204,191.48077099999998,191.60708179583332,69.0,100.0
205,191.67263549999998,192.29459625416663,72.0,99.0
206,192.4400935,192.6479467083333,72.0,102.0
207,193.2075515,193.33546116666665,74.0,112.0
208,193.59128049999998,193.783145,74.0,95.0
209,193.97500949999997,194.3219644708333,74.0,107.0
210,194.3587385,194.57458606249998,72.0,92.0
211,194.74246749999998,194.95191957916666,72.0,117.0
212,195.50992549999998,195.9863890083333,69.0,99.0
213,196.08551899999998,196.27418575833332,69.0,100.0
214,196.27738349999998,196.95690360416665,72.0,102.0
215,197.0448415,197.32304502499997,69.0,95.0
216,197.42857049999998,197.59645193749998,67.0,112.0
217,197.620435,197.86825997916665,65.0,66.0
218,197.8122995,198.86115876666665,67.0,95.0
219,201.6495895,201.9150020583333,69.0,100.0
220,202.03331849999998,202.35469153749997,69.0,95.0
221,202.41704749999997,203.29962419999998,67.0,92.0
222,203.5682345,203.80486738333332,65.0,100.0
223,203.95196349999998,204.1885963833333,67.0,89.0
224,204.3356925,204.55953441666665,65.0,97.0
225,204.71942149999998,205.47089079166665,62.0,96.0
226,206.2543375,206.57091392499999,65.0,92.0
227,206.63806649999998,206.93545647499997,67.0,83.0
228,207.02179549999997,207.7508806,69.0,96.0
229,208.1729825,208.3312707125,72.0,95.0
230,208.36484699999997,208.55191488749998,74.0,81.0
231,208.55671149999998,208.89567211666665,72.0,81.0
232,208.94044049999997,209.34975143333332,69.0,81.0
233,209.32416949999998,210.2946840958333,67.0,79.0
234,210.8590855,211.08452628749998,67.0,107.0
235,211.24281449999998,211.4506677083333,65.0,73.0
236,211.62654349999997,212.3908037583333,67.0,95.0
237,212.7777305,212.940815325,69.0,95.0
238,212.96959499999997,213.15026740416664,67.0,69.0
239,213.16145949999998,213.44925625,65.0,82.0
240,213.54518849999997,213.76903041666665,67.0,86.0
241,213.92891749999998,214.4005843958333,69.0,97.0
242,215.4638335,215.8107884708333,60.0,92.0
243,215.84756249999998,216.2568734333333,57.0,83.0
244,216.23129149999997,216.99874949999997,60.0,89.0
245,217.3824785,217.74222443749997,62.0,79.0
246,217.76620749999998,218.22348455833333,65.0,75.0
247,218.72553,219.40664897499997,67.0,88.0
248,219.68485249999998,220.03500521249998,65.0,83.0
249,220.06858149999996,221.37485897083332,62.0,77.0
