,start,end,pitch,velocity
0,18.9945855,19.9778910625,53.0,83.0
1,18.610856499999997,20.120190566666665,48.0,58.0
2,18.227127499999998,20.22411717083333,41.0,86.0
3,20.1457725,20.542292466666666,60.0,88.0
4,19.762043499999997,20.5918574625,65.0,99.0
5,19.3783145,20.6446202,57.0,83.0
6,20.913230499999997,22.312242479166663,45.0,66.0
7,20.5295015,22.337824412499998,38.0,86.0
8,21.296959499999996,22.46413520833333,50.0,81.0
9,21.6806885,22.472129562499997,53.0,88.0
10,22.064417499999998,22.51210133333333,57.0,92.0
11,22.448146499999996,22.830276629166665,62.0,92.0
12,23.9830625,24.44513617083333,58.0,86.0
13,23.599333499999997,24.5154864875,53.0,82.0
14,23.215604499999998,24.662582604166666,50.0,56.0
15,22.8318755,24.702554375,46.0,107.0
16,24.750520499999997,25.234978362499998,58.0,83.0
17,24.366791499999998,25.25576368333333,65.0,93.0
18,25.1342495,26.84344242083333,36.0,74.0
19,25.517978499999998,26.878617579166665,43.0,58.0
20,25.901707499999997,27.025713695833332,48.0,79.0
21,26.6691655,27.387058504166664,60.0,77.0
22,26.285436499999996,27.393453987499996,64.0,89.0
23,27.052894499999997,27.423832533333332,55.0,69.0
24,28.587810499999996,29.045087558333332,58.0,97.0
25,27.436623499999996,29.107443520833332,46.0,88.0
26,28.204081499999997,29.166601741666664,53.0,68.0
27,27.8203525,29.19378254583333,50.0,67.0
28,28.9715395,29.727805404166663,65.0,90.0
29,29.355268499999998,29.742195241666664,45.0,73.0
30,30.506455499999998,31.0100998125,55.0,69.0
31,30.890184499999997,31.315484141666662,58.0,90.0
32,30.122726499999995,31.382636716666664,50.0,58.0
33,29.738997499999996,31.50574977083333,43.0,78.0
34,31.657642499999998,32.199659712499994,58.0,92.0
35,31.849506999999996,32.28439986666666,55.0,56.0
36,32.233236,32.3339648625,58.0,25.0
37,31.273913499999995,32.49545081666666,62.0,93.0
38,33.1925585,33.574688629166666,60.0,89.0
39,32.0413715,33.81771699583333,36.0,85.0
40,32.4251005,33.82251360833333,43.0,58.0
41,32.808829499999995,34.030366816666664,48.0,83.0
42,33.5762875,34.382118399999996,64.0,97.0
43,33.960016499999995,34.42209017083333,60.0,79.0
44,34.3437455,36.49902338333333,41.0,78.0
45,34.7274745,36.703678849999996,48.0,55.0
46,35.111203499999995,38.236995979166664,53.0,72.0
47,36.6461195,38.32173613333333,41.0,51.0
48,35.8786615,38.86375334583333,60.0,56.0
49,36.262390499999995,38.86854995833333,65.0,40.0
50,35.4949325,38.91651608333333,57.0,61.0
51,39.33222249999999,40.53777110833333,50.0,50.0
52,40.0996805,40.54576546249999,58.0,50.0
53,38.9484935,40.675273999999995,43.0,72.0
54,39.715951499999996,41.260460724999994,55.0,38.0
55,40.867138499999996,41.30842685,58.0,49.0
56,40.48340949999999,41.342003137499994,62.0,93.0
57,41.2508675,42.89770445833333,38.0,74.0
58,41.634596499999994,42.9632581625,45.0,39.0
59,42.018325499999996,43.486088925,50.0,69.0
60,42.785783499999994,43.590015529166664,65.0,82.0
61,43.169512499999996,43.59960875416666,62.0,69.0
62,42.4020545,43.63638278333333,57.0,52.0
63,44.7044285,45.19528184583333,57.0,71.0
64,44.320699499999996,45.288016354166665,53.0,74.0
65,43.936970499999994,45.396739570833326,48.0,63.0
66,43.5532415,45.47828198333333,41.0,72.0
67,45.088157499999994,45.86360985416666,65.0,83.0
68,45.4718865,45.897186141666666,57.0,75.0
69,45.088157499999994,45.897186141666666,60.0,82.0
70,47.00680249999999,47.504051329166664,55.0,63.0
71,45.8556155,47.53602874583333,36.0,62.0
72,46.6230735,47.55681406666666,48.0,79.0
73,46.239344499999994,47.56001180833333,43.0,53.0
74,47.390531499999994,48.19956014166666,60.0,88.0
75,47.7742605,48.20275788333333,55.0,67.0
76,47.390531499999994,48.22034546249999,64.0,83.0
77,48.9254475,49.3475494,55.0,70.0
78,49.30917649999999,49.731278399999994,58.0,72.0
79,48.541718499999995,49.81441968333333,50.0,62.0
80,48.15798949999999,49.84799597083333,43.0,82.0
81,49.692905499999995,50.48274769166666,62.0,77.0
82,50.0766345,50.49553865833333,58.0,59.0
83,51.2278215,51.71227936249999,57.0,75.0
84,50.844092499999995,52.19993496666666,52.0,60.0
85,50.46036349999999,52.28627399166666,45.0,75.0
86,52.3790085,52.80750588333333,57.0,85.0
87,51.995279499999995,52.897042649999996,64.0,76.0
88,51.61155049999999,52.91782797083333,60.0,72.0
89,53.91392449999999,54.4079755875,55.0,75.0
90,53.5301955,54.50230896666666,48.0,78.0
91,52.76273749999999,54.66219604999999,36.0,77.0
92,53.146466499999995,55.00595327916666,43.0,60.0
93,54.297653499999996,55.13546181666666,60.0,72.0
94,54.297653499999996,55.156247137499996,64.0,78.0
95,54.6813825,55.170636974999994,55.0,65.0
96,55.06511149999999,57.20759841666666,38.0,62.0
97,55.448840499999996,57.402660658333325,45.0,48.0
98,55.83256949999999,57.48740081249999,50.0,88.0
99,56.21629849999999,58.27564413333333,57.0,76.0
100,56.98375649999999,58.288435099999994,64.0,71.0
101,56.600027499999996,58.30762154999999,65.0,90.0
102,57.367485499999994,58.42114137916666,62.0,57.0
103,57.367485499999994,58.96635633333333,38.0,73.0
104,57.751214499999996,58.99193826666666,45.0,39.0
105,58.13494349999999,59.334096624999994,50.0,89.0
106,59.28613049999999,59.593113699999996,62.0,85.0
107,59.094266,59.596311441666664,64.0,72.0
108,58.902401499999996,59.599509183333325,65.0,93.0
109,58.518672499999994,59.674656112499996,57.0,89.0
110,60.0535885,60.51086555833333,53.0,82.0
111,60.24545299999999,60.552436199999995,57.0,72.0
112,60.62918199999999,60.90258891249999,53.0,75.0
113,61.012910999999995,61.2047755,53.0,66.0
114,60.821046499999994,61.27672468749999,57.0,72.0
115,61.39663999999999,61.554928212499995,53.0,85.0
116,59.861723999999995,61.559724824999996,48.0,76.0
117,61.2047755,61.590103370833326,60.0,82.0
118,59.669859499999994,61.636470624999994,41.0,76.0
119,61.78036899999999,61.93545947083333,60.0,77.0
120,60.43731749999999,61.94185495416666,65.0,90.0
121,61.58850449999999,62.00421091666666,57.0,78.0
122,62.54782699999999,62.818036170833324,57.0,67.0
123,62.73969149999999,62.99391196249999,62.0,75.0
124,62.93155599999999,63.16818888333333,57.0,86.0
125,63.123420499999995,63.36325112499999,62.0,72.0
126,62.164097999999996,63.49595740416666,45.0,42.0
127,61.972233499999994,63.57749981666666,38.0,71.0
128,63.315284999999996,63.583895299999995,57.0,85.0
129,62.3559625,63.80933608749999,50.0,71.0
130,63.69901399999999,63.92285591666666,57.0,72.0
131,63.5071495,64.19466395833332,65.0,92.0
132,63.89087849999999,64.226641375,62.0,88.0
133,64.082743,64.24742669583333,57.0,83.0
134,64.850201,65.12360791249999,58.0,71.0
135,64.65833649999999,65.14599210416667,53.0,69.0
136,65.23392999999999,65.48335385,53.0,57.0
137,65.61765899999999,65.86708284999999,53.0,58.0
138,65.4257945,65.86708284999999,58.0,55.0
139,64.466472,66.1021168625,50.0,48.0
140,65.8095235,66.10531460416667,62.0,58.0
141,66.00138799999999,66.12929766666666,53.0,59.0
142,64.27460749999999,66.1500829875,46.0,97.0
143,66.1932525,66.44107747916667,58.0,89.0
144,65.04206549999999,66.529015375,65.0,63.0
145,66.385117,66.54980069583333,62.0,57.0
146,66.96071049999999,67.3972022375,53.0,72.0
147,67.152575,67.42917965416666,57.0,72.0
148,67.53630399999999,67.77453575416666,53.0,75.0
149,67.3444395,68.00317428333332,60.0,74.0
150,67.92003299999999,68.17745120416666,53.0,63.0
151,67.7281685,68.23341168333333,57.0,70.0
152,66.768846,68.45405585833333,48.0,55.0
153,66.57698149999999,68.51161520833332,41.0,56.0
154,68.30376199999999,68.51481294999999,53.0,73.0
155,68.4956265,68.87296001666665,60.0,85.0
156,68.687491,68.89854195,57.0,82.0
157,68.1118975,68.90014082083333,65.0,95.0
158,69.26308449999999,69.70597172083333,53.0,72.0
159,69.454949,69.76193219999999,57.0,72.0
160,69.83867799999999,70.06411878749999,53.0,60.0
161,69.6468135,70.15845216666666,60.0,88.0
162,70.22240699999999,70.4574410125,53.0,76.0
163,70.0305425,70.500610525,57.0,77.0
164,69.07122,70.70526599166666,48.0,59.0
165,70.60613599999999,70.72765018333332,53.0,69.0
166,68.87935549999999,70.75642985833332,41.0,79.0
167,70.79800049999999,71.10018708749999,60.0,82.0
168,70.4142715,71.13216450416665,65.0,93.0
169,70.989865,71.18172949999999,57.0,78.0
170,71.757323,72.00514797916667,57.0,69.0
171,71.373594,72.40166794583332,45.0,59.0
172,72.14105199999999,72.40806342916666,57.0,69.0
173,71.56545849999999,72.47201826249999,50.0,72.0
174,72.3329165,72.59033470416666,62.0,72.0
175,71.18172949999999,72.61751550833333,38.0,86.0
176,71.9491875,72.63190534583333,65.0,88.0
177,72.52478099999999,72.707052275,57.0,81.0
178,72.7166455,73.27145367916665,36.0,81.0
179,72.90850999999999,73.33860625416666,43.0,53.0
180,73.10037449999999,73.4601204375,48.0,69.0
181,73.292239,73.47770801666665,55.0,72.0
182,73.86783249999999,74.35069149166667,53.0,74.0
183,74.05969699999999,74.36987794166666,57.0,75.0
184,74.44342599999999,74.66407017499999,53.0,67.0
185,74.82715499999999,75.0525957875,53.0,63.0
186,74.6352905,75.08777094583333,57.0,76.0
187,75.0190195,75.32760157083332,60.0,81.0
188,75.210884,75.38995753333333,53.0,69.0
189,73.48410349999999,75.46670333333333,41.0,72.0
190,74.2515615,75.70493508749999,65.0,90.0
191,73.675968,75.74330798749999,48.0,75.0
192,75.594613,75.77848314583332,60.0,77.0
193,75.40274849999999,75.78327975833332,57.0,89.0
194,76.17020649999999,76.54754001666666,55.0,73.0
195,76.36207099999999,76.63387904166666,57.0,70.0
196,75.978342,76.6354779125,50.0,52.0
197,76.74579999999999,76.98882836666665,50.0,59.0
198,77.12952899999999,77.39014494583333,50.0,63.0
199,76.9376645,77.4365122,55.0,78.0
200,77.513258,77.637969925,50.0,58.0
201,75.78647749999999,77.72430895,43.0,76.0
202,77.3213935,77.72590782083333,58.0,97.0
203,76.5539355,78.05207747083332,62.0,83.0
204,77.896987,78.06326956666666,58.0,75.0
205,77.70512249999999,78.11123569166666,55.0,85.0
206,78.47258049999999,78.92665981666666,48.0,82.0
207,78.66444499999999,78.99221352083333,55.0,66.0
208,79.04817399999999,79.30878994583333,48.0,75.0
209,79.2400385,79.68452459166666,55.0,78.0
210,79.43190299999999,79.69731555833333,48.0,47.0
211,78.08885149999999,80.00429875833332,36.0,66.0
212,78.280716,80.02348520833333,43.0,55.0
213,79.815632,80.19296551666666,48.0,59.0
214,79.62376749999999,80.34166050416665,60.0,78.0
215,80.00749649999999,80.35445147083333,55.0,73.0
216,78.8563095,80.39921985416666,64.0,85.0
217,80.77495449999999,81.42889267083332,50.0,56.0
218,81.5424125,81.90375730833333,50.0,56.0
219,80.39122549999999,81.93733359583332,43.0,69.0
220,81.92614149999999,82.7079893375,58.0,79.0
221,81.1586835,82.7079893375,62.0,81.0
222,82.30987049999999,82.76235094583332,55.0,69.0
223,83.4610575,84.17095615,62.0,69.0
224,82.69359949999999,84.43956644999999,38.0,73.0
225,83.0773285,84.44756080416666,45.0,59.0
226,83.8447865,84.52750434583332,50.0,48.0
227,84.61224449999999,85.06952155833332,62.0,82.0
228,84.22851549999999,85.07911478333332,65.0,81.0
229,85.7634315,86.54847707916666,53.0,88.0
230,86.1471605,86.66199690833332,57.0,93.0
231,85.3797025,86.68278222916666,48.0,48.0
232,84.99597349999999,86.78510996249999,41.0,71.0
233,86.53088949999999,87.28395766249999,65.0,100.0
234,86.91461849999999,87.50140409583332,60.0,74.0
235,87.6820765,88.83166462916665,43.0,41.0
236,87.29834749999999,88.89721833333333,36.0,79.0
237,88.44953449999998,88.89881720416666,55.0,82.0
238,88.0658055,89.01073816249999,48.0,71.0
239,89.025128,89.58633166249999,60.0,77.0
240,89.21699249999999,89.59112827499999,55.0,76.0
241,88.83326349999999,89.62630343333332,64.0,83.0
242,89.9844505,90.57603270833333,50.0,71.0
243,90.3681795,91.06368831249999,58.0,100.0
244,89.60072149999999,91.39305570416666,43.0,82.0
245,90.75190849999998,91.57692585,50.0,63.0
246,91.13563749999999,91.92068307916666,62.0,90.0
247,91.51936649999999,91.92867743333332,58.0,72.0
248,92.2868245,92.85762138749999,52.0,59.0
249,93.05428249999999,93.47478552916665,52.0,43.0
250,92.6705535,93.57551439166666,57.0,73.0
251,91.90309549999999,93.58510761666666,45.0,72.0
252,93.82174049999999,94.15750337499999,57.0,81.0
253,93.43801149999999,94.22465594999998,64.0,78.0
254,94.9729275,95.67643066666666,60.0,78.0
255,95.35665649999999,95.74837985416666,48.0,65.0
256,94.20546949999999,96.07774724583332,36.0,83.0
257,94.5891985,96.50784349999999,43.0,52.0
258,96.12411449999999,96.51583785416666,55.0,75.0
259,95.74038549999999,96.52702994999999,64.0,81.0
260,97.27530149999998,97.99799111666665,62.0,69.0
261,97.65903049999999,98.37692350416665,50.0,48.0
262,98.04275949999999,98.53521171666665,64.0,75.0
263,96.50784349999999,98.69190105833333,38.0,70.0
264,96.8915725,98.82620620833332,45.0,46.0
265,98.42648849999999,100.23001479999999,65.0,59.0
266,99.1939465,101.00546715416665,45.0,51.0
267,99.96140449999999,101.06462537499999,50.0,60.0
268,98.8102175,101.08541069583332,38.0,73.0
269,99.57767549999998,101.08700956666665,62.0,52.0
270,100.34513349999999,101.10619601666666,65.0,72.0
271,100.72886249999999,101.10939375833333,57.0,68.0
272,102.26377849999999,102.68428152916665,53.0,72.0
273,101.88004949999998,102.70027023749999,57.0,100.0
274,101.4963205,102.78980700416666,48.0,48.0
275,101.1125915,102.84576748333332,41.0,82.0
276,102.64750749999999,103.35101066666665,60.0,73.0
277,102.64750749999999,103.45973388333333,65.0,88.0
278,103.03123649999999,103.49970565416666,57.0,76.0
279,103.7986945,104.90831085833332,45.0,44.0
280,103.4149655,105.02023181666665,38.0,85.0
281,104.18242349999998,105.15293809583332,50.0,86.0
282,104.56615249999999,105.7173395,57.0,92.0
283,105.33361049999999,105.7173395,62.0,77.0
284,104.94988149999999,105.7173395,65.0,99.0
285,106.48479749999998,107.27943630416665,57.0,92.0
286,106.86852649999999,107.51447031666666,53.0,65.0
287,106.1010685,107.61999579166665,48.0,56.0
288,105.7173395,107.72871900833333,41.0,78.0
289,107.25225549999999,107.9765439875,65.0,86.0
290,107.63598449999999,108.00692253333332,57.0,79.0
291,107.25225549999999,108.02930672499998,60.0,82.0
292,108.0197135,109.48587805416666,36.0,72.0
293,108.40344249999998,109.50826224583332,43.0,66.0
294,108.78717149999999,109.71131884166665,48.0,63.0
295,109.55462949999999,110.34607056249999,64.0,96.0
296,109.17090049999999,110.34926830416666,55.0,81.0
297,109.93835849999999,110.34926830416666,60.0,75.0
298,110.70581649999998,111.25263032499998,50.0,58.0
299,111.08954549999999,111.93215042916665,55.0,90.0
300,110.3220875,112.15279460416666,43.0,74.0
301,111.47327449999999,112.5429190875,50.0,61.0
302,112.2407325,112.6244615,55.0,75.0
303,111.85700349999999,112.6244615,58.0,79.0
304,111.85700349999999,112.6244615,62.0,92.0
305,113.39191949999999,113.90995364999999,50.0,79.0
306,113.00819049999998,114.22493120416665,45.0,75.0
307,112.6244615,114.29048490833333,38.0,76.0
308,114.15937749999999,114.89965469583332,65.0,93.0
309,114.5431065,114.93642872499998,62.0,89.0
310,113.77564849999999,114.97480162499998,57.0,86.0
311,115.69429349999999,116.41218650416666,60.0,92.0
312,115.31056449999998,116.49532778749999,43.0,41.0
313,114.9268355,116.5145142375,36.0,77.0
314,116.07802249999999,116.73995502499999,48.0,47.0
315,116.8454805,117.24839594999999,60.0,59.0
316,116.46175149999999,117.27557675416665,64.0,97.0
317,117.61293849999998,119.49800721249999,48.0,47.0
318,119.1478545,119.52998462916665,67.0,70.0
319,118.38039649999999,119.53318237083332,60.0,96.0
320,117.99666749999999,119.53797898333332,53.0,97.0
321,118.76412549999999,119.53957785416665,69.0,107.0
322,117.22920949999998,119.57475301249998,41.0,88.0
323,119.91531249999998,121.12086110833332,50.0,50.0
324,120.68277049999999,121.12885546249998,58.0,50.0
325,119.53158349999998,121.25836399999999,43.0,72.0
326,120.29904149999999,121.84355072499999,55.0,38.0
327,121.4502285,121.89151684999999,58.0,49.0
328,121.06649949999999,121.92509313749999,62.0,93.0
329,121.83395749999998,123.48079445833332,38.0,74.0
330,122.21768649999999,123.54634816249998,45.0,39.0
331,122.60141549999999,124.06917892499999,50.0,69.0
332,123.36887349999999,124.17310552916665,65.0,82.0
333,123.7526025,124.18269875416665,62.0,69.0
334,122.98514449999999,124.21947278333332,57.0,52.0
335,125.28751849999999,125.77837184583332,57.0,71.0
336,124.90378949999999,125.87110635416666,53.0,74.0
337,124.52006049999999,125.97982957083332,48.0,63.0
338,124.13633149999998,126.06137198333332,41.0,72.0
339,125.67124749999999,126.44669985416665,65.0,83.0
340,126.05497649999998,126.48027614166665,57.0,75.0
341,125.67124749999999,126.48027614166665,60.0,82.0
342,127.58989249999999,128.08714132916666,55.0,63.0
343,126.43870549999998,128.11911874583333,36.0,62.0
344,127.20616349999999,128.13990406666665,48.0,79.0
345,126.82243449999999,128.1431018083333,43.0,53.0
346,127.9736215,128.78265014166666,60.0,88.0
347,128.3573505,128.78584788333333,55.0,67.0
348,127.9736215,128.80343546249998,64.0,83.0
349,129.5085375,129.9306394,55.0,70.0
350,129.89226649999998,130.31436839999998,58.0,72.0
351,129.1248085,130.3975096833333,50.0,62.0
352,128.74107949999998,130.43108597083332,43.0,82.0
353,130.2759955,131.06583769166664,62.0,77.0
354,130.65972449999998,131.07862865833332,58.0,59.0
355,131.81091149999997,132.2953693625,57.0,75.0
356,131.4271825,132.78302496666666,52.0,60.0
357,131.0434535,132.86936399166666,45.0,75.0
358,132.9620985,133.39059588333333,57.0,85.0
359,132.57836949999998,133.48013264999997,64.0,76.0
360,132.1946405,133.5009179708333,60.0,72.0
361,134.49701449999998,134.99106558749997,55.0,75.0
362,134.1132855,135.08539896666665,48.0,78.0
363,133.34582749999998,135.24528604999998,36.0,77.0
364,133.7295565,135.58904327916665,43.0,60.0
365,134.8807435,135.71855181666666,60.0,72.0
366,134.8807435,135.73933713749997,64.0,78.0
367,135.26447249999998,135.75372697499998,55.0,65.0
368,135.6482015,137.79068841666665,38.0,62.0
369,136.0319305,137.98575065833333,45.0,48.0
370,136.41565949999998,138.0704908125,50.0,88.0
371,136.7993885,138.85873413333331,57.0,76.0
372,137.5668465,138.87152509999999,64.0,71.0
373,137.18311749999998,138.89071155,65.0,90.0
374,137.95057549999999,139.00423137916664,62.0,57.0
375,137.95057549999999,139.54944633333332,38.0,73.0
376,138.33430449999997,139.57502826666666,45.0,39.0
377,138.7180335,139.917186625,50.0,89.0
378,139.86922049999998,140.17620369999997,62.0,85.0
379,139.67735599999997,140.17940144166664,64.0,72.0
380,139.4854915,140.1825991833333,65.0,93.0
381,139.10176249999998,140.25774611249997,57.0,89.0
382,140.6366785,141.0939555583333,53.0,82.0
383,140.828543,141.1355262,57.0,72.0
384,141.21227199999998,141.4856789125,53.0,75.0
385,141.59600099999997,141.78786549999998,53.0,66.0
386,141.4041365,141.85981468749998,57.0,72.0
387,141.97973,142.1380182125,53.0,85.0
388,140.44481399999998,142.142814825,48.0,76.0
389,141.78786549999998,142.17319337083333,60.0,82.0
390,140.2529495,142.21956062499999,41.0,76.0
391,142.36345899999998,142.5185494708333,60.0,77.0
392,141.02040749999998,142.52494495416664,65.0,90.0
393,142.1715945,142.58730091666666,57.0,78.0
394,143.13091699999998,143.40112617083332,57.0,67.0
395,143.3227815,143.5770019625,62.0,75.0
396,143.514646,143.75127888333333,57.0,86.0
397,143.70651049999998,143.94634112499998,62.0,72.0
398,142.747188,144.07904740416666,45.0,42.0
399,142.5553235,144.16058981666666,38.0,71.0
400,143.898375,144.1669853,57.0,85.0
401,142.93905249999997,144.39242608749998,50.0,71.0
402,144.28210399999998,144.50594591666666,57.0,72.0
403,144.0902395,144.7777539583333,65.0,92.0
404,144.47396849999998,144.80973137499998,62.0,88.0
405,144.665833,144.83051669583332,57.0,83.0
406,145.433291,145.70669791249998,58.0,71.0
407,145.2414265,145.72908210416665,53.0,69.0
408,145.81701999999999,146.06644384999998,53.0,57.0
409,146.20074899999997,146.45017284999997,53.0,58.0
410,146.0088845,146.45017284999997,58.0,55.0
411,145.04956199999998,146.6852068625,50.0,48.0
412,146.39261349999998,146.68840460416666,62.0,58.0
413,146.584478,146.71238766666664,53.0,59.0
414,144.85769749999997,146.73317298749998,46.0,97.0
415,146.7763425,147.02416747916666,58.0,89.0
416,145.62515549999998,147.112105375,65.0,63.0
417,146.96820699999998,147.1328906958333,62.0,57.0
418,147.54380049999997,147.98029223749998,53.0,72.0
419,147.73566499999998,148.01226965416666,57.0,72.0
420,148.11939399999997,148.35762575416666,53.0,75.0
421,147.9275295,148.58626428333332,60.0,74.0
422,148.503123,148.76054120416666,53.0,63.0
423,148.31125849999998,148.8165016833333,57.0,70.0
424,147.351936,149.03714585833333,48.0,55.0
425,147.1600715,149.09470520833332,41.0,56.0
426,148.88685199999998,149.09790295,53.0,73.0
427,149.07871649999998,149.45605001666667,60.0,85.0
428,149.270581,149.48163194999998,57.0,82.0
429,148.6949875,149.4832308208333,65.0,95.0
430,149.8461745,150.28906172083333,53.0,72.0
431,150.038039,150.3450222,57.0,72.0
432,150.421768,150.64720878749998,53.0,60.0
433,150.22990349999998,150.74154216666665,60.0,88.0
434,150.80549699999997,151.0405310125,53.0,76.0
435,150.6136325,151.08370052499998,57.0,77.0
436,149.65430999999998,151.28835599166666,48.0,59.0
437,151.189226,151.3107401833333,53.0,69.0
438,149.46244549999997,151.33951985833332,41.0,79.0
439,151.3810905,151.6832770875,60.0,82.0
440,150.99736149999998,151.71525450416667,65.0,93.0
441,151.57295499999998,151.7648195,57.0,78.0
442,152.34041299999998,152.58823797916665,57.0,69.0
443,151.956684,152.9847579458333,45.0,59.0
444,152.72414199999997,152.99115342916664,57.0,69.0
445,152.14854849999998,153.0551082625,50.0,72.0
446,152.91600649999998,153.17342470416665,62.0,72.0
447,151.7648195,153.20060550833333,38.0,86.0
448,152.5322775,153.21499534583333,65.0,88.0
449,153.107871,153.290142275,57.0,81.0
450,153.2997355,153.85454367916665,36.0,81.0
451,153.49159999999998,153.92169625416665,43.0,53.0
452,153.68346449999999,154.0432104375,48.0,69.0
453,153.875329,154.06079801666664,55.0,72.0
454,154.4509225,154.93378149166665,53.0,74.0
455,154.642787,154.95296794166666,57.0,75.0
456,155.026516,155.24716017499998,53.0,67.0
457,155.41024499999997,155.6356857875,53.0,63.0
458,155.2183805,155.6708609458333,57.0,76.0
459,155.60210949999998,155.9106915708333,60.0,81.0
460,155.793974,155.97304753333333,53.0,69.0
461,154.06719349999997,156.04979333333333,41.0,72.0
462,154.83465149999998,156.2880250875,65.0,90.0
463,154.25905799999998,156.32639798749997,48.0,75.0
464,156.17770299999998,156.36157314583332,60.0,77.0
465,155.98583849999997,156.36636975833332,57.0,89.0
466,156.75329649999998,157.13063001666666,55.0,73.0
467,156.94516099999998,157.21696904166666,57.0,70.0
468,156.561432,157.2185679125,50.0,52.0
469,157.32888999999997,157.57191836666667,50.0,59.0
470,157.712619,157.97323494583333,50.0,63.0
471,157.52075449999998,158.01960219999998,55.0,78.0
472,158.09634799999998,158.221059925,50.0,58.0
473,156.3695675,158.30739895,43.0,76.0
474,157.9044835,158.30899782083333,58.0,97.0
475,157.1370255,158.63516747083332,62.0,83.0
476,158.480077,158.64635956666666,58.0,75.0
477,158.2882125,158.69432569166665,55.0,85.0
478,159.0556705,159.50974981666664,48.0,82.0
479,159.24753499999997,159.57530352083333,55.0,66.0
480,159.631264,159.89187994583332,48.0,75.0
481,159.8231285,160.26761459166664,55.0,78.0
482,160.01499299999998,160.2804055583333,48.0,47.0
483,158.67194149999997,160.5873887583333,36.0,66.0
484,158.86380599999998,160.6065752083333,43.0,55.0
485,160.398722,160.77605551666664,48.0,59.0
486,160.20685749999998,160.92475050416664,60.0,78.0
487,160.59058649999997,160.9375414708333,55.0,73.0
488,159.43939949999998,160.98230985416666,64.0,85.0
489,161.35804449999998,162.0119826708333,50.0,56.0
490,162.12550249999998,162.48684730833332,50.0,56.0
491,160.9743155,162.5204235958333,43.0,69.0
492,162.50923149999997,163.29107933749998,58.0,79.0
493,161.7417735,163.29107933749998,62.0,81.0
494,162.8929605,163.3454409458333,55.0,69.0
495,164.04414749999998,164.75404615,62.0,69.0
496,163.27668949999997,165.02265644999997,38.0,73.0
497,163.6604185,165.03065080416664,45.0,59.0
498,164.4278765,165.1105943458333,50.0,48.0
499,165.19533449999997,165.65261155833332,62.0,82.0
500,164.81160549999998,165.66220478333332,65.0,81.0
501,166.3465215,167.13156707916664,53.0,88.0
502,166.73025049999998,167.24508690833332,57.0,93.0
503,165.96279249999998,167.26587222916666,48.0,48.0
504,165.5790635,167.36819996249997,41.0,71.0
505,167.11397949999997,167.86704766249997,65.0,100.0
506,167.4977085,168.08449409583332,60.0,74.0
507,168.2651665,169.41475462916665,43.0,41.0
508,167.88143749999998,169.4803083333333,36.0,79.0
509,169.0326245,169.48190720416665,55.0,82.0
510,168.64889549999998,169.5938281625,48.0,71.0
511,169.608218,170.16942166249999,60.0,77.0
512,169.80008249999997,170.174218275,55.0,76.0
513,169.41635349999999,170.2093934333333,64.0,83.0
514,170.56754049999998,171.1591227083333,50.0,71.0
515,170.9512695,171.64677831249998,58.0,100.0
516,170.1838115,171.97614570416664,43.0,82.0
517,171.33499849999998,172.16001584999998,50.0,63.0
518,171.71872749999997,172.50377307916665,62.0,90.0
519,172.1024565,172.51176743333332,58.0,72.0
520,172.8699145,173.4407113875,52.0,59.0
521,173.63737249999997,174.05787552916664,52.0,43.0
522,173.25364349999998,174.15860439166664,57.0,73.0
523,172.48618549999998,174.16819761666665,45.0,72.0
524,174.40483049999997,174.74059337499997,57.0,81.0
525,174.0211015,174.80774594999997,64.0,78.0
526,175.5560175,176.25952066666665,60.0,78.0
527,175.93974649999998,176.33146985416664,48.0,65.0
528,174.7885595,176.6608372458333,36.0,83.0
529,175.17228849999998,177.09093349999998,43.0,52.0
530,176.7072045,177.09892785416665,55.0,75.0
531,176.32347549999997,177.11011994999998,64.0,81.0
532,177.85839149999998,178.58108111666664,62.0,69.0
533,178.24212049999997,178.96001350416665,50.0,48.0
534,178.6258495,179.11830171666665,64.0,75.0
535,177.09093349999998,179.2749910583333,38.0,70.0
536,177.4746625,179.4092962083333,45.0,46.0
537,179.00957849999998,180.8131048,65.0,59.0
538,179.77703649999998,181.58855715416664,45.0,51.0
539,180.54449449999998,181.647715375,50.0,60.0
540,179.3933075,181.6685006958333,38.0,73.0
541,180.1607655,181.67009956666664,62.0,52.0
542,180.92822349999997,181.68928601666664,65.0,72.0
543,181.3119525,181.6924837583333,57.0,68.0
544,182.0794105,182.5366875583333,53.0,82.0
545,182.27127499999997,182.5782582,57.0,72.0
546,182.655004,182.92841091249997,53.0,75.0
547,183.03873299999998,183.2305975,53.0,66.0
548,182.84686849999997,183.30254668749998,57.0,72.0
549,183.422462,183.5807502125,53.0,85.0
550,181.887546,183.585546825,48.0,76.0
551,183.2305975,183.6159253708333,60.0,82.0
552,181.69568149999998,183.662292625,41.0,76.0
553,183.80619099999998,183.9612814708333,60.0,77.0
554,182.46313949999998,183.96767695416665,65.0,90.0
555,183.61432649999998,184.03003291666664,57.0,78.0
556,184.573649,184.84385817083333,57.0,67.0
557,184.76551349999997,185.01973396249997,62.0,75.0
558,184.95737799999998,185.1940108833333,57.0,86.0
559,185.14924249999999,185.38907312499998,62.0,72.0
560,184.18991999999997,185.52177940416664,45.0,42.0
561,183.9980555,185.60332181666664,38.0,71.0
562,185.341107,185.60971729999997,57.0,85.0
563,184.38178449999998,185.8351580875,50.0,71.0
564,185.72483599999998,185.94867791666664,57.0,72.0
565,185.9167005,186.252463375,62.0,88.0
566,186.10856499999997,186.2732486958333,57.0,83.0
567,186.87602299999998,187.14942991249998,58.0,71.0
568,186.6841585,187.17181410416666,53.0,69.0
569,187.259752,187.50917585,53.0,57.0
570,187.64348099999998,187.89290484999998,53.0,58.0
571,187.45161649999997,187.89290484999998,58.0,55.0
572,186.492294,188.12793886249997,50.0,48.0
573,187.8353455,188.13113660416664,62.0,58.0
574,188.02720999999997,188.15511966666665,53.0,59.0
575,186.30042949999998,188.1759049875,46.0,97.0
576,188.21907449999998,188.46689947916664,58.0,89.0
577,187.06788749999998,188.55483737499998,65.0,63.0
578,188.41093899999998,188.57562269583332,62.0,57.0
579,188.98653249999998,189.4230242375,53.0,72.0
580,189.178397,189.45500165416664,57.0,72.0
581,189.56212599999998,189.80035775416664,53.0,75.0
582,189.37026149999997,190.02899628333333,60.0,74.0
583,189.945855,190.20327320416663,53.0,63.0
584,189.7539905,190.25923368333332,57.0,70.0
585,188.79466799999997,190.4798778583333,48.0,55.0
586,188.6028035,190.5374372083333,41.0,56.0
587,190.32958399999998,190.54063494999997,53.0,73.0
588,190.5214485,190.89878201666664,60.0,85.0
589,190.71331299999997,190.92436395,57.0,82.0
590,190.13771949999997,190.92596282083332,65.0,95.0
591,191.28890649999997,191.7317937208333,53.0,72.0
592,191.48077099999998,191.7877542,57.0,72.0
593,191.8645,192.08994078749998,53.0,60.0
594,191.67263549999998,192.18427416666665,60.0,88.0
595,192.24822899999998,192.48326301249998,53.0,76.0
596,192.05636449999997,192.526432525,57.0,77.0
597,191.097042,192.73108799166664,48.0,59.0
598,192.63195799999997,192.75347218333332,53.0,69.0
599,190.90517749999998,192.78225185833332,41.0,79.0
600,192.82382249999998,193.1260090875,60.0,82.0
601,193.01568699999999,193.2075515,57.0,78.0
602,193.783145,194.03096997916666,57.0,69.0
603,193.39941599999997,194.42748994583332,45.0,59.0
604,194.16687399999998,194.43388542916665,57.0,69.0
605,193.59128049999998,194.49784026249998,50.0,72.0
606,194.3587385,194.5809815458333,62.0,72.0
607,193.2075515,194.6433375083333,38.0,86.0
608,194.55060299999997,194.73287427499997,57.0,81.0
609,194.74246749999998,195.29727567916666,36.0,81.0
610,194.93433199999998,195.36442825416665,43.0,53.0
611,195.1261965,195.48594243749997,48.0,69.0
612,195.31806099999997,195.50353001666664,55.0,72.0
613,195.89365449999997,196.37651349166666,53.0,74.0
614,196.08551899999998,196.39569994166663,57.0,75.0
615,196.469248,196.68989217499998,53.0,67.0
616,196.85297699999998,197.07841778749997,53.0,63.0
617,196.66111249999997,197.11359294583332,57.0,76.0
618,197.0448415,197.35342357083331,60.0,81.0
619,197.23670599999997,197.4157795333333,53.0,69.0
620,195.50992549999998,197.4925253333333,41.0,72.0
621,196.27738349999998,197.73075708749997,65.0,90.0
622,195.70179,197.76912998749998,48.0,75.0
623,197.620435,197.80430514583333,60.0,77.0
624,197.42857049999998,197.80910175833333,57.0,89.0
625,198.19602849999998,198.57336201666664,55.0,73.0
626,198.387893,198.65970104166664,57.0,70.0
627,198.00416399999997,198.66129991249997,50.0,52.0
628,198.77162199999998,199.01465036666664,50.0,59.0
629,199.15535099999997,199.4159669458333,50.0,63.0
630,198.9634865,199.4623342,55.0,78.0
631,199.53907999999998,199.66379192499997,50.0,58.0
632,197.8122995,199.75013094999997,43.0,76.0
633,199.34721549999998,199.7517298208333,58.0,97.0
634,198.57975749999997,200.0778994708333,62.0,83.0
635,199.92280899999997,200.08909156666664,58.0,75.0
636,199.7309445,200.13705769166666,55.0,85.0
637,200.49840249999997,200.95248181666665,48.0,82.0
638,200.69026699999998,201.0180355208333,55.0,66.0
639,201.073996,201.3346119458333,48.0,75.0
640,201.26586049999997,201.71034659166665,55.0,78.0
641,201.45772499999998,201.72313755833332,48.0,47.0
642,200.11467349999998,202.0301207583333,36.0,66.0
643,200.306538,202.04930720833332,43.0,55.0
644,201.84145399999997,202.21878751666665,48.0,59.0
645,201.6495895,202.36748250416665,60.0,78.0
646,202.03331849999998,202.38027347083332,55.0,73.0
647,200.88213149999999,202.42504185416664,64.0,85.0
648,202.80077649999998,203.4547146708333,50.0,56.0
649,203.5682345,203.9295793083333,50.0,56.0
650,202.41704749999997,203.9631555958333,43.0,69.0
651,203.95196349999998,204.7338113375,58.0,79.0
652,203.18450549999997,204.7338113375,62.0,81.0
653,204.3356925,204.7881729458333,55.0,69.0
654,205.4868795,206.19677814999997,62.0,69.0
655,204.71942149999998,206.46538844999998,38.0,73.0
656,205.10315049999997,206.47338280416665,45.0,59.0
657,205.87060849999997,206.5533263458333,50.0,48.0
658,206.63806649999998,207.09534355833333,62.0,82.0
659,206.2543375,207.1049367833333,65.0,81.0
660,207.78925349999997,208.57429907916665,53.0,88.0
661,208.1729825,208.68781890833333,57.0,93.0
662,207.40552449999998,208.70860422916664,48.0,48.0
663,207.02179549999997,208.81093196249998,41.0,71.0
664,208.55671149999998,209.30977966249998,65.0,100.0
665,208.94044049999997,209.5272260958333,60.0,74.0
666,209.70789849999997,210.85748662916666,43.0,41.0
667,209.32416949999998,210.92304033333332,36.0,79.0
668,210.47535649999998,210.92463920416665,55.0,82.0
669,210.0916275,211.03656016249997,48.0,71.0
670,211.05094999999997,211.6121536625,60.0,77.0
671,211.24281449999998,211.61695027499997,55.0,76.0
672,210.8590855,211.6521254333333,64.0,83.0
673,212.01027249999999,212.60185470833332,50.0,71.0
674,212.39400149999997,213.08951031249998,58.0,100.0
675,211.62654349999997,213.41887770416665,43.0,82.0
676,212.7777305,213.60274785,50.0,63.0
677,213.16145949999998,213.94650507916666,62.0,90.0
678,213.54518849999997,213.95449943333332,58.0,72.0
679,214.31264649999997,214.88344338749997,52.0,59.0
680,215.08010449999998,215.50060752916664,52.0,43.0
681,214.6963755,215.60133639166665,57.0,73.0
682,213.92891749999998,215.61092961666665,45.0,72.0
683,215.84756249999998,216.18332537499998,57.0,81.0
684,215.4638335,216.25047794999998,64.0,78.0
685,216.99874949999997,217.70225266666665,60.0,78.0
686,217.3824785,217.77420185416665,48.0,65.0
687,216.23129149999997,218.1035692458333,36.0,83.0
688,216.61502049999999,218.53366549999998,43.0,52.0
689,218.53366549999998,218.54165985416665,38.0,70.0
690,218.53366549999998,218.54165985416665,38.0,85.0
691,218.14993649999997,218.54165985416665,55.0,75.0
692,217.76620749999998,218.55125307916666,64.0,81.0
693,218.91739449999997,220.22047422916665,45.0,43.0
694,219.68485249999998,220.27483583749998,57.0,96.0
695,219.3011235,220.49388114166663,50.0,69.0
696,220.26044599999997,220.79446885833332,62.0,81.0
697,220.45231049999998,220.807259825,57.0,88.0
698,220.06858149999996,220.85522594999998,65.0,99.0
699,221.60349749999997,222.34537356666664,65.0,85.0
700,221.9872265,222.46848662083332,53.0,68.0
701,221.2197685,222.6539556375,48.0,52.0
702,220.83603949999997,222.7035206333333,41.0,83.0
703,222.75468449999997,223.16719317499997,60.0,83.0
704,222.37095549999998,223.19917059166664,69.0,100.0
705,223.9058715,224.32637452916666,62.0,93.0
706,223.13841349999998,224.65414305,38.0,88.0
707,223.52214249999997,224.66053853333332,45.0,44.0
708,224.28960049999998,224.79164594166664,50.0,78.0
709,225.05705849999998,225.42000217916666,57.0,78.0
710,224.67332949999997,225.4423863708333,65.0,92.0
711,224.67332949999997,225.4519795958333,62.0,86.0
712,226.20824549999998,226.95491817916664,62.0,88.0
713,225.8245165,227.14998042083332,53.0,51.0
714,226.59197449999996,227.15637590416665,58.0,92.0
715,225.44078749999997,227.22352847916665,46.0,96.0
716,226.97570349999998,227.73356827499998,65.0,100.0
717,227.35943249999997,227.75915020833332,62.0,95.0
718,228.12689049999997,228.9678965583333,55.0,82.0
719,228.5106195,229.15496444583331,60.0,99.0
720,227.74316149999999,229.1933373458333,48.0,82.0
721,228.89434849999998,229.3947950708333,64.0,90.0
722,229.27807749999997,230.0471343708333,67.0,99.0
723,229.66180649999998,230.05832646666664,60.0,93.0
724,230.81299349999998,231.4765248958333,58.0,95.0
725,230.4292645,231.5948413375,53.0,54.0
726,231.19672249999996,231.6252198833333,62.0,93.0
727,230.04553549999997,231.7115589083333,46.0,89.0
728,231.58045149999998,232.30793772916664,65.0,97.0
729,231.96418049999997,232.34311288749998,62.0,95.0
730,232.73163849999997,233.3711868333333,50.0,76.0
731,233.49909649999998,233.9659667833333,50.0,62.0
732,232.3479095,234.01073516666665,43.0,73.0
733,234.26655449999998,234.63909140416663,58.0,85.0
734,233.88282549999997,234.6518823708333,62.0,97.0
735,233.1153675,234.7478146208333,55.0,90.0
736,235.41774149999998,236.11165144166665,60.0,75.0
737,236.18519949999998,236.22836901249997,60.0,42.0
738,234.65028349999997,236.2347644958333,36.0,79.0
739,235.0340125,236.24115997916664,43.0,44.0
740,235.80147049999997,236.4538098,48.0,73.0
741,236.18519949999998,236.84233541249998,64.0,93.0
742,236.56892849999997,236.91268572916664,60.0,63.0
743,236.9526575,237.94715515833332,57.0,82.0
744,236.9526575,238.39004237916663,60.0,74.0
745,238.10384449999998,238.93845507499998,57.0,56.0
746,236.9526575,238.9832234583333,41.0,86.0
747,237.72011549999996,239.0024099083333,53.0,41.0
748,237.33638649999997,239.0215963583333,48.0,45.0
749,238.48757349999997,239.95213918333332,60.0,65.0
750,238.87130249999998,239.97132563333332,65.0,66.0
751,240.02248949999998,240.6044784833333,65.0,53.0
752,240.02248949999998,240.6476479958333,60.0,59.0
753,239.25503149999997,240.90986281249997,57.0,59.0
754,241.17367649999997,241.2712076208333,57.0,33.0
755,239.25503149999997,241.4438856708333,41.0,43.0
756,239.25503149999997,241.49504953749997,53.0,40.0
757,241.5574055,244.73596071666665,41.0,32.0
758,241.5574055,244.7423562,53.0,33.0
759,239.25503149999997,244.79831667916665,48.0,41.0
760,241.5574055,244.79991554999998,57.0,33.0
761,240.78994749999998,244.86227151249997,60.0,46.0
762,240.78994749999998,244.8686669958333,65.0,58.0
