,start,end,pitch,velocity
0,32.22055386666667,32.3988625,65.0,77.0
1,32.44114186666667,32.73709743333334,74.0,99.0
2,32.88231786666667,33.06981766666667,74.0,75.0
3,33.10290586666667,33.457684900000004,72.0,74.0
4,33.544081866666666,34.09003716666667,74.0,82.0
5,35.749961866666666,35.9834175,72.0,56.0
6,35.97054986666667,36.308784800000005,70.0,75.0
7,36.41172586666667,36.53304926666667,70.0,68.0
8,36.63231386666667,37.23709263333333,70.0,72.0
9,37.29407786666667,38.74995866666667,67.0,42.0
10,39.27936986666667,39.4962814,65.0,63.0
11,39.49995786666667,39.79775166666667,70.0,54.0
12,39.94113386666667,40.10657486666667,70.0,97.0
13,40.16172186666667,40.44848626666667,72.0,90.0
14,40.60289786666667,41.470544000000004,74.0,69.0
15,42.80877786666667,42.97054240000001,70.0,83.0
16,43.02936586666667,43.37679196666667,74.0,96.0
17,43.47054186666667,43.56245353333334,72.0,72.0
18,43.69112986666667,44.12495293333334,72.0,85.0
19,44.13230586666667,45.20767236666667,69.0,78.0
20,46.33818586666667,46.529362133333336,77.0,67.0
21,46.55877386666667,46.659876700000005,79.0,78.0
22,46.77936186666667,46.87127353333334,79.0,69.0
23,46.99994986666667,47.09369976666667,79.0,75.0
24,47.22053786666667,47.30325836666667,79.0,66.0
25,47.44112586666667,47.68193443333334,79.0,99.0
26,47.88230186666667,47.95950766666667,77.0,78.0
27,48.10288986666667,48.305095533333336,77.0,86.0
28,48.54406586666667,48.90252136666667,79.0,99.0
29,49.42641786666667,49.64516763333334,79.0,85.0
30,49.64700586666667,49.858402700000006,77.0,75.0
31,49.867593866666674,49.99994666666667,74.0,92.0
32,50.08818186666667,50.257299333333336,77.0,78.0
33,50.30876986666667,50.430093266666674,74.0,81.0
34,50.52935786666667,50.73891646666667,77.0,72.0
35,50.74994586666667,50.89700453333334,74.0,83.0
36,50.97053386666667,51.128621933333335,77.0,88.0
37,51.19112186666667,51.32163643333334,74.0,90.0
38,51.63229786666667,52.14516496666667,77.0,82.0
39,53.39700186666667,53.542222300000006,70.0,95.0
40,53.61758986666667,53.82714846666667,74.0,88.0
41,54.05876586666667,55.022000133333336,72.0,88.0
42,56.26464586666667,56.43927803333334,72.0,90.0
43,56.48523386666667,56.68743953333334,74.0,69.0
44,56.926409866666674,58.29773193333334,70.0,66.0
45,60.45581786666667,60.63412650000001,65.0,77.0
46,60.67640586666667,60.97236143333334,74.0,99.0
47,61.11758186666667,61.30508166666667,74.0,75.0
48,61.33816986666667,61.692948900000005,72.0,74.0
49,61.779345866666674,62.32530116666667,74.0,82.0
50,63.985225866666674,64.2186815,72.0,56.0
51,64.20581386666667,64.5440488,70.0,75.0
52,64.64698986666667,64.76831326666667,70.0,68.0
53,64.86757786666666,65.47235663333333,70.0,72.0
54,65.52934186666667,66.98522266666667,67.0,87.0
55,67.51463386666667,67.7315454,65.0,63.0
56,67.73522186666668,68.0336965,70.0,54.0
57,68.17814080000001,68.34480730000001,70.0,97.0
58,68.40036280000001,68.6892514,72.0,90.0
59,68.84480680000001,69.71888000000001,74.0,69.0
60,70.8448048,71.0040639,74.0,93.0
61,71.06702680000001,71.22998960000001,70.0,83.0
62,71.28924880000001,71.63924845000001,74.0,96.0
63,71.73369280000001,71.82628530000001,72.0,72.0
64,71.95591480000002,72.39295140000002,72.0,85.0
65,72.4003588,73.48369105,69.0,78.0
66,74.62257880000001,74.81517120000001,77.0,67.0
67,74.84480080000002,74.94665255000001,79.0,78.0
68,75.0670228,75.15961530000001,79.0,69.0
69,75.2892448,75.38368915000001,79.0,75.0
70,75.51146680000001,75.59480005,79.0,66.0
71,75.73368880000001,75.97628115,79.0,99.0
72,76.17813280000001,76.25591050000001,77.0,78.0
73,76.4003548,76.6040583,77.0,86.0
74,76.8447988,77.20590955000002,79.0,99.0
75,77.73368680000002,77.95405695000001,79.0,85.0
76,77.9559088,78.16887155,77.0,75.0
77,78.1781308,78.31146400000002,74.0,92.0
78,78.84479680000001,78.99109295000001,74.0,92.0
79,79.06701880000001,79.25775935000001,77.0,83.0
80,79.5114628,79.65590710000001,74.0,92.0
81,79.95590680000001,80.47257295000001,77.0,82.0
82,81.73368280000001,81.87997895000001,70.0,95.0
83,81.95590480000001,82.16701570000001,74.0,88.0
84,82.4003488,83.37071820000001,72.0,88.0
85,84.62256880000001,84.94479070000001,74.0,100.0
86,85.06701280000001,85.36886435000001,72.0,78.0
87,85.5114568,86.38182630000001,70.0,88.0
88,88.16817176666667,88.41087210625001,65.0,100.0
89,88.38714951666668,88.64627318750001,70.0,102.0
90,88.82510501666668,88.96744055416669,72.0,99.0
91,89.04408276666668,89.38714790833335,75.0,112.0
92,89.48203826666668,89.60612565833334,74.0,93.0
93,89.70101601666669,90.02218338333334,74.0,100.0
94,90.13897151666669,91.22473619375002,70.0,112.0
95,92.54772676666668,92.84882117291669,75.0,127.0
96,92.98568226666669,93.17546298333335,74.0,81.0
97,93.20466001666668,93.42546258125002,72.0,92.0
98,93.86159326666667,94.29954876666667,70.0,99.0
99,94.29954876666667,94.47108133750001,72.0,97.0
100,94.51852651666668,94.77947500208334,72.0,100.0
101,94.95648201666668,95.11889051458334,70.0,96.0
102,95.17545976666668,95.68458303541668,74.0,102.0
103,95.83239301666669,95.98020299791668,74.0,96.0
104,96.05137076666668,96.29954555000002,75.0,102.0
105,96.48932626666668,96.63896106250002,74.0,112.0
106,96.70830401666669,96.85793881250001,72.0,96.0
107,97.14625951666667,98.32144010833335,70.0,117.0
108,99.55501476666669,99.87070768958334,75.0,127.0
109,99.99297026666667,100.22289690416667,74.0,95.0
110,100.21194801666668,100.49844390625002,72.0,92.0
111,100.64990351666668,100.74114424583334,70.0,112.0
112,100.86888126666668,100.96377162500002,70.0,99.0
113,101.08785901666668,101.20099752083334,70.0,99.0
114,101.30683676666668,101.56084830000002,72.0,100.0
115,101.74650986666668,101.92114203333335,74.0,122.0
116,101.96709786666669,102.18952410000001,72.0,96.0
117,102.40827386666669,102.67297946666669,70.0,122.0
118,102.84944986666669,102.96525856666669,72.0,100.0
119,103.07003786666668,103.41562573333336,75.0,112.0
120,103.51121386666668,103.63621373333335,74.0,93.0
121,103.73180186666669,104.05533093333335,74.0,100.0
122,104.17297786666668,105.26672670000002,70.0,112.0
123,106.59944586666668,106.90275436666668,75.0,127.0
124,107.04062186666668,107.23179813333336,74.0,81.0
125,107.26120986666669,107.48363610000001,72.0,92.0
126,107.92297386666668,108.36414986666668,70.0,99.0
127,108.36414986666668,108.53694380000002,72.0,97.0
128,108.58473786666669,108.84760523333335,72.0,100.0
129,109.02591386666668,109.18951663333335,70.0,96.0
130,109.24650186666669,109.75936896666668,74.0,102.0
131,109.90826586666668,110.05716276666669,74.0,96.0
132,110.12885386666669,110.37885360000001,75.0,102.0
133,110.57002986666669,110.72076500000001,74.0,112.0
134,110.79061786666668,110.94135300000002,72.0,96.0
135,111.23179386666669,112.41561613333336,70.0,117.0
136,113.65826186666669,113.97627623333335,75.0,127.0
137,114.09943786666669,114.33105526666668,74.0,95.0
138,114.32002586666668,114.60862850000002,72.0,92.0
139,114.76120186666668,114.85311353333336,70.0,112.0
140,114.98178986666669,115.07737800000002,70.0,99.0
141,115.2023778666667,115.31634833333335,70.0,99.0
142,115.42296586666669,115.67848030000002,72.0,100.0
143,115.86414186666669,116.03877403333335,74.0,122.0
144,116.08472986666669,116.30715610000001,72.0,96.0
145,116.52590586666669,117.04428766666669,70.0,90.0
146,117.18766986666668,118.63252126666669,70.0,100.0
147,124.03964451666668,124.21874309375002,65.0,77.0
148,124.26120976666668,124.55847647708335,74.0,99.0
149,124.70434026666669,124.89267072916668,74.0,75.0
150,124.92590551666669,125.28225629375002,72.0,74.0
151,125.36903601666668,125.91741001041669,74.0,82.0
152,127.58468851666669,127.81917840625002,72.0,56.0
153,127.80625376666669,128.14598715000002,70.0,75.0
154,128.24938426666668,128.37124515416667,70.0,68.0
155,128.47094951666668,129.07840757708334,70.0,72.0
156,129.13564526666667,130.59797591666668,67.0,87.0
157,131.12973251666668,131.34760501250003,65.0,63.0
158,131.35129776666668,131.6504108541667,70.0,54.0
159,131.79442826666667,131.9606022041667,70.0,97.0
160,132.0159935166667,132.30402834166668,72.0,90.0
161,132.4591240166667,133.33061400000003,74.0,69.0
162,134.45268940000003,134.61112720000003,74.0,93.0
163,134.6737654,134.83588780000002,70.0,83.0
164,134.89484140000002,135.2430361,74.0,96.0
165,135.3369934,135.42910840000002,72.0,72.0
166,135.55806940000002,135.99285220000002,72.0,85.0
167,136.00022140000002,137.0779669,69.0,78.0
168,138.2109814,138.40258060000002,77.0,67.0
169,138.43205740000002,138.53338390000002,79.0,78.0
170,138.6531334,138.7452484,79.0,69.0
171,138.8742094,138.9681667,79.0,75.0
172,139.09528540000002,139.1781889,79.0,66.0
173,139.3163614,139.55770270000002,79.0,99.0
174,139.75851340000003,139.83589,77.0,78.0
175,139.9795894,140.1822424,77.0,86.0
176,140.42174140000003,140.7809899,79.0,99.0
177,141.30604540000002,141.5252791,79.0,85.0
178,141.52712140000003,141.73898590000002,77.0,75.0
179,141.7481974,141.88084300000003,74.0,92.0
180,142.4114254,142.5569671,74.0,92.0
181,142.63250140000002,142.82225830000002,77.0,83.0
182,143.07465340000002,143.21835280000002,74.0,92.0
183,143.5168054,144.0308071,77.0,82.0
184,145.2854134,145.4309551,70.0,95.0
185,145.50648940000002,145.71651160000002,74.0,88.0
186,145.9486414,146.91400660000002,72.0,88.0
187,148.1594014,148.47996160000002,74.0,100.0
188,148.60155340000003,148.9018483,72.0,78.0
189,149.04370540000002,149.90958640000002,70.0,88.0
190,151.91636868333333,152.16103354375,65.0,100.0
191,152.13711893333334,152.3983400625,70.0,102.0
192,152.35786918333335,152.50135684583333,72.0,99.0
193,152.57861943333333,152.92446149166668,75.0,112.0
194,153.02011993333335,153.14521174166669,74.0,93.0
195,153.24087018333333,153.56463721666668,74.0,100.0
196,153.68237068333335,154.77692400625,70.0,112.0
197,156.11062343333333,156.4135137270833,75.0,127.0
198,156.55057513333333,156.74063361666666,74.0,81.0
199,156.76987338333333,156.99099911874998,72.0,92.0
200,157.42776813333333,157.86636463333332,70.0,99.0
201,157.86636463333332,158.0381482625,72.0,97.0
202,158.08566288333333,158.34699329791667,72.0,100.0
203,158.52425938333332,158.68690558541667,70.0,96.0
204,158.74355763333332,159.25342606458332,74.0,102.0
205,159.40145238333332,159.54947870208332,74.0,96.0
206,159.62075063333333,159.86928865,75.0,102.0
207,160.05934713333332,160.2092009375,74.0,112.0
208,160.27864538333333,160.4284991875,72.0,96.0
209,160.71724188333332,161.89414249166666,70.0,117.0
210,163.12952263333332,163.44567761041665,75.0,127.0
211,163.5681191333333,163.79838229583333,74.0,95.0
212,163.78741738333332,164.07433259375,72.0,92.0
213,164.22601388333334,164.31738815416665,70.0,112.0
214,164.44531213333332,164.540341375,70.0,99.0
215,164.66461038333333,164.77791447916667,70.0,99.0
216,164.88390863333333,165.13792910625,72.0,100.0
217,165.32250513333332,165.49611624791666,74.0,122.0
218,165.54180338333333,165.76292911874998,72.0,96.0
219,165.98039988333332,166.24355778333333,70.0,122.0
220,166.41899638333334,166.53412796458332,72.0,100.0
221,166.63829463333332,166.98186189166665,75.0,112.0
222,167.07689113333333,167.20116014166666,74.0,93.0
223,167.2961893833333,167.61782681666665,74.0,100.0
224,167.73487186666668,168.82862070000002,70.0,112.0
225,170.16133986666668,170.46464836666667,75.0,127.0
226,170.60251586666666,170.79369213333334,74.0,81.0
227,170.82310386666668,171.0455301,72.0,92.0
228,171.48486786666666,171.92604386666667,70.0,99.0
229,171.92604386666667,172.0988378,72.0,97.0
230,172.14663186666667,172.40949923333335,72.0,100.0
231,172.58780786666668,172.75141063333334,70.0,96.0
232,172.80839586666667,173.04368973333334,74.0,102.0
233,173.02898386666666,173.2238366,65.0,86.0
234,173.24957186666668,173.48670396666668,70.0,86.0
235,173.47015986666668,173.64479203333335,72.0,95.0
236,173.69074786666667,173.9407476,75.0,102.0
237,174.13192386666668,174.282659,74.0,112.0
238,174.35251186666667,174.50324700000002,72.0,96.0
239,174.7936878666667,175.97751013333334,70.0,117.0
240,177.2201558666667,177.53817023333335,75.0,127.0
241,177.66133186666667,177.89294926666668,74.0,95.0
242,177.88191986666666,178.1705225,72.0,92.0
243,178.32309586666668,178.41500753333335,70.0,112.0
244,178.54368386666667,178.639272,70.0,99.0
245,178.76427186666666,178.87824233333333,70.0,99.0
246,178.98485986666668,179.2403743,72.0,100.0
247,179.42603586666667,179.60066803333333,74.0,122.0
248,179.6466238666667,179.8690501,72.0,96.0
249,180.08779986666667,180.60618166666669,70.0,90.0
250,180.74956386666668,182.19441526666668,70.0,100.0
251,212.95541186666668,213.07673526666667,72.0,100.0
252,213.17599986666667,213.27342623333334,72.0,97.0
253,213.39658786666666,213.65210230000002,72.0,100.0
254,213.83776386666668,213.93519023333334,74.0,112.0
255,214.05835186666667,214.5620278,75.0,117.0
256,214.72011586666667,214.87452746666668,74.0,122.0
257,214.94070386666667,215.312027,72.0,99.0
258,215.60246786666667,215.72746773333336,70.0,122.0
259,215.82305586666666,216.3048356875,74.0,102.0
260,216.26427525,217.3225339375,77.0,112.0
261,220.02533400000002,220.1175168125,72.0,96.0
262,220.24657275,220.34797384375,72.0,100.0
263,220.4678115,220.6484898125,72.0,112.0
264,220.910289,220.99694084375,74.0,127.0
265,221.13152775,221.522382875,75.0,122.0
266,222.2377215,222.46080390625,74.0,127.0
267,222.45896025,222.62304565625,72.0,107.0
268,222.90143775,223.0378683125,70.0,127.0
269,223.1226765,224.4390470625,74.0,102.0
270,227.104974,227.1934695,72.0,102.0
271,227.32621275,227.41655190625,72.0,100.0
272,227.5474515,227.76684659375002,72.0,102.0
273,227.98992900000002,228.10976665625,74.0,97.0
274,228.21116775000002,228.6130848125,75.0,112.0
275,228.874884,229.1514324375,79.0,122.0
276,229.3173615,229.59206628125,77.0,122.0
277,229.759839,229.93867365625,75.0,102.0
278,229.98107775,232.8571815,77.0,117.0
279,234.184614,234.309982625,77.0,89.0
280,234.40585275,234.5054101875,77.0,95.0
281,234.6270915,234.82805003125,77.0,99.0
282,235.069569,235.1691264375,77.0,117.0
283,235.29080775,235.8033441875,77.0,117.0
284,236.17576275,236.2826948125,77.0,102.0
285,236.3970015,236.57214884375,77.0,117.0
286,236.6919865,236.85422825,77.0,112.0
287,236.9869715,237.08099796875,77.0,100.0
288,237.2819565,237.4257616875,77.0,127.0
289,237.50319525,240.1469983125,79.0,127.0
290,240.15806025,240.40326653125,67.0,100.0
291,240.379299,240.6410981875,72.0,102.0
292,240.60053775,240.7443429375,74.0,99.0
293,240.8217765,241.16797173333333,77.0,112.0
294,241.26355986666667,241.38855973333332,76.0,93.0
295,241.48414786666666,241.80767693333334,76.0,100.0
296,241.92532386666667,243.0190727,72.0,112.0
297,244.35179186666667,244.65510036666666,77.0,127.0
298,244.79296786666666,244.98414413333333,76.0,81.0
299,245.01355586666668,245.2359821,74.0,92.0
300,245.67531986666665,246.11649586666667,72.0,99.0
301,246.11649586666667,246.2892898,74.0,97.0
302,246.33708386666666,246.59995123333334,74.0,100.0
303,246.77825986666667,246.94186263333333,72.0,96.0
304,246.99884786666667,247.51171496666666,76.0,102.0
305,247.66061186666667,247.80950876666668,76.0,96.0
306,247.88119986666666,248.1311996,77.0,102.0
307,248.32237586666668,248.47311100000002,76.0,112.0
308,248.54296386666667,248.693699,74.0,96.0
309,248.98413986666668,250.16796213333333,72.0,117.0
310,251.41060786666668,251.72862223333334,77.0,127.0
311,251.85178386666666,252.08340126666667,76.0,95.0
312,252.07237186666666,252.3609745,74.0,92.0
313,252.51354786666667,252.60545953333335,72.0,112.0
314,252.73413586666666,252.829724,72.0,99.0
315,252.95472386666668,253.06869433333333,72.0,99.0
316,253.17531186666668,253.4308263,74.0,100.0
317,253.61648786666666,253.79112003333333,76.0,122.0
318,253.83707586666668,254.0595021,74.0,96.0
319,254.27825186666666,254.54295746666668,72.0,122.0
320,254.71942786666668,254.83523656666668,74.0,100.0
321,254.94001586666667,255.28560373333335,77.0,112.0
322,255.38119186666668,255.50619173333334,76.0,93.0
323,255.60177986666667,255.92530893333333,76.0,100.0
324,256.04295586666666,257.1367047,72.0,112.0
325,258.46942386666666,258.7727323666667,77.0,127.0
326,258.91059986666664,259.1017761333333,76.0,81.0
327,259.13118786666666,259.3536141,74.0,92.0
328,259.79295186666667,260.23412786666665,72.0,99.0
329,260.23412786666665,260.4069218,74.0,97.0
330,260.4547158666667,260.71758323333336,74.0,100.0
331,260.89589186666666,261.0594946333333,72.0,96.0
332,261.1164798666667,261.35177373333335,76.0,102.0
333,261.33706786666664,261.5319206,67.0,86.0
334,261.55765586666666,261.79478796666666,72.0,86.0
335,261.7782438666667,261.9528760333333,74.0,95.0
336,261.99883186666665,262.2488316,77.0,102.0
337,262.4400078666667,262.590743,76.0,112.0
338,262.66059586666665,262.811331,74.0,96.0
339,263.1017718666667,264.28559413333335,72.0,117.0
340,265.5282398666667,265.84625423333335,77.0,127.0
341,265.9694158666667,266.2010332666667,76.0,95.0
342,266.19000386666664,266.4786065,74.0,92.0
343,266.6311798666667,266.72309153333333,72.0,112.0
344,266.85176786666665,266.947356,72.0,99.0
345,267.07235586666667,267.18632633333334,72.0,99.0
346,267.2929438666667,267.5484583,74.0,100.0
347,267.7341198666667,267.9087520333333,76.0,122.0
348,267.9547078666667,268.1771341,74.0,96.0
349,268.3958838666667,268.91426566666667,72.0,90.0
350,268.83705986666666,268.9657362,74.0,89.0
351,269.0576478666667,269.3002946666667,77.0,102.0
352,269.49882386666667,269.66977956666665,76.0,102.0
353,269.7194118666667,270.05029386666666,74.0,97.0
354,270.3811758666667,272.36646786666665,79.0,127.0
355,272.5870558666667,272.8903643666667,77.0,127.0
356,273.02823186666666,273.21940813333333,76.0,81.0
357,273.2488198666667,273.47124610000003,74.0,92.0
358,273.9105838666667,274.35175986666667,72.0,99.0
359,274.35175986666667,274.52455380000004,74.0,97.0
360,274.5723478666667,274.74698003333333,74.0,107.0
361,274.79293586666665,274.9491857,72.0,88.0
362,275.0135238666667,275.34440586666665,76.0,127.0
363,275.45469986666666,275.7212437,67.0,96.0
364,275.6752878666667,275.8921994,72.0,107.0
365,275.89587586666664,276.04477276666665,76.0,96.0
366,276.11646386666666,276.3664636,77.0,102.0
367,276.55763986666665,276.708375,76.0,112.0
368,276.77822786666667,276.928963,74.0,96.0
369,277.21940386666665,278.7635198666667,72.0,117.0
370,279.64587186666665,279.96388623333337,77.0,127.0
371,280.0870478666667,280.3186652666667,76.0,95.0
372,280.30763586666666,280.5962385,74.0,92.0
373,280.74881186666664,280.84072353333335,72.0,112.0
374,280.96939986666666,281.064988,72.0,99.0
375,281.1899878666667,281.30395833333336,72.0,99.0
376,281.41057586666665,281.6660903,74.0,100.0
377,281.8517518666667,282.02638403333333,76.0,122.0
378,282.07233986666665,282.2947661,74.0,96.0
379,282.5135158666667,282.77822146666665,72.0,122.0
380,282.9546918666667,283.0705005666667,74.0,100.0
381,283.17527986666664,283.5208677333333,77.0,112.0
382,283.6164558666667,283.74145573333334,76.0,93.0
383,283.83704386666665,284.16057293333336,76.0,100.0
384,284.2782198666667,285.3719687,72.0,112.0
385,286.7046878666667,287.0079963666667,77.0,127.0
386,287.1458638666667,287.33704013333335,76.0,81.0
387,287.3664518666667,287.5888781,74.0,92.0
388,288.02821586666664,288.4693918666667,72.0,99.0
389,288.4693918666667,288.6421858,74.0,97.0
390,288.6899798666667,288.95284723333333,74.0,100.0
391,288.91056786666667,289.0741706333333,72.0,96.0
392,289.1311558666667,289.36644973333335,76.0,102.0
393,289.5723318666667,289.7671846,67.0,86.0
394,289.7929198666667,290.0300519666667,72.0,86.0
395,290.01350786666666,290.18814003333335,74.0,95.0
396,290.2340958666667,290.4840956,77.0,102.0
397,290.67527186666666,290.826007,76.0,112.0
398,290.8958598666667,291.046595,74.0,96.0
399,291.33703586666667,292.5208581333333,72.0,117.0
400,293.76350386666667,294.0815182333333,77.0,127.0
401,294.20467986666665,294.43629726666666,76.0,95.0
402,294.4252678666667,294.7138705,74.0,92.0
403,294.86644386666666,294.95835553333336,72.0,112.0
404,295.0870318666667,295.18262,72.0,99.0
405,295.30761986666664,295.42159033333337,72.0,99.0
406,295.52820786666666,295.7837223,74.0,100.0
407,295.9693838666667,296.14401603333334,76.0,122.0
408,296.18997186666667,296.4123981,74.0,96.0
409,296.8517358666667,300.8149669333333,72.0,122.0
410,303.6899638666667,303.98040473333333,67.0,72.0
411,303.91055186666665,304.18996333333337,72.0,78.0
412,304.1311398666667,304.2873897,74.0,92.0
413,304.3517278666667,304.6973157333333,77.0,102.0
414,304.7929038666667,304.99694776666666,76.0,93.0
415,305.0134918666667,305.41422673333335,74.0,81.0
416,305.4546678666667,307.53738623333334,72.0,78.0
417,307.8811358666667,308.4326058666667,77.0,102.0
418,308.5428998666667,309.05944343333334,76.0,96.0
419,309.42525186666666,309.8774572666667,74.0,97.0
420,309.86642786666664,310.7230446,72.0,93.0
421,311.41054386666667,313.3314977,77.0,112.0
422,313.17524786666667,314.4105406666667,76.0,95.0
423,314.71936386666664,314.9564959666667,74.0,93.0
424,314.93995186666666,315.17156926666667,72.0,63.0
425,315.1605398666667,317.1090672,67.0,72.0
426,316.9252438666667,317.4785521,74.0,89.0
427,317.5870078666667,318.1844337,74.0,88.0
428,318.02818386666667,322.1439883,72.0,79.0
