,start,end,pitch,velocity
0,3.323525866666667,4.977935866666667,58.0,75.0
1,2.882349866666667,4.9871270333333335,53.0,67.0
2,2.441173866666667,5.027568166666667,46.0,83.0
3,4.205877866666667,5.972420100000001,65.0,47.0
4,4.205877866666667,5.987125966666667,70.0,44.0
5,3.764701866666667,6.018375933333334,62.0,62.0
6,6.411757866666667,8.384182233333334,50.0,84.0
7,5.9705818666666675,8.503667400000001,43.0,97.0
8,7.7352858666666675,9.272048933333334,62.0,71.0
9,7.294109866666667,9.439328166666668,58.0,74.0
10,6.8529338666666675,9.977930533333334,55.0,74.0
11,9.941165866666667,10.788591433333334,46.0,56.0
12,10.382341866666668,10.794106133333335,51.0,73.0
13,10.823517866666668,10.915429533333334,55.0,48.0
14,9.499989866666667,10.965061833333333,39.0,87.0
15,10.823517866666668,11.352929066666668,63.0,76.0
16,10.823517866666668,11.3547673,58.0,73.0
17,11.705869866666667,12.227928133333334,45.0,53.0
18,11.264693866666667,12.2867516,38.0,76.0
19,12.147045866666668,13.040427266666669,57.0,72.0
20,12.147045866666668,13.062486066666668,53.0,67.0
21,13.029397866666667,14.301455333333335,36.0,66.0
22,13.470573866666667,14.349249400000001,43.0,70.0
23,13.911749866666668,14.558808,48.0,67.0
24,14.352925866666668,14.843734166666668,51.0,77.0
25,14.794101866666669,15.775718466666667,41.0,79.0
26,15.235277866666667,15.812483133333334,48.0,52.0
27,15.676453866666668,16.597408766666668,57.0,60.0
28,15.676453866666668,16.606599933333335,60.0,58.0
29,17.441157866666668,18.588215466666668,58.0,94.0
30,18.764685866666667,19.433802800000002,58.0,67.0
31,16.99998186666667,19.579023233333334,53.0,64.0
32,16.558805866666667,19.634170233333336,46.0,103.0
33,18.32350986666667,20.0900521,65.0,81.0
34,17.882333866666666,20.106596200000002,62.0,74.0
35,20.52938986666667,21.156227433333335,50.0,80.0
36,20.970565866666668,21.9154178,55.0,72.0
37,21.411741866666667,22.729755166666667,50.0,76.0
38,20.088213866666667,22.836372700000002,43.0,84.0
39,21.85291786666667,23.674607100000003,62.0,79.0
40,22.73526986666667,23.6911512,55.0,81.0
41,21.85291786666667,23.709533533333335,58.0,78.0
42,24.05879786666667,24.95217926666667,46.0,50.0
43,24.499973866666668,24.979752766666667,51.0,96.0
44,23.617621866666667,25.005488033333336,39.0,92.0
45,24.94114986666667,25.387840566666668,55.0,103.0
46,25.823501866666668,26.46320706666667,45.0,84.0
47,25.38232586666667,26.50732466666667,38.0,87.0
48,26.26467786666667,26.840044900000002,57.0,86.0
49,26.26467786666667,26.847397833333336,53.0,85.0
50,27.147029866666667,28.055117133333336,36.0,77.0
51,27.147029866666667,28.079014166666667,60.0,97.0
52,27.147029866666667,28.088205333333335,63.0,100.0
53,27.147029866666667,28.159896433333337,55.0,97.0
54,27.147029866666667,28.187469933333336,48.0,97.0
55,28.47055786666667,31.687466200000003,41.0,82.0
56,28.47055786666667,31.733422033333337,57.0,83.0
57,28.47055786666667,31.748127900000004,53.0,82.0
58,28.47055786666667,31.766510233333335,60.0,85.0
59,32.44114186666667,33.2481263,58.0,78.0
60,32.44114186666667,33.26283216666667,62.0,74.0
61,32.44114186666667,33.275699800000005,65.0,72.0
62,33.32349386666667,33.977904933333335,62.0,47.0
63,33.32349386666667,33.9815814,58.0,51.0
64,33.32349386666667,33.98525786666667,65.0,41.0
65,33.32349386666667,34.016507833333335,53.0,51.0
66,34.20584586666667,34.76650703333333,53.0,33.0
67,34.20584586666667,34.799595233333335,62.0,41.0
68,34.20584586666667,34.799595233333335,65.0,37.0
69,34.20584586666667,34.8253305,58.0,42.0
70,32.44114186666667,35.0624626,46.0,71.0
71,35.08819786666667,35.5036386,62.0,72.0
72,35.08819786666667,35.538565033333334,58.0,71.0
73,35.97054986666667,36.507314,58.0,70.0
74,35.97054986666667,36.531211033333335,55.0,74.0
75,35.97054986666667,36.56429923333334,63.0,78.0
76,36.41172586666667,37.01834286666667,51.0,50.0
77,36.85290186666667,37.391504233333336,58.0,46.0
78,36.85290186666667,37.4558424,55.0,41.0
79,36.85290186666667,37.46319533333334,63.0,45.0
80,37.29407786666667,37.86025373333334,51.0,41.0
81,37.73525386666667,38.29775326666667,58.0,45.0
82,37.73525386666667,38.31429736666667,63.0,44.0
83,37.73525386666667,38.31797383333333,55.0,42.0
84,38.176429866666666,38.698488133333335,51.0,45.0
85,35.97054986666667,38.70032636666667,39.0,81.0
86,38.61760586666667,39.07348773333334,63.0,78.0
87,38.61760586666667,39.11392886666667,58.0,76.0
88,39.05878186666667,39.435619700000004,55.0,62.0
89,39.49995786666667,40.0201779,58.0,89.0
90,39.49995786666667,40.025692600000006,55.0,78.0
91,39.49995786666667,40.06797196666667,62.0,89.0
92,39.94113386666667,40.593706700000006,50.0,57.0
93,40.38230986666667,40.87679463333334,55.0,51.0
94,40.38230986666667,40.898853433333336,58.0,55.0
95,40.38230986666667,40.904368133333335,62.0,53.0
96,40.82348586666667,41.48341163333334,50.0,51.0
97,41.26466186666667,41.729734900000004,55.0,45.0
98,41.26466186666667,41.74995546666667,58.0,49.0
99,41.26466186666667,41.78304366666667,62.0,49.0
100,41.70583786666667,42.13598446666667,50.0,48.0
101,39.49995786666667,42.27201373333334,43.0,83.0
102,42.14701386666667,42.647013333333334,58.0,73.0
103,42.14701386666667,42.65804273333334,62.0,74.0
104,42.58818986666667,42.856571933333335,55.0,63.0
105,43.02936586666667,43.16723336666667,53.0,100.0
106,43.02936586666667,43.1690716,57.0,92.0
107,43.02936586666667,43.18745393333334,60.0,93.0
108,43.91171786666667,44.43377613333334,69.0,63.0
109,43.91171786666667,44.4374526,65.0,67.0
110,43.91171786666667,44.498114300000005,60.0,68.0
111,44.35289386666667,45.0771578,53.0,50.0
112,44.79406986666667,45.281201700000004,65.0,49.0
113,44.79406986666667,45.30142226666667,60.0,48.0
114,44.79406986666667,45.30509873333334,69.0,48.0
115,45.23524586666667,45.6451719,53.0,51.0
116,43.02936586666667,45.74811296666667,41.0,82.0
117,43.47054186666667,45.749951200000005,48.0,52.0
118,45.67642186666667,46.12862726666667,65.0,97.0
119,45.67642186666667,46.13046550000001,69.0,96.0
120,46.11759786666667,46.2076713,60.0,74.0
121,46.55877386666667,47.11943503333334,63.0,87.0
122,46.55877386666667,47.141493833333335,55.0,85.0
123,46.55877386666667,47.15436146666667,58.0,84.0
124,47.44112586666667,47.94664003333334,55.0,54.0
125,47.44112586666667,47.963184133333336,58.0,68.0
126,47.44112586666667,47.99259586666667,63.0,62.0
127,47.88230186666667,48.42274246666667,51.0,57.0
128,48.32347786666667,48.84185966666667,55.0,50.0
129,48.32347786666667,49.045903566666674,63.0,52.0
130,48.32347786666667,49.055094733333334,58.0,61.0
131,48.76465386666667,49.29406506666667,51.0,53.0
132,46.99994986666667,49.32163856666667,46.0,45.0
133,46.55877386666667,49.42274140000001,39.0,74.0
134,49.20582986666667,49.694799933333336,58.0,82.0
135,49.20582986666667,49.694799933333336,63.0,87.0
136,49.64700586666667,49.75178516666667,55.0,58.0
137,50.08818186666667,50.40251976666667,62.0,81.0
138,50.08818186666667,50.49626966666667,65.0,78.0
139,50.08818186666667,50.77200466666667,57.0,86.0
140,50.97053386666667,51.45582746666667,62.0,65.0
141,50.97053386666667,51.46134216666667,65.0,63.0
142,50.97053386666667,51.70398896666667,57.0,62.0
143,51.41170986666667,52.13413556666667,50.0,46.0
144,51.85288586666667,52.32715006666667,65.0,48.0
145,51.85288586666667,52.35288533333334,62.0,54.0
146,51.85288586666667,52.44663523333334,57.0,41.0
147,52.294061866666674,52.854723033333336,50.0,51.0
148,50.08818186666667,53.080825733333334,38.0,83.0
149,50.52935786666667,53.09185513333334,45.0,56.0
150,52.73523786666667,53.1727374,65.0,80.0
151,52.73523786666667,53.18192856666667,62.0,87.0
152,53.17641386666667,53.2664873,57.0,50.0
153,53.61758986666667,54.04038353333334,60.0,74.0
154,53.61758986666667,54.0495747,63.0,69.0
155,53.61758986666667,54.0826629,55.0,73.0
156,54.499941866666674,55.08817653333334,63.0,56.0
157,54.499941866666674,55.09001476666667,60.0,55.0
158,54.499941866666674,55.12310296666667,55.0,53.0
159,54.94111786666667,55.65251416666667,48.0,50.0
160,55.38229386666667,55.91905800000001,60.0,62.0
161,55.38229386666667,55.968690300000006,55.0,55.0
162,55.38229386666667,55.981557933333335,63.0,60.0
163,53.61758986666667,56.30324876666667,36.0,86.0
164,54.05876586666667,56.365748700000005,43.0,48.0
165,55.82346986666667,56.39148396666667,48.0,52.0
166,56.26464586666667,56.7628071,63.0,92.0
167,56.26464586666667,56.790380600000006,60.0,98.0
168,56.70582186666667,56.968689233333336,55.0,56.0
169,57.14699786666667,57.6727326,55.0,76.0
170,57.14699786666667,57.73890900000001,62.0,79.0
171,57.14699786666667,57.755453100000004,58.0,73.0
172,57.14699786666667,58.41537886666667,43.0,72.0
173,57.58817386666667,58.487069966666674,50.0,52.0
174,58.02934986666667,58.52015816666667,62.0,74.0
175,58.02934986666667,58.525672866666675,58.0,80.0
176,58.47052586666667,58.68376093333334,55.0,54.0
177,58.91170186666667,59.59920113333334,57.0,78.0
178,58.91170186666667,59.60471583333334,60.0,81.0
179,58.91170186666667,59.612068766666674,53.0,76.0
180,58.91170186666667,59.834495000000004,45.0,68.0
181,60.23522986666667,60.738905800000005,53.0,87.0
182,60.67640586666667,60.738905800000005,53.0,84.0
183,60.01464186666667,60.75177343333334,45.0,85.0
184,59.79405386666667,60.79221456666667,57.0,111.0
185,59.79405386666667,60.81059690000001,60.0,108.0
186,60.67640586666667,61.25361113333334,62.0,83.0
187,60.67640586666667,61.29772873333334,58.0,80.0
188,61.558757866666674,62.09736023333334,62.0,66.0
189,61.558757866666674,62.11941903333334,58.0,71.0
190,61.558757866666674,62.14883076666667,53.0,59.0
191,62.44110986666667,63.13044736666667,53.0,44.0
192,62.44110986666667,63.1322856,62.0,51.0
193,62.44110986666667,63.18927083333334,58.0,51.0
194,60.67640586666667,63.330814800000006,46.0,83.0
195,63.32346186666667,63.681917366666674,62.0,96.0
196,63.32346186666667,63.83081426666667,58.0,107.0
197,63.764637866666675,63.96684353333334,53.0,79.0
198,64.20581386666667,64.93926896666667,63.0,86.0
199,64.20581386666667,64.96132776666667,58.0,86.0
200,64.64698986666667,65.2775039,51.0,48.0
201,65.08816586666667,65.58265063333334,58.0,65.0
202,65.08816586666667,65.58816533333334,63.0,63.0
203,65.08816586666667,65.59368003333334,55.0,65.0
204,65.97051786666667,66.43926736666667,55.0,49.0
205,65.97051786666667,66.45029676666667,58.0,54.0
206,65.97051786666667,66.47419380000001,63.0,49.0
207,64.20581386666667,66.98154620000001,39.0,91.0
208,66.41169386666667,66.9870609,51.0,48.0
209,66.85286986666667,67.25544296666668,63.0,96.0
210,66.85286986666667,67.33448700000001,58.0,92.0
211,67.29404586666668,67.88963346666667,55.0,63.0
212,67.73522186666668,67.90985403333333,58.0,89.0
213,67.73522186666668,67.91353050000001,62.0,89.0
214,68.62258480000001,69.23184345000001,62.0,78.0
215,69.0670288,69.78739845000001,55.0,70.0
216,69.5114728,70.10036110000001,67.0,83.0
217,69.5114728,70.1040648,62.0,81.0
218,69.5114728,70.13924995,70.0,76.0
219,69.95591680000001,70.41517560000001,55.0,68.0
220,68.17814080000001,70.51147180000001,50.0,58.0
221,67.73522186666668,70.53739770000001,43.0,87.0
222,70.40036080000002,70.77813820000001,70.0,97.0
223,70.40036080000002,70.85591590000001,67.0,94.0
224,70.8448048,71.03924905000001,62.0,61.0
225,71.28924880000001,72.459618,60.0,87.0
226,71.28924880000001,72.49109945000001,65.0,86.0
227,71.28924880000001,72.496655,69.0,86.0
228,72.1781368,73.43924665000002,53.0,92.0
229,73.06702480000001,73.84294995,69.0,74.0
230,73.06702480000001,73.86517215,65.0,74.0
231,72.62258080000001,73.89480175000001,60.0,58.0
232,71.28924880000001,73.95591280000001,41.0,87.0
233,71.73369280000001,73.95591280000001,48.0,52.0
234,73.51146880000002,73.95591280000001,53.0,54.0
235,74.84480080000002,75.36146695000001,63.0,94.0
236,74.84480080000002,75.5448001,58.0,94.0
237,75.73368880000001,76.26146605000001,63.0,73.0
238,75.73368880000001,76.32442895000001,55.0,74.0
239,75.73368880000001,76.38554,58.0,76.0
240,76.17813280000001,76.8818358,51.0,53.0
241,76.6225768,77.15405775,55.0,71.0
242,76.6225768,77.19665030000002,63.0,76.0
243,76.6225768,77.35776125000001,58.0,75.0
244,77.06702080000001,77.6225758,51.0,58.0
245,75.2892448,77.64850170000001,46.0,42.0
246,74.84480080000002,77.76146455000001,39.0,82.0
247,77.51146480000001,77.92257550000001,63.0,104.0
248,77.51146480000001,77.97998285000001,58.0,108.0
249,77.9559088,78.24850110000001,57.0,73.0
250,78.40035280000001,78.90035230000001,62.0,94.0
251,78.40035280000001,78.90775970000001,65.0,92.0
252,78.40035280000001,79.20220385,57.0,88.0
253,78.40035280000001,79.53183315000001,38.0,84.0
254,78.84479680000001,79.6151664,45.0,63.0
255,79.7336848,79.85590690000001,38.0,60.0
256,79.28924080000002,79.95590680000001,62.0,93.0
257,79.28924080000002,79.96331420000001,65.0,89.0
258,79.28924080000002,79.98368455,57.0,75.0
259,80.17812880000001,81.39294240000001,38.0,76.0
260,80.62257280000001,81.40590535000001,50.0,76.0
261,81.0670168,81.59109035,65.0,82.0
262,81.0670168,81.83738640000001,62.0,92.0
263,81.51146080000001,81.99108995,57.0,59.0
264,82.84479280000001,83.30590345000002,60.0,93.0
265,81.95590480000001,83.31701455000001,36.0,72.0
266,82.84479280000001,83.33368120000002,63.0,95.0
267,83.28923680000001,83.4151626,55.0,74.0
268,82.4003488,83.63182905000001,48.0,66.0
269,83.7336808,84.11331005000001,39.0,78.0
270,83.7336808,84.16145815000002,51.0,88.0
271,83.7336808,84.18368035,58.0,78.0
272,83.7336808,84.26330990000001,55.0,85.0
273,84.62256880000001,85.01701285000001,57.0,79.0
274,84.62256880000001,85.052198,60.0,78.0
275,84.62256880000001,85.20219785,41.0,68.0
276,84.62256880000001,85.33553105000001,53.0,77.0
277,85.5114568,85.9892341,62.0,81.0
278,85.5114568,86.2892338,58.0,83.0
279,85.5114568,86.3299745,53.0,82.0
280,86.40034480000001,86.80219625000001,65.0,76.0
281,86.40034480000001,86.91330725,58.0,92.0
282,86.40034480000001,86.91886280000001,62.0,85.0
283,86.8447888,87.21145510000001,53.0,76.0
284,85.5114568,87.58240628541668,46.0,89.0
285,87.28923280000001,87.73386589583335,65.0,76.0
286,87.28923280000001,87.79773440625002,62.0,93.0
287,87.28923280000001,87.80868329375001,58.0,102.0
288,87.28923280000001,88.08605511041668,53.0,72.0
289,87.73021626666667,88.25941249583335,46.0,74.0
290,88.16817176666667,88.52218579583335,65.0,69.0
291,88.38714951666668,88.53860912708335,46.0,99.0
292,88.16817176666667,88.56415653125002,62.0,86.0
293,88.16817176666667,88.65539726041668,58.0,99.0
294,88.60612726666668,89.02036017708335,53.0,75.0
295,89.04408276666668,89.13532349583335,58.0,100.0
296,89.04408276666668,89.13532349583335,62.0,93.0
297,89.04408276666668,89.13532349583335,65.0,82.0
298,89.91999376666668,89.96926376041668,58.0,76.0
299,89.70101601666669,89.98203746250002,53.0,56.0
300,89.91999376666668,90.10430003958335,62.0,88.0
301,89.04408276666668,90.46561332708335,46.0,107.0
302,90.13897151666669,90.50940887708335,53.0,79.0
303,89.91999376666668,90.63714589791668,65.0,71.0
304,90.35794926666668,90.64444515625001,58.0,93.0
305,89.48203826666668,90.65356922916668,50.0,59.0
306,90.57692701666669,91.26123248541668,62.0,62.0
307,91.23386026666668,91.62619540208334,57.0,77.0
308,90.79590476666668,91.77947982708335,45.0,97.0
309,91.67181576666668,92.10612163750001,65.0,92.0
310,91.67181576666668,92.14079311458335,62.0,93.0
311,91.89079351666668,92.43641307708334,45.0,83.0
312,92.10977126666668,92.49663195833335,57.0,82.0
313,92.54772676666668,93.12984261875002,62.0,85.0
314,92.54772676666668,93.13896669166668,58.0,83.0
315,92.98568226666669,93.50757923750001,50.0,64.0
316,93.64261551666668,93.80137438541668,50.0,67.0
317,93.42363776666669,93.85794363750001,62.0,85.0
318,92.54772676666668,93.868892525,43.0,69.0
319,93.42363776666669,93.89079030000002,58.0,99.0
320,93.86159326666667,94.22838099791667,55.0,74.0
321,94.29954876666667,94.47473096666668,57.0,82.0
322,94.29954876666667,94.50575281458335,60.0,83.0
323,94.29954876666667,95.49480231875002,41.0,69.0
324,95.39443751666668,95.49662713333335,53.0,81.0
325,94.73750426666668,95.50392639166668,48.0,63.0
326,95.17545976666668,95.60246637916669,65.0,96.0
327,95.17545976666668,95.60794082291667,69.0,92.0
328,95.61341526666668,95.68275822083335,60.0,90.0
329,96.05137076666668,96.50757441250002,63.0,95.0
330,96.05137076666668,96.58239181041668,58.0,97.0
331,96.05137076666668,96.58421662500001,55.0,89.0
332,96.48932626666668,96.98385101875002,51.0,81.0
333,96.05137076666668,97.29224468333335,39.0,117.0
334,97.14625951666667,97.29224468333335,51.0,107.0
335,96.92728176666668,97.38348541250001,63.0,102.0
336,96.92728176666668,97.40355837291668,58.0,117.0
337,97.36523726666668,97.47290132708335,55.0,93.0
338,97.80319276666668,98.32326492291668,62.0,100.0
339,97.80319276666668,98.34516269791668,65.0,89.0
340,98.46012601666668,98.51669526875001,62.0,31.0
341,98.46012601666668,98.52034489791669,65.0,26.0
342,97.80319276666668,98.54224267291669,57.0,112.0
343,98.89808151666668,99.06413964375001,50.0,85.0
344,98.24114826666668,99.09333667708334,45.0,48.0
345,98.67910376666669,99.14808111458335,65.0,93.0
346,98.67910376666669,99.15355555833335,62.0,100.0
347,97.80319276666668,99.26121961875002,38.0,95.0
348,99.11705926666669,99.29954072500001,57.0,86.0
349,99.55501476666669,100.06048840625002,60.0,97.0
350,99.55501476666669,100.07143729375001,63.0,100.0
351,99.55501476666669,100.26121801041668,55.0,99.0
352,100.21194801666668,100.29588948750002,63.0,25.0
353,100.21194801666668,100.30866318958334,60.0,28.0
354,99.55501476666669,100.70282313958334,36.0,72.0
355,99.99297026666667,100.74661868958334,43.0,55.0
356,100.43092576666668,100.84150904791667,63.0,112.0
357,100.43092576666668,100.85975719375001,60.0,102.0
358,100.64990351666668,100.87070608125,48.0,86.0
359,100.86888126666668,101.06778605625001,55.0,89.0
360,101.30683676666668,101.46924526458335,53.0,93.0
361,101.30683676666668,101.49296785416668,57.0,95.0
362,101.30683676666668,101.64173056666668,60.0,90.0
363,101.74650986666668,101.97628903333336,53.0,95.0
364,101.96709786666669,102.18584763333335,55.0,74.0
365,101.52592186666669,102.28327400000002,48.0,77.0
366,101.30683676666668,102.57187663333335,41.0,81.0
367,102.18768586666668,102.60312660000002,60.0,100.0
368,102.40827386666669,102.70055296666669,48.0,92.0
369,102.62886186666668,102.76489113333335,55.0,92.0
370,103.07003786666668,103.52775796666668,65.0,79.0
371,103.07003786666668,103.77224300000002,62.0,83.0
372,103.07003786666668,103.80165473333335,58.0,95.0
373,103.07003786666668,104.02959566666668,46.0,99.0
374,103.95238986666669,104.16562493333335,58.0,97.0
375,103.95238986666669,104.45606580000002,65.0,82.0
376,104.17297786666668,104.60128623333335,46.0,86.0
377,104.39356586666669,104.67297733333335,58.0,85.0
378,103.95238986666669,104.72628610000002,62.0,93.0
379,104.83474186666669,105.29430020000002,65.0,69.0
380,104.83474186666669,105.55165286666669,62.0,86.0
381,104.83474186666669,105.56268226666668,57.0,88.0
382,104.83474186666669,105.82187316666669,45.0,82.0
383,105.71709386666669,106.18768160000002,65.0,90.0
384,105.71709386666669,106.33106380000002,62.0,93.0
385,106.15826986666669,106.38804903333335,57.0,73.0
386,105.93768186666668,106.52407830000001,45.0,65.0
387,106.59944586666668,107.09760710000002,62.0,83.0
388,106.59944586666668,107.13437176666669,55.0,90.0
389,106.59944586666668,107.16010703333335,58.0,90.0
390,107.04062186666668,107.57003306666668,50.0,63.0
391,106.59944586666668,107.83473866666668,43.0,72.0
392,107.70238586666669,107.88804743333336,50.0,67.0
393,107.48179786666668,107.88804743333336,62.0,88.0
394,107.48179786666668,107.97076793333335,58.0,102.0
395,107.92297386666668,108.31819403333336,55.0,88.0
396,108.36414986666668,108.45054683333335,57.0,92.0
397,108.36414986666668,108.46525270000002,60.0,90.0
398,108.80532586666669,109.29245770000001,53.0,92.0
399,109.02591386666668,109.37150173333335,60.0,73.0
400,108.36414986666668,109.54245743333335,41.0,72.0
401,108.58473786666669,109.56083976666669,48.0,50.0
402,109.46708986666668,109.56267800000002,53.0,83.0
403,109.24650186666669,109.67113376666669,69.0,92.0
404,109.24650186666669,109.68032493333335,65.0,93.0
405,109.68767786666669,109.74833956666669,60.0,90.0
406,110.12885386666669,110.63804450000002,63.0,92.0
407,110.12885386666669,110.79061786666668,55.0,82.0
408,110.12885386666669,110.83657370000002,58.0,93.0
409,110.57002986666669,111.07554403333336,51.0,77.0
410,111.01120586666669,111.28510263333335,55.0,73.0
411,111.23179386666669,111.37517606666668,51.0,81.0
412,110.12885386666669,111.48363183333335,39.0,88.0
413,111.01120586666669,111.4854700666667,63.0,93.0
414,111.01120586666669,111.56083763333335,58.0,99.0
415,111.45238186666668,111.58105820000002,55.0,75.0
416,111.89355786666668,112.58841006666668,65.0,75.0
417,111.89355786666668,112.59760123333335,62.0,81.0
418,111.89355786666668,112.62333650000002,57.0,89.0
419,112.33473386666668,112.87333623333335,50.0,72.0
420,112.99649786666669,113.20238000000002,50.0,90.0
421,112.77590986666668,113.27039463333335,65.0,86.0
422,112.77590986666668,113.28877696666669,62.0,97.0
423,113.21708586666668,113.43399740000002,57.0,88.0
424,111.89355786666668,113.58473253333335,38.0,70.0
425,113.65826186666669,114.35127583333335,63.0,95.0
426,113.65826186666669,114.35495230000002,60.0,93.0
427,113.65826186666669,114.36046700000001,55.0,88.0
428,114.09943786666669,114.66561373333336,48.0,61.0
429,114.98178986666669,115.39355413333335,55.0,69.0
430,114.54061386666669,115.41193646666669,60.0,93.0
431,114.76120186666668,115.42112763333336,48.0,86.0
432,114.54061386666669,115.42296586666669,63.0,100.0
433,113.65826186666669,115.43950996666669,36.0,69.0
434,115.86414186666669,116.41193540000002,53.0,82.0
435,116.08472986666669,116.61046460000001,57.0,92.0
436,116.52590586666669,116.78877323333336,53.0,92.0
437,115.64355386666668,117.15458166666669,48.0,61.0
438,115.42296586666669,117.18583163333335,41.0,72.0
439,116.74649386666668,117.19134633333336,60.0,96.0
440,116.96708186666669,117.22259630000002,57.0,97.0
441,116.30531786666668,117.22627276666668,65.0,100.0
442,117.18766986666668,117.22627276666668,65.0,70.0
443,117.18766986666668,119.98729923333335,46.0,86.0
444,117.18766986666668,120.24465190000002,58.0,100.0
445,117.18766986666668,120.25200483333336,62.0,83.0
446,120.71707786666668,123.37494876666669,41.0,52.0
447,120.71707786666668,123.41556906250001,48.0,66.0
448,120.71707786666668,123.44326471875002,53.0,76.0
449,120.71707786666668,123.46172848958335,57.0,77.0
450,120.71707786666668,123.46542124375001,60.0,81.0
451,123.37494876666669,124.23166773333335,70.0,73.0
452,123.37494876666669,124.25197788125001,63.0,90.0
453,123.37494876666669,124.25197788125001,67.0,72.0
454,123.37494876666669,124.26120976666668,51.0,66.0
455,124.26120976666668,124.79665912083335,70.0,85.0
456,124.26120976666668,124.82250840000002,65.0,83.0
457,124.26120976666668,124.83174028541669,62.0,88.0
458,124.70434026666669,125.26194614583335,58.0,51.0
459,125.14747076666669,125.69215200625001,65.0,63.0
460,125.14747076666669,125.71430853125001,62.0,66.0
461,125.14747076666669,125.71615490833335,70.0,63.0
462,125.59060126666668,126.25714339375001,58.0,51.0
463,126.03373176666669,126.50271154583335,65.0,63.0
464,126.03373176666669,126.51194343125002,62.0,68.0
465,126.03373176666669,126.54702459583335,70.0,66.0
466,126.47686226666669,126.75751158333335,58.0,38.0
467,124.26120976666668,126.93661016041668,46.0,88.0
468,126.91999276666668,127.33912036458335,65.0,69.0
469,126.91999276666668,127.38343341458335,70.0,90.0
470,127.36312326666669,127.44990298958335,62.0,58.0
471,127.80625376666669,128.1773755604167,67.0,69.0
472,127.80625376666669,128.256769775,70.0,65.0
473,127.80625376666669,128.37124515416667,63.0,73.0
474,128.24938426666668,128.83283942500003,51.0,47.0
475,128.69251476666668,129.13379888958335,67.0,66.0
476,128.69251476666668,129.20950035,70.0,56.0
477,128.69251476666668,129.38121341875,63.0,65.0
478,129.13564526666667,129.79849463958334,51.0,44.0
479,129.5787757666667,130.00159611875003,67.0,71.0
480,129.5787757666667,130.0274453979167,70.0,50.0
481,129.5787757666667,130.28224543541668,63.0,66.0
482,130.0219062666667,130.52965996458335,51.0,40.0
483,127.80625376666669,130.75491796875002,39.0,73.0
484,130.68660201666668,130.81769478958336,51.0,56.0
485,130.46503676666669,130.94878756250003,67.0,83.0
486,130.46503676666669,130.99310061250003,70.0,65.0
487,130.90816726666668,131.0521846791667,63.0,45.0
488,131.35129776666668,131.81473841458336,70.0,67.0
489,131.35129776666668,131.8221239229167,67.0,73.0
490,131.35129776666668,131.83135580833334,62.0,74.0
491,132.2375587666667,132.71761680833336,70.0,81.0
492,132.2375587666667,132.75269797291668,67.0,78.0
493,132.2375587666667,132.80439653125,62.0,74.0
494,132.6806892666667,133.34907777083336,55.0,33.0
495,133.12381976666668,133.662961875,67.0,60.0
496,133.12381976666668,133.71096767916669,70.0,62.0
497,133.12381976666668,133.75528072916669,62.0,62.0
498,133.56695026666668,134.1651764416667,55.0,56.0
499,131.79442826666667,134.2481941,50.0,40.0
500,131.35129776666668,134.3789974,43.0,69.0
501,134.01008076666668,134.48216620000002,70.0,93.0
502,134.01008076666668,134.50980070000003,67.0,88.0
503,134.45268940000003,134.58165040000003,62.0,51.0
504,134.89484140000002,135.3738394,65.0,82.0
505,134.89484140000002,135.4401622,69.0,79.0
506,134.89484140000002,135.5820193,60.0,89.0
507,135.7791454,136.3410469,65.0,75.0
508,135.7791454,136.35762760000003,60.0,72.0
509,135.7791454,136.3686814,69.0,74.0
510,136.22129740000003,136.9692712,53.0,43.0
511,136.66344940000002,137.3893156,69.0,63.0
512,136.66344940000002,137.40036940000002,65.0,63.0
513,136.66344940000002,137.45563840000003,60.0,62.0
514,137.5477534,137.60854930000002,60.0,35.0
515,137.1056014,137.62881460000003,53.0,56.0
516,137.76882940000002,137.83330990000002,53.0,74.0
517,134.89484140000002,137.84067910000002,41.0,71.0
518,135.3369934,137.88305200000002,48.0,50.0
519,137.5477534,137.94937480000002,65.0,95.0
520,137.5477534,137.9954323,69.0,95.0
521,137.98990540000003,138.06912430000003,60.0,93.0
522,138.43205740000002,138.8392057,67.0,92.0
523,138.43205740000002,139.1266045,70.0,89.0
524,138.43205740000002,139.1652928,63.0,96.0
525,138.8742094,139.5466489,51.0,44.0
526,139.3163614,139.8211516,67.0,96.0
527,139.3163614,140.0145931,70.0,89.0
528,139.3163614,140.07723130000002,63.0,73.0
529,139.75851340000003,140.32409950000002,51.0,35.0
530,140.20066540000002,140.62439440000003,67.0,65.0
531,140.20066540000002,140.67782110000002,70.0,60.0
532,140.20066540000002,140.92100470000003,63.0,68.0
533,140.6428174,141.18813820000003,51.0,46.0
534,138.43205740000002,141.4534294,39.0,92.0
535,141.30604540000002,141.4681678,51.0,61.0
536,141.0849694,141.50685610000002,67.0,97.0
537,141.0849694,141.57133660000002,70.0,93.0
538,141.52712140000003,141.6100249,63.0,85.0
539,141.96927340000002,142.1590303,45.0,58.0
540,141.96927340000002,142.16455720000002,38.0,47.0
541,141.96927340000002,142.17745330000002,62.0,69.0
542,141.96927340000002,142.17745330000002,65.0,66.0
543,141.96927340000002,142.17929560000002,50.0,86.0
544,141.96927340000002,142.1829802,57.0,72.0
545,142.63250140000002,142.70619340000002,38.0,49.0
546,142.63250140000002,142.74303940000001,50.0,61.0
547,142.63250140000002,142.75040860000001,62.0,83.0
548,142.63250140000002,142.76146240000003,45.0,60.0
549,142.63250140000002,142.76146240000003,65.0,75.0
550,142.63250140000002,142.76330470000002,57.0,78.0
551,143.07465340000002,143.1557146,38.0,38.0
552,143.07465340000002,143.1649261,50.0,71.0
553,143.07465340000002,143.17413760000002,45.0,67.0
554,143.07465340000002,143.18150680000002,62.0,90.0
555,143.07465340000002,143.18703370000003,65.0,82.0
556,143.07465340000002,143.18887600000002,57.0,82.0
557,143.73788140000002,144.55217800000003,65.0,78.0
558,143.73788140000002,144.55954720000003,62.0,86.0
559,143.73788140000002,144.5779702,57.0,78.0
560,143.73788140000002,144.78983470000003,50.0,72.0
561,144.6221854,145.0919719,65.0,83.0
562,144.84326140000002,145.09565650000002,50.0,57.0
563,144.6221854,145.0993411,62.0,90.0
564,143.73788140000002,145.1288179,38.0,59.0
565,143.73788140000002,145.1564524,45.0,60.0
566,145.06433740000003,145.2430405,57.0,72.0
567,145.50648940000002,146.2673593,60.0,90.0
568,145.50648940000002,146.27104390000002,63.0,88.0
569,145.50648940000002,146.27841310000002,55.0,92.0
570,146.3907934,146.48843530000002,55.0,39.0
571,145.9486414,146.50870060000003,48.0,62.0
572,145.50648940000002,146.7002998,36.0,72.0
573,146.61186940000002,146.77767640000002,48.0,83.0
574,146.3907934,146.81452240000002,60.0,93.0
575,146.3907934,146.910322,63.0,95.0
576,146.83294540000003,147.01349080000003,55.0,63.0
577,147.27509740000002,147.56433850000002,39.0,47.0
578,147.27509740000002,147.64355740000002,51.0,71.0
579,147.27509740000002,147.73567240000003,63.0,90.0
580,147.27509740000002,147.7411993,58.0,92.0
581,147.27509740000002,147.8996371,55.0,88.0
582,148.1594014,148.4560117,41.0,72.0
583,148.1594014,148.52233450000003,57.0,89.0
584,148.1594014,148.52417680000002,60.0,85.0
585,148.1594014,148.6273456,53.0,92.0
586,149.04370540000002,149.5024381,65.0,62.0
587,149.04370540000002,149.75667550000003,62.0,88.0
588,149.04370540000002,149.79352150000003,58.0,93.0
589,149.04370540000002,149.8064176,53.0,92.0
590,149.04370540000002,150.0367051,46.0,77.0
591,149.9280094,150.25778110000002,65.0,83.0
592,149.9280094,150.43095730000002,58.0,107.0
593,149.9280094,150.43832650000002,62.0,95.0
594,150.37016140000003,150.50280700000002,53.0,66.0
595,150.14908540000002,150.852844,46.0,86.0
596,150.5912374,150.8583709,53.0,83.0
597,150.5912374,150.87126700000002,65.0,83.0
598,150.5912374,150.8878477,62.0,96.0
599,150.5912374,150.90442840000003,58.0,107.0
600,151.03336768333335,151.27803254375002,58.0,100.0
601,151.03336768333335,151.28171171458334,65.0,81.0
602,151.03336768333335,151.31850342291668,62.0,96.0
603,151.03336768333335,151.50798072083333,53.0,82.0
604,151.47486818333334,151.81703107083334,46.0,82.0
605,151.91636868333333,152.1775898125,46.0,89.0
606,151.69561843333335,152.1775898125,58.0,112.0
607,151.69561843333335,152.41305674583333,65.0,78.0
608,152.13711893333334,152.4314526,53.0,92.0
609,151.69561843333335,152.46088596666667,62.0,96.0
610,152.35786918333335,152.47560265,58.0,117.0
611,152.57861943333333,152.67059870416668,58.0,100.0
612,152.57861943333333,152.67059870416668,62.0,93.0
613,152.57861943333333,152.67059870416668,65.0,82.0
614,153.46162043333334,153.51128923958333,58.0,76.0
615,153.24087018333333,153.5241663375,53.0,56.0
616,153.46162043333334,153.64741856041667,62.0,88.0
617,152.57861943333333,154.01165647291668,46.0,107.0
618,153.68237068333335,154.05580652291667,53.0,79.0
619,153.46162043333334,154.18457750208333,65.0,71.0
620,153.90312093333333,154.19193584375,58.0,93.0
621,153.02011993333335,154.20113377083334,50.0,59.0
622,154.12387118333334,154.81371571458334,62.0,62.0
623,154.78612193333333,155.18163279791668,57.0,77.0
624,154.34462143333334,155.33615797291668,45.0,97.0
625,155.22762243333335,155.66544376250002,65.0,92.0
626,155.22762243333335,155.70039588541667,62.0,93.0
627,155.44837268333333,155.99840872291668,45.0,83.0
628,155.66912293333334,156.05911504166667,57.0,82.0
629,156.11062343333333,156.69494648124999,62.0,85.0
630,156.11062343333333,156.70408390833333,58.0,83.0
631,156.55057513333333,157.07323596249998,50.0,64.0
632,157.20846988333332,157.36746111458334,50.0,67.0
633,156.9891716333333,157.4241131625,62.0,85.0
634,156.11062343333333,157.43507807499998,43.0,69.0
635,156.9891716333333,157.45700789999998,58.0,99.0
636,157.42776813333333,157.79509270208334,55.0,74.0
637,157.86636463333332,158.04180323333333,57.0,82.0
638,157.86636463333332,158.07287048541667,60.0,83.0
639,157.86636463333332,159.06336758125,41.0,69.0
640,158.96285588333333,159.06519506666666,53.0,81.0
641,158.30496113333334,159.07250500833334,48.0,63.0
642,158.74355763333332,159.17118922083333,65.0,96.0
643,158.74355763333332,159.17667167708333,69.0,92.0
644,159.1821541333333,159.25159857916665,60.0,90.0
645,159.62075063333333,160.07762198749998,63.0,95.0
646,159.62075063333333,160.15254888958333,58.0,97.0
647,159.62075063333333,160.154376375,55.0,89.0
648,160.05934713333332,160.55459568125,51.0,81.0
649,159.62075063333333,160.86344071666667,39.0,117.0
650,160.71724188333332,160.86344071666667,51.0,107.0
651,160.49794363333334,160.9548149875,63.0,102.0
652,160.49794363333334,160.97491732708332,58.0,117.0
653,160.93654013333332,161.04436177291666,55.0,93.0
654,161.3751366333333,161.89596997708333,62.0,100.0
655,161.3751366333333,161.91789980208333,65.0,89.0
656,162.03303138333334,162.08968343125,62.0,31.0
657,162.03303138333334,162.09333840208333,65.0,26.0
658,161.3751366333333,162.11526822708333,57.0,112.0
659,162.47162788333333,162.63792905625,50.0,85.0
660,161.81373313333333,162.66716882291666,45.0,48.0
661,162.25232963333332,162.72199338541665,65.0,93.0
662,162.25232963333332,162.72747584166666,62.0,100.0
663,161.3751366333333,162.83529748125,38.0,95.0
664,162.69092613333333,162.873674675,57.0,86.0
665,163.12952263333332,163.63573609374998,60.0,97.0
666,163.12952263333332,163.64670100625,63.0,100.0
667,163.12952263333332,163.83675948958333,55.0,99.0
668,163.78741738333332,163.87148171249999,63.0,25.0
669,163.78741738333332,163.88427411041667,60.0,28.0
670,163.12952263333332,164.27901096041666,36.0,72.0
671,163.5681191333333,164.32287061041666,43.0,55.0
672,164.00671563333333,164.41789985208334,63.0,112.0
673,164.00671563333333,164.43617470625,60.0,102.0
674,164.22601388333334,164.44713961875,48.0,86.0
675,164.44531213333332,164.64450804375,55.0,89.0
676,164.88390863333333,165.04655483541666,53.0,93.0
677,164.88390863333333,165.07031214583333,57.0,95.0
678,164.88390863333333,165.21833846458333,60.0,90.0
679,165.32250513333332,165.55094081041665,53.0,95.0
680,165.54180338333333,165.75927414791667,55.0,74.0
681,165.1032068833333,165.856130875,48.0,77.0
682,164.88390863333333,166.14304608541667,41.0,81.0
683,165.76110163333334,166.1741133375,60.0,100.0
684,165.98039988333332,166.27097006458334,48.0,92.0
685,166.19969813333333,166.33493205416667,55.0,92.0
686,166.63829463333332,167.09333850208333,65.0,79.0
687,166.63829463333332,167.3363940625,62.0,83.0
688,166.63829463333332,167.36563382916665,58.0,95.0
689,166.63829463333332,167.59224202083334,46.0,99.0
690,167.51548763333332,167.72751893333333,58.0,97.0
691,167.51548763333332,168.0179598,65.0,82.0
692,167.73487186666668,168.16318023333335,46.0,86.0
693,167.95545986666667,168.23487133333333,58.0,85.0
694,167.51548763333332,168.2881801,62.0,93.0
695,168.39663586666668,168.8561942,65.0,69.0
696,168.39663586666668,169.11354686666667,62.0,86.0
697,168.39663586666668,169.12457626666668,57.0,88.0
698,168.39663586666668,169.38376716666667,45.0,82.0
699,169.27898786666668,169.74957560000001,65.0,90.0
700,169.27898786666668,169.8929578,62.0,93.0
701,169.72016386666667,169.94994303333334,57.0,73.0
702,169.49957586666667,170.0859723,45.0,65.0
703,170.16133986666668,170.6595011,62.0,83.0
704,170.16133986666668,170.69626576666667,55.0,90.0
705,170.16133986666668,170.72200103333333,58.0,90.0
706,170.60251586666666,171.13192706666666,50.0,63.0
707,170.16133986666668,171.39663266666668,43.0,72.0
708,171.26427986666667,171.44994143333335,50.0,67.0
709,171.04369186666668,171.44994143333335,62.0,88.0
710,171.04369186666668,171.53266193333334,58.0,102.0
711,171.48486786666666,171.88008803333335,55.0,88.0
712,171.92604386666667,172.01244083333333,57.0,92.0
713,171.92604386666667,172.0271467,60.0,90.0
714,172.3672198666667,172.8543517,53.0,92.0
715,172.58780786666668,172.93339573333333,60.0,73.0
716,171.92604386666667,173.10435143333333,41.0,72.0
717,172.14663186666667,173.12273376666667,48.0,50.0
718,173.02898386666666,173.124572,53.0,83.0
719,172.80839586666667,173.23302776666668,69.0,92.0
720,172.80839586666667,173.24221893333333,65.0,93.0
721,173.24957186666668,173.31023356666668,60.0,90.0
722,173.69074786666667,174.1999385,63.0,92.0
723,173.69074786666667,174.35251186666667,55.0,82.0
724,173.69074786666667,174.3984677,58.0,93.0
725,174.13192386666668,174.63743803333335,51.0,77.0
726,174.57309986666667,174.84699663333333,55.0,73.0
727,174.7936878666667,174.93707006666668,51.0,81.0
728,173.69074786666667,175.04552583333333,39.0,88.0
729,174.57309986666667,175.04736406666666,63.0,93.0
730,174.57309986666667,175.12273163333333,58.0,99.0
731,175.01427586666668,175.1429522,55.0,75.0
732,175.45545186666666,176.15030406666668,65.0,75.0
733,175.45545186666666,176.15949523333333,62.0,81.0
734,175.45545186666666,176.18523050000002,57.0,89.0
735,175.89662786666668,176.43523023333333,50.0,72.0
736,176.55839186666668,176.764274,50.0,90.0
737,176.33780386666666,176.83228863333335,65.0,86.0
738,176.33780386666666,176.85067096666668,62.0,97.0
739,176.77897986666667,176.9958914,57.0,88.0
740,175.45545186666666,177.14662653333335,38.0,70.0
741,177.2201558666667,177.91316983333334,63.0,95.0
742,177.2201558666667,177.9168463,60.0,93.0
743,177.2201558666667,177.922361,55.0,88.0
744,177.66133186666667,178.22750773333334,48.0,61.0
745,178.54368386666667,178.95544813333333,55.0,69.0
746,178.10250786666668,178.97383046666667,60.0,93.0
747,178.32309586666668,178.98302163333335,48.0,86.0
748,177.2201558666667,178.98485986666668,36.0,69.0
749,178.10250786666668,178.98485986666668,63.0,100.0
750,178.98485986666668,179.74772670000002,69.0,81.0
751,178.98485986666668,179.74956493333335,65.0,82.0
752,178.98485986666668,179.79552076666667,60.0,92.0
753,178.98485986666668,179.96463823333335,53.0,82.0
754,178.98485986666668,180.67787276666667,41.0,54.0
755,178.98485986666668,180.68338746666666,48.0,65.0
756,180.08779986666667,180.69993156666666,53.0,79.0
757,180.30838786666666,180.73118153333334,60.0,107.0
758,179.86721186666668,180.73669623333333,65.0,93.0
759,179.86721186666668,180.76243150000002,69.0,93.0
760,181.19073986666666,181.67051876666667,58.0,89.0
761,181.41132786666668,181.7771363,62.0,85.0
762,181.85250386666667,182.10434183333334,58.0,96.0
763,180.97015186666667,182.12272416666667,53.0,55.0
764,180.74956386666668,182.30287103333333,46.0,95.0
765,181.63191586666667,182.51242963333334,70.0,117.0
766,182.29367986666668,182.66132653333335,62.0,93.0
767,182.0730918666667,182.73301763333333,65.0,89.0
768,183.17603186666668,183.44257570000002,65.0,77.0
769,182.73485586666666,183.46647273333335,53.0,35.0
770,182.95544386666668,183.5087521,62.0,67.0
771,183.61720786666666,183.74220773333334,53.0,72.0
772,182.51426786666667,183.79919296666668,45.0,63.0
773,183.39661986666667,184.24404543333333,69.0,99.0
774,183.83779586666668,184.2532366,65.0,95.0
775,184.05838386666667,184.28816303333335,62.0,97.0
776,184.72014786666668,184.94625056666666,55.0,83.0
777,184.94073586666667,185.1907356,58.0,95.0
778,184.4995598666667,185.28816196666668,50.0,62.0
779,185.38191186666668,185.57676460000002,50.0,78.0
780,184.27897186666667,185.61904396666668,43.0,82.0
781,185.60249986666668,186.00874943333335,58.0,100.0
782,185.16132386666666,186.02345530000002,62.0,97.0
783,185.82308786666667,186.04367586666666,55.0,89.0
784,186.70543986666667,186.9830131,60.0,96.0
785,186.48485186666667,187.0105866,53.0,82.0
786,187.14661586666668,187.2477187,53.0,85.0
787,186.04367586666666,187.26242456666668,41.0,73.0
788,186.26426386666668,187.2863216,48.0,82.0
789,186.9260278666667,187.4407332,65.0,97.0
790,187.58779186666666,187.82308573333333,65.0,100.0
791,186.9260278666667,187.83043866666668,69.0,100.0
792,187.36720386666667,187.85801216666667,60.0,102.0
793,188.24955586666667,188.75690826666667,51.0,93.0
794,188.02896786666668,189.01609916666666,46.0,35.0
795,188.47014386666666,189.0179374,55.0,90.0
796,188.91131986666667,189.06021676666668,51.0,92.0
797,187.80837986666668,189.1227167,39.0,90.0
798,188.69073186666668,189.50506923333333,63.0,127.0
799,189.13190786666667,189.51609863333334,58.0,112.0
800,189.3524958666667,189.5749221,55.0,97.0
801,190.01425986666666,190.53631813333334,50.0,90.0
802,190.67602386666667,190.83043546666667,50.0,93.0
803,190.23484786666668,190.84146486666668,57.0,95.0
804,189.79367186666667,190.86168543333335,45.0,68.0
805,189.57308386666668,190.91499420000002,38.0,86.0
806,190.45543586666668,191.28080263333334,65.0,122.0
807,190.89661186666666,191.30837613333335,62.0,99.0
808,191.11719986666668,191.4002878,57.0,102.0
809,191.7789638666667,192.28999273333335,48.0,93.0
810,191.99955186666668,192.49587486666667,55.0,86.0
811,191.55837586666667,192.53999246666666,43.0,72.0
812,191.33778786666667,192.6300659,36.0,78.0
813,192.44072786666666,192.90947736666666,48.0,97.0
814,192.66131586666668,193.09697716666668,60.0,102.0
815,192.88190386666668,193.1043301,55.0,97.0
816,192.22013986666667,193.13190360000002,63.0,127.0
817,193.76425586666667,193.91499100000001,65.0,85.0
818,193.76425586666667,193.92234393333334,69.0,89.0
819,193.54366786666668,194.05653496666667,53.0,92.0
820,193.10249186666667,194.27528473333334,41.0,83.0
821,193.32307986666666,194.28447590000002,48.0,77.0
822,194.2054318666667,194.40396106666668,53.0,100.0
823,193.98484386666667,194.5105786,65.0,97.0
824,194.42601986666668,194.8194018,60.0,102.0
825,193.98484386666667,194.8414606,69.0,99.0
826,194.64660786666667,194.94440166666666,65.0,90.0
827,195.30837186666668,195.79366546666668,58.0,83.0
828,195.08778386666668,196.07307693333334,53.0,70.0
829,195.97013586666668,196.13557686666667,58.0,96.0
830,194.86719586666666,196.1374151,46.0,97.0
831,195.52895986666667,196.19440033333333,62.0,89.0
832,195.74954786666666,196.38925306666667,70.0,122.0
833,196.41131186666667,196.7550615,62.0,97.0
834,196.19072386666667,196.90212016666666,65.0,90.0
835,196.85248786666668,197.1392522666667,62.0,77.0
836,197.07307586666667,197.43520783333335,65.0,69.0
837,197.2936638666667,197.65579583333334,62.0,78.0
838,196.63189986666669,197.73851633333334,45.0,72.0
839,197.73483986666668,198.04182483333335,62.0,69.0
840,197.95542786666667,198.37454506666668,65.0,78.0
841,197.51425186666668,198.39476563333335,69.0,102.0
842,198.17601586666666,198.437045,62.0,78.0
843,198.83777986666666,199.14660306666667,55.0,76.0
844,198.61719186666667,199.40395573333333,50.0,50.0
845,199.05836786666669,199.60983786666668,58.0,95.0
846,199.49954386666667,199.68336720000002,50.0,69.0
847,198.39660386666668,199.76057300000002,43.0,73.0
848,199.7201318666667,200.17601373333335,58.0,93.0
849,199.27895586666668,200.19991076666668,62.0,92.0
850,199.94071986666668,200.2182931,55.0,73.0
851,200.60248386666666,200.6760132,60.0,24.0
852,200.60248386666666,201.14843916666666,53.0,81.0
853,201.26424786666666,201.36167423333333,53.0,76.0
854,200.16130786666668,201.36902716666668,41.0,64.0
855,200.38189586666667,201.38557126666666,48.0,48.0
856,200.82307186666668,201.49402703333334,57.0,88.0
857,201.48483586666669,201.95174713333336,60.0,95.0
858,201.04365986666667,201.95174713333336,65.0,96.0
859,201.70542386666668,202.0050559,57.0,93.0
860,202.36718786666668,202.848805,51.0,83.0
861,202.1465998666667,203.16314290000003,46.0,42.0
862,203.02895186666666,203.18336346666666,51.0,77.0
863,201.92601186666667,203.23115753333335,39.0,56.0
864,202.58777586666668,203.23299576666668,55.0,78.0
865,203.24953986666668,203.6153483,58.0,96.0
866,202.80836386666667,203.6429218,63.0,112.0
867,203.47012786666667,203.731157,55.0,89.0
868,204.13189186666668,204.65211190000002,50.0,81.0
869,204.35247986666667,204.9260086666667,57.0,77.0
870,203.69071586666666,205.00689093333335,38.0,66.0
871,203.91130386666669,205.03997913333333,45.0,55.0
872,204.79365586666668,205.36534643333334,50.0,86.0
873,204.5730678666667,205.36718466666667,65.0,102.0
874,205.01424386666667,205.385567,62.0,95.0
875,205.23483186666667,205.40578756666667,57.0,97.0
876,205.89659586666667,206.44255116666668,48.0,85.0
877,205.45541986666666,206.68703620000002,36.0,85.0
878,206.11718386666666,206.69438913333335,55.0,82.0
879,205.67600786666668,206.71093323333335,43.0,71.0
880,206.55835986666668,206.83777133333334,48.0,88.0
881,206.33777186666669,207.10799163333334,63.0,117.0
882,206.77894786666667,207.14291806666668,60.0,107.0
883,206.9995358666667,207.21460916666666,55.0,92.0
884,207.66129986666667,208.18887283333333,53.0,85.0
885,207.88188786666666,208.45909313333334,57.0,82.0
886,207.44071186666667,208.52159306666667,48.0,69.0
887,207.22012386666668,208.5730636,41.0,83.0
888,208.32306386666667,208.90210736666668,53.0,95.0
889,208.54365186666666,208.9535779,60.0,97.0
890,208.10247586666668,208.96276906666668,65.0,99.0
891,208.76423986666668,208.96828376666667,57.0,107.0
892,209.4260038666667,209.94070920000001,58.0,95.0
893,209.64659186666668,210.01791500000002,62.0,78.0
894,209.86717986666667,210.51239976666668,70.0,127.0
895,208.98482786666668,210.61166436666667,46.0,107.0
896,209.20541586666667,210.70357603333335,53.0,46.0
897,210.08776786666667,210.86350233333334,58.0,99.0
898,210.52894386666668,211.14107556666667,62.0,102.0
899,210.30835586666666,211.31570773333334,65.0,90.0
900,211.19070786666668,211.70357496666668,58.0,97.0
901,211.41129586666668,211.89658946666668,62.0,88.0
902,211.8524718666667,212.1355598,58.0,96.0
903,210.97011986666666,212.47747120000002,53.0,65.0
904,212.07305986666668,212.52158880000002,65.0,96.0
905,211.63188386666667,212.52158880000002,70.0,112.0
906,212.29364786666667,212.53077996666667,62.0,96.0
907,210.74953186666667,212.5381329,46.0,89.0
908,212.51423586666667,213.23114686666668,68.0,97.0
909,212.51423586666667,213.24217626666666,60.0,100.0
910,212.51423586666667,213.24585273333335,63.0,112.0
911,212.51423586666667,213.5142348,56.0,88.0
912,213.39658786666666,213.90394026666667,63.0,112.0
913,213.39658786666666,213.9223226,68.0,107.0
914,212.51423586666667,214.1153371,44.0,93.0
915,214.05835186666667,214.18335173333335,63.0,82.0
916,213.61717586666668,214.18886643333335,56.0,57.0
917,214.05835186666667,214.18886643333335,68.0,90.0
918,213.83776386666668,214.20357230000002,60.0,77.0
919,214.2789398666667,215.00688026666668,60.0,90.0
920,214.2789398666667,215.01055673333335,68.0,100.0
921,214.2789398666667,215.02893906666668,63.0,117.0
922,214.2789398666667,215.2550417666667,56.0,62.0
923,215.38187986666668,215.54180616666667,56.0,86.0
924,215.16129186666666,215.56386496666667,68.0,112.0
925,215.16129186666666,215.5767326,63.0,117.0
926,214.2789398666667,215.59143846666666,44.0,89.0
927,215.60246786666667,215.64474723333333,60.0,76.0
928,216.04364386666668,216.49104496875,58.0,122.0
929,216.04364386666668,216.49104496875,65.0,79.0
930,216.04364386666668,216.551885625,62.0,93.0
931,216.9279915,216.98514484375,65.0,70.0
932,216.9279915,216.99620678125,58.0,122.0
933,216.9279915,216.99620678125,62.0,93.0
934,216.9279915,216.99989409375002,53.0,99.0
935,216.04364386666668,217.08470228125,46.0,107.0
936,217.59170775,217.64148646875,65.0,43.0
937,217.59170775,217.65254840625,62.0,75.0
938,217.59170775,217.6617666875,53.0,89.0
939,217.59170775,217.6617666875,58.0,102.0
940,218.03418525,218.13927365625,62.0,88.0
941,218.03418525,218.14296096875,58.0,100.0
942,218.03418525,218.1484919375,53.0,90.0
943,218.03418525,218.1484919375,65.0,77.0
944,217.370469,218.24989303125,46.0,72.0
945,218.6979015,218.72924365625,53.0,47.0
946,218.47666275,218.7974589375,46.0,93.0
947,218.91914025,219.05003984375,46.0,92.0
948,218.6979015,219.10534953125,62.0,96.0
949,218.6979015,219.118255125,58.0,102.0
950,219.140379,219.1698775,53.0,69.0
951,219.5828565,220.3756286875,60.0,82.0
952,219.5828565,220.37747234375001,68.0,96.0
953,219.5828565,220.3830033125,63.0,117.0
954,219.5828565,220.73882896875,56.0,93.0
955,220.4678115,220.97481696875,63.0,107.0
956,220.4678115,220.9803479375,68.0,97.0
957,220.4678115,220.98403525,60.0,89.0
958,221.13152775,221.256896375,60.0,62.0
959,221.13152775,221.256896375,63.0,67.0
960,221.13152775,221.264271,68.0,68.0
961,220.910289,221.66434440625,56.0,57.0
962,221.3527665,221.9537984375,60.0,96.0
963,221.3527665,221.9906715625,63.0,127.0
964,221.3527665,221.99251521875001,68.0,112.0
965,221.795244,222.2782819375,56.0,78.0
966,222.45896025,222.64148221875,56.0,75.0
967,222.2377215,222.64332587500002,68.0,107.0
968,222.2377215,222.65254415625,63.0,112.0
969,219.5828565,222.67098071875,44.0,89.0
970,222.68019900000002,222.71522846875,60.0,69.0
971,223.1226765,223.69789725,65.0,61.0
972,223.1226765,223.88410653125,62.0,86.0
973,223.1226765,223.8896375,58.0,93.0
974,223.1226765,223.9006994375,53.0,92.0
975,223.1226765,224.25836875,46.0,69.0
976,224.0076315,224.2620560625,65.0,72.0
977,224.0076315,224.34133328125,58.0,107.0
978,224.0076315,224.34502059375,62.0,93.0
979,224.0076315,224.37083178125,53.0,83.0
980,224.67134775,224.9405215625,65.0,56.0
981,224.67134775,224.9921439375,62.0,85.0
982,224.67134775,224.99583125,58.0,99.0
983,224.450109,225.3055655,46.0,88.0
984,225.11382525,225.57473931250001,65.0,72.0
985,225.11382525,225.58764490625,62.0,90.0
986,225.11382525,225.59317587500001,58.0,95.0
987,225.11382525,225.60608146875,53.0,81.0
988,225.55630275000001,225.85128775,46.0,83.0
989,225.7775415,226.05593359375,58.0,102.0
990,225.7775415,226.242142875,53.0,67.0
991,225.7775415,226.26979771875,62.0,92.0
992,225.99878025,226.28823428125,46.0,93.0
993,226.220019,226.29192159375,58.0,117.0
994,226.6624965,227.35018028125,68.0,99.0
995,226.6624965,227.363085875,60.0,92.0
996,226.6624965,227.36492953125,63.0,112.0
997,226.6624965,227.74103540625,56.0,93.0
998,227.5474515,228.01758384375,63.0,117.0
999,227.5474515,228.02127115625,60.0,93.0
1000,227.5474515,228.03417675,68.0,102.0
1001,228.21116775000002,228.4950908125,60.0,92.0
1002,228.21116775000002,228.513527375,68.0,107.0
1003,228.21116775000002,228.51905834375,63.0,122.0
1004,227.98992900000002,228.90991346875,56.0,82.0
1005,228.65364525,229.09427909375,60.0,89.0
1006,228.65364525,229.0998100625,63.0,112.0
1007,228.65364525,229.11271565625,68.0,117.0
1008,229.09612275,229.37820215625,56.0,88.0
1009,226.6624965,229.69162371875,44.0,97.0
1010,229.53860025,229.700842,56.0,92.0
1011,229.3173615,229.73955878125,68.0,127.0
1012,229.3173615,229.7414024375,63.0,127.0
1013,229.759839,229.80777406250002,60.0,89.0
1014,230.2023165,230.58026603125,65.0,52.0
1015,230.2023165,230.66507421875,62.0,82.0
1016,230.2023165,230.70194734375,58.0,93.0
1017,230.2023165,230.92318609375,53.0,96.0
1018,231.0872715,231.55002921875,65.0,79.0
1019,231.0872715,231.58874600000001,58.0,112.0
1020,231.0872715,231.58874600000001,62.0,96.0
1021,231.0872715,231.5924333125,53.0,88.0
1022,230.2023165,231.89848025,46.0,99.0
1023,231.9722265,232.13262459375,46.0,88.0
1024,231.75098775,232.4995121875,65.0,72.0
1025,231.75098775,232.51794875000002,58.0,102.0
1026,231.75098775,232.6027569375,62.0,93.0
1027,231.75098775,232.67834684375,53.0,93.0
1028,232.414704,232.95858259375,46.0,102.0
1029,233.07842025,233.2885970625,46.0,117.0
1030,232.8571815,233.366030625,62.0,93.0
1031,232.8571815,233.3770925625,58.0,102.0
1032,233.299659,233.59280034375,53.0,74.0
1033,233.74213650000002,234.30813896875,53.0,96.0
1034,233.74213650000002,234.50725384375,60.0,92.0
1035,233.74213650000002,234.5127848125,57.0,96.0
1036,234.184614,234.81698809375,48.0,44.0
1037,234.6270915,234.9700115625,53.0,93.0
1038,234.6270915,235.21153053125,60.0,93.0
1039,234.6270915,235.21521784375,57.0,96.0
1040,233.74213650000002,235.35902303125,41.0,82.0
1041,235.069569,235.5231084375,48.0,70.0
1042,235.5120465,235.88077775,41.0,96.0
1043,235.29080775,236.11123478125,53.0,96.0
1044,235.29080775,236.18498103125,60.0,79.0
1045,235.29080775,236.197886625,57.0,73.0
1046,236.3970015,236.45231118750002,53.0,81.0
1047,235.954524,236.81551146875,41.0,95.0
1048,236.3970015,236.891101375,57.0,96.0
1049,236.3970015,236.89294503125,60.0,102.0
1050,236.61824025,236.94088009375,48.0,82.0
1051,236.839479,237.0791543125,53.0,92.0
1052,237.2819565,237.39073221875,55.0,102.0
1053,237.2819565,237.392575875,59.0,97.0
1054,237.2819565,237.40916878125,62.0,100.0
1055,238.1669115,238.35865175,62.0,107.0
1056,238.1669115,238.36418271875002,67.0,107.0
1057,238.1669115,238.37524465625,71.0,96.0
1058,238.83062775000002,238.9080613125,71.0,39.0
1059,238.83062775000002,238.92834153125,67.0,47.0
1060,238.83062775000002,238.96890196875,62.0,82.0
1061,238.609389,238.9818075625,55.0,74.0
1062,237.2819565,239.01499337500002,43.0,93.0
1063,237.724434,239.0408045625,50.0,36.0
1064,239.05186650000002,239.4685328125,71.0,88.0
1065,239.05186650000002,239.47037646875,67.0,92.0
1066,239.05186650000002,239.48143840625,62.0,100.0
1067,239.05186650000002,239.4832820625,43.0,72.0
1068,239.05186650000002,239.48512571875,50.0,79.0
1069,239.05186650000002,239.48512571875,55.0,93.0
1070,239.9368215,240.23365015625,43.0,71.0
1071,239.9368215,240.23918112500002,62.0,93.0
1072,239.9368215,240.24471209375,71.0,93.0
1073,239.9368215,240.24655575,55.0,88.0
1074,239.9368215,240.24655575,67.0,97.0
1075,239.9368215,240.25208671875,50.0,77.0
1076,240.379299,240.80887090625,62.0,99.0
1077,240.379299,240.81624553125,67.0,102.0
1078,240.379299,240.83099478125,71.0,96.0
1079,240.379299,240.83283843750002,50.0,92.0
1080,240.379299,240.83468209375002,43.0,85.0
1081,240.379299,240.83652575,55.0,99.0
1082,240.8217765,240.9139593125,60.0,100.0
1083,240.8217765,240.9139593125,64.0,93.0
1084,240.8217765,240.9139593125,67.0,82.0
1085,241.70473586666668,241.75436816666667,60.0,76.0
1086,241.48414786666666,241.7672358,55.0,56.0
1087,241.70473586666668,241.89039743333333,64.0,88.0
1088,240.8217765,242.25436763333335,48.0,107.0
1089,241.92532386666667,242.29848523333334,55.0,79.0
1090,241.70473586666668,242.42716156666665,67.0,71.0
1091,242.14591186666667,242.4345145,60.0,93.0
1092,241.26355986666667,242.44370566666666,52.0,59.0
1093,242.36649986666666,243.05583736666668,64.0,62.0
1094,243.02826386666666,243.42348403333332,59.0,77.0
1095,242.58708786666668,243.57789563333333,47.0,97.0
1096,243.46943986666668,243.9069394,67.0,92.0
1097,243.46943986666668,243.94186583333334,64.0,93.0
1098,243.69002786666667,244.23965963333333,47.0,83.0
1099,243.91061586666666,244.30032133333333,59.0,82.0
1100,244.35179186666667,244.9381883,64.0,85.0
1101,244.35179186666667,244.94737946666666,60.0,83.0
1102,244.79296786666666,245.3187026,52.0,64.0
1103,245.45473186666666,245.61465816666666,52.0,67.0
1104,245.23414386666667,245.6716434,64.0,85.0
1105,244.35179186666667,245.6826728,45.0,69.0
1106,245.23414386666667,245.7047316,60.0,99.0
1107,245.67531986666665,246.04480476666666,57.0,74.0
1108,246.11649586666667,246.29296626666667,59.0,82.0
1109,246.11649586666667,246.32421623333335,62.0,83.0
1110,246.11649586666667,247.32053870000001,43.0,69.0
1111,247.21943586666666,247.32237693333335,55.0,81.0
1112,246.55767186666668,247.32972986666667,50.0,63.0
1113,246.99884786666667,247.42899446666667,67.0,96.0
1114,246.99884786666667,247.43450916666666,71.0,92.0
1115,247.44002386666668,247.50987673333333,62.0,90.0
1116,247.88119986666666,248.3407582,65.0,95.0
1117,247.88119986666666,248.41612576666668,60.0,97.0
1118,247.88119986666666,248.417964,57.0,89.0
1119,248.32237586666668,248.8205371,53.0,81.0
1120,247.88119986666666,249.13119853333333,41.0,117.0
1121,248.98413986666668,249.13119853333333,53.0,107.0
1122,248.76355186666666,249.2231102,65.0,102.0
1123,248.76355186666666,249.24333076666667,60.0,117.0
1124,249.20472786666667,249.31318363333332,57.0,93.0
1125,249.64590386666666,250.16980036666666,64.0,100.0
1126,249.64590386666666,250.19185916666666,67.0,89.0
1127,250.30766786666666,250.3646531,64.0,31.0
1128,250.30766786666666,250.36832956666666,67.0,26.0
1129,249.64590386666666,250.39038836666668,59.0,112.0
1130,250.74884386666668,250.9161231,52.0,85.0
1131,250.08707986666667,250.94553483333334,47.0,48.0
1132,250.52825586666665,251.00068183333335,67.0,93.0
1133,250.52825586666665,251.00619653333334,64.0,100.0
1134,249.64590386666666,251.1146523,40.0,95.0
1135,250.96943186666667,251.1532552,59.0,86.0
1136,251.41060786666668,251.9197985,62.0,97.0
1137,251.41060786666668,251.9308279,65.0,100.0
1138,251.41060786666668,252.12200416666667,57.0,99.0
1139,252.07237186666666,252.1569306,65.0,25.0
1140,252.07237186666666,252.16979823333332,62.0,28.0
1141,251.41060786666668,252.56685663333334,38.0,72.0
1142,251.85178386666666,252.61097423333334,45.0,55.0
1143,252.29295986666668,252.70656236666667,65.0,112.0
1144,252.29295986666668,252.7249447,62.0,102.0
1145,252.51354786666667,252.7359741,50.0,86.0
1146,252.73413586666666,252.93450330000002,57.0,89.0
1147,253.17531186666668,253.33891463333333,55.0,93.0
1148,253.17531186666668,253.36281166666666,59.0,95.0
1149,253.17531186666668,253.51170856666667,62.0,90.0
1150,253.61648786666666,253.84626703333333,55.0,95.0
1151,253.83707586666668,254.05582563333334,57.0,74.0
1152,253.39589986666667,254.153252,50.0,77.0
1153,253.17531186666668,254.44185463333335,43.0,81.0
1154,254.05766386666667,254.4731046,62.0,100.0
1155,254.27825186666666,254.57053096666667,50.0,92.0
1156,254.49883986666666,254.63486913333332,57.0,92.0
1157,254.94001586666667,255.39773596666666,67.0,79.0
1158,254.94001586666667,255.642221,64.0,83.0
1159,254.94001586666667,255.67163273333333,60.0,95.0
1160,254.94001586666667,255.89957366666667,48.0,99.0
1161,255.82236786666667,256.03560293333334,60.0,97.0
1162,255.82236786666667,256.3260438,67.0,82.0
1163,256.04295586666666,256.47126423333333,48.0,86.0
1164,256.2635438666667,256.54295533333334,60.0,85.0
1165,255.82236786666667,256.5962641,64.0,93.0
1166,256.70471986666666,257.1642782,67.0,69.0
1167,256.70471986666666,257.42163086666665,64.0,86.0
1168,256.70471986666666,257.4326602666667,59.0,88.0
1169,256.70471986666666,257.69185116666665,47.0,82.0
1170,257.5870718666667,258.0576596,67.0,90.0
1171,257.5870718666667,258.2010418,64.0,93.0
1172,258.0282478666667,258.25802703333335,59.0,73.0
1173,257.80765986666665,258.3940563,47.0,65.0
1174,258.46942386666666,258.9675851,64.0,83.0
1175,258.46942386666666,259.0043497666667,57.0,90.0
1176,258.46942386666666,259.0300850333333,60.0,90.0
1177,258.91059986666664,259.44001106666667,52.0,63.0
1178,258.46942386666666,259.7047166666667,45.0,72.0
1179,259.57236386666665,259.75802543333333,52.0,67.0
1180,259.3517758666667,259.75802543333333,64.0,88.0
1181,259.3517758666667,259.8407459333333,60.0,102.0
1182,259.79295186666667,260.18817203333333,57.0,88.0
1183,260.23412786666665,260.32052483333337,59.0,92.0
1184,260.23412786666665,260.3352307,62.0,90.0
1185,260.6753038666667,261.1624357,55.0,92.0
1186,260.89589186666666,261.24147973333334,62.0,73.0
1187,260.23412786666665,261.4124354333333,43.0,72.0
1188,260.4547158666667,261.4308177666667,50.0,50.0
1189,261.33706786666664,261.432656,55.0,83.0
1190,261.1164798666667,261.5411117666667,71.0,92.0
1191,261.1164798666667,261.55030293333334,67.0,93.0
1192,261.55765586666666,261.6183175666667,62.0,90.0
1193,261.99883186666665,262.5080225,65.0,92.0
1194,261.99883186666665,262.66059586666665,57.0,82.0
1195,261.99883186666665,262.7065517,60.0,93.0
1196,262.4400078666667,262.94552203333336,53.0,77.0
1197,262.8811838666667,263.15508063333334,57.0,73.0
1198,263.1017718666667,263.24515406666666,53.0,81.0
1199,261.99883186666665,263.35360983333334,41.0,88.0
1200,262.8811838666667,263.35544806666667,65.0,93.0
1201,262.8811838666667,263.43081563333334,60.0,99.0
1202,263.32235986666666,263.4510362,57.0,75.0
1203,263.76353586666664,264.45838806666666,67.0,75.0
1204,263.76353586666664,264.4675792333333,64.0,81.0
1205,263.76353586666664,264.4933145,59.0,89.0
1206,264.2047118666667,264.7433142333333,52.0,72.0
1207,264.8664758666667,265.072358,52.0,90.0
1208,264.64588786666667,265.14037263333336,67.0,86.0
1209,264.64588786666667,265.15875496666666,64.0,97.0
1210,265.08706386666665,265.3039754,59.0,88.0
1211,263.76353586666664,265.45471053333335,40.0,70.0
1212,265.5282398666667,266.2212538333333,65.0,95.0
1213,265.5282398666667,266.2249303,62.0,93.0
1214,265.5282398666667,266.23044500000003,57.0,88.0
1215,265.9694158666667,266.5355917333333,50.0,61.0
1216,266.85176786666665,267.26353213333334,57.0,69.0
1217,266.41059186666666,267.28191446666665,62.0,93.0
1218,266.6311798666667,267.29110563333336,50.0,86.0
1219,265.5282398666667,267.2929438666667,38.0,69.0
1220,266.41059186666666,267.2929438666667,65.0,100.0
1221,267.2929438666667,268.0374283666667,71.0,89.0
1222,267.2929438666667,268.0392666,67.0,96.0
1223,267.2929438666667,268.0668401,62.0,96.0
1224,268.17529586666666,268.6716188666667,67.0,97.0
1225,268.17529586666666,268.6716188666667,71.0,99.0
1226,268.3958838666667,268.9216186,55.0,96.0
1227,267.7341198666667,269.0061773333333,50.0,59.0
1228,267.2929438666667,269.0521331666667,43.0,81.0
1229,268.83705986666666,269.06132433333335,67.0,90.0
1230,268.83705986666666,269.07235373333333,71.0,95.0
1231,268.61647186666664,269.07419196666666,62.0,100.0
1232,269.0576478666667,269.3131623,69.0,100.0
1233,269.0576478666667,269.3333828666667,65.0,112.0
1234,269.0576478666667,269.34992696666666,53.0,112.0
1235,269.49882386666667,269.6366913666667,64.0,96.0
1236,269.49882386666667,269.65139723333334,52.0,107.0
1237,269.49882386666667,269.6605884,67.0,97.0
1238,269.7194118666667,269.90139696666665,65.0,89.0
1239,269.7194118666667,269.95470573333336,50.0,95.0
1240,269.7194118666667,269.95470573333336,62.0,88.0
1241,270.3811758666667,270.4822787,55.0,82.0
1242,270.3811758666667,270.4951463333333,64.0,92.0
1243,270.3811758666667,270.4988228,60.0,97.0
1244,270.3811758666667,270.5043375,48.0,107.0
1245,270.60176386666666,270.7598519333333,55.0,89.0
1246,270.60176386666666,270.76169016666665,60.0,93.0
1247,270.60176386666666,270.7727195666667,64.0,85.0
1248,270.60176386666666,270.7782342666667,48.0,100.0
1249,271.04293986666664,272.6587469666667,59.0,97.0
1250,271.04293986666664,272.66242343333334,62.0,96.0
1251,271.04293986666664,272.66977636666667,55.0,99.0
1252,271.04293986666664,272.6771293,43.0,96.0
1253,272.5870558666667,273.1734523,64.0,85.0
1254,272.5870558666667,273.18264346666666,60.0,83.0
1255,273.02823186666666,273.5539666,52.0,64.0
1256,273.68999586666666,273.84992216666666,52.0,67.0
1257,273.46940786666664,273.9069074,64.0,85.0
1258,272.5870558666667,273.9179368,45.0,69.0
1259,273.46940786666664,273.9399956,60.0,99.0
1260,273.9105838666667,274.28006876666666,57.0,74.0
1261,274.35175986666667,274.5282302666667,59.0,82.0
1262,274.35175986666667,274.5594802333333,62.0,83.0
1263,274.35175986666667,275.5558027,43.0,69.0
1264,275.45469986666666,275.55764093333335,55.0,81.0
1265,274.79293586666665,275.56499386666667,50.0,63.0
1266,275.2341118666667,275.6642584666667,67.0,96.0
1267,275.2341118666667,275.6697731666667,71.0,92.0
1268,275.6752878666667,275.74514073333336,62.0,90.0
1269,276.11646386666666,276.5760222,65.0,95.0
1270,276.11646386666666,276.6513897666667,60.0,97.0
1271,276.11646386666666,276.653228,57.0,89.0
1272,276.55763986666665,277.0558011,53.0,81.0
1273,276.11646386666666,277.36646253333333,41.0,117.0
1274,277.21940386666665,277.36646253333333,53.0,107.0
1275,276.9988158666667,277.4583742,65.0,102.0
1276,276.9988158666667,277.4785947666667,60.0,117.0
1277,277.4399918666667,277.54844763333335,57.0,93.0
1278,277.88116786666666,278.4050643666667,64.0,100.0
1279,277.88116786666666,278.42712316666666,67.0,89.0
1280,278.54293186666666,278.5999171,64.0,31.0
1281,278.54293186666666,278.6035935666667,67.0,26.0
1282,277.88116786666666,278.62565236666666,59.0,112.0
1283,278.98410786666665,279.1513871,52.0,85.0
1284,278.32234386666664,279.18079883333337,47.0,48.0
1285,278.7635198666667,279.23594583333335,67.0,93.0
1286,278.7635198666667,279.24146053333334,64.0,100.0
1287,277.88116786666666,279.3499163,40.0,95.0
1288,279.20469586666667,279.3885192,59.0,86.0
1289,279.64587186666665,280.1550625,62.0,97.0
1290,279.64587186666665,280.1660919,65.0,100.0
1291,279.64587186666665,280.3572681666667,57.0,99.0
1292,280.30763586666666,280.3921946,65.0,25.0
1293,280.30763586666666,280.40506223333335,62.0,28.0
1294,279.64587186666665,280.80212063333335,38.0,72.0
1295,280.0870478666667,280.84623823333334,45.0,55.0
1296,280.5282238666667,280.94182636666665,65.0,112.0
1297,280.5282238666667,280.9602087,62.0,102.0
1298,280.74881186666664,280.9712381,50.0,86.0
1299,280.96939986666666,281.1697673,57.0,89.0
1300,281.41057586666665,281.57417863333336,55.0,93.0
1301,281.41057586666665,281.59807566666666,59.0,95.0
1302,281.41057586666665,281.74697256666667,62.0,90.0
1303,281.8517518666667,282.08153103333336,55.0,95.0
1304,282.07233986666665,282.29108963333334,57.0,74.0
1305,281.63116386666667,282.388516,50.0,77.0
1306,281.41057586666665,282.67711863333335,43.0,81.0
1307,282.2929278666667,282.70836860000003,62.0,100.0
1308,282.5135158666667,282.80579496666667,50.0,92.0
1309,282.73410386666666,282.87013313333335,57.0,92.0
1310,283.17527986666664,283.63299996666666,67.0,79.0
1311,283.17527986666664,283.877485,64.0,83.0
1312,283.17527986666664,283.9068967333333,60.0,95.0
1313,283.17527986666664,284.13483766666667,48.0,99.0
1314,284.05763186666667,284.2708669333333,60.0,97.0
1315,284.05763186666667,284.5613078,67.0,82.0
1316,284.2782198666667,284.70652823333336,48.0,86.0
1317,284.49880786666665,284.77821933333337,60.0,85.0
1318,284.05763186666667,284.8315281,64.0,93.0
1319,284.9399838666667,285.3995422,67.0,69.0
1320,284.9399838666667,285.6568948666667,64.0,86.0
1321,284.9399838666667,285.66792426666666,59.0,88.0
1322,284.9399838666667,285.9271151666667,47.0,82.0
1323,285.82233586666666,286.2929236,67.0,90.0
1324,285.82233586666666,286.4363058,64.0,93.0
1325,286.2635118666667,286.4932910333333,59.0,73.0
1326,286.0429238666667,286.6293203,47.0,65.0
1327,286.7046878666667,287.2028491,64.0,83.0
1328,286.7046878666667,287.23961376666665,57.0,90.0
1329,286.7046878666667,287.26534903333334,60.0,90.0
1330,287.1458638666667,287.6752750666667,52.0,63.0
1331,286.7046878666667,287.93998066666666,45.0,72.0
1332,287.8076278666667,287.99328943333336,52.0,67.0
1333,287.58703986666666,287.99328943333336,64.0,88.0
1334,287.58703986666666,288.07600993333335,60.0,102.0
1335,288.02821586666664,288.42343603333336,57.0,88.0
1336,288.4693918666667,288.55578883333334,59.0,92.0
1337,288.4693918666667,288.5704947,62.0,90.0
1338,288.91056786666667,289.3976997,55.0,92.0
1339,289.1311558666667,289.47674373333336,62.0,73.0
1340,288.4693918666667,289.64769943333334,43.0,72.0
1341,288.6899798666667,289.66608176666665,50.0,50.0
1342,289.5723318666667,289.66792,55.0,83.0
1343,289.35174386666665,289.77637576666666,71.0,92.0
1344,289.35174386666665,289.78556693333337,67.0,93.0
1345,289.7929198666667,289.85358156666666,62.0,90.0
1346,290.2340958666667,290.7432865,65.0,92.0
1347,290.2340958666667,290.8958598666667,57.0,82.0
1348,290.2340958666667,290.9418157,60.0,93.0
1349,290.67527186666666,291.18078603333333,53.0,77.0
1350,291.1164478666667,291.39034463333337,57.0,73.0
1351,291.33703586666667,291.4804180666667,53.0,81.0
1352,290.2340958666667,291.5888738333333,41.0,88.0
1353,291.1164478666667,291.5907120666667,65.0,93.0
1354,291.1164478666667,291.6660796333333,60.0,99.0
1355,291.5576238666667,291.6863002,57.0,75.0
1356,291.9987998666667,292.6936520666667,67.0,75.0
1357,291.9987998666667,292.70284323333334,64.0,81.0
1358,291.9987998666667,292.7285785,59.0,89.0
1359,292.43997586666666,292.97857823333334,52.0,72.0
1360,293.10173986666666,293.30762200000004,52.0,90.0
1361,292.88115186666664,293.37563663333333,67.0,86.0
1362,292.88115186666664,293.3940189666667,64.0,97.0
1363,293.3223278666667,293.5392394,59.0,88.0
1364,291.9987998666667,293.6899745333333,40.0,70.0
1365,293.76350386666667,294.45651783333335,65.0,95.0
1366,293.76350386666667,294.4601943,62.0,93.0
1367,293.76350386666667,294.465709,57.0,88.0
1368,294.20467986666665,294.77085573333335,50.0,61.0
1369,295.0870318666667,295.49879613333337,57.0,69.0
1370,294.6458558666667,295.5171784666667,62.0,93.0
1371,294.86644386666666,295.52636963333333,50.0,86.0
1372,293.76350386666667,295.52820786666666,38.0,69.0
1373,294.6458558666667,295.52820786666666,65.0,100.0
1374,295.52820786666666,296.2524718,67.0,95.0
1375,295.52820786666666,296.25431003333335,71.0,86.0
1376,295.52820786666666,296.2800453,62.0,95.0
1377,295.52820786666666,296.46570686666666,55.0,88.0
1378,295.52820786666666,296.4675451,43.0,63.0
1379,295.52820786666666,296.4748980333333,50.0,74.0
1380,296.8517358666667,297.28739716666666,62.0,96.0
1381,296.63114786666665,297.2910736333333,50.0,64.0
1382,296.63114786666665,297.2947501,55.0,78.0
1383,297.29291186666666,297.2947501,55.0,92.0
1384,296.4105598666667,297.30026480000004,67.0,99.0
1385,296.63114786666665,297.3057795,43.0,62.0
1386,296.4105598666667,297.3278383,71.0,99.0
1387,297.29291186666666,298.7543073666667,60.0,99.0
1388,297.29291186666666,298.78739556666665,64.0,95.0
1389,299.05761586666665,304.28922793333334,60.0,68.0
1390,299.05761586666665,304.30761026666664,64.0,64.0
1391,298.61643986666667,304.30944850000003,55.0,59.0
1392,297.73408786666664,304.33334553333333,43.0,41.0
1393,298.1752638666667,304.33334553333333,48.0,76.0
1394,297.29291186666666,304.3590808,36.0,78.0
1395,304.3517278666667,304.3590808,36.0,76.0
1396,304.3517278666667,305.51716780000004,55.0,88.0
1397,304.3517278666667,305.9620202666667,64.0,79.0
1398,304.3517278666667,305.9951084666667,60.0,85.0
1399,304.7929038666667,307.28371003333336,43.0,36.0
1400,305.23407986666666,307.30760706666666,48.0,77.0
1401,305.6752558666667,307.66606256666665,55.0,50.0
1402,306.1164318666667,307.8057683,60.0,50.0
1403,306.1164318666667,307.80760653333334,64.0,62.0
1404,307.8811358666667,309.1384874666667,60.0,76.0
1405,308.32231186666667,310.81311803333335,52.0,48.0
1406,307.8811358666667,310.9638531666667,45.0,64.0
1407,307.8811358666667,311.03554426666665,64.0,78.0
1408,309.2046638666667,311.0428972,60.0,38.0
1409,307.8811358666667,311.2009852666667,57.0,66.0
1410,311.85171986666666,318.454654,48.0,37.0
1411,318.29105123333335,318.454654,48.0,53.0
1412,311.41054386666667,318.46935986666665,60.0,66.0
1413,318.2873747666667,318.46935986666665,60.0,50.0
1414,311.41054386666667,318.50060983333333,41.0,67.0
1415,311.41054386666667,318.5042863,53.0,81.0
1416,311.41054386666667,318.59987443333335,57.0,67.0
1417,318.3756099666667,320.48038713333335,64.0,63.0
1418,318.43810990000003,320.5006077,67.0,63.0
1419,318.52266863333335,320.5722988,72.0,69.0
1420,318.2450954,322.7983993666667,43.0,53.0
1421,321.99876786666664,322.8075905333333,96.0,68.0
1422,321.928915,322.8149434666667,91.0,44.0
1423,321.8388415666667,322.82045816666664,88.0,56.0
1424,321.79472396666665,322.8443552,84.0,53.0
1425,318.12009553333337,322.8719287,36.0,46.0
