,start,end,pitch,velocity
0,13.615794300000001,14.086382033333335,60.0,97.0
1,14.056970300000001,14.507337466666668,63.0,100.0
2,14.498146300000002,15.821674300000002,65.0,97.0
3,15.821674300000002,16.2628503,63.0,93.0
4,16.2628503,16.704026300000002,65.0,92.0
5,16.704026300000002,17.147040533333335,72.0,102.0
6,17.1452023,17.5863783,70.0,107.0
7,17.5863783,18.027554300000002,68.0,107.0
8,18.027554300000002,18.5183626,65.0,96.0
9,18.4687303,20.6746103,63.0,97.0
10,20.6746103,21.11946276666667,60.0,99.0
11,21.1157863,21.560638766666667,63.0,92.0
12,21.556962300000002,22.8804903,65.0,93.0
13,22.8804903,23.334533933333336,63.0,93.0
14,23.3216663,23.762842300000003,65.0,82.0
15,23.762842300000003,24.25181236666667,72.0,97.0
16,24.2040183,24.65990016666667,70.0,102.0
17,24.645194300000004,25.176443733333336,68.0,97.0
18,25.086370300000002,27.7334263,70.0,92.0
19,27.7334263,28.198499333333334,68.0,102.0
20,28.174602300000004,28.661734133333336,70.0,102.0
21,28.615778300000002,29.939306300000002,72.0,97.0
22,29.939306300000002,30.37864406666667,70.0,97.0
23,30.3804823,30.823496533333337,70.0,97.0
24,30.821658300000003,31.893348333333336,68.0,99.0
25,31.704010300000004,32.17459803333334,65.0,93.0
26,32.145186300000006,33.4687143,68.0,107.0
27,33.4687143,33.9098903,70.0,107.0
28,33.9098903,34.135993,68.0,107.0
29,34.1304783,34.3510663,70.0,112.0
30,34.3510663,34.792242300000005,68.0,107.0
31,34.792242300000005,35.233418300000004,65.0,95.0
32,35.233418300000004,35.6745943,63.0,100.0
33,35.6745943,36.1157703,60.0,89.0
34,36.1157703,36.5569463,58.0,76.0
35,36.5569463,36.998122300000006,60.0,90.0
36,36.998122300000006,37.439298300000004,68.0,122.0
37,37.439298300000004,37.8804743,65.0,97.0
38,37.8804743,38.31981206666667,63.0,95.0
39,38.3216503,39.204002300000006,63.0,97.0
40,39.204002300000006,39.645178300000005,65.0,90.0
41,39.645178300000005,40.119442500000005,63.0,76.0
42,40.0863543,40.5275303,65.0,86.0
43,40.5275303,40.9687063,63.0,97.0
44,40.9687063,42.292234300000004,65.0,86.0
45,42.292234300000004,42.7499544,60.0,102.0
46,42.7334103,45.3804663,63.0,100.0
47,45.3804663,45.851054033333334,60.0,97.0
48,45.8216423,46.27200946666667,63.0,100.0
49,46.262818300000006,47.5863463,65.0,97.0
50,47.5863463,48.0275223,63.0,93.0
51,48.0275223,48.46869830000001,65.0,92.0
52,48.46869830000001,48.911712533333336,72.0,102.0
53,48.909874300000006,49.351050300000004,70.0,107.0
54,49.351050300000004,49.7922263,68.0,107.0
55,49.7922263,50.2830346,65.0,96.0
56,50.2334023,52.4392823,63.0,97.0
57,52.4392823,52.88413476666667,60.0,99.0
58,52.8804583,53.32531076666667,63.0,92.0
59,53.32163430000001,54.6451623,65.0,93.0
60,54.6451623,55.09920593333334,63.0,93.0
61,55.0863383,55.52751430000001,65.0,82.0
62,55.52751430000001,56.016484366666674,72.0,97.0
63,55.968690300000006,56.42457216666667,70.0,102.0
64,56.409866300000004,56.94111573333334,68.0,97.0
65,56.8510423,59.4980983,70.0,92.0
66,59.4980983,59.963171333333335,68.0,102.0
67,59.9392743,60.42640613333334,70.0,102.0
68,60.38045030000001,61.7039783,72.0,97.0
69,61.7039783,62.14331606666667,70.0,97.0
70,62.1451543,62.58816853333334,70.0,97.0
71,62.58633030000001,63.65802033333334,68.0,99.0
72,63.468682300000005,63.93927003333334,65.0,93.0
73,63.9098583,65.2333863,68.0,107.0
74,65.2333863,65.6745623,70.0,107.0
75,65.6745623,65.900665,68.0,107.0
76,65.89515030000001,66.1157383,70.0,112.0
77,66.1157383,66.5569143,68.0,107.0
78,66.5569143,66.9980903,65.0,95.0
79,66.9980903,67.4392663,63.0,100.0
80,67.4392663,67.8804423,60.0,89.0
81,67.8804423,68.32161830000001,58.0,76.0
82,68.32161830000001,68.76279430000001,60.0,90.0
83,68.76279430000001,69.20397030000001,68.0,122.0
84,69.20397030000001,69.64514630000001,65.0,97.0
85,69.64514630000001,70.08448406666668,63.0,95.0
86,70.0863223,70.9686743,63.0,97.0
87,70.9686743,71.4098503,65.0,90.0
88,71.4098503,71.88411450000001,63.0,76.0
89,71.8510263,72.2922023,65.0,86.0
90,72.2922023,72.73337830000001,63.0,97.0
91,72.73337830000001,74.05506806666668,65.0,86.0
92,74.05690630000001,74.2774943,65.0,99.0
93,74.2774943,74.52565580000001,68.0,89.0
94,74.49808230000001,77.1451383,70.0,117.0
95,77.1451383,77.58631430000001,68.0,122.0
96,77.58631430000001,78.02749030000001,70.0,107.0
97,78.02749030000001,78.90800406666668,72.0,102.0
98,78.90984230000001,79.3510183,72.0,107.0
99,79.3510183,79.79035606666667,70.0,112.0
100,79.7921943,80.6745463,70.0,127.0
101,80.6745463,81.1157223,68.0,127.0
102,81.1157223,81.5568983,70.0,127.0
103,81.5568983,82.0421919,72.0,117.0
104,81.99807430000001,82.43925030000001,77.0,107.0
105,82.43925030000001,82.88042630000001,72.0,102.0
106,82.88042630000001,83.31976406666668,70.0,127.0
107,83.32160230000001,84.2039543,70.0,122.0
108,84.2039543,84.6451303,65.0,100.0
109,84.6451303,85.0863063,67.0,102.0
110,85.0863063,85.96682006666667,68.0,112.0
111,85.9686583,86.4098343,68.0,122.0
112,86.4098343,86.85101030000001,72.0,100.0
113,86.85101030000001,87.73336230000001,70.0,112.0
114,87.73336230000001,88.17453830000001,65.0,97.0
115,88.17453830000001,88.61571430000001,67.0,102.0
116,88.61571430000001,88.83446406666667,68.0,122.0
117,88.8363023,89.05505206666668,68.0,122.0
118,89.0568903,89.27747830000001,68.0,117.0
119,89.27747830000001,89.4980663,65.0,90.0
120,89.4980663,89.9392423,68.0,112.0
121,89.9392423,90.3804183,72.0,112.0
122,90.3804183,91.26277030000001,70.0,117.0
123,91.26277030000001,91.70394630000001,68.0,122.0
124,91.70394630000001,92.14512230000001,70.0,127.0
125,92.14512230000001,93.02563606666668,72.0,127.0
126,93.02747430000001,93.46865030000001,72.0,127.0
127,93.46865030000001,93.90798806666668,70.0,117.0
128,93.9098263,94.7921783,70.0,127.0
129,94.7921783,95.2333543,68.0,127.0
130,95.2333543,95.6745303,70.0,127.0
131,95.6745303,96.11570630000001,72.0,117.0
132,96.11570630000001,96.55688230000001,77.0,127.0
133,96.55688230000001,96.99805830000001,72.0,107.0
134,96.99805830000001,97.43739606666668,70.0,107.0
135,97.43923430000001,98.3215863,70.0,107.0
136,98.3215863,98.7627623,65.0,102.0
137,98.7627623,99.2039383,67.0,127.0
138,99.2039383,99.86570230000001,68.0,127.0
139,99.86570230000001,100.0862903,65.0,99.0
140,100.0862903,100.52746630000001,68.0,127.0
141,100.52746630000001,100.96864230000001,72.0,127.0
142,100.96864230000001,102.29217030000001,70.0,117.0
143,102.29217030000001,102.5127583,65.0,95.0
144,102.5127583,102.7443757,67.0,100.0
145,102.73334630000001,103.17268406666668,68.0,112.0
146,103.1745223,103.61937476666668,68.0,127.0
147,103.6156983,104.0568743,67.0,99.0
148,104.0568743,105.38040230000001,65.0,99.0
149,105.38040230000001,105.86201943333334,63.0,102.0
150,105.82157830000001,106.13407796666668,65.0,102.0
151,106.0421663,106.70393030000001,67.0,93.0
152,106.70393030000001,110.29400000000001,65.0,100.0
153,137.1450743,137.61566203333334,60.0,97.0
154,137.58625030000002,138.03661746666668,63.0,100.0
155,138.0274263,139.3509543,65.0,97.0
156,139.3509543,139.7921303,63.0,93.0
157,139.7921303,140.2333063,65.0,92.0
158,140.2333063,140.67632053333335,72.0,102.0
159,140.67448230000002,141.1156583,70.0,107.0
160,141.1156583,141.55683430000002,68.0,107.0
161,141.55683430000002,142.04764260000002,65.0,96.0
162,141.9980103,144.2038903,63.0,97.0
163,144.2038903,144.6487427666667,60.0,99.0
164,144.64506630000002,145.08991876666667,63.0,92.0
165,145.0862423,146.40977030000002,65.0,93.0
166,146.40977030000002,146.86381393333335,63.0,93.0
167,146.8509463,147.29212230000002,65.0,82.0
168,147.29212230000002,147.78109236666668,72.0,97.0
169,147.7332983,148.1891801666667,70.0,102.0
170,148.1744743,148.70572373333334,68.0,97.0
171,148.6156503,151.26270630000002,70.0,92.0
172,151.26270630000002,151.72777933333333,68.0,102.0
173,151.7038823,152.19101413333334,70.0,102.0
174,152.14505830000002,153.4685863,72.0,97.0
175,153.4685863,153.90792406666668,70.0,97.0
176,153.9097623,154.35277653333335,70.0,97.0
177,154.35093830000002,155.42262833333334,68.0,99.0
178,155.23329030000002,155.70387803333335,65.0,93.0
179,155.6744663,156.99799430000002,68.0,107.0
180,156.99799430000002,157.4391703,70.0,107.0
181,157.4391703,157.665273,68.0,107.0
182,157.65975830000002,157.8803463,70.0,112.0
183,157.8803463,158.3215223,68.0,107.0
184,158.3215223,158.7626983,65.0,95.0
185,158.7626983,159.20387430000002,63.0,100.0
186,159.20387430000002,159.6450503,60.0,89.0
187,159.6450503,160.08622630000002,58.0,76.0
188,160.08622630000002,160.5274023,60.0,90.0
189,160.5274023,160.96857830000002,68.0,122.0
190,160.96857830000002,161.4097543,65.0,97.0
191,161.4097543,161.84909206666669,63.0,95.0
192,161.85093030000002,162.7332823,63.0,97.0
193,162.7332823,163.17445830000003,65.0,90.0
194,163.17445830000003,163.64872250000002,63.0,76.0
195,163.6156343,164.05681030000002,65.0,86.0
196,164.05681030000002,164.4979863,63.0,97.0
197,164.4979863,165.82151430000002,65.0,86.0
198,165.82151430000002,166.2792344,60.0,102.0
199,166.2626903,168.90974630000002,63.0,100.0
200,168.90974630000002,169.38033403333336,60.0,97.0
201,169.3509223,169.80128946666667,63.0,100.0
202,169.79209830000002,171.1156263,65.0,97.0
203,171.1156263,171.55680230000002,63.0,93.0
204,171.55680230000002,171.9979783,65.0,92.0
205,171.9979783,172.44099253333334,72.0,102.0
206,172.4391543,172.88033030000003,70.0,107.0
207,172.88033030000003,173.3215063,68.0,107.0
208,173.3215063,173.8123146,65.0,96.0
209,173.76268230000002,175.9685623,63.0,97.0
210,175.9685623,176.41341476666668,60.0,99.0
211,176.40973830000001,176.8545907666667,63.0,92.0
212,176.8509143,178.1744423,65.0,93.0
213,178.1744423,178.62848593333334,63.0,93.0
214,178.61561830000002,179.0567943,65.0,82.0
215,179.0567943,179.54576436666667,72.0,97.0
216,179.49797030000002,179.95385216666668,70.0,102.0
217,179.9391463,180.47039573333333,68.0,97.0
218,180.38032230000002,183.0273783,70.0,92.0
219,183.0273783,183.49245133333335,68.0,102.0
220,183.46855430000002,183.95568613333336,70.0,102.0
221,183.9097303,185.23325830000002,72.0,97.0
222,185.23325830000002,185.67259606666667,70.0,97.0
223,185.6744343,186.11744853333335,70.0,97.0
224,186.11561030000001,187.18730033333335,68.0,99.0
225,186.9979623,187.46855003333334,65.0,93.0
226,187.43913830000002,188.7626663,68.0,107.0
227,188.7626663,189.20384230000002,70.0,107.0
228,189.20384230000002,189.429945,68.0,107.0
229,189.4244303,189.6450183,70.0,112.0
230,189.6450183,190.08619430000002,68.0,107.0
231,190.08619430000002,190.5273703,65.0,95.0
232,190.5273703,190.9685463,63.0,100.0
233,190.9685463,191.40972230000003,60.0,89.0
234,191.40972230000003,191.8508983,58.0,76.0
235,191.8508983,192.29207430000002,60.0,90.0
236,192.29207430000002,192.7332503,68.0,122.0
237,192.7332503,193.17442630000002,65.0,97.0
238,193.17442630000002,193.61376406666668,63.0,95.0
239,193.6156023,194.4979543,63.0,97.0
240,194.4979543,194.93913030000002,65.0,90.0
241,194.93913030000002,195.4133945,63.0,76.0
242,195.3803063,195.8214823,65.0,86.0
243,195.8214823,196.26265830000003,63.0,97.0
244,196.26265830000003,197.58434806666668,65.0,86.0
245,197.5861863,197.80677430000003,65.0,99.0
246,197.80677430000003,198.0549358,68.0,89.0
247,198.02736230000002,200.6744183,70.0,117.0
248,200.6744183,201.11559430000003,68.0,122.0
249,201.11559430000003,201.5567703,70.0,107.0
250,201.5567703,202.43728406666668,72.0,102.0
251,202.4391223,202.88029830000002,72.0,107.0
252,202.88029830000002,203.31963606666667,70.0,112.0
253,203.3214743,204.2038263,70.0,127.0
254,204.2038263,204.64500230000002,68.0,127.0
255,204.64500230000002,205.08617830000003,70.0,127.0
256,205.08617830000003,205.5714719,72.0,117.0
257,205.5273543,205.96853030000003,77.0,107.0
258,205.96853030000003,206.4097063,72.0,102.0
259,206.4097063,206.8490440666667,70.0,127.0
260,206.85088230000002,207.73323430000002,70.0,122.0
261,207.73323430000002,208.1744103,65.0,100.0
262,208.1744103,208.61558630000002,67.0,102.0
263,208.61558630000002,209.49610006666668,68.0,112.0
264,209.49793830000002,209.93911430000003,68.0,122.0
265,209.93911430000003,210.3802903,72.0,100.0
266,210.3802903,211.2626423,70.0,112.0
267,211.2626423,211.70381830000002,65.0,97.0
268,211.70381830000002,212.1449943,67.0,102.0
269,212.1449943,212.36374406666667,68.0,122.0
270,212.36558230000003,212.5843320666667,68.0,122.0
271,212.58617030000002,212.8067583,68.0,117.0
272,212.8067583,213.0273463,65.0,90.0
273,213.0273463,213.46852230000002,68.0,112.0
274,213.46852230000002,213.9096983,72.0,112.0
275,213.9096983,214.79205030000003,70.0,117.0
276,214.79205030000003,215.2332263,68.0,122.0
277,215.2332263,215.67440230000003,70.0,127.0
278,215.67440230000003,216.5549160666667,72.0,127.0
279,216.55675430000002,216.9979303,72.0,127.0
280,216.9979303,217.4372680666667,70.0,117.0
281,217.43910630000002,218.32145830000002,70.0,127.0
282,218.32145830000002,218.76263430000003,68.0,127.0
283,218.76263430000003,219.20381030000001,70.0,127.0
284,219.20381030000001,219.64498630000003,72.0,117.0
285,219.64498630000003,220.0861623,77.0,127.0
286,220.0861623,220.52733830000003,72.0,107.0
287,220.52733830000003,220.96667606666668,70.0,107.0
288,220.9685143,221.8508663,70.0,107.0
289,221.8508663,222.29204230000002,65.0,102.0
290,222.29204230000002,222.7332183,67.0,127.0
291,222.7332183,223.3949823,68.0,127.0
292,223.3949823,223.61557030000003,65.0,99.0
293,223.61557030000003,224.05674630000001,68.0,127.0
294,224.05674630000001,224.49792230000003,72.0,127.0
295,224.49792230000003,225.8214503,70.0,117.0
296,225.8214503,226.04203830000003,65.0,95.0
297,226.04203830000003,226.2736557,67.0,100.0
298,226.26262630000002,226.70196406666668,68.0,112.0
299,226.7038023,227.14865476666668,68.0,127.0
300,227.14497830000002,227.5861543,67.0,99.0
301,227.5861543,228.90968230000001,65.0,99.0
302,228.90968230000001,229.39129943333336,63.0,102.0
303,229.35085830000003,229.6633579666667,65.0,102.0
304,229.57144630000002,230.23321030000002,67.0,93.0
305,230.23321030000002,233.82328,65.0,100.0
