,start,end,pitch,velocity
0,0.3805143,1.4227926000000002,68.0,66.0
1,0.3805143,1.4374984666666668,65.0,58.0
2,1.7040423000000002,2.2150711666666667,60.0,65.0
3,2.1452183000000002,2.8694822333333336,68.0,57.0
4,1.2628663,2.968746833333334,53.0,81.0
5,2.1452183000000002,3.0845555333333334,65.0,63.0
6,0.8216903000000001,3.207717166666667,48.0,58.0
7,0.3805143,3.2095554,41.0,66.0
8,3.4687463000000003,3.9742604666666668,65.0,50.0
9,3.0275703000000003,4.012863366666667,68.0,85.0
10,4.3510983,5.047788733333333,49.0,64.0
11,4.792274300000001,5.704038033333334,53.0,79.0
12,5.2334503,6.176464,49.0,45.0
13,5.674626300000001,6.4650666333333335,61.0,61.0
14,3.9099223000000003,6.534919500000001,37.0,82.0
15,5.674626300000001,6.613963533333334,56.0,71.0
16,6.9981543,7.411756800000001,56.0,60.0
17,6.556978300000001,7.4264626666666675,61.0,76.0
18,8.3216823,10.0588128,53.0,78.0
19,9.2040343,10.093739233333334,65.0,89.0
20,7.8805063,10.169106800000002,48.0,64.0
21,7.439330300000001,10.253665533333335,41.0,72.0
22,10.086386300000001,10.711385633333334,68.0,92.0
23,10.527562300000001,10.976091233333333,65.0,50.0
24,8.762858300000001,11.084547,60.0,75.0
25,11.4099143,12.079031233333334,48.0,71.0
26,12.7334423,13.501823833333335,63.0,74.0
27,11.851090300000001,13.687485400000002,55.0,67.0
28,10.9687383,13.738955933333335,36.0,72.0
29,12.292266300000001,13.852926400000001,48.0,51.0
30,13.615794300000001,14.132337866666667,63.0,92.0
31,14.2775583,14.448514000000001,63.0,17.0
32,13.615794300000001,14.498146300000002,60.0,72.0
33,15.821674300000002,16.466894200000002,53.0,68.0
34,15.380498300000001,16.9135849,68.0,63.0
35,15.380498300000001,16.930129,65.0,65.0
36,16.704026300000002,17.2499816,53.0,52.0
37,14.498146300000002,17.51836366666667,41.0,76.0
38,14.9393223,17.536746,48.0,66.0
39,17.5863783,18.06431896666667,65.0,66.0
40,17.1452023,18.069833666666668,68.0,92.0
41,16.2628503,18.14703946666667,60.0,73.0
42,18.4687303,19.13968546666667,48.0,63.0
43,18.909906300000003,19.847405300000002,55.0,70.0
44,19.3510823,20.15990496666667,48.0,60.0
45,18.027554300000002,20.70034556666667,36.0,75.0
46,19.7922583,20.770198433333334,60.0,69.0
47,21.1157863,21.56615346666667,60.0,61.0
48,20.6746103,21.5679917,55.0,82.0
49,19.7922583,21.617624000000003,63.0,66.0
50,22.439314300000003,23.007328400000002,53.0,79.0
51,22.8804903,23.40806326666667,60.0,68.0
52,21.9981383,23.5587984,48.0,59.0
53,21.556962300000002,24.183797733333336,41.0,71.0
54,23.3216663,24.299606433333334,65.0,78.0
55,24.645194300000004,25.07350266666667,65.0,48.0
56,23.3216663,25.1194585,68.0,88.0
57,24.2040183,25.121296733333335,60.0,78.0
58,25.5275463,26.2665161,46.0,59.0
59,26.409898300000002,27.211368033333336,46.0,67.0
60,26.8510743,27.575338233333337,61.0,72.0
61,26.8510743,27.624970533333336,58.0,61.0
62,25.086370300000002,27.80327916666667,34.0,70.0
63,27.512838300000002,27.900705533333337,46.0,22.0
64,28.174602300000004,28.68563116666667,58.0,64.0
65,25.968722300000003,28.69666056666667,53.0,62.0
66,27.7334263,28.704013500000002,61.0,92.0
67,29.498130300000003,29.94298276666667,56.0,71.0
68,29.939306300000002,30.751805433333335,53.0,60.0
69,30.3804823,31.09555506666667,65.0,67.0
70,30.3804823,31.10106976666667,68.0,66.0
71,29.0569543,31.35474596666667,48.0,59.0
72,28.615778300000002,31.384157700000003,41.0,75.0
73,31.704010300000004,32.15989216666667,65.0,38.0
74,30.3804823,32.2995979,60.0,55.0
75,31.2628343,32.44481833333334,68.0,74.0
76,33.9098903,34.56797783333334,65.0,67.0
77,33.9098903,34.58636016666667,68.0,64.0
78,33.4687143,34.86025693333334,44.0,39.0
79,32.145186300000006,34.8639334,37.0,79.0
80,32.586362300000005,34.94849213333334,49.0,82.0
81,33.0275383,35.08635963333334,61.0,92.0
82,35.233418300000004,35.6745943,61.0,58.0
83,34.792242300000005,35.6745943,68.0,89.0
84,36.5569463,36.966872333333335,53.0,72.0
85,36.1157703,37.06797516666667,48.0,66.0
86,35.6745943,37.11576923333334,41.0,88.0
87,37.439298300000004,37.8529008,67.0,69.0
88,37.439298300000004,37.874959600000004,63.0,69.0
89,36.998122300000006,38.053268233333334,60.0,77.0
90,37.439298300000004,38.6249588,36.0,70.0
91,37.8804743,38.698488133333335,48.0,54.0
92,38.3216503,39.259149300000004,63.0,97.0
93,38.7628263,39.27385516666667,60.0,59.0
94,39.645178300000005,40.30878053333333,49.0,57.0
95,40.0863543,41.086353233333334,53.0,83.0
96,40.9687063,41.92091116666667,56.0,72.0
97,39.204002300000006,41.9944405,37.0,93.0
98,40.5275303,42.15069033333334,49.0,50.0
99,41.851058300000005,42.70399856666667,53.0,67.0
100,42.292234300000004,42.729733833333334,56.0,66.0
101,40.9687063,42.7334103,61.0,73.0
102,43.1745863,43.78487976666667,51.0,64.0
103,43.6157623,43.91539433333334,55.0,72.0
104,44.056938300000006,44.8124522,51.0,45.0
105,44.498114300000005,44.94296676666667,67.0,77.0
106,44.498114300000005,44.9944373,63.0,69.0
107,44.498114300000005,45.53303966666667,58.0,77.0
108,42.7334103,45.61024546666667,39.0,82.0
109,44.9392903,45.707671833333336,51.0,66.0
110,45.3804663,46.181936033333336,67.0,78.0
111,45.8216423,46.237083033333334,63.0,69.0
112,47.145170300000004,47.531199300000004,53.0,65.0
113,47.145170300000004,47.62862566666667,65.0,81.0
114,46.262818300000006,47.89700773333334,41.0,88.0
115,46.703994300000005,48.056934033333334,48.0,82.0
116,48.46869830000001,49.191124,48.0,70.0
117,48.0275223,49.27568273333334,41.0,86.0
118,48.909874300000006,49.42090316666667,65.0,86.0
119,47.5863463,49.50362366666667,68.0,85.0
120,49.351050300000004,49.85472623333334,60.0,79.0
121,50.6745783,51.17457776666667,60.0,93.0
122,49.7922263,51.23891593333334,36.0,75.0
123,50.2334023,51.60472436666667,48.0,68.0
124,51.115754300000006,51.84737116666667,63.0,100.0
125,51.9981063,52.5716351,48.0,57.0
126,51.556930300000005,52.59185566666667,36.0,72.0
127,52.4392823,53.28486963333334,60.0,86.0
128,52.4392823,53.30325196666667,63.0,107.0
129,52.8804583,53.31244313333334,55.0,78.0
130,53.32163430000001,54.91722083333334,41.0,85.0
131,53.762810300000005,55.106558866666674,48.0,67.0
132,54.6451623,55.55324956666667,65.0,69.0
133,54.203986300000004,55.810602233333334,68.0,127.0
134,55.52751430000001,56.1617048,48.0,82.0
135,55.0863383,56.2058224,41.0,93.0
136,55.968690300000006,56.847365833333335,68.0,117.0
137,56.409866300000004,56.884130500000005,65.0,89.0
138,57.2922183,57.89148236666667,46.0,62.0
139,57.73339430000001,58.174570300000006,49.0,100.0
140,56.8510423,58.615746300000005,34.0,71.0
141,58.174570300000006,58.8473637,46.0,58.0
142,58.615746300000005,59.224201533333336,58.0,83.0
143,58.615746300000005,59.2389074,61.0,86.0
144,59.056922300000004,59.77199506666667,46.0,73.0
145,59.4980983,60.347362100000005,65.0,69.0
146,58.615746300000005,60.38045030000001,34.0,71.0
147,59.9392743,60.38228853333334,58.0,85.0
148,60.821626300000005,61.49809616666667,48.0,66.0
149,61.262802300000004,61.65802246666667,53.0,77.0
150,60.38045030000001,62.1451543,41.0,75.0
151,61.7039783,62.31243353333334,48.0,62.0
152,62.1451543,62.646992000000004,65.0,78.0
153,62.1451543,62.76096246666667,60.0,79.0
154,62.58633030000001,63.10471210000001,48.0,55.0
155,63.027506300000006,63.3473589,60.0,23.0
156,63.468682300000005,63.83632896666667,65.0,71.0
157,63.027506300000006,63.84368190000001,68.0,102.0
158,63.468682300000005,63.8657407,60.0,27.0
159,62.1451543,63.9098583,41.0,75.0
160,64.35103430000001,64.9521366,49.0,67.0
161,63.9098583,65.3712538,37.0,93.0
162,65.6745623,66.13595886666667,61.0,39.0
163,65.2333863,66.48889966666667,53.0,74.0
164,64.79221030000001,66.507282,56.0,99.0
165,66.1157383,66.79588463333334,49.0,75.0
166,65.6745623,67.27750176666667,37.0,78.0
167,66.5569143,67.3786046,61.0,117.0
168,66.9980903,67.41353103333334,53.0,68.0
169,66.5569143,67.41353103333334,56.0,52.0
170,67.8804423,68.75544136666667,48.0,64.0
171,67.4392663,68.78117663333335,41.0,73.0
172,68.32161830000001,69.2480879,65.0,72.0
173,68.32161830000001,69.2480879,68.0,89.0
174,68.76279430000001,69.26830846666667,60.0,86.0
175,69.64514630000001,70.3013956,48.0,72.0
176,69.20397030000001,70.7370569,36.0,86.0
177,70.5274983,70.93742433333334,51.0,82.0
178,70.0863223,70.94661550000001,55.0,82.0
179,71.4098503,72.06977606666668,49.0,82.0
180,70.9686743,72.60470196666667,37.0,88.0
181,72.2922023,72.83999583333333,49.0,45.0
182,71.8510263,73.49624513333333,63.0,78.0
183,71.8510263,73.5054363,56.0,89.0
184,73.17455430000001,73.88411236666667,49.0,76.0
185,73.61573030000001,73.88778883333335,56.0,79.0
186,72.73337830000001,74.31242073333334,37.0,97.0
187,74.05690630000001,74.50175876666667,56.0,83.0
188,73.61573030000001,74.503597,63.0,112.0
189,74.9392583,75.46131656666667,51.0,81.0
190,75.3804343,75.79036033333334,55.0,95.0
191,74.49808230000001,75.937419,39.0,96.0
192,75.8216103,76.48337430000001,51.0,88.0
193,76.2627863,76.73888873333334,67.0,95.0
194,76.2627863,76.76646223333334,63.0,112.0
195,76.2627863,76.79403573333335,58.0,112.0
196,76.7039623,77.37124100000001,51.0,112.0
197,77.1451383,77.91351983333334,67.0,107.0
198,77.1451383,77.92087276666668,63.0,127.0
199,77.58631430000001,77.9833727,58.0,112.0
200,76.2627863,78.02749030000001,39.0,96.0
201,78.02749030000001,78.25543123333334,68.0,100.0
202,78.02749030000001,78.3583723,72.0,93.0
203,78.6892543,78.95763636666668,68.0,82.0
204,78.2480783,78.9649893,56.0,93.0
205,78.46866630000001,79.03668040000001,63.0,97.0
206,79.1304303,79.2572684,56.0,89.0
207,78.02749030000001,79.30138600000001,44.0,102.0
208,79.5716063,79.79403253333334,68.0,85.0
209,78.90984230000001,79.79587076666667,72.0,100.0
210,79.3510183,79.80506193333333,63.0,100.0
211,80.01278230000001,80.33998783333334,46.0,89.0
212,80.45395830000001,80.73153153333334,46.0,72.0
213,80.2333703,80.80506086666668,53.0,96.0
214,79.7921943,81.02197240000001,34.0,85.0
215,80.89513430000001,81.10285466666667,46.0,88.0
216,81.1157223,81.37858966666667,58.0,107.0
217,81.33631030000001,81.41167786666668,53.0,90.0
218,80.6745463,81.41351610000001,61.0,112.0
219,81.7774863,82.08447126666667,56.0,78.0
220,81.99807430000001,82.38042683333335,60.0,99.0
221,82.2186623,82.51277963333334,56.0,95.0
222,82.6598383,82.76461760000001,56.0,90.0
223,81.5568983,82.80689696666667,44.0,97.0
224,82.43925030000001,82.92638213333333,63.0,117.0
225,82.43925030000001,83.31424936666667,68.0,112.0
226,82.88042630000001,83.3160876,60.0,97.0
227,83.1010143,83.32160230000001,63.0,102.0
228,83.5421903,83.82160176666667,51.0,88.0
229,83.76277830000001,84.19476313333334,55.0,99.0
230,83.9833663,84.25542483333334,51.0,83.0
231,83.32160230000001,84.5293216,39.0,93.0
232,84.42454230000001,84.57527743333334,51.0,90.0
233,84.2039543,84.68924790000001,58.0,96.0
234,84.6451303,84.97968876666667,55.0,93.0
235,84.2039543,85.0697622,63.0,117.0
236,84.86571830000001,85.08262983333334,58.0,107.0
237,85.5274823,86.04218763333334,60.0,78.0
238,85.74807030000001,86.07711406666667,53.0,88.0
239,86.18924630000001,86.3271138,53.0,85.0
240,85.30689430000001,86.36571670000001,48.0,65.0
241,85.0863063,86.37858433333334,41.0,82.0
242,85.9686583,86.48520186666667,65.0,99.0
243,86.6304223,86.87674556666667,65.0,85.0
244,85.9686583,86.89696613333334,68.0,99.0
245,86.4098343,86.90431906666667,60.0,102.0
246,87.0715983,87.39328913333334,46.0,86.0
247,87.29218630000001,87.64328886666668,58.0,99.0
248,87.5127743,87.82343573333334,46.0,89.0
249,86.85101030000001,88.1469648,34.0,93.0
250,87.9539503,88.14880303333334,46.0,79.0
251,87.73336230000001,88.21681766666667,58.0,83.0
252,88.17453830000001,88.5881408,53.0,95.0
253,88.3951263,88.61387606666668,58.0,117.0
254,87.73336230000001,88.61755253333334,61.0,102.0
255,88.8363023,89.14880196666667,49.0,97.0
256,89.0568903,89.40431640000001,61.0,122.0
257,89.27747830000001,89.5697574,49.0,95.0
258,88.61571430000001,89.86387473333335,37.0,92.0
259,89.4980663,89.94843346666667,65.0,92.0
260,89.4980663,90.09916860000001,68.0,102.0
261,89.71865430000001,90.25725666666668,49.0,99.0
262,90.15983030000001,90.33262423333333,65.0,70.0
263,90.15983030000001,90.35468303333334,68.0,77.0
264,89.9392423,90.37490360000001,61.0,100.0
265,90.60100630000001,90.91902066666667,51.0,92.0
266,90.8215943,91.25909383333334,55.0,100.0
267,91.04218230000001,91.3289467,51.0,96.0
268,91.4833583,91.71497570000001,51.0,100.0
269,90.3804183,91.72416686666668,39.0,100.0
270,91.26277030000001,91.75725506666667,58.0,100.0
271,91.70394630000001,92.03115183333334,55.0,102.0
272,91.9245343,92.13041643333334,58.0,100.0
273,91.26277030000001,92.17453403333334,63.0,122.0
274,92.14512230000001,92.37306323333334,68.0,100.0
275,92.14512230000001,92.47600430000001,72.0,93.0
276,92.8068863,93.07526836666668,68.0,82.0
277,92.3657103,93.08262130000001,56.0,93.0
278,92.58629830000001,93.15431240000001,63.0,97.0
279,93.2480623,93.3749004,56.0,89.0
280,92.14512230000001,93.41901800000001,44.0,102.0
281,93.68923830000001,93.91166453333334,68.0,85.0
282,93.02747430000001,93.91350276666667,72.0,100.0
283,93.46865030000001,93.92269393333333,63.0,100.0
284,94.13041430000001,94.45761983333334,46.0,89.0
285,94.57159030000001,94.84916353333334,46.0,72.0
286,94.3510023,94.92269286666668,53.0,96.0
287,93.9098263,95.13960440000001,34.0,85.0
288,95.01276630000001,95.22048666666667,46.0,88.0
289,95.2333543,95.49622166666667,58.0,107.0
290,95.45394230000001,95.52930986666668,53.0,90.0
291,94.7921783,95.53114810000001,61.0,112.0
292,95.89511830000001,96.20210326666667,56.0,78.0
293,96.11570630000001,96.49805883333335,60.0,99.0
294,96.3362943,96.63041163333334,56.0,95.0
295,96.7774703,96.88224960000001,56.0,90.0
296,95.6745303,96.92452896666667,44.0,97.0
297,96.55688230000001,97.04401413333333,63.0,117.0
298,96.55688230000001,97.43188136666667,68.0,112.0
299,96.99805830000001,97.4337196,60.0,97.0
300,97.2186463,97.43923430000001,63.0,102.0
301,97.6598223,97.93923376666667,51.0,88.0
302,97.88041030000001,98.31239513333334,55.0,99.0
303,98.1009983,98.37305683333334,51.0,83.0
304,97.43923430000001,98.6469536,39.0,93.0
305,98.54217430000001,98.69290943333334,51.0,90.0
306,98.3215863,98.80687990000001,58.0,96.0
307,98.7627623,99.09732076666667,55.0,93.0
308,98.3215863,99.18739420000001,63.0,117.0
309,98.98335030000001,99.20026183333334,58.0,107.0
310,99.6451143,100.15981963333334,60.0,78.0
311,99.86570230000001,100.19474606666667,53.0,88.0
312,100.30687830000001,100.4447458,53.0,85.0
313,99.42452630000001,100.48334870000001,48.0,65.0
314,99.2039383,100.49621633333334,41.0,82.0
315,100.0862903,100.60283386666667,65.0,99.0
316,100.7480543,100.99437756666667,65.0,85.0
317,100.0862903,101.01459813333334,68.0,99.0
318,100.52746630000001,101.02195106666667,60.0,102.0
319,101.1892303,101.51092113333334,46.0,86.0
320,101.40981830000001,101.76092086666668,58.0,99.0
321,101.6304063,101.94106773333334,46.0,89.0
322,100.96864230000001,102.2645968,34.0,93.0
323,102.0715823,102.26643503333334,46.0,79.0
324,101.85099430000001,102.33444966666667,58.0,83.0
325,102.29217030000001,102.7057728,53.0,95.0
326,102.5127583,102.73150806666668,58.0,117.0
327,101.85099430000001,102.73518453333334,61.0,102.0
328,102.95393430000001,103.26643396666667,49.0,97.0
329,103.1745223,103.52194840000001,61.0,122.0
330,103.39511030000001,103.68738940000001,49.0,95.0
331,102.73334630000001,103.98150673333335,37.0,92.0
332,103.6156983,104.06606546666667,65.0,92.0
333,103.6156983,104.21680060000001,68.0,102.0
334,103.83628630000001,104.37488866666668,49.0,99.0
335,104.27746230000001,104.45025623333333,65.0,70.0
336,104.27746230000001,104.47231503333335,68.0,77.0
337,104.0568743,104.49253560000001,61.0,100.0
338,104.71863830000001,105.03665266666667,51.0,92.0
339,104.9392263,105.37672583333334,55.0,100.0
340,105.15981430000001,105.4465787,51.0,96.0
341,105.6009903,105.83260770000001,51.0,100.0
342,104.4980503,105.84179886666668,39.0,100.0
343,105.38040230000001,105.87488706666667,58.0,100.0
344,105.82157830000001,106.14878383333334,55.0,102.0
345,106.0421663,106.24804843333334,58.0,100.0
346,105.38040230000001,106.29216603333334,63.0,122.0
347,106.9245183,107.16900333333334,60.0,89.0
348,106.70393030000001,107.1892239,53.0,89.0
349,107.3656943,107.55503233333334,53.0,73.0
350,107.14510630000001,107.56789996666667,65.0,76.0
351,106.26275430000001,107.84363496666667,41.0,89.0
352,106.4833423,108.04584063333334,48.0,69.0
353,107.58628230000001,108.57525183333334,60.0,70.0
354,107.14510630000001,108.62856060000001,68.0,88.0
355,107.80687030000001,108.64694293333334,65.0,81.0
356,108.4686343,108.78664866666668,53.0,75.0
357,108.68922230000001,109.06973660000001,60.0,44.0
358,108.0274583,109.34547160000001,41.0,68.0
359,108.24804630000001,109.40245683333335,48.0,66.0
360,109.57157430000001,109.63407423333334,48.0,26.0
361,108.9098103,109.80686816666667,68.0,112.0
362,109.3509863,109.85466223333334,60.0,88.0
363,110.23333830000001,110.74804363333334,53.0,95.0
364,110.4539263,110.93554343333334,60.0,77.0
365,110.8951023,111.0715727,53.0,90.0
366,109.79216230000002,111.37855766666668,41.0,93.0
367,110.01275030000001,111.59546920000001,48.0,81.0
368,111.11569030000001,111.79767486666668,65.0,100.0
369,110.67451430000001,111.82341013333334,68.0,127.0
370,111.3362783,112.02193933333334,60.0,88.0
371,111.99804230000001,112.28113023333334,53.0,90.0
372,111.7774543,112.49988,48.0,82.0
373,112.21863030000002,112.70024743333335,60.0,85.0
374,111.55686630000001,112.73333563333334,41.0,92.0
375,112.65980630000001,112.76826206666668,48.0,82.0
376,112.43921830000001,113.33627616666668,68.0,127.0
377,112.8803943,113.34546733333335,65.0,89.0
378,113.10098230000001,113.38039376666667,60.0,99.0
379,113.98333430000001,114.1818635,55.0,88.0
380,113.7627463,114.24620166666668,48.0,92.0
381,114.42451030000001,114.59914246666668,48.0,93.0
382,114.2039223,114.66715710000001,60.0,89.0
383,113.3215703,114.926348,36.0,78.0
384,113.54215830000001,115.13958306666667,43.0,72.0
385,114.2039223,115.17267126666667,63.0,102.0
386,114.86568630000001,115.38958280000001,60.0,83.0
387,114.64509830000002,115.43921510000001,55.0,92.0
388,115.52745030000001,115.96127336666667,48.0,88.0
389,115.7480383,115.96862630000001,55.0,85.0
390,115.08627430000001,116.24803776666667,36.0,88.0
391,115.3068623,116.30686123333334,43.0,79.0
392,115.96862630000001,116.4539199,60.0,96.0
393,116.1892143,116.49987573333334,48.0,76.0
394,116.40980230000001,116.74252253333334,55.0,100.0
395,116.6303903,116.88958120000001,60.0,97.0
396,115.96862630000001,116.90796353333334,63.0,112.0
397,117.2921543,117.74803616666668,53.0,96.0
398,117.51274230000001,117.78480083333334,60.0,88.0
399,117.95391830000001,118.12855046666668,53.0,95.0
400,117.7333303,118.21494743333334,65.0,93.0
401,116.85097830000001,118.43737366666667,41.0,85.0
402,117.07156630000001,118.6432558,48.0,73.0
403,117.7333303,118.8693585,68.0,99.0
404,118.39509430000001,118.91715256666667,65.0,89.0
405,118.1745063,119.11935823333334,60.0,100.0
406,119.05685830000002,119.3105345,53.0,92.0
407,118.83627030000001,119.61200476666667,48.0,71.0
408,119.27744630000001,119.80501926666668,60.0,92.0
409,119.7186223,119.82523983333334,48.0,81.0
410,118.6156823,119.8289163,41.0,66.0
411,119.93921030000001,120.22965116666667,65.0,97.0
412,119.49803430000001,120.25538643333334,68.0,127.0
413,120.1597983,120.36935690000001,60.0,92.0
414,120.6009743,120.87119460000001,51.0,73.0
415,120.82156230000001,121.22781186666667,55.0,92.0
416,121.0421503,121.31237060000001,51.0,88.0
417,121.26273830000001,121.7370025,58.0,89.0
418,120.38038630000001,121.86751706666668,39.0,90.0
419,121.92450230000001,122.13222266666668,58.0,93.0
420,121.70391430000001,122.14325206666668,55.0,89.0
421,121.26273830000001,122.16163440000001,63.0,102.0
422,121.48332630000002,122.20207553333334,51.0,88.0
423,122.36567830000001,122.67817796666668,51.0,100.0
424,122.5862663,122.87854540000001,63.0,99.0
425,122.80685430000001,123.08258930000001,51.0,88.0
426,123.0274423,123.35280960000001,70.0,122.0
427,123.0274423,123.3583243,67.0,112.0
428,122.1450903,123.46678006666667,39.0,97.0
429,123.24803030000001,123.77376503333335,51.0,112.0
430,123.4686183,123.87486786666668,67.0,97.0
431,123.68920630000001,123.90244136666668,63.0,102.0
432,123.4686183,123.92266193333334,70.0,102.0
433,124.13038230000001,124.43736726666667,56.0,112.0
434,124.35097030000001,124.71494050000001,60.0,107.0
435,124.5715583,124.85280800000001,56.0,95.0
436,123.90979430000002,125.15244003333335,44.0,112.0
437,125.0127343,125.20391056666668,56.0,122.0
438,124.79214630000001,125.24618993333334,68.0,127.0
439,124.79214630000001,125.2664105,63.0,127.0
440,125.23332230000001,125.51457200000002,60.0,112.0
441,125.4539103,125.69839533333334,63.0,127.0
442,125.4539103,125.72045413333335,68.0,127.0
443,126.33626230000002,126.47229156666667,70.0,63.0
444,126.33626230000002,126.47596803333334,65.0,69.0
445,126.11567430000001,126.48699743333334,61.0,85.0
446,125.8950863,126.66162960000001,58.0,107.0
447,126.55685030000001,126.76640890000002,61.0,99.0
448,126.77743830000001,126.92817343333334,58.0,112.0
449,125.67449830000001,127.00354100000001,46.0,95.0
450,126.55685030000001,127.07890856666667,70.0,127.0
451,126.55685030000001,127.14876143333335,65.0,100.0
452,127.21861430000001,127.38037883333334,65.0,73.0
453,127.21861430000001,127.40427586666668,70.0,122.0
454,126.9980263,127.4502317,61.0,100.0
455,127.65979030000001,127.97412820000001,56.0,102.0
456,127.8803783,128.2278044,60.0,102.0
457,128.1009663,128.40059833333333,56.0,102.0
458,128.54214230000002,128.65059806666667,56.0,102.0
459,127.4392023,128.68184803333335,44.0,83.0
460,128.3215543,128.8123626,63.0,122.0
461,128.76273030000002,129.13221520000002,60.0,112.0
462,128.3215543,129.1763328,68.0,122.0
463,128.9833183,129.18736220000002,63.0,122.0
464,129.42449430000002,129.71861163333335,51.0,92.0
465,129.6450823,129.98883193333333,55.0,92.0
466,129.8656703,130.15611116666668,51.0,97.0
467,130.30684630000002,130.42265500000002,51.0,99.0
468,129.2039063,130.4557432,39.0,97.0
469,130.0862583,130.55133133333334,58.0,127.0
470,130.5274343,130.87118393333336,55.0,100.0
471,130.0862583,130.9410368,63.0,127.0
472,130.7480223,130.97044853333335,58.0,122.0
473,131.18919830000002,131.46860976666667,49.0,92.0
474,131.4097863,131.75905063333335,53.0,95.0
475,131.6303743,131.91162400000002,49.0,97.0
476,131.85096230000002,132.31971180000002,56.0,112.0
477,131.85096230000002,132.47596163333336,61.0,112.0
478,130.96861030000002,132.5936085666667,37.0,112.0
479,132.5127263,132.6781673,61.0,47.0
480,132.0715503,132.79397600000001,49.0,96.0
481,132.2921383,133.04397573333335,53.0,95.0
482,132.5127263,133.1138286,56.0,102.0
483,133.39507830000002,133.56787223333333,56.0,100.0
484,133.1744903,133.6432398,53.0,82.0
485,132.9539023,133.65243096666669,49.0,97.0
486,132.73331430000002,134.05500406666667,37.0,95.0
487,133.61566630000002,134.0678717,56.0,76.0
488,133.8362543,134.282945,49.0,107.0
489,134.27743030000002,134.4649301,56.0,122.0
490,133.61566630000002,134.47779773333335,61.0,122.0
491,134.0568423,134.50169476666667,53.0,96.0
492,134.7186063,135.0200765666667,51.0,107.0
493,134.9391943,135.42264966666667,55.0,92.0
494,135.15978230000002,135.44838493333333,51.0,92.0
495,134.4980183,135.82889923333335,39.0,93.0
496,135.3803703,135.83992863333336,58.0,89.0
497,135.3803703,135.86382566666668,63.0,102.0
498,135.6009583,136.33808986666668,51.0,99.0
499,136.2627223,137.86382353333335,63.0,102.0
500,136.2627223,138.0274263,39.0,99.0
501,135.82154630000002,138.0274263,55.0,95.0
502,136.04213430000001,138.0274263,58.0,97.0
503,139.3509543,139.9961742,53.0,68.0
504,138.9097783,140.44286490000002,68.0,63.0
505,138.9097783,140.45940900000002,65.0,65.0
506,140.2333063,140.7792616,53.0,52.0
507,138.0274263,141.0476436666667,41.0,76.0
508,138.46860230000001,141.06602600000002,48.0,66.0
509,141.1156583,141.5935989666667,65.0,66.0
510,140.67448230000002,141.59911366666668,68.0,92.0
511,139.7921303,141.67631946666668,60.0,73.0
512,141.9980103,142.6689654666667,48.0,63.0
513,142.43918630000002,143.37668530000002,55.0,70.0
514,142.8803623,143.6891849666667,48.0,60.0
515,141.55683430000002,144.22962556666667,36.0,75.0
516,143.32153830000001,144.29947843333335,60.0,69.0
517,144.64506630000002,145.0954334666667,60.0,61.0
518,144.2038903,145.09727170000002,55.0,82.0
519,143.32153830000001,145.146904,63.0,66.0
520,145.9685943,146.5366084,53.0,79.0
521,146.40977030000002,146.9373432666667,60.0,68.0
522,145.52741830000002,147.0880784,48.0,59.0
523,145.0862423,147.71307773333334,41.0,71.0
524,146.8509463,147.82888643333334,65.0,78.0
525,148.1744743,148.60278266666668,65.0,48.0
526,146.8509463,148.6487385,68.0,88.0
527,147.7332983,148.65057673333334,60.0,78.0
528,149.0568263,149.79579610000002,46.0,59.0
529,149.9391783,150.74064803333334,46.0,67.0
530,150.38035430000002,151.10461823333335,61.0,72.0
531,150.38035430000002,151.15425053333334,58.0,61.0
532,148.6156503,151.33255916666667,34.0,70.0
533,151.0421183,151.42998553333334,46.0,22.0
534,151.7038823,152.21491116666667,58.0,64.0
535,149.49800230000002,152.22594056666668,53.0,62.0
536,151.26270630000002,152.2332935,61.0,92.0
537,153.0274103,153.4722627666667,56.0,71.0
538,153.4685863,154.28108543333335,53.0,60.0
539,153.9097623,154.6248350666667,65.0,67.0
540,153.9097623,154.63034976666668,68.0,66.0
541,152.5862343,154.88402596666668,48.0,59.0
542,152.14505830000002,154.9134377,41.0,75.0
543,155.23329030000002,155.68917216666668,65.0,38.0
544,153.9097623,155.8288779,60.0,55.0
545,154.7921143,155.97409833333336,68.0,74.0
546,157.4391703,158.09725783333334,65.0,67.0
547,157.4391703,158.11564016666668,68.0,64.0
548,156.99799430000002,158.38953693333335,44.0,39.0
549,155.6744663,158.3932134,37.0,79.0
550,156.11564230000002,158.47777213333333,49.0,82.0
551,156.5568183,158.61563963333336,61.0,92.0
552,158.7626983,159.20387430000002,61.0,58.0
553,158.3215223,159.20387430000002,68.0,89.0
554,160.08622630000002,160.49615233333336,53.0,72.0
555,159.6450503,160.59725516666668,48.0,66.0
556,159.20387430000002,160.64504923333334,41.0,88.0
557,160.96857830000002,161.38218080000001,67.0,69.0
558,160.96857830000002,161.4042396,63.0,69.0
559,160.5274023,161.58254823333334,60.0,77.0
560,160.96857830000002,162.1542388,36.0,70.0
561,161.4097543,162.22776813333334,48.0,54.0
562,161.85093030000002,162.78842930000002,63.0,97.0
563,162.2921063,162.8031351666667,60.0,59.0
564,163.17445830000003,163.83806053333333,49.0,57.0
565,163.6156343,164.61563323333334,53.0,83.0
566,164.4979863,165.45019116666668,56.0,72.0
567,162.7332823,165.52372050000002,37.0,93.0
568,164.05681030000002,165.67997033333336,49.0,50.0
569,165.3803383,166.23327856666668,53.0,67.0
570,165.82151430000002,166.25901383333334,56.0,66.0
571,164.4979863,166.2626903,61.0,73.0
572,166.70386630000002,167.31415976666668,51.0,64.0
573,167.1450423,167.44467433333335,55.0,72.0
574,167.5862183,168.34173220000002,51.0,45.0
575,168.02739430000003,168.47224676666667,67.0,77.0
576,168.02739430000003,168.52371730000002,63.0,69.0
577,168.02739430000003,169.06231966666667,58.0,77.0
578,166.2626903,169.13952546666667,39.0,82.0
579,168.4685703,169.23695183333334,51.0,66.0
580,168.90974630000002,169.71121603333336,67.0,78.0
581,169.3509223,169.76636303333333,63.0,69.0
582,170.67445030000002,171.06047930000003,53.0,65.0
583,170.67445030000002,171.1579056666667,65.0,81.0
584,169.79209830000002,171.42628773333334,41.0,88.0
585,170.2332743,171.58621403333333,48.0,82.0
586,171.9979783,172.720404,48.0,70.0
587,171.55680230000002,172.80496273333335,41.0,86.0
588,172.4391543,172.95018316666668,65.0,86.0
589,171.1156263,173.03290366666667,68.0,85.0
590,172.88033030000003,173.38400623333334,60.0,79.0
591,174.2038583,174.7038577666667,60.0,93.0
592,173.3215063,174.76819593333335,36.0,75.0
593,173.76268230000002,175.1340043666667,48.0,68.0
594,174.64503430000002,175.37665116666668,63.0,100.0
595,175.52738630000002,176.1009151,48.0,57.0
596,175.0862103,176.12113566666667,36.0,72.0
597,175.9685623,176.81414963333336,60.0,86.0
598,175.9685623,176.8325319666667,63.0,107.0
599,176.40973830000001,176.84172313333335,55.0,78.0
600,176.8509143,178.44650083333335,41.0,85.0
601,177.2920903,178.6358388666667,48.0,67.0
602,178.1744423,179.0825295666667,65.0,69.0
603,177.73326630000003,179.33988223333336,68.0,127.0
604,179.0567943,179.69098480000002,48.0,82.0
605,178.61561830000002,179.73510240000002,41.0,93.0
606,179.49797030000002,180.37664583333336,68.0,117.0
607,179.9391463,180.41341050000003,65.0,89.0
608,180.8214983,181.42076236666668,46.0,62.0
609,181.26267430000001,181.70385030000003,49.0,100.0
610,180.38032230000002,182.1450263,34.0,71.0
611,181.70385030000003,182.37664370000002,46.0,58.0
612,182.1450263,182.75348153333334,58.0,83.0
613,182.1450263,182.76818740000002,61.0,86.0
614,182.58620230000002,183.30127506666668,46.0,73.0
615,183.0273783,183.87664210000003,65.0,69.0
616,182.1450263,183.9097303,34.0,71.0
617,183.46855430000002,183.91156853333334,58.0,85.0
618,184.35090630000002,185.02737616666667,48.0,66.0
619,184.7920823,185.1873024666667,53.0,77.0
620,183.9097303,185.6744343,41.0,75.0
621,185.23325830000002,185.84171353333335,48.0,62.0
622,185.6744343,186.176272,65.0,78.0
623,185.6744343,186.29024246666668,60.0,79.0
624,186.11561030000001,186.6339921,48.0,55.0
625,186.55678630000003,186.87663890000002,60.0,23.0
626,186.9979623,187.36560896666668,65.0,71.0
627,186.55678630000003,187.3729619,68.0,102.0
628,186.9979623,187.3950207,60.0,27.0
629,185.6744343,187.43913830000002,41.0,75.0
630,187.8803143,188.48141660000002,49.0,67.0
631,187.43913830000002,188.9005338,37.0,93.0
632,189.20384230000002,189.66523886666667,61.0,39.0
633,188.7626663,190.01817966666667,53.0,74.0
634,188.32149030000002,190.036562,56.0,99.0
635,189.6450183,190.32516463333334,49.0,75.0
636,189.20384230000002,190.8067817666667,37.0,78.0
637,190.08619430000002,190.90788460000002,61.0,117.0
638,190.5273703,190.94281103333336,53.0,68.0
639,190.08619430000002,190.94281103333336,56.0,52.0
640,191.40972230000003,192.28472136666667,48.0,64.0
641,190.9685463,192.31045663333336,41.0,73.0
642,191.8508983,192.7773679,65.0,72.0
643,191.8508983,192.7773679,68.0,89.0
644,192.29207430000002,192.79758846666667,60.0,86.0
645,193.17442630000002,193.8306756,48.0,72.0
646,192.7332503,194.26633690000003,36.0,86.0
647,194.05677830000002,194.46670433333335,51.0,82.0
648,193.6156023,194.4758955,55.0,82.0
649,194.93913030000002,195.5990560666667,49.0,82.0
650,194.4979543,196.13398196666668,37.0,88.0
651,195.8214823,196.36927583333335,49.0,45.0
652,195.3803063,197.02552513333336,63.0,78.0
653,195.3803063,197.0347163,56.0,89.0
654,196.7038343,197.41339236666667,49.0,76.0
655,197.14501030000002,197.41706883333336,56.0,79.0
656,196.26265830000003,197.84170073333334,37.0,97.0
657,197.5861863,198.03103876666668,56.0,83.0
658,197.14501030000002,198.032877,63.0,112.0
659,198.4685383,198.99059656666668,51.0,81.0
660,198.90971430000002,199.31964033333335,55.0,95.0
661,198.02736230000002,199.466699,39.0,96.0
662,199.3508903,200.0126543,51.0,88.0
663,199.79206630000002,200.26816873333334,67.0,95.0
664,199.79206630000002,200.29574223333336,63.0,112.0
665,199.79206630000002,200.32331573333335,58.0,112.0
666,200.23324230000003,200.90052100000003,51.0,112.0
667,200.6744183,201.44279983333334,67.0,107.0
668,200.6744183,201.4501527666667,63.0,127.0
669,201.11559430000003,201.51265270000002,58.0,112.0
670,199.79206630000002,201.5567703,39.0,96.0
671,201.5567703,201.78471123333335,68.0,100.0
672,201.5567703,201.8876523,72.0,93.0
673,202.21853430000002,202.4869163666667,68.0,82.0
674,201.7773583,202.4942693,56.0,93.0
675,201.99794630000002,202.56596040000002,63.0,97.0
676,202.65971030000003,202.78654840000002,56.0,89.0
677,201.5567703,202.830666,44.0,102.0
678,203.1008863,203.32331253333334,68.0,85.0
679,202.4391223,203.3251507666667,72.0,100.0
680,202.88029830000002,203.33434193333335,63.0,100.0
681,203.54206230000003,203.86926783333334,46.0,89.0
682,203.9832383,204.26081153333334,46.0,72.0
683,203.76265030000002,204.33434086666668,53.0,96.0
684,203.3214743,204.5512524,34.0,85.0
685,204.42441430000002,204.63213466666667,46.0,88.0
686,204.64500230000002,204.90786966666667,58.0,107.0
687,204.8655903,204.94095786666668,53.0,90.0
688,204.2038263,204.9427961,61.0,112.0
689,205.30676630000002,205.6137512666667,56.0,78.0
690,205.5273543,205.90970683333336,60.0,99.0
691,205.7479423,206.04205963333334,56.0,95.0
692,206.18911830000002,206.2938976,56.0,90.0
693,205.08617830000003,206.33617696666667,44.0,97.0
694,205.96853030000003,206.45566213333336,63.0,117.0
695,205.96853030000003,206.84352936666667,68.0,112.0
696,206.4097063,206.8453676,60.0,97.0
697,206.6302943,206.85088230000002,63.0,102.0
698,207.07147030000002,207.35088176666667,51.0,88.0
699,207.2920583,207.72404313333334,55.0,99.0
700,207.51264630000003,207.78470483333334,51.0,83.0
701,206.85088230000002,208.0586016,39.0,93.0
702,207.9538223,208.10455743333335,51.0,90.0
703,207.73323430000002,208.21852790000003,58.0,96.0
704,208.1744103,208.50896876666667,55.0,93.0
705,207.73323430000002,208.5990422,63.0,117.0
706,208.39499830000003,208.61190983333336,58.0,107.0
707,209.0567623,209.57146763333336,60.0,78.0
708,209.27735030000002,209.6063940666667,53.0,88.0
709,209.7185263,209.8563938,53.0,85.0
710,208.8361743,209.8949967,48.0,65.0
711,208.61558630000002,209.90786433333335,41.0,82.0
712,209.49793830000002,210.01448186666667,65.0,99.0
713,210.15970230000002,210.40602556666667,65.0,85.0
714,209.49793830000002,210.42624613333334,68.0,99.0
715,209.93911430000003,210.4335990666667,60.0,102.0
716,210.6008783,210.92256913333335,46.0,86.0
717,210.82146630000003,211.1725688666667,58.0,99.0
718,211.04205430000002,211.35271573333335,46.0,89.0
719,210.3802903,211.6762448,34.0,93.0
720,211.4832303,211.67808303333334,46.0,79.0
721,211.2626423,211.74609766666669,58.0,83.0
722,211.70381830000002,212.11742080000002,53.0,95.0
723,211.92440630000002,212.14315606666668,58.0,117.0
724,211.2626423,212.14683253333334,61.0,102.0
725,212.36558230000003,212.6780819666667,49.0,97.0
726,212.58617030000002,212.93359640000003,61.0,122.0
727,212.8067583,213.09903740000001,49.0,95.0
728,212.1449943,213.39315473333335,37.0,92.0
729,213.0273463,213.47771346666667,65.0,92.0
730,213.0273463,213.6284486,68.0,102.0
731,213.24793430000003,213.78653666666668,49.0,99.0
732,213.6891103,213.86190423333335,65.0,70.0
733,213.6891103,213.88396303333334,68.0,77.0
734,213.46852230000002,213.9041836,61.0,100.0
735,214.13028630000002,214.44830066666668,51.0,92.0
736,214.35087430000002,214.78837383333334,55.0,100.0
737,214.5714623,214.85822670000002,51.0,96.0
738,215.01263830000002,215.24425570000002,51.0,100.0
739,213.9096983,215.25344686666668,39.0,100.0
740,214.79205030000003,215.2865350666667,58.0,100.0
741,215.2332263,215.56043183333335,55.0,102.0
742,215.4538143,215.65969643333335,58.0,100.0
743,214.79205030000003,215.70381403333334,63.0,122.0
744,215.67440230000003,215.90234323333334,68.0,100.0
745,215.67440230000003,216.00528430000003,72.0,93.0
746,216.33616630000003,216.60454836666668,68.0,82.0
747,215.89499030000002,216.61190130000003,56.0,93.0
748,216.1155783,216.6835924,63.0,97.0
749,216.77734230000002,216.90418040000003,56.0,89.0
750,215.67440230000003,216.94829800000002,44.0,102.0
751,217.21851830000003,217.44094453333335,68.0,85.0
752,216.55675430000002,217.44278276666668,72.0,100.0
753,216.9979303,217.45197393333336,63.0,100.0
754,217.6596943,217.98689983333335,46.0,89.0
755,218.10087030000003,218.37844353333335,46.0,72.0
756,217.8802823,218.4519728666667,53.0,96.0
757,217.43910630000002,218.66888440000002,34.0,85.0
758,218.5420463,218.7497666666667,46.0,88.0
759,218.76263430000003,219.02550166666668,58.0,107.0
760,218.98322230000002,219.0585898666667,53.0,90.0
761,218.32145830000002,219.06042810000002,61.0,112.0
762,219.4243983,219.73138326666668,56.0,78.0
763,219.64498630000003,220.02733883333335,60.0,99.0
764,219.86557430000002,220.15969163333335,56.0,95.0
765,220.3067503,220.41152960000002,56.0,90.0
766,219.20381030000001,220.45380896666668,44.0,97.0
767,220.0861623,220.57329413333335,63.0,117.0
768,220.0861623,220.9611613666667,68.0,112.0
769,220.52733830000003,220.96299960000002,60.0,97.0
770,220.74792630000002,220.9685143,63.0,102.0
771,221.18910230000003,221.4685137666667,51.0,88.0
772,221.40969030000002,221.84167513333335,55.0,99.0
773,221.63027830000001,221.90233683333335,51.0,83.0
774,220.9685143,222.17623360000002,39.0,93.0
775,222.07145430000003,222.22218943333334,51.0,90.0
776,221.8508663,222.3361599,58.0,96.0
777,222.29204230000002,222.62660076666668,55.0,93.0
778,221.8508663,222.71667420000003,63.0,117.0
779,222.5126303,222.72954183333334,58.0,107.0
780,223.17439430000002,223.68909963333334,60.0,78.0
781,223.3949823,223.72402606666668,53.0,88.0
782,223.83615830000002,223.97402580000002,53.0,85.0
783,222.95380630000002,224.01262870000002,48.0,65.0
784,222.7332183,224.02549633333334,41.0,82.0
785,223.61557030000003,224.13211386666669,65.0,99.0
786,224.2773343,224.52365756666669,65.0,85.0
787,223.61557030000003,224.54387813333335,68.0,99.0
788,224.05674630000001,224.55123106666667,60.0,102.0
789,224.71851030000002,225.04020113333334,46.0,86.0
790,224.9390983,225.29020086666668,58.0,99.0
791,225.1596863,225.47034773333334,46.0,89.0
792,224.49792230000003,225.79387680000002,34.0,93.0
793,225.60086230000002,225.79571503333335,46.0,79.0
794,225.38027430000002,225.86372966666667,58.0,83.0
795,225.8214503,226.2350528,53.0,95.0
796,226.04203830000003,226.2607880666667,58.0,117.0
797,225.38027430000002,226.26446453333335,61.0,102.0
798,226.48321430000001,226.79571396666668,49.0,97.0
799,226.7038023,227.0512284,61.0,122.0
800,226.92439030000003,227.21666940000003,49.0,95.0
801,226.26262630000002,227.51078673333336,37.0,92.0
802,227.14497830000002,227.59534546666669,65.0,92.0
803,227.14497830000002,227.74608060000003,68.0,102.0
804,227.3655663,227.9041686666667,49.0,99.0
805,227.80674230000002,227.97953623333336,65.0,70.0
806,227.80674230000002,228.00159503333336,68.0,77.0
807,227.5861543,228.02181560000002,61.0,100.0
808,228.2479183,228.5659326666667,51.0,92.0
809,228.46850630000003,228.90600583333335,55.0,100.0
810,228.68909430000002,228.9758587,51.0,96.0
811,229.1302703,229.3618877,51.0,100.0
812,228.02733030000002,229.3710788666667,39.0,100.0
813,228.90968230000001,229.40416706666667,58.0,100.0
814,229.35085830000003,229.67806383333334,55.0,102.0
815,229.57144630000002,229.77732843333334,58.0,100.0
816,228.90968230000001,229.82144603333336,63.0,122.0
817,230.23321030000002,230.58063640000003,53.0,112.0
818,230.45379830000002,230.7442391666667,56.0,95.0
819,230.0126223,230.7607832666667,48.0,96.0
820,230.6743863,231.15416520000002,60.0,117.0
821,231.11556230000002,231.37659143333335,56.0,127.0
822,229.7920343,231.42622373333336,41.0,93.0
823,230.89497430000003,231.53100303333335,48.0,127.0
824,231.5567383,231.88578206666668,60.0,100.0
825,231.5567383,231.90232616666668,56.0,127.0
826,231.3361503,231.91703203333336,53.0,93.0
827,231.99791430000002,232.3269580666667,60.0,96.0
828,231.99791430000002,232.32879630000002,53.0,96.0
829,231.99791430000002,232.3398257,48.0,85.0
830,231.99791430000002,232.34166393333336,56.0,107.0
831,232.4390903,232.76078113333335,53.0,97.0
832,232.4390903,232.7699723,60.0,97.0
833,232.4390903,232.78100170000002,56.0,122.0
834,232.4390903,232.88394276666668,48.0,92.0
835,231.5567383,232.9556338666667,41.0,97.0
836,232.88026630000002,233.2773247,56.0,127.0
837,232.88026630000002,233.2810011666667,53.0,97.0
838,232.88026630000002,233.2938688,60.0,102.0
839,233.54203030000002,233.83798586666668,44.0,99.0
840,233.7626183,233.98136806666668,56.0,77.0
841,233.7626183,234.0218092,60.0,97.0
842,233.7626183,234.05857386666668,63.0,96.0
843,233.9832063,234.26445600000002,44.0,107.0
844,234.20379430000003,234.5512204,60.0,112.0
845,234.20379430000003,234.55305863333336,63.0,112.0
846,233.32144230000003,234.6927643666667,32.0,117.0
847,234.42438230000002,234.84166126666668,44.0,100.0
848,234.86555830000003,235.01261696666668,60.0,100.0
849,234.6449703,235.0585728,56.0,107.0
850,234.86555830000003,235.08614630000002,63.0,127.0
851,235.30673430000002,235.61004280000003,46.0,99.0
852,235.74791030000003,236.03099823333335,46.0,96.0
853,235.5273223,236.04018940000003,53.0,97.0
854,236.1890863,236.3324685,46.0,95.0
855,235.08614630000002,236.36004200000002,34.0,93.0
856,235.96849830000002,236.39313020000003,61.0,127.0
857,235.96849830000002,236.4740124666667,58.0,117.0
858,236.4096743,236.83430620000001,53.0,107.0
859,236.63026230000003,236.89129143333335,58.0,107.0
860,236.63026230000003,236.89129143333335,61.0,117.0
861,237.0714383,237.38393796666668,44.0,100.0
862,237.29202630000003,237.76629050000003,56.0,112.0
863,237.51261430000002,237.7773199,44.0,100.0
864,236.85085030000002,238.08246663333335,32.0,96.0
865,237.73320230000002,238.14129010000002,63.0,122.0
866,237.9537903,238.1780547666667,44.0,107.0
867,237.73320230000002,238.21481943333336,60.0,100.0
868,238.17437830000003,238.5218044,56.0,122.0
869,238.39496630000002,238.61739253333334,60.0,78.0
870,238.39496630000002,238.64496603333336,63.0,117.0
871,238.8361423,239.12290670000002,51.0,96.0
872,239.05673030000003,239.52180333333334,55.0,97.0
873,239.27731830000002,239.54202390000003,51.0,92.0
874,239.71849430000003,239.87474413333337,51.0,102.0
875,238.6155543,239.88761176666668,39.0,73.0
876,239.4979063,239.96481756666668,58.0,107.0
877,239.4979063,240.21114083333336,63.0,117.0
878,239.93908230000002,240.29386133333335,55.0,102.0
879,240.15967030000002,240.36371420000003,58.0,127.0
880,240.82143430000002,241.34533080000003,53.0,102.0
881,241.0420223,241.34716903333336,60.0,70.0
882,241.48319830000003,241.6486393,53.0,89.0
883,241.2626103,241.71481570000003,68.0,117.0
884,240.60084630000003,241.7184921666667,48.0,89.0
885,240.3802583,241.75341860000003,41.0,90.0
886,241.2626103,241.7736391666667,65.0,96.0
887,241.9243743,242.16702110000003,65.0,99.0
888,241.70378630000002,242.16885933333336,60.0,100.0
889,241.9243743,242.17253580000002,68.0,122.0
890,242.36555030000002,242.67253526666667,46.0,93.0
891,242.58613830000002,243.04937310000003,53.0,96.0
892,242.8067263,243.05488780000002,46.0,95.0
893,243.02731430000003,243.5383431666667,61.0,122.0
894,243.02731430000003,243.55304903333337,58.0,112.0
895,242.14496230000003,243.56959313333334,34.0,100.0
896,243.24790230000002,243.66150480000002,46.0,99.0
897,243.4684903,243.86187223333334,53.0,96.0
898,243.6890783,243.8655487,58.0,107.0
899,243.6890783,243.88944573333336,61.0,117.0
900,244.13025430000002,244.4758421666667,49.0,107.0
901,244.57143030000003,244.8508417666667,49.0,97.0
902,244.3508423,244.86003293333334,56.0,107.0
903,243.90966630000003,245.20562080000002,37.0,95.0
904,244.79201830000002,245.22584136666669,61.0,93.0
905,245.01260630000002,245.53650280000002,49.0,100.0
906,244.79201830000002,245.6339291666667,65.0,93.0
907,245.2331943,245.64679680000003,56.0,97.0
908,245.45378230000003,245.70378203333334,61.0,112.0
909,245.8949583,246.20745796666668,51.0,90.0
910,246.1155463,246.56039876666668,55.0,97.0
911,246.33613430000003,246.59716343333335,51.0,112.0
912,246.55672230000002,247.02914826666668,58.0,122.0
913,246.55672230000002,247.04936883333335,63.0,127.0
914,246.7773103,247.22583923333335,51.0,112.0
915,246.99789830000003,247.33429500000003,55.0,107.0
916,245.67437030000002,247.3545155666667,39.0,100.0
917,247.21848630000002,247.45561840000002,58.0,112.0
918,247.21848630000002,247.49422130000002,63.0,122.0
919,247.68172110000003,247.9776766666667,44.0,99.0
920,247.90230910000002,248.1210588666667,56.0,77.0
921,247.90230910000002,248.16150000000002,60.0,97.0
922,247.90230910000002,248.1982646666667,63.0,96.0
923,248.12289710000002,248.4041468,44.0,107.0
924,248.3434851,248.69091120000002,60.0,112.0
925,248.3434851,248.69274943333335,63.0,112.0
926,247.4611331,248.83245516666668,32.0,117.0
927,248.56407310000003,248.9813520666667,44.0,100.0
928,249.00524910000001,249.1523077666667,60.0,100.0
929,248.78466110000002,249.19826360000002,56.0,107.0
930,249.00524910000001,249.2258371,63.0,127.0
931,249.44642510000003,249.7497336,46.0,99.0
932,249.8876011,250.17068903333336,46.0,96.0
933,249.66701310000002,250.1798802,53.0,97.0
934,250.32877710000002,250.47215930000002,46.0,95.0
935,249.2258371,250.49973280000003,34.0,93.0
936,250.10818910000003,250.532821,61.0,127.0
937,250.10818910000003,250.61370326666668,58.0,117.0
938,250.54936510000002,250.97399700000003,53.0,107.0
939,250.7699531,251.03098223333336,58.0,107.0
940,250.7699531,251.03098223333336,61.0,117.0
941,251.21112910000002,251.5236287666667,44.0,100.0
942,251.43171710000001,251.9059813,56.0,112.0
943,251.6523051,251.91701070000002,44.0,100.0
944,250.99054110000003,252.22215743333336,32.0,96.0
945,251.87289310000003,252.28098090000003,63.0,122.0
946,252.09348110000002,252.31774556666667,44.0,107.0
947,251.87289310000003,252.35451023333334,60.0,100.0
948,252.3140691,252.66149520000002,56.0,122.0
949,252.53465710000003,252.75708333333336,60.0,78.0
950,252.53465710000003,252.78465683333334,63.0,117.0
951,252.97583310000002,253.26259750000003,51.0,96.0
952,253.1964211,253.66149413333335,55.0,97.0
953,253.41700910000003,253.68171470000001,51.0,92.0
954,253.85818510000001,254.01443493333335,51.0,102.0
955,252.75524510000002,254.0273025666667,39.0,73.0
956,253.63759710000002,254.1045083666667,58.0,107.0
957,253.63759710000002,254.35083163333334,63.0,117.0
958,254.0787731,254.43355213333336,55.0,102.0
959,254.29936110000003,254.50340500000001,58.0,127.0
960,254.96112510000003,255.4850216,53.0,102.0
961,255.18171310000002,255.48685983333334,60.0,70.0
962,255.6228891,255.78833010000002,53.0,89.0
963,255.40230110000002,255.8545065,68.0,117.0
964,254.7405371,255.85818296666667,48.0,89.0
965,254.51994910000002,255.89310940000001,41.0,90.0
966,255.40230110000002,255.91332996666668,65.0,96.0
967,256.0640651,256.30671190000004,65.0,99.0
968,255.84347710000003,256.30855013333337,60.0,100.0
969,256.0640651,256.31222660000003,68.0,122.0
970,256.50524110000003,256.8122260666667,46.0,93.0
971,256.7258291,257.1890639,53.0,96.0
972,256.9464171,257.1945786,46.0,95.0
973,257.16700510000004,257.6780339666667,61.0,122.0
974,257.16700510000004,257.69273983333335,58.0,112.0
975,256.2846531,257.7092839333333,34.0,100.0
976,257.3875931,257.8011956,46.0,99.0
977,257.6081811,258.00156303333335,53.0,96.0
978,257.82876910000005,258.0052395,58.0,107.0
979,257.82876910000005,258.02729830000004,61.0,117.0
980,258.02729830000004,260.65413373333337,49.0,81.0
981,258.02729830000004,260.6614866666667,37.0,99.0
982,258.02729830000004,260.6743543,65.0,86.0
983,258.02729830000004,260.67619253333334,61.0,112.0
984,258.02729830000004,260.6835454666667,56.0,99.0
985,260.6743543,263.30118973333333,51.0,75.0
986,260.6743543,263.3085426666667,39.0,95.0
987,260.6743543,263.31038090000004,63.0,67.0
988,260.6743543,263.3214103,67.0,70.0
989,260.6743543,263.326925,58.0,83.0
990,264.2037623,264.9942026333334,56.0,89.0
991,265.0861143,271.33610763333337,65.0,68.0
992,265.0861143,271.3452988,60.0,79.0
993,264.64493830000004,271.34713703333335,53.0,73.0
994,263.7625863,271.35265173333335,48.0,63.0
995,265.0861143,271.38022523333336,56.0,33.0
996,263.3214103,271.3949311,41.0,73.0
