,start,end,pitch,velocity
0,2.767854375,3.1857111000000002,73.0,90.0
1,3.3392823750000002,3.5095203,73.0,95.0
2,3.6249963750000003,3.7773771750000003,73.0,90.0
3,3.9107103750000003,4.058329275,71.0,92.0
4,4.196424375,4.6869000750000005,69.0,95.0
5,5.053566375,5.423804100000001,76.0,90.0
6,5.624994375,5.8333275,73.0,93.0
7,5.9107083750000005,6.078565350000001,73.0,88.0
8,6.196422375,6.410707875000001,71.0,90.0
9,6.4821363750000005,7.076183400000001,69.0,91.0
10,7.339278375,7.72142085,69.0,91.0
11,7.910706375,8.12618235,69.0,88.0
12,8.196420375,8.367848775,69.0,89.0
13,8.482134375000001,8.6904675,71.0,92.0
14,8.767848375,9.428562000000001,69.0,92.0
15,9.624990375000001,9.891656775000001,69.0,87.0
16,9.910704375,10.12618035,68.0,91.0
17,10.196418375,10.417846725,66.0,87.0
18,10.482132375,10.638084600000001,69.0,87.0
19,10.767846375000001,10.990465200000001,76.0,88.0
20,11.053560375,11.674988325000001,73.0,74.0
21,11.910702375000001,12.328559100000001,73.0,90.0
22,12.482130375,12.652368300000001,73.0,95.0
23,12.767844375000001,12.920225175,73.0,90.0
24,13.053558375000001,13.201177275000001,71.0,92.0
25,13.339272375,13.829748075000001,69.0,95.0
26,14.196414375000002,14.5666521,76.0,90.0
27,14.767842375,14.976175500000002,73.0,93.0
28,15.053556375000001,15.22141335,73.0,88.0
29,15.339270375000002,15.553555875,71.0,90.0
30,15.624984375,16.219031400000002,69.0,91.0
31,16.482126375,16.864268850000002,69.0,91.0
32,17.053554375,17.26903035,69.0,88.0
33,17.339268375,17.510696775,69.0,89.0
34,17.624982375000002,17.8333155,71.0,92.0
35,17.910696375,18.57141,69.0,92.0
36,18.767838375,19.180933200000002,71.0,88.0
37,19.339266375,19.824980175,73.0,87.0
38,19.910694375000002,20.174979825,71.0,90.0
39,20.196408375,20.36426535,69.0,90.0
40,20.482122375000003,20.936883825000002,71.0,93.0
41,21.053550375,24.196404375,71.0,92.0
42,24.196404375,24.398785125000003,68.0,86.0
43,24.482118375000002,25.055927325000003,69.0,88.0
44,25.053546375000003,25.317831825000003,66.0,86.0
45,25.339260375000002,28.110686175,64.0,88.0
46,29.624970375000004,29.84997015,57.0,87.0
47,29.910684375000002,30.155922225,64.0,87.0
48,30.196398375,30.353541075000003,66.0,80.0
49,30.482112375000003,30.692826450000002,66.0,87.0
50,30.767826375000002,30.964254750000002,64.0,87.0
51,31.053540375,31.545206550000003,66.0,87.0
52,31.624968375,31.797587250000003,64.0,86.0
53,31.910682375000004,32.35949145,66.0,87.0
54,32.482110375000005,32.879729025,66.0,87.0
55,33.053538375,33.2190144,64.0,87.0
56,33.339252375,33.816632850000005,66.0,89.0
57,34.196394375000004,34.36425135,64.0,87.0
58,34.482108375,35.053536375,64.0,90.0
59,35.053536375,37.0428201,61.0,88.0
60,38.767818375000004,38.992818150000005,57.0,87.0
61,39.053532375,39.298770225000005,64.0,87.0
62,39.339246375,39.496389075,66.0,80.0
63,39.624960375,39.835674450000006,66.0,87.0
64,39.910674375,40.10710275,64.0,87.0
65,40.196388375000005,40.688054550000004,66.0,87.0
66,40.767816375,40.94043525,64.0,86.0
67,41.053530375,41.50233945,66.0,87.0
68,41.624958375000006,42.022577025000004,66.0,87.0
69,42.196386375,42.3618624,66.0,87.0
70,42.482100375,42.959480850000006,69.0,89.0
71,43.339242375000005,43.507099350000004,66.0,87.0
72,43.624956375000004,44.196384375,66.0,90.0
73,44.196384375,46.1856681,64.0,88.0
74,48.767808375,48.926141550000004,71.0,92.0
75,49.053522375,49.286855475,71.0,89.0
76,49.339236375000006,49.57375995,71.0,89.0
77,49.624950375000004,50.104711800000004,69.0,88.0
78,50.196378375,50.689235025,71.0,92.0
79,50.767806375000006,51.624948375,71.0,88.0
80,53.339232375,53.5761369,71.0,92.0
81,53.624946375,53.835660450000006,69.0,86.0
82,53.910660375000006,54.146374425000005,71.0,93.0
83,54.196374375000005,54.35470755,69.0,87.0
84,54.482088375000004,54.639231075000005,69.0,88.0
85,54.767802375,55.1856591,71.0,93.0
86,55.33923037500001,55.543992075000006,73.0,90.0
87,55.624944375000005,55.896372675,71.0,92.0
88,55.910658375000004,56.982085875,69.0,92.0
89,57.910656375,58.088037150000005,71.0,86.0
90,58.196370375,58.368989250000006,71.0,86.0
91,58.48208437500001,58.705893675000006,71.0,92.0
92,58.767798375000005,59.220178875,69.0,92.0
93,59.339226375,59.793987825,71.0,95.0
94,59.91065437500001,61.260653025,71.0,90.0
95,62.196366375000004,62.34874717500001,71.0,88.0
96,62.482080375,62.671365900000005,71.0,92.0
97,62.767794375,62.986841775,69.0,88.0
98,63.05350837500001,63.251127225000005,71.0,88.0
99,63.339222375000006,63.798745725,73.0,88.0
100,63.910650375,65.410648875,71.0,93.0
101,66.196362375,66.429695475,69.0,97.0
102,66.482076375,66.955885425,78.0,87.0
103,67.053504375,67.255885125,76.0,90.0
104,67.339218375,67.513027725,76.0,91.0
105,67.624932375,68.05945575,76.0,97.0
106,68.19636037500001,68.398741125,73.0,91.0
107,68.48207437500001,68.94397867500001,76.0,95.0
108,69.05350237500001,69.62850180000001,73.0,91.0
109,69.910644375,70.0999299,64.0,97.0
110,70.196358375,70.380882,64.0,92.0
111,70.482072375,70.65350077500001,66.0,90.0
112,70.767786375,70.95111952500001,69.0,88.0
113,71.053500375,71.543976075,71.0,90.0
114,71.62492837500001,71.82135675,71.0,90.0
115,71.91064237500001,72.14635642500001,69.0,86.0
116,72.19635637500001,72.64635592500001,71.0,89.0
117,72.767784375,72.95706990000001,69.0,88.0
118,73.053498375,74.339211375,69.0,90.0
119,74.48206837500001,74.73563955,78.0,90.0
120,74.76778237500001,74.9570679,76.0,88.0
121,75.05349637500001,75.2618295,73.0,91.0
122,75.33921037500001,75.543972075,73.0,92.0
123,75.624924375,76.02611445000001,76.0,92.0
124,76.196352375,76.482066375,76.0,90.0
125,76.767780375,77.196351375,76.0,93.0
126,77.339208375,77.48682727500001,73.0,65.0
127,77.62492237500001,78.05468385,76.0,97.0
128,78.19635037500001,78.65468325,73.0,92.0
129,79.053492375,79.24634932500001,64.0,91.0
130,79.339206375,79.541587125,64.0,90.0
131,79.624920375,79.813015425,66.0,88.0
132,79.910634375,80.101110375,69.0,87.0
133,80.196348375,80.6142051,71.0,88.0
134,80.76777637500001,81.00706185,71.0,88.0
135,81.05349037500001,81.2618235,69.0,88.0
136,81.33920437500001,81.80110867500001,71.0,91.0
137,81.910632375,82.093965525,71.0,91.0
138,82.196346375,83.2665834,69.0,85.0
139,83.62491637500001,83.8665828,78.0,92.0
140,83.91063037500001,84.08563020000001,76.0,90.0
141,84.19634437500001,84.415391775,76.0,92.0
142,84.48205837500001,84.71182005,73.0,95.0
143,84.767772375,86.996341575,73.0,93.0
144,88.196340375,88.41062587500001,78.0,93.0
145,88.482054375,88.608244725,76.0,93.0
146,88.767768375,88.955863425,76.0,91.0
147,89.053482375,89.16419655,73.0,89.0
148,89.19633937500001,89.2761012,76.0,86.0
149,89.339196375,91.75467015000001,73.0,88.0
150,94.482048375,94.63919107500001,71.0,88.0
151,94.767762375,94.955857425,71.0,87.0
152,95.053476375,95.2760952,71.0,87.0
153,95.339190375,95.8522851,69.0,90.0
154,95.91061837500001,96.360617925,71.0,88.0
155,96.48204637500001,97.436807325,71.0,92.0
156,98.76775837500001,98.955853425,71.0,90.0
157,99.05347237500001,99.24871027500001,71.0,92.0
158,99.33918637500001,99.543948075,69.0,89.0
159,99.62490037500001,99.8332335,71.0,93.0
160,99.91061437500001,100.16894745,73.0,87.0
161,100.19632837500001,100.43561385000001,69.0,90.0
162,100.482042375,102.80465910000001,71.0,90.0
163,103.33918237500001,103.75703910000001,73.0,90.0
164,103.910610375,104.08084830000001,73.0,95.0
165,104.196324375,104.348705175,73.0,90.0
166,104.482038375,104.62965727500001,71.0,92.0
167,104.767752375,105.258228075,69.0,95.0
168,105.62489437500001,105.9951321,76.0,90.0
169,106.19632237500001,106.4046555,73.0,93.0
170,106.482036375,106.64989335000001,73.0,88.0
171,106.767750375,106.98203587500001,71.0,90.0
172,107.053464375,107.64751140000001,69.0,91.0
173,107.91060637500001,108.29274885000001,69.0,91.0
174,108.48203437500001,108.69751035,69.0,88.0
175,108.76774837500001,108.939176775,69.0,89.0
176,109.05346237500001,109.2617955,71.0,92.0
177,109.33917637500001,109.99989000000001,69.0,92.0
178,110.196318375,110.46298477500001,69.0,87.0
179,110.482032375,110.69750835,68.0,91.0
180,110.767746375,110.98917472500001,66.0,87.0
181,111.05346037500001,111.20941260000001,69.0,87.0
182,111.33917437500001,111.56179320000001,76.0,88.0
183,111.62488837500001,112.24631632500001,73.0,74.0
184,112.48203037500001,112.8998871,73.0,90.0
185,113.053458375,113.22369630000001,73.0,95.0
186,113.339172375,113.491553175,73.0,90.0
187,113.624886375,113.77250527500001,71.0,92.0
188,113.910600375,114.401076075,69.0,95.0
189,114.76774237500001,115.13798010000001,76.0,90.0
190,115.33917037500001,115.5475035,73.0,93.0
191,115.62488437500001,115.79274135000001,73.0,88.0
192,115.910598375,116.12488387500001,71.0,90.0
193,116.196312375,116.79035940000001,69.0,91.0
194,117.053454375,117.43559685000001,69.0,91.0
195,117.62488237500001,117.84035835,69.0,88.0
196,117.91059637500001,118.08202477500001,69.0,89.0
197,118.19631037500001,118.4046435,71.0,92.0
198,118.48202437500001,119.14273800000001,69.0,92.0
199,119.339166375,119.7522612,71.0,88.0
200,119.910594375,120.396308175,73.0,87.0
201,120.48202237500001,120.746307825,71.0,90.0
202,120.76773637500001,120.93559335,69.0,90.0
203,121.05345037500001,121.508211825,71.0,93.0
204,121.62487837500001,124.76773237500001,71.0,92.0
205,124.76773237500001,124.97011312500001,68.0,86.0
206,125.05344637500001,125.62725532500001,69.0,88.0
207,125.624874375,125.88915982500001,66.0,86.0
208,125.910588375,128.682014175,64.0,88.0
209,130.196298375,130.42129815,57.0,87.0
210,130.482012375,130.727250225,64.0,87.0
211,130.767726375,130.924869075,66.0,80.0
212,131.053440375,131.26415445,66.0,87.0
213,131.33915437500002,131.53558275,64.0,87.0
214,131.624868375,132.11653455,66.0,87.0
215,132.196296375,132.36891525000001,64.0,86.0
216,132.48201037500002,132.93081945,66.0,87.0
217,133.053438375,133.451057025,66.0,87.0
218,133.624866375,133.79034240000001,64.0,87.0
219,133.91058037500002,134.38796085,66.0,89.0
220,134.767722375,134.93557935,64.0,87.0
221,135.05343637500002,135.62486437500002,64.0,90.0
222,135.62486437500002,137.61414810000002,61.0,88.0
223,139.339146375,139.56414615,57.0,87.0
224,139.624860375,139.87009822500002,64.0,87.0
225,139.910574375,140.06771707500002,66.0,80.0
226,140.19628837500002,140.40700245000002,66.0,87.0
227,140.482002375,140.67843075000002,64.0,87.0
228,140.76771637500002,141.25938255,66.0,87.0
229,141.33914437500002,141.51176325,64.0,86.0
230,141.624858375,142.07366745000002,66.0,87.0
231,142.196286375,142.593905025,66.0,87.0
232,142.767714375,142.9331904,66.0,87.0
233,143.053428375,143.53080885,69.0,89.0
234,143.91057037500002,144.07842735,66.0,87.0
235,144.196284375,144.767712375,66.0,90.0
236,144.767712375,146.7569961,64.0,88.0
237,149.339136375,149.49746955,71.0,92.0
238,149.62485037500002,149.858183475,71.0,89.0
239,149.910564375,150.14508795,71.0,89.0
240,150.19627837500002,150.6760398,69.0,88.0
241,150.76770637500002,151.260563025,71.0,92.0
242,151.33913437500001,152.196276375,71.0,88.0
243,153.91056037500002,154.14746490000002,71.0,92.0
244,154.196274375,154.40698845,69.0,86.0
245,154.48198837500001,154.717702425,71.0,93.0
246,154.767702375,154.92603555000002,69.0,87.0
247,155.053416375,155.21055907500002,69.0,88.0
248,155.33913037500002,155.7569871,71.0,93.0
249,155.91055837500002,156.115320075,73.0,90.0
250,156.196272375,156.467700675,71.0,92.0
251,156.48198637500002,157.55341387500002,69.0,92.0
252,158.48198437500002,158.65936515,71.0,86.0
253,158.767698375,158.94031725000002,71.0,86.0
254,159.05341237500002,159.27722167500002,71.0,92.0
255,159.339126375,159.791506875,69.0,92.0
256,159.910554375,160.365315825,71.0,95.0
257,160.481982375,161.831981025,71.0,90.0
258,162.76769437500002,162.92007517500002,71.0,88.0
259,163.053408375,163.2426939,71.0,92.0
260,163.33912237500002,163.558169775,69.0,88.0
261,163.624836375,163.822455225,71.0,88.0
262,163.910550375,164.370073725,73.0,88.0
263,164.481978375,165.98197687500002,71.0,93.0
264,166.767690375,167.001023475,69.0,97.0
265,167.053404375,167.527213425,78.0,87.0
266,167.624832375,167.82721312500001,76.0,90.0
267,167.91054637500002,168.08435572500002,76.0,91.0
268,168.196260375,168.63078375,76.0,97.0
269,168.767688375,168.970069125,73.0,91.0
270,169.05340237500002,169.515306675,76.0,95.0
271,169.62483037500002,170.1998298,73.0,91.0
272,170.481972375,170.6712579,64.0,97.0
273,170.767686375,170.95221,64.0,92.0
274,171.05340037500002,171.22482877500002,66.0,90.0
275,171.339114375,171.52244752500002,69.0,88.0
276,171.62482837500002,172.115304075,71.0,90.0
277,172.19625637500002,172.39268475,71.0,90.0
278,172.481970375,172.71768442500002,69.0,86.0
279,172.76768437500002,173.21768392500002,71.0,89.0
280,173.339112375,173.52839790000002,69.0,88.0
281,173.62482637500003,174.910539375,69.0,90.0
282,175.053396375,175.30696755000002,78.0,90.0
283,175.33911037500002,175.52839590000002,76.0,88.0
284,175.624824375,175.8331575,73.0,91.0
285,175.91053837500002,176.11530007500002,73.0,92.0
286,176.196252375,176.59744245000002,76.0,92.0
287,176.76768037500003,177.053394375,76.0,90.0
288,177.33910837500002,177.767679375,76.0,93.0
289,177.91053637500002,178.05815527500002,73.0,65.0
290,178.196250375,178.62601185000003,76.0,97.0
291,178.767678375,179.22601125,73.0,92.0
292,179.624820375,179.817677325,64.0,91.0
293,179.91053437500003,180.112915125,64.0,90.0
294,180.196248375,180.38434342500003,66.0,88.0
295,180.48196237500002,180.672438375,69.0,87.0
296,180.767676375,181.18553310000001,71.0,88.0
297,181.339104375,181.57838985,71.0,88.0
298,181.62481837500002,181.8331515,69.0,88.0
299,181.910532375,182.37243667500002,71.0,91.0
300,182.481960375,182.665293525,71.0,91.0
301,182.767674375,183.83791140000002,69.0,85.0
302,184.19624437500002,184.43791080000003,78.0,92.0
303,184.481958375,184.65695820000002,76.0,90.0
304,184.76767237500002,184.986719775,76.0,92.0
305,185.053386375,185.28314805000002,73.0,95.0
306,185.33910037500002,187.56766957500002,73.0,93.0
307,188.767668375,188.98195387500002,78.0,93.0
308,189.053382375,189.179572725,76.0,93.0
309,189.33909637500003,189.527191425,76.0,91.0
310,189.624810375,189.73552455,73.0,89.0
311,189.767667375,189.84742920000002,76.0,86.0
312,189.91052437500002,192.32599815,73.0,88.0
313,195.05337637500003,195.210519075,71.0,88.0
314,195.339090375,195.52718542500003,71.0,87.0
315,195.62480437500002,195.8474232,71.0,87.0
316,195.910518375,196.4236131,69.0,90.0
317,196.481946375,196.931945925,71.0,88.0
318,197.053374375,198.008135325,71.0,92.0
319,199.33908637500002,199.527181425,71.0,90.0
320,199.624800375,199.820038275,71.0,92.0
321,199.91051437500002,200.11527607500003,69.0,89.0
322,200.196228375,200.40456150000003,71.0,93.0
323,200.48194237500002,200.74027545,73.0,87.0
324,200.767656375,201.00694185,69.0,90.0
325,201.05337037500001,203.3759871,71.0,90.0
326,203.339082375,203.572415475,69.0,97.0
327,203.62479637500002,204.09860542500002,78.0,87.0
328,204.196224375,204.39860512500002,76.0,90.0
329,204.48193837500003,204.65574772500003,76.0,91.0
330,204.767652375,205.20217575,76.0,97.0
331,205.339080375,205.541461125,73.0,91.0
332,205.62479437500002,206.086698675,76.0,95.0
333,206.19622237500002,206.7712218,73.0,91.0
334,207.053364375,207.2426499,64.0,97.0
335,207.339078375,207.523602,64.0,92.0
336,207.62479237500003,207.79622077500002,66.0,90.0
337,207.910506375,208.09383952500002,69.0,88.0
338,208.19622037500002,208.68669607500001,71.0,90.0
339,208.76764837500002,208.96407675,71.0,90.0
340,209.053362375,209.28907642500002,69.0,86.0
341,209.33907637500002,209.78907592500002,71.0,89.0
342,209.91050437500002,210.09978990000002,69.0,88.0
343,210.196218375,211.48193137500002,69.0,90.0
344,211.624788375,211.87835955000003,78.0,90.0
345,211.91050237500002,212.09978790000002,76.0,88.0
346,212.196216375,212.4045495,73.0,91.0
347,212.48193037500002,212.68669207500002,73.0,92.0
348,212.767644375,213.16883445000002,76.0,92.0
349,213.33907237500003,213.624786375,76.0,90.0
350,213.91050037500003,214.339071375,76.0,93.0
351,214.48192837500002,214.62954727500002,73.0,65.0
352,214.767642375,215.19740385000003,76.0,97.0
353,215.339070375,215.79740325,73.0,92.0
354,216.19621237500002,216.389069325,64.0,91.0
355,216.48192637500003,216.684307125,64.0,90.0
356,216.767640375,216.95573542500003,66.0,88.0
357,217.05335437500003,217.24383037500002,69.0,87.0
358,217.339068375,217.75692510000002,71.0,88.0
359,217.910496375,218.14978185,71.0,88.0
360,218.19621037500002,218.40454350000002,69.0,88.0
361,218.481924375,218.94382867500002,71.0,91.0
362,219.053352375,219.236685525,71.0,91.0
363,219.33906637500002,220.40930340000003,69.0,85.0
364,220.76763637500002,221.00930280000003,78.0,92.0
365,221.053350375,221.22835020000002,76.0,90.0
366,221.33906437500002,221.55811177500001,76.0,92.0
367,221.624778375,221.85454005000003,73.0,95.0
368,221.91049237500002,224.13906157500003,73.0,93.0
369,225.339060375,225.55334587500002,78.0,93.0
370,225.62477437500002,225.75096472500002,76.0,93.0
371,225.91048837500003,226.09858342500002,76.0,91.0
372,226.196202375,226.30691655,73.0,89.0
373,226.339059375,226.41882120000002,76.0,86.0
374,226.48191637500003,228.89739015,73.0,88.0
375,231.624768375,231.781911075,71.0,88.0
376,231.91048237500002,232.09857742500003,71.0,87.0
377,232.19619637500003,232.4188152,71.0,87.0
378,232.481910375,232.99500510000001,69.0,90.0
379,233.053338375,233.503337925,71.0,88.0
380,233.624766375,234.57952732500002,71.0,92.0
381,235.91047837500003,236.098573425,71.0,90.0
382,236.196192375,236.391430275,71.0,92.0
383,236.48190637500002,236.68666807500003,69.0,89.0
384,236.767620375,236.9759535,71.0,93.0
385,237.05333437500002,237.31166745000002,73.0,87.0
386,237.62476237500002,239.9473791,76.0,90.0
387,239.910474375,240.14380747500002,69.0,97.0
388,240.19618837500002,240.66999742500002,78.0,87.0
389,240.76761637500002,240.96999712500002,76.0,90.0
390,241.05333037500003,241.22713972500003,76.0,91.0
391,241.33904437500001,241.77356775,76.0,97.0
392,241.910472375,242.11285312500002,73.0,91.0
393,242.19618637500002,242.658090675,76.0,95.0
394,242.76761437500002,243.3426138,73.0,91.0
395,243.624756375,243.8140419,64.0,97.0
396,243.91047037500002,244.094994,64.0,92.0
397,244.19618437500003,244.36761277500003,66.0,90.0
398,244.48189837500001,244.66523152500002,69.0,88.0
399,244.76761237500003,245.25808807500002,71.0,90.0
400,245.33904037500002,245.53546875,71.0,90.0
401,245.624754375,245.86046842500002,69.0,86.0
402,245.91046837500002,246.36046792500002,71.0,89.0
403,246.48189637500002,246.67118190000002,69.0,88.0
404,246.767610375,248.05332337500002,69.0,90.0
405,248.196180375,248.44975155000003,78.0,90.0
406,248.48189437500002,248.67117990000003,76.0,88.0
407,248.767608375,248.9759415,73.0,91.0
408,249.05332237500002,249.25808407500003,73.0,92.0
409,249.339036375,249.74022645000002,76.0,92.0
410,249.910464375,250.19617837500002,76.0,90.0
411,250.48189237500003,250.910463375,76.0,93.0
412,251.05332037500003,251.20093927500002,73.0,65.0
413,251.339034375,251.76879585,76.0,97.0
414,251.910462375,252.36879525,73.0,92.0
415,252.76760437500002,252.960461325,64.0,91.0
416,253.05331837500003,253.255699125,64.0,90.0
417,253.33903237500002,253.52712742500003,66.0,88.0
418,253.62474637500003,253.81522237500002,69.0,87.0
419,253.910460375,254.32831710000002,71.0,88.0
420,254.481888375,254.72117385,71.0,88.0
421,254.76760237500002,254.97593550000002,69.0,88.0
422,255.053316375,255.51522067500002,71.0,91.0
423,255.624744375,255.80807752500002,71.0,91.0
424,255.91045837500002,256.9806954,69.0,85.0
425,257.339028375,257.5806948,78.0,92.0
426,257.62474237500004,257.7997422,76.0,90.0
427,257.910456375,258.12950377500005,76.0,92.0
428,258.196170375,258.42593205000003,73.0,95.0
429,258.481884375,260.71045357500003,73.0,93.0
430,261.91045237500003,262.124737875,78.0,93.0
431,262.196166375,262.322356725,76.0,93.0
432,262.481880375,262.669975425,76.0,91.0
433,262.76759437500004,262.87830855000004,73.0,89.0
434,262.91045137500004,262.9902132,76.0,86.0
435,263.05330837500003,265.46878215000004,73.0,88.0
436,268.19616037500003,268.35330307500004,71.0,88.0
437,268.481874375,268.66996942500003,71.0,87.0
438,268.767588375,268.99020720000004,71.0,87.0
439,269.05330237500004,269.5663971,69.0,90.0
440,269.624730375,270.07472992500004,71.0,88.0
441,270.19615837500004,271.150919325,71.0,92.0
442,272.481870375,272.66996542500004,71.0,90.0
443,272.767584375,272.962822275,71.0,92.0
444,273.053298375,273.258060075,69.0,89.0
445,273.33901237500004,273.5473455,71.0,93.0
446,273.624726375,273.88305945,73.0,87.0
447,273.910440375,274.14972585000004,69.0,90.0
448,274.196154375,276.51877110000004,71.0,90.0
449,276.73424707500004,276.9425802,66.0,81.0
450,277.036627725,277.19853232500003,66.0,79.0
451,277.32948457500004,277.522341525,66.0,87.0
452,277.59853192500003,277.793769825,64.0,92.0
453,277.90210305,278.3521026,66.0,87.0
454,278.46043582500005,278.631864225,64.0,90.0
455,278.78186407500004,279.339006375,66.0,87.0
456,279.339006375,279.6854346,66.0,87.0
457,279.889005825,280.10448180000003,64.0,86.0
458,280.184243625,280.81519537500003,66.0,84.0
459,280.78900492500003,281.36638530000005,64.0,87.0
460,281.51162325,282.38781285000005,64.0,85.0
461,282.29852722500004,283.99495410000003,61.0,79.0
