,start,end,pitch,velocity
0,2.767854375,3.04523505,61.0,90.0
1,2.482140375,3.1214254500000003,45.0,91.0
2,3.196425375,3.4369013250000005,64.0,93.0
3,3.482139375,3.619044,57.0,73.0
4,3.6249963750000003,3.8059485750000004,69.0,86.0
5,3.9107103750000003,4.06428165,64.0,91.0
6,4.053567375,4.267852875,61.0,90.0
7,4.3392813750000006,4.451186025,64.0,84.0
8,3.2726157750000002,4.5333288000000005,45.0,89.0
9,3.0535683750000002,4.55475735,52.0,70.0
10,4.482138375,4.8404713500000005,61.0,77.0
11,5.053566375,5.198804325,64.0,89.0
12,4.7523762000000005,5.415470775,45.0,91.0
13,5.482137375000001,5.622613425000001,61.0,92.0
14,5.767851375,5.86904175,57.0,86.0
15,5.9107083750000005,6.094041525000001,57.0,83.0
16,5.9107083750000005,6.127374825,69.0,90.0
17,5.572613475000001,6.3309460500000005,45.0,92.0
18,6.196422375,6.382136475,57.0,86.0
19,6.053565375000001,6.444041175000001,52.0,86.0
20,6.339279375,6.53570775,61.0,94.0
21,6.4821363750000005,6.624993375000001,52.0,91.0
22,6.624993375000001,6.767850375,57.0,91.0
23,6.429755475,6.8857074,40.0,94.0
24,6.767850375,7.196421375000001,61.0,92.0
25,7.339278375,7.7238018,61.0,75.0
26,7.045231050000001,7.733325600000001,42.0,91.0
27,8.053563375000001,8.195229900000001,61.0,89.0
28,7.910706375,8.260706025000001,57.0,90.0
29,8.196420375,8.374991625,66.0,93.0
30,8.482134375000001,8.666658,61.0,91.0
31,7.624992375000001,8.823800700000001,49.0,74.0
32,8.767848375,9.06427665,57.0,91.0
33,7.8845159250000005,9.152371800000001,42.0,89.0
34,9.053562375,9.194038425,49.0,80.0
35,9.196419375000001,9.34999065,61.0,92.0
36,9.624990375000001,9.94999005,61.0,91.0
37,9.327371625000001,10.003561425000001,42.0,88.0
38,10.053561375000001,10.248799275000001,57.0,83.0
39,10.196418375,10.336894425,61.0,92.0
40,10.482132375,10.867846275000002,66.0,87.0
41,10.767846375000001,10.999989000000001,49.0,71.0
42,10.910703375,11.151179325000001,61.0,94.0
43,11.196417375000001,11.4047505,57.0,86.0
44,10.164275550000001,11.483321850000001,42.0,90.0
45,11.339274375,11.502369450000002,61.0,92.0
46,11.910702375000001,12.188083050000001,61.0,90.0
47,11.624988375000001,12.264273450000001,45.0,91.0
48,12.339273375000001,12.579749325000002,64.0,93.0
49,12.624987375000002,12.761892000000001,57.0,73.0
50,12.767844375000001,12.948796575000001,69.0,86.0
51,13.053558375000001,13.20712965,64.0,91.0
52,13.196415375,13.410700875000002,61.0,90.0
53,13.482129375000001,13.594034025000001,64.0,84.0
54,12.415463775000001,13.6761768,45.0,89.0
55,12.196416375,13.697605350000002,52.0,70.0
56,13.624986375,13.98331935,61.0,77.0
57,14.196414375000002,14.341652325000002,64.0,89.0
58,13.895224200000001,14.558318775000002,45.0,91.0
59,14.624985375000001,14.765461425000002,61.0,92.0
60,14.910699375000002,15.011889750000002,57.0,86.0
61,15.053556375000001,15.236889525,57.0,83.0
62,15.053556375000001,15.270222825000001,69.0,90.0
63,14.715461475000001,15.47379405,45.0,92.0
64,15.339270375000002,15.524984475000002,57.0,86.0
65,15.196413375,15.586889175000001,52.0,86.0
66,15.482127375000001,15.678555750000001,61.0,94.0
67,15.624984375,15.767841375000001,52.0,91.0
68,15.767841375000001,15.910698375,57.0,91.0
69,15.572603475000001,16.028555400000002,40.0,94.0
70,15.910698375,16.339269375,61.0,92.0
71,16.482126375,16.8666498,61.0,75.0
72,16.188079050000002,16.8761736,42.0,91.0
73,17.196411375,17.338077900000002,61.0,89.0
74,17.053554375,17.403554025000002,57.0,90.0
75,17.339268375,17.517839625,66.0,93.0
76,17.624982375000002,17.809506000000003,61.0,91.0
77,16.767840375000002,17.9666487,49.0,74.0
78,17.910696375,18.20712465,57.0,91.0
79,17.027363925,18.2952198,42.0,89.0
80,18.196410375000003,18.336886425000003,49.0,80.0
81,18.339267375000002,18.492838650000003,61.0,92.0
82,18.767838375,19.09283805,61.0,91.0
83,18.470219625000002,19.146409425,42.0,88.0
84,19.196409375,19.391647275,57.0,83.0
85,19.339266375,19.479742425,61.0,92.0
86,19.624980375,20.010694275000002,66.0,87.0
87,19.910694375000002,20.142837,49.0,71.0
88,20.053551375,20.294027325000002,61.0,94.0
89,20.339265375,20.547598500000003,57.0,86.0
90,19.30712355,20.62616985,42.0,90.0
91,20.482122375000003,20.64521745,61.0,92.0
92,20.767836375,21.1761693,59.0,85.0
93,21.053550375,21.292835850000003,66.0,83.0
94,20.79759825,21.416645250000002,47.0,96.0
95,21.482121375000002,21.758311575,62.0,90.0
96,21.339264375000003,21.897597150000003,54.0,66.0
97,21.767835375,21.915454275000002,59.0,88.0
98,21.910692375,22.260692025,66.0,86.0
99,21.589264125000003,22.642834500000003,47.0,94.0
100,22.482120375,22.7380725,62.0,95.0
101,22.196406375000002,22.884500925,54.0,80.0
102,22.739262975000003,22.958310375,42.0,92.0
103,22.767834375000003,22.967834175,59.0,85.0
104,22.910691375000003,23.110691175000003,62.0,90.0
105,23.339262375,23.648785875,62.0,85.0
106,23.0237865,23.740452450000003,47.0,95.0
107,23.767833375000002,24.105928275,59.0,86.0
108,24.053547375,24.20711865,62.0,85.0
109,24.196404375,24.479737425000003,59.0,90.0
110,23.624976375000003,24.572594475000002,54.0,77.0
111,24.482118375000002,24.907117950000004,66.0,86.0
112,24.767832375,24.920213175,54.0,76.0
113,24.910689375,25.058308275,62.0,89.0
114,23.88807135,25.174974825000003,47.0,92.0
115,25.053546375000003,25.361879400000003,59.0,86.0
116,25.624974375,25.929735975000003,64.0,86.0
117,25.314260400000002,25.946402625,40.0,90.0
118,26.053545375000002,26.358306975,59.0,91.0
119,26.339259375,26.542830600000002,64.0,86.0
120,26.482116375,26.765449425000003,68.0,94.0
121,26.767830375000003,26.873782650000003,64.0,91.0
122,26.910687375000002,27.083306250000003,59.0,90.0
123,26.128545300000003,27.24997275,40.0,87.0
124,27.196401375,27.296401275,64.0,90.0
125,27.322591725000002,27.535686750000004,47.0,97.0
126,27.339258375000004,27.539258175,59.0,83.0
127,27.482115375000003,27.6237819,64.0,86.0
128,27.910686375,28.08806715,64.0,90.0
129,27.6333057,28.334495475,40.0,79.0
130,28.196400375000003,28.395209700000002,59.0,89.0
131,28.339257375000003,28.574971425,64.0,89.0
132,28.624971375,28.888066350000003,68.0,87.0
133,28.910685375000003,29.12616135,64.0,85.0
134,29.053542375000003,29.265446925000003,59.0,86.0
135,29.339256375,29.492827650000002,64.0,91.0
136,28.460685825000002,29.502351450000003,40.0,93.0
137,29.624970375000004,29.809494,59.0,85.0
138,29.605922775000003,29.892827250000003,40.0,94.0
139,29.910684375000002,30.245207850000003,62.0,77.0
140,28.767828375,30.339255375,52.0,92.0
141,29.910684375000002,30.536874225000002,66.0,81.0
142,30.482112375000003,30.644016975000003,62.0,86.0
143,30.767826375000002,31.020207075000002,69.0,86.0
144,30.767826375000002,31.030921350000003,66.0,85.0
145,30.767826375000002,31.058302275000003,62.0,83.0
146,31.339254375000003,31.709492100000002,69.0,79.0
147,29.910684375000002,32.015444175,50.0,86.0
148,30.196398375,32.044015575,57.0,80.0
149,31.910682375000004,32.327348625,62.0,78.0
150,32.196396375,32.538062700000005,66.0,75.0
151,32.196396375,32.6094912,69.0,77.0
152,32.767824375000004,32.841633825,62.0,84.0
153,33.053538375,33.1333002,66.0,86.0
154,33.053538375,33.1761573,62.0,86.0
155,33.053538375,33.1761573,74.0,92.0
156,32.482110375000005,33.498776025000005,57.0,72.0
157,32.196396375,33.544014075,50.0,91.0
158,33.624966375,33.729728175000005,62.0,85.0
159,33.624966375,33.744013875,66.0,83.0
160,33.624966375,33.758299575,69.0,86.0
161,34.196394375000004,34.3237752,62.0,87.0
162,34.482108375,34.613060625,57.0,82.0
163,34.482108375,35.022584025,59.0,86.0
164,35.053536375,35.17377435,57.0,77.0
165,35.339250375000006,35.526154950000006,57.0,85.0
166,35.339250375000006,35.60234535,64.0,89.0
167,35.910678375,36.047583,57.0,81.0
168,35.910678375,36.0571068,64.0,84.0
169,34.767822375,36.5952015,52.0,82.0
170,34.482108375,36.598772925000006,45.0,87.0
171,36.767820375,37.127343825000004,57.0,77.0
172,36.767820375,37.3190103,64.0,82.0
173,37.053534375000005,37.398772125,52.0,75.0
174,36.767820375,37.420200675000004,45.0,86.0
175,37.339248375000004,37.4618673,57.0,78.0
176,37.624962375,37.803533625,57.0,84.0
177,37.624962375,37.844009775,64.0,88.0
178,38.196390375,38.36424735,57.0,81.0
179,38.196390375,38.3951997,64.0,87.0
180,39.053532375,39.238056,57.0,76.0
181,39.053532375,39.373770150000006,62.0,79.0
182,39.339246375,39.594008025,57.0,72.0
183,39.624960375,39.752341200000004,62.0,80.0
184,39.910674375,40.047579000000006,57.0,86.0
185,39.910674375,40.067817075,64.0,89.0
186,40.482102375000004,40.598768925,57.0,77.0
187,40.482102375000004,40.619007,62.0,80.0
188,39.053532375,40.682102175000004,50.0,93.0
189,41.339244375,41.455910925000005,57.0,78.0
190,41.339244375,41.685672600000004,62.0,84.0
191,41.339244375,41.7904344,66.0,79.0
192,41.624958375000006,41.994005625,57.0,78.0
193,41.910672375000004,42.042815100000006,62.0,80.0
194,42.196386375,42.527338425,57.0,85.0
195,42.196386375,42.596385975000004,64.0,88.0
196,42.767814375,42.867814275,62.0,87.0
197,41.339244375,42.891623775000006,50.0,87.0
198,42.767814375,42.927338025000005,57.0,86.0
199,43.624956375000004,43.7856705,57.0,75.0
200,43.624956375000004,43.999956000000005,62.0,82.0
201,44.196384375,44.33566995,57.0,73.0
202,44.482098375,44.753526675,57.0,81.0
203,44.482098375,44.910669375000005,64.0,87.0
204,45.339240375,45.47971642500001,57.0,80.0
205,43.624956375000004,45.640430550000005,45.0,87.0
206,43.910670375,45.659478150000005,52.0,87.0
207,45.339240375,45.778525650000006,61.0,82.0
208,45.624954375,45.829716075,57.0,73.0
209,45.910668375,46.253525175,57.0,76.0
210,45.910668375,46.339239375000005,64.0,86.0
211,46.482096375000005,46.619001000000004,59.0,82.0
212,46.767810375,47.001143475000006,57.0,80.0
213,46.767810375,47.049952950000005,61.0,87.0
214,46.196382375000006,47.446381125,52.0,79.0
215,47.339238375,47.636857125000006,57.0,82.0
216,47.339238375,47.655904725000006,61.0,86.0
217,47.339238375,47.798761725000006,64.0,88.0
218,47.62495237500001,48.053523375000005,52.0,80.0
219,47.910666375000005,48.072570975000005,57.0,81.0
220,45.910668375,48.1142376,45.0,87.0
221,48.196380375000004,48.548760975,59.0,84.0
222,48.196380375000004,48.80709405,66.0,78.0
223,48.196380375000004,48.826141650000004,62.0,84.0
224,48.767808375,48.9189987,57.0,86.0
225,49.053522375,49.77375975,62.0,89.0
226,49.053522375,49.784474025,66.0,86.0
227,48.482094375,50.18209267500001,54.0,85.0
228,48.196380375000004,50.204711700000004,47.0,88.0
229,50.196378375,50.28804495000001,59.0,75.0
230,49.910664375,50.305902075000006,62.0,87.0
231,49.910664375,50.316616350000004,66.0,87.0
232,50.482092375,50.863044375,59.0,80.0
233,50.482092375,51.140425050000005,66.0,81.0
234,50.482092375,51.147567900000006,62.0,83.0
235,51.053520375000005,51.1809012,59.0,76.0
236,50.767806375000006,51.4856628,54.0,62.0
237,51.339234375000004,51.707091150000004,59.0,84.0
238,51.339234375000004,51.7237578,62.0,87.0
239,51.339234375000004,51.733281600000005,66.0,87.0
240,51.910662375,52.039233675000006,62.0,85.0
241,51.910662375,52.05470985,66.0,86.0
242,51.910662375,52.058281275000006,59.0,85.0
243,50.482092375,52.09756695,47.0,87.0
244,52.767804375000004,53.1332802,57.0,77.0
245,52.767804375000004,53.2142325,61.0,74.0
246,52.767804375000004,53.398756125000006,64.0,81.0
247,53.339232375,53.482089375,57.0,72.0
248,53.624946375,53.921374650000004,64.0,89.0
249,53.624946375,53.927327025000004,59.0,82.0
250,54.196374375000005,54.324945675,64.0,87.0
251,54.196374375000005,54.328517100000006,57.0,81.0
252,53.053518375,54.870183225000005,52.0,76.0
253,52.767804375000004,54.879707025,45.0,86.0
254,55.053516375,55.3856589,57.0,79.0
255,55.053516375,55.4713731,64.0,86.0
256,55.624944375000005,55.724944275000006,57.0,72.0
257,55.910658375000004,56.316610350000005,61.0,86.0
258,55.910658375000004,56.328515100000004,64.0,88.0
259,55.910658375000004,56.36899125,57.0,83.0
260,56.76780037500001,56.86899075,61.0,88.0
261,55.053516375,56.87970502500001,45.0,88.0
262,56.76780037500001,56.88565740000001,57.0,87.0
263,56.76780037500001,56.9380383,64.0,89.0
264,55.33923037500001,56.941609725000006,52.0,75.0
265,57.339228375000005,57.72137085000001,59.0,80.0
266,57.339228375000005,57.786846975,62.0,78.0
267,57.339228375000005,57.864227850000006,66.0,81.0
268,57.910656375,57.9904182,59.0,60.0
269,58.196370375,58.403513025,59.0,87.0
270,58.196370375,58.423751100000004,62.0,88.0
271,58.196370375,58.45113202500001,66.0,86.0
272,58.767798375000005,58.908274425,62.0,75.0
273,58.767798375000005,58.9094649,59.0,72.0
274,58.767798375000005,58.92136965,66.0,70.0
275,57.339228375000005,59.44994055,47.0,88.0
276,59.624940375,59.914225800000004,59.0,80.0
277,59.624940375,60.00708285,71.0,83.0
278,60.196368375000006,60.326130150000004,59.0,81.0
279,59.91065437500001,60.61184415,54.0,70.0
280,60.482082375000005,61.05231990000001,62.0,86.0
281,60.482082375000005,61.074938925000005,59.0,86.0
282,60.482082375000005,61.1666055,66.0,87.0
283,61.053510375,61.284462525,54.0,71.0
284,59.624940375,61.399938600000006,47.0,86.0
285,61.33922437500001,61.465414725,59.0,87.0
286,61.33922437500001,61.734462075,62.0,92.0
287,61.624938375000006,61.75946205,59.0,77.0
288,61.910652375000005,62.129699775000006,59.0,81.0
289,61.910652375000005,62.16898545,64.0,86.0
290,62.482080375,62.613032625,52.0,88.0
291,62.767794375,63.0999369,59.0,91.0
292,62.767794375,63.158270175000006,52.0,90.0
293,63.339222375000006,63.40350802500001,52.0,84.0
294,63.339222375000006,63.482079375000005,56.0,87.0
295,63.339222375000006,63.50231745000001,59.0,89.0
296,62.196366375000004,63.703507725,47.0,77.0
297,61.910652375000005,63.99517410000001,40.0,89.0
298,64.196364375,64.52850690000001,52.0,82.0
299,64.196364375,64.61303062500001,56.0,82.0
300,64.196364375,64.717792425,64.0,86.0
301,64.196364375,64.82493517500001,59.0,86.0
302,64.767792375,64.88922082500001,52.0,84.0
303,64.482078375,65.12493487500001,47.0,73.0
304,65.053506375,65.141601525,52.0,81.0
305,65.053506375,65.41302982500001,64.0,87.0
306,65.053506375,65.428506,56.0,90.0
307,65.053506375,65.458267875,59.0,87.0
308,65.62493437500001,65.78326755,52.0,92.0
309,65.91064837500001,66.44636212500001,56.0,89.0
310,66.196362375,66.47136210000001,52.0,91.0
311,64.196364375,66.482076375,40.0,88.0
312,65.33922037500001,66.482076375,47.0,78.0
313,65.91064837500001,66.48326685,59.0,88.0
314,66.767790375,67.04517105000001,61.0,90.0
315,67.19636137500001,67.436837325,64.0,93.0
316,67.48207537500001,67.61898000000001,57.0,73.0
317,67.624932375,67.80588457500001,69.0,86.0
318,67.910646375,68.06421765,64.0,91.0
319,68.053503375,68.26778887500001,61.0,90.0
320,68.339217375,68.451122025,64.0,84.0
321,66.482076375,68.54516955000001,45.0,90.0
322,67.053504375,68.55469335000001,52.0,70.0
323,68.48207437500001,68.84040735,61.0,77.0
324,69.05350237500001,69.198740325,64.0,89.0
325,69.482073375,69.622549425,61.0,92.0
326,69.76778737500001,69.86897775,57.0,86.0
327,68.76778837500001,69.884453925,45.0,90.0
328,69.910644375,70.093977525,57.0,83.0
329,69.910644375,70.12731082500001,69.0,90.0
330,70.196358375,70.382072475,57.0,86.0
331,70.05350137500001,70.443977175,52.0,86.0
332,70.33921537500001,70.53564375,61.0,94.0
333,70.482072375,70.62492937500001,52.0,91.0
334,70.62492937500001,70.767786375,57.0,91.0
335,70.767786375,71.196357375,61.0,92.0
336,71.33921437500001,71.72373780000001,61.0,75.0
337,72.053499375,72.1951659,61.0,89.0
338,71.91064237500001,72.26064202500001,57.0,90.0
339,72.19635637500001,72.374927625,66.0,93.0
340,72.482070375,72.666594,61.0,91.0
341,71.62492837500001,72.82373670000001,49.0,74.0
342,71.053500375,72.84516525000001,42.0,92.0
343,72.767784375,73.06421265,57.0,91.0
344,73.053498375,73.19397442500001,49.0,80.0
345,73.19635537500001,73.34992665,61.0,92.0
346,73.624926375,73.94992605,61.0,91.0
347,74.053497375,74.248735275,57.0,83.0
348,74.196354375,74.336830425,61.0,92.0
349,74.48206837500001,74.86778227500001,66.0,87.0
350,74.76778237500001,74.999925,49.0,71.0
351,73.339212375,75.108258225,42.0,95.0
352,74.910639375,75.151115325,61.0,94.0
353,75.196353375,75.40468650000001,57.0,86.0
354,75.33921037500001,75.50230545000001,61.0,92.0
355,75.910638375,76.18801905000001,61.0,90.0
356,76.33920937500001,76.579685325,64.0,93.0
357,76.62492337500001,76.76182800000001,57.0,73.0
358,76.767780375,76.94873257500001,69.0,86.0
359,77.053494375,77.20706565,64.0,91.0
360,77.196351375,77.41063687500001,61.0,90.0
361,77.482065375,77.593970025,64.0,84.0
362,75.624924375,77.68801755000001,45.0,90.0
363,76.196352375,77.69754135000001,52.0,70.0
364,77.62492237500001,77.98325535000001,61.0,77.0
365,78.19635037500001,78.341588325,64.0,89.0
366,78.624921375,78.765397425,61.0,92.0
367,78.91063537500001,79.01182575,57.0,86.0
368,77.91063637500001,79.027301925,45.0,90.0
369,79.053492375,79.236825525,57.0,83.0
370,79.053492375,79.27015882500001,69.0,90.0
371,79.339206375,79.524920475,57.0,86.0
372,79.19634937500001,79.586825175,52.0,86.0
373,79.48206337500001,79.67849175,61.0,94.0
374,79.624920375,79.76777737500001,52.0,91.0
375,79.76777737500001,79.910634375,57.0,91.0
376,79.910634375,80.339205375,61.0,92.0
377,80.48206237500001,80.86658580000001,61.0,75.0
378,81.196347375,81.3380139,61.0,89.0
379,81.05349037500001,81.40349002500001,57.0,90.0
380,81.33920437500001,81.517775625,66.0,93.0
381,81.62491837500001,81.809442,61.0,91.0
382,80.76777637500001,81.96658470000001,49.0,74.0
383,80.196348375,81.98801325000001,42.0,92.0
384,81.910632375,82.20706065,57.0,91.0
385,82.196346375,82.33682242500001,49.0,80.0
386,82.33920337500001,82.49277465,61.0,92.0
387,82.767774375,83.09277405,61.0,91.0
388,83.196345375,83.391583275,57.0,83.0
389,83.339202375,83.479678425,61.0,92.0
390,83.62491637500001,84.01063027500001,66.0,87.0
391,83.91063037500001,84.142773,49.0,71.0
392,82.482060375,84.251106225,42.0,95.0
393,84.053487375,84.293963325,61.0,94.0
394,84.339201375,84.54753450000001,57.0,86.0
395,84.48205837500001,84.64515345000001,61.0,92.0
396,85.053486375,85.33086705000001,61.0,90.0
397,85.48205737500001,85.722533325,64.0,93.0
398,85.76777137500001,85.90467600000001,57.0,73.0
399,85.910628375,86.09158057500001,69.0,86.0
400,86.196342375,86.34991365,64.0,91.0
401,86.339199375,86.55348487500001,61.0,90.0
402,86.624913375,86.736818025,64.0,84.0
403,84.767772375,86.83086555000001,45.0,90.0
404,85.339200375,86.84038935000001,52.0,70.0
405,86.76777037500001,87.12610335000001,61.0,77.0
406,87.33919837500001,87.484436325,64.0,89.0
407,87.767769375,87.908245425,61.0,92.0
408,88.05348337500001,88.15467375,57.0,86.0
409,87.05348437500001,88.170149925,45.0,90.0
410,88.196340375,88.379673525,57.0,83.0
411,88.196340375,88.41300682500001,69.0,90.0
412,88.482054375,88.667768475,57.0,86.0
413,88.33919737500001,88.729673175,52.0,86.0
414,88.62491137500001,88.82133975,61.0,94.0
415,88.767768375,88.91062537500001,52.0,91.0
416,88.91062537500001,89.053482375,57.0,91.0
417,89.053482375,89.482053375,61.0,92.0
418,89.62491037500001,90.00943380000001,61.0,75.0
419,90.339195375,90.48086190000001,61.0,89.0
420,90.19633837500001,90.54633802500001,57.0,90.0
421,90.48205237500001,90.660623625,66.0,93.0
422,90.76776637500001,90.95229,61.0,91.0
423,89.91062437500001,91.10943270000001,49.0,74.0
424,89.339196375,91.13086125000001,42.0,92.0
425,91.053480375,91.34990865,57.0,91.0
426,91.339194375,91.47967042500001,49.0,80.0
427,91.48205137500001,91.63562265,61.0,92.0
428,91.910622375,92.23562205,61.0,91.0
429,92.33919337500001,92.534431275,57.0,83.0
430,92.482050375,92.622526425,61.0,92.0
431,92.76776437500001,93.15347827500001,66.0,87.0
432,93.05347837500001,93.285621,49.0,71.0
433,91.624908375,93.393954225,42.0,95.0
434,93.196335375,93.43681132500001,61.0,94.0
435,93.482049375,93.69038250000001,57.0,86.0
436,93.62490637500001,93.78800145000001,61.0,92.0
437,93.91062037500001,94.3189533,59.0,85.0
438,94.196334375,94.43561985000001,66.0,83.0
439,94.62490537500001,94.90109557500001,62.0,90.0
440,94.482048375,95.04038115,54.0,66.0
441,93.91062037500001,95.05823827500001,47.0,88.0
442,95.053476375,95.05823827500001,47.0,82.0
443,94.91061937500001,95.05823827500001,59.0,88.0
444,95.053476375,95.403476025,66.0,86.0
445,95.624904375,95.88085650000001,62.0,95.0
446,95.339190375,96.027284925,54.0,80.0
447,95.91061837500001,96.11061817500001,59.0,85.0
448,96.053475375,96.253475175,62.0,90.0
449,96.48204637500001,96.79156987500001,62.0,85.0
450,96.910617375,97.248712275,59.0,86.0
451,97.196331375,97.34990265,62.0,85.0
452,97.339188375,97.622521425,59.0,90.0
453,96.76776037500001,97.71537847500001,54.0,77.0
454,97.624902375,98.04990195,66.0,86.0
455,97.910616375,98.062997175,54.0,76.0
456,96.19633237500001,98.1379971,47.0,90.0
457,98.05347337500001,98.20109227500001,62.0,89.0
458,98.196330375,98.50466340000001,59.0,86.0
459,98.76775837500001,99.072519975,64.0,86.0
460,99.196329375,99.50109097500001,59.0,91.0
461,99.482043375,99.68561460000001,64.0,86.0
462,99.62490037500001,99.908233425,68.0,94.0
463,99.91061437500001,100.01656665,64.0,91.0
464,100.053471375,100.22609025000001,59.0,90.0
465,100.33918537500001,100.43918527500001,64.0,90.0
466,99.05347237500001,100.56299467500001,47.0,81.0
467,98.482044375,100.582042275,40.0,91.0
468,100.482042375,100.682042175,59.0,83.0
469,100.62489937500001,100.7665659,64.0,86.0
470,101.053470375,101.23085115,64.0,90.0
471,101.339184375,101.5379937,59.0,89.0
472,101.48204137500001,101.71775542500001,64.0,89.0
473,101.76775537500001,102.03085035000001,68.0,87.0
474,102.053469375,102.26894535000001,64.0,85.0
475,102.19632637500001,102.40823092500001,59.0,86.0
476,102.48204037500001,102.63561165,64.0,91.0
477,100.767756375,102.90465900000001,40.0,92.0
478,102.76775437500001,102.952278,59.0,85.0
479,101.91061237500001,103.48203937500001,52.0,92.0
480,103.33918237500001,103.61656305000001,61.0,90.0
481,103.05346837500001,103.69275345000001,45.0,91.0
482,103.76775337500001,104.008229325,64.0,93.0
483,104.05346737500001,104.19037200000001,57.0,73.0
484,104.196324375,104.37727657500001,69.0,86.0
485,104.482038375,104.63560965,64.0,91.0
486,104.62489537500001,104.83918087500001,61.0,90.0
487,104.910609375,105.022514025,64.0,84.0
488,103.84394377500001,105.1046568,45.0,89.0
489,103.624896375,105.12608535000001,52.0,70.0
490,105.05346637500001,105.41179935000001,61.0,77.0
491,105.62489437500001,105.770132325,64.0,89.0
492,105.32370420000001,105.98679877500001,45.0,91.0
493,106.053465375,106.193941425,61.0,92.0
494,106.339179375,106.44036975,57.0,86.0
495,106.482036375,106.665369525,57.0,83.0
496,106.482036375,106.69870282500001,69.0,90.0
497,106.143941475,106.90227405,45.0,92.0
498,106.767750375,106.953464475,57.0,86.0
499,106.62489337500001,107.015369175,52.0,86.0
500,106.91060737500001,107.10703575000001,61.0,94.0
501,107.053464375,107.19632137500001,52.0,91.0
502,107.19632137500001,107.339178375,57.0,91.0
503,107.001083475,107.45703540000001,40.0,94.0
504,107.339178375,107.76774937500001,61.0,92.0
505,107.91060637500001,108.29512980000001,61.0,75.0
506,107.61655905,108.30465360000001,42.0,91.0
507,108.624891375,108.76655790000001,61.0,89.0
508,108.48203437500001,108.83203402500001,57.0,90.0
509,108.76774837500001,108.946319625,66.0,93.0
510,109.05346237500001,109.237986,61.0,91.0
511,108.19632037500001,109.3951287,49.0,74.0
512,109.33917637500001,109.63560465,57.0,91.0
513,108.45584392500001,109.7236998,42.0,89.0
514,109.624890375,109.76536642500001,49.0,80.0
515,109.76774737500001,109.92131865,61.0,92.0
516,110.196318375,110.52131805,61.0,91.0
517,109.898699625,110.57488942500001,42.0,88.0
518,110.62488937500001,110.820127275,57.0,83.0
519,110.767746375,110.908222425,61.0,92.0
520,111.05346037500001,111.43917427500001,66.0,87.0
521,111.33917437500001,111.57131700000001,49.0,71.0
522,111.482031375,111.72250732500001,61.0,94.0
523,111.767745375,111.97607850000001,57.0,86.0
524,110.73560355000001,112.05464985,42.0,90.0
525,111.91060237500001,112.07369745000001,61.0,92.0
526,112.48203037500001,112.75941105000001,61.0,90.0
527,112.19631637500001,112.83560145000001,45.0,91.0
528,112.91060137500001,113.151077325,64.0,93.0
529,113.19631537500001,113.33322000000001,57.0,73.0
530,113.339172375,113.52012457500001,69.0,86.0
531,113.624886375,113.77845765000001,64.0,91.0
532,113.76774337500001,113.98202887500001,61.0,90.0
533,114.05345737500001,114.16536202500001,64.0,84.0
534,112.98679177500001,114.2475048,45.0,89.0
535,112.767744375,114.26893335000001,52.0,70.0
536,114.19631437500001,114.55464735000001,61.0,77.0
537,114.76774237500001,114.912980325,64.0,89.0
538,114.46655220000001,115.12964677500001,45.0,91.0
539,115.196313375,115.336789425,61.0,92.0
540,115.482027375,115.58321775,57.0,86.0
541,115.62488437500001,115.808217525,57.0,83.0
542,115.62488437500001,115.84155082500001,69.0,90.0
543,115.286789475,116.04512205,45.0,92.0
544,115.910598375,116.096312475,57.0,86.0
545,115.76774137500001,116.158217175,52.0,86.0
546,116.05345537500001,116.24988375000001,61.0,94.0
547,116.196312375,116.33916937500001,52.0,91.0
548,116.33916937500001,116.482026375,57.0,91.0
549,116.143931475,116.59988340000001,40.0,94.0
550,116.482026375,116.91059737500001,61.0,92.0
551,117.053454375,117.43797780000001,61.0,75.0
552,116.75940705000001,117.44750160000001,42.0,91.0
553,117.767739375,117.90940590000001,61.0,89.0
554,117.62488237500001,117.97488202500001,57.0,90.0
555,117.91059637500001,118.089167625,66.0,93.0
556,118.19631037500001,118.38083400000001,61.0,91.0
557,117.33916837500001,118.5379767,49.0,74.0
558,118.48202437500001,118.77845265,57.0,91.0
559,117.59869192500001,118.8665478,42.0,89.0
560,118.76773837500001,118.90821442500001,49.0,80.0
561,118.91059537500001,119.06416665,61.0,92.0
562,119.339166375,119.66416605,61.0,91.0
563,119.041547625,119.71773742500001,42.0,88.0
564,119.76773737500001,119.962975275,57.0,83.0
565,119.910594375,120.051070425,61.0,92.0
566,120.19630837500002,120.58202227500001,66.0,87.0
567,120.48202237500001,120.71416500000001,49.0,71.0
568,120.624879375,120.86535532500001,61.0,94.0
569,120.910593375,121.11892650000001,57.0,86.0
570,119.87845155000001,121.19749785,42.0,90.0
571,121.05345037500001,121.21654545000001,61.0,92.0
572,121.33916437500001,121.7474973,59.0,85.0
573,121.62487837500001,121.86416385000001,66.0,83.0
574,121.36892625000002,121.98797325000001,47.0,96.0
575,122.05344937500001,122.329639575,62.0,90.0
576,121.91059237500001,122.46892515,54.0,66.0
577,122.33916337500001,122.48678227500001,59.0,88.0
578,122.482020375,122.832020025,66.0,86.0
579,122.16059212500001,123.21416250000001,47.0,94.0
580,123.053448375,123.30940050000001,62.0,95.0
581,122.767734375,123.455828925,54.0,80.0
582,123.31059097500001,123.529638375,42.0,92.0
583,123.33916237500002,123.53916217500002,59.0,85.0
584,123.48201937500001,123.68201917500001,62.0,90.0
585,123.91059037500001,124.22011387500001,62.0,85.0
586,123.59511450000001,124.31178045000001,47.0,95.0
587,124.339161375,124.677256275,59.0,86.0
588,124.624875375,124.77844665,62.0,85.0
589,124.76773237500001,125.051065425,59.0,90.0
590,124.19630437500001,125.14392247500001,54.0,77.0
591,125.05344637500001,125.47844595000001,66.0,86.0
592,125.339160375,125.49154117500001,54.0,76.0
593,125.48201737500001,125.62963627500001,62.0,89.0
594,124.45939935000001,125.74630282500001,47.0,92.0
595,125.624874375,125.93320740000001,59.0,86.0
596,126.196302375,126.50106397500001,64.0,86.0
597,125.8855884,126.51773062500001,40.0,90.0
598,126.624873375,126.92963497500001,59.0,91.0
599,126.910587375,127.11415860000001,64.0,86.0
600,127.05344437500001,127.33677742500001,68.0,94.0
601,127.33915837500001,127.44511065,64.0,91.0
602,127.482015375,127.65463425000002,59.0,90.0
603,126.69987330000001,127.82130075,40.0,87.0
604,127.76772937500002,127.867729275,64.0,90.0
605,127.893919725,128.10701475000002,47.0,97.0
606,127.91058637500001,128.110586175,59.0,83.0
607,128.053443375,128.1951099,64.0,86.0
608,128.482014375,128.65939515000002,64.0,90.0
609,128.20463370000002,128.905823475,40.0,79.0
610,128.76772837500002,128.9665377,59.0,89.0
611,128.910585375,129.146299425,64.0,89.0
612,129.196299375,129.45939435,68.0,87.0
613,129.482013375,129.69748935,64.0,85.0
614,129.624870375,129.83677492500001,59.0,86.0
615,129.910584375,130.06415565,64.0,91.0
616,129.032013825,130.07367945000001,40.0,93.0
617,130.196298375,130.38082200000002,59.0,85.0
618,130.177250775,130.46415525,40.0,94.0
619,130.482012375,130.81653585,62.0,77.0
620,129.33915637500002,130.91058337500002,52.0,92.0
621,130.482012375,131.108202225,66.0,81.0
622,131.053440375,131.21534497500002,62.0,86.0
623,131.33915437500002,131.591535075,69.0,86.0
624,131.33915437500002,131.60224935000002,66.0,85.0
625,131.33915437500002,131.629630275,62.0,83.0
626,131.91058237500002,132.2808201,69.0,79.0
627,130.482012375,132.58677217500002,50.0,86.0
628,130.767726375,132.615343575,57.0,80.0
629,132.48201037500002,132.898676625,62.0,78.0
630,132.767724375,133.1093907,66.0,75.0
631,132.767724375,133.1808192,69.0,77.0
632,133.339152375,133.412961825,62.0,84.0
633,133.624866375,133.7046282,66.0,86.0
634,133.624866375,133.74748530000002,62.0,86.0
635,133.624866375,133.74748530000002,74.0,92.0
636,133.053438375,134.070104025,57.0,72.0
637,132.767724375,134.115342075,50.0,91.0
638,134.196294375,134.301056175,62.0,85.0
639,134.196294375,134.315341875,66.0,83.0
640,134.196294375,134.32962757500002,69.0,86.0
641,134.767722375,134.89510320000002,62.0,87.0
642,135.05343637500002,135.184388625,57.0,82.0
643,135.05343637500002,135.593912025,59.0,86.0
644,135.62486437500002,135.74510235,57.0,77.0
645,135.910578375,136.09748295,57.0,85.0
646,135.910578375,136.17367335,64.0,89.0
647,136.482006375,136.618911,57.0,81.0
648,136.482006375,136.6284348,64.0,84.0
649,135.339150375,137.1665295,52.0,82.0
650,135.05343637500002,137.170100925,45.0,87.0
651,137.339148375,137.69867182500002,57.0,77.0
652,137.339148375,137.8903383,64.0,82.0
653,137.62486237500002,137.97010012500002,52.0,75.0
654,137.339148375,137.991528675,45.0,86.0
655,137.910576375,138.03319530000002,57.0,78.0
656,138.19629037500002,138.37486162500002,57.0,84.0
657,138.19629037500002,138.415337775,64.0,88.0
658,138.76771837500002,138.93557535000002,57.0,81.0
659,138.76771837500002,138.9665277,64.0,87.0
660,139.624860375,139.80938400000002,57.0,76.0
661,139.624860375,139.94509815,62.0,79.0
662,139.910574375,140.16533602500002,57.0,72.0
663,140.19628837500002,140.3236692,62.0,80.0
664,140.482002375,140.618907,57.0,86.0
665,140.482002375,140.63914507500002,64.0,89.0
666,141.053430375,141.170096925,57.0,77.0
667,141.053430375,141.190335,62.0,80.0
668,139.624860375,141.253430175,50.0,93.0
669,141.91057237500002,142.027238925,57.0,78.0
670,141.91057237500002,142.2570006,62.0,84.0
671,141.91057237500002,142.3617624,66.0,79.0
672,142.196286375,142.56533362500002,57.0,78.0
673,142.482000375,142.6141431,62.0,80.0
674,142.767714375,143.098666425,57.0,85.0
675,142.767714375,143.167713975,64.0,88.0
676,143.33914237500002,143.43914227500002,62.0,87.0
677,141.91057237500002,143.46295177500002,50.0,87.0
678,143.33914237500002,143.498666025,57.0,86.0
679,144.196284375,144.3569985,57.0,75.0
680,144.196284375,144.57128400000002,62.0,82.0
681,144.767712375,144.90699795,57.0,73.0
682,145.05342637500002,145.324854675,57.0,81.0
683,145.05342637500002,145.48199737500002,64.0,87.0
684,145.910568375,146.05104442500001,57.0,80.0
685,144.196284375,146.21175855,45.0,87.0
686,144.48199837500002,146.23080615,52.0,87.0
687,145.910568375,146.34985365,61.0,82.0
688,146.196282375,146.40104407500002,57.0,73.0
689,146.48199637500002,146.82485317500002,57.0,76.0
690,146.48199637500002,146.910567375,64.0,86.0
691,147.05342437500002,147.19032900000002,59.0,82.0
692,147.339138375,147.57247147500001,57.0,80.0
693,147.339138375,147.62128095,61.0,87.0
694,146.767710375,148.017709125,52.0,79.0
695,147.910566375,148.208185125,57.0,82.0
696,147.910566375,148.22723272500002,61.0,86.0
697,147.910566375,148.370089725,64.0,88.0
698,148.19628037500001,148.62485137500002,52.0,80.0
699,148.481994375,148.643898975,57.0,81.0
700,146.48199637500002,148.68556560000002,45.0,87.0
701,148.767708375,149.12008897500002,59.0,84.0
702,148.767708375,149.37842205,66.0,78.0
703,148.767708375,149.39746965,62.0,84.0
704,149.339136375,149.4903267,57.0,86.0
705,149.62485037500002,150.34508775,62.0,89.0
706,149.62485037500002,150.355802025,66.0,86.0
707,149.053422375,150.753420675,54.0,85.0
708,148.767708375,150.7760397,47.0,88.0
709,150.76770637500002,150.85937295000002,59.0,75.0
710,150.481992375,150.877230075,62.0,87.0
711,150.481992375,150.88794435,66.0,87.0
712,151.053420375,151.434372375,59.0,80.0
713,151.053420375,151.71175305,66.0,81.0
714,151.053420375,151.7188959,62.0,83.0
715,151.624848375,151.75222920000002,59.0,76.0
716,151.33913437500001,152.05699080000002,54.0,62.0
717,151.910562375,152.27841915000002,59.0,84.0
718,151.910562375,152.2950858,62.0,87.0
719,151.910562375,152.30460960000002,66.0,87.0
720,152.481990375,152.610561675,62.0,85.0
721,152.481990375,152.62603785000002,66.0,86.0
722,152.481990375,152.629609275,59.0,85.0
723,151.053420375,152.66889495,47.0,87.0
724,153.33913237500002,153.70460820000002,57.0,77.0
725,153.33913237500002,153.7855605,61.0,74.0
726,153.33913237500002,153.970084125,64.0,81.0
727,153.91056037500002,154.053417375,57.0,72.0
728,154.196274375,154.49270265,64.0,89.0
729,154.196274375,154.498655025,59.0,82.0
730,154.767702375,154.896273675,64.0,87.0
731,154.767702375,154.89984510000002,57.0,81.0
732,153.624846375,155.441511225,52.0,76.0
733,153.33913237500002,155.451035025,45.0,86.0
734,155.624844375,155.9569869,57.0,79.0
735,155.624844375,156.04270110000002,64.0,86.0
736,156.196272375,156.296272275,57.0,72.0
737,156.48198637500002,156.88793835,61.0,86.0
738,156.48198637500002,156.8998431,64.0,88.0
739,156.48198637500002,156.94031925000002,57.0,83.0
740,157.339128375,157.44031875000002,61.0,88.0
741,155.624844375,157.45103302500002,45.0,88.0
742,157.339128375,157.4569854,57.0,87.0
743,157.339128375,157.5093663,64.0,89.0
744,155.91055837500002,157.512937725,52.0,75.0
745,157.910556375,158.29269885000002,59.0,80.0
746,157.910556375,158.358174975,62.0,78.0
747,157.910556375,158.43555585000001,66.0,81.0
748,158.48198437500002,158.56174620000002,59.0,60.0
749,158.767698375,158.97484102500002,59.0,87.0
750,158.767698375,158.9950791,62.0,88.0
751,158.767698375,159.02246002500002,66.0,86.0
752,159.339126375,159.47960242500002,62.0,75.0
753,159.339126375,159.4807929,59.0,72.0
754,159.339126375,159.49269765000003,66.0,70.0
755,157.910556375,160.02126855,47.0,88.0
756,160.19626837500002,160.48555380000002,59.0,80.0
757,160.19626837500002,160.57841085,71.0,83.0
758,160.767696375,160.89745815,59.0,81.0
759,160.481982375,161.18317215000002,54.0,70.0
760,161.053410375,161.6236479,62.0,86.0
761,161.053410375,161.64626692500002,59.0,86.0
762,161.053410375,161.73793350000003,66.0,87.0
763,161.62483837500002,161.855790525,54.0,71.0
764,160.19626837500002,161.9712666,47.0,86.0
765,161.910552375,162.036742725,59.0,87.0
766,161.910552375,162.305790075,62.0,92.0
767,162.19626637500002,162.33079005000002,59.0,77.0
768,162.481980375,162.701027775,59.0,81.0
769,162.481980375,162.74031345,64.0,86.0
770,163.053408375,163.184360625,52.0,88.0
771,163.33912237500002,163.6712649,59.0,91.0
772,163.33912237500002,163.729598175,52.0,90.0
773,163.910550375,163.974836025,52.0,84.0
774,163.910550375,164.053407375,56.0,87.0
775,163.910550375,164.07364545000001,59.0,89.0
776,162.76769437500002,164.274835725,47.0,77.0
777,162.481980375,164.5665021,40.0,89.0
778,164.76769237500002,165.09983490000002,52.0,82.0
779,164.76769237500002,165.18435862500002,56.0,82.0
780,164.76769237500002,165.28912042500002,64.0,86.0
781,164.76769237500002,165.396263175,59.0,86.0
782,165.33912037500002,165.46054882500002,52.0,84.0
783,165.053406375,165.696262875,47.0,73.0
784,165.624834375,165.71292952500002,52.0,81.0
785,165.624834375,165.98435782500002,64.0,87.0
786,165.624834375,165.99983400000002,56.0,90.0
787,165.624834375,166.029595875,59.0,87.0
788,166.196262375,166.35459555,52.0,92.0
789,166.48197637500002,167.017690125,56.0,89.0
790,166.767690375,167.04269010000002,52.0,91.0
791,164.76769237500002,167.053404375,40.0,88.0
792,165.91054837500002,167.053404375,47.0,78.0
793,166.48197637500002,167.05459485,59.0,88.0
794,167.339118375,167.61649905000002,61.0,90.0
795,167.767689375,168.00816532500002,64.0,93.0
796,168.05340337500002,168.19030800000002,57.0,73.0
797,168.196260375,168.37721257500002,69.0,86.0
798,168.48197437500002,168.63554565,64.0,91.0
799,168.624831375,168.839116875,61.0,90.0
800,168.910545375,169.022450025,64.0,84.0
801,167.053404375,169.11649755000002,45.0,90.0
802,167.624832375,169.12602135,52.0,70.0
803,169.05340237500002,169.41173535000001,61.0,77.0
804,169.62483037500002,169.770068325,64.0,89.0
805,170.05340137500002,170.193877425,61.0,92.0
806,170.339115375,170.44030575000002,57.0,86.0
807,169.339116375,170.45578192500003,45.0,90.0
808,170.481972375,170.665305525,57.0,83.0
809,170.481972375,170.69863882500002,69.0,90.0
810,170.767686375,170.95340047500002,57.0,86.0
811,170.62482937500002,171.015305175,52.0,86.0
812,170.910543375,171.10697175,61.0,94.0
813,171.05340037500002,171.19625737500002,52.0,91.0
814,171.19625737500002,171.339114375,57.0,91.0
815,171.339114375,171.767685375,61.0,92.0
816,171.910542375,172.2950658,61.0,75.0
817,172.62482737500002,172.7664939,61.0,89.0
818,172.481970375,172.831970025,57.0,90.0
819,172.76768437500002,172.94625562500002,66.0,93.0
820,173.053398375,173.23792200000003,61.0,91.0
821,172.19625637500002,173.3950647,49.0,74.0
822,171.62482837500002,173.41649325,42.0,92.0
823,173.339112375,173.63554065000002,57.0,91.0
824,173.62482637500003,173.76530242500002,49.0,80.0
825,173.76768337500002,173.92125465,61.0,92.0
826,174.19625437500002,174.52125405,61.0,91.0
827,174.624825375,174.82006327500002,57.0,83.0
828,174.76768237500002,174.908158425,61.0,92.0
829,175.053396375,175.43911027500002,66.0,87.0
830,175.33911037500002,175.571253,49.0,71.0
831,173.910540375,175.679586225,42.0,95.0
832,175.481967375,175.722443325,61.0,94.0
833,175.76768137500002,175.97601450000002,57.0,86.0
834,175.91053837500002,176.07363345000002,61.0,92.0
835,176.481966375,176.75934705,61.0,90.0
836,176.91053737500002,177.151013325,64.0,93.0
837,177.196251375,177.333156,57.0,73.0
838,177.33910837500002,177.520060575,69.0,86.0
839,177.624822375,177.77839365000003,64.0,91.0
840,177.767679375,177.98196487500002,61.0,90.0
841,178.053393375,178.165298025,64.0,84.0
842,176.196252375,178.25934555,45.0,90.0
843,176.76768037500003,178.26886935000002,52.0,70.0
844,178.196250375,178.55458335,61.0,77.0
845,178.767678375,178.91291632500003,64.0,89.0
846,179.196249375,179.33672542500003,61.0,92.0
847,179.48196337500002,179.58315375,57.0,86.0
848,178.48196437500002,179.598629925,45.0,90.0
849,179.624820375,179.80815352500002,57.0,83.0
850,179.624820375,179.841486825,69.0,90.0
851,179.91053437500003,180.096248475,57.0,86.0
852,179.767677375,180.15815317500002,52.0,86.0
853,180.05339137500002,180.24981975,61.0,94.0
854,180.196248375,180.339105375,52.0,91.0
855,180.339105375,180.48196237500002,57.0,91.0
856,180.48196237500002,180.910533375,61.0,92.0
857,181.05339037500002,181.43791380000002,61.0,75.0
858,181.767675375,181.90934190000002,61.0,89.0
859,181.62481837500002,181.97481802500002,57.0,90.0
860,181.910532375,182.089103625,66.0,93.0
861,182.19624637500002,182.38077,61.0,91.0
862,181.339104375,182.53791270000002,49.0,74.0
863,180.767676375,182.55934125000002,42.0,92.0
864,182.481960375,182.77838865,57.0,91.0
865,182.767674375,182.908150425,49.0,80.0
866,182.910531375,183.06410265000002,61.0,92.0
867,183.339102375,183.66410205000003,61.0,91.0
868,183.76767337500002,183.962911275,57.0,83.0
869,183.910530375,184.05100642500003,61.0,92.0
870,184.19624437500002,184.581958275,66.0,87.0
871,184.481958375,184.714101,49.0,71.0
872,183.05338837500003,184.82243422500002,42.0,95.0
873,184.62481537500003,184.86529132500002,61.0,94.0
874,184.910529375,185.1188625,57.0,86.0
875,185.053386375,185.21648145,61.0,92.0
876,185.624814375,185.90219505000002,61.0,90.0
877,186.053385375,186.29386132500002,64.0,93.0
878,186.33909937500002,186.47600400000002,57.0,73.0
879,186.481956375,186.66290857500002,69.0,86.0
880,186.76767037500002,186.92124165,64.0,91.0
881,186.91052737500002,187.124812875,61.0,90.0
882,187.196241375,187.308146025,64.0,84.0
883,185.33910037500002,187.40219355000002,45.0,90.0
884,185.910528375,187.41171735,52.0,70.0
885,187.33909837500002,187.69743135000002,61.0,77.0
886,187.91052637500002,188.055764325,64.0,89.0
887,188.33909737500002,188.479573425,61.0,92.0
888,188.624811375,188.72600175000002,57.0,86.0
889,187.624812375,188.74147792500003,45.0,90.0
890,188.767668375,188.951001525,57.0,83.0
891,188.767668375,188.98433482500002,69.0,90.0
892,189.053382375,189.23909647500003,57.0,86.0
893,188.91052537500002,189.301001175,52.0,86.0
894,189.196239375,189.39266775000002,61.0,94.0
895,189.33909637500003,189.48195337500002,52.0,91.0
896,189.48195337500002,189.624810375,57.0,91.0
897,189.624810375,190.05338137500001,61.0,92.0
898,190.196238375,190.5807618,61.0,75.0
899,190.91052337500003,191.0521899,61.0,89.0
900,190.767666375,191.117666025,57.0,90.0
901,191.05338037500002,191.23195162500002,66.0,93.0
902,191.339094375,191.52361800000003,61.0,91.0
903,190.48195237500002,191.6807607,49.0,74.0
904,189.91052437500002,191.70218925,42.0,92.0
905,191.62480837500001,191.92123665000003,57.0,91.0
906,191.910522375,192.05099842500002,49.0,80.0
907,192.05337937500002,192.20695065,61.0,92.0
908,192.48195037500003,192.80695005,61.0,91.0
909,192.910521375,193.10575927500003,57.0,83.0
910,193.05337837500002,193.193854425,61.0,92.0
911,193.339092375,193.72480627500002,66.0,87.0
912,193.62480637500002,193.85694900000001,49.0,71.0
913,192.196236375,193.965282225,42.0,95.0
914,193.767663375,194.008139325,61.0,94.0
915,194.05337737500003,194.26171050000002,57.0,86.0
916,194.19623437500002,194.35932945000002,61.0,92.0
917,194.481948375,194.89028130000003,59.0,85.0
918,194.76766237500001,195.00694785000002,66.0,83.0
919,195.19623337500002,195.47242357500002,62.0,90.0
920,195.05337637500003,195.61170915000002,54.0,66.0
921,194.481948375,195.629566275,47.0,88.0
922,195.62480437500002,195.629566275,47.0,82.0
923,195.481947375,195.629566275,59.0,88.0
924,195.62480437500002,195.97480402500003,66.0,86.0
925,196.19623237500002,196.45218450000002,62.0,95.0
926,195.910518375,196.59861292500003,54.0,80.0
927,196.481946375,196.681946175,59.0,85.0
928,196.62480337500003,196.82480317500003,62.0,90.0
929,197.053374375,197.36289787500002,62.0,85.0
930,197.481945375,197.82004027500003,59.0,86.0
931,197.76765937500002,197.92123065,62.0,85.0
932,197.91051637500001,198.19384942500002,59.0,90.0
933,197.33908837500002,198.28670647500002,54.0,77.0
934,198.19623037500003,198.62122995000001,66.0,86.0
935,198.481944375,198.63432517500001,54.0,76.0
936,196.76766037500002,198.7093251,47.0,90.0
937,198.624801375,198.772420275,62.0,89.0
938,198.76765837500002,199.07599140000002,59.0,86.0
939,199.33908637500002,199.643847975,64.0,86.0
940,199.76765737500003,200.072418975,59.0,91.0
941,200.053371375,200.2569426,64.0,86.0
942,200.196228375,200.479561425,68.0,94.0
943,200.48194237500002,200.58789465,64.0,91.0
944,200.624799375,200.79741825000002,59.0,90.0
945,200.91051337500002,201.01051327500002,64.0,90.0
946,199.624800375,201.13432267500002,47.0,81.0
947,199.053372375,201.15337027500001,40.0,91.0
948,201.05337037500001,201.25337017500001,59.0,83.0
949,201.196227375,201.3378939,64.0,86.0
950,201.624798375,201.80217915,64.0,90.0
951,201.91051237500002,202.1093217,59.0,89.0
952,202.05336937500002,202.289083425,64.0,89.0
953,202.339083375,202.60217835,68.0,87.0
954,202.624797375,202.84027335000002,64.0,85.0
955,202.767654375,202.97955892500002,59.0,86.0
956,203.05336837500002,203.20693965,64.0,91.0
957,201.33908437500003,203.475987,40.0,92.0
958,203.339082375,203.523606,59.0,85.0
959,202.48194037500002,204.05336737500002,52.0,92.0
960,203.910510375,204.18789105000002,61.0,90.0
961,204.339081375,204.57955732500002,64.0,93.0
962,204.62479537500002,204.76170000000002,57.0,73.0
963,204.767652375,204.94860457500002,69.0,86.0
964,205.05336637500002,205.20693765000001,64.0,91.0
965,205.19622337500002,205.410508875,61.0,90.0
966,205.481937375,205.59384202500001,64.0,84.0
967,203.62479637500002,205.68788955000002,45.0,90.0
968,204.196224375,205.69741335,52.0,70.0
969,205.62479437500002,205.98312735000002,61.0,77.0
970,206.19622237500002,206.341460325,64.0,89.0
971,206.62479337500002,206.765269425,61.0,92.0
972,206.910507375,207.01169775000002,57.0,86.0
973,205.910508375,207.02717392500003,45.0,90.0
974,207.053364375,207.236697525,57.0,83.0
975,207.053364375,207.27003082500002,69.0,90.0
976,207.339078375,207.52479247500003,57.0,86.0
977,207.19622137500002,207.586697175,52.0,86.0
978,207.481935375,207.67836375000002,61.0,94.0
979,207.62479237500003,207.76764937500002,52.0,91.0
980,207.76764937500002,207.910506375,57.0,91.0
981,207.910506375,208.33907737500002,61.0,92.0
982,208.481934375,208.8664578,61.0,75.0
983,209.19621937500003,209.3378859,61.0,89.0
984,209.053362375,209.403362025,57.0,90.0
985,209.33907637500002,209.51764762500002,66.0,93.0
986,209.624790375,209.809314,61.0,91.0
987,208.76764837500002,209.9664567,49.0,74.0
988,208.19622037500002,209.98788525,42.0,92.0
989,209.91050437500002,210.20693265000003,57.0,91.0
990,210.196218375,210.33669442500002,49.0,80.0
991,210.33907537500002,210.49264665,61.0,92.0
992,210.76764637500003,211.09264605,61.0,91.0
993,211.196217375,211.39145527500003,57.0,83.0
994,211.33907437500002,211.479550425,61.0,92.0
995,211.624788375,212.01050227500002,66.0,87.0
996,211.91050237500002,212.14264500000002,49.0,71.0
997,210.481932375,212.250978225,42.0,95.0
998,212.053359375,212.293835325,61.0,94.0
999,212.33907337500003,212.54740650000002,57.0,86.0
1000,212.48193037500002,212.64502545000002,61.0,92.0
1001,213.05335837500002,213.33073905,61.0,90.0
1002,213.48192937500002,213.722405325,64.0,93.0
1003,213.767643375,213.904548,57.0,73.0
1004,213.91050037500003,214.091452575,69.0,86.0
1005,214.196214375,214.34978565,64.0,91.0
1006,214.339071375,214.55335687500002,61.0,90.0
1007,214.62478537500002,214.736690025,64.0,84.0
1008,212.767644375,214.83073755,45.0,90.0
1009,213.33907237500003,214.84026135000002,52.0,70.0
1010,214.767642375,215.12597535,61.0,77.0
1011,215.339070375,215.48430832500003,64.0,89.0
1012,215.767641375,215.90811742500003,61.0,92.0
1013,216.05335537500002,216.15454575,57.0,86.0
1014,215.05335637500002,216.17002192500001,45.0,90.0
1015,216.19621237500002,216.37954552500003,57.0,83.0
1016,216.19621237500002,216.412878825,69.0,90.0
1017,216.48192637500003,216.667640475,57.0,86.0
1018,216.339069375,216.72954517500003,52.0,86.0
1019,216.62478337500002,216.82121175,61.0,94.0
1020,216.767640375,216.910497375,52.0,91.0
1021,216.910497375,217.05335437500003,57.0,91.0
1022,217.05335437500003,217.481925375,61.0,92.0
1023,217.62478237500002,218.00930580000002,61.0,75.0
1024,218.339067375,218.48073390000002,61.0,89.0
1025,218.19621037500002,218.54621002500002,57.0,90.0
1026,218.481924375,218.660495625,66.0,93.0
1027,218.76763837500002,218.95216200000002,61.0,91.0
1028,217.910496375,219.10930470000002,49.0,74.0
1029,217.339068375,219.13073325000002,42.0,92.0
1030,219.053352375,219.34978065,57.0,91.0
1031,219.33906637500002,219.479542425,49.0,80.0
1032,219.481923375,219.63549465000003,61.0,92.0
1033,219.910494375,220.23549405000003,61.0,91.0
1034,220.33906537500002,220.534303275,57.0,83.0
1035,220.481922375,220.62239842500003,61.0,92.0
1036,220.76763637500002,221.153350275,66.0,87.0
1037,221.053350375,221.285493,49.0,71.0
1038,219.62478037500003,221.39382622500003,42.0,95.0
1039,221.19620737500003,221.43668332500002,61.0,94.0
1040,221.481921375,221.6902545,57.0,86.0
1041,221.624778375,221.78787345,61.0,92.0
1042,222.196206375,222.47358705000002,61.0,90.0
1043,222.624777375,222.86525332500003,64.0,93.0
1044,222.91049137500002,223.04739600000002,57.0,73.0
1045,223.053348375,223.23430057500002,69.0,86.0
1046,223.33906237500003,223.49263365000002,64.0,91.0
1047,223.48191937500002,223.696204875,61.0,90.0
1048,223.767633375,223.87953802500002,64.0,84.0
1049,221.91049237500002,223.97358555000002,45.0,90.0
1050,222.48192037500002,223.98310935,52.0,70.0
1051,223.91049037500002,224.26882335000002,61.0,77.0
1052,224.48191837500002,224.62715632500002,64.0,89.0
1053,224.91048937500003,225.05096542500002,61.0,92.0
1054,225.196203375,225.29739375000003,57.0,86.0
1055,224.196204375,225.31286992500003,45.0,90.0
1056,225.339060375,225.522393525,57.0,83.0
1057,225.339060375,225.55572682500002,69.0,90.0
1058,225.62477437500002,225.81048847500003,57.0,86.0
1059,225.48191737500002,225.872393175,52.0,86.0
1060,225.767631375,225.96405975000002,61.0,94.0
1061,225.91048837500003,226.05334537500002,52.0,91.0
1062,226.05334537500002,226.196202375,57.0,91.0
1063,226.196202375,226.62477337500002,61.0,92.0
1064,226.767630375,227.1521538,61.0,75.0
1065,227.48191537500003,227.6235819,61.0,89.0
1066,227.339058375,227.689058025,57.0,90.0
1067,227.62477237500002,227.80334362500002,66.0,93.0
1068,227.910486375,228.09501,61.0,91.0
1069,227.05334437500002,228.2521527,49.0,74.0
1070,226.48191637500003,228.27358125,42.0,92.0
1071,228.19620037500002,228.49262865000003,57.0,91.0
1072,228.481914375,228.62239042500002,49.0,80.0
1073,228.62477137500002,228.77834265,61.0,92.0
1074,229.05334237500003,229.37834205000001,61.0,91.0
1075,229.481913375,229.67715127500003,57.0,83.0
1076,229.62477037500003,229.76524642500002,61.0,92.0
1077,229.910484375,230.29619827500002,66.0,87.0
1078,230.19619837500002,230.42834100000002,49.0,71.0
1079,228.76762837500002,230.536674225,42.0,95.0
1080,230.33905537500002,230.579531325,61.0,94.0
1081,230.62476937500003,230.83310250000002,57.0,86.0
1082,230.76762637500002,230.93072145000002,61.0,92.0
1083,231.053340375,231.46167330000003,59.0,85.0
1084,231.33905437500002,231.57833985000002,66.0,83.0
1085,231.76762537500002,232.04381557500002,62.0,90.0
1086,231.624768375,232.18310115000003,54.0,66.0
1087,231.053340375,232.200958275,47.0,88.0
1088,232.19619637500003,232.200958275,47.0,82.0
1089,232.053339375,232.200958275,59.0,88.0
1090,232.19619637500003,232.54619602500003,66.0,86.0
1091,232.76762437500003,233.02357650000002,62.0,95.0
1092,232.481910375,233.17000492500003,54.0,80.0
1093,233.053338375,233.253338175,59.0,85.0
1094,233.19619537500003,233.396195175,62.0,90.0
1095,233.624766375,233.93428987500002,62.0,85.0
1096,234.053337375,234.39143227500003,59.0,86.0
1097,234.33905137500003,234.49262265000002,62.0,85.0
1098,234.48190837500002,234.76524142500003,59.0,90.0
1099,233.91048037500002,234.85809847500002,54.0,77.0
1100,234.76762237500003,235.19262195000002,66.0,86.0
1101,235.05333637500001,235.20571717500002,54.0,76.0
1102,233.33905237500002,235.2807171,47.0,90.0
1103,235.196193375,235.343812275,62.0,89.0
1104,235.33905037500003,235.64738340000002,59.0,86.0
1105,235.91047837500003,236.215239975,64.0,86.0
1106,236.33904937500003,236.643810975,59.0,91.0
1107,236.62476337500001,236.8283346,64.0,86.0
1108,236.767620375,237.05095342500002,68.0,94.0
1109,237.05333437500002,237.15928665,64.0,91.0
1110,237.196191375,237.36881025000002,59.0,90.0
1111,237.48190537500003,237.58190527500003,64.0,90.0
1112,236.196192375,237.70571467500002,47.0,81.0
1113,235.624764375,237.72476227500002,40.0,91.0
1114,237.62476237500002,237.82476217500002,59.0,83.0
1115,237.767619375,237.90928590000001,64.0,86.0
1116,238.19619037500001,238.37357115,64.0,90.0
1117,238.48190437500003,238.6807137,59.0,89.0
1118,238.62476137500002,238.860475425,64.0,89.0
1119,238.910475375,239.17357035,68.0,87.0
1120,239.19618937500002,239.41166535000002,64.0,85.0
1121,239.339046375,239.55095092500002,59.0,86.0
1122,239.62476037500002,239.77833165,64.0,91.0
1123,237.91047637500003,240.047379,40.0,92.0
1124,239.910474375,240.094998,59.0,85.0
1125,239.05333237500002,240.62475937500002,52.0,92.0
1126,240.481902375,240.75928305000002,61.0,90.0
1127,240.19618837500002,240.83547345000002,45.0,91.0
1128,240.910473375,241.15094932500003,64.0,93.0
1129,241.19618737500002,241.33309200000002,57.0,73.0
1130,241.33904437500001,241.51999657500002,69.0,86.0
1131,241.62475837500003,241.77832965000002,64.0,91.0
1132,241.76761537500002,241.981900875,61.0,90.0
1133,242.053329375,242.16523402500002,64.0,84.0
1134,240.986663775,242.2473768,45.0,89.0
1135,240.76761637500002,242.26880535,52.0,70.0
1136,242.19618637500002,242.55451935000002,61.0,77.0
1137,242.76761437500002,242.91285232500002,64.0,89.0
1138,242.4664242,243.129518775,45.0,91.0
1139,243.19618537500003,243.33666142500002,61.0,92.0
1140,243.481899375,243.58308975000003,57.0,86.0
1141,243.624756375,243.808089525,57.0,83.0
1142,243.624756375,243.84142282500002,69.0,90.0
1143,243.28666147500002,244.04499405,45.0,92.0
1144,243.91047037500002,244.09618447500003,57.0,86.0
1145,243.76761337500002,244.15808917500001,52.0,86.0
1146,244.053327375,244.24975575000002,61.0,94.0
1147,244.19618437500003,244.33904137500002,52.0,91.0
1148,244.33904137500002,244.48189837500001,57.0,91.0
1149,244.14380347500003,244.59975540000002,40.0,94.0
1150,244.48189837500001,244.91046937500002,61.0,92.0
1151,245.053326375,245.4378498,61.0,75.0
1152,244.75927905,245.44737360000002,42.0,91.0
1153,245.76761137500003,245.9092779,61.0,89.0
1154,245.624754375,245.974754025,57.0,90.0
1155,245.91046837500002,246.08903962500003,66.0,93.0
1156,246.196182375,246.380706,61.0,91.0
1157,245.33904037500002,246.5378487,49.0,74.0
1158,246.48189637500002,246.77832465000003,57.0,91.0
1159,245.598563925,246.86641980000002,42.0,89.0
1160,246.767610375,246.90808642500002,49.0,80.0
1161,246.91046737500002,247.06403865000001,61.0,92.0
1162,247.33903837500003,247.66403805000002,61.0,91.0
1163,247.041419625,247.717609425,42.0,88.0
1164,247.767609375,247.96284727500003,57.0,83.0
1165,247.91046637500003,248.05094242500002,61.0,92.0
1166,248.196180375,248.58189427500002,66.0,87.0
1167,248.48189437500002,248.71403700000002,49.0,71.0
1168,248.62475137500002,248.865227325,61.0,94.0
1169,248.91046537500003,249.11879850000003,57.0,86.0
1170,247.87832355,249.19736985000003,42.0,90.0
1171,249.05332237500002,249.21641745000002,61.0,92.0
1172,249.62475037500002,249.90213105,61.0,90.0
1173,249.339036375,249.97832145,45.0,91.0
1174,250.05332137500002,250.293797325,64.0,93.0
1175,250.339035375,250.47594,57.0,73.0
1176,250.48189237500003,250.662844575,69.0,86.0
1177,250.767606375,250.92117765,64.0,91.0
1178,250.910463375,251.12474887500002,61.0,90.0
1179,251.19617737500002,251.308082025,64.0,84.0
1180,250.12951177500003,251.39022480000003,45.0,89.0
1181,249.910464375,251.41165335000002,52.0,70.0
1182,251.339034375,251.69736735,61.0,77.0
1183,251.910462375,252.055700325,64.0,89.0
1184,251.60927220000002,252.27236677500002,45.0,91.0
1185,252.339033375,252.47950942500003,61.0,92.0
1186,252.62474737500003,252.72593775,57.0,86.0
1187,252.76760437500002,252.95093752500003,57.0,83.0
1188,252.76760437500002,252.984270825,69.0,90.0
1189,252.42950947500003,253.18784205000003,45.0,92.0
1190,253.05331837500003,253.23903247500002,57.0,86.0
1191,252.910461375,253.30093717500003,52.0,86.0
1192,253.19617537500002,253.39260375,61.0,94.0
1193,253.33903237500002,253.481889375,52.0,91.0
1194,253.481889375,253.62474637500003,57.0,91.0
1195,253.286651475,253.7426034,40.0,94.0
1196,253.62474637500003,254.053317375,61.0,92.0
1197,254.19617437500003,254.58069780000002,61.0,75.0
1198,253.90212705000002,254.5902216,42.0,91.0
1199,254.91045937500002,255.05212590000002,61.0,89.0
1200,254.76760237500002,255.11760202500002,57.0,90.0
1201,255.053316375,255.231887625,66.0,93.0
1202,255.33903037500002,255.52355400000002,61.0,91.0
1203,254.481888375,255.68069670000003,49.0,74.0
1204,255.624744375,255.92117265000002,57.0,91.0
1205,254.74141192500002,256.00926780000003,42.0,89.0
1206,255.91045837500002,256.05093442500004,49.0,80.0
1207,256.053315375,256.20688665,61.0,92.0
1208,256.48188637500004,256.80688605,61.0,91.0
1209,256.184267625,256.860457425,42.0,88.0
1210,256.910457375,257.105695275,57.0,83.0
1211,257.053314375,257.19379042500003,61.0,92.0
1212,257.339028375,257.72474227500004,66.0,87.0
1213,257.62474237500004,257.85688500000003,49.0,71.0
1214,257.76759937500003,258.008075325,61.0,94.0
1215,258.053313375,258.26164650000004,57.0,86.0
1216,257.02117155,258.34021785000004,42.0,90.0
1217,258.196170375,258.35926545,61.0,92.0
1218,258.76759837500003,259.04497905,61.0,90.0
1219,258.481884375,259.12116945,45.0,91.0
1220,259.196169375,259.43664532500003,64.0,93.0
1221,259.481883375,259.618788,57.0,73.0
1222,259.62474037500004,259.805692575,69.0,86.0
1223,259.91045437500003,260.06402565,64.0,91.0
1224,260.053311375,260.26759687500004,61.0,90.0
1225,260.339025375,260.450930025,64.0,84.0
1226,259.27235977500004,260.5330728,45.0,89.0
1227,259.053312375,260.55450135,52.0,70.0
1228,260.481882375,260.84021535,61.0,77.0
1229,261.053310375,261.198548325,64.0,89.0
1230,260.75212020000004,261.41521477500004,45.0,91.0
1231,261.481881375,261.622357425,61.0,92.0
1232,261.76759537500004,261.86878575000003,57.0,86.0
1233,261.91045237500003,262.09378552500004,57.0,83.0
1234,261.91045237500003,262.127118825,69.0,90.0
1235,261.57235747500005,262.33069005000004,45.0,92.0
1236,262.196166375,262.381880475,57.0,86.0
1237,262.053309375,262.443785175,52.0,86.0
1238,262.339023375,262.53545175,61.0,94.0
1239,262.481880375,262.624737375,52.0,91.0
1240,262.624737375,262.76759437500004,57.0,91.0
1241,262.429499475,262.8854514,40.0,94.0
1242,262.76759437500004,263.196165375,61.0,92.0
1243,263.339022375,263.7235458,61.0,75.0
1244,263.04497505,263.7330696,42.0,91.0
1245,264.05330737500003,264.19497390000004,61.0,89.0
1246,263.91045037500004,264.260450025,57.0,90.0
1247,264.196164375,264.374735625,66.0,93.0
1248,264.481878375,264.666402,61.0,91.0
1249,263.624736375,264.8235447,49.0,74.0
1250,264.767592375,265.06402065000003,57.0,91.0
1251,263.88425992500004,265.15211580000005,42.0,89.0
1252,265.05330637500003,265.193782425,49.0,80.0
1253,265.196163375,265.34973465,61.0,92.0
1254,265.624734375,265.94973405,61.0,91.0
1255,265.32711562500003,266.003305425,42.0,88.0
1256,266.05330537500004,266.24854327500003,57.0,83.0
1257,266.19616237500003,266.33663842500005,61.0,92.0
1258,266.481876375,266.867590275,66.0,87.0
1259,266.767590375,266.999733,49.0,71.0
1260,266.91044737500005,267.150923325,61.0,94.0
1261,267.19616137500003,267.4044945,57.0,86.0
1262,266.16401955000003,267.48306585,42.0,90.0
1263,267.339018375,267.50211345,61.0,92.0
1264,267.624732375,268.03306530000003,59.0,85.0
1265,267.910446375,268.14973185,66.0,83.0
1266,267.65449425,268.27354125,47.0,96.0
1267,268.339017375,268.615207575,62.0,90.0
1268,268.19616037500003,268.75449315000003,54.0,66.0
1269,268.624731375,268.772350275,59.0,88.0
1270,268.767588375,269.11758802500003,66.0,86.0
1271,268.446160125,269.4997305,47.0,94.0
1272,269.339016375,269.5949685,62.0,95.0
1273,269.05330237500004,269.741396925,54.0,80.0
1274,269.59615897500004,269.815206375,42.0,92.0
1275,269.624730375,269.824730175,59.0,85.0
1276,269.767587375,269.967587175,62.0,90.0
1277,270.19615837500004,270.505681875,62.0,85.0
1278,269.88068250000003,270.59734845,47.0,95.0
1279,270.624729375,270.962824275,59.0,86.0
1280,270.910443375,271.06401465000005,62.0,85.0
1281,271.053300375,271.336633425,59.0,90.0
1282,270.481872375,271.429490475,54.0,77.0
1283,271.33901437500003,271.76401395,66.0,86.0
1284,271.624728375,271.777109175,54.0,76.0
1285,271.767585375,271.915204275,62.0,89.0
1286,270.74496735,272.031870825,47.0,92.0
1287,271.910442375,272.2187754,59.0,86.0
1288,272.481870375,272.78663197500003,64.0,86.0
1289,272.17115640000003,272.803298625,40.0,90.0
1290,272.910441375,273.215202975,59.0,91.0
1291,273.19615537500005,273.3997266,64.0,86.0
1292,273.33901237500004,273.622345425,68.0,94.0
1293,273.624726375,273.73067865,64.0,91.0
1294,273.767583375,273.94020225,59.0,90.0
1295,272.9854413,274.10686875000005,40.0,87.0
1296,274.053297375,274.153297275,64.0,90.0
1297,274.179487725,274.39258275000003,47.0,97.0
1298,274.196154375,274.396154175,59.0,83.0
1299,274.33901137500004,274.48067790000005,64.0,86.0
1300,274.767582375,274.94496315000004,64.0,90.0
1301,274.4902017,275.19139147500005,40.0,79.0
1302,275.053296375,275.2521057,59.0,89.0
1303,275.196153375,275.431867425,64.0,89.0
1304,275.48186737500004,275.74496235000004,68.0,87.0
1305,275.767581375,275.98305735,64.0,85.0
1306,275.910438375,276.122342925,59.0,86.0
1307,276.196152375,276.34972365000004,64.0,91.0
1308,275.31758182500005,276.35924745,40.0,93.0
1309,276.48186637500004,276.66639000000004,59.0,85.0
1310,276.462818775,276.74972325000005,40.0,94.0
1311,275.624724375,277.196151375,52.0,92.0
1312,276.593771025,277.7282937,57.0,72.0
1313,276.67353285,277.774722225,62.0,82.0
1314,276.7425804,277.8473412,66.0,78.0
1315,276.693770925,278.8378164,38.0,91.0
1316,278.904483,279.14972085,66.0,78.0
1317,278.82472117500004,279.15567322500004,62.0,73.0
1318,279.00210195,279.889005825,69.0,77.0
1319,279.065197125,279.9282915,74.0,82.0
1320,279.03424477500005,279.93067245000003,38.0,87.0
1321,281.99852752500004,282.608050725,59.0,74.0
1322,282.19852732500004,282.629479275,61.0,71.0
1323,281.7949563,284.41162035,52.0,74.0
1324,281.560432725,284.46876315000003,45.0,86.0
1325,282.5663841,284.48423932500003,57.0,63.0
1326,282.448527075,284.4854298,64.0,56.0
