,start,end,pitch,velocity
0,12.717935999999998,13.102550999999998,68.0,66.0
1,13.102550999999998,13.487165999999998,73.0,81.0
2,13.487165999999998,13.871780999999999,75.0,91.0
3,13.871780999999999,15.793253437499999,73.0,90.0
4,15.794855999999998,16.1778684375,73.0,93.0
5,16.179471,16.564086,73.0,92.0
6,16.564086,16.948701,75.0,93.0
7,16.948701,18.870173437499997,73.0,95.0
8,18.871775999999997,19.254788437499997,73.0,84.0
9,19.256390999999997,19.641005999999997,73.0,87.0
10,19.641005999999997,20.025620999999997,75.0,76.0
11,20.025620999999997,20.410235999999998,77.0,89.0
12,20.410235999999998,20.794850999999998,82.0,87.0
13,20.794850999999998,21.179465999999998,84.0,94.0
14,21.179465999999998,21.948695999999998,85.0,91.0
15,21.948695999999998,22.331708437499998,82.0,100.0
16,22.333311,22.717926,82.0,101.0
17,22.717926,23.100938437499998,80.0,95.0
18,23.102541,23.487156,80.0,91.0
19,23.487156,23.871771,77.0,94.0
20,23.871771,24.256385999999996,73.0,95.0
21,24.256385999999996,25.025615999999996,75.0,106.0
22,25.025615999999996,25.410230999999996,68.0,91.0
23,25.410230999999996,25.794845999999996,73.0,98.0
24,25.794845999999996,26.179460999999996,75.0,97.0
25,26.179460999999996,28.100933437499997,73.0,100.0
26,28.102535999999997,28.485548437499997,73.0,101.0
27,28.487150999999997,29.064073499999996,73.0,99.0
28,29.064073499999996,29.256380999999998,75.0,95.0
29,29.256380999999998,31.179455999999995,77.0,96.0
30,31.179455999999995,31.564070999999995,68.0,84.0
31,31.564070999999995,31.948685999999995,73.0,98.0
32,31.948685999999995,32.333301,75.0,90.0
33,32.333301,32.717915999999995,77.0,92.0
34,32.717915999999995,33.102531,82.0,91.0
35,33.102531,33.487145999999996,84.0,98.0
36,33.487145999999996,34.256375999999996,85.0,105.0
37,34.256375999999996,34.639388437499996,82.0,97.0
38,34.640991,35.025605999999996,82.0,98.0
39,35.025605999999996,35.408618437499996,80.0,92.0
40,35.41022099999999,35.794836,80.0,97.0
41,35.794836,36.17945099999999,82.0,92.0
42,36.17945099999999,36.564066,77.0,90.0
43,36.564066,37.333296,75.0,97.0
44,37.333296,37.7163084375,73.0,103.0
45,37.717910999999994,38.102526,73.0,105.0
46,38.102526,38.487140999999994,72.0,101.0
47,38.487140999999994,38.871756,73.0,105.0
48,38.871756,39.256370999999994,70.0,93.0
49,39.256370999999994,39.640986,85.0,99.0
50,39.640986,40.025600999999995,80.0,98.0
51,40.025600999999995,40.7932284375,82.0,97.0
52,40.794830999999995,41.179446,82.0,105.0
53,41.179446,41.5624584375,80.0,103.0
54,41.564060999999995,41.94867599999999,80.0,97.0
55,41.94867599999999,42.3316884375,77.0,98.0
56,42.333290999999996,42.71790599999999,77.0,97.0
57,42.71790599999999,43.102520999999996,73.0,101.0
58,43.102520999999996,43.871750999999996,75.0,101.0
59,43.871750999999996,44.25636599999999,73.0,101.0
60,44.25636599999999,44.640981,72.0,97.0
61,44.640981,45.02559599999999,73.0,98.0
62,45.02559599999999,45.410211,70.0,94.0
63,45.410211,45.79482599999999,85.0,97.0
64,45.79482599999999,46.179441,87.0,105.0
65,46.179441,46.94706843749999,85.0,106.0
66,46.948671,47.333285999999994,85.0,108.0
67,47.333285999999994,48.102515999999994,82.0,109.0
68,48.102515999999994,48.487131,80.0,101.0
69,48.487131,48.871745999999995,77.0,83.0
70,48.871745999999995,49.25636099999999,80.0,97.0
71,49.25636099999999,50.02559099999999,75.0,99.0
72,50.02559099999999,50.410205999999995,73.0,103.0
73,50.410205999999995,50.79482099999999,72.0,106.0
74,50.79482099999999,51.179435999999995,73.0,103.0
75,51.179435999999995,51.56405099999999,70.0,97.0
76,51.56405099999999,51.948665999999996,85.0,98.0
77,51.948665999999996,52.33328099999999,80.0,94.0
78,52.33328099999999,53.100908437499996,82.0,109.0
79,53.10251099999999,53.487125999999996,82.0,100.0
80,53.487125999999996,53.870138437499996,80.0,103.0
81,53.87174099999999,54.256356,80.0,101.0
82,54.256356,54.64097099999999,82.0,98.0
83,54.64097099999999,55.025586,77.0,94.0
84,55.025586,55.410200999999994,80.0,91.0
85,55.410200999999994,56.179430999999994,75.0,95.0
86,56.179430999999994,56.56404599999999,73.0,100.0
87,56.56404599999999,56.948660999999994,75.0,103.0
88,56.948660999999994,57.33327599999999,73.0,108.0
89,57.33327599999999,57.525583499999996,72.0,99.0
90,57.525583499999996,59.25474843749999,73.0,108.0
91,59.256350999999995,59.64096599999999,73.0,105.0
92,59.64096599999999,60.025580999999995,75.0,92.0
93,60.025580999999995,60.41019599999999,77.0,99.0
94,60.41019599999999,60.60250349999999,75.0,97.0
95,60.60250349999999,61.17942599999999,73.0,97.0
96,61.17942599999999,61.37173349999999,72.0,87.0
97,61.37173349999999,74.25633599999999,73.0,97.0
98,74.25633599999999,74.64095099999999,68.0,102.0
99,74.64095099999999,75.025566,73.0,102.0
100,75.025566,75.410181,75.0,91.0
101,75.410181,77.3316534375,73.0,104.0
102,77.33325599999999,77.71626843749999,73.0,93.0
103,77.71787099999999,78.10248599999998,73.0,92.0
104,78.10248599999998,78.487101,75.0,93.0
105,78.487101,80.4085734375,73.0,95.0
106,80.41017599999999,80.79318843749999,73.0,84.0
107,80.79479099999999,81.17940599999999,73.0,87.0
108,81.17940599999999,81.564021,75.0,76.0
109,81.564021,81.948636,77.0,89.0
110,81.948636,82.33325099999999,82.0,87.0
111,82.33325099999999,82.71786599999999,84.0,94.0
112,82.71786599999999,83.487096,85.0,91.0
113,83.487096,83.8701084375,82.0,100.0
114,83.87171099999999,84.25632599999999,82.0,101.0
115,84.25632599999999,84.63933843749999,80.0,95.0
116,84.64094099999998,85.025556,80.0,91.0
117,85.025556,85.41017099999999,77.0,94.0
118,85.41017099999999,85.79478599999999,73.0,95.0
119,85.79478599999999,86.564016,75.0,106.0
120,86.564016,86.94863099999999,68.0,91.0
121,86.94863099999999,87.33324599999999,73.0,98.0
122,87.33324599999999,87.71786099999998,75.0,97.0
123,87.71786099999998,89.63933343749999,73.0,100.0
124,89.640936,90.0239484375,73.0,101.0
125,90.025551,90.60247349999999,73.0,99.0
126,90.60247349999999,90.79478099999999,75.0,95.0
127,90.79478099999999,92.71785599999998,77.0,96.0
128,92.71785599999998,93.102471,68.0,84.0
129,93.102471,93.48708599999999,73.0,98.0
130,93.48708599999999,93.87170099999999,75.0,90.0
131,93.87170099999999,94.25631599999998,77.0,92.0
132,94.25631599999998,94.640931,82.0,91.0
133,94.640931,95.02554599999999,84.0,98.0
134,95.02554599999999,95.79477599999998,85.0,105.0
135,95.79477599999998,96.17778843749998,82.0,97.0
136,96.179391,96.56400599999999,82.0,98.0
137,96.56400599999999,96.94701843749999,80.0,92.0
138,96.94862099999999,97.33323599999999,80.0,97.0
139,97.33323599999999,97.717851,82.0,92.0
140,97.717851,98.10246599999999,77.0,90.0
141,98.10246599999999,98.87169599999999,75.0,97.0
142,98.87169599999999,99.25470843749999,73.0,103.0
143,99.25631099999998,99.640926,73.0,105.0
144,99.640926,100.02554099999999,72.0,101.0
145,100.02554099999999,100.41015599999999,73.0,105.0
146,100.41015599999999,100.79477099999998,70.0,93.0
147,100.79477099999998,101.179386,85.0,99.0
148,101.179386,101.56400099999999,80.0,98.0
149,101.56400099999999,102.33162843749999,82.0,97.0
150,102.33323099999998,102.717846,82.0,105.0
151,102.717846,103.1008584375,80.0,103.0
152,103.10246099999999,103.48707599999999,80.0,97.0
153,103.48707599999999,103.87008843749999,77.0,98.0
154,103.87169099999998,104.256306,77.0,97.0
155,104.256306,104.64092099999999,73.0,101.0
156,104.64092099999999,105.41015099999998,75.0,101.0
157,105.41015099999998,105.79476599999998,73.0,101.0
158,105.79476599999998,106.17938099999999,72.0,97.0
159,106.17938099999999,106.56399599999999,73.0,98.0
160,106.56399599999999,106.94861099999999,70.0,94.0
161,106.94861099999999,107.33322599999998,85.0,97.0
162,107.33322599999998,107.71784099999999,87.0,105.0
163,107.71784099999999,108.48546843749999,85.0,106.0
164,108.48707099999999,108.87168599999998,85.0,108.0
165,108.87168599999998,109.64091599999999,82.0,109.0
166,109.64091599999999,110.02553099999999,80.0,101.0
167,110.02553099999999,110.41014599999998,77.0,83.0
168,110.41014599999998,110.794761,80.0,97.0
169,110.794761,111.56399099999999,75.0,99.0
170,111.56399099999999,111.94860599999998,73.0,103.0
171,111.94860599999998,112.33322099999998,72.0,106.0
172,112.33322099999998,112.71783599999999,73.0,103.0
173,112.71783599999999,113.10245099999999,70.0,97.0
174,113.10245099999999,113.48706599999998,85.0,98.0
175,113.48706599999998,113.87168099999998,80.0,94.0
176,113.87168099999998,114.63930843749999,82.0,109.0
177,114.64091099999999,115.02552599999999,82.0,100.0
178,115.02552599999999,115.40853843749998,80.0,103.0
179,115.41014099999998,115.79475599999999,80.0,101.0
180,115.79475599999999,116.17937099999999,82.0,98.0
181,116.17937099999999,116.56398599999999,77.0,94.0
182,116.56398599999999,116.94860099999998,80.0,91.0
183,116.94860099999998,117.71783099999999,75.0,95.0
184,117.71783099999999,118.10244599999999,73.0,100.0
185,118.10244599999999,118.48706099999998,75.0,103.0
186,118.48706099999998,118.871676,73.0,108.0
187,118.871676,119.06398349999999,72.0,99.0
188,119.06398349999999,120.79314843749998,73.0,108.0
189,120.79475099999999,121.17936599999999,73.0,105.0
190,121.17936599999999,121.56398099999998,75.0,92.0
191,121.56398099999998,121.94859599999998,77.0,99.0
192,121.94859599999998,122.1409035,75.0,97.0
193,122.1409035,122.71782599999999,73.0,97.0
194,122.71782599999999,122.91013349999999,72.0,87.0
195,122.91013349999999,123.87006843749998,73.0,97.0
196,123.87167099999999,124.25468343749999,73.0,105.0
197,124.25628599999999,124.63929843749999,73.0,101.0
198,124.64090099999999,125.02551599999998,73.0,105.0
199,125.02551599999998,125.41013099999999,70.0,93.0
200,125.41013099999999,125.79474599999999,85.0,99.0
201,125.79474599999999,126.17936099999999,80.0,98.0
202,126.17936099999999,126.94698843749998,82.0,97.0
203,126.94859099999998,127.33320599999999,82.0,105.0
204,127.33320599999999,127.71621843749999,80.0,103.0
205,127.71782099999999,128.10243599999998,80.0,97.0
206,128.10243599999998,128.4854484375,77.0,98.0
207,128.48705099999998,128.87166599999998,77.0,97.0
208,128.87166599999998,129.25628099999997,73.0,101.0
209,129.25628099999997,130.025511,75.0,101.0
210,130.025511,130.410126,73.0,101.0
211,130.410126,130.794741,72.0,97.0
212,130.794741,131.17935599999998,73.0,98.0
213,131.17935599999998,131.56397099999998,70.0,94.0
214,131.56397099999998,131.94858599999998,85.0,97.0
215,131.94858599999998,132.33320099999997,87.0,105.0
216,132.33320099999997,133.10082843749998,85.0,106.0
217,133.102431,133.487046,85.0,108.0
218,133.487046,134.25627599999999,82.0,109.0
219,134.25627599999999,134.64089099999998,80.0,101.0
220,134.64089099999998,135.02550599999998,77.0,83.0
221,135.02550599999998,135.41012099999998,80.0,97.0
222,135.41012099999998,136.179351,75.0,99.0
223,136.179351,136.56236343749998,73.0,103.0
224,136.563966,136.94697843749998,73.0,106.0
225,136.948581,137.333196,73.0,103.0
226,137.333196,137.71781099999998,70.0,97.0
227,137.71781099999998,138.10242599999998,85.0,98.0
228,138.10242599999998,138.48704099999998,80.0,94.0
229,138.48704099999998,139.2546684375,82.0,109.0
230,139.256271,139.640886,82.0,100.0
231,139.640886,140.02389843749998,80.0,103.0
232,140.025501,140.410116,80.0,101.0
233,140.410116,140.79473099999998,82.0,98.0
234,140.79473099999998,141.17934599999998,77.0,94.0
235,141.17934599999998,141.56396099999998,80.0,91.0
236,141.56396099999998,142.33319099999997,75.0,95.0
237,142.33319099999997,142.717806,73.0,100.0
238,142.717806,143.102421,75.0,103.0
239,143.102421,143.487036,73.0,108.0
240,143.487036,143.87165099999999,72.0,99.0
241,143.87165099999999,145.4085084375,73.0,108.0
242,145.41011099999997,145.794726,73.0,105.0
243,145.794726,146.179341,75.0,92.0
244,146.179341,146.563956,77.0,99.0
245,146.563956,146.7562635,75.0,97.0
246,146.7562635,147.33318599999998,73.0,97.0
247,147.33318599999998,147.52549349999998,72.0,87.0
248,147.52549349999998,151.17933599999998,73.0,97.0
249,151.17933599999998,151.5623484375,74.0,103.0
250,151.56395099999997,151.94856599999997,74.0,105.0
251,151.94856599999997,152.333181,73.0,101.0
252,152.333181,152.717796,74.0,105.0
253,152.717796,153.102411,71.0,93.0
254,153.102411,153.487026,86.0,99.0
255,153.487026,153.87164099999998,81.0,98.0
256,153.87164099999998,154.6392684375,83.0,97.0
257,154.64087099999998,155.02548599999997,83.0,105.0
258,155.02548599999997,155.4084984375,81.0,103.0
259,155.41010099999997,155.794716,81.0,97.0
260,155.794716,156.17772843749998,78.0,98.0
261,156.179331,156.563946,78.0,97.0
262,156.563946,156.94856099999998,74.0,101.0
263,156.94856099999998,157.71779099999998,76.0,101.0
264,157.71779099999998,158.10240599999997,74.0,101.0
265,158.10240599999997,158.48702099999997,73.0,97.0
266,158.48702099999997,158.871636,74.0,98.0
267,158.871636,159.256251,71.0,94.0
268,159.256251,159.640866,86.0,97.0
269,159.640866,160.02548099999998,88.0,105.0
270,160.02548099999998,160.7931084375,86.0,106.0
271,160.79471099999998,161.17932599999997,86.0,108.0
272,161.17932599999997,161.94855599999997,83.0,109.0
273,161.94855599999997,162.333171,81.0,101.0
274,162.333171,162.717786,78.0,83.0
275,162.717786,163.102401,81.0,97.0
276,163.102401,163.87163099999998,76.0,99.0
277,163.87163099999998,164.25624599999998,74.0,103.0
278,164.25624599999998,164.64086099999997,73.0,106.0
279,164.64086099999997,165.02547599999997,74.0,103.0
280,165.02547599999997,165.410091,71.0,97.0
281,165.410091,165.794706,86.0,98.0
282,165.794706,166.179321,81.0,94.0
283,166.179321,166.94694843749997,83.0,109.0
284,166.94855099999998,167.33316599999998,83.0,100.0
285,167.33316599999998,167.7161784375,81.0,103.0
286,167.71778099999997,168.10239599999997,81.0,101.0
287,168.10239599999997,168.48701099999997,83.0,98.0
288,168.48701099999997,168.871626,78.0,94.0
289,168.871626,169.256241,81.0,91.0
290,169.256241,170.02547099999998,76.0,95.0
291,170.02547099999998,170.41008599999998,74.0,100.0
292,170.41008599999998,170.79470099999998,76.0,103.0
293,170.79470099999998,171.17931599999997,74.0,108.0
294,171.17931599999997,171.56393099999997,73.0,99.0
295,171.56393099999997,173.10078843749997,74.0,108.0
296,173.10239099999998,173.48700599999998,74.0,105.0
297,173.48700599999998,173.87162099999998,76.0,92.0
298,173.87162099999998,174.25623599999997,78.0,99.0
299,174.25623599999997,174.44854349999997,76.0,97.0
300,174.44854349999997,175.025466,74.0,97.0
301,175.025466,175.2177735,73.0,87.0
302,175.2177735,178.44853949999998,74.0,97.0
