,start,end,pitch,velocity
0,1.1794859999999998,1.5753189374999998,68.0,53.0
1,1.5641009999999997,2.1682670624999996,73.0,57.0
2,2.333331,2.5128179999999998,70.0,57.0
3,1.9487159999999997,2.5881384374999996,65.0,46.0
4,1.5641009999999997,2.6362153124999996,58.0,59.0
5,2.333331,2.6858947499999997,73.0,67.0
6,2.7179459999999995,3.2307659999999996,68.0,46.0
7,3.487176,3.6826886249999995,73.0,51.0
8,3.487176,3.6858937499999995,66.0,50.0
9,3.8701884374999995,4.024034437499999,66.0,56.0
10,3.8701884374999995,4.1410215,73.0,72.0
11,3.1025609999999997,4.173072749999999,54.0,64.0
12,3.8701884374999995,4.203521437499999,61.0,70.0
13,4.256405999999999,4.661854312499999,68.0,60.0
14,4.641020999999999,4.931084812499999,73.0,54.0
15,4.641020999999999,4.947110437499999,65.0,42.0
16,5.0256359999999995,5.14743075,68.0,51.0
17,5.410251,5.572109812499999,61.0,65.0
18,5.410251,5.5737123749999995,68.0,45.0
19,5.0256359999999995,5.657045624999999,56.0,45.0
20,5.410251,5.658648187499999,77.0,69.0
21,4.641020999999999,5.7067250624999994,49.0,56.0
22,5.794865999999999,6.13460925,73.0,57.0
23,6.179480999999999,6.352557749999999,75.0,51.0
24,6.179480999999999,6.421467937499999,68.0,43.0
25,6.179480999999999,6.847749562499999,44.0,54.0
26,6.564095999999999,6.863775187499999,73.0,54.0
27,6.564095999999999,6.9278776875,51.0,51.0
28,6.948710999999999,7.120185187499999,72.0,61.0
29,6.948710999999999,7.346146499999999,56.0,61.0
30,7.333326,7.378197749999999,58.0,66.0
31,7.333326,7.740376874999999,68.0,63.0
32,8.102556,8.2676199375,73.0,54.0
33,8.102556,8.278837874999999,65.0,46.0
34,8.487170999999998,8.716337437499998,65.0,45.0
35,8.487170999999998,8.81409375,58.0,54.0
36,8.102556,8.873388562499999,53.0,55.0
37,7.717940999999999,8.886209062499999,46.0,75.0
38,8.487170999999998,8.913452625,73.0,77.0
39,8.871785999999998,9.267618937499998,68.0,68.0
40,9.256400999999999,9.504798187499999,65.0,28.0
41,9.256400999999999,9.55768275,70.0,51.0
42,9.641015999999999,9.801272249999998,68.0,47.0
43,9.641015999999999,9.802874812499999,73.0,49.0
44,9.256400999999999,10.129797562499999,42.0,57.0
45,9.641015999999999,10.149028312499999,49.0,44.0
46,10.025630999999999,10.2451820625,66.0,64.0
47,10.025630999999999,10.264412812499998,54.0,49.0
48,10.025630999999999,10.2692205,73.0,66.0
49,10.410245999999999,10.692296999999998,70.0,57.0
50,10.794861,10.913450625,68.0,72.0
51,11.179476,11.536847437499999,56.0,44.0
52,11.179476,11.652231937499998,68.0,48.0
53,11.179476,11.677872937499998,77.0,59.0
54,10.794861,11.689090874999998,49.0,58.0
55,11.564091,11.817295875,61.0,64.0
56,11.948705999999998,11.993577749999998,56.0,59.0
57,12.141013499999998,13.035243374999999,63.0,51.0
58,12.333320999999998,13.2419739375,72.0,49.0
59,12.333320999999998,13.314089249999999,68.0,66.0
60,12.333320999999998,13.355755874999998,44.0,54.0
61,14.256395999999999,14.644216124999998,65.0,46.0
62,13.871780999999999,15.328510312499999,58.0,62.0
63,14.641010999999999,15.423061499999998,70.0,52.0
64,15.025625999999999,15.461522999999998,65.0,43.0
65,14.641010999999999,15.995176312499998,73.0,57.0
66,15.794855999999998,16.179471,61.0,42.0
67,15.410240999999997,16.964726624999997,54.0,51.0
68,16.179471,16.974341999999996,66.0,59.0
69,16.564086,17.0432521875,61.0,38.0
70,16.179471,17.1073546875,70.0,48.0
71,17.333315999999996,17.709918187499998,61.0,41.0
72,17.717930999999997,18.19869975,65.0,45.0
73,16.948701,18.4214559375,49.0,51.0
74,18.102545999999997,18.503186624999998,61.0,45.0
75,17.717930999999997,18.5047891875,68.0,44.0
76,18.871775999999997,19.2996601875,60.0,42.0
77,19.256390999999997,19.92946725,63.0,44.0
78,18.487160999999997,20.014403062499998,44.0,61.0
79,19.641005999999997,20.086518374999997,60.0,50.0
80,19.256390999999997,20.6874793125,68.0,45.0
81,20.410235999999998,20.810876625,58.0,53.0
82,20.794850999999998,21.198696749999996,61.0,46.0
83,20.025620999999997,21.560875874999997,46.0,53.0
84,21.179465999999998,21.592927125,58.0,46.0
85,20.794850999999998,21.636196312499997,65.0,48.0
86,21.948695999999998,22.403823749999997,58.0,42.0
87,22.333311,22.729143937499998,61.0,46.0
88,22.525618499999997,22.729143937499998,61.0,7.0
89,22.717926,23.1041435625,58.0,40.0
90,21.564080999999998,23.163438375,42.0,48.0
91,22.333311,23.4118355625,66.0,58.0
92,23.487156,23.886194062499996,56.0,42.0
93,23.871771,24.546449812499997,61.0,44.0
94,23.871771,24.605744624999996,65.0,45.0
95,23.102541,24.621770249999997,49.0,52.0
96,24.256385999999996,24.730744499999997,56.0,49.0
97,25.025615999999996,25.389397687499997,56.0,41.0
98,24.641000999999996,25.831704937499996,44.0,76.0
99,25.410230999999996,25.833307499999997,60.0,50.0
100,25.410230999999996,25.834910062499997,63.0,54.0
101,25.794845999999996,26.173050749999998,56.0,46.0
102,26.564075999999996,26.956703812499995,58.0,42.0
103,26.948690999999997,27.322088062499997,61.0,48.0
104,26.948690999999997,27.342921374999996,65.0,49.0
105,27.333305999999997,27.677856937499996,58.0,30.0
106,26.177858437499996,27.713113312499996,46.0,57.0
107,27.333305999999997,27.716318437499996,63.0,36.0
108,28.102535999999997,28.482343312499996,58.0,46.0
109,28.487150999999997,28.926253124999995,65.0,36.0
110,28.487150999999997,29.235547687499995,61.0,40.0
111,27.716318437499996,29.411829562499996,42.0,56.0
112,28.871765999999997,29.7050985,66.0,50.0
113,29.640995999999998,30.060867374999997,56.0,53.0
114,30.025610999999998,30.407020874999997,61.0,48.0
115,29.256380999999998,30.870161437499995,49.0,50.0
116,30.410225999999998,30.964712624999997,63.0,38.0
117,30.025610999999998,31.517596687499996,65.0,38.0
118,31.179455999999995,31.650609374999995,56.0,42.0
119,31.564070999999995,31.745160562499997,60.0,35.0
120,31.564070999999995,31.999967999999996,63.0,29.0
121,30.794840999999998,32.31407024999999,44.0,56.0
122,31.948685999999995,32.357339437499995,65.0,54.0
123,32.333301,32.5881084375,56.0,46.0
124,32.333301,32.714710874999994,61.0,53.0
125,32.717915999999995,33.0432361875,56.0,59.0
126,33.102531,33.464710124999996,61.0,65.0
127,33.487145999999996,33.807658499999995,65.0,48.0
128,32.333301,33.842914875,46.0,47.0
129,33.871761,34.25797856249999,68.0,55.0
130,33.871761,34.384581,58.0,42.0
131,34.256375999999996,34.69227299999999,61.0,45.0
132,34.640991,35.044836749999995,66.0,52.0
133,35.025605999999996,35.346118499999996,63.0,45.0
134,33.871761,35.451887625,42.0,52.0
135,35.41022099999999,35.501567062499994,61.0,30.0
136,35.41022099999999,35.751566812499995,65.0,51.0
137,35.41022099999999,36.219515062499994,56.0,46.0
138,35.794836,36.245156062499994,61.0,56.0
139,36.17945099999999,36.410219999999995,63.0,40.0
140,35.41022099999999,36.594514687499995,49.0,49.0
141,36.564066,37.03361681249999,60.0,51.0
142,36.564066,37.124962874999994,63.0,48.0
143,36.564066,37.16021925,56.0,49.0
144,37.333296,37.576885499999996,56.0,54.0
145,37.717910999999994,37.97592356249999,61.0,72.0
146,38.102526,38.402205187499995,63.0,56.0
147,36.564066,38.522397375,44.0,74.0
148,38.487140999999994,38.871756,65.0,52.0
149,38.487140999999994,38.9054098125,58.0,51.0
150,38.487140999999994,38.927845687499996,61.0,54.0
151,38.487140999999994,39.469511812499995,46.0,76.0
152,39.256370999999994,39.687460312499994,58.0,56.0
153,39.256370999999994,39.7034859375,61.0,60.0
154,39.256370999999994,39.74355,65.0,56.0
155,39.640986,39.988742062499995,46.0,45.0
156,40.025600999999995,40.41662624999999,66.0,60.0
157,40.025600999999995,40.463100562499996,61.0,51.0
158,40.025600999999995,40.477523624999996,58.0,56.0
159,40.025600999999995,40.95027956249999,54.0,46.0
160,40.794830999999995,41.1906639375,58.0,58.0
161,40.794830999999995,41.1906639375,61.0,57.0
162,40.794830999999995,41.46950981249999,66.0,62.0
163,41.179446,41.501561062499995,54.0,49.0
164,40.025600999999995,41.586496874999995,42.0,62.0
165,41.564060999999995,42.092906625,65.0,73.0
166,41.564060999999995,42.171432187499995,61.0,69.0
167,41.564060999999995,42.1810475625,56.0,70.0
168,41.564060999999995,42.366944812499995,49.0,83.0
169,42.333290999999996,42.535213875,56.0,73.0
170,42.333290999999996,42.62976506249999,65.0,76.0
171,42.71790599999999,43.243546499999994,63.0,75.0
172,42.71790599999999,43.275597749999996,60.0,75.0
173,42.71790599999999,43.45508475,56.0,71.0
174,43.48713599999999,43.913417624999994,51.0,54.0
175,43.871750999999996,44.18264812499999,60.0,58.0
176,43.871750999999996,44.217904499999996,56.0,73.0
177,43.871750999999996,44.25316087499999,63.0,70.0
178,42.71790599999999,44.3092505625,44.0,87.0
179,44.25636599999999,44.719506562499994,51.0,57.0
180,44.640981,44.99995499999999,58.0,72.0
181,44.640981,45.18745481249999,65.0,74.0
182,44.640981,45.20668556249999,61.0,75.0
183,44.640981,45.759569625,46.0,81.0
184,45.410211,45.764377312499995,63.0,57.0
185,45.79482599999999,46.246748624999995,54.0,67.0
186,45.79482599999999,46.507966312499995,66.0,82.0
187,45.79482599999999,46.5175816875,58.0,76.0
188,45.79482599999999,46.53200474999999,61.0,65.0
189,46.564055999999994,47.023991437499994,54.0,50.0
190,46.948671,47.3060424375,58.0,61.0
191,46.948671,47.314055249999996,61.0,65.0
192,47.333285999999994,47.65860618749999,54.0,62.0
193,46.948671,47.669824125,66.0,72.0
194,45.79482599999999,47.74995224999999,42.0,70.0
195,47.717901,47.964695625,56.0,62.0
196,47.717901,48.11854162499999,65.0,71.0
197,47.717901,48.124951874999994,61.0,63.0
198,47.717901,48.514374562499995,49.0,69.0
199,48.102515999999994,48.559246312499994,56.0,48.0
200,48.487131,48.57847706249999,61.0,64.0
201,48.871745999999995,49.323668624999996,56.0,63.0
202,48.871745999999995,49.37815575,60.0,71.0
203,48.871745999999995,49.4630915625,63.0,59.0
204,50.02559099999999,50.0816806875,63.0,52.0
205,50.02559099999999,50.169821625,60.0,70.0
206,50.02559099999999,50.26437281249999,68.0,88.0
207,48.871745999999995,50.30924456249999,44.0,73.0
208,49.640975999999995,50.33007787499999,51.0,55.0
209,50.2178985,50.4278341875,56.0,61.0
210,50.410205999999995,50.60732118749999,63.0,52.0
211,50.60251349999999,50.84610299999999,68.0,54.0
212,50.79482099999999,51.00475668749999,58.0,31.0
213,50.79482099999999,51.253153874999995,65.0,73.0
214,50.79482099999999,51.30603843749999,61.0,80.0
215,51.179435999999995,51.333282,58.0,45.0
216,50.79482099999999,51.455076749999996,53.0,74.0
217,50.79482099999999,51.49353824999999,46.0,66.0
218,51.3701409375,51.52398693749999,60.0,84.0
219,51.3701409375,51.576871499999996,63.0,65.0
220,51.948665999999996,52.29962718749999,58.0,60.0
221,51.948665999999996,52.314050249999994,61.0,66.0
222,51.948665999999996,52.323665625,65.0,70.0
223,51.948665999999996,52.5111654375,54.0,66.0
224,52.52558849999999,52.737126749999995,58.0,64.0
225,52.52558849999999,52.751549812499995,61.0,46.0
226,52.52558849999999,52.7836010625,66.0,66.0
227,52.910203499999994,53.12174174999999,54.0,49.0
228,53.10251099999999,53.424626062499996,58.0,69.0
229,53.10251099999999,53.487125999999996,65.0,55.0
230,53.487125999999996,53.58167718749999,63.0,77.0
231,53.487125999999996,53.6521899375,54.0,65.0
232,51.948665999999996,53.68744631249999,42.0,71.0
233,53.87174099999999,54.147381749999994,56.0,67.0
234,53.87174099999999,54.18584324999999,65.0,63.0
235,53.87174099999999,54.29161237499999,61.0,64.0
236,53.87174099999999,54.54161212499999,49.0,74.0
237,54.448663499999995,54.709881187499995,61.0,55.0
238,54.448663499999995,54.71148374999999,56.0,75.0
239,54.83327849999999,55.07686799999999,49.0,76.0
240,55.025586,55.31244468749999,60.0,75.0
241,55.025586,55.398983062499994,63.0,74.0
242,55.79321343749999,55.93744406249999,60.0,68.0
243,55.60250849999999,56.009559374999995,56.0,49.0
244,55.987123499999996,56.219495062499995,61.0,59.0
245,56.179430999999994,56.222700187499996,63.0,64.0
246,55.025586,56.41661024999999,44.0,74.0
247,56.37173849999999,56.525584499999994,65.0,58.0
248,56.179430999999994,56.61532799999999,56.0,60.0
249,56.56404599999999,56.698661249999994,68.0,74.0
250,56.756353499999996,56.951866124999995,72.0,64.0
251,56.948660999999994,57.21148124999999,73.0,71.0
252,56.948660999999994,57.21949406249999,68.0,61.0
253,56.948660999999994,57.2419299375,65.0,62.0
254,57.525583499999996,57.581673187499995,65.0,38.0
255,57.525583499999996,57.63455774999999,58.0,54.0
256,57.525583499999996,57.655391062499994,61.0,83.0
257,57.33327599999999,57.65699362499999,53.0,53.0
258,56.948660999999994,57.695455124999995,46.0,68.0
259,57.91019849999999,58.0848778125,63.0,59.0
260,58.10250599999999,58.4566723125,58.0,65.0
261,58.10250599999999,58.45987743749999,61.0,56.0
262,58.10250599999999,58.53199274999999,65.0,70.0
263,58.10250599999999,58.82365912499999,54.0,68.0
264,58.87173599999999,59.259556124999996,61.0,61.0
265,58.87173599999999,59.270774062499996,66.0,60.0
266,58.87173599999999,59.293209937499995,58.0,51.0
267,59.256350999999995,59.53038918749999,54.0,68.0
268,59.44865849999999,59.54801737499999,58.0,68.0
269,58.10250599999999,59.639363437499995,42.0,59.0
270,59.639363437499995,59.8188504375,61.0,72.0
271,59.83327349999999,60.124939874999995,66.0,85.0
272,60.025580999999995,60.74192643749999,60.0,77.0
273,60.025580999999995,60.772375124999996,63.0,77.0
274,60.025580999999995,60.85891349999999,56.0,71.0
275,60.025580999999995,60.97269543749999,44.0,74.0
276,61.17942599999999,62.307629999999996,61.0,68.0
277,61.17942599999999,62.37333506249999,56.0,69.0
278,61.17942599999999,62.41660424999999,65.0,64.0
279,61.17942599999999,62.76275774999999,49.0,77.0
280,62.333270999999996,62.78198849999999,63.0,64.0
281,62.71788599999999,63.00955237499999,65.0,64.0
282,63.10250099999999,63.84608999999999,61.0,55.0
283,63.10250099999999,63.90057712499999,65.0,62.0
284,63.10250099999999,63.924615562499994,46.0,73.0
285,63.10250099999999,63.931025812499996,58.0,62.0
286,63.87173099999999,64.22108962499999,63.0,71.0
287,64.256346,64.61051231249999,65.0,63.0
288,64.256346,64.66499943749999,61.0,58.0
289,64.256346,64.874935125,54.0,52.0
290,64.256346,65.00955037499999,58.0,56.0
291,64.83326849999999,65.00955037499999,58.0,35.0
292,65.02557599999999,65.22910143749999,61.0,62.0
293,65.2178835,65.41499868749999,65.0,70.0
294,65.410191,65.46467812499999,58.0,52.0
295,65.6024985,65.80121625,58.0,68.0
296,65.410191,65.971087875,54.0,57.0
297,65.794806,65.971087875,61.0,64.0
298,64.256346,66.0944851875,42.0,63.0
299,65.98711349999999,66.1553825625,65.0,63.0
300,66.37172849999999,66.5816641875,56.0,56.0
301,66.17942099999999,66.69865125,66.0,60.0
302,66.56403599999999,66.76916399999999,61.0,57.0
303,66.75634349999999,67.04159962499999,65.0,68.0
304,66.948651,67.1778174375,56.0,47.0
305,67.1409585,67.31563781249999,61.0,46.0
306,66.17942099999999,67.4117915625,49.0,79.0
307,67.333266,67.66179131249999,65.0,73.0
308,67.5255735,67.73711175,56.0,46.0
309,67.71788099999999,67.92621412499999,60.0,50.0
310,67.91018849999999,68.105701125,63.0,53.0
311,68.10249599999999,68.27877787499999,56.0,39.0
312,68.29480349999999,68.47749562499999,60.0,42.0
313,68.487111,68.855700375,68.0,49.0
314,68.6794185,68.90377724999999,56.0,60.0
315,68.871726,69.09608474999999,63.0,48.0
316,67.333266,69.21467437499999,44.0,77.0
317,69.0640335,69.439033125,61.0,54.0
318,69.44864849999999,69.67140468749999,58.0,56.0
319,69.64095599999999,69.849289125,61.0,61.0
320,69.83326349999999,70.0640325,65.0,72.0
321,70.02557099999999,70.22268618749999,58.0,52.0
322,70.2178785,70.4021731875,61.0,60.0
323,69.25634099999999,70.45826287499999,46.0,76.0
324,70.410186,70.63454474999999,65.0,81.0
325,70.6024935,70.8589035,58.0,53.0
326,70.79480099999999,71.01595462499999,61.0,58.0
327,70.98710849999999,71.336467125,66.0,82.0
328,71.17941599999999,71.3829414375,58.0,48.0
329,71.37172349999999,71.60569762499999,61.0,47.0
330,71.56403099999999,71.95345368749999,63.0,54.0
331,71.948646,72.00633825,65.0,40.0
332,71.948646,72.00633825,65.0,66.0
333,70.410186,72.35569687499999,42.0,83.0
334,72.52556849999999,72.78518362499999,56.0,58.0
335,72.71787599999999,72.92620912499999,61.0,68.0
336,72.91018349999999,73.208260125,65.0,71.0
337,73.10249099999999,73.3412728125,56.0,54.0
338,73.2947985,73.45665731249998,61.0,65.0
339,72.333261,73.5255675,49.0,91.0
340,73.487106,73.695439125,63.0,69.0
341,73.6794135,73.89736199999999,56.0,52.0
342,73.871721,74.05120799999999,60.0,51.0
343,74.06402849999999,74.22428475,63.0,54.0
344,74.25633599999999,74.554412625,68.0,67.0
345,74.44864349999999,74.69063043749999,60.0,52.0
346,73.487106,74.70825862499998,44.0,87.0
347,74.64095099999999,74.9983224375,56.0,77.0
348,75.025566,75.21627093749998,68.0,65.0
349,75.410181,75.66338587499999,61.0,58.0
350,75.410181,75.66979612499999,65.0,50.0
351,75.410181,75.9406291875,58.0,61.0
352,75.410181,76.23710324999999,46.0,66.0
353,76.17941099999999,76.30120575,61.0,46.0
354,76.17941099999999,76.3508851875,65.0,53.0
355,76.564026,76.9342179375,54.0,38.0
356,76.564026,77.03998706249999,66.0,61.0
357,76.564026,77.04799987499999,61.0,64.0
358,76.564026,77.05601268749999,58.0,67.0
359,77.71787099999999,78.13133212499999,54.0,56.0
360,76.564026,78.22588331249999,42.0,72.0
361,78.10248599999998,78.464665125,61.0,66.0
362,78.487101,78.84607499999998,65.0,71.0
363,78.487101,78.8540878125,56.0,70.0
364,78.487101,79.0624209375,49.0,65.0
365,78.87171599999999,79.16017724999999,61.0,59.0
366,79.06402349999999,79.16017724999999,61.0,10.0
367,79.25633099999999,79.63133062499999,65.0,45.0
368,79.64094599999999,80.19703518749999,56.0,52.0
369,79.64094599999999,80.2178685,60.0,52.0
370,79.64094599999999,80.3717145,63.0,61.0
371,80.41017599999999,80.98870106249998,56.0,33.0
372,79.64094599999999,81.00793181249999,44.0,46.0
373,80.79479099999999,81.11370093749998,68.0,77.0
374,81.17940599999999,81.40376475,65.0,49.0
375,81.564021,81.89735399999999,61.0,58.0
376,81.564021,81.90857193749999,65.0,59.0
377,81.564021,82.10568712499999,53.0,57.0
378,81.564021,82.14094349999999,46.0,52.0
379,81.948636,82.14895631249999,60.0,50.0
380,81.948636,82.272353625,63.0,59.0
381,82.33325099999999,82.41337912499999,61.0,32.0
382,82.33325099999999,82.6393404375,65.0,66.0
383,82.71786599999999,83.35568587499999,54.0,54.0
384,82.71786599999999,83.464660125,61.0,42.0
385,82.71786599999999,83.471070375,58.0,61.0
386,82.71786599999999,83.49671137499999,66.0,59.0
387,83.487096,83.8845315,54.0,46.0
388,83.87171099999999,84.20504399999999,61.0,58.0
389,83.87171099999999,84.22106962499998,58.0,60.0
390,82.71786599999999,84.36049256249999,42.0,51.0
391,84.25632599999999,84.40215918749999,54.0,51.0
392,83.87171099999999,84.43421043749998,66.0,74.0
393,84.64094099999998,85.02395343749998,61.0,54.0
394,84.64094099999998,85.02715856249999,56.0,52.0
395,84.64094099999998,85.0688251875,65.0,54.0
396,84.64094099999998,85.24190193749999,49.0,71.0
397,85.02395343749998,85.3204275,63.0,59.0
398,85.41017099999999,85.73709374999999,61.0,44.0
399,85.79478599999999,86.11369593749998,60.0,66.0
400,85.79478599999999,86.17619587499999,68.0,70.0
401,86.564016,86.70824662499999,65.0,51.0
402,86.564016,86.7419004375,73.0,67.0
403,86.94863099999999,87.03356681249998,63.0,55.0
404,86.94863099999999,87.0784385625,72.0,73.0
405,85.79478599999999,87.25792556249999,44.0,58.0
406,85.79478599999999,87.2707460625,56.0,62.0
407,87.33164343749999,87.40536131249999,68.0,59.0
408,87.71786099999998,88.04959143749998,61.0,54.0
409,87.71786099999998,88.15856568749999,65.0,41.0
410,87.71786099999998,88.20504,70.0,59.0
411,87.71786099999998,88.3668988125,58.0,58.0
412,87.71786099999998,88.4630525625,46.0,59.0
413,88.48709099999999,88.81080862499999,68.0,70.0
414,88.87170599999999,89.65375649999999,61.0,55.0
415,88.87170599999999,89.78516662499999,66.0,59.0
416,88.87170599999999,89.82042299999999,70.0,55.0
417,88.87170599999999,90.13452525,54.0,52.0
418,90.025551,90.15535856249998,68.0,59.0
419,90.025551,90.201832875,61.0,49.0
420,88.87170599999999,90.55760174999999,42.0,63.0
421,90.41016599999999,90.6649734375,66.0,75.0
422,90.79478099999999,91.0175371875,56.0,47.0
423,90.79478099999999,91.0912550625,61.0,66.0
424,90.79478099999999,91.37651118749999,65.0,67.0
425,90.79478099999999,91.48067774999998,49.0,66.0
426,91.564011,91.78997231249998,61.0,83.0
427,91.94862599999999,92.01593362499999,61.0,54.0
428,91.94862599999999,92.57522793749999,63.0,47.0
429,92.71785599999998,93.01593262499999,56.0,50.0
430,91.94862599999999,93.21144524999998,51.0,67.0
431,93.102471,93.31400924999998,56.0,16.0
432,93.102471,93.45663731249999,60.0,77.0
433,91.94862599999999,93.46625268749999,44.0,47.0
434,92.14093349999999,93.46625268749999,44.0,10.0
435,93.102471,93.47907318749999,63.0,66.0
436,93.48708599999999,93.54958593749998,51.0,70.0
437,93.87170099999999,94.43259787499998,61.0,71.0
438,93.87170099999999,94.471059375,65.0,69.0
439,93.87170099999999,94.5079183125,53.0,63.0
440,93.87170099999999,94.54798237499999,46.0,46.0
441,94.640931,94.73708475,60.0,57.0
442,94.640931,94.9502255625,65.0,55.0
443,95.02554599999999,96.29637806249998,54.0,60.0
444,95.02554599999999,96.52073681249999,61.0,68.0
445,95.02554599999999,96.57522393749998,58.0,58.0
446,96.56400599999999,96.82682624999998,54.0,59.0
447,95.02554599999999,96.93419793749999,42.0,46.0
448,95.02554599999999,96.95022356249999,66.0,69.0
449,96.94862099999999,97.8444534375,56.0,49.0
450,96.94862099999999,97.9101585,65.0,52.0
451,96.94862099999999,97.93740206249998,49.0,68.0
452,96.94862099999999,97.96304306249999,61.0,55.0
453,98.10246599999999,98.60406806249999,56.0,46.0
454,98.10246599999999,98.91656774999998,63.0,54.0
455,98.10246599999999,98.97265743749999,60.0,55.0
456,98.10246599999999,98.99829843749998,68.0,58.0
457,98.87169599999999,99.36208012499999,56.0,61.0
458,98.10246599999999,99.70823362499999,44.0,71.0
459,99.25631099999998,99.74028487499999,60.0,75.0
460,99.25631099999998,99.76432331249998,63.0,72.0
461,99.25631099999998,99.77073356249998,68.0,49.0
462,99.640926,99.79316943749998,56.0,77.0
463,100.02554099999999,100.36047656249998,65.0,60.0
464,100.02554099999999,100.43098931249999,61.0,72.0
465,100.41015599999999,100.73227106249999,58.0,57.0
466,100.02554099999999,100.83162993749998,53.0,68.0
467,100.02554099999999,100.84445043749999,46.0,54.0
468,100.79477099999998,100.93419393749998,61.0,78.0
469,100.79477099999998,100.99188618749999,65.0,77.0
470,101.179386,101.55919331249999,61.0,73.0
471,101.179386,101.57041124999999,58.0,81.0
472,101.179386,101.57842406249999,66.0,80.0
473,101.179386,101.73707774999998,54.0,72.0
474,101.179386,101.900539125,42.0,86.0
475,101.75630849999999,101.91015449999999,58.0,76.0
476,101.75630849999999,101.945410875,65.0,77.0
477,102.14092349999999,102.35085918749999,54.0,50.0
478,102.33323099999998,102.69701268749999,58.0,68.0
479,102.33323099999998,102.71464087499999,61.0,61.0
480,102.717846,102.75791006249999,54.0,78.0
481,102.33323099999998,102.83483306249998,66.0,89.0
482,102.14092349999999,102.89573043749999,42.0,19.0
483,103.10246099999999,103.48226831249998,61.0,74.0
484,103.10246099999999,103.48226831249998,65.0,71.0
485,103.10246099999999,103.50149906249999,56.0,80.0
486,103.10246099999999,103.64252456249999,49.0,82.0
487,103.67938349999999,103.733870625,61.0,68.0
488,103.67938349999999,103.76271674999998,56.0,84.0
489,103.67938349999999,103.83483206249998,65.0,77.0
490,103.10246099999999,103.89252431249999,37.0,59.0
491,103.87169099999998,103.92297299999998,49.0,57.0
492,104.256306,104.51752368749999,56.0,73.0
493,104.256306,104.58483131249999,60.0,88.0
494,104.256306,104.61848512499999,68.0,75.0
495,104.256306,104.64092099999999,63.0,74.0
496,105.02553599999999,105.08002312499998,60.0,28.0
497,105.02553599999999,105.10566412499999,61.0,36.0
498,104.83322849999999,105.26752293749999,56.0,78.0
499,105.21784349999999,105.45822787499999,61.0,75.0
500,105.41015099999998,105.55918931249998,63.0,78.0
501,105.60245849999998,105.84284287499999,65.0,78.0
502,104.256306,105.8540608125,44.0,67.0
503,105.79476599999998,105.98386837499999,68.0,79.0
504,105.79476599999998,106.05598368749999,56.0,61.0
505,105.9870735,106.14732974999998,72.0,74.0
506,106.17938099999999,106.55758574999999,65.0,70.0
507,106.17938099999999,106.57040624999999,73.0,73.0
508,106.17938099999999,106.5976498125,68.0,74.0
509,106.56399599999999,106.68258562499999,58.0,61.0
510,106.75470093749999,106.79316243749999,68.0,51.0
511,106.17938099999999,106.7963675625,46.0,78.0
512,106.75470093749999,106.79797012499999,65.0,77.0
513,106.75470093749999,106.83482906249999,73.0,65.0
514,107.33322599999998,107.74508456249998,61.0,74.0
515,107.33322599999998,107.74989224999999,66.0,78.0
516,107.33322599999998,107.78194349999998,70.0,69.0
517,107.33322599999998,107.894122875,54.0,77.0
518,107.33322599999998,108.00309712499998,42.0,73.0
519,107.91014849999999,108.06880218749998,61.0,64.0
520,107.91014849999999,108.14572518749999,68.0,83.0
521,108.29476349999999,108.52072481249999,54.0,69.0
522,108.29476349999999,108.53194274999998,42.0,66.0
523,108.48707099999999,108.85566037499999,66.0,74.0
524,108.48707099999999,108.85566037499999,70.0,73.0
525,108.48707099999999,108.87649368749999,61.0,70.0
526,108.87168599999998,108.93578849999999,42.0,70.0
527,108.87168599999998,108.97905768749999,54.0,75.0
528,109.256301,109.65213393749998,61.0,71.0
529,109.256301,109.66174931249999,68.0,66.0
530,109.256301,109.66495443749999,56.0,86.0
531,109.256301,109.67777493749999,65.0,72.0
532,109.256301,109.87168499999999,49.0,92.0
533,109.83322349999999,109.91815931249998,68.0,34.0
534,109.83322349999999,109.95822337499999,56.0,75.0
535,109.83322349999999,109.96142849999998,61.0,62.0
536,109.83322349999999,109.9918771875,65.0,62.0
537,110.21783849999998,110.37809474999999,49.0,90.0
538,110.41014599999998,110.76431231249998,60.0,85.0
539,110.41014599999998,110.82200456249998,63.0,81.0
540,110.41014599999998,110.83482506249999,68.0,79.0
541,110.98706849999999,111.19059393749998,60.0,78.0
542,111.17937599999999,111.36367068749999,63.0,70.0
543,111.37168349999999,111.54476024999998,68.0,79.0
544,111.56399099999999,111.7963625625,66.0,81.0
545,110.41014599999998,111.83802918749998,44.0,93.0
546,110.98706849999999,111.83802918749998,44.0,45.0
547,111.75629849999999,111.87969581249999,65.0,64.0
548,111.56399099999999,111.89091374999998,32.0,94.0
549,111.94860599999998,111.99027262499999,63.0,52.0
550,112.14091349999998,112.18578524999998,33.0,61.0
551,112.33322099999998,112.39091324999998,56.0,51.0
552,112.33322099999998,112.52713106249999,34.0,85.0
553,112.33322099999998,112.59443868749999,58.0,51.0
554,112.33322099999998,112.6793745,65.0,74.0
555,112.33322099999998,112.74668212499999,61.0,70.0
556,112.91014349999999,112.951810125,58.0,67.0
557,112.91014349999999,112.97745112499999,63.0,69.0
558,112.91014349999999,113.047963875,46.0,92.0
559,113.48706599999998,113.77873237499999,66.0,73.0
560,113.48706599999998,113.80437337499998,61.0,68.0
561,113.48706599999998,113.82520668749999,58.0,81.0
562,113.48706599999998,114.09123206249998,54.0,75.0
563,114.0639885,114.27552674999998,61.0,61.0
564,114.0639885,114.29636006249999,58.0,67.0
565,114.0639885,114.387706125,66.0,70.0
566,114.44860349999999,114.66014175,54.0,72.0
567,114.64091099999999,114.82360312499999,58.0,81.0
568,113.48706599999998,114.85725693749998,42.0,73.0
569,114.64091099999999,114.87328256249998,66.0,92.0
570,114.83321849999999,114.90533381249999,49.0,92.0
571,115.02552599999999,115.205013,61.0,76.0
572,115.41014099999998,115.44219224999999,25.0,20.0
573,115.41014099999998,115.45180762499999,27.0,46.0
574,115.41014099999998,115.47103837499999,39.0,39.0
575,115.21783349999998,115.49347424999999,66.0,84.0
576,115.41014099999998,115.68738431249999,56.0,70.0
577,115.41014099999998,115.81719187499999,61.0,62.0
578,115.41014099999998,115.87328156249998,65.0,83.0
579,115.98706349999999,116.32840931249999,63.0,84.0
580,116.37167849999999,116.47103737499998,56.0,60.0
581,116.17937099999999,116.56078087499999,49.0,83.0
582,116.56398599999999,117.0383445,63.0,80.0
583,116.56398599999999,117.12167774999999,56.0,77.0
584,116.56398599999999,117.15853668749999,60.0,85.0
585,117.333216,117.51751068749999,56.0,70.0
586,117.52552349999999,117.75629249999999,58.0,73.0
587,117.71783099999999,117.77071556249999,60.0,78.0
588,116.56398599999999,118.00629224999999,44.0,93.0
589,117.71783099999999,118.01109993749999,56.0,80.0
590,117.14090849999998,118.01911274999999,51.0,67.0
591,117.71783099999999,118.01911274999999,51.0,23.0
592,117.91013849999999,118.11045881249999,61.0,75.0
593,118.10244599999999,118.28834324999998,63.0,67.0
594,118.29475349999998,118.51430456249999,66.0,74.0
595,118.48706099999998,118.820394,61.0,79.0
596,118.48706099999998,118.92135543749998,65.0,70.0
597,118.871676,119.03193224999998,53.0,75.0
598,118.48706099999998,119.05116299999999,46.0,83.0
599,119.06398349999999,119.12167574999998,60.0,77.0
600,119.06398349999999,119.46302156249999,63.0,86.0
601,119.44859849999999,119.74346999999999,65.0,77.0
602,119.83321349999999,120.24827718749998,54.0,60.0
603,119.83321349999999,120.57840506249998,61.0,72.0
604,119.83321349999999,120.58802043749999,58.0,71.0
605,119.83321349999999,120.64731524999999,66.0,59.0
606,120.41013599999998,120.83000737499998,54.0,57.0
607,120.79475099999999,120.95340468749998,58.0,81.0
608,120.79475099999999,121.01269949999998,61.0,81.0
609,120.79475099999999,121.09443018749998,66.0,66.0
610,120.98705849999999,121.31237868749999,54.0,65.0
611,119.83321349999999,121.35084018749998,42.0,70.0
612,121.17936599999999,121.37648118749999,58.0,58.0
613,121.37167349999999,121.49507081249999,66.0,57.0
614,121.56398099999998,121.67455781249998,66.0,39.0
615,121.56398099999998,122.00628824999998,60.0,84.0
616,121.56398099999998,122.20500599999998,63.0,78.0
617,122.1409035,122.33641612499999,60.0,64.0
618,121.56398099999998,122.45180062499999,56.0,75.0
619,121.56398099999998,122.58000562499998,44.0,77.0
620,122.71782599999999,123.41974837499998,65.0,70.0
621,122.71782599999999,123.50468418749999,61.0,73.0
622,122.71782599999999,123.52391493749998,56.0,84.0
623,123.87167099999999,124.15372199999999,56.0,66.0
624,123.87167099999999,124.36205512499998,63.0,63.0
625,124.25628599999999,124.51590112499998,65.0,80.0
626,122.71782599999999,124.54634981249998,49.0,85.0
627,124.63929843749999,125.03352881249998,65.0,67.0
628,124.63929843749999,125.04634931249998,70.0,60.0
629,124.63929843749999,125.05115699999999,61.0,61.0
630,124.63929843749999,125.61205387499999,58.0,56.0
631,124.63929843749999,125.68737431249998,46.0,56.0
632,125.41013099999999,125.79634856249999,61.0,69.0
633,125.41013099999999,125.80596393749998,65.0,73.0
634,125.41013099999999,125.80916906249999,70.0,62.0
635,126.17936099999999,126.60564262499999,66.0,64.0
636,126.17936099999999,126.62006568749999,61.0,59.0
637,126.17936099999999,126.62166824999998,70.0,60.0
638,126.17936099999999,127.09121906249999,54.0,52.0
639,126.94698843749998,127.36685981249998,61.0,68.0
640,126.94698843749998,127.38769312499998,66.0,78.0
641,126.94698843749998,127.42615462499998,70.0,60.0
642,126.17936099999999,127.74025687499999,42.0,50.0
643,127.33320599999999,127.80115424999998,54.0,50.0
644,127.71782099999999,128.04474374999998,61.0,58.0
645,127.71782099999999,128.09282062499997,68.0,70.0
646,127.71782099999999,128.12326931249999,65.0,67.0
647,128.10243599999998,128.37647418749998,61.0,40.0
648,127.71782099999999,128.69538412499998,49.0,69.0
649,128.48705099999998,128.87807625,68.0,71.0
650,128.48705099999998,128.87967881249998,65.0,77.0
651,128.87166599999998,129.28833225,49.0,46.0
652,129.25628099999997,129.46781925,72.0,46.0
653,129.25628099999997,129.6392934375,63.0,71.0
654,129.25628099999997,129.66653699999998,68.0,77.0
655,129.6392934375,130.14249806249998,56.0,65.0
656,129.25628099999997,130.18256212499998,44.0,78.0
657,130.025511,130.38769012499998,68.0,71.0
658,130.025511,130.41172856249997,63.0,72.0
659,130.025511,130.41172856249997,72.0,78.0
660,130.410126,130.5751899375,45.0,47.0
661,130.794741,131.18256112499998,65.0,70.0
662,130.794741,131.21942006249998,61.0,64.0
663,130.794741,131.233843125,70.0,68.0
664,130.794741,131.6072401875,58.0,47.0
665,130.794741,131.67935549999999,46.0,75.0
666,131.56397099999998,131.98063724999997,70.0,75.0
667,131.56397099999998,131.98223981249998,65.0,77.0
668,131.94858599999998,131.99826543749998,58.0,39.0
669,131.56397099999998,132.003073125,61.0,79.0
670,131.94858599999998,132.0399320625,46.0,74.0
671,132.33320099999997,132.64570068749998,54.0,54.0
672,132.33320099999997,132.7739056875,70.0,70.0
673,132.33320099999997,132.7819185,66.0,73.0
674,132.33320099999997,132.81396974999998,61.0,66.0
675,132.9101235,133.1921745,54.0,34.0
676,133.102431,133.35884099999998,66.0,77.0
677,133.102431,133.3764691875,70.0,73.0
678,133.102431,133.41172556249998,61.0,66.0
679,133.487046,133.528712625,54.0,81.0
680,132.33320099999997,133.57518693749998,42.0,72.0
681,133.871661,134.208199125,49.0,79.0
682,133.871661,134.26428881249998,61.0,69.0
683,133.871661,134.31396825,65.0,53.0
684,133.871661,134.32037849999998,56.0,79.0
685,133.871661,134.33640412499997,68.0,61.0
686,134.44858349999998,134.77871137499997,49.0,31.0
687,134.64089099999998,135.03351881249998,56.0,83.0
688,134.64089099999998,135.0527495625,68.0,56.0
689,133.871661,135.0559546875,37.0,71.0
690,134.64089099999998,135.07358287499997,65.0,80.0
691,135.02550599999998,135.0815956875,49.0,65.0
692,134.64089099999998,135.0815956875,61.0,82.0
693,135.41012099999998,135.62806949999998,58.0,86.0
694,135.41012099999998,135.62806949999998,66.0,89.0
695,135.41012099999998,135.663325875,61.0,81.0
696,135.60242849999997,135.82518468749998,56.0,78.0
697,135.79473599999997,135.87326156249998,60.0,75.0
698,135.9870435,136.208197125,60.0,93.0
699,135.9870435,136.2322355625,63.0,91.0
700,135.9870435,136.2482611875,68.0,96.0
701,136.179351,136.32678675,56.0,83.0
702,135.41012099999998,136.37806874999998,44.0,94.0
703,136.3716585,136.43095331249998,68.0,36.0
704,136.3716585,136.5110814375,60.0,80.0
705,136.563966,136.75947862499999,63.0,82.0
706,136.7562735,136.80755549999998,45.0,52.0
707,136.948581,137.0559526875,34.0,94.0
708,136.948581,137.29152937499998,65.0,88.0
709,136.948581,137.32678574999997,61.0,84.0
710,136.948581,137.387683125,58.0,91.0
711,137.52550349999999,137.6585161875,44.0,55.0
712,137.52550349999999,137.70499049999998,46.0,59.0
713,137.71781099999998,138.0880029375,58.0,88.0
714,137.71781099999998,138.124861875,65.0,88.0
715,137.71781099999998,138.1328746875,61.0,84.0
716,138.10242599999998,138.1408875,48.0,34.0
717,138.10242599999998,138.32357962499998,46.0,48.0
718,138.29473349999998,138.41332312499998,44.0,76.0
719,138.48704099999998,138.63447674999998,42.0,86.0
720,138.48704099999998,138.83159193749998,66.0,97.0
721,138.48704099999998,138.91652774999997,58.0,92.0
722,138.48704099999998,138.92614312499998,61.0,87.0
723,139.0623609375,139.3668478125,66.0,89.0
724,139.0623609375,139.42454006249997,61.0,74.0
725,139.0623609375,139.4309503125,58.0,75.0
726,139.4485785,139.5511425,54.0,87.0
727,139.640886,139.74024487499997,58.0,66.0
728,139.640886,139.81877043749998,61.0,76.0
729,140.025501,140.131270125,37.0,83.0
730,139.8331935,140.14569318749997,66.0,83.0
731,140.025501,140.204988,49.0,88.0
732,140.025501,140.3540263125,65.0,87.0
733,140.025501,140.36684681249997,56.0,87.0
734,140.025501,140.4149236875,61.0,78.0
735,140.6024235,140.89248731249998,65.0,84.0
736,140.6024235,140.98223081249998,56.0,85.0
737,140.6024235,140.999859,61.0,66.0
738,140.98703849999998,141.099217875,49.0,86.0
739,141.17934599999998,141.24505106249998,61.0,73.0
740,141.17934599999998,141.26107668749998,56.0,83.0
741,141.37165349999998,141.45819187499998,61.0,58.0
742,141.17934599999998,141.53992256249998,65.0,83.0
743,141.56396099999998,141.6841531875,44.0,81.0
744,141.56396099999998,141.7835120625,60.0,87.0
745,141.56396099999998,141.7867171875,68.0,74.0
746,141.56396099999998,141.8075505,63.0,76.0
747,141.94857599999997,141.99505031249998,60.0,85.0
748,141.75626849999998,142.18255012499998,44.0,63.0
749,142.14088349999997,142.52229337499998,60.0,101.0
750,142.14088349999997,142.53831899999997,68.0,101.0
751,142.14088349999997,142.5527420625,63.0,91.0
752,141.56396099999998,142.74024187499998,32.0,80.0
753,142.5254985,142.76107518749998,44.0,86.0
754,142.717806,142.913318625,60.0,85.0
755,142.9101135,142.958190375,65.0,67.0
756,142.717806,142.97421599999998,68.0,55.0
757,142.9101135,142.97421599999998,68.0,30.0
758,142.717806,143.0046646875,63.0,80.0
759,143.102421,143.2418439375,34.0,93.0
760,143.102421,143.32197206249998,46.0,98.0
761,143.102421,143.381266875,65.0,82.0
762,143.102421,143.413318125,61.0,95.0
763,143.487036,143.53190775,61.0,53.0
764,143.487036,143.541523125,65.0,33.0
765,143.487036,143.5527410625,58.0,75.0
766,143.6793435,143.938958625,58.0,87.0
767,143.6793435,143.958189375,63.0,97.0
768,143.87165099999999,144.0238944375,46.0,58.0
769,144.06395849999998,144.25466343749997,58.0,77.0
770,144.25466343749997,144.44376581249998,61.0,73.0
771,144.44857349999998,144.49825293749998,63.0,68.0
772,144.64088099999998,144.91972687499998,65.0,99.0
773,144.64088099999998,144.945367875,58.0,90.0
774,144.64088099999998,144.97261143749998,61.0,90.0
775,145.02549599999998,145.28350856249997,46.0,48.0
776,145.21780349999997,145.59120056249998,65.0,87.0
777,145.21780349999997,145.6264569375,58.0,89.0
778,145.21780349999997,145.63286718749998,61.0,81.0
779,145.60241849999997,145.810751625,46.0,82.0
780,145.794726,145.9822258125,58.0,89.0
781,145.9870335,146.092802625,61.0,77.0
782,146.179341,146.53030218749998,68.0,78.0
783,146.179341,146.56716112499998,60.0,94.0
784,146.179341,146.56716112499998,63.0,80.0
785,146.7562635,146.91010949999998,60.0,80.0
786,146.563956,147.1296605625,56.0,70.0
787,147.14087849999999,147.18575024999998,56.0,91.0
788,147.14087849999999,147.30113475,61.0,99.0
789,147.14087849999999,147.30754499999998,68.0,89.0
790,146.179341,147.31075012499997,44.0,94.0
791,147.52549349999998,147.6585061875,68.0,81.0
792,147.71780099999998,147.76267274999998,49.0,89.0
793,147.71780099999998,147.900493125,56.0,90.0
794,147.71780099999998,147.94376231249998,65.0,89.0
795,147.71780099999998,147.94696743749998,61.0,87.0
796,147.91010849999998,148.15690312499999,49.0,79.0
797,148.10241599999998,148.22421075,56.0,87.0
798,147.71780099999998,148.329979875,37.0,96.0
799,148.29472349999998,148.3988900625,61.0,86.0
800,148.48703099999997,148.7033769375,48.0,93.0
801,148.67933849999997,148.72581281249998,61.0,42.0
802,148.48703099999997,148.74183843749998,63.0,94.0
803,148.48703099999997,148.76267174999998,56.0,101.0
804,148.48703099999997,148.88446649999997,36.0,97.0
805,148.87164599999997,148.9533766875,48.0,78.0
806,148.87164599999997,149.01908174999997,56.0,80.0
807,149.0639535,149.10722268749998,63.0,51.0
808,149.25465843749998,149.51106843749997,55.0,88.0
809,149.25465843749998,149.63446574999998,67.0,95.0
810,149.25465843749998,149.682542625,59.0,98.0
811,149.25465843749998,149.682542625,62.0,94.0
812,149.640876,149.84440143749998,55.0,58.0
813,149.25465843749998,149.85241424999998,43.0,85.0
814,150.025491,150.29472149999998,57.0,86.0
815,150.025491,150.4309393125,61.0,101.0
816,150.025491,150.43254187499997,64.0,94.0
817,150.025491,150.44536237499997,69.0,101.0
818,150.41010599999998,150.96779775,57.0,43.0
819,150.79472099999998,151.0383105,59.0,103.0
820,150.79472099999998,151.054336125,62.0,96.0
821,150.79472099999998,151.05593868749997,67.0,98.0
822,150.025491,151.31875893749998,45.0,95.0
823,151.17933599999998,151.78830975,57.0,89.0
824,151.56395099999997,151.91651474999998,64.0,96.0
825,151.56395099999997,151.95016856249998,61.0,103.0
826,151.56395099999997,151.97420699999998,69.0,103.0
827,151.94856599999997,151.999848,52.0,33.0
828,151.56395099999997,152.00786081249998,45.0,106.0
829,152.333181,152.554334625,35.0,95.0
830,152.333181,152.6072191875,47.0,88.0
831,152.333181,152.69055243749997,66.0,88.0
832,152.333181,152.78830874999997,59.0,99.0
833,152.333181,152.79311643749998,62.0,94.0
834,152.9101035,153.0943981875,59.0,96.0
835,152.9101035,153.11202637499997,62.0,94.0
836,152.9101035,153.1232443125,66.0,99.0
837,153.102411,153.221000625,47.0,82.0
838,153.48542343749997,153.75625649999998,62.0,47.0
839,153.48542343749997,153.83317949999997,67.0,101.0
840,153.48542343749997,153.84920512499997,59.0,8.0
841,153.48542343749997,154.03349981249997,55.0,97.0
842,154.06394849999998,154.1104228125,62.0,95.0
843,154.06394849999998,154.16971762499998,59.0,98.0
844,154.06394849999998,154.39087124999998,67.0,99.0
845,154.44856349999998,154.6793325,55.0,71.0
846,154.64087099999998,154.87163999999999,57.0,101.0
847,154.64087099999998,154.87163999999999,62.0,93.0
848,154.64087099999998,154.87805024999997,66.0,98.0
849,153.48542343749997,154.8844605,43.0,95.0
850,154.83317849999997,154.95978093749997,50.0,93.0
851,155.02548599999997,155.233819125,64.0,82.0
852,155.21779349999997,155.36522924999997,67.0,87.0
853,155.41010099999997,155.51907525,38.0,86.0
854,155.41010099999997,155.57035724999997,50.0,93.0
855,155.41010099999997,155.6584981875,67.0,45.0
856,155.41010099999997,155.74343399999998,57.0,95.0
857,155.41010099999997,155.778690375,66.0,96.0
858,155.41010099999997,155.797921125,62.0,92.0
859,155.794716,155.8636261875,50.0,42.0
860,155.9870235,156.2322155625,57.0,100.0
861,156.179331,156.31394625,50.0,75.0
862,155.9870235,156.3604205625,64.0,99.0
863,156.563946,156.99343274999998,66.0,90.0
864,156.94856099999998,157.2322145625,57.0,90.0
865,157.14086849999998,157.3027273125,64.0,88.0
866,157.14086849999998,157.38606056249998,61.0,94.0
867,157.33317599999998,157.58157318749997,62.0,80.0
868,157.52548349999998,157.65529106249997,64.0,90.0
869,156.94856099999998,157.65689362499998,45.0,89.0
870,157.71779099999998,157.945354875,66.0,97.0
871,157.71779099999998,157.9693933125,57.0,97.0
872,157.91009849999998,158.1584956875,69.0,91.0
873,157.71779099999998,158.1873418125,45.0,43.0
874,158.10240599999997,158.3059314375,73.0,92.0
875,158.10240599999997,158.32836731249998,57.0,73.0
876,158.29471349999997,158.4084954375,74.0,81.0
877,158.4854184375,158.71618743749997,66.0,84.0
878,158.4854184375,158.77067456249998,69.0,89.0
879,158.4854184375,158.797918125,74.0,105.0
880,158.871636,158.9277256875,64.0,69.0
881,158.871636,159.00945637499998,73.0,86.0
882,159.0639435,159.2193920625,66.0,100.0
883,158.67932849999997,159.37804574999998,54.0,60.0
884,159.0639435,159.47419949999997,74.0,99.0
885,159.4485585,159.47419949999997,74.0,41.0
886,159.256251,159.4854174375,59.0,87.0
887,159.4485585,159.4982379375,73.0,87.0
888,159.4485585,159.50304562499997,66.0,89.0
889,158.4854184375,159.6536865,47.0,100.0
890,159.640866,159.69214799999997,54.0,78.0
891,159.8331735,159.9405451875,69.0,91.0
892,159.8331735,160.1040065625,62.0,97.0
893,159.8331735,160.11842962499998,71.0,77.0
894,160.21778849999998,160.35721143749998,62.0,74.0
895,160.21778849999998,160.41009599999998,69.0,91.0
896,160.60240349999998,160.79951868749998,55.0,88.0
897,160.79471099999998,161.009454375,62.0,90.0
898,160.79471099999998,161.02708256249997,67.0,97.0
899,159.8331735,161.07195431249997,43.0,99.0
900,160.98701849999998,161.13445424999998,55.0,92.0
901,161.17932599999997,161.3540053125,62.0,74.0
902,161.37163349999997,161.51426156249997,69.0,84.0
903,161.5623384375,161.84759456249998,64.0,93.0
904,161.5623384375,161.90528681249998,66.0,93.0
905,161.5623384375,161.91009449999999,69.0,71.0
906,162.1408635,162.26586337499998,64.0,91.0
907,161.75624849999997,162.28990181249998,57.0,85.0
908,161.94855599999997,162.38445299999998,62.0,86.0
909,162.333171,162.47099137499998,66.0,94.0
910,161.5623384375,162.5174656875,50.0,98.0
911,162.5254785,162.56554256249999,57.0,60.0
912,162.5254785,162.66009375,73.0,100.0
913,162.717786,163.04470874999998,64.0,101.0
914,162.717786,163.05111899999997,71.0,106.0
915,163.48701599999998,163.56874668749998,61.0,65.0
916,163.48701599999998,163.58797743749997,59.0,50.0
917,163.29470849999998,163.69534912499998,57.0,91.0
918,163.67932349999998,163.78188749999998,61.0,83.0
919,163.87163099999998,164.0783615625,57.0,94.0
920,163.87163099999998,164.1104128125,62.0,96.0
921,163.102401,164.28829724999997,52.0,86.0
922,163.87163099999998,164.28829724999997,52.0,23.0
923,164.06393849999998,164.30111774999997,64.0,86.0
924,162.717786,164.30272031249999,45.0,103.0
925,164.25624599999998,164.307528,66.0,89.0
926,164.25624599999998,164.38765612499998,57.0,56.0
927,164.44855349999997,164.55592518749998,69.0,90.0
928,164.64086099999997,164.90047612499998,62.0,96.0
929,164.64086099999997,164.96618118749998,71.0,103.0
930,164.64086099999997,164.97259143749997,66.0,94.0
931,165.02547599999997,165.24342449999997,59.0,78.0
932,165.21778349999997,165.33316799999997,62.0,86.0
933,165.410091,165.48861656249997,59.0,61.0
934,165.21778349999997,165.49662937499997,69.0,97.0
935,164.64086099999997,165.515860125,47.0,105.0
936,164.83316849999997,165.5238729375,54.0,81.0
937,165.6023985,165.7290009375,71.0,94.0
938,165.794706,165.95175712499997,62.0,90.0
939,165.794706,165.97739812499998,71.0,68.0
940,165.794706,166.01265449999997,67.0,95.0
941,165.794706,166.37964131249998,55.0,86.0
942,166.37162849999999,166.45496175,62.0,87.0
943,166.37162849999999,166.4950258125,69.0,96.0
944,165.794706,166.54310268749998,43.0,66.0
945,166.75624349999998,166.98380737499997,55.0,85.0
946,166.94855099999998,167.16169181249998,67.0,99.0
947,166.94855099999998,167.17290974999997,59.0,90.0
948,167.14085849999998,167.208166125,50.0,79.0
949,166.75624349999998,167.26746093749998,43.0,26.0
950,167.33316599999998,167.46297356249997,62.0,81.0
951,167.52547349999998,167.8059219375,67.0,93.0
952,167.7161784375,167.94694743749997,57.0,93.0
953,167.7161784375,168.04310118749999,66.0,88.0
954,167.7161784375,168.04630631249998,62.0,10.0
955,167.7161784375,168.179319,50.0,89.0
956,168.10239599999997,168.2161779375,57.0,80.0
957,168.10239599999997,168.24983174999997,64.0,87.0
958,168.29470349999997,168.41008799999997,57.0,79.0
959,168.29470349999997,168.44053668749999,62.0,68.0
960,168.29470349999997,168.4533571875,66.0,87.0
961,167.7161784375,168.560728875,38.0,78.0
962,168.48701099999997,168.6136134375,50.0,87.0
963,168.6793185,168.73701074999997,57.0,57.0
964,168.6793185,168.900472125,69.0,100.0
965,169.256241,169.29630506249998,69.0,17.0
966,169.0639335,169.29951018749998,61.0,82.0
967,169.0639335,169.31713837499998,57.0,87.0
968,169.0639335,169.3219460625,64.0,78.0
969,169.4485485,169.57675349999997,61.0,69.0
970,169.64085599999999,169.67130468749997,64.0,68.0
971,169.4485485,169.71297131249997,57.0,67.0
972,169.64085599999999,169.75143281249998,62.0,72.0
973,169.83316349999998,169.98700949999997,66.0,87.0
974,170.02547099999998,170.182522125,71.0,84.0
975,170.02547099999998,170.18572724999999,69.0,87.0
976,170.21777849999998,170.26265024999998,73.0,62.0
977,170.21777849999998,170.41008599999998,74.0,66.0
978,170.41008599999998,170.51906024999997,69.0,78.0
979,169.0639335,170.53989356249997,45.0,77.0
980,170.41008599999998,170.53989356249997,71.0,80.0
981,170.41008599999998,170.57835506249998,73.0,65.0
982,170.60239349999998,170.64245756249997,67.0,38.0
983,170.60239349999998,170.7482266875,57.0,59.0
984,170.79470099999998,171.0463033125,62.0,94.0
985,170.79470099999998,171.08316225,71.0,98.0
986,170.60239349999998,171.2514313125,66.0,41.0
987,171.17931599999997,171.26585437499998,61.0,78.0
988,171.17931599999997,171.36841837499998,69.0,89.0
989,171.37162349999997,171.50303362499997,62.0,56.0
990,171.37162349999997,171.54950793749998,66.0,32.0
991,171.37162349999997,171.64405912499998,71.0,95.0
992,171.56393099999997,171.68412318749998,59.0,93.0
993,171.56393099999997,171.69534112499997,54.0,1.0
994,170.79470099999998,171.70816162499997,47.0,96.0
995,171.7562385,171.8091230625,62.0,81.0
996,171.7562385,171.8091230625,71.0,34.0
997,171.7562385,171.87643068749998,69.0,87.0
998,172.1408535,172.214571375,62.0,84.0
999,172.1408535,172.30271231249998,71.0,99.0
1000,172.5254685,172.56392999999997,62.0,77.0
1001,172.5254685,172.66328887499998,71.0,91.0
1002,172.91008349999998,173.13444224999998,62.0,87.0
1003,172.91008349999998,173.17130118749998,69.0,95.0
1004,173.29469849999998,173.44854449999997,62.0,77.0
1005,173.29469849999998,173.45495474999998,67.0,88.0
1006,173.48700599999998,173.53989056249998,69.0,36.0
1007,173.10239099999998,173.56553156249998,43.0,83.0
1008,173.48700599999998,173.615211,55.0,83.0
1009,173.8700184375,173.96617218749998,59.0,53.0
1010,173.8700184375,173.98540293749997,67.0,46.0
1011,173.8700184375,174.02867212499999,62.0,52.0
1012,173.8700184375,174.17450531249997,57.0,86.0
1013,173.8700184375,174.204954,69.0,40.0
1014,173.8700184375,174.3443769375,61.0,57.0
1015,173.8700184375,174.36200512499997,64.0,53.0
1016,174.64085099999997,174.688927875,64.0,73.0
1017,174.44854349999997,174.72258168749997,57.0,37.0
1018,174.64085099999997,174.7418124375,61.0,92.0
1019,173.8700184375,174.74822268749998,45.0,85.0
1020,174.64085099999997,174.79469699999999,69.0,92.0
1021,175.025466,175.41969637499997,66.0,85.0
1022,175.025466,175.44213225,50.0,92.0
1023,175.025466,175.5815551875,57.0,98.0
1024,175.025466,175.823542125,62.0,73.0
1025,175.794696,176.28347756249997,50.0,76.0
1026,176.17931099999998,176.46777224999997,57.0,90.0
1027,176.17931099999998,176.48860556249997,62.0,82.0
1028,175.025466,176.52225937499998,38.0,85.0
1029,176.17931099999998,176.55751575,66.0,80.0
1030,176.56392599999998,176.60719518749997,50.0,83.0
