,start,end,pitch,velocity
0,17.008169791666667,17.137267947916666,72.0,68.0
1,17.254071041666666,17.385218375,72.0,69.0
2,17.499972291666666,17.618824562500002,72.0,87.0
3,17.74587354166667,17.985627260416667,72.0,93.0
4,18.483577291666666,18.887265177083336,71.0,87.0
5,18.97537979166667,19.1434123125,72.0,83.0
6,19.221281041666668,19.657755760416666,71.0,93.0
7,19.713083541666666,20.20488604166667,67.0,93.0
8,20.20488604166667,20.340131729166668,64.0,93.0
9,20.450787291666668,20.57578709375,69.0,83.0
10,20.696688541666667,20.79709821875,69.0,80.0
11,20.942589791666666,21.055294531250002,69.0,85.0
12,21.18849104166667,21.31349084375,69.0,90.0
13,21.43439229166667,21.583982218750002,69.0,102.0
14,21.680293541666668,21.7991458125,71.0,93.0
15,21.926194791666667,22.0450470625,69.0,85.0
16,22.172096041666666,23.522503739583335,64.0,93.0
17,24.139306041666668,24.295043500000002,60.0,87.0
18,24.385207291666667,24.520452979166667,65.0,87.0
19,24.631108541666666,24.864714729166668,65.0,87.0
20,25.12291104166667,25.23356660416667,65.0,74.0
21,25.368812291666668,25.860614791666666,65.0,87.0
22,25.860614791666666,26.10651604166667,64.0,80.0
23,26.10651604166667,27.30118628125,65.0,90.0
24,28.073726041666667,28.22331596875,67.0,87.0
25,28.319627291666666,28.4384795625,71.0,72.0
26,28.56552854166667,29.05938021875,71.0,87.0
27,29.303232291666667,29.635198979166667,71.0,95.0
28,29.79503479166667,29.936428010416666,72.0,80.0
29,30.04093604166667,30.524541833333334,71.0,102.0
30,30.532738541666667,30.7745414375,69.0,87.0
31,30.778639791666667,32.03068698958334,67.0,74.0
32,32.745849791666664,32.88109547916667,72.0,87.0
33,32.99175104166667,33.137242614583336,72.0,80.0
34,33.23765229166667,33.39953728125,72.0,83.0
35,33.483553541666666,33.7007663125,79.0,103.0
36,34.22125729166667,34.35035544791667,71.0,80.0
37,34.46715854166667,34.590109166666664,71.0,87.0
38,34.713059791666666,34.83601041666667,71.0,93.0
39,34.95896104166667,35.08805919791667,71.0,93.0
40,35.204862291666664,35.35035386458333,71.0,95.0
41,35.45076354166667,35.9384676875,79.0,102.0
42,36.18846729166667,36.301172031250005,81.0,87.0
43,36.434368541666664,36.54092575,81.0,85.0
44,36.68026979166667,36.784777822916666,81.0,87.0
45,36.92617104166667,37.026580718750004,81.0,87.0
46,37.172072291666666,37.52248157291667,81.0,95.0
47,37.663874791666665,37.79297294791667,79.0,87.0
48,37.90977604166667,38.893381041666665,76.0,93.0
49,39.13928229166667,39.26838044791667,76.0,87.0
50,39.38518354166667,39.53887182291667,76.0,95.0
51,39.631084791666666,39.76018294791667,74.0,93.0
52,39.87698604166667,40.008133375,72.0,87.0
53,40.122887291666665,40.26837886458333,74.0,87.0
54,40.36878854166667,40.47944410416667,76.0,93.0
55,40.61468979166667,42.55730966666667,74.0,95.0
56,43.07370229166667,43.21919386458333,74.0,90.0
57,43.319603541666666,43.48353770833334,76.0,93.0
58,43.56550479166667,43.698701302083336,74.0,71.0
59,43.81140604166667,43.942553375,72.0,74.0
60,44.05730729166667,44.467142708333334,74.0,95.0
61,44.549109791666666,46.90771261458333,72.0,95.0
62,47.99172729166667,48.838037427083336,72.0,87.0
63,48.97533229166667,49.74172452083334,74.0,95.0
64,49.95893729166667,50.15565829166667,76.0,102.0
65,50.20483854166667,50.38311694791667,74.0,87.0
66,50.45073979166667,50.606477250000005,72.0,90.0
67,50.696641041666666,50.83188672916667,74.0,102.0
68,50.94254229166667,51.38516454166667,76.0,103.0
69,51.43434479166667,51.58393471875,79.0,102.0
70,51.68024604166667,52.57778560416667,74.0,102.0
71,53.89335729166667,54.10647170833334,72.0,87.0
72,54.13925854166667,54.31753694791667,71.0,87.0
73,54.385159791666666,54.536798895833336,69.0,90.0
74,54.63106104166667,54.76015919791667,71.0,93.0
75,54.87696229166667,55.3400763125,72.0,95.0
76,55.36876479166667,55.614666041666666,69.0,93.0
77,55.614666041666666,56.85646735416667,71.0,95.0
78,57.82777729166667,58.07982607291667,69.0,83.0
79,58.073678541666666,58.335973208333336,67.0,80.0
80,58.31957979166667,58.55318597916667,65.0,95.0
81,58.56548104166667,58.87695595833333,67.0,87.0
82,58.81138229166667,59.329824093750005,69.0,93.0
83,59.303184791666666,59.559331927083335,72.0,93.0
84,59.54908604166667,60.042937718750004,69.0,93.0
85,60.04088854166667,60.614658125000005,67.0,87.0
86,60.77859229166667,60.93842810416667,72.0,93.0
87,61.02449354166667,61.182280177083335,74.0,93.0
88,61.27039479166667,61.40768965625,76.0,93.0
89,61.51629604166667,61.64129584375,76.0,93.0
90,61.762197291666666,61.922033104166665,76.0,95.0
91,62.00809854166667,62.5941631875,77.0,105.0
92,62.74580229166667,63.16178523958334,74.0,102.0
93,63.23760479166667,63.42203072916667,72.0,87.0
94,63.48350604166667,65.21096232291667,74.0,95.0
95,65.69661729166667,65.91178088541668,76.0,105.0
96,65.94251854166667,66.13923954166667,74.0,87.0
97,66.18841979166667,66.36259984375,72.0,93.0
98,66.43432104166666,66.57981261458333,74.0,93.0
99,66.68022229166667,67.16177890625,76.0,102.0
100,67.17202479166667,67.34825402083334,79.0,93.0
101,67.41792604166668,67.87899088541667,76.0,74.0
102,67.90972854166667,68.77448127083333,74.0,103.0
103,69.63103729166667,69.85234841666667,72.0,93.0
104,69.87693854166668,70.09824966666667,71.0,87.0
105,70.12283979166666,70.31956079166667,69.0,95.0
106,70.36874104166667,70.58185545833334,71.0,95.0
107,70.61464229166667,71.09619890625001,72.0,93.0
108,71.10644479166668,71.33390344791667,69.0,95.0
109,71.35234604166666,71.88103372916667,71.0,102.0
110,71.84414854166667,72.09209896875001,69.0,87.0
111,72.09004979166667,73.21504801041667,67.0,87.0
112,73.31955604166667,73.53471963541666,67.0,102.0
113,73.56545729166668,73.74988322916667,69.0,105.0
114,73.81135854166666,74.03266966666666,67.0,80.0
115,74.05725979166667,74.30316104166667,65.0,72.0
116,74.30316104166667,74.4588985,67.0,80.0
117,74.54906229166667,74.85643885416667,69.0,102.0
118,75.04086479166666,75.24783167708334,69.0,87.0
119,75.28676604166667,75.417913375,72.0,90.0
120,75.53266729166667,75.68840475,69.0,87.0
121,75.77856854166667,76.25602680208334,67.0,90.0
122,76.51627229166667,76.6597146875,72.0,90.0
123,76.76217354166667,76.86873075,74.0,93.0
124,77.00807479166667,77.34004147916667,76.0,102.0
125,77.49987729166666,77.8892209375,76.0,102.0
126,77.99167979166667,78.32159730208333,77.0,105.0
127,78.48348229166668,78.96503890625,74.0,95.0
128,78.97528479166667,79.13921895833333,72.0,87.0
129,79.22118604166667,80.10028301041667,74.0,102.0
130,80.45069229166667,80.93429808333333,72.0,90.0
131,80.94249479166668,81.44454317708333,71.0,93.0
132,81.43429729166667,81.90150966666667,74.0,93.0
133,81.92609979166667,83.91994909375,72.0,87.0
134,99.63098979166666,99.76008794791667,72.0,68.0
135,99.87689104166667,100.008038375,72.0,69.0
136,100.12279229166667,100.2416445625,72.0,87.0
137,100.36869354166667,100.60844726041667,72.0,93.0
138,101.10639729166667,101.51008517708334,71.0,87.0
139,101.59819979166667,101.76623231250001,72.0,83.0
140,101.84410104166668,102.28057576041667,71.0,93.0
141,102.33590354166667,102.82770604166667,67.0,93.0
142,102.82770604166667,102.96295172916668,64.0,93.0
143,103.07360729166668,103.19860709375,69.0,83.0
144,103.31950854166666,103.41991821875,69.0,80.0
145,103.56540979166667,103.67811453125,69.0,85.0
146,103.81131104166667,103.93631084375001,69.0,90.0
147,104.05721229166667,104.20680221875,69.0,102.0
148,104.30311354166668,104.4219658125,71.0,93.0
149,104.54901479166666,104.66786706250001,69.0,85.0
150,104.79491604166667,106.14532373958333,64.0,93.0
151,106.76212604166668,106.91786350000001,60.0,87.0
152,107.00802729166666,107.14327297916667,65.0,87.0
153,107.25392854166667,107.48753472916667,65.0,87.0
154,107.74573104166667,107.85638660416667,65.0,74.0
155,107.99163229166668,108.48343479166667,65.0,87.0
156,108.48343479166667,108.72933604166667,64.0,80.0
157,108.72933604166667,109.92400628125,65.0,90.0
158,110.69654604166666,110.84613596875,67.0,87.0
159,110.94244729166667,111.06129956250001,71.0,72.0
160,111.18834854166667,111.68220021875,71.0,87.0
161,111.92605229166666,112.25801897916666,71.0,95.0
162,112.41785479166667,112.55924801041667,72.0,80.0
163,112.66375604166667,113.14736183333333,71.0,102.0
164,113.15555854166666,113.39736143750001,69.0,87.0
165,113.40145979166667,114.65350698958333,67.0,74.0
166,115.36866979166668,115.50391547916666,72.0,87.0
167,115.61457104166666,115.76006261458333,72.0,80.0
168,115.86047229166667,116.02235728125001,72.0,83.0
169,116.10637354166667,116.3235863125,79.0,103.0
170,116.84407729166666,116.97317544791667,71.0,80.0
171,117.08997854166667,117.21292916666667,71.0,87.0
172,117.33587979166667,117.45883041666667,71.0,93.0
173,117.58178104166667,117.71087919791667,71.0,93.0
174,117.82768229166668,117.97317386458334,71.0,95.0
175,118.07358354166666,118.5612876875,79.0,102.0
176,118.81128729166667,118.92399203125001,81.0,87.0
177,119.05718854166668,119.16374575,81.0,85.0
178,119.30308979166666,119.40759782291667,81.0,87.0
179,119.54899104166667,119.64940071875,81.0,87.0
180,119.79489229166667,120.14530157291667,81.0,95.0
181,120.28669479166668,120.41579294791667,79.0,87.0
182,120.53259604166666,121.51620104166668,76.0,93.0
183,121.76210229166666,121.89120044791667,76.0,87.0
184,122.00800354166667,122.16169182291667,76.0,95.0
185,122.25390479166667,122.38300294791667,74.0,93.0
186,122.49980604166667,122.630953375,72.0,87.0
187,122.74570729166668,122.89119886458334,74.0,87.0
188,122.99160854166666,123.10226410416666,76.0,93.0
189,123.23750979166667,125.18012966666667,74.0,95.0
190,125.69652229166667,125.84201386458334,74.0,90.0
191,125.94242354166667,126.10635770833333,76.0,93.0
192,126.18832479166667,126.32152130208334,74.0,71.0
193,126.43422604166668,126.56537337500001,72.0,74.0
194,126.68012729166666,127.08996270833333,74.0,95.0
195,127.17192979166667,129.53053261458334,72.0,95.0
196,130.61454729166667,130.81126829166666,76.0,102.0
197,130.86044854166667,131.03872694791667,74.0,87.0
198,131.10634979166667,131.26208725,72.0,90.0
199,131.35225104166668,131.48749672916668,74.0,102.0
200,131.59815229166668,132.04077454166668,76.0,103.0
201,132.08995479166668,132.23954471875,79.0,102.0
202,132.33585604166666,133.23339560416667,74.0,102.0
203,134.54896729166668,134.76208170833334,72.0,87.0
204,134.79486854166666,134.97314694791666,71.0,87.0
205,135.04076979166666,135.19240889583332,69.0,90.0
206,135.28667104166666,135.41576919791666,71.0,93.0
207,135.53257229166667,135.9956863125,72.0,95.0
208,136.02437479166667,136.27027604166668,69.0,93.0
209,136.27027604166668,137.51207735416668,71.0,95.0
210,138.48338729166667,138.73543607291668,69.0,83.0
211,138.72928854166668,138.99158320833334,67.0,80.0
212,138.97518979166668,139.20879597916667,65.0,95.0
213,139.22109104166668,139.53256595833335,67.0,87.0
214,139.46699229166668,139.98543409375,69.0,93.0
215,139.95879479166666,140.21494192708334,72.0,93.0
216,140.20469604166666,140.69854771875,69.0,93.0
217,140.69649854166667,141.270268125,67.0,87.0
218,141.43420229166668,141.59403810416669,72.0,93.0
219,141.68010354166668,141.83789017708335,74.0,93.0
220,141.92600479166668,142.06329965625,76.0,93.0
221,142.17190604166666,142.29690584375,76.0,93.0
222,142.41780729166666,142.57764310416667,76.0,95.0
223,142.66370854166667,143.2497731875,77.0,105.0
224,143.40141229166667,143.81739523958333,74.0,102.0
225,143.89321479166668,144.07764072916666,72.0,87.0
226,144.13911604166668,145.86657232291668,74.0,95.0
227,146.35222729166668,146.56739088541667,76.0,105.0
228,146.59812854166668,146.79484954166668,74.0,87.0
229,146.84402979166669,147.01820984375001,72.0,93.0
230,147.08993104166666,147.23542261458334,74.0,93.0
231,147.33583229166666,147.81738890625002,76.0,102.0
232,147.82763479166667,148.00386402083333,79.0,93.0
233,148.07353604166667,148.53460088541667,76.0,74.0
234,148.56533854166668,149.43009127083334,74.0,103.0
235,150.28664729166667,150.50795841666667,72.0,93.0
236,150.53254854166667,150.75385966666667,71.0,87.0
237,150.77844979166667,150.97517079166667,69.0,95.0
238,151.02435104166668,151.23746545833333,71.0,95.0
239,151.27025229166668,151.75180890625,72.0,93.0
240,151.76205479166669,151.98951344791666,69.0,95.0
241,152.00795604166666,152.53664372916668,71.0,102.0
242,152.49975854166667,152.74770896875,69.0,87.0
243,152.74565979166667,153.87065801041666,67.0,87.0
244,153.97516604166668,154.19032963541667,67.0,102.0
245,154.22106729166669,154.40549322916667,69.0,105.0
246,154.46696854166666,154.68827966666666,67.0,80.0
247,154.71286979166666,154.95877104166667,65.0,72.0
248,154.95877104166667,155.1145085,67.0,80.0
249,155.20467229166667,155.51204885416666,69.0,102.0
250,155.69647479166667,155.90344167708335,69.0,87.0
251,155.94237604166668,156.073523375,72.0,90.0
252,156.18827729166668,156.34401475,69.0,87.0
253,156.43417854166668,156.91163680208334,67.0,90.0
254,157.17188229166666,157.3153246875,72.0,90.0
255,157.41778354166667,157.52434075,74.0,93.0
256,157.66368479166667,157.99565147916667,76.0,102.0
257,158.15548729166667,158.5448309375,76.0,102.0
258,158.64728979166668,158.97720730208334,77.0,105.0
259,159.13909229166669,159.62064890625,74.0,95.0
260,159.63089479166666,159.79482895833334,72.0,87.0
261,159.87679604166667,160.75589301041668,74.0,102.0
262,161.10630229166668,161.58990808333334,72.0,90.0
263,161.59810479166669,162.10015317708334,71.0,93.0
264,162.08990729166666,162.55711966666667,74.0,93.0
265,162.58170979166667,164.57555909375,72.0,87.0
266,185.69642729166668,185.89314829166668,76.0,102.0
267,185.94232854166668,186.12060694791668,74.0,87.0
268,186.18822979166669,186.34396725000002,72.0,90.0
269,186.43413104166666,186.56937672916666,74.0,102.0
270,186.68003229166666,187.12265454166666,76.0,103.0
271,187.17183479166667,187.32142471875,79.0,102.0
272,187.41773604166667,188.3152756041667,74.0,102.0
273,189.63084729166667,189.84396170833335,72.0,87.0
274,189.87674854166667,190.05502694791667,71.0,87.0
275,190.12264979166667,190.27428889583334,69.0,90.0
276,190.36855104166668,190.49764919791667,71.0,93.0
277,190.61445229166668,191.0775663125,72.0,95.0
278,191.1062547916667,191.35215604166666,69.0,93.0
279,191.35215604166666,192.59395735416666,71.0,95.0
280,193.5652672916667,193.81731607291667,69.0,83.0
281,193.81116854166666,194.07346320833335,67.0,80.0
282,194.05706979166666,194.29067597916668,65.0,95.0
283,194.30297104166667,194.61444595833333,67.0,87.0
284,194.54887229166667,195.06731409375,69.0,93.0
285,195.04067479166667,195.29682192708333,72.0,93.0
286,195.28657604166668,195.78042771875002,69.0,93.0
287,195.77837854166668,196.352148125,67.0,87.0
288,196.51608229166666,196.67591810416667,72.0,93.0
289,196.76198354166667,196.91977017708334,74.0,93.0
290,197.00788479166667,197.14517965625,76.0,93.0
291,197.25378604166667,197.37878584375,76.0,93.0
292,197.49968729166667,197.65952310416668,76.0,95.0
293,197.74558854166668,198.3316531875,77.0,105.0
294,198.4832922916667,198.89927523958335,74.0,102.0
295,198.97509479166666,199.15952072916667,72.0,87.0
296,199.22099604166667,200.94845232291667,74.0,95.0
297,201.43410729166666,201.64927088541668,76.0,105.0
298,201.68000854166667,201.87672954166666,74.0,87.0
299,201.92590979166667,202.10008984375,72.0,93.0
300,202.17181104166667,202.31730261458335,74.0,93.0
301,202.41771229166667,202.89926890625,76.0,102.0
302,202.90951479166668,203.08574402083335,79.0,93.0
303,203.15541604166668,203.61648088541668,76.0,74.0
304,203.64721854166666,204.51197127083333,74.0,103.0
305,205.36852729166668,205.58983841666668,72.0,93.0
306,205.61442854166668,205.83573966666668,71.0,87.0
307,205.8603297916667,206.05705079166668,69.0,95.0
308,206.10623104166666,206.31934545833334,71.0,95.0
309,206.35213229166666,206.83368890625002,72.0,93.0
310,206.84393479166667,207.07139344791668,69.0,95.0
311,207.08983604166667,207.61852372916667,71.0,102.0
312,207.58163854166668,207.82958896875002,69.0,87.0
313,207.82753979166668,208.95253801041667,67.0,87.0
314,209.05704604166667,209.2722096354167,67.0,102.0
315,209.30294729166667,209.48737322916668,69.0,105.0
316,209.54884854166667,209.77015966666667,67.0,80.0
317,209.79474979166667,210.04065104166668,65.0,72.0
318,210.04065104166668,210.1963885,67.0,80.0
319,210.28655229166668,210.59392885416668,69.0,102.0
320,210.7783547916667,210.98532167708333,69.0,87.0
321,211.02425604166666,211.15540337500002,72.0,90.0
322,211.27015729166666,211.42589475,69.0,87.0
323,211.51605854166667,211.99351680208335,67.0,90.0
324,212.25376229166667,212.39720468750002,72.0,90.0
325,212.49966354166668,212.60622075,74.0,93.0
326,212.74556479166668,213.07753147916668,76.0,102.0
327,213.2373672916667,213.6267109375,76.0,102.0
328,213.72916979166666,214.05908730208333,77.0,105.0
329,214.22097229166667,214.70252890625,74.0,95.0
330,214.71277479166667,214.87670895833335,72.0,87.0
331,214.95867604166668,215.83777301041667,74.0,102.0
332,218.06317932291668,218.84186661458335,72.0,93.0
333,218.82957155208334,219.11440716666667,71.0,74.0
334,219.07752197916668,219.55702941666667,74.0,102.0
335,219.54883270833335,221.089813875,72.0,87.0
