,start,end,pitch,velocity
0,1.2704897916666666,1.6557350833333333,55.0,68.0
1,1.5163910416666668,1.8811445625,60.0,80.0
2,2.0081935416666665,2.2336030208333333,60.0,80.0
3,2.0081935416666665,2.321717635416667,67.0,74.0
4,0.7786872916666667,2.6393400833333334,48.0,83.0
5,1.7622922916666668,2.7131104583333334,55.0,58.0
6,2.499996041666667,3.2069621354166666,64.0,80.0
7,3.237699791666667,3.3688471250000003,60.0,67.0
8,2.991798541666667,3.76843665625,55.0,68.0
9,3.4836010416666667,4.237698208333334,60.0,70.0
10,4.221304791666666,4.4631076875,55.0,47.0
11,2.7458972916666666,4.514337114583333,48.0,71.0
12,3.4836010416666667,4.602451729166667,64.0,83.0
13,4.467206041666667,4.8647463958333335,60.0,70.0
14,5.204909791666667,5.385237375,57.0,69.0
15,5.450811041666667,5.606548500000001,57.0,66.0
16,5.450811041666667,5.7028598229166665,64.0,80.0
17,5.942613541666667,6.016383916666667,57.0,68.0
18,5.942613541666667,6.071711697916667,67.0,93.0
19,4.713107291666667,6.514333947916667,45.0,83.0
20,4.959008541666667,6.514333947916667,52.0,65.0
21,6.434416041666667,6.948759489583334,57.0,80.0
22,6.434416041666667,7.0204806875,64.0,80.0
23,7.172119791666667,7.256136052083334,57.0,66.0
24,6.926218541666667,7.713102541666667,52.0,54.0
25,7.418021041666667,8.15777396875,57.0,83.0
26,7.418021041666667,8.446707937500001,60.0,87.0
27,8.401626041666667,8.532773375,57.0,59.0
28,8.155724791666668,8.547117614583334,52.0,61.0
29,6.680317291666667,8.553265145833334,45.0,80.0
30,8.647527291666666,8.954903854166666,60.0,80.0
31,9.139329791666666,9.270477125000001,60.0,64.0
32,8.893428541666667,9.290968895833334,55.0,68.0
33,9.385231041666668,9.647525708333333,64.0,93.0
34,9.877033541666666,10.137279031250001,60.0,70.0
35,10.122934791666667,10.325803322916666,55.0,52.0
36,10.368836041666667,10.448753947916668,60.0,47.0
37,10.368836041666667,10.942605625,67.0,80.0
38,10.860638541666667,11.20694946875,64.0,74.0
39,11.106539791666668,11.241785479166667,55.0,61.0
40,11.352441041666667,11.678260197916668,55.0,87.0
41,11.352441041666667,11.719243739583334,60.0,93.0
42,12.090144791666667,12.280718260416666,55.0,87.0
43,11.844243541666668,12.333996864583334,64.0,83.0
44,8.647527291666666,12.477439260416666,48.0,74.0
45,12.581947291666667,12.85448784375,57.0,74.0
46,12.581947291666667,13.13727428125,60.0,69.0
47,13.073749791666668,13.139323458333333,57.0,55.0
48,13.319651041666667,13.508175333333334,57.0,83.0
49,13.319651041666667,13.508175333333334,64.0,90.0
50,13.811453541666667,13.946699229166667,60.0,69.0
51,13.811453541666667,13.96104346875,57.0,71.0
52,12.827848541666667,14.39137065625,52.0,61.0
53,12.581947291666667,14.401616541666668,45.0,80.0
54,14.303256041666668,14.79710771875,57.0,72.0
55,14.303256041666668,14.90776328125,64.0,80.0
56,15.040959791666667,15.118828520833334,57.0,58.0
57,14.795058541666668,15.395467427083334,52.0,55.0
58,15.286861041666667,15.567598302083335,64.0,93.0
59,15.286861041666667,15.581942541666667,57.0,90.0
60,15.778663541666667,15.879073218750001,57.0,70.0
61,15.778663541666667,16.083990927083335,60.0,74.0
62,16.024564791666666,16.342187239583335,57.0,70.0
63,15.532762291666668,16.344236416666668,52.0,67.0
64,14.549157291666667,16.37087571875,45.0,69.0
65,16.270466041666666,16.434400208333333,60.0,72.0
66,17.008169791666667,17.254071041666666,62.0,69.0
67,17.254071041666666,17.43849697916667,64.0,80.0
68,17.74587354166667,17.936447010416668,67.0,80.0
69,16.51636729166667,18.348331604166667,48.0,74.0
70,16.762268541666668,18.368823375,55.0,60.0
71,18.97537979166667,19.661854114583335,60.0,68.0
72,19.221281041666668,20.032755166666668,67.0,72.0
73,19.713083541666666,20.1761975625,72.0,70.0
74,18.483577291666666,20.309394072916668,48.0,74.0
75,18.729478541666666,20.31554160416667,55.0,50.0
76,19.958984791666666,20.43234469791667,60.0,72.0
77,20.942589791666666,21.270458125,57.0,69.0
78,21.18849104166667,21.561441270833335,60.0,93.0
79,20.450787291666668,22.24586641666667,45.0,68.0
80,21.926194791666667,23.042996302083335,57.0,63.0
81,21.680293541666668,23.063488072916666,64.0,95.0
82,20.696688541666667,23.239717302083335,52.0,51.0
83,23.401602291666666,23.682339552083334,55.0,68.0
84,23.401602291666666,23.946683395833332,59.0,69.0
85,23.401602291666666,24.2089780625,43.0,80.0
86,23.89340479166667,24.219223947916667,55.0,93.0
87,23.64750354166667,24.270453375000002,50.0,56.0
88,24.139306041666668,24.3319286875,62.0,87.0
89,24.631108541666666,25.004058770833336,57.0,80.0
90,24.87700979166667,25.151599520833333,62.0,68.0
91,25.12291104166667,25.87495903125,65.0,93.0
92,24.385207291666667,26.223319135416666,50.0,56.0
93,26.10651604166667,26.66594138541667,62.0,93.0
94,26.598318541666668,26.866760739583334,57.0,74.0
95,26.844219791666667,26.934383583333336,60.0,68.0
96,27.090121041666666,27.641349677083333,65.0,95.0
97,27.58192354166667,27.838070677083333,62.0,95.0
98,26.35241729166667,27.958972125000003,50.0,71.0
99,27.827824791666668,28.1188079375,57.0,87.0
100,28.073726041666667,28.64134809375,62.0,71.0
101,28.81142979166667,29.129052239583334,55.0,71.0
102,29.057331041666668,29.252002864583336,59.0,74.0
103,29.549133541666667,29.901592,62.0,87.0
104,29.79503479166667,30.149542427083336,55.0,72.0
105,30.286837291666668,30.387246968750002,59.0,71.0
106,30.286837291666668,30.40978791666667,62.0,74.0
107,30.286837291666668,30.43642721875,55.0,69.0
108,28.56552854166667,30.51019759375,50.0,63.0
109,28.319627291666666,30.56962372916667,43.0,80.0
110,31.27044229166667,31.452819052083335,56.0,72.0
111,31.27044229166667,31.458966583333336,53.0,83.0
112,31.27044229166667,31.465114114583333,41.0,83.0
113,31.27044229166667,31.4876550625,60.0,80.0
114,32.745849791666664,32.999947750000004,60.0,80.0
115,32.99175104166667,33.56961897916667,67.0,102.0
116,33.483553541666666,33.7499465625,64.0,102.0
117,32.254047291666666,34.077814895833335,48.0,87.0
118,33.72945479166667,34.15158527083334,60.0,87.0
119,32.49994854166667,34.40363405208333,55.0,47.0
120,34.713059791666666,35.02658388541667,62.0,80.0
121,34.95896104166667,35.51223885416667,67.0,87.0
122,34.46715854166667,35.54707486458334,55.0,69.0
123,34.22125729166667,35.68846808333333,47.0,74.0
124,35.45076354166667,35.729451625,62.0,95.0
125,35.69666479166667,35.860598958333334,59.0,87.0
126,36.18846729166667,36.489696322916664,57.0,68.0
127,36.18846729166667,36.69461403125,60.0,69.0
128,36.68026979166667,36.8483023125,57.0,80.0
129,36.434368541666664,37.358547406250004,52.0,64.0
130,36.18846729166667,37.387235885416665,45.0,80.0
131,36.92617104166667,37.413875187500004,64.0,102.0
132,37.41797354166667,37.67821903125,60.0,95.0
133,37.663874791666665,37.78887459375,57.0,93.0
134,38.15567729166667,38.81346313541667,59.0,74.0
135,38.64747979166667,38.926167875000004,52.0,72.0
136,38.401578541666666,38.98354483333333,47.0,52.0
137,38.893381041666665,39.39952778125,55.0,83.0
138,38.15567729166667,39.54706853125,40.0,72.0
139,39.13928229166667,39.569609479166665,47.0,68.0
140,39.38518354166667,39.663871625,59.0,102.0
141,39.631084791666666,39.9220679375,55.0,93.0
142,39.87698604166667,40.065510333333336,52.0,87.0
143,40.61468979166667,41.37698366666667,62.0,74.0
144,40.860591041666666,41.379032843750004,57.0,80.0
145,41.352393541666665,41.8646878125,65.0,93.0
146,41.59829479166667,41.90567135416667,57.0,80.0
147,40.122887291666665,41.93435983333333,50.0,95.0
148,41.84419604166667,42.366736197916666,62.0,80.0
149,42.090097291666666,42.401572208333334,53.0,69.0
150,42.090097291666666,42.608539093750004,60.0,68.0
151,42.58189979166667,42.79706338541667,53.0,87.0
152,42.82780104166667,43.29706259375,60.0,95.0
153,42.33599854166667,43.57779985416667,48.0,59.0
154,42.090097291666666,43.59214409375,41.0,85.0
155,43.81140604166667,43.928209135416665,53.0,87.0
156,43.56550479166667,43.963045145833334,62.0,93.0
157,44.05730729166667,44.29091347916667,60.0,87.0
158,44.30320854166667,44.61468345833333,55.0,71.0
159,44.549109791666666,44.73353572916667,60.0,66.0
160,44.79501104166667,45.17410880208333,62.0,70.0
161,45.28681354166667,45.592140927083335,60.0,68.0
162,44.05730729166667,45.807304520833334,48.0,71.0
163,45.53271479166667,45.84418970833333,55.0,66.0
164,45.778616041666666,46.499926375,64.0,74.0
165,46.27041854166667,46.5614016875,55.0,61.0
166,46.51631979166667,46.600336052083335,60.0,50.0
167,46.76222104166667,47.809350531250004,55.0,83.0
168,46.76222104166667,47.84213736458334,64.0,87.0
169,46.02451729166667,47.85033407291667,48.0,69.0
170,47.99172729166667,49.13106975,55.0,68.0
171,47.99172729166667,49.27246296875,60.0,65.0
172,47.99172729166667,49.43639713541667,48.0,65.0
173,50.20483854166667,50.581887125,55.0,59.0
174,50.45073979166667,50.7417229375,60.0,80.0
175,50.696641041666666,51.37286947916667,64.0,105.0
176,49.95893729166667,51.4302464375,48.0,93.0
177,51.18844354166667,51.48967257291667,60.0,80.0
178,51.43434479166667,51.56959047916667,55.0,95.0
179,52.17204854166667,52.479425104166666,59.0,85.0
180,52.41794979166667,52.70278540625,62.0,87.0
181,51.926147291666666,53.20688296875,47.0,70.0
182,52.66385104166667,53.22122720833333,67.0,95.0
183,53.155653541666666,53.411800677083335,62.0,102.0
184,53.40155479166667,53.659751104166666,59.0,67.0
185,53.64745604166667,53.70688217708334,60.0,53.0
186,53.89335729166667,54.14540607291667,57.0,69.0
187,53.89335729166667,54.38720896875,60.0,74.0
188,54.385159791666666,54.5040120625,57.0,71.0
189,54.63106104166667,54.799093562500005,57.0,93.0
190,54.63106104166667,54.83597875,64.0,87.0
191,55.12286354166667,55.241715812500004,57.0,90.0
192,54.13925854166667,55.317535364583335,52.0,71.0
193,55.12286354166667,55.35032219791667,60.0,95.0
194,53.89335729166667,55.39540409375,45.0,83.0
195,55.36876479166667,55.544994020833336,57.0,69.0
196,55.614666041666666,55.710977364583336,60.0,66.0
197,55.86056729166667,56.085976770833334,55.0,80.0
198,55.86056729166667,56.299091187500004,59.0,85.0
199,56.35236979166667,56.90769678125,55.0,72.0
200,56.59827104166667,56.9507295,62.0,72.0
201,57.09007354166667,57.36671244791667,59.0,93.0
202,55.86056729166667,57.452777885416666,40.0,80.0
203,56.10646854166667,57.51015484375,47.0,64.0
204,57.33597479166667,57.659744770833335,55.0,80.0
205,57.58187604166667,57.68433489583334,59.0,54.0
206,57.82777729166667,58.401546875,57.0,72.0
207,58.31957979166667,58.67818578125,53.0,71.0
208,58.56548104166667,59.067529427083336,60.0,93.0
209,59.05728354166667,59.29088972916667,57.0,93.0
210,58.073678541666666,59.407692822916665,48.0,66.0
211,57.82777729166667,59.4466271875,41.0,80.0
212,59.303184791666666,59.495807437500005,53.0,87.0
213,59.79498729166667,59.99785582291667,52.0,74.0
214,59.79498729166667,60.32982251041667,55.0,80.0
215,60.28678979166667,60.53474021875,59.0,71.0
216,59.79498729166667,61.04908366666667,40.0,85.0
217,60.04088854166667,61.08801803125,47.0,68.0
218,60.532691041666666,61.13719828125,64.0,103.0
219,61.02449354166667,61.2417063125,59.0,102.0
220,61.27039479166667,61.354411052083336,52.0,105.0
221,61.762197291666666,61.907688864583335,57.0,87.0
222,61.762197291666666,62.03473784375,62.0,72.0
223,62.00809854166667,62.288835802083334,57.0,69.0
224,62.25399979166667,62.36670453125,62.0,72.0
225,62.49990104166667,62.97940847916667,65.0,102.0
226,61.762197291666666,63.020392020833334,50.0,93.0
227,62.991703541666666,63.17612947916667,62.0,95.0
228,63.23760479166667,63.516292875000005,57.0,90.0
229,63.48350604166667,64.17817707291667,62.0,93.0
230,64.22120979166667,64.55522565625,55.0,93.0
231,64.46711104166667,65.05112651041667,62.0,80.0
232,64.95891354166667,65.50604382291667,67.0,95.0
233,65.20481479166666,65.51014217708334,55.0,93.0
234,65.45071604166667,65.5941584375,62.0,83.0
235,63.72940729166667,65.60030596875,43.0,93.0
236,63.97530854166667,65.60235514583333,50.0,68.0
237,65.69661729166667,65.98964961458334,60.0,83.0
238,65.94251854166667,66.270386875,55.0,85.0
239,66.18841979166667,66.31137041666666,60.0,87.0
240,66.43432104166666,66.85030398958334,55.0,93.0
241,66.43432104166666,66.90768094791667,64.0,102.0
242,65.69661729166667,67.13923795833334,48.0,93.0
243,66.92612354166667,67.1802215,60.0,87.0
244,67.17202479166667,67.29702459375,55.0,93.0
245,67.66382729166666,67.9302203125,59.0,72.0
246,67.66382729166666,68.21095757291667,62.0,93.0
247,68.15562979166667,68.38308844791666,59.0,68.0
248,68.40153104166667,68.83185822916667,67.0,102.0
249,67.66382729166666,69.0613660625,47.0,69.0
250,68.89333354166666,69.14128396875,62.0,103.0
251,69.13923479166667,69.42611958333333,59.0,93.0
252,69.38513604166667,69.49784078125,62.0,63.0
253,69.63103729166667,70.11259390625,60.0,83.0
254,70.12283979166666,70.25808547916667,57.0,87.0
255,70.36874104166667,70.71300279166667,57.0,93.0
256,70.36874104166667,70.80316658333334,64.0,102.0
257,70.86054354166667,71.10644479166668,60.0,103.0
258,69.87693854166668,71.16587092708333,52.0,68.0
259,69.63103729166667,71.19865776041667,45.0,80.0
260,71.10644479166668,71.24169047916666,57.0,90.0
261,72.09004979166667,72.43636071875001,55.0,87.0
262,71.84414854166667,72.46914755208334,50.0,51.0
263,72.33595104166668,72.64332760416667,62.0,93.0
264,72.58185229166666,72.89947473958334,50.0,90.0
265,72.82775354166667,72.9957860625,55.0,95.0
266,72.82775354166667,73.13308092708334,59.0,102.0
267,71.59824729166667,73.36668711458334,43.0,87.0
268,73.07365479166667,73.38717888541667,50.0,72.0
269,73.31955604166667,73.44250666666667,55.0,102.0
270,73.56545729166668,74.0654565,60.0,85.0
271,74.05725979166667,74.18021041666667,53.0,72.0
272,73.81135854166666,74.4220133125,48.0,67.0
273,74.30316104166667,74.77037341666667,57.0,103.0
274,73.56545729166668,74.88512733333333,41.0,87.0
275,74.54906229166667,74.94045511458333,48.0,64.0
276,74.79496354166668,74.94045511458333,60.0,105.0
277,75.53266729166667,75.71504405208334,55.0,83.0
278,75.53266729166667,75.860535625,64.0,95.0
279,75.77856854166667,76.05315827083334,55.0,87.0
280,76.02446979166668,76.29701034375,60.0,71.0
281,76.27037104166666,76.745780125,64.0,95.0
282,75.53266729166667,76.82569803125,48.0,85.0
283,76.76217354166667,76.92815688541667,60.0,95.0
284,77.00807479166667,77.114632,55.0,93.0
285,77.49987729166666,77.7662703125,57.0,80.0
286,77.49987729166666,78.05725345833334,62.0,72.0
287,77.99167979166667,78.32979401041666,57.0,87.0
288,78.23758104166667,78.76831790625,65.0,102.0
289,78.72938354166666,78.9957765625,62.0,90.0
290,77.49987729166666,79.18430085416666,38.0,93.0
291,77.74577854166667,79.26831711458334,45.0,66.0
292,78.97528479166667,79.32159571875,57.0,87.0
293,79.22118604166667,80.0531519375,62.0,93.0
294,80.20479104166667,80.53061019791667,56.0,105.0
295,79.95888979166666,80.59618386458334,53.0,87.0
296,79.46708729166667,80.83183922916668,41.0,85.0
297,79.71298854166668,80.85847853125,48.0,63.0
298,80.69659354166667,80.93019972916667,60.0,80.0
299,80.94249479166668,81.04290446875001,53.0,87.0
300,81.92609979166667,82.47732842708334,60.0,80.0
301,82.17200104166668,82.60027905208334,67.0,95.0
302,82.66380354166667,82.95068833333333,64.0,72.0
303,81.43429729166667,83.33388444791667,48.0,80.0
304,81.68019854166667,83.33593362500001,55.0,63.0
305,82.90970479166667,83.35847457291666,60.0,63.0
306,83.40150729166668,84.69043967708333,60.0,68.0
307,83.40150729166668,84.79494770833334,65.0,68.0
308,84.87691479166666,85.5859300625,60.0,74.0
309,85.12281604166667,85.59617594791666,72.0,102.0
310,84.63101354166668,86.29084697916667,48.0,37.0
311,83.40150729166668,86.33183052083334,41.0,69.0
312,87.33592729166666,88.44043373958334,60.0,65.0
313,87.33592729166666,88.47526975000001,65.0,68.0
314,87.33592729166666,89.45272721875,53.0,70.0
315,89.79493979166666,90.10641470833333,60.0,83.0
316,90.04084104166667,90.21502109375,65.0,93.0
317,89.54903854166668,90.77854479166668,53.0,69.0
318,90.53264354166667,90.81338080208333,69.0,87.0
319,90.77854479166668,90.85231516666667,60.0,69.0
320,91.27034729166667,91.82362510416667,64.0,70.0
321,91.27034729166667,92.03059198958334,67.0,71.0
322,91.27034729166667,92.99575439583333,52.0,69.0
323,91.76214979166667,93.04288546875,59.0,63.0
324,92.00805104166668,93.28673754166667,64.0,74.0
325,92.49985354166667,93.31747519791666,67.0,64.0
326,94.46706354166668,94.79083352083333,52.0,36.0
327,93.23755729166668,94.96091521875,71.0,74.0
328,94.71296479166666,95.040833125,59.0,85.0
329,94.95886604166667,95.06952160416667,64.0,95.0
330,95.20476729166667,95.6924714375,62.0,87.0
331,95.20476729166667,95.94656939583334,65.0,85.0
332,95.94247104166666,96.46296202083333,62.0,70.0
333,96.43427354166667,97.18837070833334,65.0,69.0
334,95.69656979166668,97.32361639583334,57.0,56.0
335,97.17197729166666,97.77238617708333,69.0,71.0
336,97.66377979166667,97.96910717708333,62.0,70.0
337,97.41787854166667,98.01828742708334,57.0,68.0
338,97.90968104166667,98.40558189583334,65.0,105.0
339,98.40148354166666,98.95885970833334,69.0,102.0
340,98.64738479166667,98.96705641666667,62.0,69.0
341,98.15558229166668,98.98754818750001,57.0,69.0
342,95.20476729166667,98.99574489583334,50.0,80.0
343,99.63098979166666,99.77648136458333,60.0,87.0
344,99.87689104166667,100.27852975,60.0,85.0
345,99.87689104166667,100.28057892708334,67.0,87.0
346,99.13918729166667,100.99779090625,48.0,80.0
347,99.38508854166668,101.03672527083334,55.0,69.0
348,101.59819979166667,101.68426522916667,60.0,65.0
349,101.84410104166668,101.97319919791667,64.0,87.0
350,101.84410104166668,101.99574014583334,71.0,80.0
351,101.84410104166668,102.00598603125,60.0,83.0
352,102.33590354166667,102.49983770833333,60.0,71.0
353,101.35229854166667,102.65352598958334,55.0,68.0
354,102.33590354166667,102.71909965625001,67.0,71.0
355,101.10639729166667,102.8236076875,48.0,80.0
356,102.58180479166667,102.96500090625,64.0,71.0
357,102.82770604166667,103.09819741666666,60.0,63.0
358,103.56540979166667,103.696557125,53.0,74.0
359,103.81131104166667,104.05721229166667,53.0,102.0
360,103.81131104166667,104.05721229166667,60.0,90.0
361,103.07360729166668,104.84819464583333,41.0,74.0
362,104.79491604166667,104.87893230208334,53.0,55.0
363,103.31950854166666,104.88712901041667,48.0,60.0
364,104.79491604166667,105.5039313125,57.0,80.0
365,104.79491604166667,105.58384921875,60.0,80.0
366,105.53261979166668,105.6514720625,53.0,66.0
367,105.28671854166667,105.96499615625001,48.0,55.0
368,105.77852104166666,105.98138957291667,57.0,93.0
369,105.77852104166666,105.99163545833333,60.0,72.0
370,105.77852104166666,105.99983216666666,65.0,72.0
371,105.77852104166666,106.03671735416667,53.0,93.0
372,106.27032354166667,106.38712663541666,57.0,80.0
373,106.02442229166667,106.45270030208334,48.0,63.0
374,105.04081729166667,106.47933960416667,41.0,83.0
375,106.51622479166667,106.78876534375,53.0,87.0
376,106.27032354166667,106.81130629166667,60.0,74.0
377,106.76212604166668,106.97728963541667,57.0,65.0
378,107.25392854166667,107.58589522916667,57.0,63.0
379,107.49982979166667,107.60433782291668,62.0,69.0
380,107.74573104166667,107.92196027083334,57.0,80.0
381,107.74573104166667,107.97933722916667,65.0,85.0
382,108.23753354166666,108.43835289583333,62.0,74.0
383,107.00802729166666,108.86253255208334,50.0,87.0
384,109.22113854166668,109.34613834375,57.0,68.0
385,109.46703979166666,109.52031839583334,62.0,55.0
386,109.71294104166667,110.05105526041667,62.0,80.0
387,109.71294104166667,110.05310443750001,57.0,74.0
388,109.71294104166667,110.05925196875,65.0,83.0
389,110.20474354166667,110.335890875,57.0,95.0
390,110.20474354166667,110.49777586458333,62.0,102.0
391,110.45064479166668,110.58589047916666,57.0,93.0
392,108.97523729166667,110.60023471875,50.0,70.0
393,110.94244729166667,111.17605347916667,55.0,45.0
394,110.94244729166667,111.29490575,62.0,58.0
395,111.43424979166667,111.5776921875,55.0,74.0
396,111.68015104166668,112.15351094791667,55.0,93.0
397,111.68015104166668,112.17605189583334,62.0,90.0
398,110.94244729166667,112.83588691666667,43.0,83.0
399,111.18834854166667,112.92195235416668,50.0,68.0
400,113.64736104166667,113.71293470833334,59.0,51.0
401,113.64736104166667,113.71908223958334,62.0,60.0
402,113.64736104166667,113.72932812500001,55.0,58.0
403,113.40145979166667,114.00596703125001,50.0,63.0
404,113.89326229166667,114.07563905208333,55.0,93.0
405,113.89326229166667,114.12072094791667,62.0,103.0
406,114.38506479166666,114.52645801041668,55.0,87.0
407,114.38506479166666,114.71703147916666,59.0,93.0
408,114.63096604166667,114.77031008333334,55.0,87.0
409,114.13916354166668,114.811293625,50.0,93.0
410,113.15555854166666,114.81949033333333,43.0,68.0
411,115.36866979166668,115.62276775000001,60.0,80.0
412,115.61457104166666,116.19243897916667,67.0,102.0
413,116.10637354166667,116.3727665625,64.0,102.0
414,114.87686729166667,116.70063489583333,48.0,87.0
415,116.35227479166667,116.77440527083334,60.0,87.0
416,115.12276854166667,117.02645405208334,55.0,47.0
417,117.33587979166667,117.64940388541667,62.0,80.0
418,117.58178104166667,118.13505885416667,67.0,87.0
419,117.08997854166667,118.16989486458334,55.0,69.0
420,116.84407729166666,118.31128808333334,47.0,74.0
421,118.07358354166666,118.352271625,62.0,95.0
422,118.31948479166667,118.48341895833333,59.0,87.0
423,118.81128729166667,119.11251632291668,57.0,68.0
424,118.81128729166667,119.31743403125,60.0,69.0
425,119.30308979166666,119.4711223125,57.0,80.0
426,119.05718854166668,119.98136740625,52.0,64.0
427,118.81128729166667,120.01005588541668,45.0,80.0
428,119.54899104166667,120.0366951875,64.0,102.0
429,120.04079354166667,120.30103903125,60.0,95.0
430,120.28669479166668,120.41169459375,57.0,93.0
431,120.77849729166667,121.43628313541667,59.0,74.0
432,121.27029979166667,121.54898787500001,52.0,72.0
433,121.02439854166667,121.60636483333334,47.0,52.0
434,121.51620104166668,122.02234778125,55.0,83.0
435,120.77849729166667,122.16988853125001,40.0,72.0
436,121.76210229166666,122.19242947916668,47.0,68.0
437,122.00800354166667,122.286691625,59.0,102.0
438,122.25390479166667,122.54488793750001,55.0,93.0
439,122.49980604166667,122.68833033333334,52.0,87.0
440,123.23750979166667,123.99980366666666,62.0,74.0
441,123.48341104166667,124.00185284375,57.0,80.0
442,123.97521354166668,124.4875078125,65.0,93.0
443,124.22111479166666,124.52849135416668,57.0,80.0
444,122.74570729166668,124.55717983333334,50.0,95.0
445,124.46701604166667,124.98955619791667,62.0,80.0
446,124.71291729166667,125.02439220833334,53.0,69.0
447,124.71291729166667,125.23135909375,60.0,68.0
448,125.20471979166668,125.41988338541667,53.0,87.0
449,125.45062104166666,125.91988259375,60.0,95.0
450,124.95881854166667,126.20061985416667,48.0,59.0
451,124.71291729166667,126.21496409375,41.0,85.0
452,126.43422604166668,126.55102913541667,53.0,87.0
453,126.18832479166667,126.58586514583334,62.0,93.0
454,126.68012729166666,126.91373347916667,60.0,87.0
455,126.92602854166667,127.23750345833334,55.0,71.0
456,127.17192979166667,127.35635572916667,60.0,66.0
457,127.41783104166667,127.79692880208334,62.0,70.0
458,127.90963354166666,128.21496092708333,60.0,68.0
459,126.68012729166666,128.43012452083335,48.0,71.0
460,128.15553479166667,128.46700970833334,55.0,66.0
461,128.40143604166667,129.122746375,64.0,74.0
462,128.89323854166668,129.1842216875,55.0,61.0
463,129.13913979166668,129.22315605208334,60.0,50.0
464,129.38504104166668,130.43217053125,55.0,83.0
465,129.38504104166668,130.46495736458334,64.0,87.0
466,128.64733729166667,130.47315407291669,48.0,69.0
467,130.86044854166667,131.237497125,55.0,59.0
468,131.10634979166667,131.3973329375,60.0,80.0
469,131.35225104166668,132.02847947916666,64.0,105.0
470,130.61454729166667,132.0858564375,48.0,93.0
471,131.84405354166668,132.14528257291667,60.0,80.0
472,132.08995479166668,132.22520047916666,55.0,95.0
473,132.82765854166666,133.13503510416666,59.0,85.0
474,133.07355979166667,133.35839540625,62.0,87.0
475,132.58175729166666,133.86249296875002,47.0,70.0
476,133.31946104166667,133.87683720833334,67.0,95.0
477,133.81126354166668,134.06741067708333,62.0,102.0
478,134.05716479166668,134.31536110416667,59.0,67.0
479,134.30306604166668,134.36249217708334,60.0,53.0
480,134.54896729166668,134.80101607291667,57.0,69.0
481,134.54896729166668,135.04281896875,60.0,74.0
482,135.04076979166666,135.1596220625,57.0,71.0
483,135.28667104166666,135.45470356250001,57.0,93.0
484,135.28667104166666,135.49158875,64.0,87.0
485,135.77847354166667,135.89732581250001,57.0,90.0
486,134.79486854166666,135.97314536458333,52.0,71.0
487,135.77847354166667,136.00593219791668,60.0,95.0
488,134.54896729166668,136.05101409375,45.0,83.0
489,136.02437479166667,136.20060402083334,57.0,69.0
490,136.27027604166668,136.36658736458332,60.0,66.0
491,136.51617729166668,136.74158677083335,55.0,80.0
492,136.51617729166668,136.9547011875,59.0,85.0
493,137.00797979166668,137.56330678125,55.0,72.0
494,137.25388104166666,137.60633950000002,62.0,72.0
495,137.74568354166666,138.02232244791668,59.0,93.0
496,136.51617729166668,138.10838788541668,40.0,80.0
497,136.76207854166668,138.16576484375,47.0,64.0
498,137.99158479166667,138.31535477083335,55.0,80.0
499,138.23748604166667,138.33994489583333,59.0,54.0
500,138.48338729166667,139.057156875,57.0,72.0
501,138.97518979166668,139.33379578125002,53.0,71.0
502,139.22109104166668,139.72313942708334,60.0,93.0
503,139.71289354166666,139.94649972916667,57.0,93.0
504,138.72928854166668,140.06330282291668,48.0,66.0
505,138.48338729166667,140.1022371875,41.0,80.0
506,139.95879479166666,140.15141743750002,53.0,87.0
507,140.45059729166667,140.65346582291667,52.0,74.0
508,140.45059729166667,140.98543251041667,55.0,80.0
509,140.94239979166667,141.19035021875,59.0,71.0
510,140.45059729166667,141.70469366666669,40.0,85.0
511,140.69649854166667,141.74362803125,47.0,68.0
512,141.18830104166668,141.79280828125002,64.0,103.0
513,141.68010354166668,141.8973163125,59.0,102.0
514,141.92600479166668,142.01002105208335,52.0,105.0
515,142.41780729166666,142.56329886458334,57.0,87.0
516,142.41780729166666,142.69034784375,62.0,72.0
517,142.66370854166667,142.94444580208335,57.0,69.0
518,142.90960979166667,143.02231453125,62.0,72.0
519,143.15551104166667,143.63501847916666,65.0,102.0
520,142.41780729166666,143.67600202083335,50.0,93.0
521,143.64731354166668,143.83173947916669,62.0,95.0
522,143.89321479166668,144.171902875,57.0,90.0
523,144.13911604166668,144.83378707291666,62.0,93.0
524,144.87681979166666,145.21083565625,55.0,93.0
525,145.12272104166667,145.70673651041668,62.0,80.0
526,145.61452354166667,146.16165382291666,67.0,95.0
527,145.86042479166667,146.16575217708333,55.0,93.0
528,146.10632604166668,146.2497684375,62.0,83.0
529,144.38501729166668,146.25591596875,43.0,93.0
530,144.63091854166666,146.25796514583334,50.0,68.0
531,146.35222729166668,146.64525961458335,60.0,83.0
532,146.59812854166668,146.925996875,55.0,85.0
533,146.84402979166669,146.96698041666667,60.0,87.0
534,147.08993104166666,147.50591398958335,55.0,93.0
535,147.08993104166666,147.56329094791667,64.0,102.0
536,146.35222729166668,147.79484795833335,48.0,93.0
537,147.58173354166667,147.8358315,60.0,87.0
538,147.82763479166667,147.95263459375,55.0,93.0
539,148.31943729166667,148.5858303125,59.0,72.0
540,148.31943729166667,148.86656757291667,62.0,93.0
541,148.81123979166668,149.03869844791666,59.0,68.0
542,149.05714104166668,149.48746822916667,67.0,102.0
543,148.31943729166667,149.7169760625,47.0,69.0
544,149.54894354166666,149.79689396875,62.0,103.0
545,149.79484479166666,150.08172958333333,59.0,93.0
546,150.04074604166667,150.15345078125,62.0,63.0
547,150.28664729166667,150.76820390625,60.0,83.0
548,150.77844979166667,150.91369547916668,57.0,87.0
549,151.02435104166668,151.36861279166666,57.0,93.0
550,151.02435104166668,151.45877658333333,64.0,102.0
551,151.51615354166668,151.76205479166669,60.0,103.0
552,150.53254854166667,151.82148092708334,52.0,68.0
553,150.28664729166667,151.85426776041666,45.0,80.0
554,151.76205479166669,151.89730047916666,57.0,90.0
555,152.74565979166667,153.09197071875002,55.0,87.0
556,152.49975854166667,153.12475755208334,50.0,51.0
557,152.99156104166667,153.29893760416667,62.0,93.0
558,153.23746229166667,153.55508473958335,50.0,90.0
559,153.48336354166668,153.6513960625,55.0,95.0
560,153.48336354166668,153.78869092708334,59.0,102.0
561,152.25385729166666,154.02229711458335,43.0,87.0
562,153.72926479166668,154.04278888541668,50.0,72.0
563,153.97516604166668,154.09811666666667,55.0,102.0
564,154.22106729166669,154.7210665,60.0,85.0
565,154.71286979166666,154.83582041666668,53.0,72.0
566,154.46696854166666,155.0776233125,48.0,67.0
567,154.95877104166667,155.42598341666667,57.0,103.0
568,154.22106729166669,155.54073733333334,41.0,87.0
569,155.20467229166667,155.59606511458333,48.0,64.0
570,155.45057354166667,155.59606511458333,60.0,105.0
571,156.18827729166668,156.37065405208335,55.0,83.0
572,156.18827729166668,156.516145625,64.0,95.0
573,156.43417854166668,156.70876827083333,55.0,87.0
574,156.68007979166669,156.95262034375,60.0,71.0
575,156.92598104166666,157.401390125,64.0,95.0
576,156.18827729166668,157.48130803125,48.0,85.0
577,157.41778354166667,157.58376688541668,60.0,95.0
578,157.66368479166667,157.770242,55.0,93.0
579,158.15548729166667,158.4218803125,57.0,80.0
580,158.15548729166667,158.71286345833335,62.0,72.0
581,158.64728979166668,158.98540401041666,57.0,87.0
582,158.89319104166668,159.42392790625001,65.0,102.0
583,159.38499354166666,159.6513865625,62.0,90.0
584,158.15548729166667,159.83991085416667,38.0,93.0
585,158.40138854166668,159.92392711458334,45.0,66.0
586,159.63089479166666,159.97720571875,57.0,87.0
587,159.87679604166667,160.70876193750001,62.0,93.0
588,160.86040104166668,161.18622019791667,56.0,105.0
589,160.61449979166667,161.25179386458333,53.0,87.0
590,160.12269729166667,161.48744922916669,41.0,85.0
591,160.36859854166667,161.51408853125,48.0,63.0
592,161.35220354166668,161.58580972916667,60.0,80.0
593,161.59810479166669,161.69851446875,53.0,87.0
594,162.08990729166666,162.42392315625,56.0,80.0
595,162.08990729166666,162.61859497916666,63.0,83.0
596,162.58170979166667,163.14113513541668,56.0,90.0
597,162.82761104166667,163.15957772916667,60.0,83.0
598,162.08990729166666,163.32351189583335,44.0,95.0
599,162.33580854166667,163.352200375,51.0,45.0
600,163.31941354166668,163.61244586458335,63.0,105.0
601,163.56531479166668,163.83375698958335,56.0,83.0
602,163.81121604166668,163.92392078125002,63.0,80.0
603,164.05711729166669,164.25998582291666,53.0,83.0
604,164.05711729166669,164.39523151041666,58.0,68.0
605,164.30301854166666,164.6431819375,53.0,80.0
606,164.54891979166666,164.64728029166668,58.0,44.0
607,164.79482104166667,165.122689375,53.0,87.0
608,164.79482104166667,165.1349844375,62.0,95.0
609,165.28662354166667,165.39727910416667,53.0,102.0
610,165.28662354166667,165.57350833333334,58.0,102.0
611,164.05711729166669,165.63703282291667,46.0,72.0
612,165.53252479166667,165.67801636458333,53.0,103.0
613,166.02432729166668,166.28047442708333,53.0,87.0
614,166.02432729166668,166.39522834375,60.0,74.0
615,166.51612979166669,166.63293288541666,53.0,87.0
616,166.27022854166668,166.86448989583334,48.0,61.0
617,166.76203104166666,167.1267845625,53.0,105.0
618,166.76203104166666,167.1513746875,60.0,87.0
619,167.25383354166667,167.29276790625,53.0,68.0
620,167.25383354166667,167.52637409375,60.0,85.0
621,166.02432729166668,167.6185870625,41.0,93.0
622,167.00793229166666,167.66161978125,48.0,66.0
623,167.49973479166667,167.84399654166668,53.0,93.0
624,167.25383354166667,167.925963625,65.0,87.0
625,167.74563604166667,168.24153689583335,60.0,85.0
626,168.23743854166668,168.58170029166666,55.0,83.0
627,168.48333979166668,168.62883136458333,60.0,80.0
628,168.72924104166668,169.07965032291668,55.0,93.0
629,168.72924104166668,169.1185846875,62.0,95.0
630,169.22104354166666,169.53866598958334,60.0,102.0
631,167.99153729166667,169.77227217708335,48.0,93.0
632,169.46694479166666,169.78661641666667,55.0,93.0
633,169.71284604166667,169.92186210416668,64.0,102.0
634,170.45054979166667,170.57350041666666,56.0,71.0
635,170.69645104166668,171.073499625,63.0,90.0
636,170.69645104166668,171.12882740625,56.0,103.0
637,171.18825354166668,171.23948296875,56.0,52.0
638,169.95874729166667,171.27636815625002,44.0,74.0
639,170.20464854166667,171.30915498958333,51.0,53.0
640,171.18825354166668,171.47308915625,60.0,93.0
641,171.18825354166668,171.51407269791667,63.0,87.0
642,171.43415479166669,171.56530212500002,56.0,71.0
643,171.92595729166666,172.06325215625,53.0,87.0
644,171.92595729166666,172.22103879166667,58.0,71.0
645,172.17185854166667,172.499726875,53.0,74.0
646,172.41775979166667,172.51816946875002,58.0,67.0
647,172.66366104166667,173.04890633333335,53.0,102.0
648,172.66366104166667,173.04890633333335,62.0,103.0
649,173.15546354166668,173.42390573958335,58.0,105.0
650,173.40136479166668,173.75997078125002,53.0,102.0
651,171.92595729166666,173.81734773958334,46.0,87.0
652,173.64726604166668,173.82349527083335,58.0,72.0
653,173.89316729166669,174.18619961458333,53.0,87.0
654,173.89316729166669,174.40751073958333,57.0,93.0
655,174.38496979166666,174.70669059375,53.0,105.0
656,173.89316729166669,174.73742825,41.0,83.0
657,174.13906854166666,174.79070685416667,48.0,65.0
658,174.63087104166667,174.80914944791667,57.0,112.0
659,174.87677229166667,175.18824720833334,55.0,93.0
660,174.87677229166667,175.36652561458334,59.0,102.0
661,175.36857479166667,175.66160711458335,55.0,102.0
662,174.87677229166667,175.69439394791667,43.0,90.0
663,175.61447604166668,175.72513160416668,59.0,93.0
664,175.12267354166667,175.75382008333335,50.0,59.0
665,175.86037729166668,176.14111455208334,57.0,87.0
666,175.86037729166668,176.37472073958335,61.0,87.0
667,176.35217979166669,176.80094957291666,57.0,93.0
668,176.59808104166666,176.82144134375,61.0,105.0
669,175.86037729166668,176.88701501041666,45.0,93.0
670,176.10627854166668,176.90545760416668,52.0,66.0
671,176.84398229166666,177.16775227083335,59.0,83.0
672,176.84398229166666,177.31119466666667,63.0,74.0
673,177.33578479166667,177.53865332291667,59.0,103.0
674,177.08988354166667,177.91775108333334,54.0,69.0
675,177.82758729166667,178.21898011458333,51.0,27.0
676,177.58168604166667,178.33168485416667,63.0,105.0
677,178.31938979166668,179.31324067708334,59.0,74.0
678,178.07348854166668,179.65955160416667,54.0,72.0
679,176.84398229166666,179.67799419791666,47.0,93.0
680,178.56529104166668,179.70258432291666,63.0,87.0
681,179.79479729166667,181.59397477083334,63.0,29.0
682,179.30299479166666,181.60422065625,66.0,80.0
683,179.54889604166667,181.60831901041666,59.0,70.0
684,179.79479729166667,181.64725337500002,47.0,71.0
685,181.76200729166666,187.02839239583335,59.0,68.0
686,181.76200729166666,187.04068745833334,63.0,66.0
687,181.76200729166666,187.06732676041668,66.0,54.0
688,181.76200729166666,187.17183479166667,47.0,72.0
689,197.99148979166668,198.31116141666666,62.0,103.0
690,197.49968729166667,198.31730894791667,50.0,95.0
691,197.74558854166668,198.368538375,57.0,66.0
692,198.4832922916667,198.77837379166667,64.0,95.0
693,198.4832922916667,198.9935373854167,67.0,93.0
694,198.97509479166666,199.28042217708335,64.0,105.0
695,198.4832922916667,199.30706147916666,52.0,102.0
696,198.72919354166666,199.35829090625,59.0,68.0
697,199.22099604166667,199.36034008333334,67.0,103.0
698,199.46689729166667,199.73943784375,65.0,87.0
699,199.46689729166667,199.90337201041666,53.0,102.0
700,199.71279854166667,199.94230637500002,60.0,61.0
701,199.46689729166667,199.99353580208333,69.0,90.0
702,199.95869979166667,200.30296154166666,65.0,93.0
703,200.20460104166668,200.50378089583333,69.0,80.0
704,200.45050229166668,201.368533625,43.0,93.0
705,200.69640354166668,201.3808286875,50.0,63.0
706,200.9423047916667,201.38287786458335,55.0,110.0
707,201.18820604166666,201.40951716666666,59.0,103.0
708,201.43410729166666,201.72713961458334,60.0,83.0
709,201.68000854166667,202.007876875,55.0,85.0
710,201.92590979166667,202.04886041666668,60.0,87.0
711,202.17181104166667,202.58779398958333,55.0,93.0
712,202.17181104166667,202.64517094791668,64.0,102.0
713,201.43410729166666,202.87672795833333,48.0,93.0
714,202.66361354166668,202.9177115,60.0,87.0
715,202.90951479166668,203.03451459375,55.0,93.0
716,203.4013172916667,203.66771031250002,59.0,72.0
717,203.4013172916667,203.94844757291668,62.0,93.0
718,203.89311979166666,204.12057844791667,59.0,68.0
719,204.13902104166667,204.56934822916668,67.0,102.0
720,203.4013172916667,204.7988560625,47.0,69.0
721,204.63082354166667,204.87877396875,62.0,103.0
722,204.87672479166667,205.16360958333334,59.0,93.0
723,205.12262604166668,205.23533078125,62.0,63.0
724,205.36852729166668,205.85008390625,60.0,83.0
725,205.8603297916667,205.99557547916666,57.0,87.0
726,206.10623104166666,206.45049279166668,57.0,93.0
727,206.10623104166666,206.54065658333334,64.0,102.0
728,206.59803354166667,206.84393479166667,60.0,103.0
729,205.61442854166668,206.90336092708333,52.0,68.0
730,205.36852729166668,206.93614776041667,45.0,80.0
731,206.84393479166667,206.97918047916667,57.0,90.0
732,207.82753979166668,208.17385071875,55.0,87.0
733,207.58163854166668,208.20663755208335,50.0,51.0
734,208.07344104166668,208.38081760416668,62.0,93.0
735,208.3193422916667,208.63696473958333,50.0,90.0
736,208.56524354166666,208.7332760625,55.0,95.0
737,208.56524354166666,208.87057092708335,59.0,102.0
738,207.33573729166667,209.10417711458334,43.0,87.0
739,208.81114479166666,209.12466888541667,50.0,72.0
740,209.05704604166667,209.17999666666668,55.0,102.0
741,209.30294729166667,209.80294650000002,60.0,85.0
742,209.79474979166667,209.91770041666666,53.0,72.0
743,209.54884854166667,210.15950331250002,48.0,67.0
744,210.04065104166668,210.50786341666668,57.0,103.0
745,209.30294729166667,210.62261733333335,41.0,87.0
746,210.28655229166668,210.67794511458334,48.0,64.0
747,210.53245354166668,210.67794511458334,60.0,105.0
748,211.27015729166666,211.45253405208334,55.0,83.0
749,211.27015729166666,211.59802562500002,64.0,95.0
750,211.51605854166667,211.79064827083334,55.0,87.0
751,211.76195979166667,212.03450034375,60.0,71.0
752,212.00786104166667,212.48327012500002,64.0,95.0
753,211.27015729166666,212.56318803125,48.0,85.0
754,212.49966354166668,212.66564688541666,60.0,95.0
755,212.74556479166668,212.852122,55.0,93.0
756,213.2373672916667,213.50376031250002,57.0,80.0
757,213.2373672916667,213.79474345833333,62.0,72.0
758,213.72916979166666,214.06728401041667,57.0,87.0
759,213.97507104166667,214.50580790625,65.0,102.0
760,214.46687354166667,214.7332665625,62.0,90.0
761,213.2373672916667,214.9217908541667,38.0,93.0
762,213.48326854166666,215.00580711458335,45.0,66.0
763,214.71277479166667,215.05908571875,57.0,87.0
764,214.95867604166668,215.7906419375,62.0,93.0
765,215.94228104166666,216.26810019791668,56.0,105.0
766,215.6963797916667,216.33367386458335,53.0,87.0
767,215.20457729166668,216.56932922916667,41.0,85.0
768,215.45047854166668,216.59596853125,48.0,63.0
769,216.43408354166667,216.66768972916668,60.0,80.0
770,216.67998479166667,216.78039446875002,53.0,87.0
771,217.66358979166668,218.36645753125,53.0,87.0
772,217.90949104166668,218.47711309375,60.0,90.0
773,218.64719479166666,220.19227431250002,53.0,69.0
774,217.41768854166668,220.36850354166668,48.0,58.0
775,217.17178729166667,221.0529286875,41.0,74.0
776,220.86030604166666,221.06112539583333,53.0,51.0
777,220.6144047916667,221.06522375,48.0,56.0
778,220.36850354166668,221.07956798958335,60.0,87.0
779,218.40129354166666,221.09186305208334,65.0,87.0
780,221.51604270833334,222.34595942708333,53.0,72.0
781,221.76604231250002,222.53038536458334,60.0,80.0
782,221.0529286875,222.87464711458335,41.0,83.0
783,221.28038734375002,222.91358147916668,48.0,65.0
784,222.52218865625,223.081614,57.0,67.0
785,222.76194237500002,223.21276133333333,53.0,67.0
786,223.27013829166668,224.13489102083335,48.0,63.0
787,223.00989280208333,224.17997291666669,41.0,69.0
788,223.49554777083335,224.25169411458333,53.0,83.0
789,223.74349819791667,224.38079227083335,65.0,93.0
790,224.237349875,224.58161162500002,60.0,87.0
791,224.483251125,224.59595586458335,53.0,102.0
792,225.52218390625,225.9217734375,55.0,83.0
793,225.80497034375,226.19431398958335,62.0,70.0
794,226.14103538541667,226.27013354166667,64.0,80.0
795,226.4852971354167,226.61439529166668,67.0,83.0
796,226.88078831250002,227.10209943750002,67.0,65.0
797,226.88693584375,227.16562392708335,72.0,61.0
798,227.32136138541668,227.34800068750002,67.0,41.0
799,227.26398442708333,227.41357435416668,74.0,85.0
800,227.61439370833335,227.74554104166668,67.0,61.0
801,227.73734433333334,227.81931141666666,72.0,41.0
802,227.778327875,227.89718014583335,76.0,80.0
803,225.23120076041667,230.31111075,43.0,58.0
804,224.95866020833333,230.3725860625,36.0,83.0
805,228.6512773125,231.03242108333333,84.0,69.0
806,228.49758903125002,231.03447026041667,79.0,72.0
807,228.40742523958335,231.05701120833334,76.0,30.0
