,start,end,pitch,velocity
0,2.40234375,2.7369791666666665,60.0,67.0
1,2.71484375,3.0260416666666665,65.0,65.0
2,3.02734375,3.3385416666666665,65.0,73.0
3,3.33984375,3.65234375,65.0,73.0
4,3.65234375,3.9635416666666665,68.0,71.0
5,3.96484375,4.27734375,68.0,73.0
6,4.27734375,4.588541666666666,65.0,76.0
7,4.58984375,4.90234375,65.0,81.0
8,4.90234375,5.21484375,63.0,77.0
9,5.21484375,5.838541666666666,65.0,81.0
10,5.83984375,7.40234375,65.0,104.0
11,7.40234375,7.71484375,60.0,65.0
12,7.71484375,8.026041666666666,65.0,75.0
13,8.02734375,8.182291666666666,65.0,73.0
14,8.18359375,8.338541666666666,65.0,74.0
15,8.33984375,8.65234375,65.0,77.0
16,8.65234375,8.963541666666666,68.0,81.0
17,8.96484375,9.27734375,68.0,77.0
18,9.27734375,9.588541666666666,65.0,72.0
19,9.58984375,9.90234375,65.0,70.0
20,9.90234375,10.213541666666666,63.0,74.0
21,10.21484375,10.83984375,63.0,81.0
22,10.83984375,12.713541666666666,60.0,77.0
23,12.71484375,13.05078125,60.0,77.0
24,13.02734375,13.338541666666666,63.0,74.0
25,13.33984375,13.65234375,63.0,87.0
26,13.65234375,13.963541666666666,65.0,95.0
27,13.96484375,14.27734375,65.0,104.0
28,14.27734375,14.58984375,63.0,87.0
29,14.58984375,14.951822916666666,60.0,90.0
30,14.951822916666666,15.21484375,56.0,69.0
31,15.21484375,15.83984375,60.0,75.0
32,15.83984375,17.71484375,58.0,100.0
33,17.71484375,18.026041666666664,60.0,70.0
34,18.02734375,18.182291666666664,60.0,74.0
35,18.18359375,18.338541666666664,60.0,54.0
36,18.33984375,18.65234375,60.0,65.0
37,18.65234375,18.96484375,63.0,85.0
38,18.96484375,19.58984375,60.0,79.0
39,19.58984375,19.90234375,58.0,74.0
40,19.90234375,20.21484375,60.0,72.0
41,20.21484375,20.83984375,56.0,74.0
42,20.83984375,22.971354166666664,53.0,70.0
43,25.52734375,25.940104166666664,67.0,66.0
44,25.83984375,26.3125,68.0,69.0
45,26.15234375,26.34375,75.0,58.0
46,26.46484375,27.001302083333332,67.0,70.0
47,26.77734375,27.216145833333332,68.0,49.0
48,27.08984375,27.638020833333332,75.0,79.0
49,40.21484375,40.953125,65.0,67.0
50,40.52734375,41.0703125,67.0,61.0
51,41.15234375,41.373697916666664,75.0,63.0
52,40.83984375,41.494791666666664,68.0,65.0
53,41.15234375,41.861979166666664,65.0,60.0
54,41.46484375,42.080729166666664,67.0,67.0
55,41.77734375,42.1484375,68.0,67.0
56,42.08984375,42.811197916666664,75.0,93.0
57,60.21484375,60.541666666666664,68.0,69.0
58,60.52734375,60.955729166666664,67.0,63.0
59,60.83984375,61.234375,68.0,69.0
60,61.15234375,61.561197916666664,75.0,60.0
61,61.46484375,61.84505208333333,67.0,60.0
62,61.77734375,62.18489583333333,68.0,63.0
63,62.40234375,62.52473958333333,70.0,64.0
64,62.08984375,62.96484375,75.0,86.0
65,62.71484375,64.40755208333333,72.0,85.0
66,105.83984375,105.99479166666666,53.0,60.0
67,105.99609375,106.30859375,53.0,64.0
68,106.30859375,106.48307291666666,55.0,65.0
69,106.46484375,106.77734375,56.0,63.0
70,106.77734375,107.08984375,60.0,76.0
71,107.08984375,107.32942708333333,63.0,64.0
72,107.24609375,107.55859375,61.0,69.0
73,107.71484375,107.88151041666666,56.0,76.0
74,107.55859375,107.94401041666666,60.0,75.0
75,107.87109375,108.02604166666666,55.0,61.0
76,108.49609375,108.65104166666666,51.0,58.0
77,108.65234375,108.96354166666666,51.0,62.0
78,108.02734375,109.32291666666666,55.0,71.0
79,108.96484375,109.34635416666666,51.0,73.0
80,109.27734375,109.4375,53.0,60.0
81,109.43359375,109.4375,53.0,67.0
82,109.74609375,110.83984375,53.0,74.0
83,110.83984375,110.99479166666666,51.0,60.0
84,110.99609375,111.15104166666666,51.0,63.0
85,111.15234375,111.4765625,51.0,65.0
86,111.46484375,111.83072916666666,55.0,60.0
87,111.62109375,111.93359375,58.0,64.0
88,111.93359375,112.24609375,61.0,63.0
89,112.24609375,112.53515625,60.0,71.0
90,112.40234375,112.71484375,58.0,67.0
91,112.71484375,112.97526041666666,56.0,68.0
92,112.87109375,113.04817708333333,58.0,59.0
93,113.02734375,113.33984375,60.0,64.0
94,113.33984375,113.49479166666666,60.0,73.0
95,113.49609375,113.65104166666666,60.0,64.0
96,113.65234375,113.80859375,60.0,73.0
97,113.80859375,114.11979166666666,58.0,62.0
98,114.12109375,114.27604166666666,58.0,64.0
99,114.27734375,114.58984375,58.0,69.0
100,114.58984375,115.52604166666666,60.0,70.0
101,115.52734375,115.68229166666666,60.0,53.0
102,115.68359375,115.83854166666666,60.0,58.0
103,115.83984375,115.99609375,60.0,63.0
104,115.99609375,116.15234375,68.0,72.0
105,116.15234375,116.30859375,67.0,72.0
106,116.30859375,116.46484375,65.0,58.0
107,116.46484375,116.78125,67.0,100.0
108,116.77734375,117.40104166666666,68.0,77.0
109,117.40234375,118.02734375,68.0,83.0
110,118.02734375,118.18229166666666,60.0,62.0
111,118.18359375,118.33854166666666,60.0,67.0
112,118.33984375,118.49609375,60.0,66.0
113,118.49609375,118.65234375,68.0,74.0
114,118.65234375,118.83854166666666,67.0,74.0
115,118.80859375,118.96484375,65.0,59.0
116,118.96484375,119.359375,67.0,69.0
117,119.27734375,119.90234375,68.0,86.0
118,119.90234375,120.52604166666666,72.0,62.0
119,120.52734375,120.68229166666666,72.0,76.0
120,120.68359375,120.83854166666666,72.0,74.0
121,120.83984375,120.99609375,72.0,76.0
122,120.99609375,121.15104166666666,70.0,72.0
123,121.15234375,121.30729166666666,70.0,76.0
124,121.30859375,121.46354166666666,70.0,73.0
125,121.46484375,121.62109375,70.0,87.0
126,121.62109375,121.77604166666666,68.0,65.0
127,121.77734375,121.93229166666666,68.0,68.0
128,121.93359375,122.08854166666666,68.0,63.0
129,122.08984375,122.40234375,68.0,74.0
130,122.40234375,122.71354166666666,67.0,68.0
131,122.71484375,122.91536458333333,67.0,74.0
132,122.87109375,123.02734375,68.0,66.0
133,123.02734375,123.26171875,70.0,85.0
134,123.18359375,123.37239583333333,68.0,57.0
135,123.33984375,123.65234375,67.0,76.0
136,123.65234375,123.96484375,65.0,79.0
137,123.96484375,124.12109375,70.0,90.0
138,124.12109375,124.27734375,67.0,70.0
139,124.27734375,124.453125,68.0,83.0
140,124.43359375,124.6171875,65.0,83.0
141,124.74609375,124.90104166666666,63.0,77.0
142,124.58984375,125.01953125,67.0,83.0
143,124.90234375,125.05859375,63.0,81.0
144,125.05859375,125.21354166666666,60.0,65.0
145,125.21484375,125.60026041666666,60.0,90.0
146,125.52734375,125.7421875,56.0,60.0
147,125.68359375,125.99609375,58.0,65.0
148,125.99609375,126.15234375,61.0,65.0
149,126.15234375,126.3359375,65.0,70.0
150,126.30859375,126.46484375,63.0,70.0
151,126.46484375,126.61979166666666,61.0,85.0
152,126.62109375,126.80859375,61.0,76.0
153,126.77734375,126.96744791666666,60.0,60.0
154,126.93359375,127.08984375,61.0,86.0
155,127.08984375,127.30208333333333,63.0,85.0
156,127.24609375,127.55859375,67.0,74.0
157,127.55859375,127.71354166666666,68.0,74.0
158,127.71484375,127.87109375,68.0,74.0
159,127.87109375,128.03645833333331,67.0,67.0
160,128.02734375,128.203125,63.0,72.0
161,128.18359375,128.65234375,67.0,76.0
162,128.65234375,128.80729166666666,68.0,74.0
163,128.80859375,128.96354166666666,68.0,72.0
164,128.96484375,129.15494791666666,68.0,75.0
165,129.12109375,129.43229166666666,67.0,64.0
166,129.12109375,129.43359375,63.0,74.0
167,129.43359375,130.12109375,67.0,77.0
168,129.90234375,130.52734375,72.0,83.0
169,130.52734375,130.68229166666666,75.0,104.0
170,130.68359375,130.83854166666666,75.0,95.0
171,130.83984375,130.99609375,75.0,93.0
172,130.99609375,131.15104166666666,72.0,75.0
173,131.15234375,131.30729166666666,72.0,81.0
174,131.30859375,131.62109375,72.0,86.0
175,131.62109375,131.77604166666666,68.0,77.0
176,131.77734375,132.24609375,68.0,76.0
177,132.24609375,132.40104166666666,65.0,81.0
178,132.40234375,133.02734375,65.0,76.0
179,133.02734375,133.22265625,72.0,77.0
180,133.18359375,133.33984375,73.0,83.0
181,133.33984375,133.65234375,75.0,112.0
182,133.65234375,133.82161458333331,73.0,76.0
183,133.80859375,134.27734375,72.0,98.0
184,134.27734375,134.484375,70.0,70.0
185,134.43359375,134.58984375,68.0,69.0
186,134.58984375,134.90885416666666,67.0,87.0
187,134.90234375,135.10677083333331,63.0,74.0
188,135.05859375,135.21484375,68.0,63.0
189,135.21484375,137.5,75.0,104.0
190,257.40234375,257.73697916666663,60.0,67.0
191,257.71484375,257.84244791666663,65.0,65.0
192,258.02734375,258.1380208333333,65.0,73.0
193,258.33984375,258.4622395833333,65.0,73.0
194,258.65234375,258.78125,68.0,71.0
195,258.96484375,259.10546875,68.0,73.0
196,259.27734375,259.40885416666663,65.0,76.0
197,259.58984375,259.7630208333333,65.0,81.0
198,259.90234375,260.04296875,63.0,77.0
199,260.21484375,260.6028645833333,65.0,81.0
200,260.83984375,261.89713541666663,65.0,104.0
201,262.40234375,262.7044270833333,60.0,65.0
202,262.71484375,262.8958333333333,65.0,75.0
203,263.02734375,263.10026041666663,65.0,73.0
204,263.18359375,263.25,65.0,74.0
205,263.33984375,263.4466145833333,65.0,77.0
206,263.65234375,263.765625,68.0,81.0
207,263.96484375,264.1380208333333,68.0,77.0
208,264.27734375,264.40625,65.0,72.0
209,264.58984375,264.8372395833333,65.0,70.0
210,264.90234375,265.08203125,63.0,74.0
211,265.21484375,265.60807291666663,63.0,81.0
212,265.83984375,266.32421875,60.0,77.0
213,267.71484375,268.05078125,60.0,77.0
214,268.02734375,268.17838541666663,63.0,74.0
215,268.33984375,268.515625,63.0,87.0
216,268.65234375,268.77213541666663,65.0,95.0
217,268.96484375,269.12109375,65.0,104.0
218,269.27734375,269.39322916666663,63.0,87.0
219,269.58984375,269.77213541666663,60.0,90.0
220,269.95182291666663,270.16666666666663,56.0,69.0
221,270.21484375,270.6848958333333,60.0,75.0
222,270.83984375,271.484375,58.0,100.0
223,272.71484375,272.87760416666663,60.0,70.0
224,273.02734375,273.11328125,60.0,74.0
225,273.18359375,273.22265625,60.0,54.0
226,273.33984375,273.4466145833333,60.0,65.0
227,273.65234375,273.9466145833333,63.0,85.0
228,273.96484375,274.1888020833333,60.0,79.0
229,274.58984375,274.89453125,58.0,74.0
230,274.90234375,275.16796875,60.0,72.0
231,275.21484375,275.7786458333333,56.0,74.0
232,275.83984375,277.8333333333333,53.0,70.0
