,start,end,pitch,velocity
0,22.40234375,22.756510416666664,60.0,61.0
1,22.71484375,23.026041666666664,65.0,68.0
2,23.02734375,23.338541666666664,65.0,74.0
3,23.33984375,23.65234375,65.0,65.0
4,23.65234375,23.96484375,68.0,73.0
5,23.96484375,24.588541666666664,65.0,85.0
6,24.58984375,24.90234375,65.0,79.0
7,24.90234375,25.21484375,63.0,72.0
8,25.21484375,25.838541666666664,65.0,77.0
9,25.83984375,27.401041666666664,65.0,93.0
10,27.40234375,27.74609375,65.0,64.0
11,27.71484375,28.026041666666664,70.0,81.0
12,28.02734375,28.338541666666664,70.0,76.0
13,28.33984375,28.65234375,70.0,76.0
14,28.65234375,28.96484375,72.0,87.0
15,28.96484375,29.58984375,70.0,98.0
16,29.58984375,29.90234375,68.0,74.0
17,29.90234375,30.21484375,70.0,76.0
18,30.21484375,30.838541666666664,72.0,77.0
19,30.83984375,32.401041666666664,72.0,90.0
20,32.40234375,32.71484375,72.0,71.0
21,32.71484375,33.026041666666664,77.0,76.0
22,33.02734375,33.338541666666664,77.0,76.0
23,33.33984375,33.65234375,77.0,85.0
24,33.65234375,33.96484375,80.0,75.0
25,33.96484375,34.58984375,77.0,104.0
26,34.58984375,34.93880208333333,75.0,63.0
27,34.90234375,35.21484375,72.0,67.0
28,35.21484375,35.83984375,75.0,98.0
29,35.83984375,37.401041666666664,70.0,79.0
30,37.40234375,37.71484375,70.0,72.0
31,37.71484375,38.338541666666664,72.0,90.0
32,38.33984375,38.65234375,72.0,77.0
33,38.65234375,38.96484375,75.0,86.0
34,38.96484375,39.276041666666664,70.0,72.0
35,39.27734375,39.90234375,70.0,75.0
36,39.90234375,40.21484375,72.0,67.0
37,40.21484375,40.83984375,68.0,61.0
38,40.83984375,42.40234375,65.0,76.0
39,40.83984375,42.40234375,65.0,83.0
40,42.40234375,42.756510416666664,60.0,61.0
41,42.71484375,43.026041666666664,65.0,68.0
42,43.02734375,43.338541666666664,65.0,74.0
43,43.33984375,43.65234375,65.0,65.0
44,43.65234375,43.96484375,68.0,73.0
45,43.96484375,44.588541666666664,65.0,85.0
46,44.58984375,44.90234375,65.0,79.0
47,44.90234375,45.21484375,63.0,72.0
48,45.21484375,45.838541666666664,65.0,77.0
49,45.83984375,47.401041666666664,65.0,93.0
50,47.40234375,47.74609375,65.0,64.0
51,47.71484375,48.026041666666664,70.0,81.0
52,48.02734375,48.338541666666664,70.0,76.0
53,48.33984375,48.65234375,70.0,76.0
54,48.65234375,48.96484375,72.0,87.0
55,48.96484375,49.58984375,70.0,98.0
56,49.58984375,49.90234375,68.0,74.0
57,49.90234375,50.21484375,70.0,76.0
58,50.21484375,50.838541666666664,72.0,77.0
59,50.83984375,52.401041666666664,72.0,90.0
60,52.40234375,52.71484375,72.0,71.0
61,52.71484375,53.026041666666664,77.0,76.0
62,53.02734375,53.338541666666664,77.0,76.0
63,53.33984375,53.651041666666664,77.0,85.0
64,53.65234375,53.963541666666664,77.0,75.0
65,53.96484375,54.58984375,77.0,104.0
66,54.58984375,54.93880208333333,75.0,63.0
67,54.90234375,55.21484375,72.0,67.0
68,55.21484375,55.83984375,75.0,98.0
69,55.83984375,57.401041666666664,70.0,79.0
70,57.40234375,57.71484375,70.0,72.0
71,57.71484375,58.338541666666664,72.0,90.0
72,58.33984375,58.65234375,72.0,77.0
73,58.65234375,58.96484375,75.0,86.0
74,58.96484375,59.276041666666664,70.0,72.0
75,59.27734375,59.588541666666664,70.0,75.0
76,59.58984375,59.90234375,70.0,98.0
77,59.90234375,60.21484375,72.0,67.0
78,60.21484375,60.83984375,68.0,61.0
79,60.83984375,64.90234375,65.0,76.0
80,60.83984375,64.90234375,65.0,83.0
81,64.90234375,65.21484375,72.0,72.0
82,65.21484375,65.52604166666666,77.0,85.0
83,65.52734375,65.83854166666666,77.0,98.0
84,65.83984375,66.15234375,77.0,93.0
85,66.15234375,66.46354166666666,80.0,100.0
86,66.46484375,67.08984375,80.0,120.0
87,67.08984375,67.40234375,75.0,95.0
88,67.40234375,68.02604166666666,77.0,104.0
89,68.02734375,69.90234375,77.0,93.0
90,69.90234375,70.21484375,72.0,86.0
91,70.21484375,70.52604166666666,77.0,104.0
92,70.52734375,70.83854166666666,77.0,98.0
93,70.83984375,71.15234375,77.0,90.0
94,71.15234375,71.46484375,80.0,111.0
95,71.46484375,71.77734375,77.0,104.0
96,71.77734375,72.08854166666666,75.0,104.0
97,72.08984375,72.40234375,75.0,104.0
98,72.40234375,72.71354166666666,72.0,85.0
99,72.71484375,73.33984375,72.0,111.0
100,73.33984375,75.21484375,70.0,75.0
101,75.21484375,75.52734375,72.0,108.0
102,75.52734375,75.83854166666666,75.0,104.0
103,75.83984375,76.15234375,75.0,108.0
104,76.15234375,76.46484375,77.0,100.0
105,76.46484375,77.08984375,72.0,100.0
106,77.08984375,77.40234375,70.0,104.0
107,77.40234375,77.71484375,72.0,98.0
108,77.71484375,78.33984375,68.0,85.0
109,78.33984375,80.21354166666666,72.0,111.0
110,80.21484375,80.52604166666666,72.0,90.0
111,80.52734375,80.83854166666666,72.0,77.0
112,80.83984375,81.15234375,72.0,79.0
113,81.15234375,81.46484375,75.0,112.0
114,81.46484375,81.77604166666666,70.0,93.0
115,81.77734375,82.40234375,70.0,79.0
116,82.40234375,82.71484375,72.0,79.0
117,82.71484375,83.33984375,68.0,85.0
118,83.33984375,84.90234375,65.0,90.0
119,84.90234375,85.21484375,72.0,72.0
120,85.21484375,85.52604166666666,77.0,85.0
121,85.52734375,85.83854166666666,77.0,98.0
122,85.83984375,86.15234375,77.0,93.0
123,86.15234375,86.46354166666666,80.0,100.0
124,86.46484375,87.08984375,80.0,120.0
125,87.08984375,87.40234375,75.0,95.0
126,87.40234375,88.02604166666666,77.0,104.0
127,88.02734375,89.90234375,77.0,93.0
128,89.90234375,90.21484375,72.0,86.0
129,90.21484375,90.52604166666666,77.0,104.0
130,90.52734375,90.83854166666666,77.0,98.0
131,90.83984375,91.15234375,77.0,90.0
132,91.15234375,91.46354166666666,80.0,111.0
133,91.46484375,91.77734375,80.0,104.0
134,91.77734375,92.08854166666666,77.0,104.0
135,92.08984375,92.40234375,77.0,104.0
136,92.40234375,92.71354166666666,75.0,77.0
137,92.71484375,93.33984375,75.0,108.0
138,93.33984375,95.21354166666666,72.0,98.0
139,95.21484375,95.52734375,72.0,108.0
140,95.52734375,95.83854166666666,75.0,104.0
141,95.83984375,96.15234375,75.0,108.0
142,96.15234375,96.61328125,77.0,100.0
143,96.61328125,97.08984375,75.0,100.0
144,97.08984375,97.4140625,72.0,93.0
145,97.40234375,97.71484375,68.0,71.0
146,97.71484375,98.33854166666666,70.0,104.0
147,98.33984375,100.21484375,70.0,112.0
148,100.21484375,100.52604166666666,72.0,112.0
149,100.52734375,101.15234375,72.0,112.0
150,101.15234375,101.46484375,75.0,112.0
151,101.46484375,101.77604166666666,70.0,93.0
152,101.77734375,102.40234375,70.0,79.0
153,102.40234375,102.71484375,72.0,79.0
154,102.71484375,103.33984375,68.0,85.0
155,103.33984375,105.0,65.0,90.0
156,137.40234375,137.75651041666666,60.0,61.0
157,137.71484375,138.02604166666666,65.0,68.0
158,138.02734375,138.33854166666666,65.0,74.0
159,138.33984375,138.65234375,65.0,65.0
160,138.65234375,138.96484375,68.0,73.0
161,138.96484375,139.58854166666666,65.0,85.0
162,139.58984375,139.90234375,65.0,79.0
163,139.90234375,140.21484375,63.0,72.0
164,140.21484375,140.83854166666666,65.0,77.0
165,140.83984375,142.40104166666666,65.0,93.0
166,142.40234375,142.74609375,65.0,64.0
167,142.71484375,143.02604166666666,70.0,81.0
168,143.02734375,143.33854166666666,70.0,76.0
169,143.33984375,143.65234375,70.0,76.0
170,143.65234375,143.96484375,72.0,87.0
171,143.96484375,144.58984375,70.0,98.0
172,144.58984375,144.90234375,68.0,74.0
173,144.90234375,145.21484375,70.0,76.0
174,145.21484375,145.83854166666666,72.0,77.0
175,145.83984375,147.40104166666666,72.0,90.0
176,147.40234375,147.71484375,72.0,71.0
177,147.71484375,148.02604166666666,77.0,76.0
178,148.02734375,148.33854166666666,77.0,76.0
179,148.33984375,148.65234375,77.0,85.0
180,148.65234375,148.96484375,80.0,75.0
181,148.96484375,149.58984375,77.0,104.0
182,149.58984375,149.93880208333331,75.0,63.0
183,149.90234375,150.21484375,72.0,67.0
184,150.21484375,150.83984375,75.0,98.0
185,150.83984375,152.40104166666666,70.0,79.0
186,152.40234375,152.71484375,70.0,72.0
187,152.71484375,153.33854166666666,72.0,90.0
188,153.33984375,153.65234375,72.0,77.0
189,153.65234375,153.96484375,75.0,86.0
190,153.96484375,154.27604166666666,70.0,72.0
191,154.27734375,154.90234375,70.0,75.0
192,154.90234375,155.21484375,72.0,67.0
193,155.21484375,155.83984375,68.0,61.0
194,155.83984375,157.40234375,65.0,76.0
195,155.83984375,157.40234375,65.0,83.0
196,157.40234375,157.75651041666666,60.0,61.0
197,157.71484375,158.02604166666666,65.0,68.0
198,158.02734375,158.33854166666666,65.0,74.0
199,158.33984375,158.65234375,65.0,65.0
200,158.65234375,158.96484375,68.0,73.0
201,158.96484375,159.58854166666666,65.0,85.0
202,159.58984375,159.90234375,65.0,79.0
203,159.90234375,160.21484375,63.0,72.0
204,160.21484375,160.83854166666666,65.0,77.0
205,160.83984375,162.40104166666666,65.0,93.0
206,162.40234375,162.74609375,65.0,64.0
207,162.71484375,163.02604166666666,70.0,81.0
208,163.02734375,163.33854166666666,70.0,76.0
209,163.33984375,163.65234375,70.0,76.0
210,163.65234375,163.96484375,72.0,87.0
211,163.96484375,164.58984375,70.0,98.0
212,164.58984375,164.90234375,68.0,74.0
213,164.90234375,165.21484375,70.0,76.0
214,165.21484375,165.83854166666666,72.0,77.0
215,165.83984375,167.40104166666666,72.0,90.0
216,167.40234375,167.71484375,72.0,71.0
217,167.71484375,168.02604166666666,77.0,76.0
218,168.02734375,168.33854166666666,77.0,76.0
219,168.33984375,168.65104166666666,77.0,85.0
220,168.65234375,168.96354166666666,77.0,75.0
221,168.96484375,169.58984375,77.0,104.0
222,169.58984375,169.93880208333331,75.0,63.0
223,169.90234375,170.21484375,72.0,67.0
224,170.21484375,170.83984375,75.0,98.0
225,170.83984375,172.40104166666666,70.0,79.0
226,172.40234375,172.71484375,70.0,72.0
227,172.71484375,173.33854166666666,72.0,90.0
228,173.33984375,173.65234375,72.0,77.0
229,173.65234375,173.96484375,75.0,86.0
230,173.96484375,174.27604166666666,70.0,72.0
231,174.27734375,174.58854166666666,70.0,75.0
232,174.58984375,174.90234375,70.0,98.0
233,174.90234375,175.21484375,72.0,67.0
234,175.21484375,175.83984375,68.0,61.0
235,175.83984375,179.90234375,65.0,76.0
236,175.83984375,179.90234375,65.0,83.0
237,179.90234375,180.21484375,72.0,72.0
238,180.21484375,180.52604166666666,77.0,85.0
239,180.52734375,180.83854166666666,77.0,98.0
240,180.83984375,181.15234375,77.0,93.0
241,181.15234375,181.46354166666666,80.0,100.0
242,181.46484375,182.08984375,80.0,120.0
243,182.08984375,182.40234375,75.0,95.0
244,182.40234375,183.02604166666666,77.0,104.0
245,183.02734375,184.90234375,77.0,93.0
246,184.90234375,185.21484375,72.0,86.0
247,185.21484375,185.52604166666666,77.0,104.0
248,185.52734375,185.83854166666666,77.0,98.0
249,185.83984375,186.15234375,77.0,90.0
250,186.15234375,186.46484375,80.0,111.0
251,186.46484375,186.77734375,77.0,104.0
252,186.77734375,187.08854166666666,75.0,104.0
253,187.08984375,187.40234375,75.0,104.0
254,187.40234375,187.71354166666666,72.0,85.0
255,187.71484375,188.33984375,72.0,111.0
256,188.33984375,190.21484375,70.0,75.0
257,190.21484375,190.52734375,72.0,108.0
258,190.52734375,190.83854166666666,75.0,104.0
259,190.83984375,191.15234375,75.0,108.0
260,191.15234375,191.46484375,77.0,100.0
261,191.46484375,192.08984375,72.0,100.0
262,192.08984375,192.40234375,70.0,104.0
263,192.40234375,192.71484375,72.0,98.0
264,192.71484375,193.33984375,68.0,85.0
265,193.33984375,195.21354166666666,72.0,111.0
266,195.21484375,195.52604166666666,72.0,90.0
267,195.52734375,195.83854166666666,72.0,77.0
268,195.83984375,196.15234375,72.0,79.0
269,196.15234375,196.46484375,75.0,112.0
270,196.46484375,196.77604166666666,70.0,93.0
271,196.77734375,197.40234375,70.0,79.0
272,197.40234375,197.71484375,72.0,79.0
273,197.71484375,198.33984375,68.0,85.0
274,198.33984375,199.90234375,65.0,90.0
275,199.90234375,200.21484375,72.0,72.0
276,200.21484375,200.52604166666666,77.0,85.0
277,200.52734375,200.83854166666666,77.0,98.0
278,200.83984375,201.15234375,77.0,93.0
279,201.15234375,201.46354166666666,80.0,100.0
280,201.46484375,202.08984375,80.0,120.0
281,202.08984375,202.40234375,75.0,95.0
282,202.40234375,203.02604166666666,77.0,104.0
283,203.02734375,204.90234375,77.0,93.0
284,204.90234375,205.21484375,72.0,86.0
285,205.21484375,205.52604166666666,77.0,104.0
286,205.52734375,205.83854166666666,77.0,98.0
287,205.83984375,206.15234375,77.0,90.0
288,206.15234375,206.46354166666666,80.0,111.0
289,206.46484375,206.77734375,80.0,104.0
290,206.77734375,207.08854166666666,77.0,104.0
291,207.08984375,207.40234375,77.0,104.0
292,207.40234375,207.71354166666666,75.0,77.0
293,207.71484375,208.33984375,75.0,108.0
294,208.33984375,210.21354166666666,72.0,98.0
295,210.21484375,210.52734375,72.0,108.0
296,210.52734375,210.83854166666666,75.0,104.0
297,210.83984375,211.15234375,75.0,108.0
298,211.15234375,211.61328125,77.0,100.0
299,211.61328125,212.08984375,75.0,100.0
300,212.08984375,212.4140625,72.0,93.0
301,212.40234375,212.71484375,68.0,71.0
302,212.71484375,213.33854166666666,70.0,104.0
303,213.33984375,215.21484375,70.0,112.0
304,215.21484375,215.52604166666666,72.0,112.0
305,215.52734375,216.15234375,72.0,112.0
306,216.15234375,216.46484375,75.0,112.0
307,216.46484375,216.77604166666666,70.0,93.0
308,216.77734375,217.40234375,70.0,79.0
309,217.40234375,217.71484375,72.0,79.0
310,217.71484375,218.33984375,68.0,85.0
311,218.33984375,219.90234375,65.0,90.0
312,219.90234375,220.21484375,72.0,72.0
313,220.21484375,220.52604166666666,77.0,85.0
314,220.52734375,220.83854166666666,77.0,98.0
315,220.83984375,221.15234375,77.0,93.0
316,221.15234375,221.46354166666666,80.0,100.0
317,221.46484375,222.08984375,80.0,120.0
318,222.08984375,222.40234375,75.0,95.0
319,222.40234375,223.02604166666666,77.0,104.0
320,223.02734375,224.90234375,77.0,93.0
321,224.90234375,225.21484375,72.0,86.0
322,225.21484375,225.52604166666666,77.0,104.0
323,225.52734375,225.83854166666666,77.0,98.0
324,225.83984375,226.15234375,77.0,90.0
325,226.15234375,226.46484375,80.0,111.0
326,226.46484375,226.77734375,77.0,104.0
327,226.77734375,227.08854166666666,75.0,104.0
328,227.08984375,227.40234375,75.0,104.0
329,227.40234375,227.71354166666666,72.0,85.0
330,227.71484375,228.33984375,72.0,111.0
331,228.33984375,230.21484375,70.0,75.0
332,230.21484375,230.52734375,72.0,108.0
333,230.52734375,230.83854166666666,75.0,104.0
334,230.83984375,231.15234375,75.0,108.0
335,231.15234375,231.46484375,77.0,100.0
336,231.46484375,232.08984375,72.0,100.0
337,232.08984375,232.40234375,70.0,104.0
338,232.40234375,232.71484375,72.0,98.0
339,232.71484375,233.33984375,68.0,85.0
340,233.33984375,235.21354166666666,72.0,111.0
341,235.21484375,235.52604166666666,72.0,90.0
342,235.52734375,235.83854166666666,72.0,77.0
343,235.83984375,236.15234375,72.0,79.0
344,236.15234375,236.46484375,75.0,112.0
345,236.46484375,236.77604166666666,70.0,93.0
346,236.77734375,237.40234375,70.0,79.0
347,237.40234375,237.71484375,72.0,79.0
348,237.71484375,238.33984375,68.0,85.0
349,238.33984375,239.90234375,65.0,90.0
350,239.90234375,240.21484375,72.0,72.0
351,240.21484375,240.52604166666666,77.0,85.0
352,240.52734375,240.83854166666666,77.0,98.0
353,240.83984375,241.15234375,77.0,93.0
354,241.15234375,241.46354166666666,80.0,100.0
355,241.46484375,242.08984375,80.0,120.0
356,242.08984375,242.40234375,75.0,95.0
357,242.40234375,243.02604166666666,77.0,104.0
358,243.02734375,244.90234375,77.0,93.0
359,244.90234375,245.21484375,72.0,86.0
360,245.21484375,245.52604166666666,77.0,104.0
361,245.52734375,245.83854166666666,77.0,98.0
362,245.83984375,246.15234375,77.0,90.0
363,246.15234375,246.46354166666666,80.0,111.0
364,246.46484375,246.77734375,80.0,104.0
365,246.77734375,247.08854166666666,77.0,104.0
366,247.08984375,247.40234375,77.0,104.0
367,247.40234375,247.71354166666666,75.0,77.0
368,247.71484375,248.33984375,75.0,108.0
369,248.33984375,250.21354166666666,72.0,98.0
370,250.21484375,250.52734375,72.0,108.0
371,250.52734375,250.83854166666666,75.0,104.0
372,250.83984375,251.15234375,75.0,108.0
373,251.15234375,251.61328125,77.0,100.0
374,251.61328125,252.08984375,75.0,100.0
375,252.08984375,252.4140625,72.0,93.0
376,252.40234375,252.71484375,68.0,71.0
377,252.71484375,253.33854166666666,70.0,104.0
378,253.33984375,255.21484375,70.0,112.0
379,255.21484375,255.52604166666666,72.0,112.0
380,255.52734375,256.15234375,72.0,112.0
381,256.15234375,256.46484375,75.0,112.0
382,256.46484375,256.77604166666663,70.0,93.0
383,256.77734375,257.40234375,70.0,79.0
384,257.40234375,257.71484375,72.0,79.0
385,257.71484375,258.33984375,68.0,85.0
386,258.33984375,260.0,65.0,90.0
