,start,end,pitch,velocity
0,0.21484375,2.5234375,41.0,67.0
1,0.21484375,2.575520833333333,60.0,73.0
2,0.21484375,2.6158854166666665,56.0,74.0
3,0.21484375,2.63671875,53.0,64.0
4,2.71484375,3.5078125,56.0,67.0
5,2.71484375,3.5221354166666665,60.0,66.0
6,2.71484375,3.528645833333333,65.0,76.0
7,3.33984375,3.7643229166666665,53.0,58.0
8,4.27734375,4.678385416666666,53.0,57.0
9,3.02734375,4.723958333333333,48.0,70.0
10,3.65234375,5.10546875,65.0,81.0
11,3.65234375,5.114583333333333,56.0,79.0
12,3.65234375,5.118489583333333,60.0,90.0
13,4.90234375,5.342447916666666,48.0,87.0
14,5.21484375,5.9609375,60.0,93.0
15,5.21484375,5.96875,56.0,79.0
16,5.21484375,5.971354166666666,65.0,95.0
17,5.83984375,6.41015625,53.0,62.0
18,6.15234375,6.930989583333333,60.0,85.0
19,6.15234375,6.93359375,65.0,79.0
20,6.15234375,6.951822916666666,56.0,75.0
21,6.77734375,7.153645833333333,53.0,60.0
22,5.52734375,7.252604166666666,48.0,73.0
23,2.71484375,7.27734375,41.0,75.0
24,7.08984375,7.326822916666666,65.0,60.0
25,7.08984375,7.33203125,60.0,72.0
26,7.08984375,7.359375,56.0,63.0
27,7.71484375,8.475260416666666,53.0,65.0
28,7.71484375,8.477864583333332,56.0,72.0
29,7.71484375,8.481770833333332,61.0,83.0
30,8.33984375,9.05078125,49.0,59.0
31,8.65234375,9.458333333333332,61.0,95.0
32,8.65234375,9.459635416666666,53.0,76.0
33,8.65234375,9.459635416666666,56.0,90.0
34,7.71484375,9.618489583333332,37.0,76.0
35,8.02734375,9.677083333333332,44.0,73.0
36,9.58984375,9.828125,61.0,90.0
37,9.58984375,9.83203125,56.0,85.0
38,9.58984375,9.8359375,53.0,79.0
39,9.27734375,10.188802083333332,49.0,63.0
40,10.21484375,10.944010416666666,60.0,72.0
41,10.21484375,10.947916666666666,63.0,75.0
42,10.21484375,10.950520833333332,68.0,74.0
43,10.68359375,11.462239583333332,56.0,59.0
44,11.15234375,12.0078125,63.0,86.0
45,11.15234375,12.0078125,68.0,83.0
46,11.15234375,12.02734375,60.0,83.0
47,11.77734375,12.598958333333332,56.0,58.0
48,12.08984375,12.604166666666666,68.0,77.0
49,12.08984375,12.608072916666666,63.0,81.0
50,12.08984375,12.615885416666666,60.0,73.0
51,10.21484375,12.665364583333332,44.0,90.0
52,10.52734375,12.688802083333332,51.0,63.0
53,12.71484375,13.470052083333332,51.0,60.0
54,12.71484375,13.477864583333332,60.0,77.0
55,12.71484375,13.479166666666666,55.0,69.0
56,13.33984375,14.014322916666666,48.0,59.0
57,13.65234375,14.46484375,51.0,67.0
58,13.65234375,14.47265625,60.0,74.0
59,13.65234375,14.479166666666666,55.0,75.0
60,14.27734375,14.875,48.0,57.0
61,13.02734375,14.916666666666666,43.0,58.0
62,12.71484375,14.96875,36.0,70.0
63,14.58984375,14.970052083333332,60.0,79.0
64,14.58984375,14.998697916666666,55.0,75.0
65,14.58984375,15.016927083333332,51.0,76.0
66,15.21484375,15.916666666666666,61.0,67.0
67,15.21484375,15.928385416666666,65.0,74.0
68,15.83984375,16.311197916666664,58.0,50.0
69,16.15234375,16.955729166666664,61.0,86.0
70,16.15234375,16.970052083333332,65.0,76.0
71,16.77734375,17.084635416666664,58.0,64.0
72,15.52734375,17.162760416666664,53.0,58.0
73,15.21484375,17.188802083333332,46.0,74.0
74,17.08984375,17.635416666666664,65.0,81.0
75,17.08984375,17.649739583333332,61.0,86.0
76,17.71484375,18.424479166666664,60.0,85.0
77,17.71484375,18.43359375,51.0,70.0
78,17.71484375,18.434895833333332,55.0,79.0
79,18.33984375,18.899739583333332,48.0,63.0
80,18.65234375,19.432291666666664,60.0,85.0
81,18.65234375,19.4375,55.0,81.0
82,18.65234375,19.442708333333332,51.0,74.0
83,17.71484375,19.591145833333332,36.0,63.0
84,18.02734375,19.595052083333332,43.0,14.0
85,19.58984375,19.8359375,55.0,77.0
86,19.58984375,19.837239583333332,51.0,74.0
87,19.58984375,19.838541666666664,60.0,85.0
88,19.27734375,19.845052083333332,48.0,58.0
89,20.21484375,20.87109375,41.0,74.0
90,20.21484375,20.907552083333332,60.0,74.0
91,20.21484375,20.92578125,56.0,65.0
92,21.15234375,22.641927083333332,60.0,86.0
93,21.15234375,22.649739583333332,65.0,93.0
94,21.15234375,22.661458333333332,56.0,74.0
95,21.15234375,22.66796875,41.0,74.0
96,22.71484375,23.578125,60.0,79.0
97,22.71484375,23.58984375,56.0,73.0
98,22.71484375,23.595052083333332,65.0,79.0
99,24.90234375,25.01953125,53.0,44.0
100,23.625,25.21484375,65.0,73.0
101,23.65234375,25.428385416666664,56.0,71.0
102,23.65234375,25.5390625,60.0,85.0
103,25.52734375,25.66015625,56.0,60.0
104,25.21484375,25.83984375,65.0,50.0
105,25.52734375,25.940104166666664,67.0,66.0
106,25.83984375,26.3125,68.0,69.0
107,26.15234375,26.34375,75.0,58.0
108,25.21484375,26.381510416666664,53.0,63.0
109,26.15234375,26.985677083333332,60.0,85.0
110,26.46484375,27.001302083333332,67.0,70.0
111,26.77734375,27.216145833333332,68.0,49.0
112,26.77734375,27.23046875,53.0,61.0
113,23.33984375,27.334635416666664,48.0,60.0
114,22.71484375,27.447916666666664,41.0,85.0
115,27.08984375,27.638020833333332,75.0,79.0
116,25.83984375,27.697916666666664,56.0,66.0
117,27.40234375,27.735677083333332,60.0,56.0
118,27.08984375,27.735677083333332,65.0,87.0
119,29.27734375,29.748697916666664,46.0,58.0
120,29.43359375,30.634114583333332,58.0,76.0
121,29.90234375,30.647135416666664,46.0,60.0
122,27.71484375,30.69921875,34.0,74.0
123,28.02734375,30.69921875,41.0,57.0
124,28.33984375,30.701822916666664,49.0,65.0
125,28.65234375,30.755208333333332,53.0,70.0
126,30.83984375,31.506510416666664,48.0,62.0
127,31.15234375,31.592447916666664,67.0,66.0
128,31.46484375,31.81640625,68.0,74.0
129,30.21484375,32.07942708333333,36.0,74.0
130,30.52734375,32.09895833333333,43.0,64.0
131,31.77734375,32.2109375,48.0,60.0
132,31.77734375,32.25,75.0,68.0
133,32.08984375,32.447916666666664,67.0,64.0
134,31.46484375,32.6796875,55.0,66.0
135,31.15234375,32.694010416666664,51.0,63.0
136,32.08984375,32.73828125,60.0,76.0
137,32.40234375,32.75390625,68.0,70.0
138,33.33984375,33.79036458333333,53.0,58.0
139,32.71484375,34.90234375,41.0,83.0
140,33.02734375,34.9453125,48.0,66.0
141,34.27734375,34.99348958333333,53.0,59.0
142,34.58984375,35.21614583333333,60.0,61.0
143,33.65234375,35.234375,56.0,74.0
144,34.90234375,35.26953125,65.0,66.0
145,35.52734375,35.95442708333333,53.0,60.0
146,36.77734375,37.197916666666664,58.0,60.0
147,36.46484375,37.28515625,53.0,72.0
148,35.21484375,37.37890625,46.0,81.0
149,35.83984375,37.68880208333333,61.0,66.0
150,37.08984375,37.740885416666664,65.0,77.0
151,38.33984375,38.776041666666664,48.0,64.0
152,37.71484375,39.549479166666664,36.0,72.0
153,38.02734375,39.619791666666664,43.0,64.0
154,39.27734375,39.671875,48.0,58.0
155,38.65234375,40.19921875,51.0,76.0
156,39.58984375,40.201822916666664,55.0,76.0
157,39.90234375,40.229166666666664,60.0,50.0
158,40.21484375,40.953125,65.0,67.0
159,40.52734375,41.0703125,67.0,61.0
160,40.83984375,41.24609375,53.0,59.0
161,41.15234375,41.373697916666664,75.0,63.0
162,40.83984375,41.494791666666664,68.0,65.0
163,41.15234375,41.859375,60.0,75.0
164,41.15234375,41.861979166666664,65.0,60.0
165,41.15234375,41.875,56.0,64.0
166,41.46484375,42.080729166666664,67.0,67.0
167,41.77734375,42.1484375,68.0,67.0
168,41.77734375,42.240885416666664,53.0,56.0
169,40.52734375,42.27473958333333,48.0,67.0
170,40.21484375,42.42578125,41.0,63.0
171,42.08984375,42.615885416666664,60.0,70.0
172,42.08984375,42.627604166666664,56.0,65.0
173,42.08984375,42.811197916666664,75.0,93.0
174,42.71484375,43.43098958333333,56.0,68.0
175,42.71484375,43.432291666666664,60.0,76.0
176,42.71484375,43.43880208333333,65.0,77.0
177,43.33984375,44.615885416666664,53.0,58.0
178,42.71484375,44.951822916666664,41.0,71.0
179,43.65234375,45.0078125,65.0,74.0
180,43.65234375,45.029947916666664,60.0,71.0
181,43.65234375,45.04817708333333,56.0,69.0
182,43.02734375,45.07421875,48.0,61.0
183,45.21484375,46.03515625,56.0,63.0
184,45.21484375,46.0546875,60.0,68.0
185,45.21484375,46.05598958333333,65.0,72.0
186,45.83984375,46.537760416666664,53.0,53.0
187,46.15234375,46.56770833333333,60.0,59.0
188,46.46484375,46.79036458333333,63.0,63.0
189,46.15234375,46.984375,56.0,65.0
190,46.77734375,47.23046875,53.0,55.0
191,45.52734375,47.381510416666664,48.0,36.0
192,45.21484375,47.459635416666664,41.0,63.0
193,46.77734375,47.5078125,68.0,68.0
194,47.08984375,47.709635416666664,56.0,77.0
195,47.40234375,47.71484375,60.0,62.0
196,48.33984375,48.921875,58.0,54.0
197,49.26953125,49.5625,58.0,53.0
198,49.58984375,49.93098958333333,70.0,55.0
199,47.71484375,49.955729166666664,46.0,77.0
200,48.02734375,50.109375,53.0,60.0
201,48.65234375,50.147135416666664,65.0,57.0
202,47.71484375,50.35546875,61.0,79.0
203,50.83984375,51.401041666666664,60.0,60.0
204,50.52734375,52.072916666666664,55.0,58.0
205,51.77734375,52.109375,60.0,60.0
206,51.15234375,52.166666666666664,63.0,76.0
207,50.21484375,52.21484375,48.0,71.0
208,52.08984375,52.4375,65.0,79.0
209,52.40234375,52.81380208333333,63.0,86.0
210,53.33984375,53.78515625,53.0,59.0
211,53.65234375,54.48046875,60.0,79.0
212,53.65234375,54.49739583333333,56.0,71.0
213,52.71484375,54.6484375,41.0,79.0
214,53.02734375,54.72395833333333,48.0,71.0
215,54.58984375,54.897135416666664,56.0,70.0
216,54.58984375,54.90625,60.0,81.0
217,54.26953125,54.916666666666664,53.0,56.0
218,54.58984375,54.921875,65.0,73.0
219,55.21484375,55.83984375,65.0,65.0
220,55.21484375,56.026041666666664,61.0,95.0
221,55.83984375,56.41927083333333,58.0,58.0
222,56.15234375,56.986979166666664,61.0,77.0
223,56.77734375,57.104166666666664,58.0,59.0
224,55.52734375,57.15625,53.0,60.0
225,56.77734375,57.1640625,67.0,63.0
226,55.21484375,57.21484375,46.0,83.0
227,57.08984375,57.436197916666664,68.0,67.0
228,57.08984375,57.75,61.0,83.0
229,57.40234375,57.756510416666664,70.0,68.0
230,57.71484375,58.5546875,63.0,74.0
231,57.71484375,58.56770833333333,67.0,71.0
232,58.33984375,58.600260416666664,60.0,63.0
233,58.02734375,58.611979166666664,55.0,50.0
234,57.71484375,58.6875,48.0,81.0
235,57.71484375,58.97395833333333,72.0,66.0
236,59.27734375,59.61328125,53.0,67.0
237,58.96484375,59.65234375,46.0,83.0
238,58.96484375,59.6953125,61.0,72.0
239,58.96484375,59.701822916666664,65.0,74.0
240,60.21484375,60.541666666666664,68.0,69.0
241,60.52734375,60.955729166666664,67.0,63.0
242,60.21484375,61.1015625,60.0,75.0
243,60.21484375,61.158854166666664,56.0,71.0
244,61.15234375,61.158854166666664,56.0,52.0
245,60.83984375,61.234375,68.0,69.0
246,60.83984375,61.36458333333333,53.0,58.0
247,61.15234375,61.561197916666664,75.0,60.0
248,61.46484375,61.84505208333333,67.0,60.0
249,61.15234375,61.96875,60.0,68.0
250,61.77734375,62.18489583333333,68.0,63.0
251,61.77734375,62.291666666666664,53.0,58.0
252,60.21484375,62.494791666666664,41.0,76.0
253,62.40234375,62.52473958333333,70.0,64.0
254,62.08984375,62.63020833333333,65.0,75.0
255,60.52734375,62.63411458333333,48.0,69.0
256,62.08984375,62.64583333333333,60.0,79.0
257,62.08984375,62.65364583333333,56.0,71.0
258,62.08984375,62.96484375,75.0,86.0
259,62.71484375,64.40755208333333,72.0,85.0
260,62.71484375,65.09635416666666,60.0,79.0
261,62.71484375,65.10286458333333,41.0,77.0
262,62.71484375,65.10546875,56.0,67.0
263,62.71484375,65.11588541666666,65.0,76.0
264,65.21484375,65.96223958333333,60.0,83.0
265,65.21484375,65.96744791666666,56.0,79.0
266,65.21484375,65.98177083333333,65.0,79.0
267,65.21484375,66.09375,41.0,79.0
268,65.83984375,66.28776041666666,53.0,58.0
269,66.30859375,66.37369791666666,41.0,86.0
270,66.46484375,66.5546875,41.0,78.0
271,66.15234375,66.95833333333333,60.0,93.0
272,66.15234375,66.96614583333333,56.0,86.0
273,66.15234375,66.96744791666666,65.0,95.0
274,66.77734375,67.25130208333333,53.0,59.0
275,66.77734375,67.52213541666666,41.0,74.0
276,67.08984375,67.6015625,56.0,75.0
277,67.08984375,67.6015625,60.0,93.0
278,67.08984375,67.6015625,65.0,87.0
279,67.40234375,67.76171875,53.0,62.0
280,67.71484375,68.48828125,65.0,93.0
281,67.71484375,68.48958333333333,60.0,90.0
282,67.71484375,68.4921875,56.0,74.0
283,67.71484375,68.62109375,41.0,68.0
284,68.02734375,68.70963541666666,53.0,48.0
285,68.80859375,68.88020833333333,41.0,85.0
286,68.96484375,69.06640625,41.0,86.0
287,68.65234375,69.4375,56.0,93.0
288,68.65234375,69.44010416666666,60.0,98.0
289,68.65234375,69.44401041666666,65.0,95.0
290,69.27734375,69.64192708333333,53.0,59.0
291,65.52734375,69.69791666666666,48.0,63.0
292,69.58984375,69.85416666666666,65.0,95.0
293,69.58984375,69.86197916666666,60.0,90.0
294,69.58984375,69.88541666666666,56.0,79.0
295,69.27734375,70.20703125,41.0,92.0
296,70.21484375,70.93489583333333,53.0,87.0
297,70.21484375,70.94010416666666,56.0,87.0
298,70.21484375,70.94140625,61.0,87.0
299,70.21484375,70.98177083333333,37.0,59.0
300,70.83984375,71.28255208333333,49.0,56.0
301,71.30859375,71.37239583333333,37.0,87.0
302,71.46484375,71.58984375,37.0,100.0
303,71.15234375,71.95442708333333,53.0,93.0
304,71.15234375,71.95572916666666,61.0,104.0
305,71.15234375,71.95703125,56.0,90.0
306,71.77734375,72.50260416666666,37.0,100.0
307,71.62109375,72.53255208333333,49.0,59.0
308,72.08984375,72.55989583333333,53.0,95.0
309,72.08984375,72.57291666666666,61.0,112.0
310,70.52734375,72.57552083333333,44.0,79.0
311,72.08984375,72.578125,56.0,95.0
312,72.71484375,73.43359375,65.0,76.0
313,72.71484375,73.43880208333333,61.0,81.0
314,72.71484375,73.515625,46.0,93.0
315,73.33984375,73.84505208333333,58.0,58.0
316,73.80859375,73.86848958333333,46.0,95.0
317,73.96484375,74.02213541666666,46.0,98.0
318,73.65234375,74.42708333333333,61.0,86.0
319,73.65234375,74.42708333333333,65.0,86.0
320,74.27734375,74.71223958333333,58.0,62.0
321,73.02734375,74.86979166666666,53.0,67.0
322,74.27734375,74.92708333333333,46.0,114.0
323,74.58984375,75.27734375,65.0,93.0
324,74.58984375,75.28385416666666,61.0,100.0
325,75.83984375,76.42317708333333,60.0,61.0
326,76.15234375,77.00260416666666,67.0,93.0
327,76.15234375,77.0078125,63.0,93.0
328,76.77734375,77.16015625,60.0,57.0
329,75.52734375,77.22395833333333,55.0,68.0
330,75.21484375,77.40364583333333,48.0,74.0
331,77.08984375,77.72265625,67.0,87.0
332,77.08984375,77.74479166666666,63.0,85.0
333,77.71484375,77.74479166666666,63.0,85.0
334,77.71484375,78.4375,60.0,75.0
335,77.71484375,78.48177083333333,44.0,85.0
336,78.80859375,78.87109375,44.0,70.0
337,78.33984375,78.87630208333333,56.0,54.0
338,78.96484375,79.04166666666666,44.0,83.0
339,78.65234375,79.46614583333333,60.0,85.0
340,78.65234375,79.48046875,63.0,85.0
341,79.27734375,79.62239583333333,56.0,59.0
342,78.02734375,79.73828125,51.0,60.0
343,79.27734375,80.00651041666666,44.0,84.0
344,79.58984375,80.2578125,63.0,81.0
345,79.58984375,80.26692708333333,60.0,90.0
346,80.21484375,80.26692708333333,60.0,75.0
347,80.21484375,80.88411458333333,55.0,75.0
348,80.21484375,80.88932291666666,51.0,71.0
349,80.83984375,81.24609375,48.0,60.0
350,81.15234375,81.90755208333333,55.0,86.0
351,81.15234375,81.91015625,60.0,98.0
352,81.15234375,81.91536458333333,51.0,79.0
353,81.77734375,82.13411458333333,48.0,59.0
354,80.21484375,82.21744791666666,36.0,59.0
355,80.52734375,82.27604166666666,43.0,74.0
356,82.08984375,82.40234375,55.0,83.0
357,82.08984375,82.40494791666666,51.0,83.0
358,82.08984375,82.41015625,60.0,81.0
359,82.71484375,83.46354166666666,56.0,70.0
360,82.71484375,83.46354166666666,60.0,71.0
361,82.71484375,83.47395833333333,65.0,71.0
362,82.71484375,83.67708333333333,41.0,69.0
363,83.80859375,83.94270833333333,36.0,73.0
364,83.33984375,84.02864583333333,53.0,58.0
365,83.96484375,84.11848958333333,41.0,77.0
366,84.12109375,84.2109375,36.0,74.0
367,83.65234375,84.39453125,60.0,86.0
368,83.65234375,84.40364583333333,56.0,77.0
369,83.65234375,84.41276041666666,65.0,86.0
370,84.27734375,84.70052083333333,53.0,59.0
371,84.27734375,84.88671875,41.0,73.0
372,84.58984375,85.04296875,60.0,85.0
373,84.58984375,85.04557291666666,56.0,81.0
374,84.58984375,85.04817708333333,65.0,86.0
375,84.90234375,85.34114583333333,53.0,59.0
376,85.21484375,86.00260416666666,65.0,83.0
377,85.21484375,86.00390625,60.0,83.0
378,85.21484375,86.00911458333333,56.0,79.0
379,85.68359375,86.34375,53.0,49.0
380,86.15234375,86.97265625,65.0,93.0
381,86.15234375,86.97526041666666,60.0,86.0
382,86.15234375,86.97786458333333,56.0,66.0
383,86.77734375,87.37890625,53.0,59.0
384,85.21484375,87.54817708333333,41.0,84.0
385,87.08984375,87.60807291666666,65.0,98.0
386,87.08984375,87.61328125,56.0,90.0
387,87.08984375,87.6171875,60.0,98.0
388,83.02734375,87.72916666666666,48.0,60.0
389,87.71484375,88.4296875,65.0,93.0
390,87.71484375,88.43229166666666,56.0,76.0
391,87.71484375,88.43619791666666,60.0,87.0
392,87.71484375,88.69401041666666,41.0,85.0
393,88.33984375,88.73958333333333,53.0,59.0
394,88.65234375,88.86979166666666,36.0,80.0
395,88.80859375,88.9453125,41.0,83.0
396,88.65234375,89.41276041666666,60.0,95.0
397,88.65234375,89.41536458333333,56.0,93.0
398,88.65234375,89.41666666666666,65.0,104.0
399,89.27734375,89.59765625,53.0,60.0
400,88.02734375,89.70442708333333,48.0,64.0
401,89.58984375,89.83463541666666,60.0,87.0
402,89.58984375,89.83854166666666,65.0,90.0
403,89.58984375,89.86458333333333,56.0,85.0
404,89.27734375,89.9921875,41.0,72.0
405,90.21484375,90.89713541666666,56.0,87.0
406,90.21484375,90.90104166666666,53.0,87.0
407,90.21484375,90.90364583333333,61.0,100.0
408,90.21484375,91.00911458333333,37.0,84.0
409,90.83984375,91.24348958333333,49.0,59.0
410,91.30859375,91.38151041666666,37.0,76.0
411,91.46484375,91.54427083333333,37.0,68.0
412,91.15234375,91.89973958333333,61.0,112.0
413,91.15234375,91.90364583333333,53.0,90.0
414,91.15234375,91.90494791666666,56.0,100.0
415,91.77734375,92.12109375,49.0,61.0
416,90.52734375,92.39713541666666,44.0,83.0
417,92.08984375,92.42708333333333,53.0,86.0
418,92.08984375,92.43359375,56.0,93.0
419,92.08984375,92.43359375,61.0,112.0
420,91.77734375,92.46354166666666,37.0,64.0
421,92.40234375,92.66796875,49.0,54.0
422,92.71484375,93.4453125,63.0,74.0
423,92.71484375,93.46484375,60.0,90.0
424,93.33984375,93.8125,56.0,60.0
425,93.65234375,94.41276041666666,68.0,87.0
426,93.65234375,94.41666666666666,60.0,87.0
427,93.65234375,94.41666666666666,63.0,93.0
428,94.27734375,94.82552083333333,56.0,63.0
429,92.71484375,95.02734375,44.0,87.0
430,94.58984375,95.06119791666666,63.0,98.0
431,94.58984375,95.06901041666666,68.0,98.0
432,94.58984375,95.07291666666666,60.0,93.0
433,94.90234375,95.09895833333333,56.0,59.0
434,93.02734375,95.19010416666666,51.0,61.0
435,95.21484375,95.95052083333333,55.0,77.0
436,95.21484375,95.95442708333333,51.0,77.0
437,95.21484375,95.9609375,60.0,79.0
438,95.83984375,96.24609375,48.0,59.0
439,96.15234375,96.92057291666666,55.0,77.0
440,96.15234375,96.93098958333333,51.0,81.0
441,96.15234375,96.93229166666666,60.0,87.0
442,96.77734375,97.19661458333333,48.0,61.0
443,95.21484375,97.4296875,36.0,67.0
444,95.52734375,97.51041666666666,43.0,77.0
445,97.08984375,97.54817708333333,51.0,81.0
446,97.08984375,97.5703125,55.0,81.0
447,97.08984375,97.60546875,60.0,86.0
448,97.71484375,98.05989583333333,61.0,86.0
449,97.71484375,98.07942708333333,65.0,79.0
450,97.71484375,98.64973958333333,46.0,72.0
451,98.33984375,98.85416666666666,58.0,66.0
452,98.80859375,98.88151041666666,46.0,83.0
453,98.96484375,99.03125,46.0,85.0
454,98.65234375,99.42317708333333,65.0,87.0
455,98.65234375,99.43619791666666,61.0,111.0
456,99.27734375,99.98177083333333,58.0,62.0
457,99.27734375,99.98697916666666,46.0,90.0
458,99.58984375,100.05859375,61.0,86.0
459,99.58984375,100.12890625,65.0,86.0
460,98.02734375,100.13411458333333,53.0,59.0
461,100.21484375,100.99348958333333,67.0,93.0
462,100.21484375,100.99869791666666,63.0,93.0
463,100.83984375,101.08333333333333,60.0,65.0
464,100.52734375,101.23046875,55.0,60.0
465,101.15234375,101.29036458333333,63.0,72.0
466,100.21484375,101.29557291666666,48.0,79.0
467,101.15234375,101.32421875,67.0,86.0
468,101.30859375,101.92057291666666,61.0,87.0
469,101.30859375,101.93359375,65.0,75.0
470,101.46484375,102.11848958333333,46.0,74.0
471,101.77734375,102.18229166666666,53.0,59.0
472,102.08984375,102.66927083333333,65.0,75.0
473,102.08984375,102.69140625,61.0,70.0
474,102.71484375,103.82682291666666,41.0,95.0
475,103.65234375,104.03255208333333,56.0,77.0
476,103.33984375,104.04166666666666,53.0,62.0
477,103.80859375,104.046875,36.0,85.0
478,103.96484375,104.08072916666666,41.0,77.0
479,104.27734375,104.61588541666666,53.0,61.0
480,103.96484375,104.65234375,58.0,77.0
481,103.02734375,104.73697916666666,48.0,70.0
482,104.27734375,105.01302083333333,41.0,86.0
483,104.58984375,105.12890625,63.0,79.0
484,104.90234375,105.43880208333333,53.0,65.0
485,105.21484375,107.71875,65.0,95.0
486,105.52734375,108.78645833333333,48.0,69.0
487,105.21484375,108.9296875,60.0,85.0
488,105.21484375,108.9609375,41.0,74.0
489,105.21484375,108.9609375,56.0,73.0
490,110.52734375,115.10416666666666,46.0,74.0
491,112.08984375,115.109375,63.0,64.0
492,110.21484375,115.14192708333333,58.0,81.0
493,110.21484375,115.16666666666666,55.0,69.0
494,110.21484375,115.19661458333333,39.0,65.0
495,110.99609375,115.21484375,51.0,56.0
496,115.21484375,116.02864583333333,56.0,70.0
497,115.21484375,116.04427083333333,65.0,74.0
498,115.21484375,116.046875,60.0,79.0
499,115.21484375,116.15364583333333,41.0,90.0
500,116.30859375,116.38932291666666,41.0,93.0
501,115.83984375,116.40755208333333,53.0,59.0
502,116.46484375,116.54166666666666,41.0,87.0
503,116.77734375,117.11588541666666,53.0,54.0
504,117.24609375,117.44010416666666,53.0,60.0
505,116.15234375,117.57421875,60.0,81.0
506,116.77734375,117.58072916666666,41.0,95.0
507,116.15234375,117.58463541666666,56.0,85.0
508,116.15234375,117.5859375,65.0,81.0
509,115.52734375,117.71354166666666,48.0,76.0
510,117.71484375,118.45963541666666,60.0,77.0
511,117.71484375,118.47005208333333,56.0,77.0
512,117.71484375,118.4765625,65.0,74.0
513,117.71484375,118.70182291666666,41.0,111.0
514,118.80859375,118.88411458333333,41.0,87.0
515,118.33984375,118.92057291666666,53.0,60.0
516,118.96484375,119.03776041666666,41.0,86.0
517,118.65234375,119.4609375,56.0,72.0
518,118.65234375,119.47005208333333,60.0,85.0
519,118.65234375,119.48046875,65.0,75.0
520,119.27734375,119.66796875,53.0,52.0
521,118.02734375,119.86328125,48.0,65.0
522,119.58984375,119.91536458333333,65.0,85.0
523,119.58984375,119.91666666666666,60.0,90.0
524,119.58984375,119.93619791666666,56.0,75.0
525,119.27734375,120.25520833333333,41.0,98.0
526,120.21484375,120.97135416666666,53.0,65.0
527,120.21484375,120.9765625,56.0,65.0
528,120.21484375,120.98177083333333,61.0,79.0
529,120.21484375,121.13020833333333,37.0,95.0
530,121.30859375,121.37369791666666,37.0,86.0
531,121.46484375,121.53776041666666,37.0,100.0
532,120.83984375,121.5390625,49.0,52.0
533,122.08984375,122.35026041666666,49.0,59.0
534,121.15234375,122.37109375,61.0,93.0
535,121.15234375,122.375,56.0,86.0
536,121.15234375,122.38151041666666,53.0,81.0
537,120.52734375,122.40234375,44.0,90.0
538,121.77734375,122.73958333333333,37.0,104.0
539,122.71484375,123.46223958333333,49.0,65.0
540,122.71484375,123.48958333333333,58.0,67.0
541,122.71484375,123.4921875,53.0,61.0
542,123.65234375,124.48697916666666,49.0,75.0
543,123.65234375,124.49869791666666,58.0,75.0
544,123.65234375,124.50390625,53.0,76.0
545,123.33984375,124.83072916666666,46.0,59.0
546,124.58984375,124.89453125,53.0,74.0
547,124.58984375,124.8984375,49.0,72.0
548,124.58984375,124.90494791666666,58.0,74.0
549,123.02734375,124.98046875,41.0,67.0
550,125.21484375,125.96614583333333,51.0,67.0
551,125.21484375,125.9765625,55.0,66.0
552,125.21484375,125.984375,60.0,71.0
553,125.21484375,126.12630208333333,36.0,81.0
554,126.30859375,126.38541666666666,36.0,77.0
555,126.46484375,126.54557291666666,36.0,79.0
556,126.77734375,127.57942708333333,36.0,90.0
557,126.15234375,127.6484375,51.0,75.0
558,126.15234375,127.64973958333333,55.0,73.0
559,126.15234375,127.65104166666666,60.0,77.0
560,125.52734375,127.71484375,43.0,59.0
561,125.83984375,127.72135416666666,48.0,59.0
562,127.71484375,128.44140625,60.0,62.0
563,127.71484375,128.4453125,63.0,72.0
564,128.33984375,128.77864583333331,56.0,50.0
565,128.49609375,129.45963541666666,63.0,77.0
566,128.65234375,129.609375,60.0,63.0
567,129.58984375,129.609375,60.0,70.0
568,128.65234375,129.609375,68.0,76.0
569,129.58984375,129.609375,68.0,90.0
570,129.27734375,130.2421875,56.0,47.0
571,130.21484375,130.24348958333331,60.0,73.0
572,129.58984375,130.24348958333331,63.0,86.0
573,128.02734375,130.27994791666666,51.0,59.0
574,130.21484375,130.27994791666666,51.0,65.0
575,127.71484375,130.30598958333331,44.0,87.0
576,130.21484375,131.02604166666666,55.0,67.0
577,130.21484375,131.13541666666666,36.0,81.0
578,131.30859375,131.38411458333331,36.0,83.0
579,131.46484375,131.54817708333331,36.0,81.0
580,131.15234375,132.00911458333331,60.0,77.0
581,131.15234375,132.01822916666666,51.0,72.0
582,131.15234375,132.0234375,55.0,79.0
583,131.77734375,132.63671875,36.0,73.0
584,132.08984375,132.64453125,55.0,69.0
585,130.52734375,132.64583333333331,43.0,73.0
586,132.08984375,132.64973958333331,51.0,68.0
587,132.08984375,132.65625,60.0,73.0
588,130.83984375,132.71484375,48.0,60.0
589,132.71484375,133.49088541666666,60.0,73.0
590,132.71484375,133.49479166666666,56.0,68.0
591,132.71484375,133.50260416666666,65.0,74.0
592,133.33984375,134.08072916666666,53.0,56.0
593,132.71484375,135.05989583333331,41.0,79.0
594,134.58984375,135.06510416666666,53.0,62.0
595,133.65234375,135.12630208333331,65.0,83.0
596,133.65234375,135.12890625,56.0,65.0
597,133.65234375,135.12890625,60.0,77.0
598,133.02734375,135.23958333333331,48.0,61.0
599,135.21484375,137.54036458333331,41.0,63.0
600,135.21484375,137.76041666666666,60.0,73.0
601,137.71484375,137.76041666666666,60.0,79.0
602,135.21484375,137.76302083333331,65.0,75.0
603,137.71484375,137.76302083333331,65.0,79.0
604,135.21484375,137.765625,56.0,66.0
605,137.71484375,137.765625,56.0,73.0
606,137.71484375,138.59375,41.0,85.0
607,139.90234375,140.01953125,53.0,44.0
608,138.65234375,140.09895833333331,41.0,77.0
609,138.625,140.21484375,65.0,73.0
610,138.65234375,140.42838541666666,56.0,71.0
611,138.65234375,140.5390625,60.0,85.0
612,140.52734375,140.66015625,56.0,60.0
613,140.21484375,140.83984375,65.0,50.0
614,140.21484375,140.875,41.0,75.0
615,140.52734375,140.94010416666666,67.0,66.0
616,140.83984375,141.3125,68.0,69.0
617,141.15234375,141.34375,75.0,58.0
618,140.21484375,141.38151041666666,53.0,63.0
619,141.15234375,141.98567708333331,60.0,85.0
620,141.46484375,142.00130208333331,67.0,70.0
621,141.77734375,142.21614583333331,68.0,49.0
622,141.77734375,142.23046875,53.0,61.0
623,138.33984375,142.33463541666666,48.0,60.0
624,141.15234375,142.55078125,41.0,77.0
625,142.08984375,142.63802083333331,75.0,79.0
626,140.83984375,142.69791666666666,56.0,66.0
627,142.40234375,142.73567708333331,60.0,56.0
628,142.08984375,142.73567708333331,65.0,87.0
629,144.27734375,144.74869791666666,46.0,58.0
630,142.71484375,145.21484375,34.0,74.0
631,144.58984375,145.63411458333331,58.0,76.0
632,144.90234375,145.64713541666666,46.0,60.0
633,143.02734375,145.69921875,41.0,57.0
634,143.33984375,145.70182291666666,49.0,65.0
635,143.65234375,145.75520833333331,53.0,70.0
636,145.83984375,146.50651041666666,48.0,62.0
637,146.15234375,146.59244791666666,67.0,66.0
638,146.46484375,146.81640625,68.0,74.0
639,145.21484375,147.07942708333331,36.0,74.0
640,145.52734375,147.09895833333331,43.0,64.0
641,146.77734375,147.2109375,48.0,60.0
642,146.77734375,147.25,75.0,68.0
643,147.08984375,147.44791666666666,67.0,64.0
644,146.46484375,147.6796875,55.0,66.0
645,146.15234375,147.69401041666666,51.0,63.0
646,147.08984375,147.73828125,60.0,76.0
647,147.40234375,147.75390625,68.0,70.0
648,148.33984375,148.79036458333331,53.0,58.0
649,147.71484375,149.90234375,41.0,83.0
650,148.02734375,149.9453125,48.0,66.0
651,149.27734375,149.99348958333331,53.0,59.0
652,149.58984375,150.21614583333331,60.0,61.0
653,148.65234375,150.234375,56.0,74.0
654,149.90234375,150.26953125,65.0,66.0
655,150.52734375,150.95442708333331,53.0,60.0
656,151.77734375,152.19791666666666,58.0,60.0
657,151.46484375,152.28515625,53.0,72.0
658,150.21484375,152.37890625,46.0,81.0
659,150.83984375,152.68880208333331,61.0,66.0
660,152.08984375,152.74088541666666,65.0,77.0
661,153.33984375,153.77604166666666,48.0,64.0
662,152.71484375,154.54947916666666,36.0,72.0
663,153.02734375,154.61979166666666,43.0,64.0
664,154.27734375,154.671875,48.0,58.0
665,153.65234375,155.19921875,51.0,76.0
666,154.58984375,155.20182291666666,55.0,76.0
667,154.90234375,155.22916666666666,60.0,50.0
668,155.21484375,155.953125,65.0,67.0
669,155.52734375,156.0703125,67.0,61.0
670,155.83984375,156.24609375,53.0,59.0
671,156.15234375,156.37369791666666,75.0,63.0
672,155.83984375,156.49479166666666,68.0,65.0
673,156.15234375,156.859375,60.0,75.0
674,156.15234375,156.86197916666666,65.0,60.0
675,156.15234375,156.875,56.0,64.0
676,156.46484375,157.08072916666666,67.0,67.0
677,156.77734375,157.1484375,68.0,67.0
678,156.77734375,157.24088541666666,53.0,56.0
679,155.52734375,157.27473958333331,48.0,67.0
680,155.21484375,157.42578125,41.0,63.0
681,157.08984375,157.61588541666666,60.0,70.0
682,157.08984375,157.62760416666666,56.0,65.0
683,157.08984375,157.81119791666666,75.0,93.0
684,157.71484375,158.37109375,41.0,77.0
685,157.71484375,158.43098958333331,56.0,68.0
686,157.71484375,158.43229166666666,60.0,76.0
687,157.71484375,158.43880208333331,65.0,77.0
688,158.33984375,159.61588541666666,53.0,58.0
689,158.65234375,159.69661458333331,41.0,77.0
690,158.65234375,160.0078125,65.0,74.0
691,159.90234375,160.0234375,41.0,79.0
692,158.65234375,160.02994791666666,60.0,71.0
693,158.65234375,160.04817708333331,56.0,69.0
694,158.02734375,160.07421875,48.0,61.0
695,160.21484375,161.03515625,56.0,63.0
696,160.21484375,161.046875,41.0,86.0
697,160.21484375,161.0546875,60.0,68.0
698,160.21484375,161.05598958333331,65.0,72.0
699,160.83984375,161.53776041666666,53.0,53.0
700,161.15234375,161.56770833333331,60.0,59.0
701,161.46484375,161.79036458333331,63.0,63.0
702,161.15234375,161.984375,56.0,65.0
703,161.77734375,162.23046875,53.0,55.0
704,160.52734375,162.38151041666666,48.0,36.0
705,161.77734375,162.5078125,68.0,68.0
706,161.15234375,162.5234375,41.0,81.0
707,162.08984375,162.70963541666666,56.0,77.0
708,162.40234375,162.71484375,60.0,62.0
709,162.71484375,163.3828125,46.0,85.0
710,163.33984375,163.921875,58.0,54.0
711,164.24348958333331,164.5625,58.0,53.0
712,164.58984375,164.93098958333331,70.0,55.0
713,163.65234375,165.10026041666666,46.0,100.0
714,163.02734375,165.109375,53.0,60.0
715,163.65234375,165.14713541666666,65.0,57.0
716,162.71484375,165.35546875,61.0,79.0
717,165.21484375,165.8984375,48.0,77.0
718,165.83984375,166.40104166666666,60.0,60.0
719,165.52734375,167.07291666666666,55.0,58.0
720,166.77734375,167.109375,60.0,60.0
721,166.15234375,167.16666666666666,63.0,76.0
722,167.08984375,167.4375,65.0,79.0
723,166.15234375,167.61328125,48.0,87.0
724,167.40234375,167.81380208333331,63.0,86.0
725,168.33984375,168.78515625,53.0,59.0
726,168.65234375,169.48046875,60.0,79.0
727,168.65234375,169.49739583333331,56.0,71.0
728,167.71484375,169.6484375,41.0,79.0
729,168.02734375,169.72395833333331,48.0,71.0
730,169.58984375,169.89713541666666,56.0,70.0
731,169.58984375,169.90625,60.0,81.0
732,169.27083333333331,169.91666666666666,53.0,56.0
733,169.58984375,169.921875,65.0,73.0
734,170.21484375,170.83984375,65.0,65.0
735,170.21484375,171.02604166666666,61.0,95.0
736,170.83984375,171.41927083333331,58.0,58.0
737,171.15234375,171.98697916666666,61.0,77.0
738,171.77734375,172.10416666666666,58.0,59.0
739,170.52734375,172.15625,53.0,60.0
740,171.77734375,172.1640625,67.0,63.0
741,170.21484375,172.21484375,46.0,83.0
742,172.08984375,172.43619791666666,68.0,67.0
743,172.08984375,172.75,61.0,83.0
744,172.40234375,172.75651041666666,70.0,68.0
745,172.71484375,173.5546875,63.0,74.0
746,172.71484375,173.56770833333331,67.0,71.0
747,173.33984375,173.60026041666666,60.0,63.0
748,173.02734375,173.61197916666666,55.0,50.0
749,172.71484375,173.6875,48.0,81.0
750,172.71484375,173.97395833333331,72.0,66.0
751,174.27734375,174.61328125,53.0,67.0
752,173.96484375,174.65234375,46.0,83.0
753,173.96484375,174.6953125,61.0,72.0
754,173.96484375,174.70182291666666,65.0,74.0
755,175.21484375,175.54166666666666,68.0,69.0
756,175.52734375,175.95572916666666,67.0,63.0
757,175.21484375,176.1015625,60.0,75.0
758,175.21484375,176.15885416666666,56.0,71.0
759,176.15234375,176.15885416666666,56.0,52.0
760,175.83984375,176.234375,68.0,69.0
761,175.83984375,176.36458333333331,53.0,58.0
762,176.15234375,176.56119791666666,75.0,60.0
763,176.46484375,176.84505208333331,67.0,60.0
764,176.15234375,176.96875,60.0,68.0
765,176.77734375,177.18489583333331,68.0,63.0
766,176.77734375,177.29166666666666,53.0,58.0
767,175.21484375,177.49479166666666,41.0,76.0
768,177.40234375,177.52473958333331,70.0,64.0
769,177.08984375,177.63020833333331,65.0,75.0
770,175.52734375,177.63411458333331,48.0,69.0
771,177.08984375,177.64583333333331,60.0,79.0
772,177.08984375,177.65364583333331,56.0,71.0
773,177.08984375,177.96484375,75.0,86.0
774,177.71484375,179.40755208333331,72.0,85.0
775,177.71484375,180.09635416666666,60.0,79.0
776,177.71484375,180.10286458333331,41.0,77.0
777,177.71484375,180.10546875,56.0,67.0
778,177.71484375,180.11588541666666,65.0,76.0
779,180.21484375,180.96223958333331,60.0,83.0
780,180.21484375,180.96744791666666,56.0,79.0
781,180.21484375,180.98177083333331,65.0,79.0
782,180.21484375,181.19401041666666,41.0,86.0
783,181.15234375,181.19401041666666,41.0,87.0
784,180.83984375,181.28776041666666,53.0,58.0
785,181.15234375,181.95833333333331,60.0,93.0
786,181.15234375,181.96614583333331,56.0,86.0
787,181.15234375,181.96744791666666,65.0,95.0
788,181.77734375,182.25130208333331,53.0,59.0
789,181.77734375,182.46744791666666,41.0,93.0
790,182.08984375,182.6015625,56.0,75.0
791,182.08984375,182.6015625,60.0,93.0
792,182.08984375,182.6015625,65.0,87.0
793,182.40234375,182.76171875,53.0,62.0
794,182.71484375,183.48828125,65.0,93.0
795,182.71484375,183.48958333333331,60.0,90.0
796,182.71484375,183.4921875,56.0,74.0
797,182.71484375,183.66145833333331,41.0,100.0
798,183.02734375,183.70963541666666,53.0,48.0
799,183.80859375,183.88932291666666,41.0,79.0
800,183.96484375,184.05598958333331,41.0,83.0
801,183.65234375,184.4375,56.0,93.0
802,183.65234375,184.44010416666666,60.0,98.0
803,183.65234375,184.44401041666666,65.0,95.0
804,184.27734375,184.64192708333331,53.0,59.0
805,180.52734375,184.69791666666666,48.0,63.0
806,184.58984375,184.85416666666666,65.0,95.0
807,184.58984375,184.86197916666666,60.0,90.0
808,184.58984375,184.88541666666666,56.0,79.0
809,184.27734375,185.00130208333331,41.0,98.0
810,185.21484375,185.93489583333331,53.0,87.0
811,185.21484375,185.94010416666666,56.0,87.0
812,185.21484375,185.94140625,61.0,87.0
813,185.83984375,186.28255208333331,49.0,56.0
814,186.15234375,186.95442708333331,53.0,93.0
815,186.15234375,186.95572916666666,61.0,104.0
816,186.15234375,186.95703125,56.0,90.0
817,185.21484375,187.43359375,37.0,81.0
818,186.62109375,187.53255208333331,49.0,59.0
819,187.08984375,187.55989583333331,53.0,95.0
820,187.08984375,187.57291666666666,61.0,112.0
821,185.52734375,187.57552083333331,44.0,79.0
822,187.08984375,187.578125,56.0,95.0
823,187.71484375,188.43359375,65.0,76.0
824,187.71484375,188.43880208333331,61.0,81.0
825,187.71484375,188.55078125,46.0,85.0
826,188.33984375,188.84505208333331,58.0,58.0
827,188.80859375,188.87369791666666,46.0,95.0
828,188.96484375,189.03125,46.0,83.0
829,188.65234375,189.42708333333331,61.0,86.0
830,188.65234375,189.42708333333331,65.0,86.0
831,189.27734375,189.71223958333331,58.0,62.0
832,188.02734375,189.86979166666666,53.0,67.0
833,189.27734375,190.11067708333331,46.0,86.0
834,189.58984375,190.27734375,65.0,93.0
835,189.58984375,190.28385416666666,61.0,100.0
836,190.83984375,191.42317708333331,60.0,61.0
837,191.15234375,192.00260416666666,67.0,93.0
838,191.15234375,192.0078125,63.0,93.0
839,191.77734375,192.16015625,60.0,57.0
840,190.52734375,192.22395833333331,55.0,68.0
841,190.21484375,192.40364583333331,48.0,74.0
842,192.08984375,192.72265625,67.0,87.0
843,192.08984375,192.74479166666666,63.0,85.0
844,192.71484375,192.74479166666666,63.0,85.0
845,192.71484375,193.4375,60.0,75.0
846,192.71484375,193.55859375,44.0,76.0
847,193.80859375,193.86328125,44.0,73.0
848,193.33984375,193.87630208333331,56.0,54.0
849,193.96484375,194.02864583333331,44.0,75.0
850,193.65234375,194.46614583333331,60.0,85.0
851,193.65234375,194.48046875,63.0,85.0
852,194.27734375,194.62239583333331,56.0,59.0
853,193.02734375,194.73828125,51.0,60.0
854,194.27734375,195.12630208333331,44.0,81.0
855,194.58984375,195.2578125,63.0,81.0
856,194.58984375,195.26692708333331,60.0,90.0
857,195.21484375,195.26692708333331,60.0,75.0
858,195.21484375,195.88411458333331,55.0,75.0
859,195.21484375,195.88932291666666,51.0,71.0
860,195.83984375,196.24609375,48.0,60.0
861,196.15234375,196.90755208333331,55.0,86.0
862,196.15234375,196.91015625,60.0,98.0
863,196.15234375,196.91536458333331,51.0,79.0
864,196.77734375,197.13411458333331,48.0,59.0
865,195.21484375,197.21744791666666,36.0,59.0
866,195.52734375,197.27604166666666,43.0,74.0
867,197.08984375,197.40234375,55.0,83.0
868,197.08984375,197.40494791666666,51.0,83.0
869,197.08984375,197.41015625,60.0,81.0
870,197.71484375,198.46354166666666,56.0,70.0
871,197.71484375,198.46354166666666,60.0,71.0
872,197.71484375,198.47395833333331,65.0,71.0
873,197.71484375,198.77473958333331,41.0,85.0
874,198.80859375,198.953125,36.0,87.0
875,198.33984375,199.02864583333331,53.0,58.0
876,198.96484375,199.08463541666666,41.0,90.0
877,199.12109375,199.30859375,36.0,86.0
878,198.65234375,199.39453125,60.0,86.0
879,198.65234375,199.40364583333331,56.0,77.0
880,198.65234375,199.41276041666666,65.0,86.0
881,199.27734375,199.70052083333331,53.0,59.0
882,199.58984375,200.04296875,60.0,85.0
883,199.58984375,200.04557291666666,56.0,81.0
884,199.58984375,200.04817708333331,65.0,86.0
885,199.27734375,200.13151041666666,41.0,87.0
886,199.90234375,200.34114583333331,53.0,59.0
887,200.21484375,201.00260416666666,65.0,83.0
888,200.21484375,201.00390625,60.0,83.0
889,200.21484375,201.00911458333331,56.0,79.0
890,200.21484375,201.23697916666666,41.0,86.0
891,200.68359375,201.34375,53.0,49.0
892,201.30859375,201.45052083333331,36.0,76.0
893,201.46484375,201.6484375,41.0,78.0
894,201.15234375,201.97265625,65.0,93.0
895,201.15234375,201.97526041666666,60.0,86.0
896,201.15234375,201.97786458333331,56.0,66.0
897,201.77734375,202.37890625,53.0,59.0
898,201.77734375,202.53125,41.0,84.0
899,202.08984375,202.60807291666666,65.0,98.0
900,202.08984375,202.61328125,56.0,90.0
901,202.08984375,202.6171875,60.0,98.0
902,198.02734375,202.72916666666666,48.0,60.0
903,202.71484375,203.4296875,65.0,93.0
904,202.71484375,203.43229166666666,56.0,76.0
905,202.71484375,203.43619791666666,60.0,87.0
906,203.33984375,203.73958333333331,53.0,59.0
907,202.71484375,203.78645833333331,41.0,81.0
908,203.80859375,203.92708333333331,36.0,79.0
909,203.96484375,204.09244791666666,41.0,79.0
910,203.65234375,204.41276041666666,60.0,95.0
911,203.65234375,204.41536458333331,56.0,93.0
912,203.65234375,204.41666666666666,65.0,104.0
913,204.27734375,204.59765625,53.0,60.0
914,203.02734375,204.70442708333331,48.0,64.0
915,204.27734375,204.79036458333331,41.0,73.0
916,204.58984375,205.05729166666666,60.0,87.0
917,204.58984375,205.05989583333331,65.0,90.0
918,204.58984375,205.08723958333331,56.0,85.0
919,205.21484375,205.89713541666666,56.0,87.0
920,205.21484375,205.90104166666666,53.0,87.0
921,205.21484375,205.90364583333331,61.0,100.0
922,205.83984375,206.24348958333331,49.0,59.0
923,206.15234375,206.89973958333331,61.0,112.0
924,206.15234375,206.90364583333331,53.0,90.0
925,206.15234375,206.90494791666666,56.0,100.0
926,206.77734375,207.12109375,49.0,61.0
927,205.21484375,207.32942708333331,37.0,83.0
928,205.52734375,207.39713541666666,44.0,83.0
929,207.08984375,207.42708333333331,53.0,86.0
930,207.08984375,207.43359375,56.0,93.0
931,207.08984375,207.43359375,61.0,112.0
932,207.40234375,207.66796875,49.0,54.0
933,207.71484375,208.4453125,63.0,74.0
934,207.71484375,208.46484375,60.0,90.0
935,207.71484375,208.6875,44.0,86.0
936,208.33984375,208.8125,56.0,60.0
937,208.79166666666666,208.98828125,39.0,56.0
938,208.96484375,209.0546875,44.0,108.0
939,208.65234375,209.41276041666666,68.0,87.0
940,208.65234375,209.41666666666666,60.0,87.0
941,208.65234375,209.41666666666666,63.0,93.0
942,209.27734375,209.82552083333331,56.0,63.0
943,209.27734375,209.9375,44.0,111.0
944,209.58984375,210.06119791666666,63.0,98.0
945,209.58984375,210.06901041666666,68.0,98.0
946,209.58984375,210.07291666666666,60.0,93.0
947,209.90234375,210.09895833333331,56.0,59.0
948,208.02734375,210.19010416666666,51.0,61.0
949,210.21484375,210.95052083333331,55.0,77.0
950,210.21484375,210.95442708333331,51.0,77.0
951,210.21484375,210.9609375,60.0,79.0
952,210.83984375,211.24609375,48.0,59.0
953,211.15234375,211.92057291666666,55.0,77.0
954,211.15234375,211.93098958333331,51.0,81.0
955,211.15234375,211.93229166666666,60.0,87.0
956,210.21484375,212.046875,36.0,67.0
957,210.52734375,212.12760416666666,43.0,77.0
958,211.77734375,212.19661458333331,48.0,61.0
959,212.08984375,212.34635416666666,51.0,81.0
960,212.08984375,212.36848958333331,55.0,81.0
961,212.08984375,212.40364583333331,60.0,86.0
962,212.71484375,213.05989583333331,61.0,86.0
963,212.71484375,213.07942708333331,65.0,79.0
964,213.33984375,213.85416666666666,58.0,66.0
965,213.65234375,214.42317708333331,65.0,87.0
966,213.65234375,214.43619791666666,61.0,111.0
967,212.71484375,214.7421875,46.0,77.0
968,214.27734375,214.98177083333331,58.0,62.0
969,214.58984375,215.05859375,61.0,86.0
970,214.58984375,215.12890625,65.0,86.0
971,213.02734375,215.13411458333331,53.0,59.0
972,215.21484375,215.99348958333331,67.0,93.0
973,215.21484375,215.99869791666666,63.0,93.0
974,215.83984375,216.08333333333331,60.0,65.0
975,215.52734375,216.23046875,55.0,60.0
976,216.15234375,216.29036458333331,63.0,72.0
977,215.21484375,216.29557291666666,48.0,79.0
978,216.15234375,216.32421875,67.0,86.0
979,216.46484375,216.92057291666666,61.0,87.0
980,216.46484375,216.93359375,65.0,75.0
981,216.46484375,217.11848958333331,46.0,74.0
982,216.77734375,217.18229166666666,53.0,59.0
983,217.08984375,217.66927083333331,65.0,75.0
984,217.08984375,217.69140625,61.0,70.0
985,218.65234375,219.03255208333331,56.0,77.0
986,218.33984375,219.04166666666666,53.0,62.0
987,219.27734375,219.61588541666666,53.0,61.0
988,218.96484375,219.65234375,58.0,77.0
989,217.71484375,219.73697916666666,41.0,79.0
990,218.02734375,219.73697916666666,48.0,70.0
991,219.58984375,220.12890625,63.0,79.0
992,219.90234375,220.21484375,53.0,65.0
993,220.21484375,220.96223958333331,60.0,83.0
994,220.21484375,220.96744791666666,56.0,79.0
995,220.21484375,220.98177083333331,65.0,79.0
996,220.83984375,221.28776041666666,53.0,58.0
997,220.21484375,221.31640625,41.0,85.0
998,221.30859375,221.50260416666666,36.0,67.0
999,221.46484375,221.59114583333331,41.0,75.0
1000,221.15234375,221.95833333333331,60.0,93.0
1001,221.15234375,221.96614583333331,56.0,86.0
1002,221.15234375,221.96744791666666,65.0,95.0
1003,221.77734375,222.25130208333331,53.0,59.0
1004,221.77734375,222.5703125,41.0,74.0
1005,222.08984375,222.6015625,56.0,75.0
1006,222.08984375,222.6015625,60.0,93.0
1007,222.08984375,222.6015625,65.0,87.0
1008,222.40234375,222.76171875,53.0,62.0
1009,222.71484375,223.48828125,65.0,93.0
1010,222.71484375,223.48958333333331,60.0,90.0
1011,222.71484375,223.4921875,56.0,74.0
1012,223.02734375,223.70963541666666,53.0,48.0
1013,222.71484375,223.8125,41.0,95.0
1014,223.80859375,223.92838541666666,36.0,60.0
1015,223.96484375,224.06901041666666,41.0,93.0
1016,223.65234375,224.4375,56.0,93.0
1017,223.65234375,224.44010416666666,60.0,98.0
1018,223.65234375,224.44401041666666,65.0,95.0
1019,224.27734375,224.64192708333331,53.0,59.0
1020,220.52734375,224.69791666666666,48.0,63.0
1021,224.58984375,224.85416666666666,65.0,95.0
1022,224.58984375,224.86197916666666,60.0,90.0
1023,224.58984375,224.88541666666666,56.0,79.0
1024,224.27734375,225.23958333333331,41.0,100.0
1025,225.21484375,225.93489583333331,53.0,87.0
1026,225.21484375,225.94010416666666,56.0,87.0
1027,225.21484375,225.94140625,61.0,87.0
1028,225.83984375,226.28255208333331,49.0,56.0
1029,225.21484375,226.34375,37.0,112.0
1030,226.46484375,226.5390625,37.0,108.0
1031,226.15234375,226.95442708333331,53.0,93.0
1032,226.15234375,226.95572916666666,61.0,104.0
1033,226.15234375,226.95703125,56.0,90.0
1034,226.62109375,227.53255208333331,49.0,59.0
1035,227.08984375,227.55989583333331,53.0,95.0
1036,227.08984375,227.57291666666666,61.0,112.0
1037,225.52734375,227.57552083333331,44.0,79.0
1038,227.08984375,227.578125,56.0,95.0
1039,226.77734375,227.64713541666666,37.0,112.0
1040,227.71484375,228.43359375,65.0,76.0
1041,227.71484375,228.43880208333331,61.0,81.0
1042,228.33984375,228.84505208333331,58.0,58.0
1043,228.65234375,229.42708333333331,61.0,86.0
1044,228.65234375,229.42708333333331,65.0,86.0
1045,229.27734375,229.71223958333331,58.0,62.0
1046,227.71484375,229.85286458333331,46.0,76.0
1047,228.02734375,229.86979166666666,53.0,67.0
1048,229.58984375,230.27734375,65.0,93.0
1049,229.58984375,230.28385416666666,61.0,100.0
1050,230.83984375,231.42317708333331,60.0,61.0
1051,231.15234375,232.00260416666666,67.0,93.0
1052,231.15234375,232.0078125,63.0,93.0
1053,231.77734375,232.16015625,60.0,57.0
1054,230.52734375,232.22395833333331,55.0,68.0
1055,230.21484375,232.40364583333331,48.0,74.0
1056,232.08984375,232.72265625,67.0,87.0
1057,232.08984375,232.74479166666666,63.0,85.0
1058,232.71484375,232.74479166666666,63.0,85.0
1059,232.71484375,233.4375,60.0,75.0
1060,233.33984375,233.87630208333331,56.0,54.0
1061,233.65234375,234.46614583333331,60.0,85.0
1062,233.65234375,234.48046875,63.0,85.0
1063,234.27734375,234.62239583333331,56.0,59.0
1064,233.02734375,234.73828125,51.0,60.0
1065,232.71484375,234.77734375,44.0,76.0
1066,234.58984375,235.2578125,63.0,81.0
1067,234.58984375,235.26692708333331,60.0,90.0
1068,235.21484375,235.26692708333331,60.0,75.0
1069,235.21484375,235.88411458333331,55.0,75.0
1070,235.21484375,235.88932291666666,51.0,71.0
1071,235.83984375,236.24609375,48.0,60.0
1072,236.15234375,236.90755208333331,55.0,86.0
1073,236.15234375,236.91015625,60.0,98.0
1074,236.15234375,236.91536458333331,51.0,79.0
1075,236.77734375,237.13411458333331,48.0,59.0
1076,235.21484375,237.21744791666666,36.0,59.0
1077,235.52734375,237.27604166666666,43.0,74.0
1078,237.08984375,237.40234375,55.0,83.0
1079,237.08984375,237.40494791666666,51.0,83.0
1080,237.08984375,237.41015625,60.0,81.0
1081,237.71484375,238.46354166666666,56.0,70.0
1082,237.71484375,238.46354166666666,60.0,71.0
1083,237.71484375,238.47395833333331,65.0,71.0
1084,237.71484375,238.8046875,41.0,79.0
1085,238.80859375,239.01041666666666,36.0,77.0
1086,238.33984375,239.02864583333331,53.0,58.0
1087,238.96484375,239.03385416666666,41.0,77.0
1088,238.65234375,239.39453125,60.0,86.0
1089,238.65234375,239.40364583333331,56.0,77.0
1090,238.65234375,239.41276041666666,65.0,86.0
1091,239.27734375,239.70052083333331,53.0,59.0
1092,239.58984375,240.04296875,60.0,85.0
1093,239.27734375,240.04427083333331,41.0,90.0
1094,239.58984375,240.04557291666666,56.0,81.0
1095,239.58984375,240.04817708333331,65.0,86.0
1096,239.90234375,240.34114583333331,53.0,59.0
1097,240.21484375,241.00260416666666,65.0,83.0
1098,240.21484375,241.00390625,60.0,83.0
1099,240.21484375,241.00911458333331,56.0,79.0
1100,240.21484375,241.29557291666666,41.0,90.0
1101,240.68359375,241.34375,53.0,49.0
1102,241.46484375,241.53125,41.0,83.0
1103,241.30859375,241.5390625,36.0,74.0
1104,241.15234375,241.97265625,65.0,93.0
1105,241.15234375,241.97526041666666,60.0,86.0
1106,241.15234375,241.97786458333331,56.0,66.0
1107,241.77734375,242.37890625,53.0,59.0
1108,241.77734375,242.5078125,41.0,90.0
1109,242.08984375,242.60807291666666,65.0,98.0
1110,242.08984375,242.61328125,56.0,90.0
1111,242.08984375,242.6171875,60.0,98.0
1112,238.02734375,242.72916666666666,48.0,60.0
1113,242.71484375,243.4296875,65.0,93.0
1114,242.71484375,243.43229166666666,56.0,76.0
1115,242.71484375,243.43619791666666,60.0,87.0
1116,243.33984375,243.73958333333331,53.0,59.0
1117,242.71484375,243.81119791666666,41.0,87.0
1118,243.80859375,243.95703125,36.0,79.0
1119,243.96484375,244.03255208333331,41.0,90.0
1120,243.65234375,244.41276041666666,60.0,95.0
1121,243.65234375,244.41536458333331,56.0,93.0
1122,243.65234375,244.41666666666666,65.0,104.0
1123,244.27734375,244.59765625,53.0,60.0
1124,243.02734375,244.70442708333331,48.0,64.0
1125,244.58984375,244.83463541666666,60.0,87.0
1126,244.58984375,244.83854166666666,65.0,90.0
1127,244.58984375,244.86458333333331,56.0,85.0
1128,244.27734375,245.00130208333331,41.0,98.0
1129,245.21484375,245.89713541666666,56.0,87.0
1130,245.21484375,245.90104166666666,53.0,87.0
1131,245.21484375,245.90364583333331,61.0,100.0
1132,245.21484375,246.12630208333331,37.0,86.0
1133,245.83984375,246.24348958333331,49.0,59.0
1134,246.30859375,246.36588541666666,37.0,77.0
1135,246.46484375,246.5546875,37.0,95.0
1136,246.15234375,246.89973958333331,61.0,112.0
1137,246.15234375,246.90364583333331,53.0,90.0
1138,246.15234375,246.90494791666666,56.0,100.0
1139,246.77734375,247.12109375,49.0,61.0
1140,245.52734375,247.39713541666666,44.0,83.0
1141,247.08984375,247.42708333333331,53.0,86.0
1142,247.08984375,247.43359375,56.0,93.0
1143,247.08984375,247.43359375,61.0,112.0
1144,246.77734375,247.53125,37.0,85.0
1145,247.40234375,247.66796875,49.0,54.0
1146,247.71484375,248.4453125,63.0,74.0
1147,247.71484375,248.46484375,60.0,90.0
1148,247.71484375,248.57291666666666,44.0,83.0
1149,248.33984375,248.8125,56.0,60.0
1150,248.80859375,248.87109375,44.0,79.0
1151,248.96484375,249.05208333333331,44.0,98.0
1152,248.65234375,249.41276041666666,68.0,87.0
1153,248.65234375,249.41666666666666,60.0,87.0
1154,248.65234375,249.41666666666666,63.0,93.0
1155,249.27734375,249.82552083333331,56.0,63.0
1156,249.27734375,249.88932291666666,44.0,104.0
1157,249.58984375,250.06119791666666,63.0,98.0
1158,249.58984375,250.06901041666666,68.0,98.0
1159,249.58984375,250.07291666666666,60.0,93.0
1160,249.90234375,250.09895833333331,56.0,59.0
1161,248.02734375,250.19010416666666,51.0,61.0
1162,250.21484375,250.95052083333331,55.0,77.0
1163,250.21484375,250.95442708333331,51.0,77.0
1164,250.21484375,250.9609375,60.0,79.0
1165,250.83984375,251.24609375,48.0,59.0
1166,251.15234375,251.92057291666666,55.0,77.0
1167,251.15234375,251.93098958333331,51.0,81.0
1168,251.15234375,251.93229166666666,60.0,87.0
1169,250.21484375,252.046875,36.0,67.0
1170,250.52734375,252.12760416666666,43.0,77.0
1171,251.77734375,252.19661458333331,48.0,61.0
1172,252.08984375,252.34635416666666,51.0,81.0
1173,252.08984375,252.36848958333331,55.0,81.0
1174,252.08984375,252.40364583333331,60.0,86.0
1175,252.71484375,253.05989583333331,61.0,86.0
1176,252.71484375,253.07942708333331,65.0,79.0
1177,253.33984375,253.85416666666666,58.0,66.0
1178,253.65234375,254.42317708333331,65.0,87.0
1179,253.65234375,254.43619791666666,61.0,111.0
1180,252.71484375,254.7421875,46.0,77.0
1181,254.27734375,254.98177083333331,58.0,62.0
1182,254.58984375,255.05859375,61.0,86.0
1183,254.58984375,255.12890625,65.0,86.0
1184,253.02734375,255.13411458333331,53.0,59.0
1185,255.21484375,255.99348958333331,67.0,93.0
1186,255.21484375,255.99869791666666,63.0,93.0
1187,255.83984375,256.0833333333333,60.0,65.0
1188,255.52734375,256.23046875,55.0,60.0
1189,256.15234375,256.2903645833333,63.0,72.0
1190,255.21484375,256.29557291666663,48.0,79.0
1191,256.15234375,256.32421875,67.0,86.0
1192,256.30859375,256.92057291666663,61.0,87.0
1193,256.30859375,256.93359375,65.0,75.0
1194,256.30859375,257.1184895833333,46.0,74.0
1195,256.77734375,257.18229166666663,53.0,59.0
1196,257.08984375,257.6692708333333,65.0,75.0
1197,257.08984375,257.69140625,61.0,70.0
1198,257.71484375,258.5078125,56.0,67.0
1199,257.71484375,258.52213541666663,60.0,66.0
1200,257.71484375,258.5286458333333,65.0,76.0
1201,258.33984375,258.76432291666663,53.0,58.0
1202,258.33984375,258.76432291666663,53.0,62.0
1203,258.65234375,259.0325520833333,56.0,77.0
1204,258.65234375,259.0325520833333,56.0,79.0
1205,257.71484375,259.04296875,41.0,87.0
1206,259.27734375,259.61588541666663,53.0,57.0
1207,259.27734375,259.61588541666663,53.0,61.0
1208,259.27734375,259.6302083333333,36.0,112.0
1209,258.96484375,259.65234375,58.0,77.0
1210,258.02734375,259.7239583333333,48.0,70.0
1211,258.02734375,259.7239583333333,48.0,70.0
1212,258.65234375,260.10546875,65.0,81.0
1213,258.65234375,260.1184895833333,60.0,90.0
1214,259.58984375,260.12890625,63.0,79.0
1215,259.90234375,260.21484375,53.0,65.0
1216,259.90234375,260.2421875,36.0,100.0
1217,259.90234375,260.34244791666663,48.0,87.0
1218,260.21484375,260.9609375,60.0,93.0
1219,260.21484375,260.96875,56.0,79.0
1220,260.21484375,260.97135416666663,65.0,95.0
1221,260.21484375,261.0442708333333,41.0,81.0
1222,260.83984375,261.41015625,53.0,62.0
1223,261.15234375,261.9309895833333,60.0,85.0
1224,261.15234375,261.93359375,65.0,79.0
1225,261.15234375,261.95182291666663,56.0,75.0
1226,261.77734375,262.1536458333333,53.0,60.0
1227,260.52734375,262.25260416666663,48.0,73.0
1228,262.08984375,262.32682291666663,65.0,60.0
1229,262.08984375,262.33203125,60.0,72.0
1230,262.08984375,262.359375,56.0,63.0
1231,261.15234375,262.36979166666663,41.0,93.0
1232,262.71484375,263.47526041666663,53.0,65.0
1233,262.71484375,263.4778645833333,56.0,72.0
1234,262.71484375,263.4817708333333,61.0,83.0
1235,263.33984375,264.05078125,49.0,59.0
1236,263.65234375,264.4583333333333,61.0,95.0
1237,263.65234375,264.45963541666663,53.0,76.0
1238,263.65234375,264.45963541666663,56.0,90.0
1239,262.71484375,264.6184895833333,37.0,76.0
1240,263.02734375,264.6770833333333,44.0,73.0
1241,264.58984375,264.828125,61.0,90.0
1242,264.58984375,264.83203125,56.0,85.0
1243,264.58984375,264.8359375,53.0,79.0
1244,264.27734375,265.1888020833333,49.0,63.0
1245,265.21484375,265.94401041666663,60.0,72.0
1246,265.21484375,265.94791666666663,63.0,75.0
1247,265.21484375,265.9505208333333,68.0,74.0
1248,265.68359375,266.4622395833333,56.0,59.0
1249,266.15234375,267.0078125,63.0,86.0
1250,266.15234375,267.0078125,68.0,83.0
1251,266.15234375,267.02734375,60.0,83.0
1252,266.77734375,267.5989583333333,56.0,58.0
1253,267.08984375,267.60416666666663,68.0,77.0
1254,267.08984375,267.60807291666663,63.0,81.0
1255,267.08984375,267.61588541666663,60.0,73.0
1256,265.21484375,267.6653645833333,44.0,90.0
1257,265.52734375,267.6888020833333,51.0,63.0
1258,267.71484375,268.4700520833333,51.0,60.0
1259,267.71484375,268.4778645833333,60.0,77.0
1260,267.71484375,268.47916666666663,55.0,69.0
1261,268.33984375,269.01432291666663,48.0,59.0
1262,268.65234375,269.46484375,51.0,67.0
1263,268.65234375,269.47265625,60.0,74.0
1264,268.65234375,269.47916666666663,55.0,75.0
1265,269.27734375,269.875,48.0,57.0
1266,268.02734375,269.91666666666663,43.0,58.0
1267,267.71484375,269.96875,36.0,70.0
1268,269.58984375,269.9700520833333,60.0,79.0
1269,269.58984375,269.99869791666663,55.0,75.0
1270,269.58984375,270.0169270833333,51.0,76.0
1271,270.21484375,270.91666666666663,61.0,67.0
1272,270.21484375,270.92838541666663,65.0,74.0
1273,270.83984375,271.31119791666663,58.0,50.0
1274,271.15234375,271.95572916666663,61.0,86.0
1275,271.15234375,271.9700520833333,65.0,76.0
1276,271.77734375,272.08463541666663,58.0,64.0
1277,270.52734375,272.16276041666663,53.0,58.0
1278,270.21484375,272.1888020833333,46.0,74.0
1279,272.08984375,272.63541666666663,65.0,81.0
1280,272.08984375,272.6497395833333,61.0,86.0
1281,272.71484375,273.42447916666663,60.0,85.0
1282,272.71484375,273.43359375,51.0,70.0
1283,272.71484375,273.4348958333333,55.0,79.0
1284,273.33984375,273.8997395833333,48.0,63.0
1285,273.65234375,274.43229166666663,60.0,85.0
1286,273.65234375,274.4375,55.0,81.0
1287,273.65234375,274.4427083333333,51.0,74.0
1288,272.71484375,274.5911458333333,36.0,63.0
1289,273.02734375,274.5950520833333,43.0,14.0
1290,274.58984375,274.8359375,55.0,77.0
1291,274.58984375,274.8372395833333,51.0,74.0
1292,274.58984375,274.83854166666663,60.0,85.0
1293,274.27734375,274.8450520833333,48.0,58.0
1294,275.21484375,275.87109375,41.0,74.0
1295,275.21484375,275.9075520833333,60.0,74.0
1296,275.21484375,275.92578125,56.0,65.0
1297,276.15234375,277.6419270833333,60.0,86.0
1298,276.15234375,277.6497395833333,65.0,93.0
1299,276.15234375,277.6614583333333,56.0,74.0
1300,276.15234375,277.66796875,41.0,74.0
