,start,end,pitch,velocity
0,5.947284497916667,6.350898639583334,80.0,127.0
1,6.308729997916667,6.68222368125,78.0,119.0
2,6.6701754979166665,9.143065127083334,77.0,114.0
3,9.200293997916667,9.5692696125,80.0,127.0
4,9.561739497916667,11.564749977083334,78.0,127.0
5,11.730412497916667,12.228906083333333,80.0,109.0
6,14.621976497916666,14.951795516666667,80.0,99.0
7,14.983421997916667,16.73944471875,78.0,127.0
8,17.51354049791667,17.862937814583333,78.0,121.0
9,17.874985997916667,18.215347177083334,80.0,108.0
10,18.236431497916666,19.334322204166668,77.0,104.0
11,20.405104497916668,20.799682502083336,80.0,127.0
12,20.766549997916666,22.225886204166667,78.0,123.0
13,24.019559497916667,24.742450497916668,77.0,116.0
14,24.742450497916668,25.46534149791667,68.0,116.0
15,25.46534149791667,25.826786997916667,70.0,114.0
16,25.826786997916667,26.186726475,73.0,108.0
17,26.18823249791667,26.911123497916666,73.0,110.0
18,26.911123497916666,27.271062975,77.0,116.0
19,27.272568997916668,27.632508475,77.0,113.0
20,27.634014497916667,27.993953975,77.0,116.0
21,27.99545999791667,28.356905497916667,77.0,113.0
22,28.356905497916667,28.7258811125,75.0,96.0
23,28.718350997916666,29.078290475,73.0,107.0
24,29.079796497916668,29.80268749791667,73.0,110.0
25,29.80268749791667,30.52557849791667,68.0,98.0
26,30.52557849791667,30.887023997916668,65.0,113.0
27,30.887023997916668,31.248469497916666,68.0,108.0
28,31.248469497916666,31.60991499791667,70.0,107.0
29,31.60991499791667,31.969854475,73.0,108.0
30,31.971360497916667,32.69425149791667,73.0,110.0
31,32.69425149791667,32.873468225,70.0,114.0
32,32.87497424791667,33.23641974791667,70.0,110.0
33,33.23641974791667,33.417142497916664,73.0,114.0
34,33.417142497916664,33.77858799791667,70.0,114.0
35,33.77858799791667,34.14003349791667,68.0,108.0
36,34.14003349791667,35.947260997916665,80.0,110.0
37,35.947260997916665,36.307200475,77.0,113.0
38,36.30870649791667,36.67015199791667,77.0,114.0
39,36.67015199791667,37.03159749791667,75.0,108.0
40,37.03159749791667,37.393042997916666,73.0,114.0
41,37.393042997916666,37.75448849791667,75.0,108.0
42,37.75448849791667,38.11593399791667,77.0,114.0
43,38.11593399791667,38.477379497916665,70.0,110.0
44,38.477379497916665,39.379487225,68.0,114.0
45,39.38099324791667,39.561715997916664,68.0,88.0
46,39.561715997916664,39.742438747916665,70.0,91.0
47,39.742438747916665,39.92316149791667,68.0,87.0
48,39.92316149791667,40.28460699791667,70.0,104.0
49,40.28460699791667,40.644546475,73.0,108.0
50,40.64605249791667,41.007497997916666,73.0,114.0
51,41.007497997916666,41.36894349791667,70.0,113.0
52,41.36894349791667,42.81472549791667,75.0,114.0
53,42.81472549791667,43.17617099791667,68.0,116.0
54,43.17617099791667,43.537616497916666,70.0,113.0
55,43.537616497916666,43.89906199791667,73.0,114.0
56,43.89906199791667,44.26050749791667,75.0,110.0
57,44.26050749791667,44.621952997916665,77.0,116.0
58,44.621952997916665,44.981892475,80.0,108.0
59,44.98339849791667,45.34484399791667,80.0,108.0
60,45.34484399791667,45.70628949791667,82.0,96.0
61,45.70628949791667,46.067734997916666,77.0,104.0
62,46.067734997916666,47.873456475000005,75.0,107.0
63,47.87496249791667,48.236407997916665,75.0,117.0
64,48.236407997916665,48.59785349791667,70.0,113.0
65,48.59785349791667,58.71832749791667,73.0,116.0
66,60.16410949791667,60.88700049791667,77.0,116.0
67,60.88700049791667,61.60989149791667,68.0,116.0
68,61.60989149791667,61.971336997916666,70.0,114.0
69,61.971336997916666,62.331276475,73.0,108.0
70,62.33278249791667,63.055673497916665,73.0,110.0
71,63.055673497916665,63.415612975,77.0,116.0
72,63.41711899791667,63.777058475000004,77.0,113.0
73,63.77856449791667,64.138503975,77.0,116.0
74,64.14000999791666,64.50145549791667,77.0,113.0
75,64.50145549791667,64.8704311125,75.0,96.0
76,64.86290099791667,65.222840475,73.0,107.0
77,65.22434649791667,65.94723749791667,73.0,110.0
78,65.94723749791667,66.67012849791666,68.0,98.0
79,66.67012849791666,67.03157399791667,65.0,113.0
80,67.03157399791667,67.39301949791667,68.0,108.0
81,67.39301949791667,67.75446499791667,70.0,107.0
82,67.75446499791667,68.114404475,73.0,108.0
83,68.11591049791667,68.83880149791666,73.0,110.0
84,68.83880149791666,69.018018225,70.0,114.0
85,69.01952424791666,69.38096974791667,70.0,110.0
86,69.38096974791667,69.56169249791667,73.0,114.0
87,69.56169249791667,69.92313799791667,70.0,114.0
88,69.92313799791667,70.28458349791667,68.0,108.0
89,70.28458349791667,72.09181099791667,80.0,110.0
90,72.09181099791667,72.451750475,77.0,113.0
91,72.45325649791667,72.81470199791667,77.0,114.0
92,72.81470199791667,73.17614749791667,75.0,108.0
93,73.17614749791667,73.53759299791668,73.0,114.0
94,73.53759299791668,73.89903849791666,75.0,108.0
95,73.89903849791666,74.26048399791667,77.0,114.0
96,74.26048399791667,74.62192949791667,70.0,110.0
97,74.62192949791667,75.524037225,68.0,114.0
98,75.52554324791667,75.70626599791667,68.0,88.0
99,75.70626599791667,75.88698874791667,70.0,91.0
100,75.88698874791667,76.06771149791666,68.0,87.0
101,76.06771149791666,76.42915699791666,70.0,104.0
102,76.42915699791666,76.78909647500001,73.0,108.0
103,76.79060249791667,77.15204799791667,73.0,114.0
104,77.15204799791667,77.51349349791667,70.0,113.0
105,77.51349349791667,78.95927549791666,75.0,114.0
106,78.95927549791666,79.32072099791667,68.0,116.0
107,79.32072099791667,79.68216649791667,70.0,113.0
108,79.68216649791667,80.04361199791667,73.0,114.0
109,80.04361199791667,80.40505749791667,75.0,110.0
110,80.40505749791667,80.76650299791667,77.0,116.0
111,80.76650299791667,81.126442475,80.0,108.0
112,81.12794849791666,81.48939399791666,80.0,108.0
113,81.48939399791666,81.85083949791667,82.0,96.0
114,81.85083949791667,82.21228499791667,77.0,104.0
115,82.21228499791667,84.018006475,75.0,107.0
116,84.01951249791666,84.38095799791667,75.0,117.0
117,84.38095799791667,84.74240349791667,70.0,113.0
118,84.74240349791667,87.63396749791667,73.0,116.0
119,90.52553149791667,91.24842249791666,77.0,113.0
120,91.24842249791666,91.60836197500001,68.0,113.0
121,91.60986799791667,91.97131349791667,68.0,110.0
122,91.97131349791667,92.69420449791667,75.0,116.0
123,92.69420449791667,93.41709549791666,68.0,114.0
124,93.41709549791666,94.13848047500001,73.0,108.0
125,94.13998649791667,94.50143199791667,73.0,108.0
126,94.50143199791667,94.86287749791667,75.0,107.0
127,94.86287749791667,95.58576849791667,77.0,113.0
128,95.58576849791667,96.30865949791666,68.0,104.0
129,96.30865949791666,96.70173147916667,66.0,108.0
130,96.67010499791667,97.03155049791667,68.0,94.0
131,97.03155049791667,97.39299599791667,70.0,110.0
132,97.39299599791667,97.75444149791667,72.0,108.0
133,97.75444149791667,99.20022349791667,73.0,113.0
134,99.20022349791667,99.57221115833333,70.0,110.0
135,99.56166899791667,99.92311449791667,72.0,102.0
136,99.92311449791667,100.28455999791667,73.0,108.0
137,100.28455999791667,100.644499475,75.0,110.0
138,100.64600549791668,102.09178749791667,75.0,113.0
139,102.09178749791667,102.81467849791667,77.0,110.0
140,102.81467849791667,103.174617975,68.0,114.0
141,103.17612399791668,103.53756949791666,68.0,108.0
142,103.53756949791666,104.26046049791667,75.0,116.0
143,104.26046049791667,104.98335149791667,68.0,107.0
144,104.98335149791667,105.704736475,73.0,102.0
145,105.70624249791668,106.06768799791666,73.0,114.0
146,106.06768799791666,106.42913349791667,75.0,107.0
147,106.42913349791667,107.15202449791667,77.0,113.0
148,107.15202449791667,109.32069749791667,68.0,113.0
149,109.32069749791667,109.68214299791667,66.0,104.0
150,109.68214299791667,110.06166077291667,68.0,94.0
151,110.04358849791667,110.46075684583333,70.0,107.0
152,110.40503399791668,110.76647949791666,72.0,107.0
153,110.76647949791666,112.21226149791667,73.0,113.0
154,112.21226149791667,112.93515249791668,70.0,114.0
155,112.93515249791668,113.65804349791667,72.0,116.0
156,113.65804349791667,114.38093449791667,73.0,116.0
157,114.38093449791667,115.10382549791667,75.0,117.0
158,115.10382549791667,116.06617414166666,73.0,117.0
159,120.88695349791666,121.60984449791667,80.0,116.0
160,121.60984449791667,122.33273549791667,71.0,116.0
161,122.33273549791667,122.69418099791667,73.0,114.0
162,122.69418099791667,123.054120475,76.0,108.0
163,123.05562649791668,123.77851749791667,76.0,110.0
164,123.77851749791667,124.138456975,80.0,116.0
165,124.13996299791667,124.499902475,80.0,113.0
166,124.50140849791667,124.861347975,80.0,116.0
167,124.86285399791667,125.22429949791668,80.0,113.0
168,125.22429949791668,125.59327511250001,78.0,96.0
169,125.58574499791666,125.94568447500001,76.0,107.0
170,125.94719049791667,126.67008149791667,76.0,110.0
171,126.67008149791667,127.39297249791667,71.0,98.0
172,127.39297249791667,127.75441799791668,68.0,113.0
173,127.75441799791668,128.11586349791668,71.0,108.0
174,128.11586349791668,128.47730899791668,73.0,107.0
175,128.47730899791668,128.837248475,76.0,108.0
176,128.83875449791668,129.56164549791666,76.0,110.0
177,129.56164549791666,129.740862225,73.0,114.0
178,129.74236824791666,130.10381374791666,73.0,110.0
179,130.10381374791666,130.28453649791666,76.0,114.0
180,130.28453649791666,130.64598199791666,73.0,114.0
181,130.64598199791666,131.00742749791667,71.0,108.0
182,131.00742749791667,132.81465499791668,83.0,110.0
183,132.81465499791668,133.174594475,80.0,113.0
184,133.17610049791668,133.53754599791668,80.0,114.0
185,133.53754599791668,133.89899149791668,78.0,108.0
186,133.89899149791668,134.26043699791666,76.0,114.0
187,134.26043699791666,134.62188249791666,78.0,108.0
188,134.62188249791666,134.98332799791666,80.0,114.0
189,134.98332799791666,135.34477349791666,73.0,110.0
190,135.34477349791666,136.246881225,71.0,114.0
191,136.24838724791667,136.42910999791667,71.0,88.0
192,136.42910999791667,136.60983274791667,73.0,91.0
193,136.60983274791667,136.79055549791667,71.0,87.0
194,136.79055549791667,137.15200099791667,73.0,104.0
195,137.15200099791667,137.51194047500002,76.0,108.0
196,137.51344649791668,137.87489199791668,76.0,114.0
197,137.87489199791668,138.23633749791668,73.0,113.0
198,138.23633749791668,139.68211949791666,78.0,114.0
199,139.68211949791666,140.04356499791666,71.0,116.0
200,140.04356499791666,140.40501049791666,73.0,113.0
201,140.40501049791666,140.76645599791667,76.0,114.0
202,140.76645599791667,141.12790149791667,78.0,110.0
203,141.12790149791667,141.48934699791667,80.0,116.0
204,141.48934699791667,141.849286475,83.0,108.0
205,141.85079249791667,142.21223799791667,83.0,108.0
206,142.21223799791667,142.57368349791668,85.0,96.0
207,142.57368349791668,142.93512899791668,80.0,104.0
208,142.93512899791668,144.740850475,78.0,107.0
209,144.74235649791666,145.10380199791666,78.0,117.0
210,145.10380199791666,145.46524749791666,73.0,113.0
211,145.46524749791666,148.71825699791668,76.0,116.0
212,148.71825699791668,149.07970249791666,71.0,119.0
213,149.07970249791666,149.44566606666666,73.0,113.0
214,149.44114799791666,149.7559067875,75.0,114.0
215,149.80259349791666,150.16403899791666,76.0,113.0
216,150.16403899791666,150.52548449791666,78.0,113.0
217,150.52548449791666,150.88692999791667,80.0,113.0
218,150.88692999791667,151.24837549791667,81.0,116.0
219,151.24837549791667,154.50138499791666,83.0,116.0
220,154.50138499791666,154.86283049791666,71.0,119.0
221,154.86283049791666,155.27397475416666,73.0,113.0
222,155.22427599791666,155.6293961625,75.0,108.0
223,155.58572149791667,155.94716699791667,76.0,106.0
224,155.94716699791667,156.36282932291667,78.0,114.0
225,156.30861249791667,156.67005799791667,80.0,116.0
226,156.67005799791667,157.03150349791667,81.0,113.0
227,157.03150349791667,158.84673477708333,83.0,119.0
228,158.84673477708333,159.23550462708332,81.0,119.0
229,159.21699177708334,159.60434588125,80.0,116.0
230,159.60434588125,159.99342538124998,78.0,117.0
231,159.99342538124998,160.8181963770833,80.0,113.0
232,160.8181963770833,161.2340588145833,71.0,113.0
233,161.23584452708332,161.66441552708332,71.0,110.0
234,161.66441552708332,162.39262062916663,78.0,116.0
235,162.39262062916663,163.11551162916663,71.0,114.0
236,163.11551162916663,163.83689660624995,76.0,108.0
237,163.83840262916664,164.19984812916664,76.0,108.0
238,164.19984812916664,164.56129362916664,78.0,107.0
239,164.56129362916664,165.28418462916662,80.0,113.0
240,165.28418462916662,166.00707562916662,71.0,104.0
241,166.00707562916662,166.40014761041664,69.0,108.0
242,166.36852112916662,166.72996662916663,71.0,94.0
243,166.72996662916663,167.09141212916663,73.0,110.0
244,167.09141212916663,167.45285762916663,75.0,108.0
245,167.45285762916663,168.89863962916664,76.0,113.0
246,168.89863962916664,169.2706272895833,73.0,110.0
247,169.26008512916664,169.62153062916664,75.0,102.0
248,169.62153062916664,169.98297612916662,76.0,108.0
249,169.98297612916662,170.34291560624996,78.0,110.0
250,170.34442162916662,171.79020362916663,78.0,113.0
251,171.79020362916663,172.51309462916663,80.0,110.0
252,172.51309462916663,172.87303410624997,71.0,114.0
253,172.87454012916663,173.23598562916663,71.0,108.0
254,173.23598562916663,173.95887662916664,78.0,116.0
255,173.95887662916664,174.68176762916664,71.0,107.0
256,174.68176762916664,175.40315260624996,76.0,102.0
257,175.40465862916662,175.76610412916662,76.0,114.0
258,175.76610412916662,176.12754962916662,78.0,107.0
259,176.12754962916662,176.85044062916663,80.0,113.0
260,176.85044062916663,186.20284294166663,71.0,113.0
261,186.20284294166663,186.56428844166663,69.0,104.0
262,186.56428844166663,186.94380621666664,71.0,94.0
263,186.92573394166664,187.3429022895833,73.0,107.0
264,187.28717944166664,187.64862494166664,75.0,107.0
265,187.64862494166664,189.09440694166662,76.0,113.0
266,189.09440694166662,189.86247862916662,73.0,114.0
267,189.86247862916662,190.67573100416664,75.0,116.0
268,190.67573100416664,191.44380269166663,76.0,116.0
269,191.44380269166663,192.61850056666663,78.0,117.0
270,192.61850056666663,194.0191018791666,76.0,117.0
