,start,end,pitch,velocity
0,0.8870474979166667,1.2710833416666667,49.0,90.0
1,1.2484929979166668,1.6099384979166667,56.0,88.0
2,1.6099384979166667,2.0331309375,53.0,89.0
3,1.9713839979166667,2.3373475666666668,56.0,86.0
4,2.332829497916667,2.7018051125,49.0,81.0
5,2.6942749979166667,3.05873254375,56.0,87.0
6,3.0557204979166666,3.417165997916667,53.0,83.0
7,3.417165997916667,3.7786114979166667,56.0,86.0
8,3.7786114979166667,4.146081089583333,49.0,84.0
9,4.140056997916667,4.5165627270833335,56.0,86.0
10,4.5015024979166665,4.90210459375,54.0,86.0
11,4.862947997916667,5.24095975,56.0,87.0
12,5.224393497916667,5.5858389979166665,49.0,81.0
13,5.5858389979166665,5.947284497916667,56.0,88.0
14,5.947284497916667,6.343368525,54.0,84.0
15,6.308729997916667,6.67318754375,56.0,84.0
16,6.6701754979166665,7.07077759375,49.0,83.0
17,7.031620997916667,7.411138772916667,56.0,85.0
18,7.393066497916667,7.772584272916667,53.0,86.0
19,7.754511997916667,8.14607795625,56.0,85.0
20,8.115957497916668,8.477402997916666,49.0,87.0
21,8.477402997916666,8.853908727083333,56.0,86.0
22,8.838848497916667,9.204812066666667,53.0,83.0
23,9.200293997916667,9.615956322916666,56.0,84.0
24,9.561739497916667,9.924691020833334,49.0,81.0
25,9.923184997916668,10.304208795833334,56.0,84.0
26,10.284630497916666,10.683726570833334,54.0,83.0
27,10.646075997916666,11.039147979166668,56.0,87.0
28,11.007521497916667,11.368966997916667,49.0,83.0
29,11.368966997916667,11.730412497916667,56.0,82.0
30,11.730412497916667,12.102400158333333,54.0,82.0
31,12.091857997916668,12.489448047916667,56.0,87.0
32,12.453303497916666,12.816255020833333,49.0,84.0
33,12.814748997916666,13.176194497916667,56.0,85.0
34,13.176194497916667,13.537639997916667,53.0,81.0
35,13.537639997916667,13.902097543750001,56.0,84.0
36,13.899085497916667,14.260530997916668,49.0,82.0
37,14.260530997916668,14.621976497916666,56.0,82.0
38,14.621976497916666,14.983421997916667,53.0,83.0
39,14.983421997916667,15.36143375,56.0,85.0
40,15.344867497916667,15.710831066666668,49.0,85.0
41,15.706312997916667,16.087336795833334,56.0,86.0
42,16.067758497916667,16.45028831875,54.0,85.0
43,16.429203997916666,16.790649497916668,56.0,86.0
44,16.790649497916668,17.171673295833333,49.0,82.0
45,17.152094997916667,17.52558868125,56.0,86.0
46,17.51354049791667,17.874985997916667,54.0,83.0
47,17.874985997916667,18.23944354375,56.0,87.0
48,18.236431497916666,18.603901089583335,49.0,83.0
49,18.597876997916668,18.959322497916666,56.0,83.0
50,18.959322497916666,19.33281618125,53.0,80.0
51,19.32076799791667,19.691249635416668,56.0,83.0
52,19.682213497916667,20.052695135416666,49.0,81.0
53,20.043658997916665,20.411128589583335,56.0,86.0
54,20.405104497916668,20.766549997916666,53.0,82.0
55,20.766549997916666,21.127995497916668,56.0,82.0
56,21.127995497916668,21.499983158333333,49.0,86.0
57,21.489440997916667,21.85088649791667,56.0,84.0
58,21.85088649791667,22.212331997916667,54.0,81.0
59,22.212331997916667,22.58733170416667,56.0,85.0
60,22.573777497916666,22.935222997916668,49.0,86.0
61,22.935222997916668,23.29968054375,56.0,86.0
62,23.296668497916666,23.685222410416667,54.0,83.0
63,23.65811399791667,24.712330039583335,56.0,85.0
64,24.381004997916666,24.712330039583335,56.0,79.0
65,24.019559497916667,25.146064639583333,49.0,89.0
66,24.742450497916668,25.439739108333335,68.0,86.0
67,24.742450497916668,25.502992070833333,65.0,87.0
68,25.46534149791667,26.921665658333335,54.0,86.0
69,26.18823249791667,26.93823191041667,66.0,85.0
70,26.18823249791667,26.95028009375,70.0,86.0
71,25.826786997916667,26.957810208333335,61.0,82.0
72,27.272568997916668,27.99545999791667,56.0,75.0
73,26.911123497916666,28.027086479166666,49.0,82.0
74,27.634014497916667,28.343351291666668,61.0,78.0
75,27.634014497916667,28.412628345833333,65.0,81.0
76,27.634014497916667,28.417146414583335,68.0,86.0
77,28.356905497916667,29.346362554166667,54.0,87.0
78,29.079796497916668,29.61744667916667,70.0,87.0
79,28.718350997916666,29.62497679375,61.0,84.0
80,29.079796497916668,29.656603275000002,66.0,85.0
81,30.52557849791667,31.180698466666666,68.0,86.0
82,30.52557849791667,31.210818925,65.0,82.0
83,30.164132997916667,31.212324947916667,60.0,70.0
84,29.80268749791667,31.2921441625,53.0,87.0
85,31.248469497916666,32.403589075,46.0,81.0
86,31.971360497916667,32.56322750416667,70.0,86.0
87,31.60991499791667,32.58732387083334,61.0,81.0
88,31.971360497916667,32.59485398541667,65.0,86.0
89,32.69425149791667,33.77557595208334,42.0,86.0
90,33.05569699791667,33.94575654166667,58.0,77.0
91,33.417142497916664,34.0933467875,66.0,86.0
92,33.417142497916664,34.10840701666667,61.0,85.0
93,34.14003349791667,35.140032714583334,44.0,87.0
94,34.50147899791667,35.44274332083334,51.0,81.0
95,34.862924497916666,36.04364646458333,68.0,90.0
96,34.862924497916666,36.11894761041667,63.0,88.0
97,35.58581549791667,36.519549706250004,44.0,87.0
98,37.03159749791667,38.0873195625,46.0,89.0
99,37.393042997916666,38.0873195625,53.0,76.0
100,37.75448849791667,38.43370483333334,68.0,91.0
101,38.477379497916665,39.78008932083333,53.0,84.0
102,39.20027049791667,39.83430614583333,68.0,78.0
103,39.20027049791667,39.84183626041667,65.0,78.0
104,38.83882499791667,39.849366375,60.0,74.0
105,40.28460699791667,40.897558325,58.0,84.0
106,41.007497997916666,41.30719655833333,58.0,85.0
107,40.64605249791667,41.33430497083334,66.0,88.0
108,39.92316149791667,41.34635315416667,54.0,94.0
109,40.64605249791667,41.39002781875,61.0,87.0
110,41.36894349791667,42.22285849166667,75.0,91.0
111,41.37948565833334,42.2439428125,56.0,88.0
112,41.36894349791667,42.2439428125,68.0,91.0
113,41.36894349791667,42.255990995833336,72.0,93.0
114,42.81472549791667,43.05117109583333,75.0,88.0
115,42.81472549791667,43.09936382916667,72.0,44.0
116,42.63400274791667,43.121954172916666,68.0,69.0
117,43.537616497916666,44.355386941666666,56.0,84.0
118,44.26050749791667,44.78008540416667,68.0,89.0
119,43.89906199791667,44.896049168750004,60.0,77.0
120,44.621952997916665,45.38701263958333,56.0,83.0
121,43.17617099791667,45.39002468541667,51.0,44.0
122,42.81472549791667,45.42165116666667,44.0,86.0
123,44.98339849791667,46.00900010416667,63.0,91.0
124,45.34484399791667,46.10689159375,68.0,86.0
125,46.42918049791667,47.24393889583334,56.0,83.0
126,46.79062599791667,47.24544491875,58.0,82.0
127,47.152071497916666,47.57676996041667,63.0,96.0
128,45.70628949791667,47.97436001041667,44.0,92.0
129,46.067734997916666,47.99695035416667,51.0,84.0
130,47.87496249791667,48.243938112500004,60.0,87.0
131,47.51351699791667,48.323757327083335,56.0,84.0
132,48.236407997916665,48.504480077083336,68.0,84.0
133,48.59785349791667,48.992431502083335,49.0,89.0
134,48.95929899791667,49.33128665833333,56.0,85.0
135,49.32074449791667,49.69122613541667,53.0,84.0
136,49.682189997916666,50.076768002083334,56.0,87.0
137,50.04363549791667,50.41411713541667,49.0,84.0
138,50.40508099791667,50.74845422291667,56.0,84.0
139,50.766526497916665,50.99694800416667,53.0,87.0
140,51.12797199791667,51.341827252083334,56.0,84.0
141,51.48941749791667,51.87495936458333,49.0,83.0
142,51.85086299791667,52.2559831625,56.0,85.0
143,52.212308497916666,52.63399491458333,54.0,83.0
144,52.57375399791667,52.94423563541667,56.0,85.0
145,52.93519949791667,53.307187158333335,49.0,83.0
146,53.296644997916665,53.64303026875,56.0,85.0
147,53.65809049791667,54.0722468,54.0,82.0
148,54.01953599791667,54.35688513125,56.0,85.0
149,54.38098149791667,54.783089616666665,49.0,86.0
150,54.74242699791667,55.08730624583333,56.0,84.0
151,55.10387249791667,55.46079992916667,53.0,85.0
152,55.46531799791667,55.77104065,56.0,81.0
153,55.826763497916666,56.1957391125,49.0,78.0
154,56.18820899791667,56.55266654375,56.0,82.0
155,56.54965449791667,56.88549760833334,53.0,74.0
156,56.921642158333334,57.11140104583333,56.0,78.0
157,57.283087658333336,57.6415211125,49.0,79.0
158,57.63399099791667,57.9848943375,56.0,80.0
159,57.99543649791667,58.17917129375,54.0,76.0
160,58.356881997916666,58.73941181875,56.0,83.0
161,58.71832749791667,59.0511585625,49.0,74.0
162,59.07977299791667,59.41109803958334,56.0,82.0
163,59.441218497916665,59.784591722916666,54.0,73.0
164,59.80266399791667,60.1535673375,56.0,83.0
165,60.52555499791667,61.326759189583335,56.0,81.0
166,60.16410949791667,61.3463374875,49.0,88.0
167,60.88700049791667,61.403566358333336,63.0,89.0
168,60.88700049791667,61.6174216125,68.0,86.0
169,61.24844599791667,61.65808423125,65.0,83.0
170,61.971336997916666,62.445734216666665,61.0,82.0
171,61.60989149791667,63.06019156666667,54.0,86.0
172,62.33278249791667,63.14001078125,70.0,91.0
173,62.69422799791667,63.17916737708334,61.0,84.0
174,62.33278249791667,63.3342877375,66.0,92.0
175,63.77856449791667,64.11591363125,68.0,96.0
176,63.055673497916665,64.16410636458333,49.0,87.0
177,63.41711899791667,64.19422682291666,56.0,86.0
178,64.14000999791666,64.61892528541667,61.0,86.0
179,63.77856449791667,64.67464813333333,65.0,91.0
180,64.86290099791667,65.25747900208333,61.0,84.0
181,64.50145549791667,65.68217746458333,54.0,86.0
182,65.22434649791667,65.69422564791667,70.0,90.0
183,65.22434649791667,65.83880384791667,66.0,91.0
184,65.58579199791667,65.86741828333334,61.0,87.0
185,66.30868299791666,66.70326100208334,60.0,89.0
186,66.67012849791666,67.01952581458333,68.0,93.0
187,65.94723749791667,67.36892313125,53.0,88.0
188,66.67012849791666,67.39753756666667,65.0,98.0
189,67.03157399791667,67.40205563541667,60.0,88.0
190,67.39301949791667,68.5029583875,46.0,89.0
191,67.75446499791667,68.511994525,53.0,81.0
192,68.11591049791667,68.53307884583333,58.0,89.0
193,68.47735599791667,68.85988581875,61.0,91.0
194,69.20024699791666,69.88398140208334,61.0,84.0
195,68.83880149791666,69.88849947083334,54.0,86.0
196,69.56169249791667,70.27102929166666,66.0,102.0
197,71.36891999791666,71.83879914791667,60.0,82.0
198,71.00747449791668,71.8824738125,56.0,87.0
199,71.73036549791667,72.42916013125,68.0,88.0
200,70.28458349791667,72.78156949375,44.0,90.0
201,70.64602899791667,72.81470199791667,51.0,70.0
202,72.09181099791667,72.94873803750001,56.0,81.0
203,72.45325649791667,72.99843679375,60.0,84.0
204,72.81470199791667,73.11741260416667,63.0,87.0
205,73.89903849791666,74.22885751666666,61.0,86.0
206,73.53759299791668,74.27554422708333,56.0,71.0
207,73.17614749791667,74.30566468541667,49.0,87.0
208,74.25295388333333,74.68819450625,65.0,87.0
209,74.62192949791667,75.64753110416667,44.0,85.0
210,74.98337499791667,76.0390970625,51.0,76.0
211,75.34482049791667,76.07524161250001,56.0,84.0
212,75.70626599791667,76.14301264375,60.0,81.0
213,76.06771149791666,76.45325336458333,66.0,91.0
214,76.06771149791666,76.84030125416668,58.0,88.0
215,76.06771149791666,77.05716855416667,42.0,89.0
216,76.42915699791666,77.0692167375,54.0,80.0
217,76.79060249791667,77.18969857083333,61.0,104.0
218,77.15204799791667,77.44120439791666,58.0,94.0
219,77.51349349791667,78.31469768958334,43.0,87.0
220,77.51349349791667,78.31770973541667,58.0,88.0
221,77.51349349791667,78.32825189583333,55.0,89.0
222,77.51349349791667,78.36289042291666,63.0,98.0
223,77.51349349791667,78.37644462916667,67.0,87.0
224,78.95927549791666,79.64903399375,68.0,91.0
225,78.95927549791666,79.82674469791667,60.0,92.0
226,80.04361199791667,80.45325023125,58.0,86.0
227,79.68216649791667,80.51650319375,56.0,88.0
228,80.40505749791667,80.74843072291667,60.0,88.0
229,80.04361199791667,80.75294879166667,63.0,82.0
230,79.32072099791667,81.21228578125,51.0,81.0
231,78.95927549791666,81.50445422708333,44.0,92.0
232,81.12794849791666,81.51198434166668,68.0,89.0
233,81.12794849791666,81.53909275416667,60.0,87.0
234,80.76650299791667,81.55264696041667,56.0,87.0
235,81.48939399791666,81.70324925208334,51.0,83.0
236,81.85083949791667,82.15656215,63.0,102.0
237,81.85083949791667,82.28005602916667,68.0,93.0
238,81.85083949791667,82.752947225,60.0,94.0
239,82.93517599791667,83.2137902375,63.0,96.0
240,82.93517599791667,83.26047694791667,58.0,90.0
241,82.57373049791667,83.38698287291668,56.0,83.0
242,82.21228499791667,83.50746470625,51.0,73.0
243,83.29662149791668,83.63547665416667,60.0,104.0
244,83.29662149791668,83.66860915833334,63.0,94.0
245,83.65806699791666,84.1174039875,56.0,100.0
246,84.01951249791666,84.3342712875,60.0,108.0
247,81.85083949791667,84.35083753958334,44.0,93.0
248,84.01951249791666,84.37342788333333,68.0,100.0
249,83.65806699791666,84.39300618125,51.0,66.0
250,84.01951249791666,84.63999393958333,63.0,107.0
251,84.38095799791667,84.72884929166666,56.0,81.0
252,84.74240349791667,85.65957145416667,49.0,91.0
253,84.74240349791667,85.73035453125,65.0,104.0
254,84.74240349791667,85.74240271458333,61.0,107.0
255,85.82673999791668,87.01198003333333,66.0,102.0
256,86.91107649791667,87.32824484583334,56.0,76.0
257,85.82673999791668,87.37493155625,49.0,89.0
258,85.82673999791668,87.60083499375,61.0,100.0
259,87.63396749791667,88.52101499583334,68.0,94.0
260,87.63396749791667,88.67764137916667,61.0,91.0
261,88.71830399791666,89.44721908958334,66.0,94.0
262,88.71830399791666,89.50143591458334,61.0,94.0
263,89.44119499791667,89.89902596458333,56.0,81.0
264,87.63396749791667,90.13697758541667,49.0,86.0
265,89.80264049791667,90.43517012291667,61.0,104.0
266,89.80264049791667,90.49541103958333,65.0,107.0
267,91.24842249791666,91.59781981458333,61.0,83.0
268,90.88697699791668,91.62944629583333,56.0,72.0
269,90.52553149791667,91.67914505208334,49.0,87.0
270,91.60986799791667,91.99089179583333,65.0,82.0
271,91.97131349791667,93.10534875416667,44.0,87.0
272,92.69420449791667,93.38095094791667,56.0,80.0
273,92.33275899791667,93.39902322291667,51.0,68.0
274,93.05564999791667,93.53908335416666,60.0,85.0
275,93.41709549791666,94.50745608958334,46.0,84.0
276,93.77854099791666,94.51950427291666,53.0,82.0
277,94.13998649791667,94.74992577916667,58.0,84.0
278,94.50143199791667,94.86438352083334,61.0,86.0
279,95.22432299791667,95.78004545416667,60.0,81.0
280,94.86287749791667,95.81769602708333,53.0,83.0
281,95.94721399791666,96.29510529166667,68.0,87.0
282,95.58576849791667,96.30112938333333,65.0,86.0
283,96.30865949791666,97.42311645625,42.0,87.0
284,97.03155049791667,97.4547429375,58.0,84.0
285,96.67010499791667,97.45624896041667,54.0,80.0
286,97.39299599791667,97.74540536041667,61.0,86.0
287,98.47733249791666,98.79962140208333,61.0,84.0
288,98.11588699791668,98.83275390625,56.0,69.0
289,97.75444149791667,98.89299482291666,49.0,88.0
290,98.83877799791667,99.632452075,63.0,88.0
291,99.56166899791667,100.26648772291666,49.0,80.0
292,99.20022349791667,100.2740178375,42.0,86.0
293,99.92311449791667,100.27552386041667,54.0,87.0
294,100.28455999791667,100.8523306375,58.0,86.0
295,101.18817374791666,101.39148684166668,58.0,87.0
296,101.36889649791667,101.74540222708333,63.0,113.0
297,100.64600549791668,101.74690825,43.0,86.0
298,101.00745099791666,101.79058291458334,55.0,86.0
299,101.73034199791667,102.02552248958334,67.0,113.0
300,102.45323299791667,102.87040134583333,56.0,83.0
301,103.17612399791668,103.27250946458334,56.0,87.0
302,102.09178749791667,103.29509980833333,49.0,91.0
303,102.63395574791667,103.427629825,68.0,94.0
304,102.63395574791667,103.46678642083333,61.0,92.0
305,103.53756949791666,103.95323182291666,68.0,89.0
306,103.53756949791666,103.98034023541668,63.0,92.0
307,103.53756949791666,103.99088239583334,60.0,87.0
308,103.89901499791667,104.33274959791667,56.0,81.0
309,104.26046049791667,104.61286986041667,60.0,89.0
310,103.53756949791666,104.64449634166667,44.0,88.0
311,104.26046049791667,104.65052043333334,68.0,91.0
312,104.26046049791667,104.89901421458333,63.0,100.0
313,104.62190599791667,104.9637732,56.0,84.0
314,104.98335149791667,105.51347156458334,70.0,91.0
315,104.98335149791667,105.53304986250001,65.0,94.0
316,104.98335149791667,105.54057997708334,61.0,88.0
317,105.34479699791667,105.72582079583334,58.0,81.0
318,105.70624249791668,106.10533857083334,70.0,89.0
319,105.70624249791668,106.13696505208334,61.0,88.0
320,105.70624249791668,106.14449516666667,65.0,89.0
321,104.98335149791667,106.15353130416666,46.0,86.0
322,106.06768799791666,106.16859153333334,58.0,84.0
323,107.15202449791667,109.31467340625001,56.0,76.0
324,106.79057899791667,109.31617942916667,51.0,74.0
325,107.51346999791667,109.34931193333334,60.0,77.0
326,107.87491549791667,109.35081795625,68.0,80.0
327,106.42913349791667,109.37190227708334,44.0,87.0
328,109.32069749791667,110.32069671458333,42.0,92.0
329,109.68214299791667,110.41256411250001,54.0,84.0
330,110.04358849791667,110.54358810625,58.0,92.0
331,110.40503399791668,110.81467223125,61.0,92.0
332,110.76647949791666,111.60382823958334,41.0,87.0
333,111.12792499791667,111.76045462291667,53.0,80.0
334,111.48937049791667,111.92009305208333,60.0,86.0
335,111.85081599791667,112.26798434583334,65.0,87.0
336,112.57370699791667,113.2318390125,58.0,78.0
337,112.21226149791667,113.27400765416667,51.0,87.0
338,113.29659799791666,114.11135639583334,70.0,88.0
339,112.93515249791668,114.52250065208334,63.0,84.0
340,113.65804349791667,114.66858487500001,44.0,87.0
341,114.01948899791667,114.704729425,51.0,85.0
342,114.74237999791667,114.92762081666667,60.0,87.0
343,114.38093449791667,115.05713878750001,56.0,88.0
344,115.10382549791667,115.76346353541668,66.0,100.0
345,115.10382549791667,115.84930684166667,59.0,98.0
346,115.10382549791667,115.91707787291666,63.0,100.0
347,115.82671649791666,116.33575224375001,54.0,78.0
348,116.18816199791667,116.95623368541666,66.0,96.0
349,116.18816199791667,117.1535226875,63.0,95.0
350,116.18816199791667,117.16858291666667,59.0,91.0
351,117.27249849791667,117.57671512708333,66.0,92.0
352,117.27249849791667,117.59026933333334,59.0,88.0
353,117.27249849791667,117.59328137916667,63.0,89.0
354,116.91105299791667,117.61436570000001,54.0,80.0
355,115.10382549791667,117.668582525,47.0,93.0
356,117.99538949791668,119.01797905833334,68.0,93.0
357,117.99538949791668,119.04207542500001,61.0,90.0
358,117.99538949791668,119.04207542500001,64.0,107.0
359,117.99538949791668,119.60080992708333,49.0,86.0
360,119.07972599791667,119.9005084875,68.0,90.0
361,119.07972599791667,119.94870122083334,64.0,110.0
362,119.07972599791667,119.95171326666667,61.0,93.0
363,119.80261699791667,120.30111058333334,49.0,89.0
364,120.16406249791667,120.5149658375,68.0,100.0
365,120.16406249791667,120.51948390625,61.0,100.0
366,120.16406249791667,120.53906220416667,64.0,110.0
367,120.88695349791666,121.48936266458334,52.0,98.0
368,120.88695349791666,121.53002528333333,40.0,93.0
369,120.88695349791666,121.7619528125,68.0,103.0
370,120.88695349791666,121.79207327083334,64.0,114.0
371,120.88695349791666,121.80261543125,59.0,98.0
372,121.60984449791667,122.02249477708334,52.0,93.0
373,121.60984449791667,122.07219353333333,40.0,87.0
374,121.97128999791667,122.35080777291667,59.0,96.0
375,121.97128999791667,122.35381981875,64.0,110.0
376,121.97128999791667,122.38695232291667,68.0,100.0
377,123.05562649791668,123.41405995208333,61.0,108.0
378,123.05562649791668,123.41405995208333,64.0,116.0
379,122.33273549791667,123.42159006666667,45.0,102.0
380,123.05562649791668,123.44116836458333,69.0,104.0
381,122.69418099791667,123.45472257083334,52.0,86.0
382,123.41707199791666,123.51345746458334,57.0,93.0
383,123.77851749791667,124.30411949583333,68.0,113.0
384,123.77851749791667,124.30713154166666,64.0,116.0
385,123.77851749791667,124.32068574791667,59.0,98.0
386,123.77851749791667,124.57972168958334,52.0,94.0
387,124.50140849791667,124.9246009375,59.0,107.0
388,124.50140849791667,125.04508277083333,68.0,113.0
389,124.50140849791667,125.09026345833334,64.0,116.0
390,124.86285399791667,125.17460074166667,52.0,94.0
391,125.22429949791668,125.68815455625,69.0,110.0
392,125.22429949791668,125.72580512916667,61.0,102.0
393,125.22429949791668,125.728817175,64.0,117.0
394,125.22429949791668,126.07821449166667,45.0,87.0
395,125.22429949791668,126.090262675,57.0,87.0
396,125.94719049791667,126.32520225,64.0,116.0
397,125.94719049791667,126.343274525,61.0,104.0
398,125.94719049791667,126.34628657083334,69.0,107.0
399,126.30863599791667,126.36887691458334,45.0,83.0
400,126.30863599791667,126.49086477083334,57.0,91.0
401,126.67008149791667,127.14899678541667,66.0,94.0
402,126.67008149791667,127.17158712916667,59.0,100.0
403,126.67008149791667,127.18212928958334,63.0,106.0
404,126.67008149791667,127.47128568958334,47.0,92.0
405,127.39297249791667,127.76797220416667,59.0,108.0
406,127.39297249791667,127.79056254791666,66.0,110.0
407,127.75441799791668,127.951707,47.0,91.0
408,127.39297249791667,127.98182745833334,63.0,116.0
409,128.11586349791668,128.65200765625,68.0,106.0
410,128.11586349791668,128.67761004583335,64.0,114.0
411,128.11586349791668,128.70773050416668,61.0,98.0
412,128.11586349791668,128.9908628125,49.0,91.0
413,128.83875449791668,129.21074215833335,64.0,117.0
414,128.83875449791668,129.22279034166667,68.0,100.0
415,128.83875449791668,129.23483852500001,61.0,107.0
416,129.20019999791668,129.50140458125,49.0,87.0
417,129.56164549791666,130.02851260208334,69.0,107.0
418,129.56164549791666,130.05863306041667,64.0,116.0
419,129.56164549791666,130.07068124375002,61.0,108.0
420,129.56164549791666,130.4005002625,57.0,89.0
421,129.56164549791666,130.4185725375,45.0,89.0
422,130.28453649791666,130.61887358541668,64.0,117.0
423,130.28453649791666,130.65200608958332,61.0,108.0
424,130.64598199791666,130.76043973958335,45.0,92.0
425,130.28453649791666,130.83875293125,69.0,102.0
426,131.00742749791667,131.566162,59.0,102.0
427,131.00742749791667,131.59477643541666,66.0,102.0
428,131.00742749791667,131.59628245833335,69.0,94.0
429,131.00742749791667,131.61284871041667,63.0,106.0
430,131.73031849791667,131.98784841666668,59.0,114.0
431,131.73031849791667,132.02098092083332,63.0,113.0
432,131.36887299791667,132.08875195208333,54.0,89.0
433,131.00742749791667,132.2619445875,47.0,92.0
434,132.09176399791667,132.50893234583333,69.0,98.0
435,132.09176399791667,132.65652259166666,66.0,100.0
436,132.81465499791668,132.921582625,63.0,100.0
437,132.81465499791668,133.02700422916666,59.0,107.0
438,132.45320949791667,133.03302832083332,54.0,98.0
439,133.17610049791668,133.40652200416667,54.0,110.0
440,132.45320949791667,133.54658213541666,47.0,107.0
441,133.17610049791668,133.60983509791666,69.0,116.0
442,133.53754599791668,133.65200373958334,63.0,93.0
443,133.53754599791668,133.75140125208333,59.0,108.0
444,133.89899149791668,134.41254531250001,64.0,110.0
445,133.89899149791668,134.44417179375,61.0,98.0
446,133.89899149791668,134.47128020625001,68.0,97.0
447,133.89899149791668,134.68965352916666,49.0,91.0
448,134.62188249791666,134.88844855416667,61.0,96.0
449,134.62188249791666,134.90200276041668,64.0,110.0
450,134.62188249791666,134.97127981458334,68.0,95.0
451,134.98332799791666,135.33272531458334,49.0,88.0
452,135.34477349791666,135.84326708333333,71.0,92.0
453,135.34477349791666,135.87489356458335,63.0,86.0
454,135.34477349791666,135.92760436666666,66.0,96.0
455,135.34477349791666,136.15953189583334,47.0,86.0
456,136.06766449791667,136.39898953958334,63.0,95.0
457,136.06766449791667,136.40200158541668,66.0,104.0
458,136.06766449791667,136.40501363125,71.0,96.0
459,136.42910999791667,136.78754345208333,47.0,75.0
460,136.79055549791667,137.26796476250001,69.0,96.0
461,136.79055549791667,137.3221815875,61.0,100.0
462,136.79055549791667,137.36284420625,64.0,110.0
463,136.79055549791667,137.620374125,45.0,87.0
464,137.51344649791668,137.91254257083332,64.0,110.0
465,137.51344649791668,137.91404859375,61.0,100.0
466,137.51344649791668,137.91706063958333,69.0,91.0
467,137.87489199791668,138.15953032916667,45.0,91.0
468,138.23633749791668,139.62790267291666,46.0,86.0
469,138.23633749791668,139.65049301666667,58.0,89.0
470,138.23633749791668,139.65350506250002,70.0,109.0
471,138.23633749791668,139.65651710833333,64.0,107.0
472,139.68211949791666,140.10681796041666,66.0,93.0
473,139.68211949791666,140.11886614375,63.0,97.0
474,139.68211949791666,140.12790228125002,59.0,91.0
475,140.04356499791666,140.51645619375,54.0,76.0
476,140.40501049791666,140.70320303541666,59.0,91.0
477,140.40501049791666,140.72579337916667,66.0,100.0
478,140.40501049791666,140.73934758541668,63.0,103.0
479,141.12790149791667,141.48332290625,71.0,100.0
480,141.12790149791667,141.48633495208333,63.0,88.0
481,141.12790149791667,141.53603370833335,66.0,98.0
482,141.48934699791667,141.92759966666668,59.0,77.0
483,141.85079249791667,142.21525004375002,71.0,96.0
484,140.76645599791667,142.22880425,54.0,72.0
485,139.68211949791666,142.23332231875,47.0,94.0
486,141.85079249791667,142.27097289166667,63.0,88.0
487,141.85079249791667,142.31615357916667,66.0,98.0
488,142.21223799791667,142.5812136125,59.0,82.0
489,142.57368349791668,142.86585194375002,66.0,94.0
490,142.57368349791668,142.86886398958333,71.0,94.0
491,142.57368349791668,142.95922536458335,63.0,90.0
492,142.57368349791668,144.22277859166667,47.0,88.0
493,142.93512899791668,144.37639292916668,54.0,81.0
494,143.29657449791668,144.40801941041667,59.0,87.0
495,144.38091099791666,144.95018766041667,54.0,86.0
496,143.65801999791668,144.95470572916668,63.0,106.0
497,143.65801999791668,144.99687437083332,66.0,108.0
498,144.38091099791666,145.10530802083335,47.0,84.0
499,145.10380199791666,145.20319951041668,63.0,95.0
500,144.74235649791666,145.26494645,59.0,98.0
501,145.46524749791666,145.82819902083332,64.0,89.0
502,145.46524749791666,145.82970504375,68.0,103.0
503,145.46524749791666,145.83723515833333,71.0,89.0
504,145.82669299791667,146.27699385,59.0,76.0
505,146.18813849791667,146.46374069166666,64.0,91.0
506,146.18813849791667,146.511933425,71.0,93.0
507,146.18813849791667,146.53151172291666,68.0,103.0
508,147.27247499791667,147.53602900833334,68.0,85.0
509,146.91102949791667,148.03301657083333,64.0,88.0
510,145.46524749791666,148.1474743125,52.0,88.0
511,146.54958399791667,148.32367899375,59.0,84.0
512,147.63392049791668,148.53452220208334,76.0,96.0
513,147.63392049791668,148.55711254583335,68.0,76.0
514,149.07970249791666,149.909521125,64.0,82.0
515,149.44114799791666,150.37488220625,68.0,97.0
516,150.16403899791666,150.79958066875,64.0,79.0
517,150.52548449791666,150.84777340208333,76.0,89.0
518,150.52548449791666,150.85982158541668,71.0,93.0
519,150.52548449791666,150.86433965416668,68.0,88.0
520,148.71825699791668,150.8673517,59.0,68.0
521,148.35681149791668,150.91855647916668,52.0,84.0
522,151.24837549791667,151.60982099791667,47.0,100.0
523,151.60982099791667,151.97126649791667,47.0,100.0
524,151.97126649791667,152.33120597500002,71.0,102.0
525,151.97126649791667,152.33271199791668,47.0,100.0
526,151.97126649791667,152.41403723541666,63.0,95.0
527,151.97126649791667,152.44716973958333,66.0,102.0
528,152.33271199791668,152.69415749791668,47.0,100.0
529,152.33271199791668,152.77096466666666,59.0,86.0
530,152.69415749791668,153.04656686041668,71.0,104.0
531,152.69415749791668,153.05560299791668,47.0,100.0
532,152.69415749791668,153.08722947916667,63.0,97.0
533,152.69415749791668,153.090241525,66.0,104.0
534,153.05560299791668,153.41704849791668,47.0,100.0
535,151.60982099791667,153.44566293333332,54.0,82.0
536,153.05560299791668,153.77246990625,59.0,87.0
537,153.41704849791668,153.77246990625,71.0,107.0
538,153.41704849791668,153.77849399791668,47.0,100.0
539,153.41704849791668,153.82969877708334,66.0,107.0
540,153.41704849791668,153.83271082291668,63.0,100.0
541,153.77849399791668,154.09626483333335,54.0,81.0
542,153.77849399791668,154.13993949791666,47.0,100.0
543,154.13993949791666,154.50138499791666,47.0,100.0
544,154.13993949791666,154.60379455625,71.0,116.0
545,154.13993949791666,154.6173487625,66.0,114.0
546,154.13993949791666,154.62186683125,63.0,97.0
547,154.50138499791666,154.86283049791666,47.0,100.0
548,154.13993949791666,155.09475802708334,59.0,98.0
549,154.86283049791666,155.22427599791666,47.0,100.0
550,154.86283049791666,155.31614339583334,71.0,108.0
551,154.86283049791666,155.33722771666666,63.0,90.0
552,154.86283049791666,155.34776987708335,66.0,107.0
553,155.22427599791666,155.58572149791667,47.0,100.0
554,155.58572149791667,155.94716699791667,47.0,100.0
555,155.58572149791667,155.9908416625,71.0,114.0
556,155.58572149791667,156.00740791458333,63.0,103.0
557,155.58572149791667,156.00740791458333,66.0,116.0
558,155.22427599791666,156.01493802916667,59.0,88.0
559,155.94716699791667,156.30861249791667,47.0,100.0
560,155.94716699791667,156.40047989583334,54.0,84.0
561,156.30861249791667,156.67005799791667,47.0,100.0
562,156.30861249791667,156.67005799791667,71.0,110.0
563,156.30861249791667,156.68511822708334,66.0,114.0
564,156.30861249791667,156.70017845625,63.0,100.0
565,156.67005799791667,156.97728667291668,54.0,87.0
566,156.67005799791667,157.03150349791667,47.0,100.0
567,157.03150349791667,157.99385214166668,71.0,113.0
568,157.03150349791667,158.05710510416668,63.0,100.0
569,157.03150349791667,158.0691532875,66.0,117.0
570,157.03150349791667,158.56749928958334,59.0,100.0
571,157.03150349791667,158.66160627708334,47.0,100.0
572,158.47728549791668,158.95472640208334,71.0,114.0
573,158.47728549791668,159.03186327708332,63.0,95.0
574,158.47728549791668,159.04111970208334,66.0,110.0
575,159.21699177708334,159.72431206041665,71.0,114.0
576,159.21699177708334,159.7324178833333,63.0,103.0
577,159.21699177708334,159.79888563125,66.0,117.0
578,158.84673477708333,160.10145437708331,59.0,87.0
579,159.99342538124998,160.5166823145833,71.0,108.0
580,159.99342538124998,160.5769851270833,68.0,113.0
581,159.99342538124998,160.6028291895833,64.0,102.0
582,160.4046913770833,160.9060661895833,59.0,81.0
583,159.99342538124998,161.0008277520833,52.0,94.0
584,160.8181963770833,161.2572730770833,71.0,110.0
585,160.8181963770833,161.2947730395833,68.0,119.0
586,161.23584452708332,161.3429872770833,52.0,91.0
587,160.8181963770833,161.45905858958332,64.0,104.0
588,161.66441552708332,162.07936786249996,71.0,104.0
589,161.66441552708332,162.1185244583333,63.0,91.0
590,161.66441552708332,162.15165696249997,66.0,108.0
591,162.03117512916663,162.38960858333328,59.0,82.0
592,161.66441552708332,162.51460848541663,47.0,86.0
593,162.39262062916663,162.7058733958333,66.0,108.0
594,162.39262062916663,162.7239456708333,63.0,97.0
595,162.39262062916663,162.73599385416662,71.0,102.0
596,162.75406612916663,162.9724394520833,47.0,82.0
597,163.11551162916663,163.62153532916662,68.0,88.0
598,163.11551162916663,163.6320774895833,61.0,92.0
599,163.11551162916663,163.63358351249997,71.0,91.0
600,163.11551162916663,163.67876419999996,64.0,107.0
601,163.11551162916663,163.88810138541663,49.0,83.0
602,163.83840262916664,164.22996858749997,61.0,100.0
603,163.83840262916664,164.24352279374997,71.0,100.0
604,163.83840262916664,164.24502881666663,68.0,91.0
605,163.83840262916664,164.34743837499997,64.0,102.0
606,164.19984812916664,164.3865949708333,49.0,86.0
607,164.56129362916664,164.93177526666662,64.0,108.0
608,164.56129362916664,164.9423174270833,59.0,91.0
609,164.56129362916664,164.96340174791663,68.0,95.0
610,164.56129362916664,165.38659418749995,52.0,100.0
611,165.28418462916662,165.65466626666662,64.0,108.0
612,165.28418462916662,165.6652084270833,59.0,91.0
613,165.28418462916662,165.68629274791664,68.0,95.0
614,165.64563012916662,165.9634009645833,52.0,87.0
615,166.00707562916662,166.48147284791662,69.0,93.0
616,166.00707562916662,166.5146053520833,61.0,92.0
617,166.00707562916662,166.5146053520833,64.0,93.0
618,166.00707562916662,166.81580993541664,45.0,84.0
619,166.00707562916662,166.82032800416664,57.0,90.0
620,166.72996662916663,167.10346031249998,64.0,108.0
621,166.72996662916663,167.13659281666662,61.0,102.0
622,166.72996662916663,167.15466509166663,69.0,94.0
623,167.09141212916663,167.25858067291662,57.0,88.0
624,167.09141212916663,167.30677340624996,45.0,81.0
625,167.45285762916663,167.8338814270833,71.0,102.0
626,167.45285762916663,167.91370064166662,66.0,102.0
627,167.45285762916663,167.94532712291664,63.0,88.0
628,168.17574862916663,168.5025556020833,71.0,94.0
629,168.17574862916663,168.51761583124997,63.0,90.0
630,168.17574862916663,168.52213389999997,66.0,98.0
631,167.45285762916663,168.72695301666664,47.0,88.0
632,168.89863962916664,169.38508503124996,69.0,98.0
633,168.89863962916664,169.43628981041664,61.0,100.0
634,168.89863962916664,169.44080787916664,64.0,108.0
635,168.89863962916664,169.72544621041664,45.0,92.0
636,169.62153062916664,169.98147010624996,61.0,100.0
637,169.62153062916664,169.99050624374996,64.0,104.0
638,169.62153062916664,170.00556647291663,69.0,92.0
639,169.98297612916662,170.18779524583329,45.0,89.0
640,170.34442162916662,170.78267429791663,71.0,107.0
641,170.34442162916662,170.80827668749995,63.0,91.0
642,170.34442162916662,170.9061681770833,66.0,104.0
643,170.34442162916662,171.2450233333333,47.0,92.0
644,171.06731262916662,171.41369789999996,63.0,100.0
645,171.06731262916662,171.4573725645833,71.0,102.0
646,171.06731262916662,171.6426133833333,66.0,107.0
647,171.42875812916662,171.76309521666664,47.0,89.0
648,171.79020362916663,172.27363698541663,71.0,102.0
649,171.79020362916663,172.34442006249995,64.0,93.0
650,171.79020362916663,172.34893813124995,68.0,113.0
651,171.79020362916663,172.6139981645833,52.0,91.0
652,172.51309462916663,172.95435934374996,71.0,104.0
653,172.51309462916663,172.97544366458328,68.0,109.0
654,172.51309462916663,173.08990140624996,64.0,107.0
655,172.87454012916663,173.13960016249996,52.0,89.0
656,173.24050369791664,173.73749126041662,71.0,102.0
657,173.23598562916663,173.83688877291664,63.0,96.0
658,173.24050369791664,173.84441888749996,66.0,110.0
659,173.24050369791664,174.0371898208333,59.0,89.0
660,173.23598562916663,174.05225004999997,47.0,86.0
661,173.95435856041664,174.31580406041664,66.0,107.0
662,173.95887662916664,174.37905702291664,63.0,92.0
663,174.31580406041664,174.53718942916663,47.0,83.0
664,174.68176762916664,175.18779132916663,64.0,113.0
665,174.68176762916664,175.19682746666663,61.0,98.0
666,174.68176762916664,175.24953826874997,68.0,106.0
667,174.68176762916664,175.51610432499996,49.0,85.0
668,175.40465862916662,175.88357391666662,61.0,107.0
669,175.40465862916662,175.89110403124997,64.0,116.0
670,175.40465862916662,175.93327267291664,68.0,106.0
671,175.76610412916662,176.11851349166662,49.0,84.0
672,176.12754962916662,177.15013918958329,61.0,100.0
673,176.12754962916662,177.34140409999998,64.0,114.0
674,176.12754962916662,177.3534522833333,68.0,104.0
675,176.12754962916662,177.40917513124995,57.0,85.0
676,176.12754962916662,177.43628354374997,45.0,76.0
677,179.74200462916662,180.08085978541664,64.0,80.0
678,179.38055912916664,180.1094742208333,59.0,77.0
679,179.01911362916664,180.19381150416663,52.0,88.0
680,180.10345012916662,180.54923291249997,68.0,86.0
681,180.46489562916662,181.59290679374996,47.0,82.0
682,181.18778662916662,181.62001520624997,59.0,81.0
683,180.82634112916662,181.6320633895833,54.0,78.0
684,181.54923212916663,182.1697135708333,63.0,85.0
685,182.63356862916663,182.96790571666662,61.0,81.0
686,182.27212312916663,183.01760447291662,56.0,74.0
687,181.91067762916663,183.04320686249997,49.0,82.0
688,182.99501412916663,183.41067645416663,64.0,84.0
689,183.35645962916664,185.73597583749995,47.0,81.0
690,183.71790512916664,185.75555413541662,54.0,70.0
691,184.07935062916664,185.75555413541662,59.0,80.0
692,184.44079612916664,185.78266254791663,63.0,75.0
693,186.24802362916662,187.29470955624996,45.0,88.0
694,186.60946912916663,187.5191069708333,57.0,83.0
695,186.97091462916663,187.5371792458333,61.0,85.0
696,187.33236012916663,187.7088658583333,64.0,88.0
697,188.05525112916663,188.71338314374995,59.0,76.0
698,187.69380562916663,188.8022384958333,47.0,83.0
699,188.41669662916664,188.8564553208333,63.0,85.0
700,188.77814212916664,189.09440694166662,66.0,84.0
701,189.13958762916664,190.22241810624996,45.0,86.0
702,189.86247862916662,190.33536982499996,61.0,87.0
703,189.50103312916661,190.37151437499998,57.0,81.0
704,190.22392412916662,190.62603224791664,64.0,90.0
705,190.58536962916662,191.88657342916662,47.0,86.0
706,190.94681512916662,191.94530832291662,59.0,82.0
707,191.48898337916663,191.96338059791663,63.0,103.0
708,191.85042887916663,192.68024750624997,66.0,83.0
709,193.83837912916664,194.0206079020833,68.0,85.0
710,194.38054737916661,194.8474144833333,71.0,84.0
711,194.74199287916662,195.18325759374997,80.0,81.0
712,195.10343837916662,195.59289582708328,76.0,83.0
713,195.64560662916662,196.8157864354166,83.0,84.0
714,192.93476537916663,196.8489189395833,59.0,73.0
715,193.47693362916664,196.92271406249995,64.0,81.0
716,192.57331987916663,196.9934971395833,52.0,86.0
