,start,end,pitch,velocity
0,17.592045449999997,17.937439012499997,67.0,90.0
1,17.98678095,19.80749844375,74.0,105.0
2,20.355193949999997,20.646311381249998,74.0,99.0
3,20.749929449999996,21.05256,72.0,90.0
4,21.14466495,21.440716574999996,70.0,97.0
5,21.53940045,21.812425837499998,74.0,104.0
6,21.934135949999998,22.197292949999998,72.0,92.0
7,22.328871449999998,22.641370387499997,72.0,94.0
8,22.723606949999997,22.8387381375,70.0,92.0
9,22.9209747,24.03445775625,72.0,89.0
10,24.30254895,24.631495199999996,67.0,94.0
11,24.697284449999998,26.427541724999998,72.0,95.0
12,26.67096195,26.955500456249997,75.0,93.0
13,27.06569745,27.383130581249997,74.0,105.0
14,27.460432949999998,27.764708231249998,72.0,89.0
15,27.855168449999997,28.169312118749996,72.0,92.0
16,28.249903949999997,28.506482024999997,70.0,93.0
17,28.644639449999996,28.939046343749997,70.0,95.0
18,29.039374949999996,29.138058824999998,72.0,90.0
19,29.236742699999997,30.022924237499996,74.0,91.0
20,30.223581449999998,30.572264474999997,67.0,90.0
21,30.618316949999997,31.93903614375,74.0,104.0
22,32.9571247875,33.20712393749999,79.0,94.0
23,33.36995233125,33.6413329875,74.0,105.0
24,33.741661593749996,33.89791106249999,72.0,90.0
25,33.9373846125,34.02784483124999,70.0,95.0
26,34.162712793749996,34.427514525,74.0,105.0
27,34.532777325,34.76468443125,72.0,90.0
28,34.96040745,35.282774775,72.0,92.0
29,35.355142949999994,35.585405324999996,70.0,94.0
30,35.74987845,36.5261916,72.0,95.0
31,36.93408495,37.2005314125,67.0,92.0
32,37.328820449999995,39.096906543749995,72.0,90.0
33,39.302497949999996,39.629799468749994,75.0,94.0
34,39.69723345,39.999863999999995,74.0,95.0
35,40.28933669999999,40.48670445,69.0,92.0
36,40.48670445,40.837032206249994,69.0,90.0
37,40.881439949999994,41.073873506249996,70.0,89.0
38,41.0788077,42.499855499999995,67.0,90.0
39,42.855117449999995,43.184063699999996,74.0,105.0
40,43.24985295,43.585378125,82.0,94.0
41,43.64458844999999,43.942284806249994,81.0,91.0
42,44.039323949999996,44.361691275,79.0,99.0
43,44.43405944999999,44.69063752499999,81.0,92.0
44,44.828794949999995,45.105109799999994,79.0,99.0
45,45.22353045,45.4965558375,81.0,93.0
46,45.618265949999994,45.89458079999999,82.0,95.0
47,46.01300145,46.29425049375,82.0,89.0
48,46.40773694999999,46.66760448749999,74.0,95.0
49,46.802472449999996,47.09687934375,75.0,90.0
50,47.19720794999999,47.332075912499995,77.0,89.0
51,47.3945757,48.91430737499999,75.0,99.0
52,49.762988699999994,49.914303974999996,81.0,90.0
53,49.96035644999999,50.27778958125,79.0,92.0
54,50.355091949999995,50.6610119625,77.0,92.0
55,50.74982745,51.04094488124999,79.0,95.0
56,51.144562949999994,51.41100941249999,77.0,89.0
57,51.53929845,51.84028426875,79.0,91.0
58,51.93403394999999,52.208704068749995,77.0,91.0
59,52.328769449999996,52.896201731249995,79.0,90.0
60,53.118240449999995,53.55080476875,75.0,94.0
61,53.710343699999996,55.4965218375,74.0,99.0
62,56.07875669999999,56.182374768749995,74.0,95.0
63,56.27612445,56.565597149999995,74.0,104.0
64,56.67085994999999,56.968556306249994,72.0,90.0
65,57.065595449999996,57.358357612499994,72.0,92.0
66,57.46033094999999,57.570527943749994,71.0,92.0
67,57.6576987,58.12973656875,74.0,102.0
68,58.24980194999999,59.0491413375,72.0,89.0
69,59.236640699999995,59.35506134999999,79.0,90.0
70,59.43400844999999,59.739928462499996,81.0,95.0
71,59.828743949999996,60.085322024999996,81.0,88.0
72,60.22347944999999,60.53104419374999,81.0,90.0
73,60.618214949999995,60.922490231249995,79.0,92.0
74,61.01295044999999,61.8846580125,79.0,93.0
75,62.19715694999999,62.32709071874999,79.0,92.0
76,62.39452469999999,62.491563843749994,78.0,93.0
77,62.591892449999996,62.874786224999994,79.0,88.0
78,62.98662794999999,63.279390112499996,78.0,90.0
79,63.381363449999995,63.64287571874999,79.0,90.0
80,63.77609894999999,64.06228218749999,78.0,94.0
81,64.17083444999999,64.4372809125,79.0,90.0
82,64.56556995,64.84188479999999,78.0,94.0
83,64.96030544999999,65.24977815,79.0,95.0
84,65.35504094999999,67.368192,81.0,90.0
85,68.11818944999999,68.44713569999999,74.0,105.0
86,68.51292495,68.848450125,82.0,94.0
87,68.90766045,69.20535680625,81.0,91.0
88,69.30239594999999,69.62476327499999,79.0,99.0
89,69.69713144999999,69.953709525,81.0,92.0
90,70.09186695,70.36818179999999,79.0,99.0
91,70.48660244999999,70.75962783749999,81.0,93.0
92,70.88133794999999,71.1576528,82.0,95.0
93,71.27607345,71.55732249375,82.0,89.0
94,71.67080895,71.9306764875,74.0,95.0
95,72.06554444999999,72.35995134375,75.0,90.0
96,72.44054317499999,72.5754111375,77.0,89.0
97,72.6576477,74.17737937499999,75.0,99.0
98,75.02606069999999,75.17737597499999,81.0,90.0
99,75.22342844999999,75.54086158125,79.0,92.0
100,75.61816395,75.92408396249999,77.0,92.0
101,76.01289944999999,76.30401688124999,79.0,95.0
102,76.40763494999999,76.67408141249999,77.0,89.0
103,76.80237045,77.10335626874999,79.0,91.0
104,77.19710595,77.47177606874999,81.0,91.0
105,77.59184144999999,78.15927373125,84.0,90.0
106,77.98657694999999,78.30401008125,72.0,91.0
107,78.38131245,78.7102587,75.0,92.0
108,78.77604794999999,79.13953355624999,77.0,90.0
109,79.17078344999999,80.43064758749999,74.0,90.0
110,81.3418287,81.44544676874999,74.0,95.0
111,81.53919644999999,81.82866915,74.0,104.0
112,81.93393194999999,82.23162830624999,72.0,90.0
113,82.32866745,82.6214296125,72.0,92.0
114,82.72340295,82.83359994374999,71.0,92.0
115,82.92077069999999,83.39280856875,74.0,102.0
116,83.51287394999999,84.3122133375,72.0,89.0
117,84.49971269999999,84.61813335,79.0,90.0
118,84.69708044999999,85.0030004625,81.0,95.0
119,85.09181595,85.34839402499999,81.0,88.0
120,85.48655145,85.79411619374999,81.0,90.0
121,85.88128694999999,86.18556223124999,79.0,92.0
122,86.27602244999999,87.14773001249999,79.0,93.0
123,87.65759669999998,87.80891197499999,72.0,87.0
124,87.85496445,88.1543055375,74.0,92.0
125,88.24969995,88.545751575,72.0,89.0
126,88.64443544999999,88.940487075,72.0,92.0
127,89.03917094999998,89.3187752625,70.0,95.0
128,89.43390645,89.7628527,70.0,93.0
129,89.82864194999999,90.02600969999999,69.0,90.0
130,90.02600969999999,90.57206047499999,69.0,90.0
131,90.61811295,91.34672889375,74.0,99.0
132,91.40758394999999,93.34343263125,67.0,92.0
133,102.85491344999998,103.20030701249999,67.0,90.0
134,103.24964895,105.07036644374999,74.0,105.0
135,105.61806194999998,105.90917938124998,74.0,99.0
136,106.01279745,106.31542799999998,72.0,90.0
137,106.40753294999999,106.703584575,70.0,97.0
138,106.80226844999999,107.07529383749998,74.0,104.0
139,107.19700395,107.46016094999999,72.0,92.0
140,107.59173944999999,107.90423838749999,72.0,94.0
141,107.98647494999999,108.10160613749999,70.0,92.0
142,108.18384269999999,109.29732575624999,72.0,89.0
143,109.56541694999999,109.89436319999999,67.0,94.0
144,109.96015245,111.690409725,72.0,95.0
145,111.93382994999999,112.21836845624999,75.0,93.0
146,112.32856544999999,112.64599858124998,74.0,105.0
147,112.72330095,113.02757623125,72.0,89.0
148,113.11803644999999,113.43218011874998,72.0,92.0
149,113.51277194999999,113.769350025,70.0,93.0
150,113.90750744999998,114.20191434374999,70.0,95.0
151,114.30224295,114.40092682499998,72.0,90.0
152,114.49961069999999,115.28579223749999,74.0,91.0
153,115.48644945,115.835132475,67.0,90.0
154,115.88118494999999,117.20190414374999,74.0,104.0
155,118.21999278749999,118.46999193749998,79.0,94.0
156,118.63282033124999,118.90420098749999,74.0,105.0
157,119.00452959375,119.16077906249998,72.0,90.0
158,119.2002526125,119.29071283124999,70.0,95.0
159,119.42558079374999,119.69038252499999,74.0,105.0
160,119.795645325,120.02755243124999,72.0,90.0
161,120.22327544999999,120.54564277499999,72.0,92.0
162,120.61801094999998,120.848273325,70.0,94.0
163,121.01274645,121.78905959999999,72.0,95.0
164,122.19695294999998,122.46339941249998,67.0,92.0
165,124.56536594999999,124.89266746874999,75.0,94.0
166,124.96010144999998,125.26273199999999,74.0,95.0
167,125.55220469999999,125.74957244999999,69.0,92.0
168,125.74957244999999,126.09990020624998,69.0,90.0
169,126.14430794999998,126.33674150625,70.0,89.0
170,126.34167569999998,127.10318626875,67.0,90.0
171,128.11798545,128.4469317,74.0,105.0
172,128.51272095,128.84824612499997,82.0,94.0
173,128.90745644999998,129.20515280625,81.0,91.0
174,129.30219194999998,129.624559275,79.0,99.0
175,129.69692744999998,129.953505525,81.0,92.0
176,130.09166295,130.36797779999998,79.0,99.0
177,130.48639845,130.75942383749998,81.0,93.0
178,130.88113395,131.1574488,82.0,95.0
179,131.27586945,131.55711849374998,82.0,89.0
180,131.67060494999998,131.9304724875,74.0,95.0
181,132.06534044999998,132.35974734374997,75.0,90.0
182,132.46007594999998,132.59494391249999,77.0,89.0
183,132.6574437,134.177175375,75.0,99.0
184,135.0258567,135.177171975,81.0,90.0
185,135.22322444999998,135.54065758124997,79.0,92.0
186,135.61795995,135.9238799625,77.0,92.0
187,136.01269545,136.30381288125,79.0,95.0
188,136.40743095,136.6738774125,77.0,89.0
189,136.74953505,137.10315226875,79.0,91.0
190,137.19690194999998,137.47157206875,77.0,91.0
191,137.59163744999998,138.15906973124999,79.0,90.0
192,138.38110845,138.81367276875,75.0,94.0
193,138.97321169999998,140.75938983749998,74.0,99.0
194,141.34162469999998,141.44524276874998,74.0,95.0
195,141.53899245,141.82846515,74.0,104.0
196,141.93372795,142.23142430624998,72.0,90.0
197,142.32846345,142.62122561249998,72.0,92.0
198,142.72319894999998,142.83339594375,71.0,92.0
199,142.9205667,143.39260456875,74.0,102.0
200,143.51266994999997,144.31200933749997,72.0,89.0
201,144.49950869999998,144.61792935,79.0,90.0
202,144.69687645,145.0027964625,81.0,95.0
203,145.09161195,145.34819002499998,81.0,88.0
204,145.48634744999998,145.79391219374997,81.0,90.0
205,145.88108294999998,146.18535823124998,79.0,92.0
206,146.27581844999997,147.14752601249998,79.0,93.0
207,147.46002495,147.58995871874998,79.0,92.0
208,147.65739269999997,147.75443184374998,78.0,93.0
209,147.85476045,148.13765422499998,79.0,88.0
210,148.24949594999998,148.54225811249998,78.0,90.0
211,148.64423144999998,148.90574371875,79.0,90.0
212,149.03896694999997,149.3251501875,78.0,94.0
213,149.43370245,149.7001489125,79.0,90.0
214,149.82843795,150.10475279999997,78.0,94.0
215,150.22317345,150.51264615,79.0,95.0
216,150.61790895,152.63106,81.0,90.0
217,153.38105745,153.7100037,74.0,105.0
218,153.77579294999998,154.111318125,82.0,94.0
219,154.17052844999998,154.46822480625,81.0,91.0
220,154.56526394999997,154.887631275,79.0,99.0
221,154.93368374999997,155.216577525,81.0,92.0
222,155.3152614,155.63104979999997,79.0,99.0
223,156.14420594999999,156.4205208,82.0,95.0
224,156.53894144999998,156.82019049374998,82.0,89.0
225,156.93367694999998,157.1935444875,74.0,95.0
226,157.32841244999997,157.62281934375,75.0,90.0
227,157.72314795,157.85801591249998,77.0,89.0
228,157.92051569999998,159.44024737499998,75.0,99.0
229,160.28892869999999,160.440243975,81.0,90.0
230,160.48629645,160.80372958125,79.0,92.0
231,160.88103195,161.1869519625,77.0,92.0
232,161.27576745,161.56688488125,79.0,95.0
233,161.67050294999999,161.93694941249998,77.0,89.0
234,162.06523844999998,162.36622426875,79.0,91.0
235,162.45997394999998,162.73464406875,81.0,91.0
236,162.85470944999997,163.42214173124998,84.0,90.0
237,163.24944495,163.56687808125,72.0,91.0
238,163.64418045,163.9731267,75.0,92.0
239,164.03891595,164.40240155624997,77.0,90.0
240,164.43365144999999,165.69351558749997,74.0,90.0
241,166.60469669999998,166.70831476874997,74.0,95.0
242,166.80206445,167.09153715,74.0,104.0
243,167.19679994999998,167.49449630624997,72.0,90.0
244,167.59153544999998,167.88429761249998,72.0,92.0
245,167.98627094999998,168.09646794374999,71.0,92.0
246,168.1836387,168.65567656874998,74.0,102.0
247,168.77574195,169.5750813375,72.0,89.0
248,169.76258069999997,169.88100135,79.0,90.0
249,169.95994844999998,170.26586846249998,81.0,95.0
250,170.35468394999998,170.61126202499997,81.0,88.0
251,170.74941944999998,171.05698419375,81.0,90.0
252,171.14415494999997,171.44843023124997,79.0,92.0
253,171.53889045,172.41059801249997,79.0,93.0
254,172.9204647,173.07177997499997,72.0,87.0
255,173.11783244999998,173.4171735375,74.0,92.0
256,173.51256794999998,173.808619575,72.0,89.0
257,173.90730344999997,174.203355075,72.0,92.0
258,174.30203895,174.5816432625,70.0,95.0
259,174.69677445,175.0257207,70.0,93.0
260,175.09150995,175.28887769999997,69.0,90.0
261,175.28887769999997,175.83492847499997,69.0,90.0
262,175.88098094999998,176.60959689375,74.0,99.0
263,176.67045194999997,178.60630063124998,67.0,92.0
264,201.53878844999997,201.86773469999997,74.0,105.0
265,201.93352395,202.26904912499998,82.0,94.0
266,202.32825945,202.62595580624998,81.0,91.0
267,202.72299495,203.04536227499997,79.0,99.0
268,203.11773044999998,203.37430852499998,81.0,92.0
269,203.51246594999998,203.78878079999998,79.0,99.0
270,203.90720144999997,204.1802268375,81.0,93.0
271,204.30193694999997,204.57825179999998,82.0,95.0
272,204.69667245,204.97792149375,82.0,89.0
273,205.09140795,205.35127548749998,74.0,95.0
274,205.48614345,205.78055034374998,75.0,90.0
275,205.88087894999998,206.0157469125,77.0,89.0
276,206.0782467,207.59797837499997,75.0,99.0
277,208.44665969999997,208.59797497499997,81.0,90.0
278,208.64402744999998,208.96146058124998,79.0,92.0
279,209.03876294999998,209.34468296249997,77.0,92.0
280,209.43349844999997,209.72461588124997,79.0,95.0
281,209.82823394999997,210.09468041249997,77.0,89.0
282,210.22296944999997,210.52395526874997,79.0,91.0
283,210.61770495,210.89237506874997,77.0,91.0
284,211.01244044999999,211.57987273125,79.0,90.0
285,211.80191144999998,212.23447576874997,75.0,94.0
286,212.39401469999999,214.1801928375,74.0,99.0
287,214.7624277,214.86604576874998,74.0,95.0
288,214.95979544999997,215.24926814999998,74.0,104.0
289,215.35453094999997,215.65222730624998,72.0,90.0
290,215.74926644999996,216.0420286125,72.0,92.0
291,216.14400195,216.25419894374997,71.0,92.0
292,216.34136969999997,216.81340756874997,74.0,102.0
293,216.93347294999998,217.73281233749998,72.0,89.0
294,217.92031169999998,218.03873234999998,79.0,90.0
295,218.11767944999997,218.42359946249996,81.0,95.0
296,218.51241494999996,218.768993025,81.0,88.0
297,218.90715045,219.21471519374998,81.0,90.0
298,219.30188594999998,219.60616123124998,79.0,92.0
299,219.69662144999998,220.5683290125,79.0,93.0
300,220.88082794999997,221.01076171875,79.0,92.0
301,221.07819569999998,221.17523484375,78.0,93.0
302,221.27556344999996,221.55845722499998,79.0,88.0
303,221.67029895,221.9630611125,78.0,90.0
304,222.06503444999998,222.32654671874997,79.0,90.0
305,222.45976994999998,222.74595318749996,78.0,94.0
306,222.85450544999998,223.12095191249998,79.0,90.0
307,223.24924094999997,223.52555579999998,78.0,94.0
308,223.64397644999997,223.93344914999997,79.0,95.0
309,224.03871194999996,226.05186299999997,81.0,90.0
310,226.80186044999996,227.13080669999997,74.0,105.0
311,227.19659595,227.53212112499997,82.0,94.0
312,227.59133144999998,227.88902780624997,81.0,91.0
313,227.98606694999998,228.30843427499997,79.0,99.0
314,228.38080244999998,228.63738052499997,81.0,92.0
315,228.77553794999997,229.05185279999998,79.0,99.0
316,229.17027344999997,229.44329883749998,81.0,93.0
317,229.56500894999996,229.84132379999997,82.0,95.0
318,229.95974445,230.24099349374998,82.0,89.0
319,230.35447994999998,230.61434748749997,74.0,95.0
320,230.74921544999998,231.04362234374997,75.0,90.0
321,231.14395094999998,231.2788189125,77.0,89.0
322,231.3413187,232.861050375,75.0,99.0
323,233.70973169999996,233.86104697499997,81.0,90.0
324,233.90709944999998,234.22453258124997,79.0,92.0
325,234.30183494999997,234.60775496249997,77.0,92.0
326,234.69657044999997,234.98768788124997,79.0,95.0
327,235.09130594999996,235.3577524125,77.0,89.0
328,235.48604145,235.78702726874997,79.0,91.0
329,235.88077694999998,236.15544706874996,81.0,91.0
330,236.27551244999998,236.84294473125,84.0,90.0
331,236.67024794999998,236.98768108124997,72.0,91.0
332,237.06498344999997,237.39392969999997,75.0,92.0
333,237.45971894999997,237.82320455624998,77.0,90.0
334,237.85445444999996,239.11431858749998,74.0,90.0
335,240.02549969999998,240.12911776874998,74.0,95.0
336,240.22286744999997,240.51234014999997,74.0,104.0
337,240.61760294999996,240.91529930624998,72.0,90.0
338,241.01233845,241.30510061249998,72.0,92.0
339,241.40707394999998,241.51727094374996,71.0,92.0
340,241.60444169999997,242.07647956875,74.0,102.0
341,242.19654494999997,242.99588433749997,72.0,89.0
342,243.18338369999998,243.30180434999997,79.0,90.0
343,243.38075144999996,243.6866714625,81.0,95.0
344,243.77548695,244.03206502499998,81.0,88.0
345,244.17022244999998,244.47778719374998,81.0,90.0
346,244.56495794999998,244.86923323124998,79.0,92.0
347,244.95969344999997,245.83140101249998,79.0,93.0
348,246.34126769999997,246.49258297499998,72.0,87.0
349,246.53863545,246.83797653749997,74.0,92.0
350,246.93337094999998,247.22942257499997,72.0,89.0
351,247.32810644999998,247.62415807499997,72.0,92.0
352,247.72284194999997,248.00244626249997,70.0,95.0
353,248.11757744999997,248.44652369999997,70.0,93.0
354,248.51231294999997,248.70968069999998,69.0,90.0
355,248.70968069999998,249.25573147499998,69.0,90.0
356,249.30178395,250.03039989374997,74.0,99.0
357,250.09125494999998,252.02710363125,67.0,92.0
358,252.43993117499997,252.61756214999997,79.0,92.0
359,252.63236473124996,252.73762753124998,77.0,92.0
360,252.84124559999998,253.1932180875,79.0,95.0
361,253.30177034999997,253.55999315625,74.0,97.0
362,253.68005853749997,253.99255747499998,72.0,95.0
363,254.10275446874996,254.41525340624997,70.0,92.0
364,254.49420050624997,254.94321213749998,70.0,90.0
365,255.00406719374996,255.20143494374997,69.0,89.0
366,255.308342475,257.78859719999997,69.0,91.0
367,258.12905656875,259.374118125,74.0,93.0
368,259.426749525,261.75239951249995,67.0,86.0
