,start,end,pitch,velocity
0,3.3749885249999996,3.5312379937499996,57.0,87.0
1,3.7286057437499998,5.427613125,58.0,62.0
2,2.5822280624999996,5.54767850625,43.0,89.0
3,3.8190659624999994,5.572349474999999,62.0,88.0
4,3.6726848812499995,5.624980874999999,55.0,69.0
5,2.97202936875,5.917743037499999,50.0,74.0
6,6.4983331687499994,6.674319412499999,58.0,75.0
7,6.138137025,8.098656674999999,50.0,77.0
8,5.7401120625,8.103590868749999,41.0,87.0
9,6.794384793749999,8.319050662499999,53.0,78.0
10,6.9374764125,8.509839487499999,62.0,88.0
11,6.868397699999999,8.532865724999999,58.0,73.0
12,9.27792898125,9.633190931249999,46.0,72.0
13,9.526283399999999,9.638125124999998,51.0,75.0
14,8.879904018749999,9.639769856249998,39.0,91.0
15,9.595362112499998,9.659506631249998,55.0,88.0
16,9.62332254375,9.697335449999999,58.0,82.0
17,9.67101975,9.77628255,63.0,89.0
18,10.432530318749999,11.054238731249999,60.0,77.0
19,10.35687268125,11.085488624999998,55.0,73.0
20,10.499964299999998,11.230224974999999,63.0,84.0
21,11.2664090625,11.317395731249999,55.0,76.0
22,10.46871440625,11.322329924999998,36.0,87.0
23,11.611802625,11.80423618125,55.0,81.0
24,11.233514437499998,11.9966697375,60.0,89.0
25,11.945683068749998,12.2795635125,57.0,73.0
26,12.009827587499998,12.894692999999998,63.0,77.0
27,12.024630168749999,12.940745474999998,45.0,89.0
28,12.414431474999999,13.2071919375,57.0,88.0
29,12.8420616,13.585480124999998,60.0,91.0
30,13.587124856249998,13.692387656249998,38.0,90.0
31,13.513111949999999,13.731861206249999,57.0,74.0
32,13.59370378125,14.008176056249999,62.0,84.0
33,14.787778668749999,15.1052118,60.0,88.0
34,14.388108974999998,16.48185185625,57.0,85.0
35,15.203895674999998,16.595338312499997,66.0,88.0
36,13.98514981875,16.70553530625,50.0,84.0
37,16.62658820625,18.2927009625,62.0,73.0
38,16.74829831875,18.29763515625,66.0,73.0
39,16.853561118749997,18.29763515625,74.0,88.0
40,16.8650742375,18.309148275,69.0,53.0
41,19.164408525,19.37328939375,57.0,76.0
42,18.782830875,21.295980224999997,50.0,69.0
43,18.38151645,21.36012474375,43.0,87.0
44,19.50486789375,21.476900662499997,58.0,72.0
45,19.567367681249998,21.608479162499997,62.0,89.0
46,19.445657568749997,21.639729056249998,55.0,76.0
47,22.261437468749996,22.419331668749997,55.0,85.0
48,21.896307131249998,24.499916699999996,50.0,74.0
49,21.481834856249996,24.541034981249997,43.0,86.0
50,22.544331243749998,24.619982081249997,55.0,83.0
51,24.539390249999997,24.619982081249997,55.0,73.0
52,22.634791462499997,24.629850468749996,60.0,82.0
53,22.69729125,24.629850468749996,64.0,88.0
54,24.651231974999998,25.531163193749997,39.0,81.0
55,24.577219068749997,25.539386849999996,58.0,75.0
56,24.63971885625,25.55089996875,63.0,78.0
57,25.07392790625,25.560768356249998,46.0,62.0
58,25.471952868749998,25.774583418749998,55.0,76.0
59,26.14958214375,27.113394656249998,53.0,65.0
60,26.233463437499996,27.113394656249998,57.0,77.0
61,26.608462162499997,27.3650385375,48.0,83.0
62,26.243331825,27.401222625,41.0,89.0
63,27.034447556249997,27.453854025,60.0,91.0
64,27.417669937499998,27.547603706249998,65.0,93.0
65,27.758129306249998,28.307469543749995,53.0,76.0
66,27.823918556249996,28.680823537499997,58.0,77.0
67,27.892997268749998,28.754836443749998,62.0,82.0
68,27.830497481249996,28.795954724999998,46.0,84.0
69,28.22358825,28.805823112499997,50.0,75.0
70,28.634771062499997,28.86996763125,53.0,81.0
71,29.338716037499996,29.529504862499998,57.0,67.0
72,29.424242062499996,30.087068756249998,62.0,88.0
73,29.797596056249997,30.180818437499997,45.0,78.0
74,29.424242062499996,30.195621018749996,38.0,90.0
75,29.4768734625,30.228515643749997,66.0,81.0
76,30.225226181249997,30.327199518749996,57.0,89.0
77,31.791010331249996,32.0163385125,57.0,87.0
78,32.08541722499999,32.24495615625,55.0,75.0
79,32.14298281875,32.25482454375,58.0,74.0
80,32.2071273375,32.462060681249994,62.0,90.0
81,33.371597062499994,33.53771491875,55.0,80.0
82,33.36337340625,33.559096425,58.0,86.0
83,33.365018137499995,33.646267181249996,62.0,86.0
84,31.368314399999996,33.71534589375,50.0,71.0
85,30.98509201875,33.916003106249995,43.0,91.0
86,34.91599970625,35.054157131249994,60.0,82.0
87,35.221919718749994,35.8189571625,55.0,74.0
88,35.27784058125,35.9998776,60.0,88.0
89,35.341985099999995,36.0821141625,64.0,90.0
90,34.511395818749996,36.61994128124999,48.0,83.0
91,36.48342858749999,36.634743862499995,60.0,89.0
92,36.48836278125,36.63967805625,55.0,89.0
93,34.12652870625,36.66105956249999,43.0,90.0
94,37.203820875,37.572240674999996,51.0,75.0
95,37.2926363625,37.667635087499995,58.0,77.0
96,37.294281093749994,37.7367138,55.0,76.0
97,37.3057942125,38.070594243749994,39.0,89.0
98,37.68572713125,38.10677833125,46.0,74.0
99,38.085396825,38.200528012499994,63.0,90.0
100,38.78111814375,39.271248056249995,60.0,69.0
101,38.881446749999995,39.397892362499995,66.0,74.0
102,39.2663138625,39.845259262499994,45.0,73.0
103,38.89295986875,39.8715749625,38.0,92.0
104,39.657759899999995,40.642953918749996,62.0,84.0
105,40.86663736875,41.31071480625,50.0,82.0
106,40.46367821249999,41.37321459375,43.0,89.0
107,41.2531492125,41.388017174999995,55.0,79.0
108,41.251504481249995,41.47189846875,58.0,83.0
109,41.24985975,41.54097718124999,62.0,84.0
110,41.92091009999999,42.116633118749995,62.0,78.0
111,42.055778062499996,42.14952774375,38.0,92.0
112,42.05742279374999,42.455447756249995,74.0,89.0
113,42.00972558749999,42.465316143749995,69.0,77.0
114,41.966962575,42.4768292625,66.0,77.0
115,42.83373594374999,43.11334025625,60.0,95.0
116,42.623210343749996,43.157748,57.0,89.0
117,42.42913205625,43.32880005,50.0,77.0
118,43.21860305625,43.573865006249996,54.0,88.0
119,43.02452476875,43.624851674999995,66.0,97.0
120,43.4176155375,43.65116737499999,57.0,77.0
121,43.64458844999999,44.25149428125,62.0,85.0
122,43.64458844999999,44.46859880624999,55.0,86.0
123,44.039323949999996,44.629782468749994,50.0,73.0
124,44.43405944999999,44.85840011249999,58.0,93.0
125,44.828794949999995,45.3978719625,50.0,76.0
126,45.22353045,45.62648960625,67.0,88.0
127,45.22353045,45.67254208124999,55.0,91.0
128,45.618265949999994,46.13635629375,50.0,72.0
129,43.64458844999999,46.302474149999995,43.0,89.0
130,46.01300145,46.371552862499996,58.0,88.0
131,46.01300145,46.39622383125,62.0,88.0
132,46.40773694999999,46.874840625,55.0,94.0
133,46.802472449999996,47.266286662499994,63.0,97.0
134,47.19720794999999,47.59358818125,55.0,79.0
135,47.591943449999995,47.820561093749994,62.0,92.0
136,47.98667895,48.200494012499995,55.0,88.0
137,48.381414449999994,48.532729724999996,55.0,94.0
138,48.381414449999994,48.682400268749994,63.0,90.0
139,48.77614995,49.154438137499994,55.0,79.0
140,49.17088544999999,49.290950831249994,60.0,89.0
141,46.802472449999996,49.455423956249994,48.0,89.0
142,49.565620949999996,49.68733106249999,58.0,94.0
143,49.96035644999999,50.690617124999996,57.0,84.0
144,49.96035644999999,50.820550893749996,53.0,80.0
145,50.74982745,50.86331390624999,60.0,97.0
146,51.144562949999994,51.333707043749996,57.0,88.0
147,51.53929845,51.590285118749996,53.0,71.0
148,51.53929845,51.952125993749995,65.0,88.0
149,51.53929845,51.98502061874999,57.0,82.0
150,51.53929845,51.98831008124999,60.0,83.0
151,51.93403394999999,52.225151381249994,53.0,85.0
152,50.355091949999995,52.42251913124999,48.0,81.0
153,49.96035644999999,52.461992681249995,41.0,90.0
154,52.328769449999996,52.735018068749994,60.0,91.0
155,52.72350494999999,52.855083449999995,53.0,88.0
156,53.118240449999995,53.440607775,58.0,75.0
157,53.118240449999995,53.95869811874999,62.0,86.0
158,53.51297595,54.08040823125,53.0,67.0
159,53.118240449999995,54.090276618749996,46.0,88.0
160,53.907711449999994,54.38632824374999,58.0,93.0
161,54.30244695,54.588630187499994,62.0,89.0
162,54.69718244999999,55.20540440625,58.0,80.0
163,54.69718244999999,55.36000914374999,62.0,83.0
164,55.091917949999996,55.585337325,53.0,77.0
165,55.48665344999999,55.631389799999994,58.0,91.0
166,55.48665344999999,55.748165718749995,62.0,91.0
167,55.48665344999999,55.843560131249994,65.0,89.0
168,56.27612445,56.466913274999996,57.0,78.0
169,56.27612445,56.72184661874999,60.0,81.0
170,56.27612445,56.77283328749999,63.0,83.0
171,56.27612445,56.794214793749994,67.0,83.0
172,56.27612445,57.34684449374999,45.0,89.0
173,56.67085994999999,57.4965150375,57.0,83.0
174,57.46033094999999,57.61658041875,63.0,93.0
175,57.065595449999996,57.776119349999995,60.0,87.0
176,57.855066449999995,57.96690817499999,38.0,90.0
177,57.855066449999995,58.1741443125,57.0,86.0
178,57.855066449999995,58.261315068749994,62.0,88.0
179,58.24980194999999,58.80078691874999,50.0,89.0
180,58.644537449999994,58.953746925,60.0,91.0
181,58.644537449999994,59.30736414374999,66.0,90.0
182,59.43400844999999,59.84025706874999,62.0,90.0
183,59.43400844999999,59.848480724999995,43.0,88.0
184,59.43400844999999,60.09354568124999,67.0,89.0
185,60.22347944999999,60.583675593749994,41.0,89.0
186,60.22347944999999,60.66755688749999,60.0,90.0
187,60.22347944999999,60.77117495624999,65.0,91.0
188,61.01295044999999,61.657685099999995,70.0,76.0
189,61.01295044999999,61.818868762499996,63.0,80.0
190,61.01295044999999,61.845184462499994,39.0,90.0
191,61.407685949999994,61.86163177499999,46.0,77.0
192,61.80242145,62.098473074999994,67.0,87.0
193,62.591892449999996,63.213600862499995,63.0,79.0
194,62.591892449999996,63.238271831249996,60.0,72.0
195,63.381363449999995,63.78761206874999,63.0,97.0
196,63.77609894999999,64.06392691875,60.0,97.0
197,64.17083444999999,64.77774028124999,67.0,88.0
198,64.56556995,64.79583232499999,60.0,54.0
199,62.591892449999996,65.04418674374999,48.0,90.0
200,62.98662794999999,65.06556825,55.0,84.0
201,64.96030544999999,65.16918631875,63.0,94.0
202,64.96030544999999,65.18398889999999,72.0,87.0
203,64.96030544999999,65.1938572875,60.0,88.0
204,64.96030544999999,65.2070151375,67.0,90.0
205,65.74977645,65.84352613124999,38.0,94.0
206,65.74977645,66.2267485125,60.0,91.0
207,65.74977645,66.74977304999999,66.0,90.0
208,66.73661519999999,67.18233736875,62.0,90.0
209,66.53924744999999,67.22345564999999,57.0,91.0
210,66.14451195,67.24154769375,50.0,91.0
211,67.32871845,67.59023071874999,57.0,95.0
212,67.32871845,67.69220405624999,62.0,92.0
213,67.32871845,67.72509868124999,74.0,97.0
214,67.32871845,67.7399012625,66.0,81.0
215,67.72345394999999,67.86490083749999,54.0,46.0
216,67.92082169999999,68.18233396874999,57.0,92.0
217,68.11818944999999,68.374767525,60.0,104.0
218,68.11818944999999,68.55404323124999,66.0,97.0
219,68.51292495,68.82706861874999,60.0,97.0
220,67.32871845,68.85338431874999,50.0,95.0
221,68.31555719999999,68.88627894375,57.0,94.0
222,68.90766045,69.51456628125,62.0,85.0
223,68.90766045,69.73167080625,55.0,86.0
224,69.30239594999999,69.89285446874999,50.0,73.0
225,69.69713144999999,70.12147211249999,58.0,93.0
226,70.09186695,70.6609439625,50.0,76.0
227,70.48660244999999,70.88956160625,67.0,88.0
228,70.48660244999999,70.93561408125,55.0,91.0
229,70.88133794999999,71.39942829374999,50.0,72.0
230,68.90766045,71.56554614999999,43.0,89.0
231,71.27607345,71.63462486249999,58.0,88.0
232,71.27607345,71.65929583124999,62.0,88.0
233,71.67080895,72.137912625,55.0,94.0
234,72.06554444999999,72.52935866249999,63.0,97.0
235,72.46027994999999,72.85666018124999,55.0,79.0
236,72.85501545,73.08363309375,62.0,92.0
237,73.24975094999999,73.4635660125,55.0,88.0
238,73.64448644999999,73.79580172499999,55.0,94.0
239,73.64448644999999,73.94547226875,63.0,90.0
240,74.03922195,74.41751013749999,55.0,79.0
241,74.43395745,74.55402283125,60.0,89.0
242,72.06554444999999,74.71849595625,48.0,89.0
243,74.82869294999999,74.95040306249999,58.0,94.0
244,75.22342844999999,75.953689125,57.0,84.0
245,75.22342844999999,76.08362289374999,53.0,80.0
246,76.01289944999999,76.12638590625,60.0,97.0
247,76.40763494999999,76.59677904374999,57.0,88.0
248,76.80237045,76.85335711875,53.0,71.0
249,76.80237045,77.21519799375,65.0,88.0
250,76.80237045,77.24809261875,57.0,82.0
251,76.80237045,77.25138208124999,60.0,83.0
252,77.19710595,77.48822338125,53.0,85.0
253,75.61816395,77.68559113124999,48.0,81.0
254,75.22342844999999,77.72506468124999,41.0,90.0
255,77.59184144999999,77.99809006874999,60.0,91.0
256,77.98657694999999,78.11815544999999,53.0,88.0
257,78.38131245,78.703679775,58.0,75.0
258,78.38131245,79.22177011874999,62.0,86.0
259,78.77604794999999,79.34348023125,53.0,67.0
260,78.38131245,79.35334861874999,46.0,88.0
261,79.17078344999999,79.64940024375,58.0,93.0
262,79.56551895,79.8517021875,62.0,89.0
263,79.96025445,80.46847640624999,58.0,80.0
264,79.96025445,80.62308114374999,62.0,83.0
265,80.35498994999999,80.84840932499999,53.0,77.0
266,80.74972544999999,80.89446179999999,58.0,91.0
267,80.74972544999999,81.01123771875,62.0,91.0
268,80.74972544999999,81.10663213125,65.0,89.0
269,81.53919644999999,81.72998527499999,57.0,78.0
270,81.53919644999999,81.98491861874999,60.0,81.0
271,81.53919644999999,82.03590528749999,63.0,83.0
272,81.53919644999999,82.05728679375,67.0,83.0
273,81.53919644999999,82.60991649374999,45.0,89.0
274,81.93393194999999,82.7595870375,57.0,83.0
275,82.72340295,82.87965241875,63.0,93.0
276,82.32866745,83.03919135,60.0,87.0
277,83.11813844999999,83.229980175,38.0,90.0
278,83.11813844999999,83.4372163125,57.0,86.0
279,83.11813844999999,83.52438706874999,62.0,88.0
280,83.51287394999999,84.06385891874999,50.0,89.0
281,83.90760945,84.216818925,60.0,91.0
282,83.90760945,84.57043614374999,66.0,90.0
283,84.69708044999999,85.10332906874999,62.0,90.0
284,84.69708044999999,85.111552725,43.0,88.0
285,84.69708044999999,85.35661768124999,67.0,89.0
286,85.48655145,85.84674759375,41.0,89.0
287,85.48655145,85.93062888749999,60.0,90.0
288,85.48655145,86.03424695624999,65.0,91.0
289,86.27602244999999,86.92075709999999,70.0,76.0
290,86.27602244999999,87.0819407625,63.0,80.0
291,86.27602244999999,87.1082564625,39.0,90.0
292,86.67075795,87.12470377499999,46.0,77.0
293,87.06549344999999,87.361545075,67.0,87.0
294,87.85496445,88.3187786625,63.0,81.0
295,87.85496445,88.41746253749999,60.0,79.0
296,87.85496445,88.77107975624999,48.0,89.0
297,88.24969995,88.8056191125,55.0,80.0
298,88.64443544999999,88.84180319999999,60.0,86.0
299,88.64443544999999,88.99147374374999,63.0,89.0
300,88.64443544999999,89.03259202499999,67.0,84.0
301,89.43390645,89.93226001874999,62.0,82.0
302,89.43390645,89.96022045,67.0,77.0
303,89.43390645,90.5292974625,38.0,91.0
304,89.82864194999999,90.5292974625,45.0,73.0
305,90.22337744999999,90.73488886874999,62.0,90.0
306,90.22337744999999,90.78587553749999,66.0,90.0
307,91.79574052499999,91.95198999374999,57.0,87.0
308,92.14935774374999,93.84836512499999,58.0,62.0
309,91.00298006249999,93.96843050624999,43.0,89.0
310,92.23981796249998,93.99310147499999,62.0,88.0
311,92.09343688124999,94.04573287499998,55.0,69.0
312,91.39278136875,94.3384950375,50.0,74.0
313,94.91908516874999,95.09507141249999,58.0,75.0
314,94.55888902499998,96.519408675,50.0,77.0
315,94.1608640625,96.52434286875,41.0,87.0
316,95.21513679374999,96.7398026625,53.0,78.0
317,95.3582284125,96.9305914875,62.0,88.0
318,95.2891497,96.95361772499999,58.0,73.0
319,97.69868098124999,98.05394293124999,46.0,72.0
320,97.94703539999999,98.058877125,51.0,75.0
321,97.30065601874999,98.06052185624999,39.0,91.0
322,98.01611411249999,98.08025863124999,55.0,88.0
323,98.04407454374999,98.11808744999999,58.0,82.0
324,98.09177174999999,98.19703454999998,63.0,89.0
325,98.85328231874999,99.47499073124999,60.0,77.0
326,98.77762468124999,99.50624062499999,55.0,73.0
327,98.9207163,99.65097697499999,63.0,84.0
328,99.6871610625,99.73814773125,55.0,76.0
329,98.88946640625,99.74308192499998,36.0,87.0
330,100.03255462499999,100.22498818124998,55.0,81.0
331,99.65426643749998,100.41742173749999,60.0,89.0
332,101.29899768749999,101.61643081874999,60.0,88.0
333,100.89932799374999,102.99307087499999,57.0,85.0
334,101.71511469375,103.10655733124999,66.0,88.0
335,100.49636883749999,103.21510959374999,50.0,84.0
336,104.427276525,104.63615739374998,57.0,76.0
337,104.04569887499999,106.55884822499999,50.0,69.0
338,103.64438444999999,106.62299274374999,43.0,87.0
339,104.76773589374999,106.73976866249998,58.0,72.0
340,104.83023568124999,106.87134716249999,62.0,89.0
341,104.70852556874999,106.90259705624999,55.0,76.0
342,107.52430546874999,107.68219966874999,55.0,85.0
343,107.15917513125,109.76278469999998,50.0,74.0
344,106.74470285624999,109.80390298124999,43.0,86.0
345,107.80719924374999,109.88285008124998,55.0,83.0
346,109.80225825,109.88285008124998,55.0,73.0
347,107.89765946249999,109.89271846874999,60.0,82.0
348,107.96015924999999,109.89271846874999,64.0,88.0
349,109.91409997499998,110.79403119374999,39.0,81.0
350,109.84008706875,110.80225484999998,58.0,75.0
351,109.90258685624998,110.81376796874999,63.0,78.0
352,110.33679590624999,110.82363635624999,46.0,62.0
353,110.73482086874999,111.03745141875,55.0,76.0
354,111.41245014375,112.37626265624999,53.0,65.0
355,111.49633143749999,112.37626265624999,57.0,77.0
356,111.87133016249999,112.6279065375,48.0,83.0
357,111.506199825,112.66409062499999,41.0,89.0
358,112.29731555624998,112.716722025,60.0,91.0
359,112.68053793749999,112.81047170624998,65.0,93.0
360,113.02099730625,113.57033754374999,53.0,76.0
361,113.08678655624999,113.94369153749999,58.0,77.0
362,113.15586526874999,114.01770444374999,62.0,82.0
363,113.09336548124999,114.05882272499998,46.0,84.0
364,113.48645624999999,114.06869111249999,50.0,75.0
365,113.89763906249999,114.13283563124999,53.0,81.0
366,114.60158403749999,114.79237286249999,57.0,67.0
367,114.68711006249998,115.34993675624999,62.0,88.0
368,115.06046405624998,115.44368643749999,45.0,78.0
369,114.68711006249998,115.45848901874999,38.0,90.0
370,114.73974146249999,115.49138364374998,66.0,81.0
371,115.48809418124999,115.59006751874999,57.0,89.0
372,117.05387833124999,117.27920651249998,57.0,87.0
373,117.34828522499998,117.50782415625,55.0,75.0
374,117.40585081874998,117.51769254374999,58.0,74.0
375,117.4699953375,117.72492868124999,62.0,90.0
376,118.63446506249998,118.80058291874998,55.0,80.0
377,118.62624140624999,118.82196442499999,58.0,86.0
378,118.62788613749998,118.90913518125,62.0,86.0
379,116.63118239999999,118.97821389375,50.0,71.0
380,116.24796001874999,119.17887110624999,43.0,91.0
381,120.17886770624999,120.31702513124999,60.0,82.0
382,120.48478771874998,121.08182516249998,55.0,74.0
383,120.54070858124999,121.26274559999999,60.0,88.0
384,120.60485309999999,121.34498216249999,64.0,90.0
385,119.77426381874999,121.88280928124999,48.0,83.0
386,121.74629658749998,121.89761186249999,60.0,89.0
387,121.75123078124999,121.90254605624999,55.0,89.0
388,119.38939670624998,121.92392756249998,43.0,90.0
389,122.46668887499999,122.83510867499999,51.0,75.0
390,122.55550436249999,122.93050308749999,58.0,77.0
391,122.55714909374998,122.99958179999999,55.0,76.0
392,122.56866221249999,123.33346224374999,39.0,89.0
393,122.94859513124999,123.36964633124998,46.0,74.0
394,123.34826482499999,123.46339601249998,63.0,90.0
395,124.04398614374999,124.53411605624999,60.0,69.0
396,124.14431474999999,124.66076036249999,66.0,74.0
397,124.52918186249998,125.10812726249999,45.0,73.0
398,124.15582786874998,125.13444296249999,38.0,92.0
399,124.92062789999999,125.90582191875,62.0,84.0
400,126.12950536874999,126.57358280624999,50.0,82.0
401,125.72654621249998,126.63608259374999,43.0,89.0
402,126.51601721249999,126.65088517499998,55.0,79.0
403,126.51437248124999,126.73476646874998,58.0,83.0
404,126.51272774999998,126.80384518124998,62.0,84.0
405,127.18377809999998,127.37950111874999,62.0,78.0
406,127.3186460625,127.41239574374998,38.0,92.0
407,127.32029079374999,127.71831575624999,74.0,89.0
408,127.27259358749998,127.72818414374998,69.0,77.0
409,127.229830575,127.73969726249999,66.0,77.0
410,128.09660394374998,128.37620825624998,60.0,95.0
411,127.88607834374999,128.420616,57.0,89.0
412,127.69200005624998,128.59166804999998,50.0,77.0
413,128.48147105625,128.83673300625,54.0,88.0
414,128.28739276874998,128.887719675,66.0,97.0
415,128.68048353749998,128.914035375,57.0,77.0
416,128.90745644999998,129.19199495625,62.0,90.0
417,128.90745644999998,129.40909948125,70.0,89.0
418,129.69692744999998,129.85482165,62.0,85.0
419,129.69692744999998,129.940347675,67.0,85.0
420,130.09166295,130.2988990875,62.0,87.0
421,130.48639845,130.70514770625,62.0,91.0
422,130.48639845,130.92225223124998,67.0,97.0
423,130.88113395,131.15909353125,62.0,80.0
424,130.48639845,131.19198815624998,70.0,94.0
425,131.27586945,131.44856623125,67.0,95.0
426,129.30219194999998,131.46501354375,50.0,80.0
427,131.27586945,131.466658275,62.0,99.0
428,128.90745644999998,131.51928967499998,43.0,89.0
429,132.06534044999998,132.19527421875,36.0,86.0
430,132.06534044999998,132.67060155,63.0,89.0
431,132.06534044999998,132.7199434875,67.0,86.0
432,132.85481145,133.28408630624997,63.0,91.0
433,132.85481145,133.2890205,60.0,88.0
434,133.64428245,133.68704546249998,60.0,77.0
435,133.64428245,134.0357284875,72.0,90.0
436,133.64428245,134.08013623124998,67.0,91.0
437,133.64428245,134.10316246874999,63.0,92.0
438,134.03901795,134.35316161875,60.0,86.0
439,134.43375344999998,134.558753025,67.0,91.0
440,134.43375344999998,134.57026614375,63.0,91.0
441,133.24954695,134.5949371125,55.0,80.0
442,132.46007594999998,134.66401582499998,48.0,87.0
443,134.82848894999998,135.17552724375,70.0,89.0
444,135.22322444999998,135.33506617499998,41.0,89.0
445,135.22322444999998,135.89098533749998,69.0,89.0
446,135.22322444999998,135.9238799625,65.0,85.0
447,136.40743095,136.6870352625,65.0,92.0
448,135.61795995,136.7363772,53.0,87.0
449,136.01269545,136.7462455875,60.0,94.0
450,136.80216645,137.33999356874997,65.0,94.0
451,136.80216645,137.51269034999999,72.0,88.0
452,136.80216645,137.58012433124998,53.0,90.0
453,137.19690194999998,137.58341379375,60.0,79.0
454,137.59163744999998,137.74953165,65.0,88.0
455,137.59163744999998,137.88111014999998,69.0,93.0
456,138.38110845,138.65742329999998,65.0,86.0
457,138.38110845,138.81038330624997,74.0,90.0
458,138.77584395,139.38603924375,53.0,83.0
459,139.17057945,139.40742075,65.0,88.0
460,139.17057945,139.60478849999998,70.0,95.0
461,139.96005044999998,140.10149733749998,65.0,89.0
462,139.96005044999998,140.38932530625,70.0,99.0
463,139.96005044999998,140.44195670624998,74.0,99.0
464,140.35478594999998,140.52912746249999,65.0,83.0
465,138.38110845,140.86958683125,46.0,92.0
466,139.56531495,140.88109995,53.0,87.0
467,140.74952144999997,140.99952059999998,65.0,92.0
468,140.74952144999997,141.1574148,72.0,93.0
469,141.14425695,141.27419071875,70.0,95.0
470,141.53899245,142.06859591249997,72.0,89.0
471,141.53899245,142.07681956874998,69.0,89.0
472,141.53899245,142.52254173749998,45.0,89.0
473,141.93372795,142.53076539375,51.0,69.0
474,142.32846345,142.67385701249998,69.0,89.0
475,142.72319894999998,142.86300110624998,45.0,88.0
476,142.32846345,143.058724125,72.0,90.0
477,143.11793444999998,143.21990778749998,38.0,92.0
478,143.11793444999998,143.35313101875,69.0,86.0
479,143.11793444999998,143.52418306874998,74.0,91.0
480,143.51266994999997,144.02911556249998,50.0,88.0
481,143.90740545,144.19852288125,66.0,90.0
482,143.90740545,144.32023299374998,62.0,92.0
483,144.30214095,144.42385106249998,50.0,90.0
484,144.69687645,144.95674398749998,62.0,89.0
485,144.69687645,145.2001642125,70.0,88.0
486,145.09161195,145.3777951875,62.0,83.0
487,144.69687645,145.7330571375,43.0,83.0
488,145.48634744999998,146.01101671875,65.0,83.0
489,145.48634744999998,146.2922657625,69.0,95.0
490,146.27581844999997,146.6212120125,67.0,87.0
491,146.27581844999997,147.17384171249998,39.0,91.0
492,146.67055395,147.24127569375,46.0,77.0
493,147.06528945,147.46660387499998,63.0,102.0
494,147.06528945,147.64423484999998,67.0,92.0
495,147.85476045,148.21166713124998,63.0,92.0
496,147.85476045,148.21495659374997,60.0,88.0
497,147.85476045,148.24949594999998,67.0,89.0
498,148.64423144999998,148.6869944625,60.0,80.0
499,148.24949594999998,148.92876995625,55.0,72.0
500,147.85476045,148.95015146249997,48.0,90.0
501,148.64423144999998,149.0422564125,67.0,90.0
502,148.64423144999998,149.06199318749998,63.0,102.0
503,149.03896694999997,149.28403190625,60.0,90.0
504,149.43370245,149.60475449999998,60.0,92.0
505,149.43370245,149.8415958,63.0,97.0
506,149.43370245,149.8777798875,67.0,89.0
507,149.82843795,150.0948844125,60.0,73.0
508,150.22317345,150.30541001249998,36.0,89.0
509,150.22317345,150.49126464375,63.0,94.0
510,150.22317345,150.51100141875,60.0,89.0
511,150.22317345,150.56363281875,67.0,89.0
512,151.01264444999998,151.22810424374998,57.0,94.0
513,151.01264444999998,151.44685349999997,62.0,93.0
514,151.40737994999998,151.62119501249998,57.0,88.0
515,151.80211544999997,151.90079932499998,57.0,99.0
516,151.80211544999997,151.9106677125,62.0,95.0
517,151.80211544999997,151.96000965,66.0,90.0
518,151.01264444999998,152.31033740624997,38.0,94.0
519,152.39421869999998,152.46165268124997,66.0,89.0
520,152.39421869999998,152.4764552625,69.0,88.0
521,152.39421869999998,152.47809999375,62.0,90.0
522,152.59158645,153.0225060375,66.0,88.0
523,152.59158645,153.0619795875,69.0,90.0
524,152.59158645,153.06691378124998,62.0,89.0
525,153.18368969999997,153.26428153125,66.0,91.0
526,153.18368969999997,153.26757099374998,62.0,92.0
527,153.18368969999997,153.26757099374998,74.0,85.0
528,152.98632195,153.47645186249997,45.0,82.0
529,153.38105745,153.55046476874998,74.0,102.0
530,153.38105745,153.61460928749997,62.0,102.0
531,153.38105745,153.62447767499998,66.0,102.0
532,153.77579294999998,154.111318125,62.0,89.0
533,153.77579294999998,154.11296285625,66.0,92.0
534,153.5784252,154.12118651249997,45.0,87.0
535,153.77579294999998,154.13598909375,72.0,94.0
536,152.59158645,154.14914694375,38.0,93.0
537,154.17052844999998,154.45506695625,62.0,90.0
538,154.17052844999998,154.67217148125,70.0,89.0
539,154.95999945,155.11789364999998,62.0,85.0
540,154.95999945,155.203419675,67.0,85.0
541,155.35473495,155.56197108749998,62.0,87.0
542,155.74947045,155.96821970624998,62.0,91.0
543,155.74947045,156.18532423124998,67.0,97.0
544,156.14420594999999,156.42216553125,62.0,80.0
545,155.74947045,156.45506015624997,70.0,94.0
546,156.53894144999998,156.71163823125,67.0,95.0
547,154.56526394999997,156.72808554374998,50.0,80.0
548,156.53894144999998,156.72973027499998,62.0,99.0
549,154.17052844999998,156.78236167499998,43.0,89.0
550,157.32841244999997,157.45834621875,36.0,86.0
551,157.32841244999997,157.93367354999998,63.0,89.0
552,157.32841244999997,157.98301548749998,67.0,86.0
553,158.11788345,158.54715830625,63.0,91.0
554,158.11788345,158.5520925,60.0,88.0
555,158.90735444999999,158.95011746249997,60.0,77.0
556,158.90735444999999,159.2988004875,72.0,90.0
557,158.90735444999999,159.34320823124997,67.0,91.0
558,158.90735444999999,159.36623446874998,63.0,92.0
559,159.30208994999998,159.61623361875,60.0,86.0
560,159.69682544999998,159.82182502499998,67.0,91.0
561,159.69682544999998,159.83333814374998,63.0,91.0
562,158.51261895,159.85800911249999,55.0,80.0
563,157.72314795,159.92708782499997,48.0,87.0
564,160.09156094999997,160.43859924375,70.0,89.0
565,160.48629645,160.59813817499997,41.0,89.0
566,160.48629645,161.15405733749998,69.0,89.0
567,160.48629645,161.1869519625,65.0,85.0
568,161.67050294999999,161.95010726249998,65.0,92.0
569,160.88103195,161.9994492,53.0,87.0
570,161.27576745,162.0093175875,60.0,94.0
571,162.06523844999998,162.60306556875,65.0,94.0
572,162.06523844999998,162.77576234999998,72.0,88.0
573,162.06523844999998,162.84319633124997,53.0,90.0
574,162.45997394999998,162.84648579375,60.0,79.0
575,162.85470944999997,163.01260365,65.0,88.0
576,162.85470944999997,163.14418214999998,69.0,93.0
577,163.64418045,163.92049529999997,65.0,86.0
578,164.03891595,164.64911124374999,53.0,83.0
579,164.43365144999999,164.67049275,65.0,88.0
580,164.43365144999999,164.86786049999998,70.0,95.0
581,165.22312244999998,165.36456933749997,65.0,89.0
582,165.22312244999998,165.65239730624998,70.0,99.0
583,165.22312244999998,165.70502870624998,74.0,99.0
584,165.61785794999997,165.79219946249998,65.0,83.0
585,163.64418045,166.13265883124998,46.0,92.0
586,164.82838694999998,166.14417195,53.0,87.0
587,166.01259345,166.26259259999998,65.0,92.0
588,166.01259345,166.4204868,72.0,93.0
589,166.40732895,166.53726271875,70.0,95.0
590,166.80206445,167.3316679125,72.0,89.0
591,166.80206445,167.33989156874998,69.0,89.0
592,166.80206445,167.78561373749997,45.0,89.0
593,167.19679994999998,167.79383739374998,51.0,69.0
594,167.59153544999998,167.93692901249997,69.0,89.0
595,167.98627094999998,168.12607310624998,45.0,88.0
596,167.59153544999998,168.321796125,72.0,90.0
597,168.38100644999997,168.48297978749997,38.0,92.0
598,168.38100644999997,168.61620301874999,69.0,86.0
599,168.38100644999997,168.78725506874997,74.0,91.0
600,168.77574195,169.29218756249998,50.0,88.0
601,169.17047745,169.46159488125,66.0,90.0
602,169.17047745,169.58330499374998,62.0,92.0
603,169.56521295,169.68692306249997,50.0,90.0
604,169.95994844999998,170.21981598749997,62.0,89.0
605,169.95994844999998,170.4632362125,70.0,88.0
606,170.35468394999998,170.6408671875,62.0,83.0
607,169.95994844999998,170.9961291375,43.0,83.0
608,170.74941944999998,171.27408871875,65.0,83.0
609,170.74941944999998,171.5553377625,69.0,95.0
610,171.53889045,172.09480961249997,64.0,88.0
611,171.53889045,172.09645434375,74.0,92.0
612,171.53889045,172.14250681874998,67.0,82.0
613,171.53889045,172.150730475,70.0,81.0
614,171.53889045,172.41553220625,40.0,91.0
615,172.32836145,172.46816360625,74.0,89.0
616,172.32836145,172.47309779999998,70.0,76.0
617,172.32836145,172.49447930624999,67.0,83.0
618,173.11783244999998,173.63756752499998,63.0,82.0
619,173.11783244999998,173.74447505625,67.0,83.0
620,173.51256794999998,174.06355291875,55.0,80.0
621,173.11783244999998,174.12605270625,48.0,90.0
622,173.90730344999997,174.23789443124997,60.0,89.0
623,173.90730344999997,174.25434174375,63.0,104.0
624,173.90730344999997,174.3053284125,67.0,92.0
625,174.69677445,174.78065574374997,38.0,94.0
626,174.69677445,175.28065404375,74.0,91.0
627,174.69677445,175.28394350624998,66.0,95.0
628,174.69677445,175.32835124999997,62.0,90.0
629,175.28887769999997,175.545455775,54.0,95.0
630,175.48624544999998,176.05861192499998,57.0,97.0
631,175.09150995,176.06354611874997,50.0,83.0
632,176.0783487,176.25269021249997,74.0,102.0
633,176.0783487,176.26255859999998,50.0,83.0
634,176.0783487,176.26420333124997,57.0,90.0
635,175.6836132,176.30696634375,62.0,102.0
636,175.88098094999998,176.31025580624998,66.0,94.0
637,176.0783487,176.32834784999997,69.0,92.0
638,177.06518745,177.47965972499998,63.0,88.0
639,177.06518745,177.51584381249998,67.0,83.0
640,177.06518745,177.53229112499997,75.0,84.0
641,177.06518745,177.56025155625,70.0,80.0
642,177.65729069999998,177.93853974374997,63.0,91.0
643,177.85465845,177.95827651874998,67.0,82.0
644,177.45992295,178.00926318749998,46.0,67.0
645,177.06518745,178.04873673749998,39.0,97.0
646,178.24939394999998,178.86123397499998,67.0,88.0
647,178.24939394999998,178.96814150625,75.0,85.0
648,178.24939394999998,179.04050968124997,63.0,89.0
649,178.24939394999998,179.05695699375,70.0,87.0
650,179.2362327,179.53721851875,63.0,89.0
651,179.43360044999997,179.55860002499998,67.0,92.0
652,179.63096819999998,179.677020675,67.0,83.0
653,178.24939394999998,179.68359959999998,39.0,104.0
654,179.03886494999998,179.690178525,46.0,88.0
655,179.63096819999998,179.73458626874998,70.0,97.0
656,180.22307145,180.29379489374998,38.0,92.0
657,180.22307145,180.7066224375,65.0,81.0
658,180.22307145,180.71320136249997,62.0,84.0
659,180.22307145,180.80366158124997,69.0,86.0
660,181.01254244999998,181.111226325,60.0,94.0
661,180.81517469999997,181.28392310624997,57.0,93.0
662,181.2099102,181.28556783749997,60.0,91.0
663,181.2099102,181.29214676249998,65.0,90.0
664,180.61780695,181.315173,50.0,88.0
665,181.40727794999998,181.91549990624998,60.0,99.0
666,181.40727794999998,182.01582851249998,65.0,97.0
667,181.40727794999998,182.34806422499997,50.0,97.0
668,182.19674894999997,182.66549735624997,69.0,97.0
669,182.19674894999997,182.67043155,65.0,97.0
670,182.19674894999997,182.68852359374998,62.0,89.0
671,182.59148445,182.85957564375,57.0,87.0
672,182.78885219999998,182.87931241874998,65.0,104.0
673,182.78885219999998,182.88753607499999,62.0,97.0
674,182.78885219999998,182.90727284999997,69.0,99.0
675,182.98621995,183.07010124374997,50.0,83.0
676,183.38095545,183.47470513124998,39.0,94.0
677,183.38095545,183.75101998124998,63.0,89.0
678,183.38095545,183.76417783124998,67.0,88.0
679,183.38095545,183.78226987499997,70.0,89.0
680,183.77569094999998,184.34805742499998,51.0,81.0
681,184.17042644999998,184.40562301875,63.0,102.0
682,183.9730587,184.44180710624997,58.0,88.0
683,184.3677942,184.46647807499997,67.0,80.0
684,184.56516194999998,185.04377874374998,67.0,90.0
685,184.56516194999998,185.08325229374998,70.0,94.0
686,184.56516194999998,185.13094949999999,63.0,94.0
687,184.56516194999998,185.45496155624997,58.0,94.0
688,184.56516194999998,185.4730536,51.0,99.0
689,185.35463295,185.8118682375,67.0,89.0
690,185.35463295,185.8250260875,75.0,85.0
691,185.35463295,185.82667081875,70.0,92.0
692,185.35463295,185.83160501249998,63.0,92.0
693,185.74936845,185.87930221874998,58.0,90.0
694,185.94673619999998,186.07173577499998,63.0,92.0
695,185.94673619999998,186.20989319999998,67.0,95.0
696,185.94673619999998,186.2329194375,70.0,99.0
697,186.34147169999997,186.39081363749997,67.0,68.0
698,185.94673619999998,186.39081363749997,75.0,91.0
699,186.34147169999997,186.4993659,63.0,89.0
700,186.53883944999998,186.84804892499997,62.0,89.0
701,186.53883944999998,186.95002226249997,67.0,91.0
702,186.53883944999998,186.95002226249997,72.0,89.0
703,187.1309427,187.26581066249997,62.0,90.0
704,187.32831044999998,187.37600765624998,62.0,77.0
705,187.32831044999998,187.58488852499997,67.0,94.0
706,187.32831044999998,187.5881779875,72.0,91.0
707,186.93357494999998,187.611204225,50.0,73.0
708,187.5256782,187.63258573124997,62.0,94.0
709,186.53883944999998,187.66548035625,43.0,90.0
710,187.72304594999997,188.16876811875,62.0,89.0
711,187.72304594999997,188.17370231249998,67.0,89.0
712,187.72304594999997,188.19343908749997,71.0,95.0
713,188.11778145,188.39080683749998,50.0,82.0
714,188.31514919999998,188.56843781249998,62.0,97.0
715,188.31514919999998,188.66218749374997,67.0,99.0
716,188.31514919999998,188.69179265625,71.0,95.0
717,188.70988469999998,188.80363438125,62.0,90.0
718,188.51251695,188.96810750625,50.0,89.0
719,188.90725245,189.1473832125,62.0,94.0
720,187.72304594999997,189.21152773125,43.0,91.0
721,188.90725245,189.21975138749997,67.0,93.0
722,189.10462019999997,189.53225032499998,50.0,90.0
723,189.30198794999998,189.55856602499998,62.0,94.0
724,189.4993557,189.61777634999999,67.0,90.0
725,189.69672344999998,189.77731528124997,36.0,88.0
726,189.8940912,189.96645937499997,48.0,84.0
727,189.69672344999998,190.04047228124998,63.0,95.0
728,189.69672344999998,190.07007744375,60.0,88.0
729,189.69672344999998,190.08652475625,67.0,89.0
730,190.2888267,190.4500103625,60.0,93.0
731,190.09145894999997,190.73454886874998,55.0,91.0
732,190.48619444999997,190.769088225,62.0,95.0
733,190.09145894999997,190.84145639999997,48.0,67.0
734,190.68356219999998,190.91382457499998,63.0,104.0
735,190.88092995,191.137508025,67.0,95.0
736,191.07829769999998,191.315139,60.0,95.0
737,191.67040095,191.9730315,58.0,92.0
738,191.86776869999997,192.11941258124997,62.0,88.0
739,191.47303319999997,192.35625388124998,53.0,89.0
740,192.06513644999998,192.39408269999998,70.0,102.0
741,192.2625042,192.41217474374997,62.0,90.0
742,191.27566545,192.47302979999998,46.0,105.0
743,192.45987194999998,192.70822636875,58.0,88.0
744,192.6572397,192.76250249999998,62.0,90.0
745,193.24934294999997,193.69177565624997,56.0,104.0
746,193.44671069999998,193.7328939375,60.0,87.0
747,193.64407845,193.85131458749999,63.0,90.0
748,192.85460744999997,193.99111674374998,44.0,105.0
749,193.0519752,194.0256561,51.0,73.0
750,193.84144619999998,194.17861610625,68.0,97.0
751,194.23618169999997,194.28387890624998,68.0,75.0
752,194.03881395,194.28552363749998,63.0,89.0
753,194.23618169999997,194.43190471875,56.0,99.0
754,194.43354945,194.50756235625,38.0,95.0
755,194.82828494999998,195.05690259374998,54.0,94.0
756,194.63091719999997,195.11611291875,50.0,89.0
757,195.0256527,195.21150733124998,57.0,102.0
758,195.22302044999998,195.3940725,60.0,105.0
759,195.4203882,195.50426949374997,66.0,102.0
760,195.61775594999997,195.88913660625,62.0,89.0
761,195.8151237,195.95657058749998,66.0,95.0
762,196.01249144999997,197.30031601874998,69.0,105.0
763,196.01249144999997,197.374328925,62.0,102.0
764,197.59143344999998,197.94505066874999,86.0,90.0
765,197.59143344999998,197.95327432499997,74.0,92.0
766,198.38090444999997,198.50754875624997,74.0,89.0
767,198.38090444999997,198.56018015624997,81.0,84.0
768,197.59143344999998,198.67366661249997,69.0,88.0
769,198.5782722,198.76083736874997,78.0,88.0
770,196.01249144999997,198.77563994999997,38.0,82.0
771,197.59143344999998,198.8677449,62.0,90.0
772,198.77563994999997,198.87925801875,74.0,95.0
773,199.17037545,201.53878844999997,38.0,74.0
774,199.17037545,202.31345686874997,74.0,87.0
775,199.17037545,202.31674633125,78.0,76.0
776,199.17037545,202.32825945,69.0,73.0
777,199.17037545,202.34799622499997,62.0,74.0
778,202.77069215625,203.02069130624997,57.0,75.0
779,202.97792829374998,203.48779498124998,58.0,102.0
780,202.53549558749998,203.66542595624998,50.0,76.0
781,202.33154891249998,203.73779413124998,43.0,69.0
782,203.88253048124997,204.32660791874997,58.0,76.0
783,203.887464675,204.43516018124998,62.0,82.0
784,203.87924101874998,204.43680491249998,55.0,72.0
785,204.28713436874997,204.83482987499997,50.0,57.0
786,203.88088574999998,204.92200063124997,43.0,87.0
787,204.70325137499998,205.07331590624997,67.0,90.0
788,205.85949744374997,206.27890391249997,62.0,89.0
789,206.25752240625,206.39403509999997,63.0,93.0
790,206.92692802499997,207.03876974999997,60.0,76.0
791,207.01409878124997,207.05192759999997,63.0,69.0
792,207.05028286874997,207.18679556249998,72.0,90.0
793,207.44337363749997,207.69830698124997,60.0,79.0
794,206.66048156249997,207.89896419374998,55.0,65.0
795,205.45982775,207.99435860625,48.0,88.0
796,207.83975386874997,208.04041108124997,63.0,91.0
797,207.84468806249998,208.15554226874997,67.0,88.0
798,208.61935648124998,208.716395625,41.0,88.0
799,208.62264594374997,208.91376337499997,60.0,88.0
800,208.61771174999998,209.47297199999997,69.0,88.0
801,209.60948469374998,209.75915523749998,65.0,83.0
802,209.81178663749998,209.95323352499997,67.0,89.0
803,210.22461418125,210.87757248749998,65.0,89.0
804,210.22296944999997,210.90553291874997,69.0,92.0
805,209.426919525,211.10783486249997,60.0,85.0
806,209.019026175,211.13250583124997,53.0,77.0
807,211.01737464374997,211.23776863125,65.0,90.0
808,211.01244044999999,211.25750540624998,69.0,88.0
809,211.782174675,212.68677686249998,58.0,74.0
810,211.78052994374997,212.84302633124997,62.0,83.0
811,212.80190804999998,213.27394591874997,58.0,88.0
812,213.00749945624997,213.30355108125,62.0,86.0
813,213.39565603124998,214.34795542499998,58.0,76.0
814,213.39072183749997,214.4203236,65.0,75.0
815,213.38743237499997,214.44334983749997,62.0,76.0
816,212.59960610624998,214.47459973124998,53.0,84.0
817,211.76408263124998,214.47953392499997,46.0,80.0
818,214.52723113124998,214.67854640624998,58.0,94.0
819,214.926900825,215.16045266249998,57.0,83.0
820,214.93019028749998,215.79531892499998,60.0,84.0
821,214.90880878124997,215.82656881875,45.0,89.0
822,216.47623766249998,216.79038133125,60.0,89.0
823,216.48281658749997,216.92524929374997,66.0,86.0
824,216.87426262499997,217.31340586874998,57.0,79.0
825,216.49268497499997,217.34465576249997,50.0,93.0
826,217.0683409125,217.43840544374999,62.0,89.0
827,217.27722178124998,217.48116845624997,66.0,97.0
828,217.46636587499998,217.65715469999998,69.0,90.0
829,218.05353493124997,218.2985998875,62.0,88.0
830,218.04860073749998,218.48774398125,70.0,86.0
831,218.45813881874997,218.73938786249997,62.0,89.0
832,218.25254741249998,219.05188679999998,50.0,83.0
833,218.058469125,219.07655776874998,43.0,89.0
834,218.65715129999998,219.17030744999997,70.0,95.0
835,219.26405713124998,219.66043736249998,69.0,94.0
836,219.68181886874999,220.04365974374997,67.0,84.0
837,219.66537155624997,220.44826363124997,39.0,93.0
838,220.0485939375,220.48115825624998,46.0,84.0
839,220.46471094375,220.5814868625,67.0,88.0
840,220.45977674999997,220.61109202499998,63.0,88.0
841,220.45813201874998,220.62589460624997,70.0,90.0
842,221.13411656249997,221.31339226874996,60.0,74.0
843,221.2393793625,221.3906946375,36.0,88.0
844,221.163721725,221.71635142499997,63.0,81.0
845,221.23280043749998,222.33312564374998,67.0,83.0
846,222.43345424999998,222.72621641249998,62.0,92.0
847,222.03049509374998,223.01568911249998,55.0,83.0
848,222.81338716874998,223.27226718749998,63.0,94.0
849,222.81503189999998,223.42358246249998,60.0,88.0
850,223.22128051874998,223.81502849999998,55.0,86.0
851,221.63411486249998,223.90877818124997,48.0,88.0
852,224.0025278625,224.07160657499998,48.0,53.0
853,224.01897517499998,224.33969776874997,55.0,91.0
854,223.64562118124996,224.34956615624998,63.0,114.0
855,223.64397644999997,224.35121088749997,67.0,92.0
856,223.6472659125,224.35943454374998,60.0,97.0
857,224.43344745,224.64890724375,57.0,94.0
858,224.43344745,224.86765649999998,62.0,93.0
859,224.82818294999998,225.0419980125,57.0,88.0
860,225.22291844999998,225.321602325,57.0,99.0
861,225.22291844999998,225.33147071249996,62.0,95.0
862,225.22291844999998,225.38081264999997,66.0,90.0
863,224.43344745,225.73114040624998,38.0,94.0
864,225.8150217,225.88245568124998,66.0,89.0
865,225.8150217,225.89725826249997,69.0,88.0
866,225.8150217,225.89890299374997,62.0,90.0
867,226.01238944999997,226.44330903749997,66.0,88.0
868,226.01238944999997,226.48278258749997,69.0,90.0
869,226.01238944999997,226.48771678125,62.0,89.0
870,226.60449269999998,226.68508453124997,66.0,91.0
871,226.60449269999998,226.68837399375,62.0,92.0
872,226.60449269999998,226.68837399375,74.0,85.0
873,226.40712494999997,226.89725486249998,45.0,82.0
874,226.80186044999996,226.97126776874998,74.0,102.0
875,226.80186044999996,227.03541228749998,62.0,102.0
876,226.80186044999996,227.045280675,66.0,102.0
877,227.19659595,227.53212112499997,62.0,89.0
878,227.19659595,227.53376585624997,66.0,92.0
879,226.99922819999998,227.54198951249998,45.0,87.0
880,227.19659595,227.55679209374998,72.0,94.0
881,226.01238944999997,227.56994994374998,38.0,93.0
882,227.59133144999998,227.87586995624997,62.0,90.0
883,227.59133144999998,228.09297448124997,70.0,89.0
884,228.38080244999998,228.53869665,62.0,85.0
885,228.38080244999998,228.62422267499997,67.0,85.0
886,228.77553794999997,228.9827740875,62.0,87.0
887,229.17027344999997,229.38902270625,62.0,91.0
888,229.17027344999997,229.60612723124999,67.0,97.0
889,229.56500894999996,229.84296853124997,62.0,80.0
890,229.17027344999997,229.87586315624998,70.0,94.0
891,229.95974445,230.13244123124997,67.0,95.0
892,227.98606694999998,230.14888854375,50.0,80.0
893,229.95974445,230.150533275,62.0,99.0
894,227.59133144999998,230.20316467499998,43.0,89.0
895,230.74921544999998,230.87914921874997,36.0,86.0
896,230.74921544999998,231.35447655,63.0,89.0
897,230.74921544999998,231.4038184875,67.0,86.0
898,231.53868644999997,231.96796130624998,63.0,91.0
899,231.53868644999997,231.97289549999996,60.0,88.0
900,232.32815744999996,232.37092046249998,60.0,77.0
901,232.32815744999996,232.71960348749997,72.0,90.0
902,232.32815744999996,232.76401123124998,67.0,91.0
903,232.32815744999996,232.78703746875,63.0,92.0
904,232.72289295,233.03703661874997,60.0,86.0
905,233.11762844999998,233.242628025,67.0,91.0
906,233.11762844999998,233.25414114375,63.0,91.0
907,231.93342194999997,233.27881211249996,55.0,80.0
908,231.14395094999998,233.34789082499998,48.0,87.0
909,233.51236394999998,233.85940224374997,70.0,89.0
910,233.90709944999998,234.01894117499998,41.0,89.0
911,233.90709944999998,234.57486033749998,69.0,89.0
912,233.90709944999998,234.60775496249997,65.0,85.0
913,235.09130594999996,235.3709102625,65.0,92.0
914,234.30183494999997,235.42025219999996,53.0,87.0
915,234.69657044999997,235.43012058749997,60.0,94.0
916,235.48604145,236.02386856874998,65.0,94.0
917,235.48604145,236.19656535,72.0,88.0
918,235.48604145,236.26399933124998,53.0,90.0
919,235.88077694999998,236.26728879374997,60.0,79.0
920,236.27551244999998,236.43340664999997,65.0,88.0
921,236.27551244999998,236.56498514999998,69.0,93.0
922,237.06498344999997,237.34129829999998,65.0,86.0
923,237.06498344999997,237.49425830624998,74.0,90.0
924,237.45971894999997,238.06991424374996,53.0,83.0
925,237.85445444999996,238.09129574999997,65.0,88.0
926,237.85445444999996,238.28866349999998,70.0,95.0
927,238.64392544999998,238.78537233749998,65.0,89.0
928,238.64392544999998,239.07320030625,70.0,99.0
929,238.64392544999998,239.12583170624998,74.0,99.0
930,239.03866094999998,239.2130024625,65.0,83.0
931,237.06498344999997,239.55346183125,46.0,92.0
932,238.24918995,239.56497494999996,53.0,87.0
933,239.43339644999998,239.68339559999998,65.0,92.0
934,239.43339644999998,239.84128979999997,72.0,93.0
935,239.82813194999997,239.95806571874996,70.0,95.0
936,240.22286744999997,240.75247091249997,72.0,89.0
937,240.22286744999997,240.76069456874998,69.0,89.0
938,240.22286744999997,241.20641673749998,45.0,89.0
939,240.61760294999996,241.21464039375,51.0,69.0
940,241.01233845,241.35773201249998,69.0,89.0
941,241.40707394999998,241.54687610624998,45.0,88.0
942,241.01233845,241.74259912499997,72.0,90.0
943,241.80180944999998,241.90378278749998,38.0,92.0
944,241.80180944999998,242.03700601874996,69.0,86.0
945,241.80180944999998,242.20805806874998,74.0,91.0
946,242.19654494999997,242.71299056249998,50.0,88.0
947,242.59128044999997,242.88239788124997,66.0,90.0
948,242.59128044999997,243.00410799374998,62.0,92.0
949,242.98601594999997,243.10772606249998,50.0,90.0
950,243.38075144999996,243.64061898749998,62.0,89.0
951,243.38075144999996,243.88403921249997,70.0,88.0
952,243.77548695,244.06167018749997,62.0,83.0
953,243.38075144999996,244.41693213749997,43.0,83.0
954,244.17022244999998,244.69489171874997,65.0,83.0
955,244.17022244999998,244.97614076249997,69.0,95.0
956,244.95969344999997,245.51561261249998,64.0,88.0
957,244.95969344999997,245.51725734374998,74.0,92.0
958,244.95969344999997,245.56330981874999,67.0,82.0
959,244.95969344999997,245.57153347499997,70.0,81.0
960,244.95969344999997,245.83633520624997,40.0,91.0
961,245.74916444999997,245.88896660624997,74.0,89.0
962,245.74916444999997,245.89390079999998,70.0,76.0
963,245.74916444999997,245.91528230624996,67.0,83.0
964,246.53863545,247.058370525,63.0,82.0
965,246.53863545,247.16527805624997,67.0,83.0
966,246.93337094999998,247.48435591874997,55.0,80.0
967,246.53863545,247.54685570624997,48.0,90.0
968,247.32810644999998,247.65869743124998,60.0,89.0
969,247.32810644999998,247.67514474374997,63.0,104.0
970,247.32810644999998,247.72613141249997,67.0,92.0
971,248.10277486874998,248.20639293749997,38.0,97.0
972,248.09948540624998,248.6669176875,62.0,91.0
973,248.09948540624998,248.67349661249997,74.0,93.0
974,248.65211510624997,249.22119211874997,57.0,92.0
975,249.01395598124998,249.24421835624997,66.0,97.0
976,248.45474735624998,249.26395513125,50.0,89.0
977,248.83632500624998,249.28698136874996,62.0,99.0
978,249.20638953749997,249.43336244999998,69.0,90.0
979,249.40375728749999,249.51230954999997,74.0,99.0
980,250.06987344374997,250.16526785624998,63.0,79.0
981,250.06658398124998,250.17678097499999,67.0,82.0
982,250.06822871249997,250.18007043749998,60.0,81.0
983,250.26395173125,250.54520077499998,63.0,93.0
984,250.26888592499998,250.55177969999997,60.0,91.0
985,250.26559646249999,250.55671389375,67.0,91.0
986,250.07316290624996,250.73598959999998,55.0,88.0
987,250.0748076375,250.96131778125,48.0,89.0
988,250.65375303749997,251.01065971874996,72.0,90.0
989,250.67677927499997,251.04190961249998,63.0,105.0
990,250.67020035,251.04848853749996,67.0,95.0
991,250.66362142499997,251.05013326875,60.0,104.0
992,251.24421155624998,251.55342103124997,55.0,86.0
993,251.24750101874997,251.74749931875,63.0,93.0
994,251.24914574999997,251.75407824374997,60.0,91.0
995,251.25079048124996,251.76394663124998,67.0,91.0
996,251.62743393749997,251.84289373124997,51.0,65.0
997,251.24256682499998,251.96624857499998,48.0,94.0
998,251.85605158124997,252.09618234374997,63.0,104.0
999,251.85440684999998,252.10111653749996,60.0,94.0
1000,251.85934104374996,252.10276126875,72.0,92.0
1001,251.85276211874998,252.10934019374997,67.0,97.0
1002,252.05012986874996,252.16032686249997,55.0,77.0
1003,252.25572127499998,252.33631310624997,48.0,89.0
1004,252.47611526249997,252.56657548124997,48.0,90.0
1005,252.85440344999998,253.17348131249997,39.0,93.0
1006,252.71624602499998,253.92347876249997,63.0,84.0
1007,253.65045337499998,253.93828134374996,51.0,99.0
1008,253.8642684375,254.08466242499998,58.0,67.0
1009,252.79519312499997,254.09617554374998,67.0,87.0
1010,252.87578495625,254.33137211249996,75.0,84.0
1011,252.84289033124998,254.39058243749997,70.0,84.0
1012,254.09453081249998,254.62906846874998,63.0,88.0
1013,254.32479318749998,254.64880524374996,67.0,78.0
1014,255.21294806249998,255.59617044374997,54.0,79.0
1015,255.49090764374998,255.76722249374998,60.0,73.0
1016,255.67347281249997,255.97445863124997,66.0,88.0
1017,255.07643536874997,257.86261010625,50.0,85.0
1018,255.36919753124997,257.8774126875,57.0,85.0
1019,259.11918478125,259.47115726874995,55.0,88.0
1020,259.19813188125,259.48102565625,58.0,79.0
1021,256.2918917625,259.5024071625,62.0,84.0
1022,259.29188156249995,259.5024071625,62.0,86.0
1023,256.45472015624995,259.5024071625,66.0,36.0
1024,255.89551153124998,259.5287228625,69.0,78.0
1025,256.0780767,259.5287228625,74.0,89.0
1026,259.03365875624996,259.58793318749997,50.0,88.0
1027,258.86096197499995,259.60273576875,43.0,87.0
1028,259.35438135,259.61918308124996,67.0,79.0
1029,261.0221388375,261.12246744375,81.0,71.0
1030,261.13233583125,261.26226959999997,79.0,74.0
1031,261.30996680625,261.44154530624996,81.0,92.0
1032,261.54680810624996,261.66851821874997,82.0,102.0
1033,261.87575435624996,261.98430661875,86.0,91.0
1034,262.22279265,262.34285803125,84.0,85.0
1035,262.62575180625,262.79680385625,81.0,80.0
1036,263.6405509875,263.8181819625,77.0,72.0
1037,263.86916863125,264.01061551875,72.0,75.0
1038,264.08298369374995,264.189891225,74.0,90.0
1039,264.28857509999995,264.472785,69.0,83.0
1040,264.50732435624997,264.76390243124996,72.0,56.0
1041,264.78528393749997,265.12080911249996,67.0,63.0
1042,265.19482201874996,265.44975536249996,69.0,72.0
