,start,end,pitch,velocity
0,0.32343225833333333,0.4570955895833333,71.0,94.0
1,0.7194717583333333,1.0082505604166665,71.0,99.0
2,1.1155112583333333,1.3943890729166666,71.0,97.0
3,1.5115507583333332,1.7343229770833333,73.0,94.0
4,1.9075902583333333,2.150164452083333,73.0,93.0
5,2.3036297583333334,2.5676560916666666,73.0,94.0
6,2.699669258333333,3.2194711020833333,73.0,97.0
7,3.4917482583333332,6.1188102749999995,74.0,97.0
8,6.660064258333333,6.7871269312499996,71.0,94.0
9,7.056103758333333,7.287126799999999,71.0,89.0
10,7.452143258333333,7.740922060416666,71.0,97.0
11,7.848182758333333,8.481845958333333,73.0,93.0
12,8.640261758333333,8.8712848,73.0,94.0
13,9.036301258333333,11.877884670833332,66.0,93.0
14,12.995621283333334,13.15516061875,71.0,94.0
15,13.390357783333332,13.57456815,71.0,96.0
16,13.785094283333333,13.9989098875,71.0,97.0
17,14.179830783333333,14.344304325,73.0,95.0
18,14.574567283333334,14.727527677083334,73.0,95.0
19,14.969303783333334,15.150224679166666,73.0,94.0
20,15.364040283333333,15.962723975,73.0,97.0
21,16.153513283333332,18.999665741666668,74.0,93.0
22,19.68370399166667,19.941449277083336,71.0,96.0
23,20.072517233333336,20.345980006250002,71.0,94.0
24,20.460866733333336,21.121060883333335,73.0,94.0
25,21.237565733333337,21.512646629166667,69.0,94.0
26,21.625915233333334,25.20431921041667,71.0,93.0
27,62.58939170000001,63.660819200000006,71.0,104.0
28,63.75822170000001,64.04718245000001,74.0,104.0
29,64.14783170000001,64.5049742,73.0,98.0
30,64.5374417,64.892960825,71.0,102.0
31,64.9270517,65.21114232500001,69.0,100.0
32,65.31666170000001,65.89428523125001,71.0,100.0
33,66.0992032,67.97789113750001,66.0,94.0
34,68.06641570000001,68.40248116875001,71.0,98.0
35,68.45985820000001,68.73034991875001,69.0,97.0
36,68.8533007,69.93690691875001,71.0,102.0
37,70.03362820000001,70.30739860625002,74.0,102.0
38,70.42707070000002,70.70903782500001,73.0,97.0
39,70.82051320000001,71.10084098125002,73.0,97.0
40,71.21395570000001,71.52051298125001,71.0,94.0
41,71.6073982,71.88444729375001,73.0,102.0
42,72.00084070000001,74.01887285625001,71.0,98.0
43,74.3614957,74.61395463750002,74.0,104.0
44,74.75493820000001,75.03690532500002,76.0,99.0
45,75.14838070000002,75.41231504375001,78.0,96.0
46,75.54182320000001,75.82215098125002,78.0,99.0
47,75.93526570000002,76.19264266875001,78.0,104.0
48,76.32870820000001,76.59264254375002,78.0,102.0
49,76.72215070000001,77.59428157500001,76.0,107.0
50,78.29592070000001,78.57296979375002,74.0,99.0
51,78.68936320000002,78.97952704375001,73.0,95.0
52,79.08280570000001,79.36805151250002,71.0,97.0
53,79.47624820000001,80.14837913750002,73.0,97.0
54,80.26313320000001,81.03526410625001,69.0,97.0
55,81.44346070000002,82.13690310625002,71.0,97.0
56,82.23034570000002,82.83690288750002,74.0,104.0
57,83.01723070000001,83.73034523125001,73.0,97.0
58,83.80411570000001,84.10247626250002,71.0,97.0
59,84.19755820000002,84.49755810625001,69.0,95.0
60,84.59100070000001,87.75136426250002,71.0,99.0
61,90.8657404666667,91.94417084166669,71.0,104.0
62,92.04220996666669,92.33305937083335,74.0,104.0
63,92.43436646666669,92.79384325833335,73.0,98.0
64,92.82652296666669,93.18436577291669,71.0,102.0
65,93.21867946666669,93.50462691458335,69.0,100.0
66,93.61083596666668,94.19090078958335,71.0,100.0
67,94.39514896666668,96.2676962541667,66.0,94.0
68,96.35593146666669,96.69089847708335,71.0,98.0
69,96.74808796666669,97.01769556041668,69.0,97.0
70,97.14024446666669,98.22030882708336,71.0,102.0
71,98.31671396666668,98.58958953125003,74.0,102.0
72,98.7088704666667,98.98991595833336,73.0,97.0
73,99.1010269666667,99.3804384729167,73.0,97.0
74,99.4931834666667,99.79873873958336,71.0,94.0
75,99.88533996666669,100.16148350208336,73.0,102.0
76,100.27749646666669,102.28652395000002,74.0,98.0
77,102.62580932500002,102.87580907500002,74.0,104.0
78,103.01541932500002,103.29463982500002,76.0,99.0
79,103.40502932500002,103.66639270000002,78.0,96.0
80,103.79463932500002,104.07223645000002,78.0,99.0
81,104.18424932500002,104.43911920000002,78.0,104.0
82,104.57385932500002,104.83522270000002,78.0,102.0
83,104.96346932500002,105.82710482500002,76.0,107.0
84,106.52190932500002,106.79625970000002,74.0,99.0
85,106.91151932500001,107.19885670000002,73.0,95.0
86,107.30112932500002,107.58359657500002,71.0,97.0
87,107.69073932500002,108.35632307500002,73.0,97.0
88,108.46995932500002,109.23456895000002,69.0,97.0
89,109.63878932500002,110.32547695000002,71.0,97.0
90,110.41800932500001,110.72807395000002,71.0,92.0
91,110.80761932500002,111.09170995000002,74.0,96.0
92,111.19722932500002,111.90126510416668,73.0,97.0
93,111.97408063541668,112.77505147916669,69.0,97.0
94,113.52747863541668,113.78637830208335,71.0,95.0
95,113.91582813541669,114.16016469583336,74.0,104.0
96,114.30417763541669,114.99673424375003,73.0,97.0
97,115.08087663541669,115.75887013750003,69.0,88.0
98,115.8575756354167,118.92230043958335,71.0,97.0
99,121.29446863541669,121.55822267083336,66.0,102.0
100,121.68281813541668,122.00806084166669,69.0,99.0
101,122.07116763541669,122.72974366250003,71.0,107.0
102,122.8478666354167,123.43848150000002,78.0,98.0
103,123.62456563541669,124.09382128125003,76.0,107.0
104,124.16663681250003,124.28961415416669,74.0,110.0
105,124.34948470208336,124.62941996666669,73.0,99.0
106,124.78961413541668,127.08573055416669,74.0,106.0
107,127.50806063541668,127.80417712916669,74.0,104.0
108,127.89641013541669,128.1876722604167,73.0,98.0
109,128.2847596354167,128.54689554791668,71.0,99.0
110,128.6731091354167,128.94171753958335,71.0,102.0
111,129.0614586354167,129.41906380000003,71.0,104.0
112,129.44980813541667,129.7119440479167,71.0,94.0
113,129.83815763541668,130.1439828666667,69.0,100.0
114,130.22650713541668,130.51938738333337,69.0,99.0
115,130.6148566354167,131.33492133333334,71.0,99.0
116,131.3915556354167,133.54626891875003,66.0,99.0
117,133.72646354375001,134.00081391875003,66.0,97.0
118,134.11607354375002,134.39529404375003,69.0,97.0
119,135.31250091875003,135.90990291875002,78.0,96.0
120,134.50568354375002,136.10957804375002,71.0,107.0
121,136.09821441875002,136.56574641875002,76.0,110.0
122,136.64204504375002,136.75892804375002,74.0,102.0
123,136.84009679375,137.14204454375002,73.0,104.0
124,137.24594054375,139.73782116875003,74.0,104.0
125,139.96022354375003,140.25405441875003,74.0,95.0
126,140.34983354375,140.65502804375,73.0,100.0
127,140.73944354375,141.74593604375002,71.0,100.0
128,141.90827354375003,142.18911741875002,71.0,97.0
129,142.29788354375003,142.97645429375,69.0,95.0
130,143.07710354375,143.72970029375003,73.0,99.0
131,143.85632354375002,147.01216454375003,71.0,98.0
132,150.17936916875001,151.25079666875,71.0,104.0
133,151.34819916875003,151.63715991875003,74.0,104.0
134,151.73780916875003,152.09495166875,73.0,98.0
135,152.12741916875,152.48293829375,71.0,102.0
136,152.51702916875,152.80111979375002,69.0,100.0
137,152.90663916875002,153.48293729375,71.0,100.0
138,153.68585916875003,155.54624691875003,66.0,94.0
139,155.63390916875002,155.96670104375002,71.0,98.0
140,156.02351916875003,156.29137604375,69.0,97.0
141,156.41312916875003,157.48618004375,71.0,102.0
142,157.58195916875002,157.85306279375,74.0,102.0
143,157.97156916875002,158.25078966875003,73.0,97.0
144,158.36117916875003,158.63877629375003,73.0,97.0
145,158.75078916875003,159.05436029375002,71.0,94.0
146,159.14039916875004,159.41474954375002,73.0,102.0
147,159.53000916875,161.52838379375,74.0,98.0
148,161.86766916875,162.11766891875,74.0,104.0
149,162.25727916875002,162.53649966875003,76.0,99.0
150,162.64688916875002,162.90825254375002,78.0,96.0
151,163.03649916875003,163.31409629375003,78.0,99.0
152,163.42610916875003,163.68097904375003,78.0,104.0
153,163.81571916875004,164.07708254375,78.0,102.0
154,164.20532916875,165.06896466875003,76.0,107.0
155,165.76376916875003,166.03811954375,74.0,99.0
156,166.15337916875,166.44071654375003,73.0,95.0
157,166.54298916875,166.82545641875004,71.0,97.0
158,166.93259916875002,167.59913995625,73.0,97.0
159,167.71314633125002,168.48024636875002,69.0,97.0
160,168.88578333125002,169.57470756875003,71.0,97.0
161,169.66754133125002,169.97861586875,71.0,92.0
162,170.05842033125,170.34343626875003,74.0,96.0
163,170.44929933125002,171.15776751875,73.0,97.0
164,171.23105733125,172.03724526875,69.0,97.0
165,172.79457333125,173.05515933125002,71.0,95.0
166,173.18545233125002,173.43138036875,74.0,104.0
167,173.57633133125,174.27339888125002,73.0,97.0
168,174.35808933125003,175.04049891875002,69.0,88.0
169,175.13996482500002,178.24488188750001,71.0,97.0
170,180.648159825,180.91537285625,66.0,102.0
171,181.041602325,181.37111041875002,69.0,99.0
172,181.43486916875003,182.09558279375003,71.0,107.0
173,182.21408916875,182.80662104375003,78.0,98.0
174,182.99330916875002,183.46408791875,76.0,107.0
175,183.53713979375001,183.66051629375002,74.0,110.0
176,183.72058116875002,184.00142504375003,73.0,99.0
177,184.16213916875003,186.46450031458335,74.0,106.0
178,186.88683039583336,187.18294688958335,74.0,104.0
179,187.27517989583336,187.56644202083336,73.0,98.0
180,187.66352939583336,187.92566530833335,71.0,99.0
181,188.05187889583334,188.32048730000002,71.0,102.0
182,188.44022839583334,188.79783356041668,71.0,104.0
183,188.82857789583335,189.09071380833336,71.0,94.0
184,189.21692739583335,189.52275262708335,69.0,100.0
185,189.60527689583336,189.89815714375,69.0,99.0
186,189.99362639583336,190.71369109375001,71.0,99.0
187,190.77032539583334,192.9168555854167,66.0,99.0
188,193.0953119041667,193.36701566875,66.0,97.0
189,193.4811634041667,193.75769031250002,69.0,97.0
190,194.66604905208337,195.25768801875003,78.0,96.0
191,193.8670149041667,195.45543691250003,71.0,107.0
192,195.44418291041669,195.9072047104167,76.0,110.0
193,195.98276729583336,196.09852274583335,74.0,102.0
194,196.17890847500001,196.47794338750003,73.0,104.0
195,196.58083712083337,199.04867900625,74.0,104.0
196,199.26893590416668,199.56153995833336,74.0,95.0
197,199.65478740416668,199.95703774583336,73.0,100.0
198,200.04063890416668,201.03742194583336,71.0,100.0
199,201.1981934041667,201.47632802708335,71.0,97.0
200,201.5840449041667,202.25606960000002,69.0,95.0
201,202.3557479041667,203.0020491666667,73.0,99.0
202,203.12739420833336,205.23956883750003,71.0,98.0
203,205.3469403854167,205.6161705354167,66.0,97.0
204,205.7315548854167,206.00719527708335,69.0,97.0
205,206.91103935208335,207.5007815854167,78.0,96.0
206,206.1161693854167,207.69949907708337,71.0,107.0
207,207.68667859375003,208.14821599375003,76.0,110.0
208,208.22353633333336,208.33892068333336,74.0,102.0
209,208.4190487041667,208.7171249416667,73.0,104.0
210,208.81968880833335,211.28122160833337,74.0,104.0
211,211.5007723854167,211.79083582083337,74.0,95.0
212,211.8853868854167,212.18666824375003,73.0,100.0
213,212.2700013854167,213.26358884375003,71.0,100.0
214,213.42384488541668,213.69948527708337,71.0,97.0
215,213.80845938541668,214.4825318916667,69.0,95.0
216,214.58447363541669,215.23334092500002,73.0,99.0
217,215.3611726354167,218.52520013125002,71.0,98.0
