,start,end,pitch,velocity
0,22.014264733333334,22.49096748541667,59.0,85.0
1,22.014264733333334,22.61800316041667,62.0,88.0
2,22.79552737291667,23.38347453541667,59.0,86.0
3,23.18640637291667,23.42907708541667,66.0,79.0
4,23.57728537291667,23.81995608541667,64.0,94.0
5,22.40464837291667,24.02679622291667,54.0,81.0
6,22.014264733333334,24.28575356041667,47.0,93.0
7,23.96816437291667,24.37370133541667,62.0,88.0
8,24.35904337291667,24.79063893541667,61.0,82.0
9,24.74992237291667,25.92744536041667,62.0,90.0
10,25.92255937291667,26.33786831041667,55.0,94.0
11,25.14080137291667,26.43395939791667,43.0,94.0
12,25.53168037291667,26.48119061041667,50.0,84.0
13,26.31343837291667,26.715718010416673,62.0,92.0
14,26.70431737291667,27.17825816041667,57.0,88.0
15,26.70431737291667,27.512133972916672,61.0,93.0
16,26.70431737291667,27.97793144791667,45.0,93.0
17,27.48607537291667,28.03982062291667,57.0,94.0
18,27.09519637291667,28.07076521041667,52.0,83.0
19,29.44406334166667,29.599291956250003,66.0,94.0
20,29.05190684166667,29.765958468750004,59.0,87.0
21,29.83621984166667,30.19896460416667,64.0,91.0
22,28.65975034166667,30.604192987500003,54.0,75.0
23,30.22837634166667,30.705500083333337,62.0,93.0
24,28.26783337291667,30.844388843750004,47.0,94.0
25,30.62053284166667,31.030663181250002,61.0,94.0
26,31.012689341666672,31.996348562500003,62.0,86.0
27,32.18915884166667,32.36562926666667,55.0,89.0
28,31.79700234166667,32.447328537500006,50.0,82.0
29,31.40484584166667,32.504518027083336,43.0,93.0
30,32.18915884166667,32.859092862500006,59.0,94.0
31,32.97347184166667,33.36726232708334,61.0,84.0
32,32.97347184166667,33.80843838958334,57.0,86.0
33,32.97347184166667,34.2192902,42.0,94.0
34,33.36562834166667,34.220913575000004,49.0,84.0
35,33.75778484166667,34.498510700000004,61.0,88.0
36,33.75778484166667,34.50175745000001,66.0,87.0
37,34.537471700000005,35.35889945,62.0,94.0
38,35.31669170000001,35.725782200000005,55.0,104.0
39,34.537471700000005,35.915717075,43.0,94.0
40,34.9270817,35.94169107500001,50.0,85.0
41,35.706301700000004,36.08292470000001,62.0,95.0
42,36.0959117,36.54558657500001,61.0,91.0
43,36.0959117,36.730651325000004,57.0,88.0
44,36.875131700000004,37.242014450000006,61.0,94.0
45,36.0959117,37.258248200000004,45.0,94.0
46,36.48552170000001,37.33130007500001,52.0,87.0
47,36.875131700000004,37.344287075000004,64.0,95.0
48,37.65435170000001,38.155974575,59.0,89.0
49,37.65435170000001,38.436818450000004,62.0,92.0
50,38.43357170000001,38.70954545000001,59.0,95.0
51,38.823181700000006,38.95142832500001,66.0,98.0
52,39.212791700000004,39.56506407500001,64.0,98.0
53,38.043961700000004,39.94655720000001,54.0,85.0
54,39.60240170000001,40.026102575,62.0,94.0
55,37.65435170000001,40.047206450000004,47.0,96.0
56,39.992011700000006,40.490387825000006,61.0,98.0
57,40.77123170000001,41.282594825000004,55.0,89.0
58,40.77123170000001,41.582919200000006,62.0,93.0
59,40.77123170000001,41.847529325000004,43.0,94.0
60,41.160841700000006,41.857269575000004,50.0,84.0
61,41.5504517,42.003373325000005,55.0,99.0
62,41.94006170000001,42.392983325,62.0,97.0
63,42.329671700000006,42.79071020000001,57.0,90.0
64,42.329671700000006,43.08291770000001,61.0,95.0
65,42.7192817,43.266359075000004,52.0,88.0
66,42.329671700000006,43.27447595000001,45.0,93.0
67,43.10889170000001,43.81992995,57.0,96.0
68,43.88811170000001,44.685188825000004,66.0,95.0
69,44.667331700000005,45.46765557500001,57.0,93.0
70,45.44655170000001,45.789083825000006,66.0,100.0
71,45.05694170000001,45.879992825,61.0,95.0
72,45.836161700000005,46.29070670000001,57.0,90.0
73,43.88811170000001,46.506615575000005,42.0,93.0
74,44.27772170000001,46.526096075000005,49.0,78.0
75,46.22577170000001,47.079666950000004,64.0,88.0
76,47.004991700000005,47.466030200000006,55.0,88.0
77,47.004991700000005,47.82154932500001,62.0,90.0
78,47.78421170000001,48.24687357500001,55.0,109.0
79,47.004991700000005,48.394600700000005,43.0,94.0
80,47.39460170000001,48.41895132500001,50.0,94.0
81,48.173821700000005,48.59102907500001,62.0,96.0
82,48.56343170000001,49.074794825000005,57.0,89.0
83,48.56343170000001,49.34914520000001,61.0,97.0
84,48.56343170000001,49.813430450000006,45.0,96.0
85,49.342651700000005,49.81667720000001,57.0,94.0
86,48.95304170000001,49.98226145000001,52.0,92.0
87,49.73226170000001,50.01635232500001,61.0,99.0
88,50.12187170000001,50.66245557500001,59.0,87.0
89,50.12187170000001,50.714403575000006,62.0,94.0
90,50.90109170000001,51.29070170000001,59.0,99.0
91,51.29070170000001,51.402714575000005,66.0,100.0
92,51.680311700000004,51.96764907500001,64.0,96.0
93,52.06992170000001,52.263103325,62.0,93.0
94,50.511481700000004,52.39459670000001,54.0,90.0
95,50.12187170000001,52.54070045,47.0,96.0
96,52.45953170000001,52.849141700000004,61.0,100.0
97,52.849141700000004,53.13160895000001,62.0,94.0
98,53.23875170000001,53.732257700000005,55.0,91.0
99,53.23875170000001,54.030958700000006,59.0,94.0
100,53.23875170000001,54.38647782500001,43.0,94.0
101,53.628361700000006,54.43030895000001,50.0,89.0
102,54.017971700000004,54.45628295,55.0,98.0
103,54.40758170000001,54.785828075000005,59.0,98.0
104,54.797191700000006,55.27933407500001,57.0,89.0
105,54.797191700000006,55.592645450000006,61.0,94.0
106,54.797191700000006,56.01796970000001,45.0,95.0
107,55.57641170000001,56.08777482500001,57.0,93.0
108,55.966021700000006,56.214398075000005,61.0,97.0
109,55.186801700000004,56.241995450000005,52.0,88.0
110,56.3556317,56.884851950000005,59.0,94.0
111,56.3556317,57.545565575000005,62.0,94.0
112,57.5244617,57.979006700000006,66.0,99.0
113,57.134851700000006,58.11861695,59.0,100.0
114,57.91407170000001,58.245240200000005,64.0,99.0
115,56.74524170000001,58.6932917,54.0,88.0
116,58.303681700000006,58.69978520000001,62.0,93.0
117,56.3556317,58.837772075000004,47.0,94.0
118,58.6932917,59.01959007500001,61.0,94.0
119,59.472511700000005,60.00497870000001,55.0,88.0
120,59.472511700000005,60.26147195000001,59.0,89.0
121,59.472511700000005,60.69653645000001,43.0,93.0
122,60.25173170000001,60.70140657500001,55.0,96.0
123,59.8621217,60.733874075,50.0,84.0
124,60.641341700000005,61.06504257500001,59.0,102.0
125,61.0309517,61.48874345,57.0,88.0
126,61.0309517,61.811795075000006,61.0,89.0
127,61.810171700000005,61.97900270000001,57.0,94.0
128,61.0309517,62.05367795000001,45.0,94.0
129,61.42056170000001,62.152703825,52.0,86.0
130,62.58939170000001,63.146209325,59.0,88.0
131,62.58939170000001,63.238741700000006,62.0,93.0
132,62.979001700000005,63.56666345000001,54.0,83.0
133,62.58939170000001,63.685169825,47.0,95.0
134,63.3686117,63.727377575000006,59.0,93.0
135,64.14783170000001,64.92380495,61.0,92.0
136,64.14783170000001,65.3101682,45.0,93.0
137,64.5374417,65.318285075,52.0,88.0
138,64.9270517,65.37510320000001,57.0,94.0
139,65.31666170000001,65.76149838750001,61.0,93.0
140,65.7062717,66.27625232500002,59.0,88.0
141,65.7062717,66.52051454375001,62.0,91.0
142,66.0992032,66.65166204375001,54.0,80.0
143,66.49264570000001,66.78280954375,59.0,87.0
144,65.7062717,66.81067838750002,47.0,94.0
145,67.27953070000001,67.75494038750001,57.0,84.0
146,67.27953070000001,68.1024812625,61.0,84.0
147,67.27953070000001,68.51067785625001,45.0,93.0
148,67.67297320000002,68.54674341875001,52.0,89.0
149,68.06641570000001,68.8533007,57.0,95.0
150,68.45985820000001,68.859858075,61.0,97.0
151,68.8533007,69.64838241875002,62.0,91.0
152,69.24674320000001,69.86477579375001,50.0,81.0
153,68.8533007,69.89264463750001,43.0,89.0
154,69.64018570000002,69.94838232500001,55.0,89.0
155,69.64018570000002,70.17952979375,59.0,88.0
156,70.42707070000002,70.90903776250002,57.0,85.0
157,70.42707070000002,71.14510326250002,61.0,87.0
158,70.42707070000002,71.561496575,45.0,92.0
159,71.21395570000001,71.71887357500002,57.0,89.0
160,70.82051320000001,71.90084073125001,52.0,85.0
161,71.6073982,72.02215216875001,61.0,91.0
162,72.00084070000001,72.64018476250001,62.0,93.0
163,73.18116820000002,73.29264357500001,66.0,100.0
164,72.78772570000001,73.30247963750001,59.0,92.0
165,73.57461070000001,73.94674173125001,64.0,90.0
166,72.39428320000002,74.3451022625,54.0,86.0
167,73.96805320000001,74.41395470000002,62.0,88.0
168,72.00084070000001,74.56805301250002,47.0,93.0
169,74.3614957,74.72379066875001,61.0,89.0
170,75.14838070000002,75.32379048125001,57.0,87.0
171,75.54182320000001,75.96313454375002,57.0,92.0
172,75.14838070000002,76.04182304375001,62.0,93.0
173,75.14838070000002,76.04510173125001,50.0,96.0
174,75.93526570000002,76.30739673125001,66.0,99.0
175,76.32870820000001,76.80575723125001,57.0,95.0
176,76.72215070000001,77.49919963750001,61.0,95.0
177,76.72215070000001,77.88772410625002,45.0,94.0
178,77.50903570000001,77.98444538750002,57.0,94.0
179,77.1155932,78.17624860625001,52.0,91.0
180,78.29592070000001,78.75821563750002,62.0,93.0
181,78.29592070000001,78.80083857500001,59.0,89.0
182,78.68936320000002,79.27624826250002,54.0,85.0
183,78.29592070000001,79.33854332500002,47.0,94.0
184,79.08280570000001,79.63526454375001,59.0,95.0
185,79.47624820000001,79.64673995000001,62.0,89.0
186,79.8696907,80.72706748125002,61.0,97.0
187,79.8696907,80.86641170000001,42.0,92.0
188,80.26313320000001,80.89919857500001,49.0,80.0
189,80.65657570000002,81.17132963750001,57.0,94.0
190,81.05001820000001,81.18280504375001,61.0,97.0
191,81.44346070000002,81.97788676250002,55.0,93.0
192,81.44346070000002,82.26313257500001,59.0,93.0
193,82.23034570000002,82.54509970000001,55.0,98.0
194,81.44346070000002,82.54837838750001,43.0,94.0
195,81.83690320000001,82.57132920000001,50.0,86.0
196,83.01723070000001,83.47624695000002,57.0,88.0
197,83.01723070000001,83.62706657500001,61.0,93.0
198,83.01723070000001,84.20575491875002,45.0,93.0
199,83.80411570000001,84.28116473125002,57.0,94.0
200,83.41067320000002,84.42542698125001,52.0,88.0
201,84.19755820000002,84.47624663750001,61.0,95.0
202,84.59100070000001,85.21051693958336,62.0,95.0
203,85.37554946666668,85.80038567500002,59.0,93.0
204,85.76770596666668,85.94581037708336,66.0,89.0
205,86.1598624666667,86.56999280625003,64.0,86.0
206,86.5520189666667,86.99156104375002,62.0,95.0
207,84.98339296666668,87.13371777500002,54.0,84.0
208,86.94417546666669,87.40986131041669,61.0,96.0
209,84.59100070000001,87.42620116458336,47.0,95.0
210,87.33633196666669,87.7088806416667,54.0,79.0
211,87.72848846666669,88.22685401875002,59.0,91.0
212,87.72848846666669,88.56835697083335,62.0,94.0
213,88.51280146666669,89.01770296041668,59.0,90.0
214,88.90495796666669,89.04221274166669,62.0,79.0
215,88.12064496666669,89.43600322708336,54.0,81.0
216,89.29711446666668,89.76116632500002,62.0,87.0
217,89.29711446666668,89.79874798958336,59.0,82.0
218,89.29711446666668,89.83959762500002,66.0,87.0
219,89.68927096666668,90.17293065000003,54.0,68.0
220,90.08142746666668,90.31835535208336,62.0,96.0
221,87.72848846666669,90.32652527916669,47.0,95.0
222,90.08142746666668,90.37064288541669,59.0,97.0
223,90.8657404666667,91.42619746458335,59.0,88.0
224,90.8657404666667,91.51933463333336,62.0,93.0
225,91.25789696666669,91.84939968750002,54.0,83.0
226,90.8657404666667,91.9686806229167,47.0,95.0
227,91.65005346666669,92.01116424375002,59.0,93.0
228,92.43436646666669,93.21541149583335,61.0,92.0
229,92.43436646666669,93.60430002500001,45.0,93.0
230,92.82652296666669,93.61246995208336,52.0,88.0
231,93.21867946666669,93.66965944166668,57.0,94.0
232,93.61083596666668,94.05854797083336,61.0,93.0
233,94.00299246666668,94.57161939166669,59.0,88.0
234,94.00299246666668,94.81508321875002,62.0,91.0
235,94.39514896666668,94.94580205208335,54.0,80.0
236,94.78730546666668,95.07652088541668,59.0,87.0
237,94.00299246666668,95.10429863750002,47.0,94.0
238,95.57161846666669,96.04547423750002,57.0,84.0
239,95.57161846666669,96.39187914583336,61.0,84.0
240,95.57161846666669,96.79874151458336,45.0,93.0
241,95.96377496666669,96.83468919375002,52.0,89.0
242,96.35593146666669,97.14024446666669,57.0,95.0
243,96.74808796666669,97.14678040833336,61.0,97.0
244,97.14024446666669,97.93272739375001,62.0,91.0
245,97.53240096666669,98.14841346875002,50.0,81.0
246,97.14024446666669,98.17619122083336,43.0,89.0
247,97.92455746666668,98.23174672500002,55.0,89.0
248,97.92455746666668,98.46213866875001,59.0,88.0
249,98.7088704666667,99.18926217916669,57.0,85.0
250,98.7088704666667,99.42455607916669,61.0,87.0
251,98.7088704666667,99.83958837500002,45.0,92.0
252,99.4931834666667,99.99645097500002,57.0,89.0
253,99.1010269666667,100.17782335625002,52.0,85.0
254,99.88533996666669,100.29873827708336,61.0,91.0
255,100.27749646666669,100.9147507791667,62.0,93.0
256,101.45396596666669,101.56507697500003,66.0,100.0
257,101.06180946666669,101.57488088750003,59.0,92.0
258,101.84612246666669,102.21509545000002,64.0,90.0
259,100.66965296666669,102.60957557500002,54.0,86.0
260,102.23619932500002,102.67775732500002,62.0,88.0
261,100.27749646666669,102.83035457500002,47.0,93.0
262,102.62580932500002,102.98457520000002,61.0,89.0
263,103.40502932500002,103.57873045000002,57.0,87.0
264,103.79463932500002,104.21184670000002,57.0,92.0
265,103.40502932500002,104.28976870000002,62.0,93.0
266,103.40502932500002,104.29301545000003,50.0,96.0
267,104.18424932500002,104.55275545000002,66.0,99.0
268,104.57385932500002,105.04626145000002,57.0,95.0
269,104.96346932500002,105.73294907500002,61.0,95.0
270,104.96346932500002,106.11768895000002,45.0,94.0
271,105.74268932500001,106.21346807500002,57.0,94.0
272,105.35307932500002,106.40340295000001,52.0,91.0
273,106.52190932500002,106.97970107500002,62.0,93.0
274,106.52190932500002,107.02190882500003,59.0,89.0
275,106.91151932500001,107.49268757500002,54.0,85.0
276,106.52190932500002,107.55437582500002,47.0,94.0
277,107.30112932500002,107.84820670000002,59.0,95.0
278,107.69073932500002,107.85957032500002,62.0,89.0
279,108.08034932500001,108.92937445000003,61.0,97.0
280,108.08034932500001,109.06736132500002,42.0,92.0
281,108.46995932500002,109.09982882500002,49.0,80.0
282,108.85956932500002,109.36930907500002,57.0,94.0
283,109.24917932500003,109.38067270000002,61.0,97.0
284,109.63878932500002,110.16800957500001,55.0,93.0
285,109.63878932500002,110.45047682500002,59.0,93.0
286,110.41800932500001,110.72969732500002,55.0,98.0
287,109.63878932500002,110.73294407500002,43.0,94.0
288,110.02839932500002,110.75567132500002,50.0,86.0
289,111.19722932500002,111.65045605208336,57.0,88.0
290,111.19722932500002,111.7993233604167,61.0,93.0
291,111.19722932500002,112.37052075000003,45.0,93.0
292,111.97408063541668,112.4449544041667,57.0,94.0
293,111.5857311354167,112.58734922083336,52.0,88.0
294,112.36243013541669,112.63751103125003,61.0,95.0
295,112.75077963541669,113.31874077916669,55.0,93.0
296,112.75077963541669,113.60353041250002,62.0,94.0
297,113.52747863541668,113.95951745416669,55.0,99.0
298,112.75077963541669,114.08734916458336,43.0,95.0
299,113.1391291354167,114.12294786875002,50.0,94.0
300,113.91582813541669,114.33654009375002,59.0,99.0
301,114.30417763541669,115.07764038958335,61.0,96.0
302,115.08087663541669,115.51776982291669,57.0,94.0
303,114.30417763541669,115.58411286250002,45.0,98.0
304,114.6925271354167,115.69738146666668,52.0,87.0
305,115.8575756354167,116.34786687916669,59.0,88.0
306,115.8575756354167,116.51291541666669,62.0,93.0
307,116.63427463541669,116.92068239166669,59.0,102.0
308,117.02262413541669,117.11971151041669,66.0,104.0
309,117.4109736354167,117.66501893333336,64.0,91.0
310,116.24592513541668,118.06793153958336,54.0,93.0
311,117.79932313541669,118.22974383125002,62.0,94.0
312,115.8575756354167,118.23298007708335,47.0,99.0
313,118.18767263541669,118.53395093958335,61.0,104.0
314,118.5760221354167,118.84624866250002,59.0,93.0
315,118.7701968854167,118.99835221666669,61.0,94.0
316,118.96437163541668,119.6536919979167,62.0,98.0
317,119.35272113541669,119.80417742916669,54.0,95.0
318,119.74107063541669,120.04527774375002,59.0,114.0
319,120.3235948854167,120.51615151250002,59.0,107.0
320,120.51776963541668,120.67310943541669,62.0,98.0
321,120.71194438541669,120.91259162708336,59.0,94.0
322,120.90611913541669,121.03395084583336,62.0,93.0
323,121.10029388541669,121.23783433333335,59.0,93.0
324,120.1294201354167,121.37537478125003,54.0,100.0
325,121.29446863541669,121.4692259104167,59.0,100.0
326,121.29446863541669,121.5371870729167,66.0,95.0
327,121.68281813541668,121.73621619166668,66.0,85.0
328,121.4886433854167,121.75401554375003,54.0,99.0
329,118.96437163541668,121.82035858333336,47.0,98.0
330,121.68281813541668,122.07764012708336,71.0,99.0
331,121.87699288541668,122.11647507708335,59.0,97.0
332,122.07116763541669,122.11647507708335,59.0,91.0
333,122.07116763541669,122.61971130416669,55.0,90.0
334,122.8478666354167,123.14074688333335,55.0,95.0
335,123.0420413854167,123.25239736458336,59.0,89.0
336,122.07116763541669,123.44657211458336,43.0,96.0
337,123.2362161354167,123.47246208125003,62.0,90.0
338,122.45951713541669,123.48378894166669,50.0,91.0
339,123.43039088541668,123.67796369166669,55.0,97.0
340,123.62456563541669,124.38993777500002,61.0,101.0
341,123.62456563541669,124.80741348750003,45.0,97.0
342,124.4012646354167,124.82521283958336,57.0,96.0
343,124.78961413541668,124.91582772291669,61.0,98.0
344,124.01291513541669,124.92877270625002,52.0,96.0
345,125.17796363541669,125.66178238750003,59.0,88.0
346,125.17796363541669,126.00482444583335,62.0,89.0
347,125.9546626354167,126.20385356458335,59.0,94.0
348,125.56631313541669,126.37052022500002,54.0,84.0
349,126.34301213541669,126.64560112083336,59.0,97.0
350,126.73136163541669,127.22974349375002,66.0,95.0
351,126.73136163541669,127.31712213125002,62.0,94.0
352,126.73136163541669,127.32844899166669,59.0,97.0
353,127.1197111354167,127.61971111666669,54.0,77.0
354,127.50806063541668,127.75239719583335,59.0,96.0
355,125.17796363541669,127.95951692916668,47.0,96.0
356,127.50806063541668,127.98217065000003,62.0,96.0
357,127.89641013541669,128.37861076458336,59.0,92.0
358,128.2847596354167,129.10191170833335,62.0,91.0
359,128.2847596354167,129.5177692979167,43.0,93.0
360,129.0614586354167,129.52909615833335,55.0,95.0
361,128.6731091354167,129.69414469583336,50.0,90.0
362,129.44980813541667,129.7701964729167,59.0,96.0
363,129.83815763541668,130.22488901250003,57.0,91.0
364,129.83815763541668,130.5274779979167,61.0,91.0
365,129.83815763541668,130.78961391041668,45.0,97.0
366,130.22650713541668,130.79123203333336,52.0,91.0
367,130.6148566354167,131.48378864166668,57.0,96.0
368,131.3915556354167,132.25730916875003,66.0,83.0
369,132.1682546354167,132.96834741875003,57.0,96.0
370,132.55763354375003,133.09821741875,61.0,98.0
371,132.94724354375003,133.45860666875,66.0,96.0
372,133.33685354375,133.56250266875003,57.0,96.0
373,131.3915556354167,133.88068416875,42.0,91.0
374,131.7799051354167,133.90503479375002,49.0,85.0
375,133.72646354375001,134.05925541875,61.0,100.0
376,133.72646354375001,134.09496966875002,57.0,98.0
377,134.11607354375002,134.22483966875,49.0,85.0
378,134.11607354375002,134.25081366875003,42.0,97.0
379,134.50568354375002,135.04626741875003,55.0,92.0
380,134.50568354375002,135.35795541875,59.0,96.0
381,135.28490354375003,135.71185116875003,55.0,100.0
382,134.50568354375002,135.78977316875003,43.0,84.0
383,134.89529354375003,135.91152629375003,50.0,90.0
384,135.67451354375,136.08360404375003,59.0,98.0
385,136.06412354375001,136.48782441875002,57.0,89.0
386,136.06412354375001,136.90827854375001,61.0,89.0
387,136.84334354375002,137.37418716875,57.0,92.0
388,136.06412354375001,137.46671954375003,45.0,97.0
389,136.45373354375002,137.49918704375003,52.0,90.0
390,137.23295354375003,137.65990116875003,61.0,97.0
391,137.62256354375003,138.03003066875002,62.0,96.0
392,137.62256354375003,138.13717341875002,59.0,87.0
393,138.01217354375,138.48619904375002,54.0,93.0
394,138.40178354375,138.85470516875003,59.0,99.0
395,138.79139354375002,139.28814629375003,54.0,95.0
396,139.18100354375002,139.66476929375003,66.0,93.0
397,139.18100354375002,139.70535366875,59.0,97.0
398,139.57061354375003,140.07223641875,54.0,86.0
399,139.96022354375003,140.27353491875002,59.0,96.0
400,137.62256354375003,140.32223616875,47.0,97.0
401,139.96022354375003,140.36444391875003,66.0,92.0
402,140.34983354375,140.74593704375002,64.0,91.0
403,140.73944354375,141.53165054375003,62.0,91.0
404,141.51866354375002,141.90502679375,55.0,97.0
405,140.73944354375,141.92613066875003,43.0,96.0
406,141.12905354375002,142.07061104375003,50.0,87.0
407,141.90827354375003,142.31736404375002,62.0,96.0
408,142.29788354375003,142.71671429375002,57.0,87.0
409,142.29788354375003,143.08359704375002,61.0,89.0
410,142.29788354375003,143.39041491875003,45.0,96.0
411,143.07710354375,143.51379141875003,57.0,93.0
412,142.68749354375,143.62093416875,52.0,93.0
413,143.46671354375002,143.91151829375002,61.0,96.0
414,143.85632354375002,144.26216729375003,62.0,94.0
415,143.85632354375002,144.32385554375003,59.0,87.0
416,144.24593354375003,144.82223166875002,54.0,86.0
417,144.63554354375003,145.34171166875,59.0,97.0
418,145.02515354375,145.53326991875002,54.0,87.0
419,145.41476354375,145.94723054375,62.0,90.0
420,145.41476354375,145.98294479375002,66.0,86.0
421,145.80437354375002,146.31086654375002,54.0,80.0
422,146.19398354375002,146.54138579375,59.0,95.0
423,146.19398354375002,146.71995704375001,62.0,95.0
424,146.58359354375003,146.81411279375,54.0,76.0
425,143.85632354375002,146.84008679375003,47.0,97.0
426,146.77839854375003,147.54463154375003,59.0,96.0
427,147.75242354375,148.60307204375002,59.0,97.0
428,148.14203354375002,148.67125379375003,62.0,92.0
429,148.53164354375002,148.99755216875002,71.0,97.0
430,148.92125354375003,149.21183766875004,59.0,94.0
431,149.31086354375003,149.52677241875003,59.0,92.0
432,147.36281354375,150.06248616875,54.0,84.0
433,149.31086354375003,150.07709654375003,66.0,85.0
434,149.70047354375004,150.08034329375002,59.0,93.0
435,146.97320354375003,150.11768091875,47.0,97.0
436,150.09008354375,150.11768091875,47.0,95.0
437,150.09008354375,150.64690116875002,59.0,88.0
438,150.09008354375,150.73943354375,62.0,93.0
439,150.47969354375002,151.06735529375,54.0,83.0
440,150.86930354375002,151.22806941875,59.0,93.0
441,151.64852354375003,152.42449679375002,61.0,92.0
442,151.64852354375003,152.81086004375,45.0,93.0
443,152.03813354375,152.81897691875002,52.0,88.0
444,152.42774354375,152.87579504375003,57.0,94.0
445,152.81735354375002,153.26215829375002,61.0,93.0
446,153.20696354375002,153.77189804375,59.0,88.0
447,153.20696354375002,154.01378091875003,62.0,91.0
448,153.59657354375003,154.14365091875,54.0,80.0
449,153.98618354375003,154.27352091875002,59.0,87.0
450,153.20696354375002,154.30111829375002,47.0,94.0
451,154.76540354375,155.23618229375,57.0,84.0
452,154.76540354375,155.58033779375003,61.0,84.0
453,154.76540354375,155.98455816875003,45.0,93.0
454,155.15501354375002,156.02027241875,52.0,89.0
455,155.54462354375002,156.32384354375003,57.0,95.0
456,155.93423354375003,156.33033704375003,61.0,97.0
457,156.32384354375003,157.11118041875002,62.0,91.0
458,156.71345354375,157.32546591875,50.0,81.0
459,156.32384354375003,157.35306329375,43.0,89.0
460,157.10306354375,157.40825804375,55.0,89.0
461,157.10306354375,157.63715391875002,59.0,88.0
462,157.88228354375002,158.35955579375002,57.0,85.0
463,157.88228354375002,158.59332179375002,61.0,87.0
464,157.88228354375002,159.00565904375003,45.0,92.0
465,158.66150354375003,159.16150304375003,57.0,89.0
466,158.27189354375002,159.34169766875002,52.0,85.0
467,159.05111354375003,159.46182741875003,61.0,91.0
468,159.44072354375,160.07383979375,62.0,93.0
469,160.60955354375002,160.71994304375002,66.0,100.0
470,160.21994354375002,160.72968329375,59.0,92.0
471,160.99916354375003,161.36766966875,64.0,90.0
472,159.83033354375002,161.76214979375,54.0,86.0
473,161.38877354375,161.83033154375002,62.0,88.0
474,159.44072354375,161.98292879375003,47.0,93.0
475,161.77838354375,162.13714941875003,61.0,89.0
476,162.55760354375002,162.73130466875003,57.0,87.0
477,162.94721354375002,163.36442091875003,57.0,92.0
478,162.55760354375002,163.44234291875003,62.0,93.0
479,162.55760354375002,163.44558966875002,50.0,96.0
480,163.33682354375003,163.70532966875,66.0,99.0
481,163.72643354375003,164.19883566875,57.0,95.0
482,164.11604354375,164.88552329375003,61.0,95.0
483,164.11604354375,165.27026316875003,45.0,94.0
484,164.89526354375002,165.36604229375,57.0,94.0
485,164.50565354375001,165.55597716875002,52.0,91.0
486,165.67448354375003,166.13227529375,62.0,93.0
487,165.67448354375003,166.17448304375003,59.0,89.0
488,166.06409354375,166.64526179375002,54.0,85.0
489,165.67448354375003,166.70695004375003,47.0,94.0
490,166.45370354375,167.00078091875002,59.0,95.0
491,166.84331354375,167.01214454375003,62.0,89.0
492,167.23292354375002,168.08448138125001,61.0,97.0
493,167.23292354375002,168.22291769375002,42.0,92.0
494,167.62356989375002,168.25549094375,49.0,80.0
495,168.01444889375003,168.52584891875003,57.0,94.0
496,168.40532789375,168.53724955625,61.0,97.0
497,168.79620689375002,169.32715086875,55.0,93.0
498,168.79620689375002,169.61053814375,59.0,93.0
499,169.57796489375002,169.89066809375,55.0,98.0
500,168.79620689375002,169.89392541875,43.0,94.0
501,169.18708589375,169.91672669375,50.0,86.0
502,170.35972289375002,170.81574839375003,57.0,88.0
503,170.35972289375002,170.96558534375,61.0,93.0
504,170.35972289375002,171.54050320625,45.0,93.0
505,171.14148089375,171.61542168125,57.0,94.0
506,170.75060189375,171.75874398125,52.0,88.0
507,171.53235989375003,171.80923251875,61.0,95.0
508,171.92323889375,172.49489943125002,55.0,93.0
509,171.92323889375,172.78154403125,62.0,94.0
510,172.70499689375,173.13984978125,55.0,99.0
511,171.92323889375,173.26851411875,43.0,95.0
512,172.31411789375002,173.30434469375,50.0,94.0
513,173.09587589375002,173.51932814375002,59.0,99.0
514,173.48675489375,174.26525556875,61.0,96.0
515,174.26851289375003,174.70825176875002,57.0,94.0
516,173.48675489375,174.77502693125,45.0,98.0
517,173.87763389375002,174.88903330625,52.0,87.0
518,175.05027089375002,175.546522075,59.0,88.0
519,175.05027089375002,175.7137351375,62.0,93.0
520,175.83668591875002,176.1268497625,59.0,102.0
521,176.23012841875,176.32848904375,66.0,104.0
522,176.62357091875,176.8809478875,64.0,91.0
523,175.44324341875,177.28914448125002,54.0,93.0
524,177.01701341875,177.45307885625002,62.0,94.0
525,175.05027089375002,177.45635754375002,47.0,99.0
526,177.41045591875002,177.76127548125,61.0,104.0
527,177.80389841875,178.07766882500002,59.0,93.0
528,178.00061966875,178.23176713750001,61.0,94.0
529,178.19734091875,178.89570135625002,62.0,98.0
530,178.59078341875002,179.048160325,54.0,95.0
531,178.98422591875,179.29242254375,59.0,114.0
532,179.57438966875,179.769471575,59.0,107.0
533,179.77111091875,179.92848791875002,62.0,98.0
534,179.96783216875002,180.17111079375002,59.0,94.0
535,180.16455341875002,180.294061575,62.0,93.0
536,180.36127466875,180.5006188875,59.0,93.0
537,179.37766841875,180.63996310625,54.0,100.0
538,180.55799591875,180.73504504375,59.0,100.0
539,180.55799591875,180.80389748125,66.0,95.0
540,180.95143841875,181.00553676250001,66.0,85.0
541,180.75471716875,181.02356954375,54.0,99.0
542,178.19734091875,181.0907826375,47.0,98.0
543,180.95143841875,181.35143829375002,71.0,99.0
544,181.14815966875,181.39078254375002,59.0,97.0
545,181.34488091875002,181.39078254375002,59.0,91.0
546,181.34488091875002,181.89590766875003,55.0,90.0
547,182.12480354375003,182.41863441875003,55.0,95.0
548,182.31960854375,182.53064729375,59.0,89.0
549,181.34488091875002,182.72545229375,43.0,96.0
550,182.51441354375,182.75142629375003,62.0,90.0
551,181.73519354375003,182.76278991875003,50.0,91.0
552,182.70921854375,182.95759491875003,55.0,97.0
553,182.90402354375001,183.67187991875002,61.0,101.0
554,182.90402354375001,184.09071066875003,45.0,97.0
555,183.68324354375002,184.10856779375,57.0,96.0
556,184.07285354375003,184.19947679375002,61.0,98.0
557,183.29363354375002,184.21246379375003,52.0,96.0
558,184.46246354375003,184.94785266875002,59.0,88.0
559,184.46246354375003,185.29200816875002,62.0,89.0
560,185.24168354375,185.49168329375001,59.0,94.0
561,184.85207354375,185.65889091875002,54.0,84.0
562,185.63129354375002,185.93486466875,59.0,97.0
563,186.02090354375002,186.51951649375002,66.0,95.0
564,186.02090354375002,186.60689513125,62.0,94.0
565,186.02090354375002,186.61822199166667,59.0,97.0
566,186.40948413541668,186.90948411666668,54.0,77.0
567,186.79783363541668,187.04217019583336,59.0,96.0
568,184.46246354375003,187.24928992916668,47.0,96.0
569,186.79783363541668,187.27194365000003,62.0,96.0
570,187.18618313541668,187.66838376458335,59.0,92.0
571,187.5745326354167,188.39168470833334,62.0,91.0
572,187.5745326354167,188.80754229791668,43.0,93.0
573,188.3512316354167,188.81886915833334,55.0,95.0
574,187.9628821354167,188.98391769583336,50.0,90.0
575,188.7395811354167,189.0599694729167,59.0,96.0
576,189.12793063541667,189.51466201250003,57.0,91.0
577,189.12793063541667,189.8172509979167,61.0,91.0
578,189.12793063541667,190.07938691041667,45.0,97.0
579,189.51628013541668,190.08100503333335,52.0,91.0
580,189.90462963541668,190.77356164166667,57.0,96.0
581,190.6813286354167,191.54702439583335,66.0,83.0
582,191.4580276354167,192.25576223333334,57.0,96.0
583,191.84637713541667,192.38470205833335,61.0,98.0
584,192.23472663541668,192.74161469583336,66.0,96.0
585,192.62103610208337,192.8445084291667,57.0,96.0
586,190.6813286354167,193.15962048750004,42.0,91.0
587,191.0696781354167,193.18373620625002,49.0,85.0
588,193.00688760208337,193.3364690916667,61.0,100.0
589,193.00688760208337,193.37183881250002,57.0,98.0
590,193.39273910208337,193.5004559791667,49.0,85.0
591,193.39273910208337,193.52617941250003,42.0,97.0
592,193.77859060208337,194.31395955833335,55.0,92.0
593,193.77859060208337,194.62264075833335,59.0,96.0
594,194.55029360208337,194.97312253750002,55.0,100.0
595,193.77859060208337,195.05029283750002,43.0,84.0
596,194.16444210208337,195.17087143125002,50.0,90.0
597,194.93614510208334,195.34128917708335,59.0,98.0
598,195.32199660208335,195.74161010833336,57.0,89.0
599,195.32199660208335,196.1580081854167,61.0,89.0
600,196.09369960208335,196.61942227083335,57.0,92.0
601,195.32199660208335,196.71106200208337,45.0,97.0
602,195.70784810208335,196.74321629375004,52.0,90.0
603,196.47955110208335,196.90238003750002,61.0,97.0
604,196.86540260208335,197.26893896250002,62.0,96.0
605,196.86540260208335,197.37504812500003,59.0,87.0
606,197.25125410208335,197.7207067604167,54.0,93.0
607,197.63710560208335,198.08565797083335,59.0,99.0
608,198.02295710208335,198.51491776458334,54.0,95.0
609,198.40880860208335,198.88790754791668,66.0,93.0
610,198.40880860208335,198.92810041250002,59.0,97.0
611,198.79466010208336,199.29144390833335,54.0,86.0
612,199.18051160208336,199.4908005166667,59.0,96.0
613,196.86540260208335,199.5390319541667,47.0,97.0
614,199.18051160208336,199.58083253333336,66.0,92.0
615,199.56636310208336,199.9586454604167,64.0,91.0
616,199.95221460208336,200.73677931875002,62.0,91.0
617,200.72391760208336,201.1065536729167,55.0,97.0
618,199.95221460208336,201.12745396250003,43.0,96.0
619,200.33806610208336,201.2705405604167,50.0,87.0
620,201.10976910208336,201.51491317708337,62.0,96.0
621,201.49562060208336,201.91041096458335,57.0,87.0
622,201.49562060208336,202.27375446041668,61.0,89.0
623,201.49562060208336,202.5776125166667,45.0,96.0
624,202.26732360208337,202.69979882500002,57.0,93.0
625,201.88147210208336,202.80590798750004,52.0,93.0
626,202.65317510208337,203.0936888979167,61.0,96.0
627,203.03902660208337,203.43989348958337,62.0,94.0
628,203.03902660208337,203.50079078541668,59.0,87.0
629,203.42386788541668,203.99277683333335,54.0,86.0
630,203.80848238541668,204.5055961666667,59.0,97.0
631,204.1930968854167,204.69469829583335,54.0,87.0
632,204.5777113854167,205.10335120208336,62.0,90.0
633,204.5777113854167,205.13860753125002,66.0,86.0
634,204.9623258854167,205.4623247354167,54.0,80.0
635,205.3469403854167,205.68988831458336,59.0,95.0
636,205.3469403854167,205.8661699604167,62.0,95.0
637,205.7315548854167,205.95911846458336,54.0,76.0
638,203.03902660208337,205.98475943125004,47.0,97.0
639,206.1161693854167,206.6498220041667,55.0,92.0
640,205.9238621354167,206.68027065208335,59.0,96.0
641,206.1161693854167,206.68027065208335,59.0,96.0
642,206.8853983854167,207.30687177500002,55.0,100.0
643,206.1161693854167,207.38379467500002,43.0,84.0
644,206.5007838854167,207.50398670625003,50.0,90.0
645,207.2700128854167,207.6738581104167,59.0,98.0
646,207.6546273854167,208.0728956541667,57.0,89.0
647,207.6546273854167,208.48795880208337,61.0,89.0
648,208.42385638541668,208.9478936416667,57.0,92.0
649,207.6546273854167,209.03923958541668,45.0,97.0
650,208.0392418854167,209.07129079375002,52.0,90.0
651,208.80847088541668,209.22994427500004,61.0,97.0
652,209.1930853854167,209.59532805000003,62.0,96.0
653,209.1930853854167,209.70109703750003,59.0,87.0
654,209.5776998854167,210.04564752708336,54.0,93.0
655,209.9623143854167,210.4094287416667,59.0,99.0
656,210.3469288854167,210.8373123729167,54.0,95.0
657,210.7315433854167,211.20910638958335,66.0,93.0
658,210.7315433854167,211.24917040000003,59.0,97.0
659,211.1161578854167,211.61134905416668,54.0,86.0
660,211.5007723854167,211.81006654583337,59.0,96.0
661,209.1930853854167,211.85814335833336,47.0,97.0
662,211.5007723854167,211.8998099291667,66.0,92.0
663,211.8853868854167,212.27641162708335,64.0,91.0
664,212.2700013854167,213.05205086875003,62.0,91.0
665,213.0392303854167,213.42063976458337,55.0,97.0
666,212.2700013854167,213.44147305000004,43.0,96.0
667,212.6546158854167,213.58410092708337,50.0,87.0
668,213.42384488541668,213.82769011041668,62.0,96.0
669,213.80845938541668,214.2252503479167,57.0,87.0
670,213.80845938541668,214.59094612708336,61.0,89.0
671,213.80845938541668,214.89677135833335,45.0,96.0
672,214.58447363541669,215.01974870000004,57.0,93.0
673,214.19612413541668,215.12654481250001,52.0,93.0
674,214.9728231354167,215.41618881458336,61.0,96.0
675,215.3611726354167,215.76787451875,62.0,94.0
676,215.3611726354167,215.82976369375,59.0,87.0
677,215.75158789375,216.32976308125,54.0,86.0
678,216.14246689375003,216.85093508125001,59.0,97.0
679,216.53334589375,217.04311725625,54.0,87.0
680,216.92422489375002,217.45842619375,62.0,90.0
681,216.92422489375002,217.49425676875,66.0,86.0
682,217.31510389375,217.82324659375,54.0,80.0
683,217.70598289375002,218.05451666875,59.0,95.0
684,217.70598289375002,218.23366954375,62.0,95.0
685,218.09686189375,218.32813196875,54.0,76.0
686,215.3611726354167,218.35419056875,47.0,97.0
687,218.29230139375002,219.06103009375002,59.0,96.0
688,218.84278931875002,220.03659893125,54.0,44.0
689,219.20760971875,220.03985625625,66.0,74.0
690,219.23041099375,220.05777154375002,62.0,71.0
691,219.62454731875002,220.08545880625002,59.0,94.0
692,218.47471159375002,220.09034479375,47.0,73.0
693,220.09197345625,220.92910598125002,61.0,93.0
694,220.08871613125,221.23203720625003,57.0,87.0
695,220.58871551875,221.50076651875003,52.0,86.0
696,220.09360211875,221.57242766875,45.0,93.0
697,221.14571809375002,222.54636784375,61.0,93.0
698,221.77926780625,222.65223090625003,57.0,88.0
699,221.15386140625,222.69457613125002,64.0,94.0
700,221.14734675625002,223.47633413125,69.0,93.0
701,223.17177424375,223.58056853125,54.0,77.0
702,222.57079778125,223.60662713125,47.0,95.0
703,223.49424941875,223.79066599375003,59.0,93.0
704,223.78252268125001,223.99262014375,69.0,90.0
705,224.60173991875,225.32486606875,71.0,93.0
706,224.92584375625,225.36558263125002,78.0,78.0
707,225.32649473125002,225.47633168125,83.0,90.0
708,226.00564699375002,226.10988139375002,83.0,80.0
709,226.11476738125,226.23691706875002,95.0,88.0
710,224.32812461875002,226.61313810625,66.0,83.0
711,224.02193606875002,226.65385466875,59.0,91.0
