,start,end,pitch,velocity
0,16.71873328125,18.532003072916666,72.0,94.0
1,19.033545781249998,19.168576510416667,67.0,87.0
2,19.26502703125,19.506153333333334,67.0,93.0
3,19.496508281249998,19.65854515625,79.0,97.0
4,19.72798953125,19.886168385416667,76.0,92.0
5,19.959470781249998,20.127294687499997,74.0,93.0
6,20.19095203125,20.435936354166664,72.0,92.0
7,20.422433281249997,22.154684635416665,71.0,93.0
8,22.73724578125,22.953294947916664,72.0,93.0
9,22.968727031249998,23.099899739583332,79.0,93.0
10,23.20020828125,23.33138098958333,79.0,93.0
11,23.431689531249997,23.570578281249997,79.0,93.0
12,23.66317078125,23.803988541666666,79.0,98.0
13,23.894652031249997,24.07790802083333,72.0,93.0
14,24.12613328125,25.817875416666666,69.0,93.0
15,26.440945781249997,26.633846822916666,69.0,96.0
16,26.67242703125,26.79974171875,72.0,96.0
17,26.903908281249997,27.038939010416666,72.0,94.0
18,27.13538953125,27.235698072916666,72.0,88.0
19,27.366870781249997,27.55591380208333,72.0,91.0
20,27.59835203125,27.760388906249997,69.0,96.0
21,27.82983328125,29.21521239583333,76.0,93.0
22,29.217135468749998,29.332519843749996,74.0,103.0
23,29.447904218749997,29.597903906249996,76.0,98.0
24,29.678672968749996,29.80944192708333,74.0,101.0
25,29.909441718749996,30.047902968749998,72.0,92.0
26,30.14021046875,31.370977135416663,67.0,92.0
27,31.524822968749998,32.57482078125,72.0,98.0
28,33.832510468749994,33.93827947916667,67.0,98.0
29,34.06327921875,34.21712505208333,72.0,99.0
30,34.29404796874999,34.415201562499995,79.0,96.0
31,34.524816718749996,34.663277968749995,76.0,94.0
32,34.75558546875,34.922892812499995,74.0,94.0
33,34.986354218749995,35.097892447916664,72.0,92.0
34,35.21712296875,37.01134999999999,79.0,94.0
35,37.52481046875,37.66134864583333,72.0,99.0
36,37.75557921875,37.924809635416665,72.0,103.0
37,37.986347968749996,38.11711692708333,83.0,96.0
38,38.21711671875,38.32865494791666,83.0,96.0
39,38.447885468749995,38.559423697916664,83.0,95.0
40,38.67865421875,38.830576979166665,83.0,93.0
41,38.90942296874999,40.45172744791667,81.0,96.0
42,41.21711046874999,41.338264062499995,79.0,92.0
43,41.447879218749996,41.5690328125,79.0,94.0
44,41.67864796875,41.81710921875,79.0,96.0
45,41.909416718749995,42.02480109375,79.0,94.0
46,42.14018546875,42.255569843749996,79.0,97.0
47,42.37095421875,42.49787703125,76.0,93.0
48,42.601722968749996,44.453642187499995,74.0,106.0
49,45.3705516875,45.721696520833326,74.0,109.0
50,45.82856668749999,46.154902375,76.0,106.0
51,46.2865816875,47.12818425,77.0,96.0
52,47.202611687499996,47.60528320833333,76.0,103.0
53,47.6606266875,48.070931791666666,74.0,109.0
54,48.118641687499995,48.590015458333326,77.0,103.0
55,48.5766566875,48.72932835416666,76.0,99.0
56,48.8056641875,49.33619822916666,74.0,109.0
57,49.4926866875,49.62818279166666,74.0,106.0
58,49.7216941875,49.86100708333333,77.0,99.0
59,49.95070168749999,50.43925102083333,76.0,99.0
60,50.4087166875,50.73886916666666,74.0,99.0
61,50.86673168749999,51.22360170833333,74.0,99.0
62,51.324746687499996,51.677799916666665,72.0,95.0
63,51.78284049375,52.09629608541667,76.0,99.0
64,52.24155599375,52.39446116041667,74.0,99.0
65,52.470913743749996,52.92962924375,72.0,94.0
66,52.92962924375,53.05959863541666,72.0,98.0
67,53.15898699375,53.28704507083333,74.0,99.0
68,53.38834474375,53.58329883125,76.0,95.0
69,53.617702493749995,54.00761066875,74.0,103.0
70,54.07641799375,54.39751884375,72.0,94.0
71,54.535133493749996,54.96900190416667,72.0,93.0
72,54.99384899375,55.345530877083334,71.0,97.0
73,55.452952518749996,55.752951893749994,74.0,101.0
74,55.914490018749994,56.07795121666666,72.0,93.0
75,56.14525876875,56.481796529166665,71.0,95.0
76,56.606796268749996,56.7394883,74.0,98.0
77,56.83756501875,56.989487779166666,72.0,93.0
78,57.068333768749994,57.2010258,74.0,99.0
79,57.29910251875,57.71256319583333,72.0,106.0
80,57.760640018749996,58.147177674999995,71.0,99.0
81,58.222177518749994,58.57602293541666,72.0,99.0
82,58.68371501874999,58.84525314375,74.0,94.0
83,58.914483768749996,60.26448095625,76.0,97.0
84,60.529865018749994,60.651018612499996,74.0,109.0
85,60.76063376875,60.90294116458333,76.0,103.0
86,60.99140251874999,61.793323924999996,77.0,98.0
87,61.91447751875,62.23370762291666,76.0,113.0
88,62.376015018749996,62.75293731041666,74.0,108.0
89,62.837552518749995,63.16255184166666,81.0,99.0
90,63.29909001874999,63.4894742375,77.0,94.0
91,63.529858768749996,64.00870392499999,74.0,109.0
92,63.991396268749995,64.18178048749999,81.0,92.0
93,64.22216501874999,64.35293397708332,83.0,90.0
94,64.45293376875,64.61062574791666,84.0,99.0
95,64.68370251875,65.12985543541666,83.0,106.0
96,65.14524001875,65.45485475833333,81.0,96.0
97,65.60677751875,65.95677678958333,81.0,94.0
98,66.06831501875,66.43080272708333,76.0,103.0
99,66.53111126875,66.90919731041666,84.0,103.0
100,66.99407376874998,67.15225262291666,83.0,99.0
101,67.22555501874999,67.57470590416666,81.0,96.0
102,67.68851751874999,67.81969022708333,81.0,93.0
103,67.91999876874999,68.05310048749999,83.0,96.0
104,68.15148001875,68.30387184166666,84.0,96.0
105,68.38296126875,69.44391699791666,83.0,99.0
106,69.77184876874999,70.08627746666666,81.0,95.0
107,70.23481126875,70.87331371666666,81.0,98.0
108,70.92925501874998,71.53303527916665,80.0,99.0
109,71.62369876874999,71.96127559166666,81.0,95.0
110,72.08666126874999,73.99023963958332,83.0,94.0
111,74.40368585625,74.76110431458332,88.0,97.0
112,74.86713196874999,75.22482353124998,76.0,106.0
113,75.32866946874998,75.69982254166665,79.0,99.0
114,75.79020696874998,76.16136004166665,86.0,99.0
115,76.25174446874998,76.53828233333331,88.0,94.0
116,76.71328196874998,77.75174134374998,88.0,106.0
117,78.09789446874998,78.40173998958332,88.0,98.0
118,78.55943196874998,78.89212358333332,76.0,98.0
119,79.02096946874998,79.34596879166665,79.0,99.0
120,79.48250696874999,79.82866009374999,86.0,103.0
121,79.94404446874998,80.14019790624998,88.0,99.0
122,80.40558196874998,81.59019488541665,88.0,103.0
123,81.79019446874999,82.16134754166664,88.0,93.0
124,82.25173196874998,82.58634665624999,91.0,98.0
125,82.71326946874998,82.95557665624999,88.0,99.0
126,83.17480696874998,83.55365233333332,88.0,108.0
127,83.63634446874998,83.89788238541665,89.0,96.0
128,84.09788196874999,84.74595754166666,89.0,98.0
129,84.79018821874999,84.97864936458332,81.0,94.0
130,85.02095696874999,85.33441785416665,88.0,108.0
131,85.48249446874999,85.61903264583331,89.0,94.0
132,85.71326321874999,86.27287743749999,89.0,99.0
133,86.40556946874999,86.82287629166665,81.0,82.0
134,86.86710696874998,88.71325696874999,79.0,92.0
135,89.17479446874998,89.53056295833332,88.0,97.0
136,89.63633196874999,89.99402353124998,76.0,106.0
137,90.09786946874998,90.46902254166665,79.0,99.0
138,90.55940696874998,90.93056004166665,86.0,99.0
139,91.02094446874999,91.30748233333331,88.0,94.0
140,91.48248196874998,92.52094134374998,88.0,106.0
141,92.86709446874998,93.17093998958332,88.0,98.0
142,93.32863196874999,93.66132358333331,86.0,98.0
143,93.79016946874998,94.11516879166665,84.0,99.0
144,94.25170696874999,94.59786009374999,83.0,103.0
145,94.71324446874999,94.90939790624998,91.0,99.0
146,95.17478196874998,96.35939488541665,91.0,103.0
147,96.55939446874999,96.93054754166664,91.0,93.0
148,97.02093196874998,97.35554665624998,89.0,98.0
149,97.48246946874998,97.72477665624999,88.0,99.0
150,97.94400696874999,98.32285233333332,91.0,108.0
151,98.40554446874998,98.63631321874999,89.0,96.0
152,98.63631321874999,99.51515754166665,89.0,98.0
153,99.55938821874999,99.74784936458332,88.0,94.0
154,99.79015696874998,100.10361785416666,91.0,108.0
155,100.25169446874997,100.38823264583331,89.0,94.0
156,100.48246321874998,101.04207743749998,89.0,99.0
157,101.17476946874999,101.59207629166664,81.0,82.0
158,101.63630696874998,103.48245696874999,88.0,92.0
159,103.94399446874999,104.05745577083331,86.0,103.0
160,104.17476321874999,104.29976295833332,88.0,109.0
161,104.40553196874998,104.56899316666664,91.0,108.0
162,104.63630071874998,104.78437733333331,88.0,106.0
163,104.86706946874997,105.04591524999998,86.0,109.0
164,105.09783821874998,105.25553019791664,84.0,103.0
165,105.32860696874998,107.25552603124999,84.0,96.0
166,120.09780696874998,121.90549551041664,72.0,94.0
167,122.40549446874999,122.54010957291665,67.0,87.0
168,122.63626321874997,122.87664733333332,67.0,93.0
169,122.86703196874998,123.02857009374998,79.0,97.0
170,123.09780071874998,123.25549269791665,76.0,92.0
171,123.32856946874998,123.49587681249999,74.0,93.0
172,123.55933821874999,123.80356847916664,72.0,92.0
173,123.79010696874998,125.51702644791665,71.0,93.0
174,126.09779446874998,126.31317863541665,72.0,93.0
175,126.32856321874999,126.45933217708333,79.0,93.0
176,126.55933196874997,126.69010092708331,79.0,93.0
177,126.79010071874998,126.92856196874999,79.0,93.0
178,127.02086946874999,127.16125379166665,79.0,98.0
179,127.25163821874997,127.43433014583331,72.0,93.0
180,127.48240696874998,129.16894191666665,69.0,93.0
181,129.79009446875,129.98240176041665,69.0,96.0
182,130.02086321874998,130.14778603124998,72.0,96.0
183,130.25163196875,130.38624707291666,72.0,94.0
184,130.48240071875,130.58240051041665,72.0,88.0
185,130.71316946874998,130.90163061458333,72.0,91.0
186,130.94393821875,131.10547634374998,69.0,96.0
187,131.17470696874997,132.5573963958333,76.0,93.0
188,132.55931946874998,132.67470384374997,74.0,103.0
189,132.79008821875,132.94008790624997,76.0,98.0
190,133.02085696874997,133.15162592708333,74.0,101.0
191,133.25162571874998,133.39008696874998,72.0,92.0
192,133.48239446875,134.71316113541664,67.0,92.0
193,134.86700696875,135.91700478125,72.0,98.0
194,137.17469446874998,137.28046347916666,67.0,98.0
195,137.40546321875,137.5593090520833,72.0,99.0
196,137.63623196875,137.7573855625,79.0,96.0
197,137.86700071874998,138.00546196874998,76.0,94.0
198,138.09776946875,138.26507681249998,74.0,94.0
199,138.32853821875,138.44007644791665,72.0,92.0
200,138.55930696874998,140.35353399999997,79.0,94.0
201,140.86699446874997,141.00353264583333,72.0,99.0
202,141.09776321875,141.26699363541667,72.0,103.0
203,141.32853196874999,141.45930092708332,83.0,96.0
204,141.55930071874997,141.67083894791665,83.0,96.0
205,141.79006946874998,141.90160769791663,83.0,95.0
206,142.02083821875,142.17276097916664,83.0,93.0
207,142.25160696874997,143.79391144791666,81.0,96.0
208,144.55929446874998,144.68044806249998,79.0,92.0
209,144.79006321875,144.9112168125,79.0,94.0
210,145.02083196874997,145.15929321874998,79.0,96.0
211,145.25160071874998,145.36698509374997,79.0,94.0
212,145.48236946875,145.59775384374998,79.0,97.0
213,145.71313821874998,145.84006103125,76.0,93.0
214,145.94390696874999,147.79582618749998,74.0,106.0
215,148.71313196874996,149.06697738541664,74.0,109.0
216,149.17466946874998,149.50351493749997,76.0,106.0
217,149.63620696875,150.484282125,77.0,96.0
218,150.55928196874999,150.96505035416664,76.0,103.0
219,151.02081946874998,151.43428014583333,74.0,109.0
220,151.48235696874997,151.95735597916666,77.0,103.0
221,151.94389446875,152.0977403020833,76.0,99.0
222,152.17466321874997,152.70927748958331,74.0,109.0
223,152.86696946874997,153.00350764583334,74.0,106.0
224,153.09773821874998,153.23812254166666,77.0,99.0
225,153.32850696875,153.82081363541664,76.0,99.0
226,153.79004446874998,154.12273608333334,74.0,99.0
227,154.25158196874997,154.61119660416665,74.0,99.0
228,154.71311946875,155.06888795833333,72.0,95.0
229,155.17465696874999,155.49004092708333,76.0,99.0
230,155.63619446874998,155.7900403020833,74.0,99.0
231,155.86696321875,156.32850071874998,72.0,94.0
232,156.32850071874998,156.4592696770833,72.0,98.0
233,156.55926946875,156.68811535416665,74.0,99.0
234,156.79003821875,156.98619165624999,76.0,95.0
235,157.02080696874998,157.41311384374998,74.0,103.0
236,157.48234446875,157.80542071874999,72.0,94.0
237,157.94388196874996,158.3804195208333,72.0,93.0
238,158.40541946874998,158.75926488541666,71.0,97.0
239,158.86695696875,159.16695634374997,74.0,101.0
240,159.32849446874997,159.49195566666666,72.0,93.0
241,159.55926321875,159.89580097916667,71.0,95.0
242,160.02080071874997,160.15349275,74.0,98.0
243,160.25156946874998,160.40349222916666,72.0,93.0
244,160.48233821875,160.61503025,74.0,99.0
245,160.71310696874997,161.12656764583332,72.0,106.0
246,161.17464446875,161.561182125,71.0,99.0
247,161.63618196874998,161.99002738541665,72.0,99.0
248,162.09771946874997,162.25925759374996,74.0,94.0
249,162.32848821874998,163.67848540625,76.0,97.0
250,163.94386946875,164.0650230625,74.0,109.0
251,164.17463821874998,164.31694561458332,76.0,103.0
252,164.40540696875,165.20732837499997,77.0,98.0
253,165.32848196875,165.64771207291665,76.0,113.0
254,165.79001946875,166.16694176041665,74.0,108.0
255,166.25155696874998,166.57655629166663,81.0,99.0
256,166.71309446875,166.90347868749998,77.0,94.0
257,166.94386321874998,167.42270837499998,74.0,109.0
258,167.40540071875,167.59578493749999,81.0,92.0
259,167.63616946874998,167.76693842708332,83.0,90.0
260,167.86693821874997,168.02463019791665,84.0,99.0
261,168.09770696875,168.54385988541665,83.0,106.0
262,168.55924446874997,168.86885920833333,81.0,96.0
263,169.02078196875,169.37078123958332,81.0,94.0
264,169.48231946874998,169.84385717708332,76.0,103.0
265,169.94385696874997,170.32077926041666,84.0,103.0
266,170.40539446875,170.56308644791665,83.0,99.0
267,170.63616321874997,170.98423941666664,81.0,96.0
268,171.09770071875,171.2284696770833,81.0,93.0
269,171.32846946874997,171.4611615,83.0,96.0
270,171.55923821874998,171.71116097916666,84.0,96.0
271,171.79000696875,172.84769707291665,83.0,99.0
272,173.17461946875,173.48808035416664,81.0,95.0
273,173.63615696875,174.27269410416665,81.0,98.0
274,174.32846321875,174.93038504166665,80.0,99.0
275,175.02076946875,175.35730722916665,81.0,95.0
276,175.48230696874998,177.3784568645833,83.0,94.0
277,177.78999446874997,178.1457629583333,88.0,97.0
278,178.25153196875,178.60922353125,76.0,106.0
279,178.71306946874998,179.08422254166663,79.0,99.0
280,179.17460696874997,179.54576004166665,86.0,99.0
281,179.63614446875,179.9226823333333,88.0,94.0
282,180.09768196874998,181.13614134374998,88.0,106.0
283,181.48229446874998,181.78613998958332,88.0,98.0
284,181.94383196874998,182.2765235833333,76.0,98.0
285,182.40536946875,182.73036879166665,79.0,99.0
286,182.86690696875,183.21306009375,86.0,103.0
287,183.32844446874998,183.52459790625,88.0,99.0
288,183.78998196875,184.97459488541665,88.0,103.0
289,185.17459446875,185.54574754166666,88.0,93.0
290,185.63613196874996,185.97074665625,91.0,98.0
291,186.09766946874998,186.33997665624997,88.0,99.0
292,186.55920696875,186.9380523333333,88.0,108.0
293,187.02074446874997,187.28228238541664,89.0,96.0
294,187.48228196875,188.13035754166665,89.0,98.0
295,188.17458821875,188.36304936458333,81.0,94.0
296,188.40535696874997,188.71881785416664,88.0,108.0
297,188.86689446875,189.0034326458333,89.0,94.0
298,189.09766321874997,189.6572774375,89.0,99.0
299,189.78996946874997,190.20727629166663,81.0,82.0
300,190.25150696875,192.09765696875,79.0,92.0
301,192.55919446874998,192.91496295833332,88.0,97.0
302,193.02073196875,193.37842353124998,76.0,106.0
303,193.48226946875,193.85342254166665,79.0,99.0
304,193.94380696874998,194.31496004166667,86.0,99.0
305,194.40534446875,194.6918823333333,88.0,94.0
306,194.86688196874996,195.90534134374997,88.0,106.0
307,196.25149446874997,196.55533998958333,88.0,98.0
308,196.71303196875,197.0457235833333,86.0,98.0
309,197.17456946874998,197.49956879166666,84.0,99.0
310,197.63610696874997,197.98226009374997,83.0,103.0
311,198.09764446875,198.29379790624998,91.0,99.0
312,198.55918196874998,199.74379488541666,91.0,103.0
313,199.94379446874999,200.31494754166664,91.0,93.0
314,200.40533196874998,200.73994665624997,89.0,98.0
315,200.86686946875,201.10917665624999,88.0,99.0
316,201.32840696875,201.70725233333332,91.0,108.0
317,201.78994446874998,202.02071321875,89.0,96.0
318,202.02071321875,202.89955754166664,89.0,98.0
319,202.94378821874997,203.13224936458332,88.0,94.0
320,203.17455696874998,203.48801785416666,91.0,108.0
321,203.63609446874997,203.7726326458333,89.0,94.0
322,203.86686321874998,204.42647743749998,89.0,99.0
323,204.55916946874999,204.97647629166664,81.0,82.0
324,205.02070696874998,206.86685696874997,88.0,92.0
325,207.32839446875,207.4418557708333,86.0,103.0
326,207.55916321874997,207.6841629583333,88.0,109.0
327,207.78993196874998,207.95339316666664,91.0,108.0
328,208.02070071875,208.1687773333333,88.0,106.0
329,208.25146946874997,208.43031524999998,86.0,109.0
330,208.48223821874998,208.63993019791664,84.0,103.0
331,208.71300696875,210.63992603124998,84.0,96.0
