,start,end,pitch,velocity
0,15.06346279375,15.526924370833333,51.0,71.0
1,15.52500129375,15.834616704166667,63.0,88.0
2,15.98653979375,16.290385972916667,63.0,100.0
3,16.44807829375,16.732693702083335,63.0,88.0
4,16.90961679375,17.730770708333335,62.0,82.0
5,17.83269379375,18.555770777083332,58.0,88.0
6,18.75577079375,19.038463125,60.0,95.0
7,19.21730929375,19.51346316458333,60.0,92.0
8,19.67884779375,19.986540127083334,58.0,97.0
9,20.14038629375,20.576924791666666,56.0,83.0
10,20.60192479375,21.51346333125,58.0,82.0
11,22.44807879375,22.801924977083335,51.0,81.0
12,22.90961729375,23.2500019375,63.0,92.0
13,23.37115579375,23.726925054166667,63.0,95.0
14,23.83269429375,24.176925091666668,63.0,99.0
15,24.294232793749998,24.990386697916666,62.0,81.0
16,25.67884829375,26.14038679375,58.0,88.0
17,26.14038679375,28.305771589583333,60.0,78.0
18,29.83269479375,30.2423102125,51.0,76.0
19,30.29423329375,30.6461564,63.0,90.0
20,30.75577179375,31.034617970833335,63.0,92.0
21,31.21731029375,31.67884879375,63.0,92.0
22,31.67884879375,32.60192579375,62.0,79.0
23,32.60192579375,33.49038740625,58.0,66.0
24,33.52500279375,33.84807974375,60.0,86.0
25,33.98654129375,34.24807977708333,60.0,85.0
26,34.44807979375,34.757695204166666,58.0,90.0
27,34.90961829375,35.407695258333334,56.0,73.0
28,35.371156793749996,36.36731072291666,58.0,76.0
29,36.75577229375,36.96731077291667,55.0,73.0
30,36.98654154375,37.14808001875,53.0,61.0
31,37.21731079375,37.49615697083333,51.0,78.0
32,37.67884929375,37.876926233333336,63.0,92.0
33,38.14038779375,38.52500321041666,63.0,95.0
34,38.60192629375,39.04423402291667,67.0,83.0
35,39.06346479375,39.48269559791667,65.0,86.0
36,39.52500329375,39.97884948541667,63.0,95.0
37,39.98654179375,40.315387975,62.0,89.0
38,40.44808029375,40.91731110208333,58.0,88.0
39,40.90961879375,42.14423428125,63.0,95.0
40,42.29423429375,42.484618925,60.0,81.0
41,42.52500354375,42.68461894166666,62.0,63.0
42,42.75577279375,43.1423112875,63.0,97.0
43,43.21731129375,43.45769592916667,62.0,85.0
44,43.44808054375,43.97115751041667,63.0,93.0
45,44.14038829375,44.43846524166667,58.0,90.0
46,44.60192679375,46.6153885,65.0,89.0
47,48.755773293749996,48.87885022708333,67.0,96.0
48,48.98654254375,49.444234889583335,67.0,88.0
49,49.67885029375,49.915388775,65.0,96.0
50,49.90961954375,50.069234941666664,63.0,88.0
51,50.14038879375,50.55192728958333,65.0,96.0
52,50.60192729375,50.840388852083336,60.0,81.0
53,50.83269654375,52.05769664583333,63.0,93.0
54,52.44808129375,52.57885053541666,67.0,85.0
55,52.67885054375,53.19038904791667,67.0,97.0
56,53.37115829375,53.61731216041667,65.0,99.0
57,53.60192754375,53.776927558333334,63.0,97.0
58,53.83269679375,54.119235279166666,65.0,95.0
59,54.06346604375,54.261542983333335,63.0,96.0
60,54.52500454375,55.655773868749996,58.0,97.0
61,55.90962004375,56.12885083125,55.0,71.0
62,56.14038929375,56.263466227083335,67.0,89.0
63,56.37115854375,56.81538935,67.0,92.0
64,57.06346629375,57.255774002083335,65.0,95.0
65,57.29423554375,57.49423556041667,63.0,90.0
66,57.52500479375,57.946158675,65.0,99.0
67,57.98654329375,58.203851004166665,60.0,79.0
68,58.21731254375,58.738466433333336,63.0,100.0
69,59.14038954375,59.25962032291667,63.0,93.0
70,59.37115879375,59.796158829166664,63.0,95.0
71,59.83269729375,59.96154345833333,62.0,75.0
72,60.063466543749996,60.603851204166666,62.0,90.0
73,60.75577429375,60.87115891875,60.0,92.0
74,60.98654354375,61.501928202083334,60.0,90.0
75,61.67885129375,61.836543614583334,58.0,88.0
76,61.90962054375,63.32692835416667,58.0,97.0
77,63.52500529375,63.62885145625,67.0,82.0
78,63.75577454375,64.26538997083334,67.0,99.0
79,64.44808229375,64.64231307916667,65.0,96.0
80,64.67885154375,64.85192848125,63.0,90.0
81,64.90962079375,65.21731312708333,65.0,95.0
82,65.37115929375,65.5500054625,60.0,75.0
83,65.60192854375,66.80962095208334,63.0,95.0
84,67.21731329375,67.34615945833333,62.0,88.0
85,67.44808254375,67.75962103125,62.0,86.0
86,67.90962104375,68.19039029791666,63.0,93.0
87,68.37115954375,68.4923134,65.0,90.0
88,68.60192879375,69.01923652083333,58.0,81.0
89,69.06346729375,69.22115961458333,55.0,85.0
90,69.29423654375,69.58077502916666,58.0,90.0
91,69.75577504375,70.47692895,65.0,95.0
92,70.44808279375,71.192313625,63.0,92.0
93,71.14039054375,71.23462132083333,58.0,85.0
94,71.37115979375,71.69423674375,58.0,96.0
95,71.83269829375,72.07115985208333,56.0,86.0
96,72.06346754375,72.3346214125,55.0,68.0
97,72.29423679375,72.6576983625,56.0,92.0
98,72.75577529375,72.89039068958333,63.0,95.0
99,72.98654454375,73.92116000625,63.0,99.0
100,74.83269854375,74.93654470625,58.0,90.0
101,75.06346779375,75.33077550833333,58.0,93.0
102,75.52500629375,75.76539092916667,56.0,97.0
103,75.75577554375,75.9692371,55.0,73.0
104,75.98654479375,76.29808328125,56.0,99.0
105,76.44808329375,76.56731407291667,65.0,100.0
106,76.67885254375,77.607698775,65.0,112.0
107,78.52500654375,78.64039116875,63.0,97.0
108,78.75577579375,79.02500658541666,63.0,93.0
109,79.21731429375,79.46731431458333,62.0,67.0
110,79.44808354375,82.16346838541666,63.0,64.0
111,83.37116079375,83.83462237083333,51.0,71.0
112,83.83269929375,84.14231470416667,63.0,88.0
113,84.29423779375,84.59808397291667,63.0,100.0
114,84.75577629375,85.04039170208333,63.0,88.0
115,85.21731479375,86.03846870833333,62.0,82.0
116,86.14039179375,86.86346877708333,58.0,88.0
117,87.06346879375,87.346161125,60.0,95.0
118,87.52500729375,87.82116116458333,60.0,92.0
119,87.98654579375,88.29423812708333,58.0,97.0
120,88.44808429375,88.88462279166667,56.0,83.0
121,88.90962279375,89.82116133125,58.0,82.0
122,90.75577679375,91.10962297708333,51.0,81.0
123,91.21731529375,91.5576999375,63.0,92.0
124,91.67885379375,92.03462305416667,63.0,95.0
125,92.14039229375,92.48462309166666,63.0,99.0
126,92.60193079375,93.29808469791666,62.0,81.0
127,93.98654629375,94.4192386375,63.0,127.0
128,94.44808479375,96.21731571041667,60.0,95.0
129,96.52500804375,96.78654652708333,60.0,93.0
130,96.75577729375,97.01154654583333,58.0,93.0
131,96.98654654375,97.64231582916666,56.0,85.0
132,98.14039279375,98.5500082125,51.0,76.0
133,98.60193129375,98.9538544,63.0,90.0
134,99.06346979375,99.34231597083333,63.0,92.0
135,99.52500829375,99.98654679375,63.0,92.0
136,99.98654679375,100.90962379375,62.0,79.0
137,100.90962379375,101.79808540625,58.0,66.0
138,101.83270079374999,102.15577774375,60.0,86.0
139,102.29423929375,102.61539316666666,63.0,112.0
140,102.52500854375,103.20385475416667,65.0,90.0
141,103.21731629375,103.45770092916666,63.0,95.0
142,103.44808554375,104.34423946458334,58.0,75.0
143,105.06347029375,105.31731646875,55.0,95.0
144,105.29423954375,105.50385494583334,53.0,77.0
145,105.52500879375,105.83847035833334,51.0,73.0
146,105.98654729375,106.18462423333334,63.0,92.0
147,106.44808579375,106.83270121041667,63.0,95.0
148,106.90962429375,107.35193202291667,67.0,83.0
149,107.37116279375,107.79039359791666,65.0,86.0
150,107.83270129375,108.28654748541666,63.0,95.0
151,108.29423979375,108.623085975,62.0,89.0
152,108.75577829375,109.22500910208333,58.0,88.0
153,109.21731679375,110.45193228125,63.0,95.0
154,110.60193229375,110.792316925,60.0,81.0
155,110.83270154375,110.99231694166667,62.0,63.0
156,111.06347079375,111.4500092875,63.0,97.0
157,111.52500929375,111.76539392916666,62.0,85.0
158,111.75577854375,112.27885551041666,63.0,93.0
159,112.44808629375,112.74616324166666,58.0,90.0
160,112.90962479375,113.4461633,67.0,89.0
161,113.52500946041667,114.75577879375,65.0,89.0
162,115.21731729375,115.34039422708334,67.0,96.0
163,115.44808654375,115.90577888958333,67.0,88.0
164,116.14039429375,116.376932775,65.0,96.0
165,116.37116354375,116.53077894166667,63.0,88.0
166,116.60193279375,117.01347128958334,65.0,96.0
167,117.06347129375,117.30193285208334,60.0,81.0
168,117.29424054374999,118.78462528333333,63.0,93.0
169,118.90962529375,119.04039453541667,67.0,85.0
170,119.14039454375,119.65193304791667,67.0,97.0
171,119.83270229375,120.07885616041666,65.0,99.0
172,120.06347154375,120.23847155833333,63.0,97.0
173,120.29424079374999,120.58077927916666,65.0,95.0
174,120.52501004375,120.72308698333333,63.0,96.0
175,120.98654854375,122.11731786874999,58.0,97.0
176,122.37116404375,122.59039483125,55.0,71.0
177,122.60193329375,122.72501022708333,67.0,89.0
178,122.83270254375,123.27693335,67.0,92.0
179,123.52501029375,123.71731800208333,65.0,95.0
180,123.75577954375,123.95577956041667,63.0,90.0
181,123.98654879375,124.407702675,65.0,99.0
182,124.44808729374999,124.66539500416667,60.0,79.0
183,124.67885654375,125.20001043333333,63.0,100.0
184,125.60193354375,125.72116432291666,63.0,93.0
185,125.83270279375,126.25770282916666,63.0,95.0
186,126.29424129375,126.42308745833333,62.0,75.0
187,126.52501054375,127.06539520416666,62.0,90.0
188,127.21731829375,127.33270291875,60.0,92.0
189,127.44808754375,127.96347220208334,60.0,90.0
190,128.14039529375,128.29808761458332,58.0,88.0
191,128.37116454375,129.78847235416666,58.0,97.0
192,129.98654929375,130.09039545625,67.0,82.0
193,130.21731854375,130.72693397083333,67.0,99.0
194,130.90962629375,131.10385707916666,65.0,96.0
195,131.14039554375,131.31347248125,63.0,90.0
196,131.37116479375,131.67885712708332,65.0,95.0
197,131.83270329375,132.0115494625,60.0,75.0
198,132.06347254375,133.27116495208332,63.0,95.0
199,133.67885729374999,133.80770345833332,62.0,88.0
200,133.90962654375,134.22116503125,62.0,86.0
201,134.37116504375,134.65193429791665,63.0,93.0
202,134.83270354375,134.9538574,65.0,90.0
203,135.06347279375,135.48078052083332,58.0,81.0
204,135.52501129375,135.68270361458335,55.0,85.0
205,135.75578054375,136.04231902916666,58.0,90.0
206,136.21731904375,136.93847295,65.0,95.0
207,136.90962679375,137.653857625,63.0,92.0
208,137.60193454375,137.69616532083333,58.0,85.0
209,137.83270379375,138.15578074375,58.0,96.0
210,138.29424229375,138.53270385208333,56.0,86.0
211,138.52501154375,138.7961654125,55.0,68.0
212,138.75578079375,139.1192423625,56.0,92.0
213,139.21731929375,139.35193468958335,63.0,95.0
214,139.44808854375,140.38270400625,63.0,99.0
215,141.29424254375,141.39808870625,58.0,90.0
216,141.52501179375,141.79231950833332,58.0,93.0
217,141.98655029374999,142.22693492916667,56.0,97.0
218,142.21731954375,142.4307811,55.0,73.0
219,142.44808879375,142.75962728125,56.0,99.0
220,142.90962729375,143.02885807291668,65.0,100.0
221,143.14039654375,144.069242775,65.0,112.0
222,144.98655054375,145.10193516875,63.0,97.0
223,145.21731979375,145.48655058541667,63.0,93.0
224,145.67885829375,145.92885831458332,62.0,67.0
225,145.90962754375,148.62501238541665,63.0,64.0
226,149.37116629375,149.607704775,63.0,117.0
227,149.60193554375,149.70578170625,62.0,92.0
228,149.83270479375,150.39039714791667,63.0,117.0
229,151.21732029375,151.37885876875,63.0,122.0
230,151.44808954375,151.59616647916667,62.0,89.0
231,151.67885879375,152.39808962291667,65.0,122.0
232,152.83270504375,152.91539735833334,63.0,117.0
233,153.06347429375,153.18655122708333,63.0,117.0
234,153.29424354374999,153.438474325,65.0,93.0
235,153.52501279375,153.81155127916668,67.0,102.0
236,153.98655129375,154.10962822708333,65.0,92.0
237,154.21732054375,154.56347441875,63.0,95.0
238,154.90962829375,155.12501292708333,58.0,107.0
239,155.14039754375,156.207705325,60.0,89.0
240,156.52501304375,156.68270536458334,58.0,93.0
241,156.75578229375,156.97309000416666,56.0,92.0
242,156.98655154375,157.18655156041666,55.0,85.0
243,157.21732079375,157.57885928541666,56.0,97.0
244,157.67885929375,157.78655161041667,63.0,102.0
245,157.90962854375,158.62885937291668,63.0,112.0
246,158.60193629375,158.75578246041667,56.0,102.0
247,158.83270554375,159.00770555833333,55.0,78.0
248,159.06347479375,159.24039788541666,56.0,112.0
249,159.52501329375,159.69809023125,63.0,117.0
250,159.75578254375,160.223090275,67.0,97.0
251,160.44809029375,160.64424415625,63.0,107.0
252,160.67885954375,160.79039801458333,65.0,95.0
253,160.90962879375,162.75578279375,65.0,96.0
254,165.06347529375,165.19424453541666,67.0,96.0
255,165.29424454375,165.72885996458334,67.0,102.0
256,165.98655229375,166.1884753875,65.0,95.0
257,166.21732154375,166.47116771875,63.0,95.0
258,166.44809079375,166.85962928958332,65.0,96.0
259,166.90962929375,167.14809085208333,60.0,81.0
260,167.14039854375,168.63078328333333,63.0,93.0
261,168.75578329375,168.88655253541666,67.0,85.0
262,168.98655254375,169.49809104791666,67.0,97.0
263,169.67886029375,169.92501416041665,65.0,99.0
264,169.90962954375,170.08462955833332,63.0,97.0
265,170.14039879375,170.42693727916668,65.0,95.0
266,170.37116804375,170.56924498333333,63.0,96.0
267,171.06347579375,172.19424511875,58.0,97.0
268,172.21732204375,172.43655283125,55.0,71.0
269,172.44809129375,172.57116822708332,67.0,89.0
270,172.67886054375,173.12309135,67.0,92.0
271,173.37116829375,173.56347600208332,65.0,95.0
272,173.60193754375,173.80193756041666,63.0,90.0
273,173.83270679375,174.253860675,65.0,99.0
274,174.29424529375,174.51155300416667,60.0,79.0
275,174.52501454375,175.04616843333332,63.0,100.0
276,175.44809154375,175.56732232291665,63.0,93.0
277,175.67886079375,176.10386082916668,63.0,95.0
278,176.14039929375,176.26924545833333,62.0,75.0
279,176.37116854375,176.91155320416667,62.0,90.0
280,177.06347629375,177.17886091875,60.0,92.0
281,177.29424554375,177.80963020208333,60.0,90.0
282,177.98655329375,178.14424561458333,58.0,88.0
283,178.21732254375,179.63463035416666,58.0,97.0
284,179.83270729375,179.93655345625,67.0,82.0
285,180.06347654375,180.57309197083333,67.0,99.0
286,180.75578429375,180.95001507916666,65.0,96.0
287,180.98655354375,181.15963048125,63.0,90.0
288,181.21732279375,181.52501512708332,65.0,95.0
289,181.67886129375,181.8577074625,60.0,75.0
290,181.90963054375,183.11732295208333,63.0,95.0
291,183.52501529375,183.65386145833332,62.0,88.0
292,183.75578454375,184.06732303125,62.0,86.0
293,184.21732304374999,184.49809229791666,63.0,93.0
294,184.67886154375,184.8000154,65.0,90.0
295,184.90963079375,185.32693852083332,58.0,81.0
296,185.37116929375,185.52886161458332,55.0,85.0
297,185.60193854375,185.88847702916667,58.0,90.0
298,186.06347704375,186.78463095,70.0,95.0
299,186.75578479375,187.500015625,63.0,92.0
300,187.44809254375,187.54232332083333,58.0,85.0
301,187.67886179375,188.00193874375,58.0,96.0
302,188.14040029375,188.37886185208333,56.0,86.0
303,188.37116954375,188.6423234125,55.0,68.0
304,188.60193879375,188.9654003625,56.0,92.0
305,189.06347729375,189.19809268958332,63.0,95.0
306,189.29424654375,190.22886200625,63.0,99.0
307,191.14040054375,191.24424670625,58.0,90.0
308,191.37116979375,191.63847750833332,58.0,93.0
309,191.83270829375,192.07309292916668,56.0,97.0
310,192.06347754375,192.2769391,55.0,73.0
311,192.29424679375,192.60578528125,56.0,99.0
312,192.75578529375,192.87501607291668,65.0,100.0
313,192.98655454375,193.915400775,65.0,112.0
314,195.06347779375,195.5077086,63.0,99.0
315,195.52501629374999,195.95963171458334,62.0,82.0
316,195.98655479375,198.43270884375,63.0,93.0
317,198.55770885416666,198.69809348125,58.0,86.0
318,198.81540118333334,199.04424735625,58.0,97.0
319,199.20578583125,199.40001661666668,56.0,92.0
320,199.47117046875,199.7423243375,55.0,68.0
321,199.75963203125,200.12693975416667,56.0,78.0
322,200.3654013125,200.5500167125,63.0,55.0
323,200.75193980625,201.65386295833332,63.0,89.0
324,202.21732454375,202.34617070833332,58.0,90.0
325,202.44809379375,202.69424766041666,58.0,90.0
326,202.90963229375,203.12886308125,56.0,89.0
327,203.14040154375,203.44809387708332,55.0,60.0
328,203.37117079375,203.85194006458335,56.0,78.0
329,203.83270929374999,203.98270930625,65.0,79.0
330,204.06347854375,205.5346325125,65.0,78.0
331,206.60194029375,206.75001722916667,63.0,86.0
332,206.83270954374998,207.69424807708333,63.0,86.0
333,208.21732504375,208.7884789375,62.0,74.0
334,208.67886354375,209.24617128333333,65.0,72.0
335,209.14040204375,213.10963314375,63.0,63.0
