,start,end,pitch,velocity
0,31.007111850000005,31.312468687500004,65.0,112.0
1,31.435682850000003,31.669611187500003,63.0,109.0
2,31.864253850000004,32.094610762500004,61.0,106.0
3,32.29282485,32.432110425000005,60.0,109.0
4,32.507110350000005,33.01425270000001,61.0,101.0
5,33.149966850000006,33.728537700000004,58.0,109.0
6,34.43567985000001,34.7374652625,60.0,115.0
7,34.864250850000005,35.083893487500006,61.0,109.0
8,35.29282185,35.603535825,61.0,112.0
9,35.72139285000001,35.8338927375,63.0,112.0
10,35.93567835,36.435677850000005,61.0,109.0
11,36.36424935,37.3874626125,58.0,109.0
12,37.864247850000005,38.22139035000001,58.0,115.0
13,38.29281885,38.567818575000004,63.0,106.0
14,38.72138985000001,39.073175212500004,63.0,109.0
15,39.14996085000001,39.44996055000001,58.0,112.0
16,39.578531850000005,39.95531718750001,63.0,112.0
17,40.00710285,40.31781682500001,58.0,112.0
18,40.43567385000001,40.80888776250001,63.0,106.0
19,40.864244850000006,41.182101675000006,66.0,109.0
20,41.292815850000004,44.155312987500004,65.0,112.0
21,44.72138385000001,45.041026387500004,63.0,112.0
22,45.14995485000001,45.410668875000006,70.0,115.0
23,45.578525850000005,45.814239900000004,70.0,109.0
24,46.00709685,46.11066817500001,63.0,109.0
25,46.221382350000006,46.714239000000006,63.0,106.0
26,46.86423885000001,47.85709500000001,61.0,109.0
27,48.14995185000001,48.49995150000001,60.0,112.0
28,48.578522850000006,48.814236900000004,65.0,109.0
29,49.007093850000004,49.26066502500001,65.0,106.0
30,49.43566485000001,49.64637892500001,60.0,109.0
31,49.86423585000001,50.217806925000005,60.0,109.0
32,50.292806850000005,51.01423470000001,58.0,109.0
33,51.14994885000001,51.28030586250001,58.0,115.0
34,51.364234350000004,51.44816283750001,60.0,101.0
35,51.578519850000006,52.594590262500006,61.0,106.0
36,52.86423285000001,53.037446962500006,60.0,112.0
37,53.07851835000001,53.199946800000006,61.0,106.0
38,53.292803850000006,53.578517850000004,63.0,109.0
39,53.721374850000004,54.26244573750001,63.0,112.0
40,54.57851685000001,54.87494512500001,60.0,109.0
41,55.007087850000005,58.13922757500001,58.0,112.0
42,58.43565585000001,58.74101268750001,65.0,112.0
43,58.86422685000001,59.098155187500005,63.0,109.0
44,59.29279785000001,59.523154762500006,61.0,106.0
45,59.721368850000005,59.86065442500001,60.0,109.0
46,59.93565435000001,60.44279670000001,61.0,101.0
47,60.57851085000001,61.157081700000006,58.0,109.0
48,61.86422385000001,62.166009262500005,60.0,115.0
49,62.29279485000001,62.51243748750001,61.0,109.0
50,62.721365850000005,63.03207982500001,61.0,112.0
51,63.14993685000001,63.26243673750001,63.0,112.0
52,63.364222350000006,63.86422185000001,61.0,109.0
53,63.79279335000001,64.8160066125,58.0,109.0
54,65.29279185000001,65.64993435000001,58.0,115.0
55,65.72136285,65.996362575,63.0,106.0
56,66.14993385000001,66.5017192125,63.0,109.0
57,66.57850485,66.87850455,58.0,112.0
58,67.00707585,67.3838611875,63.0,112.0
59,67.43564685000001,67.74636082500001,58.0,112.0
60,67.86421785,68.23743176250001,63.0,106.0
61,68.29278885000001,68.61064567500001,66.0,109.0
62,68.72135985000001,71.58385698750001,65.0,112.0
63,72.14992785000001,72.46957038750001,63.0,112.0
64,72.57849885,72.83921287500002,70.0,115.0
65,73.00706985000001,73.2427839,70.0,109.0
66,73.43564085000001,73.539212175,63.0,109.0
67,73.64992635000002,74.14278300000001,63.0,106.0
68,74.29278285000001,75.285639,61.0,109.0
69,75.57849585000001,75.92849550000001,60.0,112.0
70,76.00706685000002,76.24278090000001,65.0,109.0
71,76.43563785,76.68920902500001,65.0,106.0
72,76.86420885000001,77.07492292500001,60.0,109.0
73,77.29277985000002,77.64635092500001,60.0,109.0
74,77.72135085000001,78.4427787,58.0,109.0
75,78.57849285,78.70884986250002,58.0,115.0
76,78.79277835,78.87670683750001,60.0,101.0
77,79.00706385000001,80.02313426250001,61.0,106.0
78,80.29277685000001,80.46599096250002,60.0,112.0
79,80.50706235000001,80.62849080000001,61.0,106.0
80,80.72134785000002,81.00706185000001,63.0,109.0
81,81.14991885,81.6909897375,63.0,112.0
82,82.00706085000002,82.30348912500001,60.0,109.0
83,85.22134335000001,85.33562895000001,65.0,112.0
84,85.43562885000001,85.54455731250002,70.0,112.0
85,82.43563185000001,85.56777157500001,58.0,112.0
86,85.64991435000002,85.75527138750002,72.0,112.0
87,85.86419985,86.1445567125,73.0,109.0
88,86.29277085000001,86.58919912500001,73.0,112.0
89,86.72134185000002,86.83384173750001,70.0,115.0
90,86.93562735,87.4659839625,75.0,112.0
91,87.57848385000001,88.53026861250001,73.0,109.0
92,88.86419685000001,88.99633957500001,70.0,118.0
93,89.07848235000002,89.20526793750001,73.0,109.0
94,89.29276785000002,89.54812473750002,72.0,118.0
95,89.72133885000001,89.83562445000001,72.0,109.0
96,89.93562435000001,90.04098138750001,72.0,106.0
97,90.14990985000001,90.48205237500001,72.0,115.0
98,90.57848085,90.6981235875,68.0,115.0
99,90.79276635000001,90.90169481250001,63.0,115.0
100,91.00705185000001,91.89097953750002,65.0,115.0
101,92.50705035000001,92.624907375,65.0,115.0
102,92.72133585000002,92.99454986250001,63.0,115.0
103,93.14990685000001,93.24812103750001,63.0,109.0
104,93.36419235000001,93.89990610000001,63.0,115.0
105,94.00704885000002,94.28562000000001,70.0,115.0
106,94.43561985000001,94.732048125,68.0,109.0
107,94.86419085000001,94.95883361250002,70.0,112.0
108,95.07847635000002,95.5624044375,72.0,115.0
109,95.72133285000001,96.067761075,68.0,115.0
110,96.14990385000002,98.83561545,65.0,112.0
111,99.57847185000001,99.86597156250001,70.0,115.0
112,100.00704285000002,100.11597131250001,68.0,112.0
113,100.22132835000001,100.73918497500001,70.0,115.0
114,100.86418485000002,101.16597026250001,73.0,115.0
115,101.29275585000002,101.61418410000002,75.0,112.0
116,101.72132685000001,101.84096958750001,77.0,109.0
117,101.93561235000001,102.57489742500002,75.0,118.0
118,102.57846885000001,102.82311146250001,73.0,109.0
119,103.00703985000001,103.31775382500001,68.0,112.0
120,103.43561085000002,103.52311076250001,70.0,109.0
121,103.64989635000002,104.19453866250001,72.0,115.0
122,104.29275285000001,104.59096683750002,75.0,115.0
123,104.72132385000002,105.63918007500001,73.0,112.0
124,106.00703685000002,106.14096528750001,65.0,115.0
125,106.22132235000001,106.31060797500001,68.0,115.0
126,106.43560785000001,106.76775037500002,70.0,112.0
127,106.86417885000002,106.95882161250002,68.0,112.0
128,107.07846435000002,107.57667813750001,70.0,115.0
129,107.72132085000001,108.01774912500001,77.0,112.0
130,108.14989185000002,108.69810558750001,75.0,115.0
131,108.79274835000001,109.18024796250002,77.0,112.0
132,109.43560485000002,109.75167596250002,68.0,112.0
133,109.86417585000001,113.32845810000002,70.0,115.0
134,140.72128785,141.0266446875,65.0,112.0
135,141.14985885000002,141.38378718750002,63.0,109.0
136,141.57842985000002,141.8087867625,61.0,106.0
137,142.00700085000003,142.14628642500003,60.0,109.0
138,142.22128635,142.72842870000002,61.0,101.0
139,142.86414285,143.4427137,58.0,109.0
140,144.14985585000002,144.45164126250003,60.0,115.0
141,144.57842685000003,144.79806948750002,61.0,109.0
142,145.00699785000003,145.31771182500003,61.0,112.0
143,145.43556885,145.54806873750002,63.0,112.0
144,145.64985435000003,146.14985385000003,61.0,109.0
145,146.07842535000003,147.1016386125,58.0,109.0
146,147.57842385,147.93556635000002,58.0,115.0
147,148.00699485,148.28199457500003,63.0,106.0
148,148.43556585000002,148.78735121250003,63.0,109.0
149,148.86413685000002,149.16413655000002,58.0,112.0
150,149.29270785000003,149.66949318750002,63.0,112.0
151,149.72127885000003,150.03199282500003,58.0,112.0
152,150.14984985,150.52306376250002,63.0,106.0
153,150.57842085000001,150.89627767500002,66.0,109.0
154,151.00699185000002,153.86948898750003,65.0,112.0
155,154.43555985000003,154.75520238750002,63.0,112.0
156,154.86413085,155.124844875,70.0,115.0
157,155.29270185000001,155.52841590000003,70.0,109.0
158,155.72127285000002,155.824844175,63.0,109.0
159,155.93555835,156.42841500000003,63.0,106.0
160,156.57841485000003,157.57127100000002,61.0,109.0
161,157.86412785000002,158.21412750000002,60.0,112.0
162,158.29269885000002,158.52841290000003,65.0,109.0
163,158.72126985000003,158.97484102500002,65.0,106.0
164,159.14984085000003,159.36055492500003,60.0,109.0
165,159.57841185,159.93198292500003,60.0,109.0
166,160.00698285,160.7284107,58.0,109.0
167,160.86412485000002,160.9944818625,58.0,115.0
168,161.07841035,161.16233883750002,60.0,101.0
169,161.29269585000003,162.30876626250003,61.0,106.0
170,162.57840885000002,162.75162296250002,60.0,112.0
171,162.79269435000003,162.91412280000003,61.0,106.0
172,163.00697985000002,163.29269385000003,63.0,109.0
173,163.43555085000003,163.9766217375,63.0,112.0
174,164.29269285,164.58912112500002,60.0,109.0
175,167.50697535000003,167.62126095000002,65.0,112.0
176,167.72126085000002,167.8301893125,70.0,112.0
177,164.72126385,167.85340357500002,58.0,112.0
178,167.93554635,168.0409033875,72.0,112.0
179,168.14983185000003,168.4301887125,73.0,109.0
180,168.57840285000003,168.87483112500001,73.0,112.0
181,169.00697385,169.11947373750002,70.0,115.0
182,169.22125935000003,169.7516159625,75.0,112.0
183,169.86411585000002,170.81590061250003,73.0,109.0
184,171.14982885000003,171.28197157500003,70.0,118.0
185,171.36411435000002,171.49089993750002,73.0,109.0
186,171.57839985,171.8337567375,72.0,118.0
187,172.00697085000002,172.12125645000003,72.0,109.0
188,172.22125635000003,172.32661338750003,72.0,106.0
189,172.43554185000002,172.76768437500002,72.0,115.0
190,172.86411285000003,172.9837555875,68.0,115.0
191,173.07839835000001,173.18732681250003,63.0,115.0
192,173.29268385000003,174.17661153750004,65.0,115.0
193,174.79268235000004,174.910539375,65.0,115.0
194,175.00696785000002,175.28018186250003,63.0,115.0
195,175.43553885000003,175.53375303750002,63.0,109.0
196,175.64982435000002,176.18553810000003,63.0,115.0
197,176.29268085,176.57125200000002,70.0,115.0
198,176.72125185000002,177.01768012500003,68.0,109.0
199,177.14982285000002,177.24446561250002,70.0,112.0
200,177.36410835,177.8480364375,72.0,115.0
201,178.00696485000003,178.353393075,68.0,115.0
202,178.43553585000004,181.12124745000003,65.0,112.0
203,181.86410385000002,182.15160356250001,70.0,115.0
204,182.29267485000003,182.40160331250001,68.0,112.0
205,182.50696035,183.02481697500002,70.0,115.0
206,183.14981685000004,183.45160226250002,73.0,115.0
207,183.57838785,183.89981610000004,75.0,112.0
208,184.00695885000002,184.12660158750003,77.0,109.0
209,184.22124435000003,184.86052942500004,75.0,118.0
210,184.86410085000003,185.10874346250003,73.0,109.0
211,185.29267185000003,185.60338582500003,68.0,112.0
212,185.72124285,185.80874276250003,70.0,109.0
213,185.93552835000003,186.48017066250003,72.0,115.0
214,186.57838485000002,186.8765988375,75.0,115.0
215,187.00695585000003,187.92481207500003,73.0,112.0
216,188.29266885,188.42659728750002,65.0,115.0
217,188.50695435000003,188.59623997500003,68.0,115.0
218,188.72123985000002,189.053382375,70.0,112.0
219,189.14981085000002,189.24445361250002,68.0,112.0
220,189.36409635,189.86231013750003,70.0,115.0
221,190.00695285000003,190.30338112500002,77.0,112.0
222,190.43552385000004,190.98373758750003,75.0,115.0
223,191.07838035000003,191.46587996250003,77.0,112.0
224,191.72123685000003,192.03730796250002,68.0,112.0
225,192.14980785000003,194.72123385000003,70.0,115.0
226,194.93551935000002,195.04980495000004,65.0,112.0
227,195.14980485000004,195.25873331250003,70.0,112.0
228,195.36409035000003,195.46944738750003,72.0,112.0
229,195.57837585000001,195.85873271250003,73.0,109.0
230,196.00694685000002,196.30337512500003,73.0,112.0
231,196.43551785000002,196.54801773750003,70.0,115.0
232,196.64980335,197.18015996250003,75.0,112.0
233,197.29265985000004,198.24444461250002,73.0,109.0
234,198.57837285000002,198.71051557500002,70.0,118.0
235,198.79265835000004,198.91944393750003,73.0,109.0
236,199.00694385000003,199.26230073750003,72.0,118.0
237,199.43551485000003,199.54980045000002,72.0,109.0
238,199.64980035000002,199.75515738750002,72.0,106.0
239,199.86408585000004,200.19622837500003,72.0,115.0
240,200.29265685000001,200.41229958750003,68.0,115.0
241,200.50694235000003,200.61587081250002,63.0,115.0
242,200.72122785000002,201.60515553750002,65.0,115.0
243,202.22122635000002,202.33908337500003,65.0,115.0
244,202.43551185000004,202.70872586250002,63.0,115.0
245,202.86408285000002,202.96229703750004,63.0,109.0
246,203.07836835000003,203.61408210000002,63.0,115.0
247,203.72122485000003,203.99979600000003,70.0,115.0
248,204.14979585000003,204.44622412500001,68.0,109.0
249,204.57836685000004,204.67300961250004,70.0,112.0
250,204.79265235000003,205.27658043750003,72.0,115.0
251,205.43550885000002,205.78193707500003,68.0,115.0
252,205.86407985000002,208.54979145000001,65.0,112.0
253,209.29264785000004,209.58014756250003,70.0,115.0
254,209.72121885,209.83014731250003,68.0,112.0
255,209.93550435000003,210.45336097500004,70.0,115.0
256,210.57836085000002,210.88014626250003,73.0,115.0
257,211.00693185000003,211.32836010000003,75.0,112.0
258,211.43550285000003,211.55514558750002,77.0,109.0
259,211.64978835000002,212.28907342500003,75.0,118.0
260,212.29264485000002,212.53728746250002,73.0,109.0
261,212.72121585000002,213.03192982500002,68.0,112.0
262,213.14978685000003,213.23728676250002,70.0,109.0
263,213.36407235000001,213.90871466250002,72.0,115.0
264,214.00692885000004,214.30514283750003,75.0,115.0
265,214.43549985000004,215.35335607500002,73.0,112.0
266,215.72121285000003,215.85514128750003,65.0,115.0
267,215.93549835000002,216.02478397500002,68.0,115.0
268,216.14978385000003,216.48192637500003,70.0,112.0
269,216.57835485000004,216.67299761250004,68.0,112.0
270,216.79264035000003,217.29085413750002,70.0,115.0
271,217.43549685000002,217.73192512500003,77.0,112.0
272,217.86406785000003,218.41228158750002,75.0,115.0
273,218.50692435000002,218.89442396250004,77.0,112.0
274,219.14978085000004,219.46585196250004,68.0,112.0
275,219.57835185000002,222.26584916250002,70.0,115.0
276,222.57834885000003,222.74084868750003,65.0,115.0
277,222.76763437500003,222.87656283750002,68.0,112.0
278,222.99441986250002,223.39084803750004,70.0,112.0
279,223.42120515000002,223.53191932500002,68.0,104.0
280,223.63549065000004,224.17120440000002,70.0,115.0
281,224.24084718750004,224.62477537500004,77.0,101.0
282,224.71048957500003,225.53906017500003,75.0,112.0
283,225.63548865000004,227.90334352500003,72.0,115.0
284,228.71227128750002,229.45869911250003,68.0,112.0
285,229.84084158750002,232.94440991250002,70.0,115.0
