,start,end,pitch,velocity
0,4.0071388500000005,5.196423375000001,53.0,94.0
1,4.43570985,5.896422675000001,58.0,115.0
2,4.864280850000001,6.2732080125000005,61.0,96.0
3,4.864280850000001,6.394636462500001,65.0,96.0
4,6.14999385,6.546422025000001,58.0,96.0
5,3.5785678500000007,6.573207712500001,46.0,96.0
6,5.721422850000001,6.591064837500001,53.0,54.0
7,7.435706850000001,8.557134300000001,51.0,80.0
8,7.8642778500000015,9.36427635,56.0,106.0
9,8.29284885,9.367847775000001,63.0,106.0
10,9.578561850000002,9.7571331,56.0,106.0
11,9.149990850000002,9.867847275,51.0,43.0
12,7.007135850000001,10.005347137500001,44.0,104.0
13,9.578561850000002,10.06427565,60.0,109.0
14,10.007132850000001,10.239275475000001,56.0,67.0
15,10.435703850000001,11.660702625,58.0,101.0
16,10.435703850000001,11.723202562500001,54.0,99.0
17,10.435703850000001,11.885702400000001,42.0,99.0
18,10.864274850000001,11.933916637500001,49.0,54.0
19,11.29284585,12.057130800000001,61.0,94.0
20,12.149987850000002,13.066058362500002,56.0,99.0
21,12.149987850000002,13.564272150000003,60.0,99.0
22,12.578558850000002,13.585700700000002,51.0,78.0
23,12.149987850000002,13.696414875000002,44.0,104.0
24,13.007129850000002,13.712486287500003,63.0,109.0
25,13.864271850000002,14.794628062500001,56.0,74.0
26,13.864271850000002,14.928556500000003,61.0,96.0
27,14.694628162500003,14.928556500000003,61.0,113.0
28,14.917842225000001,15.162484837500003,63.0,127.0
29,15.144627712500002,15.385698900000001,65.0,116.0
30,15.578555850000003,16.282126575000003,61.0,80.0
31,15.149984850000003,16.539269175,56.0,76.0
32,15.355341787500002,16.5481977375,68.0,115.0
33,14.292842850000001,16.982125875,53.0,66.0
34,13.864271850000002,17.032125825,49.0,74.0
35,16.864268850000002,17.076768637500003,56.0,87.0
36,16.43569785,17.132125725,61.0,94.0
37,16.43569785,17.196411375000004,65.0,101.0
38,17.292839850000004,18.005339137500002,61.0,91.0
39,17.292839850000004,18.262481737500003,58.0,101.0
40,17.72141085,18.314267400000002,53.0,64.0
41,18.57855285,19.248195037500004,53.0,80.0
42,18.149981850000003,19.453551975000003,61.0,89.0
43,18.149981850000003,19.524980475000003,65.0,101.0
44,19.43569485,20.192836950000004,53.0,45.0
45,17.292839850000004,20.235694050000003,46.0,104.0
46,19.864265850000002,20.292836850000004,65.0,101.0
47,19.864265850000002,20.294622562500003,61.0,104.0
48,20.292836850000004,20.541050887500003,58.0,106.0
49,21.149978850000004,21.760692525000003,51.0,61.0
50,20.721407850000002,22.510691775,56.0,94.0
51,21.57854985,22.855334287500003,63.0,101.0
52,20.721407850000002,22.905334237500004,60.0,91.0
53,22.864262850000003,23.317833825000005,56.0,73.0
54,22.007120850000003,23.548190737500004,51.0,69.0
55,20.721407850000002,23.641047787500003,44.0,101.0
56,23.292833850000005,23.733904837500003,60.0,106.0
57,23.292833850000005,23.76426195,63.0,106.0
58,24.149975850000004,24.869617987500003,58.0,99.0
59,24.149975850000004,25.062474937500003,54.0,96.0
60,24.149975850000004,25.403546025000004,42.0,101.0
61,25.007117850000004,25.508903062500004,58.0,101.0
62,25.007117850000004,25.710688575000002,61.0,94.0
63,25.864259850000003,26.416045012500003,60.0,91.0
64,25.864259850000003,26.714259000000002,56.0,85.0
65,26.292830850000005,26.964258750000003,51.0,67.0
66,25.864259850000003,27.010687275000002,44.0,94.0
67,26.721401850000003,27.048187237500002,60.0,101.0
68,26.721401850000003,27.153544275000005,63.0,104.0
69,27.578543850000003,28.242828900000003,61.0,87.0
70,27.578543850000003,28.482114375000005,58.0,76.0
71,28.007114850000004,28.528542900000005,53.0,58.0
72,28.435685850000002,28.833899737500005,65.0,94.0
73,28.864256850000004,29.378542050000004,53.0,71.0
74,29.292827850000005,29.812470187500004,61.0,87.0
75,29.292827850000005,30.657112200000004,58.0,74.0
76,29.721398850000003,30.703540725000003,53.0,46.0
77,27.578543850000003,30.755326387500006,46.0,101.0
78,31.007111850000005,31.667825475000004,61.0,89.0
79,31.007111850000005,31.841039587500003,58.0,89.0
80,31.435682850000003,32.110682175,53.0,64.0
81,31.864253850000004,32.4053247375,61.0,89.0
82,32.29282485,32.83568145,53.0,61.0
83,32.72139585000001,33.673180612500005,65.0,91.0
84,32.72139585000001,33.6767520375,61.0,89.0
85,31.007111850000005,33.973180312500006,46.0,104.0
86,34.43567985000001,35.094607762500004,60.0,91.0
87,34.43567985000001,35.326750387500006,56.0,82.0
88,34.864250850000005,35.44639312500001,51.0,64.0
89,35.29282185,35.77139280000001,60.0,94.0
90,34.43567985000001,36.042821100000005,44.0,99.0
91,35.72139285000001,36.04460681250001,51.0,61.0
92,36.149963850000006,36.76246323750001,61.0,94.0
93,37.00710585,37.3446055125,61.0,101.0
94,36.149963850000006,37.358891212500005,58.0,87.0
95,36.578534850000004,37.364248350000004,53.0,64.0
96,37.00710585,37.382105475,65.0,96.0
97,36.149963850000006,37.4446054125,46.0,96.0
98,37.864247850000005,38.455318687500004,63.0,99.0
99,37.864247850000005,38.77853265,58.0,89.0
100,38.72138985000001,39.123175162500004,63.0,106.0
101,38.72138985000001,39.56960328750001,66.0,106.0
102,40.00710285,40.226745487500004,58.0,87.0
103,38.29281885,40.333888237500005,46.0,54.0
104,37.864247850000005,40.457102400000004,39.0,101.0
105,40.43567385000001,40.671387900000006,58.0,109.0
106,40.43567385000001,40.819602037500005,63.0,106.0
107,41.292815850000004,41.60888696250001,60.0,94.0
108,41.292815850000004,41.8160296125,65.0,101.0
109,41.72138685000001,41.98210087500001,60.0,87.0
110,42.14995785000001,42.389243325,60.0,104.0
111,42.14995785000001,42.658885912500004,65.0,112.0
112,41.292815850000004,42.753528675000005,53.0,99.0
113,42.578528850000005,42.839242875000004,60.0,85.0
114,43.00709985,43.7053134375,65.0,99.0
115,43.00709985,43.732099125000005,60.0,99.0
116,43.864241850000006,44.25888431250001,60.0,104.0
117,43.864241850000006,44.2981699875,65.0,101.0
118,44.72138385000001,44.980312162500006,58.0,101.0
119,44.72138385000001,45.29459756250001,63.0,104.0
120,45.14995485000001,45.64281150000001,58.0,96.0
121,44.72138385000001,45.88031126250001,51.0,101.0
122,45.578525850000005,45.89995410000001,66.0,104.0
123,45.578525850000005,45.901739812500004,63.0,106.0
124,46.43566785000001,46.887453112500005,61.0,91.0
125,46.43566785000001,47.07138150000001,58.0,96.0
126,46.86423885000001,47.55888101250001,53.0,74.0
127,46.43566785000001,47.666023762500004,46.0,101.0
128,47.292809850000005,47.72138085,65.0,106.0
129,47.292809850000005,47.7338808375,61.0,106.0
130,48.14995185000001,48.608879962500005,56.0,87.0
131,48.14995185000001,48.714237000000004,53.0,82.0
132,48.578522850000006,48.95530818750001,48.0,50.0
133,48.14995185000001,49.0374509625,41.0,99.0
134,49.007093850000004,49.214236500000005,53.0,104.0
135,49.007093850000004,49.22852220000001,56.0,109.0
136,49.86423585000001,50.31959253750001,61.0,87.0
137,49.86423585000001,50.505306637500006,58.0,91.0
138,50.292806850000005,51.00173471250001,53.0,46.0
139,50.72137785,51.021377550000004,58.0,106.0
140,50.72137785,51.073163212500006,61.0,106.0
141,50.72137785,51.073163212500006,65.0,101.0
142,49.86423585000001,51.22316306250001,46.0,104.0
143,51.578519850000006,52.064233650000006,58.0,87.0
144,51.578519850000006,52.23566205000001,54.0,89.0
145,52.007090850000004,52.71066157500001,49.0,44.0
146,51.578519850000006,52.812447187500005,42.0,101.0
147,52.43566185000001,52.880304262500005,58.0,104.0
148,52.43566185000001,52.96601846250001,61.0,99.0
149,53.292803850000006,53.785660500000006,56.0,87.0
150,53.292803850000006,54.18030296250001,60.0,94.0
151,53.292803850000006,54.557088300000004,44.0,99.0
152,53.721374850000004,54.583873987500006,51.0,76.0
153,54.14994585000001,54.60530253750001,56.0,104.0
154,54.57851685000001,55.019587837500005,60.0,96.0
155,55.007087850000005,55.47315881250001,61.0,91.0
156,55.007087850000005,55.72137285000001,58.0,94.0
157,55.43565885000001,55.99101543750001,53.0,59.0
158,55.86422985000001,56.417800725000006,61.0,96.0
159,55.86422985000001,56.43030071250001,65.0,91.0
160,56.292800850000006,56.78030036250001,53.0,66.0
161,56.721371850000004,57.36065692500001,61.0,87.0
162,56.721371850000004,57.45529968750001,58.0,85.0
163,57.14994285000001,57.66244233750001,53.0,76.0
164,57.57851385000001,58.05887051250001,60.0,112.0
165,55.007087850000005,58.094584762500006,46.0,104.0
166,58.007084850000005,58.31422740000001,53.0,91.0
167,58.86422685000001,59.36958348750001,58.0,69.0
168,58.649941350000006,59.40529773750001,53.0,62.0
169,59.29279785000001,59.708868862500005,61.0,89.0
170,59.721368850000005,60.02315426250001,53.0,40.0
171,59.93565435000001,60.64815363750001,65.0,89.0
172,59.93565435000001,60.76243923750001,58.0,89.0
173,61.007081850000006,61.26779587500001,61.0,100.0
174,61.007081850000006,61.27672443750001,58.0,102.0
175,61.22136735000001,61.68565260000001,53.0,62.0
176,58.43565585000001,61.698152587500005,46.0,102.0
177,61.649938350000006,61.72136685000001,61.0,40.0
178,61.43565285000001,61.75708110000001,58.0,102.0
179,61.86422385000001,62.391009037500005,60.0,100.0
180,61.86422385000001,62.546366025000005,56.0,82.0
181,62.721365850000005,63.07850835000001,60.0,97.0
182,61.86422385000001,63.108865462500006,44.0,94.0
183,62.721365850000005,63.176722537500005,63.0,89.0
184,62.29279485000001,63.18743681250001,51.0,34.0
185,63.57850785000001,64.10172161250001,61.0,82.0
186,64.22136435,64.30172141250002,61.0,33.0
187,64.00707885000001,64.30886426250001,53.0,33.0
188,64.22136435,64.56243543750001,65.0,84.0
189,63.57850785000001,64.5802925625,58.0,73.0
190,64.64993535,64.960649325,70.0,111.0
191,64.43564985,64.96957788750001,53.0,45.0
192,64.86422085000001,65.06422065000001,58.0,69.0
193,63.57850785000001,65.11957773750001,46.0,94.0
194,65.29279185000001,66.00886256250001,63.0,84.0
195,65.29279185000001,66.08564820000001,58.0,82.0
196,66.14993385000001,66.42136215000001,66.0,102.0
197,66.36421935000001,66.69100473750001,63.0,53.0
198,66.57850485,66.88921882500001,58.0,80.0
199,67.00707585,67.67493232500001,63.0,87.0
200,67.00707585,67.70171801250001,58.0,87.0
201,65.72136285,68.08028906250001,54.0,42.0
202,67.86421785,68.11243188750001,66.0,97.0
203,65.29279185000001,68.17850325,51.0,71.0
204,68.07850335,68.41243158750001,63.0,94.0
205,68.29278885000001,68.428503,58.0,48.0
206,68.72135985000001,68.98207387500001,60.0,80.0
207,68.72135985000001,69.40350202500001,65.0,73.0
208,69.14993085,69.44993055,60.0,60.0
209,69.57850185000001,69.96778717500001,65.0,102.0
210,69.57850185000001,70.06957278750001,60.0,100.0
211,70.22135835,70.32314396250001,69.0,50.0
212,70.22135835,70.3410010875,60.0,80.0
213,70.43564385,70.62135795,60.0,100.0
214,70.43564385,71.03564325,69.0,99.0
215,71.07850035000001,71.34457151250001,60.0,71.0
216,68.72135985000001,71.97135660000001,53.0,92.0
217,71.29278585000002,72.06064222500001,65.0,105.0
218,72.14992785000001,72.4231418625,58.0,73.0
219,72.14992785000001,72.85885571250002,63.0,87.0
220,72.57849885,72.87849855,58.0,50.0
221,72.14992785000001,73.44099798750001,51.0,87.0
222,73.00706985000001,73.51242648750001,66.0,105.0
223,73.86421185,74.07314021250001,58.0,76.0
224,73.86421185,74.11064017500001,61.0,82.0
225,74.29278285000001,74.439211275,58.0,82.0
226,74.07849735,74.57313971250001,53.0,44.0
227,74.50706835000001,74.75706810000001,60.0,123.0
228,74.72135385000001,75.01778212500001,53.0,48.0
229,74.93563935000002,75.10706775000001,61.0,89.0
230,73.86421185,75.40885316250001,46.0,94.0
231,75.14992485,75.40885316250001,53.0,46.0
232,75.57849585000001,75.8409955875,60.0,84.0
233,75.57849585000001,76.15885241250001,68.0,92.0
234,76.00706685000002,76.160638125,60.0,71.0
235,76.22135235,76.51242348750002,65.0,94.0
236,75.57849585000001,76.86956598750001,53.0,89.0
237,76.64992335000001,77.02492297500001,68.0,105.0
238,76.86420885000001,77.13028001250001,60.0,80.0
239,77.29277985000002,77.82492217500001,61.0,82.0
240,77.29277985000002,77.93385063750002,58.0,87.0
241,77.72135085000001,78.22492177500001,53.0,58.0
242,78.14992185000001,78.62670708750001,65.0,102.0
243,77.29277985000002,78.77670693750001,46.0,94.0
244,78.36420735000002,78.7981354875,53.0,76.0
245,78.57849285,79.03742096250001,58.0,102.0
246,78.79277835,79.0481352375,61.0,94.0
247,79.00706385000001,79.0481352375,61.0,94.0
248,79.00706385000001,79.4481348375,54.0,94.0
249,79.43563485000001,80.3695624875,49.0,52.0
250,80.07849135000001,80.37670533750001,58.0,105.0
251,79.00706385000001,80.42849100000001,42.0,97.0
252,79.86420585,80.49277665000001,54.0,111.0
253,80.29277685000001,80.65884791250001,61.0,67.0
254,80.72134785000002,81.16777597500001,56.0,71.0
255,80.72134785000002,81.22670448750002,63.0,67.0
256,81.14991885,81.67848975000001,51.0,44.0
257,81.57848985000001,81.86241813750001,56.0,105.0
258,80.72134785000002,81.9856323,44.0,100.0
259,81.57848985000001,82.02848940000001,60.0,108.0
260,82.00706085000002,82.2409891875,56.0,102.0
261,81.79277535000001,82.30527483750001,51.0,84.0
262,82.43563185000001,82.8517028625,61.0,100.0
263,82.43563185000001,82.92313136250002,58.0,102.0
264,83.07848835000001,83.18384538750001,58.0,78.0
265,83.07848835000001,83.18384538750001,65.0,84.0
266,82.86420285000001,83.39098803750001,53.0,36.0
267,83.29277385000002,83.80170191250001,58.0,114.0
268,83.29277385000002,83.89991610000001,65.0,102.0
269,83.72134485000001,84.3374156625,53.0,76.0
270,84.14991585000001,84.63205822500001,58.0,111.0
271,84.14991585000001,84.76420095000002,61.0,97.0
272,84.79277235,84.903486525,58.0,117.0
273,84.57848685,85.11241488750001,53.0,76.0
274,85.00705785000001,85.22670048750001,58.0,117.0
275,85.00705785000001,85.23741476250001,61.0,117.0
276,85.22134335000001,85.52312876250001,53.0,111.0
277,85.43562885000001,85.68205717500001,60.0,127.0
278,82.43563185000001,85.7588428125,46.0,97.0
279,85.64991435000002,85.83562845000002,58.0,105.0
280,85.86419985,86.3945564625,61.0,102.0
281,85.86419985,86.5445563125,58.0,102.0
282,86.50705635000001,86.59098483750002,61.0,14.0
283,86.29277085000001,86.78384178750001,53.0,50.0
284,85.86419985,86.88919882500001,46.0,100.0
285,86.72134185000002,87.14277000000001,58.0,108.0
286,87.14991285,87.28741271250001,53.0,100.0
287,86.72134185000002,87.40169831250002,61.0,102.0
288,87.36419835000001,87.6302695125,58.0,114.0
289,88.00705485000002,88.13919757500001,54.0,100.0
290,87.79276935000001,88.26776887500002,49.0,66.0
291,88.22134035,88.54098288750001,61.0,100.0
292,88.22134035,88.55526858750001,54.0,114.0
293,87.57848385000001,88.76419695000001,42.0,102.0
294,88.43562585000001,88.77491122500001,49.0,84.0
295,88.64991135000001,88.82133975,54.0,97.0
296,88.64991135000001,88.90705395,58.0,108.0
297,88.86419685000001,89.1516965625,42.0,82.0
298,89.29276785000002,89.7427674,60.0,92.0
299,89.29276785000002,89.93026721250001,56.0,89.0
300,89.72133885000001,90.27490972500001,51.0,49.0
301,89.29276785000002,90.30705255000001,44.0,105.0
302,90.14990985000001,90.58383798750002,60.0,117.0
303,90.14990985000001,90.59276655000001,63.0,102.0
304,90.14990985000001,90.60526653750001,56.0,108.0
305,90.57848085,90.91419480000002,44.0,97.0
306,90.79276635000001,91.03919467500002,60.0,100.0
307,90.79276635000001,91.04812323750001,56.0,92.0
308,90.79276635000001,91.08026606250002,63.0,84.0
309,91.22133735000001,91.45169426250001,56.0,108.0
310,91.43562285000002,91.70883686250001,61.0,92.0
311,91.64990835000002,91.78562250000002,56.0,92.0
312,91.00705185000001,92.12312216250001,49.0,105.0
313,91.86419385,92.3195505375,56.0,114.0
314,91.86419385,92.34097908750002,65.0,114.0
315,91.86419385,92.34276480000001,61.0,114.0
316,92.29276485000001,92.56597886250002,49.0,100.0
317,92.50705035000001,92.61776452500001,56.0,102.0
318,92.72133585000002,92.90169281250002,58.0,114.0
319,92.72133585000002,93.16240683750001,63.0,97.0
320,93.14990685000001,93.33919237500001,58.0,94.0
321,92.72133585000002,93.81954903750001,51.0,117.0
322,93.57847785000001,93.9909774375,58.0,111.0
323,93.57847785000001,94.07490592500001,63.0,114.0
324,93.57847785000001,94.30526283750001,66.0,111.0
325,94.22133435,94.31419140000001,63.0,26.0
326,94.00704885000002,94.31776282500002,51.0,73.0
327,94.22133435,94.48740551250002,58.0,105.0
328,94.43561985000001,94.8516908625,56.0,94.0
329,94.43561985000001,94.8516908625,60.0,102.0
330,94.86419085000001,95.11954773750001,51.0,67.0
331,95.07847635000002,95.33026181250001,63.0,102.0
332,95.07847635000002,95.35704750000001,56.0,102.0
333,95.29276185000002,95.57490442500001,51.0,80.0
334,94.43561985000001,95.59990440000001,44.0,105.0
335,95.50704735000001,95.70526143750001,56.0,102.0
336,95.50704735000001,95.73561855000001,60.0,111.0
337,95.72133285000001,95.83561845000001,51.0,71.0
338,95.72133285000001,96.0427611,44.0,64.0
339,95.93561835000001,96.06240393750001,56.0,100.0
340,96.14990385000002,96.37133220000001,56.0,100.0
341,96.14990385000002,96.59990340000002,61.0,102.0
342,96.57847485,96.67490332500002,56.0,69.0
343,96.14990385000002,96.90526023750002,49.0,100.0
344,96.79276035000001,97.04454581250002,65.0,111.0
345,96.79276035000001,97.06776007500001,56.0,114.0
346,97.00704585000001,97.33025981250002,49.0,87.0
347,97.22133135000001,97.35347407500001,56.0,117.0
348,97.22133135000001,97.65525948750002,61.0,114.0
349,97.64990235000002,97.74275940000001,56.0,73.0
350,97.86418785000001,98.11597331250002,60.0,111.0
351,97.86418785000001,98.14633042500002,65.0,97.0
352,98.29275885000001,98.35883021250001,60.0,102.0
353,98.50704435000002,98.59990140000001,60.0,114.0
354,98.50704435000002,98.60704425000002,69.0,105.0
355,97.86418785000001,98.85168686250002,53.0,120.0
356,98.72132985000002,98.93918677500001,60.0,114.0
357,98.72132985000002,98.94632962500002,69.0,116.0
358,98.93561535,99.18204367500002,53.0,100.0
359,99.14990085000001,99.26418645000001,60.0,114.0
360,99.14990085000001,99.39632917500002,65.0,105.0
361,99.36418635000001,99.48204337500002,60.0,94.0
362,99.57847185000001,99.99990000000001,61.0,102.0
363,99.57847185000001,100.046328525,58.0,97.0
364,100.00704285000002,100.49632807500001,53.0,60.0
365,100.43561385000001,100.64811363750002,58.0,114.0
366,100.43561385000001,100.65168506250001,65.0,114.0
367,99.57847185000001,100.97668473750001,46.0,100.0
368,100.64989935000001,101.03382753750002,53.0,92.0
369,100.86418485000002,101.16597026250001,58.0,111.0
370,101.07847035000002,101.22847020000002,61.0,100.0
371,101.29275585000002,101.86239813750001,58.0,94.0
372,101.29275585000002,101.86418385000002,63.0,102.0
373,101.29275585000002,102.21239778750001,51.0,94.0
374,102.14989785000002,102.26418345000002,58.0,117.0
375,102.14989785000002,102.29454056250002,66.0,111.0
376,102.36418335000002,102.43918327500002,58.0,97.0
377,102.36418335000002,102.55882601250002,63.0,105.0
378,102.57846885000001,102.90168281250001,58.0,97.0
379,102.79275435000001,102.93382563750001,63.0,64.0
380,103.00703985000001,103.22668248750001,60.0,105.0
381,103.00703985000001,103.41418230000001,65.0,92.0
382,103.43561085000002,103.53203932500001,60.0,76.0
383,103.64989635000002,103.82489617500002,60.0,111.0
384,103.64989635000002,103.85346757500001,68.0,105.0
385,104.07846735000001,104.20525293750002,60.0,94.0
386,104.07846735000001,104.32132425000002,65.0,97.0
387,103.00703985000001,104.39989560000001,53.0,111.0
388,104.29275285000001,104.58918112500001,60.0,102.0
389,104.50703835000002,104.60882396250001,65.0,80.0
390,104.72132385000002,104.97846645000001,58.0,102.0
391,104.72132385000002,105.04810923750001,61.0,111.0
392,105.14989485000001,105.24632332500002,58.0,92.0
393,104.93560935000001,105.42132315000002,53.0,60.0
394,105.36418035000001,105.56418015000001,65.0,105.0
395,105.36418035000001,105.60703725000002,58.0,108.0
396,105.79275135000002,105.91596551250001,58.0,114.0
397,105.79275135000002,106.00882256250001,61.0,108.0
398,105.57846585000001,106.02489397500001,53.0,84.0
399,104.72132385000002,106.10882246250002,46.0,100.0
400,106.00703685000002,106.13025101250001,58.0,97.0
401,106.43560785000001,106.64096478750001,54.0,84.0
402,106.43560785000001,106.64096478750001,58.0,97.0
403,106.64989335000001,107.15167856250001,49.0,60.0
404,106.86417885000002,107.39096403750001,54.0,82.0
405,107.07846435000002,107.40882116250002,66.0,111.0
406,106.43560785000001,107.67846375000002,42.0,100.0
407,107.29274985,107.70346372500002,49.0,69.0
408,107.50703535000001,107.91417780000002,61.0,108.0
409,107.72132085000001,107.92132065000001,54.0,100.0
410,108.14989185000002,108.56060572500002,60.0,108.0
411,108.14989185000002,108.66239133750001,44.0,102.0
412,108.14989185000002,108.66239133750001,56.0,108.0
413,108.79274835000001,109.26239073750001,56.0,89.0
414,108.79274835000001,109.27131930000002,60.0,108.0
415,108.79274835000001,109.30703355000001,63.0,94.0
416,108.79274835000001,109.36774777500001,44.0,105.0
417,109.86417585000001,110.06417565000001,61.0,92.0
418,109.86417585000001,110.07667563750002,58.0,100.0
419,109.86417585000001,110.12488987500001,46.0,108.0
420,110.29274685000001,110.45703240000002,61.0,87.0
421,110.29274685000001,110.48381808750001,58.0,82.0
422,110.29274685000001,110.50167521250002,46.0,100.0
423,110.72131785000002,110.90167481250002,61.0,94.0
424,110.72131785000002,110.90703195000002,58.0,89.0
425,110.72131785000002,110.93024621250001,53.0,100.0
426,110.72131785000002,110.95167476250002,46.0,105.0
427,111.14988885000001,111.33917437500001,61.0,84.0
428,111.14988885000001,111.35346007500002,58.0,84.0
429,111.14988885000001,111.36596006250001,53.0,92.0
430,111.14988885000001,111.39096003750001,46.0,97.0
431,111.57845985000002,111.74988825000001,61.0,92.0
432,111.57845985000002,111.76417395000001,53.0,100.0
433,111.57845985000002,111.77310251250002,58.0,92.0
434,111.57845985000002,111.79810248750002,46.0,102.0
435,112.00703085000002,112.20167351250001,61.0,111.0
436,112.00703085000002,112.22667348750001,58.0,108.0
437,112.00703085000002,112.23024491250001,53.0,108.0
438,112.00703085000002,112.24631632500001,46.0,105.0
439,112.43560185000001,112.54631602500001,53.0,97.0
440,112.43560185000001,112.72667298750001,58.0,114.0
441,112.43560185000001,112.74453011250002,61.0,120.0
442,112.86417285000002,112.99631557500001,58.0,120.0
443,112.64988735000001,113.21060107500001,53.0,111.0
444,113.07845835000002,113.21417250000002,58.0,94.0
445,113.07845835000002,113.21595821250001,61.0,102.0
446,112.43560185000001,113.24631532500001,46.0,111.0
447,113.29274385000001,113.80702905000001,61.0,111.0
448,113.29274385000001,113.90345752500002,58.0,108.0
449,113.72131485000001,114.26774287500001,53.0,84.0
450,114.14988585000002,114.46595696250002,65.0,97.0
451,114.14988585000002,114.57667113750001,58.0,111.0
452,114.79274235000001,114.87667083750001,61.0,87.0
453,114.79274235000001,114.88559940000002,58.0,94.0
454,114.57845685000001,115.09988490000002,53.0,60.0
455,115.00702785000001,115.26774187500001,58.0,114.0
456,115.00702785000001,115.29095613750002,61.0,111.0
457,115.43559885000002,115.52131305000002,58.0,92.0
458,113.29274385000001,115.72131285000002,46.0,108.0
459,115.22131335000002,115.73559855000002,53.0,78.0
460,115.64988435000002,116.13202672500002,58.0,114.0
461,115.64988435000002,116.13202672500002,61.0,114.0
462,115.64988435000002,116.13202672500002,65.0,100.0
463,116.29274085000002,116.44631212500002,58.0,123.0
464,116.07845535000001,116.51238348750002,53.0,87.0
465,115.86416985000001,116.57131200000002,46.0,100.0
466,116.50702635000002,116.59988340000001,61.0,92.0
467,116.50702635000002,116.60524053750001,58.0,55.0
468,116.72131185000002,117.11416860000001,60.0,111.0
469,116.72131185000002,117.14095428750001,56.0,105.0
470,117.36416835000001,117.45345397500002,63.0,84.0
471,117.36416835000001,117.46238253750002,56.0,87.0
472,117.14988285000001,117.59273955000002,51.0,19.0
473,117.57845385000002,117.74988225000001,63.0,105.0
474,117.57845385000002,117.75523938750001,56.0,111.0
475,118.00702485000002,118.12666758750001,56.0,89.0
476,116.72131185000002,118.27488172500001,44.0,102.0
477,117.79273935000002,118.31416740000002,51.0,76.0
478,118.22131035000001,118.57131000000001,56.0,105.0
479,118.22131035000001,118.58023856250001,68.0,100.0
480,118.64988135000002,118.95702390000001,51.0,78.0
481,118.86416685000002,119.14630942500001,63.0,105.0
482,118.86416685000002,119.16059512500001,56.0,100.0
483,119.29273785000001,119.42130915000001,56.0,100.0
484,119.07845235000002,119.59630897500001,51.0,94.0
485,119.50702335000001,119.78023736250002,56.0,97.0
486,119.50702335000001,119.79809448750001,60.0,114.0
487,119.72130885000001,119.84809443750001,51.0,80.0
488,118.43559585000001,119.86952298750002,44.0,102.0
489,120.14987985000002,120.59630797500002,58.0,102.0
490,120.14987985000002,120.59630797500002,61.0,105.0
491,120.57845085000001,120.80880776250001,49.0,37.0
492,120.79273635000001,121.06773607500001,58.0,105.0
493,120.79273635000001,121.12487887500002,61.0,105.0
494,120.14987985000002,121.19809308750001,42.0,100.0
495,120.79273635000001,121.19987880000002,66.0,100.0
496,121.00702185000002,121.21059307500002,49.0,80.0
497,121.22130735000002,121.55702130000002,58.0,105.0
498,121.43559285000002,121.65702120000002,61.0,78.0
499,121.64987835000002,121.74630682500002,65.0,43.0
500,121.86416385000001,122.10344932500001,56.0,82.0
501,121.86416385000001,122.15702070000002,60.0,97.0
502,122.29273485000002,122.39452046250001,56.0,73.0
503,122.07844935000001,122.53916317500001,51.0,64.0
504,122.50702035000002,122.76237723750002,60.0,114.0
505,122.50702035000002,122.78202007500002,63.0,105.0
506,122.50702035000002,122.79809148750002,56.0,102.0
507,121.86416385000001,122.98737701250002,44.0,108.0
508,122.72130585000002,123.06951978750001,51.0,92.0
509,122.93559135000001,123.15701970000002,60.0,117.0
510,122.93559135000001,123.16951968750001,56.0,105.0
511,122.93559135000001,123.18380538750002,63.0,105.0
512,123.14987685000001,123.42844800000002,44.0,97.0
513,123.57844785000002,123.82666188750001,56.0,117.0
514,123.57844785000002,123.88916182500002,44.0,108.0
515,123.86416185000002,124.03737596250002,49.0,120.0
516,123.86416185000002,124.13380443750002,61.0,108.0
517,124.14987585000002,124.36951848750002,60.0,117.0
518,124.14987585000002,124.38023276250001,48.0,114.0
519,124.43558985000001,124.70166101250001,63.0,114.0
520,124.43558985000001,124.71058957500001,51.0,123.0
521,124.72130385000001,124.94987505000002,61.0,111.0
522,124.72130385000001,124.97308931250002,49.0,111.0
523,125.00701785000001,125.15701770000001,63.0,114.0
524,125.00701785000001,125.20166051250001,51.0,123.0
525,125.29273185000001,125.56237443750001,60.0,105.0
526,125.29273185000001,125.63380293750002,65.0,97.0
527,125.72130285000001,125.81951703750002,60.0,78.0
528,125.29273185000001,126.06594536250002,53.0,114.0
529,125.93558835000002,126.20344522500001,60.0,108.0
530,125.93558835000002,126.22130235000002,69.0,102.0
531,126.14987385000002,126.47308781250001,53.0,105.0
532,126.36415935000002,126.49630207500002,60.0,120.0
533,126.36415935000002,126.57308771250001,65.0,120.0
534,126.57844485000001,126.89273025000001,60.0,111.0
535,126.79273035000001,126.90165881250002,65.0,60.0
536,127.00701585000002,127.50165821250002,61.0,94.0
537,127.00701585000002,127.54272960000002,58.0,89.0
538,127.43558685000002,127.94808633750002,53.0,66.0
539,127.86415785000001,128.09272905,58.0,114.0
540,127.86415785000001,128.12844330000001,65.0,111.0
541,127.00701585000002,128.57308571250002,46.0,97.0
542,128.07844335000001,128.5873714125,53.0,87.0
543,128.29272885,128.9427282,58.0,105.0
544,128.50701435000002,128.99272815,61.0,114.0
545,129.14987085,129.23022791250003,58.0,84.0
546,128.93558535000003,129.47844195000002,53.0,64.0
547,129.36415635000003,129.64451321250002,61.0,105.0
548,129.36415635000003,129.65165606250002,58.0,102.0
549,129.36415635000003,129.660584625,65.0,94.0
550,129.57844185000002,129.88379868750002,53.0,89.0
551,129.79272735,130.06772707500002,58.0,111.0
552,129.79272735,130.12486987500003,61.0,97.0
553,130.00701285000002,130.210584075,53.0,80.0
554,128.72129985,130.29272685,46.0,100.0
555,130.22129835,130.33022681250003,58.0,117.0
556,130.43558385000003,130.903440525,56.0,117.0
557,130.43558385000003,130.932011925,60.0,117.0
558,130.86415485,131.39451146250002,51.0,60.0
559,131.29272585,131.47843995000002,63.0,105.0
560,131.29272585,131.49629707500003,56.0,114.0
561,131.72129685000002,131.8480824375,56.0,94.0
562,130.43558385000003,131.96236803750003,44.0,105.0
563,131.50701135000003,131.97129660000002,51.0,94.0
564,131.93558235,132.37843905000003,56.0,102.0
565,131.93558235,132.37843905000003,60.0,120.0
566,131.93558235,132.403439025,68.0,102.0
567,131.93558235,132.41236758750003,63.0,117.0
568,132.57843885000003,132.66772447500003,56.0,97.0
569,132.36415335,132.86415285,51.0,82.0
570,132.79272435000001,133.09450976250002,63.0,114.0
571,132.79272435000001,133.1141526,56.0,114.0
572,132.79272435000001,133.1195097375,60.0,123.0
573,132.14986785000002,133.31593811250002,44.0,102.0
574,133.00700985000003,133.353438075,51.0,97.0
575,133.22129535000002,133.37665233750002,56.0,120.0
576,133.43558085,133.66415205,44.0,92.0
577,133.22129535000002,133.66593776250002,60.0,102.0
578,133.64986635000002,133.7623662375,56.0,114.0
579,133.86415185,134.29807998750002,58.0,108.0
580,133.86415185,134.34272280000002,54.0,117.0
581,134.29272285000002,134.56415115000001,49.0,87.0
582,134.50700835,134.78200807500002,54.0,114.0
583,133.86415185,134.78915092500003,42.0,108.0
584,134.50700835,134.79450806250003,66.0,105.0
585,134.72129385000002,134.88200797500002,49.0,82.0
586,134.93557935,135.0802220625,54.0,114.0
587,134.93557935,135.1909362375,61.0,108.0
588,135.14986485000003,135.4016503125,58.0,97.0
589,135.36415035000002,135.48736451250002,54.0,102.0
590,135.57843585,136.017721125,60.0,102.0
591,135.57843585,136.04450681250003,56.0,100.0
592,136.00700685,136.267720875,51.0,89.0
593,136.22129235000003,136.54272060000002,63.0,100.0
594,136.22129235000003,136.54807773750002,68.0,102.0
595,136.22129235000003,136.56057772500003,56.0,111.0
596,135.57843585,136.6945061625,44.0,108.0
597,136.43557785000002,136.71057757500003,51.0,105.0
598,136.64986335,136.71057757500003,56.0,102.0
599,136.64986335,136.92664878750003,60.0,114.0
600,136.86414885000002,137.0230772625,56.0,105.0
601,137.29271985000003,138.610575675,58.0,94.0
602,137.29271985000003,138.63557565000002,61.0,105.0
603,139.00700385000002,139.560574725,70.0,92.0
604,139.00700385000002,139.56950328750003,65.0,80.0
605,139.00700385000002,139.5998604,61.0,87.0
606,138.79271835000003,139.7873602125,58.0,92.0
607,139.86414585000003,140.63021651250003,61.0,69.0
608,139.86414585000003,140.63914507500002,65.0,67.0
609,138.57843285,140.66414505000003,53.0,51.0
610,137.29271985000003,140.682002175,46.0,102.0
611,141.14985885000002,141.65521548750002,58.0,69.0
612,140.93557335000003,141.69092973750003,53.0,62.0
613,141.57842985000002,141.99450086250002,61.0,89.0
614,142.00700085000003,142.3087862625,53.0,40.0
615,142.22128635,142.93378563750002,65.0,89.0
616,142.22128635,143.0480712375,58.0,89.0
617,143.29271385,143.553427875,61.0,100.0
618,143.29271385,143.56235643750003,58.0,102.0
619,143.50699935000003,143.97128460000002,53.0,62.0
620,140.72128785,143.98378458750003,46.0,102.0
621,143.93557035,144.00699885000003,61.0,40.0
622,143.72128485000002,144.04271310000001,58.0,102.0
623,144.14985585000002,144.67664103750002,60.0,100.0
624,144.14985585000002,144.83199802500002,56.0,82.0
625,145.00699785000003,145.36414035,60.0,97.0
626,144.14985585000002,145.39449746250003,44.0,94.0
627,145.00699785000003,145.4623545375,63.0,89.0
628,144.57842685000003,145.47306881250003,51.0,34.0
629,145.86413985000002,146.38735361250002,61.0,82.0
630,146.50699635,146.58735341250002,61.0,33.0
631,146.29271085000002,146.59449626250003,53.0,33.0
632,146.50699635,146.84806743750002,65.0,84.0
633,145.86413985000002,146.86592456250003,58.0,73.0
634,146.93556735,147.246281325,70.0,111.0
635,146.72128185000003,147.25520988750003,53.0,45.0
636,147.14985285000003,147.34985265000003,58.0,69.0
637,145.86413985000002,147.40520973750003,46.0,94.0
638,147.57842385,148.2944945625,63.0,84.0
639,147.57842385,148.37128020000003,58.0,82.0
640,148.43556585000002,148.70699415,66.0,102.0
641,148.64985135,148.97663673750003,63.0,53.0
642,148.86413685000002,149.17485082500002,58.0,80.0
643,149.29270785000003,149.960564325,63.0,87.0
644,149.29270785000003,149.98735001250003,58.0,87.0
645,148.00699485,150.3659210625,54.0,42.0
646,150.14984985,150.39806388750003,66.0,97.0
647,147.57842385,150.46413525000003,51.0,71.0
648,150.36413535000003,150.69806358750003,63.0,94.0
649,150.57842085000001,150.71413500000003,58.0,48.0
650,151.00699185000002,151.26770587500002,60.0,80.0
651,151.00699185000002,151.68913402500002,65.0,73.0
652,151.43556285000003,151.73556255000003,60.0,60.0
653,151.86413385000003,152.25341917500003,65.0,102.0
654,151.86413385000003,152.3552047875,60.0,100.0
655,152.50699035000002,152.60877596250003,69.0,50.0
656,152.50699035000002,152.6266330875,60.0,80.0
657,152.72127585,152.90698995000002,60.0,100.0
658,152.72127585,153.32127525,69.0,99.0
659,153.36413235000003,153.63020351250003,60.0,71.0
660,151.00699185000002,154.25698860000003,53.0,92.0
661,153.57841785000002,154.34627422500003,65.0,105.0
662,154.43555985000003,154.7087738625,58.0,73.0
663,154.43555985000003,155.14448771250002,63.0,87.0
664,154.86413085,155.16413055,58.0,50.0
665,154.43555985000003,155.72662998750002,51.0,87.0
666,155.29270185000001,155.79805848750001,66.0,105.0
667,156.14984385000002,156.3587722125,58.0,76.0
668,156.14984385000002,156.396272175,61.0,82.0
669,156.57841485000003,156.724843275,58.0,82.0
670,156.36412935,156.85877171250002,53.0,44.0
671,156.79270035000002,157.04270010000002,60.0,123.0
672,157.00698585,157.30341412500002,53.0,48.0
673,157.22127135000002,157.39269975000002,61.0,89.0
674,156.14984385000002,157.69448516250003,46.0,94.0
675,157.43555685,157.69448516250003,53.0,46.0
676,157.86412785000002,158.12662758750002,60.0,84.0
677,157.86412785000002,158.44448441250003,68.0,92.0
678,158.29269885000002,158.446270125,60.0,71.0
679,158.50698435,158.79805548750002,65.0,94.0
680,157.86412785000002,159.15519798750003,53.0,89.0
681,158.93555535000002,159.31055497500003,68.0,105.0
682,159.14984085000003,159.41591201250003,60.0,80.0
683,159.57841185,160.11055417500003,61.0,82.0
684,159.57841185,160.21948263750002,58.0,87.0
685,160.00698285,160.51055377500003,53.0,58.0
686,160.43555385000002,160.91233908750002,65.0,102.0
687,159.57841185,161.06233893750002,46.0,94.0
688,160.64983935,161.0837674875,53.0,76.0
689,160.86412485000002,161.32305296250001,58.0,102.0
690,161.07841035,161.3337672375,61.0,94.0
691,161.29269585000003,161.3337672375,61.0,94.0
692,161.29269585000003,161.7337668375,54.0,94.0
693,161.72126685000003,162.6551944875,49.0,52.0
694,162.36412335000003,162.66233733750002,58.0,105.0
695,161.29269585000003,162.71412300000003,42.0,97.0
696,162.14983785,162.77840865000002,54.0,111.0
697,162.57840885000002,162.94447991250001,61.0,67.0
698,163.00697985000002,163.45340797500003,56.0,71.0
699,163.00697985000002,163.51233648750002,63.0,67.0
700,163.43555085000003,163.96412175000003,51.0,44.0
701,163.86412185000003,164.1480501375,56.0,105.0
702,163.00697985000002,164.2712643,44.0,100.0
703,163.86412185000003,164.31412140000003,60.0,108.0
704,164.29269285,164.5266211875,56.0,102.0
705,164.07840735000002,164.59090683750003,51.0,84.0
706,164.72126385,165.1373348625,61.0,100.0
707,164.72126385,165.2087633625,58.0,102.0
708,165.36412035000004,165.46947738750004,58.0,78.0
709,165.36412035000004,165.46947738750004,65.0,84.0
710,165.14983485000002,165.67662003750002,53.0,36.0
711,165.57840585000002,166.08733391250001,58.0,114.0
712,165.57840585000002,166.18554810000003,65.0,102.0
713,166.00697685000003,166.62304766250003,53.0,76.0
714,166.43554785000003,166.91769022500003,58.0,111.0
715,166.43554785000003,167.04983295000002,61.0,97.0
716,167.07840435000003,167.18911852500003,58.0,117.0
717,166.86411885,167.39804688750002,53.0,76.0
718,167.29268985000002,167.51233248750003,58.0,117.0
719,167.29268985000002,167.52304676250003,61.0,117.0
720,167.50697535000003,167.80876076250001,53.0,111.0
721,167.72126085000002,167.96768917500003,60.0,127.0
722,164.72126385,168.04447481250003,46.0,97.0
723,167.93554635,168.12126045000002,58.0,105.0
724,168.14983185000003,168.6801884625,61.0,102.0
725,168.14983185000003,168.8301883125,58.0,102.0
726,168.79268835000002,168.87661683750002,61.0,14.0
727,168.57840285000003,169.06947378750002,53.0,50.0
728,168.14983185000003,169.17483082500002,46.0,100.0
729,169.00697385,169.42840200000003,58.0,108.0
730,169.43554485,169.57304471250004,53.0,100.0
731,169.00697385,169.68733031250002,61.0,102.0
732,169.64983035000003,169.91590151250003,58.0,114.0
733,170.29268685000002,170.42482957500002,54.0,100.0
734,170.07840135000004,170.55340087500002,49.0,66.0
735,170.50697235,170.82661488750003,61.0,100.0
736,170.50697235,170.84090058750002,54.0,114.0
737,169.86411585000002,171.04982895000003,42.0,102.0
738,170.72125785000003,171.06054322500003,49.0,84.0
739,170.93554335000002,171.10697175,54.0,97.0
740,170.93554335000002,171.19268595000003,58.0,108.0
741,171.14982885000003,171.43732856250003,42.0,82.0
742,171.57839985,172.0283994,60.0,92.0
743,171.57839985,172.21589921250003,56.0,89.0
744,172.00697085000002,172.56054172500004,51.0,49.0
745,171.57839985,172.59268455000003,44.0,105.0
746,172.43554185000002,172.86946998750003,60.0,117.0
747,172.43554185000002,172.87839855000001,63.0,102.0
748,172.43554185000002,172.89089853750002,56.0,108.0
749,172.86411285000003,173.1998268,44.0,97.0
750,173.07839835000001,173.32482667500003,60.0,100.0
751,173.07839835000001,173.33375523750001,56.0,92.0
752,173.07839835000001,173.36589806250004,63.0,84.0
753,173.50696935000002,173.73732626250003,56.0,108.0
754,173.72125485000004,173.9944688625,61.0,92.0
755,173.93554035000003,174.0712545,56.0,92.0
756,173.29268385000003,174.40875416250003,49.0,105.0
757,174.14982585,174.6051825375,56.0,114.0
758,174.14982585,174.6266110875,65.0,114.0
759,174.14982585,174.62839680000002,61.0,114.0
760,174.57839685000002,174.85161086250002,49.0,100.0
761,174.79268235000004,174.90339652500003,56.0,102.0
762,175.00696785000002,175.1873248125,58.0,114.0
763,175.00696785000002,175.44803883750004,63.0,97.0
764,175.43553885000003,175.62482437500003,58.0,94.0
765,175.00696785000002,176.10518103750002,51.0,117.0
766,175.86410985000003,176.2766094375,58.0,111.0
767,175.86410985000003,176.36053792500002,63.0,114.0
768,175.86410985000003,176.59089483750003,66.0,111.0
769,176.50696635000003,176.59982340000002,63.0,26.0
770,176.29268085,176.603394825,51.0,73.0
771,176.50696635000003,176.77303751250003,58.0,105.0
772,176.72125185000002,177.1373228625,56.0,94.0
773,176.72125185000002,177.1373228625,60.0,102.0
774,177.14982285000002,177.40517973750002,51.0,67.0
775,177.36410835,177.61589381250002,63.0,102.0
776,177.36410835,177.6426795,56.0,102.0
777,177.57839385000003,177.86053642500002,51.0,80.0
778,176.72125185000002,177.88553640000003,44.0,105.0
779,177.79267935000001,177.99089343750003,56.0,102.0
780,177.79267935000001,178.02125055000002,60.0,111.0
781,178.00696485000003,178.12125045000002,51.0,71.0
782,178.00696485000003,178.32839310000003,44.0,64.0
783,178.22125035000002,178.34803593750001,56.0,100.0
784,178.43553585000004,178.65696420000003,56.0,100.0
785,178.43553585000004,178.88553540000004,61.0,102.0
786,178.86410685,178.96053532500002,56.0,69.0
787,178.43553585000004,179.19089223750004,49.0,100.0
788,179.07839235000003,179.3301778125,65.0,111.0
789,179.07839235000003,179.35339207500002,56.0,114.0
790,179.29267785000002,179.61589181250002,49.0,87.0
791,179.50696335000004,179.63910607500003,56.0,117.0
792,179.50696335000004,179.9408914875,61.0,114.0
793,179.93553435,180.02839140000003,56.0,73.0
794,180.14981985000003,180.4016053125,60.0,111.0
795,180.14981985000003,180.43196242500002,65.0,97.0
796,180.57839085000003,180.64446221250003,60.0,102.0
797,180.79267635000002,180.8855334,60.0,114.0
798,180.79267635000002,180.89267625000002,69.0,105.0
799,180.14981985000003,181.13731886250002,53.0,120.0
800,181.00696185,181.22481877500002,60.0,114.0
801,181.00696185,181.23196162500003,69.0,116.0
802,181.22124735000003,181.46767567500004,53.0,100.0
803,181.43553285000002,181.54981845000003,60.0,114.0
804,181.43553285000002,181.68196117500003,65.0,105.0
805,181.64981835000003,181.767675375,60.0,94.0
806,181.86410385000002,182.28553200000002,61.0,102.0
807,181.86410385000002,182.33196052500003,58.0,97.0
808,182.29267485000003,182.78196007500003,53.0,60.0
809,182.72124585000003,182.9337456375,58.0,114.0
810,182.72124585000003,182.93731706250003,65.0,114.0
811,181.86410385000002,183.26231673750002,46.0,100.0
812,182.93553135000002,183.31945953750002,53.0,92.0
813,183.14981685000004,183.45160226250002,58.0,111.0
814,183.36410235000002,183.51410220000002,61.0,100.0
815,183.57838785,184.14803013750003,58.0,94.0
816,183.57838785,184.14981585,63.0,102.0
817,183.57838785,184.49802978750003,51.0,94.0
818,184.43552985000002,184.54981545,58.0,117.0
819,184.43552985000002,184.58017256250002,66.0,111.0
820,184.64981535,184.72481527500003,58.0,97.0
821,184.64981535,184.8444580125,63.0,105.0
822,184.86410085000003,185.18731481250003,58.0,97.0
823,185.07838635000002,185.21945763750003,63.0,64.0
824,185.29267185000003,185.51231448750002,60.0,105.0
825,185.29267185000003,185.6998143,65.0,92.0
826,185.72124285,185.81767132500002,60.0,76.0
827,185.93552835000003,186.110528175,60.0,111.0
828,185.93552835000003,186.13909957500002,68.0,105.0
829,186.36409935000003,186.49088493750003,60.0,94.0
830,186.36409935000003,186.60695625000002,65.0,97.0
831,185.29267185000003,186.68552760000003,53.0,111.0
832,186.57838485000002,186.87481312500003,60.0,102.0
833,186.79267035000004,186.89445596250002,65.0,80.0
834,187.00695585000003,187.26409845000003,58.0,102.0
835,187.00695585000003,187.33374123750002,61.0,111.0
836,187.43552685000003,187.531955325,58.0,92.0
837,187.22124135,187.70695515000003,53.0,60.0
838,187.64981235000002,187.84981215000002,65.0,105.0
839,187.64981235000002,187.89266925,58.0,108.0
840,188.07838335000002,188.20159751250003,58.0,114.0
841,188.07838335000002,188.29445456250002,61.0,108.0
842,187.86409785000004,188.31052597500002,53.0,84.0
843,187.00695585000003,188.39445446250002,46.0,100.0
844,188.29266885,188.41588301250002,58.0,97.0
845,188.72123985000002,188.92659678750002,54.0,84.0
846,188.72123985000002,188.92659678750002,58.0,97.0
847,188.93552535000003,189.43731056250002,49.0,60.0
848,189.14981085000002,189.67659603750002,54.0,82.0
849,189.36409635,189.69445316250003,66.0,111.0
850,188.72123985000002,189.96409575,42.0,100.0
851,189.57838185000003,189.98909572500003,49.0,69.0
852,189.79266735000002,190.19980980000003,61.0,108.0
853,190.00695285000003,190.20695265000003,54.0,100.0
854,190.43552385000004,190.84623772500004,60.0,108.0
855,190.43552385000004,190.94802333750002,44.0,102.0
856,190.43552385000004,190.94802333750002,56.0,108.0
857,191.07838035000003,191.54802273750002,56.0,89.0
858,191.07838035000003,191.55695130000004,60.0,108.0
859,191.07838035000003,191.59266555000002,63.0,94.0
860,191.07838035000003,191.65337977500002,44.0,105.0
861,192.14980785000003,192.34980765000003,61.0,92.0
862,192.14980785000003,192.36230763750004,58.0,100.0
863,192.14980785000003,192.41052187500003,46.0,108.0
864,192.57837885000004,192.74266440000002,61.0,87.0
865,192.57837885000004,192.76945008750002,58.0,82.0
866,192.57837885000004,192.78730721250002,46.0,100.0
867,193.00694985,193.18730681250003,61.0,94.0
868,193.00694985,193.19266395000002,58.0,89.0
869,193.00694985,193.21587821250003,53.0,100.0
870,193.00694985,193.23730676250003,46.0,105.0
871,193.43552085000002,193.62480637500002,61.0,84.0
872,193.43552085000002,193.63909207500004,58.0,84.0
873,193.43552085000002,193.65159206250001,53.0,92.0
874,193.43552085000002,193.67659203750003,46.0,97.0
875,193.86409185000002,194.03552025000002,61.0,92.0
876,193.86409185000002,194.04980595000004,53.0,100.0
877,193.86409185000002,194.05873451250002,58.0,92.0
878,193.86409185000002,194.08373448750004,46.0,102.0
879,194.29266285000003,194.48730551250003,61.0,111.0
880,194.29266285000003,194.51230548750002,58.0,108.0
881,194.29266285000003,194.51587691250003,53.0,108.0
882,194.29266285000003,194.53194832500003,46.0,105.0
883,194.72123385000003,194.83194802500003,53.0,97.0
884,194.72123385000003,195.01230498750002,58.0,114.0
885,194.72123385000003,195.03016211250002,61.0,120.0
886,195.14980485000004,195.28194757500003,58.0,120.0
887,194.93551935000002,195.49623307500002,53.0,111.0
888,195.36409035000003,195.49980450000004,58.0,94.0
889,195.36409035000003,195.50159021250002,61.0,102.0
890,194.72123385000003,195.53194732500003,46.0,111.0
891,195.57837585000001,197.260517025,65.0,87.0
892,195.57837585000001,197.28015986250003,61.0,105.0
893,195.57837585000001,197.30873126250003,58.0,102.0
894,195.57837585000001,197.34444551250002,46.0,102.0
895,197.72123085,197.92123065,54.0,114.0
896,197.72123085,197.93730206250004,42.0,108.0
897,197.93551635000003,198.18730181250004,44.0,100.0
898,197.93551635000003,198.19087323750003,56.0,97.0
899,198.14980185000002,198.53015861250003,46.0,120.0
900,198.14980185000002,198.56587286250002,58.0,117.0
901,198.57837285000002,198.94444391250002,61.0,117.0
902,198.57837285000002,198.95872961250004,49.0,123.0
903,199.00694385000003,200.18372838750003,60.0,111.0
904,199.00694385000003,200.27658543750002,56.0,102.0
905,199.00694385000003,200.30694255000003,63.0,105.0
906,199.00694385000003,200.51051377500002,44.0,102.0
907,200.72122785000002,201.28908442500003,56.0,105.0
908,200.72122785000002,201.31051297500002,61.0,89.0
909,200.72122785000002,201.33729866250002,49.0,120.0
910,201.36408435,201.88194097500002,51.0,114.0
911,201.36408435,201.90872666250002,63.0,114.0
912,202.00694085000003,202.36944048750001,60.0,102.0
913,202.00694085000003,202.37301191250003,65.0,102.0
914,202.00694085000003,202.39979760000003,53.0,117.0
915,202.43551185000004,202.61586881250003,58.0,114.0
916,202.43551185000004,202.87658283750002,63.0,97.0
917,202.86408285000002,203.05336837500002,58.0,94.0
918,202.43551185000004,203.53372503750003,51.0,117.0
919,203.29265385000002,203.70515343750003,58.0,111.0
920,203.29265385000002,203.78908192500003,63.0,114.0
921,203.29265385000002,204.01943883750002,66.0,111.0
922,203.93551035000002,204.02836740000004,63.0,26.0
923,203.72122485000003,204.03193882500003,51.0,73.0
924,203.93551035000002,204.2015815125,58.0,105.0
925,204.14979585000003,204.56586686250003,56.0,94.0
926,204.14979585000003,204.56586686250003,60.0,102.0
927,204.57836685000004,204.83372373750004,51.0,67.0
928,204.79265235000003,205.04443781250004,63.0,102.0
929,204.79265235000003,205.07122350000003,56.0,102.0
930,205.00693785,205.28908042500004,51.0,80.0
931,204.14979585000003,205.31408040000002,44.0,105.0
932,205.22122335000003,205.41943743750002,56.0,102.0
933,205.22122335000003,205.44979455000004,60.0,111.0
934,205.43550885000002,205.54979445000004,51.0,71.0
935,205.43550885000002,205.75693710000002,44.0,64.0
936,205.64979435000004,205.77657993750003,56.0,100.0
937,205.86407985000002,206.08550820000002,56.0,100.0
938,205.86407985000002,206.31407940000003,61.0,102.0
939,206.29265085000003,206.38907932500004,56.0,69.0
940,205.86407985000002,206.61943623750003,49.0,100.0
941,206.50693635000002,206.75872181250003,65.0,111.0
942,206.50693635000002,206.78193607500003,56.0,114.0
943,206.72122185000003,207.04443581250004,49.0,87.0
944,206.93550735000002,207.06765007500002,56.0,117.0
945,206.93550735000002,207.36943548750003,61.0,114.0
946,207.36407835000003,207.45693540000002,56.0,73.0
947,207.57836385000002,207.83014931250003,60.0,111.0
948,207.57836385000002,207.86050642500004,65.0,97.0
949,208.00693485000002,208.07300621250002,60.0,102.0
950,208.22122035000004,208.31407740000003,60.0,114.0
951,208.22122035000004,208.32122025000004,69.0,105.0
952,207.57836385000002,208.56586286250004,53.0,120.0
953,208.43550585000003,208.65336277500003,60.0,114.0
954,208.43550585000003,208.660505625,69.0,116.0
955,208.64979135000002,208.89621967500003,53.0,100.0
956,208.86407685000003,208.97836245000002,60.0,114.0
957,208.86407685000003,209.11050517500001,65.0,105.0
958,209.07836235000002,209.19621937500003,60.0,94.0
959,209.29264785000004,209.71407600000003,61.0,102.0
960,209.29264785000004,209.76050452500002,58.0,97.0
961,209.72121885,210.21050407500002,53.0,60.0
962,210.14978985000002,210.36228963750003,58.0,114.0
963,210.14978985000002,210.36586106250002,65.0,114.0
964,209.29264785000004,210.69086073750003,46.0,100.0
965,210.36407535000004,210.74800353750004,53.0,92.0
966,210.57836085000002,210.88014626250003,58.0,111.0
967,210.79264635000004,210.94264620000004,61.0,100.0
968,211.00693185000003,211.57657413750002,58.0,94.0
969,211.00693185000003,211.57835985000003,63.0,102.0
970,211.00693185000003,211.92657378750002,51.0,94.0
971,211.86407385000004,211.97835945000003,58.0,117.0
972,211.86407385000004,212.00871656250004,66.0,111.0
973,212.07835935000003,212.153359275,58.0,97.0
974,212.07835935000003,212.27300201250003,63.0,105.0
975,212.29264485000002,212.61585881250002,58.0,97.0
976,212.50693035000003,212.64800163750002,63.0,64.0
977,212.72121585000002,212.94085848750004,60.0,105.0
978,212.72121585000002,213.12835830000003,65.0,92.0
979,213.14978685000003,213.24621532500004,60.0,76.0
980,213.36407235000001,213.53907217500003,60.0,111.0
981,213.36407235000001,213.56764357500003,68.0,105.0
982,213.79264335000002,213.91942893750002,60.0,94.0
983,213.79264335000002,214.03550025000004,65.0,97.0
984,212.72121585000002,214.11407160000002,53.0,111.0
985,214.00692885000004,214.30335712500002,60.0,102.0
986,214.22121435000003,214.32299996250003,65.0,80.0
987,214.43549985000004,214.69264245000002,58.0,102.0
988,214.43549985000004,214.76228523750004,61.0,111.0
989,214.86407085000002,214.96049932500003,58.0,92.0
990,214.64978535000003,215.13549915000002,53.0,60.0
991,215.07835635000004,215.27835615000004,65.0,105.0
992,215.07835635000004,215.32121325000003,58.0,108.0
993,215.50692735000004,215.63014151250002,58.0,114.0
994,215.50692735000004,215.72299856250004,61.0,108.0
995,215.29264185000002,215.73906997500004,53.0,84.0
996,214.43549985000004,215.82299846250004,46.0,100.0
997,215.72121285000003,215.84442701250003,58.0,97.0
998,216.14978385000003,216.35514078750003,54.0,84.0
999,216.14978385000003,216.35514078750003,58.0,97.0
1000,216.36406935000002,216.86585456250003,49.0,60.0
1001,216.57835485000004,217.10514003750004,54.0,82.0
1002,216.79264035000003,217.12299716250004,66.0,111.0
1003,216.14978385000003,217.39263975000003,42.0,100.0
1004,217.00692585000002,217.41763972500002,49.0,69.0
1005,217.22121135000003,217.62835380000004,61.0,108.0
1006,217.43549685000002,217.63549665000002,54.0,100.0
1007,217.86406785000003,218.27478172500003,60.0,108.0
1008,217.86406785000003,218.37656733750003,44.0,102.0
1009,217.86406785000003,218.37656733750003,56.0,108.0
1010,218.50692435000002,218.97656673750004,56.0,89.0
1011,218.50692435000002,218.98549530000003,60.0,108.0
1012,218.50692435000002,219.02120955000004,63.0,94.0
1013,218.50692435000002,219.08192377500004,44.0,105.0
1014,219.57835185000002,220.08727991250004,58.0,89.0
1015,219.57835185000002,220.16049412500004,61.0,87.0
1016,220.00692285000002,220.58549370000003,53.0,50.0
1017,220.43549385000003,221.19620737500003,58.0,108.0
1018,220.86406485000003,221.54620702500003,53.0,49.0
1019,219.57835185000002,222.26584916250002,46.0,92.0
1020,221.29263585000004,222.80870576250004,61.0,80.0
1021,221.29263585000004,222.80870576250004,65.0,82.0
1022,222.96763417500003,224.36048992500002,58.0,106.0
1023,222.97656273750002,224.37120420000002,54.0,101.0
1024,222.97477702500004,224.52834690000003,42.0,109.0
1025,222.96941988750004,224.60334682500002,61.0,104.0
1026,225.09620347500004,225.95334547500002,51.0,76.0
1027,224.72120385000002,226.45155926250004,56.0,96.0
1028,226.16941668750002,226.88191597500003,51.0,36.0
1029,224.71584671250002,226.89620167500004,60.0,106.0
1030,225.79798848750002,226.93905877500003,68.0,80.0
1031,225.40513173750003,227.00334442500002,63.0,106.0
1032,227.18905852500004,228.19977180000004,51.0,38.0
1033,224.71406100000004,228.27655743750003,44.0,101.0
1034,227.50512963750003,229.41405630000003,68.0,54.0
1035,227.28548700000002,229.43905627500004,56.0,35.0
1036,227.34084408750002,229.43905627500004,60.0,80.0
1037,229.86405585000003,230.57655513750004,61.0,91.0
1038,229.86405585000003,230.83369773750002,58.0,101.0
1039,230.29262685000003,230.88548340000003,53.0,64.0
1040,231.14976885000004,231.81941103750003,53.0,80.0
1041,230.72119785000004,232.02476797500003,61.0,89.0
1042,230.72119785000004,232.09619647500003,65.0,101.0
1043,232.00691085000003,232.76405295000004,53.0,45.0
1044,229.86405585000003,232.80691005000003,46.0,104.0
1045,232.43548185000003,232.86405285000004,65.0,101.0
1046,232.43548185000003,232.86583856250002,61.0,104.0
1047,232.86405285000004,233.11226688750003,58.0,106.0
1048,233.72119485000002,234.33190852500002,51.0,61.0
1049,233.29262385000004,235.08190777500002,56.0,94.0
1050,234.14976585000002,235.42655028750002,63.0,101.0
1051,233.29262385000004,235.47655023750002,60.0,91.0
1052,235.43547885000004,235.88904982500003,56.0,73.0
1053,234.57833685000003,236.11940673750004,51.0,69.0
1054,233.29262385000004,236.21226378750004,44.0,101.0
1055,235.86404985000004,236.30512083750003,60.0,106.0
1056,235.86404985000004,236.33547795000004,63.0,106.0
1057,236.72119185000003,237.44083398750004,58.0,99.0
1058,236.72119185000003,237.63369093750003,54.0,96.0
1059,236.72119185000003,237.97476202500002,42.0,101.0
1060,237.57833385000004,238.08011906250002,58.0,101.0
1061,237.57833385000004,238.28190457500003,61.0,94.0
1062,238.43547585000002,238.98726101250003,60.0,91.0
1063,238.43547585000002,239.28547500000002,56.0,85.0
1064,238.86404685000002,239.53547475000002,51.0,67.0
1065,238.43547585000002,239.58190327500003,44.0,94.0
1066,239.29261785000003,239.61940323750002,60.0,101.0
1067,239.29261785000003,239.72476027500002,63.0,104.0
1068,240.14975985000004,240.81404490000003,61.0,87.0
1069,240.14975985000004,241.05333037500003,58.0,76.0
1070,240.57833085000004,241.09975890000004,53.0,58.0
1071,241.00690185000002,241.40511573750004,65.0,94.0
1072,241.43547285000002,241.94975805000004,53.0,71.0
1073,241.86404385000003,242.38368618750002,61.0,87.0
1074,241.86404385000003,243.22832820000002,58.0,74.0
1075,242.29261485000004,243.27475672500003,53.0,46.0
1076,240.14975985000004,243.32654238750004,46.0,101.0
1077,243.46939938750003,246.89261025000002,46.0,85.0
1078,243.61225638750003,247.11046717500003,58.0,36.0
1079,243.81225618750003,247.12832430000003,65.0,32.0
1080,243.65868491250004,247.13011001250004,61.0,80.0
1081,243.85332757500004,247.14796713750005,70.0,87.0
