,start,end,pitch,velocity
0,16.615386,16.9846168,69.0,87.0
1,17.0769245,17.23077066666667,71.0,84.0
2,17.30769375,17.894232260416665,71.0,85.0
3,18.23077075,18.41538615,62.0,85.0
4,18.46154,18.811540029166668,74.0,96.0
5,18.9230785,19.2807708375,74.0,96.0
6,19.384617,19.809617035416668,72.0,86.0
7,19.8461555,20.31346323125,71.0,74.0
8,20.307694,22.859617289583333,69.0,79.0
9,23.076925,23.317309635416667,69.0,86.0
10,23.30769425,23.48654041875,71.0,82.0
11,23.5384635,23.836540447916665,72.0,86.0
12,23.76923275,23.957694304166665,71.0,87.0
13,24.000002,25.180771329166667,67.0,86.0
14,25.61538675,25.8346175375,62.0,81.0
15,25.846156,26.242309879166665,67.0,85.0
16,26.3076945,26.715386841666668,69.0,89.0
17,26.769233,27.25961765625,71.0,87.0
18,27.2307715,27.715386925,72.0,90.0
19,27.69231,30.52500254375,71.0,85.0
20,31.153848749999998,31.571156477083335,74.0,99.0
21,31.61538725,31.746156491666667,76.0,85.0
22,31.8461565,32.04423343958333,76.0,86.0
23,32.07692575,32.228848839583335,74.0,92.0
24,32.307695,32.53846425,74.0,87.0
25,32.53846425,33.00000275,76.0,86.0
26,33.00000275,33.355772010416665,74.0,92.0
27,33.46154125,33.567310489583335,76.0,86.0
28,33.6923105,33.87500282291666,76.0,87.0
29,33.92307975,34.05961822291667,74.0,91.0
30,34.153849,34.53846441666666,79.0,89.0
31,34.500002875,34.900002908333335,76.0,89.0
32,34.84615675,35.076926,71.0,82.0
33,35.076926,35.27500293958333,74.0,89.0
34,35.30769525,35.444233722916664,76.0,85.0
35,35.538464499999996,35.72692605416667,76.0,87.0
36,35.76923375,36.13077224166667,74.0,92.0
37,36.4615415,36.66538767083333,74.0,87.0
38,36.69231075,36.9576953875,69.0,85.0
39,36.92308,38.07692625,71.0,84.0
40,38.3076955,38.459618589583336,69.0,81.0
41,38.53846475,38.73654168958333,71.0,85.0
42,38.769234,39.134618645833335,64.0,87.0
43,39.2307725,39.35961866458333,67.0,77.0
44,39.46154175,40.300003358333335,67.0,80.0
45,40.615388,40.9961572625,64.0,87.0
46,41.0769265,41.538650625,76.0,87.0
47,41.770310875,42.447917106249996,76.0,89.0
48,42.465291625,42.928612125,74.0,92.0
49,42.928612125,44.781894125,69.0,85.0
50,46.171855625,46.542512025,69.0,87.0
51,46.635176125,46.78961629166667,71.0,84.0
52,46.866836375,47.45409511041667,71.0,85.0
53,47.7906336,47.975249,62.0,85.0
54,48.02140285,48.371402879166666,74.0,96.0
55,48.48294135,48.8406336875,74.0,96.0
56,48.94447985,49.369479885416666,76.0,86.0
57,49.40601835,49.6367876,78.0,74.0
58,49.6367876,52.188710889583334,79.0,79.0
59,53.09832635,53.31178790625,79.0,86.0
60,53.3290956,53.48871099791666,74.0,89.0
61,53.55986485,53.87909564583333,74.0,89.0
62,54.02140335,54.18101874791667,76.0,87.0
63,54.2521726,54.93486496458333,76.0,86.0
64,55.1752496,55.332941920833335,74.0,83.0
65,55.406018849999995,55.754095802083334,74.0,92.0
66,55.86755735,56.032941979166665,76.0,81.0
67,56.0983266,56.77524973333333,74.0,89.0
68,56.559865099999996,57.019480522916666,72.0,87.0
69,57.0214036,58.990634533333335,71.0,86.0
70,60.713711599999996,61.13101932708333,74.0,99.0
71,61.1752501,61.30601934166667,76.0,85.0
72,61.40601935,61.60409628958333,76.0,86.0
73,61.6367886,61.78871168958333,74.0,92.0
74,61.86755785,62.0983271,74.0,87.0
75,62.0983271,62.559865599999995,76.0,86.0
76,62.559865599999995,62.91563486041667,74.0,92.0
77,63.0214041,63.12717333958334,76.0,86.0
78,63.25217335,63.434865672916665,76.0,87.0
79,63.4829426,63.61948107291667,74.0,91.0
80,63.713711849999996,63.925250329166666,79.0,89.0
81,63.9444811,64.34448113333333,76.0,89.0
82,64.4060196,64.63678885,71.0,82.0
83,64.63678885,64.83486578958333,74.0,89.0
84,64.8675581,65.00409657291667,76.0,85.0
85,65.09832735,65.28678890416667,76.0,87.0
86,65.3290966,65.69063509166666,74.0,92.0
87,65.7906351,65.99448127083333,74.0,87.0
88,66.02140435,66.52140439166666,69.0,85.0
89,66.48294285,67.6367891,71.0,84.0
90,67.86755835,68.01948143958333,74.0,81.0
91,68.0983276,68.29640453958334,74.0,85.0
92,68.32909685,68.74255842291666,74.0,87.0
93,68.79063535,68.91948151458334,72.0,77.0
94,69.0214046,69.85986620833333,72.0,80.0
95,69.9444816,70.17525085,74.0,87.0
96,70.17525085,70.63678935,76.0,87.0
97,70.63678935,70.8675586,79.0,91.0
98,71.09832785,71.3290971,79.0,91.0
99,71.444481725,71.69448174583333,79.0,94.0
100,71.69255866875,71.92140484166666,76.0,89.0
101,72.02140485,73.58486651875,81.0,89.0
102,73.86755885,74.20794349375,74.0,99.0
103,74.32909735,74.85409739375,76.0,94.0
104,74.79063585,75.1483281875,79.0,90.0
105,75.25217434999999,75.57140514583332,81.0,94.0
106,75.71371285,76.60025138541667,83.0,91.0
107,76.63678985,77.25602067083334,74.0,92.0
108,77.3290976,77.48678992083333,74.0,96.0
109,77.55986684999999,77.89063610833333,84.0,96.0
110,78.02140535,78.43871307708334,83.0,89.0
111,78.48294385,78.88871311458334,81.0,92.0
112,78.94448235,79.21371314166666,79.0,92.0
113,79.1752516,79.93102089375,81.0,88.0
114,79.86755935,80.61371325833333,74.0,89.0
115,81.25217484999999,81.644482575,74.0,99.0
116,81.71371335,82.06755953333334,76.0,91.0
117,82.17525185,82.55986726666666,78.0,89.0
118,82.63679035,83.09063654166667,74.0,87.0
119,83.09832885,83.6983289,81.0,91.0
120,83.7906366,84.61371359166667,79.0,91.0
121,84.7137136,84.86371361249999,71.0,89.0
122,84.94448285,85.3021751875,79.0,89.0
123,85.40602135,85.81948292291666,78.0,94.0
124,85.86755984999999,86.22717526458334,76.0,92.0
125,86.32909835,86.84448300833333,78.0,87.0
126,86.79063685,87.41755997916667,76.0,90.0
127,87.4829446,88.49256006875,74.0,90.0
128,88.63679085,89.14832935416666,76.0,99.0
129,89.09832935,89.14832935416666,76.0,89.0
130,89.55986784999999,89.87909864583332,79.0,88.0
131,90.02140635,90.37525253333334,79.0,86.0
132,90.48294485,91.106021825,78.0,89.0
133,91.1752526,91.91179112291667,76.0,91.0
134,92.32909885000001,92.7329450375,74.0,91.0
135,92.79063735,93.13102199375,71.0,90.0
136,93.25217585,93.56948356875,74.0,92.0
137,93.71371435,94.0483297625,83.0,89.0
138,94.17525284999999,94.75409905208333,81.0,87.0
139,94.86756059999999,95.9406376125,79.0,90.0
140,96.02140685,96.33679149166667,74.0,89.0
141,96.48294535,96.91948384791667,76.0,91.0
142,96.94448385,97.29256080208333,79.0,89.0
143,97.40602235,97.68679160416667,81.0,87.0
144,97.86756084999999,98.4560224375,83.0,89.0
145,98.5598686,99.24833019583333,81.0,90.0
146,99.71371485,100.11948411458333,79.0,90.0
147,100.17525334999999,100.50794568541667,76.0,91.0
148,100.63679185000001,100.97909957083334,79.0,92.0
149,101.09833035,101.40602268333333,83.0,90.0
150,101.55986885,102.13871505208334,83.0,91.0
151,102.2521766,103.0829459,81.0,87.0
152,103.40602285,103.74640749375,74.0,99.0
153,103.86756134999999,104.39256139375,76.0,94.0
154,104.32909985,104.6867921875,79.0,90.0
155,104.79063835,105.10986914583333,81.0,94.0
156,105.25217685,106.13871538541667,83.0,91.0
157,106.17525384999999,106.79448467083333,74.0,92.0
158,106.86756159999999,107.02525392083334,74.0,96.0
159,107.09833085,107.42910010833333,84.0,96.0
160,107.55986935,107.97717707708333,83.0,89.0
161,108.02140785,108.42717711458333,81.0,92.0
162,108.48294634999999,108.74256175625,79.0,92.0
163,108.7137156,109.44448489166666,81.0,88.0
164,109.40602335,110.15217725833332,74.0,89.0
165,110.79063885,111.182946575,74.0,99.0
166,111.25217735,111.60602353333333,76.0,91.0
167,111.71371585,112.09833126666666,78.0,89.0
168,112.17525435,112.62910054166666,74.0,87.0
169,112.63679284999999,113.48294676666667,81.0,91.0
170,113.3291006,114.15217759166667,79.0,91.0
171,114.48294685,114.8406391875,79.0,89.0
172,114.94448535,115.35794692291667,78.0,94.0
173,115.40602385,115.76563926458333,76.0,92.0
174,115.86756235,116.38294700833333,78.0,87.0
175,116.32910085,116.95602397916666,76.0,90.0
176,117.0214086,118.03102406875,74.0,90.0
177,118.17525485,118.68679335416667,74.0,99.0
178,118.63679335,118.92910106666666,76.0,89.0
179,119.09833185,119.41756264583333,78.0,88.0
180,119.55987035,119.91371653333333,79.0,86.0
181,120.02140885,120.644485825,78.0,89.0
182,120.7137166,121.45025512291666,76.0,91.0
183,121.86756285,122.27140903749999,74.0,91.0
184,122.32910135,122.66948599375,71.0,90.0
185,122.79063985,123.10794756874999,74.0,92.0
186,123.25217835,123.5867937625,83.0,89.0
187,123.71371685,124.29256305208334,81.0,87.0
188,124.4060246,125.4791016125,79.0,90.0
189,125.55987085,125.87525549166666,74.0,89.0
190,126.02140935,126.45794784791667,76.0,91.0
191,126.48294785,126.83102480208333,79.0,89.0
192,126.94448634999999,127.22525560416666,81.0,87.0
193,127.40602485,127.9944864375,83.0,89.0
194,128.0983326,128.78679419583335,81.0,90.0
195,129.25217885,129.65794811458335,79.0,90.0
196,129.71371735,130.04640968541668,76.0,91.0
197,130.17525584999999,130.51756357083332,79.0,92.0
198,130.63679435,130.94448668333334,83.0,90.0
199,131.09833285,131.67717905208332,83.0,91.0
200,131.79064060000002,132.6214099,81.0,87.0
201,133.86756385,134.27333311458335,79.0,90.0
202,134.32910235,135.04833317916666,76.0,92.0
203,135.0214101,135.86179478541666,81.0,86.0
204,135.9444871,138.11371805,79.0,84.0
205,166.17525884999998,166.54448965,69.0,87.0
206,166.63679735,166.79064351666665,71.0,84.0
207,166.8675666,167.45410511041666,71.0,85.0
208,167.7906436,167.975259,62.0,85.0
209,168.02141285,168.37141287916666,74.0,96.0
210,168.48295135,168.8406436875,74.0,96.0
211,168.7137206,169.40602834999999,76.0,86.0
212,169.40602834999999,169.6367976,78.0,74.0
213,169.6367976,172.18872088958335,79.0,79.0
214,173.09833635,173.31179790624998,79.0,86.0
215,173.3291056,173.48872099791666,74.0,89.0
216,173.55987485,173.87910564583333,74.0,89.0
217,174.02141335,174.18102874791668,76.0,87.0
218,174.2521826,174.93487496458334,76.0,86.0
219,175.1752596,175.33295192083332,74.0,83.0
220,175.40602884999998,175.75410580208333,74.0,92.0
221,175.86756735,176.03295197916665,76.0,81.0
222,176.0983366,176.64641356875,74.0,89.0
223,176.5598751,177.01949052291667,72.0,87.0
224,177.0214136,178.99064453333332,71.0,86.0
225,180.71372159999999,180.94449085,74.0,99.0
226,180.94449085,181.1752601,74.0,99.0
227,181.1752601,181.30602934166666,76.0,85.0
228,181.40602935,181.60410628958334,76.0,86.0
229,181.6367986,181.78872168958333,74.0,92.0
230,181.86756785,182.0983371,74.0,87.0
231,182.0983371,182.5598756,76.0,86.0
232,182.5598756,182.79064485,74.0,92.0
233,182.79064485,183.0214141,74.0,92.0
234,183.0214141,183.12718333958333,76.0,86.0
235,183.25218335,183.43487567291666,76.0,87.0
236,183.4829526,183.61949107291667,74.0,91.0
237,183.71372184999998,183.92526032916666,79.0,89.0
238,183.9444911,184.34449113333332,76.0,89.0
239,184.4060296,184.63679885,71.0,82.0
240,184.63679885,184.83487578958332,74.0,89.0
241,184.8675681,185.00410657291667,76.0,85.0
242,185.09833735,185.28679890416666,76.0,87.0
243,185.3291066,185.69064509166665,74.0,92.0
244,185.7906451,185.99449127083332,74.0,87.0
245,186.02141435,186.2867989875,69.0,85.0
246,186.2521836,187.40602985,71.0,84.0
247,187.86756835,188.01949143958333,74.0,81.0
248,188.0983376,188.29641453958334,74.0,85.0
249,188.32910685,188.69449149583332,74.0,87.0
250,188.79064535,188.91949151458334,72.0,77.0
251,189.02141459999999,189.85987620833333,72.0,80.0
252,189.9444916,190.17526085,74.0,87.0
253,190.17526085,190.63679935,76.0,87.0
254,190.63679935,191.19641478124998,79.0,91.0
255,191.09833785,191.32718402291667,83.0,89.0
256,191.444491725,191.67333789791667,81.0,89.0
257,191.71372251666668,191.94256868958334,79.0,89.0
258,192.02141484999999,193.58487651875,81.0,89.0
259,193.86756885,194.20795349375,74.0,99.0
260,194.32910735,194.85410739374998,76.0,94.0
261,194.79064585,195.1483381875,79.0,90.0
262,195.25218435,195.57141514583333,81.0,94.0
263,195.71372285,196.60026138541667,83.0,91.0
264,196.63679985,197.25603067083333,74.0,92.0
265,197.3291076,197.48679992083333,74.0,96.0
266,197.55987685,197.89064610833333,84.0,96.0
267,198.02141534999998,198.43872307708332,83.0,89.0
268,198.48295385,198.88872311458334,81.0,92.0
269,198.94449235,199.21372314166666,79.0,92.0
270,199.1752616,199.982953975,81.0,88.0
271,199.86756935,200.61372325833332,74.0,89.0
272,201.25218485,201.644492575,74.0,99.0
273,201.71372335,202.06756953333334,76.0,91.0
274,202.17526185,202.55987726666666,78.0,89.0
275,202.63680035,203.09064654166667,74.0,87.0
276,203.09833885,203.9175696875,81.0,91.0
277,203.7906466,204.61372359166666,79.0,91.0
278,204.7137236,204.8637236125,71.0,89.0
279,204.94449285,205.3021851875,79.0,89.0
280,205.40603135,205.81949292291665,78.0,94.0
281,205.86756985,206.22718526458334,76.0,92.0
282,206.32910834999998,206.84449300833333,78.0,87.0
283,206.79064685,207.41756997916667,76.0,90.0
284,207.4829546,208.49257006874998,74.0,90.0
285,208.63680085,209.14833935416667,74.0,99.0
286,209.09833935,209.39064706666667,76.0,89.0
287,209.55987785,209.87910864583333,78.0,88.0
288,210.02141635,210.37526253333334,79.0,86.0
289,210.48295485,211.106031825,78.0,89.0
290,211.1752626,211.91180112291667,76.0,91.0
291,212.32910885,212.7329550375,74.0,91.0
292,212.79064735,213.13103199374999,71.0,90.0
293,213.25218585,213.56949356875,74.0,92.0
294,213.71372435,214.0483397625,83.0,89.0
295,214.17526285,214.75410905208332,81.0,87.0
296,214.8675706,215.9406476125,79.0,90.0
297,216.02141685,216.33680149166668,74.0,89.0
298,216.48295535,216.91949384791667,76.0,91.0
299,216.94449385,217.29257080208333,79.0,89.0
300,217.40603235,217.68680160416667,81.0,87.0
301,217.86757085,218.4560324375,83.0,89.0
302,218.5598786,219.24834019583332,81.0,90.0
303,219.71372485,220.11949411458332,79.0,90.0
304,220.17526335,220.50795568541668,76.0,91.0
305,220.63680184999998,220.97910957083334,79.0,92.0
306,221.09834035,221.40603268333334,83.0,90.0
307,221.55987885,222.13872505208334,83.0,91.0
308,222.2521866,223.0829559,81.0,87.0
309,223.40603285,223.74641749375,74.0,99.0
310,223.86757135,224.39257139375,76.0,94.0
311,224.32910985,224.6868021875,79.0,90.0
312,224.79064835,225.10987914583333,81.0,94.0
313,225.25218685,226.13872538541668,83.0,91.0
314,226.17526385,226.79449467083333,74.0,92.0
315,226.8675716,227.02526392083334,74.0,96.0
316,227.09834085,227.42911010833333,84.0,96.0
317,227.55987935,227.97718707708333,83.0,89.0
318,228.02141785,228.42718711458332,81.0,92.0
319,228.48295635,228.7714179125,79.0,92.0
320,228.7137256,229.36757180833334,81.0,88.0
321,229.40603335,230.15218725833333,74.0,89.0
322,230.79064885,231.182956575,74.0,99.0
323,231.25218734999999,231.60603353333332,76.0,91.0
324,231.71372585,232.09834126666667,78.0,89.0
325,232.17526435,232.62911054166668,74.0,87.0
326,232.63680285,233.029110575,81.0,91.0
327,233.09834135,233.92141834166665,79.0,91.0
328,234.48295685,234.8406491875,79.0,89.0
329,234.94449535,235.35795692291666,78.0,94.0
330,235.40603385,235.76564926458332,76.0,92.0
331,235.86757235,236.38295700833334,78.0,87.0
332,236.32911085,236.95603397916668,76.0,90.0
333,237.0214186,238.03103406875,74.0,90.0
334,238.17526485,238.68680335416667,74.0,99.0
335,238.63680335,238.92911106666668,76.0,89.0
336,239.09834185,239.41757264583333,78.0,88.0
337,239.55988035,239.91372653333332,79.0,86.0
338,240.02141885,240.644495825,78.0,89.0
339,240.7137266,241.45026512291668,76.0,91.0
340,241.86757285,242.2714190375,74.0,91.0
341,242.32911135,242.66949599375,71.0,90.0
342,242.79064985,243.10795756875,74.0,92.0
343,243.25218835,243.5868037625,83.0,89.0
344,243.71372685,244.29257305208333,81.0,87.0
345,244.4060346,245.4791116125,79.0,90.0
346,245.55988084999998,245.87526549166665,74.0,89.0
347,246.02141935,246.45795784791667,76.0,91.0
348,246.48295785,246.83103480208334,79.0,89.0
349,246.94449635,247.22526560416665,81.0,87.0
350,247.40603485,248.29065030833334,83.0,89.0
351,248.32911185,249.01757344583334,81.0,90.0
352,249.25218885,249.65795811458332,79.0,90.0
353,249.71372735,250.04641968541665,76.0,91.0
354,250.17526585,250.51757357083332,79.0,92.0
355,250.63680435,250.94449668333334,83.0,90.0
356,251.09834285,252.11949678125,83.0,91.0
357,252.02141985,252.85218915,81.0,87.0
358,253.86757384999999,254.27334311458333,79.0,90.0
359,254.32911235,255.04834317916666,76.0,92.0
360,255.0214201,255.86180478541667,81.0,86.0
361,255.9444971,258.11372804999996,79.0,84.0
