,start,end,pitch,velocity
0,1.846154,2.501923285416667,62.0,77.0
1,1.846154,2.507692516666667,59.0,70.0
2,1.846154,2.57884636875,55.0,72.0
3,2.769231,3.1692310333333333,67.0,80.0
4,3.2307695,3.97500033125,55.0,73.0
5,3.692308,4.2211541979166665,59.0,65.0
6,3.692308,4.225000352083334,62.0,63.0
7,2.3076925,4.638461925,50.0,62.0
8,1.846154,4.7423080875,43.0,84.0
9,4.615385,4.934615795833333,59.0,79.0
10,4.615385,4.980769645833333,62.0,78.0
11,5.0769235,5.2076927416666665,57.0,78.0
12,5.538462,5.932692802083333,66.0,73.0
13,5.538462,6.096154354166667,59.0,72.0
14,5.538462,6.5307697749999996,62.0,79.0
15,6.0000005,6.7730774875,54.0,68.0
16,6.461539,7.163462135416666,66.0,76.0
17,7.15384675,7.2923083,59.0,70.0
18,7.384616,7.463462160416666,62.0,75.0
19,7.384616,7.50576985625,66.0,74.0
20,7.384616,7.50576985625,71.0,85.0
21,6.9230775,8.29038530625,54.0,64.0
22,5.538462,8.448077627083332,47.0,82.0
23,8.307693,8.459616089583333,59.0,74.0
24,8.307693,8.461539166666666,62.0,73.0
25,9.00000075,9.234616154166666,60.0,73.0
26,9.23077,9.676923883333334,72.0,76.0
27,9.23077,9.715385425,67.0,73.0
28,9.23077,9.7730777375,64.0,80.0
29,9.6923085,10.105770072916666,43.0,62.0
30,9.23077,10.11346238125,36.0,80.0
31,10.153847,10.342308554166667,64.0,79.0
32,10.153847,10.398077789583333,60.0,74.0
33,11.076924,11.765385595833333,57.0,71.0
34,11.076924,11.788462520833333,60.0,67.0
35,11.5384625,12.280770254166667,52.0,63.0
36,11.076924,12.32884718125,45.0,82.0
37,12.000001,12.609616435416667,57.0,79.0
38,12.4615395,12.944231847916667,60.0,81.0
39,12.923078,13.057693395833333,38.0,82.0
40,12.923078,13.186539560416666,57.0,70.0
41,12.923078,13.617308827083333,62.0,74.0
42,14.07692425,14.519231979166667,62.0,73.0
43,14.3076935,14.576924291666666,67.0,72.0
44,14.53846275,14.915385858333334,69.0,78.0
45,14.769232,15.75577054375,74.0,82.0
46,13.846155,15.992309024999999,57.0,69.0
47,13.3846165,16.075001339583334,50.0,79.0
48,16.615386,17.119232195833334,81.0,64.0
49,17.0769245,17.551924539583332,74.0,53.0
50,17.538463,18.065386120833335,67.0,51.0
51,16.615386,18.13846305,55.0,59.0
52,17.0769245,18.500001541666666,62.0,41.0
53,17.538463,18.5538477,78.0,54.0
54,18.46154,19.47500162291667,81.0,39.0
55,20.307694,20.846155583333335,81.0,75.0
56,20.7692325,21.30192485208333,74.0,58.0
57,20.307694,21.34230947083333,50.0,48.0
58,21.230771,21.476924866666668,64.0,44.0
59,20.7692325,21.707694116666666,57.0,39.0
60,21.230771,22.192309541666667,78.0,55.0
61,22.153848,22.232694160416667,66.0,43.0
62,22.153848,22.994232685416666,81.0,35.0
63,24.000002,24.51346358125,81.0,70.0
64,24.000002,24.840386685416668,52.0,50.0
65,24.461540499999998,24.903848229166666,59.0,45.0
66,24.461540499999998,24.946155925,74.0,56.0
67,24.923079,25.17115594375,64.0,54.0
68,24.923079,25.867309847916665,78.0,62.0
69,25.3846175,26.01346370625,59.0,43.0
70,25.846156,26.040386785416665,67.0,38.0
71,25.846156,27.211540729166668,79.0,49.0
72,27.69231,28.250002354166668,81.0,78.0
73,27.69231,28.43654083125,47.0,53.0
74,28.1538485,28.573079304166665,54.0,49.0
75,28.1538485,28.66154085,71.0,56.0
76,28.615387,28.7192331625,59.0,48.0
77,28.615387,29.496156304166668,74.0,51.0
78,29.0769255,29.632694777083334,54.0,35.0
79,29.538464,29.68269478125,62.0,35.0
80,29.538464,30.0000025,78.0,38.0
81,30.23077175,30.4730794625,78.0,64.0
82,30.461541,30.701925635416668,79.0,83.0
83,30.69231025,30.95192565625,78.0,64.0
84,30.9230795,31.117310285416668,76.0,56.0
85,31.153848749999998,31.403848770833335,74.0,44.0
86,31.384618,31.894233427083332,76.0,54.0
87,31.384618,31.894233427083332,76.0,64.0
88,31.8461565,32.309618077083336,67.0,55.0
89,31.8461565,32.34423346458333,55.0,48.0
90,32.307695,32.68461810833333,60.0,51.0
91,32.307695,32.8269258125,74.0,53.0
92,31.384618,32.90769505,48.0,51.0
93,32.7692335,33.24615661666667,67.0,39.0
94,33.230772,33.34231047083333,64.0,34.0
95,32.7692335,33.34807970208333,55.0,30.0
96,33.230772,34.138464383333336,76.0,38.0
97,34.153849,34.62500288541666,55.0,50.0
98,34.38461825,34.69231058333333,62.0,53.0
99,34.6153875,35.073079845833334,69.0,58.0
100,35.076926,35.56538757916667,81.0,74.0
101,35.076926,35.99615684583333,55.0,63.0
102,35.538464499999996,36.015387616666665,62.0,47.0
103,35.538464499999996,36.03077223333333,74.0,62.0
104,36.000003,36.43461842083333,67.0,66.0
105,36.000003,36.4615415,79.0,66.0
106,36.4615415,36.90961846041667,81.0,49.0
107,36.4615415,36.94231077083333,62.0,43.0
108,36.92308,38.00384932083333,76.0,43.0
109,36.97308000416667,38.038464708333336,67.0,43.0
110,36.98461846666667,38.0423108625,64.0,40.0
111,36.992310775,38.055772402083335,61.0,39.0
112,38.769234,39.70769561666667,74.0,76.0
113,39.21346480625,39.76731100625,55.0,49.0
114,38.78269553958334,39.97884948541667,48.0,56.0
115,39.692311,40.12884949791667,71.0,60.0
116,39.68269561458333,40.17308027083333,62.0,55.0
117,40.169234116666665,40.230772583333334,55.0,36.0
118,40.1538495,40.684618775,72.0,51.0
119,40.615388,41.61587070833333,71.0,44.0
120,41.080772654166665,41.766449870833334,52.0,49.0
121,40.62500338541667,41.886141,45.0,51.0
122,41.54830313541667,42.00390162708333,59.0,59.0
123,41.98266610416667,42.050233677083334,52.0,38.0
124,42.326295475,42.56374723125,72.0,36.0
125,42.362975014583334,42.88614107916666,75.0,53.0
126,42.463361122916666,43.001971204166665,81.0,55.0
127,42.41316806875,43.01934572291667,79.0,50.0
128,42.449847608333336,43.3340175625,48.0,68.0
129,42.91509861041666,43.436334172916666,55.0,63.0
130,43.38614111875,43.530928775,62.0,57.0
131,42.95563915416667,43.9131681875,72.0,57.0
132,43.834017602083335,43.932473208333334,63.0,50.0
133,43.43440367083333,43.94984772708333,75.0,54.0
134,43.8668361375,44.09463538333333,79.0,54.0
135,44.364905675,46.16799462083333,50.0,41.0
136,44.245214545833335,46.17378612708333,69.0,49.0
137,44.415098729166665,46.17764713125,81.0,63.0
138,44.37841918958333,46.17957763333333,57.0,38.0
139,44.316643122916666,46.21239616875,74.0,44.0
140,44.38421069583333,46.225909683333334,78.0,51.0
141,46.635176125,47.06947969375,50.0,43.0
142,47.55986435,47.788710522916666,59.0,44.0
143,46.866836375,49.16563371458333,57.0,61.0
144,46.171855625,49.25409526041666,43.0,79.0
145,47.329095099999996,49.31563372708333,50.0,35.0
146,47.7906336,49.38871065625,62.0,46.0
147,50.329095349999996,50.682941533333334,47.0,44.0
148,50.5598646,50.94255693958333,54.0,83.0
149,51.252172349999995,51.35409543541667,59.0,39.0
150,51.0214031,52.35409551875,47.0,37.0
151,49.86755685,52.39640321458333,40.0,87.0
152,51.252172349999995,52.88101863958333,55.0,43.0
153,51.4829416,53.00986480416667,59.0,10.0
154,51.71371085,53.125249429166665,64.0,51.0
155,52.64448015833333,53.55986485,52.0,73.0
156,54.02140335,54.31948029791666,55.0,47.0
157,54.2521726,54.76371110416667,62.0,88.0
158,54.94448035,56.336788158333334,64.0,56.0
159,53.55986485,56.37140354583333,48.0,81.0
160,54.7137111,56.44063432083333,55.0,50.0
161,57.71371135,58.13871138541666,50.0,43.0
162,57.9444806,58.44832679583333,57.0,80.0
163,58.636788349999996,59.615634585416664,59.0,58.0
164,57.25217285,60.12140385833333,43.0,88.0
165,58.406019099999995,60.19063463333333,50.0,38.0
166,59.559865349999995,60.26948079375,62.0,62.0
167,60.02140385,60.53101927708333,45.0,93.0
168,60.48294235,61.02140393333333,47.0,91.0
169,61.40601935,61.936788625,55.0,40.0
170,61.6367886,62.28678865416666,62.0,94.0
171,62.0983271,62.982942558333335,55.0,35.0
172,60.94448085,62.988711789583334,48.0,91.0
173,62.32909635,63.85794263125,64.0,68.0
174,63.713711849999996,64.63678885,60.0,81.0
175,65.09832735,65.45409661041667,50.0,52.0
176,65.3290966,65.80986587083333,57.0,91.0
177,65.7906351,66.367558225,50.0,34.0
178,64.63678885,66.48294285,43.0,94.0
179,66.02140435,66.52140439166666,59.0,67.0
180,66.48294285,67.49448139583333,62.0,51.0
181,66.57717362708334,68.26563530625,52.0,47.0
182,66.56178901041666,68.27332761458334,55.0,57.0
183,66.56178901041666,68.29063530833334,49.0,52.0
184,69.0214046,69.77909697083334,62.0,88.0
185,68.79063535,70.43486625624999,55.0,38.0
186,69.71371235,71.28486632708334,64.0,50.0
187,68.32909685,71.60986635416667,48.0,91.0
188,72.02140485,72.52525104583333,57.0,81.0
189,72.02140485,72.53871258541666,54.0,95.0
190,72.02140485,72.59448182083332,62.0,92.0
191,72.48294335,72.79640491458333,50.0,41.0
192,72.7137126,73.21755879583333,57.0,81.0
193,72.7137126,73.23102033541667,54.0,95.0
194,72.7137126,73.28678957083334,62.0,92.0
195,73.40602035,73.72332806874999,64.0,95.0
196,73.1752511,73.72525114583334,50.0,77.0
197,73.40602035,73.73294345416667,57.0,83.0
198,73.40602035,73.79255884375,54.0,100.0
199,72.02140485,73.81371269166667,38.0,107.0
200,74.0983281,74.49448197916666,57.0,87.0
201,74.0983281,74.536789675,66.0,111.0
202,74.0983281,74.55409736875,54.0,110.0
203,74.55986659999999,74.85217431666666,50.0,95.0
204,74.79063585,75.02525125416666,57.0,88.0
205,74.79063585,75.044482025,54.0,104.0
206,74.79063585,75.07717433541666,62.0,99.0
207,74.0983281,75.25986665833334,38.0,93.0
208,75.25217434999999,75.31371281666667,57.0,77.0
209,75.25217434999999,75.4021743625,66.0,109.0
210,75.25217434999999,75.40409743958332,54.0,99.0
211,75.0214051,75.50409744791666,50.0,106.0
212,75.4829436,75.57717437708334,38.0,105.0
213,75.71371285,76.16178981041666,62.0,82.0
214,75.71371285,76.21948212291667,55.0,86.0
215,76.63678985,76.77909755416667,59.0,89.0
216,76.63678985,76.8098667875,62.0,87.0
217,76.17525135,76.89448217916666,50.0,86.0
218,75.71371285,77.12717450625,43.0,85.0
219,77.09832835,77.60409762291667,55.0,94.0
220,77.55986684999999,77.98102073125,67.0,86.0
221,77.55986684999999,77.99448227083333,59.0,86.0
222,77.55986684999999,78.01948227291666,62.0,86.0
223,78.48294385,78.63679001666667,55.0,86.0
224,78.48294385,78.65409771041666,59.0,96.0
225,78.48294385,78.6560207875,62.0,87.0
226,78.48294385,78.71755925416667,67.0,85.0
227,78.02140535,78.89063619166666,50.0,70.0
228,77.55986684999999,78.94063619583333,43.0,86.0
229,78.94448235,79.07717466874999,69.0,81.0
230,78.94448235,79.08102082291666,57.0,76.0
231,79.40602085,79.77525165,66.0,78.0
232,79.40602085,79.83679011666666,59.0,81.0
233,79.40602085,79.86563627291667,62.0,81.0
234,80.32909785,80.52717478958334,59.0,92.0
235,80.32909785,80.7098671125,71.0,85.0
236,79.86755935,80.8252517375,54.0,74.0
237,80.79063635,80.99255944375,59.0,89.0
238,79.40602085,81.08102098958332,47.0,86.0
239,81.25217484999999,81.7598672,59.0,86.0
240,81.25217484999999,81.76371335416667,62.0,85.0
241,81.25217484999999,81.76371335416667,66.0,78.0
242,81.9444826,82.05409799374999,59.0,86.0
243,81.71371335,82.24832877916666,54.0,72.0
244,82.17525185,82.42717494791665,59.0,91.0
245,81.25217484999999,82.521405725,47.0,88.0
246,82.4060211,82.54255957291667,54.0,79.0
247,82.17525185,82.62140573333333,66.0,88.0
248,82.63679035,83.00409807291666,59.0,90.0
249,83.09832885,83.65217505,67.0,86.0
250,83.55986734999999,83.79640583125,59.0,86.0
251,84.02140585000001,84.1944827875,59.0,89.0
252,84.02140585000001,84.25409817708334,64.0,96.0
253,84.48294435,84.782944375,59.0,88.0
254,84.25217509999999,84.82717514791666,47.0,79.0
255,83.09832885,84.84448284166666,40.0,86.0
256,84.7137136,84.85025207291667,64.0,80.0
257,84.94448285,85.47717520208333,67.0,82.0
258,84.94448285,85.51371366666666,64.0,86.0
259,84.94448285,85.55794443958334,59.0,84.0
260,84.94448285,85.94255985625,40.0,89.0
261,85.40602135,85.97909832083333,47.0,73.0
262,85.86755984999999,86.04640601874999,59.0,87.0
263,85.86755984999999,86.17332910625001,64.0,90.0
264,86.79063685,87.32332920208333,59.0,86.0
265,87.4829446,87.53102152708334,59.0,70.0
266,86.79063685,87.58102153125,66.0,85.0
267,87.25217535,87.91371386666665,54.0,78.0
268,87.71371385,87.97525233333333,59.0,92.0
269,87.71371385,88.1637138875,62.0,99.0
270,86.79063685,88.29640620625,47.0,87.0
271,88.17525235,88.30794466875,54.0,87.0
272,88.63679085,89.02525242083334,55.0,85.0
273,88.63679085,89.09256011875,59.0,86.0
274,89.32909860000001,89.49640630625001,55.0,85.0
275,89.55986784999999,89.60794477708333,55.0,74.0
276,89.09832935,89.63486785625,50.0,86.0
277,89.55986784999999,89.92140634166667,59.0,99.0
278,89.55986784999999,89.9867909625,65.0,86.0
279,89.55986784999999,89.99640634791666,62.0,89.0
280,88.63679085,90.01179096458333,43.0,87.0
281,89.7906371,90.08871404791667,50.0,86.0
282,90.02140635,90.32525252916668,55.0,92.0
283,90.48294485,90.68102178958333,55.0,85.0
284,90.48294485,91.01179104791666,60.0,86.0
285,90.48294485,91.01563720208333,64.0,86.0
286,90.94448335,91.1406372125,55.0,82.0
287,91.40602185,91.61756032916666,55.0,86.0
288,90.48294485,91.67909879583334,48.0,90.0
289,91.40602185,91.85025265625,64.0,90.0
290,91.40602185,91.90602189166667,60.0,91.0
291,91.86756034999999,92.21948345625,55.0,85.0
292,92.32909885000001,92.70025272708332,59.0,85.0
293,92.32909885000001,92.77525273333333,62.0,85.0
294,92.32909885000001,92.79448350416666,66.0,85.0
295,92.79063735,93.1252527625,54.0,74.0
296,92.32909885000001,93.13102199375,47.0,87.0
297,93.0214066,93.14640661041666,59.0,86.0
298,93.25217585,93.53102202708334,51.0,90.0
299,93.25217585,93.53486818125,59.0,89.0
300,93.25217585,93.56948356875,63.0,92.0
301,93.25217585,93.65986819166667,66.0,87.0
302,93.71371435,94.01756052916667,59.0,101.0
303,94.17525284999999,94.56563749791667,59.0,88.0
304,94.17525284999999,94.57140672916667,64.0,87.0
305,95.09832985,95.28679140416666,59.0,87.0
306,95.09832985,95.59063758333333,64.0,96.0
307,95.55986834999999,95.72717605624999,59.0,88.0
308,95.09832985,95.81948375625001,67.0,87.0
309,94.17525284999999,95.93294530416667,40.0,87.0
310,94.63679135,95.97909915416668,47.0,66.0
311,96.02140685,96.31948379791666,59.0,86.0
312,96.02140685,96.52525304583332,64.0,90.0
313,96.48294535,96.94063769583333,59.0,90.0
314,96.94448385,97.0829454,64.0,91.0
315,96.94448385,97.1175607875,67.0,89.0
316,96.02140685,97.17333002291667,38.0,87.0
317,97.86756084999999,98.40602243333333,57.0,81.0
318,97.86756084999999,98.43871474375,61.0,83.0
319,98.32909935,98.64448399166668,64.0,83.0
320,98.79063785,98.998330175,57.0,74.0
321,98.79063785,99.34063789583334,61.0,74.0
322,98.79063785,99.34448405,69.0,79.0
323,98.79063785,99.41179174791667,64.0,81.0
324,97.86756084999999,99.4252532875,49.0,86.0
325,99.25217635,99.51563791041667,57.0,83.0
326,99.71371485,99.94063794583333,55.0,87.0
327,99.71371485,100.26756105,60.0,85.0
328,100.17525334999999,100.429099525,55.0,86.0
329,99.71371485,100.75794570625,48.0,89.0
330,100.63679185000001,101.08294573333333,64.0,89.0
331,100.63679185000001,101.14063804583333,55.0,91.0
332,101.09833035,101.50986884583332,60.0,89.0
333,101.55986885,101.64640731875,38.0,89.0
334,101.55986885,101.85986887499999,57.0,82.0
335,101.55986885,102.00794581041666,62.0,83.0
336,102.94448435,103.21948437291667,66.0,101.0
337,102.48294585,103.22525360416667,57.0,94.0
338,102.7137151,103.22909975833333,62.0,87.0
339,102.02140735,103.2329459125,50.0,87.0
340,103.17525359999999,103.31756130416667,69.0,86.0
341,103.40602285,103.97140751250001,62.0,87.0
342,103.40602285,103.99063828333334,66.0,92.0
343,103.40602285,103.99640751458332,74.0,92.0
344,103.40602285,104.07717675208333,69.0,88.0
345,104.0983306,104.20409983958334,62.0,92.0
346,103.86756134999999,104.46371524583333,57.0,91.0
347,104.32909985,104.59063833333333,62.0,101.0
348,103.40602285,104.66756141666667,50.0,94.0
349,104.5598691,104.675253725,64.0,99.0
350,104.79063835,105.05217683333333,67.0,88.0
351,105.25217685,105.70025381041665,62.0,82.0
352,105.25217685,105.75794612291666,55.0,86.0
353,106.17525384999999,106.31756155416667,59.0,89.0
354,106.17525384999999,106.3483307875,62.0,87.0
355,105.71371535,106.43294617916666,50.0,86.0
356,105.25217685,106.66563850624999,43.0,85.0
357,106.63679235000001,107.14256162291667,55.0,94.0
358,107.09833085,107.51948473125,67.0,86.0
359,107.09833085,107.53294627083332,59.0,86.0
360,107.09833085,107.55794627291667,62.0,86.0
361,108.02140785,108.17525401666666,55.0,86.0
362,108.02140785,108.19256171041667,59.0,96.0
363,108.02140785,108.19448478749999,62.0,87.0
364,108.02140785,108.25602325416666,67.0,85.0
365,107.55986935,108.42910019166666,50.0,70.0
366,107.09833085,108.47910019583333,43.0,86.0
367,108.48294634999999,108.61563866875,69.0,81.0
368,108.48294634999999,108.61948482291666,57.0,76.0
369,108.94448485,109.31371565,66.0,78.0
370,108.94448485,109.37525411666667,59.0,81.0
371,108.94448485,109.40410027291666,62.0,81.0
372,109.86756185,110.06563878958333,59.0,92.0
373,109.86756185,110.2483311125,71.0,85.0
374,109.40602335,110.3637157375,54.0,74.0
375,110.32910035,110.53102344375,59.0,89.0
376,108.94448485,110.61948498958333,47.0,86.0
377,110.79063885,111.29833119999999,59.0,86.0
378,110.79063885,111.30217735416666,62.0,85.0
379,110.79063885,111.30217735416666,66.0,78.0
380,111.4829466,111.59256199375,59.0,86.0
381,111.25217735,111.78679277916666,54.0,72.0
382,111.71371585,111.96563894791666,59.0,91.0
383,110.79063885,112.059869725,47.0,88.0
384,111.9444851,112.08102357291666,54.0,79.0
385,111.71371585,112.15986973333334,66.0,88.0
386,112.17525435,112.54256207291667,59.0,90.0
387,112.63679284999999,113.19063905,67.0,86.0
388,113.09833135,113.33486983125,59.0,86.0
389,113.55986985,113.7329467875,59.0,89.0
390,113.55986985,113.79256217708333,64.0,96.0
391,114.02140835,114.321408375,59.0,88.0
392,113.79063909999999,114.36563914791667,47.0,79.0
393,112.63679284999999,114.38294684166667,40.0,86.0
394,114.2521776,114.38871607291667,64.0,80.0
395,114.48294685,115.01563920208334,67.0,82.0
396,114.48294685,115.05217766666667,64.0,86.0
397,114.48294685,115.09640843958333,59.0,84.0
398,114.48294685,115.48102385625,40.0,89.0
399,114.94448535,115.51756232083333,47.0,73.0
400,115.40602385,115.58487001875,59.0,87.0
401,115.40602385,115.71179310625,64.0,90.0
402,116.32910085,116.86179320208333,59.0,86.0
403,117.0214086,117.06948552708333,59.0,70.0
404,116.32910085,117.11948553124999,66.0,85.0
405,116.79063934999999,117.45217786666666,54.0,78.0
406,117.25217785,117.51371633333333,59.0,92.0
407,117.25217785,117.7021778875,62.0,99.0
408,116.32910085,117.83487020625,47.0,87.0
409,117.71371635,117.84640866875,54.0,87.0
410,118.17525485,118.56371642083333,55.0,85.0
411,118.17525485,118.63102411874999,59.0,86.0
412,118.8675626,119.03487030625,55.0,85.0
413,119.09833185,119.14640877708334,55.0,74.0
414,118.63679335,119.17333185625,50.0,86.0
415,119.09833185,119.45987034166666,59.0,99.0
416,119.09833185,119.5252549625,65.0,86.0
417,119.09833185,119.53487034791667,62.0,89.0
418,118.17525485,119.55025496458333,43.0,87.0
419,119.3291011,119.62717804791666,50.0,86.0
420,119.55987035,119.86371652916667,55.0,92.0
421,120.02140885,120.21948578958333,55.0,85.0
422,120.02140885,120.55025504791666,60.0,86.0
423,120.02140885,120.55410120208333,64.0,86.0
424,120.48294735,120.6791012125,55.0,82.0
425,120.94448584999999,121.15602432916667,55.0,86.0
426,120.02140885,121.21756279583333,48.0,90.0
427,120.94448584999999,121.38871665625,64.0,90.0
428,120.94448584999999,121.44448589166666,60.0,91.0
429,121.40602435,121.75794745625,55.0,85.0
430,121.86756285,122.23871672708333,59.0,85.0
431,121.86756285,122.31371673333334,62.0,85.0
432,121.86756285,122.33294750416667,66.0,85.0
433,122.32910135,122.6637167625,54.0,74.0
434,121.86756285,122.66948599375,47.0,87.0
435,122.5598706,122.68487061041667,59.0,86.0
436,122.79063985,123.06948602708333,51.0,90.0
437,122.79063985,123.07333218125,59.0,89.0
438,122.79063985,123.10794756874999,63.0,92.0
439,122.79063985,123.19833219166667,66.0,87.0
440,123.25217835,123.55602452916666,59.0,101.0
441,123.71371685,124.10410149791666,59.0,88.0
442,123.71371685,124.10987072916666,64.0,87.0
443,124.63679385,124.82525540416667,59.0,87.0
444,124.63679385,125.12910158333334,64.0,96.0
445,125.09833234999999,125.26564005624999,59.0,88.0
446,124.63679385,125.35794775625,67.0,87.0
447,123.71371685,125.47140930416667,40.0,87.0
448,124.17525535,125.51756315416667,47.0,66.0
449,125.55987085,125.85794779791667,59.0,86.0
450,125.55987085,126.06371704583333,64.0,90.0
451,126.02140935,126.47910169583334,59.0,90.0
452,126.48294785,126.6214094,64.0,91.0
453,126.48294785,126.6560247875,67.0,89.0
454,125.55987085,126.71179402291666,38.0,87.0
455,127.40602485,127.94448643333334,57.0,81.0
456,127.40602485,127.97717874375,61.0,83.0
457,127.86756335,128.18294799166665,64.0,83.0
458,128.32910185,128.536794175,57.0,74.0
459,128.32910185,128.87910189583334,61.0,74.0
460,128.32910185,128.88294804999998,69.0,79.0
461,128.32910185,128.95025574791669,64.0,81.0
462,127.40602485,128.9637172875,49.0,86.0
463,128.79064035,129.05410191041665,57.0,83.0
464,129.25217885,129.47910194583335,55.0,87.0
465,129.25217885,129.80602505000002,60.0,85.0
466,129.71371735,129.967563525,55.0,86.0
467,129.25217885,130.29640970625002,48.0,89.0
468,130.17525584999999,130.62140973333334,64.0,89.0
469,130.17525584999999,130.67910204583333,55.0,91.0
470,130.63679435,131.04833284583333,60.0,89.0
471,131.09833285,131.259871325,38.0,88.0
472,131.09833285,132.10217908750002,74.0,84.0
473,131.09833285,132.20217909583334,62.0,82.0
474,132.94448685,133.92910231666667,54.0,69.0
475,132.48294835000002,134.02333309375,62.0,85.0
476,132.02140985,134.07141002083333,57.0,85.0
477,131.55987134999998,134.18871772291666,50.0,82.0
478,135.25217935,136.62141023333334,50.0,76.0
479,135.71371785,136.64641023541668,62.0,77.0
480,136.63679485,137.6175641625,67.0,75.0
481,136.63679485,137.63102570208332,36.0,78.0
482,136.63679485,137.63294877916667,63.0,78.0
483,136.63679485,137.6637180125,60.0,72.0
484,138.48294885,139.26564122291666,74.0,80.0
485,138.2521796,139.31756430416667,62.0,66.0
486,138.48294885,139.37910277083333,69.0,77.0
487,138.48294885,139.42717969791667,66.0,73.0
488,138.48294885,139.47910277916668,50.0,78.0
489,140.0983336,140.66756441666666,59.0,67.0
490,140.32910285,141.34256447291665,62.0,72.0
491,141.25217985,141.54448756666665,57.0,84.0
492,140.79064135,141.55602602916667,54.0,72.0
493,140.32910285,141.5637183375,66.0,78.0
494,140.32910285,141.98102606458332,47.0,79.0
495,142.17525684999998,142.70410304791665,64.0,82.0
496,142.17525684999998,142.7194876645833,59.0,69.0
497,142.17525684999998,143.20602616666667,52.0,83.0
498,143.09833385000002,143.21948770625,68.0,74.0
499,143.09833385000002,143.23871847708332,59.0,59.0
500,143.79064160000001,144.08102623958334,57.0,63.0
501,144.02141085,144.4252570375,64.0,73.0
502,144.02141085,144.43487242291667,69.0,78.0
503,144.02141085,144.49256473541666,60.0,72.0
504,144.94448785,145.85987254166668,57.0,78.0
505,145.40602635,145.95794947291665,60.0,74.0
506,145.86756485,146.79641108125,64.0,32.0
507,144.02141085,147.18487265208333,45.0,85.0
508,144.48294935,147.19833419166667,52.0,70.0
509,147.48294959999998,148.24641120208332,55.0,73.0
510,147.71371885,148.73871893541667,62.0,59.0
511,147.71371885,148.74256508958334,59.0,78.0
512,149.09833435000002,149.3291036,59.0,86.0
513,148.63679585,149.6406420875,55.0,87.0
514,149.55987285,149.7002574770833,67.0,80.0
515,149.55987285,149.70410363125,62.0,74.0
516,149.55987285,149.70602670833333,59.0,83.0
517,148.17525734999998,150.02718058124998,50.0,72.0
518,147.71371885,150.1252575125,43.0,84.0
519,150.48294985,150.75602679583335,57.0,83.0
520,150.48294985,150.75987295,53.0,82.0
521,150.48294985,150.77910372083335,60.0,85.0
522,150.48294985,150.82910372499998,65.0,86.0
523,150.48294985,150.85025757291666,41.0,87.0
524,151.40602685,151.50410378125,36.0,86.0
525,151.40602685,151.82910380833334,55.0,71.0
526,151.40602685,151.85410381041666,60.0,85.0
527,151.40602685,151.90602689166667,64.0,86.0
528,151.86756535,152.6406423375,48.0,85.0
529,152.32910385,152.68295003333333,64.0,87.0
530,152.32910385,152.72333465208334,60.0,90.0
531,153.0214116,153.54641164375,60.0,72.0
532,153.25218085,154.27718093541665,63.0,74.0
533,153.25218085,154.28487324374998,67.0,82.0
534,154.17525784999998,154.30410401458334,60.0,71.0
535,153.25218085,154.38487325208334,48.0,89.0
536,153.71371935,154.40218094583332,55.0,68.0
537,155.09833485000001,155.52910411666664,66.0,79.0
538,155.09833485000001,155.58487335208332,59.0,72.0
539,155.09833485000001,155.71564259375,62.0,81.0
540,155.55987335,156.1714118625,54.0,77.0
541,155.09833485000001,156.275258025,47.0,86.0
542,156.02141185,156.71564267708334,59.0,92.0
543,156.48295035,157.013719625,62.0,86.0
544,156.94448885,157.04641193541667,40.0,86.0
545,156.94448885,158.15795048958333,64.0,83.0
546,157.86756585,158.26371972916667,59.0,96.0
547,157.40602735,158.32141204166666,52.0,86.0
548,158.32910435,158.61179668124998,64.0,101.0
549,158.79064284999998,159.50602752499998,69.0,77.0
550,158.79064284999998,159.50795060208333,64.0,85.0
551,159.71371985000002,159.97525833333333,72.0,89.0
552,159.9444891,160.23871989375,71.0,86.0
553,160.17525834999998,160.44448914166668,69.0,87.0
554,160.40602760000002,160.53102761041666,64.0,85.0
555,160.63679685,160.73679685833332,64.0,72.0
556,160.63679685,160.86948917708332,69.0,76.0
557,159.25218135,161.87910464583334,52.0,87.0
558,161.55987385,161.8829508,64.0,81.0
559,158.79064284999998,161.95987388333333,45.0,86.0
560,161.55987385,161.96179696041668,67.0,80.0
561,162.48295085,162.58102778125,38.0,88.0
562,162.48295085,163.20025860208335,67.0,82.0
563,162.48295085,163.21372014166667,62.0,81.0
564,163.40602785,163.82718173125,62.0,84.0
565,163.6367971,163.95025866458332,67.0,77.0
566,163.86756635,164.18102791458332,69.0,79.0
567,164.09833559999998,164.40218177916665,71.0,78.0
568,164.32910485,164.9175664375,74.0,87.0
569,164.79064334999998,165.03679721666668,62.0,67.0
570,165.25218185,165.9560280625,66.0,41.0
571,165.25218185,166.03295114583335,69.0,60.0
572,163.1752586,166.11948961458333,57.0,81.0
573,162.94448935,166.14256653958333,50.0,85.0
574,166.63679735,166.8060281333333,59.0,41.0
575,166.8675666,167.06564353958333,59.0,18.0
576,166.17525884999998,167.36948971875,69.0,95.0
577,166.8675666,167.42141279999998,62.0,83.0
578,167.3291051,167.64256666458334,55.0,38.0
579,167.55987435,169.03872062708334,59.0,61.0
580,166.17525884999998,169.30987449583333,43.0,59.0
581,169.1752591,169.34448988333332,55.0,57.0
582,167.55987435,169.35795142291667,67.0,66.0
583,166.63679735,169.37141296250002,50.0,36.0
584,169.40602834999999,169.88102838958332,59.0,81.0
585,169.6367976,169.90410531458332,67.0,104.0
586,170.5598746,170.9637207875,66.0,105.0
587,171.02141310000002,171.46179775208333,52.0,43.0
588,171.25218235,172.2925670520833,55.0,44.0
589,171.48295159999998,172.32333628541664,67.0,100.0
590,172.4060286,172.64064400416666,52.0,45.0
591,169.86756685,172.75410555208333,40.0,77.0
592,172.8675671,173.075259425,52.0,68.0
593,170.32910535,173.09641327291666,47.0,46.0
594,172.63679785,173.13102866041666,55.0,92.0
595,173.09833635,173.14641327708333,40.0,71.0
596,172.63679785,173.27718251875,67.0,104.0
597,173.3291056,174.15987489999998,55.0,71.0
598,173.55987485,174.22525952083333,64.0,72.0
599,174.48295185,174.94449035,55.0,95.0
600,174.2521826,174.95987496666666,52.0,40.0
601,174.48295185,174.99449035416666,64.0,95.0
602,175.1752596,176.40795201041666,55.0,68.0
603,175.1752596,176.48295201666667,62.0,76.0
604,174.94449035,176.74833665416668,43.0,35.0
605,173.55987485,176.75218280833334,36.0,79.0
606,176.5598751,176.86756743333333,48.0,69.0
607,176.79064435,176.99256744375,55.0,95.0
608,177.0214136,177.33102901041667,62.0,104.0
609,177.9444906,178.53679834166667,57.0,100.0
610,178.4060291,178.63872142708334,55.0,41.0
611,178.63679835,179.68487536041667,67.0,102.0
612,178.8675676,179.71564459375,62.0,76.0
613,177.71372135,180.05218308333332,50.0,44.0
614,177.25218285,180.14256770625,43.0,85.0
615,179.7906446,180.275260025,55.0,56.0
616,180.48295235,180.53295235416667,43.0,74.0
617,180.2521831,180.53487543125,50.0,72.0
618,180.02141385,180.56179851041665,62.0,106.0
619,180.94449085,181.43872166041666,60.0,68.0
620,180.71372159999999,181.4867985875,55.0,59.0
621,180.94449085,181.49064474166667,64.0,85.0
622,181.6367986,182.34641404375,55.0,84.0
623,181.6367986,182.38102943125,62.0,94.0
624,182.32910635,183.20795257708332,52.0,39.0
625,182.5598756,183.80795262708332,55.0,72.0
626,182.5598756,183.85987570833333,64.0,64.0
627,180.94449085,184.03102956875,36.0,67.0
628,181.40602935,184.106029575,43.0,47.0
629,183.9444911,184.22718343125,52.0,64.0
630,184.17526035,184.67333731458334,55.0,100.0
631,184.4060296,184.70795270208333,64.0,102.0
632,184.63679885,185.18102966458332,62.0,99.0
633,185.3291066,185.79256817708333,59.0,87.0
634,184.63679885,186.03679896666665,43.0,69.0
635,186.02141435,186.23679898333333,55.0,74.0
636,185.09833735,186.2637220625,50.0,45.0
637,186.2521836,186.30218360416666,43.0,68.0
638,185.7906451,186.34256822291667,67.0,106.0
639,186.48295285,187.66179910208334,55.0,62.0
640,186.48295285,187.752183725,37.0,64.0
641,186.48295285,187.80602988333334,61.0,57.0
642,186.48295285,187.81372219166667,49.0,58.0
643,186.48295285,188.26949146041667,64.0,67.0
644,187.86756835,188.306029925,55.0,75.0
645,188.0983376,188.35602992916665,61.0,83.0
646,188.79064535,189.31372231666666,52.0,61.0
647,189.02141459999999,189.49064540833334,55.0,88.0
648,188.32910685,189.95410698541667,36.0,91.0
649,189.4829531,189.98295314166666,52.0,67.0
650,189.71372235,190.9021839875,55.0,81.0
651,189.25218385,190.93295322083333,64.0,102.0
652,189.9444916,190.94256860625,60.0,81.0
653,190.8675686,191.68103020625,36.0,95.0
654,191.09833785,191.72718405625,55.0,108.0
655,191.3291071,191.73872251875,52.0,97.0
656,191.55987635,191.81564560208332,60.0,97.0
657,191.7906456,191.90026099375,64.0,94.0
658,192.02141484999999,192.58103028125,62.0,88.0
659,192.02141484999999,192.59449182083333,54.0,92.0
660,192.94449185,193.04449185833334,54.0,110.0
661,192.7137226,193.05410724375,50.0,87.0
662,192.94449185,193.05410724375,62.0,108.0
663,193.40603035,193.91179962291667,50.0,68.0
664,193.6367996,194.02526117083332,62.0,100.0
665,193.6367996,194.06756886666668,57.0,115.0
666,193.6367996,194.07333809791666,66.0,105.0
667,192.02141484999999,194.54256890625,38.0,98.0
668,194.32910735,194.5483381375,67.0,113.0
669,194.32910735,194.55410736875,62.0,106.0
670,194.32910735,194.5598766,57.0,115.0
671,194.5598766,194.859876625,45.0,110.0
672,194.0983381,194.86372277916666,50.0,94.0
673,194.79064585,195.06949202708333,69.0,108.0
674,194.79064585,195.08295356666667,57.0,113.0
675,194.79064585,195.09833818333334,66.0,103.0
676,194.79064585,195.11949203125,62.0,92.0
677,194.79064585,195.3906459,38.0,109.0
678,195.25218435,195.49064590833333,57.0,113.0
679,195.02141509999998,195.51372283333333,50.0,108.0
680,195.25218435,195.52141514166667,62.0,83.0
681,195.4829536,195.53679975833333,45.0,110.0
682,195.25218435,195.53679975833333,69.0,100.0
683,195.25218435,195.54641514375,66.0,107.0
684,195.71179977291666,196.16179981041665,62.0,82.0
685,195.71179977291666,196.21949212291668,55.0,86.0
686,196.63679985,196.77910755416667,59.0,89.0
687,196.63679985,196.8098767875,62.0,87.0
688,196.17526135,196.89449217916666,50.0,86.0
689,195.71179977291666,197.12718450625,43.0,85.0
690,197.09833835,197.60410762291667,55.0,94.0
691,197.55987685,197.98103073125,67.0,86.0
692,197.55987685,197.99449227083332,59.0,86.0
693,197.55987685,198.01949227291666,62.0,86.0
694,198.48295385,198.63680001666665,55.0,86.0
695,198.48295385,198.65410771041667,59.0,96.0
696,198.48295385,198.6560307875,62.0,87.0
697,198.48295385,198.71756925416668,67.0,85.0
698,198.02141534999998,198.89064619166666,50.0,70.0
699,197.55987685,198.94064619583332,43.0,86.0
700,198.94449235,199.07718466875,69.0,81.0
701,198.94449235,199.08103082291666,57.0,76.0
702,199.40603085,199.77526165,66.0,78.0
703,199.40603085,199.83680011666667,59.0,81.0
704,199.40603085,199.86564627291668,62.0,81.0
705,200.32910784999999,200.52718478958334,59.0,92.0
706,200.32910784999999,200.7098771125,71.0,85.0
707,199.86756935,200.8252617375,54.0,74.0
708,200.79064635,200.99256944375,59.0,89.0
709,199.40603085,201.08103098958333,47.0,86.0
710,201.25218485,201.7598772,59.0,86.0
711,201.25218485,201.76372335416667,62.0,85.0
712,201.25218485,201.76372335416667,66.0,78.0
713,201.9444926,202.05410799375,59.0,86.0
714,201.71372335,202.24833877916666,54.0,72.0
715,202.17526185,202.42718494791666,59.0,91.0
716,201.25218485,202.521415725,47.0,88.0
717,202.4060311,202.54256957291668,54.0,79.0
718,202.17526185,202.62141573333332,66.0,88.0
719,202.63680035,203.00410807291667,59.0,90.0
720,203.09833885,203.65218504999999,67.0,86.0
721,203.55987735,203.79641583125,59.0,86.0
722,204.02141585,204.1944927875,59.0,89.0
723,204.02141585,204.25410817708334,64.0,96.0
724,204.48295435,204.782954375,59.0,88.0
725,204.2521851,204.82718514791665,47.0,79.0
726,203.09833885,204.84449284166666,40.0,86.0
727,204.7137236,204.85026207291668,64.0,80.0
728,204.94449285,205.47718520208332,67.0,82.0
729,204.94449285,205.51372366666666,64.0,86.0
730,204.94449285,205.55795443958334,59.0,84.0
731,204.94449285,205.94256985625,40.0,89.0
732,205.40603135,205.97910832083332,47.0,73.0
733,205.86756985,206.04641601875,59.0,87.0
734,205.86756985,206.17333910625,64.0,90.0
735,206.79064685,207.32333920208333,59.0,86.0
736,207.4829546,207.53103152708334,59.0,70.0
737,206.79064685,207.58103153125,66.0,85.0
738,207.25218535,207.91372386666666,54.0,78.0
739,207.71372385,207.97526233333332,59.0,92.0
740,207.71372385,208.1637238875,62.0,99.0
741,206.79064685,208.29641620625,47.0,87.0
742,208.17526235,208.30795466875,54.0,87.0
743,208.63680085,209.02526242083334,55.0,85.0
744,208.63680085,209.09257011875,59.0,86.0
745,209.32910859999998,209.49641630624998,55.0,85.0
746,209.55987785,209.60795477708334,55.0,74.0
747,209.09833935,209.63487785625,50.0,86.0
748,209.55987785,209.92141634166666,59.0,99.0
749,209.55987785,209.98680096249998,65.0,86.0
750,209.55987785,209.99641634791666,62.0,89.0
751,208.63680085,210.01180096458333,43.0,87.0
752,209.7906471,210.08872404791666,50.0,86.0
753,210.02141635,210.32526252916665,55.0,92.0
754,210.48295485,210.68103178958333,55.0,85.0
755,210.48295485,211.01180104791666,60.0,86.0
756,210.48295485,211.01564720208333,64.0,86.0
757,210.94449335,211.1406472125,55.0,82.0
758,211.40603185,211.61757032916665,55.0,86.0
759,210.48295485,211.67910879583334,48.0,90.0
760,211.40603185,211.85026265625,64.0,90.0
761,211.40603185,211.90603189166666,60.0,91.0
762,211.86757035,212.21949345625,55.0,85.0
763,212.32910885,212.70026272708333,59.0,85.0
764,212.32910885,212.77526273333334,62.0,85.0
765,212.32910885,212.79449350416667,66.0,85.0
766,212.79064735,213.1252627625,54.0,74.0
767,212.32910885,213.13103199374999,47.0,87.0
768,213.0214166,213.14641661041665,59.0,86.0
769,213.25218585,213.53103202708334,51.0,90.0
770,213.25218585,213.53487818125,59.0,89.0
771,213.25218585,213.56949356875,63.0,92.0
772,213.25218585,213.65987819166668,66.0,87.0
773,213.71372435,214.01757052916668,59.0,101.0
774,214.17526285,214.56564749791667,59.0,88.0
775,214.17526285,214.57141672916666,64.0,87.0
776,215.09833985,215.28680140416665,59.0,87.0
777,215.09833985,215.59064758333332,64.0,96.0
778,215.55987835,215.72718605625,59.0,88.0
779,215.09833985,215.81949375625,67.0,87.0
780,214.17526285,215.93295530416665,40.0,87.0
781,214.63680134999998,215.97910915416665,47.0,66.0
782,216.02141685,216.31949379791666,59.0,86.0
783,216.02141685,216.52526304583333,64.0,90.0
784,216.48295535,216.94064769583332,59.0,90.0
785,216.94449385,217.0829554,64.0,91.0
786,216.94449385,217.1175707875,67.0,89.0
787,216.02141685,217.17334002291668,38.0,87.0
788,217.86757085,218.40603243333334,57.0,81.0
789,217.86757085,218.43872474375,61.0,83.0
790,218.32910935,218.64449399166668,64.0,83.0
791,218.79064785,218.998340175,57.0,74.0
792,218.79064785,219.34064789583334,61.0,74.0
793,218.79064785,219.34449405,69.0,79.0
794,218.79064785,219.41180174791666,64.0,81.0
795,217.86757085,219.4252632875,49.0,86.0
796,219.25218635,219.51564791041667,57.0,83.0
797,219.71372485,219.94064794583332,55.0,87.0
798,219.71372485,220.26757105,60.0,85.0
799,220.17526335,220.429109525,55.0,86.0
800,219.71372485,220.75795570625,48.0,89.0
801,220.63680184999998,221.08295573333334,64.0,89.0
802,220.63680184999998,221.14064804583333,55.0,91.0
803,221.09834035,221.50987884583333,60.0,89.0
804,221.55987885,221.64641731875,38.0,89.0
805,221.55987885,221.859878875,57.0,82.0
806,221.55987885,222.00795581041666,62.0,83.0
807,222.94449434999999,223.21949437291667,66.0,101.0
808,222.48295585,223.22526360416666,57.0,94.0
809,222.7137251,223.22910975833332,62.0,87.0
810,222.02141735,223.2329559125,50.0,87.0
811,223.1752636,223.31757130416668,69.0,86.0
812,223.40603285,223.9714175125,62.0,87.0
813,223.40603285,223.99064828333334,66.0,92.0
814,223.40603285,223.99641751458333,74.0,92.0
815,223.40603285,224.07718675208332,69.0,88.0
816,224.0983406,224.20410983958334,62.0,92.0
817,223.86757135,224.46372524583333,57.0,91.0
818,224.32910985,224.59064833333332,62.0,101.0
819,223.40603285,224.66757141666668,50.0,94.0
820,224.5598791,224.675263725,64.0,99.0
821,224.79064835,225.05218683333334,67.0,88.0
822,225.25218685,225.70026381041666,62.0,82.0
823,225.25218685,225.75795612291665,55.0,86.0
824,226.17526385,226.31757155416668,59.0,89.0
825,226.17526385,226.3483407875,62.0,87.0
826,225.71372535,226.43295617916667,50.0,86.0
827,225.25218685,226.66564850625,43.0,85.0
828,226.63680235,227.14257162291668,55.0,94.0
829,227.09834085,227.51949473125,67.0,86.0
830,227.09834085,227.53295627083332,59.0,86.0
831,227.09834085,227.55795627291667,62.0,86.0
832,228.02141785,228.17526401666666,55.0,86.0
833,228.02141785,228.19257171041667,59.0,96.0
834,228.02141785,228.1944947875,62.0,87.0
835,228.02141785,228.25603325416665,67.0,85.0
836,227.55987935,228.42911019166667,50.0,70.0
837,227.09834085,228.47911019583333,43.0,86.0
838,228.48295635,228.61564866875,69.0,81.0
839,228.48295635,228.61949482291666,57.0,76.0
840,228.94449484999998,229.31372565,66.0,78.0
841,228.94449484999998,229.37526411666667,59.0,81.0
842,228.94449484999998,229.40411027291665,62.0,81.0
843,229.86757185,230.06564878958332,59.0,92.0
844,229.86757185,230.2483411125,71.0,85.0
845,229.40603335,230.3637257375,54.0,74.0
846,230.32911035,230.53103344375,59.0,89.0
847,228.94449484999998,230.61949498958333,47.0,86.0
848,230.79064885,231.2983412,59.0,86.0
849,230.79064885,231.30218735416668,62.0,85.0
850,230.79064885,231.30218735416668,66.0,78.0
851,231.4829566,231.59257199375,59.0,86.0
852,231.25218734999999,231.78680277916666,54.0,72.0
853,231.71372585,231.96564894791666,59.0,91.0
854,230.79064885,232.059879725,47.0,88.0
855,231.9444951,232.08103357291665,54.0,79.0
856,231.71372585,232.15987973333333,66.0,88.0
857,232.17526435,232.54257207291667,59.0,90.0
858,232.63680285,233.19064905,67.0,86.0
859,233.09834135,233.33487983125,59.0,86.0
860,233.55987985,233.7329567875,59.0,89.0
861,233.55987985,233.79257217708334,64.0,96.0
862,234.02141835,234.321418375,59.0,88.0
863,233.7906491,234.36564914791666,47.0,79.0
864,232.63680285,234.38295684166667,40.0,86.0
865,234.25218759999998,234.38872607291665,64.0,80.0
866,234.48295685,235.01564920208332,67.0,82.0
867,234.48295685,235.05218766666667,64.0,86.0
868,234.48295685,235.09641843958332,59.0,84.0
869,234.48295685,235.48103385625,40.0,89.0
870,234.94449535,235.51757232083332,47.0,73.0
871,235.40603385,235.58488001875,59.0,87.0
872,235.40603385,235.71180310625,64.0,90.0
873,236.32911085,236.86180320208334,59.0,86.0
874,237.0214186,237.06949552708332,59.0,70.0
875,236.32911085,237.11949553125,66.0,85.0
876,236.79064935,237.45218786666666,54.0,78.0
877,237.25218784999998,237.51372633333332,59.0,92.0
878,237.25218784999998,237.7021878875,62.0,99.0
879,236.32911085,237.83488020625,47.0,87.0
880,237.71372635,237.84641866875,54.0,87.0
881,238.17526485,238.56372642083332,55.0,85.0
882,238.17526485,238.63103411875,59.0,86.0
883,238.8675726,239.03488030625,55.0,85.0
884,239.09834185,239.14641877708334,55.0,74.0
885,238.63680335,239.17334185625,50.0,86.0
886,239.09834185,239.45988034166666,59.0,99.0
887,239.09834185,239.5252649625,65.0,86.0
888,239.09834185,239.53488034791667,62.0,89.0
889,238.17526485,239.55026496458333,43.0,87.0
890,239.3291111,239.62718804791666,50.0,86.0
891,239.55988035,239.86372652916666,55.0,92.0
892,240.02141885,240.21949578958333,55.0,85.0
893,240.02141885,240.55026504791667,60.0,86.0
894,240.02141885,240.55411120208333,64.0,86.0
895,240.48295735,240.6791112125,55.0,82.0
896,240.94449585,241.15603432916666,55.0,86.0
897,240.02141885,241.21757279583332,48.0,90.0
898,240.94449585,241.38872665625,64.0,90.0
899,240.94449585,241.44449589166666,60.0,91.0
900,241.40603435,241.75795745625,55.0,85.0
901,241.86757285,242.23872672708333,59.0,85.0
902,241.86757285,242.31372673333334,62.0,85.0
903,241.86757285,242.33295750416667,66.0,85.0
904,242.32911135,242.6637267625,54.0,74.0
905,241.86757285,242.66949599375,47.0,87.0
906,242.55988059999999,242.68488061041666,59.0,86.0
907,242.79064985,243.06949602708332,51.0,90.0
908,242.79064985,243.07334218124998,59.0,89.0
909,242.79064985,243.10795756875,63.0,92.0
910,242.79064985,243.19834219166665,66.0,87.0
911,243.25218835,243.55603452916665,59.0,101.0
912,243.71372685,244.10411149791668,59.0,88.0
913,243.71372685,244.10988072916666,64.0,87.0
914,244.63680385,244.82526540416666,59.0,87.0
915,244.63680385,245.12911158333333,64.0,96.0
916,245.09834235,245.26565005625,59.0,88.0
917,244.63680385,245.35795775625,67.0,87.0
918,243.71372685,245.47141930416666,40.0,87.0
919,244.17526535,245.51757315416666,47.0,66.0
920,245.55988084999998,245.85795779791667,59.0,86.0
921,245.55988084999998,246.06372704583333,64.0,90.0
922,246.02141935,246.47911169583332,59.0,90.0
923,246.48295785,246.6214194,64.0,91.0
924,246.48295785,246.6560347875,67.0,89.0
925,245.55988084999998,246.71180402291665,38.0,87.0
926,247.40603485,247.94449643333334,57.0,81.0
927,247.40603485,247.97718874375,61.0,83.0
928,247.86757335,248.18295799166665,64.0,83.0
929,248.32911185,248.536804175,57.0,74.0
930,248.32911185,248.87911189583332,61.0,74.0
931,248.32911185,248.88295804999998,69.0,79.0
932,248.32911185,248.95026574791666,64.0,81.0
933,247.40603485,248.9637272875,49.0,86.0
934,248.79065035,249.05411191041665,57.0,83.0
935,249.25218885,249.47911194583332,55.0,87.0
936,249.25218885,249.80603505,60.0,85.0
937,249.71372735,249.967573525,55.0,86.0
938,249.25218885,250.29641970625,48.0,89.0
939,250.17526585,250.62141973333334,64.0,89.0
940,250.17526585,250.67911204583334,55.0,91.0
941,250.63680435,251.04834284583333,60.0,89.0
942,251.09834285,251.259881325,38.0,88.0
943,251.09834285,252.1021890875,74.0,84.0
944,251.09834285,252.20218909583332,62.0,82.0
945,252.94449685,253.92911231666668,54.0,69.0
946,252.48295835,254.02334309375,62.0,85.0
947,252.02141985,254.07142002083333,57.0,85.0
948,251.55988134999998,254.18872772291667,50.0,82.0
949,254.5598816,255.29257396875,55.0,72.0
950,254.79065085,255.44642013541667,62.0,77.0
951,254.79065085,255.45218936666666,59.0,70.0
952,255.71372785,256.11372788333335,67.0,80.0
953,256.17526635,256.91949718125,55.0,73.0
954,256.63680485,257.16565104791664,59.0,65.0
955,256.63680485,257.16949720208333,62.0,63.0
956,255.25218935,257.582958775,50.0,62.0
957,254.79065085,257.6887280145833,43.0,84.0
958,257.55988185,257.8791126458333,59.0,79.0
959,257.55988185,257.92526649583334,62.0,78.0
960,258.02142034999997,258.1521895916667,57.0,78.0
961,258.48295885,258.8771896520833,66.0,73.0
962,258.48295885,259.0406512041667,59.0,72.0
963,258.48295885,259.47334354791667,62.0,79.0
964,258.94449735,259.71757433749997,54.0,68.0
965,259.40603584999997,260.10795898541664,66.0,76.0
966,260.0983436,260.23680515,59.0,70.0
967,260.32911285,260.4079590104167,62.0,75.0
968,260.32911285,260.45026670625,71.0,85.0
969,260.32911285,260.4521897833333,66.0,74.0
970,259.86757435,261.23488215625,54.0,64.0
971,258.48295885,261.3906514,47.0,82.0
972,261.25218985000004,261.40411293958334,59.0,74.0
973,261.25218985000004,261.40411293958334,62.0,73.0
974,261.9444976,262.17911300416665,60.0,73.0
975,262.17526684999996,262.62142073333337,72.0,76.0
976,262.17526684999996,262.6618053520833,67.0,73.0
977,262.17526684999996,262.7175745875,64.0,80.0
978,262.63680535000003,263.05219,43.0,62.0
979,262.17526684999996,263.05795923125004,36.0,80.0
980,263.09834385,263.28680540416667,64.0,79.0
981,263.09834385,263.3425746395833,60.0,74.0
982,264.02142085,264.70795936875004,57.0,71.0
983,264.02142085,264.7348824479167,60.0,67.0
984,264.48295935,265.2252671041667,52.0,63.0
985,264.02142085,265.2752671083333,45.0,82.0
986,264.94449785,265.55411328541663,57.0,79.0
987,265.40603635,265.8887286979167,60.0,81.0
988,265.86757485,266.00026716875,38.0,82.0
989,265.86757485,266.13103641041664,57.0,70.0
990,265.86757485,266.5618056770833,62.0,74.0
991,267.0214211,267.46565190625,62.0,73.0
992,267.25219035,267.5214211416667,67.0,72.0
993,267.48295959999996,267.8598827083333,69.0,78.0
994,267.71372885,268.70026739375,74.0,82.0
995,266.79065185,268.936805875,57.0,69.0
996,266.32911335,269.0194981895833,50.0,79.0
997,270.02142134999997,270.2252675208333,55.0,75.0
998,270.2521906,270.40603676666666,57.0,78.0
999,270.48295985,270.76180602708337,59.0,80.0
1000,270.7137291,270.93295988750003,62.0,87.0
1001,270.94449835,271.1041137479167,67.0,81.0
1002,271.1752676,271.30411376458335,69.0,84.0
1003,271.40603684999996,271.87719073541666,71.0,76.0
1004,271.6368061,271.91372920000003,74.0,80.0
1005,272.0983446,272.26372922916664,78.0,71.0
1006,272.32911385,272.48488309375,79.0,79.0
1007,272.79065234999996,272.97334467291665,79.0,66.0
1008,272.79065234999996,273.00603698333333,83.0,75.0
1009,273.25219085000003,273.39257547708337,86.0,74.0
1010,273.25219085000003,273.43103701875,79.0,64.0
1011,269.7906521,274.19257554374997,50.0,69.0
1012,269.55988285,274.31757555416664,43.0,85.0
