,start,end,pitch,velocity
0,25.187493283333332,25.464481845833333,69.0,83.0
1,25.52840228333333,25.784084033333333,71.0,86.0
2,25.86931128333333,26.0923225875,74.0,86.0
3,26.21022028333333,26.396299779166664,76.0,81.0
4,26.55112928333333,27.041185970833332,78.0,87.0
5,27.23294728333333,27.482947216666666,76.0,81.0
6,27.57385628333333,27.811072129166664,74.0,85.0
7,27.91476528333333,28.109367504166666,76.0,81.0
8,28.25567428333333,28.454537866666666,76.0,79.0
9,28.59658328333333,28.82669685833333,76.0,81.0
10,28.93749228333333,29.234367204166666,74.0,84.0
11,29.27840128333333,30.419025979166666,71.0,80.0
12,30.642037283333334,30.921866754166665,69.0,82.0
13,30.982946283333334,31.249991666666666,71.0,86.0
14,31.323855283333334,31.590900666666666,74.0,85.0
15,31.664764283333334,31.96732102083333,76.0,84.0
16,32.00567328333333,32.2798209375,78.0,80.0
17,32.34658228333333,32.571014041666665,81.0,83.0
18,32.68749128333333,32.9531162125,78.0,80.0
19,33.02840028333333,33.284082033333334,78.0,81.0
20,33.36930928333333,33.913343229166664,76.0,81.0
21,34.05112728333333,34.34516129583333,71.0,84.0
22,34.39203628333333,34.67612711666666,74.0,85.0
23,34.73294528333333,35.830956354166666,76.0,81.0
24,36.09658128333333,36.37356984583333,69.0,83.0
25,36.43749028333333,36.69317203333333,71.0,86.0
26,36.77839928333333,37.0014105875,74.0,86.0
27,37.11930828333333,37.305387779166665,76.0,81.0
28,37.46021728333333,37.95027397083333,78.0,87.0
29,38.14203528333333,38.39203521666666,76.0,81.0
30,38.48294428333333,38.720160129166665,74.0,85.0
31,38.823853283333335,39.01845550416667,76.0,81.0
32,39.16476228333333,39.363625866666666,76.0,79.0
33,39.505671283333335,39.73578485833333,76.0,81.0
34,39.84658028333333,40.14345520416666,74.0,84.0
35,40.187489283333335,41.328113979166666,71.0,80.0
36,41.551125283333334,41.83095475416666,69.0,82.0
37,41.89203428333333,42.15907966666666,71.0,86.0
38,42.232943283333334,42.49998866666667,74.0,85.0
39,42.57385228333333,42.87640902083333,76.0,84.0
40,42.914761283333334,43.188908937499995,78.0,80.0
41,43.25567028333333,43.48010204166666,81.0,83.0
42,43.596579283333334,43.8622042125,78.0,80.0
43,43.93748828333333,44.19317003333333,78.0,81.0
44,44.278397283333334,44.61930628333333,76.0,81.0
45,44.61930628333333,44.96021528333333,76.0,81.0
46,44.96021528333333,45.25424929583333,74.0,84.0
47,45.30112428333333,45.58521511666667,71.0,85.0
48,45.64203328333333,47.00566928333333,74.0,81.0
49,48.36930528333333,48.7457256375,83.0,82.0
50,48.880668783333334,48.980100575,81.0,82.0
51,49.05112328333333,49.877827608333334,83.0,86.0
52,50.07385028333333,50.173282074999996,81.0,84.0
53,50.244304783333334,50.33805475833333,83.0,83.0
54,50.41475928333333,50.64487285833333,81.0,85.0
55,50.75566828333333,50.98578185833333,78.0,82.0
56,51.09657728333333,51.30538404583333,81.0,84.0
57,51.43748628333333,51.61504305416666,81.0,79.0
58,51.77839528333333,52.11930428333333,81.0,82.0
59,52.11930428333333,52.46021328333333,83.0,81.0
60,52.46021328333333,53.14203128333333,78.0,81.0
61,53.82384928333333,54.18748555,76.0,84.0
62,54.33521278333333,54.43322412083333,74.0,83.0
63,54.50566728333333,55.34799660416667,76.0,84.0
64,55.528394283333334,55.64771243333333,71.0,83.0
65,55.69884878333333,55.7769737625,74.0,84.0
66,55.86930328333333,56.140610029166666,74.0,86.0
67,56.210212283333334,56.48151902916666,71.0,86.0
68,56.55112128333333,56.76418940833333,81.0,81.0
69,56.892030283333334,57.10509840833333,81.0,80.0
70,57.23293928333333,57.45879149583333,81.0,81.0
71,57.573848283333334,57.819586854166666,78.0,80.0
72,57.91475728333333,58.9729956375,76.0,87.0
73,59.27839328333333,59.569586387499996,78.0,82.0
74,59.61930228333333,60.144870325,81.0,81.0
75,60.30112028333333,60.546858854166665,81.0,80.0
76,60.64202928333333,60.89629057916667,83.0,82.0
77,60.98293828333333,61.19174504583333,81.0,81.0
78,61.32384728333333,61.46021088333333,78.0,83.0
79,61.494301783333334,61.5894722125,76.0,81.0
80,61.66475628333333,61.953108479166666,74.0,82.0
81,62.00566528333333,62.23151749583333,76.0,82.0
82,62.34657428333333,62.55538104583333,76.0,82.0
83,62.68748328333333,63.001403654166666,76.0,82.0
84,63.02839228333333,63.33947174583333,74.0,82.0
85,63.36930128333333,64.13492607916666,71.0,81.0
86,64.39202828333333,64.51134643333333,74.0,85.0
87,64.56248278333334,64.6576532125,76.0,82.0
88,64.73293728333333,65.599414325,78.0,83.0
89,65.75566428333333,65.99856194583333,81.0,81.0
90,66.09657328333333,66.67185722083333,83.0,84.0
91,66.77839128333333,67.0440162125,81.0,81.0
92,67.11930028333333,67.372141125,83.0,82.0
93,67.46020928333333,68.10225456666666,81.0,80.0
94,68.48293628333333,68.78691347499999,78.0,81.0
95,68.82384528333333,69.09089066666667,76.0,83.0
96,69.16475428333334,69.37356104583333,74.0,84.0
97,69.50566328333333,69.6264018875,76.0,81.0
98,69.67611778333332,69.79117457083333,74.0,82.0
99,69.84657228333333,70.11361766666667,71.0,83.0
100,70.18748128333333,72.55537837916667,74.0,87.0
101,92.00565728333333,92.28264584583333,69.0,83.0
102,92.34656628333333,92.60224803333332,71.0,86.0
103,92.68747528333333,92.9104865875,74.0,86.0
104,93.02838428333332,93.21446377916666,76.0,81.0
105,93.36929328333333,93.85934997083334,78.0,87.0
106,94.05111128333333,94.30111121666667,76.0,81.0
107,94.39202028333332,94.62923612916666,74.0,85.0
108,94.73292928333333,94.92753150416667,76.0,81.0
109,95.07383828333333,95.27270186666667,76.0,79.0
110,95.41474728333333,95.64486085833333,76.0,81.0
111,95.75565628333332,96.05253120416667,74.0,84.0
112,96.09656528333333,97.23718997916666,71.0,80.0
113,97.46020128333333,97.74003075416667,69.0,82.0
114,97.80111028333333,98.06815566666667,71.0,86.0
115,98.14201928333333,98.40906466666667,74.0,85.0
116,98.48292828333332,98.78548502083333,76.0,84.0
117,98.82383728333333,99.0979849375,78.0,80.0
118,99.16474628333333,99.38917804166667,81.0,83.0
119,99.50565528333333,99.7712802125,78.0,80.0
120,99.84656428333334,100.10224603333333,78.0,81.0
121,100.18747328333333,100.73150722916667,76.0,81.0
122,100.86929128333333,101.16332529583333,71.0,84.0
123,101.21020028333334,101.49429111666666,74.0,85.0
124,101.55110928333333,102.64912035416667,76.0,81.0
125,102.91474528333333,103.19173384583333,69.0,83.0
126,103.25565428333333,103.51133603333334,71.0,86.0
127,103.59656328333332,103.8195745875,74.0,86.0
128,103.93747228333334,104.12355177916666,76.0,81.0
129,104.27838128333333,104.76843797083333,78.0,87.0
130,104.96019928333332,105.21019921666667,76.0,81.0
131,105.30110828333333,105.53832412916667,74.0,85.0
132,105.64201728333333,105.83661950416666,76.0,81.0
133,105.98292628333333,106.18178986666666,76.0,79.0
134,106.32383528333332,106.55394885833333,76.0,81.0
135,106.66474428333333,106.96161920416667,74.0,84.0
136,107.00565328333333,108.14627797916667,71.0,80.0
137,108.36928928333333,108.64911875416666,69.0,82.0
138,108.71019828333333,108.97724366666667,71.0,86.0
139,109.05110728333332,109.31815266666666,74.0,85.0
140,109.39201628333333,109.69457302083333,76.0,84.0
141,109.73292528333333,110.0070729375,78.0,80.0
142,110.07383428333333,110.29826604166666,81.0,83.0
143,110.41474328333332,110.6803682125,78.0,80.0
144,110.75565228333333,111.01133403333333,78.0,81.0
145,111.09656128333333,111.43747028333333,76.0,81.0
146,111.43747028333333,111.77837928333332,76.0,81.0
147,111.77837928333332,112.07241329583333,74.0,84.0
148,112.11928828333333,112.40337911666666,71.0,85.0
149,112.46019728333333,113.82383328333333,74.0,81.0
150,115.18746928333333,115.5638896375,83.0,82.0
151,115.69883278333333,115.79826457499999,81.0,82.0
152,115.86928728333334,116.69599160833333,83.0,86.0
153,116.89201428333332,116.991446075,81.0,84.0
154,117.06246878333333,117.15621875833332,83.0,83.0
155,117.23292328333334,117.46303685833333,81.0,85.0
156,117.57383228333333,117.80394585833334,78.0,82.0
157,117.91474128333333,118.12354804583333,81.0,84.0
158,118.25565028333332,118.43320705416666,81.0,79.0
159,118.59655928333333,118.93746828333333,81.0,82.0
160,118.93746828333333,119.27837728333333,83.0,81.0
161,119.27837728333333,119.96019528333333,78.0,81.0
162,120.64201328333333,121.00564955,76.0,84.0
163,121.15337678333333,121.25138812083333,74.0,83.0
164,121.32383128333333,122.16616060416666,76.0,84.0
165,122.34655828333332,122.46587643333334,71.0,83.0
166,122.51701278333333,122.5951377625,74.0,84.0
167,122.68746728333333,122.95877402916666,74.0,86.0
168,123.02837628333333,123.29968302916666,71.0,86.0
169,123.36928528333333,123.58235340833333,81.0,81.0
170,123.71019428333332,123.92326240833333,81.0,80.0
171,124.05110328333333,124.27695549583333,81.0,81.0
172,124.39201228333333,124.63775085416667,78.0,80.0
173,124.73292128333333,125.7911596375,76.0,87.0
174,126.09655728333333,126.38775038749999,78.0,82.0
175,126.43746628333332,126.963034325,81.0,81.0
176,127.11928428333333,127.36502285416667,81.0,80.0
177,127.46019328333333,127.71445457916666,83.0,82.0
178,127.80110228333332,128.00990904583333,81.0,81.0
179,128.14201128333332,128.27837488333333,78.0,83.0
180,128.31246578333332,128.4076362125,76.0,81.0
181,128.48292028333333,128.77127247916667,74.0,82.0
182,128.82382928333334,129.04968149583334,76.0,82.0
183,129.16473828333332,129.37354504583334,76.0,82.0
184,129.50564728333333,129.81956765416666,76.0,82.0
185,129.84655628333334,130.15763574583332,74.0,82.0
186,130.18746528333332,130.95309007916666,71.0,81.0
187,131.21019228333333,131.32951043333333,74.0,85.0
188,131.38064678333333,131.4758172125,76.0,82.0
189,131.55110128333334,132.417578325,78.0,83.0
190,132.57382828333334,132.81672594583333,81.0,81.0
191,132.91473728333332,133.49002122083334,83.0,84.0
192,133.59655528333332,133.8621802125,81.0,81.0
193,133.93746428333333,134.19030512499998,83.0,82.0
194,134.27837328333334,134.92041856666665,81.0,80.0
195,135.30110028333334,135.605077475,78.0,81.0
196,135.64200928333332,135.90905466666666,76.0,83.0
197,135.98291828333333,136.19172504583332,74.0,84.0
198,136.32382728333332,136.4445658875,76.0,81.0
199,136.49428178333332,136.60933857083333,74.0,82.0
200,136.66473628333333,136.93178166666667,71.0,83.0
201,137.00564528333334,139.37354237916665,74.0,87.0
202,161.55109328333333,161.9275136375,83.0,82.0
203,162.06245678333332,162.161888575,81.0,82.0
204,162.23291128333332,163.05961560833333,83.0,86.0
205,163.25563828333333,163.355070075,81.0,84.0
206,163.42609278333333,163.51984275833334,83.0,83.0
207,163.59654728333334,163.82666085833333,81.0,85.0
208,163.93745628333332,164.16756985833334,78.0,82.0
209,164.27836528333333,164.48717204583332,81.0,84.0
210,164.61927428333334,164.79683105416666,81.0,79.0
211,164.96018328333332,165.30109228333333,81.0,82.0
212,165.30109228333333,165.64200128333331,83.0,81.0
213,165.64200128333331,166.32381928333334,78.0,81.0
214,167.00563728333333,167.36927355,76.0,84.0
215,167.51700078333332,167.6150121208333,74.0,83.0
216,167.68745528333332,168.52978460416665,76.0,84.0
217,168.71018228333332,168.82950043333332,71.0,83.0
218,168.88063678333333,168.9587617625,74.0,84.0
219,169.05109128333334,169.32239802916666,74.0,86.0
220,169.39200028333332,169.66330702916667,71.0,86.0
221,169.73290928333333,169.94597740833333,81.0,81.0
222,170.07381828333334,170.28688640833332,81.0,80.0
223,170.41472728333332,170.64057949583332,81.0,81.0
224,170.75563628333333,171.00137485416667,78.0,80.0
225,171.0965452833333,172.1547836375,76.0,87.0
226,172.46018128333333,172.7513743875,78.0,82.0
227,172.80109028333334,173.32665832499998,81.0,81.0
228,173.48290828333333,173.72864685416667,81.0,80.0
229,173.8238172833333,174.07807857916666,83.0,82.0
230,174.16472628333332,174.3735330458333,81.0,81.0
231,174.50563528333333,174.64199888333332,78.0,83.0
232,174.67608978333334,174.77126021249998,76.0,81.0
233,174.84654428333332,175.13489647916666,74.0,82.0
234,175.18745328333333,175.41330549583333,76.0,82.0
235,175.52836228333334,175.73716904583333,76.0,82.0
236,175.86927128333332,176.18319165416665,76.0,82.0
237,176.21018028333333,176.52125974583333,74.0,82.0
238,176.55108928333334,177.31671407916667,71.0,81.0
239,177.57381628333331,177.6931344333333,74.0,85.0
240,177.74427078333332,177.8394412125,76.0,82.0
241,177.91472528333333,178.78120232499998,78.0,83.0
242,178.93745228333333,179.1803499458333,81.0,81.0
243,179.27836128333334,179.85364522083333,83.0,84.0
244,179.96017928333333,180.22580421249998,81.0,81.0
245,180.3010882833333,180.553929125,83.0,82.0
246,180.64199728333332,181.28404256666667,81.0,80.0
247,181.66472428333333,181.968701475,78.0,81.0
248,182.00563328333334,182.27267866666665,76.0,83.0
249,182.34654228333332,182.55534904583334,74.0,84.0
250,182.68745128333333,182.8081898875,76.0,81.0
251,182.85790578333334,182.97296257083332,74.0,82.0
252,183.0283602833333,183.29540566666665,71.0,83.0
253,183.36926928333332,185.73716637916667,74.0,87.0
254,186.09654128333332,186.4729616375,83.0,82.0
255,186.60790478333334,186.707336575,81.0,82.0
256,186.77835928333332,187.60506360833332,83.0,86.0
257,187.80108628333332,187.90051807499998,81.0,84.0
258,187.97154078333332,188.06529075833333,83.0,83.0
259,188.14199528333333,188.37210885833332,81.0,85.0
260,188.4829042833333,188.71301785833333,78.0,82.0
261,188.82381328333332,189.0326200458333,81.0,84.0
262,189.16472228333333,189.34227905416665,81.0,79.0
263,189.50563128333332,189.84654028333333,81.0,82.0
264,189.84654028333333,190.18744928333334,83.0,81.0
265,190.18744928333334,190.86926728333333,78.0,81.0
266,191.55108528333332,191.91472155,76.0,84.0
267,192.06244878333334,192.16046012083333,74.0,83.0
268,192.23290328333331,193.07523260416667,76.0,84.0
269,193.25563028333332,193.37494843333332,71.0,83.0
270,193.42608478333332,193.50420976249998,74.0,84.0
271,193.59653928333333,193.86784602916666,74.0,86.0
272,193.93744828333334,194.20875502916667,71.0,86.0
273,194.27835728333332,194.49142540833333,81.0,81.0
274,194.61926628333333,194.83233440833334,81.0,80.0
275,194.9601752833333,195.18602749583332,81.0,81.0
276,195.30108428333332,195.54682285416666,78.0,80.0
277,195.64199328333333,196.7002316375,76.0,87.0
278,197.00562928333332,197.2968223875,78.0,82.0
279,197.34653828333333,197.872106325,81.0,81.0
280,198.02835628333332,198.27409485416666,81.0,80.0
281,198.36926528333333,198.62352657916665,83.0,82.0
282,198.71017428333332,198.91898104583333,81.0,81.0
283,199.05108328333333,199.18744688333334,78.0,83.0
284,199.22153778333333,199.3167082125,76.0,81.0
285,199.39199228333334,199.68034447916665,74.0,82.0
286,199.73290128333332,199.95875349583332,76.0,82.0
287,200.07381028333333,200.28261704583332,76.0,82.0
288,200.4147192833333,200.72863965416667,76.0,82.0
289,200.75562828333332,201.06670774583333,74.0,82.0
290,201.09653728333333,201.86216207916667,71.0,81.0
291,202.11926428333334,202.23858243333333,74.0,85.0
292,202.2897187833333,202.38488921249998,76.0,82.0
293,202.46017328333332,203.326650325,78.0,83.0
294,203.48290028333332,203.72579794583334,81.0,81.0
295,203.82380928333333,204.39909322083332,83.0,84.0
296,204.50562728333333,204.7712522125,81.0,81.0
297,204.84653628333334,205.099377125,83.0,82.0
298,205.18744528333332,205.82949056666666,81.0,80.0
299,206.21017228333332,206.51414947499998,78.0,81.0
300,206.55108128333333,206.81812666666667,76.0,83.0
301,206.8919902833333,207.10079704583333,74.0,84.0
302,207.23289928333332,207.35363788749999,76.0,81.0
303,207.40335378333333,207.51841057083334,74.0,82.0
304,207.57380828333334,207.84085366666665,71.0,83.0
305,207.91471728333332,210.28261437916666,74.0,87.0
