,start,end,pitch,velocity
0,3.3693172833333334,3.646305845833333,62.0,80.0
1,3.3693172833333334,3.659089933333333,66.0,76.0
2,3.3693172833333334,3.684658108333333,59.0,78.0
3,3.3693172833333334,3.73295355,47.0,82.0
4,4.051135283333333,4.201703425,57.0,75.0
5,4.051135283333333,4.211646604166667,61.0,68.0
6,4.051135283333333,4.24431705,45.0,80.0
7,4.051135283333333,4.2542602291666665,64.0,81.0
8,4.392044283333333,5.004260029166667,47.0,83.0
9,4.392044283333333,5.16477135,62.0,80.0
10,4.392044283333333,5.173294074999999,59.0,78.0
11,5.414771283333333,5.515623529166667,59.0,76.0
12,5.414771283333333,5.610793958333333,62.0,76.0
13,5.414771283333333,5.703123479166666,66.0,73.0
14,5.585225783333333,5.7315325625,59.0,82.0
15,5.755680283333333,5.9573847749999995,62.0,81.0
16,5.926134783333333,6.045452933333333,59.0,80.0
17,6.0965892833333335,6.536930075,57.0,81.0
18,6.0965892833333335,6.559657341666666,62.0,78.0
19,6.778407283333333,6.8565322625,57.0,77.0
20,6.0965892833333335,7.0610776625,38.0,84.0
21,6.778407283333333,7.5894866125,62.0,81.0
22,7.119316283333333,7.592327520833333,57.0,77.0
23,6.778407283333333,7.653407049999999,66.0,76.0
24,7.801134283333333,7.971588783333333,57.0,76.0
25,7.460225283333333,8.184656908333332,38.0,75.0
26,8.142043283333333,8.278406883333332,57.0,81.0
27,8.142043283333333,8.372156858333334,62.0,81.0
28,8.142043283333333,8.428975025,66.0,76.0
29,8.823861283333333,9.133520291666667,59.0,72.0
30,8.823861283333333,9.190338458333333,64.0,80.0
31,9.505679283333333,9.663349695833332,59.0,80.0
32,9.164770283333333,9.7499974,47.0,65.0
33,9.505679283333333,9.761361033333333,67.0,79.0
34,9.505679283333333,9.998576879166666,64.0,83.0
35,8.823861283333333,10.093747308333333,40.0,82.0
36,9.846588283333332,10.119315483333333,59.0,76.0
37,10.187497283333332,10.68749715,64.0,78.0
38,10.528406283333332,10.7088039625,59.0,73.0
39,10.869315283333332,10.984372070833333,59.0,85.0
40,10.528406283333332,11.002837975,40.0,76.0
41,10.869315283333332,11.170451566666665,67.0,80.0
42,10.869315283333332,11.240053820833333,64.0,85.0
43,11.210224283333332,11.33522425,59.0,77.0
44,11.551133283333332,11.900565008333333,66.0,71.0
45,11.551133283333332,12.0042581625,62.0,66.0
46,11.892042283333334,12.01704225,57.0,51.0
47,11.551133283333332,12.426133049999999,50.0,80.0
48,12.232951283333334,12.56249665,66.0,80.0
49,12.232951283333334,12.616473908333333,62.0,81.0
50,12.914769283333333,13.092326054166666,59.0,80.0
51,12.914769283333333,13.328121445833332,64.0,82.0
52,13.255678283333333,13.4019850625,59.0,73.0
53,13.596587283333333,13.718746341666666,59.0,81.0
54,12.914769283333333,13.901984929166666,40.0,83.0
55,13.596587283333333,14.2286893875,67.0,80.0
56,13.596587283333333,14.272723466666665,64.0,83.0
57,13.937496283333333,14.278405283333333,59.0,76.0
58,14.278405283333333,14.555393845833333,62.0,80.0
59,14.278405283333333,14.568177933333333,66.0,76.0
60,14.278405283333333,14.593746108333333,59.0,78.0
61,14.278405283333333,14.64204155,47.0,82.0
62,14.960223283333333,15.110791424999999,57.0,75.0
63,14.960223283333333,15.120734604166666,61.0,68.0
64,14.960223283333333,15.15340505,45.0,80.0
65,14.960223283333333,15.163348229166665,64.0,81.0
66,15.301132283333333,15.913348029166666,47.0,83.0
67,15.301132283333333,16.07385935,62.0,80.0
68,15.301132283333333,16.082382074999998,59.0,78.0
69,16.323859283333334,16.424711529166665,59.0,76.0
70,16.323859283333334,16.519881958333333,62.0,76.0
71,16.323859283333334,16.612211479166668,66.0,73.0
72,16.494313783333332,16.6406205625,59.0,82.0
73,16.664768283333334,16.866472775,62.0,81.0
74,16.835222783333332,16.954540933333334,59.0,80.0
75,17.005677283333334,17.446018074999998,57.0,81.0
76,17.005677283333334,17.468745341666665,62.0,78.0
77,17.687495283333334,17.7656202625,57.0,77.0
78,17.005677283333334,17.970165662499998,38.0,84.0
79,17.687495283333334,18.4985746125,62.0,81.0
80,18.028404283333334,18.501415520833334,57.0,77.0
81,17.687495283333334,18.56249505,66.0,76.0
82,18.710222283333334,18.88067678333333,57.0,76.0
83,18.369313283333334,19.09374490833333,38.0,75.0
84,19.051131283333333,19.187494883333333,57.0,81.0
85,19.051131283333333,19.281244858333334,62.0,81.0
86,19.051131283333333,19.338063025,66.0,76.0
87,19.732949283333333,20.223005970833334,61.0,81.0
88,19.732949283333333,20.225846879166667,57.0,75.0
89,20.414767283333333,20.566755879166667,57.0,80.0
90,20.073858283333333,20.605108141666665,49.0,66.0
91,19.732949283333333,20.67613085,42.0,81.0
92,20.414767283333333,20.869312616666665,61.0,82.0
93,20.755676283333333,21.122153458333333,57.0,81.0
94,20.414767283333333,21.139198908333334,66.0,80.0
95,21.096585283333333,21.73578965833333,42.0,83.0
96,21.437494283333333,21.776982829166666,49.0,74.0
97,21.778403283333333,21.892039616666665,57.0,78.0
98,21.778403283333333,22.110789558333334,66.0,81.0
99,21.778403283333333,22.201698625,61.0,87.0
100,22.119312283333333,22.349425858333333,57.0,81.0
101,22.460221283333333,22.914766616666665,61.0,69.0
102,22.460221283333333,22.919027979166664,64.0,81.0
103,23.142039283333332,23.210221083333334,57.0,73.0
104,22.801130283333332,23.386357399999998,52.0,74.0
105,23.142039283333332,23.497152825,61.0,86.0
106,23.142039283333332,23.549709629166667,64.0,83.0
107,22.460221283333333,23.596584616666664,45.0,80.0
108,23.482948283333332,23.6889141375,57.0,82.0
109,23.823857283333332,24.251413987499998,62.0,81.0
110,24.164766283333332,24.321016241666666,57.0,74.0
111,24.505675283333332,24.727266133333334,62.0,81.0
112,24.505675283333332,24.808232020833334,66.0,81.0
113,24.846584283333332,25.117891029166664,64.0,81.0
114,23.823857283333332,25.177550104166667,50.0,80.0
115,25.187493283333332,25.339481879166666,57.0,73.0
116,25.187493283333332,25.651981795833333,62.0,79.0
117,25.52840228333333,25.680390879166666,57.0,69.0
118,25.86931128333333,25.97584534583333,57.0,76.0
119,25.86931128333333,26.272720266666667,62.0,80.0
120,25.187493283333332,26.308231620833332,50.0,86.0
121,25.86931128333333,26.501413387499998,66.0,80.0
122,26.21022028333333,26.622151991666666,57.0,73.0
123,26.55112928333333,26.889197375,62.0,72.0
124,26.89203828333333,27.011356433333333,57.0,62.0
125,27.23294728333333,27.4644813125,57.0,76.0
126,27.23294728333333,27.681810799999997,62.0,81.0
127,27.57385628333333,27.7201630625,57.0,77.0
128,27.23294728333333,27.76703805,66.0,74.0
129,27.91476528333333,28.4190265125,64.0,81.0
130,28.25567428333333,28.4957310375,59.0,74.0
131,27.91476528333333,28.798287775,52.0,83.0
132,28.59658328333333,28.99431045,67.0,76.0
133,28.59658328333333,29.04402634583333,64.0,83.0
134,29.27840128333333,29.444594420833333,59.0,74.0
135,29.27840128333333,29.749992066666664,62.0,76.0
136,29.61931028333333,29.82811704583333,59.0,75.0
137,29.27840128333333,30.14345787083333,47.0,76.0
138,29.96021928333333,30.249991933333334,62.0,80.0
139,29.96021928333333,30.28976465,66.0,80.0
140,30.642037283333334,30.7883440625,57.0,72.0
141,30.642037283333334,31.1803894125,62.0,78.0
142,30.982946283333334,31.285503020833332,57.0,75.0
143,31.323855283333334,31.673287008333332,64.0,81.0
144,31.664764283333334,31.978684654166667,57.0,75.0
145,30.642037283333334,32.09800280416667,50.0,81.0
146,32.00567328333333,32.42328680833333,62.0,80.0
147,32.00567328333333,32.460218616666666,66.0,81.0
148,32.34658228333333,32.55538904583333,57.0,75.0
149,32.68749128333333,32.815332158333334,50.0,82.0
150,33.02840028333333,33.191752512499995,57.0,75.0
151,32.68749128333333,33.295445666666666,62.0,79.0
152,33.36930928333333,33.55112741666667,59.0,75.0
153,33.36930928333333,33.8309568875,64.0,79.0
154,33.71021828333333,34.098002270833334,59.0,73.0
155,33.36930928333333,34.218740875,40.0,81.0
156,34.05112728333333,34.404820370833335,67.0,77.0
157,34.05112728333333,34.42044536666666,64.0,80.0
158,34.39203628333333,34.5383430625,59.0,79.0
159,34.73294528333333,35.18464970833333,61.0,68.0
160,34.73294528333333,35.188911070833335,57.0,75.0
161,35.07385428333333,35.62783140833333,52.0,79.0
162,35.41476328333333,35.697433662499996,61.0,83.0
163,34.73294528333333,35.8167518125,45.0,80.0
164,35.41476328333333,35.91618360416666,64.0,86.0
165,36.09658128333333,36.56817206666666,62.0,81.0
166,36.43749028333333,36.78124019166667,57.0,80.0
167,36.77839928333333,37.049706029166664,64.0,81.0
168,37.11930828333333,37.55112635,57.0,76.0
169,37.46021728333333,37.85794445,66.0,87.0
170,36.09658128333333,37.92470579583333,50.0,84.0
171,37.80112628333333,37.99430805,57.0,77.0
172,38.14203528333333,38.274137520833335,57.0,84.0
173,38.14203528333333,38.411921575,50.0,91.0
174,38.48294428333333,38.70737604166666,57.0,71.0
175,38.14203528333333,38.751410120833334,62.0,84.0
176,38.823853283333335,39.01845550416667,59.0,76.0
177,38.823853283333335,39.230103174999996,64.0,80.0
178,39.16476228333333,39.505671283333335,59.0,75.0
179,38.823853283333335,39.57811444583333,40.0,81.0
180,39.505671283333335,39.66192124166667,64.0,80.0
181,39.505671283333335,39.8820916375,67.0,74.0
182,39.84658028333333,40.04260295833333,59.0,81.0
183,40.187489283333335,40.561068729166664,59.0,75.0
184,40.187489283333335,40.61646644166667,62.0,77.0
185,40.869307283333335,40.98294361666667,59.0,75.0
186,40.52839828333333,41.053966325,54.0,64.0
187,40.187489283333335,41.1818072,47.0,81.0
188,40.869307283333335,41.194591287499996,62.0,76.0
189,40.869307283333335,41.29828444166667,66.0,80.0
190,41.21021628333333,41.34942079166667,59.0,61.0
191,41.551125283333334,41.71021615,57.0,75.0
192,41.551125283333334,42.069591054166665,62.0,75.0
193,41.89203428333333,42.16476148333333,57.0,69.0
194,42.232943283333334,42.43322732083333,64.0,81.0
195,41.551125283333334,42.713056791666666,50.0,71.0
196,42.57385228333333,42.987204445833335,57.0,81.0
197,42.914761283333334,43.32385208333333,62.0,76.0
198,42.914761283333334,43.32811344583333,66.0,80.0
199,43.25567028333333,43.464477045833334,57.0,74.0
200,43.596579283333334,43.717317887499995,57.0,81.0
201,42.914761283333334,43.747147425,50.0,76.0
202,43.596579283333334,44.12924959583333,62.0,85.0
203,43.93748828333333,44.13351095833333,57.0,72.0
204,44.278397283333334,44.394874525,59.0,80.0
205,44.278397283333334,44.430385879166664,40.0,82.0
206,44.278397283333334,44.6122040125,64.0,80.0
207,44.61930628333333,44.75424942916666,59.0,75.0
208,44.96021528333333,45.07953343333333,57.0,77.0
209,44.96021528333333,45.28407883333333,61.0,74.0
210,44.96021528333333,45.519874224999995,45.0,81.0
211,44.96021528333333,45.5454424,64.0,80.0
212,45.30112428333333,45.551124216666665,57.0,81.0
213,45.64203328333333,45.78123779166666,57.0,81.0
214,45.64203328333333,46.05538544583333,62.0,80.0
215,45.98294228333333,46.18748768333333,57.0,69.0
216,46.32385128333333,46.48578305833333,62.0,82.0
217,46.32385128333333,46.610783024999996,66.0,84.0
218,45.64203328333333,46.813907970833334,50.0,81.0
219,46.66476028333333,46.884930679166665,57.0,81.0
220,47.00566928333333,47.24856694583333,57.0,81.0
221,47.00566928333333,47.261351033333334,62.0,82.0
222,47.34657828333333,47.446010075,64.0,85.0
223,47.68748728333333,47.85652132916667,66.0,83.0
224,47.68748728333333,47.89061222916666,57.0,81.0
225,48.02839628333333,48.09089626666667,57.0,71.0
226,48.02839628333333,48.16475988333333,69.0,85.0
227,47.00566928333333,48.210214416666666,50.0,86.0
228,48.36930528333333,48.7798165375,66.0,81.0
229,48.36930528333333,48.8053847125,59.0,80.0
230,48.71021428333333,49.201691425,54.0,65.0
231,49.05112328333333,49.28123685833333,62.0,84.0
232,49.05112328333333,49.33095275416667,59.0,81.0
233,49.39203228333333,49.86930488333333,54.0,67.0
234,49.73294128333333,50.08663437083333,66.0,80.0
235,49.73294128333333,50.10367982083333,59.0,82.0
236,50.07385028333333,50.41333882916666,54.0,61.0
237,48.36930528333333,50.541179704166666,47.0,82.0
238,50.41475928333333,50.55538424583333,59.0,81.0
239,50.41475928333333,50.64487285833333,62.0,81.0
240,50.75566828333333,50.995725037499994,59.0,72.0
241,51.09657728333333,51.50140672083333,62.0,77.0
242,51.09657728333333,51.517031716666665,57.0,76.0
243,51.43748628333333,51.832372541666665,45.0,59.0
244,51.09657728333333,51.8991338875,38.0,83.0
245,51.77839528333333,51.903395249999996,57.0,79.0
246,51.77839528333333,52.17470199583333,62.0,80.0
247,52.11930428333333,52.25424742916667,57.0,77.0
248,51.77839528333333,52.30254287083333,66.0,79.0
249,52.46021328333333,52.798281374999995,62.0,66.0
250,52.46021328333333,52.84657681666666,59.0,68.0
251,52.80112228333333,53.14061082916666,54.0,65.0
252,52.46021328333333,53.25140625416667,47.0,80.0
253,53.14203128333333,53.26419034166666,59.0,80.0
254,53.14203128333333,53.34657668333333,62.0,81.0
255,53.14203128333333,53.36220167916667,66.0,80.0
256,53.82384928333333,54.110781024999994,59.0,78.0
257,53.82384928333333,54.205951454166666,67.0,78.0
258,54.50566728333333,54.612201345833334,59.0,81.0
259,54.50566728333333,54.68890587083333,64.0,83.0
260,54.846576283333334,55.05112168333333,59.0,84.0
261,54.164758283333335,55.36078069166666,47.0,64.0
262,55.18748528333333,55.394871591666664,59.0,83.0
263,55.18748528333333,55.75424649583333,67.0,78.0
264,55.528394283333334,55.9815191625,47.0,65.0
265,55.86930328333333,55.98436007083333,59.0,85.0
266,53.82384928333333,56.01418960833333,40.0,80.0
267,55.86930328333333,56.1860645625,64.0,91.0
268,56.210212283333334,56.30396225833333,59.0,85.0
269,56.55112128333333,56.931802999999995,57.0,80.0
270,56.55112128333333,56.93890527083333,61.0,84.0
271,56.55112128333333,57.26276882083333,42.0,86.0
272,56.892030283333334,57.29543926666666,49.0,66.0
273,57.23293928333333,57.52697329583333,66.0,79.0
274,57.23293928333333,57.6093596375,61.0,87.0
275,57.573848283333334,57.75140505416667,57.0,81.0
276,57.91475728333333,58.144870858333334,64.0,81.0
277,57.91475728333333,58.14771176666667,61.0,75.0
278,57.91475728333333,58.17896175833333,57.0,77.0
279,58.25566628333333,58.735779791666666,52.0,80.0
280,58.59657528333333,58.735779791666666,57.0,82.0
281,57.91475728333333,58.7727116,45.0,81.0
282,58.59657528333333,58.849416125,61.0,87.0
283,58.59657528333333,58.95026837083333,69.0,81.0
284,58.93748428333333,59.161916041666665,57.0,89.0
285,59.27839328333333,59.43606369583333,57.0,76.0
286,59.27839328333333,59.711631804166664,62.0,80.0
287,59.61930228333333,59.782654512499995,57.0,71.0
288,59.27839328333333,60.06674534583333,50.0,85.0
289,59.96021128333333,60.109358970833334,57.0,81.0
290,59.96021128333333,60.383506624999995,62.0,83.0
291,60.30112028333333,60.443165699999994,57.0,73.0
292,59.96021128333333,60.45026797083333,66.0,82.0
293,60.64202928333333,61.076688258333334,62.0,78.0
294,60.64202928333333,61.082370075,59.0,78.0
295,60.98293828333333,61.373563179166666,54.0,67.0
296,61.32384728333333,61.50282450833333,59.0,79.0
297,60.64202928333333,61.565324491666665,47.0,82.0
298,61.32384728333333,61.63918810833333,62.0,82.0
299,61.32384728333333,61.656233558333334,66.0,81.0
300,61.66475628333333,62.053960724999996,59.0,81.0
301,62.00566528333333,62.3820856375,67.0,78.0
302,62.00566528333333,62.40339245,64.0,82.0
303,62.34657428333333,62.5184492375,59.0,75.0
304,62.68748328333333,62.806801433333334,59.0,86.0
305,62.00566528333333,62.98435820416666,52.0,80.0
306,62.68748328333333,63.04401727916667,64.0,91.0
307,63.02839228333333,63.21589223333333,59.0,83.0
308,63.36930128333333,63.693164833333334,59.0,81.0
309,63.36930128333333,63.76702845,62.0,79.0
310,63.71021028333333,64.21163060416666,54.0,73.0
311,64.05111928333334,64.21305105833333,59.0,83.0
312,64.05111928333334,64.40339191666666,62.0,83.0
313,64.05111928333334,64.42043736666666,66.0,85.0
314,63.36930128333333,64.44600554166666,47.0,81.0
315,64.39202828333333,64.5894714125,59.0,80.0
316,64.73293728333333,64.91617587083333,57.0,80.0
317,64.73293728333333,65.14628944583333,62.0,78.0
318,65.07384628333332,65.2883348625,57.0,76.0
319,64.73293728333333,65.454528,50.0,76.0
320,65.41475528333334,65.58094842083334,57.0,81.0
321,65.41475528333334,65.86645970833334,66.0,84.0
322,65.41475528333334,65.87498243333333,62.0,84.0
323,65.75566428333333,65.91475514999999,57.0,76.0
324,66.09657328333333,66.43180046666666,59.0,80.0
325,66.09657328333333,66.46020955,62.0,77.0
326,66.43748228333332,66.88350489166666,54.0,68.0
327,66.77839128333333,66.93464124166667,59.0,80.0
328,66.09657328333333,67.08947074583332,47.0,81.0
329,66.77839128333333,67.1121980125,62.0,85.0
330,66.77839128333333,67.13492527916667,66.0,84.0
331,67.11930028333333,67.2315161625,59.0,80.0
332,67.28975478333334,67.338050225,61.0,48.0
333,67.46020928333333,67.696004675,57.0,75.0
334,67.46020928333333,67.76560692916667,61.0,70.0
335,67.80111828333332,68.23719771249999,49.0,67.0
336,68.14202728333333,68.29543633333333,57.0,82.0
337,67.46020928333333,68.34941359166666,42.0,86.0
338,68.14202728333333,68.53265217916666,61.0,87.0
339,68.14202728333333,68.54969762916666,66.0,82.0
340,68.48293628333333,68.6292430625,57.0,82.0
341,68.82384528333333,69.008504325,59.0,77.0
342,68.82384528333333,69.19032245833333,64.0,82.0
343,68.82384528333333,69.2002656375,52.0,91.0
344,69.16475428333334,69.29543606666667,59.0,83.0
345,69.50566328333333,69.76844730416667,57.0,76.0
346,69.50566328333333,69.8522541,61.0,80.0
347,69.50566328333333,69.90481090416667,45.0,80.0
348,69.84657228333333,69.94458362083333,52.0,83.0
349,70.18748128333333,70.30964034166666,38.0,82.0
350,70.18748128333333,70.45452666666667,57.0,75.0
351,70.18748128333333,70.5340721,62.0,75.0
352,71.21020828333333,71.49003775416666,62.0,86.0
353,71.55111728333333,71.92185582083333,64.0,91.0
354,71.89202628333334,72.01134443333333,62.0,76.0
355,70.86929928333333,72.33094662083333,57.0,91.0
356,72.23293528333333,72.7031056125,62.0,81.0
357,70.52839028333334,72.80821922083334,50.0,81.0
358,72.23293528333333,72.82952603333334,66.0,82.0
359,72.23293528333333,72.85935557083333,69.0,82.0
360,72.57384428333333,72.86645784166666,57.0,80.0
361,72.91475328333333,73.355094075,57.0,81.0
362,72.91475328333333,73.37782134166666,62.0,78.0
363,73.59657128333333,73.67469626249999,57.0,77.0
364,72.91475328333333,73.8792416625,38.0,84.0
365,73.59657128333333,74.40765061249999,62.0,81.0
366,73.93748028333333,74.41049152083333,57.0,77.0
367,73.59657128333333,74.47157105,66.0,76.0
368,74.61929828333334,74.78975278333333,57.0,76.0
369,74.27838928333333,75.00282090833333,38.0,75.0
370,74.96020728333333,75.09657088333333,57.0,81.0
371,74.96020728333333,75.19032085833334,62.0,81.0
372,74.96020728333333,75.247139025,66.0,76.0
373,75.64202528333333,75.95168429166667,59.0,72.0
374,75.64202528333333,76.00850245833333,64.0,80.0
375,76.32384328333333,76.48151369583333,59.0,80.0
376,75.98293428333334,76.5681614,47.0,65.0
377,76.32384328333333,76.57952503333333,67.0,79.0
378,76.32384328333333,76.81674087916666,64.0,83.0
379,75.64202528333333,76.91191130833333,40.0,82.0
380,76.66475228333333,76.93747948333333,59.0,76.0
381,77.00566128333332,77.50566115,64.0,78.0
382,77.34657028333334,77.5269679625,59.0,73.0
383,77.68747928333333,77.80253607083333,59.0,85.0
384,77.34657028333334,77.821001975,40.0,76.0
385,77.68747928333333,77.98861556666667,67.0,80.0
386,77.68747928333333,78.05821782083333,64.0,85.0
387,78.02838828333333,78.15338824999999,59.0,77.0
388,78.36929728333332,78.71872900833333,66.0,71.0
389,78.36929728333332,78.82242216249999,62.0,66.0
390,78.71020628333333,78.83520625,57.0,51.0
391,78.36929728333332,79.24429705,50.0,80.0
392,79.05111528333333,79.38066065,66.0,80.0
393,79.05111528333333,79.43463790833333,62.0,81.0
394,79.73293328333332,79.91049005416666,59.0,80.0
395,79.73293328333332,80.14628544583333,64.0,82.0
396,80.07384228333333,80.2201490625,59.0,73.0
397,80.41475128333333,80.53691034166667,59.0,81.0
398,79.73293328333332,80.72014892916667,40.0,83.0
399,80.41475128333333,81.0468533875,67.0,80.0
400,80.41475128333333,81.09088746666666,64.0,83.0
401,80.75566028333333,81.09656928333332,59.0,76.0
402,81.09656928333332,81.37355784583333,62.0,80.0
403,81.09656928333332,81.38634193333333,66.0,76.0
404,81.09656928333332,81.41191010833333,59.0,78.0
405,81.09656928333332,81.46020555,47.0,82.0
406,81.77838728333333,81.928955425,57.0,75.0
407,81.77838728333333,81.93889860416667,61.0,68.0
408,81.77838728333333,81.97156905,45.0,80.0
409,81.77838728333333,81.98151222916667,64.0,81.0
410,82.11929628333333,82.73151202916667,47.0,83.0
411,82.11929628333333,82.89202335,62.0,80.0
412,82.11929628333333,82.900546075,59.0,78.0
413,83.14202328333333,83.24287552916667,59.0,76.0
414,83.14202328333333,83.33804595833332,62.0,76.0
415,83.14202328333333,83.43037547916666,66.0,73.0
416,83.31247778333334,83.4587845625,59.0,82.0
417,83.48293228333333,83.684636775,62.0,81.0
418,83.65338678333333,83.77270493333333,59.0,80.0
419,83.82384128333334,84.264182075,57.0,81.0
420,83.82384128333334,84.28690934166666,62.0,78.0
421,84.50565928333333,84.5837842625,57.0,77.0
422,83.82384128333334,84.78832966249999,38.0,84.0
423,84.50565928333333,85.3167386125,62.0,81.0
424,84.84656828333333,85.31957952083333,57.0,77.0
425,84.50565928333333,85.38065904999999,66.0,76.0
426,85.52838628333333,85.69884078333332,57.0,76.0
427,85.18747728333334,85.91190890833333,38.0,75.0
428,85.86929528333333,86.00565888333333,57.0,81.0
429,85.86929528333333,86.09940885833333,62.0,81.0
430,85.86929528333333,86.15622702499999,66.0,76.0
431,86.55111328333334,87.04116997083332,61.0,81.0
432,86.55111328333334,87.04401087916666,57.0,75.0
433,87.23293128333333,87.38491987916666,57.0,80.0
434,86.89202228333333,87.42327214166666,49.0,66.0
435,86.55111328333334,87.49429485,42.0,81.0
436,87.23293128333333,87.68747661666666,61.0,82.0
437,87.57384028333333,87.94031745833333,57.0,81.0
438,87.23293128333333,87.95736290833332,66.0,80.0
439,87.91474928333334,88.55395365833333,42.0,83.0
440,88.25565828333333,88.59514682916667,49.0,74.0
441,88.59656728333333,88.71020361666666,57.0,78.0
442,88.59656728333333,88.92895355833333,66.0,81.0
443,88.59656728333333,89.019862625,61.0,87.0
444,88.93747628333333,89.16758985833333,57.0,81.0
445,89.27838528333334,89.73293061666666,61.0,69.0
446,89.27838528333334,89.73719197916667,64.0,81.0
447,89.96020328333333,90.02838508333333,57.0,73.0
448,89.61929428333333,90.20452139999999,52.0,74.0
449,89.96020328333333,90.315316825,61.0,86.0
450,89.96020328333333,90.36787362916667,64.0,83.0
451,89.27838528333334,90.41474861666666,45.0,80.0
452,90.30111228333332,90.5070781375,57.0,82.0
453,90.64202128333334,91.0695779875,62.0,81.0
454,90.98293028333333,91.13918024166666,57.0,74.0
455,91.32383928333333,91.54543013333333,62.0,81.0
456,91.32383928333333,91.62639602083333,66.0,81.0
457,91.66474828333332,91.93605502916667,64.0,81.0
458,90.64202128333334,91.99571410416667,50.0,80.0
459,92.00565728333333,92.15764587916667,57.0,73.0
460,92.00565728333333,92.47014579583333,62.0,79.0
461,92.34656628333333,92.49855487916666,57.0,69.0
462,92.68747528333333,92.79400934583333,57.0,76.0
463,92.68747528333333,93.09088426666666,62.0,80.0
464,92.00565728333333,93.12639562083334,50.0,86.0
465,92.68747528333333,93.31957738749999,66.0,80.0
466,93.02838428333332,93.44031599166667,57.0,73.0
467,93.36929328333333,93.70736137499999,62.0,72.0
468,93.71020228333333,93.82952043333333,57.0,62.0
469,94.05111128333333,94.2826453125,57.0,76.0
470,94.05111128333333,94.49997479999999,62.0,81.0
471,94.39202028333332,94.5383270625,57.0,77.0
472,94.05111128333333,94.58520204999999,66.0,74.0
473,94.73292928333333,95.23719051249999,64.0,81.0
474,95.07383828333333,95.31389503749999,59.0,74.0
475,94.73292928333333,95.616451775,52.0,83.0
476,95.41474728333333,95.81247445,67.0,76.0
477,95.41474728333333,95.86219034583333,64.0,83.0
478,96.09656528333333,96.26275842083334,59.0,74.0
479,96.09656528333333,96.56815606666666,62.0,76.0
480,96.43747428333333,96.64628104583333,59.0,75.0
481,96.09656528333333,96.96162187083333,47.0,76.0
482,96.77838328333333,97.06815593333333,62.0,80.0
483,96.77838328333333,97.10792864999999,66.0,80.0
484,97.46020128333333,97.6065080625,57.0,72.0
485,97.46020128333333,97.9985534125,62.0,78.0
486,97.80111028333333,98.10366702083333,57.0,75.0
487,98.14201928333333,98.49145100833333,64.0,81.0
488,98.48292828333332,98.79684865416667,57.0,75.0
489,97.46020128333333,98.91616680416666,50.0,81.0
490,98.82383728333333,99.24145080833333,62.0,80.0
491,98.82383728333333,99.27838261666666,66.0,81.0
492,99.16474628333333,99.37355304583333,57.0,75.0
493,99.50565528333333,99.63349615833333,50.0,82.0
494,99.84656428333334,100.0099165125,57.0,75.0
495,99.50565528333333,100.11360966666666,62.0,79.0
496,100.18747328333333,100.36929141666667,59.0,75.0
497,100.18747328333333,100.64912088749999,64.0,79.0
498,100.52838228333333,100.91616627083333,59.0,73.0
499,100.18747328333333,101.03690487499999,40.0,81.0
500,100.86929128333333,101.22298437083333,67.0,77.0
501,100.86929128333333,101.23860936666667,64.0,80.0
502,101.21020028333334,101.3565070625,59.0,79.0
503,101.55110928333333,102.00281370833333,61.0,68.0
504,101.55110928333333,102.00707507083332,57.0,75.0
505,101.89201828333333,102.44599540833333,52.0,79.0
506,102.23292728333332,102.5155976625,61.0,83.0
507,101.55110928333333,102.6349158125,45.0,80.0
508,102.23292728333332,102.73434760416666,64.0,86.0
509,102.91474528333333,103.38633606666666,62.0,81.0
510,103.25565428333333,103.59940419166666,57.0,80.0
511,103.59656328333332,103.86787002916667,64.0,81.0
512,103.93747228333334,104.36929035,57.0,76.0
513,104.27838128333333,104.67610845,66.0,87.0
514,102.91474528333333,104.74286979583333,50.0,84.0
515,104.61929028333333,104.81247205,57.0,77.0
516,104.96019928333332,105.09230152083333,57.0,84.0
517,104.96019928333332,105.23008557499999,50.0,91.0
518,105.30110828333333,105.52554004166666,57.0,71.0
519,104.96019928333332,105.56957412083332,62.0,84.0
520,105.64201728333333,105.83661950416666,59.0,76.0
521,105.64201728333333,106.04826717499999,64.0,80.0
522,105.98292628333333,106.32383528333332,59.0,75.0
523,105.64201728333333,106.39627844583333,40.0,81.0
524,106.32383528333332,106.48008524166666,64.0,80.0
525,106.32383528333332,106.70025563749999,67.0,74.0
526,106.66474428333333,106.86076695833333,59.0,81.0
527,107.00565328333333,107.37923272916666,59.0,75.0
528,107.00565328333333,107.43463044166666,62.0,77.0
529,107.68747128333332,107.80110761666666,59.0,75.0
530,107.34656228333333,107.872130325,54.0,64.0
531,107.00565328333333,107.99997119999999,47.0,81.0
532,107.68747128333332,108.0127552875,62.0,76.0
533,107.68747128333332,108.11644844166666,66.0,80.0
534,108.02838028333333,108.16758479166666,59.0,61.0
535,108.36928928333333,108.52838014999999,57.0,75.0
536,108.36928928333333,108.88775505416666,62.0,75.0
537,108.71019828333333,108.98292548333333,57.0,69.0
538,109.05110728333332,109.25139132083333,64.0,81.0
539,108.36928928333333,109.53122079166667,50.0,71.0
540,109.39201628333333,109.80536844583332,57.0,81.0
541,109.73292528333333,110.14201608333333,62.0,76.0
542,109.73292528333333,110.14627744583333,66.0,80.0
543,110.07383428333333,110.28264104583333,57.0,74.0
544,110.41474328333332,110.5354818875,57.0,81.0
545,109.73292528333333,110.56531142499999,50.0,76.0
546,110.41474328333332,110.94741359583332,62.0,85.0
547,110.75565228333333,110.95167495833333,57.0,72.0
548,111.09656128333333,111.213038525,59.0,80.0
549,111.09656128333333,111.24854987916666,40.0,82.0
550,111.09656128333333,111.4303680125,64.0,80.0
551,111.43747028333333,111.57241342916666,59.0,75.0
552,111.77837928333332,111.89769743333333,57.0,77.0
553,111.77837928333332,112.10224283333334,61.0,74.0
554,111.77837928333332,112.33803822499999,45.0,81.0
555,111.77837928333332,112.3636064,64.0,80.0
556,112.11928828333333,112.36928821666666,57.0,81.0
557,112.46019728333333,112.59940179166666,57.0,81.0
558,112.46019728333333,112.87354944583333,62.0,80.0
559,112.80110628333333,113.00565168333333,57.0,69.0
560,113.14201528333332,113.30394705833334,62.0,82.0
561,113.14201528333332,113.428947025,66.0,84.0
562,112.46019728333333,113.63207197083332,50.0,81.0
563,113.48292428333333,113.70309467916667,57.0,81.0
564,113.82383328333333,114.06673094583333,57.0,81.0
565,113.82383328333333,114.07951503333332,62.0,82.0
566,114.16474228333333,114.264174075,64.0,85.0
567,114.50565128333334,114.67468532916666,66.0,83.0
568,114.50565128333334,114.70877622916666,57.0,81.0
569,114.84656028333333,114.90906026666666,57.0,71.0
570,114.84656028333333,114.98292388333333,69.0,85.0
571,113.82383328333333,115.02837841666665,50.0,86.0
572,115.18746928333333,115.59798053749999,66.0,81.0
573,115.18746928333333,115.6235487125,59.0,80.0
574,115.52837828333332,116.01985542499999,54.0,65.0
575,115.86928728333334,116.09940085833333,62.0,84.0
576,115.86928728333334,116.14911675416666,59.0,81.0
577,116.21019628333333,116.68746888333332,54.0,67.0
578,116.55110528333333,116.90479837083333,66.0,80.0
579,116.55110528333333,116.92184382083333,59.0,82.0
580,116.89201428333332,117.23150282916666,54.0,61.0
581,115.18746928333333,117.35934370416666,47.0,82.0
582,117.23292328333334,117.37354824583333,59.0,81.0
583,117.23292328333334,117.46303685833333,62.0,81.0
584,117.57383228333333,117.81388903749999,59.0,72.0
585,117.91474128333333,118.31957072083333,62.0,77.0
586,117.91474128333333,118.33519571666666,57.0,76.0
587,118.25565028333332,118.65053654166667,45.0,59.0
588,117.91474128333333,118.7172978875,38.0,83.0
589,118.59655928333333,118.72155925,57.0,79.0
590,118.59655928333333,118.99286599583333,62.0,80.0
591,118.93746828333333,119.07241142916666,57.0,77.0
592,118.59655928333333,119.12070687083333,66.0,79.0
593,119.27837728333333,119.616445375,62.0,66.0
594,119.27837728333333,119.66474081666667,59.0,68.0
595,119.61928628333332,119.95877482916666,54.0,65.0
596,119.27837728333333,120.06957025416666,47.0,80.0
597,119.96019528333333,120.08235434166666,59.0,80.0
598,119.96019528333333,120.16474068333333,62.0,81.0
599,119.96019528333333,120.18036567916666,66.0,80.0
600,120.64201328333333,120.92894502499999,59.0,78.0
601,120.64201328333333,121.02411545416666,67.0,78.0
602,121.32383128333333,121.43036534583332,59.0,81.0
603,121.32383128333333,121.50706987083333,64.0,83.0
604,121.66474028333333,121.86928568333333,59.0,84.0
605,120.98292228333332,122.17894469166666,47.0,64.0
606,122.00564928333333,122.21303559166667,59.0,83.0
607,122.00564928333333,122.57241049583332,67.0,78.0
608,122.34655828333332,122.79968316249999,47.0,65.0
609,122.68746728333333,122.80252407083333,59.0,85.0
610,120.64201328333333,122.83235360833334,40.0,80.0
611,122.68746728333333,123.00422856249999,64.0,91.0
612,123.02837628333333,123.12212625833332,59.0,85.0
613,123.36928528333333,123.749967,57.0,80.0
614,123.36928528333333,123.75706927083333,61.0,84.0
615,123.36928528333333,124.08093282083333,42.0,86.0
616,123.71019428333332,124.11360326666666,49.0,66.0
617,124.05110328333333,124.34513729583333,66.0,79.0
618,124.05110328333333,124.4275236375,61.0,87.0
619,124.39201228333333,124.56956905416666,57.0,81.0
620,124.73292128333333,124.96303485833333,64.0,81.0
621,124.73292128333333,124.96587576666666,61.0,75.0
622,124.73292128333333,124.99712575833333,57.0,77.0
623,125.07383028333332,125.55394379166667,52.0,80.0
624,125.41473928333333,125.55394379166667,57.0,82.0
625,124.73292128333333,125.59087559999999,45.0,81.0
626,125.41473928333333,125.667580125,61.0,87.0
627,125.41473928333333,125.76843237083332,69.0,81.0
628,125.75564828333333,125.98008004166667,57.0,89.0
629,126.09655728333333,126.25422769583332,57.0,76.0
630,126.09655728333333,126.52979580416667,62.0,80.0
631,126.43746628333332,126.6008185125,57.0,71.0
632,126.09655728333333,126.88490934583332,50.0,85.0
633,126.77837528333333,126.92752297083332,57.0,81.0
634,126.77837528333333,127.20167062499999,62.0,83.0
635,127.11928428333333,127.26132969999999,57.0,73.0
636,126.77837528333333,127.26843197083333,66.0,82.0
637,127.46019328333333,127.89485225833333,62.0,78.0
638,127.46019328333333,127.900534075,59.0,78.0
639,127.80110228333332,128.19172717916666,54.0,67.0
640,128.14201128333332,128.32098850833333,59.0,79.0
641,127.46019328333333,128.38348849166667,47.0,82.0
642,128.14201128333332,128.45735210833334,62.0,82.0
643,128.14201128333332,128.47439755833332,66.0,81.0
644,128.48292028333333,128.872124725,59.0,81.0
645,128.82382928333334,129.2002496375,67.0,78.0
646,128.82382928333334,129.22155645,64.0,82.0
647,129.16473828333332,129.3366132375,59.0,75.0
648,129.50564728333333,129.62496543333333,59.0,86.0
649,128.82382928333334,129.80252220416665,52.0,80.0
650,129.50564728333333,129.86218127916666,64.0,91.0
651,129.84655628333334,130.03405623333333,59.0,83.0
652,130.18746528333332,130.51132883333332,59.0,81.0
653,130.18746528333332,130.58519245,62.0,79.0
654,130.52837428333333,131.02979460416665,54.0,73.0
655,130.86928328333332,131.03121505833332,59.0,83.0
656,130.86928328333332,131.22155591666666,62.0,83.0
657,130.86928328333332,131.23860136666667,66.0,85.0
658,130.18746528333332,131.26416954166666,47.0,81.0
659,131.21019228333333,131.40763541249999,59.0,80.0
660,131.55110128333334,131.73433987083334,57.0,80.0
661,131.55110128333334,131.96445344583333,62.0,78.0
662,131.89201028333332,132.1064988625,57.0,76.0
663,131.55110128333334,132.272692,50.0,76.0
664,132.23291928333333,132.39911242083332,57.0,81.0
665,132.23291928333333,132.68462370833333,66.0,84.0
666,132.23291928333333,132.69314643333334,62.0,84.0
667,132.57382828333334,132.73291915,57.0,76.0
668,132.91473728333332,133.24996446666665,59.0,80.0
669,132.91473728333332,133.27837355,62.0,77.0
670,133.25564628333333,133.70166889166666,54.0,68.0
671,133.59655528333332,133.75280524166666,59.0,80.0
672,132.91473728333332,133.90763474583332,47.0,81.0
673,133.59655528333332,133.93036201249998,62.0,85.0
674,133.59655528333332,133.95308927916665,66.0,84.0
675,133.93746428333333,134.04968016249998,59.0,80.0
676,134.10791878333333,134.15621422499999,61.0,48.0
677,134.27837328333334,134.514168675,57.0,75.0
678,134.27837328333334,134.58377092916666,61.0,70.0
679,134.61928228333332,135.0553617125,49.0,67.0
680,134.96019128333333,135.11360033333332,57.0,82.0
681,134.27837328333334,135.16757759166666,42.0,86.0
682,134.96019128333333,135.35081617916666,61.0,87.0
683,134.96019128333333,135.36786162916667,66.0,82.0
684,135.30110028333334,135.4474070625,57.0,82.0
685,135.64200928333332,135.82666832499999,59.0,77.0
686,135.64200928333332,136.00848645833332,64.0,82.0
687,135.64200928333332,136.0184296375,52.0,91.0
688,135.98291828333333,136.11360006666666,59.0,83.0
689,136.32382728333332,136.58661130416667,57.0,76.0
690,136.32382728333332,136.6704181,61.0,80.0
691,136.32382728333332,136.72297490416665,45.0,80.0
692,136.66473628333333,136.76274762083332,52.0,83.0
693,137.00564528333334,137.12780434166666,38.0,82.0
694,137.00564528333334,137.27269066666665,57.0,75.0
695,137.00564528333334,137.3522361,62.0,75.0
696,138.02837228333334,138.30820175416667,62.0,86.0
697,138.36928128333332,138.74001982083334,64.0,91.0
698,138.71019028333333,138.82950843333333,62.0,76.0
699,137.68746328333333,139.14911062083334,57.0,91.0
700,139.05109928333331,139.5212696125,62.0,81.0
701,137.34655428333332,139.62638322083333,50.0,81.0
702,139.05109928333331,139.64769003333333,66.0,82.0
703,139.05109928333331,139.67751957083334,69.0,82.0
704,139.39200828333333,139.68462184166665,57.0,80.0
705,139.73291728333334,139.88490587916667,57.0,73.0
706,139.73291728333334,140.19740579583333,62.0,79.0
707,140.07382628333332,140.22581487916665,57.0,69.0
708,140.41473528333333,140.52126934583333,57.0,76.0
709,140.41473528333333,140.81814426666665,62.0,80.0
710,139.73291728333334,140.85365562083334,50.0,86.0
711,140.41473528333333,141.0468373875,66.0,80.0
712,140.75564428333334,141.16757599166667,57.0,73.0
713,141.09655328333332,141.434621375,62.0,72.0
714,141.43746228333333,141.55678043333333,57.0,62.0
715,141.7783712833333,142.0099053125,57.0,76.0
716,141.7783712833333,142.2272348,62.0,81.0
717,142.11928028333332,142.2655870625,57.0,77.0
718,141.7783712833333,142.31246205,66.0,74.0
719,142.46018928333334,142.9644505125,64.0,81.0
720,142.80109828333332,143.0411550375,59.0,74.0
721,142.46018928333334,143.343711775,52.0,83.0
722,143.14200728333333,143.53973445,67.0,76.0
723,143.14200728333333,143.58945034583334,64.0,83.0
724,143.82382528333332,143.99001842083334,59.0,74.0
725,143.82382528333332,144.29541606666666,62.0,76.0
726,144.16473428333333,144.37354104583332,59.0,75.0
727,143.82382528333332,144.68888187083334,47.0,76.0
728,144.50564328333334,144.79541593333332,62.0,80.0
729,144.50564328333334,144.83518865,66.0,80.0
730,145.18746128333333,145.33376806249998,57.0,72.0
731,145.18746128333333,145.7258134125,62.0,78.0
732,145.52837028333332,145.83092702083331,57.0,75.0
733,145.86927928333333,146.21871100833332,64.0,81.0
734,146.21018828333334,146.52410865416667,57.0,75.0
735,145.18746128333333,146.64342680416667,50.0,81.0
736,146.55109728333332,146.96871080833333,62.0,80.0
737,146.55109728333332,147.00564261666665,66.0,81.0
738,146.89200628333333,147.10081304583332,57.0,75.0
739,147.23291528333334,147.36075615833332,50.0,82.0
740,147.57382428333332,147.73717651249999,57.0,75.0
741,147.23291528333334,147.84086966666666,62.0,79.0
742,147.91473328333333,148.09655141666667,59.0,75.0
743,147.91473328333333,148.3763808875,64.0,79.0
744,148.25564228333332,148.64342627083332,59.0,73.0
745,147.91473328333333,148.764164875,40.0,81.0
746,148.59655128333333,148.95024437083333,67.0,77.0
747,148.59655128333333,148.96586936666665,64.0,80.0
748,148.93746028333334,149.0837670625,59.0,79.0
749,149.27836928333332,149.73007370833332,61.0,68.0
750,149.27836928333332,149.73433507083334,57.0,75.0
751,149.61927828333333,150.17325540833332,52.0,79.0
752,149.96018728333334,150.2428576625,61.0,83.0
753,149.27836928333332,150.3621758125,45.0,80.0
754,149.96018728333334,150.46160760416666,64.0,86.0
755,150.64200528333333,151.04257335833333,66.0,70.0
756,150.64200528333333,151.10081197916665,57.0,70.0
757,150.98291428333332,151.47865278749998,49.0,59.0
758,150.64200528333333,151.49711869166666,42.0,82.0
759,151.32382328333333,151.57524367083332,57.0,80.0
760,151.32382328333333,151.67609591666667,61.0,87.0
761,151.66473228333334,151.81672087916667,49.0,64.0
762,152.00564128333332,152.49995933333332,61.0,85.0
763,151.8351867833333,152.52978887083333,57.0,75.0
764,152.34655028333333,152.79399334583331,49.0,60.0
765,152.00564128333332,152.83518651666665,42.0,83.0
766,152.68745928333334,152.89626604583333,57.0,80.0
767,152.68745928333334,152.96018648333333,61.0,82.0
768,152.68745928333334,153.059618275,66.0,80.0
769,153.02836828333332,153.13774325416665,49.0,76.0
770,153.36927728333333,153.76274308749998,62.0,73.0
771,153.36927728333333,153.80393625833332,59.0,72.0
772,153.71018628333331,154.15762934583333,54.0,61.0
773,154.05109528333332,154.34086793333333,59.0,81.0
774,154.05109528333332,154.41189064166667,66.0,82.0
775,153.36927728333333,154.65762921249998,47.0,81.0
776,154.39200428333334,154.7258110125,54.0,61.0
777,154.56245878333334,155.07382228333333,59.0,81.0
778,154.73291328333332,155.12069727083332,62.0,81.0
779,155.07382228333333,155.52836761666666,54.0,70.0
780,154.73291328333332,155.57666305833334,47.0,80.0
781,155.41473128333334,155.61075395833333,59.0,81.0
782,155.41473128333334,155.7400152875,62.0,83.0
783,155.41473128333334,155.769844825,66.0,83.0
784,155.75564028333332,156.22439015833334,59.0,84.0
785,156.09654928333333,156.47012872916667,64.0,81.0
786,156.77836728333332,156.92751497083333,59.0,77.0
787,156.77836728333332,157.1292194625,64.0,85.0
788,156.77836728333332,157.18035581249998,67.0,80.0
789,156.4374582833333,157.3337648625,47.0,60.0
790,156.09654928333333,157.34796940416666,40.0,81.0
791,157.11927628333333,157.68177613333333,59.0,83.0
792,157.46018528333332,157.9047874375,64.0,80.0
793,158.14200328333334,158.26132143333334,59.0,77.0
794,157.80109428333333,158.26842370416665,47.0,66.0
795,157.46018528333332,158.32950323333333,40.0,81.0
796,158.14200328333334,158.4758100125,67.0,79.0
797,158.14200328333334,158.50421909583332,64.0,82.0
798,158.48291228333332,158.63916224166667,59.0,80.0
799,158.82382128333333,159.17325300833332,61.0,75.0
800,158.82382128333333,159.24853707916665,57.0,76.0
801,159.1647302833333,159.60365062083332,52.0,80.0
802,159.50563928333332,159.76558239583332,57.0,78.0
803,159.50563928333332,159.8905823625,61.0,82.0
804,158.82382128333333,159.8976846333333,45.0,80.0
805,159.50563928333332,159.98291188333332,64.0,82.0
806,159.84654828333333,160.03688914166665,52.0,81.0
807,160.01700278333334,160.320979975,57.0,83.0
808,160.69882078333333,160.8138775708333,61.0,83.0
809,160.52836628333333,160.82666165833334,57.0,80.0
810,160.35791178333332,161.04967296249998,52.0,82.0
811,160.86927528333334,161.16188884166667,57.0,74.0
812,160.86927528333334,161.42609331666665,61.0,81.0
813,160.86927528333334,161.4758092125,69.0,83.0
814,161.21018428333332,161.52978647083333,52.0,83.0
815,160.18745728333332,161.53830919583334,45.0,82.0
816,161.55109328333333,161.9616045375,66.0,81.0
817,161.55109328333333,161.98717271249998,59.0,80.0
818,161.89200228333334,162.383479425,54.0,65.0
819,162.23291128333332,162.4630248583333,62.0,84.0
820,162.23291128333332,162.51274075416666,59.0,81.0
821,162.57382028333333,163.05109288333333,54.0,67.0
822,162.91472928333332,163.26842237083332,66.0,80.0
823,162.91472928333332,163.28546782083333,59.0,82.0
824,163.25563828333333,163.59512682916667,54.0,61.0
825,161.55109328333333,163.72296770416665,47.0,82.0
826,163.59654728333334,163.73717224583334,59.0,81.0
827,163.59654728333334,163.82666085833333,62.0,81.0
828,163.93745628333332,164.1775130375,59.0,72.0
829,164.27836528333333,164.6831947208333,62.0,77.0
830,164.27836528333333,164.69881971666666,57.0,76.0
831,164.61927428333334,165.01416054166666,45.0,59.0
832,164.27836528333333,165.08092188749998,38.0,83.0
833,164.96018328333332,165.08518325,57.0,79.0
834,164.96018328333332,165.35648999583333,62.0,80.0
835,165.30109228333333,165.43603542916665,57.0,77.0
836,164.96018328333332,165.48433087083333,66.0,79.0
837,165.64200128333331,165.980069375,62.0,66.0
838,165.64200128333331,166.02836481666665,59.0,68.0
839,165.98291028333333,166.32239882916667,54.0,65.0
840,165.64200128333331,166.43319425416666,47.0,80.0
841,166.32381928333334,166.44597834166666,59.0,80.0
842,166.32381928333334,166.52836468333334,62.0,81.0
843,166.32381928333334,166.54398967916666,66.0,80.0
844,167.00563728333333,167.292569025,59.0,78.0
845,167.00563728333333,167.38773945416665,67.0,78.0
846,167.68745528333332,167.79398934583332,59.0,81.0
847,167.68745528333332,167.87069387083332,64.0,83.0
848,168.02836428333333,168.23290968333333,59.0,84.0
849,167.34654628333334,168.54256869166667,47.0,64.0
850,168.3692732833333,168.57665959166667,59.0,83.0
851,168.3692732833333,168.93603449583333,67.0,78.0
852,168.71018228333332,169.1633071625,47.0,65.0
853,169.05109128333334,169.16614807083332,59.0,85.0
854,167.00563728333333,169.19597760833332,40.0,80.0
855,169.05109128333334,169.3678525625,64.0,91.0
856,169.39200028333332,169.48575025833333,59.0,85.0
857,169.73290928333333,170.11359099999999,57.0,80.0
858,169.73290928333333,170.12069327083333,61.0,84.0
859,169.73290928333333,170.44455682083333,42.0,86.0
860,170.07381828333334,170.47722726666666,49.0,66.0
861,170.41472728333332,170.7087612958333,66.0,79.0
862,170.41472728333332,170.7911476375,61.0,87.0
863,170.75563628333333,170.93319305416665,57.0,81.0
864,171.0965452833333,171.32665885833333,64.0,81.0
865,171.0965452833333,171.32949976666666,61.0,75.0
866,171.0965452833333,171.36074975833333,57.0,77.0
867,171.43745428333332,171.91756779166667,52.0,80.0
868,171.77836328333333,171.91756779166667,57.0,82.0
869,171.0965452833333,171.9544996,45.0,81.0
870,171.77836328333333,172.031204125,61.0,87.0
871,171.77836328333333,172.13205637083334,69.0,81.0
872,172.11927228333332,172.34370404166665,57.0,89.0
873,172.46018128333333,172.61785169583334,57.0,76.0
874,172.46018128333333,172.89341980416665,62.0,80.0
875,172.80109028333334,172.9644425125,57.0,71.0
876,172.46018128333333,173.24853334583332,50.0,85.0
877,173.14199928333332,173.29114697083332,57.0,81.0
878,173.14199928333332,173.565294625,62.0,83.0
879,173.48290828333333,173.6249537,57.0,73.0
880,173.14199928333332,173.63205597083333,66.0,82.0
881,173.8238172833333,174.25847625833333,62.0,78.0
882,173.8238172833333,174.26415807499998,59.0,78.0
883,174.16472628333332,174.55535117916665,54.0,67.0
884,174.50563528333333,174.68461250833332,59.0,79.0
885,173.8238172833333,174.74711249166666,47.0,82.0
886,174.50563528333333,174.82097610833333,62.0,82.0
887,174.50563528333333,174.83802155833334,66.0,81.0
888,174.84654428333332,175.23574872499998,59.0,81.0
889,175.18745328333333,175.5638736375,67.0,78.0
890,175.18745328333333,175.58518045,64.0,82.0
891,175.52836228333334,175.7002372375,59.0,75.0
892,175.86927128333332,175.98858943333332,59.0,86.0
893,175.18745328333333,176.16614620416667,52.0,80.0
894,175.86927128333332,176.22580527916665,64.0,91.0
895,176.21018028333333,176.39768023333332,59.0,83.0
896,176.55108928333334,176.87495283333334,59.0,81.0
897,176.55108928333334,176.94881644999998,62.0,79.0
898,176.89199828333332,177.39341860416667,54.0,73.0
899,177.23290728333333,177.39483905833333,59.0,83.0
900,177.23290728333333,177.58517991666665,62.0,83.0
901,177.23290728333333,177.60222536666666,66.0,85.0
902,176.55108928333334,177.62779354166665,47.0,81.0
903,177.57381628333331,177.7712594125,59.0,80.0
904,177.91472528333333,178.09796387083333,57.0,80.0
905,177.91472528333333,178.32807744583332,62.0,78.0
906,178.25563428333334,178.4701228625,57.0,76.0
907,177.91472528333333,178.636316,50.0,76.0
908,178.59654328333332,178.76273642083333,57.0,81.0
909,178.59654328333332,179.04824770833332,66.0,84.0
910,178.59654328333332,179.05677043333333,62.0,84.0
911,178.93745228333333,179.09654315,57.0,76.0
912,179.27836128333334,179.61358846666667,59.0,80.0
913,179.27836128333334,179.64199754999999,62.0,77.0
914,179.61927028333332,180.06529289166667,54.0,68.0
915,179.96017928333333,180.11642924166665,59.0,80.0
916,179.27836128333334,180.27125874583334,47.0,81.0
917,179.96017928333333,180.2939860125,62.0,85.0
918,179.96017928333333,180.31671327916666,66.0,84.0
919,180.3010882833333,180.4133041625,59.0,80.0
920,180.47154278333332,180.519838225,61.0,48.0
921,180.64199728333332,180.877792675,57.0,75.0
922,180.64199728333332,180.94739492916665,61.0,70.0
923,180.98290628333334,181.4189857125,49.0,67.0
924,181.32381528333332,181.47722433333334,57.0,82.0
925,180.64199728333332,181.53120159166667,42.0,86.0
926,181.32381528333332,181.71444017916667,61.0,87.0
927,181.32381528333332,181.73148562916666,66.0,82.0
928,181.66472428333333,181.8110310625,57.0,82.0
929,182.00563328333334,182.190292325,59.0,77.0
930,182.00563328333334,182.37211045833334,64.0,82.0
931,182.00563328333334,182.38205363749998,52.0,91.0
932,182.34654228333332,182.47722406666665,59.0,83.0
933,182.68745128333333,182.95023530416665,57.0,76.0
934,182.68745128333333,183.0340421,61.0,80.0
935,182.68745128333333,183.08659890416666,45.0,80.0
936,183.0283602833333,183.12637162083334,52.0,83.0
937,183.36926928333332,183.49142834166665,38.0,82.0
938,183.36926928333332,183.63631466666666,57.0,75.0
939,183.36926928333332,183.7158601,62.0,75.0
940,184.39199628333333,184.67182575416666,62.0,86.0
941,184.73290528333334,185.10364382083333,64.0,91.0
942,185.07381428333332,185.19313243333332,62.0,76.0
943,184.05108728333332,185.51273462083333,57.0,91.0
944,185.41472328333333,185.88489361249998,62.0,81.0
945,183.71017828333333,185.99000722083332,50.0,81.0
946,185.41472328333333,186.01131403333332,66.0,82.0
947,185.41472328333333,186.04114357083333,69.0,82.0
948,185.7556322833333,186.04824584166667,57.0,80.0
949,186.09654128333332,186.25563215,62.0,77.0
950,186.09654128333332,186.27267759999998,59.0,74.0
951,186.09654128333332,186.27551850833333,47.0,82.0
952,186.09654128333332,186.28972305,66.0,72.0
953,186.43745028333333,186.62921159583334,62.0,76.0
954,186.43745028333333,186.63631386666665,59.0,76.0
955,186.43745028333333,186.6505184083333,47.0,83.0
956,186.43745028333333,186.6505184083333,66.0,73.0
957,187.46017728333334,188.57523380416666,47.0,81.0
958,187.46017728333334,188.5908588,59.0,74.0
959,187.46017728333334,188.60932470416665,62.0,74.0
960,187.46017728333334,188.64199514999999,66.0,72.0
961,188.82381328333332,189.22864272083334,62.0,77.0
962,188.82381328333332,189.24426771666666,57.0,76.0
963,189.16472228333333,189.55960854166665,45.0,59.0
964,188.82381328333332,189.6263698875,38.0,83.0
965,189.50563128333332,189.63063125,57.0,79.0
966,189.50563128333332,189.90193799583332,62.0,80.0
967,189.84654028333333,189.98148342916667,57.0,77.0
968,189.50563128333332,190.02977887083333,66.0,79.0
969,190.18744928333334,190.525517375,62.0,66.0
970,190.18744928333334,190.57381281666665,59.0,68.0
971,190.52835828333332,190.86784682916667,54.0,65.0
972,190.18744928333334,190.97864225416666,47.0,80.0
973,190.86926728333333,190.99142634166665,59.0,80.0
974,190.86926728333333,191.07381268333333,62.0,81.0
975,190.86926728333333,191.08943767916665,66.0,80.0
976,191.55108528333332,191.838017025,59.0,78.0
977,191.55108528333332,191.93318745416667,67.0,78.0
978,192.23290328333331,192.33943734583332,59.0,81.0
979,192.23290328333331,192.41614187083331,64.0,83.0
980,192.57381228333333,192.77835768333333,59.0,84.0
981,191.89199428333333,193.08801669166667,47.0,64.0
982,192.91472128333334,193.12210759166666,59.0,83.0
983,192.91472128333334,193.48148249583332,67.0,78.0
984,193.25563028333332,193.70875516249998,47.0,65.0
985,193.59653928333333,193.71159607083334,59.0,85.0
986,191.55108528333332,193.74142560833332,40.0,80.0
987,193.59653928333333,193.91330056249998,64.0,91.0
988,193.93744828333334,194.03119825833332,59.0,85.0
989,194.27835728333332,194.65903899999998,57.0,80.0
990,194.27835728333332,194.66614127083332,61.0,84.0
991,194.27835728333332,194.99000482083332,42.0,86.0
992,194.61926628333333,195.02267526666665,49.0,66.0
993,194.9601752833333,195.25420929583333,66.0,79.0
994,194.9601752833333,195.33659563749998,61.0,87.0
995,195.30108428333332,195.47864105416667,57.0,81.0
996,195.64199328333333,195.87210685833332,64.0,81.0
997,195.64199328333333,195.87494776666665,61.0,75.0
998,195.64199328333333,195.90619775833332,57.0,77.0
999,195.98290228333332,196.46301579166666,52.0,80.0
1000,196.32381128333333,196.46301579166666,57.0,82.0
1001,195.64199328333333,196.49994759999998,45.0,81.0
1002,196.32381128333333,196.57665212499998,61.0,87.0
1003,196.32381128333333,196.67750437083333,69.0,81.0
1004,196.66472028333334,196.88915204166665,57.0,89.0
1005,197.00562928333332,197.16329969583333,57.0,76.0
1006,197.00562928333332,197.43886780416665,62.0,80.0
1007,197.34653828333333,197.5098905125,57.0,71.0
1008,197.00562928333332,197.79398134583332,50.0,85.0
1009,197.6874472833333,197.83659497083332,57.0,81.0
1010,197.6874472833333,198.110742625,62.0,83.0
1011,198.02835628333332,198.17040169999999,57.0,73.0
1012,197.6874472833333,198.17750397083333,66.0,82.0
1013,198.36926528333333,198.80392425833332,62.0,78.0
1014,198.36926528333333,198.809606075,59.0,78.0
1015,198.71017428333332,199.10079917916667,54.0,67.0
1016,199.05108328333333,199.23006050833334,59.0,79.0
1017,198.36926528333333,199.29256049166665,47.0,82.0
1018,199.05108328333333,199.36642410833332,62.0,82.0
1019,199.05108328333333,199.38346955833333,66.0,81.0
1020,199.39199228333334,199.781196725,59.0,81.0
1021,199.73290128333332,200.1093216375,67.0,78.0
1022,199.73290128333332,200.13062845,64.0,82.0
1023,200.07381028333333,200.2456852375,59.0,75.0
1024,200.4147192833333,200.53403743333334,59.0,86.0
1025,199.73290128333332,200.71159420416666,52.0,80.0
1026,200.4147192833333,200.77125327916667,64.0,91.0
1027,200.75562828333332,200.9431282333333,59.0,83.0
1028,201.09653728333333,201.42040083333333,59.0,81.0
1029,201.09653728333333,201.49426445,62.0,79.0
1030,201.43744628333332,201.93886660416666,54.0,73.0
1031,201.77835528333333,201.94028705833333,59.0,83.0
1032,201.77835528333333,202.13062791666667,62.0,83.0
1033,201.77835528333333,202.14767336666665,66.0,85.0
1034,201.09653728333333,202.17324154166667,47.0,81.0
1035,202.11926428333334,202.3167074125,59.0,80.0
1036,202.46017328333332,202.64341187083332,57.0,80.0
1037,202.46017328333332,202.87352544583334,62.0,78.0
1038,202.80108228333333,203.0155708625,57.0,76.0
1039,202.46017328333332,203.181764,50.0,76.0
1040,203.1419912833333,203.30818442083333,57.0,81.0
1041,203.1419912833333,203.5936957083333,66.0,84.0
1042,203.1419912833333,203.60221843333332,62.0,84.0
1043,203.48290028333332,203.64199115,57.0,76.0
1044,203.82380928333333,204.15903646666666,59.0,80.0
1045,203.82380928333333,204.18744554999998,62.0,77.0
1046,204.16471828333331,204.61074089166667,54.0,68.0
1047,204.50562728333333,204.66187724166664,59.0,80.0
1048,203.82380928333333,204.81670674583333,47.0,81.0
1049,204.50562728333333,204.8394340125,62.0,85.0
1050,204.50562728333333,204.86216127916666,66.0,84.0
1051,204.84653628333334,204.9587521625,59.0,80.0
1052,205.0169907833333,205.065286225,61.0,48.0
1053,205.18744528333332,205.423240675,57.0,75.0
1054,205.18744528333332,205.49284292916667,61.0,70.0
1055,205.52835428333333,205.96443371249998,49.0,67.0
1056,205.86926328333334,206.02267233333333,57.0,82.0
1057,205.18744528333332,206.07664959166667,42.0,86.0
1058,205.86926328333334,206.25988817916667,61.0,87.0
1059,205.86926328333334,206.27693362916665,66.0,82.0
1060,206.21017228333332,206.3564790625,57.0,82.0
1061,206.55108128333333,206.735740325,59.0,77.0
1062,206.55108128333333,206.91755845833333,64.0,82.0
1063,206.55108128333333,206.9275016375,52.0,91.0
1064,206.8919902833333,207.02267206666667,59.0,83.0
1065,207.23289928333332,207.49568330416665,57.0,76.0
1066,207.23289928333332,207.5794901,61.0,80.0
1067,207.23289928333332,207.63204690416666,45.0,80.0
1068,207.57380828333334,207.67181962083333,52.0,83.0
1069,207.91471728333332,208.03687634166667,38.0,82.0
1070,207.91471728333332,208.18176266666666,57.0,75.0
1071,207.91471728333332,208.26130809999998,62.0,75.0
1072,208.93744428333332,209.21727375416665,62.0,86.0
1073,209.27835328333333,209.64909182083332,64.0,91.0
1074,209.6192622833333,209.7385804333333,62.0,76.0
1075,208.59653528333334,210.05818262083332,57.0,91.0
1076,209.96017128333332,210.4303416125,62.0,81.0
1077,208.25562628333333,210.5354552208333,50.0,81.0
1078,209.96017128333332,210.5567620333333,66.0,82.0
1079,209.96017128333332,210.58659157083332,69.0,82.0
1080,210.30108028333333,210.59369384166666,57.0,80.0
1081,210.64198928333332,210.91897784583333,62.0,80.0
1082,210.64198928333332,210.93176193333332,66.0,76.0
1083,210.64198928333332,210.95733010833334,59.0,78.0
1084,210.64198928333332,211.00562555,47.0,82.0
1085,211.32380728333334,211.474375425,57.0,75.0
1086,211.32380728333334,211.48431860416665,61.0,68.0
1087,211.32380728333334,211.51698904999998,45.0,80.0
1088,211.32380728333334,211.52693222916665,64.0,81.0
1089,211.66471628333332,212.27693202916666,47.0,83.0
1090,211.66471628333332,212.43744335,62.0,80.0
1091,211.66471628333332,212.445966075,59.0,78.0
1092,212.68744328333332,212.78829552916665,59.0,76.0
1093,212.68744328333332,212.88346595833332,62.0,76.0
1094,212.68744328333332,212.97579547916666,66.0,73.0
1095,212.85789778333333,213.00420456249998,59.0,82.0
1096,213.02835228333333,213.23005677499998,62.0,81.0
1097,213.19880678333334,213.31812493333334,59.0,80.0
1098,213.36926128333332,213.809602075,57.0,81.0
1099,213.36926128333332,213.83232934166665,62.0,78.0
1100,214.05107928333334,214.1292042625,57.0,77.0
1101,213.36926128333332,214.3337496625,38.0,84.0
1102,214.05107928333334,214.8621586125,62.0,81.0
1103,214.39198828333332,214.86499952083332,57.0,77.0
1104,214.05107928333334,214.92607905,66.0,76.0
1105,215.0738062833333,215.24426078333332,57.0,76.0
1106,214.73289728333333,215.45732890833332,38.0,75.0
1107,215.41471528333332,215.55107888333333,57.0,81.0
1108,215.41471528333332,215.6448288583333,62.0,81.0
1109,215.41471528333332,215.701647025,66.0,76.0
1110,216.09653328333332,216.40619229166666,59.0,72.0
1111,216.09653328333332,216.46301045833332,64.0,80.0
1112,216.77835128333334,216.93602169583332,59.0,80.0
1113,216.43744228333333,217.02266939999998,47.0,65.0
1114,216.77835128333334,217.03403303333332,67.0,79.0
1115,216.77835128333334,217.27124887916665,64.0,83.0
1116,216.09653328333332,217.36641930833332,40.0,82.0
1117,217.11926028333332,217.39198748333334,59.0,76.0
1118,217.46016928333333,217.96016914999998,64.0,78.0
1119,217.8010782833333,217.98147596249999,59.0,73.0
1120,218.14198728333332,218.25704407083333,59.0,85.0
1121,217.8010782833333,218.27550997499998,40.0,76.0
1122,218.14198728333332,218.44312356666666,67.0,80.0
1123,218.14198728333332,218.51272582083334,64.0,85.0
1124,218.48289628333333,218.60789624999998,59.0,77.0
1125,218.82380528333331,219.17323700833333,66.0,71.0
1126,218.82380528333331,219.27693016249998,62.0,66.0
1127,219.16471428333332,219.28971425,57.0,51.0
1128,218.82380528333331,219.69880505,50.0,80.0
1129,219.50562328333334,219.83516864999999,66.0,80.0
1130,219.50562328333334,219.88914590833332,62.0,81.0
1131,220.18744128333333,220.36499805416665,59.0,80.0
1132,220.18744128333333,220.60079344583332,64.0,82.0
1133,220.52835028333334,220.6746570625,59.0,73.0
1134,220.86925928333332,220.99141834166664,59.0,81.0
1135,220.18744128333333,221.17465692916664,40.0,83.0
1136,220.86925928333332,221.5013613875,67.0,80.0
1137,220.86925928333332,221.54539546666666,64.0,83.0
1138,221.21016828333333,221.5510772833333,59.0,76.0
1139,221.5510772833333,221.82806584583332,62.0,80.0
1140,221.5510772833333,221.84084993333332,66.0,76.0
1141,221.5510772833333,221.86641810833333,59.0,78.0
1142,221.5510772833333,221.91471355,47.0,82.0
1143,222.23289528333333,222.41045205416665,57.0,77.0
1144,222.23289528333333,222.42891795833333,61.0,79.0
1145,222.23289528333333,222.43175886666666,45.0,81.0
1146,222.23289528333333,222.44880431666667,64.0,80.0
1147,222.57380428333332,223.28687227499998,59.0,80.0
1148,222.57380428333332,223.28971318333333,62.0,80.0
1149,223.25562228333334,223.7002244375,54.0,64.0
1150,223.59653128333332,223.90192892916664,59.0,81.0
1151,223.59653128333332,223.9090312,62.0,83.0
1152,223.59653128333332,223.9544857333333,66.0,85.0
1153,222.57380428333332,224.01414480833333,47.0,86.0
1154,223.93744028333333,224.23857656666667,54.0,74.0
1155,224.2783492833333,225.35079217916666,59.0,72.0
1156,224.2783492833333,225.35931490416667,66.0,71.0
1157,224.2783492833333,225.36073535833333,62.0,76.0
1158,224.2783492833333,225.3962467125,47.0,82.0
1159,224.2783492833333,225.4203944333333,71.0,80.0
