,start,end,pitch,velocity
0,0.13,0.335,74.0,101.0
1,0.2833333333333333,0.48333333333333334,77.0,100.0
2,0.42833333333333334,0.635,79.0,98.0
3,0.5866666666666667,0.8166666666666668,84.0,90.0
4,0.7533333333333334,1.3483333333333334,79.0,89.0
5,1.1716666666666666,3.1300000000000003,77.0,90.0
6,0.24500000000000002,3.216666666666667,65.0,96.0
7,0.12000000000000001,3.226666666666667,58.0,92.0
8,0.045000000000000005,3.2533333333333334,55.0,87.0
9,4.07,4.281666666666667,74.0,97.0
10,4.181666666666667,4.376666666666667,77.0,90.0
11,4.306666666666667,4.4750000000000005,79.0,86.0
12,4.433333333333334,5.026666666666667,84.0,98.0
13,4.658333333333333,5.258333333333334,79.0,85.0
14,5.065,6.761666666666667,77.0,90.0
15,3.7383333333333337,6.890000000000001,57.0,87.0
16,3.836666666666667,6.8950000000000005,60.0,78.0
17,3.951666666666667,6.915,65.0,71.0
18,7.203333333333334,7.7,79.0,97.0
19,7.638333333333334,7.91,84.0,99.0
20,7.171666666666667,7.930000000000001,72.0,97.0
21,7.118333333333334,8.043333333333333,58.0,93.0
22,7.821666666666667,8.288333333333334,79.0,98.0
23,8.08,8.608333333333334,72.0,99.0
24,7.6416666666666675,8.666666666666668,61.0,92.0
25,8.331666666666667,8.726666666666667,79.0,97.0
26,8.285,8.955,67.0,85.0
27,8.808333333333334,9.068333333333333,79.0,95.0
28,8.613333333333333,9.115,84.0,106.0
29,9.031666666666668,9.173333333333334,72.0,99.0
30,9.121666666666668,9.55,67.0,90.0
31,9.24,9.563333333333334,79.0,104.0
32,9.241666666666667,9.593333333333334,72.0,100.0
33,8.72,9.666666666666668,70.0,98.0
34,9.46,9.873333333333335,84.0,104.0
35,9.636666666666667,9.876666666666667,79.0,98.0
36,9.498333333333333,9.885,61.0,97.0
37,9.83,9.951666666666668,72.0,99.0
38,9.996666666666668,10.186666666666667,72.0,93.0
39,9.998333333333335,10.213333333333335,79.0,101.0
40,9.875,10.383333333333335,58.0,97.0
41,10.326666666666668,10.553333333333335,79.0,103.0
42,10.17,10.57,84.0,102.0
43,10.228333333333333,10.716666666666667,53.0,87.0
44,10.511666666666667,10.925,72.0,98.0
45,10.918333333333335,11.048333333333334,65.0,83.0
46,10.97,11.08,68.0,91.0
47,11.016666666666667,11.158333333333333,72.0,94.0
48,11.068333333333333,11.426666666666668,74.0,103.0
49,11.291666666666668,11.468333333333334,72.0,101.0
50,11.491666666666667,11.668333333333335,72.0,97.0
51,11.001666666666667,11.676666666666668,41.0,101.0
52,11.668333333333335,11.845,68.0,101.0
53,11.868333333333334,12.045,68.0,97.0
54,12.045,12.221666666666668,65.0,101.0
55,11.485000000000001,12.233333333333334,48.0,97.0
56,11.950000000000001,12.355,53.0,102.0
57,12.245000000000001,12.421666666666667,65.0,97.0
58,12.41,12.586666666666668,62.0,101.0
59,12.335,12.756666666666668,56.0,102.0
60,12.610000000000001,12.786666666666667,62.0,97.0
61,12.791666666666668,12.968333333333334,56.0,101.0
62,12.991666666666667,13.168333333333335,56.0,97.0
63,12.748333333333335,13.291666666666668,48.0,99.0
64,13.146666666666668,13.341666666666667,53.0,101.0
65,13.398333333333333,13.676666666666668,53.0,97.0
66,13.648333333333333,13.948333333333334,50.0,97.0
67,13.948333333333334,14.426666666666668,50.0,97.0
68,14.241666666666667,14.998333333333335,44.0,97.0
69,14.796666666666667,15.091666666666667,50.0,96.0
70,14.870000000000001,15.263333333333334,48.0,98.0
71,16.12666666666667,16.675,60.0,94.0
72,16.658333333333335,17.023333333333333,58.0,98.0
73,16.131666666666668,17.040000000000003,55.0,92.0
74,17.116666666666667,17.34166666666667,55.0,98.0
75,17.115000000000002,17.393333333333334,62.0,98.0
76,17.361666666666668,17.653333333333336,65.0,97.0
77,17.35666666666667,17.73166666666667,60.0,98.0
78,17.363333333333333,17.736666666666668,55.0,97.0
79,17.668333333333333,18.02,70.0,93.0
80,17.671666666666667,18.035,65.0,89.0
81,17.673333333333336,18.03666666666667,67.0,98.0
82,17.668333333333333,18.096666666666668,72.0,92.0
83,18.055,18.508333333333333,70.0,92.0
84,18.066666666666666,18.513333333333335,65.0,92.0
85,18.060000000000002,18.513333333333335,67.0,93.0
86,18.505000000000003,19.03666666666667,82.0,88.0
87,18.51666666666667,19.05166666666667,77.0,85.0
88,18.52,19.05666666666667,84.0,101.0
89,18.511666666666667,19.061666666666667,79.0,87.0
90,19.17666666666667,20.811666666666667,82.0,101.0
91,19.17666666666667,20.815,79.0,99.0
92,19.18,20.826666666666668,77.0,95.0
93,14.97,21.083333333333336,36.0,102.0
94,15.001666666666667,21.208333333333336,43.0,98.0
95,21.123333333333335,24.06666666666667,36.0,97.0
96,21.10666666666667,24.07166666666667,84.0,92.0
97,21.355,24.078333333333333,96.0,86.0
98,21.165000000000003,24.093333333333334,89.0,92.0
99,21.26,24.095000000000002,91.0,90.0
100,21.195,24.138333333333335,48.0,97.0
101,24.0,25.468333333333334,74.0,88.0
102,24.07166666666667,25.486666666666668,77.0,77.0
103,25.743333333333336,27.020000000000003,79.0,85.0
104,25.695,27.035,76.0,83.0
105,27.305000000000003,28.40666666666667,72.0,72.0
106,27.345000000000002,28.413333333333334,76.0,91.0
107,28.908333333333335,30.358333333333334,74.0,93.0
108,28.94166666666667,30.363333333333337,77.0,84.0
109,31.325000000000003,32.098333333333336,81.0,91.0
110,31.718333333333334,33.32333333333334,74.0,87.0
111,32.11333333333334,33.73666666666667,79.0,90.0
112,33.623333333333335,33.77333333333333,72.0,97.0
113,33.74,34.74,79.0,98.0
114,34.906666666666666,35.28333333333334,81.0,96.0
115,35.32666666666667,36.37166666666667,84.0,103.0
116,35.69833333333334,36.72,72.0,95.0
117,36.89833333333333,38.260000000000005,65.0,89.0
118,36.67166666666667,38.275000000000006,77.0,89.0
119,36.805,38.300000000000004,70.0,87.0
120,36.735,38.31166666666667,74.0,97.0
121,46.675000000000004,46.93833333333334,69.0,93.0
122,46.875,47.07333333333334,81.0,100.0
123,47.095000000000006,47.25666666666667,67.0,94.0
124,47.263333333333335,47.44666666666667,79.0,101.0
125,47.468333333333334,47.656666666666666,65.0,98.0
126,47.65166666666667,47.81666666666667,77.0,95.0
127,48.068333333333335,48.870000000000005,76.0,98.0
128,48.900000000000006,49.32166666666667,77.0,87.0
129,48.90833333333334,49.39,74.0,96.0
130,47.83833333333334,49.54666666666667,64.0,96.0
131,49.29166666666667,49.653333333333336,76.0,86.0
132,49.733333333333334,49.92166666666667,76.0,96.0
133,49.73500000000001,49.93166666666667,79.0,98.0
134,49.94166666666667,50.05166666666667,77.0,87.0
135,50.15166666666667,50.33166666666667,79.0,97.0
136,50.330000000000005,50.445,77.0,90.0
137,50.515,50.71333333333334,79.0,91.0
138,50.690000000000005,50.83666666666667,77.0,91.0
139,50.885000000000005,51.06333333333334,79.0,97.0
140,51.053333333333335,51.18000000000001,77.0,97.0
141,51.29666666666667,52.31333333333334,77.0,93.0
142,51.285000000000004,52.58666666666667,79.0,98.0
143,52.903333333333336,53.39833333333333,79.0,95.0
144,53.54333333333334,53.76166666666667,79.0,97.0
145,53.75666666666667,54.05500000000001,77.0,91.0
146,54.11666666666667,54.32666666666667,69.0,98.0
147,54.31666666666667,54.505,77.0,97.0
148,54.50666666666667,56.02666666666667,76.0,87.0
149,59.348333333333336,60.025000000000006,79.0,97.0
150,60.11000000000001,60.6,77.0,99.0
151,60.913333333333334,61.101666666666674,79.0,102.0
152,61.09,61.28333333333334,81.0,89.0
153,61.29333333333334,61.49166666666667,77.0,101.0
154,61.476666666666674,61.64833333333334,79.0,102.0
155,61.685,61.873333333333335,74.0,106.0
156,61.87833333333334,62.040000000000006,77.0,103.0
157,62.07666666666667,62.24333333333334,72.0,99.0
158,62.26833333333334,62.495000000000005,74.0,98.0
159,62.49333333333334,63.975,69.0,84.0
160,65.75333333333334,66.13333333333334,79.0,100.0
161,66.12333333333333,66.315,69.0,96.0
162,66.31,66.56666666666668,79.0,97.0
163,66.53,66.90166666666667,77.0,102.0
164,66.9,67.09833333333334,76.0,97.0
165,67.08833333333334,67.25333333333334,77.0,92.0
166,67.29,68.0,74.0,108.0
167,71.73,71.795,67.0,82.0
168,71.76166666666667,71.84833333333334,69.0,67.0
169,71.82833333333333,71.88666666666667,71.0,86.0
170,71.87166666666667,71.93333333333334,72.0,91.0
171,71.91833333333334,71.97833333333334,74.0,98.0
172,71.96166666666667,72.03166666666667,76.0,97.0
173,72.00833333333334,72.075,77.0,92.0
174,72.05833333333334,72.12333333333333,79.0,97.0
175,72.10833333333333,72.185,81.0,95.0
176,72.89500000000001,73.105,74.0,92.0
177,72.89666666666668,73.11500000000001,69.0,86.0
178,73.29833333333333,73.575,74.0,97.0
179,73.29666666666667,73.58500000000001,69.0,86.0
180,73.68666666666667,74.63166666666667,69.0,96.0
181,73.68833333333333,74.635,74.0,101.0
182,75.30833333333334,76.42666666666668,74.0,111.0
183,76.495,76.67833333333334,72.0,99.0
184,76.67666666666668,76.85166666666667,74.0,102.0
185,76.89333333333335,77.69000000000001,72.0,111.0
186,77.705,78.06500000000001,74.0,113.0
187,78.08500000000001,78.50833333333334,72.0,99.0
188,78.51333333333334,79.71000000000001,69.0,90.0
189,79.67500000000001,80.11166666666668,67.0,93.0
190,80.08166666666668,80.86833333333334,69.0,98.0
191,84.11666666666667,84.53833333333334,74.0,108.0
192,84.52166666666668,84.75166666666667,72.0,98.0
193,84.72,84.94000000000001,74.0,103.0
194,84.92500000000001,86.45333333333333,72.0,103.0
195,86.72166666666668,86.935,74.0,104.0
196,86.91000000000001,87.08166666666668,72.0,108.0
197,87.09166666666667,87.27333333333334,69.0,102.0
198,87.28833333333334,87.47666666666667,67.0,99.0
199,87.46666666666667,87.715,69.0,98.0
200,87.69000000000001,87.875,67.0,98.0
201,87.87333333333333,88.03833333333334,65.0,91.0
202,88.08833333333334,89.62666666666668,62.0,98.0
203,90.51666666666667,91.2,79.0,95.0
204,91.31500000000001,92.12666666666668,76.0,96.0
205,92.09666666666668,92.51833333333335,74.0,98.0
206,92.50333333333334,92.95,72.0,91.0
207,92.90833333333335,94.29166666666667,74.0,98.0
208,94.51,95.80833333333334,74.0,91.0
209,94.5,95.92333333333335,79.0,93.0
210,96.13333333333334,96.375,69.0,92.0
211,96.13000000000001,96.375,72.0,93.0
212,96.51,96.95333333333333,72.0,97.0
213,96.515,96.95833333333334,69.0,94.0
214,97.08500000000001,97.56833333333334,69.0,88.0
215,97.08333333333334,97.58000000000001,72.0,91.0
216,97.715,100.11500000000001,69.0,92.0
217,97.71000000000001,100.13000000000001,74.0,97.0
218,100.92,101.03,84.0,108.0
219,101.00833333333334,102.83666666666667,86.0,98.0
220,102.90333333333334,103.23666666666668,84.0,111.0
221,103.31,103.7,86.0,108.0
222,103.71000000000001,104.025,89.0,111.0
223,104.12333333333333,105.72666666666667,81.0,108.0
224,105.71333333333334,106.14666666666668,79.0,99.0
225,106.125,106.55000000000001,77.0,97.0
226,106.51333333333334,106.72666666666667,79.0,104.0
227,106.71166666666667,106.94000000000001,77.0,98.0
228,106.90666666666668,107.11166666666668,79.0,104.0
229,107.09500000000001,107.28833333333334,77.0,98.0
230,107.31500000000001,108.96333333333334,84.0,105.0
231,108.94833333333334,109.69500000000001,82.0,99.0
232,109.71333333333334,110.57333333333334,84.0,102.0
233,110.525,112.05000000000001,86.0,111.0
234,112.12500000000001,112.40666666666668,86.0,111.0
235,112.33666666666667,112.44000000000001,84.0,99.0
236,112.435,112.66333333333334,81.0,89.0
237,112.59833333333334,112.795,79.0,98.0
238,112.77000000000001,112.94666666666667,72.0,93.0
239,112.93666666666667,113.165,77.0,99.0
240,113.14,113.37500000000001,74.0,93.0
241,113.35000000000001,113.54333333333334,77.0,102.0
242,113.55333333333334,113.77000000000001,79.0,103.0
243,113.72500000000001,113.91000000000001,72.0,101.0
244,113.88666666666667,114.86666666666667,70.0,104.0
245,114.97333333333334,115.14166666666668,67.0,98.0
246,115.15166666666667,115.30333333333334,65.0,96.0
247,115.33500000000001,115.51166666666667,67.0,97.0
248,115.51666666666668,116.85166666666667,70.0,102.0
249,116.95833333333334,117.15833333333335,70.0,113.0
250,117.13833333333334,117.33833333333334,67.0,108.0
251,117.33833333333334,117.53833333333334,65.0,113.0
252,117.53833333333334,117.73833333333334,72.0,119.0
253,117.73833333333334,117.93833333333335,70.0,109.0
254,117.93833333333335,118.13833333333334,67.0,109.0
255,118.13833333333334,118.33833333333334,74.0,109.0
256,118.33833333333334,118.53833333333334,72.0,109.0
257,118.53833333333334,118.73833333333334,74.0,109.0
258,118.73833333333334,118.93833333333335,79.0,109.0
259,118.93833333333335,119.13833333333334,77.0,109.0
260,119.13833333333334,119.33833333333334,74.0,109.0
261,119.33833333333334,119.53833333333334,77.0,109.0
262,119.53833333333334,120.13833333333334,79.0,109.0
263,120.09666666666668,120.18833333333335,82.0,99.0
264,120.20500000000001,120.30166666666668,84.0,99.0
265,120.30000000000001,120.39000000000001,82.0,101.0
266,120.39500000000001,120.47500000000001,84.0,97.0
267,120.48500000000001,120.57833333333335,82.0,101.0
268,120.57333333333334,120.65166666666667,84.0,95.0
269,120.66666666666667,120.76166666666667,82.0,102.0
270,120.77666666666667,120.86166666666668,84.0,98.0
271,120.87166666666667,120.95666666666668,82.0,106.0
272,120.95500000000001,121.04833333333335,84.0,98.0
273,121.08500000000001,121.16833333333334,82.0,102.0
274,121.16333333333334,121.24333333333334,84.0,95.0
275,121.27333333333334,121.35166666666667,82.0,101.0
276,121.34666666666668,121.43666666666667,84.0,97.0
277,121.46666666666667,121.54666666666668,82.0,103.0
278,121.53666666666668,121.635,84.0,98.0
279,121.66166666666668,121.75000000000001,82.0,104.0
280,121.73833333333334,121.83000000000001,84.0,99.0
281,121.84666666666668,121.94333333333334,86.0,99.0
282,121.94166666666668,122.03166666666668,84.0,101.0
283,122.03666666666668,122.11500000000001,86.0,97.0
284,122.12500000000001,122.22000000000001,84.0,101.0
285,122.215,122.29166666666667,86.0,95.0
286,122.30833333333334,122.40333333333334,84.0,102.0
287,122.41833333333334,122.50333333333334,86.0,98.0
288,122.495,122.57833333333335,84.0,106.0
289,122.53833333333334,122.72666666666667,86.0,98.0
290,122.73833333333334,122.92666666666668,89.0,98.0
291,122.93833333333335,123.12666666666668,86.0,98.0
292,123.13833333333334,123.355,77.0,98.0
293,123.31166666666668,123.68833333333335,79.0,108.0
294,123.71333333333334,124.13166666666667,84.0,114.0
295,124.11666666666667,124.50500000000001,86.0,104.0
296,124.53,124.83333333333334,89.0,114.0
297,124.88333333333334,125.25333333333334,91.0,103.0
298,125.30166666666668,125.62333333333333,89.0,123.0
299,125.68666666666668,126.045,91.0,108.0
300,126.10666666666667,126.405,94.0,108.0
301,126.51666666666668,129.52666666666667,96.0,102.0
302,130.13833333333335,131.33,65.0,88.0
303,130.53833333333336,131.49666666666667,74.0,98.0
304,132.93833333333333,133.59166666666667,72.0,92.0
305,133.33833333333334,134.36,67.0,85.0
306,133.73833333333334,134.41666666666669,76.0,94.0
307,135.33833333333334,136.085,77.0,97.0
308,136.13833333333335,136.66833333333335,74.0,98.0
309,136.93833333333333,137.69833333333335,82.0,89.0
310,137.33833333333334,137.78666666666666,74.0,88.0
311,138.53833333333336,139.255,79.0,90.0
312,138.13833333333335,139.30333333333334,72.0,86.0
313,139.73833333333334,140.18,72.0,84.0
314,140.13833333333335,140.88500000000002,81.0,97.0
315,140.93833333333333,141.36666666666667,79.0,90.0
316,140.53833333333336,141.47,72.0,89.0
317,141.73833333333334,142.57666666666668,72.0,91.0
318,141.33833333333334,142.60500000000002,77.0,87.0
319,143.33833333333334,144.17166666666668,82.0,81.0
320,142.93833333333333,144.27666666666667,74.0,97.0
321,146.53833333333336,147.085,72.0,92.0
322,146.13833333333335,147.32500000000002,76.0,93.0
323,146.93833333333333,147.45333333333335,81.0,92.0
324,147.73833333333334,148.86833333333334,77.0,87.0
325,148.13833333333335,148.90166666666667,74.0,93.0
326,150.13833333333335,150.54500000000002,79.0,72.0
327,149.73833333333334,150.625,74.0,99.0
328,149.33833333333334,150.645,67.0,85.0
329,150.93833333333333,151.59833333333333,72.0,87.0
330,151.73833333333334,151.89000000000001,72.0,90.0
331,151.33833333333334,152.10500000000002,69.0,85.0
332,152.13833333333335,152.54500000000002,74.0,101.0
333,152.53833333333336,152.82500000000002,81.0,104.0
334,152.93833333333333,153.12,79.0,108.0
335,153.13833333333335,153.29833333333335,77.0,101.0
336,153.33833333333334,153.46333333333334,74.0,111.0
337,153.53833333333336,153.69,72.0,97.0
338,153.73833333333334,155.155,74.0,111.0
339,155.33833333333334,155.53833333333336,79.0,89.0
340,155.53833333333336,155.69500000000002,77.0,91.0
341,155.73833333333334,155.88500000000002,79.0,98.0
342,155.93833333333333,156.05833333333334,77.0,108.0
343,156.13833333333335,156.29500000000002,79.0,98.0
344,156.33833333333334,156.485,77.0,101.0
345,156.53833333333336,156.70166666666668,79.0,102.0
346,156.73833333333334,156.85833333333335,77.0,101.0
347,156.93833333333333,158.43166666666667,79.0,106.0
348,158.53833333333336,159.00500000000002,79.0,100.0
349,159.13833333333335,159.30666666666667,79.0,99.0
350,159.33833333333334,159.68333333333334,77.0,101.0
351,159.73833333333334,159.895,79.0,103.0
352,159.93833333333333,160.1016666666667,77.0,101.0
353,160.13833333333335,161.44,76.0,104.0
354,165.33833333333334,165.93666666666667,77.0,93.0
355,165.33833333333334,165.9466666666667,81.0,99.0
356,166.13833333333335,166.395,77.0,96.0
357,166.13833333333335,166.41833333333335,81.0,99.0
358,166.53833333333336,166.83166666666668,79.0,99.0
359,166.53833333333336,166.83666666666667,76.0,101.0
360,166.93833333333333,167.12833333333333,77.0,103.0
361,167.13833333333335,167.24666666666667,79.0,101.0
362,167.33833333333334,167.71833333333333,77.0,104.0
363,167.73833333333334,168.05,76.0,99.0
364,168.13833333333335,169.22,74.0,102.0
365,171.33833333333334,171.67833333333334,79.0,103.0
366,171.73833333333334,171.935,69.0,99.0
367,171.93833333333333,172.10666666666668,79.0,98.0
368,172.13833333333335,172.49,77.0,99.0
369,172.53833333333336,172.73666666666668,69.0,101.0
370,172.73833333333334,172.97166666666666,77.0,100.0
371,172.93833333333333,173.66666666666669,76.0,99.0
372,173.73833333333334,174.4116666666667,74.0,104.0
373,177.73833333333334,177.9466666666667,74.0,98.0
374,177.73833333333334,177.95833333333334,69.0,97.0
375,178.13833333333335,178.37333333333333,69.0,93.0
376,178.13833333333335,178.37833333333336,74.0,98.0
377,178.53833333333336,178.76333333333335,69.0,92.0
378,178.53833333333336,178.77333333333334,74.0,98.0
379,178.93833333333333,179.19833333333335,69.0,95.0
380,178.93833333333333,179.21,74.0,99.0
381,179.33833333333334,180.84833333333336,69.0,97.0
382,179.33833333333334,180.85833333333335,74.0,102.0
383,180.90833333333333,182.02666666666667,74.0,111.0
384,182.095,182.27833333333334,72.0,99.0
385,182.27666666666667,182.45166666666668,74.0,102.0
386,182.49333333333334,183.29000000000002,72.0,111.0
387,183.305,183.66500000000002,74.0,113.0
388,183.685,184.10833333333335,72.0,99.0
389,184.11333333333334,185.31,69.0,90.0
390,185.275,185.71166666666667,67.0,93.0
391,185.68166666666667,186.46833333333333,69.0,98.0
392,189.71666666666667,190.13833333333335,74.0,108.0
393,190.12166666666667,190.3516666666667,72.0,98.0
394,190.32000000000002,190.54000000000002,74.0,103.0
395,190.525,192.05333333333334,72.0,103.0
396,192.3216666666667,192.53500000000003,74.0,104.0
397,192.51000000000002,192.68166666666667,72.0,108.0
398,192.6916666666667,192.87333333333333,69.0,102.0
399,192.88833333333335,193.07666666666668,67.0,99.0
400,193.0666666666667,193.31500000000003,69.0,98.0
401,193.29000000000002,193.47500000000002,67.0,98.0
402,193.47333333333336,193.63833333333335,65.0,91.0
403,193.68833333333333,195.2266666666667,62.0,98.0
404,196.11666666666667,196.8,79.0,95.0
405,196.91500000000002,197.7266666666667,76.0,96.0
406,197.6966666666667,198.11833333333334,74.0,98.0
407,198.10333333333335,198.55,72.0,91.0
408,198.50833333333335,199.89166666666668,74.0,98.0
409,200.11,201.40833333333336,74.0,91.0
410,200.10000000000002,201.52333333333334,79.0,93.0
411,201.73333333333335,201.97500000000002,69.0,92.0
412,201.73000000000002,201.97500000000002,72.0,93.0
413,202.11,202.55333333333334,72.0,97.0
414,202.115,202.55833333333334,69.0,94.0
415,202.685,203.16833333333335,69.0,88.0
416,202.68333333333334,203.18,72.0,91.0
417,203.31500000000003,205.715,69.0,92.0
418,203.31,205.73000000000002,74.0,97.0
419,217.92166666666668,218.13500000000002,74.0,104.0
420,218.11,218.2816666666667,72.0,108.0
421,218.29166666666669,218.47333333333336,69.0,102.0
422,218.48833333333334,218.67666666666668,67.0,99.0
423,218.66666666666669,218.91500000000002,69.0,98.0
424,218.89000000000001,219.07500000000002,67.0,98.0
425,219.07333333333335,219.23833333333334,65.0,91.0
426,219.28833333333336,220.82666666666668,62.0,98.0
427,221.71666666666667,222.4,79.0,95.0
428,222.51500000000001,223.32666666666668,76.0,96.0
429,223.29666666666668,223.71833333333333,74.0,98.0
430,223.70333333333335,224.15,72.0,91.0
431,224.10833333333335,225.49166666666667,74.0,98.0
432,225.71,227.00833333333335,74.0,91.0
433,225.70000000000002,227.12333333333333,79.0,93.0
434,227.33333333333334,227.57500000000002,69.0,92.0
435,227.33,227.57500000000002,72.0,93.0
436,227.71,228.15333333333334,72.0,97.0
437,227.715,228.15833333333336,69.0,94.0
438,228.28500000000003,228.76833333333335,69.0,88.0
439,228.28333333333336,228.78,72.0,91.0
440,228.91500000000002,231.31500000000003,69.0,92.0
441,228.91000000000003,231.33,74.0,97.0
