,start,end,pitch,velocity
0,24.138333333333335,25.096666666666668,74.0,85.0
1,25.338333333333335,25.66,74.0,104.0
2,25.738333333333333,26.430000000000003,72.0,102.0
3,26.538333333333334,26.865000000000002,67.0,92.0
4,26.938333333333336,27.23166666666667,65.0,98.0
5,27.338333333333335,27.983333333333334,67.0,100.0
6,28.138333333333335,28.435000000000002,72.0,97.0
7,28.538333333333334,29.51166666666667,69.0,97.0
8,29.738333333333337,30.01166666666667,67.0,98.0
9,30.138333333333335,30.366666666666667,69.0,99.0
10,30.538333333333334,31.020000000000003,72.0,100.0
11,30.938333333333336,31.410000000000004,74.0,99.0
12,31.738333333333337,32.04,69.0,97.0
13,32.138333333333335,32.766666666666666,67.0,96.0
14,32.93833333333333,33.260000000000005,72.0,86.0
15,33.33833333333334,35.278333333333336,69.0,98.0
16,36.93833333333333,37.943333333333335,74.0,99.0
17,38.138333333333335,38.443333333333335,76.0,100.0
18,38.538333333333334,39.28,72.0,98.0
19,39.33833333333334,39.63166666666667,67.0,98.0
20,39.73833333333334,39.998333333333335,65.0,94.0
21,40.138333333333335,40.64,67.0,97.0
22,40.538333333333334,41.04833333333334,72.0,97.0
23,41.33833333333334,41.718333333333334,74.0,104.0
24,41.73833333333334,42.36833333333334,69.0,97.0
25,42.538333333333334,42.82666666666667,67.0,97.0
26,42.93833333333333,43.21,69.0,98.0
27,43.33833333333334,43.875,72.0,99.0
28,43.73833333333334,44.211666666666666,69.0,98.0
29,44.538333333333334,44.86166666666667,60.0,93.0
30,44.93833333333334,45.39166666666667,67.0,97.0
31,45.73833333333334,46.138333333333335,60.0,86.0
32,46.138333333333335,46.440000000000005,64.0,97.0
33,46.538333333333334,48.48833333333334,62.0,95.0
34,48.93833333333334,49.35333333333334,62.0,98.0
35,49.33833333333334,50.193333333333335,69.0,97.0
36,50.138333333333335,51.82,67.0,97.0
37,52.138333333333335,52.53,67.0,97.0
38,52.538333333333334,52.99,65.0,97.0
39,52.93833333333334,53.595000000000006,67.0,95.0
40,53.33833333333334,53.885000000000005,72.0,98.0
41,54.138333333333335,54.56166666666667,67.0,95.0
42,54.538333333333334,55.22166666666667,69.0,97.0
43,55.33833333333334,55.608333333333334,67.0,98.0
44,55.73833333333334,56.050000000000004,69.0,98.0
45,56.138333333333335,56.538333333333334,72.0,99.0
46,56.538333333333334,57.38666666666667,69.0,99.0
47,57.73833333333334,58.24,67.0,101.0
48,58.538333333333334,58.86666666666667,72.0,102.0
49,58.93833333333334,59.25333333333334,74.0,99.0
50,59.33833333333334,59.715,72.0,99.0
51,59.73833333333334,61.43833333333334,69.0,95.0
52,61.73833333333334,62.083333333333336,74.0,101.0
53,62.138333333333335,62.495000000000005,72.0,98.0
54,62.538333333333334,63.660000000000004,74.0,103.0
55,63.73833333333334,64.12333333333333,77.0,96.0
56,64.13833333333334,65.21333333333334,79.0,98.0
57,65.73833333333334,66.485,72.0,99.0
58,66.53833333333334,66.88333333333334,69.0,98.0
59,66.93833333333333,67.36166666666666,76.0,99.0
60,67.33833333333334,68.06833333333334,74.0,103.0
61,68.13833333333334,68.41333333333334,69.0,101.0
62,68.53833333333334,68.77833333333334,72.0,98.0
63,68.93833333333333,69.405,74.0,101.0
64,69.33833333333334,69.80666666666667,81.0,97.0
65,70.13833333333334,70.49166666666667,74.0,104.0
66,70.53833333333334,71.07000000000001,72.0,99.0
67,70.93833333333333,71.73833333333334,69.0,99.0
68,71.73833333333334,72.13833333333334,72.0,102.0
69,72.13833333333334,74.185,74.0,101.0
70,74.53833333333334,74.78833333333334,69.0,98.0
71,74.93833333333333,75.18333333333334,72.0,99.0
72,75.33833333333334,75.875,74.0,100.0
73,75.73833333333334,76.23333333333333,77.0,93.0
74,76.53833333333334,76.87833333333334,74.0,98.0
75,76.93833333333333,77.50666666666667,77.0,98.0
76,77.73833333333334,78.03166666666667,74.0,98.0
77,78.13833333333334,78.34,77.0,92.0
78,78.53833333333334,79.19833333333334,79.0,97.0
79,79.33833333333334,79.65666666666667,84.0,97.0
80,79.73833333333334,79.97333333333334,72.0,96.0
81,80.13833333333334,80.80833333333334,74.0,101.0
82,80.93833333333333,81.21000000000001,69.0,93.0
83,81.33833333333334,81.55666666666667,72.0,93.0
84,81.73833333333334,82.05333333333334,74.0,98.0
85,82.13833333333334,82.38333333333334,77.0,95.0
86,82.53833333333334,82.75666666666667,77.0,97.0
87,82.93833333333333,83.18,74.0,98.0
88,83.33833333333334,83.995,72.0,100.0
89,83.73833333333334,84.08,69.0,96.0
90,84.13833333333334,84.44833333333334,67.0,97.0
91,84.53833333333334,85.185,72.0,98.0
92,85.33833333333334,86.92833333333334,69.0,98.0
93,87.33833333333334,87.655,69.0,97.0
94,87.73833333333334,88.04333333333334,72.0,98.0
95,88.13833333333334,88.79,74.0,99.0
96,88.93833333333333,89.24000000000001,77.0,92.0
97,89.33833333333334,89.61833333333334,74.0,99.0
98,89.73833333333334,90.36833333333334,77.0,92.0
99,90.53833333333334,90.81,74.0,103.0
100,90.93833333333333,91.21333333333334,77.0,99.0
101,91.33833333333334,91.96833333333333,79.0,97.0
102,92.13833333333334,92.47333333333334,84.0,98.0
103,92.53833333333334,92.81,72.0,89.0
104,92.93833333333333,93.51666666666667,74.0,100.0
105,93.73833333333334,93.995,69.0,98.0
106,94.13833333333334,94.39166666666667,72.0,98.0
107,94.53833333333334,95.52666666666667,74.0,102.0
108,95.73833333333334,96.00833333333334,81.0,97.0
109,96.13833333333334,96.39833333333334,79.0,98.0
110,96.53833333333334,96.84166666666667,77.0,98.0
111,96.93833333333333,97.22833333333334,76.0,103.0
112,97.33833333333334,97.99333333333334,77.0,96.0
113,98.13833333333334,100.0,74.0,99.0
114,129.73833333333334,130.6966666666667,74.0,85.0
115,130.93833333333333,131.26000000000002,74.0,104.0
116,131.33833333333334,132.03,72.0,102.0
117,132.13833333333335,132.465,67.0,92.0
118,132.53833333333336,132.83166666666668,65.0,98.0
119,132.93833333333333,133.58333333333334,67.0,100.0
120,133.73833333333334,134.035,72.0,97.0
121,134.13833333333335,135.11166666666668,69.0,97.0
122,135.33833333333334,135.61166666666668,67.0,98.0
123,135.73833333333334,135.96666666666667,69.0,99.0
124,136.13833333333335,136.62,72.0,100.0
125,136.53833333333336,137.01000000000002,74.0,99.0
126,137.33833333333334,137.64000000000001,69.0,97.0
127,137.73833333333334,138.36666666666667,67.0,96.0
128,138.53833333333336,138.86,72.0,86.0
129,138.93833333333333,140.87833333333333,69.0,98.0
130,142.53833333333336,143.54333333333335,74.0,99.0
131,143.73833333333334,144.04333333333335,76.0,100.0
132,144.13833333333335,144.88,72.0,98.0
133,144.93833333333333,145.23166666666668,67.0,98.0
134,145.33833333333334,145.59833333333333,65.0,94.0
135,145.73833333333334,146.24,67.0,97.0
136,146.13833333333335,146.64833333333334,72.0,97.0
137,146.93833333333333,147.31833333333336,74.0,104.0
138,147.33833333333334,147.96833333333333,69.0,97.0
139,148.13833333333335,148.42666666666668,67.0,97.0
140,148.53833333333336,148.81,69.0,98.0
141,148.93833333333333,149.47500000000002,72.0,99.0
142,149.33833333333334,149.81166666666667,69.0,98.0
143,150.13833333333335,150.46166666666667,60.0,93.0
144,150.53833333333336,150.99166666666667,67.0,97.0
145,151.33833333333334,151.73833333333334,60.0,86.0
146,151.73833333333334,152.04000000000002,64.0,97.0
147,152.13833333333335,154.08833333333334,62.0,95.0
148,154.53833333333336,154.95333333333335,62.0,98.0
149,154.93833333333333,155.79333333333335,69.0,97.0
150,155.73833333333334,157.42000000000002,67.0,97.0
151,157.73833333333334,158.13000000000002,67.0,97.0
152,158.13833333333335,158.59,65.0,97.0
153,158.53833333333336,159.19500000000002,67.0,95.0
154,158.93833333333333,159.485,72.0,98.0
155,159.73833333333334,160.1616666666667,67.0,95.0
156,160.13833333333335,160.8216666666667,69.0,97.0
157,160.93833333333333,161.20833333333334,67.0,98.0
158,161.33833333333334,161.65,69.0,98.0
159,161.73833333333334,162.13833333333335,72.0,99.0
160,162.13833333333335,162.98666666666668,69.0,99.0
161,163.33833333333334,163.84,67.0,101.0
162,164.13833333333335,164.46666666666667,72.0,102.0
163,164.53833333333336,164.85333333333335,74.0,99.0
164,164.93833333333333,165.315,72.0,99.0
165,165.33833333333334,167.03833333333336,69.0,95.0
166,167.33833333333334,167.68333333333334,74.0,101.0
167,167.73833333333334,168.095,72.0,98.0
168,168.13833333333335,169.26000000000002,74.0,103.0
169,169.33833333333334,169.72333333333336,77.0,96.0
170,169.73833333333334,170.81333333333333,79.0,98.0
171,171.33833333333334,172.085,72.0,99.0
172,172.13833333333335,172.48333333333335,69.0,98.0
173,172.53833333333336,172.96166666666667,76.0,99.0
174,172.93833333333333,173.66833333333335,74.0,103.0
175,173.73833333333334,174.01333333333335,69.0,101.0
176,174.13833333333335,174.37833333333336,72.0,98.0
177,174.53833333333336,175.00500000000002,74.0,101.0
178,174.93833333333333,175.40666666666667,81.0,97.0
179,175.73833333333334,176.09166666666667,74.0,104.0
180,176.13833333333335,176.67000000000002,72.0,99.0
181,176.53833333333336,177.33833333333334,69.0,99.0
182,177.33833333333334,177.73833333333334,72.0,102.0
183,177.73833333333334,179.78500000000003,74.0,101.0
184,180.13833333333335,180.38833333333335,69.0,98.0
185,180.53833333333336,180.78333333333333,72.0,99.0
186,180.93833333333333,181.47500000000002,74.0,100.0
187,181.33833333333334,181.83333333333334,77.0,93.0
188,182.13833333333335,182.47833333333335,74.0,98.0
189,182.53833333333336,183.10666666666668,77.0,98.0
190,183.33833333333334,183.6316666666667,74.0,98.0
191,183.73833333333334,183.94,77.0,92.0
192,184.13833333333335,184.79833333333335,79.0,97.0
193,184.93833333333333,185.2566666666667,84.0,97.0
194,185.33833333333334,185.57333333333335,72.0,96.0
195,185.73833333333334,186.40833333333333,74.0,101.0
196,186.53833333333336,186.81,69.0,93.0
197,186.93833333333333,187.15666666666667,72.0,93.0
198,187.33833333333334,187.65333333333334,74.0,98.0
199,187.73833333333334,187.98333333333335,77.0,95.0
200,188.13833333333335,188.35666666666668,77.0,97.0
201,188.53833333333336,188.78,74.0,98.0
202,188.93833333333333,189.595,72.0,100.0
203,189.33833333333334,189.68,69.0,96.0
204,189.73833333333334,190.04833333333335,67.0,97.0
205,190.13833333333335,190.78500000000003,72.0,98.0
206,190.93833333333333,192.52833333333334,69.0,98.0
207,192.93833333333333,193.25500000000002,69.0,97.0
208,193.33833333333334,193.64333333333335,72.0,98.0
209,193.73833333333334,194.39000000000001,74.0,99.0
210,194.53833333333336,194.84,77.0,92.0
211,194.93833333333333,195.21833333333333,74.0,99.0
212,195.33833333333334,195.96833333333333,77.0,92.0
213,196.13833333333335,196.41000000000003,74.0,103.0
214,196.53833333333336,196.81333333333333,77.0,99.0
215,196.93833333333333,197.56833333333336,79.0,97.0
216,197.73833333333334,198.07333333333335,84.0,98.0
217,198.13833333333335,198.41000000000003,72.0,89.0
218,198.53833333333336,199.11666666666667,74.0,100.0
219,199.33833333333334,199.595,69.0,98.0
220,199.73833333333334,199.99166666666667,72.0,98.0
221,200.13833333333335,201.1266666666667,74.0,102.0
222,201.33833333333334,201.60833333333335,81.0,97.0
223,201.73833333333334,201.99833333333333,79.0,98.0
224,202.13833333333335,202.4416666666667,77.0,98.0
225,202.53833333333336,202.82833333333335,76.0,103.0
226,202.93833333333333,203.59333333333333,77.0,96.0
227,203.73833333333334,205.60000000000002,74.0,99.0
228,205.73833333333334,205.98833333333334,69.0,98.0
229,206.13833333333335,206.38333333333335,72.0,99.0
230,206.53833333333336,207.07500000000002,74.0,100.0
231,206.93833333333333,207.43333333333334,77.0,93.0
232,207.73833333333334,208.07833333333335,74.0,98.0
233,208.13833333333335,208.70666666666668,77.0,98.0
234,208.93833333333333,209.23166666666668,74.0,98.0
235,209.33833333333334,209.54000000000002,77.0,92.0
236,209.73833333333334,210.39833333333334,79.0,97.0
237,210.53833333333336,210.85666666666668,84.0,97.0
238,210.93833333333336,211.17333333333335,72.0,96.0
239,211.33833333333334,212.00833333333335,74.0,101.0
240,212.13833333333335,212.41000000000003,69.0,93.0
241,212.53833333333336,212.7566666666667,72.0,93.0
242,212.93833333333336,213.25333333333336,74.0,98.0
243,213.33833333333334,213.58333333333334,77.0,95.0
244,213.73833333333334,213.95666666666668,77.0,97.0
245,214.13833333333335,214.38000000000002,74.0,98.0
246,214.53833333333336,215.19500000000002,72.0,100.0
247,214.93833333333336,215.28,69.0,96.0
248,215.33833333333334,215.64833333333334,67.0,97.0
249,215.73833333333334,216.38500000000002,72.0,98.0
250,216.53833333333336,218.12833333333336,69.0,98.0
251,218.53833333333336,218.85500000000002,69.0,97.0
252,218.93833333333336,219.24333333333334,72.0,98.0
253,219.33833333333334,219.99,74.0,99.0
254,220.13833333333335,220.44000000000003,77.0,92.0
255,220.53833333333336,220.81833333333336,74.0,99.0
256,220.93833333333336,221.56833333333336,77.0,92.0
257,221.73833333333334,222.01000000000002,74.0,103.0
258,222.13833333333335,222.41333333333336,77.0,99.0
259,222.53833333333336,223.16833333333335,79.0,97.0
260,223.33833333333334,223.67333333333335,84.0,98.0
261,223.73833333333334,224.01000000000002,72.0,89.0
262,224.13833333333335,224.71666666666667,74.0,100.0
263,224.93833333333336,225.19500000000002,69.0,98.0
264,225.33833333333334,225.59166666666667,72.0,98.0
265,225.73833333333334,226.7266666666667,74.0,102.0
266,226.93833333333336,227.20833333333334,81.0,97.0
267,227.33833333333334,227.59833333333336,79.0,98.0
268,227.73833333333334,228.04166666666669,77.0,98.0
269,228.13833333333335,228.42833333333334,76.0,103.0
270,228.53833333333336,229.19333333333336,77.0,96.0
271,229.33833333333334,231.20000000000002,74.0,99.0
272,231.39000000000001,231.745,69.0,101.0
273,231.78,232.17333333333335,72.0,98.0
274,232.28500000000003,233.53833333333336,74.0,101.0
275,233.57500000000002,234.11833333333334,81.0,102.0
276,234.0966666666667,234.76333333333335,79.0,103.0
277,234.73833333333334,235.24333333333334,77.0,99.0
278,235.21166666666667,235.98666666666668,79.0,98.0
279,235.935,239.7266666666667,81.0,93.0
280,241.73833333333334,242.645,72.0,100.0
281,242.80333333333334,246.47833333333335,74.0,104.0
