,start,end,pitch,velocity
0,24.05666666666667,24.936666666666667,62.0,97.0
1,23.973333333333336,24.94666666666667,58.0,70.0
2,24.14666666666667,25.01,65.0,85.0
3,24.06666666666667,25.10666666666667,46.0,83.0
4,25.76666666666667,26.87,64.0,90.0
5,25.700000000000003,26.89166666666667,60.0,89.0
6,25.638333333333335,26.933333333333334,55.0,83.0
7,25.71,26.975,48.0,97.0
8,27.343333333333334,28.400000000000002,55.0,85.0
9,27.353333333333335,28.708333333333336,60.0,90.0
10,27.363333333333337,28.735000000000003,45.0,89.0
11,28.843333333333334,29.383333333333336,57.0,77.0
12,28.928333333333335,29.818333333333335,65.0,95.0
13,29.310000000000002,30.005000000000003,53.0,72.0
14,28.935000000000002,30.038333333333334,50.0,97.0
15,29.725,30.283333333333335,64.0,98.0
16,30.48166666666667,31.12,55.0,84.0
17,30.475,31.16166666666667,62.0,80.0
18,30.89,31.740000000000002,50.0,74.0
19,30.513333333333335,31.933333333333337,43.0,89.0
20,31.91166666666667,32.335,55.0,87.0
21,31.975,32.52666666666667,60.0,83.0
22,32.050000000000004,32.905,64.0,97.0
23,32.440000000000005,32.961666666666666,52.0,78.0
24,32.04833333333333,32.97666666666667,48.0,92.0
25,32.82666666666667,33.04166666666667,55.0,93.0
26,33.708333333333336,33.76166666666667,60.0,83.0
27,33.77166666666667,34.535000000000004,64.0,97.0
28,33.638333333333335,34.545,57.0,84.0
29,34.49166666666667,34.89833333333333,60.0,97.0
30,35.32,36.13333333333333,57.0,86.0
31,35.315000000000005,36.153333333333336,53.0,83.0
32,34.11,36.211666666666666,48.0,83.0
33,33.70166666666667,36.26166666666667,41.0,93.0
34,36.93833333333333,37.63666666666667,62.0,95.0
35,36.93833333333333,37.94166666666667,58.0,90.0
36,37.73833333333334,38.27666666666667,62.0,92.0
37,37.73833333333334,38.32166666666667,65.0,96.0
38,37.33833333333334,38.74,53.0,85.0
39,39.33833333333334,39.395,58.0,81.0
40,38.93833333333333,39.66666666666667,53.0,86.0
41,36.93833333333333,39.685,46.0,102.0
42,39.33833333333334,39.765,62.0,99.0
43,39.33833333333334,39.778333333333336,65.0,97.0
44,39.73833333333334,39.88666666666667,58.0,97.0
45,40.138333333333335,40.550000000000004,55.0,97.0
46,40.138333333333335,40.66666666666667,60.0,94.0
47,40.538333333333334,41.135000000000005,52.0,89.0
48,40.93833333333333,41.17166666666667,57.0,89.0
49,40.138333333333335,41.17666666666667,45.0,97.0
50,40.93833333333333,41.178333333333335,60.0,94.0
51,40.93833333333333,41.211666666666666,64.0,98.0
52,41.73833333333334,42.14833333333333,57.0,92.0
53,41.73833333333334,42.215,65.0,97.0
54,42.138333333333335,42.675000000000004,45.0,72.0
55,41.73833333333334,42.733333333333334,38.0,100.0
56,42.538333333333334,43.013333333333335,57.0,98.0
57,42.538333333333334,43.233333333333334,62.0,102.0
58,43.33833333333334,43.86166666666667,58.0,80.0
59,43.33833333333334,43.885000000000005,62.0,93.0
60,43.33833333333334,43.89666666666667,55.0,88.0
61,44.138333333333335,44.57833333333333,58.0,88.0
62,44.538333333333334,44.71666666666667,55.0,101.0
63,43.33833333333334,44.74166666666667,43.0,98.0
64,43.73833333333334,44.755,50.0,79.0
65,44.73833333333334,45.178333333333335,55.0,97.0
66,44.93833333333334,45.56166666666667,60.0,95.0
67,45.33833333333334,45.913333333333334,52.0,89.0
68,45.73833333333334,45.95333333333333,57.0,94.0
69,45.73833333333334,46.01833333333334,60.0,96.0
70,44.93833333333334,46.04166666666667,45.0,99.0
71,45.73833333333334,46.04166666666667,64.0,99.0
72,46.538333333333334,46.656666666666666,38.0,99.0
73,46.538333333333334,46.848333333333336,57.0,91.0
74,46.538333333333334,46.91833333333334,62.0,97.0
75,47.33833333333334,47.93,65.0,97.0
76,47.33833333333334,47.94833333333334,62.0,98.0
77,47.538333333333334,48.160000000000004,57.0,82.0
78,48.138333333333335,48.61000000000001,60.0,93.0
79,48.138333333333335,48.723333333333336,65.0,95.0
80,48.538333333333334,49.068333333333335,57.0,85.0
81,48.93833333333334,49.68333333333334,62.0,98.0
82,48.93833333333334,49.690000000000005,65.0,99.0
83,49.33833333333334,49.73166666666667,57.0,85.0
84,46.93833333333334,49.74,50.0,93.0
85,49.73833333333334,49.89166666666667,58.0,90.0
86,49.73833333333334,49.93166666666667,62.0,93.0
87,50.538333333333334,50.78333333333334,62.0,97.0
88,50.538333333333334,50.958333333333336,65.0,97.0
89,51.33833333333334,51.620000000000005,62.0,97.0
90,51.33833333333334,51.653333333333336,70.0,96.0
91,51.33833333333334,51.675000000000004,65.0,97.0
92,49.73833333333334,52.21,46.0,98.0
93,50.138333333333335,52.265,53.0,80.0
94,52.138333333333335,52.30166666666667,62.0,99.0
95,52.138333333333335,52.358333333333334,65.0,100.0
96,52.93833333333334,53.163333333333334,57.0,96.0
97,52.93833333333334,53.403333333333336,62.0,99.0
98,53.33833333333334,53.63,57.0,98.0
99,53.73833333333334,53.92333333333334,57.0,101.0
100,54.138333333333335,54.47166666666667,57.0,83.0
101,53.73833333333334,54.545,65.0,97.0
102,54.538333333333334,55.0,64.0,102.0
103,54.93833333333334,55.18333333333334,57.0,92.0
104,55.33833333333334,55.568333333333335,60.0,95.0
105,52.93833333333334,55.57,50.0,98.0
106,55.33833333333334,55.593333333333334,57.0,98.0
107,56.138333333333335,56.650000000000006,58.0,86.0
108,56.138333333333335,56.655,55.0,90.0
109,56.138333333333335,56.70666666666667,62.0,95.0
110,56.538333333333334,57.565000000000005,50.0,89.0
111,57.33833333333334,57.605000000000004,55.0,97.0
112,56.138333333333335,57.61166666666667,43.0,97.0
113,57.33833333333334,57.693333333333335,62.0,95.0
114,57.73833333333334,58.26166666666667,55.0,97.0
115,57.73833333333334,58.31666666666667,60.0,93.0
116,57.73833333333334,58.671666666666674,48.0,99.0
117,58.138333333333335,58.67666666666667,52.0,90.0
118,58.538333333333334,58.71166666666667,55.0,99.0
119,58.538333333333334,58.97833333333334,60.0,100.0
120,58.538333333333334,59.06,64.0,102.0
121,59.33833333333334,59.79333333333334,57.0,91.0
122,59.33833333333334,60.21166666666667,65.0,97.0
123,60.138333333333335,60.59166666666667,57.0,97.0
124,60.538333333333334,60.845000000000006,65.0,98.0
125,60.93833333333334,61.18333333333334,57.0,98.0
126,61.33833333333334,61.455000000000005,57.0,76.0
127,60.93833333333334,61.653333333333336,64.0,100.0
128,59.33833333333334,61.85666666666667,41.0,98.0
129,59.73833333333334,61.885000000000005,48.0,90.0
130,61.73833333333334,61.97833333333334,60.0,98.0
131,61.73833333333334,61.98666666666667,57.0,98.0
132,62.538333333333334,63.226666666666674,58.0,90.0
133,62.538333333333334,63.22833333333334,62.0,94.0
134,63.33833333333334,63.43166666666667,58.0,70.0
135,63.33833333333334,63.80500000000001,65.0,96.0
136,63.33833333333334,63.858333333333334,62.0,88.0
137,63.73833333333334,63.99333333333334,58.0,84.0
138,64.13833333333334,64.84666666666666,62.0,93.0
139,64.13833333333334,64.84833333333334,58.0,89.0
140,62.93833333333334,65.065,53.0,73.0
141,64.93833333333333,65.275,58.0,98.0
142,62.538333333333334,65.36500000000001,46.0,97.0
143,64.93833333333333,65.38166666666667,62.0,98.0
144,65.33833333333334,65.57333333333334,53.0,94.0
145,65.73833333333334,66.15,55.0,97.0
146,65.73833333333334,66.31166666666667,60.0,97.0
147,66.53833333333334,66.78833333333334,57.0,89.0
148,66.53833333333334,66.86166666666666,62.0,92.0
149,66.13833333333334,67.06666666666668,52.0,93.0
150,65.73833333333334,67.15833333333333,45.0,98.0
151,66.93833333333333,67.26333333333334,60.0,92.0
152,67.33833333333334,67.74000000000001,57.0,95.0
153,67.33833333333334,67.82333333333334,62.0,97.0
154,67.33833333333334,68.215,50.0,98.0
155,67.73833333333334,68.23,53.0,80.0
156,68.13833333333334,68.42666666666668,62.0,100.0
157,68.13833333333334,68.44500000000001,57.0,97.0
158,68.13833333333334,68.56,65.0,98.0
159,68.93833333333333,69.815,55.0,93.0
160,68.93833333333333,69.85000000000001,62.0,95.0
161,69.73833333333334,70.05666666666667,58.0,104.0
162,70.13833333333334,70.46000000000001,55.0,94.0
163,69.33833333333334,70.49666666666667,50.0,84.0
164,68.93833333333333,70.575,43.0,97.0
165,71.33833333333334,71.76833333333333,55.0,102.0
166,70.93833333333333,71.83500000000001,48.0,101.0
167,71.33833333333334,71.83666666666667,60.0,100.0
168,72.13833333333334,72.34833333333334,57.0,95.0
169,72.13833333333334,72.45666666666668,62.0,97.0
170,72.53833333333334,72.71166666666667,62.0,92.0
171,72.53833333333334,72.72666666666667,57.0,86.0
172,72.13833333333334,73.04333333333334,50.0,101.0
173,72.93833333333333,73.06,62.0,93.0
174,72.93833333333333,73.08833333333334,57.0,87.0
175,72.93833333333333,73.09666666666668,65.0,93.0
176,73.33833333333334,73.46333333333334,62.0,99.0
177,73.33833333333334,73.47166666666668,50.0,100.0
178,73.33833333333334,73.48166666666667,57.0,97.0
179,73.33833333333334,73.49166666666667,65.0,97.0
180,73.73833333333334,75.14,62.0,102.0
181,73.73833333333334,75.15333333333334,57.0,98.0
182,73.73833333333334,75.19166666666668,50.0,111.0
183,73.73833333333334,75.19166666666668,65.0,99.0
184,75.33833333333334,75.76833333333335,58.0,91.0
185,75.33833333333334,75.79666666666667,62.0,101.0
186,75.73833333333334,76.02000000000001,53.0,85.0
187,75.93833333333333,76.25333333333334,58.0,92.0
188,75.93833333333333,76.30333333333334,65.0,99.0
189,75.93833333333333,76.345,62.0,102.0
190,75.33833333333334,76.38666666666667,46.0,106.0
191,76.33833333333334,76.62833333333334,53.0,94.0
192,76.53833333333334,76.80333333333334,58.0,101.0
193,76.73833333333334,76.83666666666667,62.0,99.0
194,76.93833333333333,76.99000000000001,57.0,88.0
195,76.93833333333333,77.22833333333334,55.0,91.0
196,76.93833333333333,77.375,60.0,101.0
197,77.33833333333334,77.44333333333334,55.0,99.0
198,77.53833333333334,77.85833333333333,55.0,102.0
199,77.53833333333334,77.90333333333334,64.0,101.0
200,77.93833333333333,78.04666666666667,55.0,97.0
201,77.93833333333333,78.13666666666667,60.0,97.0
202,76.93833333333333,78.25500000000001,48.0,100.0
203,78.13833333333334,78.275,55.0,96.0
204,78.53833333333334,79.00500000000001,57.0,97.0
205,78.53833333333334,79.02000000000001,60.0,99.0
206,78.93833333333333,79.38833333333334,52.0,90.0
207,79.33833333333334,79.54166666666667,64.0,108.0
208,79.33833333333334,79.55333333333334,57.0,108.0
209,79.73833333333334,79.825,57.0,92.0
210,78.53833333333334,79.855,45.0,98.0
211,79.53833333333334,79.86166666666668,52.0,99.0
212,79.73833333333334,79.90166666666667,60.0,106.0
213,79.93833333333333,80.05333333333334,57.0,98.0
214,80.13833333333334,80.35666666666667,57.0,99.0
215,80.13833333333334,80.54833333333333,65.0,100.0
216,80.53833333333334,80.64,57.0,101.0
217,80.73833333333334,81.2,57.0,113.0
218,80.73833333333334,81.27166666666668,65.0,102.0
219,80.13833333333334,81.33166666666668,50.0,99.0
220,80.33833333333334,81.34166666666667,53.0,91.0
221,81.33833333333334,81.465,64.0,103.0
222,81.33833333333334,81.58666666666667,57.0,99.0
223,81.73833333333334,81.95666666666668,62.0,99.0
224,82.13833333333334,82.24666666666667,58.0,98.0
225,82.33833333333334,82.80833333333334,58.0,93.0
226,82.33833333333334,82.855,65.0,98.0
227,82.93833333333333,83.03666666666668,58.0,93.0
228,81.73833333333334,83.19500000000001,46.0,99.0
229,82.93833333333333,83.20166666666667,62.0,97.0
230,83.13833333333334,83.23666666666668,58.0,85.0
231,81.93833333333333,83.23833333333334,53.0,86.0
232,83.33833333333334,83.61666666666667,55.0,93.0
233,83.33833333333334,83.76333333333334,60.0,95.0
234,83.73833333333334,83.86333333333334,55.0,98.0
235,83.93833333333333,84.19833333333334,55.0,99.0
236,83.93833333333333,84.26166666666667,64.0,101.0
237,84.33833333333334,84.44000000000001,55.0,104.0
238,84.33833333333334,84.54166666666667,60.0,102.0
239,83.33833333333334,84.55666666666667,48.0,101.0
240,84.53833333333334,84.65,55.0,102.0
241,84.93833333333333,85.34833333333334,53.0,97.0
242,84.93833333333333,85.355,57.0,97.0
243,85.53833333333334,85.58500000000001,53.0,86.0
244,85.53833333333334,85.76333333333334,57.0,93.0
245,85.53833333333334,85.80166666666668,60.0,101.0
246,85.93833333333333,86.15,53.0,99.0
247,85.93833333333333,86.24666666666667,65.0,99.0
248,85.93833333333333,86.325,57.0,103.0
249,85.93833333333333,86.36,60.0,102.0
250,86.33833333333334,86.43166666666667,53.0,97.0
251,86.53833333333334,86.78333333333335,53.0,89.0
252,86.53833333333334,86.98,57.0,92.0
253,86.53833333333334,87.02166666666668,64.0,104.0
254,86.93833333333333,87.06833333333334,53.0,97.0
255,85.33833333333334,87.275,48.0,88.0
256,87.13833333333334,87.57666666666667,53.0,93.0
257,87.13833333333334,87.61833333333334,57.0,96.0
258,87.13833333333334,87.68,60.0,97.0
259,87.53833333333334,88.00500000000001,48.0,99.0
260,84.93833333333333,88.01,41.0,99.0
261,87.73833333333334,88.01,53.0,100.0
262,87.93833333333333,88.08666666666667,57.0,94.0
263,88.13833333333334,88.56833333333334,58.0,91.0
264,88.13833333333334,88.59666666666668,62.0,101.0
265,88.53833333333334,88.82000000000001,53.0,85.0
266,88.73833333333334,89.05333333333334,58.0,92.0
267,88.73833333333334,89.10333333333334,65.0,99.0
268,88.73833333333334,89.14500000000001,62.0,102.0
269,88.13833333333334,89.18666666666667,46.0,106.0
270,89.13833333333334,89.42833333333334,53.0,94.0
271,89.33833333333334,89.60333333333334,58.0,101.0
272,89.53833333333334,89.63666666666667,62.0,99.0
273,89.73833333333334,89.79,57.0,88.0
274,89.73833333333334,90.02833333333334,55.0,91.0
275,89.73833333333334,90.17500000000001,60.0,101.0
276,90.13833333333334,90.24333333333334,55.0,99.0
277,90.33833333333334,90.65833333333335,55.0,102.0
278,90.33833333333334,90.70333333333333,64.0,101.0
279,90.73833333333334,90.84666666666668,55.0,97.0
280,90.73833333333334,90.93666666666667,60.0,97.0
281,89.73833333333334,91.055,48.0,100.0
282,90.93833333333333,91.075,55.0,96.0
283,91.33833333333334,91.805,57.0,97.0
284,91.33833333333334,91.82000000000001,60.0,99.0
285,91.73833333333334,92.18833333333333,52.0,90.0
286,92.13833333333334,92.34166666666667,64.0,108.0
287,92.13833333333334,92.35333333333334,57.0,108.0
288,92.53833333333334,92.625,57.0,92.0
289,91.33833333333334,92.655,45.0,98.0
290,92.33833333333334,92.66166666666668,52.0,99.0
291,92.53833333333334,92.70166666666667,60.0,106.0
292,92.73833333333334,92.85333333333334,57.0,98.0
293,92.93833333333333,93.15666666666667,57.0,99.0
294,92.93833333333333,93.34833333333334,65.0,100.0
295,93.33833333333334,93.44000000000001,57.0,101.0
296,93.53833333333334,94.0,57.0,113.0
297,93.53833333333334,94.07166666666667,65.0,102.0
298,92.93833333333333,94.13166666666667,50.0,99.0
299,93.13833333333334,94.14166666666667,53.0,91.0
300,94.13833333333334,94.265,64.0,103.0
301,94.13833333333334,94.38666666666667,57.0,99.0
302,94.53833333333334,95.01166666666667,55.0,98.0
303,94.53833333333334,95.05666666666667,58.0,99.0
304,94.53833333333334,95.075,62.0,99.0
305,94.93833333333333,95.43666666666667,50.0,92.0
306,95.33833333333334,95.66833333333334,55.0,98.0
307,95.33833333333334,95.74000000000001,67.0,98.0
308,95.33833333333334,95.75333333333334,62.0,103.0
309,95.33833333333334,95.775,58.0,98.0
310,94.53833333333334,95.78,43.0,99.0
311,95.73833333333334,95.89333333333335,50.0,98.0
312,95.93833333333333,96.02666666666667,55.0,103.0
313,96.13833333333334,96.59500000000001,55.0,103.0
314,96.13833333333334,96.59500000000001,60.0,100.0
315,96.73833333333334,97.235,60.0,102.0
316,96.73833333333334,97.24333333333334,55.0,101.0
317,96.73833333333334,97.245,64.0,101.0
318,97.33833333333334,97.52666666666667,55.0,100.0
319,97.33833333333334,97.54166666666667,60.0,102.0
320,96.73833333333334,97.545,52.0,98.0
321,97.33833333333334,97.56500000000001,64.0,104.0
322,96.13833333333334,97.59166666666667,45.0,99.0
323,97.73833333333334,98.15833333333335,62.0,99.0
324,97.73833333333334,98.18333333333334,57.0,98.0
325,98.53833333333334,98.63000000000001,62.0,99.0
326,98.53833333333334,98.63166666666667,65.0,95.0
327,98.53833333333334,98.64833333333334,57.0,93.0
328,98.93833333333335,99.03166666666667,62.0,101.0
329,98.93833333333335,99.04,65.0,98.0
330,98.93833333333335,99.05000000000001,57.0,98.0
331,97.73833333333334,99.13333333333334,50.0,108.0
332,98.13833333333334,99.15333333333334,53.0,93.0
333,99.33833333333334,99.42166666666667,62.0,101.0
334,99.33833333333334,99.435,65.0,98.0
335,99.33833333333334,99.43833333333335,57.0,98.0
336,99.33833333333334,99.44333333333334,50.0,108.0
337,99.73833333333334,99.84333333333333,62.0,97.0
338,99.73833333333334,99.85166666666667,65.0,92.0
339,99.73833333333334,99.86,57.0,97.0
340,99.73833333333334,99.885,50.0,97.0
341,100.13833333333334,100.30333333333334,57.0,98.0
342,100.13833333333334,100.59166666666667,62.0,100.0
343,100.13833333333334,100.60666666666667,65.0,98.0
344,100.73833333333334,100.83666666666667,65.0,58.0
345,100.73833333333334,100.875,62.0,79.0
346,100.53833333333334,100.89833333333334,57.0,106.0
347,100.13833333333334,100.93,50.0,113.0
348,100.93833333333335,101.37,63.0,91.0
349,100.93833333333335,101.49166666666667,70.0,93.0
350,101.93833333333335,102.17,70.0,98.0
351,101.73833333333334,102.21166666666667,67.0,85.0
352,101.53833333333334,102.39166666666668,63.0,92.0
353,102.13833333333334,102.42833333333334,75.0,99.0
354,102.33833333333334,102.59166666666667,70.0,94.0
355,102.53833333333334,102.74666666666667,67.0,91.0
356,101.33833333333334,102.84666666666668,46.0,83.0
357,102.73833333333334,102.95666666666668,63.0,104.0
358,100.93833333333335,102.965,39.0,103.0
359,103.13833333333334,103.56,63.0,100.0
360,103.33833333333334,103.58500000000001,67.0,101.0
361,102.93833333333335,103.61666666666667,46.0,102.0
362,103.73833333333334,103.82666666666667,39.0,106.0
363,103.53833333333334,103.96333333333334,70.0,104.0
364,103.93833333333335,104.2,75.0,99.0
365,104.73833333333334,104.86500000000001,65.0,88.0
366,104.53833333333334,105.03666666666668,62.0,96.0
367,104.93833333333335,105.21000000000001,74.0,104.0
368,105.13833333333334,105.385,69.0,97.0
369,105.33833333333334,105.58833333333334,65.0,99.0
370,104.33833333333334,105.63333333333334,57.0,88.0
371,104.13833333333334,105.65666666666668,50.0,102.0
372,105.53833333333334,105.87166666666667,62.0,103.0
373,106.13833333333334,106.48666666666668,62.0,104.0
374,106.33833333333334,106.53166666666668,65.0,98.0
375,106.53833333333334,106.78833333333334,74.0,114.0
376,105.93833333333335,106.82833333333333,57.0,87.0
377,105.73833333333334,106.88833333333334,50.0,98.0
378,106.73833333333334,106.99333333333334,69.0,100.0
379,106.93833333333335,107.18166666666667,65.0,102.0
380,107.13833333333334,107.45166666666667,62.0,101.0
381,107.93833333333335,108.23500000000001,64.0,99.0
382,107.73833333333334,108.25,60.0,100.0
383,108.13833333333334,108.36833333333334,72.0,101.0
384,108.33833333333334,108.59500000000001,67.0,98.0
385,108.53833333333334,108.73666666666668,64.0,104.0
386,107.53833333333334,108.81666666666668,55.0,82.0
387,107.33833333333334,108.82833333333335,48.0,104.0
388,108.73833333333334,109.15,60.0,106.0
389,109.53833333333334,109.775,64.0,101.0
390,109.33833333333334,109.79833333333335,60.0,101.0
391,109.13833333333334,110.04666666666667,55.0,89.0
392,108.93833333333335,110.06666666666668,48.0,99.0
393,109.73833333333334,110.10333333333334,67.0,100.0
394,109.93833333333335,110.16833333333334,64.0,102.0
395,110.13833333333334,110.39500000000001,72.0,101.0
396,110.33833333333334,110.495,67.0,102.0
397,110.93833333333335,111.36500000000001,58.0,99.0
398,111.13833333333334,111.59,62.0,93.0
399,110.73833333333334,111.76666666666668,53.0,97.0
400,111.53833333333334,111.82666666666667,58.0,93.0
401,111.73833333333334,111.97333333333334,62.0,97.0
402,110.53833333333334,112.04833333333335,46.0,103.0
403,111.93833333333335,112.23500000000001,58.0,98.0
404,112.53833333333334,113.03833333333334,58.0,98.0
405,112.33833333333334,113.05833333333334,53.0,101.0
406,112.73833333333334,113.06166666666667,62.0,97.0
407,112.13833333333334,113.22333333333334,46.0,101.0
408,112.93833333333335,113.33500000000001,65.0,98.0
409,113.13833333333334,113.33666666666667,53.0,99.0
410,113.33833333333334,113.57333333333334,58.0,93.0
411,113.53833333333334,113.68,62.0,93.0
412,114.13833333333334,114.40333333333334,63.0,101.0
413,113.73833333333334,114.66166666666668,51.0,114.0
414,113.93833333333335,114.67333333333335,58.0,98.0
415,114.53833333333334,114.77333333333334,63.0,104.0
416,114.53833333333334,114.79666666666668,67.0,100.0
417,114.73833333333334,114.88000000000001,58.0,89.0
418,114.53833333333334,114.915,70.0,102.0
419,114.93833333333335,115.41666666666667,63.0,111.0
420,115.13833333333334,115.56166666666667,67.0,93.0
421,115.73833333333334,115.86666666666667,63.0,111.0
422,115.53833333333334,116.03166666666668,46.0,88.0
423,115.33833333333334,116.07833333333335,39.0,113.0
424,115.93833333333335,116.20833333333334,63.0,101.0
425,115.93833333333335,116.22166666666668,67.0,102.0
426,115.93833333333335,116.22666666666667,70.0,102.0
427,116.13833333333334,116.31,46.0,106.0
428,116.33833333333334,116.495,67.0,97.0
429,116.33833333333334,116.50666666666667,63.0,104.0
430,116.33833333333334,116.53333333333335,70.0,93.0
431,116.93833333333335,117.18333333333334,62.0,97.0
432,116.93833333333335,117.21666666666667,65.0,98.0
433,116.93833333333335,117.265,69.0,98.0
434,117.33833333333334,117.56333333333335,62.0,98.0
435,117.13833333333334,117.85166666666667,57.0,89.0
436,117.73833333333334,117.96666666666667,62.0,101.0
437,117.73833333333334,117.995,65.0,104.0
438,117.73833333333334,118.02333333333334,69.0,102.0
439,118.13833333333334,118.26333333333334,62.0,99.0
440,116.93833333333335,118.35166666666667,50.0,100.0
441,117.93833333333335,118.37500000000001,57.0,90.0
442,118.33833333333334,118.69500000000001,74.0,104.0
443,118.33833333333334,118.73166666666667,62.0,97.0
444,118.33833333333334,118.75833333333334,65.0,106.0
445,118.33833333333334,118.76,69.0,104.0
446,118.93833333333335,119.03666666666668,62.0,102.0
447,118.73833333333334,119.25500000000001,57.0,97.0
448,119.13833333333334,119.37166666666667,69.0,101.0
449,119.13833333333334,119.37500000000001,65.0,106.0
450,119.13833333333334,119.385,62.0,104.0
451,118.53833333333334,119.47166666666668,50.0,102.0
452,119.33833333333334,119.50000000000001,57.0,98.0
453,119.53833333333334,119.665,69.0,100.0
454,119.53833333333334,119.66833333333334,65.0,99.0
455,119.53833333333334,119.685,62.0,99.0
456,120.13833333333334,120.39166666666668,61.0,91.0
457,120.13833333333334,120.43166666666667,68.0,93.0
458,120.53833333333334,120.67333333333335,61.0,99.0
459,120.33833333333334,120.95666666666668,44.0,92.0
460,120.93833333333335,120.95666666666668,44.0,78.0
461,120.73833333333334,120.95833333333334,65.0,102.0
462,120.73833333333334,120.98166666666667,61.0,97.0
463,120.73833333333334,120.98333333333333,68.0,101.0
464,121.13833333333334,121.26666666666668,65.0,98.0
465,121.13833333333334,121.27000000000001,68.0,93.0
466,121.13833333333334,121.34,61.0,103.0
467,121.13833333333334,121.37666666666668,73.0,92.0
468,120.13833333333334,121.61000000000001,37.0,104.0
469,121.53833333333334,121.665,61.0,106.0
470,121.73833333333334,121.96333333333334,61.0,102.0
471,121.73833333333334,121.99833333333333,65.0,100.0
472,121.73833333333334,122.00666666666667,68.0,99.0
473,122.13833333333334,122.23500000000001,61.0,98.0
474,121.93833333333335,122.43,44.0,97.0
475,122.33833333333334,122.56833333333334,68.0,98.0
476,122.33833333333334,122.59666666666668,65.0,103.0
477,122.33833333333334,122.61166666666668,61.0,103.0
478,122.33833333333334,122.62333333333333,73.0,98.0
479,121.73833333333334,122.79166666666667,37.0,104.0
480,122.53833333333334,122.84666666666668,44.0,101.0
481,122.73833333333334,122.855,65.0,100.0
482,122.73833333333334,122.85666666666667,68.0,100.0
483,122.73833333333334,122.88000000000001,61.0,104.0
484,122.73833333333334,122.88666666666667,73.0,95.0
485,123.33833333333334,123.46833333333335,60.0,98.0
486,123.33833333333334,123.49333333333334,64.0,101.0
487,123.33833333333334,123.51166666666667,67.0,98.0
488,123.33833333333334,123.62666666666668,36.0,97.0
489,123.73833333333334,123.82333333333334,64.0,101.0
490,123.73833333333334,123.82666666666667,67.0,97.0
491,123.73833333333334,123.83166666666668,60.0,99.0
492,123.73833333333334,123.84,36.0,93.0
493,124.13833333333334,124.35666666666667,64.0,103.0
494,124.13833333333334,124.35666666666667,67.0,99.0
495,124.13833333333334,124.36666666666667,60.0,99.0
496,124.13833333333334,124.37166666666667,36.0,99.0
497,124.53833333333334,124.64833333333334,64.0,103.0
498,124.53833333333334,124.66666666666667,67.0,102.0
499,124.53833333333334,124.67500000000001,72.0,97.0
500,124.53833333333334,124.67666666666668,60.0,99.0
501,124.53833333333334,124.70666666666668,36.0,97.0
502,124.93833333333335,125.18333333333334,72.0,98.0
503,124.93833333333335,125.19166666666668,64.0,106.0
504,124.93833333333335,125.19333333333334,36.0,98.0
505,124.93833333333335,125.19333333333334,67.0,100.0
506,124.93833333333335,125.19666666666667,60.0,99.0
507,125.33833333333334,125.54166666666667,72.0,100.0
508,125.33833333333334,125.54833333333335,64.0,102.0
509,125.33833333333334,125.54833333333335,67.0,99.0
510,125.33833333333334,125.55666666666667,60.0,98.0
511,125.33833333333334,125.575,36.0,98.0
512,125.73833333333334,125.98333333333335,72.0,99.0
513,125.73833333333334,125.98500000000001,67.0,102.0
514,125.73833333333334,125.98833333333334,64.0,104.0
515,125.73833333333334,125.99333333333334,36.0,98.0
516,125.73833333333334,125.99833333333333,60.0,102.0
517,126.13833333333334,126.33166666666668,72.0,98.0
518,126.13833333333334,126.33833333333334,64.0,101.0
519,126.13833333333334,126.34333333333335,67.0,99.0
520,126.13833333333334,126.35166666666667,60.0,98.0
521,126.13833333333334,126.35666666666667,36.0,98.0
522,126.53833333333334,128.48833333333334,36.0,98.0
523,126.53833333333334,129.00166666666667,64.0,108.0
524,126.53833333333334,129.00333333333333,67.0,102.0
525,126.53833333333334,129.0066666666667,60.0,100.0
526,126.53833333333334,129.0066666666667,72.0,101.0
527,129.73833333333334,130.43666666666667,62.0,95.0
528,129.73833333333334,130.74166666666667,58.0,90.0
529,130.53833333333336,131.07666666666668,62.0,92.0
530,130.53833333333336,131.12166666666667,65.0,96.0
531,130.13833333333335,131.54000000000002,53.0,85.0
532,132.13833333333335,132.19500000000002,58.0,81.0
533,131.73833333333334,132.46666666666667,53.0,86.0
534,129.73833333333334,132.485,46.0,102.0
535,132.13833333333335,132.565,62.0,99.0
536,132.13833333333335,132.57833333333335,65.0,97.0
537,132.53833333333336,132.68666666666667,58.0,97.0
538,132.93833333333333,133.35000000000002,55.0,97.0
539,132.93833333333333,133.46666666666667,60.0,94.0
540,133.33833333333334,133.935,52.0,89.0
541,133.73833333333334,133.97166666666666,57.0,89.0
542,132.93833333333333,133.9766666666667,45.0,97.0
543,133.73833333333334,133.97833333333335,60.0,94.0
544,133.73833333333334,134.01166666666668,64.0,98.0
545,134.53833333333336,134.94833333333335,57.0,92.0
546,134.53833333333336,135.01500000000001,65.0,97.0
547,134.93833333333333,135.47500000000002,45.0,72.0
548,134.53833333333336,135.53333333333333,38.0,100.0
549,135.33833333333334,135.81333333333333,57.0,98.0
550,135.33833333333334,136.03333333333333,62.0,102.0
551,136.13833333333335,136.82000000000002,58.0,72.0
552,136.13833333333335,136.985,62.0,97.0
553,137.33833333333334,137.68833333333333,58.0,104.0
554,136.93833333333333,137.71,55.0,101.0
555,136.53833333333336,137.8216666666667,50.0,76.0
556,138.13833333333335,138.81166666666667,48.0,91.0
557,138.53833333333336,138.92833333333334,60.0,99.0
558,138.53833333333336,138.95666666666668,55.0,98.0
559,136.13833333333335,139.04333333333335,43.0,97.0
560,138.53833333333336,139.27,64.0,101.0
561,139.33833333333334,139.96666666666667,57.0,86.0
562,139.33833333333334,140.20833333333334,53.0,88.0
563,139.73833333333334,140.4766666666667,48.0,79.0
564,140.13833333333335,140.94,60.0,98.0
565,140.53833333333336,141.09333333333333,48.0,97.0
566,140.93833333333333,141.16166666666666,64.0,102.0
567,141.33833333333334,141.56666666666666,65.0,85.0
568,141.53833333333336,141.65666666666667,64.0,97.0
569,141.73833333333334,141.935,60.0,102.0
570,139.33833333333334,142.3,41.0,98.0
571,142.13833333333335,142.38333333333335,48.0,91.0
572,142.53833333333336,143.23666666666668,62.0,95.0
573,142.53833333333336,143.54166666666669,58.0,90.0
574,143.33833333333334,143.87666666666667,62.0,92.0
575,143.33833333333334,143.92166666666668,65.0,96.0
576,142.93833333333333,144.34,53.0,85.0
577,144.93833333333333,144.995,58.0,81.0
578,144.53833333333336,145.26666666666668,53.0,86.0
579,142.53833333333336,145.285,46.0,102.0
580,144.93833333333333,145.365,62.0,99.0
581,144.93833333333333,145.37833333333333,65.0,97.0
582,145.33833333333334,145.48666666666668,58.0,97.0
583,145.73833333333334,146.15,55.0,97.0
584,145.73833333333334,146.26666666666668,60.0,94.0
585,146.13833333333335,146.735,52.0,89.0
586,146.53833333333336,146.77166666666668,57.0,89.0
587,145.73833333333334,146.77666666666667,45.0,97.0
588,146.53833333333336,146.77833333333334,60.0,94.0
589,146.53833333333336,146.81166666666667,64.0,98.0
590,147.33833333333334,147.74833333333333,57.0,92.0
591,147.33833333333334,147.815,65.0,97.0
592,147.73833333333334,148.275,45.0,72.0
593,147.33833333333334,148.33333333333334,38.0,100.0
594,148.13833333333335,148.61333333333334,57.0,98.0
595,148.13833333333335,148.83333333333334,62.0,102.0
596,148.93833333333333,149.46166666666667,58.0,80.0
597,148.93833333333333,149.485,62.0,93.0
598,148.93833333333333,149.49666666666667,55.0,88.0
599,149.73833333333334,150.17833333333334,58.0,88.0
600,150.13833333333335,150.31666666666666,55.0,101.0
601,148.93833333333333,150.34166666666667,43.0,98.0
602,149.33833333333334,150.35500000000002,50.0,79.0
603,150.33833333333334,150.77833333333334,55.0,97.0
604,150.53833333333336,151.1616666666667,60.0,95.0
605,150.93833333333333,151.51333333333335,52.0,89.0
606,151.33833333333334,151.55333333333334,57.0,94.0
607,151.33833333333334,151.61833333333334,60.0,96.0
608,150.53833333333336,151.64166666666668,45.0,99.0
609,151.33833333333334,151.64166666666668,64.0,99.0
610,152.13833333333335,152.2566666666667,38.0,99.0
611,152.13833333333335,152.44833333333335,57.0,91.0
612,152.13833333333335,152.51833333333335,62.0,97.0
613,152.93833333333333,153.53,65.0,97.0
614,152.93833333333333,153.54833333333335,62.0,98.0
615,153.13833333333335,153.76000000000002,57.0,82.0
616,153.73833333333334,154.21,60.0,93.0
617,153.73833333333334,154.32333333333335,65.0,95.0
618,154.13833333333335,154.66833333333335,57.0,85.0
619,154.53833333333336,155.28333333333333,62.0,98.0
620,154.53833333333336,155.29000000000002,65.0,99.0
621,154.93833333333333,155.33166666666668,57.0,85.0
622,152.53833333333336,155.34,50.0,93.0
623,155.33833333333334,155.49166666666667,58.0,90.0
624,155.33833333333334,155.53166666666667,62.0,93.0
625,156.13833333333335,156.38333333333335,62.0,97.0
626,156.13833333333335,156.55833333333334,65.0,97.0
627,156.93833333333333,157.22,62.0,97.0
628,156.93833333333333,157.25333333333333,70.0,96.0
629,156.93833333333333,157.275,65.0,97.0
630,155.33833333333334,157.81,46.0,98.0
631,155.73833333333334,157.865,53.0,80.0
632,157.73833333333334,157.90166666666667,62.0,99.0
633,157.73833333333334,157.95833333333334,65.0,100.0
634,158.53833333333336,158.76333333333335,57.0,96.0
635,158.53833333333336,159.00333333333333,62.0,99.0
636,158.93833333333333,159.23000000000002,57.0,98.0
637,159.33833333333334,159.52333333333334,57.0,101.0
638,159.73833333333334,160.0716666666667,57.0,83.0
639,159.33833333333334,160.145,65.0,97.0
640,160.13833333333335,160.60000000000002,64.0,102.0
641,160.53833333333336,160.78333333333333,57.0,92.0
642,160.93833333333333,161.16833333333335,60.0,95.0
643,158.53833333333336,161.17000000000002,50.0,98.0
644,160.93833333333333,161.19333333333336,57.0,98.0
645,161.73833333333334,162.25,58.0,86.0
646,161.73833333333334,162.25500000000002,55.0,90.0
647,161.73833333333334,162.30666666666667,62.0,95.0
648,162.13833333333335,163.16500000000002,50.0,89.0
649,162.93833333333333,163.205,55.0,97.0
650,161.73833333333334,163.21166666666667,43.0,97.0
651,162.93833333333333,163.29333333333335,62.0,95.0
652,163.33833333333334,163.86166666666668,55.0,97.0
653,163.33833333333334,163.91666666666669,60.0,93.0
654,163.33833333333334,164.27166666666668,48.0,99.0
655,163.73833333333334,164.27666666666667,52.0,90.0
656,164.13833333333335,164.31166666666667,55.0,99.0
657,164.13833333333335,164.57833333333335,60.0,100.0
658,164.13833333333335,164.66,64.0,102.0
659,164.93833333333333,165.39333333333335,57.0,91.0
660,164.93833333333333,165.81166666666667,65.0,97.0
661,165.73833333333334,166.1916666666667,57.0,97.0
662,166.13833333333335,166.44500000000002,65.0,98.0
663,166.53833333333336,166.78333333333333,57.0,98.0
664,166.93833333333333,167.055,57.0,76.0
665,166.53833333333336,167.25333333333333,64.0,100.0
666,164.93833333333333,167.45666666666668,41.0,98.0
667,165.33833333333334,167.485,48.0,90.0
668,167.33833333333334,167.57833333333335,60.0,98.0
669,167.33833333333334,167.58666666666667,57.0,98.0
670,168.13833333333335,168.82666666666668,58.0,90.0
671,168.13833333333335,168.82833333333335,62.0,94.0
672,168.93833333333333,169.03166666666667,58.0,70.0
673,168.93833333333333,169.405,65.0,96.0
674,168.93833333333333,169.45833333333334,62.0,88.0
675,169.33833333333334,169.59333333333333,58.0,84.0
676,169.73833333333334,170.4466666666667,62.0,93.0
677,169.73833333333334,170.44833333333335,58.0,89.0
678,168.53833333333336,170.66500000000002,53.0,73.0
679,170.53833333333336,170.875,58.0,98.0
680,168.13833333333335,170.965,46.0,97.0
681,170.53833333333336,170.98166666666668,62.0,98.0
682,170.93833333333333,171.17333333333335,53.0,94.0
683,171.33833333333334,171.75,55.0,97.0
684,171.33833333333334,171.9116666666667,60.0,97.0
685,172.13833333333335,172.38833333333335,57.0,89.0
686,172.13833333333335,172.46166666666667,62.0,92.0
687,171.73833333333334,172.66666666666669,52.0,93.0
688,171.33833333333334,172.75833333333335,45.0,98.0
689,172.53833333333336,172.86333333333334,60.0,92.0
690,172.93833333333333,173.34,57.0,95.0
691,172.93833333333333,173.42333333333335,62.0,97.0
692,172.93833333333333,173.815,50.0,98.0
693,173.33833333333334,173.83,53.0,80.0
694,173.73833333333334,174.02666666666667,62.0,100.0
695,173.73833333333334,174.04500000000002,57.0,97.0
696,173.73833333333334,174.16000000000003,65.0,98.0
697,174.53833333333336,175.41500000000002,55.0,93.0
698,174.53833333333336,175.45000000000002,62.0,95.0
699,175.33833333333334,175.65666666666667,58.0,104.0
700,175.73833333333334,176.06,55.0,94.0
701,174.93833333333333,176.09666666666666,50.0,84.0
702,174.53833333333336,176.175,43.0,97.0
703,176.93833333333333,177.36833333333334,55.0,102.0
704,176.53833333333336,177.435,48.0,101.0
705,176.93833333333333,177.43666666666667,60.0,100.0
706,177.73833333333334,177.94833333333335,57.0,95.0
707,177.73833333333334,178.05666666666667,62.0,97.0
708,178.13833333333335,178.31166666666667,62.0,92.0
709,178.13833333333335,178.32666666666668,57.0,86.0
710,177.73833333333334,178.64333333333335,50.0,101.0
711,178.53833333333336,178.66000000000003,62.0,93.0
712,178.53833333333336,178.68833333333333,57.0,87.0
713,178.53833333333336,178.6966666666667,65.0,93.0
714,178.93833333333333,179.06333333333333,62.0,99.0
715,178.93833333333333,179.0716666666667,50.0,100.0
716,178.93833333333333,179.08166666666668,57.0,97.0
717,178.93833333333333,179.09166666666667,65.0,97.0
718,179.33833333333334,180.74,62.0,102.0
719,179.33833333333334,180.75333333333336,57.0,98.0
720,179.33833333333334,180.79166666666669,50.0,111.0
721,179.33833333333334,180.79166666666669,65.0,99.0
722,180.93833333333333,181.36833333333334,58.0,91.0
723,180.93833333333333,181.39666666666668,62.0,101.0
724,181.33833333333334,181.62,53.0,85.0
725,181.53833333333336,181.85333333333335,58.0,92.0
726,181.53833333333336,181.90333333333334,65.0,99.0
727,181.53833333333336,181.94500000000002,62.0,102.0
728,180.93833333333333,181.98666666666668,46.0,106.0
729,181.93833333333333,182.22833333333335,53.0,94.0
730,182.13833333333335,182.40333333333334,58.0,101.0
731,182.33833333333334,182.43666666666667,62.0,99.0
732,182.53833333333336,182.59,57.0,88.0
733,182.53833333333336,182.82833333333335,55.0,91.0
734,182.53833333333336,182.97500000000002,60.0,101.0
735,182.93833333333333,183.04333333333335,55.0,99.0
736,183.13833333333335,183.45833333333334,55.0,102.0
737,183.13833333333335,183.50333333333336,64.0,101.0
738,183.53833333333336,183.64666666666668,55.0,97.0
739,183.53833333333336,183.73666666666668,60.0,97.0
740,182.53833333333336,183.85500000000002,48.0,100.0
741,183.73833333333334,183.875,55.0,96.0
742,184.13833333333335,184.60500000000002,57.0,97.0
743,184.13833333333335,184.62,60.0,99.0
744,184.53833333333336,184.98833333333334,52.0,90.0
745,184.93833333333333,185.14166666666668,64.0,108.0
746,184.93833333333333,185.15333333333334,57.0,108.0
747,185.33833333333334,185.425,57.0,92.0
748,184.13833333333335,185.455,45.0,98.0
749,185.13833333333335,185.46166666666667,52.0,99.0
750,185.33833333333334,185.50166666666667,60.0,106.0
751,185.53833333333336,185.65333333333334,57.0,98.0
752,185.73833333333334,185.95666666666668,57.0,99.0
753,185.73833333333334,186.14833333333334,65.0,100.0
754,186.13833333333335,186.24,57.0,101.0
755,186.33833333333334,186.8,57.0,113.0
756,186.33833333333334,186.87166666666667,65.0,102.0
757,185.73833333333334,186.93166666666667,50.0,99.0
758,185.93833333333333,186.9416666666667,53.0,91.0
759,186.93833333333333,187.06500000000003,64.0,103.0
760,186.93833333333333,187.18666666666667,57.0,99.0
761,187.33833333333334,187.55666666666667,62.0,99.0
762,187.73833333333334,187.8466666666667,58.0,98.0
763,187.93833333333333,188.40833333333333,58.0,93.0
764,187.93833333333333,188.455,65.0,98.0
765,188.53833333333336,188.63666666666668,58.0,93.0
766,187.33833333333334,188.79500000000002,46.0,99.0
767,188.53833333333336,188.80166666666668,62.0,97.0
768,188.73833333333334,188.83666666666667,58.0,85.0
769,187.53833333333336,188.83833333333334,53.0,86.0
770,188.93833333333333,189.21666666666667,55.0,93.0
771,188.93833333333333,189.36333333333334,60.0,95.0
772,189.33833333333334,189.46333333333334,55.0,98.0
773,189.53833333333336,189.79833333333335,55.0,99.0
774,189.53833333333336,189.86166666666668,64.0,101.0
775,189.93833333333333,190.04000000000002,55.0,104.0
776,189.93833333333333,190.14166666666668,60.0,102.0
777,188.93833333333333,190.15666666666667,48.0,101.0
778,190.13833333333335,190.25,55.0,102.0
779,190.53833333333336,190.94833333333335,53.0,97.0
780,190.53833333333336,190.955,57.0,97.0
781,191.13833333333335,191.185,53.0,86.0
782,191.13833333333335,191.36333333333334,57.0,93.0
783,191.13833333333335,191.40166666666667,60.0,101.0
784,191.53833333333336,191.75,53.0,99.0
785,191.53833333333336,191.8466666666667,65.0,99.0
786,191.53833333333336,191.925,57.0,103.0
787,191.53833333333336,191.96,60.0,102.0
788,191.93833333333333,192.03166666666667,53.0,97.0
789,192.13833333333335,192.38333333333335,53.0,89.0
790,192.13833333333335,192.58,57.0,92.0
791,192.13833333333335,192.62166666666667,64.0,104.0
792,192.53833333333336,192.66833333333335,53.0,97.0
793,190.93833333333333,192.875,48.0,88.0
794,192.73833333333334,193.17666666666668,53.0,93.0
795,192.73833333333334,193.21833333333333,57.0,96.0
796,192.73833333333334,193.28,60.0,97.0
797,193.13833333333335,193.60500000000002,48.0,99.0
798,190.53833333333336,193.61,41.0,99.0
799,193.33833333333334,193.61,53.0,100.0
800,193.53833333333336,193.68666666666667,57.0,94.0
801,193.73833333333334,194.16833333333335,58.0,91.0
802,193.73833333333334,194.1966666666667,62.0,101.0
803,194.13833333333335,194.42000000000002,53.0,85.0
804,194.33833333333334,194.65333333333334,58.0,92.0
805,194.33833333333334,194.70333333333335,65.0,99.0
806,194.33833333333334,194.745,62.0,102.0
807,193.73833333333334,194.7866666666667,46.0,106.0
808,194.73833333333334,195.02833333333334,53.0,94.0
809,194.93833333333333,195.20333333333335,58.0,101.0
810,195.13833333333335,195.23666666666668,62.0,99.0
811,195.33833333333334,195.39000000000001,57.0,88.0
812,195.33833333333334,195.62833333333336,55.0,91.0
813,195.33833333333334,195.775,60.0,101.0
814,195.73833333333334,195.84333333333333,55.0,99.0
815,195.93833333333333,196.25833333333335,55.0,102.0
816,195.93833333333333,196.30333333333334,64.0,101.0
817,196.33833333333334,196.4466666666667,55.0,97.0
818,196.33833333333334,196.5366666666667,60.0,97.0
819,195.33833333333334,196.655,48.0,100.0
820,196.53833333333336,196.675,55.0,96.0
821,196.93833333333333,197.405,57.0,97.0
822,196.93833333333333,197.42000000000002,60.0,99.0
823,197.33833333333334,197.78833333333336,52.0,90.0
824,197.73833333333334,197.9416666666667,64.0,108.0
825,197.73833333333334,197.95333333333335,57.0,108.0
826,198.13833333333335,198.22500000000002,57.0,92.0
827,196.93833333333333,198.25500000000002,45.0,98.0
828,197.93833333333333,198.26166666666668,52.0,99.0
829,198.13833333333335,198.30166666666668,60.0,106.0
830,198.33833333333334,198.45333333333335,57.0,98.0
831,198.53833333333336,198.7566666666667,57.0,99.0
832,198.53833333333336,198.94833333333335,65.0,100.0
833,198.93833333333333,199.04000000000002,57.0,101.0
834,199.13833333333335,199.60000000000002,57.0,113.0
835,199.13833333333335,199.67166666666668,65.0,102.0
836,198.53833333333336,199.73166666666668,50.0,99.0
837,198.73833333333334,199.74166666666667,53.0,91.0
838,199.73833333333334,199.865,64.0,103.0
839,199.73833333333334,199.98666666666668,57.0,99.0
840,200.13833333333335,200.61166666666668,55.0,98.0
841,200.13833333333335,200.65666666666667,58.0,99.0
842,200.13833333333335,200.675,62.0,99.0
843,200.53833333333336,201.0366666666667,50.0,92.0
844,200.93833333333333,201.26833333333335,55.0,98.0
845,200.93833333333333,201.34,67.0,98.0
846,200.93833333333333,201.35333333333335,62.0,103.0
847,200.93833333333333,201.375,58.0,98.0
848,200.13833333333335,201.38000000000002,43.0,99.0
849,201.33833333333334,201.49333333333334,50.0,98.0
850,201.53833333333336,201.6266666666667,55.0,103.0
851,201.73833333333334,202.19500000000002,55.0,103.0
852,201.73833333333334,202.19500000000002,60.0,100.0
853,202.33833333333334,202.835,60.0,102.0
854,202.33833333333334,202.84333333333333,55.0,101.0
855,202.33833333333334,202.845,64.0,101.0
856,202.93833333333333,203.1266666666667,55.0,100.0
857,202.93833333333333,203.14166666666668,60.0,102.0
858,202.33833333333334,203.145,52.0,98.0
859,202.93833333333333,203.16500000000002,64.0,104.0
860,201.73833333333334,203.1916666666667,45.0,99.0
861,203.33833333333334,203.75833333333335,62.0,99.0
862,203.33833333333334,203.78333333333336,57.0,98.0
863,204.13833333333335,204.23000000000002,62.0,99.0
864,204.13833333333335,204.23166666666668,65.0,95.0
865,204.13833333333335,204.24833333333333,57.0,93.0
866,204.53833333333336,204.6316666666667,62.0,101.0
867,204.53833333333336,204.64000000000001,65.0,98.0
868,204.53833333333336,204.65,57.0,98.0
869,203.33833333333334,204.73333333333335,50.0,108.0
870,203.73833333333334,204.75333333333336,53.0,93.0
871,204.93833333333333,205.02166666666668,62.0,101.0
872,204.93833333333333,205.03500000000003,65.0,98.0
873,204.93833333333333,205.03833333333336,57.0,98.0
874,204.93833333333333,205.04333333333335,50.0,108.0
875,205.33833333333334,205.44333333333336,62.0,97.0
876,205.33833333333334,205.45166666666668,65.0,92.0
877,205.33833333333334,205.46,57.0,97.0
878,205.33833333333334,205.485,50.0,97.0
879,205.73833333333334,205.90333333333334,57.0,98.0
880,205.73833333333334,206.1916666666667,62.0,100.0
881,205.73833333333334,206.20666666666668,65.0,98.0
882,206.33833333333334,206.43666666666667,65.0,58.0
883,206.33833333333334,206.47500000000002,62.0,79.0
884,206.13833333333335,206.49833333333333,57.0,106.0
885,205.73833333333334,206.53,50.0,113.0
886,206.40666666666667,207.36333333333334,58.0,84.0
887,206.5,207.36333333333334,62.0,98.0
888,206.5066666666667,207.42666666666668,46.0,102.0
889,206.56,207.48333333333335,65.0,97.0
890,208.17000000000002,208.96333333333334,64.0,93.0
891,208.13333333333335,209.0016666666667,48.0,98.0
892,208.01833333333335,209.03,55.0,82.0
893,208.09,209.03500000000003,60.0,90.0
894,209.71333333333334,209.92333333333335,55.0,91.0
895,209.71666666666667,210.15666666666667,60.0,94.0
896,210.08333333333334,210.89166666666668,52.0,84.0
897,209.715,211.07666666666668,45.0,93.0
898,211.10833333333335,211.335,57.0,82.0
899,211.18833333333336,211.35000000000002,62.0,93.0
900,211.28333333333336,211.79166666666669,65.0,96.0
901,211.70833333333334,211.985,57.0,98.0
902,211.245,212.2866666666667,50.0,95.0
903,211.90666666666667,212.32000000000002,64.0,102.0
904,211.465,212.35500000000002,53.0,83.0
905,212.15333333333334,212.3816666666667,57.0,81.0
906,212.86666666666667,213.2516666666667,58.0,85.0
907,212.925,213.76333333333335,62.0,91.0
908,212.89333333333335,213.96666666666667,46.0,98.0
909,213.26333333333335,213.98666666666668,53.0,76.0
910,213.67833333333334,214.02333333333334,58.0,85.0
911,214.39666666666668,214.66833333333335,55.0,83.0
912,214.46166666666667,214.965,60.0,89.0
913,214.53166666666667,215.31500000000003,64.0,90.0
914,214.87166666666667,215.35666666666668,55.0,89.0
915,214.51833333333335,215.36666666666667,48.0,97.0
916,215.26666666666668,215.395,60.0,79.0
917,216.13833333333335,216.43666666666667,60.0,98.0
918,216.13833333333335,216.43833333333336,53.0,98.0
919,216.13833333333335,216.43833333333336,57.0,94.0
920,216.13833333333335,216.53833333333336,41.0,103.0
921,216.53833333333336,216.98833333333334,65.0,101.0
922,216.53833333333336,217.05,60.0,100.0
923,216.53833333333336,217.0666666666667,57.0,99.0
924,216.53833333333336,217.07500000000002,53.0,101.0
925,216.53833333333336,217.13833333333335,41.0,103.0
926,217.13833333333335,217.53833333333336,41.0,103.0
927,216.93833333333336,217.5966666666667,48.0,95.0
928,217.13833333333335,217.63666666666668,53.0,99.0
929,217.13833333333335,217.63833333333335,64.0,111.0
930,217.13833333333335,217.67666666666668,57.0,98.0
931,217.73833333333334,218.17000000000002,63.0,111.0
932,217.73833333333334,218.19833333333335,53.0,101.0
933,217.73833333333334,218.21833333333333,57.0,99.0
934,217.73833333333334,218.24666666666667,41.0,98.0
935,218.33833333333334,218.84500000000003,53.0,94.0
936,218.33833333333334,218.8466666666667,43.0,98.0
937,218.33833333333334,218.865,57.0,98.0
938,218.33833333333334,218.86666666666667,62.0,100.0
939,218.33833333333334,218.87,48.0,101.0
940,218.93833333333336,219.29333333333335,53.0,97.0
941,218.93833333333336,219.31,57.0,98.0
942,218.93833333333336,219.31,60.0,99.0
943,218.93833333333336,219.33833333333334,45.0,101.0
944,219.33833333333334,219.76833333333335,58.0,91.0
945,219.33833333333334,219.79666666666668,62.0,101.0
946,219.73833333333334,220.02,53.0,85.0
947,219.93833333333336,220.25333333333336,58.0,92.0
948,219.93833333333336,220.30333333333334,65.0,99.0
949,219.93833333333336,220.34500000000003,62.0,102.0
950,219.33833333333334,220.38666666666668,46.0,106.0
951,220.33833333333334,220.62833333333336,53.0,94.0
952,220.53833333333336,220.80333333333334,58.0,101.0
953,220.73833333333334,220.83666666666667,62.0,99.0
954,220.93833333333336,220.99,57.0,88.0
955,220.93833333333336,221.22833333333335,55.0,91.0
956,220.93833333333336,221.375,60.0,101.0
957,221.33833333333334,221.44333333333336,55.0,99.0
958,221.53833333333336,221.85833333333335,55.0,102.0
959,221.53833333333336,221.90333333333334,64.0,101.0
960,221.93833333333336,222.04666666666668,55.0,97.0
961,221.93833333333336,222.13666666666668,60.0,97.0
962,220.93833333333336,222.25500000000002,48.0,100.0
963,222.13833333333335,222.275,55.0,96.0
964,222.53833333333336,223.00500000000002,57.0,97.0
965,222.53833333333336,223.02,60.0,99.0
966,222.93833333333336,223.38833333333335,52.0,90.0
967,223.33833333333334,223.54166666666669,64.0,108.0
968,223.33833333333334,223.55333333333334,57.0,108.0
969,223.73833333333334,223.82500000000002,57.0,92.0
970,222.53833333333336,223.85500000000002,45.0,98.0
971,223.53833333333336,223.86166666666668,52.0,99.0
972,223.73833333333334,223.90166666666667,60.0,106.0
973,223.93833333333336,224.05333333333334,57.0,98.0
974,224.13833333333335,224.35666666666668,57.0,99.0
975,224.13833333333335,224.54833333333335,65.0,100.0
976,224.53833333333336,224.64000000000001,57.0,101.0
977,224.73833333333334,225.20000000000002,57.0,113.0
978,224.73833333333334,225.27166666666668,65.0,102.0
979,224.13833333333335,225.33166666666668,50.0,99.0
980,224.33833333333334,225.34166666666667,53.0,91.0
981,225.33833333333334,225.465,64.0,103.0
982,225.33833333333334,225.58666666666667,57.0,99.0
983,225.73833333333334,226.21166666666667,55.0,98.0
984,225.73833333333334,226.2566666666667,58.0,99.0
985,225.73833333333334,226.275,62.0,99.0
986,226.13833333333335,226.63666666666668,50.0,92.0
987,226.53833333333336,226.86833333333334,55.0,98.0
988,226.53833333333336,226.94000000000003,67.0,98.0
989,226.53833333333336,226.95333333333335,62.0,103.0
990,226.53833333333336,226.97500000000002,58.0,98.0
991,225.73833333333334,226.98000000000002,43.0,99.0
992,226.93833333333336,227.09333333333333,50.0,98.0
993,227.13833333333335,227.2266666666667,55.0,103.0
994,227.33833333333334,227.79500000000002,55.0,103.0
995,227.33833333333334,227.79500000000002,60.0,100.0
996,227.93833333333336,228.435,60.0,102.0
997,227.93833333333336,228.44333333333336,55.0,101.0
998,227.93833333333336,228.44500000000002,64.0,101.0
999,228.53833333333336,228.7266666666667,55.0,100.0
1000,228.53833333333336,228.74166666666667,60.0,102.0
1001,227.93833333333336,228.745,52.0,98.0
1002,228.53833333333336,228.76500000000001,64.0,104.0
1003,227.33833333333334,228.79166666666669,45.0,99.0
1004,228.93833333333336,229.35833333333335,62.0,99.0
1005,228.93833333333336,229.38333333333335,57.0,98.0
1006,229.73833333333334,229.83,62.0,99.0
1007,229.73833333333334,229.83166666666668,65.0,95.0
1008,229.73833333333334,229.84833333333336,57.0,93.0
1009,230.13833333333335,230.23166666666668,62.0,101.0
1010,230.13833333333335,230.24,65.0,98.0
1011,230.13833333333335,230.25000000000003,57.0,98.0
1012,228.93833333333336,230.33333333333334,50.0,108.0
1013,229.33833333333334,230.35333333333335,53.0,93.0
1014,230.5066666666667,231.64833333333334,38.0,98.0
1015,230.43333333333334,231.81,57.0,83.0
1016,230.54333333333335,231.82000000000002,65.0,91.0
1017,230.50500000000002,231.83,62.0,95.0
1018,232.37500000000003,232.8,50.0,97.0
1019,232.47500000000002,233.8,53.0,84.0
1020,232.21333333333334,233.8516666666667,46.0,98.0
1021,232.65833333333336,234.00333333333336,62.0,92.0
1022,232.485,234.04500000000002,58.0,92.0
1023,232.70666666666668,234.07000000000002,70.0,91.0
1024,234.84833333333336,235.14166666666668,48.0,85.0
1025,235.00000000000003,235.26666666666668,55.0,88.0
1026,235.215,235.43333333333334,60.0,89.0
1027,234.71,239.99,43.0,84.0
1028,234.44500000000002,240.00500000000002,36.0,96.0
1029,243.69333333333336,244.29000000000002,59.0,99.0
1030,244.32000000000002,244.71166666666667,65.0,93.0
1031,242.4,244.85833333333335,57.0,83.0
1032,242.21,244.86166666666668,64.0,97.0
1033,242.115,244.86333333333334,67.0,92.0
1034,242.2516666666667,244.87333333333333,60.0,78.0
1035,244.73166666666668,245.03833333333336,62.0,92.0
1036,245.01833333333335,245.37500000000003,71.0,97.0
1037,245.37,245.66666666666669,69.0,95.0
1038,245.65,246.06500000000003,77.0,92.0
1039,245.95666666666668,246.45000000000002,74.0,101.0
1040,242.4466666666667,247.14333333333335,50.0,81.0
1041,246.425,247.15500000000003,83.0,97.0
1042,242.43,247.16000000000003,38.0,64.0
1043,247.10833333333335,248.7216666666667,81.0,97.0
1044,248.73833333333334,249.9766666666667,95.0,99.0
