,start,end,pitch,velocity
0,29.683898887500003,30.035684250000003,63.0,92.0
1,30.112469887500005,30.412469587500006,61.0,50.0
2,30.541040887500003,30.992826150000003,63.0,79.0
3,31.183897387500004,31.303540125000005,61.0,74.0
4,31.398182887500003,31.608896962500005,63.0,82.0
5,31.612468387500005,31.849968150000006,61.0,82.0
6,31.826753887500004,32.50889606250001,63.0,83.0
7,33.112466887500005,33.349966650000006,63.0,99.0
8,33.5410378875,33.692823450000006,61.0,86.0
9,33.9696088875,34.232108625,63.0,89.0
10,34.39817988750001,34.5196083375,61.0,88.0
11,34.6124653875,35.374964625000004,63.0,90.0
12,36.112463887500006,36.260678025000004,66.0,78.0
13,36.3267493875,36.448177837500005,63.0,75.0
14,36.541034887500004,36.778534650000005,66.0,90.0
15,36.75532038750001,38.40889016250001,63.0,78.0
16,39.541031887500004,40.039245675000004,58.0,76.0
17,39.9696028875,41.65174406250001,56.0,69.0
18,43.39817088750001,43.73388483750001,63.0,102.0
19,43.826741887500006,43.957098900000005,61.0,75.0
20,44.04102738750001,44.7285267,63.0,85.0
21,44.898169387500005,45.02674068750001,61.0,89.0
22,45.11245488750001,45.30709755000001,63.0,85.0
23,45.3267403875,45.466025962500005,61.0,78.0
24,45.541025887500005,46.39281075000001,63.0,96.0
25,46.82673888750001,47.105310037500004,63.0,92.0
26,47.255309887500005,47.3660240625,61.0,81.0
27,47.46959538750001,47.948166337500005,63.0,89.0
28,48.11245188750001,48.208880362500004,61.0,90.0
29,48.3267373875,48.83566545000001,63.0,90.0
30,49.82673588750001,49.955307187500004,66.0,97.0
31,50.04102138750001,50.16423555000001,63.0,78.0
32,50.255306887500005,50.40709245000001,66.0,96.0
33,50.46959238750001,52.557090300000006,63.0,78.0
34,53.46958938750001,53.66780347500001,56.0,82.0
35,53.683874887500004,53.90708895000001,58.0,61.0
36,53.898160387500006,55.05887351250001,56.0,82.0
37,57.11244288750001,57.508871062500006,63.0,89.0
38,57.54101388750001,57.89815638750001,64.0,92.0
39,57.969584887500005,58.27851315000001,71.0,89.0
40,58.39815588750001,58.835655450000004,63.0,74.0
41,58.82672688750001,59.23922647500001,64.0,92.0
42,59.25529788750001,59.93922577500001,71.0,102.0
43,60.11243988750001,61.30708155000001,70.0,102.0
44,63.54100788750001,63.79100763750001,61.0,88.0
45,63.969578887500006,64.34993565,61.0,93.0
46,64.39814988750001,64.70350672500001,63.0,97.0
47,64.8267208875,65.1410062875,70.0,96.0
48,65.25529188750001,65.58029156250001,61.0,90.0
49,65.68386288750001,65.99814828750002,63.0,96.0
50,66.1124338875,66.70707615,70.0,95.0
51,66.96957588750001,68.94278820000001,68.0,97.0
52,70.8267148875,71.17850025000001,63.0,97.0
53,71.25528588750001,71.50707135,64.0,93.0
54,71.68385688750001,71.93385663750001,71.0,97.0
55,72.1124278875,72.41064187500001,63.0,93.0
56,72.54099888750001,72.8427843,64.0,102.0
57,72.96956988750001,73.55706930000001,71.0,122.0
58,73.82671188750001,75.13206772500001,70.0,117.0
59,75.96956688750001,76.1856381,70.0,117.0
60,76.39813788750001,76.72849470000001,66.0,95.0
61,77.25527988750001,79.88742011250001,71.0,122.0
62,83.23624215000001,83.56071030000001,66.0,95.0
63,83.66177415000001,83.98092315000001,71.0,112.0
64,84.08730615000002,84.33907925000001,73.0,117.0
65,84.93837015000001,85.13872480000002,75.0,97.0
66,84.51283815000002,85.16000140000001,76.0,127.0
67,85.36390215000002,85.69191640000001,66.0,96.0
68,85.78943415000002,86.20610090000001,76.0,107.0
69,86.21496615000001,86.61744850000001,75.0,127.0
70,86.64049815000001,87.00220035000001,66.0,97.0
71,87.06603015000002,87.37631390000001,76.0,112.0
72,87.49156215000002,89.13695255000002,75.0,122.0
73,90.04475415000002,90.30716555000001,75.0,117.0
74,90.47028615000002,90.82844225000001,78.0,127.0
75,90.89581815000001,91.24156290000002,66.0,96.0
76,91.32135015000001,91.72089420000002,73.0,112.0
77,91.74767988750001,92.13339378750003,71.0,93.0
78,92.17625088750002,92.51196483750002,63.0,99.0
79,92.60482188750002,92.86196448750002,73.0,127.0
80,93.03339288750001,93.40839251250001,71.0,127.0
81,93.46196388750002,93.80124926250002,63.0,95.0
82,93.89053488750002,94.17446317500001,70.0,107.0
83,94.53339138750002,96.06117755000001,68.0,107.0
84,96.89750717500002,97.14031255000002,68.0,100.0
85,97.32916117500001,97.64570744166669,71.0,117.0
86,97.76081517500002,98.00362055000001,73.0,112.0
87,98.19246917500001,98.52879958333335,75.0,127.0
88,98.62412317500001,98.88851125000001,73.0,122.0
89,99.05577717500002,99.40649605000002,68.0,112.0
90,99.48743117500001,99.72843799166668,75.0,112.0
91,99.91908517500002,100.39750169166668,73.0,127.0
92,100.56656617500002,100.93886775000001,68.0,95.0
93,101.21404717500002,102.58095150833334,67.0,107.0
94,102.94066317500001,103.38670564166668,69.0,117.0
95,103.80397117500002,104.33994155833335,67.0,122.0
96,104.66727917500002,105.43526358333335,66.0,107.0
97,105.96224117500002,106.23022636666668,68.0,107.0
98,106.39389517500001,107.02518915000002,70.0,127.0
99,107.68885717500001,107.83813751666668,71.0,117.0
100,108.12051117500002,108.47482716666669,70.0,122.0
101,108.76799217500002,108.95684080000001,68.0,99.0
102,108.98381917500001,109.46043713333334,66.0,100.0
103,110.70345988750002,110.98917388750002,66.0,99.0
104,111.13203088750001,111.39988776250001,71.0,127.0
105,111.55980415000002,111.81512335000002,73.0,127.0
106,111.98533615000002,112.29739295000002,76.0,127.0
107,112.41086815000001,112.75838595000002,75.0,127.0
108,112.83640015000002,113.11299595000003,66.0,117.0
109,113.26193215000002,113.52788965000002,76.0,122.0
110,113.68746415000003,114.10058480000002,75.0,127.0
111,114.11299615000001,114.42682600000002,66.0,99.0
112,114.53852815000002,114.81689700000003,76.0,122.0
113,114.96406015000002,115.78852840000002,75.0,127.0
114,115.60235815000001,115.79207450000001,76.0,117.0
115,115.81512415000002,117.08285490000002,78.0,102.0
116,117.51725215000002,117.79916710000002,75.0,112.0
117,117.94278415000002,118.19278420000002,78.0,127.0
118,118.36831615000003,118.64313890000003,66.0,102.0
119,118.79384815000002,119.16618865000002,73.0,127.0
120,119.21938015000002,119.46760715000002,71.0,127.0
121,119.64491215000002,119.92150795000002,63.0,102.0
122,120.07044415000001,120.37363570000002,73.0,122.0
123,120.49597615000002,120.81157905000002,71.0,127.0
124,120.92150815000002,121.21760750000001,75.0,122.0
125,121.34704015000003,121.62718205000002,70.0,107.0
126,121.77257215000002,122.82221775000002,68.0,112.0
127,124.33263988750002,124.61656817500003,68.0,102.0
128,124.76121088750001,125.00942492500002,71.0,127.0
129,125.18978188750002,125.44513877500002,73.0,127.0
130,125.61835288750002,125.93620971250002,75.0,127.0
131,126.04692388750001,126.37549498750002,73.0,96.0
132,126.47549488750002,126.75406603750002,68.0,100.0
133,126.90406588750002,127.21120843750002,75.0,117.0
134,127.33263688750002,127.72727935000002,73.0,127.0
135,127.97549338750002,128.26299310000002,68.0,112.0
136,128.61834988750002,129.79870585000003,67.0,127.0
137,130.3326338875,130.95227612500003,69.0,122.0
138,131.18977588750002,131.7540610375,67.0,127.0
139,132.04691788750003,132.99870265,66.0,127.0
140,133.33263088750002,133.6754876875,68.0,122.0
141,133.76120188750002,134.44870120000002,70.0,127.0
142,135.0469148875,135.34512887500003,71.0,127.0
143,135.4754858875,137.94691198750002,75.0,127.0
144,138.04691188750002,138.36655442500003,75.0,107.0
145,138.47548288750002,138.8111968375,68.0,102.0
146,138.90405388750003,139.21476786250003,78.0,127.0
147,139.33262488750003,139.70405308750003,78.0,127.0
148,139.76119588750004,140.03619561250002,76.0,122.0
149,140.1897668875,140.55405223750003,68.0,112.0
150,140.61833788750002,140.93083757500003,78.0,122.0
151,141.04690888750002,141.44869420000003,76.0,127.0
152,141.47547988750003,141.6326225875,68.0,102.0
153,141.90405088750003,142.1719077625,71.0,122.0
154,142.3326218875,143.60762061250003,70.0,122.0
155,144.4754768875,145.109404825,70.0,117.0
156,145.33261888750002,145.84333266250002,66.0,102.0
157,146.18976088750003,148.33618731250002,71.0,117.0
158,153.04689688750003,153.3826108375,63.0,102.0
159,153.47546788750003,153.60582490000002,61.0,75.0
160,153.68975338750002,154.3772527,63.0,85.0
161,154.54689538750003,154.67546668750003,61.0,89.0
162,154.76118088750002,154.95582355000002,63.0,85.0
163,154.97546638750003,155.1147519625,61.0,78.0
164,155.18975188750002,156.04153675000003,63.0,96.0
165,156.47546488750004,156.75403603750001,63.0,92.0
166,156.90403588750002,157.0147500625,61.0,81.0
167,157.33260688750002,157.81117783750003,63.0,89.0
168,157.76117788750003,157.8576063625,61.0,90.0
169,157.9754633875,158.48439145000003,63.0,90.0
170,159.47546188750002,159.60403318750002,66.0,97.0
171,159.6897473875,159.81296155,63.0,78.0
172,159.90403288750002,160.05581845000003,66.0,96.0
173,160.11831838750004,162.20581630000004,63.0,78.0
174,166.76116888750002,167.09866855,63.0,112.0
175,167.18973988750002,167.32545403750004,61.0,93.0
176,167.40402538750004,168.19509602500003,63.0,117.0
177,168.26116738750002,168.35402443750002,61.0,95.0
178,168.4754528875,168.5968813375,63.0,102.0
179,168.68973838750003,168.78438115000003,61.0,95.0
180,168.90402388750002,169.48973758750003,63.0,112.0
181,170.18973688750003,170.4075938125,63.0,117.0
182,170.6183078875,170.71116493750003,61.0,102.0
183,170.83259338750003,171.252235825,63.0,117.0
184,171.47544988750002,171.54330696250003,61.0,100.0
185,171.68973538750004,172.41294895000001,63.0,112.0
186,173.18973388750004,173.30759091250002,66.0,100.0
187,173.40401938750003,173.49866215000003,63.0,83.0
188,173.61830488750002,173.68794767500003,66.0,89.0
189,173.83259038750003,175.59508862500002,63.0,102.0
190,180.47544088750004,180.87186906250002,63.0,89.0
191,180.90401188750002,181.26115438750003,64.0,92.0
192,181.33258288750002,181.64151115000004,71.0,89.0
193,181.76115388750003,182.19865345000002,63.0,74.0
194,182.18972488750003,182.602224475,64.0,92.0
195,182.61829588750004,183.30222377500002,71.0,102.0
196,183.47543788750002,184.67007955000003,70.0,102.0
197,186.90400588750003,187.15400563750003,61.0,88.0
198,187.3325768875,187.71293365000002,61.0,93.0
199,187.76114788750004,188.06650472500002,63.0,97.0
200,188.18971888750002,188.50400428750004,70.0,96.0
201,188.61828988750003,188.9432895625,61.0,90.0
202,189.04686088750003,189.36114628750005,63.0,96.0
203,189.4754318875,190.07007415000004,70.0,95.0
204,190.33257388750002,192.30578620000003,68.0,97.0
205,194.18971288750004,194.54149825000002,63.0,97.0
206,194.6182838875,194.87006935000002,64.0,93.0
207,195.04685488750005,195.29685463750002,71.0,97.0
208,195.47542588750002,195.77363987500001,63.0,93.0
209,195.90399688750003,196.2057823,64.0,102.0
210,196.33256788750003,196.92006730000003,71.0,122.0
211,197.18970988750004,198.49506572500002,70.0,117.0
212,199.33256488750004,199.5486361,70.0,117.0
213,199.76113588750002,200.09149270000003,66.0,95.0
214,200.61827788750003,203.25041811250003,71.0,122.0
215,203.61827488750004,204.04148875000004,71.0,122.0
216,204.0468458875,206.1682723375,73.0,112.0
217,206.61827188750004,206.945057275,66.0,95.0
218,207.04684288750002,207.36827113750002,71.0,112.0
219,207.47541388750003,207.72898506250004,73.0,117.0
220,207.90398488750003,208.27541308750003,76.0,127.0
221,208.33255588750004,208.53434140000002,75.0,97.0
222,208.76112688750004,209.09148370000003,66.0,96.0
223,209.18969788750002,209.60934032500003,76.0,107.0
224,209.61826888750005,210.02362562500002,75.0,127.0
225,210.04683988750003,210.41112523750002,66.0,97.0
226,210.47541088750003,210.787910575,76.0,112.0
227,210.90398188750004,212.56112308750005,75.0,122.0
228,213.4754078875,213.73969333750003,75.0,117.0
229,213.90397888750005,214.26469281250002,78.0,127.0
230,214.33254988750002,214.68076382500004,66.0,96.0
231,214.76112088750003,215.16290620000004,73.0,112.0
232,215.18969188750003,215.57540578750002,71.0,93.0
233,215.61826288750004,215.95397683750002,63.0,99.0
234,216.04683388750004,216.30397648750005,73.0,127.0
235,216.47540488750002,216.85040451250003,71.0,127.0
236,216.90397588750002,217.24326126250003,63.0,95.0
237,217.33254688750003,217.61647517500003,70.0,107.0
238,217.97540338750002,219.50218757500005,68.0,107.0
239,220.33254388750004,220.57361507500002,68.0,100.0
240,220.7611148875,221.07540028750003,71.0,117.0
241,221.18968588750005,221.43075707500003,73.0,112.0
242,221.61825688750002,221.95218512500003,75.0,127.0
243,222.04682788750003,222.30932762500004,73.0,122.0
244,222.47539888750003,222.82361282500003,68.0,112.0
245,222.9039698875,223.14325536250004,75.0,112.0
246,223.33254088750004,223.80754041250003,73.0,127.0
247,223.97539738750004,224.34503987500003,68.0,95.0
248,224.61825388750003,225.97539538750004,67.0,107.0
249,226.33253788750005,226.77539458750005,69.0,117.0
250,227.18967988750003,227.72182221250003,67.0,122.0
251,228.04682188750002,228.80932112500005,66.0,107.0
252,229.33253488750003,229.59860605000003,68.0,107.0
253,229.76110588750004,230.38789097500003,70.0,127.0
254,231.04681888750002,231.19503302500004,71.0,117.0
255,231.47538988750003,231.82717525000004,70.0,122.0
256,232.11824638750005,232.30574620000004,68.0,99.0
257,232.33253188750004,232.80574570000005,66.0,100.0
258,234.04681588750003,234.33252988750002,66.0,99.0
259,234.47538688750004,234.74324376250001,71.0,127.0
260,234.90395788750004,235.16110048750005,73.0,127.0
261,235.33252888750002,235.64681428750004,76.0,127.0
262,235.76109988750005,236.11109953750002,75.0,127.0
263,236.18967088750003,236.46824203750003,66.0,117.0
264,236.61824188750003,236.88609876250004,76.0,122.0
265,237.04681288750004,237.46288390000004,75.0,127.0
266,237.47538388750002,237.79145500000004,66.0,99.0
267,237.90395488750005,238.18431175000003,76.0,122.0
268,238.33252588750003,239.1628822,75.0,127.0
269,238.97538238750002,239.16645362500003,76.0,117.0
270,239.18966788750004,240.46645232500003,78.0,102.0
271,240.90395188750003,241.18788017500003,75.0,112.0
272,241.33252288750003,241.58430835000001,78.0,127.0
273,241.76109388750004,242.03787932500003,66.0,102.0
274,242.18966488750004,242.56466451250003,73.0,127.0
275,242.61823588750002,242.86823563750005,71.0,127.0
276,243.04680688750005,243.32537803750003,63.0,102.0
277,243.47537788750003,243.78073472500003,73.0,122.0
278,243.90394888750004,244.22180571250004,71.0,127.0
279,244.33251988750004,244.63073387500003,75.0,122.0
280,244.76109088750002,245.04323346250004,70.0,107.0
281,245.18966188750005,246.24680368750003,68.0,112.0
282,247.76108788750003,248.04501617500003,68.0,102.0
283,248.18965888750003,248.43787292500002,71.0,127.0
284,248.61822988750004,248.87358677500004,73.0,127.0
285,249.04680088750004,249.36465771250005,75.0,127.0
286,249.47537188750005,249.80394298750002,73.0,96.0
287,249.90394288750002,250.18251403750003,68.0,100.0
288,250.33251388750006,250.63965643750004,75.0,117.0
289,250.76108488750003,251.15572735000003,73.0,127.0
290,251.40394138750003,251.69144110000002,68.0,112.0
291,252.04679788750002,253.22715385000004,67.0,127.0
292,253.76108188750004,254.38072412500003,69.0,122.0
293,254.61822388750005,255.18250903750004,67.0,127.0
294,255.47536588750006,256.42715065000004,66.0,127.0
295,256.76107888750005,257.10393568750004,68.0,122.0
296,257.1896498875,257.8771492,70.0,127.0
297,258.4753628875,258.77357687500006,71.0,127.0
298,258.90393388750005,261.3753599875,75.0,127.0
299,261.4753598875,261.79500242500006,75.0,107.0
300,261.90393088750005,262.2396448375,68.0,102.0
301,262.33250188750003,262.6432158625,78.0,127.0
302,262.76107288750006,263.13250108750003,78.0,127.0
303,263.18964388750004,263.4646436125,76.0,122.0
304,263.6182148875,263.98250023750006,68.0,112.0
305,264.04678588750005,264.35928557500006,78.0,122.0
306,264.4753568875,264.87714220000004,76.0,127.0
307,264.90392788750006,265.0610705875,68.0,102.0
308,265.33249888750004,265.60035576250004,71.0,122.0
309,265.7610698875,267.03606861250006,70.0,122.0
310,267.9039248875,268.537852825,70.0,117.0
311,268.7610668875,269.2717806625,66.0,102.0
312,269.61820888750003,271.74089352083337,71.0,117.0
