,start,end,pitch,velocity
0,23.747180325,24.04071951875,58.0,83.0
1,24.084258825,24.308977825,63.0,82.0
2,24.421337325,24.99858425625,63.0,90.0
3,25.095494325,25.60813454375,65.0,86.0
4,25.769651324999998,26.30335895,65.0,83.0
5,26.443808325,26.76262840625,65.0,75.0
6,26.780886825,27.1376282375,70.0,97.0
7,27.117965325,27.679762825,67.0,76.0
8,27.455043825,27.77667289375,65.0,81.0
9,27.792122325,28.7106612375,63.0,58.0
10,29.477514825,29.7303237,58.0,73.0
11,29.814593325,30.0449303,63.0,82.0
12,30.151671825,30.61094128125,63.0,88.0
13,30.825828825,31.21206460625,63.0,58.0
14,31.162907325,31.5730195,65.0,66.0
15,31.668525074999998,32.22330010625,65.0,66.0
16,32.174142825,32.7556032375,68.0,90.0
17,32.848299825,33.71487246875,67.0,79.0
18,34.533692325,34.88762475,58.0,62.0
19,34.870770825,35.10532128125,63.0,75.0
20,35.207849325,35.81318613125,63.0,79.0
21,35.882006325,36.162905075,63.0,63.0
22,36.219084824999996,36.46206224375,65.0,69.0
23,36.556163325,37.1151518375,65.0,78.0
24,37.230320325,37.47329774375,65.0,77.0
25,37.567398825,37.87779194375,70.0,72.0
26,37.904477325,38.1572862,67.0,59.0
27,38.241555825,38.5027916625,67.0,27.0
28,38.578634324999996,39.55194849375,63.0,72.0
29,40.264026825,40.42554360625,67.0,86.0
30,40.432566075,40.6291952,70.0,77.0
31,40.601105325,41.053352312499996,72.0,85.0
32,41.106723075,41.44941955,72.0,90.0
33,41.612340825,42.0673968,75.0,92.0
34,42.286497825,42.49857638125,75.0,92.0
35,42.623576325,42.8454863375,75.0,100.0
36,42.960654825,43.22048616875,75.0,90.0
37,43.297733324999996,43.81880050625,72.0,81.0
38,43.803351075,44.7443618875,70.0,74.0
39,45.320204325,45.5702042125,70.0,89.0
40,45.657282824999996,46.233125262499996,77.0,96.0
41,46.331439825,47.476102231249996,75.0,92.0
42,48.016832324999996,48.27666366875,63.0,85.0
43,48.353910825,49.0140228875,72.0,78.0
44,49.028067825,50.140426874999996,70.0,83.0
45,50.713460325,51.136212943749996,58.0,79.0
46,51.050538825,51.42272966875,67.0,69.0
47,51.387617325,52.264021424999996,65.0,69.0
48,52.398852825,52.5926729625,65.0,79.0
49,52.735931324999996,53.328627687499996,65.0,79.0
50,53.747166825,54.06598690625,63.0,86.0
51,54.084245325,54.5477282625,62.0,67.0
52,54.421323825,55.71205358125,60.0,66.0
53,56.106716325,56.3819971,70.0,99.0
54,56.443794825,56.839862062499996,77.0,97.0
55,57.117951825,58.05615365,75.0,107.0
56,58.803344325,59.216265487499996,63.0,90.0
57,59.140422825,59.81036634375,72.0,70.0
58,59.814579824999996,61.106714075,70.0,73.0
59,61.499972325,61.96766874375,58.0,79.0
60,61.837050825,62.237331543749995,67.0,67.0
61,62.174129324999996,63.1657019125,65.0,65.0
62,63.185364825,63.417106293749995,65.0,72.0
63,63.522443325,64.3398586875,65.0,88.0
64,64.196600325,64.50558895,63.0,93.0
65,64.533678825,64.90306068125,65.0,66.0
66,64.870757325,66.66991381875,63.0,67.0
67,66.893228325,67.15586865625,58.0,86.0
68,67.230306825,67.40025056875,63.0,71.0
69,67.567385325,68.14744124375,63.0,85.0
70,68.241542325,68.5870477875,63.0,81.0
71,68.578620825,68.77524995,65.0,81.0
72,68.915699325,69.4409799875,65.0,90.0
73,69.589856325,69.8735640625,65.0,93.0
74,69.926934825,70.20362009375,70.0,92.0
75,70.264013325,70.5589570125,67.0,88.0
76,70.601091825,71.00137254375,65.0,75.0
77,70.938170325,71.75979916874999,63.0,90.0
78,72.623562825,72.97047278125,58.0,64.0
79,72.960641325,73.264011975,63.0,89.0
80,73.297719825,73.78507915624999,63.0,89.0
81,73.971876825,74.331427225,63.0,75.0
82,74.308955325,74.57861812499999,65.0,85.0
83,74.646033825,75.15305606875,65.0,88.0
84,75.320190825,75.6769322375,67.0,65.0
85,75.657269325,76.1263702375,68.0,86.0
86,75.99434782499999,77.488729175,67.0,77.0
87,77.679740325,78.00979635624999,58.0,82.0
88,78.016818825,78.241537825,63.0,78.0
89,78.35389732499999,78.91148134375,63.0,89.0
90,79.028054325,79.32721149375,63.0,92.0
91,79.365132825,79.65164955,65.0,75.0
92,79.702211325,80.16850325,65.0,90.0
93,80.376368325,80.75136815625,65.0,70.0
94,80.71344682499999,81.0561433,70.0,88.0
95,81.050525325,81.38619933125,67.0,74.0
96,81.387603825,81.77383960625,65.0,68.0
97,81.724682325,82.7274908625,63.0,82.0
98,83.410074825,83.60529945625,67.0,76.0
99,83.578614075,83.7836701625,70.0,83.0
100,83.747153325,84.14602955,72.0,85.0
101,84.252771075,84.61793945,72.0,77.0
102,84.758388825,85.1825459375,75.0,96.0
103,85.43254582499999,85.63900640625,75.0,97.0
104,85.769624325,85.9100737,75.0,93.0
105,86.106702825,86.62496101875,75.0,89.0
106,86.780859825,87.117938325,72.0,88.0
107,87.117938325,88.14883673749999,70.0,95.0
108,88.466252325,88.7415331,70.0,99.0
109,88.803330825,89.1993980625,77.0,97.0
110,89.477487825,90.41568965,75.0,107.0
111,91.162880325,91.5758014875,63.0,90.0
112,91.499958825,92.16990234375,72.0,70.0
113,92.174115825,93.466250075,70.0,73.0
114,93.859508325,94.32720474375,58.0,79.0
115,94.196586825,94.59686754375,67.0,67.0
116,94.533665325,95.5252379125,65.0,65.0
117,95.544900825,95.77664229375,65.0,72.0
118,95.881979325,96.6993946875,65.0,88.0
119,96.893214825,97.22467535,63.0,99.0
120,97.23029332499999,97.59686619375,62.0,71.0
121,97.567371825,98.7892813875,60.0,79.0
122,99.252764325,99.5280451,70.0,99.0
123,99.58984282499999,99.9859100625,77.0,97.0
124,100.263999825,101.20220164999999,75.0,107.0
125,101.94939232499999,102.3623134875,63.0,90.0
126,102.286470825,102.95641434375,72.0,70.0
127,102.960627825,104.25276207499999,70.0,73.0
128,104.646020325,105.11371674375,58.0,79.0
129,104.983098825,105.38337954375,67.0,67.0
130,105.320177325,106.31174991249999,65.0,65.0
131,106.331412825,106.56315429375,65.0,72.0
132,106.66849132499999,107.48590668749999,65.0,88.0
133,107.342648325,107.65163695,63.0,93.0
134,107.679726825,108.04910868125,65.0,66.0
135,108.01680532499999,109.81596181875,63.0,67.0
136,110.713433325,112.26258993124999,67.0,112.0
137,112.567365075,112.74292679375,67.0,100.0
138,112.73590432499999,113.05472440625,65.0,95.0
139,113.072982825,113.39461189375,63.0,93.0
140,113.410061325,113.769611725,65.0,95.0
141,113.74713982499999,113.87354426249999,70.0,112.0
142,114.084218325,114.94798198125,70.0,122.0
143,115.432532325,115.73871196249999,72.0,97.0
144,115.769610825,116.02101520625,74.0,100.0
145,116.10668932499999,116.94517209375,75.0,122.0
146,117.792081825,118.16989064375,75.0,102.0
147,118.46623882499999,118.75275555,74.0,112.0
148,118.803317325,119.129159875,72.0,100.0
149,119.140395825,119.971856125,67.0,96.0
150,120.488709825,120.57157495625,70.0,82.0
151,120.657249075,120.75135015625,70.0,78.0
152,120.82578832499999,120.98449611875,70.0,77.0
153,121.162866825,121.7106193875,77.0,102.0
154,121.837023825,122.9016300875,75.0,99.0
155,123.18533782499999,123.241517575,63.0,90.0
156,123.353877075,123.421292775,63.0,75.0
157,123.522416325,123.65022525625,63.0,117.0
158,123.859494825,124.43674175625,72.0,107.0
159,124.53365182499999,125.48168510625,70.0,97.0
160,126.219044325,126.49572959375,68.0,107.0
161,126.556122825,126.85527999375,67.0,88.0
162,126.89320132499999,128.19797601874998,65.0,102.0
163,128.57859382499998,128.814548775,65.0,102.0
164,128.915672325,129.3285934875,67.0,97.0
165,129.252750825,129.3960091875,65.0,72.0
166,129.589829325,130.93673883125,65.0,100.0
167,132.286457325,133.83561393125,67.0,112.0
168,133.971849825,134.0533104625,67.0,107.0
169,134.140389075,134.31595079375,67.0,100.0
170,134.308928325,134.62774840625,65.0,95.0
171,134.646006825,134.96763589374999,63.0,93.0
172,134.983085325,135.342635725,65.0,95.0
173,135.320163825,135.4465682625,70.0,112.0
174,135.657242325,136.52100598125,70.0,122.0
175,137.005556325,137.3117359625,72.0,97.0
176,137.342634825,137.59403920625,74.0,100.0
177,137.679713325,139.028027325,75.0,122.0
178,139.365105825,139.74291464375,75.0,102.0
179,140.039262825,140.32577955,74.0,112.0
180,140.376341325,140.702183875,72.0,100.0
181,140.713419825,140.82577932499998,70.0,112.0
182,141.050498325,141.65302614375,67.0,100.0
183,142.061733825,142.14459895625,70.0,82.0
184,142.23027307499999,142.32437415625,70.0,78.0
185,142.398812325,142.55752011875,70.0,77.0
186,142.73589082499998,143.2836433875,77.0,102.0
187,143.410047825,144.4746540875,75.0,99.0
188,144.758361825,144.814541575,63.0,90.0
189,144.926901075,144.994316775,63.0,75.0
190,145.095440325,145.22324925625,63.0,117.0
191,145.432518825,146.00976575625,72.0,107.0
192,146.106675825,147.792068325,70.0,97.0
193,147.792068325,148.06875359375,68.0,107.0
194,148.129146825,148.42830399375,67.0,88.0
195,148.466225325,149.43532601249998,65.0,102.0
196,149.477460825,149.6403821,65.0,102.0
197,149.814539325,150.23588745,65.0,97.0
198,150.488696325,150.84965121874998,63.0,100.0
199,150.825774825,151.16144883125,65.0,97.0
200,151.162853325,153.03785248124998,63.0,102.0
201,153.185324325,153.34684110625,58.0,117.0
202,153.522402825,153.67549264375,63.0,99.0
203,153.859481325,154.31594179375,63.0,96.0
204,154.533638325,154.89178423125,63.0,102.0
205,155.039256075,155.1375706375,65.0,89.0
206,155.207795325,155.71903104999998,65.0,97.0
207,155.881952325,156.12352525,70.0,117.0
208,156.38757007499999,156.4802666625,67.0,92.0
209,156.556109325,156.81313168124998,67.0,83.0
210,156.89318782499998,157.83560313125,63.0,95.0
211,158.578580325,158.9521756625,58.0,96.0
212,159.252737325,159.7162202625,63.0,117.0
213,159.926894325,160.2274559875,63.0,97.0
214,160.432512075,160.55189404375,63.0,99.0
215,160.601051325,160.99009609375,65.0,97.0
216,161.275208325,161.54206213749998,67.0,107.0
217,161.780826075,161.95638779375,68.0,99.0
218,161.949365325,163.971836325,67.0,89.0
219,163.971836325,164.3454316625,58.0,96.0
220,164.645993325,165.1094762625,63.0,117.0
221,165.320150325,165.6207119875,63.0,97.0
222,165.82576807499998,165.94515004375,63.0,99.0
223,165.994307325,166.38335209375,65.0,97.0
224,166.668464325,166.91144174375,70.0,97.0
225,167.174082075,167.2555427125,67.0,95.0
226,167.342621325,167.55469988125,67.0,85.0
227,167.679699825,168.6881263375,63.0,97.0
228,169.365092325,169.67267645625,67.0,102.0
229,169.702170825,170.01256394375,70.0,100.0
230,170.039249325,170.37070985,72.0,112.0
231,170.713406325,170.99851855625,72.0,107.0
232,171.05048482499998,171.11087805625,75.0,107.0
233,171.387563325,171.73728226875,75.0,112.0
234,172.061720325,172.4465516125,75.0,107.0
235,172.567338075,172.67267510624998,72.0,102.0
236,172.735877325,172.93391094375,74.0,112.0
237,173.072955825,174.241494625,70.0,102.0
238,174.758348325,175.03362909999998,70.0,99.0
239,175.095426825,175.4914940625,77.0,97.0
240,175.76958382499998,176.70778565,75.0,107.0
241,177.454976325,177.8678974875,63.0,90.0
242,177.792054825,178.46199834375,72.0,70.0
243,178.466211825,179.758346075,70.0,73.0
244,180.151604325,180.61930074375,58.0,79.0
245,180.48868282499998,180.88896354375,67.0,67.0
246,180.825761325,181.8173339125,65.0,65.0
247,181.836996825,182.06873829375,65.0,72.0
248,182.174075325,182.9914906875,65.0,88.0
249,183.185310825,183.51677135,63.0,99.0
250,183.522389325,183.88896219375,62.0,71.0
251,183.859467825,185.0813773875,60.0,79.0
252,185.544860325,185.8201411,70.0,99.0
253,185.881938825,186.2780060625,77.0,97.0
254,186.556095825,187.49429765,75.0,107.0
255,188.241488325,188.6544094875,63.0,90.0
256,188.578566825,189.24851034374998,72.0,70.0
257,189.252723825,190.544858075,70.0,73.0
258,190.938116325,191.40581274375,58.0,79.0
259,191.275194825,191.67547554375,67.0,67.0
260,191.612273325,192.6038459125,65.0,65.0
261,192.623508825,192.85525029375,65.0,72.0
262,192.960587325,193.7780026875,65.0,88.0
263,193.63474432499999,193.94373295,63.0,93.0
264,193.971822825,194.34120468125,65.0,66.0
265,194.308901325,196.10805781874998,63.0,67.0
266,197.005529325,198.55468593125,67.0,112.0
267,198.85946107499998,199.03502279375,67.0,100.0
268,199.028000325,199.34682040625,65.0,95.0
269,199.36507882499998,199.68670789375,63.0,93.0
270,199.702157325,200.061707725,65.0,95.0
271,200.039235825,200.1656402625,70.0,112.0
272,200.376314325,201.24007798124998,70.0,122.0
273,201.724628325,202.0308079625,72.0,97.0
274,202.061706825,202.31311120625,74.0,100.0
275,202.398785325,203.23726809375,75.0,122.0
276,204.08417782499998,204.46198664375,75.0,102.0
277,204.758334825,205.04485155,74.0,112.0
278,205.095413325,205.42125587499999,72.0,100.0
279,205.432491825,206.263952125,67.0,96.0
280,206.780805825,206.86367095625,70.0,82.0
281,206.949345075,207.04344615624998,70.0,78.0
282,207.117884325,207.27659211875,70.0,77.0
283,207.454962825,208.0027153875,77.0,102.0
284,208.129119825,209.19372608749998,75.0,99.0
285,209.477433825,209.533613575,63.0,90.0
286,209.645973075,209.713388775,63.0,75.0
287,209.81451232499998,209.94232125624998,63.0,117.0
288,210.151590825,210.72883775625,72.0,107.0
289,210.825747825,211.77378110625,70.0,97.0
290,212.51114032499999,212.78782559375,68.0,107.0
291,212.848218825,213.14737599375,67.0,88.0
292,213.185297325,214.49007201875,65.0,102.0
293,214.870689825,215.106644775,65.0,102.0
294,215.207768325,215.6206894875,67.0,97.0
295,215.544846825,215.68810518749999,65.0,72.0
296,215.881925325,217.22883483125,65.0,100.0
297,218.578553325,220.12770993125,67.0,112.0
298,220.263945825,220.3454064625,67.0,107.0
299,220.432485075,220.60804679375,67.0,100.0
300,220.601024325,220.91984440625,65.0,95.0
301,220.938102825,221.25973189375,63.0,93.0
302,221.275181325,221.634731725,65.0,95.0
303,221.612259825,221.7386642625,70.0,112.0
304,221.94933832499999,222.81310198124999,70.0,122.0
305,223.297652325,223.60383196249998,72.0,97.0
306,223.634730825,223.88613520625,74.0,100.0
307,223.97180932499998,225.320123325,75.0,122.0
308,225.657201825,226.03501064374998,75.0,102.0
309,226.331358825,226.61787555,74.0,112.0
310,226.66843732499999,226.994279875,72.0,100.0
311,227.005515825,227.117875325,70.0,112.0
312,227.342594325,227.94512214374998,67.0,100.0
313,228.353829825,228.43669495625,70.0,82.0
314,228.522369075,228.61647015625,70.0,78.0
315,228.69090832499998,228.84961611875,70.0,77.0
316,229.027986825,229.5757393875,77.0,102.0
317,229.702143825,230.7667500875,75.0,99.0
318,231.050457825,231.106637575,63.0,90.0
319,231.218997075,231.286412775,63.0,75.0
320,231.38753632499999,231.51534525625,63.0,117.0
321,231.724614825,232.30186175625,72.0,107.0
322,232.39877182499998,234.084164325,70.0,97.0
323,234.084164325,234.36084959375,58.0,107.0
324,234.421242825,234.72039999375,67.0,88.0
325,234.758321325,235.7274220125,65.0,102.0
326,235.769556825,235.9324781,65.0,102.0
327,236.10663532499998,236.52798345,65.0,97.0
328,236.780792325,237.14174721875,63.0,100.0
329,237.11787082499998,237.45354483124999,65.0,97.0
330,239.140341825,239.2049485375,70.0,112.0
331,237.454949325,239.32994848125,63.0,102.0
332,239.308881075,239.37489228125,70.0,93.0
333,239.477420325,239.61646520624998,70.0,107.0
334,239.814498825,240.207757075,77.0,100.0
335,240.488655825,241.22882403124999,75.0,112.0
336,241.83696982499998,241.91983495624999,63.0,99.0
337,242.005509075,242.08977869999998,63.0,72.0
338,242.174048325,242.31309320625,63.0,71.0
339,242.511126825,243.05185691875,72.0,102.0
340,243.185283825,244.23444065625,70.0,107.0
341,244.870676325,245.1487660875,58.0,112.0
342,245.207754825,245.54202433749998,67.0,100.0
343,245.713372575,246.5588778125,65.0,127.0
344,246.926855175,247.17825955625,65.0,107.0
345,247.365057225,248.81309028125,65.0,112.0
346,248.68528135,249.252696825,63.0,102.0
347,249.263932775,250.47179739999999,65.0,82.0
348,250.43387606874998,254.75690783125,63.0,97.0
