,start,end,pitch,velocity
0,0.825842325,1.1938196875,63.0,67.0
1,1.162920825,1.5758419875,51.0,33.0
2,1.4999993249999999,1.97331371875,63.0,66.0
3,0.488763825,2.20084170625,46.0,48.0
4,0.151685325,2.241572025,39.0,86.0
5,1.837077825,2.31320120625,51.0,43.0
6,2.174156325,2.57443704375,58.0,89.0
7,1.4999993249999999,2.8117964875,67.0,64.0
8,2.511234825,2.870785225,63.0,42.0
9,3.859548825,4.3146048,58.0,59.0
10,3.522470325,4.33005423125,62.0,71.0
11,4.533705825,4.86376185625,58.0,81.0
12,3.185391825,4.87218881875,53.0,42.0
13,4.196627325,4.9410090124999995,65.0,64.0
14,2.848313325,4.95926743125,46.0,68.0
15,4.196627325,5.4606717,70.0,67.0
16,5.207862825,5.544941325,65.0,44.0
17,4.870784325,5.6095480375,62.0,99.0
18,5.544941325,6.41713194375,36.0,63.0
19,5.8820198249999995,6.4297723875,43.0,60.0
20,6.219098325,6.887637349999999,63.0,83.0
21,6.219098325,6.89465981875,60.0,75.0
22,6.556176825,6.92555868125,55.0,56.0
23,7.230333825,8.005614375,53.0,42.0
24,7.567412325,8.061794125,58.0,78.0
25,6.893255325,8.0814570375,46.0,48.0
26,7.904490825,8.1797716,65.0,70.0
27,9.252804825,9.67274845625,58.0,76.0
28,8.915726325,9.825838275,55.0,72.0
29,9.926961825,10.13904038125,55.0,64.0
30,8.241569325,10.2696583,43.0,73.0
31,8.578647825,10.28510773125,50.0,55.0
32,9.589883325,10.8960625125,62.0,88.0
33,10.601118825,10.8988715,55.0,69.0
34,10.264040325,10.8988715,58.0,89.0
35,11.949432825,12.42555620625,60.0,61.0
36,11.612354325,12.44241013125,56.0,60.0
37,11.275275825,12.97049978125,51.0,53.0
38,10.938197324999999,12.9747132625,44.0,66.0
39,12.623589825,13.005612124999999,56.0,70.0
40,12.286511325,13.03510649375,63.0,90.0
41,12.286511325,13.44943215,68.0,96.0
42,13.297746824999999,13.54915120625,63.0,68.0
43,12.960668325,13.60813994375,60.0,93.0
44,13.971903825,14.03791503125,53.0,52.0
45,13.971903825,14.51544290625,51.0,82.0
46,14.308982325,15.0758359125,55.0,70.0
47,14.646060825,15.10813926875,51.0,54.0
48,13.634825325,15.455049225,39.0,90.0
49,15.320217825,15.595498599999999,51.0,81.0
50,14.983139325,15.74156595,58.0,92.0
51,14.983139325,16.1207792625,63.0,90.0
52,15.657296324999999,16.2893185125,55.0,69.0
53,15.994374825,16.30195895625,58.0,83.0
54,16.668531825,17.12499229375,53.0,42.0
55,17.174149575,17.28229559375,53.0,26.0
56,17.005610325,17.3904416125,62.0,75.0
57,17.005610325,17.40308205625,58.0,79.0
58,16.331453325,17.59128421875,46.0,88.0
59,17.679767325,18.33285691875,44.0,69.0
60,18.353924325,18.77105896875,41.0,58.0
61,20.039316825,20.532294131249998,55.0,54.0
62,19.702238325,20.56600198125,51.0,75.0
63,19.028081325,21.57723748125,39.0,68.0
64,19.365159825,21.74015875625,46.0,66.0
65,20.713473825,22.290720306249998,51.0,27.0
66,21.050552324999998,22.49015841875,55.0,65.0
67,20.376395325,22.81319198125,58.0,73.0
68,20.376395325,22.85532679375,63.0,81.0
69,21.724709325,24.21347225,39.0,58.0
70,22.061787825,24.2556070625,46.0,27.0
71,22.398866325,24.27948345625,51.0,56.0
72,22.735944825,24.64043835,55.0,46.0
73,23.073023325,25.07161793125,63.0,59.0
74,24.758415825,25.245775156249998,46.0,33.0
75,23.073023325,25.2893144625,58.0,48.0
76,24.421337325,25.3483032,39.0,59.0
77,25.432572825,25.50981998125,55.0,31.0
78,25.095494325,25.578640175,51.0,86.0
79,25.432572825,25.772460312499998,63.0,99.0
80,25.769651324999998,26.70363966875,46.0,77.0
81,26.443808325,26.71487561875,53.0,58.0
82,26.106729825,26.74015650625,50.0,64.0
83,26.443808325,27.127796781249998,62.0,72.0
84,26.780886825,27.1544821625,58.0,41.0
85,27.792122325,28.612346674999998,51.0,58.0
86,28.129200824999998,28.6769533875,55.0,37.0
87,27.455043825,29.32442500625,46.0,44.0
88,27.117965325,29.377795768749998,39.0,58.0
89,28.803357825,29.589874325,51.0,50.0
90,29.140436325,29.6938068625,58.0,66.0
91,28.466279325,29.803357375,63.0,96.0
92,29.477514825,29.81037984375,55.0,62.0
93,30.151671825,30.6488626125,56.0,57.0
94,29.814593325,31.0252669375,44.0,56.0
95,30.488750324999998,31.11094105625,63.0,78.0
96,30.825828825,31.18959270625,56.0,45.0
97,31.162907325,31.848300275,46.0,66.0
98,32.174142825,32.60532240625,65.0,49.0
99,31.499985825,32.61936734375,58.0,61.0
100,31.837064325,32.61936734375,62.0,66.0
101,33.185378325,34.06880489375,51.0,63.0
102,33.522456825,34.22891718125,55.0,57.0
103,32.511221325,35.01262469375,39.0,61.0
104,34.196613825,35.10813026875,51.0,69.0
105,34.533692325,35.1881864125,58.0,72.0
106,32.848299825,35.200826856249996,46.0,45.0
107,34.870770825,35.20925381875,55.0,58.0
108,33.859535324999996,35.223298756249996,63.0,93.0
109,35.544927825,36.2275117875,46.0,54.0
110,35.207849325,36.230320775,39.0,59.0
111,35.882006325,36.4578487625,51.0,86.0
112,36.219084824999996,36.61093858125,63.0,78.0
113,36.556163325,37.59127521875,46.0,67.0
114,37.230320325,37.59127521875,53.0,66.0
115,36.893241825,37.62217408125,50.0,54.0
116,37.567398825,38.0364997375,62.0,74.0
117,38.915712825,39.33565645625,55.0,54.0
118,38.578634324999996,39.36093734375,51.0,68.0
119,38.241555825,40.051948268749996,46.0,61.0
120,37.904477325,40.057566243749996,39.0,54.0
121,39.589869825,40.0702066875,51.0,45.0
122,39.252791325,40.0814426375,58.0,60.0
123,39.926948325,40.601105325,55.0,60.0
124,40.264026825,40.601105325,58.0,63.0
125,39.252791325,40.601105325,63.0,58.0
126,40.938183824999996,41.214869093749996,63.0,64.0
127,40.601105325,41.31037466875,48.0,60.0
128,40.938183824999996,41.32441960625,60.0,69.0
129,40.938183824999996,41.331442075,55.0,53.0
130,41.275262325,41.87498115625,46.0,53.0
131,41.612340825,41.938183375,58.0,51.0
132,41.612340825,41.97891369375,62.0,43.0
133,42.286497825,42.926946975,56.0,59.0
134,41.949419325,43.16149743125,44.0,76.0
135,42.960654825,43.2218906625,60.0,65.0
136,42.623576325,43.228913131249996,63.0,81.0
137,43.634811825,44.044924,58.0,64.0
138,44.308968825,44.79773265,58.0,59.0
139,43.971890325,44.82441803125,62.0,68.0
140,44.983125825,45.4634626875,58.0,67.0
141,43.297733324999996,45.89745125625,46.0,69.0
142,44.646047325,45.971889425,65.0,75.0
143,45.320204325,45.991552337499996,62.0,73.0
144,45.657282824999996,46.0982938625,58.0,59.0
145,46.331439825,46.81037219375,55.0,71.0
146,46.668518325,47.04492265,60.0,93.0
147,47.005596825,47.45643931875,55.0,74.0
148,47.342675325,47.882000925,63.0,112.0
149,48.016832324999996,48.58003431875,55.0,78.0
150,47.679753825,48.623573625,60.0,96.0
151,45.994361325,48.68396685625,48.0,86.0
152,49.365146325,50.23593245,55.0,95.0
153,49.702224825,50.3145841,62.0,76.0
154,50.376381824999996,50.70784235,55.0,63.0
155,49.028067825,50.758404125,50.0,45.0
156,50.039303325,50.790707481249996,67.0,96.0
157,48.690989325,51.342673525,43.0,68.0
158,50.039303325,51.4157072,70.0,112.0
159,51.050538825,51.4690779625,67.0,71.0
160,50.713460325,51.5645835375,62.0,60.0
161,52.061774325,52.45643706875,53.0,69.0
162,51.387617325,52.494358399999996,41.0,56.0
163,51.724695825,52.4971673875,48.0,57.0
164,52.398852825,52.72048189375,68.0,61.0
165,52.398852825,52.741549299999996,65.0,69.0
166,52.398852825,52.76261670625,60.0,59.0
167,52.904470575,53.6600882125,51.0,61.0
168,52.735931324999996,53.9016611375,39.0,83.0
169,53.410088325,54.10812171875,67.0,68.0
170,53.747166825,54.1207621625,63.0,61.0
171,55.095480824999996,55.56879521875,55.0,56.0
172,54.758402325,55.59407610625,48.0,53.0
173,54.421323825,55.9971658125,43.0,44.0
174,54.084245325,56.02946916875,36.0,72.0
175,55.769637825,56.196603925,48.0,64.0
176,55.432559325,56.280873549999995,60.0,77.0
177,56.106716325,56.77385085625,55.0,90.0
178,56.443794825,56.780873325,60.0,90.0
179,55.432559325,56.80755870625,63.0,79.0
180,57.455030324999996,58.185367075,56.0,100.0
181,57.792108825,58.31036701875,60.0,89.0
182,58.466265825,58.63059159375,56.0,85.0
183,57.117951825,58.68396235625,51.0,63.0
184,56.780873325,58.74576008125,44.0,93.0
185,58.129187325,58.8904229375,63.0,66.0
186,58.129187325,59.5084001875,68.0,112.0
187,58.803344325,59.532276581249995,60.0,92.0
188,59.140422825,59.550534999999996,63.0,90.0
189,60.151658325,60.9297478625,51.0,89.0
190,60.488736825,60.97328716875,55.0,70.0
191,59.814579824999996,61.264017375,46.0,64.0
192,59.477501325,61.43957909375,39.0,77.0
193,60.825815325,61.592668912499995,58.0,93.0
194,61.162893825,61.655871131249995,51.0,73.0
195,60.825815325,62.106713625,63.0,99.0
196,61.499972325,62.2246911,55.0,92.0
197,61.837050825,62.247163,58.0,66.0
198,63.185364825,63.69800504375,58.0,50.0
199,62.848286325,63.70362301875,53.0,63.0
200,62.511207825,64.12356665,50.0,52.0
201,63.859521825,64.13058911875,53.0,56.0
202,62.174129324999996,64.18115089375,46.0,76.0
203,63.522443325,64.92272359374999,62.0,69.0
204,64.196600325,64.960644925,58.0,72.0
205,65.544914325,66.33283531875,51.0,75.0
206,65.881992825,66.62777900625,55.0,37.0
207,64.702218075,67.4353629125,39.0,68.0
208,66.893228325,67.57440779375,58.0,58.0
209,65.207835825,67.578621275,46.0,44.0
210,66.556149825,67.58002576875,51.0,53.0
211,67.230306825,67.61935159375,55.0,52.0
212,66.219071325,67.62496956875,63.0,92.0
213,67.904463825,68.39182315625,46.0,33.0
214,67.567385325,68.4943512,39.0,59.0
215,68.578620825,68.65586798125,55.0,31.0
216,68.241542325,68.724688175,51.0,86.0
217,68.578620825,68.9185083125,63.0,99.0
218,68.915699325,69.84968766875,46.0,77.0
219,69.589856325,69.86092361875,53.0,58.0
220,69.252777825,69.88620450625,50.0,64.0
221,69.589856325,70.27384478125,62.0,72.0
222,69.926934825,70.3005301625,58.0,41.0
223,70.938170325,71.758394675,51.0,58.0
224,71.27524882499999,71.8230013875,55.0,37.0
225,70.601091825,72.47047300625,46.0,44.0
226,70.264013325,72.52384376875,39.0,58.0
227,71.949405825,72.735922325,51.0,50.0
228,72.286484325,72.8398548625,58.0,66.0
229,71.612327325,72.949405375,63.0,96.0
230,72.623562825,72.95642784374999,55.0,62.0
231,73.297719825,73.7949106125,56.0,57.0
232,72.960641325,74.1713149375,44.0,56.0
233,73.63479832499999,74.25698905624999,63.0,78.0
234,73.971876825,74.33564070625,56.0,45.0
235,74.308955325,74.994348275,46.0,66.0
236,75.320190825,75.75137040625,65.0,49.0
237,74.646033825,75.76541534374999,58.0,61.0
238,74.983112325,75.76541534374999,62.0,66.0
239,76.331426325,77.21485289374999,51.0,63.0
240,76.668504825,77.37496518125,55.0,57.0
241,75.657269325,78.15867269374999,39.0,61.0
242,77.342661825,78.25417826875,51.0,69.0
243,77.679740325,78.3342344125,58.0,72.0
244,75.99434782499999,78.34687485625,46.0,45.0
245,78.016818825,78.35530181875,55.0,58.0
246,77.005583325,78.36934675625,63.0,93.0
247,78.690975825,79.3735597875,46.0,54.0
248,78.35389732499999,79.376368775,39.0,59.0
249,79.028054325,79.6038967625,51.0,86.0
250,79.365132825,79.75698658125,63.0,78.0
251,79.702211325,80.73732321874999,46.0,67.0
252,80.376368325,80.73732321874999,53.0,66.0
253,80.039289825,80.76822208125,50.0,54.0
254,80.71344682499999,81.1825477375,62.0,74.0
255,82.061760825,82.48170445625,55.0,54.0
256,81.724682325,82.50698534375,51.0,68.0
257,81.387603825,83.19799626875,46.0,61.0
258,81.050525325,83.20361424375,39.0,54.0
259,82.735917825,83.2162546875,51.0,45.0
260,82.398839325,83.2274906375,58.0,60.0
261,83.07299632499999,83.747153325,55.0,60.0
262,83.410074825,83.747153325,58.0,63.0
263,82.398839325,83.747153325,63.0,58.0
264,84.084231825,84.36091709375,63.0,64.0
265,83.747153325,84.45642266875,48.0,60.0
266,84.084231825,84.47046760625,60.0,69.0
267,84.084231825,84.47749007499999,55.0,53.0
268,84.421310325,85.02102915625,46.0,53.0
269,84.758388825,85.084231375,58.0,51.0
270,84.758388825,85.12496169375,62.0,43.0
271,85.43254582499999,86.072994975,56.0,59.0
272,85.095467325,86.30754543124999,44.0,76.0
273,86.106702825,86.3679386625,60.0,65.0
274,85.769624325,86.37496113125,63.0,81.0
275,86.780859825,87.190972,58.0,64.0
276,87.455016825,87.94378065,58.0,59.0
277,87.117938325,87.97046603125,62.0,68.0
278,88.129173825,88.60951068749999,58.0,67.0
279,86.443781325,89.04349925625,46.0,69.0
280,87.79209532499999,89.117937425,65.0,75.0
281,88.466252325,89.1376003375,62.0,73.0
282,88.803330825,89.2443418625,58.0,59.0
283,89.477487825,89.95642019374999,55.0,71.0
284,89.814566325,90.19097065,60.0,93.0
285,90.15164482499999,90.60248731875,55.0,74.0
286,90.488723325,91.028048925,63.0,112.0
287,91.162880325,91.72608231875,55.0,78.0
288,90.825801825,91.769621625,60.0,96.0
289,89.140409325,91.83001485625,48.0,86.0
290,92.51119432499999,93.38198045,55.0,95.0
291,92.848272825,93.4606321,62.0,76.0
292,93.522429825,93.85389035,55.0,63.0
293,92.174115825,93.90445212499999,50.0,45.0
294,93.185351325,93.93675548125,67.0,96.0
295,91.837037325,94.488721525,43.0,68.0
296,93.185351325,94.5617552,70.0,112.0
297,94.196586825,94.6151259625,67.0,71.0
298,93.859508325,94.71063153749999,62.0,60.0
299,95.207822325,95.60248506875,53.0,69.0
300,94.533665325,95.6404064,41.0,56.0
301,94.87074382499999,95.64321538749999,48.0,57.0
302,95.544900825,95.86652989375,68.0,61.0
303,95.544900825,95.8875973,65.0,69.0
304,95.544900825,95.90866470625,60.0,59.0
305,96.050518575,96.8061362125,51.0,61.0
306,95.881979325,97.0477091375,39.0,83.0
307,96.556136325,97.25416971874999,67.0,68.0
308,96.893214825,97.2668101625,63.0,61.0
309,98.241528825,98.71484321875,55.0,56.0
310,97.904450325,98.74012410625,48.0,53.0
311,97.567371825,99.1432138125,43.0,44.0
312,97.23029332499999,99.17551716874999,36.0,72.0
313,98.915685825,99.342651925,48.0,64.0
314,98.578607325,99.42692155,60.0,77.0
315,99.252764325,99.91989885625,55.0,90.0
316,99.58984282499999,99.926921325,60.0,90.0
317,98.578607325,99.95360670625,63.0,79.0
318,100.601078325,101.331415075,56.0,100.0
319,100.938156825,101.45641501875,60.0,89.0
320,101.612313825,101.77663959374999,56.0,85.0
321,100.263999825,101.83001035625,51.0,63.0
322,99.926921325,101.89180808124999,44.0,93.0
323,101.275235325,102.0364709375,63.0,66.0
324,101.275235325,102.6544481875,68.0,112.0
325,101.94939232499999,102.67832458125,60.0,92.0
326,102.286470825,102.696583,63.0,90.0
327,103.297706325,104.0757958625,51.0,89.0
328,103.634784825,104.11933516875,55.0,70.0
329,102.960627825,104.410065375,46.0,64.0
330,102.623549325,104.58562709374999,39.0,77.0
331,103.971863325,104.7387169125,58.0,93.0
332,104.30894182499999,104.80191913125,51.0,73.0
333,103.971863325,105.25276162499999,63.0,99.0
334,104.646020325,105.3707391,55.0,92.0
335,104.983098825,105.393211,58.0,66.0
336,106.331412825,106.84405304375,58.0,50.0
337,105.994334325,106.84967101875,53.0,63.0
338,105.657255825,107.26961465,50.0,52.0
339,107.005569825,107.27663711875,53.0,56.0
340,105.320177325,107.32719889375,46.0,76.0
341,106.66849132499999,108.06877159375,62.0,69.0
342,107.342648325,108.106692925,58.0,72.0
343,108.690962325,109.47888331875,51.0,75.0
344,109.02804082499999,109.77382700625,55.0,37.0
345,107.848266075,110.5814109125,39.0,68.0
346,110.039276325,110.72045579374999,58.0,58.0
347,108.353883825,110.724669275,46.0,44.0
348,109.702197825,110.72607376875,51.0,53.0
349,110.37635482499999,110.76539959375,55.0,52.0
350,109.365119325,110.77101756875,63.0,92.0
351,110.713433325,111.50275881249999,39.0,44.0
352,111.050511825,111.5701745125,46.0,57.0
353,111.724668825,111.87775864375,39.0,74.0
354,111.38759032499999,112.18674726875,58.0,88.0
355,111.38759032499999,112.22045511875,63.0,76.0
356,111.38759032499999,112.2218596125,55.0,73.0
357,112.061747325,112.79770205,39.0,82.0
358,112.398825825,112.84685933125,55.0,72.0
359,112.73590432499999,113.31455575,63.0,107.0
360,112.73590432499999,113.3960163875,58.0,85.0
361,113.072982825,113.40444335,55.0,76.0
362,113.410061325,114.23169016874999,46.0,100.0
363,113.74713982499999,114.25135308125,50.0,57.0
364,114.421296825,114.57579113749999,46.0,73.0
365,114.084218325,114.8566898875,58.0,112.0
366,114.084218325,114.86652134375,65.0,76.0
367,114.084218325,114.8791617875,62.0,89.0
368,114.758375325,115.58562214375,46.0,93.0
369,115.09545382499999,115.62494796874999,65.0,63.0
370,115.09545382499999,115.62916145,58.0,86.0
371,115.09545382499999,115.63477942499999,62.0,78.0
372,115.769610825,116.0589365375,65.0,59.0
373,115.769610825,116.1375881875,62.0,72.0
374,115.769610825,116.1937679375,58.0,90.0
375,116.10668932499999,116.949385575,36.0,72.0
376,117.117924825,117.25416071875,36.0,86.0
377,116.780846325,117.58421675,55.0,67.0
378,116.780846325,117.60387966249999,63.0,92.0
379,116.780846325,117.6094976375,60.0,88.0
380,117.792081825,118.13899178125,55.0,85.0
381,117.45500332499999,118.1600591875,36.0,83.0
382,117.792081825,118.331407425,60.0,102.0
383,117.792081825,118.3370254,63.0,112.0
384,118.46623882499999,118.7415196,63.0,90.0
385,118.129160325,118.77382295625,48.0,61.0
386,118.46623882499999,118.780845425,55.0,75.0
387,118.46623882499999,118.792081375,60.0,95.0
388,118.803317325,119.646013575,43.0,69.0
389,119.140395825,119.67550794374999,50.0,72.0
390,119.81455282499999,119.94236175625,43.0,77.0
391,119.477474325,120.275226775,62.0,95.0
392,119.477474325,120.27663126875,58.0,112.0
393,120.488709825,120.735900725,55.0,89.0
394,120.488709825,120.74011420625,62.0,86.0
395,120.488709825,120.75275465,58.0,107.0
396,120.151631325,120.960619725,43.0,99.0
397,120.82578832499999,121.455001525,58.0,102.0
398,120.82578832499999,121.47325994375,62.0,93.0
399,121.162866825,121.477473425,55.0,86.0
400,121.837023825,122.3173606875,51.0,26.0
401,121.499945325,122.34966404375,44.0,83.0
402,122.17410232499999,123.04488845,63.0,100.0
403,122.17410232499999,123.59123651875,60.0,86.0
404,123.18533782499999,123.61651740625,51.0,40.0
405,123.522416325,123.6825286125,56.0,83.0
406,122.511180825,123.75977576875,44.0,82.0
407,123.859494825,124.41707884374999,60.0,93.0
408,123.522416325,124.4269103,68.0,122.0
409,123.18533782499999,124.4718541,63.0,112.0
410,124.196573325,125.06595495625,39.0,74.0
411,124.870730325,125.11932571874999,51.0,72.0
412,124.53365182499999,125.1488200875,46.0,55.0
413,125.207808825,125.3566851625,39.0,79.0
414,124.870730325,126.05190956874999,58.0,112.0
415,124.870730325,126.07157248125,55.0,74.0
416,125.54488732499999,126.5139880125,39.0,93.0
417,125.881965825,126.5308419375,51.0,90.0
418,126.219044325,126.88056088124999,58.0,112.0
419,126.219044325,126.89460581875,63.0,112.0
420,126.556122825,126.90865075625,55.0,92.0
421,126.89320132499999,127.702189725,41.0,85.0
422,127.230279825,127.74572903125,48.0,59.0
423,127.90443682499999,128.05612215,41.0,64.0
424,127.567358325,128.780840925,60.0,97.0
425,127.567358325,128.7892678875,57.0,93.0
426,128.57859382499998,129.29207664999998,48.0,66.0
427,128.241515325,129.29629013125,41.0,69.0
428,128.915672325,129.5308405875,53.0,78.0
429,128.915672325,129.57999786874998,65.0,88.0
430,128.915672325,129.60808774375,60.0,99.0
431,129.252750825,129.69797534375,57.0,82.0
432,130.095447075,130.16848075,63.0,18.0
433,129.926907825,130.41567165,50.0,72.0
434,129.589829325,130.44797500625,46.0,99.0
435,130.601064825,130.72887375625,46.0,112.0
436,130.263986325,130.78505350625,65.0,86.0
437,130.263986325,130.97746915,53.0,96.0
438,130.263986325,130.98168263125,62.0,89.0
439,130.263986325,130.99572756875,58.0,102.0
440,130.938143325,131.0252219375,65.0,31.0
441,131.275221825,131.44235658125,70.0,102.0
442,131.275221825,131.47887341875,58.0,117.0
443,131.612300325,131.77100811875,72.0,96.0
444,131.612300325,131.77943508125,60.0,100.0
445,130.938143325,132.09404168125,46.0,117.0
446,131.949378825,132.2443225125,74.0,112.0
447,131.949378825,132.252749475,62.0,100.0
448,132.623535825,133.1431985125,51.0,78.0
449,132.286457325,133.16426591875,39.0,96.0
450,133.29769282499998,133.43111973125,39.0,75.0
451,132.960614325,134.10527673125,58.0,102.0
452,132.960614325,134.13055761875,63.0,107.0
453,133.634771325,134.40302940625,39.0,82.0
454,133.971849825,134.606681,51.0,81.0
455,134.308928325,134.7499393625,63.0,100.0
456,134.308928325,135.00134374375,58.0,99.0
457,134.646006825,135.06595045625,55.0,93.0
458,134.983085325,135.78505125625,46.0,97.0
459,135.320163825,135.80611866249998,50.0,53.0
460,135.994320825,136.0898264,50.0,47.0
461,135.994320825,136.09965785625,53.0,63.0
462,135.994320825,136.10527583125,46.0,60.0
463,135.657242325,136.51538800625,58.0,102.0
464,135.657242325,136.5870171875,62.0,89.0
465,135.657242325,136.6094890875,65.0,75.0
466,136.331399325,137.00415183125,53.0,74.0
467,136.331399325,137.04066866875,46.0,66.0
468,136.668477825,137.10246639375,58.0,83.0
469,137.005556325,137.75415149375,65.0,92.0
470,137.005556325,137.79066833125,62.0,83.0
471,137.342634825,138.01257834375,58.0,97.0
472,137.679713325,138.52802755,36.0,77.0
473,138.01679182499998,138.5757803375,43.0,43.0
474,138.690948825,138.8061173125,36.0,83.0
475,138.353870325,139.33842044375,55.0,73.0
476,138.353870325,139.3931957,60.0,83.0
477,138.353870325,139.4016226625,63.0,92.0
478,139.028027325,139.7948809125,36.0,85.0
479,139.365105825,139.89179098124998,43.0,73.0
480,139.702184325,140.39740873125,63.0,97.0
481,139.702184325,140.40864468125,60.0,89.0
482,140.039262825,140.43813905,55.0,88.0
483,140.376341325,141.23729599375,43.0,75.0
484,140.713419825,141.33280156875,50.0,59.0
485,141.387576825,141.52100373125,43.0,85.0
486,141.050498325,141.93392489375,62.0,92.0
487,141.050498325,141.97886869375,58.0,99.0
488,141.724655325,142.40021681875,43.0,83.0
489,142.061733825,142.48308194999998,55.0,93.0
490,142.398812325,143.06594685625,62.0,93.0
491,142.73589082499998,143.06875584374998,55.0,81.0
492,142.398812325,143.06875584374998,58.0,102.0
493,143.072969325,143.870721775,44.0,92.0
494,143.747126325,144.07156438125,56.0,83.0
495,143.410047825,144.11650818125,51.0,36.0
496,144.084204825,144.22044071874998,44.0,86.0
497,143.747126325,144.93251905,63.0,97.0
498,143.747126325,145.00976620625,60.0,81.0
499,144.758361825,145.11369874375,56.0,93.0
500,144.421283325,145.21482229375,44.0,96.0
501,145.095440325,145.71201308125,68.0,112.0
502,145.095440325,145.74010295624998,63.0,112.0
503,145.432518825,145.7724063125,60.0,86.0
504,145.769597325,146.62212503125,39.0,89.0
505,146.106675825,146.64881041249998,51.0,71.0
506,146.780832825,146.89459681875,39.0,95.0
507,146.443754325,147.17268658125,55.0,59.0
508,146.443754325,147.59122571875,63.0,100.0
509,146.443754325,147.5982481875,58.0,107.0
510,147.117911325,147.9240907375,39.0,96.0
511,147.45498982499998,147.98729295625,51.0,93.0
512,147.792068325,148.432517475,58.0,112.0
513,148.129146825,148.4493714,55.0,92.0
514,147.792068325,148.4634163375,63.0,117.0
515,148.466225325,149.286449675,46.0,102.0
516,148.803303825,149.3004946125,50.0,66.0
517,149.477460825,149.61369671875,46.0,86.0
518,149.140382325,149.84965166875,65.0,71.0
519,149.140382325,149.86369660625,62.0,78.0
520,149.140382325,149.87774154375,58.0,89.0
521,149.814539325,150.6516176,46.0,85.0
522,150.151617825,150.7330782375,65.0,55.0
523,150.151617825,150.75414564375,53.0,78.0
524,150.151617825,150.75414564375,62.0,86.0
525,150.151617825,150.7639771,58.0,93.0
526,150.825774825,151.13757243749998,65.0,52.0
527,150.825774825,151.16425781875,62.0,75.0
528,150.825774825,151.1684713,53.0,71.0
529,150.825774825,151.1825162375,58.0,82.0
530,151.837010325,151.9971226125,51.0,40.0
531,151.499931825,151.9999316,46.0,27.0
532,151.162853325,152.005549575,39.0,76.0
533,152.17408882499998,152.32156066875,39.0,86.0
534,151.837010325,152.63335828125,55.0,74.0
535,151.837010325,152.645998725,58.0,96.0
536,151.837010325,152.6656616375,63.0,86.0
537,152.848245825,153.38335794374998,55.0,74.0
538,152.848245825,153.398807375,58.0,107.0
539,152.848245825,153.40582984374998,63.0,96.0
540,152.511167325,153.707796,39.0,86.0
541,153.522402825,153.78644764999999,55.0,72.0
542,153.522402825,153.7948746125,58.0,90.0
543,153.522402825,153.84403189374999,63.0,88.0
544,154.196559825,154.70077308125,51.0,52.0
545,153.859481325,154.70498656249998,39.0,90.0
546,154.533638325,154.89740220625,67.0,93.0
547,154.533638325,154.92830106875,70.0,99.0
548,154.870716825,155.21762678125,39.0,90.0
549,155.544873825,155.99431182499998,53.0,53.0
550,155.207795325,156.4493678,46.0,95.0
551,155.881952325,156.48728913125,62.0,93.0
552,156.219030825,156.5617273,53.0,77.0
553,155.881952325,156.58560369375,58.0,93.0
554,156.556109325,157.40021006875,39.0,71.0
555,156.89318782499998,157.42268196875,51.0,82.0
556,157.567344825,157.69515375625,39.0,89.0
557,157.230266325,158.39740063125,55.0,71.0
558,157.230266325,158.40863658125,58.0,95.0
559,157.230266325,158.41987253125,63.0,86.0
560,157.904423325,158.72605216875,39.0,100.0
561,158.241501825,158.971838575,51.0,97.0
562,158.578580325,159.129141875,58.0,112.0
563,158.578580325,159.22043396875,63.0,112.0
564,158.915658825,159.24571485625,55.0,79.0
565,159.252737325,159.45357993125,44.0,68.0
566,159.589815825,160.44515251875,44.0,82.0
567,159.926894325,160.56312999375,60.0,93.0
568,159.926894325,160.59824233749998,63.0,96.0
569,160.263972825,160.6094782875,56.0,90.0
570,160.601051325,160.71762430625,46.0,86.0
571,160.938129825,161.572961,46.0,96.0
572,161.275208325,161.95357880625,62.0,89.0
573,161.61228682499998,161.96481475625,53.0,78.0
574,161.275208325,162.02942146875,58.0,95.0
575,162.286443825,162.7499267625,51.0,78.0
576,161.949365325,162.75414024375,39.0,81.0
577,162.960600825,163.0926232375,39.0,85.0
578,162.623522325,163.769589225,58.0,92.0
579,162.623522325,163.7836341625,55.0,68.0
580,162.623522325,163.7892521375,63.0,86.0
581,163.297679325,164.50133046874998,39.0,97.0
582,163.634757825,164.55189224375,51.0,96.0
583,164.308914825,164.66425174375,55.0,92.0
584,163.971836325,164.67548769375,58.0,122.0
585,163.971836325,164.67548769375,63.0,122.0
586,164.645993325,165.45076824375,39.0,99.0
587,164.983071825,165.45357723125,51.0,72.0
588,165.320150325,165.8229590875,58.0,107.0
589,165.320150325,165.8341950375,63.0,97.0
590,165.320150325,165.87492535625,55.0,79.0
591,165.657228825,166.03784663125,39.0,99.0
592,166.33138582499998,166.75273395,53.0,63.0
593,165.994307325,166.971834975,46.0,72.0
594,166.668464325,167.2583517,62.0,96.0
595,167.005542825,167.33700335,53.0,82.0
596,166.668464325,167.35947525,58.0,95.0
597,167.342621325,167.44795835624998,39.0,93.0
598,167.679699825,168.68110386875,39.0,93.0
599,168.016778325,168.79486786249998,51.0,64.0
600,168.016778325,169.1881261125,58.0,99.0
601,168.353856825,169.20357554375,55.0,70.0
602,168.016778325,169.20778902499998,63.0,99.0
603,168.690935325,169.3622833375,39.0,79.0
604,169.028013825,169.85526064375,51.0,86.0
605,169.365092325,169.95919318125,58.0,100.0
606,169.365092325,170.00975495625,63.0,100.0
607,169.702170825,170.028013375,55.0,81.0
608,170.376327825,170.63475467499998,56.0,75.0
609,170.039249325,170.91284443749998,44.0,96.0
610,171.05048482499998,171.2049791375,44.0,78.0
611,170.713406325,171.47323744375,60.0,93.0
612,170.713406325,171.5195857375,56.0,64.0
613,170.713406325,171.5308216875,63.0,107.0
614,171.724641825,171.9971136125,56.0,66.0
615,172.061720325,172.6487987125,60.0,82.0
616,171.387563325,172.657225675,44.0,95.0
617,172.061720325,172.6993604875,63.0,95.0
618,172.398798825,172.7218323875,56.0,86.0
619,172.735877325,173.57997806875,46.0,93.0
620,173.747112825,173.8678992875,46.0,122.0
621,173.410034325,174.27239348749998,58.0,112.0
622,173.410034325,174.286438425,62.0,102.0
623,173.072955825,174.3004833625,53.0,78.0
624,174.421269825,174.6937416125,62.0,96.0
625,174.421269825,174.70076408125,58.0,107.0
626,174.421269825,174.70357306875,53.0,89.0
627,174.758348325,174.98166283125,62.0,93.0
628,174.758348325,174.983067325,53.0,63.0
629,174.758348325,174.994303275,58.0,100.0
630,175.095426825,175.39177500625,58.0,112.0
631,175.095426825,175.398797475,53.0,86.0
632,175.095426825,175.432505325,62.0,100.0
633,174.084191325,175.43390981875,46.0,99.0
634,175.76958382499998,176.24851619375,55.0,71.0
635,176.106662325,176.48306664999998,60.0,93.0
636,176.443740825,176.89458331875,55.0,74.0
637,176.780819325,177.320144925,63.0,112.0
638,177.454976325,178.01817831875,55.0,78.0
639,177.117897825,178.061717625,60.0,96.0
640,175.432505325,178.12211085625,48.0,86.0
641,178.803290325,179.67407645,55.0,95.0
642,179.140368825,179.75272809999998,62.0,76.0
643,179.814525825,180.14598635,55.0,63.0
644,178.466211825,180.196548125,50.0,45.0
645,179.47744732499999,180.22885148125,67.0,96.0
646,178.129133325,180.780817525,43.0,68.0
647,179.47744732499999,180.8538512,70.0,112.0
648,180.48868282499998,180.9072219625,67.0,71.0
649,180.151604325,181.0027275375,62.0,60.0
650,181.499918325,181.89458106875,53.0,69.0
651,180.825761325,181.9325024,41.0,56.0
652,181.162839825,181.9353113875,48.0,57.0
653,181.836996825,182.15862589374998,68.0,61.0
654,181.836996825,182.1796933,65.0,69.0
655,181.836996825,182.20076070625,60.0,59.0
656,182.342614575,183.0982322125,51.0,61.0
657,182.174075325,183.3398051375,39.0,83.0
658,182.848232325,183.54626571875,67.0,68.0
659,183.185310825,183.5589061625,63.0,61.0
660,184.533624825,185.00693921875,55.0,56.0
661,184.19654632499999,185.03222010625,48.0,53.0
662,183.859467825,185.4353098125,43.0,44.0
663,183.522389325,185.46761316875,36.0,72.0
664,185.20778182499998,185.634747925,48.0,64.0
665,184.870703325,185.71901755,60.0,77.0
666,185.544860325,186.21199485625,55.0,90.0
667,185.881938825,186.219017325,60.0,90.0
668,184.870703325,186.24570270625,63.0,79.0
669,186.893174325,187.62351107499998,56.0,100.0
670,187.230252825,187.74851101875,60.0,89.0
671,187.904409825,188.06873559375,56.0,85.0
672,186.556095825,188.12210635625,51.0,63.0
673,186.219017325,188.18390408125,44.0,93.0
674,187.567331325,188.3285669375,63.0,66.0
675,187.567331325,188.9465441875,68.0,112.0
676,188.241488325,188.97042058124998,60.0,92.0
677,188.578566825,188.988679,63.0,90.0
678,189.589802325,190.3678918625,51.0,89.0
679,189.92688082499998,190.41143116875,55.0,70.0
680,189.252723825,190.702161375,46.0,64.0
681,188.91564532499999,190.87772309375,39.0,77.0
682,190.263959325,191.03081291249998,58.0,93.0
683,190.601037825,191.09401513125,51.0,73.0
684,190.263959325,191.544857625,63.0,99.0
685,190.938116325,191.6628351,55.0,92.0
686,191.275194825,191.685307,58.0,66.0
687,192.623508825,193.13614904375,58.0,50.0
688,192.286430325,193.14176701875,53.0,63.0
689,191.949351825,193.56171065,50.0,52.0
690,193.297665825,193.56873311875,53.0,56.0
691,191.612273325,193.61929489375,46.0,76.0
692,192.960587325,194.36086759375,62.0,69.0
693,193.63474432499999,194.398788925,58.0,72.0
694,194.983058325,195.77097931875,51.0,75.0
695,195.320136825,196.06592300625,55.0,37.0
696,194.14036207499998,196.8735069125,39.0,68.0
697,196.331372325,197.01255179375,58.0,58.0
698,194.64597982499998,197.01676527499998,46.0,44.0
699,195.994293825,197.01816976875,51.0,53.0
700,196.668450825,197.05749559375,55.0,52.0
701,195.657215325,197.06311356875,63.0,92.0
702,197.005529325,197.7948548125,39.0,44.0
703,197.342607825,197.8622705125,46.0,57.0
704,198.016764825,198.16985464375,39.0,74.0
705,197.679686325,198.47884326874998,58.0,88.0
706,197.679686325,198.51255111875,63.0,76.0
707,197.679686325,198.51395561249998,55.0,73.0
708,198.35384332499999,199.08979804999998,39.0,82.0
709,198.690921825,199.13895533125,55.0,72.0
710,199.028000325,199.60665175,63.0,107.0
711,199.028000325,199.68811238749998,58.0,85.0
712,199.36507882499998,199.69653935,55.0,76.0
713,199.702157325,200.52378616875,46.0,100.0
714,200.039235825,200.54344908125,50.0,57.0
715,200.713392825,200.8678871375,46.0,73.0
716,200.376314325,201.1487858875,58.0,112.0
717,200.376314325,201.15861734375,65.0,76.0
718,200.376314325,201.1712577875,62.0,89.0
719,201.050471325,201.87771814375,46.0,93.0
720,201.387549825,201.91704396875,65.0,63.0
721,201.387549825,201.92125744999998,58.0,86.0
722,201.387549825,201.926875425,62.0,78.0
723,202.061706825,202.3510325375,65.0,59.0
724,202.061706825,202.4296841875,62.0,72.0
725,202.061706825,202.4858639375,58.0,90.0
726,202.398785325,203.241481575,36.0,72.0
727,203.410020825,203.54625671875,36.0,86.0
728,203.07294232499999,203.87631274999998,55.0,67.0
729,203.07294232499999,203.8959756625,63.0,92.0
730,203.07294232499999,203.90159363749999,60.0,88.0
731,204.08417782499998,204.43108778125,55.0,85.0
732,203.747099325,204.45215518749998,36.0,83.0
733,204.08417782499998,204.623503425,60.0,102.0
734,204.08417782499998,204.6291214,63.0,112.0
735,204.758334825,205.0336156,63.0,90.0
736,204.421256325,205.06591895625,48.0,61.0
737,204.758334825,205.07294142499998,55.0,75.0
738,204.758334825,205.084177375,60.0,95.0
739,205.095413325,205.938109575,43.0,69.0
740,205.432491825,205.96760394375,50.0,72.0
741,206.106648825,206.23445775625,43.0,77.0
742,205.769570325,206.567322775,62.0,95.0
743,205.769570325,206.56872726875,58.0,112.0
744,206.780805825,207.027996725,55.0,89.0
745,206.780805825,207.03221020625,62.0,86.0
746,206.780805825,207.04485065,58.0,107.0
747,206.443727325,207.252715725,43.0,99.0
748,207.117884325,207.747097525,58.0,102.0
749,207.117884325,207.76535594375,62.0,93.0
750,207.454962825,207.769569425,55.0,86.0
751,208.129119825,208.6094566875,51.0,26.0
752,207.79204132499999,208.64176004375,44.0,83.0
753,208.466198325,209.33698445,63.0,100.0
754,208.466198325,209.88333251875,60.0,86.0
755,209.477433825,209.90861340625,51.0,40.0
756,209.81451232499998,209.9746246125,56.0,83.0
757,208.80327682499998,210.05187176875,44.0,82.0
758,210.151590825,210.70917484375,60.0,93.0
759,209.81451232499998,210.7190063,68.0,122.0
760,209.477433825,210.7639501,63.0,112.0
761,210.488669325,211.35805095625,39.0,74.0
762,211.162826325,211.41142171875,51.0,72.0
763,210.825747825,211.4409160875,46.0,55.0
764,211.499904825,211.6487811625,39.0,79.0
765,211.162826325,212.34400556875,58.0,112.0
766,211.162826325,212.36366848125,55.0,74.0
767,211.836983325,212.8060840125,39.0,93.0
768,212.174061825,212.8229379375,51.0,90.0
769,212.51114032499999,213.17265688125,58.0,112.0
770,212.51114032499999,213.18670181875,63.0,112.0
771,212.848218825,213.20074675625,55.0,92.0
772,213.185297325,213.994285725,41.0,85.0
773,213.52237582499998,214.03782503125,48.0,59.0
774,214.196532825,214.34821815,41.0,64.0
775,213.859454325,215.072936925,60.0,97.0
776,213.859454325,215.0813638875,57.0,93.0
777,214.870689825,215.58417265,48.0,66.0
778,214.53361132499998,215.58838613125,41.0,69.0
779,215.207768325,215.82293658749998,53.0,78.0
780,215.207768325,215.87209386875,65.0,88.0
781,215.207768325,215.90018374375,60.0,99.0
782,215.544846825,215.99007134375,57.0,82.0
783,216.387543075,216.46057675,63.0,18.0
784,216.219003825,216.70776765,50.0,72.0
785,215.881925325,216.74007100625,46.0,99.0
786,216.893160825,217.02096975625,46.0,112.0
787,216.556082325,217.07714950625,65.0,86.0
788,216.556082325,217.26956515,53.0,96.0
789,216.556082325,217.27377863125,62.0,89.0
790,216.556082325,217.28782356874999,58.0,102.0
791,217.23023932499999,217.3173179375,65.0,31.0
792,217.567317825,217.73445258125,70.0,102.0
793,217.567317825,217.77096941874998,58.0,117.0
794,217.904396325,218.06310411875,72.0,96.0
795,217.904396325,218.07153108125,60.0,100.0
796,217.23023932499999,218.38613768125,46.0,117.0
797,218.24147482499998,218.5364185125,74.0,112.0
798,218.24147482499998,218.544845475,62.0,100.0
799,218.915631825,219.4352945125,51.0,78.0
800,218.578553325,219.45636191875,39.0,96.0
801,219.589788825,219.72321573125,39.0,75.0
802,219.25271032499998,220.39737273125,58.0,102.0
803,219.25271032499998,220.42265361875,63.0,107.0
804,219.926867325,220.69512540624999,39.0,82.0
805,220.263945825,220.898777,51.0,81.0
806,220.601024325,221.0420353625,63.0,100.0
807,220.601024325,221.29343974374999,58.0,99.0
808,220.938102825,221.35804645625,55.0,93.0
809,221.275181325,222.07714725625,46.0,97.0
810,221.612259825,222.0982146625,50.0,53.0
811,222.286416825,222.3819224,50.0,47.0
812,222.286416825,222.39175385625,53.0,63.0
813,222.286416825,222.39737183124998,46.0,60.0
814,221.94933832499999,222.80748400625,58.0,102.0
815,221.94933832499999,222.8791131875,62.0,89.0
816,221.94933832499999,222.9015850875,65.0,75.0
817,222.623495325,223.29624783124999,53.0,74.0
818,222.623495325,223.33276466875,46.0,66.0
819,222.96057382499998,223.39456239375,58.0,83.0
820,223.297652325,224.04624749375,65.0,92.0
821,223.297652325,224.08276433125,62.0,83.0
822,223.634730825,224.30467434375,58.0,97.0
823,223.97180932499998,224.82012355,36.0,77.0
824,224.308887825,224.8678763375,43.0,43.0
825,224.983044825,225.0982133125,36.0,83.0
826,224.645966325,225.63051644375,55.0,73.0
827,224.645966325,225.6852917,60.0,83.0
828,224.645966325,225.6937186625,63.0,92.0
829,225.320123325,226.0869769125,36.0,85.0
830,225.657201825,226.18388698125,43.0,73.0
831,225.994280325,226.68950473125,63.0,97.0
832,225.994280325,226.70074068124998,60.0,89.0
833,226.331358825,226.73023505,55.0,88.0
834,226.66843732499999,227.52939199374998,43.0,75.0
835,227.005515825,227.62489756875,50.0,59.0
836,227.67967282499998,227.81309973125,43.0,85.0
837,227.342594325,228.22602089375,62.0,92.0
838,227.342594325,228.27096469375,58.0,99.0
839,228.016751325,228.69231281875,43.0,83.0
840,228.353829825,228.77517795,55.0,93.0
841,228.69090832499998,229.35804285625,62.0,93.0
842,229.027986825,229.36085184375,55.0,81.0
843,228.69090832499998,229.36085184375,58.0,102.0
844,229.365065325,230.162817775,44.0,92.0
845,230.039222325,230.36366038124999,56.0,83.0
846,229.702143825,230.40860418124998,51.0,36.0
847,230.376300825,230.51253671875,44.0,86.0
848,230.039222325,231.22461504999998,63.0,97.0
849,230.039222325,231.30186220625,60.0,81.0
850,231.050457825,231.40579474375,56.0,93.0
851,230.713379325,231.50691829375,44.0,96.0
852,231.38753632499999,232.00410908125,68.0,112.0
853,231.38753632499999,232.03219895625,63.0,112.0
854,231.724614825,232.0645023125,60.0,86.0
855,232.061693325,232.91422103125,39.0,89.0
856,232.39877182499998,232.9409064125,51.0,71.0
857,233.072928825,233.18669281875,39.0,95.0
858,232.735850325,233.46478258125,55.0,59.0
859,232.735850325,233.88332171874998,63.0,100.0
860,232.735850325,233.8903441875,58.0,107.0
861,233.41000732499998,234.21618673749998,39.0,96.0
862,233.747085825,234.27938895625,51.0,93.0
863,234.084164325,234.72461347499998,58.0,112.0
864,234.421242825,234.7414674,55.0,92.0
865,234.084164325,234.7555123375,63.0,117.0
866,234.758321325,235.578545675,46.0,102.0
867,235.095399825,235.5925906125,50.0,66.0
868,235.769556825,235.90579271875,46.0,86.0
869,235.432478325,236.14174766874999,65.0,71.0
870,235.432478325,236.15579260625,62.0,78.0
871,235.432478325,236.16983754375,58.0,89.0
872,236.10663532499998,236.9437136,46.0,85.0
873,236.443713825,237.02517423749998,65.0,55.0
874,236.443713825,237.04624164375,53.0,78.0
875,236.443713825,237.04624164375,62.0,86.0
876,236.443713825,237.0560731,58.0,93.0
877,237.11787082499998,237.4296684375,65.0,52.0
878,237.11787082499998,237.454949325,53.0,71.0
879,237.11787082499998,237.454949325,58.0,82.0
880,237.11787082499998,237.454949325,62.0,75.0
881,237.792027825,238.297645575,51.0,52.0
882,237.454949325,238.32713994374998,39.0,77.0
883,238.466184825,238.6066342,39.0,72.0
884,238.12910632499998,238.94511719375,63.0,88.0
885,238.12910632499998,238.94511719375,67.0,66.0
886,238.12910632499998,238.94792618124998,58.0,90.0
887,239.140341825,239.5420270375,58.0,96.0
888,238.803263325,240.03359985,39.0,82.0
889,239.477420325,240.09680206875,63.0,100.0
890,239.477420325,240.09680206875,67.0,82.0
891,239.814498825,240.117869475,58.0,102.0
892,240.151577325,241.03219490625,44.0,83.0
893,240.82573432499998,241.10101509999998,56.0,51.0
894,240.488655825,241.12208250625,51.0,56.0
895,241.162812825,241.2948352375,44.0,97.0
896,240.82573432499998,241.92123945,60.0,74.0
897,240.82573432499998,241.95073381875,63.0,81.0
898,241.83696982499998,242.16140788125,56.0,83.0
899,241.499891325,242.23584605,44.0,93.0
900,242.511126825,242.84820532499998,60.0,90.0
901,242.174048325,242.84820532499998,63.0,102.0
902,242.174048325,242.84820532499998,68.0,99.0
903,243.185283825,243.7751712,46.0,52.0
904,242.84820532499998,243.780789175,39.0,89.0
905,243.859440825,244.00269918749999,51.0,69.0
906,243.859440825,244.005508175,39.0,59.0
907,243.859440825,244.005508175,46.0,57.0
908,243.522362325,244.6431483375,58.0,102.0
909,243.522362325,244.68668764375,63.0,97.0
910,244.533597825,244.96477740625,55.0,74.0
911,244.196519325,245.3566311625,39.0,69.0
912,244.196519325,245.57432769375,51.0,90.0
913,244.870676325,245.57432769375,63.0,100.0
914,244.870676325,245.62769845625,58.0,100.0
915,245.376294075,245.72741751249998,55.0,83.0
916,246.05045107499998,246.6515744,50.0,55.0
917,245.713372575,246.6824732625,46.0,86.0
918,246.893147325,247.15719215,53.0,70.0
919,246.893147325,247.207753925,46.0,77.0
920,246.893147325,247.2161808875,50.0,66.0
921,246.55606882499998,247.34679880625,65.0,85.0
922,246.55606882499998,247.353821275,58.0,117.0
923,246.55606882499998,247.35943925,62.0,96.0
924,247.398765075,250.2498873875,53.0,73.0
925,247.398765075,250.25129188124998,50.0,76.0
926,247.398765075,250.2555053625,46.0,99.0
927,250.45072999375,251.3566284625,58.0,96.0
928,250.4577524625,251.35943745,67.0,56.0
929,250.44651651249998,251.36786441249998,63.0,93.0
930,250.4408985375,251.36926890625,51.0,83.0
931,250.443707525,251.3847183375,39.0,92.0
932,251.5420216375,251.74145975,67.0,52.0
933,251.5195497375,251.75129120625,58.0,74.0
934,251.52797669999998,251.75410019375,63.0,43.0
935,251.52376321875,251.75971816875,51.0,72.0
936,251.52095423125,251.77938108125,39.0,69.0
937,251.90297653125,252.11084160625,51.0,86.0
938,251.89595406249998,252.11645958124998,63.0,102.0
939,251.90578551875,252.12348205,67.0,75.0
940,251.89735855625,252.12488654375,58.0,99.0
941,252.27657186874998,252.33556060625,67.0,40.0
942,251.893145075,252.36084149375,39.0,73.0
943,252.27376288125,252.49005491875,58.0,100.0
944,252.2695494,252.52095378125,51.0,99.0
945,252.67263910625,253.71196448125,60.0,92.0
946,252.6740436,253.71898695,56.0,97.0
947,252.67966157499998,253.724604925,63.0,93.0
948,252.68106606875,253.7667397375,44.0,102.0
949,253.8425824,254.11645868124998,60.0,66.0
950,253.83275094375,254.12207665625,56.0,60.0
951,253.84960486875,254.12488564375,63.0,64.0
952,253.84117790624998,254.13612159375,44.0,62.0
953,254.24848109375,254.55466073124998,56.0,107.0
954,254.24707659999999,254.6431438375,63.0,127.0
955,254.24567210625,254.67263820624999,60.0,127.0
956,254.2330316625,254.91280663749998,44.0,107.0
957,254.95775043749998,255.657188325,47.0,107.0
958,254.94510999374998,255.657188325,59.0,97.0
959,254.9437055,255.657188325,63.0,122.0
960,254.94791898124998,255.657188325,66.0,107.0
961,255.814491625,256.23443525625,65.0,102.0
962,255.8173006125,256.24848019374997,68.0,112.0
963,255.80746915625,256.27376108125,49.0,96.0
964,255.8173006125,256.30325545,61.0,112.0
965,256.85522149375,263.10240969375,63.0,127.0
966,256.85803048125,263.1038141875,67.0,99.0
967,256.853817,263.1234771,58.0,127.0
968,256.8510080125,263.1487579875,51.0,117.0
969,256.84960351875,263.1712298875,39.0,117.0
