,start,end,pitch,velocity
0,22.714542395833334,23.2220048625,74.0,97.0
1,23.162303395833334,23.4906614625,79.0,102.0
2,23.610064395833334,24.583944570833335,79.0,100.0
3,24.953347395833333,25.210809970833335,83.0,102.0
4,25.401108395833333,25.9645409875,86.0,99.0
5,25.848869395833333,26.294764725,83.0,99.0
6,26.296630395833333,26.697749625,81.0,97.0
7,26.744391395833333,27.188421054166668,83.0,90.0
8,27.192152395833332,29.39550965,76.0,82.0
9,29.878718395833335,30.26677792916667,83.0,112.0
10,30.326479395833335,30.555956908333332,86.0,117.0
11,30.550359895833335,31.649240016666667,88.0,97.0
12,32.11752339583333,32.34886657916667,88.0,122.0
13,32.56528439583333,32.9720006375,88.0,122.0
14,33.01304539583333,33.350731816666666,86.0,107.0
15,33.46080639583334,33.90297038333333,86.0,100.0
16,33.90856739583334,34.58207456666667,88.0,99.0
17,34.80408939583334,35.988790375,83.0,102.0
18,37.042894395833336,37.40296886666667,83.0,107.0
19,37.490655395833336,37.69214784583333,86.0,112.0
20,37.714535895833336,38.72759515833334,88.0,99.0
21,39.505579895833336,39.80408722916667,88.0,96.0
22,39.729460395833335,40.13804230833333,90.0,127.0
23,40.177221395833335,40.59886300416667,88.0,96.0
24,40.624982395833335,41.0428926625,86.0,107.0
25,41.072743395833335,41.5074447,84.0,96.0
26,41.520504395833335,42.093265341666665,83.0,95.0
27,41.968265395833335,42.345130904166666,86.0,112.0
28,42.416026395833335,42.8339366625,81.0,85.0
29,42.863787395833334,43.35072748333334,83.0,82.0
30,43.311548395833334,44.30408527916667,76.0,100.0
31,44.207070395833334,44.682816458333335,74.0,88.0
32,44.654831395833334,45.0895327,76.0,90.0
33,45.102592395833334,46.054084520833335,79.0,95.0
34,46.66975589583333,46.8190095625,83.0,100.0
35,46.89363639583333,47.26117355,86.0,102.0
36,47.34139739583333,47.8040837625,83.0,97.0
37,47.78915839583333,48.18281494166667,81.0,107.0
38,48.23691939583333,49.07833694166667,83.0,107.0
39,49.13244139583333,50.889903320833334,76.0,97.0
40,51.37124639583333,51.86378349583333,83.0,107.0
41,51.81900739583333,52.145499791666666,88.0,127.0
42,52.26676839583333,53.156693383333334,88.0,117.0
43,53.83393189583334,53.973857208333335,88.0,96.0
44,54.05781239583334,54.4477376,90.0,122.0
45,54.50557339583334,54.923483662500004,88.0,112.0
46,54.95333439583334,55.34139392916667,86.0,100.0
47,55.40109539583334,55.82273700416667,84.0,107.0
48,55.84885639583334,56.3227367875,83.0,100.0
49,56.29661739583334,56.66602022083333,86.0,107.0
50,56.74437839583334,57.15855732083333,81.0,99.0
51,57.19213939583334,57.638034725000004,83.0,83.0
52,57.638034725000004,58.3264672625,76.0,107.0
53,58.535422395833336,58.97758638333333,74.0,102.0
54,58.983183395833336,59.48131750833333,76.0,107.0
55,59.430944395833336,60.432809633333335,79.0,102.0
56,60.998107895833336,61.186540650000005,83.0,99.0
57,61.221988395833336,61.62124195416667,86.0,93.0
58,61.669749395833335,62.108182041666666,83.0,96.0
59,62.117510395833335,62.5354206625,81.0,97.0
60,62.565271395833335,63.42907699166667,83.0,112.0
61,63.460793395833335,65.53168802083333,76.0,99.0
62,65.69959839583333,66.15855342083333,74.0,100.0
63,66.14735939583333,66.44586672916667,79.0,92.0
64,66.59512039583333,67.55407520416667,79.0,112.0
65,67.93840339583333,68.23131371666666,83.0,107.0
66,68.38616439583333,68.84511942083334,86.0,102.0
67,68.83392539583333,69.2854177375,83.0,92.0
68,69.28168639583333,69.69399965,81.0,93.0
69,69.72944739583333,70.18280540833334,83.0,88.0
70,70.17720839583333,71.76675994583333,76.0,96.0
71,72.86377439583333,73.25183392916666,83.0,112.0
72,73.31153539583333,73.54101290833333,86.0,117.0
73,73.53541589583334,74.63429601666667,88.0,97.0
74,75.10257939583333,75.33392257916667,88.0,122.0
75,75.55034039583333,75.9570566375,88.0,122.0
76,75.99810139583333,76.09511627916667,86.0,102.0
77,76.22198189583334,76.66601155416667,86.0,102.0
78,76.89362339583333,77.12496657916667,81.0,88.0
79,77.11750389583334,78.76302557083334,83.0,100.0
80,80.02795039583333,80.38802486666667,83.0,107.0
81,80.47571139583333,80.67720384583333,86.0,112.0
82,80.69959189583334,81.71265115833333,88.0,99.0
83,82.49063589583334,82.78914322916667,88.0,96.0
84,82.71451639583333,83.12309830833334,90.0,127.0
85,83.16227739583333,83.58391900416667,88.0,96.0
86,83.61003839583333,84.0279486625,86.0,107.0
87,84.05779939583333,84.49250070000001,84.0,96.0
88,84.50556039583334,85.07832134166667,83.0,95.0
89,84.95332139583334,85.33018690416667,86.0,112.0
90,85.40108239583334,85.81899266250001,81.0,85.0
91,85.84884339583334,86.33578348333333,83.0,82.0
92,86.29660439583334,87.28914127916667,76.0,100.0
93,87.19212639583334,87.66787245833333,74.0,88.0
94,87.63988739583334,88.0745887,76.0,90.0
95,88.08764839583334,89.03914052083333,79.0,95.0
96,89.65481189583333,89.8040655625,83.0,100.0
97,89.87869239583334,90.24622955,86.0,102.0
98,90.32645339583334,90.7891397625,83.0,97.0
99,90.77421439583334,91.16787094166666,81.0,107.0
100,91.22197539583334,92.06339294166666,83.0,107.0
101,92.11749739583334,93.87495932083334,76.0,97.0
102,94.35630239583334,94.84883949583333,83.0,107.0
103,94.80406339583334,95.13055579166667,88.0,127.0
104,95.25182439583334,96.14174938333333,88.0,117.0
105,96.81898789583333,96.95891320833334,88.0,96.0
106,97.04286839583334,97.4327936,90.0,122.0
107,97.49062939583334,97.9085396625,88.0,112.0
108,97.93839039583334,98.32644992916667,86.0,100.0
109,98.38615139583334,98.80779300416667,84.0,107.0
110,98.83391239583334,99.3077927875,83.0,100.0
111,99.28167339583334,99.65107622083333,86.0,107.0
112,99.72943439583334,100.14361332083334,81.0,99.0
113,100.17719539583334,100.623090725,83.0,83.0
114,100.623090725,101.3115232625,76.0,107.0
115,101.52047839583334,101.96264238333333,74.0,102.0
116,101.96823939583334,102.46637350833333,76.0,107.0
117,102.41600039583334,103.41786563333334,79.0,102.0
118,103.98316389583333,104.17159665,83.0,99.0
119,104.20704439583334,104.60629795416666,86.0,93.0
120,104.65480539583334,105.09323804166667,83.0,96.0
121,105.10256639583334,105.67532734166667,86.0,117.0
122,105.99808839583334,106.38801360000001,83.0,117.0
123,106.44584939583333,108.51674402083333,76.0,99.0
124,137.34135839583334,137.8488208625,74.0,97.0
125,137.78911939583332,138.1174774625,79.0,102.0
126,138.23688039583334,139.21076057083334,79.0,100.0
127,139.58016339583332,139.83762597083333,83.0,102.0
128,140.02792439583334,140.5913569875,86.0,99.0
129,140.47568539583332,140.921580725,83.0,99.0
130,140.92344639583334,141.324565625,81.0,97.0
131,141.37120739583332,141.81523705416666,83.0,90.0
132,141.81896839583334,144.02232565,76.0,82.0
133,144.50553439583334,144.89359392916666,83.0,112.0
134,144.95329539583332,145.18277290833333,86.0,117.0
135,145.40105639583334,146.49993651666668,88.0,97.0
136,146.74433939583335,146.97568257916666,88.0,122.0
137,147.19210039583334,147.5988166375,88.0,122.0
138,147.63986139583335,147.97754781666666,86.0,107.0
139,148.08762239583334,148.52978638333335,86.0,100.0
140,148.53538339583335,148.98314439583334,88.0,99.0
141,148.98314439583334,150.167845375,83.0,102.0
142,151.66971039583333,152.02978486666666,83.0,107.0
143,152.11747139583335,152.31896384583334,86.0,112.0
144,152.34135189583333,153.35441115833333,88.0,99.0
145,154.13239589583333,154.43090322916666,88.0,96.0
146,154.35627639583333,154.76485830833334,90.0,127.0
147,154.80403739583335,155.22567900416666,88.0,96.0
148,155.25179839583333,155.6697086625,86.0,107.0
149,155.69955939583335,156.1342607,84.0,96.0
150,156.14732039583333,156.72008134166666,83.0,95.0
151,156.59508139583335,156.97194690416666,86.0,112.0
152,157.04284239583333,157.4607526625,81.0,85.0
153,157.49060339583335,157.97754348333333,83.0,82.0
154,157.93836439583333,158.93090127916668,76.0,100.0
155,158.83388639583333,159.30963245833334,74.0,88.0
156,159.28164739583335,159.7163487,76.0,90.0
157,159.72940839583333,160.68090052083335,79.0,95.0
158,161.29657189583332,161.4458255625,83.0,100.0
159,161.52045239583333,161.88798955000001,86.0,102.0
160,161.96821339583335,162.4308997625,83.0,97.0
161,162.41597439583333,162.80963094166668,81.0,107.0
162,162.86373539583334,163.70515294166668,83.0,107.0
163,163.75925739583334,165.51671932083335,76.0,97.0
164,165.99806239583333,166.49059949583335,83.0,107.0
165,166.44582339583334,166.77231579166667,88.0,127.0
166,166.89358439583333,167.78350938333332,88.0,117.0
167,168.46074789583335,168.60067320833335,88.0,96.0
168,168.68462839583333,169.0745536,90.0,122.0
169,169.13238939583334,169.5502996625,88.0,112.0
170,169.58015039583333,169.96820992916668,86.0,100.0
171,170.02791139583334,170.44955300416666,84.0,107.0
172,170.47567239583333,170.9495527875,83.0,100.0
173,170.92343339583334,171.29283622083335,86.0,107.0
174,171.37119439583333,171.78537332083334,81.0,99.0
175,171.81895539583334,172.264850725,83.0,83.0
176,172.264850725,172.9532832625,76.0,107.0
177,173.16223839583333,173.60440238333334,74.0,102.0
178,173.60999939583334,174.10813350833334,76.0,107.0
179,174.05776039583333,175.05962563333333,79.0,102.0
180,175.62492389583335,175.81335665,83.0,99.0
181,175.84880439583333,176.24805795416668,86.0,93.0
182,176.29656539583334,176.73499804166667,83.0,96.0
183,176.74432639583333,177.1622366625,81.0,97.0
184,177.19208739583334,178.05589299166667,83.0,112.0
185,178.08760939583334,180.15850402083333,76.0,99.0
186,180.32641439583332,180.75738435833333,76.0,122.0
187,180.77417539583334,181.15104090416668,78.0,127.0
188,181.22193639583332,182.18089120416667,81.0,112.0
189,182.56521939583334,182.85812971666667,85.0,107.0
190,183.01298039583332,183.47193542083335,88.0,102.0
191,183.46074139583334,183.9122337375,85.0,92.0
192,183.90850239583332,184.32081565000001,83.0,93.0
193,184.35626339583334,184.80962140833333,85.0,88.0
194,184.80402439583332,186.39357594583333,78.0,96.0
195,187.49059039583335,187.87864992916667,85.0,112.0
196,187.93835139583334,188.16782890833335,88.0,117.0
197,188.16223189583334,189.26111201666666,90.0,97.0
198,189.72939539583334,189.96073857916667,90.0,122.0
199,190.17715639583335,190.5838726375,90.0,122.0
200,190.62491739583334,190.72193227916668,88.0,102.0
201,190.84879789583334,191.29282755416668,88.0,102.0
202,191.52043939583334,191.75178257916667,83.0,88.0
203,191.74431989583334,193.38984157083334,85.0,100.0
204,194.65476639583335,195.01484086666667,85.0,107.0
205,195.10252739583333,195.30401984583332,88.0,112.0
206,195.32640789583334,196.33946715833335,90.0,99.0
207,197.11745189583334,197.41595922916667,90.0,96.0
208,197.34133239583335,197.74991430833333,92.0,127.0
209,197.78909339583333,198.21073500416668,90.0,96.0
210,198.23685439583335,198.6547646625,88.0,107.0
211,198.68461539583333,199.1193167,86.0,96.0
212,199.13237639583335,199.70513734166667,85.0,95.0
213,199.58013739583333,199.95700290416667,88.0,112.0
214,200.02789839583335,200.4458086625,83.0,85.0
215,200.47565939583333,200.96259948333335,85.0,82.0
216,200.92342039583335,201.91595727916666,78.0,100.0
217,201.81894239583335,202.29468845833333,76.0,88.0
218,202.26670339583333,202.7014047,78.0,90.0
219,202.71446439583335,203.66595652083333,81.0,95.0
220,204.28162789583334,204.4308815625,85.0,100.0
221,204.50550839583335,204.87304555,88.0,102.0
222,204.95326939583333,205.4159557625,85.0,97.0
223,205.40103039583335,205.79468694166667,83.0,107.0
224,205.84879139583333,206.69020894166667,85.0,107.0
225,206.74431339583333,208.50177532083333,78.0,97.0
226,208.98311839583334,209.47565549583334,85.0,107.0
227,209.43087939583333,209.75737179166669,90.0,127.0
228,209.87864039583334,210.76856538333334,90.0,117.0
229,211.44580389583334,211.58572920833333,90.0,96.0
230,211.66968439583334,212.05960960000002,92.0,122.0
231,212.11744539583333,212.5353556625,90.0,112.0
232,212.56520639583334,212.95326592916666,88.0,100.0
233,213.01296739583333,213.43460900416667,86.0,107.0
234,213.46072839583334,213.9346087875,85.0,100.0
235,213.90848939583333,214.27789222083334,88.0,107.0
236,214.35625039583334,214.77042932083333,83.0,99.0
237,214.80401139583333,215.24990672500002,85.0,83.0
238,215.24990672500002,215.9383392625,78.0,107.0
239,216.14729439583334,216.58945838333335,76.0,102.0
240,216.59505539583333,217.09318950833332,78.0,107.0
241,217.04281639583334,218.04468163333334,81.0,102.0
242,218.60997989583333,218.79841265000002,85.0,99.0
243,218.83386039583334,219.23311395416667,88.0,93.0
244,219.28162139583333,219.57266604583333,85.0,127.0
245,219.72938239583334,220.07826284166669,83.0,127.0
246,220.17714339583333,220.99617289166667,88.0,117.0
247,221.07266539583333,222.95326159583334,78.0,122.0
248,223.31147039583334,223.67154486666666,85.0,107.0
249,223.75923139583332,223.96072384583334,88.0,112.0
250,223.98311189583333,224.99617115833334,90.0,99.0
251,225.77415589583333,226.07266322916666,90.0,96.0
252,225.99803639583334,226.40661830833335,92.0,127.0
253,226.44579739583332,226.86743900416667,90.0,96.0
254,226.89355839583334,227.3114686625,88.0,107.0
255,227.34131939583335,227.7760207,86.0,96.0
256,227.78908039583334,228.36184134166666,85.0,95.0
257,228.23684139583335,228.61370690416666,88.0,112.0
258,228.68460239583334,229.1025126625,83.0,85.0
259,229.13236339583335,229.61930348333334,85.0,82.0
260,229.58012439583334,230.57266127916668,78.0,100.0
261,230.47564639583334,230.95139245833334,76.0,88.0
262,230.92340739583335,231.3581087,78.0,90.0
263,231.37116839583334,232.32266052083335,81.0,95.0
264,232.93833189583333,233.0875855625,85.0,100.0
265,233.16221239583334,233.52974955,88.0,102.0
266,233.60997339583335,234.0726597625,85.0,97.0
267,234.05773439583334,234.0726597625,85.0,127.0
268,234.50549539583335,238.23870273333333,92.0,127.0
269,238.53534439583333,241.354373025,90.0,127.0
270,244.80399839583333,245.19205792916668,85.0,112.0
271,245.25175939583335,245.48123690833333,88.0,117.0
272,245.47563989583332,246.57452001666667,90.0,97.0
273,247.04280339583335,247.27414657916668,90.0,122.0
274,247.49056439583333,247.89728063750002,90.0,122.0
275,247.93832539583335,248.03534027916666,88.0,102.0
276,248.16220589583335,248.60623555416666,88.0,102.0
277,248.83384739583335,249.06519057916668,83.0,88.0
278,249.05772789583335,250.70324957083335,85.0,100.0
279,251.96817439583333,252.32824886666668,85.0,107.0
280,252.41593539583334,252.61742784583333,88.0,112.0
281,252.63981589583335,253.65287515833333,90.0,99.0
282,254.43085989583335,254.72936722916668,90.0,96.0
283,254.65474039583333,255.06332230833334,92.0,127.0
284,255.10250139583334,255.52414300416666,90.0,96.0
285,255.55026239583333,255.9681726625,88.0,107.0
286,255.99802339583334,256.4327247,86.0,96.0
287,256.44578439583336,257.01854534166665,85.0,95.0
288,256.8935453958333,257.2704109041667,88.0,112.0
289,257.3413063958333,257.7592166625,83.0,85.0
290,257.78906739583334,258.27600748333333,85.0,82.0
291,258.23682839583336,259.2293652791667,78.0,100.0
292,259.1323503958333,259.60809645833336,76.0,88.0
293,259.58011139583334,260.0148127,78.0,90.0
294,260.02787239583336,260.9793645208333,81.0,95.0
295,261.59503589583335,261.7442895625,85.0,100.0
296,261.81891639583336,262.18645355,88.0,102.0
297,262.2666773958333,262.7293637625,85.0,97.0
298,262.7144383958333,263.10809494166665,83.0,107.0
299,263.16219939583334,264.0036169416667,85.0,107.0
300,264.0577213958333,265.81518332083334,78.0,97.0
301,266.2965263958333,266.77227245833336,76.0,88.0
302,266.74428739583334,267.1789887,78.0,90.0
303,267.19204839583335,268.1435405208333,81.0,95.0
304,268.75921189583335,268.9084655625,85.0,100.0
305,268.98309239583335,269.35062955,88.0,102.0
306,269.43085339583337,269.8935397625,85.0,97.0
307,269.8786143958333,270.27227094166665,83.0,107.0
308,270.32637539583334,271.1677929416667,85.0,107.0
309,271.22189739583337,272.97935932083334,78.0,97.0
310,273.4607023958333,273.8487619291667,85.0,112.0
311,273.90846339583334,274.13794090833335,88.0,117.0
312,274.13234389583334,275.23122401666666,90.0,97.0
313,275.69950739583334,275.93085057916664,90.0,122.0
314,276.14726839583335,276.5539846375,90.0,122.0
315,276.59502939583336,276.6920442791667,88.0,102.0
316,276.8189098958333,277.2629395541667,88.0,102.0
317,277.49055139583334,277.7218945791667,83.0,88.0
318,277.71443189583334,279.35995357083334,85.0,100.0
319,280.6248783958333,280.9849528666667,85.0,107.0
320,281.07263939583333,281.2741318458333,88.0,112.0
321,281.29651989583334,282.30957915833335,90.0,99.0
322,283.08756389583334,283.38607122916665,90.0,96.0
323,283.31144439583335,283.72002630833333,92.0,127.0
324,283.75920539583336,284.18084700416665,90.0,96.0
325,284.2069663958333,284.6248766625,88.0,107.0
326,284.65472739583333,285.0894287,86.0,96.0
327,285.10248839583335,285.6752493416667,85.0,95.0
328,285.55024939583336,285.9271149041667,88.0,112.0
329,285.9980103958333,286.4159206625,83.0,85.0
330,286.44577139583333,286.9327114833333,85.0,82.0
331,286.89353239583335,287.8860692791667,78.0,100.0
332,287.7890543958333,288.26480045833335,76.0,88.0
333,288.23681539583333,288.6715167,78.0,90.0
334,288.68457639583335,289.63606852083336,81.0,95.0
335,290.25173989583334,290.4009935625,85.0,100.0
336,290.47562039583335,290.84315755,88.0,102.0
337,290.92338139583336,291.38606776250003,85.0,97.0
338,291.3711423958333,291.7647989416667,83.0,107.0
339,291.81890339583333,292.66032094166667,85.0,107.0
340,292.71442539583336,294.47188732083333,78.0,97.0
