,start,end,pitch,velocity
0,1.7761186333333334,9.149249766666667,50.0,38.0
1,1.7705216208333334,9.166040804166666,38.0,47.0
2,1.7537305833333334,9.167906475,62.0,40.0
3,1.7667902791666668,9.169772145833333,66.0,50.0
4,1.7817156458333334,9.180966170833333,45.0,38.0
5,1.791044,9.203354220833333,69.0,55.0
6,1.7705216208333334,9.483204845833333,59.0,54.0
7,1.7761186333333334,9.494398870833333,71.0,56.0
8,9.281712395833333,10.031712070833333,60.0,88.0
9,9.281712395833333,10.050368779166666,67.0,83.0
10,9.281712395833333,10.061562804166666,64.0,88.0
11,9.729473395833333,10.195891104166668,55.0,38.0
12,10.177234395833333,10.830219187500001,67.0,89.0
13,10.177234395833333,10.884323641666667,60.0,97.0
14,9.281712395833333,10.895517666666667,48.0,86.0
15,10.177234395833333,10.940293766666667,64.0,89.0
16,10.848875895833334,11.0205176125,55.0,95.0
17,11.072756395833334,11.856338145833334,62.0,96.0
18,11.072756395833334,11.863800829166667,69.0,88.0
19,11.072756395833334,11.878726195833334,66.0,102.0
20,11.072756395833334,12.214546945833334,50.0,78.0
21,11.968278395833334,12.494397570833334,62.0,83.0
22,11.968278395833334,12.5988751375,69.0,96.0
23,11.968278395833334,12.615666175,66.0,117.0
24,12.639919895833334,12.832083991666668,50.0,86.0
25,12.863800395833334,13.602606045833333,59.0,100.0
26,12.863800395833334,13.632456779166667,62.0,83.0
27,12.863800395833334,13.632456779166667,66.0,96.0
28,12.863800395833334,13.7966358125,47.0,86.0
29,13.311561395833333,13.798501483333334,54.0,43.0
30,13.759322395833333,14.083949120833333,62.0,93.0
31,13.759322395833333,14.093277475,66.0,117.0
32,14.207083395833333,14.393650479166666,66.0,102.0
33,13.983202895833333,14.5018593875,54.0,95.0
34,14.207083395833333,14.548501158333334,62.0,93.0
35,13.983202895833333,14.570889208333334,47.0,59.0
36,14.654844395833333,15.458948525,67.0,86.0
37,14.654844395833333,15.475739562500001,64.0,79.0
38,14.430963895833333,15.518649991666667,59.0,68.0
39,14.654844395833333,15.634321583333334,52.0,69.0
40,15.550366395833334,15.757455858333334,59.0,38.0
41,15.550366395833334,16.02238111666667,67.0,96.0
42,15.550366395833334,16.041037825,64.0,97.0
43,15.998127395833334,16.289172045833332,62.0,97.0
44,16.222007895833332,16.399246625,64.0,59.0
45,15.774246895833334,16.444022725,52.0,92.0
46,16.444022725,17.111932883333335,64.0,74.0
47,16.444022725,17.249992525,67.0,83.0
48,16.444022725,17.291037283333335,60.0,97.0
49,17.341410395833332,18.136186170833334,60.0,77.0
50,17.341410395833332,18.147380195833335,67.0,96.0
51,17.341410395833332,18.162305562500002,64.0,89.0
52,17.117529895833332,18.58021582916667,55.0,34.0
53,18.236932395833335,18.945887312500002,60.0,78.0
54,18.236932395833335,18.986932070833333,67.0,74.0
55,18.236932395833335,19.003723108333332,64.0,69.0
56,18.684693395833335,19.166036470833333,55.0,58.0
57,19.132454395833335,19.412305020833333,60.0,107.0
58,19.132454395833335,19.436558741666666,67.0,107.0
59,19.132454395833335,19.451484108333332,64.0,107.0
60,16.444022725,19.669767595833335,48.0,71.0
61,19.356334895833335,19.6734989375,55.0,117.0
62,19.580215395833335,19.744394429166668,67.0,88.0
63,19.804095895833335,19.839543641666666,66.0,35.0
64,19.580215395833335,19.914170475,60.0,97.0
65,19.580215395833335,19.929095841666665,64.0,107.0
66,20.027976395833335,23.257452608333335,57.0,99.0
67,20.027976395833335,23.576482320833335,66.0,122.0
68,20.027976395833335,23.585810675,50.0,92.0
69,20.027976395833335,23.585810675,62.0,107.0
70,20.027976395833335,23.585810675,69.0,97.0
71,23.610064395833334,24.235064125,62.0,71.0
72,23.610064395833334,24.261183516666666,71.0,75.0
73,23.610064395833334,24.2686462,67.0,74.0
74,24.505586395833333,24.5820789,67.0,76.0
75,24.505586395833333,24.59140725416667,71.0,72.0
76,24.505586395833333,24.593272925,62.0,78.0
77,23.610064395833334,25.188421920833335,43.0,64.0
78,25.177227895833333,25.3040935125,55.0,60.0
79,25.401108395833333,25.923496229166666,66.0,85.0
80,25.401108395833333,25.932824583333336,69.0,72.0
81,25.401108395833333,25.947749950000002,62.0,66.0
82,25.401108395833333,26.3115557625,57.0,89.0
83,26.296630395833333,26.615660108333334,69.0,75.0
84,26.296630395833333,26.639913829166666,66.0,95.0
85,25.401108395833333,26.641779500000002,50.0,72.0
86,26.520510895833333,26.729466029166666,57.0,63.0
87,26.744391395833333,26.929092808333333,62.0,85.0
88,27.192152395833332,27.658570104166667,67.0,67.0
89,27.192152395833332,27.6772268125,71.0,63.0
90,27.192152395833332,27.841405845833332,64.0,69.0
91,28.087674395833336,28.152972875,67.0,76.0
92,27.192152395833332,28.1585698875,59.0,71.0
93,28.087674395833336,28.166032570833334,71.0,71.0
94,28.087674395833336,28.177226595833336,64.0,71.0
95,27.192152395833332,28.197748975,52.0,65.0
96,28.759315895833335,29.027972495833335,59.0,41.0
97,28.759315895833335,29.039166520833334,55.0,44.0
98,28.759315895833335,29.0540918875,52.0,39.0
99,28.983196395833335,29.21640525,67.0,73.0
100,28.983196395833335,29.225733604166667,64.0,67.0
101,28.983196395833335,29.225733604166667,71.0,66.0
102,29.430957395833335,29.630584175,71.0,65.0
103,29.430957395833335,29.638046858333333,64.0,69.0
104,29.430957395833335,29.638046858333333,67.0,75.0
105,29.207076895833335,29.917897483333334,59.0,52.0
106,29.207076895833335,30.169763045833335,55.0,39.0
107,29.207076895833335,30.203345120833333,52.0,37.0
108,30.102598895833335,30.22200182916667,59.0,64.0
109,29.878718395833335,30.283568966666667,67.0,86.0
110,29.878718395833335,30.2966286625,71.0,88.0
111,30.326479395833335,30.485061416666667,64.0,83.0
112,30.774240395833335,31.233195420833333,67.0,66.0
113,30.774240395833335,31.2593148125,60.0,88.0
114,30.774240395833335,31.277971520833333,64.0,70.0
115,31.669762395833335,31.847001125000002,64.0,81.0
116,31.669762395833335,31.876851858333335,60.0,76.0
117,31.669762395833335,31.945881679166668,67.0,75.0
118,30.774240395833335,32.38058298333333,48.0,67.0
119,32.34140389583333,32.526105308333335,55.0,36.0
120,32.56528439583333,33.124985645833334,69.0,73.0
121,33.23692589583334,33.302224375,69.0,20.0
122,32.56528439583333,33.3302094375,62.0,77.0
123,32.56528439583333,33.3637915125,66.0,90.0
124,32.56528439583333,33.473866091666665,50.0,69.0
125,33.46080639583334,33.9850599,69.0,88.0
126,33.46080639583334,33.986925570833336,66.0,112.0
127,34.13244789583334,34.30222394166667,50.0,56.0
128,34.35632839583334,35.089537033333336,62.0,69.0
129,34.35632839583334,35.12498477916667,71.0,69.0
130,34.35632839583334,35.13617880416667,67.0,66.0
131,35.25185039583334,36.01304409583334,62.0,69.0
132,35.25185039583334,36.0167754375,71.0,69.0
133,35.25185039583334,36.02423812083333,67.0,76.0
134,35.92349189583334,36.21080520416667,55.0,42.0
135,36.14737239583334,36.80408852916667,65.0,66.0
136,36.14737239583334,36.82087956666667,62.0,67.0
137,36.14737239583334,36.869387008333334,67.0,66.0
138,36.14737239583334,36.88244670416667,71.0,67.0
139,36.819013895833336,37.08953616666667,55.0,33.0
140,35.92349189583334,37.26864056666667,50.0,1.0
141,34.35632839583334,37.3824464875,43.0,69.0
142,37.266774895833336,37.401103195833336,55.0,88.0
143,37.042894395833336,37.479461370833334,71.0,93.0
144,37.042894395833336,37.486924054166664,65.0,81.0
145,37.042894395833336,37.50184942083333,67.0,93.0
146,37.490655395833336,37.755580654166664,62.0,92.0
147,37.714535895833336,37.8414015125,67.0,37.0
148,37.938416395833336,38.455207216666665,60.0,97.0
149,38.610057895833336,38.680953387500004,60.0,29.0
150,37.938416395833336,38.71080412083334,67.0,67.0
151,37.938416395833336,38.716401133333335,64.0,72.0
152,38.833938395833336,39.227594941666666,67.0,72.0
153,38.833938395833336,39.533564958333336,60.0,86.0
154,37.938416395833336,39.615654475,48.0,68.0
155,38.833938395833336,39.63617685416667,64.0,85.0
156,39.505579895833336,39.71453502916667,55.0,59.0
157,39.729460395833335,40.2369228625,69.0,77.0
158,39.729460395833335,40.27796762083334,66.0,92.0
159,39.729460395833335,40.444012325,62.0,82.0
160,39.729460395833335,41.09699711666667,50.0,66.0
161,40.624982395833335,41.10259412916667,66.0,107.0
162,41.072743395833335,41.11192248333334,57.0,35.0
163,40.624982395833335,41.11938516666667,69.0,88.0
164,40.624982395833335,41.17348962083334,62.0,82.0
165,41.520504395833335,41.9943847875,67.0,73.0
166,41.520504395833335,42.0055788125,62.0,86.0
167,41.520504395833335,42.00931015416667,71.0,75.0
168,41.520504395833335,42.248116020833336,43.0,66.0
169,42.416026395833335,43.052220150000004,42.0,68.0
170,42.416026395833335,43.24624991666667,66.0,100.0
171,43.311548395833334,44.115652525,71.0,68.0
172,43.311548395833334,44.128712220833336,64.0,71.0
173,43.311548395833334,44.13430923333333,67.0,69.0
174,44.207070395833334,44.4570702875,64.0,66.0
175,43.311548395833334,44.51677175416667,40.0,65.0
176,44.430950895833334,44.55968218333334,52.0,59.0
177,44.207070395833334,44.66415975,71.0,88.0
178,44.207070395833334,44.7033388375,67.0,93.0
179,44.654831395833334,44.92908500833333,62.0,83.0
180,44.878711895833334,44.99811482916667,64.0,48.0
181,45.102592395833334,45.75184584583334,60.0,88.0
182,45.102592395833334,45.83580103333333,67.0,66.0
183,45.102592395833334,45.86378609583333,64.0,70.0
184,45.102592395833334,46.309681425,48.0,66.0
185,46.22199489583333,46.3488605125,55.0,36.0
186,45.99811439583333,46.35259185416667,67.0,75.0
187,45.99811439583333,46.49065149583333,64.0,79.0
188,46.44587539583333,46.49997985,67.0,30.0
189,46.44587539583333,46.777964804166665,60.0,71.0
190,46.66975589583333,46.82087523333333,64.0,56.0
191,46.89363639583333,47.608188325,62.0,86.0
192,46.89363639583333,47.61005399583333,69.0,72.0
193,46.89363639583333,47.639904729166666,66.0,76.0
194,46.89363639583333,47.83020315416667,57.0,73.0
195,46.89363639583333,48.0951284125,50.0,58.0
196,48.01303889583333,48.09885975416667,57.0,59.0
197,47.78915839583333,48.238785066666665,69.0,82.0
198,47.78915839583333,48.28729250833334,66.0,99.0
199,48.23691939583333,48.464531237500005,62.0,66.0
200,48.68468039583333,49.21826225416667,64.0,71.0
201,48.68468039583333,49.264904025,59.0,77.0
202,48.68468039583333,49.4272173875,67.0,65.0
203,49.58020239583333,49.67908295,64.0,74.0
204,49.58020239583333,49.682814291666666,67.0,71.0
205,49.58020239583333,49.69400831666667,59.0,76.0
206,50.25184389583333,50.56154525416667,52.0,58.0
207,50.47572439583333,50.611918366666664,64.0,89.0
208,50.47572439583333,50.613784037500004,59.0,86.0
209,50.47572439583333,50.615649708333336,67.0,78.0
210,50.69960489583333,50.98505253333334,67.0,76.0
211,50.69960489583333,50.988783875,59.0,73.0
212,50.69960489583333,50.99251521666667,64.0,81.0
213,50.25184389583333,51.52423140416667,47.0,41.0
214,48.68468039583333,51.58579854166667,40.0,73.0
215,52.26676839583333,52.710798054166666,67.0,77.0
216,52.26676839583333,52.720126408333336,60.0,81.0
217,52.26676839583333,52.772365191666665,64.0,75.0
218,52.71452939583333,53.22385753333334,55.0,48.0
219,53.16229039583333,53.587663345833334,67.0,92.0
220,53.16229039583333,53.785424454166666,60.0,95.0
221,52.26676839583333,53.8376632375,48.0,68.0
222,53.16229039583333,53.874976654166666,64.0,90.0
223,53.83393189583334,54.009304954166666,55.0,61.0
224,54.05781239583334,54.5876629125,69.0,81.0
225,54.05781239583334,54.61937931666667,66.0,95.0
226,54.05781239583334,54.654827062500004,62.0,77.0
227,54.50557339583334,55.182811908333335,57.0,52.0
228,54.95333439583334,55.470125216666666,69.0,89.0
229,54.95333439583334,55.4775879,66.0,107.0
230,54.95333439583334,55.52609534166667,62.0,82.0
231,55.40109539583334,55.6175132125,57.0,51.0
232,54.05781239583334,55.7910206,50.0,82.0
233,55.84885639583334,56.56713966666667,59.0,77.0
234,55.84885639583334,56.57460235,47.0,69.0
235,55.84885639583334,56.585796375,62.0,82.0
236,55.84885639583334,56.59325905833334,66.0,85.0
237,56.74437839583334,57.32833336666667,62.0,78.0
238,56.74437839583334,57.332064708333334,59.0,77.0
239,56.74437839583334,57.332064708333334,66.0,78.0
240,56.74437839583334,57.50743776666667,47.0,56.0
241,57.41601989583334,57.548482525000004,62.0,69.0
242,57.41601989583334,57.83766150416667,59.0,68.0
243,57.63990039583334,58.08952706666667,67.0,70.0
244,58.31154189583334,58.389900070833335,67.0,26.0
245,57.63990039583334,58.4048254375,64.0,72.0
246,58.535422395833336,58.6398999625,64.0,64.0
247,57.63990039583334,58.645496975,52.0,53.0
248,58.535422395833336,58.96079534583333,71.0,90.0
249,58.535422395833336,59.003705775,67.0,95.0
250,58.759302895833336,59.0764669375,52.0,66.0
251,58.983183395833336,59.276093716666665,62.0,77.0
252,59.430944395833336,59.95892924166667,60.0,93.0
253,59.430944395833336,60.11564559166667,67.0,75.0
254,59.430944395833336,60.145496325,64.0,73.0
255,60.326466395833336,60.82833185,67.0,89.0
256,60.326466395833336,60.979451187500004,60.0,90.0
257,59.430944395833336,60.996242225,48.0,72.0
258,60.326466395833336,61.0801974125,64.0,90.0
259,60.998107895833336,61.1697496125,55.0,64.0
260,61.221988395833336,61.759301595833335,69.0,88.0
261,61.221988395833336,61.80594336666667,62.0,77.0
262,61.221988395833336,61.80594336666667,66.0,100.0
263,62.117510395833335,62.24064467083333,62.0,76.0
264,62.341390895833335,62.46452517083333,57.0,60.0
265,61.221988395833336,62.475719195833335,50.0,85.0
266,62.117510395833335,62.548480358333336,66.0,122.0
267,62.117510395833335,62.70146536666667,69.0,92.0
268,62.565271395833335,62.8376593375,62.0,89.0
269,62.789151895833335,62.91974885416667,66.0,82.0
270,63.013032395833335,63.71452462916667,64.0,88.0
271,63.013032395833335,63.727584325,71.0,95.0
272,63.013032395833335,63.75183804583334,67.0,93.0
273,63.908554395833335,63.98318122916667,71.0,75.0
274,63.908554395833335,63.988778241666665,67.0,83.0
275,63.908554395833335,63.99437525416667,64.0,77.0
276,64.58019589583334,64.83579280000001,52.0,53.0
277,63.013032395833335,66.0503445125,40.0,79.0
278,64.80407639583333,66.12497134583333,71.0,77.0
279,64.80407639583333,66.145493725,67.0,85.0
280,64.80407639583333,66.17161311666666,64.0,70.0
281,66.59512039583333,66.92534413333334,67.0,89.0
282,66.59512039583333,66.93280681666667,62.0,83.0
283,66.59512039583333,66.9346724875,71.0,78.0
284,67.49064239583333,67.56900057083334,67.0,89.0
285,67.49064239583333,67.58579160833334,62.0,85.0
286,67.49064239583333,67.58579160833334,71.0,82.0
287,66.59512039583333,68.09138840416666,43.0,72.0
288,68.16228389583334,68.28728384166666,55.0,63.0
289,68.38616439583333,68.85071643333333,69.0,77.0
290,68.38616439583333,68.854447775,62.0,79.0
291,68.38616439583333,68.8656418,66.0,95.0
292,68.38616439583333,69.3581789,50.0,78.0
293,69.50556689583334,69.56899970416667,50.0,75.0
294,69.28168639583333,69.60817879166667,69.0,85.0
295,69.28168639583333,69.63989519583333,66.0,107.0
296,69.72944739583333,69.7779548375,69.0,32.0
297,69.72944739583333,69.84325331666666,62.0,88.0
298,70.17720839583333,70.48131274166667,67.0,79.0
299,70.17720839583333,70.50370079166667,71.0,75.0
300,70.17720839583333,70.54847689166667,64.0,76.0
301,71.07273039583333,71.13429753333334,67.0,90.0
302,71.07273039583333,71.138028875,64.0,83.0
303,71.07273039583333,71.15108857083334,71.0,85.0
304,71.74437189583334,71.8208644,67.0,55.0
305,71.74437189583334,71.83578976666666,64.0,60.0
306,71.74437189583334,71.83578976666666,71.0,59.0
307,71.52049139583333,71.93653599166667,52.0,53.0
308,71.96825239583333,72.02049117916667,67.0,95.0
309,71.96825239583333,72.03541654583333,64.0,95.0
310,71.96825239583333,72.04101355833333,71.0,90.0
311,72.63989389583334,72.89735647083333,52.0,82.0
312,70.17720839583333,73.10071459166667,40.0,75.0
313,72.86377439583333,73.13429666666667,67.0,96.0
314,73.08765489583334,73.15108770416667,52.0,82.0
315,72.86377439583333,73.2536996,71.0,96.0
316,73.31153539583333,73.40295326666667,62.0,95.0
317,73.75929639583333,74.06526641250001,67.0,77.0
318,73.75929639583333,74.0764604375,64.0,78.0
319,73.75929639583333,74.09698281666667,60.0,86.0
320,74.20705739583333,74.6585497375,55.0,56.0
321,74.65481839583333,74.81340041666667,67.0,88.0
322,74.65481839583333,74.89735560416666,64.0,96.0
323,74.87869889583334,74.91787798333334,55.0,58.0
324,73.75929639583333,74.96265408333333,48.0,76.0
325,75.10257939583333,75.18653458333334,60.0,93.0
326,75.55034039583333,75.89922084166666,69.0,81.0
327,75.55034039583333,75.90481785416667,66.0,99.0
328,75.55034039583333,75.91974322083334,62.0,93.0
329,75.55034039583333,76.44586239583333,57.0,86.0
330,76.44586239583333,76.61563844166668,69.0,82.0
331,75.55034039583333,76.7014593,50.0,83.0
332,76.44586239583333,76.7014593,66.0,112.0
333,76.66974289583334,76.74810107083333,57.0,74.0
334,76.89362339583333,76.98504126666667,62.0,93.0
335,77.34138439583333,77.43093659583333,67.0,90.0
336,77.34138439583333,77.44026495,62.0,93.0
337,77.34138439583333,77.44772763333333,71.0,86.0
338,78.23690639583333,78.2966078625,71.0,85.0
339,78.23690639583333,78.30033920416666,67.0,90.0
340,78.23690639583333,78.30593621666667,62.0,92.0
341,78.90854789583334,79.14548809166666,55.0,67.0
342,79.13242839583333,79.23317462083334,71.0,90.0
343,79.13242839583333,79.23877163333333,67.0,95.0
344,79.13242839583333,79.24250297500001,65.0,89.0
345,79.80406989583334,79.85630867916667,62.0,44.0
346,79.35630889583334,80.08951753333334,55.0,83.0
347,77.78914539583333,80.13056229166666,50.0,44.0
348,80.02795039583333,80.14735332916666,65.0,100.0
349,80.02795039583333,80.15854735416667,67.0,99.0
350,80.02795039583333,80.16414436666666,71.0,95.0
351,77.34138439583333,80.31339803333333,43.0,61.0
352,80.25183089583334,80.361905475,55.0,74.0
353,80.47571139583333,80.54847255833333,62.0,97.0
354,80.92347239583333,81.22571107083334,60.0,89.0
355,80.92347239583333,81.235039425,64.0,86.0
356,80.92347239583333,81.23877076666666,67.0,81.0
357,81.59511389583334,81.84138244583333,55.0,21.0
358,81.81899439583333,81.87309885,64.0,97.0
359,81.81899439583333,81.87496452083333,60.0,93.0
360,81.81899439583333,81.8786958625,67.0,93.0
361,80.92347239583333,82.555934375,48.0,71.0
362,82.49063589583334,82.70332237083333,55.0,55.0
363,82.71451639583333,82.79847158333334,66.0,97.0
364,82.71451639583333,82.802202925,69.0,83.0
365,82.71451639583333,82.81339695,62.0,89.0
366,83.16227739583333,83.65668016666667,57.0,83.0
367,83.61003839583333,83.70891895,69.0,93.0
368,83.61003839583333,83.72384431666667,66.0,117.0
369,82.71451639583333,83.90668005833334,50.0,77.0
370,83.83391889583334,83.9160084125,57.0,92.0
371,84.05779939583333,84.190262025,62.0,102.0
372,84.28167989583334,84.38802313333333,66.0,77.0
373,84.50556039583334,84.76861998333334,67.0,93.0
374,84.50556039583334,84.77421699583334,62.0,59.0
375,84.50556039583334,84.77608266666667,71.0,96.0
376,84.95332139583334,85.08391835416667,50.0,50.0
377,84.50556039583334,85.12123177083333,43.0,74.0
378,85.40108239583334,85.8077986375,69.0,77.0
379,85.40108239583334,85.86003742083334,42.0,93.0
380,85.40108239583334,86.05220151666667,66.0,92.0
381,86.29660439583334,86.55593264166667,71.0,82.0
382,86.29660439583334,86.56526099583334,64.0,76.0
383,86.29660439583334,86.56712666666667,67.0,82.0
384,86.96824589583333,87.46824567916667,47.0,66.0
385,86.29660439583334,87.4869023875,40.0,82.0
386,87.19212639583334,87.56152922083334,67.0,99.0
387,87.19212639583334,87.5764545875,71.0,95.0
388,87.41600689583333,87.60630532083333,52.0,76.0
389,87.63988739583334,87.87682759166667,62.0,92.0
390,87.86376789583333,88.03354394166666,64.0,69.0
391,88.08764839583334,88.42346914583334,67.0,79.0
392,88.08764839583334,88.43652884166667,60.0,93.0
393,88.08764839583334,88.443991525,64.0,71.0
394,88.98317039583334,89.0596629,64.0,88.0
395,88.98317039583334,89.0596629,67.0,75.0
396,88.98317039583334,89.070856925,60.0,90.0
397,88.08764839583334,89.74996110833334,48.0,72.0
398,89.65481189583333,89.86376702916667,55.0,56.0
399,89.87869239583334,90.4197369375,69.0,86.0
400,89.87869239583334,90.46637870833334,62.0,88.0
401,89.87869239583334,90.5764532875,66.0,100.0
402,89.87869239583334,90.85443824166667,50.0,69.0
403,90.99809489583333,91.09510977916666,50.0,37.0
404,90.77421439583334,91.26115448333333,66.0,127.0
405,90.77421439583334,91.26115448333333,69.0,96.0
406,91.22197539583334,91.309661925,62.0,88.0
407,91.66973639583334,92.10070635833334,67.0,96.0
408,91.66973639583334,92.10257202916667,71.0,93.0
409,91.66973639583334,92.10630337083333,64.0,88.0
410,92.56525839583334,92.6361538875,67.0,102.0
411,92.56525839583334,92.63801955833334,71.0,97.0
412,92.56525839583334,92.6473479125,64.0,93.0
413,91.66973639583334,92.87309408333334,40.0,72.0
414,93.23689989583333,93.30592971666667,71.0,75.0
415,93.23689989583333,93.32272075416667,64.0,75.0
416,93.23689989583333,93.32272075416667,67.0,88.0
417,93.46078039583334,93.52794454583334,71.0,99.0
418,93.46078039583334,93.53913857083333,67.0,100.0
419,93.46078039583334,93.54660125416667,64.0,93.0
420,93.01301939583334,93.62495942916667,52.0,41.0
421,93.68466089583333,93.74249669166667,71.0,102.0
422,93.68466089583333,93.75369071666667,67.0,117.0
423,93.68466089583333,93.76301907083334,64.0,97.0
424,94.13242189583333,94.39734715416667,52.0,85.0
425,93.01301939583334,94.48689935416667,47.0,47.0
426,94.35630239583334,94.52048142916667,64.0,92.0
427,94.35630239583334,94.52794411250001,71.0,102.0
428,94.35630239583334,94.58204856666667,67.0,112.0
429,94.58018289583333,95.00742151666667,52.0,97.0
430,94.58018289583333,95.02234688333334,47.0,37.0
431,94.80406339583334,95.05033194583334,71.0,117.0
432,94.80406339583334,95.07831700833333,67.0,127.0
433,93.01301939583334,95.10070505833333,40.0,57.0
434,95.02794389583333,95.13055579166667,64.0,99.0
435,95.25182439583334,95.35257062083333,67.0,90.0
436,95.25182439583334,95.361898975,71.0,78.0
437,95.25182439583334,95.36376464583334,60.0,97.0
438,95.25182439583334,95.36376464583334,64.0,96.0
439,96.14734639583334,96.21637621666667,67.0,92.0
440,96.14734639583334,96.22197322916666,64.0,97.0
441,96.14734639583334,96.22570457083333,60.0,102.0
442,96.14734639583334,96.22757024166667,71.0,85.0
443,95.25182439583334,96.84883862916666,48.0,71.0
444,96.81898789583333,97.01861467500001,55.0,79.0
445,97.04286839583334,97.5671219,69.0,86.0
446,97.04286839583334,97.57085324166667,66.0,97.0
447,97.04286839583334,97.57271891250001,62.0,86.0
448,97.04286839583334,98.02980826666666,50.0,78.0
449,97.93839039583334,98.09510674583333,62.0,85.0
450,97.93839039583334,98.2387634,69.0,96.0
451,97.93839039583334,98.25368876666667,66.0,127.0
452,98.16227089583333,98.3003305375,50.0,66.0
453,98.38615139583334,98.5018229875,62.0,93.0
454,98.83391239583334,99.37122559583334,71.0,95.0
455,98.83391239583334,99.54100164166667,67.0,97.0
456,98.83391239583334,99.60256877916667,55.0,90.0
457,98.83391239583334,99.638016525,62.0,95.0
458,99.72943439583334,100.12682228333334,69.0,95.0
459,99.72943439583334,100.17906106666666,54.0,79.0
460,99.72943439583334,100.2368968625,66.0,107.0
461,100.62495639583334,100.9757025125,64.0,86.0
462,100.62495639583334,100.981299525,67.0,89.0
463,100.62495639583334,101.03913532083334,71.0,86.0
464,101.29659789583333,101.608164925,59.0,58.0
465,100.62495639583334,101.876821525,52.0,67.0
466,101.74435889583333,101.876821525,59.0,89.0
467,101.52047839583334,101.92719463750001,67.0,102.0
468,101.52047839583334,101.966373725,71.0,102.0
469,101.96823939583334,102.19211989583333,62.0,88.0
470,102.19211989583333,102.2965974625,64.0,36.0
471,102.41600039583334,102.90480615416666,67.0,83.0
472,102.41600039583334,102.91413450833333,60.0,95.0
473,102.41600039583334,103.04286579583334,64.0,82.0
474,102.86376139583334,103.33577611666666,55.0,48.0
475,103.31152239583334,103.47383575833334,60.0,58.0
476,102.41600039583334,103.62868643750001,48.0,66.0
477,103.31152239583334,103.73316400416667,64.0,100.0
478,103.53540289583333,103.824581875,55.0,88.0
479,103.31152239583334,103.8525669375,67.0,95.0
480,103.75928339583334,104.02420865416667,60.0,82.0
481,103.98316389583333,104.10070115833334,64.0,69.0
482,104.20704439583334,104.87308888333334,69.0,92.0
483,104.20704439583334,104.88241723750001,62.0,90.0
484,104.20704439583334,104.89734260416667,66.0,112.0
485,104.20704439583334,105.16599920416667,50.0,73.0
486,105.32644689583334,105.42905879166666,50.0,74.0
487,105.10256639583334,105.58390947083333,66.0,127.0
488,105.10256639583334,105.60070050833333,69.0,97.0
489,105.55032739583334,105.65667063333333,62.0,93.0
490,105.99808839583334,106.43652104166667,67.0,97.0
491,105.99808839583334,106.44025238333333,71.0,95.0
492,105.99808839583334,106.45331207916666,64.0,92.0
493,106.44584939583333,106.9645058875,52.0,42.0
494,106.89361039583333,106.96823722916668,67.0,100.0
495,106.89361039583333,106.96823722916668,71.0,95.0
496,106.89361039583333,106.98316259583333,64.0,93.0
497,107.56525189583334,107.64361007083333,71.0,83.0
498,107.56525189583334,107.64547574166667,64.0,81.0
499,107.56525189583334,107.65107275416666,67.0,89.0
500,107.34137139583333,107.69584885416667,52.0,77.0
501,108.01301289583334,108.07644570416667,71.0,79.0
502,108.01301289583334,108.08763972916667,67.0,85.0
503,108.01301289583334,108.09323674166667,64.0,78.0
504,108.23689339583333,108.30032620416667,71.0,93.0
505,108.23689339583333,108.3077888875,64.0,89.0
506,108.23689339583333,108.3077888875,67.0,100.0
507,108.46077389583334,108.66413201666667,52.0,73.0
508,108.68465439583333,108.7667439125,71.0,97.0
509,108.68465439583333,108.77607226666667,67.0,107.0
510,108.68465439583333,108.7779379375,64.0,95.0
511,108.90853489583334,109.37868394583333,52.0,88.0
512,109.13241539583333,109.39920632500001,71.0,102.0
513,109.13241539583333,109.40666900833334,67.0,117.0
514,109.35629589583334,109.43651974166667,64.0,99.0
515,105.99808839583334,109.4383854125,40.0,77.0
516,109.58017639583333,109.68651963333333,64.0,102.0
517,109.58017639583333,109.70517634166667,68.0,102.0
518,109.58017639583333,109.71450469583334,61.0,99.0
519,110.47569839583333,110.52047449583334,64.0,117.0
520,110.47569839583333,110.53726553333334,61.0,107.0
521,110.47569839583333,110.53726553333334,68.0,112.0
522,109.58017639583333,110.59883267083333,49.0,95.0
523,111.14733989583334,111.20144435,64.0,99.0
524,111.14733989583334,111.20890703333333,68.0,107.0
525,111.14733989583334,111.22010105833334,61.0,99.0
526,110.92345939583333,111.30032490416667,49.0,83.0
527,111.37122039583333,111.57457851666666,49.0,33.0
528,111.59510089583334,111.64174266666667,64.0,81.0
529,111.59510089583334,111.64920535,68.0,83.0
530,111.59510089583334,111.66786205833334,61.0,88.0
531,112.04286189583334,112.26301105416667,49.0,102.0
532,112.26674239583333,112.35816026666667,64.0,112.0
533,112.26674239583333,112.36748862083334,68.0,127.0
534,109.58017639583333,112.51860795833333,37.0,95.0
535,112.49062289583334,112.63427955,49.0,95.0
536,112.71450339583333,112.74995114166667,61.0,112.0
537,113.16226439583333,113.51674185416667,59.0,102.0
538,113.16226439583333,113.53726423333333,63.0,112.0
539,113.16226439583333,113.5465925875,56.0,112.0
540,114.05778639583333,114.11189085000001,63.0,122.0
541,114.05778639583333,114.1174878625,59.0,127.0
542,114.05778639583333,114.12868188750001,56.0,127.0
543,113.16226439583333,114.2294281125,44.0,122.0
544,114.72942789583334,114.7779353375,59.0,100.0
545,114.72942789583334,114.77980100833334,63.0,112.0
546,114.72942789583334,114.79286070416667,56.0,100.0
547,114.50554739583333,114.83017412083333,44.0,90.0
548,115.17718889583334,115.24435304583334,59.0,93.0
549,115.17718889583334,115.24621871666668,63.0,90.0
550,115.17718889583334,115.2536814,56.0,97.0
551,115.62494989583334,115.88241247083333,44.0,93.0
552,115.84883039583333,115.94957662083334,56.0,102.0
553,115.84883039583333,115.94957662083334,59.0,107.0
554,115.84883039583333,115.9533079625,63.0,107.0
555,116.07271089583334,116.1659944375,44.0,100.0
556,116.29659139583333,116.34696450833333,63.0,100.0
557,116.29659139583333,116.361889875,59.0,100.0
558,116.74435239583333,117.17532235833333,57.0,100.0
559,116.74435239583333,117.1790537,61.0,127.0
560,117.63987439583333,117.72009824166668,61.0,122.0
561,117.63987439583333,117.73875495,57.0,99.0
562,116.74435239583333,117.90479965416667,54.0,96.0
563,116.74435239583333,118.43651584166668,42.0,95.0
564,118.31151589583334,118.443978525,54.0,27.0
565,118.53539639583333,118.91785891666667,66.0,107.0
566,118.53539639583333,118.92905294166667,63.0,117.0
567,118.53539639583333,118.93838129583334,59.0,93.0
568,118.53539639583333,119.51114224166668,47.0,79.0
569,119.43091839583333,119.61935115,66.0,127.0
570,119.43091839583333,119.70890335,63.0,127.0
571,119.65479889583334,119.764873475,47.0,99.0
572,119.87867939583333,119.999948,59.0,112.0
573,120.10255989583334,120.19397776666666,63.0,122.0
574,120.32644039583333,120.56711193333334,68.0,100.0
575,120.32644039583333,120.58390297083334,59.0,112.0
576,120.32644039583333,120.58949998333334,64.0,102.0
577,120.77420139583333,120.8227088375,59.0,79.0
578,120.77420139583333,120.82830585,64.0,86.0
579,120.77420139583333,120.8339028625,68.0,88.0
580,120.32644039583333,121.25554447083334,52.0,96.0
581,121.22196239583333,121.31151459583333,64.0,112.0
582,121.22196239583333,121.32457429166666,68.0,122.0
583,120.32644039583333,121.45703692083333,40.0,66.0
584,120.32644039583333,121.48688765416667,47.0,73.0
585,121.44584289583334,121.5615144875,59.0,63.0
586,121.89360389583334,121.97196207083334,68.0,117.0
587,121.89360389583334,121.981290425,64.0,122.0
588,121.66972339583333,122.47942453750001,52.0,89.0
589,122.34136489583334,122.48315587916667,68.0,100.0
590,122.34136489583334,122.48502155,64.0,97.0
591,121.66972339583333,122.60069314166667,40.0,61.0
592,121.66972339583333,122.62867820416668,47.0,92.0
593,122.56524539583333,122.69584235416667,59.0,58.0
594,122.78912589583334,123.05405115416667,52.0,77.0
595,122.78912589583334,123.10815560833333,47.0,77.0
596,122.78912589583334,123.1174839625,40.0,59.0
597,123.23688689583334,123.27606598333334,47.0,41.0
598,123.01300639583333,123.37121519583333,64.0,127.0
599,123.23688689583334,123.38240922083334,52.0,99.0
600,123.01300639583333,123.42718532083333,68.0,127.0
601,123.46076739583333,123.60442405,59.0,107.0
602,123.68464789583334,123.80591650000001,61.0,86.0
603,123.90852839583333,124.32830433333334,57.0,100.0
604,123.90852839583333,124.35815506666667,64.0,97.0
605,123.90852839583333,124.36375207916667,61.0,107.0
606,124.35628939583333,124.82084143333334,52.0,59.0
607,123.90852839583333,125.138005475,45.0,90.0
608,125.02793089583334,125.14173681666666,52.0,86.0
609,124.80405039583333,125.19210992916668,61.0,127.0
610,124.80405039583333,125.21636365,64.0,100.0
611,125.25181139583334,125.36002030416667,57.0,102.0
612,125.47569189583334,125.56151275416667,61.0,117.0
613,125.69957239583334,126.3973332875,59.0,83.0
614,125.69957239583334,126.43278103333334,63.0,127.0
615,125.69957239583334,126.63987049583334,54.0,89.0
616,125.69957239583334,126.8954674,47.0,63.0
617,126.81897489583334,126.91598977916667,54.0,97.0
618,126.59509439583334,126.98315392916668,63.0,127.0
619,126.59509439583334,127.11561655833333,66.0,127.0
620,127.04285539583334,127.34695974166667,59.0,107.0
621,127.26673589583334,127.37867614583334,63.0,100.0
622,127.49061639583334,127.83763117083333,64.0,112.0
623,127.49061639583334,127.87121324583333,59.0,97.0
624,127.49061639583334,127.89173562500001,68.0,117.0
625,127.49061639583334,128.0652430125,40.0,81.0
626,128.38613839583334,128.66225767916666,42.0,112.0
627,128.38613839583334,128.71263079166667,69.0,107.0
628,128.38613839583334,128.72195914583332,66.0,97.0
629,128.38613839583334,128.72755615833333,73.0,127.0
630,129.28166039583334,129.727555725,67.0,96.0
631,129.28166039583334,129.73688407916666,62.0,97.0
632,129.28166039583334,129.73874975,71.0,95.0
633,129.95330189583333,130.21822715416667,55.0,86.0
634,130.17718239583334,130.50367479166667,67.0,122.0
635,129.727555725,130.511137475,50.0,62.0
636,130.40106289583335,130.51860015833333,55.0,107.0
637,129.28166039583334,130.56337625833334,43.0,102.0
638,130.17718239583334,130.5838986375,71.0,122.0
639,130.62494339583333,130.72195827916667,62.0,102.0
640,131.07270439583334,131.5969579,60.0,97.0
641,131.07270439583334,131.5969579,64.0,96.0
642,131.07270439583334,131.6137489375,57.0,102.0
643,131.96822639583334,132.04845024166667,57.0,99.0
644,131.96822639583334,132.04845024166667,60.0,99.0
645,131.96822639583334,132.0615099375,64.0,96.0
646,131.52046539583333,132.0950920125,52.0,69.0
647,132.63986789583333,132.7107633875,57.0,99.0
648,132.63986789583333,132.7107633875,60.0,102.0
649,132.63986789583333,132.7107633875,64.0,96.0
650,132.41598739583333,132.79844991666667,52.0,52.0
651,132.86374839583334,133.13240499583333,52.0,41.0
652,133.08762889583335,133.16598707083332,60.0,93.0
653,133.08762889583335,133.17158408333333,57.0,86.0
654,133.08762889583335,133.17158408333333,64.0,82.0
655,133.53538989583333,133.80404649583335,52.0,79.0
656,133.75927039583334,133.8973300375,60.0,97.0
657,133.75927039583334,133.9533001625,57.0,89.0
658,133.75927039583334,133.9533001625,64.0,93.0
659,131.07270439583334,134.02232998333335,45.0,77.0
660,133.98315089583335,134.07456876666666,52.0,92.0
661,134.20703139583333,134.30777762083335,64.0,90.0
662,134.20703139583333,134.32643432916666,60.0,100.0
663,134.43091189583333,134.54844915833334,57.0,75.0
664,134.65479239583334,135.35628462916668,57.0,107.0
665,134.65479239583334,135.36747865416666,66.0,107.0
666,134.65479239583334,135.3749413375,62.0,102.0
667,134.65479239583334,135.5764337875,50.0,95.0
668,134.65479239583334,135.59695616666667,38.0,66.0
669,134.65479239583334,135.638000925,45.0,100.0
670,135.55031439583334,135.82083666666668,66.0,127.0
671,135.55031439583334,135.82643367916668,62.0,122.0
672,135.99807539583333,136.13426936666667,62.0,107.0
673,135.77419489583335,136.264866325,38.0,69.0
674,135.99807539583333,136.29658272916666,66.0,127.0
675,136.22195589583333,136.2984484,62.0,42.0
676,135.77419489583335,136.30217974166666,50.0,92.0
677,135.77419489583335,136.3152394375,45.0,92.0
678,136.22195589583333,136.3488215125,57.0,88.0
679,136.44583639583334,138.14173118333335,50.0,95.0
680,136.44583639583334,138.1958356375,45.0,102.0
681,136.44583639583334,138.19956697916666,57.0,107.0
682,136.44583639583334,138.20516399166667,62.0,102.0
683,136.44583639583334,138.2182236875,38.0,85.0
684,136.44583639583334,138.22008935833333,66.0,112.0
685,138.23688039583334,139.48687985416666,43.0,69.0
686,138.23688039583334,139.49993955,71.0,77.0
687,138.23688039583334,139.50926790416668,67.0,82.0
688,138.23688039583334,139.55777534583333,62.0,90.0
689,140.02792439583334,141.0727000625,42.0,58.0
690,140.02792439583334,141.08762542916668,66.0,69.0
691,140.02792439583334,141.0894911,62.0,74.0
692,140.02792439583334,141.10255079583334,69.0,67.0
693,141.81896839583334,142.50740093333334,64.0,58.0
694,141.81896839583334,142.52419197083333,67.0,63.0
695,141.81896839583334,142.533520325,71.0,65.0
696,142.71449039583334,142.802176925,67.0,50.0
697,142.71449039583334,142.82269930416666,71.0,47.0
698,142.71449039583334,142.82456497500002,64.0,45.0
699,143.38613189583333,143.65665416666667,52.0,59.0
700,143.61001239583334,143.72754965833334,67.0,72.0
701,143.61001239583334,143.73501234166667,64.0,71.0
702,143.61001239583334,143.75180337916666,71.0,72.0
703,143.83389289583334,143.99620625833333,52.0,55.0
704,144.28165389583333,144.55777317916667,52.0,53.0
705,141.81896839583334,144.78351935,40.0,58.0
706,144.72941489583334,144.83202679166666,52.0,66.0
707,144.50553439583334,144.91971332083332,67.0,95.0
708,144.50553439583334,144.93090734583333,71.0,95.0
709,144.95329539583332,145.02045954583335,64.0,92.0
710,145.40105639583334,145.83389202916666,60.0,92.0
711,145.40105639583334,145.86747410416666,64.0,76.0
712,145.40105639583334,145.8973248375,67.0,76.0
713,146.29657839583334,146.60068274166667,64.0,88.0
714,146.29657839583334,146.6417275,67.0,85.0
715,145.40105639583334,147.055906425,48.0,65.0
716,146.96821989583333,147.2070257625,55.0,53.0
717,147.19210039583334,147.705159875,66.0,85.0
718,147.19210039583334,147.72381658333333,62.0,79.0
719,147.19210039583334,147.73314493750001,69.0,69.0
720,147.19210039583334,148.24620441666667,50.0,59.0
721,148.08762239583334,148.58015949583333,69.0,81.0
722,148.08762239583334,148.58575650833333,66.0,107.0
723,148.53538339583335,148.65292065833333,62.0,67.0
724,148.98314439583334,149.38239795416666,62.0,90.0
725,148.98314439583334,149.39359197916667,71.0,77.0
726,148.98314439583334,149.40292033333333,67.0,86.0
727,149.87866639583333,149.999935,62.0,78.0
728,149.87866639583333,150.00739768333332,71.0,75.0
729,149.87866639583333,150.02978573333334,67.0,90.0
730,150.55030789583333,150.65291979166668,62.0,56.0
731,150.77418839583333,151.54657612083335,71.0,73.0
732,150.77418839583333,151.54844179166668,65.0,85.0
733,150.77418839583333,151.55217313333333,62.0,63.0
734,150.77418839583333,151.56336715833334,67.0,79.0
735,150.77418839583333,151.7517999125,55.0,55.0
736,148.98314439583334,151.958889375,43.0,66.0
737,151.89359089583334,151.96262071666666,55.0,75.0
738,151.66971039583333,152.05776992916668,65.0,92.0
739,151.66971039583333,152.06336694166666,71.0,96.0
740,151.66971039583333,152.08388932083335,67.0,99.0
741,152.11747139583335,152.18650121666667,62.0,92.0
742,152.56523239583333,153.1286649875,60.0,89.0
743,152.56523239583333,153.23873956666668,71.0,70.0
744,152.56523239583333,153.25553060416667,64.0,76.0
745,152.56523239583333,153.26672462916667,67.0,72.0
746,152.56523239583333,153.73500800833332,48.0,72.0
747,153.68463489583334,153.8115005125,55.0,79.0
748,153.46075439583333,153.84321691666668,71.0,78.0
749,153.46075439583333,153.8674706375,67.0,92.0
750,153.46075439583333,153.8898586875,64.0,93.0
751,153.90851539583335,154.00739595000002,60.0,83.0
752,154.35627639583333,154.90664929166667,62.0,89.0
753,154.35627639583333,154.91038063333335,69.0,79.0
754,154.35627639583333,154.92903734166666,66.0,96.0
755,155.02791789583333,155.08575369166667,66.0,26.0
756,154.35627639583333,155.27978345833333,57.0,61.0
757,154.35627639583333,155.53911170416666,50.0,70.0
758,155.47567889583334,155.56149975416668,57.0,72.0
759,155.25179839583333,155.6473206125,66.0,127.0
760,155.25179839583333,155.76299220416666,69.0,93.0
761,155.69955939583335,155.82269367083333,62.0,95.0
762,156.14732039583333,156.5652306625,43.0,71.0
763,156.14732039583333,156.63612615416667,71.0,90.0
764,156.14732039583333,156.78164847916668,67.0,93.0
765,156.14732039583333,157.00552897916668,62.0,92.0
766,157.04284239583333,157.34508107083334,42.0,62.0
767,157.04284239583333,157.47381235833333,69.0,72.0
768,157.04284239583333,157.48687205416667,66.0,93.0
769,157.93836439583333,158.45888655833335,67.0,76.0
770,157.93836439583333,158.46075222916667,64.0,77.0
771,157.93836439583333,158.47754326666666,71.0,76.0
772,158.38612539583335,158.82455804166668,52.0,30.0
773,157.93836439583333,159.09321464166666,40.0,71.0
774,159.05776689583334,159.21448324583335,52.0,75.0
775,158.83388639583333,159.22008025833333,67.0,100.0
776,158.83388639583333,159.24993099166667,71.0,97.0
777,159.28164739583335,159.5092592375,62.0,86.0
778,159.50552789583332,159.68649796666668,64.0,50.0
779,159.72940839583333,160.21634848333335,67.0,77.0
780,159.72940839583333,160.22381116666668,60.0,89.0
781,159.72940839583333,160.2592589125,64.0,72.0
782,160.40104989583332,160.48127374166668,64.0,25.0
783,159.72940839583333,161.03164663750002,48.0,67.0
784,160.84881089583334,161.06149737083334,55.0,52.0
785,160.62493039583333,161.09507944583333,64.0,95.0
786,160.62493039583333,161.10813914166667,67.0,90.0
787,161.07269139583335,161.1995570125,60.0,86.0
788,161.52045239583333,162.1846312125,62.0,90.0
789,161.52045239583333,162.18836255416667,69.0,79.0
790,161.52045239583333,162.2182132875,66.0,95.0
791,161.52045239583333,162.47381019166667,57.0,75.0
792,162.63985489583334,162.72567575416667,57.0,62.0
793,161.52045239583333,162.73686977916668,50.0,75.0
794,162.41597439583333,162.884257775,66.0,112.0
795,162.41597439583333,162.884257775,69.0,81.0
796,162.86373539583334,162.96261595,62.0,86.0
797,163.309630725,163.54843659166667,67.0,83.0
798,163.309630725,163.55403360416668,64.0,79.0
799,163.309630725,163.55963061666668,71.0,85.0
800,163.75925739583334,163.91597374583333,67.0,69.0
801,163.75925739583334,163.94955582083333,71.0,69.0
802,163.75925739583334,163.95515283333333,64.0,62.0
803,163.309630725,163.958884175,40.0,86.0
804,163.75925739583334,164.00552594583334,52.0,52.0
805,164.20701839583333,164.41970487083333,40.0,71.0
806,164.20701839583333,164.42530188333333,52.0,89.0
807,164.20701839583333,164.47194365416667,64.0,85.0
808,164.20701839583333,164.48500335,67.0,85.0
809,164.65477939583334,164.82828678333334,59.0,86.0
810,164.65477939583334,164.82828678333334,64.0,90.0
811,164.65477939583334,164.85254050416668,52.0,86.0
812,164.65477939583334,164.88985392083333,40.0,70.0
813,164.65477939583334,164.921570325,67.0,85.0
814,165.10254039583333,165.29843583333334,59.0,95.0
815,165.10254039583333,165.35440595833333,64.0,96.0
816,165.10254039583333,165.37119699583334,52.0,97.0
817,165.10254039583333,165.38239102083332,67.0,90.0
818,165.10254039583333,165.38798803333333,40.0,76.0
819,165.55030139583334,165.66410731666667,64.0,90.0
820,165.55030139583334,165.67903268333333,59.0,90.0
821,165.55030139583334,165.68836103750002,67.0,86.0
822,165.55030139583334,165.69582372083335,52.0,85.0
823,165.55030139583334,165.76485354166667,40.0,73.0
824,165.99806239583333,166.14918173333334,59.0,93.0
825,165.99806239583333,166.25552497083333,52.0,100.0
826,165.99806239583333,166.2592563125,40.0,79.0
827,165.99806239583333,166.264853325,64.0,95.0
828,165.99806239583333,166.27977869166668,67.0,92.0
829,166.44582339583334,166.6958232875,59.0,97.0
830,166.44582339583334,166.7070173125,52.0,102.0
831,166.44582339583334,166.71634566666668,64.0,96.0
832,166.44582339583334,166.72194267916666,40.0,88.0
833,166.44582339583334,166.72194267916666,67.0,96.0
834,166.89358439583333,167.19022605833334,36.0,112.0
835,166.89358439583333,167.249927525,64.0,93.0
836,166.89358439583333,167.25179319583333,67.0,86.0
837,166.89358439583333,167.2555245375,60.0,95.0
838,167.34134539583334,167.53910650416668,36.0,95.0
839,167.78910639583333,167.86746457083333,64.0,100.0
840,167.78910639583333,167.87492725416666,60.0,102.0
841,167.78910639583333,167.88052426666667,67.0,95.0
842,166.89358439583333,167.88985262083332,48.0,72.0
843,167.78910639583333,167.94022573333334,36.0,112.0
844,168.23686739583334,168.41597179583334,36.0,93.0
845,168.46074789583335,168.56895680416667,55.0,85.0
846,168.46074789583335,168.61186723333333,48.0,78.0
847,168.68462839583333,168.82828505,38.0,112.0
848,168.68462839583333,168.94209097083333,62.0,89.0
849,168.68462839583333,168.94768798333334,69.0,96.0
850,168.68462839583333,168.9682103625,66.0,102.0
851,169.13238939583334,169.2032848875,66.0,96.0
852,169.13238939583334,169.2032848875,69.0,79.0
853,169.13238939583334,169.21261324166667,62.0,79.0
854,169.13238939583334,169.264852025,38.0,95.0
855,168.68462839583333,169.6734339375,50.0,127.0
856,169.58015039583333,169.72194137916668,38.0,107.0
857,169.58015039583333,169.86000102083332,66.0,127.0
858,169.58015039583333,169.86000102083332,69.0,102.0
859,169.80403089583334,169.87679205833334,50.0,100.0
860,170.02791139583334,170.09694121666666,69.0,75.0
861,170.02791139583334,170.17903073333335,66.0,127.0
862,170.02791139583334,170.26485159166668,38.0,112.0
863,170.25179189583335,170.3674634875,62.0,82.0
864,170.47567239583333,170.66783649166666,43.0,100.0
865,170.47567239583333,170.66783649166666,55.0,100.0
866,170.47567239583333,170.77604540000002,62.0,107.0
867,170.47567239583333,170.99246321666666,67.0,107.0
868,170.47567239583333,171.02044827916666,71.0,112.0
869,170.92343339583334,171.1622392625,43.0,99.0
870,170.92343339583334,171.1622392625,55.0,99.0
871,170.92343339583334,171.27231384166666,62.0,97.0
872,171.14731389583335,171.27231384166666,67.0,96.0
873,171.37119439583333,171.60440325,42.0,112.0
874,171.37119439583333,171.60440325,54.0,112.0
875,171.37119439583333,171.87492552083333,69.0,95.0
876,171.81895539583334,172.06149260416666,42.0,112.0
877,171.81895539583334,172.06149260416666,54.0,112.0
878,171.37119439583333,172.1473134625,66.0,127.0
879,172.26671639583333,172.555895375,40.0,95.0
880,172.71447739583334,172.97193997083335,40.0,95.0
881,172.26671639583333,172.97193997083335,71.0,102.0
882,172.26671639583333,172.99059667916666,64.0,85.0
883,172.26671639583333,172.99992503333334,67.0,102.0
884,172.93835789583335,173.20328315416668,52.0,65.0
885,173.16223839583333,173.34880547916666,64.0,95.0
886,173.16223839583333,173.406641275,40.0,96.0
887,172.71447739583334,173.48499945,47.0,59.0
888,173.16223839583333,173.64358147083334,71.0,117.0
889,173.16223839583333,173.65664116666667,67.0,127.0
890,173.38611889583333,173.66410385,52.0,102.0
891,173.60999939583334,173.81708885833334,40.0,107.0
892,173.60999939583334,173.854402275,62.0,100.0
893,174.05776039583333,174.31708864166666,36.0,93.0
894,174.05776039583333,174.6211929875,60.0,99.0
895,174.05776039583333,174.63425268333333,64.0,96.0
896,174.05776039583333,174.749924275,67.0,93.0
897,174.50552139583334,174.75552128750002,36.0,93.0
898,174.95328239583333,175.17343155416668,36.0,92.0
899,174.95328239583333,175.45701352083333,67.0,100.0
900,174.05776039583333,175.5950731625,48.0,70.0
901,175.40104339583334,175.61559554166666,36.0,102.0
902,174.95328239583333,175.69768505833335,60.0,97.0
903,174.95328239583333,175.7405954875,64.0,107.0
904,175.62492389583335,175.7909686,55.0,66.0
905,175.84880439583333,176.01671477083335,38.0,96.0
906,176.29656539583334,176.46074442916668,38.0,95.0
907,175.84880439583333,176.51484888333334,62.0,97.0
908,175.84880439583333,176.54656528750002,69.0,97.0
909,175.84880439583333,176.56522199583333,66.0,112.0
910,176.29656539583334,176.81149054583335,57.0,82.0
911,176.74432639583333,176.9103711,38.0,100.0
912,175.84880439583333,177.06708745,50.0,99.0
913,176.96820689583333,177.06895312083333,57.0,93.0
914,176.74432639583333,177.15663965000002,66.0,127.0
915,176.74432639583333,177.26484855833334,69.0,112.0
916,177.19208739583334,177.36932612500001,38.0,112.0
917,177.19208739583334,177.38425149166667,62.0,100.0
918,177.41596789583335,177.45701265416668,67.0,33.0
919,177.63984839583333,177.89731097083333,40.0,100.0
920,177.63984839583333,178.09507207916667,67.0,117.0
921,177.63984839583333,178.09880342083335,71.0,102.0
922,177.63984839583333,178.12119147083334,64.0,99.0
923,178.08760939583334,178.26298245416666,40.0,92.0
924,178.53537039583333,178.60999722916668,67.0,117.0
925,178.53537039583333,178.60999722916668,71.0,112.0
926,178.31148989583335,178.6174599125,52.0,43.0
927,178.53537039583333,178.6174599125,64.0,100.0
928,178.53537039583333,178.6734300375,40.0,117.0
929,178.08760939583334,178.67529570833335,47.0,58.0
930,178.98313139583334,179.10626567083332,40.0,107.0
931,179.20701189583335,179.2891014125,67.0,112.0
932,179.20701189583335,179.29842976666666,64.0,100.0
933,179.20701189583335,179.30775812083334,71.0,100.0
934,178.98313139583334,179.35253422083335,52.0,76.0
935,179.43089239583333,179.54469831666668,40.0,99.0
936,179.65477289583333,179.74619076666667,67.0,96.0
937,179.65477289583333,179.76111613333333,64.0,95.0
938,179.43089239583333,179.77417582916667,52.0,77.0
939,179.65477289583333,179.77790717083334,71.0,86.0
940,179.87865339583334,179.98686230416666,40.0,112.0
941,179.87865339583334,180.01857870833334,52.0,46.0
942,180.10253389583335,180.18089207083332,67.0,95.0
943,180.10253389583335,180.18648908333333,64.0,95.0
944,180.10253389583335,180.190220425,71.0,92.0
945,178.98313139583334,180.24805622083335,47.0,69.0
946,180.32641439583332,180.41596659583334,52.0,99.0
947,180.32641439583332,180.42156360833334,47.0,65.0
948,180.32641439583332,180.42529495,40.0,42.0
949,180.32641439583332,180.42529495,40.0,117.0
950,180.32641439583332,180.4980561125,64.0,96.0
951,180.32641439583332,180.55775757916666,67.0,107.0
952,180.32641439583332,180.570817275,71.0,100.0
953,180.55029489583333,180.6435784375,40.0,112.0
954,180.77417539583334,180.81895149583335,71.0,59.0
955,180.77417539583334,180.82641417916668,67.0,79.0
956,180.77417539583334,180.87119027916668,40.0,107.0
957,180.77417539583334,180.92716040416667,64.0,100.0
958,180.99805589583335,181.06708571666667,40.0,117.0
959,181.220070725,181.46820494583335,33.0,97.0
960,181.220070725,181.52604074166666,57.0,99.0
961,181.220070725,181.53536909583335,61.0,122.0
962,181.44581689583333,181.53536909583335,61.0,97.0
963,181.220070725,181.5391004375,64.0,95.0
964,181.66969739583334,181.8973092375,33.0,102.0
965,181.66969739583334,182.03350320833334,57.0,90.0
966,181.66969739583334,182.048428575,64.0,89.0
967,181.66969739583334,182.1771598625,52.0,40.0
968,182.11745839583332,182.25924937916668,57.0,97.0
969,182.11745839583332,182.25924937916668,57.0,97.0
970,182.11745839583332,182.34880157916666,33.0,97.0
971,182.11745839583332,182.38238365416666,61.0,112.0
972,182.11745839583332,182.38238365416666,61.0,122.0
973,182.11745839583332,182.38238365416666,64.0,96.0
974,182.11745839583332,182.38238365416666,64.0,97.0
975,181.220070725,182.42715975416667,45.0,68.0
976,182.34133889583333,182.451413475,52.0,97.0
977,182.56521939583334,182.74432379583334,57.0,58.0
978,182.56521939583334,182.74432379583334,57.0,90.0
979,182.56521939583334,182.79656257916668,33.0,99.0
980,182.78909989583335,182.8823834375,61.0,81.0
981,183.01298039583332,183.2070101625,32.0,107.0
982,183.01298039583332,183.47006975,61.0,112.0
983,183.46074139583334,183.64171146666666,32.0,112.0
984,183.46074139583334,183.92715910416666,56.0,75.0
985,183.90850239583332,184.09693515,32.0,122.0
986,184.13238289583333,184.20141271666668,56.0,72.0
987,183.90850239583332,184.20700972916666,61.0,122.0
988,183.90850239583332,184.21074107083334,64.0,100.0
989,183.01298039583332,184.46820364583334,44.0,127.0
990,184.35626339583334,184.5950692625,32.0,122.0
991,184.58014389583334,184.6846214625,61.0,72.0
992,184.35626339583334,184.6958154875,64.0,56.0
993,184.80402439583332,185.08200935,30.0,112.0
994,184.80402439583332,185.249919725,57.0,112.0
995,184.80402439583332,185.26297942083335,61.0,107.0
996,185.25178539583334,185.50924797083334,30.0,112.0
997,185.69954639583332,185.80029262083335,57.0,107.0
998,185.69954639583332,185.80029262083335,61.0,127.0
999,185.69954639583332,185.80775530416668,66.0,122.0
1000,185.25178539583334,185.82827768333334,54.0,55.0
1001,185.69954639583332,185.94021793333334,30.0,107.0
1002,186.14730739583334,186.35999387083334,30.0,96.0
1003,186.37118789583334,186.4476804,61.0,117.0
1004,186.37118789583334,186.4532774125,57.0,93.0
1005,186.37118789583334,186.45514308333333,66.0,99.0
1006,186.59506839583335,186.8226802375,30.0,99.0
1007,186.14730739583334,186.89730707083334,54.0,81.0
1008,186.81894889583333,187.05402342083335,57.0,90.0
1009,186.81894889583333,187.21633678333333,66.0,99.0
1010,186.81894889583333,187.22379946666666,61.0,117.0
1011,187.04282939583334,187.27603825,30.0,100.0
1012,187.26670989583334,187.50365009166666,54.0,77.0
1013,187.49059039583335,187.667829125,57.0,92.0
1014,187.49059039583335,187.6958141875,30.0,102.0
1015,187.49059039583335,187.71447089583333,61.0,122.0
1016,187.49059039583335,187.734993275,66.0,122.0
1017,184.80402439583332,187.7517843125,42.0,127.0
1018,187.71447089583333,187.79282907083333,54.0,100.0
1019,187.93835139583334,188.08014237916666,66.0,97.0
1020,187.93835139583334,188.10253042916668,61.0,127.0
1021,187.93835139583334,188.15663488333334,30.0,122.0
1022,188.16223189583334,188.24059007083335,57.0,72.0
1023,188.38611239583335,188.652903325,38.0,99.0
1024,188.38611239583335,188.76857491666667,57.0,117.0
1025,188.38611239583335,188.79842565,66.0,112.0
1026,188.38611239583335,188.80588833333334,62.0,102.0
1027,188.83387339583334,189.0838732875,38.0,100.0
1028,188.83387339583334,189.28909707916668,50.0,45.0
1029,189.28163439583335,189.41036568333334,57.0,100.0
1030,189.28163439583335,189.51111190833333,38.0,112.0
1031,189.28163439583335,189.53909697083333,66.0,127.0
1032,189.28163439583335,189.54469398333333,62.0,127.0
1033,189.50551489583333,189.64544020833333,50.0,95.0
1034,189.72939539583334,189.79096253333333,62.0,99.0
1035,189.72939539583334,189.8114849125,66.0,100.0
1036,189.72939539583334,190.00924602083333,38.0,107.0
1037,190.17715639583335,190.44767866666666,40.0,127.0
1038,190.17715639583335,190.6118577,59.0,102.0
1039,190.17715639583335,190.66036514166666,64.0,107.0
1040,190.17715639583335,190.6734248375,68.0,112.0
1041,190.62491739583334,190.87118594583333,40.0,117.0
1042,190.62491739583334,191.1211858375,52.0,82.0
1043,191.07267839583335,191.26857383333333,59.0,96.0
1044,191.07267839583335,191.294693225,40.0,127.0
1045,191.294693225,191.45514091666666,52.0,93.0
1046,191.07267839583335,191.46073792916667,64.0,117.0
1047,191.07267839583335,191.48126030833333,68.0,122.0
1048,191.52043939583334,191.61185726666668,59.0,93.0
1049,191.52043939583334,191.75737959166668,40.0,127.0
1050,191.74431989583334,191.78909599583335,61.0,50.0
1051,191.96820039583335,192.06894662083334,57.0,100.0
1052,191.96820039583335,192.26484205833333,33.0,102.0
1053,191.96820039583335,192.39543901666667,61.0,127.0
1054,191.96820039583335,192.4980509125,45.0,97.0
1055,191.96820039583335,192.49991658333334,64.0,97.0
1056,192.41596139583334,192.63051354166666,57.0,97.0
1057,192.41596139583334,192.67528964166667,33.0,100.0
1058,192.63984189583334,192.75737915833335,61.0,99.0
1059,192.86372239583335,193.13797600833334,32.0,102.0
1060,192.86372239583335,193.1473043625,56.0,107.0
1061,192.86372239583335,193.2984237,44.0,112.0
1062,193.31148339583333,193.40290126666667,61.0,93.0
1063,193.53536389583334,193.59319969166668,61.0,90.0
1064,193.31148339583333,193.61372207083335,32.0,100.0
1065,193.75924439583335,194.0596174,30.0,102.0
1066,193.75924439583335,194.25178149583334,61.0,122.0
1067,193.75924439583335,194.44394559166668,57.0,102.0
1068,194.43088589583334,194.46260230000001,61.0,34.0
1069,194.20700539583333,194.48312467916668,30.0,95.0
1070,193.75924439583335,194.64543804166667,54.0,92.0
1071,194.65476639583335,194.9047662875,30.0,102.0
1072,193.75924439583335,194.95140805833333,42.0,107.0
1073,194.87864689583333,194.9719304375,54.0,99.0
1074,194.65476639583335,194.99991550000001,61.0,117.0
1075,194.65476639583335,195.23125868333335,66.0,117.0
1076,195.10252739583333,195.391706375,30.0,112.0
1077,195.10252739583333,195.39543771666666,57.0,117.0
1078,195.32640789583334,195.44954217083333,61.0,112.0
1079,195.55028839583335,195.85439274166666,38.0,122.0
1080,195.55028839583335,196.09319860833332,66.0,107.0
1081,195.55028839583335,196.1025269625,57.0,99.0
1082,195.55028839583335,196.11372098750002,62.0,102.0
1083,195.99804939583333,196.28536270416666,38.0,99.0
1084,196.22192989583334,196.28536270416666,62.0,32.0
1085,195.99804939583333,196.50924320416667,50.0,44.0
1086,196.44581039583335,196.69954162916667,38.0,127.0
1087,196.66969089583333,196.8189445625,50.0,70.0
1088,196.44581039583335,196.8525266375,62.0,122.0
1089,196.44581039583335,196.91782511666668,66.0,127.0
1090,196.89357139583333,196.97752658333334,57.0,96.0
1091,196.89357139583333,197.1323772625,38.0,107.0
1092,197.34133239583335,197.61558600833334,40.0,127.0
1093,197.34133239583335,197.88051126666667,59.0,102.0
1094,197.78909339583333,198.04095895833333,40.0,117.0
1095,197.34133239583335,198.04282462916666,64.0,100.0
1096,197.34133239583335,198.04282462916666,68.0,117.0
1097,197.78909339583333,198.29095885,52.0,66.0
1098,198.23685439583335,198.44021251666666,40.0,127.0
1099,198.23685439583335,198.74245119166667,68.0,127.0
1100,198.23685439583335,198.749913875,64.0,117.0
1101,198.46073489583333,198.84319741666667,52.0,89.0
1102,198.68461539583333,198.87677949166667,40.0,127.0
1103,198.68461539583333,198.95513766666667,59.0,102.0
1104,199.13237639583335,199.3599882375,33.0,107.0
1105,199.13237639583335,199.57640605416668,45.0,102.0
1106,199.13237639583335,199.58946575000002,61.0,122.0
1107,199.13237639583335,199.70513734166667,64.0,99.0
1108,199.58013739583333,199.80401789583334,33.0,99.0
1109,199.58013739583333,199.824540275,57.0,95.0
1110,199.80401789583334,199.96259991666668,61.0,100.0
1111,200.02789839583335,200.28162962916667,32.0,117.0
1112,200.02789839583335,200.40476390416666,56.0,97.0
1113,200.02789839583335,200.4793907375,44.0,117.0
1114,200.47565939583333,200.75737569166668,32.0,112.0
1115,200.92342039583335,201.2070023625,30.0,112.0
1116,200.92342039583335,201.41968883750002,61.0,112.0
1117,200.92342039583335,201.63050964166666,57.0,99.0
1118,201.37118139583333,201.65289769166668,30.0,100.0
1119,200.92342039583335,201.84133044583334,54.0,99.0
1120,201.81894239583335,202.06147960416666,30.0,102.0
1121,202.04282289583332,202.12304674166668,54.0,99.0
1122,200.92342039583335,202.13237509583334,42.0,102.0
1123,201.81894239583335,202.27416607916666,61.0,127.0
1124,201.81894239583335,202.38237498750001,66.0,117.0
1125,202.26670339583333,202.46446450416667,30.0,112.0
1126,202.26670339583333,202.61558384166668,57.0,100.0
1127,202.71446439583335,202.90289715,50.0,122.0
1128,202.71446439583335,202.9756583125,38.0,117.0
1129,203.16222539583333,203.33759845416668,50.0,107.0
1130,202.71446439583335,203.37677754166668,57.0,81.0
1131,203.16222539583333,203.41968797083334,38.0,95.0
1132,202.71446439583335,203.45700138750001,62.0,97.0
1133,202.71446439583335,203.46073272916666,66.0,100.0
1134,203.60998639583335,203.809613175,50.0,122.0
1135,203.60998639583335,203.85625494583334,38.0,127.0
1136,203.60998639583335,204.02416532083333,62.0,102.0
1137,203.60998639583335,204.04655337083335,66.0,112.0
1138,203.60998639583335,204.19207569583332,57.0,93.0
1139,204.05774739583333,204.28349356666666,38.0,117.0
1140,204.05774739583333,204.39356814583334,50.0,73.0
1141,204.50550839583335,204.73685157916668,40.0,122.0
1142,204.50550839583335,205.02229921666668,59.0,97.0
1143,204.50550839583335,205.19394093333335,68.0,102.0
1144,204.50550839583335,205.19953794583333,64.0,99.0
1145,204.95326939583333,205.22192599583335,40.0,122.0
1146,204.95326939583333,205.43461247083334,52.0,82.0
1147,205.40103039583335,205.6398362625,40.0,122.0
1148,205.62491089583332,205.7853585875,52.0,90.0
1149,205.40103039583335,205.82267200416666,64.0,127.0
1150,205.40103039583335,205.85065706666668,68.0,127.0
1151,205.84879139583333,205.93274658333334,59.0,97.0
1152,205.84879139583333,206.08013457916667,40.0,107.0
1153,206.29655239583334,206.57453735,30.0,117.0
1154,206.29655239583334,206.78908949583334,61.0,122.0
1155,206.29655239583334,206.79282083750002,57.0,112.0
1156,206.74431339583333,207.00177597083334,30.0,112.0
1157,206.96819389583334,207.04468640000002,66.0,73.0
1158,206.96819389583334,207.055880425,61.0,90.0
1159,206.96819389583334,207.05961176666668,57.0,82.0
1160,206.74431339583333,207.3189400125,54.0,95.0
1161,207.19207439583334,207.3189400125,61.0,127.0
1162,207.19207439583334,207.33386537916667,57.0,102.0
1163,207.19207439583334,207.33386537916667,66.0,122.0
1164,207.19207439583334,207.35625342916669,30.0,112.0
1165,207.63983539583333,207.83759650416667,30.0,117.0
1166,207.86371589583334,207.9346113875,61.0,127.0
1167,207.86371589583334,207.94207407083334,66.0,102.0
1168,207.86371589583334,207.94767108333335,57.0,102.0
1169,208.08759639583334,208.22752170833334,30.0,112.0
1170,208.31147689583335,208.40476043750002,61.0,117.0
1171,208.31147689583335,208.41035745,57.0,93.0
1172,208.31147689583335,208.42341714583333,66.0,97.0
1173,207.63983539583333,208.44020818333334,54.0,97.0
1174,208.53535739583333,208.7517752125,30.0,117.0
1175,208.75923789583334,209.03722285,54.0,93.0
1176,208.98311839583334,209.10065565833335,30.0,127.0
1177,208.98311839583334,209.11184968333333,61.0,127.0
1178,208.98311839583334,209.13423773333335,66.0,122.0
1179,208.98311839583334,209.13983474583333,57.0,95.0
1180,209.20699889583335,209.31334213333335,30.0,112.0
1181,209.20699889583335,209.3562525625,54.0,99.0
1182,206.29655239583334,209.39729732083333,42.0,117.0
1183,209.43087939583333,209.54281964583333,30.0,117.0
1184,209.43087939583333,209.56520769583335,61.0,127.0
1185,209.43087939583333,209.57640172083333,66.0,112.0
1186,209.65475989583334,209.75550612083333,57.0,89.0
1187,209.65475989583334,209.77789417083335,30.0,127.0
1188,209.87864039583334,210.18274474166668,38.0,122.0
1189,209.87864039583334,210.61184903333333,57.0,122.0
1190,210.32640139583333,210.61371470416668,38.0,99.0
1191,209.87864039583334,210.61371470416668,66.0,117.0
1192,209.87864039583334,210.62490872916666,62.0,122.0
1193,209.87864039583334,210.8450578875,50.0,97.0
1194,210.77416239583334,211.02789362916667,38.0,127.0
1195,210.77416239583334,211.04468466666668,66.0,127.0
1196,210.77416239583334,211.05961003333334,62.0,122.0
1197,210.77416239583334,211.07826674166668,57.0,112.0
1198,210.99804289583335,211.11558015833333,50.0,96.0
1199,211.22192339583333,211.3152069375,62.0,112.0
1200,211.22192339583333,211.34692334166667,66.0,112.0
1201,211.22192339583333,211.4607292625,38.0,107.0
1202,211.66968439583334,211.94393800833333,40.0,127.0
1203,211.66968439583334,212.32640052916668,59.0,100.0
1204,211.66968439583334,212.33199754166668,68.0,112.0
1205,211.66968439583334,212.34132589583334,64.0,107.0
1206,212.11744539583333,212.36931095833333,40.0,117.0
1207,211.66968439583334,212.64543024166667,52.0,107.0
1208,212.56520639583334,212.76856451666666,40.0,127.0
1209,212.56520639583334,212.8208033,59.0,99.0
1210,212.78908689583335,212.88983312083334,52.0,99.0
1211,212.56520639583334,212.97005696666668,64.0,127.0
1212,212.56520639583334,213.00363904166667,68.0,127.0
1213,213.01296739583333,213.13796734166667,59.0,97.0
1214,213.01296739583333,213.20513149166666,40.0,127.0
1215,213.46072839583334,213.6883402375,33.0,107.0
1216,213.46072839583334,213.78722079166667,57.0,112.0
1217,213.46072839583334,213.87304165,61.0,127.0
1218,213.46072839583334,213.951399825,45.0,95.0
1219,213.46072839583334,214.01669830416668,64.0,117.0
1220,213.90848939583333,214.13236989583334,33.0,99.0
1221,213.90848939583333,214.15662361666668,57.0,122.0
1222,214.13236989583334,214.2144594125,61.0,127.0
1223,214.35625039583334,214.5838622375,56.0,127.0
1224,214.35625039583334,214.60998162916667,32.0,117.0
1225,214.35625039583334,214.75923529583335,44.0,122.0
1226,214.80401139583333,214.94953372083333,61.0,127.0
1227,214.80401139583333,215.08572769166668,32.0,112.0
1228,215.25177239583334,215.53535436250002,30.0,112.0
1229,215.25177239583334,215.95699597083333,66.0,122.0
1230,215.69953339583333,215.98124969166668,30.0,100.0
1231,215.25177239583334,215.99617505833334,61.0,127.0
1232,215.02789189583333,216.02975713333333,57.0,95.0
1233,215.25177239583334,216.18274214166667,54.0,96.0
1234,216.14729439583334,216.38983160416666,30.0,102.0
1235,216.37117489583335,216.458861425,54.0,90.0
1236,215.25177239583334,216.4980405125,42.0,99.0
1237,216.14729439583334,216.6323688125,61.0,127.0
1238,216.14729439583334,216.66221954583335,66.0,127.0
1239,216.59505539583333,216.74057772083333,57.0,102.0
1240,216.59505539583333,216.79281650416667,30.0,112.0
1241,217.04281639583334,217.3040103125,38.0,117.0
1242,217.49057739583333,217.74803997083333,38.0,95.0
1243,217.04281639583334,217.77229369166668,57.0,99.0
1244,217.04281639583334,217.7909504,62.0,117.0
1245,217.04281639583334,217.79654741250002,66.0,117.0
1246,217.93833839583334,218.18460694583334,38.0,127.0
1247,217.93833839583334,218.23124871666667,50.0,24.0
1248,217.93833839583334,218.42154714166668,62.0,117.0
1249,217.93833839583334,218.44020385000002,57.0,97.0
1250,217.93833839583334,218.44206952083334,66.0,112.0
1251,218.38609939583333,218.61184556666666,38.0,117.0
1252,218.60997989583333,218.68833807083334,59.0,47.0
1253,218.38609939583333,218.70886045,50.0,64.0
1254,218.83386039583334,219.06520357916668,40.0,122.0
1255,218.83386039583334,219.29094975,59.0,112.0
1256,218.83386039583334,219.31706914166668,64.0,107.0
1257,218.83386039583334,219.3301288375,68.0,117.0
1258,219.28162139583333,219.55027799583334,40.0,122.0
1259,219.28162139583333,219.7778898375,52.0,90.0
1260,219.72938239583334,219.9681882625,40.0,122.0
1261,219.72938239583334,219.99430765416668,59.0,99.0
1262,219.95326289583335,220.10438223333333,52.0,86.0
1263,219.72938239583334,220.1472926625,64.0,117.0
1264,219.72938239583334,220.18460607916668,68.0,122.0
1265,220.17714339583333,220.27975529166667,59.0,96.0
1266,220.17714339583333,220.40848657916666,40.0,107.0
1267,220.62490439583334,220.90288935,30.0,117.0
1268,220.62490439583334,220.9700535,66.0,112.0
1269,220.62490439583334,220.97938185416666,57.0,102.0
1270,220.62490439583334,220.98124752500001,61.0,127.0
1271,221.07266539583333,221.14542655833333,57.0,66.0
1272,221.07266539583333,221.1771429625,61.0,85.0
1273,221.07266539583333,221.19020265833333,66.0,93.0
1274,221.07266539583333,221.33012797083333,30.0,112.0
1275,220.62490439583334,221.5465457875,54.0,89.0
1276,221.52042639583334,221.68460542916668,30.0,112.0
1277,221.52042639583334,221.81893372916667,61.0,127.0
1278,221.52042639583334,221.93087397916668,66.0,127.0
1279,221.96818739583333,221.99617245833335,66.0,35.0
1280,220.62490439583334,222.01296349583333,42.0,97.0
1281,221.96818739583333,222.16594850416666,30.0,117.0
1282,221.74430689583335,222.24617235,54.0,93.0
1283,221.96818739583333,222.24803802083335,57.0,97.0
1284,222.19206789583333,222.29094845,61.0,117.0
1285,222.41594839583334,222.51109760833333,61.0,127.0
1286,222.41594839583334,222.5204259625,57.0,99.0
1287,222.41594839583334,222.52229163333334,66.0,117.0
1288,222.41594839583334,222.55587370833334,30.0,112.0
1289,222.63982889583335,222.7443064625,61.0,127.0
1290,222.63982889583335,222.749903475,57.0,89.0
1291,222.63982889583335,222.749903475,66.0,107.0
1292,222.41594839583334,222.99244068333334,54.0,102.0
1293,222.86370939583333,223.0801272125,30.0,117.0
1294,223.08758989583333,223.34691814166666,54.0,83.0
1295,223.31147039583334,223.42900765833335,30.0,127.0
1296,223.31147039583334,223.56147028750001,57.0,100.0
1297,223.31147039583334,223.5726643125,61.0,127.0
1298,223.31147039583334,223.58199266666668,66.0,122.0
1299,223.53535089583335,223.64169413333335,30.0,112.0
1300,223.53535089583335,223.690201575,54.0,99.0
1301,222.41594839583334,223.7517687125,42.0,97.0
1302,223.75923139583332,223.87117164583333,30.0,117.0
1303,223.75923139583332,223.96258951666667,66.0,127.0
1304,223.75923139583332,224.05214171666668,61.0,127.0
1305,223.98311189583333,224.0596044,57.0,63.0
1306,223.98311189583333,224.10624617083334,30.0,127.0
1307,224.20699239583334,224.52975345000002,50.0,97.0
1308,224.20699239583334,224.53908180416667,62.0,86.0
1309,224.20699239583334,224.54281314583335,57.0,75.0
1310,224.20699239583334,224.54281314583335,66.0,83.0
1311,224.20699239583334,224.54841015833333,26.0,74.0
1312,224.20699239583334,224.54841015833333,38.0,74.0
1313,224.65475339583332,224.91221597083333,50.0,97.0
1314,224.65475339583332,224.92714133750002,62.0,112.0
1315,224.65475339583332,224.93646969166667,26.0,81.0
1316,224.65475339583332,224.93646969166667,38.0,81.0
1317,224.65475339583332,224.95139505833333,57.0,95.0
1318,224.65475339583332,224.95699207083334,66.0,102.0
1319,225.10251439583334,225.56706643333334,26.0,77.0
1320,225.10251439583334,225.56706643333334,38.0,77.0
1321,225.10251439583334,225.5987828375,66.0,112.0
1322,225.10251439583334,225.6267679,50.0,102.0
1323,225.10251439583334,225.6267679,57.0,99.0
1324,225.10251439583334,225.67527534166666,62.0,117.0
1325,225.99803639583334,226.25363330000002,28.0,112.0
1326,226.44579739583332,226.64728984583334,28.0,111.0
1327,225.99803639583334,226.71818533750002,59.0,99.0
1328,225.99803639583334,226.7293793625,68.0,117.0
1329,225.99803639583334,226.734976375,64.0,117.0
1330,225.99803639583334,226.97751358333335,52.0,86.0
1331,226.89355839583334,227.08385682083335,28.0,117.0
1332,226.89355839583334,227.12490157916667,59.0,92.0
1333,225.99803639583334,227.20885676666668,40.0,83.0
1334,227.11743889583335,227.26109555,52.0,97.0
1335,226.89355839583334,227.26855823333335,64.0,122.0
1336,226.89355839583334,227.33199104166667,68.0,127.0
1337,227.34131939583335,227.51669245416667,28.0,117.0
1338,227.34131939583335,227.55960288333333,59.0,102.0
1339,227.56519989583333,227.62117002083335,61.0,31.0
1340,227.78908039583334,228.09691608333333,57.0,102.0
1341,227.78908039583334,228.20325932083333,61.0,127.0
1342,227.78908039583334,228.20325932083333,64.0,102.0
1343,227.78908039583334,228.21631901666666,33.0,127.0
1344,227.78908039583334,228.21631901666666,45.0,127.0
1345,228.68460239583334,229.07639327083334,32.0,127.0
1346,228.68460239583334,229.07639327083334,44.0,127.0
1347,228.68460239583334,229.1137066875,56.0,127.0
1348,228.68460239583334,229.130497725,61.0,117.0
1349,229.58012439583334,230.2778852875,66.0,112.0
1350,229.58012439583334,230.28534797083333,61.0,127.0
1351,229.58012439583334,230.2890793125,57.0,107.0
1352,229.58012439583334,230.47937773750002,54.0,95.0
1353,229.58012439583334,230.77415372916667,30.0,99.0
1354,229.58012439583334,230.77415372916667,42.0,99.0
1355,230.69952689583334,230.79654177916666,54.0,93.0
1356,230.47564639583334,230.98124319166666,61.0,127.0
1357,230.47564639583334,230.99057154583335,66.0,127.0
1358,230.92340739583335,231.23497442500002,57.0,96.0
1359,231.37116839583334,231.98310842916666,57.0,93.0
1360,231.37116839583334,232.11743672916668,66.0,99.0
1361,231.37116839583334,232.1248994125,62.0,92.0
1362,231.81892939583335,232.32079485,50.0,39.0
1363,232.49057089583334,232.62863053750002,50.0,77.0
1364,231.37116839583334,232.6398245625,26.0,71.0
1365,231.37116839583334,232.6398245625,38.0,71.0
1366,232.26669039583334,232.7069887125,62.0,117.0
1367,232.26669039583334,232.75922749583333,66.0,122.0
1368,232.26669039583334,232.91967518750002,57.0,96.0
1369,233.160346725,233.45885405833334,59.0,95.0
1370,233.160346725,233.4625854,68.0,107.0
1371,233.160346725,233.46445107083335,64.0,99.0
1372,233.160346725,233.86370462916668,28.0,67.0
1373,233.160346725,233.86370462916668,40.0,67.0
1374,233.160346725,233.86370462916668,52.0,92.0
1375,233.60997339583335,233.88422700833334,59.0,88.0
1376,233.60997339583335,233.88422700833334,68.0,88.0
1377,233.160346725,233.89168969166667,47.0,89.0
1378,233.60997339583335,233.89168969166667,64.0,90.0
1379,234.05773439583334,234.26668952916668,28.0,69.0
1380,234.05773439583334,234.26668952916668,40.0,69.0
1381,234.05773439583334,234.28348056666667,52.0,95.0
1382,234.05773439583334,234.30400294583333,47.0,93.0
1383,234.05773439583334,234.3077342875,59.0,90.0
1384,234.05773439583334,234.31146562916666,68.0,99.0
1385,234.05773439583334,234.3189283125,64.0,97.0
1386,234.50549539583335,235.20885330000002,28.0,67.0
1387,234.50549539583335,235.20885330000002,40.0,67.0
1388,234.50549539583335,235.21818165416667,59.0,102.0
1389,234.50549539583335,235.22191299583335,52.0,102.0
1390,234.50549539583335,235.23497269166668,68.0,122.0
1391,234.50549539583335,235.24430104583334,64.0,122.0
1392,234.50549539583335,235.2704204375,47.0,100.0
1393,235.40101739583335,235.49243526666666,28.0,51.0
1394,235.40101739583335,235.49243526666666,40.0,51.0
1395,235.40101739583335,235.5166889875,47.0,67.0
1396,235.40101739583335,235.52415167083333,52.0,71.0
1397,235.40101739583335,235.5278830125,68.0,78.0
1398,235.40101739583335,235.54653972083335,64.0,74.0
1399,235.40101739583335,235.54840539166668,59.0,86.0
1400,235.84877839583334,235.97191267083335,28.0,65.0
1401,235.84877839583334,235.97191267083335,40.0,65.0
1402,235.84877839583334,235.97191267083335,47.0,95.0
1403,235.84877839583334,235.97191267083335,59.0,93.0
1404,235.84877839583334,235.981241025,52.0,86.0
1405,235.84877839583334,235.99803206250002,68.0,96.0
1406,235.84877839583334,236.003629075,64.0,95.0
1407,236.29653939583335,236.40474830416667,47.0,99.0
1408,236.29653939583335,236.41034531666668,59.0,99.0
1409,236.29653939583335,236.4122109875,52.0,99.0
1410,236.29653939583335,236.42527068333334,68.0,97.0
1411,236.29653939583335,236.43086769583334,64.0,99.0
1412,236.29653939583335,236.43833037916667,28.0,75.0
1413,236.29653939583335,236.43833037916667,40.0,75.0
1414,236.74430039583333,236.85064363333333,59.0,100.0
1415,236.74430039583333,236.85810631666666,28.0,75.0
1416,236.74430039583333,236.85810631666666,40.0,75.0
1417,236.74430039583333,236.86183765833334,47.0,97.0
1418,236.74430039583333,236.86183765833334,52.0,97.0
1419,236.74430039583333,236.86743467083335,64.0,112.0
1420,236.74430039583333,236.8711660125,68.0,117.0
1421,237.19206139583335,237.30586731666668,47.0,102.0
1422,237.19206139583335,237.3077329875,52.0,100.0
1423,237.19206139583335,237.31706134166666,28.0,78.0
1424,237.19206139583335,237.31706134166666,40.0,78.0
1425,237.19206139583335,237.32079268333334,59.0,96.0
1426,237.19206139583335,237.32825536666667,64.0,97.0
1427,237.19206139583335,237.3301210375,68.0,99.0
1428,237.63982239583333,237.72191191250002,59.0,102.0
1429,237.63982239583333,237.72564325416667,68.0,117.0
1430,237.63982239583333,237.73497160833332,52.0,99.0
1431,237.63982239583333,237.73870295,64.0,107.0
1432,237.63982239583333,237.74243429166668,47.0,102.0
1433,237.63982239583333,237.75549398750002,28.0,78.0
1434,237.63982239583333,237.75549398750002,40.0,78.0
1435,237.86370289583334,237.929001375,28.0,58.0
1436,237.86370289583334,237.929001375,40.0,58.0
1437,237.86370289583334,237.94392674166667,68.0,86.0
1438,237.86370289583334,237.94765808333335,47.0,92.0
1439,237.86370289583334,237.95512076666668,52.0,81.0
1440,237.86370289583334,237.95512076666668,59.0,86.0
1441,237.86370289583334,237.96071777916669,64.0,88.0
1442,238.08758339583335,238.175269925,47.0,100.0
1443,238.08758339583335,238.17713559583333,52.0,96.0
1444,238.08758339583335,238.17713559583333,59.0,99.0
1445,238.08758339583335,238.18832962083334,28.0,75.0
1446,238.08758339583335,238.18832962083334,40.0,75.0
1447,238.08758339583335,238.18832962083334,64.0,100.0
1448,238.08758339583335,238.1920609625,68.0,99.0
1449,238.31146389583333,238.37489670416667,68.0,89.0
1450,238.31146389583333,238.38422505833333,64.0,90.0
1451,238.31146389583333,238.3879564,59.0,99.0
1452,238.31146389583333,238.39541908333334,28.0,58.0
1453,238.31146389583333,238.39541908333334,40.0,58.0
1454,238.31146389583333,238.39541908333334,52.0,89.0
1455,238.31146389583333,238.40661310833335,47.0,85.0
1456,238.53534439583333,238.83012038750002,26.0,87.0
1457,238.53534439583333,238.92340392916668,62.0,100.0
1458,238.53534439583333,238.92713527083333,57.0,102.0
1459,238.53534439583333,238.93832929583334,66.0,112.0
1460,238.98310539583335,239.26482169166667,26.0,90.0
1461,238.98310539583335,239.39728432083334,50.0,82.0
1462,239.43086639583333,239.66780659166668,26.0,93.0
1463,239.43086639583333,239.70885135,62.0,127.0
1464,239.43086639583333,239.71258269166668,66.0,122.0
1465,239.43086639583333,239.73310507083335,57.0,99.0
1466,239.65474689583334,239.86370202916666,50.0,100.0
1467,238.53534439583333,239.91780648333335,38.0,85.0
1468,239.87862739583335,240.0446721,66.0,102.0
1469,239.87862739583335,240.15847802083334,62.0,102.0
1470,239.87862739583335,240.16594070416667,26.0,90.0
1471,240.10250789583333,240.26482125833334,59.0,81.0
1472,240.32638839583333,240.593179325,28.0,112.0
1473,240.32638839583333,240.8450448875,59.0,69.0
1474,240.32638839583333,241.05026867916666,68.0,100.0
1475,240.77414939583335,241.05213435000002,28.0,111.0
1476,240.32638839583333,241.05400002083334,64.0,99.0
1477,240.77414939583335,241.2984029,52.0,83.0
1478,241.22191039583333,241.41967150416667,28.0,98.0
1479,240.32638839583333,241.53161175416668,40.0,90.0
1480,241.44579089583334,241.58198486666666,52.0,83.0
1481,241.22191039583333,241.63795499166667,64.0,112.0
1482,241.22191039583333,241.66407438333334,68.0,122.0
1483,241.66967139583335,241.75922359583333,59.0,96.0
1484,241.66967139583335,241.81705939166667,28.0,108.0
1485,242.11743239583333,242.406611375,30.0,100.0
1486,242.11743239583333,242.59504412916667,66.0,97.0
1487,242.11743239583333,242.61929785,61.0,127.0
1488,242.11743239583333,242.80586493333334,57.0,112.0
1489,242.56519339583335,242.8207903,30.0,85.0
1490,243.01295439583333,243.11556629166668,57.0,100.0
1491,243.01295439583333,243.11556629166668,61.0,127.0
1492,243.01295439583333,243.13049165833334,66.0,112.0
1493,242.11743239583333,243.20325282083334,54.0,88.0
1494,243.01295439583333,243.24429757916667,30.0,100.0
1495,243.46071539583335,243.637954125,30.0,98.0
1496,243.68459589583333,243.76481974166668,57.0,107.0
1497,243.68459589583333,243.76481974166668,61.0,117.0
1498,243.68459589583333,243.76481974166668,66.0,100.0
1499,243.90847639583333,244.08384945416668,30.0,120.0
1500,244.13235689583334,244.20138671666666,57.0,89.0
1501,243.46071539583335,244.20325238750002,54.0,96.0
1502,244.13235689583334,244.2088494,61.0,122.0
1503,244.13235689583334,244.22190909583333,66.0,100.0
1504,244.35623739583335,244.55213283333333,30.0,120.0
1505,244.58011789583333,244.81332675000002,54.0,77.0
1506,242.11743239583333,245.04466993333335,42.0,96.0
1507,244.80399839583333,245.06146097083334,61.0,127.0
1508,244.80399839583333,245.08384902083333,30.0,108.0
1509,245.02787889583334,245.1211624375,54.0,99.0
1510,244.80399839583333,245.17899823333335,66.0,122.0
1511,245.25175939583335,245.31519220416666,66.0,35.0
1512,245.25175939583335,245.57265477916667,57.0,77.0
1513,245.25175939583335,245.60250551250002,30.0,104.0
1514,245.69952039583333,246.02601279166666,26.0,111.0
1515,245.69952039583333,246.17713212916667,57.0,102.0
1516,245.69952039583333,246.19765450833333,62.0,102.0
1517,245.69952039583333,246.2069828625,66.0,107.0
1518,246.14728139583335,246.481236475,26.0,83.0
1519,246.14728139583335,246.60437075000002,50.0,69.0
1520,246.59504239583333,246.70138563333333,57.0,93.0
1521,246.59504239583333,246.89354972916666,26.0,93.0
1522,245.69952039583333,246.93832582916667,38.0,92.0
1523,246.59504239583333,247.02601235833333,62.0,122.0
1524,246.81892289583334,247.03720638333334,50.0,95.0
1525,246.59504239583333,247.09690785,66.0,117.0
1526,247.04280339583335,247.14914663333334,57.0,100.0
1527,247.04280339583335,247.41220622083333,26.0,93.0
1528,247.49056439583333,247.79840008333335,28.0,98.0
1529,247.49056439583333,247.96817612916666,59.0,117.0
1530,247.49056439583333,248.17526559166666,68.0,107.0
1531,247.49056439583333,248.18272827500002,64.0,102.0
1532,247.93832539583335,248.23683272916668,28.0,87.0
1533,247.93832539583335,248.44205652083335,52.0,89.0
1534,248.38608639583333,248.63235494583333,28.0,90.0
1535,247.49056439583333,248.66593702083333,40.0,86.0
1536,248.38608639583333,248.7704145875,64.0,127.0
1537,248.38608639583333,248.79466830833334,68.0,127.0
1538,248.60996689583334,248.831981725,52.0,92.0
1539,248.831981725,249.04466820000002,59.0,99.0
1540,248.831981725,249.12675771666667,28.0,100.0
1541,249.28160839583333,249.58011572916666,33.0,93.0
1542,249.28160839583333,249.59690676666668,57.0,96.0
1543,249.28160839583333,249.60623512083333,61.0,107.0
1544,249.28160839583333,249.62302615833335,64.0,95.0
1545,249.72936939583334,249.99429465416668,33.0,86.0
1546,249.72936939583334,250.25921991250001,52.0,39.0
1547,250.17713039583333,250.25921991250001,57.0,99.0
1548,250.17713039583333,250.26295125416667,61.0,117.0
1549,250.17713039583333,250.26668259583334,64.0,97.0
1550,250.17713039583333,250.42526461666668,33.0,104.0
1551,250.62489139583334,250.87302561666667,33.0,79.0
1552,250.84877189583335,250.93459275416666,61.0,112.0
1553,250.84877189583335,250.936458425,57.0,96.0
1554,250.84877189583335,250.94765245,64.0,93.0
1555,251.07265239583333,251.32451795833333,33.0,95.0
1556,251.29653289583334,251.38795076666668,61.0,99.0
1557,251.29653289583334,251.39354777916668,57.0,93.0
1558,251.29653289583334,251.39541345,64.0,83.0
1559,251.29653289583334,251.40847314583334,67.0,82.0
1560,250.62489139583334,251.50548802916668,52.0,82.0
1561,251.52041339583334,251.78533865416668,33.0,90.0
1562,251.74429389583335,251.80399536250002,64.0,69.0
1563,251.74429389583335,251.82451774166668,61.0,92.0
1564,251.74429389583335,251.8263834125,57.0,82.0
1565,251.74429389583335,251.8263834125,67.0,75.0
1566,251.52041339583334,251.84317445,52.0,35.0
1567,251.96817439583333,252.10809970833333,57.0,102.0
1568,249.28160839583333,252.2181742875,45.0,76.0
1569,251.96817439583333,252.22936831250001,64.0,97.0
1570,251.96817439583333,252.23869666666667,61.0,127.0
1571,251.96817439583333,252.23869666666667,67.0,90.0
1572,251.96817439583333,252.27041307083334,33.0,104.0
1573,252.19205489583334,252.28160709583335,52.0,99.0
1574,252.41593539583334,252.55586070833334,64.0,96.0
1575,252.41593539583334,252.57824875833333,67.0,89.0
1576,252.41593539583334,252.71257705833335,33.0,108.0
1577,252.41593539583334,252.71257705833335,61.0,127.0
1578,252.63981589583335,252.74242779166667,57.0,70.0
1579,252.86369639583333,253.18645745,26.0,104.0
1580,252.86369639583333,253.3039947125,57.0,102.0
1581,253.31145739583334,253.56332295833334,26.0,87.0
1582,252.86369639583333,253.58571100833333,62.0,107.0
1583,252.86369639583333,253.58571100833333,66.0,117.0
1584,253.31145739583334,253.76668107916666,50.0,47.0
1585,253.75921839583333,253.81518852083335,57.0,89.0
1586,253.75921839583333,254.01668097083333,26.0,100.0
1587,252.86369639583333,254.115561525,38.0,85.0
1588,253.98309889583334,254.137949575,50.0,86.0
1589,253.75921839583333,254.23869580000002,62.0,127.0
1590,253.75921839583333,254.25735250833333,66.0,122.0
1591,254.20697939583334,254.294665925,57.0,102.0
1592,254.20697939583334,254.540934475,26.0,93.0
1593,254.65474039583333,254.95511340000002,28.0,108.0
1594,254.65474039583333,255.12115810416668,59.0,117.0
1595,254.65474039583333,255.35250128750002,68.0,102.0
1596,254.65474039583333,255.3580983,64.0,99.0
1597,255.10250139583334,255.3972773875,28.0,93.0
1598,255.10250139583334,255.58571014166668,52.0,75.0
1599,255.55026239583333,255.84130704583333,28.0,90.0
1600,254.65474039583333,255.85809808333335,40.0,96.0
1601,255.77414289583334,255.93645625833335,52.0,86.0
1602,255.55026239583333,255.96070997916667,64.0,122.0
1603,255.55026239583333,255.973769675,68.0,127.0
1604,255.99802339583334,256.1342173666667,59.0,117.0
1605,255.99802339583334,256.26667999583333,28.0,95.0
1606,256.44578439583336,256.74429172916666,57.0,107.0
1607,256.44578439583336,256.77600813333333,33.0,104.0
1608,256.44578439583336,256.88421704166666,45.0,107.0
1609,256.44578439583336,256.9252618,64.0,97.0
1610,256.44578439583336,256.9644408875,61.0,127.0
1611,256.8935453958333,257.1174258958333,57.0,107.0
1612,256.8935453958333,257.1920527291667,33.0,93.0
1613,257.3413063958333,257.5969033,32.0,100.0
1614,257.3413063958333,257.89727630416667,44.0,102.0
1615,257.78906739583334,257.899141975,56.0,117.0
1616,257.78906739583334,258.16406723333336,32.0,95.0
1617,258.23682839583336,258.56145512083333,30.0,90.0
1618,258.23682839583336,258.66966402916665,61.0,107.0
1619,258.23682839583336,258.9010072125,57.0,97.0
1620,258.6845893958333,258.95511166666665,30.0,74.0
1621,258.23682839583336,259.17339515416666,54.0,96.0
1622,259.1323503958333,259.4196637041667,30.0,98.0
1623,259.35623089583333,259.44018608333334,54.0,89.0
1624,258.23682839583336,259.45324577916665,42.0,102.0
1625,259.1323503958333,259.68085762083336,66.0,122.0
1626,259.1323503958333,259.7293650625,61.0,127.0
1627,259.58011139583334,259.8748873875,57.0,93.0
1628,259.58011139583334,259.9345888541667,30.0,90.0
1629,260.02787239583336,260.39727522083336,26.0,93.0
1630,260.4756333958333,260.8039914625,26.0,74.0
1631,260.02787239583336,260.82451384166666,57.0,93.0
1632,260.02787239583336,260.83570786666667,66.0,92.0
1633,260.02787239583336,260.8506332333333,62.0,97.0
1634,260.9233943958333,261.24615545,26.0,95.0
1635,260.9233943958333,261.3636927125,62.0,99.0
1636,260.9233943958333,261.37675240833335,66.0,99.0
1637,260.9233943958333,261.38234942083335,57.0,99.0
1638,260.02787239583336,261.51481205,38.0,71.0
1639,261.37115539583334,261.6995134625,26.0,90.0
1640,261.37115539583334,261.73496120833335,50.0,38.0
1641,261.81891639583336,262.12302074166666,28.0,81.0
1642,261.81891639583336,262.48122954166666,59.0,99.0
1643,261.81891639583336,262.5148116166667,68.0,117.0
1644,261.81891639583336,262.5204086291667,64.0,100.0
1645,262.2666773958333,262.578244425,28.0,81.0
1646,262.2666773958333,262.8730204166667,52.0,73.0
1647,262.7144383958333,263.0148114,59.0,99.0
1648,262.7144383958333,263.02787109583335,28.0,74.0
1649,261.81891639583336,263.2144381791667,40.0,93.0
1650,262.7144383958333,263.24055757083335,64.0,117.0
1651,262.7144383958333,263.2424232416667,68.0,127.0
1652,262.93831889583333,263.339438125,52.0,50.0
1653,263.16219939583334,263.3655575166667,59.0,76.0
1654,263.16219939583334,263.5222738666667,28.0,90.0
1655,263.60996039583335,263.9252587666667,30.0,112.0
1656,263.60996039583335,264.0502587125,66.0,96.0
1657,263.60996039583335,264.0689154208333,61.0,112.0
1658,263.60996039583335,264.1435422541667,57.0,97.0
1659,264.0577213958333,264.38234812083334,30.0,87.0
1660,264.5054823958333,264.60809429166665,57.0,95.0
1661,264.5054823958333,264.61928831666665,61.0,122.0
1662,264.5054823958333,264.61928831666665,66.0,97.0
1663,264.0577213958333,264.7200345416667,54.0,42.0
1664,263.60996039583335,264.7424225916667,42.0,122.0
1665,264.5054823958333,264.81331808333334,30.0,114.0
1666,264.95324339583334,265.25734774166665,30.0,86.0
1667,265.17712389583335,265.25734774166665,61.0,117.0
1668,265.17712389583335,265.2592134125,57.0,95.0
1669,265.17712389583335,265.2592134125,66.0,100.0
1670,265.40100439583335,265.7069744125,30.0,108.0
1671,265.62488489583336,265.75548185416665,61.0,127.0
1672,265.62488489583336,265.77040722083336,66.0,117.0
1673,264.95324339583334,265.85063106666666,54.0,81.0
1674,265.8487653958333,266.11182498333335,30.0,112.0
1675,266.0726458958333,266.361824875,54.0,61.0
1676,266.2965263958333,266.54279494583335,30.0,111.0
1677,266.2965263958333,266.61742177916665,61.0,127.0
1678,266.2965263958333,266.62861580416666,66.0,117.0
1679,266.52040689583333,266.6621978791667,54.0,78.0
1680,264.95324339583334,266.7107053208333,42.0,69.0
1681,266.74428739583334,266.8860783791667,66.0,97.0
1682,266.74428739583334,266.9700335666667,30.0,72.0
1683,266.74428739583334,267.01854100833333,61.0,127.0
1684,267.19204839583335,267.5110781083333,26.0,93.0
1685,267.19204839583335,267.91966002083336,57.0,99.0
1686,267.19204839583335,267.9476450833333,66.0,102.0
1687,267.19204839583335,267.951376425,62.0,107.0
1688,267.63980939583337,267.96257045,26.0,72.0
1689,268.0875703958333,268.4401821833333,26.0,86.0
1690,268.0875703958333,268.54465975,62.0,112.0
1691,268.0875703958333,268.55771944583336,57.0,100.0
1692,268.0875703958333,268.55771944583336,66.0,117.0
1693,267.19204839583335,268.6118239,38.0,90.0
1694,268.53533139583334,268.8972715375,50.0,78.0
1695,268.53533139583334,268.89913720833334,26.0,67.0
1696,268.98309239583335,269.27040570416665,28.0,104.0
1697,268.98309239583335,269.57451005,59.0,99.0
1698,268.98309239583335,269.70137566666665,64.0,102.0
1699,268.98309239583335,269.70137566666665,68.0,112.0
1700,269.43085339583337,269.7274950583333,28.0,75.0
1701,269.43085339583337,269.9401815333333,52.0,66.0
1702,269.8786143958333,270.123017275,59.0,96.0
1703,269.8786143958333,270.1398083125,28.0,98.0
1704,268.98309239583335,270.17525605833333,40.0,96.0
1705,270.10249489583333,270.257345575,52.0,90.0
1706,269.8786143958333,270.2983903333333,64.0,127.0
1707,269.8786143958333,270.31331570000003,68.0,127.0
1708,270.32637539583334,270.42152460833336,59.0,82.0
1709,270.32637539583334,270.50734546666666,28.0,83.0
1710,270.77413639583335,271.14353922083336,30.0,104.0
1711,270.77413639583335,271.287195875,66.0,100.0
1712,270.77413639583335,271.29652422916666,61.0,122.0
1713,270.77413639583335,271.32824063333334,57.0,96.0
1714,271.22189739583337,271.57077784166665,30.0,66.0
1715,271.6696583958333,271.7722702916667,61.0,122.0
1716,271.6696583958333,271.7741359625,57.0,96.0
1717,271.6696583958333,271.779732975,66.0,102.0
1718,271.22189739583337,271.78906132916666,54.0,53.0
1719,271.6696583958333,271.9868224375,30.0,83.0
1720,272.34129989583334,272.41965807083335,61.0,107.0
1721,272.34129989583334,272.42712075416665,57.0,90.0
1722,272.34129989583334,272.42712075416665,66.0,93.0
1723,272.11741939583334,272.4457774625,54.0,48.0
1724,272.11741939583334,272.451374475,30.0,81.0
1725,272.56518039583335,272.9047324875,30.0,104.0
1726,272.78906089583336,272.9084638291667,61.0,100.0
1727,272.78906089583336,272.9271205375,66.0,99.0
1728,273.01294139583337,273.33756812083334,30.0,98.0
1729,273.2368218958333,273.4868217875,54.0,85.0
1730,273.4607023958333,273.7032396041667,61.0,127.0
1731,273.4607023958333,273.72003064166665,66.0,122.0
1732,273.68458289583333,273.7760007666667,54.0,93.0
1733,273.4607023958333,273.79092613333336,30.0,120.0
1734,270.77413639583335,273.8338365625,42.0,122.0
1735,273.90846339583334,274.01480663333336,30.0,114.0
1736,273.90846339583334,274.0614484041667,66.0,102.0
1737,273.90846339583334,274.1845826791667,61.0,127.0
1738,274.13234389583334,274.242418475,57.0,78.0
1739,274.13234389583334,274.2815975625,30.0,104.0
1740,274.35622439583335,274.712567525,26.0,108.0
1741,274.35622439583335,275.04279126250003,57.0,102.0
1742,274.35622439583335,275.07823900833336,66.0,100.0
1743,274.35622439583335,275.08010467916665,62.0,100.0
1744,274.80398539583337,275.1435374875,26.0,76.0
1745,275.0278658958333,275.4662985416667,50.0,34.0
1746,275.2517463958333,275.5558507416667,26.0,95.0
1747,275.2517463958333,275.71816410416665,62.0,117.0
1748,275.2517463958333,275.742417825,66.0,127.0
1749,275.2517463958333,275.75361185,57.0,102.0
1750,274.35622439583335,275.79092526666665,38.0,89.0
1751,275.69950739583334,276.0390594875,26.0,81.0
1752,275.69950739583334,276.0427908291667,50.0,90.0
1753,276.14726839583335,276.4681637791667,28.0,104.0
1754,276.14726839583335,276.64540250833335,59.0,99.0
1755,276.14726839583335,276.86555166666665,64.0,100.0
1756,276.14726839583335,276.86555166666665,68.0,112.0
1757,276.59502939583336,276.91965612083334,28.0,98.0
1758,276.59502939583336,277.08196948333335,52.0,89.0
1759,277.0427903958333,277.3039843125,28.0,95.0
1760,276.14726839583335,277.354357425,40.0,89.0
1761,277.0427903958333,277.46443200416667,64.0,127.0
1762,277.0427903958333,277.4737603583333,68.0,127.0
1763,277.26667089583333,277.50920810416665,52.0,100.0
1764,277.49055139583334,277.69577518750003,59.0,97.0
1765,277.49055139583334,277.82264080416667,28.0,83.0
1766,277.93831239583335,278.26107345,33.0,93.0
1767,278.38607339583336,278.65659566666665,33.0,73.0
1768,277.93831239583335,278.65659566666665,57.0,97.0
1769,277.93831239583335,278.6939090833333,61.0,112.0
1770,277.93831239583335,278.6939090833333,64.0,95.0
1771,278.38607339583336,278.86741647083335,52.0,47.0
1772,278.8338343958333,279.100625325,33.0,86.0
1773,278.8338343958333,279.35435655833334,61.0,127.0
1774,278.8338343958333,279.3580879,57.0,95.0
1775,279.28159539583334,279.391669975,52.0,39.0
1776,278.8338343958333,279.5763713875,64.0,99.0
1777,279.28159539583334,279.6099534625,33.0,85.0
1778,279.50547589583334,279.7890578625,52.0,82.0
1779,279.72935639583335,280.0465204375,33.0,98.0
1780,279.72935639583335,280.2909233166667,61.0,117.0
1781,279.72935639583335,280.2909233166667,67.0,86.0
1782,279.72935639583335,280.31331136666665,57.0,102.0
1783,279.72935639583335,280.31331136666665,64.0,96.0
1784,280.17711739583336,280.5148038166667,33.0,108.0
1785,280.17711739583336,280.68831120416667,52.0,69.0
1786,280.6248783958333,280.88793798333336,57.0,102.0
1787,280.6248783958333,280.9308484125,33.0,112.0
1788,280.8487588958333,280.9457737791667,52.0,97.0
1789,277.93831239583335,280.96069914583336,45.0,81.0
1790,280.6248783958333,281.01107225833334,61.0,122.0
1791,280.6248783958333,281.1547289125,67.0,85.0
1792,280.6248783958333,281.29651989583334,64.0,95.0
1793,281.07263939583333,281.39166910833336,57.0,97.0
1794,281.07263939583333,281.4084601458333,33.0,111.0
1795,281.29651989583334,281.43084819583333,61.0,112.0
1796,281.52040039583335,281.8468927916667,26.0,104.0
1797,281.52040039583335,282.06704195000003,57.0,93.0
1798,281.52040039583335,282.24801202083336,66.0,122.0
1799,281.52040039583335,282.25547470416666,62.0,112.0
1800,281.96816139583336,282.302116475,26.0,77.0
1801,281.96816139583336,282.47189252083336,50.0,50.0
1802,282.4159223958333,282.7256237541667,26.0,93.0
1803,281.52040039583335,282.7927879041667,38.0,92.0
1804,282.4159223958333,282.839429675,62.0,117.0
1805,282.6398028958333,282.86368339583333,50.0,93.0
1806,282.4159223958333,282.86928040833334,66.0,127.0
1807,282.86368339583333,282.96069827916665,57.0,97.0
1808,282.86368339583333,283.2088325,26.0,87.0
1809,283.31144439583335,283.59129502083334,28.0,114.0
1810,283.31144439583335,283.7815934458333,59.0,100.0
1811,283.31144439583335,283.9998769333333,68.0,117.0
1812,283.31144439583335,284.0073396166667,64.0,100.0
1813,283.75920539583336,284.01107095833333,28.0,100.0
1814,283.75920539583336,284.2442798125,52.0,70.0
1815,283.31144439583335,284.45323494583334,40.0,92.0
1816,284.2069663958333,284.48308567916666,28.0,108.0
1817,284.2069663958333,284.5763692208333,64.0,117.0
1818,284.2069663958333,284.61181696666665,68.0,122.0
1819,284.4308468958333,284.66032440833334,52.0,90.0
1820,284.65472739583333,284.84316015,59.0,117.0
1821,284.87860789583334,284.943906375,61.0,39.0
1822,284.65472739583333,284.97002576666665,28.0,98.0
1823,285.10248839583335,285.38793603333335,33.0,95.0
1824,285.10248839583335,285.391667375,57.0,102.0
1825,285.10248839583335,285.58383147083333,61.0,117.0
1826,285.10248839583335,285.62301055833336,45.0,112.0
1827,285.10248839583335,285.682712025,64.0,99.0
1828,285.55024939583336,285.79651794583333,57.0,107.0
1829,285.7741298958333,285.87301045,61.0,112.0
1830,285.55024939583336,285.8823388041667,33.0,83.0
1831,285.9980103958333,286.2778610208333,56.0,117.0
1832,285.9980103958333,286.3039804125,32.0,111.0
1833,285.9980103958333,286.4495027375,44.0,112.0
1834,286.44577139583333,286.6733832375,61.0,99.0
1835,286.44577139583333,286.8114428791667,32.0,100.0
1836,286.66965189583334,286.83942794166666,64.0,95.0
1837,286.89353239583335,287.2181591208333,30.0,95.0
1838,287.34129339583336,287.6547260958333,30.0,81.0
1839,287.34129339583336,287.7218902458333,57.0,82.0
1840,286.89353239583335,287.8375618375,54.0,102.0
1841,287.7890543958333,288.10808410833334,30.0,85.0
1842,288.0129348958333,288.11927813333335,54.0,82.0
1843,286.89353239583335,288.1509945375,42.0,100.0
1844,287.7890543958333,288.32636759583335,61.0,127.0
1845,287.7890543958333,288.32636759583335,66.0,127.0
1846,288.23681539583333,288.5726361458333,57.0,96.0
1847,288.23681539583333,288.5856958416667,30.0,98.0
1848,288.68457639583335,289.03159117083334,26.0,104.0
1849,288.68457639583335,289.4047253375,57.0,88.0
1850,288.68457639583335,289.41778503333336,66.0,112.0
1851,288.68457639583335,289.4271133875,62.0,99.0
1852,289.13233739583336,289.4700238166667,26.0,79.0
1853,289.5800983958333,289.88233707083333,26.0,85.0
1854,289.5800983958333,289.98494896666665,62.0,100.0
1855,289.5800983958333,290.00733701666667,66.0,102.0
1856,288.68457639583335,290.0129340291667,38.0,81.0
1857,289.5800983958333,290.0950235458333,57.0,95.0
1858,290.02785939583333,290.35248612083336,26.0,72.0
1859,290.47562039583335,290.7592023625,28.0,112.0
1860,290.47562039583335,290.9457694458333,59.0,100.0
1861,290.47562039583335,290.97748585,64.0,99.0
1862,290.47562039583335,291.0166649375,68.0,102.0
1863,290.92338139583336,291.19950067916665,28.0,83.0
1864,290.92338139583336,291.4196498375,52.0,66.0
1865,291.3711423958333,291.65285869166667,28.0,98.0
1866,290.47562039583335,291.6995004625,40.0,83.0
1867,291.3711423958333,291.8319630916667,68.0,122.0
1868,291.3711423958333,291.8338287625,64.0,117.0
1869,291.5950228958333,291.839425775,52.0,78.0
1870,291.81890339583333,292.0558435916667,59.0,79.0
1871,291.81890339583333,292.14539579166666,28.0,64.0
1872,292.26666439583335,292.57076874166665,30.0,98.0
1873,292.26666439583335,292.72002240833336,66.0,95.0
1874,292.26666439583335,292.78345521666665,57.0,95.0
1875,292.26666439583335,292.8282313166667,61.0,100.0
1876,292.93830589583337,292.98867900833335,61.0,22.0
1877,292.71442539583336,293.0092013875,30.0,71.0
1878,292.71442539583336,293.25173859583333,54.0,69.0
1879,293.1621863958333,293.3114400625,57.0,95.0
1880,293.1621863958333,293.33569378333334,61.0,122.0
1881,293.1621863958333,293.3562161625,66.0,99.0
1882,293.1621863958333,293.44949970416667,30.0,95.0
1883,293.83382789583334,293.899126375,57.0,66.0
1884,293.83382789583334,293.9028577166667,61.0,88.0
1885,293.83382789583334,293.9047233875,66.0,72.0
1886,293.60994739583333,293.9588278416667,30.0,64.0
1887,293.60994739583333,294.22002175833336,54.0,73.0
1888,294.05770839583334,294.369275425,30.0,98.0
1889,294.05770839583334,294.51479775,57.0,97.0
1890,294.05770839583334,294.51479775,61.0,127.0
1891,294.05770839583334,294.53718580000003,66.0,112.0
1892,294.50546939583336,294.8319617916667,30.0,104.0
1893,294.50546939583336,294.94949905416667,54.0,72.0
1894,294.9532303958333,295.08382735416666,57.0,96.0
1895,292.26666439583335,295.19390193333334,42.0,122.0
1896,294.9532303958333,295.2573347416667,61.0,127.0
1897,294.9532303958333,295.27226010833334,30.0,112.0
1898,295.1771108958333,295.2815884625,54.0,93.0
1899,294.9532303958333,295.29464815833336,66.0,117.0
1900,295.40099139583333,295.42897645833335,66.0,76.0
1901,295.40099139583333,295.6621853125,61.0,127.0
1902,295.62487189583334,295.6994987291667,57.0,43.0
1903,295.40099139583333,295.70323007083334,30.0,112.0
1904,295.84875239583334,296.18830448750003,26.0,95.0
1905,295.84875239583334,296.29651339583336,57.0,122.0
1906,295.84875239583334,296.317035775,62.0,112.0
1907,295.84875239583334,296.317035775,66.0,117.0
1908,296.29651339583336,296.6286028041667,26.0,70.0
1909,296.29651339583336,296.742408725,50.0,35.0
1910,296.742408725,297.0278563625,26.0,79.0
1911,296.742408725,297.03158770416667,57.0,102.0
1912,295.84875239583334,297.11181155,38.0,92.0
1913,296.9681548958333,297.1155428916667,50.0,96.0
1914,296.742408725,297.1155428916667,62.0,122.0
1915,296.742408725,297.2610652166667,66.0,127.0
1916,297.19203539583333,297.30397564583336,57.0,102.0
1917,297.19203539583333,297.5409158416667,26.0,77.0
1918,297.63979639583334,297.96255745,28.0,108.0
1919,297.63979639583334,298.1024827625,59.0,100.0
1920,297.63979639583334,298.29464685833335,68.0,112.0
1921,297.63979639583334,298.30770655416666,64.0,107.0
1922,298.08755739583336,298.39166174166667,28.0,85.0
1923,298.08755739583336,298.6323332791667,52.0,63.0
1924,298.5353183958333,298.7965123125,59.0,97.0
1925,298.5353183958333,298.8207660333333,28.0,87.0
1926,297.63979639583334,298.88979585416666,40.0,89.0
1927,298.5353183958333,299.003601775,68.0,122.0
1928,298.5353183958333,299.01666147083336,64.0,117.0
1929,298.98307939583333,299.137930075,59.0,95.0
1930,298.98307939583333,299.22934794583335,28.0,87.0
1931,298.7591988958333,299.3114374625,52.0,88.0
1932,299.43084039583334,299.75173577916667,33.0,93.0
1933,299.43084039583334,299.99987,45.0,85.0
1934,299.43084039583334,300.212556475,57.0,107.0
1935,299.87860139583336,300.21442214583334,33.0,76.0
1936,299.43084039583334,300.2237505,64.0,96.0
1937,299.43084039583334,300.24800422083337,61.0,112.0
1938,300.3263623958333,300.63979509583334,32.0,108.0
1939,300.3263623958333,301.02785462916665,44.0,96.0
1940,300.3263623958333,301.09315310833335,61.0,107.0
1941,300.7741233958333,301.1267351833333,32.0,98.0
1942,301.22188439583334,301.52412307083335,30.0,90.0
1943,301.22188439583334,301.9233766291667,66.0,95.0
1944,301.22188439583334,301.9401676666667,61.0,100.0
1945,301.22188439583334,301.94763035,57.0,96.0
1946,301.66964539583336,301.99427212083333,30.0,83.0
1947,301.22188439583334,302.14539145833334,54.0,81.0
1948,302.1174063958333,302.4084510458333,30.0,87.0
1949,302.3412868958333,302.46628684166666,54.0,90.0
1950,301.22188439583334,302.5073316,42.0,88.0
1951,302.1174063958333,302.6621822791667,66.0,117.0
1952,302.1174063958333,302.67337630416665,61.0,122.0
1953,302.5651673958333,302.7797195416667,57.0,88.0
1954,302.5651673958333,302.88792845,30.0,93.0
1955,303.01292839583334,303.35994317083333,26.0,111.0
1956,303.01292839583334,303.4308386625,62.0,100.0
1957,303.01292839583334,303.4345700041667,66.0,112.0
1958,303.01292839583334,303.4401670166667,57.0,99.0
1959,303.46068939583336,303.81889819583336,26.0,74.0
1960,303.46068939583336,303.9383011291667,50.0,36.0
1961,303.9084503958333,303.9886742416667,57.0,99.0
1962,303.9084503958333,303.99613692500003,62.0,117.0
1963,303.9084503958333,303.99613692500003,66.0,117.0
1964,303.9084503958333,304.1808383375,26.0,74.0
1965,304.3562113958333,304.63979336250003,26.0,74.0
1966,304.58009189583333,304.84501715416667,50.0,70.0
1967,304.80397239583334,305.0875543625,26.0,83.0
1968,304.80397239583334,305.21815132083333,57.0,97.0
1969,304.80397239583334,305.2312110166667,62.0,112.0
1970,304.80397239583334,305.24053937083335,66.0,112.0
1971,305.25173339583336,305.48867359166667,26.0,86.0
1972,305.25173339583336,305.72188244583333,50.0,90.0
1973,303.01292839583334,305.94576294583334,38.0,88.0
1974,305.6994943958333,305.96815099583335,26.0,95.0
1975,305.9233748958333,306.0502405125,50.0,92.0
1976,305.6994943958333,306.0931509416667,62.0,127.0
1977,305.6994943958333,306.15285240833333,66.0,127.0
1978,306.1472553958333,306.2274792416667,57.0,100.0
1979,306.1472553958333,306.4513597416667,26.0,90.0
1980,306.59501639583334,306.91031476666666,28.0,120.0
1981,306.59501639583334,306.91777745,59.0,100.0
1982,306.59501639583334,306.9327028166667,68.0,100.0
1983,306.59501639583334,306.9382998291667,64.0,99.0
1984,307.04277739583335,307.32449369166665,28.0,73.0
1985,307.4905383958333,307.5726279125,59.0,102.0
1986,307.4905383958333,307.58382193750003,64.0,96.0
1987,307.4905383958333,307.5875532791667,68.0,96.0
1988,307.4905383958333,307.73680694583334,28.0,79.0
1989,307.9382993958333,308.2218813625,28.0,67.0
1990,308.16217989583333,308.40471710416665,52.0,95.0
1991,308.38606039583334,308.5091946708333,59.0,99.0
1992,308.38606039583334,308.52971705,68.0,117.0
1993,308.38606039583334,308.53158272083334,64.0,107.0
1994,308.38606039583334,308.62673193333336,28.0,93.0
1995,308.60994089583335,308.7834482833333,52.0,31.0
1996,308.83382139583335,309.11926903333335,28.0,108.0
1997,309.05770189583336,309.33382117916665,52.0,95.0
1998,309.28158239583337,309.52038826250003,28.0,112.0
1999,306.59501639583334,309.56703003333337,40.0,86.0
2000,309.5054628958333,309.63979119583337,52.0,88.0
2001,309.28158239583337,309.69016430833335,64.0,127.0
2002,309.28158239583337,309.705089675,68.0,127.0
2003,309.7293433958333,309.88046273333333,59.0,93.0
2004,309.7293433958333,309.9550895666667,28.0,114.0
2005,310.17710439583334,315.9718780041667,54.0,97.0
2006,310.17710439583334,315.98120635833334,61.0,117.0
2007,310.17710439583334,315.9942660541667,57.0,102.0
2008,310.17710439583334,315.9942660541667,66.0,107.0
2009,310.17710439583334,316.00919142083336,42.0,122.0
2010,310.17710439583334,316.07262422916665,30.0,120.0
