,start,end,pitch,velocity
0,11.6117589,11.989699887499999,64.0,78.0
1,11.9646999,12.319111487499999,62.0,71.0
2,12.317640899999999,12.744111275,64.0,77.0
3,12.6705819,13.073522875,65.0,75.0
4,13.0235229,14.279404625,67.0,72.0
5,14.4352869,14.776463199999998,60.0,78.0
6,14.788227899999999,15.1720512375,59.0,73.0
7,15.141168899999998,15.551462812499999,60.0,78.0
8,15.4941099,15.919109687499999,62.0,74.0
9,15.8470509,16.4514623625,64.0,77.0
10,16.5529329,16.9058739,64.0,79.0
11,16.9058739,17.194109049999998,55.0,79.0
12,17.2588149,18.161755624999998,57.0,77.0
13,18.317637899999998,18.5779318875,60.0,77.0
14,18.6705789,19.654401937499998,60.0,79.0
15,19.7294019,19.972048837499997,55.0,78.0
16,20.0823429,20.539695612499997,53.0,76.0
17,20.435283899999998,20.655872025,57.0,77.0
18,20.7882249,21.020577725,59.0,79.0
19,21.1411659,21.414695175,60.0,78.0
20,21.4941069,21.8470479,64.0,77.0
21,21.8470479,22.199988899999997,65.0,78.0
22,22.199988899999997,22.7294004,62.0,78.0
23,22.9058709,23.258811899999998,64.0,78.0
24,23.258811899999998,23.6352823,62.0,73.0
25,23.6117529,24.020576225,64.0,80.0
26,23.9646939,24.342634887499997,65.0,78.0
27,24.317634899999998,25.5338107625,67.0,78.0
28,25.7293989,26.126457525,60.0,74.0
29,26.082339899999997,26.448516187499997,59.0,77.0
30,26.4352809,26.8588101,60.0,75.0
31,26.7882219,27.2102805125,62.0,74.0
32,27.141162899999998,27.720574374999998,64.0,78.0
33,27.8470449,28.173515325,64.0,81.0
34,28.199985899999998,28.5808680625,55.0,74.0
35,28.5529269,28.905867899999997,57.0,75.0
36,28.905867899999997,29.4352794,60.0,78.0
37,29.6117499,29.732338074999998,55.0,78.0
38,29.7882204,29.8896909375,53.0,72.0
39,29.964690899999997,30.257337812499998,53.0,78.0
40,30.3176319,30.6705729,60.0,78.0
41,30.6705729,31.023513899999998,60.0,78.0
42,31.023513899999998,31.3764549,57.0,63.0
43,31.3764549,31.636748887499998,59.0,76.0
44,31.7293959,31.9646899,59.0,79.0
45,32.0823369,32.355866174999996,59.0,81.0
46,32.435277899999996,32.712302631250004,60.0,78.0
47,32.795889225,35.295373966666666,62.0,79.0
48,35.85524449583333,36.42783279166666,55.0,78.0
49,36.61075929166666,37.57439387916666,67.0,72.0
50,37.67880559166666,38.021452479166655,65.0,79.0
51,38.03174659166666,38.63174629166666,64.0,78.0
52,38.737628591666656,39.021451979166656,64.0,88.0
53,39.09056959166666,39.38174591666666,71.0,80.0
54,39.44351059166666,40.28909840416666,72.0,79.0
55,40.502333591666655,40.76998051666666,71.0,78.0
56,40.85527459166666,41.08027447916666,72.0,79.0
57,41.20821559166666,41.421450779166655,71.0,78.0
58,41.56115659166666,41.82145057916666,67.0,75.0
59,41.91409759166666,42.18909745416666,60.0,79.0
60,42.26703859166666,43.08321465416666,60.0,80.0
61,43.32586159166666,43.58615557916666,69.0,77.0
62,43.67880259166666,44.243508191666656,69.0,78.0
63,44.384684591666655,44.69497855416666,65.0,64.0
64,44.73762559166666,45.04497837916666,57.0,81.0
65,45.09056659166666,45.35086057916666,59.0,72.0
66,45.44350759166666,45.68909570416666,59.0,78.0
67,45.79644859166666,46.07291904166666,59.0,79.0
68,46.14938959166666,46.43615415416666,60.0,80.0
69,46.502330591666656,47.49203597916666,62.0,76.0
70,47.56115359166666,47.87144755416666,55.0,81.0
71,47.914094591666654,48.82438825416666,67.0,53.0
72,48.97291759166666,49.30527036666666,65.0,79.0
73,49.32585859166666,49.58321140416666,64.0,78.0
74,49.50232909166666,49.58321140416666,64.0,80.0
75,50.03174059166666,50.27879929166666,64.0,81.0
76,50.384681591666656,50.66703439166666,71.0,73.0
77,50.73762259166666,51.60085745416666,72.0,78.0
78,51.796445591666654,52.03173959166666,71.0,78.0
79,52.149386591666655,52.38615117916666,72.0,79.0
80,52.502327591666656,52.76409216666666,71.0,77.0
81,52.85526859166666,53.11115081666666,67.0,76.0
82,53.20820959166666,53.459680054166654,60.0,78.0
83,53.56115059166666,54.483208954166656,60.0,78.0
84,54.61997359166666,54.85967935416666,69.0,78.0
85,54.97291459166666,55.49056139166666,69.0,78.0
86,55.678796591666654,55.91409059166666,65.0,78.0
87,56.031737591666655,56.32438450416666,57.0,77.0
88,56.384678591666656,56.73761959166666,59.0,76.0
89,56.73761959166666,57.09056059166666,59.0,76.0
90,57.09056059166666,57.54350154166666,59.0,77.0
91,57.44350159166666,58.05526599166666,60.0,73.0
92,58.149383591666655,60.61997059166666,60.0,77.0
93,73.40968636458332,73.78762735208332,64.0,78.0
94,73.76262736458332,74.11703895208332,62.0,71.0
95,74.11556836458332,74.54203873958332,64.0,77.0
96,74.46850936458333,74.87145033958332,65.0,75.0
97,74.82145036458331,76.07733208958332,67.0,72.0
98,76.23321436458332,76.57439066458332,60.0,78.0
99,76.58615536458332,76.96997870208332,59.0,73.0
100,76.93909636458332,77.34939027708332,60.0,78.0
101,77.29203736458332,77.71703715208332,62.0,74.0
102,77.64497836458332,78.24938982708332,64.0,77.0
103,78.35086036458333,78.70380136458331,64.0,79.0
104,78.70380136458331,78.99203651458332,55.0,79.0
105,79.05674236458331,79.95968308958332,57.0,77.0
106,80.11556536458332,80.37585935208332,60.0,77.0
107,80.46850636458332,81.45232940208332,60.0,79.0
108,81.52732936458332,81.76997630208332,55.0,78.0
109,81.88027036458332,82.33762307708332,53.0,76.0
110,82.23321136458333,82.45379948958332,57.0,77.0
111,82.58615236458331,82.81850518958332,59.0,79.0
112,82.93909336458331,83.21262263958332,60.0,78.0
113,83.29203436458332,83.64497536458332,64.0,77.0
114,83.64497536458332,83.99791636458332,65.0,78.0
115,83.99791636458332,84.52732786458333,62.0,78.0
116,84.70379836458332,85.05673936458332,64.0,78.0
117,85.05673936458332,85.43320976458332,62.0,73.0
118,85.40968036458332,85.81850368958332,64.0,80.0
119,85.76262136458332,86.14056235208332,65.0,78.0
120,86.11556236458333,87.33173822708332,67.0,78.0
121,87.52732636458332,87.92438498958332,60.0,74.0
122,87.88026736458332,88.24644365208331,59.0,77.0
123,88.23320836458332,88.65673756458332,60.0,75.0
124,88.58614936458332,89.00820797708332,62.0,74.0
125,88.93909036458332,89.51850183958332,64.0,78.0
126,89.64497236458332,89.97144278958332,64.0,81.0
127,89.99791336458333,90.37879552708333,55.0,74.0
128,90.35085436458331,90.70379536458333,57.0,75.0
129,90.70379536458333,91.23320686458332,60.0,78.0
130,91.40967736458332,91.53026553958333,55.0,78.0
131,91.58614786458332,91.68761840208332,53.0,72.0
132,91.76261836458332,92.05526527708332,53.0,78.0
133,92.11555936458332,92.46850036458332,60.0,78.0
134,92.46850036458332,92.82144136458332,60.0,78.0
135,92.82144136458332,93.17438236458332,57.0,63.0
136,93.17438236458332,93.43467635208332,59.0,76.0
137,93.52732336458332,93.76261736458332,59.0,79.0
138,93.88026436458333,94.15379363958331,59.0,81.0
139,94.23320536458331,94.50526405208332,60.0,78.0
140,94.58614636458333,97.1054272,62.0,79.0
141,97.6879182,98.2728998625,55.0,78.0
142,98.44937036249999,99.40378165,67.0,72.0
143,99.5081933625,99.85084024999999,65.0,79.0
144,99.8611343625,100.4611340625,64.0,78.0
145,100.5670163625,100.85083974999999,64.0,88.0
146,100.91995736249999,101.2111336875,71.0,80.0
147,101.27289836249999,102.11848617499999,72.0,79.0
148,102.33172136249999,102.5993682875,71.0,78.0
149,102.68466236249999,102.90966225,72.0,79.0
150,103.0376033625,103.25083855,71.0,78.0
151,103.3905443625,103.65083834999999,67.0,75.0
152,103.7434853625,104.01848522499999,60.0,79.0
153,104.0964263625,104.91260242499999,60.0,80.0
154,105.15524936249999,105.41554335,69.0,77.0
155,105.50819036249999,106.0728959625,69.0,78.0
156,106.21407236249999,106.52436632499999,65.0,64.0
157,106.56701336249999,106.87436614999999,57.0,81.0
158,106.9199543625,107.18024835,59.0,72.0
159,107.2728953625,107.518483475,59.0,78.0
160,107.6258363625,107.90230681249999,59.0,79.0
161,107.9787773625,108.265541925,60.0,80.0
162,108.3317183625,109.32142375,62.0,76.0
163,109.39054136249999,109.70083532499999,55.0,81.0
164,109.74348236249999,110.65377602499998,67.0,53.0
165,110.8023053625,111.1346581375,65.0,79.0
166,111.1552463625,111.412599175,64.0,78.0
167,111.33171686249999,111.412599175,64.0,80.0
168,111.8611283625,112.1081870625,64.0,81.0
169,112.2140693625,112.4964221625,71.0,73.0
170,112.56701036249999,113.430245225,72.0,78.0
171,113.62583336249999,113.86112736249999,71.0,78.0
172,113.97877436249999,114.21553895,72.0,79.0
173,114.33171536249999,114.59347993749999,71.0,77.0
174,114.6846563625,114.94053858749999,67.0,76.0
175,115.0375973625,115.28906782499999,60.0,78.0
176,115.3905383625,116.31259672499999,60.0,78.0
177,116.44936136249999,116.689067125,69.0,78.0
178,116.8023023625,117.3199491625,69.0,78.0
179,117.50818436249999,117.74347836249999,65.0,78.0
180,117.86112536249999,118.153772275,57.0,77.0
181,118.21406636249999,118.5670073625,59.0,76.0
182,118.5670073625,118.9199483625,59.0,76.0
183,118.9199483625,119.37288931249999,59.0,77.0
184,119.2728893625,119.8846537625,60.0,73.0
185,119.9787713625,122.40091074374999,60.0,77.0
186,123.08517721874999,123.59654071874999,55.0,78.0
187,123.76699521875,124.715734725,67.0,72.0
188,124.8201464375,125.162793325,65.0,79.0
189,125.1730874375,125.7730871375,64.0,78.0
190,125.8789694375,126.162792825,64.0,88.0
191,126.2319104375,126.5230867625,71.0,80.0
192,126.5848514375,127.43043925,72.0,79.0
193,127.6436744375,127.9113213625,71.0,78.0
194,127.9966154375,128.221615325,72.0,79.0
195,128.3495564375,128.562791625,71.0,78.0
196,128.7024974375,128.962791425,67.0,75.0
197,129.0554384375,129.3304383,60.0,79.0
198,129.4083794375,130.2245555,60.0,80.0
199,130.4672024375,130.727496425,69.0,77.0
200,130.8201434375,131.3848490375,69.0,78.0
201,131.5260254375,131.8363194,65.0,64.0
202,131.8789664375,132.19007948333334,57.0,81.0
203,132.237625475,132.5111427770833,59.0,72.0
204,132.6101993833333,132.87277800624997,59.0,78.0
205,132.98755788333332,133.28518100833332,59.0,79.0
206,133.36851414999998,133.68101343125,60.0,80.0
207,133.75312864999998,134.83165181041664,62.0,76.0
208,134.90697215,135.24124848958334,55.0,81.0
209,135.28641979583332,136.20710366458334,67.0,53.0
210,136.35563300208335,136.68798577708336,65.0,79.0
211,136.70857400208334,136.96592681458336,64.0,78.0
212,136.88504450208336,136.96592681458336,64.0,80.0
213,137.41445600208334,137.66151470208334,64.0,81.0
214,137.76739700208336,138.04974980208334,71.0,73.0
215,138.12033800208334,138.98357286458335,72.0,78.0
216,139.1800063354167,139.42061910208338,71.0,78.0
217,139.54219960208337,139.78908239583336,72.0,79.0
218,139.91137340833336,140.18691518333335,71.0,77.0
219,140.2849738604167,140.5611636979167,67.0,76.0
220,140.6659253604167,140.9373533041667,60.0,78.0
221,141.0468768604167,142.0421126541667,60.0,78.0
222,142.1897313604167,142.44846092083336,69.0,78.0
223,142.5706828604167,143.12941172708335,69.0,78.0
224,143.33258586041669,143.58655352708337,65.0,78.0
225,143.7135373604167,144.03280039583336,57.0,77.0
226,144.0994832416667,144.50098038125003,59.0,76.0
227,144.50098038125003,144.91495585208335,59.0,76.0
228,144.91495585208335,145.46647377708334,59.0,77.0
229,145.34461012708334,146.09012892708333,60.0,73.0
230,146.20482412708333,149.37908127708332,60.0,77.0
231,154.72733763125,155.02667947708332,71.0,78.0
232,155.12207413125,155.37371865,72.0,79.0
233,155.51681063125,155.75529726666667,71.0,78.0
234,155.91154713125,156.2026653,67.0,75.0
235,156.30628363125,156.61384915416667,60.0,79.0
236,156.70102013125,157.6138482875,60.0,80.0
237,157.88522963125,158.1763478,69.0,77.0
238,158.27996613125,158.91154453125,69.0,78.0
239,159.06943913125,159.42461886666666,65.0,64.0
240,159.47344036666667,159.82728625,57.0,81.0
241,159.9004569,160.208818925,71.0,77.0
242,160.30637979166667,160.658295775,71.0,79.0
243,160.7994106,161.42832975833332,71.0,84.0
244,161.36038558333334,161.62693580833334,69.0,64.0
245,161.599061275,163.89522595833333,67.0,60.0
