,start,end,pitch,velocity
0,38.729059333333325,39.03078325,62.0,79.0
1,38.98767983333333,39.310955458333325,64.0,64.0
2,39.24630033333333,39.849748166666664,65.0,92.0
3,39.76354133333333,40.291558187499994,72.0,90.0
4,40.28078233333333,41.43164355833333,70.0,85.0
5,42.92216,43.252159999999996,60.0,90.0
6,43.22216,43.54716,62.0,68.0
7,43.52216,43.93882666666667,64.0,88.0
8,44.05549333333334,44.511743333333335,70.0,89.0
9,44.55549333333334,45.949243333333335,69.0,89.0
10,47.05549333333334,47.172160000000005,69.0,96.0
11,47.30549333333334,47.43882666666667,69.0,92.0
12,47.55549333333334,47.91071910833334,74.0,102.0
13,48.06114266666667,48.42343039166667,72.0,112.0
14,48.56961666666667,49.029361908333335,70.0,102.0
15,49.07809066666667,50.02088620833334,67.0,88.0
16,50.34927566666667,50.57173304166667,65.0,88.0
17,50.60351266666667,51.1289358,64.0,79.0
18,51.11198666666667,51.421308350000004,65.0,70.0
19,51.36622366666667,52.11622281666667,67.0,85.0
20,52.128934666666666,52.595035833333334,70.0,96.0
21,52.63740866666667,53.89239639166667,69.0,71.0
22,55.11417066666667,55.35005777916667,62.0,92.0
23,55.35610616666667,55.648444895833336,64.0,73.0
24,55.598041666666674,56.0980417,65.0,88.0
25,56.081912666666675,56.59602560416667,72.0,92.0
26,56.565783666666675,58.05570312083334,70.0,93.0
27,58.98513866666667,59.305703204166676,60.0,79.0
28,59.227074166666675,59.51739676666667,62.0,64.0
29,59.46900966666667,60.04159035000001,64.0,72.0
30,59.95288066666667,60.45086457083334,70.0,95.0
31,60.43675166666667,61.507316254166675,69.0,92.0
32,62.856106666666676,62.96497764166667,69.0,86.0
33,63.09804216666667,63.231106691666675,69.0,85.0
34,63.33997766666667,63.65449381666667,74.0,97.0
35,63.82384866666667,64.0758648125,72.0,97.0
36,64.30771966666667,64.602074525,70.0,107.0
37,64.79159066666668,65.75341866666668,67.0,77.0
38,66.02008533333334,66.23258533333335,65.0,53.0
39,66.27008533333334,66.74925200000001,64.0,81.0
40,66.77008533333334,67.04508533333335,69.0,81.0
41,67.02008533333334,67.5965881375,67.0,83.0
42,67.76462100000002,68.20109660625002,64.0,79.0
43,68.25642450000001,68.64986730000001,62.0,85.0
44,68.74822800000001,68.85683460625002,62.0,83.0
45,68.99412975000001,69.09044126875001,62.0,77.0
46,69.24003150000001,69.66011365625002,62.0,92.0
47,69.73183500000002,70.09863844375002,74.0,97.0
48,70.2236385,70.98183556250001,74.0,93.0
49,72.68265600000001,72.83634459375001,62.0,99.0
50,72.92855775000001,73.15601686875002,74.0,96.0
51,73.17445950000001,73.69085317500002,72.0,117.0
52,73.66626300000001,74.14782059375001,74.0,95.0
53,74.15806650000002,74.66216508750001,69.0,89.0
54,76.617084,76.74208405625001,69.0,93.0
55,76.86298575,77.06995305625001,69.0,85.0
56,77.10888750000001,77.43060895625001,74.0,89.0
57,77.84659275000001,78.08634695625001,72.0,93.0
58,78.09249450000002,78.56790455000001,70.0,79.0
59,78.58429800000002,79.43358440000002,67.0,82.0
60,79.80455216666668,80.02027798750002,65.0,96.0
61,80.04648766666668,80.51624576250002,64.0,74.0
62,80.53035866666669,80.77632642500002,65.0,85.0
63,80.77229416666668,81.24205226250002,67.0,86.0
64,81.49810066666669,81.94366521250002,70.0,100.0
65,81.98197166666668,83.60495564583336,69.0,96.0
66,84.40132666666669,84.53035893333335,62.0,83.0
67,84.64326216666669,84.76422991666668,62.0,86.0
68,84.88519766666668,85.30253640416669,62.0,92.0
69,85.36906866666669,85.71584288333335,74.0,96.0
70,85.85293966666669,86.79648811666668,74.0,99.0
71,88.27229466666668,88.50818177916669,74.0,89.0
72,88.51423016666669,88.84890760833335,76.0,93.0
73,88.75616566666669,89.19164956666668,77.0,96.0
74,89.24003666666668,89.58277862500002,79.0,86.0
75,89.72390766666669,90.18847682500002,76.0,93.0
76,90.21306700000002,91.16388710000001,69.0,70.0
77,92.18028100000002,92.29708433125002,69.0,86.0
78,92.42618275000002,92.56142871250002,69.0,75.0
79,92.67208450000001,93.00405186250002,74.0,96.0
80,93.16388800000001,93.46101928125002,72.0,93.0
81,93.65569150000002,94.06552775000002,70.0,95.0
82,94.14749500000002,94.96716750000002,67.0,92.0
83,95.62290550000002,96.00906223333334,72.0,97.0
84,96.10430033333334,96.29676066041668,74.0,95.0
85,96.34239558333334,96.98723688541668,76.0,92.0
86,97.05668133333334,97.50509405416668,76.0,97.0
87,97.53287183333335,99.26043759583335,81.0,112.0
88,99.35519566666667,99.63342149166668,79.0,112.0
89,99.59713116666668,99.86527634583335,77.0,70.0
90,99.83906666666668,101.14672800000001,76.0,88.0
91,103.86884333333334,104.16692021666668,62.0,90.0
92,104.15730483333336,104.47220863750002,64.0,65.0
93,104.44576633333335,104.98438563125002,65.0,77.0
94,104.96594300000002,105.40651696875001,72.0,96.0
95,105.45774650000001,107.45011496666669,70.0,100.0
96,107.98459733333335,108.25183851666668,60.0,82.0
97,108.24321783333335,108.53632106666669,62.0,73.0
98,108.50183833333335,108.99766471458334,64.0,78.0
99,108.99171233333334,109.53139490000001,70.0,102.0
100,109.46790283333334,110.983775925,69.0,95.0
101,111.86472833333333,111.981395,69.0,85.0
102,112.11472833333333,112.26056166666667,69.0,83.0
103,112.36472833333333,112.70431166666667,74.0,96.0
104,112.86472833333333,113.04597833333334,72.0,96.0
105,113.11472833333333,113.36056166666667,70.0,92.0
106,113.61472833333333,114.56365306666667,67.0,90.0
107,115.09591116666667,115.33784666666666,65.0,79.0
108,115.33784666666666,115.79752411666666,64.0,89.0
109,115.82171766666667,116.03341122916667,70.0,93.0
110,116.06365316666667,116.55814884583334,69.0,90.0
111,116.78433933333334,117.24465681666668,65.0,81.0
112,117.26052983333334,118.86370451666667,62.0,81.0
113,150.42739799999998,150.53091362499998,62.0,83.0
114,150.66177299999998,150.75356987499998,62.0,77.0
115,150.89614799999998,151.3044141458333,62.0,92.0
116,151.37497866666664,151.7358657875,74.0,97.0
117,151.85884966666666,152.60481745833332,74.0,93.0
118,154.27820466666665,154.3951401583333,74.0,112.0
119,154.52014016666664,154.74393050416666,74.0,96.0
120,154.76207566666665,155.27014021666665,72.0,117.0
121,155.24594666666664,155.71973702083332,76.0,95.0
122,155.72981766666666,156.21532674999997,69.0,89.0
123,158.09844933333332,158.21948108541665,69.0,93.0
124,158.3365445833333,158.53694141874996,69.0,85.0
125,158.57463983333332,158.88614778541665,74.0,89.0
126,159.2889255833333,159.5210684520833,72.0,93.0
127,159.5270208333333,159.98733831666664,70.0,79.0
128,160.0032113333333,160.82860819999996,67.0,82.0
129,161.19368758333331,161.40598918124996,65.0,96.0
130,161.4317828333333,161.89408444374996,64.0,74.0
131,161.9079733333333,162.15003683749998,65.0,85.0
132,162.14606858333332,162.60837019374998,67.0,86.0
133,162.8603543333333,163.29884641874997,72.0,100.0
134,163.3365448333333,164.93376713541664,69.0,96.0
135,165.7174973333333,165.84448146666665,62.0,83.0
136,165.9555925833333,166.0746402083333,62.0,86.0
137,166.1936878333333,166.6044021395833,62.0,92.0
138,166.66987833333332,167.01114819166665,74.0,96.0
139,167.14606883333332,168.0746403083333,74.0,99.0
140,169.5270213333333,169.7591642020833,74.0,89.0
141,169.7651165833333,170.09448167916665,76.0,93.0
142,170.0032118333333,170.43613556666665,77.0,96.0
143,170.48452266666663,170.82726462499997,79.0,86.0
144,170.96839366666666,171.42568399999996,76.0,93.0
145,171.44968399999996,172.37768399999996,69.0,70.0
146,173.36968399999998,173.48368399999998,69.0,86.0
147,173.60968399999996,173.74168399999996,69.0,75.0
148,173.84968399999997,174.17368399999998,74.0,96.0
149,174.32968399999996,174.61968399999998,72.0,93.0
150,174.80968399999998,175.20968399999998,70.0,95.0
151,175.28968399999997,176.08968399999998,67.0,92.0
152,176.72968399999996,177.11368399999998,72.0,97.0
153,177.20968399999998,177.40368399999997,74.0,95.0
154,177.44968399999996,178.09968399999997,76.0,92.0
155,178.16968399999996,178.62168399999996,76.0,97.0
156,178.64968399999998,180.40004051249997,81.0,112.0
157,197.288758,198.070008,77.0,127.0
158,198.226258,198.677429875,76.0,127.0
159,198.695008,199.071961125,74.0,117.0
160,199.163758,200.310242375,70.0,122.0
161,201.038758,201.767273625,76.0,127.0
162,201.976258,202.443054875,74.0,122.0
163,202.445008,202.915711125,72.0,107.0
164,202.913758,204.021179875,69.0,96.0
165,210.882508,210.986023625,62.0,83.0
166,211.116883,211.208679875,62.0,77.0
167,211.351258,211.76365565625,62.0,92.0
168,211.835377,212.20218044375,74.0,97.0
169,212.3271805,213.0853775625,74.0,93.0
170,214.770829,214.917313375,74.0,99.0
171,215.005204,215.222000875,74.0,96.0
172,215.239579,215.7317665,72.0,117.0
173,215.708329,216.167313375,76.0,95.0
174,216.177079,216.65754775,69.0,89.0
175,218.520829,218.639969625,69.0,93.0
176,218.755204,218.952469625,69.0,85.0
177,218.989579,219.296219625,74.0,89.0
178,219.692704,219.921219625,72.0,93.0
179,219.927079,220.380204,70.0,79.0
180,220.395829,221.2175504,67.0,82.0
181,221.59459975,221.81386214375,65.0,96.0
182,221.8405015,222.31796073125,64.0,74.0
183,222.332305,222.5823051125,65.0,85.0
184,222.57820675,223.05351919375,67.0,86.0
185,223.30550333333335,223.74399541875002,70.0,100.0
186,223.78169383333335,225.37891613541666,69.0,96.0
187,226.1601466666667,226.28613093333334,62.0,83.0
188,226.3963671666667,226.51447741666667,62.0,86.0
189,226.63258766666667,227.0400680291667,62.0,92.0
190,227.10502866666667,227.44361138333335,74.0,96.0
191,227.57746966666667,228.49872961666668,74.0,99.0
192,229.9396746666667,230.16998965416667,74.0,89.0
193,230.1758951666667,230.50266685833336,76.0,93.0
194,230.4121156666667,230.83731256666667,77.0,96.0
195,230.88455666666667,231.219202375,79.0,86.0
196,231.35699766666667,231.80581661666668,76.0,93.0
197,231.82943866666668,232.7428246,69.0,70.0
198,233.7192026666667,233.83140740416667,69.0,86.0
199,233.9554231666667,234.08534444166668,69.0,75.0
200,234.1916436666667,234.51715686250003,74.0,96.0
201,234.676993,234.97412428125003,72.0,93.0
202,235.1687965,235.57863275000003,70.0,95.0
203,235.66060000000002,236.4802725,67.0,92.0
204,237.13601050000003,237.518695,72.0,97.0
205,237.612445,237.801898125,74.0,95.0
206,237.84682,238.481585625,76.0,92.0
207,238.549945,238.99135125,76.0,97.0
208,239.018695,240.676898125,81.0,112.0
209,244.860491875,245.130023125,79.0,112.0
210,245.094866875,245.3546325,77.0,70.0
211,245.329241875,246.575335625,76.0,88.0
212,251.22182,251.462054375,62.0,90.0
213,251.456195,251.71010125,64.0,65.0
214,251.69057,252.174945,65.0,77.0
215,252.15932,252.57728875,72.0,96.0
216,252.62807,254.56869500000002,70.0,100.0
217,255.087445,255.34761436666668,60.0,82.0
218,255.3391398,255.62727506666667,62.0,73.0
219,255.59337680000002,256.10608808333336,64.0,78.0
220,256.1018508,256.67812133333337,70.0,102.0
221,256.6103248,258.22896703333333,69.0,95.0
222,259.1526948,259.2692200916667,69.0,85.0
223,259.40868520000004,259.5573919875,69.0,83.0
224,259.66730570000004,260.01859854583336,74.0,96.0
225,260.18454670000006,260.37204656250003,72.0,96.0
226,260.44316720000006,260.69747735833334,70.0,92.0
227,260.9604082,261.94316610000004,67.0,90.0
228,262.51213120000006,262.7685965291667,65.0,79.0
229,262.7707517,263.2599754791667,64.0,89.0
230,263.2879927,263.51428563750005,70.0,93.0
231,263.5466132,264.0746300541667,69.0,90.0
232,264.32247470000004,264.8224743333334,65.0,81.0
233,264.83971570000006,266.5810937333334,62.0,81.0
234,267.3741966,267.55092060833334,69.0,92.0
235,267.65867915,267.81385145,69.0,75.0
236,267.9086789666667,268.2060925416667,74.0,99.0
237,268.42160962500003,268.6974714916667,72.0,89.0
238,269.02936780000005,269.50135021250003,70.0,97.0
239,269.52721226250003,270.4560908916667,67.0,75.0
240,271.3785040083334,271.7535037333334,65.0,79.0
241,271.74703822083336,272.61772723750005,64.0,75.0
242,272.9108304708334,273.67376094583335,69.0,95.0
243,273.6392782125,275.4797941041667,67.0,74.0
244,276.1759142833334,277.8806544125,65.0,90.0
245,277.83324065416673,280.51427317083335,62.0,72.0
