,start,end,pitch,velocity
0,24.583333333333332,25.137930933333333,55.0,52.0
1,23.583333333333332,25.230603279166665,43.0,74.0
2,24.333333333333332,25.400861775,50.0,38.0
3,25.344827333333335,26.058188879166668,58.0,63.0
4,25.862068333333333,27.2823259125,36.0,64.0
5,26.37930933333333,27.370687916666668,43.0,47.0
6,26.896550333333334,27.9030151125,48.0,41.0
7,26.896550333333334,28.0581874125,60.0,66.0
8,27.413791333333332,28.090514975,55.0,51.0
9,28.460589,29.23067859375,48.0,61.0
10,27.931032333333334,29.270857181249998,41.0,68.0
11,28.9963035,29.6436251875,57.0,77.0
12,29.532017999999997,29.661482337499997,60.0,72.0
13,30.067732499999998,30.487970666666666,57.0,59.0
14,30.067732499999998,30.490053999999997,54.0,67.0
15,30.067732499999998,31.44213733333333,38.0,59.0
16,30.57963733333333,31.462970666666664,45.0,39.0
17,31.07963733333333,31.619220666666664,50.0,49.0
18,31.07963733333333,32.065053999999996,66.0,64.0
19,31.07963733333333,32.094220666666665,62.0,64.0
20,31.57963733333333,32.14838733333333,57.0,58.0
21,32.57963733333333,33.227554,50.0,52.0
22,32.07963733333333,33.26297066666667,43.0,62.0
23,33.07963733333333,34.033803999999996,58.0,61.0
24,33.57963733333333,34.062970666666665,55.0,56.0
25,33.07963733333333,34.065053999999996,62.0,61.0
26,34.59113133333333,35.25061360833333,52.0,40.0
27,34.07963733333333,35.345441124999994,45.0,67.0
28,35.10837233333333,36.15794052916666,64.0,59.0
29,35.62561333333333,36.16440604166666,57.0,54.0
30,35.10837233333333,36.17733706666666,61.0,62.0
31,37.17733633333333,37.845439291666665,62.0,64.0
32,37.17733633333333,38.05233569166666,50.0,40.0
33,37.69457733333333,38.32388721666666,64.0,40.0
34,36.142854333333325,39.78293787083333,38.0,70.0
35,36.66009533333333,39.8131102625,45.0,52.0
36,38.211818333333326,39.93595499999999,62.0,43.0
37,38.211818333333326,39.95750670833333,50.0,33.0
38,38.211818333333326,39.968282562499994,57.0,35.0
39,38.211818333333326,39.968282562499994,65.0,40.0
40,40.798023333333326,41.75060884166666,50.0,57.0
41,40.28078233333333,41.81526396666666,43.0,76.0
42,41.31526433333333,42.29155672083333,58.0,68.0
43,41.83250533333333,42.30017740416666,55.0,61.0
44,42.09112583333333,43.911743333333334,36.0,71.0
45,42.92216,44.02424333333334,43.0,38.0
46,43.52216,44.45966,48.0,31.0
47,43.52216,44.567993333333334,60.0,63.0
48,43.52216,44.640910000000005,64.0,61.0
49,44.05549333333334,44.734660000000005,55.0,56.0
50,45.05549333333334,45.797160000000005,48.0,52.0
51,44.55549333333334,45.85757666666667,41.0,69.0
52,45.55549333333334,46.14924333333334,60.0,56.0
53,45.55549333333334,46.15757666666667,57.0,61.0
54,46.05549333333334,46.64299333333334,53.0,52.0
55,46.55549333333334,47.70549333333334,38.0,61.0
56,47.05549333333334,47.779363325000006,45.0,43.0
57,47.55549333333334,48.53148111666667,54.0,61.0
58,48.06114266666667,48.542074325,50.0,61.0
59,47.55549333333334,48.55054889166667,57.0,64.0
60,49.07809066666667,49.734869583333335,50.0,47.0
61,48.56961666666667,49.736988225000005,43.0,56.0
62,49.58656466666667,50.601394025000005,58.0,85.0
63,49.58656466666667,50.61834315833334,62.0,69.0
64,50.09503866666667,50.637410933333335,55.0,48.0
65,50.60351266666667,51.97003654166667,36.0,64.0
66,51.11198666666667,51.978511108333336,43.0,34.0
67,51.620460666666666,52.289951433333336,48.0,41.0
68,51.620460666666666,52.70308655833334,60.0,61.0
69,51.620460666666666,52.720035691666666,64.0,63.0
70,52.128934666666666,52.77935765833334,55.0,49.0
71,53.14588266666667,53.928686716666675,48.0,50.0
72,52.63740866666667,54.01538027083334,41.0,64.0
73,53.65435666666667,54.23917060833334,57.0,59.0
74,53.65435666666667,54.26538028750001,60.0,65.0
75,54.14642866666667,54.6766706375,53.0,46.0
76,54.63029966666667,54.99723517500001,54.0,50.0
77,54.63029966666667,55.0335255,57.0,46.0
78,55.598041666666674,55.72707393333334,57.0,58.0
79,54.63029966666667,55.96094491666667,38.0,66.0
80,55.11417066666667,56.02142879166667,45.0,37.0
81,55.598041666666674,56.134332025000006,50.0,37.0
82,55.598041666666674,56.64642883333334,62.0,65.0
83,56.081912666666675,56.66457399583334,57.0,49.0
84,57.04965466666667,57.66054180416667,50.0,56.0
85,56.565783666666675,57.74118697083334,43.0,66.0
86,57.53352566666667,58.57989670416667,58.0,69.0
87,57.53352566666667,58.65449348333334,62.0,59.0
88,58.01739666666667,59.54159031666667,55.0,59.0
89,58.50126766666667,59.81578388333334,36.0,55.0
90,58.98513866666667,59.882316145833336,43.0,42.0
91,59.46900966666667,60.10005809583334,48.0,31.0
92,59.46900966666667,60.53352586666667,60.0,62.0
93,59.46900966666667,60.54965490000001,64.0,49.0
94,59.95288066666667,60.61215490416667,55.0,47.0
95,60.920622666666674,61.583929162500006,48.0,63.0
96,60.43675166666667,61.634332391666675,41.0,59.0
97,61.888364666666675,62.40449373333334,53.0,50.0
98,61.404493666666674,62.43473567083334,57.0,57.0
99,61.404493666666674,62.44884857500001,60.0,62.0
100,62.37223566666667,63.79562285833334,38.0,66.0
101,62.856106666666676,63.80570350416667,45.0,42.0
102,63.33997766666667,64.1363486875,50.0,40.0
103,63.82384866666667,64.39239709166668,62.0,59.0
104,63.33997766666667,64.40650999583335,66.0,77.0
105,64.06578416666667,64.41054225416667,57.0,53.0
106,64.30771966666667,65.38634877083334,43.0,66.0
107,64.79159066666668,65.48258533333335,50.0,52.0
108,65.27546166666667,66.17841866666667,58.0,56.0
109,65.27546166666667,66.19508533333335,62.0,49.0
110,65.77008533333334,66.23258533333335,55.0,50.0
111,66.27008533333334,67.24508533333335,45.0,63.0
112,67.27008533333334,67.81789971250001,49.0,48.0
113,67.27008533333334,68.42445736250001,61.0,59.0
114,66.77008533333334,68.45724426250001,64.0,69.0
115,67.76462100000002,68.50642461250001,57.0,49.0
116,68.25642450000001,69.0801953625,38.0,65.0
117,68.74822800000001,69.11298226250001,45.0,38.0
118,69.24003150000001,69.7605235375,36.0,82.0
119,69.73183500000002,70.16216306250001,55.0,75.0
120,69.24003150000001,70.17650733125001,60.0,81.0
121,69.24003150000001,70.19699914375002,64.0,86.0
122,70.71544200000001,71.32199965000001,53.0,78.0
123,70.96134375000001,71.36913081875001,58.0,66.0
124,70.2236385,72.03306554375001,46.0,102.0
125,71.45314725000001,72.05150817500001,53.0,53.0
126,70.46954025000001,72.15806560000001,50.0,68.0
127,71.69904900000002,72.69495108750002,58.0,85.0
128,71.94495075000002,72.80355769375001,62.0,57.0
129,71.20724550000001,72.82609868750001,65.0,72.0
130,73.17445950000001,73.25027920625001,66.0,46.0
131,72.68265600000001,73.25437756875002,53.0,72.0
132,72.92855775000001,73.31585300625001,58.0,62.0
133,73.42036125000001,73.62732855625,53.0,47.0
134,72.43675425,73.64986955,50.0,56.0
135,72.1908525,73.67036136250002,46.0,93.0
136,73.91216475000002,74.14372223125001,62.0,67.0
137,73.66626300000001,74.15396813750002,58.0,68.0
138,73.17445950000001,74.1621648625,65.0,69.0
139,74.64987,75.20519811875002,53.0,56.0
140,74.89577175000001,75.53716548125001,57.0,76.0
141,75.38757525000001,75.68265735000001,53.0,67.0
142,74.15806650000002,75.99208371875001,41.0,65.0
143,74.40396825000002,76.17651003125002,48.0,50.0
144,75.87937875000001,76.69085452500002,57.0,58.0
145,75.14167350000001,76.74413323750001,65.0,82.0
146,75.63347700000001,76.96134645000001,60.0,73.0
147,76.617084,77.21544492500001,53.0,82.0
148,76.86298575,77.57610082500001,57.0,78.0
149,77.35478925000001,77.64167462500001,53.0,97.0
150,76.12528050000002,77.92036327500001,41.0,54.0
151,77.10888750000001,78.06790432500001,65.0,100.0
152,76.37118225000002,78.07815023125002,48.0,49.0
153,77.60069100000001,78.09249450000002,60.0,107.0
154,77.84659275000001,78.11913385625002,57.0,99.0
155,78.58429800000002,78.85069156250002,55.0,72.0
156,78.83019975000002,79.18060974375001,58.0,92.0
157,78.33839625000002,79.19905237500001,50.0,62.0
158,79.32068116666669,79.47189085416669,50.0,74.0
159,78.09249450000002,79.53439085833335,43.0,82.0
160,79.56261666666668,80.01826185833335,58.0,102.0
161,79.07610150000001,80.03035863333335,62.0,97.0
162,79.80455216666668,80.05455218333336,55.0,81.0
163,80.53035866666669,81.07471354166668,48.0,79.0
164,80.77229416666668,81.13116515833335,52.0,56.0
165,80.04648766666668,81.56261680000001,36.0,72.0
166,80.28842316666669,81.57672970416668,43.0,59.0
167,81.01422966666668,81.64527809583335,56.0,107.0
168,81.25616516666669,81.96987489166668,48.0,73.0
169,81.74003616666668,81.98802005416668,56.0,75.0
170,81.49810066666669,81.99810070000002,52.0,74.0
171,82.46584266666669,82.83479430416668,53.0,79.0
172,82.70777816666669,83.07471367500001,57.0,70.0
173,82.22390716666669,83.11503625833335,48.0,54.0
174,81.98197166666668,83.77431049583335,41.0,73.0
175,83.19164916666668,83.90334276250002,48.0,68.0
176,82.94971366666668,83.92552018333335,60.0,95.0
177,83.67552016666669,83.92753631250002,53.0,63.0
178,83.43358466666669,83.93560082916669,57.0,76.0
179,84.40132666666669,85.00616541666669,53.0,90.0
180,85.12713316666668,85.25818156250001,53.0,86.0
181,84.15939116666668,85.28439124166668,48.0,69.0
182,83.91745566666668,85.30858479166669,41.0,71.0
183,84.64326216666669,85.45979447916669,60.0,74.0
184,85.36906866666669,85.91342354166669,65.0,92.0
185,85.61100416666669,85.93761709166668,60.0,69.0
186,84.88519766666668,85.94971386666668,69.0,102.0
187,86.33681066666668,86.91140747916668,46.0,74.0
188,86.57874616666669,87.27834298750003,50.0,62.0
189,85.85293966666669,87.63721397916669,34.0,78.0
190,86.09487516666668,87.76423011666668,41.0,40.0
191,87.54648816666668,87.82269786250002,50.0,71.0
192,87.30455266666668,87.82471399166668,53.0,61.0
193,86.82068166666669,87.83882689583335,58.0,90.0
194,87.06261716666668,88.07673013750002,46.0,82.0
195,88.27229466666668,88.83479470416668,46.0,73.0
196,88.51423016666669,88.84285922083335,53.0,57.0
197,88.03035916666668,89.07471407500002,41.0,42.0
198,87.78842366666669,89.09890762500002,34.0,65.0
199,88.99810116666669,89.20576247083335,46.0,78.0
200,88.75616566666669,89.36302054583335,58.0,77.0
201,89.24003666666668,89.74003670000002,53.0,73.0
202,89.48197216666668,89.74810121666668,58.0,58.0
203,88.75616566666669,89.75818186250002,62.0,88.0
204,90.21306700000002,90.80937874375002,53.0,63.0
205,90.45896875000001,91.22126417500002,57.0,56.0
206,89.72390766666669,91.54298563125002,41.0,68.0
207,89.96716525000002,91.73355948750002,48.0,56.0
208,90.95077225000001,91.96921533125001,53.0,61.0
209,91.44257575000002,92.27249415625002,57.0,74.0
210,91.19667400000002,92.33192041250001,60.0,72.0
211,90.70487050000001,92.38314994375001,65.0,90.0
212,92.18028100000002,92.81757636875001,53.0,70.0
213,92.91798625000001,93.14544536875002,53.0,88.0
214,92.42618275000002,93.22741261875002,57.0,69.0
215,91.68847750000002,93.47741273125001,41.0,66.0
216,93.16388800000001,93.66183904375002,60.0,69.0
217,92.67208450000001,93.67618331250002,65.0,100.0
218,91.93437925000002,93.69257676250001,48.0,61.0
219,93.40978975000002,93.71921611875001,57.0,71.0
220,94.14749500000002,94.46716727500002,55.0,64.0
221,94.39339675000002,94.71511820625001,58.0,53.0
222,93.90159325000002,94.74585592500001,50.0,59.0
223,94.88520025000001,95.05733147500001,50.0,59.0
224,93.65569150000002,95.06757738125002,43.0,74.0
225,94.63929850000002,95.54708579375001,62.0,85.0
226,95.13110200000001,95.56347924375001,58.0,69.0
227,95.37700375000001,95.68028257500002,55.0,79.0
228,96.10430033333334,96.69160195,48.0,89.0
229,95.62290550000002,97.02890355416667,36.0,89.0
230,96.34239558333334,97.04874482500001,55.0,68.0
231,95.86620508333334,97.06660196875,43.0,65.0
232,96.81858608333334,97.2035067375,48.0,89.0
233,97.29477658333334,97.54080834166668,55.0,95.0
234,97.05668133333334,97.59437977291668,60.0,122.0
235,96.58049083333334,97.65787183958335,64.0,112.0
236,97.97731600000002,98.49517262500002,53.0,85.0
237,98.19160150000002,98.51838688750001,57.0,69.0
238,97.53287183333335,98.84309885833335,41.0,73.0
239,97.76303050000001,98.88342144166668,48.0,72.0
240,98.87132466666668,99.19995372083335,60.0,90.0
241,98.40588700000002,99.21205049583335,65.0,102.0
242,98.62938916666668,99.26850211250002,53.0,69.0
243,99.11326016666668,99.32696985833334,57.0,81.0
244,99.83906666666668,100.19188927083334,57.0,86.0
245,100.08100216666668,100.28866347083334,61.0,92.0
246,99.59713116666668,100.39551831666668,52.0,73.0
247,99.35519566666667,101.17381133333335,45.0,79.0
248,100.56756133333334,101.34256133333335,52.0,40.0
249,100.81756133333334,103.35714466666668,61.0,79.0
250,101.06756133333334,103.36131133333335,57.0,42.0
251,103.31756133333334,103.36131133333335,57.0,40.0
252,101.31756133333334,103.40089466666669,45.0,67.0
253,100.32293766666668,103.40922800000001,64.0,89.0
254,103.31756133333334,104.32557404166668,65.0,50.0
255,102.99256133333336,104.41211249166668,74.0,42.0
256,103.06547800000001,104.42653556666669,77.0,53.0
257,103.14047800000002,104.44095864166668,81.0,58.0
258,103.31756133333334,104.44336248750001,62.0,51.0
259,103.20922800000001,104.46018940833335,86.0,85.0
260,103.86884333333334,104.94750036875001,45.0,42.0
261,103.31756133333334,104.98438563125002,38.0,67.0
262,104.44576633333335,105.08479551250002,50.0,38.0
263,104.96594300000002,105.51512357500002,62.0,41.0
264,104.44576633333335,105.57250065000002,65.0,69.0
265,105.94955000000002,106.70442585833335,50.0,51.0
266,105.45774650000001,106.86390850000002,43.0,66.0
267,106.69149483333335,107.46951150416669,58.0,42.0
268,106.44135350000002,107.49321838333334,62.0,89.0
269,106.95011533333334,107.51261492083334,55.0,51.0
270,107.72597683333335,108.71393454166667,43.0,56.0
271,107.46735633333336,108.72782343125002,36.0,55.0
272,107.98459733333335,108.86869645416668,48.0,39.0
273,108.50183833333335,109.52147426458335,64.0,76.0
274,108.24321783333335,109.52941077291668,55.0,52.0
275,108.99171233333334,109.57306156875,60.0,50.0
276,110.42028383333334,110.62861717708334,53.0,40.0
277,109.94409333333334,110.69806162500001,48.0,48.0
278,109.46790283333334,110.76353781875001,41.0,66.0
279,110.42028383333334,110.95798227291668,65.0,78.0
280,110.65837908333334,111.20599815833334,60.0,60.0
281,111.37266483333335,112.112645,66.0,72.0
282,112.11472833333333,112.412645,62.0,49.0
283,110.89647433333334,112.562645,57.0,63.0
284,111.61472833333333,112.74181166666666,45.0,36.0
285,111.37266483333335,112.793895,38.0,66.0
286,111.86472833333333,113.01472833333334,50.0,61.0
287,112.86472833333333,113.37722833333333,62.0,44.0
288,112.36472833333333,113.418895,66.0,92.0
289,113.86472833333333,114.49806166666667,50.0,59.0
290,113.36472833333333,114.85195953750001,43.0,69.0
291,114.61204016666667,115.0334111625,50.0,57.0
292,114.85397566666667,115.30558860000001,58.0,60.0
293,115.09591116666667,115.30962085833333,55.0,75.0
294,114.36472833333333,115.36204021666667,62.0,95.0
295,115.57978216666667,115.90236283333334,57.0,58.0
296,115.33784666666666,116.1584112375,45.0,76.0
297,116.06365316666667,116.21486285416667,57.0,69.0
298,116.30558866666667,116.90735521250001,49.0,61.0
299,116.78433933333334,117.31211713750001,61.0,59.0
300,115.82171766666667,117.36965682291667,64.0,72.0
301,117.97481558333334,118.30616480625001,50.0,65.0
302,118.21291083333334,118.70299022291667,64.0,92.0
303,117.26052983333334,118.9787838875,38.0,52.0
304,117.73672033333334,119.18513310416667,45.0,40.0
305,118.92719658333334,119.18910135833335,64.0,59.0
306,118.68910133333334,119.204974375,65.0,76.0
307,118.45100608333334,119.21092675625,50.0,61.0
308,119.64148233333334,120.19902204375,50.0,72.0
309,119.87957758333334,120.38091124375,57.0,63.0
310,119.16529183333334,120.54894410625,38.0,62.0
311,119.40338708333334,120.5591900125,45.0,52.0
312,120.35837025000001,121.0346000625,50.0,79.0
313,120.11767283333334,121.1083705875,65.0,100.0
314,120.60427200000001,121.11041976875,64.0,35.0
315,121.587879,122.22927273125,50.0,57.0
316,122.32558425,122.55714173125,50.0,71.0
317,121.0960755,122.6411581625,43.0,64.0
318,122.57148600000001,123.04074850625,58.0,79.0
319,122.0796825,123.07353540625,62.0,102.0
320,122.81738775000001,123.137060025,55.0,53.0
321,123.555093,124.1985359125,48.0,63.0
322,123.0632895,124.41446004583334,36.0,76.0
323,123.30919125,124.42655682083333,43.0,44.0
324,123.80099475,125.03139557083333,55.0,65.0
325,124.53341166666667,125.0515568625,60.0,58.0
326,124.0468965,125.08381492916666,64.0,85.0
327,125.98502466666666,126.2430892,53.0,42.0
328,125.50115366666667,126.2733311375,48.0,49.0
329,125.01728266666666,126.32373436666667,41.0,66.0
330,125.98502466666666,126.714863425,65.0,77.0
331,126.22696016666667,126.84994407916666,60.0,67.0
332,126.95276666666666,127.81163769166666,66.0,95.0
333,127.67857316666667,128.0334119,62.0,66.0
334,127.43663766666667,128.118908375,50.0,83.0
335,127.19470216666667,128.363049,45.0,44.0
336,126.95276666666666,128.3708615,38.0,66.0
337,126.46889566666667,128.407970875,57.0,56.0
338,128.159924,128.63258025,50.0,58.0
339,128.394299,128.87476775,62.0,56.0
340,127.92050866666666,128.878674,66.0,99.0
341,128.628674,128.888439625,57.0,62.0
342,129.33675933333333,129.67802919166667,55.0,43.0
343,129.57485458333332,129.85064824791667,58.0,57.0
344,129.09866408333332,129.88636253541665,50.0,35.0
345,130.05104508333332,130.2573943,50.0,51.0
346,128.863049,130.29112446041665,43.0,63.0
347,130.28914033333334,130.67802924166665,58.0,95.0
348,129.81294983333333,130.69588638541666,62.0,96.0
349,130.52723558333332,130.93794988958334,55.0,81.0
350,131.47961658333332,131.81294993333333,48.0,76.0
351,130.76533083333334,132.03517216666665,36.0,89.0
352,131.2415213333333,132.06691819999998,43.0,57.0
353,131.95580708333333,132.44191821874998,48.0,75.0
354,131.7177118333333,132.59469600416665,64.0,99.0
355,132.43199758333333,132.60263251249998,55.0,76.0
356,132.1939023333333,132.60461663958333,60.0,79.0
357,133.14628333333332,133.68001351875,53.0,86.0
358,133.38437858333333,133.73755320416666,57.0,69.0
359,132.90818808333333,133.97763258125,48.0,95.0
360,133.86056908333333,133.99350559791665,53.0,99.0
361,132.6700928333333,134.04112464791666,41.0,88.0
362,134.09866433333332,134.44985482708333,60.0,90.0
363,133.62247383333332,134.4558072083333,65.0,112.0
364,134.33675958333333,134.64628340833332,57.0,85.0
365,135.28914058333334,135.42207709791666,66.0,38.0
366,135.28914058333334,135.4597755125,62.0,67.0
367,135.28914058333334,135.47763265625,57.0,90.0
368,135.05104533333332,135.61453742499998,50.0,97.0
369,135.52723583333332,135.75627849999998,57.0,85.0
370,135.52723583333332,135.75627849999998,62.0,100.0
371,135.52723583333332,135.76604412499998,66.0,127.0
372,134.57485483333332,135.89885662499998,38.0,92.0
373,134.81295008333333,135.91838787499998,45.0,93.0
374,135.76409099999998,135.98284099999998,50.0,72.0
375,135.99846599999998,136.27971599999998,62.0,122.0
376,135.99846599999998,136.31487224999998,66.0,127.0
377,136.23284099999998,136.39495037499998,57.0,76.0
378,136.70679933333332,136.84013266666665,55.0,82.0
379,136.70679933333332,136.8442993333333,62.0,88.0
380,136.70679933333332,136.84846599999997,58.0,99.0
381,136.46721599999998,136.89638266666665,43.0,82.0
382,137.20679933333332,137.30888266666665,58.0,92.0
383,137.20679933333332,137.31096599999998,55.0,76.0
384,137.20679933333332,137.3255493333333,62.0,85.0
385,137.45679933333332,138.0302120520833,43.0,77.0
386,137.94092633333332,138.3635454020833,58.0,107.0
387,137.94092633333332,138.3814025458333,62.0,100.0
388,138.41711683333332,138.71275176874997,48.0,100.0
389,138.1790215833333,138.77624383541664,55.0,81.0
390,138.6552120833333,138.7802120895833,64.0,89.0
391,138.6552120833333,138.79608510625,60.0,96.0
392,139.1314025833333,139.41910101041665,55.0,90.0
393,139.1314025833333,139.48457720416664,60.0,93.0
394,139.1314025833333,139.51037085624998,64.0,88.0
395,139.6075930833333,139.9171169083333,55.0,63.0
396,139.3694978333333,139.92902167083332,48.0,79.0
397,139.8456883333333,140.18894231874998,64.0,97.0
398,139.8456883333333,140.21672009791664,60.0,99.0
399,140.08378358333331,140.35957724791663,55.0,90.0
400,140.56125416666666,140.69835095,57.0,70.0
401,140.56125416666666,140.71649611249998,60.0,72.0
402,140.56125416666666,140.7205283708333,53.0,64.0
403,140.3218788333333,140.73464127499997,41.0,78.0
404,141.04512516666665,141.339480025,57.0,82.0
405,141.04512516666665,141.3495606708333,53.0,75.0
406,141.04512516666665,141.37173809166666,60.0,88.0
407,141.28706066666666,141.81125425,41.0,76.0
408,141.77093166666666,142.14189943333332,60.0,90.0
409,141.77093166666666,142.1802058875,57.0,95.0
410,142.01286716666667,142.18625427499998,53.0,75.0
411,142.49673816666666,142.5592381708333,45.0,62.0
412,142.49673816666666,142.5673026875,50.0,71.0
413,142.25480266666665,142.5793994625,38.0,78.0
414,142.49673816666666,142.58948010833333,62.0,99.0
415,142.49673816666666,142.5914962375,66.0,102.0
416,142.49673816666666,142.59351236666666,57.0,90.0
417,142.98060916666665,143.32536725416665,57.0,92.0
418,142.98060916666665,143.347544675,66.0,92.0
419,142.98060916666665,143.36165757916666,62.0,93.0
420,143.22254466666666,143.79109309166665,38.0,99.0
421,143.70641566666666,144.1156898875,66.0,122.0
422,143.70641566666666,144.11972214583332,62.0,102.0
423,143.70641566666666,144.16004472916666,50.0,89.0
424,143.94835116666664,144.170125375,57.0,90.0
425,144.43354424999998,144.52780658749998,58.0,85.0
426,144.43354424999998,144.53190494999998,55.0,73.0
427,144.43354424999998,144.5360033125,62.0,83.0
428,144.19028666666665,144.62411810625,43.0,76.0
429,144.92534775,145.24706920625,55.0,77.0
430,144.92534775,145.25936429375,62.0,85.0
431,144.92534775,145.26141347499998,58.0,90.0
432,145.1712495,145.6261677375,50.0,66.0
433,145.90895475,146.1548565,55.0,62.0
434,145.663053,146.1548565,58.0,107.0
435,145.663053,146.1548565,62.0,92.0
436,146.40075825,146.56469275,61.0,75.0
437,146.40075825,146.57084029375,57.0,79.0
438,146.40075825,146.58723374375,64.0,76.0
439,146.1548565,146.62821736875,45.0,79.0
440,146.89256175,147.07493888125,57.0,81.0
441,146.89256175,147.08723396874998,61.0,88.0
442,146.89256175,147.097479875,64.0,81.0
443,147.1384635,147.66763237499998,49.0,88.0
444,147.61489799999998,148.05435112499998,57.0,81.0
445,147.61489799999998,148.05825737499998,61.0,99.0
446,147.61489799999998,148.08169487499998,64.0,85.0
447,148.31802299999998,148.50356987499998,62.0,79.0
448,148.31802299999998,148.52505424999998,57.0,72.0
449,148.31802299999998,148.53091362499998,65.0,73.0
450,148.08364799999998,148.53677299999998,38.0,73.0
451,148.78677299999998,148.92739799999998,62.0,85.0
452,148.78677299999998,148.93716362499998,65.0,75.0
453,148.78677299999998,148.94106987499998,57.0,77.0
454,149.02114799999998,149.84536674999998,38.0,65.0
455,149.48989799999998,149.95083549999998,62.0,95.0
456,149.48989799999998,149.95474174999998,65.0,86.0
457,149.72427299999998,149.96450737499998,57.0,63.0
458,149.95864799999998,150.24575737499998,38.0,85.0
459,150.89614799999998,151.32255930833333,48.0,72.0
460,150.89614799999998,151.67538191249997,55.0,72.0
461,150.89614799999998,151.69755933333332,64.0,71.0
462,150.89614799999998,151.70965610833332,60.0,77.0
463,152.34272066666665,152.88102715416665,58.0,81.0
464,152.58465616666666,153.1854626583333,62.0,70.0
465,151.85884966666666,153.6088497833333,46.0,93.0
466,152.10078516666664,153.7903014083333,53.0,38.0
467,153.06852716666666,154.05441432916666,58.0,107.0
468,153.55239816666665,154.3104627333333,62.0,79.0
469,152.82659166666664,154.42538209583333,70.0,112.0
470,153.31046266666664,154.56852726666665,65.0,90.0
471,154.27820466666665,154.85280147916666,58.0,86.0
472,155.00401116666666,155.27417247499997,58.0,86.0
473,154.52014016666664,155.3144950583333,62.0,79.0
474,154.03626916666664,155.34070473749998,53.0,57.0
475,153.79433366666666,155.42739829166666,46.0,50.0
476,155.24594666666664,155.77014025,65.0,81.0
477,155.48788216666665,155.79030154166665,62.0,86.0
478,154.76207566666665,155.81449509166666,70.0,117.0
479,156.20360799999997,156.74657674999997,53.0,72.0
480,156.43798299999997,157.1103540458333,57.0,65.0
481,155.72981766666666,157.41987787083332,41.0,69.0
482,155.96923299999997,157.66590962916663,48.0,66.0
483,156.9079730833333,157.7413064583333,53.0,72.0
484,157.3841635833333,158.16590965416665,57.0,82.0
485,156.67235799999997,158.20162394166664,65.0,96.0
486,157.14606833333332,158.23138584791664,60.0,86.0
487,158.3365445833333,158.4258303020833,60.0,30.0
488,158.09844933333332,158.68376682291665,53.0,82.0
489,158.3365445833333,158.91987794583332,57.0,88.0
490,158.8127350833333,159.15400494166664,53.0,86.0
491,157.62225883333332,159.40400495416665,41.0,66.0
492,158.57463983333332,159.50122718125,65.0,97.0
493,159.0508303333333,159.51114781666664,60.0,79.0
494,157.8603540833333,159.51908432499997,48.0,59.0
495,159.2889255833333,159.52503670624998,57.0,95.0
496,160.0032113333333,160.28098912499996,55.0,83.0
497,160.2413065833333,160.42979865624997,58.0,96.0
498,159.7651160833333,160.58852882291663,50.0,54.0
499,160.7174970833333,160.94170344375,50.0,76.0
500,159.5270208333333,161.00122725624996,43.0,90.0
501,160.9555923333333,161.42781457916664,58.0,96.0
502,160.4794018333333,161.4377352145833,62.0,99.0
503,161.19368758333331,161.45162410416663,55.0,79.0
504,161.9079733333333,162.43575113749998,48.0,79.0
505,162.14606858333332,162.4734495520833,52.0,85.0
506,162.3841638333333,162.96352894166665,56.0,107.0
507,161.4317828333333,162.98138608541663,36.0,85.0
508,161.66987808333332,163.03892577083332,43.0,50.0
509,162.8603543333333,163.27106863958332,52.0,82.0
510,162.62225908333332,163.29686229166663,48.0,83.0
511,163.09844958333332,163.31471943541663,56.0,93.0
512,163.8127353333333,164.35043377291663,53.0,88.0
513,164.0508305833333,164.40598933124997,57.0,92.0
514,164.5270210833333,164.7651163333333,53.0,95.0
515,164.2889258333333,164.9020211020833,60.0,67.0
516,163.3365448333333,165.08456079374997,41.0,79.0
517,163.57464008333332,165.31471953541663,48.0,83.0
518,164.7651163333333,165.35638620416665,57.0,97.0
519,164.2889258333333,165.38614811041663,65.0,100.0
520,165.0032115833333,165.39011636458332,60.0,95.0
521,165.7174973333333,166.04091004791664,60.0,16.0
522,165.7174973333333,166.27503704374996,53.0,99.0
523,165.2413068333333,166.55281483541665,41.0,81.0
524,165.4794020833333,166.55678308958332,48.0,92.0
525,166.4317830833333,166.71551325624998,53.0,90.0
526,165.9555925833333,166.73733865416665,57.0,96.0
527,166.66987833333332,167.10043391041665,60.0,97.0
528,166.9079735833333,167.1698783583333,57.0,96.0
529,166.1936878333333,167.18971962916663,65.0,112.0
530,167.62225933333332,168.19765618749997,46.0,93.0
531,167.8603545833333,168.5071800125,50.0,76.0
532,167.14606883333332,168.87622764999998,34.0,82.0
533,167.3841640833333,169.0567832145833,41.0,33.0
534,168.3365450833333,169.31075148124998,46.0,86.0
535,168.8127355833333,169.5865451458333,50.0,86.0
536,168.09844983333332,169.6877356270833,58.0,122.0
537,168.57464033333332,169.78098959999997,53.0,86.0
538,169.5270213333333,170.08257691666665,46.0,85.0
539,169.2889260833333,170.26476458749997,41.0,51.0
540,169.7651165833333,170.29097426666664,50.0,74.0
541,169.0508308333333,170.29299039583333,34.0,100.0
542,170.24258716666665,170.45428072916664,46.0,99.0
543,170.0032118333333,170.94016785833333,58.0,122.0
544,170.48452266666663,170.95226463333333,53.0,88.0
545,170.72645816666665,170.9643614083333,50.0,99.0
546,171.68968399999997,171.79568399999997,55.0,55.0
547,171.44968399999996,172.02768399999997,53.0,86.0
548,171.68968399999997,172.09368399999997,57.0,56.0
549,172.16968399999996,172.62968399999997,53.0,88.0
550,170.96839366666666,172.77568399999996,41.0,89.0
551,171.20968399999998,172.95568399999996,48.0,69.0
552,172.64968399999998,173.49368399999997,57.0,78.0
553,171.92968399999998,173.65168399999996,65.0,86.0
554,172.40968399999997,173.69968399999996,60.0,83.0
555,173.36968399999998,173.95368399999998,53.0,86.0
556,174.08968399999998,174.20368399999998,53.0,86.0
557,173.12968399999997,174.21968399999997,48.0,67.0
558,172.88968399999996,174.24768399999996,41.0,71.0
559,173.60968399999996,174.25368399999996,57.0,72.0
560,173.84968399999997,174.71568399999998,65.0,107.0
561,174.32968399999996,174.75768399999998,60.0,90.0
562,174.56968399999997,174.87968399999997,57.0,88.0
563,175.52968399999997,175.82768399999998,58.0,88.0
564,175.28968399999997,175.91168399999998,55.0,73.0
565,175.04968399999996,175.91968399999996,43.0,72.0
566,174.80968399999998,176.12768399999996,31.0,71.0
567,176.00968399999996,176.59768399999996,43.0,69.0
568,176.24968399999997,176.70768399999997,58.0,117.0
569,175.76968399999996,176.73368399999998,62.0,100.0
570,176.48968399999998,176.76968399999996,55.0,95.0
571,177.44968399999996,177.67768399999997,55.0,85.0
572,177.20968399999998,177.78968399999997,48.0,95.0
573,176.72968399999996,178.16368399999996,36.0,85.0
574,176.96968399999997,178.19768399999998,43.0,85.0
575,177.68968399999997,178.23568399999996,60.0,99.0
576,178.16968399999996,178.50568399999997,55.0,102.0
577,177.92968399999998,178.53768399999996,48.0,90.0
578,177.68968399999997,178.63968399999996,64.0,99.0
579,178.40968399999997,178.64768399999997,60.0,93.0
580,179.12968399999997,179.75768399999998,53.0,92.0
581,179.36968399999998,179.8000411125,57.0,79.0
582,179.84111249999998,180.03932658749997,53.0,102.0
583,178.88968399999996,180.25004066249997,48.0,93.0
584,178.64968399999998,180.35004056249997,41.0,81.0
585,179.60968399999996,180.40182622499998,65.0,99.0
586,180.055398,180.4036119375,60.0,93.0
587,180.26968349999999,180.48396899999997,57.0,89.0
588,181.173701,181.376826,61.0,97.0
589,180.704951,181.42760725,52.0,92.0
590,180.939326,181.507685375,57.0,70.0
591,181.642451,181.90416975,52.0,85.0
592,180.48396899999997,181.9315135,45.0,96.0
593,181.876826,182.3377635,61.0,127.0
594,182.111201,182.34948225,57.0,93.0
595,181.408076,182.351435375,64.0,93.0
596,183.048701,183.093622875,62.0,49.0
597,182.814326,183.132685375,55.0,79.0
598,183.048701,183.312372875,58.0,96.0
599,182.579951,183.361201,50.0,65.0
600,183.517451,183.704951,50.0,82.0
601,182.345576,183.742060375,43.0,86.0
602,183.751826,184.095576,58.0,117.0
603,183.283076,184.16198225,62.0,95.0
604,183.986201,184.406122875,55.0,93.0
605,184.689326,185.22448225,48.0,93.0
606,184.923701,185.472529125,55.0,93.0
607,184.220576,185.476435375,36.0,89.0
608,184.454951,185.550654125,43.0,83.0
609,185.392451,186.003779125,48.0,83.0
610,185.861201,186.08385725,55.0,96.0
611,185.158076,186.08385725,64.0,102.0
612,185.626826,186.09166975,60.0,102.0
613,186.564326,187.1346385,53.0,90.0
614,186.798701,187.167841625,57.0,97.0
615,187.267451,187.392451,53.0,96.0
616,186.329951,187.421747875,48.0,86.0
617,186.095576,187.429560375,41.0,88.0
618,187.501826,187.876826,60.0,85.0
619,187.033076,187.882685375,65.0,112.0
620,187.736201,188.120966625,57.0,92.0
621,188.439326,189.007685375,50.0,88.0
622,188.673701,189.236201,57.0,83.0
623,187.970576,189.324091625,38.0,77.0
624,188.204951,189.331904125,45.0,76.0
625,189.142451,189.566279125,50.0,95.0
626,189.376826,189.812372875,62.0,95.0
627,188.908076,189.829951,66.0,127.0
628,189.611201,189.835810375,57.0,93.0
629,190.314326,190.632685375,55.0,90.0
630,190.548701,190.74010725,58.0,96.0
631,190.079951,190.921747875,50.0,52.0
632,191.017451,191.611201,50.0,61.0
633,191.251826,191.6346385,58.0,112.0
634,191.486201,191.65416975,55.0,90.0
635,189.845576,191.660029125,43.0,89.0
636,190.783076,191.663935375,62.0,100.0
637,192.189326,192.765497875,48.0,79.0
638,192.423701,192.781122875,55.0,85.0
639,191.720576,193.062372875,36.0,88.0
640,191.954951,193.09166975,43.0,66.0
641,192.892451,193.308466625,48.0,77.0
642,193.361201,193.562372875,55.0,93.0
643,192.658076,193.562372875,64.0,99.0
644,193.126826,193.577997875,60.0,96.0
645,194.298701,194.488154125,57.0,93.0
646,194.064326,194.609247875,53.0,83.0
647,194.533076,194.97909875624998,60.0,102.0
648,194.99235633333333,195.25371999583334,57.0,102.0
649,193.829951,195.25940181458333,48.0,50.0
650,194.76508358333334,195.26508363333332,53.0,95.0
651,193.595576,195.35788667291666,41.0,77.0
652,195.21962908333333,195.42985637708333,60.0,95.0
653,195.90144733333332,196.439326175,50.0,83.0
654,196.12872008333332,196.62078925,57.0,67.0
655,195.44690183333333,196.8746955,38.0,97.0
656,195.67417458333333,196.913758,45.0,73.0
657,196.585633,197.208679875,50.0,81.0
658,196.35599283333332,197.298523625,66.0,117.0
659,196.820008,197.310242375,62.0,88.0
660,197.054383,197.318054875,57.0,86.0
661,197.757508,198.0153205,55.0,92.0
662,197.991883,198.1871955,58.0,99.0
663,197.523133,198.314148625,50.0,78.0
664,197.288758,198.607117375,43.0,78.0
665,198.460633,198.614929875,50.0,76.0
666,198.695008,199.056336125,58.0,112.0
667,198.226258,199.111023625,62.0,102.0
668,198.929383,199.232117375,55.0,92.0
669,199.632508,200.165711125,48.0,93.0
670,199.866883,200.216492375,55.0,92.0
671,199.163758,200.4371955,36.0,77.0
672,199.398133,200.458679875,43.0,56.0
673,200.335633,200.68328925,48.0,99.0
674,200.101258,200.950867375,64.0,117.0
675,200.570008,200.98016425,60.0,99.0
676,200.804383,200.997742375,55.0,93.0
677,201.507508,202.068054875,53.0,89.0
678,201.741883,202.122742375,57.0,95.0
679,202.210633,202.380554875,53.0,92.0
680,201.273133,202.460633,48.0,73.0
681,201.038758,202.4996955,41.0,82.0
682,202.445008,202.78485175,60.0,99.0
683,201.976258,202.896179875,65.0,112.0
684,202.679383,203.130554875,57.0,93.0
685,203.382508,203.927429875,50.0,83.0
686,203.148133,204.19110175,45.0,58.0
687,202.913758,204.20672675,38.0,68.0
688,203.616883,204.35516425,57.0,76.0
689,204.085633,204.648133,50.0,77.0
690,204.320008,204.712586125,62.0,97.0
691,203.851258,204.716492375,66.0,107.0
692,204.554383,204.788758,57.0,93.0
693,205.257508,205.82391425,52.0,82.0
694,205.491883,205.829773625,55.0,79.0
695,205.023133,206.114929875,46.0,90.0
696,204.788758,206.1559455,40.0,79.0
697,205.726258,206.2809455,58.0,127.0
698,205.960633,206.320008,52.0,88.0
699,206.195008,206.575867375,55.0,99.0
700,206.429383,206.618836125,58.0,95.0
701,207.132508,207.42547675,57.0,90.0
702,207.132508,207.435242375,61.0,92.0
703,206.898133,207.679383,52.0,76.0
704,207.835633,208.03485175,52.0,72.0
705,206.663758,208.116883,45.0,85.0
706,208.070008,208.48016425,61.0,107.0
707,207.601258,208.501648625,64.0,96.0
708,208.304383,208.554383,57.0,85.0
709,209.007508,209.486023625,50.0,83.0
710,209.241883,209.861023625,57.0,92.0
711,209.710633,209.960633,50.0,97.0
712,209.476258,209.97235175,64.0,99.0
713,208.538758,210.236023625,38.0,73.0
714,210.179383,210.325867375,64.0,74.0
715,209.945008,210.33953925,65.0,99.0
716,208.773133,210.411804875,45.0,55.0
717,210.413758,211.216492375,60.0,107.0
718,210.413758,211.216492375,64.0,97.0
719,210.413758,211.247742375,55.0,100.0
720,210.882508,211.40203925,43.0,55.0
721,210.413758,211.4059455,36.0,107.0
722,211.351258,211.6058687,48.0,92.0
723,211.835377,212.2984919625,55.0,93.0
724,211.351258,212.318983775,60.0,112.0
725,211.351258,212.34562313125,64.0,100.0
726,212.818984,213.3230825875,58.0,86.0
727,213.06488575,213.48906626875,62.0,81.0
728,212.3271805,214.09152555625,46.0,90.0
729,212.57308225,214.16119771875,53.0,47.0
730,213.55668925,214.1837387125,58.0,99.0
731,213.3107875,214.21857479375,70.0,127.0
732,213.802591,214.25136169375,65.0,96.0
733,214.04849275,214.28414859375,62.0,99.0
734,214.770829,215.39973525,58.0,93.0
735,215.005204,215.561844625,62.0,73.0
736,214.536454,215.630204,53.0,57.0
737,215.473954,215.632157125,58.0,93.0
738,214.2943945,215.71223525,46.0,81.0
739,215.239579,216.190750875,70.0,122.0
740,215.708329,216.20442275,65.0,83.0
741,215.942704,216.210282125,62.0,88.0
742,216.880204,217.132157125,57.0,81.0
743,216.645829,217.147782125,53.0,75.0
744,216.411454,217.42317275,48.0,45.0
745,217.348954,217.46223525,53.0,67.0
746,216.177079,217.48567275,41.0,68.0
747,217.114579,217.6223915,60.0,99.0
748,217.583329,217.972000875,57.0,88.0
749,217.817704,218.018875875,60.0,93.0
750,218.520829,219.07942275,50.0,92.0
751,218.052079,219.339188375,38.0,72.0
752,218.286454,219.348954,45.0,72.0
753,219.223954,219.58723525,50.0,75.0
754,218.755204,219.960282125,57.0,95.0
755,219.458329,219.964188375,62.0,89.0
756,218.989579,219.98567275,66.0,127.0
757,220.395829,220.784500875,55.0,71.0
758,220.630204,220.800125875,58.0,95.0
759,220.161454,220.944657125,50.0,51.0
760,221.10279624999998,221.38968162499998,50.0,81.0
761,219.927079,221.4265668875,43.0,68.0
762,221.34869799999998,221.72369816875,58.0,112.0
763,220.864579,221.7626326125,62.0,100.0
764,221.59459975,221.8405015,55.0,92.0
765,222.57820675,222.8118134125,52.0,79.0
766,222.332305,222.89582984375,48.0,88.0
767,221.8405015,223.29161444375,36.0,92.0
768,222.08640325,223.32931285833334,43.0,79.0
769,222.8241085,223.37097952708334,56.0,127.0
770,223.06740808333333,223.71423351250002,48.0,88.0
771,223.30550333333335,223.7380430375,52.0,70.0
772,223.54359858333333,223.80550335833334,56.0,97.0
773,224.25788433333335,224.81939229791666,53.0,83.0
774,224.49597958333334,224.87693198333335,57.0,79.0
775,223.78169383333335,225.08923358125,41.0,67.0
776,224.01978908333334,225.11304310625002,48.0,74.0
777,224.73407483333335,225.37891613541666,60.0,100.0
778,224.97217008333334,225.64875741875,53.0,88.0
779,225.44836058333334,225.65669392708332,60.0,32.0
780,225.21026533333333,225.67455107083333,57.0,72.0
781,225.68645583333333,226.282193925,66.0,89.0
782,225.68645583333333,226.28809943750002,62.0,82.0
783,226.1601466666667,226.72117035416667,50.0,92.0
784,226.3963671666667,226.85896564583334,57.0,85.0
785,225.68645583333333,226.95739085416668,38.0,75.0
786,225.9239261666667,226.9731388875,45.0,72.0
787,226.86880816666667,227.12471370833336,50.0,90.0
788,226.63258766666667,227.53219407083336,66.0,127.0
789,227.10502866666667,227.557784625,62.0,96.0
790,227.34124916666667,227.60306022083336,57.0,85.0
791,228.04991066666668,228.44164299583335,55.0,89.0
792,228.28613116666668,228.47904457500002,58.0,99.0
793,227.81369016666667,228.64243042083334,50.0,66.0
794,228.75857216666668,229.28613128333333,50.0,50.0
795,227.57746966666667,229.33928089583335,43.0,72.0
796,228.99479266666668,229.46132815416667,58.0,117.0
797,228.52235166666668,229.52038327916668,62.0,97.0
798,229.23101316666668,229.58928092500003,55.0,88.0
799,229.9396746666667,230.4888873291667,48.0,102.0
800,229.4672336666667,230.74282436666667,36.0,88.0
801,230.1758951666667,230.75857240000002,55.0,85.0
802,229.7034541666667,230.76841492083335,43.0,62.0
803,230.64833616666667,231.16802126666667,48.0,107.0
804,231.12077716666667,231.35502916250002,55.0,93.0
805,230.88455666666667,231.3904622375,60.0,99.0
806,230.4121156666667,231.3904622375,64.0,107.0
807,231.82943866666668,232.3373127416667,53.0,90.0
808,232.06565916666668,232.37668282500002,57.0,72.0
809,232.53810016666668,232.68573797916667,53.0,88.0
810,231.59321816666667,232.75069861666668,48.0,71.0
811,231.35699766666667,232.7684151541667,41.0,67.0
812,232.30187966666668,232.86093485,60.0,97.0
813,233.01054116666668,233.1463679541667,60.0,63.0
814,232.77432066666668,233.83140740416667,57.0,78.0
815,233.24676166666669,234.0479428625,66.0,86.0
816,233.24676166666669,234.05975388750002,62.0,82.0
817,233.24676166666669,234.488468325,38.0,69.0
818,233.4829821666667,234.5335503125,45.0,48.0
819,233.9554231666667,234.537648675,57.0,67.0
820,233.7192026666667,234.71592744375002,50.0,88.0
821,234.1916436666667,235.15855059375002,66.0,88.0
822,234.1916436666667,235.160599775,62.0,78.0
823,234.676993,235.16674731875003,57.0,82.0
824,235.1687965,236.88805956875,43.0,67.0
825,235.66060000000002,236.9597809125,50.0,61.0
826,236.15240350000002,237.12166623125,58.0,93.0
827,236.64420700000002,237.13601050000003,55.0,69.0
828,236.15240350000002,237.14215804375002,62.0,81.0
829,237.612445,238.165179375,48.0,72.0
830,237.84682,238.200335625,55.0,66.0
831,237.37807,238.44057,43.0,36.0
832,237.13601050000003,238.454241875,36.0,81.0
833,238.31557,238.712054375,48.0,56.0
834,238.081195,238.938616875,60.0,90.0
835,238.081195,238.946429375,64.0,96.0
836,238.549945,238.993304375,55.0,88.0
837,239.018695,239.85853875,69.0,70.0
838,239.018695,239.87416375,65.0,72.0
839,239.018695,239.90541375,60.0,73.0
840,239.956195,240.94447625,65.0,89.0
841,239.956195,240.96010125,69.0,86.0
842,239.956195,240.977679375,60.0,60.0
843,239.487445,240.987445,48.0,57.0
844,240.424945,241.00307,53.0,59.0
845,239.018695,241.071429375,41.0,78.0
846,241.708148125,241.96010125,57.0,62.0
847,241.872210625,242.07728875,61.0,82.0
848,242.049945,242.10853875,64.0,86.0
849,241.516741875,242.268695,55.0,59.0
850,242.227679375,242.5733825,69.0,75.0
851,242.407366875,242.606585625,73.0,74.0
852,242.581195,242.65932,76.0,76.0
853,242.76478875,243.149554375,81.0,75.0
854,242.973773125,243.196429375,85.0,69.0
855,243.17103875,243.247210625,88.0,75.0
856,243.614398125,245.809710625,97.0,77.0
857,243.895648125,245.81166375,100.0,81.0
858,243.38978875,245.81557,93.0,60.0
859,241.299945,245.856585625,52.0,65.0
860,243.5890075,245.860491875,57.0,1.0
861,240.829241875,245.911273125,45.0,96.0
862,250.14760125,251.8858825,69.0,53.0
863,250.1202575,251.97182,65.0,28.0
864,249.962054375,252.03041375,62.0,43.0
865,250.532366875,252.598773125,86.0,68.0
866,250.169085625,252.637835625,74.0,38.0
867,250.286273125,252.643695,77.0,45.0
868,250.362445,252.649554375,81.0,50.0
869,253.090960625,253.90411166666667,50.0,46.0
870,252.688616875,253.98536166666668,43.0,56.0
871,253.531195,254.53952833333335,58.0,71.0
872,253.762445,254.54161166666668,62.0,66.0
873,254.493695,256.03405426666666,36.0,55.0
874,255.08327833333334,256.08913895,43.0,42.0
875,255.58913951666668,256.273460775,48.0,33.0
876,253.99161166666667,256.6315112166667,55.0,79.0
877,256.09125759166665,256.7120196,60.0,50.0
878,255.58278359166667,256.731087375,64.0,78.0
879,257.35608666666667,257.8052387,57.0,53.0
880,257.1230360833333,257.81795055000003,53.0,36.0
881,256.845494025,257.97473003333334,48.0,40.0
882,256.5849011,258.0298147166667,41.0,64.0
883,257.63151008333335,258.14210272500003,65.0,97.0
884,257.887865725,258.1865942,60.0,57.0
885,258.6293903083333,259.051,54.0,50.0
886,258.1357468,259.082779625,57.0,58.0
887,258.65269536666665,259.77075390000005,38.0,51.0
888,259.6629953583334,260.7298049208334,66.0,55.0
889,259.65652984583335,260.73627043333335,62.0,55.0
890,259.6608401875,260.8073910708334,57.0,39.0
891,261.231959725,261.69963179583334,55.0,65.0
892,261.45825266250006,261.9108385375,58.0,56.0
893,260.99273576250005,262.3354071916667,50.0,37.0
894,260.73627043333335,262.37204509583336,43.0,66.0
895,262.25566587083335,262.6586828166667,58.0,38.0
896,261.7405800416667,262.6586828166667,62.0,77.0
897,263.2729065041667,263.8095440416667,57.0,60.0
898,263.02290668750004,264.19316445000004,52.0,40.0
899,262.75135516250003,264.2427333791667,45.0,68.0
900,263.5358373458334,264.87850877500006,61.0,60.0
901,263.7944578458334,264.93669838750003,64.0,60.0
902,264.2642850875,265.15652581250004,57.0,53.0
903,265.3052326,265.88066321250005,50.0,83.0
904,265.8116977458334,266.44531797083334,64.0,100.0
905,265.51859451250004,266.4604041666667,57.0,85.0
906,264.7987674541667,266.6414385166667,38.0,61.0
907,265.06169829583337,266.84402457500005,45.0,50.0
908,266.84617974583335,268.38928206250006,38.0,72.0
909,266.06169756250006,268.6134198291667,50.0,82.0
910,266.8634211125,268.90005755000004,62.0,55.0
911,266.5767833916667,268.9043678916667,57.0,69.0
912,266.3203180625,268.9323851125,65.0,74.0
913,269.4776433333334,270.05953945833335,55.0,47.0
914,268.93885062500004,270.44747020833336,43.0,66.0
915,269.22548834583336,270.464711575,50.0,43.0
916,269.7513500291667,270.9496250125,58.0,52.0
917,270.03367740833335,270.9797974041667,62.0,55.0
918,271.5875555791667,272.3914343,57.0,39.0
919,271.6500555333334,272.4216066916667,61.0,53.0
920,271.73195202500006,272.47548596250004,64.0,46.0
921,272.7319512916667,276.4603968333334,57.0,58.0
922,272.3957446416667,276.48410371250003,52.0,42.0
923,274.44100176250004,276.57031054583337,81.0,31.0
924,273.4366921541667,276.57462088750003,73.0,52.0
925,273.8440194416667,276.58755191250003,76.0,51.0
926,273.0616924291667,276.59617259583337,69.0,56.0
927,271.7750554416667,276.6285001583334,45.0,60.0
928,278.3052230666667,279.6478944958334,50.0,42.0
929,278.78151582083336,279.7362565,62.0,45.0
930,279.2233258416667,279.7534978666667,69.0,47.0
931,279.63927381250005,280.82246260000005,49.0,45.0
932,280.1672906666667,281.1802209583334,61.0,52.0
933,280.57892829583335,281.67159990833335,69.0,46.0
934,281.10694515000006,282.4323752125,48.0,53.0
935,282.0272030958334,282.48840965416673,69.0,57.0
936,281.58108273333335,282.5746164875,60.0,48.0
937,282.94315070000005,283.3224607666667,59.0,42.0
938,282.4539269208334,283.51858131250003,47.0,66.0
939,283.6715984416667,284.21039115,45.0,47.0
940,283.680219125,284.22978768750005,61.0,38.0
941,283.7297880541667,284.2534945666667,64.0,49.0
942,283.5940122916667,284.2772014458334,57.0,35.0
943,284.72547697916673,285.3828040833334,69.0,34.0
944,284.8634079125,285.3935799375,64.0,50.0
945,284.76211488333337,285.4065109625,65.0,54.0
946,284.9668561125,285.4086661333334,62.0,50.0
947,285.82676927500006,286.05521738333334,52.0,72.0
948,285.96254503750004,286.1090966541667,53.0,75.0
949,286.1026311416667,286.1543552416667,57.0,90.0
950,286.2707344666667,286.4970274041667,62.0,62.0
951,286.4259067666667,286.65004453333336,64.0,63.0
952,286.6198721416667,286.69314795,65.0,76.0
953,286.8246133708334,286.85694093333336,72.0,61.0
954,286.8224582,287.0789235291667,74.0,72.0
955,287.04228562500003,287.3310785166667,76.0,62.0
956,287.3116819791667,287.37849227500004,77.0,59.0
957,287.5250438916667,287.82030229583336,86.0,85.0
958,287.7470264875,288.15650894583337,88.0,75.0
959,288.0207331833334,288.24487095000006,89.0,71.0
960,288.2491812916667,288.33754329583337,93.0,83.0
961,288.61340516250004,289.19745645833336,98.0,78.0
962,289.0616806958334,289.31383568333337,100.0,58.0
963,285.54444189583336,290.3224556333334,45.0,50.0
964,284.9970285041667,290.3375418291667,38.0,73.0
965,285.71039005000006,290.3440073416667,50.0,69.0
