,start,end,pitch,velocity
0,31.57444353125,31.76910011875,63.0,85.0
1,31.80345128125,31.948489522916667,62.0,80.0
2,32.03245903125,32.41986380833333,63.0,85.0
3,32.49047453125,32.66223034375,62.0,84.0
4,32.71948228125,33.866429429166665,63.0,84.0
5,34.32253653125,34.572536658333334,63.0,87.0
6,34.55154428125,34.809178,65.0,85.0
7,34.78055203125,35.19085758333333,67.0,84.0
8,35.23856753125,35.51719362708333,65.0,77.0
9,35.46757528125,35.94085796458333,67.0,87.0
10,35.92559078125,36.41986584166666,70.0,86.0
11,36.38360628125,36.86452255625,67.0,84.0
12,36.84162178125,38.2328438625,65.0,81.0
13,38.90269153125,39.13169928125,72.0,84.0
14,39.13169928125,39.356890235416664,70.0,88.0
15,39.36070703125,39.84544010208333,72.0,90.0
16,39.81872253125,40.08208144375,70.0,88.0
17,40.04773028125,40.72139474583334,72.0,86.0
18,40.73475353125,41.517196677083334,70.0,88.0
19,41.65078453125,41.91032664791667,68.0,85.0
20,41.87979228125,42.1488763875,70.0,86.0
21,42.10880003125,43.7748314125,67.0,77.0
22,46.23093953125,46.42559611875,63.0,85.0
23,46.45994728125,46.604985522916664,62.0,80.0
24,46.688955031249996,47.076359808333336,63.0,85.0
25,47.14697053125,47.31872634375,62.0,84.0
26,47.37597828125,48.52292542916667,63.0,84.0
27,48.97903253125,49.22903265833333,63.0,87.0
28,49.20804028125,49.465674,65.0,85.0
29,49.43704803125,49.84735358333333,67.0,84.0
30,49.89506353125,50.173689627083334,65.0,77.0
31,50.124071281249996,50.597353964583334,67.0,87.0
32,50.58208678125,51.07636184166667,70.0,86.0
33,51.04010228125,51.52101855625,67.0,84.0
34,51.49811778125,52.8893398625,65.0,81.0
35,53.55918753125,53.78819528125,72.0,84.0
36,53.78819528125,54.01338623541667,70.0,88.0
37,54.01720303125,54.501936102083334,72.0,90.0
38,54.47521853125,54.73857744375,70.0,88.0
39,54.70422628125,55.377890745833334,72.0,86.0
40,55.39124953125,56.17369267708333,70.0,88.0
41,56.30728053125,56.566822647916666,70.0,85.0
42,56.53628828125,57.02292975,68.0,86.0
43,56.99430378125,57.2633878875,70.0,86.0
44,57.2519375,58.431327412499996,67.0,77.0
45,60.88743553125,61.043924160416665,75.0,85.0
46,61.11644328125,61.78056575625,75.0,84.0
47,61.80346653125,62.06682544375,74.0,86.0
48,62.03247428125,63.29392530416666,75.0,93.0
49,63.86453628125,64.18896392708334,75.0,87.0
50,64.09354403125,64.74812451666666,74.0,86.0
51,64.55155953125,64.76148330208333,70.0,80.0
52,65.00957503125,65.45995693958334,70.0,90.0
53,65.46759053125,65.75194182083334,67.0,81.0
54,65.69659828125,67.24240059375,70.0,91.0
55,67.29965253125,67.5458358625,63.0,88.0
56,67.52866028125,67.79965278541667,62.0,85.0
57,67.75766803125,68.725225775,63.0,90.0
58,69.13171453125,69.39125664791666,63.0,87.0
59,69.36072228125,69.58973003125,62.0,85.0
60,69.58973003125,70.42942511458334,63.0,87.0
61,70.96377653125,71.16988350625,67.0,85.0
62,71.19278428125,71.35690650208333,70.0,91.0
63,71.42179203124999,71.9198838875,72.0,84.0
64,71.87980753125,72.12408246458334,70.0,89.0
65,72.33782303125,72.7901133375,70.0,88.0
66,72.79583853125,73.01721268958333,67.0,81.0
67,73.02484628125,74.34164084375,70.0,90.0
68,74.85690828125,74.99240453333333,75.0,95.0
69,75.08591603125,75.39125969791667,82.0,95.0
70,75.54393153125,75.9046187375,82.0,90.0
71,76.00194703125,76.39126020625,75.0,93.0
72,76.45996253125,76.60881756875,72.0,88.0
73,76.68897028125,77.93324572291667,75.0,88.0
74,78.52103228125,78.64698654375,70.0,86.0
75,78.75004003125,79.14317000208334,70.0,89.0
76,79.20805553125,79.40462051666667,79.0,88.0
77,79.4084373125,79.60691069583334,79.0,88.0
78,79.66607103125,80.02294144166666,79.0,90.0
79,80.12408653125,80.2443156,77.0,85.0
80,80.35309428125,81.54775137708333,77.0,85.0
81,82.18515628125,82.32065253333333,75.0,95.0
82,82.41416403125,82.71950769791667,82.0,95.0
83,82.87217953125,83.2328667375,82.0,90.0
84,83.33019503125,83.71950820625,75.0,93.0
85,83.78821053125,83.93706556875,72.0,88.0
86,84.01721828125,85.26149372291667,75.0,88.0
87,85.84928028125,85.97523454375,70.0,86.0
88,86.07828803125,86.47141800208334,70.0,89.0
89,86.53630353125,86.86454797291667,79.0,88.0
90,86.99431903125,87.35118944166666,79.0,90.0
91,87.45233453125,87.5725636,77.0,85.0
92,87.68134228125,88.87599937708333,77.0,85.0
93,89.51340428125,89.64890053333333,75.0,95.0
94,89.74241203125,90.04775569791667,82.0,95.0
95,90.20042753125,90.5611147375,82.0,90.0
96,90.65844303125,91.04775620625,75.0,93.0
97,91.11645853125,91.26531356875,72.0,88.0
98,91.34546628125,92.58974172291667,75.0,88.0
99,93.17752828125,93.30348254375,70.0,86.0
100,93.40653603125,93.79966600208333,70.0,89.0
101,93.86455153125,94.05729972083333,79.0,88.0
102,94.06111651666667,94.25386470625,79.0,88.0
103,94.32256703125,94.67943744166666,79.0,90.0
104,94.71951379791666,94.83974286666667,77.0,85.0
105,94.94852154791667,96.14317864375,77.0,85.0
106,96.61264453125,96.78630874166667,75.0,91.0
107,96.84165228125,99.274859625,75.0,88.0
108,100.282493725,100.48096710833333,75.0,88.0
109,100.50577628125,100.70424966458333,75.0,88.0
110,100.73478403125,101.03440250416666,79.0,88.0
111,101.19279953125,101.50195999375,79.0,88.0
112,101.65081503125,102.01341063541666,79.0,88.0
113,101.9886014625,102.10501373541666,77.0,83.0
114,102.251960375,104.00577806041666,77.0,83.0
115,119.51341953125,119.70807611875,63.0,85.0
116,119.74242728125,119.88746552291667,62.0,80.0
117,119.97143503125,120.35883980833333,63.0,85.0
118,120.42945053125,120.60120634375,62.0,84.0
119,120.65845828125,121.80540542916667,63.0,84.0
120,122.26151253125,122.51151265833333,63.0,87.0
121,122.49052028125,122.748154,65.0,85.0
122,122.71952803125,123.12983358333334,67.0,84.0
123,123.17754353125,123.45616962708333,65.0,77.0
124,123.40655128125,123.87983396458333,67.0,87.0
125,123.86456678125,124.35884184166666,70.0,86.0
126,124.32258228124999,124.80349855625,67.0,84.0
127,124.78059778125,126.1718198625,65.0,81.0
128,126.84166753125,127.07067528125,72.0,84.0
129,127.07067528125,127.29586623541667,70.0,88.0
130,127.29968303125,127.78441610208333,72.0,90.0
131,127.75769853125,128.02105744375,70.0,88.0
132,127.98670628125,128.66037074583332,72.0,86.0
133,128.67372953125,129.45617267708334,70.0,88.0
134,129.58976053125,129.84930264791666,68.0,85.0
135,129.81876828125,130.0878523875,70.0,86.0
136,130.04777603125,131.7138074125,67.0,77.0
137,134.16991553125,134.32640416041667,75.0,85.0
138,134.39892328125,135.06304575625,75.0,84.0
139,135.08594653125,135.34930544375,74.0,86.0
140,135.31495428125,136.57640530416666,75.0,93.0
141,137.14701628125,137.47144392708333,75.0,87.0
142,137.37602403125,138.03060451666667,74.0,86.0
143,137.83403953125,138.04396330208334,70.0,80.0
144,138.29205503125,138.74243693958334,70.0,90.0
145,138.75007053125,139.03442182083333,67.0,81.0
146,138.97907828125,140.52488059375,70.0,91.0
147,140.58213253125,140.8283158625,63.0,88.0
148,140.81114028125,141.08213278541666,62.0,85.0
149,141.04014803125,142.007705775,63.0,90.0
150,142.41419453125,142.67373664791666,63.0,87.0
151,142.64320228125,142.87221003125,62.0,85.0
152,142.87221003125,143.71190511458335,63.0,87.0
153,144.24625653125,144.45236350625,67.0,85.0
154,144.47526428125,144.63938650208334,70.0,91.0
155,144.70427203125,145.2023638875,72.0,84.0
156,145.16228753125,145.40656246458335,70.0,89.0
157,145.62030303125,146.0725933375,70.0,88.0
158,146.07831853125,146.29969268958334,67.0,81.0
159,146.30732628125,147.62412084375,70.0,90.0
160,148.13938828125,148.27488453333333,75.0,95.0
161,148.36839603125,148.67373969791666,82.0,95.0
162,148.82641153125,149.1870987375,82.0,90.0
163,149.28442703125,149.67374020625,75.0,93.0
164,149.74244253125,149.89129756875,72.0,88.0
165,149.97145028125,151.21572572291666,75.0,88.0
166,151.80351228125,151.92946654375,70.0,86.0
167,152.03252003125,152.42565000208333,70.0,89.0
168,152.49053553125,152.69282571041666,79.0,88.0
169,152.69664250625,152.90084108333335,79.0,88.0
170,152.94855103125,153.30542144166665,79.0,90.0
171,153.40656653125,153.52679559999999,77.0,85.0
172,153.63557428125,154.83023137708332,77.0,85.0
173,155.46763628125,155.60313253333334,75.0,95.0
174,155.69664403125,156.00198769791666,82.0,95.0
175,156.15465953125,156.5153467375,82.0,90.0
176,156.61267503125,157.00198820625,75.0,93.0
177,157.07069053125,157.21954556875,72.0,88.0
178,157.29969828125,158.54397372291666,75.0,88.0
179,159.13176028125,159.25771454375,70.0,86.0
180,159.36076803125,159.75389800208333,70.0,89.0
181,159.81878353125,160.14702797291667,79.0,88.0
182,160.27679903125,160.63366944166665,79.0,90.0
183,160.73481453125,160.8550436,77.0,85.0
184,160.96382228125,162.15847937708332,77.0,85.0
185,162.79588428125,162.93138053333334,75.0,95.0
186,163.02489203125,163.33023569791666,82.0,95.0
187,163.48290753125,163.8435947375,82.0,90.0
188,163.94092303125,164.33023620625,75.0,93.0
189,164.39893853125,164.54779356875,72.0,88.0
190,164.62794628125,165.87222172291666,75.0,88.0
191,166.46000828125,166.58596254375,70.0,86.0
192,166.68901603125,167.08214600208333,70.0,89.0
193,167.14703153125,167.33977972083332,79.0,88.0
194,167.34359651666668,167.53634470625,79.0,88.0
195,167.60504703125,167.96191744166666,79.0,90.0
196,168.06306253125,168.1832916,77.0,85.0
197,168.29207028125,169.48672737708333,77.0,85.0
198,169.89512453125,170.06878874166668,75.0,91.0
199,170.12413228125,172.557339625,75.0,88.0
200,173.78825628125,173.98672966458332,75.0,88.0
201,174.01726403125,174.31688250416667,79.0,88.0
202,174.47527953125,174.69283689375,79.0,88.0
203,174.69665368958334,174.91611945,79.0,88.0
204,174.93329503125,175.23863869791666,79.0,88.0
205,175.2367303,175.50772280416666,77.0,83.0
206,175.62031828125,177.37413596666667,77.0,83.0
207,192.10887628125,192.24437253333332,75.0,95.0
208,192.33788403125,192.64322769791667,82.0,95.0
209,192.79589953125,193.1565867375,82.0,90.0
210,193.25391503125,193.64322820625,75.0,93.0
211,193.71193053125,193.86078556875,72.0,88.0
212,193.94093828125,195.18521372291667,75.0,88.0
213,195.77300028125,195.89895454375,70.0,86.0
214,196.00200803125,196.39513800208334,70.0,89.0
215,196.46002353125,196.69284807708334,79.0,88.0
216,196.69666487291667,196.91040543958334,79.0,88.0
217,196.91803903125,197.27490944166667,79.0,90.0
218,197.37605453125,197.4962836,77.0,85.0
219,197.60506228125,198.79971937708333,77.0,85.0
220,199.43712428125,199.57262053333332,75.0,95.0
221,199.66613203125,199.97147569791667,82.0,95.0
222,200.12414753125,200.4848347375,82.0,90.0
223,200.58216303125,200.97147620625,75.0,93.0
224,201.04017853125,201.18903356875,72.0,88.0
225,201.26918628125,202.51346172291667,75.0,88.0
226,203.10124828125,203.22720254375,70.0,86.0
227,203.33025603125,203.72338600208334,70.0,89.0
228,203.78827153125,204.11651597291666,79.0,88.0
229,204.24628703125,204.60315744166667,79.0,90.0
230,204.70430253125,204.8245316,77.0,85.0
231,204.93331028125,206.12796737708334,77.0,85.0
232,206.76537228125,206.90086853333332,75.0,95.0
233,206.99438003125,207.29972369791668,82.0,95.0
234,207.45239553125,207.8130827375,82.0,90.0
235,207.91041103125,208.29972420625,75.0,93.0
236,208.36842653125,208.51728156875,72.0,88.0
237,208.59743428125,209.84170972291668,75.0,88.0
238,210.42949628125,210.55545054375,70.0,86.0
239,210.65850403125,211.05163400208335,70.0,89.0
240,211.11651953125,211.29018374166665,79.0,88.0
241,211.2940005375,211.46957314583332,79.0,88.0
242,211.57453503125,211.93140544166667,79.0,90.0
243,212.03255053125,212.1527796,77.0,85.0
244,212.26155828125,213.45621537708334,77.0,85.0
245,213.86461253125,214.03827674166666,75.0,91.0
246,214.09362028125,216.526827625,75.0,88.0
247,217.75774428125,217.95621766458333,75.0,88.0
248,217.98675203125,218.28637050416665,79.0,88.0
249,218.44476753125,218.75392799375,79.0,88.0
250,218.90278303125,219.21576028958333,79.0,88.0
251,219.20812669791667,219.32453897083334,77.0,83.0
252,219.58980628125,220.73102823541666,77.0,83.0
253,221.42186828125,221.55736453333333,76.0,95.0
254,221.65087603125,221.95621969791668,83.0,95.0
255,222.10889153125,222.4695787375,83.0,90.0
256,222.56690703125,222.95622020625,76.0,93.0
257,223.02492253125,223.17377756875,73.0,88.0
258,223.25393028125,224.49820572291668,76.0,88.0
259,225.08599228125,225.21194654375,71.0,86.0
260,225.31500003125,225.70813000208332,71.0,89.0
261,225.77301553125,225.99820648541666,80.0,88.0
262,226.00202328125,226.21576384791666,80.0,88.0
263,226.23103103125,226.58790144166667,80.0,90.0
264,226.52492431041668,226.68141293958334,78.0,85.0
265,226.83980996666668,228.11271137708334,78.0,85.0
266,228.75011628125,228.88561253333333,76.0,95.0
267,228.97912403125,229.28446769791665,83.0,95.0
268,229.43713953125,229.7978267375,83.0,90.0
269,229.89515503125,230.28446820625,76.0,93.0
270,230.35317053125,230.50202556874999,73.0,88.0
271,230.58217828125,230.954315875,76.0,88.0
272,231.06881975,231.61271315625,76.0,88.0
273,232.41424028125,232.54019454375,71.0,86.0
274,232.64324803125,233.03637800208332,71.0,89.0
275,233.10126353125,233.42950797291667,80.0,88.0
276,233.55927903125,233.91614944166668,80.0,90.0
277,234.01729453125,234.1375236,78.0,85.0
278,234.24630228125,235.44095937708335,78.0,85.0
279,236.07836428125,236.21386053333333,76.0,95.0
280,236.30737203125,236.61271569791666,83.0,95.0
281,236.76538753125,237.1260747375,83.0,90.0
282,237.22340303125,237.61271620625,76.0,93.0
283,237.68141853125,237.83027356875,73.0,88.0
284,237.91042628125,238.39706775,76.0,88.0
285,238.39706775,239.11271696875,78.0,88.0
286,239.74248828125,239.86844254375,71.0,86.0
287,239.97149603125,240.36462600208333,71.0,89.0
288,240.42951153125,240.75775597291667,80.0,88.0
289,240.88752703125,241.24439744166668,80.0,90.0
290,241.34554253125,241.4657716,78.0,85.0
291,241.57455028125,242.76920737708332,78.0,85.0
292,243.17760453125,243.35126874166667,76.0,91.0
293,243.40661228125,245.839819625,76.0,88.0
294,247.07073628125,247.26920966458334,76.0,88.0
295,247.29974403125,247.59936250416666,80.0,88.0
296,247.75775953125,248.06691999375,80.0,88.0
297,248.21577503125,248.57837063541666,80.0,88.0
298,248.67379053125,248.79020280416665,78.0,83.0
299,248.90279828125,250.65661596666666,78.0,83.0
